0, 0, Header, 0, 1, 384
1, 0, Start_track
1, 0, Title_t, "Sonata #2 in f#,Op.2--Tak       "
1, 0, Text_t, "2009 International Piano-e-Competition finals"
1, 0, Text_t, "captured June-July 2009"
1, 0, Text_t, "http://www.piano-e-competition.com/"
1, 0, Text_t, "standard-resolution version"
1, 0, Text_t, "File processed for distribution by software from Zenph Studios, Inc., http://www.zenph.com"
1, 0, Instrument_name_t, "Yamaha Disklavier Pro Mark IV concert grand piano, model DCFIIISM4PRO"
1, 0, Sequencer_specific, 39, 67, 113, 0, 1, 0, 1, 0, 83, 111, 110, 97, 116, 97, 32, 50, 32, 70, 35, 109, 79, 112, 50, 32, 89, 111, 117, 110, 103, 45, 65, 104, 32, 84, 97, 107, 32, 32, 32, 32
1, 0, Sequencer_specific, 6, 67, 113, 0, 0, 0, 69
1, 0, System_exclusive, 21, 67, 113, 126, 21, 0, 2, 2, 2, 3, 12, 8, 4, 10, 4, 13, 2, 15, 10, 3, 3, 247
1, 0, Sequencer_specific, 5, 67, 123, 12, 2, 1
1, 0, Tempo, 512820
1, 0, Time_signature, 4, 2, 24, 8
1, 0, System_exclusive, 5, 126, 127, 9, 1, 247
1, 1, System_exclusive, 8, 67, 16, 76, 0, 0, 126, 0, 247
1, 2, System_exclusive, 8, 67, 16, 76, 8, 9, 7, 1, 247
1, 3, Control_c, 0, 0, 0
1, 3, Control_c, 1, 0, 0
1, 3, Control_c, 2, 0, 0
1, 3, Control_c, 3, 0, 0
1, 3, Control_c, 4, 0, 0
1, 3, Control_c, 5, 0, 0
1, 3, Control_c, 6, 0, 0
1, 3, Control_c, 7, 0, 0
1, 3, Control_c, 8, 0, 0
1, 3, Control_c, 9, 0, 127
1, 3, Control_c, 10, 0, 0
1, 3, Control_c, 11, 0, 0
1, 3, Control_c, 12, 0, 0
1, 3, Control_c, 13, 0, 0
1, 3, Control_c, 14, 0, 0
1, 3, Control_c, 15, 0, 0
1, 4, Control_c, 0, 32, 0
1, 4, Control_c, 1, 32, 0
1, 4, Control_c, 2, 32, 0
1, 4, Control_c, 3, 32, 0
1, 4, Control_c, 4, 32, 0
1, 4, Control_c, 5, 32, 0
1, 4, Control_c, 6, 32, 0
1, 4, Control_c, 7, 32, 0
1, 4, Control_c, 8, 32, 0
1, 4, Control_c, 9, 32, 0
1, 4, Control_c, 10, 32, 0
1, 4, Control_c, 11, 32, 0
1, 4, Control_c, 12, 32, 0
1, 4, Control_c, 13, 32, 0
1, 4, Control_c, 14, 32, 0
1, 4, Control_c, 15, 32, 0
1, 5, Program_c, 0, 0
1, 5, Program_c, 1, 0
1, 5, Program_c, 2, 0
1, 5, Program_c, 3, 0
1, 5, Program_c, 4, 0
1, 5, Program_c, 5, 0
1, 5, Program_c, 6, 0
1, 5, Program_c, 7, 0
1, 5, Program_c, 8, 0
1, 5, Program_c, 9, 0
1, 5, Program_c, 10, 0
1, 5, Program_c, 11, 0
1, 5, Program_c, 12, 0
1, 5, Program_c, 13, 0
1, 5, Program_c, 14, 0
1, 5, Program_c, 15, 0
1, 6, Control_c, 0, 7, 100
1, 6, Control_c, 1, 7, 100
1, 6, Control_c, 2, 7, 100
1, 6, Control_c, 3, 7, 100
1, 6, Control_c, 4, 7, 100
1, 6, Control_c, 5, 7, 100
1, 6, Control_c, 6, 7, 100
1, 6, Control_c, 7, 7, 100
1, 6, Control_c, 8, 7, 100
1, 6, Control_c, 9, 7, 100
1, 6, Control_c, 10, 7, 100
1, 6, Control_c, 11, 7, 100
1, 6, Control_c, 12, 7, 100
1, 6, Control_c, 13, 7, 100
1, 6, Control_c, 14, 7, 100
1, 6, Control_c, 15, 7, 100
1, 1131, Note_on_c, 0, 54, 68
1, 1151, Note_on_c, 0, 57, 71
1, 1167, Note_on_c, 0, 90, 90
1, 1168, Note_on_c, 0, 61, 87
1, 1170, Control_c, 0, 64, 64
1, 1171, Note_on_c, 0, 93, 89
1, 1172, Note_on_c, 0, 97, 98
1, 1177, Note_on_c, 0, 102, 104
1, 1179, Note_on_c, 0, 66, 92
1, 1185, Control_c, 0, 64, 85
1, 1199, Control_c, 0, 64, 109
1, 1204, Note_off_c, 0, 90, 65
1, 1209, Note_off_c, 0, 93, 65
1, 1214, Control_c, 0, 64, 127
1, 1217, Note_off_c, 0, 66, 67
1, 1222, Note_off_c, 0, 97, 69
1, 1229, Note_off_c, 0, 102, 65
1, 1233, Note_off_c, 0, 61, 66
1, 1243, Note_off_c, 0, 57, 63
1, 1249, Note_off_c, 0, 54, 65
1, 1535, Note_on_c, 0, 57, 76
1, 1541, Note_on_c, 0, 45, 73
1, 1543, Note_on_c, 0, 93, 91
1, 1546, Note_on_c, 0, 81, 78
1, 1561, Note_off_c, 0, 57, 66
1, 1564, Note_off_c, 0, 81, 72
1, 1574, Note_off_c, 0, 45, 64
1, 1580, Note_off_c, 0, 93, 62
1, 1647, Note_on_c, 0, 95, 103
1, 1648, Note_on_c, 0, 83, 88
1, 1649, Note_on_c, 0, 47, 72
1, 1649, Note_on_c, 0, 59, 83
1, 1666, Note_on_c, 0, 45, 41
1, 1666, Note_off_c, 0, 83, 70
1, 1669, Note_off_c, 0, 59, 71
1, 1676, Note_off_c, 0, 95, 66
1, 1678, Note_off_c, 0, 47, 66
1, 1687, Note_off_c, 0, 45, 64
1, 1727, Control_c, 0, 64, 103
1, 1740, Note_on_c, 0, 61, 88
1, 1742, Note_on_c, 0, 49, 90
1, 1742, Control_c, 0, 64, 70
1, 1746, Note_on_c, 0, 85, 86
1, 1747, Note_on_c, 0, 97, 101
1, 1756, Control_c, 0, 64, 0
1, 1758, Note_off_c, 0, 61, 72
1, 1764, Note_off_c, 0, 49, 71
1, 1765, Note_off_c, 0, 85, 68
1, 1769, Note_off_c, 0, 97, 67
1, 1838, Note_on_c, 0, 90, 107
1, 1839, Note_on_c, 0, 42, 90
1, 1839, Note_on_c, 0, 78, 93
1, 1842, Note_on_c, 0, 54, 91
1, 1857, Note_off_c, 0, 78, 69
1, 1863, Note_off_c, 0, 54, 72
1, 1864, Note_on_c, 0, 80, 47
1, 1869, Note_off_c, 0, 42, 63
1, 1873, Note_off_c, 0, 90, 65
1, 1887, Note_off_c, 0, 80, 39
1, 1921, Note_on_c, 0, 44, 20
1, 1929, Note_on_c, 0, 56, 85
1, 1935, Note_on_c, 0, 80, 92
1, 1936, Note_on_c, 0, 92, 104
1, 1970, Note_off_c, 0, 80, 63
1, 1979, Note_off_c, 0, 56, 64
1, 1988, Note_off_c, 0, 92, 64
1, 1990, Note_off_c, 0, 44, 61
1, 2045, Note_on_c, 0, 57, 92
1, 2050, Note_on_c, 0, 45, 86
1, 2050, Note_on_c, 0, 93, 103
1, 2051, Note_on_c, 0, 81, 98
1, 2068, Control_c, 0, 64, 59
1, 2082, Control_c, 0, 64, 78
1, 2085, Note_off_c, 0, 45, 64
1, 2086, Note_off_c, 0, 57, 67
1, 2104, Control_c, 0, 64, 89
1, 2119, Control_c, 0, 64, 103
1, 2134, Control_c, 0, 64, 110
1, 2149, Control_c, 0, 64, 127
1, 2350, Note_off_c, 0, 93, 56
1, 2381, Note_off_c, 0, 81, 50
1, 2491, Control_c, 0, 64, 82
1, 2497, Note_on_c, 0, 57, 68
1, 2505, Control_c, 0, 64, 0
1, 2511, Note_on_c, 0, 61, 81
1, 2517, Note_on_c, 0, 64, 87
1, 2517, Note_on_c, 0, 69, 97
1, 2529, Note_on_c, 0, 81, 94
1, 2529, Note_on_c, 0, 93, 106
1, 2530, Note_on_c, 0, 88, 95
1, 2534, Note_on_c, 0, 85, 87
1, 2535, Control_c, 0, 64, 50
1, 2550, Control_c, 0, 64, 70
1, 2554, Note_off_c, 0, 81, 67
1, 2558, Note_off_c, 0, 69, 68
1, 2565, Control_c, 0, 64, 87
1, 2566, Note_off_c, 0, 57, 65
1, 2568, Note_off_c, 0, 85, 64
1, 2570, Note_off_c, 0, 64, 68
1, 2572, Note_off_c, 0, 93, 70
1, 2574, Note_off_c, 0, 88, 67
1, 2578, Note_off_c, 0, 61, 65
1, 2579, Control_c, 0, 64, 118
1, 2594, Control_c, 0, 64, 127
1, 2883, Note_on_c, 0, 61, 79
1, 2883, Note_on_c, 0, 85, 90
1, 2884, Note_on_c, 0, 73, 84
1, 2885, Note_on_c, 0, 49, 74
1, 2906, Note_off_c, 0, 61, 64
1, 2910, Note_off_c, 0, 73, 64
1, 2924, Note_off_c, 0, 85, 66
1, 2926, Note_off_c, 0, 49, 61
1, 2987, Note_on_c, 0, 62, 86
1, 2992, Note_on_c, 0, 86, 101
1, 2993, Note_on_c, 0, 50, 77
1, 2996, Note_on_c, 0, 74, 98
1, 3014, Note_off_c, 0, 62, 64
1, 3016, Note_off_c, 0, 74, 70
1, 3023, Note_off_c, 0, 50, 69
1, 3027, Note_off_c, 0, 86, 69
1, 3091, Note_on_c, 0, 52, 91
1, 3091, Note_on_c, 0, 64, 84
1, 3097, Note_on_c, 0, 76, 102
1, 3097, Note_on_c, 0, 88, 104
1, 3112, Note_off_c, 0, 64, 71
1, 3119, Note_off_c, 0, 52, 65
1, 3124, Note_off_c, 0, 76, 64
1, 3129, Note_off_c, 0, 88, 65
1, 3180, Control_c, 0, 64, 116
1, 3195, Control_c, 0, 64, 73
1, 3201, Note_on_c, 0, 57, 90
1, 3204, Note_on_c, 0, 45, 92
1, 3206, Note_on_c, 0, 69, 99
1, 3207, Note_on_c, 0, 81, 99
1, 3209, Control_c, 0, 64, 0
1, 3228, Note_off_c, 0, 57, 66
1, 3228, Note_off_c, 0, 45, 69
1, 3234, Note_off_c, 0, 69, 66
1, 3237, Note_off_c, 0, 81, 67
1, 3315, Note_on_c, 0, 83, 111
1, 3316, Note_on_c, 0, 71, 102
1, 3318, Note_on_c, 0, 59, 98
1, 3320, Note_on_c, 0, 47, 93
1, 3341, Note_off_c, 0, 71, 65
1, 3346, Note_off_c, 0, 59, 64
1, 3347, Note_off_c, 0, 47, 68
1, 3350, Note_off_c, 0, 83, 69
1, 3466, Note_on_c, 0, 49, 92
1, 3467, Note_on_c, 0, 61, 101
1, 3470, Note_on_c, 0, 85, 103
1, 3473, Note_on_c, 0, 73, 103
1, 3495, Note_on_c, 0, 84, 64
1, 3496, Note_off_c, 0, 84, 127
1, 3505, Control_c, 0, 64, 67
1, 3517, Note_on_c, 0, 72, 30
1, 3518, Note_off_c, 0, 72, 127
1, 3520, Control_c, 0, 64, 79
1, 3535, Control_c, 0, 64, 90
1, 3550, Control_c, 0, 64, 106
1, 3565, Control_c, 0, 64, 127
1, 3636, Note_off_c, 0, 61, 64
1, 3720, Note_off_c, 0, 49, 60
1, 3792, Note_off_c, 0, 85, 38
1, 3943, Note_off_c, 0, 73, 52
1, 4062, Control_c, 0, 64, 100
1, 4076, Control_c, 0, 64, 64
1, 4077, Note_on_c, 0, 73, 67
1, 4091, Control_c, 0, 64, 0
1, 4106, Note_on_c, 0, 77, 83
1, 4113, Note_on_c, 0, 80, 90
1, 4121, Control_c, 0, 64, 60
1, 4122, Note_on_c, 0, 44, 89
1, 4126, Note_on_c, 0, 37, 83
1, 4127, Note_on_c, 0, 85, 95
1, 4136, Control_c, 0, 64, 81
1, 4140, Note_off_c, 0, 73, 63
1, 4149, Note_off_c, 0, 77, 64
1, 4150, Control_c, 0, 64, 108
1, 4165, Control_c, 0, 64, 127
1, 4178, Note_off_c, 0, 80, 65
1, 4196, Note_on_c, 0, 39, 3
1, 4203, Note_off_c, 0, 85, 67
1, 4244, Note_off_c, 0, 39, 45
1, 4529, Control_c, 0, 67, 9
1, 4543, Control_c, 0, 67, 19
1, 4558, Control_c, 0, 67, 28
1, 4573, Control_c, 0, 67, 32
1, 4588, Control_c, 0, 67, 33
1, 4603, Control_c, 0, 67, 36
1, 4617, Control_c, 0, 67, 40
1, 4627, Note_off_c, 0, 37, 37
1, 4629, Note_off_c, 0, 44, 56
1, 4632, Control_c, 0, 67, 48
1, 4644, Note_on_c, 0, 47, 41
1, 4647, Control_c, 0, 67, 58
1, 4662, Control_c, 0, 67, 65
1, 4677, Control_c, 0, 67, 73
1, 4692, Control_c, 0, 67, 85
1, 4707, Control_c, 0, 67, 94
1, 4722, Control_c, 0, 67, 99
1, 4737, Control_c, 0, 67, 102
1, 4752, Control_c, 0, 67, 103
1, 4766, Control_c, 0, 67, 104
1, 4781, Control_c, 0, 67, 107
1, 4796, Control_c, 0, 67, 110
1, 4811, Control_c, 0, 67, 112
1, 4826, Control_c, 0, 67, 113
1, 4841, Control_c, 0, 64, 114
1, 4856, Control_c, 0, 64, 80
1, 4867, Note_off_c, 0, 47, 44
1, 4868, Note_on_c, 0, 44, 42
1, 4871, Control_c, 0, 64, 0
1, 4873, Note_on_c, 0, 37, 39
1, 4915, Control_c, 0, 67, 112
1, 4960, Control_c, 0, 64, 33
1, 4972, Control_c, 0, 64, 52
1, 4987, Control_c, 0, 64, 60
1, 4987, Control_c, 0, 67, 111
1, 5002, Control_c, 0, 64, 63
1, 5002, Control_c, 0, 67, 111
1, 5017, Control_c, 0, 64, 65
1, 5017, Control_c, 0, 67, 110
1, 5030, Note_off_c, 0, 44, 53
1, 5032, Control_c, 0, 64, 67
1, 5046, Control_c, 0, 64, 68
1, 5052, Note_on_c, 0, 61, 50
1, 5056, Note_off_c, 0, 37, 45
1, 5061, Control_c, 0, 64, 70
1, 5062, Note_on_c, 0, 47, 25
1, 5076, Control_c, 0, 64, 71
1, 5098, Control_c, 0, 64, 73
1, 5098, Control_c, 0, 67, 110
1, 5113, Control_c, 0, 64, 75
1, 5128, Control_c, 0, 64, 78
1, 5143, Control_c, 0, 64, 80
1, 5158, Control_c, 0, 64, 81
1, 5158, Control_c, 0, 67, 109
1, 5167, Note_off_c, 0, 61, 61
1, 5172, Control_c, 0, 64, 82
1, 5187, Control_c, 0, 64, 82
1, 5187, Control_c, 0, 67, 109
1, 5247, Note_off_c, 0, 47, 41
1, 5258, Note_on_c, 0, 37, 37
1, 5270, Note_on_c, 0, 44, 33
1, 5273, Note_on_c, 0, 61, 45
1, 5291, Control_c, 0, 64, 82
1, 5306, Control_c, 0, 64, 78
1, 5321, Control_c, 0, 64, 73
1, 5336, Control_c, 0, 64, 69
1, 5350, Control_c, 0, 64, 69
1, 5350, Control_c, 0, 67, 108
1, 5365, Control_c, 0, 64, 71
1, 5380, Control_c, 0, 64, 73
1, 5395, Control_c, 0, 64, 75
1, 5410, Control_c, 0, 64, 77
1, 5410, Control_c, 0, 67, 108
1, 5424, Control_c, 0, 64, 80
1, 5424, Control_c, 0, 67, 107
1, 5428, Note_on_c, 0, 62, 50
1, 5428, Note_off_c, 0, 37, 39
1, 5430, Note_off_c, 0, 44, 45
1, 5434, Note_off_c, 0, 61, 38
1, 5438, Note_on_c, 0, 47, 33
1, 5439, Control_c, 0, 64, 82
1, 5454, Control_c, 0, 64, 83
1, 5469, Control_c, 0, 64, 83
1, 5473, Note_off_c, 0, 62, 60
1, 5484, Control_c, 0, 64, 84
1, 5498, Control_c, 0, 64, 86
1, 5514, Control_c, 0, 64, 88
1, 5529, Control_c, 0, 64, 88
1, 5554, Note_on_c, 0, 44, 33
1, 5555, Note_on_c, 0, 37, 42
1, 5559, Note_off_c, 0, 47, 36
1, 5559, Control_c, 0, 64, 85
1, 5574, Note_on_c, 0, 62, 53
1, 5574, Control_c, 0, 64, 80
1, 5588, Control_c, 0, 64, 76
1, 5603, Control_c, 0, 64, 75
1, 5633, Control_c, 0, 64, 76
1, 5648, Control_c, 0, 64, 77
1, 5648, Control_c, 0, 67, 107
1, 5657, Note_off_c, 0, 62, 54
1, 5662, Control_c, 0, 64, 80
1, 5669, Note_off_c, 0, 44, 47
1, 5676, Note_on_c, 0, 61, 63
1, 5677, Control_c, 0, 64, 81
1, 5684, Note_on_c, 0, 47, 45
1, 5686, Note_off_c, 0, 37, 37
1, 5692, Control_c, 0, 64, 83
1, 5707, Control_c, 0, 64, 83
1, 5709, Note_off_c, 0, 61, 63
1, 5721, Control_c, 0, 64, 84
1, 5766, Control_c, 0, 64, 80
1, 5771, Note_off_c, 0, 47, 61
1, 5781, Control_c, 0, 64, 72
1, 5795, Note_on_c, 0, 44, 44
1, 5795, Control_c, 0, 64, 57
1, 5797, Note_on_c, 0, 61, 62
1, 5807, Note_on_c, 0, 37, 46
1, 5810, Control_c, 0, 64, 47
1, 5825, Control_c, 0, 64, 60
1, 5847, Control_c, 0, 64, 65
1, 5862, Control_c, 0, 64, 68
1, 5877, Control_c, 0, 64, 71
1, 5892, Control_c, 0, 64, 74
1, 5896, Note_off_c, 0, 61, 60
1, 5898, Note_off_c, 0, 44, 59
1, 5907, Note_off_c, 0, 37, 55
1, 5907, Control_c, 0, 64, 76
1, 5915, Note_on_c, 0, 65, 64
1, 5918, Note_on_c, 0, 47, 49
1, 5921, Control_c, 0, 64, 78
1, 5936, Control_c, 0, 64, 81
1, 5943, Note_off_c, 0, 65, 65
1, 5951, Control_c, 0, 64, 83
1, 5966, Control_c, 0, 64, 83
1, 5981, Control_c, 0, 64, 80
1, 5990, Note_off_c, 0, 47, 58
1, 5995, Control_c, 0, 64, 76
1, 6010, Control_c, 0, 64, 74
1, 6024, Note_on_c, 0, 44, 48
1, 6025, Note_on_c, 0, 65, 62
1, 6039, Note_on_c, 0, 37, 40
1, 6040, Control_c, 0, 64, 76
1, 6054, Control_c, 0, 64, 79
1, 6054, Control_c, 0, 67, 106
1, 6069, Control_c, 0, 64, 82
1, 6084, Control_c, 0, 64, 85
1, 6090, Note_off_c, 0, 65, 61
1, 6099, Note_off_c, 0, 44, 57
1, 6099, Control_c, 0, 64, 87
1, 6114, Control_c, 0, 64, 87
1, 6119, Note_off_c, 0, 37, 39
1, 6123, Note_on_c, 0, 47, 53
1, 6129, Note_on_c, 0, 61, 72
1, 6154, Note_off_c, 0, 61, 66
1, 6158, Control_c, 0, 64, 88
1, 6192, Note_off_c, 0, 47, 49
1, 6203, Control_c, 0, 64, 87
1, 6218, Control_c, 0, 64, 83
1, 6226, Note_on_c, 0, 44, 46
1, 6230, Note_on_c, 0, 61, 73
1, 6233, Control_c, 0, 64, 72
1, 6233, Control_c, 0, 67, 107
1, 6238, Note_on_c, 0, 37, 44
1, 6247, Control_c, 0, 64, 56
1, 6262, Control_c, 0, 64, 49
1, 6277, Control_c, 0, 64, 62
1, 6292, Control_c, 0, 64, 64
1, 6304, Note_off_c, 0, 44, 59
1, 6307, Control_c, 0, 64, 67
1, 6307, Note_off_c, 0, 61, 54
1, 6308, Note_off_c, 0, 37, 55
1, 6322, Control_c, 0, 64, 70
1, 6326, Note_on_c, 0, 68, 67
1, 6333, Note_on_c, 0, 47, 52
1, 6337, Control_c, 0, 64, 72
1, 6352, Control_c, 0, 64, 74
1, 6358, Note_off_c, 0, 68, 60
1, 6367, Control_c, 0, 64, 75
1, 6367, Control_c, 0, 67, 106
1, 6395, Note_off_c, 0, 47, 54
1, 6397, Control_c, 0, 64, 76
1, 6397, Control_c, 0, 67, 105
1, 6411, Control_c, 0, 64, 77
1, 6426, Control_c, 0, 64, 79
1, 6427, Note_on_c, 0, 44, 54
1, 6438, Note_on_c, 0, 68, 65
1, 6441, Control_c, 0, 64, 79
1, 6443, Note_on_c, 0, 37, 48
1, 6456, Control_c, 0, 67, 105
1, 6485, Control_c, 0, 64, 80
1, 6485, Control_c, 0, 67, 104
1, 6489, Note_off_c, 0, 37, 57
1, 6500, Control_c, 0, 64, 81
1, 6500, Control_c, 0, 67, 104
1, 6501, Note_off_c, 0, 68, 60
1, 6501, Note_off_c, 0, 44, 59
1, 6515, Control_c, 0, 64, 82
1, 6515, Control_c, 0, 67, 102
1, 6521, Note_on_c, 0, 61, 72
1, 6528, Note_on_c, 0, 47, 59
1, 6530, Control_c, 0, 64, 84
1, 6530, Control_c, 0, 67, 101
1, 6544, Control_c, 0, 64, 84
1, 6547, Note_off_c, 0, 61, 64
1, 6574, Control_c, 0, 67, 100
1, 6597, Control_c, 0, 64, 85
1, 6606, Note_off_c, 0, 47, 44
1, 6611, Control_c, 0, 67, 100
1, 6626, Control_c, 0, 64, 85
1, 6626, Control_c, 0, 67, 99
1, 6627, Note_on_c, 0, 44, 59
1, 6631, Note_on_c, 0, 37, 48
1, 6638, Note_on_c, 0, 61, 70
1, 6641, Control_c, 0, 64, 82
1, 6641, Control_c, 0, 67, 98
1, 6656, Control_c, 0, 64, 78
1, 6656, Control_c, 0, 67, 97
1, 6670, Control_c, 0, 64, 77
1, 6670, Control_c, 0, 67, 93
1, 6685, Control_c, 0, 64, 77
1, 6685, Control_c, 0, 67, 85
1, 6688, Note_off_c, 0, 61, 51
1, 6700, Control_c, 0, 64, 78
1, 6700, Control_c, 0, 67, 78
1, 6715, Control_c, 0, 64, 80
1, 6715, Control_c, 0, 67, 72
1, 6719, Note_off_c, 0, 44, 62
1, 6725, Note_on_c, 0, 74, 74
1, 6730, Control_c, 0, 64, 82
1, 6730, Control_c, 0, 67, 67
1, 6742, Note_on_c, 0, 47, 59
1, 6744, Control_c, 0, 64, 84
1, 6744, Control_c, 0, 67, 61
1, 6748, Note_off_c, 0, 37, 36
1, 6758, Note_off_c, 0, 74, 62
1, 6759, Control_c, 0, 64, 85
1, 6759, Control_c, 0, 67, 56
1, 6774, Control_c, 0, 64, 85
1, 6774, Control_c, 0, 67, 52
1, 6789, Control_c, 0, 64, 86
1, 6789, Control_c, 0, 67, 48
1, 6803, Note_off_c, 0, 47, 58
1, 6804, Control_c, 0, 64, 87
1, 6804, Control_c, 0, 67, 44
1, 6818, Control_c, 0, 64, 86
1, 6818, Control_c, 0, 67, 39
1, 6833, Control_c, 0, 64, 82
1, 6833, Control_c, 0, 67, 35
1, 6835, Note_on_c, 0, 44, 64
1, 6838, Note_on_c, 0, 74, 80
1, 6848, Control_c, 0, 64, 79
1, 6848, Control_c, 0, 67, 32
1, 6855, Note_on_c, 0, 37, 49
1, 6863, Control_c, 0, 64, 78
1, 6863, Control_c, 0, 67, 30
1, 6877, Control_c, 0, 64, 79
1, 6877, Control_c, 0, 67, 26
1, 6892, Control_c, 0, 64, 82
1, 6892, Control_c, 0, 67, 20
1, 6895, Note_off_c, 0, 74, 64
1, 6907, Control_c, 0, 64, 86
1, 6907, Control_c, 0, 67, 12
1, 6921, Note_off_c, 0, 44, 62
1, 6922, Control_c, 0, 64, 90
1, 6922, Control_c, 0, 67, 0
1, 6923, Note_on_c, 0, 61, 81
1, 6932, Note_on_c, 0, 47, 62
1, 6933, Note_off_c, 0, 37, 39
1, 6937, Control_c, 0, 64, 93
1, 6951, Control_c, 0, 64, 94
1, 6957, Note_off_c, 0, 61, 60
1, 6966, Control_c, 0, 64, 95
1, 6981, Control_c, 0, 64, 95
1, 6996, Control_c, 0, 64, 96
1, 7011, Control_c, 0, 64, 97
1, 7017, Note_off_c, 0, 47, 58
1, 7029, Note_on_c, 0, 44, 70
1, 7032, Note_on_c, 0, 61, 85
1, 7037, Note_on_c, 0, 37, 62
1, 7041, Control_c, 0, 64, 94
1, 7056, Control_c, 0, 64, 86
1, 7070, Control_c, 0, 64, 78
1, 7079, Note_off_c, 0, 61, 62
1, 7085, Control_c, 0, 64, 75
1, 7100, Control_c, 0, 64, 77
1, 7115, Control_c, 0, 64, 80
1, 7129, Note_on_c, 0, 77, 85
1, 7129, Note_off_c, 0, 44, 62
1, 7130, Control_c, 0, 64, 84
1, 7131, Note_off_c, 0, 37, 52
1, 7133, Note_on_c, 0, 47, 70
1, 7145, Control_c, 0, 64, 88
1, 7160, Control_c, 0, 64, 92
1, 7175, Control_c, 0, 64, 95
1, 7181, Note_off_c, 0, 77, 62
1, 7190, Control_c, 0, 64, 96
1, 7205, Control_c, 0, 64, 98
1, 7220, Control_c, 0, 64, 101
1, 7225, Note_off_c, 0, 47, 62
1, 7231, Note_on_c, 0, 77, 82
1, 7232, Note_on_c, 0, 44, 75
1, 7234, Control_c, 0, 64, 104
1, 7240, Note_on_c, 0, 37, 60
1, 7249, Control_c, 0, 64, 108
1, 7264, Control_c, 0, 64, 111
1, 7279, Control_c, 0, 64, 111
1, 7293, Control_c, 0, 64, 113
1, 7308, Control_c, 0, 64, 118
1, 7317, Note_off_c, 0, 44, 61
1, 7322, Note_on_c, 0, 73, 87
1, 7323, Control_c, 0, 64, 127
1, 7324, Note_off_c, 0, 77, 62
1, 7339, Note_on_c, 0, 47, 74
1, 7362, Note_off_c, 0, 37, 39
1, 7372, Note_off_c, 0, 73, 62
1, 7419, Control_c, 0, 64, 107
1, 7424, Note_off_c, 0, 47, 62
1, 7428, Note_on_c, 0, 73, 86
1, 7429, Note_on_c, 0, 44, 74
1, 7432, Note_on_c, 0, 37, 57
1, 7434, Control_c, 0, 64, 89
1, 7449, Control_c, 0, 64, 76
1, 7464, Control_c, 0, 64, 73
1, 7479, Control_c, 0, 64, 77
1, 7493, Control_c, 0, 64, 81
1, 7508, Control_c, 0, 64, 85
1, 7511, Note_off_c, 0, 73, 56
1, 7519, Note_on_c, 0, 80, 83
1, 7523, Control_c, 0, 64, 89
1, 7528, Note_off_c, 0, 44, 62
1, 7531, Note_on_c, 0, 47, 71
1, 7538, Control_c, 0, 64, 92
1, 7552, Note_off_c, 0, 37, 36
1, 7553, Control_c, 0, 64, 94
1, 7564, Note_off_c, 0, 80, 63
1, 7567, Control_c, 0, 64, 95
1, 7582, Control_c, 0, 64, 96
1, 7597, Control_c, 0, 64, 98
1, 7612, Note_off_c, 0, 47, 64
1, 7612, Control_c, 0, 64, 100
1, 7618, Note_on_c, 0, 44, 77
1, 7618, Note_on_c, 0, 80, 91
1, 7625, Note_on_c, 0, 37, 61
1, 7656, Control_c, 0, 64, 100
1, 7704, Note_off_c, 0, 80, 61
1, 7709, Note_on_c, 0, 73, 96
1, 7714, Note_off_c, 0, 37, 52
1, 7717, Note_off_c, 0, 44, 62
1, 7718, Note_on_c, 0, 47, 75
1, 7745, Control_c, 0, 64, 102
1, 7756, Note_off_c, 0, 73, 62
1, 7760, Control_c, 0, 64, 103
1, 7774, Control_c, 0, 64, 104
1, 7789, Control_c, 0, 64, 103
1, 7804, Control_c, 0, 64, 93
1, 7806, Note_off_c, 0, 47, 61
1, 7810, Note_on_c, 0, 44, 84
1, 7815, Note_on_c, 0, 37, 71
1, 7815, Note_on_c, 0, 73, 95
1, 7819, Control_c, 0, 64, 78
1, 7834, Control_c, 0, 64, 66
1, 7849, Control_c, 0, 64, 68
1, 7864, Control_c, 0, 64, 73
1, 7879, Control_c, 0, 64, 78
1, 7893, Note_off_c, 0, 73, 61
1, 7893, Control_c, 0, 64, 83
1, 7908, Note_on_c, 0, 86, 94
1, 7909, Control_c, 0, 64, 89
1, 7911, Note_on_c, 0, 47, 76
1, 7923, Note_off_c, 0, 37, 60
1, 7924, Note_off_c, 0, 44, 63
1, 7924, Control_c, 0, 64, 93
1, 7939, Control_c, 0, 64, 94
1, 7948, Note_off_c, 0, 86, 67
1, 7954, Control_c, 0, 64, 95
1, 7985, Control_c, 0, 64, 96
1, 7999, Control_c, 0, 64, 97
1, 8012, Note_on_c, 0, 86, 95
1, 8014, Note_on_c, 0, 44, 79
1, 8014, Control_c, 0, 64, 98
1, 8017, Note_off_c, 0, 47, 62
1, 8020, Note_on_c, 0, 37, 68
1, 8029, Control_c, 0, 64, 98
1, 8058, Control_c, 0, 64, 99
1, 8073, Note_off_c, 0, 86, 63
1, 8073, Control_c, 0, 64, 99
1, 8096, Control_c, 0, 64, 100
1, 8109, Note_on_c, 0, 73, 93
1, 8111, Control_c, 0, 64, 102
1, 8118, Note_off_c, 0, 44, 62
1, 8121, Note_off_c, 0, 37, 51
1, 8124, Note_on_c, 0, 47, 73
1, 8125, Control_c, 0, 64, 102
1, 8150, Note_off_c, 0, 73, 63
1, 8155, Control_c, 0, 64, 103
1, 8213, Note_off_c, 0, 47, 62
1, 8214, Control_c, 0, 64, 102
1, 8217, Note_on_c, 0, 44, 77
1, 8221, Note_on_c, 0, 37, 70
1, 8221, Note_on_c, 0, 73, 96
1, 8229, Control_c, 0, 64, 89
1, 8243, Control_c, 0, 64, 74
1, 8258, Control_c, 0, 64, 66
1, 8273, Control_c, 0, 64, 69
1, 8279, Note_off_c, 0, 73, 67
1, 8288, Control_c, 0, 64, 74
1, 8303, Control_c, 0, 64, 79
1, 8317, Control_c, 0, 64, 84
1, 8330, Note_on_c, 0, 89, 102
1, 8332, Control_c, 0, 64, 91
1, 8334, Note_on_c, 0, 47, 70
1, 8343, Note_off_c, 0, 44, 61
1, 8347, Control_c, 0, 64, 97
1, 8352, Note_off_c, 0, 37, 63
1, 8362, Control_c, 0, 64, 101
1, 8377, Control_c, 0, 64, 103
1, 8383, Note_off_c, 0, 89, 64
1, 8391, Control_c, 0, 64, 104
1, 8406, Control_c, 0, 64, 106
1, 8421, Control_c, 0, 64, 110
1, 8436, Control_c, 0, 64, 116
1, 8436, Note_on_c, 0, 44, 86
1, 8439, Note_off_c, 0, 47, 58
1, 8444, Note_on_c, 0, 89, 98
1, 8448, Note_on_c, 0, 37, 72
1, 8451, Control_c, 0, 64, 127
1, 8480, Note_off_c, 0, 89, 65
1, 8535, Note_on_c, 0, 73, 98
1, 8537, Note_on_c, 0, 47, 82
1, 8542, Note_off_c, 0, 44, 61
1, 8547, Note_off_c, 0, 37, 61
1, 8578, Note_off_c, 0, 73, 64
1, 8631, Note_on_c, 0, 44, 86
1, 8635, Note_on_c, 0, 37, 81
1, 8638, Note_on_c, 0, 73, 102
1, 8641, Note_off_c, 0, 47, 65
1, 8643, Control_c, 0, 64, 103
1, 8658, Control_c, 0, 64, 76
1, 8673, Control_c, 0, 64, 62
1, 8688, Control_c, 0, 64, 66
1, 8703, Control_c, 0, 64, 73
1, 8715, Note_off_c, 0, 73, 64
1, 8718, Control_c, 0, 64, 79
1, 8733, Control_c, 0, 64, 85
1, 8736, Note_on_c, 0, 86, 101
1, 8739, Note_on_c, 0, 47, 84
1, 8747, Control_c, 0, 64, 92
1, 8749, Note_off_c, 0, 44, 62
1, 8750, Note_off_c, 0, 37, 62
1, 8762, Control_c, 0, 64, 98
1, 8775, Note_off_c, 0, 86, 69
1, 8777, Control_c, 0, 64, 101
1, 8792, Control_c, 0, 64, 103
1, 8807, Control_c, 0, 64, 104
1, 8821, Control_c, 0, 64, 105
1, 8842, Note_on_c, 0, 44, 91
1, 8844, Control_c, 0, 64, 107
1, 8847, Note_on_c, 0, 37, 82
1, 8848, Note_on_c, 0, 86, 106
1, 8852, Note_off_c, 0, 47, 61
1, 8859, Control_c, 0, 64, 109
1, 8873, Control_c, 0, 64, 111
1, 8888, Control_c, 0, 64, 112
1, 8903, Control_c, 0, 64, 114
1, 8910, Note_off_c, 0, 86, 53
1, 8918, Control_c, 0, 64, 117
1, 8933, Control_c, 0, 64, 123
1, 8937, Note_on_c, 0, 73, 96
1, 8946, Note_on_c, 0, 47, 86
1, 8947, Control_c, 0, 64, 127
1, 8958, Note_off_c, 0, 37, 62
1, 8964, Note_off_c, 0, 44, 61
1, 8977, Note_off_c, 0, 73, 63
1, 9036, Control_c, 0, 64, 114
1, 9045, Note_on_c, 0, 44, 88
1, 9047, Note_on_c, 0, 73, 106
1, 9049, Note_on_c, 0, 37, 80
1, 9051, Control_c, 0, 64, 82
1, 9056, Note_off_c, 0, 47, 65
1, 9065, Control_c, 0, 64, 63
1, 9080, Control_c, 0, 64, 65
1, 9095, Control_c, 0, 64, 74
1, 9102, Note_off_c, 0, 73, 66
1, 9110, Control_c, 0, 64, 81
1, 9125, Control_c, 0, 64, 90
1, 9139, Control_c, 0, 64, 102
1, 9146, Note_on_c, 0, 89, 106
1, 9148, Note_on_c, 0, 47, 88
1, 9154, Control_c, 0, 64, 127
1, 9165, Note_off_c, 0, 37, 61
1, 9166, Note_off_c, 0, 44, 62
1, 9188, Note_off_c, 0, 89, 65
1, 9248, Note_on_c, 0, 44, 90
1, 9251, Note_on_c, 0, 37, 86
1, 9252, Note_on_c, 0, 89, 107
1, 9260, Note_off_c, 0, 47, 61
1, 9294, Note_off_c, 0, 89, 65
1, 9303, Note_on_c, 0, 88, 24
1, 9336, Note_off_c, 0, 88, 56
1, 9354, Note_on_c, 0, 47, 88
1, 9357, Note_on_c, 0, 73, 102
1, 9372, Note_off_c, 0, 44, 63
1, 9378, Poly_aftertouch_c, 0, 39, 0
1, 9379, Note_off_c, 0, 37, 54
1, 9399, Note_off_c, 0, 73, 63
1, 9451, Control_c, 0, 64, 86
1, 9464, Note_on_c, 0, 44, 92
1, 9465, Control_c, 0, 64, 0
1, 9470, Note_on_c, 0, 37, 84
1, 9470, Note_on_c, 0, 73, 102
1, 9481, Note_off_c, 0, 47, 64
1, 9495, Control_c, 0, 64, 19
1, 9511, Control_c, 0, 64, 59
1, 9526, Control_c, 0, 64, 69
1, 9541, Control_c, 0, 64, 80
1, 9553, Note_off_c, 0, 73, 67
1, 9556, Control_c, 0, 64, 93
1, 9570, Control_c, 0, 64, 101
1, 9592, Control_c, 0, 64, 107
1, 9595, Note_on_c, 0, 86, 99
1, 9607, Note_on_c, 0, 47, 89
1, 9607, Control_c, 0, 64, 112
1, 9611, Note_off_c, 0, 37, 59
1, 9622, Control_c, 0, 64, 115
1, 9628, Note_off_c, 0, 44, 61
1, 9629, Note_off_c, 0, 86, 68
1, 9637, Control_c, 0, 64, 121
1, 9652, Control_c, 0, 64, 127
1, 9711, Control_c, 0, 64, 112
1, 9726, Control_c, 0, 64, 83
1, 9741, Control_c, 0, 64, 42
1, 9744, Note_on_c, 0, 86, 102
1, 9745, Note_on_c, 0, 37, 77
1, 9750, Note_on_c, 0, 44, 83
1, 9755, Note_off_c, 0, 47, 67
1, 9756, Control_c, 0, 64, 0
1, 9770, Control_c, 0, 64, 63
1, 9785, Control_c, 0, 64, 70
1, 9800, Control_c, 0, 64, 78
1, 9815, Control_c, 0, 64, 87
1, 9830, Control_c, 0, 64, 97
1, 9844, Control_c, 0, 64, 106
1, 9859, Control_c, 0, 64, 115
1, 9874, Control_c, 0, 64, 127
1, 9876, Note_on_c, 0, 47, 91
1, 9878, Note_off_c, 0, 37, 61
1, 9893, Note_on_c, 0, 98, 103
1, 9893, Note_off_c, 0, 44, 64
1, 9898, Note_off_c, 0, 47, 70
1, 10057, Note_off_c, 0, 86, 60
1, 10076, Note_off_c, 0, 98, 61
1, 10111, Control_c, 0, 64, 96
1, 10126, Control_c, 0, 64, 0
1, 10148, Note_on_c, 0, 62, 95
1, 10151, Note_on_c, 0, 50, 94
1, 10160, Note_on_c, 0, 98, 115
1, 10161, Note_on_c, 0, 86, 98
1, 10183, Note_off_c, 0, 62, 68
1, 10185, Control_c, 0, 64, 47
1, 10186, Note_off_c, 0, 50, 66
1, 10190, Note_off_c, 0, 86, 68
1, 10195, Note_off_c, 0, 98, 68
1, 10200, Control_c, 0, 64, 68
1, 10214, Control_c, 0, 64, 78
1, 10229, Control_c, 0, 64, 88
1, 10244, Control_c, 0, 64, 96
1, 10259, Control_c, 0, 64, 103
1, 10274, Control_c, 0, 64, 107
1, 10288, Control_c, 0, 64, 107
1, 10385, Control_c, 0, 64, 107
1, 10400, Control_c, 0, 64, 104
1, 10415, Control_c, 0, 64, 103
1, 10475, Control_c, 0, 64, 102
1, 10490, Control_c, 0, 64, 88
1, 10504, Control_c, 0, 64, 0
1, 10630, Note_on_c, 0, 61, 88
1, 10631, Note_on_c, 0, 97, 105
1, 10633, Note_on_c, 0, 49, 74
1, 10633, Note_on_c, 0, 85, 101
1, 10637, Control_c, 0, 64, 62
1, 10652, Control_c, 0, 64, 67
1, 10665, Note_off_c, 0, 85, 64
1, 10667, Control_c, 0, 64, 70
1, 10671, Note_off_c, 0, 97, 65
1, 10682, Control_c, 0, 64, 71
1, 10685, Note_on_c, 0, 51, 4
1, 10697, Control_c, 0, 64, 72
1, 10707, Note_off_c, 0, 61, 61
1, 10711, Control_c, 0, 64, 72
1, 10726, Control_c, 0, 64, 70
1, 10741, Control_c, 0, 64, 67
1, 10742, Note_off_c, 0, 51, 25
1, 10756, Control_c, 0, 64, 64
1, 10771, Control_c, 0, 64, 66
1, 10785, Control_c, 0, 64, 70
1, 10790, Note_on_c, 0, 48, 87
1, 10790, Note_on_c, 0, 60, 88
1, 10790, Note_on_c, 0, 84, 97
1, 10791, Note_on_c, 0, 96, 105
1, 10797, Note_off_c, 0, 49, 55
1, 10800, Control_c, 0, 64, 72
1, 10815, Control_c, 0, 64, 73
1, 10817, Note_off_c, 0, 84, 65
1, 10822, Note_off_c, 0, 96, 68
1, 10829, Note_off_c, 0, 60, 63
1, 10829, Control_c, 0, 64, 74
1, 10832, Note_off_c, 0, 48, 64
1, 10844, Control_c, 0, 64, 75
1, 10874, Control_c, 0, 64, 72
1, 10889, Control_c, 0, 64, 61
1, 10904, Control_c, 0, 64, 0
1, 10919, Control_c, 0, 64, 38
1, 10928, Note_on_c, 0, 47, 93
1, 10929, Note_on_c, 0, 59, 98
1, 10931, Note_on_c, 0, 95, 110
1, 10934, Control_c, 0, 64, 64
1, 10934, Note_on_c, 0, 83, 95
1, 10949, Control_c, 0, 64, 70
1, 10952, Note_off_c, 0, 83, 72
1, 10960, Note_off_c, 0, 59, 62
1, 10964, Control_c, 0, 64, 73
1, 10965, Note_off_c, 0, 47, 64
1, 10968, Note_off_c, 0, 95, 66
1, 10978, Control_c, 0, 64, 70
1, 10993, Control_c, 0, 64, 63
1, 11008, Control_c, 0, 64, 54
1, 11023, Control_c, 0, 64, 65
1, 11038, Control_c, 0, 64, 71
1, 11050, Note_on_c, 0, 58, 99
1, 11050, Note_on_c, 0, 82, 95
1, 11052, Note_on_c, 0, 94, 102
1, 11053, Control_c, 0, 64, 72
1, 11057, Note_on_c, 0, 46, 79
1, 11068, Control_c, 0, 64, 69
1, 11090, Control_c, 0, 64, 64
1, 11092, Note_on_c, 0, 49, 44
1, 11095, Note_off_c, 0, 82, 66
1, 11097, Note_off_c, 0, 58, 64
1, 11097, Note_off_c, 0, 94, 66
1, 11105, Control_c, 0, 64, 64
1, 11116, Note_off_c, 0, 46, 56
1, 11121, Control_c, 0, 64, 68
1, 11127, Note_off_c, 0, 49, 55
1, 11135, Control_c, 0, 64, 70
1, 11150, Control_c, 0, 64, 67
1, 11165, Note_on_c, 0, 57, 91
1, 11165, Control_c, 0, 64, 57
1, 11167, Note_on_c, 0, 45, 88
1, 11167, Note_on_c, 0, 93, 104
1, 11168, Note_on_c, 0, 81, 96
1, 11180, Control_c, 0, 64, 53
1, 11193, Note_off_c, 0, 81, 68
1, 11195, Control_c, 0, 64, 64
1, 11197, Note_off_c, 0, 57, 65
1, 11204, Note_off_c, 0, 93, 63
1, 11205, Note_off_c, 0, 45, 63
1, 11210, Control_c, 0, 64, 68
1, 11239, Control_c, 0, 64, 66
1, 11254, Control_c, 0, 64, 61
1, 11268, Note_on_c, 0, 56, 96
1, 11268, Control_c, 0, 64, 63
1, 11271, Note_on_c, 0, 92, 84
1, 11271, Note_on_c, 0, 80, 92
1, 11274, Note_on_c, 0, 44, 94
1, 11283, Control_c, 0, 64, 67
1, 11298, Control_c, 0, 64, 69
1, 11309, Note_off_c, 0, 80, 65
1, 11311, Note_off_c, 0, 56, 66
1, 11313, Control_c, 0, 64, 67
1, 11321, Note_off_c, 0, 92, 66
1, 11328, Control_c, 0, 64, 61
1, 11336, Note_off_c, 0, 44, 58
1, 11342, Control_c, 0, 64, 53
1, 11357, Control_c, 0, 64, 64
1, 11372, Control_c, 0, 64, 67
1, 11375, Note_on_c, 0, 55, 95
1, 11378, Note_on_c, 0, 43, 85
1, 11379, Note_on_c, 0, 91, 106
1, 11382, Note_on_c, 0, 79, 94
1, 11387, Control_c, 0, 64, 66
1, 11402, Control_c, 0, 64, 62
1, 11404, Note_off_c, 0, 79, 66
1, 11410, Note_off_c, 0, 55, 66
1, 11411, Note_off_c, 0, 43, 65
1, 11417, Control_c, 0, 64, 11
1, 11419, Note_off_c, 0, 91, 68
1, 11432, Control_c, 0, 64, 21
1, 11446, Control_c, 0, 64, 55
1, 11461, Control_c, 0, 64, 63
1, 11476, Control_c, 0, 64, 60
1, 11485, Note_on_c, 0, 54, 94
1, 11487, Note_on_c, 0, 78, 94
1, 11489, Note_on_c, 0, 42, 86
1, 11490, Note_on_c, 0, 90, 106
1, 11491, Control_c, 0, 64, 44
1, 11506, Control_c, 0, 64, 36
1, 11521, Control_c, 0, 64, 58
1, 11525, Note_off_c, 0, 78, 65
1, 11528, Note_off_c, 0, 54, 63
1, 11532, Note_off_c, 0, 90, 66
1, 11535, Control_c, 0, 64, 65
1, 11543, Note_off_c, 0, 42, 60
1, 11565, Control_c, 0, 64, 62
1, 11580, Control_c, 0, 64, 55
1, 11591, Note_on_c, 0, 53, 93
1, 11593, Note_on_c, 0, 89, 104
1, 11595, Note_on_c, 0, 41, 86
1, 11595, Note_on_c, 0, 77, 102
1, 11595, Control_c, 0, 64, 60
1, 11609, Control_c, 0, 64, 65
1, 11624, Control_c, 0, 64, 68
1, 11625, Note_off_c, 0, 77, 67
1, 11631, Note_off_c, 0, 53, 64
1, 11634, Note_off_c, 0, 89, 65
1, 11643, Note_off_c, 0, 41, 62
1, 11654, Control_c, 0, 64, 66
1, 11668, Control_c, 0, 64, 67
1, 11683, Control_c, 0, 64, 70
1, 11698, Control_c, 0, 64, 73
1, 11707, Note_on_c, 0, 88, 112
1, 11708, Note_on_c, 0, 52, 99
1, 11709, Note_on_c, 0, 76, 100
1, 11711, Note_on_c, 0, 40, 92
1, 11713, Control_c, 0, 64, 72
1, 11728, Control_c, 0, 64, 66
1, 11736, Note_off_c, 0, 76, 66
1, 11742, Note_off_c, 0, 52, 63
1, 11742, Control_c, 0, 64, 0
1, 11744, Note_off_c, 0, 40, 65
1, 11752, Note_off_c, 0, 88, 62
1, 11757, Control_c, 0, 64, 49
1, 11772, Control_c, 0, 64, 63
1, 11786, Control_c, 0, 64, 66
1, 11801, Control_c, 0, 64, 69
1, 11816, Control_c, 0, 64, 75
1, 11822, Note_on_c, 0, 51, 99
1, 11822, Note_on_c, 0, 75, 92
1, 11825, Note_on_c, 0, 87, 100
1, 11827, Note_on_c, 0, 39, 87
1, 11831, Control_c, 0, 64, 85
1, 11854, Control_c, 0, 64, 93
1, 11870, Note_off_c, 0, 75, 65
1, 11875, Note_off_c, 0, 51, 67
1, 11883, Control_c, 0, 64, 80
1, 11888, Note_off_c, 0, 87, 65
1, 11898, Control_c, 0, 64, 0
1, 11909, Note_off_c, 0, 39, 49
1, 11950, Note_on_c, 0, 38, 77
1, 11950, Note_on_c, 0, 50, 93
1, 11952, Note_on_c, 0, 86, 104
1, 11955, Note_on_c, 0, 74, 94
1, 11973, Control_c, 0, 64, 62
1, 11985, Note_off_c, 0, 74, 67
1, 11988, Note_off_c, 0, 38, 63
1, 11988, Control_c, 0, 64, 74
1, 11992, Note_off_c, 0, 50, 65
1, 11998, Note_off_c, 0, 86, 62
1, 12003, Control_c, 0, 64, 75
1, 12017, Control_c, 0, 64, 70
1, 12032, Control_c, 0, 64, 0
1, 12072, Note_on_c, 0, 49, 100
1, 12075, Note_on_c, 0, 37, 86
1, 12075, Note_on_c, 0, 73, 101
1, 12076, Note_on_c, 0, 85, 97
1, 12077, Control_c, 0, 64, 62
1, 12091, Control_c, 0, 64, 70
1, 12106, Control_c, 0, 64, 75
1, 12115, Note_off_c, 0, 73, 64
1, 12121, Note_off_c, 0, 49, 64
1, 12121, Control_c, 0, 64, 85
1, 12130, Note_off_c, 0, 85, 63
1, 12135, Note_off_c, 0, 37, 63
1, 12136, Control_c, 0, 64, 96
1, 12151, Control_c, 0, 64, 97
1, 12165, Control_c, 0, 64, 85
1, 12180, Control_c, 0, 64, 63
1, 12195, Control_c, 0, 64, 0
1, 12207, Note_on_c, 0, 48, 93
1, 12209, Note_on_c, 0, 84, 100
1, 12210, Control_c, 0, 64, 29
1, 12210, Note_on_c, 0, 72, 95
1, 12211, Note_on_c, 0, 36, 81
1, 12224, Control_c, 0, 64, 54
1, 12239, Control_c, 0, 64, 63
1, 12242, Note_off_c, 0, 72, 67
1, 12251, Note_off_c, 0, 48, 63
1, 12253, Note_off_c, 0, 84, 62
1, 12254, Control_c, 0, 64, 69
1, 12261, Note_off_c, 0, 36, 59
1, 12269, Control_c, 0, 64, 78
1, 12284, Control_c, 0, 64, 86
1, 12299, Control_c, 0, 64, 85
1, 12314, Control_c, 0, 64, 69
1, 12329, Control_c, 0, 64, 0
1, 12347, Note_on_c, 0, 47, 98
1, 12352, Note_on_c, 0, 83, 98
1, 12354, Note_on_c, 0, 35, 81
1, 12356, Note_on_c, 0, 71, 96
1, 12358, Control_c, 0, 64, 21
1, 12373, Control_c, 0, 64, 62
1, 12385, Note_off_c, 0, 35, 68
1, 12386, Note_off_c, 0, 71, 67
1, 12387, Note_off_c, 0, 47, 68
1, 12388, Control_c, 0, 64, 71
1, 12403, Control_c, 0, 64, 84
1, 12405, Note_off_c, 0, 83, 61
1, 12418, Control_c, 0, 64, 94
1, 12433, Control_c, 0, 64, 90
1, 12448, Control_c, 0, 64, 69
1, 12463, Control_c, 0, 64, 0
1, 12497, Note_on_c, 0, 34, 91
1, 12499, Note_on_c, 0, 46, 96
1, 12502, Note_on_c, 0, 82, 102
1, 12503, Note_on_c, 0, 70, 103
1, 12522, Control_c, 0, 64, 47
1, 12534, Note_off_c, 0, 70, 66
1, 12537, Control_c, 0, 64, 65
1, 12540, Note_off_c, 0, 46, 62
1, 12546, Note_off_c, 0, 34, 58
1, 12552, Control_c, 0, 64, 72
1, 12557, Note_off_c, 0, 82, 65
1, 12566, Control_c, 0, 64, 79
1, 12581, Control_c, 0, 64, 84
1, 12603, Control_c, 0, 64, 79
1, 12618, Control_c, 0, 64, 60
1, 12633, Control_c, 0, 64, 0
1, 12669, Note_on_c, 0, 49, 95
1, 12670, Note_on_c, 0, 37, 95
1, 12671, Note_on_c, 0, 73, 103
1, 12675, Note_on_c, 0, 85, 105
1, 12692, Control_c, 0, 64, 46
1, 12707, Note_off_c, 0, 49, 62
1, 12707, Note_off_c, 0, 73, 66
1, 12707, Control_c, 0, 64, 68
1, 12715, Note_off_c, 0, 85, 63
1, 12718, Note_off_c, 0, 37, 63
1, 12722, Control_c, 0, 64, 77
1, 12737, Control_c, 0, 64, 87
1, 12752, Control_c, 0, 64, 95
1, 12767, Control_c, 0, 64, 96
1, 12782, Control_c, 0, 64, 89
1, 12797, Control_c, 0, 64, 61
1, 12812, Control_c, 0, 64, 0
1, 12836, Note_on_c, 0, 45, 95
1, 12837, Note_on_c, 0, 33, 91
1, 12839, Note_on_c, 0, 69, 98
1, 12839, Note_on_c, 0, 81, 103
1, 12864, Note_off_c, 0, 33, 65
1, 12865, Note_off_c, 0, 69, 67
1, 12866, Note_off_c, 0, 45, 66
1, 12872, Note_off_c, 0, 81, 67
1, 12886, Control_c, 0, 64, 58
1, 12901, Control_c, 0, 64, 69
1, 12915, Control_c, 0, 64, 76
1, 12930, Control_c, 0, 64, 83
1, 12945, Control_c, 0, 64, 88
1, 12975, Control_c, 0, 64, 76
1, 12989, Control_c, 0, 64, 0
1, 13018, Note_on_c, 0, 49, 99
1, 13018, Note_on_c, 0, 73, 109
1, 13018, Note_on_c, 0, 85, 104
1, 13020, Note_on_c, 0, 37, 95
1, 13037, Note_off_c, 0, 49, 73
1, 13044, Note_on_c, 0, 36, 61
1, 13045, Note_off_c, 0, 36, 127
1, 13045, Note_off_c, 0, 73, 64
1, 13046, Note_off_c, 0, 37, 69
1, 13048, Control_c, 0, 64, 64
1, 13051, Note_off_c, 0, 85, 65
1, 13063, Control_c, 0, 64, 74
1, 13078, Control_c, 0, 64, 87
1, 13093, Control_c, 0, 64, 101
1, 13107, Control_c, 0, 64, 108
1, 13122, Control_c, 0, 64, 109
1, 13149, Poly_aftertouch_c, 0, 49, 0
1, 13152, Control_c, 0, 64, 97
1, 13167, Control_c, 0, 64, 65
1, 13176, Poly_aftertouch_c, 0, 49, 0
1, 13181, Control_c, 0, 64, 0
1, 13211, Note_on_c, 0, 68, 95
1, 13211, Note_on_c, 0, 80, 102
1, 13212, Note_on_c, 0, 44, 95
1, 13214, Note_on_c, 0, 32, 98
1, 13226, Control_c, 0, 64, 59
1, 13235, Note_off_c, 0, 68, 66
1, 13238, Note_off_c, 0, 32, 70
1, 13240, Note_off_c, 0, 44, 65
1, 13240, Control_c, 0, 64, 74
1, 13255, Control_c, 0, 64, 89
1, 13256, Note_on_c, 0, 70, 26
1, 13257, Note_off_c, 0, 70, 127
1, 13259, Note_off_c, 0, 80, 59
1, 13261, Note_on_c, 0, 81, 23
1, 13270, Control_c, 0, 64, 109
1, 13285, Control_c, 0, 64, 127
1, 13295, Poly_aftertouch_c, 0, 70, 0
1, 13299, Note_off_c, 0, 81, 51
1, 13426, Control_c, 0, 64, 103
1, 13440, Control_c, 0, 64, 64
1, 13455, Control_c, 0, 64, 0
1, 13459, Note_on_c, 0, 37, 86
1, 13459, Note_on_c, 0, 49, 104
1, 13461, Note_on_c, 0, 73, 99
1, 13461, Note_on_c, 0, 85, 105
1, 13485, Control_c, 0, 64, 60
1, 13491, Note_off_c, 0, 49, 63
1, 13491, Note_off_c, 0, 73, 66
1, 13500, Control_c, 0, 64, 81
1, 13500, Note_off_c, 0, 85, 65
1, 13506, Note_off_c, 0, 37, 64
1, 13515, Control_c, 0, 64, 110
1, 13530, Control_c, 0, 64, 127
1, 13782, Control_c, 0, 64, 84
1, 13797, Control_c, 0, 64, 0
1, 13820, Note_on_c, 0, 42, 98
1, 13822, Note_on_c, 0, 30, 86
1, 13825, Note_on_c, 0, 37, 90
1, 13825, Note_on_c, 0, 78, 110
1, 13826, Note_on_c, 0, 33, 75
1, 13828, Note_on_c, 0, 81, 80
1, 13828, Note_on_c, 0, 90, 102
1, 13828, Note_on_c, 0, 85, 96
1, 13841, Control_c, 0, 64, 68
1, 13855, Control_c, 0, 64, 127
1, 13875, Note_off_c, 0, 78, 66
1, 13882, Note_off_c, 0, 81, 65
1, 13888, Note_off_c, 0, 30, 63
1, 13888, Note_off_c, 0, 42, 65
1, 13895, Note_off_c, 0, 90, 68
1, 13899, Note_off_c, 0, 85, 65
1, 13903, Note_off_c, 0, 33, 60
1, 13905, Note_off_c, 0, 37, 64
1, 14324, Note_on_c, 0, 57, 78
1, 14324, Note_on_c, 0, 81, 90
1, 14326, Note_on_c, 0, 69, 84
1, 14333, Note_on_c, 0, 45, 62
1, 14346, Note_off_c, 0, 69, 71
1, 14347, Note_off_c, 0, 57, 69
1, 14353, Note_off_c, 0, 81, 56
1, 14361, Note_off_c, 0, 45, 57
1, 14433, Note_on_c, 0, 47, 89
1, 14433, Note_on_c, 0, 59, 86
1, 14436, Note_on_c, 0, 71, 96
1, 14437, Note_on_c, 0, 83, 100
1, 14454, Note_off_c, 0, 59, 69
1, 14456, Note_off_c, 0, 71, 69
1, 14457, Note_off_c, 0, 47, 70
1, 14467, Note_off_c, 0, 83, 69
1, 14531, Note_on_c, 0, 61, 90
1, 14532, Note_on_c, 0, 49, 88
1, 14536, Poly_aftertouch_c, 0, 81, 0
1, 14543, Note_on_c, 0, 73, 98
1, 14545, Note_on_c, 0, 85, 101
1, 14550, Note_off_c, 0, 61, 71
1, 14556, Note_off_c, 0, 49, 69
1, 14564, Note_on_c, 0, 48, 48
1, 14571, Note_off_c, 0, 85, 56
1, 14573, Note_off_c, 0, 73, 64
1, 14594, Note_off_c, 0, 48, 55
1, 14642, Note_on_c, 0, 54, 94
1, 14642, Note_on_c, 0, 42, 93
1, 14650, Control_c, 0, 64, 95
1, 14651, Note_on_c, 0, 66, 104
1, 14651, Note_on_c, 0, 78, 105
1, 14662, Note_off_c, 0, 54, 71
1, 14665, Control_c, 0, 64, 64
1, 14669, Note_on_c, 0, 44, 51
1, 14670, Note_off_c, 0, 42, 66
1, 14678, Note_off_c, 0, 66, 61
1, 14679, Control_c, 0, 64, 0
1, 14684, Note_off_c, 0, 78, 66
1, 14699, Note_off_c, 0, 44, 55
1, 14758, Note_on_c, 0, 56, 99
1, 14760, Note_on_c, 0, 44, 91
1, 14766, Note_on_c, 0, 68, 94
1, 14766, Note_on_c, 0, 80, 100
1, 14792, Note_on_c, 0, 46, 48
1, 14793, Note_off_c, 0, 46, 127
1, 14797, Note_off_c, 0, 56, 67
1, 14800, Note_off_c, 0, 68, 64
1, 14804, Note_off_c, 0, 44, 56
1, 14804, Note_off_c, 0, 80, 63
1, 14934, Note_on_c, 0, 69, 99
1, 14934, Note_on_c, 0, 57, 99
1, 14934, Note_on_c, 0, 81, 106
1, 14936, Note_on_c, 0, 45, 96
1, 14979, Note_on_c, 0, 52, 37
1, 14980, Note_off_c, 0, 52, 127
1, 15547, Control_c, 0, 64, 34
1, 15562, Control_c, 0, 64, 54
1, 15584, Control_c, 0, 64, 63
1, 15599, Control_c, 0, 64, 66
1, 15614, Control_c, 0, 64, 68
1, 15628, Control_c, 0, 64, 69
1, 15643, Control_c, 0, 64, 71
1, 15658, Control_c, 0, 64, 73
1, 15673, Control_c, 0, 64, 77
1, 15688, Control_c, 0, 64, 80
1, 15702, Control_c, 0, 64, 82
1, 15717, Control_c, 0, 64, 84
1, 15732, Control_c, 0, 64, 86
1, 15747, Control_c, 0, 64, 88
1, 15759, Note_off_c, 0, 45, 46
1, 15761, Control_c, 0, 64, 90
1, 15776, Control_c, 0, 64, 92
1, 15791, Control_c, 0, 64, 95
1, 15798, Note_off_c, 0, 81, 50
1, 15806, Control_c, 0, 64, 97
1, 15821, Control_c, 0, 64, 99
1, 15835, Control_c, 0, 64, 101
1, 15850, Control_c, 0, 64, 102
1, 15865, Control_c, 0, 64, 102
1, 15880, Control_c, 0, 64, 103
1, 15895, Control_c, 0, 64, 104
1, 15911, Control_c, 0, 64, 106
1, 15918, Note_off_c, 0, 57, 57
1, 15921, Note_off_c, 0, 69, 51
1, 15925, Control_c, 0, 64, 106
1, 15940, Control_c, 0, 64, 107
1, 15985, Control_c, 0, 64, 107
1, 16014, Control_c, 0, 64, 109
1, 16029, Control_c, 0, 64, 112
1, 16044, Control_c, 0, 64, 117
1, 16058, Control_c, 0, 64, 127
1, 16118, Control_c, 0, 64, 102
1, 16132, Control_c, 0, 64, 79
1, 16135, Note_on_c, 0, 54, 92
1, 16137, Note_on_c, 0, 74, 93
1, 16144, Note_on_c, 0, 66, 98
1, 16144, Note_on_c, 0, 62, 92
1, 16147, Control_c, 0, 64, 64
1, 16162, Control_c, 0, 64, 65
1, 16177, Control_c, 0, 64, 71
1, 16192, Control_c, 0, 64, 76
1, 16207, Control_c, 0, 64, 84
1, 16222, Control_c, 0, 64, 94
1, 16231, Note_off_c, 0, 66, 60
1, 16237, Control_c, 0, 64, 109
1, 16251, Control_c, 0, 64, 127
1, 16252, Note_off_c, 0, 54, 59
1, 16264, Note_off_c, 0, 74, 57
1, 16280, Note_off_c, 0, 62, 54
1, 16311, Note_on_c, 0, 64, 96
1, 16311, Control_c, 0, 64, 103
1, 16314, Note_on_c, 0, 76, 97
1, 16319, Note_on_c, 0, 57, 80
1, 16319, Note_on_c, 0, 69, 87
1, 16332, Control_c, 0, 64, 78
1, 16341, Note_on_c, 0, 62, 30
1, 16347, Control_c, 0, 64, 62
1, 16362, Note_off_c, 0, 62, 60
1, 16362, Control_c, 0, 64, 65
1, 16365, Note_off_c, 0, 64, 65
1, 16371, Note_off_c, 0, 69, 63
1, 16377, Control_c, 0, 64, 73
1, 16386, Note_off_c, 0, 76, 61
1, 16392, Control_c, 0, 64, 79
1, 16407, Control_c, 0, 64, 86
1, 16422, Control_c, 0, 64, 95
1, 16436, Control_c, 0, 64, 106
1, 16449, Note_on_c, 0, 62, 72
1, 16451, Control_c, 0, 64, 123
1, 16453, Note_on_c, 0, 66, 95
1, 16453, Note_on_c, 0, 78, 102
1, 16453, Note_off_c, 0, 57, 59
1, 16466, Control_c, 0, 64, 127
1, 16466, Note_on_c, 0, 74, 66
1, 16491, Note_off_c, 0, 66, 65
1, 16493, Note_off_c, 0, 78, 69
1, 16494, Note_off_c, 0, 74, 69
1, 16498, Note_off_c, 0, 62, 63
1, 16588, Note_on_c, 0, 50, 78
1, 16588, Note_on_c, 0, 66, 95
1, 16590, Note_on_c, 0, 54, 82
1, 16593, Note_on_c, 0, 62, 86
1, 16599, Control_c, 0, 64, 101
1, 16614, Control_c, 0, 64, 72
1, 16616, Note_off_c, 0, 62, 67
1, 16626, Note_off_c, 0, 50, 63
1, 16628, Note_off_c, 0, 54, 65
1, 16629, Control_c, 0, 64, 0
1, 16639, Note_off_c, 0, 66, 63
1, 16706, Note_on_c, 0, 64, 90
1, 16707, Note_on_c, 0, 52, 73
1, 16708, Note_on_c, 0, 68, 92
1, 16711, Note_on_c, 0, 56, 81
1, 16747, Note_off_c, 0, 64, 66
1, 16758, Note_off_c, 0, 52, 59
1, 16759, Note_off_c, 0, 56, 64
1, 16773, Note_off_c, 0, 68, 64
1, 16842, Note_on_c, 0, 54, 90
1, 16842, Note_on_c, 0, 69, 103
1, 16845, Note_on_c, 0, 57, 91
1, 16845, Note_on_c, 0, 66, 94
1, 17229, Control_c, 0, 64, 14
1, 17244, Control_c, 0, 64, 51
1, 17259, Control_c, 0, 64, 63
1, 17274, Control_c, 0, 64, 66
1, 17289, Control_c, 0, 64, 68
1, 17304, Control_c, 0, 64, 71
1, 17319, Control_c, 0, 64, 74
1, 17334, Control_c, 0, 64, 77
1, 17349, Control_c, 0, 64, 82
1, 17363, Control_c, 0, 64, 85
1, 17378, Control_c, 0, 64, 89
1, 17393, Control_c, 0, 64, 92
1, 17407, Control_c, 0, 64, 96
1, 17422, Control_c, 0, 64, 100
1, 17437, Note_off_c, 0, 66, 58
1, 17437, Control_c, 0, 64, 104
1, 17443, Note_off_c, 0, 69, 61
1, 17452, Note_off_c, 0, 54, 61
1, 17452, Control_c, 0, 64, 109
1, 17456, Note_off_c, 0, 57, 57
1, 17467, Control_c, 0, 64, 117
1, 17481, Control_c, 0, 64, 127
1, 17697, Note_on_c, 0, 66, 91
1, 17703, Note_on_c, 0, 54, 74
1, 17703, Note_on_c, 0, 62, 79
1, 17703, Control_c, 0, 64, 88
1, 17704, Note_on_c, 0, 50, 70
1, 17718, Control_c, 0, 64, 53
1, 17729, Note_off_c, 0, 62, 67
1, 17730, Note_off_c, 0, 54, 68
1, 17733, Control_c, 0, 64, 0
1, 17737, Note_off_c, 0, 50, 69
1, 17743, Note_off_c, 0, 66, 64
1, 17833, Note_on_c, 0, 68, 100
1, 17838, Note_on_c, 0, 64, 78
1, 17841, Note_on_c, 0, 52, 71
1, 17842, Note_on_c, 0, 56, 84
1, 17861, Note_off_c, 0, 64, 70
1, 17880, Note_off_c, 0, 52, 63
1, 17882, Note_off_c, 0, 56, 62
1, 17888, Note_off_c, 0, 68, 64
1, 17981, Note_on_c, 0, 69, 92
1, 17985, Note_on_c, 0, 57, 94
1, 17985, Note_on_c, 0, 66, 91
1, 17986, Note_on_c, 0, 54, 84
1, 18423, Control_c, 0, 64, 28
1, 18438, Control_c, 0, 64, 51
1, 18452, Control_c, 0, 64, 59
1, 18467, Control_c, 0, 64, 63
1, 18482, Control_c, 0, 64, 65
1, 18497, Control_c, 0, 64, 68
1, 18512, Control_c, 0, 64, 69
1, 18526, Control_c, 0, 64, 71
1, 18541, Control_c, 0, 64, 73
1, 18556, Control_c, 0, 64, 76
1, 18578, Control_c, 0, 64, 79
1, 18593, Control_c, 0, 64, 81
1, 18608, Control_c, 0, 64, 83
1, 18623, Control_c, 0, 64, 85
1, 18638, Control_c, 0, 64, 88
1, 18652, Control_c, 0, 64, 90
1, 18667, Control_c, 0, 64, 93
1, 18682, Control_c, 0, 64, 94
1, 18697, Control_c, 0, 64, 95
1, 18705, Note_off_c, 0, 54, 54
1, 18712, Control_c, 0, 64, 96
1, 18714, Note_off_c, 0, 66, 54
1, 18719, Note_off_c, 0, 69, 60
1, 18738, Note_off_c, 0, 57, 56
1, 18756, Control_c, 0, 64, 96
1, 18949, Control_c, 0, 64, 96
1, 18951, Note_on_c, 0, 66, 75
1, 18954, Note_on_c, 0, 62, 70
1, 18956, Note_on_c, 0, 50, 69
1, 18961, Note_on_c, 0, 54, 66
1, 18964, Control_c, 0, 64, 94
1, 18978, Control_c, 0, 64, 92
1, 18983, Note_off_c, 0, 62, 66
1, 18991, Note_off_c, 0, 54, 66
1, 18993, Control_c, 0, 64, 88
1, 19004, Note_off_c, 0, 66, 62
1, 19007, Note_off_c, 0, 50, 62
1, 19008, Control_c, 0, 64, 83
1, 19023, Control_c, 0, 64, 76
1, 19038, Control_c, 0, 64, 71
1, 19052, Control_c, 0, 64, 66
1, 19067, Control_c, 0, 64, 62
1, 19082, Control_c, 0, 64, 57
1, 19114, Note_on_c, 0, 68, 76
1, 19121, Note_on_c, 0, 64, 70
1, 19123, Note_on_c, 0, 52, 67
1, 19125, Note_on_c, 0, 56, 73
1, 19128, Control_c, 0, 64, 56
1, 19143, Control_c, 0, 64, 49
1, 19149, Note_off_c, 0, 64, 66
1, 19157, Control_c, 0, 64, 11
1, 19161, Note_off_c, 0, 56, 59
1, 19171, Note_off_c, 0, 52, 59
1, 19171, Note_off_c, 0, 68, 61
1, 19172, Control_c, 0, 64, 0
1, 19290, Note_on_c, 0, 69, 75
1, 19295, Note_on_c, 0, 57, 71
1, 19301, Note_on_c, 0, 66, 58
1, 19303, Note_on_c, 0, 54, 62
1, 19342, Note_off_c, 0, 57, 59
1, 19342, Note_off_c, 0, 66, 62
1, 19344, Note_off_c, 0, 54, 63
1, 19367, Note_off_c, 0, 69, 58
1, 19494, Note_on_c, 0, 66, 72
1, 19497, Note_on_c, 0, 50, 64
1, 19498, Note_on_c, 0, 54, 66
1, 19501, Note_on_c, 0, 62, 60
1, 19537, Note_off_c, 0, 54, 64
1, 19537, Note_off_c, 0, 62, 61
1, 19554, Note_off_c, 0, 50, 60
1, 19557, Note_off_c, 0, 66, 60
1, 19651, Note_on_c, 0, 56, 83
1, 19651, Note_on_c, 0, 68, 75
1, 19654, Note_on_c, 0, 64, 71
1, 19657, Note_on_c, 0, 52, 69
1, 19686, Note_off_c, 0, 64, 63
1, 19696, Note_off_c, 0, 52, 63
1, 19701, Note_off_c, 0, 56, 65
1, 19716, Note_off_c, 0, 68, 60
1, 19756, Control_c, 0, 64, 36
1, 19771, Control_c, 0, 64, 44
1, 19786, Control_c, 0, 64, 44
1, 19799, Note_on_c, 0, 57, 89
1, 19800, Note_on_c, 0, 69, 83
1, 19800, Control_c, 0, 64, 43
1, 19805, Note_on_c, 0, 54, 80
1, 19811, Note_on_c, 0, 66, 72
1, 19815, Control_c, 0, 64, 35
1, 19830, Control_c, 0, 64, 30
1, 19845, Control_c, 0, 64, 28
1, 19846, Note_off_c, 0, 57, 65
1, 19850, Note_off_c, 0, 66, 58
1, 19857, Note_off_c, 0, 54, 64
1, 19867, Note_off_c, 0, 69, 62
1, 19889, Control_c, 0, 64, 32
1, 19905, Control_c, 0, 64, 42
1, 19920, Control_c, 0, 64, 45
1, 19935, Control_c, 0, 64, 42
1, 19950, Control_c, 0, 64, 23
1, 19955, Note_on_c, 0, 54, 85
1, 19955, Note_on_c, 0, 66, 80
1, 19957, Note_on_c, 0, 62, 78
1, 19959, Note_on_c, 0, 50, 80
1, 19965, Control_c, 0, 64, 0
1, 20009, Note_off_c, 0, 54, 66
1, 20012, Note_off_c, 0, 62, 61
1, 20017, Note_off_c, 0, 50, 65
1, 20028, Note_off_c, 0, 66, 62
1, 20038, Control_c, 0, 64, 11
1, 20053, Control_c, 0, 64, 39
1, 20076, Control_c, 0, 64, 48
1, 20091, Control_c, 0, 64, 49
1, 20105, Control_c, 0, 64, 40
1, 20109, Note_on_c, 0, 68, 88
1, 20111, Note_on_c, 0, 56, 92
1, 20113, Note_on_c, 0, 64, 86
1, 20115, Note_on_c, 0, 52, 82
1, 20120, Control_c, 0, 64, 14
1, 20135, Control_c, 0, 64, 0
1, 20161, Note_off_c, 0, 64, 64
1, 20169, Note_off_c, 0, 56, 64
1, 20172, Note_off_c, 0, 52, 61
1, 20179, Control_c, 0, 64, 30
1, 20190, Note_off_c, 0, 68, 62
1, 20194, Control_c, 0, 64, 50
1, 20209, Control_c, 0, 64, 61
1, 20223, Control_c, 0, 64, 63
1, 20238, Control_c, 0, 64, 61
1, 20253, Control_c, 0, 64, 51
1, 20256, Note_on_c, 0, 69, 92
1, 20257, Note_on_c, 0, 57, 92
1, 20259, Note_on_c, 0, 54, 82
1, 20262, Note_on_c, 0, 66, 83
1, 20268, Control_c, 0, 64, 0
1, 20312, Control_c, 0, 64, 28
1, 20324, Note_off_c, 0, 54, 62
1, 20325, Note_off_c, 0, 57, 60
1, 20327, Control_c, 0, 64, 47
1, 20335, Note_off_c, 0, 66, 59
1, 20341, Note_off_c, 0, 69, 62
1, 20341, Control_c, 0, 64, 57
1, 20356, Control_c, 0, 64, 63
1, 20371, Control_c, 0, 64, 64
1, 20386, Control_c, 0, 64, 61
1, 20401, Control_c, 0, 64, 46
1, 20416, Control_c, 0, 64, 0
1, 20423, Note_on_c, 0, 54, 89
1, 20425, Note_on_c, 0, 62, 86
1, 20426, Note_on_c, 0, 66, 97
1, 20428, Note_on_c, 0, 50, 81
1, 20461, Control_c, 0, 64, 17
1, 20476, Control_c, 0, 64, 40
1, 20488, Note_off_c, 0, 62, 60
1, 20490, Control_c, 0, 64, 51
1, 20494, Note_off_c, 0, 54, 63
1, 20496, Note_off_c, 0, 50, 64
1, 20505, Control_c, 0, 64, 57
1, 20517, Note_off_c, 0, 66, 61
1, 20520, Control_c, 0, 64, 61
1, 20535, Control_c, 0, 64, 63
1, 20549, Control_c, 0, 64, 64
1, 20564, Control_c, 0, 64, 63
1, 20579, Control_c, 0, 64, 54
1, 20594, Control_c, 0, 64, 0
1, 20596, Note_on_c, 0, 57, 89
1, 20598, Note_on_c, 0, 54, 81
1, 20601, Note_on_c, 0, 69, 88
1, 20603, Note_on_c, 0, 66, 86
1, 20655, Note_off_c, 0, 57, 62
1, 20668, Control_c, 0, 64, 27
1, 20672, Note_off_c, 0, 54, 60
1, 20673, Note_off_c, 0, 66, 59
1, 20683, Control_c, 0, 64, 46
1, 20695, Note_off_c, 0, 69, 63
1, 20699, Control_c, 0, 64, 54
1, 20714, Control_c, 0, 64, 60
1, 20729, Control_c, 0, 64, 63
1, 20744, Control_c, 0, 64, 64
1, 20759, Control_c, 0, 64, 64
1, 20773, Control_c, 0, 64, 56
1, 20788, Control_c, 0, 64, 0
1, 20806, Note_on_c, 0, 74, 94
1, 20810, Note_on_c, 0, 62, 81
1, 20810, Note_on_c, 0, 71, 89
1, 20813, Note_on_c, 0, 59, 74
1, 20899, Control_c, 0, 64, 37
1, 20908, Note_off_c, 0, 71, 63
1, 20912, Note_off_c, 0, 59, 56
1, 20914, Control_c, 0, 64, 55
1, 20917, Note_off_c, 0, 62, 61
1, 20918, Note_off_c, 0, 74, 63
1, 20929, Control_c, 0, 64, 60
1, 20944, Control_c, 0, 64, 61
1, 20988, Control_c, 0, 64, 61
1, 21003, Control_c, 0, 64, 62
1, 21018, Control_c, 0, 64, 60
1, 21033, Control_c, 0, 64, 50
1, 21047, Control_c, 0, 64, 0
1, 21096, Note_on_c, 0, 71, 88
1, 21098, Note_on_c, 0, 59, 77
1, 21101, Note_on_c, 0, 68, 83
1, 21118, Note_on_c, 0, 56, 70
1, 21136, Control_c, 0, 64, 40
1, 21151, Control_c, 0, 64, 57
1, 21166, Control_c, 0, 64, 61
1, 21179, Note_off_c, 0, 59, 57
1, 21180, Control_c, 0, 64, 63
1, 21195, Note_off_c, 0, 68, 59
1, 21195, Control_c, 0, 64, 63
1, 21199, Note_off_c, 0, 56, 62
1, 21205, Note_off_c, 0, 71, 60
1, 21210, Control_c, 0, 64, 64
1, 21225, Control_c, 0, 64, 65
1, 21254, Control_c, 0, 64, 65
1, 21284, Control_c, 0, 64, 65
1, 21299, Control_c, 0, 64, 62
1, 21313, Control_c, 0, 64, 49
1, 21328, Control_c, 0, 64, 0
1, 21360, Note_on_c, 0, 68, 88
1, 21362, Note_on_c, 0, 56, 81
1, 21365, Note_on_c, 0, 64, 77
1, 21367, Note_on_c, 0, 52, 68
1, 21388, Control_c, 0, 64, 36
1, 21403, Control_c, 0, 64, 51
1, 21418, Control_c, 0, 64, 59
1, 21418, Note_off_c, 0, 56, 66
1, 21428, Note_off_c, 0, 52, 62
1, 21432, Control_c, 0, 64, 63
1, 21447, Control_c, 0, 64, 65
1, 21449, Note_off_c, 0, 64, 63
1, 21456, Note_off_c, 0, 68, 61
1, 21462, Control_c, 0, 64, 66
1, 21477, Control_c, 0, 64, 67
1, 21492, Control_c, 0, 64, 68
1, 21507, Control_c, 0, 64, 69
1, 21522, Control_c, 0, 64, 71
1, 21574, Control_c, 0, 64, 69
1, 21589, Control_c, 0, 64, 63
1, 21603, Control_c, 0, 64, 0
1, 21623, Note_on_c, 0, 54, 89
1, 21623, Note_on_c, 0, 66, 94
1, 21629, Note_on_c, 0, 50, 77
1, 21630, Note_on_c, 0, 62, 71
1, 21677, Control_c, 0, 64, 53
1, 21690, Note_off_c, 0, 62, 58
1, 21692, Control_c, 0, 64, 62
1, 21707, Control_c, 0, 64, 64
1, 21718, Note_off_c, 0, 54, 58
1, 21722, Control_c, 0, 64, 65
1, 21734, Note_off_c, 0, 50, 57
1, 21737, Control_c, 0, 64, 66
1, 21753, Note_off_c, 0, 66, 56
1, 21781, Control_c, 0, 64, 66
1, 21796, Control_c, 0, 64, 65
1, 21811, Control_c, 0, 64, 49
1, 21826, Control_c, 0, 64, 0
1, 21880, Note_on_c, 0, 63, 74
1, 21883, Note_on_c, 0, 50, 81
1, 21889, Note_on_c, 0, 47, 77
1, 21889, Note_on_c, 0, 62, 91
1, 21892, Note_on_c, 0, 59, 78
1, 21906, Note_off_c, 0, 63, 52
1, 21915, Control_c, 0, 64, 40
1, 21930, Control_c, 0, 64, 64
1, 21934, Note_off_c, 0, 59, 56
1, 21944, Note_off_c, 0, 62, 60
1, 21944, Control_c, 0, 64, 66
1, 21953, Note_off_c, 0, 50, 61
1, 21979, Note_off_c, 0, 47, 57
1, 22003, Control_c, 0, 64, 67
1, 22018, Control_c, 0, 64, 68
1, 22033, Control_c, 0, 64, 67
1, 22048, Control_c, 0, 64, 66
1, 22063, Control_c, 0, 64, 65
1, 22077, Control_c, 0, 64, 63
1, 22092, Control_c, 0, 64, 38
1, 22107, Control_c, 0, 64, 0
1, 22169, Note_on_c, 0, 47, 81
1, 22174, Note_on_c, 0, 44, 79
1, 22174, Note_on_c, 0, 59, 95
1, 22177, Note_on_c, 0, 56, 90
1, 22181, Control_c, 0, 64, 52
1, 22196, Control_c, 0, 64, 72
1, 22205, Note_off_c, 0, 47, 64
1, 22210, Control_c, 0, 64, 80
1, 22213, Note_off_c, 0, 56, 62
1, 22222, Note_off_c, 0, 59, 65
1, 22223, Note_off_c, 0, 44, 63
1, 22225, Control_c, 0, 64, 85
1, 22240, Control_c, 0, 64, 85
1, 22270, Control_c, 0, 64, 85
1, 22285, Control_c, 0, 64, 83
1, 22300, Control_c, 0, 64, 83
1, 22323, Control_c, 0, 64, 81
1, 22338, Control_c, 0, 64, 77
1, 22353, Control_c, 0, 64, 69
1, 22367, Control_c, 0, 64, 41
1, 22382, Control_c, 0, 64, 0
1, 22479, Note_on_c, 0, 44, 94
1, 22479, Note_on_c, 0, 56, 102
1, 22480, Note_on_c, 0, 52, 91
1, 22485, Note_on_c, 0, 40, 82
1, 22486, Control_c, 0, 64, 49
1, 22500, Control_c, 0, 64, 76
1, 22503, Note_off_c, 0, 52, 71
1, 22515, Note_off_c, 0, 40, 68
1, 22515, Control_c, 0, 64, 92
1, 22517, Note_off_c, 0, 44, 65
1, 22523, Note_off_c, 0, 56, 69
1, 22530, Control_c, 0, 64, 127
1, 22601, Poly_aftertouch_c, 0, 42, 0
1, 22856, Control_c, 0, 64, 113
1, 22871, Control_c, 0, 64, 102
1, 22886, Control_c, 0, 64, 95
1, 22900, Control_c, 0, 64, 91
1, 22915, Control_c, 0, 64, 85
1, 22930, Control_c, 0, 64, 71
1, 22944, Control_c, 0, 64, 0
1, 23304, Note_on_c, 0, 54, 96
1, 23307, Note_on_c, 0, 50, 88
1, 23310, Note_on_c, 0, 42, 91
1, 23315, Note_on_c, 0, 38, 82
1, 23323, Control_c, 0, 64, 68
1, 23330, Note_off_c, 0, 50, 73
1, 23338, Control_c, 0, 64, 87
1, 23343, Note_off_c, 0, 38, 68
1, 23343, Note_off_c, 0, 42, 65
1, 23347, Note_off_c, 0, 54, 69
1, 23353, Control_c, 0, 64, 111
1, 23367, Control_c, 0, 64, 127
1, 23620, Control_c, 0, 64, 113
1, 23635, Control_c, 0, 64, 101
1, 23649, Control_c, 0, 64, 93
1, 23664, Control_c, 0, 64, 86
1, 23679, Control_c, 0, 64, 78
1, 23694, Control_c, 0, 64, 68
1, 23709, Control_c, 0, 64, 0
1, 24553, Note_on_c, 0, 53, 92
1, 24556, Note_on_c, 0, 41, 89
1, 24565, Note_on_c, 0, 37, 76
1, 24567, Note_on_c, 0, 49, 82
1, 25132, Control_c, 0, 64, 14
1, 25147, Control_c, 0, 64, 41
1, 25162, Control_c, 0, 64, 52
1, 25176, Control_c, 0, 64, 59
1, 25191, Control_c, 0, 64, 62
1, 25206, Control_c, 0, 64, 64
1, 25221, Control_c, 0, 64, 65
1, 25236, Control_c, 0, 64, 67
1, 25251, Control_c, 0, 64, 68
1, 25266, Control_c, 0, 64, 69
1, 25280, Control_c, 0, 64, 70
1, 25295, Control_c, 0, 64, 71
1, 25295, Control_c, 0, 67, 8
1, 25317, Control_c, 0, 64, 72
1, 25317, Control_c, 0, 67, 8
1, 25332, Control_c, 0, 64, 74
1, 25346, Control_c, 0, 64, 76
1, 25361, Control_c, 0, 64, 77
1, 25361, Control_c, 0, 67, 9
1, 25376, Control_c, 0, 64, 78
1, 25376, Control_c, 0, 67, 10
1, 25391, Control_c, 0, 64, 79
1, 25391, Control_c, 0, 67, 12
1, 25406, Control_c, 0, 64, 80
1, 25406, Control_c, 0, 67, 13
1, 25421, Control_c, 0, 64, 82
1, 25421, Control_c, 0, 67, 13
1, 25436, Control_c, 0, 64, 84
1, 25436, Control_c, 0, 67, 14
1, 25451, Control_c, 0, 64, 85
1, 25451, Control_c, 0, 67, 15
1, 25466, Control_c, 0, 64, 86
1, 25466, Control_c, 0, 67, 15
1, 25481, Control_c, 0, 64, 87
1, 25496, Control_c, 0, 64, 88
1, 25496, Control_c, 0, 67, 16
1, 25511, Control_c, 0, 64, 88
1, 25525, Control_c, 0, 64, 89
1, 25525, Control_c, 0, 67, 16
1, 25540, Control_c, 0, 64, 90
1, 25540, Control_c, 0, 67, 17
1, 25555, Control_c, 0, 64, 91
1, 25555, Control_c, 0, 67, 17
1, 25570, Control_c, 0, 67, 19
1, 25585, Control_c, 0, 67, 19
1, 25600, Control_c, 0, 67, 20
1, 25615, Control_c, 0, 64, 92
1, 25615, Control_c, 0, 67, 21
1, 25630, Control_c, 0, 67, 23
1, 25644, Control_c, 0, 67, 26
1, 25659, Control_c, 0, 67, 28
1, 25674, Control_c, 0, 67, 30
1, 25689, Control_c, 0, 67, 31
1, 25704, Control_c, 0, 67, 32
1, 25718, Control_c, 0, 67, 33
1, 25733, Control_c, 0, 67, 34
1, 25748, Control_c, 0, 67, 35
1, 25762, Control_c, 0, 67, 36
1, 25777, Control_c, 0, 67, 37
1, 25792, Control_c, 0, 67, 38
1, 25807, Control_c, 0, 67, 40
1, 25822, Control_c, 0, 67, 41
1, 25836, Control_c, 0, 67, 42
1, 25851, Control_c, 0, 67, 42
1, 25866, Control_c, 0, 67, 43
1, 25881, Control_c, 0, 67, 45
1, 25896, Control_c, 0, 67, 46
1, 25910, Control_c, 0, 67, 48
1, 25925, Control_c, 0, 67, 48
1, 25940, Control_c, 0, 67, 49
1, 25954, Control_c, 0, 67, 51
1, 25969, Control_c, 0, 67, 52
1, 25984, Control_c, 0, 67, 54
1, 25999, Control_c, 0, 67, 54
1, 26014, Control_c, 0, 67, 55
1, 26029, Control_c, 0, 67, 56
1, 26044, Control_c, 0, 67, 58
1, 26066, Control_c, 0, 67, 59
1, 26081, Control_c, 0, 67, 60
1, 26096, Control_c, 0, 67, 61
1, 26110, Control_c, 0, 67, 63
1, 26125, Control_c, 0, 67, 65
1, 26140, Control_c, 0, 67, 66
1, 26155, Control_c, 0, 67, 68
1, 26169, Control_c, 0, 67, 69
1, 26184, Control_c, 0, 67, 71
1, 26199, Control_c, 0, 67, 73
1, 26214, Control_c, 0, 67, 75
1, 26229, Control_c, 0, 67, 77
1, 26244, Control_c, 0, 67, 79
1, 26259, Control_c, 0, 67, 81
1, 26273, Control_c, 0, 67, 83
1, 26289, Control_c, 0, 67, 85
1, 26304, Control_c, 0, 67, 87
1, 26319, Control_c, 0, 67, 89
1, 26334, Control_c, 0, 67, 92
1, 26348, Control_c, 0, 67, 96
1, 26363, Control_c, 0, 67, 98
1, 26378, Control_c, 0, 67, 101
1, 26393, Control_c, 0, 67, 103
1, 26408, Control_c, 0, 67, 106
1, 26422, Control_c, 0, 67, 109
1, 26437, Control_c, 0, 67, 112
1, 26452, Control_c, 0, 67, 115
1, 26467, Control_c, 0, 67, 118
1, 26482, Control_c, 0, 67, 121
1, 26497, Control_c, 0, 67, 123
1, 26512, Control_c, 0, 67, 126
1, 26527, Control_c, 0, 67, 127
1, 26705, Control_c, 0, 64, 91
1, 27067, Control_c, 0, 64, 91
1, 27172, Control_c, 0, 64, 90
1, 27379, Control_c, 0, 64, 90
1, 27480, Note_off_c, 0, 37, 20
1, 27497, Control_c, 0, 64, 89
1, 27519, Note_off_c, 0, 49, 37
1, 27576, Note_off_c, 0, 53, 46
1, 27677, Note_off_c, 0, 41, 8
1, 27697, Control_c, 0, 64, 89
1, 27741, Control_c, 0, 64, 88
1, 27801, Control_c, 0, 64, 88
1, 27860, Control_c, 0, 64, 87
1, 27935, Control_c, 0, 64, 87
1, 27994, Control_c, 0, 64, 86
1, 28024, Control_c, 0, 64, 85
1, 28038, Control_c, 0, 64, 85
1, 28053, Control_c, 0, 64, 84
1, 28128, Control_c, 0, 64, 84
1, 28142, Control_c, 0, 64, 83
1, 28157, Control_c, 0, 64, 82
1, 28172, Control_c, 0, 64, 81
1, 28187, Control_c, 0, 64, 80
1, 28202, Control_c, 0, 64, 80
1, 28217, Control_c, 0, 64, 79
1, 28231, Control_c, 0, 64, 78
1, 28246, Control_c, 0, 64, 77
1, 28261, Control_c, 0, 64, 76
1, 28276, Control_c, 0, 64, 75
1, 28291, Control_c, 0, 64, 74
1, 28312, Control_c, 0, 64, 73
1, 28327, Control_c, 0, 64, 72
1, 28342, Control_c, 0, 64, 71
1, 28357, Control_c, 0, 64, 70
1, 28372, Control_c, 0, 64, 69
1, 28387, Control_c, 0, 64, 69
1, 28402, Control_c, 0, 64, 68
1, 28432, Control_c, 0, 64, 68
1, 28446, Control_c, 0, 64, 67
1, 28461, Control_c, 0, 64, 67
1, 28505, Control_c, 0, 64, 66
1, 28520, Control_c, 0, 64, 66
1, 28535, Control_c, 0, 64, 65
1, 28564, Control_c, 0, 64, 65
1, 28579, Control_c, 0, 64, 64
1, 28609, Control_c, 0, 64, 64
1, 28624, Control_c, 0, 64, 63
1, 28653, Control_c, 0, 64, 62
1, 28668, Control_c, 0, 64, 61
1, 28684, Control_c, 0, 64, 59
1, 28699, Control_c, 0, 64, 59
1, 28728, Control_c, 0, 64, 58
1, 28743, Control_c, 0, 64, 55
1, 28758, Control_c, 0, 64, 49
1, 28773, Control_c, 0, 64, 47
1, 28802, Control_c, 0, 64, 46
1, 28817, Control_c, 0, 64, 39
1, 28832, Control_c, 0, 64, 0
1, 28956, Note_on_c, 0, 30, 27
1, 29387, Control_c, 0, 64, 27
1, 29402, Control_c, 0, 64, 40
1, 29417, Control_c, 0, 64, 48
1, 29432, Control_c, 0, 64, 53
1, 29447, Control_c, 0, 64, 57
1, 29461, Control_c, 0, 64, 59
1, 29476, Control_c, 0, 64, 60
1, 29492, Control_c, 0, 64, 62
1, 29496, Note_on_c, 0, 33, 33
1, 29507, Control_c, 0, 64, 63
1, 29522, Control_c, 0, 64, 64
1, 29536, Control_c, 0, 64, 65
1, 29551, Control_c, 0, 64, 66
1, 29566, Control_c, 0, 64, 67
1, 29581, Control_c, 0, 64, 67
1, 29596, Control_c, 0, 64, 68
1, 29610, Control_c, 0, 64, 69
1, 29625, Control_c, 0, 64, 70
1, 29640, Control_c, 0, 64, 71
1, 29655, Control_c, 0, 64, 73
1, 29670, Control_c, 0, 64, 74
1, 29685, Control_c, 0, 64, 76
1, 29700, Control_c, 0, 64, 77
1, 29715, Control_c, 0, 64, 79
1, 29729, Control_c, 0, 64, 80
1, 29744, Control_c, 0, 64, 82
1, 29759, Control_c, 0, 64, 83
1, 29774, Control_c, 0, 64, 84
1, 29915, Control_c, 0, 64, 83
1, 29929, Note_on_c, 0, 36, 46
1, 29930, Control_c, 0, 64, 81
1, 29944, Control_c, 0, 64, 77
1, 29959, Control_c, 0, 64, 72
1, 29974, Control_c, 0, 64, 66
1, 29989, Control_c, 0, 64, 63
1, 30004, Control_c, 0, 64, 64
1, 30018, Control_c, 0, 64, 65
1, 30033, Control_c, 0, 64, 66
1, 30048, Control_c, 0, 64, 68
1, 30063, Control_c, 0, 64, 70
1, 30078, Control_c, 0, 64, 72
1, 30092, Control_c, 0, 64, 74
1, 30107, Control_c, 0, 64, 76
1, 30122, Control_c, 0, 64, 78
1, 30125, Note_off_c, 0, 33, 30
1, 30137, Control_c, 0, 64, 80
1, 30152, Control_c, 0, 64, 82
1, 30167, Control_c, 0, 64, 84
1, 30167, Control_c, 0, 67, 127
1, 30181, Control_c, 0, 64, 87
1, 30187, Note_on_c, 0, 37, 51
1, 30196, Note_off_c, 0, 36, 49
1, 30196, Control_c, 0, 64, 89
1, 30211, Control_c, 0, 64, 92
1, 30226, Control_c, 0, 64, 93
1, 30230, Note_off_c, 0, 37, 61
1, 30256, Control_c, 0, 67, 127
1, 30293, Note_off_c, 0, 30, 37
1, 30316, Control_c, 0, 64, 92
1, 30330, Control_c, 0, 64, 87
1, 30343, Note_on_c, 0, 37, 44
1, 30345, Control_c, 0, 64, 77
1, 30350, Note_on_c, 0, 56, 56
1, 30352, Note_on_c, 0, 49, 40
1, 30352, Note_on_c, 0, 53, 44
1, 30360, Control_c, 0, 64, 64
1, 30375, Control_c, 0, 64, 0
1, 30432, Control_c, 0, 64, 30
1, 30447, Control_c, 0, 64, 50
1, 30462, Control_c, 0, 64, 57
1, 30477, Control_c, 0, 64, 61
1, 30477, Control_c, 0, 67, 127
1, 30492, Control_c, 0, 64, 64
1, 30492, Control_c, 0, 67, 126
1, 30506, Control_c, 0, 64, 66
1, 30521, Control_c, 0, 64, 67
1, 30521, Control_c, 0, 67, 125
1, 30536, Control_c, 0, 64, 68
1, 30558, Control_c, 0, 64, 70
1, 30558, Control_c, 0, 67, 125
1, 30573, Control_c, 0, 64, 71
1, 30573, Control_c, 0, 67, 123
1, 30588, Control_c, 0, 64, 73
1, 30588, Control_c, 0, 67, 121
1, 30603, Control_c, 0, 64, 75
1, 30603, Control_c, 0, 67, 119
1, 30608, Note_off_c, 0, 53, 58
1, 30618, Control_c, 0, 64, 77
1, 30618, Control_c, 0, 67, 119
1, 30629, Note_off_c, 0, 56, 59
1, 30632, Control_c, 0, 64, 79
1, 30632, Control_c, 0, 67, 117
1, 30647, Control_c, 0, 64, 80
1, 30647, Control_c, 0, 67, 116
1, 30662, Control_c, 0, 64, 81
1, 30662, Control_c, 0, 67, 114
1, 30677, Control_c, 0, 64, 83
1, 30677, Control_c, 0, 67, 113
1, 30692, Control_c, 0, 64, 84
1, 30692, Control_c, 0, 67, 112
1, 30706, Control_c, 0, 64, 86
1, 30706, Control_c, 0, 67, 110
1, 30721, Control_c, 0, 64, 87
1, 30721, Control_c, 0, 67, 109
1, 30736, Control_c, 0, 64, 89
1, 30736, Control_c, 0, 67, 106
1, 30751, Control_c, 0, 64, 90
1, 30751, Control_c, 0, 67, 104
1, 30754, Note_on_c, 0, 56, 57
1, 30762, Note_off_c, 0, 49, 48
1, 30764, Note_on_c, 0, 61, 63
1, 30766, Control_c, 0, 64, 91
1, 30766, Control_c, 0, 67, 101
1, 30771, Note_on_c, 0, 53, 43
1, 30781, Control_c, 0, 64, 92
1, 30781, Control_c, 0, 67, 98
1, 30795, Control_c, 0, 64, 93
1, 30795, Control_c, 0, 67, 97
1, 30810, Control_c, 0, 64, 94
1, 30810, Control_c, 0, 67, 96
1, 30825, Control_c, 0, 64, 94
1, 30825, Control_c, 0, 67, 93
1, 30840, Control_c, 0, 64, 95
1, 30840, Control_c, 0, 67, 90
1, 30848, Note_off_c, 0, 53, 57
1, 30855, Control_c, 0, 67, 88
1, 30870, Control_c, 0, 64, 95
1, 30870, Control_c, 0, 67, 85
1, 30884, Control_c, 0, 64, 96
1, 30884, Control_c, 0, 67, 82
1, 30896, Note_off_c, 0, 56, 64
1, 30899, Control_c, 0, 64, 96
1, 30899, Control_c, 0, 67, 80
1, 30900, Note_off_c, 0, 61, 63
1, 30914, Control_c, 0, 67, 79
1, 30929, Control_c, 0, 67, 77
1, 30944, Control_c, 0, 67, 75
1, 30958, Control_c, 0, 64, 97
1, 30958, Control_c, 0, 67, 74
1, 30973, Control_c, 0, 67, 73
1, 31003, Control_c, 0, 67, 72
1, 31018, Control_c, 0, 67, 72
1, 31032, Control_c, 0, 67, 71
1, 31047, Control_c, 0, 67, 70
1, 31062, Control_c, 0, 67, 70
1, 31078, Control_c, 0, 67, 69
1, 31093, Control_c, 0, 64, 94
1, 31093, Control_c, 0, 67, 69
1, 31108, Control_c, 0, 64, 91
1, 31108, Control_c, 0, 67, 68
1, 31123, Control_c, 0, 64, 89
1, 31123, Control_c, 0, 67, 68
1, 31152, Control_c, 0, 67, 67
1, 31167, Control_c, 0, 67, 67
1, 31171, Note_on_c, 0, 65, 58
1, 31180, Note_on_c, 0, 56, 45
1, 31181, Control_c, 0, 64, 89
1, 31187, Note_on_c, 0, 62, 42
1, 31190, Note_on_c, 0, 59, 27
1, 31196, Control_c, 0, 64, 90
1, 31196, Control_c, 0, 67, 66
1, 31211, Control_c, 0, 64, 92
1, 31211, Control_c, 0, 67, 66
1, 31226, Control_c, 0, 64, 93
1, 31226, Control_c, 0, 67, 65
1, 31241, Control_c, 0, 64, 94
1, 31241, Control_c, 0, 67, 64
1, 31246, Note_off_c, 0, 62, 53
1, 31255, Control_c, 0, 67, 63
1, 31260, Note_off_c, 0, 59, 39
1, 31270, Control_c, 0, 67, 62
1, 31285, Control_c, 0, 64, 94
1, 31285, Control_c, 0, 67, 62
1, 31307, Control_c, 0, 64, 95
1, 31322, Control_c, 0, 64, 95
1, 31322, Control_c, 0, 67, 61
1, 31337, Control_c, 0, 67, 61
1, 31352, Control_c, 0, 67, 59
1, 31359, Note_off_c, 0, 56, 38
1, 31367, Control_c, 0, 67, 58
1, 31381, Control_c, 0, 67, 57
1, 31396, Control_c, 0, 67, 56
1, 31411, Control_c, 0, 67, 56
1, 31426, Control_c, 0, 67, 54
1, 31441, Control_c, 0, 67, 54
1, 31467, Note_off_c, 0, 65, 48
1, 31470, Control_c, 0, 67, 53
1, 31493, Note_on_c, 0, 66, 62
1, 31496, Note_on_c, 0, 57, 52
1, 31510, Note_on_c, 0, 61, 47
1, 31523, Note_off_c, 0, 57, 56
1, 31538, Note_off_c, 0, 61, 55
1, 31541, Note_off_c, 0, 66, 55
1, 31544, Control_c, 0, 64, 95
1, 31559, Control_c, 0, 64, 94
1, 31573, Control_c, 0, 64, 93
1, 31588, Control_c, 0, 64, 92
1, 31603, Control_c, 0, 64, 90
1, 31603, Control_c, 0, 67, 54
1, 31618, Control_c, 0, 64, 87
1, 31633, Note_on_c, 0, 57, 39
1, 31633, Control_c, 0, 64, 80
1, 31633, Control_c, 0, 67, 54
1, 31648, Control_c, 0, 64, 70
1, 31649, Note_on_c, 0, 30, 35
1, 31651, Note_on_c, 0, 66, 49
1, 31657, Note_on_c, 0, 61, 17
1, 31663, Control_c, 0, 64, 46
1, 31663, Control_c, 0, 67, 55
1, 31678, Control_c, 0, 64, 0
1, 31683, Note_off_c, 0, 37, 46
1, 31803, Note_off_c, 0, 61, 0
1, 31826, Control_c, 0, 67, 55
1, 31841, Poly_aftertouch_c, 0, 61, 127
1, 31855, Control_c, 0, 64, 36
1, 31870, Control_c, 0, 64, 54
1, 31886, Control_c, 0, 64, 62
1, 31886, Control_c, 0, 67, 56
1, 31901, Control_c, 0, 64, 64
1, 31916, Control_c, 0, 64, 64
1, 31916, Control_c, 0, 67, 56
1, 31930, Control_c, 0, 64, 65
1, 31945, Control_c, 0, 64, 67
1, 31945, Control_c, 0, 67, 57
1, 31960, Control_c, 0, 64, 69
1, 31975, Control_c, 0, 64, 71
1, 31990, Control_c, 0, 64, 71
1, 32004, Control_c, 0, 64, 72
1, 32004, Control_c, 0, 67, 57
1, 32019, Control_c, 0, 64, 73
1, 32034, Control_c, 0, 64, 75
1, 32056, Control_c, 0, 64, 77
1, 32056, Control_c, 0, 67, 58
1, 32070, Note_on_c, 0, 33, 44
1, 32071, Control_c, 0, 64, 78
1, 32086, Control_c, 0, 67, 58
1, 32101, Control_c, 0, 64, 78
1, 32116, Control_c, 0, 64, 79
1, 32116, Control_c, 0, 67, 59
1, 32130, Control_c, 0, 64, 80
1, 32145, Control_c, 0, 64, 82
1, 32145, Control_c, 0, 67, 59
1, 32160, Control_c, 0, 64, 82
1, 32160, Control_c, 0, 67, 60
1, 32190, Control_c, 0, 67, 60
1, 32214, Note_off_c, 0, 57, 34
1, 32219, Control_c, 0, 64, 83
1, 32220, Poly_aftertouch_c, 0, 61, 0
1, 32234, Control_c, 0, 64, 83
1, 32249, Control_c, 0, 67, 61
1, 32264, Note_off_c, 0, 66, 53
1, 32323, Control_c, 0, 67, 61
1, 32361, Note_off_c, 0, 30, 39
1, 32367, Control_c, 0, 64, 83
1, 32397, Control_c, 0, 64, 82
1, 32411, Control_c, 0, 64, 82
1, 32426, Control_c, 0, 64, 81
1, 32441, Control_c, 0, 64, 79
1, 32456, Control_c, 0, 64, 74
1, 32471, Control_c, 0, 64, 67
1, 32484, Note_on_c, 0, 36, 50
1, 32486, Control_c, 0, 64, 46
1, 32501, Control_c, 0, 64, 14
1, 32515, Control_c, 0, 64, 34
1, 32530, Control_c, 0, 64, 42
1, 32545, Control_c, 0, 64, 47
1, 32545, Control_c, 0, 67, 61
1, 32560, Control_c, 0, 64, 53
1, 32575, Control_c, 0, 64, 58
1, 32575, Control_c, 0, 67, 60
1, 32590, Control_c, 0, 64, 62
1, 32590, Control_c, 0, 67, 60
1, 32604, Control_c, 0, 64, 64
1, 32619, Control_c, 0, 64, 66
1, 32619, Control_c, 0, 67, 59
1, 32634, Control_c, 0, 64, 68
1, 32647, Note_off_c, 0, 33, 29
1, 32648, Control_c, 0, 64, 70
1, 32648, Control_c, 0, 67, 59
1, 32663, Control_c, 0, 64, 71
1, 32663, Control_c, 0, 67, 58
1, 32679, Control_c, 0, 64, 74
1, 32694, Control_c, 0, 64, 76
1, 32709, Control_c, 0, 64, 78
1, 32724, Control_c, 0, 64, 80
1, 32739, Control_c, 0, 64, 82
1, 32744, Note_off_c, 0, 36, 59
1, 32747, Note_on_c, 0, 37, 58
1, 32753, Control_c, 0, 64, 83
1, 32768, Control_c, 0, 64, 84
1, 32782, Note_off_c, 0, 37, 62
1, 32783, Control_c, 0, 64, 85
1, 32849, Control_c, 0, 64, 84
1, 32864, Control_c, 0, 64, 83
1, 32864, Control_c, 0, 67, 59
1, 32879, Control_c, 0, 64, 79
1, 32879, Control_c, 0, 67, 59
1, 32894, Control_c, 0, 64, 73
1, 32896, Note_on_c, 0, 53, 41
1, 32897, Note_on_c, 0, 62, 54
1, 32898, Note_on_c, 0, 37, 40
1, 32904, Note_on_c, 0, 56, 32
1, 32905, Note_on_c, 0, 59, 39
1, 32909, Control_c, 0, 64, 63
1, 32924, Control_c, 0, 64, 0
1, 33013, Control_c, 0, 64, 21
1, 33027, Control_c, 0, 64, 46
1, 33042, Control_c, 0, 64, 56
1, 33057, Control_c, 0, 64, 62
1, 33072, Control_c, 0, 64, 64
1, 33086, Control_c, 0, 64, 65
1, 33086, Control_c, 0, 67, 58
1, 33101, Control_c, 0, 64, 66
1, 33116, Control_c, 0, 64, 67
1, 33116, Control_c, 0, 67, 58
1, 33131, Control_c, 0, 64, 69
1, 33131, Control_c, 0, 67, 57
1, 33146, Control_c, 0, 64, 70
1, 33146, Control_c, 0, 67, 57
1, 33160, Control_c, 0, 64, 72
1, 33160, Control_c, 0, 67, 56
1, 33175, Control_c, 0, 64, 74
1, 33180, Note_off_c, 0, 56, 49
1, 33190, Control_c, 0, 64, 75
1, 33190, Control_c, 0, 67, 56
1, 33203, Note_off_c, 0, 59, 36
1, 33205, Control_c, 0, 64, 77
1, 33220, Control_c, 0, 64, 78
1, 33220, Control_c, 0, 67, 55
1, 33234, Control_c, 0, 64, 80
1, 33243, Note_off_c, 0, 53, 64
1, 33249, Control_c, 0, 64, 81
1, 33249, Control_c, 0, 67, 55
1, 33261, Note_off_c, 0, 62, 52
1, 33264, Control_c, 0, 64, 83
1, 33264, Control_c, 0, 67, 54
1, 33279, Control_c, 0, 64, 84
1, 33293, Control_c, 0, 64, 86
1, 33308, Control_c, 0, 64, 86
1, 33323, Control_c, 0, 67, 54
1, 33324, Note_on_c, 0, 59, 49
1, 33326, Note_on_c, 0, 65, 60
1, 33336, Note_on_c, 0, 56, 48
1, 33353, Control_c, 0, 67, 53
1, 33368, Control_c, 0, 67, 53
1, 33383, Control_c, 0, 64, 87
1, 33443, Control_c, 0, 67, 52
1, 33457, Control_c, 0, 64, 87
1, 33461, Note_off_c, 0, 59, 58
1, 33462, Note_off_c, 0, 56, 64
1, 33503, Control_c, 0, 67, 52
1, 33517, Control_c, 0, 64, 88
1, 33532, Control_c, 0, 67, 51
1, 33555, Control_c, 0, 64, 88
1, 33570, Control_c, 0, 67, 48
1, 33584, Control_c, 0, 67, 45
1, 33599, Control_c, 0, 67, 42
1, 33613, Note_off_c, 0, 65, 61
1, 33614, Control_c, 0, 64, 89
1, 33614, Control_c, 0, 67, 40
1, 33629, Control_c, 0, 67, 39
1, 33644, Control_c, 0, 67, 38
1, 33658, Control_c, 0, 67, 37
1, 33673, Control_c, 0, 64, 87
1, 33673, Control_c, 0, 67, 37
1, 33688, Control_c, 0, 64, 84
1, 33688, Control_c, 0, 67, 36
1, 33702, Control_c, 0, 64, 82
1, 33702, Control_c, 0, 67, 36
1, 33717, Control_c, 0, 67, 35
1, 33732, Note_on_c, 0, 68, 62
1, 33745, Note_on_c, 0, 59, 38
1, 33747, Control_c, 0, 67, 35
1, 33762, Control_c, 0, 64, 82
1, 33762, Control_c, 0, 67, 34
1, 33776, Control_c, 0, 64, 83
1, 33776, Control_c, 0, 67, 34
1, 33791, Control_c, 0, 64, 84
1, 33791, Control_c, 0, 67, 33
1, 33806, Control_c, 0, 64, 85
1, 33806, Control_c, 0, 67, 32
1, 33812, Poly_aftertouch_c, 0, 62, 0
1, 33821, Control_c, 0, 64, 85
1, 33821, Control_c, 0, 67, 30
1, 33830, Note_off_c, 0, 59, 59
1, 33836, Control_c, 0, 64, 86
1, 33836, Control_c, 0, 67, 29
1, 33851, Control_c, 0, 67, 27
1, 33866, Control_c, 0, 64, 86
1, 33866, Control_c, 0, 67, 26
1, 33881, Control_c, 0, 64, 87
1, 33881, Control_c, 0, 67, 25
1, 33896, Control_c, 0, 64, 88
1, 33896, Control_c, 0, 67, 25
1, 33910, Control_c, 0, 64, 88
1, 33910, Control_c, 0, 67, 24
1, 33925, Control_c, 0, 67, 23
1, 33940, Control_c, 0, 67, 23
1, 33984, Control_c, 0, 64, 89
1, 34009, Note_off_c, 0, 68, 60
1, 34037, Note_on_c, 0, 69, 60
1, 34043, Note_on_c, 0, 57, 35
1, 34048, Note_on_c, 0, 66, 41
1, 34073, Control_c, 0, 64, 88
1, 34083, Note_off_c, 0, 66, 57
1, 34087, Note_off_c, 0, 57, 47
1, 34088, Control_c, 0, 67, 23
1, 34102, Control_c, 0, 64, 87
1, 34102, Control_c, 0, 67, 24
1, 34104, Note_off_c, 0, 69, 60
1, 34117, Control_c, 0, 64, 86
1, 34117, Control_c, 0, 67, 25
1, 34132, Control_c, 0, 64, 84
1, 34132, Control_c, 0, 67, 25
1, 34147, Control_c, 0, 64, 81
1, 34147, Control_c, 0, 67, 26
1, 34162, Control_c, 0, 64, 78
1, 34162, Control_c, 0, 67, 26
1, 34176, Control_c, 0, 64, 74
1, 34176, Control_c, 0, 67, 27
1, 34191, Control_c, 0, 64, 67
1, 34191, Control_c, 0, 67, 27
1, 34206, Control_c, 0, 64, 45
1, 34206, Control_c, 0, 67, 28
1, 34219, Note_on_c, 0, 30, 37
1, 34221, Control_c, 0, 64, 0
1, 34221, Note_on_c, 0, 69, 51
1, 34235, Control_c, 0, 67, 28
1, 34240, Note_off_c, 0, 37, 43
1, 34250, Control_c, 0, 67, 29
1, 34253, Poly_aftertouch_c, 0, 57, 127
1, 34265, Control_c, 0, 67, 30
1, 34271, Poly_aftertouch_c, 0, 66, 127
1, 34280, Control_c, 0, 67, 30
1, 34318, Control_c, 0, 67, 31
1, 34332, Control_c, 0, 67, 32
1, 34362, Control_c, 0, 64, 39
1, 34362, Control_c, 0, 67, 32
1, 34377, Control_c, 0, 64, 52
1, 34392, Control_c, 0, 64, 59
1, 34406, Control_c, 0, 64, 63
1, 34421, Control_c, 0, 64, 64
1, 34421, Control_c, 0, 67, 33
1, 34436, Control_c, 0, 64, 66
1, 34436, Control_c, 0, 67, 33
1, 34451, Control_c, 0, 64, 67
1, 34451, Control_c, 0, 67, 34
1, 34466, Control_c, 0, 64, 69
1, 34480, Control_c, 0, 64, 70
1, 34495, Control_c, 0, 64, 71
1, 34495, Control_c, 0, 67, 34
1, 34510, Control_c, 0, 64, 72
1, 34510, Control_c, 0, 67, 35
1, 34525, Control_c, 0, 64, 74
1, 34525, Control_c, 0, 67, 36
1, 34539, Control_c, 0, 64, 76
1, 34539, Control_c, 0, 67, 36
1, 34554, Control_c, 0, 64, 78
1, 34554, Control_c, 0, 67, 37
1, 34569, Control_c, 0, 64, 78
1, 34569, Control_c, 0, 67, 38
1, 34584, Control_c, 0, 64, 79
1, 34584, Control_c, 0, 67, 40
1, 34599, Control_c, 0, 64, 80
1, 34599, Control_c, 0, 67, 42
1, 34614, Control_c, 0, 64, 81
1, 34614, Control_c, 0, 67, 44
1, 34629, Control_c, 0, 64, 82
1, 34629, Control_c, 0, 67, 45
1, 34644, Control_c, 0, 64, 83
1, 34644, Control_c, 0, 67, 46
1, 34659, Control_c, 0, 64, 84
1, 34659, Control_c, 0, 67, 47
1, 34673, Note_on_c, 0, 33, 44
1, 34673, Control_c, 0, 67, 49
1, 34688, Control_c, 0, 67, 50
1, 34703, Control_c, 0, 67, 51
1, 34718, Control_c, 0, 67, 52
1, 34732, Control_c, 0, 64, 84
1, 34732, Control_c, 0, 67, 52
1, 34747, Control_c, 0, 67, 54
1, 34762, Control_c, 0, 67, 55
1, 34777, Control_c, 0, 67, 56
1, 34792, Control_c, 0, 67, 56
1, 34796, Note_off_c, 0, 30, 40
1, 34806, Control_c, 0, 67, 57
1, 34821, Control_c, 0, 67, 60
1, 34836, Control_c, 0, 64, 84
1, 34836, Control_c, 0, 67, 63
1, 34840, Poly_aftertouch_c, 0, 57, 0
1, 34850, Control_c, 0, 67, 64
1, 34865, Control_c, 0, 67, 66
1, 34880, Control_c, 0, 67, 68
1, 34887, Poly_aftertouch_c, 0, 66, 0
1, 34895, Control_c, 0, 67, 70
1, 34909, Note_off_c, 0, 69, 38
1, 34910, Control_c, 0, 67, 74
1, 34924, Control_c, 0, 67, 78
1, 34939, Control_c, 0, 67, 80
1, 34954, Control_c, 0, 67, 81
1, 34969, Control_c, 0, 67, 83
1, 34984, Control_c, 0, 64, 83
1, 34984, Control_c, 0, 67, 84
1, 34999, Control_c, 0, 67, 85
1, 35013, Control_c, 0, 64, 83
1, 35028, Control_c, 0, 64, 82
1, 35028, Control_c, 0, 67, 86
1, 35050, Control_c, 0, 64, 81
1, 35050, Control_c, 0, 67, 86
1, 35065, Control_c, 0, 64, 79
1, 35082, Control_c, 0, 64, 73
1, 35087, Note_on_c, 0, 37, 51
1, 35096, Control_c, 0, 64, 64
1, 35111, Control_c, 0, 64, 0
1, 35147, Note_off_c, 0, 33, 45
1, 35170, Control_c, 0, 67, 85
1, 35185, Control_c, 0, 67, 84
1, 35200, Control_c, 0, 64, 40
1, 35200, Control_c, 0, 67, 84
1, 35215, Control_c, 0, 64, 58
1, 35229, Control_c, 0, 64, 63
1, 35244, Control_c, 0, 64, 64
1, 35244, Control_c, 0, 67, 83
1, 35259, Control_c, 0, 64, 65
1, 35259, Control_c, 0, 67, 83
1, 35274, Control_c, 0, 64, 68
1, 35274, Control_c, 0, 67, 82
1, 35289, Control_c, 0, 64, 70
1, 35303, Control_c, 0, 64, 72
1, 35318, Control_c, 0, 64, 73
1, 35333, Control_c, 0, 64, 74
1, 35347, Control_c, 0, 64, 76
1, 35362, Control_c, 0, 64, 79
1, 35362, Control_c, 0, 67, 82
1, 35377, Control_c, 0, 64, 81
1, 35392, Control_c, 0, 64, 82
1, 35404, Note_off_c, 0, 37, 47
1, 35407, Control_c, 0, 64, 83
1, 35410, Note_on_c, 0, 38, 49
1, 35422, Control_c, 0, 64, 84
1, 35422, Control_c, 0, 67, 81
1, 35437, Control_c, 0, 64, 85
1, 35443, Note_off_c, 0, 38, 63
1, 35511, Control_c, 0, 64, 84
1, 35541, Control_c, 0, 67, 82
1, 35555, Control_c, 0, 64, 83
1, 35570, Control_c, 0, 64, 82
1, 35570, Control_c, 0, 67, 82
1, 35579, Note_on_c, 0, 57, 47
1, 35583, Note_on_c, 0, 38, 34
1, 35585, Control_c, 0, 64, 78
1, 35598, Note_on_c, 0, 53, 35
1, 35600, Control_c, 0, 64, 71
1, 35615, Control_c, 0, 64, 62
1, 35615, Control_c, 0, 67, 83
1, 35629, Control_c, 0, 64, 0
1, 35629, Control_c, 0, 67, 83
1, 35644, Control_c, 0, 67, 84
1, 35688, Control_c, 0, 64, 31
1, 35688, Control_c, 0, 67, 84
1, 35703, Control_c, 0, 64, 40
1, 35703, Control_c, 0, 67, 85
1, 35718, Control_c, 0, 64, 46
1, 35718, Control_c, 0, 67, 85
1, 35733, Control_c, 0, 64, 54
1, 35747, Control_c, 0, 64, 60
1, 35762, Control_c, 0, 64, 63
1, 35762, Control_c, 0, 67, 86
1, 35777, Control_c, 0, 64, 65
1, 35777, Control_c, 0, 67, 86
1, 35800, Control_c, 0, 64, 66
1, 35800, Control_c, 0, 67, 87
1, 35815, Control_c, 0, 64, 67
1, 35829, Control_c, 0, 64, 68
1, 35844, Control_c, 0, 64, 69
1, 35844, Control_c, 0, 67, 87
1, 35859, Control_c, 0, 64, 70
1, 35859, Control_c, 0, 67, 88
1, 35875, Control_c, 0, 64, 71
1, 35890, Control_c, 0, 64, 73
1, 35890, Control_c, 0, 67, 90
1, 35904, Control_c, 0, 64, 75
1, 35904, Control_c, 0, 67, 92
1, 35916, Note_off_c, 0, 57, 56
1, 35919, Control_c, 0, 64, 76
1, 35919, Control_c, 0, 67, 92
1, 35934, Control_c, 0, 64, 78
1, 35949, Control_c, 0, 64, 79
1, 35964, Control_c, 0, 64, 81
1, 35978, Control_c, 0, 64, 82
1, 35993, Control_c, 0, 64, 83
1, 36008, Control_c, 0, 64, 84
1, 36023, Control_c, 0, 64, 85
1, 36027, Note_off_c, 0, 53, 57
1, 36052, Control_c, 0, 64, 86
1, 36067, Control_c, 0, 64, 87
1, 36082, Control_c, 0, 64, 88
1, 36087, Note_on_c, 0, 65, 61
1, 36095, Note_on_c, 0, 57, 28
1, 36095, Note_on_c, 0, 62, 41
1, 36096, Control_c, 0, 64, 89
1, 36111, Control_c, 0, 67, 92
1, 36126, Control_c, 0, 64, 89
1, 36141, Control_c, 0, 64, 90
1, 36156, Control_c, 0, 64, 91
1, 36170, Control_c, 0, 64, 91
1, 36200, Control_c, 0, 64, 92
1, 36215, Control_c, 0, 64, 93
1, 36230, Control_c, 0, 64, 94
1, 36245, Control_c, 0, 64, 95
1, 36259, Note_off_c, 0, 57, 40
1, 36259, Control_c, 0, 64, 96
1, 36265, Note_off_c, 0, 62, 33
1, 36274, Control_c, 0, 64, 97
1, 36289, Control_c, 0, 64, 98
1, 36304, Control_c, 0, 64, 99
1, 36319, Control_c, 0, 64, 101
1, 36334, Control_c, 0, 64, 102
1, 36349, Control_c, 0, 64, 104
1, 36349, Control_c, 0, 67, 93
1, 36363, Control_c, 0, 64, 105
1, 36363, Control_c, 0, 67, 93
1, 36378, Control_c, 0, 64, 107
1, 36378, Control_c, 0, 67, 94
1, 36393, Control_c, 0, 64, 108
1, 36393, Control_c, 0, 67, 95
1, 36408, Control_c, 0, 64, 109
1, 36408, Control_c, 0, 67, 98
1, 36413, Note_off_c, 0, 65, 64
1, 36423, Control_c, 0, 64, 110
1, 36423, Control_c, 0, 67, 101
1, 36438, Control_c, 0, 64, 112
1, 36438, Control_c, 0, 67, 105
1, 36453, Control_c, 0, 64, 119
1, 36453, Control_c, 0, 67, 110
1, 36468, Control_c, 0, 64, 127
1, 36468, Control_c, 0, 67, 114
1, 36483, Control_c, 0, 67, 116
1, 36492, Note_on_c, 0, 69, 69
1, 36497, Control_c, 0, 67, 117
1, 36504, Note_on_c, 0, 62, 53
1, 36512, Control_c, 0, 67, 117
1, 36527, Control_c, 0, 67, 118
1, 36532, Note_on_c, 0, 65, 30
1, 36673, Note_off_c, 0, 69, 55
1, 36736, Note_off_c, 0, 38, 39
1, 36805, Note_on_c, 0, 71, 72
1, 36817, Control_c, 0, 67, 119
1, 36838, Note_off_c, 0, 62, 48
1, 36847, Control_c, 0, 67, 119
1, 36862, Control_c, 0, 67, 120
1, 36871, Note_off_c, 0, 65, 42
1, 36876, Control_c, 0, 67, 121
1, 36882, Note_off_c, 0, 71, 62
1, 36891, Control_c, 0, 67, 123
1, 36906, Control_c, 0, 67, 125
1, 36920, Control_c, 0, 67, 127
1, 36950, Control_c, 0, 64, 110
1, 36965, Control_c, 0, 64, 92
1, 36980, Note_on_c, 0, 26, 42
1, 36980, Control_c, 0, 64, 77
1, 36984, Note_on_c, 0, 71, 54
1, 36992, Note_on_c, 0, 62, 36
1, 36992, Note_on_c, 0, 65, 31
1, 36993, Note_on_c, 0, 68, 47
1, 36994, Control_c, 0, 64, 65
1, 36998, Note_on_c, 0, 38, 31
1, 37009, Control_c, 0, 64, 54
1, 37024, Control_c, 0, 64, 60
1, 37039, Control_c, 0, 64, 61
1, 37054, Control_c, 0, 64, 62
1, 37068, Control_c, 0, 64, 64
1, 37083, Control_c, 0, 64, 66
1, 37098, Control_c, 0, 64, 69
1, 37112, Control_c, 0, 64, 71
1, 37127, Control_c, 0, 64, 72
1, 37142, Control_c, 0, 64, 75
1, 37157, Control_c, 0, 64, 78
1, 37167, Note_off_c, 0, 26, 54
1, 37172, Control_c, 0, 64, 80
1, 37187, Control_c, 0, 64, 82
1, 37201, Control_c, 0, 64, 83
1, 37204, Note_off_c, 0, 38, 54
1, 37216, Control_c, 0, 64, 87
1, 37231, Control_c, 0, 64, 90
1, 37246, Control_c, 0, 64, 92
1, 37261, Control_c, 0, 64, 92
1, 37387, Control_c, 0, 64, 91
1, 37401, Control_c, 0, 64, 87
1, 37404, Note_on_c, 0, 29, 46
1, 37410, Note_on_c, 0, 41, 40
1, 37416, Control_c, 0, 64, 81
1, 37431, Control_c, 0, 64, 71
1, 37446, Control_c, 0, 64, 62
1, 37461, Control_c, 0, 64, 60
1, 37477, Control_c, 0, 64, 63
1, 37492, Control_c, 0, 64, 63
1, 37506, Control_c, 0, 64, 64
1, 37521, Control_c, 0, 64, 65
1, 37536, Control_c, 0, 64, 67
1, 37550, Control_c, 0, 64, 69
1, 37565, Control_c, 0, 64, 71
1, 37580, Control_c, 0, 64, 74
1, 37595, Control_c, 0, 64, 77
1, 37610, Control_c, 0, 64, 80
1, 37616, Note_off_c, 0, 41, 57
1, 37625, Control_c, 0, 64, 83
1, 37640, Control_c, 0, 64, 84
1, 37655, Control_c, 0, 64, 85
1, 37669, Control_c, 0, 64, 86
1, 37741, Note_off_c, 0, 29, 42
1, 37758, Control_c, 0, 64, 85
1, 37773, Control_c, 0, 64, 82
1, 37788, Control_c, 0, 64, 74
1, 37803, Control_c, 0, 64, 65
1, 37817, Control_c, 0, 64, 21
1, 37818, Note_on_c, 0, 32, 51
1, 37827, Note_on_c, 0, 44, 47
1, 37832, Control_c, 0, 64, 40
1, 37847, Control_c, 0, 64, 58
1, 37862, Control_c, 0, 64, 64
1, 37876, Control_c, 0, 64, 68
1, 37881, Note_off_c, 0, 32, 62
1, 37889, Note_off_c, 0, 44, 64
1, 37891, Control_c, 0, 64, 71
1, 37906, Control_c, 0, 64, 74
1, 37920, Control_c, 0, 64, 78
1, 37921, Note_off_c, 0, 62, 53
1, 37935, Control_c, 0, 64, 82
1, 37939, Note_off_c, 0, 65, 44
1, 37950, Control_c, 0, 64, 84
1, 37956, Note_off_c, 0, 71, 56
1, 37964, Note_off_c, 0, 68, 62
1, 37965, Control_c, 0, 64, 86
1, 37979, Control_c, 0, 64, 87
1, 37994, Control_c, 0, 64, 88
1, 38009, Control_c, 0, 64, 89
1, 38024, Control_c, 0, 64, 90
1, 38133, Note_on_c, 0, 50, 51
1, 38138, Note_on_c, 0, 38, 44
1, 38164, Control_c, 0, 64, 89
1, 38165, Note_off_c, 0, 50, 63
1, 38184, Note_off_c, 0, 38, 45
1, 38194, Control_c, 0, 64, 88
1, 38209, Control_c, 0, 64, 85
1, 38224, Control_c, 0, 64, 79
1, 38239, Control_c, 0, 64, 67
1, 38254, Control_c, 0, 64, 0
1, 38273, Note_on_c, 0, 69, 44
1, 38304, Note_on_c, 0, 76, 52
1, 38325, Note_on_c, 0, 81, 69
1, 38328, Control_c, 0, 64, 44
1, 38331, Note_off_c, 0, 69, 58
1, 38334, Note_on_c, 0, 50, 39
1, 38343, Control_c, 0, 64, 64
1, 38349, Note_on_c, 0, 38, 36
1, 38356, Note_off_c, 0, 76, 60
1, 38358, Control_c, 0, 64, 70
1, 38373, Control_c, 0, 64, 74
1, 38373, Note_off_c, 0, 50, 65
1, 38375, Note_off_c, 0, 81, 55
1, 38382, Note_off_c, 0, 38, 50
1, 38388, Control_c, 0, 64, 77
1, 38403, Control_c, 0, 64, 78
1, 38418, Control_c, 0, 64, 80
1, 38433, Control_c, 0, 64, 83
1, 38447, Control_c, 0, 64, 85
1, 38462, Control_c, 0, 64, 88
1, 38477, Control_c, 0, 64, 89
1, 38491, Control_c, 0, 64, 90
1, 38551, Control_c, 0, 64, 90
1, 38680, Note_on_c, 0, 62, 46
1, 38690, Note_on_c, 0, 69, 53
1, 38692, Note_on_c, 0, 64, 35
1, 38707, Note_off_c, 0, 62, 56
1, 38713, Note_off_c, 0, 69, 61
1, 38725, Note_off_c, 0, 64, 47
1, 38781, Note_on_c, 0, 62, 61
1, 38797, Note_on_c, 0, 74, 65
1, 38813, Note_off_c, 0, 62, 63
1, 38817, Note_on_c, 0, 64, 28
1, 38825, Note_off_c, 0, 74, 69
1, 38856, Note_off_c, 0, 64, 45
1, 38891, Note_on_c, 0, 62, 61
1, 38900, Note_on_c, 0, 76, 75
1, 38912, Note_off_c, 0, 62, 65
1, 38924, Note_off_c, 0, 76, 68
1, 38992, Note_on_c, 0, 62, 60
1, 38993, Note_on_c, 0, 64, 48
1, 39023, Note_off_c, 0, 62, 64
1, 39038, Note_off_c, 0, 64, 57
1, 39086, Note_on_c, 0, 68, 67
1, 39097, Note_on_c, 0, 62, 52
1, 39102, Note_on_c, 0, 64, 14
1, 39107, Control_c, 0, 64, 89
1, 39115, Note_off_c, 0, 62, 64
1, 39121, Control_c, 0, 64, 83
1, 39133, Note_off_c, 0, 68, 48
1, 39136, Control_c, 0, 64, 73
1, 39142, Note_off_c, 0, 64, 50
1, 39151, Control_c, 0, 64, 55
1, 39166, Control_c, 0, 64, 0
1, 39184, Note_on_c, 0, 62, 56
1, 39193, Note_on_c, 0, 69, 71
1, 39211, Note_on_c, 0, 64, 43
1, 39225, Control_c, 0, 64, 21
1, 39240, Control_c, 0, 64, 59
1, 39255, Control_c, 0, 64, 66
1, 39270, Control_c, 0, 64, 69
1, 39273, Note_off_c, 0, 64, 62
1, 39285, Control_c, 0, 64, 72
1, 39300, Control_c, 0, 64, 75
1, 39309, Note_off_c, 0, 62, 60
1, 39314, Control_c, 0, 64, 79
1, 39329, Control_c, 0, 64, 84
1, 39344, Control_c, 0, 64, 87
1, 39359, Control_c, 0, 64, 89
1, 39374, Control_c, 0, 64, 92
1, 39388, Control_c, 0, 64, 94
1, 39403, Control_c, 0, 64, 95
1, 39468, Note_off_c, 0, 69, 55
1, 39590, Note_on_c, 0, 61, 46
1, 39604, Control_c, 0, 64, 94
1, 39612, Note_on_c, 0, 69, 44
1, 39619, Control_c, 0, 64, 93
1, 39634, Control_c, 0, 64, 92
1, 39648, Control_c, 0, 64, 90
1, 39663, Control_c, 0, 64, 89
1, 39678, Control_c, 0, 64, 88
1, 39693, Control_c, 0, 64, 83
1, 39708, Control_c, 0, 64, 74
1, 39716, Note_on_c, 0, 37, 24
1, 39720, Note_on_c, 0, 25, 35
1, 39720, Note_on_c, 0, 76, 57
1, 39722, Control_c, 0, 64, 64
1, 39737, Control_c, 0, 64, 41
1, 39752, Control_c, 0, 64, 53
1, 39767, Control_c, 0, 64, 58
1, 39782, Control_c, 0, 64, 60
1, 39796, Control_c, 0, 64, 62
1, 39811, Control_c, 0, 64, 64
1, 39826, Control_c, 0, 64, 67
1, 39840, Control_c, 0, 64, 70
1, 39855, Control_c, 0, 64, 71
1, 39871, Control_c, 0, 64, 73
1, 39886, Control_c, 0, 64, 75
1, 39901, Control_c, 0, 64, 77
1, 39912, Note_off_c, 0, 25, 48
1, 39916, Control_c, 0, 64, 80
1, 39931, Control_c, 0, 64, 82
1, 39938, Note_off_c, 0, 37, 54
1, 39945, Control_c, 0, 64, 84
1, 39960, Control_c, 0, 64, 86
1, 39975, Control_c, 0, 64, 86
1, 39990, Control_c, 0, 64, 87
1, 40078, Control_c, 0, 64, 86
1, 40123, Control_c, 0, 64, 85
1, 40138, Control_c, 0, 64, 83
1, 40142, Note_on_c, 0, 28, 48
1, 40144, Note_on_c, 0, 40, 46
1, 40153, Control_c, 0, 64, 79
1, 40167, Control_c, 0, 64, 75
1, 40182, Control_c, 0, 64, 75
1, 40197, Control_c, 0, 64, 75
1, 40212, Control_c, 0, 64, 76
1, 40227, Control_c, 0, 64, 78
1, 40232, Note_off_c, 0, 61, 40
1, 40242, Control_c, 0, 64, 79
1, 40246, Note_off_c, 0, 76, 37
1, 40257, Control_c, 0, 64, 82
1, 40271, Control_c, 0, 64, 85
1, 40293, Control_c, 0, 64, 87
1, 40301, Note_off_c, 0, 69, 37
1, 40308, Control_c, 0, 64, 90
1, 40323, Control_c, 0, 64, 92
1, 40338, Control_c, 0, 64, 94
1, 40341, Note_off_c, 0, 28, 39
1, 40353, Control_c, 0, 64, 96
1, 40368, Control_c, 0, 64, 98
1, 40385, Note_off_c, 0, 40, 61
1, 40398, Control_c, 0, 64, 98
1, 40486, Control_c, 0, 64, 98
1, 40531, Control_c, 0, 64, 97
1, 40546, Control_c, 0, 64, 92
1, 40553, Note_on_c, 0, 33, 54
1, 40555, Note_on_c, 0, 45, 51
1, 40561, Control_c, 0, 64, 83
1, 40576, Control_c, 0, 64, 70
1, 40591, Control_c, 0, 64, 54
1, 40606, Control_c, 0, 64, 53
1, 40620, Control_c, 0, 64, 62
1, 40635, Control_c, 0, 64, 65
1, 40650, Control_c, 0, 64, 69
1, 40665, Control_c, 0, 64, 73
1, 40680, Control_c, 0, 64, 77
1, 40695, Control_c, 0, 64, 81
1, 40697, Note_off_c, 0, 33, 59
1, 40710, Control_c, 0, 64, 85
1, 40713, Note_off_c, 0, 45, 65
1, 40725, Control_c, 0, 64, 88
1, 40740, Control_c, 0, 64, 91
1, 40755, Control_c, 0, 64, 94
1, 40769, Control_c, 0, 64, 96
1, 40784, Control_c, 0, 64, 98
1, 40799, Control_c, 0, 64, 98
1, 40856, Note_on_c, 0, 49, 59
1, 40875, Note_on_c, 0, 37, 38
1, 40895, Note_off_c, 0, 49, 58
1, 40919, Note_off_c, 0, 37, 48
1, 40947, Control_c, 0, 64, 97
1, 40961, Control_c, 0, 64, 92
1, 40976, Control_c, 0, 64, 81
1, 40984, Note_on_c, 0, 69, 44
1, 40991, Control_c, 0, 64, 66
1, 41005, Note_on_c, 0, 77, 58
1, 41006, Control_c, 0, 64, 0
1, 41021, Control_c, 0, 64, 38
1, 41023, Note_on_c, 0, 81, 74
1, 41023, Note_off_c, 0, 69, 64
1, 41029, Note_on_c, 0, 49, 42
1, 41043, Control_c, 0, 64, 58
1, 41044, Note_on_c, 0, 37, 50
1, 41058, Note_off_c, 0, 77, 63
1, 41058, Control_c, 0, 64, 64
1, 41073, Control_c, 0, 64, 69
1, 41088, Control_c, 0, 64, 74
1, 41089, Note_off_c, 0, 81, 63
1, 41091, Note_off_c, 0, 37, 62
1, 41095, Note_off_c, 0, 49, 63
1, 41102, Control_c, 0, 64, 77
1, 41117, Control_c, 0, 64, 80
1, 41132, Control_c, 0, 64, 82
1, 41147, Control_c, 0, 64, 84
1, 41162, Control_c, 0, 64, 87
1, 41176, Control_c, 0, 64, 88
1, 41191, Control_c, 0, 64, 88
1, 41206, Control_c, 0, 64, 89
1, 41220, Control_c, 0, 64, 89
1, 41294, Control_c, 0, 64, 90
1, 41354, Control_c, 0, 64, 90
1, 41369, Control_c, 0, 64, 91
1, 41377, Note_on_c, 0, 65, 49
1, 41381, Note_on_c, 0, 69, 56
1, 41384, Note_on_c, 0, 61, 42
1, 41384, Control_c, 0, 64, 92
1, 41403, Note_off_c, 0, 69, 62
1, 41404, Note_off_c, 0, 65, 58
1, 41413, Control_c, 0, 64, 92
1, 41414, Note_off_c, 0, 61, 50
1, 41473, Control_c, 0, 64, 93
1, 41482, Note_on_c, 0, 65, 61
1, 41495, Note_on_c, 0, 61, 44
1, 41502, Note_off_c, 0, 65, 63
1, 41503, Control_c, 0, 64, 93
1, 41507, Note_on_c, 0, 73, 52
1, 41521, Note_off_c, 0, 61, 56
1, 41529, Note_off_c, 0, 73, 61
1, 41577, Note_on_c, 0, 65, 60
1, 41584, Note_on_c, 0, 77, 76
1, 41595, Note_off_c, 0, 65, 66
1, 41596, Note_on_c, 0, 61, 46
1, 41617, Note_off_c, 0, 77, 54
1, 41628, Note_off_c, 0, 61, 52
1, 41666, Control_c, 0, 64, 94
1, 41669, Note_on_c, 0, 65, 72
1, 41691, Note_on_c, 0, 61, 52
1, 41713, Note_off_c, 0, 61, 60
1, 41714, Note_off_c, 0, 65, 62
1, 41755, Control_c, 0, 64, 93
1, 41778, Note_on_c, 0, 69, 79
1, 41779, Note_on_c, 0, 65, 47
1, 41780, Note_on_c, 0, 61, 66
1, 41806, Note_off_c, 0, 65, 61
1, 41809, Note_off_c, 0, 61, 63
1, 41829, Note_off_c, 0, 69, 48
1, 41836, Control_c, 0, 64, 91
1, 41851, Control_c, 0, 64, 86
1, 41866, Control_c, 0, 64, 76
1, 41875, Note_on_c, 0, 65, 54
1, 41880, Note_on_c, 0, 73, 79
1, 41881, Control_c, 0, 64, 56
1, 41882, Note_on_c, 0, 61, 64
1, 41896, Control_c, 0, 64, 0
1, 41925, Control_c, 0, 64, 19
1, 41940, Control_c, 0, 64, 49
1, 41955, Control_c, 0, 64, 62
1, 41965, Note_off_c, 0, 65, 61
1, 41970, Control_c, 0, 64, 67
1, 41985, Control_c, 0, 64, 70
1, 41999, Control_c, 0, 64, 73
1, 42014, Control_c, 0, 64, 76
1, 42022, Note_off_c, 0, 61, 63
1, 42029, Control_c, 0, 64, 80
1, 42043, Control_c, 0, 64, 84
1, 42058, Control_c, 0, 64, 88
1, 42073, Control_c, 0, 64, 91
1, 42088, Control_c, 0, 64, 93
1, 42103, Control_c, 0, 64, 96
1, 42117, Control_c, 0, 64, 98
1, 42132, Control_c, 0, 64, 100
1, 42311, Control_c, 0, 64, 99
1, 42326, Control_c, 0, 64, 99
1, 42341, Control_c, 0, 64, 97
1, 42355, Control_c, 0, 64, 97
1, 42370, Control_c, 0, 64, 96
1, 42385, Control_c, 0, 64, 94
1, 42400, Control_c, 0, 64, 91
1, 42408, Note_off_c, 0, 73, 53
1, 42413, Note_on_c, 0, 69, 35
1, 42415, Control_c, 0, 64, 86
1, 42418, Note_on_c, 0, 78, 54
1, 42424, Note_on_c, 0, 25, 39
1, 42425, Note_on_c, 0, 66, 34
1, 42430, Control_c, 0, 64, 77
1, 42432, Note_on_c, 0, 37, 29
1, 42445, Control_c, 0, 64, 65
1, 42459, Control_c, 0, 64, 42
1, 42474, Control_c, 0, 64, 56
1, 42489, Control_c, 0, 64, 62
1, 42504, Control_c, 0, 64, 63
1, 42519, Control_c, 0, 64, 64
1, 42540, Control_c, 0, 64, 66
1, 42555, Control_c, 0, 64, 68
1, 42570, Control_c, 0, 64, 71
1, 42585, Control_c, 0, 64, 74
1, 42600, Control_c, 0, 64, 75
1, 42615, Control_c, 0, 64, 77
1, 42630, Control_c, 0, 64, 79
1, 42633, Note_off_c, 0, 25, 56
1, 42645, Control_c, 0, 64, 83
1, 42659, Control_c, 0, 64, 86
1, 42674, Control_c, 0, 64, 88
1, 42689, Control_c, 0, 64, 89
1, 42704, Control_c, 0, 64, 90
1, 42719, Control_c, 0, 64, 91
1, 42730, Note_off_c, 0, 37, 50
1, 42835, Note_off_c, 0, 66, 37
1, 42852, Control_c, 0, 64, 90
1, 42866, Control_c, 0, 64, 87
1, 42868, Note_on_c, 0, 30, 45
1, 42873, Note_on_c, 0, 42, 49
1, 42881, Control_c, 0, 64, 82
1, 42896, Control_c, 0, 64, 75
1, 42911, Control_c, 0, 64, 68
1, 42940, Control_c, 0, 64, 69
1, 42951, Note_off_c, 0, 78, 33
1, 42955, Control_c, 0, 64, 70
1, 42964, Note_off_c, 0, 69, 43
1, 42970, Control_c, 0, 64, 71
1, 42984, Control_c, 0, 64, 72
1, 42999, Control_c, 0, 64, 75
1, 43014, Control_c, 0, 64, 79
1, 43029, Control_c, 0, 64, 81
1, 43044, Control_c, 0, 64, 83
1, 43060, Control_c, 0, 64, 86
1, 43075, Control_c, 0, 64, 89
1, 43089, Control_c, 0, 64, 93
1, 43104, Control_c, 0, 64, 96
1, 43119, Control_c, 0, 64, 98
1, 43120, Note_off_c, 0, 30, 52
1, 43121, Note_off_c, 0, 42, 62
1, 43163, Control_c, 0, 64, 98
1, 43223, Control_c, 0, 64, 98
1, 43252, Control_c, 0, 64, 96
1, 43267, Control_c, 0, 64, 92
1, 43288, Control_c, 0, 64, 83
1, 43290, Note_on_c, 0, 33, 50
1, 43295, Note_on_c, 0, 45, 52
1, 43303, Control_c, 0, 64, 70
1, 43318, Control_c, 0, 64, 62
1, 43333, Control_c, 0, 64, 64
1, 43348, Control_c, 0, 64, 66
1, 43363, Control_c, 0, 64, 68
1, 43378, Control_c, 0, 64, 71
1, 43393, Control_c, 0, 64, 75
1, 43405, Note_off_c, 0, 33, 61
1, 43408, Control_c, 0, 64, 80
1, 43415, Note_off_c, 0, 45, 65
1, 43423, Control_c, 0, 64, 83
1, 43437, Control_c, 0, 64, 85
1, 43452, Control_c, 0, 64, 88
1, 43467, Control_c, 0, 64, 90
1, 43482, Control_c, 0, 64, 91
1, 43496, Control_c, 0, 64, 91
1, 43511, Control_c, 0, 64, 92
1, 43541, Control_c, 0, 64, 92
1, 43556, Control_c, 0, 64, 93
1, 43570, Control_c, 0, 64, 93
1, 43585, Control_c, 0, 67, 127
1, 43595, Note_on_c, 0, 49, 49
1, 43621, Note_on_c, 0, 37, 10
1, 43629, Note_off_c, 0, 49, 52
1, 43629, Control_c, 0, 67, 126
1, 43673, Note_off_c, 0, 37, 51
1, 43674, Control_c, 0, 64, 91
1, 43674, Control_c, 0, 67, 127
1, 43687, Note_on_c, 0, 74, 61
1, 43688, Control_c, 0, 64, 84
1, 43703, Control_c, 0, 64, 71
1, 43718, Control_c, 0, 64, 0
1, 43729, Note_on_c, 0, 78, 54
1, 43730, Note_off_c, 0, 74, 63
1, 43738, Note_on_c, 0, 81, 67
1, 43759, Note_on_c, 0, 49, 45
1, 43762, Control_c, 0, 64, 24
1, 43762, Control_c, 0, 67, 126
1, 43763, Note_on_c, 0, 86, 77
1, 43768, Note_off_c, 0, 78, 63
1, 43772, Note_on_c, 0, 37, 62
1, 43777, Control_c, 0, 64, 58
1, 43792, Control_c, 0, 64, 66
1, 43793, Note_off_c, 0, 81, 64
1, 43807, Control_c, 0, 64, 72
1, 43810, Note_off_c, 0, 37, 64
1, 43816, Note_off_c, 0, 86, 62
1, 43822, Control_c, 0, 64, 77
1, 43822, Control_c, 0, 67, 126
1, 43824, Note_off_c, 0, 49, 64
1, 43837, Control_c, 0, 64, 81
1, 43852, Control_c, 0, 64, 84
1, 43852, Control_c, 0, 67, 125
1, 43867, Control_c, 0, 64, 87
1, 43867, Control_c, 0, 67, 124
1, 43882, Control_c, 0, 64, 90
1, 43882, Control_c, 0, 67, 123
1, 43897, Control_c, 0, 64, 92
1, 43897, Control_c, 0, 67, 122
1, 43911, Control_c, 0, 64, 92
1, 43911, Control_c, 0, 67, 121
1, 43926, Control_c, 0, 67, 121
1, 43956, Control_c, 0, 67, 120
1, 43971, Control_c, 0, 67, 119
1, 43986, Control_c, 0, 67, 117
1, 44001, Control_c, 0, 67, 116
1, 44016, Control_c, 0, 67, 115
1, 44037, Control_c, 0, 67, 113
1, 44052, Control_c, 0, 67, 112
1, 44067, Control_c, 0, 64, 93
1, 44067, Control_c, 0, 67, 111
1, 44082, Control_c, 0, 67, 110
1, 44097, Control_c, 0, 67, 110
1, 44112, Control_c, 0, 67, 109
1, 44119, Note_on_c, 0, 66, 60
1, 44121, Note_on_c, 0, 74, 65
1, 44126, Control_c, 0, 67, 109
1, 44132, Note_on_c, 0, 62, 44
1, 44133, Note_on_c, 0, 61, 44
1, 44140, Note_off_c, 0, 66, 65
1, 44148, Note_off_c, 0, 74, 69
1, 44159, Note_off_c, 0, 62, 56
1, 44162, Note_off_c, 0, 61, 54
1, 44171, Control_c, 0, 67, 108
1, 44186, Control_c, 0, 67, 108
1, 44201, Control_c, 0, 67, 107
1, 44216, Note_on_c, 0, 66, 66
1, 44229, Note_on_c, 0, 78, 70
1, 44240, Note_off_c, 0, 66, 67
1, 44241, Note_on_c, 0, 61, 46
1, 44250, Note_off_c, 0, 78, 63
1, 44255, Note_on_c, 0, 62, 22
1, 44260, Control_c, 0, 67, 107
1, 44267, Note_off_c, 0, 61, 56
1, 44289, Note_off_c, 0, 62, 0
1, 44290, Control_c, 0, 67, 106
1, 44316, Note_on_c, 0, 66, 70
1, 44317, Note_on_c, 0, 62, 35
1, 44323, Note_on_c, 0, 81, 74
1, 44335, Note_on_c, 0, 61, 48
1, 44335, Note_off_c, 0, 66, 66
1, 44349, Note_off_c, 0, 62, 58
1, 44357, Note_off_c, 0, 81, 54
1, 44368, Note_off_c, 0, 61, 49
1, 44400, Note_on_c, 0, 66, 65
1, 44411, Note_on_c, 0, 69, 78
1, 44420, Note_on_c, 0, 62, 64
1, 44427, Note_on_c, 0, 61, 56
1, 44436, Note_off_c, 0, 69, 66
1, 44437, Note_off_c, 0, 66, 62
1, 44449, Note_off_c, 0, 62, 65
1, 44452, Control_c, 0, 67, 106
1, 44456, Note_off_c, 0, 61, 62
1, 44502, Note_on_c, 0, 74, 80
1, 44506, Note_on_c, 0, 66, 62
1, 44511, Control_c, 0, 64, 92
1, 44517, Note_on_c, 0, 61, 50
1, 44521, Note_on_c, 0, 62, 56
1, 44523, Note_off_c, 0, 66, 67
1, 44526, Control_c, 0, 64, 90
1, 44541, Note_off_c, 0, 62, 63
1, 44541, Control_c, 0, 64, 85
1, 44544, Note_off_c, 0, 61, 65
1, 44547, Note_off_c, 0, 74, 62
1, 44556, Control_c, 0, 64, 74
1, 44571, Control_c, 0, 64, 59
1, 44585, Control_c, 0, 64, 0
1, 44600, Control_c, 0, 64, 32
1, 44600, Control_c, 0, 67, 105
1, 44606, Note_on_c, 0, 78, 76
1, 44613, Note_on_c, 0, 62, 58
1, 44613, Note_on_c, 0, 66, 48
1, 44615, Note_on_c, 0, 61, 61
1, 44615, Control_c, 0, 64, 49
1, 44630, Control_c, 0, 64, 55
1, 44645, Control_c, 0, 64, 62
1, 44660, Control_c, 0, 64, 66
1, 44675, Control_c, 0, 64, 69
1, 44689, Control_c, 0, 64, 72
1, 44689, Control_c, 0, 67, 105
1, 44702, Note_off_c, 0, 66, 62
1, 44704, Control_c, 0, 64, 74
1, 44719, Control_c, 0, 64, 77
1, 44719, Control_c, 0, 67, 104
1, 44728, Note_off_c, 0, 62, 58
1, 44734, Control_c, 0, 64, 81
1, 44749, Control_c, 0, 64, 85
1, 44749, Control_c, 0, 67, 104
1, 44752, Note_off_c, 0, 61, 60
1, 44764, Control_c, 0, 64, 88
1, 44786, Control_c, 0, 64, 90
1, 44786, Control_c, 0, 67, 102
1, 44800, Note_off_c, 0, 78, 61
1, 44801, Control_c, 0, 64, 92
1, 44801, Control_c, 0, 67, 99
1, 44815, Control_c, 0, 64, 95
1, 44815, Control_c, 0, 67, 96
1, 44830, Control_c, 0, 64, 96
1, 44830, Control_c, 0, 67, 92
1, 44845, Control_c, 0, 64, 96
1, 44845, Control_c, 0, 67, 90
1, 44859, Control_c, 0, 67, 88
1, 44874, Control_c, 0, 67, 86
1, 44889, Control_c, 0, 67, 84
1, 44904, Control_c, 0, 67, 83
1, 44919, Control_c, 0, 67, 82
1, 44934, Control_c, 0, 67, 81
1, 44949, Control_c, 0, 67, 80
1, 44964, Control_c, 0, 67, 78
1, 44979, Control_c, 0, 67, 77
1, 44994, Control_c, 0, 67, 76
1, 45008, Control_c, 0, 67, 75
1, 45023, Control_c, 0, 67, 74
1, 45038, Control_c, 0, 67, 73
1, 45053, Control_c, 0, 67, 71
1, 45067, Control_c, 0, 67, 70
1, 45082, Control_c, 0, 67, 70
1, 45097, Control_c, 0, 67, 69
1, 45099, Note_on_c, 0, 75, 43
1, 45112, Control_c, 0, 67, 69
1, 45127, Control_c, 0, 64, 95
1, 45127, Control_c, 0, 67, 68
1, 45137, Note_off_c, 0, 75, 48
1, 45141, Control_c, 0, 64, 95
1, 45141, Control_c, 0, 67, 67
1, 45148, Note_on_c, 0, 78, 51
1, 45156, Control_c, 0, 67, 66
1, 45171, Control_c, 0, 64, 94
1, 45171, Control_c, 0, 67, 65
1, 45186, Control_c, 0, 64, 94
1, 45186, Control_c, 0, 67, 64
1, 45195, Note_on_c, 0, 81, 52
1, 45196, Note_off_c, 0, 78, 56
1, 45201, Control_c, 0, 64, 93
1, 45201, Control_c, 0, 67, 64
1, 45215, Control_c, 0, 64, 92
1, 45215, Control_c, 0, 67, 63
1, 45230, Control_c, 0, 64, 90
1, 45245, Control_c, 0, 64, 88
1, 45257, Note_off_c, 0, 81, 50
1, 45259, Control_c, 0, 64, 84
1, 45259, Control_c, 0, 67, 63
1, 45261, Note_on_c, 0, 87, 58
1, 45274, Note_on_c, 0, 36, 37
1, 45274, Control_c, 0, 64, 77
1, 45289, Control_c, 0, 64, 65
1, 45289, Control_c, 0, 67, 62
1, 45304, Control_c, 0, 64, 0
1, 45319, Control_c, 0, 67, 62
1, 45333, Control_c, 0, 64, 36
1, 45348, Control_c, 0, 64, 47
1, 45348, Control_c, 0, 67, 61
1, 45363, Control_c, 0, 64, 53
1, 45363, Control_c, 0, 67, 61
1, 45378, Control_c, 0, 64, 58
1, 45378, Control_c, 0, 67, 60
1, 45393, Control_c, 0, 64, 62
1, 45393, Control_c, 0, 67, 59
1, 45408, Control_c, 0, 64, 65
1, 45408, Control_c, 0, 67, 58
1, 45423, Control_c, 0, 64, 68
1, 45423, Control_c, 0, 67, 57
1, 45438, Control_c, 0, 64, 69
1, 45438, Control_c, 0, 67, 56
1, 45453, Control_c, 0, 64, 70
1, 45453, Control_c, 0, 67, 55
1, 45468, Control_c, 0, 64, 72
1, 45468, Control_c, 0, 67, 54
1, 45482, Control_c, 0, 64, 74
1, 45482, Control_c, 0, 67, 53
1, 45497, Control_c, 0, 64, 76
1, 45497, Control_c, 0, 67, 52
1, 45512, Control_c, 0, 64, 77
1, 45512, Control_c, 0, 67, 50
1, 45535, Control_c, 0, 64, 78
1, 45535, Control_c, 0, 67, 49
1, 45550, Control_c, 0, 64, 79
1, 45550, Control_c, 0, 67, 47
1, 45557, Note_off_c, 0, 87, 41
1, 45564, Control_c, 0, 64, 81
1, 45564, Control_c, 0, 67, 46
1, 45579, Control_c, 0, 64, 83
1, 45579, Control_c, 0, 67, 45
1, 45594, Control_c, 0, 64, 85
1, 45594, Control_c, 0, 67, 45
1, 45609, Control_c, 0, 64, 86
1, 45609, Control_c, 0, 67, 44
1, 45624, Control_c, 0, 64, 86
1, 45624, Control_c, 0, 67, 44
1, 45653, Control_c, 0, 64, 87
1, 45653, Control_c, 0, 67, 43
1, 45668, Control_c, 0, 64, 89
1, 45668, Control_c, 0, 67, 42
1, 45678, Note_on_c, 0, 75, 48
1, 45682, Control_c, 0, 64, 91
1, 45682, Control_c, 0, 67, 42
1, 45697, Control_c, 0, 64, 92
1, 45697, Control_c, 0, 67, 41
1, 45712, Control_c, 0, 64, 93
1, 45712, Control_c, 0, 67, 41
1, 45715, Note_off_c, 0, 75, 53
1, 45727, Control_c, 0, 67, 40
1, 45742, Control_c, 0, 67, 40
1, 45757, Control_c, 0, 64, 93
1, 45757, Control_c, 0, 67, 39
1, 45772, Control_c, 0, 64, 95
1, 45772, Control_c, 0, 67, 38
1, 45783, Note_on_c, 0, 81, 54
1, 45786, Control_c, 0, 64, 96
1, 45786, Control_c, 0, 67, 37
1, 45790, Note_on_c, 0, 42, 37
1, 45801, Control_c, 0, 64, 97
1, 45801, Control_c, 0, 67, 37
1, 45816, Control_c, 0, 64, 98
1, 45816, Control_c, 0, 67, 36
1, 45822, Note_off_c, 0, 81, 49
1, 45846, Control_c, 0, 64, 99
1, 45846, Control_c, 0, 67, 36
1, 45861, Control_c, 0, 64, 100
1, 45861, Control_c, 0, 67, 35
1, 45876, Control_c, 0, 64, 103
1, 45876, Control_c, 0, 67, 35
1, 45886, Note_on_c, 0, 84, 60
1, 45890, Control_c, 0, 64, 104
1, 45890, Control_c, 0, 67, 34
1, 45905, Control_c, 0, 64, 105
1, 45905, Control_c, 0, 67, 33
1, 45920, Control_c, 0, 64, 105
1, 45923, Note_off_c, 0, 84, 60
1, 45935, Control_c, 0, 64, 107
1, 45935, Control_c, 0, 67, 33
1, 45950, Control_c, 0, 64, 112
1, 45964, Control_c, 0, 64, 119
1, 45964, Control_c, 0, 67, 32
1, 45979, Control_c, 0, 64, 127
1, 45981, Note_on_c, 0, 72, 63
1, 46027, Note_off_c, 0, 72, 48
1, 46057, Note_on_c, 0, 75, 69
1, 46082, Control_c, 0, 67, 32
1, 46108, Note_off_c, 0, 75, 55
1, 46127, Control_c, 0, 67, 31
1, 46142, Control_c, 0, 67, 31
1, 46154, Note_on_c, 0, 78, 74
1, 46157, Control_c, 0, 67, 29
1, 46172, Control_c, 0, 67, 27
1, 46176, Note_on_c, 0, 45, 52
1, 46180, Note_off_c, 0, 78, 63
1, 46187, Control_c, 0, 67, 24
1, 46195, Note_off_c, 0, 36, 22
1, 46201, Control_c, 0, 67, 21
1, 46216, Control_c, 0, 67, 18
1, 46231, Control_c, 0, 67, 15
1, 46246, Control_c, 0, 67, 11
1, 46262, Control_c, 0, 67, 0
1, 46317, Note_off_c, 0, 45, 62
1, 46351, Note_off_c, 0, 42, 41
1, 46359, Note_on_c, 0, 48, 51
1, 46400, Note_off_c, 0, 48, 60
1, 46457, Note_on_c, 0, 78, 56
1, 46502, Note_off_c, 0, 78, 57
1, 46505, Note_on_c, 0, 84, 63
1, 46539, Note_on_c, 0, 87, 76
1, 46554, Note_off_c, 0, 84, 63
1, 46566, Control_c, 0, 64, 91
1, 46580, Control_c, 0, 64, 70
1, 46595, Control_c, 0, 64, 47
1, 46598, Note_on_c, 0, 33, 54
1, 46598, Note_on_c, 0, 90, 88
1, 46602, Note_off_c, 0, 87, 66
1, 46610, Control_c, 0, 64, 56
1, 46625, Control_c, 0, 64, 63
1, 46639, Control_c, 0, 64, 65
1, 46654, Control_c, 0, 64, 70
1, 46669, Control_c, 0, 64, 77
1, 46684, Control_c, 0, 64, 84
1, 46696, Note_off_c, 0, 90, 66
1, 46699, Control_c, 0, 64, 89
1, 46714, Control_c, 0, 64, 93
1, 46728, Control_c, 0, 64, 97
1, 46743, Control_c, 0, 64, 102
1, 46758, Control_c, 0, 64, 105
1, 46773, Control_c, 0, 64, 107
1, 46788, Control_c, 0, 64, 108
1, 46803, Control_c, 0, 64, 108
1, 46818, Control_c, 0, 64, 109
1, 46832, Control_c, 0, 64, 109
1, 46862, Control_c, 0, 64, 110
1, 46906, Control_c, 0, 64, 112
1, 46921, Control_c, 0, 64, 116
1, 46936, Control_c, 0, 64, 127
1, 46945, Note_on_c, 0, 78, 57
1, 46997, Note_off_c, 0, 78, 54
1, 47053, Note_on_c, 0, 81, 65
1, 47067, Note_on_c, 0, 39, 41
1, 47107, Note_off_c, 0, 81, 46
1, 47147, Note_on_c, 0, 84, 75
1, 47193, Note_off_c, 0, 84, 64
1, 47247, Note_on_c, 0, 72, 75
1, 47333, Note_off_c, 0, 72, 59
1, 47336, Note_on_c, 0, 75, 80
1, 47414, Note_off_c, 0, 33, 33
1, 47426, Note_off_c, 0, 75, 62
1, 47438, Note_on_c, 0, 78, 80
1, 47453, Note_on_c, 0, 42, 53
1, 47479, Note_off_c, 0, 78, 61
1, 47530, Note_on_c, 0, 81, 82
1, 47615, Note_off_c, 0, 81, 61
1, 47638, Note_on_c, 0, 84, 75
1, 47724, Note_off_c, 0, 84, 59
1, 47736, Note_on_c, 0, 87, 73
1, 47745, Note_on_c, 0, 45, 40
1, 47758, Note_off_c, 0, 42, 35
1, 47791, Note_off_c, 0, 45, 62
1, 47796, Control_c, 0, 67, 8
1, 47810, Control_c, 0, 67, 8
1, 47825, Control_c, 0, 67, 9
1, 47840, Control_c, 0, 67, 11
1, 47856, Control_c, 0, 67, 13
1, 47871, Control_c, 0, 64, 109
1, 47871, Control_c, 0, 67, 16
1, 47879, Note_off_c, 0, 87, 59
1, 47885, Control_c, 0, 64, 96
1, 47885, Control_c, 0, 67, 18
1, 47900, Control_c, 0, 64, 83
1, 47900, Control_c, 0, 67, 20
1, 47903, Note_on_c, 0, 32, 44
1, 47903, Note_on_c, 0, 93, 55
1, 47903, Note_off_c, 0, 39, 40
1, 47915, Control_c, 0, 64, 70
1, 47915, Control_c, 0, 67, 24
1, 47930, Control_c, 0, 64, 41
1, 47930, Control_c, 0, 67, 27
1, 47945, Control_c, 0, 64, 0
1, 47945, Control_c, 0, 67, 31
1, 47960, Control_c, 0, 67, 37
1, 47974, Control_c, 0, 64, 11
1, 47974, Control_c, 0, 67, 41
1, 47989, Control_c, 0, 64, 31
1, 47989, Control_c, 0, 67, 44
1, 48004, Control_c, 0, 64, 38
1, 48004, Control_c, 0, 67, 46
1, 48019, Control_c, 0, 64, 44
1, 48019, Control_c, 0, 67, 49
1, 48026, Note_on_c, 0, 90, 52
1, 48034, Control_c, 0, 64, 52
1, 48034, Control_c, 0, 67, 54
1, 48042, Note_off_c, 0, 93, 38
1, 48049, Control_c, 0, 64, 61
1, 48049, Control_c, 0, 67, 58
1, 48064, Control_c, 0, 64, 64
1, 48064, Control_c, 0, 67, 61
1, 48078, Control_c, 0, 64, 65
1, 48078, Control_c, 0, 67, 62
1, 48093, Control_c, 0, 64, 67
1, 48093, Control_c, 0, 67, 64
1, 48108, Control_c, 0, 64, 70
1, 48108, Control_c, 0, 67, 65
1, 48120, Note_off_c, 0, 90, 58
1, 48123, Control_c, 0, 64, 72
1, 48123, Control_c, 0, 67, 66
1, 48129, Note_on_c, 0, 87, 54
1, 48138, Control_c, 0, 64, 74
1, 48138, Control_c, 0, 67, 66
1, 48152, Control_c, 0, 64, 76
1, 48167, Control_c, 0, 64, 78
1, 48182, Control_c, 0, 64, 81
1, 48182, Control_c, 0, 67, 67
1, 48197, Control_c, 0, 64, 84
1, 48201, Note_off_c, 0, 87, 61
1, 48211, Control_c, 0, 64, 86
1, 48211, Control_c, 0, 67, 68
1, 48216, Note_on_c, 0, 84, 48
1, 48226, Control_c, 0, 64, 87
1, 48241, Control_c, 0, 64, 88
1, 48256, Control_c, 0, 64, 89
1, 48265, Note_off_c, 0, 84, 63
1, 48271, Control_c, 0, 64, 90
1, 48285, Control_c, 0, 64, 91
1, 48300, Control_c, 0, 64, 92
1, 48315, Control_c, 0, 64, 93
1, 48319, Note_on_c, 0, 39, 39
1, 48319, Note_on_c, 0, 81, 48
1, 48330, Control_c, 0, 64, 94
1, 48341, Note_off_c, 0, 81, 60
1, 48345, Control_c, 0, 64, 95
1, 48359, Control_c, 0, 64, 96
1, 48374, Control_c, 0, 64, 98
1, 48389, Control_c, 0, 64, 99
1, 48403, Control_c, 0, 64, 99
1, 48413, Note_off_c, 0, 32, 42
1, 48418, Control_c, 0, 64, 100
1, 48419, Note_on_c, 0, 78, 51
1, 48448, Control_c, 0, 64, 101
1, 48463, Control_c, 0, 64, 101
1, 48463, Control_c, 0, 67, 67
1, 48477, Control_c, 0, 64, 102
1, 48494, Note_off_c, 0, 78, 57
1, 48517, Note_on_c, 0, 75, 44
1, 48522, Control_c, 0, 67, 66
1, 48559, Control_c, 0, 64, 102
1, 48559, Control_c, 0, 67, 66
1, 48574, Note_off_c, 0, 75, 47
1, 48622, Note_on_c, 0, 72, 44
1, 48633, Control_c, 0, 67, 65
1, 48672, Note_off_c, 0, 72, 58
1, 48709, Note_on_c, 0, 43, 53
1, 48712, Note_on_c, 0, 69, 52
1, 48723, Control_c, 0, 67, 65
1, 48784, Note_off_c, 0, 69, 50
1, 48797, Control_c, 0, 67, 64
1, 48806, Note_on_c, 0, 72, 48
1, 48863, Note_off_c, 0, 72, 59
1, 48884, Note_on_c, 0, 75, 60
1, 48904, Note_off_c, 0, 75, 64
1, 48916, Control_c, 0, 67, 64
1, 48935, Note_off_c, 0, 43, 63
1, 48975, Note_on_c, 0, 44, 50
1, 48987, Note_on_c, 0, 81, 59
1, 49011, Note_off_c, 0, 44, 64
1, 49027, Note_off_c, 0, 81, 57
1, 49065, Note_off_c, 0, 39, 34
1, 49086, Note_on_c, 0, 93, 59
1, 49094, Control_c, 0, 64, 99
1, 49108, Control_c, 0, 64, 93
1, 49111, Note_on_c, 0, 32, 50
1, 49123, Control_c, 0, 64, 83
1, 49138, Control_c, 0, 64, 70
1, 49154, Control_c, 0, 64, 37
1, 49169, Control_c, 0, 64, 0
1, 49183, Control_c, 0, 64, 43
1, 49188, Note_on_c, 0, 90, 58
1, 49198, Control_c, 0, 64, 52
1, 49211, Note_off_c, 0, 93, 38
1, 49213, Control_c, 0, 64, 59
1, 49227, Control_c, 0, 64, 63
1, 49242, Control_c, 0, 64, 66
1, 49257, Control_c, 0, 64, 68
1, 49280, Note_off_c, 0, 90, 58
1, 49280, Control_c, 0, 64, 70
1, 49290, Note_on_c, 0, 87, 50
1, 49295, Control_c, 0, 64, 71
1, 49309, Control_c, 0, 64, 73
1, 49324, Control_c, 0, 64, 75
1, 49339, Control_c, 0, 64, 77
1, 49354, Control_c, 0, 64, 78
1, 49365, Note_off_c, 0, 87, 55
1, 49369, Control_c, 0, 64, 80
1, 49383, Control_c, 0, 64, 81
1, 49384, Note_on_c, 0, 84, 42
1, 49398, Control_c, 0, 64, 82
1, 49413, Control_c, 0, 64, 83
1, 49427, Control_c, 0, 64, 85
1, 49428, Note_off_c, 0, 84, 63
1, 49442, Control_c, 0, 64, 86
1, 49458, Control_c, 0, 64, 87
1, 49473, Control_c, 0, 64, 88
1, 49477, Note_on_c, 0, 81, 48
1, 49480, Note_on_c, 0, 39, 50
1, 49488, Control_c, 0, 64, 89
1, 49503, Control_c, 0, 64, 90
1, 49512, Note_off_c, 0, 81, 60
1, 49518, Control_c, 0, 64, 91
1, 49532, Control_c, 0, 64, 92
1, 49547, Control_c, 0, 64, 93
1, 49562, Control_c, 0, 64, 95
1, 49573, Note_off_c, 0, 32, 55
1, 49577, Control_c, 0, 64, 95
1, 49590, Note_on_c, 0, 78, 44
1, 49636, Control_c, 0, 64, 96
1, 49650, Control_c, 0, 64, 96
1, 49675, Note_on_c, 0, 75, 50
1, 49688, Note_off_c, 0, 78, 36
1, 49728, Note_off_c, 0, 75, 53
1, 49754, Control_c, 0, 67, 63
1, 49771, Note_on_c, 0, 72, 47
1, 49814, Control_c, 0, 64, 97
1, 49826, Note_off_c, 0, 72, 56
1, 49865, Note_on_c, 0, 69, 52
1, 49867, Note_on_c, 0, 43, 63
1, 49930, Note_off_c, 0, 69, 49
1, 49949, Note_on_c, 0, 72, 50
1, 50031, Note_off_c, 0, 72, 59
1, 50052, Note_on_c, 0, 75, 56
1, 50075, Note_off_c, 0, 75, 60
1, 50097, Note_off_c, 0, 43, 64
1, 50136, Note_on_c, 0, 44, 56
1, 50143, Note_off_c, 0, 39, 28
1, 50167, Note_on_c, 0, 81, 55
1, 50206, Note_off_c, 0, 44, 63
1, 50213, Note_off_c, 0, 81, 55
1, 50236, Control_c, 0, 64, 96
1, 50236, Control_c, 0, 67, 64
1, 50252, Control_c, 0, 64, 95
1, 50265, Note_on_c, 0, 91, 57
1, 50267, Control_c, 0, 64, 90
1, 50268, Note_on_c, 0, 32, 53
1, 50281, Control_c, 0, 64, 79
1, 50296, Control_c, 0, 64, 65
1, 50311, Control_c, 0, 64, 0
1, 50358, Note_off_c, 0, 91, 49
1, 50380, Note_on_c, 0, 88, 46
1, 50414, Control_c, 0, 64, 45
1, 50429, Control_c, 0, 64, 55
1, 50444, Control_c, 0, 64, 61
1, 50444, Control_c, 0, 67, 63
1, 50459, Control_c, 0, 64, 64
1, 50462, Note_on_c, 0, 85, 53
1, 50464, Note_off_c, 0, 88, 48
1, 50473, Control_c, 0, 64, 66
1, 50488, Control_c, 0, 64, 67
1, 50503, Control_c, 0, 64, 69
1, 50518, Control_c, 0, 64, 70
1, 50533, Control_c, 0, 64, 72
1, 50534, Note_off_c, 0, 85, 58
1, 50546, Note_on_c, 0, 82, 57
1, 50547, Control_c, 0, 64, 73
1, 50562, Control_c, 0, 64, 74
1, 50577, Control_c, 0, 64, 75
1, 50592, Control_c, 0, 64, 76
1, 50595, Note_off_c, 0, 82, 57
1, 50607, Control_c, 0, 64, 77
1, 50621, Control_c, 0, 64, 78
1, 50636, Control_c, 0, 64, 79
1, 50647, Note_on_c, 0, 37, 59
1, 50651, Note_on_c, 0, 79, 38
1, 50651, Control_c, 0, 64, 80
1, 50679, Note_off_c, 0, 79, 52
1, 50711, Control_c, 0, 64, 81
1, 50726, Control_c, 0, 64, 82
1, 50741, Control_c, 0, 64, 82
1, 50759, Note_on_c, 0, 76, 49
1, 50806, Note_off_c, 0, 32, 47
1, 50806, Control_c, 0, 64, 83
1, 50832, Note_off_c, 0, 76, 58
1, 50855, Note_on_c, 0, 73, 53
1, 50881, Control_c, 0, 64, 83
1, 50902, Note_off_c, 0, 73, 57
1, 50936, Note_on_c, 0, 70, 44
1, 50985, Control_c, 0, 64, 82
1, 50986, Note_off_c, 0, 70, 60
1, 50999, Control_c, 0, 64, 81
1, 51014, Control_c, 0, 64, 80
1, 51036, Note_on_c, 0, 43, 65
1, 51038, Note_on_c, 0, 67, 37
1, 51060, Control_c, 0, 64, 81
1, 51075, Control_c, 0, 64, 82
1, 51084, Note_off_c, 0, 67, 56
1, 51089, Control_c, 0, 64, 83
1, 51104, Control_c, 0, 64, 84
1, 51119, Control_c, 0, 64, 85
1, 51121, Note_on_c, 0, 70, 47
1, 51134, Control_c, 0, 64, 86
1, 51149, Control_c, 0, 64, 87
1, 51164, Control_c, 0, 64, 89
1, 51166, Note_off_c, 0, 37, 36
1, 51172, Note_off_c, 0, 70, 58
1, 51178, Control_c, 0, 64, 90
1, 51193, Control_c, 0, 64, 91
1, 51220, Note_on_c, 0, 73, 52
1, 51244, Note_off_c, 0, 73, 58
1, 51287, Note_off_c, 0, 43, 64
1, 51319, Note_on_c, 0, 44, 58
1, 51333, Note_on_c, 0, 76, 46
1, 51363, Note_off_c, 0, 76, 54
1, 51373, Note_off_c, 0, 44, 62
1, 51400, Control_c, 0, 67, 64
1, 51415, Control_c, 0, 64, 89
1, 51426, Note_on_c, 0, 91, 64
1, 51429, Control_c, 0, 64, 84
1, 51444, Control_c, 0, 64, 75
1, 51447, Note_on_c, 0, 32, 50
1, 51459, Control_c, 0, 64, 63
1, 51474, Control_c, 0, 64, 0
1, 51489, Control_c, 0, 67, 64
1, 51504, Control_c, 0, 64, 24
1, 51513, Note_off_c, 0, 91, 56
1, 51526, Control_c, 0, 64, 36
1, 51541, Note_on_c, 0, 88, 51
1, 51541, Control_c, 0, 64, 46
1, 51556, Control_c, 0, 64, 54
1, 51571, Control_c, 0, 64, 62
1, 51585, Control_c, 0, 64, 64
1, 51585, Control_c, 0, 67, 64
1, 51600, Control_c, 0, 64, 65
1, 51615, Control_c, 0, 64, 66
1, 51623, Note_off_c, 0, 88, 62
1, 51629, Control_c, 0, 64, 66
1, 51631, Note_on_c, 0, 85, 55
1, 51644, Control_c, 0, 64, 68
1, 51659, Control_c, 0, 64, 69
1, 51674, Control_c, 0, 64, 70
1, 51689, Control_c, 0, 64, 71
1, 51704, Control_c, 0, 64, 72
1, 51705, Note_off_c, 0, 85, 62
1, 51718, Note_on_c, 0, 82, 56
1, 51718, Control_c, 0, 64, 73
1, 51733, Control_c, 0, 64, 74
1, 51748, Control_c, 0, 64, 75
1, 51763, Control_c, 0, 64, 76
1, 51763, Control_c, 0, 67, 63
1, 51774, Note_off_c, 0, 82, 57
1, 51778, Control_c, 0, 64, 77
1, 51793, Control_c, 0, 64, 78
1, 51808, Control_c, 0, 64, 79
1, 51813, Note_on_c, 0, 37, 55
1, 51817, Note_on_c, 0, 79, 52
1, 51822, Control_c, 0, 64, 81
1, 51837, Control_c, 0, 64, 82
1, 51839, Note_off_c, 0, 79, 62
1, 51853, Control_c, 0, 64, 83
1, 51897, Control_c, 0, 64, 84
1, 51912, Control_c, 0, 64, 85
1, 51924, Note_on_c, 0, 76, 47
1, 51927, Control_c, 0, 64, 86
1, 51942, Control_c, 0, 64, 86
1, 51969, Note_off_c, 0, 32, 46
1, 51972, Control_c, 0, 64, 87
1, 51987, Control_c, 0, 64, 87
1, 52001, Control_c, 0, 64, 88
1, 52004, Note_off_c, 0, 76, 47
1, 52014, Note_on_c, 0, 73, 59
1, 52016, Control_c, 0, 64, 89
1, 52083, Note_off_c, 0, 73, 41
1, 52090, Control_c, 0, 64, 89
1, 52104, Note_on_c, 0, 70, 49
1, 52153, Note_off_c, 0, 70, 60
1, 52192, Note_on_c, 0, 43, 60
1, 52204, Note_on_c, 0, 67, 48
1, 52260, Note_off_c, 0, 67, 52
1, 52298, Note_on_c, 0, 70, 46
1, 52311, Note_off_c, 0, 37, 32
1, 52379, Note_off_c, 0, 70, 61
1, 52400, Note_on_c, 0, 73, 52
1, 52423, Note_off_c, 0, 73, 62
1, 52430, Note_off_c, 0, 43, 63
1, 52483, Note_on_c, 0, 44, 48
1, 52513, Control_c, 0, 67, 64
1, 52521, Note_off_c, 0, 44, 61
1, 52529, Note_on_c, 0, 76, 27
1, 52568, Note_off_c, 0, 76, 43
1, 52571, Control_c, 0, 64, 89
1, 52586, Control_c, 0, 64, 87
1, 52586, Control_c, 0, 67, 64
1, 52601, Control_c, 0, 64, 83
1, 52616, Control_c, 0, 64, 73
1, 52631, Control_c, 0, 64, 62
1, 52647, Control_c, 0, 64, 0
1, 52651, Note_on_c, 0, 32, 37
1, 52652, Note_on_c, 0, 90, 47
1, 52706, Control_c, 0, 64, 23
1, 52721, Control_c, 0, 64, 40
1, 52736, Control_c, 0, 64, 52
1, 52740, Note_on_c, 0, 87, 55
1, 52750, Control_c, 0, 64, 59
1, 52765, Control_c, 0, 64, 63
1, 52780, Control_c, 0, 64, 64
1, 52795, Control_c, 0, 64, 65
1, 52809, Control_c, 0, 64, 66
1, 52820, Note_off_c, 0, 90, 37
1, 52824, Control_c, 0, 64, 68
1, 52833, Note_off_c, 0, 87, 57
1, 52835, Note_on_c, 0, 84, 51
1, 52839, Control_c, 0, 64, 69
1, 52854, Control_c, 0, 64, 70
1, 52869, Control_c, 0, 64, 71
1, 52881, Note_off_c, 0, 84, 59
1, 52884, Control_c, 0, 64, 73
1, 52898, Control_c, 0, 64, 74
1, 52913, Control_c, 0, 64, 76
1, 52920, Note_on_c, 0, 81, 61
1, 52928, Control_c, 0, 64, 77
1, 52942, Control_c, 0, 64, 78
1, 52957, Control_c, 0, 64, 79
1, 52963, Note_off_c, 0, 81, 60
1, 52972, Control_c, 0, 64, 81
1, 52986, Control_c, 0, 64, 82
1, 53001, Control_c, 0, 64, 83
1, 53024, Control_c, 0, 64, 84
1, 53025, Note_on_c, 0, 39, 47
1, 53035, Note_on_c, 0, 78, 53
1, 53054, Control_c, 0, 64, 84
1, 53068, Control_c, 0, 64, 85
1, 53083, Control_c, 0, 64, 85
1, 53098, Control_c, 0, 64, 86
1, 53133, Note_on_c, 0, 75, 55
1, 53137, Note_off_c, 0, 78, 49
1, 53151, Note_off_c, 0, 32, 57
1, 53201, Control_c, 0, 64, 85
1, 53202, Note_off_c, 0, 75, 60
1, 53221, Note_on_c, 0, 72, 51
1, 53268, Note_off_c, 0, 72, 57
1, 53290, Control_c, 0, 67, 64
1, 53310, Note_on_c, 0, 69, 51
1, 53364, Control_c, 0, 64, 85
1, 53375, Note_off_c, 0, 69, 43
1, 53379, Control_c, 0, 64, 83
1, 53394, Control_c, 0, 64, 80
1, 53408, Note_on_c, 0, 66, 53
1, 53409, Control_c, 0, 64, 78
1, 53410, Note_on_c, 0, 43, 57
1, 53469, Control_c, 0, 64, 79
1, 53484, Control_c, 0, 64, 80
1, 53498, Control_c, 0, 64, 80
1, 53509, Note_off_c, 0, 66, 58
1, 53511, Note_on_c, 0, 63, 50
1, 53513, Control_c, 0, 64, 81
1, 53528, Control_c, 0, 64, 82
1, 53593, Note_off_c, 0, 63, 60
1, 53602, Control_c, 0, 64, 83
1, 53614, Note_on_c, 0, 60, 33
1, 53617, Control_c, 0, 64, 83
1, 53656, Note_off_c, 0, 60, 59
1, 53669, Note_off_c, 0, 43, 63
1, 53686, Note_on_c, 0, 57, 51
1, 53693, Note_on_c, 0, 44, 61
1, 53725, Note_off_c, 0, 39, 31
1, 53739, Note_off_c, 0, 44, 61
1, 53772, Control_c, 0, 64, 83
1, 53784, Note_off_c, 0, 57, 34
1, 53787, Control_c, 0, 64, 82
1, 53802, Control_c, 0, 64, 80
1, 53804, Note_on_c, 0, 66, 46
1, 53808, Note_on_c, 0, 32, 51
1, 53817, Control_c, 0, 64, 75
1, 53832, Control_c, 0, 64, 68
1, 53847, Control_c, 0, 64, 38
1, 53862, Control_c, 0, 64, 0
1, 53877, Control_c, 0, 64, 34
1, 53892, Control_c, 0, 64, 50
1, 53895, Note_on_c, 0, 63, 56
1, 53906, Control_c, 0, 64, 58
1, 53921, Control_c, 0, 64, 62
1, 53925, Note_off_c, 0, 66, 37
1, 53936, Control_c, 0, 64, 64
1, 53951, Control_c, 0, 64, 64
1, 53965, Control_c, 0, 64, 66
1, 53980, Control_c, 0, 64, 67
1, 53988, Note_off_c, 0, 63, 53
1, 53995, Control_c, 0, 64, 68
1, 53999, Note_on_c, 0, 60, 46
1, 54010, Control_c, 0, 64, 69
1, 54024, Control_c, 0, 64, 70
1, 54039, Control_c, 0, 64, 71
1, 54044, Note_off_c, 0, 60, 64
1, 54054, Control_c, 0, 64, 73
1, 54069, Control_c, 0, 64, 74
1, 54083, Note_on_c, 0, 57, 48
1, 54084, Control_c, 0, 64, 75
1, 54098, Control_c, 0, 64, 76
1, 54113, Control_c, 0, 64, 77
1, 54145, Note_off_c, 0, 57, 50
1, 54173, Note_on_c, 0, 39, 43
1, 54193, Note_on_c, 0, 54, 48
1, 54291, Note_off_c, 0, 32, 46
1, 54298, Note_on_c, 0, 51, 46
1, 54307, Control_c, 0, 64, 76
1, 54312, Note_off_c, 0, 54, 39
1, 54390, Note_off_c, 0, 51, 55
1, 54397, Note_on_c, 0, 48, 47
1, 54410, Control_c, 0, 64, 76
1, 54452, Note_off_c, 0, 48, 59
1, 54455, Control_c, 0, 64, 75
1, 54477, Note_on_c, 0, 45, 48
1, 54485, Control_c, 0, 64, 75
1, 54500, Control_c, 0, 64, 74
1, 54521, Control_c, 0, 64, 73
1, 54530, Note_off_c, 0, 45, 61
1, 54536, Control_c, 0, 64, 72
1, 54551, Control_c, 0, 64, 71
1, 54566, Control_c, 0, 64, 70
1, 54580, Control_c, 0, 64, 67
1, 54595, Note_on_c, 0, 43, 53
1, 54595, Control_c, 0, 64, 64
1, 54610, Control_c, 0, 64, 55
1, 54625, Control_c, 0, 64, 0
1, 54714, Control_c, 0, 64, 14
1, 54729, Control_c, 0, 64, 32
1, 54744, Control_c, 0, 64, 47
1, 54759, Control_c, 0, 64, 59
1, 54773, Control_c, 0, 64, 63
1, 54788, Control_c, 0, 64, 64
1, 54803, Control_c, 0, 64, 65
1, 54803, Control_c, 0, 67, 63
1, 54818, Control_c, 0, 64, 66
1, 54833, Control_c, 0, 64, 67
1, 54847, Control_c, 0, 64, 69
1, 54862, Control_c, 0, 64, 71
1, 54866, Note_off_c, 0, 43, 62
1, 54867, Note_off_c, 0, 39, 36
1, 54877, Control_c, 0, 64, 72
1, 54892, Control_c, 0, 64, 73
1, 54907, Control_c, 0, 64, 73
1, 54908, Note_on_c, 0, 44, 50
1, 54921, Control_c, 0, 64, 74
1, 54951, Control_c, 0, 64, 74
1, 54965, Control_c, 0, 64, 75
1, 54980, Control_c, 0, 64, 76
1, 55056, Control_c, 0, 64, 75
1, 55079, Note_on_c, 0, 54, 43
1, 55085, Control_c, 0, 64, 75
1, 55099, Note_on_c, 0, 32, 39
1, 55100, Control_c, 0, 64, 74
1, 55127, Note_off_c, 0, 44, 34
1, 55130, Control_c, 0, 64, 73
1, 55144, Control_c, 0, 64, 73
1, 55159, Control_c, 0, 64, 72
1, 55174, Control_c, 0, 64, 72
1, 55179, Note_on_c, 0, 51, 49
1, 55188, Control_c, 0, 64, 71
1, 55203, Control_c, 0, 64, 69
1, 55218, Control_c, 0, 64, 67
1, 55227, Note_off_c, 0, 54, 37
1, 55233, Control_c, 0, 64, 66
1, 55248, Control_c, 0, 64, 66
1, 55270, Control_c, 0, 64, 65
1, 55274, Note_on_c, 0, 48, 44
1, 55287, Note_off_c, 0, 51, 54
1, 55300, Control_c, 0, 64, 64
1, 55315, Control_c, 0, 64, 63
1, 55330, Control_c, 0, 64, 63
1, 55351, Note_off_c, 0, 48, 59
1, 55362, Note_on_c, 0, 45, 52
1, 55374, Control_c, 0, 64, 62
1, 55389, Control_c, 0, 64, 61
1, 55440, Note_off_c, 0, 45, 51
1, 55448, Control_c, 0, 64, 61
1, 55463, Control_c, 0, 64, 60
1, 55490, Note_on_c, 0, 39, 44
1, 55522, Control_c, 0, 64, 59
1, 55530, Note_off_c, 0, 32, 41
1, 55537, Control_c, 0, 64, 58
1, 55552, Control_c, 0, 64, 57
1, 55596, Control_c, 0, 64, 55
1, 55611, Control_c, 0, 64, 48
1, 55626, Control_c, 0, 64, 0
1, 56122, Control_c, 0, 64, 23
1, 56137, Control_c, 0, 64, 28
1, 56152, Control_c, 0, 64, 33
1, 56166, Control_c, 0, 64, 38
1, 56181, Control_c, 0, 64, 44
1, 56196, Control_c, 0, 64, 49
1, 56211, Control_c, 0, 64, 52
1, 56226, Control_c, 0, 64, 54
1, 56240, Control_c, 0, 64, 54
1, 56255, Control_c, 0, 64, 56
1, 56270, Control_c, 0, 64, 58
1, 56285, Control_c, 0, 64, 60
1, 56300, Control_c, 0, 64, 61
1, 56315, Control_c, 0, 64, 62
1, 56330, Control_c, 0, 64, 63
1, 56344, Control_c, 0, 64, 63
1, 56359, Control_c, 0, 64, 64
1, 56374, Control_c, 0, 64, 65
1, 56389, Control_c, 0, 64, 65
1, 56404, Control_c, 0, 64, 66
1, 56418, Control_c, 0, 64, 66
1, 56448, Control_c, 0, 64, 67
1, 56463, Control_c, 0, 64, 67
1, 56478, Control_c, 0, 64, 68
1, 56486, Note_on_c, 0, 32, 32
1, 56492, Control_c, 0, 64, 68
1, 56502, Note_on_c, 0, 54, 34
1, 56507, Control_c, 0, 64, 69
1, 56507, Control_c, 0, 67, 63
1, 56522, Control_c, 0, 64, 69
1, 56536, Control_c, 0, 64, 70
1, 56551, Control_c, 0, 64, 70
1, 56566, Control_c, 0, 64, 71
1, 56570, Note_off_c, 0, 39, 44
1, 56581, Control_c, 0, 64, 72
1, 56596, Control_c, 0, 64, 73
1, 56600, Note_on_c, 0, 51, 43
1, 56610, Control_c, 0, 64, 74
1, 56625, Control_c, 0, 64, 75
1, 56641, Control_c, 0, 64, 76
1, 56656, Control_c, 0, 64, 77
1, 56660, Note_off_c, 0, 54, 44
1, 56671, Control_c, 0, 64, 78
1, 56676, Note_on_c, 0, 48, 45
1, 56712, Note_off_c, 0, 51, 35
1, 56782, Note_off_c, 0, 48, 52
1, 56785, Note_on_c, 0, 45, 43
1, 56797, Control_c, 0, 64, 77
1, 56812, Control_c, 0, 64, 77
1, 56827, Control_c, 0, 64, 76
1, 56841, Control_c, 0, 64, 75
1, 56856, Control_c, 0, 64, 74
1, 56871, Control_c, 0, 64, 73
1, 56886, Control_c, 0, 64, 71
1, 56890, Note_on_c, 0, 39, 44
1, 56901, Control_c, 0, 64, 69
1, 56905, Note_off_c, 0, 32, 42
1, 56915, Control_c, 0, 64, 67
1, 56926, Note_off_c, 0, 45, 34
1, 56930, Control_c, 0, 64, 64
1, 56945, Control_c, 0, 64, 64
1, 56960, Control_c, 0, 64, 63
1, 56974, Control_c, 0, 64, 63
1, 56989, Control_c, 0, 64, 60
1, 57004, Control_c, 0, 64, 49
1, 57019, Control_c, 0, 64, 0
1, 57034, Control_c, 0, 67, 63
1, 58291, Note_off_c, 0, 39, 43
1, 58294, Control_c, 0, 64, 23
1, 58296, Note_on_c, 0, 32, 37
1, 58309, Control_c, 0, 64, 38
1, 58324, Control_c, 0, 64, 53
1, 58339, Control_c, 0, 64, 61
1, 58354, Control_c, 0, 64, 64
1, 58369, Control_c, 0, 64, 66
1, 58384, Control_c, 0, 64, 68
1, 58399, Control_c, 0, 64, 71
1, 58413, Control_c, 0, 64, 74
1, 58428, Control_c, 0, 64, 76
1, 58443, Control_c, 0, 64, 78
1, 58443, Control_c, 0, 67, 64
1, 58458, Control_c, 0, 64, 79
1, 58487, Control_c, 0, 67, 64
1, 58488, Note_off_c, 0, 32, 49
1, 58502, Control_c, 0, 67, 65
1, 58517, Control_c, 0, 67, 65
1, 58532, Control_c, 0, 67, 66
1, 58546, Control_c, 0, 64, 79
1, 58546, Control_c, 0, 67, 66
1, 58561, Control_c, 0, 64, 78
1, 58561, Control_c, 0, 67, 67
1, 58576, Control_c, 0, 64, 77
1, 58576, Control_c, 0, 67, 68
1, 58591, Control_c, 0, 64, 76
1, 58591, Control_c, 0, 67, 68
1, 58605, Control_c, 0, 64, 73
1, 58605, Control_c, 0, 67, 69
1, 58620, Control_c, 0, 64, 68
1, 58620, Control_c, 0, 67, 69
1, 58635, Control_c, 0, 64, 56
1, 58650, Control_c, 0, 64, 0
1, 58650, Control_c, 0, 67, 70
1, 58665, Control_c, 0, 67, 73
1, 58680, Control_c, 0, 67, 77
1, 58694, Control_c, 0, 67, 78
1, 58709, Control_c, 0, 67, 79
1, 58753, Control_c, 0, 67, 79
1, 59162, Control_c, 0, 67, 79
1, 59384, Control_c, 0, 67, 78
1, 59517, Control_c, 0, 64, 11
1, 59532, Control_c, 0, 64, 14
1, 59547, Control_c, 0, 64, 17
1, 59561, Control_c, 0, 64, 19
1, 59576, Control_c, 0, 64, 27
1, 59591, Control_c, 0, 64, 35
1, 59606, Control_c, 0, 64, 39
1, 59621, Control_c, 0, 64, 42
1, 59636, Control_c, 0, 64, 42
1, 59636, Control_c, 0, 67, 78
1, 59651, Control_c, 0, 64, 43
1, 59666, Control_c, 0, 64, 44
1, 59680, Control_c, 0, 64, 47
1, 59695, Control_c, 0, 64, 49
1, 59710, Control_c, 0, 64, 51
1, 59725, Control_c, 0, 64, 53
1, 59740, Control_c, 0, 64, 55
1, 59761, Control_c, 0, 64, 56
1, 59776, Control_c, 0, 64, 58
1, 59791, Control_c, 0, 64, 60
1, 59806, Control_c, 0, 64, 61
1, 59821, Control_c, 0, 64, 62
1, 59821, Control_c, 0, 67, 77
1, 59837, Control_c, 0, 64, 63
1, 59852, Control_c, 0, 64, 64
1, 59866, Control_c, 0, 64, 65
1, 59881, Control_c, 0, 64, 66
1, 59889, Note_on_c, 0, 32, 39
1, 59896, Control_c, 0, 64, 67
1, 59896, Control_c, 0, 67, 77
1, 59911, Control_c, 0, 64, 68
1, 59926, Control_c, 0, 64, 70
1, 59940, Control_c, 0, 64, 71
1, 59955, Control_c, 0, 64, 72
1, 59970, Control_c, 0, 64, 74
1, 59970, Control_c, 0, 67, 76
1, 59984, Note_off_c, 0, 32, 49
1, 59984, Control_c, 0, 64, 76
1, 59999, Control_c, 0, 64, 79
1, 60014, Control_c, 0, 64, 82
1, 60029, Control_c, 0, 64, 83
1, 60133, Control_c, 0, 64, 82
1, 60148, Control_c, 0, 64, 81
1, 60163, Control_c, 0, 64, 81
1, 60178, Control_c, 0, 64, 80
1, 60192, Control_c, 0, 64, 79
1, 60207, Control_c, 0, 64, 78
1, 60222, Control_c, 0, 64, 77
1, 60237, Control_c, 0, 64, 75
1, 60252, Control_c, 0, 64, 72
1, 60266, Control_c, 0, 64, 70
1, 60281, Control_c, 0, 64, 68
1, 60296, Control_c, 0, 64, 66
1, 60311, Control_c, 0, 64, 64
1, 60326, Control_c, 0, 64, 60
1, 60340, Control_c, 0, 64, 56
1, 60355, Control_c, 0, 64, 54
1, 60370, Control_c, 0, 64, 50
1, 60384, Control_c, 0, 64, 44
1, 60399, Control_c, 0, 64, 33
1, 60414, Control_c, 0, 64, 28
1, 60429, Control_c, 0, 64, 26
1, 60458, Control_c, 0, 64, 24
1, 60488, Control_c, 0, 64, 23
1, 60614, Control_c, 0, 64, 21
1, 61060, Control_c, 0, 64, 19
1, 61060, Control_c, 0, 67, 76
1, 61133, Control_c, 0, 64, 17
1, 61133, Control_c, 0, 67, 75
1, 61148, Control_c, 0, 67, 75
1, 61163, Control_c, 0, 64, 14
1, 61178, Control_c, 0, 67, 74
1, 61193, Control_c, 0, 64, 11
1, 61207, Control_c, 0, 64, 0
1, 61207, Control_c, 0, 67, 74
1, 61237, Control_c, 0, 67, 73
1, 61260, Control_c, 0, 67, 73
1, 61275, Control_c, 0, 67, 72
1, 61289, Control_c, 0, 67, 72
1, 61319, Control_c, 0, 67, 71
1, 61333, Control_c, 0, 67, 70
1, 61363, Control_c, 0, 67, 70
1, 61378, Control_c, 0, 67, 69
1, 61393, Control_c, 0, 67, 69
1, 61407, Control_c, 0, 67, 68
1, 61438, Control_c, 0, 67, 68
1, 61453, Control_c, 0, 67, 67
1, 61483, Control_c, 0, 67, 66
1, 61498, Control_c, 0, 67, 66
1, 61512, Control_c, 0, 67, 64
1, 61527, Control_c, 0, 67, 62
1, 61542, Control_c, 0, 67, 59
1, 61556, Control_c, 0, 67, 57
1, 61571, Control_c, 0, 67, 55
1, 61586, Control_c, 0, 67, 53
1, 61601, Control_c, 0, 67, 51
1, 61616, Control_c, 0, 67, 48
1, 61630, Control_c, 0, 67, 45
1, 61645, Control_c, 0, 67, 40
1, 61660, Control_c, 0, 67, 37
1, 61675, Control_c, 0, 67, 34
1, 61690, Control_c, 0, 64, 14
1, 61690, Control_c, 0, 67, 30
1, 61704, Control_c, 0, 64, 27
1, 61704, Control_c, 0, 67, 27
1, 61719, Control_c, 0, 64, 33
1, 61719, Control_c, 0, 67, 24
1, 61734, Control_c, 0, 64, 38
1, 61734, Control_c, 0, 67, 21
1, 61749, Control_c, 0, 64, 42
1, 61749, Control_c, 0, 67, 17
1, 61764, Control_c, 0, 64, 46
1, 61764, Control_c, 0, 67, 14
1, 61779, Control_c, 0, 64, 50
1, 61779, Control_c, 0, 67, 11
1, 61794, Control_c, 0, 64, 54
1, 61794, Control_c, 0, 67, 8
1, 61809, Control_c, 0, 64, 56
1, 61809, Control_c, 0, 67, 0
1, 61824, Control_c, 0, 64, 58
1, 61838, Control_c, 0, 64, 59
1, 61853, Control_c, 0, 64, 61
1, 61868, Control_c, 0, 64, 62
1, 61883, Control_c, 0, 64, 63
1, 61898, Control_c, 0, 64, 63
1, 61913, Control_c, 0, 64, 64
1, 61928, Control_c, 0, 64, 64
1, 61957, Control_c, 0, 64, 65
1, 61987, Control_c, 0, 64, 64
1, 61997, Note_on_c, 0, 49, 51
1, 62026, Note_on_c, 0, 37, 31
1, 62041, Note_off_c, 0, 49, 63
1, 62067, Note_off_c, 0, 37, 53
1, 62083, Control_c, 0, 64, 64
1, 62113, Control_c, 0, 64, 63
1, 62182, Note_on_c, 0, 40, 63
1, 62187, Control_c, 0, 64, 64
1, 62189, Note_on_c, 0, 52, 57
1, 62216, Note_off_c, 0, 40, 64
1, 62220, Note_off_c, 0, 52, 63
1, 62247, Control_c, 0, 64, 63
1, 62262, Control_c, 0, 64, 60
1, 62277, Control_c, 0, 64, 57
1, 62307, Control_c, 0, 64, 58
1, 62320, Note_on_c, 0, 43, 71
1, 62322, Control_c, 0, 64, 59
1, 62322, Note_on_c, 0, 55, 72
1, 62336, Control_c, 0, 64, 61
1, 62351, Note_off_c, 0, 43, 62
1, 62351, Note_off_c, 0, 55, 66
1, 62351, Control_c, 0, 64, 62
1, 62366, Control_c, 0, 64, 63
1, 62380, Control_c, 0, 64, 63
1, 62395, Control_c, 0, 64, 63
1, 62410, Control_c, 0, 64, 62
1, 62425, Control_c, 0, 64, 59
1, 62436, Note_on_c, 0, 56, 74
1, 62440, Control_c, 0, 64, 56
1, 62443, Note_on_c, 0, 44, 71
1, 62454, Control_c, 0, 64, 54
1, 62461, Note_off_c, 0, 56, 67
1, 62468, Note_off_c, 0, 44, 66
1, 62484, Control_c, 0, 64, 54
1, 62499, Control_c, 0, 64, 56
1, 62514, Control_c, 0, 64, 58
1, 62528, Control_c, 0, 64, 60
1, 62543, Control_c, 0, 64, 61
1, 62555, Note_on_c, 0, 49, 84
1, 62557, Note_on_c, 0, 37, 75
1, 62582, Note_off_c, 0, 49, 66
1, 62587, Control_c, 0, 64, 54
1, 62590, Note_off_c, 0, 37, 65
1, 62602, Control_c, 0, 64, 19
1, 62617, Control_c, 0, 64, 0
1, 62662, Note_on_c, 0, 50, 76
1, 62663, Note_on_c, 0, 40, 76
1, 62676, Control_c, 0, 64, 23
1, 62691, Control_c, 0, 64, 51
1, 62695, Note_off_c, 0, 50, 68
1, 62696, Note_off_c, 0, 40, 68
1, 62706, Control_c, 0, 64, 61
1, 62721, Control_c, 0, 64, 63
1, 62736, Control_c, 0, 64, 60
1, 62758, Control_c, 0, 64, 39
1, 62773, Control_c, 0, 64, 0
1, 62781, Note_on_c, 0, 43, 92
1, 62782, Note_on_c, 0, 55, 93
1, 62805, Note_off_c, 0, 55, 68
1, 62824, Note_off_c, 0, 43, 65
1, 62847, Control_c, 0, 64, 42
1, 62861, Control_c, 0, 64, 59
1, 62876, Note_on_c, 0, 56, 90
1, 62876, Control_c, 0, 64, 63
1, 62886, Note_on_c, 0, 44, 77
1, 62891, Control_c, 0, 64, 64
1, 62897, Note_off_c, 0, 56, 72
1, 62906, Control_c, 0, 64, 64
1, 62917, Note_off_c, 0, 44, 67
1, 62936, Control_c, 0, 64, 55
1, 62950, Control_c, 0, 64, 0
1, 62995, Note_on_c, 0, 49, 92
1, 62998, Note_on_c, 0, 37, 80
1, 63002, Note_on_c, 0, 61, 93
1, 63005, Note_on_c, 0, 73, 93
1, 63025, Note_off_c, 0, 61, 66
1, 63027, Note_off_c, 0, 49, 58
1, 63039, Note_on_c, 0, 39, 25
1, 63040, Note_off_c, 0, 37, 62
1, 63040, Control_c, 0, 64, 58
1, 63053, Note_off_c, 0, 73, 62
1, 63055, Control_c, 0, 64, 67
1, 63070, Control_c, 0, 64, 66
1, 63085, Control_c, 0, 64, 58
1, 63096, Note_on_c, 0, 50, 49
1, 63100, Control_c, 0, 64, 0
1, 63110, Note_on_c, 0, 40, 77
1, 63116, Note_on_c, 0, 62, 73
1, 63116, Note_on_c, 0, 64, 77
1, 63116, Note_on_c, 0, 76, 82
1, 63118, Note_on_c, 0, 74, 76
1, 63124, Note_off_c, 0, 39, 31
1, 63135, Note_off_c, 0, 62, 65
1, 63137, Note_off_c, 0, 64, 71
1, 63138, Note_off_c, 0, 74, 72
1, 63141, Note_off_c, 0, 40, 68
1, 63147, Note_off_c, 0, 50, 66
1, 63148, Note_off_c, 0, 76, 62
1, 63219, Note_on_c, 0, 79, 103
1, 63222, Note_on_c, 0, 67, 93
1, 63224, Note_on_c, 0, 43, 85
1, 63226, Note_on_c, 0, 55, 92
1, 63245, Note_off_c, 0, 67, 65
1, 63249, Note_off_c, 0, 55, 70
1, 63252, Note_off_c, 0, 43, 69
1, 63261, Note_off_c, 0, 79, 65
1, 63322, Control_c, 0, 64, 55
1, 63334, Note_on_c, 0, 68, 92
1, 63335, Note_on_c, 0, 56, 103
1, 63336, Control_c, 0, 64, 71
1, 63338, Note_on_c, 0, 44, 87
1, 63338, Note_on_c, 0, 80, 96
1, 63351, Control_c, 0, 64, 79
1, 63366, Control_c, 0, 64, 85
1, 63368, Note_off_c, 0, 68, 64
1, 63372, Note_off_c, 0, 56, 60
1, 63374, Note_off_c, 0, 44, 62
1, 63380, Control_c, 0, 64, 92
1, 63395, Control_c, 0, 64, 105
1, 63405, Note_off_c, 0, 80, 61
1, 63410, Control_c, 0, 64, 127
1, 63484, Control_c, 0, 64, 119
1, 63506, Control_c, 0, 64, 96
1, 63516, Note_on_c, 0, 61, 96
1, 63517, Note_on_c, 0, 85, 104
1, 63518, Note_on_c, 0, 49, 91
1, 63518, Note_on_c, 0, 73, 103
1, 63521, Control_c, 0, 64, 75
1, 63535, Control_c, 0, 64, 0
1, 63788, Control_c, 0, 64, 51
1, 63802, Control_c, 0, 64, 63
1, 63817, Control_c, 0, 64, 68
1, 63833, Control_c, 0, 64, 71
1, 63848, Control_c, 0, 64, 75
1, 63863, Control_c, 0, 64, 79
1, 63878, Control_c, 0, 64, 86
1, 63892, Control_c, 0, 64, 95
1, 63907, Control_c, 0, 64, 110
1, 63922, Control_c, 0, 64, 127
1, 63958, Note_off_c, 0, 73, 59
1, 63985, Note_off_c, 0, 61, 61
1, 64065, Poly_aftertouch_c, 0, 51, 127
1, 64097, Poly_aftertouch_c, 0, 51, 0
1, 64098, Note_off_c, 0, 49, 60
1, 64265, Note_off_c, 0, 85, 62
1, 64395, Note_on_c, 0, 83, 92
1, 64402, Note_on_c, 0, 71, 76
1, 64585, Note_off_c, 0, 71, 60
1, 64606, Note_off_c, 0, 83, 63
1, 64656, Control_c, 0, 64, 87
1, 64667, Note_on_c, 0, 83, 78
1, 64670, Note_on_c, 0, 40, 50
1, 64670, Note_on_c, 0, 28, 50
1, 64670, Control_c, 0, 64, 64
1, 64685, Control_c, 0, 64, 53
1, 64689, Note_on_c, 0, 71, 65
1, 64700, Control_c, 0, 64, 65
1, 64715, Control_c, 0, 64, 69
1, 64730, Control_c, 0, 64, 74
1, 64744, Note_off_c, 0, 28, 61
1, 64745, Control_c, 0, 64, 80
1, 64760, Control_c, 0, 64, 89
1, 64773, Note_off_c, 0, 40, 62
1, 64774, Control_c, 0, 64, 97
1, 64789, Control_c, 0, 64, 100
1, 64804, Control_c, 0, 64, 103
1, 64819, Control_c, 0, 64, 106
1, 64822, Note_off_c, 0, 71, 62
1, 64834, Control_c, 0, 64, 110
1, 64848, Control_c, 0, 64, 114
1, 64863, Control_c, 0, 64, 118
1, 64879, Control_c, 0, 64, 119
1, 64909, Control_c, 0, 64, 119
1, 64923, Control_c, 0, 64, 120
1, 64932, Note_on_c, 0, 64, 63
1, 64938, Control_c, 0, 64, 121
1, 64939, Note_on_c, 0, 61, 59
1, 64953, Control_c, 0, 64, 122
1, 64962, Note_off_c, 0, 61, 61
1, 64962, Note_off_c, 0, 64, 67
1, 64968, Control_c, 0, 64, 123
1, 65009, Note_off_c, 0, 83, 52
1, 65060, Note_on_c, 0, 69, 77
1, 65061, Note_on_c, 0, 81, 88
1, 65065, Note_on_c, 0, 61, 58
1, 65074, Note_on_c, 0, 64, 52
1, 65094, Note_off_c, 0, 61, 64
1, 65095, Note_off_c, 0, 64, 65
1, 65101, Note_off_c, 0, 69, 59
1, 65127, Note_off_c, 0, 81, 61
1, 65176, Note_on_c, 0, 64, 67
1, 65181, Note_on_c, 0, 61, 68
1, 65181, Note_on_c, 0, 81, 92
1, 65191, Note_on_c, 0, 69, 77
1, 65212, Note_off_c, 0, 61, 63
1, 65212, Note_off_c, 0, 64, 60
1, 65266, Note_off_c, 0, 69, 60
1, 65293, Note_on_c, 0, 61, 82
1, 65296, Note_on_c, 0, 64, 81
1, 65323, Note_off_c, 0, 64, 65
1, 65342, Note_off_c, 0, 81, 60
1, 65343, Note_off_c, 0, 61, 60
1, 65345, Control_c, 0, 64, 127
1, 65401, Note_on_c, 0, 80, 93
1, 65403, Note_on_c, 0, 68, 85
1, 65404, Note_on_c, 0, 61, 70
1, 65412, Note_on_c, 0, 64, 72
1, 65419, Control_c, 0, 64, 111
1, 65435, Control_c, 0, 64, 104
1, 65437, Note_off_c, 0, 64, 70
1, 65449, Note_off_c, 0, 68, 62
1, 65457, Note_off_c, 0, 61, 58
1, 65472, Note_off_c, 0, 80, 62
1, 65479, Control_c, 0, 64, 105
1, 65494, Control_c, 0, 64, 111
1, 65509, Control_c, 0, 64, 127
1, 65529, Note_on_c, 0, 64, 68
1, 65532, Note_on_c, 0, 61, 73
1, 65535, Note_on_c, 0, 80, 90
1, 65542, Note_on_c, 0, 68, 81
1, 65553, Note_off_c, 0, 64, 69
1, 65572, Note_off_c, 0, 61, 63
1, 65627, Note_off_c, 0, 68, 60
1, 65729, Note_off_c, 0, 80, 60
1, 65836, Note_on_c, 0, 66, 68
1, 65839, Note_on_c, 0, 78, 80
1, 65872, Control_c, 0, 64, 124
1, 65887, Control_c, 0, 64, 117
1, 65893, Note_off_c, 0, 66, 60
1, 65902, Control_c, 0, 64, 112
1, 65905, Note_off_c, 0, 78, 61
1, 65916, Control_c, 0, 64, 109
1, 65931, Control_c, 0, 64, 106
1, 65946, Control_c, 0, 64, 104
1, 65961, Control_c, 0, 64, 101
1, 65976, Control_c, 0, 64, 97
1, 65981, Note_on_c, 0, 39, 56
1, 65985, Note_on_c, 0, 51, 52
1, 65988, Note_on_c, 0, 78, 65
1, 65991, Control_c, 0, 64, 94
1, 65991, Note_on_c, 0, 75, 61
1, 66005, Note_on_c, 0, 66, 55
1, 66005, Control_c, 0, 64, 91
1, 66018, Note_on_c, 0, 73, 41
1, 66020, Control_c, 0, 64, 88
1, 66023, Note_off_c, 0, 51, 64
1, 66031, Note_off_c, 0, 75, 57
1, 66034, Note_off_c, 0, 66, 57
1, 66035, Control_c, 0, 64, 84
1, 66037, Note_off_c, 0, 39, 43
1, 66049, Note_off_c, 0, 73, 53
1, 66050, Control_c, 0, 64, 79
1, 66052, Note_off_c, 0, 78, 60
1, 66065, Control_c, 0, 64, 74
1, 66079, Control_c, 0, 64, 70
1, 66094, Control_c, 0, 64, 65
1, 66109, Control_c, 0, 64, 63
1, 66119, Note_on_c, 0, 66, 64
1, 66119, Note_on_c, 0, 78, 61
1, 66121, Note_on_c, 0, 73, 67
1, 66123, Note_on_c, 0, 42, 65
1, 66123, Control_c, 0, 64, 59
1, 66126, Note_on_c, 0, 54, 59
1, 66131, Note_on_c, 0, 75, 64
1, 66138, Control_c, 0, 64, 53
1, 66145, Note_off_c, 0, 66, 66
1, 66149, Note_off_c, 0, 73, 65
1, 66149, Note_off_c, 0, 54, 62
1, 66153, Control_c, 0, 64, 50
1, 66154, Note_off_c, 0, 75, 68
1, 66163, Note_off_c, 0, 78, 61
1, 66165, Note_off_c, 0, 42, 58
1, 66197, Control_c, 0, 64, 54
1, 66212, Control_c, 0, 64, 57
1, 66228, Control_c, 0, 64, 58
1, 66231, Note_on_c, 0, 66, 72
1, 66232, Note_on_c, 0, 56, 80
1, 66232, Note_on_c, 0, 75, 77
1, 66233, Note_on_c, 0, 73, 76
1, 66234, Note_on_c, 0, 44, 65
1, 66236, Note_on_c, 0, 78, 65
1, 66243, Control_c, 0, 64, 56
1, 66256, Note_off_c, 0, 66, 67
1, 66258, Control_c, 0, 64, 37
1, 66265, Note_off_c, 0, 73, 62
1, 66271, Note_off_c, 0, 78, 58
1, 66273, Control_c, 0, 64, 0
1, 66277, Note_off_c, 0, 75, 62
1, 66286, Note_off_c, 0, 56, 62
1, 66297, Note_off_c, 0, 44, 59
1, 66343, Note_on_c, 0, 57, 83
1, 66345, Note_on_c, 0, 66, 80
1, 66346, Control_c, 0, 64, 47
1, 66349, Note_on_c, 0, 78, 73
1, 66352, Note_on_c, 0, 45, 76
1, 66355, Note_on_c, 0, 75, 69
1, 66356, Note_on_c, 0, 73, 75
1, 66361, Control_c, 0, 64, 59
1, 66367, Note_off_c, 0, 66, 68
1, 66367, Note_off_c, 0, 57, 66
1, 66376, Control_c, 0, 64, 55
1, 66381, Note_off_c, 0, 73, 68
1, 66382, Note_off_c, 0, 45, 67
1, 66383, Note_off_c, 0, 75, 66
1, 66391, Note_off_c, 0, 78, 64
1, 66391, Control_c, 0, 64, 0
1, 66463, Note_on_c, 0, 66, 84
1, 66465, Note_on_c, 0, 39, 80
1, 66465, Note_on_c, 0, 51, 84
1, 66465, Note_on_c, 0, 75, 80
1, 66467, Note_on_c, 0, 73, 73
1, 66474, Note_on_c, 0, 78, 67
1, 66484, Note_off_c, 0, 66, 69
1, 66499, Note_off_c, 0, 51, 66
1, 66501, Note_off_c, 0, 39, 65
1, 66501, Note_off_c, 0, 73, 65
1, 66513, Note_off_c, 0, 78, 59
1, 66516, Note_off_c, 0, 75, 63
1, 66581, Note_on_c, 0, 42, 85
1, 66581, Note_on_c, 0, 54, 87
1, 66581, Note_on_c, 0, 66, 90
1, 66588, Note_on_c, 0, 75, 73
1, 66591, Note_on_c, 0, 78, 73
1, 66591, Control_c, 0, 64, 36
1, 66592, Note_on_c, 0, 73, 80
1, 66606, Control_c, 0, 64, 30
1, 66608, Note_off_c, 0, 66, 60
1, 66617, Note_off_c, 0, 54, 63
1, 66617, Note_off_c, 0, 73, 66
1, 66621, Control_c, 0, 64, 0
1, 66627, Note_off_c, 0, 78, 59
1, 66629, Note_off_c, 0, 42, 60
1, 66629, Note_off_c, 0, 75, 63
1, 66688, Note_on_c, 0, 56, 95
1, 66695, Note_on_c, 0, 66, 94
1, 66695, Note_on_c, 0, 44, 73
1, 66700, Note_on_c, 0, 75, 76
1, 66702, Note_on_c, 0, 73, 81
1, 66702, Note_on_c, 0, 78, 73
1, 66727, Note_off_c, 0, 66, 61
1, 66732, Note_off_c, 0, 56, 66
1, 66733, Note_off_c, 0, 73, 61
1, 66734, Note_on_c, 0, 46, 27
1, 66744, Note_off_c, 0, 75, 63
1, 66747, Note_off_c, 0, 78, 61
1, 66754, Control_c, 0, 64, 42
1, 66760, Note_off_c, 0, 44, 61
1, 66769, Control_c, 0, 64, 38
1, 66778, Note_off_c, 0, 46, 30
1, 66784, Control_c, 0, 64, 0
1, 66803, Note_on_c, 0, 57, 89
1, 66809, Note_on_c, 0, 45, 87
1, 66809, Note_on_c, 0, 66, 92
1, 66810, Note_on_c, 0, 78, 78
1, 66814, Note_on_c, 0, 75, 76
1, 66818, Note_on_c, 0, 73, 85
1, 66827, Note_off_c, 0, 57, 67
1, 66839, Note_off_c, 0, 45, 68
1, 66843, Control_c, 0, 64, 46
1, 66844, Note_off_c, 0, 66, 62
1, 66847, Note_off_c, 0, 73, 61
1, 66858, Control_c, 0, 64, 43
1, 66860, Note_off_c, 0, 78, 62
1, 66861, Note_off_c, 0, 75, 64
1, 66872, Control_c, 0, 64, 0
1, 66924, Note_on_c, 0, 51, 86
1, 66924, Note_on_c, 0, 66, 97
1, 66927, Note_on_c, 0, 78, 82
1, 66928, Note_on_c, 0, 75, 75
1, 66935, Note_on_c, 0, 73, 77
1, 66936, Note_on_c, 0, 39, 64
1, 66939, Note_on_c, 0, 42, 60
1, 66949, Note_off_c, 0, 51, 68
1, 66962, Note_off_c, 0, 73, 64
1, 66964, Note_off_c, 0, 66, 63
1, 66966, Note_off_c, 0, 39, 57
1, 66966, Note_off_c, 0, 42, 58
1, 66976, Control_c, 0, 64, 56
1, 66981, Note_off_c, 0, 75, 63
1, 66981, Note_off_c, 0, 78, 63
1, 66991, Control_c, 0, 64, 65
1, 67006, Control_c, 0, 64, 62
1, 67022, Control_c, 0, 64, 0
1, 67042, Note_on_c, 0, 42, 82
1, 67044, Note_on_c, 0, 66, 99
1, 67044, Note_on_c, 0, 78, 97
1, 67047, Note_on_c, 0, 54, 91
1, 67071, Note_off_c, 0, 54, 70
1, 67078, Note_off_c, 0, 66, 65
1, 67079, Note_off_c, 0, 42, 62
1, 67097, Note_off_c, 0, 78, 63
1, 67168, Note_on_c, 0, 56, 97
1, 67169, Note_on_c, 0, 80, 95
1, 67169, Note_on_c, 0, 68, 94
1, 67174, Note_on_c, 0, 44, 78
1, 67206, Note_on_c, 0, 78, 41
1, 67207, Note_off_c, 0, 78, 127
1, 67214, Note_off_c, 0, 68, 63
1, 67216, Note_off_c, 0, 56, 62
1, 67227, Note_off_c, 0, 80, 62
1, 67231, Note_off_c, 0, 44, 54
1, 67309, Note_on_c, 0, 57, 93
1, 67309, Control_c, 0, 64, 61
1, 67317, Note_on_c, 0, 69, 100
1, 67317, Note_on_c, 0, 81, 105
1, 67320, Note_on_c, 0, 45, 78
1, 67324, Control_c, 0, 64, 69
1, 67335, Note_off_c, 0, 57, 61
1, 67339, Control_c, 0, 64, 76
1, 67343, Note_off_c, 0, 69, 67
1, 67345, Note_off_c, 0, 45, 64
1, 67349, Note_off_c, 0, 81, 69
1, 67354, Control_c, 0, 64, 84
1, 67369, Control_c, 0, 64, 91
1, 67383, Control_c, 0, 64, 98
1, 67398, Control_c, 0, 64, 106
1, 67413, Control_c, 0, 64, 122
1, 67428, Control_c, 0, 64, 127
1, 67563, Note_on_c, 0, 87, 103
1, 67566, Note_on_c, 0, 75, 94
1, 67568, Note_on_c, 0, 63, 97
1, 67571, Note_on_c, 0, 51, 92
1, 67576, Control_c, 0, 64, 115
1, 67591, Control_c, 0, 64, 96
1, 67606, Control_c, 0, 64, 77
1, 67621, Control_c, 0, 64, 0
1, 67768, Control_c, 0, 64, 36
1, 67783, Control_c, 0, 64, 55
1, 67798, Control_c, 0, 64, 63
1, 67813, Control_c, 0, 64, 67
1, 67829, Control_c, 0, 64, 70
1, 67844, Control_c, 0, 64, 72
1, 67859, Control_c, 0, 64, 75
1, 67873, Control_c, 0, 64, 79
1, 67888, Control_c, 0, 64, 84
1, 67903, Control_c, 0, 64, 89
1, 67917, Control_c, 0, 64, 95
1, 67932, Control_c, 0, 64, 100
1, 67947, Control_c, 0, 64, 106
1, 67962, Control_c, 0, 64, 115
1, 67977, Control_c, 0, 64, 127
1, 68008, Note_off_c, 0, 75, 57
1, 68046, Note_off_c, 0, 63, 58
1, 68214, Note_off_c, 0, 51, 60
1, 68329, Note_off_c, 0, 87, 62
1, 68407, Note_on_c, 0, 85, 97
1, 68414, Note_on_c, 0, 73, 87
1, 68575, Note_off_c, 0, 73, 61
1, 68597, Note_off_c, 0, 85, 56
1, 68637, Control_c, 0, 64, 100
1, 68652, Control_c, 0, 64, 76
1, 68656, Note_on_c, 0, 85, 85
1, 68663, Note_on_c, 0, 44, 56
1, 68667, Note_on_c, 0, 32, 56
1, 68667, Control_c, 0, 64, 63
1, 68680, Note_on_c, 0, 73, 72
1, 68682, Control_c, 0, 64, 66
1, 68696, Control_c, 0, 64, 69
1, 68711, Control_c, 0, 64, 72
1, 68726, Control_c, 0, 64, 77
1, 68748, Control_c, 0, 64, 85
1, 68748, Note_off_c, 0, 32, 62
1, 68763, Control_c, 0, 64, 93
1, 68769, Note_off_c, 0, 44, 64
1, 68778, Control_c, 0, 64, 100
1, 68793, Control_c, 0, 64, 105
1, 68799, Note_off_c, 0, 73, 61
1, 68808, Control_c, 0, 64, 112
1, 68822, Control_c, 0, 64, 127
1, 68942, Note_on_c, 0, 66, 75
1, 68944, Note_on_c, 0, 63, 68
1, 68980, Note_off_c, 0, 66, 57
1, 68991, Note_off_c, 0, 85, 62
1, 68994, Note_off_c, 0, 63, 56
1, 69054, Note_on_c, 0, 84, 94
1, 69058, Note_on_c, 0, 72, 85
1, 69069, Note_on_c, 0, 66, 74
1, 69073, Note_on_c, 0, 63, 59
1, 69089, Note_off_c, 0, 66, 72
1, 69098, Note_off_c, 0, 72, 61
1, 69100, Note_off_c, 0, 63, 66
1, 69110, Note_off_c, 0, 84, 62
1, 69181, Note_on_c, 0, 84, 100
1, 69188, Note_on_c, 0, 66, 70
1, 69189, Note_on_c, 0, 72, 85
1, 69192, Note_on_c, 0, 63, 68
1, 69213, Note_off_c, 0, 66, 66
1, 69219, Note_off_c, 0, 63, 65
1, 69290, Note_on_c, 0, 66, 74
1, 69299, Note_on_c, 0, 63, 78
1, 69328, Note_off_c, 0, 84, 60
1, 69334, Note_off_c, 0, 66, 63
1, 69339, Note_off_c, 0, 72, 60
1, 69351, Note_off_c, 0, 63, 58
1, 69426, Note_on_c, 0, 63, 60
1, 69428, Note_on_c, 0, 81, 92
1, 69430, Note_on_c, 0, 66, 65
1, 69438, Note_on_c, 0, 69, 74
1, 69453, Note_off_c, 0, 66, 68
1, 69455, Note_off_c, 0, 63, 65
1, 69461, Note_off_c, 0, 69, 70
1, 69553, Note_on_c, 0, 66, 67
1, 69561, Note_on_c, 0, 63, 64
1, 69564, Note_on_c, 0, 80, 86
1, 69574, Note_on_c, 0, 68, 78
1, 69579, Note_off_c, 0, 66, 68
1, 69584, Note_off_c, 0, 81, 59
1, 69594, Note_off_c, 0, 63, 64
1, 69715, Note_off_c, 0, 68, 60
1, 69741, Note_off_c, 0, 80, 57
1, 69846, Note_on_c, 0, 78, 78
1, 69847, Note_on_c, 0, 66, 77
1, 69898, Note_off_c, 0, 66, 62
1, 69906, Note_off_c, 0, 78, 62
1, 69956, Control_c, 0, 64, 116
1, 69970, Control_c, 0, 64, 108
1, 69985, Control_c, 0, 64, 102
1, 70000, Note_on_c, 0, 37, 54
1, 70000, Note_on_c, 0, 49, 60
1, 70000, Control_c, 0, 64, 96
1, 70001, Note_on_c, 0, 76, 67
1, 70006, Note_on_c, 0, 64, 57
1, 70015, Control_c, 0, 64, 92
1, 70019, Note_on_c, 0, 68, 49
1, 70025, Note_on_c, 0, 73, 43
1, 70025, Note_off_c, 0, 49, 60
1, 70030, Control_c, 0, 64, 88
1, 70034, Note_off_c, 0, 37, 58
1, 70039, Note_off_c, 0, 64, 51
1, 70044, Control_c, 0, 64, 84
1, 70048, Note_off_c, 0, 68, 62
1, 70055, Note_off_c, 0, 73, 55
1, 70059, Control_c, 0, 64, 79
1, 70063, Note_off_c, 0, 76, 60
1, 70074, Control_c, 0, 64, 72
1, 70088, Control_c, 0, 64, 67
1, 70103, Control_c, 0, 64, 65
1, 70118, Control_c, 0, 64, 65
1, 70124, Note_on_c, 0, 52, 75
1, 70125, Note_on_c, 0, 40, 72
1, 70131, Note_on_c, 0, 64, 69
1, 70134, Note_on_c, 0, 76, 70
1, 70136, Note_on_c, 0, 68, 58
1, 70137, Note_on_c, 0, 73, 61
1, 70148, Control_c, 0, 64, 65
1, 70159, Note_off_c, 0, 40, 64
1, 70159, Note_off_c, 0, 52, 62
1, 70162, Control_c, 0, 64, 66
1, 70168, Note_off_c, 0, 64, 64
1, 70171, Note_off_c, 0, 68, 65
1, 70171, Note_off_c, 0, 73, 63
1, 70177, Control_c, 0, 64, 67
1, 70184, Note_off_c, 0, 76, 60
1, 70192, Control_c, 0, 64, 68
1, 70207, Control_c, 0, 64, 69
1, 70223, Control_c, 0, 64, 68
1, 70245, Control_c, 0, 64, 67
1, 70256, Note_on_c, 0, 43, 83
1, 70257, Note_on_c, 0, 55, 86
1, 70260, Note_on_c, 0, 64, 79
1, 70260, Control_c, 0, 64, 62
1, 70261, Note_on_c, 0, 76, 73
1, 70263, Note_on_c, 0, 68, 70
1, 70265, Note_on_c, 0, 73, 74
1, 70275, Control_c, 0, 64, 0
1, 70289, Note_off_c, 0, 64, 62
1, 70289, Note_off_c, 0, 68, 65
1, 70297, Note_off_c, 0, 73, 61
1, 70298, Note_off_c, 0, 43, 62
1, 70298, Note_off_c, 0, 55, 65
1, 70307, Note_off_c, 0, 76, 63
1, 70334, Control_c, 0, 64, 49
1, 70349, Control_c, 0, 64, 63
1, 70364, Control_c, 0, 64, 66
1, 70367, Note_on_c, 0, 56, 91
1, 70375, Note_on_c, 0, 64, 90
1, 70377, Note_on_c, 0, 44, 80
1, 70379, Note_on_c, 0, 76, 80
1, 70379, Control_c, 0, 64, 69
1, 70383, Note_on_c, 0, 68, 78
1, 70384, Note_on_c, 0, 73, 82
1, 70401, Note_off_c, 0, 56, 61
1, 70406, Note_off_c, 0, 68, 66
1, 70408, Control_c, 0, 64, 65
1, 70409, Note_off_c, 0, 44, 67
1, 70413, Note_off_c, 0, 64, 59
1, 70418, Note_off_c, 0, 73, 60
1, 70423, Control_c, 0, 64, 32
1, 70425, Note_off_c, 0, 76, 62
1, 70438, Control_c, 0, 64, 0
1, 70482, Control_c, 0, 64, 43
1, 70487, Note_on_c, 0, 64, 92
1, 70492, Note_on_c, 0, 49, 96
1, 70492, Note_on_c, 0, 76, 79
1, 70493, Note_on_c, 0, 37, 86
1, 70495, Note_on_c, 0, 68, 82
1, 70497, Control_c, 0, 64, 64
1, 70501, Note_on_c, 0, 73, 79
1, 70512, Control_c, 0, 64, 68
1, 70522, Note_off_c, 0, 68, 63
1, 70526, Control_c, 0, 64, 64
1, 70530, Note_off_c, 0, 64, 60
1, 70531, Note_off_c, 0, 73, 61
1, 70534, Note_off_c, 0, 49, 64
1, 70534, Note_off_c, 0, 76, 63
1, 70541, Control_c, 0, 64, 24
1, 70546, Note_off_c, 0, 37, 62
1, 70556, Control_c, 0, 64, 0
1, 70600, Control_c, 0, 64, 40
1, 70602, Note_on_c, 0, 52, 97
1, 70602, Note_on_c, 0, 64, 96
1, 70608, Note_on_c, 0, 40, 83
1, 70611, Note_on_c, 0, 76, 81
1, 70612, Note_on_c, 0, 68, 84
1, 70615, Control_c, 0, 64, 63
1, 70617, Note_on_c, 0, 73, 81
1, 70630, Control_c, 0, 64, 67
1, 70643, Note_off_c, 0, 68, 60
1, 70645, Control_c, 0, 64, 70
1, 70646, Note_off_c, 0, 64, 64
1, 70647, Note_off_c, 0, 52, 63
1, 70652, Note_off_c, 0, 40, 62
1, 70653, Note_off_c, 0, 73, 57
1, 70659, Note_off_c, 0, 76, 62
1, 70660, Control_c, 0, 64, 70
1, 70674, Control_c, 0, 64, 66
1, 70689, Control_c, 0, 64, 0
1, 70721, Note_on_c, 0, 64, 98
1, 70724, Note_on_c, 0, 55, 92
1, 70725, Note_on_c, 0, 43, 88
1, 70728, Note_on_c, 0, 76, 79
1, 70730, Note_on_c, 0, 68, 81
1, 70736, Note_on_c, 0, 73, 82
1, 70763, Note_off_c, 0, 64, 65
1, 70763, Note_off_c, 0, 68, 61
1, 70763, Control_c, 0, 64, 63
1, 70764, Note_off_c, 0, 55, 65
1, 70768, Note_off_c, 0, 43, 62
1, 70771, Note_off_c, 0, 73, 60
1, 70776, Note_off_c, 0, 76, 62
1, 70778, Control_c, 0, 64, 70
1, 70793, Control_c, 0, 64, 68
1, 70808, Control_c, 0, 64, 54
1, 70823, Control_c, 0, 64, 0
1, 70837, Note_on_c, 0, 56, 94
1, 70839, Note_on_c, 0, 64, 100
1, 70844, Note_on_c, 0, 44, 84
1, 70845, Note_on_c, 0, 76, 85
1, 70850, Note_on_c, 0, 68, 82
1, 70853, Note_on_c, 0, 73, 79
1, 70860, Note_off_c, 0, 56, 67
1, 70874, Note_off_c, 0, 44, 68
1, 70877, Note_off_c, 0, 64, 67
1, 70879, Note_off_c, 0, 68, 61
1, 70882, Control_c, 0, 64, 34
1, 70895, Note_off_c, 0, 73, 58
1, 70897, Control_c, 0, 64, 66
1, 70901, Note_off_c, 0, 76, 62
1, 70911, Control_c, 0, 64, 71
1, 70926, Control_c, 0, 64, 68
1, 70941, Control_c, 0, 64, 42
1, 70956, Control_c, 0, 64, 0
1, 70960, Note_on_c, 0, 64, 99
1, 70963, Note_on_c, 0, 49, 99
1, 70964, Note_on_c, 0, 37, 85
1, 70966, Note_on_c, 0, 76, 85
1, 70971, Note_on_c, 0, 68, 82
1, 70974, Note_on_c, 0, 73, 84
1, 71010, Note_off_c, 0, 64, 66
1, 71013, Note_off_c, 0, 49, 64
1, 71014, Note_off_c, 0, 68, 59
1, 71023, Control_c, 0, 64, 44
1, 71028, Note_off_c, 0, 37, 63
1, 71032, Note_off_c, 0, 76, 60
1, 71038, Note_off_c, 0, 73, 62
1, 71038, Control_c, 0, 64, 62
1, 71053, Control_c, 0, 64, 61
1, 71068, Control_c, 0, 64, 0
1, 71097, Note_on_c, 0, 64, 103
1, 71103, Note_on_c, 0, 52, 91
1, 71105, Note_on_c, 0, 40, 87
1, 71106, Note_on_c, 0, 68, 84
1, 71106, Note_on_c, 0, 76, 86
1, 71111, Note_on_c, 0, 73, 78
1, 71136, Note_off_c, 0, 64, 68
1, 71142, Note_off_c, 0, 73, 61
1, 71145, Note_off_c, 0, 40, 64
1, 71145, Note_off_c, 0, 52, 63
1, 71153, Note_off_c, 0, 68, 60
1, 71163, Note_off_c, 0, 76, 65
1, 71241, Note_on_c, 0, 67, 96
1, 71242, Note_on_c, 0, 43, 89
1, 71242, Note_on_c, 0, 55, 92
1, 71243, Note_on_c, 0, 79, 103
1, 71269, Note_off_c, 0, 67, 67
1, 71275, Note_off_c, 0, 55, 65
1, 71279, Note_off_c, 0, 43, 62
1, 71285, Note_off_c, 0, 79, 64
1, 71397, Note_on_c, 0, 56, 95
1, 71398, Note_on_c, 0, 68, 95
1, 71398, Note_on_c, 0, 80, 105
1, 71401, Note_on_c, 0, 44, 81
1, 71409, Control_c, 0, 64, 67
1, 71413, Note_off_c, 0, 68, 74
1, 71423, Control_c, 0, 64, 86
1, 71427, Note_off_c, 0, 56, 64
1, 71431, Note_off_c, 0, 80, 69
1, 71432, Note_off_c, 0, 44, 67
1, 71438, Control_c, 0, 64, 113
1, 71453, Control_c, 0, 64, 127
1, 71753, Note_on_c, 0, 80, 95
1, 71755, Note_on_c, 0, 92, 104
1, 71759, Note_on_c, 0, 68, 101
1, 71765, Note_on_c, 0, 56, 91
1, 71787, Control_c, 0, 64, 116
1, 71802, Control_c, 0, 64, 83
1, 71818, Control_c, 0, 64, 0
1, 71951, Control_c, 0, 64, 43
1, 71965, Control_c, 0, 64, 61
1, 71980, Control_c, 0, 64, 65
1, 71995, Control_c, 0, 64, 68
1, 72010, Control_c, 0, 64, 70
1, 72025, Control_c, 0, 64, 74
1, 72039, Control_c, 0, 64, 78
1, 72054, Control_c, 0, 64, 83
1, 72069, Control_c, 0, 64, 89
1, 72084, Control_c, 0, 64, 95
1, 72099, Control_c, 0, 64, 103
1, 72114, Control_c, 0, 64, 114
1, 72129, Control_c, 0, 64, 127
1, 72301, Note_off_c, 0, 68, 59
1, 72387, Note_off_c, 0, 80, 55
1, 72449, Note_off_c, 0, 56, 61
1, 72650, Note_off_c, 0, 92, 53
1, 72733, Note_on_c, 0, 92, 102
1, 72735, Note_on_c, 0, 80, 89
1, 72858, Note_off_c, 0, 80, 62
1, 72868, Note_off_c, 0, 92, 65
1, 72934, Note_on_c, 0, 92, 102
1, 72937, Note_on_c, 0, 27, 85
1, 72937, Control_c, 0, 64, 90
1, 72938, Note_on_c, 0, 39, 88
1, 72944, Note_on_c, 0, 80, 91
1, 72951, Control_c, 0, 64, 64
1, 72966, Control_c, 0, 64, 62
1, 72981, Control_c, 0, 64, 70
1, 72996, Control_c, 0, 64, 74
1, 72999, Note_off_c, 0, 27, 63
1, 73011, Control_c, 0, 64, 80
1, 73026, Note_off_c, 0, 39, 61
1, 73026, Control_c, 0, 64, 89
1, 73041, Control_c, 0, 64, 107
1, 73056, Control_c, 0, 64, 127
1, 73137, Note_off_c, 0, 80, 62
1, 73282, Note_on_c, 0, 67, 78
1, 73288, Note_on_c, 0, 58, 67
1, 73288, Note_on_c, 0, 61, 68
1, 73322, Note_off_c, 0, 58, 63
1, 73330, Note_off_c, 0, 67, 63
1, 73332, Note_off_c, 0, 61, 60
1, 73349, Note_off_c, 0, 92, 65
1, 73417, Note_on_c, 0, 91, 105
1, 73419, Note_on_c, 0, 79, 91
1, 73424, Note_on_c, 0, 67, 81
1, 73425, Note_on_c, 0, 61, 65
1, 73426, Note_on_c, 0, 58, 65
1, 73452, Note_off_c, 0, 67, 64
1, 73453, Note_off_c, 0, 58, 66
1, 73457, Note_off_c, 0, 61, 66
1, 73461, Note_off_c, 0, 79, 64
1, 73486, Note_off_c, 0, 91, 62
1, 73536, Note_on_c, 0, 61, 74
1, 73537, Note_on_c, 0, 67, 84
1, 73539, Note_on_c, 0, 58, 73
1, 73542, Note_on_c, 0, 91, 106
1, 73545, Note_on_c, 0, 79, 97
1, 73568, Note_off_c, 0, 67, 56
1, 73571, Note_off_c, 0, 58, 62
1, 73585, Note_off_c, 0, 61, 61
1, 73649, Note_on_c, 0, 61, 72
1, 73653, Note_on_c, 0, 67, 88
1, 73658, Note_on_c, 0, 58, 73
1, 73678, Note_off_c, 0, 91, 63
1, 73682, Note_off_c, 0, 79, 58
1, 73686, Note_off_c, 0, 58, 62
1, 73693, Note_off_c, 0, 67, 55
1, 73705, Note_off_c, 0, 61, 63
1, 73774, Note_on_c, 0, 88, 102
1, 73778, Note_on_c, 0, 61, 63
1, 73782, Note_on_c, 0, 58, 64
1, 73783, Note_on_c, 0, 76, 82
1, 73784, Note_on_c, 0, 67, 78
1, 73804, Note_off_c, 0, 58, 68
1, 73805, Note_off_c, 0, 67, 70
1, 73807, Note_off_c, 0, 76, 65
1, 73816, Note_off_c, 0, 61, 63
1, 73899, Note_on_c, 0, 87, 95
1, 73899, Note_on_c, 0, 75, 94
1, 73902, Note_on_c, 0, 67, 74
1, 73904, Note_off_c, 0, 88, 36
1, 73911, Note_on_c, 0, 58, 62
1, 73920, Note_off_c, 0, 67, 70
1, 73923, Note_on_c, 0, 61, 63
1, 73946, Note_off_c, 0, 61, 68
1, 73948, Note_off_c, 0, 58, 61
1, 74067, Note_off_c, 0, 75, 63
1, 74084, Note_off_c, 0, 87, 61
1, 74177, Note_on_c, 0, 73, 85
1, 74178, Note_on_c, 0, 85, 89
1, 74233, Note_off_c, 0, 73, 62
1, 74245, Note_off_c, 0, 85, 63
1, 74322, Note_on_c, 0, 84, 75
1, 74326, Note_on_c, 0, 56, 65
1, 74331, Note_on_c, 0, 72, 61
1, 74335, Note_on_c, 0, 44, 52
1, 74346, Control_c, 0, 64, 106
1, 74349, Note_on_c, 0, 75, 51
1, 74349, Note_on_c, 0, 80, 47
1, 74355, Note_off_c, 0, 56, 66
1, 74360, Control_c, 0, 64, 95
1, 74367, Note_off_c, 0, 72, 60
1, 74368, Note_off_c, 0, 44, 61
1, 74373, Note_off_c, 0, 75, 60
1, 74375, Control_c, 0, 64, 83
1, 74378, Note_off_c, 0, 80, 55
1, 74382, Note_off_c, 0, 84, 61
1, 74390, Control_c, 0, 64, 70
1, 74405, Control_c, 0, 64, 47
1, 74420, Control_c, 0, 64, 36
1, 74434, Control_c, 0, 64, 58
1, 74446, Note_on_c, 0, 48, 74
1, 74448, Note_on_c, 0, 60, 74
1, 74449, Control_c, 0, 64, 63
1, 74457, Note_on_c, 0, 84, 76
1, 74460, Note_on_c, 0, 72, 77
1, 74463, Note_on_c, 0, 80, 63
1, 74464, Control_c, 0, 64, 65
1, 74465, Note_on_c, 0, 75, 62
1, 74479, Control_c, 0, 64, 67
1, 74480, Note_off_c, 0, 60, 66
1, 74490, Note_off_c, 0, 48, 61
1, 74490, Note_off_c, 0, 75, 67
1, 74493, Control_c, 0, 64, 70
1, 74494, Note_off_c, 0, 72, 63
1, 74494, Note_off_c, 0, 80, 61
1, 74506, Note_off_c, 0, 84, 64
1, 74508, Control_c, 0, 64, 72
1, 74523, Control_c, 0, 64, 73
1, 74538, Control_c, 0, 64, 71
1, 74553, Control_c, 0, 64, 66
1, 74561, Note_on_c, 0, 62, 86
1, 74561, Note_on_c, 0, 84, 83
1, 74563, Note_on_c, 0, 50, 81
1, 74567, Control_c, 0, 64, 0
1, 74571, Note_on_c, 0, 72, 79
1, 74579, Note_on_c, 0, 75, 68
1, 74583, Note_on_c, 0, 80, 68
1, 74603, Note_off_c, 0, 50, 63
1, 74604, Note_off_c, 0, 62, 63
1, 74604, Note_off_c, 0, 75, 69
1, 74609, Note_off_c, 0, 80, 66
1, 74613, Note_off_c, 0, 72, 63
1, 74616, Note_off_c, 0, 84, 66
1, 74628, Control_c, 0, 64, 56
1, 74642, Control_c, 0, 64, 65
1, 74657, Control_c, 0, 64, 69
1, 74672, Control_c, 0, 64, 70
1, 74686, Note_on_c, 0, 51, 83
1, 74686, Note_on_c, 0, 84, 89
1, 74686, Control_c, 0, 64, 69
1, 74688, Note_on_c, 0, 63, 72
1, 74689, Note_on_c, 0, 72, 86
1, 74693, Note_on_c, 0, 75, 78
1, 74696, Note_on_c, 0, 80, 78
1, 74701, Control_c, 0, 64, 65
1, 74707, Note_off_c, 0, 63, 66
1, 74714, Note_off_c, 0, 51, 67
1, 74716, Control_c, 0, 64, 62
1, 74723, Note_off_c, 0, 75, 63
1, 74738, Note_on_c, 0, 61, 14
1, 74739, Note_off_c, 0, 80, 61
1, 74739, Control_c, 0, 64, 63
1, 74740, Note_off_c, 0, 72, 61
1, 74744, Note_off_c, 0, 84, 65
1, 74754, Control_c, 0, 64, 66
1, 74768, Control_c, 0, 64, 69
1, 74783, Control_c, 0, 64, 72
1, 74788, Note_off_c, 0, 61, 29
1, 74798, Control_c, 0, 64, 74
1, 74808, Note_on_c, 0, 56, 94
1, 74811, Note_on_c, 0, 44, 89
1, 74813, Control_c, 0, 64, 76
1, 74815, Note_on_c, 0, 84, 91
1, 74817, Note_on_c, 0, 72, 92
1, 74824, Note_on_c, 0, 80, 76
1, 74825, Note_on_c, 0, 75, 80
1, 74842, Control_c, 0, 64, 71
1, 74849, Note_off_c, 0, 56, 66
1, 74849, Note_off_c, 0, 75, 64
1, 74857, Control_c, 0, 64, 50
1, 74861, Note_off_c, 0, 80, 59
1, 74861, Note_off_c, 0, 44, 61
1, 74862, Note_off_c, 0, 72, 62
1, 74862, Note_off_c, 0, 84, 65
1, 74872, Control_c, 0, 64, 0
1, 74923, Note_on_c, 0, 60, 94
1, 74926, Note_on_c, 0, 48, 88
1, 74931, Control_c, 0, 64, 11
1, 74933, Note_on_c, 0, 72, 91
1, 74933, Note_on_c, 0, 84, 94
1, 74940, Note_on_c, 0, 75, 84
1, 74944, Note_on_c, 0, 80, 74
1, 74946, Control_c, 0, 64, 67
1, 74961, Control_c, 0, 64, 73
1, 74967, Note_off_c, 0, 60, 66
1, 74969, Note_off_c, 0, 75, 63
1, 74973, Note_off_c, 0, 80, 60
1, 74973, Note_off_c, 0, 48, 63
1, 74975, Note_off_c, 0, 72, 64
1, 74975, Control_c, 0, 64, 71
1, 74981, Note_off_c, 0, 84, 65
1, 74990, Control_c, 0, 64, 56
1, 75005, Control_c, 0, 64, 0
1, 75044, Note_on_c, 0, 62, 96
1, 75045, Note_on_c, 0, 50, 90
1, 75049, Note_on_c, 0, 72, 95
1, 75049, Note_on_c, 0, 84, 96
1, 75057, Note_on_c, 0, 75, 83
1, 75059, Note_on_c, 0, 80, 77
1, 75065, Control_c, 0, 64, 61
1, 75078, Note_on_c, 0, 52, 51
1, 75079, Note_off_c, 0, 52, 127
1, 75080, Control_c, 0, 64, 71
1, 75086, Note_off_c, 0, 62, 66
1, 75087, Note_off_c, 0, 75, 64
1, 75092, Note_off_c, 0, 72, 64
1, 75093, Note_off_c, 0, 80, 62
1, 75095, Note_off_c, 0, 50, 64
1, 75095, Control_c, 0, 64, 74
1, 75097, Note_off_c, 0, 84, 66
1, 75110, Control_c, 0, 64, 69
1, 75124, Control_c, 0, 64, 0
1, 75164, Note_on_c, 0, 63, 93
1, 75166, Note_on_c, 0, 51, 80
1, 75169, Note_on_c, 0, 72, 98
1, 75169, Note_on_c, 0, 84, 92
1, 75178, Note_on_c, 0, 75, 87
1, 75179, Note_on_c, 0, 80, 78
1, 75184, Note_off_c, 0, 63, 67
1, 75196, Note_off_c, 0, 51, 65
1, 75199, Control_c, 0, 64, 61
1, 75205, Note_off_c, 0, 75, 60
1, 75212, Note_off_c, 0, 72, 63
1, 75214, Control_c, 0, 64, 67
1, 75217, Note_off_c, 0, 80, 61
1, 75217, Note_off_c, 0, 84, 65
1, 75229, Control_c, 0, 64, 68
1, 75244, Control_c, 0, 64, 60
1, 75244, Note_on_c, 0, 50, 2
1, 75258, Control_c, 0, 64, 0
1, 75277, Note_off_c, 0, 50, 34
1, 75285, Note_on_c, 0, 44, 88
1, 75285, Note_on_c, 0, 56, 95
1, 75288, Note_on_c, 0, 72, 94
1, 75289, Note_on_c, 0, 84, 97
1, 75297, Note_on_c, 0, 75, 85
1, 75297, Note_on_c, 0, 80, 79
1, 75325, Note_off_c, 0, 56, 65
1, 75330, Note_off_c, 0, 72, 65
1, 75332, Control_c, 0, 64, 60
1, 75334, Note_off_c, 0, 44, 61
1, 75334, Note_off_c, 0, 75, 61
1, 75337, Note_off_c, 0, 84, 65
1, 75347, Control_c, 0, 64, 65
1, 75348, Note_off_c, 0, 80, 62
1, 75362, Control_c, 0, 64, 66
1, 75377, Control_c, 0, 64, 62
1, 75391, Control_c, 0, 64, 0
1, 75414, Note_on_c, 0, 60, 97
1, 75414, Note_on_c, 0, 72, 98
1, 75417, Note_on_c, 0, 84, 96
1, 75420, Note_on_c, 0, 48, 84
1, 75426, Note_on_c, 0, 75, 85
1, 75429, Note_on_c, 0, 80, 74
1, 75450, Note_off_c, 0, 60, 67
1, 75457, Note_off_c, 0, 48, 60
1, 75457, Note_off_c, 0, 72, 64
1, 75467, Note_off_c, 0, 80, 61
1, 75469, Note_off_c, 0, 75, 59
1, 75470, Note_off_c, 0, 84, 64
1, 75551, Note_on_c, 0, 50, 87
1, 75551, Note_on_c, 0, 62, 90
1, 75559, Note_on_c, 0, 74, 96
1, 75560, Note_on_c, 0, 86, 103
1, 75587, Note_off_c, 0, 74, 71
1, 75589, Note_off_c, 0, 62, 61
1, 75595, Note_off_c, 0, 50, 62
1, 75608, Note_off_c, 0, 86, 63
1, 75710, Control_c, 0, 64, 44
1, 75711, Note_on_c, 0, 87, 112
1, 75712, Note_on_c, 0, 63, 100
1, 75712, Note_on_c, 0, 75, 98
1, 75715, Note_on_c, 0, 51, 87
1, 75725, Control_c, 0, 64, 69
1, 75733, Note_off_c, 0, 75, 67
1, 75740, Control_c, 0, 64, 82
1, 75741, Note_off_c, 0, 51, 70
1, 75751, Note_off_c, 0, 87, 69
1, 75753, Note_off_c, 0, 63, 60
1, 75755, Control_c, 0, 64, 98
1, 75770, Control_c, 0, 64, 117
1, 75784, Control_c, 0, 64, 127
1, 76004, Poly_aftertouch_c, 0, 94, 0
1, 76070, Note_on_c, 0, 83, 105
1, 76071, Note_on_c, 0, 95, 107
1, 76072, Note_on_c, 0, 71, 92
1, 76075, Note_on_c, 0, 59, 84
1, 76111, Control_c, 0, 64, 98
1, 76126, Control_c, 0, 64, 73
1, 76141, Control_c, 0, 64, 0
1, 76181, Poly_aftertouch_c, 0, 94, 0
1, 76445, Control_c, 0, 64, 40
1, 76459, Control_c, 0, 64, 53
1, 76474, Control_c, 0, 64, 59
1, 76489, Control_c, 0, 64, 62
1, 76504, Control_c, 0, 64, 64
1, 76519, Control_c, 0, 64, 67
1, 76533, Control_c, 0, 64, 68
1, 76548, Control_c, 0, 64, 70
1, 76563, Control_c, 0, 64, 72
1, 76578, Control_c, 0, 64, 74
1, 76593, Control_c, 0, 64, 76
1, 76609, Control_c, 0, 64, 79
1, 76624, Control_c, 0, 64, 81
1, 76638, Control_c, 0, 64, 84
1, 76653, Control_c, 0, 64, 88
1, 76668, Control_c, 0, 64, 90
1, 76682, Control_c, 0, 64, 93
1, 76697, Control_c, 0, 64, 97
1, 76712, Control_c, 0, 64, 102
1, 76727, Control_c, 0, 64, 108
1, 76742, Control_c, 0, 64, 114
1, 76756, Control_c, 0, 64, 127
1, 76883, Note_off_c, 0, 71, 50
1, 76974, Note_off_c, 0, 83, 44
1, 77068, Note_off_c, 0, 59, 57
1, 77205, Note_off_c, 0, 95, 46
1, 77475, Note_on_c, 0, 95, 95
1, 77489, Note_on_c, 0, 83, 76
1, 77736, Note_off_c, 0, 83, 58
1, 77757, Note_off_c, 0, 95, 56
1, 77838, Control_c, 0, 64, 96
1, 77850, Note_on_c, 0, 95, 84
1, 77853, Control_c, 0, 64, 75
1, 77855, Note_on_c, 0, 83, 56
1, 77868, Note_on_c, 0, 40, 41
1, 77868, Control_c, 0, 64, 59
1, 77873, Note_on_c, 0, 88, 47
1, 77874, Note_on_c, 0, 28, 37
1, 77883, Control_c, 0, 64, 57
1, 77898, Control_c, 0, 64, 65
1, 77912, Control_c, 0, 64, 68
1, 77927, Control_c, 0, 64, 70
1, 77927, Control_c, 0, 67, 9
1, 77942, Control_c, 0, 64, 73
1, 77942, Control_c, 0, 67, 12
1, 77957, Control_c, 0, 64, 77
1, 77957, Control_c, 0, 67, 16
1, 77972, Control_c, 0, 64, 82
1, 77972, Control_c, 0, 67, 21
1, 77986, Note_off_c, 0, 28, 49
1, 77986, Control_c, 0, 64, 88
1, 77986, Control_c, 0, 67, 26
1, 78001, Control_c, 0, 64, 91
1, 78001, Control_c, 0, 67, 30
1, 78016, Control_c, 0, 64, 94
1, 78016, Control_c, 0, 67, 36
1, 78023, Note_off_c, 0, 40, 49
1, 78031, Control_c, 0, 64, 97
1, 78031, Control_c, 0, 67, 40
1, 78046, Control_c, 0, 64, 99
1, 78046, Control_c, 0, 67, 43
1, 78061, Control_c, 0, 64, 103
1, 78061, Control_c, 0, 67, 43
1, 78076, Control_c, 0, 64, 106
1, 78090, Control_c, 0, 64, 110
1, 78105, Control_c, 0, 64, 117
1, 78120, Control_c, 0, 64, 127
1, 78150, Control_c, 0, 67, 42
1, 78165, Control_c, 0, 67, 42
1, 78225, Control_c, 0, 67, 41
1, 78240, Control_c, 0, 67, 41
1, 78248, Note_off_c, 0, 83, 44
1, 78299, Control_c, 0, 67, 40
1, 78313, Note_on_c, 0, 52, 42
1, 78314, Control_c, 0, 67, 40
1, 78315, Note_on_c, 0, 59, 43
1, 78342, Note_off_c, 0, 59, 56
1, 78348, Note_off_c, 0, 52, 53
1, 78373, Control_c, 0, 67, 39
1, 78429, Note_on_c, 0, 59, 56
1, 78432, Control_c, 0, 67, 39
1, 78435, Note_off_c, 0, 95, 46
1, 78444, Note_on_c, 0, 52, 45
1, 78447, Control_c, 0, 67, 38
1, 78462, Note_on_c, 0, 56, 43
1, 78478, Note_off_c, 0, 59, 61
1, 78484, Control_c, 0, 67, 38
1, 78484, Note_off_c, 0, 52, 55
1, 78499, Control_c, 0, 67, 37
1, 78501, Note_off_c, 0, 56, 52
1, 78514, Control_c, 0, 67, 37
1, 78529, Control_c, 0, 67, 36
1, 78543, Control_c, 0, 67, 35
1, 78564, Note_on_c, 0, 52, 59
1, 78564, Note_on_c, 0, 56, 70
1, 78571, Note_on_c, 0, 59, 67
1, 78573, Control_c, 0, 67, 34
1, 78591, Note_off_c, 0, 56, 67
1, 78594, Note_off_c, 0, 52, 63
1, 78600, Note_off_c, 0, 59, 64
1, 78603, Control_c, 0, 67, 34
1, 78617, Control_c, 0, 67, 33
1, 78666, Note_on_c, 0, 56, 61
1, 78670, Note_on_c, 0, 59, 70
1, 78671, Note_on_c, 0, 52, 58
1, 78676, Control_c, 0, 67, 33
1, 78695, Note_off_c, 0, 59, 65
1, 78696, Note_off_c, 0, 52, 60
1, 78696, Note_off_c, 0, 56, 65
1, 78706, Control_c, 0, 67, 32
1, 78750, Control_c, 0, 67, 32
1, 78761, Note_off_c, 0, 88, 55
1, 78765, Control_c, 0, 67, 31
1, 78769, Note_on_c, 0, 56, 73
1, 78769, Note_on_c, 0, 59, 66
1, 78773, Note_on_c, 0, 52, 57
1, 78775, Note_on_c, 0, 92, 92
1, 78781, Note_on_c, 0, 80, 79
1, 78795, Control_c, 0, 67, 30
1, 78797, Note_off_c, 0, 59, 64
1, 78802, Note_off_c, 0, 52, 65
1, 78802, Note_off_c, 0, 56, 61
1, 78809, Control_c, 0, 67, 28
1, 78824, Control_c, 0, 67, 26
1, 78826, Note_off_c, 0, 80, 61
1, 78839, Control_c, 0, 67, 24
1, 78854, Control_c, 0, 67, 21
1, 78869, Control_c, 0, 67, 17
1, 78883, Control_c, 0, 67, 14
1, 78887, Note_on_c, 0, 59, 68
1, 78890, Note_on_c, 0, 56, 70
1, 78893, Note_on_c, 0, 90, 95
1, 78895, Note_on_c, 0, 52, 37
1, 78898, Note_on_c, 0, 78, 88
1, 78898, Control_c, 0, 67, 8
1, 78909, Note_off_c, 0, 59, 65
1, 78913, Control_c, 0, 67, 0
1, 78915, Note_off_c, 0, 92, 54
1, 78917, Note_off_c, 0, 56, 67
1, 78930, Note_off_c, 0, 52, 54
1, 78992, Note_on_c, 0, 56, 59
1, 78992, Note_on_c, 0, 59, 77
1, 79003, Note_on_c, 0, 52, 62
1, 79023, Note_off_c, 0, 59, 62
1, 79027, Note_off_c, 0, 56, 63
1, 79030, Note_off_c, 0, 78, 61
1, 79032, Note_off_c, 0, 52, 64
1, 79033, Note_off_c, 0, 90, 65
1, 79103, Note_on_c, 0, 59, 74
1, 79104, Note_on_c, 0, 52, 64
1, 79108, Note_on_c, 0, 88, 98
1, 79113, Note_on_c, 0, 56, 65
1, 79113, Note_on_c, 0, 76, 81
1, 79140, Note_off_c, 0, 56, 66
1, 79140, Note_off_c, 0, 59, 63
1, 79143, Note_off_c, 0, 52, 62
1, 79155, Note_off_c, 0, 76, 61
1, 79156, Note_off_c, 0, 88, 65
1, 79211, Control_c, 0, 64, 92
1, 79223, Note_on_c, 0, 60, 71
1, 79223, Note_on_c, 0, 88, 85
1, 79232, Control_c, 0, 64, 67
1, 79239, Note_on_c, 0, 76, 65
1, 79244, Note_on_c, 0, 57, 53
1, 79247, Note_on_c, 0, 84, 66
1, 79247, Note_on_c, 0, 52, 37
1, 79247, Control_c, 0, 64, 0
1, 79252, Note_on_c, 0, 81, 52
1, 79273, Note_off_c, 0, 57, 65
1, 79274, Note_off_c, 0, 52, 57
1, 79292, Control_c, 0, 64, 47
1, 79307, Control_c, 0, 64, 63
1, 79322, Control_c, 0, 64, 70
1, 79337, Control_c, 0, 64, 75
1, 79341, Note_on_c, 0, 57, 67
1, 79343, Note_on_c, 0, 52, 58
1, 79351, Control_c, 0, 64, 82
1, 79360, Note_on_c, 0, 54, 43
1, 79366, Control_c, 0, 64, 87
1, 79377, Note_off_c, 0, 52, 62
1, 79381, Control_c, 0, 64, 90
1, 79381, Note_off_c, 0, 57, 59
1, 79393, Note_off_c, 0, 54, 54
1, 79396, Control_c, 0, 64, 91
1, 79411, Control_c, 0, 64, 95
1, 79420, Note_off_c, 0, 76, 60
1, 79426, Control_c, 0, 64, 99
1, 79440, Control_c, 0, 64, 101
1, 79467, Note_on_c, 0, 52, 44
1, 79471, Note_on_c, 0, 54, 52
1, 79471, Note_on_c, 0, 57, 57
1, 79494, Note_off_c, 0, 54, 63
1, 79498, Note_off_c, 0, 52, 55
1, 79502, Note_off_c, 0, 57, 59
1, 79508, Note_off_c, 0, 88, 59
1, 79544, Control_c, 0, 64, 101
1, 79544, Control_c, 0, 67, 8
1, 79558, Control_c, 0, 64, 98
1, 79558, Control_c, 0, 67, 10
1, 79573, Control_c, 0, 64, 91
1, 79573, Control_c, 0, 67, 12
1, 79586, Note_on_c, 0, 54, 47
1, 79588, Note_on_c, 0, 57, 55
1, 79588, Control_c, 0, 64, 78
1, 79588, Control_c, 0, 67, 16
1, 79591, Note_on_c, 0, 52, 35
1, 79599, Note_off_c, 0, 81, 55
1, 79602, Note_on_c, 0, 87, 67
1, 79602, Control_c, 0, 64, 49
1, 79602, Control_c, 0, 67, 20
1, 79610, Note_on_c, 0, 75, 47
1, 79617, Control_c, 0, 64, 0
1, 79617, Control_c, 0, 67, 22
1, 79620, Note_off_c, 0, 54, 62
1, 79623, Note_off_c, 0, 57, 63
1, 79626, Note_off_c, 0, 52, 54
1, 79632, Control_c, 0, 64, 47
1, 79632, Control_c, 0, 67, 23
1, 79647, Control_c, 0, 64, 62
1, 79658, Note_off_c, 0, 84, 54
1, 79662, Control_c, 0, 64, 65
1, 79676, Control_c, 0, 64, 68
1, 79691, Control_c, 0, 64, 72
1, 79706, Control_c, 0, 64, 76
1, 79706, Control_c, 0, 67, 22
1, 79709, Note_on_c, 0, 57, 58
1, 79718, Note_on_c, 0, 54, 45
1, 79721, Control_c, 0, 64, 80
1, 79721, Control_c, 0, 67, 21
1, 79734, Note_on_c, 0, 52, 4
1, 79736, Note_off_c, 0, 60, 0
1, 79736, Note_on_c, 0, 60, 2
1, 79736, Control_c, 0, 64, 82
1, 79736, Control_c, 0, 67, 20
1, 79745, Note_off_c, 0, 54, 61
1, 79745, Note_off_c, 0, 57, 62
1, 79751, Control_c, 0, 64, 83
1, 79751, Control_c, 0, 67, 20
1, 79766, Control_c, 0, 64, 85
1, 79766, Control_c, 0, 67, 19
1, 79779, Note_off_c, 0, 52, 0
1, 79781, Control_c, 0, 64, 86
1, 79781, Control_c, 0, 67, 19
1, 79791, Note_off_c, 0, 75, 37
1, 79796, Control_c, 0, 64, 88
1, 79796, Control_c, 0, 67, 18
1, 79806, Poly_aftertouch_c, 0, 52, 0
1, 79811, Control_c, 0, 64, 90
1, 79811, Control_c, 0, 67, 18
1, 79826, Control_c, 0, 67, 17
1, 79829, Note_on_c, 0, 57, 49
1, 79838, Note_on_c, 0, 54, 39
1, 79853, Note_off_c, 0, 57, 59
1, 79879, Note_off_c, 0, 54, 46
1, 79885, Control_c, 0, 64, 89
1, 79900, Control_c, 0, 64, 87
1, 79915, Control_c, 0, 64, 81
1, 79930, Control_c, 0, 64, 72
1, 79942, Note_off_c, 0, 87, 43
1, 79945, Control_c, 0, 64, 68
1, 79945, Control_c, 0, 67, 17
1, 79960, Control_c, 0, 64, 71
1, 79964, Note_on_c, 0, 57, 20
1, 79981, Control_c, 0, 64, 75
1, 79986, Note_on_c, 0, 54, 37
1, 79986, Note_on_c, 0, 52, 44
1, 79996, Control_c, 0, 64, 78
1, 80011, Control_c, 0, 64, 81
1, 80011, Control_c, 0, 67, 16
1, 80012, Note_off_c, 0, 60, 45
1, 80026, Control_c, 0, 64, 84
1, 80040, Control_c, 0, 64, 88
1, 80040, Control_c, 0, 67, 16
1, 80055, Control_c, 0, 64, 90
1, 80055, Control_c, 0, 67, 15
1, 80070, Control_c, 0, 64, 93
1, 80070, Control_c, 0, 67, 15
1, 80074, Note_off_c, 0, 57, 57
1, 80085, Control_c, 0, 64, 95
1, 80085, Control_c, 0, 67, 14
1, 80091, Note_off_c, 0, 52, 60
1, 80092, Note_off_c, 0, 54, 58
1, 80100, Control_c, 0, 64, 98
1, 80100, Control_c, 0, 67, 13
1, 80115, Control_c, 0, 64, 102
1, 80115, Control_c, 0, 67, 13
1, 80129, Control_c, 0, 64, 108
1, 80129, Control_c, 0, 67, 12
1, 80144, Control_c, 0, 64, 117
1, 80144, Control_c, 0, 67, 10
1, 80159, Control_c, 0, 64, 127
1, 80159, Control_c, 0, 67, 0
1, 80248, Note_on_c, 0, 90, 96
1, 80258, Note_on_c, 0, 78, 76
1, 80324, Note_off_c, 0, 78, 61
1, 80381, Control_c, 0, 64, 87
1, 80390, Note_on_c, 0, 28, 67
1, 80396, Control_c, 0, 64, 64
1, 80399, Note_off_c, 0, 90, 63
1, 80404, Note_on_c, 0, 40, 57
1, 80411, Control_c, 0, 64, 0
1, 80424, Note_off_c, 0, 28, 64
1, 80425, Control_c, 0, 64, 61
1, 80440, Control_c, 0, 64, 66
1, 80446, Note_on_c, 0, 95, 92
1, 80455, Control_c, 0, 64, 70
1, 80460, Note_on_c, 0, 88, 51
1, 80461, Note_on_c, 0, 83, 61
1, 80466, Note_off_c, 0, 40, 64
1, 80470, Control_c, 0, 64, 74
1, 80485, Control_c, 0, 64, 78
1, 80499, Control_c, 0, 64, 82
1, 80514, Control_c, 0, 64, 84
1, 80529, Control_c, 0, 64, 85
1, 80544, Control_c, 0, 64, 86
1, 80552, Note_off_c, 0, 88, 0
1, 80552, Note_on_c, 0, 88, 11
1, 80559, Control_c, 0, 64, 88
1, 80574, Control_c, 0, 64, 89
1, 80588, Control_c, 0, 64, 90
1, 80604, Control_c, 0, 64, 90
1, 80609, Note_on_c, 0, 59, 56
1, 80615, Note_on_c, 0, 52, 51
1, 80619, Control_c, 0, 64, 91
1, 80624, Note_on_c, 0, 56, 43
1, 80630, Note_off_c, 0, 59, 62
1, 80646, Note_off_c, 0, 52, 55
1, 80648, Control_c, 0, 64, 91
1, 80653, Note_off_c, 0, 56, 52
1, 80678, Control_c, 0, 64, 92
1, 80693, Control_c, 0, 64, 92
1, 80708, Control_c, 0, 64, 93
1, 80714, Note_off_c, 0, 83, 37
1, 80714, Note_on_c, 0, 59, 61
1, 80715, Note_on_c, 0, 52, 65
1, 80720, Note_on_c, 0, 56, 66
1, 80730, Control_c, 0, 64, 93
1, 80746, Note_off_c, 0, 56, 66
1, 80749, Note_off_c, 0, 59, 66
1, 80749, Note_off_c, 0, 52, 62
1, 80760, Control_c, 0, 64, 94
1, 80775, Control_c, 0, 64, 95
1, 80790, Control_c, 0, 64, 96
1, 80826, Note_on_c, 0, 56, 67
1, 80827, Note_on_c, 0, 52, 63
1, 80830, Note_on_c, 0, 59, 62
1, 80834, Control_c, 0, 64, 97
1, 80842, Note_off_c, 0, 95, 59
1, 80849, Control_c, 0, 64, 99
1, 80853, Note_off_c, 0, 59, 69
1, 80857, Note_off_c, 0, 52, 62
1, 80857, Note_off_c, 0, 56, 65
1, 80863, Control_c, 0, 64, 101
1, 80878, Control_c, 0, 64, 103
1, 80893, Control_c, 0, 64, 103
1, 80923, Control_c, 0, 64, 104
1, 80932, Note_on_c, 0, 56, 73
1, 80935, Note_on_c, 0, 59, 70
1, 80937, Note_on_c, 0, 52, 56
1, 80937, Control_c, 0, 64, 107
1, 80952, Control_c, 0, 64, 111
1, 80962, Note_off_c, 0, 59, 65
1, 80964, Note_off_c, 0, 56, 65
1, 80967, Note_off_c, 0, 52, 57
1, 80967, Control_c, 0, 64, 113
1, 80982, Control_c, 0, 64, 113
1, 80997, Control_c, 0, 64, 114
1, 81012, Control_c, 0, 64, 117
1, 81027, Control_c, 0, 64, 127
1, 81034, Note_on_c, 0, 59, 65
1, 81039, Note_on_c, 0, 52, 68
1, 81039, Note_on_c, 0, 56, 65
1, 81051, Note_on_c, 0, 92, 99
1, 81054, Note_on_c, 0, 80, 83
1, 81062, Note_off_c, 0, 59, 61
1, 81070, Note_off_c, 0, 52, 63
1, 81070, Note_off_c, 0, 56, 65
1, 81072, Note_off_c, 0, 88, 45
1, 81102, Note_off_c, 0, 80, 63
1, 81142, Note_off_c, 0, 92, 68
1, 81146, Note_on_c, 0, 52, 63
1, 81150, Note_on_c, 0, 59, 67
1, 81153, Note_on_c, 0, 56, 62
1, 81160, Control_c, 0, 64, 99
1, 81161, Note_on_c, 0, 90, 97
1, 81165, Note_on_c, 0, 78, 95
1, 81175, Control_c, 0, 64, 87
1, 81179, Note_off_c, 0, 59, 64
1, 81185, Note_off_c, 0, 56, 64
1, 81186, Note_off_c, 0, 52, 62
1, 81190, Control_c, 0, 64, 85
1, 81204, Control_c, 0, 64, 86
1, 81219, Control_c, 0, 64, 91
1, 81234, Control_c, 0, 64, 98
1, 81249, Control_c, 0, 64, 108
1, 81253, Note_on_c, 0, 59, 67
1, 81255, Note_on_c, 0, 52, 65
1, 81261, Note_on_c, 0, 56, 71
1, 81263, Control_c, 0, 64, 127
1, 81289, Note_off_c, 0, 59, 57
1, 81290, Note_off_c, 0, 56, 67
1, 81291, Note_off_c, 0, 52, 63
1, 81294, Note_off_c, 0, 78, 61
1, 81303, Note_off_c, 0, 90, 65
1, 81368, Note_on_c, 0, 56, 56
1, 81377, Note_on_c, 0, 59, 63
1, 81382, Note_on_c, 0, 88, 100
1, 81386, Note_on_c, 0, 52, 45
1, 81387, Note_on_c, 0, 76, 88
1, 81402, Note_off_c, 0, 56, 64
1, 81409, Note_off_c, 0, 59, 63
1, 81419, Note_off_c, 0, 52, 54
1, 81431, Note_off_c, 0, 76, 61
1, 81438, Note_off_c, 0, 88, 60
1, 81493, Control_c, 0, 64, 99
1, 81506, Note_on_c, 0, 60, 73
1, 81508, Control_c, 0, 64, 72
1, 81510, Note_on_c, 0, 52, 49
1, 81512, Note_on_c, 0, 88, 88
1, 81519, Note_on_c, 0, 57, 55
1, 81521, Note_on_c, 0, 84, 71
1, 81523, Control_c, 0, 64, 0
1, 81524, Note_on_c, 0, 76, 67
1, 81528, Note_on_c, 0, 81, 62
1, 81532, Note_on_c, 0, 54, 36
1, 81536, Note_off_c, 0, 52, 56
1, 81548, Note_off_c, 0, 57, 65
1, 81563, Note_off_c, 0, 54, 52
1, 81567, Control_c, 0, 64, 48
1, 81582, Control_c, 0, 64, 63
1, 81597, Control_c, 0, 64, 68
1, 81612, Control_c, 0, 64, 71
1, 81623, Note_on_c, 0, 57, 65
1, 81626, Note_off_c, 0, 81, 0
1, 81626, Note_on_c, 0, 81, 17
1, 81626, Control_c, 0, 64, 74
1, 81636, Note_on_c, 0, 52, 24
1, 81639, Note_on_c, 0, 54, 55
1, 81641, Control_c, 0, 64, 77
1, 81656, Control_c, 0, 64, 79
1, 81658, Note_off_c, 0, 57, 63
1, 81665, Note_off_c, 0, 54, 60
1, 81671, Control_c, 0, 64, 82
1, 81682, Note_off_c, 0, 52, 40
1, 81685, Control_c, 0, 64, 84
1, 81700, Control_c, 0, 64, 86
1, 81714, Note_off_c, 0, 76, 61
1, 81715, Control_c, 0, 64, 88
1, 81730, Control_c, 0, 64, 90
1, 81741, Note_on_c, 0, 54, 49
1, 81744, Note_on_c, 0, 57, 53
1, 81745, Control_c, 0, 64, 92
1, 81760, Control_c, 0, 64, 93
1, 81765, Note_off_c, 0, 54, 60
1, 81766, Note_off_c, 0, 57, 63
1, 81794, Note_off_c, 0, 88, 55
1, 81858, Note_on_c, 0, 57, 42
1, 81862, Note_on_c, 0, 54, 38
1, 81891, Note_off_c, 0, 81, 57
1, 81893, Note_off_c, 0, 54, 57
1, 81893, Control_c, 0, 64, 90
1, 81894, Note_on_c, 0, 87, 70
1, 81901, Note_off_c, 0, 57, 61
1, 81908, Control_c, 0, 64, 84
1, 81910, Note_on_c, 0, 75, 39
1, 81912, Poly_aftertouch_c, 0, 52, 127
1, 81923, Control_c, 0, 64, 73
1, 81938, Control_c, 0, 64, 60
1, 81947, Note_off_c, 0, 84, 54
1, 81952, Control_c, 0, 64, 56
1, 81960, Poly_aftertouch_c, 0, 52, 0
1, 81967, Control_c, 0, 64, 63
1, 81982, Control_c, 0, 64, 66
1, 81994, Note_on_c, 0, 54, 36
1, 81994, Note_on_c, 0, 57, 50
1, 81997, Control_c, 0, 64, 69
1, 82011, Control_c, 0, 64, 72
1, 82017, Note_off_c, 0, 57, 60
1, 82025, Note_off_c, 0, 54, 56
1, 82026, Control_c, 0, 64, 75
1, 82041, Control_c, 0, 64, 79
1, 82047, Note_off_c, 0, 75, 58
1, 82056, Control_c, 0, 64, 83
1, 82070, Control_c, 0, 64, 86
1, 82085, Control_c, 0, 64, 88
1, 82100, Note_on_c, 0, 57, 46
1, 82100, Control_c, 0, 64, 91
1, 82102, Note_on_c, 0, 54, 57
1, 82115, Control_c, 0, 64, 94
1, 82129, Note_off_c, 0, 54, 63
1, 82130, Control_c, 0, 64, 96
1, 82132, Note_off_c, 0, 57, 55
1, 82145, Control_c, 0, 64, 97
1, 82151, Poly_aftertouch_c, 0, 52, 127
1, 82159, Control_c, 0, 64, 98
1, 82169, Note_off_c, 0, 87, 56
1, 82174, Control_c, 0, 64, 100
1, 82189, Control_c, 0, 64, 104
1, 82205, Control_c, 0, 64, 107
1, 82234, Note_on_c, 0, 54, 50
1, 82237, Note_on_c, 0, 57, 50
1, 82240, Poly_aftertouch_c, 0, 52, 0
1, 82243, Control_c, 0, 64, 106
1, 82253, Note_on_c, 0, 52, 45
1, 82257, Control_c, 0, 64, 98
1, 82271, Note_off_c, 0, 60, 56
1, 82272, Control_c, 0, 64, 93
1, 82287, Control_c, 0, 64, 92
1, 82329, Note_off_c, 0, 57, 61
1, 82331, Control_c, 0, 64, 92
1, 82346, Control_c, 0, 64, 95
1, 82347, Note_off_c, 0, 52, 63
1, 82357, Note_off_c, 0, 54, 56
1, 82361, Control_c, 0, 64, 99
1, 82375, Control_c, 0, 64, 105
1, 82390, Control_c, 0, 64, 110
1, 82405, Control_c, 0, 64, 118
1, 82420, Control_c, 0, 64, 127
1, 82475, Note_on_c, 0, 90, 97
1, 82487, Note_on_c, 0, 78, 80
1, 82551, Note_off_c, 0, 78, 61
1, 82613, Control_c, 0, 64, 91
1, 82623, Note_on_c, 0, 28, 63
1, 82624, Note_off_c, 0, 90, 63
1, 82627, Control_c, 0, 64, 64
1, 82634, Note_on_c, 0, 40, 57
1, 82642, Control_c, 0, 64, 0
1, 82662, Note_off_c, 0, 28, 63
1, 82672, Control_c, 0, 64, 49
1, 82677, Note_on_c, 0, 95, 96
1, 82685, Note_on_c, 0, 88, 60
1, 82687, Control_c, 0, 64, 62
1, 82692, Note_on_c, 0, 83, 67
1, 82701, Control_c, 0, 64, 68
1, 82703, Note_off_c, 0, 40, 63
1, 82716, Control_c, 0, 64, 73
1, 82731, Control_c, 0, 64, 78
1, 82746, Control_c, 0, 64, 83
1, 82761, Control_c, 0, 64, 85
1, 82772, Note_off_c, 0, 88, 0
1, 82772, Note_on_c, 0, 88, 8
1, 82775, Control_c, 0, 64, 87
1, 82790, Control_c, 0, 64, 88
1, 82805, Control_c, 0, 64, 91
1, 82819, Control_c, 0, 64, 94
1, 82834, Control_c, 0, 64, 97
1, 82849, Control_c, 0, 64, 99
1, 82857, Note_on_c, 0, 59, 67
1, 82864, Control_c, 0, 64, 102
1, 82865, Note_on_c, 0, 52, 60
1, 82865, Note_on_c, 0, 56, 58
1, 82879, Control_c, 0, 64, 104
1, 82884, Note_off_c, 0, 59, 66
1, 82888, Note_off_c, 0, 56, 63
1, 82893, Control_c, 0, 64, 106
1, 82899, Note_off_c, 0, 52, 63
1, 82908, Control_c, 0, 64, 109
1, 82923, Control_c, 0, 64, 117
1, 82938, Control_c, 0, 64, 127
1, 82952, Note_off_c, 0, 83, 39
1, 82988, Note_on_c, 0, 56, 59
1, 82989, Note_on_c, 0, 52, 57
1, 82994, Note_on_c, 0, 59, 56
1, 83021, Note_off_c, 0, 56, 65
1, 83025, Note_off_c, 0, 59, 64
1, 83027, Note_off_c, 0, 52, 60
1, 83094, Note_off_c, 0, 95, 59
1, 83121, Note_on_c, 0, 52, 56
1, 83121, Note_on_c, 0, 59, 55
1, 83123, Note_on_c, 0, 56, 60
1, 83146, Note_off_c, 0, 59, 65
1, 83152, Note_off_c, 0, 56, 66
1, 83155, Note_off_c, 0, 52, 62
1, 83220, Note_on_c, 0, 56, 70
1, 83220, Note_on_c, 0, 59, 72
1, 83226, Note_on_c, 0, 52, 66
1, 83247, Note_off_c, 0, 59, 64
1, 83262, Note_off_c, 0, 56, 64
1, 83269, Note_off_c, 0, 52, 58
1, 83336, Note_on_c, 0, 92, 93
1, 83342, Note_on_c, 0, 80, 80
1, 83345, Note_on_c, 0, 59, 65
1, 83357, Note_on_c, 0, 56, 54
1, 83370, Note_off_c, 0, 88, 41
1, 83380, Note_off_c, 0, 56, 66
1, 83382, Note_off_c, 0, 59, 57
1, 83397, Note_off_c, 0, 80, 61
1, 83438, Note_off_c, 0, 92, 67
1, 83476, Note_on_c, 0, 90, 94
1, 83480, Control_c, 0, 64, 114
1, 83481, Note_on_c, 0, 78, 87
1, 83487, Note_on_c, 0, 44, 70
1, 83495, Control_c, 0, 64, 75
1, 83510, Control_c, 0, 64, 49
1, 83524, Control_c, 0, 64, 59
1, 83539, Control_c, 0, 64, 66
1, 83554, Control_c, 0, 64, 72
1, 83569, Control_c, 0, 64, 78
1, 83584, Control_c, 0, 64, 89
1, 83586, Note_off_c, 0, 44, 63
1, 83598, Control_c, 0, 64, 100
1, 83599, Note_on_c, 0, 59, 70
1, 83606, Note_on_c, 0, 52, 63
1, 83613, Control_c, 0, 64, 109
1, 83626, Note_off_c, 0, 59, 65
1, 83628, Control_c, 0, 64, 115
1, 83639, Note_off_c, 0, 78, 63
1, 83639, Note_off_c, 0, 90, 66
1, 83642, Control_c, 0, 64, 120
1, 83643, Note_off_c, 0, 52, 61
1, 83657, Control_c, 0, 64, 127
1, 83707, Note_on_c, 0, 88, 100
1, 83711, Note_on_c, 0, 76, 84
1, 83715, Note_on_c, 0, 59, 61
1, 83730, Note_on_c, 0, 52, 60
1, 83739, Note_off_c, 0, 59, 67
1, 83758, Note_off_c, 0, 76, 61
1, 83765, Note_off_c, 0, 52, 59
1, 83829, Control_c, 0, 64, 105
1, 83844, Control_c, 0, 64, 80
1, 83859, Control_c, 0, 64, 56
1, 83862, Note_off_c, 0, 88, 54
1, 83866, Note_on_c, 0, 87, 85
1, 83867, Note_on_c, 0, 42, 63
1, 83873, Note_on_c, 0, 75, 72
1, 83873, Note_on_c, 0, 83, 56
1, 83873, Control_c, 0, 64, 0
1, 83888, Control_c, 0, 64, 44
1, 83903, Control_c, 0, 64, 65
1, 83918, Control_c, 0, 64, 70
1, 83919, Note_off_c, 0, 42, 63
1, 83933, Control_c, 0, 64, 76
1, 83947, Control_c, 0, 64, 81
1, 83962, Control_c, 0, 64, 86
1, 83977, Control_c, 0, 64, 90
1, 83992, Control_c, 0, 64, 94
1, 84007, Control_c, 0, 64, 98
1, 84021, Control_c, 0, 64, 102
1, 84030, Note_on_c, 0, 63, 72
1, 84036, Control_c, 0, 64, 104
1, 84051, Control_c, 0, 64, 107
1, 84063, Note_off_c, 0, 63, 58
1, 84063, Note_off_c, 0, 75, 62
1, 84066, Control_c, 0, 64, 111
1, 84067, Note_on_c, 0, 54, 22
1, 84073, Note_on_c, 0, 59, 30
1, 84080, Control_c, 0, 64, 118
1, 84095, Control_c, 0, 64, 127
1, 84108, Note_off_c, 0, 59, 49
1, 84110, Note_off_c, 0, 54, 54
1, 84143, Note_on_c, 0, 88, 93
1, 84151, Note_on_c, 0, 63, 74
1, 84154, Note_on_c, 0, 76, 82
1, 84154, Note_off_c, 0, 87, 61
1, 84157, Note_off_c, 0, 83, 64
1, 84159, Note_on_c, 0, 54, 51
1, 84182, Note_off_c, 0, 63, 64
1, 84185, Note_on_c, 0, 59, 38
1, 84190, Note_off_c, 0, 76, 61
1, 84194, Note_off_c, 0, 54, 63
1, 84220, Note_off_c, 0, 59, 48
1, 84258, Note_on_c, 0, 63, 77
1, 84259, Note_on_c, 0, 78, 85
1, 84261, Note_on_c, 0, 90, 98
1, 84266, Note_on_c, 0, 54, 66
1, 84279, Note_on_c, 0, 59, 56
1, 84288, Note_off_c, 0, 88, 63
1, 84299, Note_off_c, 0, 54, 63
1, 84308, Note_off_c, 0, 63, 59
1, 84309, Note_off_c, 0, 59, 64
1, 84377, Note_on_c, 0, 63, 73
1, 84379, Note_on_c, 0, 59, 66
1, 84395, Note_on_c, 0, 54, 57
1, 84411, Note_off_c, 0, 90, 64
1, 84420, Note_off_c, 0, 63, 58
1, 84422, Note_off_c, 0, 54, 66
1, 84428, Note_off_c, 0, 59, 58
1, 84432, Note_off_c, 0, 78, 63
1, 84500, Note_on_c, 0, 54, 66
1, 84500, Note_on_c, 0, 63, 76
1, 84517, Note_on_c, 0, 59, 53
1, 84536, Note_off_c, 0, 54, 63
1, 84541, Note_off_c, 0, 59, 68
1, 84549, Note_off_c, 0, 63, 57
1, 84607, Control_c, 0, 64, 104
1, 84622, Control_c, 0, 64, 78
1, 84631, Note_on_c, 0, 85, 95
1, 84633, Note_on_c, 0, 64, 62
1, 84637, Control_c, 0, 64, 0
1, 84638, Note_on_c, 0, 73, 75
1, 84648, Note_on_c, 0, 54, 44
1, 84648, Note_on_c, 0, 82, 66
1, 84654, Note_on_c, 0, 58, 36
1, 84663, Note_off_c, 0, 64, 65
1, 84666, Control_c, 0, 64, 47
1, 84670, Note_off_c, 0, 54, 63
1, 84681, Control_c, 0, 64, 62
1, 84685, Note_off_c, 0, 58, 54
1, 84696, Control_c, 0, 64, 65
1, 84711, Control_c, 0, 64, 70
1, 84726, Control_c, 0, 64, 75
1, 84741, Control_c, 0, 64, 81
1, 84751, Note_on_c, 0, 64, 73
1, 84753, Note_on_c, 0, 54, 56
1, 84756, Note_on_c, 0, 58, 66
1, 84756, Control_c, 0, 64, 86
1, 84758, Note_off_c, 0, 73, 58
1, 84770, Control_c, 0, 64, 91
1, 84783, Note_off_c, 0, 64, 62
1, 84785, Control_c, 0, 64, 95
1, 84800, Control_c, 0, 64, 99
1, 84801, Note_off_c, 0, 54, 62
1, 84806, Note_off_c, 0, 58, 54
1, 84815, Control_c, 0, 64, 105
1, 84829, Control_c, 0, 64, 114
1, 84844, Control_c, 0, 64, 127
1, 84887, Note_off_c, 0, 82, 59
1, 84888, Note_on_c, 0, 87, 94
1, 84895, Note_off_c, 0, 85, 63
1, 84902, Note_on_c, 0, 64, 69
1, 84905, Note_on_c, 0, 75, 84
1, 84916, Note_on_c, 0, 54, 59
1, 84920, Note_on_c, 0, 58, 53
1, 84926, Note_off_c, 0, 64, 69
1, 84940, Note_off_c, 0, 87, 66
1, 84949, Note_off_c, 0, 58, 64
1, 84956, Note_off_c, 0, 54, 64
1, 84958, Note_off_c, 0, 75, 63
1, 85032, Note_on_c, 0, 80, 34
1, 85066, Note_off_c, 0, 80, 54
1, 85066, Control_c, 0, 64, 97
1, 85069, Note_on_c, 0, 72, 61
1, 85079, Note_on_c, 0, 75, 59
1, 85081, Control_c, 0, 64, 75
1, 85089, Note_on_c, 0, 81, 67
1, 85091, Note_on_c, 0, 84, 86
1, 85096, Control_c, 0, 64, 26
1, 85097, Note_off_c, 0, 75, 66
1, 85104, Note_off_c, 0, 72, 60
1, 85108, Note_on_c, 0, 42, 58
1, 85111, Note_on_c, 0, 54, 54
1, 85111, Control_c, 0, 64, 0
1, 85118, Note_off_c, 0, 81, 63
1, 85140, Control_c, 0, 64, 21
1, 85155, Control_c, 0, 64, 53
1, 85170, Control_c, 0, 64, 63
1, 85185, Control_c, 0, 64, 66
1, 85200, Control_c, 0, 64, 69
1, 85221, Control_c, 0, 64, 71
1, 85236, Control_c, 0, 64, 73
1, 85245, Note_on_c, 0, 72, 57
1, 85247, Note_on_c, 0, 81, 67
1, 85251, Control_c, 0, 64, 76
1, 85257, Note_on_c, 0, 75, 48
1, 85266, Note_off_c, 0, 72, 61
1, 85266, Control_c, 0, 64, 79
1, 85280, Note_off_c, 0, 75, 60
1, 85281, Control_c, 0, 64, 81
1, 85291, Note_off_c, 0, 81, 58
1, 85295, Control_c, 0, 64, 82
1, 85310, Control_c, 0, 64, 84
1, 85325, Control_c, 0, 64, 86
1, 85340, Control_c, 0, 64, 89
1, 85355, Control_c, 0, 64, 91
1, 85365, Note_on_c, 0, 75, 64
1, 85366, Note_on_c, 0, 72, 55
1, 85370, Control_c, 0, 64, 92
1, 85375, Note_on_c, 0, 81, 62
1, 85383, Note_off_c, 0, 72, 65
1, 85390, Note_off_c, 0, 75, 68
1, 85404, Note_off_c, 0, 81, 66
1, 85429, Note_off_c, 0, 54, 64
1, 85430, Control_c, 0, 64, 92
1, 85444, Control_c, 0, 64, 89
1, 85459, Control_c, 0, 64, 85
1, 85474, Control_c, 0, 64, 82
1, 85475, Note_on_c, 0, 72, 56
1, 85486, Note_on_c, 0, 75, 67
1, 85489, Control_c, 0, 67, 8
1, 85495, Note_on_c, 0, 81, 63
1, 85504, Note_off_c, 0, 72, 66
1, 85504, Control_c, 0, 64, 83
1, 85504, Control_c, 0, 67, 11
1, 85513, Note_off_c, 0, 75, 66
1, 85519, Control_c, 0, 64, 85
1, 85519, Control_c, 0, 67, 15
1, 85521, Note_off_c, 0, 81, 67
1, 85534, Control_c, 0, 64, 87
1, 85534, Control_c, 0, 67, 18
1, 85549, Control_c, 0, 64, 88
1, 85549, Control_c, 0, 67, 22
1, 85564, Control_c, 0, 64, 89
1, 85564, Control_c, 0, 67, 26
1, 85579, Control_c, 0, 64, 89
1, 85579, Control_c, 0, 67, 29
1, 85593, Note_on_c, 0, 72, 61
1, 85593, Control_c, 0, 64, 90
1, 85593, Control_c, 0, 67, 33
1, 85600, Note_on_c, 0, 75, 61
1, 85605, Note_on_c, 0, 81, 64
1, 85608, Control_c, 0, 64, 91
1, 85608, Control_c, 0, 67, 37
1, 85613, Note_off_c, 0, 72, 62
1, 85623, Control_c, 0, 64, 92
1, 85623, Control_c, 0, 67, 41
1, 85626, Note_off_c, 0, 75, 68
1, 85635, Note_off_c, 0, 81, 62
1, 85638, Control_c, 0, 64, 92
1, 85638, Control_c, 0, 67, 44
1, 85652, Control_c, 0, 67, 48
1, 85667, Control_c, 0, 67, 50
1, 85682, Control_c, 0, 67, 54
1, 85697, Control_c, 0, 64, 93
1, 85697, Control_c, 0, 67, 60
1, 85710, Note_off_c, 0, 42, 60
1, 85712, Control_c, 0, 67, 65
1, 85713, Note_on_c, 0, 72, 59
1, 85726, Note_on_c, 0, 81, 61
1, 85726, Control_c, 0, 67, 69
1, 85727, Note_off_c, 0, 84, 39
1, 85735, Note_on_c, 0, 75, 57
1, 85738, Note_on_c, 0, 51, 58
1, 85741, Control_c, 0, 67, 73
1, 85747, Note_on_c, 0, 39, 47
1, 85756, Control_c, 0, 67, 76
1, 85760, Note_off_c, 0, 75, 58
1, 85764, Note_off_c, 0, 72, 49
1, 85771, Note_off_c, 0, 51, 64
1, 85771, Control_c, 0, 67, 78
1, 85781, Note_off_c, 0, 39, 51
1, 85786, Control_c, 0, 67, 80
1, 85800, Control_c, 0, 67, 81
1, 85815, Control_c, 0, 64, 92
1, 85815, Control_c, 0, 67, 82
1, 85830, Control_c, 0, 64, 90
1, 85830, Control_c, 0, 67, 83
1, 85844, Control_c, 0, 64, 83
1, 85844, Control_c, 0, 67, 84
1, 85858, Note_off_c, 0, 81, 28
1, 85859, Control_c, 0, 64, 69
1, 85868, Note_on_c, 0, 83, 67
1, 85872, Note_on_c, 0, 39, 50
1, 85874, Control_c, 0, 64, 50
1, 85884, Note_on_c, 0, 51, 40
1, 85889, Control_c, 0, 64, 60
1, 85892, Note_on_c, 0, 71, 42
1, 85904, Control_c, 0, 64, 63
1, 85918, Control_c, 0, 64, 64
1, 85919, Note_off_c, 0, 71, 57
1, 85930, Note_off_c, 0, 51, 59
1, 85933, Control_c, 0, 64, 65
1, 85941, Poly_aftertouch_c, 0, 75, 0
1, 85943, Note_off_c, 0, 39, 55
1, 85948, Control_c, 0, 64, 67
1, 85970, Control_c, 0, 64, 71
1, 85985, Control_c, 0, 64, 73
1, 86000, Control_c, 0, 64, 74
1, 86015, Control_c, 0, 64, 74
1, 86030, Control_c, 0, 64, 76
1, 86030, Control_c, 0, 67, 83
1, 86032, Note_on_c, 0, 71, 34
1, 86044, Note_on_c, 0, 49, 60
1, 86044, Note_on_c, 0, 81, 46
1, 86044, Control_c, 0, 64, 78
1, 86044, Control_c, 0, 67, 83
1, 86057, Note_on_c, 0, 37, 41
1, 86059, Control_c, 0, 64, 82
1, 86063, Note_off_c, 0, 71, 54
1, 86074, Control_c, 0, 64, 84
1, 86077, Note_off_c, 0, 81, 56
1, 86085, Note_off_c, 0, 49, 57
1, 86089, Control_c, 0, 64, 86
1, 86089, Control_c, 0, 67, 82
1, 86104, Control_c, 0, 64, 87
1, 86104, Control_c, 0, 67, 82
1, 86118, Control_c, 0, 64, 88
1, 86127, Note_off_c, 0, 37, 37
1, 86133, Control_c, 0, 64, 91
1, 86133, Control_c, 0, 67, 81
1, 86148, Control_c, 0, 64, 94
1, 86163, Control_c, 0, 64, 96
1, 86178, Control_c, 0, 67, 81
1, 86194, Control_c, 0, 64, 97
1, 86209, Control_c, 0, 64, 99
1, 86209, Control_c, 0, 67, 80
1, 86213, Note_on_c, 0, 71, 35
1, 86222, Note_on_c, 0, 81, 52
1, 86223, Control_c, 0, 64, 103
1, 86225, Note_on_c, 0, 47, 44
1, 86228, Note_on_c, 0, 35, 49
1, 86238, Note_on_c, 0, 75, 23
1, 86238, Control_c, 0, 64, 107
1, 86242, Note_off_c, 0, 71, 54
1, 86253, Control_c, 0, 64, 108
1, 86253, Control_c, 0, 67, 80
1, 86258, Note_off_c, 0, 47, 53
1, 86264, Note_off_c, 0, 35, 63
1, 86267, Note_off_c, 0, 83, 59
1, 86272, Note_off_c, 0, 81, 63
1, 86277, Note_off_c, 0, 75, 53
1, 86282, Control_c, 0, 64, 109
1, 86297, Control_c, 0, 64, 109
1, 86327, Control_c, 0, 64, 110
1, 86327, Control_c, 0, 67, 79
1, 86342, Control_c, 0, 67, 79
1, 86461, Control_c, 0, 64, 109
1, 86475, Control_c, 0, 64, 104
1, 86490, Control_c, 0, 64, 89
1, 86505, Note_on_c, 0, 28, 62
1, 86505, Control_c, 0, 64, 69
1, 86517, Note_on_c, 0, 40, 58
1, 86520, Control_c, 0, 64, 0
1, 86549, Control_c, 0, 67, 78
1, 86558, Note_on_c, 0, 95, 94
1, 86564, Control_c, 0, 64, 47
1, 86568, Note_on_c, 0, 88, 64
1, 86570, Note_off_c, 0, 28, 61
1, 86579, Control_c, 0, 64, 63
1, 86579, Control_c, 0, 67, 78
1, 86580, Note_on_c, 0, 83, 59
1, 86593, Control_c, 0, 64, 69
1, 86593, Control_c, 0, 67, 77
1, 86607, Note_off_c, 0, 40, 65
1, 86608, Control_c, 0, 64, 74
1, 86608, Control_c, 0, 67, 77
1, 86623, Control_c, 0, 64, 79
1, 86623, Control_c, 0, 67, 76
1, 86638, Control_c, 0, 64, 83
1, 86638, Control_c, 0, 67, 75
1, 86653, Control_c, 0, 64, 86
1, 86653, Control_c, 0, 67, 74
1, 86667, Control_c, 0, 64, 89
1, 86667, Control_c, 0, 67, 74
1, 86670, Note_off_c, 0, 88, 0
1, 86670, Note_on_c, 0, 88, 3
1, 86682, Control_c, 0, 64, 92
1, 86697, Control_c, 0, 64, 93
1, 86697, Control_c, 0, 67, 73
1, 86720, Control_c, 0, 64, 93
1, 86720, Control_c, 0, 67, 73
1, 86735, Control_c, 0, 64, 94
1, 86749, Control_c, 0, 64, 95
1, 86749, Control_c, 0, 67, 72
1, 86764, Control_c, 0, 64, 95
1, 86779, Control_c, 0, 64, 96
1, 86800, Note_on_c, 0, 52, 51
1, 86803, Note_on_c, 0, 59, 48
1, 86804, Note_on_c, 0, 56, 49
1, 86808, Control_c, 0, 64, 96
1, 86831, Note_off_c, 0, 59, 57
1, 86833, Note_off_c, 0, 56, 64
1, 86836, Note_off_c, 0, 52, 64
1, 86866, Note_off_c, 0, 83, 44
1, 86868, Control_c, 0, 64, 97
1, 86882, Control_c, 0, 64, 98
1, 86912, Control_c, 0, 64, 97
1, 86916, Note_on_c, 0, 59, 63
1, 86920, Note_on_c, 0, 56, 64
1, 86924, Note_on_c, 0, 52, 54
1, 86927, Control_c, 0, 64, 90
1, 86941, Control_c, 0, 64, 82
1, 86950, Note_off_c, 0, 59, 60
1, 86955, Note_off_c, 0, 52, 62
1, 86956, Note_off_c, 0, 56, 62
1, 86956, Control_c, 0, 64, 77
1, 86971, Control_c, 0, 64, 76
1, 86986, Control_c, 0, 64, 77
1, 87002, Control_c, 0, 64, 78
1, 87016, Control_c, 0, 64, 81
1, 87031, Control_c, 0, 64, 83
1, 87044, Note_on_c, 0, 59, 70
1, 87046, Control_c, 0, 64, 87
1, 87047, Note_off_c, 0, 95, 59
1, 87048, Note_on_c, 0, 52, 51
1, 87050, Note_on_c, 0, 56, 69
1, 87061, Control_c, 0, 64, 90
1, 87076, Control_c, 0, 64, 94
1, 87076, Control_c, 0, 67, 72
1, 87090, Control_c, 0, 64, 96
1, 87105, Control_c, 0, 64, 99
1, 87105, Control_c, 0, 67, 71
1, 87120, Control_c, 0, 64, 102
1, 87120, Control_c, 0, 67, 71
1, 87135, Control_c, 0, 64, 104
1, 87135, Control_c, 0, 67, 70
1, 87141, Note_on_c, 0, 61, 78
1, 87144, Note_off_c, 0, 56, 60
1, 87145, Note_off_c, 0, 59, 59
1, 87147, Note_off_c, 0, 52, 63
1, 87150, Control_c, 0, 64, 105
1, 87150, Control_c, 0, 67, 69
1, 87164, Control_c, 0, 64, 106
1, 87164, Control_c, 0, 67, 66
1, 87177, Note_off_c, 0, 61, 58
1, 87179, Control_c, 0, 64, 107
1, 87179, Control_c, 0, 67, 59
1, 87194, Control_c, 0, 67, 48
1, 87209, Control_c, 0, 67, 37
1, 87224, Control_c, 0, 67, 29
1, 87239, Control_c, 0, 64, 108
1, 87239, Control_c, 0, 67, 27
1, 87250, Note_on_c, 0, 92, 97
1, 87251, Note_on_c, 0, 56, 65
1, 87252, Note_on_c, 0, 59, 66
1, 87254, Control_c, 0, 64, 108
1, 87254, Control_c, 0, 67, 25
1, 87262, Note_off_c, 0, 88, 50
1, 87263, Note_on_c, 0, 80, 73
1, 87269, Control_c, 0, 67, 23
1, 87273, Note_on_c, 0, 52, 47
1, 87283, Note_off_c, 0, 59, 61
1, 87284, Control_c, 0, 67, 19
1, 87286, Note_off_c, 0, 56, 60
1, 87298, Control_c, 0, 64, 109
1, 87298, Control_c, 0, 67, 18
1, 87299, Note_off_c, 0, 52, 59
1, 87301, Note_off_c, 0, 80, 60
1, 87313, Control_c, 0, 64, 110
1, 87328, Control_c, 0, 64, 110
1, 87343, Control_c, 0, 64, 110
1, 87358, Control_c, 0, 64, 102
1, 87373, Control_c, 0, 64, 86
1, 87375, Note_on_c, 0, 90, 93
1, 87379, Note_off_c, 0, 92, 53
1, 87382, Note_on_c, 0, 52, 53
1, 87384, Note_on_c, 0, 78, 84
1, 87388, Note_on_c, 0, 56, 64
1, 87388, Control_c, 0, 64, 65
1, 87389, Note_on_c, 0, 59, 66
1, 87403, Control_c, 0, 64, 51
1, 87417, Control_c, 0, 64, 64
1, 87417, Control_c, 0, 67, 17
1, 87432, Control_c, 0, 64, 71
1, 87432, Control_c, 0, 67, 17
1, 87447, Control_c, 0, 64, 77
1, 87447, Control_c, 0, 67, 16
1, 87469, Control_c, 0, 64, 86
1, 87483, Note_off_c, 0, 56, 60
1, 87484, Control_c, 0, 64, 95
1, 87484, Control_c, 0, 67, 15
1, 87498, Note_on_c, 0, 61, 83
1, 87498, Control_c, 0, 64, 102
1, 87498, Control_c, 0, 67, 15
1, 87504, Note_off_c, 0, 52, 54
1, 87507, Note_off_c, 0, 59, 37
1, 87507, Note_off_c, 0, 78, 62
1, 87513, Control_c, 0, 64, 106
1, 87513, Control_c, 0, 67, 13
1, 87516, Note_off_c, 0, 90, 65
1, 87528, Control_c, 0, 64, 110
1, 87528, Control_c, 0, 67, 11
1, 87543, Control_c, 0, 64, 115
1, 87543, Control_c, 0, 67, 10
1, 87549, Note_off_c, 0, 61, 60
1, 87558, Control_c, 0, 64, 121
1, 87558, Control_c, 0, 67, 9
1, 87573, Control_c, 0, 64, 127
1, 87573, Control_c, 0, 67, 8
1, 87588, Control_c, 0, 67, 0
1, 87600, Note_on_c, 0, 56, 61
1, 87609, Note_on_c, 0, 88, 99
1, 87616, Note_on_c, 0, 76, 84
1, 87624, Note_on_c, 0, 59, 48
1, 87634, Note_off_c, 0, 56, 61
1, 87647, Note_off_c, 0, 59, 60
1, 87647, Note_off_c, 0, 76, 58
1, 87654, Note_off_c, 0, 88, 64
1, 87706, Control_c, 0, 64, 123
1, 87721, Control_c, 0, 64, 108
1, 87726, Note_on_c, 0, 88, 88
1, 87736, Control_c, 0, 64, 92
1, 87737, Note_on_c, 0, 81, 59
1, 87738, Note_on_c, 0, 84, 70
1, 87740, Note_on_c, 0, 76, 72
1, 87750, Control_c, 0, 64, 74
1, 87765, Control_c, 0, 64, 19
1, 87780, Control_c, 0, 64, 0
1, 87826, Control_c, 0, 64, 30
1, 87840, Control_c, 0, 64, 59
1, 87847, Note_on_c, 0, 57, 68
1, 87847, Note_on_c, 0, 60, 72
1, 87853, Note_on_c, 0, 52, 59
1, 87855, Control_c, 0, 64, 64
1, 87870, Control_c, 0, 64, 66
1, 87871, Note_off_c, 0, 60, 70
1, 87876, Note_off_c, 0, 57, 65
1, 87885, Control_c, 0, 64, 70
1, 87886, Note_off_c, 0, 52, 64
1, 87892, Note_on_c, 0, 54, 7
1, 87900, Control_c, 0, 64, 74
1, 87925, Note_off_c, 0, 76, 59
1, 87929, Control_c, 0, 64, 68
1, 87933, Note_off_c, 0, 54, 0
1, 87944, Control_c, 0, 64, 0
1, 87954, Note_on_c, 0, 60, 77
1, 87954, Poly_aftertouch_c, 0, 54, 0
1, 87960, Note_on_c, 0, 52, 59
1, 87960, Note_on_c, 0, 57, 72
1, 87982, Note_off_c, 0, 60, 64
1, 87984, Note_off_c, 0, 57, 67
1, 87988, Control_c, 0, 67, 8
1, 87990, Poly_aftertouch_c, 0, 54, 127
1, 87992, Note_off_c, 0, 52, 63
1, 88003, Control_c, 0, 67, 8
1, 88018, Control_c, 0, 67, 9
1, 88025, Note_off_c, 0, 88, 56
1, 88027, Poly_aftertouch_c, 0, 54, 0
1, 88033, Control_c, 0, 64, 52
1, 88033, Control_c, 0, 67, 9
1, 88047, Control_c, 0, 64, 56
1, 88047, Control_c, 0, 67, 10
1, 88062, Control_c, 0, 64, 17
1, 88062, Control_c, 0, 67, 11
1, 88076, Note_on_c, 0, 52, 49
1, 88077, Note_on_c, 0, 57, 45
1, 88077, Control_c, 0, 64, 0
1, 88077, Control_c, 0, 67, 12
1, 88078, Note_on_c, 0, 60, 58
1, 88091, Control_c, 0, 67, 13
1, 88095, Note_on_c, 0, 75, 48
1, 88095, Note_on_c, 0, 87, 66
1, 88099, Note_off_c, 0, 81, 55
1, 88106, Control_c, 0, 67, 14
1, 88121, Note_on_c, 0, 54, 10
1, 88121, Control_c, 0, 67, 16
1, 88136, Control_c, 0, 67, 20
1, 88147, Note_off_c, 0, 84, 51
1, 88151, Control_c, 0, 67, 25
1, 88165, Control_c, 0, 67, 29
1, 88180, Control_c, 0, 67, 32
1, 88188, Note_off_c, 0, 57, 57
1, 88190, Note_off_c, 0, 60, 55
1, 88195, Control_c, 0, 67, 37
1, 88201, Note_on_c, 0, 62, 73
1, 88201, Note_off_c, 0, 52, 62
1, 88202, Note_off_c, 0, 54, 44
1, 88217, Control_c, 0, 67, 48
1, 88226, Note_off_c, 0, 75, 58
1, 88232, Control_c, 0, 67, 60
1, 88235, Note_off_c, 0, 62, 67
1, 88246, Control_c, 0, 64, 21
1, 88246, Control_c, 0, 67, 67
1, 88261, Control_c, 0, 64, 59
1, 88261, Control_c, 0, 67, 69
1, 88262, Note_off_c, 0, 87, 63
1, 88276, Control_c, 0, 64, 65
1, 88276, Control_c, 0, 67, 72
1, 88291, Control_c, 0, 64, 70
1, 88291, Control_c, 0, 67, 76
1, 88306, Control_c, 0, 64, 73
1, 88306, Control_c, 0, 67, 79
1, 88321, Control_c, 0, 64, 75
1, 88321, Control_c, 0, 67, 81
1, 88323, Note_on_c, 0, 60, 70
1, 88327, Note_on_c, 0, 57, 60
1, 88333, Note_on_c, 0, 52, 57
1, 88336, Control_c, 0, 67, 81
1, 88337, Note_on_c, 0, 54, 45
1, 88351, Control_c, 0, 67, 82
1, 88351, Note_off_c, 0, 60, 68
1, 88357, Note_off_c, 0, 57, 63
1, 88360, Note_off_c, 0, 52, 59
1, 88365, Note_off_c, 0, 54, 61
1, 88365, Control_c, 0, 67, 84
1, 88380, Control_c, 0, 67, 85
1, 88395, Control_c, 0, 67, 86
1, 88439, Note_on_c, 0, 52, 52
1, 88439, Control_c, 0, 64, 71
1, 88447, Note_on_c, 0, 57, 46
1, 88448, Note_on_c, 0, 54, 47
1, 88454, Control_c, 0, 64, 60
1, 88458, Note_on_c, 0, 60, 51
1, 88469, Control_c, 0, 64, 0
1, 88484, Control_c, 0, 67, 85
1, 88499, Control_c, 0, 67, 84
1, 88512, Note_off_c, 0, 54, 48
1, 88514, Control_c, 0, 64, 27
1, 88514, Control_c, 0, 67, 84
1, 88520, Note_off_c, 0, 60, 55
1, 88525, Note_off_c, 0, 57, 58
1, 88528, Control_c, 0, 64, 58
1, 88533, Note_off_c, 0, 52, 53
1, 88543, Control_c, 0, 64, 65
1, 88543, Control_c, 0, 67, 83
1, 88558, Control_c, 0, 64, 68
1, 88558, Control_c, 0, 67, 83
1, 88559, Note_on_c, 0, 62, 64
1, 88572, Control_c, 0, 64, 71
1, 88572, Control_c, 0, 67, 82
1, 88588, Control_c, 0, 64, 74
1, 88588, Control_c, 0, 67, 81
1, 88603, Control_c, 0, 64, 77
1, 88618, Control_c, 0, 64, 79
1, 88633, Control_c, 0, 64, 81
1, 88640, Note_off_c, 0, 62, 60
1, 88648, Control_c, 0, 64, 83
1, 88648, Control_c, 0, 67, 81
1, 88662, Control_c, 0, 64, 87
1, 88673, Note_on_c, 0, 52, 68
1, 88675, Note_on_c, 0, 60, 39
1, 88677, Control_c, 0, 64, 92
1, 88677, Control_c, 0, 67, 80
1, 88692, Control_c, 0, 64, 97
1, 88692, Control_c, 0, 67, 78
1, 88693, Note_on_c, 0, 90, 85
1, 88700, Note_off_c, 0, 60, 60
1, 88705, Note_off_c, 0, 52, 64
1, 88707, Control_c, 0, 64, 101
1, 88707, Control_c, 0, 67, 78
1, 88709, Note_on_c, 0, 78, 63
1, 88722, Control_c, 0, 64, 104
1, 88722, Control_c, 0, 67, 77
1, 88729, Poly_aftertouch_c, 0, 57, 127
1, 88736, Control_c, 0, 64, 106
1, 88751, Control_c, 0, 67, 77
1, 88756, Poly_aftertouch_c, 0, 57, 0
1, 88760, Note_off_c, 0, 78, 57
1, 88766, Control_c, 0, 64, 107
1, 88766, Control_c, 0, 67, 76
1, 88781, Control_c, 0, 64, 107
1, 88795, Control_c, 0, 64, 108
1, 88795, Control_c, 0, 67, 76
1, 88869, Control_c, 0, 67, 76
1, 88884, Control_c, 0, 64, 104
1, 88899, Control_c, 0, 64, 95
1, 88899, Control_c, 0, 67, 77
1, 88905, Note_on_c, 0, 28, 59
1, 88911, Note_on_c, 0, 40, 54
1, 88914, Note_off_c, 0, 90, 64
1, 88914, Control_c, 0, 64, 76
1, 88929, Control_c, 0, 64, 52
1, 88944, Control_c, 0, 64, 0
1, 88955, Note_on_c, 0, 95, 88
1, 88968, Note_on_c, 0, 88, 59
1, 88981, Note_on_c, 0, 83, 50
1, 88981, Control_c, 0, 64, 49
1, 88981, Control_c, 0, 67, 76
1, 88985, Note_off_c, 0, 28, 60
1, 88995, Control_c, 0, 64, 62
1, 89010, Control_c, 0, 64, 67
1, 89025, Control_c, 0, 64, 71
1, 89025, Control_c, 0, 67, 76
1, 89026, Note_off_c, 0, 40, 63
1, 89040, Control_c, 0, 64, 75
1, 89055, Control_c, 0, 64, 79
1, 89055, Control_c, 0, 67, 75
1, 89069, Control_c, 0, 64, 81
1, 89069, Control_c, 0, 67, 75
1, 89084, Control_c, 0, 64, 83
1, 89099, Control_c, 0, 64, 84
1, 89099, Control_c, 0, 67, 74
1, 89114, Control_c, 0, 64, 85
1, 89129, Control_c, 0, 64, 86
1, 89144, Control_c, 0, 64, 88
1, 89158, Note_off_c, 0, 83, 52
1, 89159, Control_c, 0, 64, 91
1, 89173, Control_c, 0, 64, 92
1, 89200, Note_on_c, 0, 59, 55
1, 89203, Control_c, 0, 67, 74
1, 89215, Note_on_c, 0, 52, 45
1, 89218, Note_on_c, 0, 55, 45
1, 89233, Control_c, 0, 64, 93
1, 89235, Note_off_c, 0, 59, 63
1, 89246, Note_off_c, 0, 55, 56
1, 89248, Control_c, 0, 64, 93
1, 89249, Note_off_c, 0, 52, 53
1, 89262, Control_c, 0, 64, 94
1, 89343, Note_on_c, 0, 55, 43
1, 89346, Note_on_c, 0, 59, 48
1, 89356, Note_on_c, 0, 52, 20
1, 89370, Note_off_c, 0, 59, 59
1, 89375, Note_off_c, 0, 55, 57
1, 89403, Note_off_c, 0, 52, 53
1, 89411, Note_off_c, 0, 95, 46
1, 89463, Note_on_c, 0, 55, 57
1, 89466, Note_on_c, 0, 59, 46
1, 89486, Control_c, 0, 64, 93
1, 89492, Note_on_c, 0, 52, 44
1, 89500, Control_c, 0, 64, 92
1, 89515, Control_c, 0, 64, 88
1, 89530, Control_c, 0, 64, 84
1, 89545, Control_c, 0, 64, 83
1, 89574, Control_c, 0, 64, 84
1, 89582, Note_off_c, 0, 55, 58
1, 89586, Note_off_c, 0, 59, 59
1, 89589, Control_c, 0, 64, 85
1, 89589, Control_c, 0, 67, 73
1, 89596, Note_on_c, 0, 60, 60
1, 89604, Control_c, 0, 64, 86
1, 89615, Note_off_c, 0, 52, 36
1, 89618, Control_c, 0, 64, 88
1, 89618, Control_c, 0, 67, 73
1, 89631, Note_off_c, 0, 60, 63
1, 89633, Control_c, 0, 64, 90
1, 89648, Control_c, 0, 64, 92
1, 89648, Control_c, 0, 67, 72
1, 89663, Control_c, 0, 64, 93
1, 89663, Control_c, 0, 67, 72
1, 89678, Control_c, 0, 64, 94
1, 89678, Control_c, 0, 67, 69
1, 89692, Control_c, 0, 67, 66
1, 89693, Note_off_c, 0, 88, 58
1, 89711, Note_on_c, 0, 91, 87
1, 89715, Control_c, 0, 64, 94
1, 89715, Control_c, 0, 67, 65
1, 89718, Note_on_c, 0, 79, 61
1, 89725, Note_on_c, 0, 59, 50
1, 89726, Note_on_c, 0, 55, 50
1, 89730, Control_c, 0, 64, 96
1, 89730, Control_c, 0, 67, 64
1, 89736, Note_on_c, 0, 52, 44
1, 89745, Control_c, 0, 64, 98
1, 89745, Control_c, 0, 67, 63
1, 89748, Note_off_c, 0, 79, 64
1, 89760, Control_c, 0, 64, 100
1, 89760, Control_c, 0, 67, 62
1, 89762, Note_off_c, 0, 59, 62
1, 89763, Note_off_c, 0, 55, 63
1, 89766, Note_off_c, 0, 52, 55
1, 89774, Control_c, 0, 64, 100
1, 89774, Control_c, 0, 67, 60
1, 89789, Control_c, 0, 67, 58
1, 89804, Control_c, 0, 64, 102
1, 89804, Control_c, 0, 67, 57
1, 89818, Control_c, 0, 64, 104
1, 89818, Control_c, 0, 67, 55
1, 89833, Control_c, 0, 67, 54
1, 89840, Note_on_c, 0, 90, 93
1, 89845, Note_on_c, 0, 78, 83
1, 89848, Control_c, 0, 67, 53
1, 89861, Note_on_c, 0, 55, 56
1, 89862, Note_on_c, 0, 52, 47
1, 89863, Note_on_c, 0, 59, 55
1, 89863, Control_c, 0, 64, 99
1, 89863, Control_c, 0, 67, 52
1, 89878, Control_c, 0, 64, 91
1, 89878, Control_c, 0, 67, 49
1, 89881, Note_off_c, 0, 91, 55
1, 89892, Control_c, 0, 64, 87
1, 89892, Control_c, 0, 67, 46
1, 89907, Control_c, 0, 67, 44
1, 89922, Control_c, 0, 64, 90
1, 89922, Control_c, 0, 67, 41
1, 89937, Control_c, 0, 64, 95
1, 89937, Control_c, 0, 67, 40
1, 89938, Note_off_c, 0, 55, 59
1, 89940, Note_off_c, 0, 59, 58
1, 89952, Control_c, 0, 64, 103
1, 89952, Control_c, 0, 67, 39
1, 89954, Note_off_c, 0, 52, 44
1, 89961, Note_on_c, 0, 60, 78
1, 89966, Control_c, 0, 64, 119
1, 89966, Control_c, 0, 67, 38
1, 89981, Control_c, 0, 64, 127
1, 89981, Control_c, 0, 67, 38
1, 89984, Note_off_c, 0, 78, 62
1, 89990, Note_off_c, 0, 90, 65
1, 90011, Control_c, 0, 67, 37
1, 90026, Control_c, 0, 67, 37
1, 90032, Note_off_c, 0, 60, 60
1, 90041, Control_c, 0, 67, 36
1, 90056, Control_c, 0, 67, 35
1, 90056, Note_on_c, 0, 59, 60
1, 90058, Note_on_c, 0, 55, 59
1, 90071, Note_on_c, 0, 88, 93
1, 90071, Control_c, 0, 67, 34
1, 90077, Note_on_c, 0, 76, 87
1, 90085, Control_c, 0, 67, 33
1, 90092, Note_on_c, 0, 52, 45
1, 90100, Control_c, 0, 67, 32
1, 90102, Note_off_c, 0, 55, 60
1, 90102, Note_off_c, 0, 59, 51
1, 90115, Control_c, 0, 67, 31
1, 90117, Note_off_c, 0, 76, 59
1, 90121, Note_off_c, 0, 88, 65
1, 90130, Control_c, 0, 67, 30
1, 90130, Note_off_c, 0, 52, 60
1, 90144, Control_c, 0, 67, 29
1, 90159, Control_c, 0, 67, 28
1, 90174, Control_c, 0, 64, 104
1, 90174, Control_c, 0, 67, 27
1, 90190, Control_c, 0, 64, 83
1, 90190, Control_c, 0, 67, 27
1, 90193, Note_on_c, 0, 88, 91
1, 90205, Control_c, 0, 64, 65
1, 90205, Control_c, 0, 67, 26
1, 90210, Note_on_c, 0, 76, 65
1, 90213, Note_on_c, 0, 84, 61
1, 90220, Control_c, 0, 64, 0
1, 90220, Control_c, 0, 67, 25
1, 90229, Note_on_c, 0, 81, 41
1, 90234, Control_c, 0, 64, 32
1, 90234, Control_c, 0, 67, 24
1, 90249, Control_c, 0, 64, 53
1, 90249, Control_c, 0, 67, 23
1, 90264, Control_c, 0, 64, 59
1, 90264, Control_c, 0, 67, 21
1, 90279, Control_c, 0, 64, 63
1, 90279, Control_c, 0, 67, 17
1, 90294, Control_c, 0, 64, 65
1, 90294, Control_c, 0, 67, 15
1, 90308, Control_c, 0, 64, 68
1, 90308, Control_c, 0, 67, 12
1, 90318, Note_on_c, 0, 60, 67
1, 90321, Note_on_c, 0, 57, 55
1, 90323, Control_c, 0, 64, 70
1, 90323, Control_c, 0, 67, 8
1, 90324, Note_on_c, 0, 52, 54
1, 90327, Note_off_c, 0, 81, 0
1, 90327, Note_on_c, 0, 81, 3
1, 90339, Control_c, 0, 64, 73
1, 90339, Control_c, 0, 67, 0
1, 90345, Note_off_c, 0, 60, 66
1, 90353, Note_off_c, 0, 57, 65
1, 90354, Control_c, 0, 64, 75
1, 90355, Note_off_c, 0, 52, 62
1, 90369, Control_c, 0, 64, 78
1, 90383, Control_c, 0, 64, 80
1, 90398, Control_c, 0, 64, 81
1, 90413, Control_c, 0, 64, 82
1, 90414, Note_off_c, 0, 76, 61
1, 90428, Note_on_c, 0, 60, 60
1, 90428, Control_c, 0, 64, 83
1, 90431, Note_on_c, 0, 52, 58
1, 90434, Note_on_c, 0, 57, 58
1, 90453, Note_off_c, 0, 60, 67
1, 90467, Note_off_c, 0, 52, 63
1, 90470, Note_off_c, 0, 57, 66
1, 90509, Control_c, 0, 64, 82
1, 90512, Note_off_c, 0, 88, 58
1, 90524, Control_c, 0, 64, 80
1, 90539, Control_c, 0, 64, 75
1, 90554, Control_c, 0, 64, 66
1, 90564, Note_on_c, 0, 52, 35
1, 90564, Note_on_c, 0, 57, 44
1, 90568, Control_c, 0, 64, 14
1, 90568, Control_c, 0, 67, 8
1, 90575, Note_on_c, 0, 60, 46
1, 90583, Control_c, 0, 64, 0
1, 90583, Control_c, 0, 67, 10
1, 90583, Note_on_c, 0, 87, 69
1, 90586, Note_on_c, 0, 75, 44
1, 90595, Note_off_c, 0, 81, 45
1, 90598, Control_c, 0, 67, 12
1, 90613, Control_c, 0, 67, 14
1, 90625, Poly_aftertouch_c, 0, 54, 127
1, 90628, Control_c, 0, 64, 29
1, 90628, Control_c, 0, 67, 16
1, 90642, Control_c, 0, 64, 51
1, 90642, Control_c, 0, 67, 19
1, 90648, Note_off_c, 0, 60, 55
1, 90657, Control_c, 0, 64, 59
1, 90657, Control_c, 0, 67, 23
1, 90664, Note_off_c, 0, 57, 55
1, 90670, Note_off_c, 0, 52, 57
1, 90672, Control_c, 0, 64, 63
1, 90672, Control_c, 0, 67, 31
1, 90674, Note_off_c, 0, 84, 36
1, 90681, Poly_aftertouch_c, 0, 54, 0
1, 90687, Control_c, 0, 64, 65
1, 90687, Control_c, 0, 67, 37
1, 90701, Note_on_c, 0, 62, 55
1, 90702, Control_c, 0, 64, 68
1, 90702, Control_c, 0, 67, 44
1, 90711, Note_off_c, 0, 75, 58
1, 90716, Control_c, 0, 64, 71
1, 90716, Control_c, 0, 67, 48
1, 90727, Note_off_c, 0, 62, 63
1, 90731, Control_c, 0, 64, 73
1, 90731, Control_c, 0, 67, 52
1, 90738, Note_off_c, 0, 87, 63
1, 90746, Control_c, 0, 64, 75
1, 90746, Control_c, 0, 67, 55
1, 90760, Control_c, 0, 64, 77
1, 90760, Control_c, 0, 67, 57
1, 90775, Control_c, 0, 64, 80
1, 90775, Control_c, 0, 67, 58
1, 90790, Control_c, 0, 64, 82
1, 90805, Control_c, 0, 67, 59
1, 90814, Note_on_c, 0, 60, 57
1, 90817, Note_on_c, 0, 57, 50
1, 90820, Control_c, 0, 67, 59
1, 90822, Note_on_c, 0, 52, 37
1, 90834, Control_c, 0, 67, 60
1, 90842, Note_off_c, 0, 60, 66
1, 90844, Note_off_c, 0, 57, 62
1, 90859, Note_off_c, 0, 52, 50
1, 90864, Control_c, 0, 64, 81
1, 90870, Poly_aftertouch_c, 0, 54, 127
1, 90879, Control_c, 0, 64, 77
1, 90894, Control_c, 0, 64, 69
1, 90905, Poly_aftertouch_c, 0, 54, 0
1, 90908, Control_c, 0, 64, 0
1, 90927, Note_on_c, 0, 60, 49
1, 90933, Note_on_c, 0, 57, 46
1, 90953, Control_c, 0, 67, 60
1, 90958, Note_on_c, 0, 52, 31
1, 90968, Control_c, 0, 64, 48
1, 90968, Control_c, 0, 67, 59
1, 90983, Control_c, 0, 64, 60
1, 90983, Control_c, 0, 67, 59
1, 90998, Control_c, 0, 64, 64
1, 90998, Control_c, 0, 67, 58
1, 91001, Note_off_c, 0, 57, 48
1, 91007, Note_off_c, 0, 60, 51
1, 91013, Control_c, 0, 64, 68
1, 91013, Control_c, 0, 67, 58
1, 91027, Note_off_c, 0, 52, 39
1, 91028, Control_c, 0, 64, 71
1, 91028, Control_c, 0, 67, 57
1, 91043, Control_c, 0, 64, 74
1, 91043, Control_c, 0, 67, 57
1, 91056, Note_on_c, 0, 62, 52
1, 91057, Control_c, 0, 64, 77
1, 91072, Control_c, 0, 64, 79
1, 91072, Control_c, 0, 67, 56
1, 91087, Control_c, 0, 64, 82
1, 91087, Control_c, 0, 67, 56
1, 91102, Control_c, 0, 64, 86
1, 91102, Control_c, 0, 67, 55
1, 91117, Note_off_c, 0, 62, 56
1, 91117, Control_c, 0, 64, 89
1, 91132, Control_c, 0, 64, 93
1, 91147, Control_c, 0, 64, 95
1, 91162, Control_c, 0, 64, 97
1, 91162, Control_c, 0, 67, 55
1, 91177, Control_c, 0, 64, 100
1, 91177, Control_c, 0, 67, 54
1, 91184, Note_on_c, 0, 52, 55
1, 91184, Note_on_c, 0, 84, 81
1, 91191, Control_c, 0, 64, 104
1, 91200, Note_on_c, 0, 72, 61
1, 91206, Control_c, 0, 64, 107
1, 91213, Control_c, 0, 67, 54
1, 91216, Note_off_c, 0, 52, 60
1, 91218, Poly_aftertouch_c, 0, 60, 127
1, 91228, Control_c, 0, 64, 110
1, 91243, Control_c, 0, 64, 110
1, 91248, Poly_aftertouch_c, 0, 60, 0
1, 91302, Control_c, 0, 67, 54
1, 91316, Note_off_c, 0, 72, 52
1, 91322, Note_off_c, 0, 84, 62
1, 91332, Control_c, 0, 64, 109
1, 91332, Control_c, 0, 67, 55
1, 91347, Control_c, 0, 64, 101
1, 91361, Control_c, 0, 64, 87
1, 91376, Control_c, 0, 64, 70
1, 91382, Note_on_c, 0, 40, 44
1, 91382, Note_on_c, 0, 84, 66
1, 91391, Control_c, 0, 64, 0
1, 91391, Control_c, 0, 67, 54
1, 91403, Note_on_c, 0, 79, 47
1, 91406, Control_c, 0, 64, 38
1, 91409, Note_on_c, 0, 72, 40
1, 91421, Control_c, 0, 64, 60
1, 91421, Control_c, 0, 67, 54
1, 91436, Control_c, 0, 64, 64
1, 91436, Control_c, 0, 67, 53
1, 91451, Control_c, 0, 64, 67
1, 91465, Control_c, 0, 64, 70
1, 91465, Control_c, 0, 67, 53
1, 91480, Control_c, 0, 64, 74
1, 91492, Note_off_c, 0, 40, 59
1, 91495, Control_c, 0, 64, 77
1, 91495, Control_c, 0, 67, 52
1, 91510, Control_c, 0, 64, 79
1, 91525, Control_c, 0, 64, 81
1, 91525, Control_c, 0, 67, 52
1, 91539, Control_c, 0, 64, 84
1, 91554, Control_c, 0, 64, 86
1, 91554, Control_c, 0, 67, 51
1, 91569, Control_c, 0, 64, 88
1, 91583, Control_c, 0, 64, 90
1, 91598, Control_c, 0, 64, 92
1, 91598, Control_c, 0, 67, 51
1, 91613, Control_c, 0, 64, 94
1, 91628, Control_c, 0, 64, 96
1, 91628, Control_c, 0, 67, 50
1, 91643, Control_c, 0, 64, 98
1, 91657, Control_c, 0, 64, 100
1, 91663, Note_on_c, 0, 55, 49
1, 91672, Control_c, 0, 64, 103
1, 91672, Control_c, 0, 67, 50
1, 91674, Note_on_c, 0, 52, 30
1, 91680, Note_off_c, 0, 72, 37
1, 91687, Control_c, 0, 64, 104
1, 91692, Note_off_c, 0, 55, 58
1, 91702, Control_c, 0, 64, 106
1, 91713, Note_off_c, 0, 52, 52
1, 91717, Control_c, 0, 64, 108
1, 91731, Control_c, 0, 64, 109
1, 91746, Control_c, 0, 64, 111
1, 91746, Control_c, 0, 67, 49
1, 91761, Control_c, 0, 64, 113
1, 91776, Control_c, 0, 64, 114
1, 91776, Control_c, 0, 67, 49
1, 91794, Note_on_c, 0, 55, 50
1, 91814, Note_on_c, 0, 52, 34
1, 91821, Note_off_c, 0, 84, 49
1, 91821, Control_c, 0, 64, 114
1, 91821, Control_c, 0, 67, 48
1, 91829, Note_off_c, 0, 55, 62
1, 91851, Note_off_c, 0, 52, 49
1, 91910, Control_c, 0, 67, 48
1, 91916, Note_on_c, 0, 55, 58
1, 91925, Control_c, 0, 67, 47
1, 91940, Control_c, 0, 67, 47
1, 91950, Note_on_c, 0, 52, 44
1, 91962, Note_off_c, 0, 55, 56
1, 91962, Control_c, 0, 67, 46
1, 91977, Control_c, 0, 67, 45
1, 91985, Note_off_c, 0, 79, 44
1, 91992, Control_c, 0, 67, 44
1, 91994, Note_off_c, 0, 52, 52
1, 92007, Control_c, 0, 67, 42
1, 92021, Control_c, 0, 67, 41
1, 92026, Note_on_c, 0, 57, 65
1, 92036, Control_c, 0, 67, 39
1, 92051, Control_c, 0, 67, 38
1, 92054, Note_off_c, 0, 57, 66
1, 92066, Control_c, 0, 67, 36
1, 92081, Control_c, 0, 67, 34
1, 92095, Control_c, 0, 64, 115
1, 92095, Control_c, 0, 67, 32
1, 92110, Control_c, 0, 64, 114
1, 92110, Control_c, 0, 67, 30
1, 92125, Control_c, 0, 67, 29
1, 92131, Note_on_c, 0, 79, 79
1, 92140, Note_on_c, 0, 67, 63
1, 92140, Control_c, 0, 64, 110
1, 92140, Control_c, 0, 67, 28
1, 92150, Note_on_c, 0, 52, 42
1, 92155, Control_c, 0, 64, 98
1, 92155, Control_c, 0, 67, 27
1, 92157, Note_on_c, 0, 55, 55
1, 92169, Control_c, 0, 64, 92
1, 92169, Control_c, 0, 67, 25
1, 92174, Note_off_c, 0, 67, 59
1, 92184, Control_c, 0, 64, 91
1, 92184, Control_c, 0, 67, 23
1, 92191, Note_off_c, 0, 52, 57
1, 92199, Note_off_c, 0, 55, 59
1, 92199, Control_c, 0, 67, 22
1, 92207, Note_off_c, 0, 79, 59
1, 92214, Control_c, 0, 64, 92
1, 92214, Control_c, 0, 67, 21
1, 92229, Control_c, 0, 64, 94
1, 92229, Control_c, 0, 67, 19
1, 92244, Control_c, 0, 64, 97
1, 92244, Control_c, 0, 67, 18
1, 92259, Note_on_c, 0, 77, 85
1, 92259, Control_c, 0, 64, 99
1, 92259, Control_c, 0, 67, 16
1, 92262, Note_on_c, 0, 65, 71
1, 92274, Control_c, 0, 64, 100
1, 92274, Control_c, 0, 67, 15
1, 92282, Note_on_c, 0, 55, 51
1, 92288, Control_c, 0, 64, 102
1, 92288, Control_c, 0, 67, 13
1, 92293, Note_on_c, 0, 52, 44
1, 92303, Control_c, 0, 64, 104
1, 92303, Control_c, 0, 67, 11
1, 92318, Control_c, 0, 64, 107
1, 92318, Control_c, 0, 67, 0
1, 92332, Control_c, 0, 64, 108
1, 92337, Note_off_c, 0, 55, 58
1, 92347, Control_c, 0, 64, 109
1, 92354, Note_off_c, 0, 52, 53
1, 92377, Control_c, 0, 64, 110
1, 92380, Note_on_c, 0, 57, 65
1, 92380, Note_off_c, 0, 65, 60
1, 92392, Control_c, 0, 64, 113
1, 92394, Note_off_c, 0, 77, 59
1, 92407, Control_c, 0, 64, 117
1, 92421, Control_c, 0, 64, 119
1, 92436, Control_c, 0, 64, 120
1, 92451, Control_c, 0, 64, 121
1, 92463, Note_off_c, 0, 57, 55
1, 92466, Control_c, 0, 64, 123
1, 92471, Note_on_c, 0, 55, 57
1, 92476, Note_on_c, 0, 52, 47
1, 92481, Control_c, 0, 64, 126
1, 92485, Note_on_c, 0, 76, 89
1, 92486, Note_on_c, 0, 64, 82
1, 92495, Control_c, 0, 64, 127
1, 92502, Note_off_c, 0, 55, 64
1, 92512, Note_off_c, 0, 52, 63
1, 92536, Note_off_c, 0, 64, 63
1, 92546, Note_off_c, 0, 76, 63
1, 92569, Control_c, 0, 64, 104
1, 92584, Control_c, 0, 64, 83
1, 92599, Control_c, 0, 64, 61
1, 92614, Note_on_c, 0, 76, 81
1, 92614, Control_c, 0, 64, 0
1, 92615, Note_on_c, 0, 53, 65
1, 92621, Note_on_c, 0, 41, 49
1, 92622, Note_on_c, 0, 64, 66
1, 92625, Note_on_c, 0, 69, 60
1, 92626, Note_on_c, 0, 72, 64
1, 92628, Control_c, 0, 64, 47
1, 92643, Control_c, 0, 64, 63
1, 92646, Note_off_c, 0, 53, 66
1, 92652, Note_off_c, 0, 41, 51
1, 92658, Control_c, 0, 64, 66
1, 92673, Control_c, 0, 64, 70
1, 92688, Control_c, 0, 64, 74
1, 92710, Control_c, 0, 64, 78
1, 92725, Control_c, 0, 64, 81
1, 92737, Note_on_c, 0, 53, 58
1, 92740, Control_c, 0, 64, 82
1, 92752, Note_on_c, 0, 57, 54
1, 92755, Control_c, 0, 64, 83
1, 92769, Control_c, 0, 64, 83
1, 92784, Note_off_c, 0, 57, 65
1, 92784, Control_c, 0, 64, 85
1, 92786, Note_off_c, 0, 53, 62
1, 92799, Control_c, 0, 64, 86
1, 92814, Control_c, 0, 64, 87
1, 92843, Control_c, 0, 64, 87
1, 92858, Control_c, 0, 64, 88
1, 92871, Note_on_c, 0, 57, 60
1, 92873, Control_c, 0, 64, 89
1, 92879, Note_on_c, 0, 53, 58
1, 92888, Control_c, 0, 64, 89
1, 92901, Note_off_c, 0, 57, 64
1, 92903, Control_c, 0, 64, 89
1, 92910, Note_off_c, 0, 53, 67
1, 92918, Control_c, 0, 64, 84
1, 92932, Control_c, 0, 64, 75
1, 92947, Control_c, 0, 64, 62
1, 92962, Control_c, 0, 64, 55
1, 92970, Note_off_c, 0, 64, 58
1, 92977, Note_on_c, 0, 53, 60
1, 92977, Control_c, 0, 64, 64
1, 92983, Note_on_c, 0, 57, 62
1, 92992, Control_c, 0, 64, 67
1, 93007, Control_c, 0, 64, 71
1, 93022, Control_c, 0, 64, 74
1, 93036, Control_c, 0, 64, 78
1, 93051, Control_c, 0, 64, 83
1, 93066, Control_c, 0, 64, 86
1, 93081, Control_c, 0, 64, 87
1, 93084, Note_off_c, 0, 57, 55
1, 93084, Note_off_c, 0, 76, 51
1, 93096, Control_c, 0, 64, 88
1, 93096, Note_off_c, 0, 53, 64
1, 93100, Note_on_c, 0, 58, 60
1, 93110, Control_c, 0, 64, 89
1, 93123, Note_off_c, 0, 72, 57
1, 93125, Control_c, 0, 64, 92
1, 93129, Note_off_c, 0, 58, 66
1, 93132, Note_off_c, 0, 69, 36
1, 93140, Control_c, 0, 64, 94
1, 93154, Control_c, 0, 64, 96
1, 93169, Control_c, 0, 64, 96
1, 93199, Control_c, 0, 64, 98
1, 93210, Note_on_c, 0, 74, 78
1, 93214, Note_on_c, 0, 62, 60
1, 93214, Control_c, 0, 64, 101
1, 93225, Note_on_c, 0, 57, 58
1, 93228, Note_on_c, 0, 53, 59
1, 93229, Control_c, 0, 64, 104
1, 93243, Control_c, 0, 64, 106
1, 93244, Note_off_c, 0, 62, 64
1, 93254, Note_off_c, 0, 57, 64
1, 93261, Note_on_c, 0, 69, 24
1, 93261, Note_off_c, 0, 53, 65
1, 93266, Note_off_c, 0, 74, 63
1, 93273, Control_c, 0, 64, 106
1, 93288, Control_c, 0, 64, 107
1, 93302, Control_c, 0, 64, 107
1, 93315, Note_on_c, 0, 73, 84
1, 93316, Note_off_c, 0, 69, 38
1, 93317, Control_c, 0, 64, 104
1, 93329, Note_on_c, 0, 61, 78
1, 93332, Note_on_c, 0, 57, 64
1, 93332, Control_c, 0, 64, 92
1, 93338, Note_on_c, 0, 53, 59
1, 93347, Control_c, 0, 64, 77
1, 93361, Control_c, 0, 64, 69
1, 93377, Control_c, 0, 64, 74
1, 93391, Control_c, 0, 64, 81
1, 93402, Note_off_c, 0, 53, 56
1, 93406, Control_c, 0, 64, 88
1, 93415, Poly_aftertouch_c, 0, 69, 127
1, 93418, Note_off_c, 0, 57, 58
1, 93421, Control_c, 0, 64, 97
1, 93426, Note_on_c, 0, 58, 77
1, 93436, Control_c, 0, 64, 106
1, 93439, Note_off_c, 0, 61, 60
1, 93458, Control_c, 0, 64, 118
1, 93460, Note_off_c, 0, 73, 56
1, 93473, Control_c, 0, 64, 127
1, 93492, Note_off_c, 0, 58, 56
1, 93504, Poly_aftertouch_c, 0, 69, 0
1, 93536, Note_on_c, 0, 53, 59
1, 93541, Note_on_c, 0, 57, 50
1, 93541, Note_on_c, 0, 74, 95
1, 93543, Note_on_c, 0, 62, 87
1, 93558, Note_on_c, 0, 72, 65
1, 93559, Note_off_c, 0, 57, 64
1, 93566, Note_off_c, 0, 53, 67
1, 93580, Note_off_c, 0, 62, 57
1, 93586, Note_off_c, 0, 72, 65
1, 93598, Note_off_c, 0, 74, 63
1, 93651, Control_c, 0, 64, 97
1, 93664, Note_on_c, 0, 55, 79
1, 93666, Control_c, 0, 64, 65
1, 93669, Note_on_c, 0, 77, 89
1, 93671, Note_on_c, 0, 65, 77
1, 93674, Note_on_c, 0, 43, 54
1, 93679, Note_on_c, 0, 72, 68
1, 93681, Control_c, 0, 64, 0
1, 93693, Note_on_c, 0, 70, 37
1, 93695, Note_off_c, 0, 55, 66
1, 93705, Note_off_c, 0, 43, 35
1, 93710, Control_c, 0, 64, 56
1, 93725, Control_c, 0, 64, 64
1, 93740, Control_c, 0, 64, 69
1, 93755, Control_c, 0, 64, 74
1, 93770, Control_c, 0, 64, 80
1, 93784, Control_c, 0, 64, 84
1, 93794, Note_on_c, 0, 58, 61
1, 93798, Note_on_c, 0, 60, 50
1, 93799, Control_c, 0, 64, 87
1, 93814, Control_c, 0, 64, 89
1, 93817, Note_on_c, 0, 55, 26
1, 93821, Note_off_c, 0, 60, 62
1, 93825, Note_off_c, 0, 58, 65
1, 93829, Control_c, 0, 64, 92
1, 93844, Control_c, 0, 64, 94
1, 93850, Note_off_c, 0, 55, 48
1, 93858, Control_c, 0, 64, 98
1, 93873, Control_c, 0, 64, 102
1, 93888, Control_c, 0, 64, 107
1, 93903, Control_c, 0, 64, 111
1, 93904, Note_on_c, 0, 60, 51
1, 93907, Note_on_c, 0, 58, 51
1, 93915, Note_on_c, 0, 55, 54
1, 93918, Control_c, 0, 64, 113
1, 93926, Note_off_c, 0, 60, 65
1, 93929, Note_off_c, 0, 58, 63
1, 93932, Control_c, 0, 64, 115
1, 93935, Note_off_c, 0, 55, 61
1, 93947, Control_c, 0, 64, 127
1, 94003, Note_on_c, 0, 60, 61
1, 94003, Note_on_c, 0, 55, 61
1, 94009, Note_on_c, 0, 58, 63
1, 94075, Note_off_c, 0, 77, 39
1, 94105, Note_off_c, 0, 65, 51
1, 94117, Note_off_c, 0, 60, 63
1, 94123, Note_on_c, 0, 62, 75
1, 94125, Note_off_c, 0, 58, 49
1, 94129, Note_off_c, 0, 55, 59
1, 94138, Note_off_c, 0, 72, 56
1, 94158, Note_off_c, 0, 62, 58
1, 94191, Note_off_c, 0, 70, 41
1, 94233, Note_on_c, 0, 60, 59
1, 94235, Note_on_c, 0, 55, 60
1, 94241, Note_on_c, 0, 76, 83
1, 94242, Note_on_c, 0, 64, 83
1, 94247, Note_on_c, 0, 58, 56
1, 94247, Note_on_c, 0, 72, 77
1, 94253, Note_on_c, 0, 70, 45
1, 94262, Note_off_c, 0, 60, 66
1, 94271, Note_off_c, 0, 64, 66
1, 94273, Note_off_c, 0, 55, 63
1, 94273, Note_off_c, 0, 58, 65
1, 94283, Note_off_c, 0, 76, 59
1, 94301, Note_off_c, 0, 70, 58
1, 94329, Note_off_c, 0, 72, 0
1, 94344, Note_on_c, 0, 72, 44
1, 94345, Note_on_c, 0, 75, 87
1, 94348, Note_on_c, 0, 63, 87
1, 94352, Note_on_c, 0, 58, 65
1, 94352, Note_on_c, 0, 60, 66
1, 94354, Note_on_c, 0, 55, 65
1, 94371, Control_c, 0, 64, 117
1, 94386, Control_c, 0, 64, 118
1, 94401, Control_c, 0, 64, 127
1, 94429, Note_off_c, 0, 58, 56
1, 94429, Note_off_c, 0, 60, 57
1, 94435, Note_off_c, 0, 55, 52
1, 94447, Note_on_c, 0, 62, 80
1, 94471, Note_off_c, 0, 63, 60
1, 94492, Note_off_c, 0, 75, 55
1, 94518, Note_off_c, 0, 72, 49
1, 94541, Note_on_c, 0, 60, 62
1, 94541, Note_off_c, 0, 62, 60
1, 94543, Note_on_c, 0, 58, 63
1, 94562, Note_on_c, 0, 55, 63
1, 94564, Note_off_c, 0, 60, 71
1, 94566, Note_on_c, 0, 76, 98
1, 94566, Note_on_c, 0, 64, 90
1, 94567, Note_off_c, 0, 58, 68
1, 94590, Note_off_c, 0, 55, 65
1, 94605, Note_off_c, 0, 64, 59
1, 94625, Note_off_c, 0, 76, 63
1, 94667, Control_c, 0, 64, 106
1, 94682, Control_c, 0, 64, 74
1, 94694, Note_on_c, 0, 73, 66
1, 94697, Note_on_c, 0, 57, 65
1, 94697, Note_on_c, 0, 79, 96
1, 94697, Control_c, 0, 64, 0
1, 94699, Note_on_c, 0, 45, 53
1, 94701, Note_on_c, 0, 67, 77
1, 94725, Note_off_c, 0, 45, 58
1, 94726, Control_c, 0, 64, 59
1, 94730, Note_off_c, 0, 57, 63
1, 94741, Control_c, 0, 64, 65
1, 94746, Note_off_c, 0, 73, 61
1, 94756, Control_c, 0, 64, 70
1, 94771, Control_c, 0, 64, 74
1, 94783, Note_on_c, 0, 72, 51
1, 94786, Control_c, 0, 64, 78
1, 94800, Control_c, 0, 64, 81
1, 94815, Control_c, 0, 64, 84
1, 94820, Note_on_c, 0, 60, 75
1, 94829, Control_c, 0, 64, 87
1, 94831, Note_on_c, 0, 57, 59
1, 94844, Control_c, 0, 64, 89
1, 94845, Note_off_c, 0, 60, 68
1, 94862, Note_off_c, 0, 57, 64
1, 94888, Control_c, 0, 64, 91
1, 94903, Control_c, 0, 64, 95
1, 94918, Control_c, 0, 64, 99
1, 94930, Note_on_c, 0, 57, 71
1, 94932, Note_on_c, 0, 60, 74
1, 94933, Control_c, 0, 64, 100
1, 94942, Note_off_c, 0, 67, 56
1, 94956, Control_c, 0, 64, 101
1, 94961, Note_off_c, 0, 60, 71
1, 94965, Note_off_c, 0, 57, 62
1, 94986, Control_c, 0, 64, 100
1, 95001, Control_c, 0, 64, 98
1, 95016, Control_c, 0, 64, 91
1, 95031, Control_c, 0, 64, 79
1, 95046, Control_c, 0, 64, 68
1, 95054, Note_on_c, 0, 60, 66
1, 95055, Note_on_c, 0, 57, 70
1, 95061, Control_c, 0, 64, 67
1, 95076, Control_c, 0, 64, 72
1, 95091, Control_c, 0, 64, 77
1, 95105, Control_c, 0, 64, 84
1, 95120, Control_c, 0, 64, 90
1, 95132, Note_off_c, 0, 79, 47
1, 95135, Control_c, 0, 64, 95
1, 95150, Control_c, 0, 64, 98
1, 95153, Note_off_c, 0, 60, 64
1, 95155, Note_off_c, 0, 57, 57
1, 95164, Control_c, 0, 64, 99
1, 95165, Note_on_c, 0, 62, 69
1, 95179, Control_c, 0, 64, 100
1, 95192, Note_off_c, 0, 62, 66
1, 95209, Control_c, 0, 64, 100
1, 95238, Control_c, 0, 64, 101
1, 95281, Note_on_c, 0, 77, 91
1, 95286, Note_on_c, 0, 57, 57
1, 95286, Note_on_c, 0, 60, 60
1, 95290, Note_on_c, 0, 65, 77
1, 95296, Note_off_c, 0, 72, 59
1, 95298, Control_c, 0, 64, 101
1, 95317, Note_off_c, 0, 60, 65
1, 95318, Note_off_c, 0, 57, 59
1, 95329, Note_off_c, 0, 65, 56
1, 95368, Note_off_c, 0, 77, 58
1, 95401, Control_c, 0, 64, 101
1, 95416, Control_c, 0, 64, 95
1, 95421, Note_on_c, 0, 76, 89
1, 95423, Note_on_c, 0, 57, 60
1, 95427, Note_on_c, 0, 60, 56
1, 95427, Note_on_c, 0, 64, 76
1, 95430, Control_c, 0, 64, 83
1, 95445, Control_c, 0, 64, 67
1, 95460, Control_c, 0, 64, 31
1, 95475, Control_c, 0, 64, 59
1, 95490, Control_c, 0, 64, 65
1, 95505, Control_c, 0, 64, 68
1, 95520, Control_c, 0, 64, 71
1, 95530, Note_off_c, 0, 57, 60
1, 95535, Control_c, 0, 64, 74
1, 95535, Note_off_c, 0, 60, 58
1, 95549, Control_c, 0, 64, 79
1, 95563, Note_on_c, 0, 62, 65
1, 95564, Control_c, 0, 64, 85
1, 95579, Control_c, 0, 64, 89
1, 95594, Control_c, 0, 64, 92
1, 95597, Note_off_c, 0, 64, 61
1, 95609, Control_c, 0, 64, 94
1, 95623, Control_c, 0, 64, 97
1, 95638, Control_c, 0, 64, 101
1, 95651, Note_off_c, 0, 62, 32
1, 95653, Control_c, 0, 64, 105
1, 95668, Control_c, 0, 64, 110
1, 95670, Note_off_c, 0, 76, 49
1, 95683, Control_c, 0, 64, 115
1, 95705, Control_c, 0, 64, 118
1, 95714, Note_on_c, 0, 60, 54
1, 95720, Control_c, 0, 64, 119
1, 95721, Note_on_c, 0, 77, 84
1, 95723, Note_on_c, 0, 65, 78
1, 95734, Control_c, 0, 64, 120
1, 95738, Note_on_c, 0, 57, 47
1, 95749, Note_off_c, 0, 60, 65
1, 95749, Control_c, 0, 64, 127
1, 95767, Note_off_c, 0, 57, 62
1, 95857, Note_off_c, 0, 65, 55
1, 95897, Note_off_c, 0, 77, 60
1, 95958, Control_c, 0, 64, 98
1, 95973, Control_c, 0, 64, 73
1, 95982, Note_on_c, 0, 57, 42
1, 95987, Control_c, 0, 64, 0
1, 95990, Note_on_c, 0, 79, 77
1, 95994, Note_on_c, 0, 45, 49
1, 96000, Note_on_c, 0, 67, 58
1, 96003, Note_on_c, 0, 73, 55
1, 96061, Control_c, 0, 64, 61
1, 96074, Note_off_c, 0, 45, 63
1, 96076, Control_c, 0, 64, 68
1, 96091, Control_c, 0, 64, 73
1, 96106, Control_c, 0, 64, 78
1, 96121, Control_c, 0, 64, 81
1, 96135, Note_off_c, 0, 57, 57
1, 96135, Control_c, 0, 64, 85
1, 96150, Control_c, 0, 64, 87
1, 96165, Control_c, 0, 64, 89
1, 96179, Control_c, 0, 64, 91
1, 96194, Control_c, 0, 64, 92
1, 96209, Control_c, 0, 64, 94
1, 96224, Control_c, 0, 64, 95
1, 96239, Control_c, 0, 64, 96
1, 96268, Note_on_c, 0, 57, 44
1, 96281, Note_on_c, 0, 61, 52
1, 96283, Control_c, 0, 64, 97
1, 96298, Control_c, 0, 64, 98
1, 96307, Note_off_c, 0, 61, 60
1, 96310, Note_off_c, 0, 57, 51
1, 96313, Control_c, 0, 64, 99
1, 96375, Note_off_c, 0, 67, 36
1, 96387, Control_c, 0, 64, 99
1, 96422, Note_on_c, 0, 57, 42
1, 96434, Note_on_c, 0, 61, 41
1, 96458, Note_off_c, 0, 57, 56
1, 96468, Control_c, 0, 64, 99
1, 96469, Note_off_c, 0, 61, 56
1, 96512, Control_c, 0, 64, 98
1, 96546, Note_on_c, 0, 57, 51
1, 96551, Note_on_c, 0, 61, 53
1, 96593, Note_off_c, 0, 79, 36
1, 96615, Note_off_c, 0, 61, 45
1, 96647, Control_c, 0, 64, 99
1, 96659, Note_off_c, 0, 57, 37
1, 96676, Control_c, 0, 64, 99
1, 96678, Note_on_c, 0, 62, 48
1, 96691, Control_c, 0, 64, 100
1, 96706, Note_off_c, 0, 62, 55
1, 96721, Control_c, 0, 64, 101
1, 96736, Control_c, 0, 64, 102
1, 96766, Control_c, 0, 64, 102
1, 96773, Note_on_c, 0, 57, 52
1, 96781, Control_c, 0, 64, 99
1, 96784, Note_on_c, 0, 61, 60
1, 96787, Note_on_c, 0, 77, 80
1, 96792, Note_on_c, 0, 65, 67
1, 96796, Control_c, 0, 64, 95
1, 96807, Note_off_c, 0, 73, 57
1, 96810, Control_c, 0, 64, 94
1, 96811, Note_off_c, 0, 57, 62
1, 96816, Note_off_c, 0, 61, 64
1, 96821, Note_off_c, 0, 65, 67
1, 96849, Note_off_c, 0, 77, 60
1, 96855, Control_c, 0, 64, 94
1, 96870, Control_c, 0, 64, 97
1, 96884, Control_c, 0, 64, 100
1, 96899, Control_c, 0, 64, 104
1, 96905, Note_on_c, 0, 76, 79
1, 96907, Note_on_c, 0, 64, 73
1, 96910, Note_on_c, 0, 61, 65
1, 96914, Control_c, 0, 64, 108
1, 96928, Note_on_c, 0, 57, 49
1, 96928, Control_c, 0, 64, 112
1, 96943, Control_c, 0, 64, 117
1, 96958, Control_c, 0, 64, 124
1, 96965, Note_off_c, 0, 57, 56
1, 96970, Note_off_c, 0, 61, 58
1, 96973, Control_c, 0, 64, 127
1, 97008, Note_off_c, 0, 64, 55
1, 97009, Note_on_c, 0, 62, 66
1, 97046, Note_off_c, 0, 76, 59
1, 97093, Note_on_c, 0, 61, 66
1, 97093, Note_off_c, 0, 62, 59
1, 97102, Note_on_c, 0, 57, 50
1, 97121, Note_off_c, 0, 61, 64
1, 97124, Note_on_c, 0, 65, 79
1, 97127, Note_on_c, 0, 77, 85
1, 97129, Note_off_c, 0, 57, 63
1, 97159, Note_off_c, 0, 65, 58
1, 97180, Note_off_c, 0, 77, 63
1, 97181, Control_c, 0, 64, 99
1, 97203, Control_c, 0, 64, 77
1, 97218, Control_c, 0, 64, 62
1, 97233, Control_c, 0, 64, 63
1, 97234, Note_on_c, 0, 57, 59
1, 97246, Note_on_c, 0, 45, 50
1, 97248, Control_c, 0, 64, 68
1, 97255, Note_on_c, 0, 79, 83
1, 97261, Note_on_c, 0, 67, 66
1, 97263, Control_c, 0, 64, 74
1, 97269, Note_off_c, 0, 57, 63
1, 97274, Note_off_c, 0, 45, 57
1, 97276, Note_on_c, 0, 73, 54
1, 97277, Control_c, 0, 64, 80
1, 97292, Control_c, 0, 64, 85
1, 97307, Control_c, 0, 64, 90
1, 97322, Control_c, 0, 64, 93
1, 97336, Control_c, 0, 64, 95
1, 97351, Control_c, 0, 64, 98
1, 97365, Note_on_c, 0, 57, 61
1, 97366, Control_c, 0, 64, 101
1, 97370, Note_on_c, 0, 61, 69
1, 97377, Note_off_c, 0, 67, 55
1, 97379, Note_off_c, 0, 79, 59
1, 97382, Control_c, 0, 64, 105
1, 97397, Control_c, 0, 64, 110
1, 97398, Note_off_c, 0, 61, 66
1, 97399, Note_off_c, 0, 73, 59
1, 97407, Note_off_c, 0, 57, 62
1, 97412, Control_c, 0, 64, 116
1, 97426, Control_c, 0, 64, 127
1, 97477, Note_on_c, 0, 61, 71
1, 97484, Note_on_c, 0, 57, 75
1, 97490, Note_on_c, 0, 77, 89
1, 97492, Note_on_c, 0, 65, 82
1, 97505, Note_on_c, 0, 73, 70
1, 97505, Note_off_c, 0, 61, 62
1, 97510, Note_off_c, 0, 57, 64
1, 97522, Note_off_c, 0, 65, 61
1, 97532, Note_off_c, 0, 73, 66
1, 97545, Note_off_c, 0, 77, 62
1, 97589, Control_c, 0, 64, 93
1, 97601, Note_on_c, 0, 61, 83
1, 97601, Note_on_c, 0, 64, 91
1, 97601, Note_on_c, 0, 76, 92
1, 97602, Note_on_c, 0, 57, 73
1, 97604, Control_c, 0, 64, 78
1, 97606, Note_on_c, 0, 73, 77
1, 97619, Control_c, 0, 64, 75
1, 97633, Control_c, 0, 64, 79
1, 97648, Control_c, 0, 64, 86
1, 97663, Control_c, 0, 64, 94
1, 97678, Control_c, 0, 64, 102
1, 97693, Control_c, 0, 64, 111
1, 97708, Control_c, 0, 64, 126
1, 97715, Note_on_c, 0, 62, 96
1, 97720, Note_off_c, 0, 64, 56
1, 97723, Control_c, 0, 64, 127
1, 97731, Note_off_c, 0, 61, 38
1, 97750, Note_off_c, 0, 73, 60
1, 97751, Note_off_c, 0, 57, 59
1, 97764, Note_off_c, 0, 76, 63
1, 97767, Note_off_c, 0, 62, 62
1, 97833, Note_on_c, 0, 61, 83
1, 97833, Note_on_c, 0, 65, 91
1, 97835, Note_on_c, 0, 77, 96
1, 97839, Note_on_c, 0, 57, 70
1, 97849, Note_on_c, 0, 73, 81
1, 97865, Note_off_c, 0, 57, 65
1, 97866, Note_off_c, 0, 61, 63
1, 97868, Note_off_c, 0, 65, 64
1, 97870, Note_off_c, 0, 73, 69
1, 97886, Note_off_c, 0, 77, 61
1, 97886, Control_c, 0, 64, 95
1, 97900, Control_c, 0, 64, 83
1, 97915, Control_c, 0, 64, 83
1, 97930, Control_c, 0, 64, 88
1, 97943, Note_on_c, 0, 76, 94
1, 97945, Control_c, 0, 64, 97
1, 97946, Note_on_c, 0, 64, 96
1, 97956, Note_on_c, 0, 57, 84
1, 97958, Note_on_c, 0, 73, 88
1, 97962, Note_on_c, 0, 61, 85
1, 97967, Control_c, 0, 64, 107
1, 97982, Control_c, 0, 64, 127
1, 98045, Note_off_c, 0, 61, 60
1, 98056, Note_off_c, 0, 57, 54
1, 98069, Note_on_c, 0, 62, 95
1, 98071, Note_off_c, 0, 64, 59
1, 98097, Note_off_c, 0, 73, 59
1, 98110, Note_off_c, 0, 76, 62
1, 98186, Note_on_c, 0, 61, 81
1, 98188, Note_off_c, 0, 62, 62
1, 98191, Note_on_c, 0, 65, 90
1, 98195, Note_on_c, 0, 57, 74
1, 98196, Note_on_c, 0, 77, 99
1, 98206, Note_on_c, 0, 73, 80
1, 98206, Note_off_c, 0, 61, 72
1, 98212, Note_off_c, 0, 65, 65
1, 98223, Note_off_c, 0, 57, 67
1, 98229, Note_off_c, 0, 73, 69
1, 98240, Note_off_c, 0, 77, 67
1, 98344, Note_on_c, 0, 91, 93
1, 98352, Note_on_c, 0, 77, 75
1, 98354, Note_on_c, 0, 79, 76
1, 98364, Note_on_c, 0, 89, 65
1, 98382, Control_c, 0, 64, 120
1, 98384, Note_off_c, 0, 89, 42
1, 98387, Note_on_c, 0, 84, 26
1, 98397, Control_c, 0, 64, 82
1, 98412, Control_c, 0, 64, 63
1, 98427, Note_off_c, 0, 84, 51
1, 98427, Control_c, 0, 64, 63
1, 98442, Control_c, 0, 64, 69
1, 98456, Control_c, 0, 64, 74
1, 98458, Note_on_c, 0, 49, 84
1, 98465, Note_on_c, 0, 45, 69
1, 98466, Poly_aftertouch_c, 0, 90, 127
1, 98471, Control_c, 0, 64, 79
1, 98486, Note_off_c, 0, 77, 35
1, 98486, Control_c, 0, 64, 86
1, 98495, Note_off_c, 0, 79, 61
1, 98501, Control_c, 0, 64, 92
1, 98502, Note_off_c, 0, 91, 62
1, 98505, Note_off_c, 0, 45, 65
1, 98507, Note_off_c, 0, 49, 65
1, 98507, Poly_aftertouch_c, 0, 90, 0
1, 98516, Control_c, 0, 64, 97
1, 98531, Control_c, 0, 64, 99
1, 98545, Control_c, 0, 64, 100
1, 98560, Control_c, 0, 64, 102
1, 98574, Control_c, 0, 64, 106
1, 98580, Note_on_c, 0, 89, 106
1, 98584, Note_on_c, 0, 77, 97
1, 98589, Control_c, 0, 64, 113
1, 98590, Note_on_c, 0, 49, 84
1, 98593, Note_on_c, 0, 45, 75
1, 98599, Note_on_c, 0, 85, 75
1, 98604, Control_c, 0, 64, 127
1, 98620, Note_off_c, 0, 49, 65
1, 98628, Note_off_c, 0, 45, 65
1, 98635, Note_off_c, 0, 77, 63
1, 98649, Note_off_c, 0, 85, 52
1, 98655, Note_off_c, 0, 89, 61
1, 98715, Control_c, 0, 64, 112
1, 98725, Note_on_c, 0, 45, 79
1, 98725, Note_on_c, 0, 88, 110
1, 98726, Note_on_c, 0, 49, 82
1, 98727, Note_on_c, 0, 76, 99
1, 98730, Control_c, 0, 64, 78
1, 98736, Note_on_c, 0, 85, 89
1, 98745, Control_c, 0, 64, 0
1, 98760, Control_c, 0, 64, 19
1, 98774, Control_c, 0, 64, 62
1, 98789, Control_c, 0, 64, 69
1, 98804, Control_c, 0, 64, 78
1, 98819, Control_c, 0, 64, 88
1, 98834, Control_c, 0, 64, 97
1, 98847, Note_off_c, 0, 49, 61
1, 98848, Note_off_c, 0, 45, 62
1, 98849, Control_c, 0, 64, 101
1, 98863, Control_c, 0, 64, 103
1, 98864, Note_on_c, 0, 50, 101
1, 98871, Note_off_c, 0, 76, 56
1, 98878, Control_c, 0, 64, 104
1, 98893, Control_c, 0, 64, 109
1, 98907, Control_c, 0, 64, 122
1, 98910, Note_off_c, 0, 85, 61
1, 98915, Note_off_c, 0, 88, 56
1, 98922, Control_c, 0, 64, 127
1, 98974, Note_off_c, 0, 50, 63
1, 98999, Note_on_c, 0, 89, 118
1, 99002, Note_on_c, 0, 77, 100
1, 99006, Note_on_c, 0, 85, 92
1, 99014, Note_on_c, 0, 49, 88
1, 99016, Note_on_c, 0, 45, 79
1, 99064, Note_off_c, 0, 49, 61
1, 99074, Note_off_c, 0, 77, 61
1, 99077, Note_off_c, 0, 45, 61
1, 99109, Note_off_c, 0, 89, 54
1, 99121, Note_off_c, 0, 85, 61
1, 99172, Note_on_c, 0, 45, 91
1, 99175, Note_on_c, 0, 49, 92
1, 99175, Control_c, 0, 64, 84
1, 99176, Note_on_c, 0, 78, 105
1, 99177, Note_on_c, 0, 90, 101
1, 99186, Note_on_c, 0, 85, 85
1, 99190, Control_c, 0, 64, 66
1, 99204, Control_c, 0, 64, 66
1, 99219, Control_c, 0, 64, 74
1, 99234, Control_c, 0, 64, 82
1, 99249, Control_c, 0, 64, 97
1, 99264, Control_c, 0, 64, 127
1, 99313, Note_off_c, 0, 49, 58
1, 99338, Note_off_c, 0, 45, 61
1, 99360, Note_on_c, 0, 50, 98
1, 99437, Note_off_c, 0, 78, 57
1, 99494, Note_off_c, 0, 50, 58
1, 99494, Note_off_c, 0, 85, 26
1, 99497, Note_off_c, 0, 90, 56
1, 99553, Control_c, 0, 64, 87
1, 99560, Note_on_c, 0, 91, 113
1, 99561, Note_on_c, 0, 49, 91
1, 99563, Note_on_c, 0, 79, 102
1, 99565, Note_on_c, 0, 45, 83
1, 99567, Note_on_c, 0, 85, 103
1, 99568, Control_c, 0, 64, 60
1, 99583, Control_c, 0, 64, 61
1, 99597, Note_off_c, 0, 45, 67
1, 99598, Control_c, 0, 64, 69
1, 99599, Note_off_c, 0, 49, 65
1, 99612, Control_c, 0, 64, 76
1, 99627, Control_c, 0, 64, 84
1, 99642, Control_c, 0, 64, 94
1, 99657, Control_c, 0, 64, 104
1, 99671, Control_c, 0, 64, 109
1, 99686, Control_c, 0, 64, 110
1, 99701, Note_off_c, 0, 91, 60
1, 99701, Control_c, 0, 64, 110
1, 99706, Note_off_c, 0, 79, 60
1, 99716, Control_c, 0, 64, 121
1, 99730, Control_c, 0, 64, 127
1, 99765, Note_off_c, 0, 85, 61
1, 99821, Control_c, 0, 64, 90
1, 99835, Control_c, 0, 64, 64
1, 99843, Note_on_c, 0, 92, 97
1, 99844, Note_on_c, 0, 80, 102
1, 99844, Note_on_c, 0, 88, 90
1, 99849, Note_on_c, 0, 56, 94
1, 99850, Control_c, 0, 64, 0
1, 99851, Note_on_c, 0, 44, 94
1, 99852, Note_on_c, 0, 85, 87
1, 99865, Control_c, 0, 64, 59
1, 99870, Note_on_c, 0, 90, 44
1, 99873, Note_off_c, 0, 56, 66
1, 99880, Note_off_c, 0, 44, 66
1, 99880, Control_c, 0, 64, 67
1, 99894, Control_c, 0, 64, 71
1, 99899, Note_off_c, 0, 90, 52
1, 99909, Control_c, 0, 64, 75
1, 99924, Control_c, 0, 64, 81
1, 99939, Control_c, 0, 64, 89
1, 99953, Control_c, 0, 64, 94
1, 99968, Control_c, 0, 64, 97
1, 99974, Note_off_c, 0, 80, 59
1, 99983, Control_c, 0, 64, 102
1, 99987, Note_off_c, 0, 85, 62
1, 99989, Note_off_c, 0, 92, 64
1, 99998, Control_c, 0, 64, 109
1, 100009, Note_off_c, 0, 88, 60
1, 100013, Control_c, 0, 64, 112
1, 100027, Control_c, 0, 64, 110
1, 100042, Control_c, 0, 64, 93
1, 100056, Note_on_c, 0, 49, 86
1, 100057, Note_on_c, 0, 61, 94
1, 100057, Control_c, 0, 64, 74
1, 100063, Note_on_c, 0, 92, 103
1, 100064, Note_on_c, 0, 80, 98
1, 100065, Note_on_c, 0, 88, 82
1, 100073, Control_c, 0, 64, 59
1, 100074, Note_on_c, 0, 85, 84
1, 100088, Control_c, 0, 64, 65
1, 100090, Note_off_c, 0, 49, 60
1, 100097, Note_off_c, 0, 61, 56
1, 100102, Control_c, 0, 64, 71
1, 100117, Control_c, 0, 64, 76
1, 100131, Note_off_c, 0, 80, 62
1, 100132, Control_c, 0, 64, 84
1, 100141, Note_off_c, 0, 85, 63
1, 100143, Note_off_c, 0, 92, 65
1, 100144, Note_off_c, 0, 88, 62
1, 100146, Control_c, 0, 64, 87
1, 100161, Control_c, 0, 64, 84
1, 100176, Control_c, 0, 64, 74
1, 100199, Control_c, 0, 64, 67
1, 100208, Note_on_c, 0, 63, 96
1, 100214, Control_c, 0, 64, 72
1, 100216, Note_on_c, 0, 51, 80
1, 100218, Note_on_c, 0, 80, 98
1, 100221, Note_on_c, 0, 92, 90
1, 100222, Note_on_c, 0, 88, 87
1, 100228, Note_on_c, 0, 85, 82
1, 100228, Control_c, 0, 64, 83
1, 100243, Control_c, 0, 64, 94
1, 100253, Note_off_c, 0, 63, 62
1, 100258, Note_off_c, 0, 80, 66
1, 100258, Control_c, 0, 64, 101
1, 100273, Control_c, 0, 64, 107
1, 100276, Note_off_c, 0, 85, 65
1, 100276, Note_off_c, 0, 88, 64
1, 100280, Note_off_c, 0, 92, 65
1, 100288, Control_c, 0, 64, 113
1, 100302, Control_c, 0, 64, 112
1, 100317, Control_c, 0, 64, 96
1, 100319, Note_off_c, 0, 51, 61
1, 100332, Control_c, 0, 64, 80
1, 100334, Note_on_c, 0, 64, 94
1, 100339, Note_on_c, 0, 52, 83
1, 100343, Note_on_c, 0, 80, 95
1, 100344, Note_on_c, 0, 92, 90
1, 100346, Control_c, 0, 64, 71
1, 100350, Note_on_c, 0, 85, 82
1, 100351, Note_on_c, 0, 88, 81
1, 100355, Note_off_c, 0, 64, 70
1, 100361, Control_c, 0, 64, 76
1, 100371, Note_off_c, 0, 52, 65
1, 100376, Control_c, 0, 64, 86
1, 100382, Note_off_c, 0, 80, 60
1, 100391, Control_c, 0, 64, 96
1, 100393, Note_off_c, 0, 85, 61
1, 100400, Note_off_c, 0, 88, 62
1, 100403, Note_off_c, 0, 92, 65
1, 100406, Control_c, 0, 64, 102
1, 100420, Control_c, 0, 64, 102
1, 100435, Control_c, 0, 64, 93
1, 100450, Control_c, 0, 64, 79
1, 100456, Note_on_c, 0, 56, 94
1, 100459, Note_on_c, 0, 44, 84
1, 100461, Note_on_c, 0, 92, 92
1, 100462, Note_on_c, 0, 80, 97
1, 100465, Control_c, 0, 64, 72
1, 100470, Note_on_c, 0, 88, 78
1, 100471, Note_on_c, 0, 85, 82
1, 100476, Note_on_c, 0, 46, 58
1, 100478, Note_off_c, 0, 56, 66
1, 100480, Control_c, 0, 64, 78
1, 100485, Note_off_c, 0, 44, 67
1, 100491, Note_off_c, 0, 80, 59
1, 100494, Note_off_c, 0, 85, 67
1, 100495, Control_c, 0, 64, 92
1, 100502, Note_off_c, 0, 46, 57
1, 100503, Note_off_c, 0, 88, 59
1, 100510, Control_c, 0, 64, 109
1, 100510, Note_off_c, 0, 92, 65
1, 100525, Control_c, 0, 64, 127
1, 100566, Note_on_c, 0, 49, 94
1, 100567, Note_on_c, 0, 80, 103
1, 100567, Note_on_c, 0, 92, 91
1, 100569, Control_c, 0, 64, 116
1, 100570, Note_on_c, 0, 61, 98
1, 100574, Note_on_c, 0, 85, 92
1, 100577, Note_on_c, 0, 88, 83
1, 100584, Control_c, 0, 64, 93
1, 100599, Control_c, 0, 64, 86
1, 100602, Note_off_c, 0, 61, 60
1, 100604, Note_off_c, 0, 80, 66
1, 100614, Note_off_c, 0, 49, 61
1, 100614, Control_c, 0, 64, 91
1, 100617, Note_off_c, 0, 92, 66
1, 100617, Note_off_c, 0, 85, 63
1, 100621, Note_off_c, 0, 88, 60
1, 100629, Control_c, 0, 64, 100
1, 100644, Control_c, 0, 64, 111
1, 100659, Control_c, 0, 64, 127
1, 100671, Note_on_c, 0, 63, 101
1, 100673, Note_on_c, 0, 92, 91
1, 100674, Note_on_c, 0, 80, 97
1, 100680, Note_on_c, 0, 51, 79
1, 100680, Note_on_c, 0, 88, 75
1, 100682, Note_on_c, 0, 85, 77
1, 100710, Note_off_c, 0, 80, 62
1, 100711, Note_off_c, 0, 85, 58
1, 100716, Note_off_c, 0, 63, 65
1, 100721, Note_off_c, 0, 92, 65
1, 100724, Note_off_c, 0, 88, 64
1, 100770, Note_on_c, 0, 64, 91
1, 100778, Note_on_c, 0, 52, 82
1, 100778, Note_on_c, 0, 80, 96
1, 100778, Note_on_c, 0, 92, 88
1, 100784, Note_on_c, 0, 88, 84
1, 100787, Note_on_c, 0, 85, 87
1, 100791, Note_off_c, 0, 64, 69
1, 100807, Note_off_c, 0, 52, 64
1, 100808, Note_off_c, 0, 51, 54
1, 100813, Note_off_c, 0, 85, 62
1, 100817, Note_off_c, 0, 80, 62
1, 100826, Note_off_c, 0, 92, 66
1, 100832, Note_off_c, 0, 88, 62
1, 100886, Note_on_c, 0, 44, 91
1, 100886, Note_on_c, 0, 56, 97
1, 100889, Note_on_c, 0, 80, 101
1, 100889, Note_on_c, 0, 92, 95
1, 100893, Note_on_c, 0, 88, 82
1, 100896, Note_on_c, 0, 85, 88
1, 100908, Note_off_c, 0, 44, 70
1, 100911, Note_off_c, 0, 56, 66
1, 100923, Note_off_c, 0, 85, 59
1, 100927, Note_off_c, 0, 80, 62
1, 100936, Note_off_c, 0, 92, 65
1, 100946, Note_off_c, 0, 88, 63
1, 101001, Note_on_c, 0, 49, 95
1, 101003, Note_on_c, 0, 61, 99
1, 101005, Note_on_c, 0, 80, 97
1, 101006, Note_on_c, 0, 92, 90
1, 101007, Control_c, 0, 64, 117
1, 101008, Note_on_c, 0, 88, 82
1, 101009, Note_on_c, 0, 85, 94
1, 101022, Control_c, 0, 64, 78
1, 101035, Note_off_c, 0, 61, 60
1, 101037, Control_c, 0, 64, 0
1, 101037, Note_off_c, 0, 80, 58
1, 101040, Note_off_c, 0, 49, 62
1, 101046, Note_off_c, 0, 85, 59
1, 101049, Note_off_c, 0, 92, 65
1, 101054, Note_off_c, 0, 88, 60
1, 101104, Note_on_c, 0, 63, 89
1, 101108, Note_on_c, 0, 51, 72
1, 101108, Note_on_c, 0, 80, 99
1, 101109, Note_on_c, 0, 92, 89
1, 101115, Note_on_c, 0, 88, 75
1, 101116, Note_on_c, 0, 85, 87
1, 101146, Note_off_c, 0, 80, 64
1, 101153, Note_off_c, 0, 63, 61
1, 101154, Note_off_c, 0, 85, 62
1, 101160, Note_off_c, 0, 92, 65
1, 101161, Note_off_c, 0, 88, 62
1, 101172, Note_off_c, 0, 51, 59
1, 101216, Note_on_c, 0, 80, 99
1, 101217, Note_on_c, 0, 64, 88
1, 101218, Note_on_c, 0, 92, 86
1, 101221, Note_on_c, 0, 88, 80
1, 101223, Note_on_c, 0, 52, 85
1, 101225, Note_on_c, 0, 85, 80
1, 101249, Note_off_c, 0, 52, 66
1, 101249, Note_off_c, 0, 64, 66
1, 101252, Note_off_c, 0, 80, 66
1, 101267, Note_off_c, 0, 85, 64
1, 101272, Note_off_c, 0, 88, 64
1, 101277, Note_off_c, 0, 92, 65
1, 101332, Note_on_c, 0, 68, 100
1, 101333, Note_on_c, 0, 92, 93
1, 101333, Note_on_c, 0, 80, 105
1, 101335, Note_on_c, 0, 56, 96
1, 101340, Note_on_c, 0, 88, 91
1, 101344, Note_on_c, 0, 85, 90
1, 101348, Control_c, 0, 64, 40
1, 101358, Note_off_c, 0, 68, 64
1, 101362, Control_c, 0, 64, 83
1, 101363, Note_off_c, 0, 56, 66
1, 101367, Note_off_c, 0, 80, 64
1, 101378, Note_off_c, 0, 88, 66
1, 101378, Control_c, 0, 64, 107
1, 101379, Note_off_c, 0, 92, 64
1, 101380, Note_off_c, 0, 85, 62
1, 101392, Control_c, 0, 64, 127
1, 101615, Control_c, 0, 64, 105
1, 101630, Control_c, 0, 64, 86
1, 101645, Control_c, 0, 64, 60
1, 101660, Control_c, 0, 64, 0
1, 101699, Note_on_c, 0, 61, 82
1, 101699, Note_on_c, 0, 49, 75
1, 101700, Note_on_c, 0, 73, 87
1, 101700, Note_on_c, 0, 85, 90
1, 101719, Note_off_c, 0, 73, 70
1, 101720, Note_off_c, 0, 61, 69
1, 101722, Note_off_c, 0, 85, 64
1, 101729, Note_off_c, 0, 49, 66
1, 101802, Note_on_c, 0, 75, 96
1, 101803, Note_on_c, 0, 87, 99
1, 101805, Note_on_c, 0, 63, 87
1, 101809, Note_on_c, 0, 51, 73
1, 101833, Note_off_c, 0, 75, 64
1, 101835, Note_off_c, 0, 63, 62
1, 101843, Note_off_c, 0, 87, 65
1, 101848, Note_off_c, 0, 51, 63
1, 101916, Note_on_c, 0, 88, 101
1, 101917, Note_on_c, 0, 76, 97
1, 101922, Note_on_c, 0, 64, 85
1, 101925, Note_on_c, 0, 52, 76
1, 101939, Note_off_c, 0, 76, 64
1, 101950, Note_off_c, 0, 64, 64
1, 101952, Note_off_c, 0, 88, 66
1, 101954, Note_off_c, 0, 52, 65
1, 102045, Note_on_c, 0, 69, 97
1, 102047, Note_on_c, 0, 57, 92
1, 102047, Note_on_c, 0, 93, 113
1, 102048, Note_on_c, 0, 81, 102
1, 102052, Control_c, 0, 64, 62
1, 102060, Note_off_c, 0, 69, 73
1, 102063, Note_off_c, 0, 81, 70
1, 102066, Control_c, 0, 64, 83
1, 102068, Note_off_c, 0, 57, 68
1, 102071, Note_off_c, 0, 93, 66
1, 102081, Control_c, 0, 64, 106
1, 102096, Control_c, 0, 64, 127
1, 102245, Control_c, 0, 64, 103
1, 102260, Control_c, 0, 64, 79
1, 102275, Control_c, 0, 64, 52
1, 102289, Control_c, 0, 64, 0
1, 102436, Note_on_c, 0, 49, 82
1, 102436, Note_on_c, 0, 61, 86
1, 102437, Note_on_c, 0, 73, 96
1, 102448, Note_on_c, 0, 85, 95
1, 102466, Note_off_c, 0, 61, 68
1, 102474, Note_off_c, 0, 49, 67
1, 102477, Note_off_c, 0, 73, 62
1, 102489, Note_off_c, 0, 85, 63
1, 102570, Note_on_c, 0, 63, 96
1, 102572, Note_on_c, 0, 75, 97
1, 102573, Note_on_c, 0, 87, 101
1, 102574, Note_on_c, 0, 51, 84
1, 102604, Note_off_c, 0, 75, 67
1, 102609, Note_off_c, 0, 63, 58
1, 102611, Note_off_c, 0, 87, 68
1, 102612, Note_off_c, 0, 51, 61
1, 102704, Note_on_c, 0, 64, 92
1, 102707, Note_on_c, 0, 88, 105
1, 102710, Note_on_c, 0, 76, 97
1, 102711, Note_on_c, 0, 52, 77
1, 102731, Note_off_c, 0, 52, 64
1, 102731, Note_off_c, 0, 76, 66
1, 102732, Note_off_c, 0, 64, 66
1, 102739, Note_off_c, 0, 88, 67
1, 102912, Note_on_c, 0, 82, 105
1, 102912, Note_on_c, 0, 94, 105
1, 102914, Note_on_c, 0, 70, 96
1, 102915, Note_on_c, 0, 58, 88
1, 102919, Control_c, 0, 64, 64
1, 102934, Control_c, 0, 64, 94
1, 102940, Note_off_c, 0, 82, 68
1, 102940, Note_off_c, 0, 94, 69
1, 102944, Note_off_c, 0, 58, 65
1, 102948, Note_off_c, 0, 70, 69
1, 102948, Control_c, 0, 64, 127
1, 102955, Note_on_c, 0, 92, 19
1, 102956, Note_off_c, 0, 92, 127
1, 103327, Control_c, 0, 64, 110
1, 103342, Control_c, 0, 64, 96
1, 103357, Control_c, 0, 64, 85
1, 103372, Control_c, 0, 64, 75
1, 103386, Control_c, 0, 64, 64
1, 103401, Control_c, 0, 64, 0
1, 104062, Note_on_c, 0, 52, 94
1, 104062, Control_c, 0, 64, 54
1, 104063, Note_on_c, 0, 40, 83
1, 104069, Note_on_c, 0, 85, 101
1, 104071, Note_on_c, 0, 73, 92
1, 104076, Control_c, 0, 64, 77
1, 104091, Control_c, 0, 64, 92
1, 104092, Note_off_c, 0, 73, 68
1, 104094, Note_off_c, 0, 52, 64
1, 104102, Note_off_c, 0, 40, 63
1, 104106, Note_off_c, 0, 85, 63
1, 104106, Control_c, 0, 64, 113
1, 104120, Control_c, 0, 64, 119
1, 104135, Control_c, 0, 64, 119
1, 104150, Control_c, 0, 64, 105
1, 104165, Control_c, 0, 64, 83
1, 104180, Control_c, 0, 64, 62
1, 104194, Control_c, 0, 64, 0
1, 104337, Note_on_c, 0, 39, 87
1, 104337, Note_on_c, 0, 51, 96
1, 104339, Note_on_c, 0, 75, 91
1, 104339, Note_on_c, 0, 87, 106
1, 104343, Control_c, 0, 64, 71
1, 104358, Control_c, 0, 64, 101
1, 104364, Note_off_c, 0, 75, 65
1, 104366, Note_off_c, 0, 51, 64
1, 104373, Control_c, 0, 64, 127
1, 104379, Note_off_c, 0, 87, 62
1, 104382, Note_off_c, 0, 39, 58
1, 104417, Control_c, 0, 64, 111
1, 104432, Control_c, 0, 64, 91
1, 104447, Control_c, 0, 64, 73
1, 104462, Control_c, 0, 64, 0
1, 104625, Control_c, 0, 64, 61
1, 104627, Note_on_c, 0, 76, 92
1, 104628, Note_on_c, 0, 88, 111
1, 104630, Note_on_c, 0, 49, 97
1, 104631, Note_on_c, 0, 37, 90
1, 104640, Control_c, 0, 64, 91
1, 104644, Note_off_c, 0, 76, 74
1, 104655, Note_off_c, 0, 49, 69
1, 104655, Control_c, 0, 64, 127
1, 104665, Note_off_c, 0, 88, 68
1, 104678, Note_off_c, 0, 37, 59
1, 104943, Control_c, 0, 64, 77
1, 104958, Control_c, 0, 64, 0
1, 104975, Note_on_c, 0, 32, 84
1, 104978, Note_on_c, 0, 44, 97
1, 104982, Note_on_c, 0, 88, 95
1, 104986, Note_on_c, 0, 100, 97
1, 105015, Note_off_c, 0, 32, 63
1, 105017, Control_c, 0, 64, 67
1, 105032, Note_off_c, 0, 44, 63
1, 105032, Control_c, 0, 64, 81
1, 105047, Control_c, 0, 64, 96
1, 105062, Note_off_c, 0, 88, 62
1, 105062, Control_c, 0, 64, 119
1, 105067, Note_off_c, 0, 100, 61
1, 105077, Control_c, 0, 64, 127
1, 105167, Note_on_c, 0, 44, 69
1, 105170, Note_on_c, 0, 85, 97
1, 105172, Note_on_c, 0, 52, 70
1, 105173, Note_on_c, 0, 97, 102
1, 105178, Note_on_c, 0, 49, 59
1, 105196, Note_off_c, 0, 44, 65
1, 105199, Note_off_c, 0, 52, 65
1, 105203, Note_off_c, 0, 85, 66
1, 105208, Note_off_c, 0, 49, 64
1, 105211, Note_off_c, 0, 97, 68
1, 105277, Note_on_c, 0, 52, 74
1, 105280, Note_on_c, 0, 49, 81
1, 105282, Note_on_c, 0, 44, 78
1, 105291, Note_on_c, 0, 92, 102
1, 105294, Note_on_c, 0, 80, 93
1, 105311, Note_off_c, 0, 52, 64
1, 105312, Note_off_c, 0, 44, 64
1, 105317, Note_off_c, 0, 49, 64
1, 105328, Note_off_c, 0, 92, 68
1, 105330, Note_off_c, 0, 80, 63
1, 105390, Note_on_c, 0, 44, 82
1, 105391, Note_on_c, 0, 49, 80
1, 105393, Note_on_c, 0, 52, 84
1, 105399, Note_on_c, 0, 88, 109
1, 105402, Note_on_c, 0, 76, 100
1, 105418, Note_off_c, 0, 52, 69
1, 105419, Note_off_c, 0, 49, 62
1, 105423, Note_off_c, 0, 76, 68
1, 105425, Note_off_c, 0, 44, 66
1, 105433, Note_off_c, 0, 88, 68
1, 105506, Note_on_c, 0, 73, 102
1, 105509, Note_on_c, 0, 52, 82
1, 105511, Note_on_c, 0, 44, 78
1, 105512, Note_on_c, 0, 49, 83
1, 105512, Note_on_c, 0, 85, 103
1, 105530, Note_off_c, 0, 85, 65
1, 105536, Note_off_c, 0, 73, 66
1, 105538, Note_off_c, 0, 44, 64
1, 105538, Note_off_c, 0, 49, 65
1, 105543, Note_off_c, 0, 52, 64
1, 105613, Note_on_c, 0, 80, 99
1, 105614, Note_on_c, 0, 68, 99
1, 105617, Note_on_c, 0, 52, 80
1, 105618, Note_on_c, 0, 44, 79
1, 105620, Note_on_c, 0, 49, 79
1, 105644, Note_off_c, 0, 52, 68
1, 105644, Note_off_c, 0, 80, 69
1, 105646, Note_off_c, 0, 68, 68
1, 105653, Note_off_c, 0, 49, 65
1, 105657, Note_off_c, 0, 44, 64
1, 105718, Note_on_c, 0, 76, 101
1, 105720, Note_on_c, 0, 64, 91
1, 105723, Note_on_c, 0, 52, 85
1, 105724, Note_on_c, 0, 44, 82
1, 105726, Note_on_c, 0, 49, 80
1, 105739, Note_off_c, 0, 64, 73
1, 105746, Note_off_c, 0, 76, 69
1, 105750, Note_off_c, 0, 52, 67
1, 105758, Note_off_c, 0, 44, 65
1, 105759, Note_off_c, 0, 49, 65
1, 105817, Note_on_c, 0, 73, 101
1, 105819, Note_on_c, 0, 44, 82
1, 105820, Note_on_c, 0, 61, 88
1, 105822, Note_on_c, 0, 52, 75
1, 105823, Note_on_c, 0, 49, 72
1, 105845, Note_off_c, 0, 61, 65
1, 105854, Note_off_c, 0, 52, 65
1, 105859, Note_off_c, 0, 73, 65
1, 105865, Note_off_c, 0, 44, 61
1, 105866, Note_off_c, 0, 49, 63
1, 105926, Note_on_c, 0, 69, 101
1, 105927, Note_on_c, 0, 57, 96
1, 105934, Note_on_c, 0, 52, 85
1, 105935, Note_on_c, 0, 44, 71
1, 105935, Note_on_c, 0, 49, 79
1, 105963, Note_off_c, 0, 57, 66
1, 105967, Note_off_c, 0, 52, 64
1, 105974, Note_off_c, 0, 69, 61
1, 105975, Note_off_c, 0, 44, 63
1, 105978, Note_off_c, 0, 49, 64
1, 105989, Control_c, 0, 64, 101
1, 106004, Control_c, 0, 64, 65
1, 106019, Control_c, 0, 64, 0
1, 106038, Note_on_c, 0, 52, 97
1, 106040, Note_on_c, 0, 56, 102
1, 106042, Note_on_c, 0, 68, 98
1, 106045, Note_on_c, 0, 44, 83
1, 106045, Note_on_c, 0, 49, 88
1, 106063, Control_c, 0, 64, 65
1, 106078, Control_c, 0, 64, 85
1, 106092, Control_c, 0, 64, 127
1, 106108, Note_off_c, 0, 52, 65
1, 106116, Note_off_c, 0, 44, 61
1, 106125, Note_off_c, 0, 49, 59
1, 106145, Note_off_c, 0, 56, 64
1, 106206, Note_off_c, 0, 68, 55
1, 106501, Control_c, 0, 64, 104
1, 106515, Control_c, 0, 64, 71
1, 106530, Control_c, 0, 64, 0
1, 106781, Note_on_c, 0, 44, 80
1, 106785, Note_on_c, 0, 48, 72
1, 106815, Note_on_c, 0, 51, 79
1, 106835, Note_on_c, 0, 56, 101
1, 106835, Note_on_c, 0, 72, 101
1, 106837, Note_on_c, 0, 84, 96
1, 106838, Note_on_c, 0, 75, 90
1, 106838, Note_on_c, 0, 80, 87
1, 106841, Control_c, 0, 64, 67
1, 106841, Note_on_c, 0, 78, 81
1, 106855, Control_c, 0, 64, 127
1, 106872, Note_off_c, 0, 72, 67
1, 106879, Note_off_c, 0, 44, 65
1, 106889, Note_off_c, 0, 75, 68
1, 106893, Note_off_c, 0, 84, 66
1, 106903, Note_off_c, 0, 48, 63
1, 106904, Note_off_c, 0, 78, 66
1, 106907, Note_off_c, 0, 56, 63
1, 106907, Note_off_c, 0, 80, 65
1, 106921, Note_off_c, 0, 51, 64
1, 107409, Note_on_c, 0, 49, 75
1, 107411, Note_on_c, 0, 81, 83
1, 107411, Control_c, 0, 64, 94
1, 107414, Note_on_c, 0, 73, 88
1, 107417, Note_on_c, 0, 76, 74
1, 107417, Note_on_c, 0, 85, 83
1, 107419, Note_on_c, 0, 37, 57
1, 107426, Control_c, 0, 64, 34
1, 107434, Note_off_c, 0, 73, 70
1, 107437, Note_off_c, 0, 49, 67
1, 107441, Control_c, 0, 64, 0
1, 107442, Note_off_c, 0, 76, 66
1, 107442, Note_off_c, 0, 85, 62
1, 107452, Note_off_c, 0, 37, 55
1, 107455, Note_off_c, 0, 81, 61
1, 107512, Note_on_c, 0, 52, 78
1, 107513, Note_on_c, 0, 40, 77
1, 107515, Note_on_c, 0, 73, 99
1, 107519, Note_on_c, 0, 85, 85
1, 107524, Note_on_c, 0, 81, 76
1, 107526, Note_on_c, 0, 76, 77
1, 107538, Note_off_c, 0, 52, 67
1, 107540, Note_off_c, 0, 73, 61
1, 107544, Note_on_c, 0, 80, 24
1, 107545, Note_off_c, 0, 40, 64
1, 107548, Note_off_c, 0, 76, 69
1, 107550, Note_off_c, 0, 85, 65
1, 107551, Note_off_c, 0, 80, 40
1, 107557, Note_off_c, 0, 81, 65
1, 107613, Note_on_c, 0, 73, 99
1, 107613, Note_on_c, 0, 54, 88
1, 107618, Note_on_c, 0, 42, 79
1, 107619, Note_on_c, 0, 76, 90
1, 107619, Note_on_c, 0, 81, 74
1, 107622, Note_on_c, 0, 85, 79
1, 107640, Note_off_c, 0, 54, 66
1, 107645, Note_off_c, 0, 73, 62
1, 107658, Note_off_c, 0, 85, 63
1, 107659, Note_off_c, 0, 76, 63
1, 107670, Note_off_c, 0, 42, 61
1, 107670, Note_off_c, 0, 81, 64
1, 107733, Note_on_c, 0, 76, 96
1, 107733, Note_on_c, 0, 81, 92
1, 107733, Note_on_c, 0, 73, 108
1, 107736, Note_on_c, 0, 55, 103
1, 107736, Note_on_c, 0, 85, 95
1, 107740, Note_on_c, 0, 43, 97
1, 107894, Control_c, 0, 64, 52
1, 107908, Control_c, 0, 64, 69
1, 107923, Control_c, 0, 64, 79
1, 107938, Control_c, 0, 64, 87
1, 107953, Control_c, 0, 64, 92
1, 107968, Control_c, 0, 64, 99
1, 107983, Control_c, 0, 64, 108
1, 107998, Control_c, 0, 64, 127
1, 108161, Note_off_c, 0, 55, 48
1, 108173, Note_off_c, 0, 43, 55
1, 108182, Note_off_c, 0, 85, 53
1, 108279, Note_off_c, 0, 76, 40
1, 108360, Note_off_c, 0, 73, 59
1, 108367, Note_off_c, 0, 81, 50
1, 108459, Note_on_c, 0, 84, 98
1, 108460, Note_on_c, 0, 44, 86
1, 108461, Note_on_c, 0, 56, 98
1, 108465, Note_on_c, 0, 72, 94
1, 108472, Note_on_c, 0, 80, 68
1, 108473, Note_on_c, 0, 75, 67
1, 108491, Note_off_c, 0, 56, 62
1, 108496, Note_off_c, 0, 75, 68
1, 108499, Note_off_c, 0, 80, 63
1, 108503, Note_off_c, 0, 44, 62
1, 108514, Note_off_c, 0, 72, 63
1, 108525, Note_off_c, 0, 84, 62
1, 108656, Note_on_c, 0, 49, 90
1, 108657, Note_on_c, 0, 37, 79
1, 108660, Note_on_c, 0, 81, 84
1, 108660, Note_on_c, 0, 73, 98
1, 108664, Note_on_c, 0, 85, 88
1, 108665, Note_on_c, 0, 76, 78
1, 108680, Note_off_c, 0, 49, 69
1, 108688, Note_off_c, 0, 37, 65
1, 108692, Note_off_c, 0, 76, 63
1, 108693, Note_off_c, 0, 73, 55
1, 108704, Note_off_c, 0, 81, 63
1, 108710, Note_off_c, 0, 85, 60
1, 108716, Control_c, 0, 64, 118
1, 108731, Control_c, 0, 64, 76
1, 108746, Control_c, 0, 64, 0
1, 108764, Note_on_c, 0, 73, 93
1, 108768, Note_on_c, 0, 52, 88
1, 108769, Note_on_c, 0, 85, 79
1, 108770, Note_on_c, 0, 76, 83
1, 108770, Note_on_c, 0, 81, 81
1, 108776, Note_on_c, 0, 40, 79
1, 108791, Note_off_c, 0, 52, 70
1, 108791, Note_off_c, 0, 73, 62
1, 108797, Note_off_c, 0, 76, 62
1, 108804, Note_off_c, 0, 40, 65
1, 108804, Note_off_c, 0, 85, 64
1, 108812, Note_off_c, 0, 81, 62
1, 108866, Note_on_c, 0, 73, 101
1, 108870, Note_on_c, 0, 76, 88
1, 108870, Note_on_c, 0, 85, 84
1, 108871, Note_on_c, 0, 81, 76
1, 108872, Note_on_c, 0, 54, 96
1, 108876, Note_on_c, 0, 42, 86
1, 108902, Note_off_c, 0, 54, 60
1, 108905, Note_off_c, 0, 73, 61
1, 108913, Note_off_c, 0, 76, 63
1, 108914, Note_off_c, 0, 85, 63
1, 108923, Note_off_c, 0, 42, 59
1, 108925, Note_off_c, 0, 81, 64
1, 108985, Note_on_c, 0, 73, 103
1, 108985, Note_on_c, 0, 76, 91
1, 108985, Note_on_c, 0, 85, 96
1, 108988, Note_on_c, 0, 82, 60
1, 108989, Note_off_c, 0, 82, 127
1, 108989, Note_on_c, 0, 55, 102
1, 108989, Note_on_c, 0, 81, 92
1, 108993, Note_on_c, 0, 43, 96
1, 109227, Control_c, 0, 64, 59
1, 109241, Control_c, 0, 64, 70
1, 109256, Control_c, 0, 64, 77
1, 109271, Control_c, 0, 64, 83
1, 109286, Control_c, 0, 64, 91
1, 109301, Control_c, 0, 64, 100
1, 109315, Control_c, 0, 64, 109
1, 109330, Control_c, 0, 64, 124
1, 109345, Control_c, 0, 64, 127
1, 109435, Note_off_c, 0, 43, 54
1, 109448, Note_off_c, 0, 85, 58
1, 109467, Note_off_c, 0, 55, 52
1, 109566, Note_off_c, 0, 76, 56
1, 109662, Note_off_c, 0, 73, 59
1, 109708, Note_off_c, 0, 81, 46
1, 109786, Note_on_c, 0, 56, 109
1, 109790, Note_on_c, 0, 44, 100
1, 109792, Note_on_c, 0, 84, 101
1, 109798, Note_on_c, 0, 80, 38
1, 109798, Note_on_c, 0, 72, 96
1, 109807, Poly_aftertouch_c, 0, 75, 127
1, 109818, Note_off_c, 0, 56, 65
1, 109826, Note_off_c, 0, 80, 55
1, 109837, Note_off_c, 0, 44, 62
1, 109846, Poly_aftertouch_c, 0, 75, 0
1, 109940, Note_off_c, 0, 84, 58
1, 109982, Note_off_c, 0, 72, 62
1, 110095, Control_c, 0, 64, 82
1, 110110, Control_c, 0, 64, 0
1, 110111, Note_on_c, 0, 76, 73
1, 110112, Note_on_c, 0, 49, 105
1, 110113, Note_on_c, 0, 73, 103
1, 110114, Note_on_c, 0, 85, 100
1, 110117, Note_on_c, 0, 37, 88
1, 110121, Note_on_c, 0, 80, 77
1, 110185, Control_c, 0, 64, 63
1, 110192, Note_off_c, 0, 37, 64
1, 110200, Control_c, 0, 64, 74
1, 110206, Note_off_c, 0, 49, 65
1, 110215, Control_c, 0, 64, 87
1, 110229, Control_c, 0, 64, 101
1, 110244, Control_c, 0, 64, 116
1, 110259, Control_c, 0, 64, 127
1, 110284, Note_off_c, 0, 73, 59
1, 110287, Note_off_c, 0, 76, 60
1, 110389, Note_off_c, 0, 80, 61
1, 110389, Note_off_c, 0, 85, 59
1, 110579, Note_on_c, 0, 76, 73
1, 110580, Note_on_c, 0, 68, 68
1, 110585, Note_on_c, 0, 88, 85
1, 110599, Note_on_c, 0, 80, 65
1, 110605, Note_off_c, 0, 76, 64
1, 110611, Note_off_c, 0, 68, 62
1, 110617, Note_off_c, 0, 80, 66
1, 110636, Note_off_c, 0, 88, 61
1, 110766, Note_on_c, 0, 76, 78
1, 110767, Note_on_c, 0, 68, 75
1, 110769, Note_on_c, 0, 88, 95
1, 110790, Note_on_c, 0, 80, 73
1, 110805, Note_off_c, 0, 76, 58
1, 110806, Note_off_c, 0, 80, 69
1, 110807, Note_off_c, 0, 68, 56
1, 110821, Note_off_c, 0, 88, 63
1, 110905, Note_on_c, 0, 88, 101
1, 110910, Note_on_c, 0, 76, 89
1, 110915, Note_on_c, 0, 80, 84
1, 110921, Note_on_c, 0, 68, 66
1, 110953, Note_off_c, 0, 80, 64
1, 110956, Note_off_c, 0, 76, 58
1, 110956, Note_off_c, 0, 88, 60
1, 111000, Note_off_c, 0, 68, 53
1, 111044, Note_on_c, 0, 64, 78
1, 111044, Note_on_c, 0, 76, 94
1, 111047, Note_on_c, 0, 85, 99
1, 111050, Note_on_c, 0, 73, 81
1, 111071, Note_off_c, 0, 76, 60
1, 111071, Note_off_c, 0, 73, 70
1, 111083, Note_off_c, 0, 85, 60
1, 111086, Note_off_c, 0, 64, 62
1, 111153, Note_on_c, 0, 85, 96
1, 111155, Note_on_c, 0, 76, 95
1, 111160, Note_on_c, 0, 73, 94
1, 111165, Note_on_c, 0, 64, 73
1, 111179, Note_off_c, 0, 76, 64
1, 111180, Note_off_c, 0, 73, 67
1, 111189, Note_off_c, 0, 64, 68
1, 111189, Note_off_c, 0, 85, 64
1, 111256, Note_on_c, 0, 85, 107
1, 111259, Note_on_c, 0, 76, 100
1, 111259, Note_on_c, 0, 73, 96
1, 111261, Note_on_c, 0, 64, 78
1, 111280, Note_off_c, 0, 76, 66
1, 111292, Note_off_c, 0, 64, 66
1, 111295, Note_off_c, 0, 85, 63
1, 111297, Note_off_c, 0, 73, 57
1, 111359, Note_on_c, 0, 80, 97
1, 111360, Note_on_c, 0, 76, 96
1, 111363, Note_on_c, 0, 68, 81
1, 111367, Note_on_c, 0, 64, 79
1, 111393, Note_off_c, 0, 80, 67
1, 111393, Note_off_c, 0, 64, 65
1, 111394, Note_off_c, 0, 76, 61
1, 111408, Note_off_c, 0, 68, 64
1, 111466, Note_on_c, 0, 76, 88
1, 111466, Note_on_c, 0, 80, 100
1, 111471, Note_on_c, 0, 68, 76
1, 111473, Note_on_c, 0, 64, 78
1, 111495, Note_off_c, 0, 76, 62
1, 111497, Note_off_c, 0, 64, 66
1, 111499, Note_off_c, 0, 80, 67
1, 111501, Note_off_c, 0, 68, 59
1, 111569, Note_on_c, 0, 76, 99
1, 111574, Note_on_c, 0, 80, 96
1, 111578, Note_on_c, 0, 68, 82
1, 111582, Note_on_c, 0, 64, 66
1, 111601, Note_off_c, 0, 68, 68
1, 111603, Note_off_c, 0, 76, 68
1, 111609, Note_off_c, 0, 64, 68
1, 111614, Note_off_c, 0, 80, 62
1, 111677, Note_on_c, 0, 64, 85
1, 111682, Note_on_c, 0, 76, 102
1, 111715, Note_off_c, 0, 76, 64
1, 111723, Note_off_c, 0, 64, 64
1, 111778, Note_on_c, 0, 61, 87
1, 111778, Note_on_c, 0, 73, 96
1, 111822, Note_off_c, 0, 73, 63
1, 111823, Note_off_c, 0, 61, 63
1, 111876, Note_on_c, 0, 56, 83
1, 111876, Note_on_c, 0, 68, 91
1, 111876, Note_on_c, 0, 64, 88
1, 111880, Note_on_c, 0, 52, 73
1, 111898, Note_off_c, 0, 56, 71
1, 111901, Note_off_c, 0, 68, 58
1, 111906, Note_off_c, 0, 52, 65
1, 111912, Note_off_c, 0, 64, 67
1, 111968, Note_on_c, 0, 52, 85
1, 111986, Note_on_c, 0, 64, 101
1, 112001, Note_on_c, 0, 62, 77
1, 112016, Note_off_c, 0, 52, 62
1, 112018, Note_off_c, 0, 62, 66
1, 112020, Note_off_c, 0, 64, 68
1, 112077, Note_on_c, 0, 49, 83
1, 112079, Note_on_c, 0, 61, 95
1, 112125, Note_off_c, 0, 49, 65
1, 112131, Note_off_c, 0, 61, 62
1, 112184, Note_on_c, 0, 44, 82
1, 112188, Note_on_c, 0, 56, 94
1, 112192, Note_on_c, 0, 40, 71
1, 112197, Note_on_c, 0, 50, 85
1, 112204, Note_on_c, 0, 52, 69
1, 112212, Note_off_c, 0, 44, 66
1, 112218, Note_off_c, 0, 40, 66
1, 112219, Note_off_c, 0, 56, 62
1, 112223, Note_off_c, 0, 50, 70
1, 112231, Note_off_c, 0, 52, 57
1, 112290, Note_on_c, 0, 40, 75
1, 112293, Note_on_c, 0, 52, 89
1, 112299, Note_on_c, 0, 51, 79
1, 112332, Note_off_c, 0, 51, 57
1, 112332, Note_off_c, 0, 52, 64
1, 112350, Note_off_c, 0, 40, 59
1, 112380, Note_on_c, 0, 37, 82
1, 112389, Note_on_c, 0, 32, 72
1, 112392, Note_on_c, 0, 49, 94
1, 112398, Note_on_c, 0, 44, 91
1, 112410, Note_off_c, 0, 37, 65
1, 112419, Note_off_c, 0, 32, 65
1, 112517, Note_off_c, 0, 44, 56
1, 112526, Note_on_c, 0, 37, 97
1, 112529, Note_on_c, 0, 25, 99
1, 112550, Control_c, 0, 64, 95
1, 112565, Control_c, 0, 64, 59
1, 112567, Note_off_c, 0, 49, 59
1, 112580, Control_c, 0, 64, 0
1, 112876, Control_c, 0, 64, 32
1, 112891, Control_c, 0, 64, 60
1, 112906, Control_c, 0, 64, 66
1, 112921, Control_c, 0, 64, 71
1, 112943, Control_c, 0, 64, 74
1, 112958, Control_c, 0, 64, 79
1, 112973, Control_c, 0, 64, 85
1, 112988, Control_c, 0, 64, 89
1, 113003, Control_c, 0, 64, 92
1, 113018, Control_c, 0, 64, 98
1, 113032, Control_c, 0, 64, 110
1, 113047, Control_c, 0, 64, 127
1, 113112, Note_off_c, 0, 25, 48
1, 113231, Note_off_c, 0, 37, 58
1, 113650, Note_on_c, 0, 49, 101
1, 113650, Note_on_c, 0, 47, 95
1, 113653, Note_on_c, 0, 61, 99
1, 113654, Note_on_c, 0, 35, 87
1, 113706, Control_c, 0, 64, 84
1, 113721, Control_c, 0, 64, 19
1, 113736, Control_c, 0, 64, 0
1, 113870, Control_c, 0, 64, 58
1, 113885, Control_c, 0, 64, 65
1, 113900, Control_c, 0, 64, 69
1, 113914, Control_c, 0, 64, 72
1, 113929, Control_c, 0, 64, 75
1, 113944, Control_c, 0, 64, 79
1, 113959, Control_c, 0, 64, 84
1, 113974, Control_c, 0, 64, 89
1, 113988, Control_c, 0, 64, 95
1, 114003, Control_c, 0, 64, 104
1, 114018, Control_c, 0, 64, 119
1, 114032, Control_c, 0, 64, 127
1, 114286, Note_off_c, 0, 47, 51
1, 114615, Note_off_c, 0, 35, 36
1, 114800, Note_on_c, 0, 45, 97
1, 114806, Note_on_c, 0, 33, 92
1, 114841, Control_c, 0, 64, 88
1, 114855, Control_c, 0, 64, 55
1, 114870, Control_c, 0, 64, 0
1, 115078, Control_c, 0, 64, 51
1, 115093, Control_c, 0, 64, 62
1, 115108, Control_c, 0, 64, 65
1, 115123, Control_c, 0, 64, 68
1, 115138, Control_c, 0, 64, 70
1, 115152, Control_c, 0, 64, 72
1, 115175, Control_c, 0, 64, 75
1, 115190, Control_c, 0, 64, 78
1, 115205, Control_c, 0, 64, 81
1, 115220, Control_c, 0, 64, 84
1, 115234, Control_c, 0, 64, 88
1, 115249, Control_c, 0, 64, 91
1, 115264, Control_c, 0, 64, 93
1, 115278, Control_c, 0, 64, 96
1, 115293, Control_c, 0, 64, 100
1, 115308, Control_c, 0, 64, 106
1, 115323, Control_c, 0, 64, 116
1, 115338, Control_c, 0, 64, 127
1, 115669, Note_off_c, 0, 45, 36
1, 116035, Note_off_c, 0, 33, 56
1, 116076, Note_on_c, 0, 44, 103
1, 116082, Note_on_c, 0, 32, 94
1, 116116, Control_c, 0, 64, 82
1, 116131, Control_c, 0, 64, 14
1, 116146, Control_c, 0, 64, 0
1, 116309, Control_c, 0, 64, 26
1, 116324, Control_c, 0, 64, 45
1, 116338, Control_c, 0, 64, 55
1, 116353, Control_c, 0, 64, 61
1, 116368, Control_c, 0, 64, 64
1, 116383, Control_c, 0, 64, 67
1, 116398, Control_c, 0, 64, 69
1, 116413, Control_c, 0, 64, 71
1, 116427, Control_c, 0, 64, 73
1, 116442, Control_c, 0, 64, 76
1, 116457, Control_c, 0, 64, 80
1, 116472, Control_c, 0, 64, 85
1, 116487, Control_c, 0, 64, 90
1, 116501, Control_c, 0, 64, 94
1, 116516, Control_c, 0, 64, 98
1, 116531, Control_c, 0, 64, 103
1, 116547, Control_c, 0, 64, 110
1, 116562, Control_c, 0, 64, 127
1, 116722, Poly_aftertouch_c, 0, 60, 127
1, 116771, Note_off_c, 0, 49, 44
1, 116953, Note_off_c, 0, 61, 45
1, 116973, Poly_aftertouch_c, 0, 60, 0
1, 117212, Note_off_c, 0, 44, 34
1, 117641, Note_on_c, 0, 74, 66
1, 117674, Note_on_c, 0, 81, 79
1, 117718, Control_c, 0, 64, 70
1, 117733, Control_c, 0, 64, 0
1, 117737, Note_off_c, 0, 32, 60
1, 117737, Note_on_c, 0, 86, 103
1, 117739, Note_on_c, 0, 30, 86
1, 117745, Note_on_c, 0, 42, 90
1, 117753, Note_off_c, 0, 81, 64
1, 117777, Control_c, 0, 64, 60
1, 117789, Note_off_c, 0, 30, 63
1, 117792, Control_c, 0, 64, 69
1, 117802, Note_off_c, 0, 42, 65
1, 117807, Control_c, 0, 64, 82
1, 117821, Control_c, 0, 64, 97
1, 117836, Control_c, 0, 64, 114
1, 117851, Control_c, 0, 64, 127
1, 118091, Note_on_c, 0, 42, 91
1, 118103, Control_c, 0, 64, 96
1, 118118, Control_c, 0, 64, 65
1, 118133, Control_c, 0, 64, 0
1, 118178, Note_off_c, 0, 86, 38
1, 118215, Control_c, 0, 64, 57
1, 118230, Control_c, 0, 64, 64
1, 118244, Control_c, 0, 64, 66
1, 118259, Control_c, 0, 64, 67
1, 118274, Control_c, 0, 64, 69
1, 118289, Control_c, 0, 64, 70
1, 118303, Note_on_c, 0, 50, 70
1, 118303, Control_c, 0, 64, 72
1, 118306, Note_on_c, 0, 78, 79
1, 118318, Note_off_c, 0, 74, 63
1, 118318, Control_c, 0, 64, 76
1, 118333, Control_c, 0, 64, 79
1, 118348, Control_c, 0, 64, 81
1, 118363, Control_c, 0, 64, 83
1, 118371, Note_off_c, 0, 78, 63
1, 118377, Control_c, 0, 64, 84
1, 118379, Note_off_c, 0, 42, 62
1, 118392, Control_c, 0, 64, 85
1, 118407, Control_c, 0, 64, 86
1, 118420, Note_on_c, 0, 57, 74
1, 118422, Note_on_c, 0, 79, 82
1, 118434, Note_off_c, 0, 50, 63
1, 118437, Control_c, 0, 64, 86
1, 118452, Control_c, 0, 64, 88
1, 118467, Control_c, 0, 64, 89
1, 118471, Note_off_c, 0, 79, 62
1, 118482, Control_c, 0, 64, 89
1, 118521, Note_on_c, 0, 81, 90
1, 118526, Note_off_c, 0, 57, 62
1, 118526, Control_c, 0, 64, 90
1, 118531, Note_on_c, 0, 50, 73
1, 118541, Control_c, 0, 64, 90
1, 118556, Control_c, 0, 64, 91
1, 118566, Note_off_c, 0, 81, 64
1, 118619, Note_on_c, 0, 74, 89
1, 118626, Note_off_c, 0, 50, 64
1, 118628, Note_on_c, 0, 57, 66
1, 118665, Note_off_c, 0, 74, 66
1, 118689, Control_c, 0, 64, 92
1, 118709, Note_on_c, 0, 76, 91
1, 118718, Control_c, 0, 64, 91
1, 118728, Note_off_c, 0, 57, 60
1, 118733, Control_c, 0, 64, 89
1, 118734, Note_on_c, 0, 50, 68
1, 118748, Control_c, 0, 64, 86
1, 118758, Note_off_c, 0, 76, 64
1, 118762, Control_c, 0, 64, 79
1, 118777, Control_c, 0, 64, 71
1, 118792, Control_c, 0, 64, 68
1, 118807, Control_c, 0, 64, 74
1, 118815, Note_on_c, 0, 78, 89
1, 118815, Note_off_c, 0, 50, 61
1, 118822, Control_c, 0, 64, 80
1, 118835, Note_on_c, 0, 57, 62
1, 118836, Control_c, 0, 64, 84
1, 118847, Note_off_c, 0, 78, 62
1, 118851, Control_c, 0, 64, 87
1, 118866, Control_c, 0, 64, 89
1, 118881, Control_c, 0, 64, 92
1, 118896, Control_c, 0, 64, 94
1, 118918, Control_c, 0, 64, 95
1, 118933, Control_c, 0, 64, 97
1, 118938, Note_off_c, 0, 57, 58
1, 118941, Note_on_c, 0, 50, 59
1, 118949, Control_c, 0, 64, 99
1, 118964, Control_c, 0, 64, 100
1, 118979, Control_c, 0, 64, 100
1, 119038, Note_off_c, 0, 50, 58
1, 119059, Note_on_c, 0, 57, 56
1, 119092, Poly_aftertouch_c, 0, 46, 127
1, 119153, Note_off_c, 0, 57, 56
1, 119167, Note_on_c, 0, 69, 58
1, 119167, Poly_aftertouch_c, 0, 46, 0
1, 119183, Note_on_c, 0, 50, 54
1, 119186, Control_c, 0, 64, 100
1, 119255, Note_off_c, 0, 69, 51
1, 119260, Control_c, 0, 64, 99
1, 119290, Control_c, 0, 64, 98
1, 119304, Control_c, 0, 64, 92
1, 119307, Note_off_c, 0, 50, 53
1, 119319, Control_c, 0, 64, 81
1, 119321, Note_on_c, 0, 41, 56
1, 119334, Control_c, 0, 64, 64
1, 119337, Note_on_c, 0, 73, 56
1, 119349, Control_c, 0, 64, 0
1, 119364, Control_c, 0, 64, 23
1, 119379, Control_c, 0, 64, 50
1, 119393, Control_c, 0, 64, 55
1, 119408, Control_c, 0, 64, 59
1, 119423, Control_c, 0, 64, 64
1, 119438, Control_c, 0, 64, 66
1, 119452, Control_c, 0, 64, 68
1, 119467, Control_c, 0, 64, 69
1, 119480, Note_on_c, 0, 50, 49
1, 119482, Control_c, 0, 64, 70
1, 119492, Note_off_c, 0, 73, 56
1, 119497, Control_c, 0, 64, 71
1, 119501, Note_on_c, 0, 74, 60
1, 119506, Note_off_c, 0, 41, 50
1, 119512, Control_c, 0, 64, 73
1, 119526, Control_c, 0, 64, 75
1, 119540, Control_c, 0, 64, 77
1, 119555, Control_c, 0, 64, 78
1, 119571, Note_off_c, 0, 74, 57
1, 119582, Note_off_c, 0, 50, 62
1, 119585, Control_c, 0, 64, 79
1, 119600, Control_c, 0, 64, 79
1, 119607, Note_on_c, 0, 57, 52
1, 119614, Control_c, 0, 64, 80
1, 119619, Note_on_c, 0, 65, 55
1, 119670, Note_off_c, 0, 65, 59
1, 119681, Control_c, 0, 64, 80
1, 119696, Control_c, 0, 64, 79
1, 119699, Note_off_c, 0, 57, 48
1, 119708, Note_on_c, 0, 50, 57
1, 119711, Control_c, 0, 64, 78
1, 119722, Note_on_c, 0, 67, 66
1, 119725, Control_c, 0, 64, 77
1, 119771, Control_c, 0, 64, 78
1, 119786, Control_c, 0, 64, 79
1, 119796, Note_off_c, 0, 50, 62
1, 119800, Note_off_c, 0, 67, 51
1, 119801, Control_c, 0, 64, 80
1, 119815, Control_c, 0, 64, 81
1, 119818, Note_on_c, 0, 57, 55
1, 119820, Note_on_c, 0, 69, 72
1, 119860, Note_off_c, 0, 69, 59
1, 119860, Control_c, 0, 64, 79
1, 119874, Control_c, 0, 64, 76
1, 119889, Control_c, 0, 64, 73
1, 119902, Note_off_c, 0, 57, 56
1, 119906, Note_on_c, 0, 62, 70
1, 119918, Note_on_c, 0, 50, 58
1, 119919, Control_c, 0, 64, 74
1, 119934, Control_c, 0, 64, 75
1, 119948, Control_c, 0, 64, 77
1, 119963, Control_c, 0, 64, 78
1, 119967, Note_off_c, 0, 62, 58
1, 119978, Control_c, 0, 64, 80
1, 119993, Control_c, 0, 64, 81
1, 119998, Note_off_c, 0, 50, 61
1, 120009, Note_on_c, 0, 64, 64
1, 120014, Note_on_c, 0, 57, 62
1, 120023, Control_c, 0, 64, 80
1, 120038, Control_c, 0, 64, 76
1, 120053, Control_c, 0, 64, 72
1, 120067, Control_c, 0, 64, 69
1, 120082, Control_c, 0, 64, 71
1, 120088, Note_off_c, 0, 64, 61
1, 120095, Note_on_c, 0, 65, 77
1, 120096, Note_off_c, 0, 57, 59
1, 120097, Control_c, 0, 64, 72
1, 120109, Note_on_c, 0, 50, 61
1, 120112, Control_c, 0, 64, 74
1, 120127, Control_c, 0, 64, 76
1, 120137, Note_off_c, 0, 65, 59
1, 120141, Control_c, 0, 64, 77
1, 120156, Control_c, 0, 64, 76
1, 120171, Control_c, 0, 64, 73
1, 120185, Control_c, 0, 64, 66
1, 120188, Note_off_c, 0, 50, 62
1, 120199, Note_on_c, 0, 57, 76
1, 120200, Control_c, 0, 64, 64
1, 120215, Control_c, 0, 64, 67
1, 120230, Control_c, 0, 64, 69
1, 120245, Control_c, 0, 64, 71
1, 120260, Control_c, 0, 64, 73
1, 120274, Control_c, 0, 64, 77
1, 120289, Control_c, 0, 64, 80
1, 120294, Note_on_c, 0, 61, 65
1, 120296, Note_off_c, 0, 57, 61
1, 120304, Note_on_c, 0, 50, 63
1, 120304, Control_c, 0, 64, 82
1, 120319, Control_c, 0, 64, 83
1, 120334, Control_c, 0, 64, 84
1, 120348, Control_c, 0, 64, 86
1, 120363, Control_c, 0, 64, 90
1, 120378, Control_c, 0, 64, 94
1, 120382, Note_off_c, 0, 61, 62
1, 120385, Note_off_c, 0, 50, 60
1, 120390, Note_on_c, 0, 62, 62
1, 120392, Control_c, 0, 64, 96
1, 120406, Note_on_c, 0, 57, 62
1, 120407, Control_c, 0, 64, 97
1, 120419, Note_off_c, 0, 62, 63
1, 120430, Control_c, 0, 64, 98
1, 120445, Control_c, 0, 64, 100
1, 120460, Control_c, 0, 64, 103
1, 120473, Note_off_c, 0, 57, 53
1, 120474, Control_c, 0, 64, 107
1, 120489, Control_c, 0, 64, 107
1, 120502, Note_on_c, 0, 50, 72
1, 120542, Note_off_c, 0, 50, 67
1, 120564, Control_c, 0, 64, 108
1, 120594, Control_c, 0, 64, 106
1, 120607, Note_on_c, 0, 73, 72
1, 120609, Control_c, 0, 64, 90
1, 120618, Note_on_c, 0, 40, 88
1, 120618, Note_on_c, 0, 81, 70
1, 120621, Note_on_c, 0, 85, 96
1, 120623, Control_c, 0, 64, 69
1, 120638, Control_c, 0, 64, 0
1, 120655, Note_off_c, 0, 81, 63
1, 120683, Control_c, 0, 64, 44
1, 120697, Control_c, 0, 64, 64
1, 120712, Control_c, 0, 64, 73
1, 120727, Control_c, 0, 64, 81
1, 120735, Note_on_c, 0, 49, 86
1, 120742, Control_c, 0, 64, 90
1, 120748, Note_off_c, 0, 85, 67
1, 120757, Control_c, 0, 64, 96
1, 120771, Control_c, 0, 64, 98
1, 120786, Control_c, 0, 64, 99
1, 120801, Control_c, 0, 64, 100
1, 120822, Note_off_c, 0, 73, 62
1, 120837, Note_on_c, 0, 52, 80
1, 120849, Note_off_c, 0, 49, 64
1, 120905, Control_c, 0, 64, 99
1, 120920, Control_c, 0, 64, 99
1, 120927, Note_on_c, 0, 76, 90
1, 120935, Control_c, 0, 64, 97
1, 120935, Note_on_c, 0, 49, 86
1, 120939, Note_off_c, 0, 52, 64
1, 120950, Control_c, 0, 64, 93
1, 120964, Control_c, 0, 64, 85
1, 120974, Note_off_c, 0, 76, 65
1, 120979, Control_c, 0, 64, 74
1, 120994, Control_c, 0, 64, 47
1, 121008, Control_c, 0, 64, 0
1, 121018, Note_on_c, 0, 80, 92
1, 121022, Note_off_c, 0, 49, 62
1, 121029, Note_on_c, 0, 52, 78
1, 121061, Note_off_c, 0, 80, 66
1, 121115, Note_on_c, 0, 81, 96
1, 121118, Note_on_c, 0, 49, 80
1, 121120, Note_off_c, 0, 52, 62
1, 121154, Note_off_c, 0, 81, 63
1, 121197, Note_off_c, 0, 49, 58
1, 121221, Note_on_c, 0, 73, 95
1, 121230, Note_on_c, 0, 52, 68
1, 121259, Note_off_c, 0, 73, 65
1, 121313, Note_off_c, 0, 52, 59
1, 121316, Note_on_c, 0, 74, 92
1, 121320, Note_on_c, 0, 49, 64
1, 121355, Note_off_c, 0, 74, 67
1, 121394, Note_off_c, 0, 49, 60
1, 121428, Note_on_c, 0, 76, 80
1, 121442, Note_on_c, 0, 52, 50
1, 121461, Control_c, 0, 64, 32
1, 121476, Control_c, 0, 64, 58
1, 121491, Control_c, 0, 64, 64
1, 121506, Control_c, 0, 64, 66
1, 121510, Note_off_c, 0, 76, 62
1, 121520, Control_c, 0, 64, 69
1, 121528, Note_off_c, 0, 52, 61
1, 121534, Note_on_c, 0, 49, 61
1, 121535, Control_c, 0, 64, 72
1, 121550, Control_c, 0, 64, 76
1, 121565, Control_c, 0, 64, 80
1, 121580, Control_c, 0, 64, 84
1, 121594, Control_c, 0, 64, 86
1, 121609, Control_c, 0, 64, 88
1, 121616, Note_off_c, 0, 49, 62
1, 121624, Control_c, 0, 64, 90
1, 121639, Control_c, 0, 64, 91
1, 121653, Note_on_c, 0, 52, 56
1, 121653, Control_c, 0, 64, 93
1, 121668, Control_c, 0, 64, 93
1, 121684, Note_off_c, 0, 40, 38
1, 121737, Note_off_c, 0, 52, 55
1, 121747, Note_on_c, 0, 49, 56
1, 121755, Note_on_c, 0, 69, 70
1, 121787, Control_c, 0, 64, 92
1, 121802, Control_c, 0, 64, 91
1, 121807, Note_off_c, 0, 69, 53
1, 121817, Control_c, 0, 64, 90
1, 121831, Control_c, 0, 64, 88
1, 121833, Note_off_c, 0, 49, 57
1, 121846, Control_c, 0, 64, 87
1, 121861, Control_c, 0, 64, 85
1, 121873, Note_on_c, 0, 71, 75
1, 121876, Control_c, 0, 64, 83
1, 121877, Note_on_c, 0, 40, 51
1, 121891, Control_c, 0, 64, 79
1, 121913, Control_c, 0, 64, 76
1, 121928, Control_c, 0, 64, 72
1, 121943, Control_c, 0, 64, 70
1, 121955, Note_off_c, 0, 71, 55
1, 121957, Control_c, 0, 64, 66
1, 121972, Control_c, 0, 64, 58
1, 121987, Control_c, 0, 64, 0
1, 121995, Note_on_c, 0, 72, 72
1, 122038, Note_on_c, 0, 47, 26
1, 122043, Note_off_c, 0, 72, 60
1, 122051, Note_on_c, 0, 48, 16
1, 122078, Note_off_c, 0, 47, 54
1, 122093, Note_on_c, 0, 64, 74
1, 122093, Note_off_c, 0, 48, 38
1, 122101, Note_on_c, 0, 52, 55
1, 122148, Note_off_c, 0, 64, 50
1, 122169, Note_off_c, 0, 52, 59
1, 122178, Note_on_c, 0, 47, 58
1, 122192, Note_on_c, 0, 68, 70
1, 122247, Note_off_c, 0, 47, 59
1, 122256, Note_off_c, 0, 68, 40
1, 122284, Note_on_c, 0, 69, 67
1, 122295, Note_on_c, 0, 52, 50
1, 122324, Note_off_c, 0, 69, 61
1, 122369, Note_off_c, 0, 52, 59
1, 122376, Note_on_c, 0, 60, 63
1, 122384, Note_on_c, 0, 47, 51
1, 122409, Note_off_c, 0, 60, 64
1, 122439, Note_off_c, 0, 47, 60
1, 122476, Control_c, 0, 64, 21
1, 122480, Note_on_c, 0, 62, 55
1, 122491, Control_c, 0, 64, 24
1, 122499, Note_on_c, 0, 52, 49
1, 122506, Control_c, 0, 64, 21
1, 122521, Control_c, 0, 64, 0
1, 122536, Note_off_c, 0, 62, 57
1, 122570, Note_on_c, 0, 64, 57
1, 122572, Note_off_c, 0, 52, 61
1, 122596, Note_on_c, 0, 47, 37
1, 122608, Note_off_c, 0, 64, 63
1, 122647, Note_off_c, 0, 47, 58
1, 122684, Note_on_c, 0, 57, 50
1, 122715, Note_on_c, 0, 52, 40
1, 122724, Note_off_c, 0, 57, 60
1, 122757, Note_off_c, 0, 52, 50
1, 122773, Note_on_c, 0, 59, 52
1, 122799, Note_on_c, 0, 47, 25
1, 122825, Control_c, 0, 64, 30
1, 122830, Note_off_c, 0, 59, 53
1, 122840, Control_c, 0, 64, 58
1, 122842, Note_off_c, 0, 47, 52
1, 122855, Control_c, 0, 64, 65
1, 122870, Control_c, 0, 64, 68
1, 122872, Note_on_c, 0, 52, 48
1, 122885, Control_c, 0, 64, 70
1, 122889, Note_on_c, 0, 60, 25
1, 122899, Control_c, 0, 64, 74
1, 122914, Control_c, 0, 64, 79
1, 122929, Note_off_c, 0, 60, 54
1, 122929, Control_c, 0, 64, 83
1, 122945, Control_c, 0, 64, 87
1, 122951, Note_off_c, 0, 40, 62
1, 122959, Control_c, 0, 64, 92
1, 122974, Control_c, 0, 64, 98
1, 122984, Note_on_c, 0, 47, 57
1, 122989, Control_c, 0, 64, 104
1, 122995, Note_off_c, 0, 52, 52
1, 123004, Control_c, 0, 64, 107
1, 123019, Control_c, 0, 64, 108
1, 123034, Control_c, 0, 64, 108
1, 123048, Control_c, 0, 64, 112
1, 123057, Note_on_c, 0, 78, 70
1, 123063, Note_off_c, 0, 47, 60
1, 123063, Control_c, 0, 64, 127
1, 123081, Note_on_c, 0, 83, 75
1, 123095, Note_off_c, 0, 78, 61
1, 123104, Note_on_c, 0, 90, 101
1, 123108, Control_c, 0, 64, 108
1, 123109, Note_on_c, 0, 39, 89
1, 123123, Control_c, 0, 64, 78
1, 123128, Note_off_c, 0, 83, 67
1, 123138, Control_c, 0, 64, 0
1, 123197, Control_c, 0, 64, 26
1, 123207, Note_on_c, 0, 47, 77
1, 123211, Control_c, 0, 64, 63
1, 123226, Control_c, 0, 64, 70
1, 123241, Control_c, 0, 64, 74
1, 123256, Control_c, 0, 64, 78
1, 123271, Control_c, 0, 64, 82
1, 123285, Control_c, 0, 64, 86
1, 123300, Control_c, 0, 64, 90
1, 123305, Note_on_c, 0, 54, 87
1, 123315, Note_off_c, 0, 47, 65
1, 123315, Control_c, 0, 64, 91
1, 123345, Control_c, 0, 64, 91
1, 123359, Control_c, 0, 64, 92
1, 123374, Control_c, 0, 64, 92
1, 123406, Note_on_c, 0, 47, 75
1, 123420, Note_off_c, 0, 54, 64
1, 123421, Note_off_c, 0, 90, 21
1, 123426, Control_c, 0, 64, 92
1, 123427, Note_on_c, 0, 83, 98
1, 123441, Control_c, 0, 64, 90
1, 123456, Control_c, 0, 64, 86
1, 123471, Control_c, 0, 64, 78
1, 123472, Note_off_c, 0, 83, 66
1, 123485, Control_c, 0, 64, 69
1, 123500, Note_off_c, 0, 47, 61
1, 123500, Control_c, 0, 64, 62
1, 123515, Note_on_c, 0, 54, 77
1, 123515, Control_c, 0, 64, 63
1, 123523, Note_on_c, 0, 85, 96
1, 123530, Control_c, 0, 64, 63
1, 123559, Control_c, 0, 64, 63
1, 123574, Control_c, 0, 64, 62
1, 123579, Note_off_c, 0, 85, 63
1, 123589, Control_c, 0, 64, 62
1, 123604, Control_c, 0, 64, 59
1, 123611, Note_off_c, 0, 54, 62
1, 123612, Note_on_c, 0, 47, 71
1, 123618, Control_c, 0, 64, 36
1, 123619, Note_on_c, 0, 87, 95
1, 123633, Control_c, 0, 64, 0
1, 123666, Note_off_c, 0, 87, 66
1, 123693, Note_off_c, 0, 47, 60
1, 123713, Note_on_c, 0, 54, 71
1, 123713, Note_on_c, 0, 78, 90
1, 123764, Note_off_c, 0, 78, 62
1, 123800, Note_on_c, 0, 82, 85
1, 123801, Note_off_c, 0, 54, 60
1, 123812, Note_on_c, 0, 47, 63
1, 123869, Note_off_c, 0, 82, 57
1, 123890, Note_off_c, 0, 47, 62
1, 123899, Note_on_c, 0, 83, 79
1, 123914, Note_on_c, 0, 54, 59
1, 123931, Control_c, 0, 64, 41
1, 123946, Control_c, 0, 64, 59
1, 123955, Note_off_c, 0, 83, 65
1, 123961, Control_c, 0, 64, 64
1, 123976, Control_c, 0, 64, 66
1, 123990, Control_c, 0, 64, 70
1, 124001, Note_off_c, 0, 54, 64
1, 124005, Control_c, 0, 64, 74
1, 124014, Note_on_c, 0, 47, 63
1, 124020, Control_c, 0, 64, 78
1, 124033, Control_c, 0, 64, 83
1, 124048, Control_c, 0, 64, 86
1, 124063, Control_c, 0, 64, 90
1, 124078, Control_c, 0, 64, 94
1, 124093, Control_c, 0, 64, 96
1, 124095, Note_off_c, 0, 47, 62
1, 124107, Control_c, 0, 64, 97
1, 124121, Note_on_c, 0, 54, 59
1, 124122, Control_c, 0, 64, 98
1, 124141, Note_off_c, 0, 39, 31
1, 124150, Note_off_c, 0, 54, 66
1, 124233, Note_on_c, 0, 75, 62
1, 124234, Control_c, 0, 64, 97
1, 124238, Note_on_c, 0, 47, 45
1, 124263, Control_c, 0, 64, 97
1, 124278, Control_c, 0, 64, 94
1, 124293, Control_c, 0, 64, 87
1, 124294, Note_off_c, 0, 47, 54
1, 124307, Control_c, 0, 64, 76
1, 124319, Note_on_c, 0, 38, 62
1, 124322, Control_c, 0, 64, 61
1, 124329, Note_off_c, 0, 75, 49
1, 124337, Note_on_c, 0, 76, 64
1, 124337, Control_c, 0, 64, 0
1, 124366, Control_c, 0, 64, 14
1, 124381, Control_c, 0, 64, 42
1, 124396, Control_c, 0, 64, 53
1, 124411, Control_c, 0, 64, 60
1, 124417, Note_on_c, 0, 47, 56
1, 124426, Control_c, 0, 64, 63
1, 124428, Note_off_c, 0, 38, 51
1, 124429, Note_on_c, 0, 78, 65
1, 124441, Note_off_c, 0, 76, 52
1, 124441, Control_c, 0, 64, 65
1, 124455, Control_c, 0, 64, 67
1, 124470, Control_c, 0, 64, 68
1, 124485, Control_c, 0, 64, 69
1, 124493, Note_off_c, 0, 78, 61
1, 124500, Control_c, 0, 64, 71
1, 124503, Note_off_c, 0, 47, 64
1, 124515, Note_on_c, 0, 54, 56
1, 124515, Control_c, 0, 64, 72
1, 124532, Note_on_c, 0, 71, 62
1, 124572, Note_off_c, 0, 54, 57
1, 124594, Note_off_c, 0, 71, 52
1, 124615, Note_on_c, 0, 47, 42
1, 124618, Note_on_c, 0, 73, 64
1, 124634, Control_c, 0, 64, 71
1, 124694, Control_c, 0, 64, 72
1, 124703, Note_off_c, 0, 47, 58
1, 124706, Note_off_c, 0, 73, 62
1, 124715, Note_on_c, 0, 74, 65
1, 124724, Note_on_c, 0, 54, 49
1, 124724, Control_c, 0, 64, 72
1, 124738, Control_c, 0, 64, 73
1, 124766, Note_off_c, 0, 74, 63
1, 124774, Note_off_c, 0, 54, 52
1, 124782, Control_c, 0, 64, 72
1, 124797, Control_c, 0, 64, 70
1, 124808, Note_on_c, 0, 66, 66
1, 124812, Control_c, 0, 64, 68
1, 124827, Control_c, 0, 64, 66
1, 124834, Note_on_c, 0, 47, 47
1, 124856, Control_c, 0, 64, 67
1, 124871, Control_c, 0, 64, 68
1, 124885, Note_off_c, 0, 47, 58
1, 124886, Control_c, 0, 64, 69
1, 124901, Control_c, 0, 64, 69
1, 124921, Note_off_c, 0, 66, 52
1, 124932, Note_on_c, 0, 54, 45
1, 124945, Note_on_c, 0, 70, 47
1, 124953, Control_c, 0, 64, 69
1, 124968, Control_c, 0, 64, 68
1, 124983, Control_c, 0, 64, 66
1, 124992, Note_off_c, 0, 54, 57
1, 124997, Control_c, 0, 64, 67
1, 125012, Control_c, 0, 64, 68
1, 125019, Note_off_c, 0, 70, 59
1, 125025, Note_on_c, 0, 47, 41
1, 125027, Control_c, 0, 64, 68
1, 125028, Note_on_c, 0, 71, 55
1, 125042, Control_c, 0, 64, 69
1, 125057, Control_c, 0, 64, 69
1, 125078, Note_off_c, 0, 71, 61
1, 125118, Note_off_c, 0, 47, 60
1, 125129, Note_on_c, 0, 62, 54
1, 125131, Control_c, 0, 64, 70
1, 125141, Note_on_c, 0, 54, 41
1, 125160, Control_c, 0, 64, 69
1, 125175, Control_c, 0, 64, 67
1, 125189, Control_c, 0, 64, 64
1, 125205, Note_off_c, 0, 62, 42
1, 125209, Note_off_c, 0, 54, 59
1, 125219, Control_c, 0, 64, 66
1, 125230, Note_on_c, 0, 64, 52
1, 125234, Control_c, 0, 64, 66
1, 125249, Control_c, 0, 64, 67
1, 125255, Note_on_c, 0, 47, 46
1, 125263, Control_c, 0, 64, 69
1, 125278, Control_c, 0, 64, 70
1, 125293, Control_c, 0, 64, 71
1, 125308, Control_c, 0, 64, 72
1, 125315, Note_off_c, 0, 64, 60
1, 125322, Note_off_c, 0, 47, 59
1, 125323, Control_c, 0, 64, 73
1, 125338, Note_on_c, 0, 66, 48
1, 125339, Control_c, 0, 64, 74
1, 125353, Control_c, 0, 64, 75
1, 125359, Note_on_c, 0, 54, 31
1, 125368, Control_c, 0, 64, 77
1, 125383, Control_c, 0, 64, 79
1, 125395, Note_off_c, 0, 66, 53
1, 125398, Control_c, 0, 64, 81
1, 125412, Control_c, 0, 64, 83
1, 125424, Note_off_c, 0, 54, 54
1, 125427, Control_c, 0, 64, 84
1, 125442, Control_c, 0, 64, 85
1, 125457, Control_c, 0, 64, 86
1, 125472, Control_c, 0, 64, 87
1, 125486, Note_on_c, 0, 47, 40
1, 125487, Control_c, 0, 64, 88
1, 125502, Control_c, 0, 64, 88
1, 125538, Note_off_c, 0, 47, 56
1, 125673, Control_c, 0, 64, 88
1, 125675, Note_on_c, 0, 38, 42
1, 125687, Control_c, 0, 64, 86
1, 125702, Control_c, 0, 64, 82
1, 125717, Control_c, 0, 64, 75
1, 125720, Note_on_c, 0, 65, 44
1, 125732, Control_c, 0, 64, 66
1, 125747, Control_c, 0, 64, 59
1, 125761, Control_c, 0, 64, 64
1, 125776, Control_c, 0, 64, 66
1, 125791, Control_c, 0, 64, 66
1, 125806, Control_c, 0, 64, 68
1, 125812, Note_off_c, 0, 65, 59
1, 125821, Control_c, 0, 64, 69
1, 125827, Note_on_c, 0, 69, 59
1, 125831, Note_off_c, 0, 38, 43
1, 125833, Note_on_c, 0, 45, 51
1, 125836, Control_c, 0, 64, 71
1, 125851, Control_c, 0, 64, 73
1, 125865, Control_c, 0, 64, 75
1, 125880, Control_c, 0, 64, 76
1, 125886, Note_off_c, 0, 45, 57
1, 125895, Control_c, 0, 64, 77
1, 125910, Control_c, 0, 64, 79
1, 125922, Note_on_c, 0, 71, 74
1, 125925, Control_c, 0, 64, 81
1, 125925, Note_on_c, 0, 53, 53
1, 125939, Note_off_c, 0, 69, 57
1, 125939, Control_c, 0, 64, 83
1, 125954, Control_c, 0, 64, 86
1, 125969, Control_c, 0, 64, 87
1, 125999, Control_c, 0, 64, 87
1, 126000, Note_off_c, 0, 53, 62
1, 126005, Note_on_c, 0, 74, 80
1, 126009, Note_on_c, 0, 45, 54
1, 126011, Note_off_c, 0, 71, 64
1, 126013, Control_c, 0, 64, 88
1, 126028, Control_c, 0, 64, 90
1, 126043, Control_c, 0, 64, 92
1, 126048, Note_off_c, 0, 74, 64
1, 126058, Control_c, 0, 64, 93
1, 126073, Control_c, 0, 64, 93
1, 126074, Note_off_c, 0, 45, 57
1, 126107, Note_on_c, 0, 77, 88
1, 126117, Control_c, 0, 64, 95
1, 126119, Note_on_c, 0, 53, 55
1, 126133, Control_c, 0, 64, 96
1, 126148, Control_c, 0, 64, 97
1, 126192, Note_off_c, 0, 53, 58
1, 126199, Note_on_c, 0, 81, 89
1, 126203, Note_on_c, 0, 45, 59
1, 126219, Note_off_c, 0, 77, 60
1, 126268, Note_off_c, 0, 45, 56
1, 126299, Note_on_c, 0, 83, 86
1, 126316, Note_on_c, 0, 53, 56
1, 126319, Note_off_c, 0, 81, 62
1, 126392, Note_off_c, 0, 53, 63
1, 126411, Note_off_c, 0, 83, 65
1, 126411, Note_on_c, 0, 86, 80
1, 126414, Note_on_c, 0, 45, 51
1, 126466, Note_off_c, 0, 45, 56
1, 126470, Note_off_c, 0, 86, 64
1, 126523, Note_on_c, 0, 53, 57
1, 126574, Note_off_c, 0, 53, 57
1, 126608, Note_on_c, 0, 45, 46
1, 126653, Note_off_c, 0, 45, 55
1, 126706, Note_on_c, 0, 53, 52
1, 126789, Note_off_c, 0, 53, 60
1, 126800, Note_on_c, 0, 45, 48
1, 126807, Control_c, 0, 64, 97
1, 126822, Control_c, 0, 64, 96
1, 126909, Note_off_c, 0, 45, 57
1, 126924, Note_on_c, 0, 38, 58
1, 126925, Note_on_c, 0, 64, 58
1, 126971, Control_c, 0, 64, 95
1, 126985, Control_c, 0, 64, 90
1, 127000, Control_c, 0, 64, 79
1, 127015, Control_c, 0, 64, 62
1, 127017, Note_off_c, 0, 64, 58
1, 127020, Note_on_c, 0, 44, 58
1, 127021, Note_on_c, 0, 68, 72
1, 127030, Control_c, 0, 64, 0
1, 127099, Note_off_c, 0, 44, 62
1, 127104, Control_c, 0, 64, 50
1, 127119, Control_c, 0, 64, 63
1, 127123, Note_on_c, 0, 71, 78
1, 127126, Note_on_c, 0, 52, 59
1, 127133, Control_c, 0, 64, 65
1, 127156, Note_off_c, 0, 68, 61
1, 127156, Control_c, 0, 64, 67
1, 127171, Control_c, 0, 64, 67
1, 127185, Control_c, 0, 64, 68
1, 127200, Control_c, 0, 64, 69
1, 127208, Note_off_c, 0, 52, 61
1, 127213, Note_on_c, 0, 74, 86
1, 127215, Control_c, 0, 64, 68
1, 127219, Note_on_c, 0, 44, 62
1, 127230, Control_c, 0, 64, 65
1, 127234, Note_off_c, 0, 71, 62
1, 127245, Control_c, 0, 64, 57
1, 127259, Control_c, 0, 64, 27
1, 127268, Note_off_c, 0, 74, 66
1, 127274, Control_c, 0, 64, 29
1, 127289, Control_c, 0, 64, 46
1, 127293, Note_off_c, 0, 44, 62
1, 127304, Control_c, 0, 64, 55
1, 127319, Control_c, 0, 64, 61
1, 127326, Note_on_c, 0, 76, 89
1, 127326, Note_on_c, 0, 52, 60
1, 127333, Control_c, 0, 64, 64
1, 127348, Control_c, 0, 64, 66
1, 127363, Control_c, 0, 64, 67
1, 127377, Control_c, 0, 64, 66
1, 127392, Control_c, 0, 64, 65
1, 127399, Note_off_c, 0, 52, 61
1, 127407, Control_c, 0, 64, 62
1, 127418, Note_on_c, 0, 44, 56
1, 127418, Note_on_c, 0, 80, 79
1, 127422, Control_c, 0, 64, 56
1, 127431, Note_off_c, 0, 76, 58
1, 127437, Control_c, 0, 64, 50
1, 127478, Note_off_c, 0, 44, 59
1, 127496, Control_c, 0, 64, 50
1, 127511, Control_c, 0, 64, 47
1, 127514, Note_on_c, 0, 83, 77
1, 127526, Control_c, 0, 64, 43
1, 127529, Note_on_c, 0, 52, 50
1, 127540, Note_off_c, 0, 80, 60
1, 127541, Control_c, 0, 64, 42
1, 127608, Note_off_c, 0, 52, 58
1, 127615, Control_c, 0, 64, 43
1, 127621, Note_on_c, 0, 44, 46
1, 127621, Note_on_c, 0, 86, 65
1, 127629, Note_off_c, 0, 83, 57
1, 127630, Control_c, 0, 64, 46
1, 127645, Control_c, 0, 64, 49
1, 127659, Control_c, 0, 64, 51
1, 127674, Control_c, 0, 64, 53
1, 127689, Control_c, 0, 64, 56
1, 127693, Note_off_c, 0, 44, 58
1, 127704, Control_c, 0, 64, 59
1, 127719, Control_c, 0, 64, 61
1, 127734, Control_c, 0, 64, 64
1, 127739, Note_off_c, 0, 86, 58
1, 127742, Note_on_c, 0, 52, 44
1, 127749, Control_c, 0, 64, 65
1, 127764, Control_c, 0, 64, 67
1, 127778, Control_c, 0, 64, 68
1, 127793, Control_c, 0, 64, 70
1, 127807, Control_c, 0, 64, 73
1, 127811, Note_off_c, 0, 52, 54
1, 127822, Control_c, 0, 64, 77
1, 127837, Control_c, 0, 64, 81
1, 127842, Note_on_c, 0, 44, 36
1, 127852, Control_c, 0, 64, 83
1, 127867, Control_c, 0, 64, 87
1, 127881, Control_c, 0, 64, 92
1, 127896, Control_c, 0, 64, 95
1, 127919, Control_c, 0, 64, 96
1, 127946, Note_off_c, 0, 38, 40
1, 127956, Note_off_c, 0, 44, 36
1, 127963, Control_c, 0, 64, 97
1, 127970, Note_on_c, 0, 52, 37
1, 127978, Control_c, 0, 64, 98
1, 127993, Control_c, 0, 64, 99
1, 128066, Note_off_c, 0, 52, 37
1, 128080, Note_on_c, 0, 44, 39
1, 128214, Control_c, 0, 64, 98
1, 128229, Note_off_c, 0, 44, 40
1, 128229, Control_c, 0, 64, 96
1, 128240, Note_on_c, 0, 64, 41
1, 128244, Control_c, 0, 64, 90
1, 128245, Note_on_c, 0, 38, 40
1, 128259, Control_c, 0, 64, 79
1, 128274, Control_c, 0, 64, 66
1, 128289, Control_c, 0, 64, 0
1, 128319, Control_c, 0, 64, 42
1, 128333, Control_c, 0, 64, 47
1, 128348, Control_c, 0, 64, 52
1, 128359, Note_off_c, 0, 64, 50
1, 128360, Note_on_c, 0, 68, 59
1, 128363, Control_c, 0, 64, 58
1, 128369, Note_on_c, 0, 44, 40
1, 128378, Control_c, 0, 64, 62
1, 128393, Control_c, 0, 64, 64
1, 128407, Control_c, 0, 64, 65
1, 128422, Control_c, 0, 64, 67
1, 128425, Note_off_c, 0, 44, 57
1, 128437, Control_c, 0, 64, 68
1, 128452, Control_c, 0, 64, 67
1, 128467, Control_c, 0, 64, 64
1, 128471, Note_on_c, 0, 71, 58
1, 128474, Note_on_c, 0, 52, 47
1, 128481, Control_c, 0, 64, 62
1, 128481, Control_c, 0, 67, 8
1, 128496, Control_c, 0, 64, 61
1, 128496, Control_c, 0, 67, 9
1, 128510, Note_off_c, 0, 68, 50
1, 128511, Control_c, 0, 64, 62
1, 128511, Control_c, 0, 67, 10
1, 128527, Control_c, 0, 64, 63
1, 128527, Control_c, 0, 67, 12
1, 128539, Note_off_c, 0, 52, 57
1, 128542, Control_c, 0, 64, 65
1, 128542, Control_c, 0, 67, 14
1, 128557, Control_c, 0, 64, 66
1, 128557, Control_c, 0, 67, 16
1, 128571, Control_c, 0, 64, 68
1, 128571, Control_c, 0, 67, 18
1, 128572, Note_on_c, 0, 44, 43
1, 128572, Note_on_c, 0, 75, 70
1, 128574, Note_off_c, 0, 71, 62
1, 128586, Control_c, 0, 64, 71
1, 128586, Control_c, 0, 67, 20
1, 128601, Control_c, 0, 64, 72
1, 128601, Control_c, 0, 67, 21
1, 128616, Control_c, 0, 64, 73
1, 128616, Control_c, 0, 67, 22
1, 128623, Note_off_c, 0, 75, 64
1, 128630, Control_c, 0, 67, 23
1, 128635, Note_off_c, 0, 44, 57
1, 128645, Control_c, 0, 67, 25
1, 128667, Control_c, 0, 67, 26
1, 128682, Control_c, 0, 64, 73
1, 128682, Control_c, 0, 67, 26
1, 128690, Note_on_c, 0, 76, 73
1, 128692, Note_on_c, 0, 52, 44
1, 128697, Control_c, 0, 64, 72
1, 128712, Control_c, 0, 64, 71
1, 128712, Control_c, 0, 67, 27
1, 128727, Control_c, 0, 64, 70
1, 128727, Control_c, 0, 67, 27
1, 128742, Control_c, 0, 64, 70
1, 128742, Control_c, 0, 67, 28
1, 128756, Control_c, 0, 67, 28
1, 128771, Control_c, 0, 64, 69
1, 128784, Note_off_c, 0, 52, 54
1, 128786, Control_c, 0, 64, 67
1, 128795, Note_off_c, 0, 76, 53
1, 128801, Control_c, 0, 64, 65
1, 128801, Control_c, 0, 67, 29
1, 128803, Note_on_c, 0, 80, 66
1, 128816, Note_on_c, 0, 44, 38
1, 128816, Control_c, 0, 64, 65
1, 128830, Control_c, 0, 64, 64
1, 128845, Control_c, 0, 64, 61
1, 128860, Control_c, 0, 64, 46
1, 128875, Control_c, 0, 64, 0
1, 128875, Control_c, 0, 67, 28
1, 128896, Note_off_c, 0, 44, 50
1, 128928, Note_on_c, 0, 83, 57
1, 128934, Control_c, 0, 67, 29
1, 128942, Note_off_c, 0, 80, 51
1, 128946, Note_on_c, 0, 52, 29
1, 128963, Control_c, 0, 67, 29
1, 128978, Control_c, 0, 67, 30
1, 128993, Control_c, 0, 67, 33
1, 129008, Control_c, 0, 67, 37
1, 129023, Control_c, 0, 67, 39
1, 129037, Control_c, 0, 67, 41
1, 129052, Control_c, 0, 67, 42
1, 129061, Note_off_c, 0, 52, 38
1, 129064, Note_on_c, 0, 87, 59
1, 129067, Control_c, 0, 67, 43
1, 129082, Control_c, 0, 67, 45
1, 129088, Note_off_c, 0, 83, 39
1, 129097, Control_c, 0, 67, 47
1, 129103, Note_on_c, 0, 44, 31
1, 129112, Control_c, 0, 67, 49
1, 129127, Control_c, 0, 67, 49
1, 129141, Control_c, 0, 67, 50
1, 129171, Control_c, 0, 67, 50
1, 129182, Note_off_c, 0, 44, 42
1, 129186, Control_c, 0, 64, 17
1, 129201, Control_c, 0, 64, 37
1, 129216, Control_c, 0, 64, 49
1, 129227, Note_on_c, 0, 52, 27
1, 129230, Control_c, 0, 64, 57
1, 129245, Control_c, 0, 64, 61
1, 129245, Control_c, 0, 67, 50
1, 129260, Control_c, 0, 64, 63
1, 129276, Control_c, 0, 64, 64
1, 129290, Control_c, 0, 64, 66
1, 129290, Control_c, 0, 67, 49
1, 129304, Note_off_c, 0, 87, 37
1, 129305, Control_c, 0, 64, 67
1, 129320, Control_c, 0, 64, 68
1, 129335, Control_c, 0, 64, 69
1, 129336, Note_off_c, 0, 52, 49
1, 129350, Control_c, 0, 64, 70
1, 129365, Control_c, 0, 64, 71
1, 129365, Control_c, 0, 67, 49
1, 129377, Note_on_c, 0, 44, 32
1, 129380, Control_c, 0, 64, 72
1, 129402, Control_c, 0, 64, 73
1, 129417, Control_c, 0, 64, 74
1, 129432, Control_c, 0, 64, 76
1, 129447, Control_c, 0, 64, 77
1, 129447, Control_c, 0, 67, 48
1, 129461, Control_c, 0, 64, 78
1, 129476, Control_c, 0, 64, 80
1, 129487, Note_off_c, 0, 44, 37
1, 129491, Control_c, 0, 64, 81
1, 129506, Control_c, 0, 64, 83
1, 129521, Control_c, 0, 64, 84
1, 129531, Note_off_c, 0, 38, 38
1, 129532, Note_on_c, 0, 52, 23
1, 129535, Control_c, 0, 64, 85
1, 129550, Control_c, 0, 64, 86
1, 129565, Control_c, 0, 64, 87
1, 129580, Control_c, 0, 64, 88
1, 129595, Control_c, 0, 64, 90
1, 129609, Control_c, 0, 64, 91
1, 129624, Control_c, 0, 64, 91
1, 129654, Control_c, 0, 64, 92
1, 129684, Control_c, 0, 67, 48
1, 129731, Note_off_c, 0, 52, 35
1, 129767, Note_on_c, 0, 44, 37
1, 129815, Note_off_c, 0, 44, 57
1, 130109, Note_on_c, 0, 76, 35
1, 130166, Control_c, 0, 67, 47
1, 130180, Note_on_c, 0, 81, 46
1, 130270, Control_c, 0, 64, 89
1, 130284, Control_c, 0, 64, 86
1, 130296, Note_on_c, 0, 88, 74
1, 130299, Control_c, 0, 64, 80
1, 130304, Note_on_c, 0, 37, 35
1, 130314, Control_c, 0, 64, 71
1, 130329, Control_c, 0, 64, 56
1, 130344, Control_c, 0, 64, 0
1, 130402, Control_c, 0, 64, 24
1, 130402, Control_c, 0, 67, 46
1, 130417, Control_c, 0, 64, 54
1, 130432, Control_c, 0, 64, 63
1, 130432, Control_c, 0, 67, 46
1, 130447, Control_c, 0, 64, 67
1, 130447, Control_c, 0, 67, 45
1, 130462, Control_c, 0, 64, 70
1, 130462, Control_c, 0, 67, 45
1, 130477, Control_c, 0, 64, 73
1, 130477, Control_c, 0, 67, 44
1, 130492, Note_off_c, 0, 37, 40
1, 130492, Control_c, 0, 64, 75
1, 130492, Control_c, 0, 67, 44
1, 130507, Control_c, 0, 64, 76
1, 130522, Control_c, 0, 64, 78
1, 130536, Control_c, 0, 64, 79
1, 130536, Control_c, 0, 67, 43
1, 130551, Note_on_c, 0, 40, 44
1, 130551, Control_c, 0, 64, 81
1, 130566, Control_c, 0, 64, 81
1, 130566, Control_c, 0, 67, 43
1, 130581, Control_c, 0, 64, 82
1, 130596, Control_c, 0, 64, 82
1, 130599, Note_off_c, 0, 40, 59
1, 130610, Control_c, 0, 64, 83
1, 130625, Control_c, 0, 64, 83
1, 130640, Control_c, 0, 64, 84
1, 130655, Control_c, 0, 64, 85
1, 130670, Control_c, 0, 64, 86
1, 130684, Control_c, 0, 64, 86
1, 130699, Control_c, 0, 64, 87
1, 130704, Note_on_c, 0, 44, 58
1, 130714, Control_c, 0, 64, 88
1, 130721, Note_off_c, 0, 76, 42
1, 130739, Note_off_c, 0, 44, 62
1, 130743, Control_c, 0, 64, 86
1, 130749, Note_off_c, 0, 88, 57
1, 130758, Control_c, 0, 64, 83
1, 130773, Control_c, 0, 64, 79
1, 130773, Control_c, 0, 67, 43
1, 130788, Control_c, 0, 64, 77
1, 130817, Control_c, 0, 64, 78
1, 130817, Control_c, 0, 67, 43
1, 130832, Control_c, 0, 64, 79
1, 130838, Note_on_c, 0, 45, 46
1, 130847, Control_c, 0, 64, 81
1, 130862, Control_c, 0, 64, 83
1, 130862, Control_c, 0, 67, 42
1, 130871, Note_off_c, 0, 45, 55
1, 130876, Control_c, 0, 64, 85
1, 130891, Control_c, 0, 64, 87
1, 130891, Control_c, 0, 67, 42
1, 130914, Control_c, 0, 64, 88
1, 130914, Control_c, 0, 67, 41
1, 130930, Control_c, 0, 64, 89
1, 130945, Control_c, 0, 64, 89
1, 130945, Control_c, 0, 67, 41
1, 130960, Control_c, 0, 64, 90
1, 130960, Control_c, 0, 67, 40
1, 130969, Note_on_c, 0, 37, 51
1, 130974, Control_c, 0, 64, 92
1, 130974, Control_c, 0, 67, 39
1, 130989, Control_c, 0, 64, 94
1, 131004, Control_c, 0, 64, 94
1, 131033, Control_c, 0, 67, 38
1, 131048, Control_c, 0, 67, 38
1, 131063, Control_c, 0, 67, 37
1, 131065, Note_off_c, 0, 37, 31
1, 131072, Note_on_c, 0, 85, 84
1, 131073, Note_off_c, 0, 81, 63
1, 131078, Control_c, 0, 67, 37
1, 131091, Note_on_c, 0, 73, 61
1, 131093, Control_c, 0, 67, 35
1, 131106, Note_on_c, 0, 40, 47
1, 131107, Control_c, 0, 67, 34
1, 131122, Control_c, 0, 67, 32
1, 131126, Note_off_c, 0, 73, 64
1, 131137, Control_c, 0, 67, 32
1, 131138, Note_off_c, 0, 85, 65
1, 131151, Control_c, 0, 67, 31
1, 131166, Control_c, 0, 67, 30
1, 131181, Control_c, 0, 67, 30
1, 131196, Control_c, 0, 64, 94
1, 131196, Control_c, 0, 67, 29
1, 131211, Control_c, 0, 64, 90
1, 131211, Control_c, 0, 67, 28
1, 131216, Note_on_c, 0, 83, 86
1, 131225, Control_c, 0, 64, 84
1, 131225, Control_c, 0, 67, 27
1, 131234, Note_on_c, 0, 71, 66
1, 131240, Note_on_c, 0, 44, 53
1, 131240, Control_c, 0, 64, 75
1, 131240, Control_c, 0, 67, 25
1, 131255, Control_c, 0, 64, 70
1, 131255, Control_c, 0, 67, 24
1, 131270, Control_c, 0, 64, 71
1, 131270, Control_c, 0, 67, 21
1, 131285, Control_c, 0, 64, 74
1, 131285, Control_c, 0, 67, 19
1, 131293, Note_off_c, 0, 40, 40
1, 131300, Control_c, 0, 64, 77
1, 131300, Control_c, 0, 67, 17
1, 131315, Control_c, 0, 64, 80
1, 131315, Control_c, 0, 67, 15
1, 131329, Control_c, 0, 64, 85
1, 131329, Control_c, 0, 67, 12
1, 131344, Control_c, 0, 64, 91
1, 131344, Control_c, 0, 67, 9
1, 131355, Note_on_c, 0, 45, 51
1, 131359, Control_c, 0, 64, 95
1, 131359, Control_c, 0, 67, 0
1, 131374, Control_c, 0, 64, 97
1, 131380, Note_off_c, 0, 71, 64
1, 131389, Control_c, 0, 64, 98
1, 131392, Note_off_c, 0, 83, 63
1, 131404, Control_c, 0, 64, 98
1, 131407, Note_off_c, 0, 44, 29
1, 131487, Note_on_c, 0, 37, 59
1, 131487, Note_on_c, 0, 81, 90
1, 131494, Note_on_c, 0, 69, 76
1, 131520, Control_c, 0, 64, 98
1, 131521, Note_off_c, 0, 45, 25
1, 131526, Note_off_c, 0, 37, 62
1, 131530, Note_off_c, 0, 69, 58
1, 131552, Note_off_c, 0, 81, 62
1, 131580, Control_c, 0, 64, 97
1, 131595, Control_c, 0, 64, 96
1, 131610, Control_c, 0, 64, 95
1, 131622, Note_on_c, 0, 81, 78
1, 131624, Control_c, 0, 64, 92
1, 131638, Note_on_c, 0, 38, 61
1, 131639, Note_on_c, 0, 69, 56
1, 131639, Control_c, 0, 64, 88
1, 131658, Note_on_c, 0, 77, 52
1, 131660, Note_on_c, 0, 74, 47
1, 131661, Control_c, 0, 64, 83
1, 131676, Control_c, 0, 64, 77
1, 131690, Note_off_c, 0, 38, 58
1, 131691, Control_c, 0, 64, 68
1, 131705, Control_c, 0, 64, 53
1, 131721, Control_c, 0, 64, 38
1, 131736, Control_c, 0, 64, 48
1, 131751, Control_c, 0, 64, 53
1, 131766, Control_c, 0, 64, 56
1, 131774, Note_on_c, 0, 41, 72
1, 131780, Control_c, 0, 64, 59
1, 131795, Control_c, 0, 64, 62
1, 131810, Control_c, 0, 64, 64
1, 131820, Note_off_c, 0, 41, 61
1, 131825, Control_c, 0, 64, 65
1, 131854, Control_c, 0, 64, 64
1, 131869, Control_c, 0, 64, 59
1, 131884, Control_c, 0, 64, 24
1, 131895, Note_on_c, 0, 45, 72
1, 131899, Control_c, 0, 64, 0
1, 131925, Note_off_c, 0, 45, 67
1, 131943, Control_c, 0, 64, 40
1, 131958, Control_c, 0, 64, 54
1, 131973, Control_c, 0, 64, 60
1, 131988, Control_c, 0, 64, 61
1, 132006, Note_on_c, 0, 47, 67
1, 132018, Control_c, 0, 64, 61
1, 132033, Control_c, 0, 64, 64
1, 132047, Control_c, 0, 64, 66
1, 132059, Note_off_c, 0, 47, 62
1, 132062, Control_c, 0, 64, 68
1, 132077, Control_c, 0, 64, 69
1, 132092, Control_c, 0, 64, 69
1, 132107, Control_c, 0, 64, 70
1, 132121, Note_off_c, 0, 69, 58
1, 132121, Control_c, 0, 64, 71
1, 132136, Control_c, 0, 64, 72
1, 132139, Note_on_c, 0, 38, 62
1, 132179, Note_off_c, 0, 38, 58
1, 132248, Note_off_c, 0, 81, 53
1, 132264, Note_on_c, 0, 41, 52
1, 132270, Control_c, 0, 64, 72
1, 132300, Control_c, 0, 64, 71
1, 132344, Control_c, 0, 64, 71
1, 132359, Control_c, 0, 64, 68
1, 132373, Control_c, 0, 64, 64
1, 132376, Note_off_c, 0, 41, 56
1, 132388, Control_c, 0, 64, 26
1, 132404, Note_on_c, 0, 44, 43
1, 132411, Note_on_c, 0, 80, 59
1, 132411, Control_c, 0, 64, 0
1, 132414, Note_on_c, 0, 68, 49
1, 132445, Note_off_c, 0, 74, 44
1, 132455, Control_c, 0, 64, 19
1, 132470, Control_c, 0, 64, 45
1, 132475, Note_off_c, 0, 77, 35
1, 132485, Control_c, 0, 64, 59
1, 132497, Note_off_c, 0, 68, 54
1, 132499, Control_c, 0, 64, 64
1, 132514, Control_c, 0, 64, 68
1, 132521, Note_off_c, 0, 44, 44
1, 132531, Control_c, 0, 64, 70
1, 132539, Note_on_c, 0, 47, 39
1, 132546, Control_c, 0, 64, 73
1, 132560, Control_c, 0, 64, 75
1, 132561, Note_off_c, 0, 80, 59
1, 132575, Control_c, 0, 64, 78
1, 132590, Control_c, 0, 64, 81
1, 132604, Control_c, 0, 64, 84
1, 132619, Control_c, 0, 64, 86
1, 132634, Control_c, 0, 64, 87
1, 132649, Control_c, 0, 64, 88
1, 132664, Control_c, 0, 64, 88
1, 132665, Note_on_c, 0, 38, 43
1, 132668, Note_off_c, 0, 47, 36
1, 132678, Control_c, 0, 64, 89
1, 132699, Note_off_c, 0, 38, 50
1, 132801, Note_on_c, 0, 76, 51
1, 132826, Control_c, 0, 64, 88
1, 132833, Note_on_c, 0, 81, 60
1, 132841, Control_c, 0, 64, 87
1, 132856, Control_c, 0, 64, 87
1, 132871, Control_c, 0, 64, 86
1, 132874, Note_on_c, 0, 88, 76
1, 132885, Note_on_c, 0, 37, 49
1, 132885, Control_c, 0, 64, 81
1, 132900, Control_c, 0, 64, 72
1, 132915, Control_c, 0, 64, 57
1, 132930, Control_c, 0, 64, 54
1, 132945, Control_c, 0, 64, 60
1, 132960, Control_c, 0, 64, 62
1, 132960, Note_off_c, 0, 37, 51
1, 132975, Control_c, 0, 64, 63
1, 132989, Control_c, 0, 64, 64
1, 133004, Control_c, 0, 64, 66
1, 133014, Note_on_c, 0, 40, 60
1, 133019, Control_c, 0, 64, 70
1, 133034, Control_c, 0, 64, 72
1, 133049, Control_c, 0, 64, 73
1, 133055, Note_off_c, 0, 40, 60
1, 133063, Control_c, 0, 64, 74
1, 133078, Control_c, 0, 64, 75
1, 133093, Control_c, 0, 64, 75
1, 133122, Control_c, 0, 64, 72
1, 133130, Note_on_c, 0, 44, 64
1, 133145, Control_c, 0, 64, 65
1, 133160, Control_c, 0, 64, 0
1, 133166, Note_off_c, 0, 44, 64
1, 133187, Note_off_c, 0, 76, 60
1, 133219, Control_c, 0, 64, 38
1, 133234, Control_c, 0, 64, 61
1, 133249, Control_c, 0, 64, 66
1, 133251, Note_on_c, 0, 45, 63
1, 133264, Control_c, 0, 64, 68
1, 133293, Control_c, 0, 64, 68
1, 133297, Note_off_c, 0, 88, 62
1, 133299, Note_off_c, 0, 45, 63
1, 133308, Control_c, 0, 64, 69
1, 133324, Control_c, 0, 64, 71
1, 133339, Control_c, 0, 64, 74
1, 133353, Control_c, 0, 64, 76
1, 133368, Control_c, 0, 64, 76
1, 133376, Note_on_c, 0, 37, 51
1, 133383, Control_c, 0, 64, 77
1, 133398, Control_c, 0, 64, 78
1, 133413, Control_c, 0, 64, 80
1, 133427, Control_c, 0, 64, 82
1, 133457, Control_c, 0, 64, 82
1, 133472, Control_c, 0, 64, 83
1, 133487, Control_c, 0, 64, 84
1, 133488, Note_on_c, 0, 85, 89
1, 133497, Note_on_c, 0, 73, 71
1, 133497, Note_off_c, 0, 81, 60
1, 133501, Control_c, 0, 64, 85
1, 133503, Note_on_c, 0, 40, 54
1, 133516, Note_off_c, 0, 37, 43
1, 133516, Control_c, 0, 64, 86
1, 133553, Note_off_c, 0, 85, 65
1, 133555, Note_off_c, 0, 73, 64
1, 133619, Control_c, 0, 64, 85
1, 133632, Note_on_c, 0, 83, 85
1, 133634, Control_c, 0, 64, 82
1, 133648, Note_on_c, 0, 71, 63
1, 133649, Control_c, 0, 64, 76
1, 133651, Note_on_c, 0, 43, 51
1, 133664, Control_c, 0, 64, 67
1, 133679, Control_c, 0, 64, 0
1, 133689, Note_off_c, 0, 40, 35
1, 133708, Control_c, 0, 64, 54
1, 133723, Control_c, 0, 64, 64
1, 133738, Control_c, 0, 64, 68
1, 133753, Control_c, 0, 64, 71
1, 133755, Note_on_c, 0, 49, 61
1, 133768, Control_c, 0, 64, 75
1, 133783, Control_c, 0, 64, 80
1, 133789, Note_off_c, 0, 71, 63
1, 133798, Control_c, 0, 64, 86
1, 133812, Control_c, 0, 64, 90
1, 133827, Control_c, 0, 64, 93
1, 133842, Control_c, 0, 64, 95
1, 133856, Note_off_c, 0, 83, 55
1, 133857, Control_c, 0, 64, 96
1, 133865, Note_off_c, 0, 49, 57
1, 133872, Control_c, 0, 64, 97
1, 133893, Control_c, 0, 64, 98
1, 133909, Note_on_c, 0, 37, 60
1, 133913, Note_on_c, 0, 82, 92
1, 133923, Note_on_c, 0, 70, 78
1, 133960, Note_off_c, 0, 43, 37
1, 133962, Note_off_c, 0, 37, 59
1, 133981, Note_off_c, 0, 70, 62
1, 134042, Control_c, 0, 64, 97
1, 134057, Control_c, 0, 64, 96
1, 134072, Control_c, 0, 64, 94
1, 134087, Control_c, 0, 64, 92
1, 134092, Note_on_c, 0, 85, 78
1, 134097, Note_on_c, 0, 38, 53
1, 134101, Control_c, 0, 64, 88
1, 134102, Note_off_c, 0, 82, 62
1, 134115, Note_on_c, 0, 73, 50
1, 134116, Control_c, 0, 64, 84
1, 134127, Note_on_c, 0, 78, 44
1, 134131, Control_c, 0, 64, 80
1, 134146, Control_c, 0, 64, 76
1, 134159, Note_off_c, 0, 38, 56
1, 134161, Control_c, 0, 64, 70
1, 134176, Control_c, 0, 64, 62
1, 134191, Control_c, 0, 64, 34
1, 134206, Control_c, 0, 64, 26
1, 134206, Control_c, 0, 67, 8
1, 134234, Note_on_c, 0, 42, 69
1, 134236, Control_c, 0, 64, 27
1, 134250, Control_c, 0, 64, 36
1, 134265, Control_c, 0, 64, 46
1, 134265, Control_c, 0, 67, 8
1, 134280, Control_c, 0, 64, 54
1, 134280, Control_c, 0, 67, 10
1, 134285, Note_off_c, 0, 42, 60
1, 134295, Control_c, 0, 64, 60
1, 134295, Control_c, 0, 67, 12
1, 134310, Control_c, 0, 64, 63
1, 134310, Control_c, 0, 67, 16
1, 134324, Control_c, 0, 64, 65
1, 134324, Control_c, 0, 67, 19
1, 134339, Control_c, 0, 64, 66
1, 134339, Control_c, 0, 67, 22
1, 134354, Control_c, 0, 64, 65
1, 134354, Control_c, 0, 67, 26
1, 134358, Note_on_c, 0, 46, 70
1, 134368, Control_c, 0, 64, 63
1, 134368, Control_c, 0, 67, 29
1, 134382, Note_off_c, 0, 46, 65
1, 134383, Control_c, 0, 64, 54
1, 134383, Control_c, 0, 67, 31
1, 134398, Control_c, 0, 64, 0
1, 134398, Control_c, 0, 67, 33
1, 134413, Control_c, 0, 67, 37
1, 134428, Control_c, 0, 67, 41
1, 134442, Control_c, 0, 67, 43
1, 134457, Control_c, 0, 67, 44
1, 134464, Note_on_c, 0, 47, 68
1, 134472, Control_c, 0, 67, 45
1, 134487, Control_c, 0, 64, 14
1, 134487, Control_c, 0, 67, 45
1, 134495, Note_off_c, 0, 47, 67
1, 134502, Control_c, 0, 64, 38
1, 134502, Control_c, 0, 67, 46
1, 134516, Control_c, 0, 64, 49
1, 134531, Control_c, 0, 64, 56
1, 134546, Control_c, 0, 64, 59
1, 134560, Control_c, 0, 64, 60
1, 134575, Control_c, 0, 64, 62
1, 134575, Control_c, 0, 67, 45
1, 134590, Control_c, 0, 64, 63
1, 134590, Control_c, 0, 67, 45
1, 134597, Note_on_c, 0, 38, 63
1, 134605, Control_c, 0, 64, 66
1, 134605, Control_c, 0, 67, 44
1, 134620, Control_c, 0, 64, 68
1, 134627, Note_off_c, 0, 38, 64
1, 134635, Control_c, 0, 64, 69
1, 134656, Control_c, 0, 64, 69
1, 134671, Control_c, 0, 64, 70
1, 134674, Note_off_c, 0, 85, 63
1, 134686, Control_c, 0, 64, 71
1, 134686, Control_c, 0, 67, 44
1, 134689, Note_off_c, 0, 73, 61
1, 134701, Control_c, 0, 64, 73
1, 134701, Control_c, 0, 67, 43
1, 134716, Control_c, 0, 64, 74
1, 134718, Note_on_c, 0, 42, 53
1, 134820, Control_c, 0, 64, 74
1, 134835, Control_c, 0, 64, 73
1, 134849, Control_c, 0, 64, 71
1, 134854, Note_on_c, 0, 46, 45
1, 134854, Note_on_c, 0, 83, 59
1, 134864, Control_c, 0, 64, 66
1, 134868, Note_off_c, 0, 78, 37
1, 134869, Note_on_c, 0, 71, 46
1, 134879, Control_c, 0, 64, 59
1, 134893, Control_c, 0, 64, 50
1, 134904, Note_off_c, 0, 42, 45
1, 134908, Control_c, 0, 64, 58
1, 134908, Control_c, 0, 67, 43
1, 134924, Control_c, 0, 64, 63
1, 134924, Control_c, 0, 67, 42
1, 134937, Note_off_c, 0, 46, 53
1, 134939, Control_c, 0, 64, 64
1, 134939, Control_c, 0, 67, 42
1, 134954, Control_c, 0, 64, 66
1, 134969, Control_c, 0, 64, 69
1, 134969, Control_c, 0, 67, 41
1, 134982, Note_on_c, 0, 47, 43
1, 134984, Control_c, 0, 64, 72
1, 134984, Control_c, 0, 67, 41
1, 134998, Control_c, 0, 64, 76
1, 134998, Control_c, 0, 67, 40
1, 135007, Note_off_c, 0, 83, 60
1, 135013, Control_c, 0, 64, 79
1, 135013, Control_c, 0, 67, 40
1, 135028, Control_c, 0, 64, 81
1, 135028, Control_c, 0, 67, 39
1, 135043, Control_c, 0, 64, 83
1, 135043, Control_c, 0, 67, 39
1, 135058, Control_c, 0, 64, 85
1, 135058, Control_c, 0, 67, 38
1, 135072, Control_c, 0, 64, 86
1, 135072, Control_c, 0, 67, 38
1, 135087, Control_c, 0, 64, 87
1, 135102, Control_c, 0, 67, 37
1, 135116, Note_off_c, 0, 47, 33
1, 135117, Control_c, 0, 67, 37
1, 135123, Note_on_c, 0, 38, 38
1, 135132, Control_c, 0, 67, 36
1, 135142, Note_off_c, 0, 71, 35
1, 135146, Control_c, 0, 67, 36
1, 135190, Control_c, 0, 67, 35
1, 135205, Control_c, 0, 64, 86
1, 135220, Control_c, 0, 64, 86
1, 135235, Control_c, 0, 64, 85
1, 135250, Control_c, 0, 64, 84
1, 135265, Control_c, 0, 64, 83
1, 135280, Control_c, 0, 64, 82
1, 135295, Control_c, 0, 64, 81
1, 135310, Control_c, 0, 64, 80
1, 135324, Control_c, 0, 64, 78
1, 135324, Control_c, 0, 67, 36
1, 135338, Note_on_c, 0, 39, 37
1, 135339, Control_c, 0, 64, 73
1, 135354, Note_on_c, 0, 69, 48
1, 135354, Note_off_c, 0, 38, 36
1, 135354, Control_c, 0, 64, 66
1, 135369, Control_c, 0, 64, 51
1, 135384, Control_c, 0, 64, 28
1, 135406, Control_c, 0, 64, 44
1, 135421, Control_c, 0, 64, 54
1, 135436, Control_c, 0, 64, 57
1, 135436, Control_c, 0, 67, 35
1, 135451, Control_c, 0, 64, 60
1, 135466, Control_c, 0, 64, 62
1, 135466, Control_c, 0, 67, 35
1, 135480, Control_c, 0, 64, 64
1, 135480, Control_c, 0, 67, 34
1, 135495, Control_c, 0, 64, 66
1, 135510, Control_c, 0, 64, 68
1, 135510, Control_c, 0, 67, 34
1, 135512, Note_on_c, 0, 42, 49
1, 135524, Control_c, 0, 64, 70
1, 135524, Control_c, 0, 67, 33
1, 135539, Control_c, 0, 64, 70
1, 135539, Control_c, 0, 67, 33
1, 135554, Control_c, 0, 64, 71
1, 135554, Control_c, 0, 67, 32
1, 135569, Control_c, 0, 64, 73
1, 135569, Control_c, 0, 67, 30
1, 135584, Control_c, 0, 64, 75
1, 135584, Control_c, 0, 67, 29
1, 135598, Control_c, 0, 64, 77
1, 135598, Control_c, 0, 67, 27
1, 135613, Control_c, 0, 64, 78
1, 135613, Control_c, 0, 67, 25
1, 135628, Control_c, 0, 64, 79
1, 135628, Control_c, 0, 67, 23
1, 135629, Note_off_c, 0, 39, 39
1, 135638, Note_on_c, 0, 72, 57
1, 135643, Control_c, 0, 64, 80
1, 135643, Control_c, 0, 67, 20
1, 135649, Note_on_c, 0, 45, 48
1, 135658, Control_c, 0, 64, 82
1, 135658, Control_c, 0, 67, 19
1, 135673, Control_c, 0, 64, 85
1, 135673, Control_c, 0, 67, 17
1, 135688, Control_c, 0, 64, 86
1, 135688, Control_c, 0, 67, 16
1, 135697, Note_off_c, 0, 42, 49
1, 135702, Control_c, 0, 64, 87
1, 135702, Control_c, 0, 67, 15
1, 135713, Note_off_c, 0, 45, 64
1, 135718, Control_c, 0, 64, 88
1, 135718, Control_c, 0, 67, 14
1, 135733, Control_c, 0, 64, 89
1, 135733, Control_c, 0, 67, 13
1, 135747, Control_c, 0, 64, 91
1, 135747, Control_c, 0, 67, 12
1, 135750, Note_on_c, 0, 48, 53
1, 135762, Control_c, 0, 64, 93
1, 135762, Control_c, 0, 67, 9
1, 135763, Note_on_c, 0, 75, 75
1, 135777, Control_c, 0, 64, 94
1, 135777, Control_c, 0, 67, 8
1, 135792, Control_c, 0, 64, 95
1, 135792, Control_c, 0, 67, 0
1, 135800, Note_off_c, 0, 69, 27
1, 135807, Control_c, 0, 64, 96
1, 135822, Control_c, 0, 64, 97
1, 135837, Control_c, 0, 64, 98
1, 135838, Note_off_c, 0, 48, 60
1, 135851, Control_c, 0, 64, 100
1, 135866, Control_c, 0, 64, 102
1, 135881, Control_c, 0, 64, 103
1, 135887, Note_on_c, 0, 39, 69
1, 135896, Control_c, 0, 64, 106
1, 135903, Note_off_c, 0, 72, 37
1, 135911, Control_c, 0, 64, 110
1, 135926, Control_c, 0, 64, 121
1, 135940, Control_c, 0, 64, 127
1, 135992, Note_on_c, 0, 45, 69
1, 136002, Note_on_c, 0, 78, 85
1, 136023, Note_off_c, 0, 75, 65
1, 136043, Note_off_c, 0, 39, 53
1, 136060, Note_off_c, 0, 78, 66
1, 136124, Note_on_c, 0, 48, 70
1, 136143, Note_on_c, 0, 81, 90
1, 136260, Note_on_c, 0, 54, 82
1, 136331, Note_off_c, 0, 54, 66
1, 136343, Note_off_c, 0, 48, 34
1, 136373, Note_on_c, 0, 84, 79
1, 136373, Note_off_c, 0, 45, 18
1, 136376, Note_off_c, 0, 81, 59
1, 136385, Note_on_c, 0, 39, 69
1, 136391, Note_on_c, 0, 93, 102
1, 136415, Note_off_c, 0, 84, 66
1, 136433, Note_off_c, 0, 39, 57
1, 136488, Note_off_c, 0, 93, 57
1, 136489, Note_on_c, 0, 81, 67
1, 136555, Note_on_c, 0, 85, 70
1, 136594, Note_on_c, 0, 40, 49
1, 136596, Note_on_c, 0, 93, 95
1, 136600, Control_c, 0, 64, 105
1, 136615, Control_c, 0, 64, 86
1, 136630, Control_c, 0, 64, 68
1, 136644, Control_c, 0, 64, 50
1, 136659, Control_c, 0, 64, 59
1, 136674, Control_c, 0, 64, 63
1, 136689, Control_c, 0, 64, 63
1, 136704, Control_c, 0, 64, 64
1, 136719, Control_c, 0, 64, 68
1, 136734, Control_c, 0, 64, 71
1, 136749, Control_c, 0, 64, 74
1, 136750, Note_on_c, 0, 45, 61
1, 136763, Control_c, 0, 64, 75
1, 136778, Control_c, 0, 64, 74
1, 136779, Note_off_c, 0, 40, 45
1, 136793, Control_c, 0, 64, 72
1, 136808, Control_c, 0, 64, 68
1, 136823, Control_c, 0, 64, 65
1, 136837, Control_c, 0, 64, 66
1, 136852, Control_c, 0, 64, 67
1, 136860, Note_on_c, 0, 49, 64
1, 136867, Control_c, 0, 64, 68
1, 136875, Note_off_c, 0, 45, 59
1, 136889, Control_c, 0, 64, 69
1, 136898, Note_off_c, 0, 81, 50
1, 136904, Control_c, 0, 64, 70
1, 136919, Control_c, 0, 64, 73
1, 136934, Control_c, 0, 64, 75
1, 136948, Control_c, 0, 64, 76
1, 136960, Note_off_c, 0, 49, 60
1, 136963, Control_c, 0, 64, 78
1, 136978, Control_c, 0, 64, 80
1, 136987, Note_on_c, 0, 52, 66
1, 136993, Note_off_c, 0, 93, 61
1, 136993, Control_c, 0, 64, 81
1, 137008, Control_c, 0, 64, 83
1, 137023, Control_c, 0, 64, 85
1, 137035, Note_off_c, 0, 52, 57
1, 137038, Control_c, 0, 64, 87
1, 137052, Control_c, 0, 64, 88
1, 137067, Control_c, 0, 64, 89
1, 137082, Control_c, 0, 64, 90
1, 137096, Control_c, 0, 64, 91
1, 137103, Note_on_c, 0, 45, 63
1, 137111, Control_c, 0, 64, 93
1, 137126, Control_c, 0, 64, 95
1, 137141, Control_c, 0, 64, 97
1, 137200, Control_c, 0, 64, 97
1, 137215, Note_on_c, 0, 88, 94
1, 137215, Control_c, 0, 64, 98
1, 137225, Note_on_c, 0, 49, 62
1, 137230, Control_c, 0, 64, 98
1, 137232, Note_on_c, 0, 76, 64
1, 137240, Note_off_c, 0, 85, 63
1, 137255, Note_off_c, 0, 76, 62
1, 137285, Note_off_c, 0, 88, 64
1, 137349, Control_c, 0, 64, 97
1, 137352, Note_on_c, 0, 52, 53
1, 137364, Control_c, 0, 64, 83
1, 137368, Note_on_c, 0, 86, 95
1, 137379, Control_c, 0, 64, 64
1, 137381, Note_on_c, 0, 74, 79
1, 137393, Control_c, 0, 64, 0
1, 137408, Control_c, 0, 64, 40
1, 137423, Control_c, 0, 64, 55
1, 137438, Control_c, 0, 64, 63
1, 137453, Control_c, 0, 64, 68
1, 137456, Note_off_c, 0, 45, 39
1, 137467, Control_c, 0, 64, 73
1, 137474, Note_off_c, 0, 74, 64
1, 137475, Note_off_c, 0, 49, 61
1, 137482, Control_c, 0, 64, 80
1, 137485, Note_off_c, 0, 52, 61
1, 137497, Control_c, 0, 64, 85
1, 137500, Note_on_c, 0, 57, 70
1, 137512, Control_c, 0, 64, 88
1, 137527, Control_c, 0, 64, 90
1, 137542, Control_c, 0, 64, 92
1, 137557, Control_c, 0, 64, 94
1, 137557, Note_off_c, 0, 57, 60
1, 137569, Note_off_c, 0, 86, 64
1, 137571, Control_c, 0, 64, 97
1, 137586, Control_c, 0, 64, 100
1, 137601, Control_c, 0, 64, 103
1, 137616, Control_c, 0, 64, 105
1, 137629, Note_on_c, 0, 85, 93
1, 137638, Control_c, 0, 64, 107
1, 137640, Note_on_c, 0, 73, 91
1, 137652, Note_on_c, 0, 40, 52
1, 137653, Control_c, 0, 64, 109
1, 137665, Note_off_c, 0, 73, 63
1, 137667, Control_c, 0, 64, 110
1, 137682, Control_c, 0, 64, 111
1, 137685, Note_off_c, 0, 40, 55
1, 137701, Note_off_c, 0, 85, 62
1, 137738, Note_on_c, 0, 73, 74
1, 137822, Note_on_c, 0, 75, 62
1, 137828, Note_on_c, 0, 78, 74
1, 137831, Control_c, 0, 64, 109
1, 137844, Note_on_c, 0, 40, 43
1, 137846, Control_c, 0, 64, 103
1, 137860, Control_c, 0, 64, 94
1, 137868, Note_on_c, 0, 85, 82
1, 137875, Control_c, 0, 64, 82
1, 137890, Control_c, 0, 64, 69
1, 137905, Control_c, 0, 64, 0
1, 137964, Control_c, 0, 64, 54
1, 137979, Control_c, 0, 64, 64
1, 137993, Control_c, 0, 64, 67
1, 138006, Note_on_c, 0, 45, 58
1, 138008, Control_c, 0, 64, 70
1, 138023, Control_c, 0, 64, 73
1, 138038, Control_c, 0, 64, 76
1, 138053, Control_c, 0, 64, 78
1, 138067, Control_c, 0, 64, 79
1, 138082, Control_c, 0, 64, 78
1, 138097, Control_c, 0, 64, 75
1, 138106, Note_off_c, 0, 40, 54
1, 138113, Control_c, 0, 64, 65
1, 138128, Control_c, 0, 64, 0
1, 138129, Note_on_c, 0, 47, 65
1, 138157, Note_off_c, 0, 45, 61
1, 138187, Control_c, 0, 64, 52
1, 138202, Control_c, 0, 64, 64
1, 138216, Control_c, 0, 64, 69
1, 138231, Control_c, 0, 64, 72
1, 138244, Note_off_c, 0, 47, 64
1, 138246, Control_c, 0, 64, 75
1, 138251, Note_on_c, 0, 51, 67
1, 138261, Control_c, 0, 64, 76
1, 138276, Control_c, 0, 64, 76
1, 138281, Note_off_c, 0, 51, 66
1, 138290, Control_c, 0, 64, 79
1, 138305, Control_c, 0, 64, 82
1, 138320, Control_c, 0, 64, 85
1, 138321, Note_off_c, 0, 85, 63
1, 138335, Control_c, 0, 64, 87
1, 138355, Note_off_c, 0, 73, 54
1, 138375, Note_on_c, 0, 47, 61
1, 138476, Control_c, 0, 64, 86
1, 138490, Control_c, 0, 64, 86
1, 138505, Note_off_c, 0, 78, 62
1, 138505, Control_c, 0, 64, 85
1, 138507, Note_on_c, 0, 83, 89
1, 138510, Note_off_c, 0, 75, 58
1, 138519, Note_on_c, 0, 51, 53
1, 138520, Control_c, 0, 64, 85
1, 138525, Note_on_c, 0, 71, 64
1, 138543, Note_off_c, 0, 71, 66
1, 138549, Control_c, 0, 64, 84
1, 138564, Control_c, 0, 64, 84
1, 138579, Control_c, 0, 64, 81
1, 138594, Control_c, 0, 64, 75
1, 138609, Control_c, 0, 64, 64
1, 138624, Control_c, 0, 64, 0
1, 138656, Note_on_c, 0, 82, 88
1, 138659, Note_on_c, 0, 54, 52
1, 138671, Note_on_c, 0, 70, 70
1, 138681, Note_off_c, 0, 83, 61
1, 138698, Control_c, 0, 64, 46
1, 138713, Control_c, 0, 64, 63
1, 138713, Note_off_c, 0, 51, 45
1, 138728, Control_c, 0, 64, 67
1, 138742, Control_c, 0, 64, 70
1, 138750, Note_off_c, 0, 54, 63
1, 138752, Note_off_c, 0, 47, 47
1, 138757, Control_c, 0, 64, 72
1, 138772, Control_c, 0, 64, 74
1, 138787, Control_c, 0, 64, 77
1, 138802, Control_c, 0, 64, 80
1, 138803, Note_on_c, 0, 57, 52
1, 138816, Control_c, 0, 64, 84
1, 138831, Control_c, 0, 64, 86
1, 138846, Control_c, 0, 64, 88
1, 138860, Control_c, 0, 64, 91
1, 138873, Note_off_c, 0, 70, 39
1, 138875, Control_c, 0, 64, 94
1, 138889, Note_off_c, 0, 57, 52
1, 138890, Control_c, 0, 64, 95
1, 138951, Control_c, 0, 64, 96
1, 138956, Note_on_c, 0, 83, 86
1, 138965, Control_c, 0, 64, 97
1, 138967, Note_on_c, 0, 71, 71
1, 138969, Note_on_c, 0, 47, 42
1, 138975, Note_off_c, 0, 82, 61
1, 138980, Control_c, 0, 64, 98
1, 138997, Note_off_c, 0, 47, 55
1, 139030, Note_off_c, 0, 71, 58
1, 139089, Note_off_c, 0, 83, 63
1, 139151, Control_c, 0, 64, 97
1, 139165, Control_c, 0, 64, 97
1, 139180, Control_c, 0, 64, 96
1, 139195, Control_c, 0, 64, 92
1, 139201, Note_on_c, 0, 80, 37
1, 139209, Note_on_c, 0, 85, 79
1, 139210, Control_c, 0, 64, 86
1, 139214, Note_on_c, 0, 40, 46
1, 139225, Control_c, 0, 64, 75
1, 139230, Note_on_c, 0, 76, 43
1, 139230, Note_off_c, 0, 80, 52
1, 139235, Note_on_c, 0, 74, 53
1, 139239, Control_c, 0, 64, 61
1, 139239, Control_c, 0, 67, 8
1, 139254, Control_c, 0, 64, 0
1, 139298, Control_c, 0, 64, 36
1, 139298, Control_c, 0, 67, 8
1, 139313, Control_c, 0, 64, 48
1, 139328, Control_c, 0, 64, 58
1, 139328, Control_c, 0, 67, 9
1, 139343, Control_c, 0, 64, 63
1, 139343, Control_c, 0, 67, 9
1, 139357, Control_c, 0, 64, 65
1, 139357, Control_c, 0, 67, 10
1, 139372, Control_c, 0, 64, 67
1, 139372, Control_c, 0, 67, 12
1, 139387, Control_c, 0, 64, 69
1, 139387, Control_c, 0, 67, 14
1, 139402, Control_c, 0, 64, 70
1, 139402, Control_c, 0, 67, 17
1, 139417, Control_c, 0, 64, 72
1, 139417, Control_c, 0, 67, 20
1, 139432, Control_c, 0, 64, 74
1, 139432, Control_c, 0, 67, 23
1, 139446, Control_c, 0, 64, 76
1, 139446, Control_c, 0, 67, 26
1, 139455, Note_on_c, 0, 47, 39
1, 139461, Control_c, 0, 64, 78
1, 139461, Control_c, 0, 67, 30
1, 139476, Control_c, 0, 64, 81
1, 139476, Control_c, 0, 67, 34
1, 139491, Control_c, 0, 64, 82
1, 139491, Control_c, 0, 67, 37
1, 139506, Control_c, 0, 64, 84
1, 139506, Control_c, 0, 67, 40
1, 139521, Control_c, 0, 64, 87
1, 139521, Control_c, 0, 67, 43
1, 139536, Control_c, 0, 64, 88
1, 139536, Control_c, 0, 67, 45
1, 139540, Note_off_c, 0, 40, 38
1, 139551, Control_c, 0, 64, 89
1, 139551, Control_c, 0, 67, 48
1, 139565, Control_c, 0, 64, 90
1, 139565, Control_c, 0, 67, 50
1, 139580, Control_c, 0, 67, 52
1, 139594, Note_off_c, 0, 47, 35
1, 139595, Control_c, 0, 64, 92
1, 139595, Control_c, 0, 67, 54
1, 139601, Note_on_c, 0, 83, 68
1, 139605, Note_on_c, 0, 50, 48
1, 139610, Control_c, 0, 64, 95
1, 139610, Control_c, 0, 67, 57
1, 139625, Control_c, 0, 64, 97
1, 139625, Control_c, 0, 67, 59
1, 139634, Note_off_c, 0, 50, 58
1, 139639, Control_c, 0, 64, 98
1, 139639, Control_c, 0, 67, 60
1, 139654, Control_c, 0, 67, 62
1, 139669, Control_c, 0, 67, 64
1, 139683, Control_c, 0, 67, 65
1, 139698, Note_off_c, 0, 74, 34
1, 139698, Control_c, 0, 67, 65
1, 139699, Note_off_c, 0, 76, 37
1, 139747, Note_on_c, 0, 52, 51
1, 139750, Note_on_c, 0, 80, 63
1, 139786, Note_off_c, 0, 83, 56
1, 139796, Note_off_c, 0, 85, 33
1, 139857, Note_off_c, 0, 80, 60
1, 139861, Note_on_c, 0, 56, 55
1, 139862, Control_c, 0, 67, 65
1, 139875, Note_on_c, 0, 76, 70
1, 139877, Control_c, 0, 64, 98
1, 139914, Control_c, 0, 64, 97
1, 139914, Control_c, 0, 67, 64
1, 139929, Control_c, 0, 64, 96
1, 139938, Note_off_c, 0, 76, 60
1, 139944, Control_c, 0, 64, 96
1, 139959, Control_c, 0, 64, 95
1, 139959, Control_c, 0, 67, 64
1, 139974, Control_c, 0, 64, 94
1, 139988, Control_c, 0, 64, 93
1, 140003, Control_c, 0, 64, 93
1, 140005, Note_on_c, 0, 59, 45
1, 140009, Note_on_c, 0, 74, 74
1, 140018, Control_c, 0, 64, 92
1, 140033, Control_c, 0, 64, 90
1, 140048, Control_c, 0, 64, 85
1, 140063, Control_c, 0, 64, 74
1, 140077, Control_c, 0, 64, 61
1, 140092, Control_c, 0, 64, 0
1, 140136, Control_c, 0, 64, 36
1, 140136, Control_c, 0, 67, 63
1, 140144, Note_off_c, 0, 74, 57
1, 140146, Note_on_c, 0, 71, 58
1, 140151, Control_c, 0, 64, 60
1, 140164, Note_on_c, 0, 62, 36
1, 140166, Control_c, 0, 64, 64
1, 140181, Control_c, 0, 64, 66
1, 140195, Control_c, 0, 64, 68
1, 140210, Control_c, 0, 64, 70
1, 140210, Control_c, 0, 67, 63
1, 140225, Control_c, 0, 64, 73
1, 140225, Control_c, 0, 67, 62
1, 140240, Control_c, 0, 64, 75
1, 140245, Note_off_c, 0, 52, 43
1, 140254, Control_c, 0, 64, 77
1, 140260, Note_off_c, 0, 59, 27
1, 140269, Control_c, 0, 64, 78
1, 140269, Control_c, 0, 67, 62
1, 140283, Note_off_c, 0, 62, 53
1, 140283, Note_off_c, 0, 71, 56
1, 140284, Control_c, 0, 64, 81
1, 140286, Note_on_c, 0, 68, 60
1, 140286, Note_off_c, 0, 56, 34
1, 140299, Control_c, 0, 64, 83
1, 140314, Control_c, 0, 64, 86
1, 140314, Control_c, 0, 67, 61
1, 140329, Control_c, 0, 64, 88
1, 140344, Control_c, 0, 64, 90
1, 140359, Control_c, 0, 64, 90
1, 140359, Control_c, 0, 67, 61
1, 140373, Control_c, 0, 64, 91
1, 140403, Control_c, 0, 67, 60
1, 140448, Note_off_c, 0, 68, 61
1, 140452, Note_on_c, 0, 64, 69
1, 140523, Control_c, 0, 67, 60
1, 140585, Note_off_c, 0, 64, 63
1, 140597, Control_c, 0, 64, 91
1, 140611, Control_c, 0, 64, 90
1, 140633, Control_c, 0, 64, 90
1, 140648, Control_c, 0, 64, 89
1, 140662, Note_on_c, 0, 64, 59
1, 140663, Control_c, 0, 64, 89
1, 140678, Control_c, 0, 64, 88
1, 140686, Note_on_c, 0, 37, 39
1, 140692, Control_c, 0, 64, 87
1, 140707, Control_c, 0, 64, 86
1, 140722, Control_c, 0, 64, 85
1, 140737, Control_c, 0, 64, 84
1, 140752, Control_c, 0, 64, 82
1, 140767, Control_c, 0, 64, 80
1, 140782, Control_c, 0, 64, 78
1, 140797, Control_c, 0, 64, 76
1, 140811, Control_c, 0, 64, 74
1, 140814, Note_on_c, 0, 40, 60
1, 140824, Note_off_c, 0, 37, 40
1, 140826, Control_c, 0, 64, 71
1, 140841, Control_c, 0, 64, 69
1, 140841, Control_c, 0, 67, 59
1, 140856, Control_c, 0, 64, 67
1, 140864, Note_off_c, 0, 40, 57
1, 140871, Control_c, 0, 64, 66
1, 140885, Control_c, 0, 64, 65
1, 140900, Control_c, 0, 64, 65
1, 140915, Control_c, 0, 64, 64
1, 140925, Note_on_c, 0, 44, 75
1, 140930, Control_c, 0, 64, 64
1, 140944, Control_c, 0, 64, 63
1, 140959, Control_c, 0, 64, 60
1, 140966, Note_off_c, 0, 44, 62
1, 140974, Control_c, 0, 64, 48
1, 140989, Control_c, 0, 64, 0
1, 141042, Note_on_c, 0, 45, 74
1, 141072, Note_off_c, 0, 45, 67
1, 141137, Control_c, 0, 67, 59
1, 141165, Note_on_c, 0, 49, 63
1, 141181, Control_c, 0, 67, 58
1, 141192, Note_off_c, 0, 49, 66
1, 141211, Control_c, 0, 67, 58
1, 141226, Control_c, 0, 67, 57
1, 141241, Control_c, 0, 67, 57
1, 141255, Control_c, 0, 67, 56
1, 141270, Control_c, 0, 67, 55
1, 141285, Control_c, 0, 67, 54
1, 141286, Note_on_c, 0, 61, 60
1, 141288, Note_on_c, 0, 52, 57
1, 141301, Control_c, 0, 67, 53
1, 141315, Note_off_c, 0, 64, 51
1, 141315, Control_c, 0, 67, 53
1, 141330, Note_off_c, 0, 52, 60
1, 141330, Control_c, 0, 64, 28
1, 141345, Control_c, 0, 64, 46
1, 141360, Control_c, 0, 64, 55
1, 141360, Control_c, 0, 67, 52
1, 141382, Control_c, 0, 64, 61
1, 141397, Control_c, 0, 64, 62
1, 141397, Control_c, 0, 67, 52
1, 141412, Control_c, 0, 64, 63
1, 141423, Note_on_c, 0, 56, 52
1, 141425, Note_off_c, 0, 61, 54
1, 141427, Control_c, 0, 64, 64
1, 141427, Control_c, 0, 67, 51
1, 141429, Note_on_c, 0, 59, 58
1, 141441, Control_c, 0, 64, 65
1, 141441, Control_c, 0, 67, 50
1, 141450, Note_off_c, 0, 56, 59
1, 141456, Control_c, 0, 64, 66
1, 141456, Control_c, 0, 67, 48
1, 141471, Control_c, 0, 64, 68
1, 141471, Control_c, 0, 67, 46
1, 141486, Control_c, 0, 64, 69
1, 141486, Control_c, 0, 67, 44
1, 141501, Control_c, 0, 64, 69
1, 141501, Control_c, 0, 67, 42
1, 141515, Control_c, 0, 64, 70
1, 141515, Control_c, 0, 67, 41
1, 141530, Control_c, 0, 64, 72
1, 141530, Control_c, 0, 67, 38
1, 141536, Note_on_c, 0, 57, 59
1, 141545, Control_c, 0, 64, 74
1, 141545, Control_c, 0, 67, 36
1, 141560, Control_c, 0, 64, 76
1, 141560, Control_c, 0, 67, 33
1, 141571, Note_off_c, 0, 57, 61
1, 141575, Control_c, 0, 64, 79
1, 141575, Control_c, 0, 67, 30
1, 141590, Control_c, 0, 64, 80
1, 141590, Control_c, 0, 67, 27
1, 141605, Control_c, 0, 64, 83
1, 141605, Control_c, 0, 67, 24
1, 141620, Control_c, 0, 64, 85
1, 141620, Control_c, 0, 67, 22
1, 141634, Control_c, 0, 64, 86
1, 141634, Control_c, 0, 67, 20
1, 141649, Control_c, 0, 64, 87
1, 141649, Control_c, 0, 67, 19
1, 141649, Note_off_c, 0, 59, 56
1, 141651, Note_on_c, 0, 57, 78
1, 141652, Note_on_c, 0, 49, 57
1, 141664, Control_c, 0, 67, 17
1, 141679, Control_c, 0, 67, 15
1, 141679, Note_off_c, 0, 49, 60
1, 141693, Control_c, 0, 64, 87
1, 141693, Control_c, 0, 67, 12
1, 141708, Control_c, 0, 67, 10
1, 141709, Note_off_c, 0, 57, 61
1, 141723, Control_c, 0, 67, 9
1, 141738, Control_c, 0, 67, 8
1, 141753, Control_c, 0, 67, 0
1, 141797, Control_c, 0, 64, 86
1, 141807, Note_on_c, 0, 38, 56
1, 141807, Note_on_c, 0, 65, 63
1, 141812, Control_c, 0, 64, 85
1, 141816, Note_on_c, 0, 57, 52
1, 141827, Control_c, 0, 64, 84
1, 141841, Control_c, 0, 64, 83
1, 141856, Control_c, 0, 64, 81
1, 141858, Note_off_c, 0, 38, 55
1, 141871, Control_c, 0, 64, 78
1, 141885, Control_c, 0, 64, 74
1, 141900, Control_c, 0, 64, 69
1, 141915, Control_c, 0, 64, 64
1, 141930, Note_on_c, 0, 41, 72
1, 141930, Control_c, 0, 64, 63
1, 141974, Control_c, 0, 64, 62
1, 141984, Note_off_c, 0, 41, 60
1, 141989, Control_c, 0, 64, 57
1, 142005, Control_c, 0, 64, 0
1, 142049, Note_on_c, 0, 45, 73
1, 142079, Note_off_c, 0, 45, 66
1, 142143, Note_off_c, 0, 57, 54
1, 142171, Note_on_c, 0, 47, 63
1, 142177, Note_on_c, 0, 56, 51
1, 142207, Note_off_c, 0, 47, 64
1, 142299, Note_on_c, 0, 50, 64
1, 142329, Note_off_c, 0, 50, 67
1, 142372, Note_off_c, 0, 56, 61
1, 142406, Note_on_c, 0, 62, 51
1, 142424, Note_on_c, 0, 53, 58
1, 142443, Control_c, 0, 64, 39
1, 142448, Note_off_c, 0, 53, 63
1, 142457, Control_c, 0, 64, 52
1, 142472, Control_c, 0, 64, 57
1, 142487, Control_c, 0, 64, 59
1, 142502, Control_c, 0, 64, 61
1, 142517, Control_c, 0, 64, 62
1, 142532, Control_c, 0, 64, 64
1, 142538, Note_on_c, 0, 56, 48
1, 142547, Control_c, 0, 64, 65
1, 142548, Note_on_c, 0, 61, 54
1, 142561, Control_c, 0, 64, 66
1, 142576, Control_c, 0, 64, 66
1, 142591, Note_off_c, 0, 65, 37
1, 142591, Control_c, 0, 64, 67
1, 142605, Note_off_c, 0, 56, 51
1, 142606, Control_c, 0, 64, 68
1, 142621, Control_c, 0, 64, 69
1, 142628, Note_off_c, 0, 62, 26
1, 142636, Control_c, 0, 64, 71
1, 142651, Control_c, 0, 64, 72
1, 142654, Note_on_c, 0, 53, 54
1, 142665, Control_c, 0, 64, 74
1, 142680, Control_c, 0, 64, 75
1, 142687, Note_off_c, 0, 53, 66
1, 142695, Control_c, 0, 64, 77
1, 142709, Control_c, 0, 64, 79
1, 142724, Control_c, 0, 64, 81
1, 142739, Control_c, 0, 64, 83
1, 142749, Note_off_c, 0, 61, 58
1, 142753, Control_c, 0, 64, 84
1, 142763, Note_on_c, 0, 59, 51
1, 142768, Control_c, 0, 64, 86
1, 142782, Note_on_c, 0, 50, 46
1, 142782, Control_c, 0, 64, 87
1, 142797, Control_c, 0, 64, 89
1, 142812, Control_c, 0, 64, 89
1, 142814, Note_off_c, 0, 50, 61
1, 142824, Note_off_c, 0, 59, 60
1, 142851, Note_on_c, 0, 60, 61
1, 142937, Note_off_c, 0, 60, 58
1, 142939, Control_c, 0, 64, 89
1, 142954, Control_c, 0, 64, 88
1, 142969, Control_c, 0, 64, 87
1, 142984, Control_c, 0, 64, 86
1, 142999, Control_c, 0, 64, 85
1, 143013, Control_c, 0, 64, 84
1, 143028, Control_c, 0, 64, 82
1, 143029, Note_on_c, 0, 37, 39
1, 143037, Note_on_c, 0, 76, 51
1, 143043, Control_c, 0, 64, 77
1, 143058, Control_c, 0, 64, 70
1, 143073, Control_c, 0, 64, 59
1, 143087, Control_c, 0, 64, 0
1, 143131, Control_c, 0, 64, 21
1, 143146, Control_c, 0, 64, 38
1, 143161, Note_on_c, 0, 40, 55
1, 143161, Control_c, 0, 64, 47
1, 143172, Note_off_c, 0, 37, 37
1, 143176, Control_c, 0, 64, 56
1, 143191, Control_c, 0, 64, 63
1, 143205, Control_c, 0, 64, 65
1, 143207, Note_off_c, 0, 40, 58
1, 143220, Control_c, 0, 64, 67
1, 143250, Control_c, 0, 64, 65
1, 143265, Control_c, 0, 64, 60
1, 143277, Note_on_c, 0, 44, 60
1, 143280, Control_c, 0, 64, 0
1, 143312, Note_off_c, 0, 44, 63
1, 143339, Control_c, 0, 64, 23
1, 143354, Control_c, 0, 64, 49
1, 143369, Control_c, 0, 64, 61
1, 143375, Note_on_c, 0, 45, 68
1, 143384, Control_c, 0, 64, 63
1, 143399, Control_c, 0, 64, 64
1, 143401, Note_off_c, 0, 45, 67
1, 143403, Note_on_c, 0, 61, 64
1, 143413, Control_c, 0, 64, 65
1, 143428, Control_c, 0, 64, 66
1, 143443, Control_c, 0, 64, 67
1, 143457, Control_c, 0, 64, 68
1, 143472, Control_c, 0, 64, 69
1, 143487, Control_c, 0, 64, 70
1, 143498, Note_off_c, 0, 61, 59
1, 143509, Note_on_c, 0, 49, 59
1, 143517, Control_c, 0, 64, 71
1, 143531, Control_c, 0, 64, 72
1, 143546, Control_c, 0, 64, 73
1, 143561, Control_c, 0, 64, 75
1, 143576, Control_c, 0, 64, 76
1, 143591, Control_c, 0, 64, 77
1, 143605, Control_c, 0, 64, 78
1, 143620, Control_c, 0, 64, 79
1, 143621, Note_on_c, 0, 73, 82
1, 143646, Note_off_c, 0, 49, 55
1, 143653, Note_on_c, 0, 52, 57
1, 143700, Note_off_c, 0, 76, 36
1, 143733, Control_c, 0, 64, 78
1, 143748, Control_c, 0, 64, 76
1, 143755, Note_on_c, 0, 71, 80
1, 143762, Note_on_c, 0, 55, 65
1, 143762, Control_c, 0, 64, 72
1, 143777, Control_c, 0, 64, 66
1, 143789, Note_off_c, 0, 73, 59
1, 143792, Control_c, 0, 64, 49
1, 143802, Note_off_c, 0, 52, 49
1, 143807, Control_c, 0, 64, 0
1, 143822, Control_c, 0, 64, 29
1, 143836, Control_c, 0, 64, 56
1, 143851, Control_c, 0, 64, 64
1, 143866, Control_c, 0, 64, 66
1, 143880, Control_c, 0, 64, 69
1, 143884, Note_on_c, 0, 61, 68
1, 143895, Control_c, 0, 64, 72
1, 143910, Control_c, 0, 64, 74
1, 143925, Control_c, 0, 64, 77
1, 143940, Control_c, 0, 64, 80
1, 143955, Note_off_c, 0, 61, 64
1, 143955, Control_c, 0, 64, 84
1, 143969, Control_c, 0, 64, 86
1, 143980, Note_off_c, 0, 55, 62
1, 143984, Control_c, 0, 64, 88
1, 143996, Note_on_c, 0, 49, 64
1, 144013, Note_on_c, 0, 70, 86
1, 144025, Note_off_c, 0, 49, 65
1, 144028, Note_off_c, 0, 71, 60
1, 144118, Control_c, 0, 64, 87
1, 144132, Control_c, 0, 64, 86
1, 144147, Control_c, 0, 64, 85
1, 144162, Control_c, 0, 64, 83
1, 144164, Note_on_c, 0, 78, 79
1, 144169, Note_off_c, 0, 70, 63
1, 144171, Note_on_c, 0, 38, 56
1, 144177, Control_c, 0, 64, 81
1, 144183, Note_on_c, 0, 73, 59
1, 144192, Control_c, 0, 64, 78
1, 144207, Control_c, 0, 64, 74
1, 144221, Control_c, 0, 64, 64
1, 144236, Control_c, 0, 64, 0
1, 144237, Note_off_c, 0, 38, 55
1, 144302, Note_on_c, 0, 42, 75
1, 144325, Control_c, 0, 64, 37
1, 144340, Control_c, 0, 64, 55
1, 144353, Note_off_c, 0, 42, 59
1, 144354, Control_c, 0, 64, 60
1, 144377, Control_c, 0, 64, 60
1, 144392, Control_c, 0, 64, 52
1, 144407, Control_c, 0, 64, 19
1, 144420, Note_on_c, 0, 46, 80
1, 144422, Control_c, 0, 64, 0
1, 144452, Note_off_c, 0, 46, 64
1, 144530, Note_on_c, 0, 47, 59
1, 144539, Note_off_c, 0, 73, 57
1, 144552, Note_on_c, 0, 71, 55
1, 144556, Note_off_c, 0, 47, 64
1, 144660, Note_on_c, 0, 50, 60
1, 144694, Note_off_c, 0, 50, 66
1, 144768, Note_off_c, 0, 71, 33
1, 144781, Note_on_c, 0, 54, 54
1, 144786, Note_on_c, 0, 74, 57
1, 144807, Control_c, 0, 64, 19
1, 144822, Control_c, 0, 64, 26
1, 144827, Note_off_c, 0, 54, 55
1, 144837, Control_c, 0, 64, 34
1, 144851, Control_c, 0, 64, 41
1, 144866, Control_c, 0, 64, 48
1, 144881, Control_c, 0, 64, 54
1, 144896, Control_c, 0, 64, 59
1, 144910, Control_c, 0, 64, 61
1, 144922, Note_on_c, 0, 58, 42
1, 144925, Note_on_c, 0, 73, 56
1, 144925, Control_c, 0, 64, 62
1, 144927, Note_off_c, 0, 74, 53
1, 144940, Control_c, 0, 64, 63
1, 144955, Control_c, 0, 64, 64
1, 144970, Control_c, 0, 64, 65
1, 144985, Control_c, 0, 64, 66
1, 144997, Note_off_c, 0, 58, 59
1, 144999, Control_c, 0, 64, 67
1, 145014, Control_c, 0, 64, 68
1, 145029, Control_c, 0, 64, 69
1, 145043, Control_c, 0, 64, 70
1, 145046, Note_on_c, 0, 59, 51
1, 145058, Control_c, 0, 64, 71
1, 145073, Control_c, 0, 64, 73
1, 145077, Note_off_c, 0, 78, 36
1, 145088, Control_c, 0, 64, 75
1, 145102, Control_c, 0, 64, 76
1, 145102, Control_c, 0, 67, 8
1, 145125, Control_c, 0, 64, 77
1, 145125, Control_c, 0, 67, 9
1, 145140, Control_c, 0, 64, 78
1, 145140, Control_c, 0, 67, 11
1, 145155, Control_c, 0, 64, 80
1, 145155, Control_c, 0, 67, 13
1, 145162, Note_off_c, 0, 59, 44
1, 145170, Control_c, 0, 64, 82
1, 145170, Control_c, 0, 67, 15
1, 145184, Control_c, 0, 64, 84
1, 145184, Control_c, 0, 67, 20
1, 145185, Note_on_c, 0, 50, 49
1, 145191, Note_on_c, 0, 71, 65
1, 145199, Control_c, 0, 64, 85
1, 145199, Control_c, 0, 67, 26
1, 145202, Note_off_c, 0, 73, 51
1, 145214, Control_c, 0, 64, 87
1, 145214, Control_c, 0, 67, 31
1, 145216, Note_off_c, 0, 50, 61
1, 145219, Note_off_c, 0, 71, 67
1, 145228, Control_c, 0, 64, 88
1, 145228, Control_c, 0, 67, 34
1, 145243, Control_c, 0, 64, 89
1, 145243, Control_c, 0, 67, 35
1, 145258, Control_c, 0, 67, 36
1, 145288, Control_c, 0, 67, 36
1, 145304, Control_c, 0, 64, 90
1, 145319, Control_c, 0, 64, 90
1, 145331, Note_on_c, 0, 57, 50
1, 145333, Control_c, 0, 67, 36
1, 145364, Note_off_c, 0, 57, 52
1, 145378, Control_c, 0, 67, 35
1, 145407, Control_c, 0, 67, 35
1, 145422, Control_c, 0, 67, 34
1, 145467, Control_c, 0, 64, 90
1, 145477, Note_on_c, 0, 72, 50
1, 145481, Control_c, 0, 64, 89
1, 145496, Control_c, 0, 64, 89
1, 145497, Note_on_c, 0, 39, 35
1, 145511, Control_c, 0, 64, 88
1, 145525, Control_c, 0, 64, 87
1, 145540, Control_c, 0, 64, 85
1, 145555, Control_c, 0, 64, 79
1, 145570, Control_c, 0, 64, 69
1, 145585, Control_c, 0, 64, 44
1, 145599, Control_c, 0, 64, 0
1, 145614, Control_c, 0, 64, 17
1, 145614, Control_c, 0, 67, 34
1, 145629, Control_c, 0, 64, 40
1, 145644, Control_c, 0, 64, 48
1, 145659, Control_c, 0, 64, 54
1, 145674, Control_c, 0, 64, 59
1, 145682, Note_on_c, 0, 42, 34
1, 145688, Control_c, 0, 64, 63
1, 145688, Control_c, 0, 67, 33
1, 145703, Control_c, 0, 64, 65
1, 145718, Control_c, 0, 64, 66
1, 145733, Control_c, 0, 64, 68
1, 145748, Control_c, 0, 64, 68
1, 145748, Control_c, 0, 67, 33
1, 145751, Note_off_c, 0, 39, 36
1, 145763, Control_c, 0, 64, 69
1, 145778, Control_c, 0, 64, 70
1, 145778, Control_c, 0, 67, 32
1, 145793, Control_c, 0, 64, 71
1, 145807, Control_c, 0, 64, 72
1, 145822, Control_c, 0, 64, 74
1, 145837, Note_on_c, 0, 60, 42
1, 145837, Control_c, 0, 64, 75
1, 145837, Control_c, 0, 67, 32
1, 145843, Note_on_c, 0, 45, 44
1, 145851, Control_c, 0, 64, 75
1, 145851, Control_c, 0, 67, 31
1, 145866, Note_off_c, 0, 42, 39
1, 145866, Control_c, 0, 64, 76
1, 145888, Control_c, 0, 64, 76
1, 145888, Control_c, 0, 67, 31
1, 145903, Control_c, 0, 64, 77
1, 145903, Control_c, 0, 67, 30
1, 145916, Note_off_c, 0, 45, 54
1, 145918, Control_c, 0, 64, 78
1, 145933, Control_c, 0, 64, 78
1, 145933, Control_c, 0, 67, 30
1, 145948, Control_c, 0, 64, 79
1, 145978, Control_c, 0, 67, 29
1, 145981, Note_on_c, 0, 48, 48
1, 145984, Note_on_c, 0, 63, 54
1, 145992, Control_c, 0, 64, 79
1, 145998, Note_off_c, 0, 60, 38
1, 146007, Control_c, 0, 64, 80
1, 146007, Control_c, 0, 67, 29
1, 146013, Note_off_c, 0, 48, 63
1, 146022, Control_c, 0, 64, 80
1, 146066, Control_c, 0, 67, 28
1, 146081, Control_c, 0, 67, 28
1, 146097, Control_c, 0, 64, 81
1, 146106, Note_on_c, 0, 51, 61
1, 146112, Control_c, 0, 67, 27
1, 146127, Control_c, 0, 67, 27
1, 146142, Control_c, 0, 64, 81
1, 146142, Control_c, 0, 67, 26
1, 146156, Control_c, 0, 67, 25
1, 146171, Control_c, 0, 67, 24
1, 146186, Control_c, 0, 64, 82
1, 146186, Control_c, 0, 67, 24
1, 146201, Control_c, 0, 67, 22
1, 146216, Control_c, 0, 64, 82
1, 146216, Control_c, 0, 67, 21
1, 146230, Control_c, 0, 64, 83
1, 146230, Control_c, 0, 67, 18
1, 146231, Note_on_c, 0, 57, 59
1, 146231, Note_on_c, 0, 66, 75
1, 146245, Control_c, 0, 64, 83
1, 146245, Control_c, 0, 67, 15
1, 146246, Note_off_c, 0, 63, 63
1, 146260, Control_c, 0, 67, 12
1, 146274, Control_c, 0, 67, 9
1, 146289, Control_c, 0, 64, 84
1, 146289, Control_c, 0, 67, 8
1, 146298, Note_off_c, 0, 66, 65
1, 146304, Control_c, 0, 67, 0
1, 146320, Note_off_c, 0, 72, 43
1, 146348, Control_c, 0, 64, 83
1, 146350, Note_off_c, 0, 57, 60
1, 146354, Note_off_c, 0, 51, 51
1, 146363, Control_c, 0, 64, 81
1, 146368, Note_on_c, 0, 69, 78
1, 146378, Control_c, 0, 64, 77
1, 146391, Note_on_c, 0, 60, 56
1, 146393, Control_c, 0, 64, 74
1, 146408, Control_c, 0, 64, 75
1, 146422, Control_c, 0, 64, 76
1, 146437, Control_c, 0, 64, 77
1, 146452, Control_c, 0, 64, 79
1, 146467, Control_c, 0, 64, 82
1, 146481, Control_c, 0, 64, 84
1, 146496, Control_c, 0, 64, 87
1, 146511, Control_c, 0, 64, 88
1, 146513, Note_on_c, 0, 54, 58
1, 146526, Control_c, 0, 64, 89
1, 146541, Control_c, 0, 64, 90
1, 146556, Control_c, 0, 64, 91
1, 146564, Note_off_c, 0, 60, 39
1, 146571, Control_c, 0, 64, 92
1, 146616, Control_c, 0, 64, 92
1, 146628, Note_off_c, 0, 54, 63
1, 146650, Note_on_c, 0, 51, 41
1, 146652, Control_c, 0, 64, 93
1, 146661, Note_on_c, 0, 72, 62
1, 146667, Control_c, 0, 64, 93
1, 146671, Note_on_c, 0, 81, 76
1, 146691, Note_off_c, 0, 51, 56
1, 146696, Control_c, 0, 64, 94
1, 146755, Note_off_c, 0, 69, 30
1, 146818, Note_off_c, 0, 72, 61
1, 146834, Note_off_c, 0, 81, 54
1, 146860, Control_c, 0, 64, 93
1, 146889, Control_c, 0, 64, 93
1, 146905, Control_c, 0, 64, 92
1, 146920, Control_c, 0, 64, 91
1, 146934, Control_c, 0, 64, 90
1, 146946, Note_on_c, 0, 81, 67
1, 146949, Control_c, 0, 64, 86
1, 146950, Note_on_c, 0, 73, 59
1, 146959, Note_on_c, 0, 69, 46
1, 146964, Control_c, 0, 64, 78
1, 146967, Note_on_c, 0, 40, 39
1, 146979, Control_c, 0, 64, 67
1, 146994, Control_c, 0, 64, 0
1, 147083, Control_c, 0, 64, 27
1, 147097, Control_c, 0, 64, 47
1, 147112, Control_c, 0, 64, 57
1, 147127, Control_c, 0, 64, 62
1, 147142, Control_c, 0, 64, 64
1, 147157, Control_c, 0, 64, 65
1, 147157, Control_c, 0, 67, 9
1, 147171, Control_c, 0, 64, 66
1, 147171, Control_c, 0, 67, 12
1, 147186, Control_c, 0, 64, 69
1, 147186, Control_c, 0, 67, 17
1, 147187, Note_on_c, 0, 45, 41
1, 147201, Control_c, 0, 64, 71
1, 147201, Control_c, 0, 67, 23
1, 147215, Note_off_c, 0, 40, 40
1, 147216, Control_c, 0, 64, 72
1, 147216, Control_c, 0, 67, 27
1, 147231, Control_c, 0, 64, 73
1, 147231, Control_c, 0, 67, 29
1, 147245, Control_c, 0, 64, 74
1, 147245, Control_c, 0, 67, 32
1, 147260, Control_c, 0, 64, 76
1, 147260, Control_c, 0, 67, 36
1, 147275, Control_c, 0, 64, 77
1, 147275, Control_c, 0, 67, 39
1, 147290, Control_c, 0, 64, 79
1, 147290, Control_c, 0, 67, 41
1, 147304, Control_c, 0, 64, 80
1, 147304, Control_c, 0, 67, 42
1, 147319, Control_c, 0, 64, 81
1, 147319, Control_c, 0, 67, 42
1, 147334, Control_c, 0, 64, 82
1, 147334, Control_c, 0, 67, 43
1, 147343, Note_off_c, 0, 69, 43
1, 147347, Note_on_c, 0, 49, 50
1, 147349, Control_c, 0, 64, 84
1, 147349, Control_c, 0, 67, 44
1, 147364, Control_c, 0, 64, 86
1, 147381, Note_off_c, 0, 45, 40
1, 147386, Control_c, 0, 64, 87
1, 147411, Note_off_c, 0, 81, 49
1, 147430, Control_c, 0, 64, 87
1, 147434, Note_off_c, 0, 49, 57
1, 147445, Control_c, 0, 64, 88
1, 147460, Control_c, 0, 64, 90
1, 147469, Note_on_c, 0, 52, 55
1, 147475, Control_c, 0, 64, 91
1, 147504, Note_off_c, 0, 52, 63
1, 147534, Control_c, 0, 64, 91
1, 147534, Control_c, 0, 67, 44
1, 147609, Note_on_c, 0, 57, 48
1, 147638, Control_c, 0, 67, 43
1, 147695, Note_off_c, 0, 73, 51
1, 147708, Note_on_c, 0, 76, 69
1, 147709, Note_off_c, 0, 57, 35
1, 147713, Control_c, 0, 67, 43
1, 147750, Note_off_c, 0, 76, 55
1, 147763, Note_on_c, 0, 61, 46
1, 147772, Control_c, 0, 64, 91
1, 147778, Poly_aftertouch_c, 0, 64, 127
1, 147787, Control_c, 0, 64, 88
1, 147802, Control_c, 0, 64, 85
1, 147802, Control_c, 0, 67, 42
1, 147811, Poly_aftertouch_c, 0, 64, 0
1, 147817, Control_c, 0, 64, 82
1, 147832, Control_c, 0, 64, 82
1, 147837, Note_off_c, 0, 61, 55
1, 147861, Control_c, 0, 67, 42
1, 147864, Note_on_c, 0, 74, 65
1, 147867, Note_on_c, 0, 57, 41
1, 147876, Control_c, 0, 64, 83
1, 147876, Control_c, 0, 67, 41
1, 147887, Note_on_c, 0, 62, 34
1, 147891, Control_c, 0, 64, 84
1, 147901, Note_off_c, 0, 57, 62
1, 147906, Control_c, 0, 64, 86
1, 147920, Note_off_c, 0, 62, 60
1, 147920, Control_c, 0, 64, 87
1, 147920, Control_c, 0, 67, 41
1, 147935, Control_c, 0, 64, 88
1, 147950, Control_c, 0, 64, 89
1, 147950, Control_c, 0, 67, 40
1, 147965, Control_c, 0, 64, 90
1, 147980, Control_c, 0, 64, 90
1, 147995, Control_c, 0, 67, 40
1, 148005, Note_on_c, 0, 52, 49
1, 148010, Control_c, 0, 64, 91
1, 148025, Control_c, 0, 64, 91
1, 148083, Note_off_c, 0, 52, 50
1, 148107, Note_off_c, 0, 74, 58
1, 148140, Note_on_c, 0, 40, 40
1, 148142, Note_on_c, 0, 73, 59
1, 148154, Note_on_c, 0, 61, 45
1, 148182, Note_off_c, 0, 40, 48
1, 148204, Note_off_c, 0, 61, 60
1, 148208, Note_off_c, 0, 73, 63
1, 148254, Control_c, 0, 67, 39
1, 148314, Control_c, 0, 64, 91
1, 148328, Control_c, 0, 64, 90
1, 148343, Control_c, 0, 64, 87
1, 148351, Note_on_c, 0, 39, 38
1, 148351, Note_on_c, 0, 57, 48
1, 148358, Control_c, 0, 64, 81
1, 148373, Control_c, 0, 64, 71
1, 148388, Control_c, 0, 64, 51
1, 148402, Control_c, 0, 64, 0
1, 148432, Control_c, 0, 64, 30
1, 148432, Control_c, 0, 67, 39
1, 148446, Control_c, 0, 64, 47
1, 148446, Control_c, 0, 67, 38
1, 148461, Control_c, 0, 64, 58
1, 148476, Control_c, 0, 64, 64
1, 148476, Control_c, 0, 67, 38
1, 148492, Control_c, 0, 64, 66
1, 148502, Note_on_c, 0, 42, 38
1, 148507, Control_c, 0, 64, 69
1, 148507, Control_c, 0, 67, 37
1, 148522, Control_c, 0, 64, 71
1, 148522, Control_c, 0, 67, 36
1, 148537, Control_c, 0, 64, 72
1, 148537, Control_c, 0, 67, 35
1, 148551, Control_c, 0, 64, 73
1, 148551, Control_c, 0, 67, 34
1, 148554, Note_off_c, 0, 39, 37
1, 148566, Control_c, 0, 64, 75
1, 148566, Control_c, 0, 67, 34
1, 148581, Control_c, 0, 64, 77
1, 148581, Control_c, 0, 67, 33
1, 148596, Control_c, 0, 64, 79
1, 148596, Control_c, 0, 67, 33
1, 148611, Control_c, 0, 64, 80
1, 148611, Control_c, 0, 67, 32
1, 148625, Control_c, 0, 64, 81
1, 148625, Control_c, 0, 67, 30
1, 148640, Control_c, 0, 64, 83
1, 148640, Control_c, 0, 67, 28
1, 148651, Note_on_c, 0, 45, 38
1, 148651, Note_on_c, 0, 60, 46
1, 148655, Control_c, 0, 64, 85
1, 148655, Control_c, 0, 67, 25
1, 148666, Note_off_c, 0, 42, 41
1, 148669, Control_c, 0, 64, 87
1, 148669, Control_c, 0, 67, 23
1, 148684, Control_c, 0, 64, 89
1, 148684, Control_c, 0, 67, 21
1, 148690, Note_off_c, 0, 57, 33
1, 148699, Control_c, 0, 64, 91
1, 148699, Control_c, 0, 67, 19
1, 148714, Control_c, 0, 64, 93
1, 148714, Control_c, 0, 67, 17
1, 148725, Note_off_c, 0, 45, 53
1, 148729, Control_c, 0, 64, 95
1, 148729, Control_c, 0, 67, 14
1, 148743, Control_c, 0, 64, 97
1, 148743, Control_c, 0, 67, 12
1, 148758, Control_c, 0, 64, 98
1, 148758, Control_c, 0, 67, 9
1, 148766, Note_on_c, 0, 48, 55
1, 148773, Control_c, 0, 64, 100
1, 148773, Control_c, 0, 67, 0
1, 148775, Note_on_c, 0, 63, 63
1, 148788, Control_c, 0, 64, 102
1, 148801, Note_off_c, 0, 48, 64
1, 148803, Control_c, 0, 64, 103
1, 148817, Control_c, 0, 64, 105
1, 148832, Control_c, 0, 64, 106
1, 148847, Control_c, 0, 64, 107
1, 148869, Control_c, 0, 64, 108
1, 148884, Control_c, 0, 64, 109
1, 148899, Control_c, 0, 64, 110
1, 148899, Note_on_c, 0, 51, 68
1, 148914, Control_c, 0, 64, 113
1, 148929, Control_c, 0, 64, 115
1, 148943, Control_c, 0, 64, 117
1, 148944, Note_off_c, 0, 60, 32
1, 148958, Control_c, 0, 64, 121
1, 148973, Control_c, 0, 64, 127
1, 149023, Note_on_c, 0, 57, 66
1, 149024, Note_on_c, 0, 66, 78
1, 149043, Note_off_c, 0, 63, 62
1, 149087, Note_off_c, 0, 66, 65
1, 149111, Note_off_c, 0, 51, 55
1, 149114, Note_off_c, 0, 57, 60
1, 149143, Note_on_c, 0, 69, 86
1, 149144, Note_on_c, 0, 60, 68
1, 149255, Note_on_c, 0, 54, 72
1, 149292, Note_off_c, 0, 60, 54
1, 149346, Note_off_c, 0, 54, 65
1, 149351, Note_on_c, 0, 51, 70
1, 149376, Note_off_c, 0, 69, 57
1, 149379, Note_off_c, 0, 51, 66
1, 149392, Note_on_c, 0, 81, 90
1, 149397, Note_on_c, 0, 72, 66
1, 149502, Note_on_c, 0, 39, 74
1, 149522, Note_on_c, 0, 69, 91
1, 149534, Note_off_c, 0, 81, 54
1, 149537, Control_c, 0, 64, 97
1, 149544, Note_off_c, 0, 72, 58
1, 149552, Control_c, 0, 64, 61
1, 149566, Control_c, 0, 64, 0
1, 149618, Control_c, 0, 64, 43
1, 149633, Control_c, 0, 64, 63
1, 149640, Note_on_c, 0, 42, 80
1, 149647, Control_c, 0, 64, 71
1, 149662, Control_c, 0, 64, 76
1, 149677, Control_c, 0, 64, 81
1, 149692, Control_c, 0, 64, 85
1, 149707, Control_c, 0, 64, 88
1, 149722, Control_c, 0, 64, 91
1, 149737, Control_c, 0, 64, 94
1, 149751, Control_c, 0, 64, 98
1, 149766, Control_c, 0, 64, 101
1, 149774, Note_off_c, 0, 69, 58
1, 149781, Control_c, 0, 64, 104
1, 149787, Note_on_c, 0, 45, 78
1, 149796, Control_c, 0, 64, 108
1, 149801, Note_off_c, 0, 39, 27
1, 149811, Control_c, 0, 64, 113
1, 149819, Note_on_c, 0, 72, 97
1, 149825, Control_c, 0, 64, 117
1, 149840, Control_c, 0, 64, 119
1, 149855, Control_c, 0, 64, 123
1, 149870, Control_c, 0, 64, 127
1, 149894, Note_off_c, 0, 42, 29
1, 149928, Note_on_c, 0, 48, 90
1, 149933, Note_off_c, 0, 45, 62
1, 149946, Note_on_c, 0, 75, 94
1, 149963, Note_off_c, 0, 48, 62
1, 149974, Note_off_c, 0, 72, 61
1, 150071, Note_on_c, 0, 51, 91
1, 150157, Note_off_c, 0, 75, 56
1, 150222, Note_on_c, 0, 57, 85
1, 150235, Note_on_c, 0, 78, 102
1, 150327, Note_off_c, 0, 78, 60
1, 150410, Note_off_c, 0, 57, 48
1, 150415, Note_on_c, 0, 81, 100
1, 150417, Note_on_c, 0, 60, 89
1, 150437, Note_off_c, 0, 51, 59
1, 150592, Note_on_c, 0, 84, 100
1, 150597, Note_on_c, 0, 54, 80
1, 150625, Note_off_c, 0, 60, 51
1, 150697, Note_off_c, 0, 54, 66
1, 150700, Note_on_c, 0, 51, 74
1, 150700, Note_off_c, 0, 84, 59
1, 150724, Note_off_c, 0, 51, 67
1, 150811, Control_c, 0, 64, 102
1, 150812, Note_on_c, 0, 93, 104
1, 150826, Control_c, 0, 64, 63
1, 150833, Note_on_c, 0, 40, 72
1, 150840, Control_c, 0, 64, 0
1, 150886, Control_c, 0, 64, 50
1, 150901, Control_c, 0, 64, 70
1, 150916, Control_c, 0, 64, 80
1, 150920, Note_on_c, 0, 52, 93
1, 150926, Note_off_c, 0, 40, 63
1, 150931, Control_c, 0, 64, 91
1, 150940, Note_off_c, 0, 52, 72
1, 150945, Control_c, 0, 64, 99
1, 150960, Control_c, 0, 64, 106
1, 150975, Control_c, 0, 64, 124
1, 150991, Control_c, 0, 64, 127
1, 151051, Note_off_c, 0, 93, 54
1, 151072, Note_off_c, 0, 81, 53
1, 151167, Note_on_c, 0, 73, 100
1, 151170, Note_on_c, 0, 93, 103
1, 151170, Note_on_c, 0, 61, 92
1, 151171, Note_on_c, 0, 81, 103
1, 151176, Note_on_c, 0, 85, 97
1, 151185, Note_off_c, 0, 73, 71
1, 151192, Note_off_c, 0, 61, 69
1, 151551, Note_on_c, 0, 64, 82
1, 151557, Note_on_c, 0, 52, 77
1, 151572, Note_off_c, 0, 64, 72
1, 151575, Note_off_c, 0, 93, 52
1, 151584, Note_off_c, 0, 81, 57
1, 151588, Note_off_c, 0, 52, 63
1, 151649, Note_on_c, 0, 54, 88
1, 151650, Note_on_c, 0, 66, 89
1, 151656, Note_off_c, 0, 85, 61
1, 151668, Note_off_c, 0, 66, 70
1, 151671, Note_off_c, 0, 54, 70
1, 151740, Note_on_c, 0, 56, 70
1, 151740, Note_on_c, 0, 92, 99
1, 151742, Note_on_c, 0, 80, 81
1, 151745, Note_on_c, 0, 68, 64
1, 151748, Note_on_c, 0, 66, 59
1, 151751, Note_on_c, 0, 54, 61
1, 151756, Note_off_c, 0, 92, 75
1, 151761, Note_off_c, 0, 80, 72
1, 151761, Note_off_c, 0, 56, 66
1, 151764, Note_off_c, 0, 68, 64
1, 151768, Note_off_c, 0, 66, 63
1, 151775, Note_off_c, 0, 54, 67
1, 151838, Note_on_c, 0, 73, 97
1, 151841, Note_on_c, 0, 85, 104
1, 151842, Note_on_c, 0, 49, 94
1, 151851, Note_on_c, 0, 61, 79
1, 151868, Note_off_c, 0, 73, 62
1, 151874, Note_off_c, 0, 49, 69
1, 151876, Note_off_c, 0, 85, 60
1, 151883, Note_off_c, 0, 61, 66
1, 151942, Note_on_c, 0, 75, 95
1, 151943, Note_on_c, 0, 51, 85
1, 151944, Note_on_c, 0, 87, 101
1, 151948, Note_on_c, 0, 63, 87
1, 151974, Note_on_c, 0, 85, 53
1, 151975, Note_off_c, 0, 85, 127
1, 151978, Note_off_c, 0, 75, 66
1, 151984, Note_off_c, 0, 87, 66
1, 151984, Control_c, 0, 64, 84
1, 151996, Note_off_c, 0, 63, 61
1, 151999, Control_c, 0, 64, 0
1, 151999, Note_off_c, 0, 51, 61
1, 152050, Note_on_c, 0, 64, 95
1, 152050, Note_on_c, 0, 88, 108
1, 152052, Note_on_c, 0, 76, 107
1, 152053, Note_on_c, 0, 52, 84
1, 152058, Control_c, 0, 64, 64
1, 152073, Control_c, 0, 64, 81
1, 152074, Note_off_c, 0, 64, 70
1, 152075, Note_off_c, 0, 76, 67
1, 152082, Note_off_c, 0, 88, 67
1, 152088, Control_c, 0, 64, 106
1, 152102, Note_off_c, 0, 52, 64
1, 152102, Control_c, 0, 64, 127
1, 152176, Control_c, 0, 64, 91
1, 152191, Control_c, 0, 64, 36
1, 152206, Control_c, 0, 64, 0
1, 152354, Control_c, 0, 64, 51
1, 152363, Note_on_c, 0, 40, 67
1, 152369, Control_c, 0, 64, 63
1, 152384, Control_c, 0, 64, 66
1, 152395, Note_off_c, 0, 40, 64
1, 152398, Control_c, 0, 64, 69
1, 152408, Note_on_c, 0, 52, 72
1, 152413, Control_c, 0, 64, 71
1, 152428, Control_c, 0, 64, 75
1, 152436, Note_off_c, 0, 52, 65
1, 152443, Control_c, 0, 64, 80
1, 152458, Control_c, 0, 64, 84
1, 152473, Control_c, 0, 64, 90
1, 152488, Control_c, 0, 64, 100
1, 152496, Note_on_c, 0, 61, 96
1, 152503, Note_on_c, 0, 69, 94
1, 152503, Control_c, 0, 64, 127
1, 152505, Note_on_c, 0, 81, 102
1, 152507, Note_on_c, 0, 73, 95
1, 152512, Note_off_c, 0, 61, 74
1, 152836, Note_on_c, 0, 52, 91
1, 152878, Note_off_c, 0, 52, 62
1, 152880, Note_off_c, 0, 81, 54
1, 152894, Note_off_c, 0, 69, 61
1, 152923, Note_on_c, 0, 54, 94
1, 152934, Note_off_c, 0, 73, 60
1, 152958, Note_off_c, 0, 54, 64
1, 153013, Note_on_c, 0, 56, 92
1, 153023, Note_on_c, 0, 80, 92
1, 153024, Note_on_c, 0, 68, 84
1, 153039, Note_off_c, 0, 80, 74
1, 153042, Note_off_c, 0, 56, 64
1, 153043, Note_off_c, 0, 68, 71
1, 153088, Control_c, 0, 64, 80
1, 153103, Control_c, 0, 64, 0
1, 153117, Note_on_c, 0, 61, 93
1, 153118, Note_on_c, 0, 73, 101
1, 153121, Note_on_c, 0, 49, 82
1, 153138, Note_off_c, 0, 61, 67
1, 153151, Note_off_c, 0, 73, 64
1, 153155, Note_off_c, 0, 49, 65
1, 153218, Note_on_c, 0, 51, 85
1, 153219, Note_on_c, 0, 75, 99
1, 153220, Note_on_c, 0, 63, 94
1, 153248, Note_off_c, 0, 51, 67
1, 153258, Note_off_c, 0, 75, 66
1, 153261, Note_off_c, 0, 63, 60
1, 153311, Control_c, 0, 64, 24
1, 153315, Note_on_c, 0, 52, 96
1, 153326, Control_c, 0, 64, 78
1, 153327, Note_on_c, 0, 64, 94
1, 153327, Note_on_c, 0, 76, 101
1, 153337, Note_off_c, 0, 52, 72
1, 153340, Control_c, 0, 64, 111
1, 153343, Note_off_c, 0, 64, 76
1, 153350, Note_off_c, 0, 76, 64
1, 153362, Control_c, 0, 64, 127
1, 153421, Control_c, 0, 64, 100
1, 153436, Control_c, 0, 64, 66
1, 153451, Control_c, 0, 64, 0
1, 153659, Note_on_c, 0, 42, 68
1, 153695, Note_on_c, 0, 54, 85
1, 153703, Control_c, 0, 64, 57
1, 153713, Note_off_c, 0, 42, 64
1, 153718, Control_c, 0, 64, 76
1, 153731, Note_off_c, 0, 54, 63
1, 153733, Control_c, 0, 64, 89
1, 153747, Control_c, 0, 64, 105
1, 153762, Control_c, 0, 64, 127
1, 153786, Note_on_c, 0, 62, 94
1, 153802, Note_on_c, 0, 71, 97
1, 153802, Note_on_c, 0, 83, 101
1, 153804, Note_on_c, 0, 74, 89
1, 153804, Note_off_c, 0, 62, 71
1, 154132, Note_on_c, 0, 54, 96
1, 154163, Note_off_c, 0, 83, 51
1, 154168, Note_off_c, 0, 54, 69
1, 154191, Note_off_c, 0, 71, 58
1, 154224, Note_on_c, 0, 55, 98
1, 154228, Note_off_c, 0, 74, 60
1, 154259, Note_off_c, 0, 55, 69
1, 154318, Note_on_c, 0, 57, 90
1, 154321, Note_on_c, 0, 69, 85
1, 154322, Note_on_c, 0, 81, 96
1, 154339, Note_off_c, 0, 69, 73
1, 154340, Note_off_c, 0, 81, 65
1, 154351, Note_off_c, 0, 57, 63
1, 154378, Control_c, 0, 64, 87
1, 154393, Control_c, 0, 64, 0
1, 154417, Note_on_c, 0, 50, 90
1, 154427, Note_on_c, 0, 62, 96
1, 154428, Note_on_c, 0, 74, 95
1, 154447, Note_off_c, 0, 62, 68
1, 154449, Note_off_c, 0, 50, 65
1, 154456, Note_off_c, 0, 74, 66
1, 154522, Note_on_c, 0, 64, 93
1, 154523, Note_on_c, 0, 76, 91
1, 154524, Note_on_c, 0, 52, 86
1, 154530, Note_on_c, 0, 74, 83
1, 154550, Note_off_c, 0, 64, 67
1, 154550, Note_off_c, 0, 74, 71
1, 154555, Note_off_c, 0, 52, 66
1, 154559, Note_off_c, 0, 76, 66
1, 154622, Note_on_c, 0, 54, 91
1, 154628, Note_on_c, 0, 66, 96
1, 154628, Note_on_c, 0, 78, 105
1, 154644, Note_off_c, 0, 54, 72
1, 154644, Control_c, 0, 64, 79
1, 154652, Note_off_c, 0, 66, 64
1, 154659, Control_c, 0, 64, 127
1, 154666, Note_off_c, 0, 78, 63
1, 154763, Control_c, 0, 64, 108
1, 154778, Control_c, 0, 64, 66
1, 154793, Control_c, 0, 64, 0
1, 154942, Note_on_c, 0, 43, 81
1, 154980, Control_c, 0, 64, 64
1, 154988, Note_off_c, 0, 43, 64
1, 154994, Control_c, 0, 64, 77
1, 154995, Note_on_c, 0, 55, 89
1, 155009, Control_c, 0, 64, 85
1, 155024, Control_c, 0, 64, 95
1, 155038, Control_c, 0, 64, 99
1, 155043, Note_off_c, 0, 55, 64
1, 155053, Control_c, 0, 64, 101
1, 155068, Control_c, 0, 64, 101
1, 155083, Control_c, 0, 64, 104
1, 155098, Control_c, 0, 64, 112
1, 155112, Note_on_c, 0, 62, 97
1, 155112, Control_c, 0, 64, 127
1, 155126, Note_on_c, 0, 71, 101
1, 155126, Note_on_c, 0, 83, 101
1, 155126, Note_on_c, 0, 73, 94
1, 155126, Note_on_c, 0, 76, 91
1, 155135, Note_off_c, 0, 62, 66
1, 155151, Note_on_c, 0, 80, 56
1, 155171, Note_off_c, 0, 80, 62
1, 155475, Note_on_c, 0, 55, 98
1, 155498, Control_c, 0, 64, 96
1, 155502, Note_off_c, 0, 83, 57
1, 155512, Control_c, 0, 64, 75
1, 155516, Note_off_c, 0, 55, 66
1, 155519, Note_off_c, 0, 71, 61
1, 155527, Control_c, 0, 64, 69
1, 155542, Control_c, 0, 64, 78
1, 155554, Note_off_c, 0, 73, 61
1, 155554, Note_off_c, 0, 76, 58
1, 155556, Control_c, 0, 64, 87
1, 155571, Control_c, 0, 64, 96
1, 155575, Note_on_c, 0, 57, 95
1, 155586, Control_c, 0, 64, 107
1, 155609, Control_c, 0, 64, 127
1, 155621, Note_off_c, 0, 57, 67
1, 155682, Note_on_c, 0, 82, 100
1, 155686, Note_on_c, 0, 70, 91
1, 155692, Note_on_c, 0, 58, 90
1, 155710, Note_off_c, 0, 70, 66
1, 155712, Note_off_c, 0, 82, 65
1, 155725, Note_off_c, 0, 58, 61
1, 155788, Control_c, 0, 64, 109
1, 155800, Note_on_c, 0, 76, 101
1, 155803, Control_c, 0, 64, 70
1, 155803, Note_on_c, 0, 64, 92
1, 155806, Note_on_c, 0, 52, 85
1, 155817, Control_c, 0, 64, 0
1, 155821, Note_off_c, 0, 64, 73
1, 155828, Note_off_c, 0, 76, 67
1, 155834, Note_off_c, 0, 52, 67
1, 155907, Note_on_c, 0, 66, 96
1, 155908, Note_on_c, 0, 78, 105
1, 155911, Note_on_c, 0, 54, 83
1, 155939, Note_off_c, 0, 66, 65
1, 155945, Note_off_c, 0, 54, 63
1, 155946, Note_off_c, 0, 78, 67
1, 156047, Note_on_c, 0, 79, 106
1, 156047, Note_on_c, 0, 55, 91
1, 156048, Note_on_c, 0, 67, 95
1, 156053, Control_c, 0, 64, 61
1, 156063, Note_off_c, 0, 67, 74
1, 156068, Control_c, 0, 64, 77
1, 156070, Note_off_c, 0, 79, 65
1, 156077, Note_off_c, 0, 55, 67
1, 156083, Control_c, 0, 64, 95
1, 156098, Control_c, 0, 64, 127
1, 156402, Control_c, 0, 64, 104
1, 156417, Control_c, 0, 64, 97
1, 156432, Control_c, 0, 64, 91
1, 156447, Control_c, 0, 64, 85
1, 156461, Control_c, 0, 64, 81
1, 156476, Control_c, 0, 64, 78
1, 156491, Control_c, 0, 64, 75
1, 156506, Control_c, 0, 64, 74
1, 156521, Control_c, 0, 64, 73
1, 156536, Control_c, 0, 64, 71
1, 156536, Control_c, 0, 67, 9
1, 156551, Control_c, 0, 64, 70
1, 156551, Control_c, 0, 67, 12
1, 156566, Control_c, 0, 64, 68
1, 156566, Control_c, 0, 67, 17
1, 156581, Control_c, 0, 64, 67
1, 156581, Control_c, 0, 67, 21
1, 156596, Control_c, 0, 64, 66
1, 156596, Control_c, 0, 67, 26
1, 156610, Control_c, 0, 67, 30
1, 156625, Control_c, 0, 67, 33
1, 156640, Control_c, 0, 64, 65
1, 156640, Control_c, 0, 67, 34
1, 156655, Control_c, 0, 64, 64
1, 156655, Control_c, 0, 67, 35
1, 156670, Control_c, 0, 64, 64
1, 156670, Control_c, 0, 67, 36
1, 156684, Control_c, 0, 64, 63
1, 156684, Control_c, 0, 67, 37
1, 156699, Control_c, 0, 64, 62
1, 156699, Control_c, 0, 67, 38
1, 156714, Control_c, 0, 64, 61
1, 156714, Control_c, 0, 67, 40
1, 156729, Control_c, 0, 64, 60
1, 156729, Control_c, 0, 67, 42
1, 156744, Control_c, 0, 64, 59
1, 156744, Control_c, 0, 67, 44
1, 156758, Control_c, 0, 64, 58
1, 156758, Control_c, 0, 67, 45
1, 156773, Control_c, 0, 64, 57
1, 156773, Control_c, 0, 67, 48
1, 156788, Control_c, 0, 64, 56
1, 156788, Control_c, 0, 67, 52
1, 156803, Control_c, 0, 64, 55
1, 156803, Control_c, 0, 67, 57
1, 156817, Control_c, 0, 64, 53
1, 156817, Control_c, 0, 67, 61
1, 156832, Control_c, 0, 64, 50
1, 156832, Control_c, 0, 67, 65
1, 156847, Control_c, 0, 64, 47
1, 156847, Control_c, 0, 67, 69
1, 156862, Control_c, 0, 64, 45
1, 156862, Control_c, 0, 67, 73
1, 156877, Control_c, 0, 64, 36
1, 156877, Control_c, 0, 67, 78
1, 156891, Control_c, 0, 64, 0
1, 156891, Control_c, 0, 67, 82
1, 156906, Control_c, 0, 67, 85
1, 156921, Control_c, 0, 67, 86
1, 156936, Control_c, 0, 67, 86
1, 157039, Control_c, 0, 64, 24
1, 157046, Note_on_c, 0, 71, 45
1, 157054, Control_c, 0, 64, 57
1, 157069, Control_c, 0, 64, 61
1, 157069, Control_c, 0, 67, 86
1, 157083, Control_c, 0, 64, 61
1, 157083, Control_c, 0, 67, 85
1, 157098, Control_c, 0, 64, 62
1, 157120, Note_on_c, 0, 73, 48
1, 157120, Control_c, 0, 64, 64
1, 157135, Control_c, 0, 64, 66
1, 157150, Control_c, 0, 64, 67
1, 157150, Control_c, 0, 67, 85
1, 157165, Control_c, 0, 64, 68
1, 157165, Control_c, 0, 67, 84
1, 157168, Note_on_c, 0, 77, 56
1, 157180, Control_c, 0, 64, 69
1, 157195, Control_c, 0, 64, 69
1, 157195, Control_c, 0, 67, 84
1, 157209, Control_c, 0, 64, 70
1, 157209, Control_c, 0, 67, 83
1, 157223, Note_on_c, 0, 83, 74
1, 157224, Control_c, 0, 64, 71
1, 157224, Control_c, 0, 67, 82
1, 157239, Control_c, 0, 64, 72
1, 157254, Control_c, 0, 64, 74
1, 157260, Note_on_c, 0, 44, 38
1, 157269, Control_c, 0, 64, 74
1, 157284, Control_c, 0, 64, 75
1, 157299, Control_c, 0, 64, 76
1, 157299, Control_c, 0, 67, 81
1, 157314, Control_c, 0, 64, 76
1, 157329, Control_c, 0, 64, 77
1, 157329, Control_c, 0, 67, 81
1, 157344, Control_c, 0, 64, 78
1, 157359, Control_c, 0, 64, 80
1, 157374, Control_c, 0, 64, 81
1, 157388, Control_c, 0, 64, 82
1, 157388, Control_c, 0, 67, 80
1, 157393, Note_off_c, 0, 44, 31
1, 157403, Control_c, 0, 64, 83
1, 157418, Control_c, 0, 64, 84
1, 157418, Control_c, 0, 67, 80
1, 157432, Control_c, 0, 64, 84
1, 157432, Control_c, 0, 67, 79
1, 157447, Control_c, 0, 64, 85
1, 157447, Control_c, 0, 67, 79
1, 157462, Control_c, 0, 64, 86
1, 157462, Control_c, 0, 67, 78
1, 157477, Control_c, 0, 64, 87
1, 157492, Control_c, 0, 64, 88
1, 157506, Control_c, 0, 64, 88
1, 157506, Control_c, 0, 67, 78
1, 157521, Control_c, 0, 67, 77
1, 157536, Control_c, 0, 64, 89
1, 157551, Control_c, 0, 64, 89
1, 157561, Note_on_c, 0, 47, 31
1, 157566, Control_c, 0, 64, 90
1, 157566, Control_c, 0, 67, 77
1, 157580, Control_c, 0, 64, 91
1, 157580, Control_c, 0, 67, 76
1, 157595, Control_c, 0, 67, 76
1, 157600, Note_off_c, 0, 47, 53
1, 157610, Control_c, 0, 67, 75
1, 157625, Control_c, 0, 64, 91
1, 157625, Control_c, 0, 67, 74
1, 157639, Control_c, 0, 67, 74
1, 157644, Note_off_c, 0, 83, 59
1, 157654, Control_c, 0, 64, 92
1, 157657, Note_off_c, 0, 71, 44
1, 157669, Control_c, 0, 67, 73
1, 157677, Note_on_c, 0, 49, 48
1, 157684, Control_c, 0, 64, 92
1, 157684, Control_c, 0, 67, 72
1, 157699, Control_c, 0, 67, 71
1, 157713, Note_off_c, 0, 49, 50
1, 157713, Control_c, 0, 67, 69
1, 157728, Control_c, 0, 64, 93
1, 157728, Control_c, 0, 67, 67
1, 157743, Control_c, 0, 64, 93
1, 157743, Control_c, 0, 67, 65
1, 157758, Control_c, 0, 67, 62
1, 157773, Control_c, 0, 64, 94
1, 157773, Control_c, 0, 67, 60
1, 157788, Control_c, 0, 67, 59
1, 157803, Control_c, 0, 67, 58
1, 157818, Control_c, 0, 64, 94
1, 157818, Control_c, 0, 67, 56
1, 157819, Note_off_c, 0, 77, 37
1, 157821, Note_on_c, 0, 53, 37
1, 157832, Control_c, 0, 64, 95
1, 157832, Control_c, 0, 67, 53
1, 157847, Control_c, 0, 67, 51
1, 157869, Control_c, 0, 67, 49
1, 157876, Note_off_c, 0, 53, 48
1, 157884, Control_c, 0, 67, 46
1, 157899, Control_c, 0, 64, 95
1, 157899, Control_c, 0, 67, 43
1, 157913, Control_c, 0, 64, 95
1, 157913, Control_c, 0, 67, 40
1, 157928, Control_c, 0, 67, 38
1, 157943, Control_c, 0, 67, 36
1, 157955, Note_on_c, 0, 44, 44
1, 157958, Control_c, 0, 67, 33
1, 157973, Control_c, 0, 67, 30
1, 157988, Control_c, 0, 67, 28
1, 158003, Control_c, 0, 67, 25
1, 158017, Control_c, 0, 67, 23
1, 158032, Control_c, 0, 64, 95
1, 158032, Control_c, 0, 67, 20
1, 158047, Control_c, 0, 67, 18
1, 158062, Control_c, 0, 67, 16
1, 158066, Note_off_c, 0, 44, 34
1, 158077, Note_on_c, 0, 80, 76
1, 158077, Control_c, 0, 67, 14
1, 158078, Note_off_c, 0, 73, 62
1, 158081, Note_on_c, 0, 68, 61
1, 158092, Note_on_c, 0, 47, 42
1, 158092, Control_c, 0, 67, 12
1, 158107, Control_c, 0, 64, 95
1, 158107, Control_c, 0, 67, 10
1, 158122, Note_off_c, 0, 68, 60
1, 158122, Control_c, 0, 64, 94
1, 158122, Control_c, 0, 67, 8
1, 158137, Control_c, 0, 67, 0
1, 158211, Control_c, 0, 64, 94
1, 158223, Note_on_c, 0, 49, 49
1, 158226, Control_c, 0, 64, 95
1, 158237, Note_on_c, 0, 78, 80
1, 158241, Control_c, 0, 64, 95
1, 158243, Note_on_c, 0, 66, 61
1, 158269, Note_off_c, 0, 80, 51
1, 158315, Control_c, 0, 64, 96
1, 158338, Note_on_c, 0, 53, 53
1, 158344, Control_c, 0, 64, 96
1, 158359, Control_c, 0, 64, 97
1, 158374, Control_c, 0, 64, 99
1, 158388, Control_c, 0, 64, 102
1, 158403, Control_c, 0, 64, 104
1, 158418, Control_c, 0, 64, 105
1, 158433, Control_c, 0, 64, 106
1, 158461, Note_off_c, 0, 66, 38
1, 158475, Note_on_c, 0, 77, 86
1, 158477, Control_c, 0, 64, 106
1, 158488, Note_on_c, 0, 65, 71
1, 158488, Note_on_c, 0, 44, 51
1, 158492, Note_off_c, 0, 78, 61
1, 158507, Control_c, 0, 64, 107
1, 158518, Note_off_c, 0, 53, 29
1, 158527, Note_off_c, 0, 47, 38
1, 158530, Note_off_c, 0, 44, 56
1, 158533, Note_off_c, 0, 77, 61
1, 158544, Note_off_c, 0, 49, 42
1, 158551, Control_c, 0, 64, 106
1, 158553, Note_off_c, 0, 65, 57
1, 158596, Control_c, 0, 64, 106
1, 158618, Control_c, 0, 64, 101
1, 158633, Control_c, 0, 64, 92
1, 158640, Note_on_c, 0, 77, 81
1, 158648, Control_c, 0, 64, 77
1, 158652, Note_on_c, 0, 45, 50
1, 158655, Note_on_c, 0, 65, 52
1, 158655, Note_on_c, 0, 69, 40
1, 158662, Control_c, 0, 64, 62
1, 158663, Note_on_c, 0, 72, 43
1, 158677, Control_c, 0, 64, 0
1, 158692, Control_c, 0, 64, 39
1, 158707, Control_c, 0, 64, 50
1, 158722, Control_c, 0, 64, 56
1, 158730, Note_off_c, 0, 45, 48
1, 158736, Control_c, 0, 64, 62
1, 158751, Control_c, 0, 64, 65
1, 158766, Control_c, 0, 64, 67
1, 158781, Control_c, 0, 64, 70
1, 158795, Note_on_c, 0, 48, 59
1, 158795, Control_c, 0, 64, 72
1, 158810, Control_c, 0, 64, 75
1, 158825, Control_c, 0, 64, 77
1, 158840, Control_c, 0, 64, 78
1, 158855, Control_c, 0, 64, 79
1, 158868, Note_off_c, 0, 48, 54
1, 158900, Control_c, 0, 64, 78
1, 158904, Note_on_c, 0, 51, 68
1, 158915, Control_c, 0, 64, 78
1, 158939, Note_off_c, 0, 51, 66
1, 158945, Control_c, 0, 64, 77
1, 158959, Control_c, 0, 64, 77
1, 159027, Note_on_c, 0, 54, 66
1, 159063, Note_off_c, 0, 54, 63
1, 159064, Control_c, 0, 64, 76
1, 159078, Control_c, 0, 64, 73
1, 159093, Control_c, 0, 64, 65
1, 159108, Control_c, 0, 64, 0
1, 159150, Note_on_c, 0, 42, 66
1, 159182, Control_c, 0, 64, 54
1, 159196, Control_c, 0, 64, 64
1, 159206, Note_off_c, 0, 65, 58
1, 159211, Control_c, 0, 64, 67
1, 159225, Control_c, 0, 64, 69
1, 159240, Control_c, 0, 64, 72
1, 159255, Control_c, 0, 64, 75
1, 159259, Note_off_c, 0, 77, 59
1, 159270, Control_c, 0, 64, 77
1, 159273, Note_on_c, 0, 45, 56
1, 159284, Control_c, 0, 64, 77
1, 159314, Control_c, 0, 64, 78
1, 159329, Control_c, 0, 64, 79
1, 159352, Note_off_c, 0, 42, 37
1, 159366, Control_c, 0, 64, 76
1, 159381, Control_c, 0, 64, 72
1, 159396, Control_c, 0, 64, 65
1, 159404, Note_on_c, 0, 48, 48
1, 159405, Note_on_c, 0, 75, 61
1, 159410, Control_c, 0, 64, 47
1, 159425, Note_on_c, 0, 63, 45
1, 159425, Control_c, 0, 64, 51
1, 159439, Note_off_c, 0, 45, 46
1, 159440, Control_c, 0, 64, 61
1, 159455, Control_c, 0, 64, 64
1, 159470, Control_c, 0, 64, 66
1, 159484, Control_c, 0, 64, 68
1, 159499, Note_off_c, 0, 48, 62
1, 159499, Control_c, 0, 64, 70
1, 159506, Note_off_c, 0, 69, 28
1, 159514, Control_c, 0, 64, 72
1, 159525, Note_on_c, 0, 54, 53
1, 159529, Control_c, 0, 64, 74
1, 159544, Control_c, 0, 64, 76
1, 159555, Note_off_c, 0, 54, 65
1, 159559, Control_c, 0, 64, 78
1, 159573, Control_c, 0, 64, 80
1, 159576, Note_off_c, 0, 75, 53
1, 159588, Control_c, 0, 64, 83
1, 159591, Note_off_c, 0, 72, 18
1, 159603, Control_c, 0, 64, 85
1, 159618, Control_c, 0, 64, 88
1, 159633, Control_c, 0, 64, 91
1, 159648, Control_c, 0, 64, 93
1, 159663, Control_c, 0, 64, 94
1, 159678, Control_c, 0, 64, 95
1, 159683, Note_on_c, 0, 36, 47
1, 159719, Note_off_c, 0, 36, 49
1, 159723, Note_off_c, 0, 63, 55
1, 159812, Control_c, 0, 64, 92
1, 159826, Control_c, 0, 64, 85
1, 159841, Control_c, 0, 64, 74
1, 159856, Control_c, 0, 64, 55
1, 159869, Note_on_c, 0, 73, 61
1, 159871, Control_c, 0, 64, 0
1, 159881, Note_on_c, 0, 37, 47
1, 159886, Note_on_c, 0, 71, 47
1, 159889, Note_on_c, 0, 61, 39
1, 159915, Control_c, 0, 64, 29
1, 159930, Control_c, 0, 64, 58
1, 159945, Control_c, 0, 64, 65
1, 159960, Control_c, 0, 64, 69
1, 159967, Note_off_c, 0, 61, 55
1, 159974, Control_c, 0, 64, 73
1, 159982, Poly_aftertouch_c, 0, 68, 0
1, 159989, Control_c, 0, 64, 76
1, 159991, Note_off_c, 0, 71, 62
1, 160004, Control_c, 0, 64, 79
1, 160011, Note_off_c, 0, 73, 62
1, 160018, Control_c, 0, 64, 83
1, 160033, Control_c, 0, 64, 86
1, 160048, Control_c, 0, 64, 88
1, 160063, Control_c, 0, 64, 90
1, 160078, Control_c, 0, 64, 93
1, 160087, Note_on_c, 0, 41, 53
1, 160100, Control_c, 0, 64, 97
1, 160115, Control_c, 0, 64, 102
1, 160130, Control_c, 0, 64, 107
1, 160145, Control_c, 0, 64, 111
1, 160159, Control_c, 0, 64, 118
1, 160174, Control_c, 0, 64, 127
1, 160246, Note_on_c, 0, 83, 86
1, 160252, Note_on_c, 0, 77, 62
1, 160253, Note_on_c, 0, 73, 51
1, 160263, Note_on_c, 0, 44, 57
1, 160263, Note_on_c, 0, 71, 57
1, 160314, Note_off_c, 0, 73, 0
1, 160314, Note_on_c, 0, 73, 15
1, 160368, Note_on_c, 0, 49, 72
1, 160369, Note_off_c, 0, 37, 41
1, 160369, Note_off_c, 0, 41, 39
1, 160372, Note_off_c, 0, 44, 63
1, 160400, Note_off_c, 0, 49, 65
1, 160446, Note_off_c, 0, 83, 62
1, 160452, Note_off_c, 0, 71, 63
1, 160491, Note_on_c, 0, 49, 68
1, 160539, Note_off_c, 0, 73, 51
1, 160550, Note_off_c, 0, 77, 57
1, 160600, Note_on_c, 0, 82, 96
1, 160610, Note_on_c, 0, 77, 64
1, 160614, Note_on_c, 0, 70, 72
1, 160625, Note_on_c, 0, 73, 66
1, 160631, Note_on_c, 0, 56, 66
1, 160644, Note_off_c, 0, 49, 53
1, 160724, Note_on_c, 0, 59, 79
1, 160776, Note_off_c, 0, 82, 58
1, 160817, Note_off_c, 0, 56, 55
1, 160835, Note_off_c, 0, 70, 59
1, 160856, Note_on_c, 0, 61, 84
1, 160860, Note_off_c, 0, 59, 60
1, 160890, Note_off_c, 0, 77, 53
1, 160919, Note_off_c, 0, 61, 63
1, 160960, Note_on_c, 0, 49, 72
1, 160975, Note_on_c, 0, 80, 92
1, 160985, Note_off_c, 0, 49, 66
1, 160987, Note_on_c, 0, 68, 75
1, 160991, Note_off_c, 0, 73, 62
1, 161046, Note_off_c, 0, 68, 60
1, 161068, Note_off_c, 0, 80, 61
1, 161117, Control_c, 0, 64, 110
1, 161131, Control_c, 0, 64, 81
1, 161134, Note_on_c, 0, 80, 80
1, 161146, Note_on_c, 0, 37, 43
1, 161146, Control_c, 0, 64, 29
1, 161147, Note_on_c, 0, 75, 56
1, 161155, Note_on_c, 0, 68, 57
1, 161161, Control_c, 0, 64, 0
1, 161164, Note_on_c, 0, 72, 41
1, 161205, Control_c, 0, 64, 55
1, 161220, Control_c, 0, 64, 64
1, 161235, Control_c, 0, 64, 66
1, 161249, Control_c, 0, 64, 68
1, 161264, Control_c, 0, 64, 71
1, 161278, Note_on_c, 0, 42, 59
1, 161280, Control_c, 0, 64, 75
1, 161295, Control_c, 0, 64, 79
1, 161310, Control_c, 0, 64, 81
1, 161325, Control_c, 0, 64, 80
1, 161332, Note_off_c, 0, 37, 44
1, 161340, Control_c, 0, 64, 77
1, 161354, Control_c, 0, 64, 70
1, 161369, Control_c, 0, 64, 57
1, 161384, Control_c, 0, 64, 50
1, 161391, Note_on_c, 0, 45, 62
1, 161398, Control_c, 0, 64, 60
1, 161413, Control_c, 0, 64, 63
1, 161428, Note_off_c, 0, 42, 51
1, 161428, Control_c, 0, 64, 65
1, 161443, Control_c, 0, 64, 68
1, 161458, Control_c, 0, 64, 72
1, 161472, Control_c, 0, 64, 75
1, 161487, Note_off_c, 0, 45, 63
1, 161502, Control_c, 0, 64, 72
1, 161517, Control_c, 0, 64, 68
1, 161523, Note_on_c, 0, 48, 56
1, 161532, Control_c, 0, 64, 64
1, 161547, Control_c, 0, 64, 64
1, 161562, Control_c, 0, 64, 66
1, 161577, Control_c, 0, 64, 67
1, 161592, Control_c, 0, 64, 68
1, 161596, Note_off_c, 0, 48, 60
1, 161613, Control_c, 0, 64, 71
1, 161628, Control_c, 0, 64, 70
1, 161643, Control_c, 0, 64, 67
1, 161649, Note_on_c, 0, 51, 56
1, 161658, Control_c, 0, 64, 64
1, 161673, Control_c, 0, 64, 63
1, 161687, Control_c, 0, 64, 65
1, 161702, Control_c, 0, 64, 67
1, 161717, Control_c, 0, 64, 70
1, 161732, Control_c, 0, 64, 73
1, 161747, Control_c, 0, 64, 76
1, 161761, Control_c, 0, 64, 78
1, 161771, Note_on_c, 0, 54, 56
1, 161772, Note_off_c, 0, 68, 55
1, 161776, Note_off_c, 0, 80, 59
1, 161791, Control_c, 0, 64, 75
1, 161806, Control_c, 0, 64, 71
1, 161821, Control_c, 0, 64, 67
1, 161822, Note_off_c, 0, 51, 34
1, 161836, Control_c, 0, 64, 68
1, 161851, Control_c, 0, 64, 69
1, 161866, Control_c, 0, 64, 70
1, 161880, Control_c, 0, 64, 71
1, 161895, Control_c, 0, 64, 72
1, 161910, Control_c, 0, 64, 73
1, 161911, Note_off_c, 0, 54, 52
1, 161914, Note_on_c, 0, 57, 45
1, 161925, Control_c, 0, 64, 74
1, 161927, Note_on_c, 0, 78, 61
1, 161928, Note_off_c, 0, 72, 55
1, 161940, Control_c, 0, 64, 76
1, 161944, Note_on_c, 0, 66, 48
1, 161954, Control_c, 0, 64, 78
1, 161969, Control_c, 0, 64, 79
1, 161974, Note_off_c, 0, 57, 57
1, 161984, Control_c, 0, 64, 80
1, 161998, Control_c, 0, 64, 82
1, 162013, Control_c, 0, 64, 85
1, 162028, Control_c, 0, 64, 88
1, 162043, Control_c, 0, 64, 92
1, 162049, Note_on_c, 0, 60, 46
1, 162058, Control_c, 0, 64, 96
1, 162074, Control_c, 0, 64, 100
1, 162089, Control_c, 0, 64, 104
1, 162103, Control_c, 0, 64, 108
1, 162118, Control_c, 0, 64, 112
1, 162121, Note_off_c, 0, 60, 57
1, 162133, Control_c, 0, 64, 116
1, 162148, Control_c, 0, 64, 119
1, 162162, Note_off_c, 0, 66, 57
1, 162163, Control_c, 0, 64, 122
1, 162170, Note_on_c, 0, 48, 50
1, 162177, Control_c, 0, 64, 126
1, 162178, Note_off_c, 0, 78, 37
1, 162185, Note_off_c, 0, 75, 12
1, 162192, Control_c, 0, 64, 127
1, 162201, Note_off_c, 0, 48, 59
1, 162310, Control_c, 0, 64, 110
1, 162325, Control_c, 0, 64, 94
1, 162340, Control_c, 0, 64, 76
1, 162363, Control_c, 0, 64, 49
1, 162368, Note_on_c, 0, 77, 66
1, 162377, Control_c, 0, 64, 0
1, 162381, Note_on_c, 0, 37, 46
1, 162384, Note_on_c, 0, 73, 50
1, 162384, Note_on_c, 0, 65, 46
1, 162392, Control_c, 0, 64, 34
1, 162407, Control_c, 0, 64, 55
1, 162422, Control_c, 0, 64, 63
1, 162436, Control_c, 0, 64, 67
1, 162451, Control_c, 0, 64, 72
1, 162456, Note_off_c, 0, 65, 63
1, 162461, Poly_aftertouch_c, 0, 71, 127
1, 162466, Control_c, 0, 64, 76
1, 162481, Control_c, 0, 64, 81
1, 162486, Note_off_c, 0, 77, 59
1, 162491, Poly_aftertouch_c, 0, 71, 0
1, 162492, Note_off_c, 0, 73, 62
1, 162496, Control_c, 0, 64, 84
1, 162510, Control_c, 0, 64, 87
1, 162525, Control_c, 0, 64, 91
1, 162540, Control_c, 0, 64, 95
1, 162554, Control_c, 0, 64, 98
1, 162569, Control_c, 0, 64, 101
1, 162573, Note_on_c, 0, 44, 58
1, 162584, Control_c, 0, 64, 104
1, 162591, Note_off_c, 0, 37, 42
1, 162599, Control_c, 0, 64, 109
1, 162614, Control_c, 0, 64, 116
1, 162629, Control_c, 0, 64, 127
1, 162719, Note_on_c, 0, 87, 87
1, 162733, Note_on_c, 0, 75, 60
1, 162736, Note_on_c, 0, 47, 57
1, 162745, Note_on_c, 0, 80, 48
1, 162747, Note_on_c, 0, 83, 44
1, 162754, Note_on_c, 0, 84, 49
1, 162773, Note_off_c, 0, 44, 37
1, 162801, Note_off_c, 0, 75, 58
1, 162802, Note_off_c, 0, 84, 46
1, 162802, Note_off_c, 0, 47, 61
1, 162832, Note_off_c, 0, 80, 51
1, 162841, Note_off_c, 0, 83, 36
1, 162841, Note_on_c, 0, 49, 78
1, 162867, Note_off_c, 0, 49, 66
1, 162939, Note_off_c, 0, 87, 52
1, 162952, Note_on_c, 0, 49, 69
1, 163080, Note_on_c, 0, 86, 92
1, 163082, Note_on_c, 0, 56, 83
1, 163082, Note_on_c, 0, 83, 82
1, 163085, Note_on_c, 0, 74, 85
1, 163109, Note_off_c, 0, 49, 58
1, 163114, Note_on_c, 0, 80, 55
1, 163196, Note_on_c, 0, 59, 82
1, 163209, Note_off_c, 0, 74, 61
1, 163229, Note_off_c, 0, 80, 56
1, 163264, Note_off_c, 0, 86, 52
1, 163267, Note_off_c, 0, 83, 43
1, 163294, Note_off_c, 0, 59, 49
1, 163310, Note_on_c, 0, 61, 91
1, 163320, Note_off_c, 0, 56, 0
1, 163358, Poly_aftertouch_c, 0, 56, 127
1, 163362, Note_off_c, 0, 61, 66
1, 163395, Poly_aftertouch_c, 0, 56, 0
1, 163413, Note_on_c, 0, 49, 76
1, 163417, Note_on_c, 0, 85, 100
1, 163423, Note_on_c, 0, 73, 88
1, 163439, Note_off_c, 0, 49, 65
1, 163502, Note_off_c, 0, 73, 60
1, 163526, Control_c, 0, 64, 74
1, 163533, Note_on_c, 0, 37, 84
1, 163541, Control_c, 0, 64, 0
1, 163556, Control_c, 0, 64, 40
1, 163570, Control_c, 0, 64, 64
1, 163577, Note_off_c, 0, 85, 61
1, 163585, Control_c, 0, 64, 71
1, 163600, Control_c, 0, 64, 80
1, 163615, Control_c, 0, 64, 99
1, 163630, Control_c, 0, 64, 127
1, 163642, Note_on_c, 0, 44, 89
1, 163681, Note_off_c, 0, 37, 59
1, 163759, Note_on_c, 0, 47, 85
1, 163766, Note_on_c, 0, 92, 101
1, 163768, Note_on_c, 0, 80, 96
1, 163812, Note_off_c, 0, 44, 57
1, 163815, Note_off_c, 0, 80, 60
1, 163834, Note_off_c, 0, 92, 68
1, 163856, Note_off_c, 0, 47, 58
1, 163876, Note_on_c, 0, 49, 96
1, 163914, Note_off_c, 0, 49, 64
1, 163994, Note_on_c, 0, 49, 96
1, 164110, Note_on_c, 0, 91, 106
1, 164110, Note_on_c, 0, 56, 90
1, 164114, Note_on_c, 0, 79, 100
1, 164114, Note_on_c, 0, 85, 95
1, 164122, Note_on_c, 0, 83, 59
1, 164149, Note_off_c, 0, 83, 67
1, 164152, Note_off_c, 0, 49, 60
1, 164167, Note_off_c, 0, 79, 62
1, 164174, Note_off_c, 0, 91, 68
1, 164206, Note_off_c, 0, 85, 61
1, 164223, Note_on_c, 0, 59, 94
1, 164319, Note_off_c, 0, 56, 58
1, 164329, Note_on_c, 0, 61, 98
1, 164340, Note_off_c, 0, 59, 62
1, 164406, Note_off_c, 0, 61, 67
1, 164438, Note_on_c, 0, 49, 88
1, 164462, Note_off_c, 0, 49, 69
1, 164462, Note_on_c, 0, 78, 99
1, 164465, Note_on_c, 0, 85, 76
1, 164466, Note_on_c, 0, 90, 103
1, 164483, Note_on_c, 0, 83, 40
1, 164511, Note_off_c, 0, 83, 56
1, 164528, Note_off_c, 0, 78, 65
1, 164552, Note_off_c, 0, 90, 66
1, 164620, Note_off_c, 0, 85, 61
1, 164623, Control_c, 0, 64, 94
1, 164638, Control_c, 0, 64, 32
1, 164644, Note_on_c, 0, 77, 105
1, 164645, Note_on_c, 0, 89, 108
1, 164648, Note_on_c, 0, 37, 87
1, 164653, Control_c, 0, 64, 0
1, 164683, Control_c, 0, 64, 38
1, 164688, Note_off_c, 0, 77, 65
1, 164698, Control_c, 0, 64, 68
1, 164713, Note_off_c, 0, 89, 63
1, 164713, Control_c, 0, 64, 81
1, 164727, Control_c, 0, 64, 100
1, 164742, Control_c, 0, 64, 127
1, 164787, Note_on_c, 0, 44, 91
1, 164831, Note_off_c, 0, 37, 60
1, 164913, Note_on_c, 0, 47, 87
1, 164922, Note_on_c, 0, 89, 89
1, 164925, Note_on_c, 0, 83, 103
1, 164925, Note_on_c, 0, 95, 104
1, 164930, Note_on_c, 0, 85, 84
1, 164942, Note_on_c, 0, 92, 65
1, 164973, Note_off_c, 0, 44, 59
1, 165001, Note_off_c, 0, 47, 66
1, 165020, Note_off_c, 0, 92, 58
1, 165035, Note_on_c, 0, 49, 100
1, 165070, Note_off_c, 0, 49, 68
1, 165093, Note_off_c, 0, 95, 61
1, 165155, Note_off_c, 0, 83, 61
1, 165163, Note_on_c, 0, 49, 93
1, 165166, Note_off_c, 0, 85, 62
1, 165190, Note_off_c, 0, 89, 57
1, 165301, Note_on_c, 0, 56, 92
1, 165306, Note_on_c, 0, 94, 103
1, 165309, Note_on_c, 0, 82, 112
1, 165312, Note_on_c, 0, 85, 96
1, 165314, Note_on_c, 0, 89, 87
1, 165317, Note_off_c, 0, 49, 61
1, 165342, Note_on_c, 0, 92, 59
1, 165378, Note_off_c, 0, 92, 64
1, 165403, Note_off_c, 0, 82, 60
1, 165407, Note_off_c, 0, 94, 65
1, 165443, Note_on_c, 0, 58, 93
1, 165482, Note_off_c, 0, 85, 49
1, 165517, Note_on_c, 0, 59, 64
1, 165585, Note_on_c, 0, 61, 101
1, 165585, Note_off_c, 0, 89, 25
1, 165607, Note_off_c, 0, 58, 34
1, 165616, Note_off_c, 0, 59, 58
1, 165628, Poly_aftertouch_c, 0, 53, 127
1, 165674, Note_off_c, 0, 61, 63
1, 165675, Poly_aftertouch_c, 0, 53, 0
1, 165693, Note_off_c, 0, 56, 0
1, 165720, Note_on_c, 0, 80, 97
1, 165720, Note_on_c, 0, 92, 102
1, 165723, Note_on_c, 0, 49, 91
1, 165726, Note_on_c, 0, 89, 84
1, 165730, Poly_aftertouch_c, 0, 56, 127
1, 165751, Note_off_c, 0, 80, 60
1, 165754, Note_on_c, 0, 86, 42
1, 165771, Note_off_c, 0, 89, 65
1, 165779, Poly_aftertouch_c, 0, 56, 0
1, 165780, Note_off_c, 0, 86, 59
1, 165786, Note_off_c, 0, 92, 64
1, 165790, Note_off_c, 0, 49, 61
1, 165830, Note_on_c, 0, 49, 66
1, 165854, Note_on_c, 0, 56, 79
1, 165900, Note_off_c, 0, 49, 63
1, 165915, Note_on_c, 0, 59, 65
1, 165923, Note_on_c, 0, 97, 29
1, 165947, Poly_aftertouch_c, 0, 85, 127
1, 165951, Control_c, 0, 64, 88
1, 165962, Note_off_c, 0, 97, 55
1, 165965, Control_c, 0, 64, 42
1, 165974, Poly_aftertouch_c, 0, 85, 0
1, 165980, Control_c, 0, 64, 0
1, 166012, Note_on_c, 0, 97, 110
1, 166015, Note_on_c, 0, 65, 95
1, 166018, Note_on_c, 0, 85, 104
1, 166025, Control_c, 0, 64, 70
1, 166039, Control_c, 0, 64, 85
1, 166045, Note_off_c, 0, 56, 63
1, 166048, Note_off_c, 0, 59, 62
1, 166054, Note_off_c, 0, 65, 63
1, 166054, Control_c, 0, 64, 104
1, 166070, Control_c, 0, 64, 127
1, 166142, Note_off_c, 0, 85, 60
1, 166169, Note_off_c, 0, 97, 61
1, 166323, Note_on_c, 0, 96, 106
1, 166327, Note_on_c, 0, 84, 99
1, 166345, Note_off_c, 0, 84, 67
1, 166355, Note_off_c, 0, 96, 71
1, 166519, Note_on_c, 0, 83, 98
1, 166525, Note_on_c, 0, 95, 107
1, 166537, Control_c, 0, 64, 96
1, 166552, Control_c, 0, 64, 78
1, 166567, Control_c, 0, 64, 74
1, 166582, Control_c, 0, 64, 79
1, 166596, Control_c, 0, 64, 84
1, 166611, Control_c, 0, 64, 89
1, 166623, Note_on_c, 0, 92, 86
1, 166626, Control_c, 0, 64, 96
1, 166629, Note_on_c, 0, 80, 84
1, 166641, Control_c, 0, 64, 104
1, 166656, Control_c, 0, 64, 113
1, 166657, Note_off_c, 0, 95, 57
1, 166670, Note_off_c, 0, 83, 52
1, 166670, Control_c, 0, 64, 123
1, 166685, Control_c, 0, 64, 127
1, 166707, Note_on_c, 0, 89, 92
1, 166710, Note_on_c, 0, 77, 72
1, 166756, Note_off_c, 0, 92, 64
1, 166761, Note_off_c, 0, 80, 62
1, 166769, Note_on_c, 0, 73, 78
1, 166777, Note_on_c, 0, 85, 94
1, 166781, Note_off_c, 0, 77, 63
1, 166806, Note_off_c, 0, 73, 62
1, 166806, Note_off_c, 0, 89, 63
1, 166858, Note_on_c, 0, 83, 100
1, 166868, Note_on_c, 0, 71, 89
1, 166869, Note_off_c, 0, 85, 66
1, 166901, Note_off_c, 0, 83, 68
1, 166941, Note_on_c, 0, 80, 90
1, 166946, Note_off_c, 0, 71, 58
1, 166948, Note_on_c, 0, 68, 86
1, 166999, Note_on_c, 0, 65, 73
1, 167007, Note_on_c, 0, 77, 91
1, 167023, Note_off_c, 0, 68, 62
1, 167040, Note_off_c, 0, 80, 56
1, 167076, Note_on_c, 0, 73, 92
1, 167079, Note_off_c, 0, 77, 66
1, 167087, Note_on_c, 0, 61, 77
1, 167116, Note_off_c, 0, 65, 57
1, 167118, Note_off_c, 0, 73, 63
1, 167123, Control_c, 0, 64, 112
1, 167138, Control_c, 0, 64, 71
1, 167152, Control_c, 0, 64, 0
1, 167159, Note_on_c, 0, 73, 102
1, 167160, Note_on_c, 0, 85, 102
1, 167162, Note_off_c, 0, 61, 61
1, 167167, Control_c, 0, 64, 61
1, 167182, Control_c, 0, 64, 70
1, 167197, Control_c, 0, 64, 75
1, 167201, Note_off_c, 0, 85, 67
1, 167212, Note_off_c, 0, 73, 67
1, 167212, Control_c, 0, 64, 81
1, 167226, Control_c, 0, 64, 95
1, 167241, Control_c, 0, 64, 110
1, 167256, Control_c, 0, 64, 127
1, 167300, Control_c, 0, 64, 104
1, 167315, Control_c, 0, 64, 81
1, 167330, Control_c, 0, 64, 64
1, 167345, Control_c, 0, 64, 69
1, 167351, Note_on_c, 0, 72, 94
1, 167354, Note_on_c, 0, 84, 97
1, 167360, Control_c, 0, 64, 78
1, 167375, Control_c, 0, 64, 86
1, 167389, Note_off_c, 0, 84, 68
1, 167389, Control_c, 0, 64, 93
1, 167396, Note_off_c, 0, 72, 58
1, 167404, Control_c, 0, 64, 100
1, 167419, Control_c, 0, 64, 117
1, 167434, Control_c, 0, 64, 127
1, 167508, Control_c, 0, 64, 98
1, 167523, Control_c, 0, 64, 68
1, 167533, Note_on_c, 0, 71, 99
1, 167537, Control_c, 0, 64, 0
1, 167538, Note_on_c, 0, 83, 98
1, 167567, Control_c, 0, 64, 19
1, 167589, Control_c, 0, 64, 59
1, 167604, Control_c, 0, 64, 66
1, 167619, Control_c, 0, 64, 72
1, 167634, Control_c, 0, 64, 79
1, 167646, Note_on_c, 0, 80, 81
1, 167649, Control_c, 0, 64, 86
1, 167650, Note_on_c, 0, 68, 80
1, 167664, Control_c, 0, 64, 93
1, 167679, Control_c, 0, 64, 97
1, 167680, Note_off_c, 0, 71, 61
1, 167685, Note_off_c, 0, 83, 55
1, 167694, Control_c, 0, 64, 102
1, 167709, Control_c, 0, 64, 108
1, 167723, Control_c, 0, 64, 114
1, 167730, Note_on_c, 0, 77, 84
1, 167732, Note_on_c, 0, 65, 69
1, 167738, Control_c, 0, 64, 119
1, 167753, Control_c, 0, 64, 122
1, 167768, Control_c, 0, 64, 127
1, 167790, Note_off_c, 0, 80, 61
1, 167792, Note_on_c, 0, 61, 79
1, 167795, Note_off_c, 0, 68, 60
1, 167801, Note_on_c, 0, 73, 95
1, 167804, Note_off_c, 0, 65, 63
1, 167832, Note_off_c, 0, 77, 63
1, 167833, Note_off_c, 0, 61, 61
1, 167870, Note_on_c, 0, 71, 99
1, 167885, Note_off_c, 0, 73, 63
1, 167887, Control_c, 0, 64, 114
1, 167887, Note_on_c, 0, 59, 86
1, 167902, Control_c, 0, 64, 106
1, 167914, Note_off_c, 0, 71, 67
1, 167916, Control_c, 0, 64, 105
1, 167954, Note_on_c, 0, 68, 86
1, 167963, Note_on_c, 0, 56, 87
1, 167971, Note_off_c, 0, 59, 57
1, 167975, Control_c, 0, 64, 106
1, 167990, Control_c, 0, 64, 107
1, 168005, Control_c, 0, 64, 110
1, 168020, Control_c, 0, 64, 111
1, 168033, Note_on_c, 0, 53, 69
1, 168035, Control_c, 0, 64, 113
1, 168041, Note_on_c, 0, 65, 88
1, 168049, Control_c, 0, 64, 115
1, 168064, Control_c, 0, 64, 121
1, 168079, Control_c, 0, 64, 127
1, 168092, Note_off_c, 0, 68, 57
1, 168096, Note_off_c, 0, 56, 58
1, 168111, Note_on_c, 0, 49, 76
1, 168114, Note_on_c, 0, 61, 91
1, 168115, Note_off_c, 0, 65, 67
1, 168124, Note_off_c, 0, 53, 66
1, 168144, Note_off_c, 0, 61, 64
1, 168151, Note_off_c, 0, 49, 62
1, 168167, Control_c, 0, 64, 100
1, 168182, Control_c, 0, 64, 73
1, 168197, Control_c, 0, 64, 63
1, 168200, Note_on_c, 0, 47, 81
1, 168209, Note_on_c, 0, 59, 91
1, 168212, Control_c, 0, 64, 68
1, 168227, Control_c, 0, 64, 74
1, 168242, Control_c, 0, 64, 81
1, 168257, Control_c, 0, 64, 88
1, 168272, Control_c, 0, 64, 98
1, 168284, Note_on_c, 0, 44, 82
1, 168286, Control_c, 0, 64, 105
1, 168287, Note_off_c, 0, 47, 60
1, 168296, Note_on_c, 0, 56, 84
1, 168301, Control_c, 0, 64, 107
1, 168316, Control_c, 0, 64, 108
1, 168322, Note_off_c, 0, 59, 61
1, 168338, Control_c, 0, 64, 109
1, 168353, Control_c, 0, 64, 111
1, 168361, Note_on_c, 0, 41, 78
1, 168367, Control_c, 0, 64, 117
1, 168375, Note_off_c, 0, 44, 64
1, 168382, Note_on_c, 0, 53, 80
1, 168382, Control_c, 0, 64, 124
1, 168397, Control_c, 0, 64, 127
1, 168404, Note_off_c, 0, 56, 63
1, 168412, Note_off_c, 0, 41, 63
1, 168451, Note_off_c, 0, 53, 63
1, 168459, Note_on_c, 0, 49, 91
1, 168484, Note_on_c, 0, 37, 78
1, 168501, Note_off_c, 0, 49, 65
1, 168517, Control_c, 0, 64, 110
1, 168532, Control_c, 0, 64, 80
1, 168546, Control_c, 0, 64, 0
1, 168564, Note_on_c, 0, 25, 92
1, 168576, Note_on_c, 0, 53, 98
1, 168621, Control_c, 0, 64, 65
1, 168635, Control_c, 0, 64, 75
1, 168650, Control_c, 0, 64, 84
1, 168665, Control_c, 0, 64, 98
1, 168673, Note_off_c, 0, 25, 61
1, 168677, Note_off_c, 0, 37, 63
1, 168680, Control_c, 0, 64, 107
1, 168682, Note_on_c, 0, 56, 86
1, 168695, Control_c, 0, 64, 115
1, 168707, Note_off_c, 0, 53, 59
1, 168710, Control_c, 0, 64, 122
1, 168725, Control_c, 0, 64, 127
1, 168769, Note_on_c, 0, 59, 81
1, 168791, Note_off_c, 0, 56, 63
1, 168849, Note_on_c, 0, 61, 86
1, 168880, Note_off_c, 0, 59, 62
1, 168898, Note_off_c, 0, 61, 66
1, 168948, Note_on_c, 0, 65, 95
1, 169005, Control_c, 0, 64, 89
1, 169020, Control_c, 0, 64, 62
1, 169032, Note_on_c, 0, 68, 87
1, 169035, Note_off_c, 0, 65, 63
1, 169035, Control_c, 0, 64, 0
1, 169095, Note_on_c, 0, 71, 77
1, 169123, Note_on_c, 0, 49, 75
1, 169145, Note_off_c, 0, 68, 62
1, 169150, Note_on_c, 0, 73, 75
1, 169190, Note_on_c, 0, 77, 90
1, 169196, Note_off_c, 0, 71, 65
1, 169199, Note_on_c, 0, 53, 69
1, 169205, Note_on_c, 0, 56, 84
1, 169229, Note_off_c, 0, 73, 62
1, 169240, Note_off_c, 0, 49, 61
1, 169259, Note_on_c, 0, 59, 82
1, 169267, Note_off_c, 0, 77, 58
1, 169279, Note_on_c, 0, 65, 93
1, 169281, Note_on_c, 0, 61, 94
1, 169310, Control_c, 0, 64, 71
1, 169316, Note_off_c, 0, 53, 63
1, 169325, Control_c, 0, 64, 101
1, 169328, Note_off_c, 0, 59, 62
1, 169330, Note_off_c, 0, 56, 63
1, 169339, Control_c, 0, 64, 127
1, 169340, Note_off_c, 0, 61, 63
1, 169346, Note_on_c, 0, 68, 88
1, 169379, Note_off_c, 0, 65, 62
1, 169390, Poly_aftertouch_c, 0, 76, 0
1, 169404, Note_on_c, 0, 71, 69
1, 169431, Note_off_c, 0, 68, 64
1, 169436, Note_on_c, 0, 73, 89
1, 169460, Note_off_c, 0, 71, 66
1, 169475, Note_off_c, 0, 73, 66
1, 169531, Note_on_c, 0, 77, 77
1, 169542, Note_on_c, 0, 79, 77
1, 169574, Note_on_c, 0, 80, 91
1, 169592, Note_off_c, 0, 77, 61
1, 169607, Note_on_c, 0, 81, 72
1, 169618, Note_off_c, 0, 79, 33
1, 169628, Note_on_c, 0, 84, 64
1, 169631, Note_on_c, 0, 83, 81
1, 169654, Note_off_c, 0, 81, 62
1, 169655, Note_off_c, 0, 80, 59
1, 169658, Note_on_c, 0, 85, 84
1, 169673, Note_off_c, 0, 83, 66
1, 169684, Note_off_c, 0, 84, 66
1, 169693, Note_off_c, 0, 85, 63
1, 169736, Note_on_c, 0, 89, 95
1, 169789, Note_on_c, 0, 92, 95
1, 169809, Note_off_c, 0, 89, 61
1, 169846, Note_on_c, 0, 94, 83
1, 169893, Note_on_c, 0, 95, 85
1, 169897, Note_on_c, 0, 97, 87
1, 169918, Note_off_c, 0, 94, 65
1, 169926, Note_off_c, 0, 92, 64
1, 169941, Note_on_c, 0, 101, 107
1, 169949, Note_off_c, 0, 95, 67
1, 169968, Note_off_c, 0, 97, 68
1, 169976, Note_off_c, 0, 101, 68
1, 170415, Control_c, 0, 64, 123
1, 170430, Control_c, 0, 64, 96
1, 170444, Control_c, 0, 64, 78
1, 170458, Control_c, 0, 64, 44
1, 170473, Control_c, 0, 64, 0
1, 170692, Note_on_c, 0, 36, 80
1, 170694, Note_on_c, 0, 42, 50
1, 170707, Note_on_c, 0, 39, 62
1, 170711, Note_on_c, 0, 45, 91
1, 170715, Note_on_c, 0, 93, 81
1, 170716, Note_on_c, 0, 99, 97
1, 170717, Note_on_c, 0, 48, 97
1, 170717, Control_c, 0, 64, 65
1, 170718, Note_on_c, 0, 102, 106
1, 170719, Note_on_c, 0, 90, 100
1, 170728, Note_on_c, 0, 96, 73
1, 170732, Control_c, 0, 64, 127
1, 170746, Note_on_c, 0, 97, 59
1, 170753, Note_on_c, 0, 94, 36
1, 170754, Note_off_c, 0, 94, 127
1, 170758, Note_off_c, 0, 90, 67
1, 170766, Note_off_c, 0, 36, 61
1, 170772, Note_off_c, 0, 97, 57
1, 170774, Note_off_c, 0, 93, 66
1, 170776, Note_off_c, 0, 48, 65
1, 170782, Note_off_c, 0, 96, 67
1, 170782, Note_off_c, 0, 102, 67
1, 170788, Note_off_c, 0, 39, 61
1, 170788, Note_off_c, 0, 45, 66
1, 170793, Poly_aftertouch_c, 0, 38, 127
1, 170794, Note_off_c, 0, 99, 66
1, 170797, Note_off_c, 0, 42, 64
1, 170829, Poly_aftertouch_c, 0, 38, 0
1, 171254, Note_on_c, 0, 57, 76
1, 171254, Note_on_c, 0, 69, 82
1, 171255, Note_on_c, 0, 93, 104
1, 171258, Note_on_c, 0, 81, 102
1, 171277, Note_off_c, 0, 81, 68
1, 171284, Note_off_c, 0, 57, 61
1, 171285, Note_off_c, 0, 69, 61
1, 171285, Note_off_c, 0, 93, 69
1, 171391, Note_on_c, 0, 95, 108
1, 171392, Note_on_c, 0, 83, 100
1, 171393, Note_on_c, 0, 59, 87
1, 171393, Note_on_c, 0, 71, 90
1, 171417, Note_off_c, 0, 71, 65
1, 171420, Note_off_c, 0, 83, 62
1, 171421, Note_off_c, 0, 95, 69
1, 171422, Note_off_c, 0, 59, 58
1, 171493, Note_on_c, 0, 72, 82
1, 171493, Note_on_c, 0, 96, 103
1, 171494, Note_on_c, 0, 60, 86
1, 171497, Note_on_c, 0, 84, 98
1, 171511, Note_off_c, 0, 72, 72
1, 171512, Note_off_c, 0, 84, 72
1, 171515, Note_off_c, 0, 60, 72
1, 171523, Note_off_c, 0, 96, 69
1, 171595, Note_on_c, 0, 66, 99
1, 171597, Note_on_c, 0, 54, 87
1, 171601, Note_on_c, 0, 78, 100
1, 171603, Note_on_c, 0, 90, 103
1, 171619, Note_off_c, 0, 54, 71
1, 171621, Note_off_c, 0, 66, 61
1, 171629, Note_off_c, 0, 78, 59
1, 171636, Note_off_c, 0, 90, 61
1, 171649, Note_on_c, 0, 80, 18
1, 171650, Note_off_c, 0, 80, 127
1, 171695, Poly_aftertouch_c, 0, 56, 0
1, 171707, Note_on_c, 0, 56, 62
1, 171710, Note_on_c, 0, 80, 91
1, 171711, Note_on_c, 0, 68, 98
1, 171714, Note_on_c, 0, 92, 106
1, 171732, Note_on_c, 0, 90, 74
1, 171736, Note_on_c, 0, 58, 52
1, 171747, Note_off_c, 0, 80, 66
1, 171750, Note_off_c, 0, 68, 63
1, 171750, Note_off_c, 0, 90, 46
1, 171758, Note_off_c, 0, 92, 65
1, 171760, Note_off_c, 0, 58, 61
1, 171760, Note_off_c, 0, 56, 64
1, 171867, Note_on_c, 0, 81, 102
1, 171868, Control_c, 0, 64, 84
1, 171869, Note_on_c, 0, 93, 107
1, 171874, Note_on_c, 0, 57, 96
1, 171874, Note_on_c, 0, 69, 100
1, 171883, Control_c, 0, 64, 0
1, 171906, Note_on_c, 0, 64, 62
1, 171913, Note_on_c, 0, 94, 29
1, 171928, Note_off_c, 0, 64, 63
1, 171946, Note_off_c, 0, 94, 55
1, 172276, Control_c, 0, 64, 55
1, 172290, Control_c, 0, 64, 63
1, 172305, Control_c, 0, 64, 65
1, 172320, Control_c, 0, 64, 68
1, 172334, Control_c, 0, 64, 71
1, 172349, Control_c, 0, 64, 74
1, 172364, Control_c, 0, 64, 77
1, 172379, Control_c, 0, 64, 80
1, 172394, Control_c, 0, 64, 83
1, 172408, Control_c, 0, 64, 86
1, 172423, Control_c, 0, 64, 89
1, 172438, Control_c, 0, 64, 91
1, 172453, Control_c, 0, 64, 95
1, 172469, Control_c, 0, 64, 100
1, 172484, Control_c, 0, 64, 106
1, 172499, Control_c, 0, 64, 112
1, 172513, Control_c, 0, 64, 122
1, 172528, Control_c, 0, 64, 127
1, 172582, Note_off_c, 0, 69, 55
1, 172643, Note_off_c, 0, 57, 57
1, 172652, Note_off_c, 0, 81, 56
1, 172672, Note_off_c, 0, 93, 60
1, 172828, Note_on_c, 0, 63, 90
1, 172828, Note_on_c, 0, 75, 94
1, 172837, Note_on_c, 0, 51, 78
1, 172838, Note_on_c, 0, 87, 93
1, 172863, Note_off_c, 0, 63, 61
1, 172874, Note_off_c, 0, 75, 66
1, 172877, Note_off_c, 0, 51, 63
1, 172890, Note_off_c, 0, 87, 64
1, 172963, Note_on_c, 0, 64, 89
1, 172965, Note_on_c, 0, 88, 102
1, 172966, Note_on_c, 0, 76, 94
1, 172968, Note_on_c, 0, 52, 86
1, 172997, Note_off_c, 0, 52, 67
1, 172998, Note_off_c, 0, 64, 65
1, 172998, Note_off_c, 0, 76, 65
1, 173000, Note_off_c, 0, 88, 66
1, 173091, Note_on_c, 0, 90, 102
1, 173093, Note_on_c, 0, 78, 94
1, 173096, Note_on_c, 0, 66, 77
1, 173099, Note_on_c, 0, 54, 73
1, 173108, Note_off_c, 0, 90, 69
1, 173113, Note_off_c, 0, 66, 70
1, 173123, Note_off_c, 0, 54, 68
1, 173128, Note_off_c, 0, 78, 59
1, 173174, Poly_aftertouch_c, 0, 53, 127
1, 173208, Poly_aftertouch_c, 0, 53, 0
1, 173226, Note_on_c, 0, 69, 99
1, 173227, Note_on_c, 0, 81, 106
1, 173232, Control_c, 0, 64, 108
1, 173233, Note_on_c, 0, 57, 92
1, 173234, Note_on_c, 0, 45, 95
1, 173246, Control_c, 0, 64, 69
1, 173254, Note_off_c, 0, 69, 68
1, 173257, Note_off_c, 0, 81, 69
1, 173260, Note_off_c, 0, 45, 68
1, 173262, Control_c, 0, 64, 0
1, 173263, Note_off_c, 0, 57, 64
1, 173370, Note_on_c, 0, 71, 97
1, 173371, Note_on_c, 0, 83, 103
1, 173372, Note_on_c, 0, 59, 96
1, 173374, Note_on_c, 0, 47, 92
1, 173397, Note_off_c, 0, 71, 69
1, 173400, Note_off_c, 0, 47, 69
1, 173403, Note_off_c, 0, 59, 63
1, 173406, Note_off_c, 0, 83, 65
1, 173605, Note_on_c, 0, 72, 102
1, 173605, Note_on_c, 0, 84, 103
1, 173606, Note_on_c, 0, 60, 97
1, 173609, Note_on_c, 0, 48, 89
1, 173951, Control_c, 0, 64, 35
1, 173966, Control_c, 0, 64, 49
1, 173981, Control_c, 0, 64, 58
1, 173996, Control_c, 0, 64, 62
1, 174011, Control_c, 0, 64, 64
1, 174026, Control_c, 0, 64, 65
1, 174041, Control_c, 0, 64, 66
1, 174056, Control_c, 0, 64, 68
1, 174071, Control_c, 0, 64, 70
1, 174086, Control_c, 0, 64, 71
1, 174100, Control_c, 0, 64, 73
1, 174115, Control_c, 0, 64, 76
1, 174130, Control_c, 0, 64, 80
1, 174145, Control_c, 0, 64, 85
1, 174160, Control_c, 0, 64, 89
1, 174175, Control_c, 0, 64, 93
1, 174190, Control_c, 0, 64, 96
1, 174203, Control_c, 0, 64, 100
1, 174218, Control_c, 0, 64, 102
1, 174233, Control_c, 0, 64, 103
1, 174277, Control_c, 0, 64, 103
1, 174292, Control_c, 0, 64, 104
1, 174344, Control_c, 0, 64, 105
1, 174359, Control_c, 0, 64, 107
1, 174374, Control_c, 0, 64, 109
1, 174389, Control_c, 0, 64, 111
1, 174404, Control_c, 0, 64, 116
1, 174418, Control_c, 0, 64, 127
1, 174596, Control_c, 0, 67, 8
1, 174610, Control_c, 0, 67, 10
1, 174625, Control_c, 0, 67, 12
1, 174640, Control_c, 0, 67, 14
1, 174655, Control_c, 0, 67, 16
1, 174670, Control_c, 0, 67, 19
1, 174685, Control_c, 0, 67, 22
1, 174700, Control_c, 0, 67, 24
1, 174715, Control_c, 0, 67, 25
1, 174729, Control_c, 0, 67, 26
1, 174744, Control_c, 0, 67, 27
1, 174759, Control_c, 0, 67, 29
1, 174774, Control_c, 0, 67, 30
1, 174789, Control_c, 0, 67, 30
1, 174803, Control_c, 0, 67, 31
1, 174833, Control_c, 0, 67, 32
1, 174849, Control_c, 0, 67, 32
1, 174864, Control_c, 0, 67, 33
1, 174878, Control_c, 0, 67, 33
1, 174893, Control_c, 0, 67, 34
1, 174923, Control_c, 0, 67, 34
1, 174938, Control_c, 0, 67, 36
1, 174952, Control_c, 0, 67, 37
1, 174967, Control_c, 0, 67, 38
1, 174982, Control_c, 0, 67, 39
1, 174997, Control_c, 0, 67, 40
1, 175012, Control_c, 0, 67, 41
1, 175026, Control_c, 0, 67, 42
1, 175041, Control_c, 0, 67, 43
1, 175056, Control_c, 0, 67, 45
1, 175078, Control_c, 0, 67, 46
1, 175093, Control_c, 0, 67, 47
1, 175108, Control_c, 0, 67, 49
1, 175123, Control_c, 0, 67, 50
1, 175138, Control_c, 0, 67, 51
1, 175153, Control_c, 0, 67, 52
1, 175167, Control_c, 0, 67, 53
1, 175182, Control_c, 0, 67, 55
1, 175197, Control_c, 0, 67, 57
1, 175212, Control_c, 0, 67, 58
1, 175227, Control_c, 0, 67, 59
1, 175241, Control_c, 0, 67, 59
1, 175256, Control_c, 0, 67, 61
1, 175271, Control_c, 0, 67, 64
1, 175285, Control_c, 0, 67, 66
1, 175300, Control_c, 0, 67, 68
1, 175315, Control_c, 0, 67, 69
1, 175330, Control_c, 0, 67, 71
1, 175345, Control_c, 0, 67, 73
1, 175359, Control_c, 0, 67, 75
1, 175374, Control_c, 0, 67, 77
1, 175389, Control_c, 0, 67, 80
1, 175404, Control_c, 0, 67, 82
1, 175419, Control_c, 0, 67, 84
1, 175433, Control_c, 0, 67, 86
1, 175448, Control_c, 0, 67, 88
1, 175463, Control_c, 0, 67, 90
1, 175478, Control_c, 0, 67, 93
1, 175493, Control_c, 0, 67, 96
1, 175507, Control_c, 0, 67, 97
1, 175522, Control_c, 0, 67, 99
1, 175537, Control_c, 0, 67, 101
1, 175541, Note_off_c, 0, 60, 54
1, 175552, Control_c, 0, 67, 104
1, 175567, Control_c, 0, 67, 107
1, 175582, Control_c, 0, 67, 109
1, 175597, Control_c, 0, 67, 111
1, 175612, Control_c, 0, 67, 113
1, 175626, Control_c, 0, 67, 115
1, 175641, Control_c, 0, 67, 116
1, 175656, Control_c, 0, 67, 118
1, 175686, Control_c, 0, 67, 118
1, 175687, Note_off_c, 0, 48, 61
1, 175698, Note_off_c, 0, 72, 53
1, 175701, Control_c, 0, 67, 119
1, 175716, Control_c, 0, 67, 120
1, 175731, Control_c, 0, 67, 120
1, 175787, Note_off_c, 0, 84, 60
1, 175901, Control_c, 0, 64, 119
1, 175916, Control_c, 0, 64, 115
1, 175931, Control_c, 0, 64, 112
1, 175946, Control_c, 0, 64, 109
1, 175961, Control_c, 0, 64, 106
1, 175975, Control_c, 0, 64, 105
1, 175990, Control_c, 0, 64, 103
1, 176005, Control_c, 0, 64, 102
1, 176020, Control_c, 0, 64, 101
1, 176035, Control_c, 0, 64, 100
1, 176050, Control_c, 0, 64, 99
1, 176064, Control_c, 0, 64, 97
1, 176079, Control_c, 0, 64, 97
1, 176094, Control_c, 0, 64, 96
1, 176108, Control_c, 0, 64, 95
1, 176123, Control_c, 0, 64, 94
1, 176138, Control_c, 0, 64, 93
1, 176153, Control_c, 0, 64, 92
1, 176168, Control_c, 0, 64, 90
1, 176182, Control_c, 0, 64, 88
1, 176197, Control_c, 0, 64, 86
1, 176212, Control_c, 0, 64, 84
1, 176227, Control_c, 0, 64, 83
1, 176242, Control_c, 0, 64, 81
1, 176256, Control_c, 0, 64, 80
1, 176271, Control_c, 0, 64, 78
1, 176271, Control_c, 0, 67, 120
1, 176286, Control_c, 0, 64, 76
1, 176286, Control_c, 0, 67, 119
1, 176300, Control_c, 0, 64, 74
1, 176315, Control_c, 0, 64, 73
1, 176330, Control_c, 0, 64, 72
1, 176345, Control_c, 0, 64, 71
1, 176360, Control_c, 0, 64, 70
1, 176375, Control_c, 0, 64, 69
1, 176390, Control_c, 0, 64, 68
1, 176434, Control_c, 0, 64, 68
1, 176434, Control_c, 0, 67, 119
1, 176451, Control_c, 0, 64, 67
1, 176480, Control_c, 0, 64, 67
1, 176510, Control_c, 0, 64, 66
1, 176554, Control_c, 0, 64, 66
1, 176569, Control_c, 0, 64, 65
1, 176592, Control_c, 0, 64, 60
1, 176606, Control_c, 0, 64, 0
1, 176651, Control_c, 0, 67, 118
1, 176680, Control_c, 0, 67, 118
1, 176754, Control_c, 0, 64, 24
1, 176754, Control_c, 0, 67, 117
1, 176769, Control_c, 0, 64, 33
1, 176784, Control_c, 0, 64, 42
1, 176798, Control_c, 0, 64, 50
1, 176813, Control_c, 0, 64, 56
1, 176828, Control_c, 0, 64, 61
1, 176843, Control_c, 0, 64, 63
1, 176858, Control_c, 0, 64, 63
1, 176873, Control_c, 0, 64, 64
1, 176888, Control_c, 0, 64, 65
1, 176902, Control_c, 0, 64, 65
1, 176917, Control_c, 0, 64, 66
1, 176926, Note_on_c, 0, 60, 34
1, 176932, Control_c, 0, 64, 67
1, 176947, Control_c, 0, 64, 68
1, 176962, Control_c, 0, 64, 69
1, 176977, Control_c, 0, 64, 70
1, 176977, Control_c, 0, 67, 117
1, 176992, Control_c, 0, 64, 71
1, 177006, Control_c, 0, 64, 72
1, 177021, Control_c, 0, 64, 74
1, 177036, Control_c, 0, 64, 75
1, 177050, Control_c, 0, 64, 77
1, 177065, Control_c, 0, 64, 78
1, 177080, Control_c, 0, 64, 79
1, 177095, Control_c, 0, 64, 81
1, 177110, Control_c, 0, 64, 82
1, 177124, Control_c, 0, 64, 83
1, 177139, Control_c, 0, 64, 84
1, 177154, Control_c, 0, 64, 86
1, 177169, Control_c, 0, 64, 87
1, 177184, Control_c, 0, 64, 87
1, 177198, Control_c, 0, 64, 88
1, 177213, Control_c, 0, 64, 89
1, 177228, Control_c, 0, 64, 91
1, 177243, Control_c, 0, 64, 93
1, 177243, Control_c, 0, 67, 116
1, 177259, Control_c, 0, 64, 94
1, 177274, Control_c, 0, 64, 95
1, 177289, Control_c, 0, 64, 97
1, 177303, Control_c, 0, 64, 98
1, 177318, Control_c, 0, 64, 99
1, 177341, Control_c, 0, 64, 99
1, 177355, Control_c, 0, 64, 100
1, 177370, Control_c, 0, 64, 100
1, 177400, Control_c, 0, 64, 101
1, 177430, Note_off_c, 0, 60, 40
1, 177459, Control_c, 0, 64, 101
1, 177622, Control_c, 0, 67, 116
1, 177651, Note_on_c, 0, 43, 20
1, 177653, Note_on_c, 0, 36, 14
1, 177663, Note_on_c, 0, 60, 24
1, 178050, Note_off_c, 0, 36, 36
1, 178059, Note_on_c, 0, 46, 33
1, 178060, Note_off_c, 0, 43, 38
1, 178113, Note_on_c, 0, 61, 25
1, 178131, Note_off_c, 0, 60, 36
1, 178215, Note_off_c, 0, 61, 37
1, 178276, Note_off_c, 0, 46, 42
1, 178295, Note_on_c, 0, 61, 36
1, 178300, Note_on_c, 0, 43, 35
1, 178329, Note_on_c, 0, 36, 21
1, 178479, Note_off_c, 0, 43, 39
1, 178480, Note_on_c, 0, 60, 46
1, 178485, Note_off_c, 0, 61, 37
1, 178491, Note_off_c, 0, 36, 37
1, 178495, Note_on_c, 0, 46, 40
1, 178522, Note_off_c, 0, 60, 62
1, 178577, Control_c, 0, 64, 101
1, 178592, Control_c, 0, 64, 100
1, 178599, Note_off_c, 0, 46, 35
1, 178607, Control_c, 0, 64, 98
1, 178622, Control_c, 0, 64, 94
1, 178637, Note_on_c, 0, 43, 30
1, 178637, Control_c, 0, 64, 89
1, 178637, Note_on_c, 0, 60, 34
1, 178644, Note_on_c, 0, 36, 32
1, 178651, Control_c, 0, 64, 88
1, 178725, Control_c, 0, 64, 88
1, 178725, Control_c, 0, 67, 115
1, 178740, Control_c, 0, 64, 89
1, 178755, Control_c, 0, 64, 89
1, 178769, Control_c, 0, 64, 90
1, 178769, Control_c, 0, 67, 115
1, 178779, Note_off_c, 0, 60, 39
1, 178780, Note_on_c, 0, 64, 53
1, 178784, Control_c, 0, 64, 90
1, 178789, Note_off_c, 0, 43, 40
1, 178795, Note_on_c, 0, 46, 37
1, 178799, Control_c, 0, 67, 114
1, 178802, Note_off_c, 0, 36, 37
1, 178827, Note_off_c, 0, 64, 61
1, 178898, Note_off_c, 0, 46, 36
1, 178912, Control_c, 0, 67, 114
1, 178931, Note_on_c, 0, 64, 53
1, 178940, Note_on_c, 0, 43, 25
1, 178966, Note_on_c, 0, 36, 30
1, 179022, Note_off_c, 0, 36, 42
1, 179058, Note_on_c, 0, 46, 42
1, 179058, Note_off_c, 0, 64, 33
1, 179061, Note_off_c, 0, 43, 35
1, 179066, Note_on_c, 0, 60, 45
1, 179112, Note_off_c, 0, 60, 58
1, 179163, Control_c, 0, 64, 88
1, 179178, Control_c, 0, 64, 86
1, 179193, Control_c, 0, 64, 80
1, 179198, Note_off_c, 0, 46, 43
1, 179207, Control_c, 0, 64, 73
1, 179212, Note_on_c, 0, 43, 29
1, 179222, Control_c, 0, 64, 71
1, 179225, Note_on_c, 0, 60, 44
1, 179231, Note_on_c, 0, 36, 21
1, 179237, Control_c, 0, 64, 72
1, 179252, Control_c, 0, 64, 73
1, 179267, Control_c, 0, 64, 74
1, 179281, Control_c, 0, 64, 75
1, 179296, Control_c, 0, 64, 77
1, 179311, Control_c, 0, 64, 78
1, 179326, Control_c, 0, 64, 79
1, 179326, Control_c, 0, 67, 113
1, 179341, Note_on_c, 0, 46, 32
1, 179341, Control_c, 0, 64, 81
1, 179341, Control_c, 0, 67, 113
1, 179356, Control_c, 0, 64, 82
1, 179356, Note_off_c, 0, 43, 38
1, 179357, Note_off_c, 0, 36, 36
1, 179365, Note_on_c, 0, 67, 48
1, 179371, Control_c, 0, 64, 83
1, 179386, Control_c, 0, 64, 84
1, 179386, Control_c, 0, 67, 112
1, 179396, Note_off_c, 0, 60, 36
1, 179400, Control_c, 0, 64, 86
1, 179408, Note_off_c, 0, 67, 59
1, 179415, Control_c, 0, 64, 87
1, 179415, Control_c, 0, 67, 111
1, 179430, Control_c, 0, 64, 88
1, 179444, Control_c, 0, 64, 88
1, 179444, Control_c, 0, 67, 111
1, 179459, Control_c, 0, 64, 89
1, 179474, Control_c, 0, 67, 110
1, 179489, Control_c, 0, 67, 110
1, 179494, Note_off_c, 0, 46, 36
1, 179504, Control_c, 0, 64, 90
1, 179504, Control_c, 0, 67, 109
1, 179505, Note_on_c, 0, 43, 33
1, 179509, Note_on_c, 0, 36, 26
1, 179514, Note_on_c, 0, 67, 53
1, 179518, Control_c, 0, 67, 109
1, 179548, Control_c, 0, 67, 108
1, 179585, Control_c, 0, 67, 107
1, 179600, Control_c, 0, 67, 107
1, 179604, Note_off_c, 0, 43, 50
1, 179609, Note_off_c, 0, 67, 38
1, 179615, Note_on_c, 0, 46, 45
1, 179615, Control_c, 0, 67, 105
1, 179627, Note_on_c, 0, 60, 54
1, 179630, Control_c, 0, 67, 102
1, 179636, Note_off_c, 0, 36, 33
1, 179645, Control_c, 0, 67, 101
1, 179660, Control_c, 0, 67, 100
1, 179671, Note_off_c, 0, 60, 60
1, 179705, Control_c, 0, 64, 89
1, 179719, Control_c, 0, 64, 85
1, 179734, Control_c, 0, 64, 82
1, 179749, Control_c, 0, 64, 81
1, 179761, Note_on_c, 0, 60, 58
1, 179766, Note_on_c, 0, 43, 35
1, 179767, Note_off_c, 0, 46, 33
1, 179783, Note_on_c, 0, 36, 33
1, 179794, Control_c, 0, 64, 82
1, 179794, Control_c, 0, 67, 99
1, 179809, Control_c, 0, 64, 83
1, 179809, Control_c, 0, 67, 99
1, 179823, Control_c, 0, 64, 86
1, 179838, Control_c, 0, 64, 88
1, 179838, Control_c, 0, 67, 98
1, 179853, Control_c, 0, 64, 89
1, 179853, Control_c, 0, 67, 98
1, 179859, Note_off_c, 0, 60, 55
1, 179868, Control_c, 0, 64, 91
1, 179868, Control_c, 0, 67, 96
1, 179879, Note_on_c, 0, 46, 45
1, 179882, Control_c, 0, 64, 91
1, 179882, Control_c, 0, 67, 95
1, 179890, Note_on_c, 0, 73, 74
1, 179897, Control_c, 0, 64, 92
1, 179897, Control_c, 0, 67, 94
1, 179898, Note_off_c, 0, 36, 32
1, 179907, Note_off_c, 0, 43, 35
1, 179912, Control_c, 0, 64, 93
1, 179912, Control_c, 0, 67, 92
1, 179927, Control_c, 0, 64, 93
1, 179927, Control_c, 0, 67, 90
1, 179937, Note_off_c, 0, 73, 55
1, 179942, Control_c, 0, 64, 94
1, 179942, Control_c, 0, 67, 87
1, 179956, Control_c, 0, 67, 84
1, 179971, Control_c, 0, 67, 81
1, 179986, Control_c, 0, 67, 76
1, 180001, Control_c, 0, 67, 72
1, 180016, Control_c, 0, 67, 67
1, 180029, Note_on_c, 0, 43, 44
1, 180030, Control_c, 0, 67, 63
1, 180033, Note_on_c, 0, 73, 73
1, 180041, Note_off_c, 0, 46, 35
1, 180045, Control_c, 0, 67, 58
1, 180047, Note_on_c, 0, 36, 40
1, 180060, Control_c, 0, 67, 55
1, 180074, Control_c, 0, 67, 52
1, 180089, Control_c, 0, 67, 50
1, 180104, Control_c, 0, 67, 48
1, 180119, Control_c, 0, 67, 46
1, 180134, Note_off_c, 0, 73, 59
1, 180134, Control_c, 0, 67, 45
1, 180142, Note_on_c, 0, 46, 50
1, 180149, Control_c, 0, 67, 44
1, 180155, Note_on_c, 0, 60, 69
1, 180161, Note_off_c, 0, 36, 32
1, 180164, Control_c, 0, 67, 42
1, 180177, Note_off_c, 0, 43, 36
1, 180179, Control_c, 0, 67, 41
1, 180194, Control_c, 0, 67, 40
1, 180209, Control_c, 0, 67, 39
1, 180219, Note_off_c, 0, 60, 60
1, 180223, Control_c, 0, 64, 93
1, 180223, Control_c, 0, 67, 39
1, 180238, Control_c, 0, 64, 91
1, 180238, Control_c, 0, 67, 38
1, 180253, Control_c, 0, 64, 84
1, 180268, Control_c, 0, 64, 75
1, 180268, Control_c, 0, 67, 38
1, 180276, Note_off_c, 0, 46, 55
1, 180283, Control_c, 0, 64, 70
1, 180298, Control_c, 0, 64, 70
1, 180298, Control_c, 0, 67, 37
1, 180298, Note_on_c, 0, 43, 44
1, 180312, Note_on_c, 0, 60, 67
1, 180313, Control_c, 0, 64, 72
1, 180313, Control_c, 0, 67, 37
1, 180327, Note_on_c, 0, 36, 38
1, 180335, Control_c, 0, 64, 73
1, 180335, Control_c, 0, 67, 36
1, 180349, Control_c, 0, 64, 76
1, 180349, Control_c, 0, 67, 35
1, 180364, Control_c, 0, 64, 79
1, 180364, Control_c, 0, 67, 34
1, 180379, Control_c, 0, 64, 83
1, 180379, Control_c, 0, 67, 32
1, 180394, Control_c, 0, 64, 86
1, 180394, Control_c, 0, 67, 31
1, 180409, Control_c, 0, 64, 88
1, 180409, Control_c, 0, 67, 30
1, 180423, Control_c, 0, 64, 90
1, 180423, Control_c, 0, 67, 28
1, 180438, Note_off_c, 0, 60, 56
1, 180438, Control_c, 0, 64, 92
1, 180438, Control_c, 0, 67, 27
1, 180454, Control_c, 0, 64, 94
1, 180454, Control_c, 0, 67, 25
1, 180469, Control_c, 0, 64, 95
1, 180469, Control_c, 0, 67, 23
1, 180480, Note_off_c, 0, 43, 56
1, 180484, Control_c, 0, 64, 96
1, 180484, Control_c, 0, 67, 22
1, 180492, Note_off_c, 0, 36, 39
1, 180492, Poly_aftertouch_c, 0, 38, 127
1, 180498, Control_c, 0, 64, 97
1, 180498, Control_c, 0, 67, 20
1, 180500, Note_on_c, 0, 46, 47
1, 180502, Note_on_c, 0, 76, 74
1, 180513, Control_c, 0, 64, 98
1, 180513, Control_c, 0, 67, 19
1, 180528, Control_c, 0, 64, 100
1, 180528, Control_c, 0, 67, 17
1, 180543, Control_c, 0, 64, 102
1, 180543, Control_c, 0, 67, 15
1, 180558, Control_c, 0, 67, 13
1, 180569, Note_off_c, 0, 76, 61
1, 180572, Control_c, 0, 67, 11
1, 180587, Control_c, 0, 67, 9
1, 180602, Control_c, 0, 64, 102
1, 180602, Control_c, 0, 67, 0
1, 180647, Note_on_c, 0, 36, 38
1, 180647, Note_on_c, 0, 43, 40
1, 180652, Note_on_c, 0, 76, 71
1, 180655, Note_off_c, 0, 46, 33
1, 180713, Note_off_c, 0, 36, 53
1, 180738, Note_off_c, 0, 43, 60
1, 180744, Note_off_c, 0, 76, 56
1, 180754, Note_on_c, 0, 46, 61
1, 180763, Note_on_c, 0, 70, 75
1, 180814, Note_off_c, 0, 70, 63
1, 180825, Control_c, 0, 64, 101
1, 180840, Control_c, 0, 64, 95
1, 180854, Control_c, 0, 64, 87
1, 180858, Note_off_c, 0, 46, 54
1, 180869, Control_c, 0, 64, 83
1, 180873, Note_on_c, 0, 43, 46
1, 180882, Note_on_c, 0, 37, 50
1, 180884, Control_c, 0, 64, 84
1, 180891, Note_on_c, 0, 70, 72
1, 180898, Control_c, 0, 64, 85
1, 180913, Control_c, 0, 64, 88
1, 180928, Control_c, 0, 64, 91
1, 180943, Control_c, 0, 64, 95
1, 180958, Control_c, 0, 64, 99
1, 180972, Control_c, 0, 64, 101
1, 180987, Control_c, 0, 64, 102
1, 180991, Note_off_c, 0, 43, 62
1, 180995, Note_on_c, 0, 46, 61
1, 181000, Note_off_c, 0, 70, 56
1, 181001, Note_on_c, 0, 79, 78
1, 181002, Note_off_c, 0, 37, 50
1, 181017, Control_c, 0, 64, 103
1, 181032, Control_c, 0, 64, 104
1, 181046, Control_c, 0, 64, 106
1, 181055, Note_off_c, 0, 79, 60
1, 181061, Control_c, 0, 64, 107
1, 181098, Control_c, 0, 64, 107
1, 181113, Control_c, 0, 64, 108
1, 181122, Note_off_c, 0, 46, 58
1, 181128, Control_c, 0, 64, 108
1, 181133, Note_on_c, 0, 43, 61
1, 181138, Note_on_c, 0, 79, 82
1, 181144, Note_on_c, 0, 37, 60
1, 181158, Control_c, 0, 64, 109
1, 181231, Note_off_c, 0, 79, 59
1, 181231, Control_c, 0, 64, 108
1, 181240, Note_on_c, 0, 46, 70
1, 181243, Note_on_c, 0, 70, 89
1, 181249, Note_off_c, 0, 43, 62
1, 181273, Note_off_c, 0, 37, 34
1, 181300, Note_off_c, 0, 70, 64
1, 181321, Control_c, 0, 64, 105
1, 181336, Control_c, 0, 64, 98
1, 181351, Control_c, 0, 64, 94
1, 181371, Note_on_c, 0, 43, 65
1, 181371, Note_on_c, 0, 70, 93
1, 181372, Note_off_c, 0, 46, 59
1, 181375, Note_on_c, 0, 37, 63
1, 181395, Control_c, 0, 64, 95
1, 181410, Control_c, 0, 64, 98
1, 181425, Control_c, 0, 64, 101
1, 181440, Control_c, 0, 64, 103
1, 181455, Control_c, 0, 64, 104
1, 181463, Note_off_c, 0, 70, 61
1, 181469, Control_c, 0, 64, 104
1, 181484, Control_c, 0, 64, 105
1, 181493, Note_on_c, 0, 46, 75
1, 181495, Note_on_c, 0, 85, 92
1, 181496, Note_off_c, 0, 37, 55
1, 181499, Control_c, 0, 64, 106
1, 181504, Note_off_c, 0, 43, 62
1, 181514, Control_c, 0, 64, 106
1, 181529, Control_c, 0, 64, 107
1, 181544, Control_c, 0, 64, 107
1, 181553, Note_off_c, 0, 85, 64
1, 181559, Control_c, 0, 64, 108
1, 181574, Control_c, 0, 64, 108
1, 181588, Control_c, 0, 64, 109
1, 181603, Control_c, 0, 64, 110
1, 181618, Control_c, 0, 64, 111
1, 181622, Note_on_c, 0, 43, 70
1, 181627, Note_off_c, 0, 46, 58
1, 181627, Note_on_c, 0, 85, 102
1, 181628, Note_on_c, 0, 37, 62
1, 181633, Control_c, 0, 64, 112
1, 181647, Control_c, 0, 64, 112
1, 181662, Control_c, 0, 64, 113
1, 181677, Control_c, 0, 64, 114
1, 181692, Control_c, 0, 64, 114
1, 181708, Note_off_c, 0, 85, 63
1, 181721, Control_c, 0, 64, 115
1, 181728, Note_on_c, 0, 46, 80
1, 181729, Note_on_c, 0, 70, 93
1, 181736, Note_off_c, 0, 37, 57
1, 181745, Note_off_c, 0, 43, 63
1, 181751, Control_c, 0, 64, 115
1, 181780, Note_off_c, 0, 70, 64
1, 181781, Control_c, 0, 64, 116
1, 181847, Control_c, 0, 64, 114
1, 181851, Note_on_c, 0, 73, 104
1, 181855, Note_on_c, 0, 43, 74
1, 181862, Note_off_c, 0, 46, 61
1, 181862, Control_c, 0, 64, 106
1, 181863, Note_on_c, 0, 37, 64
1, 181877, Control_c, 0, 64, 101
1, 181921, Control_c, 0, 64, 101
1, 181933, Note_off_c, 0, 73, 63
1, 181936, Control_c, 0, 64, 104
1, 181951, Control_c, 0, 64, 108
1, 181958, Note_on_c, 0, 88, 99
1, 181963, Note_on_c, 0, 46, 85
1, 181966, Control_c, 0, 64, 111
1, 181976, Note_off_c, 0, 43, 63
1, 181977, Note_off_c, 0, 37, 60
1, 181981, Control_c, 0, 64, 114
1, 181995, Control_c, 0, 64, 117
1, 182005, Note_off_c, 0, 88, 64
1, 182010, Control_c, 0, 64, 119
1, 182015, Poly_aftertouch_c, 0, 38, 0
1, 182025, Control_c, 0, 64, 121
1, 182069, Note_on_c, 0, 43, 83
1, 182070, Control_c, 0, 64, 124
1, 182072, Note_off_c, 0, 46, 62
1, 182080, Note_on_c, 0, 88, 101
1, 182085, Control_c, 0, 64, 127
1, 182089, Note_on_c, 0, 37, 65
1, 182126, Note_off_c, 0, 88, 62
1, 182170, Note_on_c, 0, 73, 97
1, 182172, Note_on_c, 0, 46, 86
1, 182179, Note_off_c, 0, 43, 63
1, 182184, Note_off_c, 0, 37, 60
1, 182211, Note_off_c, 0, 73, 64
1, 182269, Note_on_c, 0, 43, 90
1, 182272, Note_off_c, 0, 46, 62
1, 182277, Control_c, 0, 64, 117
1, 182284, Note_on_c, 0, 70, 103
1, 182285, Note_on_c, 0, 37, 73
1, 182292, Control_c, 0, 64, 91
1, 182307, Control_c, 0, 64, 74
1, 182322, Control_c, 0, 64, 69
1, 182337, Control_c, 0, 64, 77
1, 182352, Control_c, 0, 64, 84
1, 182352, Note_off_c, 0, 70, 65
1, 182366, Control_c, 0, 64, 91
1, 182381, Control_c, 0, 64, 99
1, 182384, Note_on_c, 0, 46, 89
1, 182387, Note_on_c, 0, 85, 100
1, 182396, Control_c, 0, 64, 109
1, 182397, Note_off_c, 0, 43, 63
1, 182402, Note_off_c, 0, 37, 63
1, 182411, Control_c, 0, 64, 119
1, 182426, Control_c, 0, 64, 127
1, 182433, Note_off_c, 0, 85, 65
1, 182485, Note_on_c, 0, 43, 93
1, 182488, Note_off_c, 0, 46, 63
1, 182498, Note_on_c, 0, 85, 106
1, 182501, Note_on_c, 0, 37, 72
1, 182570, Note_off_c, 0, 85, 66
1, 182587, Note_on_c, 0, 46, 90
1, 182593, Note_on_c, 0, 70, 101
1, 182598, Note_off_c, 0, 37, 60
1, 182604, Note_off_c, 0, 43, 59
1, 182638, Note_off_c, 0, 70, 65
1, 182669, Control_c, 0, 64, 114
1, 182681, Note_on_c, 0, 43, 88
1, 182683, Control_c, 0, 64, 89
1, 182693, Note_off_c, 0, 46, 62
1, 182696, Note_on_c, 0, 37, 72
1, 182698, Control_c, 0, 64, 79
1, 182702, Note_on_c, 0, 73, 108
1, 182713, Control_c, 0, 64, 81
1, 182728, Control_c, 0, 64, 90
1, 182742, Control_c, 0, 64, 100
1, 182757, Control_c, 0, 64, 111
1, 182772, Control_c, 0, 64, 127
1, 182779, Note_off_c, 0, 73, 62
1, 182783, Note_on_c, 0, 46, 87
1, 182790, Note_off_c, 0, 37, 56
1, 182799, Note_off_c, 0, 43, 62
1, 182808, Note_on_c, 0, 88, 103
1, 182837, Note_on_c, 0, 86, 47
1, 182838, Note_off_c, 0, 86, 127
1, 182849, Note_off_c, 0, 88, 66
1, 182850, Note_off_c, 0, 46, 62
1, 182867, Note_on_c, 0, 37, 64
1, 182871, Note_on_c, 0, 43, 53
1, 182896, Poly_aftertouch_c, 0, 46, 0
1, 182899, Note_off_c, 0, 37, 63
1, 182904, Note_on_c, 0, 46, 75
1, 182917, Note_off_c, 0, 43, 64
1, 182921, Note_on_c, 0, 88, 105
1, 182933, Note_off_c, 0, 46, 66
1, 182972, Note_off_c, 0, 88, 61
1, 183018, Note_on_c, 0, 73, 100
1, 183071, Note_off_c, 0, 73, 64
1, 183080, Note_on_c, 0, 49, 79
1, 183085, Control_c, 0, 64, 110
1, 183095, Note_on_c, 0, 55, 72
1, 183099, Control_c, 0, 64, 70
1, 183114, Control_c, 0, 64, 0
1, 183115, Note_on_c, 0, 58, 82
1, 183132, Note_off_c, 0, 49, 65
1, 183138, Note_on_c, 0, 73, 99
1, 183144, Note_on_c, 0, 64, 96
1, 183144, Control_c, 0, 64, 36
1, 183159, Control_c, 0, 64, 63
1, 183173, Control_c, 0, 64, 71
1, 183189, Control_c, 0, 64, 80
1, 183203, Note_off_c, 0, 55, 56
1, 183204, Control_c, 0, 64, 92
1, 183210, Note_off_c, 0, 64, 62
1, 183219, Control_c, 0, 64, 98
1, 183223, Note_off_c, 0, 58, 59
1, 183233, Control_c, 0, 64, 102
1, 183248, Control_c, 0, 64, 105
1, 183255, Note_off_c, 0, 73, 59
1, 183263, Control_c, 0, 64, 112
1, 183265, Note_on_c, 0, 85, 95
1, 183278, Control_c, 0, 64, 127
1, 183329, Note_off_c, 0, 85, 65
1, 183353, Note_on_c, 0, 49, 83
1, 183371, Note_on_c, 0, 55, 70
1, 183374, Control_c, 0, 64, 99
1, 183389, Control_c, 0, 64, 68
1, 183392, Note_on_c, 0, 58, 83
1, 183404, Control_c, 0, 64, 0
1, 183418, Note_off_c, 0, 49, 66
1, 183424, Note_on_c, 0, 85, 105
1, 183433, Control_c, 0, 64, 61
1, 183437, Note_on_c, 0, 64, 100
1, 183448, Control_c, 0, 64, 71
1, 183463, Control_c, 0, 64, 82
1, 183478, Control_c, 0, 64, 99
1, 183480, Note_off_c, 0, 55, 59
1, 183492, Control_c, 0, 64, 127
1, 183496, Note_off_c, 0, 64, 60
1, 183502, Note_off_c, 0, 58, 55
1, 183553, Note_off_c, 0, 85, 61
1, 183556, Note_on_c, 0, 97, 101
1, 183613, Note_on_c, 0, 49, 85
1, 183615, Note_off_c, 0, 97, 68
1, 183656, Note_on_c, 0, 56, 82
1, 183695, Note_off_c, 0, 49, 66
1, 183722, Note_on_c, 0, 59, 69
1, 183723, Poly_aftertouch_c, 0, 51, 127
1, 183730, Control_c, 0, 64, 90
1, 183745, Control_c, 0, 64, 55
1, 183760, Control_c, 0, 64, 0
1, 183768, Note_on_c, 0, 65, 92
1, 183769, Poly_aftertouch_c, 0, 51, 0
1, 183776, Note_on_c, 0, 86, 93
1, 183778, Note_on_c, 0, 98, 109
1, 183780, Note_on_c, 0, 95, 101
1, 183781, Note_on_c, 0, 92, 90
1, 183804, Control_c, 0, 64, 49
1, 183817, Note_off_c, 0, 86, 68
1, 183819, Control_c, 0, 64, 71
1, 183821, Note_off_c, 0, 65, 68
1, 183829, Note_off_c, 0, 56, 64
1, 183830, Note_off_c, 0, 59, 62
1, 183834, Control_c, 0, 64, 84
1, 183845, Note_off_c, 0, 92, 67
1, 183849, Note_off_c, 0, 98, 68
1, 183849, Control_c, 0, 64, 96
1, 183854, Note_off_c, 0, 95, 66
1, 183863, Control_c, 0, 64, 110
1, 183878, Control_c, 0, 64, 127
1, 184152, Control_c, 0, 64, 110
1, 184167, Control_c, 0, 64, 80
1, 184182, Control_c, 0, 64, 0
1, 184221, Note_on_c, 0, 61, 78
1, 184221, Note_on_c, 0, 73, 94
1, 184224, Note_on_c, 0, 97, 105
1, 184227, Note_on_c, 0, 85, 98
1, 184227, Control_c, 0, 64, 27
1, 184241, Control_c, 0, 64, 63
1, 184256, Control_c, 0, 64, 70
1, 184271, Control_c, 0, 64, 75
1, 184286, Control_c, 0, 64, 80
1, 184301, Note_off_c, 0, 85, 62
1, 184301, Control_c, 0, 64, 84
1, 184301, Note_off_c, 0, 73, 64
1, 184315, Control_c, 0, 64, 85
1, 184318, Note_off_c, 0, 97, 64
1, 184345, Control_c, 0, 64, 80
1, 184360, Control_c, 0, 64, 71
1, 184374, Note_off_c, 0, 61, 58
1, 184375, Control_c, 0, 64, 61
1, 184384, Note_on_c, 0, 96, 101
1, 184385, Note_on_c, 0, 84, 93
1, 184388, Note_on_c, 0, 60, 79
1, 184389, Note_on_c, 0, 72, 90
1, 184389, Control_c, 0, 64, 63
1, 184404, Control_c, 0, 64, 67
1, 184411, Note_on_c, 0, 95, 51
1, 184412, Note_off_c, 0, 95, 127
1, 184419, Control_c, 0, 64, 71
1, 184421, Note_off_c, 0, 84, 66
1, 184425, Note_off_c, 0, 72, 64
1, 184432, Note_off_c, 0, 96, 66
1, 184434, Note_off_c, 0, 60, 66
1, 184434, Control_c, 0, 64, 74
1, 184450, Control_c, 0, 64, 75
1, 184464, Control_c, 0, 64, 73
1, 184479, Control_c, 0, 64, 68
1, 184494, Control_c, 0, 64, 62
1, 184509, Control_c, 0, 64, 64
1, 184524, Control_c, 0, 64, 69
1, 184529, Note_on_c, 0, 59, 88
1, 184531, Note_on_c, 0, 95, 93
1, 184534, Note_on_c, 0, 71, 92
1, 184536, Note_on_c, 0, 83, 97
1, 184538, Control_c, 0, 64, 71
1, 184553, Control_c, 0, 64, 71
1, 184554, Note_off_c, 0, 83, 69
1, 184569, Note_off_c, 0, 59, 64
1, 184570, Note_off_c, 0, 71, 65
1, 184575, Note_off_c, 0, 95, 65
1, 184583, Control_c, 0, 64, 72
1, 184598, Control_c, 0, 64, 72
1, 184627, Control_c, 0, 64, 70
1, 184642, Control_c, 0, 64, 68
1, 184657, Control_c, 0, 64, 69
1, 184659, Note_on_c, 0, 82, 101
1, 184659, Note_on_c, 0, 94, 99
1, 184662, Note_on_c, 0, 70, 89
1, 184671, Control_c, 0, 64, 71
1, 184674, Note_on_c, 0, 58, 68
1, 184686, Control_c, 0, 64, 71
1, 184689, Note_on_c, 0, 56, 48
1, 184696, Note_off_c, 0, 82, 66
1, 184701, Note_off_c, 0, 70, 64
1, 184701, Note_off_c, 0, 94, 64
1, 184701, Control_c, 0, 64, 70
1, 184715, Control_c, 0, 64, 69
1, 184719, Note_off_c, 0, 56, 54
1, 184730, Control_c, 0, 64, 69
1, 184745, Control_c, 0, 64, 70
1, 184760, Control_c, 0, 64, 69
1, 184766, Note_off_c, 0, 58, 38
1, 184769, Note_on_c, 0, 93, 107
1, 184771, Note_on_c, 0, 81, 92
1, 184773, Note_on_c, 0, 57, 83
1, 184775, Note_on_c, 0, 69, 85
1, 184775, Control_c, 0, 64, 68
1, 184790, Control_c, 0, 64, 65
1, 184796, Note_off_c, 0, 81, 69
1, 184805, Control_c, 0, 64, 64
1, 184806, Note_off_c, 0, 69, 65
1, 184808, Note_off_c, 0, 57, 64
1, 184818, Note_off_c, 0, 93, 65
1, 184826, Control_c, 0, 64, 65
1, 184841, Control_c, 0, 64, 66
1, 184885, Control_c, 0, 64, 66
1, 184888, Note_on_c, 0, 80, 96
1, 184889, Note_on_c, 0, 92, 100
1, 184890, Note_on_c, 0, 68, 90
1, 184892, Note_on_c, 0, 56, 85
1, 184900, Control_c, 0, 64, 69
1, 184915, Control_c, 0, 64, 72
1, 184929, Note_off_c, 0, 80, 64
1, 184930, Note_off_c, 0, 68, 61
1, 184939, Note_off_c, 0, 92, 65
1, 184945, Control_c, 0, 64, 69
1, 184960, Control_c, 0, 64, 65
1, 184966, Note_off_c, 0, 56, 57
1, 184975, Control_c, 0, 64, 63
1, 184990, Control_c, 0, 64, 64
1, 184999, Note_on_c, 0, 91, 105
1, 185002, Note_on_c, 0, 55, 80
1, 185002, Note_on_c, 0, 67, 86
1, 185002, Note_on_c, 0, 79, 93
1, 185005, Control_c, 0, 64, 64
1, 185020, Note_off_c, 0, 79, 68
1, 185030, Note_off_c, 0, 67, 64
1, 185031, Note_off_c, 0, 55, 66
1, 185034, Control_c, 0, 64, 63
1, 185037, Note_off_c, 0, 91, 68
1, 185049, Control_c, 0, 64, 59
1, 185078, Control_c, 0, 64, 61
1, 185093, Control_c, 0, 64, 60
1, 185107, Note_on_c, 0, 78, 97
1, 185108, Control_c, 0, 64, 54
1, 185109, Note_on_c, 0, 66, 87
1, 185109, Note_on_c, 0, 90, 95
1, 185110, Note_on_c, 0, 54, 83
1, 185123, Control_c, 0, 64, 47
1, 185137, Control_c, 0, 64, 48
1, 185139, Note_off_c, 0, 66, 63
1, 185146, Note_off_c, 0, 78, 63
1, 185152, Control_c, 0, 64, 57
1, 185153, Note_off_c, 0, 90, 66
1, 185167, Control_c, 0, 64, 62
1, 185174, Note_off_c, 0, 54, 54
1, 185182, Control_c, 0, 64, 62
1, 185197, Control_c, 0, 64, 60
1, 185211, Control_c, 0, 64, 56
1, 185213, Note_on_c, 0, 65, 87
1, 185217, Note_on_c, 0, 77, 96
1, 185217, Note_on_c, 0, 89, 102
1, 185219, Note_on_c, 0, 53, 82
1, 185226, Control_c, 0, 64, 55
1, 185242, Note_off_c, 0, 65, 65
1, 185248, Note_off_c, 0, 77, 65
1, 185252, Note_off_c, 0, 53, 66
1, 185254, Note_off_c, 0, 89, 63
1, 185272, Control_c, 0, 64, 52
1, 185286, Control_c, 0, 64, 46
1, 185301, Control_c, 0, 64, 44
1, 185316, Control_c, 0, 64, 41
1, 185331, Control_c, 0, 64, 29
1, 185332, Note_on_c, 0, 52, 87
1, 185333, Note_on_c, 0, 64, 88
1, 185334, Note_on_c, 0, 88, 103
1, 185338, Note_on_c, 0, 76, 91
1, 185346, Control_c, 0, 64, 0
1, 185354, Note_off_c, 0, 76, 73
1, 185360, Note_off_c, 0, 64, 66
1, 185364, Note_off_c, 0, 52, 65
1, 185374, Note_off_c, 0, 88, 64
1, 185390, Control_c, 0, 64, 31
1, 185405, Control_c, 0, 64, 32
1, 185420, Control_c, 0, 64, 17
1, 185434, Control_c, 0, 64, 0
1, 185448, Note_on_c, 0, 75, 97
1, 185448, Note_on_c, 0, 87, 95
1, 185452, Note_on_c, 0, 63, 86
1, 185454, Note_on_c, 0, 51, 78
1, 185485, Note_off_c, 0, 75, 63
1, 185493, Control_c, 0, 64, 34
1, 185499, Note_off_c, 0, 63, 59
1, 185502, Note_off_c, 0, 87, 64
1, 185508, Control_c, 0, 64, 46
1, 185523, Note_off_c, 0, 51, 57
1, 185523, Control_c, 0, 64, 48
1, 185553, Control_c, 0, 64, 21
1, 185574, Note_on_c, 0, 86, 102
1, 185575, Note_on_c, 0, 62, 87
1, 185575, Note_on_c, 0, 74, 92
1, 185575, Control_c, 0, 64, 0
1, 185582, Note_on_c, 0, 50, 78
1, 185601, Note_off_c, 0, 74, 66
1, 185610, Note_off_c, 0, 50, 70
1, 185615, Note_off_c, 0, 86, 67
1, 185615, Note_off_c, 0, 62, 61
1, 185679, Control_c, 0, 64, 39
1, 185693, Note_on_c, 0, 61, 87
1, 185694, Control_c, 0, 64, 47
1, 185696, Note_on_c, 0, 49, 81
1, 185696, Note_on_c, 0, 73, 88
1, 185698, Note_on_c, 0, 85, 91
1, 185709, Control_c, 0, 64, 54
1, 185724, Control_c, 0, 64, 54
1, 185735, Note_off_c, 0, 61, 65
1, 185737, Note_off_c, 0, 73, 63
1, 185739, Control_c, 0, 64, 54
1, 185748, Note_off_c, 0, 85, 64
1, 185754, Control_c, 0, 64, 53
1, 185768, Control_c, 0, 64, 39
1, 185776, Note_off_c, 0, 49, 53
1, 185783, Control_c, 0, 64, 0
1, 185819, Note_on_c, 0, 60, 86
1, 185822, Note_on_c, 0, 84, 92
1, 185823, Note_on_c, 0, 72, 89
1, 185824, Note_on_c, 0, 48, 78
1, 185856, Note_off_c, 0, 72, 66
1, 185857, Control_c, 0, 64, 28
1, 185860, Note_off_c, 0, 60, 61
1, 185866, Note_off_c, 0, 84, 63
1, 185867, Note_off_c, 0, 48, 61
1, 185872, Control_c, 0, 64, 47
1, 185887, Control_c, 0, 64, 56
1, 185902, Control_c, 0, 64, 61
1, 185917, Control_c, 0, 64, 60
1, 185932, Control_c, 0, 64, 52
1, 185947, Control_c, 0, 64, 17
1, 185956, Note_on_c, 0, 83, 98
1, 185958, Note_on_c, 0, 59, 89
1, 185960, Note_on_c, 0, 47, 79
1, 185960, Note_on_c, 0, 71, 86
1, 185961, Control_c, 0, 64, 0
1, 185989, Note_off_c, 0, 71, 64
1, 186000, Note_off_c, 0, 47, 65
1, 186001, Note_off_c, 0, 59, 61
1, 186010, Note_off_c, 0, 83, 64
1, 186020, Control_c, 0, 64, 35
1, 186036, Control_c, 0, 64, 59
1, 186051, Control_c, 0, 64, 62
1, 186066, Control_c, 0, 64, 40
1, 186081, Control_c, 0, 64, 0
1, 186102, Note_on_c, 0, 46, 86
1, 186102, Note_on_c, 0, 82, 98
1, 186104, Note_on_c, 0, 70, 92
1, 186106, Note_on_c, 0, 58, 91
1, 186141, Note_off_c, 0, 70, 63
1, 186145, Note_off_c, 0, 58, 63
1, 186147, Note_off_c, 0, 46, 60
1, 186164, Note_off_c, 0, 82, 59
1, 186170, Control_c, 0, 64, 59
1, 186185, Control_c, 0, 64, 66
1, 186200, Control_c, 0, 64, 64
1, 186215, Control_c, 0, 64, 0
1, 186258, Note_on_c, 0, 61, 96
1, 186260, Note_on_c, 0, 49, 84
1, 186260, Note_on_c, 0, 73, 97
1, 186263, Note_on_c, 0, 85, 97
1, 186295, Note_off_c, 0, 73, 66
1, 186298, Note_off_c, 0, 61, 59
1, 186312, Note_off_c, 0, 85, 65
1, 186313, Note_off_c, 0, 49, 60
1, 186325, Control_c, 0, 64, 35
1, 186340, Control_c, 0, 64, 65
1, 186355, Control_c, 0, 64, 64
1, 186370, Control_c, 0, 64, 31
1, 186385, Control_c, 0, 64, 0
1, 186423, Note_on_c, 0, 57, 95
1, 186426, Note_on_c, 0, 69, 91
1, 186427, Note_on_c, 0, 45, 87
1, 186427, Note_on_c, 0, 81, 99
1, 186451, Note_off_c, 0, 45, 70
1, 186457, Note_off_c, 0, 69, 67
1, 186462, Note_off_c, 0, 57, 65
1, 186462, Note_off_c, 0, 81, 64
1, 186474, Control_c, 0, 64, 43
1, 186489, Control_c, 0, 64, 63
1, 186504, Control_c, 0, 64, 66
1, 186533, Control_c, 0, 64, 60
1, 186548, Control_c, 0, 64, 0
1, 186600, Note_on_c, 0, 61, 94
1, 186601, Note_on_c, 0, 49, 95
1, 186605, Note_on_c, 0, 73, 99
1, 186606, Note_on_c, 0, 85, 100
1, 186623, Note_off_c, 0, 61, 67
1, 186629, Note_off_c, 0, 49, 62
1, 186635, Note_off_c, 0, 73, 64
1, 186638, Note_off_c, 0, 85, 64
1, 186651, Control_c, 0, 64, 50
1, 186666, Control_c, 0, 64, 64
1, 186681, Control_c, 0, 64, 67
1, 186696, Control_c, 0, 64, 67
1, 186710, Control_c, 0, 64, 68
1, 186725, Control_c, 0, 64, 68
1, 186740, Control_c, 0, 64, 62
1, 186755, Control_c, 0, 64, 0
1, 186787, Note_on_c, 0, 56, 97
1, 186787, Note_on_c, 0, 80, 101
1, 186790, Note_on_c, 0, 68, 91
1, 186791, Note_on_c, 0, 44, 89
1, 186816, Note_off_c, 0, 56, 61
1, 186818, Note_off_c, 0, 68, 64
1, 186820, Note_off_c, 0, 44, 67
1, 186834, Note_off_c, 0, 80, 61
1, 186845, Control_c, 0, 64, 61
1, 186859, Control_c, 0, 64, 68
1, 186874, Control_c, 0, 64, 72
1, 186889, Control_c, 0, 64, 75
1, 186904, Control_c, 0, 64, 80
1, 186919, Control_c, 0, 64, 86
1, 186933, Control_c, 0, 64, 89
1, 186948, Control_c, 0, 64, 84
1, 186963, Control_c, 0, 64, 68
1, 186978, Control_c, 0, 64, 0
1, 187002, Note_on_c, 0, 61, 99
1, 187005, Note_on_c, 0, 73, 98
1, 187005, Note_on_c, 0, 49, 98
1, 187007, Note_on_c, 0, 85, 106
1, 187023, Note_off_c, 0, 61, 68
1, 187023, Control_c, 0, 64, 64
1, 187032, Note_off_c, 0, 73, 66
1, 187038, Control_c, 0, 64, 76
1, 187043, Note_off_c, 0, 49, 58
1, 187044, Note_off_c, 0, 85, 65
1, 187059, Control_c, 0, 64, 86
1, 187074, Control_c, 0, 64, 96
1, 187089, Control_c, 0, 64, 100
1, 187104, Control_c, 0, 64, 101
1, 187267, Control_c, 0, 64, 99
1, 187282, Control_c, 0, 64, 80
1, 187297, Control_c, 0, 64, 0
1, 187325, Note_on_c, 0, 42, 76
1, 187327, Note_on_c, 0, 45, 77
1, 187327, Note_on_c, 0, 54, 93
1, 187329, Note_on_c, 0, 49, 90
1, 187332, Note_on_c, 0, 78, 105
1, 187334, Note_on_c, 0, 85, 92
1, 187334, Note_on_c, 0, 90, 108
1, 187335, Note_on_c, 0, 81, 80
1, 187341, Control_c, 0, 64, 57
1, 187356, Control_c, 0, 64, 79
1, 187371, Control_c, 0, 64, 110
1, 187371, Note_off_c, 0, 78, 67
1, 187385, Note_off_c, 0, 81, 64
1, 187386, Control_c, 0, 64, 127
1, 187389, Note_off_c, 0, 42, 62
1, 187395, Note_off_c, 0, 54, 67
1, 187397, Note_off_c, 0, 90, 68
1, 187398, Note_off_c, 0, 45, 65
1, 187399, Note_on_c, 0, 88, 39
1, 187403, Note_off_c, 0, 85, 65
1, 187414, Note_off_c, 0, 49, 64
1, 187428, Note_off_c, 0, 88, 52
1, 187816, Note_on_c, 0, 81, 93
1, 187819, Note_on_c, 0, 69, 90
1, 187839, Note_off_c, 0, 69, 65
1, 187840, Note_off_c, 0, 81, 59
1, 187947, Note_on_c, 0, 83, 94
1, 187950, Note_on_c, 0, 71, 83
1, 187968, Note_off_c, 0, 71, 74
1, 187977, Note_off_c, 0, 83, 67
1, 188030, Control_c, 0, 64, 90
1, 188045, Control_c, 0, 64, 0
1, 188060, Note_on_c, 0, 73, 83
1, 188061, Note_on_c, 0, 85, 94
1, 188077, Note_off_c, 0, 85, 75
1, 188081, Note_off_c, 0, 73, 72
1, 188168, Note_on_c, 0, 66, 90
1, 188170, Note_on_c, 0, 78, 92
1, 188189, Note_off_c, 0, 66, 67
1, 188204, Note_off_c, 0, 78, 62
1, 188274, Note_on_c, 0, 59, 72
1, 188276, Note_on_c, 0, 47, 66
1, 188278, Note_on_c, 0, 80, 94
1, 188278, Note_on_c, 0, 68, 88
1, 188298, Note_off_c, 0, 59, 68
1, 188298, Note_off_c, 0, 47, 63
1, 188309, Note_off_c, 0, 68, 61
1, 188321, Note_off_c, 0, 80, 64
1, 188393, Note_on_c, 0, 61, 89
1, 188395, Note_on_c, 0, 69, 93
1, 188396, Note_on_c, 0, 81, 100
1, 188397, Note_on_c, 0, 49, 79
1, 188401, Control_c, 0, 64, 64
1, 188415, Control_c, 0, 64, 80
1, 188423, Note_off_c, 0, 61, 58
1, 188431, Control_c, 0, 64, 95
1, 188435, Note_off_c, 0, 49, 61
1, 188446, Control_c, 0, 64, 111
1, 188460, Control_c, 0, 64, 127
1, 188510, Note_on_c, 0, 62, 85
1, 188518, Note_on_c, 0, 50, 82
1, 188525, Note_off_c, 0, 69, 60
1, 188531, Note_off_c, 0, 62, 68
1, 188545, Note_off_c, 0, 50, 71
1, 188545, Note_off_c, 0, 81, 60
1, 188645, Note_on_c, 0, 83, 81
1, 188646, Note_on_c, 0, 56, 81
1, 188647, Note_on_c, 0, 44, 78
1, 188653, Note_on_c, 0, 71, 69
1, 188663, Note_on_c, 0, 84, 57
1, 188664, Note_off_c, 0, 84, 127
1, 188669, Note_off_c, 0, 71, 68
1, 188672, Note_off_c, 0, 56, 68
1, 188673, Note_off_c, 0, 83, 63
1, 188675, Control_c, 0, 64, 87
1, 188683, Note_off_c, 0, 44, 63
1, 188690, Control_c, 0, 64, 49
1, 188705, Control_c, 0, 64, 0
1, 188753, Note_on_c, 0, 73, 82
1, 188754, Note_on_c, 0, 85, 90
1, 188759, Note_on_c, 0, 57, 79
1, 188761, Note_on_c, 0, 45, 77
1, 188783, Note_off_c, 0, 57, 68
1, 188785, Note_off_c, 0, 73, 61
1, 188791, Note_off_c, 0, 45, 67
1, 188796, Note_off_c, 0, 85, 58
1, 188865, Note_on_c, 0, 47, 96
1, 188865, Note_on_c, 0, 59, 99
1, 188867, Note_on_c, 0, 86, 97
1, 188868, Note_on_c, 0, 74, 92
1, 188868, Control_c, 0, 64, 57
1, 188883, Control_c, 0, 64, 81
1, 188898, Control_c, 0, 64, 105
1, 188900, Note_off_c, 0, 74, 66
1, 188907, Note_off_c, 0, 86, 66
1, 188912, Control_c, 0, 64, 127
1, 188957, Note_off_c, 0, 47, 66
1, 188966, Note_off_c, 0, 59, 57
1, 188994, Note_on_c, 0, 76, 82
1, 188996, Note_on_c, 0, 88, 88
1, 189014, Note_off_c, 0, 76, 70
1, 189016, Note_off_c, 0, 88, 70
1, 189103, Note_on_c, 0, 61, 91
1, 189109, Note_on_c, 0, 49, 78
1, 189112, Note_on_c, 0, 81, 90
1, 189113, Note_on_c, 0, 69, 82
1, 189119, Control_c, 0, 64, 78
1, 189130, Note_off_c, 0, 61, 62
1, 189133, Note_off_c, 0, 81, 64
1, 189133, Note_off_c, 0, 69, 72
1, 189134, Control_c, 0, 64, 0
1, 189139, Note_off_c, 0, 49, 66
1, 189223, Note_on_c, 0, 62, 86
1, 189228, Note_on_c, 0, 50, 79
1, 189229, Note_on_c, 0, 83, 89
1, 189232, Note_on_c, 0, 71, 83
1, 189250, Note_off_c, 0, 71, 74
1, 189251, Note_off_c, 0, 62, 64
1, 189258, Note_off_c, 0, 50, 68
1, 189267, Note_off_c, 0, 83, 66
1, 189347, Note_on_c, 0, 85, 99
1, 189348, Note_on_c, 0, 64, 93
1, 189348, Note_on_c, 0, 73, 99
1, 189349, Note_on_c, 0, 52, 88
1, 189351, Control_c, 0, 64, 57
1, 189366, Control_c, 0, 64, 81
1, 189377, Note_off_c, 0, 52, 64
1, 189381, Control_c, 0, 64, 109
1, 189389, Note_off_c, 0, 64, 67
1, 189395, Control_c, 0, 64, 127
1, 189452, Poly_aftertouch_c, 0, 56, 0
1, 189476, Note_on_c, 0, 66, 73
1, 189479, Note_on_c, 0, 54, 82
1, 189488, Note_off_c, 0, 73, 59
1, 189495, Note_off_c, 0, 85, 59
1, 189498, Note_off_c, 0, 66, 69
1, 189503, Note_off_c, 0, 54, 68
1, 189587, Note_on_c, 0, 59, 87
1, 189589, Note_on_c, 0, 74, 85
1, 189591, Note_on_c, 0, 86, 88
1, 189592, Note_on_c, 0, 47, 80
1, 189609, Note_off_c, 0, 74, 73
1, 189613, Note_off_c, 0, 86, 64
1, 189615, Note_off_c, 0, 59, 63
1, 189617, Note_off_c, 0, 47, 67
1, 189637, Poly_aftertouch_c, 0, 54, 0
1, 189647, Control_c, 0, 64, 105
1, 189661, Control_c, 0, 64, 85
1, 189676, Control_c, 0, 64, 69
1, 189691, Control_c, 0, 64, 0
1, 189697, Note_on_c, 0, 61, 96
1, 189700, Note_on_c, 0, 49, 85
1, 189700, Note_on_c, 0, 88, 102
1, 189705, Note_on_c, 0, 76, 87
1, 189726, Note_off_c, 0, 76, 67
1, 189736, Note_off_c, 0, 88, 66
1, 189743, Note_off_c, 0, 61, 61
1, 189762, Note_off_c, 0, 49, 61
1, 189809, Note_on_c, 0, 62, 98
1, 189810, Control_c, 0, 64, 50
1, 189816, Note_on_c, 0, 50, 94
1, 189818, Note_on_c, 0, 78, 91
1, 189818, Note_on_c, 0, 90, 102
1, 189825, Control_c, 0, 64, 74
1, 189840, Control_c, 0, 64, 89
1, 189848, Note_off_c, 0, 62, 67
1, 189854, Control_c, 0, 64, 127
1, 189859, Note_off_c, 0, 78, 63
1, 189860, Note_on_c, 0, 91, 36
1, 189863, Note_off_c, 0, 90, 66
1, 189868, Note_off_c, 0, 50, 68
1, 189889, Note_off_c, 0, 91, 58
1, 189925, Note_on_c, 0, 91, 98
1, 189926, Note_on_c, 0, 79, 97
1, 189953, Note_off_c, 0, 79, 62
1, 189956, Note_off_c, 0, 91, 68
1, 190045, Note_on_c, 0, 71, 98
1, 190047, Note_on_c, 0, 83, 95
1, 190048, Note_on_c, 0, 79, 90
1, 190070, Control_c, 0, 64, 114
1, 190078, Note_off_c, 0, 71, 64
1, 190083, Note_off_c, 0, 79, 54
1, 190084, Control_c, 0, 64, 70
1, 190096, Note_off_c, 0, 83, 63
1, 190099, Control_c, 0, 64, 0
1, 190171, Note_on_c, 0, 72, 95
1, 190172, Note_on_c, 0, 84, 93
1, 190173, Note_on_c, 0, 81, 86
1, 190175, Note_on_c, 0, 40, 73
1, 190175, Note_on_c, 0, 52, 77
1, 190200, Note_off_c, 0, 40, 66
1, 190200, Note_off_c, 0, 81, 63
1, 190201, Note_off_c, 0, 72, 66
1, 190202, Note_off_c, 0, 52, 66
1, 190212, Note_off_c, 0, 84, 64
1, 190284, Note_on_c, 0, 54, 96
1, 190290, Note_on_c, 0, 42, 86
1, 190292, Note_on_c, 0, 74, 108
1, 190293, Note_on_c, 0, 83, 94
1, 190293, Note_on_c, 0, 86, 97
1, 190322, Control_c, 0, 64, 67
1, 190325, Note_off_c, 0, 54, 66
1, 190337, Control_c, 0, 64, 82
1, 190348, Note_off_c, 0, 42, 59
1, 190352, Control_c, 0, 64, 94
1, 190366, Control_c, 0, 64, 105
1, 190381, Control_c, 0, 64, 120
1, 190392, Poly_aftertouch_c, 0, 85, 0
1, 190396, Control_c, 0, 64, 127
1, 190402, Note_on_c, 0, 55, 88
1, 190407, Note_on_c, 0, 43, 89
1, 190409, Poly_aftertouch_c, 0, 44, 0
1, 190425, Note_off_c, 0, 55, 70
1, 190442, Note_off_c, 0, 43, 65
1, 190503, Note_off_c, 0, 74, 61
1, 190524, Note_on_c, 0, 47, 94
1, 190526, Note_on_c, 0, 35, 92
1, 190530, Note_off_c, 0, 83, 63
1, 190549, Note_off_c, 0, 86, 62
1, 190562, Note_off_c, 0, 47, 68
1, 190569, Note_off_c, 0, 35, 62
1, 190636, Note_on_c, 0, 87, 99
1, 190644, Note_on_c, 0, 76, 93
1, 190644, Note_on_c, 0, 48, 101
1, 190647, Note_on_c, 0, 36, 94
1, 190658, Note_on_c, 0, 83, 68
1, 190667, Note_on_c, 0, 84, 54
1, 190667, Note_off_c, 0, 76, 66
1, 190679, Note_on_c, 0, 37, 45
1, 190683, Note_off_c, 0, 48, 64
1, 190686, Note_off_c, 0, 83, 64
1, 190686, Note_off_c, 0, 87, 62
1, 190686, Note_off_c, 0, 84, 63
1, 190691, Note_off_c, 0, 36, 61
1, 190692, Control_c, 0, 64, 102
1, 190693, Note_on_c, 0, 88, 38
1, 190707, Control_c, 0, 64, 68
1, 190711, Note_off_c, 0, 37, 56
1, 190722, Control_c, 0, 64, 0
1, 190722, Note_off_c, 0, 88, 53
1, 190758, Note_on_c, 0, 78, 99
1, 190761, Note_on_c, 0, 50, 97
1, 190762, Note_on_c, 0, 90, 96
1, 190763, Note_on_c, 0, 38, 97
1, 190763, Note_on_c, 0, 86, 78
1, 190793, Note_off_c, 0, 78, 64
1, 190796, Control_c, 0, 64, 67
1, 190811, Note_off_c, 0, 86, 65
1, 190817, Control_c, 0, 64, 83
1, 190826, Note_off_c, 0, 90, 67
1, 190833, Control_c, 0, 64, 103
1, 190836, Note_on_c, 0, 39, 3
1, 190848, Control_c, 0, 64, 127
1, 190880, Note_on_c, 0, 91, 103
1, 190880, Note_off_c, 0, 39, 47
1, 190885, Note_on_c, 0, 79, 95
1, 190886, Note_on_c, 0, 88, 89
1, 190895, Note_off_c, 0, 38, 48
1, 190907, Note_off_c, 0, 88, 65
1, 190913, Note_off_c, 0, 79, 60
1, 190915, Note_off_c, 0, 91, 65
1, 190930, Note_off_c, 0, 50, 58
1, 190995, Note_on_c, 0, 83, 97
1, 190996, Note_on_c, 0, 71, 95
1, 190999, Note_on_c, 0, 79, 95
1, 191018, Note_off_c, 0, 71, 65
1, 191026, Note_off_c, 0, 79, 62
1, 191026, Control_c, 0, 64, 78
1, 191033, Note_off_c, 0, 83, 65
1, 191041, Control_c, 0, 64, 0
1, 191101, Note_on_c, 0, 52, 85
1, 191103, Note_on_c, 0, 40, 78
1, 191104, Note_on_c, 0, 81, 83
1, 191105, Note_on_c, 0, 72, 97
1, 191107, Note_on_c, 0, 84, 95
1, 191129, Note_off_c, 0, 52, 67
1, 191134, Note_off_c, 0, 40, 66
1, 191137, Note_off_c, 0, 72, 68
1, 191148, Note_off_c, 0, 81, 64
1, 191157, Note_off_c, 0, 84, 63
1, 191217, Note_on_c, 0, 54, 97
1, 191222, Note_on_c, 0, 86, 101
1, 191223, Note_on_c, 0, 42, 88
1, 191223, Note_on_c, 0, 74, 107
1, 191225, Note_on_c, 0, 83, 94
1, 191248, Control_c, 0, 64, 53
1, 191259, Note_off_c, 0, 54, 67
1, 191263, Control_c, 0, 64, 69
1, 191278, Control_c, 0, 64, 75
1, 191279, Note_off_c, 0, 42, 61
1, 191293, Control_c, 0, 64, 80
1, 191307, Control_c, 0, 64, 85
1, 191322, Control_c, 0, 64, 89
1, 191330, Note_on_c, 0, 55, 89
1, 191335, Note_on_c, 0, 43, 89
1, 191337, Control_c, 0, 64, 94
1, 191352, Control_c, 0, 64, 100
1, 191353, Note_off_c, 0, 55, 69
1, 191367, Control_c, 0, 64, 109
1, 191374, Note_off_c, 0, 43, 66
1, 191381, Control_c, 0, 64, 127
1, 191446, Note_off_c, 0, 74, 59
1, 191452, Note_on_c, 0, 47, 94
1, 191454, Note_on_c, 0, 35, 90
1, 191474, Note_off_c, 0, 83, 65
1, 191481, Note_off_c, 0, 86, 61
1, 191491, Note_off_c, 0, 35, 63
1, 191491, Note_off_c, 0, 47, 68
1, 191580, Note_on_c, 0, 76, 97
1, 191581, Note_on_c, 0, 48, 95
1, 191581, Note_on_c, 0, 88, 96
1, 191582, Note_on_c, 0, 84, 88
1, 191583, Note_on_c, 0, 36, 90
1, 191602, Note_on_c, 0, 87, 47
1, 191603, Note_off_c, 0, 87, 127
1, 191611, Note_off_c, 0, 76, 64
1, 191622, Note_off_c, 0, 48, 64
1, 191622, Note_off_c, 0, 88, 66
1, 191628, Note_off_c, 0, 36, 56
1, 191629, Note_off_c, 0, 84, 62
1, 191656, Control_c, 0, 64, 117
1, 191664, Poly_aftertouch_c, 0, 37, 127
1, 191671, Control_c, 0, 64, 82
1, 191686, Control_c, 0, 64, 0
1, 191699, Note_on_c, 0, 78, 100
1, 191699, Note_on_c, 0, 86, 89
1, 191700, Note_on_c, 0, 90, 101
1, 191700, Poly_aftertouch_c, 0, 37, 0
1, 191703, Note_on_c, 0, 50, 97
1, 191706, Note_on_c, 0, 38, 94
1, 191733, Note_off_c, 0, 78, 65
1, 191746, Note_off_c, 0, 86, 65
1, 191760, Control_c, 0, 64, 67
1, 191761, Note_off_c, 0, 90, 67
1, 191775, Control_c, 0, 64, 78
1, 191777, Note_off_c, 0, 38, 65
1, 191790, Control_c, 0, 64, 88
1, 191804, Control_c, 0, 64, 97
1, 191813, Note_off_c, 0, 50, 63
1, 191819, Control_c, 0, 64, 99
1, 191822, Note_on_c, 0, 91, 102
1, 191827, Note_on_c, 0, 79, 87
1, 191827, Note_on_c, 0, 88, 87
1, 191834, Control_c, 0, 64, 102
1, 191842, Note_on_c, 0, 81, 69
1, 191847, Note_off_c, 0, 88, 66
1, 191849, Control_c, 0, 64, 106
1, 191854, Note_off_c, 0, 79, 63
1, 191855, Note_off_c, 0, 91, 60
1, 191858, Note_off_c, 0, 81, 67
1, 191864, Control_c, 0, 64, 107
1, 191948, Note_on_c, 0, 71, 96
1, 191948, Note_on_c, 0, 79, 92
1, 191949, Note_on_c, 0, 83, 96
1, 191969, Note_off_c, 0, 71, 66
1, 191980, Note_off_c, 0, 79, 56
1, 191989, Note_off_c, 0, 83, 64
1, 192075, Note_on_c, 0, 72, 98
1, 192076, Note_on_c, 0, 81, 99
1, 192076, Note_on_c, 0, 84, 94
1, 192101, Control_c, 0, 64, 106
1, 192106, Note_off_c, 0, 72, 66
1, 192117, Note_off_c, 0, 81, 61
1, 192124, Note_off_c, 0, 84, 60
1, 192174, Control_c, 0, 64, 105
1, 192189, Control_c, 0, 64, 91
1, 192204, Control_c, 0, 64, 64
1, 192219, Control_c, 0, 64, 0
1, 192220, Note_on_c, 0, 74, 107
1, 192220, Note_on_c, 0, 86, 100
1, 192221, Note_on_c, 0, 83, 97
1, 192541, Note_on_c, 0, 47, 91
1, 192546, Note_on_c, 0, 43, 83
1, 192570, Note_off_c, 0, 47, 67
1, 192573, Note_off_c, 0, 43, 68
1, 192683, Note_on_c, 0, 45, 91
1, 192683, Note_on_c, 0, 48, 95
1, 192714, Note_off_c, 0, 48, 63
1, 192719, Note_off_c, 0, 45, 63
1, 192866, Note_on_c, 0, 50, 96
1, 192868, Note_on_c, 0, 47, 89
1, 192934, Note_off_c, 0, 74, 57
1, 193089, Note_off_c, 0, 86, 52
1, 193104, Note_off_c, 0, 83, 55
1, 193226, Note_on_c, 0, 83, 89
1, 193230, Note_on_c, 0, 71, 86
1, 193238, Note_on_c, 0, 79, 74
1, 193265, Note_off_c, 0, 79, 63
1, 193270, Note_off_c, 0, 71, 67
1, 193273, Control_c, 0, 64, 42
1, 193288, Control_c, 0, 64, 55
1, 193291, Note_off_c, 0, 83, 65
1, 193302, Control_c, 0, 64, 60
1, 193317, Control_c, 0, 64, 62
1, 193332, Control_c, 0, 64, 63
1, 193347, Control_c, 0, 64, 64
1, 193380, Note_on_c, 0, 84, 89
1, 193384, Note_on_c, 0, 81, 84
1, 193390, Note_on_c, 0, 72, 86
1, 193406, Control_c, 0, 64, 64
1, 193423, Note_off_c, 0, 72, 59
1, 193431, Note_off_c, 0, 47, 58
1, 193435, Control_c, 0, 64, 65
1, 193442, Note_off_c, 0, 81, 63
1, 193458, Note_off_c, 0, 84, 63
1, 193465, Control_c, 0, 64, 65
1, 193495, Control_c, 0, 64, 66
1, 193524, Control_c, 0, 64, 65
1, 193539, Control_c, 0, 64, 60
1, 193554, Control_c, 0, 64, 0
1, 193569, Note_on_c, 0, 86, 85
1, 193575, Note_on_c, 0, 74, 86
1, 193578, Note_on_c, 0, 83, 72
1, 193621, Note_off_c, 0, 74, 61
1, 193628, Control_c, 0, 64, 19
1, 193643, Control_c, 0, 64, 50
1, 193658, Control_c, 0, 64, 62
1, 193667, Note_off_c, 0, 86, 61
1, 193673, Note_off_c, 0, 83, 54
1, 193673, Control_c, 0, 64, 64
1, 193688, Control_c, 0, 64, 66
1, 193702, Control_c, 0, 64, 67
1, 193732, Control_c, 0, 64, 67
1, 193746, Control_c, 0, 64, 63
1, 193760, Note_off_c, 0, 50, 57
1, 193761, Control_c, 0, 64, 49
1, 193776, Control_c, 0, 64, 0
1, 193791, Note_on_c, 0, 83, 76
1, 193807, Note_on_c, 0, 44, 58
1, 193807, Note_on_c, 0, 71, 73
1, 193815, Note_on_c, 0, 47, 54
1, 193828, Control_c, 0, 64, 14
1, 193831, Note_on_c, 0, 80, 44
1, 193840, Note_off_c, 0, 71, 60
1, 193843, Control_c, 0, 64, 51
1, 193858, Control_c, 0, 64, 62
1, 193862, Note_off_c, 0, 80, 54
1, 193873, Control_c, 0, 64, 66
1, 193881, Note_off_c, 0, 47, 57
1, 193882, Note_off_c, 0, 83, 62
1, 193884, Note_off_c, 0, 44, 55
1, 193888, Control_c, 0, 64, 68
1, 193902, Control_c, 0, 64, 67
1, 193917, Control_c, 0, 64, 64
1, 193932, Control_c, 0, 64, 55
1, 193947, Control_c, 0, 64, 0
1, 193961, Control_c, 0, 64, 11
1, 193976, Control_c, 0, 64, 51
1, 193989, Note_on_c, 0, 49, 75
1, 193989, Note_on_c, 0, 85, 88
1, 193990, Note_on_c, 0, 73, 79
1, 193991, Control_c, 0, 64, 62
1, 193995, Note_on_c, 0, 45, 62
1, 194006, Control_c, 0, 64, 65
1, 194021, Control_c, 0, 64, 68
1, 194037, Control_c, 0, 64, 70
1, 194037, Note_off_c, 0, 73, 61
1, 194048, Note_off_c, 0, 45, 58
1, 194051, Control_c, 0, 64, 71
1, 194056, Note_off_c, 0, 49, 58
1, 194066, Control_c, 0, 64, 72
1, 194074, Note_off_c, 0, 85, 61
1, 194081, Control_c, 0, 64, 73
1, 194096, Control_c, 0, 64, 72
1, 194111, Control_c, 0, 64, 69
1, 194125, Control_c, 0, 64, 64
1, 194140, Control_c, 0, 64, 63
1, 194153, Note_on_c, 0, 86, 82
1, 194155, Control_c, 0, 64, 65
1, 194156, Note_on_c, 0, 50, 80
1, 194159, Note_on_c, 0, 74, 83
1, 194162, Note_on_c, 0, 84, 59
1, 194166, Note_on_c, 0, 83, 68
1, 194170, Control_c, 0, 64, 67
1, 194174, Note_on_c, 0, 47, 62
1, 194185, Control_c, 0, 64, 69
1, 194199, Control_c, 0, 64, 71
1, 194214, Note_off_c, 0, 74, 64
1, 194214, Control_c, 0, 64, 74
1, 194222, Note_off_c, 0, 83, 52
1, 194224, Note_off_c, 0, 47, 61
1, 194224, Note_off_c, 0, 84, 63
1, 194229, Control_c, 0, 64, 77
1, 194234, Note_off_c, 0, 86, 62
1, 194255, Note_off_c, 0, 50, 62
1, 194258, Control_c, 0, 64, 74
1, 194273, Control_c, 0, 64, 64
1, 194288, Control_c, 0, 64, 0
1, 194322, Note_on_c, 0, 83, 86
1, 194323, Note_on_c, 0, 71, 85
1, 194326, Note_on_c, 0, 44, 81
1, 194332, Note_on_c, 0, 47, 76
1, 194335, Note_on_c, 0, 80, 73
1, 194362, Control_c, 0, 64, 63
1, 194365, Note_off_c, 0, 71, 64
1, 194377, Control_c, 0, 64, 70
1, 194391, Control_c, 0, 64, 73
1, 194396, Note_off_c, 0, 80, 60
1, 194398, Note_off_c, 0, 83, 62
1, 194403, Note_off_c, 0, 47, 62
1, 194406, Control_c, 0, 64, 77
1, 194415, Note_off_c, 0, 44, 60
1, 194421, Control_c, 0, 64, 79
1, 194451, Control_c, 0, 64, 77
1, 194466, Control_c, 0, 64, 69
1, 194481, Control_c, 0, 64, 53
1, 194487, Note_on_c, 0, 49, 89
1, 194489, Note_on_c, 0, 73, 95
1, 194490, Note_on_c, 0, 81, 81
1, 194491, Note_on_c, 0, 45, 80
1, 194492, Note_on_c, 0, 85, 90
1, 194496, Control_c, 0, 64, 62
1, 194511, Control_c, 0, 64, 68
1, 194525, Control_c, 0, 64, 72
1, 194547, Control_c, 0, 64, 76
1, 194552, Note_off_c, 0, 73, 63
1, 194557, Note_off_c, 0, 81, 62
1, 194562, Control_c, 0, 64, 80
1, 194576, Control_c, 0, 64, 85
1, 194590, Note_off_c, 0, 85, 63
1, 194591, Control_c, 0, 64, 91
1, 194597, Note_off_c, 0, 49, 60
1, 194606, Control_c, 0, 64, 93
1, 194607, Note_off_c, 0, 45, 59
1, 194621, Control_c, 0, 64, 93
1, 194636, Control_c, 0, 64, 89
1, 194651, Control_c, 0, 64, 76
1, 194666, Control_c, 0, 64, 53
1, 194667, Note_on_c, 0, 74, 102
1, 194667, Note_on_c, 0, 83, 90
1, 194670, Note_on_c, 0, 50, 90
1, 194671, Note_on_c, 0, 86, 92
1, 194681, Note_on_c, 0, 47, 78
1, 194681, Control_c, 0, 64, 0
1, 194696, Control_c, 0, 64, 63
1, 194700, Note_on_c, 0, 85, 54
1, 194710, Control_c, 0, 64, 68
1, 194719, Note_off_c, 0, 47, 62
1, 194723, Note_off_c, 0, 85, 59
1, 194724, Note_off_c, 0, 50, 65
1, 194725, Control_c, 0, 64, 72
1, 194727, Note_off_c, 0, 74, 58
1, 194740, Control_c, 0, 64, 76
1, 194740, Note_off_c, 0, 83, 60
1, 194746, Note_off_c, 0, 86, 64
1, 194755, Control_c, 0, 64, 81
1, 194770, Control_c, 0, 64, 88
1, 194784, Control_c, 0, 64, 93
1, 194799, Control_c, 0, 64, 96
1, 194830, Control_c, 0, 64, 89
1, 194845, Control_c, 0, 64, 74
1, 194859, Control_c, 0, 64, 59
1, 194860, Note_on_c, 0, 71, 99
1, 194860, Note_on_c, 0, 83, 91
1, 194862, Note_on_c, 0, 56, 101
1, 194866, Note_on_c, 0, 80, 85
1, 194868, Note_on_c, 0, 47, 74
1, 194868, Note_on_c, 0, 44, 78
1, 194874, Control_c, 0, 64, 64
1, 194889, Control_c, 0, 64, 75
1, 194900, Note_off_c, 0, 44, 68
1, 194901, Note_off_c, 0, 47, 65
1, 194901, Note_off_c, 0, 71, 65
1, 194904, Control_c, 0, 64, 82
1, 194915, Note_off_c, 0, 56, 64
1, 194919, Control_c, 0, 64, 89
1, 194928, Note_off_c, 0, 80, 61
1, 194934, Control_c, 0, 64, 94
1, 194947, Note_off_c, 0, 83, 59
1, 194948, Control_c, 0, 64, 98
1, 194963, Control_c, 0, 64, 100
1, 194978, Control_c, 0, 64, 101
1, 194993, Control_c, 0, 64, 103
1, 195007, Control_c, 0, 64, 105
1, 195022, Control_c, 0, 64, 106
1, 195037, Control_c, 0, 64, 104
1, 195052, Control_c, 0, 64, 88
1, 195067, Control_c, 0, 64, 67
1, 195081, Control_c, 0, 64, 0
1, 195091, Note_on_c, 0, 59, 103
1, 195094, Note_on_c, 0, 50, 74
1, 195096, Control_c, 0, 64, 57
1, 195100, Note_on_c, 0, 74, 99
1, 195101, Note_on_c, 0, 86, 99
1, 195103, Note_on_c, 0, 47, 65
1, 195111, Control_c, 0, 64, 69
1, 195122, Note_off_c, 0, 50, 67
1, 195125, Note_off_c, 0, 74, 69
1, 195126, Note_off_c, 0, 47, 61
1, 195126, Control_c, 0, 64, 77
1, 195131, Note_off_c, 0, 59, 66
1, 195141, Control_c, 0, 64, 86
1, 195146, Note_off_c, 0, 86, 70
1, 195155, Control_c, 0, 64, 96
1, 195169, Control_c, 0, 64, 102
1, 195184, Control_c, 0, 64, 103
1, 195198, Control_c, 0, 64, 104
1, 195213, Control_c, 0, 64, 105
1, 195228, Control_c, 0, 64, 105
1, 195243, Control_c, 0, 64, 107
1, 195258, Control_c, 0, 64, 109
1, 195272, Control_c, 0, 64, 110
1, 195287, Control_c, 0, 64, 111
1, 195310, Control_c, 0, 64, 110
1, 195324, Control_c, 0, 64, 107
1, 195339, Control_c, 0, 64, 86
1, 195354, Control_c, 0, 64, 58
1, 195369, Control_c, 0, 64, 0
1, 195372, Note_on_c, 0, 59, 84
1, 195374, Note_on_c, 0, 71, 100
1, 195376, Note_on_c, 0, 62, 74
1, 195379, Note_on_c, 0, 86, 103
1, 195379, Note_on_c, 0, 98, 109
1, 195384, Note_on_c, 0, 95, 80
1, 195398, Control_c, 0, 64, 57
1, 195400, Note_off_c, 0, 95, 74
1, 195410, Note_off_c, 0, 86, 67
1, 195411, Note_off_c, 0, 71, 68
1, 195413, Control_c, 0, 64, 67
1, 195419, Note_off_c, 0, 59, 59
1, 195420, Note_off_c, 0, 98, 69
1, 195428, Control_c, 0, 64, 75
1, 195432, Note_off_c, 0, 62, 62
1, 195443, Control_c, 0, 64, 83
1, 195458, Control_c, 0, 64, 93
1, 195472, Control_c, 0, 64, 97
1, 195487, Control_c, 0, 64, 100
1, 195502, Control_c, 0, 64, 102
1, 195517, Control_c, 0, 64, 103
1, 195532, Control_c, 0, 64, 103
1, 195546, Control_c, 0, 64, 104
1, 195561, Control_c, 0, 64, 106
1, 195591, Control_c, 0, 64, 102
1, 195605, Control_c, 0, 64, 82
1, 195621, Control_c, 0, 64, 46
1, 195622, Note_on_c, 0, 83, 102
1, 195623, Note_on_c, 0, 95, 102
1, 195629, Note_on_c, 0, 92, 86
1, 195631, Note_on_c, 0, 68, 98
1, 195632, Note_on_c, 0, 56, 78
1, 195634, Note_on_c, 0, 59, 73
1, 195636, Control_c, 0, 64, 0
1, 195654, Note_off_c, 0, 95, 65
1, 195657, Note_off_c, 0, 83, 67
1, 195666, Control_c, 0, 64, 48
1, 195667, Note_off_c, 0, 92, 68
1, 195673, Note_off_c, 0, 59, 58
1, 195676, Note_off_c, 0, 68, 65
1, 195681, Control_c, 0, 64, 65
1, 195685, Note_off_c, 0, 56, 66
1, 195695, Control_c, 0, 64, 73
1, 195710, Control_c, 0, 64, 79
1, 195725, Control_c, 0, 64, 86
1, 195740, Control_c, 0, 64, 91
1, 195755, Control_c, 0, 64, 93
1, 195769, Control_c, 0, 64, 95
1, 195784, Control_c, 0, 64, 97
1, 195799, Control_c, 0, 64, 100
1, 195814, Control_c, 0, 64, 100
1, 195828, Control_c, 0, 64, 86
1, 195843, Control_c, 0, 64, 67
1, 195847, Note_on_c, 0, 64, 96
1, 195847, Note_on_c, 0, 80, 100
1, 195849, Note_on_c, 0, 92, 97
1, 195851, Note_on_c, 0, 56, 72
1, 195858, Control_c, 0, 64, 0
1, 195861, Note_on_c, 0, 52, 70
1, 195873, Control_c, 0, 64, 45
1, 195880, Note_off_c, 0, 80, 67
1, 195883, Note_off_c, 0, 92, 68
1, 195888, Note_off_c, 0, 64, 65
1, 195888, Control_c, 0, 64, 66
1, 195896, Note_off_c, 0, 52, 64
1, 195901, Note_off_c, 0, 56, 63
1, 195903, Control_c, 0, 64, 71
1, 195918, Control_c, 0, 64, 78
1, 195933, Control_c, 0, 64, 87
1, 195948, Control_c, 0, 64, 95
1, 195963, Control_c, 0, 64, 100
1, 195977, Control_c, 0, 64, 103
1, 195992, Control_c, 0, 64, 105
1, 196022, Control_c, 0, 64, 104
1, 196037, Control_c, 0, 64, 87
1, 196059, Control_c, 0, 64, 64
1, 196074, Control_c, 0, 64, 0
1, 196081, Note_on_c, 0, 62, 94
1, 196085, Note_on_c, 0, 54, 83
1, 196086, Note_on_c, 0, 90, 94
1, 196088, Note_on_c, 0, 78, 103
1, 196091, Note_on_c, 0, 50, 73
1, 196103, Control_c, 0, 64, 36
1, 196115, Note_off_c, 0, 62, 60
1, 196118, Control_c, 0, 64, 66
1, 196122, Note_off_c, 0, 90, 67
1, 196126, Note_off_c, 0, 78, 64
1, 196130, Note_off_c, 0, 50, 66
1, 196132, Note_off_c, 0, 54, 64
1, 196133, Control_c, 0, 64, 79
1, 196148, Control_c, 0, 64, 89
1, 196163, Control_c, 0, 64, 96
1, 196177, Control_c, 0, 64, 99
1, 196192, Control_c, 0, 64, 101
1, 196207, Control_c, 0, 64, 105
1, 196222, Control_c, 0, 64, 112
1, 196237, Control_c, 0, 64, 118
1, 196252, Control_c, 0, 64, 119
1, 196266, Control_c, 0, 64, 113
1, 196281, Control_c, 0, 64, 88
1, 196296, Control_c, 0, 64, 61
1, 196311, Control_c, 0, 64, 0
1, 196315, Note_on_c, 0, 59, 92
1, 196316, Note_on_c, 0, 50, 81
1, 196320, Note_on_c, 0, 47, 77
1, 196322, Note_on_c, 0, 86, 100
1, 196323, Note_on_c, 0, 74, 99
1, 196326, Control_c, 0, 64, 54
1, 196341, Note_off_c, 0, 59, 62
1, 196341, Control_c, 0, 64, 68
1, 196347, Note_off_c, 0, 47, 70
1, 196353, Note_off_c, 0, 74, 67
1, 196355, Control_c, 0, 64, 78
1, 196358, Note_off_c, 0, 86, 67
1, 196365, Note_off_c, 0, 50, 65
1, 196366, Note_on_c, 0, 84, 19
1, 196370, Control_c, 0, 64, 92
1, 196385, Control_c, 0, 64, 114
1, 196400, Control_c, 0, 64, 127
1, 196409, Note_off_c, 0, 84, 53
1, 196534, Control_c, 0, 64, 104
1, 196549, Control_c, 0, 64, 70
1, 196564, Control_c, 0, 64, 0
1, 196570, Note_on_c, 0, 47, 80
1, 196571, Note_on_c, 0, 56, 99
1, 196575, Note_on_c, 0, 83, 95
1, 196578, Note_on_c, 0, 44, 80
1, 196578, Note_on_c, 0, 71, 101
1, 196579, Note_on_c, 0, 80, 88
1, 196607, Note_off_c, 0, 71, 68
1, 196608, Control_c, 0, 64, 64
1, 196609, Note_off_c, 0, 56, 68
1, 196612, Note_off_c, 0, 83, 65
1, 196621, Note_on_c, 0, 82, 33
1, 196621, Note_off_c, 0, 47, 66
1, 196623, Control_c, 0, 64, 79
1, 196625, Note_off_c, 0, 80, 65
1, 196631, Note_off_c, 0, 44, 63
1, 196638, Control_c, 0, 64, 96
1, 196652, Control_c, 0, 64, 127
1, 196657, Note_off_c, 0, 82, 32
1, 196808, Control_c, 0, 64, 84
1, 196823, Control_c, 0, 64, 0
1, 196867, Control_c, 0, 64, 60
1, 196872, Note_on_c, 0, 52, 99
1, 196874, Note_on_c, 0, 44, 90
1, 196874, Note_on_c, 0, 68, 105
1, 196875, Note_on_c, 0, 80, 100
1, 196877, Note_on_c, 0, 40, 84
1, 196881, Note_on_c, 0, 76, 72
1, 196882, Control_c, 0, 64, 95
1, 196897, Control_c, 0, 64, 127
1, 196905, Note_off_c, 0, 76, 68
1, 196910, Note_off_c, 0, 68, 67
1, 196914, Note_off_c, 0, 52, 64
1, 196916, Note_off_c, 0, 40, 63
1, 196924, Note_off_c, 0, 80, 65
1, 196928, Note_off_c, 0, 44, 65
1, 197223, Control_c, 0, 64, 111
1, 197238, Control_c, 0, 64, 70
1, 197253, Control_c, 0, 64, 0
1, 197693, Note_on_c, 0, 42, 88
1, 197696, Note_on_c, 0, 50, 96
1, 197700, Note_on_c, 0, 66, 106
1, 197700, Note_on_c, 0, 38, 81
1, 197700, Note_on_c, 0, 78, 98
1, 197705, Control_c, 0, 64, 65
1, 197715, Note_on_c, 0, 74, 70
1, 197720, Control_c, 0, 64, 98
1, 197735, Note_off_c, 0, 66, 67
1, 197735, Control_c, 0, 64, 127
1, 197742, Note_off_c, 0, 74, 70
1, 197747, Note_off_c, 0, 50, 70
1, 197750, Note_off_c, 0, 38, 63
1, 197751, Note_off_c, 0, 78, 65
1, 197757, Note_off_c, 0, 42, 62
1, 198151, Control_c, 0, 64, 91
1, 198165, Control_c, 0, 64, 71
1, 198180, Control_c, 0, 64, 0
1, 198784, Note_on_c, 0, 65, 91
1, 198784, Note_on_c, 0, 73, 92
1, 198785, Note_on_c, 0, 49, 92
1, 198786, Note_on_c, 0, 77, 95
1, 198787, Note_on_c, 0, 41, 77
1, 198791, Note_on_c, 0, 37, 78
1, 199588, Control_c, 0, 64, 26
1, 199603, Control_c, 0, 64, 43
1, 199619, Control_c, 0, 64, 52
1, 199634, Control_c, 0, 64, 57
1, 199649, Control_c, 0, 64, 59
1, 199663, Control_c, 0, 64, 61
1, 199678, Control_c, 0, 64, 62
1, 199693, Control_c, 0, 64, 63
1, 199708, Control_c, 0, 64, 64
1, 199723, Control_c, 0, 64, 65
1, 199737, Control_c, 0, 64, 65
1, 199752, Control_c, 0, 64, 66
1, 199767, Control_c, 0, 64, 67
1, 199782, Control_c, 0, 64, 67
1, 199804, Control_c, 0, 64, 68
1, 199819, Control_c, 0, 64, 68
1, 199834, Control_c, 0, 64, 69
1, 199849, Control_c, 0, 64, 70
1, 199849, Control_c, 0, 67, 8
1, 199864, Control_c, 0, 64, 71
1, 199864, Control_c, 0, 67, 9
1, 199878, Control_c, 0, 64, 72
1, 199878, Control_c, 0, 67, 9
1, 199893, Control_c, 0, 64, 72
1, 199893, Control_c, 0, 67, 10
1, 199908, Control_c, 0, 64, 73
1, 199908, Control_c, 0, 67, 12
1, 199923, Control_c, 0, 64, 75
1, 199923, Control_c, 0, 67, 14
1, 199938, Control_c, 0, 64, 76
1, 199938, Control_c, 0, 67, 16
1, 199952, Control_c, 0, 64, 77
1, 199952, Control_c, 0, 67, 17
1, 199967, Control_c, 0, 64, 78
1, 199967, Control_c, 0, 67, 18
1, 199982, Control_c, 0, 64, 80
1, 199982, Control_c, 0, 67, 19
1, 199996, Control_c, 0, 64, 81
1, 199996, Control_c, 0, 67, 21
1, 200011, Control_c, 0, 64, 83
1, 200011, Control_c, 0, 67, 23
1, 200026, Control_c, 0, 64, 85
1, 200026, Control_c, 0, 67, 24
1, 200041, Control_c, 0, 64, 86
1, 200041, Control_c, 0, 67, 26
1, 200056, Control_c, 0, 64, 88
1, 200056, Control_c, 0, 67, 28
1, 200070, Control_c, 0, 64, 90
1, 200070, Control_c, 0, 67, 30
1, 200085, Control_c, 0, 64, 92
1, 200085, Control_c, 0, 67, 32
1, 200100, Control_c, 0, 64, 93
1, 200100, Control_c, 0, 67, 34
1, 200115, Control_c, 0, 64, 95
1, 200115, Control_c, 0, 67, 35
1, 200130, Control_c, 0, 64, 97
1, 200130, Control_c, 0, 67, 37
1, 200145, Control_c, 0, 64, 98
1, 200145, Control_c, 0, 67, 38
1, 200159, Control_c, 0, 64, 99
1, 200159, Control_c, 0, 67, 40
1, 200174, Control_c, 0, 64, 100
1, 200174, Control_c, 0, 67, 41
1, 200189, Control_c, 0, 64, 100
1, 200189, Control_c, 0, 67, 44
1, 200204, Control_c, 0, 64, 101
1, 200204, Control_c, 0, 67, 46
1, 200219, Control_c, 0, 64, 102
1, 200219, Control_c, 0, 67, 49
1, 200234, Control_c, 0, 64, 103
1, 200234, Control_c, 0, 67, 51
1, 200249, Control_c, 0, 64, 103
1, 200249, Control_c, 0, 67, 54
1, 200263, Control_c, 0, 67, 56
1, 200278, Control_c, 0, 64, 104
1, 200278, Control_c, 0, 67, 60
1, 200293, Control_c, 0, 67, 63
1, 200308, Control_c, 0, 67, 66
1, 200322, Control_c, 0, 67, 70
1, 200337, Control_c, 0, 67, 74
1, 200352, Control_c, 0, 67, 78
1, 200367, Control_c, 0, 67, 82
1, 200382, Control_c, 0, 67, 86
1, 200396, Control_c, 0, 64, 104
1, 200396, Control_c, 0, 67, 92
1, 200412, Control_c, 0, 67, 97
1, 200427, Control_c, 0, 67, 102
1, 200442, Control_c, 0, 67, 106
1, 200457, Control_c, 0, 67, 111
1, 200472, Control_c, 0, 67, 115
1, 200486, Control_c, 0, 67, 121
1, 200501, Control_c, 0, 67, 126
1, 200516, Control_c, 0, 67, 127
1, 200598, Control_c, 0, 64, 104
1, 200631, Note_off_c, 0, 49, 36
1, 200696, Note_off_c, 0, 65, 52
1, 200707, Note_off_c, 0, 77, 46
1, 200780, Note_off_c, 0, 73, 48
1, 200803, Note_off_c, 0, 41, 31
1, 200991, Note_off_c, 0, 37, 30
1, 201072, Control_c, 0, 64, 103
1, 201145, Control_c, 0, 64, 103
1, 201190, Control_c, 0, 64, 102
1, 201235, Control_c, 0, 64, 102
1, 201280, Control_c, 0, 64, 101
1, 201331, Control_c, 0, 64, 101
1, 201376, Control_c, 0, 64, 100
1, 201420, Control_c, 0, 64, 100
1, 201435, Control_c, 0, 64, 99
1, 201465, Control_c, 0, 64, 99
1, 201480, Control_c, 0, 64, 98
1, 201495, Control_c, 0, 64, 97
1, 201524, Control_c, 0, 64, 97
1, 201539, Control_c, 0, 64, 96
1, 201554, Control_c, 0, 64, 96
1, 201568, Control_c, 0, 64, 95
1, 201583, Control_c, 0, 64, 95
1, 201598, Control_c, 0, 64, 94
1, 201613, Control_c, 0, 64, 93
1, 201628, Control_c, 0, 64, 93
1, 201642, Control_c, 0, 64, 92
1, 201657, Control_c, 0, 64, 92
1, 201672, Control_c, 0, 64, 91
1, 201702, Control_c, 0, 64, 91
1, 201716, Control_c, 0, 64, 90
1, 201731, Control_c, 0, 64, 90
1, 201746, Control_c, 0, 64, 89
1, 201761, Control_c, 0, 64, 87
1, 201775, Control_c, 0, 64, 82
1, 201790, Control_c, 0, 64, 76
1, 201805, Control_c, 0, 64, 70
1, 201820, Control_c, 0, 64, 63
1, 201835, Control_c, 0, 64, 47
1, 201850, Control_c, 0, 64, 0
1, 201884, Note_on_c, 0, 40, 36
1, 201885, Note_on_c, 0, 56, 65
1, 201889, Note_on_c, 0, 28, 44
1, 201894, Control_c, 0, 64, 21
1, 201897, Note_on_c, 0, 52, 47
1, 201899, Note_on_c, 0, 44, 39
1, 201909, Control_c, 0, 64, 40
1, 201924, Control_c, 0, 64, 51
1, 201939, Control_c, 0, 64, 62
1, 201954, Control_c, 0, 64, 67
1, 201968, Control_c, 0, 64, 71
1, 201983, Control_c, 0, 64, 75
1, 201998, Control_c, 0, 64, 79
1, 202014, Control_c, 0, 64, 84
1, 202025, Note_off_c, 0, 40, 56
1, 202029, Control_c, 0, 64, 90
1, 202041, Note_off_c, 0, 52, 59
1, 202045, Note_off_c, 0, 28, 53
1, 202046, Note_off_c, 0, 44, 53
1, 202051, Control_c, 0, 64, 93
1, 202064, Note_off_c, 0, 56, 64
1, 202066, Control_c, 0, 64, 95
1, 202080, Control_c, 0, 64, 95
1, 202228, Control_c, 0, 64, 95
1, 202243, Control_c, 0, 64, 94
1, 202258, Control_c, 0, 64, 93
1, 202273, Control_c, 0, 64, 92
1, 202288, Control_c, 0, 64, 91
1, 202303, Control_c, 0, 64, 87
1, 202318, Control_c, 0, 64, 80
1, 202333, Control_c, 0, 64, 71
1, 202347, Control_c, 0, 64, 53
1, 202362, Control_c, 0, 64, 0
1, 203022, Control_c, 0, 64, 32
1, 203037, Control_c, 0, 64, 48
1, 203052, Control_c, 0, 64, 56
1, 203067, Control_c, 0, 64, 59
1, 203082, Control_c, 0, 64, 61
1, 203096, Control_c, 0, 64, 63
1, 203111, Control_c, 0, 64, 64
1, 203126, Control_c, 0, 64, 65
1, 203128, Note_on_c, 0, 54, 56
1, 203140, Control_c, 0, 64, 68
1, 203142, Note_on_c, 0, 42, 36
1, 203146, Note_on_c, 0, 26, 48
1, 203152, Note_on_c, 0, 50, 33
1, 203155, Control_c, 0, 64, 71
1, 203159, Note_on_c, 0, 38, 44
1, 203170, Control_c, 0, 64, 74
1, 203182, Note_off_c, 0, 42, 59
1, 203185, Control_c, 0, 64, 79
1, 203191, Note_off_c, 0, 50, 59
1, 203194, Note_off_c, 0, 38, 63
1, 203200, Note_off_c, 0, 26, 63
1, 203200, Control_c, 0, 64, 83
1, 203203, Note_off_c, 0, 54, 62
1, 203215, Control_c, 0, 64, 85
1, 203230, Control_c, 0, 64, 88
1, 203245, Control_c, 0, 64, 90
1, 203260, Control_c, 0, 64, 91
1, 203275, Control_c, 0, 64, 92
1, 203421, Control_c, 0, 64, 91
1, 203436, Control_c, 0, 64, 90
1, 203451, Control_c, 0, 64, 89
1, 203466, Control_c, 0, 64, 87
1, 203480, Control_c, 0, 64, 84
1, 203495, Control_c, 0, 64, 80
1, 203510, Control_c, 0, 64, 77
1, 203525, Control_c, 0, 64, 71
1, 203547, Control_c, 0, 64, 64
1, 203562, Control_c, 0, 64, 26
1, 203577, Control_c, 0, 64, 0
1, 205009, Note_on_c, 0, 49, 26
1, 205018, Note_on_c, 0, 41, 26
1, 205019, Note_on_c, 0, 25, 38
1, 205039, Note_on_c, 0, 37, 33
1, 205048, Note_on_c, 0, 53, 30
1, 205298, Control_c, 0, 64, 17
1, 205313, Control_c, 0, 64, 23
1, 205328, Control_c, 0, 64, 26
1, 205342, Control_c, 0, 64, 33
1, 205357, Control_c, 0, 64, 41
1, 205372, Control_c, 0, 64, 49
1, 205387, Control_c, 0, 64, 56
1, 205402, Control_c, 0, 64, 60
1, 205416, Control_c, 0, 64, 61
1, 205431, Control_c, 0, 64, 62
1, 205446, Control_c, 0, 64, 63
1, 205461, Control_c, 0, 64, 64
1, 205476, Control_c, 0, 64, 65
1, 205490, Control_c, 0, 64, 66
1, 205505, Control_c, 0, 64, 67
1, 205520, Control_c, 0, 64, 68
1, 205534, Control_c, 0, 64, 69
1, 205549, Control_c, 0, 64, 70
1, 205564, Control_c, 0, 64, 71
1, 205579, Control_c, 0, 64, 72
1, 205594, Control_c, 0, 64, 73
1, 205609, Control_c, 0, 64, 74
1, 205623, Control_c, 0, 64, 75
1, 205638, Control_c, 0, 64, 76
1, 205654, Control_c, 0, 64, 77
1, 205669, Control_c, 0, 64, 78
1, 205683, Control_c, 0, 64, 79
1, 205698, Control_c, 0, 64, 79
1, 205713, Control_c, 0, 64, 80
1, 205728, Control_c, 0, 64, 81
1, 205743, Control_c, 0, 64, 82
1, 205758, Control_c, 0, 64, 83
1, 205773, Control_c, 0, 64, 84
1, 205795, Control_c, 0, 64, 85
1, 205809, Control_c, 0, 64, 86
1, 205824, Control_c, 0, 64, 87
1, 205839, Control_c, 0, 64, 88
1, 205854, Control_c, 0, 64, 89
1, 205869, Control_c, 0, 64, 89
1, 205898, Control_c, 0, 64, 90
1, 205913, Control_c, 0, 64, 91
1, 205928, Control_c, 0, 64, 92
1, 205942, Control_c, 0, 64, 93
1, 205957, Control_c, 0, 64, 93
1, 207713, Note_off_c, 0, 41, 26
1, 207737, Control_c, 0, 64, 93
1, 207871, Control_c, 0, 64, 92
1, 207928, Control_c, 0, 64, 92
1, 207988, Control_c, 0, 64, 91
1, 208012, Note_off_c, 0, 49, 33
1, 208043, Note_off_c, 0, 25, 37
1, 208055, Control_c, 0, 64, 91
1, 208099, Control_c, 0, 64, 90
1, 208149, Note_off_c, 0, 37, 25
1, 208188, Control_c, 0, 64, 90
1, 208247, Control_c, 0, 64, 89
1, 208252, Note_off_c, 0, 53, 41
1, 208291, Control_c, 0, 64, 89
1, 208366, Control_c, 0, 64, 88
1, 208426, Control_c, 0, 64, 88
1, 208440, Control_c, 0, 64, 87
1, 208470, Control_c, 0, 64, 87
1, 208500, Control_c, 0, 64, 86
1, 208515, Control_c, 0, 64, 86
1, 208544, Control_c, 0, 64, 85
1, 208559, Control_c, 0, 64, 85
1, 208574, Control_c, 0, 64, 84
1, 208589, Control_c, 0, 64, 83
1, 208604, Control_c, 0, 64, 82
1, 208619, Control_c, 0, 64, 81
1, 208633, Control_c, 0, 64, 81
1, 208664, Control_c, 0, 64, 80
1, 208679, Control_c, 0, 64, 79
1, 208694, Control_c, 0, 64, 79
1, 208708, Control_c, 0, 64, 78
1, 208738, Control_c, 0, 64, 78
1, 208804, Control_c, 0, 64, 77
1, 208819, Control_c, 0, 64, 76
1, 208834, Control_c, 0, 64, 76
1, 208849, Control_c, 0, 64, 75
1, 208864, Control_c, 0, 64, 74
1, 208879, Control_c, 0, 64, 74
1, 208894, Control_c, 0, 64, 73
1, 208908, Control_c, 0, 64, 73
1, 208938, Control_c, 0, 64, 72
1, 208952, Control_c, 0, 64, 71
1, 208967, Control_c, 0, 64, 70
1, 208982, Control_c, 0, 64, 69
1, 208997, Control_c, 0, 64, 68
1, 209012, Control_c, 0, 64, 68
1, 209026, Control_c, 0, 64, 67
1, 209041, Control_c, 0, 64, 67
1, 209056, Control_c, 0, 64, 66
1, 209071, Control_c, 0, 64, 65
1, 209085, Control_c, 0, 64, 65
1, 209100, Control_c, 0, 64, 64
1, 209115, Control_c, 0, 64, 64
1, 209130, Control_c, 0, 64, 63
1, 209174, Control_c, 0, 64, 63
1, 209189, Control_c, 0, 64, 62
1, 209205, Control_c, 0, 64, 61
1, 209249, Control_c, 0, 64, 60
1, 209264, Control_c, 0, 64, 57
1, 209279, Control_c, 0, 64, 53
1, 209323, Control_c, 0, 64, 53
1, 209323, Control_c, 0, 67, 127
1, 209338, Control_c, 0, 64, 49
1, 209338, Control_c, 0, 67, 126
1, 209353, Control_c, 0, 64, 35
1, 209353, Control_c, 0, 67, 126
1, 209368, Control_c, 0, 64, 11
1, 209368, Control_c, 0, 67, 124
1, 209382, Control_c, 0, 64, 0
1, 209382, Control_c, 0, 67, 123
1, 209397, Control_c, 0, 67, 121
1, 209412, Control_c, 0, 67, 118
1, 209427, Control_c, 0, 67, 115
1, 209442, Control_c, 0, 67, 112
1, 209456, Control_c, 0, 67, 110
1, 209471, Control_c, 0, 67, 108
1, 209486, Control_c, 0, 67, 105
1, 209500, Control_c, 0, 67, 102
1, 209515, Control_c, 0, 67, 99
1, 209537, Control_c, 0, 67, 97
1, 209552, Control_c, 0, 67, 95
1, 209567, Control_c, 0, 67, 93
1, 209582, Control_c, 0, 67, 90
1, 209597, Control_c, 0, 67, 88
1, 209612, Control_c, 0, 67, 84
1, 209624, Note_on_c, 0, 54, 44
1, 209627, Control_c, 0, 67, 81
1, 209633, Note_on_c, 0, 42, 37
1, 209642, Control_c, 0, 64, 27
1, 209642, Control_c, 0, 67, 76
1, 209654, Note_off_c, 0, 54, 64
1, 209656, Control_c, 0, 64, 41
1, 209656, Control_c, 0, 67, 72
1, 209667, Note_off_c, 0, 42, 58
1, 209671, Control_c, 0, 64, 49
1, 209671, Control_c, 0, 67, 66
1, 209686, Control_c, 0, 64, 54
1, 209686, Control_c, 0, 67, 61
1, 209700, Control_c, 0, 64, 55
1, 209700, Control_c, 0, 67, 56
1, 209715, Control_c, 0, 67, 52
1, 209730, Control_c, 0, 67, 47
1, 209745, Control_c, 0, 67, 43
1, 209760, Control_c, 0, 67, 41
1, 209774, Control_c, 0, 67, 38
1, 209785, Note_on_c, 0, 57, 56
1, 209786, Note_on_c, 0, 45, 51
1, 209789, Control_c, 0, 64, 55
1, 209789, Control_c, 0, 67, 35
1, 209804, Control_c, 0, 64, 54
1, 209804, Control_c, 0, 67, 32
1, 209815, Note_off_c, 0, 45, 55
1, 209819, Note_off_c, 0, 57, 63
1, 209819, Control_c, 0, 67, 28
1, 209834, Control_c, 0, 64, 54
1, 209834, Control_c, 0, 67, 25
1, 209848, Control_c, 0, 67, 21
1, 209863, Control_c, 0, 67, 17
1, 209878, Control_c, 0, 67, 11
1, 209893, Control_c, 0, 67, 0
1, 209917, Note_on_c, 0, 48, 67
1, 209922, Note_on_c, 0, 60, 62
1, 209946, Note_off_c, 0, 48, 65
1, 209949, Note_off_c, 0, 60, 65
1, 209952, Control_c, 0, 64, 53
1, 209967, Control_c, 0, 64, 50
1, 209982, Control_c, 0, 64, 47
1, 209997, Control_c, 0, 64, 44
1, 210012, Control_c, 0, 64, 44
1, 210032, Note_on_c, 0, 61, 73
1, 210040, Note_on_c, 0, 49, 66
1, 210058, Note_off_c, 0, 61, 66
1, 210065, Note_off_c, 0, 49, 66
1, 210086, Control_c, 0, 64, 44
1, 210116, Control_c, 0, 64, 44
1, 210131, Control_c, 0, 64, 40
1, 210141, Note_on_c, 0, 42, 74
1, 210145, Note_on_c, 0, 54, 72
1, 210146, Control_c, 0, 64, 32
1, 210160, Control_c, 0, 64, 26
1, 210174, Note_off_c, 0, 54, 65
1, 210179, Note_off_c, 0, 42, 62
1, 210205, Control_c, 0, 64, 27
1, 210220, Control_c, 0, 64, 31
1, 210235, Control_c, 0, 64, 36
1, 210250, Control_c, 0, 64, 36
1, 210251, Note_on_c, 0, 57, 75
1, 210252, Note_on_c, 0, 45, 75
1, 210265, Control_c, 0, 64, 26
1, 210286, Note_off_c, 0, 45, 64
1, 210286, Note_off_c, 0, 57, 64
1, 210286, Control_c, 0, 64, 0
1, 210368, Note_on_c, 0, 48, 84
1, 210370, Note_on_c, 0, 60, 80
1, 210392, Note_off_c, 0, 60, 72
1, 210399, Note_off_c, 0, 48, 62
1, 210468, Note_on_c, 0, 61, 78
1, 210476, Note_on_c, 0, 49, 74
1, 210491, Note_off_c, 0, 61, 68
1, 210501, Note_off_c, 0, 49, 66
1, 210568, Control_c, 0, 64, 31
1, 210578, Note_on_c, 0, 42, 72
1, 210581, Note_on_c, 0, 66, 77
1, 210583, Control_c, 0, 64, 45
1, 210584, Note_on_c, 0, 78, 85
1, 210584, Note_on_c, 0, 54, 76
1, 210598, Control_c, 0, 64, 45
1, 210603, Note_off_c, 0, 66, 68
1, 210612, Control_c, 0, 64, 33
1, 210614, Note_off_c, 0, 54, 67
1, 210619, Note_off_c, 0, 42, 60
1, 210627, Control_c, 0, 64, 0
1, 210630, Note_off_c, 0, 78, 61
1, 210688, Note_on_c, 0, 81, 92
1, 210690, Note_on_c, 0, 69, 84
1, 210691, Note_on_c, 0, 45, 72
1, 210691, Note_on_c, 0, 57, 71
1, 210709, Note_off_c, 0, 69, 71
1, 210716, Note_off_c, 0, 57, 67
1, 210718, Note_off_c, 0, 45, 65
1, 210725, Note_off_c, 0, 81, 63
1, 210800, Note_on_c, 0, 84, 95
1, 210801, Note_on_c, 0, 59, 66
1, 210804, Note_on_c, 0, 48, 65
1, 210804, Note_on_c, 0, 72, 83
1, 210822, Note_off_c, 0, 72, 70
1, 210827, Note_off_c, 0, 59, 66
1, 210830, Note_off_c, 0, 48, 64
1, 210841, Note_off_c, 0, 84, 65
1, 210865, Control_c, 0, 64, 23
1, 210880, Control_c, 0, 64, 60
1, 210894, Control_c, 0, 64, 67
1, 210908, Note_on_c, 0, 61, 92
1, 210909, Control_c, 0, 64, 71
1, 210914, Note_on_c, 0, 49, 76
1, 210915, Note_on_c, 0, 73, 98
1, 210917, Note_on_c, 0, 85, 101
1, 210924, Control_c, 0, 64, 76
1, 210939, Control_c, 0, 64, 82
1, 210940, Note_off_c, 0, 49, 66
1, 210943, Note_off_c, 0, 61, 61
1, 210947, Note_off_c, 0, 73, 63
1, 210953, Control_c, 0, 64, 91
1, 210968, Control_c, 0, 64, 99
1, 210983, Control_c, 0, 64, 105
1, 210993, Note_off_c, 0, 85, 61
1, 210998, Control_c, 0, 64, 108
1, 211013, Control_c, 0, 64, 111
1, 211035, Control_c, 0, 64, 114
1, 211050, Control_c, 0, 64, 116
1, 211080, Control_c, 0, 64, 116
1, 211095, Control_c, 0, 64, 115
1, 211109, Control_c, 0, 64, 108
1, 211111, Note_on_c, 0, 90, 104
1, 211115, Note_on_c, 0, 66, 93
1, 211120, Note_on_c, 0, 54, 80
1, 211120, Note_on_c, 0, 78, 81
1, 211124, Control_c, 0, 64, 97
1, 211139, Control_c, 0, 64, 81
1, 211153, Control_c, 0, 64, 66
1, 211168, Control_c, 0, 64, 0
1, 211346, Control_c, 0, 64, 34
1, 211361, Control_c, 0, 64, 54
1, 211376, Control_c, 0, 64, 63
1, 211391, Control_c, 0, 64, 65
1, 211406, Control_c, 0, 64, 67
1, 211420, Control_c, 0, 64, 69
1, 211435, Control_c, 0, 64, 71
1, 211450, Control_c, 0, 64, 74
1, 211465, Control_c, 0, 64, 78
1, 211479, Control_c, 0, 64, 81
1, 211494, Control_c, 0, 64, 84
1, 211509, Control_c, 0, 64, 87
1, 211524, Control_c, 0, 64, 91
1, 211539, Control_c, 0, 64, 95
1, 211546, Note_off_c, 0, 78, 53
1, 211553, Control_c, 0, 64, 100
1, 211568, Control_c, 0, 64, 105
1, 211583, Control_c, 0, 64, 112
1, 211597, Note_off_c, 0, 66, 63
1, 211599, Control_c, 0, 64, 127
1, 211812, Note_off_c, 0, 90, 63
1, 211834, Note_off_c, 0, 54, 59
1, 212015, Note_on_c, 0, 88, 93
1, 212028, Note_on_c, 0, 76, 67
1, 212210, Note_off_c, 0, 76, 60
1, 212236, Note_off_c, 0, 88, 60
1, 212274, Control_c, 0, 64, 113
1, 212289, Control_c, 0, 64, 93
1, 212303, Control_c, 0, 64, 76
1, 212310, Note_on_c, 0, 45, 45
1, 212311, Note_on_c, 0, 33, 42
1, 212315, Note_on_c, 0, 88, 65
1, 212318, Control_c, 0, 64, 65
1, 212336, Note_on_c, 0, 76, 50
1, 212348, Control_c, 0, 64, 68
1, 212363, Control_c, 0, 64, 69
1, 212377, Control_c, 0, 64, 71
1, 212393, Control_c, 0, 64, 75
1, 212395, Note_off_c, 0, 33, 60
1, 212408, Control_c, 0, 64, 79
1, 212423, Control_c, 0, 64, 84
1, 212426, Note_off_c, 0, 45, 59
1, 212438, Control_c, 0, 64, 88
1, 212444, Note_off_c, 0, 76, 58
1, 212453, Control_c, 0, 64, 90
1, 212467, Control_c, 0, 64, 93
1, 212482, Control_c, 0, 64, 96
1, 212497, Control_c, 0, 64, 99
1, 212512, Control_c, 0, 64, 103
1, 212533, Control_c, 0, 64, 105
1, 212548, Control_c, 0, 64, 107
1, 212563, Control_c, 0, 64, 108
1, 212578, Control_c, 0, 64, 110
1, 212593, Control_c, 0, 64, 111
1, 212608, Note_on_c, 0, 69, 61
1, 212612, Note_on_c, 0, 66, 59
1, 212623, Control_c, 0, 64, 112
1, 212635, Note_off_c, 0, 88, 52
1, 212636, Note_off_c, 0, 66, 62
1, 212638, Control_c, 0, 64, 113
1, 212642, Note_off_c, 0, 69, 60
1, 212652, Control_c, 0, 64, 113
1, 212667, Control_c, 0, 64, 114
1, 212697, Control_c, 0, 64, 115
1, 212712, Control_c, 0, 64, 116
1, 212719, Note_on_c, 0, 86, 83
1, 212724, Note_on_c, 0, 74, 63
1, 212726, Control_c, 0, 64, 117
1, 212735, Note_on_c, 0, 66, 56
1, 212741, Control_c, 0, 64, 120
1, 212748, Note_on_c, 0, 69, 47
1, 212753, Note_off_c, 0, 74, 68
1, 212756, Control_c, 0, 64, 122
1, 212757, Note_off_c, 0, 66, 64
1, 212769, Note_off_c, 0, 69, 62
1, 212772, Note_off_c, 0, 86, 64
1, 212843, Note_on_c, 0, 66, 61
1, 212843, Note_on_c, 0, 69, 60
1, 212844, Note_on_c, 0, 86, 90
1, 212849, Note_on_c, 0, 74, 78
1, 212873, Note_off_c, 0, 69, 67
1, 212877, Note_off_c, 0, 66, 63
1, 212897, Note_off_c, 0, 74, 62
1, 212952, Note_on_c, 0, 66, 77
1, 212954, Note_on_c, 0, 69, 72
1, 212963, Control_c, 0, 64, 123
1, 212978, Control_c, 0, 64, 124
1, 212980, Note_off_c, 0, 69, 68
1, 212983, Note_off_c, 0, 66, 53
1, 212992, Control_c, 0, 64, 127
1, 213004, Note_off_c, 0, 86, 62
1, 213065, Note_on_c, 0, 85, 90
1, 213069, Note_on_c, 0, 73, 84
1, 213073, Note_on_c, 0, 69, 61
1, 213076, Note_on_c, 0, 66, 61
1, 213097, Note_off_c, 0, 66, 64
1, 213098, Note_off_c, 0, 69, 65
1, 213101, Note_off_c, 0, 73, 59
1, 213127, Note_off_c, 0, 85, 62
1, 213183, Note_on_c, 0, 66, 60
1, 213184, Note_on_c, 0, 69, 57
1, 213186, Control_c, 0, 64, 109
1, 213200, Note_on_c, 0, 85, 89
1, 213201, Control_c, 0, 64, 97
1, 213206, Note_on_c, 0, 73, 81
1, 213216, Control_c, 0, 64, 94
1, 213217, Note_off_c, 0, 69, 64
1, 213237, Note_off_c, 0, 66, 57
1, 213261, Control_c, 0, 64, 97
1, 213283, Control_c, 0, 64, 101
1, 213297, Control_c, 0, 64, 106
1, 213312, Control_c, 0, 64, 112
1, 213327, Control_c, 0, 64, 115
1, 213342, Control_c, 0, 64, 116
1, 213356, Control_c, 0, 64, 117
1, 213394, Note_off_c, 0, 85, 62
1, 213418, Note_off_c, 0, 73, 61
1, 213460, Control_c, 0, 64, 116
1, 213501, Note_on_c, 0, 83, 80
1, 213505, Control_c, 0, 64, 115
1, 213511, Note_on_c, 0, 71, 66
1, 213520, Control_c, 0, 64, 112
1, 213535, Control_c, 0, 64, 110
1, 213540, Note_off_c, 0, 71, 66
1, 213549, Control_c, 0, 64, 107
1, 213556, Note_off_c, 0, 83, 63
1, 213564, Control_c, 0, 64, 104
1, 213579, Control_c, 0, 64, 103
1, 213594, Control_c, 0, 64, 102
1, 213609, Control_c, 0, 64, 101
1, 213623, Control_c, 0, 64, 99
1, 213629, Note_on_c, 0, 56, 57
1, 213635, Note_on_c, 0, 83, 65
1, 213638, Control_c, 0, 64, 97
1, 213639, Note_on_c, 0, 44, 50
1, 213639, Note_on_c, 0, 80, 59
1, 213640, Note_on_c, 0, 71, 61
1, 213653, Note_on_c, 0, 78, 40
1, 213653, Control_c, 0, 64, 95
1, 213659, Note_off_c, 0, 56, 65
1, 213663, Note_off_c, 0, 71, 60
1, 213667, Note_off_c, 0, 80, 60
1, 213667, Control_c, 0, 64, 93
1, 213674, Note_off_c, 0, 44, 62
1, 213675, Note_off_c, 0, 83, 57
1, 213681, Note_off_c, 0, 78, 55
1, 213682, Control_c, 0, 64, 90
1, 213697, Control_c, 0, 64, 88
1, 213712, Control_c, 0, 64, 85
1, 213727, Control_c, 0, 64, 83
1, 213741, Control_c, 0, 64, 80
1, 213743, Note_on_c, 0, 71, 68
1, 213749, Note_on_c, 0, 80, 66
1, 213751, Note_on_c, 0, 78, 64
1, 213753, Note_on_c, 0, 59, 68
1, 213753, Note_on_c, 0, 83, 71
1, 213755, Note_on_c, 0, 47, 64
1, 213756, Control_c, 0, 64, 78
1, 213768, Note_off_c, 0, 71, 65
1, 213771, Control_c, 0, 64, 75
1, 213778, Note_off_c, 0, 47, 61
1, 213779, Note_off_c, 0, 78, 65
1, 213780, Note_off_c, 0, 59, 66
1, 213782, Note_off_c, 0, 80, 61
1, 213782, Note_off_c, 0, 83, 63
1, 213786, Control_c, 0, 64, 72
1, 213801, Control_c, 0, 64, 70
1, 213815, Control_c, 0, 64, 68
1, 213830, Control_c, 0, 64, 66
1, 213845, Control_c, 0, 64, 64
1, 213857, Note_on_c, 0, 71, 84
1, 213860, Control_c, 0, 64, 64
1, 213862, Note_on_c, 0, 61, 84
1, 213863, Note_on_c, 0, 49, 74
1, 213863, Note_on_c, 0, 83, 74
1, 213865, Note_on_c, 0, 80, 73
1, 213867, Note_on_c, 0, 78, 70
1, 213875, Control_c, 0, 64, 63
1, 213875, Note_off_c, 0, 71, 67
1, 213889, Control_c, 0, 64, 62
1, 213890, Note_off_c, 0, 78, 69
1, 213892, Note_off_c, 0, 83, 63
1, 213893, Note_off_c, 0, 61, 61
1, 213893, Note_off_c, 0, 80, 62
1, 213904, Control_c, 0, 64, 57
1, 213919, Control_c, 0, 64, 49
1, 213928, Note_off_c, 0, 49, 60
1, 213934, Control_c, 0, 64, 51
1, 213948, Control_c, 0, 64, 58
1, 213961, Note_on_c, 0, 71, 88
1, 213963, Control_c, 0, 64, 61
1, 213965, Note_on_c, 0, 62, 85
1, 213967, Note_on_c, 0, 83, 76
1, 213971, Note_on_c, 0, 50, 78
1, 213972, Note_on_c, 0, 78, 75
1, 213973, Note_on_c, 0, 80, 75
1, 213978, Control_c, 0, 64, 64
1, 213991, Note_off_c, 0, 62, 62
1, 213994, Control_c, 0, 64, 64
1, 213995, Note_off_c, 0, 71, 65
1, 213998, Note_off_c, 0, 78, 64
1, 214000, Note_off_c, 0, 50, 70
1, 214002, Note_off_c, 0, 80, 61
1, 214003, Note_off_c, 0, 83, 64
1, 214009, Control_c, 0, 64, 62
1, 214031, Control_c, 0, 64, 45
1, 214045, Control_c, 0, 64, 0
1, 214079, Note_on_c, 0, 56, 94
1, 214082, Note_on_c, 0, 44, 86
1, 214083, Note_on_c, 0, 71, 90
1, 214088, Note_on_c, 0, 83, 79
1, 214091, Note_on_c, 0, 80, 76
1, 214092, Note_on_c, 0, 78, 81
1, 214104, Control_c, 0, 64, 11
1, 214107, Note_off_c, 0, 71, 62
1, 214119, Control_c, 0, 64, 62
1, 214120, Note_off_c, 0, 78, 61
1, 214122, Note_off_c, 0, 56, 66
1, 214123, Note_off_c, 0, 80, 62
1, 214128, Note_off_c, 0, 83, 65
1, 214134, Note_off_c, 0, 44, 63
1, 214134, Control_c, 0, 64, 66
1, 214149, Control_c, 0, 64, 64
1, 214164, Control_c, 0, 64, 36
1, 214179, Control_c, 0, 64, 0
1, 214188, Note_on_c, 0, 71, 95
1, 214189, Note_on_c, 0, 59, 90
1, 214191, Note_on_c, 0, 47, 83
1, 214194, Note_on_c, 0, 83, 83
1, 214199, Note_on_c, 0, 78, 83
1, 214199, Note_on_c, 0, 80, 75
1, 214200, Note_on_c, 0, 57, 63
1, 214221, Note_off_c, 0, 59, 64
1, 214223, Note_off_c, 0, 57, 60
1, 214224, Note_off_c, 0, 71, 67
1, 214228, Note_off_c, 0, 47, 63
1, 214233, Note_off_c, 0, 78, 63
1, 214233, Note_off_c, 0, 80, 62
1, 214235, Note_off_c, 0, 83, 65
1, 214238, Control_c, 0, 64, 55
1, 214253, Control_c, 0, 64, 66
1, 214268, Control_c, 0, 64, 65
1, 214283, Control_c, 0, 64, 36
1, 214295, Note_on_c, 0, 61, 101
1, 214297, Control_c, 0, 64, 0
1, 214298, Note_on_c, 0, 71, 100
1, 214298, Note_on_c, 0, 49, 88
1, 214303, Note_on_c, 0, 83, 84
1, 214306, Note_on_c, 0, 78, 79
1, 214310, Note_on_c, 0, 80, 75
1, 214328, Note_off_c, 0, 71, 63
1, 214339, Note_off_c, 0, 80, 59
1, 214342, Note_off_c, 0, 83, 65
1, 214343, Note_off_c, 0, 78, 62
1, 214343, Note_off_c, 0, 61, 62
1, 214357, Control_c, 0, 64, 53
1, 214369, Note_off_c, 0, 49, 57
1, 214371, Control_c, 0, 64, 64
1, 214375, Poly_aftertouch_c, 0, 82, 0
1, 214386, Control_c, 0, 64, 65
1, 214401, Control_c, 0, 64, 64
1, 214406, Note_on_c, 0, 62, 93
1, 214408, Note_on_c, 0, 71, 99
1, 214411, Note_on_c, 0, 83, 82
1, 214414, Note_on_c, 0, 50, 81
1, 214414, Note_on_c, 0, 78, 77
1, 214415, Note_on_c, 0, 80, 80
1, 214416, Control_c, 0, 64, 64
1, 214431, Control_c, 0, 64, 63
1, 214440, Note_off_c, 0, 62, 58
1, 214441, Note_off_c, 0, 71, 65
1, 214445, Control_c, 0, 64, 64
1, 214447, Note_off_c, 0, 50, 67
1, 214450, Note_off_c, 0, 78, 61
1, 214453, Note_off_c, 0, 83, 63
1, 214458, Note_off_c, 0, 80, 60
1, 214460, Control_c, 0, 64, 64
1, 214475, Control_c, 0, 64, 65
1, 214504, Control_c, 0, 64, 65
1, 214513, Note_on_c, 0, 56, 95
1, 214516, Note_on_c, 0, 71, 102
1, 214516, Note_on_c, 0, 44, 89
1, 214520, Note_on_c, 0, 83, 89
1, 214521, Note_on_c, 0, 80, 70
1, 214522, Note_on_c, 0, 78, 81
1, 214551, Note_off_c, 0, 71, 64
1, 214559, Note_on_c, 0, 46, 23
1, 214563, Control_c, 0, 64, 64
1, 214565, Note_off_c, 0, 56, 64
1, 214569, Note_off_c, 0, 83, 62
1, 214572, Note_off_c, 0, 78, 60
1, 214573, Note_off_c, 0, 80, 64
1, 214576, Note_off_c, 0, 44, 62
1, 214578, Control_c, 0, 64, 57
1, 214593, Control_c, 0, 64, 0
1, 214604, Note_off_c, 0, 46, 38
1, 214605, Poly_aftertouch_c, 0, 82, 0
1, 214627, Note_on_c, 0, 59, 90
1, 214630, Note_on_c, 0, 71, 96
1, 214632, Note_on_c, 0, 47, 80
1, 214632, Note_on_c, 0, 83, 89
1, 214635, Note_on_c, 0, 78, 70
1, 214647, Note_on_c, 0, 80, 52
1, 214656, Note_off_c, 0, 59, 65
1, 214657, Note_off_c, 0, 47, 70
1, 214662, Note_off_c, 0, 71, 69
1, 214669, Note_off_c, 0, 80, 59
1, 214670, Note_off_c, 0, 78, 63
1, 214679, Note_off_c, 0, 83, 67
1, 214737, Note_on_c, 0, 61, 96
1, 214742, Note_on_c, 0, 49, 85
1, 214745, Note_on_c, 0, 73, 95
1, 214748, Note_on_c, 0, 85, 97
1, 214790, Note_off_c, 0, 61, 63
1, 214796, Note_off_c, 0, 73, 62
1, 214806, Note_off_c, 0, 49, 60
1, 214809, Control_c, 0, 64, 58
1, 214810, Note_off_c, 0, 85, 63
1, 214824, Control_c, 0, 64, 66
1, 214839, Control_c, 0, 64, 70
1, 214854, Control_c, 0, 64, 73
1, 214868, Control_c, 0, 64, 78
1, 214876, Note_on_c, 0, 62, 95
1, 214881, Note_on_c, 0, 86, 106
1, 214882, Note_on_c, 0, 74, 103
1, 214883, Control_c, 0, 64, 86
1, 214885, Note_on_c, 0, 50, 80
1, 214898, Control_c, 0, 64, 97
1, 214904, Note_off_c, 0, 50, 68
1, 214909, Note_off_c, 0, 74, 66
1, 214913, Control_c, 0, 64, 107
1, 214918, Note_off_c, 0, 62, 60
1, 214918, Note_off_c, 0, 86, 66
1, 214927, Control_c, 0, 64, 111
1, 214942, Control_c, 0, 64, 127
1, 215095, Note_on_c, 0, 92, 106
1, 215097, Note_on_c, 0, 68, 98
1, 215097, Note_on_c, 0, 80, 101
1, 215100, Note_on_c, 0, 56, 94
1, 215106, Control_c, 0, 64, 88
1, 215120, Control_c, 0, 64, 62
1, 215135, Control_c, 0, 64, 0
1, 215239, Control_c, 0, 64, 17
1, 215254, Control_c, 0, 64, 55
1, 215268, Control_c, 0, 64, 64
1, 215283, Control_c, 0, 64, 67
1, 215298, Control_c, 0, 64, 69
1, 215312, Control_c, 0, 64, 72
1, 215327, Control_c, 0, 64, 75
1, 215342, Control_c, 0, 64, 79
1, 215357, Control_c, 0, 64, 83
1, 215372, Control_c, 0, 64, 86
1, 215387, Control_c, 0, 64, 90
1, 215402, Control_c, 0, 64, 95
1, 215417, Control_c, 0, 64, 101
1, 215432, Control_c, 0, 64, 106
1, 215446, Control_c, 0, 64, 113
1, 215461, Control_c, 0, 64, 127
1, 215490, Note_off_c, 0, 80, 55
1, 215501, Note_off_c, 0, 68, 58
1, 215689, Note_off_c, 0, 56, 63
1, 215809, Note_off_c, 0, 92, 64
1, 215888, Note_on_c, 0, 90, 97
1, 215893, Note_on_c, 0, 78, 82
1, 216056, Note_off_c, 0, 78, 61
1, 216070, Note_off_c, 0, 90, 59
1, 216107, Control_c, 0, 64, 123
1, 216122, Control_c, 0, 64, 85
1, 216137, Control_c, 0, 64, 66
1, 216140, Note_on_c, 0, 90, 72
1, 216146, Note_on_c, 0, 49, 47
1, 216148, Note_on_c, 0, 37, 47
1, 216151, Control_c, 0, 64, 56
1, 216166, Control_c, 0, 64, 64
1, 216181, Control_c, 0, 64, 66
1, 216184, Note_on_c, 0, 78, 51
1, 216196, Control_c, 0, 64, 67
1, 216211, Control_c, 0, 64, 71
1, 216225, Control_c, 0, 64, 75
1, 216227, Note_off_c, 0, 37, 62
1, 216240, Note_off_c, 0, 49, 63
1, 216240, Control_c, 0, 64, 80
1, 216244, Note_off_c, 0, 78, 55
1, 216255, Control_c, 0, 64, 84
1, 216277, Control_c, 0, 64, 87
1, 216292, Control_c, 0, 64, 91
1, 216307, Control_c, 0, 64, 94
1, 216322, Control_c, 0, 64, 98
1, 216337, Control_c, 0, 64, 101
1, 216351, Control_c, 0, 64, 105
1, 216366, Control_c, 0, 64, 111
1, 216381, Control_c, 0, 64, 116
1, 216396, Control_c, 0, 64, 122
1, 216411, Control_c, 0, 64, 127
1, 216449, Note_on_c, 0, 71, 52
1, 216457, Note_on_c, 0, 68, 48
1, 216472, Note_off_c, 0, 90, 64
1, 216489, Note_off_c, 0, 71, 63
1, 216490, Note_off_c, 0, 68, 63
1, 216569, Note_on_c, 0, 89, 81
1, 216579, Note_on_c, 0, 77, 54
1, 216593, Note_on_c, 0, 68, 53
1, 216605, Note_on_c, 0, 71, 50
1, 216605, Note_off_c, 0, 77, 61
1, 216626, Note_off_c, 0, 68, 62
1, 216627, Note_off_c, 0, 71, 62
1, 216629, Note_off_c, 0, 89, 61
1, 216685, Note_on_c, 0, 89, 86
1, 216695, Note_on_c, 0, 77, 65
1, 216696, Note_on_c, 0, 71, 66
1, 216699, Note_on_c, 0, 68, 68
1, 216725, Note_off_c, 0, 71, 68
1, 216733, Note_off_c, 0, 68, 64
1, 216798, Note_on_c, 0, 71, 77
1, 216801, Note_on_c, 0, 68, 81
1, 216818, Note_off_c, 0, 77, 59
1, 216820, Note_off_c, 0, 89, 62
1, 216835, Note_off_c, 0, 71, 62
1, 216852, Note_off_c, 0, 68, 62
1, 216911, Note_on_c, 0, 86, 96
1, 216912, Note_on_c, 0, 68, 66
1, 216916, Note_on_c, 0, 74, 84
1, 216923, Note_on_c, 0, 71, 61
1, 216936, Note_off_c, 0, 74, 72
1, 216942, Note_off_c, 0, 71, 67
1, 216954, Note_off_c, 0, 68, 57
1, 217017, Note_off_c, 0, 86, 0
1, 217031, Note_on_c, 0, 85, 96
1, 217033, Note_on_c, 0, 71, 63
1, 217035, Note_on_c, 0, 73, 98
1, 217041, Poly_aftertouch_c, 0, 86, 0
1, 217049, Note_on_c, 0, 68, 70
1, 217055, Note_off_c, 0, 71, 72
1, 217071, Note_off_c, 0, 68, 68
1, 217085, Control_c, 0, 64, 104
1, 217100, Control_c, 0, 64, 100
1, 217130, Control_c, 0, 64, 102
1, 217145, Control_c, 0, 64, 108
1, 217160, Control_c, 0, 64, 120
1, 217174, Control_c, 0, 64, 127
1, 217200, Note_off_c, 0, 85, 65
1, 217221, Note_off_c, 0, 73, 60
1, 217300, Note_on_c, 0, 83, 84
1, 217309, Note_on_c, 0, 71, 74
1, 217338, Note_off_c, 0, 83, 63
1, 217356, Note_off_c, 0, 71, 60
1, 217426, Note_on_c, 0, 54, 65
1, 217427, Control_c, 0, 64, 115
1, 217435, Note_on_c, 0, 42, 50
1, 217441, Note_on_c, 0, 69, 61
1, 217442, Control_c, 0, 64, 108
1, 217443, Note_on_c, 0, 81, 58
1, 217448, Note_on_c, 0, 73, 60
1, 217452, Note_on_c, 0, 83, 55
1, 217455, Note_on_c, 0, 78, 50
1, 217457, Control_c, 0, 64, 99
1, 217461, Note_off_c, 0, 54, 64
1, 217471, Note_off_c, 0, 42, 62
1, 217471, Note_off_c, 0, 73, 62
1, 217471, Note_off_c, 0, 83, 62
1, 217471, Control_c, 0, 64, 89
1, 217473, Note_off_c, 0, 69, 51
1, 217479, Note_off_c, 0, 78, 60
1, 217481, Note_off_c, 0, 81, 53
1, 217486, Control_c, 0, 64, 79
1, 217501, Control_c, 0, 64, 70
1, 217515, Control_c, 0, 64, 64
1, 217545, Control_c, 0, 64, 65
1, 217547, Note_on_c, 0, 57, 67
1, 217549, Note_on_c, 0, 45, 66
1, 217553, Note_on_c, 0, 69, 60
1, 217556, Note_on_c, 0, 78, 63
1, 217558, Note_on_c, 0, 73, 62
1, 217560, Note_on_c, 0, 81, 73
1, 217560, Control_c, 0, 64, 66
1, 217575, Control_c, 0, 64, 68
1, 217580, Note_off_c, 0, 57, 63
1, 217582, Note_off_c, 0, 69, 66
1, 217583, Note_off_c, 0, 45, 66
1, 217586, Note_off_c, 0, 78, 64
1, 217588, Note_off_c, 0, 73, 65
1, 217588, Note_off_c, 0, 81, 61
1, 217589, Control_c, 0, 64, 70
1, 217604, Control_c, 0, 64, 72
1, 217619, Control_c, 0, 64, 74
1, 217633, Control_c, 0, 64, 74
1, 217648, Control_c, 0, 64, 73
1, 217660, Note_on_c, 0, 69, 73
1, 217660, Note_on_c, 0, 48, 79
1, 217663, Note_on_c, 0, 73, 72
1, 217663, Control_c, 0, 64, 69
1, 217663, Note_on_c, 0, 60, 76
1, 217666, Note_on_c, 0, 81, 75
1, 217678, Control_c, 0, 64, 58
1, 217680, Note_on_c, 0, 78, 61
1, 217689, Note_off_c, 0, 69, 62
1, 217693, Note_off_c, 0, 73, 65
1, 217693, Control_c, 0, 64, 0
1, 217693, Note_off_c, 0, 60, 67
1, 217699, Note_off_c, 0, 48, 60
1, 217705, Note_off_c, 0, 81, 63
1, 217705, Note_off_c, 0, 78, 66
1, 217707, Control_c, 0, 64, 19
1, 217722, Control_c, 0, 64, 56
1, 217737, Control_c, 0, 64, 65
1, 217752, Control_c, 0, 64, 68
1, 217774, Note_on_c, 0, 61, 81
1, 217774, Control_c, 0, 64, 69
1, 217776, Note_on_c, 0, 81, 72
1, 217777, Note_on_c, 0, 49, 79
1, 217780, Note_on_c, 0, 69, 79
1, 217780, Note_on_c, 0, 78, 73
1, 217786, Note_on_c, 0, 73, 78
1, 217789, Control_c, 0, 64, 67
1, 217797, Note_off_c, 0, 61, 69
1, 217803, Control_c, 0, 64, 60
1, 217804, Note_off_c, 0, 49, 67
1, 217805, Note_off_c, 0, 69, 63
1, 217809, Note_off_c, 0, 73, 69
1, 217818, Control_c, 0, 64, 49
1, 217820, Note_off_c, 0, 81, 63
1, 217823, Note_off_c, 0, 78, 59
1, 217833, Control_c, 0, 64, 57
1, 217848, Control_c, 0, 64, 63
1, 217863, Control_c, 0, 64, 67
1, 217878, Control_c, 0, 64, 68
1, 217886, Note_on_c, 0, 42, 81
1, 217886, Note_on_c, 0, 54, 90
1, 217886, Note_on_c, 0, 69, 87
1, 217890, Note_on_c, 0, 81, 72
1, 217893, Note_on_c, 0, 73, 81
1, 217893, Control_c, 0, 64, 65
1, 217896, Note_on_c, 0, 78, 68
1, 217908, Control_c, 0, 64, 53
1, 217917, Note_off_c, 0, 69, 56
1, 217919, Note_off_c, 0, 73, 65
1, 217922, Control_c, 0, 64, 14
1, 217926, Note_off_c, 0, 78, 64
1, 217929, Note_off_c, 0, 54, 65
1, 217929, Note_off_c, 0, 81, 65
1, 217937, Note_off_c, 0, 42, 62
1, 217937, Control_c, 0, 64, 52
1, 217952, Control_c, 0, 64, 64
1, 217967, Control_c, 0, 64, 68
1, 217982, Control_c, 0, 64, 65
1, 217996, Note_on_c, 0, 57, 90
1, 217996, Note_on_c, 0, 69, 93
1, 217997, Control_c, 0, 64, 61
1, 218000, Note_on_c, 0, 81, 79
1, 218001, Note_on_c, 0, 45, 84
1, 218006, Note_on_c, 0, 73, 85
1, 218010, Note_on_c, 0, 78, 73
1, 218012, Control_c, 0, 64, 55
1, 218027, Control_c, 0, 64, 63
1, 218030, Note_off_c, 0, 73, 66
1, 218031, Note_off_c, 0, 69, 62
1, 218034, Note_off_c, 0, 57, 63
1, 218034, Note_off_c, 0, 78, 67
1, 218039, Note_off_c, 0, 45, 61
1, 218039, Note_off_c, 0, 81, 65
1, 218042, Control_c, 0, 64, 66
1, 218057, Control_c, 0, 64, 67
1, 218072, Control_c, 0, 64, 65
1, 218087, Control_c, 0, 64, 55
1, 218101, Control_c, 0, 64, 11
1, 218106, Note_on_c, 0, 69, 94
1, 218108, Note_on_c, 0, 60, 93
1, 218112, Note_on_c, 0, 81, 80
1, 218113, Note_on_c, 0, 48, 80
1, 218116, Control_c, 0, 64, 35
1, 218116, Note_on_c, 0, 73, 87
1, 218121, Note_on_c, 0, 78, 76
1, 218126, Note_on_c, 0, 47, 58
1, 218131, Control_c, 0, 64, 55
1, 218142, Note_off_c, 0, 73, 63
1, 218145, Control_c, 0, 64, 57
1, 218146, Note_off_c, 0, 78, 64
1, 218147, Note_off_c, 0, 69, 62
1, 218149, Note_off_c, 0, 48, 61
1, 218149, Note_off_c, 0, 60, 67
1, 218151, Note_off_c, 0, 47, 60
1, 218155, Note_off_c, 0, 81, 63
1, 218160, Control_c, 0, 64, 53
1, 218175, Control_c, 0, 64, 29
1, 218190, Control_c, 0, 64, 0
1, 218219, Note_on_c, 0, 69, 94
1, 218221, Note_on_c, 0, 61, 89
1, 218224, Note_on_c, 0, 81, 81
1, 218227, Note_on_c, 0, 49, 83
1, 218229, Note_on_c, 0, 73, 85
1, 218233, Note_on_c, 0, 78, 77
1, 218241, Note_off_c, 0, 61, 71
1, 218252, Note_off_c, 0, 49, 66
1, 218258, Note_off_c, 0, 69, 63
1, 218261, Note_off_c, 0, 73, 62
1, 218266, Note_off_c, 0, 78, 61
1, 218268, Note_off_c, 0, 81, 63
1, 218335, Note_on_c, 0, 42, 86
1, 218337, Note_on_c, 0, 54, 93
1, 218337, Note_on_c, 0, 69, 96
1, 218341, Note_on_c, 0, 81, 86
1, 218348, Note_on_c, 0, 73, 81
1, 218349, Note_on_c, 0, 78, 75
1, 218367, Control_c, 0, 64, 14
1, 218377, Note_off_c, 0, 73, 61
1, 218381, Note_off_c, 0, 69, 62
1, 218383, Note_off_c, 0, 54, 66
1, 218383, Control_c, 0, 64, 28
1, 218388, Note_off_c, 0, 78, 58
1, 218392, Note_off_c, 0, 42, 62
1, 218394, Note_off_c, 0, 81, 62
1, 218398, Control_c, 0, 64, 31
1, 218412, Control_c, 0, 64, 32
1, 218442, Control_c, 0, 64, 31
1, 218456, Control_c, 0, 64, 30
1, 218459, Note_on_c, 0, 69, 100
1, 218460, Note_on_c, 0, 81, 88
1, 218462, Note_on_c, 0, 57, 86
1, 218465, Note_on_c, 0, 45, 82
1, 218468, Note_on_c, 0, 73, 84
1, 218471, Control_c, 0, 64, 29
1, 218476, Note_on_c, 0, 78, 78
1, 218486, Control_c, 0, 64, 21
1, 218499, Note_off_c, 0, 57, 61
1, 218501, Control_c, 0, 64, 0
1, 218502, Note_off_c, 0, 69, 64
1, 218506, Note_off_c, 0, 45, 62
1, 218515, Note_off_c, 0, 78, 57
1, 218523, Note_off_c, 0, 81, 65
1, 218525, Note_off_c, 0, 73, 61
1, 218601, Note_on_c, 0, 60, 88
1, 218602, Note_on_c, 0, 72, 97
1, 218602, Note_on_c, 0, 84, 98
1, 218603, Note_on_c, 0, 48, 84
1, 218631, Note_off_c, 0, 72, 69
1, 218636, Note_off_c, 0, 48, 61
1, 218641, Note_off_c, 0, 60, 64
1, 218650, Note_off_c, 0, 84, 62
1, 218753, Note_on_c, 0, 61, 104
1, 218757, Note_on_c, 0, 49, 81
1, 218757, Note_on_c, 0, 73, 99
1, 218757, Note_on_c, 0, 85, 106
1, 218760, Control_c, 0, 64, 63
1, 218775, Control_c, 0, 64, 74
1, 218779, Note_off_c, 0, 49, 67
1, 218779, Note_off_c, 0, 61, 58
1, 218781, Note_off_c, 0, 73, 68
1, 218791, Note_off_c, 0, 85, 69
1, 218791, Control_c, 0, 64, 86
1, 218806, Control_c, 0, 64, 102
1, 218821, Control_c, 0, 64, 127
1, 218899, Poly_aftertouch_c, 0, 49, 127
1, 218927, Poly_aftertouch_c, 0, 49, 0
1, 219088, Note_on_c, 0, 97, 103
1, 219090, Note_on_c, 0, 73, 100
1, 219090, Note_on_c, 0, 85, 103
1, 219092, Note_on_c, 0, 61, 92
1, 219132, Control_c, 0, 64, 84
1, 219147, Control_c, 0, 64, 52
1, 219161, Control_c, 0, 64, 0
1, 219273, Control_c, 0, 64, 52
1, 219287, Control_c, 0, 64, 62
1, 219302, Control_c, 0, 64, 65
1, 219317, Control_c, 0, 64, 69
1, 219332, Control_c, 0, 64, 71
1, 219347, Control_c, 0, 64, 74
1, 219361, Control_c, 0, 64, 77
1, 219376, Control_c, 0, 64, 80
1, 219391, Control_c, 0, 64, 83
1, 219406, Control_c, 0, 64, 87
1, 219420, Control_c, 0, 64, 92
1, 219435, Control_c, 0, 64, 97
1, 219450, Control_c, 0, 64, 102
1, 219465, Control_c, 0, 64, 107
1, 219480, Control_c, 0, 64, 114
1, 219494, Control_c, 0, 64, 127
1, 219573, Note_off_c, 0, 73, 65
1, 219682, Note_off_c, 0, 85, 57
1, 219710, Note_off_c, 0, 61, 60
1, 219927, Note_off_c, 0, 97, 57
1, 220015, Note_on_c, 0, 85, 93
1, 220018, Note_on_c, 0, 97, 103
1, 220142, Note_off_c, 0, 85, 62
1, 220151, Note_off_c, 0, 97, 66
1, 220199, Control_c, 0, 64, 99
1, 220203, Note_on_c, 0, 97, 98
1, 220204, Note_on_c, 0, 44, 88
1, 220207, Note_on_c, 0, 32, 75
1, 220212, Note_on_c, 0, 85, 92
1, 220214, Control_c, 0, 64, 74
1, 220229, Control_c, 0, 64, 57
1, 220243, Control_c, 0, 64, 63
1, 220251, Note_off_c, 0, 44, 65
1, 220252, Note_off_c, 0, 32, 62
1, 220258, Control_c, 0, 64, 67
1, 220273, Control_c, 0, 64, 72
1, 220288, Control_c, 0, 64, 78
1, 220303, Control_c, 0, 64, 86
1, 220317, Control_c, 0, 64, 94
1, 220332, Control_c, 0, 64, 100
1, 220347, Control_c, 0, 64, 104
1, 220362, Control_c, 0, 64, 110
1, 220377, Control_c, 0, 64, 118
1, 220385, Note_off_c, 0, 85, 61
1, 220393, Control_c, 0, 64, 127
1, 220533, Note_on_c, 0, 72, 75
1, 220536, Note_on_c, 0, 63, 65
1, 220536, Note_on_c, 0, 66, 67
1, 220568, Note_off_c, 0, 63, 65
1, 220569, Note_off_c, 0, 66, 63
1, 220573, Note_off_c, 0, 72, 60
1, 220587, Note_off_c, 0, 97, 64
1, 220653, Note_on_c, 0, 96, 95
1, 220654, Note_on_c, 0, 84, 93
1, 220660, Note_on_c, 0, 63, 61
1, 220663, Note_on_c, 0, 66, 64
1, 220663, Note_on_c, 0, 72, 71
1, 220689, Note_off_c, 0, 72, 67
1, 220691, Note_off_c, 0, 66, 66
1, 220692, Note_off_c, 0, 63, 66
1, 220692, Note_off_c, 0, 84, 66
1, 220707, Note_off_c, 0, 96, 64
1, 220778, Note_on_c, 0, 72, 67
1, 220782, Note_on_c, 0, 96, 94
1, 220783, Note_on_c, 0, 63, 63
1, 220783, Note_on_c, 0, 66, 66
1, 220785, Note_on_c, 0, 84, 91
1, 220803, Note_on_c, 0, 95, 63
1, 220804, Note_off_c, 0, 95, 127
1, 220805, Note_off_c, 0, 72, 66
1, 220811, Note_off_c, 0, 66, 65
1, 220813, Note_off_c, 0, 63, 65
1, 220889, Note_on_c, 0, 72, 77
1, 220891, Note_on_c, 0, 63, 69
1, 220898, Note_on_c, 0, 66, 70
1, 220914, Note_off_c, 0, 84, 61
1, 220921, Note_off_c, 0, 96, 64
1, 220922, Note_off_c, 0, 66, 66
1, 220923, Note_off_c, 0, 63, 62
1, 220923, Note_off_c, 0, 72, 55
1, 221007, Note_on_c, 0, 93, 100
1, 221014, Note_on_c, 0, 63, 58
1, 221014, Note_on_c, 0, 81, 75
1, 221017, Note_on_c, 0, 66, 60
1, 221019, Note_on_c, 0, 72, 58
1, 221033, Note_off_c, 0, 81, 72
1, 221038, Note_off_c, 0, 72, 65
1, 221041, Note_off_c, 0, 66, 66
1, 221046, Note_off_c, 0, 63, 65
1, 221121, Note_on_c, 0, 72, 69
1, 221126, Note_on_c, 0, 92, 94
1, 221129, Note_on_c, 0, 63, 61
1, 221134, Note_on_c, 0, 80, 86
1, 221137, Note_off_c, 0, 93, 35
1, 221138, Note_on_c, 0, 66, 63
1, 221154, Control_c, 0, 64, 113
1, 221163, Note_off_c, 0, 72, 61
1, 221169, Control_c, 0, 64, 107
1, 221172, Note_off_c, 0, 66, 57
1, 221184, Control_c, 0, 64, 108
1, 221199, Note_off_c, 0, 63, 57
1, 221199, Control_c, 0, 64, 111
1, 221214, Control_c, 0, 64, 127
1, 221290, Note_off_c, 0, 80, 62
1, 221302, Note_off_c, 0, 92, 62
1, 221395, Note_on_c, 0, 90, 81
1, 221397, Note_on_c, 0, 78, 74
1, 221422, Note_off_c, 0, 78, 65
1, 221449, Note_off_c, 0, 90, 65
1, 221533, Note_on_c, 0, 49, 63
1, 221533, Control_c, 0, 64, 114
1, 221534, Note_on_c, 0, 89, 78
1, 221539, Note_on_c, 0, 77, 69
1, 221542, Note_on_c, 0, 37, 50
1, 221548, Control_c, 0, 64, 97
1, 221556, Note_on_c, 0, 85, 53
1, 221559, Note_off_c, 0, 49, 63
1, 221560, Note_on_c, 0, 80, 46
1, 221562, Control_c, 0, 64, 86
1, 221572, Note_off_c, 0, 37, 56
1, 221577, Control_c, 0, 64, 79
1, 221578, Note_off_c, 0, 77, 58
1, 221578, Note_off_c, 0, 85, 61
1, 221584, Note_off_c, 0, 80, 58
1, 221591, Note_off_c, 0, 89, 62
1, 221592, Control_c, 0, 64, 77
1, 221637, Control_c, 0, 64, 78
1, 221652, Control_c, 0, 64, 79
1, 221655, Note_on_c, 0, 41, 72
1, 221655, Note_on_c, 0, 89, 72
1, 221656, Note_on_c, 0, 53, 76
1, 221661, Note_on_c, 0, 80, 62
1, 221662, Note_on_c, 0, 77, 73
1, 221663, Note_on_c, 0, 85, 64
1, 221667, Control_c, 0, 64, 80
1, 221682, Note_off_c, 0, 53, 68
1, 221688, Note_off_c, 0, 41, 62
1, 221690, Note_off_c, 0, 77, 63
1, 221691, Note_off_c, 0, 80, 64
1, 221695, Note_off_c, 0, 85, 65
1, 221696, Control_c, 0, 64, 78
1, 221704, Note_off_c, 0, 89, 61
1, 221711, Control_c, 0, 64, 73
1, 221726, Control_c, 0, 64, 66
1, 221741, Control_c, 0, 64, 60
1, 221756, Control_c, 0, 64, 63
1, 221768, Note_on_c, 0, 55, 80
1, 221769, Note_on_c, 0, 89, 79
1, 221770, Control_c, 0, 64, 66
1, 221773, Note_on_c, 0, 43, 72
1, 221777, Note_on_c, 0, 77, 78
1, 221785, Control_c, 0, 64, 70
1, 221791, Note_on_c, 0, 85, 64
1, 221792, Note_on_c, 0, 80, 61
1, 221800, Control_c, 0, 64, 73
1, 221801, Note_off_c, 0, 55, 68
1, 221810, Note_off_c, 0, 80, 65
1, 221810, Note_off_c, 0, 43, 64
1, 221813, Note_off_c, 0, 77, 55
1, 221814, Control_c, 0, 64, 74
1, 221818, Note_off_c, 0, 85, 67
1, 221824, Note_off_c, 0, 89, 62
1, 221829, Control_c, 0, 64, 71
1, 221844, Control_c, 0, 64, 66
1, 221859, Control_c, 0, 64, 55
1, 221874, Control_c, 0, 64, 59
1, 221879, Note_on_c, 0, 56, 87
1, 221884, Note_on_c, 0, 89, 79
1, 221888, Control_c, 0, 64, 64
1, 221891, Note_on_c, 0, 77, 82
1, 221893, Note_on_c, 0, 44, 71
1, 221895, Note_on_c, 0, 80, 65
1, 221896, Note_on_c, 0, 85, 70
1, 221903, Control_c, 0, 64, 67
1, 221905, Note_off_c, 0, 56, 68
1, 221918, Control_c, 0, 64, 69
1, 221920, Note_off_c, 0, 44, 67
1, 221923, Note_off_c, 0, 80, 65
1, 221927, Note_off_c, 0, 85, 64
1, 221933, Note_off_c, 0, 77, 62
1, 221937, Note_off_c, 0, 89, 64
1, 221948, Control_c, 0, 64, 66
1, 221962, Control_c, 0, 64, 57
1, 221978, Control_c, 0, 64, 47
1, 221993, Control_c, 0, 64, 61
1, 222001, Note_on_c, 0, 37, 81
1, 222001, Note_on_c, 0, 49, 88
1, 222002, Note_on_c, 0, 89, 83
1, 222007, Note_on_c, 0, 77, 78
1, 222008, Control_c, 0, 64, 66
1, 222018, Note_on_c, 0, 85, 70
1, 222023, Note_on_c, 0, 80, 65
1, 222023, Control_c, 0, 64, 68
1, 222038, Control_c, 0, 64, 68
1, 222042, Note_off_c, 0, 85, 68
1, 222044, Note_off_c, 0, 80, 66
1, 222045, Note_off_c, 0, 49, 63
1, 222048, Note_off_c, 0, 37, 60
1, 222049, Note_off_c, 0, 77, 59
1, 222052, Control_c, 0, 64, 66
1, 222053, Note_off_c, 0, 89, 63
1, 222067, Control_c, 0, 64, 63
1, 222082, Control_c, 0, 64, 64
1, 222097, Control_c, 0, 64, 65
1, 222111, Control_c, 0, 64, 64
1, 222112, Note_on_c, 0, 89, 88
1, 222114, Note_on_c, 0, 77, 83
1, 222117, Note_on_c, 0, 41, 88
1, 222118, Note_on_c, 0, 53, 84
1, 222118, Note_on_c, 0, 80, 74
1, 222123, Note_on_c, 0, 85, 77
1, 222126, Control_c, 0, 64, 62
1, 222141, Control_c, 0, 64, 62
1, 222149, Note_off_c, 0, 53, 65
1, 222152, Note_off_c, 0, 85, 63
1, 222153, Note_off_c, 0, 80, 63
1, 222156, Note_off_c, 0, 77, 63
1, 222156, Control_c, 0, 64, 65
1, 222160, Note_off_c, 0, 89, 64
1, 222163, Note_off_c, 0, 41, 61
1, 222171, Control_c, 0, 64, 68
1, 222200, Control_c, 0, 64, 64
1, 222215, Control_c, 0, 64, 47
1, 222227, Note_on_c, 0, 89, 93
1, 222227, Note_on_c, 0, 77, 92
1, 222230, Control_c, 0, 64, 0
1, 222230, Note_on_c, 0, 55, 87
1, 222232, Note_on_c, 0, 43, 86
1, 222237, Note_on_c, 0, 80, 76
1, 222239, Note_on_c, 0, 85, 82
1, 222267, Control_c, 0, 64, 56
1, 222269, Note_off_c, 0, 80, 63
1, 222273, Note_off_c, 0, 55, 66
1, 222274, Note_off_c, 0, 85, 63
1, 222275, Note_off_c, 0, 77, 61
1, 222278, Note_off_c, 0, 43, 61
1, 222281, Note_off_c, 0, 89, 64
1, 222282, Control_c, 0, 64, 65
1, 222297, Control_c, 0, 64, 69
1, 222311, Control_c, 0, 64, 68
1, 222326, Control_c, 0, 64, 52
1, 222341, Control_c, 0, 64, 0
1, 222352, Note_on_c, 0, 56, 95
1, 222352, Note_on_c, 0, 77, 99
1, 222352, Note_on_c, 0, 89, 99
1, 222358, Note_on_c, 0, 44, 81
1, 222358, Note_on_c, 0, 80, 84
1, 222362, Note_on_c, 0, 85, 80
1, 222379, Note_off_c, 0, 56, 64
1, 222388, Note_off_c, 0, 44, 68
1, 222394, Note_off_c, 0, 77, 61
1, 222394, Note_off_c, 0, 80, 63
1, 222397, Note_off_c, 0, 85, 60
1, 222400, Note_off_c, 0, 89, 64
1, 222415, Control_c, 0, 64, 54
1, 222430, Control_c, 0, 64, 65
1, 222460, Control_c, 0, 64, 42
1, 222475, Control_c, 0, 64, 0
1, 222475, Note_on_c, 0, 77, 98
1, 222475, Note_on_c, 0, 89, 100
1, 222478, Note_on_c, 0, 37, 84
1, 222478, Note_on_c, 0, 49, 97
1, 222483, Note_on_c, 0, 80, 81
1, 222484, Note_on_c, 0, 85, 81
1, 222520, Note_off_c, 0, 80, 62
1, 222521, Note_off_c, 0, 49, 62
1, 222521, Note_off_c, 0, 77, 62
1, 222525, Note_off_c, 0, 89, 63
1, 222528, Note_off_c, 0, 37, 60
1, 222528, Note_off_c, 0, 85, 60
1, 222549, Control_c, 0, 64, 59
1, 222564, Control_c, 0, 64, 65
1, 222579, Control_c, 0, 64, 64
1, 222593, Control_c, 0, 64, 36
1, 222603, Note_on_c, 0, 77, 101
1, 222606, Note_on_c, 0, 53, 88
1, 222606, Note_on_c, 0, 89, 98
1, 222608, Control_c, 0, 64, 0
1, 222609, Note_on_c, 0, 41, 85
1, 222612, Note_on_c, 0, 80, 89
1, 222614, Note_on_c, 0, 85, 81
1, 222636, Note_off_c, 0, 53, 66
1, 222638, Note_off_c, 0, 77, 63
1, 222641, Note_on_c, 0, 52, 40
1, 222642, Note_off_c, 0, 52, 127
1, 222643, Note_off_c, 0, 41, 64
1, 222651, Note_off_c, 0, 85, 60
1, 222657, Note_off_c, 0, 89, 63
1, 222659, Note_off_c, 0, 80, 60
1, 222734, Note_on_c, 0, 55, 91
1, 222740, Note_on_c, 0, 43, 86
1, 222744, Note_on_c, 0, 79, 101
1, 222744, Note_on_c, 0, 91, 105
1, 222767, Note_off_c, 0, 55, 67
1, 222769, Note_off_c, 0, 43, 67
1, 222776, Note_off_c, 0, 79, 68
1, 222798, Note_off_c, 0, 91, 62
1, 222890, Control_c, 0, 64, 31
1, 222895, Note_on_c, 0, 56, 102
1, 222898, Note_on_c, 0, 44, 82
1, 222900, Note_on_c, 0, 92, 98
1, 222901, Note_on_c, 0, 80, 93
1, 222905, Control_c, 0, 64, 65
1, 222911, Note_on_c, 0, 94, 77
1, 222916, Note_off_c, 0, 80, 73
1, 222920, Control_c, 0, 64, 78
1, 222925, Note_off_c, 0, 44, 69
1, 222925, Note_off_c, 0, 94, 69
1, 222928, Note_on_c, 0, 82, 46
1, 222933, Note_on_c, 0, 93, 51
1, 222934, Note_off_c, 0, 93, 127
1, 222934, Control_c, 0, 64, 92
1, 222935, Note_off_c, 0, 56, 63
1, 222946, Note_off_c, 0, 92, 65
1, 222949, Control_c, 0, 64, 117
1, 222955, Note_off_c, 0, 82, 37
1, 222964, Control_c, 0, 64, 127
1, 223256, Note_on_c, 0, 100, 102
1, 223258, Note_on_c, 0, 64, 92
1, 223259, Note_on_c, 0, 88, 98
1, 223259, Note_on_c, 0, 52, 86
1, 223267, Control_c, 0, 64, 115
1, 223282, Control_c, 0, 64, 84
1, 223297, Control_c, 0, 64, 14
1, 223312, Control_c, 0, 64, 0
1, 223713, Control_c, 0, 64, 27
1, 223728, Control_c, 0, 64, 44
1, 223743, Control_c, 0, 64, 54
1, 223765, Control_c, 0, 64, 61
1, 223780, Control_c, 0, 64, 63
1, 223795, Control_c, 0, 64, 64
1, 223810, Control_c, 0, 64, 65
1, 223825, Control_c, 0, 64, 67
1, 223839, Control_c, 0, 64, 69
1, 223854, Control_c, 0, 64, 71
1, 223869, Control_c, 0, 64, 72
1, 223883, Control_c, 0, 64, 74
1, 223898, Control_c, 0, 64, 76
1, 223913, Control_c, 0, 64, 78
1, 223928, Control_c, 0, 64, 80
1, 223943, Control_c, 0, 64, 83
1, 223957, Control_c, 0, 64, 85
1, 223972, Control_c, 0, 64, 88
1, 223987, Control_c, 0, 64, 90
1, 224001, Control_c, 0, 64, 93
1, 224016, Control_c, 0, 64, 96
1, 224031, Control_c, 0, 64, 99
1, 224046, Control_c, 0, 64, 103
1, 224061, Control_c, 0, 64, 108
1, 224075, Control_c, 0, 64, 116
1, 224090, Control_c, 0, 64, 127
1, 224137, Note_off_c, 0, 100, 62
1, 224168, Note_off_c, 0, 64, 38
1, 224290, Note_off_c, 0, 88, 59
1, 224472, Note_off_c, 0, 52, 58
1, 224662, Control_c, 0, 67, 8
1, 224677, Control_c, 0, 67, 11
1, 224692, Control_c, 0, 67, 14
1, 224702, Note_on_c, 0, 88, 88
1, 224706, Control_c, 0, 67, 17
1, 224721, Control_c, 0, 67, 19
1, 224728, Note_on_c, 0, 76, 61
1, 224736, Control_c, 0, 67, 21
1, 224751, Control_c, 0, 67, 23
1, 224766, Control_c, 0, 67, 25
1, 224780, Control_c, 0, 67, 27
1, 224795, Control_c, 0, 67, 30
1, 224810, Control_c, 0, 67, 33
1, 224824, Control_c, 0, 67, 36
1, 224839, Control_c, 0, 67, 39
1, 224854, Control_c, 0, 67, 40
1, 224869, Control_c, 0, 67, 42
1, 224884, Control_c, 0, 67, 44
1, 224888, Note_off_c, 0, 76, 57
1, 224898, Control_c, 0, 67, 47
1, 224907, Note_off_c, 0, 88, 55
1, 224913, Control_c, 0, 67, 50
1, 224928, Control_c, 0, 67, 53
1, 224943, Control_c, 0, 67, 54
1, 224958, Control_c, 0, 67, 56
1, 224973, Control_c, 0, 67, 60
1, 224987, Control_c, 0, 67, 64
1, 225002, Control_c, 0, 64, 126
1, 225002, Control_c, 0, 67, 69
1, 225013, Note_on_c, 0, 88, 73
1, 225017, Control_c, 0, 64, 90
1, 225017, Control_c, 0, 67, 74
1, 225023, Note_on_c, 0, 76, 51
1, 225032, Control_c, 0, 64, 72
1, 225032, Control_c, 0, 67, 80
1, 225035, Note_on_c, 0, 33, 39
1, 225035, Note_on_c, 0, 81, 45
1, 225040, Note_on_c, 0, 45, 38
1, 225047, Control_c, 0, 64, 44
1, 225047, Control_c, 0, 67, 85
1, 225062, Control_c, 0, 64, 0
1, 225062, Control_c, 0, 67, 90
1, 225077, Control_c, 0, 64, 29
1, 225077, Control_c, 0, 67, 95
1, 225092, Control_c, 0, 64, 42
1, 225092, Control_c, 0, 67, 100
1, 225106, Control_c, 0, 64, 53
1, 225106, Control_c, 0, 67, 102
1, 225121, Control_c, 0, 64, 62
1, 225121, Control_c, 0, 67, 105
1, 225129, Note_off_c, 0, 33, 57
1, 225136, Control_c, 0, 64, 67
1, 225136, Control_c, 0, 67, 106
1, 225139, Note_off_c, 0, 45, 59
1, 225151, Control_c, 0, 64, 72
1, 225166, Control_c, 0, 64, 76
1, 225181, Control_c, 0, 64, 81
1, 225196, Control_c, 0, 64, 84
1, 225211, Control_c, 0, 64, 88
1, 225226, Control_c, 0, 64, 91
1, 225241, Control_c, 0, 64, 94
1, 225262, Control_c, 0, 64, 97
1, 225277, Control_c, 0, 64, 99
1, 225292, Control_c, 0, 64, 101
1, 225307, Control_c, 0, 64, 103
1, 225322, Control_c, 0, 64, 104
1, 225336, Control_c, 0, 64, 106
1, 225351, Control_c, 0, 64, 107
1, 225366, Control_c, 0, 64, 108
1, 225381, Control_c, 0, 64, 109
1, 225396, Control_c, 0, 64, 109
1, 225411, Control_c, 0, 67, 105
1, 225420, Note_on_c, 0, 64, 46
1, 225426, Control_c, 0, 64, 110
1, 225426, Control_c, 0, 67, 105
1, 225441, Note_on_c, 0, 57, 21
1, 225441, Control_c, 0, 64, 113
1, 225443, Note_on_c, 0, 61, 20
1, 225447, Note_off_c, 0, 64, 58
1, 225455, Control_c, 0, 64, 115
1, 225470, Control_c, 0, 64, 116
1, 225470, Control_c, 0, 67, 104
1, 225481, Note_off_c, 0, 57, 51
1, 225485, Control_c, 0, 67, 103
1, 225488, Note_off_c, 0, 61, 53
1, 225500, Control_c, 0, 64, 117
1, 225500, Control_c, 0, 67, 103
1, 225532, Note_off_c, 0, 76, 35
1, 225544, Note_on_c, 0, 64, 44
1, 225544, Control_c, 0, 67, 102
1, 225559, Control_c, 0, 67, 101
1, 225569, Note_off_c, 0, 64, 60
1, 225574, Control_c, 0, 67, 101
1, 225597, Poly_aftertouch_c, 0, 61, 127
1, 225604, Note_off_c, 0, 88, 35
1, 225618, Control_c, 0, 67, 100
1, 225631, Poly_aftertouch_c, 0, 61, 0
1, 225633, Control_c, 0, 67, 100
1, 225647, Control_c, 0, 67, 99
1, 225657, Note_on_c, 0, 64, 61
1, 225658, Note_on_c, 0, 61, 40
1, 225662, Control_c, 0, 67, 98
1, 225669, Note_on_c, 0, 57, 33
1, 225688, Note_off_c, 0, 64, 66
1, 225692, Note_off_c, 0, 61, 57
1, 225692, Control_c, 0, 67, 97
1, 225703, Note_off_c, 0, 57, 51
1, 225736, Control_c, 0, 67, 97
1, 225751, Control_c, 0, 67, 96
1, 225763, Note_on_c, 0, 64, 66
1, 225766, Control_c, 0, 67, 95
1, 225774, Note_on_c, 0, 61, 61
1, 225781, Control_c, 0, 67, 94
1, 225792, Note_off_c, 0, 64, 68
1, 225798, Note_off_c, 0, 61, 61
1, 225810, Control_c, 0, 67, 94
1, 225811, Note_on_c, 0, 57, 5
1, 225825, Control_c, 0, 67, 93
1, 225840, Control_c, 0, 67, 91
1, 225855, Control_c, 0, 67, 89
1, 225869, Note_off_c, 0, 81, 47
1, 225870, Note_on_c, 0, 61, 70
1, 225870, Control_c, 0, 64, 117
1, 225870, Control_c, 0, 67, 88
1, 225872, Note_on_c, 0, 85, 86
1, 225883, Note_on_c, 0, 64, 52
1, 225885, Control_c, 0, 67, 86
1, 225885, Note_on_c, 0, 73, 69
1, 225900, Control_c, 0, 67, 85
1, 225900, Note_off_c, 0, 61, 63
1, 225911, Note_off_c, 0, 73, 67
1, 225912, Note_off_c, 0, 64, 57
1, 225914, Note_off_c, 0, 85, 65
1, 225915, Control_c, 0, 67, 85
1, 225929, Control_c, 0, 67, 84
1, 225934, Note_off_c, 0, 57, 41
1, 225944, Control_c, 0, 64, 118
1, 225944, Control_c, 0, 67, 84
1, 225959, Control_c, 0, 64, 117
1, 225959, Control_c, 0, 67, 83
1, 225974, Control_c, 0, 64, 117
1, 225974, Control_c, 0, 67, 82
1, 225983, Note_on_c, 0, 83, 86
1, 225989, Note_on_c, 0, 64, 64
1, 225989, Control_c, 0, 64, 110
1, 225991, Note_on_c, 0, 61, 60
1, 225994, Note_on_c, 0, 71, 72
1, 226012, Control_c, 0, 64, 101
1, 226012, Control_c, 0, 67, 82
1, 226019, Note_on_c, 0, 57, 27
1, 226022, Note_off_c, 0, 64, 68
1, 226026, Control_c, 0, 64, 93
1, 226026, Control_c, 0, 67, 81
1, 226031, Note_off_c, 0, 61, 64
1, 226041, Control_c, 0, 64, 91
1, 226056, Note_off_c, 0, 57, 43
1, 226056, Control_c, 0, 64, 92
1, 226056, Control_c, 0, 67, 81
1, 226071, Control_c, 0, 64, 94
1, 226071, Control_c, 0, 67, 80
1, 226085, Control_c, 0, 64, 100
1, 226085, Control_c, 0, 67, 80
1, 226100, Control_c, 0, 64, 109
1, 226100, Control_c, 0, 67, 79
1, 226111, Note_on_c, 0, 61, 68
1, 226115, Control_c, 0, 64, 127
1, 226115, Control_c, 0, 67, 78
1, 226117, Note_on_c, 0, 64, 60
1, 226118, Note_off_c, 0, 71, 61
1, 226126, Note_on_c, 0, 57, 44
1, 226130, Control_c, 0, 67, 76
1, 226132, Note_off_c, 0, 83, 62
1, 226136, Note_off_c, 0, 64, 66
1, 226138, Note_off_c, 0, 61, 66
1, 226144, Control_c, 0, 67, 73
1, 226155, Note_off_c, 0, 57, 56
1, 226159, Control_c, 0, 67, 70
1, 226174, Control_c, 0, 67, 67
1, 226189, Control_c, 0, 67, 64
1, 226204, Control_c, 0, 67, 62
1, 226219, Note_on_c, 0, 64, 52
1, 226219, Control_c, 0, 67, 61
1, 226222, Note_on_c, 0, 69, 78
1, 226222, Note_on_c, 0, 81, 85
1, 226225, Note_on_c, 0, 61, 62
1, 226233, Control_c, 0, 67, 61
1, 226245, Note_on_c, 0, 57, 36
1, 226245, Note_off_c, 0, 64, 61
1, 226248, Control_c, 0, 67, 60
1, 226253, Note_off_c, 0, 61, 64
1, 226255, Note_off_c, 0, 69, 61
1, 226263, Control_c, 0, 67, 59
1, 226266, Note_off_c, 0, 81, 65
1, 226276, Note_off_c, 0, 57, 53
1, 226278, Control_c, 0, 64, 106
1, 226278, Control_c, 0, 67, 59
1, 226293, Control_c, 0, 64, 86
1, 226308, Control_c, 0, 64, 67
1, 226323, Control_c, 0, 64, 0
1, 226323, Control_c, 0, 67, 58
1, 226332, Note_on_c, 0, 81, 77
1, 226340, Note_on_c, 0, 65, 65
1, 226344, Note_on_c, 0, 62, 51
1, 226349, Note_on_c, 0, 59, 45
1, 226352, Control_c, 0, 64, 24
1, 226352, Control_c, 0, 67, 58
1, 226356, Note_on_c, 0, 74, 56
1, 226362, Note_on_c, 0, 69, 52
1, 226363, Note_on_c, 0, 77, 54
1, 226367, Control_c, 0, 64, 49
1, 226377, Note_off_c, 0, 59, 57
1, 226379, Note_off_c, 0, 62, 63
1, 226382, Control_c, 0, 64, 59
1, 226397, Control_c, 0, 64, 63
1, 226411, Control_c, 0, 64, 65
1, 226411, Control_c, 0, 67, 57
1, 226426, Control_c, 0, 64, 68
1, 226426, Control_c, 0, 67, 57
1, 226441, Control_c, 0, 64, 71
1, 226441, Control_c, 0, 67, 56
1, 226449, Note_on_c, 0, 59, 56
1, 226454, Note_on_c, 0, 62, 64
1, 226456, Control_c, 0, 64, 72
1, 226456, Control_c, 0, 67, 54
1, 226471, Control_c, 0, 64, 74
1, 226471, Control_c, 0, 67, 53
1, 226482, Note_off_c, 0, 59, 63
1, 226484, Note_off_c, 0, 62, 64
1, 226485, Control_c, 0, 64, 76
1, 226485, Control_c, 0, 67, 53
1, 226500, Control_c, 0, 64, 77
1, 226515, Control_c, 0, 64, 79
1, 226530, Control_c, 0, 64, 82
1, 226530, Control_c, 0, 67, 52
1, 226544, Control_c, 0, 64, 84
1, 226556, Note_off_c, 0, 69, 59
1, 226557, Note_on_c, 0, 62, 64
1, 226559, Note_on_c, 0, 59, 58
1, 226559, Control_c, 0, 64, 85
1, 226559, Control_c, 0, 67, 52
1, 226574, Control_c, 0, 64, 86
1, 226589, Control_c, 0, 64, 87
1, 226590, Note_off_c, 0, 59, 64
1, 226591, Note_off_c, 0, 62, 61
1, 226603, Control_c, 0, 64, 87
1, 226618, Control_c, 0, 64, 88
1, 226633, Control_c, 0, 67, 53
1, 226642, Note_off_c, 0, 81, 58
1, 226648, Control_c, 0, 67, 53
1, 226663, Control_c, 0, 67, 54
1, 226675, Note_on_c, 0, 59, 47
1, 226678, Control_c, 0, 64, 84
1, 226678, Control_c, 0, 67, 54
1, 226690, Note_on_c, 0, 62, 47
1, 226693, Control_c, 0, 64, 76
1, 226693, Control_c, 0, 67, 55
1, 226703, Note_on_c, 0, 80, 58
1, 226707, Control_c, 0, 64, 64
1, 226707, Control_c, 0, 67, 56
1, 226711, Note_off_c, 0, 59, 53
1, 226711, Note_off_c, 0, 62, 61
1, 226712, Note_on_c, 0, 68, 43
1, 226722, Control_c, 0, 64, 0
1, 226737, Control_c, 0, 64, 44
1, 226751, Note_off_c, 0, 74, 44
1, 226759, Control_c, 0, 64, 55
1, 226775, Control_c, 0, 64, 60
1, 226789, Note_off_c, 0, 77, 38
1, 226790, Control_c, 0, 64, 64
1, 226801, Note_on_c, 0, 62, 53
1, 226804, Note_on_c, 0, 59, 50
1, 226805, Control_c, 0, 64, 67
1, 226805, Control_c, 0, 67, 57
1, 226820, Control_c, 0, 64, 70
1, 226834, Control_c, 0, 64, 74
1, 226834, Control_c, 0, 67, 57
1, 226839, Note_off_c, 0, 59, 62
1, 226840, Note_off_c, 0, 62, 60
1, 226849, Control_c, 0, 64, 76
1, 226864, Note_off_c, 0, 68, 38
1, 226864, Control_c, 0, 64, 78
1, 226864, Control_c, 0, 67, 58
1, 226879, Control_c, 0, 64, 80
1, 226879, Control_c, 0, 67, 59
1, 226894, Control_c, 0, 64, 83
1, 226908, Control_c, 0, 64, 84
1, 226908, Control_c, 0, 67, 60
1, 226923, Control_c, 0, 64, 85
1, 226923, Control_c, 0, 67, 60
1, 226937, Note_on_c, 0, 59, 39
1, 226938, Control_c, 0, 67, 61
1, 226943, Note_on_c, 0, 62, 39
1, 226953, Control_c, 0, 67, 61
1, 226964, Note_off_c, 0, 59, 53
1, 226968, Control_c, 0, 67, 62
1, 226970, Note_off_c, 0, 62, 55
1, 226982, Control_c, 0, 67, 62
1, 226997, Control_c, 0, 64, 85
1, 227012, Control_c, 0, 64, 82
1, 227026, Control_c, 0, 64, 77
1, 227037, Note_off_c, 0, 80, 38
1, 227041, Control_c, 0, 64, 72
1, 227056, Control_c, 0, 64, 71
1, 227065, Note_on_c, 0, 59, 27
1, 227071, Note_on_c, 0, 62, 33
1, 227071, Control_c, 0, 64, 72
1, 227086, Control_c, 0, 64, 74
1, 227092, Note_on_c, 0, 57, 26
1, 227101, Control_c, 0, 64, 75
1, 227116, Control_c, 0, 64, 77
1, 227131, Control_c, 0, 64, 81
1, 227146, Control_c, 0, 64, 84
1, 227146, Control_c, 0, 67, 62
1, 227161, Control_c, 0, 64, 87
1, 227164, Note_off_c, 0, 65, 58
1, 227175, Control_c, 0, 64, 89
1, 227175, Control_c, 0, 67, 61
1, 227190, Control_c, 0, 64, 90
1, 227190, Control_c, 0, 67, 61
1, 227205, Control_c, 0, 64, 93
1, 227205, Control_c, 0, 67, 60
1, 227219, Control_c, 0, 64, 97
1, 227219, Control_c, 0, 67, 60
1, 227223, Note_off_c, 0, 62, 54
1, 227234, Control_c, 0, 64, 100
1, 227249, Control_c, 0, 64, 104
1, 227249, Control_c, 0, 67, 59
1, 227250, Note_off_c, 0, 59, 61
1, 227264, Control_c, 0, 64, 109
1, 227264, Control_c, 0, 67, 58
1, 227279, Control_c, 0, 64, 117
1, 227279, Control_c, 0, 67, 57
1, 227287, Note_off_c, 0, 57, 40
1, 227294, Control_c, 0, 64, 127
1, 227294, Control_c, 0, 67, 57
1, 227308, Control_c, 0, 67, 56
1, 227323, Control_c, 0, 67, 56
1, 227351, Note_on_c, 0, 83, 83
1, 227362, Note_on_c, 0, 71, 67
1, 227414, Note_off_c, 0, 71, 63
1, 227471, Control_c, 0, 64, 102
1, 227474, Note_off_c, 0, 83, 63
1, 227486, Control_c, 0, 64, 74
1, 227508, Control_c, 0, 64, 27
1, 227509, Note_on_c, 0, 33, 57
1, 227519, Note_on_c, 0, 45, 49
1, 227536, Note_on_c, 0, 88, 79
1, 227538, Control_c, 0, 64, 60
1, 227540, Note_on_c, 0, 81, 53
1, 227542, Note_off_c, 0, 33, 61
1, 227553, Control_c, 0, 64, 65
1, 227563, Note_on_c, 0, 76, 42
1, 227564, Note_off_c, 0, 45, 65
1, 227568, Control_c, 0, 64, 69
1, 227584, Control_c, 0, 64, 75
1, 227598, Control_c, 0, 64, 81
1, 227613, Control_c, 0, 64, 86
1, 227613, Control_c, 0, 67, 55
1, 227628, Control_c, 0, 64, 89
1, 227643, Control_c, 0, 64, 90
1, 227643, Control_c, 0, 67, 55
1, 227657, Control_c, 0, 64, 92
1, 227672, Control_c, 0, 64, 94
1, 227687, Control_c, 0, 64, 97
1, 227702, Control_c, 0, 64, 99
1, 227708, Note_on_c, 0, 64, 54
1, 227710, Note_on_c, 0, 61, 55
1, 227715, Note_on_c, 0, 57, 38
1, 227717, Control_c, 0, 64, 101
1, 227730, Note_off_c, 0, 64, 61
1, 227731, Control_c, 0, 64, 103
1, 227735, Note_off_c, 0, 61, 60
1, 227739, Note_off_c, 0, 76, 40
1, 227746, Control_c, 0, 64, 103
1, 227748, Note_off_c, 0, 57, 52
1, 227776, Control_c, 0, 64, 104
1, 227807, Note_on_c, 0, 64, 61
1, 227813, Note_on_c, 0, 61, 62
1, 227830, Note_on_c, 0, 57, 41
1, 227834, Note_off_c, 0, 64, 66
1, 227841, Note_off_c, 0, 61, 64
1, 227862, Note_off_c, 0, 57, 51
1, 227878, Note_off_c, 0, 88, 57
1, 227879, Control_c, 0, 64, 104
1, 227894, Control_c, 0, 67, 55
1, 227918, Note_on_c, 0, 61, 67
1, 227920, Note_on_c, 0, 64, 61
1, 227947, Note_off_c, 0, 64, 66
1, 227948, Note_off_c, 0, 61, 65
1, 227953, Control_c, 0, 64, 105
1, 227968, Control_c, 0, 64, 106
1, 227983, Control_c, 0, 64, 108
1, 227994, Poly_aftertouch_c, 0, 57, 127
1, 227998, Control_c, 0, 64, 109
1, 228013, Control_c, 0, 64, 110
1, 228022, Note_on_c, 0, 64, 67
1, 228024, Note_on_c, 0, 57, 6
1, 228025, Note_on_c, 0, 61, 72
1, 228042, Control_c, 0, 64, 110
1, 228042, Control_c, 0, 67, 55
1, 228047, Note_off_c, 0, 64, 64
1, 228056, Note_off_c, 0, 61, 64
1, 228057, Control_c, 0, 64, 111
1, 228064, Note_off_c, 0, 57, 52
1, 228072, Control_c, 0, 64, 111
1, 228072, Control_c, 0, 67, 54
1, 228087, Control_c, 0, 64, 112
1, 228102, Control_c, 0, 64, 112
1, 228116, Control_c, 0, 64, 113
1, 228122, Note_on_c, 0, 85, 91
1, 228125, Note_off_c, 0, 81, 39
1, 228131, Control_c, 0, 64, 117
1, 228134, Note_on_c, 0, 73, 76
1, 228139, Note_on_c, 0, 61, 61
1, 228140, Note_on_c, 0, 57, 57
1, 228144, Note_on_c, 0, 64, 59
1, 228146, Control_c, 0, 64, 123
1, 228157, Note_off_c, 0, 73, 70
1, 228161, Control_c, 0, 64, 127
1, 228165, Note_off_c, 0, 85, 67
1, 228167, Note_off_c, 0, 64, 63
1, 228170, Note_off_c, 0, 57, 54
1, 228171, Note_off_c, 0, 61, 64
1, 228234, Note_on_c, 0, 83, 93
1, 228247, Note_on_c, 0, 64, 63
1, 228247, Note_on_c, 0, 71, 81
1, 228250, Note_on_c, 0, 57, 57
1, 228257, Control_c, 0, 64, 126
1, 228257, Note_on_c, 0, 61, 66
1, 228272, Control_c, 0, 64, 104
1, 228282, Note_off_c, 0, 64, 61
1, 228284, Note_off_c, 0, 57, 58
1, 228284, Note_off_c, 0, 61, 65
1, 228287, Control_c, 0, 64, 89
1, 228302, Control_c, 0, 64, 84
1, 228317, Control_c, 0, 64, 84
1, 228331, Control_c, 0, 64, 87
1, 228346, Control_c, 0, 64, 93
1, 228361, Control_c, 0, 64, 101
1, 228363, Note_on_c, 0, 57, 62
1, 228365, Note_on_c, 0, 61, 72
1, 228366, Note_off_c, 0, 71, 63
1, 228367, Note_on_c, 0, 64, 68
1, 228377, Control_c, 0, 64, 113
1, 228383, Note_off_c, 0, 83, 63
1, 228392, Control_c, 0, 64, 127
1, 228397, Note_off_c, 0, 64, 65
1, 228399, Note_off_c, 0, 57, 57
1, 228405, Note_off_c, 0, 61, 59
1, 228421, Control_c, 0, 67, 55
1, 228466, Control_c, 0, 67, 55
1, 228472, Note_on_c, 0, 81, 98
1, 228474, Note_on_c, 0, 69, 88
1, 228478, Note_on_c, 0, 64, 71
1, 228487, Note_on_c, 0, 61, 58
1, 228508, Note_on_c, 0, 57, 37
1, 228510, Control_c, 0, 67, 56
1, 228514, Note_off_c, 0, 64, 61
1, 228515, Note_off_c, 0, 61, 63
1, 228517, Note_off_c, 0, 69, 61
1, 228517, Note_off_c, 0, 81, 64
1, 228540, Control_c, 0, 67, 56
1, 228547, Note_off_c, 0, 57, 49
1, 228554, Control_c, 0, 67, 58
1, 228569, Control_c, 0, 64, 114
1, 228569, Control_c, 0, 67, 58
1, 228584, Control_c, 0, 64, 85
1, 228584, Control_c, 0, 67, 59
1, 228592, Note_on_c, 0, 81, 93
1, 228598, Note_on_c, 0, 65, 75
1, 228598, Control_c, 0, 64, 64
1, 228598, Control_c, 0, 67, 59
1, 228602, Note_on_c, 0, 62, 60
1, 228610, Note_on_c, 0, 69, 59
1, 228610, Note_on_c, 0, 77, 64
1, 228612, Note_on_c, 0, 74, 57
1, 228613, Control_c, 0, 64, 0
1, 228613, Control_c, 0, 67, 60
1, 228616, Note_on_c, 0, 59, 47
1, 228628, Control_c, 0, 67, 61
1, 228643, Note_off_c, 0, 59, 60
1, 228643, Note_off_c, 0, 62, 60
1, 228643, Control_c, 0, 67, 62
1, 228672, Control_c, 0, 64, 54
1, 228687, Control_c, 0, 64, 65
1, 228687, Control_c, 0, 67, 63
1, 228702, Control_c, 0, 64, 70
1, 228702, Control_c, 0, 67, 64
1, 228717, Control_c, 0, 64, 73
1, 228718, Note_on_c, 0, 59, 61
1, 228719, Note_on_c, 0, 62, 64
1, 228732, Control_c, 0, 64, 76
1, 228746, Control_c, 0, 64, 79
1, 228746, Control_c, 0, 67, 64
1, 228752, Note_off_c, 0, 59, 61
1, 228759, Note_off_c, 0, 62, 60
1, 228761, Control_c, 0, 64, 83
1, 228776, Control_c, 0, 64, 88
1, 228776, Control_c, 0, 67, 65
1, 228791, Control_c, 0, 64, 92
1, 228806, Control_c, 0, 64, 94
1, 228806, Control_c, 0, 67, 66
1, 228817, Note_off_c, 0, 69, 57
1, 228821, Control_c, 0, 64, 96
1, 228821, Control_c, 0, 67, 68
1, 228836, Control_c, 0, 64, 97
1, 228836, Control_c, 0, 67, 70
1, 228843, Note_on_c, 0, 62, 56
1, 228850, Note_on_c, 0, 59, 54
1, 228851, Control_c, 0, 67, 70
1, 228865, Control_c, 0, 67, 71
1, 228875, Note_off_c, 0, 59, 59
1, 228875, Note_off_c, 0, 62, 63
1, 228880, Control_c, 0, 67, 72
1, 228889, Poly_aftertouch_c, 0, 57, 0
1, 228892, Note_off_c, 0, 81, 56
1, 228895, Control_c, 0, 67, 74
1, 228910, Control_c, 0, 67, 76
1, 228925, Control_c, 0, 64, 96
1, 228925, Control_c, 0, 67, 78
1, 228939, Control_c, 0, 64, 91
1, 228939, Control_c, 0, 67, 81
1, 228954, Control_c, 0, 64, 81
1, 228954, Control_c, 0, 67, 83
1, 228960, Note_on_c, 0, 59, 46
1, 228969, Control_c, 0, 64, 66
1, 228969, Control_c, 0, 67, 85
1, 228972, Note_off_c, 0, 74, 59
1, 228973, Note_on_c, 0, 62, 47
1, 228975, Note_on_c, 0, 80, 60
1, 228978, Note_on_c, 0, 68, 39
1, 228984, Control_c, 0, 64, 0
1, 229006, Note_off_c, 0, 59, 56
1, 229012, Note_off_c, 0, 62, 63
1, 229021, Control_c, 0, 64, 40
1, 229036, Control_c, 0, 64, 56
1, 229050, Control_c, 0, 64, 63
1, 229050, Control_c, 0, 67, 84
1, 229053, Note_off_c, 0, 77, 53
1, 229065, Control_c, 0, 64, 67
1, 229080, Control_c, 0, 64, 70
1, 229080, Control_c, 0, 67, 84
1, 229095, Control_c, 0, 64, 73
1, 229095, Note_on_c, 0, 59, 49
1, 229104, Note_on_c, 0, 62, 54
1, 229110, Control_c, 0, 64, 76
1, 229110, Control_c, 0, 67, 83
1, 229122, Note_off_c, 0, 68, 54
1, 229125, Control_c, 0, 64, 78
1, 229129, Note_off_c, 0, 59, 62
1, 229137, Note_off_c, 0, 62, 64
1, 229140, Control_c, 0, 64, 80
1, 229154, Control_c, 0, 64, 82
1, 229169, Control_c, 0, 64, 84
1, 229169, Control_c, 0, 67, 82
1, 229185, Control_c, 0, 64, 86
1, 229185, Control_c, 0, 67, 82
1, 229199, Control_c, 0, 64, 86
1, 229199, Control_c, 0, 67, 81
1, 229217, Note_on_c, 0, 59, 52
1, 229221, Note_on_c, 0, 62, 48
1, 229229, Control_c, 0, 64, 87
1, 229244, Control_c, 0, 64, 87
1, 229244, Note_off_c, 0, 59, 59
1, 229247, Note_off_c, 0, 62, 60
1, 229259, Control_c, 0, 64, 88
1, 229259, Control_c, 0, 67, 81
1, 229274, Control_c, 0, 67, 81
1, 229283, Note_off_c, 0, 80, 55
1, 229303, Control_c, 0, 64, 87
1, 229318, Control_c, 0, 64, 84
1, 229333, Control_c, 0, 64, 79
1, 229348, Control_c, 0, 64, 71
1, 229363, Control_c, 0, 64, 65
1, 229364, Note_on_c, 0, 59, 31
1, 229370, Note_on_c, 0, 62, 45
1, 229377, Control_c, 0, 64, 67
1, 229379, Note_on_c, 0, 57, 31
1, 229392, Control_c, 0, 64, 70
1, 229392, Control_c, 0, 67, 81
1, 229407, Control_c, 0, 64, 74
1, 229407, Control_c, 0, 67, 80
1, 229421, Control_c, 0, 64, 76
1, 229421, Control_c, 0, 67, 80
1, 229436, Control_c, 0, 64, 80
1, 229436, Control_c, 0, 67, 79
1, 229450, Note_off_c, 0, 65, 54
1, 229451, Control_c, 0, 64, 84
1, 229451, Control_c, 0, 67, 78
1, 229466, Control_c, 0, 64, 88
1, 229466, Control_c, 0, 67, 78
1, 229481, Control_c, 0, 64, 92
1, 229481, Control_c, 0, 67, 77
1, 229495, Control_c, 0, 64, 95
1, 229495, Control_c, 0, 67, 76
1, 229506, Note_off_c, 0, 62, 62
1, 229510, Control_c, 0, 64, 96
1, 229510, Control_c, 0, 67, 75
1, 229515, Note_off_c, 0, 57, 61
1, 229525, Control_c, 0, 64, 99
1, 229525, Control_c, 0, 67, 74
1, 229536, Note_off_c, 0, 59, 62
1, 229540, Control_c, 0, 64, 103
1, 229540, Control_c, 0, 67, 74
1, 229555, Control_c, 0, 64, 110
1, 229555, Control_c, 0, 67, 73
1, 229569, Control_c, 0, 64, 118
1, 229569, Control_c, 0, 67, 73
1, 229584, Control_c, 0, 64, 127
1, 229584, Control_c, 0, 67, 71
1, 229599, Control_c, 0, 67, 68
1, 229614, Control_c, 0, 67, 65
1, 229629, Control_c, 0, 67, 62
1, 229644, Control_c, 0, 67, 61
1, 229659, Control_c, 0, 67, 58
1, 229671, Note_on_c, 0, 83, 85
1, 229673, Control_c, 0, 67, 54
1, 229682, Note_on_c, 0, 71, 63
1, 229688, Control_c, 0, 67, 50
1, 229703, Control_c, 0, 67, 49
1, 229718, Control_c, 0, 67, 48
1, 229733, Control_c, 0, 67, 46
1, 229755, Control_c, 0, 67, 45
1, 229758, Note_off_c, 0, 71, 57
1, 229769, Control_c, 0, 67, 45
1, 229784, Control_c, 0, 67, 44
1, 229799, Control_c, 0, 67, 42
1, 229814, Control_c, 0, 67, 41
1, 229828, Control_c, 0, 67, 41
1, 229848, Note_off_c, 0, 83, 65
1, 229873, Control_c, 0, 64, 114
1, 229884, Note_on_c, 0, 33, 54
1, 229888, Note_on_c, 0, 45, 45
1, 229888, Control_c, 0, 64, 91
1, 229903, Control_c, 0, 64, 69
1, 229911, Note_on_c, 0, 88, 82
1, 229918, Control_c, 0, 64, 0
1, 229924, Note_on_c, 0, 81, 47
1, 229942, Note_on_c, 0, 76, 41
1, 229947, Control_c, 0, 64, 14
1, 229962, Control_c, 0, 64, 52
1, 229978, Control_c, 0, 64, 62
1, 229992, Control_c, 0, 64, 67
1, 230006, Note_off_c, 0, 33, 60
1, 230007, Control_c, 0, 64, 73
1, 230022, Control_c, 0, 64, 79
1, 230037, Control_c, 0, 64, 85
1, 230048, Note_off_c, 0, 45, 60
1, 230052, Control_c, 0, 64, 91
1, 230067, Control_c, 0, 64, 94
1, 230082, Control_c, 0, 64, 97
1, 230097, Control_c, 0, 64, 100
1, 230112, Control_c, 0, 64, 103
1, 230126, Control_c, 0, 64, 107
1, 230141, Control_c, 0, 64, 110
1, 230156, Control_c, 0, 64, 112
1, 230171, Control_c, 0, 64, 112
1, 230186, Control_c, 0, 64, 113
1, 230200, Control_c, 0, 64, 115
1, 230215, Control_c, 0, 64, 116
1, 230230, Control_c, 0, 64, 118
1, 230244, Control_c, 0, 64, 118
1, 230259, Control_c, 0, 64, 119
1, 230274, Control_c, 0, 64, 122
1, 230289, Control_c, 0, 64, 124
1, 230301, Note_on_c, 0, 64, 36
1, 230302, Note_on_c, 0, 61, 36
1, 230304, Control_c, 0, 64, 127
1, 230320, Note_on_c, 0, 57, 14
1, 230332, Note_off_c, 0, 76, 43
1, 230335, Note_off_c, 0, 64, 53
1, 230336, Note_off_c, 0, 61, 51
1, 230362, Note_off_c, 0, 57, 43
1, 230434, Note_on_c, 0, 61, 40
1, 230449, Note_on_c, 0, 64, 25
1, 230469, Note_off_c, 0, 61, 50
1, 230469, Note_off_c, 0, 88, 51
1, 230494, Note_off_c, 0, 64, 45
1, 230515, Poly_aftertouch_c, 0, 57, 0
1, 230547, Note_on_c, 0, 57, 19
1, 230558, Note_on_c, 0, 61, 56
1, 230592, Note_off_c, 0, 61, 62
1, 230600, Note_off_c, 0, 57, 58
1, 230624, Poly_aftertouch_c, 0, 64, 127
1, 230653, Poly_aftertouch_c, 0, 64, 0
1, 230680, Note_on_c, 0, 64, 32
1, 230689, Note_on_c, 0, 61, 49
1, 230709, Note_on_c, 0, 57, 40
1, 230713, Note_off_c, 0, 64, 59
1, 230715, Note_off_c, 0, 61, 61
1, 230740, Note_off_c, 0, 57, 53
1, 230767, Note_off_c, 0, 81, 63
1, 230774, Note_on_c, 0, 85, 88
1, 230782, Note_on_c, 0, 73, 73
1, 230800, Note_on_c, 0, 64, 47
1, 230801, Control_c, 0, 67, 41
1, 230806, Note_on_c, 0, 61, 39
1, 230829, Note_off_c, 0, 64, 55
1, 230836, Note_off_c, 0, 61, 54
1, 230836, Note_off_c, 0, 73, 64
1, 230836, Note_off_c, 0, 85, 65
1, 230875, Control_c, 0, 67, 42
1, 230890, Control_c, 0, 64, 109
1, 230905, Control_c, 0, 64, 84
1, 230911, Note_on_c, 0, 83, 84
1, 230919, Control_c, 0, 64, 69
1, 230925, Note_on_c, 0, 49, 66
1, 230934, Control_c, 0, 64, 66
1, 230935, Note_on_c, 0, 71, 57
1, 230948, Note_on_c, 0, 76, 40
1, 230949, Control_c, 0, 64, 70
1, 230964, Control_c, 0, 64, 74
1, 230979, Control_c, 0, 64, 77
1, 230993, Control_c, 0, 64, 82
1, 231008, Control_c, 0, 64, 90
1, 231009, Note_off_c, 0, 49, 63
1, 231023, Control_c, 0, 64, 96
1, 231038, Control_c, 0, 64, 100
1, 231038, Control_c, 0, 67, 41
1, 231048, Note_on_c, 0, 57, 61
1, 231048, Note_on_c, 0, 64, 66
1, 231053, Note_off_c, 0, 71, 60
1, 231053, Control_c, 0, 64, 105
1, 231063, Note_off_c, 0, 83, 58
1, 231067, Control_c, 0, 64, 114
1, 231078, Note_off_c, 0, 64, 64
1, 231082, Control_c, 0, 64, 127
1, 231082, Control_c, 0, 67, 41
1, 231088, Note_off_c, 0, 57, 55
1, 231165, Note_on_c, 0, 81, 90
1, 231173, Note_on_c, 0, 57, 52
1, 231173, Note_on_c, 0, 64, 56
1, 231175, Note_on_c, 0, 69, 70
1, 231188, Note_off_c, 0, 76, 61
1, 231194, Note_off_c, 0, 64, 63
1, 231203, Note_off_c, 0, 57, 65
1, 231204, Note_off_c, 0, 69, 63
1, 231283, Control_c, 0, 67, 41
1, 231313, Control_c, 0, 64, 91
1, 231328, Control_c, 0, 64, 69
1, 231334, Note_off_c, 0, 81, 60
1, 231338, Note_on_c, 0, 80, 78
1, 231342, Control_c, 0, 64, 0
1, 231346, Note_on_c, 0, 47, 54
1, 231349, Note_on_c, 0, 68, 66
1, 231365, Note_on_c, 0, 76, 39
1, 231372, Control_c, 0, 64, 50
1, 231387, Control_c, 0, 64, 64
1, 231392, Note_off_c, 0, 47, 66
1, 231401, Control_c, 0, 64, 68
1, 231416, Control_c, 0, 64, 73
1, 231431, Control_c, 0, 64, 77
1, 231446, Control_c, 0, 64, 82
1, 231461, Control_c, 0, 64, 85
1, 231475, Control_c, 0, 64, 89
1, 231490, Control_c, 0, 64, 92
1, 231505, Control_c, 0, 64, 96
1, 231516, Note_on_c, 0, 64, 55
1, 231520, Control_c, 0, 64, 99
1, 231522, Note_on_c, 0, 56, 56
1, 231522, Note_on_c, 0, 59, 52
1, 231535, Control_c, 0, 64, 102
1, 231542, Note_off_c, 0, 64, 59
1, 231545, Note_off_c, 0, 80, 58
1, 231546, Note_off_c, 0, 68, 56
1, 231549, Control_c, 0, 64, 105
1, 231556, Note_off_c, 0, 56, 65
1, 231560, Note_off_c, 0, 59, 62
1, 231565, Control_c, 0, 64, 108
1, 231580, Control_c, 0, 64, 112
1, 231595, Control_c, 0, 64, 112
1, 231610, Control_c, 0, 64, 113
1, 231623, Note_on_c, 0, 81, 86
1, 231624, Control_c, 0, 64, 117
1, 231631, Note_on_c, 0, 69, 72
1, 231638, Note_on_c, 0, 64, 59
1, 231638, Note_on_c, 0, 56, 62
1, 231639, Control_c, 0, 64, 127
1, 231639, Control_c, 0, 67, 41
1, 231647, Note_on_c, 0, 59, 57
1, 231658, Note_off_c, 0, 69, 63
1, 231671, Note_off_c, 0, 56, 64
1, 231671, Note_off_c, 0, 64, 65
1, 231676, Note_off_c, 0, 59, 65
1, 231684, Note_off_c, 0, 81, 62
1, 231745, Note_on_c, 0, 83, 93
1, 231751, Note_on_c, 0, 64, 67
1, 231755, Note_on_c, 0, 56, 63
1, 231758, Control_c, 0, 64, 109
1, 231758, Control_c, 0, 67, 40
1, 231759, Note_on_c, 0, 71, 72
1, 231761, Note_on_c, 0, 59, 58
1, 231772, Control_c, 0, 64, 96
1, 231778, Note_off_c, 0, 76, 43
1, 231782, Note_off_c, 0, 64, 63
1, 231787, Control_c, 0, 64, 91
1, 231787, Control_c, 0, 67, 40
1, 231789, Note_off_c, 0, 56, 61
1, 231792, Note_off_c, 0, 59, 63
1, 231817, Control_c, 0, 64, 92
1, 231832, Control_c, 0, 64, 96
1, 231847, Control_c, 0, 64, 100
1, 231847, Control_c, 0, 67, 39
1, 231861, Control_c, 0, 64, 106
1, 231861, Control_c, 0, 67, 39
1, 231872, Note_on_c, 0, 64, 67
1, 231876, Control_c, 0, 64, 110
1, 231876, Control_c, 0, 67, 38
1, 231882, Note_on_c, 0, 56, 60
1, 231891, Control_c, 0, 64, 113
1, 231891, Control_c, 0, 67, 35
1, 231893, Note_on_c, 0, 59, 56
1, 231901, Note_off_c, 0, 64, 66
1, 231906, Control_c, 0, 64, 117
1, 231906, Control_c, 0, 67, 32
1, 231910, Note_off_c, 0, 56, 68
1, 231919, Note_off_c, 0, 59, 63
1, 231921, Control_c, 0, 64, 120
1, 231921, Control_c, 0, 67, 30
1, 231923, Note_off_c, 0, 83, 60
1, 231936, Control_c, 0, 64, 124
1, 231936, Control_c, 0, 67, 28
1, 231951, Control_c, 0, 64, 127
1, 231951, Control_c, 0, 67, 26
1, 231965, Control_c, 0, 67, 24
1, 231978, Note_off_c, 0, 71, 59
1, 231980, Control_c, 0, 67, 23
1, 231992, Note_on_c, 0, 64, 70
1, 231993, Note_on_c, 0, 59, 63
1, 231993, Note_on_c, 0, 56, 68
1, 232002, Control_c, 0, 67, 22
1, 232017, Control_c, 0, 67, 21
1, 232031, Control_c, 0, 67, 19
1, 232037, Note_off_c, 0, 64, 64
1, 232046, Control_c, 0, 67, 18
1, 232061, Control_c, 0, 67, 17
1, 232063, Note_off_c, 0, 56, 60
1, 232076, Note_off_c, 0, 59, 52
1, 232076, Control_c, 0, 67, 17
1, 232091, Control_c, 0, 64, 124
1, 232091, Control_c, 0, 67, 16
1, 232106, Control_c, 0, 64, 103
1, 232109, Note_on_c, 0, 78, 87
1, 232118, Note_on_c, 0, 66, 73
1, 232121, Control_c, 0, 64, 84
1, 232128, Note_on_c, 0, 59, 35
1, 232134, Note_on_c, 0, 57, 59
1, 232135, Note_on_c, 0, 63, 67
1, 232136, Note_on_c, 0, 75, 55
1, 232136, Control_c, 0, 64, 68
1, 232150, Control_c, 0, 64, 62
1, 232165, Control_c, 0, 64, 67
1, 232165, Control_c, 0, 67, 16
1, 232176, Note_off_c, 0, 63, 60
1, 232180, Control_c, 0, 64, 72
1, 232180, Control_c, 0, 67, 15
1, 232186, Note_off_c, 0, 57, 59
1, 232187, Note_off_c, 0, 59, 56
1, 232195, Control_c, 0, 64, 76
1, 232195, Control_c, 0, 67, 13
1, 232210, Control_c, 0, 64, 80
1, 232210, Control_c, 0, 67, 11
1, 232224, Control_c, 0, 64, 85
1, 232224, Control_c, 0, 67, 8
1, 232239, Control_c, 0, 64, 92
1, 232239, Control_c, 0, 67, 0
1, 232243, Note_off_c, 0, 66, 54
1, 232252, Note_on_c, 0, 63, 79
1, 232254, Note_on_c, 0, 59, 59
1, 232254, Control_c, 0, 64, 97
1, 232264, Note_on_c, 0, 57, 52
1, 232269, Control_c, 0, 64, 101
1, 232284, Control_c, 0, 64, 104
1, 232294, Note_off_c, 0, 63, 57
1, 232298, Control_c, 0, 64, 109
1, 232300, Note_off_c, 0, 57, 61
1, 232313, Control_c, 0, 64, 116
1, 232315, Note_off_c, 0, 59, 60
1, 232328, Control_c, 0, 64, 127
1, 232377, Note_off_c, 0, 75, 58
1, 232377, Note_off_c, 0, 78, 60
1, 232383, Note_on_c, 0, 80, 87
1, 232389, Note_on_c, 0, 63, 77
1, 232391, Note_on_c, 0, 68, 86
1, 232415, Note_on_c, 0, 57, 45
1, 232419, Note_off_c, 0, 63, 65
1, 232429, Note_off_c, 0, 80, 64
1, 232431, Note_on_c, 0, 78, 7
1, 232443, Note_off_c, 0, 68, 63
1, 232446, Note_off_c, 0, 57, 53
1, 232457, Poly_aftertouch_c, 0, 59, 127
1, 232479, Note_off_c, 0, 78, 49
1, 232483, Poly_aftertouch_c, 0, 59, 0
1, 232551, Control_c, 0, 64, 113
1, 232558, Note_on_c, 0, 65, 64
1, 232563, Note_on_c, 0, 68, 60
1, 232566, Control_c, 0, 64, 87
1, 232574, Note_on_c, 0, 59, 62
1, 232580, Note_on_c, 0, 74, 65
1, 232581, Control_c, 0, 64, 66
1, 232593, Note_on_c, 0, 47, 56
1, 232595, Note_on_c, 0, 77, 82
1, 232595, Control_c, 0, 64, 0
1, 232602, Note_off_c, 0, 68, 63
1, 232624, Note_off_c, 0, 65, 59
1, 232630, Note_off_c, 0, 74, 63
1, 232639, Control_c, 0, 64, 43
1, 232654, Control_c, 0, 64, 59
1, 232669, Control_c, 0, 64, 64
1, 232684, Control_c, 0, 64, 67
1, 232699, Control_c, 0, 64, 70
1, 232713, Control_c, 0, 64, 73
1, 232728, Control_c, 0, 64, 75
1, 232745, Note_on_c, 0, 65, 63
1, 232750, Control_c, 0, 64, 79
1, 232762, Note_on_c, 0, 74, 61
1, 232765, Note_on_c, 0, 68, 55
1, 232765, Control_c, 0, 64, 83
1, 232777, Note_off_c, 0, 65, 61
1, 232780, Control_c, 0, 64, 85
1, 232785, Note_off_c, 0, 68, 61
1, 232794, Control_c, 0, 64, 87
1, 232796, Note_off_c, 0, 74, 64
1, 232809, Control_c, 0, 64, 90
1, 232824, Control_c, 0, 64, 92
1, 232839, Control_c, 0, 64, 94
1, 232854, Control_c, 0, 64, 95
1, 232869, Control_c, 0, 64, 96
1, 232871, Note_on_c, 0, 65, 63
1, 232873, Note_on_c, 0, 68, 58
1, 232884, Control_c, 0, 64, 97
1, 232888, Note_on_c, 0, 74, 62
1, 232892, Note_off_c, 0, 65, 63
1, 232899, Control_c, 0, 64, 98
1, 232903, Note_off_c, 0, 68, 66
1, 232914, Control_c, 0, 64, 100
1, 232914, Control_c, 0, 67, 8
1, 232915, Note_off_c, 0, 74, 68
1, 232928, Control_c, 0, 64, 100
1, 232928, Control_c, 0, 67, 11
1, 232943, Control_c, 0, 67, 13
1, 232958, Note_off_c, 0, 59, 49
1, 232958, Control_c, 0, 67, 15
1, 232972, Control_c, 0, 67, 20
1, 232982, Note_on_c, 0, 65, 59
1, 232987, Control_c, 0, 67, 27
1, 232990, Note_on_c, 0, 68, 67
1, 233002, Control_c, 0, 64, 101
1, 233002, Control_c, 0, 67, 36
1, 233003, Note_on_c, 0, 74, 65
1, 233015, Note_off_c, 0, 65, 63
1, 233017, Control_c, 0, 67, 42
1, 233018, Note_off_c, 0, 68, 64
1, 233032, Control_c, 0, 67, 49
1, 233034, Note_off_c, 0, 74, 66
1, 233046, Control_c, 0, 67, 56
1, 233051, Note_off_c, 0, 47, 60
1, 233061, Control_c, 0, 67, 63
1, 233076, Control_c, 0, 67, 70
1, 233091, Control_c, 0, 67, 75
1, 233104, Note_on_c, 0, 65, 60
1, 233106, Control_c, 0, 67, 81
1, 233110, Note_on_c, 0, 68, 66
1, 233120, Control_c, 0, 67, 87
1, 233125, Note_on_c, 0, 74, 60
1, 233135, Control_c, 0, 67, 93
1, 233143, Note_off_c, 0, 65, 62
1, 233145, Note_off_c, 0, 68, 63
1, 233150, Control_c, 0, 64, 100
1, 233150, Control_c, 0, 67, 98
1, 233160, Note_off_c, 0, 74, 64
1, 233166, Control_c, 0, 67, 103
1, 233181, Control_c, 0, 67, 107
1, 233195, Control_c, 0, 67, 112
1, 233210, Control_c, 0, 67, 117
1, 233225, Control_c, 0, 67, 121
1, 233239, Note_on_c, 0, 65, 66
1, 233240, Control_c, 0, 67, 124
1, 233245, Note_on_c, 0, 56, 81
1, 233246, Note_off_c, 0, 77, 44
1, 233248, Note_on_c, 0, 44, 75
1, 233255, Control_c, 0, 67, 127
1, 233256, Note_on_c, 0, 68, 58
1, 233263, Note_on_c, 0, 74, 50
1, 233288, Note_off_c, 0, 44, 60
1, 233297, Note_off_c, 0, 56, 60
1, 233304, Note_off_c, 0, 65, 62
1, 233307, Note_off_c, 0, 68, 56
1, 233358, Control_c, 0, 64, 100
1, 233373, Control_c, 0, 64, 92
1, 233387, Control_c, 0, 64, 81
1, 233397, Note_off_c, 0, 74, 42
1, 233401, Note_on_c, 0, 56, 75
1, 233402, Control_c, 0, 64, 67
1, 233405, Note_on_c, 0, 44, 62
1, 233406, Note_on_c, 0, 76, 64
1, 233417, Control_c, 0, 64, 35
1, 233429, Note_on_c, 0, 64, 36
1, 233432, Control_c, 0, 64, 52
1, 233447, Control_c, 0, 64, 61
1, 233461, Control_c, 0, 64, 64
1, 233462, Note_off_c, 0, 64, 55
1, 233476, Note_off_c, 0, 56, 63
1, 233476, Control_c, 0, 64, 67
1, 233498, Control_c, 0, 64, 72
1, 233504, Note_off_c, 0, 44, 64
1, 233513, Control_c, 0, 64, 78
1, 233528, Control_c, 0, 64, 82
1, 233558, Control_c, 0, 64, 78
1, 233572, Note_on_c, 0, 54, 71
1, 233572, Note_on_c, 0, 42, 67
1, 233572, Note_on_c, 0, 64, 41
1, 233572, Control_c, 0, 64, 70
1, 233586, Note_on_c, 0, 74, 55
1, 233587, Control_c, 0, 64, 61
1, 233587, Note_on_c, 0, 68, 42
1, 233602, Control_c, 0, 64, 58
1, 233617, Control_c, 0, 64, 64
1, 233622, Note_off_c, 0, 64, 44
1, 233630, Note_off_c, 0, 68, 47
1, 233630, Note_off_c, 0, 74, 58
1, 233632, Control_c, 0, 64, 66
1, 233645, Note_off_c, 0, 54, 65
1, 233647, Control_c, 0, 64, 70
1, 233661, Control_c, 0, 64, 75
1, 233676, Control_c, 0, 64, 79
1, 233691, Control_c, 0, 64, 83
1, 233706, Control_c, 0, 64, 85
1, 233721, Control_c, 0, 64, 85
1, 233765, Control_c, 0, 64, 83
1, 233775, Note_off_c, 0, 42, 59
1, 233780, Control_c, 0, 64, 79
1, 233794, Control_c, 0, 64, 70
1, 233799, Note_on_c, 0, 52, 55
1, 233799, Note_on_c, 0, 40, 53
1, 233809, Control_c, 0, 64, 42
1, 233824, Control_c, 0, 64, 0
1, 233828, Note_on_c, 0, 74, 56
1, 233834, Note_on_c, 0, 68, 38
1, 233868, Control_c, 0, 64, 46
1, 233870, Poly_aftertouch_c, 0, 64, 127
1, 233883, Control_c, 0, 64, 63
1, 233898, Control_c, 0, 64, 67
1, 233913, Note_off_c, 0, 52, 61
1, 233913, Control_c, 0, 64, 71
1, 233927, Note_off_c, 0, 40, 63
1, 233928, Control_c, 0, 64, 75
1, 233942, Control_c, 0, 64, 82
1, 233946, Note_off_c, 0, 76, 29
1, 233958, Control_c, 0, 64, 89
1, 233973, Control_c, 0, 64, 94
1, 233988, Control_c, 0, 64, 96
1, 234003, Control_c, 0, 64, 98
1, 234017, Control_c, 0, 64, 101
1, 234023, Poly_aftertouch_c, 0, 64, 0
1, 234032, Control_c, 0, 64, 104
1, 234047, Control_c, 0, 64, 106
1, 234062, Control_c, 0, 64, 106
1, 234122, Control_c, 0, 64, 106
1, 234181, Control_c, 0, 64, 104
1, 234195, Note_off_c, 0, 74, 58
1, 234196, Control_c, 0, 64, 102
1, 234197, Note_off_c, 0, 68, 58
1, 234210, Control_c, 0, 64, 99
1, 234221, Note_on_c, 0, 33, 49
1, 234225, Control_c, 0, 64, 94
1, 234226, Note_on_c, 0, 76, 59
1, 234248, Control_c, 0, 64, 84
1, 234249, Note_on_c, 0, 64, 41
1, 234263, Control_c, 0, 64, 72
1, 234278, Control_c, 0, 64, 53
1, 234292, Control_c, 0, 64, 0
1, 234322, Control_c, 0, 64, 19
1, 234337, Control_c, 0, 64, 48
1, 234352, Control_c, 0, 64, 57
1, 234366, Control_c, 0, 64, 61
1, 234381, Control_c, 0, 64, 63
1, 234396, Control_c, 0, 64, 65
1, 234410, Control_c, 0, 64, 67
1, 234425, Control_c, 0, 64, 69
1, 234440, Control_c, 0, 64, 71
1, 234455, Control_c, 0, 64, 73
1, 234470, Control_c, 0, 64, 75
1, 234476, Note_on_c, 0, 73, 52
1, 234477, Note_on_c, 0, 69, 35
1, 234485, Control_c, 0, 64, 78
1, 234500, Control_c, 0, 64, 80
1, 234506, Note_off_c, 0, 69, 55
1, 234509, Note_off_c, 0, 73, 63
1, 234514, Control_c, 0, 64, 83
1, 234529, Control_c, 0, 64, 85
1, 234544, Control_c, 0, 64, 87
1, 234559, Control_c, 0, 64, 89
1, 234574, Control_c, 0, 64, 92
1, 234589, Control_c, 0, 64, 94
1, 234592, Note_on_c, 0, 69, 52
1, 234593, Note_on_c, 0, 73, 66
1, 234604, Control_c, 0, 64, 96
1, 234618, Control_c, 0, 64, 98
1, 234623, Note_off_c, 0, 73, 64
1, 234628, Note_off_c, 0, 69, 62
1, 234633, Control_c, 0, 64, 99
1, 234643, Note_off_c, 0, 76, 21
1, 234648, Control_c, 0, 64, 102
1, 234663, Control_c, 0, 64, 105
1, 234678, Control_c, 0, 64, 108
1, 234682, Note_on_c, 0, 37, 53
1, 234692, Control_c, 0, 64, 109
1, 234704, Note_on_c, 0, 73, 68
1, 234707, Control_c, 0, 64, 110
1, 234712, Note_off_c, 0, 64, 25
1, 234722, Control_c, 0, 64, 114
1, 234731, Note_off_c, 0, 73, 64
1, 234736, Control_c, 0, 64, 119
1, 234742, Note_on_c, 0, 69, 16
1, 234751, Control_c, 0, 64, 127
1, 234771, Note_off_c, 0, 33, 34
1, 234779, Note_off_c, 0, 69, 0
1, 234807, Note_on_c, 0, 69, 40
1, 234815, Note_on_c, 0, 73, 69
1, 234842, Note_off_c, 0, 69, 65
1, 234844, Note_off_c, 0, 73, 66
1, 234912, Note_on_c, 0, 73, 92
1, 234920, Note_on_c, 0, 61, 69
1, 234950, Note_off_c, 0, 61, 66
1, 234963, Note_off_c, 0, 73, 63
1, 235035, Note_on_c, 0, 71, 88
1, 235041, Control_c, 0, 64, 115
1, 235045, Note_on_c, 0, 59, 73
1, 235055, Control_c, 0, 64, 92
1, 235059, Note_on_c, 0, 39, 56
1, 235070, Control_c, 0, 64, 73
1, 235085, Control_c, 0, 64, 54
1, 235100, Control_c, 0, 64, 59
1, 235114, Control_c, 0, 64, 63
1, 235129, Control_c, 0, 64, 64
1, 235144, Control_c, 0, 64, 66
1, 235144, Control_c, 0, 67, 126
1, 235148, Note_off_c, 0, 71, 55
1, 235155, Note_on_c, 0, 64, 70
1, 235158, Control_c, 0, 64, 70
1, 235158, Control_c, 0, 67, 122
1, 235167, Note_on_c, 0, 61, 69
1, 235173, Control_c, 0, 64, 74
1, 235173, Control_c, 0, 67, 118
1, 235188, Control_c, 0, 64, 80
1, 235188, Control_c, 0, 67, 115
1, 235189, Note_off_c, 0, 59, 44
1, 235203, Control_c, 0, 64, 85
1, 235203, Control_c, 0, 67, 110
1, 235218, Control_c, 0, 64, 89
1, 235218, Control_c, 0, 67, 105
1, 235233, Control_c, 0, 64, 94
1, 235233, Control_c, 0, 67, 97
1, 235248, Control_c, 0, 64, 100
1, 235248, Control_c, 0, 67, 89
1, 235263, Control_c, 0, 64, 107
1, 235263, Control_c, 0, 67, 82
1, 235265, Note_on_c, 0, 40, 70
1, 235268, Note_on_c, 0, 69, 87
1, 235277, Note_on_c, 0, 57, 72
1, 235278, Control_c, 0, 64, 110
1, 235278, Control_c, 0, 67, 74
1, 235281, Note_off_c, 0, 61, 62
1, 235286, Note_off_c, 0, 64, 64
1, 235292, Control_c, 0, 67, 68
1, 235295, Note_off_c, 0, 37, 14
1, 235307, Control_c, 0, 67, 58
1, 235312, Note_off_c, 0, 57, 58
1, 235322, Control_c, 0, 64, 109
1, 235322, Control_c, 0, 67, 51
1, 235332, Note_off_c, 0, 69, 62
1, 235337, Control_c, 0, 64, 107
1, 235337, Control_c, 0, 67, 45
1, 235352, Control_c, 0, 64, 101
1, 235352, Control_c, 0, 67, 42
1, 235366, Control_c, 0, 64, 91
1, 235366, Control_c, 0, 67, 39
1, 235377, Note_off_c, 0, 39, 31
1, 235381, Control_c, 0, 64, 75
1, 235381, Control_c, 0, 67, 36
1, 235396, Control_c, 0, 64, 57
1, 235396, Control_c, 0, 67, 31
1, 235403, Note_on_c, 0, 69, 70
1, 235411, Control_c, 0, 64, 0
1, 235411, Control_c, 0, 67, 27
1, 235412, Note_on_c, 0, 57, 59
1, 235418, Note_on_c, 0, 41, 62
1, 235421, Note_off_c, 0, 40, 60
1, 235426, Control_c, 0, 67, 23
1, 235440, Control_c, 0, 67, 19
1, 235455, Control_c, 0, 67, 14
1, 235470, Control_c, 0, 64, 42
1, 235470, Control_c, 0, 67, 8
1, 235485, Control_c, 0, 64, 54
1, 235485, Control_c, 0, 67, 0
1, 235500, Control_c, 0, 64, 61
1, 235514, Control_c, 0, 64, 64
1, 235529, Control_c, 0, 64, 66
1, 235544, Control_c, 0, 64, 68
1, 235560, Control_c, 0, 64, 71
1, 235568, Note_on_c, 0, 59, 42
1, 235575, Control_c, 0, 64, 73
1, 235582, Note_on_c, 0, 62, 24
1, 235589, Control_c, 0, 64, 77
1, 235597, Note_off_c, 0, 59, 51
1, 235604, Control_c, 0, 64, 80
1, 235619, Control_c, 0, 64, 84
1, 235621, Note_off_c, 0, 62, 42
1, 235634, Control_c, 0, 64, 88
1, 235649, Control_c, 0, 64, 91
1, 235663, Control_c, 0, 64, 93
1, 235665, Note_off_c, 0, 57, 54
1, 235665, Note_off_c, 0, 69, 61
1, 235677, Note_on_c, 0, 62, 51
1, 235678, Control_c, 0, 64, 93
1, 235683, Note_on_c, 0, 59, 57
1, 235775, Control_c, 0, 64, 93
1, 235789, Control_c, 0, 64, 91
1, 235804, Control_c, 0, 64, 87
1, 235819, Control_c, 0, 64, 78
1, 235824, Note_off_c, 0, 62, 57
1, 235828, Note_off_c, 0, 59, 36
1, 235834, Control_c, 0, 64, 66
1, 235838, Note_on_c, 0, 68, 62
1, 235847, Note_on_c, 0, 56, 46
1, 235849, Control_c, 0, 64, 0
1, 235908, Control_c, 0, 64, 24
1, 235923, Control_c, 0, 64, 46
1, 235937, Control_c, 0, 64, 59
1, 235948, Note_on_c, 0, 62, 59
1, 235952, Control_c, 0, 64, 66
1, 235954, Note_on_c, 0, 59, 50
1, 235965, Note_off_c, 0, 56, 61
1, 235967, Control_c, 0, 64, 69
1, 235981, Control_c, 0, 64, 72
1, 235986, Note_off_c, 0, 59, 64
1, 235996, Control_c, 0, 64, 75
1, 236000, Note_off_c, 0, 62, 58
1, 236011, Control_c, 0, 64, 78
1, 236011, Control_c, 0, 67, 8
1, 236026, Control_c, 0, 64, 81
1, 236026, Control_c, 0, 67, 9
1, 236041, Control_c, 0, 64, 83
1, 236041, Control_c, 0, 67, 10
1, 236056, Control_c, 0, 64, 85
1, 236056, Control_c, 0, 67, 12
1, 236068, Note_on_c, 0, 59, 60
1, 236070, Control_c, 0, 64, 87
1, 236070, Control_c, 0, 67, 14
1, 236077, Note_on_c, 0, 62, 49
1, 236085, Control_c, 0, 64, 88
1, 236085, Control_c, 0, 67, 17
1, 236100, Control_c, 0, 64, 88
1, 236100, Control_c, 0, 67, 19
1, 236101, Note_off_c, 0, 59, 62
1, 236110, Note_off_c, 0, 62, 64
1, 236115, Control_c, 0, 67, 20
1, 236130, Control_c, 0, 67, 22
1, 236145, Control_c, 0, 64, 88
1, 236145, Control_c, 0, 67, 23
1, 236160, Control_c, 0, 64, 85
1, 236160, Control_c, 0, 67, 25
1, 236175, Control_c, 0, 64, 77
1, 236175, Control_c, 0, 67, 26
1, 236189, Control_c, 0, 64, 66
1, 236189, Control_c, 0, 67, 28
1, 236198, Note_on_c, 0, 40, 42
1, 236200, Note_on_c, 0, 59, 40
1, 236203, Note_on_c, 0, 62, 47
1, 236204, Control_c, 0, 64, 21
1, 236204, Control_c, 0, 67, 32
1, 236212, Note_off_c, 0, 41, 37
1, 236219, Control_c, 0, 64, 46
1, 236219, Control_c, 0, 67, 36
1, 236225, Note_off_c, 0, 59, 59
1, 236234, Control_c, 0, 64, 62
1, 236234, Control_c, 0, 67, 38
1, 236238, Note_off_c, 0, 62, 62
1, 236249, Control_c, 0, 64, 65
1, 236249, Control_c, 0, 67, 38
1, 236263, Control_c, 0, 64, 67
1, 236263, Control_c, 0, 67, 40
1, 236272, Note_off_c, 0, 68, 54
1, 236278, Control_c, 0, 64, 70
1, 236278, Control_c, 0, 67, 41
1, 236293, Control_c, 0, 64, 73
1, 236293, Control_c, 0, 67, 42
1, 236307, Control_c, 0, 64, 75
1, 236321, Note_on_c, 0, 59, 40
1, 236322, Control_c, 0, 64, 78
1, 236337, Control_c, 0, 64, 80
1, 236339, Note_on_c, 0, 62, 51
1, 236350, Note_off_c, 0, 59, 61
1, 236353, Control_c, 0, 64, 81
1, 236368, Control_c, 0, 64, 83
1, 236368, Control_c, 0, 67, 41
1, 236369, Note_off_c, 0, 62, 62
1, 236383, Control_c, 0, 64, 85
1, 236383, Control_c, 0, 67, 41
1, 236398, Control_c, 0, 64, 88
1, 236412, Control_c, 0, 64, 91
1, 236412, Control_c, 0, 67, 40
1, 236427, Control_c, 0, 64, 94
1, 236427, Control_c, 0, 67, 40
1, 236442, Control_c, 0, 64, 97
1, 236442, Control_c, 0, 67, 39
1, 236457, Control_c, 0, 64, 100
1, 236457, Control_c, 0, 67, 38
1, 236472, Control_c, 0, 64, 103
1, 236472, Control_c, 0, 67, 38
1, 236494, Control_c, 0, 64, 106
1, 236494, Control_c, 0, 67, 37
1, 236501, Note_on_c, 0, 71, 70
1, 236509, Control_c, 0, 64, 108
1, 236509, Control_c, 0, 67, 37
1, 236518, Note_on_c, 0, 59, 47
1, 236524, Control_c, 0, 64, 110
1, 236524, Control_c, 0, 67, 36
1, 236538, Control_c, 0, 64, 113
1, 236538, Control_c, 0, 67, 36
1, 236553, Control_c, 0, 64, 118
1, 236553, Control_c, 0, 67, 35
1, 236568, Control_c, 0, 64, 122
1, 236583, Control_c, 0, 64, 124
1, 236598, Control_c, 0, 67, 35
1, 236612, Control_c, 0, 67, 34
1, 236613, Note_off_c, 0, 59, 37
1, 236665, Note_off_c, 0, 71, 58
1, 236716, Control_c, 0, 67, 35
1, 236731, Control_c, 0, 67, 35
1, 236775, Control_c, 0, 67, 36
1, 236790, Control_c, 0, 64, 123
1, 236790, Control_c, 0, 67, 36
1, 236804, Control_c, 0, 64, 122
1, 236819, Control_c, 0, 64, 117
1, 236819, Control_c, 0, 67, 37
1, 236834, Control_c, 0, 64, 114
1, 236834, Control_c, 0, 67, 37
1, 236849, Control_c, 0, 64, 112
1, 236849, Control_c, 0, 67, 38
1, 236864, Control_c, 0, 64, 109
1, 236864, Control_c, 0, 67, 38
1, 236878, Control_c, 0, 64, 103
1, 236878, Control_c, 0, 67, 39
1, 236887, Note_on_c, 0, 76, 54
1, 236893, Control_c, 0, 64, 93
1, 236893, Control_c, 0, 67, 39
1, 236899, Note_on_c, 0, 33, 39
1, 236906, Note_on_c, 0, 64, 38
1, 236908, Control_c, 0, 64, 81
1, 236908, Control_c, 0, 67, 40
1, 236912, Note_off_c, 0, 40, 39
1, 236923, Control_c, 0, 64, 69
1, 236923, Control_c, 0, 67, 41
1, 236938, Control_c, 0, 64, 38
1, 236938, Control_c, 0, 67, 42
1, 236953, Control_c, 0, 64, 0
1, 236968, Control_c, 0, 67, 43
1, 236983, Control_c, 0, 67, 44
1, 236998, Control_c, 0, 67, 47
1, 237012, Control_c, 0, 67, 51
1, 237027, Control_c, 0, 67, 54
1, 237042, Control_c, 0, 67, 59
1, 237057, Control_c, 0, 67, 64
1, 237072, Control_c, 0, 64, 27
1, 237072, Control_c, 0, 67, 68
1, 237086, Control_c, 0, 64, 45
1, 237086, Control_c, 0, 67, 71
1, 237102, Control_c, 0, 64, 55
1, 237102, Control_c, 0, 67, 76
1, 237117, Control_c, 0, 64, 61
1, 237117, Control_c, 0, 67, 80
1, 237131, Control_c, 0, 64, 64
1, 237131, Control_c, 0, 67, 84
1, 237146, Control_c, 0, 64, 66
1, 237146, Control_c, 0, 67, 87
1, 237162, Control_c, 0, 64, 68
1, 237162, Control_c, 0, 67, 90
1, 237170, Note_off_c, 0, 64, 60
1, 237176, Control_c, 0, 64, 71
1, 237176, Control_c, 0, 67, 93
1, 237185, Note_on_c, 0, 72, 35
1, 237186, Note_on_c, 0, 69, 38
1, 237191, Control_c, 0, 64, 73
1, 237191, Control_c, 0, 67, 97
1, 237206, Control_c, 0, 64, 76
1, 237206, Control_c, 0, 67, 100
1, 237221, Control_c, 0, 64, 78
1, 237221, Control_c, 0, 67, 102
1, 237234, Note_off_c, 0, 69, 61
1, 237243, Control_c, 0, 64, 81
1, 237243, Control_c, 0, 67, 104
1, 237244, Note_off_c, 0, 72, 59
1, 237258, Control_c, 0, 64, 84
1, 237258, Control_c, 0, 67, 105
1, 237273, Control_c, 0, 64, 87
1, 237273, Control_c, 0, 67, 106
1, 237288, Control_c, 0, 64, 90
1, 237288, Control_c, 0, 67, 107
1, 237303, Control_c, 0, 64, 92
1, 237303, Control_c, 0, 67, 108
1, 237317, Control_c, 0, 64, 94
1, 237317, Control_c, 0, 67, 108
1, 237332, Control_c, 0, 64, 96
1, 237347, Note_on_c, 0, 69, 45
1, 237347, Control_c, 0, 64, 97
1, 237361, Control_c, 0, 64, 98
1, 237369, Note_on_c, 0, 72, 40
1, 237376, Control_c, 0, 64, 99
1, 237376, Control_c, 0, 67, 109
1, 237386, Note_off_c, 0, 69, 55
1, 237391, Control_c, 0, 64, 100
1, 237395, Note_off_c, 0, 72, 56
1, 237406, Control_c, 0, 64, 102
1, 237421, Control_c, 0, 64, 104
1, 237436, Control_c, 0, 64, 105
1, 237445, Note_on_c, 0, 36, 46
1, 237451, Control_c, 0, 64, 106
1, 237466, Control_c, 0, 64, 106
1, 237466, Control_c, 0, 67, 109
1, 237477, Note_on_c, 0, 72, 55
1, 237480, Control_c, 0, 64, 107
1, 237487, Note_on_c, 0, 69, 44
1, 237495, Control_c, 0, 64, 109
1, 237510, Note_off_c, 0, 72, 58
1, 237510, Control_c, 0, 64, 110
1, 237511, Note_off_c, 0, 69, 57
1, 237525, Control_c, 0, 64, 112
1, 237539, Note_off_c, 0, 33, 31
1, 237573, Note_off_c, 0, 76, 49
1, 237584, Control_c, 0, 64, 112
1, 237589, Note_on_c, 0, 69, 62
1, 237599, Control_c, 0, 64, 113
1, 237608, Note_on_c, 0, 72, 53
1, 237629, Note_off_c, 0, 72, 62
1, 237629, Control_c, 0, 64, 113
1, 237630, Note_off_c, 0, 69, 58
1, 237688, Control_c, 0, 67, 109
1, 237702, Note_on_c, 0, 72, 73
1, 237716, Note_on_c, 0, 60, 51
1, 237741, Note_off_c, 0, 60, 62
1, 237744, Note_off_c, 0, 72, 59
1, 237791, Control_c, 0, 64, 113
1, 237806, Control_c, 0, 64, 112
1, 237821, Control_c, 0, 64, 103
1, 237822, Note_on_c, 0, 71, 85
1, 237832, Note_on_c, 0, 59, 62
1, 237835, Control_c, 0, 64, 88
1, 237838, Note_on_c, 0, 39, 48
1, 237850, Control_c, 0, 64, 68
1, 237865, Control_c, 0, 64, 36
1, 237880, Control_c, 0, 64, 50
1, 237886, Note_off_c, 0, 36, 38
1, 237889, Note_off_c, 0, 71, 55
1, 237895, Control_c, 0, 64, 60
1, 237895, Control_c, 0, 67, 108
1, 237910, Control_c, 0, 64, 63
1, 237910, Control_c, 0, 67, 108
1, 237925, Control_c, 0, 64, 65
1, 237925, Control_c, 0, 67, 107
1, 237939, Control_c, 0, 64, 69
1, 237939, Control_c, 0, 67, 107
1, 237947, Note_on_c, 0, 60, 68
1, 237948, Note_on_c, 0, 64, 69
1, 237955, Control_c, 0, 64, 73
1, 237957, Note_off_c, 0, 59, 55
1, 237970, Control_c, 0, 64, 78
1, 237970, Control_c, 0, 67, 106
1, 237992, Control_c, 0, 64, 82
1, 238007, Control_c, 0, 64, 86
1, 238007, Control_c, 0, 67, 105
1, 238022, Control_c, 0, 64, 90
1, 238022, Control_c, 0, 67, 105
1, 238037, Control_c, 0, 64, 97
1, 238038, Note_off_c, 0, 60, 64
1, 238052, Control_c, 0, 64, 102
1, 238056, Note_on_c, 0, 69, 80
1, 238066, Control_c, 0, 64, 106
1, 238066, Control_c, 0, 67, 104
1, 238067, Note_off_c, 0, 64, 62
1, 238069, Note_on_c, 0, 57, 66
1, 238079, Note_on_c, 0, 40, 65
1, 238081, Control_c, 0, 64, 106
1, 238081, Control_c, 0, 67, 104
1, 238096, Control_c, 0, 67, 103
1, 238100, Note_off_c, 0, 57, 65
1, 238115, Note_off_c, 0, 69, 62
1, 238140, Control_c, 0, 64, 105
1, 238155, Control_c, 0, 64, 98
1, 238170, Control_c, 0, 64, 86
1, 238173, Note_off_c, 0, 39, 27
1, 238184, Note_off_c, 0, 40, 61
1, 238184, Note_on_c, 0, 69, 71
1, 238184, Control_c, 0, 64, 71
1, 238199, Control_c, 0, 64, 17
1, 238202, Note_on_c, 0, 57, 52
1, 238211, Note_on_c, 0, 41, 53
1, 238214, Control_c, 0, 64, 0
1, 238244, Control_c, 0, 67, 103
1, 238258, Control_c, 0, 64, 38
1, 238258, Control_c, 0, 67, 102
1, 238273, Control_c, 0, 64, 54
1, 238288, Control_c, 0, 64, 62
1, 238303, Control_c, 0, 64, 65
1, 238303, Control_c, 0, 67, 102
1, 238318, Control_c, 0, 64, 69
1, 238318, Control_c, 0, 67, 101
1, 238324, Note_on_c, 0, 62, 60
1, 238333, Control_c, 0, 64, 72
1, 238337, Note_on_c, 0, 59, 44
1, 238348, Control_c, 0, 64, 74
1, 238363, Control_c, 0, 64, 77
1, 238364, Note_off_c, 0, 59, 57
1, 238367, Note_off_c, 0, 62, 59
1, 238377, Control_c, 0, 64, 81
1, 238392, Control_c, 0, 64, 85
1, 238392, Control_c, 0, 67, 101
1, 238407, Control_c, 0, 64, 88
1, 238422, Control_c, 0, 64, 90
1, 238422, Note_off_c, 0, 69, 60
1, 238426, Note_off_c, 0, 57, 52
1, 238437, Control_c, 0, 64, 91
1, 238438, Note_on_c, 0, 62, 48
1, 238443, Note_on_c, 0, 59, 51
1, 238511, Control_c, 0, 67, 101
1, 238526, Control_c, 0, 67, 102
1, 238528, Note_off_c, 0, 59, 38
1, 238539, Note_off_c, 0, 62, 50
1, 238540, Control_c, 0, 64, 90
1, 238555, Control_c, 0, 64, 85
1, 238562, Note_on_c, 0, 68, 63
1, 238570, Control_c, 0, 64, 76
1, 238579, Note_on_c, 0, 56, 41
1, 238584, Control_c, 0, 64, 64
1, 238599, Control_c, 0, 64, 0
1, 238643, Control_c, 0, 64, 38
1, 238658, Control_c, 0, 64, 57
1, 238673, Control_c, 0, 64, 63
1, 238677, Note_on_c, 0, 62, 54
1, 238680, Note_off_c, 0, 56, 62
1, 238688, Control_c, 0, 64, 65
1, 238688, Control_c, 0, 67, 101
1, 238702, Control_c, 0, 64, 68
1, 238702, Control_c, 0, 67, 100
1, 238703, Note_on_c, 0, 59, 30
1, 238717, Control_c, 0, 64, 70
1, 238728, Note_off_c, 0, 62, 59
1, 238739, Control_c, 0, 64, 73
1, 238747, Note_off_c, 0, 59, 45
1, 238755, Control_c, 0, 64, 74
1, 238755, Control_c, 0, 67, 100
1, 238770, Control_c, 0, 64, 75
1, 238770, Control_c, 0, 67, 99
1, 238785, Control_c, 0, 64, 76
1, 238785, Control_c, 0, 67, 98
1, 238800, Control_c, 0, 64, 78
1, 238800, Control_c, 0, 67, 98
1, 238814, Control_c, 0, 64, 79
1, 238814, Control_c, 0, 67, 97
1, 238819, Note_on_c, 0, 62, 46
1, 238829, Control_c, 0, 64, 81
1, 238829, Control_c, 0, 67, 97
1, 238844, Control_c, 0, 64, 81
1, 238844, Control_c, 0, 67, 96
1, 238854, Note_off_c, 0, 62, 62
1, 238859, Control_c, 0, 64, 82
1, 238859, Control_c, 0, 67, 94
1, 238874, Control_c, 0, 67, 91
1, 238888, Control_c, 0, 64, 83
1, 238888, Control_c, 0, 67, 90
1, 238903, Control_c, 0, 64, 84
1, 238903, Control_c, 0, 67, 88
1, 238918, Control_c, 0, 67, 87
1, 238933, Control_c, 0, 64, 83
1, 238933, Control_c, 0, 67, 87
1, 238940, Note_on_c, 0, 62, 48
1, 238947, Note_on_c, 0, 59, 11
1, 238948, Control_c, 0, 64, 81
1, 238948, Control_c, 0, 67, 86
1, 238962, Note_on_c, 0, 40, 46
1, 238962, Control_c, 0, 64, 76
1, 238973, Note_off_c, 0, 41, 36
1, 238974, Note_off_c, 0, 62, 62
1, 238977, Control_c, 0, 64, 68
1, 238977, Control_c, 0, 67, 86
1, 238991, Note_off_c, 0, 59, 44
1, 238992, Control_c, 0, 64, 64
1, 238992, Control_c, 0, 67, 85
1, 239007, Control_c, 0, 64, 66
1, 239007, Control_c, 0, 67, 84
1, 239015, Note_off_c, 0, 68, 42
1, 239022, Control_c, 0, 64, 67
1, 239022, Control_c, 0, 67, 83
1, 239036, Control_c, 0, 64, 69
1, 239036, Control_c, 0, 67, 81
1, 239051, Control_c, 0, 64, 71
1, 239051, Control_c, 0, 67, 80
1, 239066, Control_c, 0, 64, 74
1, 239066, Control_c, 0, 67, 78
1, 239074, Note_on_c, 0, 62, 54
1, 239080, Note_on_c, 0, 59, 42
1, 239081, Control_c, 0, 64, 79
1, 239081, Control_c, 0, 67, 76
1, 239096, Control_c, 0, 64, 83
1, 239096, Control_c, 0, 67, 74
1, 239105, Note_off_c, 0, 62, 64
1, 239110, Note_off_c, 0, 59, 52
1, 239111, Control_c, 0, 64, 86
1, 239111, Control_c, 0, 67, 72
1, 239125, Control_c, 0, 64, 88
1, 239125, Control_c, 0, 67, 70
1, 239140, Control_c, 0, 64, 90
1, 239140, Control_c, 0, 67, 68
1, 239155, Control_c, 0, 64, 93
1, 239155, Control_c, 0, 67, 66
1, 239170, Control_c, 0, 64, 96
1, 239170, Control_c, 0, 67, 64
1, 239185, Control_c, 0, 64, 99
1, 239185, Control_c, 0, 67, 63
1, 239199, Control_c, 0, 64, 101
1, 239199, Control_c, 0, 67, 60
1, 239214, Control_c, 0, 64, 101
1, 239214, Control_c, 0, 67, 57
1, 239229, Control_c, 0, 64, 102
1, 239229, Control_c, 0, 67, 55
1, 239236, Note_on_c, 0, 76, 67
1, 239244, Control_c, 0, 64, 104
1, 239244, Control_c, 0, 67, 53
1, 239253, Note_on_c, 0, 64, 49
1, 239259, Control_c, 0, 64, 107
1, 239259, Control_c, 0, 67, 51
1, 239273, Control_c, 0, 64, 109
1, 239273, Control_c, 0, 67, 48
1, 239288, Control_c, 0, 67, 43
1, 239290, Note_off_c, 0, 64, 48
1, 239303, Control_c, 0, 67, 37
1, 239318, Control_c, 0, 67, 32
1, 239332, Control_c, 0, 67, 27
1, 239347, Control_c, 0, 67, 22
1, 239362, Control_c, 0, 67, 16
1, 239373, Note_off_c, 0, 76, 58
1, 239377, Control_c, 0, 67, 11
1, 239392, Control_c, 0, 67, 0
1, 239451, Control_c, 0, 64, 107
1, 239466, Control_c, 0, 64, 103
1, 239488, Control_c, 0, 64, 97
1, 239502, Note_on_c, 0, 77, 64
1, 239503, Control_c, 0, 64, 87
1, 239518, Control_c, 0, 64, 74
1, 239519, Note_off_c, 0, 40, 41
1, 239520, Note_on_c, 0, 33, 38
1, 239523, Note_on_c, 0, 65, 42
1, 239532, Control_c, 0, 64, 61
1, 239547, Control_c, 0, 64, 0
1, 239579, Control_c, 0, 64, 41
1, 239593, Control_c, 0, 64, 53
1, 239608, Control_c, 0, 64, 59
1, 239623, Control_c, 0, 64, 63
1, 239637, Control_c, 0, 64, 65
1, 239652, Control_c, 0, 64, 67
1, 239667, Control_c, 0, 64, 69
1, 239682, Control_c, 0, 64, 71
1, 239697, Control_c, 0, 64, 72
1, 239701, Note_off_c, 0, 65, 48
1, 239711, Control_c, 0, 64, 74
1, 239723, Note_on_c, 0, 69, 39
1, 239726, Control_c, 0, 64, 76
1, 239728, Note_on_c, 0, 72, 46
1, 239741, Control_c, 0, 64, 79
1, 239754, Note_off_c, 0, 69, 55
1, 239755, Control_c, 0, 64, 81
1, 239761, Note_off_c, 0, 72, 63
1, 239770, Control_c, 0, 64, 82
1, 239785, Control_c, 0, 64, 83
1, 239800, Control_c, 0, 64, 85
1, 239815, Control_c, 0, 64, 87
1, 239829, Control_c, 0, 64, 89
1, 239844, Control_c, 0, 64, 90
1, 239850, Note_on_c, 0, 72, 57
1, 239856, Note_on_c, 0, 69, 43
1, 239874, Control_c, 0, 64, 90
1, 239889, Note_off_c, 0, 72, 60
1, 239889, Control_c, 0, 64, 91
1, 239891, Note_off_c, 0, 69, 51
1, 239904, Control_c, 0, 64, 93
1, 239919, Control_c, 0, 64, 94
1, 239934, Control_c, 0, 64, 95
1, 239976, Note_on_c, 0, 69, 52
1, 239978, Control_c, 0, 64, 95
1, 239981, Note_on_c, 0, 36, 39
1, 239986, Note_on_c, 0, 72, 50
1, 239993, Control_c, 0, 64, 96
1, 240001, Note_off_c, 0, 69, 58
1, 240005, Note_off_c, 0, 72, 64
1, 240008, Control_c, 0, 64, 97
1, 240011, Note_off_c, 0, 33, 38
1, 240022, Control_c, 0, 64, 98
1, 240052, Control_c, 0, 64, 98
1, 240052, Control_c, 0, 67, 9
1, 240067, Control_c, 0, 67, 13
1, 240070, Note_off_c, 0, 77, 37
1, 240077, Note_on_c, 0, 72, 63
1, 240082, Control_c, 0, 64, 99
1, 240082, Control_c, 0, 67, 20
1, 240090, Note_on_c, 0, 69, 51
1, 240096, Control_c, 0, 64, 99
1, 240096, Control_c, 0, 67, 25
1, 240107, Note_off_c, 0, 72, 62
1, 240111, Control_c, 0, 64, 100
1, 240111, Control_c, 0, 67, 28
1, 240124, Note_off_c, 0, 69, 63
1, 240126, Control_c, 0, 67, 30
1, 240141, Control_c, 0, 64, 100
1, 240141, Control_c, 0, 67, 30
1, 240155, Control_c, 0, 67, 32
1, 240170, Control_c, 0, 64, 101
1, 240170, Control_c, 0, 67, 33
1, 240185, Control_c, 0, 64, 101
1, 240185, Control_c, 0, 67, 34
1, 240195, Note_on_c, 0, 72, 81
1, 240200, Control_c, 0, 64, 102
1, 240200, Control_c, 0, 67, 35
1, 240201, Note_on_c, 0, 60, 66
1, 240215, Control_c, 0, 67, 35
1, 240221, Note_off_c, 0, 72, 63
1, 240222, Note_off_c, 0, 60, 65
1, 240237, Control_c, 0, 67, 36
1, 240252, Control_c, 0, 67, 37
1, 240267, Control_c, 0, 67, 39
1, 240282, Control_c, 0, 67, 41
1, 240297, Control_c, 0, 67, 43
1, 240311, Control_c, 0, 64, 98
1, 240311, Control_c, 0, 67, 46
1, 240322, Note_on_c, 0, 70, 79
1, 240326, Control_c, 0, 64, 86
1, 240326, Control_c, 0, 67, 49
1, 240338, Note_on_c, 0, 40, 52
1, 240341, Control_c, 0, 64, 71
1, 240341, Control_c, 0, 67, 52
1, 240352, Note_on_c, 0, 58, 55
1, 240352, Note_off_c, 0, 36, 41
1, 240357, Control_c, 0, 64, 33
1, 240357, Control_c, 0, 67, 53
1, 240372, Control_c, 0, 64, 0
1, 240372, Control_c, 0, 67, 53
1, 240386, Control_c, 0, 64, 42
1, 240401, Control_c, 0, 64, 58
1, 240416, Control_c, 0, 64, 65
1, 240431, Control_c, 0, 64, 68
1, 240446, Control_c, 0, 64, 71
1, 240460, Control_c, 0, 64, 75
1, 240469, Note_on_c, 0, 65, 57
1, 240475, Control_c, 0, 64, 79
1, 240490, Control_c, 0, 64, 83
1, 240490, Control_c, 0, 67, 53
1, 240494, Note_off_c, 0, 70, 56
1, 240505, Control_c, 0, 64, 87
1, 240505, Control_c, 0, 67, 52
1, 240520, Control_c, 0, 64, 91
1, 240520, Control_c, 0, 67, 52
1, 240534, Control_c, 0, 64, 95
1, 240549, Control_c, 0, 64, 98
1, 240550, Note_off_c, 0, 58, 56
1, 240564, Control_c, 0, 64, 100
1, 240578, Control_c, 0, 64, 102
1, 240587, Note_on_c, 0, 69, 83
1, 240593, Control_c, 0, 64, 105
1, 240593, Control_c, 0, 67, 51
1, 240598, Note_off_c, 0, 40, 35
1, 240604, Note_on_c, 0, 57, 58
1, 240604, Note_off_c, 0, 65, 55
1, 240607, Note_on_c, 0, 41, 46
1, 240608, Control_c, 0, 64, 107
1, 240608, Control_c, 0, 67, 51
1, 240623, Control_c, 0, 64, 108
1, 240623, Control_c, 0, 67, 50
1, 240640, Note_off_c, 0, 57, 63
1, 240665, Note_off_c, 0, 69, 57
1, 240667, Control_c, 0, 64, 107
1, 240682, Control_c, 0, 67, 50
1, 240727, Control_c, 0, 64, 107
1, 240727, Control_c, 0, 67, 50
1, 240742, Control_c, 0, 64, 105
1, 240756, Control_c, 0, 64, 100
1, 240765, Note_on_c, 0, 57, 52
1, 240765, Note_on_c, 0, 69, 69
1, 240771, Control_c, 0, 64, 90
1, 240777, Note_off_c, 0, 41, 44
1, 240786, Control_c, 0, 64, 76
1, 240795, Note_on_c, 0, 34, 44
1, 240801, Control_c, 0, 64, 53
1, 240816, Control_c, 0, 64, 0
1, 240876, Control_c, 0, 64, 21
1, 240891, Control_c, 0, 64, 47
1, 240905, Control_c, 0, 64, 57
1, 240920, Control_c, 0, 64, 62
1, 240921, Note_on_c, 0, 65, 50
1, 240935, Control_c, 0, 64, 64
1, 240935, Control_c, 0, 67, 50
1, 240950, Control_c, 0, 64, 66
1, 240965, Note_off_c, 0, 65, 61
1, 240965, Control_c, 0, 64, 68
1, 240965, Control_c, 0, 67, 49
1, 240986, Control_c, 0, 64, 71
1, 241001, Control_c, 0, 64, 73
1, 241004, Poly_aftertouch_c, 0, 62, 0
1, 241016, Control_c, 0, 64, 75
1, 241031, Control_c, 0, 64, 79
1, 241031, Control_c, 0, 67, 49
1, 241046, Control_c, 0, 64, 81
1, 241060, Control_c, 0, 64, 84
1, 241075, Note_on_c, 0, 65, 40
1, 241075, Control_c, 0, 64, 86
1, 241090, Control_c, 0, 64, 87
1, 241102, Note_off_c, 0, 65, 59
1, 241105, Control_c, 0, 64, 88
1, 241105, Control_c, 0, 67, 48
1, 241120, Control_c, 0, 64, 90
1, 241132, Poly_aftertouch_c, 0, 62, 0
1, 241135, Control_c, 0, 64, 92
1, 241150, Control_c, 0, 64, 94
1, 241165, Control_c, 0, 64, 94
1, 241191, Note_on_c, 0, 65, 55
1, 241195, Note_on_c, 0, 38, 51
1, 241195, Control_c, 0, 64, 95
1, 241195, Control_c, 0, 67, 48
1, 241210, Control_c, 0, 64, 98
1, 241218, Note_off_c, 0, 65, 59
1, 241218, Note_off_c, 0, 34, 49
1, 241224, Control_c, 0, 64, 100
1, 241230, Poly_aftertouch_c, 0, 62, 0
1, 241239, Control_c, 0, 64, 101
1, 241239, Control_c, 0, 67, 47
1, 241254, Control_c, 0, 64, 101
1, 241254, Control_c, 0, 67, 46
1, 241269, Control_c, 0, 67, 46
1, 241275, Poly_aftertouch_c, 0, 62, 0
1, 241284, Control_c, 0, 64, 102
1, 241295, Note_off_c, 0, 57, 24
1, 241299, Control_c, 0, 64, 104
1, 241299, Control_c, 0, 67, 45
1, 241311, Note_on_c, 0, 65, 55
1, 241313, Poly_aftertouch_c, 0, 62, 127
1, 241314, Control_c, 0, 64, 106
1, 241319, Note_off_c, 0, 69, 46
1, 241328, Control_c, 0, 64, 107
1, 241328, Control_c, 0, 67, 45
1, 241343, Control_c, 0, 67, 44
1, 241346, Note_off_c, 0, 65, 60
1, 241358, Control_c, 0, 64, 107
1, 241358, Control_c, 0, 67, 44
1, 241373, Control_c, 0, 64, 109
1, 241388, Control_c, 0, 64, 111
1, 241388, Control_c, 0, 67, 43
1, 241392, Poly_aftertouch_c, 0, 62, 0
1, 241402, Control_c, 0, 64, 113
1, 241407, Note_on_c, 0, 67, 74
1, 241416, Note_on_c, 0, 55, 62
1, 241417, Control_c, 0, 64, 114
1, 241417, Control_c, 0, 67, 43
1, 241429, Poly_aftertouch_c, 0, 62, 127
1, 241432, Control_c, 0, 67, 42
1, 241446, Note_off_c, 0, 55, 65
1, 241450, Note_off_c, 0, 67, 53
1, 241462, Control_c, 0, 67, 42
1, 241476, Control_c, 0, 64, 114
1, 241483, Poly_aftertouch_c, 0, 62, 0
1, 241491, Control_c, 0, 67, 42
1, 241506, Control_c, 0, 64, 114
1, 241520, Control_c, 0, 64, 110
1, 241525, Note_on_c, 0, 40, 56
1, 241527, Note_on_c, 0, 69, 77
1, 241535, Control_c, 0, 64, 100
1, 241540, Note_on_c, 0, 57, 49
1, 241550, Control_c, 0, 64, 82
1, 241565, Control_c, 0, 64, 66
1, 241580, Control_c, 0, 64, 40
1, 241594, Control_c, 0, 64, 60
1, 241594, Control_c, 0, 67, 42
1, 241597, Note_off_c, 0, 38, 39
1, 241609, Control_c, 0, 64, 66
1, 241609, Control_c, 0, 67, 41
1, 241624, Control_c, 0, 64, 69
1, 241639, Control_c, 0, 64, 72
1, 241642, Note_off_c, 0, 69, 59
1, 241643, Note_on_c, 0, 65, 66
1, 241651, Note_on_c, 0, 62, 56
1, 241654, Control_c, 0, 64, 77
1, 241661, Note_off_c, 0, 57, 50
1, 241669, Control_c, 0, 64, 84
1, 241669, Control_c, 0, 67, 41
1, 241683, Control_c, 0, 64, 89
1, 241683, Control_c, 0, 67, 40
1, 241698, Control_c, 0, 64, 93
1, 241698, Control_c, 0, 67, 39
1, 241713, Control_c, 0, 64, 96
1, 241713, Control_c, 0, 67, 38
1, 241735, Control_c, 0, 64, 100
1, 241735, Control_c, 0, 67, 37
1, 241744, Note_off_c, 0, 40, 61
1, 241750, Control_c, 0, 64, 108
1, 241750, Control_c, 0, 67, 36
1, 241755, Note_on_c, 0, 41, 56
1, 241755, Note_on_c, 0, 55, 77
1, 241755, Note_off_c, 0, 62, 31
1, 241762, Note_on_c, 0, 67, 71
1, 241765, Control_c, 0, 64, 119
1, 241765, Control_c, 0, 67, 33
1, 241780, Control_c, 0, 64, 127
1, 241780, Control_c, 0, 67, 28
1, 241782, Note_off_c, 0, 55, 68
1, 241791, Note_off_c, 0, 67, 64
1, 241795, Control_c, 0, 67, 23
1, 241809, Control_c, 0, 67, 20
1, 241821, Note_off_c, 0, 65, 27
1, 241824, Control_c, 0, 67, 18
1, 241839, Control_c, 0, 67, 15
1, 241854, Control_c, 0, 67, 12
1, 241869, Control_c, 0, 67, 10
1, 241883, Note_on_c, 0, 70, 76
1, 241883, Control_c, 0, 64, 118
1, 241883, Control_c, 0, 67, 8
1, 241889, Note_on_c, 0, 58, 65
1, 241895, Note_off_c, 0, 41, 53
1, 241898, Control_c, 0, 64, 95
1, 241898, Control_c, 0, 67, 0
1, 241910, Note_on_c, 0, 36, 55
1, 241913, Control_c, 0, 64, 76
1, 241928, Control_c, 0, 64, 59
1, 241943, Control_c, 0, 64, 0
1, 241973, Control_c, 0, 64, 50
1, 241988, Control_c, 0, 64, 62
1, 242003, Control_c, 0, 64, 65
1, 242013, Note_on_c, 0, 65, 64
1, 242018, Control_c, 0, 64, 68
1, 242024, Note_on_c, 0, 63, 47
1, 242032, Control_c, 0, 64, 71
1, 242047, Control_c, 0, 64, 74
1, 242051, Note_off_c, 0, 63, 58
1, 242053, Note_off_c, 0, 65, 58
1, 242062, Control_c, 0, 64, 77
1, 242077, Control_c, 0, 64, 79
1, 242092, Control_c, 0, 64, 81
1, 242099, Note_off_c, 0, 58, 0
1, 242099, Note_on_c, 0, 58, 11
1, 242107, Control_c, 0, 64, 82
1, 242122, Control_c, 0, 64, 86
1, 242126, Note_on_c, 0, 63, 57
1, 242133, Note_on_c, 0, 65, 50
1, 242137, Control_c, 0, 64, 88
1, 242151, Control_c, 0, 64, 89
1, 242158, Note_off_c, 0, 63, 65
1, 242167, Note_off_c, 0, 65, 64
1, 242196, Control_c, 0, 64, 89
1, 242211, Control_c, 0, 64, 90
1, 242225, Control_c, 0, 64, 91
1, 242238, Note_on_c, 0, 39, 66
1, 242244, Note_on_c, 0, 63, 51
1, 242249, Note_on_c, 0, 65, 50
1, 242266, Note_off_c, 0, 63, 62
1, 242270, Control_c, 0, 64, 92
1, 242274, Note_off_c, 0, 65, 58
1, 242285, Control_c, 0, 64, 94
1, 242297, Note_off_c, 0, 58, 0
1, 242300, Control_c, 0, 64, 97
1, 242314, Control_c, 0, 64, 100
1, 242320, Note_on_c, 0, 58, 28
1, 242329, Control_c, 0, 64, 101
1, 242344, Control_c, 0, 64, 101
1, 242348, Note_on_c, 0, 63, 47
1, 242351, Note_on_c, 0, 65, 66
1, 242358, Control_c, 0, 64, 103
1, 242366, Note_off_c, 0, 70, 54
1, 242373, Control_c, 0, 64, 107
1, 242388, Control_c, 0, 64, 114
1, 242403, Control_c, 0, 64, 123
1, 242417, Control_c, 0, 64, 127
1, 242418, Note_off_c, 0, 58, 38
1, 242426, Note_off_c, 0, 65, 39
1, 242455, Note_on_c, 0, 69, 87
1, 242476, Note_on_c, 0, 57, 73
1, 242488, Note_off_c, 0, 63, 36
1, 242504, Note_off_c, 0, 57, 63
1, 242516, Note_off_c, 0, 69, 64
1, 242587, Note_on_c, 0, 70, 90
1, 242594, Note_on_c, 0, 40, 61
1, 242602, Note_on_c, 0, 58, 76
1, 242603, Control_c, 0, 64, 83
1, 242618, Control_c, 0, 64, 64
1, 242632, Control_c, 0, 64, 59
1, 242633, Note_off_c, 0, 39, 38
1, 242647, Control_c, 0, 64, 65
1, 242662, Control_c, 0, 64, 69
1, 242676, Control_c, 0, 64, 74
1, 242691, Control_c, 0, 64, 82
1, 242706, Control_c, 0, 64, 91
1, 242708, Note_on_c, 0, 65, 71
1, 242712, Note_on_c, 0, 63, 69
1, 242721, Control_c, 0, 64, 102
1, 242736, Control_c, 0, 64, 112
1, 242737, Note_off_c, 0, 58, 59
1, 242738, Note_off_c, 0, 70, 58
1, 242752, Control_c, 0, 64, 121
1, 242767, Control_c, 0, 64, 127
1, 242824, Note_on_c, 0, 57, 78
1, 242827, Note_on_c, 0, 69, 88
1, 242828, Note_on_c, 0, 41, 61
1, 242828, Note_off_c, 0, 40, 55
1, 242838, Note_off_c, 0, 65, 60
1, 242843, Note_off_c, 0, 63, 58
1, 242855, Note_off_c, 0, 57, 63
1, 242892, Note_off_c, 0, 69, 63
1, 242944, Control_c, 0, 64, 96
1, 242957, Note_off_c, 0, 41, 55
1, 242959, Control_c, 0, 64, 71
1, 242971, Note_on_c, 0, 72, 89
1, 242974, Control_c, 0, 64, 0
1, 242980, Note_on_c, 0, 38, 56
1, 242982, Note_on_c, 0, 60, 68
1, 242999, Note_off_c, 0, 36, 21
1, 243019, Control_c, 0, 64, 46
1, 243034, Control_c, 0, 64, 64
1, 243048, Control_c, 0, 64, 70
1, 243059, Note_off_c, 0, 72, 58
1, 243063, Control_c, 0, 64, 74
1, 243078, Control_c, 0, 64, 78
1, 243091, Control_c, 0, 64, 80
1, 243098, Note_off_c, 0, 60, 63
1, 243106, Control_c, 0, 64, 82
1, 243121, Control_c, 0, 64, 85
1, 243136, Control_c, 0, 64, 88
1, 243146, Note_on_c, 0, 65, 57
1, 243150, Note_on_c, 0, 62, 52
1, 243151, Control_c, 0, 64, 90
1, 243166, Control_c, 0, 64, 91
1, 243180, Note_off_c, 0, 65, 65
1, 243180, Control_c, 0, 64, 92
1, 243183, Note_off_c, 0, 62, 63
1, 243195, Control_c, 0, 64, 93
1, 243210, Control_c, 0, 64, 95
1, 243233, Control_c, 0, 64, 98
1, 243248, Control_c, 0, 64, 99
1, 243304, Note_on_c, 0, 65, 30
1, 243306, Control_c, 0, 64, 100
1, 243321, Control_c, 0, 64, 100
1, 243336, Control_c, 0, 64, 101
1, 243343, Note_off_c, 0, 65, 51
1, 243383, Note_on_c, 0, 62, 48
1, 243395, Control_c, 0, 64, 102
1, 243396, Note_on_c, 0, 41, 57
1, 243397, Note_on_c, 0, 65, 56
1, 243410, Control_c, 0, 64, 103
1, 243424, Note_off_c, 0, 62, 60
1, 243425, Control_c, 0, 64, 105
1, 243430, Note_off_c, 0, 65, 66
1, 243440, Control_c, 0, 64, 105
1, 243454, Control_c, 0, 64, 106
1, 243461, Note_off_c, 0, 38, 31
1, 243469, Control_c, 0, 64, 110
1, 243484, Control_c, 0, 64, 119
1, 243499, Control_c, 0, 64, 127
1, 243511, Note_on_c, 0, 65, 69
1, 243517, Note_on_c, 0, 62, 44
1, 243569, Note_off_c, 0, 62, 54
1, 243615, Note_on_c, 0, 70, 83
1, 243618, Note_on_c, 0, 58, 76
1, 243633, Note_off_c, 0, 65, 52
1, 243654, Note_off_c, 0, 58, 60
1, 243672, Note_off_c, 0, 70, 63
1, 243751, Note_on_c, 0, 72, 88
1, 243752, Control_c, 0, 64, 107
1, 243756, Note_off_c, 0, 41, 60
1, 243763, Note_on_c, 0, 60, 65
1, 243764, Note_on_c, 0, 45, 58
1, 243767, Control_c, 0, 64, 88
1, 243782, Control_c, 0, 64, 85
1, 243796, Control_c, 0, 64, 87
1, 243811, Control_c, 0, 64, 91
1, 243826, Control_c, 0, 64, 100
1, 243842, Control_c, 0, 64, 127
1, 243848, Note_off_c, 0, 72, 61
1, 243885, Note_on_c, 0, 65, 80
1, 243886, Note_on_c, 0, 62, 79
1, 243897, Note_off_c, 0, 60, 31
1, 244021, Note_off_c, 0, 62, 51
1, 244042, Note_on_c, 0, 58, 82
1, 244044, Note_on_c, 0, 70, 92
1, 244047, Note_off_c, 0, 45, 64
1, 244054, Note_off_c, 0, 65, 60
1, 244058, Note_on_c, 0, 46, 65
1, 244065, Note_off_c, 0, 58, 66
1, 244105, Note_off_c, 0, 70, 66
1, 244249, Control_c, 0, 64, 101
1, 244252, Note_off_c, 0, 46, 61
1, 244264, Control_c, 0, 64, 74
1, 244277, Note_on_c, 0, 84, 87
1, 244278, Control_c, 0, 64, 0
1, 244284, Note_on_c, 0, 50, 64
1, 244286, Note_on_c, 0, 72, 81
1, 244287, Note_on_c, 0, 38, 59
1, 244308, Control_c, 0, 64, 49
1, 244322, Control_c, 0, 64, 63
1, 244337, Control_c, 0, 64, 67
1, 244353, Control_c, 0, 64, 72
1, 244368, Control_c, 0, 64, 78
1, 244383, Control_c, 0, 64, 85
1, 244398, Control_c, 0, 64, 91
1, 244405, Note_off_c, 0, 38, 59
1, 244412, Note_off_c, 0, 84, 54
1, 244413, Control_c, 0, 64, 94
1, 244417, Note_on_c, 0, 83, 18
1, 244422, Note_off_c, 0, 50, 63
1, 244427, Control_c, 0, 64, 97
1, 244442, Control_c, 0, 64, 101
1, 244456, Note_off_c, 0, 83, 53
1, 244457, Control_c, 0, 64, 106
1, 244472, Control_c, 0, 64, 112
1, 244487, Control_c, 0, 64, 119
1, 244497, Note_on_c, 0, 78, 53
1, 244501, Control_c, 0, 64, 124
1, 244503, Note_on_c, 0, 74, 55
1, 244516, Control_c, 0, 64, 127
1, 244521, Poly_aftertouch_c, 0, 75, 127
1, 244545, Poly_aftertouch_c, 0, 75, 0
1, 244545, Note_off_c, 0, 78, 50
1, 244556, Note_off_c, 0, 74, 54
1, 244594, Note_off_c, 0, 72, 37
1, 244626, Note_on_c, 0, 54, 70
1, 244634, Note_on_c, 0, 42, 55
1, 244661, Note_on_c, 0, 78, 55
1, 244671, Note_off_c, 0, 54, 60
1, 244685, Note_on_c, 0, 74, 45
1, 244690, Note_off_c, 0, 42, 59
1, 244709, Note_off_c, 0, 78, 53
1, 244712, Note_off_c, 0, 74, 61
1, 244760, Control_c, 0, 64, 116
1, 244775, Control_c, 0, 64, 114
1, 244803, Note_on_c, 0, 74, 61
1, 244803, Note_on_c, 0, 78, 71
1, 244804, Note_on_c, 0, 57, 70
1, 244805, Note_on_c, 0, 45, 71
1, 244819, Control_c, 0, 64, 115
1, 244834, Control_c, 0, 64, 118
1, 244837, Note_off_c, 0, 74, 62
1, 244849, Control_c, 0, 64, 122
1, 244857, Note_off_c, 0, 78, 54
1, 244864, Control_c, 0, 64, 126
1, 244876, Note_off_c, 0, 45, 57
1, 244879, Control_c, 0, 64, 127
1, 244894, Note_off_c, 0, 57, 61
1, 244912, Note_on_c, 0, 78, 69
1, 244927, Note_on_c, 0, 74, 70
1, 244986, Note_off_c, 0, 74, 49
1, 245022, Note_on_c, 0, 82, 94
1, 245023, Note_on_c, 0, 58, 80
1, 245025, Note_on_c, 0, 70, 85
1, 245031, Note_on_c, 0, 46, 76
1, 245046, Note_off_c, 0, 58, 70
1, 245064, Note_off_c, 0, 46, 63
1, 245082, Note_off_c, 0, 70, 63
1, 245096, Note_off_c, 0, 82, 65
1, 245118, Note_off_c, 0, 78, 38
1, 245147, Control_c, 0, 64, 108
1, 245153, Note_on_c, 0, 50, 80
1, 245153, Note_on_c, 0, 81, 95
1, 245156, Note_on_c, 0, 38, 80
1, 245156, Note_on_c, 0, 69, 90
1, 245162, Control_c, 0, 64, 72
1, 245176, Note_on_c, 0, 48, 65
1, 245176, Control_c, 0, 64, 57
1, 245191, Control_c, 0, 64, 65
1, 245203, Note_off_c, 0, 48, 40
1, 245206, Control_c, 0, 64, 70
1, 245221, Control_c, 0, 64, 75
1, 245236, Control_c, 0, 64, 84
1, 245247, Note_off_c, 0, 38, 62
1, 245250, Control_c, 0, 64, 97
1, 245256, Note_off_c, 0, 50, 64
1, 245265, Control_c, 0, 64, 113
1, 245270, Note_on_c, 0, 74, 85
1, 245272, Note_on_c, 0, 78, 81
1, 245272, Note_off_c, 0, 81, 65
1, 245280, Control_c, 0, 64, 127
1, 245284, Note_off_c, 0, 69, 64
1, 245339, Note_off_c, 0, 74, 62
1, 245371, Note_on_c, 0, 54, 93
1, 245371, Note_off_c, 0, 78, 0
1, 245376, Note_on_c, 0, 70, 95
1, 245377, Note_on_c, 0, 82, 91
1, 245380, Note_on_c, 0, 42, 78
1, 245414, Note_off_c, 0, 54, 62
1, 245414, Note_off_c, 0, 70, 64
1, 245417, Note_on_c, 0, 80, 28
1, 245417, Note_off_c, 0, 42, 63
1, 245433, Poly_aftertouch_c, 0, 78, 0
1, 245437, Note_off_c, 0, 82, 64
1, 245451, Note_off_c, 0, 80, 51
1, 245494, Control_c, 0, 64, 113
1, 245495, Note_on_c, 0, 57, 96
1, 245498, Note_on_c, 0, 45, 91
1, 245500, Note_on_c, 0, 84, 98
1, 245505, Note_on_c, 0, 72, 94
1, 245509, Control_c, 0, 64, 92
1, 245524, Control_c, 0, 64, 88
1, 245539, Control_c, 0, 64, 92
1, 245554, Control_c, 0, 64, 101
1, 245556, Note_off_c, 0, 45, 61
1, 245556, Note_off_c, 0, 84, 59
1, 245568, Control_c, 0, 64, 118
1, 245575, Note_off_c, 0, 57, 60
1, 245583, Control_c, 0, 64, 127
1, 245608, Note_on_c, 0, 74, 87
1, 245609, Note_on_c, 0, 78, 88
1, 245610, Note_off_c, 0, 72, 61
1, 245677, Note_off_c, 0, 74, 59
1, 245706, Note_off_c, 0, 78, 59
1, 245716, Note_on_c, 0, 58, 90
1, 245722, Note_on_c, 0, 46, 81
1, 245723, Note_on_c, 0, 70, 99
1, 245725, Note_on_c, 0, 82, 96
1, 245740, Note_off_c, 0, 58, 66
1, 245755, Note_off_c, 0, 46, 63
1, 245757, Note_on_c, 0, 80, 43
1, 245778, Note_off_c, 0, 70, 65
1, 245781, Note_off_c, 0, 80, 59
1, 245785, Note_off_c, 0, 82, 67
1, 245821, Control_c, 0, 64, 114
1, 245836, Control_c, 0, 64, 71
1, 245845, Note_on_c, 0, 50, 88
1, 245848, Note_on_c, 0, 81, 94
1, 245848, Note_on_c, 0, 38, 83
1, 245848, Note_on_c, 0, 69, 101
1, 245850, Control_c, 0, 64, 0
1, 245865, Control_c, 0, 64, 46
1, 245880, Control_c, 0, 64, 64
1, 245893, Note_off_c, 0, 38, 61
1, 245894, Control_c, 0, 64, 71
1, 245905, Note_off_c, 0, 50, 66
1, 245909, Control_c, 0, 64, 79
1, 245924, Control_c, 0, 64, 91
1, 245939, Control_c, 0, 64, 100
1, 245955, Control_c, 0, 64, 104
1, 245961, Note_on_c, 0, 74, 89
1, 245963, Note_on_c, 0, 78, 85
1, 245966, Note_off_c, 0, 81, 67
1, 245970, Control_c, 0, 64, 107
1, 245979, Note_off_c, 0, 69, 64
1, 245985, Control_c, 0, 64, 111
1, 245999, Control_c, 0, 64, 116
1, 246014, Control_c, 0, 64, 124
1, 246029, Control_c, 0, 64, 127
1, 246036, Note_off_c, 0, 74, 59
1, 246065, Note_off_c, 0, 78, 62
1, 246080, Note_on_c, 0, 54, 90
1, 246083, Note_on_c, 0, 42, 80
1, 246083, Note_on_c, 0, 70, 99
1, 246088, Note_on_c, 0, 82, 92
1, 246101, Note_on_c, 0, 80, 66
1, 246104, Note_off_c, 0, 54, 68
1, 246110, Note_off_c, 0, 42, 65
1, 246118, Note_off_c, 0, 80, 66
1, 246133, Note_off_c, 0, 70, 63
1, 246143, Note_off_c, 0, 82, 65
1, 246176, Control_c, 0, 64, 110
1, 246190, Control_c, 0, 64, 95
1, 246203, Note_on_c, 0, 62, 98
1, 246207, Note_on_c, 0, 69, 98
1, 246217, Note_on_c, 0, 81, 99
1, 246217, Note_on_c, 0, 50, 81
1, 246227, Control_c, 0, 64, 103
1, 246228, Note_on_c, 0, 52, 79
1, 246230, Note_off_c, 0, 62, 69
1, 246241, Note_off_c, 0, 50, 73
1, 246242, Control_c, 0, 64, 115
1, 246257, Control_c, 0, 64, 127
1, 246258, Note_off_c, 0, 52, 64
1, 246333, Note_off_c, 0, 81, 61
1, 246338, Note_on_c, 0, 74, 87
1, 246344, Note_on_c, 0, 78, 86
1, 246349, Note_off_c, 0, 69, 43
1, 246399, Note_off_c, 0, 74, 63
1, 246436, Note_off_c, 0, 78, 61
1, 246467, Note_on_c, 0, 70, 93
1, 246468, Note_on_c, 0, 82, 98
1, 246501, Note_off_c, 0, 70, 68
1, 246533, Note_off_c, 0, 82, 64
1, 246613, Note_on_c, 0, 84, 101
1, 246616, Note_on_c, 0, 72, 93
1, 246620, Note_on_c, 0, 78, 81
1, 246627, Control_c, 0, 64, 126
1, 246642, Control_c, 0, 64, 85
1, 246657, Control_c, 0, 64, 61
1, 246671, Control_c, 0, 64, 0
1, 246701, Control_c, 0, 64, 28
1, 246715, Control_c, 0, 64, 61
1, 246730, Control_c, 0, 64, 67
1, 246745, Note_on_c, 0, 50, 93
1, 246746, Control_c, 0, 64, 71
1, 246752, Note_on_c, 0, 38, 78
1, 246754, Note_on_c, 0, 42, 76
1, 246761, Control_c, 0, 64, 76
1, 246772, Note_off_c, 0, 72, 62
1, 246776, Control_c, 0, 64, 82
1, 246784, Note_off_c, 0, 84, 54
1, 246787, Note_off_c, 0, 38, 63
1, 246790, Note_off_c, 0, 42, 64
1, 246790, Note_off_c, 0, 50, 65
1, 246791, Control_c, 0, 64, 86
1, 246806, Control_c, 0, 64, 89
1, 246820, Control_c, 0, 64, 93
1, 246829, Note_off_c, 0, 78, 61
1, 246835, Control_c, 0, 64, 98
1, 246851, Control_c, 0, 64, 101
1, 246866, Control_c, 0, 64, 104
1, 246881, Control_c, 0, 64, 106
1, 246883, Note_on_c, 0, 42, 79
1, 246885, Note_on_c, 0, 50, 91
1, 246885, Note_on_c, 0, 70, 97
1, 246888, Note_on_c, 0, 82, 104
1, 246893, Note_on_c, 0, 38, 76
1, 246895, Control_c, 0, 64, 107
1, 246913, Note_on_c, 0, 78, 57
1, 246925, Note_off_c, 0, 50, 61
1, 246925, Control_c, 0, 64, 108
1, 246933, Note_off_c, 0, 38, 60
1, 246933, Note_off_c, 0, 70, 65
1, 246937, Note_off_c, 0, 42, 63
1, 246939, Control_c, 0, 64, 112
1, 246942, Note_off_c, 0, 78, 54
1, 246954, Control_c, 0, 64, 123
1, 246977, Control_c, 0, 64, 127
1, 246984, Note_off_c, 0, 82, 62
1, 247007, Control_c, 0, 64, 109
1, 247021, Control_c, 0, 64, 79
1, 247031, Note_on_c, 0, 50, 94
1, 247034, Note_on_c, 0, 38, 78
1, 247034, Note_on_c, 0, 42, 85
1, 247036, Control_c, 0, 64, 0
1, 247039, Note_on_c, 0, 69, 98
1, 247039, Note_on_c, 0, 81, 106
1, 247043, Note_on_c, 0, 78, 85
1, 247095, Control_c, 0, 64, 52
1, 247106, Note_off_c, 0, 50, 62
1, 247110, Control_c, 0, 64, 67
1, 247116, Note_off_c, 0, 38, 59
1, 247125, Control_c, 0, 64, 73
1, 247139, Control_c, 0, 64, 79
1, 247154, Control_c, 0, 64, 84
1, 247169, Control_c, 0, 64, 87
1, 247174, Note_off_c, 0, 42, 0
1, 247181, Note_on_c, 0, 52, 102
1, 247184, Control_c, 0, 64, 88
1, 247189, Note_off_c, 0, 69, 60
1, 247191, Note_on_c, 0, 40, 85
1, 247194, Note_on_c, 0, 42, 44
1, 247199, Control_c, 0, 64, 87
1, 247213, Control_c, 0, 64, 77
1, 247220, Note_off_c, 0, 81, 54
1, 247228, Control_c, 0, 64, 59
1, 247231, Note_off_c, 0, 42, 59
1, 247240, Note_off_c, 0, 52, 62
1, 247243, Note_off_c, 0, 78, 58
1, 247243, Control_c, 0, 64, 0
1, 247258, Control_c, 0, 64, 50
1, 247269, Note_off_c, 0, 40, 60
1, 247273, Control_c, 0, 64, 61
1, 247288, Control_c, 0, 64, 66
1, 247302, Control_c, 0, 64, 71
1, 247317, Control_c, 0, 64, 69
1, 247332, Control_c, 0, 64, 24
1, 247338, Note_on_c, 0, 82, 103
1, 247341, Note_on_c, 0, 70, 99
1, 247347, Control_c, 0, 64, 0
1, 247350, Note_on_c, 0, 50, 101
1, 247353, Note_on_c, 0, 42, 81
1, 247361, Note_on_c, 0, 38, 73
1, 247407, Control_c, 0, 64, 17
1, 247412, Note_on_c, 0, 40, 9
1, 247413, Note_off_c, 0, 40, 127
1, 247421, Control_c, 0, 64, 64
1, 247429, Note_off_c, 0, 50, 61
1, 247430, Note_off_c, 0, 38, 61
1, 247432, Note_off_c, 0, 70, 64
1, 247436, Control_c, 0, 64, 75
1, 247451, Note_off_c, 0, 42, 58
1, 247451, Control_c, 0, 64, 83
1, 247464, Note_off_c, 0, 82, 59
1, 247465, Control_c, 0, 64, 81
1, 247480, Control_c, 0, 64, 68
1, 247495, Control_c, 0, 64, 0
1, 247514, Note_on_c, 0, 50, 97
1, 247518, Note_on_c, 0, 42, 81
1, 247520, Note_on_c, 0, 71, 101
1, 247521, Note_on_c, 0, 78, 87
1, 247522, Note_on_c, 0, 83, 99
1, 247523, Note_on_c, 0, 38, 82
1, 247556, Control_c, 0, 64, 64
1, 247570, Control_c, 0, 64, 72
1, 247585, Control_c, 0, 64, 79
1, 247590, Note_off_c, 0, 38, 58
1, 247600, Control_c, 0, 64, 87
1, 247601, Note_off_c, 0, 50, 62
1, 247615, Control_c, 0, 64, 94
1, 247630, Control_c, 0, 64, 100
1, 247630, Poly_aftertouch_c, 0, 43, 0
1, 247644, Control_c, 0, 64, 107
1, 247654, Note_off_c, 0, 42, 58
1, 247659, Control_c, 0, 64, 124
1, 247674, Control_c, 0, 64, 127
1, 247702, Note_on_c, 0, 52, 95
1, 247704, Control_c, 0, 64, 98
1, 247705, Note_on_c, 0, 40, 86
1, 247726, Control_c, 0, 64, 71
1, 247741, Control_c, 0, 64, 0
1, 247756, Control_c, 0, 64, 49
1, 247763, Note_on_c, 0, 43, 14
1, 247768, Note_off_c, 0, 71, 49
1, 247770, Control_c, 0, 64, 65
1, 247785, Control_c, 0, 64, 71
1, 247788, Note_off_c, 0, 83, 54
1, 247789, Note_off_c, 0, 52, 59
1, 247800, Control_c, 0, 64, 78
1, 247815, Control_c, 0, 64, 91
1, 247818, Note_off_c, 0, 43, 46
1, 247830, Control_c, 0, 64, 113
1, 247844, Control_c, 0, 64, 127
1, 247857, Note_off_c, 0, 78, 33
1, 247866, Note_off_c, 0, 40, 55
1, 247874, Control_c, 0, 64, 96
1, 247889, Control_c, 0, 64, 69
1, 247903, Control_c, 0, 64, 0
1, 247917, Note_on_c, 0, 50, 98
1, 247917, Note_on_c, 0, 72, 100
1, 247917, Note_on_c, 0, 84, 104
1, 247922, Note_on_c, 0, 78, 96
1, 247923, Note_on_c, 0, 38, 82
1, 247933, Control_c, 0, 64, 60
1, 247944, Note_on_c, 0, 43, 59
1, 247944, Note_off_c, 0, 50, 65
1, 247946, Note_on_c, 0, 42, 35
1, 247948, Control_c, 0, 64, 68
1, 247949, Note_off_c, 0, 38, 69
1, 247963, Control_c, 0, 64, 75
1, 247970, Note_off_c, 0, 43, 57
1, 247977, Control_c, 0, 64, 82
1, 247985, Note_off_c, 0, 42, 31
1, 247992, Control_c, 0, 64, 87
1, 248007, Control_c, 0, 64, 91
1, 248022, Control_c, 0, 64, 93
1, 248030, Poly_aftertouch_c, 0, 44, 0
1, 248036, Control_c, 0, 64, 95
1, 248051, Control_c, 0, 64, 96
1, 248054, Note_off_c, 0, 84, 51
1, 248060, Note_off_c, 0, 72, 60
1, 248066, Control_c, 0, 64, 100
1, 248081, Control_c, 0, 64, 107
1, 248095, Control_c, 0, 64, 116
1, 248110, Control_c, 0, 64, 118
1, 248116, Note_off_c, 0, 78, 60
1, 248125, Control_c, 0, 64, 117
1, 248140, Control_c, 0, 64, 98
1, 248155, Control_c, 0, 64, 73
1, 248170, Control_c, 0, 64, 0
1, 248192, Note_on_c, 0, 73, 103
1, 248194, Note_on_c, 0, 85, 103
1, 248195, Note_on_c, 0, 81, 85
1, 248197, Note_on_c, 0, 49, 95
1, 248200, Note_on_c, 0, 37, 89
1, 248209, Note_on_c, 0, 78, 77
1, 248215, Control_c, 0, 64, 57
1, 248218, Note_off_c, 0, 49, 71
1, 248224, Note_off_c, 0, 37, 68
1, 248230, Control_c, 0, 64, 67
1, 248244, Control_c, 0, 64, 72
1, 248259, Control_c, 0, 64, 76
1, 248274, Control_c, 0, 64, 79
1, 248288, Control_c, 0, 64, 81
1, 248303, Control_c, 0, 64, 84
1, 248313, Note_off_c, 0, 73, 56
1, 248315, Note_off_c, 0, 85, 61
1, 248318, Control_c, 0, 64, 86
1, 248327, Note_off_c, 0, 78, 59
1, 248334, Control_c, 0, 64, 88
1, 248338, Note_off_c, 0, 81, 58
1, 248349, Control_c, 0, 64, 89
1, 248353, Poly_aftertouch_c, 0, 49, 0
1, 248364, Control_c, 0, 64, 88
1, 248379, Control_c, 0, 64, 83
1, 248393, Control_c, 0, 64, 70
1, 248408, Note_on_c, 0, 54, 93
1, 248408, Control_c, 0, 64, 61
1, 248409, Note_on_c, 0, 42, 89
1, 248412, Note_on_c, 0, 73, 98
1, 248414, Note_on_c, 0, 85, 96
1, 248420, Note_on_c, 0, 81, 87
1, 248422, Note_on_c, 0, 78, 82
1, 248423, Control_c, 0, 64, 67
1, 248433, Note_off_c, 0, 54, 65
1, 248438, Control_c, 0, 64, 72
1, 248444, Note_off_c, 0, 42, 62
1, 248453, Control_c, 0, 64, 77
1, 248474, Control_c, 0, 64, 80
1, 248476, Note_off_c, 0, 73, 61
1, 248483, Note_off_c, 0, 78, 61
1, 248484, Note_off_c, 0, 81, 63
1, 248489, Control_c, 0, 64, 79
1, 248497, Note_off_c, 0, 85, 62
1, 248504, Control_c, 0, 64, 73
1, 248519, Control_c, 0, 64, 65
1, 248534, Control_c, 0, 64, 64
1, 248549, Control_c, 0, 64, 70
1, 248551, Note_on_c, 0, 56, 99
1, 248557, Note_on_c, 0, 44, 85
1, 248560, Note_on_c, 0, 73, 96
1, 248563, Control_c, 0, 64, 75
1, 248569, Note_on_c, 0, 78, 83
1, 248569, Note_on_c, 0, 85, 83
1, 248570, Note_on_c, 0, 81, 83
1, 248578, Control_c, 0, 64, 81
1, 248593, Control_c, 0, 64, 90
1, 248596, Note_off_c, 0, 56, 65
1, 248604, Note_off_c, 0, 73, 64
1, 248608, Control_c, 0, 64, 100
1, 248618, Note_off_c, 0, 78, 62
1, 248622, Note_off_c, 0, 81, 63
1, 248623, Control_c, 0, 64, 103
1, 248628, Note_off_c, 0, 85, 62
1, 248638, Control_c, 0, 64, 99
1, 248653, Control_c, 0, 64, 89
1, 248653, Note_off_c, 0, 44, 58
1, 248667, Control_c, 0, 64, 77
1, 248677, Note_on_c, 0, 57, 84
1, 248682, Control_c, 0, 64, 71
1, 248683, Note_on_c, 0, 45, 81
1, 248688, Note_on_c, 0, 73, 94
1, 248694, Note_on_c, 0, 78, 81
1, 248695, Note_on_c, 0, 85, 76
1, 248696, Note_on_c, 0, 81, 77
1, 248697, Control_c, 0, 64, 79
1, 248699, Note_off_c, 0, 57, 70
1, 248712, Control_c, 0, 64, 93
1, 248713, Note_off_c, 0, 45, 68
1, 248715, Note_off_c, 0, 73, 59
1, 248725, Note_off_c, 0, 78, 62
1, 248726, Control_c, 0, 64, 109
1, 248731, Note_off_c, 0, 81, 58
1, 248741, Control_c, 0, 64, 112
1, 248744, Note_off_c, 0, 85, 60
1, 248756, Control_c, 0, 64, 103
1, 248771, Control_c, 0, 64, 81
1, 248786, Control_c, 0, 64, 65
1, 248800, Control_c, 0, 64, 67
1, 248802, Note_on_c, 0, 49, 93
1, 248803, Note_on_c, 0, 73, 95
1, 248805, Note_on_c, 0, 37, 79
1, 248808, Note_on_c, 0, 85, 77
1, 248813, Note_on_c, 0, 78, 84
1, 248815, Note_on_c, 0, 81, 77
1, 248815, Control_c, 0, 64, 82
1, 248825, Note_off_c, 0, 73, 66
1, 248826, Note_off_c, 0, 49, 68
1, 248830, Control_c, 0, 64, 99
1, 248832, Note_off_c, 0, 78, 69
1, 248834, Note_off_c, 0, 37, 66
1, 248837, Note_off_c, 0, 81, 69
1, 248845, Control_c, 0, 64, 116
1, 248851, Note_off_c, 0, 85, 61
1, 248860, Control_c, 0, 64, 115
1, 248874, Control_c, 0, 64, 101
1, 248885, Poly_aftertouch_c, 0, 39, 127
1, 248889, Control_c, 0, 64, 87
1, 248904, Control_c, 0, 64, 82
1, 248910, Note_on_c, 0, 73, 99
1, 248912, Note_on_c, 0, 42, 94
1, 248914, Note_on_c, 0, 54, 99
1, 248915, Note_on_c, 0, 85, 82
1, 248918, Note_on_c, 0, 78, 82
1, 248918, Control_c, 0, 64, 84
1, 248919, Note_on_c, 0, 81, 79
1, 248921, Poly_aftertouch_c, 0, 39, 0
1, 248933, Control_c, 0, 64, 90
1, 248937, Note_off_c, 0, 73, 59
1, 248939, Note_off_c, 0, 78, 63
1, 248945, Note_off_c, 0, 81, 62
1, 248948, Control_c, 0, 64, 94
1, 248951, Note_off_c, 0, 54, 58
1, 248958, Note_off_c, 0, 42, 61
1, 248961, Note_off_c, 0, 85, 62
1, 248963, Control_c, 0, 64, 97
1, 248978, Control_c, 0, 64, 98
1, 248993, Control_c, 0, 64, 99
1, 249008, Control_c, 0, 64, 102
1, 249016, Note_on_c, 0, 56, 99
1, 249018, Note_on_c, 0, 73, 98
1, 249022, Control_c, 0, 64, 106
1, 249023, Note_on_c, 0, 85, 79
1, 249024, Note_on_c, 0, 44, 82
1, 249025, Note_on_c, 0, 78, 86
1, 249029, Note_on_c, 0, 81, 81
1, 249037, Control_c, 0, 64, 109
1, 249044, Note_off_c, 0, 73, 56
1, 249046, Note_off_c, 0, 78, 65
1, 249049, Note_off_c, 0, 81, 67
1, 249052, Control_c, 0, 64, 110
1, 249058, Note_off_c, 0, 56, 66
1, 249060, Note_off_c, 0, 85, 59
1, 249064, Note_on_c, 0, 46, 23
1, 249089, Note_off_c, 0, 44, 56
1, 249106, Note_off_c, 0, 46, 40
1, 249119, Note_on_c, 0, 57, 90
1, 249124, Note_on_c, 0, 45, 89
1, 249128, Note_on_c, 0, 73, 100
1, 249133, Note_on_c, 0, 78, 88
1, 249136, Note_on_c, 0, 81, 82
1, 249137, Note_on_c, 0, 85, 79
1, 249142, Note_off_c, 0, 57, 67
1, 249151, Note_off_c, 0, 73, 66
1, 249160, Note_off_c, 0, 78, 57
1, 249161, Note_off_c, 0, 81, 65
1, 249162, Note_off_c, 0, 45, 61
1, 249168, Note_off_c, 0, 85, 61
1, 249201, Control_c, 0, 64, 110
1, 249244, Note_on_c, 0, 49, 101
1, 249246, Note_on_c, 0, 37, 90
1, 249247, Note_on_c, 0, 73, 97
1, 249252, Note_on_c, 0, 78, 87
1, 249255, Note_on_c, 0, 85, 81
1, 249258, Note_on_c, 0, 81, 78
1, 249267, Note_off_c, 0, 73, 67
1, 249273, Note_off_c, 0, 37, 69
1, 249273, Note_off_c, 0, 49, 64
1, 249276, Note_off_c, 0, 78, 63
1, 249279, Note_off_c, 0, 81, 70
1, 249290, Note_off_c, 0, 85, 59
1, 249312, Control_c, 0, 64, 110
1, 249327, Control_c, 0, 64, 102
1, 249341, Control_c, 0, 64, 79
1, 249350, Note_on_c, 0, 73, 93
1, 249353, Note_on_c, 0, 42, 91
1, 249356, Note_on_c, 0, 54, 94
1, 249356, Control_c, 0, 64, 0
1, 249357, Note_on_c, 0, 85, 75
1, 249358, Note_on_c, 0, 78, 81
1, 249360, Note_on_c, 0, 81, 76
1, 249374, Note_off_c, 0, 73, 64
1, 249377, Note_off_c, 0, 54, 66
1, 249380, Note_off_c, 0, 78, 66
1, 249383, Note_off_c, 0, 81, 68
1, 249388, Note_off_c, 0, 85, 61
1, 249395, Note_off_c, 0, 42, 60
1, 249451, Note_on_c, 0, 56, 100
1, 249455, Note_on_c, 0, 44, 83
1, 249457, Note_on_c, 0, 73, 97
1, 249464, Note_on_c, 0, 78, 87
1, 249467, Note_on_c, 0, 85, 75
1, 249467, Note_on_c, 0, 81, 75
1, 249480, Note_off_c, 0, 73, 61
1, 249489, Note_off_c, 0, 78, 63
1, 249491, Note_off_c, 0, 56, 60
1, 249491, Note_off_c, 0, 81, 65
1, 249495, Note_off_c, 0, 85, 62
1, 249506, Note_off_c, 0, 44, 60
1, 249559, Note_on_c, 0, 57, 87
1, 249561, Note_on_c, 0, 73, 104
1, 249568, Note_on_c, 0, 45, 76
1, 249570, Note_on_c, 0, 78, 89
1, 249571, Note_on_c, 0, 85, 79
1, 249575, Note_on_c, 0, 81, 79
1, 249591, Note_off_c, 0, 57, 62
1, 249592, Note_off_c, 0, 45, 67
1, 249604, Note_off_c, 0, 73, 62
1, 249609, Note_off_c, 0, 78, 64
1, 249616, Note_off_c, 0, 81, 61
1, 249622, Note_off_c, 0, 85, 61
1, 249679, Note_on_c, 0, 73, 111
1, 249681, Note_on_c, 0, 61, 95
1, 249681, Note_on_c, 0, 85, 87
1, 249682, Note_on_c, 0, 81, 86
1, 249683, Note_on_c, 0, 49, 97
1, 249687, Note_on_c, 0, 78, 90
1, 249696, Control_c, 0, 64, 70
1, 249702, Note_off_c, 0, 61, 68
1, 249711, Note_off_c, 0, 49, 66
1, 249711, Control_c, 0, 64, 97
1, 249713, Note_off_c, 0, 73, 66
1, 249725, Note_off_c, 0, 85, 62
1, 249726, Control_c, 0, 64, 127
1, 249728, Note_off_c, 0, 81, 66
1, 249729, Note_off_c, 0, 78, 61
1, 249972, Control_c, 0, 64, 114
1, 249987, Control_c, 0, 64, 82
1, 250002, Control_c, 0, 64, 0
1, 250064, Note_on_c, 0, 78, 91
1, 250066, Note_on_c, 0, 66, 80
1, 250075, Note_on_c, 0, 42, 62
1, 250075, Note_on_c, 0, 54, 67
1, 250082, Note_off_c, 0, 78, 69
1, 250086, Note_off_c, 0, 66, 70
1, 250100, Note_off_c, 0, 42, 59
1, 250101, Note_off_c, 0, 54, 66
1, 250166, Note_on_c, 0, 56, 87
1, 250167, Note_on_c, 0, 68, 94
1, 250169, Note_on_c, 0, 80, 95
1, 250171, Note_on_c, 0, 44, 75
1, 250191, Note_off_c, 0, 56, 67
1, 250193, Note_off_c, 0, 68, 65
1, 250203, Note_off_c, 0, 80, 61
1, 250206, Note_off_c, 0, 44, 66
1, 250280, Note_on_c, 0, 57, 86
1, 250280, Note_on_c, 0, 81, 108
1, 250280, Note_on_c, 0, 69, 98
1, 250289, Note_on_c, 0, 45, 70
1, 250304, Note_off_c, 0, 57, 65
1, 250307, Note_off_c, 0, 69, 64
1, 250312, Note_off_c, 0, 81, 65
1, 250314, Note_off_c, 0, 45, 66
1, 250410, Note_on_c, 0, 62, 95
1, 250412, Note_on_c, 0, 86, 107
1, 250412, Note_on_c, 0, 50, 96
1, 250413, Note_on_c, 0, 74, 101
1, 250429, Note_off_c, 0, 62, 69
1, 250432, Note_off_c, 0, 74, 70
1, 250432, Note_off_c, 0, 50, 74
1, 250436, Note_off_c, 0, 86, 68
1, 250446, Control_c, 0, 64, 70
1, 250461, Control_c, 0, 64, 92
1, 250476, Control_c, 0, 64, 127
1, 250579, Control_c, 0, 64, 120
1, 250594, Control_c, 0, 64, 80
1, 250609, Control_c, 0, 64, 0
1, 250821, Note_on_c, 0, 54, 79
1, 250823, Note_on_c, 0, 42, 67
1, 250824, Note_on_c, 0, 78, 92
1, 250826, Note_on_c, 0, 66, 86
1, 250844, Note_off_c, 0, 66, 71
1, 250846, Note_off_c, 0, 54, 68
1, 250854, Note_off_c, 0, 42, 64
1, 250854, Note_off_c, 0, 78, 60
1, 250933, Note_on_c, 0, 56, 93
1, 250936, Note_on_c, 0, 44, 78
1, 250940, Note_on_c, 0, 80, 99
1, 250941, Note_on_c, 0, 68, 92
1, 250960, Note_off_c, 0, 56, 63
1, 250970, Note_off_c, 0, 68, 65
1, 250975, Note_off_c, 0, 44, 62
1, 250979, Note_off_c, 0, 80, 64
1, 251057, Note_on_c, 0, 57, 91
1, 251064, Note_on_c, 0, 69, 102
1, 251065, Note_on_c, 0, 45, 78
1, 251065, Note_on_c, 0, 81, 105
1, 251087, Note_off_c, 0, 45, 68
1, 251087, Note_off_c, 0, 69, 66
1, 251088, Note_off_c, 0, 57, 65
1, 251094, Note_off_c, 0, 81, 69
1, 251240, Note_on_c, 0, 75, 99
1, 251240, Note_on_c, 0, 87, 111
1, 251242, Note_on_c, 0, 63, 104
1, 251244, Note_on_c, 0, 51, 82
1, 251254, Control_c, 0, 64, 77
1, 251269, Control_c, 0, 64, 127
1, 251270, Note_off_c, 0, 51, 67
1, 251270, Note_off_c, 0, 75, 67
1, 251277, Note_off_c, 0, 87, 67
1, 251279, Note_off_c, 0, 63, 64
1, 251528, Control_c, 0, 64, 108
1, 251544, Control_c, 0, 64, 88
1, 251559, Control_c, 0, 64, 73
1, 251574, Control_c, 0, 64, 53
1, 251589, Control_c, 0, 64, 0
1, 251897, Note_on_c, 0, 52, 99
1, 251899, Note_on_c, 0, 76, 100
1, 251902, Note_on_c, 0, 81, 86
1, 251902, Note_on_c, 0, 85, 96
1, 251902, Note_on_c, 0, 88, 97
1, 251904, Note_on_c, 0, 40, 92
1, 251914, Control_c, 0, 64, 63
1, 251929, Control_c, 0, 64, 77
1, 251944, Control_c, 0, 64, 90
1, 251959, Control_c, 0, 64, 112
1, 251962, Note_off_c, 0, 40, 64
1, 251963, Note_off_c, 0, 52, 63
1, 251974, Control_c, 0, 64, 127
1, 252005, Note_off_c, 0, 88, 56
1, 252006, Note_off_c, 0, 76, 56
1, 252019, Note_off_c, 0, 81, 57
1, 252035, Note_off_c, 0, 85, 60
1, 252100, Note_on_c, 0, 57, 86
1, 252101, Note_on_c, 0, 76, 93
1, 252102, Note_on_c, 0, 88, 96
1, 252102, Note_on_c, 0, 45, 78
1, 252108, Note_on_c, 0, 85, 87
1, 252112, Note_on_c, 0, 81, 83
1, 252135, Note_off_c, 0, 45, 65
1, 252136, Note_off_c, 0, 57, 62
1, 252144, Note_off_c, 0, 76, 64
1, 252146, Note_off_c, 0, 81, 56
1, 252155, Note_off_c, 0, 88, 62
1, 252161, Note_off_c, 0, 85, 63
1, 252196, Control_c, 0, 64, 118
1, 252218, Control_c, 0, 64, 119
1, 252233, Note_on_c, 0, 76, 102
1, 252233, Control_c, 0, 64, 127
1, 252234, Note_on_c, 0, 59, 98
1, 252235, Note_on_c, 0, 47, 86
1, 252236, Note_on_c, 0, 88, 94
1, 252239, Note_on_c, 0, 85, 81
1, 252242, Note_on_c, 0, 81, 82
1, 252257, Note_off_c, 0, 47, 70
1, 252271, Note_off_c, 0, 59, 63
1, 252274, Note_off_c, 0, 81, 58
1, 252276, Note_off_c, 0, 76, 65
1, 252281, Note_off_c, 0, 88, 63
1, 252286, Note_off_c, 0, 85, 65
1, 252307, Control_c, 0, 64, 106
1, 252322, Control_c, 0, 64, 95
1, 252337, Control_c, 0, 64, 96
1, 252341, Note_on_c, 0, 61, 92
1, 252348, Note_on_c, 0, 49, 88
1, 252350, Note_on_c, 0, 76, 103
1, 252352, Control_c, 0, 64, 100
1, 252354, Note_on_c, 0, 88, 92
1, 252358, Note_on_c, 0, 81, 84
1, 252359, Note_off_c, 0, 61, 71
1, 252361, Note_on_c, 0, 85, 83
1, 252367, Control_c, 0, 64, 106
1, 252371, Note_off_c, 0, 49, 68
1, 252379, Note_off_c, 0, 81, 66
1, 252382, Control_c, 0, 64, 111
1, 252388, Note_off_c, 0, 76, 59
1, 252395, Note_off_c, 0, 85, 59
1, 252397, Control_c, 0, 64, 115
1, 252400, Note_off_c, 0, 88, 61
1, 252412, Control_c, 0, 64, 122
1, 252427, Control_c, 0, 64, 127
1, 252457, Note_on_c, 0, 52, 90
1, 252462, Note_on_c, 0, 40, 87
1, 252462, Note_on_c, 0, 76, 97
1, 252464, Note_on_c, 0, 88, 90
1, 252466, Note_on_c, 0, 81, 86
1, 252471, Note_on_c, 0, 85, 83
1, 252471, Control_c, 0, 64, 118
1, 252478, Poly_aftertouch_c, 0, 49, 127
1, 252485, Note_off_c, 0, 52, 64
1, 252485, Control_c, 0, 64, 93
1, 252486, Note_off_c, 0, 40, 67
1, 252486, Note_off_c, 0, 81, 67
1, 252487, Note_off_c, 0, 76, 63
1, 252492, Note_off_c, 0, 85, 66
1, 252497, Note_off_c, 0, 88, 61
1, 252500, Control_c, 0, 64, 83
1, 252515, Poly_aftertouch_c, 0, 49, 0
1, 252515, Control_c, 0, 64, 86
1, 252530, Control_c, 0, 64, 94
1, 252545, Control_c, 0, 64, 103
1, 252547, Poly_aftertouch_c, 0, 39, 127
1, 252559, Control_c, 0, 64, 111
1, 252562, Note_on_c, 0, 57, 96
1, 252563, Note_on_c, 0, 45, 97
1, 252563, Note_on_c, 0, 76, 102
1, 252568, Note_on_c, 0, 88, 87
1, 252569, Note_on_c, 0, 81, 88
1, 252569, Note_on_c, 0, 85, 85
1, 252574, Poly_aftertouch_c, 0, 39, 0
1, 252574, Control_c, 0, 64, 114
1, 252589, Control_c, 0, 64, 104
1, 252591, Note_off_c, 0, 81, 65
1, 252593, Note_off_c, 0, 76, 56
1, 252597, Note_off_c, 0, 57, 64
1, 252600, Note_off_c, 0, 45, 65
1, 252600, Note_off_c, 0, 85, 58
1, 252603, Note_off_c, 0, 88, 64
1, 252604, Control_c, 0, 64, 82
1, 252619, Control_c, 0, 64, 68
1, 252633, Control_c, 0, 64, 71
1, 252648, Control_c, 0, 64, 81
1, 252663, Control_c, 0, 64, 90
1, 252668, Note_on_c, 0, 76, 95
1, 252671, Note_on_c, 0, 88, 88
1, 252672, Note_on_c, 0, 59, 96
1, 252674, Note_on_c, 0, 81, 89
1, 252675, Note_on_c, 0, 47, 92
1, 252675, Note_on_c, 0, 85, 88
1, 252677, Control_c, 0, 64, 98
1, 252692, Control_c, 0, 64, 106
1, 252698, Note_off_c, 0, 47, 70
1, 252699, Note_off_c, 0, 76, 58
1, 252702, Note_off_c, 0, 81, 60
1, 252707, Note_off_c, 0, 59, 62
1, 252707, Control_c, 0, 64, 117
1, 252711, Note_off_c, 0, 88, 62
1, 252720, Note_off_c, 0, 85, 61
1, 252722, Control_c, 0, 64, 120
1, 252766, Control_c, 0, 64, 127
1, 252767, Note_on_c, 0, 61, 91
1, 252773, Note_on_c, 0, 49, 76
1, 252773, Note_on_c, 0, 76, 97
1, 252778, Note_on_c, 0, 85, 77
1, 252779, Note_on_c, 0, 88, 86
1, 252784, Note_on_c, 0, 81, 81
1, 252797, Note_off_c, 0, 61, 59
1, 252800, Note_off_c, 0, 49, 65
1, 252802, Note_off_c, 0, 81, 69
1, 252810, Note_off_c, 0, 76, 53
1, 252817, Note_off_c, 0, 88, 60
1, 252827, Note_off_c, 0, 85, 63
1, 252884, Note_on_c, 0, 76, 99
1, 252886, Note_on_c, 0, 52, 90
1, 252886, Note_on_c, 0, 88, 89
1, 252887, Note_on_c, 0, 81, 91
1, 252889, Note_on_c, 0, 40, 90
1, 252890, Note_on_c, 0, 85, 73
1, 252910, Note_off_c, 0, 52, 65
1, 252910, Note_off_c, 0, 76, 60
1, 252911, Note_off_c, 0, 40, 71
1, 252911, Note_off_c, 0, 81, 62
1, 252917, Note_off_c, 0, 85, 64
1, 252924, Note_off_c, 0, 88, 62
1, 252996, Note_on_c, 0, 76, 98
1, 253002, Note_on_c, 0, 88, 88
1, 253002, Note_on_c, 0, 81, 91
1, 253005, Note_on_c, 0, 85, 82
1, 253005, Note_on_c, 0, 45, 89
1, 253005, Note_on_c, 0, 57, 94
1, 253020, Note_off_c, 0, 76, 56
1, 253020, Note_off_c, 0, 81, 68
1, 253026, Note_off_c, 0, 85, 67
1, 253028, Note_off_c, 0, 45, 69
1, 253028, Note_off_c, 0, 57, 66
1, 253037, Note_off_c, 0, 88, 63
1, 253041, Control_c, 0, 64, 93
1, 253056, Control_c, 0, 64, 0
1, 253099, Note_on_c, 0, 76, 102
1, 253105, Note_on_c, 0, 59, 94
1, 253106, Note_on_c, 0, 88, 83
1, 253106, Note_on_c, 0, 47, 88
1, 253106, Note_on_c, 0, 81, 84
1, 253106, Note_on_c, 0, 85, 77
1, 253121, Note_off_c, 0, 85, 66
1, 253130, Note_off_c, 0, 47, 72
1, 253131, Note_off_c, 0, 59, 66
1, 253134, Note_off_c, 0, 76, 63
1, 253136, Note_off_c, 0, 81, 60
1, 253147, Note_on_c, 0, 84, 33
1, 253148, Note_off_c, 0, 88, 63
1, 253170, Note_off_c, 0, 84, 37
1, 253205, Note_on_c, 0, 85, 70
1, 253206, Note_on_c, 0, 76, 96
1, 253209, Note_on_c, 0, 61, 103
1, 253212, Note_on_c, 0, 49, 82
1, 253212, Note_on_c, 0, 88, 80
1, 253217, Note_on_c, 0, 81, 84
1, 253240, Note_off_c, 0, 81, 65
1, 253241, Note_off_c, 0, 76, 63
1, 253252, Note_off_c, 0, 61, 59
1, 253252, Note_off_c, 0, 88, 65
1, 253260, Note_off_c, 0, 85, 64
1, 253264, Note_off_c, 0, 49, 59
1, 253323, Note_on_c, 0, 76, 103
1, 253324, Note_on_c, 0, 64, 99
1, 253326, Note_on_c, 0, 88, 95
1, 253329, Note_on_c, 0, 52, 96
1, 253330, Note_on_c, 0, 85, 85
1, 253333, Note_on_c, 0, 82, 56
1, 253334, Note_off_c, 0, 82, 127
1, 253340, Note_on_c, 0, 81, 79
1, 253352, Note_off_c, 0, 76, 69
1, 253353, Control_c, 0, 64, 66
1, 253357, Note_off_c, 0, 64, 69
1, 253360, Note_off_c, 0, 81, 70
1, 253366, Note_off_c, 0, 88, 63
1, 253368, Control_c, 0, 64, 89
1, 253369, Note_on_c, 0, 87, 30
1, 253371, Note_off_c, 0, 52, 64
1, 253380, Note_off_c, 0, 85, 63
1, 253382, Control_c, 0, 64, 127
1, 253401, Note_off_c, 0, 87, 54
1, 253542, Note_on_c, 0, 46, 15
1, 253560, Control_c, 0, 64, 114
1, 253575, Control_c, 0, 64, 90
1, 253589, Control_c, 0, 64, 69
1, 253592, Note_off_c, 0, 46, 52
1, 253604, Control_c, 0, 64, 0
1, 253684, Note_on_c, 0, 69, 92
1, 253684, Note_on_c, 0, 81, 94
1, 253685, Note_on_c, 0, 57, 73
1, 253697, Note_on_c, 0, 45, 54
1, 253716, Note_off_c, 0, 69, 65
1, 253716, Note_off_c, 0, 57, 67
1, 253723, Note_off_c, 0, 81, 66
1, 253732, Note_off_c, 0, 45, 57
1, 253798, Note_on_c, 0, 59, 87
1, 253801, Note_on_c, 0, 83, 100
1, 253803, Note_on_c, 0, 71, 91
1, 253804, Note_on_c, 0, 47, 81
1, 253825, Note_off_c, 0, 59, 65
1, 253828, Note_off_c, 0, 71, 66
1, 253831, Note_off_c, 0, 47, 67
1, 253831, Note_off_c, 0, 83, 68
1, 253911, Note_on_c, 0, 61, 92
1, 253913, Note_on_c, 0, 49, 87
1, 253917, Note_on_c, 0, 73, 99
1, 253917, Note_on_c, 0, 85, 102
1, 253940, Note_off_c, 0, 49, 69
1, 253942, Note_off_c, 0, 61, 64
1, 253948, Note_off_c, 0, 73, 66
1, 253960, Note_off_c, 0, 85, 64
1, 254048, Note_on_c, 0, 66, 96
1, 254049, Note_on_c, 0, 54, 97
1, 254051, Note_on_c, 0, 90, 110
1, 254052, Note_on_c, 0, 78, 102
1, 254068, Note_off_c, 0, 66, 67
1, 254072, Control_c, 0, 64, 73
1, 254078, Note_off_c, 0, 78, 67
1, 254080, Note_off_c, 0, 90, 63
1, 254081, Note_off_c, 0, 54, 63
1, 254087, Control_c, 0, 64, 110
1, 254102, Control_c, 0, 64, 127
1, 254235, Control_c, 0, 64, 116
1, 254249, Control_c, 0, 64, 85
1, 254264, Control_c, 0, 64, 64
1, 254279, Control_c, 0, 64, 0
1, 254439, Note_on_c, 0, 57, 84
1, 254440, Note_on_c, 0, 69, 94
1, 254442, Note_on_c, 0, 81, 100
1, 254443, Note_on_c, 0, 45, 76
1, 254472, Note_off_c, 0, 57, 66
1, 254478, Note_off_c, 0, 69, 66
1, 254481, Note_off_c, 0, 45, 67
1, 254481, Note_off_c, 0, 81, 64
1, 254572, Note_on_c, 0, 59, 94
1, 254575, Note_on_c, 0, 47, 88
1, 254576, Note_on_c, 0, 71, 99
1, 254576, Note_on_c, 0, 83, 100
1, 254601, Note_off_c, 0, 71, 67
1, 254602, Note_off_c, 0, 47, 69
1, 254606, Note_off_c, 0, 83, 69
1, 254608, Note_off_c, 0, 59, 65
1, 254710, Note_on_c, 0, 61, 103
1, 254715, Note_on_c, 0, 49, 86
1, 254715, Note_on_c, 0, 85, 100
1, 254716, Note_on_c, 0, 73, 101
1, 254740, Note_off_c, 0, 49, 67
1, 254744, Note_off_c, 0, 73, 66
1, 254749, Note_off_c, 0, 61, 63
1, 254753, Note_off_c, 0, 85, 66
1, 254916, Note_on_c, 0, 67, 104
1, 254916, Note_on_c, 0, 91, 108
1, 254916, Note_on_c, 0, 79, 104
1, 254917, Note_on_c, 0, 55, 93
1, 254939, Note_off_c, 0, 79, 70
1, 254940, Control_c, 0, 64, 66
1, 254947, Note_off_c, 0, 67, 69
1, 254947, Note_off_c, 0, 91, 71
1, 254951, Note_off_c, 0, 55, 67
1, 254954, Control_c, 0, 64, 102
1, 254969, Control_c, 0, 64, 127
1, 255302, Control_c, 0, 64, 126
1, 255317, Control_c, 0, 64, 109
1, 255332, Control_c, 0, 64, 100
1, 255347, Control_c, 0, 64, 95
1, 255361, Control_c, 0, 64, 92
1, 255376, Control_c, 0, 64, 89
1, 255391, Control_c, 0, 64, 84
1, 255405, Control_c, 0, 64, 80
1, 255420, Control_c, 0, 64, 78
1, 255435, Control_c, 0, 64, 75
1, 255450, Control_c, 0, 64, 71
1, 255465, Control_c, 0, 64, 68
1, 255479, Control_c, 0, 64, 66
1, 255494, Control_c, 0, 64, 64
1, 255509, Control_c, 0, 64, 58
1, 255525, Control_c, 0, 64, 0
1, 256051, Note_on_c, 0, 32, 81
1, 256051, Note_on_c, 0, 44, 99
1, 256053, Note_on_c, 0, 92, 105
1, 256059, Note_on_c, 0, 89, 92
1, 256061, Note_on_c, 0, 85, 89
1, 256066, Control_c, 0, 64, 59
1, 256081, Note_off_c, 0, 32, 68
1, 256081, Control_c, 0, 64, 90
1, 256092, Note_off_c, 0, 44, 68
1, 256096, Control_c, 0, 64, 127
1, 256516, Note_off_c, 0, 92, 48
1, 256520, Note_off_c, 0, 89, 58
1, 256537, Note_on_c, 0, 80, 91
1, 256542, Note_off_c, 0, 85, 58
1, 256568, Note_on_c, 0, 49, 77
1, 256722, Note_on_c, 0, 89, 85
1, 256722, Note_on_c, 0, 92, 88
1, 256722, Note_on_c, 0, 85, 83
1, 256725, Note_on_c, 0, 51, 85
1, 256743, Note_off_c, 0, 80, 60
1, 256778, Note_off_c, 0, 85, 61
1, 256798, Note_off_c, 0, 89, 61
1, 256803, Note_off_c, 0, 92, 65
1, 256850, Note_on_c, 0, 92, 84
1, 256856, Note_on_c, 0, 53, 84
1, 256859, Note_on_c, 0, 89, 82
1, 256864, Note_on_c, 0, 85, 90
1, 256890, Note_on_c, 0, 88, 35
1, 256891, Note_off_c, 0, 88, 127
1, 256961, Note_off_c, 0, 53, 64
1, 256971, Note_on_c, 0, 80, 96
1, 256979, Note_on_c, 0, 44, 84
1, 256993, Note_off_c, 0, 49, 60
1, 257005, Note_off_c, 0, 51, 56
1, 257005, Note_off_c, 0, 85, 59
1, 257021, Note_off_c, 0, 92, 52
1, 257049, Note_off_c, 0, 89, 39
1, 257080, Note_on_c, 0, 89, 66
1, 257083, Note_on_c, 0, 92, 89
1, 257083, Note_on_c, 0, 49, 95
1, 257091, Note_on_c, 0, 85, 83
1, 257110, Note_off_c, 0, 80, 61
1, 257136, Note_off_c, 0, 85, 64
1, 257141, Note_off_c, 0, 44, 49
1, 257142, Note_off_c, 0, 89, 64
1, 257147, Note_off_c, 0, 92, 65
1, 257194, Note_on_c, 0, 92, 91
1, 257198, Note_on_c, 0, 51, 89
1, 257199, Note_on_c, 0, 88, 93
1, 257202, Note_on_c, 0, 85, 97
1, 257217, Control_c, 0, 64, 85
1, 257231, Control_c, 0, 64, 59
1, 257246, Control_c, 0, 64, 61
1, 257261, Control_c, 0, 64, 68
1, 257275, Control_c, 0, 64, 73
1, 257290, Control_c, 0, 64, 80
1, 257305, Control_c, 0, 64, 91
1, 257314, Note_on_c, 0, 52, 81
1, 257320, Control_c, 0, 64, 107
1, 257320, Note_on_c, 0, 80, 102
1, 257334, Control_c, 0, 64, 127
1, 257341, Note_off_c, 0, 85, 59
1, 257368, Note_off_c, 0, 92, 64
1, 257379, Note_off_c, 0, 88, 57
1, 257434, Note_on_c, 0, 44, 81
1, 257434, Note_on_c, 0, 88, 87
1, 257435, Note_on_c, 0, 92, 91
1, 257450, Note_off_c, 0, 52, 60
1, 257452, Note_off_c, 0, 49, 61
1, 257454, Note_on_c, 0, 85, 82
1, 257455, Note_off_c, 0, 51, 63
1, 257472, Note_off_c, 0, 80, 61
1, 257493, Note_off_c, 0, 44, 63
1, 257516, Note_off_c, 0, 85, 61
1, 257523, Note_off_c, 0, 88, 62
1, 257530, Note_off_c, 0, 92, 66
1, 257593, Control_c, 0, 64, 87
1, 257600, Note_on_c, 0, 88, 96
1, 257600, Note_on_c, 0, 91, 99
1, 257603, Note_on_c, 0, 85, 89
1, 257607, Note_on_c, 0, 47, 76
1, 257607, Control_c, 0, 64, 38
1, 257608, Note_on_c, 0, 45, 72
1, 257614, Note_on_c, 0, 33, 63
1, 257616, Note_on_c, 0, 35, 64
1, 257622, Control_c, 0, 64, 0
1, 257639, Note_off_c, 0, 47, 66
1, 257656, Note_off_c, 0, 33, 61
1, 257667, Control_c, 0, 64, 48
1, 257682, Control_c, 0, 64, 66
1, 257696, Note_off_c, 0, 35, 64
1, 257697, Control_c, 0, 64, 73
1, 257712, Control_c, 0, 64, 79
1, 257722, Note_off_c, 0, 45, 64
1, 257727, Control_c, 0, 64, 83
1, 257742, Control_c, 0, 64, 85
1, 257756, Control_c, 0, 64, 86
1, 257771, Control_c, 0, 64, 89
1, 257780, Note_on_c, 0, 79, 92
1, 257786, Control_c, 0, 64, 97
1, 257798, Note_on_c, 0, 49, 83
1, 257800, Control_c, 0, 64, 108
1, 257807, Note_off_c, 0, 85, 60
1, 257815, Control_c, 0, 64, 111
1, 257819, Note_off_c, 0, 91, 59
1, 257823, Note_off_c, 0, 88, 60
1, 257830, Control_c, 0, 64, 111
1, 257845, Control_c, 0, 64, 112
1, 257860, Control_c, 0, 64, 119
1, 257874, Control_c, 0, 64, 127
1, 257903, Note_on_c, 0, 88, 90
1, 257904, Note_on_c, 0, 51, 85
1, 257904, Note_on_c, 0, 91, 97
1, 257906, Note_on_c, 0, 85, 81
1, 257926, Note_off_c, 0, 79, 62
1, 257935, Control_c, 0, 64, 100
1, 257950, Control_c, 0, 64, 79
1, 257958, Note_off_c, 0, 85, 63
1, 257959, Note_off_c, 0, 88, 65
1, 257961, Note_off_c, 0, 91, 66
1, 257965, Control_c, 0, 64, 69
1, 257979, Control_c, 0, 64, 72
1, 257994, Control_c, 0, 64, 82
1, 258009, Control_c, 0, 64, 89
1, 258012, Note_on_c, 0, 52, 85
1, 258014, Note_off_c, 0, 49, 55
1, 258017, Note_on_c, 0, 91, 96
1, 258023, Note_on_c, 0, 88, 89
1, 258024, Control_c, 0, 64, 95
1, 258025, Note_on_c, 0, 85, 87
1, 258034, Note_off_c, 0, 51, 62
1, 258039, Control_c, 0, 64, 102
1, 258053, Control_c, 0, 64, 111
1, 258062, Note_on_c, 0, 90, 30
1, 258068, Control_c, 0, 64, 127
1, 258102, Note_off_c, 0, 90, 49
1, 258111, Note_on_c, 0, 45, 87
1, 258123, Note_on_c, 0, 79, 96
1, 258126, Note_off_c, 0, 52, 62
1, 258145, Note_off_c, 0, 85, 60
1, 258156, Note_off_c, 0, 91, 61
1, 258163, Note_off_c, 0, 88, 62
1, 258221, Note_on_c, 0, 49, 90
1, 258221, Note_off_c, 0, 79, 54
1, 258236, Note_on_c, 0, 88, 87
1, 258239, Note_on_c, 0, 91, 90
1, 258240, Note_on_c, 0, 85, 89
1, 258266, Note_off_c, 0, 45, 54
1, 258283, Note_off_c, 0, 91, 67
1, 258283, Control_c, 0, 64, 88
1, 258284, Note_off_c, 0, 85, 64
1, 258286, Note_off_c, 0, 88, 65
1, 258297, Control_c, 0, 64, 66
1, 258312, Control_c, 0, 64, 64
1, 258327, Control_c, 0, 64, 73
1, 258332, Note_on_c, 0, 51, 86
1, 258338, Note_on_c, 0, 91, 97
1, 258342, Note_on_c, 0, 88, 89
1, 258342, Control_c, 0, 64, 79
1, 258346, Note_on_c, 0, 85, 91
1, 258352, Note_off_c, 0, 49, 64
1, 258357, Control_c, 0, 64, 89
1, 258372, Control_c, 0, 64, 103
1, 258386, Control_c, 0, 64, 127
1, 258425, Note_on_c, 0, 52, 76
1, 258442, Note_on_c, 0, 79, 96
1, 258445, Note_off_c, 0, 51, 62
1, 258454, Note_off_c, 0, 85, 62
1, 258464, Note_off_c, 0, 91, 55
1, 258478, Note_off_c, 0, 88, 61
1, 258514, Note_on_c, 0, 46, 82
1, 258524, Note_off_c, 0, 52, 60
1, 258548, Note_on_c, 0, 85, 89
1, 258548, Note_on_c, 0, 88, 83
1, 258549, Note_on_c, 0, 91, 91
1, 258557, Note_off_c, 0, 79, 63
1, 258564, Note_off_c, 0, 46, 63
1, 258591, Note_off_c, 0, 91, 65
1, 258594, Note_off_c, 0, 88, 65
1, 258608, Note_off_c, 0, 85, 63
1, 258623, Control_c, 0, 64, 88
1, 258638, Control_c, 0, 64, 26
1, 258647, Note_on_c, 0, 47, 90
1, 258649, Note_on_c, 0, 45, 85
1, 258653, Control_c, 0, 64, 0
1, 258654, Note_on_c, 0, 35, 73
1, 258660, Note_on_c, 0, 90, 103
1, 258676, Note_on_c, 0, 86, 90
1, 258681, Note_off_c, 0, 35, 67
1, 258688, Note_on_c, 0, 87, 34
1, 258689, Note_off_c, 0, 87, 127
1, 258689, Note_off_c, 0, 45, 57
1, 258697, Control_c, 0, 64, 56
1, 258698, Note_off_c, 0, 47, 64
1, 258712, Control_c, 0, 64, 69
1, 258728, Control_c, 0, 64, 76
1, 258741, Note_off_c, 0, 86, 59
1, 258743, Control_c, 0, 64, 83
1, 258752, Note_off_c, 0, 90, 63
1, 258755, Poly_aftertouch_c, 0, 33, 0
1, 258758, Control_c, 0, 64, 88
1, 258773, Control_c, 0, 64, 89
1, 258781, Note_on_c, 0, 78, 89
1, 258786, Note_on_c, 0, 51, 86
1, 258788, Control_c, 0, 64, 90
1, 258802, Control_c, 0, 64, 91
1, 258817, Control_c, 0, 64, 91
1, 258831, Control_c, 0, 64, 93
1, 258845, Control_c, 0, 64, 97
1, 258860, Control_c, 0, 64, 100
1, 258875, Control_c, 0, 64, 102
1, 258879, Note_on_c, 0, 52, 82
1, 258883, Note_on_c, 0, 87, 97
1, 258883, Note_on_c, 0, 90, 87
1, 258890, Control_c, 0, 64, 103
1, 258903, Note_off_c, 0, 78, 61
1, 258905, Control_c, 0, 64, 107
1, 258919, Control_c, 0, 64, 115
1, 258932, Note_off_c, 0, 87, 67
1, 258932, Note_off_c, 0, 90, 65
1, 258934, Control_c, 0, 64, 127
1, 258972, Control_c, 0, 64, 105
1, 258986, Note_on_c, 0, 54, 89
1, 258987, Control_c, 0, 64, 75
1, 258996, Note_on_c, 0, 90, 92
1, 258999, Note_on_c, 0, 87, 95
1, 259001, Control_c, 0, 64, 0
1, 259006, Note_off_c, 0, 51, 35
1, 259031, Note_off_c, 0, 52, 53
1, 259060, Control_c, 0, 64, 21
1, 259075, Control_c, 0, 64, 64
1, 259090, Control_c, 0, 64, 72
1, 259093, Note_off_c, 0, 54, 61
1, 259100, Note_on_c, 0, 47, 77
1, 259103, Note_on_c, 0, 78, 91
1, 259105, Control_c, 0, 64, 79
1, 259120, Control_c, 0, 64, 86
1, 259131, Note_off_c, 0, 87, 62
1, 259134, Control_c, 0, 64, 91
1, 259136, Note_off_c, 0, 90, 53
1, 259149, Control_c, 0, 64, 94
1, 259164, Control_c, 0, 64, 97
1, 259179, Control_c, 0, 64, 104
1, 259194, Control_c, 0, 64, 112
1, 259203, Note_on_c, 0, 51, 83
1, 259208, Control_c, 0, 64, 120
1, 259211, Note_on_c, 0, 90, 93
1, 259215, Note_on_c, 0, 87, 88
1, 259223, Control_c, 0, 64, 126
1, 259226, Note_off_c, 0, 47, 63
1, 259227, Note_off_c, 0, 78, 64
1, 259238, Control_c, 0, 64, 127
1, 259262, Note_off_c, 0, 87, 66
1, 259264, Note_off_c, 0, 90, 65
1, 259268, Control_c, 0, 64, 110
1, 259283, Control_c, 0, 64, 85
1, 259298, Control_c, 0, 64, 58
1, 259303, Note_on_c, 0, 52, 86
1, 259305, Note_off_c, 0, 51, 60
1, 259313, Control_c, 0, 64, 0
1, 259316, Note_on_c, 0, 86, 102
1, 259317, Note_on_c, 0, 90, 94
1, 259327, Control_c, 0, 64, 47
1, 259342, Control_c, 0, 64, 64
1, 259357, Control_c, 0, 64, 71
1, 259372, Control_c, 0, 64, 80
1, 259380, Note_off_c, 0, 52, 60
1, 259387, Control_c, 0, 64, 90
1, 259399, Note_on_c, 0, 54, 84
1, 259401, Control_c, 0, 64, 99
1, 259416, Control_c, 0, 64, 103
1, 259423, Note_on_c, 0, 78, 93
1, 259431, Control_c, 0, 64, 106
1, 259432, Note_off_c, 0, 86, 53
1, 259440, Note_off_c, 0, 90, 62
1, 259445, Control_c, 0, 64, 108
1, 259450, Note_off_c, 0, 54, 63
1, 259460, Control_c, 0, 64, 110
1, 259475, Control_c, 0, 64, 116
1, 259490, Control_c, 0, 64, 127
1, 259525, Note_on_c, 0, 86, 84
1, 259526, Note_on_c, 0, 36, 84
1, 259532, Note_on_c, 0, 90, 84
1, 259545, Note_off_c, 0, 78, 63
1, 259581, Note_off_c, 0, 86, 66
1, 259583, Note_off_c, 0, 90, 64
1, 259595, Control_c, 0, 64, 119
1, 259596, Note_off_c, 0, 36, 63
1, 259610, Control_c, 0, 64, 81
1, 259624, Control_c, 0, 64, 0
1, 259639, Note_on_c, 0, 82, 76
1, 259643, Note_on_c, 0, 78, 101
1, 259645, Note_on_c, 0, 90, 99
1, 259647, Note_on_c, 0, 85, 95
1, 259648, Note_on_c, 0, 49, 99
1, 259648, Note_on_c, 0, 81, 90
1, 259649, Note_on_c, 0, 37, 94
1, 259683, Control_c, 0, 64, 61
1, 259706, Control_c, 0, 64, 75
1, 259707, Note_off_c, 0, 49, 66
1, 259709, Note_off_c, 0, 37, 67
1, 259721, Control_c, 0, 64, 87
1, 259735, Note_off_c, 0, 82, 27
1, 259736, Control_c, 0, 64, 100
1, 259748, Note_off_c, 0, 81, 60
1, 259750, Control_c, 0, 64, 107
1, 259765, Note_off_c, 0, 78, 55
1, 259765, Control_c, 0, 64, 108
1, 259781, Note_off_c, 0, 85, 57
1, 259787, Note_off_c, 0, 90, 66
1, 259883, Control_c, 0, 64, 107
1, 259913, Control_c, 0, 64, 106
1, 259928, Control_c, 0, 64, 100
1, 259943, Control_c, 0, 64, 82
1, 259944, Note_on_c, 0, 57, 88
1, 259944, Note_on_c, 0, 69, 93
1, 259957, Control_c, 0, 64, 28
1, 259972, Control_c, 0, 64, 0
1, 259978, Note_off_c, 0, 57, 58
1, 259978, Note_off_c, 0, 69, 62
1, 260030, Note_on_c, 0, 84, 101
1, 260040, Note_on_c, 0, 60, 87
1, 260099, Note_off_c, 0, 60, 64
1, 260137, Note_on_c, 0, 61, 88
1, 260140, Note_on_c, 0, 85, 97
1, 260142, Note_off_c, 0, 84, 61
1, 260165, Control_c, 0, 64, 28
1, 260180, Control_c, 0, 64, 54
1, 260180, Note_off_c, 0, 85, 67
1, 260183, Note_off_c, 0, 61, 65
1, 260194, Control_c, 0, 64, 61
1, 260209, Control_c, 0, 64, 62
1, 260243, Note_on_c, 0, 66, 92
1, 260248, Note_on_c, 0, 54, 89
1, 260254, Control_c, 0, 64, 62
1, 260268, Control_c, 0, 64, 59
1, 260283, Control_c, 0, 64, 0
1, 260287, Note_off_c, 0, 66, 64
1, 260293, Note_off_c, 0, 54, 60
1, 260341, Note_on_c, 0, 56, 82
1, 260344, Note_on_c, 0, 80, 95
1, 260446, Note_on_c, 0, 81, 90
1, 260446, Note_off_c, 0, 56, 60
1, 260448, Note_on_c, 0, 57, 76
1, 260457, Note_off_c, 0, 80, 60
1, 260469, Control_c, 0, 64, 17
1, 260480, Note_off_c, 0, 81, 67
1, 260484, Control_c, 0, 64, 29
1, 260489, Note_off_c, 0, 57, 63
1, 260499, Control_c, 0, 64, 32
1, 260559, Note_on_c, 0, 61, 91
1, 260559, Control_c, 0, 64, 29
1, 260565, Note_on_c, 0, 49, 89
1, 260573, Control_c, 0, 64, 0
1, 260648, Note_off_c, 0, 61, 58
1, 260654, Note_on_c, 0, 53, 76
1, 260654, Note_on_c, 0, 77, 99
1, 260691, Control_c, 0, 64, 42
1, 260699, Note_off_c, 0, 49, 49
1, 260706, Control_c, 0, 64, 63
1, 260721, Control_c, 0, 64, 67
1, 260736, Control_c, 0, 64, 69
1, 260737, Note_off_c, 0, 53, 66
1, 260740, Note_on_c, 0, 54, 80
1, 260751, Control_c, 0, 64, 69
1, 260757, Note_on_c, 0, 78, 92
1, 260761, Note_off_c, 0, 77, 61
1, 260766, Control_c, 0, 64, 69
1, 260780, Control_c, 0, 64, 68
1, 260785, Note_off_c, 0, 78, 63
1, 260786, Note_off_c, 0, 54, 64
1, 260795, Control_c, 0, 64, 67
1, 260810, Control_c, 0, 64, 65
1, 260824, Control_c, 0, 64, 56
1, 260839, Control_c, 0, 64, 0
1, 260849, Note_on_c, 0, 57, 89
1, 260854, Note_on_c, 0, 45, 87
1, 260912, Note_off_c, 0, 57, 51
1, 260956, Note_on_c, 0, 72, 100
1, 260961, Note_on_c, 0, 48, 73
1, 260970, Note_off_c, 0, 45, 62
1, 260973, Control_c, 0, 64, 57
1, 260988, Control_c, 0, 64, 64
1, 261003, Control_c, 0, 64, 66
1, 261017, Control_c, 0, 64, 69
1, 261032, Control_c, 0, 64, 67
1, 261047, Control_c, 0, 64, 35
1, 261051, Note_off_c, 0, 48, 63
1, 261054, Note_on_c, 0, 49, 79
1, 261059, Note_on_c, 0, 73, 99
1, 261062, Control_c, 0, 64, 0
1, 261066, Note_off_c, 0, 72, 61
1, 261098, Note_off_c, 0, 73, 64
1, 261103, Note_off_c, 0, 49, 65
1, 261152, Control_c, 0, 64, 57
1, 261163, Note_on_c, 0, 54, 79
1, 261167, Control_c, 0, 64, 68
1, 261167, Note_on_c, 0, 42, 85
1, 261182, Control_c, 0, 64, 74
1, 261203, Control_c, 0, 64, 78
1, 261211, Note_off_c, 0, 54, 60
1, 261218, Control_c, 0, 64, 80
1, 261233, Control_c, 0, 64, 76
1, 261247, Control_c, 0, 64, 59
1, 261248, Note_off_c, 0, 42, 61
1, 261262, Control_c, 0, 64, 0
1, 261266, Note_on_c, 0, 68, 88
1, 261289, Note_on_c, 0, 44, 54
1, 261317, Note_on_c, 0, 43, 29
1, 261322, Control_c, 0, 64, 55
1, 261337, Control_c, 0, 64, 69
1, 261351, Note_off_c, 0, 44, 61
1, 261351, Control_c, 0, 64, 78
1, 261353, Note_off_c, 0, 43, 46
1, 261357, Note_on_c, 0, 69, 86
1, 261366, Control_c, 0, 64, 86
1, 261375, Note_on_c, 0, 45, 37
1, 261381, Control_c, 0, 64, 92
1, 261383, Note_off_c, 0, 68, 57
1, 261396, Control_c, 0, 64, 93
1, 261412, Note_off_c, 0, 45, 52
1, 261426, Note_off_c, 0, 69, 63
1, 261454, Note_on_c, 0, 60, 86
1, 261459, Note_on_c, 0, 36, 64
1, 261472, Note_on_c, 0, 35, 49
1, 261477, Note_on_c, 0, 59, 38
1, 261478, Note_off_c, 0, 59, 127
1, 261485, Control_c, 0, 64, 90
1, 261500, Control_c, 0, 64, 74
1, 261503, Note_off_c, 0, 35, 57
1, 261504, Note_off_c, 0, 36, 59
1, 261514, Note_off_c, 0, 60, 65
1, 261514, Control_c, 0, 64, 0
1, 261563, Note_on_c, 0, 49, 101
1, 261564, Note_on_c, 0, 61, 102
1, 261566, Note_on_c, 0, 37, 88
1, 261588, Control_c, 0, 64, 61
1, 261597, Note_off_c, 0, 61, 67
1, 261603, Control_c, 0, 64, 81
1, 261604, Note_off_c, 0, 49, 67
1, 261612, Note_off_c, 0, 37, 66
1, 261618, Control_c, 0, 64, 103
1, 261633, Control_c, 0, 64, 127
1, 261811, Control_c, 0, 64, 104
1, 261825, Control_c, 0, 64, 79
1, 261840, Control_c, 0, 64, 0
1, 262216, Note_on_c, 0, 49, 94
1, 262218, Note_on_c, 0, 37, 82
1, 262222, Note_on_c, 0, 44, 89
1, 262222, Note_on_c, 0, 89, 102
1, 262223, Note_on_c, 0, 77, 101
1, 262249, Control_c, 0, 64, 76
1, 262249, Note_off_c, 0, 44, 69
1, 262251, Note_off_c, 0, 37, 66
1, 262252, Note_off_c, 0, 77, 67
1, 262257, Note_off_c, 0, 49, 65
1, 262257, Note_off_c, 0, 89, 66
1, 262263, Control_c, 0, 64, 119
1, 262278, Control_c, 0, 64, 127
1, 262352, Control_c, 0, 64, 90
1, 262367, Control_c, 0, 64, 48
1, 262382, Control_c, 0, 64, 0
1, 262631, Note_on_c, 0, 90, 99
1, 262632, Note_on_c, 0, 50, 99
1, 262634, Note_on_c, 0, 42, 88
1, 262634, Note_on_c, 0, 78, 101
1, 262636, Note_on_c, 0, 81, 70
1, 262641, Note_on_c, 0, 38, 77
1, 262648, Control_c, 0, 64, 64
1, 262656, Note_off_c, 0, 81, 70
1, 262663, Control_c, 0, 64, 93
1, 262666, Note_off_c, 0, 38, 65
1, 262671, Note_off_c, 0, 78, 67
1, 262672, Note_off_c, 0, 50, 68
1, 262677, Note_off_c, 0, 42, 62
1, 262677, Note_off_c, 0, 90, 68
1, 262678, Control_c, 0, 64, 127
1, 262678, Note_on_c, 0, 44, 18
1, 262727, Note_off_c, 0, 44, 54
1, 262893, Control_c, 0, 64, 106
1, 262908, Control_c, 0, 64, 77
1, 262923, Control_c, 0, 64, 0
1, 262971, Note_on_c, 0, 69, 90
1, 262976, Note_on_c, 0, 57, 77
1, 263005, Note_off_c, 0, 69, 64
1, 263012, Note_off_c, 0, 57, 60
1, 263076, Note_on_c, 0, 61, 87
1, 263076, Note_on_c, 0, 85, 93
1, 263116, Control_c, 0, 64, 24
1, 263131, Control_c, 0, 64, 64
1, 263146, Control_c, 0, 64, 66
1, 263160, Control_c, 0, 64, 69
1, 263165, Note_off_c, 0, 61, 55
1, 263169, Note_on_c, 0, 62, 80
1, 263175, Note_on_c, 0, 86, 78
1, 263175, Control_c, 0, 64, 72
1, 263188, Note_off_c, 0, 85, 66
1, 263190, Control_c, 0, 64, 74
1, 263205, Control_c, 0, 64, 76
1, 263209, Note_off_c, 0, 62, 65
1, 263211, Note_off_c, 0, 86, 66
1, 263219, Control_c, 0, 64, 76
1, 263280, Note_on_c, 0, 66, 85
1, 263286, Note_on_c, 0, 54, 89
1, 263293, Control_c, 0, 64, 72
1, 263308, Control_c, 0, 64, 56
1, 263324, Control_c, 0, 64, 0
1, 263345, Note_off_c, 0, 66, 60
1, 263363, Note_off_c, 0, 54, 63
1, 263370, Note_on_c, 0, 56, 67
1, 263372, Note_on_c, 0, 80, 94
1, 263412, Control_c, 0, 64, 29
1, 263427, Control_c, 0, 64, 59
1, 263450, Control_c, 0, 64, 62
1, 263465, Control_c, 0, 64, 63
1, 263467, Note_on_c, 0, 57, 74
1, 263472, Note_on_c, 0, 81, 90
1, 263480, Control_c, 0, 64, 63
1, 263486, Note_off_c, 0, 80, 63
1, 263486, Note_off_c, 0, 56, 62
1, 263494, Control_c, 0, 64, 63
1, 263509, Control_c, 0, 64, 62
1, 263513, Note_off_c, 0, 81, 64
1, 263519, Note_off_c, 0, 57, 64
1, 263525, Control_c, 0, 64, 61
1, 263539, Control_c, 0, 64, 53
1, 263554, Control_c, 0, 64, 0
1, 263577, Note_on_c, 0, 62, 90
1, 263582, Note_on_c, 0, 50, 90
1, 263615, Note_on_c, 0, 60, 27
1, 263616, Note_off_c, 0, 60, 127
1, 263674, Note_on_c, 0, 77, 96
1, 263676, Note_off_c, 0, 62, 37
1, 263679, Note_on_c, 0, 53, 76
1, 263696, Note_off_c, 0, 50, 63
1, 263703, Control_c, 0, 64, 59
1, 263717, Control_c, 0, 64, 64
1, 263732, Control_c, 0, 64, 66
1, 263747, Control_c, 0, 64, 69
1, 263762, Note_on_c, 0, 54, 81
1, 263762, Control_c, 0, 64, 71
1, 263763, Note_off_c, 0, 53, 67
1, 263772, Note_on_c, 0, 78, 96
1, 263776, Note_off_c, 0, 77, 62
1, 263804, Note_off_c, 0, 54, 63
1, 263806, Control_c, 0, 64, 70
1, 263812, Note_off_c, 0, 78, 65
1, 263821, Control_c, 0, 64, 69
1, 263836, Control_c, 0, 64, 64
1, 263850, Control_c, 0, 64, 0
1, 263863, Note_on_c, 0, 57, 94
1, 263864, Note_on_c, 0, 45, 92
1, 263915, Note_off_c, 0, 57, 60
1, 263966, Note_on_c, 0, 49, 85
1, 263975, Note_off_c, 0, 45, 64
1, 263978, Note_on_c, 0, 73, 104
1, 263999, Control_c, 0, 64, 45
1, 264013, Control_c, 0, 64, 59
1, 264028, Control_c, 0, 64, 64
1, 264043, Control_c, 0, 64, 68
1, 264058, Control_c, 0, 64, 69
1, 264062, Note_on_c, 0, 50, 82
1, 264069, Note_on_c, 0, 74, 93
1, 264070, Note_off_c, 0, 73, 64
1, 264072, Control_c, 0, 64, 70
1, 264078, Note_off_c, 0, 49, 58
1, 264103, Note_off_c, 0, 50, 66
1, 264104, Note_off_c, 0, 74, 69
1, 264131, Control_c, 0, 64, 68
1, 264146, Control_c, 0, 64, 42
1, 264160, Control_c, 0, 64, 0
1, 264167, Note_on_c, 0, 54, 88
1, 264168, Note_on_c, 0, 42, 92
1, 264228, Note_off_c, 0, 54, 62
1, 264257, Control_c, 0, 64, 23
1, 264272, Control_c, 0, 64, 67
1, 264286, Note_on_c, 0, 44, 74
1, 264287, Control_c, 0, 64, 71
1, 264291, Note_on_c, 0, 67, 84
1, 264302, Control_c, 0, 64, 66
1, 264306, Note_off_c, 0, 42, 57
1, 264317, Control_c, 0, 64, 0
1, 264374, Note_on_c, 0, 69, 77
1, 264375, Note_off_c, 0, 67, 62
1, 264377, Control_c, 0, 64, 47
1, 264380, Note_off_c, 0, 44, 63
1, 264392, Control_c, 0, 64, 67
1, 264407, Control_c, 0, 64, 74
1, 264421, Control_c, 0, 64, 81
1, 264436, Control_c, 0, 64, 90
1, 264451, Control_c, 0, 64, 98
1, 264464, Note_on_c, 0, 37, 82
1, 264465, Control_c, 0, 64, 104
1, 264475, Note_on_c, 0, 61, 94
1, 264480, Control_c, 0, 64, 106
1, 264495, Control_c, 0, 64, 107
1, 264510, Control_c, 0, 64, 108
1, 264511, Note_off_c, 0, 37, 64
1, 264526, Note_off_c, 0, 61, 62
1, 264539, Control_c, 0, 64, 101
1, 264554, Control_c, 0, 64, 72
1, 264569, Control_c, 0, 64, 0
1, 264583, Note_on_c, 0, 62, 98
1, 264586, Note_on_c, 0, 50, 101
1, 264590, Note_on_c, 0, 38, 92
1, 264613, Control_c, 0, 64, 54
1, 264628, Control_c, 0, 64, 71
1, 264630, Note_off_c, 0, 50, 69
1, 264639, Note_off_c, 0, 38, 64
1, 264642, Note_on_c, 0, 70, 6
1, 264643, Note_off_c, 0, 70, 127
1, 264643, Control_c, 0, 64, 86
1, 264652, Note_off_c, 0, 69, 34
1, 264658, Control_c, 0, 64, 102
1, 264660, Note_off_c, 0, 62, 64
1, 264672, Control_c, 0, 64, 119
1, 264687, Control_c, 0, 64, 127
1, 264851, Control_c, 0, 64, 109
1, 264865, Control_c, 0, 64, 88
1, 264880, Control_c, 0, 64, 63
1, 264895, Control_c, 0, 64, 0
1, 265258, Note_on_c, 0, 49, 97
1, 265259, Note_on_c, 0, 37, 85
1, 265261, Note_on_c, 0, 44, 91
1, 265261, Note_on_c, 0, 85, 92
1, 265262, Note_on_c, 0, 89, 98
1, 265264, Note_on_c, 0, 77, 97
1, 265288, Control_c, 0, 64, 67
1, 265292, Note_off_c, 0, 77, 67
1, 265296, Note_off_c, 0, 49, 66
1, 265303, Note_off_c, 0, 89, 65
1, 265303, Control_c, 0, 64, 105
1, 265304, Note_off_c, 0, 44, 63
1, 265306, Note_off_c, 0, 37, 60
1, 265307, Note_off_c, 0, 85, 66
1, 265318, Control_c, 0, 64, 127
1, 265436, Control_c, 0, 64, 87
1, 265451, Control_c, 0, 64, 55
1, 265466, Control_c, 0, 64, 0
1, 265725, Control_c, 0, 64, 67
1, 265727, Note_on_c, 0, 90, 98
1, 265729, Note_on_c, 0, 47, 101
1, 265729, Note_on_c, 0, 78, 103
1, 265731, Note_on_c, 0, 38, 87
1, 265732, Note_on_c, 0, 35, 84
1, 265740, Control_c, 0, 64, 113
1, 265755, Note_on_c, 0, 86, 50
1, 265755, Control_c, 0, 64, 127
1, 265758, Note_off_c, 0, 35, 66
1, 265766, Note_off_c, 0, 47, 69
1, 265766, Note_off_c, 0, 78, 68
1, 265770, Note_off_c, 0, 38, 62
1, 265775, Note_off_c, 0, 86, 62
1, 265779, Note_off_c, 0, 90, 65
1, 265802, Note_on_c, 0, 40, 3
1, 265839, Note_off_c, 0, 40, 37
1, 266067, Control_c, 0, 64, 124
1, 266082, Control_c, 0, 64, 95
1, 266097, Control_c, 0, 64, 71
1, 266111, Control_c, 0, 64, 0
1, 266176, Note_on_c, 0, 71, 94
1, 266180, Note_on_c, 0, 59, 76
1, 266225, Note_off_c, 0, 71, 65
1, 266239, Note_off_c, 0, 59, 59
1, 266288, Note_on_c, 0, 61, 91
1, 266307, Note_on_c, 0, 85, 100
1, 266334, Control_c, 0, 64, 54
1, 266349, Control_c, 0, 64, 70
1, 266363, Control_c, 0, 64, 77
1, 266378, Control_c, 0, 64, 83
1, 266393, Control_c, 0, 64, 87
1, 266408, Note_off_c, 0, 61, 53
1, 266408, Control_c, 0, 64, 92
1, 266411, Note_on_c, 0, 62, 88
1, 266422, Note_on_c, 0, 86, 88
1, 266423, Control_c, 0, 64, 97
1, 266426, Note_off_c, 0, 85, 66
1, 266445, Control_c, 0, 64, 101
1, 266460, Control_c, 0, 64, 105
1, 266465, Note_off_c, 0, 62, 65
1, 266465, Note_off_c, 0, 86, 70
1, 266475, Control_c, 0, 64, 107
1, 266490, Control_c, 0, 64, 108
1, 266505, Control_c, 0, 64, 109
1, 266519, Control_c, 0, 64, 111
1, 266526, Note_on_c, 0, 66, 91
1, 266534, Control_c, 0, 64, 112
1, 266537, Note_on_c, 0, 54, 85
1, 266549, Control_c, 0, 64, 111
1, 266563, Control_c, 0, 64, 105
1, 266578, Control_c, 0, 64, 88
1, 266591, Note_off_c, 0, 66, 60
1, 266593, Control_c, 0, 64, 69
1, 266608, Note_on_c, 0, 82, 99
1, 266608, Control_c, 0, 64, 31
1, 266619, Note_on_c, 0, 58, 73
1, 266623, Control_c, 0, 64, 60
1, 266628, Note_off_c, 0, 54, 61
1, 266637, Control_c, 0, 64, 66
1, 266652, Control_c, 0, 64, 69
1, 266667, Control_c, 0, 64, 71
1, 266682, Control_c, 0, 64, 75
1, 266697, Control_c, 0, 64, 79
1, 266702, Note_on_c, 0, 83, 92
1, 266708, Note_on_c, 0, 59, 73
1, 266713, Control_c, 0, 64, 82
1, 266720, Note_off_c, 0, 82, 64
1, 266728, Control_c, 0, 64, 85
1, 266742, Note_off_c, 0, 58, 48
1, 266742, Control_c, 0, 64, 87
1, 266750, Note_off_c, 0, 83, 67
1, 266754, Note_off_c, 0, 59, 64
1, 266757, Control_c, 0, 64, 88
1, 266802, Control_c, 0, 64, 87
1, 266815, Note_on_c, 0, 62, 93
1, 266816, Control_c, 0, 64, 78
1, 266819, Note_on_c, 0, 50, 93
1, 266831, Control_c, 0, 64, 0
1, 266908, Note_on_c, 0, 77, 100
1, 266913, Note_on_c, 0, 53, 77
1, 266928, Note_off_c, 0, 62, 57
1, 266935, Control_c, 0, 64, 59
1, 266950, Note_off_c, 0, 50, 61
1, 266950, Control_c, 0, 64, 69
1, 266965, Control_c, 0, 64, 74
1, 266979, Control_c, 0, 64, 78
1, 266994, Control_c, 0, 64, 80
1, 267000, Note_on_c, 0, 78, 97
1, 267007, Note_on_c, 0, 54, 84
1, 267009, Note_off_c, 0, 53, 64
1, 267012, Note_off_c, 0, 77, 61
1, 267038, Note_off_c, 0, 78, 67
1, 267056, Note_off_c, 0, 54, 66
1, 267083, Control_c, 0, 64, 79
1, 267095, Note_on_c, 0, 59, 95
1, 267098, Control_c, 0, 64, 79
1, 267101, Note_on_c, 0, 47, 84
1, 267113, Control_c, 0, 64, 74
1, 267127, Control_c, 0, 64, 59
1, 267142, Control_c, 0, 64, 0
1, 267151, Note_off_c, 0, 59, 60
1, 267212, Note_on_c, 0, 73, 103
1, 267218, Note_on_c, 0, 49, 84
1, 267242, Note_off_c, 0, 47, 63
1, 267254, Control_c, 0, 64, 63
1, 267268, Control_c, 0, 64, 69
1, 267283, Control_c, 0, 64, 74
1, 267298, Control_c, 0, 64, 78
1, 267304, Note_on_c, 0, 74, 89
1, 267310, Note_off_c, 0, 49, 64
1, 267313, Note_on_c, 0, 50, 82
1, 267313, Control_c, 0, 64, 80
1, 267320, Note_off_c, 0, 73, 62
1, 267328, Control_c, 0, 64, 80
1, 267342, Control_c, 0, 64, 82
1, 267346, Note_off_c, 0, 74, 66
1, 267357, Control_c, 0, 64, 84
1, 267372, Control_c, 0, 64, 86
1, 267378, Note_off_c, 0, 50, 66
1, 267396, Note_on_c, 0, 42, 80
1, 267416, Control_c, 0, 64, 85
1, 267431, Control_c, 0, 64, 80
1, 267446, Control_c, 0, 64, 65
1, 267460, Control_c, 0, 64, 0
1, 267493, Note_on_c, 0, 46, 81
1, 267498, Note_on_c, 0, 70, 90
1, 267532, Note_off_c, 0, 42, 64
1, 267536, Control_c, 0, 64, 54
1, 267551, Control_c, 0, 64, 70
1, 267560, Note_off_c, 0, 46, 62
1, 267565, Control_c, 0, 64, 81
1, 267580, Control_c, 0, 64, 94
1, 267595, Control_c, 0, 64, 106
1, 267599, Note_on_c, 0, 47, 79
1, 267599, Note_on_c, 0, 71, 88
1, 267609, Control_c, 0, 64, 108
1, 267611, Note_off_c, 0, 70, 61
1, 267624, Control_c, 0, 64, 111
1, 267639, Control_c, 0, 64, 118
1, 267647, Note_off_c, 0, 71, 58
1, 267654, Control_c, 0, 64, 127
1, 267685, Note_on_c, 0, 35, 79
1, 267686, Note_on_c, 0, 59, 98
1, 267691, Note_off_c, 0, 47, 62
1, 267751, Note_off_c, 0, 35, 62
1, 267752, Note_off_c, 0, 59, 64
1, 267757, Control_c, 0, 64, 107
1, 267772, Control_c, 0, 64, 81
1, 267787, Control_c, 0, 64, 0
1, 267814, Note_on_c, 0, 60, 103
1, 267817, Note_on_c, 0, 48, 98
1, 267818, Note_on_c, 0, 36, 90
1, 267846, Control_c, 0, 64, 59
1, 267861, Control_c, 0, 64, 81
1, 267875, Control_c, 0, 64, 127
1, 267879, Note_off_c, 0, 48, 59
1, 267880, Note_off_c, 0, 60, 68
1, 267884, Note_off_c, 0, 36, 62
1, 268313, Control_c, 0, 64, 95
1, 268328, Control_c, 0, 64, 24
1, 268343, Control_c, 0, 64, 0
1, 268639, Note_on_c, 0, 37, 75
1, 268645, Note_on_c, 0, 41, 74
1, 268669, Note_on_c, 0, 44, 81
1, 268699, Note_on_c, 0, 49, 98
1, 268701, Note_on_c, 0, 77, 101
1, 268701, Note_on_c, 0, 85, 98
1, 268701, Note_on_c, 0, 89, 102
1, 268705, Note_on_c, 0, 83, 67
1, 268706, Control_c, 0, 64, 64
1, 268721, Control_c, 0, 64, 100
1, 268728, Note_off_c, 0, 83, 68
1, 268736, Control_c, 0, 64, 127
1, 268741, Note_off_c, 0, 77, 67
1, 268755, Note_off_c, 0, 37, 63
1, 268755, Note_off_c, 0, 89, 64
1, 268764, Note_off_c, 0, 85, 64
1, 268775, Note_off_c, 0, 49, 61
1, 268783, Note_off_c, 0, 41, 61
1, 268802, Note_off_c, 0, 44, 62
1, 268962, Note_on_c, 0, 82, 15
1, 269009, Note_off_c, 0, 82, 45
1, 269255, Control_c, 0, 64, 84
1, 269257, Note_on_c, 0, 42, 79
1, 269257, Note_on_c, 0, 86, 76
1, 269262, Note_on_c, 0, 78, 76
1, 269262, Note_on_c, 0, 90, 78
1, 269263, Note_on_c, 0, 30, 73
1, 269266, Note_on_c, 0, 81, 66
1, 269270, Control_c, 0, 64, 0
1, 269278, Note_off_c, 0, 78, 70
1, 269282, Note_off_c, 0, 81, 66
1, 269283, Note_off_c, 0, 42, 66
1, 269286, Note_off_c, 0, 90, 66
1, 269296, Note_off_c, 0, 86, 65
1, 269297, Note_off_c, 0, 30, 55
1, 269355, Note_on_c, 0, 78, 84
1, 269358, Note_on_c, 0, 81, 77
1, 269359, Note_on_c, 0, 45, 80
1, 269364, Note_on_c, 0, 33, 70
1, 269367, Note_on_c, 0, 86, 71
1, 269373, Note_on_c, 0, 90, 74
1, 269377, Note_off_c, 0, 78, 67
1, 269382, Note_off_c, 0, 45, 67
1, 269383, Note_off_c, 0, 81, 63
1, 269393, Note_off_c, 0, 33, 62
1, 269393, Note_off_c, 0, 86, 67
1, 269396, Note_off_c, 0, 90, 67
1, 269463, Note_on_c, 0, 78, 95
1, 269465, Note_on_c, 0, 90, 84
1, 269466, Note_on_c, 0, 47, 90
1, 269466, Note_on_c, 0, 81, 90
1, 269470, Note_on_c, 0, 35, 80
1, 269470, Note_on_c, 0, 86, 83
1, 269492, Note_off_c, 0, 47, 68
1, 269495, Note_off_c, 0, 78, 63
1, 269501, Note_off_c, 0, 35, 69
1, 269506, Note_off_c, 0, 81, 66
1, 269512, Note_off_c, 0, 90, 63
1, 269518, Note_off_c, 0, 86, 66
1, 269572, Note_on_c, 0, 86, 91
1, 269573, Note_on_c, 0, 48, 101
1, 269573, Note_on_c, 0, 81, 94
1, 269573, Note_on_c, 0, 78, 100
1, 269573, Note_on_c, 0, 90, 99
1, 269574, Note_on_c, 0, 36, 94
1, 269781, Control_c, 0, 64, 62
1, 269796, Control_c, 0, 64, 70
1, 269811, Control_c, 0, 64, 76
1, 269826, Control_c, 0, 64, 83
1, 269841, Control_c, 0, 64, 90
1, 269856, Control_c, 0, 64, 96
1, 269871, Control_c, 0, 64, 103
1, 269886, Control_c, 0, 64, 108
1, 269901, Control_c, 0, 64, 127
1, 269988, Note_off_c, 0, 48, 52
1, 270029, Note_off_c, 0, 36, 52
1, 270052, Note_off_c, 0, 90, 58
1, 270112, Note_off_c, 0, 81, 43
1, 270206, Note_off_c, 0, 86, 54
1, 270208, Note_off_c, 0, 78, 59
1, 270289, Note_on_c, 0, 89, 99
1, 270291, Note_on_c, 0, 77, 91
1, 270294, Note_on_c, 0, 49, 93
1, 270296, Note_on_c, 0, 85, 83
1, 270297, Note_on_c, 0, 80, 78
1, 270298, Note_on_c, 0, 37, 78
1, 270320, Note_off_c, 0, 49, 67
1, 270322, Note_off_c, 0, 80, 62
1, 270331, Note_off_c, 0, 77, 62
1, 270333, Note_off_c, 0, 37, 66
1, 270348, Note_off_c, 0, 89, 63
1, 270349, Note_off_c, 0, 85, 60
1, 270470, Note_on_c, 0, 86, 88
1, 270473, Note_on_c, 0, 81, 80
1, 270477, Note_on_c, 0, 90, 96
1, 270478, Note_on_c, 0, 78, 86
1, 270479, Note_on_c, 0, 30, 84
1, 270479, Note_on_c, 0, 42, 82
1, 270497, Note_off_c, 0, 78, 68
1, 270502, Note_off_c, 0, 42, 67
1, 270502, Control_c, 0, 64, 80
1, 270507, Note_off_c, 0, 81, 59
1, 270509, Note_off_c, 0, 30, 65
1, 270515, Note_off_c, 0, 86, 65
1, 270517, Note_off_c, 0, 90, 62
1, 270517, Control_c, 0, 64, 0
1, 270581, Note_on_c, 0, 78, 90
1, 270583, Note_on_c, 0, 45, 88
1, 270584, Note_on_c, 0, 90, 82
1, 270587, Note_on_c, 0, 81, 82
1, 270588, Note_on_c, 0, 33, 81
1, 270589, Note_on_c, 0, 86, 84
1, 270608, Note_off_c, 0, 78, 60
1, 270611, Note_off_c, 0, 45, 66
1, 270613, Note_off_c, 0, 81, 61
1, 270619, Note_off_c, 0, 33, 63
1, 270619, Note_off_c, 0, 90, 65
1, 270627, Note_off_c, 0, 86, 64
1, 270684, Note_on_c, 0, 78, 100
1, 270688, Note_on_c, 0, 47, 91
1, 270688, Note_on_c, 0, 90, 89
1, 270690, Note_on_c, 0, 81, 90
1, 270691, Note_on_c, 0, 35, 80
1, 270691, Note_on_c, 0, 86, 82
1, 270715, Note_off_c, 0, 47, 69
1, 270720, Note_off_c, 0, 78, 62
1, 270723, Note_off_c, 0, 35, 68
1, 270732, Note_off_c, 0, 81, 65
1, 270732, Note_off_c, 0, 90, 64
1, 270741, Note_off_c, 0, 86, 66
1, 270795, Note_on_c, 0, 86, 89
1, 270795, Note_on_c, 0, 48, 100
1, 270795, Note_on_c, 0, 81, 96
1, 270796, Note_on_c, 0, 78, 101
1, 270796, Note_on_c, 0, 90, 98
1, 270798, Note_on_c, 0, 36, 94
1, 271014, Control_c, 0, 64, 35
1, 271029, Control_c, 0, 64, 64
1, 271043, Control_c, 0, 64, 68
1, 271058, Control_c, 0, 64, 70
1, 271073, Control_c, 0, 64, 71
1, 271088, Control_c, 0, 64, 74
1, 271103, Control_c, 0, 64, 77
1, 271117, Control_c, 0, 64, 81
1, 271132, Control_c, 0, 64, 84
1, 271147, Control_c, 0, 64, 88
1, 271162, Control_c, 0, 64, 91
1, 271177, Control_c, 0, 64, 93
1, 271191, Control_c, 0, 64, 93
1, 271201, Note_off_c, 0, 48, 47
1, 271206, Control_c, 0, 64, 94
1, 271215, Note_off_c, 0, 36, 50
1, 271221, Control_c, 0, 64, 96
1, 271227, Note_off_c, 0, 90, 59
1, 271236, Control_c, 0, 64, 99
1, 271251, Control_c, 0, 64, 103
1, 271266, Control_c, 0, 64, 106
1, 271281, Control_c, 0, 64, 108
1, 271296, Control_c, 0, 64, 110
1, 271310, Control_c, 0, 64, 114
1, 271325, Control_c, 0, 64, 122
1, 271340, Control_c, 0, 64, 127
1, 271349, Note_off_c, 0, 81, 38
1, 271442, Note_off_c, 0, 78, 59
1, 271510, Note_off_c, 0, 86, 30
1, 271573, Note_on_c, 0, 89, 102
1, 271575, Note_on_c, 0, 49, 99
1, 271579, Note_on_c, 0, 37, 92
1, 271582, Note_on_c, 0, 77, 88
1, 271594, Note_off_c, 0, 49, 72
1, 271609, Note_off_c, 0, 37, 63
1, 271779, Note_off_c, 0, 89, 57
1, 271823, Note_off_c, 0, 77, 62
1, 271910, Control_c, 0, 64, 116
1, 271925, Control_c, 0, 64, 68
1, 271939, Control_c, 0, 64, 0
1, 271940, Note_on_c, 0, 42, 101
1, 271940, Note_on_c, 0, 81, 79
1, 271942, Note_on_c, 0, 30, 94
1, 271943, Note_on_c, 0, 78, 97
1, 271944, Note_on_c, 0, 85, 83
1, 271944, Note_on_c, 0, 90, 102
1, 272028, Control_c, 0, 64, 62
1, 272043, Control_c, 0, 64, 71
1, 272053, Note_off_c, 0, 30, 63
1, 272057, Control_c, 0, 64, 78
1, 272069, Note_off_c, 0, 42, 63
1, 272072, Control_c, 0, 64, 83
1, 272087, Control_c, 0, 64, 85
1, 272102, Control_c, 0, 64, 89
1, 272117, Control_c, 0, 64, 93
1, 272131, Control_c, 0, 64, 97
1, 272146, Control_c, 0, 64, 98
1, 272148, Note_off_c, 0, 81, 56
1, 272161, Control_c, 0, 64, 98
1, 272177, Note_off_c, 0, 78, 53
1, 272190, Control_c, 0, 64, 101
1, 272205, Control_c, 0, 64, 105
1, 272220, Control_c, 0, 64, 112
1, 272235, Control_c, 0, 64, 119
1, 272250, Control_c, 0, 64, 127
1, 272261, Note_off_c, 0, 90, 60
1, 272276, Note_off_c, 0, 85, 61
1, 272447, Note_on_c, 0, 73, 72
1, 272452, Note_on_c, 0, 81, 67
1, 272452, Note_on_c, 0, 93, 87
1, 272463, Note_on_c, 0, 85, 74
1, 272501, Note_off_c, 0, 81, 62
1, 272504, Note_off_c, 0, 85, 53
1, 272506, Note_off_c, 0, 73, 60
1, 272532, Note_off_c, 0, 93, 63
1, 272639, Note_on_c, 0, 73, 83
1, 272639, Note_on_c, 0, 81, 78
1, 272646, Note_on_c, 0, 93, 94
1, 272655, Note_on_c, 0, 85, 80
1, 272684, Note_off_c, 0, 85, 60
1, 272685, Note_off_c, 0, 81, 63
1, 272697, Note_off_c, 0, 73, 59
1, 272703, Note_off_c, 0, 93, 64
1, 272786, Note_on_c, 0, 81, 91
1, 272795, Note_on_c, 0, 93, 92
1, 272799, Note_on_c, 0, 85, 88
1, 272800, Note_on_c, 0, 73, 76
1, 272837, Note_off_c, 0, 81, 61
1, 272843, Note_off_c, 0, 85, 65
1, 272849, Note_off_c, 0, 93, 63
1, 272882, Note_off_c, 0, 73, 53
1, 272935, Note_on_c, 0, 81, 90
1, 272936, Note_on_c, 0, 78, 83
1, 272938, Note_on_c, 0, 90, 93
1, 272944, Note_on_c, 0, 69, 77
1, 272969, Note_off_c, 0, 69, 66
1, 272974, Note_off_c, 0, 81, 61
1, 272977, Note_off_c, 0, 90, 63
1, 272981, Note_off_c, 0, 78, 63
1, 273046, Note_on_c, 0, 90, 97
1, 273046, Note_on_c, 0, 81, 95
1, 273053, Note_on_c, 0, 78, 91
1, 273055, Note_on_c, 0, 69, 83
1, 273079, Note_off_c, 0, 81, 63
1, 273083, Note_off_c, 0, 90, 66
1, 273084, Note_off_c, 0, 78, 56
1, 273087, Note_off_c, 0, 69, 60
1, 273152, Note_on_c, 0, 90, 104
1, 273153, Note_on_c, 0, 81, 98
1, 273156, Note_on_c, 0, 78, 91
1, 273163, Note_on_c, 0, 69, 74
1, 273191, Note_off_c, 0, 69, 66
1, 273191, Note_off_c, 0, 81, 63
1, 273199, Note_off_c, 0, 90, 64
1, 273202, Note_off_c, 0, 78, 59
1, 273265, Note_on_c, 0, 81, 94
1, 273266, Note_on_c, 0, 73, 86
1, 273266, Note_on_c, 0, 85, 98
1, 273272, Note_on_c, 0, 69, 78
1, 273296, Note_off_c, 0, 69, 65
1, 273300, Note_off_c, 0, 81, 64
1, 273305, Note_off_c, 0, 85, 64
1, 273310, Note_off_c, 0, 73, 64
1, 273365, Note_on_c, 0, 81, 89
1, 273367, Note_on_c, 0, 85, 92
1, 273374, Note_on_c, 0, 73, 79
1, 273378, Note_on_c, 0, 69, 69
1, 273394, Note_off_c, 0, 81, 63
1, 273402, Note_off_c, 0, 73, 63
1, 273405, Note_off_c, 0, 69, 68
1, 273406, Note_off_c, 0, 85, 61
1, 273466, Note_on_c, 0, 81, 90
1, 273468, Note_on_c, 0, 73, 80
1, 273470, Note_on_c, 0, 85, 85
1, 273481, Note_on_c, 0, 69, 51
1, 273489, Note_off_c, 0, 73, 69
1, 273499, Note_off_c, 0, 85, 62
1, 273501, Note_off_c, 0, 81, 64
1, 273505, Note_off_c, 0, 69, 60
1, 273566, Note_on_c, 0, 69, 84
1, 273576, Note_on_c, 0, 81, 103
1, 273612, Note_off_c, 0, 69, 64
1, 273615, Note_off_c, 0, 81, 61
1, 273669, Note_on_c, 0, 66, 84
1, 273673, Note_on_c, 0, 78, 90
1, 273714, Note_off_c, 0, 66, 62
1, 273718, Note_off_c, 0, 78, 63
1, 273772, Note_on_c, 0, 61, 79
1, 273773, Note_on_c, 0, 69, 93
1, 273774, Note_on_c, 0, 73, 94
1, 273796, Note_off_c, 0, 61, 69
1, 273809, Note_off_c, 0, 73, 58
1, 273811, Note_off_c, 0, 69, 65
1, 273847, Poly_aftertouch_c, 0, 57, 127
1, 273868, Note_on_c, 0, 57, 51
1, 273882, Note_on_c, 0, 69, 98
1, 273931, Note_off_c, 0, 57, 61
1, 273934, Note_off_c, 0, 69, 62
1, 273986, Note_on_c, 0, 66, 89
1, 273987, Note_on_c, 0, 54, 80
1, 274033, Note_off_c, 0, 66, 60
1, 274050, Note_off_c, 0, 54, 60
1, 274079, Note_on_c, 0, 49, 84
1, 274080, Note_on_c, 0, 57, 88
1, 274083, Note_on_c, 0, 61, 83
1, 274093, Note_on_c, 0, 45, 63
1, 274107, Note_off_c, 0, 49, 68
1, 274115, Note_off_c, 0, 61, 63
1, 274119, Note_off_c, 0, 57, 65
1, 274120, Note_off_c, 0, 45, 64
1, 274189, Note_on_c, 0, 57, 87
1, 274191, Note_on_c, 0, 45, 76
1, 274197, Note_on_c, 0, 59, 78
1, 274214, Note_off_c, 0, 59, 66
1, 274228, Note_off_c, 0, 57, 61
1, 274244, Note_off_c, 0, 45, 64
1, 274269, Note_on_c, 0, 42, 77
1, 274279, Note_on_c, 0, 37, 68
1, 274284, Note_on_c, 0, 54, 94
1, 274289, Note_on_c, 0, 49, 88
1, 274293, Note_off_c, 0, 42, 67
1, 274308, Note_off_c, 0, 37, 65
1, 274424, Note_on_c, 0, 42, 90
1, 274432, Note_on_c, 0, 30, 99
1, 274438, Control_c, 0, 64, 110
1, 274453, Control_c, 0, 64, 70
1, 274465, Note_off_c, 0, 49, 56
1, 274467, Control_c, 0, 64, 0
1, 274499, Note_off_c, 0, 54, 54
1, 274727, Control_c, 0, 64, 35
1, 274742, Control_c, 0, 64, 62
1, 274757, Control_c, 0, 64, 66
1, 274772, Control_c, 0, 64, 70
1, 274786, Control_c, 0, 64, 74
1, 274801, Control_c, 0, 64, 79
1, 274816, Control_c, 0, 64, 85
1, 274831, Control_c, 0, 64, 90
1, 274846, Control_c, 0, 64, 98
1, 274861, Control_c, 0, 64, 109
1, 274875, Control_c, 0, 64, 127
1, 274930, Note_off_c, 0, 30, 58
1, 274936, Note_on_c, 0, 32, 26
1, 274983, Note_off_c, 0, 32, 47
1, 275011, Note_off_c, 0, 42, 61
1, 275313, Note_on_c, 0, 54, 68
1, 275335, Note_on_c, 0, 60, 76
1, 275349, Control_c, 0, 64, 103
1, 275364, Control_c, 0, 64, 69
1, 275377, Note_on_c, 0, 63, 83
1, 275379, Control_c, 0, 64, 0
1, 275382, Note_on_c, 0, 57, 49
1, 275393, Control_c, 0, 64, 38
1, 275396, Note_on_c, 0, 84, 90
1, 275396, Note_on_c, 0, 90, 103
1, 275398, Note_on_c, 0, 78, 101
1, 275400, Note_on_c, 0, 81, 83
1, 275406, Note_off_c, 0, 54, 65
1, 275407, Note_on_c, 0, 69, 99
1, 275408, Control_c, 0, 64, 67
1, 275413, Note_off_c, 0, 57, 63
1, 275430, Control_c, 0, 64, 82
1, 275441, Note_on_c, 0, 87, 38
1, 275442, Note_off_c, 0, 87, 127
1, 275445, Control_c, 0, 64, 122
1, 275451, Note_off_c, 0, 81, 65
1, 275455, Note_off_c, 0, 69, 69
1, 275456, Note_off_c, 0, 78, 67
1, 275460, Control_c, 0, 64, 127
1, 275466, Note_off_c, 0, 84, 66
1, 275473, Note_off_c, 0, 60, 62
1, 275475, Note_off_c, 0, 90, 66
1, 275476, Note_off_c, 0, 63, 64
1, 275698, Control_c, 0, 64, 110
1, 275713, Control_c, 0, 64, 75
1, 275728, Control_c, 0, 64, 0
1, 275749, Note_on_c, 0, 54, 77
1, 275774, Note_on_c, 0, 57, 77
1, 275805, Note_on_c, 0, 61, 84
1, 275869, Note_off_c, 0, 54, 61
1, 275886, Note_off_c, 0, 57, 62
1, 275893, Note_on_c, 0, 78, 98
1, 275893, Note_on_c, 0, 85, 90
1, 275893, Note_on_c, 0, 90, 102
1, 275895, Note_on_c, 0, 69, 95
1, 275899, Note_on_c, 0, 81, 79
1, 275905, Control_c, 0, 64, 68
1, 275920, Control_c, 0, 64, 91
1, 275922, Note_off_c, 0, 81, 67
1, 275931, Note_off_c, 0, 78, 67
1, 275935, Control_c, 0, 64, 127
1, 275941, Note_off_c, 0, 69, 67
1, 275943, Note_off_c, 0, 61, 65
1, 275947, Note_off_c, 0, 85, 63
1, 275956, Note_off_c, 0, 90, 67
1, 276447, Control_c, 0, 64, 122
1, 276462, Control_c, 0, 64, 110
1, 276477, Control_c, 0, 64, 104
1, 276492, Control_c, 0, 64, 101
1, 276507, Control_c, 0, 64, 96
1, 276521, Control_c, 0, 64, 90
1, 276536, Control_c, 0, 64, 84
1, 276551, Control_c, 0, 64, 80
1, 276566, Control_c, 0, 64, 78
1, 276581, Control_c, 0, 64, 74
1, 276596, Control_c, 0, 64, 70
1, 276611, Control_c, 0, 64, 66
1, 276626, Control_c, 0, 64, 65
1, 276641, Control_c, 0, 64, 65
1, 276655, Control_c, 0, 64, 61
1, 276670, Control_c, 0, 64, 28
1, 276685, Control_c, 0, 64, 0
1, 276700, Control_c, 0, 67, 9
1, 276715, Control_c, 0, 67, 12
1, 276729, Control_c, 0, 67, 15
1, 276744, Control_c, 0, 67, 17
1, 276759, Control_c, 0, 67, 19
1, 276773, Control_c, 0, 67, 22
1, 276788, Control_c, 0, 67, 27
1, 276803, Control_c, 0, 67, 33
1, 276818, Control_c, 0, 67, 36
1, 276833, Control_c, 0, 67, 40
1, 276847, Control_c, 0, 67, 44
1, 276862, Control_c, 0, 67, 48
1, 276877, Control_c, 0, 67, 53
1, 276891, Control_c, 0, 67, 57
1, 276906, Control_c, 0, 67, 61
1, 276929, Control_c, 0, 67, 64
1, 276944, Control_c, 0, 67, 66
1, 276959, Control_c, 0, 67, 68
1, 276973, Control_c, 0, 67, 71
1, 276988, Control_c, 0, 67, 73
1, 277003, Control_c, 0, 67, 76
1, 277018, Control_c, 0, 67, 78
1, 277033, Control_c, 0, 67, 81
1, 277047, Control_c, 0, 67, 84
1, 277062, Control_c, 0, 67, 86
1, 277077, Control_c, 0, 67, 88
1, 277093, Control_c, 0, 67, 90
1, 277108, Control_c, 0, 67, 93
1, 277123, Control_c, 0, 67, 96
1, 277138, Control_c, 0, 67, 98
1, 277152, Control_c, 0, 67, 100
1, 277167, Control_c, 0, 67, 101
1, 277182, Control_c, 0, 67, 103
1, 277196, Control_c, 0, 67, 105
1, 277211, Control_c, 0, 67, 107
1, 277226, Control_c, 0, 67, 108
1, 277241, Control_c, 0, 67, 109
1, 277256, Control_c, 0, 67, 110
1, 277270, Control_c, 0, 67, 111
1, 277285, Control_c, 0, 67, 112
1, 277300, Control_c, 0, 67, 113
1, 277329, Control_c, 0, 67, 113
1, 277344, Control_c, 0, 67, 114
1, 277359, Control_c, 0, 67, 115
1, 277374, Control_c, 0, 67, 116
1, 277389, Control_c, 0, 67, 117
1, 277404, Control_c, 0, 67, 119
1, 277419, Control_c, 0, 67, 121
1, 277433, Control_c, 0, 67, 122
1, 277448, Control_c, 0, 67, 123
1, 277463, Control_c, 0, 67, 124
1, 277478, Control_c, 0, 67, 125
1, 277493, Control_c, 0, 67, 125
1, 277522, Control_c, 0, 64, 27
1, 277537, Control_c, 0, 64, 51
1, 277537, Control_c, 0, 67, 126
1, 277552, Control_c, 0, 64, 59
1, 277567, Control_c, 0, 64, 62
1, 277582, Control_c, 0, 64, 63
1, 277596, Control_c, 0, 64, 64
1, 277611, Control_c, 0, 64, 65
1, 277626, Control_c, 0, 64, 66
1, 277641, Control_c, 0, 64, 67
1, 277656, Control_c, 0, 64, 68
1, 277678, Control_c, 0, 64, 69
1, 277693, Control_c, 0, 64, 70
1, 277708, Control_c, 0, 64, 71
1, 277722, Control_c, 0, 64, 72
1, 277737, Control_c, 0, 64, 74
1, 277739, Note_on_c, 0, 54, 60
1, 277740, Note_on_c, 0, 42, 44
1, 277751, Note_on_c, 0, 30, 43
1, 277751, Note_on_c, 0, 39, 45
1, 277752, Control_c, 0, 64, 77
1, 277753, Note_on_c, 0, 45, 37
1, 277754, Note_on_c, 0, 36, 48
1, 277756, Note_on_c, 0, 51, 48
1, 277767, Control_c, 0, 64, 81
1, 277774, Note_on_c, 0, 48, 23
1, 277782, Control_c, 0, 64, 84
1, 277786, Note_off_c, 0, 45, 49
1, 277789, Note_off_c, 0, 51, 63
1, 277790, Note_off_c, 0, 54, 63
1, 277792, Note_off_c, 0, 30, 60
1, 277792, Note_off_c, 0, 36, 62
1, 277794, Note_off_c, 0, 39, 60
1, 277794, Note_off_c, 0, 42, 62
1, 277796, Control_c, 0, 64, 86
1, 277816, Note_off_c, 0, 48, 52
1, 277856, Control_c, 0, 67, 126
1, 277870, Control_c, 0, 64, 85
1, 277870, Control_c, 0, 67, 127
1, 277885, Control_c, 0, 64, 84
1, 277901, Control_c, 0, 64, 83
1, 277901, Control_c, 0, 67, 127
1, 277916, Control_c, 0, 64, 81
1, 277931, Control_c, 0, 64, 75
1, 277945, Control_c, 0, 64, 67
1, 277960, Control_c, 0, 64, 0
1, 279398, Control_c, 0, 64, 28
1, 279413, Control_c, 0, 64, 38
1, 279428, Control_c, 0, 64, 42
1, 279442, Control_c, 0, 64, 45
1, 279457, Control_c, 0, 64, 49
1, 279472, Control_c, 0, 64, 53
1, 279487, Control_c, 0, 64, 56
1, 279502, Control_c, 0, 64, 57
1, 279517, Control_c, 0, 64, 58
1, 279532, Control_c, 0, 64, 59
1, 279547, Control_c, 0, 64, 60
1, 279562, Control_c, 0, 64, 61
1, 279577, Control_c, 0, 64, 62
1, 279591, Control_c, 0, 64, 63
1, 279606, Control_c, 0, 64, 63
1, 279621, Control_c, 0, 64, 64
1, 279636, Control_c, 0, 64, 64
1, 279651, Control_c, 0, 64, 65
1, 279665, Control_c, 0, 64, 66
1, 279680, Control_c, 0, 64, 67
1, 279695, Control_c, 0, 64, 68
1, 279710, Control_c, 0, 64, 69
1, 279724, Control_c, 0, 64, 70
1, 279739, Control_c, 0, 64, 71
1, 279744, Note_on_c, 0, 54, 43
1, 279749, Note_on_c, 0, 49, 40
1, 279752, Note_on_c, 0, 30, 38
1, 279754, Control_c, 0, 64, 75
1, 279764, Note_on_c, 0, 37, 40
1, 279768, Note_on_c, 0, 42, 26
1, 279769, Control_c, 0, 64, 78
1, 279784, Control_c, 0, 64, 81
1, 279785, Poly_aftertouch_c, 0, 45, 127
1, 279794, Note_off_c, 0, 49, 61
1, 279798, Control_c, 0, 64, 84
1, 279800, Note_off_c, 0, 54, 58
1, 279803, Note_off_c, 0, 37, 61
1, 279809, Note_off_c, 0, 42, 61
1, 279813, Control_c, 0, 64, 86
1, 279817, Note_off_c, 0, 30, 59
1, 279828, Control_c, 0, 64, 87
1, 279833, Poly_aftertouch_c, 0, 45, 0
1, 279954, Control_c, 0, 64, 86
1, 280043, Control_c, 0, 64, 86
1, 280058, Control_c, 0, 64, 84
1, 280072, Control_c, 0, 64, 81
1, 280087, Control_c, 0, 64, 76
1, 280102, Control_c, 0, 64, 69
1, 280116, Control_c, 0, 64, 56
1, 280131, Control_c, 0, 64, 0
1, 283935, Control_c, 0, 67, 126
1, 283950, Control_c, 0, 67, 125
1, 283965, Control_c, 0, 67, 124
1, 283980, Control_c, 0, 67, 123
1, 283994, Control_c, 0, 67, 122
1, 284009, Control_c, 0, 67, 122
1, 284024, Control_c, 0, 67, 121
1, 284039, Control_c, 0, 67, 119
1, 284054, Control_c, 0, 67, 117
1, 284069, Control_c, 0, 67, 117
1, 284083, Control_c, 0, 67, 115
1, 284098, Control_c, 0, 67, 115
1, 284113, Control_c, 0, 67, 113
1, 284128, Control_c, 0, 67, 112
1, 284143, Control_c, 0, 67, 110
1, 284157, Control_c, 0, 67, 106
1, 284172, Control_c, 0, 67, 102
1, 284187, Control_c, 0, 67, 94
1, 284202, Control_c, 0, 67, 89
1, 284217, Control_c, 0, 67, 86
1, 284231, Control_c, 0, 67, 84
1, 284246, Control_c, 0, 67, 80
1, 284261, Control_c, 0, 67, 76
1, 284276, Control_c, 0, 67, 72
1, 284291, Control_c, 0, 67, 68
1, 284305, Control_c, 0, 67, 65
1, 284320, Control_c, 0, 67, 62
1, 284335, Control_c, 0, 67, 59
1, 284350, Control_c, 0, 67, 54
1, 284365, Control_c, 0, 67, 51
1, 284379, Control_c, 0, 67, 49
1, 284394, Control_c, 0, 67, 47
1, 284417, Control_c, 0, 67, 45
1, 284432, Control_c, 0, 67, 42
1, 284447, Control_c, 0, 67, 38
1, 284461, Control_c, 0, 67, 34
1, 284476, Control_c, 0, 67, 28
1, 284491, Control_c, 0, 67, 23
1, 284506, Control_c, 0, 67, 18
1, 284520, Control_c, 0, 67, 13
1, 284535, Control_c, 0, 67, 8
1, 284550, Control_c, 0, 67, 0
1, 288160, Control_c, 0, 67, 9
1, 288175, Control_c, 0, 67, 11
1, 288190, Control_c, 0, 67, 13
1, 288204, Control_c, 0, 67, 16
1, 288219, Control_c, 0, 67, 20
1, 288234, Control_c, 0, 67, 27
1, 288249, Control_c, 0, 67, 32
1, 288263, Control_c, 0, 67, 34
1, 288279, Control_c, 0, 67, 36
1, 288294, Control_c, 0, 67, 36
1, 288309, Control_c, 0, 67, 37
1, 288324, Control_c, 0, 67, 37
1, 288339, Control_c, 0, 67, 38
1, 288427, Control_c, 0, 67, 37
1, 288442, Control_c, 0, 67, 37
1, 288457, Control_c, 0, 67, 36
1, 288472, Control_c, 0, 67, 36
1, 288531, Control_c, 0, 67, 35
1, 288546, Control_c, 0, 67, 35
1, 288561, Control_c, 0, 67, 34
1, 288606, Control_c, 0, 67, 34
1, 288635, Control_c, 0, 67, 33
1, 288650, Control_c, 0, 67, 33
1, 288679, Control_c, 0, 67, 32
1, 288724, Control_c, 0, 67, 32
1, 288739, Control_c, 0, 67, 31
1, 288753, Control_c, 0, 67, 31
1, 288768, Control_c, 0, 67, 30
1, 288813, Control_c, 0, 67, 30
1, 288827, Control_c, 0, 67, 29
1, 288939, Control_c, 0, 67, 29
1, 288983, Control_c, 0, 67, 28
1, 289027, Control_c, 0, 67, 28
1, 289088, Control_c, 0, 67, 27
1, 289147, Control_c, 0, 67, 27
1, 289250, Control_c, 0, 67, 26
1, 289339, Control_c, 0, 67, 26
1, 290325, Control_c, 0, 64, 17
1, 290340, Control_c, 0, 64, 27
1, 290355, Control_c, 0, 64, 31
1, 290370, Control_c, 0, 64, 35
1, 290385, Control_c, 0, 64, 37
1, 290406, Control_c, 0, 64, 39
1, 290421, Control_c, 0, 64, 42
1, 290436, Control_c, 0, 64, 45
1, 290451, Control_c, 0, 64, 48
1, 290466, Control_c, 0, 64, 50
1, 290481, Control_c, 0, 64, 51
1, 290496, Control_c, 0, 64, 52
1, 290511, Control_c, 0, 64, 53
1, 290525, Control_c, 0, 64, 54
1, 290540, Control_c, 0, 64, 56
1, 290555, Control_c, 0, 64, 57
1, 290570, Control_c, 0, 64, 58
1, 290585, Control_c, 0, 64, 59
1, 290599, Control_c, 0, 64, 60
1, 290614, Control_c, 0, 64, 61
1, 290629, Control_c, 0, 64, 62
1, 290644, Control_c, 0, 64, 63
1, 290658, Control_c, 0, 64, 64
1, 290674, Control_c, 0, 64, 64
1, 290689, Control_c, 0, 64, 65
1, 290704, Control_c, 0, 64, 65
1, 290719, Control_c, 0, 64, 66
1, 290734, Control_c, 0, 64, 66
1, 290763, Control_c, 0, 64, 67
1, 290778, Control_c, 0, 64, 68
1, 290793, Control_c, 0, 64, 68
1, 290822, Control_c, 0, 64, 69
1, 290837, Control_c, 0, 64, 69
1, 290852, Control_c, 0, 64, 70
1, 290867, Control_c, 0, 64, 70
1, 290867, Control_c, 0, 67, 25
1, 290881, Control_c, 0, 64, 71
1, 290896, Control_c, 0, 64, 72
1, 290896, Control_c, 0, 67, 25
1, 290911, Control_c, 0, 64, 72
1, 290926, Control_c, 0, 64, 73
1, 290926, Control_c, 0, 67, 24
1, 290941, Control_c, 0, 64, 74
1, 290941, Control_c, 0, 67, 24
1, 290955, Control_c, 0, 64, 74
1, 290955, Control_c, 0, 67, 23
1, 290970, Control_c, 0, 64, 75
1, 290970, Control_c, 0, 67, 19
1, 290985, Control_c, 0, 64, 76
1, 290985, Control_c, 0, 67, 13
1, 291000, Control_c, 0, 64, 77
1, 291000, Control_c, 0, 67, 0
1, 291015, Control_c, 0, 64, 78
1, 291029, Control_c, 0, 64, 79
1, 291044, Control_c, 0, 64, 80
1, 291059, Control_c, 0, 64, 81
1, 291074, Control_c, 0, 64, 82
1, 291089, Control_c, 0, 64, 83
1, 291104, Control_c, 0, 64, 83
1, 291119, Control_c, 0, 64, 84
1, 291134, Control_c, 0, 64, 85
1, 291155, Control_c, 0, 64, 86
1, 291170, Control_c, 0, 64, 86
1, 291185, Control_c, 0, 64, 87
1, 291215, Control_c, 0, 64, 87
1, 291229, Control_c, 0, 64, 88
1, 291257, Note_on_c, 0, 59, 34
1, 291259, Control_c, 0, 64, 88
1, 291289, Control_c, 0, 64, 89
1, 291304, Control_c, 0, 64, 89
1, 291319, Control_c, 0, 64, 90
1, 291333, Control_c, 0, 64, 90
1, 291363, Control_c, 0, 64, 91
1, 291392, Control_c, 0, 64, 91
1, 291407, Control_c, 0, 64, 92
1, 291422, Control_c, 0, 64, 92
1, 291437, Control_c, 0, 64, 93
1, 291452, Control_c, 0, 64, 94
1, 291467, Control_c, 0, 64, 95
1, 291482, Control_c, 0, 64, 96
1, 291497, Control_c, 0, 64, 98
1, 291512, Control_c, 0, 64, 99
1, 291527, Control_c, 0, 64, 100
1, 291542, Control_c, 0, 64, 102
1, 291557, Control_c, 0, 64, 103
1, 291571, Control_c, 0, 64, 103
1, 291586, Control_c, 0, 64, 104
1, 291616, Control_c, 0, 64, 104
1, 291789, Note_off_c, 0, 59, 27
1, 291794, Control_c, 0, 64, 104
1, 291807, Note_on_c, 0, 61, 61
1, 291809, Control_c, 0, 64, 102
1, 291823, Control_c, 0, 64, 97
1, 291838, Control_c, 0, 64, 90
1, 291853, Control_c, 0, 64, 81
1, 291868, Control_c, 0, 64, 72
1, 291883, Control_c, 0, 64, 67
1, 291905, Control_c, 0, 64, 68
1, 291920, Control_c, 0, 64, 68
1, 291935, Control_c, 0, 64, 69
1, 291950, Control_c, 0, 64, 70
1, 291965, Control_c, 0, 64, 71
1, 291979, Control_c, 0, 64, 73
1, 291994, Control_c, 0, 64, 75
1, 292009, Control_c, 0, 64, 76
1, 292023, Control_c, 0, 64, 79
1, 292038, Control_c, 0, 64, 81
1, 292053, Control_c, 0, 64, 84
1, 292068, Control_c, 0, 64, 87
1, 292083, Control_c, 0, 64, 90
1, 292097, Control_c, 0, 64, 92
1, 292112, Control_c, 0, 64, 94
1, 292127, Control_c, 0, 64, 95
1, 292136, Note_off_c, 0, 61, 56
1, 292142, Control_c, 0, 64, 96
1, 292231, Control_c, 0, 64, 95
1, 292246, Control_c, 0, 64, 92
1, 292258, Note_on_c, 0, 62, 59
1, 292260, Control_c, 0, 64, 88
1, 292276, Control_c, 0, 64, 81
1, 292291, Control_c, 0, 64, 72
1, 292306, Control_c, 0, 64, 58
1, 292320, Control_c, 0, 64, 38
1, 292335, Control_c, 0, 64, 44
1, 292350, Control_c, 0, 64, 48
1, 292365, Control_c, 0, 64, 50
1, 292380, Control_c, 0, 64, 53
1, 292395, Control_c, 0, 64, 58
1, 292410, Control_c, 0, 64, 61
1, 292424, Control_c, 0, 64, 64
1, 292439, Control_c, 0, 64, 65
1, 292454, Control_c, 0, 64, 67
1, 292469, Control_c, 0, 64, 70
1, 292484, Control_c, 0, 64, 73
1, 292499, Control_c, 0, 64, 76
1, 292514, Control_c, 0, 64, 79
1, 292528, Control_c, 0, 64, 82
1, 292543, Control_c, 0, 64, 85
1, 292558, Control_c, 0, 64, 88
1, 292573, Control_c, 0, 64, 90
1, 292588, Control_c, 0, 64, 92
1, 292602, Control_c, 0, 64, 93
1, 292602, Control_c, 0, 67, 8
1, 292617, Control_c, 0, 64, 95
1, 292617, Control_c, 0, 67, 10
1, 292632, Control_c, 0, 64, 95
1, 292632, Control_c, 0, 67, 12
1, 292654, Control_c, 0, 67, 13
1, 292654, Note_off_c, 0, 62, 53
1, 292669, Control_c, 0, 67, 16
1, 292684, Control_c, 0, 67, 18
1, 292699, Control_c, 0, 67, 20
1, 292714, Control_c, 0, 67, 23
1, 292728, Control_c, 0, 67, 25
1, 292743, Control_c, 0, 67, 28
1, 292758, Control_c, 0, 67, 31
1, 292773, Control_c, 0, 67, 34
1, 292788, Control_c, 0, 64, 95
1, 292788, Control_c, 0, 67, 37
1, 292802, Control_c, 0, 64, 94
1, 292802, Control_c, 0, 67, 39
1, 292817, Control_c, 0, 64, 93
1, 292817, Control_c, 0, 67, 41
1, 292832, Control_c, 0, 64, 92
1, 292832, Control_c, 0, 67, 43
1, 292846, Control_c, 0, 64, 90
1, 292846, Control_c, 0, 67, 46
1, 292858, Note_on_c, 0, 58, 53
1, 292861, Control_c, 0, 64, 88
1, 292861, Control_c, 0, 67, 49
1, 292876, Control_c, 0, 64, 85
1, 292876, Control_c, 0, 67, 51
1, 292891, Control_c, 0, 64, 83
1, 292891, Control_c, 0, 67, 54
1, 292906, Control_c, 0, 64, 79
1, 292906, Control_c, 0, 67, 57
1, 292920, Control_c, 0, 64, 74
1, 292920, Control_c, 0, 67, 61
1, 292935, Control_c, 0, 64, 67
1, 292935, Control_c, 0, 67, 65
1, 292950, Control_c, 0, 64, 50
1, 292950, Control_c, 0, 67, 69
1, 292965, Control_c, 0, 64, 0
1, 292965, Control_c, 0, 67, 74
1, 292980, Control_c, 0, 67, 79
1, 292994, Control_c, 0, 67, 84
1, 293009, Control_c, 0, 67, 89
1, 293024, Control_c, 0, 67, 93
1, 293039, Control_c, 0, 67, 98
1, 293053, Control_c, 0, 67, 106
1, 293069, Control_c, 0, 67, 113
1, 293084, Control_c, 0, 67, 119
1, 293099, Control_c, 0, 67, 123
1, 293114, Control_c, 0, 67, 126
1, 293129, Control_c, 0, 67, 127
1, 293232, Control_c, 0, 64, 32
1, 293247, Control_c, 0, 64, 48
1, 293262, Control_c, 0, 64, 58
1, 293276, Control_c, 0, 64, 62
1, 293291, Control_c, 0, 64, 64
1, 293306, Control_c, 0, 64, 66
1, 293321, Control_c, 0, 64, 68
1, 293336, Control_c, 0, 64, 70
1, 293350, Control_c, 0, 64, 71
1, 293365, Control_c, 0, 64, 73
1, 293380, Control_c, 0, 64, 75
1, 293402, Control_c, 0, 64, 77
1, 293417, Control_c, 0, 64, 79
1, 293432, Control_c, 0, 64, 80
1, 293447, Control_c, 0, 64, 81
1, 293462, Control_c, 0, 64, 82
1, 293476, Control_c, 0, 64, 84
1, 293491, Control_c, 0, 64, 85
1, 293506, Control_c, 0, 64, 86
1, 293521, Control_c, 0, 64, 87
1, 293536, Control_c, 0, 64, 88
1, 293550, Control_c, 0, 64, 88
1, 293580, Control_c, 0, 64, 89
1, 293668, Control_c, 0, 64, 89
1, 293703, Note_on_c, 0, 79, 45
1, 293728, Control_c, 0, 64, 90
1, 293739, Note_on_c, 0, 76, 20
1, 293739, Note_on_c, 0, 61, 19
1, 293742, Control_c, 0, 64, 90
1, 293772, Control_c, 0, 64, 91
1, 293906, Control_c, 0, 64, 91
1, 294022, Note_off_c, 0, 79, 31
1, 294111, Note_off_c, 0, 76, 42
1, 294180, Control_c, 0, 64, 91
1, 294195, Control_c, 0, 64, 90
1, 294210, Control_c, 0, 64, 90
1, 294225, Control_c, 0, 64, 89
1, 294240, Control_c, 0, 64, 88
1, 294255, Control_c, 0, 64, 86
1, 294266, Note_on_c, 0, 78, 54
1, 294270, Control_c, 0, 64, 81
1, 294282, Note_on_c, 0, 62, 36
1, 294284, Note_on_c, 0, 74, 37
1, 294285, Control_c, 0, 64, 75
1, 294299, Control_c, 0, 64, 69
1, 294314, Control_c, 0, 64, 68
1, 294314, Note_off_c, 0, 61, 33
1, 294329, Control_c, 0, 64, 70
1, 294344, Control_c, 0, 64, 70
1, 294359, Control_c, 0, 64, 71
1, 294373, Control_c, 0, 64, 73
1, 294388, Control_c, 0, 64, 75
1, 294403, Control_c, 0, 64, 77
1, 294417, Control_c, 0, 64, 79
1, 294432, Control_c, 0, 64, 80
1, 294447, Control_c, 0, 64, 82
1, 294462, Control_c, 0, 64, 83
1, 294477, Control_c, 0, 64, 84
1, 294491, Control_c, 0, 64, 86
1, 294506, Control_c, 0, 64, 88
1, 294521, Control_c, 0, 64, 89
1, 294536, Control_c, 0, 64, 89
1, 294589, Note_off_c, 0, 78, 37
1, 294621, Note_off_c, 0, 74, 35
1, 294639, Control_c, 0, 64, 89
1, 294654, Control_c, 0, 64, 88
1, 294670, Control_c, 0, 64, 88
1, 294685, Control_c, 0, 64, 87
1, 294700, Control_c, 0, 64, 85
1, 294714, Control_c, 0, 64, 83
1, 294729, Control_c, 0, 64, 78
1, 294732, Note_on_c, 0, 73, 43
1, 294736, Note_on_c, 0, 76, 46
1, 294744, Control_c, 0, 64, 72
1, 294758, Note_on_c, 0, 64, 34
1, 294759, Control_c, 0, 64, 63
1, 294765, Note_off_c, 0, 62, 37
1, 294775, Control_c, 0, 64, 47
1, 294789, Control_c, 0, 64, 53
1, 294804, Control_c, 0, 64, 57
1, 294819, Control_c, 0, 64, 59
1, 294833, Control_c, 0, 64, 61
1, 294848, Control_c, 0, 64, 62
1, 294863, Control_c, 0, 64, 63
1, 294878, Control_c, 0, 64, 65
1, 294901, Control_c, 0, 64, 66
1, 294915, Control_c, 0, 64, 67
1, 294930, Control_c, 0, 64, 68
1, 294930, Control_c, 0, 67, 127
1, 294945, Control_c, 0, 64, 69
1, 294960, Control_c, 0, 64, 70
1, 294975, Control_c, 0, 64, 71
1, 294975, Control_c, 0, 67, 126
1, 294989, Control_c, 0, 64, 72
1, 295004, Control_c, 0, 64, 73
1, 295004, Control_c, 0, 67, 126
1, 295019, Control_c, 0, 64, 75
1, 295019, Control_c, 0, 67, 125
1, 295022, Note_off_c, 0, 73, 42
1, 295034, Control_c, 0, 64, 77
1, 295034, Control_c, 0, 67, 125
1, 295048, Control_c, 0, 64, 78
1, 295063, Control_c, 0, 64, 79
1, 295063, Control_c, 0, 67, 124
1, 295078, Control_c, 0, 67, 124
1, 295093, Control_c, 0, 64, 80
1, 295093, Control_c, 0, 67, 123
1, 295108, Control_c, 0, 64, 80
1, 295108, Control_c, 0, 67, 123
1, 295122, Control_c, 0, 64, 81
1, 295129, Note_off_c, 0, 76, 36
1, 295182, Control_c, 0, 67, 122
1, 295241, Control_c, 0, 67, 122
1, 295286, Control_c, 0, 64, 81
1, 295286, Control_c, 0, 67, 121
1, 295301, Control_c, 0, 64, 82
1, 295304, Note_on_c, 0, 73, 47
1, 295315, Control_c, 0, 64, 84
1, 295315, Control_c, 0, 67, 121
1, 295317, Note_on_c, 0, 70, 31
1, 295330, Control_c, 0, 64, 85
1, 295330, Control_c, 0, 67, 120
1, 295331, Note_on_c, 0, 67, 21
1, 295345, Control_c, 0, 64, 87
1, 295360, Control_c, 0, 64, 88
1, 295375, Control_c, 0, 64, 89
1, 295389, Control_c, 0, 64, 89
1, 295404, Control_c, 0, 64, 90
1, 295419, Control_c, 0, 64, 91
1, 295434, Control_c, 0, 64, 92
1, 295464, Control_c, 0, 64, 92
1, 295464, Control_c, 0, 67, 120
1, 295494, Control_c, 0, 64, 93
1, 295501, Note_off_c, 0, 64, 15
1, 295509, Control_c, 0, 67, 119
1, 295692, Note_off_c, 0, 70, 38
1, 295694, Note_off_c, 0, 58, 35
1, 295719, Note_off_c, 0, 67, 32
1, 295799, Note_off_c, 0, 73, 34
1, 295945, Control_c, 0, 64, 92
1, 295990, Control_c, 0, 64, 92
1, 296034, Control_c, 0, 64, 91
1, 296049, Control_c, 0, 64, 91
1, 296064, Control_c, 0, 64, 90
1, 296079, Control_c, 0, 64, 89
1, 296094, Control_c, 0, 64, 89
1, 296109, Control_c, 0, 64, 88
1, 296112, Note_on_c, 0, 61, 50
1, 296124, Control_c, 0, 64, 86
1, 296138, Control_c, 0, 64, 84
1, 296153, Control_c, 0, 64, 82
1, 296168, Control_c, 0, 64, 80
1, 296168, Control_c, 0, 67, 120
1, 296183, Control_c, 0, 64, 78
1, 296197, Control_c, 0, 64, 73
1, 296212, Control_c, 0, 64, 66
1, 296227, Control_c, 0, 64, 54
1, 296242, Control_c, 0, 64, 35
1, 296257, Control_c, 0, 64, 34
1, 296273, Control_c, 0, 64, 42
1, 296287, Control_c, 0, 64, 49
1, 296302, Control_c, 0, 64, 54
1, 296317, Control_c, 0, 64, 56
1, 296332, Control_c, 0, 64, 60
1, 296332, Control_c, 0, 67, 119
1, 296347, Control_c, 0, 64, 63
1, 296347, Control_c, 0, 67, 119
1, 296361, Control_c, 0, 64, 66
1, 296361, Control_c, 0, 67, 118
1, 296376, Control_c, 0, 64, 68
1, 296376, Control_c, 0, 67, 118
1, 296398, Control_c, 0, 64, 70
1, 296398, Control_c, 0, 67, 116
1, 296413, Control_c, 0, 64, 72
1, 296413, Control_c, 0, 67, 113
1, 296428, Control_c, 0, 64, 74
1, 296428, Control_c, 0, 67, 107
1, 296443, Control_c, 0, 64, 77
1, 296443, Control_c, 0, 67, 100
1, 296458, Control_c, 0, 64, 80
1, 296458, Control_c, 0, 67, 90
1, 296472, Control_c, 0, 64, 83
1, 296472, Control_c, 0, 67, 80
1, 296487, Control_c, 0, 64, 86
1, 296487, Control_c, 0, 67, 70
1, 296502, Control_c, 0, 64, 88
1, 296502, Control_c, 0, 67, 59
1, 296517, Control_c, 0, 64, 89
1, 296517, Control_c, 0, 67, 50
1, 296532, Control_c, 0, 67, 45
1, 296547, Control_c, 0, 67, 41
1, 296562, Control_c, 0, 67, 39
1, 296576, Control_c, 0, 67, 37
1, 296579, Note_off_c, 0, 61, 57
1, 296591, Control_c, 0, 67, 35
1, 296606, Control_c, 0, 64, 88
1, 296606, Control_c, 0, 67, 34
1, 296618, Note_on_c, 0, 62, 62
1, 296620, Control_c, 0, 64, 87
1, 296620, Control_c, 0, 67, 33
1, 296635, Control_c, 0, 64, 84
1, 296650, Control_c, 0, 64, 80
1, 296665, Control_c, 0, 64, 74
1, 296665, Control_c, 0, 67, 33
1, 296680, Control_c, 0, 64, 65
1, 296694, Control_c, 0, 64, 61
1, 296709, Control_c, 0, 64, 62
1, 296709, Control_c, 0, 67, 32
1, 296724, Control_c, 0, 64, 63
1, 296724, Control_c, 0, 67, 32
1, 296739, Control_c, 0, 64, 64
1, 296739, Control_c, 0, 67, 30
1, 296754, Control_c, 0, 64, 65
1, 296754, Control_c, 0, 67, 27
1, 296768, Control_c, 0, 64, 67
1, 296768, Control_c, 0, 67, 24
1, 296783, Control_c, 0, 64, 68
1, 296783, Control_c, 0, 67, 20
1, 296798, Control_c, 0, 64, 71
1, 296798, Control_c, 0, 67, 15
1, 296812, Control_c, 0, 64, 73
1, 296812, Control_c, 0, 67, 8
1, 296827, Control_c, 0, 64, 76
1, 296827, Control_c, 0, 67, 0
1, 296842, Control_c, 0, 64, 78
1, 296857, Control_c, 0, 64, 81
1, 296872, Control_c, 0, 64, 85
1, 296887, Control_c, 0, 64, 89
1, 296902, Control_c, 0, 64, 93
1, 296917, Control_c, 0, 64, 96
1, 296932, Control_c, 0, 64, 99
1, 296946, Control_c, 0, 64, 102
1, 296961, Control_c, 0, 64, 104
1, 296970, Note_off_c, 0, 62, 61
1, 296976, Control_c, 0, 64, 106
1, 296991, Control_c, 0, 64, 106
1, 297064, Control_c, 0, 64, 106
1, 297094, Control_c, 0, 64, 103
1, 297108, Control_c, 0, 64, 98
1, 297116, Note_on_c, 0, 64, 67
1, 297123, Control_c, 0, 64, 92
1, 297146, Control_c, 0, 64, 82
1, 297161, Control_c, 0, 64, 69
1, 297176, Control_c, 0, 64, 43
1, 297190, Control_c, 0, 64, 0
1, 297220, Control_c, 0, 64, 40
1, 297235, Control_c, 0, 64, 53
1, 297249, Control_c, 0, 64, 61
1, 297264, Control_c, 0, 64, 64
1, 297279, Control_c, 0, 64, 67
1, 297294, Control_c, 0, 64, 70
1, 297309, Control_c, 0, 64, 73
1, 297323, Control_c, 0, 64, 75
1, 297338, Control_c, 0, 64, 78
1, 297353, Control_c, 0, 64, 81
1, 297368, Control_c, 0, 64, 84
1, 297383, Control_c, 0, 64, 87
1, 297397, Control_c, 0, 64, 90
1, 297412, Control_c, 0, 64, 92
1, 297427, Control_c, 0, 64, 94
1, 297441, Control_c, 0, 64, 97
1, 297456, Control_c, 0, 64, 99
1, 297471, Control_c, 0, 64, 100
1, 297486, Control_c, 0, 64, 100
1, 297564, Note_off_c, 0, 64, 51
1, 297649, Control_c, 0, 64, 100
1, 297664, Control_c, 0, 64, 99
1, 297679, Control_c, 0, 64, 97
1, 297694, Control_c, 0, 64, 96
1, 297708, Control_c, 0, 64, 94
1, 297723, Control_c, 0, 64, 91
1, 297725, Note_on_c, 0, 59, 52
1, 297738, Control_c, 0, 64, 88
1, 297752, Control_c, 0, 64, 85
1, 297768, Control_c, 0, 64, 81
1, 297783, Control_c, 0, 64, 75
1, 297798, Control_c, 0, 64, 66
1, 297813, Control_c, 0, 64, 27
1, 297813, Control_c, 0, 67, 8
1, 297827, Control_c, 0, 64, 0
1, 297827, Control_c, 0, 67, 10
1, 297842, Control_c, 0, 67, 13
1, 297858, Control_c, 0, 67, 18
1, 297873, Control_c, 0, 67, 26
1, 297895, Control_c, 0, 67, 33
1, 297910, Control_c, 0, 67, 38
1, 297925, Control_c, 0, 67, 43
1, 297939, Control_c, 0, 67, 49
1, 297954, Control_c, 0, 67, 56
1, 297969, Control_c, 0, 64, 17
1, 297969, Control_c, 0, 67, 62
1, 297984, Control_c, 0, 64, 34
1, 297984, Control_c, 0, 67, 67
1, 297999, Control_c, 0, 64, 47
1, 297999, Control_c, 0, 67, 72
1, 298014, Control_c, 0, 64, 57
1, 298014, Control_c, 0, 67, 79
1, 298029, Control_c, 0, 64, 62
1, 298029, Control_c, 0, 67, 84
1, 298043, Control_c, 0, 64, 64
1, 298043, Control_c, 0, 67, 89
1, 298058, Control_c, 0, 64, 66
1, 298058, Control_c, 0, 67, 92
1, 298073, Control_c, 0, 64, 68
1, 298073, Control_c, 0, 67, 96
1, 298088, Control_c, 0, 64, 70
1, 298088, Control_c, 0, 67, 98
1, 298103, Control_c, 0, 64, 72
1, 298103, Control_c, 0, 67, 100
1, 298118, Control_c, 0, 64, 75
1, 298118, Control_c, 0, 67, 101
1, 298133, Control_c, 0, 64, 77
1, 298133, Control_c, 0, 67, 103
1, 298147, Control_c, 0, 64, 79
1, 298147, Control_c, 0, 67, 104
1, 298162, Control_c, 0, 64, 81
1, 298177, Control_c, 0, 64, 83
1, 298191, Control_c, 0, 64, 85
1, 298206, Control_c, 0, 64, 88
1, 298221, Control_c, 0, 64, 90
1, 298236, Control_c, 0, 64, 92
1, 298251, Control_c, 0, 64, 93
1, 298265, Control_c, 0, 64, 94
1, 298280, Control_c, 0, 64, 95
1, 298295, Control_c, 0, 64, 96
1, 298310, Control_c, 0, 64, 97
1, 298354, Control_c, 0, 64, 97
1, 298534, Note_on_c, 0, 83, 52
1, 298546, Note_on_c, 0, 79, 44
1, 298568, Note_on_c, 0, 64, 37
1, 298737, Note_off_c, 0, 79, 38
1, 298821, Control_c, 0, 64, 98
1, 298839, Note_off_c, 0, 64, 51
1, 298876, Note_off_c, 0, 83, 39
1, 298911, Control_c, 0, 64, 98
1, 299069, Note_on_c, 0, 81, 61
1, 299086, Note_on_c, 0, 66, 40
1, 299086, Note_on_c, 0, 78, 40
1, 299088, Control_c, 0, 64, 98
1, 299103, Control_c, 0, 67, 105
1, 299133, Control_c, 0, 67, 105
1, 299148, Control_c, 0, 67, 106
1, 299162, Control_c, 0, 67, 107
1, 299177, Control_c, 0, 67, 112
1, 299192, Control_c, 0, 67, 117
1, 299206, Control_c, 0, 67, 121
1, 299221, Control_c, 0, 67, 125
1, 299226, Note_off_c, 0, 81, 61
1, 299235, Note_off_c, 0, 78, 42
1, 299236, Control_c, 0, 67, 127
1, 299239, Note_off_c, 0, 66, 45
1, 299450, Control_c, 0, 64, 97
1, 299466, Control_c, 0, 64, 97
1, 299481, Control_c, 0, 64, 96
1, 299496, Control_c, 0, 64, 95
1, 299510, Control_c, 0, 64, 94
1, 299525, Control_c, 0, 64, 90
1, 299535, Note_on_c, 0, 79, 53
1, 299540, Control_c, 0, 64, 83
1, 299555, Note_on_c, 0, 76, 37
1, 299555, Control_c, 0, 64, 74
1, 299558, Note_on_c, 0, 67, 32
1, 299570, Control_c, 0, 64, 65
1, 299585, Control_c, 0, 64, 55
1, 299599, Control_c, 0, 64, 59
1, 299614, Control_c, 0, 64, 62
1, 299629, Control_c, 0, 64, 63
1, 299644, Control_c, 0, 64, 64
1, 299659, Control_c, 0, 64, 65
1, 299674, Control_c, 0, 64, 67
1, 299689, Control_c, 0, 64, 69
1, 299703, Control_c, 0, 64, 71
1, 299718, Control_c, 0, 64, 72
1, 299733, Control_c, 0, 64, 73
1, 299748, Control_c, 0, 64, 74
1, 299763, Control_c, 0, 64, 76
1, 299777, Control_c, 0, 64, 78
1, 299792, Control_c, 0, 64, 79
1, 299807, Control_c, 0, 64, 81
1, 299822, Control_c, 0, 64, 82
1, 299826, Note_off_c, 0, 67, 51
1, 299836, Control_c, 0, 64, 84
1, 299847, Note_off_c, 0, 79, 34
1, 299851, Control_c, 0, 64, 85
1, 299866, Control_c, 0, 64, 87
1, 299881, Control_c, 0, 64, 88
1, 299896, Control_c, 0, 64, 88
1, 299904, Note_off_c, 0, 76, 42
1, 299910, Control_c, 0, 64, 89
1, 299925, Control_c, 0, 64, 90
1, 299940, Control_c, 0, 64, 91
1, 299955, Control_c, 0, 64, 92
1, 299970, Control_c, 0, 64, 93
1, 299984, Control_c, 0, 64, 93
1, 299999, Control_c, 0, 64, 94
1, 300029, Control_c, 0, 64, 94
1, 300044, Control_c, 0, 64, 95
1, 300059, Control_c, 0, 64, 95
1, 300151, Note_on_c, 0, 71, 29
1, 300153, Note_on_c, 0, 76, 39
1, 300155, Control_c, 0, 64, 96
1, 300161, Note_on_c, 0, 67, 28
1, 300304, Control_c, 0, 64, 96
1, 300449, Note_off_c, 0, 71, 43
1, 300564, Note_off_c, 0, 76, 38
1, 300643, Note_off_c, 0, 59, 39
1, 300700, Note_off_c, 0, 67, 36
1, 300837, Control_c, 0, 64, 96
1, 300851, Control_c, 0, 64, 95
1, 300866, Control_c, 0, 64, 94
1, 300889, Control_c, 0, 64, 94
1, 300904, Control_c, 0, 64, 93
1, 300919, Control_c, 0, 64, 93
1, 300925, Note_on_c, 0, 60, 52
1, 300933, Control_c, 0, 64, 92
1, 300948, Control_c, 0, 64, 91
1, 300963, Control_c, 0, 64, 87
1, 300978, Control_c, 0, 64, 82
1, 300992, Control_c, 0, 64, 74
1, 301007, Control_c, 0, 64, 64
1, 301022, Control_c, 0, 64, 0
1, 301142, Control_c, 0, 64, 36
1, 301156, Control_c, 0, 64, 49
1, 301171, Control_c, 0, 64, 56
1, 301186, Control_c, 0, 64, 61
1, 301201, Control_c, 0, 64, 63
1, 301215, Control_c, 0, 64, 65
1, 301230, Control_c, 0, 64, 66
1, 301245, Control_c, 0, 64, 67
1, 301260, Control_c, 0, 64, 68
1, 301260, Control_c, 0, 67, 127
1, 301275, Control_c, 0, 64, 70
1, 301290, Control_c, 0, 64, 71
1, 301305, Control_c, 0, 64, 71
1, 301305, Control_c, 0, 67, 126
1, 301319, Control_c, 0, 64, 72
1, 301334, Control_c, 0, 64, 73
1, 301349, Control_c, 0, 64, 75
1, 301364, Control_c, 0, 64, 76
1, 301364, Control_c, 0, 67, 126
1, 301379, Control_c, 0, 64, 77
1, 301394, Control_c, 0, 64, 78
1, 301408, Control_c, 0, 64, 78
1, 301423, Control_c, 0, 64, 79
1, 301438, Control_c, 0, 64, 80
1, 301453, Control_c, 0, 64, 81
1, 301572, Control_c, 0, 64, 80
1, 301616, Control_c, 0, 64, 79
1, 301623, Note_on_c, 0, 55, 43
1, 301653, Control_c, 0, 64, 79
1, 301668, Control_c, 0, 64, 78
1, 301680, Note_off_c, 0, 60, 22
1, 301683, Control_c, 0, 64, 77
1, 301698, Control_c, 0, 64, 75
1, 301713, Control_c, 0, 64, 71
1, 301728, Control_c, 0, 64, 67
1, 301743, Control_c, 0, 64, 63
1, 301757, Control_c, 0, 64, 59
1, 301772, Control_c, 0, 64, 58
1, 301787, Control_c, 0, 64, 59
1, 301802, Control_c, 0, 64, 61
1, 301816, Control_c, 0, 64, 61
1, 301831, Control_c, 0, 64, 62
1, 301846, Control_c, 0, 64, 62
1, 301862, Control_c, 0, 64, 63
1, 301877, Control_c, 0, 64, 64
1, 301892, Control_c, 0, 64, 64
1, 301892, Control_c, 0, 67, 125
1, 301906, Control_c, 0, 64, 65
1, 301921, Control_c, 0, 64, 66
1, 301936, Control_c, 0, 64, 67
1, 301951, Control_c, 0, 64, 68
1, 301951, Control_c, 0, 67, 125
1, 301966, Control_c, 0, 64, 69
1, 301980, Control_c, 0, 64, 70
1, 301980, Control_c, 0, 67, 124
1, 301995, Control_c, 0, 64, 71
1, 302010, Control_c, 0, 64, 72
1, 302025, Control_c, 0, 64, 73
1, 302039, Control_c, 0, 64, 74
1, 302039, Control_c, 0, 67, 123
1, 302054, Control_c, 0, 64, 76
1, 302069, Control_c, 0, 64, 77
1, 302069, Control_c, 0, 67, 123
1, 302084, Control_c, 0, 64, 79
1, 302099, Control_c, 0, 64, 80
1, 302104, Note_on_c, 0, 76, 40
1, 302113, Control_c, 0, 64, 82
1, 302113, Control_c, 0, 67, 122
1, 302119, Note_on_c, 0, 72, 22
1, 302128, Control_c, 0, 64, 83
1, 302143, Control_c, 0, 64, 85
1, 302158, Control_c, 0, 64, 86
1, 302173, Control_c, 0, 64, 88
1, 302173, Control_c, 0, 67, 122
1, 302187, Control_c, 0, 64, 90
1, 302202, Control_c, 0, 64, 91
1, 302202, Control_c, 0, 67, 121
1, 302217, Control_c, 0, 64, 92
1, 302217, Control_c, 0, 67, 120
1, 302232, Control_c, 0, 64, 93
1, 302232, Control_c, 0, 67, 119
1, 302247, Control_c, 0, 64, 95
1, 302247, Control_c, 0, 67, 118
1, 302261, Control_c, 0, 64, 96
1, 302261, Control_c, 0, 67, 117
1, 302276, Control_c, 0, 64, 98
1, 302276, Control_c, 0, 67, 116
1, 302291, Control_c, 0, 64, 99
1, 302291, Control_c, 0, 67, 115
1, 302306, Control_c, 0, 64, 100
1, 302306, Control_c, 0, 67, 114
1, 302321, Control_c, 0, 64, 101
1, 302321, Control_c, 0, 67, 114
1, 302336, Control_c, 0, 64, 101
1, 302336, Control_c, 0, 67, 113
1, 302350, Control_c, 0, 64, 102
1, 302350, Control_c, 0, 67, 112
1, 302365, Control_c, 0, 64, 102
1, 302365, Control_c, 0, 67, 111
1, 302387, Control_c, 0, 64, 103
1, 302387, Control_c, 0, 67, 110
1, 302390, Note_off_c, 0, 55, 37
1, 302402, Note_off_c, 0, 76, 36
1, 302402, Control_c, 0, 67, 110
1, 302417, Control_c, 0, 67, 109
1, 302431, Control_c, 0, 64, 103
1, 302431, Control_c, 0, 67, 107
1, 302446, Control_c, 0, 67, 106
1, 302461, Control_c, 0, 67, 105
1, 302476, Control_c, 0, 67, 103
1, 302491, Control_c, 0, 67, 101
1, 302506, Control_c, 0, 67, 100
1, 302521, Control_c, 0, 67, 99
1, 302526, Note_off_c, 0, 72, 41
1, 302536, Control_c, 0, 67, 99
1, 302550, Control_c, 0, 67, 98
1, 302565, Control_c, 0, 67, 97
1, 302580, Control_c, 0, 67, 97
1, 302593, Note_on_c, 0, 67, 42
1, 302595, Control_c, 0, 67, 96
1, 302606, Note_on_c, 0, 64, 32
1, 302610, Control_c, 0, 67, 95
1, 302625, Control_c, 0, 67, 94
1, 302639, Control_c, 0, 67, 93
1, 302655, Control_c, 0, 67, 92
1, 302670, Control_c, 0, 67, 90
1, 302685, Control_c, 0, 67, 89
1, 302700, Control_c, 0, 67, 88
1, 302715, Control_c, 0, 67, 87
1, 302729, Control_c, 0, 67, 85
1, 302744, Control_c, 0, 67, 84
1, 302759, Control_c, 0, 67, 82
1, 302774, Control_c, 0, 67, 80
1, 302789, Control_c, 0, 67, 79
1, 302803, Control_c, 0, 67, 77
1, 302818, Control_c, 0, 67, 75
1, 302833, Control_c, 0, 67, 72
1, 302848, Control_c, 0, 67, 70
1, 302862, Control_c, 0, 67, 68
1, 302877, Control_c, 0, 67, 66
1, 302892, Control_c, 0, 67, 65
1, 302907, Control_c, 0, 64, 103
1, 302907, Control_c, 0, 67, 63
1, 302911, Note_off_c, 0, 64, 36
1, 302912, Note_off_c, 0, 67, 30
1, 302922, Control_c, 0, 67, 61
1, 302936, Control_c, 0, 67, 58
1, 302951, Control_c, 0, 67, 56
1, 302966, Control_c, 0, 67, 53
1, 302980, Control_c, 0, 67, 50
1, 302995, Control_c, 0, 64, 102
1, 302995, Control_c, 0, 67, 47
1, 303010, Control_c, 0, 64, 102
1, 303010, Control_c, 0, 67, 43
1, 303025, Control_c, 0, 64, 101
1, 303025, Control_c, 0, 67, 38
1, 303040, Control_c, 0, 67, 34
1, 303054, Control_c, 0, 64, 101
1, 303054, Control_c, 0, 67, 32
1, 303069, Control_c, 0, 64, 100
1, 303069, Control_c, 0, 67, 29
1, 303081, Note_on_c, 0, 59, 59
1, 303084, Control_c, 0, 64, 97
1, 303084, Control_c, 0, 67, 27
1, 303099, Control_c, 0, 64, 89
1, 303099, Control_c, 0, 67, 27
1, 303114, Control_c, 0, 64, 75
1, 303136, Control_c, 0, 64, 58
1, 303151, Control_c, 0, 64, 0
1, 303195, Control_c, 0, 67, 27
1, 303210, Control_c, 0, 67, 28
1, 303225, Control_c, 0, 64, 37
1, 303225, Control_c, 0, 67, 28
1, 303240, Control_c, 0, 64, 56
1, 303240, Control_c, 0, 67, 29
1, 303254, Control_c, 0, 64, 62
1, 303254, Control_c, 0, 67, 29
1, 303269, Control_c, 0, 64, 64
1, 303269, Control_c, 0, 67, 30
1, 303284, Control_c, 0, 64, 66
1, 303284, Control_c, 0, 67, 30
1, 303299, Control_c, 0, 64, 68
1, 303299, Control_c, 0, 67, 31
1, 303314, Control_c, 0, 64, 70
1, 303314, Control_c, 0, 67, 32
1, 303329, Control_c, 0, 64, 71
1, 303329, Control_c, 0, 67, 33
1, 303343, Control_c, 0, 64, 73
1, 303343, Control_c, 0, 67, 34
1, 303358, Control_c, 0, 64, 75
1, 303358, Control_c, 0, 67, 35
1, 303373, Control_c, 0, 64, 77
1, 303373, Control_c, 0, 67, 36
1, 303388, Control_c, 0, 64, 78
1, 303388, Control_c, 0, 67, 37
1, 303403, Control_c, 0, 64, 79
1, 303403, Control_c, 0, 67, 37
1, 303418, Control_c, 0, 64, 80
1, 303418, Control_c, 0, 67, 38
1, 303433, Control_c, 0, 64, 81
1, 303433, Control_c, 0, 67, 40
1, 303448, Control_c, 0, 67, 43
1, 303463, Control_c, 0, 67, 48
1, 303478, Control_c, 0, 67, 53
1, 303493, Control_c, 0, 67, 59
1, 303507, Control_c, 0, 67, 66
1, 303522, Control_c, 0, 67, 73
1, 303537, Control_c, 0, 67, 79
1, 303552, Control_c, 0, 67, 83
1, 303567, Control_c, 0, 64, 80
1, 303567, Control_c, 0, 67, 87
1, 303582, Control_c, 0, 64, 80
1, 303582, Control_c, 0, 67, 91
1, 303597, Control_c, 0, 67, 96
1, 303611, Control_c, 0, 64, 79
1, 303611, Control_c, 0, 67, 99
1, 303626, Control_c, 0, 67, 102
1, 303641, Control_c, 0, 64, 79
1, 303641, Control_c, 0, 67, 106
1, 303656, Control_c, 0, 64, 77
1, 303656, Control_c, 0, 67, 109
1, 303671, Control_c, 0, 64, 76
1, 303671, Control_c, 0, 67, 111
1, 303685, Control_c, 0, 64, 73
1, 303685, Control_c, 0, 67, 113
1, 303686, Note_off_c, 0, 59, 24
1, 303700, Control_c, 0, 64, 67
1, 303700, Control_c, 0, 67, 114
1, 303710, Note_on_c, 0, 55, 41
1, 303715, Control_c, 0, 64, 55
1, 303715, Control_c, 0, 67, 115
1, 303730, Control_c, 0, 64, 11
1, 303730, Control_c, 0, 67, 117
1, 303745, Control_c, 0, 64, 14
1, 303745, Control_c, 0, 67, 118
1, 303758, Control_c, 0, 64, 34
1, 303773, Control_c, 0, 64, 44
1, 303788, Control_c, 0, 64, 49
1, 303803, Control_c, 0, 64, 53
1, 303817, Control_c, 0, 64, 56
1, 303832, Control_c, 0, 64, 60
1, 303847, Control_c, 0, 64, 63
1, 303862, Control_c, 0, 64, 65
1, 303884, Control_c, 0, 64, 66
1, 303899, Control_c, 0, 64, 67
1, 303914, Control_c, 0, 64, 68
1, 303929, Control_c, 0, 64, 70
1, 303944, Control_c, 0, 64, 71
1, 303958, Control_c, 0, 64, 72
1, 303958, Control_c, 0, 67, 118
1, 303973, Control_c, 0, 64, 74
1, 303988, Control_c, 0, 64, 75
1, 304002, Control_c, 0, 64, 77
1, 304002, Control_c, 0, 67, 117
1, 304017, Control_c, 0, 64, 79
1, 304032, Control_c, 0, 64, 80
1, 304032, Control_c, 0, 67, 117
1, 304047, Control_c, 0, 64, 82
1, 304062, Control_c, 0, 64, 83
1, 304077, Control_c, 0, 64, 85
1, 304077, Control_c, 0, 67, 116
1, 304092, Control_c, 0, 64, 86
1, 304107, Control_c, 0, 64, 88
1, 304121, Control_c, 0, 64, 89
1, 304136, Control_c, 0, 64, 90
1, 304151, Control_c, 0, 64, 92
1, 304156, Note_off_c, 0, 55, 39
1, 304166, Control_c, 0, 64, 92
1, 304181, Control_c, 0, 64, 93
1, 304196, Control_c, 0, 64, 94
1, 304209, Note_on_c, 0, 76, 48
1, 304210, Control_c, 0, 64, 94
1, 304213, Note_on_c, 0, 71, 40
1, 304225, Control_c, 0, 64, 95
1, 304225, Control_c, 0, 67, 116
1, 304240, Control_c, 0, 64, 95
1, 304256, Control_c, 0, 64, 96
1, 304271, Control_c, 0, 64, 96
1, 304285, Control_c, 0, 64, 97
1, 304300, Control_c, 0, 64, 97
1, 304315, Control_c, 0, 64, 98
1, 304315, Control_c, 0, 67, 115
1, 304345, Control_c, 0, 64, 98
1, 304360, Control_c, 0, 64, 99
1, 304374, Control_c, 0, 64, 99
1, 304389, Control_c, 0, 64, 100
1, 304404, Control_c, 0, 64, 100
1, 304404, Control_c, 0, 67, 115
1, 304433, Control_c, 0, 64, 101
1, 304448, Control_c, 0, 64, 101
1, 304478, Control_c, 0, 64, 102
1, 304490, Note_off_c, 0, 71, 30
1, 304493, Control_c, 0, 64, 102
1, 304508, Control_c, 0, 64, 103
1, 304557, Note_off_c, 0, 76, 26
1, 304597, Control_c, 0, 64, 103
1, 304649, Control_c, 0, 67, 114
1, 304787, Note_on_c, 0, 67, 42
1, 304791, Note_on_c, 0, 64, 30
1, 304812, Control_c, 0, 67, 114
1, 304900, Control_c, 0, 67, 113
1, 304974, Control_c, 0, 67, 113
1, 305099, Note_off_c, 0, 64, 31
1, 305102, Note_off_c, 0, 67, 32
1, 305272, Control_c, 0, 67, 112
1, 305427, Control_c, 0, 64, 103
1, 305472, Control_c, 0, 67, 112
1, 305531, Control_c, 0, 67, 111
1, 305561, Control_c, 0, 64, 102
1, 305575, Control_c, 0, 64, 102
1, 305590, Control_c, 0, 64, 101
1, 305605, Control_c, 0, 64, 101
1, 305620, Control_c, 0, 64, 100
1, 305620, Control_c, 0, 67, 111
1, 305635, Control_c, 0, 64, 99
1, 305649, Control_c, 0, 64, 98
1, 305660, Note_on_c, 0, 76, 64
1, 305664, Control_c, 0, 64, 97
1, 305666, Note_on_c, 0, 73, 52
1, 305667, Note_on_c, 0, 64, 47
1, 305677, Note_on_c, 0, 58, 53
1, 305679, Control_c, 0, 64, 95
1, 305694, Control_c, 0, 64, 92
1, 305709, Control_c, 0, 64, 87
1, 305723, Control_c, 0, 64, 83
1, 305738, Control_c, 0, 64, 77
1, 305753, Control_c, 0, 64, 69
1, 305768, Control_c, 0, 64, 56
1, 305782, Control_c, 0, 64, 0
1, 305887, Control_c, 0, 64, 26
1, 305902, Control_c, 0, 64, 42
1, 305902, Control_c, 0, 67, 110
1, 305917, Control_c, 0, 64, 49
1, 305917, Control_c, 0, 67, 110
1, 305932, Control_c, 0, 64, 55
1, 305932, Control_c, 0, 67, 109
1, 305946, Control_c, 0, 64, 59
1, 305946, Control_c, 0, 67, 109
1, 305961, Control_c, 0, 64, 61
1, 305961, Control_c, 0, 67, 108
1, 305976, Control_c, 0, 64, 63
1, 305976, Control_c, 0, 67, 107
1, 305991, Control_c, 0, 64, 64
1, 305991, Control_c, 0, 67, 107
1, 306005, Control_c, 0, 64, 65
1, 306020, Control_c, 0, 64, 67
1, 306020, Control_c, 0, 67, 106
1, 306035, Control_c, 0, 64, 68
1, 306035, Control_c, 0, 67, 105
1, 306050, Control_c, 0, 64, 69
1, 306050, Control_c, 0, 67, 104
1, 306065, Control_c, 0, 64, 70
1, 306065, Control_c, 0, 67, 101
1, 306080, Control_c, 0, 64, 71
1, 306080, Control_c, 0, 67, 98
1, 306095, Control_c, 0, 64, 73
1, 306095, Control_c, 0, 67, 93
1, 306110, Control_c, 0, 64, 75
1, 306110, Control_c, 0, 67, 88
1, 306132, Control_c, 0, 64, 76
1, 306132, Control_c, 0, 67, 81
1, 306146, Control_c, 0, 64, 78
1, 306146, Control_c, 0, 67, 76
1, 306161, Control_c, 0, 64, 78
1, 306161, Control_c, 0, 67, 70
1, 306176, Control_c, 0, 64, 79
1, 306176, Control_c, 0, 67, 64
1, 306191, Control_c, 0, 64, 80
1, 306191, Control_c, 0, 67, 59
1, 306205, Control_c, 0, 64, 81
1, 306205, Control_c, 0, 67, 54
1, 306220, Control_c, 0, 64, 82
1, 306220, Control_c, 0, 67, 52
1, 306235, Control_c, 0, 67, 50
1, 306250, Control_c, 0, 67, 48
1, 306265, Control_c, 0, 67, 46
1, 306280, Control_c, 0, 67, 44
1, 306295, Control_c, 0, 67, 42
1, 306309, Control_c, 0, 67, 40
1, 306324, Control_c, 0, 67, 37
1, 306339, Control_c, 0, 67, 34
1, 306348, Note_on_c, 0, 55, 59
1, 306354, Control_c, 0, 67, 30
1, 306369, Control_c, 0, 64, 81
1, 306369, Control_c, 0, 67, 27
1, 306384, Control_c, 0, 67, 24
1, 306398, Control_c, 0, 64, 81
1, 306398, Control_c, 0, 67, 21
1, 306413, Control_c, 0, 67, 17
1, 306428, Control_c, 0, 64, 80
1, 306428, Control_c, 0, 67, 13
1, 306443, Control_c, 0, 64, 80
1, 306443, Control_c, 0, 67, 9
1, 306454, Note_off_c, 0, 58, 37
1, 306458, Control_c, 0, 67, 0
1, 306502, Control_c, 0, 64, 79
1, 306546, Control_c, 0, 64, 79
1, 306561, Control_c, 0, 64, 78
1, 306576, Control_c, 0, 64, 77
1, 306605, Control_c, 0, 64, 77
1, 306651, Control_c, 0, 64, 76
1, 306681, Control_c, 0, 64, 76
1, 306695, Control_c, 0, 64, 75
1, 306710, Control_c, 0, 64, 75
1, 306725, Control_c, 0, 64, 74
1, 306740, Control_c, 0, 64, 73
1, 306755, Control_c, 0, 64, 72
1, 306757, Note_on_c, 0, 54, 60
1, 306769, Control_c, 0, 64, 70
1, 306784, Control_c, 0, 64, 69
1, 306789, Note_off_c, 0, 55, 58
1, 306799, Control_c, 0, 64, 68
1, 306814, Control_c, 0, 64, 67
1, 306828, Control_c, 0, 64, 67
1, 306843, Control_c, 0, 64, 66
1, 306858, Control_c, 0, 64, 66
1, 306860, Note_on_c, 0, 57, 60
1, 306881, Control_c, 0, 64, 65
1, 306896, Control_c, 0, 64, 64
1, 306910, Control_c, 0, 64, 64
1, 306925, Control_c, 0, 64, 63
1, 306935, Note_off_c, 0, 54, 37
1, 306940, Control_c, 0, 64, 60
1, 306954, Control_c, 0, 64, 57
1, 306969, Control_c, 0, 64, 52
1, 306984, Control_c, 0, 64, 46
1, 306985, Note_off_c, 0, 57, 57
1, 306991, Note_on_c, 0, 55, 60
1, 306999, Control_c, 0, 64, 36
1, 307014, Control_c, 0, 64, 0
1, 307354, Control_c, 0, 67, 8
1, 307369, Control_c, 0, 67, 10
1, 307384, Control_c, 0, 67, 13
1, 307399, Control_c, 0, 67, 15
1, 307414, Control_c, 0, 67, 19
1, 307428, Control_c, 0, 67, 21
1, 307444, Control_c, 0, 67, 24
1, 307459, Control_c, 0, 67, 28
1, 307474, Control_c, 0, 67, 31
1, 307489, Control_c, 0, 67, 34
1, 307504, Control_c, 0, 67, 36
1, 307518, Control_c, 0, 67, 38
1, 307533, Control_c, 0, 67, 40
1, 307548, Control_c, 0, 67, 43
1, 307563, Control_c, 0, 67, 46
1, 307577, Control_c, 0, 67, 49
1, 307592, Control_c, 0, 67, 51
1, 307607, Control_c, 0, 67, 53
1, 307630, Control_c, 0, 67, 55
1, 307645, Control_c, 0, 64, 30
1, 307645, Control_c, 0, 67, 58
1, 307659, Control_c, 0, 64, 41
1, 307659, Control_c, 0, 67, 61
1, 307674, Control_c, 0, 64, 49
1, 307674, Control_c, 0, 67, 62
1, 307689, Control_c, 0, 64, 54
1, 307689, Control_c, 0, 67, 65
1, 307704, Control_c, 0, 64, 59
1, 307704, Control_c, 0, 67, 66
1, 307719, Control_c, 0, 64, 61
1, 307719, Control_c, 0, 67, 69
1, 307733, Control_c, 0, 64, 62
1, 307733, Control_c, 0, 67, 71
1, 307748, Control_c, 0, 64, 63
1, 307748, Control_c, 0, 67, 73
1, 307763, Control_c, 0, 64, 64
1, 307763, Control_c, 0, 67, 74
1, 307777, Control_c, 0, 64, 65
1, 307777, Control_c, 0, 67, 76
1, 307792, Control_c, 0, 64, 66
1, 307792, Control_c, 0, 67, 77
1, 307807, Control_c, 0, 64, 67
1, 307807, Control_c, 0, 67, 78
1, 307822, Control_c, 0, 64, 68
1, 307822, Control_c, 0, 67, 80
1, 307837, Control_c, 0, 64, 68
1, 307837, Control_c, 0, 67, 82
1, 307851, Control_c, 0, 64, 69
1, 307851, Control_c, 0, 67, 84
1, 307866, Control_c, 0, 64, 70
1, 307866, Control_c, 0, 67, 85
1, 307881, Control_c, 0, 64, 71
1, 307881, Control_c, 0, 67, 87
1, 307896, Control_c, 0, 64, 72
1, 307896, Control_c, 0, 67, 89
1, 307911, Control_c, 0, 64, 73
1, 307911, Control_c, 0, 67, 90
1, 307925, Control_c, 0, 64, 74
1, 307925, Control_c, 0, 67, 92
1, 307940, Control_c, 0, 64, 75
1, 307940, Control_c, 0, 67, 94
1, 307955, Control_c, 0, 64, 76
1, 307955, Control_c, 0, 67, 96
1, 307970, Control_c, 0, 64, 76
1, 307970, Control_c, 0, 67, 98
1, 307985, Control_c, 0, 67, 100
1, 308000, Control_c, 0, 67, 102
1, 308015, Control_c, 0, 64, 77
1, 308015, Control_c, 0, 67, 105
1, 308029, Control_c, 0, 67, 108
1, 308044, Control_c, 0, 67, 110
1, 308059, Control_c, 0, 67, 112
1, 308074, Control_c, 0, 67, 114
1, 308089, Control_c, 0, 67, 117
1, 308104, Control_c, 0, 67, 119
1, 308118, Control_c, 0, 67, 123
1, 308133, Control_c, 0, 67, 125
1, 308148, Control_c, 0, 67, 127
1, 308162, Control_c, 0, 67, 127
1, 308207, Control_c, 0, 64, 77
1, 308222, Control_c, 0, 64, 78
1, 308226, Note_off_c, 0, 55, 57
1, 308229, Note_on_c, 0, 54, 53
1, 308237, Control_c, 0, 64, 79
1, 308253, Control_c, 0, 64, 81
1, 308267, Control_c, 0, 64, 83
1, 308282, Control_c, 0, 64, 86
1, 308293, Note_off_c, 0, 76, 38
1, 308297, Control_c, 0, 64, 88
1, 308312, Control_c, 0, 64, 90
1, 308315, Note_off_c, 0, 73, 38
1, 308327, Control_c, 0, 64, 91
1, 308341, Control_c, 0, 64, 93
1, 308356, Control_c, 0, 64, 93
1, 308378, Control_c, 0, 64, 94
1, 308384, Note_off_c, 0, 54, 60
1, 308468, Control_c, 0, 64, 93
1, 308498, Note_off_c, 0, 64, 23
1, 308512, Control_c, 0, 64, 93
1, 308527, Control_c, 0, 64, 92
1, 308542, Control_c, 0, 64, 91
1, 308556, Control_c, 0, 64, 89
1, 308564, Note_on_c, 0, 54, 36
1, 308571, Control_c, 0, 64, 86
1, 308575, Note_on_c, 0, 47, 39
1, 308586, Control_c, 0, 64, 80
1, 308600, Control_c, 0, 64, 71
1, 308615, Control_c, 0, 64, 58
1, 308630, Control_c, 0, 64, 0
1, 308793, Control_c, 0, 64, 36
1, 308807, Control_c, 0, 64, 49
1, 308822, Control_c, 0, 64, 57
1, 308837, Control_c, 0, 64, 61
1, 308852, Control_c, 0, 64, 63
1, 308867, Control_c, 0, 64, 64
1, 308882, Control_c, 0, 64, 66
1, 308897, Control_c, 0, 64, 67
1, 308912, Control_c, 0, 64, 69
1, 308926, Control_c, 0, 64, 70
1, 308941, Control_c, 0, 64, 71
1, 308956, Control_c, 0, 64, 73
1, 308971, Control_c, 0, 64, 74
1, 308985, Control_c, 0, 64, 76
1, 309000, Control_c, 0, 64, 77
1, 309015, Control_c, 0, 64, 78
1, 309030, Control_c, 0, 64, 79
1, 309046, Control_c, 0, 64, 81
1, 309061, Control_c, 0, 64, 82
1, 309076, Control_c, 0, 64, 84
1, 309090, Control_c, 0, 64, 85
1, 309105, Control_c, 0, 64, 86
1, 309127, Control_c, 0, 64, 88
1, 309141, Control_c, 0, 64, 89
1, 309156, Control_c, 0, 64, 91
1, 309171, Control_c, 0, 64, 92
1, 309186, Control_c, 0, 64, 93
1, 309201, Control_c, 0, 64, 94
1, 309216, Control_c, 0, 64, 95
1, 309231, Control_c, 0, 64, 95
1, 309246, Control_c, 0, 64, 96
1, 309261, Control_c, 0, 64, 97
1, 309275, Control_c, 0, 64, 98
1, 309305, Control_c, 0, 64, 98
1, 309349, Note_on_c, 0, 66, 39
1, 309362, Note_on_c, 0, 62, 30
1, 309364, Control_c, 0, 64, 99
1, 309409, Control_c, 0, 64, 99
1, 309423, Control_c, 0, 64, 100
1, 309438, Control_c, 0, 64, 100
1, 309453, Control_c, 0, 64, 101
1, 309483, Control_c, 0, 64, 101
1, 309605, Note_off_c, 0, 66, 38
1, 309812, Note_off_c, 0, 62, 35
1, 310152, Note_on_c, 0, 74, 43
1, 310157, Note_on_c, 0, 71, 37
1, 311201, Control_c, 0, 64, 102
1, 311216, Control_c, 0, 64, 102
1, 311231, Control_c, 0, 64, 104
1, 311246, Control_c, 0, 64, 106
1, 311261, Control_c, 0, 64, 108
1, 311276, Control_c, 0, 64, 110
1, 311291, Control_c, 0, 64, 113
1, 311305, Control_c, 0, 64, 117
1, 311320, Control_c, 0, 64, 121
1, 311335, Control_c, 0, 64, 123
1, 311339, Note_off_c, 0, 71, 31
1, 311350, Control_c, 0, 64, 124
1, 311365, Control_c, 0, 64, 126
1, 311387, Control_c, 0, 64, 127
1, 311490, Note_off_c, 0, 47, 40
1, 311538, Note_off_c, 0, 54, 39
1, 311614, Note_off_c, 0, 74, 54
1, 311639, Control_c, 0, 67, 126
1, 311654, Control_c, 0, 67, 125
1, 311669, Control_c, 0, 67, 122
1, 311684, Control_c, 0, 67, 117
1, 311699, Control_c, 0, 67, 112
1, 311714, Control_c, 0, 67, 104
1, 311729, Control_c, 0, 67, 96
1, 311743, Control_c, 0, 67, 89
1, 311758, Control_c, 0, 67, 83
1, 311773, Control_c, 0, 67, 78
1, 311788, Control_c, 0, 67, 74
1, 311803, Control_c, 0, 67, 71
1, 311817, Control_c, 0, 67, 68
1, 311832, Control_c, 0, 67, 66
1, 311847, Control_c, 0, 67, 64
1, 311862, Control_c, 0, 67, 61
1, 311877, Control_c, 0, 64, 123
1, 311877, Control_c, 0, 67, 60
1, 311891, Control_c, 0, 64, 118
1, 311891, Control_c, 0, 67, 58
1, 311904, Note_on_c, 0, 62, 65
1, 311906, Control_c, 0, 64, 113
1, 311906, Control_c, 0, 67, 56
1, 311921, Control_c, 0, 64, 111
1, 311921, Control_c, 0, 67, 54
1, 311935, Control_c, 0, 64, 108
1, 311935, Control_c, 0, 67, 52
1, 311950, Control_c, 0, 64, 104
1, 311950, Control_c, 0, 67, 50
1, 311965, Control_c, 0, 64, 99
1, 311965, Control_c, 0, 67, 49
1, 311980, Control_c, 0, 64, 91
1, 311980, Control_c, 0, 67, 47
1, 311995, Control_c, 0, 64, 82
1, 311995, Control_c, 0, 67, 46
1, 312009, Control_c, 0, 64, 73
1, 312009, Control_c, 0, 67, 44
1, 312024, Control_c, 0, 64, 62
1, 312024, Control_c, 0, 67, 43
1, 312039, Control_c, 0, 64, 44
1, 312039, Control_c, 0, 67, 42
1, 312054, Control_c, 0, 64, 50
1, 312054, Control_c, 0, 67, 41
1, 312069, Control_c, 0, 64, 54
1, 312069, Control_c, 0, 67, 40
1, 312083, Control_c, 0, 64, 55
1, 312083, Control_c, 0, 67, 39
1, 312098, Control_c, 0, 64, 57
1, 312098, Control_c, 0, 67, 37
1, 312121, Control_c, 0, 64, 59
1, 312121, Control_c, 0, 67, 36
1, 312136, Control_c, 0, 64, 61
1, 312136, Control_c, 0, 67, 35
1, 312150, Control_c, 0, 64, 62
1, 312150, Control_c, 0, 67, 33
1, 312165, Control_c, 0, 64, 64
1, 312165, Control_c, 0, 67, 32
1, 312180, Control_c, 0, 64, 65
1, 312180, Control_c, 0, 67, 30
1, 312195, Control_c, 0, 64, 66
1, 312195, Control_c, 0, 67, 28
1, 312210, Control_c, 0, 64, 68
1, 312210, Control_c, 0, 67, 27
1, 312224, Control_c, 0, 64, 70
1, 312224, Control_c, 0, 67, 25
1, 312240, Control_c, 0, 64, 72
1, 312240, Control_c, 0, 67, 24
1, 312255, Control_c, 0, 64, 74
1, 312255, Control_c, 0, 67, 22
1, 312270, Control_c, 0, 64, 77
1, 312270, Control_c, 0, 67, 20
1, 312285, Control_c, 0, 64, 79
1, 312285, Control_c, 0, 67, 18
1, 312300, Control_c, 0, 64, 82
1, 312300, Control_c, 0, 67, 16
1, 312314, Control_c, 0, 64, 84
1, 312314, Control_c, 0, 67, 14
1, 312329, Control_c, 0, 64, 86
1, 312329, Control_c, 0, 67, 11
1, 312344, Control_c, 0, 64, 87
1, 312344, Control_c, 0, 67, 9
1, 312359, Control_c, 0, 64, 89
1, 312359, Control_c, 0, 67, 0
1, 312373, Control_c, 0, 64, 91
1, 312388, Control_c, 0, 64, 92
1, 312403, Control_c, 0, 64, 93
1, 312418, Control_c, 0, 64, 94
1, 312447, Control_c, 0, 64, 94
1, 312477, Control_c, 0, 64, 94
1, 312525, Note_off_c, 0, 62, 32
1, 312551, Control_c, 0, 64, 93
1, 312566, Control_c, 0, 64, 92
1, 312581, Note_on_c, 0, 64, 63
1, 312581, Control_c, 0, 64, 91
1, 312596, Control_c, 0, 64, 90
1, 312611, Control_c, 0, 64, 88
1, 312626, Control_c, 0, 64, 84
1, 312640, Control_c, 0, 64, 76
1, 312655, Control_c, 0, 64, 68
1, 312670, Control_c, 0, 64, 65
1, 312685, Control_c, 0, 64, 65
1, 312700, Control_c, 0, 64, 66
1, 312729, Control_c, 0, 64, 67
1, 312744, Control_c, 0, 64, 68
1, 312758, Control_c, 0, 64, 69
1, 312773, Control_c, 0, 64, 71
1, 312788, Control_c, 0, 64, 73
1, 312803, Control_c, 0, 64, 75
1, 312818, Control_c, 0, 64, 77
1, 312832, Control_c, 0, 64, 80
1, 312847, Control_c, 0, 64, 83
1, 312870, Control_c, 0, 64, 86
1, 312885, Control_c, 0, 64, 89
1, 312899, Control_c, 0, 64, 92
1, 312914, Control_c, 0, 64, 93
1, 312927, Note_off_c, 0, 64, 64
1, 312929, Control_c, 0, 64, 94
1, 312959, Control_c, 0, 64, 95
1, 312973, Control_c, 0, 64, 94
1, 313031, Note_on_c, 0, 66, 66
1, 313033, Control_c, 0, 64, 93
1, 313049, Control_c, 0, 64, 91
1, 313063, Control_c, 0, 64, 87
1, 313078, Control_c, 0, 64, 82
1, 313093, Control_c, 0, 64, 74
1, 313108, Control_c, 0, 64, 65
1, 313123, Control_c, 0, 64, 56
1, 313137, Control_c, 0, 64, 58
1, 313152, Control_c, 0, 64, 60
1, 313167, Control_c, 0, 64, 62
1, 313182, Control_c, 0, 64, 63
1, 313196, Control_c, 0, 64, 64
1, 313211, Control_c, 0, 64, 66
1, 313226, Control_c, 0, 64, 68
1, 313241, Control_c, 0, 64, 70
1, 313256, Control_c, 0, 64, 72
1, 313270, Control_c, 0, 64, 74
1, 313285, Control_c, 0, 64, 77
1, 313300, Control_c, 0, 64, 81
1, 313315, Control_c, 0, 64, 85
1, 313330, Control_c, 0, 64, 89
1, 313344, Control_c, 0, 64, 93
1, 313359, Control_c, 0, 64, 98
1, 313374, Control_c, 0, 64, 103
1, 313389, Control_c, 0, 64, 106
1, 313404, Control_c, 0, 64, 108
1, 313419, Control_c, 0, 64, 109
1, 313442, Note_off_c, 0, 66, 60
1, 313449, Control_c, 0, 64, 108
1, 313522, Control_c, 0, 64, 107
1, 313537, Control_c, 0, 64, 105
1, 313552, Control_c, 0, 64, 102
1, 313567, Control_c, 0, 64, 99
1, 313581, Control_c, 0, 64, 97
1, 313593, Note_on_c, 0, 61, 58
1, 313596, Control_c, 0, 64, 94
1, 313619, Control_c, 0, 64, 91
1, 313634, Control_c, 0, 64, 88
1, 313648, Control_c, 0, 64, 84
1, 313648, Control_c, 0, 67, 8
1, 313663, Control_c, 0, 64, 78
1, 313663, Control_c, 0, 67, 12
1, 313678, Control_c, 0, 64, 70
1, 313678, Control_c, 0, 67, 16
1, 313693, Control_c, 0, 64, 56
1, 313693, Control_c, 0, 67, 21
1, 313708, Control_c, 0, 64, 0
1, 313708, Control_c, 0, 67, 27
1, 313722, Control_c, 0, 67, 31
1, 313737, Control_c, 0, 67, 35
1, 313752, Control_c, 0, 67, 40
1, 313767, Control_c, 0, 67, 44
1, 313781, Control_c, 0, 67, 48
1, 313796, Control_c, 0, 67, 54
1, 313811, Control_c, 0, 67, 60
1, 313826, Control_c, 0, 64, 14
1, 313826, Control_c, 0, 67, 64
1, 313842, Control_c, 0, 64, 31
1, 313842, Control_c, 0, 67, 66
1, 313857, Control_c, 0, 64, 41
1, 313857, Control_c, 0, 67, 68
1, 313872, Control_c, 0, 64, 47
1, 313872, Control_c, 0, 67, 71
1, 313886, Control_c, 0, 64, 55
1, 313886, Control_c, 0, 67, 73
1, 313901, Control_c, 0, 64, 60
1, 313901, Control_c, 0, 67, 75
1, 313916, Control_c, 0, 64, 62
1, 313916, Control_c, 0, 67, 75
1, 313931, Control_c, 0, 64, 64
1, 313945, Control_c, 0, 64, 65
1, 313945, Control_c, 0, 67, 76
1, 313960, Control_c, 0, 64, 67
1, 313975, Control_c, 0, 64, 69
1, 313990, Control_c, 0, 64, 70
1, 314005, Control_c, 0, 64, 71
1, 314019, Control_c, 0, 64, 73
1, 314034, Control_c, 0, 64, 75
1, 314049, Control_c, 0, 64, 76
1, 314064, Control_c, 0, 64, 78
1, 314079, Control_c, 0, 64, 80
1, 314093, Control_c, 0, 64, 81
1, 314108, Control_c, 0, 64, 83
1, 314123, Control_c, 0, 64, 84
1, 314137, Control_c, 0, 64, 86
1, 314152, Control_c, 0, 64, 87
1, 314167, Control_c, 0, 64, 87
1, 314182, Control_c, 0, 64, 88
1, 314182, Control_c, 0, 67, 75
1, 314197, Control_c, 0, 64, 89
1, 314212, Control_c, 0, 64, 90
1, 314227, Control_c, 0, 64, 90
1, 314227, Control_c, 0, 67, 75
1, 314286, Control_c, 0, 64, 91
1, 314288, Note_on_c, 0, 82, 50
1, 314301, Note_on_c, 0, 79, 36
1, 314316, Control_c, 0, 64, 91
1, 314330, Control_c, 0, 64, 92
1, 314345, Control_c, 0, 64, 92
1, 314397, Control_c, 0, 67, 74
1, 314426, Control_c, 0, 64, 93
1, 314545, Control_c, 0, 64, 93
1, 314560, Control_c, 0, 67, 74
1, 314616, Note_off_c, 0, 82, 31
1, 314655, Note_off_c, 0, 79, 41
1, 314856, Note_on_c, 0, 81, 48
1, 314861, Note_on_c, 0, 78, 43
1, 314902, Control_c, 0, 67, 73
1, 315049, Control_c, 0, 67, 73
1, 315093, Note_off_c, 0, 81, 35
1, 315131, Control_c, 0, 67, 72
1, 315160, Note_off_c, 0, 78, 39
1, 315160, Control_c, 0, 67, 72
1, 315220, Control_c, 0, 64, 93
1, 315234, Control_c, 0, 64, 92
1, 315249, Control_c, 0, 64, 91
1, 315264, Control_c, 0, 64, 88
1, 315279, Control_c, 0, 64, 83
1, 315294, Control_c, 0, 64, 75
1, 315301, Note_on_c, 0, 79, 54
1, 315302, Note_on_c, 0, 64, 51
1, 315309, Control_c, 0, 64, 66
1, 315314, Note_on_c, 0, 76, 41
1, 315324, Control_c, 0, 64, 65
1, 315339, Control_c, 0, 64, 67
1, 315354, Control_c, 0, 64, 67
1, 315368, Control_c, 0, 64, 68
1, 315383, Control_c, 0, 64, 69
1, 315383, Control_c, 0, 67, 71
1, 315398, Control_c, 0, 64, 71
1, 315398, Control_c, 0, 67, 71
1, 315413, Control_c, 0, 64, 74
1, 315413, Control_c, 0, 67, 70
1, 315428, Control_c, 0, 64, 76
1, 315428, Control_c, 0, 67, 70
1, 315443, Control_c, 0, 64, 78
1, 315443, Control_c, 0, 67, 69
1, 315458, Control_c, 0, 64, 80
1, 315458, Control_c, 0, 67, 68
1, 315473, Control_c, 0, 64, 82
1, 315473, Control_c, 0, 67, 68
1, 315476, Note_off_c, 0, 76, 59
1, 315488, Control_c, 0, 64, 85
1, 315488, Control_c, 0, 67, 67
1, 315503, Control_c, 0, 64, 88
1, 315503, Control_c, 0, 67, 66
1, 315517, Control_c, 0, 64, 90
1, 315517, Control_c, 0, 67, 65
1, 315532, Control_c, 0, 64, 93
1, 315547, Control_c, 0, 64, 96
1, 315547, Control_c, 0, 67, 64
1, 315562, Control_c, 0, 64, 99
1, 315562, Control_c, 0, 67, 64
1, 315576, Control_c, 0, 64, 102
1, 315591, Control_c, 0, 64, 105
1, 315591, Control_c, 0, 67, 63
1, 315606, Control_c, 0, 64, 106
1, 315606, Control_c, 0, 67, 62
1, 315621, Control_c, 0, 64, 107
1, 315621, Control_c, 0, 67, 62
1, 315636, Control_c, 0, 67, 61
1, 315651, Control_c, 0, 67, 59
1, 315654, Note_off_c, 0, 61, 31
1, 315665, Control_c, 0, 67, 58
1, 315680, Control_c, 0, 67, 57
1, 315695, Control_c, 0, 64, 106
1, 315695, Control_c, 0, 67, 56
1, 315723, Note_off_c, 0, 79, 33
1, 315724, Control_c, 0, 64, 104
1, 315739, Control_c, 0, 64, 98
1, 315751, Note_on_c, 0, 66, 74
1, 315754, Control_c, 0, 64, 88
1, 315754, Control_c, 0, 67, 56
1, 315767, Note_on_c, 0, 76, 59
1, 315768, Note_on_c, 0, 73, 54
1, 315769, Control_c, 0, 64, 74
1, 315783, Control_c, 0, 64, 66
1, 315783, Control_c, 0, 67, 55
1, 315798, Control_c, 0, 64, 66
1, 315798, Control_c, 0, 67, 55
1, 315813, Control_c, 0, 64, 68
1, 315813, Control_c, 0, 67, 54
1, 315828, Control_c, 0, 64, 68
1, 315828, Control_c, 0, 67, 54
1, 315843, Control_c, 0, 64, 70
1, 315843, Control_c, 0, 67, 53
1, 315865, Control_c, 0, 64, 72
1, 315865, Control_c, 0, 67, 51
1, 315880, Control_c, 0, 64, 77
1, 315880, Control_c, 0, 67, 49
1, 315895, Control_c, 0, 64, 82
1, 315895, Control_c, 0, 67, 46
1, 315909, Control_c, 0, 64, 86
1, 315909, Control_c, 0, 67, 42
1, 315924, Control_c, 0, 64, 90
1, 315924, Control_c, 0, 67, 38
1, 315932, Note_off_c, 0, 64, 31
1, 315939, Control_c, 0, 64, 93
1, 315939, Control_c, 0, 67, 33
1, 315954, Control_c, 0, 64, 96
1, 315954, Control_c, 0, 67, 28
1, 315969, Control_c, 0, 64, 101
1, 315969, Control_c, 0, 67, 23
1, 315983, Control_c, 0, 64, 106
1, 315983, Control_c, 0, 67, 15
1, 315998, Control_c, 0, 64, 112
1, 315998, Control_c, 0, 67, 0
1, 316013, Control_c, 0, 64, 117
1, 316028, Control_c, 0, 64, 124
1, 316043, Control_c, 0, 64, 127
1, 316060, Note_off_c, 0, 66, 62
1, 316148, Note_on_c, 0, 67, 74
1, 316161, Control_c, 0, 64, 122
1, 316176, Control_c, 0, 64, 112
1, 316185, Note_off_c, 0, 73, 35
1, 316191, Control_c, 0, 64, 102
1, 316206, Control_c, 0, 64, 90
1, 316213, Note_off_c, 0, 76, 31
1, 316221, Control_c, 0, 64, 76
1, 316236, Control_c, 0, 64, 64
1, 316251, Control_c, 0, 64, 53
1, 316266, Control_c, 0, 64, 61
1, 316281, Control_c, 0, 64, 63
1, 316296, Control_c, 0, 64, 65
1, 316310, Control_c, 0, 64, 66
1, 316325, Control_c, 0, 64, 68
1, 316340, Control_c, 0, 64, 71
1, 316355, Control_c, 0, 64, 75
1, 316370, Control_c, 0, 64, 78
1, 316385, Control_c, 0, 64, 81
1, 316399, Control_c, 0, 64, 85
1, 316414, Control_c, 0, 64, 89
1, 316429, Control_c, 0, 64, 92
1, 316444, Control_c, 0, 64, 96
1, 316459, Control_c, 0, 64, 98
1, 316473, Control_c, 0, 64, 101
1, 316488, Control_c, 0, 64, 102
1, 316550, Note_on_c, 0, 69, 73
1, 316564, Note_off_c, 0, 67, 64
1, 316577, Control_c, 0, 64, 99
1, 316592, Control_c, 0, 64, 93
1, 316614, Control_c, 0, 64, 84
1, 316629, Control_c, 0, 64, 73
1, 316644, Control_c, 0, 64, 68
1, 316659, Control_c, 0, 64, 70
1, 316674, Control_c, 0, 64, 72
1, 316688, Control_c, 0, 64, 73
1, 316703, Control_c, 0, 64, 74
1, 316718, Control_c, 0, 64, 78
1, 316732, Control_c, 0, 64, 83
1, 316747, Control_c, 0, 64, 87
1, 316762, Control_c, 0, 64, 90
1, 316777, Control_c, 0, 64, 92
1, 316792, Control_c, 0, 64, 95
1, 316806, Control_c, 0, 64, 98
1, 316821, Control_c, 0, 64, 102
1, 316836, Control_c, 0, 64, 104
1, 316851, Control_c, 0, 64, 107
1, 316859, Note_off_c, 0, 69, 65
1, 316865, Control_c, 0, 64, 108
1, 316880, Control_c, 0, 64, 109
1, 316925, Note_on_c, 0, 69, 77
1, 316969, Control_c, 0, 64, 108
1, 316984, Control_c, 0, 64, 107
1, 316999, Control_c, 0, 64, 104
1, 317014, Control_c, 0, 64, 101
1, 317029, Control_c, 0, 64, 98
1, 317044, Control_c, 0, 64, 94
1, 317059, Control_c, 0, 64, 88
1, 317071, Note_on_c, 0, 70, 66
1, 317074, Control_c, 0, 64, 81
1, 317089, Control_c, 0, 64, 73
1, 317100, Note_off_c, 0, 69, 58
1, 317103, Control_c, 0, 64, 65
1, 317118, Control_c, 0, 64, 36
1, 317133, Control_c, 0, 64, 0
1, 317237, Control_c, 0, 64, 21
1, 317252, Control_c, 0, 64, 40
1, 317267, Control_c, 0, 64, 50
1, 317282, Control_c, 0, 64, 59
1, 317297, Control_c, 0, 64, 63
1, 317312, Control_c, 0, 64, 65
1, 317312, Control_c, 0, 67, 8
1, 317327, Control_c, 0, 64, 67
1, 317327, Control_c, 0, 67, 9
1, 317342, Control_c, 0, 64, 70
1, 317342, Control_c, 0, 67, 10
1, 317363, Control_c, 0, 64, 72
1, 317363, Control_c, 0, 67, 12
1, 317378, Control_c, 0, 64, 74
1, 317378, Control_c, 0, 67, 14
1, 317393, Control_c, 0, 64, 77
1, 317393, Control_c, 0, 67, 17
1, 317408, Control_c, 0, 64, 81
1, 317408, Control_c, 0, 67, 20
1, 317423, Control_c, 0, 64, 84
1, 317423, Control_c, 0, 67, 23
1, 317437, Control_c, 0, 64, 87
1, 317437, Control_c, 0, 67, 26
1, 317452, Control_c, 0, 64, 90
1, 317452, Control_c, 0, 67, 30
1, 317467, Control_c, 0, 64, 92
1, 317467, Control_c, 0, 67, 33
1, 317482, Control_c, 0, 64, 93
1, 317482, Control_c, 0, 67, 36
1, 317497, Control_c, 0, 64, 95
1, 317497, Control_c, 0, 67, 37
1, 317512, Control_c, 0, 64, 96
1, 317512, Control_c, 0, 67, 39
1, 317527, Control_c, 0, 64, 96
1, 317527, Control_c, 0, 67, 40
1, 317542, Control_c, 0, 64, 97
1, 317542, Control_c, 0, 67, 42
1, 317556, Control_c, 0, 67, 43
1, 317571, Control_c, 0, 67, 44
1, 317577, Note_off_c, 0, 70, 57
1, 317586, Control_c, 0, 67, 45
1, 317601, Control_c, 0, 67, 49
1, 317616, Control_c, 0, 67, 52
1, 317630, Control_c, 0, 67, 54
1, 317645, Control_c, 0, 67, 57
1, 317660, Control_c, 0, 64, 96
1, 317660, Control_c, 0, 67, 59
1, 317675, Control_c, 0, 67, 62
1, 317689, Control_c, 0, 67, 65
1, 317704, Control_c, 0, 64, 96
1, 317704, Control_c, 0, 67, 66
1, 317719, Control_c, 0, 64, 95
1, 317719, Control_c, 0, 67, 68
1, 317734, Control_c, 0, 67, 70
1, 317749, Control_c, 0, 64, 95
1, 317749, Control_c, 0, 67, 73
1, 317763, Control_c, 0, 64, 94
1, 317763, Control_c, 0, 67, 75
1, 317778, Control_c, 0, 64, 93
1, 317778, Control_c, 0, 67, 77
1, 317793, Control_c, 0, 64, 92
1, 317793, Control_c, 0, 67, 79
1, 317808, Control_c, 0, 64, 91
1, 317808, Control_c, 0, 67, 82
1, 317823, Control_c, 0, 64, 89
1, 317823, Control_c, 0, 67, 85
1, 317835, Note_on_c, 0, 62, 43
1, 317839, Control_c, 0, 64, 88
1, 317839, Control_c, 0, 67, 88
1, 317853, Control_c, 0, 64, 85
1, 317853, Control_c, 0, 67, 90
1, 317868, Control_c, 0, 64, 81
1, 317868, Control_c, 0, 67, 93
1, 317883, Control_c, 0, 64, 75
1, 317883, Control_c, 0, 67, 97
1, 317898, Control_c, 0, 64, 67
1, 317898, Control_c, 0, 67, 101
1, 317912, Control_c, 0, 64, 50
1, 317912, Control_c, 0, 67, 104
1, 317927, Control_c, 0, 64, 0
1, 317927, Control_c, 0, 67, 107
1, 317942, Control_c, 0, 67, 109
1, 317957, Control_c, 0, 67, 111
1, 317972, Control_c, 0, 67, 115
1, 317986, Control_c, 0, 67, 118
1, 318001, Control_c, 0, 67, 120
1, 318015, Control_c, 0, 67, 121
1, 318030, Control_c, 0, 64, 33
1, 318030, Control_c, 0, 67, 122
1, 318045, Control_c, 0, 64, 44
1, 318045, Control_c, 0, 67, 122
1, 318060, Control_c, 0, 64, 50
1, 318060, Control_c, 0, 67, 123
1, 318075, Control_c, 0, 64, 55
1, 318075, Control_c, 0, 67, 123
1, 318090, Control_c, 0, 64, 59
1, 318111, Control_c, 0, 64, 63
1, 318126, Control_c, 0, 64, 65
1, 318141, Control_c, 0, 64, 66
1, 318156, Control_c, 0, 64, 68
1, 318171, Control_c, 0, 64, 69
1, 318185, Control_c, 0, 64, 71
1, 318200, Control_c, 0, 64, 73
1, 318215, Control_c, 0, 64, 74
1, 318230, Control_c, 0, 64, 76
1, 318245, Control_c, 0, 64, 78
1, 318260, Control_c, 0, 64, 80
1, 318275, Control_c, 0, 64, 81
1, 318290, Control_c, 0, 64, 83
1, 318304, Control_c, 0, 64, 84
1, 318319, Control_c, 0, 64, 86
1, 318334, Control_c, 0, 64, 87
1, 318349, Control_c, 0, 64, 89
1, 318364, Control_c, 0, 64, 90
1, 318364, Control_c, 0, 67, 123
1, 318378, Control_c, 0, 64, 91
1, 318393, Control_c, 0, 64, 92
1, 318408, Control_c, 0, 64, 93
1, 318423, Control_c, 0, 64, 93
1, 318423, Control_c, 0, 67, 122
1, 318438, Control_c, 0, 64, 94
1, 318452, Control_c, 0, 64, 95
1, 318452, Control_c, 0, 67, 122
1, 318467, Control_c, 0, 64, 95
1, 318541, Control_c, 0, 64, 96
1, 318600, Control_c, 0, 64, 96
1, 318615, Control_c, 0, 67, 121
1, 318631, Control_c, 0, 64, 97
1, 318661, Note_on_c, 0, 86, 56
1, 318661, Control_c, 0, 64, 97
1, 318680, Note_on_c, 0, 82, 42
1, 318691, Note_on_c, 0, 67, 32
1, 318720, Control_c, 0, 64, 98
1, 318720, Control_c, 0, 67, 121
1, 318838, Control_c, 0, 67, 120
1, 318860, Note_off_c, 0, 82, 34
1, 318863, Note_off_c, 0, 86, 58
1, 318876, Control_c, 0, 64, 98
1, 318920, Control_c, 0, 64, 99
1, 318920, Control_c, 0, 67, 120
1, 318921, Note_off_c, 0, 67, 39
1, 318934, Control_c, 0, 64, 99
1, 318949, Control_c, 0, 64, 100
1, 318949, Control_c, 0, 67, 119
1, 318994, Control_c, 0, 67, 119
1, 319068, Control_c, 0, 67, 118
1, 319112, Control_c, 0, 64, 98
1, 319112, Control_c, 0, 67, 118
1, 319127, Control_c, 0, 64, 93
1, 319127, Control_c, 0, 67, 117
1, 319142, Control_c, 0, 64, 88
1, 319142, Control_c, 0, 67, 115
1, 319155, Note_on_c, 0, 84, 71
1, 319157, Control_c, 0, 64, 86
1, 319157, Control_c, 0, 67, 114
1, 319172, Control_c, 0, 67, 112
1, 319176, Note_on_c, 0, 69, 44
1, 319187, Control_c, 0, 64, 86
1, 319187, Control_c, 0, 67, 109
1, 319187, Note_on_c, 0, 81, 39
1, 319201, Control_c, 0, 64, 88
1, 319201, Control_c, 0, 67, 105
1, 319216, Control_c, 0, 64, 91
1, 319216, Control_c, 0, 67, 102
1, 319231, Control_c, 0, 64, 95
1, 319231, Control_c, 0, 67, 100
1, 319241, Note_off_c, 0, 81, 39
1, 319246, Control_c, 0, 64, 98
1, 319246, Control_c, 0, 67, 97
1, 319260, Control_c, 0, 64, 100
1, 319260, Control_c, 0, 67, 93
1, 319275, Control_c, 0, 64, 102
1, 319275, Control_c, 0, 67, 87
1, 319290, Control_c, 0, 64, 104
1, 319290, Control_c, 0, 67, 78
1, 319305, Control_c, 0, 64, 106
1, 319305, Control_c, 0, 67, 68
1, 319319, Note_off_c, 0, 69, 59
1, 319320, Control_c, 0, 64, 108
1, 319320, Control_c, 0, 67, 56
1, 319329, Note_off_c, 0, 84, 63
1, 319334, Control_c, 0, 64, 110
1, 319334, Control_c, 0, 67, 41
1, 319349, Control_c, 0, 64, 111
1, 319349, Control_c, 0, 67, 27
1, 319364, Control_c, 0, 64, 112
1, 319364, Control_c, 0, 67, 20
1, 319379, Control_c, 0, 67, 19
1, 319394, Control_c, 0, 67, 17
1, 319408, Control_c, 0, 67, 16
1, 319424, Control_c, 0, 67, 14
1, 319439, Control_c, 0, 67, 14
1, 319454, Control_c, 0, 67, 13
1, 319469, Control_c, 0, 67, 13
1, 319484, Control_c, 0, 67, 12
1, 319498, Control_c, 0, 67, 11
1, 319513, Control_c, 0, 64, 111
1, 319513, Control_c, 0, 67, 10
1, 319528, Control_c, 0, 64, 110
1, 319528, Control_c, 0, 67, 9
1, 319543, Control_c, 0, 64, 108
1, 319543, Control_c, 0, 67, 9
1, 319557, Control_c, 0, 64, 107
1, 319572, Control_c, 0, 64, 106
1, 319587, Control_c, 0, 64, 103
1, 319610, Control_c, 0, 64, 97
1, 319625, Control_c, 0, 64, 88
1, 319632, Note_on_c, 0, 82, 54
1, 319639, Control_c, 0, 64, 77
1, 319645, Note_on_c, 0, 70, 33
1, 319645, Note_on_c, 0, 79, 41
1, 319654, Control_c, 0, 64, 66
1, 319669, Control_c, 0, 64, 54
1, 319683, Control_c, 0, 64, 59
1, 319698, Control_c, 0, 64, 61
1, 319713, Control_c, 0, 64, 63
1, 319728, Control_c, 0, 64, 64
1, 319743, Control_c, 0, 64, 65
1, 319757, Control_c, 0, 64, 66
1, 319772, Control_c, 0, 64, 69
1, 319787, Control_c, 0, 64, 71
1, 319802, Control_c, 0, 64, 72
1, 319803, Note_off_c, 0, 79, 46
1, 319817, Control_c, 0, 64, 73
1, 319831, Control_c, 0, 64, 74
1, 319846, Control_c, 0, 64, 76
1, 319861, Control_c, 0, 64, 78
1, 319876, Control_c, 0, 64, 80
1, 319890, Control_c, 0, 64, 81
1, 319905, Control_c, 0, 64, 83
1, 319920, Control_c, 0, 64, 85
1, 319935, Control_c, 0, 64, 87
1, 319950, Note_off_c, 0, 82, 48
1, 319950, Control_c, 0, 64, 88
1, 319950, Control_c, 0, 67, 9
1, 319960, Note_off_c, 0, 70, 42
1, 319965, Control_c, 0, 64, 89
1, 319965, Control_c, 0, 67, 10
1, 319980, Control_c, 0, 64, 89
1, 319980, Control_c, 0, 67, 11
1, 319995, Control_c, 0, 64, 90
1, 319995, Control_c, 0, 67, 11
1, 320010, Control_c, 0, 64, 90
1, 320024, Control_c, 0, 64, 91
1, 320024, Control_c, 0, 67, 12
1, 320039, Control_c, 0, 64, 91
1, 320039, Control_c, 0, 67, 12
1, 320054, Control_c, 0, 64, 92
1, 320054, Control_c, 0, 67, 13
1, 320069, Control_c, 0, 67, 13
1, 320083, Control_c, 0, 64, 92
1, 320098, Control_c, 0, 64, 93
1, 320113, Control_c, 0, 64, 94
1, 320113, Control_c, 0, 67, 14
1, 320128, Control_c, 0, 64, 95
1, 320143, Control_c, 0, 67, 14
1, 320157, Control_c, 0, 64, 95
1, 320187, Control_c, 0, 64, 96
1, 320202, Control_c, 0, 64, 97
1, 320218, Control_c, 0, 64, 97
1, 320218, Control_c, 0, 67, 15
1, 320231, Note_on_c, 0, 79, 44
1, 320241, Note_on_c, 0, 70, 33
1, 320248, Control_c, 0, 64, 98
1, 320248, Control_c, 0, 67, 15
1, 320260, Note_on_c, 0, 74, 33
1, 320263, Control_c, 0, 64, 98
1, 320278, Control_c, 0, 64, 100
1, 320278, Control_c, 0, 67, 16
1, 320293, Control_c, 0, 64, 100
1, 320293, Control_c, 0, 67, 16
1, 320307, Control_c, 0, 64, 101
1, 320322, Control_c, 0, 64, 101
1, 320322, Control_c, 0, 67, 17
1, 320337, Control_c, 0, 67, 17
1, 320359, Control_c, 0, 64, 102
1, 320359, Control_c, 0, 67, 18
1, 320374, Control_c, 0, 64, 102
1, 320374, Control_c, 0, 67, 18
1, 320388, Control_c, 0, 64, 103
1, 320388, Control_c, 0, 67, 19
1, 320403, Control_c, 0, 67, 19
1, 320418, Control_c, 0, 64, 103
1, 320433, Control_c, 0, 67, 20
1, 320440, Note_off_c, 0, 70, 27
1, 320463, Control_c, 0, 67, 20
1, 320475, Note_off_c, 0, 79, 28
1, 320478, Control_c, 0, 67, 21
1, 320493, Control_c, 0, 67, 21
1, 320507, Control_c, 0, 67, 23
1, 320517, Note_off_c, 0, 74, 41
1, 320522, Control_c, 0, 67, 24
1, 320537, Control_c, 0, 67, 26
1, 320552, Control_c, 0, 67, 28
1, 320567, Control_c, 0, 67, 31
1, 320581, Control_c, 0, 67, 33
1, 320596, Control_c, 0, 67, 35
1, 320611, Control_c, 0, 67, 37
1, 320626, Control_c, 0, 67, 39
1, 320641, Control_c, 0, 67, 41
1, 320655, Control_c, 0, 67, 42
1, 320670, Control_c, 0, 67, 44
1, 320685, Control_c, 0, 67, 45
1, 320699, Control_c, 0, 67, 47
1, 320714, Control_c, 0, 67, 48
1, 320729, Control_c, 0, 67, 49
1, 320744, Control_c, 0, 67, 50
1, 320759, Control_c, 0, 67, 51
1, 320773, Control_c, 0, 67, 53
1, 320788, Control_c, 0, 67, 54
1, 320803, Control_c, 0, 67, 56
1, 320818, Control_c, 0, 67, 57
1, 320833, Control_c, 0, 67, 58
1, 320847, Control_c, 0, 67, 60
1, 320862, Control_c, 0, 67, 62
1, 320877, Control_c, 0, 67, 63
1, 320892, Control_c, 0, 67, 65
1, 320907, Control_c, 0, 67, 66
1, 320922, Control_c, 0, 67, 69
1, 320937, Control_c, 0, 67, 71
1, 320952, Control_c, 0, 67, 73
1, 320967, Control_c, 0, 67, 74
1, 320981, Control_c, 0, 67, 75
1, 320996, Control_c, 0, 67, 77
1, 321011, Control_c, 0, 67, 78
1, 321026, Control_c, 0, 67, 80
1, 321056, Control_c, 0, 67, 80
1, 321071, Control_c, 0, 64, 103
1, 321071, Control_c, 0, 67, 81
1, 321086, Control_c, 0, 67, 81
1, 321122, Control_c, 0, 64, 102
1, 321137, Control_c, 0, 64, 102
1, 321167, Control_c, 0, 64, 101
1, 321182, Control_c, 0, 64, 100
1, 321182, Control_c, 0, 67, 82
1, 321196, Control_c, 0, 64, 99
1, 321211, Control_c, 0, 64, 98
1, 321226, Control_c, 0, 64, 98
1, 321241, Control_c, 0, 64, 97
1, 321250, Note_on_c, 0, 63, 42
1, 321256, Control_c, 0, 64, 97
1, 321271, Control_c, 0, 64, 96
1, 321275, Note_off_c, 0, 62, 35
1, 321286, Control_c, 0, 64, 95
1, 321300, Control_c, 0, 64, 92
1, 321315, Control_c, 0, 64, 89
1, 321330, Control_c, 0, 64, 85
1, 321345, Control_c, 0, 64, 77
1, 321360, Control_c, 0, 64, 68
1, 321375, Control_c, 0, 64, 51
1, 321390, Control_c, 0, 64, 0
1, 321419, Control_c, 0, 64, 24
1, 321434, Control_c, 0, 64, 45
1, 321449, Control_c, 0, 64, 53
1, 321464, Control_c, 0, 64, 58
1, 321464, Control_c, 0, 67, 81
1, 321478, Control_c, 0, 64, 63
1, 321493, Control_c, 0, 64, 66
1, 321493, Control_c, 0, 67, 81
1, 321508, Control_c, 0, 64, 69
1, 321522, Control_c, 0, 64, 71
1, 321522, Control_c, 0, 67, 80
1, 321537, Control_c, 0, 64, 73
1, 321537, Control_c, 0, 67, 80
1, 321552, Control_c, 0, 64, 75
1, 321567, Control_c, 0, 64, 77
1, 321582, Control_c, 0, 64, 81
1, 321596, Control_c, 0, 64, 84
1, 321596, Control_c, 0, 67, 79
1, 321611, Control_c, 0, 64, 86
1, 321611, Control_c, 0, 67, 79
1, 321626, Control_c, 0, 64, 88
1, 321641, Control_c, 0, 64, 89
1, 321641, Control_c, 0, 67, 78
1, 321655, Control_c, 0, 64, 90
1, 321670, Control_c, 0, 64, 92
1, 321685, Control_c, 0, 64, 94
1, 321700, Control_c, 0, 67, 78
1, 321730, Control_c, 0, 64, 94
1, 321745, Control_c, 0, 64, 95
1, 321746, Note_on_c, 0, 79, 50
1, 321759, Control_c, 0, 64, 95
1, 321759, Control_c, 0, 67, 77
1, 321768, Note_on_c, 0, 70, 26
1, 321771, Note_on_c, 0, 67, 23
1, 321781, Note_on_c, 0, 75, 29
1, 321789, Control_c, 0, 67, 77
1, 321807, Note_off_c, 0, 79, 0
1, 321807, Note_on_c, 0, 79, 4
1, 321834, Control_c, 0, 64, 96
1, 321974, Note_off_c, 0, 70, 17
1, 322007, Note_off_c, 0, 79, 36
1, 322015, Note_off_c, 0, 75, 15
1, 322025, Note_off_c, 0, 63, 56
1, 322041, Note_off_c, 0, 67, 30
1, 322067, Note_on_c, 0, 65, 45
1, 322104, Note_off_c, 0, 65, 52
1, 322126, Note_on_c, 0, 63, 57
1, 322271, Control_c, 0, 67, 76
1, 322286, Control_c, 0, 64, 95
1, 322301, Control_c, 0, 64, 94
1, 322316, Control_c, 0, 64, 94
1, 322331, Control_c, 0, 64, 93
1, 322345, Control_c, 0, 64, 92
1, 322360, Control_c, 0, 64, 88
1, 322369, Note_on_c, 0, 62, 47
1, 322370, Note_on_c, 0, 79, 54
1, 322375, Control_c, 0, 64, 82
1, 322385, Note_on_c, 0, 70, 27
1, 322385, Note_on_c, 0, 75, 36
1, 322388, Note_off_c, 0, 63, 54
1, 322390, Note_on_c, 0, 67, 27
1, 322390, Control_c, 0, 64, 73
1, 322405, Control_c, 0, 64, 62
1, 322419, Control_c, 0, 64, 43
1, 322434, Control_c, 0, 64, 52
1, 322449, Control_c, 0, 64, 56
1, 322464, Control_c, 0, 64, 58
1, 322477, Control_c, 0, 64, 60
1, 322477, Control_c, 0, 67, 76
1, 322492, Control_c, 0, 64, 62
1, 322507, Control_c, 0, 64, 64
1, 322507, Control_c, 0, 67, 75
1, 322522, Control_c, 0, 64, 66
1, 322522, Control_c, 0, 67, 75
1, 322537, Control_c, 0, 64, 68
1, 322551, Control_c, 0, 64, 69
1, 322551, Control_c, 0, 67, 74
1, 322566, Control_c, 0, 64, 71
1, 322581, Control_c, 0, 64, 72
1, 322581, Control_c, 0, 67, 74
1, 322603, Control_c, 0, 64, 74
1, 322603, Control_c, 0, 67, 73
1, 322606, Note_off_c, 0, 67, 39
1, 322610, Note_on_c, 0, 63, 70
1, 322618, Control_c, 0, 64, 76
1, 322634, Control_c, 0, 64, 78
1, 322634, Control_c, 0, 67, 73
1, 322637, Note_off_c, 0, 79, 36
1, 322642, Note_off_c, 0, 70, 14
1, 322648, Control_c, 0, 64, 80
1, 322653, Note_off_c, 0, 75, 37
1, 322663, Control_c, 0, 64, 81
1, 322678, Control_c, 0, 64, 83
1, 322678, Control_c, 0, 67, 72
1, 322693, Control_c, 0, 64, 83
1, 322722, Control_c, 0, 64, 84
1, 322741, Note_off_c, 0, 62, 36
1, 322767, Control_c, 0, 64, 83
1, 322797, Control_c, 0, 64, 82
1, 322797, Control_c, 0, 67, 73
1, 322812, Control_c, 0, 64, 78
1, 322827, Control_c, 0, 64, 70
1, 322827, Note_on_c, 0, 67, 67
1, 322839, Note_on_c, 0, 79, 59
1, 322841, Control_c, 0, 64, 58
1, 322841, Control_c, 0, 67, 73
1, 322856, Control_c, 0, 64, 0
1, 322861, Note_on_c, 0, 75, 37
1, 322866, Note_off_c, 0, 63, 57
1, 322896, Poly_aftertouch_c, 0, 70, 127
1, 322900, Control_c, 0, 64, 23
1, 322915, Control_c, 0, 64, 41
1, 322930, Control_c, 0, 64, 50
1, 322930, Control_c, 0, 67, 73
1, 322940, Poly_aftertouch_c, 0, 70, 0
1, 322945, Control_c, 0, 64, 59
1, 322960, Control_c, 0, 64, 64
1, 322974, Control_c, 0, 64, 66
1, 322989, Control_c, 0, 64, 68
1, 323004, Control_c, 0, 64, 70
1, 323019, Control_c, 0, 64, 72
1, 323034, Control_c, 0, 64, 74
1, 323048, Control_c, 0, 64, 77
1, 323055, Note_on_c, 0, 63, 65
1, 323063, Control_c, 0, 64, 79
1, 323067, Note_off_c, 0, 75, 36
1, 323078, Control_c, 0, 64, 82
1, 323092, Control_c, 0, 64, 84
1, 323101, Note_off_c, 0, 67, 60
1, 323107, Control_c, 0, 64, 86
1, 323122, Control_c, 0, 64, 87
1, 323137, Control_c, 0, 64, 89
1, 323143, Note_off_c, 0, 63, 60
1, 323152, Control_c, 0, 64, 89
1, 323197, Note_off_c, 0, 79, 23
1, 323286, Control_c, 0, 64, 88
1, 323301, Control_c, 0, 64, 87
1, 323301, Control_c, 0, 67, 73
1, 323309, Note_on_c, 0, 63, 52
1, 323316, Control_c, 0, 64, 85
1, 323330, Control_c, 0, 64, 83
1, 323330, Control_c, 0, 67, 74
1, 323353, Control_c, 0, 64, 81
1, 323368, Control_c, 0, 64, 77
1, 323382, Control_c, 0, 64, 70
1, 323397, Control_c, 0, 64, 59
1, 323397, Control_c, 0, 67, 74
1, 323412, Control_c, 0, 64, 39
1, 323428, Control_c, 0, 64, 47
1, 323443, Control_c, 0, 64, 52
1, 323458, Control_c, 0, 64, 55
1, 323472, Control_c, 0, 64, 58
1, 323487, Control_c, 0, 64, 62
1, 323502, Control_c, 0, 64, 65
1, 323517, Control_c, 0, 64, 68
1, 323531, Control_c, 0, 64, 70
1, 323546, Control_c, 0, 64, 72
1, 323561, Control_c, 0, 64, 74
1, 323576, Control_c, 0, 64, 78
1, 323576, Control_c, 0, 67, 73
1, 323591, Control_c, 0, 64, 80
1, 323591, Control_c, 0, 67, 72
1, 323605, Control_c, 0, 64, 82
1, 323605, Control_c, 0, 67, 71
1, 323620, Control_c, 0, 64, 82
1, 323620, Control_c, 0, 67, 69
1, 323635, Control_c, 0, 67, 66
1, 323650, Control_c, 0, 67, 60
1, 323665, Control_c, 0, 67, 52
1, 323679, Control_c, 0, 67, 40
1, 323694, Control_c, 0, 67, 32
1, 323709, Control_c, 0, 64, 82
1, 323709, Control_c, 0, 67, 27
1, 323724, Control_c, 0, 64, 81
1, 323724, Control_c, 0, 67, 24
1, 323739, Control_c, 0, 64, 79
1, 323739, Control_c, 0, 67, 23
1, 323754, Control_c, 0, 64, 76
1, 323754, Control_c, 0, 67, 23
1, 323769, Control_c, 0, 64, 69
1, 323769, Control_c, 0, 67, 22
1, 323776, Note_on_c, 0, 79, 57
1, 323781, Note_on_c, 0, 73, 45
1, 323784, Control_c, 0, 64, 57
1, 323784, Control_c, 0, 67, 22
1, 323794, Note_on_c, 0, 67, 24
1, 323798, Control_c, 0, 64, 45
1, 323813, Control_c, 0, 64, 54
1, 323813, Control_c, 0, 67, 21
1, 323825, Poly_aftertouch_c, 0, 70, 127
1, 323828, Control_c, 0, 64, 58
1, 323828, Control_c, 0, 67, 21
1, 323842, Control_c, 0, 64, 59
1, 323842, Control_c, 0, 67, 20
1, 323857, Control_c, 0, 64, 62
1, 323857, Control_c, 0, 67, 20
1, 323872, Control_c, 0, 64, 64
1, 323872, Control_c, 0, 67, 19
1, 323887, Control_c, 0, 64, 67
1, 323887, Control_c, 0, 67, 19
1, 323902, Control_c, 0, 64, 70
1, 323902, Control_c, 0, 67, 17
1, 323916, Control_c, 0, 64, 72
1, 323916, Control_c, 0, 67, 15
1, 323931, Control_c, 0, 64, 74
1, 323931, Control_c, 0, 67, 13
1, 323946, Control_c, 0, 64, 76
1, 323946, Control_c, 0, 67, 10
1, 323961, Control_c, 0, 64, 79
1, 323961, Control_c, 0, 67, 8
1, 323969, Note_off_c, 0, 73, 53
1, 323976, Control_c, 0, 64, 82
1, 323976, Control_c, 0, 67, 0
1, 323990, Control_c, 0, 64, 84
1, 324002, Poly_aftertouch_c, 0, 70, 0
1, 324005, Control_c, 0, 64, 86
1, 324008, Note_on_c, 0, 62, 59
1, 324020, Control_c, 0, 64, 87
1, 324028, Note_off_c, 0, 63, 56
1, 324035, Control_c, 0, 64, 88
1, 324049, Control_c, 0, 64, 90
1, 324064, Control_c, 0, 64, 91
1, 324073, Note_off_c, 0, 79, 33
1, 324086, Note_off_c, 0, 67, 37
1, 324087, Note_off_c, 0, 62, 59
1, 324176, Control_c, 0, 64, 90
1, 324191, Control_c, 0, 64, 89
1, 324205, Control_c, 0, 64, 87
1, 324221, Control_c, 0, 64, 84
1, 324236, Control_c, 0, 64, 77
1, 324251, Control_c, 0, 64, 68
1, 324266, Control_c, 0, 64, 47
1, 324278, Note_on_c, 0, 79, 57
1, 324281, Control_c, 0, 64, 0
1, 324285, Note_on_c, 0, 62, 37
1, 324295, Note_on_c, 0, 74, 41
1, 324306, Note_on_c, 0, 67, 12
1, 324310, Note_on_c, 0, 70, 18
1, 324384, Control_c, 0, 64, 19
1, 324399, Control_c, 0, 64, 40
1, 324414, Control_c, 0, 64, 53
1, 324428, Control_c, 0, 64, 60
1, 324443, Control_c, 0, 64, 63
1, 324458, Control_c, 0, 64, 64
1, 324458, Control_c, 0, 67, 8
1, 324472, Control_c, 0, 64, 66
1, 324472, Control_c, 0, 67, 9
1, 324487, Control_c, 0, 64, 68
1, 324487, Control_c, 0, 67, 10
1, 324502, Control_c, 0, 64, 70
1, 324502, Control_c, 0, 67, 12
1, 324517, Control_c, 0, 64, 72
1, 324517, Control_c, 0, 67, 13
1, 324532, Control_c, 0, 64, 74
1, 324532, Control_c, 0, 67, 17
1, 324547, Control_c, 0, 64, 76
1, 324547, Control_c, 0, 67, 22
1, 324562, Control_c, 0, 64, 78
1, 324562, Control_c, 0, 67, 27
1, 324576, Control_c, 0, 64, 79
1, 324576, Control_c, 0, 67, 33
1, 324591, Control_c, 0, 64, 81
1, 324591, Control_c, 0, 67, 38
1, 324594, Note_off_c, 0, 70, 38
1, 324595, Note_off_c, 0, 74, 33
1, 324605, Note_off_c, 0, 79, 36
1, 324606, Control_c, 0, 64, 83
1, 324606, Control_c, 0, 67, 45
1, 324609, Note_off_c, 0, 67, 37
1, 324621, Control_c, 0, 64, 85
1, 324621, Control_c, 0, 67, 50
1, 324636, Control_c, 0, 64, 87
1, 324636, Control_c, 0, 67, 54
1, 324651, Control_c, 0, 64, 87
1, 324651, Control_c, 0, 67, 57
1, 324665, Control_c, 0, 64, 88
1, 324665, Control_c, 0, 67, 60
1, 324680, Control_c, 0, 64, 90
1, 324680, Control_c, 0, 67, 64
1, 324695, Control_c, 0, 64, 91
1, 324695, Control_c, 0, 67, 68
1, 324710, Control_c, 0, 64, 92
1, 324710, Control_c, 0, 67, 73
1, 324724, Control_c, 0, 64, 92
1, 324724, Control_c, 0, 67, 76
1, 324738, Control_c, 0, 67, 80
1, 324753, Control_c, 0, 67, 84
1, 324768, Control_c, 0, 64, 93
1, 324768, Control_c, 0, 67, 87
1, 324783, Control_c, 0, 67, 90
1, 324798, Control_c, 0, 67, 92
1, 324812, Control_c, 0, 67, 95
1, 324827, Control_c, 0, 67, 97
1, 324850, Control_c, 0, 67, 99
1, 324864, Control_c, 0, 67, 101
1, 324879, Control_c, 0, 67, 102
1, 324894, Control_c, 0, 67, 104
1, 324904, Note_on_c, 0, 79, 51
1, 324909, Control_c, 0, 67, 105
1, 324922, Note_on_c, 0, 74, 39
1, 324924, Control_c, 0, 67, 106
1, 324927, Note_on_c, 0, 70, 29
1, 324932, Note_on_c, 0, 67, 33
1, 324939, Control_c, 0, 67, 107
1, 324953, Control_c, 0, 67, 108
1, 324968, Control_c, 0, 67, 109
1, 324983, Control_c, 0, 67, 110
1, 324998, Control_c, 0, 67, 110
1, 325013, Control_c, 0, 67, 111
1, 325029, Control_c, 0, 67, 112
1, 325043, Control_c, 0, 67, 113
1, 325058, Control_c, 0, 67, 114
1, 325067, Note_off_c, 0, 62, 39
1, 325073, Control_c, 0, 67, 115
1, 325102, Control_c, 0, 67, 115
1, 325117, Control_c, 0, 67, 116
1, 325132, Control_c, 0, 67, 117
1, 325147, Control_c, 0, 67, 118
1, 325176, Note_off_c, 0, 79, 33
1, 325176, Control_c, 0, 67, 119
1, 325221, Control_c, 0, 67, 119
1, 325274, Note_off_c, 0, 70, 20
1, 325325, Control_c, 0, 67, 120
1, 325331, Note_off_c, 0, 67, 34
1, 325331, Note_off_c, 0, 74, 43
1, 325688, Control_c, 0, 64, 92
1, 325717, Control_c, 0, 64, 92
1, 325732, Control_c, 0, 64, 91
1, 325776, Control_c, 0, 64, 91
1, 325791, Control_c, 0, 64, 90
1, 325806, Control_c, 0, 64, 90
1, 325822, Control_c, 0, 64, 89
1, 325837, Control_c, 0, 64, 88
1, 325843, Note_on_c, 0, 62, 32
1, 325852, Control_c, 0, 64, 86
1, 325866, Control_c, 0, 64, 84
1, 325881, Control_c, 0, 64, 81
1, 325896, Control_c, 0, 64, 79
1, 325911, Control_c, 0, 64, 75
1, 325925, Control_c, 0, 64, 70
1, 325940, Control_c, 0, 64, 64
1, 325955, Control_c, 0, 64, 47
1, 325970, Control_c, 0, 64, 0
1, 326059, Control_c, 0, 64, 31
1, 326059, Control_c, 0, 67, 119
1, 326073, Control_c, 0, 64, 49
1, 326088, Control_c, 0, 64, 58
1, 326103, Control_c, 0, 64, 63
1, 326118, Control_c, 0, 64, 65
1, 326118, Control_c, 0, 67, 119
1, 326132, Control_c, 0, 64, 67
1, 326132, Control_c, 0, 67, 118
1, 326147, Control_c, 0, 64, 68
1, 326147, Control_c, 0, 67, 118
1, 326162, Control_c, 0, 64, 70
1, 326177, Control_c, 0, 64, 72
1, 326192, Control_c, 0, 64, 73
1, 326207, Control_c, 0, 64, 74
1, 326222, Control_c, 0, 64, 76
1, 326236, Control_c, 0, 64, 77
1, 326251, Control_c, 0, 64, 79
1, 326251, Control_c, 0, 67, 117
1, 326266, Control_c, 0, 64, 81
1, 326281, Control_c, 0, 64, 83
1, 326296, Control_c, 0, 64, 84
1, 326310, Control_c, 0, 64, 85
1, 326325, Control_c, 0, 64, 87
1, 326343, Note_on_c, 0, 77, 41
1, 326347, Control_c, 0, 64, 88
1, 326350, Note_on_c, 0, 68, 32
1, 326359, Note_on_c, 0, 70, 28
1, 326359, Note_on_c, 0, 80, 39
1, 326362, Control_c, 0, 64, 90
1, 326377, Control_c, 0, 64, 91
1, 326392, Control_c, 0, 64, 92
1, 326407, Control_c, 0, 64, 92
1, 326407, Control_c, 0, 67, 117
1, 326437, Control_c, 0, 64, 93
1, 326556, Note_off_c, 0, 62, 53
1, 326567, Note_off_c, 0, 80, 33
1, 326580, Note_off_c, 0, 68, 29
1, 326583, Note_on_c, 0, 63, 47
1, 326597, Note_off_c, 0, 70, 27
1, 326618, Note_off_c, 0, 63, 63
1, 326623, Note_off_c, 0, 77, 30
1, 326638, Note_on_c, 0, 62, 46
1, 326808, Control_c, 0, 64, 92
1, 326822, Control_c, 0, 64, 92
1, 326837, Control_c, 0, 64, 91
1, 326852, Control_c, 0, 64, 91
1, 326866, Control_c, 0, 64, 90
1, 326881, Control_c, 0, 64, 88
1, 326896, Note_on_c, 0, 80, 49
1, 326896, Control_c, 0, 64, 82
1, 326906, Note_on_c, 0, 61, 45
1, 326909, Note_on_c, 0, 70, 33
1, 326909, Note_on_c, 0, 77, 40
1, 326911, Note_on_c, 0, 68, 31
1, 326911, Control_c, 0, 64, 74
1, 326925, Note_off_c, 0, 62, 50
1, 326926, Control_c, 0, 64, 64
1, 326940, Control_c, 0, 64, 0
1, 326986, Control_c, 0, 64, 37
1, 327001, Control_c, 0, 64, 50
1, 327015, Control_c, 0, 64, 57
1, 327030, Control_c, 0, 64, 61
1, 327045, Control_c, 0, 64, 63
1, 327060, Control_c, 0, 64, 65
1, 327074, Control_c, 0, 64, 67
1, 327097, Control_c, 0, 64, 69
1, 327097, Control_c, 0, 67, 116
1, 327112, Control_c, 0, 64, 71
1, 327127, Control_c, 0, 64, 72
1, 327137, Note_on_c, 0, 62, 62
1, 327141, Control_c, 0, 64, 74
1, 327156, Control_c, 0, 64, 77
1, 327156, Control_c, 0, 67, 116
1, 327171, Control_c, 0, 64, 79
1, 327186, Control_c, 0, 64, 81
1, 327201, Control_c, 0, 64, 82
1, 327206, Note_off_c, 0, 80, 29
1, 327215, Control_c, 0, 64, 84
1, 327225, Note_off_c, 0, 68, 40
1, 327230, Control_c, 0, 64, 84
1, 327230, Control_c, 0, 67, 115
1, 327245, Note_off_c, 0, 70, 41
1, 327257, Note_off_c, 0, 77, 31
1, 327319, Control_c, 0, 64, 83
1, 327334, Control_c, 0, 64, 79
1, 327349, Control_c, 0, 64, 73
1, 327355, Note_on_c, 0, 65, 57
1, 327357, Note_off_c, 0, 62, 56
1, 327364, Control_c, 0, 64, 62
1, 327367, Note_on_c, 0, 80, 53
1, 327367, Note_on_c, 0, 70, 34
1, 327379, Control_c, 0, 64, 19
1, 327380, Note_on_c, 0, 68, 27
1, 327381, Note_on_c, 0, 77, 49
1, 327393, Control_c, 0, 64, 45
1, 327408, Control_c, 0, 64, 55
1, 327424, Control_c, 0, 64, 60
1, 327438, Control_c, 0, 64, 63
1, 327453, Control_c, 0, 64, 65
1, 327468, Control_c, 0, 64, 67
1, 327468, Control_c, 0, 67, 115
1, 327483, Control_c, 0, 64, 71
1, 327489, Note_off_c, 0, 70, 35
1, 327498, Control_c, 0, 64, 72
1, 327513, Control_c, 0, 64, 74
1, 327513, Control_c, 0, 67, 114
1, 327528, Control_c, 0, 64, 75
1, 327528, Control_c, 0, 67, 114
1, 327542, Control_c, 0, 64, 77
1, 327542, Control_c, 0, 67, 113
1, 327557, Control_c, 0, 64, 80
1, 327566, Note_off_c, 0, 65, 61
1, 327572, Control_c, 0, 64, 81
1, 327576, Note_on_c, 0, 62, 63
1, 327587, Control_c, 0, 64, 83
1, 327587, Control_c, 0, 67, 113
1, 327602, Control_c, 0, 64, 85
1, 327617, Control_c, 0, 64, 86
1, 327617, Control_c, 0, 67, 112
1, 327631, Control_c, 0, 64, 87
1, 327632, Note_off_c, 0, 61, 37
1, 327641, Note_off_c, 0, 80, 27
1, 327644, Note_off_c, 0, 62, 60
1, 327764, Control_c, 0, 64, 87
1, 327779, Control_c, 0, 64, 86
1, 327802, Note_off_c, 0, 68, 37
1, 327805, Note_off_c, 0, 77, 23
1, 327809, Control_c, 0, 64, 85
1, 327815, Note_on_c, 0, 62, 46
1, 327824, Control_c, 0, 64, 84
1, 327846, Control_c, 0, 64, 83
1, 327861, Control_c, 0, 64, 80
1, 327876, Control_c, 0, 64, 76
1, 327890, Control_c, 0, 64, 69
1, 327905, Control_c, 0, 64, 53
1, 327920, Control_c, 0, 64, 0
1, 328023, Control_c, 0, 67, 112
1, 328038, Control_c, 0, 64, 36
1, 328038, Control_c, 0, 67, 111
1, 328053, Control_c, 0, 64, 54
1, 328053, Control_c, 0, 67, 111
1, 328068, Control_c, 0, 64, 61
1, 328068, Control_c, 0, 67, 110
1, 328083, Control_c, 0, 64, 63
1, 328083, Control_c, 0, 67, 110
1, 328097, Control_c, 0, 64, 65
1, 328097, Control_c, 0, 67, 109
1, 328112, Control_c, 0, 64, 66
1, 328127, Control_c, 0, 64, 68
1, 328142, Control_c, 0, 64, 70
1, 328142, Control_c, 0, 67, 109
1, 328157, Control_c, 0, 64, 71
1, 328157, Control_c, 0, 67, 108
1, 328171, Control_c, 0, 64, 73
1, 328186, Control_c, 0, 64, 74
1, 328201, Control_c, 0, 64, 76
1, 328217, Control_c, 0, 64, 77
1, 328217, Control_c, 0, 67, 107
1, 328232, Control_c, 0, 64, 78
1, 328247, Control_c, 0, 64, 80
1, 328247, Control_c, 0, 67, 107
1, 328261, Control_c, 0, 64, 82
1, 328276, Control_c, 0, 64, 84
1, 328276, Control_c, 0, 67, 106
1, 328291, Control_c, 0, 64, 85
1, 328291, Control_c, 0, 67, 106
1, 328306, Control_c, 0, 64, 86
1, 328306, Control_c, 0, 67, 105
1, 328320, Control_c, 0, 64, 87
1, 328320, Control_c, 0, 67, 104
1, 328326, Note_on_c, 0, 79, 56
1, 328335, Note_on_c, 0, 67, 42
1, 328335, Control_c, 0, 64, 89
1, 328335, Control_c, 0, 67, 102
1, 328341, Note_on_c, 0, 76, 46
1, 328350, Control_c, 0, 64, 91
1, 328350, Control_c, 0, 67, 101
1, 328365, Control_c, 0, 64, 93
1, 328365, Control_c, 0, 67, 99
1, 328380, Control_c, 0, 64, 93
1, 328380, Control_c, 0, 67, 97
1, 328395, Control_c, 0, 64, 94
1, 328395, Control_c, 0, 67, 96
1, 328410, Control_c, 0, 64, 95
1, 328410, Control_c, 0, 67, 94
1, 328425, Control_c, 0, 64, 96
1, 328425, Control_c, 0, 67, 91
1, 328439, Control_c, 0, 64, 96
1, 328439, Control_c, 0, 67, 88
1, 328454, Control_c, 0, 64, 97
1, 328454, Control_c, 0, 67, 85
1, 328468, Control_c, 0, 67, 83
1, 328483, Control_c, 0, 67, 81
1, 328492, Note_off_c, 0, 76, 57
1, 328498, Control_c, 0, 64, 97
1, 328498, Control_c, 0, 67, 80
1, 328512, Control_c, 0, 67, 78
1, 328527, Control_c, 0, 64, 98
1, 328527, Control_c, 0, 67, 76
1, 328542, Control_c, 0, 67, 73
1, 328557, Control_c, 0, 67, 68
1, 328565, Note_off_c, 0, 62, 56
1, 328570, Note_on_c, 0, 61, 61
1, 328572, Control_c, 0, 67, 62
1, 328594, Control_c, 0, 67, 57
1, 328595, Note_off_c, 0, 67, 39
1, 328609, Control_c, 0, 67, 54
1, 328624, Control_c, 0, 67, 52
1, 328631, Note_off_c, 0, 79, 36
1, 328638, Control_c, 0, 67, 49
1, 328648, Note_off_c, 0, 61, 58
1, 328653, Control_c, 0, 67, 46
1, 328668, Control_c, 0, 67, 45
1, 328683, Control_c, 0, 67, 43
1, 328698, Control_c, 0, 67, 42
1, 328712, Control_c, 0, 67, 40
1, 328727, Control_c, 0, 67, 39
1, 328742, Control_c, 0, 67, 38
1, 328787, Control_c, 0, 64, 96
1, 328801, Control_c, 0, 64, 95
1, 328816, Control_c, 0, 64, 92
1, 328816, Control_c, 0, 67, 37
1, 328827, Note_on_c, 0, 81, 67
1, 328831, Control_c, 0, 64, 86
1, 328833, Note_on_c, 0, 76, 54
1, 328836, Note_on_c, 0, 61, 47
1, 328840, Note_on_c, 0, 69, 44
1, 328845, Control_c, 0, 64, 76
1, 328860, Control_c, 0, 64, 65
1, 328875, Control_c, 0, 64, 0
1, 328905, Control_c, 0, 64, 31
1, 328905, Control_c, 0, 67, 37
1, 328920, Control_c, 0, 64, 44
1, 328935, Control_c, 0, 64, 52
1, 328935, Control_c, 0, 67, 36
1, 328949, Control_c, 0, 64, 58
1, 328964, Control_c, 0, 64, 62
1, 328964, Control_c, 0, 67, 36
1, 328979, Control_c, 0, 64, 65
1, 328979, Control_c, 0, 67, 34
1, 328994, Control_c, 0, 64, 67
1, 328994, Control_c, 0, 67, 32
1, 329009, Control_c, 0, 64, 69
1, 329009, Control_c, 0, 67, 30
1, 329024, Control_c, 0, 64, 71
1, 329024, Control_c, 0, 67, 28
1, 329039, Control_c, 0, 64, 73
1, 329039, Control_c, 0, 67, 27
1, 329054, Control_c, 0, 64, 75
1, 329054, Control_c, 0, 67, 25
1, 329069, Control_c, 0, 64, 77
1, 329069, Control_c, 0, 67, 23
1, 329084, Control_c, 0, 64, 79
1, 329084, Control_c, 0, 67, 21
1, 329098, Control_c, 0, 64, 81
1, 329098, Control_c, 0, 67, 20
1, 329113, Control_c, 0, 64, 83
1, 329113, Control_c, 0, 67, 18
1, 329128, Control_c, 0, 64, 85
1, 329128, Control_c, 0, 67, 16
1, 329143, Control_c, 0, 64, 87
1, 329143, Control_c, 0, 67, 14
1, 329150, Note_off_c, 0, 81, 54
1, 329158, Control_c, 0, 64, 88
1, 329158, Control_c, 0, 67, 12
1, 329173, Control_c, 0, 64, 91
1, 329173, Control_c, 0, 67, 10
1, 329188, Control_c, 0, 64, 93
1, 329188, Control_c, 0, 67, 8
1, 329193, Note_off_c, 0, 69, 38
1, 329197, Note_off_c, 0, 76, 23
1, 329203, Control_c, 0, 64, 96
1, 329203, Control_c, 0, 67, 0
1, 329217, Control_c, 0, 64, 97
1, 329232, Control_c, 0, 64, 98
1, 329247, Control_c, 0, 64, 99
1, 329261, Control_c, 0, 64, 100
1, 329276, Control_c, 0, 64, 103
1, 329291, Control_c, 0, 64, 106
1, 329306, Control_c, 0, 64, 107
1, 329321, Control_c, 0, 64, 108
1, 329343, Control_c, 0, 64, 108
1, 329355, Note_on_c, 0, 82, 75
1, 329358, Control_c, 0, 64, 110
1, 329368, Note_on_c, 0, 76, 55
1, 329370, Note_on_c, 0, 70, 56
1, 329373, Control_c, 0, 64, 112
1, 329388, Control_c, 0, 64, 113
1, 329403, Control_c, 0, 64, 114
1, 329417, Control_c, 0, 64, 115
1, 329429, Note_off_c, 0, 70, 53
1, 329432, Control_c, 0, 64, 118
1, 329441, Note_off_c, 0, 76, 46
1, 329447, Control_c, 0, 64, 122
1, 329461, Control_c, 0, 64, 127
1, 329483, Note_off_c, 0, 82, 55
1, 329802, Control_c, 0, 64, 117
1, 329818, Control_c, 0, 64, 102
1, 329832, Control_c, 0, 64, 88
1, 329835, Note_on_c, 0, 82, 75
1, 329838, Note_on_c, 0, 70, 58
1, 329839, Note_on_c, 0, 76, 61
1, 329841, Note_on_c, 0, 73, 58
1, 329847, Control_c, 0, 64, 73
1, 329862, Control_c, 0, 64, 65
1, 329877, Control_c, 0, 64, 66
1, 329891, Control_c, 0, 64, 66
1, 329906, Control_c, 0, 64, 67
1, 329921, Control_c, 0, 64, 69
1, 329936, Control_c, 0, 64, 72
1, 329951, Control_c, 0, 64, 74
1, 329966, Control_c, 0, 64, 77
1, 329981, Control_c, 0, 64, 79
1, 329996, Control_c, 0, 64, 82
1, 330011, Control_c, 0, 64, 85
1, 330026, Control_c, 0, 64, 87
1, 330040, Control_c, 0, 64, 90
1, 330055, Control_c, 0, 64, 93
1, 330070, Control_c, 0, 64, 95
1, 330092, Control_c, 0, 64, 99
1, 330107, Control_c, 0, 64, 103
1, 330122, Control_c, 0, 64, 108
1, 330137, Control_c, 0, 64, 114
1, 330152, Control_c, 0, 64, 127
1, 330194, Note_off_c, 0, 61, 60
1, 330322, Note_on_c, 0, 58, 70
1, 330359, Control_c, 0, 64, 98
1, 330374, Control_c, 0, 64, 77
1, 330389, Control_c, 0, 64, 67
1, 330404, Control_c, 0, 64, 66
1, 330448, Control_c, 0, 64, 67
1, 330463, Control_c, 0, 64, 69
1, 330478, Control_c, 0, 64, 71
1, 330492, Control_c, 0, 64, 74
1, 330507, Control_c, 0, 64, 77
1, 330522, Control_c, 0, 64, 80
1, 330537, Control_c, 0, 64, 84
1, 330552, Control_c, 0, 64, 88
1, 330566, Control_c, 0, 64, 93
1, 330581, Control_c, 0, 64, 97
1, 330596, Control_c, 0, 64, 102
1, 330612, Control_c, 0, 64, 106
1, 330627, Control_c, 0, 64, 109
1, 330642, Control_c, 0, 64, 111
1, 330656, Control_c, 0, 64, 112
1, 330671, Control_c, 0, 64, 112
1, 330771, Note_off_c, 0, 58, 36
1, 330804, Control_c, 0, 64, 112
1, 330819, Control_c, 0, 64, 111
1, 330841, Control_c, 0, 64, 110
1, 330856, Control_c, 0, 64, 108
1, 330871, Control_c, 0, 64, 105
1, 330872, Note_on_c, 0, 57, 66
1, 330886, Control_c, 0, 64, 98
1, 330901, Control_c, 0, 64, 88
1, 330915, Control_c, 0, 64, 77
1, 330930, Control_c, 0, 64, 67
1, 330945, Control_c, 0, 64, 65
1, 330960, Control_c, 0, 64, 67
1, 330975, Control_c, 0, 64, 67
1, 330989, Control_c, 0, 64, 68
1, 331004, Control_c, 0, 64, 70
1, 331019, Control_c, 0, 64, 72
1, 331033, Control_c, 0, 64, 75
1, 331048, Control_c, 0, 64, 77
1, 331063, Control_c, 0, 64, 79
1, 331078, Control_c, 0, 64, 81
1, 331093, Control_c, 0, 64, 83
1, 331108, Control_c, 0, 64, 85
1, 331123, Control_c, 0, 64, 88
1, 331137, Control_c, 0, 64, 91
1, 331152, Control_c, 0, 64, 94
1, 331167, Control_c, 0, 64, 96
1, 331182, Control_c, 0, 64, 99
1, 331197, Control_c, 0, 64, 100
1, 331212, Control_c, 0, 64, 102
1, 331227, Control_c, 0, 64, 103
1, 331241, Control_c, 0, 64, 103
1, 331283, Note_off_c, 0, 57, 47
1, 331389, Control_c, 0, 64, 103
1, 331405, Control_c, 0, 64, 100
1, 331420, Control_c, 0, 64, 97
1, 331435, Control_c, 0, 64, 91
1, 331449, Note_on_c, 0, 55, 69
1, 331450, Control_c, 0, 64, 84
1, 331464, Control_c, 0, 64, 73
1, 331479, Control_c, 0, 64, 63
1, 331494, Control_c, 0, 64, 52
1, 331509, Control_c, 0, 64, 59
1, 331524, Control_c, 0, 64, 63
1, 331538, Control_c, 0, 64, 64
1, 331553, Control_c, 0, 64, 65
1, 331568, Control_c, 0, 64, 67
1, 331591, Control_c, 0, 64, 69
1, 331605, Control_c, 0, 64, 72
1, 331620, Control_c, 0, 64, 75
1, 331635, Control_c, 0, 64, 77
1, 331650, Control_c, 0, 64, 79
1, 331664, Control_c, 0, 64, 82
1, 331679, Control_c, 0, 64, 85
1, 331694, Control_c, 0, 64, 88
1, 331709, Control_c, 0, 64, 90
1, 331724, Control_c, 0, 64, 91
1, 331738, Control_c, 0, 64, 92
1, 331753, Control_c, 0, 64, 95
1, 331768, Control_c, 0, 64, 98
1, 331783, Control_c, 0, 64, 101
1, 331798, Control_c, 0, 64, 104
1, 331812, Control_c, 0, 64, 107
1, 331827, Control_c, 0, 64, 109
1, 331834, Note_off_c, 0, 55, 56
1, 331842, Control_c, 0, 64, 110
1, 331856, Control_c, 0, 64, 111
1, 331871, Control_c, 0, 64, 113
1, 331886, Control_c, 0, 64, 114
1, 331930, Control_c, 0, 64, 115
1, 331957, Note_off_c, 0, 73, 56
1, 332020, Control_c, 0, 64, 114
1, 332108, Note_off_c, 0, 70, 32
1, 332109, Note_off_c, 0, 76, 37
1, 332153, Control_c, 0, 64, 114
1, 332168, Control_c, 0, 64, 113
1, 332182, Control_c, 0, 64, 111
1, 332199, Control_c, 0, 64, 110
1, 332214, Control_c, 0, 64, 107
1, 332228, Control_c, 0, 64, 104
1, 332243, Note_on_c, 0, 54, 59
1, 332243, Control_c, 0, 64, 102
1, 332255, Note_on_c, 0, 42, 50
1, 332258, Control_c, 0, 64, 100
1, 332272, Control_c, 0, 64, 97
1, 332287, Control_c, 0, 64, 95
1, 332302, Control_c, 0, 64, 91
1, 332317, Control_c, 0, 64, 86
1, 332339, Control_c, 0, 64, 80
1, 332354, Control_c, 0, 64, 72
1, 332369, Control_c, 0, 64, 62
1, 332383, Control_c, 0, 64, 0
1, 332473, Control_c, 0, 64, 14
1, 332487, Control_c, 0, 64, 28
1, 332502, Control_c, 0, 64, 40
1, 332517, Control_c, 0, 64, 49
1, 332532, Control_c, 0, 64, 54
1, 332547, Control_c, 0, 64, 58
1, 332561, Control_c, 0, 64, 61
1, 332576, Control_c, 0, 64, 63
1, 332591, Control_c, 0, 64, 65
1, 332605, Control_c, 0, 64, 67
1, 332620, Control_c, 0, 64, 68
1, 332635, Control_c, 0, 64, 70
1, 332650, Control_c, 0, 64, 71
1, 332665, Control_c, 0, 64, 74
1, 332679, Control_c, 0, 64, 76
1, 332694, Control_c, 0, 64, 78
1, 332709, Control_c, 0, 64, 80
1, 332724, Control_c, 0, 64, 82
1, 332739, Control_c, 0, 64, 84
1, 332753, Control_c, 0, 64, 86
1, 332768, Control_c, 0, 64, 88
1, 332783, Control_c, 0, 64, 89
1, 332798, Control_c, 0, 64, 92
1, 332813, Control_c, 0, 64, 94
1, 332828, Control_c, 0, 64, 96
1, 332842, Control_c, 0, 64, 98
1, 332857, Control_c, 0, 64, 100
1, 332872, Control_c, 0, 64, 101
1, 332887, Control_c, 0, 64, 102
1, 332902, Control_c, 0, 64, 103
1, 332903, Note_off_c, 0, 42, 34
1, 332917, Control_c, 0, 64, 104
1, 332932, Control_c, 0, 64, 105
1, 332935, Note_on_c, 0, 76, 47
1, 332949, Note_on_c, 0, 70, 38
1, 332961, Control_c, 0, 64, 106
1, 332976, Control_c, 0, 64, 107
1, 332988, Note_off_c, 0, 82, 35
1, 332991, Control_c, 0, 64, 108
1, 333006, Control_c, 0, 64, 109
1, 333021, Control_c, 0, 64, 109
1, 333036, Control_c, 0, 64, 110
1, 333051, Control_c, 0, 64, 110
1, 333088, Control_c, 0, 64, 111
1, 333103, Control_c, 0, 64, 111
1, 333147, Control_c, 0, 64, 112
1, 333206, Control_c, 0, 64, 113
1, 333236, Control_c, 0, 64, 113
1, 333251, Control_c, 0, 64, 114
1, 333262, Note_off_c, 0, 54, 56
1, 333275, Note_off_c, 0, 70, 44
1, 333287, Note_on_c, 0, 58, 54
1, 333296, Control_c, 0, 64, 114
1, 333310, Control_c, 0, 64, 115
1, 333325, Control_c, 0, 64, 115
1, 333334, Note_off_c, 0, 58, 52
1, 333340, Control_c, 0, 64, 116
1, 333355, Control_c, 0, 64, 116
1, 333428, Control_c, 0, 64, 117
1, 333488, Control_c, 0, 64, 117
1, 333517, Control_c, 0, 64, 118
1, 333562, Control_c, 0, 64, 118
1, 333762, Note_on_c, 0, 85, 60
1, 333773, Note_on_c, 0, 79, 42
1, 333782, Note_on_c, 0, 73, 36
1, 333786, Note_on_c, 0, 58, 38
1, 334237, Control_c, 0, 64, 119
1, 334645, Control_c, 0, 64, 119
1, 334793, Control_c, 0, 64, 120
1, 334881, Control_c, 0, 64, 121
1, 334896, Control_c, 0, 64, 122
1, 334911, Control_c, 0, 64, 123
1, 334941, Control_c, 0, 64, 124
1, 335030, Control_c, 0, 64, 126
1, 335193, Control_c, 0, 64, 127
1, 335615, Control_c, 0, 67, 8
1, 335629, Control_c, 0, 67, 12
1, 335644, Control_c, 0, 67, 15
1, 335659, Control_c, 0, 67, 16
1, 335674, Control_c, 0, 67, 18
1, 335689, Control_c, 0, 67, 20
1, 335703, Control_c, 0, 67, 22
1, 335718, Control_c, 0, 67, 24
1, 335733, Control_c, 0, 67, 26
1, 335748, Control_c, 0, 67, 30
1, 335763, Control_c, 0, 67, 34
1, 335777, Control_c, 0, 67, 39
1, 335792, Control_c, 0, 67, 42
1, 335807, Control_c, 0, 67, 45
1, 335821, Control_c, 0, 67, 48
1, 335836, Control_c, 0, 67, 51
1, 335851, Control_c, 0, 67, 55
1, 335866, Control_c, 0, 67, 58
1, 335868, Note_off_c, 0, 73, 44
1, 335881, Control_c, 0, 67, 61
1, 335895, Control_c, 0, 67, 64
1, 335910, Control_c, 0, 67, 68
1, 335920, Note_off_c, 0, 58, 42
1, 335925, Control_c, 0, 67, 72
1, 335936, Note_off_c, 0, 76, 39
1, 335940, Control_c, 0, 67, 76
1, 335956, Control_c, 0, 67, 80
1, 335970, Control_c, 0, 67, 84
1, 335985, Control_c, 0, 67, 88
1, 336000, Control_c, 0, 67, 92
1, 336015, Control_c, 0, 67, 96
1, 336024, Note_off_c, 0, 79, 41
1, 336029, Control_c, 0, 67, 100
1, 336044, Control_c, 0, 67, 104
1, 336059, Control_c, 0, 67, 107
1, 336082, Control_c, 0, 67, 110
1, 336092, Note_off_c, 0, 85, 35
1, 336097, Control_c, 0, 67, 113
1, 336111, Control_c, 0, 67, 115
1, 336126, Control_c, 0, 67, 117
1, 336141, Control_c, 0, 67, 118
1, 336155, Control_c, 0, 67, 119
1, 336170, Control_c, 0, 67, 120
1, 336185, Control_c, 0, 67, 121
1, 336201, Control_c, 0, 67, 121
1, 336216, Control_c, 0, 67, 122
1, 336231, Control_c, 0, 67, 123
1, 336246, Control_c, 0, 67, 123
1, 336275, Control_c, 0, 67, 124
1, 336290, Control_c, 0, 67, 125
1, 336305, Control_c, 0, 67, 126
1, 336320, Control_c, 0, 67, 127
1, 336512, Control_c, 0, 64, 126
1, 336527, Control_c, 0, 64, 124
1, 336542, Control_c, 0, 64, 122
1, 336557, Control_c, 0, 64, 120
1, 336571, Control_c, 0, 64, 119
1, 336586, Control_c, 0, 64, 117
1, 336601, Control_c, 0, 64, 116
1, 336616, Control_c, 0, 64, 114
1, 336631, Control_c, 0, 64, 113
1, 336645, Control_c, 0, 64, 111
1, 336660, Control_c, 0, 64, 109
1, 336675, Control_c, 0, 64, 108
1, 336690, Control_c, 0, 64, 106
1, 336705, Control_c, 0, 64, 103
1, 336719, Control_c, 0, 64, 101
1, 336734, Control_c, 0, 64, 97
1, 336749, Control_c, 0, 64, 95
1, 336756, Note_on_c, 0, 59, 31
1, 336764, Note_on_c, 0, 47, 31
1, 336764, Control_c, 0, 64, 91
1, 336778, Control_c, 0, 64, 84
1, 336793, Control_c, 0, 64, 74
1, 336808, Control_c, 0, 64, 62
1, 336831, Control_c, 0, 64, 0
1, 336875, Control_c, 0, 64, 23
1, 336890, Control_c, 0, 64, 41
1, 336905, Control_c, 0, 64, 48
1, 336905, Control_c, 0, 67, 127
1, 336920, Control_c, 0, 64, 53
1, 336934, Control_c, 0, 64, 59
1, 336934, Control_c, 0, 67, 126
1, 336949, Control_c, 0, 64, 63
1, 336964, Control_c, 0, 64, 65
1, 336978, Control_c, 0, 64, 67
1, 336978, Control_c, 0, 67, 126
1, 336994, Control_c, 0, 64, 68
1, 337009, Control_c, 0, 64, 70
1, 337009, Control_c, 0, 67, 125
1, 337024, Control_c, 0, 64, 72
1, 337024, Control_c, 0, 67, 124
1, 337039, Control_c, 0, 64, 74
1, 337039, Control_c, 0, 67, 123
1, 337054, Control_c, 0, 64, 76
1, 337054, Control_c, 0, 67, 122
1, 337069, Control_c, 0, 64, 78
1, 337069, Control_c, 0, 67, 122
1, 337083, Control_c, 0, 64, 81
1, 337083, Control_c, 0, 67, 121
1, 337098, Control_c, 0, 64, 83
1, 337098, Control_c, 0, 67, 120
1, 337113, Control_c, 0, 64, 86
1, 337113, Control_c, 0, 67, 119
1, 337128, Control_c, 0, 64, 89
1, 337128, Control_c, 0, 67, 117
1, 337143, Control_c, 0, 64, 91
1, 337143, Control_c, 0, 67, 114
1, 337147, Note_off_c, 0, 59, 60
1, 337157, Control_c, 0, 64, 93
1, 337157, Control_c, 0, 67, 113
1, 337172, Control_c, 0, 64, 95
1, 337172, Control_c, 0, 67, 112
1, 337187, Control_c, 0, 64, 97
1, 337187, Control_c, 0, 67, 111
1, 337198, Note_on_c, 0, 79, 49
1, 337201, Control_c, 0, 64, 99
1, 337201, Control_c, 0, 67, 110
1, 337216, Control_c, 0, 64, 101
1, 337216, Control_c, 0, 67, 107
1, 337231, Control_c, 0, 64, 102
1, 337231, Control_c, 0, 67, 105
1, 337246, Control_c, 0, 67, 101
1, 337261, Control_c, 0, 67, 98
1, 337275, Control_c, 0, 67, 94
1, 337290, Control_c, 0, 67, 91
1, 337305, Control_c, 0, 67, 88
1, 337320, Control_c, 0, 67, 87
1, 337335, Control_c, 0, 67, 86
1, 337350, Control_c, 0, 67, 85
1, 337365, Control_c, 0, 64, 101
1, 337365, Note_off_c, 0, 47, 41
1, 337379, Control_c, 0, 64, 99
1, 337394, Control_c, 0, 64, 98
1, 337409, Control_c, 0, 64, 97
1, 337424, Control_c, 0, 64, 95
1, 337424, Note_on_c, 0, 61, 56
1, 337427, Note_on_c, 0, 49, 55
1, 337439, Control_c, 0, 64, 91
1, 337454, Control_c, 0, 64, 82
1, 337468, Control_c, 0, 64, 72
1, 337483, Control_c, 0, 64, 64
1, 337498, Control_c, 0, 64, 62
1, 337513, Control_c, 0, 64, 64
1, 337513, Control_c, 0, 67, 85
1, 337528, Control_c, 0, 64, 65
1, 337542, Control_c, 0, 64, 66
1, 337542, Control_c, 0, 67, 84
1, 337550, Note_off_c, 0, 79, 58
1, 337557, Control_c, 0, 64, 67
1, 337557, Control_c, 0, 67, 83
1, 337579, Control_c, 0, 64, 70
1, 337579, Control_c, 0, 67, 81
1, 337594, Control_c, 0, 64, 74
1, 337594, Control_c, 0, 67, 78
1, 337609, Control_c, 0, 64, 77
1, 337609, Control_c, 0, 67, 74
1, 337624, Control_c, 0, 64, 80
1, 337624, Control_c, 0, 67, 68
1, 337639, Control_c, 0, 64, 84
1, 337639, Control_c, 0, 67, 62
1, 337654, Note_on_c, 0, 79, 76
1, 337654, Control_c, 0, 64, 87
1, 337654, Control_c, 0, 67, 57
1, 337669, Control_c, 0, 64, 91
1, 337669, Control_c, 0, 67, 53
1, 337683, Control_c, 0, 64, 94
1, 337683, Control_c, 0, 67, 49
1, 337698, Control_c, 0, 64, 96
1, 337698, Control_c, 0, 67, 45
1, 337713, Control_c, 0, 64, 99
1, 337713, Control_c, 0, 67, 39
1, 337728, Control_c, 0, 64, 101
1, 337728, Control_c, 0, 67, 34
1, 337729, Note_off_c, 0, 61, 62
1, 337743, Control_c, 0, 64, 103
1, 337743, Control_c, 0, 67, 29
1, 337757, Control_c, 0, 64, 104
1, 337757, Control_c, 0, 67, 24
1, 337772, Control_c, 0, 67, 18
1, 337787, Control_c, 0, 67, 10
1, 337792, Note_off_c, 0, 49, 60
1, 337803, Control_c, 0, 67, 0
1, 337847, Control_c, 0, 64, 104
1, 337862, Control_c, 0, 64, 99
1, 337866, Note_on_c, 0, 50, 67
1, 337873, Note_on_c, 0, 62, 63
1, 337877, Control_c, 0, 64, 91
1, 337891, Control_c, 0, 64, 79
1, 337906, Control_c, 0, 64, 67
1, 337921, Control_c, 0, 64, 28
1, 337936, Control_c, 0, 64, 45
1, 337951, Control_c, 0, 64, 56
1, 337966, Control_c, 0, 64, 60
1, 337980, Control_c, 0, 64, 62
1, 337995, Control_c, 0, 64, 64
1, 338010, Control_c, 0, 64, 67
1, 338024, Control_c, 0, 64, 71
1, 338039, Control_c, 0, 64, 74
1, 338054, Control_c, 0, 64, 76
1, 338058, Note_off_c, 0, 79, 61
1, 338069, Control_c, 0, 64, 79
1, 338084, Control_c, 0, 64, 82
1, 338098, Control_c, 0, 64, 86
1, 338113, Control_c, 0, 64, 90
1, 338114, Note_on_c, 0, 79, 67
1, 338120, Note_off_c, 0, 62, 57
1, 338128, Control_c, 0, 64, 93
1, 338143, Control_c, 0, 64, 96
1, 338158, Control_c, 0, 64, 100
1, 338163, Note_off_c, 0, 50, 65
1, 338172, Control_c, 0, 64, 103
1, 338187, Control_c, 0, 64, 106
1, 338202, Control_c, 0, 64, 108
1, 338217, Control_c, 0, 64, 108
1, 338306, Control_c, 0, 64, 108
1, 338328, Control_c, 0, 64, 104
1, 338343, Control_c, 0, 64, 97
1, 338347, Note_on_c, 0, 58, 56
1, 338350, Note_on_c, 0, 46, 56
1, 338357, Control_c, 0, 64, 84
1, 338372, Control_c, 0, 64, 67
1, 338387, Control_c, 0, 64, 0
1, 338491, Control_c, 0, 64, 43
1, 338506, Control_c, 0, 64, 59
1, 338521, Control_c, 0, 64, 63
1, 338536, Control_c, 0, 64, 64
1, 338536, Control_c, 0, 67, 9
1, 338542, Note_off_c, 0, 79, 55
1, 338550, Control_c, 0, 64, 65
1, 338550, Control_c, 0, 67, 11
1, 338565, Control_c, 0, 64, 68
1, 338565, Control_c, 0, 67, 14
1, 338580, Control_c, 0, 64, 71
1, 338580, Control_c, 0, 67, 19
1, 338585, Note_off_c, 0, 46, 63
1, 338596, Control_c, 0, 64, 74
1, 338596, Control_c, 0, 67, 24
1, 338611, Control_c, 0, 64, 75
1, 338611, Control_c, 0, 67, 28
1, 338625, Control_c, 0, 64, 77
1, 338625, Control_c, 0, 67, 30
1, 338640, Note_off_c, 0, 58, 62
1, 338640, Control_c, 0, 64, 78
1, 338640, Control_c, 0, 67, 34
1, 338655, Control_c, 0, 64, 80
1, 338655, Control_c, 0, 67, 38
1, 338660, Note_on_c, 0, 79, 57
1, 338670, Control_c, 0, 64, 83
1, 338670, Control_c, 0, 67, 42
1, 338685, Control_c, 0, 64, 85
1, 338685, Control_c, 0, 67, 46
1, 338700, Control_c, 0, 64, 87
1, 338700, Control_c, 0, 67, 48
1, 338715, Control_c, 0, 64, 89
1, 338715, Control_c, 0, 67, 50
1, 338729, Control_c, 0, 64, 90
1, 338729, Control_c, 0, 67, 52
1, 338744, Control_c, 0, 64, 92
1, 338744, Control_c, 0, 67, 54
1, 338759, Control_c, 0, 64, 92
1, 338759, Control_c, 0, 67, 55
1, 338774, Control_c, 0, 64, 93
1, 338788, Control_c, 0, 64, 94
1, 338803, Control_c, 0, 64, 95
1, 338818, Control_c, 0, 64, 96
1, 338833, Control_c, 0, 64, 97
1, 338862, Control_c, 0, 67, 55
1, 338877, Control_c, 0, 64, 98
1, 338877, Control_c, 0, 67, 54
1, 338892, Control_c, 0, 64, 99
1, 338892, Control_c, 0, 67, 54
1, 338907, Control_c, 0, 64, 100
1, 338921, Control_c, 0, 67, 53
1, 338936, Control_c, 0, 67, 53
1, 338950, Control_c, 0, 67, 52
1, 338965, Control_c, 0, 64, 100
1, 338965, Control_c, 0, 67, 52
1, 338980, Control_c, 0, 64, 101
1, 339010, Control_c, 0, 67, 51
1, 339025, Control_c, 0, 67, 50
1, 339039, Control_c, 0, 64, 102
1, 339039, Control_c, 0, 67, 49
1, 339054, Control_c, 0, 64, 102
1, 339054, Control_c, 0, 67, 48
1, 339076, Control_c, 0, 64, 103
1, 339097, Note_on_c, 0, 61, 33
1, 339102, Note_off_c, 0, 79, 56
1, 339106, Control_c, 0, 64, 104
1, 339106, Control_c, 0, 67, 48
1, 339120, Control_c, 0, 64, 105
1, 339120, Control_c, 0, 67, 47
1, 339125, Note_on_c, 0, 91, 68
1, 339135, Control_c, 0, 64, 106
1, 339135, Control_c, 0, 67, 46
1, 339150, Control_c, 0, 64, 106
1, 339150, Control_c, 0, 67, 44
1, 339159, Note_on_c, 0, 88, 32
1, 339165, Control_c, 0, 64, 108
1, 339165, Control_c, 0, 67, 44
1, 339180, Control_c, 0, 64, 108
1, 339180, Control_c, 0, 67, 43
1, 339195, Control_c, 0, 64, 109
1, 339195, Control_c, 0, 67, 42
1, 339210, Control_c, 0, 64, 109
1, 339210, Control_c, 0, 67, 40
1, 339225, Control_c, 0, 64, 110
1, 339225, Control_c, 0, 67, 38
1, 339240, Control_c, 0, 64, 110
1, 339240, Control_c, 0, 67, 34
1, 339254, Control_c, 0, 64, 111
1, 339254, Control_c, 0, 67, 31
1, 339269, Control_c, 0, 64, 112
1, 339269, Control_c, 0, 67, 28
1, 339284, Control_c, 0, 64, 113
1, 339284, Control_c, 0, 67, 25
1, 339299, Control_c, 0, 64, 114
1, 339299, Control_c, 0, 67, 22
1, 339314, Control_c, 0, 64, 115
1, 339314, Control_c, 0, 67, 19
1, 339328, Control_c, 0, 64, 116
1, 339328, Control_c, 0, 67, 16
1, 339343, Control_c, 0, 64, 118
1, 339343, Control_c, 0, 67, 14
1, 339358, Control_c, 0, 64, 119
1, 339358, Control_c, 0, 67, 12
1, 339372, Control_c, 0, 64, 122
1, 339372, Control_c, 0, 67, 11
1, 339387, Control_c, 0, 64, 126
1, 339403, Control_c, 0, 64, 127
1, 339403, Control_c, 0, 67, 11
1, 339406, Note_off_c, 0, 61, 34
1, 339418, Control_c, 0, 67, 10
1, 339421, Note_off_c, 0, 88, 12
1, 339433, Control_c, 0, 67, 10
1, 339463, Control_c, 0, 67, 9
1, 339477, Control_c, 0, 67, 9
1, 339492, Control_c, 0, 67, 8
1, 339507, Note_on_c, 0, 79, 47
1, 339507, Control_c, 0, 67, 8
1, 339508, Note_off_c, 0, 91, 37
1, 339522, Control_c, 0, 67, 0
1, 339714, Note_off_c, 0, 79, 47
1, 339738, Note_on_c, 0, 90, 71
1, 339759, Note_on_c, 0, 86, 42
1, 339779, Note_on_c, 0, 62, 32
1, 339836, Note_off_c, 0, 86, 36
1, 339940, Note_off_c, 0, 90, 56
1, 339985, Note_on_c, 0, 79, 46
1, 339993, Note_off_c, 0, 62, 34
1, 340173, Note_off_c, 0, 79, 43
1, 340182, Note_on_c, 0, 88, 64
1, 340196, Note_on_c, 0, 64, 43
1, 340205, Note_on_c, 0, 85, 42
1, 340321, Note_off_c, 0, 85, 0
1, 340358, Poly_aftertouch_c, 0, 85, 127
1, 340379, Note_off_c, 0, 64, 32
1, 340394, Note_off_c, 0, 88, 37
1, 340408, Poly_aftertouch_c, 0, 85, 0
1, 340423, Note_on_c, 0, 79, 49
1, 340604, Note_off_c, 0, 79, 54
1, 340632, Note_on_c, 0, 85, 50
1, 340643, Note_on_c, 0, 67, 36
1, 340667, Note_on_c, 0, 82, 32
1, 340700, Note_off_c, 0, 67, 54
1, 340846, Note_off_c, 0, 85, 50
1, 340849, Note_off_c, 0, 82, 19
1, 340878, Note_on_c, 0, 79, 46
1, 340947, Note_off_c, 0, 79, 49
1, 341109, Control_c, 0, 64, 118
1, 341112, Note_on_c, 0, 61, 54
1, 341112, Note_on_c, 0, 49, 51
1, 341123, Control_c, 0, 64, 104
1, 341138, Control_c, 0, 64, 93
1, 341153, Control_c, 0, 64, 78
1, 341168, Control_c, 0, 64, 67
1, 341183, Control_c, 0, 64, 64
1, 341198, Control_c, 0, 64, 65
1, 341213, Control_c, 0, 64, 66
1, 341228, Control_c, 0, 64, 67
1, 341242, Control_c, 0, 64, 68
1, 341257, Control_c, 0, 64, 70
1, 341272, Control_c, 0, 64, 73
1, 341287, Control_c, 0, 64, 77
1, 341302, Control_c, 0, 64, 80
1, 341323, Control_c, 0, 64, 82
1, 341338, Control_c, 0, 64, 86
1, 341351, Note_on_c, 0, 79, 63
1, 341353, Control_c, 0, 64, 90
1, 341368, Control_c, 0, 64, 94
1, 341383, Control_c, 0, 64, 98
1, 341398, Control_c, 0, 64, 101
1, 341398, Note_off_c, 0, 61, 62
1, 341413, Control_c, 0, 64, 104
1, 341427, Control_c, 0, 64, 108
1, 341442, Control_c, 0, 64, 111
1, 341457, Control_c, 0, 64, 113
1, 341460, Note_off_c, 0, 49, 62
1, 341487, Control_c, 0, 64, 112
1, 341546, Control_c, 0, 64, 108
1, 341552, Note_on_c, 0, 50, 74
1, 341554, Note_on_c, 0, 62, 74
1, 341560, Control_c, 0, 64, 99
1, 341575, Control_c, 0, 64, 88
1, 341585, Note_off_c, 0, 79, 56
1, 341590, Control_c, 0, 64, 77
1, 341605, Control_c, 0, 64, 67
1, 341620, Control_c, 0, 64, 65
1, 341635, Control_c, 0, 64, 67
1, 341649, Control_c, 0, 64, 69
1, 341664, Control_c, 0, 64, 71
1, 341679, Control_c, 0, 64, 73
1, 341694, Control_c, 0, 64, 77
1, 341709, Control_c, 0, 64, 82
1, 341723, Control_c, 0, 64, 87
1, 341738, Control_c, 0, 64, 90
1, 341753, Control_c, 0, 64, 94
1, 341767, Control_c, 0, 64, 98
1, 341780, Note_on_c, 0, 79, 77
1, 341782, Control_c, 0, 64, 103
1, 341798, Control_c, 0, 64, 108
1, 341813, Control_c, 0, 64, 113
1, 341828, Control_c, 0, 64, 121
1, 341843, Control_c, 0, 64, 127
1, 341844, Note_off_c, 0, 62, 55
1, 341861, Note_off_c, 0, 50, 60
1, 341961, Control_c, 0, 64, 114
1, 341976, Control_c, 0, 64, 101
1, 341991, Control_c, 0, 64, 86
1, 342001, Note_on_c, 0, 64, 70
1, 342005, Note_on_c, 0, 52, 66
1, 342006, Control_c, 0, 64, 68
1, 342021, Control_c, 0, 64, 46
1, 342036, Control_c, 0, 64, 52
1, 342051, Control_c, 0, 64, 60
1, 342072, Control_c, 0, 64, 63
1, 342087, Control_c, 0, 64, 65
1, 342102, Control_c, 0, 64, 69
1, 342117, Control_c, 0, 64, 73
1, 342132, Control_c, 0, 64, 77
1, 342146, Control_c, 0, 64, 81
1, 342152, Note_off_c, 0, 79, 45
1, 342161, Control_c, 0, 64, 86
1, 342167, Note_off_c, 0, 64, 63
1, 342176, Control_c, 0, 64, 92
1, 342191, Control_c, 0, 64, 97
1, 342206, Control_c, 0, 64, 103
1, 342214, Note_off_c, 0, 52, 62
1, 342220, Control_c, 0, 64, 107
1, 342235, Control_c, 0, 64, 112
1, 342250, Control_c, 0, 64, 118
1, 342253, Note_on_c, 0, 79, 75
1, 342265, Control_c, 0, 64, 127
1, 342458, Control_c, 0, 64, 124
1, 342472, Control_c, 0, 64, 107
1, 342487, Control_c, 0, 64, 89
1, 342502, Control_c, 0, 64, 73
1, 342509, Note_on_c, 0, 47, 40
1, 342510, Note_on_c, 0, 59, 50
1, 342516, Control_c, 0, 64, 50
1, 342531, Control_c, 0, 64, 0
1, 342576, Control_c, 0, 64, 52
1, 342592, Control_c, 0, 64, 62
1, 342606, Control_c, 0, 64, 65
1, 342621, Control_c, 0, 64, 67
1, 342636, Control_c, 0, 64, 70
1, 342651, Control_c, 0, 64, 73
1, 342651, Control_c, 0, 67, 10
1, 342666, Note_off_c, 0, 79, 55
1, 342666, Control_c, 0, 64, 76
1, 342666, Control_c, 0, 67, 14
1, 342681, Control_c, 0, 64, 80
1, 342681, Control_c, 0, 67, 17
1, 342696, Control_c, 0, 64, 84
1, 342696, Control_c, 0, 67, 19
1, 342711, Control_c, 0, 64, 87
1, 342711, Control_c, 0, 67, 20
1, 342726, Control_c, 0, 64, 90
1, 342726, Control_c, 0, 67, 20
1, 342733, Note_off_c, 0, 47, 56
1, 342741, Control_c, 0, 64, 93
1, 342756, Control_c, 0, 64, 95
1, 342770, Control_c, 0, 64, 99
1, 342770, Control_c, 0, 67, 20
1, 342773, Note_off_c, 0, 59, 62
1, 342785, Control_c, 0, 64, 103
1, 342800, Control_c, 0, 64, 107
1, 342822, Control_c, 0, 64, 112
1, 342837, Control_c, 0, 64, 116
1, 342837, Note_on_c, 0, 79, 60
1, 342852, Control_c, 0, 64, 120
1, 342852, Control_c, 0, 67, 19
1, 342867, Control_c, 0, 64, 121
1, 342940, Control_c, 0, 67, 19
1, 342985, Control_c, 0, 64, 122
1, 343018, Note_off_c, 0, 79, 30
1, 343059, Control_c, 0, 64, 123
1, 343059, Control_c, 0, 67, 18
1, 343074, Control_c, 0, 64, 124
1, 343088, Control_c, 0, 67, 18
1, 343190, Note_on_c, 0, 64, 42
1, 343191, Note_on_c, 0, 95, 73
1, 343237, Control_c, 0, 64, 126
1, 343261, Poly_aftertouch_c, 0, 91, 127
1, 343282, Control_c, 0, 64, 127
1, 343307, Poly_aftertouch_c, 0, 91, 0
1, 343345, Note_off_c, 0, 95, 43
1, 343440, Note_off_c, 0, 64, 28
1, 343540, Note_on_c, 0, 79, 50
1, 343718, Control_c, 0, 67, 18
1, 343761, Note_off_c, 0, 79, 37
1, 343781, Note_on_c, 0, 66, 46
1, 343788, Note_on_c, 0, 93, 73
1, 343812, Note_on_c, 0, 90, 44
1, 343863, Note_off_c, 0, 90, 49
1, 343911, Control_c, 0, 67, 18
1, 343925, Control_c, 0, 67, 17
1, 343942, Note_off_c, 0, 93, 43
1, 343944, Note_off_c, 0, 66, 40
1, 343955, Control_c, 0, 67, 16
1, 343970, Control_c, 0, 67, 16
1, 343985, Control_c, 0, 67, 15
1, 344000, Control_c, 0, 67, 14
1, 344014, Note_on_c, 0, 79, 48
1, 344015, Control_c, 0, 67, 13
1, 344030, Control_c, 0, 67, 12
1, 344059, Control_c, 0, 67, 12
1, 344148, Control_c, 0, 67, 12
1, 344162, Control_c, 0, 67, 13
1, 344177, Control_c, 0, 64, 124
1, 344193, Control_c, 0, 64, 110
1, 344208, Control_c, 0, 64, 99
1, 344212, Note_off_c, 0, 79, 43
1, 344221, Note_on_c, 0, 91, 62
1, 344223, Control_c, 0, 64, 92
1, 344229, Note_on_c, 0, 88, 56
1, 344234, Note_on_c, 0, 67, 44
1, 344238, Control_c, 0, 64, 91
1, 344238, Control_c, 0, 67, 13
1, 344253, Control_c, 0, 64, 92
1, 344297, Control_c, 0, 64, 93
1, 344319, Control_c, 0, 64, 95
1, 344334, Control_c, 0, 64, 98
1, 344349, Control_c, 0, 64, 99
1, 344364, Control_c, 0, 64, 100
1, 344379, Control_c, 0, 64, 100
1, 344402, Note_off_c, 0, 88, 42
1, 344408, Control_c, 0, 64, 101
1, 344408, Control_c, 0, 67, 13
1, 344418, Note_off_c, 0, 91, 37
1, 344426, Note_off_c, 0, 67, 51
1, 344451, Note_on_c, 0, 79, 49
1, 344571, Control_c, 0, 64, 100
1, 344585, Control_c, 0, 64, 98
1, 344649, Note_off_c, 0, 79, 43
1, 344668, Note_on_c, 0, 88, 56
1, 344674, Control_c, 0, 64, 99
1, 344689, Control_c, 0, 64, 100
1, 344693, Note_on_c, 0, 71, 47
1, 344695, Note_on_c, 0, 83, 32
1, 344704, Control_c, 0, 64, 101
1, 344743, Note_off_c, 0, 83, 44
1, 344748, Control_c, 0, 67, 12
1, 344763, Control_c, 0, 64, 101
1, 344772, Note_off_c, 0, 71, 60
1, 344778, Control_c, 0, 67, 12
1, 344853, Control_c, 0, 67, 11
1, 344867, Control_c, 0, 67, 11
1, 344875, Note_off_c, 0, 88, 36
1, 344897, Control_c, 0, 67, 10
1, 344910, Note_on_c, 0, 79, 46
1, 344926, Control_c, 0, 67, 10
1, 344956, Control_c, 0, 67, 9
1, 344963, Note_off_c, 0, 79, 42
1, 345083, Control_c, 0, 64, 100
1, 345097, Control_c, 0, 64, 99
1, 345112, Control_c, 0, 64, 97
1, 345112, Control_c, 0, 67, 10
1, 345127, Control_c, 0, 64, 93
1, 345142, Control_c, 0, 64, 87
1, 345142, Control_c, 0, 67, 10
1, 345157, Control_c, 0, 64, 77
1, 345158, Note_on_c, 0, 60, 56
1, 345163, Note_on_c, 0, 52, 54
1, 345172, Control_c, 0, 64, 66
1, 345172, Control_c, 0, 67, 11
1, 345186, Control_c, 0, 64, 59
1, 345201, Control_c, 0, 64, 62
1, 345216, Control_c, 0, 64, 64
1, 345231, Control_c, 0, 64, 66
1, 345246, Control_c, 0, 64, 69
1, 345246, Control_c, 0, 67, 10
1, 345261, Control_c, 0, 64, 72
1, 345276, Control_c, 0, 64, 76
1, 345276, Control_c, 0, 67, 10
1, 345290, Control_c, 0, 64, 80
1, 345305, Control_c, 0, 64, 84
1, 345320, Control_c, 0, 64, 87
1, 345320, Control_c, 0, 67, 9
1, 345334, Control_c, 0, 64, 90
1, 345349, Control_c, 0, 64, 92
1, 345364, Control_c, 0, 64, 95
1, 345377, Note_off_c, 0, 60, 62
1, 345379, Control_c, 0, 64, 97
1, 345394, Control_c, 0, 64, 99
1, 345395, Note_on_c, 0, 79, 62
1, 345408, Control_c, 0, 64, 101
1, 345422, Note_off_c, 0, 52, 63
1, 345423, Control_c, 0, 64, 103
1, 345438, Control_c, 0, 64, 104
1, 345453, Control_c, 0, 64, 104
1, 345453, Control_c, 0, 67, 10
1, 345482, Control_c, 0, 67, 11
1, 345497, Control_c, 0, 67, 11
1, 345512, Control_c, 0, 67, 12
1, 345527, Control_c, 0, 64, 104
1, 345527, Control_c, 0, 67, 12
1, 345541, Control_c, 0, 67, 13
1, 345571, Control_c, 0, 64, 103
1, 345571, Control_c, 0, 67, 14
1, 345586, Control_c, 0, 64, 99
1, 345586, Control_c, 0, 67, 14
1, 345601, Control_c, 0, 64, 92
1, 345601, Control_c, 0, 67, 15
1, 345603, Note_on_c, 0, 55, 57
1, 345609, Note_on_c, 0, 50, 49
1, 345610, Note_off_c, 0, 79, 47
1, 345616, Control_c, 0, 64, 78
1, 345616, Control_c, 0, 67, 15
1, 345627, Note_on_c, 0, 47, 41
1, 345631, Control_c, 0, 64, 66
1, 345645, Control_c, 0, 64, 64
1, 345660, Control_c, 0, 64, 67
1, 345660, Control_c, 0, 67, 16
1, 345675, Control_c, 0, 64, 69
1, 345690, Control_c, 0, 64, 71
1, 345690, Control_c, 0, 67, 16
1, 345705, Control_c, 0, 64, 74
1, 345720, Control_c, 0, 64, 80
1, 345735, Control_c, 0, 64, 86
1, 345750, Control_c, 0, 64, 89
1, 345750, Control_c, 0, 67, 16
1, 345753, Note_off_c, 0, 47, 57
1, 345759, Note_off_c, 0, 50, 64
1, 345765, Control_c, 0, 64, 91
1, 345774, Note_off_c, 0, 55, 64
1, 345780, Control_c, 0, 64, 92
1, 345795, Control_c, 0, 64, 94
1, 345795, Control_c, 0, 67, 15
1, 345818, Control_c, 0, 64, 96
1, 345833, Control_c, 0, 64, 96
1, 345833, Control_c, 0, 67, 16
1, 345843, Note_on_c, 0, 79, 50
1, 345995, Control_c, 0, 67, 16
1, 346010, Control_c, 0, 64, 95
1, 346025, Control_c, 0, 64, 94
1, 346039, Control_c, 0, 64, 92
1, 346049, Note_off_c, 0, 79, 36
1, 346054, Control_c, 0, 64, 87
1, 346069, Control_c, 0, 64, 79
1, 346071, Note_on_c, 0, 88, 51
1, 346077, Note_on_c, 0, 72, 38
1, 346084, Control_c, 0, 64, 68
1, 346090, Note_on_c, 0, 76, 38
1, 346099, Control_c, 0, 64, 59
1, 346113, Control_c, 0, 64, 62
1, 346128, Control_c, 0, 64, 64
1, 346137, Poly_aftertouch_c, 0, 84, 127
1, 346143, Control_c, 0, 64, 64
1, 346158, Control_c, 0, 64, 65
1, 346173, Control_c, 0, 64, 65
1, 346188, Control_c, 0, 64, 68
1, 346203, Control_c, 0, 64, 71
1, 346203, Control_c, 0, 67, 16
1, 346218, Control_c, 0, 64, 74
1, 346232, Control_c, 0, 64, 75
1, 346247, Control_c, 0, 64, 76
1, 346247, Control_c, 0, 67, 15
1, 346262, Control_c, 0, 64, 78
1, 346277, Control_c, 0, 64, 81
1, 346292, Control_c, 0, 64, 85
1, 346306, Control_c, 0, 64, 87
1, 346306, Control_c, 0, 67, 15
1, 346321, Control_c, 0, 64, 87
1, 346321, Control_c, 0, 67, 14
1, 346324, Note_on_c, 0, 79, 42
1, 346329, Poly_aftertouch_c, 0, 84, 0
1, 346330, Note_off_c, 0, 76, 41
1, 346336, Control_c, 0, 64, 88
1, 346336, Control_c, 0, 67, 14
1, 346351, Control_c, 0, 64, 90
1, 346351, Control_c, 0, 67, 13
1, 346365, Control_c, 0, 64, 92
1, 346365, Control_c, 0, 67, 13
1, 346396, Note_off_c, 0, 88, 23
1, 346425, Control_c, 0, 64, 92
1, 346439, Control_c, 0, 67, 12
1, 346454, Control_c, 0, 64, 92
1, 346469, Control_c, 0, 64, 90
1, 346470, Note_off_c, 0, 72, 54
1, 346483, Control_c, 0, 64, 87
1, 346498, Control_c, 0, 64, 85
1, 346498, Control_c, 0, 67, 12
1, 346501, Note_off_c, 0, 79, 37
1, 346525, Note_on_c, 0, 74, 40
1, 346528, Control_c, 0, 67, 11
1, 346532, Note_on_c, 0, 83, 36
1, 346534, Note_on_c, 0, 86, 44
1, 346543, Note_on_c, 0, 67, 29
1, 346543, Control_c, 0, 64, 85
1, 346565, Control_c, 0, 64, 87
1, 346565, Control_c, 0, 67, 11
1, 346580, Control_c, 0, 64, 90
1, 346580, Control_c, 0, 67, 9
1, 346596, Control_c, 0, 64, 92
1, 346596, Control_c, 0, 67, 9
1, 346611, Control_c, 0, 64, 94
1, 346611, Control_c, 0, 67, 8
1, 346620, Note_off_c, 0, 74, 64
1, 346626, Control_c, 0, 64, 96
1, 346626, Control_c, 0, 67, 0
1, 346641, Control_c, 0, 64, 98
1, 346656, Control_c, 0, 64, 99
1, 346660, Note_off_c, 0, 67, 57
1, 346670, Control_c, 0, 64, 101
1, 346685, Control_c, 0, 64, 102
1, 346700, Control_c, 0, 64, 103
1, 346710, Note_off_c, 0, 83, 21
1, 346711, Note_off_c, 0, 86, 51
1, 346730, Control_c, 0, 64, 103
1, 346742, Note_on_c, 0, 79, 64
1, 346745, Control_c, 0, 64, 105
1, 346760, Control_c, 0, 64, 106
1, 346775, Control_c, 0, 64, 106
1, 346790, Note_off_c, 0, 79, 52
1, 346893, Control_c, 0, 64, 105
1, 346908, Control_c, 0, 64, 103
1, 346923, Control_c, 0, 64, 100
1, 346937, Control_c, 0, 64, 95
1, 346952, Control_c, 0, 64, 85
1, 346958, Note_on_c, 0, 59, 64
1, 346965, Note_on_c, 0, 55, 59
1, 346967, Note_on_c, 0, 52, 56
1, 346967, Control_c, 0, 64, 74
1, 346981, Control_c, 0, 64, 63
1, 346996, Control_c, 0, 64, 55
1, 347011, Control_c, 0, 64, 60
1, 347026, Control_c, 0, 64, 62
1, 347041, Control_c, 0, 64, 64
1, 347055, Control_c, 0, 64, 66
1, 347070, Control_c, 0, 64, 68
1, 347085, Control_c, 0, 64, 72
1, 347100, Control_c, 0, 64, 76
1, 347115, Control_c, 0, 64, 79
1, 347130, Control_c, 0, 64, 81
1, 347145, Control_c, 0, 64, 84
1, 347160, Control_c, 0, 64, 88
1, 347175, Control_c, 0, 64, 92
1, 347188, Control_c, 0, 64, 94
1, 347203, Note_off_c, 0, 55, 63
1, 347203, Control_c, 0, 64, 96
1, 347205, Note_off_c, 0, 59, 54
1, 347213, Note_on_c, 0, 79, 65
1, 347218, Control_c, 0, 64, 97
1, 347233, Control_c, 0, 64, 99
1, 347248, Control_c, 0, 64, 100
1, 347252, Note_off_c, 0, 52, 63
1, 347374, Control_c, 0, 64, 97
1, 347389, Control_c, 0, 64, 91
1, 347404, Control_c, 0, 64, 80
1, 347417, Note_off_c, 0, 79, 44
1, 347418, Note_on_c, 0, 50, 50
1, 347418, Note_on_c, 0, 55, 56
1, 347419, Control_c, 0, 64, 66
1, 347434, Control_c, 0, 64, 0
1, 347446, Note_on_c, 0, 47, 39
1, 347449, Control_c, 0, 64, 41
1, 347464, Control_c, 0, 64, 54
1, 347479, Control_c, 0, 64, 60
1, 347493, Control_c, 0, 64, 64
1, 347508, Control_c, 0, 64, 67
1, 347523, Control_c, 0, 64, 73
1, 347537, Note_off_c, 0, 47, 62
1, 347537, Control_c, 0, 64, 77
1, 347552, Note_off_c, 0, 50, 64
1, 347552, Control_c, 0, 64, 81
1, 347566, Note_off_c, 0, 55, 64
1, 347567, Control_c, 0, 64, 83
1, 347582, Control_c, 0, 64, 86
1, 347597, Control_c, 0, 64, 90
1, 347611, Control_c, 0, 64, 93
1, 347626, Control_c, 0, 64, 94
1, 347641, Control_c, 0, 64, 95
1, 347649, Note_on_c, 0, 79, 66
1, 347656, Control_c, 0, 64, 96
1, 347671, Control_c, 0, 64, 96
1, 347819, Control_c, 0, 64, 96
1, 347848, Control_c, 0, 64, 95
1, 347863, Control_c, 0, 64, 93
1, 347866, Note_off_c, 0, 79, 53
1, 347878, Control_c, 0, 64, 91
1, 347893, Control_c, 0, 64, 88
1, 347899, Note_on_c, 0, 71, 39
1, 347899, Note_on_c, 0, 88, 66
1, 347903, Note_on_c, 0, 76, 38
1, 347908, Control_c, 0, 64, 81
1, 347923, Control_c, 0, 64, 72
1, 347936, Control_c, 0, 64, 63
1, 347950, Note_on_c, 0, 83, 11
1, 347951, Control_c, 0, 64, 59
1, 347966, Control_c, 0, 64, 62
1, 347981, Control_c, 0, 64, 62
1, 347996, Control_c, 0, 64, 63
1, 348010, Control_c, 0, 64, 64
1, 348025, Control_c, 0, 64, 66
1, 348040, Control_c, 0, 64, 68
1, 348063, Control_c, 0, 64, 70
1, 348078, Control_c, 0, 64, 71
1, 348092, Control_c, 0, 64, 73
1, 348107, Control_c, 0, 64, 73
1, 348122, Control_c, 0, 64, 74
1, 348136, Control_c, 0, 64, 76
1, 348151, Control_c, 0, 64, 78
1, 348166, Control_c, 0, 64, 80
1, 348172, Note_off_c, 0, 83, 44
1, 348182, Control_c, 0, 64, 81
1, 348185, Note_on_c, 0, 79, 42
1, 348197, Control_c, 0, 64, 83
1, 348202, Note_off_c, 0, 76, 42
1, 348212, Control_c, 0, 64, 85
1, 348227, Control_c, 0, 64, 87
1, 348241, Control_c, 0, 64, 89
1, 348256, Control_c, 0, 64, 91
1, 348271, Control_c, 0, 64, 92
1, 348277, Note_off_c, 0, 88, 25
1, 348286, Control_c, 0, 64, 94
1, 348301, Control_c, 0, 64, 95
1, 348315, Control_c, 0, 64, 96
1, 348330, Control_c, 0, 64, 97
1, 348345, Control_c, 0, 64, 98
1, 348359, Control_c, 0, 64, 99
1, 348363, Note_off_c, 0, 71, 55
1, 348364, Note_off_c, 0, 79, 37
1, 348374, Control_c, 0, 64, 100
1, 348389, Control_c, 0, 64, 102
1, 348394, Note_on_c, 0, 74, 41
1, 348397, Note_on_c, 0, 86, 51
1, 348404, Control_c, 0, 64, 103
1, 348406, Note_on_c, 0, 83, 28
1, 348416, Note_on_c, 0, 67, 36
1, 348419, Control_c, 0, 64, 104
1, 348433, Control_c, 0, 64, 104
1, 348448, Control_c, 0, 64, 105
1, 348463, Control_c, 0, 64, 106
1, 348478, Control_c, 0, 64, 107
1, 348482, Note_off_c, 0, 74, 53
1, 348493, Control_c, 0, 64, 107
1, 348507, Note_off_c, 0, 83, 0
1, 348507, Control_c, 0, 64, 108
1, 348516, Note_off_c, 0, 67, 44
1, 348544, Poly_aftertouch_c, 0, 83, 127
1, 348620, Poly_aftertouch_c, 0, 83, 0
1, 348628, Note_off_c, 0, 86, 38
1, 348664, Note_on_c, 0, 79, 41
1, 348790, Note_off_c, 0, 79, 41
1, 348841, Control_c, 0, 64, 107
1, 348856, Control_c, 0, 64, 106
1, 348871, Control_c, 0, 64, 105
1, 348885, Control_c, 0, 64, 104
1, 348900, Control_c, 0, 64, 102
1, 348915, Control_c, 0, 64, 101
1, 348930, Control_c, 0, 64, 101
1, 348945, Control_c, 0, 64, 99
1, 348959, Control_c, 0, 64, 97
1, 348974, Control_c, 0, 64, 94
1, 348987, Note_on_c, 0, 49, 45
1, 348990, Control_c, 0, 64, 88
1, 348991, Note_on_c, 0, 46, 39
1, 348991, Note_on_c, 0, 52, 43
1, 348991, Note_on_c, 0, 58, 41
1, 349005, Control_c, 0, 64, 80
1, 349020, Control_c, 0, 64, 71
1, 349035, Control_c, 0, 64, 64
1, 349049, Control_c, 0, 64, 65
1, 349064, Control_c, 0, 64, 66
1, 349079, Control_c, 0, 64, 67
1, 349094, Control_c, 0, 64, 67
1, 349109, Control_c, 0, 64, 69
1, 349124, Control_c, 0, 64, 70
1, 349138, Control_c, 0, 64, 73
1, 349153, Control_c, 0, 64, 75
1, 349168, Control_c, 0, 64, 77
1, 349182, Control_c, 0, 64, 78
1, 349197, Control_c, 0, 64, 80
1, 349212, Control_c, 0, 64, 81
1, 349227, Control_c, 0, 64, 84
1, 349242, Control_c, 0, 64, 86
1, 349256, Control_c, 0, 64, 87
1, 349271, Control_c, 0, 64, 89
1, 349286, Control_c, 0, 64, 90
1, 349300, Control_c, 0, 64, 91
1, 349315, Control_c, 0, 64, 93
1, 349330, Control_c, 0, 64, 94
1, 349345, Control_c, 0, 64, 96
1, 349360, Control_c, 0, 64, 98
1, 349375, Control_c, 0, 64, 99
1, 349389, Control_c, 0, 64, 100
1, 349399, Note_off_c, 0, 58, 37
1, 349404, Control_c, 0, 64, 101
1, 349419, Control_c, 0, 64, 103
1, 349423, Note_on_c, 0, 79, 43
1, 349434, Control_c, 0, 64, 103
1, 349449, Control_c, 0, 64, 104
1, 349470, Note_off_c, 0, 46, 42
1, 349479, Control_c, 0, 64, 104
1, 349600, Note_off_c, 0, 79, 58
1, 349649, Control_c, 0, 64, 104
1, 349652, Note_on_c, 0, 55, 63
1, 349656, Note_on_c, 0, 43, 56
1, 349664, Control_c, 0, 64, 102
1, 349679, Control_c, 0, 64, 98
1, 349694, Control_c, 0, 64, 92
1, 349708, Control_c, 0, 64, 83
1, 349723, Control_c, 0, 64, 80
1, 349753, Control_c, 0, 64, 81
1, 349768, Control_c, 0, 64, 82
1, 349783, Control_c, 0, 64, 84
1, 349798, Control_c, 0, 64, 87
1, 349813, Control_c, 0, 64, 91
1, 349828, Control_c, 0, 64, 94
1, 349843, Control_c, 0, 64, 96
1, 349857, Control_c, 0, 64, 99
1, 349872, Control_c, 0, 64, 102
1, 349886, Note_on_c, 0, 79, 74
1, 349887, Control_c, 0, 64, 105
1, 349899, Note_off_c, 0, 43, 60
1, 349902, Control_c, 0, 64, 108
1, 349912, Note_off_c, 0, 55, 54
1, 349917, Control_c, 0, 64, 109
1, 349917, Note_off_c, 0, 52, 54
1, 349929, Note_off_c, 0, 49, 57
1, 349931, Control_c, 0, 64, 109
1, 349946, Control_c, 0, 64, 110
1, 349961, Control_c, 0, 64, 110
1, 350029, Note_off_c, 0, 79, 49
1, 350065, Control_c, 0, 64, 108
1, 350079, Control_c, 0, 64, 101
1, 350094, Control_c, 0, 64, 88
1, 350106, Note_on_c, 0, 55, 64
1, 350108, Note_on_c, 0, 52, 59
1, 350109, Control_c, 0, 64, 74
1, 350119, Note_on_c, 0, 43, 54
1, 350119, Note_on_c, 0, 49, 50
1, 350123, Control_c, 0, 64, 61
1, 350138, Control_c, 0, 64, 60
1, 350153, Control_c, 0, 64, 64
1, 350168, Control_c, 0, 64, 65
1, 350183, Control_c, 0, 64, 67
1, 350198, Control_c, 0, 64, 70
1, 350212, Control_c, 0, 64, 74
1, 350227, Control_c, 0, 64, 78
1, 350241, Note_off_c, 0, 43, 61
1, 350242, Control_c, 0, 64, 80
1, 350257, Control_c, 0, 64, 82
1, 350272, Control_c, 0, 64, 84
1, 350287, Control_c, 0, 64, 87
1, 350309, Control_c, 0, 64, 90
1, 350324, Control_c, 0, 64, 92
1, 350336, Note_off_c, 0, 52, 61
1, 350338, Control_c, 0, 64, 94
1, 350353, Control_c, 0, 64, 96
1, 350357, Note_off_c, 0, 55, 64
1, 350364, Note_on_c, 0, 81, 75
1, 350368, Control_c, 0, 64, 98
1, 350383, Control_c, 0, 64, 101
1, 350398, Control_c, 0, 64, 103
1, 350412, Control_c, 0, 64, 104
1, 350427, Control_c, 0, 64, 104
1, 350442, Control_c, 0, 64, 105
1, 350457, Control_c, 0, 64, 105
1, 350510, Note_off_c, 0, 81, 57
1, 350561, Control_c, 0, 64, 104
1, 350576, Control_c, 0, 64, 102
1, 350580, Note_off_c, 0, 49, 62
1, 350591, Control_c, 0, 64, 97
1, 350606, Control_c, 0, 64, 88
1, 350610, Note_on_c, 0, 54, 54
1, 350612, Note_on_c, 0, 42, 53
1, 350621, Control_c, 0, 64, 76
1, 350636, Control_c, 0, 64, 64
1, 350650, Control_c, 0, 64, 58
1, 350665, Control_c, 0, 64, 63
1, 350680, Control_c, 0, 64, 64
1, 350710, Control_c, 0, 64, 65
1, 350725, Control_c, 0, 64, 66
1, 350740, Control_c, 0, 64, 68
1, 350754, Control_c, 0, 64, 71
1, 350769, Control_c, 0, 64, 73
1, 350784, Control_c, 0, 64, 74
1, 350799, Control_c, 0, 64, 76
1, 350814, Control_c, 0, 64, 77
1, 350828, Control_c, 0, 64, 80
1, 350843, Control_c, 0, 64, 83
1, 350858, Control_c, 0, 64, 85
1, 350873, Control_c, 0, 64, 87
1, 350883, Note_off_c, 0, 54, 54
1, 350888, Control_c, 0, 64, 88
1, 350895, Note_off_c, 0, 42, 38
1, 350899, Note_on_c, 0, 82, 67
1, 350902, Control_c, 0, 64, 90
1, 350917, Control_c, 0, 64, 93
1, 350932, Control_c, 0, 64, 95
1, 350946, Control_c, 0, 64, 97
1, 350961, Control_c, 0, 64, 99
1, 350976, Control_c, 0, 64, 100
1, 350978, Note_off_c, 0, 82, 57
1, 350991, Control_c, 0, 64, 100
1, 351006, Control_c, 0, 64, 101
1, 351035, Control_c, 0, 64, 102
1, 351058, Control_c, 0, 64, 103
1, 351176, Control_c, 0, 64, 102
1, 351191, Control_c, 0, 64, 101
1, 351206, Control_c, 0, 64, 100
1, 351221, Control_c, 0, 64, 99
1, 351235, Control_c, 0, 64, 97
1, 351250, Control_c, 0, 64, 95
1, 351265, Control_c, 0, 64, 92
1, 351279, Control_c, 0, 64, 88
1, 351282, Note_on_c, 0, 54, 38
1, 351285, Note_on_c, 0, 47, 34
1, 351289, Note_on_c, 0, 50, 39
1, 351294, Control_c, 0, 64, 83
1, 351309, Control_c, 0, 64, 75
1, 351324, Control_c, 0, 64, 63
1, 351339, Control_c, 0, 64, 0
1, 351503, Control_c, 0, 64, 43
1, 351518, Control_c, 0, 64, 58
1, 351533, Control_c, 0, 64, 62
1, 351548, Control_c, 0, 64, 65
1, 351563, Control_c, 0, 64, 66
1, 351577, Control_c, 0, 64, 68
1, 351592, Control_c, 0, 64, 70
1, 351607, Control_c, 0, 64, 72
1, 351622, Control_c, 0, 64, 73
1, 351637, Control_c, 0, 64, 75
1, 351651, Control_c, 0, 64, 77
1, 351666, Control_c, 0, 64, 79
1, 351681, Control_c, 0, 64, 81
1, 351695, Control_c, 0, 64, 84
1, 351710, Control_c, 0, 64, 86
1, 351724, Note_on_c, 0, 83, 42
1, 351725, Control_c, 0, 64, 87
1, 351740, Note_on_c, 0, 71, 25
1, 351740, Control_c, 0, 64, 89
1, 351755, Control_c, 0, 64, 91
1, 351769, Control_c, 0, 64, 93
1, 351784, Control_c, 0, 64, 95
1, 351807, Control_c, 0, 64, 97
1, 351822, Control_c, 0, 64, 98
1, 351837, Control_c, 0, 64, 100
1, 351850, Note_off_c, 0, 83, 59
1, 351851, Note_off_c, 0, 71, 40
1, 351851, Control_c, 0, 64, 103
1, 351866, Control_c, 0, 64, 107
1, 351881, Control_c, 0, 64, 109
1, 351896, Control_c, 0, 64, 112
1, 351910, Control_c, 0, 64, 116
1, 351925, Control_c, 0, 64, 127
1, 352208, Note_on_c, 0, 83, 62
1, 352218, Note_on_c, 0, 71, 47
1, 352298, Note_off_c, 0, 71, 55
1, 352316, Note_off_c, 0, 83, 59
1, 352694, Note_on_c, 0, 83, 75
1, 352710, Note_on_c, 0, 71, 57
1, 352806, Note_off_c, 0, 71, 58
1, 352833, Note_off_c, 0, 83, 59
1, 353092, Note_off_c, 0, 54, 37
1, 353125, Note_off_c, 0, 47, 39
1, 353193, Note_off_c, 0, 50, 41
1, 353379, Control_c, 0, 67, 8
1, 353394, Control_c, 0, 67, 9
1, 353409, Control_c, 0, 67, 11
1, 353423, Control_c, 0, 67, 12
1, 353438, Control_c, 0, 67, 13
1, 353453, Control_c, 0, 67, 15
1, 353456, Note_on_c, 0, 83, 48
1, 353461, Note_on_c, 0, 71, 39
1, 353468, Control_c, 0, 67, 16
1, 353482, Control_c, 0, 67, 18
1, 353497, Control_c, 0, 67, 21
1, 353512, Control_c, 0, 67, 23
1, 353527, Control_c, 0, 67, 25
1, 353542, Control_c, 0, 67, 27
1, 353557, Control_c, 0, 67, 30
1, 353572, Control_c, 0, 67, 33
1, 353587, Control_c, 0, 67, 36
1, 353592, Note_off_c, 0, 71, 35
1, 353602, Control_c, 0, 67, 39
1, 353616, Control_c, 0, 67, 41
1, 353631, Control_c, 0, 67, 43
1, 353639, Note_off_c, 0, 83, 37
1, 353646, Control_c, 0, 67, 45
1, 353661, Control_c, 0, 67, 48
1, 353675, Control_c, 0, 67, 49
1, 353690, Control_c, 0, 67, 52
1, 353705, Control_c, 0, 67, 55
1, 353720, Control_c, 0, 67, 58
1, 353735, Control_c, 0, 67, 61
1, 353749, Control_c, 0, 67, 64
1, 353764, Control_c, 0, 67, 67
1, 353780, Control_c, 0, 67, 70
1, 353795, Control_c, 0, 67, 74
1, 353810, Control_c, 0, 67, 78
1, 353825, Control_c, 0, 67, 82
1, 353840, Control_c, 0, 67, 86
1, 353854, Control_c, 0, 67, 90
1, 353869, Control_c, 0, 67, 94
1, 353884, Control_c, 0, 67, 98
1, 353899, Control_c, 0, 67, 103
1, 353914, Control_c, 0, 67, 106
1, 353927, Control_c, 0, 67, 109
1, 353942, Control_c, 0, 67, 111
1, 353957, Control_c, 0, 67, 113
1, 353971, Control_c, 0, 67, 114
1, 353986, Control_c, 0, 67, 116
1, 354001, Control_c, 0, 67, 117
1, 354016, Control_c, 0, 67, 117
1, 354031, Control_c, 0, 67, 118
1, 354053, Control_c, 0, 67, 118
1, 354083, Control_c, 0, 64, 126
1, 354083, Control_c, 0, 67, 119
1, 354097, Control_c, 0, 64, 112
1, 354097, Control_c, 0, 67, 119
1, 354112, Control_c, 0, 64, 105
1, 354112, Control_c, 0, 67, 120
1, 354126, Note_on_c, 0, 62, 32
1, 354126, Note_on_c, 0, 50, 36
1, 354127, Control_c, 0, 64, 99
1, 354127, Control_c, 0, 67, 120
1, 354142, Control_c, 0, 64, 91
1, 354157, Control_c, 0, 64, 80
1, 354171, Control_c, 0, 64, 69
1, 354186, Control_c, 0, 64, 56
1, 354201, Control_c, 0, 64, 53
1, 354216, Control_c, 0, 64, 59
1, 354231, Control_c, 0, 64, 62
1, 354245, Control_c, 0, 64, 63
1, 354260, Control_c, 0, 64, 64
1, 354275, Control_c, 0, 64, 66
1, 354290, Control_c, 0, 64, 67
1, 354305, Control_c, 0, 64, 70
1, 354320, Control_c, 0, 64, 72
1, 354335, Control_c, 0, 64, 74
1, 354350, Control_c, 0, 64, 75
1, 354350, Control_c, 0, 67, 119
1, 354365, Control_c, 0, 64, 78
1, 354365, Control_c, 0, 67, 119
1, 354379, Control_c, 0, 64, 80
1, 354379, Control_c, 0, 67, 118
1, 354394, Control_c, 0, 64, 83
1, 354409, Control_c, 0, 64, 86
1, 354409, Control_c, 0, 67, 118
1, 354424, Control_c, 0, 64, 88
1, 354424, Control_c, 0, 67, 117
1, 354439, Control_c, 0, 64, 89
1, 354439, Control_c, 0, 67, 117
1, 354453, Control_c, 0, 64, 91
1, 354453, Control_c, 0, 67, 116
1, 354468, Control_c, 0, 64, 93
1, 354468, Control_c, 0, 67, 115
1, 354474, Note_on_c, 0, 83, 45
1, 354482, Note_off_c, 0, 50, 41
1, 354483, Note_on_c, 0, 71, 33
1, 354483, Control_c, 0, 64, 95
1, 354497, Control_c, 0, 64, 96
1, 354512, Control_c, 0, 64, 97
1, 354512, Control_c, 0, 67, 114
1, 354527, Control_c, 0, 64, 97
1, 354527, Control_c, 0, 67, 114
1, 354529, Note_off_c, 0, 62, 40
1, 354542, Control_c, 0, 64, 98
1, 354542, Control_c, 0, 67, 113
1, 354557, Control_c, 0, 64, 99
1, 354573, Control_c, 0, 64, 100
1, 354588, Control_c, 0, 64, 101
1, 354602, Control_c, 0, 64, 102
1, 354602, Control_c, 0, 67, 112
1, 354632, Control_c, 0, 67, 112
1, 354642, Note_off_c, 0, 71, 43
1, 354647, Control_c, 0, 67, 111
1, 354667, Note_off_c, 0, 83, 38
1, 354718, Note_on_c, 0, 52, 54
1, 354719, Note_on_c, 0, 64, 53
1, 354720, Control_c, 0, 64, 101
1, 354735, Control_c, 0, 64, 98
1, 354750, Control_c, 0, 64, 90
1, 354765, Control_c, 0, 64, 83
1, 354765, Control_c, 0, 67, 111
1, 354780, Control_c, 0, 64, 81
1, 354780, Control_c, 0, 67, 110
1, 354802, Control_c, 0, 64, 81
1, 354802, Control_c, 0, 67, 110
1, 354817, Control_c, 0, 64, 82
1, 354817, Control_c, 0, 67, 109
1, 354832, Control_c, 0, 64, 84
1, 354832, Control_c, 0, 67, 109
1, 354847, Control_c, 0, 64, 86
1, 354847, Control_c, 0, 67, 107
1, 354862, Control_c, 0, 64, 90
1, 354862, Control_c, 0, 67, 106
1, 354876, Control_c, 0, 64, 94
1, 354876, Control_c, 0, 67, 104
1, 354891, Control_c, 0, 64, 97
1, 354891, Control_c, 0, 67, 100
1, 354906, Control_c, 0, 64, 100
1, 354906, Control_c, 0, 67, 95
1, 354920, Control_c, 0, 64, 103
1, 354920, Control_c, 0, 67, 89
1, 354935, Control_c, 0, 64, 107
1, 354935, Control_c, 0, 67, 80
1, 354936, Note_on_c, 0, 83, 74
1, 354946, Note_on_c, 0, 71, 59
1, 354950, Control_c, 0, 64, 111
1, 354950, Control_c, 0, 67, 70
1, 354965, Control_c, 0, 64, 116
1, 354965, Control_c, 0, 67, 60
1, 354979, Note_off_c, 0, 64, 64
1, 354980, Control_c, 0, 64, 119
1, 354980, Control_c, 0, 67, 52
1, 354994, Control_c, 0, 64, 122
1, 354994, Control_c, 0, 67, 42
1, 355009, Control_c, 0, 64, 124
1, 355009, Control_c, 0, 67, 33
1, 355024, Control_c, 0, 64, 126
1, 355024, Control_c, 0, 67, 24
1, 355039, Control_c, 0, 67, 16
1, 355050, Note_off_c, 0, 71, 60
1, 355054, Control_c, 0, 67, 9
1, 355068, Control_c, 0, 67, 0
1, 355113, Control_c, 0, 64, 123
1, 355128, Control_c, 0, 64, 110
1, 355137, Note_off_c, 0, 52, 57
1, 355143, Control_c, 0, 64, 99
1, 355146, Note_on_c, 0, 54, 71
1, 355149, Note_on_c, 0, 66, 69
1, 355158, Control_c, 0, 64, 85
1, 355172, Control_c, 0, 64, 71
1, 355187, Control_c, 0, 64, 61
1, 355202, Control_c, 0, 64, 63
1, 355217, Control_c, 0, 64, 66
1, 355226, Note_off_c, 0, 83, 52
1, 355232, Control_c, 0, 64, 67
1, 355246, Control_c, 0, 64, 69
1, 355261, Control_c, 0, 64, 72
1, 355276, Control_c, 0, 64, 75
1, 355291, Control_c, 0, 64, 79
1, 355306, Control_c, 0, 64, 84
1, 355320, Control_c, 0, 64, 87
1, 355335, Control_c, 0, 64, 90
1, 355350, Control_c, 0, 64, 94
1, 355357, Note_off_c, 0, 66, 64
1, 355366, Control_c, 0, 64, 98
1, 355381, Control_c, 0, 64, 103
1, 355392, Note_on_c, 0, 82, 76
1, 355396, Control_c, 0, 64, 107
1, 355406, Note_on_c, 0, 70, 47
1, 355411, Control_c, 0, 64, 110
1, 355426, Control_c, 0, 64, 115
1, 355441, Control_c, 0, 64, 122
1, 355456, Control_c, 0, 64, 127
1, 355460, Note_off_c, 0, 70, 54
1, 355492, Note_off_c, 0, 54, 62
1, 355611, Control_c, 0, 64, 120
1, 355626, Control_c, 0, 64, 112
1, 355640, Control_c, 0, 64, 102
1, 355649, Note_on_c, 0, 61, 63
1, 355650, Note_on_c, 0, 49, 66
1, 355655, Control_c, 0, 64, 90
1, 355670, Control_c, 0, 64, 76
1, 355685, Control_c, 0, 64, 63
1, 355700, Control_c, 0, 64, 0
1, 355759, Control_c, 0, 67, 8
1, 355774, Control_c, 0, 67, 8
1, 355789, Control_c, 0, 64, 42
1, 355789, Control_c, 0, 67, 9
1, 355803, Note_off_c, 0, 82, 50
1, 355804, Control_c, 0, 64, 57
1, 355804, Control_c, 0, 67, 10
1, 355819, Control_c, 0, 64, 63
1, 355819, Control_c, 0, 67, 11
1, 355833, Control_c, 0, 64, 65
1, 355833, Control_c, 0, 67, 13
1, 355848, Control_c, 0, 64, 68
1, 355848, Control_c, 0, 67, 15
1, 355863, Control_c, 0, 64, 70
1, 355863, Control_c, 0, 67, 17
1, 355877, Control_c, 0, 64, 72
1, 355877, Control_c, 0, 67, 19
1, 355892, Control_c, 0, 64, 74
1, 355892, Control_c, 0, 67, 23
1, 355907, Control_c, 0, 64, 77
1, 355907, Control_c, 0, 67, 26
1, 355922, Control_c, 0, 64, 80
1, 355922, Control_c, 0, 67, 28
1, 355937, Control_c, 0, 64, 83
1, 355937, Control_c, 0, 67, 29
1, 355951, Control_c, 0, 64, 85
1, 355951, Control_c, 0, 67, 30
1, 355966, Control_c, 0, 64, 87
1, 355966, Control_c, 0, 67, 31
1, 355971, Note_on_c, 0, 82, 60
1, 355981, Note_on_c, 0, 70, 41
1, 355981, Control_c, 0, 64, 90
1, 355981, Control_c, 0, 67, 32
1, 355996, Control_c, 0, 64, 93
1, 356009, Note_off_c, 0, 70, 56
1, 356011, Control_c, 0, 64, 96
1, 356025, Control_c, 0, 64, 98
1, 356037, Note_off_c, 0, 82, 60
1, 356040, Control_c, 0, 64, 101
1, 356055, Control_c, 0, 64, 103
1, 356070, Control_c, 0, 64, 106
1, 356070, Control_c, 0, 67, 31
1, 356085, Control_c, 0, 64, 109
1, 356100, Control_c, 0, 64, 111
1, 356100, Control_c, 0, 67, 30
1, 356114, Control_c, 0, 64, 113
1, 356129, Control_c, 0, 64, 115
1, 356138, Note_off_c, 0, 49, 33
1, 356144, Control_c, 0, 64, 118
1, 356159, Control_c, 0, 64, 123
1, 356169, Note_off_c, 0, 61, 35
1, 356174, Control_c, 0, 64, 127
1, 356174, Control_c, 0, 67, 30
1, 356189, Control_c, 0, 67, 29
1, 356263, Control_c, 0, 67, 29
1, 356300, Control_c, 0, 67, 28
1, 356330, Control_c, 0, 67, 28
1, 356360, Control_c, 0, 67, 27
1, 356374, Control_c, 0, 67, 27
1, 356404, Control_c, 0, 67, 26
1, 356448, Control_c, 0, 67, 25
1, 356451, Note_on_c, 0, 94, 77
1, 356463, Control_c, 0, 67, 25
1, 356478, Control_c, 0, 67, 24
1, 356484, Note_on_c, 0, 91, 48
1, 356493, Control_c, 0, 67, 23
1, 356508, Control_c, 0, 67, 22
1, 356523, Control_c, 0, 67, 22
1, 356531, Note_off_c, 0, 91, 43
1, 356538, Control_c, 0, 67, 21
1, 356553, Control_c, 0, 67, 20
1, 356567, Control_c, 0, 67, 20
1, 356582, Control_c, 0, 67, 18
1, 356597, Control_c, 0, 67, 16
1, 356612, Control_c, 0, 67, 15
1, 356627, Control_c, 0, 67, 13
1, 356641, Control_c, 0, 67, 12
1, 356656, Control_c, 0, 67, 11
1, 356671, Control_c, 0, 67, 9
1, 356675, Note_off_c, 0, 94, 37
1, 356686, Control_c, 0, 67, 9
1, 356700, Control_c, 0, 67, 8
1, 356715, Control_c, 0, 67, 0
1, 356842, Note_on_c, 0, 70, 47
1, 356867, Note_on_c, 0, 82, 43
1, 356895, Note_off_c, 0, 70, 59
1, 357067, Note_off_c, 0, 82, 41
1, 357089, Note_on_c, 0, 93, 78
1, 357104, Note_on_c, 0, 90, 59
1, 357250, Note_off_c, 0, 90, 22
1, 357265, Note_off_c, 0, 93, 51
1, 357314, Note_on_c, 0, 82, 53
1, 357369, Poly_aftertouch_c, 0, 70, 127
1, 357401, Poly_aftertouch_c, 0, 70, 0
1, 357563, Note_on_c, 0, 91, 72
1, 357568, Note_off_c, 0, 82, 42
1, 357568, Control_c, 0, 64, 103
1, 357574, Note_on_c, 0, 52, 47
1, 357580, Note_on_c, 0, 64, 38
1, 357583, Control_c, 0, 64, 86
1, 357597, Control_c, 0, 64, 76
1, 357612, Control_c, 0, 64, 77
1, 357627, Control_c, 0, 64, 79
1, 357641, Control_c, 0, 64, 81
1, 357656, Control_c, 0, 64, 83
1, 357657, Poly_aftertouch_c, 0, 88, 0
1, 357660, Note_off_c, 0, 91, 65
1, 357670, Control_c, 0, 64, 87
1, 357685, Control_c, 0, 64, 93
1, 357700, Control_c, 0, 64, 98
1, 357715, Control_c, 0, 64, 101
1, 357730, Control_c, 0, 64, 104
1, 357745, Control_c, 0, 64, 108
1, 357760, Control_c, 0, 64, 115
1, 357775, Control_c, 0, 64, 127
1, 357843, Note_off_c, 0, 64, 62
1, 357912, Note_on_c, 0, 82, 55
1, 357952, Note_on_c, 0, 70, 16
1, 357989, Note_off_c, 0, 82, 59
1, 357997, Note_off_c, 0, 70, 41
1, 358118, Note_on_c, 0, 66, 69
1, 358119, Note_on_c, 0, 88, 74
1, 358124, Note_on_c, 0, 54, 66
1, 358134, Note_off_c, 0, 52, 35
1, 358153, Control_c, 0, 64, 105
1, 358165, Note_off_c, 0, 88, 62
1, 358168, Control_c, 0, 64, 98
1, 358212, Control_c, 0, 64, 100
1, 358227, Control_c, 0, 64, 106
1, 358242, Control_c, 0, 64, 118
1, 358257, Control_c, 0, 64, 127
1, 358327, Note_on_c, 0, 82, 79
1, 358330, Note_on_c, 0, 70, 66
1, 358370, Note_off_c, 0, 70, 57
1, 358389, Note_off_c, 0, 66, 63
1, 358398, Note_off_c, 0, 82, 60
1, 358519, Note_on_c, 0, 55, 78
1, 358524, Note_on_c, 0, 67, 84
1, 358524, Control_c, 0, 64, 104
1, 358526, Note_off_c, 0, 54, 54
1, 358546, Control_c, 0, 64, 77
1, 358561, Control_c, 0, 64, 60
1, 358592, Control_c, 0, 64, 65
1, 358606, Control_c, 0, 64, 67
1, 358621, Control_c, 0, 64, 71
1, 358636, Control_c, 0, 64, 76
1, 358651, Control_c, 0, 64, 84
1, 358666, Control_c, 0, 64, 91
1, 358681, Control_c, 0, 64, 96
1, 358695, Control_c, 0, 64, 99
1, 358710, Control_c, 0, 64, 104
1, 358725, Control_c, 0, 64, 114
1, 358731, Note_on_c, 0, 82, 81
1, 358732, Note_on_c, 0, 70, 65
1, 358739, Note_off_c, 0, 55, 56
1, 358740, Control_c, 0, 64, 127
1, 358769, Note_off_c, 0, 70, 60
1, 358780, Note_off_c, 0, 67, 62
1, 358788, Note_off_c, 0, 82, 61
1, 358915, Note_on_c, 0, 69, 87
1, 358916, Note_on_c, 0, 57, 80
1, 358932, Control_c, 0, 64, 109
1, 358947, Control_c, 0, 64, 83
1, 358961, Control_c, 0, 64, 65
1, 358976, Control_c, 0, 64, 60
1, 358991, Control_c, 0, 64, 66
1, 359006, Control_c, 0, 64, 71
1, 359021, Control_c, 0, 64, 76
1, 359036, Control_c, 0, 64, 83
1, 359051, Control_c, 0, 64, 93
1, 359066, Control_c, 0, 64, 103
1, 359080, Control_c, 0, 64, 112
1, 359095, Control_c, 0, 64, 117
1, 359096, Note_off_c, 0, 69, 62
1, 359098, Note_off_c, 0, 57, 56
1, 359101, Note_on_c, 0, 82, 76
1, 359102, Note_on_c, 0, 70, 63
1, 359110, Control_c, 0, 64, 127
1, 359131, Note_off_c, 0, 70, 64
1, 359147, Note_off_c, 0, 82, 53
1, 359191, Note_on_c, 0, 69, 86
1, 359195, Note_on_c, 0, 57, 78
1, 359263, Note_off_c, 0, 69, 63
1, 359370, Control_c, 0, 64, 113
1, 359385, Control_c, 0, 64, 101
1, 359399, Control_c, 0, 64, 87
1, 359414, Control_c, 0, 64, 71
1, 359423, Note_off_c, 0, 57, 57
1, 359429, Control_c, 0, 64, 45
1, 359433, Note_on_c, 0, 70, 75
1, 359438, Note_on_c, 0, 58, 69
1, 359444, Control_c, 0, 64, 0
1, 359518, Control_c, 0, 64, 36
1, 359533, Control_c, 0, 64, 58
1, 359548, Control_c, 0, 64, 64
1, 359563, Control_c, 0, 64, 67
1, 359578, Control_c, 0, 64, 70
1, 359592, Control_c, 0, 64, 74
1, 359607, Control_c, 0, 64, 78
1, 359622, Note_off_c, 0, 70, 63
1, 359622, Control_c, 0, 64, 82
1, 359637, Control_c, 0, 64, 86
1, 359652, Control_c, 0, 64, 91
1, 359666, Control_c, 0, 64, 95
1, 359681, Control_c, 0, 64, 100
1, 359696, Control_c, 0, 64, 103
1, 359710, Control_c, 0, 64, 106
1, 359725, Control_c, 0, 64, 110
1, 359732, Note_on_c, 0, 82, 66
1, 359739, Note_on_c, 0, 70, 51
1, 359740, Control_c, 0, 64, 115
1, 359755, Control_c, 0, 64, 124
1, 359770, Control_c, 0, 64, 127
1, 359784, Note_off_c, 0, 58, 60
1, 359786, Note_off_c, 0, 70, 59
1, 359933, Control_c, 0, 64, 126
1, 359948, Control_c, 0, 64, 119
1, 359955, Note_off_c, 0, 82, 37
1, 359963, Control_c, 0, 64, 114
1, 359978, Control_c, 0, 64, 108
1, 359978, Control_c, 0, 67, 8
1, 359992, Control_c, 0, 64, 101
1, 359992, Control_c, 0, 67, 10
1, 360007, Control_c, 0, 64, 92
1, 360007, Control_c, 0, 67, 11
1, 360013, Note_on_c, 0, 62, 51
1, 360018, Note_on_c, 0, 50, 52
1, 360022, Control_c, 0, 64, 80
1, 360022, Control_c, 0, 67, 13
1, 360043, Control_c, 0, 64, 67
1, 360043, Control_c, 0, 67, 14
1, 360058, Control_c, 0, 64, 30
1, 360058, Control_c, 0, 67, 15
1, 360073, Control_c, 0, 64, 0
1, 360073, Control_c, 0, 67, 17
1, 360088, Control_c, 0, 67, 20
1, 360103, Control_c, 0, 64, 31
1, 360103, Control_c, 0, 67, 23
1, 360118, Control_c, 0, 64, 49
1, 360118, Control_c, 0, 67, 26
1, 360133, Control_c, 0, 64, 59
1, 360133, Control_c, 0, 67, 29
1, 360148, Control_c, 0, 64, 64
1, 360148, Control_c, 0, 67, 32
1, 360162, Control_c, 0, 64, 67
1, 360162, Control_c, 0, 67, 35
1, 360178, Control_c, 0, 64, 69
1, 360178, Control_c, 0, 67, 39
1, 360193, Control_c, 0, 64, 71
1, 360193, Control_c, 0, 67, 44
1, 360208, Control_c, 0, 64, 74
1, 360208, Control_c, 0, 67, 48
1, 360222, Control_c, 0, 64, 76
1, 360222, Control_c, 0, 67, 51
1, 360237, Note_off_c, 0, 50, 52
1, 360237, Control_c, 0, 64, 78
1, 360237, Control_c, 0, 67, 53
1, 360252, Control_c, 0, 64, 80
1, 360252, Control_c, 0, 67, 56
1, 360267, Control_c, 0, 64, 82
1, 360267, Control_c, 0, 67, 60
1, 360282, Control_c, 0, 64, 85
1, 360282, Control_c, 0, 67, 63
1, 360297, Control_c, 0, 64, 87
1, 360297, Control_c, 0, 67, 66
1, 360304, Note_off_c, 0, 62, 57
1, 360312, Control_c, 0, 64, 89
1, 360312, Control_c, 0, 67, 69
1, 360326, Control_c, 0, 64, 92
1, 360326, Control_c, 0, 67, 72
1, 360341, Control_c, 0, 64, 94
1, 360341, Control_c, 0, 67, 74
1, 360356, Control_c, 0, 64, 96
1, 360356, Control_c, 0, 67, 74
1, 360363, Note_on_c, 0, 82, 60
1, 360371, Control_c, 0, 64, 98
1, 360371, Control_c, 0, 67, 75
1, 360376, Note_on_c, 0, 70, 43
1, 360386, Control_c, 0, 64, 100
1, 360386, Control_c, 0, 67, 76
1, 360401, Control_c, 0, 64, 103
1, 360401, Control_c, 0, 67, 76
1, 360404, Note_off_c, 0, 70, 57
1, 360415, Control_c, 0, 64, 104
1, 360415, Control_c, 0, 67, 77
1, 360430, Control_c, 0, 64, 106
1, 360432, Note_off_c, 0, 82, 58
1, 360445, Control_c, 0, 64, 107
1, 360460, Control_c, 0, 64, 108
1, 360474, Control_c, 0, 64, 110
1, 360489, Control_c, 0, 64, 112
1, 360504, Control_c, 0, 64, 113
1, 360519, Control_c, 0, 64, 115
1, 360533, Control_c, 0, 64, 117
1, 360548, Control_c, 0, 64, 123
1, 360563, Control_c, 0, 64, 127
1, 360680, Control_c, 0, 67, 76
1, 360725, Control_c, 0, 67, 76
1, 360769, Control_c, 0, 67, 75
1, 360791, Control_c, 0, 67, 75
1, 360851, Control_c, 0, 67, 74
1, 360880, Note_on_c, 0, 98, 71
1, 360905, Note_on_c, 0, 94, 50
1, 360917, Note_on_c, 0, 67, 34
1, 360925, Control_c, 0, 67, 74
1, 360946, Note_off_c, 0, 94, 46
1, 360982, Note_off_c, 0, 98, 57
1, 361000, Control_c, 0, 67, 73
1, 361289, Note_on_c, 0, 82, 46
1, 361295, Note_on_c, 0, 70, 37
1, 361426, Note_off_c, 0, 67, 34
1, 361434, Note_off_c, 0, 82, 35
1, 361519, Note_on_c, 0, 96, 70
1, 361522, Note_off_c, 0, 70, 42
1, 361550, Note_on_c, 0, 66, 40
1, 361554, Note_on_c, 0, 93, 46
1, 361667, Note_off_c, 0, 96, 39
1, 361688, Control_c, 0, 67, 73
1, 361714, Note_off_c, 0, 93, 41
1, 361757, Note_on_c, 0, 82, 44
1, 361780, Note_on_c, 0, 70, 31
1, 361911, Control_c, 0, 67, 72
1, 361971, Control_c, 0, 67, 72
1, 361977, Note_off_c, 0, 70, 43
1, 361981, Note_off_c, 0, 82, 45
1, 361984, Note_on_c, 0, 94, 64
1, 361999, Note_off_c, 0, 66, 37
1, 362003, Note_on_c, 0, 67, 36
1, 362005, Note_on_c, 0, 91, 43
1, 362015, Control_c, 0, 67, 71
1, 362045, Control_c, 0, 67, 70
1, 362074, Control_c, 0, 67, 70
1, 362103, Control_c, 0, 67, 69
1, 362118, Control_c, 0, 67, 69
1, 362142, Note_off_c, 0, 91, 23
1, 362148, Control_c, 0, 67, 68
1, 362183, Note_off_c, 0, 94, 38
1, 362223, Control_c, 0, 67, 68
1, 362261, Note_on_c, 0, 82, 41
1, 362276, Note_on_c, 0, 70, 34
1, 362342, Note_off_c, 0, 70, 52
1, 362393, Control_c, 0, 67, 67
1, 362511, Note_off_c, 0, 82, 44
1, 362532, Note_on_c, 0, 86, 42
1, 362538, Note_on_c, 0, 91, 48
1, 362631, Control_c, 0, 67, 67
1, 362843, Note_off_c, 0, 67, 38
1, 362846, Note_off_c, 0, 91, 43
1, 362853, Control_c, 0, 67, 66
1, 362867, Note_off_c, 0, 86, 44
1, 362890, Note_on_c, 0, 82, 35
1, 362896, Note_on_c, 0, 70, 37
1, 362938, Note_off_c, 0, 70, 57
1, 362950, Note_off_c, 0, 82, 44
1, 362987, Control_c, 0, 67, 66
1, 363260, Control_c, 0, 67, 65
1, 363395, Control_c, 0, 67, 65
1, 363570, Note_on_c, 0, 63, 54
1, 363573, Control_c, 0, 64, 116
1, 363576, Note_on_c, 0, 58, 51
1, 363582, Note_on_c, 0, 51, 50
1, 363582, Note_on_c, 0, 55, 48
1, 363588, Control_c, 0, 64, 107
1, 363602, Control_c, 0, 64, 101
1, 363617, Control_c, 0, 64, 93
1, 363632, Control_c, 0, 64, 83
1, 363647, Control_c, 0, 64, 71
1, 363662, Control_c, 0, 64, 53
1, 363676, Control_c, 0, 64, 0
1, 363750, Control_c, 0, 64, 41
1, 363765, Control_c, 0, 64, 54
1, 363787, Control_c, 0, 64, 61
1, 363787, Control_c, 0, 67, 64
1, 363802, Control_c, 0, 64, 64
1, 363817, Control_c, 0, 64, 67
1, 363832, Control_c, 0, 64, 68
1, 363847, Control_c, 0, 64, 70
1, 363862, Control_c, 0, 64, 72
1, 363877, Control_c, 0, 64, 75
1, 363877, Control_c, 0, 67, 64
1, 363891, Control_c, 0, 64, 77
1, 363906, Control_c, 0, 64, 79
1, 363921, Control_c, 0, 64, 80
1, 363936, Control_c, 0, 64, 82
1, 363944, Note_on_c, 0, 79, 39
1, 363944, Note_on_c, 0, 82, 46
1, 363948, Note_on_c, 0, 70, 23
1, 363951, Control_c, 0, 64, 84
1, 363965, Control_c, 0, 64, 87
1, 363980, Control_c, 0, 64, 89
1, 363980, Control_c, 0, 67, 63
1, 363995, Control_c, 0, 64, 91
1, 364009, Control_c, 0, 64, 93
1, 364024, Control_c, 0, 64, 96
1, 364024, Control_c, 0, 67, 63
1, 364039, Control_c, 0, 64, 99
1, 364039, Control_c, 0, 67, 62
1, 364054, Control_c, 0, 64, 105
1, 364054, Control_c, 0, 67, 60
1, 364069, Control_c, 0, 64, 110
1, 364069, Control_c, 0, 67, 58
1, 364081, Note_off_c, 0, 70, 37
1, 364083, Control_c, 0, 64, 117
1, 364083, Control_c, 0, 67, 57
1, 364098, Control_c, 0, 64, 127
1, 364098, Control_c, 0, 67, 55
1, 364113, Control_c, 0, 67, 53
1, 364124, Note_off_c, 0, 51, 52
1, 364128, Control_c, 0, 67, 51
1, 364143, Control_c, 0, 67, 49
1, 364159, Control_c, 0, 67, 47
1, 364163, Note_off_c, 0, 79, 35
1, 364174, Control_c, 0, 67, 45
1, 364188, Control_c, 0, 67, 42
1, 364203, Control_c, 0, 67, 39
1, 364212, Note_off_c, 0, 82, 36
1, 364218, Control_c, 0, 67, 35
1, 364225, Note_off_c, 0, 55, 33
1, 364233, Control_c, 0, 67, 31
1, 364243, Note_off_c, 0, 63, 61
1, 364248, Control_c, 0, 67, 28
1, 364262, Control_c, 0, 67, 24
1, 364277, Control_c, 0, 67, 19
1, 364292, Control_c, 0, 67, 16
1, 364306, Control_c, 0, 67, 14
1, 364321, Control_c, 0, 67, 13
1, 364336, Control_c, 0, 67, 12
1, 364351, Control_c, 0, 67, 11
1, 364366, Control_c, 0, 67, 10
1, 364380, Control_c, 0, 67, 10
1, 364395, Control_c, 0, 67, 9
1, 364413, Note_off_c, 0, 58, 57
1, 364417, Note_on_c, 0, 53, 51
1, 364424, Control_c, 0, 67, 8
1, 364429, Note_on_c, 0, 65, 52
1, 364439, Control_c, 0, 67, 8
1, 364443, Note_on_c, 0, 82, 43
1, 364449, Note_off_c, 0, 53, 67
1, 364453, Note_off_c, 0, 65, 59
1, 364454, Control_c, 0, 67, 0
1, 364464, Note_on_c, 0, 79, 30
1, 364485, Poly_aftertouch_c, 0, 70, 127
1, 364539, Note_on_c, 0, 51, 61
1, 364544, Note_on_c, 0, 63, 61
1, 364577, Poly_aftertouch_c, 0, 70, 0
1, 364639, Note_off_c, 0, 79, 20
1, 364639, Control_c, 0, 67, 8
1, 364669, Control_c, 0, 67, 8
1, 364676, Note_off_c, 0, 63, 63
1, 364682, Note_off_c, 0, 82, 32
1, 364713, Control_c, 0, 67, 9
1, 364773, Control_c, 0, 64, 99
1, 364787, Note_on_c, 0, 62, 60
1, 364787, Control_c, 0, 64, 80
1, 364789, Note_on_c, 0, 50, 64
1, 364792, Note_off_c, 0, 51, 62
1, 364802, Control_c, 0, 64, 63
1, 364817, Control_c, 0, 64, 0
1, 364846, Control_c, 0, 64, 28
1, 364861, Control_c, 0, 64, 41
1, 364876, Control_c, 0, 64, 54
1, 364891, Control_c, 0, 64, 64
1, 364905, Control_c, 0, 64, 68
1, 364920, Control_c, 0, 64, 71
1, 364935, Control_c, 0, 64, 75
1, 364948, Note_off_c, 0, 62, 61
1, 364950, Control_c, 0, 64, 80
1, 364966, Control_c, 0, 64, 87
1, 364981, Control_c, 0, 64, 92
1, 365010, Control_c, 0, 64, 87
1, 365025, Control_c, 0, 64, 79
1, 365033, Note_on_c, 0, 51, 70
1, 365040, Control_c, 0, 64, 70
1, 365045, Note_on_c, 0, 63, 73
1, 365050, Note_on_c, 0, 82, 52
1, 365054, Control_c, 0, 64, 67
1, 365067, Note_on_c, 0, 79, 39
1, 365069, Control_c, 0, 64, 68
1, 365079, Note_on_c, 0, 70, 9
1, 365084, Control_c, 0, 64, 70
1, 365084, Control_c, 0, 67, 9
1, 365090, Note_off_c, 0, 50, 35
1, 365099, Control_c, 0, 64, 73
1, 365114, Control_c, 0, 64, 76
1, 365114, Control_c, 0, 67, 10
1, 365129, Control_c, 0, 64, 80
1, 365144, Control_c, 0, 64, 84
1, 365159, Control_c, 0, 64, 87
1, 365166, Note_off_c, 0, 51, 64
1, 365172, Note_off_c, 0, 63, 63
1, 365174, Control_c, 0, 64, 90
1, 365189, Control_c, 0, 64, 93
1, 365203, Control_c, 0, 64, 96
1, 365218, Control_c, 0, 64, 97
1, 365248, Control_c, 0, 64, 95
1, 365257, Note_on_c, 0, 67, 77
1, 365263, Control_c, 0, 64, 88
1, 365266, Note_on_c, 0, 55, 66
1, 365285, Control_c, 0, 64, 78
1, 365300, Control_c, 0, 64, 73
1, 365315, Control_c, 0, 64, 76
1, 365329, Control_c, 0, 64, 79
1, 365336, Note_off_c, 0, 82, 37
1, 365344, Control_c, 0, 64, 82
1, 365349, Note_off_c, 0, 70, 33
1, 365359, Control_c, 0, 64, 87
1, 365360, Note_off_c, 0, 79, 30
1, 365370, Note_off_c, 0, 55, 65
1, 365372, Note_off_c, 0, 67, 62
1, 365374, Control_c, 0, 64, 93
1, 365389, Control_c, 0, 64, 98
1, 365403, Control_c, 0, 64, 101
1, 365418, Control_c, 0, 64, 103
1, 365433, Control_c, 0, 64, 104
1, 365448, Control_c, 0, 64, 105
1, 365463, Control_c, 0, 64, 106
1, 365477, Control_c, 0, 64, 108
1, 365488, Note_on_c, 0, 63, 75
1, 365492, Note_on_c, 0, 51, 70
1, 365492, Control_c, 0, 64, 110
1, 365507, Note_on_c, 0, 70, 46
1, 365507, Note_on_c, 0, 82, 59
1, 365507, Control_c, 0, 64, 112
1, 365522, Control_c, 0, 64, 113
1, 365527, Note_on_c, 0, 79, 5
1, 365528, Note_off_c, 0, 51, 62
1, 365537, Control_c, 0, 64, 114
1, 365546, Note_off_c, 0, 63, 60
1, 365585, Note_off_c, 0, 79, 51
1, 365596, Control_c, 0, 64, 113
1, 365601, Note_off_c, 0, 82, 54
1, 365626, Control_c, 0, 64, 113
1, 365641, Control_c, 0, 64, 111
1, 365641, Control_c, 0, 67, 10
1, 365655, Control_c, 0, 64, 108
1, 365655, Control_c, 0, 67, 11
1, 365670, Control_c, 0, 64, 104
1, 365670, Control_c, 0, 67, 11
1, 365677, Note_off_c, 0, 70, 29
1, 365685, Control_c, 0, 64, 94
1, 365700, Control_c, 0, 64, 81
1, 365700, Control_c, 0, 67, 12
1, 365715, Control_c, 0, 64, 67
1, 365717, Note_on_c, 0, 63, 60
1, 365722, Note_on_c, 0, 51, 53
1, 365723, Note_on_c, 0, 55, 54
1, 365725, Note_on_c, 0, 58, 54
1, 365729, Control_c, 0, 64, 0
1, 365729, Control_c, 0, 67, 12
1, 365805, Control_c, 0, 64, 38
1, 365805, Control_c, 0, 67, 13
1, 365820, Control_c, 0, 64, 54
1, 365834, Control_c, 0, 64, 60
1, 365849, Control_c, 0, 64, 63
1, 365864, Control_c, 0, 64, 66
1, 365878, Control_c, 0, 64, 68
1, 365878, Control_c, 0, 67, 13
1, 365893, Control_c, 0, 64, 70
1, 365908, Control_c, 0, 64, 73
1, 365908, Control_c, 0, 67, 14
1, 365923, Control_c, 0, 64, 75
1, 365938, Control_c, 0, 64, 78
1, 365938, Control_c, 0, 67, 15
1, 365952, Control_c, 0, 64, 81
1, 365952, Control_c, 0, 67, 15
1, 365954, Note_on_c, 0, 82, 56
1, 365959, Note_on_c, 0, 79, 50
1, 365960, Note_on_c, 0, 70, 42
1, 365967, Control_c, 0, 64, 85
1, 365967, Control_c, 0, 67, 16
1, 365969, Note_on_c, 0, 73, 34
1, 365982, Control_c, 0, 64, 88
1, 365982, Control_c, 0, 67, 16
1, 365987, Note_off_c, 0, 63, 60
1, 365997, Control_c, 0, 64, 91
1, 365997, Control_c, 0, 67, 17
1, 366005, Note_off_c, 0, 51, 39
1, 366012, Control_c, 0, 64, 92
1, 366034, Control_c, 0, 64, 93
1, 366064, Control_c, 0, 67, 17
1, 366138, Control_c, 0, 64, 91
1, 366138, Control_c, 0, 67, 18
1, 366148, Note_off_c, 0, 82, 35
1, 366152, Control_c, 0, 64, 87
1, 366159, Note_on_c, 0, 62, 55
1, 366167, Control_c, 0, 64, 78
1, 366167, Control_c, 0, 67, 18
1, 366172, Note_off_c, 0, 73, 46
1, 366172, Note_off_c, 0, 79, 37
1, 366181, Note_on_c, 0, 50, 50
1, 366182, Control_c, 0, 64, 67
1, 366182, Control_c, 0, 67, 19
1, 366187, Note_off_c, 0, 70, 33
1, 366197, Control_c, 0, 64, 0
1, 366211, Control_c, 0, 67, 19
1, 366271, Control_c, 0, 64, 21
1, 366271, Control_c, 0, 67, 20
1, 366285, Control_c, 0, 64, 41
1, 366300, Control_c, 0, 64, 52
1, 366315, Control_c, 0, 64, 60
1, 366330, Control_c, 0, 64, 65
1, 366330, Control_c, 0, 67, 20
1, 366345, Control_c, 0, 64, 68
1, 366360, Control_c, 0, 64, 70
1, 366375, Control_c, 0, 64, 72
1, 366390, Control_c, 0, 64, 75
1, 366401, Note_on_c, 0, 70, 44
1, 366404, Control_c, 0, 64, 79
1, 366404, Control_c, 0, 67, 21
1, 366413, Note_on_c, 0, 82, 45
1, 366414, Note_on_c, 0, 74, 39
1, 366418, Note_off_c, 0, 62, 58
1, 366419, Note_off_c, 0, 55, 57
1, 366419, Control_c, 0, 64, 83
1, 366420, Note_on_c, 0, 79, 42
1, 366427, Note_off_c, 0, 50, 51
1, 366427, Note_off_c, 0, 58, 59
1, 366434, Control_c, 0, 64, 86
1, 366434, Control_c, 0, 67, 21
1, 366449, Control_c, 0, 64, 88
1, 366449, Control_c, 0, 67, 22
1, 366464, Control_c, 0, 64, 90
1, 366464, Control_c, 0, 67, 23
1, 366478, Control_c, 0, 64, 92
1, 366478, Control_c, 0, 67, 24
1, 366493, Control_c, 0, 64, 93
1, 366493, Control_c, 0, 67, 24
1, 366508, Control_c, 0, 67, 25
1, 366523, Control_c, 0, 67, 26
1, 366554, Control_c, 0, 67, 27
1, 366580, Note_off_c, 0, 82, 37
1, 366583, Control_c, 0, 67, 27
1, 366586, Note_off_c, 0, 70, 39
1, 366598, Control_c, 0, 67, 28
1, 366600, Note_off_c, 0, 74, 39
1, 366600, Note_off_c, 0, 79, 36
1, 366613, Control_c, 0, 64, 93
1, 366613, Control_c, 0, 67, 28
1, 366627, Control_c, 0, 64, 92
1, 366627, Control_c, 0, 67, 29
1, 366642, Control_c, 0, 64, 89
1, 366642, Control_c, 0, 67, 29
1, 366651, Note_on_c, 0, 62, 49
1, 366654, Note_on_c, 0, 55, 51
1, 366657, Note_on_c, 0, 58, 48
1, 366657, Control_c, 0, 64, 84
1, 366657, Control_c, 0, 67, 30
1, 366670, Note_on_c, 0, 50, 40
1, 366672, Control_c, 0, 64, 76
1, 366672, Control_c, 0, 67, 30
1, 366687, Control_c, 0, 64, 65
1, 366687, Control_c, 0, 67, 31
1, 366701, Control_c, 0, 64, 0
1, 366701, Control_c, 0, 67, 32
1, 366813, Control_c, 0, 64, 24
1, 366827, Control_c, 0, 64, 36
1, 366842, Control_c, 0, 64, 46
1, 366857, Control_c, 0, 64, 53
1, 366872, Control_c, 0, 64, 59
1, 366887, Control_c, 0, 64, 62
1, 366901, Control_c, 0, 64, 64
1, 366916, Control_c, 0, 64, 66
1, 366927, Note_on_c, 0, 82, 52
1, 366931, Control_c, 0, 64, 68
1, 366933, Note_on_c, 0, 70, 38
1, 366936, Note_on_c, 0, 74, 37
1, 366941, Note_on_c, 0, 79, 44
1, 366946, Control_c, 0, 64, 70
1, 366946, Control_c, 0, 67, 32
1, 366961, Control_c, 0, 64, 73
1, 366976, Control_c, 0, 64, 75
1, 366976, Control_c, 0, 67, 33
1, 366990, Control_c, 0, 64, 76
1, 367005, Control_c, 0, 64, 78
1, 367020, Control_c, 0, 64, 80
1, 367020, Control_c, 0, 67, 34
1, 367034, Control_c, 0, 64, 82
1, 367034, Control_c, 0, 67, 36
1, 367049, Control_c, 0, 64, 85
1, 367049, Control_c, 0, 67, 39
1, 367064, Control_c, 0, 64, 88
1, 367064, Control_c, 0, 67, 42
1, 367079, Control_c, 0, 64, 89
1, 367079, Control_c, 0, 67, 44
1, 367094, Control_c, 0, 64, 92
1, 367094, Control_c, 0, 67, 47
1, 367108, Control_c, 0, 64, 94
1, 367108, Control_c, 0, 67, 50
1, 367123, Control_c, 0, 64, 96
1, 367123, Control_c, 0, 67, 52
1, 367138, Control_c, 0, 64, 99
1, 367138, Control_c, 0, 67, 54
1, 367139, Note_off_c, 0, 82, 32
1, 367149, Note_off_c, 0, 70, 29
1, 367153, Control_c, 0, 64, 101
1, 367153, Control_c, 0, 67, 56
1, 367163, Note_off_c, 0, 79, 30
1, 367165, Note_off_c, 0, 74, 36
1, 367168, Control_c, 0, 64, 104
1, 367168, Control_c, 0, 67, 60
1, 367183, Control_c, 0, 64, 105
1, 367183, Control_c, 0, 67, 63
1, 367197, Control_c, 0, 64, 107
1, 367197, Control_c, 0, 67, 65
1, 367212, Control_c, 0, 64, 109
1, 367212, Control_c, 0, 67, 68
1, 367227, Control_c, 0, 64, 110
1, 367227, Control_c, 0, 67, 71
1, 367242, Control_c, 0, 64, 110
1, 367242, Control_c, 0, 67, 74
1, 367249, Note_off_c, 0, 55, 51
1, 367257, Control_c, 0, 67, 76
1, 367262, Note_off_c, 0, 50, 45
1, 367272, Control_c, 0, 67, 79
1, 367287, Control_c, 0, 67, 82
1, 367301, Control_c, 0, 67, 85
1, 367302, Note_off_c, 0, 62, 34
1, 367316, Control_c, 0, 64, 111
1, 367316, Control_c, 0, 67, 88
1, 367331, Control_c, 0, 67, 91
1, 367346, Control_c, 0, 67, 94
1, 367361, Note_off_c, 0, 58, 41
1, 367361, Control_c, 0, 67, 97
1, 367376, Control_c, 0, 67, 100
1, 367391, Control_c, 0, 67, 103
1, 367406, Control_c, 0, 67, 105
1, 367421, Control_c, 0, 67, 107
1, 367436, Control_c, 0, 67, 110
1, 367450, Control_c, 0, 67, 113
1, 367465, Control_c, 0, 67, 115
1, 367480, Control_c, 0, 67, 118
1, 367495, Control_c, 0, 67, 119
1, 367510, Control_c, 0, 67, 121
1, 367531, Control_c, 0, 67, 122
1, 367546, Control_c, 0, 67, 123
1, 367561, Control_c, 0, 67, 124
1, 367576, Control_c, 0, 64, 110
1, 367576, Control_c, 0, 67, 125
1, 367591, Control_c, 0, 67, 126
1, 367594, Note_on_c, 0, 82, 47
1, 367605, Note_on_c, 0, 70, 31
1, 367606, Control_c, 0, 67, 127
1, 367609, Note_on_c, 0, 74, 29
1, 367610, Note_on_c, 0, 79, 40
1, 367794, Note_off_c, 0, 70, 37
1, 367794, Note_off_c, 0, 74, 28
1, 367820, Note_off_c, 0, 82, 39
1, 367826, Note_off_c, 0, 79, 39
1, 367961, Control_c, 0, 64, 110
1, 367975, Control_c, 0, 64, 109
1, 367990, Control_c, 0, 64, 109
1, 368005, Control_c, 0, 64, 108
1, 368020, Control_c, 0, 64, 108
1, 368035, Control_c, 0, 64, 107
1, 368065, Control_c, 0, 64, 107
1, 368080, Control_c, 0, 64, 106
1, 368095, Control_c, 0, 64, 104
1, 368110, Control_c, 0, 64, 103
1, 368124, Control_c, 0, 64, 101
1, 368139, Control_c, 0, 64, 99
1, 368148, Note_on_c, 0, 62, 41
1, 368154, Control_c, 0, 64, 95
1, 368167, Note_on_c, 0, 53, 41
1, 368169, Note_on_c, 0, 50, 38
1, 368169, Control_c, 0, 64, 91
1, 368175, Note_on_c, 0, 58, 36
1, 368184, Control_c, 0, 64, 86
1, 368195, Note_on_c, 0, 56, 38
1, 368199, Control_c, 0, 64, 79
1, 368214, Control_c, 0, 64, 70
1, 368229, Control_c, 0, 64, 54
1, 368244, Control_c, 0, 64, 0
1, 368473, Control_c, 0, 64, 34
1, 368488, Control_c, 0, 64, 52
1, 368503, Control_c, 0, 64, 60
1, 368518, Control_c, 0, 64, 63
1, 368533, Control_c, 0, 64, 65
1, 368547, Control_c, 0, 64, 66
1, 368562, Control_c, 0, 64, 68
1, 368577, Control_c, 0, 64, 70
1, 368592, Control_c, 0, 64, 73
1, 368595, Note_on_c, 0, 82, 39
1, 368598, Note_on_c, 0, 70, 26
1, 368603, Note_on_c, 0, 77, 32
1, 368605, Note_on_c, 0, 80, 37
1, 368606, Control_c, 0, 64, 74
1, 368621, Control_c, 0, 64, 76
1, 368636, Control_c, 0, 64, 78
1, 368651, Control_c, 0, 64, 80
1, 368666, Control_c, 0, 64, 82
1, 368680, Control_c, 0, 64, 84
1, 368695, Control_c, 0, 64, 85
1, 368710, Control_c, 0, 64, 87
1, 368725, Control_c, 0, 64, 89
1, 368740, Control_c, 0, 64, 92
1, 368746, Note_off_c, 0, 62, 52
1, 368752, Note_off_c, 0, 56, 63
1, 368754, Control_c, 0, 64, 93
1, 368769, Control_c, 0, 64, 95
1, 368776, Note_off_c, 0, 53, 39
1, 368776, Note_off_c, 0, 58, 60
1, 368784, Control_c, 0, 64, 97
1, 368794, Note_off_c, 0, 70, 35
1, 368798, Control_c, 0, 64, 99
1, 368804, Note_off_c, 0, 80, 38
1, 368808, Note_off_c, 0, 77, 36
1, 368813, Control_c, 0, 64, 101
1, 368818, Note_off_c, 0, 82, 38
1, 368828, Control_c, 0, 64, 103
1, 368843, Control_c, 0, 64, 104
1, 368858, Control_c, 0, 64, 105
1, 368873, Control_c, 0, 64, 106
1, 368888, Control_c, 0, 64, 107
1, 368902, Control_c, 0, 64, 108
1, 368902, Control_c, 0, 67, 127
1, 368932, Control_c, 0, 64, 108
1, 368948, Control_c, 0, 67, 126
1, 369001, Note_off_c, 0, 50, 50
1, 369037, Note_on_c, 0, 63, 48
1, 369040, Note_on_c, 0, 51, 53
1, 369060, Note_on_c, 0, 82, 32
1, 369062, Note_on_c, 0, 80, 33
1, 369065, Note_off_c, 0, 63, 59
1, 369089, Control_c, 0, 67, 126
1, 369093, Poly_aftertouch_c, 0, 70, 127
1, 369110, Poly_aftertouch_c, 0, 77, 127
1, 369126, Note_off_c, 0, 51, 59
1, 369127, Note_on_c, 0, 50, 61
1, 369150, Note_on_c, 0, 62, 54
1, 369163, Control_c, 0, 64, 108
1, 369187, Poly_aftertouch_c, 0, 77, 0
1, 369202, Note_off_c, 0, 62, 56
1, 369221, Control_c, 0, 64, 107
1, 369236, Control_c, 0, 64, 106
1, 369251, Control_c, 0, 64, 106
1, 369266, Control_c, 0, 64, 105
1, 369281, Note_off_c, 0, 82, 31
1, 369281, Control_c, 0, 64, 105
1, 369296, Control_c, 0, 64, 104
1, 369311, Control_c, 0, 64, 103
1, 369326, Control_c, 0, 64, 99
1, 369341, Control_c, 0, 64, 90
1, 369342, Note_on_c, 0, 49, 63
1, 369344, Note_on_c, 0, 61, 60
1, 369356, Control_c, 0, 64, 76
1, 369359, Note_off_c, 0, 50, 56
1, 369361, Note_off_c, 0, 80, 35
1, 369364, Poly_aftertouch_c, 0, 70, 0
1, 369370, Control_c, 0, 64, 56
1, 369385, Control_c, 0, 64, 0
1, 369429, Control_c, 0, 64, 41
1, 369444, Control_c, 0, 64, 60
1, 369459, Control_c, 0, 64, 66
1, 369474, Control_c, 0, 64, 72
1, 369489, Control_c, 0, 64, 76
1, 369503, Control_c, 0, 64, 79
1, 369511, Note_off_c, 0, 61, 62
1, 369518, Control_c, 0, 64, 79
1, 369533, Control_c, 0, 64, 76
1, 369548, Control_c, 0, 64, 72
1, 369563, Note_on_c, 0, 50, 72
1, 369563, Control_c, 0, 64, 67
1, 369563, Control_c, 0, 67, 125
1, 369568, Note_on_c, 0, 62, 69
1, 369577, Control_c, 0, 64, 68
1, 369577, Control_c, 0, 67, 125
1, 369585, Note_on_c, 0, 80, 43
1, 369585, Note_on_c, 0, 82, 42
1, 369592, Control_c, 0, 64, 69
1, 369592, Control_c, 0, 67, 124
1, 369594, Note_on_c, 0, 70, 31
1, 369607, Control_c, 0, 64, 70
1, 369607, Control_c, 0, 67, 123
1, 369611, Note_on_c, 0, 77, 19
1, 369611, Note_off_c, 0, 49, 63
1, 369621, Control_c, 0, 64, 72
1, 369621, Control_c, 0, 67, 123
1, 369636, Control_c, 0, 64, 75
1, 369636, Control_c, 0, 67, 122
1, 369651, Control_c, 0, 64, 79
1, 369660, Note_off_c, 0, 50, 64
1, 369666, Control_c, 0, 64, 83
1, 369666, Control_c, 0, 67, 122
1, 369681, Control_c, 0, 64, 86
1, 369695, Control_c, 0, 64, 89
1, 369700, Note_off_c, 0, 62, 61
1, 369710, Note_off_c, 0, 77, 0
1, 369710, Control_c, 0, 64, 92
1, 369725, Control_c, 0, 64, 94
1, 369749, Poly_aftertouch_c, 0, 77, 127
1, 369756, Control_c, 0, 64, 91
1, 369779, Control_c, 0, 64, 83
1, 369794, Control_c, 0, 64, 71
1, 369796, Note_on_c, 0, 65, 75
1, 369804, Note_on_c, 0, 53, 68
1, 369808, Control_c, 0, 64, 63
1, 369823, Control_c, 0, 64, 66
1, 369838, Control_c, 0, 64, 70
1, 369852, Control_c, 0, 64, 74
1, 369867, Control_c, 0, 64, 79
1, 369882, Note_off_c, 0, 82, 27
1, 369882, Control_c, 0, 64, 84
1, 369897, Control_c, 0, 64, 91
1, 369908, Note_off_c, 0, 65, 64
1, 369912, Control_c, 0, 64, 96
1, 369913, Poly_aftertouch_c, 0, 77, 0
1, 369927, Note_off_c, 0, 53, 65
1, 369931, Note_off_c, 0, 70, 43
1, 369941, Control_c, 0, 64, 95
1, 369950, Note_off_c, 0, 80, 42
1, 369956, Control_c, 0, 64, 88
1, 369971, Control_c, 0, 64, 79
1, 369986, Control_c, 0, 64, 72
1, 369986, Control_c, 0, 67, 121
1, 370000, Control_c, 0, 64, 73
1, 370000, Control_c, 0, 67, 121
1, 370011, Note_on_c, 0, 62, 72
1, 370014, Note_on_c, 0, 50, 70
1, 370015, Control_c, 0, 64, 78
1, 370017, Note_on_c, 0, 82, 55
1, 370030, Control_c, 0, 64, 84
1, 370038, Note_on_c, 0, 70, 39
1, 370044, Control_c, 0, 64, 91
1, 370044, Control_c, 0, 67, 120
1, 370053, Note_on_c, 0, 80, 45
1, 370059, Control_c, 0, 64, 98
1, 370064, Note_off_c, 0, 50, 65
1, 370068, Note_on_c, 0, 77, 28
1, 370074, Control_c, 0, 64, 103
1, 370074, Control_c, 0, 67, 120
1, 370089, Control_c, 0, 64, 106
1, 370097, Note_off_c, 0, 62, 55
1, 370104, Control_c, 0, 64, 109
1, 370119, Control_c, 0, 64, 109
1, 370119, Note_off_c, 0, 77, 45
1, 370163, Control_c, 0, 64, 109
1, 370192, Note_off_c, 0, 82, 30
1, 370193, Control_c, 0, 64, 108
1, 370208, Control_c, 0, 64, 104
1, 370223, Control_c, 0, 64, 98
1, 370229, Note_off_c, 0, 80, 42
1, 370238, Control_c, 0, 64, 88
1, 370244, Note_on_c, 0, 62, 54
1, 370252, Control_c, 0, 64, 76
1, 370253, Note_on_c, 0, 58, 54
1, 370253, Note_off_c, 0, 70, 38
1, 370257, Note_on_c, 0, 55, 52
1, 370258, Note_on_c, 0, 50, 55
1, 370267, Control_c, 0, 64, 62
1, 370282, Control_c, 0, 64, 0
1, 370356, Control_c, 0, 67, 119
1, 370385, Control_c, 0, 67, 119
1, 370415, Control_c, 0, 64, 43
1, 370415, Control_c, 0, 67, 118
1, 370430, Control_c, 0, 64, 61
1, 370444, Control_c, 0, 64, 65
1, 370444, Control_c, 0, 67, 118
1, 370445, Note_off_c, 0, 50, 63
1, 370459, Control_c, 0, 64, 67
1, 370459, Control_c, 0, 67, 117
1, 370474, Control_c, 0, 64, 69
1, 370474, Control_c, 0, 67, 114
1, 370489, Note_on_c, 0, 70, 39
1, 370489, Control_c, 0, 64, 72
1, 370489, Control_c, 0, 67, 112
1, 370494, Note_on_c, 0, 82, 46
1, 370495, Note_on_c, 0, 79, 46
1, 370504, Control_c, 0, 64, 75
1, 370504, Control_c, 0, 67, 110
1, 370509, Note_on_c, 0, 76, 37
1, 370526, Control_c, 0, 64, 79
1, 370526, Control_c, 0, 67, 108
1, 370528, Note_off_c, 0, 62, 61
1, 370541, Control_c, 0, 64, 82
1, 370541, Control_c, 0, 67, 106
1, 370557, Control_c, 0, 64, 85
1, 370557, Control_c, 0, 67, 104
1, 370572, Control_c, 0, 64, 87
1, 370572, Control_c, 0, 67, 102
1, 370587, Control_c, 0, 64, 90
1, 370587, Control_c, 0, 67, 100
1, 370602, Control_c, 0, 64, 93
1, 370602, Control_c, 0, 67, 98
1, 370617, Control_c, 0, 64, 95
1, 370617, Control_c, 0, 67, 96
1, 370631, Control_c, 0, 64, 95
1, 370631, Control_c, 0, 67, 93
1, 370646, Control_c, 0, 67, 90
1, 370661, Control_c, 0, 67, 86
1, 370671, Note_off_c, 0, 82, 42
1, 370676, Control_c, 0, 67, 84
1, 370690, Control_c, 0, 67, 82
1, 370700, Note_off_c, 0, 79, 33
1, 370702, Note_off_c, 0, 70, 34
1, 370705, Control_c, 0, 64, 95
1, 370705, Control_c, 0, 67, 81
1, 370706, Note_off_c, 0, 76, 37
1, 370720, Control_c, 0, 64, 93
1, 370720, Control_c, 0, 67, 80
1, 370730, Note_on_c, 0, 61, 53
1, 370734, Note_on_c, 0, 49, 54
1, 370735, Control_c, 0, 64, 90
1, 370735, Control_c, 0, 67, 78
1, 370749, Control_c, 0, 64, 83
1, 370749, Control_c, 0, 67, 77
1, 370764, Control_c, 0, 64, 73
1, 370764, Control_c, 0, 67, 76
1, 370779, Control_c, 0, 64, 62
1, 370779, Control_c, 0, 67, 75
1, 370793, Control_c, 0, 64, 42
1, 370793, Control_c, 0, 67, 74
1, 370808, Control_c, 0, 64, 57
1, 370808, Control_c, 0, 67, 73
1, 370823, Control_c, 0, 64, 61
1, 370823, Control_c, 0, 67, 71
1, 370838, Control_c, 0, 64, 63
1, 370838, Control_c, 0, 67, 69
1, 370853, Control_c, 0, 64, 64
1, 370853, Control_c, 0, 67, 67
1, 370867, Control_c, 0, 64, 66
1, 370867, Control_c, 0, 67, 65
1, 370882, Control_c, 0, 64, 68
1, 370882, Control_c, 0, 67, 63
1, 370897, Control_c, 0, 64, 72
1, 370897, Control_c, 0, 67, 61
1, 370912, Control_c, 0, 64, 75
1, 370912, Control_c, 0, 67, 58
1, 370927, Control_c, 0, 64, 78
1, 370927, Control_c, 0, 67, 56
1, 370938, Note_off_c, 0, 49, 56
1, 370939, Note_off_c, 0, 61, 61
1, 370941, Control_c, 0, 64, 81
1, 370941, Control_c, 0, 67, 55
1, 370956, Note_off_c, 0, 55, 57
1, 370956, Control_c, 0, 64, 83
1, 370956, Control_c, 0, 67, 53
1, 370957, Note_off_c, 0, 58, 59
1, 370959, Note_on_c, 0, 82, 46
1, 370963, Note_on_c, 0, 70, 33
1, 370966, Note_on_c, 0, 79, 41
1, 370971, Control_c, 0, 64, 86
1, 370971, Control_c, 0, 67, 50
1, 370973, Note_on_c, 0, 76, 37
1, 370986, Control_c, 0, 64, 89
1, 370986, Control_c, 0, 67, 48
1, 371001, Control_c, 0, 64, 92
1, 371001, Control_c, 0, 67, 45
1, 371016, Control_c, 0, 64, 96
1, 371016, Control_c, 0, 67, 41
1, 371031, Control_c, 0, 64, 99
1, 371031, Control_c, 0, 67, 36
1, 371046, Control_c, 0, 64, 102
1, 371046, Control_c, 0, 67, 28
1, 371061, Control_c, 0, 64, 104
1, 371061, Control_c, 0, 67, 20
1, 371075, Control_c, 0, 64, 105
1, 371075, Control_c, 0, 67, 13
1, 371090, Control_c, 0, 67, 0
1, 371125, Note_off_c, 0, 70, 24
1, 371129, Note_off_c, 0, 82, 30
1, 371140, Note_off_c, 0, 76, 29
1, 371147, Note_off_c, 0, 79, 34
1, 371165, Control_c, 0, 64, 103
1, 371180, Control_c, 0, 64, 100
1, 371188, Note_on_c, 0, 49, 48
1, 371194, Control_c, 0, 64, 94
1, 371195, Note_on_c, 0, 58, 44
1, 371196, Note_on_c, 0, 55, 48
1, 371201, Note_on_c, 0, 61, 42
1, 371209, Control_c, 0, 64, 86
1, 371224, Control_c, 0, 64, 75
1, 371239, Control_c, 0, 64, 64
1, 371254, Control_c, 0, 64, 60
1, 371275, Control_c, 0, 64, 63
1, 371290, Control_c, 0, 64, 63
1, 371305, Control_c, 0, 64, 64
1, 371320, Control_c, 0, 64, 65
1, 371335, Control_c, 0, 64, 66
1, 371351, Control_c, 0, 64, 68
1, 371366, Control_c, 0, 64, 70
1, 371380, Control_c, 0, 64, 72
1, 371395, Control_c, 0, 64, 73
1, 371410, Control_c, 0, 64, 74
1, 371424, Control_c, 0, 64, 75
1, 371439, Control_c, 0, 64, 77
1, 371454, Control_c, 0, 64, 79
1, 371455, Note_on_c, 0, 82, 53
1, 371460, Note_on_c, 0, 70, 34
1, 371460, Note_on_c, 0, 76, 44
1, 371462, Note_on_c, 0, 79, 48
1, 371469, Control_c, 0, 64, 82
1, 371484, Control_c, 0, 64, 83
1, 371499, Control_c, 0, 64, 84
1, 371514, Control_c, 0, 64, 86
1, 371529, Control_c, 0, 64, 88
1, 371543, Note_off_c, 0, 49, 42
1, 371544, Control_c, 0, 64, 90
1, 371558, Control_c, 0, 64, 91
1, 371573, Control_c, 0, 64, 93
1, 371577, Note_off_c, 0, 61, 60
1, 371588, Control_c, 0, 64, 95
1, 371603, Control_c, 0, 64, 97
1, 371618, Control_c, 0, 64, 99
1, 371626, Note_off_c, 0, 70, 44
1, 371632, Control_c, 0, 64, 102
1, 371647, Control_c, 0, 64, 105
1, 371662, Control_c, 0, 64, 109
1, 371677, Control_c, 0, 64, 113
1, 371689, Note_off_c, 0, 76, 30
1, 371692, Control_c, 0, 64, 117
1, 371706, Control_c, 0, 64, 127
1, 371713, Note_off_c, 0, 79, 29
1, 371739, Note_off_c, 0, 82, 39
1, 371924, Note_on_c, 0, 49, 56
1, 371924, Note_off_c, 0, 55, 53
1, 371925, Note_on_c, 0, 70, 47
1, 371931, Note_on_c, 0, 82, 55
1, 371933, Note_on_c, 0, 61, 45
1, 371950, Note_on_c, 0, 79, 44
1, 371952, Note_on_c, 0, 76, 41
1, 371961, Note_off_c, 0, 58, 52
1, 371983, Note_off_c, 0, 49, 58
1, 371983, Note_off_c, 0, 61, 54
1, 372089, Note_off_c, 0, 76, 25
1, 372124, Note_off_c, 0, 79, 41
1, 372128, Control_c, 0, 64, 126
1, 372140, Note_off_c, 0, 82, 51
1, 372144, Control_c, 0, 64, 111
1, 372159, Control_c, 0, 64, 101
1, 372172, Note_on_c, 0, 49, 54
1, 372173, Note_on_c, 0, 61, 50
1, 372174, Note_off_c, 0, 70, 43
1, 372174, Control_c, 0, 64, 88
1, 372189, Control_c, 0, 64, 73
1, 372203, Control_c, 0, 64, 61
1, 372218, Control_c, 0, 64, 59
1, 372233, Control_c, 0, 64, 64
1, 372247, Control_c, 0, 64, 64
1, 372262, Control_c, 0, 64, 65
1, 372277, Control_c, 0, 64, 66
1, 372292, Control_c, 0, 64, 69
1, 372307, Control_c, 0, 64, 72
1, 372322, Control_c, 0, 64, 74
1, 372336, Control_c, 0, 64, 76
1, 372351, Control_c, 0, 64, 78
1, 372366, Control_c, 0, 64, 81
1, 372381, Control_c, 0, 64, 84
1, 372396, Control_c, 0, 64, 87
1, 372411, Control_c, 0, 64, 89
1, 372426, Control_c, 0, 64, 91
1, 372440, Control_c, 0, 64, 94
1, 372455, Control_c, 0, 64, 97
1, 372470, Control_c, 0, 64, 100
1, 372485, Control_c, 0, 64, 101
1, 372491, Note_off_c, 0, 61, 52
1, 372500, Control_c, 0, 64, 101
1, 372513, Note_on_c, 0, 73, 45
1, 372515, Control_c, 0, 64, 102
1, 372515, Note_on_c, 0, 82, 61
1, 372515, Note_on_c, 0, 70, 44
1, 372516, Note_off_c, 0, 49, 56
1, 372518, Note_on_c, 0, 76, 48
1, 372529, Control_c, 0, 64, 104
1, 372544, Control_c, 0, 64, 107
1, 372559, Control_c, 0, 64, 108
1, 372573, Control_c, 0, 64, 109
1, 372676, Control_c, 0, 64, 108
1, 372721, Control_c, 0, 64, 107
1, 372736, Control_c, 0, 64, 103
1, 372751, Control_c, 0, 64, 97
1, 372758, Note_on_c, 0, 58, 61
1, 372771, Note_on_c, 0, 46, 55
1, 372772, Control_c, 0, 64, 88
1, 372787, Control_c, 0, 64, 76
1, 372802, Control_c, 0, 64, 66
1, 372817, Control_c, 0, 64, 67
1, 372825, Note_off_c, 0, 82, 34
1, 372832, Control_c, 0, 64, 71
1, 372841, Note_off_c, 0, 70, 37
1, 372846, Control_c, 0, 64, 73
1, 372849, Note_off_c, 0, 76, 31
1, 372855, Note_off_c, 0, 73, 45
1, 372861, Control_c, 0, 64, 74
1, 372876, Control_c, 0, 64, 77
1, 372891, Control_c, 0, 64, 81
1, 372906, Control_c, 0, 64, 87
1, 372921, Control_c, 0, 64, 91
1, 372936, Control_c, 0, 64, 93
1, 372951, Control_c, 0, 64, 94
1, 372966, Control_c, 0, 64, 96
1, 372981, Control_c, 0, 64, 100
1, 372995, Control_c, 0, 64, 104
1, 373004, Note_on_c, 0, 82, 74
1, 373005, Note_on_c, 0, 76, 57
1, 373010, Control_c, 0, 64, 107
1, 373011, Note_on_c, 0, 73, 53
1, 373013, Note_on_c, 0, 70, 52
1, 373025, Control_c, 0, 64, 108
1, 373040, Control_c, 0, 64, 109
1, 373048, Note_off_c, 0, 58, 56
1, 373055, Control_c, 0, 64, 110
1, 373085, Control_c, 0, 64, 110
1, 373170, Note_off_c, 0, 46, 29
1, 373188, Control_c, 0, 64, 106
1, 373203, Control_c, 0, 64, 98
1, 373218, Control_c, 0, 64, 86
1, 373229, Note_on_c, 0, 57, 70
1, 373233, Control_c, 0, 64, 73
1, 373240, Note_on_c, 0, 45, 64
1, 373248, Control_c, 0, 64, 67
1, 373262, Control_c, 0, 64, 69
1, 373277, Control_c, 0, 64, 72
1, 373292, Control_c, 0, 64, 73
1, 373307, Control_c, 0, 64, 74
1, 373322, Control_c, 0, 64, 78
1, 373326, Note_off_c, 0, 82, 48
1, 373336, Control_c, 0, 64, 83
1, 373339, Note_off_c, 0, 70, 54
1, 373345, Note_off_c, 0, 73, 51
1, 373351, Control_c, 0, 64, 87
1, 373366, Control_c, 0, 64, 90
1, 373367, Note_off_c, 0, 76, 37
1, 373381, Control_c, 0, 64, 92
1, 373395, Control_c, 0, 64, 95
1, 373410, Control_c, 0, 64, 99
1, 373425, Control_c, 0, 64, 103
1, 373439, Control_c, 0, 64, 107
1, 373454, Control_c, 0, 64, 108
1, 373469, Control_c, 0, 64, 109
1, 373476, Note_on_c, 0, 76, 72
1, 373477, Note_on_c, 0, 82, 82
1, 373478, Note_on_c, 0, 70, 72
1, 373479, Note_on_c, 0, 73, 65
1, 373483, Note_off_c, 0, 45, 59
1, 373484, Control_c, 0, 64, 112
1, 373499, Control_c, 0, 64, 118
1, 373521, Control_c, 0, 64, 127
1, 373532, Note_off_c, 0, 57, 54
1, 373699, Control_c, 0, 64, 118
1, 373714, Control_c, 0, 64, 104
1, 373729, Control_c, 0, 64, 89
1, 373735, Note_on_c, 0, 55, 83
1, 373744, Note_on_c, 0, 43, 70
1, 373744, Control_c, 0, 64, 73
1, 373759, Control_c, 0, 64, 37
1, 373773, Control_c, 0, 64, 0
1, 373788, Control_c, 0, 64, 50
1, 373803, Control_c, 0, 64, 59
1, 373818, Control_c, 0, 64, 63
1, 373833, Control_c, 0, 64, 66
1, 373848, Control_c, 0, 64, 70
1, 373856, Note_off_c, 0, 82, 54
1, 373863, Control_c, 0, 64, 74
1, 373864, Note_off_c, 0, 70, 56
1, 373878, Control_c, 0, 64, 77
1, 373892, Control_c, 0, 64, 79
1, 373896, Note_off_c, 0, 73, 52
1, 373896, Note_off_c, 0, 76, 48
1, 373907, Control_c, 0, 64, 82
1, 373922, Note_off_c, 0, 43, 56
1, 373922, Control_c, 0, 64, 86
1, 373937, Control_c, 0, 64, 91
1, 373952, Control_c, 0, 64, 95
1, 373966, Control_c, 0, 64, 97
1, 373976, Note_off_c, 0, 55, 63
1, 373981, Control_c, 0, 64, 100
1, 373996, Control_c, 0, 64, 104
1, 374010, Control_c, 0, 64, 110
1, 374014, Note_on_c, 0, 76, 71
1, 374018, Note_on_c, 0, 82, 80
1, 374019, Note_on_c, 0, 73, 65
1, 374021, Note_on_c, 0, 70, 70
1, 374025, Control_c, 0, 64, 115
1, 374040, Control_c, 0, 64, 123
1, 374055, Control_c, 0, 64, 127
1, 374232, Control_c, 0, 64, 117
1, 374247, Control_c, 0, 64, 111
1, 374270, Control_c, 0, 64, 105
1, 374285, Control_c, 0, 64, 98
1, 374299, Control_c, 0, 64, 89
1, 374314, Control_c, 0, 64, 77
1, 374320, Note_on_c, 0, 49, 70
1, 374321, Note_on_c, 0, 52, 67
1, 374322, Note_on_c, 0, 54, 75
1, 374325, Note_on_c, 0, 42, 65
1, 374329, Control_c, 0, 64, 58
1, 374343, Control_c, 0, 64, 0
1, 374500, Note_off_c, 0, 70, 55
1, 374504, Note_off_c, 0, 82, 38
1, 374507, Control_c, 0, 64, 21
1, 374521, Control_c, 0, 64, 58
1, 374527, Note_off_c, 0, 73, 53
1, 374537, Control_c, 0, 64, 64
1, 374538, Note_off_c, 0, 76, 52
1, 374552, Control_c, 0, 64, 66
1, 374567, Control_c, 0, 64, 68
1, 374582, Control_c, 0, 64, 71
1, 374596, Control_c, 0, 64, 73
1, 374611, Control_c, 0, 64, 77
1, 374626, Control_c, 0, 64, 79
1, 374641, Control_c, 0, 64, 81
1, 374656, Control_c, 0, 64, 83
1, 374666, Note_on_c, 0, 76, 67
1, 374668, Note_on_c, 0, 82, 80
1, 374671, Control_c, 0, 64, 86
1, 374672, Note_on_c, 0, 73, 60
1, 374677, Note_on_c, 0, 70, 65
1, 374685, Control_c, 0, 64, 88
1, 374693, Note_off_c, 0, 42, 57
1, 374700, Control_c, 0, 64, 90
1, 374715, Control_c, 0, 64, 91
1, 374716, Note_off_c, 0, 54, 59
1, 374730, Control_c, 0, 64, 92
1, 374745, Control_c, 0, 64, 92
1, 374760, Control_c, 0, 64, 94
1, 374775, Control_c, 0, 64, 96
1, 374789, Control_c, 0, 64, 97
1, 374893, Control_c, 0, 64, 97
1, 374937, Control_c, 0, 64, 97
1, 374952, Control_c, 0, 64, 93
1, 374966, Control_c, 0, 64, 86
1, 374981, Control_c, 0, 64, 79
1, 374989, Note_on_c, 0, 58, 75
1, 374996, Control_c, 0, 64, 79
1, 375011, Note_off_c, 0, 76, 55
1, 375019, Control_c, 0, 64, 80
1, 375034, Control_c, 0, 64, 82
1, 375037, Note_off_c, 0, 73, 61
1, 375048, Control_c, 0, 64, 84
1, 375063, Control_c, 0, 64, 87
1, 375077, Note_off_c, 0, 70, 58
1, 375078, Control_c, 0, 64, 90
1, 375093, Control_c, 0, 64, 93
1, 375108, Control_c, 0, 64, 96
1, 375122, Control_c, 0, 64, 97
1, 375137, Control_c, 0, 64, 98
1, 375152, Control_c, 0, 64, 99
1, 375166, Control_c, 0, 64, 101
1, 375181, Control_c, 0, 64, 104
1, 375196, Control_c, 0, 64, 107
1, 375211, Control_c, 0, 64, 109
1, 375214, Note_off_c, 0, 82, 60
1, 375226, Control_c, 0, 64, 112
1, 375240, Control_c, 0, 64, 114
1, 375255, Control_c, 0, 64, 115
1, 375270, Control_c, 0, 64, 119
1, 375285, Control_c, 0, 64, 122
1, 375393, Note_on_c, 0, 85, 81
1, 375401, Note_on_c, 0, 79, 64
1, 375401, Note_on_c, 0, 73, 63
1, 375409, Note_on_c, 0, 76, 55
1, 375446, Note_off_c, 0, 58, 40
1, 375523, Control_c, 0, 64, 121
1, 375568, Control_c, 0, 64, 119
1, 375582, Control_c, 0, 64, 117
1, 375597, Control_c, 0, 64, 115
1, 375612, Control_c, 0, 64, 114
1, 375627, Control_c, 0, 64, 113
1, 375642, Control_c, 0, 64, 112
1, 375656, Control_c, 0, 64, 110
1, 375671, Control_c, 0, 64, 109
1, 375686, Control_c, 0, 64, 107
1, 375701, Control_c, 0, 64, 106
1, 375716, Control_c, 0, 64, 106
1, 375745, Control_c, 0, 64, 105
1, 375768, Control_c, 0, 64, 104
1, 375782, Control_c, 0, 64, 104
1, 375827, Control_c, 0, 64, 103
1, 375857, Control_c, 0, 64, 101
1, 375871, Control_c, 0, 64, 96
1, 375886, Control_c, 0, 64, 87
1, 375899, Note_on_c, 0, 58, 45
1, 375901, Control_c, 0, 64, 78
1, 375916, Control_c, 0, 64, 74
1, 375931, Control_c, 0, 64, 75
1, 375945, Control_c, 0, 64, 75
1, 375948, Note_off_c, 0, 79, 40
1, 375960, Control_c, 0, 64, 76
1, 375975, Control_c, 0, 64, 78
1, 375989, Control_c, 0, 64, 80
1, 375997, Note_off_c, 0, 76, 40
1, 376004, Control_c, 0, 64, 82
1, 376019, Control_c, 0, 64, 84
1, 376034, Control_c, 0, 64, 87
1, 376049, Control_c, 0, 64, 91
1, 376063, Control_c, 0, 64, 94
1, 376078, Control_c, 0, 64, 97
1, 376093, Control_c, 0, 64, 100
1, 376107, Control_c, 0, 64, 104
1, 376119, Note_off_c, 0, 73, 38
1, 376122, Control_c, 0, 64, 108
1, 376139, Control_c, 0, 64, 111
1, 376154, Control_c, 0, 64, 115
1, 376168, Control_c, 0, 64, 127
1, 376175, Note_off_c, 0, 85, 53
1, 376917, Note_on_c, 0, 88, 57
1, 376932, Note_on_c, 0, 76, 36
1, 376937, Note_on_c, 0, 85, 45
1, 376939, Note_on_c, 0, 79, 32
1, 378652, Control_c, 0, 67, 8
1, 378662, Note_off_c, 0, 58, 35
1, 378667, Control_c, 0, 67, 8
1, 378681, Control_c, 0, 67, 9
1, 378696, Control_c, 0, 67, 9
1, 378711, Control_c, 0, 67, 10
1, 378726, Control_c, 0, 67, 11
1, 378741, Control_c, 0, 67, 13
1, 378763, Control_c, 0, 67, 15
1, 378778, Control_c, 0, 67, 16
1, 378793, Control_c, 0, 67, 18
1, 378807, Control_c, 0, 67, 20
1, 378822, Control_c, 0, 67, 22
1, 378837, Control_c, 0, 67, 24
1, 378852, Control_c, 0, 67, 26
1, 378867, Control_c, 0, 67, 28
1, 378881, Control_c, 0, 67, 31
1, 378896, Control_c, 0, 67, 33
1, 378898, Note_off_c, 0, 76, 40
1, 378911, Control_c, 0, 67, 36
1, 378914, Note_off_c, 0, 49, 28
1, 378926, Control_c, 0, 67, 38
1, 378936, Note_off_c, 0, 88, 35
1, 378940, Control_c, 0, 67, 42
1, 378955, Control_c, 0, 67, 44
1, 378970, Control_c, 0, 67, 46
1, 378985, Control_c, 0, 67, 48
1, 378990, Note_off_c, 0, 52, 33
1, 379000, Control_c, 0, 67, 50
1, 379014, Note_off_c, 0, 79, 44
1, 379014, Control_c, 0, 67, 52
1, 379029, Control_c, 0, 67, 54
1, 379036, Note_off_c, 0, 85, 43
1, 379044, Control_c, 0, 67, 57
1, 379059, Control_c, 0, 67, 58
1, 379074, Control_c, 0, 67, 60
1, 379088, Control_c, 0, 67, 63
1, 379103, Control_c, 0, 67, 65
1, 379118, Control_c, 0, 67, 68
1, 379133, Control_c, 0, 67, 71
1, 379148, Control_c, 0, 67, 73
1, 379163, Control_c, 0, 67, 76
1, 379178, Control_c, 0, 67, 79
1, 379193, Control_c, 0, 67, 82
1, 379207, Control_c, 0, 67, 84
1, 379222, Control_c, 0, 67, 87
1, 379237, Control_c, 0, 67, 91
1, 379252, Control_c, 0, 67, 95
1, 379267, Control_c, 0, 67, 98
1, 379281, Control_c, 0, 67, 102
1, 379296, Control_c, 0, 67, 105
1, 379311, Control_c, 0, 67, 109
1, 379327, Control_c, 0, 67, 113
1, 379342, Control_c, 0, 67, 117
1, 379357, Control_c, 0, 64, 124
1, 379357, Control_c, 0, 67, 120
1, 379371, Control_c, 0, 64, 120
1, 379371, Control_c, 0, 67, 123
1, 379386, Control_c, 0, 64, 117
1, 379386, Control_c, 0, 67, 126
1, 379401, Control_c, 0, 64, 115
1, 379401, Control_c, 0, 67, 127
1, 379416, Control_c, 0, 64, 112
1, 379430, Control_c, 0, 64, 110
1, 379445, Control_c, 0, 64, 108
1, 379460, Control_c, 0, 64, 106
1, 379475, Control_c, 0, 64, 104
1, 379490, Control_c, 0, 64, 103
1, 379512, Control_c, 0, 64, 101
1, 379526, Control_c, 0, 64, 100
1, 379541, Control_c, 0, 64, 99
1, 379556, Control_c, 0, 64, 97
1, 379571, Control_c, 0, 64, 96
1, 379586, Control_c, 0, 64, 95
1, 379601, Control_c, 0, 64, 94
1, 379616, Control_c, 0, 64, 93
1, 379630, Control_c, 0, 64, 92
1, 379645, Control_c, 0, 64, 90
1, 379660, Control_c, 0, 64, 89
1, 379675, Control_c, 0, 64, 88
1, 379690, Control_c, 0, 64, 87
1, 379704, Control_c, 0, 64, 86
1, 379719, Control_c, 0, 64, 84
1, 379734, Control_c, 0, 64, 83
1, 379749, Control_c, 0, 64, 81
1, 379763, Control_c, 0, 64, 80
1, 379778, Control_c, 0, 64, 78
1, 379793, Control_c, 0, 64, 77
1, 379808, Control_c, 0, 64, 76
1, 379823, Control_c, 0, 64, 75
1, 379837, Control_c, 0, 64, 75
1, 379852, Control_c, 0, 64, 74
1, 379867, Control_c, 0, 64, 73
1, 379882, Control_c, 0, 64, 73
1, 379897, Control_c, 0, 64, 72
1, 379911, Control_c, 0, 64, 72
1, 379926, Control_c, 0, 64, 71
1, 379941, Control_c, 0, 64, 70
1, 379956, Control_c, 0, 64, 70
1, 380015, Control_c, 0, 64, 69
1, 380045, Control_c, 0, 64, 69
1, 380075, Control_c, 0, 64, 68
1, 380090, Control_c, 0, 64, 68
1, 380104, Control_c, 0, 64, 67
1, 380107, Note_on_c, 0, 50, 40
1, 380125, Note_on_c, 0, 43, 31
1, 380135, Control_c, 0, 64, 67
1, 380149, Control_c, 0, 64, 65
1, 380164, Control_c, 0, 64, 62
1, 380179, Control_c, 0, 64, 49
1, 380194, Control_c, 0, 64, 0
1, 380513, Control_c, 0, 64, 23
1, 380527, Control_c, 0, 64, 37
1, 380542, Control_c, 0, 64, 45
1, 380557, Control_c, 0, 64, 50
1, 380572, Control_c, 0, 64, 55
1, 380586, Control_c, 0, 64, 59
1, 380600, Note_on_c, 0, 59, 40
1, 380601, Control_c, 0, 64, 62
1, 380616, Control_c, 0, 64, 64
1, 380631, Control_c, 0, 64, 65
1, 380646, Control_c, 0, 64, 66
1, 380660, Control_c, 0, 64, 67
1, 380675, Control_c, 0, 64, 69
1, 380690, Control_c, 0, 64, 70
1, 380704, Control_c, 0, 64, 72
1, 380719, Control_c, 0, 64, 73
1, 380734, Control_c, 0, 64, 74
1, 380749, Control_c, 0, 64, 76
1, 380764, Control_c, 0, 64, 78
1, 380778, Control_c, 0, 64, 79
1, 380793, Control_c, 0, 64, 80
1, 380808, Control_c, 0, 64, 80
1, 380838, Control_c, 0, 64, 81
1, 380839, Note_on_c, 0, 52, 56
1, 380844, Note_on_c, 0, 60, 46
1, 380853, Control_c, 0, 64, 82
1, 380868, Control_c, 0, 64, 83
1, 380895, Note_off_c, 0, 59, 31
1, 380913, Control_c, 0, 64, 81
1, 380929, Control_c, 0, 64, 79
1, 380944, Control_c, 0, 64, 77
1, 380984, Note_off_c, 0, 50, 57
1, 380988, Control_c, 0, 64, 77
1, 380988, Control_c, 0, 67, 126
1, 381010, Control_c, 0, 64, 78
1, 381010, Control_c, 0, 67, 125
1, 381025, Control_c, 0, 64, 79
1, 381025, Control_c, 0, 67, 124
1, 381040, Control_c, 0, 64, 80
1, 381040, Control_c, 0, 67, 122
1, 381055, Control_c, 0, 64, 81
1, 381055, Control_c, 0, 67, 121
1, 381067, Note_on_c, 0, 61, 65
1, 381070, Control_c, 0, 64, 83
1, 381070, Control_c, 0, 67, 119
1, 381084, Control_c, 0, 64, 84
1, 381084, Control_c, 0, 67, 117
1, 381099, Control_c, 0, 64, 85
1, 381099, Control_c, 0, 67, 113
1, 381100, Note_off_c, 0, 60, 52
1, 381106, Note_off_c, 0, 43, 55
1, 381114, Control_c, 0, 64, 87
1, 381114, Control_c, 0, 67, 111
1, 381129, Control_c, 0, 64, 90
1, 381129, Control_c, 0, 67, 109
1, 381144, Control_c, 0, 64, 94
1, 381144, Control_c, 0, 67, 108
1, 381158, Control_c, 0, 64, 97
1, 381158, Control_c, 0, 67, 107
1, 381173, Control_c, 0, 64, 100
1, 381173, Control_c, 0, 67, 106
1, 381188, Control_c, 0, 64, 103
1, 381188, Control_c, 0, 67, 104
1, 381202, Control_c, 0, 64, 105
1, 381202, Control_c, 0, 67, 101
1, 381217, Control_c, 0, 64, 106
1, 381217, Control_c, 0, 67, 98
1, 381232, Control_c, 0, 67, 92
1, 381247, Control_c, 0, 67, 85
1, 381262, Control_c, 0, 67, 80
1, 381276, Control_c, 0, 67, 77
1, 381291, Control_c, 0, 64, 105
1, 381291, Control_c, 0, 67, 74
1, 381299, Note_off_c, 0, 52, 61
1, 381306, Control_c, 0, 64, 101
1, 381306, Control_c, 0, 67, 73
1, 381309, Note_on_c, 0, 53, 66
1, 381310, Note_on_c, 0, 64, 57
1, 381315, Note_off_c, 0, 61, 52
1, 381319, Note_on_c, 0, 43, 40
1, 381321, Control_c, 0, 64, 95
1, 381321, Control_c, 0, 67, 71
1, 381336, Control_c, 0, 64, 86
1, 381336, Control_c, 0, 67, 70
1, 381351, Control_c, 0, 64, 74
1, 381351, Control_c, 0, 67, 69
1, 381366, Control_c, 0, 64, 62
1, 381366, Control_c, 0, 67, 68
1, 381381, Control_c, 0, 64, 61
1, 381381, Control_c, 0, 67, 67
1, 381395, Control_c, 0, 64, 64
1, 381395, Control_c, 0, 67, 66
1, 381410, Control_c, 0, 64, 65
1, 381410, Control_c, 0, 67, 64
1, 381425, Control_c, 0, 64, 66
1, 381425, Control_c, 0, 67, 63
1, 381440, Control_c, 0, 64, 67
1, 381440, Control_c, 0, 67, 61
1, 381455, Control_c, 0, 64, 68
1, 381455, Control_c, 0, 67, 60
1, 381470, Control_c, 0, 64, 70
1, 381470, Control_c, 0, 67, 58
1, 381484, Control_c, 0, 64, 72
1, 381484, Control_c, 0, 67, 56
1, 381499, Control_c, 0, 64, 74
1, 381499, Control_c, 0, 67, 53
1, 381514, Control_c, 0, 64, 76
1, 381514, Control_c, 0, 67, 51
1, 381521, Note_off_c, 0, 64, 57
1, 381528, Control_c, 0, 64, 77
1, 381528, Control_c, 0, 67, 49
1, 381536, Note_on_c, 0, 62, 52
1, 381543, Control_c, 0, 64, 80
1, 381543, Control_c, 0, 67, 47
1, 381558, Control_c, 0, 64, 82
1, 381558, Control_c, 0, 67, 45
1, 381573, Control_c, 0, 64, 84
1, 381573, Control_c, 0, 67, 43
1, 381588, Control_c, 0, 64, 87
1, 381588, Control_c, 0, 67, 40
1, 381602, Control_c, 0, 64, 90
1, 381602, Control_c, 0, 67, 37
1, 381617, Control_c, 0, 64, 92
1, 381617, Control_c, 0, 67, 34
1, 381632, Control_c, 0, 64, 94
1, 381632, Control_c, 0, 67, 30
1, 381647, Control_c, 0, 64, 96
1, 381647, Control_c, 0, 67, 25
1, 381662, Control_c, 0, 64, 97
1, 381662, Control_c, 0, 67, 21
1, 381676, Control_c, 0, 64, 97
1, 381676, Control_c, 0, 67, 17
1, 381691, Control_c, 0, 67, 14
1, 381706, Control_c, 0, 64, 97
1, 381706, Control_c, 0, 67, 11
1, 381721, Control_c, 0, 67, 0
1, 381789, Control_c, 0, 64, 96
1, 381804, Control_c, 0, 64, 94
1, 381819, Control_c, 0, 64, 90
1, 381825, Note_off_c, 0, 62, 50
1, 381833, Control_c, 0, 64, 81
1, 381848, Control_c, 0, 64, 69
1, 381855, Note_on_c, 0, 49, 36
1, 381856, Note_off_c, 0, 53, 54
1, 381863, Control_c, 0, 64, 0
1, 381864, Note_on_c, 0, 58, 39
1, 381966, Control_c, 0, 64, 45
1, 381981, Control_c, 0, 64, 62
1, 381996, Control_c, 0, 64, 66
1, 382011, Control_c, 0, 64, 69
1, 382024, Note_off_c, 0, 43, 52
1, 382025, Control_c, 0, 64, 73
1, 382040, Control_c, 0, 64, 76
1, 382055, Control_c, 0, 64, 80
1, 382059, Note_off_c, 0, 58, 57
1, 382070, Control_c, 0, 64, 83
1, 382085, Control_c, 0, 64, 86
1, 382096, Note_off_c, 0, 49, 56
1, 382100, Control_c, 0, 64, 88
1, 382114, Control_c, 0, 64, 90
1, 382129, Control_c, 0, 64, 92
1, 382144, Control_c, 0, 64, 95
1, 382159, Control_c, 0, 64, 96
1, 382173, Control_c, 0, 64, 97
1, 382188, Control_c, 0, 64, 99
1, 382203, Control_c, 0, 64, 102
1, 382218, Control_c, 0, 64, 106
1, 382233, Control_c, 0, 64, 109
1, 382248, Control_c, 0, 64, 111
1, 382263, Control_c, 0, 64, 112
1, 382278, Control_c, 0, 64, 115
1, 382293, Control_c, 0, 64, 118
1, 382307, Control_c, 0, 64, 121
1, 382566, Note_on_c, 0, 76, 41
1, 382570, Note_on_c, 0, 79, 48
1, 382630, Note_off_c, 0, 79, 52
1, 382716, Control_c, 0, 64, 122
1, 382737, Note_off_c, 0, 76, 29
1, 382898, Note_on_c, 0, 88, 54
1, 383138, Note_on_c, 0, 90, 70
1, 383148, Note_on_c, 0, 74, 41
1, 383151, Note_on_c, 0, 78, 33
1, 383159, Note_off_c, 0, 88, 48
1, 383217, Note_off_c, 0, 74, 59
1, 383262, Note_off_c, 0, 78, 38
1, 383360, Note_on_c, 0, 93, 67
1, 383370, Note_off_c, 0, 90, 58
1, 383493, Control_c, 0, 64, 121
1, 383585, Note_on_c, 0, 91, 63
1, 383586, Note_on_c, 0, 73, 40
1, 383602, Note_off_c, 0, 93, 54
1, 383604, Note_on_c, 0, 76, 34
1, 383661, Note_off_c, 0, 76, 43
1, 383720, Note_off_c, 0, 73, 44
1, 383827, Note_on_c, 0, 88, 50
1, 383878, Note_off_c, 0, 91, 35
1, 384100, Note_on_c, 0, 67, 27
1, 384112, Note_on_c, 0, 70, 40
1, 384160, Note_off_c, 0, 70, 56
1, 384198, Note_off_c, 0, 67, 36
1, 384357, Note_off_c, 0, 88, 54
1, 384405, Note_on_c, 0, 85, 40
1, 384479, Note_off_c, 0, 85, 41
1, 384657, Control_c, 0, 64, 120
1, 384672, Control_c, 0, 64, 119
1, 384687, Control_c, 0, 64, 117
1, 384701, Control_c, 0, 64, 115
1, 384716, Control_c, 0, 64, 113
1, 384731, Control_c, 0, 64, 111
1, 384753, Control_c, 0, 64, 107
1, 384768, Control_c, 0, 64, 105
1, 384783, Control_c, 0, 64, 103
1, 384798, Control_c, 0, 64, 100
1, 384813, Control_c, 0, 64, 96
1, 384815, Note_on_c, 0, 43, 40
1, 384817, Note_on_c, 0, 52, 48
1, 384827, Control_c, 0, 64, 90
1, 384842, Control_c, 0, 64, 83
1, 384857, Control_c, 0, 64, 75
1, 384872, Control_c, 0, 64, 65
1, 384886, Control_c, 0, 64, 63
1, 384901, Control_c, 0, 64, 65
1, 384916, Control_c, 0, 64, 66
1, 384932, Control_c, 0, 64, 67
1, 384947, Control_c, 0, 64, 68
1, 384962, Control_c, 0, 64, 69
1, 384976, Control_c, 0, 64, 71
1, 384991, Control_c, 0, 64, 74
1, 385006, Control_c, 0, 64, 76
1, 385021, Control_c, 0, 64, 78
1, 385036, Control_c, 0, 64, 79
1, 385050, Control_c, 0, 64, 81
1, 385065, Control_c, 0, 64, 84
1, 385075, Note_on_c, 0, 61, 66
1, 385080, Control_c, 0, 64, 86
1, 385095, Control_c, 0, 64, 89
1, 385110, Control_c, 0, 64, 91
1, 385125, Control_c, 0, 64, 92
1, 385139, Control_c, 0, 64, 92
1, 385258, Control_c, 0, 64, 92
1, 385273, Control_c, 0, 64, 89
1, 385287, Note_on_c, 0, 54, 74
1, 385288, Control_c, 0, 64, 85
1, 385297, Note_on_c, 0, 62, 60
1, 385302, Control_c, 0, 64, 77
1, 385308, Note_off_c, 0, 61, 51
1, 385317, Control_c, 0, 64, 68
1, 385332, Control_c, 0, 64, 63
1, 385347, Control_c, 0, 64, 64
1, 385362, Control_c, 0, 64, 65
1, 385376, Control_c, 0, 64, 65
1, 385391, Control_c, 0, 64, 67
1, 385406, Control_c, 0, 64, 69
1, 385421, Control_c, 0, 64, 72
1, 385436, Control_c, 0, 64, 75
1, 385450, Control_c, 0, 64, 77
1, 385465, Control_c, 0, 64, 80
1, 385480, Note_off_c, 0, 52, 32
1, 385480, Control_c, 0, 64, 83
1, 385502, Control_c, 0, 64, 87
1, 385512, Note_on_c, 0, 63, 64
1, 385517, Control_c, 0, 64, 90
1, 385532, Control_c, 0, 64, 92
1, 385547, Control_c, 0, 64, 95
1, 385550, Note_off_c, 0, 43, 49
1, 385562, Control_c, 0, 64, 98
1, 385572, Note_off_c, 0, 62, 37
1, 385576, Control_c, 0, 64, 100
1, 385591, Control_c, 0, 64, 101
1, 385593, Note_off_c, 0, 54, 65
1, 385665, Control_c, 0, 64, 101
1, 385695, Control_c, 0, 64, 100
1, 385709, Control_c, 0, 64, 97
1, 385726, Control_c, 0, 64, 91
1, 385741, Control_c, 0, 64, 83
1, 385742, Note_on_c, 0, 66, 56
1, 385751, Note_on_c, 0, 55, 64
1, 385755, Control_c, 0, 64, 71
1, 385757, Note_on_c, 0, 43, 56
1, 385761, Note_off_c, 0, 63, 54
1, 385770, Control_c, 0, 64, 53
1, 385785, Control_c, 0, 64, 0
1, 385859, Control_c, 0, 64, 19
1, 385873, Control_c, 0, 64, 36
1, 385888, Control_c, 0, 64, 47
1, 385903, Control_c, 0, 64, 58
1, 385917, Control_c, 0, 64, 64
1, 385932, Control_c, 0, 64, 65
1, 385947, Control_c, 0, 64, 66
1, 385962, Control_c, 0, 64, 68
1, 385977, Control_c, 0, 64, 70
1, 385985, Note_off_c, 0, 66, 52
1, 385992, Control_c, 0, 64, 74
1, 385994, Note_on_c, 0, 64, 50
1, 386007, Control_c, 0, 64, 76
1, 386022, Control_c, 0, 64, 78
1, 386037, Control_c, 0, 64, 80
1, 386052, Control_c, 0, 64, 82
1, 386066, Control_c, 0, 64, 84
1, 386081, Control_c, 0, 64, 84
1, 386183, Control_c, 0, 64, 84
1, 386198, Control_c, 0, 64, 82
1, 386213, Control_c, 0, 64, 81
1, 386227, Control_c, 0, 64, 78
1, 386250, Control_c, 0, 64, 73
1, 386250, Control_c, 0, 67, 8
1, 386265, Control_c, 0, 64, 62
1, 386265, Control_c, 0, 67, 9
1, 386279, Note_off_c, 0, 64, 54
1, 386279, Control_c, 0, 64, 0
1, 386279, Control_c, 0, 67, 10
1, 386294, Control_c, 0, 67, 12
1, 386305, Note_off_c, 0, 55, 55
1, 386309, Control_c, 0, 67, 13
1, 386314, Note_on_c, 0, 52, 50
1, 386314, Note_on_c, 0, 59, 38
1, 386323, Control_c, 0, 67, 15
1, 386412, Control_c, 0, 64, 11
1, 386427, Control_c, 0, 64, 55
1, 386442, Control_c, 0, 64, 64
1, 386442, Control_c, 0, 67, 14
1, 386457, Control_c, 0, 64, 67
1, 386457, Control_c, 0, 67, 14
1, 386472, Control_c, 0, 64, 70
1, 386487, Control_c, 0, 64, 73
1, 386487, Control_c, 0, 67, 13
1, 386501, Note_off_c, 0, 59, 53
1, 386502, Control_c, 0, 64, 76
1, 386502, Control_c, 0, 67, 13
1, 386502, Note_off_c, 0, 43, 49
1, 386517, Control_c, 0, 64, 78
1, 386532, Control_c, 0, 64, 80
1, 386532, Control_c, 0, 67, 12
1, 386546, Control_c, 0, 64, 83
1, 386561, Control_c, 0, 64, 86
1, 386561, Control_c, 0, 67, 12
1, 386576, Control_c, 0, 64, 87
1, 386591, Control_c, 0, 64, 88
1, 386591, Control_c, 0, 67, 11
1, 386597, Note_off_c, 0, 52, 56
1, 386606, Control_c, 0, 64, 89
1, 386606, Control_c, 0, 67, 11
1, 386621, Control_c, 0, 64, 90
1, 386636, Control_c, 0, 64, 91
1, 386651, Control_c, 0, 64, 92
1, 386651, Control_c, 0, 67, 10
1, 386666, Control_c, 0, 64, 93
1, 386666, Control_c, 0, 67, 10
1, 386725, Control_c, 0, 64, 94
1, 386739, Control_c, 0, 64, 95
1, 386754, Control_c, 0, 64, 95
1, 386799, Control_c, 0, 64, 96
1, 386813, Control_c, 0, 64, 97
1, 386828, Control_c, 0, 64, 98
1, 386843, Control_c, 0, 64, 98
1, 386887, Control_c, 0, 64, 99
1, 386917, Control_c, 0, 64, 99
1, 386976, Control_c, 0, 67, 9
1, 387014, Control_c, 0, 64, 100
1, 387058, Control_c, 0, 67, 9
1, 387087, Control_c, 0, 67, 8
1, 387143, Note_on_c, 0, 83, 33
1, 387146, Note_on_c, 0, 79, 32
1, 387191, Control_c, 0, 64, 100
1, 387206, Control_c, 0, 64, 101
1, 387206, Control_c, 0, 67, 8
1, 387220, Control_c, 0, 64, 102
1, 387250, Control_c, 0, 67, 0
1, 387253, Note_off_c, 0, 83, 58
1, 387265, Control_c, 0, 64, 102
1, 387280, Control_c, 0, 64, 103
1, 387282, Note_off_c, 0, 79, 44
1, 387310, Control_c, 0, 64, 103
1, 387340, Control_c, 0, 64, 104
1, 387384, Control_c, 0, 64, 104
1, 387414, Note_on_c, 0, 85, 55
1, 387592, Control_c, 0, 64, 105
1, 387607, Control_c, 0, 64, 105
1, 387622, Note_on_c, 0, 87, 63
1, 387623, Control_c, 0, 64, 106
1, 387627, Note_on_c, 0, 78, 43
1, 387637, Control_c, 0, 64, 108
1, 387640, Note_on_c, 0, 81, 36
1, 387645, Note_off_c, 0, 85, 37
1, 387652, Control_c, 0, 64, 110
1, 387667, Control_c, 0, 64, 114
1, 387682, Control_c, 0, 64, 118
1, 387696, Control_c, 0, 64, 124
1, 387711, Control_c, 0, 64, 127
1, 387772, Note_off_c, 0, 81, 39
1, 387788, Note_off_c, 0, 78, 29
1, 387841, Note_off_c, 0, 87, 67
1, 387855, Note_on_c, 0, 90, 71
1, 388058, Note_off_c, 0, 90, 65
1, 388088, Note_on_c, 0, 88, 62
1, 388097, Note_on_c, 0, 76, 39
1, 388102, Note_on_c, 0, 79, 44
1, 388146, Note_off_c, 0, 79, 61
1, 388169, Note_off_c, 0, 76, 58
1, 388329, Note_off_c, 0, 88, 51
1, 388330, Note_on_c, 0, 95, 58
1, 388617, Note_on_c, 0, 76, 42
1, 388620, Note_on_c, 0, 67, 35
1, 388657, Note_off_c, 0, 76, 62
1, 388698, Note_off_c, 0, 67, 55
1, 388949, Note_off_c, 0, 95, 56
1, 388950, Note_on_c, 0, 100, 39
1, 389007, Note_off_c, 0, 100, 49
1, 389438, Control_c, 0, 64, 116
1, 389453, Control_c, 0, 64, 107
1, 389467, Control_c, 0, 64, 98
1, 389482, Note_on_c, 0, 52, 51
1, 389482, Control_c, 0, 64, 89
1, 389489, Note_on_c, 0, 43, 45
1, 389497, Control_c, 0, 64, 80
1, 389512, Control_c, 0, 64, 71
1, 389527, Control_c, 0, 64, 60
1, 389541, Control_c, 0, 64, 0
1, 389674, Control_c, 0, 66, 127
1, 389769, Note_on_c, 0, 58, 39
1, 389778, Note_on_c, 0, 60, 50
1, 389853, Control_c, 0, 64, 44
1, 389868, Control_c, 0, 64, 64
1, 389882, Control_c, 0, 64, 69
1, 389897, Control_c, 0, 64, 71
1, 389912, Control_c, 0, 64, 75
1, 389927, Control_c, 0, 64, 79
1, 389942, Control_c, 0, 64, 84
1, 389957, Control_c, 0, 64, 89
1, 389972, Control_c, 0, 64, 94
1, 389994, Control_c, 0, 64, 98
1, 390009, Control_c, 0, 64, 105
1, 390024, Control_c, 0, 64, 110
1, 390038, Control_c, 0, 64, 117
1, 390043, Note_off_c, 0, 58, 37
1, 390053, Control_c, 0, 64, 127
1, 390079, Note_off_c, 0, 43, 59
1, 390101, Note_off_c, 0, 52, 59
1, 390315, Note_on_c, 0, 64, 53
1, 390343, Note_off_c, 0, 60, 50
1, 390352, Note_off_c, 0, 64, 66
1, 390362, Note_on_c, 0, 62, 62
1, 390394, Note_off_c, 0, 62, 64
1, 390662, Control_c, 0, 64, 120
1, 390677, Control_c, 0, 64, 100
1, 390692, Control_c, 0, 64, 87
1, 390706, Control_c, 0, 64, 72
1, 390721, Control_c, 0, 64, 14
1, 390744, Control_c, 0, 64, 0
1, 390762, Note_on_c, 0, 74, 33
1, 390771, Note_on_c, 0, 70, 37
1, 391010, Control_c, 0, 64, 36
1, 391025, Control_c, 0, 64, 60
1, 391040, Control_c, 0, 64, 64
1, 391055, Control_c, 0, 64, 67
1, 391069, Control_c, 0, 64, 69
1, 391084, Control_c, 0, 64, 72
1, 391092, Note_on_c, 0, 86, 46
1, 391098, Note_on_c, 0, 82, 35
1, 391099, Control_c, 0, 64, 75
1, 391113, Control_c, 0, 64, 78
1, 391128, Control_c, 0, 64, 82
1, 391143, Control_c, 0, 64, 88
1, 391158, Control_c, 0, 64, 91
1, 391173, Control_c, 0, 64, 94
1, 391188, Control_c, 0, 64, 99
1, 391203, Control_c, 0, 64, 107
1, 391218, Control_c, 0, 64, 119
1, 391232, Control_c, 0, 64, 127
1, 391332, Note_off_c, 0, 74, 45
1, 391356, Note_off_c, 0, 70, 37
1, 391358, Note_on_c, 0, 67, 44
1, 391364, Note_on_c, 0, 64, 25
1, 391435, Note_off_c, 0, 67, 59
1, 391475, Note_off_c, 0, 64, 45
1, 391550, Note_off_c, 0, 86, 41
1, 391572, Note_off_c, 0, 82, 45
1, 391578, Note_on_c, 0, 79, 51
1, 391588, Note_on_c, 0, 76, 45
1, 391614, Note_off_c, 0, 79, 63
1, 391626, Note_off_c, 0, 76, 62
1, 391626, Control_c, 0, 66, 0
1, 391834, Note_on_c, 0, 41, 63
1, 391838, Note_on_c, 0, 53, 65
1, 391877, Control_c, 0, 64, 104
1, 391892, Control_c, 0, 64, 83
1, 391907, Control_c, 0, 64, 60
1, 391922, Control_c, 0, 64, 0
1, 392073, Note_on_c, 0, 60, 61
1, 392079, Note_on_c, 0, 58, 46
1, 392085, Control_c, 0, 66, 127
1, 392256, Control_c, 0, 64, 49
1, 392271, Control_c, 0, 64, 65
1, 392280, Note_off_c, 0, 58, 57
1, 392285, Control_c, 0, 64, 74
1, 392300, Control_c, 0, 64, 82
1, 392315, Control_c, 0, 64, 90
1, 392330, Control_c, 0, 64, 95
1, 392345, Control_c, 0, 64, 101
1, 392350, Note_off_c, 0, 41, 60
1, 392356, Note_off_c, 0, 53, 60
1, 392359, Control_c, 0, 64, 108
1, 392374, Control_c, 0, 64, 116
1, 392389, Control_c, 0, 64, 127
1, 392571, Note_on_c, 0, 64, 58
1, 392578, Note_off_c, 0, 60, 61
1, 392600, Note_off_c, 0, 64, 67
1, 392609, Note_on_c, 0, 62, 63
1, 392636, Note_off_c, 0, 62, 65
1, 392893, Control_c, 0, 64, 111
1, 392908, Control_c, 0, 64, 99
1, 392923, Control_c, 0, 64, 88
1, 392938, Control_c, 0, 64, 75
1, 392953, Control_c, 0, 64, 56
1, 392968, Control_c, 0, 64, 0
1, 392993, Note_on_c, 0, 74, 41
1, 392997, Note_on_c, 0, 70, 43
1, 393271, Control_c, 0, 64, 48
1, 393286, Control_c, 0, 64, 62
1, 393301, Control_c, 0, 64, 65
1, 393316, Control_c, 0, 64, 68
1, 393331, Control_c, 0, 64, 70
1, 393343, Note_on_c, 0, 86, 44
1, 393346, Control_c, 0, 64, 73
1, 393350, Note_on_c, 0, 82, 40
1, 393361, Control_c, 0, 64, 76
1, 393376, Control_c, 0, 64, 79
1, 393390, Control_c, 0, 64, 83
1, 393405, Control_c, 0, 64, 87
1, 393420, Control_c, 0, 64, 90
1, 393435, Control_c, 0, 64, 94
1, 393450, Control_c, 0, 64, 98
1, 393464, Control_c, 0, 64, 104
1, 393479, Control_c, 0, 64, 109
1, 393494, Control_c, 0, 64, 113
1, 393508, Control_c, 0, 64, 123
1, 393523, Control_c, 0, 64, 127
1, 393543, Note_off_c, 0, 74, 44
1, 393595, Note_on_c, 0, 65, 44
1, 393608, Note_off_c, 0, 70, 44
1, 393619, Note_on_c, 0, 62, 46
1, 393717, Note_off_c, 0, 65, 61
1, 393733, Note_off_c, 0, 62, 57
1, 393843, Control_c, 0, 66, 0
1, 393852, Note_off_c, 0, 86, 44
1, 393861, Note_on_c, 0, 77, 57
1, 393871, Note_on_c, 0, 74, 50
1, 393885, Note_off_c, 0, 82, 45
1, 393918, Note_off_c, 0, 74, 59
1, 393921, Note_off_c, 0, 77, 62
1, 394228, Control_c, 0, 64, 122
1, 394243, Control_c, 0, 64, 100
1, 394251, Note_on_c, 0, 52, 76
1, 394255, Note_on_c, 0, 40, 71
1, 394257, Control_c, 0, 64, 82
1, 394272, Control_c, 0, 64, 64
1, 394287, Control_c, 0, 64, 0
1, 394346, Control_c, 0, 64, 44
1, 394361, Control_c, 0, 64, 63
1, 394376, Control_c, 0, 64, 68
1, 394391, Control_c, 0, 64, 72
1, 394405, Control_c, 0, 64, 75
1, 394420, Control_c, 0, 64, 79
1, 394435, Control_c, 0, 64, 83
1, 394449, Control_c, 0, 64, 89
1, 394464, Control_c, 0, 64, 94
1, 394487, Control_c, 0, 64, 98
1, 394502, Control_c, 0, 64, 101
1, 394507, Note_off_c, 0, 40, 64
1, 394517, Control_c, 0, 64, 105
1, 394532, Control_c, 0, 64, 110
1, 394547, Control_c, 0, 64, 115
1, 394562, Control_c, 0, 64, 121
1, 394571, Note_off_c, 0, 52, 59
1, 394577, Control_c, 0, 64, 127
1, 394626, Note_on_c, 0, 61, 78
1, 394638, Note_on_c, 0, 55, 49
1, 394638, Note_on_c, 0, 58, 52
1, 394663, Note_off_c, 0, 58, 60
1, 394665, Note_off_c, 0, 55, 56
1, 394675, Note_off_c, 0, 61, 65
1, 394905, Note_on_c, 0, 64, 79
1, 394947, Control_c, 0, 64, 103
1, 394962, Control_c, 0, 64, 101
1, 395021, Control_c, 0, 64, 102
1, 395036, Control_c, 0, 64, 104
1, 395051, Control_c, 0, 64, 105
1, 395066, Control_c, 0, 64, 106
1, 395080, Control_c, 0, 64, 106
1, 395095, Control_c, 0, 64, 107
1, 395110, Control_c, 0, 64, 108
1, 395125, Control_c, 0, 64, 109
1, 395154, Control_c, 0, 64, 109
1, 395169, Control_c, 0, 64, 110
1, 395184, Control_c, 0, 64, 110
1, 395340, Note_on_c, 0, 88, 57
1, 395353, Note_on_c, 0, 76, 43
1, 395401, Note_off_c, 0, 76, 49
1, 395430, Control_c, 0, 64, 107
1, 395444, Control_c, 0, 64, 102
1, 395449, Note_on_c, 0, 66, 64
1, 395454, Note_off_c, 0, 64, 55
1, 395459, Control_c, 0, 64, 98
1, 395474, Control_c, 0, 64, 97
1, 395489, Control_c, 0, 64, 98
1, 395507, Note_on_c, 0, 69, 73
1, 395518, Control_c, 0, 64, 100
1, 395533, Control_c, 0, 64, 103
1, 395545, Note_off_c, 0, 88, 43
1, 395548, Control_c, 0, 64, 104
1, 395563, Control_c, 0, 64, 105
1, 395568, Note_off_c, 0, 69, 65
1, 395577, Control_c, 0, 64, 105
1, 395592, Control_c, 0, 64, 106
1, 395596, Note_on_c, 0, 67, 78
1, 395607, Control_c, 0, 64, 107
1, 395619, Note_off_c, 0, 66, 58
1, 395622, Control_c, 0, 64, 108
1, 395637, Control_c, 0, 64, 108
1, 395651, Control_c, 0, 64, 109
1, 395675, Note_off_c, 0, 67, 64
1, 395681, Control_c, 0, 64, 109
1, 395703, Note_on_c, 0, 90, 74
1, 395725, Control_c, 0, 64, 110
1, 395756, Note_on_c, 0, 93, 82
1, 395766, Note_off_c, 0, 90, 64
1, 395784, Control_c, 0, 64, 110
1, 395827, Note_on_c, 0, 91, 86
1, 395836, Note_on_c, 0, 79, 73
1, 395849, Note_off_c, 0, 93, 63
1, 395929, Note_on_c, 0, 42, 65
1, 395933, Control_c, 0, 64, 110
1, 395948, Control_c, 0, 64, 106
1, 395963, Control_c, 0, 64, 93
1, 395984, Control_c, 0, 64, 76
1, 395993, Note_on_c, 0, 52, 66
1, 395999, Control_c, 0, 64, 35
1, 396011, Note_off_c, 0, 42, 64
1, 396014, Control_c, 0, 64, 0
1, 396029, Control_c, 0, 64, 42
1, 396044, Control_c, 0, 64, 54
1, 396059, Control_c, 0, 64, 62
1, 396073, Control_c, 0, 64, 66
1, 396088, Control_c, 0, 64, 72
1, 396104, Control_c, 0, 64, 76
1, 396119, Control_c, 0, 64, 80
1, 396123, Note_on_c, 0, 58, 59
1, 396133, Control_c, 0, 64, 83
1, 396148, Control_c, 0, 64, 87
1, 396163, Control_c, 0, 64, 92
1, 396178, Control_c, 0, 64, 95
1, 396193, Control_c, 0, 64, 99
1, 396208, Control_c, 0, 64, 101
1, 396222, Control_c, 0, 64, 104
1, 396237, Control_c, 0, 64, 107
1, 396252, Control_c, 0, 64, 110
1, 396267, Control_c, 0, 64, 113
1, 396270, Note_off_c, 0, 52, 36
1, 396282, Control_c, 0, 64, 119
1, 396291, Note_off_c, 0, 58, 49
1, 396297, Control_c, 0, 64, 127
1, 396316, Note_off_c, 0, 79, 56
1, 396665, Note_on_c, 0, 66, 63
1, 396694, Note_off_c, 0, 66, 65
1, 396789, Note_off_c, 0, 91, 61
1, 396804, Note_on_c, 0, 90, 62
1, 396819, Note_on_c, 0, 78, 46
1, 396920, Note_on_c, 0, 47, 44
1, 396942, Control_c, 0, 64, 91
1, 396956, Control_c, 0, 64, 64
1, 396971, Control_c, 0, 64, 0
1, 397045, Control_c, 0, 64, 56
1, 397060, Control_c, 0, 64, 67
1, 397070, Note_on_c, 0, 54, 47
1, 397075, Control_c, 0, 64, 72
1, 397088, Note_off_c, 0, 47, 38
1, 397090, Control_c, 0, 64, 75
1, 397105, Control_c, 0, 64, 77
1, 397120, Control_c, 0, 64, 80
1, 397135, Control_c, 0, 64, 84
1, 397149, Control_c, 0, 64, 87
1, 397164, Control_c, 0, 64, 90
1, 397173, Note_off_c, 0, 54, 58
1, 397179, Control_c, 0, 64, 92
1, 397194, Control_c, 0, 64, 95
1, 397208, Note_on_c, 0, 62, 40
1, 397209, Control_c, 0, 64, 97
1, 397223, Control_c, 0, 64, 99
1, 397238, Control_c, 0, 64, 101
1, 397253, Control_c, 0, 64, 102
1, 397268, Control_c, 0, 64, 103
1, 397268, Control_c, 0, 67, 9
1, 397282, Control_c, 0, 64, 104
1, 397282, Control_c, 0, 67, 11
1, 397297, Control_c, 0, 64, 106
1, 397297, Control_c, 0, 67, 14
1, 397312, Control_c, 0, 64, 108
1, 397312, Control_c, 0, 67, 17
1, 397327, Control_c, 0, 64, 109
1, 397327, Control_c, 0, 67, 22
1, 397342, Control_c, 0, 67, 26
1, 397356, Control_c, 0, 67, 30
1, 397357, Note_off_c, 0, 78, 42
1, 397371, Control_c, 0, 64, 110
1, 397371, Control_c, 0, 67, 33
1, 397386, Control_c, 0, 64, 112
1, 397386, Control_c, 0, 67, 38
1, 397401, Control_c, 0, 64, 115
1, 397401, Control_c, 0, 67, 43
1, 397416, Control_c, 0, 64, 117
1, 397416, Control_c, 0, 67, 46
1, 397430, Control_c, 0, 67, 49
1, 397445, Note_off_c, 0, 62, 35
1, 397445, Control_c, 0, 67, 52
1, 397460, Control_c, 0, 67, 55
1, 397482, Control_c, 0, 64, 118
1, 397482, Control_c, 0, 67, 59
1, 397483, Note_on_c, 0, 66, 45
1, 397497, Control_c, 0, 64, 119
1, 397497, Control_c, 0, 67, 62
1, 397512, Control_c, 0, 64, 121
1, 397512, Control_c, 0, 67, 64
1, 397527, Control_c, 0, 67, 65
1, 397542, Control_c, 0, 67, 68
1, 397556, Control_c, 0, 67, 72
1, 397571, Control_c, 0, 64, 122
1, 397571, Control_c, 0, 67, 76
1, 397576, Note_off_c, 0, 90, 33
1, 397586, Control_c, 0, 64, 123
1, 397586, Control_c, 0, 67, 79
1, 397601, Control_c, 0, 64, 124
1, 397601, Control_c, 0, 67, 82
1, 397615, Control_c, 0, 64, 126
1, 397615, Control_c, 0, 67, 83
1, 397630, Control_c, 0, 67, 85
1, 397645, Control_c, 0, 67, 87
1, 397653, Note_off_c, 0, 66, 37
1, 397660, Control_c, 0, 64, 127
1, 397660, Control_c, 0, 67, 90
1, 397675, Control_c, 0, 67, 93
1, 397689, Control_c, 0, 67, 96
1, 397705, Control_c, 0, 67, 98
1, 397720, Control_c, 0, 67, 101
1, 397735, Control_c, 0, 67, 104
1, 397750, Control_c, 0, 67, 107
1, 397765, Control_c, 0, 67, 109
1, 397779, Control_c, 0, 67, 111
1, 397794, Control_c, 0, 67, 114
1, 397809, Control_c, 0, 67, 117
1, 397824, Control_c, 0, 67, 119
1, 397839, Control_c, 0, 67, 121
1, 397853, Control_c, 0, 67, 122
1, 397868, Control_c, 0, 67, 122
1, 397883, Control_c, 0, 67, 123
1, 397898, Control_c, 0, 67, 124
1, 397913, Control_c, 0, 67, 124
1, 398011, Note_on_c, 0, 91, 54
1, 398030, Note_on_c, 0, 79, 44
1, 398068, Note_off_c, 0, 79, 50
1, 398184, Note_off_c, 0, 91, 37
1, 398214, Note_on_c, 0, 90, 58
1, 398234, Note_on_c, 0, 78, 49
1, 398423, Note_off_c, 0, 90, 42
1, 398820, Note_on_c, 0, 86, 40
1, 398837, Note_on_c, 0, 74, 32
1, 398852, Note_off_c, 0, 78, 40
1, 398961, Note_off_c, 0, 74, 37
1, 398966, Note_off_c, 0, 86, 41
1, 398984, Note_on_c, 0, 83, 48
1, 398988, Note_on_c, 0, 71, 39
1, 399287, Note_off_c, 0, 83, 37
1, 399321, Control_c, 0, 67, 125
1, 399336, Control_c, 0, 67, 126
1, 399365, Control_c, 0, 67, 126
1, 399380, Control_c, 0, 67, 127
1, 399490, Note_off_c, 0, 71, 44
1, 399536, Note_on_c, 0, 79, 46
1, 399544, Note_on_c, 0, 67, 36
1, 399660, Note_off_c, 0, 79, 58
1, 399678, Note_on_c, 0, 66, 48
1, 399685, Note_on_c, 0, 78, 51
1, 399724, Note_off_c, 0, 67, 40
1, 399861, Note_off_c, 0, 66, 44
1, 400264, Note_on_c, 0, 74, 49
1, 400283, Note_on_c, 0, 62, 28
1, 400297, Note_off_c, 0, 78, 40
1, 400402, Note_off_c, 0, 74, 52
1, 400423, Note_on_c, 0, 71, 45
1, 400438, Note_on_c, 0, 59, 35
1, 400438, Note_off_c, 0, 62, 37
1, 400715, Note_off_c, 0, 71, 37
1, 401166, Note_on_c, 0, 67, 43
1, 401198, Note_on_c, 0, 55, 34
1, 401518, Note_on_c, 0, 66, 53
1, 401528, Note_off_c, 0, 59, 35
1, 401531, Note_on_c, 0, 54, 39
1, 401601, Note_off_c, 0, 55, 41
1, 401604, Note_off_c, 0, 54, 63
1, 401788, Note_on_c, 0, 62, 58
1, 401800, Note_on_c, 0, 50, 44
1, 401919, Note_off_c, 0, 67, 37
1, 402030, Note_off_c, 0, 66, 36
1, 402039, Note_on_c, 0, 59, 62
1, 402049, Control_c, 0, 64, 105
1, 402053, Note_on_c, 0, 47, 53
1, 402064, Control_c, 0, 64, 101
1, 402065, Note_off_c, 0, 62, 58
1, 402067, Note_off_c, 0, 50, 37
1, 402108, Control_c, 0, 64, 103
1, 402123, Control_c, 0, 64, 106
1, 402138, Control_c, 0, 64, 109
1, 402152, Control_c, 0, 64, 111
1, 402167, Control_c, 0, 64, 113
1, 402182, Control_c, 0, 64, 114
1, 402196, Control_c, 0, 64, 116
1, 402211, Control_c, 0, 64, 120
1, 402226, Control_c, 0, 64, 124
1, 402241, Control_c, 0, 67, 127
1, 402256, Control_c, 0, 64, 123
1, 402256, Control_c, 0, 67, 126
1, 402265, Note_off_c, 0, 59, 51
1, 402271, Control_c, 0, 64, 112
1, 402271, Control_c, 0, 67, 126
1, 402286, Control_c, 0, 64, 101
1, 402298, Note_on_c, 0, 55, 72
1, 402301, Control_c, 0, 64, 94
1, 402315, Control_c, 0, 64, 93
1, 402315, Control_c, 0, 67, 125
1, 402321, Note_on_c, 0, 43, 54
1, 402330, Control_c, 0, 67, 125
1, 402345, Control_c, 0, 67, 124
1, 402360, Control_c, 0, 64, 94
1, 402360, Control_c, 0, 67, 123
1, 402375, Control_c, 0, 64, 96
1, 402375, Control_c, 0, 67, 122
1, 402390, Control_c, 0, 64, 97
1, 402390, Control_c, 0, 67, 120
1, 402404, Control_c, 0, 64, 98
1, 402404, Control_c, 0, 67, 118
1, 402419, Control_c, 0, 64, 99
1, 402419, Control_c, 0, 67, 116
1, 402434, Control_c, 0, 64, 101
1, 402434, Control_c, 0, 67, 114
1, 402449, Control_c, 0, 64, 103
1, 402449, Control_c, 0, 67, 113
1, 402464, Control_c, 0, 64, 105
1, 402464, Control_c, 0, 67, 111
1, 402478, Control_c, 0, 64, 106
1, 402478, Control_c, 0, 67, 110
1, 402509, Control_c, 0, 64, 105
1, 402524, Control_c, 0, 64, 99
1, 402539, Control_c, 0, 64, 88
1, 402539, Control_c, 0, 67, 109
1, 402554, Control_c, 0, 64, 73
1, 402568, Note_on_c, 0, 54, 74
1, 402568, Control_c, 0, 64, 69
1, 402573, Note_off_c, 0, 47, 42
1, 402583, Control_c, 0, 64, 70
1, 402584, Note_on_c, 0, 42, 60
1, 402598, Control_c, 0, 64, 72
1, 402598, Control_c, 0, 67, 109
1, 402609, Note_off_c, 0, 55, 53
1, 402612, Control_c, 0, 64, 73
1, 402612, Control_c, 0, 67, 108
1, 402627, Control_c, 0, 64, 74
1, 402627, Control_c, 0, 67, 107
1, 402642, Control_c, 0, 64, 78
1, 402642, Control_c, 0, 67, 105
1, 402657, Control_c, 0, 64, 81
1, 402657, Control_c, 0, 67, 102
1, 402672, Control_c, 0, 64, 84
1, 402672, Control_c, 0, 67, 98
1, 402686, Control_c, 0, 64, 88
1, 402686, Control_c, 0, 67, 93
1, 402701, Control_c, 0, 64, 91
1, 402701, Control_c, 0, 67, 90
1, 402724, Control_c, 0, 64, 95
1, 402724, Control_c, 0, 67, 87
1, 402739, Control_c, 0, 64, 98
1, 402739, Control_c, 0, 67, 85
1, 402754, Control_c, 0, 64, 100
1, 402754, Control_c, 0, 67, 81
1, 402768, Control_c, 0, 64, 102
1, 402768, Control_c, 0, 67, 77
1, 402783, Control_c, 0, 67, 72
1, 402798, Control_c, 0, 67, 68
1, 402813, Control_c, 0, 67, 64
1, 402827, Control_c, 0, 67, 59
1, 402842, Control_c, 0, 67, 54
1, 402857, Control_c, 0, 67, 50
1, 402870, Note_off_c, 0, 43, 16
1, 402872, Control_c, 0, 67, 46
1, 402887, Control_c, 0, 64, 99
1, 402887, Control_c, 0, 67, 42
1, 402896, Note_off_c, 0, 42, 60
1, 402901, Note_on_c, 0, 38, 54
1, 402901, Control_c, 0, 64, 93
1, 402901, Control_c, 0, 67, 38
1, 402906, Note_on_c, 0, 50, 70
1, 402916, Control_c, 0, 64, 83
1, 402916, Control_c, 0, 67, 35
1, 402931, Control_c, 0, 64, 67
1, 402931, Control_c, 0, 67, 32
1, 402945, Note_off_c, 0, 54, 64
1, 402946, Control_c, 0, 64, 52
1, 402946, Control_c, 0, 67, 29
1, 402961, Control_c, 0, 64, 61
1, 402961, Control_c, 0, 67, 27
1, 402975, Control_c, 0, 64, 64
1, 402975, Control_c, 0, 67, 24
1, 402990, Control_c, 0, 64, 65
1, 402990, Control_c, 0, 67, 21
1, 403005, Control_c, 0, 64, 67
1, 403005, Control_c, 0, 67, 17
1, 403019, Control_c, 0, 64, 71
1, 403019, Control_c, 0, 67, 14
1, 403034, Control_c, 0, 64, 75
1, 403034, Control_c, 0, 67, 11
1, 403049, Control_c, 0, 64, 79
1, 403049, Control_c, 0, 67, 8
1, 403064, Control_c, 0, 64, 81
1, 403064, Control_c, 0, 67, 0
1, 403079, Control_c, 0, 64, 84
1, 403093, Control_c, 0, 64, 88
1, 403108, Note_off_c, 0, 38, 60
1, 403108, Control_c, 0, 64, 92
1, 403123, Control_c, 0, 64, 97
1, 403138, Control_c, 0, 64, 100
1, 403153, Control_c, 0, 64, 103
1, 403168, Control_c, 0, 64, 106
1, 403183, Control_c, 0, 64, 111
1, 403198, Control_c, 0, 64, 116
1, 403203, Note_off_c, 0, 50, 51
1, 403213, Control_c, 0, 64, 120
1, 403287, Control_c, 0, 64, 121
1, 403317, Control_c, 0, 64, 120
1, 403406, Control_c, 0, 64, 119
1, 403421, Control_c, 0, 64, 116
1, 403436, Control_c, 0, 64, 113
1, 403451, Control_c, 0, 64, 110
1, 403473, Control_c, 0, 64, 106
1, 403488, Control_c, 0, 64, 102
1, 403503, Control_c, 0, 64, 97
1, 403518, Control_c, 0, 64, 92
1, 403532, Control_c, 0, 64, 86
1, 403545, Note_on_c, 0, 34, 39
1, 403547, Control_c, 0, 64, 80
1, 403550, Note_on_c, 0, 46, 37
1, 403562, Control_c, 0, 64, 72
1, 403577, Control_c, 0, 64, 63
1, 403592, Control_c, 0, 64, 0
1, 403829, Control_c, 0, 64, 14
1, 403843, Control_c, 0, 64, 45
1, 403858, Control_c, 0, 64, 56
1, 403873, Control_c, 0, 64, 61
1, 403888, Control_c, 0, 64, 63
1, 403903, Control_c, 0, 64, 65
1, 403917, Control_c, 0, 64, 66
1, 403932, Control_c, 0, 64, 68
1, 403932, Control_c, 0, 67, 9
1, 403947, Control_c, 0, 64, 70
1, 403947, Control_c, 0, 67, 14
1, 403961, Control_c, 0, 64, 71
1, 403961, Control_c, 0, 67, 22
1, 403976, Control_c, 0, 64, 73
1, 403976, Control_c, 0, 67, 27
1, 403991, Control_c, 0, 64, 74
1, 403991, Control_c, 0, 67, 32
1, 404006, Control_c, 0, 64, 76
1, 404006, Control_c, 0, 67, 37
1, 404021, Control_c, 0, 64, 78
1, 404021, Control_c, 0, 67, 40
1, 404035, Control_c, 0, 64, 79
1, 404035, Control_c, 0, 67, 42
1, 404050, Control_c, 0, 64, 81
1, 404050, Control_c, 0, 67, 45
1, 404065, Control_c, 0, 64, 82
1, 404065, Control_c, 0, 67, 48
1, 404080, Control_c, 0, 64, 84
1, 404080, Control_c, 0, 67, 51
1, 404095, Control_c, 0, 64, 86
1, 404095, Control_c, 0, 67, 53
1, 404110, Control_c, 0, 64, 87
1, 404110, Control_c, 0, 67, 54
1, 404125, Control_c, 0, 64, 88
1, 404125, Control_c, 0, 67, 55
1, 404140, Control_c, 0, 64, 89
1, 404140, Control_c, 0, 67, 55
1, 404155, Control_c, 0, 64, 91
1, 404155, Control_c, 0, 67, 56
1, 404170, Control_c, 0, 64, 92
1, 404184, Control_c, 0, 64, 94
1, 404199, Control_c, 0, 64, 96
1, 404221, Control_c, 0, 64, 97
1, 404236, Control_c, 0, 64, 98
1, 404251, Control_c, 0, 64, 99
1, 404266, Control_c, 0, 64, 102
1, 404269, Note_on_c, 0, 61, 36
1, 404280, Control_c, 0, 64, 104
1, 404295, Control_c, 0, 64, 107
1, 404310, Control_c, 0, 64, 108
1, 404325, Control_c, 0, 64, 109
1, 404340, Control_c, 0, 64, 111
1, 404354, Control_c, 0, 64, 114
1, 404369, Control_c, 0, 64, 120
1, 404384, Control_c, 0, 64, 127
1, 404518, Control_c, 0, 67, 55
1, 404562, Control_c, 0, 67, 55
1, 404563, Note_on_c, 0, 64, 44
1, 404577, Control_c, 0, 67, 54
1, 404621, Control_c, 0, 67, 54
1, 404665, Control_c, 0, 67, 53
1, 404710, Control_c, 0, 67, 53
1, 404793, Note_on_c, 0, 66, 54
1, 404799, Control_c, 0, 67, 52
1, 404873, Control_c, 0, 67, 52
1, 404933, Control_c, 0, 67, 51
1, 404970, Control_c, 0, 67, 51
1, 405000, Control_c, 0, 67, 50
1, 405001, Note_off_c, 0, 64, 37
1, 405029, Control_c, 0, 67, 50
1, 405035, Note_on_c, 0, 69, 51
1, 405089, Control_c, 0, 67, 49
1, 405091, Note_off_c, 0, 66, 37
1, 405163, Control_c, 0, 67, 49
1, 405237, Control_c, 0, 67, 49
1, 405242, Note_off_c, 0, 61, 26
1, 405244, Note_off_c, 0, 46, 41
1, 405249, Note_off_c, 0, 34, 41
1, 405252, Control_c, 0, 67, 50
1, 405267, Control_c, 0, 67, 50
1, 405281, Control_c, 0, 67, 51
1, 405288, Note_on_c, 0, 67, 50
1, 405296, Control_c, 0, 67, 52
1, 405326, Control_c, 0, 67, 53
1, 405393, Note_off_c, 0, 69, 31
1, 405429, Control_c, 0, 67, 52
1, 405459, Control_c, 0, 67, 52
1, 405503, Control_c, 0, 67, 51
1, 405510, Note_on_c, 0, 64, 46
1, 405533, Control_c, 0, 67, 51
1, 405548, Control_c, 0, 67, 50
1, 405577, Control_c, 0, 67, 50
1, 405592, Control_c, 0, 67, 49
1, 405621, Control_c, 0, 67, 49
1, 405636, Control_c, 0, 67, 48
1, 405651, Control_c, 0, 67, 48
1, 405666, Control_c, 0, 67, 46
1, 405682, Control_c, 0, 67, 45
1, 405697, Control_c, 0, 67, 44
1, 405702, Note_off_c, 0, 64, 56
1, 405719, Control_c, 0, 67, 44
1, 405734, Control_c, 0, 67, 41
1, 405740, Note_on_c, 0, 61, 44
1, 405749, Control_c, 0, 67, 39
1, 405752, Note_off_c, 0, 67, 20
1, 405764, Control_c, 0, 67, 35
1, 405770, Note_off_c, 0, 61, 60
1, 405779, Control_c, 0, 67, 31
1, 405793, Control_c, 0, 67, 28
1, 405808, Control_c, 0, 67, 25
1, 405823, Control_c, 0, 67, 23
1, 405837, Control_c, 0, 67, 20
1, 405852, Control_c, 0, 67, 18
1, 405867, Control_c, 0, 67, 15
1, 405882, Control_c, 0, 67, 13
1, 405897, Control_c, 0, 67, 12
1, 405911, Control_c, 0, 67, 10
1, 405926, Control_c, 0, 67, 9
1, 405941, Control_c, 0, 67, 8
1, 405956, Control_c, 0, 67, 8
1, 405971, Control_c, 0, 67, 0
1, 405989, Note_on_c, 0, 82, 66
1, 406010, Note_on_c, 0, 79, 48
1, 406034, Note_off_c, 0, 79, 62
1, 406038, Note_off_c, 0, 82, 62
1, 406220, Note_on_c, 0, 88, 62
1, 406435, Note_on_c, 0, 81, 54
1, 406435, Note_on_c, 0, 78, 47
1, 406438, Note_on_c, 0, 90, 66
1, 406502, Note_off_c, 0, 88, 37
1, 406508, Note_off_c, 0, 78, 53
1, 406578, Note_off_c, 0, 81, 62
1, 406682, Note_on_c, 0, 93, 69
1, 406706, Note_off_c, 0, 90, 51
1, 406933, Note_on_c, 0, 79, 58
1, 406934, Note_on_c, 0, 76, 46
1, 406936, Note_on_c, 0, 91, 59
1, 406969, Note_off_c, 0, 79, 63
1, 406982, Note_off_c, 0, 76, 62
1, 407130, Note_off_c, 0, 93, 36
1, 407273, Note_on_c, 0, 61, 63
1, 407319, Note_on_c, 0, 88, 55
1, 407326, Note_off_c, 0, 91, 54
1, 407393, Note_off_c, 0, 88, 61
1, 407659, Note_on_c, 0, 64, 77
1, 407677, Note_on_c, 0, 85, 58
1, 407690, Note_on_c, 0, 76, 43
1, 407693, Note_on_c, 0, 79, 39
1, 407739, Note_off_c, 0, 61, 37
1, 407843, Note_off_c, 0, 76, 41
1, 407857, Note_off_c, 0, 79, 24
1, 407917, Note_off_c, 0, 85, 60
1, 407933, Note_on_c, 0, 82, 50
1, 407937, Note_on_c, 0, 66, 80
1, 407962, Note_off_c, 0, 82, 61
1, 408045, Note_off_c, 0, 66, 66
1, 408090, Note_off_c, 0, 64, 36
1, 408122, Note_on_c, 0, 58, 67
1, 408163, Poly_aftertouch_c, 0, 65, 0
1, 408170, Note_on_c, 0, 62, 62
1, 408180, Note_off_c, 0, 58, 62
1, 408234, Note_on_c, 0, 67, 80
1, 408242, Note_off_c, 0, 62, 61
1, 408349, Note_off_c, 0, 67, 60
1, 408409, Note_on_c, 0, 69, 77
1, 408471, Note_on_c, 0, 67, 74
1, 408493, Note_off_c, 0, 69, 61
1, 408545, Note_on_c, 0, 66, 81
1, 408557, Note_off_c, 0, 67, 59
1, 408617, Control_c, 0, 64, 109
1, 408632, Control_c, 0, 64, 81
1, 408634, Note_on_c, 0, 34, 54
1, 408635, Note_off_c, 0, 66, 63
1, 408639, Note_on_c, 0, 67, 79
1, 408641, Note_on_c, 0, 46, 49
1, 408647, Control_c, 0, 64, 55
1, 408662, Control_c, 0, 64, 0
1, 408728, Control_c, 0, 64, 47
1, 408743, Control_c, 0, 64, 63
1, 408758, Control_c, 0, 64, 66
1, 408772, Control_c, 0, 64, 68
1, 408787, Control_c, 0, 64, 71
1, 408802, Control_c, 0, 64, 75
1, 408817, Control_c, 0, 64, 79
1, 408821, Note_off_c, 0, 34, 58
1, 408832, Control_c, 0, 64, 80
1, 408847, Control_c, 0, 64, 81
1, 408862, Control_c, 0, 64, 83
1, 408867, Note_off_c, 0, 46, 61
1, 408876, Control_c, 0, 64, 86
1, 408892, Control_c, 0, 64, 90
1, 408907, Control_c, 0, 64, 93
1, 408922, Control_c, 0, 64, 95
1, 408936, Control_c, 0, 64, 96
1, 408951, Control_c, 0, 64, 97
1, 408954, Note_on_c, 0, 69, 75
1, 408963, Note_off_c, 0, 67, 61
1, 408966, Control_c, 0, 64, 100
1, 408981, Control_c, 0, 64, 101
1, 408996, Control_c, 0, 64, 102
1, 409040, Control_c, 0, 64, 102
1, 409055, Control_c, 0, 64, 103
1, 409115, Control_c, 0, 64, 103
1, 409129, Note_off_c, 0, 69, 66
1, 409130, Control_c, 0, 64, 104
1, 409144, Control_c, 0, 64, 104
1, 409174, Control_c, 0, 64, 104
1, 409188, Control_c, 0, 64, 102
1, 409203, Control_c, 0, 64, 102
1, 409270, Note_on_c, 0, 72, 66
1, 409477, Control_c, 0, 64, 102
1, 409492, Control_c, 0, 64, 103
1, 409536, Control_c, 0, 64, 103
1, 409551, Control_c, 0, 64, 104
1, 409610, Control_c, 0, 64, 103
1, 409644, Note_on_c, 0, 86, 66
1, 409653, Note_on_c, 0, 70, 54
1, 409655, Note_on_c, 0, 74, 50
1, 409700, Control_c, 0, 64, 104
1, 409715, Control_c, 0, 64, 105
1, 409730, Control_c, 0, 64, 109
1, 409745, Control_c, 0, 64, 114
1, 409759, Control_c, 0, 64, 127
1, 409771, Note_off_c, 0, 74, 61
1, 409843, Note_off_c, 0, 86, 64
1, 409926, Note_on_c, 0, 67, 70
1, 409929, Note_on_c, 0, 91, 90
1, 409938, Note_on_c, 0, 79, 72
1, 409976, Note_off_c, 0, 72, 59
1, 409994, Note_off_c, 0, 70, 56
1, 410038, Note_off_c, 0, 79, 58
1, 410096, Note_off_c, 0, 91, 60
1, 410150, Note_on_c, 0, 62, 75
1, 410159, Note_off_c, 0, 67, 62
1, 410176, Note_off_c, 0, 62, 67
1, 410188, Note_on_c, 0, 93, 93
1, 410190, Note_on_c, 0, 81, 76
1, 410254, Note_off_c, 0, 81, 57
1, 410390, Control_c, 0, 64, 113
1, 410404, Control_c, 0, 64, 76
1, 410409, Note_on_c, 0, 34, 75
1, 410419, Control_c, 0, 64, 0
1, 410421, Note_on_c, 0, 46, 76
1, 410421, Note_on_c, 0, 94, 90
1, 410426, Note_on_c, 0, 82, 81
1, 410443, Note_on_c, 0, 91, 50
1, 410443, Note_off_c, 0, 93, 58
1, 410449, Control_c, 0, 64, 46
1, 410464, Control_c, 0, 64, 63
1, 410480, Control_c, 0, 64, 70
1, 410492, Note_off_c, 0, 82, 63
1, 410495, Control_c, 0, 64, 80
1, 410500, Note_off_c, 0, 91, 40
1, 410509, Control_c, 0, 64, 91
1, 410524, Control_c, 0, 64, 102
1, 410539, Control_c, 0, 64, 109
1, 410551, Note_off_c, 0, 94, 64
1, 410554, Control_c, 0, 64, 112
1, 410567, Note_off_c, 0, 34, 52
1, 410569, Control_c, 0, 64, 114
1, 410583, Note_off_c, 0, 46, 62
1, 410583, Control_c, 0, 64, 116
1, 410598, Control_c, 0, 64, 119
1, 410613, Control_c, 0, 64, 123
1, 410627, Control_c, 0, 64, 127
1, 410645, Note_on_c, 0, 96, 88
1, 410715, Note_on_c, 0, 94, 79
1, 410721, Note_off_c, 0, 96, 66
1, 410748, Note_on_c, 0, 93, 84
1, 410761, Note_off_c, 0, 94, 66
1, 410801, Note_on_c, 0, 94, 76
1, 410826, Note_off_c, 0, 93, 65
1, 410878, Control_c, 0, 64, 120
1, 410893, Note_on_c, 0, 84, 83
1, 410896, Note_off_c, 0, 94, 67
1, 410897, Note_on_c, 0, 75, 64
1, 410901, Note_on_c, 0, 81, 68
1, 410903, Note_on_c, 0, 96, 93
1, 410904, Note_on_c, 0, 87, 87
1, 410922, Control_c, 0, 64, 121
1, 410934, Note_off_c, 0, 84, 62
1, 410937, Control_c, 0, 64, 127
1, 410938, Note_off_c, 0, 81, 58
1, 410963, Note_off_c, 0, 75, 60
1, 411228, Note_on_c, 0, 99, 96
1, 411268, Note_off_c, 0, 96, 62
1, 411345, Note_on_c, 0, 74, 72
1, 411359, Note_off_c, 0, 87, 62
1, 411381, Note_off_c, 0, 99, 66
1, 411412, Note_on_c, 0, 79, 65
1, 411449, Control_c, 0, 64, 108
1, 411461, Note_on_c, 0, 82, 67
1, 411464, Control_c, 0, 64, 89
1, 411476, Note_on_c, 0, 98, 96
1, 411479, Control_c, 0, 64, 81
1, 411487, Note_on_c, 0, 91, 52
1, 411489, Note_on_c, 0, 86, 75
1, 411494, Control_c, 0, 64, 82
1, 411509, Control_c, 0, 64, 84
1, 411520, Note_off_c, 0, 82, 64
1, 411523, Note_off_c, 0, 79, 59
1, 411523, Control_c, 0, 64, 88
1, 411526, Note_off_c, 0, 74, 64
1, 411538, Control_c, 0, 64, 94
1, 411553, Control_c, 0, 64, 102
1, 411568, Control_c, 0, 64, 109
1, 411582, Control_c, 0, 64, 114
1, 411597, Control_c, 0, 64, 116
1, 411612, Control_c, 0, 64, 117
1, 411627, Control_c, 0, 64, 117
1, 411642, Control_c, 0, 64, 122
1, 411656, Control_c, 0, 64, 127
1, 411746, Note_on_c, 0, 94, 86
1, 411780, Note_off_c, 0, 86, 65
1, 411784, Note_off_c, 0, 98, 62
1, 411864, Note_off_c, 0, 91, 52
1, 411876, Note_off_c, 0, 94, 65
1, 411889, Note_on_c, 0, 70, 56
1, 411907, Note_on_c, 0, 74, 67
1, 411985, Note_on_c, 0, 79, 66
1, 411985, Note_on_c, 0, 91, 74
1, 412003, Note_on_c, 0, 82, 65
1, 412033, Note_off_c, 0, 79, 58
1, 412083, Note_off_c, 0, 74, 61
1, 412117, Note_off_c, 0, 70, 47
1, 412278, Note_on_c, 0, 86, 71
1, 412332, Note_off_c, 0, 91, 45
1, 412391, Control_c, 0, 64, 103
1, 412391, Note_on_c, 0, 46, 75
1, 412405, Control_c, 0, 64, 72
1, 412420, Control_c, 0, 64, 0
1, 412457, Control_c, 0, 64, 33
1, 412472, Control_c, 0, 64, 54
1, 412485, Note_off_c, 0, 86, 63
1, 412486, Control_c, 0, 64, 65
1, 412501, Control_c, 0, 64, 72
1, 412510, Note_on_c, 0, 55, 69
1, 412516, Control_c, 0, 64, 78
1, 412528, Note_off_c, 0, 82, 63
1, 412531, Control_c, 0, 64, 84
1, 412546, Control_c, 0, 64, 87
1, 412549, Note_off_c, 0, 46, 62
1, 412561, Control_c, 0, 64, 88
1, 412576, Control_c, 0, 64, 89
1, 412591, Control_c, 0, 64, 92
1, 412605, Control_c, 0, 64, 97
1, 412620, Control_c, 0, 64, 102
1, 412635, Control_c, 0, 64, 104
1, 412650, Control_c, 0, 64, 105
1, 412665, Control_c, 0, 64, 106
1, 412671, Note_on_c, 0, 90, 94
1, 412675, Note_off_c, 0, 55, 61
1, 412679, Note_on_c, 0, 62, 55
1, 412679, Control_c, 0, 64, 108
1, 412687, Note_on_c, 0, 78, 66
1, 412692, Note_on_c, 0, 82, 59
1, 412694, Control_c, 0, 64, 112
1, 412709, Control_c, 0, 64, 117
1, 412724, Control_c, 0, 64, 127
1, 412904, Note_off_c, 0, 78, 60
1, 412930, Note_off_c, 0, 90, 62
1, 413037, Note_off_c, 0, 82, 64
1, 413049, Note_on_c, 0, 91, 98
1, 413052, Note_on_c, 0, 63, 67
1, 413061, Note_on_c, 0, 79, 84
1, 413068, Note_off_c, 0, 62, 57
1, 413159, Note_off_c, 0, 79, 61
1, 413222, Note_off_c, 0, 91, 61
1, 413311, Note_off_c, 0, 63, 58
1, 413312, Note_on_c, 0, 94, 95
1, 413322, Note_on_c, 0, 82, 78
1, 413324, Note_on_c, 0, 87, 66
1, 413325, Note_on_c, 0, 67, 56
1, 413341, Note_on_c, 0, 58, 49
1, 413407, Note_off_c, 0, 87, 0
1, 413407, Note_on_c, 0, 87, 29
1, 413439, Note_off_c, 0, 82, 59
1, 413446, Note_off_c, 0, 94, 63
1, 413485, Note_off_c, 0, 67, 56
1, 413515, Note_on_c, 0, 63, 70
1, 413540, Note_off_c, 0, 63, 68
1, 413542, Note_off_c, 0, 58, 61
1, 413565, Note_on_c, 0, 91, 95
1, 413577, Note_on_c, 0, 79, 80
1, 413584, Note_off_c, 0, 87, 60
1, 413642, Note_off_c, 0, 79, 58
1, 413655, Note_on_c, 0, 89, 45
1, 413678, Note_on_c, 0, 46, 54
1, 413688, Note_off_c, 0, 91, 29
1, 413697, Note_off_c, 0, 89, 45
1, 413718, Note_on_c, 0, 53, 69
1, 413722, Note_off_c, 0, 46, 61
1, 413732, Note_on_c, 0, 79, 57
1, 413764, Note_on_c, 0, 80, 70
1, 413768, Note_on_c, 0, 56, 67
1, 413830, Control_c, 0, 64, 94
1, 413837, Note_on_c, 0, 91, 87
1, 413844, Control_c, 0, 64, 67
1, 413858, Note_on_c, 0, 63, 67
1, 413859, Control_c, 0, 64, 0
1, 413874, Control_c, 0, 64, 27
1, 413879, Note_on_c, 0, 89, 25
1, 413880, Note_off_c, 0, 89, 127
1, 413889, Control_c, 0, 64, 56
1, 413904, Control_c, 0, 64, 64
1, 413918, Control_c, 0, 64, 71
1, 413933, Control_c, 0, 64, 79
1, 413938, Note_off_c, 0, 63, 63
1, 413956, Control_c, 0, 64, 90
1, 413971, Control_c, 0, 64, 95
1, 413973, Note_off_c, 0, 56, 64
1, 413977, Note_off_c, 0, 53, 65
1, 413985, Control_c, 0, 64, 97
1, 414000, Control_c, 0, 64, 98
1, 414015, Control_c, 0, 64, 101
1, 414030, Control_c, 0, 64, 106
1, 414045, Control_c, 0, 64, 112
1, 414059, Control_c, 0, 64, 119
1, 414071, Note_off_c, 0, 79, 53
1, 414074, Control_c, 0, 64, 127
1, 414085, Note_off_c, 0, 91, 40
1, 414161, Note_on_c, 0, 34, 68
1, 414193, Note_off_c, 0, 34, 62
1, 414303, Note_on_c, 0, 89, 93
1, 414315, Note_on_c, 0, 77, 75
1, 414321, Note_off_c, 0, 80, 61
1, 414403, Note_off_c, 0, 77, 54
1, 414421, Note_off_c, 0, 89, 58
1, 414489, Control_c, 0, 64, 119
1, 414501, Note_on_c, 0, 89, 84
1, 414504, Control_c, 0, 64, 95
1, 414513, Note_on_c, 0, 46, 51
1, 414518, Note_on_c, 0, 80, 59
1, 414519, Note_on_c, 0, 56, 45
1, 414519, Note_on_c, 0, 77, 60
1, 414519, Control_c, 0, 64, 72
1, 414525, Note_on_c, 0, 53, 39
1, 414534, Control_c, 0, 64, 0
1, 414564, Control_c, 0, 64, 19
1, 414578, Control_c, 0, 64, 41
1, 414593, Control_c, 0, 64, 54
1, 414607, Control_c, 0, 64, 62
1, 414622, Control_c, 0, 64, 67
1, 414637, Control_c, 0, 64, 71
1, 414652, Control_c, 0, 64, 74
1, 414667, Control_c, 0, 64, 77
1, 414681, Control_c, 0, 64, 79
1, 414686, Note_off_c, 0, 46, 53
1, 414704, Control_c, 0, 64, 82
1, 414719, Control_c, 0, 64, 86
1, 414734, Control_c, 0, 64, 89
1, 414749, Control_c, 0, 64, 91
1, 414763, Control_c, 0, 64, 93
1, 414778, Control_c, 0, 64, 95
1, 414793, Control_c, 0, 64, 98
1, 414807, Control_c, 0, 64, 103
1, 414822, Control_c, 0, 64, 106
1, 414836, Note_off_c, 0, 77, 35
1, 414837, Control_c, 0, 64, 110
1, 414852, Control_c, 0, 64, 113
1, 414867, Control_c, 0, 64, 117
1, 414881, Control_c, 0, 64, 127
1, 414947, Note_off_c, 0, 89, 38
1, 414990, Note_off_c, 0, 53, 39
1, 415006, Note_on_c, 0, 62, 47
1, 415092, Note_off_c, 0, 62, 57
1, 415168, Note_off_c, 0, 56, 42
1, 415235, Note_on_c, 0, 46, 58
1, 415255, Note_off_c, 0, 80, 0
1, 415262, Note_on_c, 0, 53, 68
1, 415284, Note_on_c, 0, 56, 63
1, 415297, Control_c, 0, 64, 88
1, 415312, Control_c, 0, 64, 62
1, 415312, Note_off_c, 0, 46, 62
1, 415327, Control_c, 0, 64, 0
1, 415333, Poly_aftertouch_c, 0, 80, 0
1, 415342, Control_c, 0, 64, 42
1, 415343, Note_on_c, 0, 80, 59
1, 415344, Note_on_c, 0, 88, 90
1, 415351, Note_on_c, 0, 76, 73
1, 415357, Control_c, 0, 64, 58
1, 415371, Control_c, 0, 64, 64
1, 415386, Note_on_c, 0, 61, 64
1, 415386, Control_c, 0, 64, 71
1, 415401, Control_c, 0, 64, 77
1, 415416, Control_c, 0, 64, 83
1, 415430, Control_c, 0, 64, 87
1, 415452, Control_c, 0, 64, 90
1, 415458, Note_off_c, 0, 53, 61
1, 415464, Note_off_c, 0, 56, 63
1, 415467, Control_c, 0, 64, 92
1, 415482, Control_c, 0, 64, 93
1, 415497, Control_c, 0, 64, 93
1, 415512, Control_c, 0, 64, 95
1, 415527, Control_c, 0, 64, 96
1, 415539, Note_off_c, 0, 76, 60
1, 415542, Control_c, 0, 64, 99
1, 415546, Note_off_c, 0, 88, 60
1, 415556, Control_c, 0, 64, 101
1, 415571, Control_c, 0, 64, 105
1, 415586, Control_c, 0, 64, 109
1, 415601, Control_c, 0, 64, 110
1, 415616, Control_c, 0, 64, 109
1, 415630, Control_c, 0, 64, 104
1, 415634, Note_on_c, 0, 89, 95
1, 415645, Note_on_c, 0, 62, 72
1, 415645, Control_c, 0, 64, 101
1, 415646, Note_on_c, 0, 77, 83
1, 415647, Note_off_c, 0, 61, 63
1, 415649, Note_off_c, 0, 80, 65
1, 415690, Control_c, 0, 64, 102
1, 415704, Control_c, 0, 64, 105
1, 415719, Control_c, 0, 64, 110
1, 415734, Control_c, 0, 64, 127
1, 415762, Note_off_c, 0, 77, 61
1, 415780, Note_off_c, 0, 89, 60
1, 415802, Note_on_c, 0, 82, 37
1, 415830, Note_off_c, 0, 82, 58
1, 415882, Note_on_c, 0, 92, 100
1, 415887, Note_on_c, 0, 80, 87
1, 415890, Note_on_c, 0, 65, 71
1, 415896, Note_on_c, 0, 56, 64
1, 415898, Note_on_c, 0, 58, 63
1, 415902, Note_off_c, 0, 62, 58
1, 416019, Note_off_c, 0, 92, 66
1, 416033, Note_off_c, 0, 80, 62
1, 416070, Note_on_c, 0, 62, 75
1, 416082, Note_off_c, 0, 65, 61
1, 416114, Note_off_c, 0, 62, 61
1, 416119, Note_off_c, 0, 58, 62
1, 416120, Note_off_c, 0, 56, 62
1, 416128, Note_on_c, 0, 89, 100
1, 416130, Note_on_c, 0, 77, 87
1, 416245, Note_on_c, 0, 46, 55
1, 416281, Note_on_c, 0, 51, 69
1, 416321, Note_on_c, 0, 55, 68
1, 416327, Note_off_c, 0, 89, 58
1, 416341, Note_off_c, 0, 77, 58
1, 416341, Note_off_c, 0, 46, 61
1, 416394, Control_c, 0, 64, 82
1, 416409, Control_c, 0, 64, 21
1, 416416, Note_on_c, 0, 89, 102
1, 416421, Note_on_c, 0, 85, 84
1, 416424, Control_c, 0, 64, 0
1, 416425, Note_on_c, 0, 82, 81
1, 416427, Note_on_c, 0, 77, 77
1, 416439, Control_c, 0, 64, 26
1, 416444, Note_on_c, 0, 61, 80
1, 416454, Control_c, 0, 64, 54
1, 416469, Control_c, 0, 64, 65
1, 416484, Control_c, 0, 64, 73
1, 416499, Control_c, 0, 64, 82
1, 416513, Control_c, 0, 64, 93
1, 416528, Control_c, 0, 64, 105
1, 416543, Control_c, 0, 64, 118
1, 416548, Note_off_c, 0, 61, 64
1, 416555, Note_off_c, 0, 55, 63
1, 416558, Control_c, 0, 64, 127
1, 416590, Note_off_c, 0, 51, 64
1, 416609, Note_off_c, 0, 77, 62
1, 416638, Note_off_c, 0, 89, 62
1, 416720, Note_on_c, 0, 34, 77
1, 416752, Note_off_c, 0, 34, 65
1, 416838, Note_off_c, 0, 85, 44
1, 416864, Note_on_c, 0, 87, 95
1, 416864, Note_off_c, 0, 82, 62
1, 416871, Note_on_c, 0, 75, 81
1, 416980, Note_off_c, 0, 87, 63
1, 416987, Note_off_c, 0, 75, 60
1, 417059, Note_on_c, 0, 87, 84
1, 417064, Note_on_c, 0, 85, 73
1, 417065, Note_on_c, 0, 58, 53
1, 417070, Control_c, 0, 64, 123
1, 417074, Note_on_c, 0, 67, 58
1, 417075, Note_on_c, 0, 75, 62
1, 417075, Note_on_c, 0, 79, 51
1, 417079, Note_on_c, 0, 82, 58
1, 417084, Control_c, 0, 64, 90
1, 417091, Note_on_c, 0, 63, 52
1, 417099, Control_c, 0, 64, 66
1, 417114, Control_c, 0, 64, 0
1, 417136, Note_on_c, 0, 61, 29
1, 417202, Control_c, 0, 64, 36
1, 417217, Control_c, 0, 64, 61
1, 417232, Control_c, 0, 64, 65
1, 417247, Control_c, 0, 64, 68
1, 417262, Control_c, 0, 64, 70
1, 417277, Control_c, 0, 64, 74
1, 417291, Control_c, 0, 64, 78
1, 417306, Control_c, 0, 64, 82
1, 417321, Control_c, 0, 64, 86
1, 417325, Note_off_c, 0, 58, 55
1, 417336, Control_c, 0, 64, 89
1, 417351, Control_c, 0, 64, 93
1, 417366, Control_c, 0, 64, 97
1, 417381, Control_c, 0, 64, 102
1, 417395, Control_c, 0, 64, 106
1, 417410, Control_c, 0, 64, 108
1, 417425, Control_c, 0, 64, 112
1, 417440, Control_c, 0, 64, 119
1, 417455, Control_c, 0, 64, 127
1, 417455, Note_off_c, 0, 75, 38
1, 417634, Note_on_c, 0, 73, 61
1, 417741, Note_off_c, 0, 61, 41
1, 417752, Note_off_c, 0, 63, 36
1, 417785, Note_off_c, 0, 67, 37
1, 417794, Note_off_c, 0, 73, 64
1, 417854, Note_off_c, 0, 79, 31
1, 417952, Note_on_c, 0, 58, 56
1, 418026, Note_off_c, 0, 82, 17
1, 418037, Note_on_c, 0, 63, 54
1, 418081, Note_off_c, 0, 85, 25
1, 418083, Note_on_c, 0, 68, 59
1, 418132, Note_off_c, 0, 87, 40
1, 418180, Note_on_c, 0, 75, 44
1, 418183, Note_on_c, 0, 71, 69
1, 418204, Control_c, 0, 64, 126
1, 418218, Control_c, 0, 64, 112
1, 418233, Control_c, 0, 64, 98
1, 418236, Note_on_c, 0, 80, 49
1, 418248, Control_c, 0, 64, 81
1, 418263, Control_c, 0, 64, 63
1, 418278, Control_c, 0, 64, 0
1, 418302, Note_on_c, 0, 87, 69
1, 418336, Control_c, 0, 64, 23
1, 418350, Control_c, 0, 64, 60
1, 418365, Control_c, 0, 64, 67
1, 418380, Control_c, 0, 64, 71
1, 418395, Control_c, 0, 64, 74
1, 418410, Control_c, 0, 64, 77
1, 418424, Control_c, 0, 64, 79
1, 418425, Note_off_c, 0, 58, 60
1, 418433, Note_off_c, 0, 63, 58
1, 418446, Note_off_c, 0, 68, 60
1, 418447, Control_c, 0, 64, 82
1, 418462, Control_c, 0, 64, 84
1, 418478, Control_c, 0, 64, 87
1, 418493, Control_c, 0, 64, 89
1, 418508, Control_c, 0, 64, 92
1, 418522, Control_c, 0, 64, 93
1, 418537, Control_c, 0, 64, 94
1, 418552, Control_c, 0, 64, 95
1, 418566, Control_c, 0, 64, 96
1, 418581, Control_c, 0, 64, 98
1, 418596, Control_c, 0, 64, 98
1, 418611, Control_c, 0, 64, 99
1, 418655, Control_c, 0, 64, 99
1, 418670, Control_c, 0, 64, 100
1, 418680, Note_off_c, 0, 75, 36
1, 418685, Control_c, 0, 64, 101
1, 418698, Note_on_c, 0, 72, 70
1, 418718, Note_off_c, 0, 71, 61
1, 418729, Control_c, 0, 64, 102
1, 418744, Control_c, 0, 64, 103
1, 418759, Control_c, 0, 64, 104
1, 418773, Control_c, 0, 64, 105
1, 418788, Control_c, 0, 64, 106
1, 418818, Control_c, 0, 64, 107
1, 418833, Control_c, 0, 64, 108
1, 418848, Control_c, 0, 64, 110
1, 418862, Control_c, 0, 64, 111
1, 418877, Control_c, 0, 64, 111
1, 418892, Control_c, 0, 64, 112
1, 418907, Control_c, 0, 64, 113
1, 418922, Control_c, 0, 64, 114
1, 418937, Control_c, 0, 64, 117
1, 418952, Control_c, 0, 64, 120
1, 418966, Control_c, 0, 64, 123
1, 418981, Control_c, 0, 64, 126
1, 418995, Note_on_c, 0, 75, 77
1, 418996, Control_c, 0, 64, 127
1, 419000, Note_off_c, 0, 72, 61
1, 419024, Note_off_c, 0, 87, 28
1, 419237, Note_off_c, 0, 75, 64
1, 419241, Note_on_c, 0, 72, 71
1, 419286, Note_off_c, 0, 72, 64
1, 419289, Note_on_c, 0, 87, 85
1, 419300, Note_on_c, 0, 75, 57
1, 419301, Note_off_c, 0, 80, 62
1, 419396, Note_on_c, 0, 58, 58
1, 419435, Note_on_c, 0, 63, 61
1, 419451, Note_off_c, 0, 75, 60
1, 419464, Note_on_c, 0, 67, 64
1, 419476, Note_off_c, 0, 87, 61
1, 419504, Note_off_c, 0, 58, 56
1, 419523, Control_c, 0, 64, 97
1, 419538, Control_c, 0, 64, 73
1, 419548, Note_on_c, 0, 72, 72
1, 419552, Note_on_c, 0, 86, 71
1, 419553, Control_c, 0, 64, 0
1, 419563, Note_on_c, 0, 74, 61
1, 419583, Control_c, 0, 64, 45
1, 419597, Control_c, 0, 64, 59
1, 419612, Control_c, 0, 64, 64
1, 419627, Control_c, 0, 64, 68
1, 419642, Control_c, 0, 64, 72
1, 419657, Control_c, 0, 64, 77
1, 419671, Control_c, 0, 64, 81
1, 419686, Control_c, 0, 64, 84
1, 419701, Control_c, 0, 64, 87
1, 419715, Control_c, 0, 64, 89
1, 419730, Control_c, 0, 64, 92
1, 419738, Note_off_c, 0, 74, 62
1, 419745, Control_c, 0, 64, 95
1, 419760, Control_c, 0, 64, 97
1, 419775, Control_c, 0, 64, 98
1, 419789, Control_c, 0, 64, 100
1, 419804, Control_c, 0, 64, 104
1, 419819, Control_c, 0, 64, 108
1, 419834, Note_off_c, 0, 72, 59
1, 419834, Control_c, 0, 64, 112
1, 419849, Control_c, 0, 64, 116
1, 419864, Control_c, 0, 64, 119
1, 419879, Control_c, 0, 64, 127
1, 419906, Note_on_c, 0, 87, 83
1, 419911, Note_on_c, 0, 75, 65
1, 419912, Note_off_c, 0, 86, 62
1, 420008, Note_off_c, 0, 75, 59
1, 420023, Note_on_c, 0, 70, 82
1, 420073, Note_off_c, 0, 63, 54
1, 420079, Note_off_c, 0, 67, 56
1, 420089, Note_off_c, 0, 70, 65
1, 420101, Note_off_c, 0, 87, 62
1, 420139, Control_c, 0, 64, 113
1, 420153, Control_c, 0, 64, 88
1, 420168, Note_on_c, 0, 91, 88
1, 420168, Control_c, 0, 64, 79
1, 420179, Note_on_c, 0, 79, 69
1, 420183, Control_c, 0, 64, 79
1, 420190, Note_on_c, 0, 70, 61
1, 420198, Control_c, 0, 64, 83
1, 420200, Note_on_c, 0, 63, 50
1, 420205, Note_on_c, 0, 67, 52
1, 420213, Control_c, 0, 64, 89
1, 420221, Note_on_c, 0, 58, 49
1, 420228, Control_c, 0, 64, 97
1, 420230, Note_off_c, 0, 70, 65
1, 420243, Control_c, 0, 64, 107
1, 420245, Note_off_c, 0, 67, 62
1, 420250, Note_off_c, 0, 79, 56
1, 420257, Control_c, 0, 64, 123
1, 420272, Control_c, 0, 64, 127
1, 420284, Note_off_c, 0, 63, 59
1, 420302, Note_off_c, 0, 58, 63
1, 420336, Note_off_c, 0, 91, 61
1, 420448, Note_on_c, 0, 34, 74
1, 420451, Note_on_c, 0, 87, 91
1, 420460, Note_on_c, 0, 75, 75
1, 420487, Note_off_c, 0, 34, 61
1, 420573, Note_off_c, 0, 87, 63
1, 420649, Note_off_c, 0, 75, 58
1, 420739, Control_c, 0, 64, 118
1, 420740, Note_on_c, 0, 87, 88
1, 420749, Note_on_c, 0, 82, 72
1, 420753, Note_on_c, 0, 67, 58
1, 420753, Control_c, 0, 64, 86
1, 420755, Note_on_c, 0, 58, 55
1, 420758, Note_on_c, 0, 75, 72
1, 420768, Note_on_c, 0, 80, 51
1, 420768, Control_c, 0, 64, 65
1, 420783, Control_c, 0, 64, 0
1, 420813, Control_c, 0, 64, 35
1, 420827, Control_c, 0, 64, 61
1, 420842, Control_c, 0, 64, 66
1, 420857, Control_c, 0, 64, 71
1, 420873, Control_c, 0, 64, 76
1, 420888, Control_c, 0, 64, 82
1, 420903, Control_c, 0, 64, 87
1, 420917, Control_c, 0, 64, 89
1, 420932, Control_c, 0, 64, 93
1, 420947, Control_c, 0, 64, 97
1, 420962, Control_c, 0, 64, 102
1, 420976, Control_c, 0, 64, 108
1, 420991, Control_c, 0, 64, 117
1, 421006, Control_c, 0, 64, 127
1, 421015, Note_off_c, 0, 87, 55
1, 421043, Note_on_c, 0, 68, 80
1, 421073, Note_off_c, 0, 58, 52
1, 421087, Note_off_c, 0, 75, 60
1, 421095, Note_off_c, 0, 67, 52
1, 421136, Note_off_c, 0, 68, 61
1, 421160, Note_on_c, 0, 86, 87
1, 421170, Note_on_c, 0, 74, 70
1, 421170, Note_off_c, 0, 80, 63
1, 421172, Note_off_c, 0, 82, 62
1, 421211, Note_off_c, 0, 74, 60
1, 421232, Note_off_c, 0, 86, 63
1, 421303, Control_c, 0, 64, 95
1, 421308, Note_on_c, 0, 86, 83
1, 421315, Note_on_c, 0, 58, 58
1, 421317, Control_c, 0, 64, 74
1, 421319, Note_on_c, 0, 74, 65
1, 421320, Note_on_c, 0, 82, 59
1, 421322, Note_on_c, 0, 72, 65
1, 421325, Note_on_c, 0, 80, 43
1, 421332, Control_c, 0, 64, 60
1, 421347, Control_c, 0, 64, 64
1, 421361, Control_c, 0, 64, 68
1, 421376, Control_c, 0, 64, 71
1, 421391, Control_c, 0, 64, 74
1, 421406, Control_c, 0, 64, 79
1, 421421, Control_c, 0, 64, 84
1, 421443, Control_c, 0, 64, 89
1, 421458, Control_c, 0, 64, 92
1, 421473, Control_c, 0, 64, 93
1, 421487, Control_c, 0, 64, 95
1, 421502, Control_c, 0, 64, 99
1, 421517, Control_c, 0, 64, 105
1, 421532, Control_c, 0, 64, 110
1, 421543, Note_off_c, 0, 72, 36
1, 421547, Control_c, 0, 64, 114
1, 421561, Control_c, 0, 64, 127
1, 421584, Note_on_c, 0, 68, 65
1, 421603, Note_off_c, 0, 74, 60
1, 421650, Note_off_c, 0, 58, 38
1, 421706, Note_off_c, 0, 86, 41
1, 421717, Note_off_c, 0, 68, 60
1, 421785, Note_off_c, 0, 82, 54
1, 421802, Note_off_c, 0, 80, 43
1, 421871, Note_on_c, 0, 67, 60
1, 421871, Note_on_c, 0, 85, 80
1, 421873, Control_c, 0, 64, 104
1, 421888, Control_c, 0, 64, 85
1, 421889, Note_on_c, 0, 56, 49
1, 421890, Note_on_c, 0, 73, 54
1, 421895, Note_on_c, 0, 82, 62
1, 421903, Control_c, 0, 64, 68
1, 421907, Note_on_c, 0, 58, 43
1, 421909, Note_on_c, 0, 80, 39
1, 421918, Control_c, 0, 64, 42
1, 421933, Control_c, 0, 64, 54
1, 421948, Control_c, 0, 64, 61
1, 421963, Control_c, 0, 64, 63
1, 421978, Control_c, 0, 64, 65
1, 421992, Control_c, 0, 64, 68
1, 422007, Control_c, 0, 64, 71
1, 422022, Control_c, 0, 64, 75
1, 422037, Control_c, 0, 64, 78
1, 422052, Control_c, 0, 64, 81
1, 422067, Control_c, 0, 64, 83
1, 422082, Control_c, 0, 64, 86
1, 422097, Control_c, 0, 64, 90
1, 422110, Note_off_c, 0, 85, 53
1, 422111, Control_c, 0, 64, 94
1, 422118, Note_off_c, 0, 73, 58
1, 422126, Control_c, 0, 64, 97
1, 422141, Control_c, 0, 64, 99
1, 422156, Control_c, 0, 64, 100
1, 422171, Control_c, 0, 64, 102
1, 422192, Control_c, 0, 64, 104
1, 422207, Control_c, 0, 64, 108
1, 422222, Control_c, 0, 64, 113
1, 422225, Note_on_c, 0, 86, 84
1, 422235, Note_on_c, 0, 74, 77
1, 422237, Note_off_c, 0, 80, 55
1, 422237, Note_off_c, 0, 82, 63
1, 422237, Control_c, 0, 64, 117
1, 422252, Control_c, 0, 64, 124
1, 422267, Control_c, 0, 64, 127
1, 422329, Note_off_c, 0, 67, 37
1, 422342, Note_on_c, 0, 65, 76
1, 422362, Note_off_c, 0, 74, 52
1, 422371, Note_off_c, 0, 56, 58
1, 422373, Note_off_c, 0, 58, 50
1, 422404, Note_off_c, 0, 86, 61
1, 422407, Note_off_c, 0, 65, 58
1, 422460, Control_c, 0, 64, 103
1, 422475, Control_c, 0, 64, 98
1, 422499, Note_on_c, 0, 89, 92
1, 422509, Note_on_c, 0, 58, 52
1, 422513, Note_on_c, 0, 65, 62
1, 422513, Note_on_c, 0, 77, 64
1, 422520, Control_c, 0, 64, 100
1, 422523, Note_on_c, 0, 56, 46
1, 422527, Note_on_c, 0, 80, 43
1, 422534, Control_c, 0, 64, 105
1, 422539, Note_off_c, 0, 65, 64
1, 422549, Control_c, 0, 64, 114
1, 422564, Control_c, 0, 64, 127
1, 422577, Note_off_c, 0, 80, 0
1, 422577, Note_on_c, 0, 80, 17
1, 422604, Note_off_c, 0, 56, 63
1, 422606, Note_off_c, 0, 58, 55
1, 422666, Note_off_c, 0, 89, 58
1, 422689, Note_off_c, 0, 77, 62
1, 422840, Note_on_c, 0, 86, 84
1, 422848, Note_on_c, 0, 46, 47
1, 422850, Note_on_c, 0, 74, 79
1, 422854, Note_on_c, 0, 34, 51
1, 422863, Note_off_c, 0, 80, 55
1, 422948, Note_off_c, 0, 34, 59
1, 422994, Note_off_c, 0, 46, 50
1, 423008, Note_off_c, 0, 74, 58
1, 423068, Note_off_c, 0, 86, 56
1, 423235, Note_on_c, 0, 85, 78
1, 423245, Note_on_c, 0, 82, 61
1, 423248, Note_on_c, 0, 63, 54
1, 423249, Note_on_c, 0, 73, 61
1, 423252, Note_on_c, 0, 51, 52
1, 423253, Note_on_c, 0, 79, 49
1, 423253, Control_c, 0, 64, 96
1, 423268, Control_c, 0, 64, 70
1, 423283, Control_c, 0, 64, 0
1, 423313, Control_c, 0, 64, 29
1, 423328, Control_c, 0, 64, 54
1, 423343, Control_c, 0, 64, 63
1, 423345, Note_off_c, 0, 79, 0
1, 423357, Control_c, 0, 64, 68
1, 423372, Control_c, 0, 64, 73
1, 423381, Poly_aftertouch_c, 0, 79, 127
1, 423387, Control_c, 0, 64, 77
1, 423402, Control_c, 0, 64, 82
1, 423417, Control_c, 0, 64, 85
1, 423431, Control_c, 0, 64, 87
1, 423446, Control_c, 0, 64, 90
1, 423461, Control_c, 0, 64, 95
1, 423476, Control_c, 0, 64, 98
1, 423477, Note_off_c, 0, 63, 60
1, 423491, Control_c, 0, 64, 101
1, 423505, Control_c, 0, 64, 103
1, 423520, Control_c, 0, 64, 106
1, 423522, Note_off_c, 0, 85, 57
1, 423535, Control_c, 0, 64, 108
1, 423550, Control_c, 0, 64, 113
1, 423563, Control_c, 0, 64, 119
1, 423573, Poly_aftertouch_c, 0, 79, 0
1, 423578, Control_c, 0, 64, 127
1, 423590, Note_off_c, 0, 82, 36
1, 423644, Note_on_c, 0, 64, 48
1, 423659, Note_on_c, 0, 52, 51
1, 423736, Note_off_c, 0, 51, 37
1, 423741, Note_off_c, 0, 52, 61
1, 423824, Note_off_c, 0, 64, 63
1, 423830, Note_off_c, 0, 73, 58
1, 423912, Control_c, 0, 64, 112
1, 423924, Note_on_c, 0, 82, 83
1, 423935, Note_on_c, 0, 70, 65
1, 423936, Note_on_c, 0, 76, 63
1, 423939, Note_on_c, 0, 67, 66
1, 423946, Note_on_c, 0, 73, 57
1, 423957, Control_c, 0, 64, 112
1, 423957, Note_on_c, 0, 55, 52
1, 423971, Control_c, 0, 64, 116
1, 423986, Control_c, 0, 64, 127
1, 424040, Note_off_c, 0, 67, 56
1, 424061, Note_off_c, 0, 55, 62
1, 424115, Note_off_c, 0, 73, 61
1, 424130, Note_off_c, 0, 76, 58
1, 424207, Note_on_c, 0, 64, 72
1, 424219, Note_on_c, 0, 52, 63
1, 424279, Note_off_c, 0, 82, 56
1, 424281, Note_off_c, 0, 64, 60
1, 424308, Note_off_c, 0, 52, 60
1, 424325, Note_off_c, 0, 70, 62
1, 424439, Control_c, 0, 64, 101
1, 424449, Note_on_c, 0, 81, 88
1, 424450, Note_on_c, 0, 60, 69
1, 424450, Note_on_c, 0, 69, 80
1, 424452, Note_on_c, 0, 79, 71
1, 424454, Control_c, 0, 64, 76
1, 424458, Note_on_c, 0, 48, 63
1, 424468, Control_c, 0, 64, 56
1, 424472, Note_on_c, 0, 76, 42
1, 424483, Control_c, 0, 64, 59
1, 424498, Control_c, 0, 64, 65
1, 424512, Control_c, 0, 64, 70
1, 424527, Control_c, 0, 64, 74
1, 424542, Control_c, 0, 64, 80
1, 424557, Control_c, 0, 64, 87
1, 424560, Note_off_c, 0, 60, 65
1, 424572, Control_c, 0, 64, 93
1, 424586, Control_c, 0, 64, 96
1, 424601, Control_c, 0, 64, 99
1, 424616, Control_c, 0, 64, 103
1, 424631, Control_c, 0, 64, 109
1, 424646, Control_c, 0, 64, 115
1, 424660, Control_c, 0, 64, 127
1, 424666, Note_off_c, 0, 76, 40
1, 424694, Note_off_c, 0, 81, 59
1, 424699, Note_off_c, 0, 79, 49
1, 424704, Note_on_c, 0, 61, 81
1, 424705, Note_on_c, 0, 49, 73
1, 424748, Note_off_c, 0, 48, 51
1, 424835, Note_off_c, 0, 69, 60
1, 424842, Note_off_c, 0, 49, 62
1, 424843, Note_off_c, 0, 61, 62
1, 424914, Control_c, 0, 64, 117
1, 424929, Control_c, 0, 64, 98
1, 424932, Note_on_c, 0, 79, 95
1, 424932, Note_on_c, 0, 70, 60
1, 424933, Note_on_c, 0, 73, 81
1, 424934, Note_on_c, 0, 67, 82
1, 424935, Note_on_c, 0, 64, 78
1, 424938, Note_on_c, 0, 52, 69
1, 424943, Control_c, 0, 64, 97
1, 424958, Control_c, 0, 64, 98
1, 424973, Control_c, 0, 64, 105
1, 424988, Control_c, 0, 64, 118
1, 425003, Control_c, 0, 64, 127
1, 425011, Note_off_c, 0, 64, 61
1, 425024, Note_off_c, 0, 52, 62
1, 425036, Note_off_c, 0, 67, 58
1, 425071, Note_off_c, 0, 70, 61
1, 425100, Note_off_c, 0, 73, 58
1, 425134, Note_off_c, 0, 79, 58
1, 425170, Note_on_c, 0, 61, 89
1, 425176, Note_on_c, 0, 49, 74
1, 425274, Note_off_c, 0, 61, 62
1, 425295, Note_off_c, 0, 49, 62
1, 425408, Control_c, 0, 64, 108
1, 425418, Note_on_c, 0, 57, 73
1, 425420, Note_on_c, 0, 88, 99
1, 425423, Note_on_c, 0, 85, 86
1, 425423, Note_on_c, 0, 45, 73
1, 425423, Note_on_c, 0, 76, 89
1, 425423, Control_c, 0, 64, 76
1, 425426, Note_on_c, 0, 79, 59
1, 425438, Control_c, 0, 64, 0
1, 425483, Control_c, 0, 64, 49
1, 425498, Control_c, 0, 64, 64
1, 425510, Note_off_c, 0, 79, 29
1, 425513, Control_c, 0, 64, 71
1, 425528, Control_c, 0, 64, 78
1, 425542, Control_c, 0, 64, 85
1, 425549, Note_off_c, 0, 57, 60
1, 425557, Control_c, 0, 64, 90
1, 425572, Control_c, 0, 64, 94
1, 425587, Control_c, 0, 64, 98
1, 425602, Control_c, 0, 64, 104
1, 425616, Control_c, 0, 64, 110
1, 425631, Control_c, 0, 64, 114
1, 425646, Control_c, 0, 64, 119
1, 425662, Control_c, 0, 64, 127
1, 425695, Note_on_c, 0, 46, 81
1, 425697, Note_on_c, 0, 58, 94
1, 425698, Note_off_c, 0, 45, 49
1, 425728, Note_off_c, 0, 88, 49
1, 425739, Note_off_c, 0, 76, 61
1, 425864, Note_off_c, 0, 46, 61
1, 425873, Note_off_c, 0, 58, 61
1, 425882, Note_off_c, 0, 85, 60
1, 425975, Note_on_c, 0, 85, 99
1, 425976, Note_on_c, 0, 73, 103
1, 425977, Note_on_c, 0, 82, 82
1, 425981, Note_on_c, 0, 61, 88
1, 425985, Note_on_c, 0, 49, 81
1, 426092, Note_off_c, 0, 61, 59
1, 426103, Note_off_c, 0, 49, 62
1, 426227, Note_off_c, 0, 85, 56
1, 426254, Note_off_c, 0, 82, 56
1, 426257, Note_on_c, 0, 58, 96
1, 426263, Note_on_c, 0, 46, 82
1, 426339, Note_off_c, 0, 58, 61
1, 426353, Note_off_c, 0, 46, 60
1, 426409, Note_off_c, 0, 73, 52
1, 426559, Control_c, 0, 64, 86
1, 426565, Note_on_c, 0, 73, 82
1, 426566, Note_on_c, 0, 70, 94
1, 426566, Note_on_c, 0, 76, 82
1, 426567, Note_on_c, 0, 82, 96
1, 426571, Note_on_c, 0, 54, 93
1, 426574, Control_c, 0, 64, 23
1, 426577, Note_on_c, 0, 42, 79
1, 426589, Control_c, 0, 64, 0
1, 426649, Control_c, 0, 64, 60
1, 426663, Control_c, 0, 64, 70
1, 426685, Control_c, 0, 64, 78
1, 426700, Control_c, 0, 64, 85
1, 426714, Control_c, 0, 64, 90
1, 426729, Control_c, 0, 64, 96
1, 426744, Control_c, 0, 64, 103
1, 426759, Control_c, 0, 64, 111
1, 426770, Note_off_c, 0, 54, 65
1, 426774, Control_c, 0, 64, 119
1, 426789, Control_c, 0, 64, 127
1, 426844, Note_off_c, 0, 42, 63
1, 426905, Note_on_c, 0, 55, 94
1, 426907, Note_on_c, 0, 43, 87
1, 426907, Control_c, 0, 64, 110
1, 426922, Control_c, 0, 64, 98
1, 426952, Control_c, 0, 64, 101
1, 426967, Control_c, 0, 64, 108
1, 426981, Control_c, 0, 64, 127
1, 427021, Note_off_c, 0, 82, 38
1, 427070, Note_off_c, 0, 76, 34
1, 427102, Note_off_c, 0, 73, 38
1, 427123, Note_off_c, 0, 43, 50
1, 427141, Note_off_c, 0, 70, 60
1, 427155, Note_off_c, 0, 55, 62
1, 427264, Control_c, 0, 64, 100
1, 427278, Control_c, 0, 64, 67
1, 427293, Control_c, 0, 64, 0
1, 427295, Note_on_c, 0, 58, 99
1, 427297, Note_on_c, 0, 73, 70
1, 427298, Note_on_c, 0, 76, 77
1, 427299, Note_on_c, 0, 69, 97
1, 427299, Note_on_c, 0, 81, 97
1, 427309, Note_on_c, 0, 46, 78
1, 427323, Control_c, 0, 64, 62
1, 427337, Control_c, 0, 64, 70
1, 427339, Note_off_c, 0, 73, 50
1, 427343, Note_off_c, 0, 58, 66
1, 427352, Control_c, 0, 64, 84
1, 427367, Note_off_c, 0, 46, 62
1, 427367, Control_c, 0, 64, 103
1, 427382, Control_c, 0, 64, 127
1, 427418, Note_off_c, 0, 76, 44
1, 427476, Note_off_c, 0, 81, 49
1, 427661, Note_off_c, 0, 69, 57
1, 427716, Control_c, 0, 64, 119
1, 427730, Control_c, 0, 64, 65
1, 427745, Control_c, 0, 64, 0
1, 427747, Note_on_c, 0, 37, 97
1, 427748, Note_on_c, 0, 25, 89
1, 427772, Note_on_c, 0, 67, 93
1, 427773, Note_on_c, 0, 70, 82
1, 427773, Note_on_c, 0, 76, 82
1, 427775, Note_on_c, 0, 79, 91
1, 427819, Control_c, 0, 64, 62
1, 427834, Control_c, 0, 64, 73
1, 427849, Control_c, 0, 64, 81
1, 427863, Control_c, 0, 64, 91
1, 427878, Control_c, 0, 64, 98
1, 427893, Control_c, 0, 64, 105
1, 427908, Control_c, 0, 64, 114
1, 427919, Note_off_c, 0, 37, 60
1, 427923, Control_c, 0, 64, 127
1, 427930, Note_off_c, 0, 67, 52
1, 427973, Note_off_c, 0, 25, 46
1, 427997, Control_c, 0, 64, 83
1, 428005, Note_off_c, 0, 70, 60
1, 428011, Control_c, 0, 64, 0
1, 428035, Note_on_c, 0, 38, 104
1, 428045, Note_on_c, 0, 26, 83
1, 428051, Note_off_c, 0, 76, 53
1, 428073, Note_off_c, 0, 79, 60
1, 428080, Note_on_c, 0, 25, 33
1, 428100, Note_off_c, 0, 26, 63
1, 428116, Control_c, 0, 64, 59
1, 428121, Note_off_c, 0, 25, 51
1, 428131, Control_c, 0, 64, 68
1, 428134, Note_off_c, 0, 38, 66
1, 428145, Control_c, 0, 64, 74
1, 428160, Control_c, 0, 64, 79
1, 428183, Control_c, 0, 64, 86
1, 428198, Control_c, 0, 64, 93
1, 428213, Control_c, 0, 64, 98
1, 428227, Control_c, 0, 64, 101
1, 428242, Control_c, 0, 64, 103
1, 428257, Control_c, 0, 64, 108
1, 428272, Control_c, 0, 64, 118
1, 428286, Control_c, 0, 64, 127
1, 428355, Note_on_c, 0, 62, 92
1, 428358, Note_on_c, 0, 74, 103
1, 428360, Note_on_c, 0, 81, 90
1, 428360, Note_on_c, 0, 86, 96
1, 428360, Note_on_c, 0, 57, 77
1, 428362, Note_on_c, 0, 54, 79
1, 428363, Note_on_c, 0, 50, 79
1, 428363, Note_on_c, 0, 78, 86
1, 428704, Note_off_c, 0, 86, 58
1, 428714, Note_off_c, 0, 74, 56
1, 428735, Note_off_c, 0, 78, 60
1, 428738, Note_off_c, 0, 81, 59
1, 428787, Note_on_c, 0, 81, 85
1, 428792, Note_on_c, 0, 86, 98
1, 428794, Note_on_c, 0, 78, 79
1, 428795, Note_on_c, 0, 74, 100
1, 428933, Note_off_c, 0, 62, 47
1, 429049, Note_off_c, 0, 74, 52
1, 429116, Note_off_c, 0, 57, 45
1, 429179, Note_off_c, 0, 86, 45
1, 429236, Note_off_c, 0, 50, 40
1, 429239, Note_off_c, 0, 54, 36
1, 429408, Note_off_c, 0, 78, 34
1, 429461, Note_on_c, 0, 50, 70
1, 429463, Note_on_c, 0, 62, 92
1, 429465, Note_on_c, 0, 57, 72
1, 429466, Note_on_c, 0, 54, 78
1, 429499, Note_off_c, 0, 57, 62
1, 429500, Note_off_c, 0, 62, 60
1, 429513, Note_off_c, 0, 54, 64
1, 429528, Note_off_c, 0, 50, 65
1, 429537, Note_off_c, 0, 81, 23
1, 429576, Note_on_c, 0, 81, 72
1, 429579, Note_on_c, 0, 86, 92
1, 429580, Note_on_c, 0, 78, 73
1, 429581, Note_on_c, 0, 74, 97
1, 429656, Note_on_c, 0, 45, 67
1, 429709, Note_on_c, 0, 50, 78
1, 429732, Note_off_c, 0, 45, 64
1, 429740, Control_c, 0, 64, 100
1, 429742, Note_on_c, 0, 54, 85
1, 429755, Control_c, 0, 64, 62
1, 429770, Control_c, 0, 64, 0
1, 429800, Note_on_c, 0, 62, 96
1, 429814, Control_c, 0, 64, 42
1, 429829, Control_c, 0, 64, 70
1, 429844, Control_c, 0, 64, 83
1, 429859, Control_c, 0, 64, 98
1, 429874, Control_c, 0, 64, 121
1, 429889, Control_c, 0, 64, 127
1, 429974, Note_off_c, 0, 86, 56
1, 429998, Note_off_c, 0, 74, 56
1, 430029, Note_off_c, 0, 78, 59
1, 430029, Note_off_c, 0, 81, 60
1, 430085, Note_on_c, 0, 81, 84
1, 430086, Note_on_c, 0, 74, 103
1, 430086, Note_on_c, 0, 86, 97
1, 430089, Note_on_c, 0, 78, 80
1, 430115, Note_off_c, 0, 62, 51
1, 430118, Note_off_c, 0, 50, 29
1, 430226, Note_off_c, 0, 74, 51
1, 430282, Note_off_c, 0, 54, 33
1, 430360, Note_off_c, 0, 86, 39
1, 430533, Note_on_c, 0, 45, 73
1, 430574, Note_on_c, 0, 50, 73
1, 430589, Note_off_c, 0, 78, 34
1, 430603, Note_off_c, 0, 45, 64
1, 430606, Note_on_c, 0, 54, 84
1, 430616, Note_off_c, 0, 81, 42
1, 430670, Note_off_c, 0, 50, 56
1, 430673, Note_on_c, 0, 62, 92
1, 430711, Note_off_c, 0, 62, 66
1, 430732, Note_on_c, 0, 74, 100
1, 430732, Note_on_c, 0, 81, 88
1, 430733, Note_on_c, 0, 86, 96
1, 430734, Note_on_c, 0, 78, 85
1, 430749, Note_off_c, 0, 54, 61
1, 430825, Note_on_c, 0, 42, 79
1, 430881, Note_on_c, 0, 50, 80
1, 430884, Note_off_c, 0, 42, 62
1, 430927, Note_on_c, 0, 54, 81
1, 430934, Control_c, 0, 64, 79
1, 430948, Control_c, 0, 64, 0
1, 430980, Note_on_c, 0, 62, 97
1, 430992, Note_off_c, 0, 50, 61
1, 430993, Control_c, 0, 64, 53
1, 431008, Control_c, 0, 64, 67
1, 431022, Control_c, 0, 64, 78
1, 431037, Control_c, 0, 64, 91
1, 431052, Control_c, 0, 64, 111
1, 431067, Control_c, 0, 64, 127
1, 431147, Poly_aftertouch_c, 0, 49, 127
1, 431155, Note_off_c, 0, 86, 53
1, 431193, Note_off_c, 0, 74, 56
1, 431224, Note_off_c, 0, 81, 56
1, 431236, Note_off_c, 0, 78, 60
1, 431293, Note_on_c, 0, 81, 94
1, 431295, Note_on_c, 0, 74, 95
1, 431296, Note_on_c, 0, 78, 80
1, 431296, Note_on_c, 0, 86, 97
1, 431337, Note_off_c, 0, 62, 37
1, 431402, Poly_aftertouch_c, 0, 49, 0
1, 431418, Note_off_c, 0, 74, 53
1, 431457, Note_off_c, 0, 54, 62
1, 431544, Note_off_c, 0, 86, 50
1, 431754, Note_on_c, 0, 42, 53
1, 431783, Note_off_c, 0, 42, 63
1, 431789, Note_off_c, 0, 78, 33
1, 431803, Note_on_c, 0, 50, 73
1, 431840, Note_on_c, 0, 54, 84
1, 431879, Note_off_c, 0, 81, 35
1, 431903, Note_off_c, 0, 50, 63
1, 431912, Note_on_c, 0, 62, 93
1, 431967, Note_off_c, 0, 62, 61
1, 431981, Note_on_c, 0, 74, 94
1, 431981, Note_on_c, 0, 86, 94
1, 431984, Note_on_c, 0, 78, 83
1, 431985, Note_on_c, 0, 81, 85
1, 432014, Note_on_c, 0, 49, 16
1, 432032, Note_off_c, 0, 54, 59
1, 432069, Note_off_c, 0, 49, 51
1, 432111, Note_on_c, 0, 45, 77
1, 432163, Note_on_c, 0, 50, 79
1, 432181, Control_c, 0, 64, 116
1, 432187, Note_off_c, 0, 45, 64
1, 432193, Note_on_c, 0, 54, 87
1, 432196, Control_c, 0, 64, 70
1, 432210, Control_c, 0, 64, 0
1, 432257, Note_on_c, 0, 62, 98
1, 432269, Control_c, 0, 64, 21
1, 432280, Note_off_c, 0, 50, 56
1, 432284, Control_c, 0, 64, 65
1, 432299, Control_c, 0, 64, 77
1, 432314, Control_c, 0, 64, 88
1, 432328, Control_c, 0, 64, 100
1, 432343, Control_c, 0, 64, 113
1, 432358, Control_c, 0, 64, 127
1, 432528, Note_off_c, 0, 86, 51
1, 432565, Note_off_c, 0, 74, 55
1, 432590, Note_off_c, 0, 81, 54
1, 432606, Note_off_c, 0, 78, 58
1, 432628, Poly_aftertouch_c, 0, 49, 127
1, 432682, Note_on_c, 0, 74, 98
1, 432682, Note_on_c, 0, 81, 96
1, 432682, Note_on_c, 0, 86, 96
1, 432685, Note_on_c, 0, 78, 83
1, 432768, Note_off_c, 0, 62, 49
1, 432807, Note_off_c, 0, 74, 52
1, 432828, Poly_aftertouch_c, 0, 49, 0
1, 432891, Note_off_c, 0, 86, 53
1, 432979, Note_off_c, 0, 54, 59
1, 433342, Note_off_c, 0, 78, 18
1, 433410, Note_on_c, 0, 45, 76
1, 433470, Note_on_c, 0, 50, 77
1, 433511, Note_off_c, 0, 45, 64
1, 433514, Note_on_c, 0, 54, 86
1, 433538, Note_off_c, 0, 81, 43
1, 433602, Note_off_c, 0, 50, 64
1, 433604, Note_on_c, 0, 62, 98
1, 433634, Note_on_c, 0, 74, 98
1, 433635, Note_on_c, 0, 86, 99
1, 433639, Note_on_c, 0, 81, 91
1, 433640, Note_on_c, 0, 78, 86
1, 433648, Note_off_c, 0, 62, 64
1, 433672, Note_off_c, 0, 54, 61
1, 433916, Note_on_c, 0, 38, 86
1, 433929, Control_c, 0, 64, 80
1, 433944, Control_c, 0, 64, 0
1, 434003, Control_c, 0, 64, 44
1, 434017, Control_c, 0, 64, 68
1, 434020, Note_on_c, 0, 45, 83
1, 434032, Note_off_c, 0, 38, 62
1, 434032, Control_c, 0, 64, 79
1, 434047, Control_c, 0, 64, 93
1, 434062, Control_c, 0, 64, 109
1, 434077, Control_c, 0, 64, 127
1, 434152, Note_on_c, 0, 54, 95
1, 434160, Note_off_c, 0, 45, 63
1, 434189, Note_off_c, 0, 86, 37
1, 434206, Note_off_c, 0, 54, 66
1, 434253, Note_off_c, 0, 81, 27
1, 434292, Note_off_c, 0, 74, 53
1, 434319, Note_off_c, 0, 78, 28
1, 434381, Note_on_c, 0, 62, 94
1, 434381, Note_on_c, 0, 74, 101
1, 434382, Note_on_c, 0, 86, 97
1, 434386, Note_on_c, 0, 81, 92
1, 434390, Note_on_c, 0, 78, 86
1, 434404, Note_off_c, 0, 62, 67
1, 434698, Note_off_c, 0, 86, 44
1, 434740, Note_off_c, 0, 81, 50
1, 434805, Note_off_c, 0, 78, 53
1, 435037, Note_off_c, 0, 74, 55
1, 435070, Control_c, 0, 64, 82
1, 435085, Control_c, 0, 64, 46
1, 435087, Note_on_c, 0, 76, 99
1, 435093, Note_on_c, 0, 64, 100
1, 435100, Control_c, 0, 64, 51
1, 435115, Control_c, 0, 64, 66
1, 435129, Control_c, 0, 64, 71
1, 435131, Note_off_c, 0, 64, 67
1, 435144, Control_c, 0, 64, 77
1, 435159, Control_c, 0, 64, 89
1, 435174, Control_c, 0, 64, 101
1, 435189, Control_c, 0, 64, 106
1, 435204, Control_c, 0, 64, 109
1, 435219, Control_c, 0, 64, 111
1, 435234, Control_c, 0, 64, 113
1, 435249, Control_c, 0, 64, 119
1, 435264, Control_c, 0, 64, 127
1, 435531, Note_off_c, 0, 76, 60
1, 435576, Control_c, 0, 64, 92
1, 435585, Note_on_c, 0, 65, 94
1, 435585, Note_on_c, 0, 77, 99
1, 435591, Control_c, 0, 64, 64
1, 435606, Control_c, 0, 64, 0
1, 435672, Control_c, 0, 64, 36
1, 435687, Control_c, 0, 64, 64
1, 435702, Control_c, 0, 64, 71
1, 435716, Control_c, 0, 64, 77
1, 435731, Control_c, 0, 64, 83
1, 435746, Control_c, 0, 64, 88
1, 435761, Control_c, 0, 64, 93
1, 435776, Control_c, 0, 64, 99
1, 435791, Control_c, 0, 64, 104
1, 435806, Control_c, 0, 64, 108
1, 435820, Control_c, 0, 64, 110
1, 435835, Control_c, 0, 64, 111
1, 435850, Control_c, 0, 64, 111
1, 435865, Control_c, 0, 64, 113
1, 435879, Control_c, 0, 64, 115
1, 435894, Control_c, 0, 64, 115
1, 435939, Control_c, 0, 64, 116
1, 435953, Control_c, 0, 64, 116
1, 435968, Control_c, 0, 64, 117
1, 436012, Control_c, 0, 64, 118
1, 436023, Note_off_c, 0, 77, 47
1, 436116, Note_off_c, 0, 65, 50
1, 436265, Control_c, 0, 64, 117
1, 436280, Control_c, 0, 64, 112
1, 436286, Note_on_c, 0, 61, 87
1, 436289, Note_on_c, 0, 73, 103
1, 436293, Control_c, 0, 64, 86
1, 436308, Control_c, 0, 64, 60
1, 436323, Control_c, 0, 64, 0
1, 436397, Control_c, 0, 64, 52
1, 436419, Control_c, 0, 64, 70
1, 436434, Control_c, 0, 64, 81
1, 436449, Control_c, 0, 64, 92
1, 436464, Control_c, 0, 64, 99
1, 436479, Control_c, 0, 64, 103
1, 436493, Control_c, 0, 64, 107
1, 436508, Control_c, 0, 64, 112
1, 436523, Control_c, 0, 64, 114
1, 436538, Control_c, 0, 64, 115
1, 436564, Note_off_c, 0, 61, 59
1, 436567, Control_c, 0, 64, 116
1, 436611, Note_off_c, 0, 73, 60
1, 436641, Control_c, 0, 64, 117
1, 436656, Control_c, 0, 64, 118
1, 436671, Control_c, 0, 64, 119
1, 437042, Control_c, 0, 64, 112
1, 437057, Control_c, 0, 64, 82
1, 437072, Control_c, 0, 64, 0
1, 437263, Note_on_c, 0, 44, 78
1, 437291, Note_on_c, 0, 50, 80
1, 437293, Note_on_c, 0, 53, 87
1, 437312, Note_on_c, 0, 95, 103
1, 437314, Note_on_c, 0, 83, 103
1, 437315, Note_on_c, 0, 86, 87
1, 437315, Note_on_c, 0, 89, 91
1, 437316, Control_c, 0, 64, 70
1, 437321, Note_off_c, 0, 44, 64
1, 437324, Note_on_c, 0, 59, 95
1, 437331, Control_c, 0, 64, 96
1, 437346, Control_c, 0, 64, 127
1, 437610, Note_off_c, 0, 59, 51
1, 437678, Note_off_c, 0, 53, 52
1, 437697, Note_off_c, 0, 50, 52
1, 437697, Note_off_c, 0, 95, 46
1, 437733, Note_on_c, 0, 44, 82
1, 437739, Note_off_c, 0, 83, 57
1, 437751, Note_off_c, 0, 86, 44
1, 437752, Note_off_c, 0, 89, 52
1, 437788, Note_on_c, 0, 50, 76
1, 437806, Control_c, 0, 64, 93
1, 437821, Control_c, 0, 64, 90
1, 437821, Note_on_c, 0, 53, 76
1, 437836, Control_c, 0, 64, 97
1, 437844, Note_off_c, 0, 44, 65
1, 437849, Note_on_c, 0, 83, 98
1, 437851, Control_c, 0, 64, 113
1, 437852, Note_on_c, 0, 59, 99
1, 437854, Note_on_c, 0, 95, 102
1, 437860, Note_on_c, 0, 86, 75
1, 437860, Note_on_c, 0, 89, 86
1, 437865, Control_c, 0, 64, 127
1, 437872, Note_off_c, 0, 50, 66
1, 437878, Note_off_c, 0, 86, 69
1, 437881, Note_off_c, 0, 83, 68
1, 437881, Note_off_c, 0, 89, 67
1, 437882, Note_off_c, 0, 53, 66
1, 437893, Note_off_c, 0, 95, 71
1, 437893, Note_off_c, 0, 59, 67
1, 438184, Control_c, 0, 64, 105
1, 438198, Control_c, 0, 64, 65
1, 438200, Note_on_c, 0, 62, 87
1, 438203, Note_on_c, 0, 74, 97
1, 438213, Control_c, 0, 64, 0
1, 438317, Control_c, 0, 64, 54
1, 438331, Control_c, 0, 64, 66
1, 438346, Control_c, 0, 64, 70
1, 438361, Control_c, 0, 64, 73
1, 438376, Control_c, 0, 64, 77
1, 438390, Control_c, 0, 64, 82
1, 438405, Control_c, 0, 64, 88
1, 438420, Control_c, 0, 64, 92
1, 438436, Control_c, 0, 64, 95
1, 438451, Control_c, 0, 64, 98
1, 438466, Control_c, 0, 64, 103
1, 438480, Control_c, 0, 64, 108
1, 438495, Control_c, 0, 64, 112
1, 438510, Control_c, 0, 64, 113
1, 438525, Control_c, 0, 64, 114
1, 438644, Control_c, 0, 64, 113
1, 438651, Note_off_c, 0, 74, 59
1, 438667, Control_c, 0, 64, 98
1, 438671, Note_off_c, 0, 62, 49
1, 438682, Control_c, 0, 64, 76
1, 438696, Control_c, 0, 64, 0
1, 438701, Note_on_c, 0, 76, 98
1, 438702, Note_on_c, 0, 64, 91
1, 438726, Control_c, 0, 64, 45
1, 438741, Control_c, 0, 64, 62
1, 438756, Control_c, 0, 64, 68
1, 438770, Note_off_c, 0, 64, 66
1, 438770, Control_c, 0, 64, 75
1, 438785, Control_c, 0, 64, 83
1, 438800, Control_c, 0, 64, 91
1, 438814, Control_c, 0, 64, 95
1, 438829, Control_c, 0, 64, 99
1, 438844, Control_c, 0, 64, 104
1, 438859, Control_c, 0, 64, 113
1, 438874, Control_c, 0, 64, 127
1, 439169, Note_off_c, 0, 76, 58
1, 439200, Control_c, 0, 64, 101
1, 439214, Control_c, 0, 64, 71
1, 439228, Note_on_c, 0, 77, 96
1, 439230, Control_c, 0, 64, 0
1, 439234, Note_on_c, 0, 65, 95
1, 439318, Control_c, 0, 64, 57
1, 439333, Control_c, 0, 64, 68
1, 439348, Control_c, 0, 64, 73
1, 439363, Control_c, 0, 64, 78
1, 439378, Control_c, 0, 64, 84
1, 439392, Control_c, 0, 64, 90
1, 439415, Control_c, 0, 64, 96
1, 439430, Control_c, 0, 64, 100
1, 439444, Control_c, 0, 64, 103
1, 439459, Control_c, 0, 64, 105
1, 439474, Control_c, 0, 64, 107
1, 439489, Control_c, 0, 64, 109
1, 439504, Control_c, 0, 64, 110
1, 439670, Note_off_c, 0, 77, 28
1, 439747, Note_off_c, 0, 65, 38
1, 439859, Control_c, 0, 64, 109
1, 439874, Control_c, 0, 64, 109
1, 439889, Control_c, 0, 64, 108
1, 439904, Control_c, 0, 64, 108
1, 439918, Control_c, 0, 64, 107
1, 439933, Control_c, 0, 64, 107
1, 439948, Control_c, 0, 64, 106
1, 439962, Control_c, 0, 64, 103
1, 439977, Control_c, 0, 64, 89
1, 439988, Note_on_c, 0, 61, 83
1, 439988, Note_on_c, 0, 73, 91
1, 439992, Control_c, 0, 64, 65
1, 440007, Control_c, 0, 64, 0
1, 440067, Control_c, 0, 64, 17
1, 440082, Control_c, 0, 64, 62
1, 440097, Control_c, 0, 64, 71
1, 440112, Control_c, 0, 64, 78
1, 440126, Control_c, 0, 64, 84
1, 440141, Control_c, 0, 64, 90
1, 440164, Control_c, 0, 64, 96
1, 440179, Control_c, 0, 64, 101
1, 440194, Control_c, 0, 64, 107
1, 440208, Control_c, 0, 64, 110
1, 440223, Control_c, 0, 64, 111
1, 440241, Note_off_c, 0, 61, 60
1, 440289, Note_off_c, 0, 73, 61
1, 440400, Control_c, 0, 64, 110
1, 440549, Control_c, 0, 64, 111
1, 440563, Control_c, 0, 64, 111
1, 440578, Control_c, 0, 64, 115
1, 440593, Control_c, 0, 64, 127
1, 440815, Control_c, 0, 64, 91
1, 440831, Control_c, 0, 64, 59
1, 440846, Control_c, 0, 64, 0
1, 440851, Note_on_c, 0, 44, 75
1, 440872, Note_on_c, 0, 50, 77
1, 440894, Note_on_c, 0, 53, 85
1, 440926, Note_off_c, 0, 44, 64
1, 440927, Note_on_c, 0, 95, 105
1, 440928, Note_on_c, 0, 59, 91
1, 440929, Note_on_c, 0, 89, 91
1, 440930, Note_on_c, 0, 86, 86
1, 440933, Note_on_c, 0, 83, 97
1, 440957, Control_c, 0, 64, 58
1, 440972, Control_c, 0, 64, 67
1, 440987, Control_c, 0, 64, 73
1, 441002, Control_c, 0, 64, 79
1, 441016, Control_c, 0, 64, 87
1, 441031, Control_c, 0, 64, 93
1, 441046, Control_c, 0, 64, 100
1, 441061, Control_c, 0, 64, 105
1, 441076, Control_c, 0, 64, 115
1, 441090, Control_c, 0, 64, 127
1, 441349, Note_off_c, 0, 59, 49
1, 441442, Note_off_c, 0, 53, 58
1, 441448, Note_off_c, 0, 50, 58
1, 441455, Note_off_c, 0, 95, 59
1, 441470, Note_on_c, 0, 44, 84
1, 441470, Note_off_c, 0, 83, 52
1, 441470, Note_off_c, 0, 86, 58
1, 441489, Note_off_c, 0, 89, 54
1, 441526, Note_on_c, 0, 50, 77
1, 441552, Note_on_c, 0, 53, 81
1, 441571, Note_off_c, 0, 44, 65
1, 441583, Note_on_c, 0, 83, 95
1, 441585, Note_on_c, 0, 59, 99
1, 441586, Note_on_c, 0, 95, 99
1, 441592, Note_on_c, 0, 86, 72
1, 441598, Note_on_c, 0, 89, 76
1, 441604, Note_off_c, 0, 50, 65
1, 441611, Note_off_c, 0, 53, 66
1, 441612, Note_off_c, 0, 86, 68
1, 441616, Note_off_c, 0, 83, 67
1, 441620, Note_off_c, 0, 89, 68
1, 441625, Note_off_c, 0, 59, 67
1, 441633, Note_off_c, 0, 95, 70
1, 442218, Note_on_c, 0, 62, 68
1, 442239, Control_c, 0, 64, 115
1, 442254, Control_c, 0, 64, 110
1, 442269, Control_c, 0, 64, 106
1, 442284, Control_c, 0, 64, 101
1, 442299, Control_c, 0, 64, 98
1, 442313, Control_c, 0, 64, 94
1, 442328, Control_c, 0, 64, 91
1, 442343, Control_c, 0, 64, 88
1, 442358, Control_c, 0, 64, 83
1, 442373, Control_c, 0, 64, 78
1, 442388, Control_c, 0, 64, 73
1, 442410, Control_c, 0, 64, 67
1, 442425, Control_c, 0, 64, 0
1, 442559, Control_c, 0, 64, 26
1, 442574, Control_c, 0, 64, 62
1, 442589, Control_c, 0, 64, 68
1, 442604, Control_c, 0, 64, 73
1, 442618, Control_c, 0, 64, 78
1, 442633, Control_c, 0, 64, 83
1, 442648, Control_c, 0, 64, 87
1, 442658, Note_on_c, 0, 74, 57
1, 442662, Control_c, 0, 64, 92
1, 442677, Control_c, 0, 64, 95
1, 442692, Control_c, 0, 64, 97
1, 442707, Control_c, 0, 64, 100
1, 442722, Control_c, 0, 64, 104
1, 442736, Control_c, 0, 64, 108
1, 442751, Control_c, 0, 64, 112
1, 442766, Control_c, 0, 64, 115
1, 442781, Control_c, 0, 64, 118
1, 442796, Control_c, 0, 64, 120
1, 442811, Control_c, 0, 64, 121
1, 442826, Control_c, 0, 64, 122
1, 442837, Note_on_c, 0, 86, 64
1, 442841, Control_c, 0, 64, 127
1, 442927, Note_off_c, 0, 74, 35
1, 442987, Note_on_c, 0, 64, 77
1, 442988, Control_c, 0, 64, 120
1, 443003, Control_c, 0, 64, 104
1, 443011, Note_off_c, 0, 86, 39
1, 443018, Control_c, 0, 64, 95
1, 443033, Control_c, 0, 64, 95
1, 443062, Control_c, 0, 64, 96
1, 443077, Control_c, 0, 64, 98
1, 443092, Control_c, 0, 64, 102
1, 443107, Control_c, 0, 64, 105
1, 443121, Control_c, 0, 64, 108
1, 443133, Note_on_c, 0, 76, 76
1, 443136, Control_c, 0, 64, 112
1, 443159, Control_c, 0, 64, 117
1, 443174, Note_off_c, 0, 62, 32
1, 443174, Control_c, 0, 64, 124
1, 443188, Control_c, 0, 64, 127
1, 443301, Note_on_c, 0, 88, 83
1, 443430, Note_off_c, 0, 76, 38
1, 443482, Note_on_c, 0, 65, 85
1, 443525, Note_off_c, 0, 64, 56
1, 443545, Control_c, 0, 64, 101
1, 443559, Control_c, 0, 64, 82
1, 443574, Control_c, 0, 64, 65
1, 443589, Control_c, 0, 64, 0
1, 443619, Control_c, 0, 64, 36
1, 443634, Control_c, 0, 64, 54
1, 443649, Control_c, 0, 64, 62
1, 443664, Control_c, 0, 64, 65
1, 443678, Control_c, 0, 64, 68
1, 443693, Control_c, 0, 64, 71
1, 443708, Note_off_c, 0, 88, 51
1, 443708, Control_c, 0, 64, 74
1, 443714, Note_on_c, 0, 77, 80
1, 443723, Control_c, 0, 64, 76
1, 443738, Control_c, 0, 64, 79
1, 443752, Control_c, 0, 64, 82
1, 443767, Control_c, 0, 64, 84
1, 443781, Control_c, 0, 64, 86
1, 443796, Control_c, 0, 64, 89
1, 443810, Control_c, 0, 64, 92
1, 443825, Control_c, 0, 64, 95
1, 443840, Control_c, 0, 64, 98
1, 443855, Control_c, 0, 64, 100
1, 443870, Control_c, 0, 64, 102
1, 443880, Note_on_c, 0, 89, 88
1, 443884, Control_c, 0, 64, 103
1, 443907, Control_c, 0, 64, 106
1, 443922, Control_c, 0, 64, 109
1, 443937, Control_c, 0, 64, 112
1, 443951, Control_c, 0, 64, 114
1, 443966, Control_c, 0, 64, 118
1, 443971, Note_off_c, 0, 77, 60
1, 443981, Control_c, 0, 64, 127
1, 443983, Note_off_c, 0, 89, 59
1, 444036, Note_on_c, 0, 61, 81
1, 444188, Note_on_c, 0, 73, 84
1, 444191, Note_off_c, 0, 65, 40
1, 444338, Note_on_c, 0, 85, 84
1, 444338, Note_off_c, 0, 61, 60
1, 444474, Note_off_c, 0, 73, 57
1, 444496, Note_on_c, 0, 59, 74
1, 444503, Note_off_c, 0, 85, 62
1, 444680, Note_on_c, 0, 71, 74
1, 444701, Control_c, 0, 64, 106
1, 444716, Control_c, 0, 64, 85
1, 444731, Control_c, 0, 64, 68
1, 444746, Control_c, 0, 64, 55
1, 444760, Control_c, 0, 64, 65
1, 444775, Control_c, 0, 64, 68
1, 444790, Control_c, 0, 64, 70
1, 444805, Control_c, 0, 64, 73
1, 444820, Control_c, 0, 64, 77
1, 444835, Control_c, 0, 64, 83
1, 444850, Control_c, 0, 64, 89
1, 444862, Note_on_c, 0, 83, 77
1, 444865, Control_c, 0, 64, 93
1, 444880, Control_c, 0, 64, 95
1, 444895, Control_c, 0, 64, 97
1, 444910, Control_c, 0, 64, 100
1, 444924, Control_c, 0, 64, 103
1, 444939, Control_c, 0, 64, 106
1, 444969, Control_c, 0, 64, 106
1, 444984, Control_c, 0, 64, 107
1, 444994, Note_off_c, 0, 71, 53
1, 444999, Control_c, 0, 64, 109
1, 445009, Note_off_c, 0, 83, 54
1, 445013, Control_c, 0, 64, 112
1, 445017, Note_on_c, 0, 56, 77
1, 445028, Control_c, 0, 64, 115
1, 445072, Control_c, 0, 64, 114
1, 445087, Control_c, 0, 64, 113
1, 445146, Control_c, 0, 64, 113
1, 445174, Note_on_c, 0, 68, 77
1, 445190, Control_c, 0, 64, 114
1, 445205, Control_c, 0, 64, 114
1, 445249, Control_c, 0, 64, 115
1, 445264, Control_c, 0, 64, 117
1, 445279, Control_c, 0, 64, 120
1, 445294, Control_c, 0, 64, 127
1, 445330, Note_on_c, 0, 80, 84
1, 445351, Note_off_c, 0, 59, 49
1, 445471, Note_off_c, 0, 68, 55
1, 445481, Note_on_c, 0, 53, 87
1, 445503, Note_off_c, 0, 56, 64
1, 445510, Note_off_c, 0, 80, 60
1, 445583, Control_c, 0, 64, 119
1, 445598, Control_c, 0, 64, 119
1, 445634, Note_on_c, 0, 65, 85
1, 445643, Control_c, 0, 64, 121
1, 445658, Control_c, 0, 64, 127
1, 445810, Note_on_c, 0, 77, 83
1, 445937, Note_off_c, 0, 65, 49
1, 445946, Note_off_c, 0, 77, 58
1, 445968, Note_off_c, 0, 53, 35
1, 445976, Note_on_c, 0, 49, 89
1, 446094, Poly_aftertouch_c, 0, 51, 127
1, 446126, Poly_aftertouch_c, 0, 51, 0
1, 446151, Note_on_c, 0, 61, 84
1, 446278, Note_off_c, 0, 49, 61
1, 446349, Note_on_c, 0, 73, 91
1, 446536, Note_on_c, 0, 47, 91
1, 446568, Note_off_c, 0, 61, 56
1, 446598, Note_off_c, 0, 73, 61
1, 446674, Control_c, 0, 64, 89
1, 446689, Control_c, 0, 64, 69
1, 446703, Control_c, 0, 64, 0
1, 446718, Control_c, 0, 64, 36
1, 446733, Control_c, 0, 64, 62
1, 446748, Control_c, 0, 64, 66
1, 446763, Control_c, 0, 64, 68
1, 446777, Control_c, 0, 64, 71
1, 446782, Note_on_c, 0, 59, 86
1, 446792, Control_c, 0, 64, 74
1, 446807, Control_c, 0, 64, 78
1, 446821, Control_c, 0, 64, 80
1, 446836, Control_c, 0, 64, 82
1, 446851, Control_c, 0, 64, 84
1, 446866, Control_c, 0, 64, 87
1, 446881, Control_c, 0, 64, 92
1, 446903, Control_c, 0, 64, 96
1, 446918, Control_c, 0, 64, 100
1, 446933, Control_c, 0, 64, 102
1, 446948, Control_c, 0, 64, 103
1, 446962, Control_c, 0, 64, 107
1, 446977, Control_c, 0, 64, 114
1, 446991, Note_on_c, 0, 71, 92
1, 446992, Control_c, 0, 64, 127
1, 447204, Note_on_c, 0, 44, 93
1, 447252, Note_off_c, 0, 71, 48
1, 447274, Control_c, 0, 64, 106
1, 447289, Control_c, 0, 64, 88
1, 447293, Note_off_c, 0, 59, 52
1, 447304, Control_c, 0, 64, 77
1, 447319, Control_c, 0, 64, 75
1, 447333, Control_c, 0, 64, 77
1, 447348, Control_c, 0, 64, 78
1, 447363, Control_c, 0, 64, 81
1, 447378, Control_c, 0, 64, 84
1, 447393, Control_c, 0, 64, 89
1, 447408, Control_c, 0, 64, 94
1, 447419, Note_on_c, 0, 56, 92
1, 447422, Control_c, 0, 64, 97
1, 447437, Control_c, 0, 64, 101
1, 447452, Control_c, 0, 64, 106
1, 447467, Control_c, 0, 64, 112
1, 447482, Control_c, 0, 64, 127
1, 447622, Note_on_c, 0, 68, 91
1, 447688, Note_off_c, 0, 47, 27
1, 447715, Note_off_c, 0, 44, 61
1, 447853, Note_on_c, 0, 41, 99
1, 447873, Control_c, 0, 64, 84
1, 447888, Control_c, 0, 64, 0
1, 447947, Control_c, 0, 64, 49
1, 447962, Control_c, 0, 64, 64
1, 447969, Note_off_c, 0, 68, 58
1, 447977, Control_c, 0, 64, 72
1, 447980, Note_off_c, 0, 56, 61
1, 447992, Control_c, 0, 64, 78
1, 448007, Control_c, 0, 64, 85
1, 448022, Control_c, 0, 64, 89
1, 448037, Control_c, 0, 64, 93
1, 448052, Control_c, 0, 64, 99
1, 448067, Control_c, 0, 64, 106
1, 448081, Control_c, 0, 64, 123
1, 448089, Note_on_c, 0, 53, 88
1, 448096, Control_c, 0, 64, 127
1, 448198, Note_off_c, 0, 41, 60
1, 448338, Note_on_c, 0, 65, 90
1, 448556, Note_off_c, 0, 65, 58
1, 448569, Note_on_c, 0, 37, 95
1, 448609, Note_off_c, 0, 53, 57
1, 448653, Control_c, 0, 64, 89
1, 448668, Control_c, 0, 64, 64
1, 448682, Control_c, 0, 64, 0
1, 448771, Control_c, 0, 64, 60
1, 448786, Control_c, 0, 64, 68
1, 448800, Control_c, 0, 64, 74
1, 448815, Control_c, 0, 64, 80
1, 448822, Note_on_c, 0, 49, 94
1, 448831, Control_c, 0, 64, 87
1, 448846, Control_c, 0, 64, 94
1, 448861, Control_c, 0, 64, 106
1, 448876, Control_c, 0, 64, 127
1, 449061, Note_off_c, 0, 37, 61
1, 449082, Note_on_c, 0, 61, 93
1, 449294, Note_off_c, 0, 49, 58
1, 449355, Note_on_c, 0, 35, 90
1, 449371, Control_c, 0, 64, 89
1, 449386, Control_c, 0, 64, 48
1, 449401, Control_c, 0, 64, 0
1, 449483, Note_off_c, 0, 61, 60
1, 449504, Control_c, 0, 64, 44
1, 449519, Control_c, 0, 64, 61
1, 449534, Control_c, 0, 64, 65
1, 449548, Control_c, 0, 64, 68
1, 449563, Control_c, 0, 64, 72
1, 449578, Control_c, 0, 64, 78
1, 449593, Control_c, 0, 64, 86
1, 449608, Control_c, 0, 64, 92
1, 449624, Control_c, 0, 64, 97
1, 449638, Note_on_c, 0, 47, 93
1, 449639, Control_c, 0, 64, 105
1, 449653, Control_c, 0, 64, 127
1, 449848, Note_off_c, 0, 35, 55
1, 449973, Note_on_c, 0, 59, 92
1, 450340, Note_on_c, 0, 31, 94
1, 450353, Note_off_c, 0, 59, 53
1, 450371, Control_c, 0, 64, 103
1, 450385, Control_c, 0, 64, 71
1, 450392, Note_off_c, 0, 47, 61
1, 450400, Control_c, 0, 64, 0
1, 450675, Control_c, 0, 64, 19
1, 450690, Control_c, 0, 64, 26
1, 450705, Control_c, 0, 64, 46
1, 450720, Control_c, 0, 64, 61
1, 450735, Control_c, 0, 64, 66
1, 450749, Control_c, 0, 64, 69
1, 450764, Control_c, 0, 64, 73
1, 450779, Control_c, 0, 64, 78
1, 450789, Note_on_c, 0, 43, 96
1, 450794, Control_c, 0, 64, 84
1, 450809, Control_c, 0, 64, 89
1, 450824, Control_c, 0, 64, 92
1, 450839, Control_c, 0, 64, 94
1, 450853, Control_c, 0, 64, 99
1, 450854, Note_off_c, 0, 31, 65
1, 450868, Control_c, 0, 64, 107
1, 450883, Control_c, 0, 64, 121
1, 450898, Control_c, 0, 64, 127
1, 451167, Note_off_c, 0, 43, 53
1, 451315, Note_on_c, 0, 55, 93
1, 451840, Note_off_c, 0, 55, 55
1, 452019, Control_c, 0, 64, 102
1, 452034, Control_c, 0, 64, 56
1, 452043, Note_on_c, 0, 30, 80
1, 452043, Note_on_c, 0, 42, 96
1, 452046, Note_on_c, 0, 54, 96
1, 452048, Control_c, 0, 64, 0
1, 452108, Control_c, 0, 64, 64
1, 452122, Note_off_c, 0, 30, 61
1, 452122, Control_c, 0, 64, 79
1, 452142, Note_off_c, 0, 42, 64
1, 452144, Control_c, 0, 64, 103
1, 452147, Note_off_c, 0, 54, 66
1, 452159, Control_c, 0, 64, 127
1, 452606, Note_on_c, 0, 78, 99
1, 452607, Note_on_c, 0, 66, 102
1, 452609, Note_on_c, 0, 74, 89
1, 452610, Note_on_c, 0, 62, 81
1, 452610, Note_on_c, 0, 71, 92
1, 452614, Note_on_c, 0, 59, 79
1, 452615, Note_on_c, 0, 54, 76
1, 453398, Note_off_c, 0, 66, 30
1, 453471, Note_off_c, 0, 71, 28
1, 453537, Note_off_c, 0, 54, 36
1, 453602, Note_off_c, 0, 74, 34
1, 453715, Note_off_c, 0, 62, 28
1, 453762, Note_off_c, 0, 59, 34
1, 453893, Note_off_c, 0, 78, 54
1, 453990, Note_on_c, 0, 66, 103
1, 453993, Note_on_c, 0, 78, 100
1, 453995, Note_on_c, 0, 62, 80
1, 453997, Note_on_c, 0, 71, 85
1, 453999, Note_on_c, 0, 54, 69
1, 454002, Note_on_c, 0, 59, 73
1, 454016, Note_on_c, 0, 74, 41
1, 454026, Note_off_c, 0, 71, 64
1, 454043, Note_off_c, 0, 66, 65
1, 454046, Note_off_c, 0, 74, 58
1, 454049, Note_off_c, 0, 78, 68
1, 454072, Note_off_c, 0, 62, 61
1, 454085, Note_off_c, 0, 59, 61
1, 454118, Note_off_c, 0, 54, 64
1, 454405, Control_c, 0, 64, 103
1, 454421, Control_c, 0, 64, 66
1, 454436, Control_c, 0, 64, 0
1, 454459, Note_on_c, 0, 42, 94
1, 454460, Note_on_c, 0, 54, 96
1, 454461, Note_on_c, 0, 30, 90
1, 454495, Control_c, 0, 64, 58
1, 454510, Control_c, 0, 64, 72
1, 454511, Note_off_c, 0, 30, 63
1, 454517, Note_off_c, 0, 54, 67
1, 454519, Note_off_c, 0, 42, 66
1, 454524, Control_c, 0, 64, 84
1, 454539, Control_c, 0, 64, 105
1, 454554, Control_c, 0, 64, 127
1, 454970, Note_on_c, 0, 78, 99
1, 454972, Note_on_c, 0, 71, 89
1, 454974, Note_on_c, 0, 66, 99
1, 454974, Note_on_c, 0, 68, 90
1, 454980, Note_on_c, 0, 59, 79
1, 454982, Note_on_c, 0, 54, 76
1, 454984, Note_on_c, 0, 56, 77
1, 455636, Note_off_c, 0, 66, 44
1, 455726, Note_off_c, 0, 54, 20
1, 455948, Note_off_c, 0, 59, 26
1, 455999, Note_off_c, 0, 68, 37
1, 456116, Note_off_c, 0, 56, 26
1, 456116, Note_off_c, 0, 71, 29
1, 456326, Note_off_c, 0, 78, 48
1, 456500, Note_on_c, 0, 66, 91
1, 456504, Note_on_c, 0, 59, 71
1, 456505, Note_on_c, 0, 68, 89
1, 456506, Note_on_c, 0, 78, 94
1, 456507, Note_on_c, 0, 54, 69
1, 456529, Note_on_c, 0, 56, 62
1, 456539, Note_off_c, 0, 68, 63
1, 456559, Note_off_c, 0, 66, 65
1, 456561, Note_off_c, 0, 78, 67
1, 456619, Note_off_c, 0, 59, 58
1, 456658, Note_off_c, 0, 54, 63
1, 456658, Note_off_c, 0, 56, 59
1, 457097, Control_c, 0, 64, 74
1, 457111, Control_c, 0, 64, 0
1, 457116, Note_on_c, 0, 54, 96
1, 457118, Note_on_c, 0, 42, 95
1, 457119, Note_on_c, 0, 30, 85
1, 457200, Control_c, 0, 64, 64
1, 457215, Control_c, 0, 64, 73
1, 457230, Control_c, 0, 64, 81
1, 457245, Control_c, 0, 64, 89
1, 457253, Note_off_c, 0, 30, 59
1, 457259, Control_c, 0, 64, 97
1, 457271, Note_off_c, 0, 42, 62
1, 457274, Control_c, 0, 64, 105
1, 457276, Note_off_c, 0, 54, 60
1, 457289, Control_c, 0, 64, 121
1, 457304, Control_c, 0, 64, 127
1, 457955, Note_on_c, 0, 78, 100
1, 457960, Note_on_c, 0, 66, 86
1, 457960, Note_on_c, 0, 70, 86
1, 457961, Note_on_c, 0, 73, 88
1, 457964, Note_on_c, 0, 61, 79
1, 457968, Note_on_c, 0, 58, 73
1, 457969, Note_on_c, 0, 54, 71
1, 458411, Note_off_c, 0, 66, 38
1, 458693, Note_off_c, 0, 61, 45
1, 458709, Note_off_c, 0, 70, 38
1, 458770, Note_off_c, 0, 58, 28
1, 459016, Note_off_c, 0, 54, 34
1, 459050, Note_off_c, 0, 73, 36
1, 459642, Note_off_c, 0, 78, 25
1, 459802, Note_on_c, 0, 61, 61
1, 459803, Note_on_c, 0, 78, 89
1, 459804, Note_on_c, 0, 54, 63
1, 459805, Note_on_c, 0, 73, 78
1, 459808, Note_on_c, 0, 66, 73
1, 459810, Note_on_c, 0, 70, 68
1, 459810, Control_c, 0, 64, 101
1, 459815, Note_on_c, 0, 49, 56
1, 459825, Control_c, 0, 64, 81
1, 459828, Note_on_c, 0, 46, 47
1, 459839, Control_c, 0, 64, 69
1, 459854, Control_c, 0, 64, 69
1, 459869, Control_c, 0, 64, 73
1, 459883, Control_c, 0, 64, 75
1, 459898, Control_c, 0, 64, 77
1, 459913, Control_c, 0, 64, 82
1, 459928, Control_c, 0, 64, 88
1, 459939, Note_off_c, 0, 61, 50
1, 459943, Control_c, 0, 64, 93
1, 459957, Control_c, 0, 64, 97
1, 459972, Control_c, 0, 64, 100
1, 459987, Control_c, 0, 64, 104
1, 460003, Control_c, 0, 64, 108
1, 460018, Control_c, 0, 64, 113
1, 460033, Control_c, 0, 64, 120
1, 460048, Control_c, 0, 64, 127
1, 460089, Note_off_c, 0, 54, 57
1, 460158, Note_off_c, 0, 49, 35
1, 460226, Note_off_c, 0, 46, 37
1, 460633, Control_c, 0, 64, 117
1, 460648, Control_c, 0, 64, 95
1, 460662, Control_c, 0, 64, 75
1, 460664, Note_on_c, 0, 42, 57
1, 460677, Control_c, 0, 64, 51
1, 460692, Control_c, 0, 64, 23
1, 460706, Control_c, 0, 64, 56
1, 460721, Control_c, 0, 64, 64
1, 460736, Control_c, 0, 64, 68
1, 460751, Control_c, 0, 64, 73
1, 460766, Control_c, 0, 64, 79
1, 460780, Control_c, 0, 64, 85
1, 460787, Note_on_c, 0, 49, 66
1, 460790, Note_off_c, 0, 42, 56
1, 460795, Control_c, 0, 64, 90
1, 460811, Control_c, 0, 64, 95
1, 460826, Control_c, 0, 64, 98
1, 460841, Control_c, 0, 64, 102
1, 460856, Control_c, 0, 64, 106
1, 460871, Control_c, 0, 64, 113
1, 460885, Control_c, 0, 64, 127
1, 460936, Note_off_c, 0, 78, 31
1, 460938, Note_on_c, 0, 54, 72
1, 461002, Note_off_c, 0, 66, 34
1, 461045, Note_off_c, 0, 73, 38
1, 461057, Note_off_c, 0, 70, 34
1, 461185, Note_on_c, 0, 78, 87
1, 461190, Note_on_c, 0, 70, 63
1, 461191, Note_on_c, 0, 73, 72
1, 461191, Note_on_c, 0, 66, 68
1, 461194, Note_on_c, 0, 58, 65
1, 464244, Control_c, 0, 67, 8
1, 464259, Control_c, 0, 67, 9
1, 464273, Control_c, 0, 67, 11
1, 464288, Control_c, 0, 67, 13
1, 464303, Control_c, 0, 67, 15
1, 464318, Control_c, 0, 67, 19
1, 464333, Control_c, 0, 67, 22
1, 464347, Control_c, 0, 67, 25
1, 464362, Control_c, 0, 67, 29
1, 464377, Control_c, 0, 67, 33
1, 464392, Control_c, 0, 67, 36
1, 464407, Control_c, 0, 67, 39
1, 464421, Control_c, 0, 67, 42
1, 464436, Control_c, 0, 67, 44
1, 464451, Control_c, 0, 67, 47
1, 464466, Control_c, 0, 67, 51
1, 464476, Note_off_c, 0, 66, 33
1, 464480, Control_c, 0, 67, 54
1, 464490, Note_off_c, 0, 78, 34
1, 464495, Control_c, 0, 67, 57
1, 464510, Control_c, 0, 67, 61
1, 464512, Note_off_c, 0, 58, 35
1, 464525, Control_c, 0, 67, 64
1, 464540, Control_c, 0, 67, 67
1, 464554, Control_c, 0, 67, 71
1, 464569, Control_c, 0, 67, 74
1, 464584, Control_c, 0, 67, 77
1, 464590, Note_off_c, 0, 54, 52
1, 464599, Control_c, 0, 67, 80
1, 464607, Note_off_c, 0, 49, 37
1, 464614, Control_c, 0, 67, 82
1, 464616, Note_off_c, 0, 70, 54
1, 464626, Note_off_c, 0, 73, 57
1, 464628, Control_c, 0, 67, 85
1, 464643, Control_c, 0, 67, 88
1, 464658, Control_c, 0, 67, 90
1, 464673, Control_c, 0, 67, 93
1, 464688, Control_c, 0, 67, 97
1, 464703, Control_c, 0, 67, 101
1, 464718, Control_c, 0, 67, 105
1, 464733, Control_c, 0, 67, 110
1, 464746, Control_c, 0, 67, 114
1, 464761, Control_c, 0, 67, 117
1, 464776, Control_c, 0, 67, 121
1, 464792, Control_c, 0, 67, 125
1, 464807, Control_c, 0, 67, 127
1, 465066, Control_c, 0, 64, 122
1, 465081, Control_c, 0, 64, 117
1, 465095, Control_c, 0, 64, 113
1, 465110, Control_c, 0, 64, 111
1, 465125, Control_c, 0, 64, 109
1, 465140, Control_c, 0, 64, 107
1, 465155, Control_c, 0, 64, 105
1, 465169, Control_c, 0, 64, 103
1, 465184, Control_c, 0, 64, 102
1, 465199, Control_c, 0, 64, 101
1, 465214, Control_c, 0, 64, 99
1, 465229, Control_c, 0, 64, 98
1, 465243, Control_c, 0, 64, 97
1, 465258, Control_c, 0, 64, 95
1, 465273, Control_c, 0, 64, 94
1, 465288, Control_c, 0, 64, 93
1, 465302, Control_c, 0, 64, 92
1, 465317, Control_c, 0, 64, 90
1, 465332, Control_c, 0, 64, 89
1, 465347, Control_c, 0, 64, 88
1, 465362, Control_c, 0, 64, 87
1, 465376, Control_c, 0, 64, 85
1, 465391, Control_c, 0, 64, 85
1, 465406, Control_c, 0, 64, 84
1, 465421, Control_c, 0, 64, 83
1, 465436, Control_c, 0, 64, 83
1, 465451, Control_c, 0, 64, 82
1, 465466, Control_c, 0, 64, 82
1, 465481, Control_c, 0, 64, 81
1, 465495, Control_c, 0, 64, 81
1, 465510, Control_c, 0, 64, 80
1, 465525, Control_c, 0, 64, 79
1, 465540, Control_c, 0, 64, 78
1, 465555, Control_c, 0, 64, 77
1, 465569, Control_c, 0, 64, 77
1, 465584, Control_c, 0, 64, 76
1, 465600, Control_c, 0, 64, 75
1, 465622, Control_c, 0, 64, 74
1, 465637, Control_c, 0, 64, 73
1, 465652, Control_c, 0, 64, 73
1, 465681, Control_c, 0, 64, 72
1, 465696, Control_c, 0, 64, 71
1, 465711, Control_c, 0, 64, 70
1, 465740, Control_c, 0, 64, 70
1, 465755, Control_c, 0, 64, 69
1, 465770, Control_c, 0, 64, 68
1, 465785, Control_c, 0, 64, 67
1, 465815, Control_c, 0, 64, 67
1, 465830, Control_c, 0, 64, 66
1, 465844, Control_c, 0, 64, 65
1, 465889, Control_c, 0, 64, 64
1, 465889, Control_c, 0, 67, 127
1, 465904, Control_c, 0, 64, 63
1, 465904, Control_c, 0, 67, 125
1, 465918, Control_c, 0, 64, 60
1, 465918, Control_c, 0, 67, 124
1, 465933, Control_c, 0, 64, 57
1, 465933, Control_c, 0, 67, 121
1, 465948, Control_c, 0, 67, 118
1, 465963, Control_c, 0, 64, 56
1, 465963, Control_c, 0, 67, 114
1, 465978, Control_c, 0, 64, 54
1, 465978, Control_c, 0, 67, 109
1, 465992, Control_c, 0, 64, 45
1, 465992, Control_c, 0, 67, 103
1, 466007, Control_c, 0, 64, 38
1, 466007, Control_c, 0, 67, 96
1, 466022, Control_c, 0, 64, 37
1, 466022, Control_c, 0, 67, 90
1, 466037, Control_c, 0, 64, 33
1, 466037, Control_c, 0, 67, 85
1, 466051, Control_c, 0, 64, 0
1, 466051, Control_c, 0, 67, 80
1, 466066, Control_c, 0, 67, 74
1, 466081, Control_c, 0, 67, 69
1, 466096, Control_c, 0, 67, 64
1, 466111, Control_c, 0, 67, 60
1, 466125, Control_c, 0, 67, 57
1, 466134, Note_on_c, 0, 47, 28
1, 466140, Control_c, 0, 67, 52
1, 466149, Note_on_c, 0, 35, 26
1, 466155, Control_c, 0, 67, 47
1, 466170, Control_c, 0, 67, 43
1, 466185, Control_c, 0, 67, 39
1, 466188, Note_on_c, 0, 51, 38
1, 466199, Control_c, 0, 67, 36
1, 466214, Control_c, 0, 67, 33
1, 466229, Control_c, 0, 67, 29
1, 466244, Control_c, 0, 64, 21
1, 466244, Control_c, 0, 67, 25
1, 466259, Control_c, 0, 64, 52
1, 466259, Control_c, 0, 67, 21
1, 466274, Control_c, 0, 64, 61
1, 466274, Control_c, 0, 67, 16
1, 466289, Control_c, 0, 64, 63
1, 466289, Control_c, 0, 67, 12
1, 466304, Control_c, 0, 64, 65
1, 466304, Control_c, 0, 67, 0
1, 466318, Control_c, 0, 64, 66
1, 466333, Control_c, 0, 64, 67
1, 466348, Control_c, 0, 64, 68
1, 466370, Control_c, 0, 64, 70
1, 466385, Control_c, 0, 64, 72
1, 466401, Control_c, 0, 64, 73
1, 466416, Control_c, 0, 64, 74
1, 466430, Control_c, 0, 64, 76
1, 466445, Control_c, 0, 64, 78
1, 466450, Note_on_c, 0, 54, 51
1, 466460, Control_c, 0, 64, 81
1, 466474, Control_c, 0, 64, 84
1, 466489, Control_c, 0, 64, 86
1, 466504, Control_c, 0, 64, 88
1, 466512, Note_off_c, 0, 47, 42
1, 466519, Control_c, 0, 64, 91
1, 466534, Control_c, 0, 64, 94
1, 466548, Control_c, 0, 64, 98
1, 466563, Control_c, 0, 64, 102
1, 466578, Control_c, 0, 64, 106
1, 466593, Control_c, 0, 64, 111
1, 466608, Control_c, 0, 64, 122
1, 466622, Control_c, 0, 64, 127
1, 466625, Note_off_c, 0, 54, 65
1, 466631, Note_on_c, 0, 63, 73
1, 466632, Note_off_c, 0, 51, 39
1, 466711, Note_off_c, 0, 35, 38
1, 466742, Note_off_c, 0, 63, 55
1, 466801, Control_c, 0, 64, 116
1, 466815, Control_c, 0, 64, 99
1, 466819, Note_on_c, 0, 49, 52
1, 466823, Note_on_c, 0, 63, 68
1, 466830, Control_c, 0, 64, 83
1, 466834, Note_on_c, 0, 37, 46
1, 466845, Control_c, 0, 64, 68
1, 466846, Note_on_c, 0, 52, 42
1, 466860, Control_c, 0, 64, 0
1, 466919, Control_c, 0, 64, 36
1, 466934, Control_c, 0, 64, 57
1, 466948, Control_c, 0, 64, 63
1, 466963, Control_c, 0, 64, 65
1, 466978, Control_c, 0, 64, 66
1, 466994, Control_c, 0, 64, 68
1, 467009, Control_c, 0, 64, 71
1, 467023, Control_c, 0, 64, 75
1, 467038, Control_c, 0, 64, 79
1, 467053, Control_c, 0, 64, 83
1, 467067, Control_c, 0, 64, 86
1, 467082, Control_c, 0, 64, 89
1, 467097, Control_c, 0, 64, 93
1, 467103, Note_on_c, 0, 61, 74
1, 467120, Control_c, 0, 64, 97
1, 467135, Control_c, 0, 64, 100
1, 467143, Note_off_c, 0, 52, 50
1, 467149, Control_c, 0, 64, 102
1, 467164, Control_c, 0, 64, 104
1, 467165, Note_off_c, 0, 63, 36
1, 467179, Control_c, 0, 64, 107
1, 467184, Note_off_c, 0, 37, 41
1, 467195, Control_c, 0, 64, 109
1, 467204, Note_off_c, 0, 49, 62
1, 467210, Control_c, 0, 64, 110
1, 467225, Control_c, 0, 64, 111
1, 467269, Control_c, 0, 64, 110
1, 467293, Note_off_c, 0, 61, 55
1, 467328, Control_c, 0, 64, 108
1, 467343, Control_c, 0, 64, 105
1, 467358, Control_c, 0, 64, 100
1, 467372, Control_c, 0, 64, 91
1, 467387, Control_c, 0, 64, 79
1, 467400, Note_on_c, 0, 51, 45
1, 467401, Note_on_c, 0, 39, 45
1, 467402, Control_c, 0, 64, 65
1, 467406, Note_on_c, 0, 61, 60
1, 467410, Note_on_c, 0, 54, 44
1, 467417, Control_c, 0, 64, 0
1, 467520, Control_c, 0, 64, 37
1, 467535, Control_c, 0, 64, 54
1, 467550, Control_c, 0, 64, 62
1, 467564, Control_c, 0, 64, 65
1, 467579, Control_c, 0, 64, 67
1, 467594, Control_c, 0, 64, 70
1, 467594, Control_c, 0, 67, 8
1, 467609, Control_c, 0, 64, 72
1, 467609, Control_c, 0, 67, 10
1, 467624, Control_c, 0, 64, 75
1, 467624, Control_c, 0, 67, 12
1, 467639, Control_c, 0, 64, 77
1, 467639, Control_c, 0, 67, 15
1, 467654, Control_c, 0, 64, 81
1, 467654, Control_c, 0, 67, 19
1, 467660, Note_off_c, 0, 51, 57
1, 467669, Control_c, 0, 64, 84
1, 467669, Control_c, 0, 67, 24
1, 467684, Control_c, 0, 64, 87
1, 467684, Control_c, 0, 67, 29
1, 467698, Control_c, 0, 64, 89
1, 467698, Control_c, 0, 67, 34
1, 467706, Note_on_c, 0, 59, 58
1, 467710, Note_off_c, 0, 61, 36
1, 467713, Control_c, 0, 64, 92
1, 467713, Control_c, 0, 67, 38
1, 467728, Control_c, 0, 64, 95
1, 467728, Control_c, 0, 67, 43
1, 467734, Note_off_c, 0, 39, 41
1, 467743, Control_c, 0, 64, 97
1, 467743, Control_c, 0, 67, 49
1, 467758, Control_c, 0, 64, 97
1, 467758, Control_c, 0, 67, 54
1, 467765, Note_off_c, 0, 59, 58
1, 467772, Control_c, 0, 67, 59
1, 467787, Control_c, 0, 67, 64
1, 467797, Note_off_c, 0, 54, 45
1, 467802, Control_c, 0, 67, 69
1, 467816, Control_c, 0, 67, 73
1, 467831, Control_c, 0, 67, 75
1, 467846, Control_c, 0, 67, 76
1, 467868, Control_c, 0, 67, 77
1, 467883, Control_c, 0, 67, 80
1, 467898, Control_c, 0, 67, 83
1, 467913, Control_c, 0, 67, 86
1, 467928, Control_c, 0, 67, 87
1, 467943, Control_c, 0, 67, 88
1, 467958, Control_c, 0, 64, 97
1, 467958, Control_c, 0, 67, 89
1, 467972, Control_c, 0, 64, 96
1, 467972, Control_c, 0, 67, 90
1, 467987, Control_c, 0, 64, 96
1, 467987, Control_c, 0, 67, 91
1, 468003, Control_c, 0, 64, 95
1, 468003, Control_c, 0, 67, 92
1, 468018, Control_c, 0, 64, 94
1, 468018, Control_c, 0, 67, 93
1, 468032, Control_c, 0, 64, 92
1, 468032, Control_c, 0, 67, 93
1, 468047, Control_c, 0, 64, 90
1, 468047, Control_c, 0, 67, 94
1, 468062, Control_c, 0, 64, 86
1, 468062, Control_c, 0, 67, 94
1, 468063, Note_on_c, 0, 57, 47
1, 468077, Control_c, 0, 64, 80
1, 468077, Control_c, 0, 67, 95
1, 468078, Note_on_c, 0, 34, 35
1, 468083, Note_on_c, 0, 52, 31
1, 468090, Note_on_c, 0, 46, 27
1, 468092, Control_c, 0, 64, 71
1, 468092, Control_c, 0, 67, 96
1, 468107, Control_c, 0, 64, 60
1, 468107, Control_c, 0, 67, 96
1, 468121, Control_c, 0, 64, 0
1, 468181, Control_c, 0, 64, 21
1, 468195, Control_c, 0, 64, 35
1, 468210, Control_c, 0, 64, 45
1, 468225, Control_c, 0, 64, 54
1, 468240, Control_c, 0, 64, 59
1, 468255, Control_c, 0, 64, 62
1, 468269, Control_c, 0, 64, 64
1, 468284, Control_c, 0, 64, 65
1, 468299, Control_c, 0, 64, 66
1, 468313, Control_c, 0, 64, 68
1, 468313, Control_c, 0, 67, 96
1, 468328, Control_c, 0, 64, 70
1, 468328, Control_c, 0, 67, 95
1, 468343, Control_c, 0, 64, 72
1, 468343, Control_c, 0, 67, 95
1, 468358, Control_c, 0, 64, 74
1, 468373, Control_c, 0, 64, 76
1, 468387, Control_c, 0, 64, 78
1, 468387, Control_c, 0, 67, 94
1, 468402, Control_c, 0, 64, 80
1, 468402, Control_c, 0, 67, 93
1, 468405, Note_off_c, 0, 34, 42
1, 468417, Control_c, 0, 64, 83
1, 468432, Control_c, 0, 64, 86
1, 468447, Control_c, 0, 64, 88
1, 468447, Control_c, 0, 67, 93
1, 468462, Control_c, 0, 64, 90
1, 468462, Control_c, 0, 67, 92
1, 468477, Control_c, 0, 64, 92
1, 468491, Control_c, 0, 64, 95
1, 468506, Control_c, 0, 64, 97
1, 468508, Note_off_c, 0, 57, 36
1, 468520, Control_c, 0, 64, 99
1, 468526, Note_on_c, 0, 55, 44
1, 468535, Control_c, 0, 64, 101
1, 468535, Control_c, 0, 67, 91
1, 468550, Control_c, 0, 64, 104
1, 468560, Note_off_c, 0, 52, 39
1, 468565, Control_c, 0, 64, 108
1, 468575, Note_off_c, 0, 46, 40
1, 468580, Control_c, 0, 64, 111
1, 468580, Control_c, 0, 67, 90
1, 468594, Control_c, 0, 64, 113
1, 468594, Control_c, 0, 67, 89
1, 468605, Note_off_c, 0, 55, 53
1, 468617, Control_c, 0, 64, 116
1, 468632, Control_c, 0, 64, 118
1, 468646, Control_c, 0, 64, 122
1, 468646, Control_c, 0, 67, 89
1, 468661, Control_c, 0, 64, 126
1, 468661, Control_c, 0, 67, 88
1, 468676, Control_c, 0, 64, 127
1, 468676, Control_c, 0, 67, 88
1, 468706, Control_c, 0, 67, 87
1, 468720, Control_c, 0, 67, 86
1, 468735, Control_c, 0, 67, 86
1, 468750, Control_c, 0, 67, 85
1, 468765, Control_c, 0, 67, 84
1, 468780, Control_c, 0, 67, 84
1, 468796, Control_c, 0, 67, 83
1, 468810, Control_c, 0, 67, 82
1, 468825, Control_c, 0, 67, 80
1, 468840, Control_c, 0, 67, 78
1, 468855, Control_c, 0, 67, 74
1, 468869, Control_c, 0, 67, 69
1, 468884, Control_c, 0, 67, 65
1, 468899, Control_c, 0, 67, 61
1, 468914, Control_c, 0, 67, 57
1, 468929, Control_c, 0, 67, 51
1, 468943, Control_c, 0, 67, 44
1, 468958, Control_c, 0, 67, 37
1, 468973, Control_c, 0, 67, 31
1, 468988, Control_c, 0, 67, 26
1, 469003, Control_c, 0, 67, 18
1, 469017, Control_c, 0, 67, 11
1, 469032, Control_c, 0, 67, 0
1, 469047, Control_c, 0, 64, 102
1, 469061, Control_c, 0, 64, 81
1, 469076, Control_c, 0, 64, 67
1, 469077, Note_on_c, 0, 46, 86
1, 469082, Note_on_c, 0, 55, 91
1, 469091, Control_c, 0, 64, 69
1, 469103, Note_on_c, 0, 79, 85
1, 469106, Control_c, 0, 64, 75
1, 469110, Note_on_c, 0, 67, 68
1, 469121, Control_c, 0, 64, 83
1, 469135, Control_c, 0, 64, 96
1, 469150, Control_c, 0, 64, 127
1, 469177, Note_off_c, 0, 67, 60
1, 469242, Note_off_c, 0, 79, 59
1, 469305, Note_on_c, 0, 66, 83
1, 469305, Note_on_c, 0, 54, 91
1, 469309, Note_on_c, 0, 78, 95
1, 469314, Note_off_c, 0, 55, 65
1, 469326, Note_off_c, 0, 66, 71
1, 469333, Note_off_c, 0, 46, 63
1, 469335, Note_on_c, 0, 51, 45
1, 469353, Note_off_c, 0, 54, 66
1, 469356, Note_off_c, 0, 78, 66
1, 469376, Note_off_c, 0, 51, 56
1, 469526, Note_on_c, 0, 63, 16
1, 469553, Note_on_c, 0, 66, 85
1, 469555, Note_on_c, 0, 92, 101
1, 469557, Note_on_c, 0, 62, 65
1, 469559, Note_on_c, 0, 80, 92
1, 469559, Note_on_c, 0, 88, 83
1, 469613, Note_on_c, 0, 67, 5
1, 469613, Note_off_c, 0, 62, 60
1, 469643, Note_off_c, 0, 63, 45
1, 469655, Note_off_c, 0, 66, 38
1, 469663, Note_off_c, 0, 67, 38
1, 469695, Note_off_c, 0, 80, 58
1, 469712, Note_off_c, 0, 92, 61
1, 469733, Note_off_c, 0, 88, 57
1, 469775, Note_on_c, 0, 64, 54
1, 469779, Note_on_c, 0, 88, 72
1, 469779, Note_on_c, 0, 92, 102
1, 469781, Note_on_c, 0, 80, 97
1, 469781, Control_c, 0, 64, 79
1, 469782, Note_on_c, 0, 68, 89
1, 469794, Note_on_c, 0, 54, 71
1, 469796, Control_c, 0, 64, 0
1, 469808, Note_on_c, 0, 56, 40
1, 469847, Note_off_c, 0, 56, 43
1, 469855, Control_c, 0, 64, 44
1, 469870, Control_c, 0, 64, 67
1, 469884, Control_c, 0, 64, 76
1, 469899, Control_c, 0, 64, 86
1, 469914, Control_c, 0, 64, 96
1, 469918, Note_off_c, 0, 68, 60
1, 469929, Control_c, 0, 64, 103
1, 469939, Note_off_c, 0, 64, 63
1, 469944, Control_c, 0, 64, 107
1, 469958, Control_c, 0, 64, 110
1, 469973, Control_c, 0, 64, 123
1, 469976, Note_off_c, 0, 80, 60
1, 469989, Control_c, 0, 64, 127
1, 470009, Note_off_c, 0, 88, 61
1, 470022, Note_off_c, 0, 92, 64
1, 470071, Note_on_c, 0, 63, 80
1, 470076, Note_on_c, 0, 90, 104
1, 470077, Note_on_c, 0, 66, 83
1, 470077, Note_on_c, 0, 78, 93
1, 470077, Poly_aftertouch_c, 0, 57, 127
1, 470103, Note_on_c, 0, 87, 48
1, 470137, Note_off_c, 0, 87, 59
1, 470202, Note_off_c, 0, 54, 61
1, 470217, Note_off_c, 0, 66, 62
1, 470244, Note_off_c, 0, 78, 58
1, 470247, Note_off_c, 0, 63, 59
1, 470288, Note_off_c, 0, 90, 55
1, 470322, Control_c, 0, 64, 102
1, 470332, Poly_aftertouch_c, 0, 57, 0
1, 470337, Control_c, 0, 64, 72
1, 470351, Note_on_c, 0, 63, 76
1, 470351, Note_on_c, 0, 66, 84
1, 470352, Control_c, 0, 64, 0
1, 470354, Note_on_c, 0, 54, 66
1, 470357, Note_on_c, 0, 90, 104
1, 470363, Note_on_c, 0, 78, 91
1, 470366, Control_c, 0, 64, 27
1, 470369, Poly_aftertouch_c, 0, 57, 127
1, 470381, Control_c, 0, 64, 57
1, 470397, Control_c, 0, 64, 64
1, 470412, Poly_aftertouch_c, 0, 57, 0
1, 470412, Control_c, 0, 64, 72
1, 470427, Control_c, 0, 64, 82
1, 470442, Control_c, 0, 64, 97
1, 470457, Control_c, 0, 64, 114
1, 470471, Control_c, 0, 64, 127
1, 470497, Note_off_c, 0, 66, 60
1, 470498, Note_off_c, 0, 63, 60
1, 470516, Note_off_c, 0, 90, 64
1, 470568, Note_off_c, 0, 78, 63
1, 470634, Note_on_c, 0, 88, 104
1, 470637, Note_on_c, 0, 76, 94
1, 470641, Note_on_c, 0, 64, 75
1, 470642, Note_on_c, 0, 61, 78
1, 470644, Note_on_c, 0, 85, 85
1, 470674, Note_off_c, 0, 76, 64
1, 470703, Note_off_c, 0, 88, 62
1, 470706, Note_off_c, 0, 85, 63
1, 470802, Note_off_c, 0, 64, 59
1, 470805, Note_off_c, 0, 54, 57
1, 470813, Note_off_c, 0, 61, 57
1, 470949, Note_on_c, 0, 64, 69
1, 470951, Note_on_c, 0, 61, 68
1, 470953, Control_c, 0, 64, 117
1, 470954, Note_on_c, 0, 54, 64
1, 470957, Note_on_c, 0, 88, 90
1, 470958, Note_on_c, 0, 85, 84
1, 470960, Note_on_c, 0, 76, 86
1, 470968, Control_c, 0, 64, 85
1, 470983, Control_c, 0, 64, 59
1, 470997, Control_c, 0, 64, 0
1, 471056, Control_c, 0, 64, 51
1, 471071, Control_c, 0, 64, 64
1, 471086, Control_c, 0, 64, 69
1, 471101, Control_c, 0, 64, 75
1, 471114, Note_off_c, 0, 61, 58
1, 471115, Control_c, 0, 64, 80
1, 471130, Control_c, 0, 64, 85
1, 471145, Control_c, 0, 64, 91
1, 471160, Control_c, 0, 64, 97
1, 471175, Control_c, 0, 64, 104
1, 471185, Note_off_c, 0, 76, 63
1, 471191, Control_c, 0, 64, 112
1, 471206, Control_c, 0, 64, 127
1, 471222, Note_off_c, 0, 88, 50
1, 471232, Note_off_c, 0, 85, 54
1, 471355, Note_on_c, 0, 85, 85
1, 471365, Note_on_c, 0, 73, 71
1, 471369, Note_off_c, 0, 64, 60
1, 471377, Note_on_c, 0, 58, 52
1, 471380, Note_on_c, 0, 61, 63
1, 471385, Note_off_c, 0, 73, 67
1, 471423, Note_off_c, 0, 85, 62
1, 471434, Note_off_c, 0, 61, 62
1, 471462, Note_off_c, 0, 58, 62
1, 471463, Note_off_c, 0, 54, 57
1, 471894, Control_c, 0, 64, 118
1, 471909, Control_c, 0, 64, 104
1, 471924, Control_c, 0, 64, 92
1, 471928, Note_on_c, 0, 37, 37
1, 471932, Note_on_c, 0, 49, 36
1, 471939, Control_c, 0, 64, 81
1, 471954, Control_c, 0, 64, 69
1, 471969, Control_c, 0, 64, 0
1, 471998, Note_on_c, 0, 52, 39
1, 472133, Control_c, 0, 64, 47
1, 472148, Control_c, 0, 64, 65
1, 472162, Control_c, 0, 64, 71
1, 472177, Control_c, 0, 64, 74
1, 472188, Note_on_c, 0, 58, 60
1, 472192, Control_c, 0, 64, 77
1, 472207, Control_c, 0, 64, 81
1, 472222, Control_c, 0, 64, 86
1, 472236, Control_c, 0, 64, 92
1, 472251, Control_c, 0, 64, 97
1, 472266, Control_c, 0, 64, 101
1, 472273, Note_off_c, 0, 37, 42
1, 472280, Control_c, 0, 64, 104
1, 472295, Control_c, 0, 64, 106
1, 472310, Control_c, 0, 64, 109
1, 472325, Control_c, 0, 64, 111
1, 472335, Note_off_c, 0, 52, 39
1, 472340, Control_c, 0, 64, 113
1, 472344, Note_on_c, 0, 64, 75
1, 472344, Note_off_c, 0, 49, 52
1, 472360, Note_off_c, 0, 58, 63
1, 472436, Note_off_c, 0, 64, 60
1, 472466, Control_c, 0, 64, 111
1, 472481, Control_c, 0, 64, 109
1, 472495, Control_c, 0, 64, 106
1, 472510, Control_c, 0, 64, 98
1, 472525, Control_c, 0, 64, 87
1, 472538, Note_on_c, 0, 51, 59
1, 472540, Control_c, 0, 64, 73
1, 472549, Note_on_c, 0, 39, 49
1, 472549, Note_on_c, 0, 64, 60
1, 472555, Control_c, 0, 64, 24
1, 472556, Note_on_c, 0, 54, 44
1, 472561, Note_on_c, 0, 59, 31
1, 472569, Control_c, 0, 64, 0
1, 472762, Control_c, 0, 64, 46
1, 472778, Control_c, 0, 64, 63
1, 472793, Control_c, 0, 64, 68
1, 472796, Note_off_c, 0, 64, 48
1, 472808, Control_c, 0, 64, 72
1, 472823, Control_c, 0, 64, 74
1, 472824, Note_on_c, 0, 63, 72
1, 472825, Note_off_c, 0, 54, 55
1, 472837, Control_c, 0, 64, 78
1, 472848, Note_off_c, 0, 59, 50
1, 472852, Control_c, 0, 64, 84
1, 472867, Control_c, 0, 64, 92
1, 472882, Control_c, 0, 64, 97
1, 472897, Control_c, 0, 64, 98
1, 472910, Note_off_c, 0, 51, 59
1, 472911, Control_c, 0, 64, 99
1, 472926, Control_c, 0, 64, 100
1, 472954, Note_off_c, 0, 39, 35
1, 472955, Poly_aftertouch_c, 0, 42, 127
1, 472982, Note_off_c, 0, 63, 52
1, 472999, Poly_aftertouch_c, 0, 42, 0
1, 472999, Control_c, 0, 64, 99
1, 473001, Poly_aftertouch_c, 0, 44, 127
1, 473014, Control_c, 0, 64, 97
1, 473028, Control_c, 0, 64, 94
1, 473043, Control_c, 0, 64, 88
1, 473058, Control_c, 0, 64, 79
1, 473073, Control_c, 0, 64, 66
1, 473088, Control_c, 0, 64, 0
1, 473092, Poly_aftertouch_c, 0, 44, 0
1, 473097, Note_on_c, 0, 52, 44
1, 473097, Note_on_c, 0, 63, 63
1, 473112, Note_on_c, 0, 55, 48
1, 473115, Note_on_c, 0, 40, 36
1, 473161, Poly_aftertouch_c, 0, 58, 127
1, 473273, Control_c, 0, 64, 44
1, 473288, Control_c, 0, 64, 58
1, 473303, Control_c, 0, 64, 65
1, 473314, Note_off_c, 0, 52, 48
1, 473318, Control_c, 0, 64, 70
1, 473332, Control_c, 0, 64, 76
1, 473347, Control_c, 0, 64, 81
1, 473362, Control_c, 0, 64, 85
1, 473372, Note_off_c, 0, 40, 57
1, 473377, Poly_aftertouch_c, 0, 58, 0
1, 473377, Control_c, 0, 64, 88
1, 473392, Control_c, 0, 64, 93
1, 473407, Control_c, 0, 64, 98
1, 473422, Control_c, 0, 64, 100
1, 473425, Note_off_c, 0, 63, 37
1, 473432, Note_on_c, 0, 61, 61
1, 473436, Control_c, 0, 64, 101
1, 473451, Control_c, 0, 64, 105
1, 473463, Note_off_c, 0, 55, 40
1, 473466, Control_c, 0, 64, 109
1, 473481, Control_c, 0, 64, 113
1, 473496, Control_c, 0, 64, 116
1, 473507, Note_off_c, 0, 61, 57
1, 473510, Control_c, 0, 64, 117
1, 473615, Control_c, 0, 64, 116
1, 473659, Control_c, 0, 64, 116
1, 473674, Control_c, 0, 64, 114
1, 473689, Control_c, 0, 64, 112
1, 473704, Control_c, 0, 64, 110
1, 473719, Control_c, 0, 64, 107
1, 473734, Control_c, 0, 64, 101
1, 473749, Control_c, 0, 64, 93
1, 473764, Control_c, 0, 64, 83
1, 473769, Note_on_c, 0, 59, 40
1, 473779, Control_c, 0, 64, 70
1, 473780, Note_on_c, 0, 55, 18
1, 473782, Note_on_c, 0, 47, 30
1, 473787, Note_on_c, 0, 35, 31
1, 473794, Control_c, 0, 64, 46
1, 473808, Control_c, 0, 64, 0
1, 473838, Control_c, 0, 64, 29
1, 473847, Note_off_c, 0, 55, 0
1, 473860, Control_c, 0, 64, 52
1, 473875, Control_c, 0, 64, 60
1, 473890, Control_c, 0, 64, 63
1, 473891, Poly_aftertouch_c, 0, 55, 127
1, 473905, Control_c, 0, 64, 64
1, 473920, Control_c, 0, 64, 66
1, 473934, Control_c, 0, 64, 69
1, 473949, Control_c, 0, 64, 71
1, 473964, Control_c, 0, 64, 74
1, 473979, Control_c, 0, 64, 76
1, 473994, Control_c, 0, 64, 79
1, 474008, Control_c, 0, 64, 82
1, 474014, Note_off_c, 0, 35, 49
1, 474018, Poly_aftertouch_c, 0, 55, 0
1, 474023, Control_c, 0, 64, 86
1, 474038, Control_c, 0, 64, 89
1, 474053, Control_c, 0, 64, 91
1, 474067, Control_c, 0, 64, 93
1, 474082, Control_c, 0, 64, 95
1, 474086, Note_off_c, 0, 47, 39
1, 474097, Control_c, 0, 64, 98
1, 474112, Control_c, 0, 64, 102
1, 474127, Control_c, 0, 64, 107
1, 474141, Control_c, 0, 64, 112
1, 474153, Note_off_c, 0, 59, 54
1, 474156, Control_c, 0, 64, 118
1, 474171, Control_c, 0, 64, 127
1, 474182, Note_on_c, 0, 55, 47
1, 474194, Note_on_c, 0, 52, 32
1, 474237, Note_off_c, 0, 52, 50
1, 474239, Note_off_c, 0, 55, 57
1, 474556, Control_c, 0, 64, 119
1, 474571, Control_c, 0, 64, 84
1, 474579, Note_on_c, 0, 55, 93
1, 474580, Note_on_c, 0, 47, 80
1, 474586, Control_c, 0, 64, 68
1, 474608, Control_c, 0, 64, 71
1, 474611, Note_on_c, 0, 79, 94
1, 474616, Note_on_c, 0, 67, 81
1, 474623, Control_c, 0, 64, 79
1, 474638, Control_c, 0, 64, 89
1, 474653, Control_c, 0, 64, 108
1, 474668, Control_c, 0, 64, 127
1, 474677, Note_off_c, 0, 67, 61
1, 474760, Note_off_c, 0, 79, 60
1, 474799, Note_on_c, 0, 56, 93
1, 474802, Note_on_c, 0, 80, 98
1, 474802, Note_on_c, 0, 68, 95
1, 474802, Note_off_c, 0, 47, 67
1, 474823, Note_off_c, 0, 55, 67
1, 474823, Note_off_c, 0, 68, 68
1, 474841, Note_off_c, 0, 56, 67
1, 474851, Note_off_c, 0, 80, 67
1, 475028, Note_on_c, 0, 68, 69
1, 475028, Note_on_c, 0, 71, 85
1, 475028, Note_on_c, 0, 95, 103
1, 475029, Note_on_c, 0, 83, 106
1, 475036, Note_on_c, 0, 92, 88
1, 475058, Note_on_c, 0, 94, 55
1, 475082, Note_off_c, 0, 94, 57
1, 475092, Note_off_c, 0, 83, 59
1, 475111, Note_off_c, 0, 92, 64
1, 475113, Note_off_c, 0, 71, 63
1, 475118, Note_off_c, 0, 95, 59
1, 475136, Note_off_c, 0, 68, 61
1, 475230, Control_c, 0, 64, 88
1, 475237, Note_on_c, 0, 68, 88
1, 475241, Note_on_c, 0, 71, 92
1, 475243, Note_on_c, 0, 95, 101
1, 475244, Note_on_c, 0, 83, 97
1, 475245, Note_on_c, 0, 92, 91
1, 475245, Control_c, 0, 64, 56
1, 475250, Note_on_c, 0, 59, 71
1, 475260, Control_c, 0, 64, 0
1, 475275, Control_c, 0, 64, 31
1, 475290, Control_c, 0, 64, 61
1, 475304, Control_c, 0, 64, 67
1, 475319, Control_c, 0, 64, 73
1, 475334, Control_c, 0, 64, 83
1, 475357, Control_c, 0, 64, 99
1, 475371, Control_c, 0, 64, 115
1, 475376, Note_off_c, 0, 92, 60
1, 475377, Note_off_c, 0, 68, 57
1, 475386, Control_c, 0, 64, 127
1, 475419, Note_off_c, 0, 83, 65
1, 475450, Note_off_c, 0, 95, 59
1, 475546, Note_on_c, 0, 92, 95
1, 475548, Note_on_c, 0, 68, 90
1, 475549, Note_on_c, 0, 80, 103
1, 475568, Note_on_c, 0, 64, 71
1, 475570, Note_off_c, 0, 71, 64
1, 475601, Note_off_c, 0, 59, 61
1, 475602, Note_off_c, 0, 64, 64
1, 475603, Note_off_c, 0, 68, 64
1, 475614, Note_off_c, 0, 92, 68
1, 475646, Note_off_c, 0, 80, 59
1, 475771, Control_c, 0, 64, 86
1, 475786, Control_c, 0, 64, 75
1, 475790, Note_on_c, 0, 68, 87
1, 475791, Note_on_c, 0, 64, 69
1, 475798, Note_on_c, 0, 59, 66
1, 475801, Control_c, 0, 64, 78
1, 475807, Note_on_c, 0, 80, 99
1, 475809, Note_on_c, 0, 92, 98
1, 475816, Control_c, 0, 64, 89
1, 475818, Note_on_c, 0, 88, 49
1, 475830, Control_c, 0, 64, 110
1, 475842, Note_off_c, 0, 88, 57
1, 475845, Control_c, 0, 64, 127
1, 475877, Note_off_c, 0, 92, 67
1, 475997, Note_off_c, 0, 68, 62
1, 476015, Note_on_c, 0, 56, 82
1, 476018, Note_off_c, 0, 64, 65
1, 476021, Note_off_c, 0, 80, 23
1, 476030, Note_off_c, 0, 59, 61
1, 476051, Note_off_c, 0, 56, 64
1, 476091, Note_on_c, 0, 88, 104
1, 476092, Note_on_c, 0, 76, 91
1, 476104, Note_on_c, 0, 80, 78
1, 476212, Note_on_c, 0, 47, 79
1, 476268, Note_on_c, 0, 56, 89
1, 476278, Note_off_c, 0, 88, 51
1, 476285, Note_off_c, 0, 76, 57
1, 476287, Note_off_c, 0, 47, 64
1, 476299, Note_off_c, 0, 80, 56
1, 476357, Control_c, 0, 64, 92
1, 476372, Control_c, 0, 64, 64
1, 476381, Note_on_c, 0, 88, 101
1, 476385, Note_on_c, 0, 64, 80
1, 476386, Note_on_c, 0, 76, 93
1, 476387, Control_c, 0, 64, 0
1, 476391, Note_on_c, 0, 80, 84
1, 476401, Control_c, 0, 64, 54
1, 476416, Control_c, 0, 64, 65
1, 476431, Control_c, 0, 64, 72
1, 476446, Control_c, 0, 64, 83
1, 476460, Control_c, 0, 64, 102
1, 476475, Control_c, 0, 64, 127
1, 476506, Note_off_c, 0, 88, 51
1, 476515, Note_off_c, 0, 64, 63
1, 476522, Note_off_c, 0, 80, 64
1, 476569, Poly_aftertouch_c, 0, 86, 127
1, 476588, Poly_aftertouch_c, 0, 86, 0
1, 476608, Note_off_c, 0, 76, 62
1, 476769, Note_on_c, 0, 59, 57
1, 476777, Note_off_c, 0, 56, 63
1, 476778, Note_on_c, 0, 52, 55
1, 476790, Note_on_c, 0, 83, 86
1, 476795, Note_on_c, 0, 71, 73
1, 476806, Note_on_c, 0, 80, 50
1, 476818, Note_off_c, 0, 71, 71
1, 476828, Note_off_c, 0, 80, 59
1, 476829, Note_off_c, 0, 59, 61
1, 476842, Note_off_c, 0, 83, 66
1, 476863, Note_off_c, 0, 52, 63
1, 477151, Control_c, 0, 64, 114
1, 477166, Control_c, 0, 64, 81
1, 477181, Control_c, 0, 64, 0
1, 477201, Note_on_c, 0, 48, 39
1, 477202, Note_on_c, 0, 36, 41
1, 477284, Control_c, 0, 64, 54
1, 477299, Control_c, 0, 64, 66
1, 477314, Control_c, 0, 64, 73
1, 477327, Note_off_c, 0, 48, 59
1, 477329, Control_c, 0, 64, 79
1, 477342, Note_off_c, 0, 36, 54
1, 477344, Control_c, 0, 64, 88
1, 477358, Control_c, 0, 64, 94
1, 477373, Control_c, 0, 64, 98
1, 477384, Note_on_c, 0, 55, 55
1, 477388, Control_c, 0, 64, 103
1, 477402, Control_c, 0, 64, 114
1, 477417, Control_c, 0, 64, 127
1, 477547, Note_off_c, 0, 55, 51
1, 477548, Note_on_c, 0, 64, 67
1, 477562, Note_on_c, 0, 60, 53
1, 477612, Note_off_c, 0, 60, 58
1, 477628, Note_off_c, 0, 64, 58
1, 477752, Control_c, 0, 64, 98
1, 477759, Note_on_c, 0, 31, 49
1, 477759, Note_on_c, 0, 64, 60
1, 477764, Note_on_c, 0, 43, 42
1, 477767, Control_c, 0, 64, 76
1, 477781, Control_c, 0, 64, 43
1, 477783, Note_on_c, 0, 59, 36
1, 477784, Note_on_c, 0, 53, 41
1, 477796, Control_c, 0, 64, 0
1, 477825, Control_c, 0, 64, 35
1, 477835, Note_off_c, 0, 59, 53
1, 477840, Control_c, 0, 64, 63
1, 477855, Control_c, 0, 64, 69
1, 477870, Control_c, 0, 64, 73
1, 477885, Control_c, 0, 64, 78
1, 477890, Note_off_c, 0, 53, 49
1, 477899, Note_off_c, 0, 31, 55
1, 477899, Control_c, 0, 64, 82
1, 477914, Control_c, 0, 64, 88
1, 477929, Control_c, 0, 64, 94
1, 477944, Control_c, 0, 64, 100
1, 477950, Note_off_c, 0, 43, 55
1, 477959, Control_c, 0, 64, 104
1, 477974, Control_c, 0, 64, 108
1, 477989, Control_c, 0, 64, 116
1, 478004, Control_c, 0, 64, 127
1, 478019, Note_off_c, 0, 64, 51
1, 478051, Note_on_c, 0, 62, 64
1, 478081, Note_off_c, 0, 62, 64
1, 478275, Note_on_c, 0, 54, 79
1, 478285, Control_c, 0, 64, 101
1, 478299, Control_c, 0, 64, 86
1, 478314, Control_c, 0, 64, 84
1, 478320, Note_on_c, 0, 78, 90
1, 478323, Note_on_c, 0, 66, 87
1, 478329, Control_c, 0, 64, 90
1, 478351, Control_c, 0, 64, 99
1, 478366, Control_c, 0, 64, 115
1, 478382, Control_c, 0, 64, 127
1, 478393, Note_off_c, 0, 66, 61
1, 478406, Note_off_c, 0, 54, 64
1, 478441, Note_off_c, 0, 78, 60
1, 478483, Note_on_c, 0, 67, 94
1, 478486, Note_on_c, 0, 55, 80
1, 478487, Note_on_c, 0, 79, 101
1, 478513, Note_off_c, 0, 67, 62
1, 478527, Note_off_c, 0, 55, 66
1, 478534, Note_off_c, 0, 79, 67
1, 478648, Note_on_c, 0, 69, 83
1, 478649, Note_on_c, 0, 65, 59
1, 478671, Note_on_c, 0, 93, 105
1, 478673, Note_on_c, 0, 81, 96
1, 478673, Note_on_c, 0, 89, 92
1, 478698, Note_off_c, 0, 69, 62
1, 478731, Note_off_c, 0, 65, 63
1, 478734, Note_off_c, 0, 81, 60
1, 478744, Note_on_c, 0, 55, 75
1, 478760, Note_off_c, 0, 89, 61
1, 478764, Note_off_c, 0, 93, 65
1, 478807, Note_on_c, 0, 65, 83
1, 478826, Control_c, 0, 64, 86
1, 478841, Control_c, 0, 64, 36
1, 478853, Note_on_c, 0, 81, 99
1, 478853, Note_on_c, 0, 93, 104
1, 478854, Note_on_c, 0, 89, 80
1, 478856, Control_c, 0, 64, 0
1, 478862, Note_on_c, 0, 69, 92
1, 478901, Control_c, 0, 64, 62
1, 478916, Control_c, 0, 64, 77
1, 478930, Control_c, 0, 64, 97
1, 478945, Control_c, 0, 64, 127
1, 478952, Note_off_c, 0, 89, 62
1, 478980, Note_off_c, 0, 65, 61
1, 478981, Note_off_c, 0, 93, 67
1, 478996, Poly_aftertouch_c, 0, 58, 127
1, 479023, Note_off_c, 0, 69, 57
1, 479045, Note_off_c, 0, 81, 61
1, 479059, Poly_aftertouch_c, 0, 58, 0
1, 479159, Note_on_c, 0, 65, 73
1, 479171, Note_on_c, 0, 59, 63
1, 479184, Note_off_c, 0, 65, 67
1, 479195, Note_on_c, 0, 89, 99
1, 479200, Note_on_c, 0, 77, 84
1, 479214, Note_off_c, 0, 55, 59
1, 479220, Note_off_c, 0, 59, 61
1, 479223, Note_off_c, 0, 77, 67
1, 479238, Note_off_c, 0, 89, 66
1, 479530, Control_c, 0, 64, 89
1, 479545, Control_c, 0, 64, 57
1, 479560, Control_c, 0, 64, 0
1, 479560, Note_on_c, 0, 48, 41
1, 479561, Note_on_c, 0, 36, 42
1, 479678, Control_c, 0, 64, 37
1, 479689, Note_off_c, 0, 48, 0
1, 479689, Note_on_c, 0, 48, 5
1, 479691, Note_off_c, 0, 48, 57
1, 479693, Control_c, 0, 64, 63
1, 479708, Control_c, 0, 64, 70
1, 479714, Note_off_c, 0, 36, 53
1, 479724, Control_c, 0, 64, 76
1, 479738, Control_c, 0, 64, 81
1, 479753, Control_c, 0, 64, 86
1, 479753, Note_on_c, 0, 55, 53
1, 479768, Control_c, 0, 64, 91
1, 479783, Control_c, 0, 64, 97
1, 479797, Control_c, 0, 64, 103
1, 479812, Control_c, 0, 64, 111
1, 479827, Control_c, 0, 64, 127
1, 479905, Note_off_c, 0, 55, 50
1, 479932, Note_on_c, 0, 64, 67
1, 479956, Note_on_c, 0, 60, 45
1, 480004, Note_off_c, 0, 60, 58
1, 480023, Note_off_c, 0, 64, 60
1, 480138, Note_on_c, 0, 44, 58
1, 480142, Note_on_c, 0, 32, 56
1, 480156, Note_on_c, 0, 64, 64
1, 480162, Control_c, 0, 64, 102
1, 480176, Control_c, 0, 64, 80
1, 480179, Note_on_c, 0, 53, 50
1, 480187, Note_on_c, 0, 59, 40
1, 480191, Control_c, 0, 64, 60
1, 480206, Control_c, 0, 64, 0
1, 480235, Control_c, 0, 64, 28
1, 480250, Control_c, 0, 64, 61
1, 480265, Control_c, 0, 64, 67
1, 480280, Control_c, 0, 64, 72
1, 480294, Control_c, 0, 64, 78
1, 480305, Note_off_c, 0, 59, 34
1, 480309, Control_c, 0, 64, 84
1, 480324, Control_c, 0, 64, 92
1, 480326, Note_off_c, 0, 32, 60
1, 480339, Control_c, 0, 64, 100
1, 480347, Note_off_c, 0, 53, 57
1, 480354, Control_c, 0, 64, 108
1, 480368, Control_c, 0, 64, 121
1, 480371, Note_off_c, 0, 44, 63
1, 480383, Control_c, 0, 64, 127
1, 480461, Note_on_c, 0, 62, 71
1, 480463, Note_off_c, 0, 64, 64
1, 480487, Note_off_c, 0, 62, 66
1, 480648, Note_on_c, 0, 55, 84
1, 480657, Control_c, 0, 64, 88
1, 480672, Control_c, 0, 64, 62
1, 480687, Control_c, 0, 64, 54
1, 480692, Note_on_c, 0, 79, 97
1, 480698, Note_on_c, 0, 67, 88
1, 480701, Control_c, 0, 64, 67
1, 480716, Control_c, 0, 64, 75
1, 480731, Control_c, 0, 64, 84
1, 480746, Control_c, 0, 64, 100
1, 480757, Note_off_c, 0, 67, 61
1, 480761, Control_c, 0, 64, 127
1, 480818, Note_off_c, 0, 79, 60
1, 480885, Note_on_c, 0, 68, 96
1, 480886, Note_on_c, 0, 80, 99
1, 480888, Note_on_c, 0, 56, 78
1, 480918, Note_off_c, 0, 68, 67
1, 480945, Note_off_c, 0, 55, 61
1, 480949, Note_off_c, 0, 80, 66
1, 481045, Note_off_c, 0, 56, 66
1, 481078, Note_on_c, 0, 65, 63
1, 481102, Note_on_c, 0, 95, 105
1, 481103, Note_on_c, 0, 71, 89
1, 481107, Note_on_c, 0, 83, 94
1, 481150, Note_off_c, 0, 71, 65
1, 481197, Note_off_c, 0, 83, 61
1, 481211, Note_on_c, 0, 56, 90
1, 481214, Note_off_c, 0, 65, 62
1, 481237, Note_off_c, 0, 95, 57
1, 481265, Control_c, 0, 64, 102
1, 481280, Note_on_c, 0, 65, 80
1, 481280, Control_c, 0, 64, 75
1, 481295, Control_c, 0, 64, 69
1, 481310, Control_c, 0, 64, 77
1, 481319, Note_on_c, 0, 83, 100
1, 481321, Note_on_c, 0, 95, 107
1, 481323, Note_off_c, 0, 56, 65
1, 481324, Control_c, 0, 64, 87
1, 481332, Note_on_c, 0, 71, 97
1, 481347, Control_c, 0, 64, 102
1, 481362, Control_c, 0, 64, 127
1, 481384, Poly_aftertouch_c, 0, 62, 0
1, 481405, Note_off_c, 0, 95, 62
1, 481453, Note_off_c, 0, 71, 62
1, 481493, Note_off_c, 0, 83, 61
1, 481608, Note_on_c, 0, 68, 83
1, 481619, Note_on_c, 0, 62, 76
1, 481619, Note_off_c, 0, 65, 63
1, 481630, Note_off_c, 0, 68, 70
1, 481652, Note_off_c, 0, 62, 63
1, 481694, Note_on_c, 0, 89, 107
1, 481696, Note_on_c, 0, 77, 93
1, 481713, Note_off_c, 0, 77, 71
1, 481738, Note_off_c, 0, 89, 67
1, 481864, Note_on_c, 0, 42, 67
1, 481904, Note_on_c, 0, 47, 76
1, 481928, Note_on_c, 0, 44, 36
1, 481986, Note_on_c, 0, 51, 85
1, 481999, Note_off_c, 0, 42, 61
1, 481999, Control_c, 0, 64, 84
1, 482011, Note_off_c, 0, 44, 57
1, 482014, Control_c, 0, 64, 0
1, 482096, Control_c, 0, 64, 65
1, 482111, Control_c, 0, 64, 77
1, 482113, Note_on_c, 0, 54, 90
1, 482117, Note_on_c, 0, 83, 66
1, 482120, Note_on_c, 0, 92, 99
1, 482121, Note_on_c, 0, 80, 94
1, 482123, Note_off_c, 0, 47, 64
1, 482126, Control_c, 0, 64, 93
1, 482136, Note_on_c, 0, 87, 43
1, 482141, Control_c, 0, 64, 127
1, 482143, Note_off_c, 0, 51, 66
1, 482151, Note_off_c, 0, 83, 63
1, 482154, Note_off_c, 0, 54, 68
1, 482169, Note_off_c, 0, 87, 53
1, 482207, Note_off_c, 0, 80, 63
1, 482280, Note_off_c, 0, 92, 64
1, 482365, Note_on_c, 0, 54, 90
1, 482441, Note_off_c, 0, 54, 66
1, 482463, Note_on_c, 0, 78, 14
1, 482509, Note_off_c, 0, 78, 53
1, 482567, Note_on_c, 0, 90, 102
1, 482573, Note_on_c, 0, 78, 91
1, 482575, Note_on_c, 0, 71, 88
1, 482576, Note_on_c, 0, 87, 82
1, 482581, Note_on_c, 0, 83, 62
1, 482582, Note_on_c, 0, 63, 72
1, 482666, Note_off_c, 0, 71, 60
1, 482669, Note_off_c, 0, 63, 58
1, 482866, Note_on_c, 0, 71, 90
1, 482879, Note_on_c, 0, 63, 77
1, 482887, Note_off_c, 0, 78, 59
1, 482916, Note_off_c, 0, 90, 61
1, 482931, Note_off_c, 0, 83, 57
1, 482984, Note_off_c, 0, 71, 58
1, 482984, Note_off_c, 0, 87, 54
1, 483082, Note_on_c, 0, 75, 93
1, 483082, Note_on_c, 0, 87, 100
1, 483134, Note_off_c, 0, 75, 60
1, 483139, Note_on_c, 0, 66, 95
1, 483144, Note_off_c, 0, 87, 66
1, 483155, Note_off_c, 0, 63, 61
1, 483156, Note_on_c, 0, 59, 68
1, 483175, Note_off_c, 0, 66, 65
1, 483187, Note_off_c, 0, 59, 66
1, 483188, Note_on_c, 0, 54, 72
1, 483211, Note_off_c, 0, 54, 68
1, 483274, Note_on_c, 0, 83, 97
1, 483274, Note_on_c, 0, 71, 88
1, 483303, Note_off_c, 0, 71, 63
1, 483323, Note_off_c, 0, 83, 69
1, 483369, Note_on_c, 0, 42, 82
1, 483420, Note_on_c, 0, 49, 86
1, 483481, Note_off_c, 0, 42, 62
1, 483482, Control_c, 0, 64, 91
1, 483488, Note_on_c, 0, 46, 41
1, 483497, Control_c, 0, 64, 44
1, 483512, Control_c, 0, 64, 0
1, 483524, Note_on_c, 0, 90, 94
1, 483530, Note_on_c, 0, 78, 91
1, 483542, Note_on_c, 0, 58, 86
1, 483557, Control_c, 0, 64, 48
1, 483571, Control_c, 0, 64, 68
1, 483576, Note_off_c, 0, 49, 64
1, 483593, Control_c, 0, 64, 80
1, 483596, Note_off_c, 0, 58, 63
1, 483600, Note_off_c, 0, 46, 40
1, 483605, Note_off_c, 0, 78, 61
1, 483608, Control_c, 0, 64, 94
1, 483623, Control_c, 0, 64, 122
1, 483638, Control_c, 0, 64, 127
1, 483649, Note_off_c, 0, 90, 64
1, 483757, Note_on_c, 0, 54, 87
1, 483846, Note_off_c, 0, 54, 65
1, 483941, Note_on_c, 0, 70, 91
1, 483944, Note_on_c, 0, 88, 100
1, 483947, Note_on_c, 0, 76, 98
1, 483950, Note_on_c, 0, 85, 89
1, 483951, Note_on_c, 0, 82, 81
1, 483954, Note_on_c, 0, 61, 70
1, 483992, Note_off_c, 0, 70, 64
1, 484002, Note_off_c, 0, 61, 60
1, 484222, Note_on_c, 0, 70, 85
1, 484235, Note_off_c, 0, 76, 58
1, 484236, Note_on_c, 0, 61, 77
1, 484256, Note_off_c, 0, 88, 58
1, 484298, Note_off_c, 0, 82, 57
1, 484332, Note_off_c, 0, 85, 61
1, 484356, Note_off_c, 0, 70, 65
1, 484457, Note_on_c, 0, 85, 90
1, 484463, Note_on_c, 0, 73, 84
1, 484532, Note_off_c, 0, 73, 60
1, 484551, Note_on_c, 0, 54, 73
1, 484552, Note_off_c, 0, 61, 62
1, 484553, Note_on_c, 0, 64, 76
1, 484575, Note_off_c, 0, 54, 67
1, 484578, Note_off_c, 0, 64, 67
1, 484579, Note_off_c, 0, 85, 62
1, 484688, Note_on_c, 0, 82, 86
1, 484697, Note_on_c, 0, 70, 69
1, 484755, Note_on_c, 0, 47, 75
1, 484773, Control_c, 0, 64, 108
1, 484788, Control_c, 0, 64, 64
1, 484803, Control_c, 0, 64, 0
1, 484863, Note_on_c, 0, 54, 67
1, 484891, Control_c, 0, 64, 45
1, 484892, Note_off_c, 0, 70, 58
1, 484906, Control_c, 0, 64, 58
1, 484913, Note_off_c, 0, 47, 63
1, 484921, Control_c, 0, 64, 62
1, 484936, Control_c, 0, 64, 65
1, 484951, Control_c, 0, 64, 68
1, 484953, Note_off_c, 0, 82, 52
1, 484965, Control_c, 0, 64, 71
1, 484980, Control_c, 0, 64, 72
1, 484995, Control_c, 0, 64, 74
1, 485006, Note_on_c, 0, 71, 76
1, 485009, Control_c, 0, 64, 76
1, 485017, Note_on_c, 0, 63, 60
1, 485024, Control_c, 0, 64, 79
1, 485039, Control_c, 0, 64, 81
1, 485091, Control_c, 0, 64, 82
1, 485106, Control_c, 0, 64, 84
1, 485121, Control_c, 0, 64, 88
1, 485136, Control_c, 0, 64, 91
1, 485150, Control_c, 0, 64, 91
1, 485180, Control_c, 0, 64, 92
1, 485195, Control_c, 0, 64, 95
1, 485210, Control_c, 0, 64, 98
1, 485224, Control_c, 0, 64, 101
1, 485239, Control_c, 0, 64, 103
1, 485254, Control_c, 0, 64, 105
1, 485269, Control_c, 0, 64, 106
1, 485284, Control_c, 0, 64, 107
1, 485298, Control_c, 0, 64, 110
1, 485313, Control_c, 0, 64, 116
1, 485328, Control_c, 0, 64, 122
1, 485343, Control_c, 0, 64, 123
1, 485357, Control_c, 0, 64, 122
1, 485393, Note_on_c, 0, 83, 94
1, 485396, Note_off_c, 0, 63, 51
1, 485402, Control_c, 0, 64, 123
1, 485409, Note_off_c, 0, 54, 59
1, 485432, Control_c, 0, 64, 124
1, 485561, Note_off_c, 0, 83, 56
1, 485581, Control_c, 0, 64, 127
1, 485611, Control_c, 0, 64, 126
1, 485626, Control_c, 0, 64, 118
1, 485640, Control_c, 0, 64, 104
1, 485655, Control_c, 0, 64, 95
1, 485670, Control_c, 0, 64, 94
1, 485680, Note_on_c, 0, 78, 85
1, 485685, Control_c, 0, 64, 95
1, 485700, Control_c, 0, 64, 98
1, 485714, Control_c, 0, 64, 103
1, 485729, Control_c, 0, 64, 107
1, 485744, Control_c, 0, 64, 109
1, 485758, Control_c, 0, 64, 110
1, 485773, Control_c, 0, 64, 114
1, 485788, Control_c, 0, 64, 127
1, 485799, Note_off_c, 0, 71, 30
1, 485870, Control_c, 0, 64, 116
1, 485885, Control_c, 0, 64, 94
1, 485900, Control_c, 0, 64, 83
1, 485903, Note_on_c, 0, 75, 81
1, 485914, Control_c, 0, 64, 83
1, 485929, Control_c, 0, 64, 84
1, 485944, Control_c, 0, 64, 87
1, 485959, Control_c, 0, 64, 91
1, 485972, Note_off_c, 0, 78, 23
1, 485973, Control_c, 0, 64, 95
1, 485988, Control_c, 0, 64, 101
1, 486003, Control_c, 0, 64, 104
1, 486033, Control_c, 0, 64, 104
1, 486047, Control_c, 0, 64, 98
1, 486059, Note_off_c, 0, 75, 63
1, 486062, Control_c, 0, 64, 89
1, 486077, Control_c, 0, 64, 82
1, 486092, Control_c, 0, 64, 81
1, 486102, Note_on_c, 0, 71, 75
1, 486107, Control_c, 0, 64, 83
1, 486121, Control_c, 0, 64, 86
1, 486136, Control_c, 0, 64, 90
1, 486151, Control_c, 0, 64, 95
1, 486165, Control_c, 0, 64, 97
1, 486168, Note_off_c, 0, 71, 64
1, 486180, Control_c, 0, 64, 98
1, 486195, Control_c, 0, 64, 98
1, 486210, Control_c, 0, 64, 101
1, 486225, Control_c, 0, 64, 102
1, 486240, Control_c, 0, 64, 101
1, 486255, Control_c, 0, 64, 99
1, 486270, Control_c, 0, 64, 95
1, 486285, Note_on_c, 0, 66, 77
1, 486285, Control_c, 0, 64, 88
1, 486299, Control_c, 0, 64, 85
1, 486329, Control_c, 0, 64, 86
1, 486344, Control_c, 0, 64, 89
1, 486359, Control_c, 0, 64, 94
1, 486374, Control_c, 0, 64, 99
1, 486389, Control_c, 0, 64, 101
1, 486419, Control_c, 0, 64, 99
1, 486434, Control_c, 0, 64, 94
1, 486447, Note_off_c, 0, 66, 48
1, 486448, Control_c, 0, 64, 85
1, 486463, Control_c, 0, 64, 76
1, 486478, Control_c, 0, 64, 74
1, 486483, Note_on_c, 0, 63, 72
1, 486493, Control_c, 0, 64, 76
1, 486508, Control_c, 0, 64, 78
1, 486523, Control_c, 0, 64, 80
1, 486538, Control_c, 0, 64, 83
1, 486553, Control_c, 0, 64, 86
1, 486568, Control_c, 0, 64, 88
1, 486589, Control_c, 0, 64, 89
1, 486619, Control_c, 0, 64, 88
1, 486634, Control_c, 0, 64, 83
1, 486649, Control_c, 0, 64, 76
1, 486663, Control_c, 0, 64, 71
1, 486678, Control_c, 0, 64, 72
1, 486693, Control_c, 0, 64, 74
1, 486694, Note_on_c, 0, 59, 66
1, 486699, Note_off_c, 0, 63, 62
1, 486708, Control_c, 0, 64, 75
1, 486723, Control_c, 0, 64, 77
1, 486738, Control_c, 0, 64, 80
1, 486753, Control_c, 0, 64, 83
1, 486767, Control_c, 0, 64, 86
1, 486782, Control_c, 0, 64, 88
1, 486797, Control_c, 0, 64, 89
1, 486812, Control_c, 0, 64, 90
1, 486827, Control_c, 0, 64, 90
1, 486842, Control_c, 0, 64, 86
1, 486857, Control_c, 0, 64, 77
1, 486862, Note_off_c, 0, 59, 52
1, 486871, Control_c, 0, 64, 68
1, 486886, Control_c, 0, 64, 64
1, 486901, Control_c, 0, 64, 66
1, 486902, Note_on_c, 0, 56, 60
1, 486915, Control_c, 0, 64, 67
1, 486930, Control_c, 0, 64, 69
1, 486945, Control_c, 0, 64, 73
1, 486960, Control_c, 0, 64, 75
1, 486975, Control_c, 0, 64, 77
1, 486989, Control_c, 0, 64, 78
1, 487004, Control_c, 0, 64, 80
1, 487019, Control_c, 0, 64, 81
1, 487034, Control_c, 0, 64, 81
1, 487049, Control_c, 0, 64, 78
1, 487063, Control_c, 0, 64, 73
1, 487078, Control_c, 0, 64, 64
1, 487080, Note_off_c, 0, 56, 55
1, 487093, Control_c, 0, 64, 61
1, 487093, Control_c, 0, 67, 8
1, 487108, Control_c, 0, 64, 64
1, 487108, Control_c, 0, 67, 9
1, 487122, Control_c, 0, 64, 66
1, 487122, Control_c, 0, 67, 10
1, 487128, Note_on_c, 0, 54, 52
1, 487137, Control_c, 0, 64, 68
1, 487137, Control_c, 0, 67, 10
1, 487152, Control_c, 0, 64, 70
1, 487152, Control_c, 0, 67, 11
1, 487168, Control_c, 0, 64, 72
1, 487168, Control_c, 0, 67, 13
1, 487183, Control_c, 0, 64, 74
1, 487183, Control_c, 0, 67, 15
1, 487198, Control_c, 0, 64, 76
1, 487198, Control_c, 0, 67, 16
1, 487211, Control_c, 0, 64, 78
1, 487211, Control_c, 0, 67, 18
1, 487226, Control_c, 0, 67, 20
1, 487241, Control_c, 0, 67, 24
1, 487256, Control_c, 0, 64, 77
1, 487256, Control_c, 0, 67, 29
1, 487271, Control_c, 0, 64, 74
1, 487271, Control_c, 0, 67, 34
1, 487285, Control_c, 0, 64, 69
1, 487285, Control_c, 0, 67, 38
1, 487289, Note_off_c, 0, 54, 36
1, 487300, Control_c, 0, 64, 62
1, 487300, Control_c, 0, 67, 41
1, 487315, Control_c, 0, 64, 60
1, 487315, Control_c, 0, 67, 44
1, 487337, Control_c, 0, 64, 64
1, 487337, Control_c, 0, 67, 46
1, 487352, Control_c, 0, 64, 66
1, 487352, Control_c, 0, 67, 49
1, 487367, Control_c, 0, 64, 68
1, 487367, Control_c, 0, 67, 52
1, 487381, Control_c, 0, 64, 71
1, 487381, Control_c, 0, 67, 56
1, 487384, Note_on_c, 0, 51, 50
1, 487396, Control_c, 0, 64, 74
1, 487396, Control_c, 0, 67, 59
1, 487411, Control_c, 0, 64, 77
1, 487411, Control_c, 0, 67, 62
1, 487426, Control_c, 0, 64, 79
1, 487426, Control_c, 0, 67, 65
1, 487441, Control_c, 0, 64, 81
1, 487441, Control_c, 0, 67, 68
1, 487456, Control_c, 0, 64, 83
1, 487456, Control_c, 0, 67, 73
1, 487471, Control_c, 0, 64, 84
1, 487471, Control_c, 0, 67, 75
1, 487485, Control_c, 0, 64, 85
1, 487485, Control_c, 0, 67, 77
1, 487500, Control_c, 0, 67, 78
1, 487515, Control_c, 0, 67, 78
1, 487530, Control_c, 0, 67, 80
1, 487544, Control_c, 0, 64, 85
1, 487544, Control_c, 0, 67, 80
1, 487563, Note_off_c, 0, 51, 31
1, 487574, Control_c, 0, 64, 85
1, 487589, Control_c, 0, 64, 83
1, 487604, Control_c, 0, 64, 79
1, 487618, Control_c, 0, 64, 72
1, 487633, Control_c, 0, 64, 66
1, 487648, Control_c, 0, 64, 65
1, 487663, Control_c, 0, 64, 67
1, 487674, Note_on_c, 0, 47, 43
1, 487678, Control_c, 0, 64, 68
1, 487692, Control_c, 0, 64, 70
1, 487707, Control_c, 0, 64, 72
1, 487707, Control_c, 0, 67, 80
1, 487722, Control_c, 0, 64, 74
1, 487722, Control_c, 0, 67, 79
1, 487736, Control_c, 0, 64, 76
1, 487736, Control_c, 0, 67, 79
1, 487751, Control_c, 0, 64, 78
1, 487766, Control_c, 0, 64, 79
1, 487780, Note_off_c, 0, 47, 61
1, 487781, Control_c, 0, 64, 81
1, 487781, Control_c, 0, 67, 78
1, 487796, Control_c, 0, 64, 84
1, 487811, Control_c, 0, 64, 87
1, 487826, Control_c, 0, 64, 89
1, 487841, Control_c, 0, 64, 91
1, 487841, Control_c, 0, 67, 78
1, 487855, Control_c, 0, 64, 93
1, 487870, Control_c, 0, 64, 95
1, 487870, Control_c, 0, 67, 77
1, 487885, Control_c, 0, 64, 96
1, 487930, Control_c, 0, 64, 97
1, 487944, Control_c, 0, 64, 97
1, 487960, Control_c, 0, 64, 98
1, 487975, Control_c, 0, 64, 98
1, 488064, Control_c, 0, 64, 98
1, 488115, Control_c, 0, 64, 97
1, 488130, Control_c, 0, 64, 96
1, 488145, Control_c, 0, 64, 95
1, 488159, Control_c, 0, 64, 94
1, 488167, Note_on_c, 0, 39, 34
1, 488174, Control_c, 0, 64, 93
1, 488189, Control_c, 0, 64, 91
1, 488190, Note_on_c, 0, 46, 38
1, 488194, Note_on_c, 0, 51, 32
1, 488204, Control_c, 0, 64, 88
1, 488219, Control_c, 0, 64, 85
1, 488234, Control_c, 0, 64, 78
1, 488249, Control_c, 0, 64, 69
1, 488264, Control_c, 0, 64, 53
1, 488266, Note_on_c, 0, 54, 36
1, 488279, Control_c, 0, 64, 11
1, 488294, Control_c, 0, 64, 40
1, 488308, Control_c, 0, 64, 55
1, 488323, Control_c, 0, 64, 61
1, 488338, Control_c, 0, 64, 63
1, 488353, Control_c, 0, 64, 64
1, 488353, Control_c, 0, 67, 77
1, 488367, Control_c, 0, 64, 66
1, 488367, Control_c, 0, 67, 76
1, 488382, Control_c, 0, 64, 69
1, 488382, Control_c, 0, 67, 76
1, 488397, Control_c, 0, 64, 72
1, 488397, Control_c, 0, 67, 75
1, 488412, Control_c, 0, 64, 74
1, 488412, Control_c, 0, 67, 74
1, 488427, Control_c, 0, 64, 77
1, 488427, Control_c, 0, 67, 73
1, 488441, Control_c, 0, 64, 80
1, 488441, Control_c, 0, 67, 73
1, 488456, Control_c, 0, 64, 84
1, 488456, Control_c, 0, 67, 72
1, 488471, Control_c, 0, 64, 90
1, 488471, Control_c, 0, 67, 71
1, 488484, Note_on_c, 0, 58, 57
1, 488486, Control_c, 0, 64, 97
1, 488486, Control_c, 0, 67, 70
1, 488501, Control_c, 0, 64, 103
1, 488501, Control_c, 0, 67, 70
1, 488515, Control_c, 0, 64, 110
1, 488515, Control_c, 0, 67, 69
1, 488530, Control_c, 0, 64, 117
1, 488530, Control_c, 0, 67, 68
1, 488545, Control_c, 0, 64, 127
1, 488545, Control_c, 0, 67, 64
1, 488559, Control_c, 0, 67, 59
1, 488574, Control_c, 0, 67, 56
1, 488586, Note_off_c, 0, 39, 41
1, 488589, Control_c, 0, 67, 54
1, 488604, Control_c, 0, 67, 50
1, 488615, Note_off_c, 0, 51, 49
1, 488619, Control_c, 0, 67, 44
1, 488633, Control_c, 0, 67, 38
1, 488648, Control_c, 0, 67, 33
1, 488654, Note_off_c, 0, 58, 63
1, 488663, Control_c, 0, 67, 30
1, 488664, Note_on_c, 0, 66, 73
1, 488678, Control_c, 0, 67, 25
1, 488693, Control_c, 0, 67, 18
1, 488699, Note_off_c, 0, 54, 42
1, 488708, Control_c, 0, 67, 12
1, 488723, Control_c, 0, 67, 0
1, 488771, Note_off_c, 0, 66, 54
1, 488877, Note_on_c, 0, 53, 50
1, 488879, Control_c, 0, 64, 113
1, 488882, Note_on_c, 0, 66, 57
1, 488887, Note_on_c, 0, 41, 53
1, 488894, Control_c, 0, 64, 92
1, 488905, Note_on_c, 0, 62, 33
1, 488908, Note_off_c, 0, 46, 41
1, 488909, Control_c, 0, 64, 75
1, 488911, Note_on_c, 0, 56, 37
1, 488924, Control_c, 0, 64, 59
1, 488938, Control_c, 0, 64, 0
1, 489042, Control_c, 0, 64, 43
1, 489057, Control_c, 0, 64, 59
1, 489072, Control_c, 0, 64, 64
1, 489087, Control_c, 0, 64, 65
1, 489101, Control_c, 0, 64, 68
1, 489116, Control_c, 0, 64, 71
1, 489131, Control_c, 0, 64, 74
1, 489146, Control_c, 0, 64, 78
1, 489161, Control_c, 0, 64, 82
1, 489176, Control_c, 0, 64, 88
1, 489190, Control_c, 0, 64, 94
1, 489191, Note_on_c, 0, 65, 68
1, 489205, Note_off_c, 0, 53, 65
1, 489205, Control_c, 0, 64, 100
1, 489206, Note_off_c, 0, 66, 27
1, 489220, Control_c, 0, 64, 105
1, 489235, Control_c, 0, 64, 111
1, 489240, Note_off_c, 0, 62, 37
1, 489250, Control_c, 0, 64, 127
1, 489278, Note_off_c, 0, 41, 61
1, 489337, Note_off_c, 0, 56, 44
1, 489339, Note_off_c, 0, 65, 54
1, 489456, Control_c, 0, 64, 110
1, 489465, Note_on_c, 0, 65, 60
1, 489471, Note_on_c, 0, 54, 53
1, 489471, Control_c, 0, 64, 93
1, 489477, Note_on_c, 0, 42, 47
1, 489483, Note_on_c, 0, 58, 43
1, 489486, Control_c, 0, 64, 77
1, 489501, Control_c, 0, 64, 63
1, 489516, Control_c, 0, 64, 0
1, 489584, Control_c, 0, 64, 40
1, 489599, Control_c, 0, 64, 49
1, 489613, Control_c, 0, 64, 55
1, 489628, Control_c, 0, 64, 61
1, 489628, Control_c, 0, 67, 9
1, 489643, Control_c, 0, 64, 64
1, 489643, Control_c, 0, 67, 11
1, 489658, Control_c, 0, 64, 67
1, 489658, Control_c, 0, 67, 15
1, 489673, Control_c, 0, 64, 70
1, 489673, Control_c, 0, 67, 18
1, 489687, Control_c, 0, 64, 72
1, 489687, Control_c, 0, 67, 20
1, 489702, Control_c, 0, 64, 76
1, 489702, Control_c, 0, 67, 22
1, 489717, Control_c, 0, 64, 80
1, 489717, Control_c, 0, 67, 23
1, 489732, Control_c, 0, 64, 85
1, 489732, Control_c, 0, 67, 24
1, 489747, Control_c, 0, 64, 89
1, 489747, Control_c, 0, 67, 27
1, 489750, Note_off_c, 0, 54, 61
1, 489761, Control_c, 0, 64, 92
1, 489761, Control_c, 0, 67, 31
1, 489776, Control_c, 0, 64, 95
1, 489776, Control_c, 0, 67, 33
1, 489781, Note_off_c, 0, 65, 35
1, 489791, Control_c, 0, 64, 98
1, 489791, Control_c, 0, 67, 35
1, 489800, Note_on_c, 0, 63, 60
1, 489806, Control_c, 0, 64, 102
1, 489806, Control_c, 0, 67, 38
1, 489820, Control_c, 0, 64, 105
1, 489820, Control_c, 0, 67, 41
1, 489828, Note_off_c, 0, 42, 51
1, 489835, Control_c, 0, 64, 108
1, 489835, Control_c, 0, 67, 46
1, 489850, Control_c, 0, 64, 109
1, 489850, Control_c, 0, 67, 51
1, 489865, Control_c, 0, 67, 54
1, 489871, Note_off_c, 0, 58, 42
1, 489879, Control_c, 0, 67, 57
1, 489882, Note_off_c, 0, 63, 52
1, 489894, Control_c, 0, 67, 61
1, 489909, Control_c, 0, 67, 64
1, 489924, Control_c, 0, 67, 66
1, 489939, Control_c, 0, 67, 67
1, 489954, Control_c, 0, 67, 68
1, 489969, Control_c, 0, 67, 69
1, 489984, Control_c, 0, 67, 70
1, 490013, Control_c, 0, 64, 108
1, 490013, Control_c, 0, 67, 70
1, 490028, Control_c, 0, 64, 107
1, 490043, Control_c, 0, 64, 105
1, 490043, Control_c, 0, 67, 71
1, 490058, Control_c, 0, 64, 104
1, 490058, Control_c, 0, 67, 71
1, 490073, Control_c, 0, 64, 102
1, 490073, Control_c, 0, 67, 72
1, 490087, Control_c, 0, 64, 99
1, 490102, Control_c, 0, 64, 97
1, 490102, Control_c, 0, 67, 72
1, 490117, Control_c, 0, 64, 92
1, 490131, Control_c, 0, 64, 85
1, 490141, Note_on_c, 0, 50, 38
1, 490146, Control_c, 0, 64, 75
1, 490154, Note_on_c, 0, 61, 38
1, 490157, Note_on_c, 0, 53, 31
1, 490159, Note_on_c, 0, 38, 32
1, 490161, Control_c, 0, 64, 65
1, 490173, Note_on_c, 0, 56, 21
1, 490176, Control_c, 0, 64, 29
1, 490191, Control_c, 0, 64, 35
1, 490205, Control_c, 0, 64, 49
1, 490220, Control_c, 0, 64, 55
1, 490235, Control_c, 0, 64, 57
1, 490250, Control_c, 0, 64, 59
1, 490265, Control_c, 0, 64, 61
1, 490279, Control_c, 0, 64, 63
1, 490279, Control_c, 0, 67, 72
1, 490294, Control_c, 0, 64, 64
1, 490294, Control_c, 0, 67, 71
1, 490309, Control_c, 0, 64, 65
1, 490331, Control_c, 0, 64, 66
1, 490331, Control_c, 0, 67, 70
1, 490346, Control_c, 0, 64, 67
1, 490346, Control_c, 0, 67, 70
1, 490362, Control_c, 0, 64, 69
1, 490362, Control_c, 0, 67, 69
1, 490377, Control_c, 0, 64, 70
1, 490377, Control_c, 0, 67, 68
1, 490392, Control_c, 0, 64, 71
1, 490392, Control_c, 0, 67, 68
1, 490407, Control_c, 0, 64, 73
1, 490407, Control_c, 0, 67, 67
1, 490422, Control_c, 0, 64, 75
1, 490422, Control_c, 0, 67, 66
1, 490436, Control_c, 0, 64, 77
1, 490436, Control_c, 0, 67, 65
1, 490451, Control_c, 0, 64, 79
1, 490451, Control_c, 0, 67, 64
1, 490466, Control_c, 0, 64, 81
1, 490466, Control_c, 0, 67, 63
1, 490481, Control_c, 0, 64, 83
1, 490481, Control_c, 0, 67, 62
1, 490496, Control_c, 0, 64, 85
1, 490496, Control_c, 0, 67, 61
1, 490510, Control_c, 0, 64, 87
1, 490510, Control_c, 0, 67, 60
1, 490525, Control_c, 0, 64, 90
1, 490525, Control_c, 0, 67, 59
1, 490540, Control_c, 0, 64, 93
1, 490540, Control_c, 0, 67, 57
1, 490554, Control_c, 0, 64, 96
1, 490554, Control_c, 0, 67, 54
1, 490569, Control_c, 0, 64, 98
1, 490569, Control_c, 0, 67, 50
1, 490584, Control_c, 0, 64, 101
1, 490584, Control_c, 0, 67, 47
1, 490587, Note_on_c, 0, 59, 44
1, 490590, Note_off_c, 0, 61, 40
1, 490599, Control_c, 0, 64, 104
1, 490599, Control_c, 0, 67, 44
1, 490614, Control_c, 0, 64, 108
1, 490614, Control_c, 0, 67, 41
1, 490628, Control_c, 0, 64, 111
1, 490628, Control_c, 0, 67, 36
1, 490638, Note_off_c, 0, 56, 42
1, 490643, Control_c, 0, 64, 114
1, 490643, Control_c, 0, 67, 29
1, 490658, Control_c, 0, 64, 118
1, 490658, Control_c, 0, 67, 26
1, 490664, Note_off_c, 0, 53, 44
1, 490673, Control_c, 0, 64, 127
1, 490673, Control_c, 0, 67, 24
1, 490688, Control_c, 0, 67, 21
1, 490702, Control_c, 0, 67, 17
1, 490704, Note_off_c, 0, 59, 55
1, 490717, Control_c, 0, 67, 13
1, 490732, Control_c, 0, 67, 10
1, 490747, Control_c, 0, 67, 8
1, 490762, Control_c, 0, 67, 0
1, 490784, Note_off_c, 0, 38, 36
1, 490786, Note_off_c, 0, 50, 38
1, 491031, Note_on_c, 0, 50, 98
1, 491032, Note_on_c, 0, 38, 88
1, 491050, Note_on_c, 0, 74, 86
1, 491053, Note_on_c, 0, 62, 79
1, 491143, Note_off_c, 0, 62, 55
1, 491167, Note_off_c, 0, 50, 65
1, 491183, Note_off_c, 0, 38, 55
1, 491196, Note_off_c, 0, 74, 63
1, 491269, Note_on_c, 0, 49, 99
1, 491270, Note_on_c, 0, 37, 88
1, 491272, Note_on_c, 0, 61, 79
1, 491273, Note_on_c, 0, 73, 93
1, 491294, Note_off_c, 0, 61, 66
1, 491298, Note_off_c, 0, 37, 69
1, 491307, Note_off_c, 0, 49, 67
1, 491319, Note_off_c, 0, 73, 67
1, 491530, Note_on_c, 0, 71, 72
1, 491546, Note_on_c, 0, 75, 92
1, 491548, Note_on_c, 0, 99, 100
1, 491553, Note_on_c, 0, 87, 95
1, 491563, Note_on_c, 0, 95, 71
1, 491640, Note_off_c, 0, 75, 57
1, 491653, Note_off_c, 0, 71, 58
1, 491669, Note_off_c, 0, 87, 62
1, 491698, Note_off_c, 0, 99, 60
1, 491707, Note_off_c, 0, 95, 57
1, 491763, Control_c, 0, 64, 86
1, 491766, Note_on_c, 0, 71, 82
1, 491772, Note_on_c, 0, 75, 89
1, 491775, Note_on_c, 0, 87, 96
1, 491775, Note_on_c, 0, 99, 112
1, 491776, Note_on_c, 0, 95, 83
1, 491777, Control_c, 0, 64, 45
1, 491781, Note_on_c, 0, 61, 73
1, 491792, Control_c, 0, 64, 0
1, 491804, Note_on_c, 0, 63, 33
1, 491853, Note_off_c, 0, 63, 51
1, 491859, Control_c, 0, 64, 64
1, 491874, Control_c, 0, 64, 75
1, 491889, Control_c, 0, 64, 90
1, 491903, Control_c, 0, 64, 108
1, 491918, Control_c, 0, 64, 127
1, 491927, Note_off_c, 0, 75, 62
1, 491950, Note_off_c, 0, 71, 61
1, 491987, Note_off_c, 0, 87, 64
1, 491995, Note_off_c, 0, 99, 62
1, 492024, Note_off_c, 0, 95, 62
1, 492094, Note_on_c, 0, 97, 97
1, 492099, Note_on_c, 0, 70, 78
1, 492100, Note_on_c, 0, 85, 92
1, 492106, Note_on_c, 0, 73, 98
1, 492195, Note_off_c, 0, 61, 60
1, 492225, Poly_aftertouch_c, 0, 64, 127
1, 492235, Note_off_c, 0, 73, 60
1, 492239, Note_off_c, 0, 85, 58
1, 492240, Note_on_c, 0, 67, 32
1, 492244, Note_off_c, 0, 70, 61
1, 492291, Note_off_c, 0, 97, 60
1, 492325, Poly_aftertouch_c, 0, 64, 0
1, 492333, Control_c, 0, 64, 91
1, 492348, Control_c, 0, 64, 67
1, 492353, Note_on_c, 0, 70, 83
1, 492356, Note_on_c, 0, 61, 72
1, 492357, Note_on_c, 0, 73, 90
1, 492360, Note_on_c, 0, 97, 101
1, 492362, Note_on_c, 0, 85, 87
1, 492363, Poly_aftertouch_c, 0, 64, 127
1, 492363, Control_c, 0, 64, 54
1, 492378, Control_c, 0, 64, 67
1, 492393, Control_c, 0, 64, 73
1, 492407, Control_c, 0, 64, 79
1, 492422, Control_c, 0, 64, 88
1, 492435, Note_off_c, 0, 67, 17
1, 492437, Control_c, 0, 64, 100
1, 492453, Control_c, 0, 64, 127
1, 492458, Poly_aftertouch_c, 0, 64, 0
1, 492499, Note_off_c, 0, 97, 66
1, 492502, Note_off_c, 0, 73, 62
1, 492503, Note_off_c, 0, 70, 61
1, 492543, Note_off_c, 0, 85, 65
1, 492655, Note_on_c, 0, 68, 79
1, 492655, Note_on_c, 0, 71, 81
1, 492657, Note_on_c, 0, 95, 101
1, 492658, Note_on_c, 0, 83, 94
1, 492665, Note_on_c, 0, 92, 90
1, 492692, Note_off_c, 0, 83, 67
1, 492744, Poly_aftertouch_c, 0, 94, 127
1, 492745, Note_off_c, 0, 95, 63
1, 492761, Note_off_c, 0, 92, 64
1, 492776, Poly_aftertouch_c, 0, 94, 0
1, 492819, Note_off_c, 0, 68, 59
1, 492819, Note_off_c, 0, 71, 62
1, 492827, Note_off_c, 0, 61, 59
1, 492935, Control_c, 0, 64, 81
1, 492941, Note_on_c, 0, 61, 73
1, 492941, Note_on_c, 0, 68, 78
1, 492941, Note_on_c, 0, 95, 94
1, 492942, Note_on_c, 0, 92, 88
1, 492944, Note_on_c, 0, 71, 79
1, 492944, Note_on_c, 0, 83, 91
1, 492950, Control_c, 0, 64, 63
1, 492965, Control_c, 0, 64, 64
1, 492980, Control_c, 0, 64, 71
1, 492995, Control_c, 0, 64, 76
1, 493009, Control_c, 0, 64, 82
1, 493024, Control_c, 0, 64, 91
1, 493039, Control_c, 0, 64, 104
1, 493054, Control_c, 0, 64, 127
1, 493093, Note_off_c, 0, 68, 58
1, 493149, Note_off_c, 0, 83, 66
1, 493204, Note_off_c, 0, 95, 54
1, 493232, Note_off_c, 0, 92, 55
1, 493347, Note_on_c, 0, 92, 93
1, 493352, Note_on_c, 0, 80, 86
1, 493354, Note_on_c, 0, 65, 59
1, 493367, Note_on_c, 0, 68, 75
1, 493370, Note_off_c, 0, 71, 63
1, 493381, Note_off_c, 0, 80, 62
1, 493409, Note_off_c, 0, 92, 67
1, 493435, Note_off_c, 0, 68, 66
1, 493454, Note_off_c, 0, 65, 64
1, 493457, Note_off_c, 0, 61, 64
1, 493862, Note_on_c, 0, 41, 49
1, 493877, Note_on_c, 0, 53, 40
1, 493901, Note_on_c, 0, 59, 53
1, 493921, Control_c, 0, 64, 113
1, 493936, Control_c, 0, 64, 89
1, 493950, Control_c, 0, 64, 67
1, 493965, Control_c, 0, 64, 0
1, 494090, Note_on_c, 0, 62, 77
1, 494105, Control_c, 0, 64, 36
1, 494120, Control_c, 0, 64, 64
1, 494135, Control_c, 0, 64, 70
1, 494150, Control_c, 0, 64, 75
1, 494165, Control_c, 0, 64, 81
1, 494179, Control_c, 0, 64, 89
1, 494194, Control_c, 0, 64, 99
1, 494205, Note_off_c, 0, 41, 60
1, 494208, Note_off_c, 0, 53, 53
1, 494209, Control_c, 0, 64, 110
1, 494224, Control_c, 0, 64, 120
1, 494239, Control_c, 0, 64, 127
1, 494253, Note_on_c, 0, 68, 86
1, 494308, Note_off_c, 0, 62, 52
1, 494311, Note_off_c, 0, 59, 56
1, 494366, Note_off_c, 0, 68, 61
1, 494417, Control_c, 0, 64, 103
1, 494432, Control_c, 0, 64, 87
1, 494443, Note_on_c, 0, 54, 62
1, 494447, Note_on_c, 0, 68, 69
1, 494447, Control_c, 0, 64, 70
1, 494450, Note_on_c, 0, 42, 67
1, 494462, Control_c, 0, 64, 0
1, 494470, Note_on_c, 0, 57, 49
1, 494474, Note_on_c, 0, 63, 42
1, 494640, Control_c, 0, 64, 49
1, 494655, Control_c, 0, 64, 63
1, 494669, Control_c, 0, 64, 65
1, 494684, Control_c, 0, 64, 66
1, 494699, Control_c, 0, 64, 70
1, 494714, Control_c, 0, 64, 75
1, 494728, Control_c, 0, 64, 81
1, 494740, Note_on_c, 0, 66, 72
1, 494743, Control_c, 0, 64, 88
1, 494753, Note_off_c, 0, 63, 56
1, 494756, Note_off_c, 0, 42, 60
1, 494758, Control_c, 0, 64, 92
1, 494768, Note_off_c, 0, 68, 45
1, 494773, Control_c, 0, 64, 95
1, 494788, Control_c, 0, 64, 100
1, 494802, Control_c, 0, 64, 104
1, 494825, Control_c, 0, 64, 107
1, 494840, Control_c, 0, 64, 109
1, 494855, Control_c, 0, 64, 111
1, 494882, Note_off_c, 0, 54, 64
1, 494884, Note_off_c, 0, 57, 37
1, 494911, Note_off_c, 0, 66, 48
1, 494958, Control_c, 0, 64, 110
1, 494973, Control_c, 0, 64, 107
1, 494988, Control_c, 0, 64, 103
1, 495002, Control_c, 0, 64, 96
1, 495016, Note_on_c, 0, 56, 64
1, 495017, Control_c, 0, 64, 86
1, 495024, Note_on_c, 0, 44, 61
1, 495030, Note_on_c, 0, 66, 61
1, 495032, Control_c, 0, 64, 69
1, 495047, Control_c, 0, 64, 0
1, 495051, Note_on_c, 0, 59, 39
1, 495052, Note_on_c, 0, 62, 35
1, 495255, Control_c, 0, 64, 38
1, 495270, Control_c, 0, 64, 56
1, 495285, Control_c, 0, 64, 63
1, 495299, Control_c, 0, 64, 67
1, 495314, Control_c, 0, 64, 71
1, 495329, Control_c, 0, 64, 74
1, 495335, Note_off_c, 0, 66, 51
1, 495344, Control_c, 0, 64, 76
1, 495358, Control_c, 0, 64, 79
1, 495373, Control_c, 0, 64, 83
1, 495376, Note_on_c, 0, 65, 58
1, 495388, Control_c, 0, 64, 88
1, 495403, Control_c, 0, 64, 95
1, 495418, Control_c, 0, 64, 100
1, 495420, Note_off_c, 0, 56, 56
1, 495433, Note_off_c, 0, 62, 38
1, 495433, Control_c, 0, 64, 104
1, 495448, Control_c, 0, 64, 109
1, 495463, Control_c, 0, 64, 113
1, 495477, Control_c, 0, 64, 117
1, 495492, Control_c, 0, 64, 118
1, 495494, Note_off_c, 0, 65, 57
1, 495499, Note_off_c, 0, 44, 55
1, 495598, Note_off_c, 0, 59, 44
1, 495618, Control_c, 0, 64, 117
1, 495648, Control_c, 0, 64, 113
1, 495662, Control_c, 0, 64, 109
1, 495677, Control_c, 0, 64, 102
1, 495692, Control_c, 0, 64, 90
1, 495692, Note_on_c, 0, 51, 52
1, 495702, Note_on_c, 0, 39, 43
1, 495703, Note_on_c, 0, 59, 47
1, 495707, Control_c, 0, 64, 77
1, 495715, Note_on_c, 0, 63, 49
1, 495722, Control_c, 0, 64, 64
1, 495737, Control_c, 0, 64, 0
1, 495796, Control_c, 0, 64, 14
1, 495811, Control_c, 0, 64, 34
1, 495825, Control_c, 0, 64, 47
1, 495840, Control_c, 0, 64, 57
1, 495855, Control_c, 0, 64, 63
1, 495869, Control_c, 0, 64, 65
1, 495884, Control_c, 0, 64, 67
1, 495899, Control_c, 0, 64, 70
1, 495914, Control_c, 0, 64, 72
1, 495929, Note_off_c, 0, 59, 41
1, 495929, Control_c, 0, 64, 75
1, 495945, Control_c, 0, 64, 78
1, 495960, Control_c, 0, 64, 80
1, 495974, Control_c, 0, 64, 83
1, 495989, Control_c, 0, 64, 86
1, 496004, Control_c, 0, 64, 89
1, 496019, Control_c, 0, 64, 92
1, 496034, Control_c, 0, 64, 94
1, 496048, Control_c, 0, 64, 97
1, 496063, Control_c, 0, 64, 100
1, 496071, Note_off_c, 0, 63, 56
1, 496078, Control_c, 0, 64, 104
1, 496092, Control_c, 0, 64, 109
1, 496107, Control_c, 0, 64, 118
1, 496117, Note_on_c, 0, 59, 42
1, 496122, Control_c, 0, 64, 127
1, 496124, Note_on_c, 0, 56, 39
1, 496208, Note_off_c, 0, 56, 51
1, 496235, Note_off_c, 0, 59, 48
1, 496324, Note_off_c, 0, 51, 38
1, 496454, Note_off_c, 0, 39, 41
1, 496496, Note_on_c, 0, 50, 97
1, 496498, Note_on_c, 0, 38, 94
1, 496500, Control_c, 0, 64, 89
1, 496509, Note_on_c, 0, 74, 86
1, 496512, Note_on_c, 0, 62, 73
1, 496515, Control_c, 0, 64, 73
1, 496530, Control_c, 0, 64, 71
1, 496545, Control_c, 0, 64, 78
1, 496552, Poly_aftertouch_c, 0, 43, 0
1, 496560, Control_c, 0, 64, 85
1, 496575, Control_c, 0, 64, 99
1, 496575, Note_off_c, 0, 62, 61
1, 496589, Control_c, 0, 64, 127
1, 496613, Note_off_c, 0, 50, 65
1, 496640, Note_off_c, 0, 38, 62
1, 496647, Note_on_c, 0, 43, 18
1, 496678, Note_off_c, 0, 74, 59
1, 496687, Note_off_c, 0, 43, 49
1, 496707, Note_on_c, 0, 51, 102
1, 496712, Note_on_c, 0, 39, 81
1, 496714, Note_on_c, 0, 75, 94
1, 496743, Note_on_c, 0, 76, 68
1, 496744, Note_off_c, 0, 39, 65
1, 496747, Note_off_c, 0, 51, 68
1, 496754, Note_off_c, 0, 75, 67
1, 496761, Note_off_c, 0, 76, 66
1, 496789, Poly_aftertouch_c, 0, 64, 127
1, 496813, Poly_aftertouch_c, 0, 63, 0
1, 496822, Poly_aftertouch_c, 0, 64, 0
1, 496956, Note_on_c, 0, 71, 66
1, 496965, Note_on_c, 0, 99, 104
1, 496967, Note_on_c, 0, 87, 103
1, 496968, Note_on_c, 0, 75, 100
1, 496979, Note_on_c, 0, 95, 65
1, 497060, Note_off_c, 0, 95, 0
1, 497060, Note_on_c, 0, 95, 11
1, 497083, Note_off_c, 0, 75, 58
1, 497096, Note_off_c, 0, 87, 61
1, 497101, Note_off_c, 0, 71, 59
1, 497113, Note_off_c, 0, 99, 62
1, 497176, Control_c, 0, 64, 113
1, 497178, Note_off_c, 0, 95, 36
1, 497191, Control_c, 0, 64, 72
1, 497201, Note_on_c, 0, 71, 76
1, 497204, Note_on_c, 0, 75, 92
1, 497205, Control_c, 0, 64, 0
1, 497207, Note_on_c, 0, 99, 98
1, 497210, Note_on_c, 0, 63, 79
1, 497212, Note_on_c, 0, 87, 100
1, 497265, Control_c, 0, 64, 31
1, 497279, Control_c, 0, 64, 65
1, 497294, Control_c, 0, 64, 78
1, 497309, Control_c, 0, 64, 93
1, 497321, Note_off_c, 0, 99, 64
1, 497323, Control_c, 0, 64, 108
1, 497338, Control_c, 0, 64, 127
1, 497342, Poly_aftertouch_c, 0, 97, 127
1, 497373, Note_off_c, 0, 71, 59
1, 497376, Poly_aftertouch_c, 0, 97, 0
1, 497385, Note_off_c, 0, 75, 63
1, 497400, Note_off_c, 0, 87, 61
1, 497534, Note_on_c, 0, 68, 76
1, 497543, Note_on_c, 0, 71, 81
1, 497546, Note_on_c, 0, 95, 101
1, 497548, Note_on_c, 0, 92, 88
1, 497549, Note_on_c, 0, 83, 98
1, 497615, Note_off_c, 0, 63, 59
1, 497617, Note_off_c, 0, 68, 63
1, 497687, Note_off_c, 0, 71, 53
1, 497710, Note_off_c, 0, 83, 59
1, 497729, Note_off_c, 0, 95, 57
1, 497743, Note_off_c, 0, 92, 63
1, 497783, Control_c, 0, 64, 93
1, 497798, Control_c, 0, 64, 74
1, 497809, Note_on_c, 0, 68, 84
1, 497810, Note_on_c, 0, 71, 83
1, 497820, Control_c, 0, 64, 72
1, 497821, Note_on_c, 0, 95, 100
1, 497822, Note_on_c, 0, 83, 89
1, 497827, Note_on_c, 0, 92, 92
1, 497829, Note_on_c, 0, 63, 68
1, 497835, Control_c, 0, 64, 80
1, 497850, Control_c, 0, 64, 88
1, 497865, Control_c, 0, 64, 98
1, 497879, Control_c, 0, 64, 119
1, 497894, Control_c, 0, 64, 127
1, 497902, Note_off_c, 0, 68, 59
1, 497915, Note_off_c, 0, 71, 64
1, 497932, Note_off_c, 0, 83, 65
1, 497955, Note_off_c, 0, 95, 60
1, 498045, Note_off_c, 0, 92, 66
1, 498094, Note_off_c, 0, 63, 62
1, 498110, Note_on_c, 0, 59, 60
1, 498116, Note_on_c, 0, 68, 90
1, 498119, Note_on_c, 0, 80, 93
1, 498119, Note_on_c, 0, 92, 98
1, 498154, Note_off_c, 0, 68, 66
1, 498157, Note_off_c, 0, 59, 62
1, 498184, Note_off_c, 0, 80, 55
1, 498193, Note_off_c, 0, 92, 66
1, 498320, Note_on_c, 0, 51, 79
1, 498359, Note_on_c, 0, 59, 60
1, 498384, Note_off_c, 0, 51, 67
1, 498414, Control_c, 0, 64, 89
1, 498429, Control_c, 0, 64, 66
1, 498443, Note_on_c, 0, 80, 96
1, 498443, Note_on_c, 0, 92, 101
1, 498443, Control_c, 0, 64, 65
1, 498444, Note_on_c, 0, 83, 59
1, 498447, Poly_aftertouch_c, 0, 58, 0
1, 498453, Note_on_c, 0, 68, 89
1, 498458, Control_c, 0, 64, 72
1, 498473, Control_c, 0, 64, 79
1, 498476, Note_off_c, 0, 83, 66
1, 498487, Control_c, 0, 64, 92
1, 498502, Control_c, 0, 64, 115
1, 498517, Control_c, 0, 64, 127
1, 498605, Note_off_c, 0, 92, 68
1, 498648, Note_off_c, 0, 68, 59
1, 498762, Note_off_c, 0, 80, 61
1, 498947, Note_on_c, 0, 87, 92
1, 498949, Note_on_c, 0, 56, 59
1, 498955, Note_on_c, 0, 75, 80
1, 498962, Note_on_c, 0, 63, 54
1, 499012, Poly_aftertouch_c, 0, 83, 127
1, 499014, Note_off_c, 0, 75, 62
1, 499023, Note_off_c, 0, 87, 66
1, 499034, Poly_aftertouch_c, 0, 83, 0
1, 499078, Note_off_c, 0, 63, 58
1, 499111, Note_off_c, 0, 59, 35
1, 499206, Note_off_c, 0, 56, 62
1, 499781, Note_on_c, 0, 40, 47
1, 499846, Note_on_c, 0, 74, 80
1, 499851, Control_c, 0, 64, 104
1, 499863, Note_on_c, 0, 68, 46
1, 499866, Note_on_c, 0, 64, 52
1, 499866, Control_c, 0, 64, 83
1, 499881, Control_c, 0, 64, 67
1, 499896, Control_c, 0, 64, 0
1, 499985, Control_c, 0, 64, 41
1, 500000, Control_c, 0, 64, 60
1, 500014, Control_c, 0, 64, 65
1, 500029, Control_c, 0, 64, 69
1, 500044, Control_c, 0, 64, 73
1, 500059, Control_c, 0, 64, 76
1, 500080, Control_c, 0, 64, 79
1, 500095, Control_c, 0, 64, 83
1, 500101, Note_off_c, 0, 64, 57
1, 500110, Control_c, 0, 64, 86
1, 500125, Note_off_c, 0, 68, 42
1, 500125, Control_c, 0, 64, 90
1, 500140, Control_c, 0, 64, 94
1, 500155, Control_c, 0, 64, 98
1, 500170, Control_c, 0, 64, 103
1, 500184, Control_c, 0, 64, 107
1, 500199, Control_c, 0, 64, 113
1, 500214, Control_c, 0, 64, 121
1, 500226, Note_on_c, 0, 47, 43
1, 500229, Control_c, 0, 64, 127
1, 500319, Note_off_c, 0, 40, 37
1, 500328, Note_on_c, 0, 64, 43
1, 500331, Note_on_c, 0, 68, 51
1, 500370, Note_off_c, 0, 64, 50
1, 500427, Note_off_c, 0, 68, 56
1, 500447, Note_off_c, 0, 47, 41
1, 500463, Note_on_c, 0, 50, 45
1, 500578, Note_on_c, 0, 68, 53
1, 500579, Note_off_c, 0, 50, 60
1, 500589, Note_on_c, 0, 64, 44
1, 500607, Note_on_c, 0, 52, 55
1, 500626, Note_off_c, 0, 64, 59
1, 500646, Note_off_c, 0, 68, 58
1, 500726, Note_off_c, 0, 52, 59
1, 500740, Note_on_c, 0, 47, 67
1, 500763, Note_on_c, 0, 68, 55
1, 500769, Note_on_c, 0, 64, 46
1, 500778, Control_c, 0, 64, 93
1, 500793, Control_c, 0, 64, 75
1, 500797, Note_off_c, 0, 64, 59
1, 500804, Note_off_c, 0, 68, 60
1, 500807, Control_c, 0, 64, 65
1, 500830, Control_c, 0, 64, 68
1, 500844, Control_c, 0, 64, 70
1, 500859, Control_c, 0, 64, 72
1, 500874, Control_c, 0, 64, 74
1, 500877, Note_on_c, 0, 50, 64
1, 500888, Control_c, 0, 64, 78
1, 500903, Control_c, 0, 64, 84
1, 500908, Note_on_c, 0, 64, 56
1, 500918, Control_c, 0, 64, 91
1, 500920, Note_on_c, 0, 68, 56
1, 500933, Control_c, 0, 64, 96
1, 500941, Note_off_c, 0, 74, 59
1, 500948, Control_c, 0, 64, 99
1, 500963, Control_c, 0, 64, 103
1, 500977, Control_c, 0, 64, 107
1, 500987, Note_off_c, 0, 64, 61
1, 500992, Control_c, 0, 64, 112
1, 501007, Control_c, 0, 64, 119
1, 501022, Control_c, 0, 64, 127
1, 501027, Note_on_c, 0, 52, 60
1, 501027, Note_on_c, 0, 74, 90
1, 501027, Note_off_c, 0, 68, 60
1, 501094, Note_off_c, 0, 47, 37
1, 501105, Note_off_c, 0, 50, 38
1, 501137, Note_off_c, 0, 52, 60
1, 501153, Note_on_c, 0, 68, 57
1, 501156, Note_on_c, 0, 64, 59
1, 501162, Note_on_c, 0, 59, 58
1, 501203, Note_off_c, 0, 64, 59
1, 501212, Note_off_c, 0, 59, 50
1, 501234, Note_off_c, 0, 68, 56
1, 501315, Note_on_c, 0, 73, 81
1, 501324, Note_on_c, 0, 52, 51
1, 501332, Note_on_c, 0, 64, 53
1, 501348, Control_c, 0, 64, 108
1, 501362, Control_c, 0, 64, 90
1, 501377, Control_c, 0, 64, 71
1, 501392, Control_c, 0, 64, 0
1, 501397, Note_off_c, 0, 74, 54
1, 501462, Note_on_c, 0, 56, 63
1, 501481, Control_c, 0, 64, 49
1, 501496, Control_c, 0, 64, 63
1, 501511, Control_c, 0, 64, 65
1, 501526, Control_c, 0, 64, 68
1, 501541, Control_c, 0, 64, 70
1, 501564, Control_c, 0, 64, 74
1, 501579, Control_c, 0, 64, 78
1, 501593, Control_c, 0, 64, 84
1, 501608, Control_c, 0, 64, 88
1, 501623, Control_c, 0, 64, 92
1, 501624, Note_on_c, 0, 74, 75
1, 501633, Note_on_c, 0, 59, 54
1, 501638, Control_c, 0, 64, 97
1, 501640, Note_off_c, 0, 64, 36
1, 501651, Note_off_c, 0, 73, 63
1, 501653, Control_c, 0, 64, 102
1, 501667, Control_c, 0, 64, 106
1, 501682, Control_c, 0, 64, 114
1, 501697, Control_c, 0, 64, 127
1, 501702, Note_off_c, 0, 52, 60
1, 501736, Note_off_c, 0, 56, 63
1, 501740, Note_off_c, 0, 59, 61
1, 501769, Note_on_c, 0, 62, 63
1, 501794, Note_off_c, 0, 62, 64
1, 501904, Note_on_c, 0, 78, 58
1, 501922, Note_off_c, 0, 74, 60
1, 501943, Note_on_c, 0, 76, 65
1, 501949, Note_on_c, 0, 44, 54
1, 501949, Control_c, 0, 64, 107
1, 501964, Control_c, 0, 64, 83
1, 501976, Note_off_c, 0, 78, 55
1, 501979, Control_c, 0, 64, 66
1, 501993, Control_c, 0, 64, 14
1, 502008, Control_c, 0, 64, 50
1, 502023, Control_c, 0, 64, 59
1, 502037, Control_c, 0, 64, 61
1, 502052, Control_c, 0, 64, 64
1, 502067, Control_c, 0, 64, 66
1, 502082, Control_c, 0, 64, 69
1, 502097, Control_c, 0, 64, 73
1, 502111, Control_c, 0, 64, 76
1, 502126, Control_c, 0, 64, 78
1, 502131, Note_on_c, 0, 50, 39
1, 502141, Control_c, 0, 64, 80
1, 502156, Control_c, 0, 64, 83
1, 502171, Control_c, 0, 64, 87
1, 502186, Control_c, 0, 64, 90
1, 502201, Control_c, 0, 64, 93
1, 502216, Control_c, 0, 64, 95
1, 502230, Control_c, 0, 64, 98
1, 502245, Control_c, 0, 64, 104
1, 502260, Control_c, 0, 64, 109
1, 502275, Control_c, 0, 64, 115
1, 502290, Control_c, 0, 64, 126
1, 502312, Control_c, 0, 64, 127
1, 502328, Note_on_c, 0, 74, 57
1, 502331, Note_on_c, 0, 52, 43
1, 502375, Note_off_c, 0, 76, 34
1, 502411, Note_off_c, 0, 44, 38
1, 502421, Note_off_c, 0, 74, 57
1, 502513, Note_on_c, 0, 56, 58
1, 502513, Note_off_c, 0, 52, 58
1, 502515, Note_off_c, 0, 50, 42
1, 502581, Note_off_c, 0, 56, 62
1, 502698, Control_c, 0, 64, 90
1, 502713, Control_c, 0, 64, 63
1, 502728, Control_c, 0, 64, 58
1, 502736, Note_on_c, 0, 47, 82
1, 502737, Note_on_c, 0, 52, 92
1, 502739, Note_on_c, 0, 40, 82
1, 502742, Control_c, 0, 64, 69
1, 502744, Note_on_c, 0, 50, 83
1, 502746, Note_on_c, 0, 73, 94
1, 502749, Note_on_c, 0, 61, 94
1, 502757, Control_c, 0, 64, 78
1, 502772, Control_c, 0, 64, 96
1, 502787, Control_c, 0, 64, 127
1, 502909, Note_off_c, 0, 61, 60
1, 502941, Note_off_c, 0, 73, 57
1, 502947, Note_off_c, 0, 40, 62
1, 502964, Note_off_c, 0, 50, 64
1, 502973, Note_off_c, 0, 47, 64
1, 502992, Note_off_c, 0, 52, 64
1, 503003, Note_on_c, 0, 62, 95
1, 503005, Note_on_c, 0, 74, 100
1, 503021, Note_off_c, 0, 62, 72
1, 503049, Note_off_c, 0, 74, 71
1, 503257, Note_on_c, 0, 98, 102
1, 503258, Note_on_c, 0, 71, 72
1, 503261, Note_on_c, 0, 86, 91
1, 503266, Note_on_c, 0, 74, 86
1, 503267, Note_on_c, 0, 64, 73
1, 503267, Note_on_c, 0, 96, 69
1, 503276, Note_on_c, 0, 95, 80
1, 503326, Note_off_c, 0, 86, 64
1, 503341, Note_off_c, 0, 96, 64
1, 503344, Note_off_c, 0, 95, 59
1, 503344, Note_off_c, 0, 74, 62
1, 503348, Note_off_c, 0, 98, 65
1, 503368, Note_off_c, 0, 71, 60
1, 503373, Note_off_c, 0, 64, 56
1, 503447, Control_c, 0, 64, 109
1, 503462, Control_c, 0, 64, 76
1, 503463, Note_on_c, 0, 98, 98
1, 503464, Note_on_c, 0, 86, 94
1, 503469, Note_on_c, 0, 95, 87
1, 503473, Note_on_c, 0, 71, 81
1, 503475, Note_on_c, 0, 74, 93
1, 503477, Note_on_c, 0, 64, 80
1, 503477, Control_c, 0, 64, 36
1, 503479, Note_on_c, 0, 94, 40
1, 503482, Note_off_c, 0, 94, 54
1, 503491, Control_c, 0, 64, 56
1, 503506, Control_c, 0, 64, 66
1, 503521, Control_c, 0, 64, 71
1, 503536, Control_c, 0, 64, 77
1, 503551, Control_c, 0, 64, 87
1, 503565, Control_c, 0, 64, 99
1, 503571, Note_off_c, 0, 86, 65
1, 503577, Note_off_c, 0, 74, 63
1, 503580, Control_c, 0, 64, 108
1, 503595, Note_off_c, 0, 95, 61
1, 503595, Control_c, 0, 64, 118
1, 503610, Control_c, 0, 64, 127
1, 503683, Note_off_c, 0, 98, 60
1, 503724, Note_on_c, 0, 97, 96
1, 503726, Note_on_c, 0, 85, 101
1, 503729, Note_on_c, 0, 73, 91
1, 503741, Note_on_c, 0, 69, 77
1, 503743, Note_off_c, 0, 71, 61
1, 503751, Note_on_c, 0, 93, 48
1, 503774, Note_off_c, 0, 93, 58
1, 503789, Note_off_c, 0, 85, 62
1, 503796, Note_off_c, 0, 69, 62
1, 503797, Note_off_c, 0, 73, 60
1, 503814, Note_off_c, 0, 64, 63
1, 503815, Note_off_c, 0, 97, 63
1, 503922, Note_on_c, 0, 68, 78
1, 503922, Note_on_c, 0, 83, 98
1, 503923, Note_on_c, 0, 95, 93
1, 503924, Note_on_c, 0, 71, 88
1, 503925, Note_on_c, 0, 92, 92
1, 503932, Note_on_c, 0, 64, 70
1, 503969, Note_on_c, 0, 94, 35
1, 503997, Note_off_c, 0, 94, 54
1, 504008, Note_off_c, 0, 71, 61
1, 504008, Note_off_c, 0, 83, 59
1, 504014, Note_off_c, 0, 64, 60
1, 504016, Note_off_c, 0, 68, 59
1, 504030, Note_off_c, 0, 92, 65
1, 504035, Note_off_c, 0, 95, 64
1, 504104, Note_on_c, 0, 86, 80
1, 504104, Note_on_c, 0, 71, 92
1, 504109, Note_on_c, 0, 68, 84
1, 504110, Note_on_c, 0, 83, 92
1, 504111, Note_on_c, 0, 95, 96
1, 504115, Note_on_c, 0, 64, 79
1, 504122, Control_c, 0, 64, 87
1, 504137, Control_c, 0, 64, 67
1, 504152, Control_c, 0, 64, 65
1, 504167, Control_c, 0, 64, 72
1, 504181, Control_c, 0, 64, 77
1, 504196, Control_c, 0, 64, 85
1, 504211, Control_c, 0, 64, 95
1, 504213, Note_off_c, 0, 83, 60
1, 504215, Note_off_c, 0, 95, 61
1, 504226, Control_c, 0, 64, 108
1, 504241, Control_c, 0, 64, 127
1, 504296, Note_on_c, 0, 66, 68
1, 504300, Note_off_c, 0, 68, 59
1, 504302, Note_off_c, 0, 64, 57
1, 504303, Note_on_c, 0, 93, 103
1, 504305, Note_on_c, 0, 81, 95
1, 504306, Note_on_c, 0, 69, 79
1, 504308, Note_off_c, 0, 71, 62
1, 504317, Note_off_c, 0, 86, 64
1, 504351, Note_off_c, 0, 81, 64
1, 504382, Note_off_c, 0, 93, 63
1, 504405, Note_on_c, 0, 68, 78
1, 504423, Note_off_c, 0, 69, 59
1, 504447, Note_off_c, 0, 68, 65
1, 504458, Note_off_c, 0, 66, 52
1, 504492, Note_on_c, 0, 92, 97
1, 504494, Note_on_c, 0, 80, 91
1, 504500, Poly_aftertouch_c, 0, 64, 127
1, 504505, Note_on_c, 0, 86, 34
1, 504525, Poly_aftertouch_c, 0, 64, 0
1, 504534, Note_off_c, 0, 86, 55
1, 504581, Note_on_c, 0, 52, 70
1, 504589, Note_on_c, 0, 50, 51
1, 504596, Note_on_c, 0, 59, 73
1, 504608, Note_off_c, 0, 80, 55
1, 504618, Note_off_c, 0, 50, 58
1, 504623, Note_off_c, 0, 92, 61
1, 504658, Note_off_c, 0, 52, 63
1, 504662, Control_c, 0, 64, 96
1, 504677, Control_c, 0, 64, 65
1, 504692, Control_c, 0, 64, 0
1, 504711, Note_on_c, 0, 80, 92
1, 504713, Note_on_c, 0, 68, 86
1, 504714, Note_on_c, 0, 92, 100
1, 504751, Control_c, 0, 64, 59
1, 504766, Control_c, 0, 64, 69
1, 504781, Control_c, 0, 64, 77
1, 504787, Poly_aftertouch_c, 0, 86, 127
1, 504796, Control_c, 0, 64, 84
1, 504811, Control_c, 0, 64, 91
1, 504821, Note_off_c, 0, 68, 60
1, 504826, Control_c, 0, 64, 102
1, 504841, Control_c, 0, 64, 116
1, 504844, Note_off_c, 0, 80, 61
1, 504855, Control_c, 0, 64, 127
1, 504891, Note_off_c, 0, 92, 64
1, 504922, Note_on_c, 0, 57, 64
1, 504928, Note_on_c, 0, 90, 86
1, 504935, Note_on_c, 0, 78, 93
1, 504938, Note_on_c, 0, 66, 80
1, 504972, Note_off_c, 0, 57, 59
1, 504974, Poly_aftertouch_c, 0, 86, 0
1, 504993, Note_off_c, 0, 90, 65
1, 505025, Note_off_c, 0, 66, 64
1, 505034, Note_off_c, 0, 78, 60
1, 505091, Note_on_c, 0, 85, 37
1, 505130, Note_off_c, 0, 85, 47
1, 505210, Note_on_c, 0, 56, 59
1, 505210, Note_on_c, 0, 88, 92
1, 505213, Note_on_c, 0, 76, 82
1, 505222, Note_on_c, 0, 64, 63
1, 505225, Note_on_c, 0, 86, 63
1, 505228, Note_off_c, 0, 76, 70
1, 505240, Note_off_c, 0, 59, 59
1, 505243, Note_on_c, 0, 52, 60
1, 505250, Note_off_c, 0, 64, 69
1, 505254, Note_off_c, 0, 86, 59
1, 505255, Note_off_c, 0, 88, 63
1, 505279, Note_off_c, 0, 56, 63
1, 505320, Note_off_c, 0, 52, 61
1, 505616, Note_on_c, 0, 41, 78
1, 505693, Control_c, 0, 64, 93
1, 505696, Note_on_c, 0, 74, 82
1, 505708, Control_c, 0, 64, 70
1, 505711, Note_on_c, 0, 62, 55
1, 505723, Control_c, 0, 64, 0
1, 505724, Note_on_c, 0, 68, 43
1, 505842, Control_c, 0, 64, 51
1, 505857, Control_c, 0, 64, 63
1, 505869, Note_off_c, 0, 68, 33
1, 505872, Control_c, 0, 64, 68
1, 505886, Control_c, 0, 64, 72
1, 505901, Control_c, 0, 64, 75
1, 505914, Note_off_c, 0, 62, 55
1, 505916, Control_c, 0, 64, 78
1, 505931, Control_c, 0, 64, 82
1, 505946, Control_c, 0, 64, 86
1, 505960, Control_c, 0, 64, 91
1, 505968, Note_on_c, 0, 47, 54
1, 505975, Control_c, 0, 64, 95
1, 505990, Control_c, 0, 64, 98
1, 506005, Control_c, 0, 64, 101
1, 506020, Control_c, 0, 64, 106
1, 506034, Control_c, 0, 64, 112
1, 506057, Control_c, 0, 64, 119
1, 506059, Note_on_c, 0, 62, 48
1, 506070, Note_on_c, 0, 68, 46
1, 506072, Control_c, 0, 64, 127
1, 506099, Note_off_c, 0, 62, 48
1, 506116, Note_off_c, 0, 68, 57
1, 506148, Note_on_c, 0, 50, 62
1, 506148, Note_off_c, 0, 41, 34
1, 506273, Note_off_c, 0, 50, 64
1, 506279, Note_off_c, 0, 47, 33
1, 506283, Note_on_c, 0, 68, 32
1, 506285, Note_on_c, 0, 62, 13
1, 506291, Note_on_c, 0, 53, 61
1, 506323, Note_off_c, 0, 68, 50
1, 506327, Note_off_c, 0, 53, 63
1, 506329, Note_off_c, 0, 62, 41
1, 506415, Note_on_c, 0, 47, 77
1, 506441, Note_on_c, 0, 62, 41
1, 506443, Control_c, 0, 64, 111
1, 506448, Note_on_c, 0, 68, 42
1, 506457, Control_c, 0, 64, 85
1, 506472, Control_c, 0, 64, 67
1, 506479, Note_off_c, 0, 62, 51
1, 506485, Note_off_c, 0, 68, 54
1, 506487, Control_c, 0, 64, 59
1, 506501, Control_c, 0, 64, 66
1, 506516, Control_c, 0, 64, 69
1, 506531, Control_c, 0, 64, 71
1, 506544, Note_on_c, 0, 50, 65
1, 506546, Control_c, 0, 64, 75
1, 506561, Control_c, 0, 64, 81
1, 506576, Control_c, 0, 64, 88
1, 506586, Note_on_c, 0, 68, 43
1, 506590, Control_c, 0, 64, 95
1, 506596, Note_on_c, 0, 62, 37
1, 506605, Control_c, 0, 64, 99
1, 506620, Control_c, 0, 64, 103
1, 506621, Note_off_c, 0, 74, 59
1, 506635, Control_c, 0, 64, 108
1, 506650, Control_c, 0, 64, 119
1, 506659, Note_off_c, 0, 62, 48
1, 506665, Control_c, 0, 64, 127
1, 506698, Note_on_c, 0, 74, 84
1, 506700, Note_off_c, 0, 68, 57
1, 506702, Note_on_c, 0, 53, 63
1, 506813, Note_off_c, 0, 47, 63
1, 506824, Note_on_c, 0, 68, 56
1, 506828, Note_on_c, 0, 62, 56
1, 506832, Note_off_c, 0, 53, 64
1, 506841, Note_on_c, 0, 59, 72
1, 506844, Note_off_c, 0, 50, 37
1, 506864, Note_off_c, 0, 62, 58
1, 506888, Note_off_c, 0, 59, 57
1, 506936, Note_off_c, 0, 68, 38
1, 506977, Note_on_c, 0, 53, 69
1, 506979, Note_on_c, 0, 73, 79
1, 506994, Note_on_c, 0, 62, 46
1, 507028, Control_c, 0, 64, 98
1, 507043, Control_c, 0, 64, 79
1, 507058, Control_c, 0, 64, 64
1, 507073, Control_c, 0, 64, 0
1, 507079, Note_off_c, 0, 74, 49
1, 507102, Control_c, 0, 64, 55
1, 507117, Control_c, 0, 64, 63
1, 507133, Control_c, 0, 64, 67
1, 507148, Control_c, 0, 64, 70
1, 507163, Control_c, 0, 64, 72
1, 507168, Note_on_c, 0, 56, 66
1, 507178, Control_c, 0, 64, 75
1, 507193, Control_c, 0, 64, 78
1, 507207, Control_c, 0, 64, 82
1, 507222, Control_c, 0, 64, 86
1, 507237, Control_c, 0, 64, 89
1, 507251, Control_c, 0, 64, 92
1, 507255, Note_off_c, 0, 62, 36
1, 507266, Control_c, 0, 64, 95
1, 507281, Control_c, 0, 64, 99
1, 507296, Control_c, 0, 64, 106
1, 507311, Control_c, 0, 64, 112
1, 507318, Note_on_c, 0, 74, 82
1, 507325, Control_c, 0, 64, 117
1, 507326, Note_on_c, 0, 59, 58
1, 507336, Note_off_c, 0, 73, 64
1, 507340, Control_c, 0, 64, 126
1, 507355, Control_c, 0, 64, 127
1, 507407, Note_off_c, 0, 53, 61
1, 507444, Note_off_c, 0, 56, 64
1, 507446, Note_off_c, 0, 59, 61
1, 507464, Note_on_c, 0, 62, 73
1, 507488, Note_off_c, 0, 62, 67
1, 507641, Note_on_c, 0, 77, 68
1, 507643, Note_off_c, 0, 74, 63
1, 507671, Note_on_c, 0, 44, 54
1, 507688, Control_c, 0, 64, 123
1, 507698, Note_on_c, 0, 76, 69
1, 507703, Control_c, 0, 64, 108
1, 507718, Control_c, 0, 64, 97
1, 507732, Control_c, 0, 64, 85
1, 507747, Control_c, 0, 64, 72
1, 507762, Control_c, 0, 64, 56
1, 507777, Control_c, 0, 64, 0
1, 507791, Note_off_c, 0, 77, 37
1, 507920, Note_on_c, 0, 50, 55
1, 507926, Control_c, 0, 64, 21
1, 507941, Control_c, 0, 64, 41
1, 507956, Control_c, 0, 64, 54
1, 507971, Control_c, 0, 64, 62
1, 507985, Control_c, 0, 64, 64
1, 508000, Control_c, 0, 64, 66
1, 508015, Control_c, 0, 64, 68
1, 508030, Control_c, 0, 64, 70
1, 508045, Control_c, 0, 64, 73
1, 508060, Control_c, 0, 64, 76
1, 508074, Control_c, 0, 64, 79
1, 508089, Control_c, 0, 64, 81
1, 508104, Control_c, 0, 64, 84
1, 508114, Note_on_c, 0, 53, 47
1, 508117, Note_on_c, 0, 74, 64
1, 508119, Control_c, 0, 64, 86
1, 508134, Control_c, 0, 64, 89
1, 508148, Control_c, 0, 64, 92
1, 508163, Control_c, 0, 64, 95
1, 508167, Note_off_c, 0, 76, 48
1, 508177, Control_c, 0, 64, 98
1, 508192, Control_c, 0, 64, 101
1, 508207, Control_c, 0, 64, 105
1, 508221, Control_c, 0, 64, 111
1, 508236, Control_c, 0, 64, 122
1, 508245, Note_off_c, 0, 74, 60
1, 508251, Control_c, 0, 64, 127
1, 508315, Note_off_c, 0, 50, 56
1, 508320, Note_off_c, 0, 53, 63
1, 508332, Note_off_c, 0, 44, 42
1, 508334, Note_on_c, 0, 56, 54
1, 508409, Note_off_c, 0, 56, 61
1, 508600, Control_c, 0, 64, 101
1, 508601, Note_on_c, 0, 53, 95
1, 508603, Note_on_c, 0, 41, 79
1, 508604, Note_on_c, 0, 47, 77
1, 508605, Note_on_c, 0, 50, 85
1, 508610, Note_on_c, 0, 73, 93
1, 508611, Note_on_c, 0, 61, 87
1, 508614, Control_c, 0, 64, 66
1, 508629, Control_c, 0, 64, 0
1, 508644, Control_c, 0, 64, 11
1, 508659, Control_c, 0, 64, 60
1, 508673, Control_c, 0, 64, 67
1, 508688, Control_c, 0, 64, 77
1, 508703, Control_c, 0, 64, 91
1, 508718, Control_c, 0, 64, 118
1, 508734, Control_c, 0, 64, 127
1, 508781, Note_off_c, 0, 61, 61
1, 508798, Note_off_c, 0, 41, 61
1, 508808, Note_off_c, 0, 73, 59
1, 508841, Note_off_c, 0, 47, 65
1, 508846, Note_off_c, 0, 50, 65
1, 508859, Note_off_c, 0, 53, 67
1, 508878, Note_on_c, 0, 62, 88
1, 508878, Note_on_c, 0, 74, 103
1, 508896, Note_off_c, 0, 62, 72
1, 508924, Note_off_c, 0, 74, 71
1, 509122, Note_on_c, 0, 71, 74
1, 509126, Note_on_c, 0, 65, 68
1, 509127, Note_on_c, 0, 74, 87
1, 509127, Note_on_c, 0, 98, 90
1, 509130, Note_on_c, 0, 86, 93
1, 509131, Note_on_c, 0, 96, 88
1, 509138, Note_on_c, 0, 95, 71
1, 509163, Note_on_c, 0, 93, 53
1, 509164, Note_off_c, 0, 93, 127
1, 509172, Note_off_c, 0, 95, 0
1, 509172, Note_on_c, 0, 95, 36
1, 509175, Note_on_c, 0, 97, 23
1, 509192, Note_off_c, 0, 86, 60
1, 509205, Note_off_c, 0, 74, 60
1, 509205, Note_off_c, 0, 95, 65
1, 509211, Note_off_c, 0, 96, 61
1, 509212, Note_off_c, 0, 97, 50
1, 509216, Note_off_c, 0, 98, 65
1, 509223, Note_off_c, 0, 71, 60
1, 509233, Note_off_c, 0, 65, 61
1, 509334, Control_c, 0, 64, 93
1, 509336, Note_on_c, 0, 98, 98
1, 509339, Note_on_c, 0, 71, 88
1, 509339, Note_on_c, 0, 95, 91
1, 509340, Note_on_c, 0, 86, 94
1, 509342, Note_on_c, 0, 65, 79
1, 509345, Note_on_c, 0, 74, 98
1, 509349, Control_c, 0, 64, 68
1, 509364, Control_c, 0, 64, 56
1, 509378, Control_c, 0, 64, 67
1, 509393, Control_c, 0, 64, 74
1, 509408, Control_c, 0, 64, 82
1, 509423, Control_c, 0, 64, 94
1, 509437, Control_c, 0, 64, 110
1, 509447, Note_off_c, 0, 86, 64
1, 509449, Note_off_c, 0, 95, 61
1, 509452, Control_c, 0, 64, 127
1, 509458, Note_off_c, 0, 74, 59
1, 509601, Note_on_c, 0, 85, 97
1, 509601, Note_on_c, 0, 97, 98
1, 509608, Note_on_c, 0, 70, 79
1, 509608, Note_on_c, 0, 73, 94
1, 509608, Note_on_c, 0, 94, 77
1, 509618, Note_off_c, 0, 98, 38
1, 509631, Note_off_c, 0, 71, 62
1, 509637, Note_off_c, 0, 94, 59
1, 509649, Note_off_c, 0, 85, 63
1, 509672, Note_off_c, 0, 73, 59
1, 509672, Note_off_c, 0, 97, 64
1, 509678, Note_off_c, 0, 65, 63
1, 509679, Note_off_c, 0, 70, 62
1, 509799, Note_on_c, 0, 68, 81
1, 509806, Note_on_c, 0, 83, 100
1, 509807, Note_on_c, 0, 95, 98
1, 509807, Note_on_c, 0, 71, 83
1, 509810, Note_on_c, 0, 92, 91
1, 509810, Note_on_c, 0, 65, 69
1, 509855, Note_off_c, 0, 71, 64
1, 509857, Note_off_c, 0, 68, 59
1, 509867, Note_off_c, 0, 65, 59
1, 509872, Note_off_c, 0, 83, 58
1, 509899, Note_off_c, 0, 95, 61
1, 509903, Note_off_c, 0, 92, 64
1, 509965, Control_c, 0, 64, 81
1, 509980, Control_c, 0, 64, 62
1, 509987, Note_on_c, 0, 65, 69
1, 509987, Note_on_c, 0, 86, 74
1, 509993, Note_on_c, 0, 71, 82
1, 509995, Control_c, 0, 64, 63
1, 509995, Note_on_c, 0, 95, 110
1, 509997, Note_on_c, 0, 83, 93
1, 509998, Note_on_c, 0, 68, 74
1, 510009, Control_c, 0, 64, 70
1, 510024, Control_c, 0, 64, 77
1, 510039, Control_c, 0, 64, 83
1, 510053, Control_c, 0, 64, 93
1, 510068, Control_c, 0, 64, 103
1, 510083, Control_c, 0, 64, 113
1, 510085, Note_off_c, 0, 83, 65
1, 510098, Control_c, 0, 64, 127
1, 510109, Note_off_c, 0, 95, 60
1, 510183, Note_on_c, 0, 66, 66
1, 510188, Note_on_c, 0, 94, 98
1, 510188, Note_on_c, 0, 70, 82
1, 510190, Note_on_c, 0, 82, 95
1, 510200, Note_off_c, 0, 68, 55
1, 510202, Note_off_c, 0, 65, 53
1, 510207, Note_off_c, 0, 71, 62
1, 510210, Note_off_c, 0, 86, 62
1, 510246, Note_off_c, 0, 82, 60
1, 510254, Note_off_c, 0, 94, 67
1, 510324, Note_on_c, 0, 68, 71
1, 510342, Note_off_c, 0, 70, 61
1, 510346, Note_on_c, 0, 65, 70
1, 510359, Note_off_c, 0, 66, 59
1, 510367, Note_off_c, 0, 65, 71
1, 510370, Note_off_c, 0, 68, 59
1, 510379, Note_on_c, 0, 80, 85
1, 510379, Note_on_c, 0, 92, 95
1, 510388, Note_on_c, 0, 86, 42
1, 510403, Note_on_c, 0, 93, 71
1, 510408, Note_on_c, 0, 82, 61
1, 510433, Note_off_c, 0, 86, 43
1, 510434, Note_off_c, 0, 82, 51
1, 510445, Note_off_c, 0, 93, 39
1, 510472, Note_on_c, 0, 53, 77
1, 510481, Note_off_c, 0, 80, 60
1, 510491, Note_on_c, 0, 59, 75
1, 510501, Note_off_c, 0, 92, 60
1, 510550, Control_c, 0, 64, 83
1, 510564, Note_off_c, 0, 53, 67
1, 510565, Control_c, 0, 64, 0
1, 510599, Note_on_c, 0, 92, 106
1, 510600, Note_on_c, 0, 80, 92
1, 510609, Control_c, 0, 64, 55
1, 510612, Note_on_c, 0, 68, 88
1, 510624, Control_c, 0, 64, 68
1, 510639, Control_c, 0, 64, 77
1, 510654, Control_c, 0, 64, 87
1, 510655, Poly_aftertouch_c, 0, 86, 127
1, 510669, Control_c, 0, 64, 97
1, 510683, Control_c, 0, 64, 103
1, 510698, Control_c, 0, 64, 115
1, 510713, Control_c, 0, 64, 127
1, 510721, Note_off_c, 0, 80, 62
1, 510736, Note_off_c, 0, 68, 58
1, 510786, Note_off_c, 0, 92, 64
1, 510863, Note_on_c, 0, 58, 65
1, 510870, Note_on_c, 0, 90, 97
1, 510871, Note_on_c, 0, 78, 93
1, 510882, Note_on_c, 0, 66, 76
1, 510914, Poly_aftertouch_c, 0, 86, 0
1, 510921, Note_off_c, 0, 58, 61
1, 510962, Note_off_c, 0, 66, 62
1, 511003, Note_off_c, 0, 78, 59
1, 511007, Note_off_c, 0, 90, 63
1, 511111, Note_on_c, 0, 65, 81
1, 511123, Note_on_c, 0, 56, 69
1, 511130, Note_on_c, 0, 53, 76
1, 511133, Note_off_c, 0, 65, 72
1, 511145, Note_off_c, 0, 59, 60
1, 511157, Note_on_c, 0, 77, 87
1, 511160, Note_on_c, 0, 89, 106
1, 511160, Note_off_c, 0, 53, 68
1, 511166, Note_off_c, 0, 56, 64
1, 511181, Note_off_c, 0, 77, 64
1, 511198, Note_off_c, 0, 89, 68
1, 511362, Note_on_c, 0, 42, 76
1, 511379, Note_on_c, 0, 47, 65
1, 511447, Control_c, 0, 64, 80
1, 511462, Note_on_c, 0, 51, 82
1, 511462, Control_c, 0, 64, 0
1, 511518, Note_on_c, 0, 82, 44
1, 511525, Note_off_c, 0, 42, 51
1, 511542, Note_off_c, 0, 82, 35
1, 511551, Control_c, 0, 64, 63
1, 511560, Note_on_c, 0, 54, 89
1, 511561, Note_on_c, 0, 92, 99
1, 511565, Note_off_c, 0, 47, 65
1, 511566, Note_on_c, 0, 80, 90
1, 511566, Control_c, 0, 64, 76
1, 511580, Control_c, 0, 64, 92
1, 511589, Note_off_c, 0, 51, 66
1, 511590, Note_on_c, 0, 83, 10
1, 511595, Control_c, 0, 64, 123
1, 511596, Note_off_c, 0, 54, 65
1, 511601, Note_off_c, 0, 80, 62
1, 511610, Control_c, 0, 64, 127
1, 511619, Note_off_c, 0, 92, 68
1, 511642, Note_off_c, 0, 83, 53
1, 511654, Poly_aftertouch_c, 0, 87, 0
1, 511867, Note_on_c, 0, 54, 84
1, 512103, Note_on_c, 0, 90, 100
1, 512105, Note_on_c, 0, 87, 90
1, 512107, Note_on_c, 0, 78, 95
1, 512108, Note_on_c, 0, 83, 78
1, 512122, Note_on_c, 0, 59, 75
1, 512201, Note_off_c, 0, 54, 54
1, 512319, Note_on_c, 0, 63, 81
1, 512436, Note_off_c, 0, 78, 58
1, 512466, Note_off_c, 0, 90, 62
1, 512520, Note_off_c, 0, 59, 24
1, 512521, Note_off_c, 0, 83, 58
1, 512566, Note_on_c, 0, 71, 85
1, 512592, Note_off_c, 0, 87, 60
1, 512702, Note_off_c, 0, 63, 49
1, 512844, Note_on_c, 0, 87, 94
1, 512849, Note_on_c, 0, 75, 85
1, 512858, Note_off_c, 0, 71, 58
1, 512924, Note_off_c, 0, 75, 59
1, 512946, Note_off_c, 0, 87, 62
1, 513022, Note_on_c, 0, 63, 79
1, 513033, Note_on_c, 0, 54, 75
1, 513038, Note_on_c, 0, 75, 88
1, 513039, Note_on_c, 0, 87, 98
1, 513047, Note_off_c, 0, 63, 65
1, 513066, Note_off_c, 0, 54, 66
1, 513109, Note_off_c, 0, 75, 62
1, 513125, Note_off_c, 0, 87, 65
1, 513223, Note_on_c, 0, 83, 96
1, 513226, Note_on_c, 0, 71, 88
1, 513249, Note_off_c, 0, 71, 67
1, 513274, Note_on_c, 0, 42, 70
1, 513280, Note_off_c, 0, 83, 64
1, 513335, Note_on_c, 0, 49, 87
1, 513389, Control_c, 0, 64, 72
1, 513391, Note_off_c, 0, 42, 62
1, 513403, Control_c, 0, 64, 0
1, 513460, Poly_aftertouch_c, 0, 46, 127
1, 513461, Note_on_c, 0, 58, 84
1, 513462, Control_c, 0, 64, 51
1, 513470, Note_on_c, 0, 90, 100
1, 513474, Note_on_c, 0, 78, 95
1, 513477, Note_on_c, 0, 85, 42
1, 513477, Control_c, 0, 64, 71
1, 513487, Poly_aftertouch_c, 0, 46, 0
1, 513489, Note_off_c, 0, 49, 63
1, 513492, Control_c, 0, 64, 83
1, 513503, Note_off_c, 0, 78, 64
1, 513504, Note_off_c, 0, 85, 53
1, 513506, Note_off_c, 0, 58, 64
1, 513507, Control_c, 0, 64, 98
1, 513522, Note_off_c, 0, 90, 66
1, 513523, Control_c, 0, 64, 121
1, 513545, Control_c, 0, 64, 127
1, 513745, Note_on_c, 0, 54, 87
1, 513998, Note_on_c, 0, 58, 70
1, 514006, Note_on_c, 0, 76, 99
1, 514008, Note_on_c, 0, 85, 88
1, 514009, Note_on_c, 0, 88, 96
1, 514010, Note_on_c, 0, 82, 80
1, 514242, Note_on_c, 0, 61, 79
1, 514251, Note_off_c, 0, 54, 34
1, 514411, Note_off_c, 0, 58, 36
1, 514512, Note_off_c, 0, 76, 52
1, 514530, Note_on_c, 0, 70, 84
1, 514546, Note_off_c, 0, 88, 56
1, 514648, Note_off_c, 0, 82, 39
1, 514693, Note_off_c, 0, 85, 58
1, 514788, Note_off_c, 0, 61, 11
1, 514830, Note_off_c, 0, 70, 60
1, 514886, Note_on_c, 0, 85, 92
1, 514896, Note_on_c, 0, 73, 82
1, 514982, Note_off_c, 0, 73, 53
1, 515028, Note_off_c, 0, 85, 56
1, 515111, Note_on_c, 0, 64, 67
1, 515121, Note_on_c, 0, 54, 69
1, 515132, Note_on_c, 0, 85, 95
1, 515136, Note_on_c, 0, 73, 79
1, 515139, Note_off_c, 0, 64, 66
1, 515158, Note_off_c, 0, 54, 65
1, 515217, Note_off_c, 0, 73, 53
1, 515357, Note_on_c, 0, 82, 78
1, 515360, Note_on_c, 0, 70, 74
1, 515368, Note_off_c, 0, 85, 56
1, 515397, Note_on_c, 0, 83, 40
1, 515398, Control_c, 0, 64, 105
1, 515408, Note_on_c, 0, 42, 73
1, 515413, Control_c, 0, 64, 65
1, 515423, Note_off_c, 0, 83, 56
1, 515428, Control_c, 0, 64, 0
1, 515477, Note_off_c, 0, 82, 60
1, 515502, Control_c, 0, 64, 59
1, 515517, Control_c, 0, 64, 67
1, 515524, Note_on_c, 0, 49, 76
1, 515532, Control_c, 0, 64, 71
1, 515546, Control_c, 0, 64, 74
1, 515561, Control_c, 0, 64, 79
1, 515576, Control_c, 0, 64, 82
1, 515581, Note_off_c, 0, 42, 63
1, 515590, Control_c, 0, 64, 83
1, 515605, Control_c, 0, 64, 85
1, 515620, Control_c, 0, 64, 87
1, 515635, Control_c, 0, 64, 88
1, 515650, Control_c, 0, 64, 89
1, 515664, Control_c, 0, 64, 90
1, 515673, Note_on_c, 0, 78, 84
1, 515679, Control_c, 0, 64, 90
1, 515688, Note_on_c, 0, 58, 64
1, 515688, Note_off_c, 0, 70, 56
1, 515709, Control_c, 0, 64, 90
1, 515724, Control_c, 0, 64, 87
1, 515739, Control_c, 0, 64, 83
1, 515754, Control_c, 0, 64, 80
1, 515784, Control_c, 0, 64, 81
1, 515805, Control_c, 0, 64, 82
1, 515820, Control_c, 0, 64, 83
1, 515835, Control_c, 0, 64, 84
1, 515850, Control_c, 0, 64, 87
1, 515865, Control_c, 0, 64, 88
1, 515879, Control_c, 0, 64, 89
1, 515894, Control_c, 0, 64, 90
1, 515909, Control_c, 0, 64, 91
1, 515925, Control_c, 0, 64, 94
1, 515940, Control_c, 0, 64, 97
1, 515955, Control_c, 0, 64, 100
1, 515999, Control_c, 0, 64, 97
1, 516013, Control_c, 0, 64, 93
1, 516028, Control_c, 0, 64, 91
1, 516063, Note_on_c, 0, 76, 81
1, 516088, Control_c, 0, 64, 93
1, 516102, Control_c, 0, 64, 96
1, 516117, Control_c, 0, 64, 99
1, 516132, Control_c, 0, 64, 100
1, 516147, Control_c, 0, 64, 101
1, 516153, Note_off_c, 0, 78, 38
1, 516162, Control_c, 0, 64, 101
1, 516174, Note_off_c, 0, 58, 54
1, 516177, Control_c, 0, 64, 103
1, 516191, Note_off_c, 0, 49, 58
1, 516192, Control_c, 0, 64, 104
1, 516204, Note_off_c, 0, 76, 58
1, 516207, Control_c, 0, 64, 105
1, 516251, Control_c, 0, 64, 102
1, 516266, Control_c, 0, 64, 99
1, 516281, Control_c, 0, 64, 97
1, 516317, Note_on_c, 0, 73, 86
1, 516340, Control_c, 0, 64, 98
1, 516355, Control_c, 0, 64, 99
1, 516369, Control_c, 0, 64, 99
1, 516384, Control_c, 0, 64, 100
1, 516399, Control_c, 0, 64, 100
1, 516428, Control_c, 0, 64, 101
1, 516443, Control_c, 0, 64, 101
1, 516458, Control_c, 0, 64, 102
1, 516460, Note_off_c, 0, 73, 56
1, 516502, Control_c, 0, 64, 100
1, 516517, Control_c, 0, 64, 94
1, 516539, Control_c, 0, 64, 88
1, 516544, Note_on_c, 0, 70, 79
1, 516554, Control_c, 0, 64, 86
1, 516584, Control_c, 0, 64, 87
1, 516599, Control_c, 0, 64, 89
1, 516613, Control_c, 0, 64, 91
1, 516628, Control_c, 0, 64, 93
1, 516643, Control_c, 0, 64, 95
1, 516658, Control_c, 0, 64, 96
1, 516671, Note_off_c, 0, 70, 57
1, 516673, Control_c, 0, 64, 98
1, 516688, Control_c, 0, 64, 99
1, 516702, Control_c, 0, 64, 100
1, 516733, Control_c, 0, 64, 98
1, 516748, Control_c, 0, 64, 93
1, 516751, Note_on_c, 0, 66, 73
1, 516763, Control_c, 0, 64, 86
1, 516778, Control_c, 0, 64, 84
1, 516807, Control_c, 0, 64, 85
1, 516822, Control_c, 0, 64, 87
1, 516837, Control_c, 0, 64, 89
1, 516851, Control_c, 0, 64, 90
1, 516866, Control_c, 0, 64, 92
1, 516881, Control_c, 0, 64, 94
1, 516896, Control_c, 0, 64, 97
1, 516911, Control_c, 0, 64, 99
1, 516955, Control_c, 0, 64, 96
1, 516961, Note_on_c, 0, 64, 70
1, 516970, Control_c, 0, 64, 91
1, 516978, Note_off_c, 0, 66, 48
1, 516985, Control_c, 0, 64, 85
1, 517000, Control_c, 0, 64, 85
1, 517015, Control_c, 0, 64, 85
1, 517030, Control_c, 0, 64, 86
1, 517044, Control_c, 0, 64, 88
1, 517059, Control_c, 0, 64, 90
1, 517074, Control_c, 0, 64, 91
1, 517089, Control_c, 0, 64, 91
1, 517096, Note_off_c, 0, 64, 61
1, 517104, Control_c, 0, 64, 92
1, 517118, Control_c, 0, 64, 92
1, 517148, Control_c, 0, 64, 90
1, 517162, Control_c, 0, 64, 86
1, 517176, Note_on_c, 0, 61, 65
1, 517177, Control_c, 0, 64, 79
1, 517192, Control_c, 0, 64, 75
1, 517222, Control_c, 0, 64, 77
1, 517236, Control_c, 0, 64, 78
1, 517251, Control_c, 0, 64, 80
1, 517266, Control_c, 0, 64, 83
1, 517289, Control_c, 0, 64, 86
1, 517304, Control_c, 0, 64, 89
1, 517318, Control_c, 0, 64, 91
1, 517333, Control_c, 0, 64, 91
1, 517334, Note_off_c, 0, 61, 57
1, 517348, Control_c, 0, 64, 90
1, 517362, Control_c, 0, 64, 86
1, 517377, Control_c, 0, 64, 80
1, 517392, Control_c, 0, 64, 76
1, 517393, Note_on_c, 0, 58, 64
1, 517422, Control_c, 0, 64, 77
1, 517436, Control_c, 0, 64, 79
1, 517451, Control_c, 0, 64, 81
1, 517466, Control_c, 0, 64, 84
1, 517481, Control_c, 0, 64, 86
1, 517512, Control_c, 0, 64, 86
1, 517527, Control_c, 0, 64, 87
1, 517541, Control_c, 0, 64, 88
1, 517556, Control_c, 0, 64, 89
1, 517571, Control_c, 0, 64, 88
1, 517585, Control_c, 0, 64, 86
1, 517600, Control_c, 0, 64, 80
1, 517615, Control_c, 0, 64, 71
1, 517619, Note_on_c, 0, 54, 60
1, 517630, Control_c, 0, 64, 68
1, 517633, Note_off_c, 0, 58, 51
1, 517645, Control_c, 0, 64, 70
1, 517660, Control_c, 0, 64, 72
1, 517674, Control_c, 0, 64, 74
1, 517689, Control_c, 0, 64, 76
1, 517704, Control_c, 0, 64, 77
1, 517719, Control_c, 0, 64, 78
1, 517734, Control_c, 0, 64, 80
1, 517748, Control_c, 0, 64, 81
1, 517763, Control_c, 0, 64, 83
1, 517778, Control_c, 0, 64, 84
1, 517793, Control_c, 0, 64, 85
1, 517808, Control_c, 0, 64, 86
1, 517837, Control_c, 0, 64, 84
1, 517852, Control_c, 0, 64, 79
1, 517859, Note_on_c, 0, 52, 61
1, 517867, Control_c, 0, 64, 72
1, 517867, Control_c, 0, 67, 9
1, 517882, Control_c, 0, 64, 67
1, 517882, Control_c, 0, 67, 9
1, 517889, Note_off_c, 0, 54, 56
1, 517897, Control_c, 0, 64, 68
1, 517897, Control_c, 0, 67, 10
1, 517912, Control_c, 0, 64, 70
1, 517912, Control_c, 0, 67, 10
1, 517927, Control_c, 0, 64, 71
1, 517942, Control_c, 0, 64, 73
1, 517957, Control_c, 0, 64, 75
1, 517972, Control_c, 0, 64, 76
1, 517986, Control_c, 0, 64, 77
1, 518001, Control_c, 0, 64, 79
1, 518016, Note_off_c, 0, 52, 57
1, 518016, Control_c, 0, 64, 80
1, 518031, Control_c, 0, 64, 80
1, 518053, Control_c, 0, 64, 79
1, 518067, Control_c, 0, 64, 75
1, 518082, Control_c, 0, 64, 69
1, 518097, Control_c, 0, 64, 64
1, 518111, Note_on_c, 0, 49, 54
1, 518112, Control_c, 0, 64, 65
1, 518112, Control_c, 0, 67, 11
1, 518127, Control_c, 0, 64, 67
1, 518141, Control_c, 0, 64, 69
1, 518156, Control_c, 0, 64, 70
1, 518171, Control_c, 0, 64, 72
1, 518171, Control_c, 0, 67, 11
1, 518186, Control_c, 0, 64, 74
1, 518201, Control_c, 0, 64, 76
1, 518201, Control_c, 0, 67, 12
1, 518216, Control_c, 0, 64, 77
1, 518216, Control_c, 0, 67, 12
1, 518231, Control_c, 0, 64, 78
1, 518231, Control_c, 0, 67, 15
1, 518246, Control_c, 0, 64, 77
1, 518246, Control_c, 0, 67, 18
1, 518260, Control_c, 0, 64, 75
1, 518260, Control_c, 0, 67, 20
1, 518272, Note_off_c, 0, 49, 51
1, 518275, Control_c, 0, 64, 71
1, 518275, Control_c, 0, 67, 22
1, 518290, Control_c, 0, 64, 65
1, 518290, Control_c, 0, 67, 23
1, 518305, Control_c, 0, 67, 23
1, 518320, Control_c, 0, 64, 67
1, 518335, Control_c, 0, 64, 69
1, 518350, Control_c, 0, 64, 71
1, 518365, Control_c, 0, 64, 73
1, 518380, Control_c, 0, 64, 76
1, 518382, Note_on_c, 0, 46, 49
1, 518395, Control_c, 0, 64, 77
1, 518409, Control_c, 0, 64, 79
1, 518424, Control_c, 0, 64, 81
1, 518439, Control_c, 0, 64, 83
1, 518454, Control_c, 0, 64, 85
1, 518454, Control_c, 0, 67, 23
1, 518469, Control_c, 0, 64, 87
1, 518483, Control_c, 0, 64, 88
1, 518498, Control_c, 0, 64, 88
1, 518513, Note_off_c, 0, 46, 62
1, 518660, Control_c, 0, 64, 88
1, 518675, Control_c, 0, 64, 86
1, 518690, Control_c, 0, 64, 84
1, 518705, Control_c, 0, 64, 79
1, 518710, Note_on_c, 0, 42, 46
1, 518720, Control_c, 0, 64, 72
1, 518734, Control_c, 0, 64, 66
1, 518749, Control_c, 0, 64, 66
1, 518764, Control_c, 0, 64, 67
1, 518779, Control_c, 0, 64, 68
1, 518801, Control_c, 0, 64, 69
1, 518815, Control_c, 0, 64, 70
1, 518830, Control_c, 0, 64, 72
1, 518845, Control_c, 0, 64, 74
1, 518860, Control_c, 0, 64, 76
1, 518875, Control_c, 0, 64, 77
1, 518890, Control_c, 0, 64, 78
1, 518905, Control_c, 0, 64, 79
1, 518919, Control_c, 0, 64, 81
1, 518934, Control_c, 0, 64, 83
1, 518934, Control_c, 0, 67, 23
1, 518949, Control_c, 0, 64, 85
1, 518964, Control_c, 0, 64, 86
1, 518979, Control_c, 0, 64, 87
1, 518994, Control_c, 0, 64, 88
1, 519017, Note_off_c, 0, 42, 36
1, 519082, Control_c, 0, 64, 87
1, 519082, Control_c, 0, 67, 24
1, 519097, Control_c, 0, 64, 86
1, 519113, Control_c, 0, 64, 83
1, 519128, Note_on_c, 0, 40, 49
1, 519128, Control_c, 0, 64, 77
1, 519143, Control_c, 0, 64, 68
1, 519143, Control_c, 0, 67, 24
1, 519158, Control_c, 0, 64, 59
1, 519173, Control_c, 0, 64, 60
1, 519187, Control_c, 0, 64, 63
1, 519202, Control_c, 0, 64, 63
1, 519217, Control_c, 0, 64, 64
1, 519217, Control_c, 0, 67, 24
1, 519231, Control_c, 0, 64, 66
1, 519246, Control_c, 0, 64, 67
1, 519261, Control_c, 0, 64, 69
1, 519276, Control_c, 0, 64, 71
1, 519291, Control_c, 0, 64, 72
1, 519305, Control_c, 0, 64, 73
1, 519320, Control_c, 0, 64, 75
1, 519335, Control_c, 0, 64, 77
1, 519350, Control_c, 0, 64, 81
1, 519364, Control_c, 0, 64, 84
1, 519379, Control_c, 0, 64, 85
1, 519394, Control_c, 0, 64, 86
1, 519408, Note_off_c, 0, 40, 34
1, 519409, Control_c, 0, 64, 87
1, 519424, Control_c, 0, 64, 87
1, 519535, Control_c, 0, 64, 87
1, 519535, Control_c, 0, 67, 24
1, 519550, Control_c, 0, 64, 86
1, 519564, Control_c, 0, 64, 84
1, 519579, Control_c, 0, 64, 81
1, 519579, Control_c, 0, 67, 25
1, 519594, Control_c, 0, 64, 75
1, 519609, Control_c, 0, 64, 67
1, 519624, Control_c, 0, 64, 50
1, 519635, Note_on_c, 0, 37, 44
1, 519638, Control_c, 0, 64, 40
1, 519653, Control_c, 0, 64, 52
1, 519668, Control_c, 0, 64, 58
1, 519683, Control_c, 0, 64, 62
1, 519698, Control_c, 0, 64, 64
1, 519712, Control_c, 0, 64, 66
1, 519727, Control_c, 0, 64, 68
1, 519742, Control_c, 0, 64, 70
1, 519757, Control_c, 0, 64, 73
1, 519772, Control_c, 0, 64, 75
1, 519772, Control_c, 0, 67, 25
1, 519787, Control_c, 0, 64, 76
1, 519787, Control_c, 0, 67, 28
1, 519802, Control_c, 0, 64, 78
1, 519802, Control_c, 0, 67, 32
1, 519817, Control_c, 0, 64, 79
1, 519817, Control_c, 0, 67, 35
1, 519832, Control_c, 0, 64, 81
1, 519832, Control_c, 0, 67, 38
1, 519846, Control_c, 0, 64, 84
1, 519846, Control_c, 0, 67, 41
1, 519861, Control_c, 0, 64, 87
1, 519861, Control_c, 0, 67, 43
1, 519876, Control_c, 0, 64, 88
1, 519876, Control_c, 0, 67, 44
1, 519891, Control_c, 0, 64, 88
1, 519891, Control_c, 0, 67, 45
1, 519894, Note_off_c, 0, 37, 40
1, 519906, Control_c, 0, 64, 89
1, 519906, Control_c, 0, 67, 45
1, 519921, Control_c, 0, 64, 90
1, 519921, Control_c, 0, 67, 46
1, 519936, Control_c, 0, 64, 90
1, 519936, Control_c, 0, 67, 46
1, 519951, Control_c, 0, 67, 47
1, 519980, Control_c, 0, 67, 47
1, 520099, Control_c, 0, 67, 48
1, 520261, Control_c, 0, 67, 48
1, 520358, Control_c, 0, 64, 90
1, 520373, Control_c, 0, 64, 89
1, 520387, Control_c, 0, 64, 89
1, 520402, Control_c, 0, 67, 49
1, 520417, Control_c, 0, 64, 88
1, 520432, Note_on_c, 0, 34, 38
1, 520432, Control_c, 0, 64, 87
1, 520447, Control_c, 0, 64, 85
1, 520461, Control_c, 0, 64, 82
1, 520461, Control_c, 0, 67, 49
1, 520476, Control_c, 0, 64, 78
1, 520476, Control_c, 0, 67, 52
1, 520491, Control_c, 0, 64, 73
1, 520491, Control_c, 0, 67, 53
1, 520506, Control_c, 0, 64, 65
1, 520506, Control_c, 0, 67, 54
1, 520520, Control_c, 0, 64, 55
1, 520520, Control_c, 0, 67, 56
1, 520535, Control_c, 0, 64, 40
1, 520535, Control_c, 0, 67, 57
1, 520550, Control_c, 0, 64, 39
1, 520550, Control_c, 0, 67, 57
1, 520565, Control_c, 0, 67, 58
1, 520580, Control_c, 0, 64, 40
1, 520580, Control_c, 0, 67, 59
1, 520595, Control_c, 0, 64, 40
1, 520595, Control_c, 0, 67, 60
1, 520610, Control_c, 0, 64, 42
1, 520610, Control_c, 0, 67, 61
1, 520625, Control_c, 0, 64, 44
1, 520625, Control_c, 0, 67, 63
1, 520639, Control_c, 0, 64, 47
1, 520639, Control_c, 0, 67, 65
1, 520654, Control_c, 0, 64, 51
1, 520654, Control_c, 0, 67, 65
1, 520669, Control_c, 0, 64, 53
1, 520669, Control_c, 0, 67, 66
1, 520684, Control_c, 0, 64, 55
1, 520684, Control_c, 0, 67, 68
1, 520699, Control_c, 0, 64, 57
1, 520699, Control_c, 0, 67, 69
1, 520714, Control_c, 0, 64, 59
1, 520714, Control_c, 0, 67, 70
1, 520729, Control_c, 0, 64, 61
1, 520729, Control_c, 0, 67, 71
1, 520744, Control_c, 0, 64, 63
1, 520744, Control_c, 0, 67, 72
1, 520759, Control_c, 0, 64, 64
1, 520759, Control_c, 0, 67, 73
1, 520774, Control_c, 0, 64, 65
1, 520774, Control_c, 0, 67, 75
1, 520788, Control_c, 0, 64, 67
1, 520788, Control_c, 0, 67, 76
1, 520803, Control_c, 0, 64, 68
1, 520803, Control_c, 0, 67, 77
1, 520818, Control_c, 0, 64, 69
1, 520818, Control_c, 0, 67, 78
1, 520833, Control_c, 0, 64, 71
1, 520833, Control_c, 0, 67, 80
1, 520848, Control_c, 0, 64, 73
1, 520848, Control_c, 0, 67, 81
1, 520863, Control_c, 0, 64, 75
1, 520863, Control_c, 0, 67, 81
1, 520877, Control_c, 0, 64, 77
1, 520877, Control_c, 0, 67, 82
1, 520892, Control_c, 0, 64, 79
1, 520892, Control_c, 0, 67, 82
1, 520907, Control_c, 0, 64, 80
1, 520907, Control_c, 0, 67, 83
1, 520922, Control_c, 0, 64, 83
1, 520937, Control_c, 0, 64, 85
1, 520937, Control_c, 0, 67, 83
1, 520951, Control_c, 0, 64, 87
1, 520966, Control_c, 0, 64, 90
1, 520981, Control_c, 0, 64, 92
1, 520996, Control_c, 0, 64, 94
1, 521010, Control_c, 0, 64, 95
1, 521033, Control_c, 0, 64, 97
1, 521048, Control_c, 0, 64, 98
1, 521063, Control_c, 0, 64, 99
1, 521078, Control_c, 0, 64, 101
1, 521092, Control_c, 0, 64, 101
1, 521122, Control_c, 0, 64, 102
1, 521151, Control_c, 0, 67, 84
1, 521204, Note_off_c, 0, 34, 29
1, 521225, Control_c, 0, 67, 84
1, 521270, Control_c, 0, 67, 85
1, 521284, Control_c, 0, 64, 102
1, 521299, Control_c, 0, 67, 85
1, 521314, Control_c, 0, 67, 88
1, 521329, Control_c, 0, 67, 89
1, 521343, Control_c, 0, 67, 90
1, 521358, Control_c, 0, 67, 91
1, 521373, Control_c, 0, 67, 91
1, 521417, Control_c, 0, 67, 92
1, 521782, Control_c, 0, 64, 102
1, 521827, Control_c, 0, 67, 92
1, 521901, Control_c, 0, 64, 101
1, 521915, Control_c, 0, 64, 101
1, 521930, Control_c, 0, 64, 100
1, 521945, Control_c, 0, 64, 100
1, 521960, Control_c, 0, 64, 99
1, 521975, Control_c, 0, 64, 98
1, 521990, Control_c, 0, 64, 98
1, 521990, Control_c, 0, 67, 93
1, 522005, Control_c, 0, 64, 96
1, 522007, Note_on_c, 0, 31, 36
1, 522020, Control_c, 0, 64, 95
1, 522034, Control_c, 0, 64, 92
1, 522049, Control_c, 0, 64, 89
1, 522064, Control_c, 0, 64, 86
1, 522079, Control_c, 0, 64, 82
1, 522079, Control_c, 0, 67, 93
1, 522094, Control_c, 0, 64, 77
1, 522108, Control_c, 0, 64, 70
1, 522108, Control_c, 0, 67, 95
1, 522123, Control_c, 0, 64, 59
1, 522123, Control_c, 0, 67, 97
1, 522138, Control_c, 0, 64, 34
1, 522138, Control_c, 0, 67, 99
1, 522152, Control_c, 0, 64, 28
1, 522152, Control_c, 0, 67, 101
1, 522167, Control_c, 0, 67, 102
1, 522182, Control_c, 0, 67, 103
1, 522197, Control_c, 0, 67, 104
1, 522212, Control_c, 0, 64, 29
1, 522212, Control_c, 0, 67, 105
1, 522226, Control_c, 0, 64, 34
1, 522226, Control_c, 0, 67, 106
1, 522241, Control_c, 0, 64, 41
1, 522241, Control_c, 0, 67, 107
1, 522256, Control_c, 0, 64, 47
1, 522256, Control_c, 0, 67, 109
1, 522271, Control_c, 0, 64, 51
1, 522271, Control_c, 0, 67, 110
1, 522286, Control_c, 0, 64, 55
1, 522286, Control_c, 0, 67, 111
1, 522301, Control_c, 0, 64, 58
1, 522301, Control_c, 0, 67, 112
1, 522317, Control_c, 0, 64, 61
1, 522317, Control_c, 0, 67, 113
1, 522331, Control_c, 0, 64, 64
1, 522331, Control_c, 0, 67, 115
1, 522346, Control_c, 0, 64, 65
1, 522346, Control_c, 0, 67, 116
1, 522361, Control_c, 0, 64, 67
1, 522361, Control_c, 0, 67, 118
1, 522376, Control_c, 0, 64, 68
1, 522376, Control_c, 0, 67, 120
1, 522390, Control_c, 0, 64, 70
1, 522390, Control_c, 0, 67, 122
1, 522405, Control_c, 0, 64, 73
1, 522405, Control_c, 0, 67, 124
1, 522420, Control_c, 0, 64, 75
1, 522420, Control_c, 0, 67, 125
1, 522435, Control_c, 0, 64, 77
1, 522435, Control_c, 0, 67, 127
1, 522450, Control_c, 0, 64, 79
1, 522450, Control_c, 0, 67, 127
1, 522464, Control_c, 0, 64, 81
1, 522479, Control_c, 0, 64, 84
1, 522494, Control_c, 0, 64, 87
1, 522509, Control_c, 0, 64, 89
1, 522524, Control_c, 0, 64, 91
1, 522546, Control_c, 0, 64, 93
1, 522561, Control_c, 0, 64, 95
1, 522576, Control_c, 0, 64, 97
1, 522590, Control_c, 0, 64, 98
1, 522605, Control_c, 0, 64, 99
1, 522620, Control_c, 0, 64, 99
1, 522650, Control_c, 0, 64, 100
1, 522679, Control_c, 0, 64, 100
1, 522864, Note_off_c, 0, 31, 31
1, 524191, Control_c, 0, 64, 100
1, 524235, Control_c, 0, 64, 99
1, 524250, Control_c, 0, 64, 99
1, 524265, Control_c, 0, 64, 98
1, 524273, Note_on_c, 0, 30, 32
1, 524280, Control_c, 0, 64, 98
1, 524295, Control_c, 0, 64, 97
1, 524309, Control_c, 0, 64, 96
1, 524324, Control_c, 0, 64, 95
1, 524339, Control_c, 0, 64, 93
1, 524354, Control_c, 0, 64, 90
1, 524369, Control_c, 0, 64, 87
1, 524383, Control_c, 0, 64, 83
1, 524398, Control_c, 0, 64, 77
1, 524413, Control_c, 0, 64, 69
1, 524428, Control_c, 0, 64, 58
1, 524443, Control_c, 0, 64, 0
1, 524711, Control_c, 0, 64, 26
1, 524726, Control_c, 0, 64, 40
1, 524741, Control_c, 0, 64, 51
1, 524756, Control_c, 0, 64, 58
1, 524777, Control_c, 0, 64, 62
1, 524792, Control_c, 0, 64, 64
1, 524807, Control_c, 0, 64, 66
1, 524822, Control_c, 0, 64, 67
1, 524837, Control_c, 0, 64, 69
1, 524851, Control_c, 0, 64, 71
1, 524866, Control_c, 0, 64, 73
1, 524881, Control_c, 0, 64, 75
1, 524896, Control_c, 0, 64, 76
1, 524911, Control_c, 0, 64, 78
1, 524926, Control_c, 0, 64, 80
1, 524941, Control_c, 0, 64, 82
1, 524956, Control_c, 0, 64, 84
1, 524971, Control_c, 0, 64, 86
1, 524985, Control_c, 0, 64, 88
1, 525000, Control_c, 0, 64, 89
1, 525015, Control_c, 0, 64, 91
1, 525030, Control_c, 0, 64, 92
1, 525045, Control_c, 0, 64, 93
1, 525059, Control_c, 0, 64, 95
1, 525074, Control_c, 0, 64, 96
1, 525089, Control_c, 0, 64, 97
1, 525103, Control_c, 0, 64, 97
1, 525133, Control_c, 0, 64, 98
1, 525148, Control_c, 0, 64, 99
1, 525163, Control_c, 0, 64, 99
1, 525177, Control_c, 0, 64, 100
1, 527482, Control_c, 0, 64, 99
1, 527541, Control_c, 0, 64, 99
1, 527645, Control_c, 0, 64, 98
1, 527786, Control_c, 0, 64, 98
1, 527860, Control_c, 0, 64, 97
1, 527939, Note_off_c, 0, 30, 24
1, 527980, Control_c, 0, 64, 97
1, 528098, Control_c, 0, 64, 96
1, 528127, Control_c, 0, 64, 96
1, 528172, Control_c, 0, 64, 95
1, 528202, Control_c, 0, 64, 95
1, 528247, Control_c, 0, 64, 94
1, 528262, Control_c, 0, 64, 94
1, 528276, Control_c, 0, 64, 93
1, 528306, Control_c, 0, 64, 93
1, 528335, Control_c, 0, 64, 92
1, 528365, Control_c, 0, 64, 92
1, 528380, Control_c, 0, 64, 91
1, 528394, Control_c, 0, 64, 91
1, 528409, Control_c, 0, 64, 90
1, 528454, Control_c, 0, 64, 90
1, 528468, Control_c, 0, 64, 89
1, 528498, Control_c, 0, 64, 89
1, 528535, Control_c, 0, 64, 88
1, 528565, Control_c, 0, 64, 88
1, 528580, Control_c, 0, 64, 87
1, 528609, Control_c, 0, 64, 87
1, 528639, Control_c, 0, 64, 86
1, 528654, Control_c, 0, 64, 86
1, 528668, Control_c, 0, 64, 85
1, 528683, Control_c, 0, 64, 85
1, 528699, Control_c, 0, 64, 84
1, 528729, Control_c, 0, 64, 84
1, 528743, Control_c, 0, 64, 83
1, 528758, Control_c, 0, 64, 83
1, 528773, Control_c, 0, 64, 82
1, 528788, Control_c, 0, 64, 81
1, 528818, Control_c, 0, 64, 81
1, 528832, Control_c, 0, 64, 80
1, 528847, Control_c, 0, 64, 79
1, 528862, Control_c, 0, 64, 79
1, 528906, Control_c, 0, 64, 78
1, 528936, Control_c, 0, 64, 78
1, 528965, Control_c, 0, 64, 77
1, 528980, Control_c, 0, 64, 77
1, 528995, Control_c, 0, 64, 76
1, 529010, Control_c, 0, 64, 75
1, 529025, Control_c, 0, 64, 74
1, 529040, Control_c, 0, 64, 73
1, 529055, Control_c, 0, 64, 72
1, 529069, Control_c, 0, 64, 70
1, 529084, Control_c, 0, 64, 69
1, 529099, Control_c, 0, 64, 69
1, 529142, Control_c, 0, 64, 68
1, 529187, Control_c, 0, 64, 68
1, 529216, Control_c, 0, 64, 67
1, 529231, Control_c, 0, 64, 67
1, 529246, Control_c, 0, 64, 66
1, 529261, Control_c, 0, 64, 66
1, 529283, Control_c, 0, 64, 65
1, 529298, Control_c, 0, 64, 65
1, 529313, Control_c, 0, 64, 64
1, 529328, Control_c, 0, 64, 64
1, 529357, Control_c, 0, 64, 63
1, 529387, Control_c, 0, 64, 62
1, 529402, Control_c, 0, 64, 61
1, 529416, Control_c, 0, 64, 61
1, 529446, Control_c, 0, 64, 60
1, 529461, Control_c, 0, 64, 60
1, 529475, Control_c, 0, 64, 58
1, 529492, Control_c, 0, 64, 57
1, 529521, Control_c, 0, 64, 57
1, 529536, Control_c, 0, 64, 56
1, 529551, Control_c, 0, 64, 53
1, 529565, Control_c, 0, 64, 47
1, 529580, Control_c, 0, 64, 40
1, 529595, Control_c, 0, 64, 30
1, 529610, Control_c, 0, 64, 0
1, 529743, Control_c, 0, 67, 127
1, 529773, Control_c, 0, 67, 126
1, 529803, Control_c, 0, 67, 126
1, 529810, Note_on_c, 0, 47, 42
1, 529816, Note_on_c, 0, 35, 31
1, 529817, Note_on_c, 0, 59, 44
1, 529818, Control_c, 0, 67, 125
1, 529833, Control_c, 0, 67, 125
1, 529839, Note_off_c, 0, 47, 51
1, 529844, Note_off_c, 0, 59, 53
1, 529854, Note_off_c, 0, 35, 50
1, 529921, Control_c, 0, 67, 124
1, 529934, Note_on_c, 0, 49, 56
1, 529936, Control_c, 0, 67, 121
1, 529937, Note_on_c, 0, 37, 45
1, 529945, Note_on_c, 0, 61, 50
1, 529951, Control_c, 0, 67, 119
1, 529960, Note_off_c, 0, 49, 62
1, 529965, Control_c, 0, 67, 119
1, 529967, Note_off_c, 0, 37, 58
1, 529971, Note_off_c, 0, 61, 58
1, 529980, Control_c, 0, 67, 118
1, 529995, Control_c, 0, 67, 117
1, 530010, Control_c, 0, 67, 115
1, 530032, Control_c, 0, 67, 112
1, 530047, Control_c, 0, 67, 109
1, 530062, Control_c, 0, 67, 104
1, 530068, Note_on_c, 0, 50, 36
1, 530068, Note_on_c, 0, 62, 51
1, 530070, Note_on_c, 0, 38, 48
1, 530077, Control_c, 0, 67, 98
1, 530092, Control_c, 0, 67, 90
1, 530092, Note_off_c, 0, 62, 57
1, 530098, Note_off_c, 0, 38, 57
1, 530104, Note_off_c, 0, 50, 54
1, 530106, Control_c, 0, 67, 80
1, 530121, Control_c, 0, 67, 70
1, 530136, Control_c, 0, 67, 62
1, 530151, Control_c, 0, 67, 58
1, 530166, Control_c, 0, 67, 56
1, 530180, Control_c, 0, 67, 54
1, 530195, Control_c, 0, 67, 51
1, 530197, Note_on_c, 0, 34, 57
1, 530198, Note_on_c, 0, 46, 58
1, 530208, Note_on_c, 0, 58, 55
1, 530210, Control_c, 0, 67, 48
1, 530224, Note_off_c, 0, 46, 59
1, 530225, Control_c, 0, 67, 46
1, 530231, Note_off_c, 0, 34, 63
1, 530233, Note_off_c, 0, 58, 63
1, 530239, Control_c, 0, 67, 46
1, 530254, Control_c, 0, 67, 45
1, 530284, Control_c, 0, 67, 45
1, 530300, Control_c, 0, 67, 44
1, 530314, Control_c, 0, 67, 43
1, 530329, Control_c, 0, 67, 41
1, 530344, Control_c, 0, 67, 39
1, 530359, Control_c, 0, 67, 38
1, 530374, Control_c, 0, 67, 37
1, 530388, Control_c, 0, 67, 36
1, 530403, Control_c, 0, 67, 35
1, 530418, Control_c, 0, 67, 34
1, 530433, Control_c, 0, 67, 33
1, 530448, Control_c, 0, 67, 31
1, 530462, Control_c, 0, 67, 30
1, 530477, Control_c, 0, 67, 28
1, 530492, Control_c, 0, 67, 27
1, 530507, Control_c, 0, 67, 25
1, 530521, Control_c, 0, 67, 24
1, 530536, Control_c, 0, 67, 23
1, 530551, Control_c, 0, 67, 22
1, 530566, Control_c, 0, 67, 21
1, 530581, Control_c, 0, 67, 20
1, 530596, Control_c, 0, 67, 20
1, 530625, Control_c, 0, 67, 19
1, 530641, Control_c, 0, 67, 19
1, 530649, Note_on_c, 0, 79, 60
1, 530652, Note_on_c, 0, 76, 48
1, 530654, Note_on_c, 0, 61, 53
1, 530656, Control_c, 0, 67, 18
1, 530670, Control_c, 0, 67, 17
1, 530676, Note_off_c, 0, 76, 57
1, 530679, Note_off_c, 0, 61, 59
1, 530681, Note_off_c, 0, 79, 61
1, 530685, Control_c, 0, 67, 16
1, 530700, Control_c, 0, 67, 15
1, 530715, Control_c, 0, 67, 14
1, 530730, Control_c, 0, 67, 13
1, 530745, Control_c, 0, 67, 13
1, 530776, Note_on_c, 0, 78, 65
1, 530778, Note_on_c, 0, 62, 55
1, 530794, Note_on_c, 0, 74, 49
1, 530813, Note_off_c, 0, 62, 61
1, 530814, Note_off_c, 0, 78, 55
1, 530818, Note_off_c, 0, 74, 61
1, 530841, Control_c, 0, 67, 12
1, 530893, Note_on_c, 0, 76, 73
1, 530909, Note_on_c, 0, 64, 50
1, 530929, Note_off_c, 0, 76, 55
1, 530932, Note_off_c, 0, 64, 60
1, 530944, Control_c, 0, 67, 12
1, 531004, Control_c, 0, 67, 11
1, 531028, Note_on_c, 0, 85, 78
1, 531034, Control_c, 0, 67, 11
1, 531037, Note_on_c, 0, 58, 50
1, 531044, Note_on_c, 0, 76, 51
1, 531048, Control_c, 0, 67, 9
1, 531063, Control_c, 0, 67, 0
1, 531070, Note_off_c, 0, 76, 59
1, 531070, Note_off_c, 0, 58, 63
1, 531076, Note_off_c, 0, 85, 58
1, 531466, Note_on_c, 0, 49, 65
1, 531473, Note_on_c, 0, 61, 65
1, 531479, Note_on_c, 0, 37, 46
1, 531496, Note_off_c, 0, 49, 65
1, 531498, Note_off_c, 0, 61, 66
1, 531521, Note_off_c, 0, 37, 58
1, 531595, Note_on_c, 0, 62, 76
1, 531604, Note_on_c, 0, 50, 57
1, 531606, Note_on_c, 0, 38, 56
1, 531621, Note_off_c, 0, 62, 64
1, 531633, Note_off_c, 0, 38, 57
1, 531633, Note_off_c, 0, 50, 65
1, 531715, Note_on_c, 0, 52, 66
1, 531725, Note_on_c, 0, 40, 57
1, 531726, Note_on_c, 0, 64, 60
1, 531741, Note_off_c, 0, 52, 65
1, 531746, Note_off_c, 0, 64, 64
1, 531752, Note_off_c, 0, 40, 58
1, 531864, Note_on_c, 0, 59, 59
1, 531866, Note_on_c, 0, 47, 57
1, 531869, Note_on_c, 0, 35, 52
1, 531893, Note_off_c, 0, 47, 61
1, 531893, Note_off_c, 0, 59, 65
1, 531901, Note_off_c, 0, 35, 57
1, 532331, Note_on_c, 0, 83, 66
1, 532339, Note_on_c, 0, 79, 55
1, 532348, Note_on_c, 0, 64, 42
1, 532360, Note_off_c, 0, 79, 62
1, 532372, Note_off_c, 0, 83, 59
1, 532377, Note_off_c, 0, 64, 58
1, 532456, Note_on_c, 0, 81, 76
1, 532464, Note_on_c, 0, 66, 62
1, 532475, Note_on_c, 0, 78, 53
1, 532487, Note_off_c, 0, 81, 58
1, 532492, Note_off_c, 0, 66, 63
1, 532495, Note_off_c, 0, 78, 62
1, 532579, Note_on_c, 0, 67, 63
1, 532590, Note_on_c, 0, 79, 78
1, 532608, Note_off_c, 0, 67, 65
1, 532611, Note_on_c, 0, 76, 42
1, 532617, Note_off_c, 0, 79, 60
1, 532641, Note_off_c, 0, 76, 53
1, 532739, Note_on_c, 0, 88, 72
1, 532753, Note_on_c, 0, 59, 42
1, 532770, Note_off_c, 0, 88, 63
1, 532782, Note_off_c, 0, 59, 60
1, 533181, Note_on_c, 0, 60, 101
1, 533183, Note_on_c, 0, 36, 88
1, 533186, Note_on_c, 0, 43, 89
1, 533206, Control_c, 0, 64, 65
1, 533211, Note_off_c, 0, 60, 71
1, 533221, Control_c, 0, 64, 83
1, 533235, Control_c, 0, 64, 101
1, 533242, Note_off_c, 0, 43, 60
1, 533250, Control_c, 0, 64, 112
1, 533265, Control_c, 0, 64, 113
1, 533272, Note_off_c, 0, 36, 56
1, 533324, Control_c, 0, 64, 112
1, 533329, Note_on_c, 0, 31, 74
1, 533334, Note_on_c, 0, 55, 83
1, 533339, Control_c, 0, 64, 108
1, 533354, Control_c, 0, 64, 103
1, 533369, Control_c, 0, 64, 95
1, 533373, Note_on_c, 0, 60, 81
1, 533379, Note_off_c, 0, 55, 65
1, 533384, Note_off_c, 0, 31, 56
1, 533384, Control_c, 0, 64, 84
1, 533388, Note_on_c, 0, 36, 70
1, 533392, Note_on_c, 0, 43, 74
1, 533398, Control_c, 0, 64, 69
1, 533413, Control_c, 0, 64, 0
1, 533442, Note_on_c, 0, 55, 88
1, 533445, Note_on_c, 0, 31, 68
1, 533448, Note_off_c, 0, 60, 66
1, 533449, Note_off_c, 0, 43, 61
1, 533454, Note_off_c, 0, 36, 62
1, 533470, Note_off_c, 0, 55, 64
1, 533487, Note_off_c, 0, 31, 59
1, 533574, Note_on_c, 0, 60, 90
1, 533577, Note_on_c, 0, 36, 71
1, 533578, Note_on_c, 0, 43, 75
1, 533606, Note_off_c, 0, 60, 68
1, 533609, Note_off_c, 0, 43, 65
1, 533616, Note_off_c, 0, 36, 59
1, 533705, Note_on_c, 0, 31, 71
1, 533707, Note_on_c, 0, 55, 92
1, 533749, Note_off_c, 0, 55, 65
1, 533814, Note_off_c, 0, 31, 61
1, 533825, Note_on_c, 0, 36, 66
1, 533831, Note_on_c, 0, 43, 71
1, 533835, Note_on_c, 0, 60, 90
1, 533857, Note_off_c, 0, 36, 62
1, 533860, Note_off_c, 0, 60, 66
1, 533862, Note_off_c, 0, 43, 65
1, 533957, Note_on_c, 0, 49, 70
1, 533961, Note_on_c, 0, 55, 83
1, 533967, Note_on_c, 0, 76, 100
1, 533973, Note_on_c, 0, 72, 90
1, 533980, Note_on_c, 0, 48, 57
1, 533984, Control_c, 0, 64, 45
1, 533988, Note_off_c, 0, 55, 68
1, 533989, Note_off_c, 0, 72, 75
1, 533999, Control_c, 0, 64, 63
1, 534000, Note_off_c, 0, 76, 66
1, 534004, Note_off_c, 0, 48, 59
1, 534006, Note_off_c, 0, 49, 62
1, 534013, Control_c, 0, 64, 66
1, 534028, Control_c, 0, 64, 66
1, 534043, Control_c, 0, 64, 67
1, 534072, Control_c, 0, 64, 66
1, 534087, Control_c, 0, 64, 66
1, 534104, Note_on_c, 0, 43, 80
1, 534108, Note_on_c, 0, 74, 79
1, 534117, Control_c, 0, 64, 65
1, 534121, Note_on_c, 0, 72, 57
1, 534131, Control_c, 0, 64, 65
1, 534134, Note_on_c, 0, 77, 66
1, 534135, Note_on_c, 0, 76, 66
1, 534146, Control_c, 0, 64, 63
1, 534153, Note_off_c, 0, 43, 63
1, 534155, Note_on_c, 0, 48, 71
1, 534156, Note_on_c, 0, 55, 90
1, 534161, Control_c, 0, 64, 41
1, 534176, Control_c, 0, 64, 0
1, 534202, Note_on_c, 0, 71, 82
1, 534205, Note_off_c, 0, 55, 63
1, 534206, Note_off_c, 0, 72, 65
1, 534211, Note_off_c, 0, 77, 63
1, 534215, Note_on_c, 0, 43, 78
1, 534220, Note_off_c, 0, 76, 62
1, 534222, Note_off_c, 0, 48, 64
1, 534229, Note_off_c, 0, 74, 69
1, 534238, Note_off_c, 0, 71, 66
1, 534250, Note_off_c, 0, 43, 65
1, 534332, Note_on_c, 0, 76, 96
1, 534333, Note_on_c, 0, 72, 91
1, 534336, Note_on_c, 0, 55, 89
1, 534340, Note_on_c, 0, 48, 83
1, 534352, Note_off_c, 0, 72, 69
1, 534365, Note_off_c, 0, 55, 66
1, 534366, Note_off_c, 0, 76, 66
1, 534375, Note_off_c, 0, 48, 61
1, 534459, Note_on_c, 0, 43, 83
1, 534460, Note_on_c, 0, 74, 99
1, 534463, Note_on_c, 0, 71, 90
1, 534490, Note_off_c, 0, 71, 63
1, 534494, Note_off_c, 0, 74, 65
1, 534535, Note_off_c, 0, 43, 52
1, 534577, Note_on_c, 0, 48, 86
1, 534581, Note_on_c, 0, 55, 85
1, 534587, Note_on_c, 0, 76, 97
1, 534590, Note_on_c, 0, 72, 89
1, 534610, Note_off_c, 0, 55, 65
1, 534614, Note_off_c, 0, 48, 60
1, 534625, Note_off_c, 0, 72, 65
1, 534636, Note_off_c, 0, 76, 66
1, 534688, Control_c, 0, 64, 51
1, 534703, Control_c, 0, 64, 64
1, 534706, Note_on_c, 0, 60, 88
1, 534708, Note_on_c, 0, 48, 87
1, 534712, Note_on_c, 0, 67, 100
1, 534714, Note_on_c, 0, 79, 96
1, 534718, Note_on_c, 0, 76, 89
1, 534718, Control_c, 0, 64, 69
1, 534733, Control_c, 0, 64, 75
1, 534735, Note_off_c, 0, 60, 63
1, 534739, Note_off_c, 0, 67, 65
1, 534747, Note_off_c, 0, 48, 61
1, 534748, Note_off_c, 0, 76, 59
1, 534748, Control_c, 0, 64, 81
1, 534763, Control_c, 0, 64, 85
1, 534766, Note_off_c, 0, 79, 65
1, 534778, Control_c, 0, 64, 87
1, 534793, Control_c, 0, 64, 89
1, 534808, Control_c, 0, 64, 92
1, 534823, Control_c, 0, 64, 95
1, 534829, Note_on_c, 0, 79, 95
1, 534834, Note_on_c, 0, 59, 94
1, 534835, Note_on_c, 0, 47, 87
1, 534837, Control_c, 0, 64, 96
1, 534843, Note_on_c, 0, 76, 89
1, 534866, Note_off_c, 0, 59, 62
1, 534867, Note_on_c, 0, 67, 89
1, 534869, Note_off_c, 0, 47, 63
1, 534895, Note_off_c, 0, 79, 62
1, 534907, Note_off_c, 0, 76, 62
1, 534924, Note_off_c, 0, 67, 60
1, 534947, Note_on_c, 0, 58, 97
1, 534953, Note_on_c, 0, 46, 87
1, 534959, Note_on_c, 0, 79, 102
1, 534985, Note_off_c, 0, 58, 66
1, 535010, Note_off_c, 0, 79, 63
1, 535022, Note_off_c, 0, 46, 56
1, 535060, Control_c, 0, 64, 93
1, 535072, Note_on_c, 0, 59, 92
1, 535075, Control_c, 0, 64, 76
1, 535078, Note_on_c, 0, 47, 82
1, 535084, Note_on_c, 0, 67, 89
1, 535085, Note_on_c, 0, 79, 98
1, 535091, Control_c, 0, 64, 0
1, 535095, Note_off_c, 0, 59, 68
1, 535103, Note_off_c, 0, 47, 71
1, 535110, Note_off_c, 0, 67, 65
1, 535113, Note_off_c, 0, 79, 61
1, 535200, Note_on_c, 0, 66, 90
1, 535200, Note_on_c, 0, 78, 90
1, 535206, Note_on_c, 0, 74, 76
1, 535231, Note_off_c, 0, 74, 69
1, 535234, Note_off_c, 0, 66, 60
1, 535254, Note_off_c, 0, 78, 64
1, 535320, Note_on_c, 0, 40, 78
1, 535324, Note_on_c, 0, 52, 71
1, 535330, Note_on_c, 0, 64, 96
1, 535331, Note_on_c, 0, 76, 94
1, 535335, Note_on_c, 0, 73, 79
1, 535349, Note_off_c, 0, 40, 64
1, 535352, Note_off_c, 0, 52, 65
1, 535357, Note_off_c, 0, 64, 66
1, 535374, Note_off_c, 0, 76, 63
1, 535377, Note_off_c, 0, 73, 60
1, 535449, Note_on_c, 0, 54, 91
1, 535451, Note_on_c, 0, 42, 88
1, 535454, Note_on_c, 0, 62, 90
1, 535455, Note_on_c, 0, 74, 90
1, 535457, Note_on_c, 0, 71, 82
1, 535468, Note_off_c, 0, 54, 73
1, 535472, Note_off_c, 0, 62, 72
1, 535477, Note_off_c, 0, 42, 67
1, 535478, Note_off_c, 0, 71, 69
1, 535485, Note_off_c, 0, 74, 59
1, 535736, Note_on_c, 0, 61, 87
1, 535738, Note_on_c, 0, 73, 87
1, 535742, Note_on_c, 0, 42, 72
1, 535744, Note_on_c, 0, 30, 64
1, 535766, Note_off_c, 0, 61, 64
1, 535769, Note_off_c, 0, 42, 65
1, 535776, Note_off_c, 0, 30, 62
1, 535783, Note_off_c, 0, 73, 64
1, 535870, Note_on_c, 0, 71, 97
1, 535873, Note_on_c, 0, 47, 79
1, 535873, Note_on_c, 0, 59, 83
1, 535875, Note_on_c, 0, 35, 75
1, 535892, Note_off_c, 0, 59, 71
1, 535897, Note_off_c, 0, 47, 68
1, 535902, Note_off_c, 0, 35, 66
1, 535902, Note_off_c, 0, 71, 66
1, 536360, Note_on_c, 0, 47, 58
1, 536362, Note_on_c, 0, 35, 53
1, 536382, Note_on_c, 0, 59, 43
1, 536388, Note_off_c, 0, 47, 66
1, 536392, Note_off_c, 0, 35, 63
1, 536410, Note_off_c, 0, 59, 52
1, 536483, Note_on_c, 0, 49, 67
1, 536489, Note_on_c, 0, 37, 50
1, 536500, Note_on_c, 0, 61, 62
1, 536510, Note_off_c, 0, 49, 66
1, 536522, Note_off_c, 0, 61, 61
1, 536522, Note_off_c, 0, 37, 60
1, 536609, Note_on_c, 0, 50, 46
1, 536613, Note_on_c, 0, 38, 50
1, 536614, Note_on_c, 0, 62, 55
1, 536639, Note_off_c, 0, 62, 58
1, 536641, Note_off_c, 0, 50, 58
1, 536642, Note_off_c, 0, 38, 58
1, 536736, Control_c, 0, 67, 8
1, 536758, Control_c, 0, 67, 11
1, 536762, Note_on_c, 0, 58, 59
1, 536766, Note_on_c, 0, 46, 53
1, 536769, Note_on_c, 0, 34, 46
1, 536773, Control_c, 0, 67, 15
1, 536788, Control_c, 0, 67, 17
1, 536790, Note_off_c, 0, 58, 65
1, 536793, Note_off_c, 0, 46, 56
1, 536802, Note_off_c, 0, 34, 52
1, 536818, Control_c, 0, 67, 16
1, 536906, Control_c, 0, 67, 16
1, 536921, Control_c, 0, 67, 15
1, 536936, Control_c, 0, 67, 14
1, 536951, Control_c, 0, 67, 13
1, 536966, Control_c, 0, 67, 12
1, 536981, Control_c, 0, 67, 11
1, 536996, Control_c, 0, 67, 11
1, 537011, Control_c, 0, 67, 10
1, 537025, Control_c, 0, 67, 9
1, 537040, Control_c, 0, 67, 8
1, 537173, Control_c, 0, 67, 8
1, 537219, Note_on_c, 0, 76, 52
1, 537221, Note_on_c, 0, 79, 56
1, 537244, Note_on_c, 0, 61, 25
1, 537253, Note_off_c, 0, 76, 63
1, 537254, Note_off_c, 0, 79, 63
1, 537285, Note_off_c, 0, 61, 41
1, 537321, Control_c, 0, 67, 0
1, 537351, Note_on_c, 0, 78, 53
1, 537356, Note_on_c, 0, 74, 49
1, 537362, Note_on_c, 0, 62, 41
1, 537383, Note_off_c, 0, 74, 60
1, 537390, Note_off_c, 0, 62, 56
1, 537393, Note_off_c, 0, 78, 59
1, 537485, Control_c, 0, 67, 8
1, 537490, Note_on_c, 0, 76, 54
1, 537511, Note_on_c, 0, 64, 38
1, 537527, Note_off_c, 0, 76, 64
1, 537537, Control_c, 0, 67, 8
1, 537543, Note_off_c, 0, 64, 48
1, 537582, Control_c, 0, 67, 9
1, 537596, Control_c, 0, 67, 9
1, 537611, Control_c, 0, 67, 10
1, 537626, Control_c, 0, 67, 11
1, 537637, Note_on_c, 0, 85, 66
1, 537641, Control_c, 0, 67, 11
1, 537646, Note_on_c, 0, 58, 41
1, 537655, Control_c, 0, 67, 12
1, 537667, Note_off_c, 0, 85, 61
1, 537670, Control_c, 0, 67, 13
1, 537675, Note_off_c, 0, 58, 58
1, 537789, Control_c, 0, 67, 13
1, 537818, Control_c, 0, 67, 12
1, 537848, Control_c, 0, 67, 12
1, 537863, Control_c, 0, 67, 11
1, 537893, Control_c, 0, 67, 11
1, 537907, Control_c, 0, 67, 10
1, 537922, Control_c, 0, 67, 10
1, 537937, Control_c, 0, 67, 9
1, 537952, Control_c, 0, 67, 8
1, 537967, Control_c, 0, 67, 8
1, 537981, Control_c, 0, 67, 0
1, 538087, Note_on_c, 0, 49, 66
1, 538090, Note_on_c, 0, 37, 52
1, 538091, Note_on_c, 0, 61, 70
1, 538113, Note_off_c, 0, 49, 66
1, 538114, Note_off_c, 0, 61, 66
1, 538131, Note_off_c, 0, 37, 60
1, 538209, Note_on_c, 0, 62, 70
1, 538217, Note_on_c, 0, 50, 57
1, 538220, Note_on_c, 0, 38, 49
1, 538233, Note_off_c, 0, 62, 66
1, 538248, Note_off_c, 0, 50, 67
1, 538249, Note_off_c, 0, 38, 59
1, 538343, Note_on_c, 0, 52, 64
1, 538350, Note_on_c, 0, 64, 70
1, 538352, Note_on_c, 0, 40, 57
1, 538373, Note_off_c, 0, 52, 64
1, 538377, Note_off_c, 0, 64, 68
1, 538385, Note_off_c, 0, 40, 64
1, 538492, Note_on_c, 0, 59, 62
1, 538497, Note_on_c, 0, 47, 59
1, 538502, Note_on_c, 0, 35, 47
1, 538523, Note_off_c, 0, 59, 63
1, 538532, Note_off_c, 0, 35, 57
1, 538537, Note_off_c, 0, 47, 58
1, 538626, Control_c, 0, 67, 11
1, 538641, Control_c, 0, 67, 19
1, 538655, Control_c, 0, 67, 26
1, 538670, Control_c, 0, 67, 29
1, 538685, Control_c, 0, 67, 31
1, 538700, Control_c, 0, 67, 31
1, 538744, Control_c, 0, 67, 30
1, 538759, Control_c, 0, 67, 29
1, 538774, Control_c, 0, 67, 28
1, 538789, Control_c, 0, 67, 28
1, 538803, Control_c, 0, 67, 26
1, 538818, Control_c, 0, 67, 25
1, 538833, Control_c, 0, 67, 24
1, 538847, Control_c, 0, 67, 23
1, 538862, Control_c, 0, 67, 22
1, 538877, Control_c, 0, 67, 21
1, 538892, Control_c, 0, 67, 20
1, 538907, Control_c, 0, 67, 19
1, 538922, Control_c, 0, 67, 17
1, 538936, Control_c, 0, 67, 16
1, 538951, Control_c, 0, 67, 15
1, 538966, Control_c, 0, 67, 13
1, 538972, Note_on_c, 0, 64, 52
1, 538979, Note_on_c, 0, 83, 70
1, 538981, Control_c, 0, 67, 0
1, 538984, Note_on_c, 0, 79, 63
1, 539011, Note_off_c, 0, 64, 63
1, 539017, Note_off_c, 0, 79, 66
1, 539023, Note_off_c, 0, 83, 54
1, 539105, Note_on_c, 0, 66, 59
1, 539109, Note_on_c, 0, 81, 74
1, 539135, Note_off_c, 0, 66, 64
1, 539142, Note_off_c, 0, 81, 60
1, 539148, Note_on_c, 0, 78, 25
1, 539184, Note_off_c, 0, 78, 44
1, 539245, Note_on_c, 0, 67, 50
1, 539254, Note_on_c, 0, 79, 68
1, 539266, Note_on_c, 0, 76, 48
1, 539269, Note_off_c, 0, 67, 59
1, 539286, Note_off_c, 0, 79, 60
1, 539292, Note_off_c, 0, 76, 56
1, 539395, Note_on_c, 0, 59, 51
1, 539399, Note_on_c, 0, 88, 71
1, 539425, Note_on_c, 0, 79, 24
1, 539434, Note_off_c, 0, 59, 63
1, 539436, Note_off_c, 0, 88, 63
1, 539462, Note_off_c, 0, 79, 49
1, 539911, Note_on_c, 0, 60, 104
1, 539914, Note_on_c, 0, 36, 89
1, 539917, Note_on_c, 0, 43, 89
1, 539944, Note_off_c, 0, 60, 71
1, 539945, Control_c, 0, 64, 63
1, 539960, Control_c, 0, 64, 74
1, 539966, Note_off_c, 0, 43, 60
1, 539974, Control_c, 0, 64, 80
1, 539989, Control_c, 0, 64, 86
1, 539997, Note_off_c, 0, 36, 57
1, 540004, Control_c, 0, 64, 88
1, 540019, Control_c, 0, 64, 89
1, 540036, Poly_aftertouch_c, 0, 37, 0
1, 540059, Note_on_c, 0, 31, 70
1, 540066, Note_on_c, 0, 55, 90
1, 540093, Control_c, 0, 64, 88
1, 540105, Note_on_c, 0, 36, 78
1, 540105, Note_on_c, 0, 60, 83
1, 540108, Control_c, 0, 64, 88
1, 540109, Note_on_c, 0, 43, 81
1, 540113, Note_off_c, 0, 31, 62
1, 540114, Note_off_c, 0, 55, 64
1, 540123, Control_c, 0, 64, 86
1, 540138, Control_c, 0, 64, 83
1, 540152, Control_c, 0, 64, 73
1, 540167, Control_c, 0, 64, 0
1, 540173, Note_off_c, 0, 43, 62
1, 540175, Note_on_c, 0, 55, 94
1, 540176, Note_on_c, 0, 31, 74
1, 540180, Note_off_c, 0, 36, 64
1, 540185, Note_off_c, 0, 60, 63
1, 540217, Note_off_c, 0, 31, 62
1, 540221, Note_off_c, 0, 55, 64
1, 540298, Note_on_c, 0, 36, 79
1, 540299, Note_on_c, 0, 60, 96
1, 540300, Note_on_c, 0, 43, 83
1, 540332, Note_off_c, 0, 60, 69
1, 540334, Note_off_c, 0, 43, 64
1, 540340, Note_off_c, 0, 36, 59
1, 540431, Note_on_c, 0, 31, 77
1, 540431, Note_on_c, 0, 55, 96
1, 540476, Note_off_c, 0, 55, 65
1, 540519, Note_off_c, 0, 31, 55
1, 540559, Note_on_c, 0, 36, 73
1, 540561, Note_on_c, 0, 43, 81
1, 540571, Note_on_c, 0, 60, 81
1, 540582, Note_on_c, 0, 59, 73
1, 540585, Note_off_c, 0, 36, 64
1, 540591, Note_off_c, 0, 43, 67
1, 540600, Note_off_c, 0, 59, 65
1, 540600, Note_off_c, 0, 60, 66
1, 540695, Note_on_c, 0, 48, 82
1, 540695, Note_on_c, 0, 55, 85
1, 540710, Control_c, 0, 64, 61
1, 540715, Note_on_c, 0, 72, 80
1, 540716, Note_on_c, 0, 76, 83
1, 540716, Note_on_c, 0, 77, 75
1, 540720, Note_on_c, 0, 74, 77
1, 540724, Control_c, 0, 64, 67
1, 540725, Note_off_c, 0, 55, 65
1, 540731, Note_off_c, 0, 48, 57
1, 540733, Note_off_c, 0, 72, 71
1, 540736, Note_off_c, 0, 77, 71
1, 540739, Control_c, 0, 64, 70
1, 540740, Note_off_c, 0, 74, 72
1, 540746, Note_off_c, 0, 76, 62
1, 540754, Control_c, 0, 64, 73
1, 540769, Control_c, 0, 64, 75
1, 540784, Control_c, 0, 64, 77
1, 540798, Control_c, 0, 64, 78
1, 540813, Control_c, 0, 64, 79
1, 540828, Control_c, 0, 64, 80
1, 540838, Note_on_c, 0, 43, 80
1, 540847, Note_on_c, 0, 74, 86
1, 540852, Note_on_c, 0, 71, 71
1, 540862, Note_on_c, 0, 76, 77
1, 540872, Control_c, 0, 64, 79
1, 540875, Note_off_c, 0, 71, 70
1, 540882, Note_on_c, 0, 55, 89
1, 540882, Note_off_c, 0, 43, 56
1, 540883, Note_on_c, 0, 48, 68
1, 540887, Control_c, 0, 64, 78
1, 540891, Note_off_c, 0, 74, 66
1, 540896, Note_on_c, 0, 72, 56
1, 540902, Control_c, 0, 64, 73
1, 540917, Control_c, 0, 64, 63
1, 540931, Control_c, 0, 64, 0
1, 540934, Note_on_c, 0, 71, 94
1, 540935, Note_on_c, 0, 74, 84
1, 540936, Note_on_c, 0, 43, 79
1, 540937, Note_off_c, 0, 55, 66
1, 540941, Note_off_c, 0, 48, 64
1, 540948, Note_off_c, 0, 72, 65
1, 540960, Note_off_c, 0, 76, 64
1, 540969, Note_off_c, 0, 71, 67
1, 540969, Note_off_c, 0, 74, 69
1, 540982, Note_off_c, 0, 43, 63
1, 541068, Note_on_c, 0, 72, 93
1, 541070, Note_on_c, 0, 76, 93
1, 541074, Note_on_c, 0, 55, 83
1, 541079, Note_on_c, 0, 48, 78
1, 541093, Note_off_c, 0, 72, 69
1, 541099, Note_off_c, 0, 55, 67
1, 541104, Note_off_c, 0, 76, 67
1, 541110, Note_off_c, 0, 48, 66
1, 541193, Note_on_c, 0, 43, 86
1, 541198, Note_on_c, 0, 74, 95
1, 541199, Note_on_c, 0, 71, 96
1, 541232, Note_off_c, 0, 74, 64
1, 541234, Note_off_c, 0, 71, 67
1, 541264, Note_off_c, 0, 43, 59
1, 541319, Note_on_c, 0, 48, 84
1, 541322, Note_on_c, 0, 55, 85
1, 541324, Note_on_c, 0, 76, 96
1, 541328, Note_on_c, 0, 72, 89
1, 541354, Note_off_c, 0, 55, 64
1, 541355, Note_off_c, 0, 48, 60
1, 541365, Note_off_c, 0, 72, 65
1, 541376, Note_off_c, 0, 76, 64
1, 541428, Control_c, 0, 64, 17
1, 541443, Control_c, 0, 64, 56
1, 541448, Note_on_c, 0, 60, 92
1, 541452, Note_on_c, 0, 48, 90
1, 541452, Note_on_c, 0, 79, 100
1, 541452, Note_on_c, 0, 67, 99
1, 541457, Control_c, 0, 64, 63
1, 541458, Note_on_c, 0, 76, 90
1, 541473, Control_c, 0, 64, 67
1, 541477, Note_off_c, 0, 67, 65
1, 541482, Note_on_c, 0, 77, 47
1, 541483, Note_off_c, 0, 77, 127
1, 541487, Note_off_c, 0, 60, 63
1, 541488, Control_c, 0, 64, 70
1, 541491, Note_off_c, 0, 48, 59
1, 541497, Note_off_c, 0, 76, 62
1, 541503, Control_c, 0, 64, 73
1, 541515, Note_off_c, 0, 79, 63
1, 541518, Control_c, 0, 64, 75
1, 541533, Control_c, 0, 64, 77
1, 541547, Control_c, 0, 64, 78
1, 541562, Control_c, 0, 64, 79
1, 541575, Note_on_c, 0, 59, 93
1, 541577, Control_c, 0, 64, 79
1, 541578, Note_on_c, 0, 79, 85
1, 541581, Note_on_c, 0, 47, 84
1, 541589, Note_on_c, 0, 76, 84
1, 541592, Control_c, 0, 64, 80
1, 541601, Note_on_c, 0, 67, 89
1, 541607, Control_c, 0, 64, 80
1, 541608, Note_off_c, 0, 47, 67
1, 541615, Note_off_c, 0, 59, 66
1, 541633, Note_off_c, 0, 79, 63
1, 541647, Note_off_c, 0, 76, 63
1, 541668, Note_off_c, 0, 67, 53
1, 541695, Note_on_c, 0, 58, 96
1, 541697, Note_on_c, 0, 79, 95
1, 541700, Note_on_c, 0, 46, 88
1, 541744, Note_off_c, 0, 58, 64
1, 541746, Note_off_c, 0, 79, 64
1, 541762, Note_off_c, 0, 46, 58
1, 541814, Control_c, 0, 64, 76
1, 541819, Note_on_c, 0, 59, 93
1, 541821, Note_on_c, 0, 79, 106
1, 541823, Note_on_c, 0, 67, 93
1, 541825, Note_on_c, 0, 47, 86
1, 541828, Control_c, 0, 64, 59
1, 541839, Note_off_c, 0, 59, 66
1, 541843, Control_c, 0, 64, 0
1, 541848, Note_off_c, 0, 67, 66
1, 541849, Note_off_c, 0, 47, 70
1, 541851, Note_off_c, 0, 79, 69
1, 541941, Note_on_c, 0, 66, 93
1, 541941, Note_on_c, 0, 74, 84
1, 541943, Note_on_c, 0, 78, 88
1, 541977, Note_off_c, 0, 66, 61
1, 541984, Note_off_c, 0, 74, 64
1, 542005, Note_off_c, 0, 78, 65
1, 542070, Note_on_c, 0, 52, 78
1, 542072, Note_on_c, 0, 40, 78
1, 542074, Note_on_c, 0, 76, 96
1, 542075, Note_on_c, 0, 64, 90
1, 542088, Note_on_c, 0, 73, 67
1, 542099, Note_off_c, 0, 40, 65
1, 542101, Note_off_c, 0, 52, 66
1, 542103, Note_off_c, 0, 64, 66
1, 542124, Note_off_c, 0, 76, 61
1, 542125, Note_off_c, 0, 73, 61
1, 542196, Note_on_c, 0, 54, 97
1, 542201, Note_on_c, 0, 42, 87
1, 542201, Note_on_c, 0, 74, 98
1, 542203, Note_on_c, 0, 62, 95
1, 542209, Note_on_c, 0, 71, 78
1, 542218, Note_off_c, 0, 54, 71
1, 542223, Note_off_c, 0, 62, 67
1, 542229, Note_off_c, 0, 71, 70
1, 542233, Note_off_c, 0, 42, 65
1, 542236, Note_on_c, 0, 73, 36
1, 542242, Note_off_c, 0, 74, 65
1, 542269, Note_off_c, 0, 73, 54
1, 542490, Note_on_c, 0, 73, 92
1, 542494, Note_on_c, 0, 42, 75
1, 542494, Note_on_c, 0, 61, 87
1, 542498, Note_on_c, 0, 30, 62
1, 542517, Note_off_c, 0, 42, 66
1, 542519, Note_off_c, 0, 61, 65
1, 542528, Note_off_c, 0, 30, 62
1, 542534, Note_off_c, 0, 73, 64
1, 542632, Note_on_c, 0, 71, 102
1, 542634, Note_on_c, 0, 59, 86
1, 542636, Note_on_c, 0, 47, 82
1, 542639, Note_on_c, 0, 35, 74
1, 542653, Note_off_c, 0, 59, 70
1, 542659, Note_off_c, 0, 47, 69
1, 542664, Note_off_c, 0, 71, 69
1, 542666, Note_off_c, 0, 35, 66
1, 543151, Note_on_c, 0, 38, 50
1, 543151, Note_on_c, 0, 62, 57
1, 543160, Note_on_c, 0, 50, 39
1, 543174, Note_off_c, 0, 62, 63
1, 543181, Note_off_c, 0, 38, 57
1, 543194, Note_off_c, 0, 50, 52
1, 543276, Note_on_c, 0, 64, 74
1, 543279, Note_on_c, 0, 52, 53
1, 543281, Note_on_c, 0, 40, 49
1, 543300, Note_off_c, 0, 64, 70
1, 543306, Note_off_c, 0, 52, 59
1, 543309, Note_off_c, 0, 40, 57
1, 543408, Note_on_c, 0, 66, 69
1, 543417, Note_on_c, 0, 42, 57
1, 543431, Note_off_c, 0, 66, 66
1, 543445, Note_off_c, 0, 42, 57
1, 543556, Control_c, 0, 67, 13
1, 543561, Note_on_c, 0, 49, 58
1, 543565, Note_on_c, 0, 61, 49
1, 543566, Note_on_c, 0, 37, 41
1, 543571, Control_c, 0, 67, 16
1, 543586, Control_c, 0, 67, 17
1, 543587, Note_off_c, 0, 49, 59
1, 543592, Note_off_c, 0, 61, 58
1, 543598, Note_off_c, 0, 37, 56
1, 543615, Control_c, 0, 67, 16
1, 543630, Control_c, 0, 67, 15
1, 543645, Control_c, 0, 67, 14
1, 543659, Control_c, 0, 67, 13
1, 543674, Control_c, 0, 67, 12
1, 543689, Control_c, 0, 67, 11
1, 543704, Control_c, 0, 67, 11
1, 543719, Control_c, 0, 67, 10
1, 543733, Control_c, 0, 67, 9
1, 543748, Control_c, 0, 67, 9
1, 543763, Control_c, 0, 67, 8
1, 543807, Control_c, 0, 67, 8
1, 543822, Control_c, 0, 67, 0
1, 543986, Note_on_c, 0, 82, 80
1, 544005, Note_on_c, 0, 64, 38
1, 544013, Note_on_c, 0, 79, 44
1, 544022, Note_off_c, 0, 82, 62
1, 544035, Note_off_c, 0, 64, 52
1, 544038, Note_off_c, 0, 79, 56
1, 544117, Note_on_c, 0, 66, 62
1, 544118, Note_on_c, 0, 81, 67
1, 544139, Note_on_c, 0, 78, 36
1, 544146, Note_off_c, 0, 66, 64
1, 544165, Note_off_c, 0, 81, 64
1, 544171, Note_off_c, 0, 78, 51
1, 544255, Note_on_c, 0, 67, 55
1, 544263, Note_on_c, 0, 79, 73
1, 544278, Note_off_c, 0, 67, 61
1, 544283, Note_on_c, 0, 76, 43
1, 544287, Note_off_c, 0, 79, 66
1, 544313, Note_off_c, 0, 76, 53
1, 544397, Note_on_c, 0, 61, 53
1, 544400, Note_on_c, 0, 88, 68
1, 544415, Note_on_c, 0, 79, 43
1, 544433, Note_off_c, 0, 61, 64
1, 544433, Note_off_c, 0, 88, 63
1, 544444, Note_off_c, 0, 79, 55
1, 544865, Note_on_c, 0, 52, 58
1, 544865, Note_on_c, 0, 64, 71
1, 544867, Note_on_c, 0, 40, 54
1, 544890, Note_off_c, 0, 64, 70
1, 544895, Note_off_c, 0, 40, 55
1, 544897, Note_off_c, 0, 52, 63
1, 544987, Note_on_c, 0, 54, 66
1, 544998, Note_on_c, 0, 66, 71
1, 545008, Note_on_c, 0, 42, 44
1, 545020, Note_off_c, 0, 66, 66
1, 545023, Note_off_c, 0, 54, 66
1, 545040, Note_off_c, 0, 42, 57
1, 545113, Note_on_c, 0, 55, 60
1, 545119, Note_on_c, 0, 67, 71
1, 545125, Note_on_c, 0, 43, 55
1, 545143, Note_off_c, 0, 55, 65
1, 545143, Note_off_c, 0, 67, 67
1, 545157, Note_off_c, 0, 43, 63
1, 545259, Note_on_c, 0, 62, 62
1, 545262, Note_on_c, 0, 50, 60
1, 545263, Note_on_c, 0, 38, 61
1, 545289, Note_off_c, 0, 38, 60
1, 545291, Note_off_c, 0, 62, 62
1, 545302, Note_off_c, 0, 50, 66
1, 545747, Note_on_c, 0, 86, 62
1, 545751, Note_on_c, 0, 67, 49
1, 545765, Note_on_c, 0, 82, 32
1, 545777, Note_off_c, 0, 86, 65
1, 545790, Note_off_c, 0, 67, 58
1, 545798, Note_off_c, 0, 82, 48
1, 545877, Note_on_c, 0, 84, 74
1, 545888, Note_on_c, 0, 69, 49
1, 545897, Note_on_c, 0, 81, 41
1, 545911, Note_off_c, 0, 84, 58
1, 545922, Note_off_c, 0, 81, 54
1, 545924, Note_off_c, 0, 69, 62
1, 546010, Note_on_c, 0, 70, 50
1, 546014, Note_on_c, 0, 82, 75
1, 546034, Note_off_c, 0, 70, 59
1, 546055, Note_off_c, 0, 82, 55
1, 546159, Note_on_c, 0, 91, 77
1, 546177, Note_on_c, 0, 62, 47
1, 546186, Note_on_c, 0, 82, 34
1, 546194, Note_off_c, 0, 91, 61
1, 546213, Note_off_c, 0, 62, 62
1, 546219, Note_off_c, 0, 82, 33
1, 546637, Note_on_c, 0, 63, 97
1, 546640, Note_on_c, 0, 46, 97
1, 546641, Note_on_c, 0, 39, 91
1, 546655, Control_c, 0, 64, 40
1, 546669, Control_c, 0, 64, 74
1, 546678, Note_off_c, 0, 63, 68
1, 546684, Control_c, 0, 64, 87
1, 546699, Control_c, 0, 64, 104
1, 546704, Note_off_c, 0, 46, 61
1, 546714, Control_c, 0, 64, 110
1, 546729, Control_c, 0, 64, 111
1, 546743, Control_c, 0, 64, 111
1, 546750, Note_off_c, 0, 39, 48
1, 546758, Control_c, 0, 64, 111
1, 546779, Note_on_c, 0, 34, 77
1, 546780, Note_on_c, 0, 58, 89
1, 546826, Note_on_c, 0, 63, 82
1, 546831, Note_off_c, 0, 58, 63
1, 546836, Note_on_c, 0, 39, 81
1, 546840, Note_on_c, 0, 46, 85
1, 546857, Note_off_c, 0, 34, 60
1, 546889, Note_on_c, 0, 58, 96
1, 546893, Note_off_c, 0, 46, 61
1, 546894, Poly_aftertouch_c, 0, 34, 0
1, 546904, Note_on_c, 0, 34, 66
1, 546907, Control_c, 0, 64, 109
1, 546908, Note_off_c, 0, 63, 63
1, 546912, Note_off_c, 0, 39, 61
1, 546922, Control_c, 0, 64, 96
1, 546931, Note_off_c, 0, 58, 66
1, 546937, Control_c, 0, 64, 77
1, 546951, Control_c, 0, 64, 0
1, 546955, Note_off_c, 0, 34, 51
1, 547014, Note_on_c, 0, 63, 94
1, 547018, Note_on_c, 0, 39, 83
1, 547020, Note_on_c, 0, 46, 86
1, 547034, Note_on_c, 0, 64, 76
1, 547050, Note_off_c, 0, 46, 64
1, 547056, Note_off_c, 0, 64, 71
1, 547062, Note_off_c, 0, 63, 52
1, 547074, Note_off_c, 0, 39, 58
1, 547143, Note_on_c, 0, 58, 95
1, 547152, Note_on_c, 0, 34, 80
1, 547186, Note_off_c, 0, 58, 63
1, 547268, Note_off_c, 0, 34, 50
1, 547278, Note_on_c, 0, 39, 78
1, 547281, Note_on_c, 0, 63, 93
1, 547282, Note_on_c, 0, 46, 82
1, 547307, Note_off_c, 0, 39, 66
1, 547307, Note_off_c, 0, 46, 66
1, 547320, Note_off_c, 0, 63, 63
1, 547405, Control_c, 0, 64, 19
1, 547409, Note_on_c, 0, 79, 102
1, 547411, Note_on_c, 0, 51, 80
1, 547411, Note_on_c, 0, 58, 86
1, 547416, Note_on_c, 0, 75, 95
1, 547419, Control_c, 0, 64, 54
1, 547432, Note_off_c, 0, 58, 67
1, 547433, Note_off_c, 0, 75, 72
1, 547434, Control_c, 0, 64, 64
1, 547445, Note_off_c, 0, 51, 58
1, 547446, Note_off_c, 0, 79, 67
1, 547449, Control_c, 0, 64, 68
1, 547464, Control_c, 0, 64, 71
1, 547479, Control_c, 0, 64, 73
1, 547493, Control_c, 0, 64, 74
1, 547551, Note_on_c, 0, 46, 78
1, 547551, Note_on_c, 0, 77, 89
1, 547553, Control_c, 0, 64, 73
1, 547558, Note_on_c, 0, 74, 70
1, 547567, Control_c, 0, 64, 72
1, 547572, Note_on_c, 0, 75, 66
1, 547575, Note_off_c, 0, 74, 67
1, 547581, Note_on_c, 0, 79, 71
1, 547582, Control_c, 0, 64, 68
1, 547589, Note_on_c, 0, 58, 88
1, 547590, Note_on_c, 0, 51, 75
1, 547593, Note_off_c, 0, 77, 66
1, 547596, Note_off_c, 0, 46, 60
1, 547597, Control_c, 0, 64, 0
1, 547634, Note_on_c, 0, 74, 91
1, 547634, Note_on_c, 0, 77, 83
1, 547638, Note_off_c, 0, 58, 66
1, 547646, Note_off_c, 0, 75, 64
1, 547653, Note_on_c, 0, 46, 73
1, 547664, Note_off_c, 0, 51, 65
1, 547665, Note_off_c, 0, 79, 64
1, 547671, Note_off_c, 0, 74, 67
1, 547677, Note_off_c, 0, 77, 65
1, 547685, Note_off_c, 0, 46, 66
1, 547775, Note_on_c, 0, 75, 89
1, 547776, Note_on_c, 0, 79, 89
1, 547781, Note_on_c, 0, 51, 80
1, 547781, Note_on_c, 0, 58, 84
1, 547796, Note_off_c, 0, 75, 66
1, 547801, Note_off_c, 0, 58, 70
1, 547810, Note_off_c, 0, 79, 65
1, 547826, Note_off_c, 0, 51, 61
1, 547901, Note_on_c, 0, 77, 94
1, 547903, Note_on_c, 0, 74, 92
1, 547906, Note_on_c, 0, 46, 81
1, 547939, Note_off_c, 0, 77, 65
1, 547941, Note_off_c, 0, 74, 66
1, 548025, Note_on_c, 0, 51, 76
1, 548026, Note_off_c, 0, 46, 59
1, 548031, Note_on_c, 0, 79, 93
1, 548033, Note_on_c, 0, 58, 76
1, 548034, Note_on_c, 0, 75, 90
1, 548057, Note_off_c, 0, 58, 69
1, 548065, Note_off_c, 0, 51, 63
1, 548072, Note_off_c, 0, 75, 61
1, 548074, Note_off_c, 0, 79, 65
1, 548156, Note_on_c, 0, 70, 94
1, 548159, Note_on_c, 0, 63, 91
1, 548159, Note_on_c, 0, 82, 107
1, 548165, Note_on_c, 0, 51, 81
1, 548183, Control_c, 0, 64, 68
1, 548184, Note_off_c, 0, 63, 63
1, 548189, Note_off_c, 0, 70, 66
1, 548192, Note_off_c, 0, 51, 69
1, 548197, Control_c, 0, 64, 82
1, 548208, Note_off_c, 0, 82, 64
1, 548212, Control_c, 0, 64, 91
1, 548227, Control_c, 0, 64, 96
1, 548241, Control_c, 0, 64, 97
1, 548271, Control_c, 0, 64, 97
1, 548280, Note_on_c, 0, 82, 98
1, 548287, Note_on_c, 0, 62, 79
1, 548289, Note_on_c, 0, 50, 74
1, 548289, Note_on_c, 0, 79, 90
1, 548312, Note_off_c, 0, 62, 64
1, 548317, Note_on_c, 0, 70, 92
1, 548317, Note_off_c, 0, 50, 69
1, 548330, Control_c, 0, 64, 98
1, 548331, Note_off_c, 0, 82, 65
1, 548345, Note_off_c, 0, 79, 62
1, 548360, Control_c, 0, 64, 97
1, 548368, Note_off_c, 0, 70, 61
1, 548396, Note_on_c, 0, 82, 97
1, 548397, Note_on_c, 0, 79, 78
1, 548402, Note_on_c, 0, 61, 92
1, 548403, Note_on_c, 0, 49, 88
1, 548442, Note_off_c, 0, 79, 63
1, 548445, Note_off_c, 0, 61, 62
1, 548448, Control_c, 0, 64, 98
1, 548453, Note_off_c, 0, 82, 65
1, 548454, Note_off_c, 0, 49, 59
1, 548508, Control_c, 0, 64, 95
1, 548523, Control_c, 0, 64, 73
1, 548525, Note_on_c, 0, 62, 91
1, 548528, Note_on_c, 0, 70, 93
1, 548528, Note_on_c, 0, 82, 98
1, 548532, Note_on_c, 0, 50, 79
1, 548535, Note_on_c, 0, 79, 77
1, 548538, Control_c, 0, 64, 0
1, 548554, Note_off_c, 0, 70, 64
1, 548554, Note_off_c, 0, 79, 69
1, 548555, Note_off_c, 0, 62, 60
1, 548558, Note_off_c, 0, 50, 71
1, 548577, Note_off_c, 0, 82, 65
1, 548646, Note_on_c, 0, 83, 95
1, 548648, Note_on_c, 0, 71, 94
1, 548665, Note_on_c, 0, 78, 68
1, 548669, Note_on_c, 0, 81, 61
1, 548670, Note_off_c, 0, 81, 127
1, 548676, Note_off_c, 0, 71, 64
1, 548681, Note_off_c, 0, 83, 66
1, 548683, Note_off_c, 0, 78, 67
1, 548777, Note_on_c, 0, 79, 93
1, 548778, Note_on_c, 0, 71, 93
1, 548780, Note_on_c, 0, 52, 77
1, 548784, Note_on_c, 0, 64, 75
1, 548785, Note_on_c, 0, 73, 90
1, 548806, Note_off_c, 0, 52, 65
1, 548807, Note_off_c, 0, 71, 64
1, 548809, Note_off_c, 0, 64, 69
1, 548822, Note_off_c, 0, 73, 59
1, 548822, Note_off_c, 0, 79, 62
1, 548904, Note_on_c, 0, 54, 85
1, 548904, Note_on_c, 0, 66, 93
1, 548906, Note_on_c, 0, 71, 90
1, 548907, Note_on_c, 0, 78, 95
1, 548916, Control_c, 0, 64, 49
1, 548922, Note_off_c, 0, 66, 71
1, 548922, Note_off_c, 0, 71, 75
1, 548926, Note_off_c, 0, 78, 64
1, 548931, Control_c, 0, 64, 68
1, 548934, Note_off_c, 0, 54, 65
1, 548946, Control_c, 0, 64, 75
1, 548961, Control_c, 0, 64, 83
1, 548976, Control_c, 0, 64, 89
1, 548990, Control_c, 0, 64, 91
1, 549050, Control_c, 0, 64, 90
1, 549064, Control_c, 0, 64, 89
1, 549079, Control_c, 0, 64, 87
1, 549094, Control_c, 0, 64, 84
1, 549109, Control_c, 0, 64, 81
1, 549124, Control_c, 0, 64, 79
1, 549138, Control_c, 0, 64, 78
1, 549153, Control_c, 0, 64, 78
1, 549168, Control_c, 0, 64, 76
1, 549183, Control_c, 0, 64, 72
1, 549186, Note_on_c, 0, 54, 86
1, 549188, Note_on_c, 0, 70, 88
1, 549193, Note_on_c, 0, 42, 73
1, 549195, Note_on_c, 0, 64, 74
1, 549197, Control_c, 0, 64, 67
1, 549208, Note_off_c, 0, 54, 70
1, 549212, Control_c, 0, 64, 55
1, 549218, Note_off_c, 0, 64, 70
1, 549225, Note_off_c, 0, 42, 63
1, 549227, Control_c, 0, 64, 0
1, 549238, Note_off_c, 0, 70, 64
1, 549310, Note_on_c, 0, 55, 92
1, 549313, Note_on_c, 0, 43, 88
1, 549316, Note_on_c, 0, 71, 95
1, 549316, Note_on_c, 0, 62, 86
1, 549334, Note_off_c, 0, 55, 69
1, 549337, Note_off_c, 0, 62, 67
1, 549339, Note_off_c, 0, 43, 70
1, 549347, Note_off_c, 0, 71, 67
1, 549444, Note_on_c, 0, 54, 95
1, 549449, Note_on_c, 0, 42, 89
1, 549477, Note_off_c, 0, 54, 63
1, 549480, Note_off_c, 0, 42, 64
1, 549582, Note_on_c, 0, 53, 93
1, 549584, Note_on_c, 0, 41, 92
1, 549608, Note_off_c, 0, 53, 68
1, 549618, Note_off_c, 0, 41, 65
1, 549704, Note_on_c, 0, 58, 91
1, 549709, Note_on_c, 0, 67, 95
1, 549717, Note_on_c, 0, 52, 82
1, 549724, Note_on_c, 0, 40, 78
1, 549727, Note_off_c, 0, 58, 69
1, 549742, Note_off_c, 0, 52, 68
1, 549742, Note_off_c, 0, 67, 61
1, 549753, Note_off_c, 0, 40, 65
1, 549843, Note_on_c, 0, 50, 84
1, 549845, Note_on_c, 0, 67, 87
1, 549853, Note_on_c, 0, 38, 75
1, 549861, Note_on_c, 0, 58, 89
1, 549867, Note_off_c, 0, 50, 71
1, 549876, Note_off_c, 0, 67, 64
1, 549882, Note_off_c, 0, 38, 64
1, 549915, Note_off_c, 0, 58, 60
1, 549951, Note_on_c, 0, 67, 88
1, 549958, Note_on_c, 0, 49, 87
1, 549965, Note_on_c, 0, 37, 73
1, 549986, Note_off_c, 0, 49, 66
1, 549991, Note_off_c, 0, 67, 64
1, 550001, Note_off_c, 0, 37, 64
1, 550082, Note_on_c, 0, 67, 95
1, 550087, Note_on_c, 0, 50, 81
1, 550088, Note_on_c, 0, 58, 84
1, 550094, Note_on_c, 0, 38, 74
1, 550112, Note_off_c, 0, 58, 68
1, 550113, Note_off_c, 0, 50, 71
1, 550122, Note_off_c, 0, 67, 63
1, 550125, Note_off_c, 0, 38, 64
1, 550209, Note_on_c, 0, 66, 87
1, 550214, Note_on_c, 0, 59, 79
1, 550228, Note_off_c, 0, 66, 69
1, 550245, Note_off_c, 0, 59, 67
1, 550338, Note_on_c, 0, 40, 76
1, 550341, Note_on_c, 0, 64, 81
1, 550342, Note_on_c, 0, 52, 76
1, 550356, Note_on_c, 0, 61, 71
1, 550371, Note_off_c, 0, 40, 66
1, 550373, Note_off_c, 0, 52, 65
1, 550377, Note_off_c, 0, 64, 64
1, 550387, Note_off_c, 0, 61, 64
1, 550469, Note_on_c, 0, 62, 84
1, 550469, Note_on_c, 0, 54, 84
1, 550473, Note_on_c, 0, 42, 80
1, 550475, Note_on_c, 0, 59, 72
1, 550491, Note_off_c, 0, 54, 68
1, 550497, Note_off_c, 0, 59, 67
1, 550500, Note_off_c, 0, 42, 67
1, 550502, Note_off_c, 0, 62, 63
1, 550733, Note_on_c, 0, 42, 82
1, 550737, Note_on_c, 0, 30, 77
1, 550738, Note_on_c, 0, 61, 68
1, 550742, Note_on_c, 0, 58, 54
1, 550758, Note_off_c, 0, 42, 68
1, 550766, Note_off_c, 0, 58, 59
1, 550770, Note_off_c, 0, 30, 61
1, 550782, Note_off_c, 0, 61, 60
1, 550852, Note_on_c, 0, 43, 84
1, 550854, Note_on_c, 0, 31, 81
1, 550854, Note_on_c, 0, 59, 80
1, 550872, Note_off_c, 0, 59, 69
1, 550877, Note_off_c, 0, 43, 67
1, 550884, Note_off_c, 0, 31, 67
1, 550988, Note_on_c, 0, 42, 81
1, 550992, Note_on_c, 0, 30, 74
1, 551014, Note_off_c, 0, 42, 68
1, 551021, Note_off_c, 0, 30, 62
1, 551112, Note_on_c, 0, 41, 81
1, 551113, Note_on_c, 0, 29, 79
1, 551138, Note_off_c, 0, 41, 65
1, 551148, Note_off_c, 0, 29, 67
1, 551240, Note_on_c, 0, 55, 79
1, 551241, Note_on_c, 0, 46, 78
1, 551246, Note_on_c, 0, 40, 76
1, 551248, Note_on_c, 0, 28, 74
1, 551265, Note_off_c, 0, 46, 65
1, 551265, Note_off_c, 0, 55, 69
1, 551271, Note_off_c, 0, 40, 66
1, 551272, Note_off_c, 0, 28, 63
1, 551371, Note_on_c, 0, 55, 71
1, 551384, Note_on_c, 0, 26, 63
1, 551384, Note_on_c, 0, 38, 60
1, 551400, Note_on_c, 0, 46, 70
1, 551411, Note_off_c, 0, 38, 56
1, 551411, Note_off_c, 0, 55, 63
1, 551416, Note_off_c, 0, 26, 62
1, 551473, Note_off_c, 0, 46, 0
1, 551483, Note_on_c, 0, 37, 75
1, 551486, Note_on_c, 0, 55, 76
1, 551492, Note_on_c, 0, 25, 69
1, 551503, Poly_aftertouch_c, 0, 46, 0
1, 551514, Note_off_c, 0, 37, 66
1, 551531, Note_off_c, 0, 55, 62
1, 551534, Note_off_c, 0, 25, 61
1, 551612, Note_on_c, 0, 46, 78
1, 551616, Note_on_c, 0, 55, 77
1, 551617, Note_on_c, 0, 38, 74
1, 551629, Note_on_c, 0, 26, 59
1, 551643, Note_off_c, 0, 38, 65
1, 551644, Note_off_c, 0, 46, 64
1, 551647, Note_off_c, 0, 55, 62
1, 551661, Note_off_c, 0, 26, 58
1, 551748, Note_on_c, 0, 47, 75
1, 551752, Note_on_c, 0, 54, 68
1, 551775, Note_off_c, 0, 47, 65
1, 551781, Note_off_c, 0, 54, 67
1, 551872, Note_on_c, 0, 52, 75
1, 551888, Note_on_c, 0, 40, 64
1, 551891, Note_on_c, 0, 28, 61
1, 551900, Note_on_c, 0, 49, 50
1, 551918, Note_off_c, 0, 52, 60
1, 551920, Note_off_c, 0, 40, 65
1, 551923, Note_off_c, 0, 28, 61
1, 551928, Note_off_c, 0, 49, 60
1, 552009, Note_on_c, 0, 50, 75
1, 552014, Note_on_c, 0, 42, 73
1, 552036, Note_off_c, 0, 50, 68
1, 552039, Note_off_c, 0, 42, 66
1, 552432, Note_on_c, 0, 30, 44
1, 552437, Note_on_c, 0, 46, 50
1, 552437, Note_on_c, 0, 49, 62
1, 552466, Note_off_c, 0, 49, 64
1, 552467, Note_off_c, 0, 30, 51
1, 552467, Note_off_c, 0, 46, 51
1, 552778, Control_c, 0, 67, 8
1, 552823, Control_c, 0, 67, 9
1, 552958, Note_on_c, 0, 47, 38
1, 552970, Control_c, 0, 67, 9
1, 552975, Note_on_c, 0, 35, 26
1, 552985, Control_c, 0, 67, 10
1, 553000, Control_c, 0, 64, 58
1, 553000, Control_c, 0, 67, 10
1, 553015, Control_c, 0, 64, 67
1, 553015, Control_c, 0, 67, 12
1, 553027, Note_off_c, 0, 47, 62
1, 553030, Control_c, 0, 64, 70
1, 553030, Control_c, 0, 67, 15
1, 553045, Control_c, 0, 64, 71
1, 553045, Control_c, 0, 67, 17
1, 553053, Note_off_c, 0, 35, 59
1, 553060, Control_c, 0, 64, 73
1, 553060, Control_c, 0, 67, 18
1, 553075, Control_c, 0, 64, 74
1, 553075, Control_c, 0, 67, 19
1, 553090, Control_c, 0, 64, 75
1, 553090, Control_c, 0, 67, 20
1, 553105, Control_c, 0, 64, 75
1, 553105, Control_c, 0, 67, 23
1, 553119, Control_c, 0, 67, 27
1, 553134, Control_c, 0, 67, 30
1, 553149, Control_c, 0, 67, 32
1, 553164, Control_c, 0, 64, 75
1, 553164, Control_c, 0, 67, 32
1, 553179, Control_c, 0, 64, 74
1, 553194, Control_c, 0, 64, 73
1, 553209, Control_c, 0, 64, 71
1, 553224, Control_c, 0, 64, 69
1, 553245, Control_c, 0, 64, 66
1, 553260, Control_c, 0, 64, 64
1, 553275, Control_c, 0, 64, 63
1, 553290, Control_c, 0, 64, 61
1, 553305, Control_c, 0, 64, 59
1, 553319, Control_c, 0, 64, 54
1, 553334, Control_c, 0, 64, 47
1, 553349, Control_c, 0, 64, 38
1, 553364, Control_c, 0, 64, 26
1, 553379, Control_c, 0, 64, 19
1, 553394, Control_c, 0, 64, 11
1, 553408, Control_c, 0, 64, 0
1, 553617, Control_c, 0, 67, 33
1, 553661, Control_c, 0, 67, 33
1, 553691, Control_c, 0, 67, 34
1, 553735, Control_c, 0, 67, 34
1, 553750, Control_c, 0, 67, 36
1, 553765, Control_c, 0, 67, 40
1, 553779, Control_c, 0, 67, 41
1, 553794, Control_c, 0, 67, 42
1, 553809, Control_c, 0, 67, 43
1, 553824, Control_c, 0, 67, 44
1, 553839, Control_c, 0, 67, 45
1, 553853, Control_c, 0, 67, 46
1, 553868, Control_c, 0, 67, 47
1, 553883, Control_c, 0, 67, 50
1, 553898, Control_c, 0, 67, 52
1, 553913, Control_c, 0, 67, 53
1, 554009, Control_c, 0, 67, 53
1, 554024, Control_c, 0, 67, 52
1, 554039, Control_c, 0, 67, 52
1, 554054, Control_c, 0, 67, 51
1, 554068, Control_c, 0, 67, 50
1, 554083, Control_c, 0, 67, 50
1, 554113, Control_c, 0, 67, 49
1, 554128, Control_c, 0, 67, 49
1, 554142, Control_c, 0, 67, 48
1, 554172, Control_c, 0, 67, 47
1, 554187, Control_c, 0, 67, 47
1, 554201, Control_c, 0, 67, 46
1, 554216, Control_c, 0, 67, 46
1, 554231, Control_c, 0, 67, 45
1, 554262, Control_c, 0, 67, 45
1, 554277, Control_c, 0, 67, 44
1, 554291, Control_c, 0, 64, 30
1, 554306, Control_c, 0, 64, 47
1, 554321, Control_c, 0, 64, 54
1, 554321, Control_c, 0, 67, 44
1, 554336, Control_c, 0, 64, 58
1, 554351, Control_c, 0, 64, 61
1, 554365, Control_c, 0, 64, 62
1, 554365, Control_c, 0, 67, 43
1, 554380, Control_c, 0, 64, 64
1, 554395, Control_c, 0, 64, 64
1, 554410, Control_c, 0, 64, 65
1, 554425, Control_c, 0, 64, 66
1, 554440, Control_c, 0, 64, 67
1, 554455, Control_c, 0, 64, 68
1, 554455, Control_c, 0, 67, 43
1, 554470, Control_c, 0, 64, 69
1, 554484, Control_c, 0, 64, 70
1, 554484, Control_c, 0, 67, 42
1, 554489, Note_on_c, 0, 69, 39
1, 554499, Control_c, 0, 64, 71
1, 554510, Note_on_c, 0, 57, 23
1, 554514, Control_c, 0, 64, 73
1, 554529, Control_c, 0, 64, 75
1, 554544, Control_c, 0, 64, 76
1, 554544, Control_c, 0, 67, 42
1, 554558, Control_c, 0, 64, 78
1, 554558, Control_c, 0, 67, 41
1, 554568, Note_off_c, 0, 69, 53
1, 554573, Control_c, 0, 64, 79
1, 554588, Control_c, 0, 64, 81
1, 554601, Control_c, 0, 64, 83
1, 554601, Control_c, 0, 67, 41
1, 554616, Control_c, 0, 64, 85
1, 554616, Control_c, 0, 67, 40
1, 554631, Control_c, 0, 64, 86
1, 554646, Control_c, 0, 64, 87
1, 554646, Control_c, 0, 67, 40
1, 554661, Control_c, 0, 67, 39
1, 554667, Note_on_c, 0, 74, 75
1, 554672, Note_off_c, 0, 57, 41
1, 554675, Control_c, 0, 67, 38
1, 554690, Control_c, 0, 67, 37
1, 554705, Note_on_c, 0, 54, 39
1, 554705, Control_c, 0, 67, 37
1, 554714, Note_on_c, 0, 62, 28
1, 554727, Control_c, 0, 67, 36
1, 554742, Control_c, 0, 64, 89
1, 554757, Control_c, 0, 64, 92
1, 554757, Control_c, 0, 67, 35
1, 554772, Poly_aftertouch_c, 0, 66, 127
1, 554772, Control_c, 0, 64, 97
1, 554772, Control_c, 0, 67, 34
1, 554787, Control_c, 0, 64, 101
1, 554787, Control_c, 0, 67, 34
1, 554802, Note_off_c, 0, 74, 58
1, 554802, Control_c, 0, 64, 102
1, 554802, Control_c, 0, 67, 33
1, 554806, Poly_aftertouch_c, 0, 66, 0
1, 554816, Control_c, 0, 64, 102
1, 554816, Control_c, 0, 67, 32
1, 554831, Control_c, 0, 64, 99
1, 554831, Control_c, 0, 67, 32
1, 554846, Control_c, 0, 64, 94
1, 554846, Control_c, 0, 67, 31
1, 554852, Note_off_c, 0, 62, 25
1, 554861, Control_c, 0, 64, 90
1, 554861, Control_c, 0, 67, 30
1, 554868, Note_on_c, 0, 76, 84
1, 554875, Note_on_c, 0, 64, 52
1, 554876, Control_c, 0, 64, 90
1, 554876, Control_c, 0, 67, 29
1, 554885, Note_off_c, 0, 54, 46
1, 554888, Note_on_c, 0, 69, 51
1, 554890, Note_on_c, 0, 57, 43
1, 554890, Control_c, 0, 67, 28
1, 554905, Control_c, 0, 64, 90
1, 554905, Control_c, 0, 67, 26
1, 554920, Control_c, 0, 64, 92
1, 554920, Control_c, 0, 67, 25
1, 554926, Note_off_c, 0, 64, 62
1, 554935, Control_c, 0, 64, 96
1, 554935, Control_c, 0, 67, 23
1, 554950, Control_c, 0, 64, 100
1, 554950, Control_c, 0, 67, 22
1, 554965, Control_c, 0, 64, 104
1, 554965, Control_c, 0, 67, 22
1, 554979, Control_c, 0, 64, 107
1, 554979, Control_c, 0, 67, 21
1, 554994, Control_c, 0, 64, 109
1, 555011, Note_off_c, 0, 69, 26
1, 555039, Control_c, 0, 67, 22
1, 555054, Control_c, 0, 64, 108
1, 555054, Control_c, 0, 67, 22
1, 555069, Note_off_c, 0, 76, 61
1, 555069, Control_c, 0, 64, 105
1, 555069, Control_c, 0, 67, 23
1, 555084, Control_c, 0, 64, 99
1, 555084, Control_c, 0, 67, 23
1, 555099, Control_c, 0, 64, 86
1, 555114, Control_c, 0, 64, 72
1, 555114, Control_c, 0, 67, 24
1, 555124, Note_on_c, 0, 78, 73
1, 555125, Note_off_c, 0, 57, 37
1, 555128, Control_c, 0, 64, 44
1, 555128, Control_c, 0, 67, 24
1, 555138, Note_on_c, 0, 69, 38
1, 555143, Control_c, 0, 64, 0
1, 555144, Note_on_c, 0, 66, 42
1, 555146, Note_on_c, 0, 74, 49
1, 555154, Note_on_c, 0, 62, 40
1, 555158, Control_c, 0, 67, 25
1, 555173, Control_c, 0, 64, 21
1, 555188, Control_c, 0, 64, 50
1, 555188, Control_c, 0, 67, 25
1, 555203, Control_c, 0, 64, 61
1, 555203, Control_c, 0, 67, 26
1, 555218, Control_c, 0, 64, 64
1, 555218, Control_c, 0, 67, 27
1, 555232, Control_c, 0, 64, 66
1, 555232, Control_c, 0, 67, 29
1, 555247, Control_c, 0, 64, 69
1, 555247, Control_c, 0, 67, 32
1, 555262, Control_c, 0, 64, 72
1, 555262, Control_c, 0, 67, 33
1, 555272, Note_off_c, 0, 66, 63
1, 555277, Control_c, 0, 64, 75
1, 555277, Control_c, 0, 67, 36
1, 555290, Note_off_c, 0, 62, 56
1, 555292, Control_c, 0, 64, 78
1, 555292, Control_c, 0, 67, 41
1, 555306, Control_c, 0, 64, 81
1, 555306, Control_c, 0, 67, 46
1, 555321, Control_c, 0, 64, 83
1, 555321, Control_c, 0, 67, 49
1, 555336, Control_c, 0, 64, 84
1, 555336, Control_c, 0, 67, 50
1, 555351, Control_c, 0, 64, 85
1, 555351, Control_c, 0, 67, 51
1, 555365, Control_c, 0, 64, 86
1, 555365, Control_c, 0, 67, 51
1, 555380, Control_c, 0, 64, 88
1, 555395, Control_c, 0, 64, 90
1, 555410, Control_c, 0, 64, 92
1, 555424, Control_c, 0, 64, 93
1, 555424, Control_c, 0, 67, 51
1, 555439, Control_c, 0, 64, 93
1, 555439, Control_c, 0, 67, 50
1, 555454, Control_c, 0, 67, 50
1, 555477, Control_c, 0, 67, 49
1, 555492, Control_c, 0, 64, 94
1, 555492, Control_c, 0, 67, 48
1, 555506, Control_c, 0, 67, 47
1, 555521, Control_c, 0, 67, 47
1, 555526, Note_on_c, 0, 38, 47
1, 555536, Control_c, 0, 67, 46
1, 555550, Control_c, 0, 67, 46
1, 555564, Note_off_c, 0, 38, 60
1, 555565, Control_c, 0, 64, 94
1, 555565, Control_c, 0, 67, 45
1, 555569, Note_on_c, 0, 45, 61
1, 555580, Control_c, 0, 64, 95
1, 555580, Control_c, 0, 67, 44
1, 555595, Control_c, 0, 64, 96
1, 555595, Control_c, 0, 67, 44
1, 555596, Note_off_c, 0, 45, 65
1, 555610, Control_c, 0, 64, 97
1, 555610, Control_c, 0, 67, 43
1, 555624, Control_c, 0, 64, 98
1, 555624, Control_c, 0, 67, 42
1, 555639, Control_c, 0, 64, 98
1, 555639, Control_c, 0, 67, 42
1, 555669, Control_c, 0, 64, 99
1, 555669, Control_c, 0, 67, 41
1, 555684, Control_c, 0, 64, 100
1, 555698, Control_c, 0, 64, 101
1, 555699, Note_off_c, 0, 78, 56
1, 555711, Note_off_c, 0, 69, 44
1, 555728, Control_c, 0, 67, 42
1, 555743, Control_c, 0, 64, 98
1, 555750, Note_off_c, 0, 74, 45
1, 555757, Control_c, 0, 64, 92
1, 555772, Control_c, 0, 64, 89
1, 555788, Note_on_c, 0, 78, 89
1, 555802, Control_c, 0, 64, 90
1, 555802, Control_c, 0, 67, 41
1, 555804, Note_on_c, 0, 66, 54
1, 555808, Note_on_c, 0, 62, 48
1, 555808, Note_on_c, 0, 69, 50
1, 555814, Note_on_c, 0, 74, 35
1, 555817, Control_c, 0, 64, 92
1, 555817, Control_c, 0, 67, 41
1, 555832, Control_c, 0, 64, 96
1, 555847, Control_c, 0, 64, 101
1, 555847, Control_c, 0, 67, 40
1, 555862, Control_c, 0, 64, 110
1, 555868, Note_off_c, 0, 66, 61
1, 555877, Control_c, 0, 64, 120
1, 555883, Note_off_c, 0, 62, 60
1, 555892, Control_c, 0, 64, 127
1, 555892, Control_c, 0, 67, 40
1, 555922, Control_c, 0, 67, 39
1, 555924, Note_off_c, 0, 69, 25
1, 555966, Control_c, 0, 67, 39
1, 555981, Control_c, 0, 67, 38
1, 555996, Control_c, 0, 67, 38
1, 556006, Note_off_c, 0, 74, 42
1, 556011, Control_c, 0, 67, 37
1, 556026, Control_c, 0, 67, 36
1, 556041, Control_c, 0, 67, 35
1, 556055, Control_c, 0, 67, 35
1, 556070, Control_c, 0, 67, 34
1, 556085, Control_c, 0, 67, 33
1, 556100, Control_c, 0, 67, 32
1, 556115, Control_c, 0, 67, 31
1, 556129, Control_c, 0, 67, 29
1, 556137, Note_on_c, 0, 38, 57
1, 556144, Control_c, 0, 67, 27
1, 556159, Control_c, 0, 67, 24
1, 556173, Note_off_c, 0, 78, 0
1, 556173, Control_c, 0, 67, 21
1, 556181, Note_off_c, 0, 38, 62
1, 556187, Note_on_c, 0, 45, 67
1, 556188, Control_c, 0, 67, 18
1, 556203, Control_c, 0, 67, 14
1, 556211, Poly_aftertouch_c, 0, 78, 127
1, 556211, Note_off_c, 0, 45, 65
1, 556218, Control_c, 0, 67, 9
1, 556240, Control_c, 0, 67, 0
1, 556267, Poly_aftertouch_c, 0, 78, 0
1, 556346, Note_on_c, 0, 78, 71
1, 556369, Note_off_c, 0, 78, 69
1, 556376, Note_on_c, 0, 79, 72
1, 556388, Control_c, 0, 64, 117
1, 556403, Control_c, 0, 64, 100
1, 556415, Note_on_c, 0, 76, 50
1, 556418, Control_c, 0, 64, 83
1, 556433, Control_c, 0, 64, 66
1, 556440, Note_off_c, 0, 76, 58
1, 556443, Note_on_c, 0, 78, 72
1, 556447, Control_c, 0, 64, 60
1, 556455, Note_on_c, 0, 66, 41
1, 556461, Note_on_c, 0, 62, 42
1, 556462, Control_c, 0, 64, 66
1, 556465, Note_on_c, 0, 74, 47
1, 556466, Note_off_c, 0, 79, 54
1, 556477, Control_c, 0, 64, 70
1, 556492, Control_c, 0, 64, 73
1, 556507, Control_c, 0, 64, 76
1, 556521, Control_c, 0, 64, 80
1, 556532, Note_off_c, 0, 74, 42
1, 556536, Control_c, 0, 64, 85
1, 556551, Control_c, 0, 64, 90
1, 556566, Control_c, 0, 64, 94
1, 556570, Note_off_c, 0, 78, 62
1, 556580, Control_c, 0, 64, 96
1, 556589, Note_off_c, 0, 66, 54
1, 556595, Control_c, 0, 64, 97
1, 556599, Note_off_c, 0, 62, 54
1, 556610, Control_c, 0, 64, 98
1, 556625, Control_c, 0, 64, 100
1, 556640, Control_c, 0, 64, 101
1, 556656, Control_c, 0, 64, 103
1, 556671, Control_c, 0, 64, 103
1, 556700, Control_c, 0, 64, 104
1, 556715, Control_c, 0, 64, 104
1, 556730, Control_c, 0, 64, 105
1, 556743, Note_on_c, 0, 76, 78
1, 556745, Control_c, 0, 64, 104
1, 556747, Note_on_c, 0, 61, 49
1, 556751, Note_on_c, 0, 64, 50
1, 556759, Control_c, 0, 64, 101
1, 556760, Note_on_c, 0, 73, 65
1, 556774, Control_c, 0, 64, 94
1, 556779, Note_off_c, 0, 73, 64
1, 556789, Control_c, 0, 64, 85
1, 556793, Note_off_c, 0, 64, 63
1, 556795, Note_on_c, 0, 78, 82
1, 556803, Note_off_c, 0, 61, 57
1, 556804, Control_c, 0, 64, 81
1, 556810, Note_on_c, 0, 62, 57
1, 556816, Note_on_c, 0, 66, 57
1, 556817, Note_off_c, 0, 76, 62
1, 556819, Control_c, 0, 64, 83
1, 556819, Note_on_c, 0, 74, 61
1, 556834, Control_c, 0, 64, 86
1, 556848, Note_off_c, 0, 74, 67
1, 556849, Control_c, 0, 64, 93
1, 556860, Note_off_c, 0, 78, 64
1, 556864, Control_c, 0, 64, 100
1, 556869, Note_off_c, 0, 66, 55
1, 556878, Control_c, 0, 64, 108
1, 556883, Note_off_c, 0, 62, 51
1, 556893, Control_c, 0, 64, 116
1, 556908, Control_c, 0, 64, 127
1, 556937, Note_on_c, 0, 78, 72
1, 556987, Note_off_c, 0, 78, 65
1, 556998, Note_on_c, 0, 79, 73
1, 556998, Poly_aftertouch_c, 0, 74, 127
1, 557004, Control_c, 0, 64, 111
1, 557012, Note_on_c, 0, 76, 64
1, 557019, Control_c, 0, 64, 95
1, 557032, Note_on_c, 0, 62, 53
1, 557034, Control_c, 0, 64, 77
1, 557038, Poly_aftertouch_c, 0, 74, 0
1, 557041, Note_on_c, 0, 66, 47
1, 557041, Note_on_c, 0, 78, 74
1, 557043, Note_off_c, 0, 76, 64
1, 557049, Control_c, 0, 64, 59
1, 557056, Note_on_c, 0, 74, 43
1, 557064, Control_c, 0, 64, 47
1, 557077, Note_off_c, 0, 79, 59
1, 557078, Control_c, 0, 64, 62
1, 557093, Control_c, 0, 64, 68
1, 557108, Control_c, 0, 64, 71
1, 557122, Note_off_c, 0, 74, 64
1, 557123, Control_c, 0, 64, 75
1, 557138, Control_c, 0, 64, 79
1, 557153, Control_c, 0, 64, 82
1, 557155, Note_off_c, 0, 78, 63
1, 557167, Control_c, 0, 64, 85
1, 557171, Note_off_c, 0, 66, 56
1, 557182, Control_c, 0, 64, 88
1, 557184, Note_off_c, 0, 62, 56
1, 557197, Control_c, 0, 64, 90
1, 557212, Control_c, 0, 64, 92
1, 557227, Control_c, 0, 64, 95
1, 557242, Control_c, 0, 64, 97
1, 557257, Control_c, 0, 64, 99
1, 557272, Control_c, 0, 64, 100
1, 557301, Control_c, 0, 64, 100
1, 557316, Control_c, 0, 64, 96
1, 557330, Control_c, 0, 64, 88
1, 557334, Note_on_c, 0, 61, 50
1, 557338, Note_on_c, 0, 76, 69
1, 557345, Control_c, 0, 64, 81
1, 557346, Note_on_c, 0, 64, 53
1, 557354, Note_on_c, 0, 73, 65
1, 557360, Control_c, 0, 64, 80
1, 557375, Control_c, 0, 64, 82
1, 557382, Note_off_c, 0, 73, 66
1, 557390, Control_c, 0, 64, 85
1, 557391, Note_off_c, 0, 64, 62
1, 557393, Note_off_c, 0, 61, 60
1, 557396, Note_on_c, 0, 66, 61
1, 557402, Note_on_c, 0, 78, 88
1, 557404, Control_c, 0, 64, 90
1, 557416, Note_on_c, 0, 62, 52
1, 557419, Control_c, 0, 64, 97
1, 557427, Note_off_c, 0, 66, 66
1, 557427, Note_off_c, 0, 76, 60
1, 557433, Note_on_c, 0, 74, 54
1, 557434, Control_c, 0, 64, 102
1, 557450, Control_c, 0, 64, 106
1, 557465, Control_c, 0, 64, 107
1, 557554, Control_c, 0, 64, 107
1, 557561, Note_off_c, 0, 78, 60
1, 557568, Control_c, 0, 64, 104
1, 557583, Control_c, 0, 64, 99
1, 557598, Control_c, 0, 64, 90
1, 557613, Control_c, 0, 64, 77
1, 557627, Control_c, 0, 64, 63
1, 557634, Note_on_c, 0, 81, 76
1, 557635, Note_off_c, 0, 62, 36
1, 557637, Note_off_c, 0, 74, 62
1, 557642, Control_c, 0, 64, 0
1, 557644, Note_on_c, 0, 69, 46
1, 557653, Note_on_c, 0, 66, 45
1, 557653, Note_on_c, 0, 57, 38
1, 557665, Note_on_c, 0, 78, 45
1, 557687, Control_c, 0, 64, 56
1, 557701, Control_c, 0, 64, 64
1, 557716, Control_c, 0, 64, 67
1, 557739, Control_c, 0, 64, 69
1, 557746, Note_off_c, 0, 78, 0
1, 557753, Control_c, 0, 64, 72
1, 557768, Control_c, 0, 64, 76
1, 557775, Note_on_c, 0, 78, 11
1, 557783, Control_c, 0, 64, 79
1, 557792, Note_off_c, 0, 69, 62
1, 557798, Note_off_c, 0, 66, 58
1, 557798, Control_c, 0, 64, 81
1, 557813, Control_c, 0, 64, 83
1, 557827, Control_c, 0, 64, 86
1, 557835, Note_off_c, 0, 78, 49
1, 557842, Control_c, 0, 64, 88
1, 557857, Control_c, 0, 64, 91
1, 557872, Control_c, 0, 64, 93
1, 557887, Control_c, 0, 64, 95
1, 557901, Control_c, 0, 64, 97
1, 557916, Control_c, 0, 64, 99
1, 557931, Control_c, 0, 64, 101
1, 557946, Control_c, 0, 64, 102
1, 557975, Control_c, 0, 64, 102
1, 558005, Control_c, 0, 64, 103
1, 558154, Note_on_c, 0, 66, 40
1, 558159, Note_on_c, 0, 78, 66
1, 558177, Note_off_c, 0, 57, 35
1, 558183, Note_on_c, 0, 62, 34
1, 558209, Note_on_c, 0, 74, 20
1, 558213, Control_c, 0, 67, 8
1, 558227, Control_c, 0, 67, 8
1, 558238, Note_off_c, 0, 81, 32
1, 558243, Control_c, 0, 67, 9
1, 558244, Note_off_c, 0, 66, 59
1, 558258, Control_c, 0, 67, 9
1, 558273, Control_c, 0, 67, 10
1, 558288, Control_c, 0, 67, 11
1, 558303, Control_c, 0, 67, 12
1, 558317, Control_c, 0, 67, 13
1, 558332, Control_c, 0, 64, 99
1, 558332, Control_c, 0, 67, 15
1, 558346, Control_c, 0, 64, 93
1, 558346, Control_c, 0, 67, 18
1, 558361, Control_c, 0, 64, 82
1, 558361, Control_c, 0, 67, 22
1, 558375, Note_off_c, 0, 74, 21
1, 558375, Control_c, 0, 64, 68
1, 558375, Control_c, 0, 67, 26
1, 558376, Note_off_c, 0, 62, 48
1, 558390, Control_c, 0, 64, 55
1, 558390, Control_c, 0, 67, 30
1, 558392, Note_off_c, 0, 78, 49
1, 558398, Note_on_c, 0, 76, 54
1, 558399, Note_on_c, 0, 57, 46
1, 558405, Control_c, 0, 64, 61
1, 558405, Control_c, 0, 67, 33
1, 558413, Note_on_c, 0, 69, 37
1, 558418, Note_on_c, 0, 64, 37
1, 558420, Control_c, 0, 64, 66
1, 558420, Control_c, 0, 67, 36
1, 558435, Control_c, 0, 64, 69
1, 558435, Control_c, 0, 67, 39
1, 558449, Control_c, 0, 64, 72
1, 558449, Control_c, 0, 67, 41
1, 558472, Control_c, 0, 64, 76
1, 558472, Control_c, 0, 67, 43
1, 558485, Note_off_c, 0, 64, 63
1, 558487, Control_c, 0, 64, 80
1, 558487, Control_c, 0, 67, 43
1, 558502, Control_c, 0, 64, 84
1, 558502, Control_c, 0, 67, 44
1, 558509, Note_off_c, 0, 57, 62
1, 558517, Control_c, 0, 64, 87
1, 558531, Control_c, 0, 64, 90
1, 558546, Control_c, 0, 64, 92
1, 558561, Control_c, 0, 64, 94
1, 558575, Control_c, 0, 64, 96
1, 558590, Control_c, 0, 64, 98
1, 558605, Control_c, 0, 64, 100
1, 558605, Control_c, 0, 67, 43
1, 558620, Control_c, 0, 64, 103
1, 558620, Control_c, 0, 67, 43
1, 558635, Control_c, 0, 64, 104
1, 558635, Control_c, 0, 67, 42
1, 558664, Control_c, 0, 64, 105
1, 558679, Control_c, 0, 64, 107
1, 558694, Control_c, 0, 64, 110
1, 558709, Control_c, 0, 64, 114
1, 558723, Control_c, 0, 64, 116
1, 558738, Control_c, 0, 64, 116
1, 558747, Note_on_c, 0, 33, 42
1, 558753, Control_c, 0, 64, 117
1, 558768, Control_c, 0, 64, 120
1, 558783, Control_c, 0, 64, 127
1, 558783, Control_c, 0, 67, 42
1, 558786, Note_off_c, 0, 33, 50
1, 558811, Note_on_c, 0, 45, 62
1, 558813, Control_c, 0, 67, 41
1, 558843, Control_c, 0, 67, 41
1, 558845, Note_off_c, 0, 45, 64
1, 558872, Control_c, 0, 67, 40
1, 558931, Control_c, 0, 67, 40
1, 558970, Note_off_c, 0, 69, 29
1, 558995, Note_off_c, 0, 76, 33
1, 559005, Control_c, 0, 67, 40
1, 559110, Control_c, 0, 64, 112
1, 559125, Control_c, 0, 64, 97
1, 559139, Control_c, 0, 64, 80
1, 559150, Note_on_c, 0, 76, 63
1, 559154, Control_c, 0, 64, 64
1, 559165, Note_on_c, 0, 57, 39
1, 559165, Note_on_c, 0, 64, 41
1, 559166, Note_on_c, 0, 60, 39
1, 559169, Control_c, 0, 64, 0
1, 559170, Note_on_c, 0, 69, 41
1, 559174, Note_on_c, 0, 72, 41
1, 559184, Control_c, 0, 67, 40
1, 559198, Control_c, 0, 64, 38
1, 559198, Control_c, 0, 67, 39
1, 559221, Control_c, 0, 64, 57
1, 559221, Control_c, 0, 67, 38
1, 559236, Control_c, 0, 64, 64
1, 559236, Control_c, 0, 67, 38
1, 559251, Control_c, 0, 64, 68
1, 559266, Control_c, 0, 64, 72
1, 559266, Control_c, 0, 67, 37
1, 559280, Control_c, 0, 64, 77
1, 559280, Control_c, 0, 67, 36
1, 559287, Note_off_c, 0, 64, 63
1, 559295, Control_c, 0, 64, 83
1, 559295, Control_c, 0, 67, 36
1, 559305, Note_off_c, 0, 60, 63
1, 559310, Control_c, 0, 64, 88
1, 559316, Note_off_c, 0, 57, 61
1, 559324, Control_c, 0, 64, 91
1, 559339, Control_c, 0, 64, 94
1, 559354, Control_c, 0, 64, 97
1, 559369, Control_c, 0, 64, 102
1, 559369, Control_c, 0, 67, 36
1, 559384, Control_c, 0, 64, 108
1, 559398, Control_c, 0, 64, 113
1, 559413, Control_c, 0, 64, 117
1, 559428, Control_c, 0, 64, 127
1, 559458, Control_c, 0, 67, 36
1, 559555, Note_on_c, 0, 33, 54
1, 559603, Note_off_c, 0, 33, 60
1, 559606, Control_c, 0, 67, 35
1, 559607, Note_on_c, 0, 40, 61
1, 559636, Note_off_c, 0, 40, 63
1, 559651, Control_c, 0, 67, 34
1, 559665, Control_c, 0, 67, 34
1, 559680, Control_c, 0, 67, 33
1, 559695, Control_c, 0, 67, 32
1, 559710, Control_c, 0, 67, 32
1, 559724, Control_c, 0, 67, 31
1, 559739, Control_c, 0, 67, 30
1, 559740, Note_off_c, 0, 76, 56
1, 559743, Note_off_c, 0, 69, 43
1, 559750, Note_off_c, 0, 72, 57
1, 559754, Control_c, 0, 67, 30
1, 559798, Control_c, 0, 67, 29
1, 559813, Control_c, 0, 67, 29
1, 559828, Control_c, 0, 67, 28
1, 559834, Note_on_c, 0, 76, 87
1, 559844, Control_c, 0, 67, 26
1, 559847, Note_on_c, 0, 69, 51
1, 559855, Note_on_c, 0, 64, 53
1, 559859, Note_on_c, 0, 60, 33
1, 559859, Control_c, 0, 67, 24
1, 559860, Note_on_c, 0, 72, 58
1, 559868, Note_on_c, 0, 57, 48
1, 559874, Control_c, 0, 67, 22
1, 559889, Control_c, 0, 67, 19
1, 559895, Note_off_c, 0, 64, 65
1, 559904, Control_c, 0, 67, 16
1, 559919, Control_c, 0, 67, 12
1, 559922, Note_off_c, 0, 60, 62
1, 559934, Control_c, 0, 67, 0
1, 559940, Note_off_c, 0, 57, 61
1, 560088, Note_off_c, 0, 76, 60
1, 560148, Note_off_c, 0, 72, 43
1, 560163, Note_on_c, 0, 33, 60
1, 560222, Note_on_c, 0, 40, 66
1, 560229, Note_off_c, 0, 33, 59
1, 560250, Note_off_c, 0, 40, 65
1, 560253, Note_off_c, 0, 69, 57
1, 560373, Note_on_c, 0, 76, 75
1, 560399, Note_on_c, 0, 72, 48
1, 560403, Note_off_c, 0, 76, 64
1, 560415, Control_c, 0, 64, 96
1, 560418, Note_on_c, 0, 78, 66
1, 560429, Control_c, 0, 64, 73
1, 560440, Note_off_c, 0, 72, 0
1, 560444, Control_c, 0, 64, 56
1, 560451, Note_on_c, 0, 76, 74
1, 560455, Note_on_c, 0, 72, 52
1, 560459, Control_c, 0, 64, 62
1, 560462, Note_on_c, 0, 60, 49
1, 560463, Note_on_c, 0, 64, 48
1, 560474, Control_c, 0, 64, 66
1, 560489, Control_c, 0, 64, 70
1, 560490, Note_off_c, 0, 78, 63
1, 560503, Control_c, 0, 64, 74
1, 560518, Control_c, 0, 64, 82
1, 560527, Note_off_c, 0, 72, 62
1, 560533, Control_c, 0, 64, 89
1, 560545, Note_off_c, 0, 76, 64
1, 560548, Control_c, 0, 64, 95
1, 560563, Control_c, 0, 64, 99
1, 560566, Note_off_c, 0, 64, 63
1, 560573, Note_off_c, 0, 60, 62
1, 560578, Control_c, 0, 64, 103
1, 560592, Control_c, 0, 64, 107
1, 560607, Control_c, 0, 64, 110
1, 560622, Control_c, 0, 64, 115
1, 560637, Control_c, 0, 64, 127
1, 560743, Note_on_c, 0, 74, 79
1, 560756, Note_on_c, 0, 59, 43
1, 560757, Note_on_c, 0, 71, 57
1, 560761, Note_on_c, 0, 62, 43
1, 560764, Control_c, 0, 64, 108
1, 560777, Note_off_c, 0, 71, 62
1, 560778, Control_c, 0, 64, 87
1, 560793, Control_c, 0, 64, 70
1, 560805, Note_on_c, 0, 76, 84
1, 560808, Control_c, 0, 64, 67
1, 560820, Note_off_c, 0, 59, 57
1, 560821, Note_on_c, 0, 72, 69
1, 560823, Note_off_c, 0, 74, 61
1, 560823, Control_c, 0, 64, 73
1, 560828, Note_off_c, 0, 62, 57
1, 560834, Note_on_c, 0, 64, 64
1, 560834, Note_on_c, 0, 60, 56
1, 560838, Control_c, 0, 64, 78
1, 560852, Control_c, 0, 64, 86
1, 560858, Note_off_c, 0, 72, 54
1, 560867, Control_c, 0, 64, 94
1, 560882, Control_c, 0, 64, 103
1, 560884, Note_off_c, 0, 76, 62
1, 560897, Control_c, 0, 64, 115
1, 560906, Note_off_c, 0, 64, 57
1, 560912, Control_c, 0, 64, 127
1, 560921, Note_off_c, 0, 60, 53
1, 560965, Note_on_c, 0, 76, 73
1, 560973, Note_on_c, 0, 72, 60
1, 560990, Note_off_c, 0, 76, 67
1, 560994, Note_off_c, 0, 72, 64
1, 560998, Note_on_c, 0, 78, 79
1, 561001, Control_c, 0, 64, 109
1, 561016, Control_c, 0, 64, 85
1, 561031, Control_c, 0, 64, 65
1, 561039, Note_on_c, 0, 60, 62
1, 561045, Control_c, 0, 64, 0
1, 561047, Note_on_c, 0, 64, 56
1, 561052, Note_on_c, 0, 72, 67
1, 561053, Note_on_c, 0, 76, 90
1, 561060, Control_c, 0, 64, 53
1, 561075, Control_c, 0, 64, 64
1, 561090, Control_c, 0, 64, 70
1, 561094, Note_off_c, 0, 78, 59
1, 561099, Note_off_c, 0, 72, 60
1, 561105, Control_c, 0, 64, 75
1, 561119, Control_c, 0, 64, 80
1, 561131, Note_off_c, 0, 76, 64
1, 561134, Control_c, 0, 64, 86
1, 561149, Control_c, 0, 64, 91
1, 561162, Note_off_c, 0, 64, 58
1, 561164, Control_c, 0, 64, 95
1, 561171, Note_off_c, 0, 60, 58
1, 561178, Control_c, 0, 64, 97
1, 561193, Control_c, 0, 64, 99
1, 561208, Control_c, 0, 64, 102
1, 561223, Control_c, 0, 64, 104
1, 561237, Control_c, 0, 64, 106
1, 561252, Control_c, 0, 64, 107
1, 561326, Control_c, 0, 64, 101
1, 561331, Note_on_c, 0, 74, 82
1, 561332, Note_on_c, 0, 62, 53
1, 561338, Note_on_c, 0, 59, 54
1, 561341, Control_c, 0, 64, 91
1, 561345, Note_on_c, 0, 71, 57
1, 561356, Control_c, 0, 64, 78
1, 561364, Note_off_c, 0, 71, 64
1, 561370, Control_c, 0, 64, 72
1, 561385, Control_c, 0, 64, 75
1, 561394, Note_off_c, 0, 62, 61
1, 561400, Control_c, 0, 64, 81
1, 561405, Note_on_c, 0, 76, 83
1, 561412, Note_on_c, 0, 64, 53
1, 561412, Note_off_c, 0, 59, 59
1, 561415, Control_c, 0, 64, 88
1, 561418, Note_on_c, 0, 60, 51
1, 561424, Note_off_c, 0, 74, 47
1, 561424, Note_on_c, 0, 72, 63
1, 561430, Control_c, 0, 64, 95
1, 561445, Note_off_c, 0, 64, 66
1, 561446, Control_c, 0, 64, 102
1, 561454, Note_off_c, 0, 60, 64
1, 561461, Control_c, 0, 64, 106
1, 561483, Control_c, 0, 64, 110
1, 561498, Control_c, 0, 64, 112
1, 561555, Note_off_c, 0, 76, 61
1, 561587, Control_c, 0, 64, 110
1, 561601, Control_c, 0, 64, 103
1, 561616, Control_c, 0, 64, 92
1, 561631, Control_c, 0, 64, 77
1, 561644, Note_on_c, 0, 79, 77
1, 561646, Control_c, 0, 64, 60
1, 561648, Note_off_c, 0, 72, 63
1, 561659, Note_on_c, 0, 55, 47
1, 561661, Control_c, 0, 64, 0
1, 561662, Note_on_c, 0, 64, 42
1, 561666, Note_on_c, 0, 67, 43
1, 561682, Note_on_c, 0, 76, 49
1, 561705, Control_c, 0, 64, 54
1, 561719, Control_c, 0, 64, 65
1, 561734, Control_c, 0, 64, 68
1, 561749, Control_c, 0, 64, 72
1, 561764, Control_c, 0, 64, 75
1, 561779, Control_c, 0, 64, 78
1, 561779, Control_c, 0, 67, 8
1, 561794, Control_c, 0, 64, 80
1, 561794, Control_c, 0, 67, 10
1, 561794, Note_off_c, 0, 67, 56
1, 561809, Control_c, 0, 64, 82
1, 561809, Control_c, 0, 67, 12
1, 561823, Note_off_c, 0, 64, 63
1, 561824, Control_c, 0, 64, 84
1, 561824, Control_c, 0, 67, 13
1, 561838, Control_c, 0, 64, 86
1, 561838, Control_c, 0, 67, 15
1, 561845, Note_off_c, 0, 76, 42
1, 561853, Control_c, 0, 64, 89
1, 561853, Control_c, 0, 67, 16
1, 561868, Control_c, 0, 64, 91
1, 561868, Control_c, 0, 67, 17
1, 561883, Control_c, 0, 64, 93
1, 561883, Control_c, 0, 67, 18
1, 561898, Control_c, 0, 64, 95
1, 561898, Control_c, 0, 67, 18
1, 561913, Control_c, 0, 64, 96
1, 561913, Control_c, 0, 67, 19
1, 561927, Control_c, 0, 64, 97
1, 561927, Control_c, 0, 67, 20
1, 561942, Control_c, 0, 67, 22
1, 561957, Control_c, 0, 64, 97
1, 561957, Control_c, 0, 67, 26
1, 561972, Control_c, 0, 67, 28
1, 561987, Control_c, 0, 67, 30
1, 562001, Control_c, 0, 67, 33
1, 562016, Control_c, 0, 67, 34
1, 562031, Control_c, 0, 67, 35
1, 562046, Control_c, 0, 67, 36
1, 562060, Control_c, 0, 67, 36
1, 562075, Control_c, 0, 67, 37
1, 562090, Control_c, 0, 67, 38
1, 562105, Control_c, 0, 67, 40
1, 562106, Note_off_c, 0, 55, 52
1, 562119, Control_c, 0, 67, 42
1, 562126, Note_on_c, 0, 76, 67
1, 562134, Control_c, 0, 67, 43
1, 562135, Note_on_c, 0, 64, 41
1, 562149, Note_on_c, 0, 60, 35
1, 562149, Control_c, 0, 67, 44
1, 562162, Note_on_c, 0, 72, 25
1, 562164, Control_c, 0, 67, 45
1, 562179, Control_c, 0, 67, 46
1, 562193, Control_c, 0, 67, 47
1, 562216, Control_c, 0, 67, 48
1, 562220, Note_off_c, 0, 79, 35
1, 562231, Control_c, 0, 67, 49
1, 562238, Note_off_c, 0, 72, 37
1, 562247, Control_c, 0, 64, 97
1, 562247, Control_c, 0, 67, 50
1, 562262, Control_c, 0, 64, 96
1, 562262, Control_c, 0, 67, 51
1, 562277, Control_c, 0, 64, 96
1, 562277, Control_c, 0, 67, 52
1, 562292, Control_c, 0, 64, 95
1, 562292, Control_c, 0, 67, 52
1, 562306, Control_c, 0, 64, 94
1, 562306, Control_c, 0, 67, 53
1, 562321, Control_c, 0, 64, 94
1, 562321, Control_c, 0, 67, 54
1, 562336, Control_c, 0, 64, 92
1, 562350, Control_c, 0, 64, 91
1, 562350, Control_c, 0, 67, 55
1, 562365, Control_c, 0, 64, 87
1, 562365, Control_c, 0, 67, 56
1, 562380, Control_c, 0, 64, 80
1, 562380, Control_c, 0, 67, 56
1, 562390, Note_off_c, 0, 60, 54
1, 562395, Control_c, 0, 64, 70
1, 562395, Control_c, 0, 67, 57
1, 562410, Control_c, 0, 64, 45
1, 562410, Control_c, 0, 67, 57
1, 562417, Note_off_c, 0, 64, 42
1, 562424, Control_c, 0, 64, 0
1, 562425, Note_off_c, 0, 76, 57
1, 562434, Note_on_c, 0, 74, 58
1, 562438, Note_on_c, 0, 55, 32
1, 562439, Control_c, 0, 64, 27
1, 562446, Note_on_c, 0, 67, 38
1, 562453, Note_on_c, 0, 62, 36
1, 562454, Control_c, 0, 64, 56
1, 562469, Control_c, 0, 64, 64
1, 562484, Control_c, 0, 64, 68
1, 562498, Control_c, 0, 64, 72
1, 562498, Control_c, 0, 67, 57
1, 562513, Control_c, 0, 64, 78
1, 562513, Control_c, 0, 67, 56
1, 562528, Control_c, 0, 64, 82
1, 562528, Control_c, 0, 67, 55
1, 562538, Note_off_c, 0, 62, 59
1, 562542, Control_c, 0, 64, 85
1, 562542, Control_c, 0, 67, 55
1, 562557, Control_c, 0, 64, 87
1, 562557, Control_c, 0, 67, 54
1, 562563, Note_off_c, 0, 55, 58
1, 562572, Control_c, 0, 64, 89
1, 562587, Control_c, 0, 64, 91
1, 562602, Control_c, 0, 64, 94
1, 562602, Control_c, 0, 67, 53
1, 562617, Control_c, 0, 64, 96
1, 562631, Control_c, 0, 64, 97
1, 562631, Control_c, 0, 67, 53
1, 562646, Control_c, 0, 64, 98
1, 562646, Control_c, 0, 67, 52
1, 562661, Control_c, 0, 64, 98
1, 562691, Control_c, 0, 64, 99
1, 562795, Control_c, 0, 64, 98
1, 562810, Note_on_c, 0, 31, 43
1, 562810, Control_c, 0, 64, 92
1, 562824, Control_c, 0, 64, 83
1, 562838, Control_c, 0, 64, 72
1, 562853, Control_c, 0, 64, 67
1, 562867, Control_c, 0, 64, 69
1, 562882, Control_c, 0, 64, 72
1, 562893, Note_on_c, 0, 43, 43
1, 562897, Note_off_c, 0, 31, 57
1, 562897, Control_c, 0, 64, 75
1, 562897, Control_c, 0, 67, 52
1, 562912, Control_c, 0, 64, 78
1, 562912, Control_c, 0, 67, 51
1, 562927, Control_c, 0, 64, 82
1, 562931, Note_off_c, 0, 43, 63
1, 562941, Control_c, 0, 64, 86
1, 562956, Control_c, 0, 64, 90
1, 562956, Control_c, 0, 67, 51
1, 562979, Control_c, 0, 64, 93
1, 562979, Control_c, 0, 67, 50
1, 562994, Control_c, 0, 64, 94
1, 562994, Control_c, 0, 67, 50
1, 563009, Control_c, 0, 64, 95
1, 563023, Control_c, 0, 64, 97
1, 563023, Control_c, 0, 67, 50
1, 563039, Control_c, 0, 64, 99
1, 563054, Control_c, 0, 64, 100
1, 563113, Control_c, 0, 67, 51
1, 563124, Note_off_c, 0, 67, 38
1, 563177, Note_off_c, 0, 74, 38
1, 563217, Control_c, 0, 67, 51
1, 563261, Control_c, 0, 64, 99
1, 563276, Control_c, 0, 64, 94
1, 563291, Control_c, 0, 64, 87
1, 563293, Note_on_c, 0, 74, 59
1, 563306, Control_c, 0, 64, 75
1, 563308, Note_on_c, 0, 70, 50
1, 563310, Note_on_c, 0, 67, 40
1, 563312, Note_on_c, 0, 62, 37
1, 563318, Note_on_c, 0, 55, 37
1, 563320, Control_c, 0, 64, 64
1, 563326, Note_on_c, 0, 58, 34
1, 563335, Control_c, 0, 64, 48
1, 563350, Control_c, 0, 64, 56
1, 563365, Control_c, 0, 64, 61
1, 563365, Control_c, 0, 67, 51
1, 563380, Control_c, 0, 64, 64
1, 563395, Control_c, 0, 64, 67
1, 563409, Control_c, 0, 64, 71
1, 563409, Control_c, 0, 67, 50
1, 563424, Control_c, 0, 64, 75
1, 563439, Control_c, 0, 64, 79
1, 563442, Note_off_c, 0, 62, 59
1, 563454, Control_c, 0, 64, 82
1, 563454, Control_c, 0, 67, 50
1, 563462, Note_off_c, 0, 55, 58
1, 563469, Note_off_c, 0, 58, 58
1, 563469, Control_c, 0, 64, 85
1, 563484, Control_c, 0, 64, 89
1, 563498, Control_c, 0, 64, 92
1, 563513, Control_c, 0, 64, 96
1, 563528, Control_c, 0, 64, 98
1, 563543, Control_c, 0, 64, 100
1, 563543, Control_c, 0, 67, 50
1, 563558, Control_c, 0, 64, 102
1, 563572, Control_c, 0, 64, 103
1, 563587, Control_c, 0, 64, 104
1, 563587, Control_c, 0, 67, 50
1, 563602, Control_c, 0, 64, 105
1, 563617, Control_c, 0, 64, 106
1, 563632, Control_c, 0, 64, 108
1, 563632, Control_c, 0, 67, 49
1, 563676, Control_c, 0, 64, 103
1, 563690, Control_c, 0, 64, 99
1, 563690, Control_c, 0, 67, 49
1, 563691, Note_on_c, 0, 31, 56
1, 563743, Control_c, 0, 67, 48
1, 563752, Note_off_c, 0, 31, 61
1, 563755, Note_on_c, 0, 38, 62
1, 563758, Control_c, 0, 64, 100
1, 563758, Control_c, 0, 67, 48
1, 563772, Control_c, 0, 64, 103
1, 563772, Control_c, 0, 67, 47
1, 563785, Note_off_c, 0, 38, 65
1, 563787, Control_c, 0, 64, 108
1, 563787, Control_c, 0, 67, 47
1, 563802, Control_c, 0, 64, 112
1, 563802, Control_c, 0, 67, 46
1, 563817, Control_c, 0, 64, 114
1, 563817, Control_c, 0, 67, 46
1, 563832, Control_c, 0, 64, 115
1, 563832, Control_c, 0, 67, 45
1, 563845, Note_off_c, 0, 67, 46
1, 563848, Control_c, 0, 64, 121
1, 563862, Note_off_c, 0, 74, 58
1, 563862, Control_c, 0, 64, 127
1, 563862, Control_c, 0, 67, 44
1, 563877, Note_off_c, 0, 70, 58
1, 563877, Control_c, 0, 67, 44
1, 563921, Control_c, 0, 64, 114
1, 563936, Control_c, 0, 64, 109
1, 563936, Control_c, 0, 67, 43
1, 563951, Control_c, 0, 64, 108
1, 563966, Control_c, 0, 67, 42
1, 563972, Note_on_c, 0, 74, 81
1, 563981, Control_c, 0, 64, 109
1, 563985, Note_on_c, 0, 70, 66
1, 563990, Note_on_c, 0, 67, 52
1, 563995, Note_on_c, 0, 58, 51
1, 563995, Control_c, 0, 67, 41
1, 563996, Note_on_c, 0, 62, 48
1, 563997, Note_on_c, 0, 55, 47
1, 564010, Control_c, 0, 64, 111
1, 564010, Control_c, 0, 67, 40
1, 564025, Control_c, 0, 64, 118
1, 564025, Control_c, 0, 67, 38
1, 564038, Note_off_c, 0, 62, 61
1, 564040, Control_c, 0, 64, 127
1, 564040, Control_c, 0, 67, 36
1, 564055, Control_c, 0, 67, 34
1, 564062, Note_off_c, 0, 58, 57
1, 564069, Control_c, 0, 67, 32
1, 564079, Note_off_c, 0, 55, 63
1, 564084, Control_c, 0, 67, 29
1, 564099, Control_c, 0, 67, 25
1, 564113, Control_c, 0, 67, 22
1, 564128, Control_c, 0, 67, 20
1, 564143, Control_c, 0, 67, 18
1, 564155, Note_off_c, 0, 67, 56
1, 564158, Control_c, 0, 67, 17
1, 564173, Control_c, 0, 67, 15
1, 564187, Control_c, 0, 67, 13
1, 564202, Control_c, 0, 67, 10
1, 564217, Control_c, 0, 67, 8
1, 564227, Note_off_c, 0, 70, 59
1, 564232, Control_c, 0, 67, 0
1, 564248, Note_off_c, 0, 74, 60
1, 564285, Note_on_c, 0, 31, 69
1, 564337, Note_off_c, 0, 31, 61
1, 564341, Note_on_c, 0, 38, 63
1, 564374, Note_off_c, 0, 38, 59
1, 564489, Note_on_c, 0, 74, 64
1, 564490, Note_on_c, 0, 70, 59
1, 564509, Note_off_c, 0, 74, 67
1, 564515, Note_off_c, 0, 70, 63
1, 564517, Note_on_c, 0, 76, 72
1, 564536, Control_c, 0, 64, 96
1, 564551, Control_c, 0, 64, 75
1, 564566, Control_c, 0, 64, 55
1, 564570, Note_on_c, 0, 74, 78
1, 564581, Control_c, 0, 64, 53
1, 564584, Note_on_c, 0, 58, 52
1, 564590, Note_on_c, 0, 62, 49
1, 564595, Control_c, 0, 64, 63
1, 564599, Note_off_c, 0, 76, 60
1, 564600, Note_on_c, 0, 70, 45
1, 564610, Control_c, 0, 64, 66
1, 564625, Control_c, 0, 64, 70
1, 564641, Control_c, 0, 64, 75
1, 564655, Control_c, 0, 64, 80
1, 564667, Note_off_c, 0, 70, 63
1, 564670, Note_off_c, 0, 74, 64
1, 564670, Control_c, 0, 64, 85
1, 564681, Note_off_c, 0, 62, 59
1, 564685, Control_c, 0, 64, 89
1, 564691, Note_off_c, 0, 58, 58
1, 564700, Control_c, 0, 64, 92
1, 564715, Control_c, 0, 64, 93
1, 564730, Control_c, 0, 64, 95
1, 564744, Control_c, 0, 64, 97
1, 564759, Control_c, 0, 64, 99
1, 564774, Control_c, 0, 64, 100
1, 564789, Control_c, 0, 64, 102
1, 564804, Control_c, 0, 64, 103
1, 564818, Control_c, 0, 64, 103
1, 564833, Control_c, 0, 64, 104
1, 564848, Control_c, 0, 64, 105
1, 564859, Note_on_c, 0, 57, 54
1, 564863, Control_c, 0, 64, 104
1, 564864, Note_on_c, 0, 61, 65
1, 564864, Note_on_c, 0, 73, 76
1, 564867, Note_on_c, 0, 69, 72
1, 564878, Control_c, 0, 64, 97
1, 564891, Note_off_c, 0, 69, 66
1, 564892, Control_c, 0, 64, 82
1, 564893, Note_off_c, 0, 73, 59
1, 564907, Control_c, 0, 64, 67
1, 564922, Control_c, 0, 64, 65
1, 564935, Note_on_c, 0, 74, 86
1, 564936, Control_c, 0, 64, 70
1, 564938, Note_off_c, 0, 61, 60
1, 564942, Note_on_c, 0, 58, 62
1, 564944, Note_on_c, 0, 70, 73
1, 564946, Note_on_c, 0, 62, 61
1, 564951, Control_c, 0, 64, 75
1, 564953, Note_off_c, 0, 57, 48
1, 564966, Control_c, 0, 64, 81
1, 564981, Control_c, 0, 64, 88
1, 564986, Note_off_c, 0, 70, 58
1, 564989, Note_off_c, 0, 62, 54
1, 564996, Note_off_c, 0, 74, 65
1, 564996, Control_c, 0, 64, 95
1, 565010, Note_off_c, 0, 58, 53
1, 565010, Control_c, 0, 64, 100
1, 565025, Control_c, 0, 64, 104
1, 565040, Control_c, 0, 64, 107
1, 565055, Control_c, 0, 64, 108
1, 565085, Note_on_c, 0, 70, 75
1, 565087, Note_on_c, 0, 74, 75
1, 565109, Note_off_c, 0, 74, 72
1, 565109, Note_off_c, 0, 70, 62
1, 565114, Control_c, 0, 64, 106
1, 565118, Note_on_c, 0, 76, 73
1, 565129, Control_c, 0, 64, 96
1, 565143, Control_c, 0, 64, 82
1, 565158, Control_c, 0, 64, 66
1, 565160, Note_on_c, 0, 72, 42
1, 565163, Note_on_c, 0, 58, 51
1, 565163, Note_on_c, 0, 62, 53
1, 565170, Note_on_c, 0, 74, 82
1, 565173, Control_c, 0, 64, 59
1, 565186, Note_off_c, 0, 72, 56
1, 565188, Control_c, 0, 64, 64
1, 565189, Note_on_c, 0, 70, 68
1, 565194, Note_off_c, 0, 76, 64
1, 565203, Control_c, 0, 64, 68
1, 565225, Control_c, 0, 64, 71
1, 565240, Control_c, 0, 64, 76
1, 565255, Control_c, 0, 64, 83
1, 565261, Note_off_c, 0, 62, 57
1, 565264, Note_off_c, 0, 70, 62
1, 565267, Note_off_c, 0, 74, 64
1, 565269, Control_c, 0, 64, 91
1, 565284, Control_c, 0, 64, 95
1, 565296, Note_off_c, 0, 58, 49
1, 565299, Control_c, 0, 64, 98
1, 565314, Control_c, 0, 64, 101
1, 565329, Control_c, 0, 64, 105
1, 565343, Control_c, 0, 64, 109
1, 565358, Control_c, 0, 64, 112
1, 565373, Control_c, 0, 64, 115
1, 565388, Control_c, 0, 64, 115
1, 565448, Control_c, 0, 64, 115
1, 565461, Note_on_c, 0, 57, 49
1, 565463, Control_c, 0, 64, 114
1, 565471, Note_on_c, 0, 61, 59
1, 565478, Control_c, 0, 64, 103
1, 565481, Note_on_c, 0, 73, 80
1, 565487, Note_on_c, 0, 69, 68
1, 565493, Control_c, 0, 64, 88
1, 565508, Control_c, 0, 64, 71
1, 565513, Note_off_c, 0, 69, 67
1, 565521, Note_off_c, 0, 73, 59
1, 565522, Control_c, 0, 64, 53
1, 565537, Control_c, 0, 64, 60
1, 565552, Control_c, 0, 64, 66
1, 565553, Note_off_c, 0, 57, 57
1, 565557, Note_on_c, 0, 62, 56
1, 565557, Note_on_c, 0, 70, 71
1, 565558, Note_off_c, 0, 61, 57
1, 565561, Note_on_c, 0, 74, 85
1, 565566, Control_c, 0, 64, 71
1, 565567, Note_on_c, 0, 58, 48
1, 565581, Control_c, 0, 64, 76
1, 565596, Note_off_c, 0, 70, 58
1, 565596, Control_c, 0, 64, 82
1, 565599, Note_off_c, 0, 62, 61
1, 565606, Note_off_c, 0, 58, 62
1, 565611, Control_c, 0, 64, 89
1, 565626, Control_c, 0, 64, 95
1, 565640, Control_c, 0, 64, 100
1, 565655, Control_c, 0, 64, 102
1, 565670, Control_c, 0, 64, 104
1, 565685, Control_c, 0, 64, 106
1, 565729, Note_off_c, 0, 74, 63
1, 565788, Control_c, 0, 64, 105
1, 565803, Control_c, 0, 64, 101
1, 565818, Control_c, 0, 64, 94
1, 565833, Control_c, 0, 64, 81
1, 565839, Note_on_c, 0, 81, 78
1, 565848, Control_c, 0, 64, 68
1, 565858, Note_on_c, 0, 77, 58
1, 565863, Control_c, 0, 64, 27
1, 565869, Note_on_c, 0, 57, 38
1, 565869, Note_on_c, 0, 65, 41
1, 565869, Note_on_c, 0, 69, 35
1, 565878, Control_c, 0, 64, 0
1, 565907, Control_c, 0, 64, 37
1, 565922, Control_c, 0, 64, 49
1, 565937, Control_c, 0, 64, 58
1, 565952, Control_c, 0, 64, 63
1, 565974, Control_c, 0, 64, 67
1, 565989, Control_c, 0, 64, 70
1, 566004, Control_c, 0, 64, 72
1, 566019, Control_c, 0, 64, 75
1, 566034, Control_c, 0, 64, 78
1, 566048, Control_c, 0, 64, 80
1, 566059, Note_off_c, 0, 69, 50
1, 566060, Note_off_c, 0, 77, 39
1, 566063, Control_c, 0, 64, 83
1, 566063, Control_c, 0, 67, 8
1, 566069, Note_off_c, 0, 65, 60
1, 566078, Control_c, 0, 64, 85
1, 566078, Control_c, 0, 67, 9
1, 566092, Control_c, 0, 64, 87
1, 566092, Control_c, 0, 67, 11
1, 566107, Control_c, 0, 64, 89
1, 566107, Control_c, 0, 67, 12
1, 566122, Control_c, 0, 64, 91
1, 566122, Control_c, 0, 67, 13
1, 566137, Control_c, 0, 64, 93
1, 566137, Control_c, 0, 67, 15
1, 566152, Control_c, 0, 64, 95
1, 566152, Control_c, 0, 67, 18
1, 566167, Control_c, 0, 64, 97
1, 566167, Control_c, 0, 67, 21
1, 566182, Control_c, 0, 64, 98
1, 566182, Control_c, 0, 67, 23
1, 566197, Control_c, 0, 67, 25
1, 566211, Control_c, 0, 64, 98
1, 566211, Control_c, 0, 67, 27
1, 566226, Control_c, 0, 64, 99
1, 566226, Control_c, 0, 67, 30
1, 566242, Control_c, 0, 64, 100
1, 566242, Control_c, 0, 67, 32
1, 566257, Control_c, 0, 64, 101
1, 566257, Control_c, 0, 67, 34
1, 566271, Control_c, 0, 67, 35
1, 566286, Control_c, 0, 67, 36
1, 566301, Control_c, 0, 67, 37
1, 566316, Control_c, 0, 67, 38
1, 566331, Control_c, 0, 64, 101
1, 566346, Control_c, 0, 67, 38
1, 566361, Control_c, 0, 67, 39
1, 566372, Note_on_c, 0, 65, 38
1, 566375, Note_on_c, 0, 77, 60
1, 566389, Note_off_c, 0, 57, 37
1, 566394, Note_on_c, 0, 62, 36
1, 566399, Note_on_c, 0, 74, 42
1, 566420, Control_c, 0, 67, 39
1, 566426, Note_off_c, 0, 81, 34
1, 566464, Control_c, 0, 67, 39
1, 566478, Note_off_c, 0, 74, 35
1, 566494, Control_c, 0, 67, 38
1, 566538, Control_c, 0, 67, 38
1, 566582, Control_c, 0, 64, 100
1, 566597, Control_c, 0, 64, 93
1, 566597, Control_c, 0, 67, 37
1, 566603, Note_off_c, 0, 62, 46
1, 566612, Control_c, 0, 64, 81
1, 566612, Control_c, 0, 67, 37
1, 566613, Note_off_c, 0, 77, 57
1, 566627, Note_off_c, 0, 65, 49
1, 566627, Control_c, 0, 64, 66
1, 566627, Control_c, 0, 67, 36
1, 566628, Note_on_c, 0, 76, 55
1, 566635, Note_on_c, 0, 64, 47
1, 566642, Control_c, 0, 64, 0
1, 566642, Control_c, 0, 67, 36
1, 566650, Note_on_c, 0, 57, 33
1, 566653, Note_on_c, 0, 69, 30
1, 566656, Control_c, 0, 67, 35
1, 566671, Control_c, 0, 64, 47
1, 566671, Control_c, 0, 67, 34
1, 566686, Control_c, 0, 64, 58
1, 566686, Control_c, 0, 67, 34
1, 566708, Control_c, 0, 64, 65
1, 566708, Control_c, 0, 67, 33
1, 566723, Control_c, 0, 64, 70
1, 566723, Control_c, 0, 67, 33
1, 566727, Note_off_c, 0, 64, 63
1, 566738, Control_c, 0, 64, 75
1, 566738, Control_c, 0, 67, 32
1, 566753, Control_c, 0, 64, 81
1, 566753, Control_c, 0, 67, 30
1, 566758, Note_off_c, 0, 57, 62
1, 566768, Control_c, 0, 64, 86
1, 566782, Control_c, 0, 64, 92
1, 566782, Control_c, 0, 67, 30
1, 566797, Control_c, 0, 64, 99
1, 566812, Control_c, 0, 64, 105
1, 566812, Control_c, 0, 67, 29
1, 566827, Control_c, 0, 64, 112
1, 566827, Control_c, 0, 67, 29
1, 566842, Control_c, 0, 64, 126
1, 566842, Control_c, 0, 67, 28
1, 566856, Control_c, 0, 64, 127
1, 566857, Note_off_c, 0, 76, 57
1, 566871, Control_c, 0, 67, 28
1, 566886, Control_c, 0, 67, 27
1, 566901, Control_c, 0, 67, 27
1, 566915, Control_c, 0, 67, 26
1, 566930, Control_c, 0, 67, 24
1, 566945, Control_c, 0, 67, 21
1, 566960, Control_c, 0, 67, 16
1, 566962, Note_on_c, 0, 33, 62
1, 566975, Control_c, 0, 67, 9
1, 566989, Control_c, 0, 67, 0
1, 566995, Note_off_c, 0, 33, 60
1, 567004, Note_on_c, 0, 45, 68
1, 567031, Note_off_c, 0, 45, 66
1, 567088, Note_off_c, 0, 69, 42
1, 567258, Note_on_c, 0, 81, 81
1, 567273, Control_c, 0, 64, 92
1, 567276, Note_on_c, 0, 77, 64
1, 567281, Note_on_c, 0, 65, 56
1, 567284, Note_on_c, 0, 69, 54
1, 567285, Note_on_c, 0, 57, 43
1, 567287, Control_c, 0, 64, 71
1, 567302, Control_c, 0, 64, 31
1, 567317, Control_c, 0, 64, 28
1, 567331, Control_c, 0, 64, 56
1, 567346, Control_c, 0, 64, 63
1, 567361, Control_c, 0, 64, 66
1, 567376, Control_c, 0, 64, 70
1, 567391, Control_c, 0, 64, 75
1, 567405, Control_c, 0, 64, 79
1, 567420, Control_c, 0, 64, 83
1, 567435, Control_c, 0, 64, 88
1, 567450, Control_c, 0, 64, 92
1, 567472, Control_c, 0, 64, 95
1, 567486, Note_off_c, 0, 69, 57
1, 567487, Control_c, 0, 64, 98
1, 567490, Note_off_c, 0, 77, 56
1, 567500, Note_off_c, 0, 65, 61
1, 567502, Control_c, 0, 64, 102
1, 567517, Control_c, 0, 64, 107
1, 567532, Control_c, 0, 64, 112
1, 567546, Control_c, 0, 64, 120
1, 567561, Control_c, 0, 64, 127
1, 567755, Note_on_c, 0, 77, 71
1, 567759, Note_off_c, 0, 81, 53
1, 567759, Note_off_c, 0, 57, 51
1, 567763, Note_on_c, 0, 65, 41
1, 567781, Note_on_c, 0, 74, 46
1, 567784, Note_on_c, 0, 62, 40
1, 567925, Note_off_c, 0, 74, 36
1, 567961, Control_c, 0, 64, 115
1, 567976, Control_c, 0, 64, 103
1, 567980, Note_off_c, 0, 62, 58
1, 567991, Control_c, 0, 64, 88
1, 568003, Note_off_c, 0, 65, 55
1, 568006, Control_c, 0, 64, 71
1, 568007, Note_off_c, 0, 77, 57
1, 568012, Note_on_c, 0, 76, 62
1, 568021, Control_c, 0, 64, 0
1, 568025, Note_on_c, 0, 57, 41
1, 568027, Note_on_c, 0, 64, 48
1, 568042, Note_on_c, 0, 69, 37
1, 568051, Control_c, 0, 64, 48
1, 568066, Control_c, 0, 64, 61
1, 568080, Control_c, 0, 64, 66
1, 568095, Control_c, 0, 64, 72
1, 568108, Note_off_c, 0, 64, 64
1, 568110, Control_c, 0, 64, 79
1, 568125, Control_c, 0, 64, 89
1, 568134, Note_off_c, 0, 57, 62
1, 568140, Control_c, 0, 64, 98
1, 568154, Control_c, 0, 64, 106
1, 568169, Control_c, 0, 64, 115
1, 568184, Control_c, 0, 64, 127
1, 568237, Note_off_c, 0, 69, 51
1, 568293, Note_off_c, 0, 76, 61
1, 568362, Note_on_c, 0, 33, 78
1, 568410, Note_on_c, 0, 45, 90
1, 568417, Note_off_c, 0, 33, 61
1, 568438, Note_off_c, 0, 45, 65
1, 568621, Control_c, 0, 64, 104
1, 568637, Control_c, 0, 64, 81
1, 568652, Control_c, 0, 64, 74
1, 568654, Note_on_c, 0, 89, 99
1, 568659, Note_on_c, 0, 77, 84
1, 568666, Control_c, 0, 64, 78
1, 568670, Note_on_c, 0, 57, 49
1, 568670, Note_on_c, 0, 86, 60
1, 568671, Note_on_c, 0, 62, 62
1, 568672, Note_on_c, 0, 65, 63
1, 568681, Control_c, 0, 64, 86
1, 568688, Note_off_c, 0, 86, 67
1, 568696, Control_c, 0, 64, 98
1, 568703, Note_on_c, 0, 59, 33
1, 568704, Note_off_c, 0, 77, 61
1, 568710, Control_c, 0, 64, 113
1, 568725, Control_c, 0, 64, 127
1, 568728, Note_off_c, 0, 89, 64
1, 568745, Note_off_c, 0, 59, 45
1, 568757, Note_off_c, 0, 65, 62
1, 568918, Note_off_c, 0, 62, 36
1, 568994, Note_on_c, 0, 93, 104
1, 569000, Note_on_c, 0, 81, 89
1, 569002, Note_on_c, 0, 65, 70
1, 569004, Note_on_c, 0, 69, 70
1, 569025, Note_off_c, 0, 81, 64
1, 569027, Note_off_c, 0, 69, 69
1, 569046, Note_off_c, 0, 93, 61
1, 569052, Note_off_c, 0, 65, 59
1, 569093, Note_on_c, 0, 89, 98
1, 569100, Note_on_c, 0, 77, 95
1, 569106, Note_on_c, 0, 86, 79
1, 569109, Note_on_c, 0, 65, 74
1, 569112, Note_on_c, 0, 62, 73
1, 569168, Note_off_c, 0, 57, 44
1, 569202, Note_off_c, 0, 65, 55
1, 569222, Note_off_c, 0, 77, 58
1, 569236, Note_off_c, 0, 62, 56
1, 569249, Note_off_c, 0, 89, 60
1, 569253, Note_off_c, 0, 86, 60
1, 569309, Control_c, 0, 64, 110
1, 569324, Note_on_c, 0, 89, 103
1, 569324, Control_c, 0, 64, 79
1, 569327, Note_on_c, 0, 77, 92
1, 569335, Note_on_c, 0, 65, 73
1, 569337, Note_on_c, 0, 62, 74
1, 569339, Control_c, 0, 64, 65
1, 569340, Note_on_c, 0, 86, 75
1, 569350, Note_on_c, 0, 57, 64
1, 569354, Control_c, 0, 64, 69
1, 569369, Control_c, 0, 64, 74
1, 569371, Note_off_c, 0, 86, 57
1, 569383, Note_off_c, 0, 77, 64
1, 569383, Control_c, 0, 64, 82
1, 569398, Control_c, 0, 64, 93
1, 569403, Note_off_c, 0, 89, 63
1, 569413, Control_c, 0, 64, 106
1, 569429, Control_c, 0, 64, 121
1, 569431, Note_off_c, 0, 65, 63
1, 569444, Control_c, 0, 64, 127
1, 569462, Note_off_c, 0, 62, 55
1, 569642, Note_on_c, 0, 69, 66
1, 569645, Note_on_c, 0, 65, 66
1, 569648, Note_on_c, 0, 93, 100
1, 569653, Note_on_c, 0, 81, 89
1, 569667, Note_off_c, 0, 69, 68
1, 569672, Note_off_c, 0, 81, 68
1, 569690, Note_off_c, 0, 93, 66
1, 569709, Note_off_c, 0, 65, 62
1, 569747, Note_on_c, 0, 89, 101
1, 569755, Note_on_c, 0, 77, 96
1, 569760, Note_on_c, 0, 62, 76
1, 569762, Note_on_c, 0, 65, 75
1, 569767, Note_off_c, 0, 57, 59
1, 569820, Note_off_c, 0, 89, 64
1, 569907, Note_off_c, 0, 77, 53
1, 569970, Control_c, 0, 64, 100
1, 569985, Control_c, 0, 64, 70
1, 569996, Note_off_c, 0, 62, 61
1, 570000, Control_c, 0, 64, 0
1, 570001, Note_on_c, 0, 88, 100
1, 570003, Note_on_c, 0, 81, 74
1, 570004, Note_on_c, 0, 76, 89
1, 570005, Note_on_c, 0, 85, 83
1, 570006, Note_on_c, 0, 64, 78
1, 570009, Note_off_c, 0, 65, 64
1, 570010, Note_on_c, 0, 57, 65
1, 570059, Control_c, 0, 64, 55
1, 570074, Control_c, 0, 64, 68
1, 570075, Note_off_c, 0, 64, 65
1, 570089, Control_c, 0, 64, 74
1, 570093, Note_off_c, 0, 57, 63
1, 570104, Control_c, 0, 64, 81
1, 570119, Control_c, 0, 64, 88
1, 570133, Control_c, 0, 64, 94
1, 570148, Control_c, 0, 64, 100
1, 570163, Control_c, 0, 64, 105
1, 570178, Control_c, 0, 64, 110
1, 570193, Control_c, 0, 64, 115
1, 570207, Control_c, 0, 64, 118
1, 570222, Control_c, 0, 64, 119
1, 570238, Control_c, 0, 64, 121
1, 570253, Control_c, 0, 64, 123
1, 570268, Control_c, 0, 64, 124
1, 570283, Control_c, 0, 64, 123
1, 570298, Control_c, 0, 64, 121
1, 570312, Control_c, 0, 64, 103
1, 570327, Control_c, 0, 64, 88
1, 570333, Note_on_c, 0, 33, 72
1, 570342, Control_c, 0, 64, 77
1, 570356, Control_c, 0, 64, 75
1, 570371, Control_c, 0, 64, 79
1, 570381, Note_off_c, 0, 33, 60
1, 570382, Note_on_c, 0, 45, 75
1, 570386, Control_c, 0, 64, 85
1, 570401, Control_c, 0, 64, 93
1, 570408, Note_off_c, 0, 45, 68
1, 570416, Control_c, 0, 64, 101
1, 570430, Control_c, 0, 64, 108
1, 570453, Control_c, 0, 64, 113
1, 570468, Control_c, 0, 64, 116
1, 570497, Control_c, 0, 64, 117
1, 570512, Control_c, 0, 64, 119
1, 570527, Control_c, 0, 64, 122
1, 570542, Control_c, 0, 64, 124
1, 570549, Note_off_c, 0, 76, 58
1, 570553, Note_off_c, 0, 88, 55
1, 570572, Note_off_c, 0, 81, 61
1, 570573, Note_off_c, 0, 85, 62
1, 570586, Control_c, 0, 64, 117
1, 570601, Control_c, 0, 64, 97
1, 570616, Control_c, 0, 64, 78
1, 570626, Note_on_c, 0, 64, 81
1, 570629, Note_on_c, 0, 57, 76
1, 570630, Control_c, 0, 64, 66
1, 570632, Note_on_c, 0, 88, 95
1, 570632, Note_on_c, 0, 81, 68
1, 570632, Note_on_c, 0, 85, 77
1, 570636, Note_on_c, 0, 76, 88
1, 570645, Control_c, 0, 64, 67
1, 570653, Note_off_c, 0, 64, 67
1, 570660, Control_c, 0, 64, 73
1, 570662, Note_off_c, 0, 57, 66
1, 570675, Control_c, 0, 64, 78
1, 570689, Control_c, 0, 64, 85
1, 570704, Control_c, 0, 64, 92
1, 570719, Control_c, 0, 64, 99
1, 570734, Control_c, 0, 64, 102
1, 570749, Control_c, 0, 64, 103
1, 570778, Control_c, 0, 64, 104
1, 570793, Control_c, 0, 64, 106
1, 570808, Control_c, 0, 64, 109
1, 570823, Control_c, 0, 64, 111
1, 570838, Control_c, 0, 64, 112
1, 570897, Control_c, 0, 64, 111
1, 570956, Control_c, 0, 64, 108
1, 570971, Control_c, 0, 64, 95
1, 570981, Note_on_c, 0, 33, 70
1, 570986, Control_c, 0, 64, 81
1, 571001, Control_c, 0, 64, 70
1, 571016, Control_c, 0, 64, 68
1, 571026, Note_on_c, 0, 45, 79
1, 571032, Control_c, 0, 64, 73
1, 571038, Note_off_c, 0, 33, 62
1, 571047, Control_c, 0, 64, 78
1, 571061, Control_c, 0, 64, 85
1, 571066, Note_off_c, 0, 45, 62
1, 571076, Control_c, 0, 64, 91
1, 571091, Control_c, 0, 64, 97
1, 571105, Control_c, 0, 64, 101
1, 571120, Control_c, 0, 64, 103
1, 571135, Control_c, 0, 64, 105
1, 571150, Control_c, 0, 64, 106
1, 571165, Control_c, 0, 64, 107
1, 571179, Control_c, 0, 64, 108
1, 571225, Note_off_c, 0, 76, 57
1, 571228, Note_off_c, 0, 88, 53
1, 571252, Note_off_c, 0, 81, 59
1, 571254, Note_off_c, 0, 85, 63
1, 571261, Control_c, 0, 64, 107
1, 571276, Control_c, 0, 64, 103
1, 571291, Control_c, 0, 64, 92
1, 571305, Control_c, 0, 64, 77
1, 571307, Note_on_c, 0, 64, 64
1, 571313, Note_on_c, 0, 88, 88
1, 571314, Note_on_c, 0, 57, 61
1, 571319, Note_on_c, 0, 85, 70
1, 571320, Control_c, 0, 64, 67
1, 571323, Note_on_c, 0, 76, 72
1, 571329, Note_on_c, 0, 81, 53
1, 571335, Control_c, 0, 64, 68
1, 571335, Control_c, 0, 67, 8
1, 571350, Control_c, 0, 64, 73
1, 571350, Control_c, 0, 67, 8
1, 571354, Note_off_c, 0, 64, 63
1, 571365, Control_c, 0, 64, 77
1, 571366, Note_off_c, 0, 57, 63
1, 571379, Control_c, 0, 64, 81
1, 571379, Control_c, 0, 67, 9
1, 571394, Control_c, 0, 64, 86
1, 571394, Control_c, 0, 67, 10
1, 571409, Control_c, 0, 64, 91
1, 571409, Control_c, 0, 67, 11
1, 571424, Control_c, 0, 64, 95
1, 571424, Control_c, 0, 67, 12
1, 571439, Control_c, 0, 64, 96
1, 571439, Control_c, 0, 67, 13
1, 571453, Control_c, 0, 67, 14
1, 571468, Control_c, 0, 67, 16
1, 571483, Control_c, 0, 64, 96
1, 571483, Control_c, 0, 67, 17
1, 571497, Control_c, 0, 64, 97
1, 571497, Control_c, 0, 67, 19
1, 571512, Control_c, 0, 64, 98
1, 571512, Control_c, 0, 67, 20
1, 571527, Control_c, 0, 67, 21
1, 571542, Control_c, 0, 67, 22
1, 571557, Control_c, 0, 67, 22
1, 571572, Control_c, 0, 67, 23
1, 571586, Control_c, 0, 67, 23
1, 571601, Control_c, 0, 67, 24
1, 571616, Control_c, 0, 67, 26
1, 571631, Control_c, 0, 67, 29
1, 571646, Control_c, 0, 64, 97
1, 571646, Control_c, 0, 67, 30
1, 571661, Control_c, 0, 64, 96
1, 571661, Control_c, 0, 67, 32
1, 571675, Control_c, 0, 64, 94
1, 571675, Control_c, 0, 67, 34
1, 571690, Control_c, 0, 64, 89
1, 571690, Control_c, 0, 67, 35
1, 571705, Control_c, 0, 64, 82
1, 571705, Control_c, 0, 67, 36
1, 571707, Note_on_c, 0, 33, 57
1, 571720, Control_c, 0, 64, 72
1, 571720, Control_c, 0, 67, 37
1, 571735, Control_c, 0, 64, 57
1, 571735, Control_c, 0, 67, 39
1, 571747, Note_on_c, 0, 45, 58
1, 571750, Control_c, 0, 64, 56
1, 571750, Control_c, 0, 67, 40
1, 571765, Control_c, 0, 64, 62
1, 571765, Control_c, 0, 67, 41
1, 571779, Control_c, 0, 64, 64
1, 571779, Control_c, 0, 67, 43
1, 571794, Control_c, 0, 64, 65
1, 571794, Control_c, 0, 67, 44
1, 571809, Control_c, 0, 64, 67
1, 571809, Control_c, 0, 67, 45
1, 571825, Control_c, 0, 64, 70
1, 571825, Control_c, 0, 67, 46
1, 571839, Control_c, 0, 64, 73
1, 571839, Control_c, 0, 67, 46
1, 571854, Control_c, 0, 64, 75
1, 571854, Control_c, 0, 67, 47
1, 571860, Note_off_c, 0, 45, 62
1, 571869, Control_c, 0, 64, 77
1, 571869, Control_c, 0, 67, 48
1, 571870, Note_off_c, 0, 33, 60
1, 571884, Control_c, 0, 64, 79
1, 571884, Control_c, 0, 67, 48
1, 571899, Control_c, 0, 64, 81
1, 571899, Control_c, 0, 67, 50
1, 571914, Control_c, 0, 64, 83
1, 571914, Control_c, 0, 67, 51
1, 571928, Control_c, 0, 64, 87
1, 571928, Control_c, 0, 67, 52
1, 571943, Control_c, 0, 64, 89
1, 571943, Control_c, 0, 67, 54
1, 571965, Control_c, 0, 64, 90
1, 571965, Control_c, 0, 67, 56
1, 571980, Control_c, 0, 64, 91
1, 571980, Control_c, 0, 67, 57
1, 571995, Control_c, 0, 64, 92
1, 571995, Control_c, 0, 67, 58
1, 572009, Control_c, 0, 64, 92
1, 572009, Control_c, 0, 67, 59
1, 572024, Control_c, 0, 64, 93
1, 572024, Control_c, 0, 67, 60
1, 572039, Control_c, 0, 67, 63
1, 572054, Control_c, 0, 67, 66
1, 572069, Control_c, 0, 67, 68
1, 572084, Control_c, 0, 67, 69
1, 572099, Control_c, 0, 67, 71
1, 572114, Control_c, 0, 67, 72
1, 572128, Control_c, 0, 67, 74
1, 572143, Control_c, 0, 67, 76
1, 572158, Control_c, 0, 67, 77
1, 572173, Control_c, 0, 67, 78
1, 572188, Control_c, 0, 67, 80
1, 572202, Control_c, 0, 67, 82
1, 572217, Control_c, 0, 67, 84
1, 572232, Control_c, 0, 67, 86
1, 572247, Control_c, 0, 67, 88
1, 572261, Control_c, 0, 67, 90
1, 572276, Control_c, 0, 67, 92
1, 572291, Control_c, 0, 67, 93
1, 572306, Control_c, 0, 67, 95
1, 572320, Control_c, 0, 64, 92
1, 572320, Control_c, 0, 67, 97
1, 572335, Control_c, 0, 64, 92
1, 572335, Control_c, 0, 67, 100
1, 572350, Control_c, 0, 64, 91
1, 572350, Control_c, 0, 67, 102
1, 572365, Control_c, 0, 64, 91
1, 572365, Control_c, 0, 67, 103
1, 572380, Control_c, 0, 67, 105
1, 572395, Control_c, 0, 64, 90
1, 572395, Control_c, 0, 67, 106
1, 572409, Control_c, 0, 64, 88
1, 572409, Control_c, 0, 67, 107
1, 572424, Control_c, 0, 64, 83
1, 572424, Control_c, 0, 67, 108
1, 572439, Control_c, 0, 64, 74
1, 572439, Control_c, 0, 67, 110
1, 572453, Control_c, 0, 64, 63
1, 572453, Control_c, 0, 67, 111
1, 572460, Note_on_c, 0, 33, 45
1, 572468, Control_c, 0, 64, 0
1, 572468, Control_c, 0, 67, 112
1, 572483, Control_c, 0, 67, 113
1, 572498, Control_c, 0, 67, 113
1, 572513, Control_c, 0, 64, 32
1, 572516, Note_on_c, 0, 45, 49
1, 572528, Control_c, 0, 64, 53
1, 572543, Control_c, 0, 64, 62
1, 572543, Control_c, 0, 67, 114
1, 572558, Control_c, 0, 64, 64
1, 572573, Control_c, 0, 64, 67
1, 572588, Control_c, 0, 64, 69
1, 572603, Control_c, 0, 64, 72
1, 572614, Note_off_c, 0, 45, 51
1, 572617, Control_c, 0, 64, 74
1, 572633, Control_c, 0, 64, 76
1, 572648, Control_c, 0, 64, 78
1, 572663, Control_c, 0, 64, 80
1, 572667, Note_off_c, 0, 33, 40
1, 572677, Control_c, 0, 64, 83
1, 572692, Control_c, 0, 64, 85
1, 572715, Control_c, 0, 64, 87
1, 572730, Control_c, 0, 64, 89
1, 572745, Control_c, 0, 64, 90
1, 572759, Control_c, 0, 64, 91
1, 572774, Control_c, 0, 64, 93
1, 572789, Control_c, 0, 64, 94
1, 572804, Control_c, 0, 64, 95
1, 572833, Control_c, 0, 64, 95
1, 572848, Control_c, 0, 64, 96
1, 572863, Control_c, 0, 64, 97
1, 573091, Note_off_c, 0, 76, 28
1, 573189, Note_off_c, 0, 81, 40
1, 573240, Note_off_c, 0, 88, 33
1, 573249, Note_off_c, 0, 85, 29
1, 573381, Control_c, 0, 67, 113
1, 573552, Control_c, 0, 64, 96
1, 573567, Control_c, 0, 64, 96
1, 573611, Control_c, 0, 64, 95
1, 573626, Control_c, 0, 64, 94
1, 573641, Control_c, 0, 64, 91
1, 573649, Note_on_c, 0, 33, 40
1, 573655, Control_c, 0, 64, 83
1, 573670, Control_c, 0, 64, 72
1, 573685, Control_c, 0, 64, 58
1, 573700, Control_c, 0, 64, 14
1, 573714, Control_c, 0, 64, 40
1, 573729, Control_c, 0, 64, 53
1, 573732, Note_on_c, 0, 45, 37
1, 573744, Control_c, 0, 64, 58
1, 573744, Control_c, 0, 67, 113
1, 573759, Control_c, 0, 64, 62
1, 573759, Control_c, 0, 67, 112
1, 573774, Control_c, 0, 64, 64
1, 573789, Control_c, 0, 64, 67
1, 573789, Control_c, 0, 67, 112
1, 573804, Control_c, 0, 64, 69
1, 573804, Control_c, 0, 67, 111
1, 573810, Note_off_c, 0, 33, 49
1, 573819, Control_c, 0, 64, 71
1, 573819, Control_c, 0, 67, 111
1, 573834, Control_c, 0, 64, 73
1, 573834, Control_c, 0, 67, 110
1, 573848, Control_c, 0, 64, 74
1, 573863, Control_c, 0, 64, 76
1, 573863, Control_c, 0, 67, 109
1, 573878, Control_c, 0, 64, 77
1, 573878, Control_c, 0, 67, 109
1, 573887, Note_off_c, 0, 45, 59
1, 573893, Control_c, 0, 64, 79
1, 573893, Control_c, 0, 67, 108
1, 573907, Control_c, 0, 64, 81
1, 573907, Control_c, 0, 67, 107
1, 573922, Control_c, 0, 64, 83
1, 573922, Control_c, 0, 67, 107
1, 573937, Control_c, 0, 64, 85
1, 573952, Control_c, 0, 64, 86
1, 573952, Control_c, 0, 67, 106
1, 573967, Control_c, 0, 64, 88
1, 573981, Control_c, 0, 64, 88
1, 573996, Control_c, 0, 64, 89
1, 573996, Control_c, 0, 67, 106
1, 574011, Control_c, 0, 67, 105
1, 574025, Control_c, 0, 67, 105
1, 574040, Control_c, 0, 64, 90
1, 574055, Control_c, 0, 64, 90
1, 574055, Control_c, 0, 67, 104
1, 574085, Control_c, 0, 67, 104
1, 574099, Control_c, 0, 67, 102
1, 574114, Control_c, 0, 67, 102
1, 574129, Control_c, 0, 67, 100
1, 574144, Control_c, 0, 67, 99
1, 574159, Control_c, 0, 67, 97
1, 574173, Control_c, 0, 67, 95
1, 574188, Control_c, 0, 67, 94
1, 574211, Control_c, 0, 67, 92
1, 574227, Control_c, 0, 67, 91
1, 574242, Control_c, 0, 67, 89
1, 574257, Control_c, 0, 67, 88
1, 574271, Control_c, 0, 67, 88
1, 574286, Control_c, 0, 64, 89
1, 574286, Control_c, 0, 67, 87
1, 574301, Control_c, 0, 64, 87
1, 574316, Control_c, 0, 64, 84
1, 574316, Control_c, 0, 67, 87
1, 574330, Control_c, 0, 64, 79
1, 574345, Control_c, 0, 64, 75
1, 574352, Note_on_c, 0, 69, 40
1, 574360, Control_c, 0, 64, 74
1, 574360, Control_c, 0, 67, 86
1, 574368, Note_on_c, 0, 57, 37
1, 574375, Control_c, 0, 64, 75
1, 574390, Control_c, 0, 64, 76
1, 574404, Control_c, 0, 64, 77
1, 574404, Control_c, 0, 67, 86
1, 574419, Control_c, 0, 64, 79
1, 574419, Control_c, 0, 67, 85
1, 574434, Control_c, 0, 64, 81
1, 574434, Control_c, 0, 67, 83
1, 574443, Note_off_c, 0, 69, 63
1, 574444, Note_off_c, 0, 57, 55
1, 574448, Control_c, 0, 64, 83
1, 574448, Control_c, 0, 67, 81
1, 574463, Control_c, 0, 64, 84
1, 574463, Control_c, 0, 67, 79
1, 574478, Control_c, 0, 64, 86
1, 574478, Control_c, 0, 67, 77
1, 574493, Control_c, 0, 64, 88
1, 574493, Control_c, 0, 67, 75
1, 574508, Control_c, 0, 64, 91
1, 574508, Control_c, 0, 67, 73
1, 574522, Control_c, 0, 64, 93
1, 574522, Control_c, 0, 67, 71
1, 574537, Control_c, 0, 67, 69
1, 574552, Control_c, 0, 64, 92
1, 574552, Control_c, 0, 67, 67
1, 574567, Control_c, 0, 64, 91
1, 574567, Control_c, 0, 67, 65
1, 574573, Note_on_c, 0, 74, 76
1, 574582, Control_c, 0, 64, 91
1, 574582, Control_c, 0, 67, 63
1, 574594, Note_on_c, 0, 66, 49
1, 574597, Note_on_c, 0, 62, 44
1, 574597, Control_c, 0, 67, 61
1, 574603, Note_on_c, 0, 54, 48
1, 574612, Control_c, 0, 67, 59
1, 574627, Control_c, 0, 67, 57
1, 574631, Note_off_c, 0, 66, 63
1, 574641, Control_c, 0, 64, 92
1, 574641, Control_c, 0, 67, 55
1, 574656, Control_c, 0, 64, 94
1, 574656, Control_c, 0, 67, 53
1, 574671, Control_c, 0, 64, 96
1, 574671, Control_c, 0, 67, 50
1, 574686, Control_c, 0, 64, 98
1, 574686, Control_c, 0, 67, 46
1, 574701, Control_c, 0, 64, 99
1, 574701, Control_c, 0, 67, 42
1, 574711, Note_off_c, 0, 74, 59
1, 574716, Control_c, 0, 67, 39
1, 574725, Note_off_c, 0, 62, 36
1, 574730, Control_c, 0, 67, 35
1, 574745, Control_c, 0, 67, 32
1, 574746, Note_off_c, 0, 54, 37
1, 574760, Control_c, 0, 64, 96
1, 574760, Control_c, 0, 67, 30
1, 574775, Control_c, 0, 64, 90
1, 574775, Control_c, 0, 67, 28
1, 574790, Control_c, 0, 64, 84
1, 574790, Control_c, 0, 67, 27
1, 574802, Note_on_c, 0, 76, 80
1, 574804, Control_c, 0, 64, 82
1, 574804, Control_c, 0, 67, 25
1, 574819, Control_c, 0, 67, 23
1, 574821, Note_on_c, 0, 69, 55
1, 574823, Note_on_c, 0, 64, 43
1, 574827, Note_on_c, 0, 57, 41
1, 574834, Control_c, 0, 64, 83
1, 574834, Control_c, 0, 67, 21
1, 574848, Control_c, 0, 64, 86
1, 574848, Control_c, 0, 67, 18
1, 574863, Control_c, 0, 64, 90
1, 574863, Control_c, 0, 67, 14
1, 574871, Note_off_c, 0, 64, 62
1, 574878, Control_c, 0, 64, 93
1, 574878, Control_c, 0, 67, 10
1, 574893, Control_c, 0, 64, 97
1, 574893, Control_c, 0, 67, 0
1, 574908, Control_c, 0, 64, 100
1, 574922, Control_c, 0, 64, 102
1, 574937, Control_c, 0, 64, 104
1, 574960, Control_c, 0, 64, 105
1, 574975, Control_c, 0, 64, 106
1, 575016, Note_off_c, 0, 76, 55
1, 575020, Note_off_c, 0, 69, 51
1, 575023, Note_off_c, 0, 57, 34
1, 575050, Control_c, 0, 64, 105
1, 575065, Control_c, 0, 64, 104
1, 575079, Control_c, 0, 64, 101
1, 575094, Control_c, 0, 64, 93
1, 575109, Control_c, 0, 64, 82
1, 575124, Control_c, 0, 64, 68
1, 575127, Note_on_c, 0, 78, 70
1, 575139, Control_c, 0, 64, 26
1, 575151, Note_on_c, 0, 69, 42
1, 575153, Control_c, 0, 64, 0
1, 575154, Note_on_c, 0, 74, 49
1, 575159, Note_on_c, 0, 62, 33
1, 575162, Note_on_c, 0, 66, 37
1, 575168, Control_c, 0, 64, 43
1, 575183, Control_c, 0, 64, 55
1, 575198, Control_c, 0, 64, 62
1, 575213, Control_c, 0, 64, 65
1, 575227, Control_c, 0, 64, 69
1, 575242, Control_c, 0, 64, 73
1, 575257, Control_c, 0, 64, 77
1, 575271, Control_c, 0, 64, 80
1, 575280, Note_off_c, 0, 66, 58
1, 575286, Control_c, 0, 64, 82
1, 575297, Note_off_c, 0, 62, 55
1, 575301, Control_c, 0, 64, 84
1, 575316, Control_c, 0, 64, 88
1, 575316, Control_c, 0, 67, 8
1, 575331, Control_c, 0, 64, 91
1, 575331, Control_c, 0, 67, 9
1, 575345, Control_c, 0, 64, 94
1, 575345, Control_c, 0, 67, 11
1, 575360, Control_c, 0, 64, 95
1, 575360, Control_c, 0, 67, 13
1, 575375, Control_c, 0, 64, 96
1, 575375, Control_c, 0, 67, 15
1, 575390, Control_c, 0, 64, 98
1, 575390, Control_c, 0, 67, 16
1, 575405, Control_c, 0, 64, 99
1, 575405, Control_c, 0, 67, 16
1, 575419, Control_c, 0, 64, 101
1, 575434, Control_c, 0, 64, 102
1, 575449, Control_c, 0, 64, 102
1, 575464, Control_c, 0, 64, 103
1, 575479, Control_c, 0, 64, 104
1, 575494, Control_c, 0, 64, 106
1, 575494, Control_c, 0, 67, 16
1, 575509, Control_c, 0, 64, 107
1, 575524, Control_c, 0, 64, 108
1, 575524, Control_c, 0, 67, 15
1, 575539, Control_c, 0, 67, 15
1, 575553, Control_c, 0, 64, 108
1, 575553, Control_c, 0, 67, 14
1, 575555, Note_on_c, 0, 38, 46
1, 575569, Control_c, 0, 64, 110
1, 575569, Control_c, 0, 67, 14
1, 575583, Control_c, 0, 64, 114
1, 575598, Control_c, 0, 64, 117
1, 575612, Note_off_c, 0, 38, 60
1, 575613, Control_c, 0, 64, 120
1, 575615, Note_on_c, 0, 45, 50
1, 575628, Control_c, 0, 64, 127
1, 575643, Note_off_c, 0, 45, 58
1, 575643, Control_c, 0, 67, 13
1, 575672, Control_c, 0, 67, 14
1, 575709, Control_c, 0, 67, 14
1, 575724, Control_c, 0, 67, 15
1, 575739, Control_c, 0, 67, 15
1, 575753, Control_c, 0, 67, 16
1, 575759, Note_off_c, 0, 78, 47
1, 575765, Note_off_c, 0, 69, 43
1, 575768, Control_c, 0, 67, 16
1, 575770, Note_off_c, 0, 74, 50
1, 575783, Control_c, 0, 67, 17
1, 575798, Control_c, 0, 67, 17
1, 575813, Control_c, 0, 67, 19
1, 575829, Control_c, 0, 67, 21
1, 575844, Control_c, 0, 67, 22
1, 575873, Control_c, 0, 67, 22
1, 575876, Note_on_c, 0, 78, 78
1, 575888, Control_c, 0, 67, 22
1, 575894, Note_on_c, 0, 74, 57
1, 575902, Control_c, 0, 67, 21
1, 575916, Note_on_c, 0, 66, 49
1, 575921, Note_on_c, 0, 69, 20
1, 575923, Note_on_c, 0, 62, 42
1, 575975, Note_off_c, 0, 66, 57
1, 575977, Control_c, 0, 67, 21
1, 575978, Note_off_c, 0, 62, 56
1, 576037, Control_c, 0, 67, 20
1, 576121, Note_off_c, 0, 69, 43
1, 576199, Control_c, 0, 67, 20
1, 576207, Note_off_c, 0, 74, 57
1, 576228, Control_c, 0, 67, 19
1, 576258, Control_c, 0, 67, 19
1, 576266, Note_on_c, 0, 38, 63
1, 576273, Control_c, 0, 67, 18
1, 576284, Note_off_c, 0, 78, 56
1, 576288, Control_c, 0, 67, 17
1, 576302, Control_c, 0, 67, 17
1, 576308, Note_off_c, 0, 38, 65
1, 576316, Control_c, 0, 67, 16
1, 576319, Note_on_c, 0, 45, 57
1, 576331, Control_c, 0, 67, 15
1, 576342, Note_off_c, 0, 45, 62
1, 576346, Control_c, 0, 67, 14
1, 576361, Control_c, 0, 67, 13
1, 576375, Control_c, 0, 67, 13
1, 576390, Control_c, 0, 67, 12
1, 576405, Control_c, 0, 67, 12
1, 576419, Control_c, 0, 67, 11
1, 576487, Control_c, 0, 67, 12
1, 576495, Note_on_c, 0, 78, 71
1, 576501, Control_c, 0, 67, 12
1, 576516, Control_c, 0, 67, 13
1, 576519, Note_off_c, 0, 78, 67
1, 576532, Note_on_c, 0, 79, 70
1, 576561, Control_c, 0, 64, 98
1, 576575, Control_c, 0, 64, 78
1, 576581, Note_on_c, 0, 76, 32
1, 576590, Control_c, 0, 64, 64
1, 576598, Note_on_c, 0, 66, 44
1, 576598, Note_on_c, 0, 78, 71
1, 576600, Note_on_c, 0, 62, 42
1, 576605, Control_c, 0, 64, 65
1, 576605, Control_c, 0, 67, 12
1, 576610, Note_on_c, 0, 74, 54
1, 576617, Note_off_c, 0, 76, 46
1, 576621, Control_c, 0, 64, 66
1, 576621, Control_c, 0, 67, 12
1, 576636, Control_c, 0, 64, 68
1, 576642, Note_off_c, 0, 79, 54
1, 576651, Control_c, 0, 64, 69
1, 576666, Control_c, 0, 64, 73
1, 576666, Control_c, 0, 67, 11
1, 576680, Control_c, 0, 64, 77
1, 576680, Control_c, 0, 67, 11
1, 576690, Note_off_c, 0, 74, 62
1, 576695, Control_c, 0, 64, 81
1, 576695, Control_c, 0, 67, 10
1, 576710, Control_c, 0, 64, 85
1, 576710, Control_c, 0, 67, 9
1, 576716, Note_off_c, 0, 78, 60
1, 576724, Note_off_c, 0, 66, 57
1, 576724, Control_c, 0, 64, 88
1, 576724, Control_c, 0, 67, 0
1, 576731, Note_off_c, 0, 62, 59
1, 576739, Control_c, 0, 64, 91
1, 576754, Control_c, 0, 64, 95
1, 576769, Control_c, 0, 64, 99
1, 576784, Control_c, 0, 64, 103
1, 576798, Control_c, 0, 64, 106
1, 576813, Control_c, 0, 64, 110
1, 576828, Control_c, 0, 64, 115
1, 576842, Control_c, 0, 64, 122
1, 576857, Control_c, 0, 64, 127
1, 576907, Note_on_c, 0, 76, 86
1, 576910, Note_on_c, 0, 61, 49
1, 576916, Note_on_c, 0, 64, 52
1, 576916, Control_c, 0, 64, 103
1, 576922, Note_on_c, 0, 73, 70
1, 576931, Control_c, 0, 64, 89
1, 576946, Control_c, 0, 64, 83
1, 576947, Note_off_c, 0, 73, 68
1, 576961, Control_c, 0, 64, 86
1, 576962, Note_off_c, 0, 64, 63
1, 576968, Note_off_c, 0, 61, 57
1, 576969, Note_on_c, 0, 78, 86
1, 576976, Control_c, 0, 64, 91
1, 576979, Note_on_c, 0, 66, 59
1, 576981, Note_on_c, 0, 62, 56
1, 576987, Note_on_c, 0, 74, 70
1, 576989, Note_off_c, 0, 76, 62
1, 576990, Control_c, 0, 64, 100
1, 577005, Control_c, 0, 64, 118
1, 577011, Note_off_c, 0, 74, 70
1, 577016, Note_off_c, 0, 66, 60
1, 577020, Control_c, 0, 64, 127
1, 577028, Note_off_c, 0, 62, 54
1, 577029, Note_off_c, 0, 78, 63
1, 577115, Note_on_c, 0, 74, 38
1, 577116, Note_on_c, 0, 78, 73
1, 577149, Note_off_c, 0, 74, 55
1, 577153, Note_off_c, 0, 78, 61
1, 577162, Note_on_c, 0, 76, 61
1, 577162, Note_on_c, 0, 79, 68
1, 577184, Control_c, 0, 64, 99
1, 577205, Control_c, 0, 64, 76
1, 577210, Note_on_c, 0, 66, 57
1, 577211, Note_on_c, 0, 62, 56
1, 577211, Note_on_c, 0, 78, 74
1, 577215, Note_off_c, 0, 76, 63
1, 577220, Control_c, 0, 64, 55
1, 577222, Note_on_c, 0, 74, 70
1, 577235, Control_c, 0, 64, 58
1, 577243, Note_off_c, 0, 79, 62
1, 577250, Control_c, 0, 64, 68
1, 577262, Note_off_c, 0, 74, 58
1, 577265, Control_c, 0, 64, 73
1, 577280, Control_c, 0, 64, 79
1, 577294, Control_c, 0, 64, 86
1, 577297, Note_off_c, 0, 78, 62
1, 577309, Control_c, 0, 64, 93
1, 577324, Control_c, 0, 64, 97
1, 577331, Note_off_c, 0, 66, 56
1, 577339, Control_c, 0, 64, 100
1, 577340, Note_off_c, 0, 62, 56
1, 577354, Control_c, 0, 64, 103
1, 577369, Control_c, 0, 64, 106
1, 577384, Control_c, 0, 64, 110
1, 577398, Control_c, 0, 64, 111
1, 577429, Control_c, 0, 64, 112
1, 577444, Control_c, 0, 64, 116
1, 577458, Control_c, 0, 64, 119
1, 577473, Control_c, 0, 64, 119
1, 577488, Control_c, 0, 64, 119
1, 577503, Control_c, 0, 64, 109
1, 577506, Note_on_c, 0, 76, 84
1, 577515, Note_on_c, 0, 61, 52
1, 577518, Note_on_c, 0, 73, 72
1, 577518, Control_c, 0, 64, 90
1, 577524, Note_on_c, 0, 64, 51
1, 577533, Control_c, 0, 64, 73
1, 577547, Control_c, 0, 64, 64
1, 577562, Control_c, 0, 64, 67
1, 577567, Note_off_c, 0, 73, 63
1, 577577, Control_c, 0, 64, 71
1, 577584, Note_off_c, 0, 61, 58
1, 577587, Note_on_c, 0, 78, 89
1, 577591, Note_off_c, 0, 64, 64
1, 577592, Control_c, 0, 64, 76
1, 577601, Note_on_c, 0, 66, 59
1, 577602, Note_on_c, 0, 62, 54
1, 577607, Control_c, 0, 64, 82
1, 577613, Note_off_c, 0, 76, 61
1, 577619, Note_on_c, 0, 74, 59
1, 577621, Control_c, 0, 64, 91
1, 577636, Control_c, 0, 64, 98
1, 577649, Note_off_c, 0, 66, 59
1, 577651, Control_c, 0, 64, 102
1, 577665, Control_c, 0, 64, 103
1, 577680, Control_c, 0, 64, 104
1, 577695, Control_c, 0, 64, 105
1, 577710, Control_c, 0, 64, 105
1, 577753, Note_off_c, 0, 78, 58
1, 577770, Note_off_c, 0, 62, 28
1, 577799, Control_c, 0, 64, 104
1, 577813, Control_c, 0, 64, 97
1, 577828, Control_c, 0, 64, 86
1, 577843, Control_c, 0, 64, 71
1, 577845, Note_on_c, 0, 81, 79
1, 577853, Note_off_c, 0, 74, 61
1, 577854, Note_on_c, 0, 66, 41
1, 577858, Note_on_c, 0, 69, 41
1, 577858, Control_c, 0, 64, 33
1, 577860, Note_on_c, 0, 57, 43
1, 577860, Note_on_c, 0, 78, 59
1, 577873, Control_c, 0, 64, 0
1, 577888, Control_c, 0, 64, 35
1, 577903, Control_c, 0, 64, 57
1, 577917, Control_c, 0, 64, 65
1, 577939, Control_c, 0, 64, 70
1, 577948, Note_off_c, 0, 78, 0
1, 577948, Note_on_c, 0, 78, 18
1, 577954, Control_c, 0, 64, 76
1, 577969, Control_c, 0, 64, 81
1, 577984, Control_c, 0, 64, 87
1, 577998, Control_c, 0, 64, 91
1, 578013, Control_c, 0, 64, 97
1, 578028, Note_off_c, 0, 69, 62
1, 578028, Control_c, 0, 64, 103
1, 578043, Note_off_c, 0, 66, 61
1, 578043, Control_c, 0, 64, 108
1, 578058, Control_c, 0, 64, 114
1, 578069, Note_off_c, 0, 78, 55
1, 578072, Control_c, 0, 64, 127
1, 578367, Note_on_c, 0, 78, 65
1, 578385, Note_on_c, 0, 66, 42
1, 578399, Note_on_c, 0, 62, 38
1, 578409, Note_off_c, 0, 57, 35
1, 578415, Note_on_c, 0, 74, 24
1, 578427, Note_off_c, 0, 81, 35
1, 578481, Note_off_c, 0, 66, 58
1, 578593, Control_c, 0, 67, 8
1, 578608, Control_c, 0, 64, 111
1, 578608, Control_c, 0, 67, 9
1, 578615, Note_off_c, 0, 74, 39
1, 578622, Control_c, 0, 64, 94
1, 578622, Control_c, 0, 67, 9
1, 578623, Note_off_c, 0, 78, 54
1, 578628, Note_off_c, 0, 62, 41
1, 578634, Note_on_c, 0, 76, 54
1, 578637, Control_c, 0, 64, 79
1, 578637, Control_c, 0, 67, 11
1, 578644, Note_on_c, 0, 69, 45
1, 578652, Control_c, 0, 64, 64
1, 578652, Control_c, 0, 67, 14
1, 578655, Note_on_c, 0, 57, 36
1, 578666, Note_on_c, 0, 64, 34
1, 578667, Control_c, 0, 64, 49
1, 578667, Control_c, 0, 67, 18
1, 578682, Control_c, 0, 64, 61
1, 578682, Control_c, 0, 67, 22
1, 578704, Control_c, 0, 64, 65
1, 578704, Control_c, 0, 67, 27
1, 578719, Control_c, 0, 64, 69
1, 578719, Control_c, 0, 67, 33
1, 578734, Control_c, 0, 64, 73
1, 578734, Control_c, 0, 67, 40
1, 578749, Control_c, 0, 64, 77
1, 578749, Control_c, 0, 67, 46
1, 578758, Note_off_c, 0, 64, 62
1, 578764, Control_c, 0, 64, 82
1, 578764, Control_c, 0, 67, 50
1, 578777, Note_off_c, 0, 57, 62
1, 578778, Control_c, 0, 64, 87
1, 578778, Control_c, 0, 67, 52
1, 578793, Control_c, 0, 64, 90
1, 578793, Control_c, 0, 67, 54
1, 578808, Control_c, 0, 64, 93
1, 578808, Control_c, 0, 67, 57
1, 578822, Control_c, 0, 64, 93
1, 578822, Control_c, 0, 67, 59
1, 578837, Control_c, 0, 64, 94
1, 578852, Control_c, 0, 64, 95
1, 578852, Control_c, 0, 67, 60
1, 578867, Control_c, 0, 64, 97
1, 578882, Control_c, 0, 64, 98
1, 578926, Control_c, 0, 64, 99
1, 578941, Control_c, 0, 64, 99
1, 578985, Control_c, 0, 64, 98
1, 579000, Control_c, 0, 64, 93
1, 579016, Control_c, 0, 64, 86
1, 579016, Control_c, 0, 67, 59
1, 579022, Note_on_c, 0, 33, 45
1, 579031, Control_c, 0, 64, 82
1, 579060, Control_c, 0, 64, 84
1, 579060, Control_c, 0, 67, 58
1, 579075, Control_c, 0, 64, 86
1, 579075, Control_c, 0, 67, 58
1, 579078, Note_off_c, 0, 33, 58
1, 579090, Control_c, 0, 64, 88
1, 579090, Control_c, 0, 67, 57
1, 579097, Note_on_c, 0, 45, 50
1, 579105, Control_c, 0, 64, 93
1, 579105, Control_c, 0, 67, 57
1, 579119, Control_c, 0, 64, 98
1, 579128, Note_off_c, 0, 45, 65
1, 579134, Control_c, 0, 64, 103
1, 579134, Control_c, 0, 67, 56
1, 579149, Control_c, 0, 64, 105
1, 579164, Control_c, 0, 64, 106
1, 579179, Control_c, 0, 64, 107
1, 579179, Control_c, 0, 67, 56
1, 579366, Note_off_c, 0, 69, 38
1, 579385, Control_c, 0, 67, 55
1, 579396, Note_off_c, 0, 76, 35
1, 579452, Control_c, 0, 67, 55
1, 579482, Control_c, 0, 67, 54
1, 579512, Control_c, 0, 64, 107
1, 579526, Control_c, 0, 64, 105
1, 579541, Control_c, 0, 64, 104
1, 579556, Control_c, 0, 64, 101
1, 579571, Control_c, 0, 64, 94
1, 579571, Control_c, 0, 67, 55
1, 579586, Control_c, 0, 64, 83
1, 579598, Note_on_c, 0, 76, 52
1, 579600, Note_on_c, 0, 69, 31
1, 579600, Control_c, 0, 64, 71
1, 579603, Note_on_c, 0, 57, 30
1, 579605, Note_on_c, 0, 72, 35
1, 579614, Note_on_c, 0, 64, 29
1, 579614, Note_on_c, 0, 60, 27
1, 579615, Control_c, 0, 64, 43
1, 579630, Control_c, 0, 64, 0
1, 579630, Control_c, 0, 67, 54
1, 579644, Control_c, 0, 64, 28
1, 579659, Control_c, 0, 64, 47
1, 579674, Control_c, 0, 64, 56
1, 579674, Control_c, 0, 67, 54
1, 579689, Control_c, 0, 64, 62
1, 579689, Control_c, 0, 67, 53
1, 579704, Control_c, 0, 64, 65
1, 579718, Control_c, 0, 64, 69
1, 579718, Control_c, 0, 67, 53
1, 579733, Control_c, 0, 64, 73
1, 579748, Control_c, 0, 64, 76
1, 579748, Control_c, 0, 67, 52
1, 579756, Note_off_c, 0, 64, 59
1, 579763, Control_c, 0, 64, 80
1, 579763, Control_c, 0, 67, 52
1, 579777, Note_off_c, 0, 57, 62
1, 579778, Control_c, 0, 64, 83
1, 579778, Control_c, 0, 67, 51
1, 579779, Note_off_c, 0, 60, 58
1, 579792, Control_c, 0, 64, 86
1, 579792, Control_c, 0, 67, 50
1, 579808, Control_c, 0, 64, 90
1, 579808, Control_c, 0, 67, 50
1, 579823, Control_c, 0, 64, 92
1, 579838, Control_c, 0, 64, 95
1, 579838, Control_c, 0, 67, 49
1, 579853, Control_c, 0, 64, 96
1, 579853, Control_c, 0, 67, 48
1, 579867, Control_c, 0, 64, 98
1, 579867, Control_c, 0, 67, 48
1, 579882, Control_c, 0, 64, 100
1, 579882, Control_c, 0, 67, 47
1, 579897, Control_c, 0, 64, 103
1, 579897, Control_c, 0, 67, 46
1, 579912, Control_c, 0, 64, 105
1, 579912, Control_c, 0, 67, 45
1, 579927, Control_c, 0, 64, 106
1, 579927, Control_c, 0, 67, 44
1, 579942, Control_c, 0, 64, 108
1, 579942, Control_c, 0, 67, 44
1, 579956, Control_c, 0, 64, 108
1, 579956, Control_c, 0, 67, 43
1, 579971, Control_c, 0, 64, 109
1, 579971, Control_c, 0, 67, 42
1, 579986, Control_c, 0, 64, 110
1, 579986, Control_c, 0, 67, 41
1, 580001, Control_c, 0, 64, 111
1, 580001, Control_c, 0, 67, 40
1, 580009, Note_on_c, 0, 33, 49
1, 580016, Control_c, 0, 64, 112
1, 580016, Control_c, 0, 67, 40
1, 580031, Control_c, 0, 67, 39
1, 580046, Control_c, 0, 64, 112
1, 580046, Control_c, 0, 67, 39
1, 580060, Control_c, 0, 67, 38
1, 580061, Note_off_c, 0, 33, 60
1, 580073, Note_on_c, 0, 40, 55
1, 580075, Control_c, 0, 64, 113
1, 580090, Control_c, 0, 64, 115
1, 580090, Control_c, 0, 67, 38
1, 580102, Note_off_c, 0, 40, 61
1, 580105, Control_c, 0, 64, 117
1, 580120, Control_c, 0, 67, 37
1, 580134, Control_c, 0, 64, 118
1, 580134, Control_c, 0, 67, 37
1, 580149, Control_c, 0, 67, 36
1, 580164, Control_c, 0, 67, 35
1, 580179, Control_c, 0, 64, 118
1, 580179, Control_c, 0, 67, 34
1, 580201, Control_c, 0, 64, 119
1, 580201, Control_c, 0, 67, 33
1, 580208, Note_off_c, 0, 76, 58
1, 580216, Control_c, 0, 67, 32
1, 580219, Note_off_c, 0, 69, 43
1, 580231, Note_off_c, 0, 72, 41
1, 580246, Control_c, 0, 67, 32
1, 580260, Control_c, 0, 64, 117
1, 580275, Control_c, 0, 64, 108
1, 580290, Control_c, 0, 64, 96
1, 580305, Control_c, 0, 64, 89
1, 580308, Note_on_c, 0, 76, 77
1, 580315, Note_on_c, 0, 69, 51
1, 580317, Note_on_c, 0, 60, 40
1, 580320, Control_c, 0, 64, 88
1, 580323, Note_on_c, 0, 72, 58
1, 580323, Note_on_c, 0, 64, 46
1, 580335, Note_on_c, 0, 57, 38
1, 580335, Control_c, 0, 64, 89
1, 580335, Control_c, 0, 67, 31
1, 580349, Control_c, 0, 64, 89
1, 580364, Control_c, 0, 64, 91
1, 580364, Control_c, 0, 67, 31
1, 580371, Note_off_c, 0, 64, 64
1, 580379, Control_c, 0, 64, 95
1, 580379, Control_c, 0, 67, 30
1, 580393, Control_c, 0, 64, 99
1, 580400, Note_off_c, 0, 60, 62
1, 580408, Control_c, 0, 64, 104
1, 580408, Control_c, 0, 67, 30
1, 580423, Control_c, 0, 64, 108
1, 580423, Control_c, 0, 67, 29
1, 580425, Note_off_c, 0, 57, 60
1, 580438, Control_c, 0, 64, 111
1, 580438, Control_c, 0, 67, 28
1, 580453, Control_c, 0, 64, 115
1, 580453, Control_c, 0, 67, 27
1, 580467, Control_c, 0, 64, 121
1, 580467, Control_c, 0, 67, 27
1, 580482, Control_c, 0, 64, 127
1, 580482, Control_c, 0, 67, 26
1, 580512, Control_c, 0, 67, 25
1, 580527, Control_c, 0, 67, 25
1, 580537, Note_off_c, 0, 76, 58
1, 580541, Control_c, 0, 67, 24
1, 580556, Control_c, 0, 67, 24
1, 580559, Note_off_c, 0, 72, 56
1, 580571, Control_c, 0, 67, 23
1, 580585, Control_c, 0, 67, 23
1, 580600, Control_c, 0, 67, 22
1, 580617, Control_c, 0, 67, 21
1, 580622, Note_on_c, 0, 33, 65
1, 580631, Control_c, 0, 67, 20
1, 580646, Control_c, 0, 67, 19
1, 580661, Control_c, 0, 67, 17
1, 580671, Note_off_c, 0, 33, 61
1, 580676, Control_c, 0, 67, 13
1, 580677, Note_on_c, 0, 40, 66
1, 580690, Control_c, 0, 67, 9
1, 580704, Note_off_c, 0, 40, 65
1, 580705, Control_c, 0, 67, 0
1, 580710, Note_off_c, 0, 69, 53
1, 580814, Note_on_c, 0, 76, 72
1, 580822, Note_on_c, 0, 72, 59
1, 580838, Note_off_c, 0, 76, 69
1, 580844, Note_on_c, 0, 78, 69
1, 580854, Note_off_c, 0, 72, 59
1, 580869, Control_c, 0, 64, 96
1, 580883, Control_c, 0, 64, 75
1, 580898, Control_c, 0, 64, 58
1, 580901, Note_on_c, 0, 76, 88
1, 580910, Note_on_c, 0, 60, 58
1, 580913, Control_c, 0, 64, 60
1, 580925, Note_on_c, 0, 64, 53
1, 580926, Note_off_c, 0, 78, 62
1, 580928, Control_c, 0, 64, 66
1, 580950, Poly_aftertouch_c, 0, 72, 0
1, 580950, Control_c, 0, 64, 71
1, 580964, Control_c, 0, 64, 77
1, 580979, Control_c, 0, 64, 85
1, 580980, Note_off_c, 0, 76, 64
1, 580994, Control_c, 0, 64, 94
1, 581009, Control_c, 0, 64, 100
1, 581016, Note_off_c, 0, 64, 63
1, 581024, Control_c, 0, 64, 103
1, 581024, Note_off_c, 0, 60, 62
1, 581038, Control_c, 0, 64, 105
1, 581053, Control_c, 0, 64, 111
1, 581068, Control_c, 0, 64, 118
1, 581083, Control_c, 0, 64, 127
1, 581209, Note_on_c, 0, 74, 88
1, 581215, Note_on_c, 0, 71, 65
1, 581226, Note_on_c, 0, 62, 54
1, 581229, Note_on_c, 0, 59, 49
1, 581231, Control_c, 0, 64, 108
1, 581241, Note_off_c, 0, 71, 69
1, 581246, Control_c, 0, 64, 84
1, 581257, Note_off_c, 0, 74, 60
1, 581261, Control_c, 0, 64, 68
1, 581276, Control_c, 0, 64, 67
1, 581287, Note_on_c, 0, 76, 87
1, 581290, Control_c, 0, 64, 72
1, 581295, Note_off_c, 0, 59, 57
1, 581297, Note_on_c, 0, 60, 67
1, 581298, Note_on_c, 0, 72, 74
1, 581298, Note_off_c, 0, 62, 61
1, 581303, Note_on_c, 0, 64, 68
1, 581305, Control_c, 0, 64, 78
1, 581320, Control_c, 0, 64, 83
1, 581335, Control_c, 0, 64, 90
1, 581337, Note_off_c, 0, 72, 58
1, 581350, Control_c, 0, 64, 97
1, 581353, Note_off_c, 0, 76, 62
1, 581364, Control_c, 0, 64, 101
1, 581379, Control_c, 0, 64, 104
1, 581392, Note_off_c, 0, 64, 58
1, 581394, Control_c, 0, 64, 106
1, 581405, Note_off_c, 0, 60, 39
1, 581410, Control_c, 0, 64, 107
1, 581425, Control_c, 0, 64, 111
1, 581439, Control_c, 0, 64, 117
1, 581441, Note_on_c, 0, 76, 86
1, 581450, Note_on_c, 0, 72, 66
1, 581454, Control_c, 0, 64, 124
1, 581469, Control_c, 0, 64, 122
1, 581474, Note_on_c, 0, 78, 80
1, 581474, Note_off_c, 0, 72, 64
1, 581484, Control_c, 0, 64, 104
1, 581486, Note_off_c, 0, 76, 59
1, 581499, Control_c, 0, 64, 82
1, 581513, Control_c, 0, 64, 56
1, 581527, Note_on_c, 0, 72, 66
1, 581528, Control_c, 0, 64, 47
1, 581530, Note_on_c, 0, 60, 50
1, 581530, Note_on_c, 0, 76, 74
1, 581533, Note_on_c, 0, 64, 57
1, 581543, Control_c, 0, 64, 64
1, 581558, Control_c, 0, 64, 70
1, 581563, Note_off_c, 0, 78, 64
1, 581569, Note_off_c, 0, 72, 64
1, 581573, Control_c, 0, 64, 78
1, 581587, Control_c, 0, 64, 89
1, 581595, Note_off_c, 0, 76, 65
1, 581602, Control_c, 0, 64, 104
1, 581617, Control_c, 0, 64, 127
1, 581630, Note_off_c, 0, 64, 59
1, 581635, Note_off_c, 0, 60, 59
1, 581808, Note_on_c, 0, 74, 81
1, 581813, Note_on_c, 0, 59, 52
1, 581822, Note_on_c, 0, 62, 52
1, 581822, Note_on_c, 0, 71, 57
1, 581841, Note_off_c, 0, 71, 64
1, 581841, Note_off_c, 0, 74, 62
1, 581846, Control_c, 0, 64, 117
1, 581861, Control_c, 0, 64, 83
1, 581876, Control_c, 0, 64, 67
1, 581882, Note_on_c, 0, 76, 86
1, 581886, Note_off_c, 0, 62, 62
1, 581891, Control_c, 0, 64, 68
1, 581894, Note_on_c, 0, 64, 57
1, 581897, Note_on_c, 0, 72, 69
1, 581900, Note_off_c, 0, 59, 52
1, 581906, Control_c, 0, 64, 74
1, 581917, Note_on_c, 0, 60, 40
1, 581921, Control_c, 0, 64, 81
1, 581936, Control_c, 0, 64, 93
1, 581949, Note_off_c, 0, 64, 63
1, 581951, Control_c, 0, 64, 115
1, 581954, Note_off_c, 0, 60, 64
1, 581966, Control_c, 0, 64, 127
1, 582039, Note_off_c, 0, 76, 59
1, 582128, Control_c, 0, 64, 105
1, 582135, Note_on_c, 0, 79, 79
1, 582136, Note_off_c, 0, 72, 61
1, 582143, Control_c, 0, 64, 80
1, 582144, Note_on_c, 0, 55, 49
1, 582150, Note_on_c, 0, 67, 49
1, 582154, Note_on_c, 0, 76, 58
1, 582157, Control_c, 0, 64, 53
1, 582161, Note_on_c, 0, 64, 38
1, 582172, Control_c, 0, 64, 0
1, 582218, Control_c, 0, 64, 47
1, 582233, Control_c, 0, 64, 59
1, 582248, Control_c, 0, 64, 63
1, 582262, Control_c, 0, 64, 66
1, 582277, Control_c, 0, 64, 70
1, 582292, Control_c, 0, 64, 72
1, 582308, Control_c, 0, 64, 73
1, 582323, Control_c, 0, 64, 74
1, 582330, Note_off_c, 0, 64, 60
1, 582336, Note_off_c, 0, 67, 53
1, 582337, Control_c, 0, 64, 76
1, 582352, Control_c, 0, 64, 78
1, 582367, Control_c, 0, 64, 82
1, 582374, Note_off_c, 0, 76, 59
1, 582382, Control_c, 0, 64, 84
1, 582397, Control_c, 0, 64, 86
1, 582411, Control_c, 0, 64, 87
1, 582426, Control_c, 0, 64, 88
1, 582448, Control_c, 0, 64, 90
1, 582463, Control_c, 0, 64, 92
1, 582478, Control_c, 0, 64, 93
1, 582581, Control_c, 0, 64, 92
1, 582596, Control_c, 0, 64, 89
1, 582611, Control_c, 0, 64, 85
1, 582626, Control_c, 0, 64, 83
1, 582660, Note_off_c, 0, 55, 46
1, 582670, Control_c, 0, 64, 84
1, 582676, Note_on_c, 0, 76, 63
1, 582685, Control_c, 0, 64, 85
1, 582691, Note_on_c, 0, 64, 34
1, 582700, Control_c, 0, 64, 87
1, 582707, Note_on_c, 0, 60, 30
1, 582713, Note_off_c, 0, 79, 48
1, 582715, Control_c, 0, 64, 89
1, 582730, Control_c, 0, 64, 92
1, 582744, Control_c, 0, 64, 93
1, 582759, Control_c, 0, 64, 93
1, 582848, Control_c, 0, 64, 93
1, 582878, Control_c, 0, 64, 92
1, 582893, Control_c, 0, 64, 90
1, 582908, Control_c, 0, 64, 85
1, 582908, Control_c, 0, 67, 8
1, 582922, Control_c, 0, 64, 75
1, 582922, Control_c, 0, 67, 9
1, 582928, Note_off_c, 0, 60, 43
1, 582937, Control_c, 0, 64, 64
1, 582937, Control_c, 0, 67, 9
1, 582944, Note_off_c, 0, 64, 42
1, 582945, Note_off_c, 0, 76, 57
1, 582952, Control_c, 0, 64, 0
1, 582952, Control_c, 0, 67, 10
1, 582958, Note_on_c, 0, 74, 53
1, 582961, Note_on_c, 0, 62, 39
1, 582967, Control_c, 0, 64, 24
1, 582967, Control_c, 0, 67, 12
1, 582973, Note_on_c, 0, 67, 33
1, 582978, Note_on_c, 0, 55, 35
1, 582981, Control_c, 0, 64, 50
1, 582981, Control_c, 0, 67, 15
1, 582996, Control_c, 0, 64, 60
1, 582996, Control_c, 0, 67, 19
1, 583012, Control_c, 0, 64, 64
1, 583012, Control_c, 0, 67, 23
1, 583027, Control_c, 0, 64, 67
1, 583027, Control_c, 0, 67, 26
1, 583042, Control_c, 0, 64, 71
1, 583042, Control_c, 0, 67, 29
1, 583057, Control_c, 0, 64, 74
1, 583057, Control_c, 0, 67, 33
1, 583071, Note_off_c, 0, 62, 61
1, 583071, Control_c, 0, 64, 78
1, 583071, Control_c, 0, 67, 37
1, 583086, Control_c, 0, 64, 81
1, 583086, Control_c, 0, 67, 41
1, 583100, Note_off_c, 0, 55, 58
1, 583101, Control_c, 0, 64, 84
1, 583101, Control_c, 0, 67, 44
1, 583116, Control_c, 0, 64, 86
1, 583116, Control_c, 0, 67, 47
1, 583131, Control_c, 0, 64, 89
1, 583131, Control_c, 0, 67, 50
1, 583146, Control_c, 0, 64, 91
1, 583146, Control_c, 0, 67, 53
1, 583160, Control_c, 0, 64, 94
1, 583160, Control_c, 0, 67, 56
1, 583175, Control_c, 0, 64, 95
1, 583175, Control_c, 0, 67, 57
1, 583197, Control_c, 0, 64, 96
1, 583197, Control_c, 0, 67, 58
1, 583212, Control_c, 0, 67, 59
1, 583226, Control_c, 0, 67, 60
1, 583241, Control_c, 0, 67, 62
1, 583256, Control_c, 0, 64, 96
1, 583256, Control_c, 0, 67, 63
1, 583271, Control_c, 0, 64, 97
1, 583271, Control_c, 0, 67, 64
1, 583286, Control_c, 0, 67, 65
1, 583301, Control_c, 0, 64, 96
1, 583301, Control_c, 0, 67, 66
1, 583316, Control_c, 0, 64, 95
1, 583316, Control_c, 0, 67, 66
1, 583331, Control_c, 0, 64, 91
1, 583331, Control_c, 0, 67, 67
1, 583346, Control_c, 0, 64, 85
1, 583360, Control_c, 0, 64, 81
1, 583367, Note_on_c, 0, 31, 42
1, 583375, Control_c, 0, 64, 81
1, 583390, Control_c, 0, 64, 82
1, 583405, Control_c, 0, 64, 83
1, 583411, Note_off_c, 0, 31, 60
1, 583419, Control_c, 0, 64, 85
1, 583433, Note_on_c, 0, 43, 47
1, 583434, Control_c, 0, 64, 88
1, 583449, Control_c, 0, 64, 93
1, 583464, Control_c, 0, 64, 96
1, 583479, Control_c, 0, 64, 98
1, 583480, Note_off_c, 0, 43, 63
1, 583493, Control_c, 0, 64, 100
1, 583508, Control_c, 0, 64, 101
1, 583598, Note_off_c, 0, 74, 37
1, 583635, Note_off_c, 0, 67, 27
1, 583805, Control_c, 0, 67, 67
1, 583820, Control_c, 0, 64, 101
1, 583834, Control_c, 0, 64, 100
1, 583849, Control_c, 0, 64, 100
1, 583864, Control_c, 0, 64, 98
1, 583879, Control_c, 0, 64, 95
1, 583894, Control_c, 0, 64, 86
1, 583902, Note_on_c, 0, 70, 47
1, 583908, Control_c, 0, 64, 76
1, 583915, Note_on_c, 0, 74, 49
1, 583923, Control_c, 0, 64, 64
1, 583934, Note_on_c, 0, 55, 32
1, 583934, Note_on_c, 0, 67, 32
1, 583937, Note_on_c, 0, 62, 28
1, 583940, Note_on_c, 0, 58, 32
1, 583945, Control_c, 0, 64, 40
1, 583960, Control_c, 0, 64, 47
1, 583960, Control_c, 0, 67, 66
1, 583975, Control_c, 0, 64, 56
1, 583990, Control_c, 0, 64, 61
1, 584004, Control_c, 0, 64, 64
1, 584019, Control_c, 0, 64, 67
1, 584019, Control_c, 0, 67, 66
1, 584034, Control_c, 0, 64, 69
1, 584049, Control_c, 0, 64, 72
1, 584064, Control_c, 0, 64, 75
1, 584064, Control_c, 0, 67, 65
1, 584079, Control_c, 0, 64, 78
1, 584094, Control_c, 0, 64, 82
1, 584094, Control_c, 0, 67, 65
1, 584097, Note_off_c, 0, 62, 56
1, 584108, Control_c, 0, 64, 84
1, 584108, Control_c, 0, 67, 64
1, 584109, Note_off_c, 0, 55, 57
1, 584118, Note_off_c, 0, 58, 56
1, 584123, Control_c, 0, 64, 86
1, 584138, Control_c, 0, 64, 88
1, 584153, Control_c, 0, 64, 91
1, 584153, Control_c, 0, 67, 64
1, 584168, Control_c, 0, 64, 93
1, 584182, Control_c, 0, 64, 96
1, 584182, Control_c, 0, 67, 63
1, 584197, Control_c, 0, 64, 98
1, 584197, Control_c, 0, 67, 62
1, 584212, Control_c, 0, 64, 99
1, 584212, Control_c, 0, 67, 62
1, 584227, Control_c, 0, 64, 99
1, 584241, Control_c, 0, 64, 100
1, 584241, Control_c, 0, 67, 61
1, 584256, Control_c, 0, 64, 101
1, 584256, Control_c, 0, 67, 61
1, 584271, Control_c, 0, 67, 60
1, 584286, Control_c, 0, 67, 60
1, 584301, Control_c, 0, 64, 101
1, 584330, Control_c, 0, 64, 102
1, 584330, Control_c, 0, 67, 59
1, 584339, Note_on_c, 0, 31, 51
1, 584345, Control_c, 0, 64, 102
1, 584359, Control_c, 0, 64, 103
1, 584359, Control_c, 0, 67, 58
1, 584374, Control_c, 0, 64, 105
1, 584389, Control_c, 0, 64, 107
1, 584389, Control_c, 0, 67, 58
1, 584392, Note_off_c, 0, 31, 61
1, 584401, Note_on_c, 0, 38, 59
1, 584404, Control_c, 0, 64, 109
1, 584419, Control_c, 0, 64, 112
1, 584428, Note_off_c, 0, 38, 60
1, 584434, Control_c, 0, 64, 114
1, 584434, Control_c, 0, 67, 57
1, 584449, Control_c, 0, 64, 114
1, 584478, Control_c, 0, 64, 115
1, 584478, Control_c, 0, 67, 57
1, 584493, Control_c, 0, 64, 115
1, 584508, Control_c, 0, 67, 56
1, 584523, Control_c, 0, 64, 116
1, 584551, Note_off_c, 0, 74, 57
1, 584555, Note_off_c, 0, 67, 40
1, 584567, Control_c, 0, 64, 117
1, 584577, Note_off_c, 0, 70, 43
1, 584582, Control_c, 0, 64, 118
1, 584613, Control_c, 0, 64, 118
1, 584627, Control_c, 0, 64, 113
1, 584627, Control_c, 0, 67, 57
1, 584642, Control_c, 0, 64, 102
1, 584653, Note_on_c, 0, 74, 75
1, 584657, Control_c, 0, 64, 88
1, 584660, Note_on_c, 0, 67, 54
1, 584664, Note_on_c, 0, 70, 62
1, 584666, Note_on_c, 0, 55, 48
1, 584669, Note_on_c, 0, 58, 40
1, 584672, Control_c, 0, 64, 80
1, 584672, Control_c, 0, 67, 56
1, 584682, Note_on_c, 0, 62, 35
1, 584694, Control_c, 0, 64, 79
1, 584709, Control_c, 0, 64, 79
1, 584724, Note_off_c, 0, 62, 63
1, 584724, Control_c, 0, 64, 81
1, 584738, Control_c, 0, 64, 83
1, 584738, Control_c, 0, 67, 56
1, 584741, Note_off_c, 0, 58, 48
1, 584753, Control_c, 0, 64, 87
1, 584768, Control_c, 0, 64, 90
1, 584768, Control_c, 0, 67, 55
1, 584771, Note_off_c, 0, 55, 62
1, 584783, Control_c, 0, 64, 93
1, 584798, Control_c, 0, 64, 97
1, 584798, Control_c, 0, 67, 54
1, 584812, Control_c, 0, 64, 100
1, 584827, Control_c, 0, 64, 103
1, 584827, Control_c, 0, 67, 54
1, 584842, Control_c, 0, 64, 106
1, 584842, Control_c, 0, 67, 52
1, 584857, Control_c, 0, 64, 108
1, 584857, Control_c, 0, 67, 51
1, 584872, Control_c, 0, 64, 111
1, 584872, Control_c, 0, 67, 50
1, 584881, Note_off_c, 0, 67, 50
1, 584887, Control_c, 0, 64, 115
1, 584887, Control_c, 0, 67, 48
1, 584902, Control_c, 0, 64, 123
1, 584902, Control_c, 0, 67, 47
1, 584917, Control_c, 0, 64, 127
1, 584917, Control_c, 0, 67, 45
1, 584931, Control_c, 0, 67, 44
1, 584946, Note_off_c, 0, 70, 57
1, 584946, Control_c, 0, 67, 42
1, 584961, Control_c, 0, 67, 41
1, 584965, Note_off_c, 0, 74, 60
1, 584976, Control_c, 0, 67, 40
1, 584985, Note_on_c, 0, 31, 60
1, 584990, Control_c, 0, 67, 38
1, 585005, Control_c, 0, 67, 37
1, 585020, Control_c, 0, 67, 35
1, 585035, Control_c, 0, 67, 32
1, 585036, Note_off_c, 0, 31, 63
1, 585039, Note_on_c, 0, 38, 63
1, 585050, Control_c, 0, 67, 30
1, 585064, Control_c, 0, 67, 27
1, 585069, Note_off_c, 0, 38, 64
1, 585079, Control_c, 0, 67, 24
1, 585094, Control_c, 0, 67, 20
1, 585109, Control_c, 0, 67, 16
1, 585124, Control_c, 0, 67, 13
1, 585138, Control_c, 0, 67, 10
1, 585153, Control_c, 0, 67, 8
1, 585168, Control_c, 0, 67, 0
1, 585187, Note_on_c, 0, 74, 70
1, 585212, Note_off_c, 0, 74, 70
1, 585212, Control_c, 0, 64, 112
1, 585221, Note_on_c, 0, 76, 69
1, 585227, Control_c, 0, 64, 92
1, 585242, Control_c, 0, 64, 75
1, 585256, Control_c, 0, 64, 60
1, 585271, Control_c, 0, 64, 56
1, 585278, Poly_aftertouch_c, 0, 72, 0
1, 585280, Note_on_c, 0, 74, 81
1, 585286, Control_c, 0, 64, 63
1, 585288, Note_on_c, 0, 58, 47
1, 585289, Note_on_c, 0, 62, 52
1, 585289, Note_on_c, 0, 70, 64
1, 585302, Control_c, 0, 64, 65
1, 585307, Note_off_c, 0, 76, 60
1, 585317, Control_c, 0, 64, 68
1, 585331, Control_c, 0, 64, 72
1, 585346, Control_c, 0, 64, 77
1, 585361, Control_c, 0, 64, 83
1, 585363, Note_off_c, 0, 74, 65
1, 585364, Note_off_c, 0, 70, 63
1, 585376, Control_c, 0, 64, 87
1, 585377, Note_off_c, 0, 62, 58
1, 585391, Note_off_c, 0, 58, 59
1, 585391, Control_c, 0, 64, 90
1, 585406, Control_c, 0, 64, 92
1, 585429, Control_c, 0, 64, 95
1, 585444, Control_c, 0, 64, 98
1, 585459, Control_c, 0, 64, 102
1, 585474, Control_c, 0, 64, 106
1, 585488, Control_c, 0, 64, 107
1, 585518, Control_c, 0, 64, 108
1, 585533, Control_c, 0, 64, 111
1, 585548, Control_c, 0, 64, 117
1, 585562, Control_c, 0, 64, 127
1, 585598, Note_on_c, 0, 57, 50
1, 585599, Note_on_c, 0, 73, 75
1, 585605, Note_on_c, 0, 69, 61
1, 585606, Control_c, 0, 64, 114
1, 585608, Note_on_c, 0, 61, 63
1, 585621, Control_c, 0, 64, 99
1, 585630, Note_off_c, 0, 69, 64
1, 585636, Control_c, 0, 64, 85
1, 585637, Note_off_c, 0, 73, 59
1, 585651, Control_c, 0, 64, 79
1, 585656, Note_off_c, 0, 57, 53
1, 585666, Control_c, 0, 64, 81
1, 585675, Note_off_c, 0, 61, 61
1, 585677, Note_on_c, 0, 74, 87
1, 585680, Note_on_c, 0, 70, 79
1, 585680, Control_c, 0, 64, 86
1, 585684, Note_on_c, 0, 58, 60
1, 585686, Note_on_c, 0, 62, 53
1, 585695, Control_c, 0, 64, 93
1, 585710, Control_c, 0, 64, 102
1, 585725, Note_off_c, 0, 62, 61
1, 585725, Control_c, 0, 64, 112
1, 585729, Note_off_c, 0, 70, 60
1, 585733, Note_off_c, 0, 58, 49
1, 585734, Note_off_c, 0, 74, 65
1, 585740, Control_c, 0, 64, 126
1, 585754, Control_c, 0, 64, 127
1, 585813, Note_on_c, 0, 74, 76
1, 585836, Note_off_c, 0, 74, 68
1, 585845, Note_on_c, 0, 70, 36
1, 585853, Note_on_c, 0, 76, 68
1, 585873, Note_off_c, 0, 70, 59
1, 585874, Control_c, 0, 64, 111
1, 585888, Control_c, 0, 64, 85
1, 585899, Note_on_c, 0, 74, 80
1, 585903, Control_c, 0, 64, 66
1, 585913, Note_on_c, 0, 62, 46
1, 585916, Note_on_c, 0, 70, 60
1, 585917, Note_on_c, 0, 58, 49
1, 585918, Control_c, 0, 64, 46
1, 585927, Note_off_c, 0, 76, 65
1, 585933, Control_c, 0, 64, 62
1, 585948, Control_c, 0, 64, 67
1, 585962, Control_c, 0, 64, 71
1, 585977, Control_c, 0, 64, 75
1, 585989, Note_off_c, 0, 70, 60
1, 585992, Control_c, 0, 64, 81
1, 585994, Note_off_c, 0, 74, 64
1, 586006, Control_c, 0, 64, 86
1, 586010, Note_off_c, 0, 62, 56
1, 586019, Note_off_c, 0, 58, 50
1, 586021, Control_c, 0, 64, 89
1, 586036, Control_c, 0, 64, 91
1, 586051, Control_c, 0, 64, 93
1, 586066, Control_c, 0, 64, 97
1, 586080, Control_c, 0, 64, 101
1, 586095, Control_c, 0, 64, 104
1, 586110, Control_c, 0, 64, 106
1, 586125, Control_c, 0, 64, 107
1, 586139, Control_c, 0, 64, 108
1, 586225, Note_on_c, 0, 57, 42
1, 586234, Note_on_c, 0, 73, 82
1, 586237, Control_c, 0, 64, 106
1, 586243, Note_on_c, 0, 61, 53
1, 586252, Control_c, 0, 64, 99
1, 586267, Control_c, 0, 64, 89
1, 586282, Control_c, 0, 64, 74
1, 586297, Control_c, 0, 64, 63
1, 586299, Note_off_c, 0, 73, 62
1, 586311, Control_c, 0, 64, 64
1, 586318, Poly_aftertouch_c, 0, 69, 0
1, 586320, Note_off_c, 0, 61, 58
1, 586324, Note_on_c, 0, 70, 64
1, 586326, Control_c, 0, 64, 67
1, 586327, Note_on_c, 0, 74, 82
1, 586332, Note_off_c, 0, 57, 55
1, 586337, Note_on_c, 0, 62, 49
1, 586341, Control_c, 0, 64, 70
1, 586346, Note_on_c, 0, 58, 48
1, 586351, Note_off_c, 0, 70, 68
1, 586356, Control_c, 0, 64, 73
1, 586371, Control_c, 0, 64, 79
1, 586385, Control_c, 0, 64, 85
1, 586388, Note_off_c, 0, 58, 58
1, 586396, Note_off_c, 0, 62, 59
1, 586400, Control_c, 0, 64, 91
1, 586415, Control_c, 0, 64, 95
1, 586429, Control_c, 0, 64, 98
1, 586444, Control_c, 0, 64, 101
1, 586459, Control_c, 0, 64, 105
1, 586474, Control_c, 0, 64, 109
1, 586489, Control_c, 0, 64, 113
1, 586503, Control_c, 0, 64, 114
1, 586529, Note_off_c, 0, 74, 61
1, 586548, Control_c, 0, 64, 115
1, 586577, Control_c, 0, 64, 114
1, 586637, Control_c, 0, 64, 114
1, 586650, Note_on_c, 0, 81, 69
1, 586652, Control_c, 0, 64, 107
1, 586666, Control_c, 0, 64, 99
1, 586672, Note_on_c, 0, 65, 40
1, 586679, Note_on_c, 0, 69, 40
1, 586679, Note_on_c, 0, 77, 54
1, 586681, Control_c, 0, 64, 88
1, 586684, Note_on_c, 0, 57, 41
1, 586696, Control_c, 0, 64, 74
1, 586711, Control_c, 0, 64, 62
1, 586726, Control_c, 0, 64, 56
1, 586741, Control_c, 0, 64, 63
1, 586755, Control_c, 0, 64, 65
1, 586770, Control_c, 0, 64, 66
1, 586785, Control_c, 0, 64, 68
1, 586800, Control_c, 0, 64, 70
1, 586815, Control_c, 0, 64, 73
1, 586829, Control_c, 0, 64, 76
1, 586844, Control_c, 0, 64, 78
1, 586859, Control_c, 0, 64, 81
1, 586874, Control_c, 0, 64, 83
1, 586889, Control_c, 0, 64, 87
1, 586896, Note_off_c, 0, 69, 37
1, 586903, Control_c, 0, 64, 91
1, 586906, Note_off_c, 0, 77, 36
1, 586918, Control_c, 0, 64, 94
1, 586935, Note_off_c, 0, 65, 56
1, 586941, Control_c, 0, 64, 98
1, 586955, Control_c, 0, 64, 102
1, 586970, Control_c, 0, 64, 107
1, 586985, Control_c, 0, 64, 111
1, 587000, Control_c, 0, 64, 116
1, 587015, Control_c, 0, 64, 124
1, 587030, Control_c, 0, 64, 127
1, 587128, Note_off_c, 0, 57, 48
1, 587151, Note_on_c, 0, 77, 62
1, 587161, Note_on_c, 0, 65, 38
1, 587169, Note_on_c, 0, 62, 37
1, 587188, Note_off_c, 0, 81, 38
1, 587236, Poly_aftertouch_c, 0, 74, 127
1, 587286, Poly_aftertouch_c, 0, 74, 0
1, 587326, Control_c, 0, 64, 118
1, 587341, Control_c, 0, 64, 103
1, 587356, Control_c, 0, 64, 88
1, 587370, Note_off_c, 0, 77, 58
1, 587371, Note_off_c, 0, 62, 41
1, 587371, Control_c, 0, 64, 73
1, 587381, Note_off_c, 0, 65, 44
1, 587385, Control_c, 0, 64, 53
1, 587394, Note_on_c, 0, 76, 55
1, 587400, Control_c, 0, 64, 37
1, 587407, Note_on_c, 0, 64, 38
1, 587412, Note_on_c, 0, 69, 34
1, 587414, Note_on_c, 0, 57, 33
1, 587415, Control_c, 0, 64, 58
1, 587430, Control_c, 0, 64, 64
1, 587445, Control_c, 0, 64, 66
1, 587459, Control_c, 0, 64, 70
1, 587474, Control_c, 0, 64, 75
1, 587479, Note_off_c, 0, 64, 61
1, 587489, Control_c, 0, 64, 81
1, 587504, Control_c, 0, 64, 89
1, 587515, Note_off_c, 0, 57, 61
1, 587519, Control_c, 0, 64, 95
1, 587534, Control_c, 0, 64, 101
1, 587548, Control_c, 0, 64, 109
1, 587563, Control_c, 0, 64, 126
1, 587577, Control_c, 0, 64, 127
1, 587629, Note_off_c, 0, 76, 58
1, 587728, Note_on_c, 0, 33, 56
1, 587767, Note_off_c, 0, 33, 61
1, 587776, Note_on_c, 0, 45, 63
1, 587803, Note_off_c, 0, 45, 66
1, 587868, Note_off_c, 0, 69, 33
1, 588030, Control_c, 0, 64, 91
1, 588036, Note_on_c, 0, 81, 87
1, 588045, Control_c, 0, 64, 68
1, 588050, Note_on_c, 0, 77, 70
1, 588051, Note_on_c, 0, 69, 55
1, 588053, Note_on_c, 0, 65, 52
1, 588060, Control_c, 0, 64, 55
1, 588066, Note_on_c, 0, 57, 44
1, 588074, Control_c, 0, 64, 65
1, 588089, Control_c, 0, 64, 70
1, 588104, Control_c, 0, 64, 76
1, 588119, Control_c, 0, 64, 84
1, 588134, Control_c, 0, 64, 96
1, 588148, Control_c, 0, 64, 107
1, 588163, Control_c, 0, 64, 122
1, 588178, Control_c, 0, 64, 127
1, 588232, Note_off_c, 0, 69, 57
1, 588250, Note_off_c, 0, 65, 61
1, 588265, Note_off_c, 0, 77, 54
1, 588473, Note_off_c, 0, 57, 52
1, 588485, Note_on_c, 0, 77, 88
1, 588489, Note_on_c, 0, 62, 56
1, 588494, Note_on_c, 0, 65, 57
1, 588511, Note_on_c, 0, 74, 52
1, 588524, Note_off_c, 0, 81, 56
1, 588544, Note_off_c, 0, 74, 59
1, 588676, Control_c, 0, 64, 85
1, 588691, Control_c, 0, 64, 51
1, 588705, Control_c, 0, 64, 0
1, 588720, Control_c, 0, 64, 43
1, 588723, Note_on_c, 0, 76, 88
1, 588725, Note_off_c, 0, 62, 58
1, 588726, Note_on_c, 0, 64, 69
1, 588726, Note_off_c, 0, 65, 62
1, 588735, Note_on_c, 0, 69, 63
1, 588735, Control_c, 0, 64, 62
1, 588744, Note_on_c, 0, 57, 64
1, 588746, Note_off_c, 0, 77, 63
1, 588750, Control_c, 0, 64, 69
1, 588765, Control_c, 0, 64, 78
1, 588779, Note_off_c, 0, 64, 64
1, 588780, Control_c, 0, 64, 88
1, 588795, Control_c, 0, 64, 101
1, 588799, Note_off_c, 0, 57, 63
1, 588810, Control_c, 0, 64, 116
1, 588824, Control_c, 0, 64, 127
1, 588888, Note_off_c, 0, 69, 60
1, 588932, Note_off_c, 0, 76, 62
1, 589063, Note_on_c, 0, 33, 77
1, 589109, Note_on_c, 0, 45, 86
1, 589115, Note_off_c, 0, 33, 61
1, 589129, Note_on_c, 0, 43, 40
1, 589133, Note_off_c, 0, 45, 68
1, 589163, Note_off_c, 0, 43, 53
1, 589334, Control_c, 0, 64, 119
1, 589349, Control_c, 0, 64, 87
1, 589364, Control_c, 0, 64, 72
1, 589366, Note_on_c, 0, 89, 100
1, 589371, Note_on_c, 0, 77, 85
1, 589375, Note_on_c, 0, 57, 64
1, 589376, Note_on_c, 0, 65, 77
1, 589376, Note_on_c, 0, 86, 71
1, 589376, Note_on_c, 0, 62, 67
1, 589379, Control_c, 0, 64, 71
1, 589394, Control_c, 0, 64, 77
1, 589405, Note_off_c, 0, 86, 63
1, 589409, Control_c, 0, 64, 84
1, 589424, Control_c, 0, 64, 93
1, 589439, Control_c, 0, 64, 104
1, 589443, Note_off_c, 0, 77, 61
1, 589454, Control_c, 0, 64, 118
1, 589468, Control_c, 0, 64, 127
1, 589477, Note_off_c, 0, 89, 62
1, 589494, Note_off_c, 0, 65, 61
1, 589527, Note_off_c, 0, 62, 56
1, 589745, Note_on_c, 0, 69, 78
1, 589745, Note_on_c, 0, 93, 106
1, 589749, Note_on_c, 0, 81, 90
1, 589757, Note_on_c, 0, 65, 66
1, 589771, Note_off_c, 0, 69, 64
1, 589774, Note_off_c, 0, 81, 63
1, 589786, Note_off_c, 0, 93, 69
1, 589787, Note_off_c, 0, 65, 62
1, 589837, Note_on_c, 0, 89, 106
1, 589844, Note_on_c, 0, 77, 97
1, 589850, Note_on_c, 0, 86, 78
1, 589856, Note_on_c, 0, 62, 76
1, 589861, Note_on_c, 0, 65, 79
1, 589934, Note_off_c, 0, 57, 38
1, 589981, Note_off_c, 0, 65, 61
1, 589989, Note_off_c, 0, 77, 58
1, 589998, Note_off_c, 0, 62, 60
1, 590010, Note_off_c, 0, 89, 61
1, 590013, Note_off_c, 0, 86, 60
1, 590068, Control_c, 0, 64, 95
1, 590082, Note_on_c, 0, 89, 100
1, 590083, Note_on_c, 0, 77, 96
1, 590083, Control_c, 0, 64, 74
1, 590086, Note_on_c, 0, 62, 73
1, 590086, Note_on_c, 0, 65, 79
1, 590091, Note_on_c, 0, 57, 65
1, 590096, Note_on_c, 0, 86, 72
1, 590098, Control_c, 0, 64, 73
1, 590113, Control_c, 0, 64, 80
1, 590117, Note_off_c, 0, 86, 71
1, 590127, Control_c, 0, 64, 88
1, 590133, Note_off_c, 0, 77, 64
1, 590142, Control_c, 0, 64, 101
1, 590155, Note_off_c, 0, 89, 64
1, 590157, Control_c, 0, 64, 127
1, 590180, Note_off_c, 0, 65, 63
1, 590211, Note_off_c, 0, 62, 57
1, 590384, Note_on_c, 0, 69, 71
1, 590391, Note_on_c, 0, 93, 100
1, 590392, Note_on_c, 0, 81, 91
1, 590394, Note_on_c, 0, 65, 68
1, 590416, Note_off_c, 0, 69, 61
1, 590421, Note_off_c, 0, 81, 62
1, 590436, Note_off_c, 0, 93, 65
1, 590455, Note_off_c, 0, 65, 59
1, 590482, Note_on_c, 0, 89, 95
1, 590488, Note_on_c, 0, 77, 93
1, 590496, Note_on_c, 0, 62, 74
1, 590500, Note_on_c, 0, 65, 70
1, 590503, Note_off_c, 0, 57, 58
1, 590559, Note_off_c, 0, 89, 63
1, 590657, Note_off_c, 0, 77, 61
1, 590699, Control_c, 0, 64, 106
1, 590714, Control_c, 0, 64, 72
1, 590729, Control_c, 0, 64, 0
1, 590740, Note_on_c, 0, 88, 99
1, 590740, Note_off_c, 0, 62, 61
1, 590741, Note_on_c, 0, 81, 86
1, 590743, Note_on_c, 0, 76, 93
1, 590744, Note_on_c, 0, 64, 80
1, 590744, Note_on_c, 0, 85, 86
1, 590746, Note_off_c, 0, 65, 66
1, 590752, Note_on_c, 0, 57, 70
1, 590788, Control_c, 0, 64, 49
1, 590802, Control_c, 0, 64, 67
1, 590810, Note_off_c, 0, 64, 66
1, 590817, Control_c, 0, 64, 76
1, 590831, Note_off_c, 0, 57, 64
1, 590832, Control_c, 0, 64, 86
1, 590847, Control_c, 0, 64, 96
1, 590862, Control_c, 0, 64, 103
1, 590876, Control_c, 0, 64, 109
1, 590891, Control_c, 0, 64, 115
1, 590906, Control_c, 0, 64, 127
1, 591080, Note_on_c, 0, 33, 74
1, 591117, Note_off_c, 0, 33, 63
1, 591118, Note_on_c, 0, 45, 77
1, 591148, Note_off_c, 0, 45, 67
1, 591305, Note_off_c, 0, 88, 57
1, 591311, Note_off_c, 0, 76, 59
1, 591322, Note_off_c, 0, 81, 63
1, 591324, Note_off_c, 0, 85, 62
1, 591352, Control_c, 0, 64, 110
1, 591367, Control_c, 0, 64, 88
1, 591373, Note_on_c, 0, 64, 79
1, 591376, Note_on_c, 0, 88, 100
1, 591378, Note_on_c, 0, 57, 73
1, 591379, Note_on_c, 0, 85, 78
1, 591380, Note_on_c, 0, 76, 85
1, 591380, Note_on_c, 0, 81, 68
1, 591382, Control_c, 0, 64, 79
1, 591397, Control_c, 0, 64, 81
1, 591399, Note_off_c, 0, 64, 70
1, 591407, Note_off_c, 0, 57, 66
1, 591412, Control_c, 0, 64, 87
1, 591433, Control_c, 0, 64, 94
1, 591448, Control_c, 0, 64, 102
1, 591463, Control_c, 0, 64, 113
1, 591478, Control_c, 0, 64, 127
1, 591730, Control_c, 0, 64, 122
1, 591744, Control_c, 0, 64, 98
1, 591759, Control_c, 0, 64, 80
1, 591774, Control_c, 0, 64, 72
1, 591778, Note_on_c, 0, 33, 68
1, 591790, Control_c, 0, 64, 75
1, 591805, Control_c, 0, 64, 81
1, 591813, Note_on_c, 0, 45, 77
1, 591820, Control_c, 0, 64, 86
1, 591823, Note_off_c, 0, 33, 61
1, 591835, Control_c, 0, 64, 92
1, 591848, Note_off_c, 0, 45, 65
1, 591849, Control_c, 0, 64, 100
1, 591864, Control_c, 0, 64, 109
1, 591879, Control_c, 0, 64, 121
1, 591894, Control_c, 0, 64, 127
1, 591987, Note_off_c, 0, 88, 53
1, 591991, Note_off_c, 0, 76, 58
1, 592019, Note_off_c, 0, 81, 57
1, 592025, Note_off_c, 0, 85, 61
1, 592056, Control_c, 0, 64, 126
1, 592071, Control_c, 0, 64, 102
1, 592086, Control_c, 0, 64, 84
1, 592093, Note_on_c, 0, 88, 87
1, 592100, Note_on_c, 0, 76, 75
1, 592101, Control_c, 0, 64, 72
1, 592104, Note_on_c, 0, 85, 73
1, 592108, Note_on_c, 0, 64, 72
1, 592110, Note_on_c, 0, 81, 66
1, 592112, Note_on_c, 0, 57, 65
1, 592116, Control_c, 0, 64, 71
1, 592130, Control_c, 0, 64, 77
1, 592145, Control_c, 0, 64, 82
1, 592153, Note_off_c, 0, 64, 63
1, 592160, Control_c, 0, 64, 88
1, 592171, Note_off_c, 0, 57, 62
1, 592182, Control_c, 0, 64, 93
1, 592197, Control_c, 0, 64, 100
1, 592212, Control_c, 0, 64, 106
1, 592227, Control_c, 0, 64, 108
1, 592271, Control_c, 0, 64, 108
1, 592286, Control_c, 0, 64, 109
1, 592301, Control_c, 0, 64, 110
1, 592316, Control_c, 0, 64, 110
1, 592375, Control_c, 0, 64, 110
1, 592479, Control_c, 0, 64, 108
1, 592494, Control_c, 0, 64, 104
1, 592509, Control_c, 0, 64, 97
1, 592523, Control_c, 0, 64, 88
1, 592533, Note_on_c, 0, 33, 60
1, 592538, Control_c, 0, 64, 74
1, 592553, Control_c, 0, 64, 65
1, 592567, Control_c, 0, 64, 66
1, 592577, Note_on_c, 0, 45, 69
1, 592582, Control_c, 0, 64, 69
1, 592582, Control_c, 0, 67, 8
1, 592598, Control_c, 0, 64, 71
1, 592598, Control_c, 0, 67, 8
1, 592613, Control_c, 0, 64, 73
1, 592613, Control_c, 0, 67, 9
1, 592628, Control_c, 0, 64, 75
1, 592628, Control_c, 0, 67, 9
1, 592643, Control_c, 0, 64, 79
1, 592643, Control_c, 0, 67, 10
1, 592658, Control_c, 0, 64, 82
1, 592661, Note_off_c, 0, 45, 64
1, 592672, Control_c, 0, 64, 85
1, 592676, Note_off_c, 0, 33, 60
1, 592687, Control_c, 0, 64, 87
1, 592687, Control_c, 0, 67, 11
1, 592702, Control_c, 0, 64, 89
1, 592717, Control_c, 0, 64, 91
1, 592717, Control_c, 0, 67, 11
1, 592732, Control_c, 0, 64, 94
1, 592732, Control_c, 0, 67, 12
1, 592746, Control_c, 0, 64, 97
1, 592746, Control_c, 0, 67, 13
1, 592761, Control_c, 0, 64, 98
1, 592761, Control_c, 0, 67, 15
1, 592776, Control_c, 0, 64, 99
1, 592776, Control_c, 0, 67, 16
1, 592790, Control_c, 0, 64, 99
1, 592790, Control_c, 0, 67, 17
1, 592805, Control_c, 0, 64, 101
1, 592805, Control_c, 0, 67, 18
1, 592820, Control_c, 0, 64, 103
1, 592820, Control_c, 0, 67, 20
1, 592835, Control_c, 0, 64, 104
1, 592835, Control_c, 0, 67, 22
1, 592850, Control_c, 0, 67, 24
1, 592864, Control_c, 0, 67, 26
1, 592879, Control_c, 0, 67, 27
1, 592894, Control_c, 0, 67, 28
1, 592917, Control_c, 0, 67, 29
1, 592932, Control_c, 0, 67, 30
1, 592946, Control_c, 0, 67, 31
1, 592961, Control_c, 0, 67, 32
1, 592976, Control_c, 0, 67, 33
1, 592991, Control_c, 0, 67, 35
1, 593005, Control_c, 0, 67, 36
1, 593020, Control_c, 0, 67, 37
1, 593035, Control_c, 0, 67, 37
1, 593050, Control_c, 0, 67, 38
1, 593065, Control_c, 0, 67, 39
1, 593079, Control_c, 0, 67, 40
1, 593094, Control_c, 0, 67, 41
1, 593109, Control_c, 0, 67, 42
1, 593123, Control_c, 0, 67, 43
1, 593133, Note_off_c, 0, 76, 27
1, 593138, Control_c, 0, 67, 44
1, 593153, Control_c, 0, 67, 44
1, 593168, Control_c, 0, 67, 45
1, 593183, Control_c, 0, 67, 46
1, 593198, Control_c, 0, 67, 47
1, 593213, Control_c, 0, 67, 48
1, 593227, Control_c, 0, 67, 48
1, 593242, Control_c, 0, 64, 104
1, 593242, Control_c, 0, 67, 49
1, 593257, Control_c, 0, 67, 50
1, 593272, Control_c, 0, 64, 103
1, 593272, Control_c, 0, 67, 52
1, 593284, Note_off_c, 0, 81, 36
1, 593287, Control_c, 0, 64, 103
1, 593287, Control_c, 0, 67, 53
1, 593302, Control_c, 0, 64, 102
1, 593302, Control_c, 0, 67, 54
1, 593316, Control_c, 0, 64, 100
1, 593316, Control_c, 0, 67, 55
1, 593331, Control_c, 0, 64, 98
1, 593331, Control_c, 0, 67, 57
1, 593346, Control_c, 0, 64, 93
1, 593346, Control_c, 0, 67, 58
1, 593347, Note_on_c, 0, 33, 48
1, 593361, Control_c, 0, 64, 86
1, 593361, Control_c, 0, 67, 60
1, 593376, Control_c, 0, 64, 76
1, 593376, Control_c, 0, 67, 63
1, 593391, Control_c, 0, 64, 66
1, 593391, Control_c, 0, 67, 65
1, 593406, Control_c, 0, 64, 61
1, 593406, Control_c, 0, 67, 67
1, 593407, Note_on_c, 0, 45, 52
1, 593421, Control_c, 0, 64, 63
1, 593421, Control_c, 0, 67, 69
1, 593436, Control_c, 0, 64, 64
1, 593436, Control_c, 0, 67, 71
1, 593451, Control_c, 0, 64, 64
1, 593451, Control_c, 0, 67, 74
1, 593466, Control_c, 0, 64, 65
1, 593466, Control_c, 0, 67, 76
1, 593481, Control_c, 0, 64, 66
1, 593481, Control_c, 0, 67, 78
1, 593495, Control_c, 0, 64, 69
1, 593495, Control_c, 0, 67, 80
1, 593510, Note_off_c, 0, 85, 33
1, 593510, Control_c, 0, 64, 71
1, 593510, Control_c, 0, 67, 82
1, 593525, Control_c, 0, 64, 74
1, 593525, Control_c, 0, 67, 84
1, 593539, Control_c, 0, 64, 76
1, 593539, Control_c, 0, 67, 86
1, 593554, Control_c, 0, 64, 78
1, 593554, Control_c, 0, 67, 88
1, 593569, Control_c, 0, 64, 80
1, 593569, Control_c, 0, 67, 90
1, 593584, Control_c, 0, 64, 83
1, 593584, Control_c, 0, 67, 92
1, 593588, Note_off_c, 0, 45, 40
1, 593599, Control_c, 0, 64, 85
1, 593599, Control_c, 0, 67, 93
1, 593613, Control_c, 0, 64, 88
1, 593613, Control_c, 0, 67, 94
1, 593628, Control_c, 0, 64, 89
1, 593628, Control_c, 0, 67, 96
1, 593636, Note_off_c, 0, 88, 41
1, 593637, Note_off_c, 0, 33, 37
1, 593643, Control_c, 0, 64, 91
1, 593643, Control_c, 0, 67, 96
1, 593658, Control_c, 0, 64, 93
1, 593658, Control_c, 0, 67, 97
1, 593681, Control_c, 0, 64, 95
1, 593681, Control_c, 0, 67, 97
1, 593695, Control_c, 0, 64, 96
1, 593695, Control_c, 0, 67, 98
1, 593710, Control_c, 0, 67, 98
1, 593725, Control_c, 0, 67, 99
1, 593740, Control_c, 0, 64, 96
1, 593754, Control_c, 0, 64, 97
1, 594184, Control_c, 0, 64, 96
1, 594274, Control_c, 0, 64, 96
1, 594303, Control_c, 0, 64, 95
1, 594347, Control_c, 0, 64, 95
1, 594406, Control_c, 0, 64, 94
1, 594458, Control_c, 0, 64, 94
1, 594488, Control_c, 0, 67, 98
1, 594503, Control_c, 0, 64, 93
1, 594532, Control_c, 0, 64, 93
1, 594562, Control_c, 0, 64, 92
1, 594576, Control_c, 0, 64, 92
1, 594591, Control_c, 0, 67, 98
1, 594606, Control_c, 0, 64, 91
1, 594636, Control_c, 0, 64, 91
1, 594650, Control_c, 0, 64, 90
1, 594665, Control_c, 0, 64, 89
1, 594680, Control_c, 0, 64, 88
1, 594680, Control_c, 0, 67, 97
1, 594695, Control_c, 0, 64, 88
1, 594710, Control_c, 0, 64, 87
1, 594724, Control_c, 0, 64, 87
1, 594739, Note_on_c, 0, 33, 31
1, 594739, Control_c, 0, 64, 84
1, 594754, Control_c, 0, 64, 80
1, 594769, Control_c, 0, 64, 72
1, 594783, Control_c, 0, 64, 63
1, 594798, Control_c, 0, 64, 39
1, 594813, Control_c, 0, 64, 35
1, 594828, Note_on_c, 0, 45, 37
1, 594828, Control_c, 0, 64, 46
1, 594843, Control_c, 0, 64, 53
1, 594858, Control_c, 0, 64, 57
1, 594858, Control_c, 0, 67, 97
1, 594873, Control_c, 0, 64, 61
1, 594887, Control_c, 0, 64, 63
1, 594902, Control_c, 0, 64, 65
1, 594917, Control_c, 0, 64, 66
1, 594917, Control_c, 0, 67, 96
1, 594932, Control_c, 0, 64, 68
1, 594937, Note_off_c, 0, 33, 49
1, 594947, Control_c, 0, 64, 70
1, 594947, Control_c, 0, 67, 96
1, 594962, Control_c, 0, 64, 72
1, 594976, Control_c, 0, 64, 73
1, 594992, Control_c, 0, 64, 75
1, 595007, Control_c, 0, 64, 77
1, 595007, Control_c, 0, 67, 95
1, 595022, Control_c, 0, 64, 79
1, 595022, Control_c, 0, 67, 95
1, 595037, Control_c, 0, 64, 81
1, 595049, Note_off_c, 0, 45, 56
1, 595052, Control_c, 0, 64, 82
1, 595052, Control_c, 0, 67, 94
1, 595067, Control_c, 0, 64, 84
1, 595082, Control_c, 0, 64, 85
1, 595082, Control_c, 0, 67, 94
1, 595096, Control_c, 0, 64, 87
1, 595096, Control_c, 0, 67, 93
1, 595111, Control_c, 0, 64, 88
1, 595126, Control_c, 0, 64, 89
1, 595126, Control_c, 0, 67, 93
1, 595141, Control_c, 0, 64, 89
1, 595156, Control_c, 0, 64, 90
1, 595178, Control_c, 0, 64, 91
1, 595178, Control_c, 0, 67, 92
1, 595192, Control_c, 0, 64, 92
1, 595192, Control_c, 0, 67, 92
1, 595207, Control_c, 0, 67, 91
1, 595222, Control_c, 0, 67, 90
1, 595237, Control_c, 0, 67, 90
1, 595252, Control_c, 0, 67, 89
1, 595281, Control_c, 0, 67, 89
1, 595296, Control_c, 0, 67, 88
1, 595311, Control_c, 0, 67, 88
1, 595326, Control_c, 0, 67, 87
1, 595341, Control_c, 0, 67, 86
1, 595371, Control_c, 0, 67, 85
1, 595386, Control_c, 0, 67, 85
1, 595400, Control_c, 0, 67, 84
1, 595415, Control_c, 0, 67, 84
1, 595430, Control_c, 0, 67, 83
1, 595445, Control_c, 0, 67, 82
1, 595460, Control_c, 0, 67, 82
1, 595474, Control_c, 0, 67, 81
1, 595489, Control_c, 0, 67, 80
1, 595504, Control_c, 0, 64, 91
1, 595504, Control_c, 0, 67, 79
1, 595518, Control_c, 0, 64, 91
1, 595518, Control_c, 0, 67, 79
1, 595548, Control_c, 0, 64, 90
1, 595548, Control_c, 0, 67, 78
1, 595578, Control_c, 0, 64, 89
1, 595592, Control_c, 0, 64, 87
1, 595607, Control_c, 0, 64, 83
1, 595622, Control_c, 0, 64, 78
1, 595637, Control_c, 0, 64, 70
1, 595652, Control_c, 0, 64, 66
1, 595653, Note_on_c, 0, 69, 38
1, 595666, Control_c, 0, 64, 67
1, 595669, Note_on_c, 0, 57, 34
1, 595681, Control_c, 0, 64, 68
1, 595696, Control_c, 0, 64, 68
1, 595710, Control_c, 0, 64, 69
1, 595725, Control_c, 0, 64, 70
1, 595740, Control_c, 0, 64, 71
1, 595755, Control_c, 0, 64, 74
1, 595755, Control_c, 0, 67, 78
1, 595762, Note_off_c, 0, 57, 59
1, 595770, Control_c, 0, 64, 76
1, 595775, Note_off_c, 0, 69, 62
1, 595786, Control_c, 0, 64, 77
1, 595801, Control_c, 0, 64, 78
1, 595815, Control_c, 0, 64, 81
1, 595815, Control_c, 0, 67, 77
1, 595830, Control_c, 0, 64, 84
1, 595845, Control_c, 0, 64, 87
1, 595860, Control_c, 0, 64, 88
1, 595875, Control_c, 0, 64, 89
1, 595889, Control_c, 0, 64, 88
1, 595889, Control_c, 0, 67, 77
1, 595904, Control_c, 0, 64, 86
1, 595904, Control_c, 0, 67, 76
1, 595927, Control_c, 0, 64, 84
1, 595927, Control_c, 0, 67, 76
1, 595934, Note_on_c, 0, 74, 65
1, 595941, Control_c, 0, 64, 84
1, 595941, Control_c, 0, 67, 74
1, 595951, Note_on_c, 0, 66, 43
1, 595954, Note_on_c, 0, 54, 43
1, 595955, Note_on_c, 0, 62, 46
1, 595956, Control_c, 0, 67, 73
1, 595971, Control_c, 0, 64, 84
1, 595971, Control_c, 0, 67, 73
1, 595986, Control_c, 0, 64, 85
1, 595986, Control_c, 0, 67, 72
1, 596001, Control_c, 0, 64, 87
1, 596001, Control_c, 0, 67, 71
1, 596007, Note_off_c, 0, 66, 54
1, 596015, Control_c, 0, 64, 89
1, 596015, Control_c, 0, 67, 70
1, 596030, Control_c, 0, 64, 92
1, 596030, Control_c, 0, 67, 68
1, 596045, Control_c, 0, 64, 94
1, 596045, Control_c, 0, 67, 66
1, 596060, Control_c, 0, 64, 95
1, 596060, Control_c, 0, 67, 64
1, 596068, Note_off_c, 0, 54, 50
1, 596075, Control_c, 0, 64, 96
1, 596075, Control_c, 0, 67, 61
1, 596076, Note_off_c, 0, 74, 61
1, 596089, Control_c, 0, 67, 59
1, 596104, Control_c, 0, 67, 58
1, 596119, Control_c, 0, 64, 94
1, 596119, Control_c, 0, 67, 56
1, 596124, Note_off_c, 0, 62, 29
1, 596134, Control_c, 0, 64, 90
1, 596134, Control_c, 0, 67, 54
1, 596149, Control_c, 0, 64, 83
1, 596149, Control_c, 0, 67, 53
1, 596164, Control_c, 0, 64, 76
1, 596164, Control_c, 0, 67, 52
1, 596179, Control_c, 0, 64, 75
1, 596179, Control_c, 0, 67, 51
1, 596187, Note_on_c, 0, 78, 74
1, 596193, Control_c, 0, 64, 76
1, 596193, Control_c, 0, 67, 50
1, 596208, Control_c, 0, 64, 78
1, 596208, Control_c, 0, 67, 48
1, 596209, Note_on_c, 0, 66, 38
1, 596211, Note_on_c, 0, 69, 50
1, 596214, Note_on_c, 0, 57, 42
1, 596223, Control_c, 0, 64, 80
1, 596223, Control_c, 0, 67, 47
1, 596238, Control_c, 0, 64, 83
1, 596238, Control_c, 0, 67, 46
1, 596253, Control_c, 0, 64, 88
1, 596253, Control_c, 0, 67, 45
1, 596268, Control_c, 0, 64, 92
1, 596268, Control_c, 0, 67, 44
1, 596283, Control_c, 0, 64, 95
1, 596283, Control_c, 0, 67, 44
1, 596297, Control_c, 0, 64, 97
1, 596297, Control_c, 0, 67, 43
1, 596312, Control_c, 0, 64, 98
1, 596312, Control_c, 0, 67, 42
1, 596327, Control_c, 0, 64, 100
1, 596327, Control_c, 0, 67, 41
1, 596330, Note_off_c, 0, 66, 36
1, 596341, Control_c, 0, 64, 101
1, 596341, Control_c, 0, 67, 40
1, 596346, Note_off_c, 0, 78, 60
1, 596356, Control_c, 0, 67, 39
1, 596367, Note_off_c, 0, 69, 35
1, 596371, Control_c, 0, 64, 102
1, 596371, Control_c, 0, 67, 38
1, 596386, Control_c, 0, 67, 37
1, 596401, Control_c, 0, 67, 36
1, 596430, Control_c, 0, 67, 36
1, 596445, Control_c, 0, 64, 101
1, 596475, Control_c, 0, 64, 101
1, 596489, Control_c, 0, 64, 100
1, 596504, Control_c, 0, 64, 99
1, 596519, Control_c, 0, 64, 97
1, 596533, Control_c, 0, 64, 93
1, 596548, Control_c, 0, 64, 87
1, 596560, Note_off_c, 0, 57, 40
1, 596563, Control_c, 0, 64, 79
1, 596579, Control_c, 0, 64, 68
1, 596581, Note_on_c, 0, 78, 56
1, 596594, Note_on_c, 0, 71, 36
1, 596594, Control_c, 0, 64, 50
1, 596598, Note_on_c, 0, 75, 32
1, 596602, Note_on_c, 0, 63, 38
1, 596602, Note_on_c, 0, 66, 36
1, 596609, Control_c, 0, 64, 0
1, 596611, Note_on_c, 0, 59, 28
1, 596624, Control_c, 0, 64, 26
1, 596638, Control_c, 0, 64, 48
1, 596661, Control_c, 0, 64, 58
1, 596676, Control_c, 0, 64, 63
1, 596691, Control_c, 0, 64, 65
1, 596706, Control_c, 0, 64, 68
1, 596720, Control_c, 0, 64, 72
1, 596735, Control_c, 0, 64, 76
1, 596748, Note_off_c, 0, 66, 61
1, 596750, Control_c, 0, 64, 80
1, 596750, Control_c, 0, 67, 36
1, 596764, Control_c, 0, 64, 82
1, 596764, Control_c, 0, 67, 38
1, 596765, Note_off_c, 0, 63, 60
1, 596779, Control_c, 0, 64, 85
1, 596779, Control_c, 0, 67, 40
1, 596782, Note_off_c, 0, 59, 53
1, 596794, Control_c, 0, 64, 88
1, 596794, Control_c, 0, 67, 41
1, 596809, Control_c, 0, 64, 91
1, 596809, Control_c, 0, 67, 43
1, 596824, Control_c, 0, 64, 94
1, 596824, Control_c, 0, 67, 44
1, 596838, Control_c, 0, 64, 96
1, 596838, Control_c, 0, 67, 45
1, 596853, Control_c, 0, 64, 98
1, 596853, Control_c, 0, 67, 46
1, 596868, Control_c, 0, 64, 101
1, 596868, Control_c, 0, 67, 47
1, 596883, Control_c, 0, 64, 103
1, 596883, Control_c, 0, 67, 48
1, 596898, Control_c, 0, 64, 106
1, 596912, Control_c, 0, 64, 109
1, 596927, Control_c, 0, 64, 110
1, 596942, Control_c, 0, 64, 110
1, 596971, Control_c, 0, 64, 111
1, 596971, Control_c, 0, 67, 47
1, 596986, Control_c, 0, 64, 111
1, 596986, Control_c, 0, 67, 47
1, 597001, Control_c, 0, 64, 112
1, 597001, Control_c, 0, 67, 46
1, 597031, Control_c, 0, 67, 46
1, 597061, Control_c, 0, 67, 45
1, 597064, Note_on_c, 0, 35, 38
1, 597091, Control_c, 0, 64, 112
1, 597091, Control_c, 0, 67, 45
1, 597100, Note_off_c, 0, 35, 52
1, 597104, Note_on_c, 0, 47, 53
1, 597106, Control_c, 0, 64, 114
1, 597106, Control_c, 0, 67, 44
1, 597120, Control_c, 0, 64, 117
1, 597129, Note_off_c, 0, 47, 63
1, 597135, Control_c, 0, 64, 119
1, 597150, Control_c, 0, 64, 123
1, 597164, Control_c, 0, 64, 124
1, 597164, Control_c, 0, 67, 43
1, 597209, Control_c, 0, 64, 126
1, 597224, Control_c, 0, 64, 127
1, 597275, Note_off_c, 0, 71, 38
1, 597275, Note_off_c, 0, 78, 37
1, 597283, Note_off_c, 0, 75, 43
1, 597386, Note_on_c, 0, 78, 66
1, 597387, Control_c, 0, 67, 43
1, 597401, Note_on_c, 0, 75, 48
1, 597410, Control_c, 0, 67, 42
1, 597413, Note_on_c, 0, 71, 40
1, 597414, Note_on_c, 0, 59, 41
1, 597416, Note_on_c, 0, 66, 45
1, 597427, Note_on_c, 0, 63, 44
1, 597439, Control_c, 0, 67, 42
1, 597454, Control_c, 0, 67, 41
1, 597484, Note_off_c, 0, 66, 57
1, 597487, Note_off_c, 0, 63, 53
1, 597499, Control_c, 0, 67, 41
1, 597514, Note_off_c, 0, 59, 53
1, 597543, Control_c, 0, 67, 40
1, 597573, Control_c, 0, 67, 39
1, 597587, Control_c, 0, 67, 39
1, 597602, Control_c, 0, 67, 38
1, 597617, Control_c, 0, 67, 38
1, 597647, Control_c, 0, 67, 37
1, 597661, Control_c, 0, 67, 37
1, 597706, Control_c, 0, 67, 36
1, 597735, Note_off_c, 0, 75, 32
1, 597750, Control_c, 0, 67, 36
1, 597751, Note_on_c, 0, 35, 52
1, 597784, Note_off_c, 0, 35, 64
1, 597791, Note_on_c, 0, 47, 72
1, 597806, Note_off_c, 0, 78, 35
1, 597815, Note_off_c, 0, 47, 67
1, 597861, Note_off_c, 0, 71, 44
1, 597869, Control_c, 0, 67, 35
1, 597955, Note_on_c, 0, 78, 69
1, 597979, Note_off_c, 0, 78, 69
1, 597987, Control_c, 0, 64, 122
1, 597991, Note_on_c, 0, 79, 63
1, 598002, Control_c, 0, 64, 94
1, 598006, Note_on_c, 0, 75, 30
1, 598017, Control_c, 0, 64, 75
1, 598032, Control_c, 0, 64, 57
1, 598032, Control_c, 0, 67, 35
1, 598043, Note_on_c, 0, 78, 78
1, 598047, Control_c, 0, 64, 42
1, 598047, Control_c, 0, 67, 34
1, 598055, Note_on_c, 0, 66, 47
1, 598057, Note_on_c, 0, 63, 52
1, 598061, Control_c, 0, 64, 61
1, 598061, Control_c, 0, 67, 33
1, 598070, Note_off_c, 0, 79, 58
1, 598076, Control_c, 0, 64, 65
1, 598076, Control_c, 0, 67, 31
1, 598091, Control_c, 0, 64, 69
1, 598091, Control_c, 0, 67, 30
1, 598105, Control_c, 0, 64, 73
1, 598105, Control_c, 0, 67, 28
1, 598120, Control_c, 0, 64, 78
1, 598120, Control_c, 0, 67, 27
1, 598135, Control_c, 0, 64, 83
1, 598135, Control_c, 0, 67, 26
1, 598149, Note_off_c, 0, 78, 61
1, 598150, Control_c, 0, 64, 87
1, 598150, Control_c, 0, 67, 25
1, 598154, Note_off_c, 0, 75, 58
1, 598173, Control_c, 0, 64, 89
1, 598173, Control_c, 0, 67, 23
1, 598178, Note_off_c, 0, 66, 59
1, 598188, Control_c, 0, 64, 91
1, 598188, Control_c, 0, 67, 22
1, 598190, Note_off_c, 0, 63, 58
1, 598203, Control_c, 0, 64, 93
1, 598203, Control_c, 0, 67, 21
1, 598217, Control_c, 0, 64, 95
1, 598217, Control_c, 0, 67, 20
1, 598232, Control_c, 0, 64, 96
1, 598232, Control_c, 0, 67, 19
1, 598247, Control_c, 0, 64, 99
1, 598247, Control_c, 0, 67, 19
1, 598262, Control_c, 0, 64, 101
1, 598262, Control_c, 0, 67, 18
1, 598277, Control_c, 0, 64, 103
1, 598277, Control_c, 0, 67, 17
1, 598292, Control_c, 0, 64, 104
1, 598292, Control_c, 0, 67, 16
1, 598307, Control_c, 0, 64, 106
1, 598307, Control_c, 0, 67, 16
1, 598322, Control_c, 0, 64, 110
1, 598322, Control_c, 0, 67, 15
1, 598336, Control_c, 0, 64, 112
1, 598336, Control_c, 0, 67, 15
1, 598364, Note_on_c, 0, 76, 85
1, 598366, Control_c, 0, 64, 110
1, 598370, Note_on_c, 0, 61, 51
1, 598371, Note_on_c, 0, 73, 67
1, 598381, Control_c, 0, 64, 102
1, 598381, Control_c, 0, 67, 14
1, 598382, Note_on_c, 0, 64, 50
1, 598394, Note_off_c, 0, 73, 66
1, 598396, Control_c, 0, 64, 92
1, 598396, Control_c, 0, 67, 13
1, 598396, Note_off_c, 0, 76, 61
1, 598410, Control_c, 0, 64, 88
1, 598410, Control_c, 0, 67, 12
1, 598425, Control_c, 0, 64, 88
1, 598425, Control_c, 0, 67, 11
1, 598440, Note_on_c, 0, 78, 85
1, 598440, Control_c, 0, 64, 91
1, 598440, Control_c, 0, 67, 9
1, 598447, Note_off_c, 0, 61, 59
1, 598448, Note_on_c, 0, 66, 56
1, 598455, Control_c, 0, 64, 96
1, 598455, Control_c, 0, 67, 0
1, 598458, Note_on_c, 0, 63, 58
1, 598462, Note_off_c, 0, 64, 60
1, 598469, Note_on_c, 0, 75, 52
1, 598470, Control_c, 0, 64, 102
1, 598484, Control_c, 0, 64, 110
1, 598492, Note_off_c, 0, 75, 60
1, 598499, Control_c, 0, 64, 122
1, 598504, Note_off_c, 0, 63, 53
1, 598506, Note_off_c, 0, 66, 58
1, 598506, Note_off_c, 0, 78, 62
1, 598514, Control_c, 0, 64, 127
1, 598583, Note_on_c, 0, 78, 77
1, 598595, Note_on_c, 0, 75, 54
1, 598616, Note_off_c, 0, 78, 62
1, 598617, Control_c, 0, 64, 112
1, 598627, Note_on_c, 0, 79, 77
1, 598632, Control_c, 0, 64, 90
1, 598647, Control_c, 0, 64, 71
1, 598662, Control_c, 0, 64, 52
1, 598667, Note_on_c, 0, 66, 48
1, 598668, Note_on_c, 0, 78, 83
1, 598674, Note_on_c, 0, 63, 47
1, 598677, Control_c, 0, 64, 59
1, 598691, Control_c, 0, 64, 65
1, 598694, Note_off_c, 0, 79, 64
1, 598706, Control_c, 0, 64, 68
1, 598721, Control_c, 0, 64, 72
1, 598730, Note_off_c, 0, 75, 60
1, 598736, Control_c, 0, 64, 77
1, 598751, Control_c, 0, 64, 84
1, 598751, Note_off_c, 0, 78, 63
1, 598766, Control_c, 0, 64, 89
1, 598777, Note_off_c, 0, 66, 58
1, 598781, Control_c, 0, 64, 91
1, 598784, Note_off_c, 0, 63, 55
1, 598796, Control_c, 0, 64, 93
1, 598810, Control_c, 0, 64, 95
1, 598825, Control_c, 0, 64, 98
1, 598840, Control_c, 0, 64, 102
1, 598855, Control_c, 0, 64, 105
1, 598870, Control_c, 0, 64, 105
1, 598951, Control_c, 0, 64, 105
1, 598966, Control_c, 0, 64, 100
1, 598968, Note_on_c, 0, 76, 81
1, 598979, Note_on_c, 0, 61, 47
1, 598981, Control_c, 0, 64, 90
1, 598988, Note_on_c, 0, 64, 58
1, 598988, Note_on_c, 0, 73, 52
1, 598996, Control_c, 0, 64, 77
1, 599004, Note_off_c, 0, 76, 55
1, 599011, Control_c, 0, 64, 69
1, 599013, Note_off_c, 0, 73, 58
1, 599026, Control_c, 0, 64, 72
1, 599040, Control_c, 0, 64, 76
1, 599044, Note_on_c, 0, 78, 81
1, 599055, Control_c, 0, 64, 80
1, 599059, Note_off_c, 0, 64, 58
1, 599067, Note_on_c, 0, 75, 64
1, 599068, Note_on_c, 0, 66, 52
1, 599070, Control_c, 0, 64, 84
1, 599079, Note_off_c, 0, 61, 58
1, 599085, Note_on_c, 0, 63, 48
1, 599085, Control_c, 0, 64, 90
1, 599100, Control_c, 0, 64, 98
1, 599106, Note_off_c, 0, 66, 63
1, 599115, Control_c, 0, 64, 104
1, 599130, Control_c, 0, 64, 106
1, 599144, Control_c, 0, 64, 108
1, 599159, Control_c, 0, 64, 110
1, 599174, Control_c, 0, 64, 113
1, 599189, Control_c, 0, 64, 115
1, 599200, Note_off_c, 0, 78, 62
1, 599248, Control_c, 0, 64, 115
1, 599263, Control_c, 0, 64, 112
1, 599278, Control_c, 0, 64, 106
1, 599293, Control_c, 0, 64, 96
1, 599307, Control_c, 0, 64, 84
1, 599317, Note_on_c, 0, 83, 76
1, 599321, Note_off_c, 0, 75, 58
1, 599322, Control_c, 0, 64, 70
1, 599327, Note_off_c, 0, 63, 35
1, 599337, Control_c, 0, 64, 39
1, 599341, Note_on_c, 0, 59, 39
1, 599347, Note_on_c, 0, 71, 40
1, 599350, Note_on_c, 0, 67, 37
1, 599352, Control_c, 0, 64, 0
1, 599370, Note_on_c, 0, 79, 33
1, 599381, Control_c, 0, 64, 36
1, 599396, Control_c, 0, 64, 52
1, 599411, Control_c, 0, 64, 60
1, 599426, Control_c, 0, 64, 65
1, 599440, Control_c, 0, 64, 68
1, 599455, Control_c, 0, 64, 71
1, 599470, Control_c, 0, 64, 74
1, 599484, Control_c, 0, 64, 76
1, 599484, Control_c, 0, 67, 9
1, 599499, Control_c, 0, 64, 78
1, 599499, Control_c, 0, 67, 10
1, 599506, Note_off_c, 0, 79, 26
1, 599514, Control_c, 0, 64, 80
1, 599514, Control_c, 0, 67, 12
1, 599526, Note_off_c, 0, 67, 59
1, 599529, Control_c, 0, 64, 83
1, 599529, Control_c, 0, 67, 14
1, 599530, Note_off_c, 0, 71, 63
1, 599544, Control_c, 0, 64, 86
1, 599544, Control_c, 0, 67, 16
1, 599559, Control_c, 0, 64, 89
1, 599559, Control_c, 0, 67, 21
1, 599574, Control_c, 0, 64, 92
1, 599574, Control_c, 0, 67, 25
1, 599589, Control_c, 0, 64, 93
1, 599589, Control_c, 0, 67, 29
1, 599604, Control_c, 0, 64, 95
1, 599604, Control_c, 0, 67, 32
1, 599618, Control_c, 0, 64, 97
1, 599618, Control_c, 0, 67, 34
1, 599633, Control_c, 0, 64, 99
1, 599633, Control_c, 0, 67, 38
1, 599648, Control_c, 0, 64, 102
1, 599648, Control_c, 0, 67, 41
1, 599670, Control_c, 0, 64, 104
1, 599670, Control_c, 0, 67, 43
1, 599684, Control_c, 0, 64, 106
1, 599684, Control_c, 0, 67, 44
1, 599699, Control_c, 0, 67, 45
1, 599714, Control_c, 0, 64, 106
1, 599714, Control_c, 0, 67, 46
1, 599729, Control_c, 0, 64, 109
1, 599729, Control_c, 0, 67, 47
1, 599744, Control_c, 0, 64, 112
1, 599744, Control_c, 0, 67, 48
1, 599759, Control_c, 0, 64, 113
1, 599773, Control_c, 0, 67, 49
1, 599849, Control_c, 0, 67, 49
1, 599905, Note_on_c, 0, 63, 40
1, 599909, Note_on_c, 0, 78, 53
1, 599915, Note_on_c, 0, 75, 39
1, 599922, Note_on_c, 0, 66, 36
1, 599922, Note_off_c, 0, 59, 41
1, 600010, Note_off_c, 0, 66, 37
1, 600048, Note_off_c, 0, 75, 45
1, 600056, Control_c, 0, 67, 49
1, 600098, Note_off_c, 0, 83, 40
1, 600101, Control_c, 0, 64, 112
1, 600115, Control_c, 0, 64, 108
1, 600130, Control_c, 0, 64, 101
1, 600135, Note_off_c, 0, 63, 54
1, 600142, Note_off_c, 0, 78, 57
1, 600145, Control_c, 0, 64, 87
1, 600160, Note_on_c, 0, 79, 55
1, 600160, Control_c, 0, 64, 71
1, 600175, Control_c, 0, 64, 31
1, 600175, Control_c, 0, 67, 48
1, 600176, Note_on_c, 0, 67, 34
1, 600182, Note_on_c, 0, 64, 38
1, 600187, Note_on_c, 0, 76, 33
1, 600188, Note_on_c, 0, 59, 26
1, 600189, Control_c, 0, 64, 0
1, 600204, Control_c, 0, 64, 35
1, 600204, Control_c, 0, 67, 48
1, 600219, Control_c, 0, 64, 57
1, 600234, Control_c, 0, 64, 64
1, 600234, Control_c, 0, 67, 47
1, 600249, Control_c, 0, 64, 69
1, 600249, Control_c, 0, 67, 47
1, 600263, Control_c, 0, 64, 73
1, 600263, Control_c, 0, 67, 46
1, 600265, Note_off_c, 0, 67, 61
1, 600273, Note_off_c, 0, 64, 60
1, 600278, Control_c, 0, 64, 78
1, 600278, Control_c, 0, 67, 46
1, 600293, Control_c, 0, 64, 83
1, 600302, Note_off_c, 0, 59, 56
1, 600307, Control_c, 0, 64, 86
1, 600307, Control_c, 0, 67, 45
1, 600322, Control_c, 0, 64, 89
1, 600322, Control_c, 0, 67, 45
1, 600337, Control_c, 0, 64, 92
1, 600337, Control_c, 0, 67, 44
1, 600352, Control_c, 0, 64, 95
1, 600352, Control_c, 0, 67, 44
1, 600367, Control_c, 0, 64, 98
1, 600382, Control_c, 0, 64, 102
1, 600382, Control_c, 0, 67, 43
1, 600396, Control_c, 0, 64, 106
1, 600396, Control_c, 0, 67, 43
1, 600419, Control_c, 0, 64, 107
1, 600419, Control_c, 0, 67, 42
1, 600434, Control_c, 0, 64, 108
1, 600434, Control_c, 0, 67, 41
1, 600449, Control_c, 0, 64, 110
1, 600463, Control_c, 0, 64, 112
1, 600478, Control_c, 0, 64, 115
1, 600478, Control_c, 0, 67, 41
1, 600493, Control_c, 0, 64, 118
1, 600508, Control_c, 0, 64, 118
1, 600510, Note_off_c, 0, 76, 42
1, 600537, Note_on_c, 0, 35, 26
1, 600537, Control_c, 0, 64, 121
1, 600552, Control_c, 0, 64, 127
1, 600575, Note_on_c, 0, 47, 62
1, 600581, Note_off_c, 0, 35, 54
1, 600604, Note_off_c, 0, 47, 67
1, 600627, Control_c, 0, 67, 40
1, 600760, Control_c, 0, 67, 41
1, 600863, Note_off_c, 0, 79, 37
1, 600924, Control_c, 0, 64, 117
1, 600930, Note_on_c, 0, 65, 46
1, 600932, Note_on_c, 0, 80, 69
1, 600936, Note_on_c, 0, 68, 49
1, 600938, Control_c, 0, 64, 100
1, 600938, Control_c, 0, 67, 41
1, 600944, Note_on_c, 0, 59, 45
1, 600945, Note_on_c, 0, 61, 46
1, 600948, Note_on_c, 0, 73, 56
1, 600949, Note_on_c, 0, 77, 51
1, 600953, Control_c, 0, 64, 81
1, 600968, Control_c, 0, 64, 63
1, 600983, Control_c, 0, 64, 0
1, 601026, Control_c, 0, 64, 31
1, 601041, Control_c, 0, 64, 59
1, 601041, Control_c, 0, 67, 41
1, 601056, Control_c, 0, 64, 66
1, 601056, Control_c, 0, 67, 40
1, 601070, Note_off_c, 0, 68, 62
1, 601071, Control_c, 0, 64, 71
1, 601071, Control_c, 0, 67, 40
1, 601085, Control_c, 0, 64, 77
1, 601085, Control_c, 0, 67, 39
1, 601100, Note_off_c, 0, 65, 62
1, 601100, Control_c, 0, 64, 85
1, 601115, Control_c, 0, 64, 92
1, 601115, Control_c, 0, 67, 39
1, 601123, Note_off_c, 0, 59, 61
1, 601127, Note_off_c, 0, 61, 62
1, 601130, Control_c, 0, 64, 98
1, 601145, Control_c, 0, 64, 104
1, 601145, Control_c, 0, 67, 38
1, 601167, Control_c, 0, 64, 112
1, 601182, Control_c, 0, 64, 127
1, 601182, Control_c, 0, 67, 38
1, 601211, Control_c, 0, 67, 37
1, 601241, Control_c, 0, 67, 37
1, 601255, Control_c, 0, 67, 36
1, 601270, Control_c, 0, 67, 33
1, 601285, Control_c, 0, 67, 29
1, 601300, Control_c, 0, 67, 25
1, 601315, Control_c, 0, 67, 22
1, 601327, Note_on_c, 0, 35, 63
1, 601330, Control_c, 0, 67, 18
1, 601344, Control_c, 0, 67, 13
1, 601359, Note_off_c, 0, 35, 66
1, 601359, Control_c, 0, 67, 0
1, 601362, Note_on_c, 0, 47, 75
1, 601389, Note_off_c, 0, 47, 68
1, 601502, Note_off_c, 0, 77, 25
1, 601508, Note_off_c, 0, 73, 37
1, 601521, Note_off_c, 0, 80, 55
1, 601605, Note_on_c, 0, 80, 96
1, 601609, Note_on_c, 0, 65, 58
1, 601613, Note_on_c, 0, 73, 75
1, 601616, Note_on_c, 0, 77, 72
1, 601622, Note_on_c, 0, 68, 63
1, 601630, Note_on_c, 0, 61, 51
1, 601660, Note_on_c, 0, 59, 42
1, 601672, Note_off_c, 0, 68, 60
1, 601690, Note_off_c, 0, 65, 60
1, 601711, Note_off_c, 0, 59, 61
1, 601721, Note_off_c, 0, 61, 59
1, 601943, Note_off_c, 0, 77, 24
1, 601947, Note_on_c, 0, 35, 71
1, 601978, Note_off_c, 0, 35, 64
1, 601981, Note_off_c, 0, 73, 61
1, 601982, Note_on_c, 0, 47, 78
1, 602004, Note_off_c, 0, 80, 55
1, 602008, Note_off_c, 0, 47, 68
1, 602119, Note_on_c, 0, 80, 77
1, 602139, Note_on_c, 0, 77, 57
1, 602150, Note_off_c, 0, 80, 63
1, 602159, Note_on_c, 0, 81, 68
1, 602159, Note_off_c, 0, 77, 63
1, 602183, Control_c, 0, 64, 98
1, 602198, Control_c, 0, 64, 73
1, 602208, Note_on_c, 0, 80, 83
1, 602211, Note_on_c, 0, 77, 66
1, 602213, Control_c, 0, 64, 42
1, 602218, Note_on_c, 0, 68, 58
1, 602228, Note_on_c, 0, 65, 54
1, 602228, Control_c, 0, 64, 54
1, 602233, Note_off_c, 0, 81, 65
1, 602243, Control_c, 0, 64, 65
1, 602256, Note_off_c, 0, 77, 59
1, 602257, Control_c, 0, 64, 69
1, 602272, Control_c, 0, 64, 74
1, 602287, Control_c, 0, 64, 81
1, 602300, Note_off_c, 0, 80, 63
1, 602302, Control_c, 0, 64, 90
1, 602316, Control_c, 0, 64, 98
1, 602331, Control_c, 0, 64, 104
1, 602333, Note_off_c, 0, 68, 55
1, 602346, Control_c, 0, 64, 109
1, 602352, Note_off_c, 0, 65, 54
1, 602361, Control_c, 0, 64, 114
1, 602376, Control_c, 0, 64, 122
1, 602391, Control_c, 0, 64, 127
1, 602509, Control_c, 0, 64, 103
1, 602510, Note_on_c, 0, 78, 83
1, 602511, Note_on_c, 0, 63, 52
1, 602512, Note_on_c, 0, 66, 57
1, 602521, Note_on_c, 0, 75, 63
1, 602524, Control_c, 0, 64, 86
1, 602539, Control_c, 0, 64, 82
1, 602540, Note_off_c, 0, 75, 65
1, 602540, Note_off_c, 0, 78, 62
1, 602554, Control_c, 0, 64, 84
1, 602569, Control_c, 0, 64, 88
1, 602583, Control_c, 0, 64, 92
1, 602587, Note_on_c, 0, 80, 92
1, 602595, Note_on_c, 0, 77, 81
1, 602598, Control_c, 0, 64, 98
1, 602599, Note_on_c, 0, 65, 64
1, 602602, Note_on_c, 0, 68, 65
1, 602605, Note_off_c, 0, 66, 54
1, 602613, Control_c, 0, 64, 108
1, 602625, Note_off_c, 0, 63, 37
1, 602628, Control_c, 0, 64, 127
1, 602631, Note_off_c, 0, 77, 56
1, 602666, Note_off_c, 0, 80, 64
1, 602675, Note_off_c, 0, 68, 59
1, 602695, Note_off_c, 0, 65, 56
1, 602748, Note_on_c, 0, 80, 82
1, 602755, Note_on_c, 0, 77, 72
1, 602769, Note_off_c, 0, 80, 67
1, 602779, Note_off_c, 0, 77, 65
1, 602785, Note_on_c, 0, 81, 75
1, 602798, Control_c, 0, 64, 95
1, 602813, Control_c, 0, 64, 69
1, 602828, Control_c, 0, 64, 0
1, 602832, Note_on_c, 0, 65, 55
1, 602834, Note_on_c, 0, 77, 72
1, 602834, Note_on_c, 0, 80, 91
1, 602840, Note_on_c, 0, 68, 54
1, 602843, Control_c, 0, 64, 23
1, 602855, Note_off_c, 0, 81, 67
1, 602857, Control_c, 0, 64, 59
1, 602871, Note_off_c, 0, 77, 62
1, 602872, Control_c, 0, 64, 65
1, 602887, Control_c, 0, 64, 69
1, 602901, Control_c, 0, 64, 76
1, 602906, Note_off_c, 0, 80, 63
1, 602916, Control_c, 0, 64, 82
1, 602931, Control_c, 0, 64, 86
1, 602945, Note_off_c, 0, 68, 57
1, 602946, Control_c, 0, 64, 89
1, 602961, Control_c, 0, 64, 92
1, 602970, Note_off_c, 0, 65, 55
1, 602977, Control_c, 0, 64, 95
1, 602992, Control_c, 0, 64, 98
1, 603006, Control_c, 0, 64, 103
1, 603021, Control_c, 0, 64, 107
1, 603036, Control_c, 0, 64, 108
1, 603066, Control_c, 0, 64, 109
1, 603080, Control_c, 0, 64, 110
1, 603095, Control_c, 0, 64, 111
1, 603110, Control_c, 0, 64, 110
1, 603124, Control_c, 0, 64, 107
1, 603136, Note_on_c, 0, 78, 77
1, 603139, Control_c, 0, 64, 96
1, 603141, Note_on_c, 0, 63, 45
1, 603145, Note_on_c, 0, 66, 61
1, 603145, Note_on_c, 0, 75, 61
1, 603154, Control_c, 0, 64, 81
1, 603165, Note_off_c, 0, 75, 63
1, 603166, Note_off_c, 0, 78, 62
1, 603169, Control_c, 0, 64, 68
1, 603184, Control_c, 0, 64, 68
1, 603199, Control_c, 0, 64, 73
1, 603207, Note_on_c, 0, 80, 87
1, 603211, Note_on_c, 0, 68, 52
1, 603211, Note_off_c, 0, 66, 61
1, 603213, Control_c, 0, 64, 79
1, 603216, Note_on_c, 0, 77, 77
1, 603217, Note_off_c, 0, 63, 51
1, 603228, Control_c, 0, 64, 85
1, 603233, Note_on_c, 0, 65, 54
1, 603243, Control_c, 0, 64, 91
1, 603252, Note_off_c, 0, 68, 61
1, 603258, Control_c, 0, 64, 97
1, 603273, Control_c, 0, 64, 101
1, 603288, Control_c, 0, 64, 106
1, 603303, Control_c, 0, 64, 109
1, 603318, Control_c, 0, 64, 111
1, 603332, Control_c, 0, 64, 113
1, 603347, Control_c, 0, 64, 115
1, 603357, Note_off_c, 0, 80, 59
1, 603362, Control_c, 0, 64, 116
1, 603413, Control_c, 0, 64, 115
1, 603458, Control_c, 0, 64, 114
1, 603473, Control_c, 0, 64, 111
1, 603488, Control_c, 0, 64, 110
1, 603503, Control_c, 0, 64, 106
1, 603517, Control_c, 0, 64, 100
1, 603531, Note_on_c, 0, 85, 84
1, 603532, Control_c, 0, 64, 90
1, 603538, Note_off_c, 0, 77, 58
1, 603547, Control_c, 0, 64, 76
1, 603558, Note_on_c, 0, 73, 42
1, 603562, Note_on_c, 0, 61, 35
1, 603562, Note_on_c, 0, 69, 44
1, 603562, Control_c, 0, 64, 57
1, 603565, Note_on_c, 0, 81, 35
1, 603568, Note_off_c, 0, 65, 37
1, 603577, Control_c, 0, 64, 0
1, 603621, Control_c, 0, 64, 31
1, 603636, Control_c, 0, 64, 49
1, 603650, Control_c, 0, 64, 58
1, 603663, Note_off_c, 0, 81, 27
1, 603665, Control_c, 0, 64, 64
1, 603680, Control_c, 0, 64, 67
1, 603695, Control_c, 0, 64, 71
1, 603710, Control_c, 0, 64, 74
1, 603724, Control_c, 0, 64, 77
1, 603739, Control_c, 0, 64, 80
1, 603754, Control_c, 0, 64, 83
1, 603769, Control_c, 0, 64, 88
1, 603777, Note_off_c, 0, 69, 60
1, 603785, Control_c, 0, 64, 91
1, 603800, Control_c, 0, 64, 93
1, 603815, Control_c, 0, 64, 95
1, 603829, Control_c, 0, 64, 97
1, 603844, Control_c, 0, 64, 99
1, 603859, Control_c, 0, 64, 103
1, 603874, Control_c, 0, 64, 105
1, 603889, Control_c, 0, 64, 107
1, 603903, Control_c, 0, 64, 109
1, 603918, Control_c, 0, 64, 110
1, 603962, Control_c, 0, 64, 111
1, 603977, Control_c, 0, 64, 111
1, 604036, Control_c, 0, 64, 112
1, 604122, Note_on_c, 0, 80, 55
1, 604123, Note_off_c, 0, 73, 37
1, 604132, Note_on_c, 0, 77, 45
1, 604139, Note_on_c, 0, 68, 46
1, 604158, Note_on_c, 0, 65, 37
1, 604179, Note_off_c, 0, 77, 49
1, 604200, Note_off_c, 0, 85, 34
1, 604241, Note_off_c, 0, 68, 59
1, 604346, Note_off_c, 0, 65, 49
1, 604355, Control_c, 0, 64, 111
1, 604370, Control_c, 0, 64, 100
1, 604377, Note_off_c, 0, 80, 63
1, 604385, Control_c, 0, 64, 82
1, 604400, Control_c, 0, 64, 63
1, 604400, Note_on_c, 0, 81, 52
1, 604402, Note_on_c, 0, 66, 38
1, 604413, Note_on_c, 0, 78, 36
1, 604415, Control_c, 0, 64, 0
1, 604423, Note_on_c, 0, 69, 38
1, 604429, Control_c, 0, 64, 53
1, 604444, Control_c, 0, 64, 64
1, 604459, Control_c, 0, 64, 68
1, 604473, Control_c, 0, 64, 75
1, 604483, Note_off_c, 0, 69, 61
1, 604488, Control_c, 0, 64, 86
1, 604503, Control_c, 0, 64, 99
1, 604507, Note_off_c, 0, 66, 61
1, 604518, Control_c, 0, 64, 112
1, 604529, Note_off_c, 0, 61, 53
1, 604533, Control_c, 0, 64, 121
1, 604547, Control_c, 0, 64, 127
1, 604689, Note_off_c, 0, 78, 47
1, 604748, Note_on_c, 0, 33, 57
1, 604789, Note_off_c, 0, 33, 61
1, 604800, Note_on_c, 0, 45, 65
1, 604825, Note_off_c, 0, 45, 66
1, 604908, Note_off_c, 0, 81, 36
1, 605139, Note_on_c, 0, 86, 77
1, 605151, Note_on_c, 0, 77, 51
1, 605157, Note_on_c, 0, 57, 43
1, 605161, Note_on_c, 0, 65, 38
1, 605163, Note_on_c, 0, 74, 44
1, 605163, Control_c, 0, 64, 104
1, 605178, Control_c, 0, 64, 84
1, 605193, Control_c, 0, 64, 64
1, 605208, Control_c, 0, 64, 0
1, 605252, Control_c, 0, 64, 26
1, 605267, Control_c, 0, 64, 54
1, 605282, Control_c, 0, 64, 65
1, 605296, Control_c, 0, 64, 69
1, 605311, Control_c, 0, 64, 75
1, 605326, Control_c, 0, 64, 80
1, 605341, Control_c, 0, 64, 84
1, 605356, Control_c, 0, 64, 88
1, 605372, Control_c, 0, 64, 93
1, 605387, Control_c, 0, 64, 100
1, 605401, Control_c, 0, 64, 108
1, 605409, Note_off_c, 0, 74, 46
1, 605416, Control_c, 0, 64, 121
1, 605431, Control_c, 0, 64, 127
1, 605490, Note_off_c, 0, 77, 32
1, 605498, Note_off_c, 0, 65, 57
1, 605684, Note_off_c, 0, 86, 35
1, 605714, Note_on_c, 0, 77, 56
1, 605729, Note_on_c, 0, 74, 44
1, 605735, Note_on_c, 0, 65, 37
1, 605737, Note_on_c, 0, 62, 35
1, 605742, Note_off_c, 0, 57, 58
1, 605793, Note_off_c, 0, 65, 63
1, 605793, Note_off_c, 0, 74, 62
1, 605956, Control_c, 0, 64, 103
1, 605971, Control_c, 0, 64, 79
1, 605975, Note_off_c, 0, 77, 57
1, 605978, Note_off_c, 0, 62, 39
1, 605983, Note_on_c, 0, 57, 41
1, 605985, Note_on_c, 0, 81, 60
1, 605986, Control_c, 0, 64, 60
1, 605989, Note_on_c, 0, 73, 53
1, 606001, Note_on_c, 0, 64, 45
1, 606001, Note_on_c, 0, 69, 40
1, 606001, Control_c, 0, 64, 38
1, 606015, Control_c, 0, 64, 60
1, 606030, Control_c, 0, 64, 65
1, 606045, Control_c, 0, 64, 69
1, 606060, Control_c, 0, 64, 74
1, 606072, Note_off_c, 0, 69, 62
1, 606075, Control_c, 0, 64, 80
1, 606090, Control_c, 0, 64, 88
1, 606102, Note_off_c, 0, 64, 64
1, 606105, Control_c, 0, 64, 96
1, 606120, Control_c, 0, 64, 104
1, 606131, Note_off_c, 0, 57, 62
1, 606134, Control_c, 0, 64, 115
1, 606149, Control_c, 0, 64, 127
1, 606328, Note_on_c, 0, 33, 73
1, 606366, Note_off_c, 0, 33, 63
1, 606373, Note_on_c, 0, 45, 79
1, 606406, Note_off_c, 0, 45, 67
1, 606424, Note_off_c, 0, 73, 56
1, 606527, Note_off_c, 0, 81, 31
1, 606631, Control_c, 0, 64, 86
1, 606636, Note_on_c, 0, 77, 73
1, 606636, Note_on_c, 0, 86, 93
1, 606641, Note_on_c, 0, 57, 54
1, 606643, Note_on_c, 0, 74, 72
1, 606644, Note_on_c, 0, 65, 61
1, 606646, Control_c, 0, 64, 63
1, 606661, Control_c, 0, 64, 0
1, 606690, Control_c, 0, 64, 53
1, 606705, Control_c, 0, 64, 65
1, 606720, Control_c, 0, 64, 70
1, 606735, Control_c, 0, 64, 75
1, 606749, Control_c, 0, 64, 82
1, 606764, Control_c, 0, 64, 88
1, 606779, Control_c, 0, 64, 93
1, 606794, Control_c, 0, 64, 97
1, 606809, Control_c, 0, 64, 101
1, 606823, Control_c, 0, 64, 105
1, 606838, Control_c, 0, 64, 112
1, 606844, Note_off_c, 0, 74, 56
1, 606853, Control_c, 0, 64, 127
1, 606870, Note_off_c, 0, 65, 60
1, 606877, Note_off_c, 0, 77, 53
1, 607130, Note_on_c, 0, 77, 83
1, 607141, Note_on_c, 0, 74, 75
1, 607152, Note_on_c, 0, 62, 47
1, 607159, Note_on_c, 0, 65, 55
1, 607196, Poly_aftertouch_c, 0, 84, 127
1, 607213, Note_off_c, 0, 86, 39
1, 607216, Note_off_c, 0, 57, 36
1, 607217, Note_off_c, 0, 65, 62
1, 607222, Poly_aftertouch_c, 0, 84, 0
1, 607237, Note_off_c, 0, 74, 59
1, 607434, Note_off_c, 0, 62, 55
1, 607454, Note_on_c, 0, 81, 72
1, 607454, Control_c, 0, 64, 101
1, 607461, Note_on_c, 0, 69, 47
1, 607462, Note_on_c, 0, 73, 54
1, 607463, Note_on_c, 0, 57, 43
1, 607469, Control_c, 0, 64, 76
1, 607473, Note_on_c, 0, 64, 44
1, 607481, Note_off_c, 0, 77, 57
1, 607484, Control_c, 0, 64, 52
1, 607498, Control_c, 0, 64, 0
1, 607528, Control_c, 0, 64, 50
1, 607543, Control_c, 0, 64, 63
1, 607558, Control_c, 0, 64, 68
1, 607566, Note_off_c, 0, 69, 61
1, 607572, Control_c, 0, 64, 73
1, 607587, Control_c, 0, 64, 79
1, 607600, Note_off_c, 0, 64, 64
1, 607602, Control_c, 0, 64, 87
1, 607616, Control_c, 0, 64, 93
1, 607631, Control_c, 0, 64, 98
1, 607637, Note_off_c, 0, 57, 62
1, 607646, Control_c, 0, 64, 104
1, 607661, Control_c, 0, 64, 116
1, 607676, Control_c, 0, 64, 127
1, 607870, Note_on_c, 0, 33, 58
1, 607915, Note_off_c, 0, 33, 58
1, 607926, Note_on_c, 0, 45, 63
1, 607956, Note_off_c, 0, 45, 66
1, 608045, Note_off_c, 0, 73, 38
1, 608350, Note_off_c, 0, 81, 32
1, 608428, Note_on_c, 0, 86, 76
1, 608439, Note_on_c, 0, 77, 49
1, 608440, Control_c, 0, 64, 121
1, 608445, Note_on_c, 0, 57, 41
1, 608447, Note_on_c, 0, 74, 53
1, 608454, Note_on_c, 0, 65, 43
1, 608455, Control_c, 0, 64, 99
1, 608470, Control_c, 0, 64, 83
1, 608485, Control_c, 0, 64, 67
1, 608500, Control_c, 0, 64, 0
1, 608589, Control_c, 0, 64, 43
1, 608604, Control_c, 0, 64, 61
1, 608618, Control_c, 0, 64, 65
1, 608633, Control_c, 0, 64, 68
1, 608656, Control_c, 0, 64, 71
1, 608670, Control_c, 0, 64, 73
1, 608685, Control_c, 0, 64, 75
1, 608700, Control_c, 0, 64, 80
1, 608715, Control_c, 0, 64, 84
1, 608730, Control_c, 0, 64, 88
1, 608738, Note_off_c, 0, 77, 42
1, 608743, Note_off_c, 0, 65, 37
1, 608744, Control_c, 0, 64, 91
1, 608759, Control_c, 0, 64, 94
1, 608774, Control_c, 0, 64, 99
1, 608775, Note_off_c, 0, 86, 53
1, 608789, Control_c, 0, 64, 105
1, 608804, Control_c, 0, 64, 114
1, 608818, Control_c, 0, 64, 126
1, 608833, Control_c, 0, 64, 127
1, 609196, Note_off_c, 0, 74, 40
1, 609240, Note_on_c, 0, 81, 55
1, 609248, Note_on_c, 0, 69, 33
1, 609265, Note_on_c, 0, 65, 36
1, 609290, Note_on_c, 0, 77, 24
1, 609339, Note_off_c, 0, 57, 38
1, 609414, Note_off_c, 0, 69, 45
1, 609421, Note_off_c, 0, 65, 54
1, 609450, Note_off_c, 0, 81, 60
1, 609491, Note_off_c, 0, 77, 42
1, 609574, Note_on_c, 0, 81, 65
1, 609597, Control_c, 0, 64, 110
1, 609599, Note_on_c, 0, 77, 46
1, 609612, Control_c, 0, 64, 90
1, 609614, Note_on_c, 0, 69, 39
1, 609616, Note_on_c, 0, 65, 31
1, 609619, Note_on_c, 0, 57, 25
1, 609627, Control_c, 0, 64, 84
1, 609641, Control_c, 0, 64, 85
1, 609656, Control_c, 0, 64, 88
1, 609671, Control_c, 0, 64, 90
1, 609686, Control_c, 0, 64, 93
1, 609700, Control_c, 0, 64, 98
1, 609715, Control_c, 0, 64, 104
1, 609729, Note_off_c, 0, 65, 53
1, 609729, Note_off_c, 0, 69, 54
1, 609730, Control_c, 0, 64, 111
1, 609745, Control_c, 0, 64, 121
1, 609760, Control_c, 0, 64, 127
1, 609761, Note_off_c, 0, 77, 41
1, 609894, Note_on_c, 0, 79, 74
1, 609932, Note_on_c, 0, 64, 39
1, 609935, Note_on_c, 0, 67, 44
1, 609980, Note_off_c, 0, 67, 59
1, 610001, Note_off_c, 0, 81, 35
1, 610128, Note_off_c, 0, 64, 54
1, 610155, Note_on_c, 0, 77, 78
1, 610162, Note_on_c, 0, 74, 54
1, 610171, Note_on_c, 0, 62, 39
1, 610171, Note_off_c, 0, 79, 61
1, 610174, Note_on_c, 0, 65, 47
1, 610180, Note_off_c, 0, 57, 42
1, 610202, Note_off_c, 0, 62, 54
1, 610222, Note_off_c, 0, 74, 58
1, 610300, Note_off_c, 0, 77, 60
1, 610390, Control_c, 0, 64, 87
1, 610404, Note_on_c, 0, 76, 68
1, 610405, Control_c, 0, 64, 64
1, 610409, Note_off_c, 0, 65, 50
1, 610420, Control_c, 0, 64, 0
1, 610424, Note_on_c, 0, 69, 46
1, 610433, Note_on_c, 0, 57, 36
1, 610437, Note_on_c, 0, 64, 40
1, 610448, Note_on_c, 0, 61, 39
1, 610464, Control_c, 0, 64, 53
1, 610479, Control_c, 0, 64, 65
1, 610494, Control_c, 0, 64, 71
1, 610509, Control_c, 0, 64, 80
1, 610514, Note_off_c, 0, 64, 64
1, 610523, Control_c, 0, 64, 89
1, 610534, Note_off_c, 0, 61, 57
1, 610538, Control_c, 0, 64, 96
1, 610539, Note_off_c, 0, 57, 62
1, 610553, Control_c, 0, 64, 101
1, 610568, Control_c, 0, 64, 105
1, 610583, Control_c, 0, 64, 110
1, 610597, Control_c, 0, 64, 124
1, 610612, Control_c, 0, 64, 127
1, 610927, Note_on_c, 0, 33, 49
1, 610964, Note_off_c, 0, 33, 60
1, 610996, Note_on_c, 0, 45, 46
1, 611026, Note_off_c, 0, 45, 56
1, 611099, Note_off_c, 0, 69, 38
1, 611134, Note_off_c, 0, 76, 39
1, 611242, Note_on_c, 0, 76, 70
1, 611251, Note_on_c, 0, 57, 51
1, 611252, Note_on_c, 0, 64, 53
1, 611265, Note_on_c, 0, 69, 48
1, 611274, Note_on_c, 0, 61, 15
1, 611304, Note_off_c, 0, 64, 60
1, 611322, Note_off_c, 0, 57, 59
1, 611331, Note_off_c, 0, 61, 50
1, 611741, Note_on_c, 0, 33, 55
1, 611768, Note_on_c, 0, 45, 70
1, 611773, Note_off_c, 0, 33, 61
1, 611795, Note_off_c, 0, 45, 66
1, 611929, Note_off_c, 0, 69, 36
1, 611941, Note_off_c, 0, 76, 60
1, 612014, Note_on_c, 0, 76, 83
1, 612019, Note_on_c, 0, 64, 62
1, 612020, Note_on_c, 0, 61, 60
1, 612025, Note_on_c, 0, 69, 62
1, 612031, Note_on_c, 0, 57, 51
1, 612053, Note_off_c, 0, 64, 65
1, 612061, Note_off_c, 0, 61, 59
1, 612075, Note_off_c, 0, 57, 61
1, 612645, Note_on_c, 0, 33, 70
1, 612672, Note_on_c, 0, 45, 73
1, 612708, Note_off_c, 0, 45, 64
1, 612711, Note_off_c, 0, 33, 60
1, 613548, Note_on_c, 0, 33, 86
1, 613587, Note_on_c, 0, 45, 89
1, 613641, Note_on_c, 0, 38, 3
1, 613647, Note_off_c, 0, 33, 61
1, 613656, Note_off_c, 0, 45, 65
1, 613662, Note_off_c, 0, 69, 47
1, 613680, Note_off_c, 0, 76, 52
1, 613682, Note_off_c, 0, 38, 47
1, 614775, Note_on_c, 0, 33, 82
1, 614839, Note_on_c, 0, 45, 97
1, 614875, Note_off_c, 0, 33, 59
1, 614893, Note_off_c, 0, 45, 67
1, 615331, Note_on_c, 0, 81, 89
1, 615334, Note_on_c, 0, 69, 78
1, 615344, Note_on_c, 0, 57, 63
1, 615361, Note_off_c, 0, 69, 63
1, 615404, Note_off_c, 0, 81, 64
1, 615669, Note_on_c, 0, 54, 74
1, 615672, Note_on_c, 0, 86, 99
1, 615675, Note_on_c, 0, 74, 87
1, 615683, Note_on_c, 0, 62, 81
1, 615689, Note_off_c, 0, 57, 60
1, 615745, Note_off_c, 0, 74, 53
1, 615791, Note_off_c, 0, 86, 58
1, 615798, Note_off_c, 0, 54, 60
1, 615915, Note_on_c, 0, 88, 96
1, 615918, Note_on_c, 0, 76, 94
1, 615920, Note_on_c, 0, 64, 85
1, 615930, Note_on_c, 0, 57, 74
1, 615944, Note_off_c, 0, 62, 61
1, 615958, Note_off_c, 0, 76, 62
1, 615979, Note_off_c, 0, 64, 67
1, 615990, Note_off_c, 0, 88, 57
1, 616028, Note_off_c, 0, 57, 57
1, 616216, Control_c, 0, 64, 100
1, 616219, Note_on_c, 0, 86, 88
1, 616219, Note_on_c, 0, 90, 106
1, 616220, Note_on_c, 0, 81, 83
1, 616222, Note_on_c, 0, 78, 98
1, 616225, Note_on_c, 0, 66, 88
1, 616227, Note_on_c, 0, 62, 72
1, 616231, Control_c, 0, 64, 67
1, 616235, Note_on_c, 0, 54, 63
1, 616239, Note_on_c, 0, 57, 60
1, 616246, Control_c, 0, 64, 0
1, 616320, Control_c, 0, 64, 11
1, 616335, Control_c, 0, 64, 63
1, 616350, Control_c, 0, 64, 71
1, 616356, Note_off_c, 0, 66, 63
1, 616365, Control_c, 0, 64, 80
1, 616380, Control_c, 0, 64, 90
1, 616394, Control_c, 0, 64, 101
1, 616405, Note_off_c, 0, 62, 55
1, 616409, Control_c, 0, 64, 111
1, 616424, Control_c, 0, 64, 127
1, 616458, Note_off_c, 0, 57, 36
1, 616495, Note_off_c, 0, 54, 64
1, 616774, Note_on_c, 0, 38, 75
1, 616807, Note_on_c, 0, 45, 86
1, 616835, Note_off_c, 0, 38, 63
1, 616848, Note_off_c, 0, 45, 66
1, 616899, Note_off_c, 0, 90, 55
1, 616917, Note_off_c, 0, 86, 56
1, 616988, Note_off_c, 0, 78, 36
1, 617019, Note_off_c, 0, 81, 33
1, 617098, Note_on_c, 0, 66, 85
1, 617099, Note_on_c, 0, 86, 92
1, 617099, Note_on_c, 0, 90, 104
1, 617103, Note_on_c, 0, 62, 69
1, 617103, Note_on_c, 0, 78, 92
1, 617104, Note_on_c, 0, 81, 84
1, 617106, Note_on_c, 0, 57, 63
1, 617108, Note_on_c, 0, 54, 65
1, 617143, Note_off_c, 0, 66, 64
1, 617161, Note_off_c, 0, 62, 61
1, 617173, Note_off_c, 0, 54, 64
1, 617176, Note_off_c, 0, 57, 60
1, 617259, Note_off_c, 0, 78, 58
1, 617294, Note_off_c, 0, 81, 56
1, 617352, Note_off_c, 0, 86, 58
1, 617423, Note_off_c, 0, 90, 53
1, 617480, Note_on_c, 0, 38, 75
1, 617528, Note_on_c, 0, 45, 89
1, 617552, Note_off_c, 0, 38, 63
1, 617564, Note_off_c, 0, 45, 66
1, 617661, Note_on_c, 0, 86, 72
1, 617667, Note_on_c, 0, 90, 83
1, 617669, Note_on_c, 0, 78, 69
1, 617690, Note_off_c, 0, 86, 65
1, 617696, Note_on_c, 0, 91, 85
1, 617696, Note_off_c, 0, 78, 67
1, 617717, Note_off_c, 0, 90, 65
1, 617745, Control_c, 0, 64, 98
1, 617760, Control_c, 0, 64, 69
1, 617760, Note_on_c, 0, 90, 88
1, 617765, Note_on_c, 0, 66, 79
1, 617768, Note_on_c, 0, 78, 95
1, 617769, Note_on_c, 0, 62, 71
1, 617775, Control_c, 0, 64, 59
1, 617788, Note_off_c, 0, 91, 65
1, 617789, Control_c, 0, 64, 67
1, 617804, Control_c, 0, 64, 73
1, 617819, Control_c, 0, 64, 80
1, 617833, Control_c, 0, 64, 96
1, 617843, Note_off_c, 0, 78, 63
1, 617848, Control_c, 0, 64, 127
1, 617871, Note_off_c, 0, 90, 64
1, 617889, Note_off_c, 0, 66, 60
1, 617909, Note_off_c, 0, 62, 58
1, 618107, Note_on_c, 0, 87, 61
1, 618109, Note_on_c, 0, 88, 97
1, 618109, Note_on_c, 0, 76, 88
1, 618112, Note_on_c, 0, 64, 65
1, 618118, Note_on_c, 0, 61, 55
1, 618130, Note_off_c, 0, 87, 64
1, 618131, Note_off_c, 0, 76, 66
1, 618157, Note_off_c, 0, 88, 63
1, 618192, Note_off_c, 0, 64, 63
1, 618195, Note_on_c, 0, 90, 103
1, 618198, Note_on_c, 0, 66, 73
1, 618199, Note_on_c, 0, 62, 71
1, 618199, Note_on_c, 0, 78, 89
1, 618204, Note_off_c, 0, 61, 59
1, 618242, Note_off_c, 0, 78, 63
1, 618253, Note_off_c, 0, 66, 58
1, 618264, Note_off_c, 0, 62, 54
1, 618264, Note_off_c, 0, 90, 63
1, 618331, Note_on_c, 0, 87, 88
1, 618341, Note_on_c, 0, 90, 85
1, 618344, Note_on_c, 0, 78, 68
1, 618360, Note_off_c, 0, 78, 69
1, 618383, Note_off_c, 0, 87, 67
1, 618394, Note_on_c, 0, 91, 65
1, 618398, Note_off_c, 0, 90, 66
1, 618405, Control_c, 0, 64, 77
1, 618420, Control_c, 0, 64, 65
1, 618430, Note_on_c, 0, 78, 92
1, 618431, Note_on_c, 0, 90, 90
1, 618435, Control_c, 0, 64, 71
1, 618439, Note_on_c, 0, 66, 81
1, 618442, Note_on_c, 0, 62, 72
1, 618450, Control_c, 0, 64, 80
1, 618455, Note_off_c, 0, 91, 67
1, 618464, Control_c, 0, 64, 89
1, 618479, Control_c, 0, 64, 102
1, 618486, Note_off_c, 0, 78, 63
1, 618494, Control_c, 0, 64, 127
1, 618504, Note_off_c, 0, 90, 67
1, 618575, Note_off_c, 0, 66, 56
1, 618582, Note_off_c, 0, 62, 55
1, 618742, Note_on_c, 0, 88, 99
1, 618747, Note_on_c, 0, 76, 92
1, 618751, Note_on_c, 0, 61, 60
1, 618752, Note_on_c, 0, 64, 66
1, 618769, Note_off_c, 0, 76, 66
1, 618786, Note_off_c, 0, 88, 66
1, 618834, Note_on_c, 0, 78, 97
1, 618834, Note_on_c, 0, 90, 109
1, 618836, Note_off_c, 0, 64, 62
1, 618839, Note_off_c, 0, 61, 61
1, 618848, Note_on_c, 0, 62, 67
1, 618851, Note_on_c, 0, 66, 74
1, 618870, Note_off_c, 0, 78, 62
1, 618879, Note_off_c, 0, 90, 64
1, 618910, Note_off_c, 0, 66, 60
1, 618921, Note_off_c, 0, 62, 53
1, 619139, Note_on_c, 0, 93, 97
1, 619147, Note_on_c, 0, 81, 79
1, 619151, Note_on_c, 0, 90, 75
1, 619153, Note_on_c, 0, 66, 62
1, 619154, Control_c, 0, 64, 95
1, 619155, Note_on_c, 0, 57, 57
1, 619155, Note_on_c, 0, 69, 60
1, 619168, Control_c, 0, 64, 70
1, 619183, Control_c, 0, 64, 0
1, 619233, Note_off_c, 0, 90, 56
1, 619242, Control_c, 0, 64, 32
1, 619257, Control_c, 0, 64, 62
1, 619272, Control_c, 0, 64, 68
1, 619286, Control_c, 0, 64, 73
1, 619301, Control_c, 0, 64, 78
1, 619316, Control_c, 0, 64, 83
1, 619331, Control_c, 0, 64, 87
1, 619346, Control_c, 0, 64, 92
1, 619361, Control_c, 0, 64, 97
1, 619376, Control_c, 0, 64, 102
1, 619383, Note_off_c, 0, 81, 58
1, 619391, Control_c, 0, 64, 107
1, 619405, Control_c, 0, 64, 113
1, 619419, Note_off_c, 0, 69, 58
1, 619420, Control_c, 0, 64, 127
1, 619442, Note_off_c, 0, 66, 56
1, 619453, Note_off_c, 0, 93, 64
1, 619678, Note_off_c, 0, 57, 62
1, 619695, Note_on_c, 0, 90, 86
1, 619706, Note_on_c, 0, 78, 89
1, 619710, Note_on_c, 0, 66, 65
1, 619716, Note_on_c, 0, 62, 60
1, 619774, Note_off_c, 0, 90, 64
1, 619807, Note_off_c, 0, 66, 62
1, 619833, Note_off_c, 0, 78, 60
1, 619932, Control_c, 0, 64, 99
1, 619947, Control_c, 0, 64, 71
1, 619956, Note_off_c, 0, 62, 57
1, 619962, Control_c, 0, 64, 0
1, 619965, Note_on_c, 0, 64, 66
1, 619968, Note_on_c, 0, 88, 97
1, 619969, Note_on_c, 0, 76, 85
1, 619972, Note_on_c, 0, 81, 73
1, 619974, Note_on_c, 0, 57, 60
1, 620006, Control_c, 0, 64, 43
1, 620021, Control_c, 0, 64, 66
1, 620026, Note_off_c, 0, 64, 65
1, 620035, Control_c, 0, 64, 75
1, 620041, Note_off_c, 0, 57, 63
1, 620050, Control_c, 0, 64, 84
1, 620065, Control_c, 0, 64, 95
1, 620080, Control_c, 0, 64, 107
1, 620095, Control_c, 0, 64, 127
1, 620372, Note_on_c, 0, 33, 60
1, 620410, Note_off_c, 0, 33, 59
1, 620414, Note_on_c, 0, 45, 69
1, 620441, Note_off_c, 0, 45, 66
1, 620518, Note_off_c, 0, 81, 55
1, 620562, Note_off_c, 0, 88, 38
1, 620573, Note_off_c, 0, 76, 57
1, 620637, Control_c, 0, 64, 105
1, 620652, Control_c, 0, 64, 83
1, 620666, Note_on_c, 0, 88, 98
1, 620667, Control_c, 0, 64, 80
1, 620667, Note_on_c, 0, 60, 69
1, 620667, Note_on_c, 0, 64, 73
1, 620670, Note_on_c, 0, 84, 87
1, 620670, Note_on_c, 0, 76, 92
1, 620675, Note_on_c, 0, 57, 62
1, 620682, Control_c, 0, 64, 91
1, 620696, Control_c, 0, 64, 107
1, 620705, Note_off_c, 0, 64, 57
1, 620711, Control_c, 0, 64, 127
1, 620715, Note_off_c, 0, 60, 59
1, 620729, Note_off_c, 0, 57, 57
1, 621167, Note_on_c, 0, 33, 67
1, 621204, Note_on_c, 0, 40, 72
1, 621218, Note_off_c, 0, 33, 58
1, 621236, Note_off_c, 0, 40, 65
1, 621260, Note_off_c, 0, 84, 53
1, 621265, Note_off_c, 0, 88, 45
1, 621328, Note_off_c, 0, 76, 51
1, 621439, Note_on_c, 0, 88, 99
1, 621439, Note_on_c, 0, 60, 66
1, 621440, Note_on_c, 0, 76, 94
1, 621442, Note_on_c, 0, 64, 73
1, 621443, Note_on_c, 0, 84, 86
1, 621451, Note_on_c, 0, 57, 64
1, 621468, Note_off_c, 0, 64, 68
1, 621484, Note_off_c, 0, 60, 62
1, 621492, Note_off_c, 0, 57, 59
1, 621659, Note_off_c, 0, 76, 56
1, 621723, Note_off_c, 0, 88, 48
1, 621742, Note_off_c, 0, 84, 53
1, 621793, Note_on_c, 0, 33, 70
1, 621841, Note_on_c, 0, 40, 84
1, 621865, Note_off_c, 0, 33, 60
1, 621886, Note_off_c, 0, 40, 63
1, 621984, Note_on_c, 0, 88, 84
1, 621987, Note_on_c, 0, 76, 67
1, 622005, Note_on_c, 0, 89, 89
1, 622011, Note_off_c, 0, 76, 67
1, 622023, Note_off_c, 0, 88, 60
1, 622038, Control_c, 0, 64, 115
1, 622053, Control_c, 0, 64, 81
1, 622057, Note_off_c, 0, 89, 63
1, 622068, Control_c, 0, 64, 67
1, 622069, Note_on_c, 0, 88, 88
1, 622073, Note_on_c, 0, 76, 96
1, 622079, Note_on_c, 0, 60, 72
1, 622080, Note_on_c, 0, 64, 79
1, 622082, Control_c, 0, 64, 71
1, 622097, Control_c, 0, 64, 80
1, 622112, Control_c, 0, 64, 89
1, 622126, Note_on_c, 0, 85, 20
1, 622130, Note_off_c, 0, 76, 65
1, 622133, Control_c, 0, 64, 102
1, 622150, Control_c, 0, 64, 127
1, 622153, Note_off_c, 0, 88, 64
1, 622160, Note_off_c, 0, 64, 58
1, 622168, Note_off_c, 0, 85, 54
1, 622174, Note_off_c, 0, 60, 58
1, 622424, Note_on_c, 0, 62, 63
1, 622425, Note_on_c, 0, 86, 94
1, 622428, Note_on_c, 0, 74, 92
1, 622435, Note_on_c, 0, 59, 56
1, 622455, Note_off_c, 0, 74, 63
1, 622480, Note_off_c, 0, 86, 65
1, 622506, Note_off_c, 0, 62, 60
1, 622514, Note_on_c, 0, 60, 65
1, 622515, Note_on_c, 0, 88, 100
1, 622515, Note_off_c, 0, 59, 58
1, 622522, Note_on_c, 0, 76, 88
1, 622524, Note_on_c, 0, 64, 66
1, 622558, Note_off_c, 0, 76, 61
1, 622581, Note_off_c, 0, 64, 48
1, 622582, Note_off_c, 0, 88, 63
1, 622597, Note_off_c, 0, 60, 55
1, 622657, Note_on_c, 0, 76, 89
1, 622666, Note_on_c, 0, 88, 84
1, 622679, Note_on_c, 0, 84, 50
1, 622689, Note_on_c, 0, 89, 82
1, 622696, Note_off_c, 0, 76, 61
1, 622700, Note_off_c, 0, 84, 60
1, 622707, Note_off_c, 0, 88, 59
1, 622712, Control_c, 0, 64, 89
1, 622727, Control_c, 0, 64, 63
1, 622728, Note_on_c, 0, 91, 22
1, 622729, Note_off_c, 0, 91, 127
1, 622742, Control_c, 0, 64, 0
1, 622752, Note_on_c, 0, 64, 73
1, 622753, Note_on_c, 0, 60, 66
1, 622755, Note_on_c, 0, 88, 86
1, 622756, Control_c, 0, 64, 14
1, 622762, Note_on_c, 0, 76, 91
1, 622771, Control_c, 0, 64, 59
1, 622783, Note_off_c, 0, 89, 64
1, 622786, Control_c, 0, 64, 67
1, 622801, Control_c, 0, 64, 77
1, 622816, Control_c, 0, 64, 91
1, 622816, Note_off_c, 0, 76, 63
1, 622831, Control_c, 0, 64, 113
1, 622839, Note_off_c, 0, 88, 64
1, 622846, Control_c, 0, 64, 127
1, 622875, Note_off_c, 0, 64, 57
1, 622890, Note_off_c, 0, 60, 58
1, 623095, Note_on_c, 0, 86, 98
1, 623098, Note_on_c, 0, 59, 61
1, 623100, Note_on_c, 0, 74, 88
1, 623105, Note_on_c, 0, 62, 61
1, 623120, Note_off_c, 0, 74, 70
1, 623144, Note_off_c, 0, 86, 61
1, 623177, Note_off_c, 0, 62, 60
1, 623177, Note_on_c, 0, 88, 104
1, 623178, Note_on_c, 0, 76, 101
1, 623189, Note_on_c, 0, 64, 67
1, 623191, Note_off_c, 0, 59, 55
1, 623195, Note_on_c, 0, 60, 55
1, 623209, Note_off_c, 0, 76, 62
1, 623218, Note_off_c, 0, 88, 65
1, 623224, Note_off_c, 0, 64, 62
1, 623230, Note_off_c, 0, 60, 65
1, 623472, Note_on_c, 0, 91, 99
1, 623478, Note_on_c, 0, 79, 93
1, 623485, Note_on_c, 0, 88, 72
1, 623487, Note_on_c, 0, 55, 58
1, 623489, Note_on_c, 0, 64, 59
1, 623491, Control_c, 0, 64, 117
1, 623493, Note_on_c, 0, 67, 55
1, 623506, Control_c, 0, 64, 83
1, 623511, Note_on_c, 0, 89, 39
1, 623512, Note_off_c, 0, 89, 127
1, 623520, Control_c, 0, 64, 54
1, 623535, Control_c, 0, 64, 0
1, 623594, Control_c, 0, 64, 30
1, 623609, Control_c, 0, 64, 62
1, 623632, Control_c, 0, 64, 70
1, 623643, Note_off_c, 0, 88, 60
1, 623647, Control_c, 0, 64, 76
1, 623661, Control_c, 0, 64, 82
1, 623676, Control_c, 0, 64, 88
1, 623691, Control_c, 0, 64, 93
1, 623706, Control_c, 0, 64, 99
1, 623719, Note_off_c, 0, 67, 48
1, 623721, Control_c, 0, 64, 110
1, 623735, Control_c, 0, 64, 127
1, 623747, Note_off_c, 0, 64, 60
1, 623773, Note_off_c, 0, 79, 60
1, 623868, Note_off_c, 0, 91, 61
1, 624070, Note_off_c, 0, 55, 60
1, 624080, Note_on_c, 0, 88, 87
1, 624086, Note_on_c, 0, 76, 79
1, 624092, Note_on_c, 0, 60, 48
1, 624107, Note_on_c, 0, 64, 57
1, 624144, Note_off_c, 0, 88, 61
1, 624273, Note_off_c, 0, 76, 58
1, 624329, Control_c, 0, 64, 102
1, 624336, Note_off_c, 0, 60, 58
1, 624343, Control_c, 0, 64, 76
1, 624358, Control_c, 0, 64, 37
1, 624364, Note_on_c, 0, 86, 88
1, 624377, Note_on_c, 0, 79, 74
1, 624378, Note_on_c, 0, 62, 55
1, 624379, Note_on_c, 0, 74, 76
1, 624380, Note_on_c, 0, 55, 50
1, 624380, Note_off_c, 0, 64, 59
1, 624381, Control_c, 0, 64, 0
1, 624395, Control_c, 0, 64, 56
1, 624410, Control_c, 0, 64, 65
1, 624425, Control_c, 0, 64, 70
1, 624440, Control_c, 0, 64, 76
1, 624455, Control_c, 0, 64, 84
1, 624460, Note_off_c, 0, 62, 62
1, 624469, Control_c, 0, 64, 91
1, 624475, Note_off_c, 0, 55, 64
1, 624484, Control_c, 0, 64, 96
1, 624499, Control_c, 0, 64, 98
1, 624514, Control_c, 0, 64, 102
1, 624528, Control_c, 0, 64, 109
1, 624545, Control_c, 0, 64, 127
1, 624767, Note_on_c, 0, 31, 65
1, 624801, Note_on_c, 0, 43, 74
1, 624801, Note_off_c, 0, 31, 64
1, 624833, Note_off_c, 0, 43, 64
1, 624945, Note_off_c, 0, 86, 56
1, 624956, Note_off_c, 0, 74, 60
1, 625004, Note_off_c, 0, 79, 58
1, 625033, Control_c, 0, 64, 88
1, 625045, Note_on_c, 0, 86, 94
1, 625048, Control_c, 0, 64, 68
1, 625049, Note_on_c, 0, 62, 71
1, 625049, Note_on_c, 0, 82, 91
1, 625052, Note_on_c, 0, 74, 88
1, 625054, Note_on_c, 0, 58, 65
1, 625057, Note_on_c, 0, 55, 60
1, 625063, Control_c, 0, 64, 68
1, 625078, Control_c, 0, 64, 74
1, 625092, Control_c, 0, 64, 80
1, 625107, Control_c, 0, 64, 88
1, 625111, Note_off_c, 0, 62, 61
1, 625126, Note_off_c, 0, 58, 60
1, 625129, Control_c, 0, 64, 98
1, 625136, Note_off_c, 0, 55, 62
1, 625144, Control_c, 0, 64, 111
1, 625159, Control_c, 0, 64, 122
1, 625174, Control_c, 0, 64, 127
1, 625578, Note_on_c, 0, 31, 71
1, 625622, Note_on_c, 0, 38, 72
1, 625627, Note_off_c, 0, 31, 62
1, 625650, Note_off_c, 0, 38, 64
1, 625684, Note_off_c, 0, 86, 54
1, 625687, Note_off_c, 0, 82, 56
1, 625753, Note_off_c, 0, 74, 56
1, 625848, Note_on_c, 0, 86, 104
1, 625853, Note_on_c, 0, 74, 94
1, 625853, Note_on_c, 0, 62, 73
1, 625856, Note_on_c, 0, 82, 94
1, 625859, Note_on_c, 0, 58, 71
1, 625869, Note_on_c, 0, 55, 58
1, 625890, Note_off_c, 0, 62, 64
1, 625913, Note_off_c, 0, 58, 56
1, 625916, Note_off_c, 0, 55, 60
1, 626102, Note_off_c, 0, 74, 53
1, 626222, Note_off_c, 0, 82, 58
1, 626259, Note_off_c, 0, 86, 60
1, 626264, Note_on_c, 0, 31, 76
1, 626302, Note_on_c, 0, 38, 79
1, 626318, Note_off_c, 0, 31, 63
1, 626336, Note_off_c, 0, 38, 64
1, 626453, Note_on_c, 0, 74, 71
1, 626458, Note_on_c, 0, 86, 81
1, 626474, Note_off_c, 0, 74, 66
1, 626484, Note_on_c, 0, 88, 69
1, 626485, Note_off_c, 0, 86, 60
1, 626488, Note_on_c, 0, 89, 73
1, 626494, Note_on_c, 0, 83, 35
1, 626504, Note_off_c, 0, 89, 66
1, 626515, Control_c, 0, 64, 92
1, 626525, Note_off_c, 0, 83, 55
1, 626530, Control_c, 0, 64, 72
1, 626534, Poly_aftertouch_c, 0, 82, 0
1, 626541, Note_on_c, 0, 74, 96
1, 626541, Note_on_c, 0, 86, 92
1, 626545, Control_c, 0, 64, 68
1, 626550, Note_on_c, 0, 62, 68
1, 626558, Note_on_c, 0, 58, 64
1, 626560, Control_c, 0, 64, 75
1, 626573, Note_off_c, 0, 88, 65
1, 626575, Control_c, 0, 64, 84
1, 626589, Control_c, 0, 64, 92
1, 626604, Control_c, 0, 64, 104
1, 626618, Note_off_c, 0, 74, 64
1, 626626, Control_c, 0, 64, 127
1, 626649, Note_off_c, 0, 86, 66
1, 626683, Note_off_c, 0, 62, 57
1, 626710, Note_off_c, 0, 58, 38
1, 626916, Note_on_c, 0, 85, 93
1, 626924, Note_on_c, 0, 73, 84
1, 626928, Note_on_c, 0, 61, 69
1, 626930, Note_on_c, 0, 57, 58
1, 626938, Control_c, 0, 64, 104
1, 626944, Note_off_c, 0, 73, 71
1, 626953, Control_c, 0, 64, 101
1, 626968, Control_c, 0, 64, 102
1, 626971, Note_off_c, 0, 85, 59
1, 626983, Control_c, 0, 64, 109
1, 626998, Control_c, 0, 64, 127
1, 627007, Note_on_c, 0, 86, 101
1, 627010, Note_off_c, 0, 61, 60
1, 627011, Note_on_c, 0, 62, 67
1, 627011, Note_on_c, 0, 74, 88
1, 627013, Note_off_c, 0, 57, 59
1, 627017, Note_on_c, 0, 58, 69
1, 627041, Note_off_c, 0, 74, 63
1, 627052, Note_off_c, 0, 62, 53
1, 627071, Note_off_c, 0, 86, 62
1, 627090, Note_off_c, 0, 58, 49
1, 627148, Note_on_c, 0, 74, 85
1, 627157, Note_on_c, 0, 86, 87
1, 627159, Note_on_c, 0, 82, 74
1, 627173, Note_off_c, 0, 74, 66
1, 627183, Note_off_c, 0, 82, 68
1, 627185, Note_on_c, 0, 88, 81
1, 627204, Note_off_c, 0, 86, 64
1, 627219, Control_c, 0, 64, 102
1, 627234, Note_off_c, 0, 88, 0
1, 627234, Control_c, 0, 64, 65
1, 627240, Note_on_c, 0, 86, 77
1, 627247, Note_on_c, 0, 62, 64
1, 627249, Control_c, 0, 64, 0
1, 627250, Note_on_c, 0, 74, 95
1, 627251, Note_on_c, 0, 58, 58
1, 627263, Note_on_c, 0, 88, 28
1, 627283, Note_off_c, 0, 88, 60
1, 627308, Control_c, 0, 64, 43
1, 627321, Note_off_c, 0, 74, 61
1, 627323, Control_c, 0, 64, 65
1, 627338, Control_c, 0, 64, 73
1, 627353, Control_c, 0, 64, 81
1, 627375, Control_c, 0, 64, 90
1, 627386, Note_off_c, 0, 86, 61
1, 627390, Control_c, 0, 64, 97
1, 627405, Control_c, 0, 64, 101
1, 627418, Note_off_c, 0, 62, 37
1, 627419, Control_c, 0, 64, 103
1, 627434, Control_c, 0, 64, 109
1, 627436, Note_off_c, 0, 58, 32
1, 627449, Control_c, 0, 64, 124
1, 627464, Control_c, 0, 64, 127
1, 627721, Note_on_c, 0, 61, 61
1, 627725, Note_on_c, 0, 85, 85
1, 627728, Note_on_c, 0, 57, 48
1, 627733, Note_on_c, 0, 73, 69
1, 627758, Note_off_c, 0, 73, 69
1, 627761, Control_c, 0, 64, 94
1, 627776, Control_c, 0, 64, 71
1, 627791, Control_c, 0, 64, 48
1, 627806, Control_c, 0, 64, 64
1, 627821, Note_on_c, 0, 86, 87
1, 627821, Control_c, 0, 64, 70
1, 627821, Note_on_c, 0, 62, 61
1, 627821, Note_off_c, 0, 61, 56
1, 627822, Note_on_c, 0, 74, 86
1, 627830, Note_off_c, 0, 85, 61
1, 627835, Control_c, 0, 64, 76
1, 627849, Note_on_c, 0, 58, 61
1, 627850, Control_c, 0, 64, 85
1, 627865, Control_c, 0, 64, 96
1, 627870, Note_off_c, 0, 62, 57
1, 627880, Control_c, 0, 64, 107
1, 627895, Control_c, 0, 64, 127
1, 627895, Note_off_c, 0, 86, 66
1, 627904, Note_off_c, 0, 57, 32
1, 627908, Note_off_c, 0, 58, 62
1, 628019, Note_off_c, 0, 74, 60
1, 628213, Control_c, 0, 64, 107
1, 628228, Control_c, 0, 64, 80
1, 628242, Control_c, 0, 64, 59
1, 628255, Note_on_c, 0, 33, 53
1, 628257, Control_c, 0, 64, 0
1, 628262, Note_on_c, 0, 45, 52
1, 628266, Note_on_c, 0, 81, 74
1, 628269, Note_on_c, 0, 69, 61
1, 628269, Note_on_c, 0, 78, 61
1, 628272, Control_c, 0, 64, 50
1, 628287, Control_c, 0, 64, 64
1, 628302, Control_c, 0, 64, 68
1, 628313, Note_off_c, 0, 69, 61
1, 628316, Control_c, 0, 64, 76
1, 628331, Control_c, 0, 64, 88
1, 628334, Note_off_c, 0, 33, 59
1, 628346, Control_c, 0, 64, 104
1, 628360, Control_c, 0, 64, 127
1, 628364, Note_off_c, 0, 81, 59
1, 628371, Note_off_c, 0, 78, 57
1, 628392, Note_off_c, 0, 45, 63
1, 628666, Note_on_c, 0, 86, 97
1, 628667, Note_on_c, 0, 62, 87
1, 628670, Note_on_c, 0, 54, 75
1, 628673, Note_on_c, 0, 74, 85
1, 628676, Note_on_c, 0, 78, 80
1, 628697, Note_off_c, 0, 78, 71
1, 628697, Note_off_c, 0, 74, 65
1, 628715, Note_off_c, 0, 86, 69
1, 628801, Note_on_c, 0, 90, 102
1, 628803, Note_on_c, 0, 78, 102
1, 628804, Note_on_c, 0, 66, 94
1, 628804, Note_on_c, 0, 86, 90
1, 628808, Note_on_c, 0, 57, 74
1, 628813, Note_off_c, 0, 62, 58
1, 628874, Note_off_c, 0, 54, 30
1, 628894, Note_off_c, 0, 78, 61
1, 628911, Note_off_c, 0, 86, 58
1, 628951, Note_off_c, 0, 90, 59
1, 628971, Note_off_c, 0, 66, 61
1, 629096, Note_on_c, 0, 93, 99
1, 629104, Note_on_c, 0, 90, 91
1, 629105, Note_off_c, 0, 57, 53
1, 629106, Note_on_c, 0, 81, 87
1, 629108, Note_on_c, 0, 69, 87
1, 629111, Note_on_c, 0, 62, 74
1, 629122, Note_off_c, 0, 81, 72
1, 629150, Note_off_c, 0, 93, 68
1, 629158, Note_off_c, 0, 90, 63
1, 629224, Note_off_c, 0, 69, 57
1, 629477, Note_on_c, 0, 90, 97
1, 629483, Note_on_c, 0, 78, 81
1, 629484, Note_on_c, 0, 66, 72
1, 629485, Note_off_c, 0, 62, 59
1, 629490, Note_off_c, 0, 90, 75
1, 629500, Note_on_c, 0, 57, 60
1, 629501, Note_off_c, 0, 78, 72
1, 629583, Note_off_c, 0, 66, 51
1, 629586, Note_on_c, 0, 86, 95
1, 629593, Note_on_c, 0, 74, 87
1, 629612, Note_on_c, 0, 54, 67
1, 629617, Note_on_c, 0, 62, 67
1, 629617, Note_off_c, 0, 57, 58
1, 629628, Note_on_c, 0, 78, 54
1, 629652, Note_off_c, 0, 78, 60
1, 629721, Note_off_c, 0, 54, 55
1, 629804, Note_off_c, 0, 86, 53
1, 629830, Note_off_c, 0, 74, 53
1, 629944, Note_on_c, 0, 88, 96
1, 629946, Control_c, 0, 64, 109
1, 629948, Note_on_c, 0, 76, 85
1, 629948, Note_on_c, 0, 81, 68
1, 629951, Note_on_c, 0, 64, 64
1, 629955, Note_on_c, 0, 85, 76
1, 629958, Note_off_c, 0, 62, 58
1, 629960, Note_on_c, 0, 57, 59
1, 629961, Control_c, 0, 64, 78
1, 629976, Control_c, 0, 64, 14
1, 629986, Note_off_c, 0, 81, 52
1, 629991, Control_c, 0, 64, 0
1, 630065, Control_c, 0, 64, 60
1, 630080, Control_c, 0, 64, 69
1, 630095, Control_c, 0, 64, 73
1, 630110, Control_c, 0, 64, 76
1, 630110, Poly_aftertouch_c, 0, 81, 127
1, 630125, Control_c, 0, 64, 79
1, 630140, Control_c, 0, 64, 83
1, 630155, Control_c, 0, 64, 88
1, 630170, Control_c, 0, 64, 93
1, 630185, Control_c, 0, 64, 98
1, 630192, Poly_aftertouch_c, 0, 81, 0
1, 630200, Control_c, 0, 64, 100
1, 630214, Control_c, 0, 64, 103
1, 630230, Control_c, 0, 64, 107
1, 630235, Note_off_c, 0, 88, 50
1, 630241, Note_off_c, 0, 76, 58
1, 630244, Control_c, 0, 64, 112
1, 630259, Control_c, 0, 64, 117
1, 630274, Control_c, 0, 64, 127
1, 630304, Note_off_c, 0, 85, 35
1, 630388, Note_off_c, 0, 57, 35
1, 630552, Note_on_c, 0, 81, 96
1, 630555, Note_on_c, 0, 57, 63
1, 630557, Note_on_c, 0, 69, 81
1, 630569, Note_off_c, 0, 64, 59
1, 630576, Note_off_c, 0, 69, 72
1, 630595, Note_off_c, 0, 81, 67
1, 630637, Note_off_c, 0, 57, 59
1, 630870, Note_on_c, 0, 90, 91
1, 630872, Note_on_c, 0, 86, 73
1, 630874, Note_on_c, 0, 81, 62
1, 630874, Control_c, 0, 64, 97
1, 630883, Note_on_c, 0, 78, 68
1, 630885, Note_on_c, 0, 66, 59
1, 630888, Control_c, 0, 64, 74
1, 630894, Note_on_c, 0, 57, 38
1, 630895, Note_on_c, 0, 62, 52
1, 630897, Note_on_c, 0, 54, 46
1, 630903, Control_c, 0, 64, 0
1, 630993, Control_c, 0, 64, 21
1, 631008, Control_c, 0, 64, 62
1, 631022, Note_off_c, 0, 66, 58
1, 631023, Control_c, 0, 64, 68
1, 631038, Control_c, 0, 64, 74
1, 631052, Control_c, 0, 64, 78
1, 631067, Control_c, 0, 64, 82
1, 631069, Note_off_c, 0, 62, 58
1, 631082, Control_c, 0, 64, 86
1, 631096, Note_off_c, 0, 57, 36
1, 631097, Control_c, 0, 64, 89
1, 631120, Control_c, 0, 64, 93
1, 631127, Note_off_c, 0, 54, 61
1, 631134, Control_c, 0, 64, 96
1, 631149, Control_c, 0, 64, 99
1, 631164, Control_c, 0, 64, 101
1, 631179, Control_c, 0, 64, 103
1, 631193, Control_c, 0, 64, 105
1, 631208, Control_c, 0, 64, 106
1, 631223, Control_c, 0, 64, 109
1, 631238, Control_c, 0, 64, 110
1, 631297, Control_c, 0, 64, 110
1, 631460, Control_c, 0, 64, 109
1, 631475, Control_c, 0, 64, 100
1, 631489, Note_on_c, 0, 38, 60
1, 631490, Control_c, 0, 64, 87
1, 631505, Control_c, 0, 64, 75
1, 631519, Control_c, 0, 64, 74
1, 631534, Note_on_c, 0, 45, 67
1, 631534, Control_c, 0, 64, 79
1, 631541, Note_off_c, 0, 38, 62
1, 631549, Control_c, 0, 64, 83
1, 631563, Note_off_c, 0, 45, 67
1, 631564, Control_c, 0, 64, 88
1, 631578, Control_c, 0, 64, 95
1, 631593, Control_c, 0, 64, 103
1, 631608, Control_c, 0, 64, 110
1, 631623, Control_c, 0, 64, 112
1, 631625, Note_off_c, 0, 90, 61
1, 631667, Control_c, 0, 64, 113
1, 631682, Control_c, 0, 64, 117
1, 631691, Note_off_c, 0, 78, 58
1, 631695, Note_off_c, 0, 81, 40
1, 631697, Control_c, 0, 64, 123
1, 631702, Note_off_c, 0, 86, 35
1, 631711, Control_c, 0, 64, 126
1, 631831, Control_c, 0, 64, 124
1, 631957, Control_c, 0, 64, 121
1, 631972, Control_c, 0, 64, 117
1, 631987, Control_c, 0, 64, 114
1, 632002, Control_c, 0, 64, 112
1, 632016, Control_c, 0, 64, 110
1, 632031, Control_c, 0, 64, 107
1, 632046, Control_c, 0, 64, 104
1, 632061, Control_c, 0, 64, 101
1, 632076, Control_c, 0, 64, 96
1, 632090, Control_c, 0, 64, 90
1, 632095, Note_on_c, 0, 88, 68
1, 632102, Note_on_c, 0, 64, 41
1, 632102, Note_on_c, 0, 76, 47
1, 632105, Control_c, 0, 64, 83
1, 632107, Note_on_c, 0, 57, 40
1, 632117, Note_on_c, 0, 85, 48
1, 632120, Control_c, 0, 64, 73
1, 632127, Note_on_c, 0, 81, 28
1, 632134, Control_c, 0, 64, 54
1, 632149, Control_c, 0, 64, 0
1, 632238, Control_c, 0, 64, 14
1, 632253, Control_c, 0, 64, 49
1, 632268, Control_c, 0, 64, 60
1, 632283, Control_c, 0, 64, 63
1, 632298, Control_c, 0, 64, 65
1, 632313, Control_c, 0, 64, 68
1, 632328, Control_c, 0, 64, 70
1, 632342, Control_c, 0, 64, 72
1, 632357, Control_c, 0, 64, 75
1, 632372, Control_c, 0, 64, 78
1, 632387, Control_c, 0, 64, 80
1, 632401, Control_c, 0, 64, 83
1, 632416, Control_c, 0, 64, 85
1, 632431, Control_c, 0, 64, 88
1, 632446, Control_c, 0, 64, 91
1, 632447, Note_off_c, 0, 88, 36
1, 632461, Control_c, 0, 64, 94
1, 632475, Control_c, 0, 64, 96
1, 632490, Control_c, 0, 64, 100
1, 632504, Note_off_c, 0, 76, 53
1, 632505, Control_c, 0, 64, 104
1, 632507, Note_off_c, 0, 81, 28
1, 632517, Note_off_c, 0, 57, 37
1, 632518, Note_off_c, 0, 85, 53
1, 632520, Control_c, 0, 64, 108
1, 632536, Control_c, 0, 64, 111
1, 632550, Control_c, 0, 64, 117
1, 632565, Control_c, 0, 64, 127
1, 632687, Note_on_c, 0, 81, 72
1, 632689, Note_on_c, 0, 57, 43
1, 632696, Note_on_c, 0, 69, 52
1, 632713, Note_off_c, 0, 64, 35
1, 632716, Note_off_c, 0, 81, 61
1, 632719, Note_off_c, 0, 69, 59
1, 632773, Note_off_c, 0, 57, 47
1, 633002, Control_c, 0, 64, 103
1, 633017, Control_c, 0, 64, 86
1, 633019, Note_on_c, 0, 90, 68
1, 633031, Control_c, 0, 64, 68
1, 633034, Note_on_c, 0, 78, 42
1, 633040, Note_on_c, 0, 86, 46
1, 633046, Note_on_c, 0, 62, 34
1, 633046, Control_c, 0, 64, 46
1, 633048, Note_on_c, 0, 81, 30
1, 633049, Note_on_c, 0, 66, 34
1, 633050, Note_on_c, 0, 57, 25
1, 633061, Control_c, 0, 64, 51
1, 633064, Note_on_c, 0, 54, 42
1, 633076, Control_c, 0, 64, 60
1, 633091, Control_c, 0, 64, 63
1, 633106, Control_c, 0, 64, 64
1, 633121, Control_c, 0, 64, 67
1, 633136, Control_c, 0, 64, 70
1, 633151, Control_c, 0, 64, 73
1, 633165, Control_c, 0, 64, 76
1, 633178, Note_off_c, 0, 66, 55
1, 633180, Control_c, 0, 64, 79
1, 633195, Control_c, 0, 64, 81
1, 633210, Control_c, 0, 64, 84
1, 633225, Control_c, 0, 64, 87
1, 633228, Note_off_c, 0, 62, 40
1, 633240, Control_c, 0, 64, 89
1, 633255, Control_c, 0, 64, 92
1, 633267, Note_off_c, 0, 57, 40
1, 633270, Control_c, 0, 64, 95
1, 633284, Control_c, 0, 64, 98
1, 633299, Control_c, 0, 64, 100
1, 633303, Note_off_c, 0, 54, 61
1, 633314, Control_c, 0, 64, 104
1, 633330, Control_c, 0, 64, 107
1, 633344, Control_c, 0, 64, 111
1, 633367, Control_c, 0, 64, 114
1, 633381, Control_c, 0, 64, 117
1, 633396, Control_c, 0, 64, 119
1, 633411, Control_c, 0, 64, 120
1, 633426, Control_c, 0, 64, 124
1, 633441, Control_c, 0, 64, 127
1, 633637, Note_on_c, 0, 38, 49
1, 633648, Control_c, 0, 64, 110
1, 633663, Control_c, 0, 64, 103
1, 633678, Control_c, 0, 64, 103
1, 633686, Note_off_c, 0, 90, 36
1, 633690, Note_off_c, 0, 38, 61
1, 633703, Note_on_c, 0, 45, 53
1, 633707, Control_c, 0, 64, 103
1, 633722, Control_c, 0, 64, 105
1, 633736, Note_off_c, 0, 45, 65
1, 633737, Control_c, 0, 64, 110
1, 633741, Note_off_c, 0, 78, 33
1, 633743, Note_off_c, 0, 81, 37
1, 633752, Control_c, 0, 64, 117
1, 633767, Control_c, 0, 64, 127
1, 633788, Note_off_c, 0, 86, 27
1, 634159, Control_c, 0, 64, 94
1, 634174, Control_c, 0, 64, 62
1, 634180, Note_on_c, 0, 64, 73
1, 634180, Note_on_c, 0, 88, 96
1, 634183, Note_on_c, 0, 57, 68
1, 634188, Note_on_c, 0, 76, 86
1, 634189, Control_c, 0, 64, 0
1, 634192, Note_on_c, 0, 85, 73
1, 634203, Control_c, 0, 64, 51
1, 634218, Control_c, 0, 64, 64
1, 634224, Note_off_c, 0, 85, 56
1, 634228, Note_off_c, 0, 76, 61
1, 634233, Control_c, 0, 64, 71
1, 634248, Control_c, 0, 64, 81
1, 634263, Control_c, 0, 64, 96
1, 634274, Note_off_c, 0, 88, 63
1, 634277, Control_c, 0, 64, 121
1, 634292, Control_c, 0, 64, 127
1, 634355, Note_off_c, 0, 64, 55
1, 634420, Note_off_c, 0, 57, 36
1, 634605, Note_on_c, 0, 93, 100
1, 634611, Note_on_c, 0, 69, 79
1, 634611, Note_on_c, 0, 81, 87
1, 634632, Note_off_c, 0, 81, 68
1, 634645, Note_off_c, 0, 93, 67
1, 634651, Note_off_c, 0, 69, 66
1, 634705, Note_on_c, 0, 88, 99
1, 634711, Note_on_c, 0, 64, 71
1, 634713, Note_on_c, 0, 57, 71
1, 634714, Note_on_c, 0, 76, 94
1, 634719, Note_on_c, 0, 85, 78
1, 634832, Note_off_c, 0, 57, 53
1, 634835, Note_off_c, 0, 64, 56
1, 634874, Note_off_c, 0, 76, 60
1, 634891, Note_off_c, 0, 85, 60
1, 634897, Note_off_c, 0, 88, 58
1, 634978, Note_on_c, 0, 64, 78
1, 634980, Note_on_c, 0, 57, 64
1, 634981, Note_on_c, 0, 88, 102
1, 634983, Note_on_c, 0, 76, 90
1, 634994, Note_on_c, 0, 85, 80
1, 635014, Note_off_c, 0, 76, 61
1, 635018, Note_off_c, 0, 85, 64
1, 635031, Note_off_c, 0, 88, 64
1, 635038, Note_off_c, 0, 64, 57
1, 635057, Note_off_c, 0, 57, 59
1, 635315, Note_on_c, 0, 93, 101
1, 635318, Note_on_c, 0, 81, 90
1, 635325, Note_on_c, 0, 69, 85
1, 635342, Note_off_c, 0, 81, 64
1, 635355, Note_off_c, 0, 93, 68
1, 635365, Note_off_c, 0, 69, 67
1, 635419, Note_on_c, 0, 88, 98
1, 635422, Note_on_c, 0, 76, 95
1, 635427, Note_on_c, 0, 57, 68
1, 635428, Note_on_c, 0, 64, 71
1, 635455, Note_off_c, 0, 64, 68
1, 635475, Note_off_c, 0, 57, 61
1, 635486, Note_off_c, 0, 88, 62
1, 635567, Note_off_c, 0, 76, 61
1, 635700, Control_c, 0, 64, 77
1, 635702, Note_on_c, 0, 90, 98
1, 635705, Note_on_c, 0, 86, 82
1, 635706, Note_on_c, 0, 78, 86
1, 635707, Note_on_c, 0, 81, 76
1, 635710, Note_on_c, 0, 66, 75
1, 635715, Control_c, 0, 64, 0
1, 635716, Note_on_c, 0, 62, 60
1, 635717, Note_on_c, 0, 54, 63
1, 635722, Note_on_c, 0, 57, 59
1, 635775, Control_c, 0, 64, 33
1, 635790, Control_c, 0, 64, 67
1, 635791, Note_off_c, 0, 66, 62
1, 635805, Control_c, 0, 64, 75
1, 635819, Note_off_c, 0, 62, 61
1, 635820, Control_c, 0, 64, 83
1, 635830, Note_off_c, 0, 54, 61
1, 635835, Control_c, 0, 64, 91
1, 635836, Note_off_c, 0, 57, 59
1, 635849, Control_c, 0, 64, 96
1, 635864, Control_c, 0, 64, 100
1, 635879, Control_c, 0, 64, 102
1, 635894, Control_c, 0, 64, 106
1, 635909, Control_c, 0, 64, 111
1, 635924, Control_c, 0, 64, 115
1, 635938, Control_c, 0, 64, 116
1, 635953, Control_c, 0, 64, 117
1, 635968, Control_c, 0, 64, 119
1, 635983, Control_c, 0, 64, 127
1, 636116, Control_c, 0, 64, 109
1, 636131, Control_c, 0, 64, 94
1, 636146, Control_c, 0, 64, 88
1, 636155, Note_on_c, 0, 38, 65
1, 636161, Control_c, 0, 64, 89
1, 636175, Control_c, 0, 64, 95
1, 636190, Control_c, 0, 64, 103
1, 636194, Note_on_c, 0, 45, 75
1, 636205, Control_c, 0, 64, 115
1, 636211, Note_off_c, 0, 38, 62
1, 636221, Control_c, 0, 64, 127
1, 636223, Note_off_c, 0, 45, 67
1, 636325, Note_off_c, 0, 90, 55
1, 636373, Note_off_c, 0, 86, 39
1, 636374, Note_off_c, 0, 78, 58
1, 636403, Note_off_c, 0, 81, 21
1, 636450, Control_c, 0, 64, 84
1, 636459, Note_on_c, 0, 90, 99
1, 636463, Note_on_c, 0, 86, 90
1, 636465, Control_c, 0, 64, 68
1, 636466, Note_on_c, 0, 81, 77
1, 636467, Note_on_c, 0, 78, 82
1, 636471, Note_on_c, 0, 62, 63
1, 636472, Note_on_c, 0, 66, 71
1, 636481, Note_on_c, 0, 57, 54
1, 636482, Note_on_c, 0, 54, 54
1, 636495, Control_c, 0, 64, 76
1, 636501, Note_off_c, 0, 66, 60
1, 636509, Control_c, 0, 64, 83
1, 636525, Control_c, 0, 64, 92
1, 636534, Note_off_c, 0, 54, 60
1, 636536, Note_off_c, 0, 62, 60
1, 636540, Control_c, 0, 64, 100
1, 636554, Note_off_c, 0, 57, 58
1, 636555, Control_c, 0, 64, 109
1, 636570, Control_c, 0, 64, 114
1, 636585, Control_c, 0, 64, 119
1, 636599, Control_c, 0, 64, 127
1, 636954, Control_c, 0, 64, 112
1, 636969, Control_c, 0, 64, 94
1, 636977, Note_on_c, 0, 38, 60
1, 636984, Control_c, 0, 64, 81
1, 636999, Control_c, 0, 64, 79
1, 637014, Control_c, 0, 64, 83
1, 637014, Note_on_c, 0, 45, 68
1, 637014, Note_off_c, 0, 38, 63
1, 637029, Control_c, 0, 64, 91
1, 637040, Note_off_c, 0, 45, 66
1, 637044, Control_c, 0, 64, 99
1, 637059, Control_c, 0, 64, 107
1, 637073, Control_c, 0, 64, 116
1, 637088, Control_c, 0, 64, 127
1, 637120, Note_off_c, 0, 81, 24
1, 637181, Note_off_c, 0, 90, 50
1, 637235, Note_off_c, 0, 86, 48
1, 637245, Note_off_c, 0, 78, 40
1, 637318, Control_c, 0, 64, 108
1, 637333, Control_c, 0, 64, 87
1, 637348, Note_on_c, 0, 90, 83
1, 637348, Control_c, 0, 64, 70
1, 637348, Note_on_c, 0, 86, 71
1, 637352, Note_on_c, 0, 78, 66
1, 637353, Note_on_c, 0, 81, 62
1, 637356, Note_on_c, 0, 62, 49
1, 637359, Note_on_c, 0, 66, 53
1, 637363, Control_c, 0, 64, 65
1, 637363, Note_on_c, 0, 57, 38
1, 637369, Note_on_c, 0, 54, 44
1, 637378, Control_c, 0, 64, 71
1, 637392, Control_c, 0, 64, 77
1, 637407, Control_c, 0, 64, 83
1, 637422, Control_c, 0, 64, 88
1, 637435, Note_off_c, 0, 66, 61
1, 637437, Control_c, 0, 64, 94
1, 637452, Control_c, 0, 64, 99
1, 637467, Control_c, 0, 64, 103
1, 637481, Note_off_c, 0, 62, 60
1, 637482, Control_c, 0, 64, 105
1, 637496, Control_c, 0, 64, 107
1, 637511, Control_c, 0, 64, 109
1, 637526, Control_c, 0, 64, 111
1, 637528, Note_off_c, 0, 54, 63
1, 637530, Note_off_c, 0, 57, 36
1, 637541, Control_c, 0, 64, 112
1, 637555, Control_c, 0, 64, 113
1, 637585, Control_c, 0, 64, 114
1, 637887, Control_c, 0, 64, 113
1, 637902, Control_c, 0, 64, 111
1, 637917, Control_c, 0, 64, 106
1, 637932, Control_c, 0, 64, 99
1, 637947, Control_c, 0, 64, 88
1, 637962, Control_c, 0, 64, 77
1, 637977, Control_c, 0, 64, 72
1, 637992, Control_c, 0, 64, 73
1, 638007, Control_c, 0, 64, 74
1, 638010, Note_on_c, 0, 38, 48
1, 638021, Control_c, 0, 64, 74
1, 638036, Control_c, 0, 64, 76
1, 638051, Control_c, 0, 64, 78
1, 638066, Control_c, 0, 64, 80
1, 638080, Note_on_c, 0, 45, 47
1, 638080, Control_c, 0, 64, 83
1, 638095, Control_c, 0, 64, 85
1, 638110, Control_c, 0, 64, 87
1, 638110, Control_c, 0, 67, 8
1, 638126, Control_c, 0, 64, 89
1, 638126, Control_c, 0, 67, 9
1, 638141, Control_c, 0, 64, 91
1, 638141, Control_c, 0, 67, 11
1, 638156, Control_c, 0, 64, 92
1, 638156, Control_c, 0, 67, 13
1, 638163, Note_off_c, 0, 45, 48
1, 638170, Control_c, 0, 64, 93
1, 638170, Control_c, 0, 67, 15
1, 638183, Note_off_c, 0, 38, 41
1, 638185, Control_c, 0, 64, 95
1, 638185, Control_c, 0, 67, 17
1, 638200, Control_c, 0, 64, 97
1, 638200, Control_c, 0, 67, 19
1, 638215, Control_c, 0, 64, 99
1, 638215, Control_c, 0, 67, 21
1, 638230, Control_c, 0, 64, 99
1, 638230, Control_c, 0, 67, 24
1, 638244, Control_c, 0, 64, 100
1, 638244, Control_c, 0, 67, 27
1, 638259, Control_c, 0, 67, 30
1, 638274, Control_c, 0, 67, 32
1, 638289, Control_c, 0, 67, 35
1, 638303, Control_c, 0, 67, 37
1, 638318, Control_c, 0, 67, 38
1, 638333, Control_c, 0, 67, 40
1, 638348, Control_c, 0, 67, 41
1, 638363, Control_c, 0, 67, 44
1, 638377, Control_c, 0, 67, 46
1, 638392, Control_c, 0, 67, 48
1, 638407, Control_c, 0, 67, 51
1, 638422, Control_c, 0, 67, 53
1, 638437, Control_c, 0, 67, 56
1, 638451, Control_c, 0, 67, 59
1, 638466, Control_c, 0, 67, 62
1, 638481, Control_c, 0, 67, 64
1, 638495, Control_c, 0, 67, 68
1, 638510, Control_c, 0, 67, 70
1, 638517, Note_off_c, 0, 78, 41
1, 638525, Control_c, 0, 67, 74
1, 638540, Control_c, 0, 67, 77
1, 638555, Control_c, 0, 67, 80
1, 638570, Control_c, 0, 67, 83
1, 638585, Control_c, 0, 67, 86
1, 638607, Control_c, 0, 67, 88
1, 638622, Control_c, 0, 67, 91
1, 638637, Control_c, 0, 67, 93
1, 638651, Control_c, 0, 67, 95
1, 638666, Control_c, 0, 67, 97
1, 638681, Control_c, 0, 67, 99
1, 638696, Control_c, 0, 67, 101
1, 638710, Control_c, 0, 67, 104
1, 638725, Control_c, 0, 67, 106
1, 638740, Control_c, 0, 67, 108
1, 638755, Control_c, 0, 67, 111
1, 638770, Control_c, 0, 67, 114
1, 638785, Control_c, 0, 67, 116
1, 638799, Control_c, 0, 67, 118
1, 638814, Control_c, 0, 67, 120
1, 638829, Control_c, 0, 67, 122
1, 638844, Control_c, 0, 67, 124
1, 638859, Control_c, 0, 67, 127
1, 638874, Control_c, 0, 67, 127
1, 638892, Note_off_c, 0, 81, 29
1, 639053, Control_c, 0, 64, 99
1, 639082, Control_c, 0, 64, 99
1, 639097, Note_on_c, 0, 38, 41
1, 639097, Control_c, 0, 64, 96
1, 639112, Control_c, 0, 64, 88
1, 639126, Control_c, 0, 64, 77
1, 639141, Control_c, 0, 64, 65
1, 639145, Note_off_c, 0, 86, 40
1, 639156, Control_c, 0, 64, 54
1, 639171, Control_c, 0, 64, 62
1, 639175, Note_on_c, 0, 45, 38
1, 639186, Control_c, 0, 64, 65
1, 639200, Control_c, 0, 64, 67
1, 639215, Control_c, 0, 64, 70
1, 639230, Control_c, 0, 64, 73
1, 639245, Control_c, 0, 64, 75
1, 639260, Control_c, 0, 64, 78
1, 639274, Control_c, 0, 64, 80
1, 639289, Control_c, 0, 64, 81
1, 639304, Control_c, 0, 64, 83
1, 639318, Control_c, 0, 64, 84
1, 639333, Control_c, 0, 64, 86
1, 639356, Control_c, 0, 64, 88
1, 639364, Note_off_c, 0, 45, 38
1, 639371, Control_c, 0, 64, 89
1, 639386, Control_c, 0, 64, 90
1, 639400, Control_c, 0, 64, 92
1, 639415, Control_c, 0, 64, 93
1, 639430, Control_c, 0, 64, 94
1, 639434, Note_off_c, 0, 90, 34
1, 639445, Control_c, 0, 64, 95
1, 639460, Control_c, 0, 64, 96
1, 639474, Control_c, 0, 64, 97
1, 639476, Note_off_c, 0, 38, 32
1, 639489, Control_c, 0, 64, 98
1, 639504, Control_c, 0, 64, 99
1, 639533, Control_c, 0, 64, 99
1, 639578, Control_c, 0, 64, 100
1, 639652, Control_c, 0, 64, 100
1, 640237, Control_c, 0, 64, 100
1, 640296, Control_c, 0, 64, 99
1, 640311, Control_c, 0, 64, 99
1, 640341, Control_c, 0, 64, 98
1, 640355, Control_c, 0, 64, 98
1, 640385, Control_c, 0, 64, 97
1, 640400, Control_c, 0, 64, 97
1, 640415, Control_c, 0, 64, 96
1, 640430, Control_c, 0, 64, 96
1, 640445, Control_c, 0, 64, 95
1, 640460, Control_c, 0, 64, 93
1, 640474, Control_c, 0, 64, 89
1, 640489, Control_c, 0, 64, 82
1, 640504, Control_c, 0, 64, 72
1, 640519, Note_on_c, 0, 38, 31
1, 640519, Control_c, 0, 64, 61
1, 640534, Control_c, 0, 64, 52
1, 640549, Control_c, 0, 64, 58
1, 640564, Control_c, 0, 64, 61
1, 640579, Control_c, 0, 64, 62
1, 640585, Note_on_c, 0, 45, 44
1, 640594, Control_c, 0, 64, 64
1, 640609, Control_c, 0, 64, 66
1, 640624, Control_c, 0, 64, 68
1, 640639, Control_c, 0, 64, 70
1, 640653, Control_c, 0, 64, 72
1, 640668, Control_c, 0, 64, 73
1, 640683, Control_c, 0, 64, 75
1, 640697, Control_c, 0, 64, 77
1, 640712, Control_c, 0, 64, 79
1, 640727, Control_c, 0, 64, 82
1, 640742, Control_c, 0, 64, 84
1, 640757, Control_c, 0, 64, 86
1, 640760, Note_off_c, 0, 45, 42
1, 640762, Note_off_c, 0, 38, 39
1, 640771, Control_c, 0, 64, 87
1, 640786, Control_c, 0, 64, 88
1, 640801, Control_c, 0, 64, 90
1, 640816, Control_c, 0, 64, 91
1, 640831, Control_c, 0, 64, 91
1, 641089, Control_c, 0, 64, 91
1, 641119, Control_c, 0, 64, 90
1, 641163, Control_c, 0, 64, 90
1, 641193, Control_c, 0, 64, 89
1, 641223, Control_c, 0, 64, 89
1, 641238, Control_c, 0, 64, 88
1, 641238, Control_c, 0, 67, 127
1, 641253, Control_c, 0, 64, 88
1, 641283, Control_c, 0, 64, 87
1, 641312, Control_c, 0, 64, 87
1, 641327, Control_c, 0, 64, 86
1, 641342, Control_c, 0, 64, 86
1, 641357, Control_c, 0, 64, 85
1, 641357, Control_c, 0, 67, 126
1, 641372, Control_c, 0, 64, 84
1, 641387, Control_c, 0, 64, 83
1, 641402, Control_c, 0, 64, 82
1, 641417, Control_c, 0, 64, 81
1, 641432, Control_c, 0, 64, 80
1, 641447, Control_c, 0, 64, 79
1, 641461, Control_c, 0, 64, 78
1, 641476, Control_c, 0, 64, 77
1, 641491, Control_c, 0, 64, 75
1, 641495, Note_on_c, 0, 57, 40
1, 641506, Control_c, 0, 64, 73
1, 641520, Control_c, 0, 64, 70
1, 641535, Control_c, 0, 64, 66
1, 641545, Note_off_c, 0, 57, 60
1, 641550, Control_c, 0, 64, 62
1, 641565, Control_c, 0, 64, 43
1, 641580, Control_c, 0, 64, 0
1, 641754, Note_on_c, 0, 62, 57
1, 641788, Note_off_c, 0, 62, 63
1, 641976, Note_on_c, 0, 64, 63
1, 642005, Note_off_c, 0, 64, 65
1, 642266, Note_on_c, 0, 66, 50
1, 642269, Control_c, 0, 67, 126
1, 642350, Control_c, 0, 64, 58
1, 642365, Control_c, 0, 64, 64
1, 642380, Control_c, 0, 64, 66
1, 642395, Control_c, 0, 64, 67
1, 642410, Control_c, 0, 64, 69
1, 642424, Control_c, 0, 64, 71
1, 642439, Control_c, 0, 64, 73
1, 642454, Control_c, 0, 64, 75
1, 642469, Control_c, 0, 64, 76
1, 642484, Control_c, 0, 64, 78
1, 642499, Control_c, 0, 64, 80
1, 642514, Control_c, 0, 64, 82
1, 642529, Control_c, 0, 64, 84
1, 642543, Control_c, 0, 64, 86
1, 642558, Control_c, 0, 64, 88
1, 642573, Control_c, 0, 64, 89
1, 642588, Control_c, 0, 64, 91
1, 642603, Control_c, 0, 64, 92
1, 642617, Control_c, 0, 64, 93
1, 642632, Control_c, 0, 64, 94
1, 642647, Control_c, 0, 64, 95
1, 642661, Control_c, 0, 64, 96
1, 642676, Control_c, 0, 64, 97
1, 642904, Note_off_c, 0, 66, 36
1, 642974, Control_c, 0, 67, 125
1, 643219, Control_c, 0, 64, 96
1, 643234, Control_c, 0, 64, 96
1, 643278, Control_c, 0, 64, 95
1, 643292, Control_c, 0, 64, 95
1, 643322, Control_c, 0, 64, 94
1, 643337, Control_c, 0, 64, 94
1, 643352, Control_c, 0, 64, 93
1, 643366, Control_c, 0, 64, 90
1, 643375, Note_on_c, 0, 66, 44
1, 643381, Control_c, 0, 64, 86
1, 643396, Control_c, 0, 64, 77
1, 643411, Control_c, 0, 64, 69
1, 643426, Control_c, 0, 64, 64
1, 643456, Control_c, 0, 64, 64
1, 643471, Control_c, 0, 64, 65
1, 643485, Control_c, 0, 64, 67
1, 643500, Control_c, 0, 64, 68
1, 643515, Control_c, 0, 64, 70
1, 643530, Control_c, 0, 64, 72
1, 643545, Control_c, 0, 64, 74
1, 643560, Control_c, 0, 64, 75
1, 643560, Control_c, 0, 67, 125
1, 643574, Control_c, 0, 64, 76
1, 643589, Control_c, 0, 64, 77
1, 643604, Control_c, 0, 64, 79
1, 643618, Control_c, 0, 64, 80
1, 643633, Control_c, 0, 64, 82
1, 643648, Control_c, 0, 64, 84
1, 643663, Control_c, 0, 64, 86
1, 643678, Control_c, 0, 64, 87
1, 643692, Control_c, 0, 64, 88
1, 643708, Control_c, 0, 64, 89
1, 643723, Control_c, 0, 64, 91
1, 643738, Control_c, 0, 64, 91
1, 643768, Control_c, 0, 64, 92
1, 643997, Control_c, 0, 64, 90
1, 644012, Control_c, 0, 64, 87
1, 644027, Control_c, 0, 64, 82
1, 644042, Control_c, 0, 64, 72
1, 644057, Control_c, 0, 64, 60
1, 644064, Note_on_c, 0, 34, 40
1, 644071, Control_c, 0, 64, 61
1, 644086, Control_c, 0, 64, 65
1, 644097, Note_off_c, 0, 34, 51
1, 644101, Control_c, 0, 64, 68
1, 644115, Control_c, 0, 64, 70
1, 644130, Control_c, 0, 64, 72
1, 644130, Control_c, 0, 67, 124
1, 644145, Control_c, 0, 64, 75
1, 644160, Control_c, 0, 64, 78
1, 644175, Control_c, 0, 64, 80
1, 644175, Control_c, 0, 67, 124
1, 644189, Control_c, 0, 64, 82
1, 644204, Control_c, 0, 64, 83
1, 644219, Control_c, 0, 64, 84
1, 644234, Control_c, 0, 64, 85
1, 644249, Control_c, 0, 64, 87
1, 644263, Control_c, 0, 64, 88
1, 644278, Control_c, 0, 64, 89
1, 644334, Note_on_c, 0, 34, 52
1, 644377, Note_off_c, 0, 34, 60
1, 644395, Note_on_c, 0, 49, 58
1, 644397, Control_c, 0, 64, 89
1, 644412, Control_c, 0, 64, 88
1, 644423, Note_off_c, 0, 66, 55
1, 644427, Control_c, 0, 64, 87
1, 644441, Control_c, 0, 64, 83
1, 644443, Note_off_c, 0, 49, 54
1, 644455, Control_c, 0, 64, 75
1, 644462, Note_on_c, 0, 34, 59
1, 644470, Control_c, 0, 64, 61
1, 644485, Control_c, 0, 64, 0
1, 644505, Note_off_c, 0, 34, 59
1, 644655, Note_on_c, 0, 49, 54
1, 644684, Note_off_c, 0, 49, 62
1, 644844, Note_on_c, 0, 34, 40
1, 644878, Note_off_c, 0, 34, 60
1, 645045, Note_on_c, 0, 49, 37
1, 645079, Note_off_c, 0, 49, 48
1, 645344, Note_on_c, 0, 66, 27
1, 645347, Note_on_c, 0, 67, 37
1, 645480, Control_c, 0, 64, 46
1, 645494, Control_c, 0, 64, 59
1, 645509, Control_c, 0, 64, 63
1, 645524, Control_c, 0, 64, 65
1, 645539, Control_c, 0, 64, 68
1, 645554, Control_c, 0, 64, 69
1, 645568, Control_c, 0, 64, 71
1, 645583, Control_c, 0, 64, 73
1, 645598, Control_c, 0, 64, 75
1, 645613, Control_c, 0, 64, 77
1, 645628, Control_c, 0, 64, 79
1, 645642, Control_c, 0, 64, 81
1, 645657, Control_c, 0, 64, 82
1, 645672, Control_c, 0, 64, 85
1, 645686, Control_c, 0, 64, 87
1, 645701, Control_c, 0, 64, 89
1, 645716, Control_c, 0, 64, 90
1, 645731, Control_c, 0, 64, 92
1, 645746, Control_c, 0, 64, 92
1, 645760, Control_c, 0, 64, 93
1, 645775, Control_c, 0, 64, 94
1, 645790, Control_c, 0, 64, 95
1, 645849, Control_c, 0, 64, 95
1, 646070, Note_off_c, 0, 66, 33
1, 646100, Note_off_c, 0, 67, 25
1, 646332, Control_c, 0, 64, 95
1, 646407, Control_c, 0, 64, 94
1, 646407, Note_on_c, 0, 66, 38
1, 646416, Note_on_c, 0, 67, 43
1, 646422, Control_c, 0, 64, 93
1, 646436, Control_c, 0, 64, 91
1, 646451, Control_c, 0, 64, 87
1, 646466, Control_c, 0, 64, 81
1, 646481, Control_c, 0, 64, 75
1, 646496, Control_c, 0, 64, 73
1, 646540, Control_c, 0, 64, 73
1, 646555, Control_c, 0, 64, 74
1, 646570, Control_c, 0, 64, 74
1, 646584, Control_c, 0, 64, 75
1, 646599, Control_c, 0, 64, 76
1, 646614, Control_c, 0, 64, 76
1, 646628, Control_c, 0, 64, 77
1, 646643, Control_c, 0, 64, 78
1, 646658, Control_c, 0, 64, 79
1, 646673, Control_c, 0, 64, 81
1, 646688, Control_c, 0, 64, 82
1, 646702, Control_c, 0, 64, 84
1, 646717, Control_c, 0, 64, 86
1, 646732, Control_c, 0, 64, 88
1, 646747, Control_c, 0, 64, 89
1, 646762, Control_c, 0, 64, 89
1, 646919, Control_c, 0, 64, 89
1, 646934, Control_c, 0, 64, 87
1, 646948, Control_c, 0, 64, 84
1, 646963, Control_c, 0, 64, 78
1, 646964, Note_on_c, 0, 34, 55
1, 646978, Control_c, 0, 64, 69
1, 646993, Control_c, 0, 64, 61
1, 646998, Note_off_c, 0, 34, 62
1, 647008, Control_c, 0, 64, 64
1, 647022, Control_c, 0, 64, 66
1, 647037, Control_c, 0, 64, 67
1, 647052, Control_c, 0, 64, 70
1, 647066, Control_c, 0, 64, 72
1, 647081, Control_c, 0, 64, 75
1, 647096, Control_c, 0, 64, 78
1, 647111, Control_c, 0, 64, 80
1, 647126, Control_c, 0, 64, 81
1, 647140, Control_c, 0, 64, 82
1, 647155, Control_c, 0, 64, 82
1, 647170, Control_c, 0, 64, 83
1, 647203, Note_on_c, 0, 34, 53
1, 647236, Note_off_c, 0, 34, 61
1, 647259, Control_c, 0, 64, 82
1, 647265, Note_on_c, 0, 49, 55
1, 647269, Note_off_c, 0, 67, 54
1, 647274, Control_c, 0, 64, 80
1, 647288, Note_off_c, 0, 66, 48
1, 647289, Control_c, 0, 64, 74
1, 647302, Note_off_c, 0, 49, 62
1, 647304, Control_c, 0, 64, 64
1, 647316, Note_on_c, 0, 34, 56
1, 647319, Control_c, 0, 64, 0
1, 647319, Control_c, 0, 67, 124
1, 647362, Note_off_c, 0, 34, 60
1, 647510, Note_on_c, 0, 49, 53
1, 647542, Note_off_c, 0, 49, 64
1, 647716, Note_on_c, 0, 34, 47
1, 647749, Note_off_c, 0, 34, 61
1, 647845, Control_c, 0, 67, 124
1, 647875, Control_c, 0, 67, 123
1, 647889, Control_c, 0, 67, 123
1, 647900, Note_on_c, 0, 49, 51
1, 647904, Control_c, 0, 67, 122
1, 647919, Control_c, 0, 67, 121
1, 647929, Note_off_c, 0, 49, 60
1, 647934, Control_c, 0, 67, 120
1, 647949, Control_c, 0, 67, 118
1, 647963, Control_c, 0, 67, 115
1, 647978, Control_c, 0, 67, 109
1, 647993, Control_c, 0, 64, 48
1, 647993, Control_c, 0, 67, 102
1, 648008, Control_c, 0, 64, 62
1, 648008, Control_c, 0, 67, 96
1, 648023, Control_c, 0, 64, 65
1, 648023, Control_c, 0, 67, 93
1, 648037, Control_c, 0, 64, 66
1, 648037, Control_c, 0, 67, 92
1, 648052, Control_c, 0, 64, 68
1, 648052, Control_c, 0, 67, 91
1, 648067, Control_c, 0, 64, 70
1, 648067, Control_c, 0, 67, 90
1, 648082, Control_c, 0, 64, 72
1, 648082, Control_c, 0, 67, 89
1, 648097, Note_on_c, 0, 66, 42
1, 648097, Control_c, 0, 64, 75
1, 648097, Control_c, 0, 67, 88
1, 648098, Note_on_c, 0, 67, 49
1, 648112, Control_c, 0, 64, 76
1, 648112, Control_c, 0, 67, 87
1, 648127, Control_c, 0, 64, 77
1, 648127, Control_c, 0, 67, 85
1, 648142, Control_c, 0, 64, 78
1, 648142, Control_c, 0, 67, 83
1, 648156, Control_c, 0, 67, 83
1, 648261, Note_off_c, 0, 67, 52
1, 648281, Note_off_c, 0, 66, 37
1, 648288, Control_c, 0, 64, 77
1, 648318, Note_on_c, 0, 34, 54
1, 648341, Control_c, 0, 64, 77
1, 648356, Control_c, 0, 64, 76
1, 648356, Control_c, 0, 67, 83
1, 648370, Note_off_c, 0, 34, 59
1, 648370, Control_c, 0, 64, 74
1, 648370, Control_c, 0, 67, 84
1, 648385, Control_c, 0, 64, 68
1, 648388, Note_on_c, 0, 49, 52
1, 648400, Control_c, 0, 64, 0
1, 648400, Control_c, 0, 67, 84
1, 648416, Note_off_c, 0, 49, 60
1, 648444, Control_c, 0, 67, 85
1, 648460, Note_on_c, 0, 34, 38
1, 648499, Note_off_c, 0, 34, 58
1, 648534, Control_c, 0, 67, 85
1, 648651, Note_on_c, 0, 67, 46
1, 648654, Note_on_c, 0, 66, 39
1, 648667, Control_c, 0, 67, 85
1, 648682, Control_c, 0, 64, 58
1, 648697, Control_c, 0, 64, 66
1, 648697, Control_c, 0, 67, 84
1, 648711, Control_c, 0, 64, 69
1, 648726, Control_c, 0, 64, 71
1, 648726, Control_c, 0, 67, 84
1, 648741, Control_c, 0, 64, 74
1, 648741, Control_c, 0, 67, 83
1, 648756, Control_c, 0, 64, 76
1, 648756, Control_c, 0, 67, 83
1, 648771, Control_c, 0, 64, 81
1, 648785, Control_c, 0, 64, 86
1, 648800, Control_c, 0, 64, 90
1, 648807, Note_on_c, 0, 34, 53
1, 648815, Control_c, 0, 64, 92
1, 648815, Control_c, 0, 67, 83
1, 648817, Note_off_c, 0, 66, 52
1, 648818, Note_off_c, 0, 67, 58
1, 648830, Control_c, 0, 67, 84
1, 648842, Note_off_c, 0, 34, 62
1, 648845, Control_c, 0, 67, 84
1, 648854, Note_on_c, 0, 49, 51
1, 648860, Control_c, 0, 67, 85
1, 648875, Control_c, 0, 67, 85
1, 648885, Note_off_c, 0, 49, 55
1, 648890, Control_c, 0, 67, 86
1, 648904, Control_c, 0, 64, 86
1, 648916, Note_on_c, 0, 34, 47
1, 648919, Control_c, 0, 64, 73
1, 648919, Control_c, 0, 67, 86
1, 648934, Control_c, 0, 64, 0
1, 648952, Note_off_c, 0, 34, 61
1, 649038, Control_c, 0, 67, 86
1, 649057, Note_on_c, 0, 67, 54
1, 649062, Note_on_c, 0, 66, 44
1, 649068, Control_c, 0, 67, 85
1, 649090, Control_c, 0, 67, 85
1, 649119, Control_c, 0, 67, 84
1, 649134, Control_c, 0, 64, 38
1, 649134, Control_c, 0, 67, 83
1, 649149, Control_c, 0, 64, 62
1, 649164, Control_c, 0, 64, 66
1, 649179, Control_c, 0, 64, 69
1, 649187, Note_on_c, 0, 34, 63
1, 649194, Control_c, 0, 64, 71
1, 649197, Note_off_c, 0, 67, 60
1, 649200, Note_off_c, 0, 66, 60
1, 649209, Control_c, 0, 64, 73
1, 649215, Note_off_c, 0, 34, 62
1, 649224, Control_c, 0, 64, 73
1, 649238, Control_c, 0, 64, 71
1, 649249, Note_on_c, 0, 49, 56
1, 649253, Control_c, 0, 64, 69
1, 649268, Control_c, 0, 64, 69
1, 649268, Control_c, 0, 67, 84
1, 649278, Note_off_c, 0, 49, 61
1, 649283, Control_c, 0, 64, 70
1, 649298, Control_c, 0, 64, 71
1, 649313, Control_c, 0, 64, 72
1, 649320, Note_on_c, 0, 67, 66
1, 649321, Note_on_c, 0, 66, 59
1, 649328, Control_c, 0, 64, 74
1, 649343, Control_c, 0, 64, 76
1, 649358, Control_c, 0, 64, 78
1, 649388, Control_c, 0, 64, 77
1, 649402, Control_c, 0, 64, 74
1, 649417, Control_c, 0, 64, 69
1, 649420, Note_off_c, 0, 66, 61
1, 649420, Note_off_c, 0, 67, 60
1, 649422, Note_on_c, 0, 34, 57
1, 649432, Control_c, 0, 64, 66
1, 649447, Control_c, 0, 64, 68
1, 649450, Note_off_c, 0, 34, 62
1, 649461, Note_on_c, 0, 49, 67
1, 649461, Control_c, 0, 64, 69
1, 649476, Control_c, 0, 64, 70
1, 649491, Control_c, 0, 64, 72
1, 649491, Control_c, 0, 67, 83
1, 649495, Note_off_c, 0, 49, 62
1, 649506, Control_c, 0, 64, 74
1, 649521, Control_c, 0, 64, 75
1, 649535, Control_c, 0, 64, 76
1, 649536, Note_on_c, 0, 66, 68
1, 649539, Note_on_c, 0, 67, 71
1, 649550, Control_c, 0, 67, 83
1, 649565, Control_c, 0, 67, 82
1, 649580, Control_c, 0, 64, 75
1, 649595, Control_c, 0, 64, 72
1, 649595, Control_c, 0, 67, 82
1, 649609, Control_c, 0, 64, 69
1, 649624, Control_c, 0, 64, 68
1, 649636, Note_on_c, 0, 34, 57
1, 649639, Control_c, 0, 64, 70
1, 649639, Control_c, 0, 67, 81
1, 649653, Control_c, 0, 64, 71
1, 649661, Note_off_c, 0, 67, 59
1, 649665, Note_off_c, 0, 66, 60
1, 649668, Control_c, 0, 64, 72
1, 649670, Note_off_c, 0, 34, 65
1, 649677, Note_on_c, 0, 49, 71
1, 649683, Control_c, 0, 64, 74
1, 649683, Control_c, 0, 67, 81
1, 649698, Control_c, 0, 64, 76
1, 649698, Control_c, 0, 67, 78
1, 649713, Control_c, 0, 64, 77
1, 649713, Control_c, 0, 67, 75
1, 649727, Control_c, 0, 64, 77
1, 649727, Control_c, 0, 67, 72
1, 649736, Note_off_c, 0, 49, 60
1, 649742, Control_c, 0, 64, 74
1, 649742, Control_c, 0, 67, 69
1, 649757, Control_c, 0, 64, 70
1, 649757, Control_c, 0, 67, 67
1, 649762, Note_on_c, 0, 66, 80
1, 649763, Note_on_c, 0, 67, 80
1, 649772, Control_c, 0, 64, 66
1, 649772, Control_c, 0, 67, 65
1, 649787, Control_c, 0, 64, 67
1, 649787, Control_c, 0, 67, 64
1, 649802, Control_c, 0, 64, 68
1, 649802, Control_c, 0, 67, 62
1, 649817, Control_c, 0, 64, 70
1, 649817, Control_c, 0, 67, 61
1, 649839, Control_c, 0, 64, 71
1, 649839, Control_c, 0, 67, 58
1, 649854, Control_c, 0, 64, 76
1, 649854, Control_c, 0, 67, 56
1, 649868, Control_c, 0, 64, 79
1, 649868, Control_c, 0, 67, 55
1, 649876, Note_on_c, 0, 34, 66
1, 649883, Control_c, 0, 64, 80
1, 649883, Control_c, 0, 67, 54
1, 649898, Control_c, 0, 64, 79
1, 649898, Control_c, 0, 67, 54
1, 649900, Note_off_c, 0, 67, 61
1, 649903, Note_off_c, 0, 66, 62
1, 649911, Note_on_c, 0, 49, 84
1, 649913, Control_c, 0, 64, 76
1, 649913, Control_c, 0, 67, 53
1, 649921, Note_off_c, 0, 34, 61
1, 649928, Control_c, 0, 64, 72
1, 649928, Control_c, 0, 67, 53
1, 649942, Control_c, 0, 64, 68
1, 649942, Control_c, 0, 67, 52
1, 649957, Control_c, 0, 64, 67
1, 649957, Control_c, 0, 67, 50
1, 649972, Control_c, 0, 64, 69
1, 649972, Control_c, 0, 67, 47
1, 649983, Note_off_c, 0, 49, 62
1, 649987, Control_c, 0, 64, 72
1, 649987, Control_c, 0, 67, 43
1, 649995, Note_on_c, 0, 67, 87
1, 649996, Note_on_c, 0, 66, 85
1, 650002, Control_c, 0, 64, 76
1, 650002, Control_c, 0, 67, 37
1, 650017, Control_c, 0, 64, 80
1, 650017, Control_c, 0, 67, 30
1, 650032, Control_c, 0, 64, 81
1, 650032, Control_c, 0, 67, 20
1, 650046, Control_c, 0, 64, 81
1, 650046, Control_c, 0, 67, 0
1, 650061, Control_c, 0, 64, 78
1, 650076, Control_c, 0, 64, 76
1, 650083, Note_on_c, 0, 34, 77
1, 650091, Control_c, 0, 64, 77
1, 650106, Control_c, 0, 64, 81
1, 650121, Control_c, 0, 64, 88
1, 650124, Note_off_c, 0, 67, 61
1, 650127, Note_on_c, 0, 49, 89
1, 650131, Note_off_c, 0, 66, 62
1, 650136, Control_c, 0, 64, 97
1, 650139, Note_off_c, 0, 34, 63
1, 650151, Control_c, 0, 64, 107
1, 650166, Control_c, 0, 64, 112
1, 650170, Note_on_c, 0, 40, 36
1, 650181, Control_c, 0, 64, 111
1, 650195, Control_c, 0, 64, 97
1, 650207, Note_off_c, 0, 49, 61
1, 650210, Control_c, 0, 64, 80
1, 650217, Note_on_c, 0, 66, 85
1, 650217, Note_on_c, 0, 67, 86
1, 650224, Poly_aftertouch_c, 0, 37, 0
1, 650225, Control_c, 0, 64, 69
1, 650240, Control_c, 0, 64, 72
1, 650244, Note_on_c, 0, 34, 74
1, 650255, Control_c, 0, 64, 77
1, 650270, Control_c, 0, 64, 81
1, 650284, Control_c, 0, 64, 88
1, 650297, Note_off_c, 0, 34, 62
1, 650299, Control_c, 0, 64, 97
1, 650300, Note_on_c, 0, 49, 90
1, 650303, Note_off_c, 0, 67, 60
1, 650314, Control_c, 0, 64, 107
1, 650324, Note_off_c, 0, 66, 61
1, 650329, Control_c, 0, 64, 119
1, 650341, Note_off_c, 0, 40, 20
1, 650344, Note_off_c, 0, 49, 62
1, 650344, Control_c, 0, 64, 127
1, 650373, Control_c, 0, 64, 126
1, 650388, Control_c, 0, 64, 106
1, 650390, Note_on_c, 0, 64, 67
1, 650403, Control_c, 0, 64, 81
1, 650410, Note_on_c, 0, 67, 74
1, 650417, Note_off_c, 0, 64, 69
1, 650418, Control_c, 0, 64, 19
1, 650419, Note_on_c, 0, 76, 78
1, 650429, Note_off_c, 0, 67, 70
1, 650432, Control_c, 0, 64, 0
1, 650443, Note_off_c, 0, 76, 66
1, 650538, Note_on_c, 0, 42, 71
1, 650542, Note_on_c, 0, 74, 78
1, 650548, Note_on_c, 0, 66, 69
1, 650564, Note_off_c, 0, 74, 70
1, 650568, Note_off_c, 0, 66, 66
1, 650588, Note_off_c, 0, 42, 58
1, 650596, Note_on_c, 0, 54, 63
1, 650628, Note_off_c, 0, 54, 60
1, 650667, Note_on_c, 0, 73, 81
1, 650678, Note_on_c, 0, 62, 61
1, 650691, Note_off_c, 0, 73, 65
1, 650695, Note_on_c, 0, 42, 54
1, 650696, Note_on_c, 0, 64, 41
1, 650699, Note_off_c, 0, 62, 62
1, 650726, Note_off_c, 0, 64, 53
1, 650732, Note_off_c, 0, 42, 62
1, 650783, Note_on_c, 0, 71, 83
1, 650784, Note_on_c, 0, 62, 67
1, 650807, Note_on_c, 0, 54, 55
1, 650811, Note_off_c, 0, 62, 64
1, 650824, Note_off_c, 0, 71, 65
1, 650831, Note_off_c, 0, 54, 61
1, 650899, Note_on_c, 0, 70, 74
1, 650902, Note_on_c, 0, 42, 62
1, 650903, Note_on_c, 0, 61, 64
1, 650931, Note_off_c, 0, 61, 65
1, 650938, Note_off_c, 0, 70, 59
1, 650949, Note_off_c, 0, 42, 59
1, 651016, Note_on_c, 0, 67, 82
1, 651017, Note_on_c, 0, 59, 73
1, 651023, Note_on_c, 0, 54, 60
1, 651040, Note_off_c, 0, 59, 64
1, 651045, Note_off_c, 0, 54, 63
1, 651045, Note_off_c, 0, 67, 58
1, 651128, Note_on_c, 0, 58, 76
1, 651131, Note_on_c, 0, 66, 75
1, 651149, Note_off_c, 0, 58, 69
1, 651163, Note_off_c, 0, 66, 58
1, 651234, Note_on_c, 0, 30, 77
1, 651241, Note_on_c, 0, 55, 84
1, 651244, Note_on_c, 0, 64, 90
1, 651266, Note_off_c, 0, 55, 67
1, 651278, Note_off_c, 0, 64, 65
1, 651283, Note_on_c, 0, 42, 70
1, 651284, Note_off_c, 0, 30, 61
1, 651317, Note_off_c, 0, 42, 63
1, 651366, Note_on_c, 0, 62, 90
1, 651369, Note_on_c, 0, 30, 87
1, 651374, Note_on_c, 0, 54, 85
1, 651398, Note_off_c, 0, 54, 70
1, 651411, Note_off_c, 0, 62, 57
1, 651417, Note_off_c, 0, 30, 62
1, 651485, Note_on_c, 0, 61, 88
1, 651486, Note_on_c, 0, 52, 91
1, 651489, Note_on_c, 0, 42, 84
1, 651513, Note_off_c, 0, 52, 65
1, 651515, Note_off_c, 0, 61, 64
1, 651519, Note_off_c, 0, 42, 65
1, 651599, Note_on_c, 0, 59, 91
1, 651605, Note_on_c, 0, 30, 72
1, 651615, Note_on_c, 0, 50, 70
1, 651635, Note_off_c, 0, 59, 63
1, 651638, Note_off_c, 0, 50, 65
1, 651640, Note_off_c, 0, 30, 63
1, 651737, Note_on_c, 0, 58, 80
1, 651744, Note_on_c, 0, 42, 60
1, 651760, Note_on_c, 0, 49, 38
1, 651769, Note_off_c, 0, 58, 59
1, 651772, Note_off_c, 0, 42, 59
1, 651798, Note_off_c, 0, 49, 32
1, 652111, Note_on_c, 0, 35, 47
1, 652111, Note_on_c, 0, 47, 51
1, 652115, Note_on_c, 0, 59, 60
1, 652137, Note_off_c, 0, 47, 57
1, 652139, Note_off_c, 0, 59, 63
1, 652142, Note_off_c, 0, 35, 54
1, 652225, Note_on_c, 0, 49, 66
1, 652236, Note_on_c, 0, 37, 49
1, 652237, Note_on_c, 0, 61, 69
1, 652252, Note_off_c, 0, 49, 66
1, 652259, Note_off_c, 0, 61, 66
1, 652267, Note_off_c, 0, 37, 58
1, 652349, Note_on_c, 0, 50, 54
1, 652354, Note_on_c, 0, 38, 58
1, 652354, Note_on_c, 0, 62, 62
1, 652376, Note_off_c, 0, 50, 59
1, 652376, Note_off_c, 0, 62, 64
1, 652382, Note_off_c, 0, 38, 60
1, 652490, Note_on_c, 0, 46, 68
1, 652494, Note_on_c, 0, 34, 58
1, 652495, Note_on_c, 0, 58, 56
1, 652515, Note_off_c, 0, 46, 64
1, 652515, Control_c, 0, 67, 10
1, 652518, Note_off_c, 0, 58, 61
1, 652527, Note_off_c, 0, 34, 62
1, 652530, Control_c, 0, 67, 15
1, 652544, Control_c, 0, 67, 17
1, 652574, Control_c, 0, 67, 17
1, 652589, Control_c, 0, 67, 16
1, 652604, Control_c, 0, 67, 15
1, 652619, Control_c, 0, 67, 14
1, 652634, Control_c, 0, 67, 13
1, 652649, Control_c, 0, 67, 13
1, 652664, Control_c, 0, 67, 12
1, 652678, Control_c, 0, 67, 11
1, 652693, Control_c, 0, 67, 10
1, 652708, Control_c, 0, 67, 9
1, 652723, Control_c, 0, 67, 8
1, 652796, Control_c, 0, 67, 8
1, 652949, Note_on_c, 0, 79, 63
1, 652953, Note_on_c, 0, 61, 50
1, 652961, Note_on_c, 0, 76, 41
1, 652968, Control_c, 0, 67, 0
1, 652980, Note_off_c, 0, 79, 62
1, 652981, Note_off_c, 0, 61, 58
1, 652991, Note_off_c, 0, 76, 52
1, 653094, Note_on_c, 0, 62, 33
1, 653099, Note_on_c, 0, 74, 40
1, 653128, Note_off_c, 0, 74, 55
1, 653129, Note_off_c, 0, 62, 47
1, 653145, Control_c, 0, 67, 8
1, 653175, Control_c, 0, 67, 8
1, 653202, Note_on_c, 0, 76, 63
1, 653224, Note_on_c, 0, 64, 36
1, 653232, Note_off_c, 0, 76, 64
1, 653255, Note_off_c, 0, 64, 49
1, 653338, Note_on_c, 0, 85, 74
1, 653342, Note_on_c, 0, 58, 55
1, 653343, Note_on_c, 0, 76, 53
1, 653361, Note_off_c, 0, 85, 66
1, 653367, Note_off_c, 0, 76, 58
1, 653369, Note_off_c, 0, 58, 64
1, 653442, Control_c, 0, 67, 9
1, 653457, Control_c, 0, 67, 10
1, 653472, Control_c, 0, 67, 11
1, 653487, Control_c, 0, 67, 11
1, 653501, Control_c, 0, 67, 12
1, 653516, Control_c, 0, 67, 13
1, 653531, Control_c, 0, 67, 14
1, 653546, Control_c, 0, 67, 15
1, 653561, Control_c, 0, 67, 15
1, 653627, Control_c, 0, 67, 15
1, 653642, Control_c, 0, 67, 14
1, 653657, Control_c, 0, 67, 14
1, 653731, Control_c, 0, 67, 13
1, 653796, Note_on_c, 0, 49, 62
1, 653797, Note_on_c, 0, 61, 64
1, 653806, Note_on_c, 0, 37, 44
1, 653820, Control_c, 0, 67, 13
1, 653822, Note_off_c, 0, 61, 64
1, 653826, Note_off_c, 0, 49, 65
1, 653838, Note_off_c, 0, 37, 59
1, 653850, Control_c, 0, 67, 12
1, 653916, Note_on_c, 0, 50, 66
1, 653916, Note_on_c, 0, 62, 75
1, 653930, Note_on_c, 0, 38, 45
1, 653939, Control_c, 0, 67, 12
1, 653940, Note_off_c, 0, 62, 67
1, 653944, Note_off_c, 0, 50, 68
1, 653960, Note_off_c, 0, 38, 53
1, 654035, Note_on_c, 0, 52, 69
1, 654041, Note_on_c, 0, 64, 69
1, 654044, Note_on_c, 0, 40, 60
1, 654060, Note_off_c, 0, 52, 65
1, 654065, Note_off_c, 0, 64, 69
1, 654072, Control_c, 0, 67, 11
1, 654077, Note_off_c, 0, 40, 64
1, 654176, Note_on_c, 0, 47, 70
1, 654183, Note_on_c, 0, 59, 63
1, 654187, Note_on_c, 0, 35, 53
1, 654208, Note_off_c, 0, 47, 66
1, 654208, Note_off_c, 0, 59, 65
1, 654216, Note_off_c, 0, 35, 56
1, 654310, Control_c, 0, 67, 11
1, 654347, Control_c, 0, 67, 10
1, 654362, Control_c, 0, 67, 10
1, 654377, Control_c, 0, 67, 9
1, 654406, Control_c, 0, 67, 9
1, 654539, Control_c, 0, 67, 9
1, 654648, Note_on_c, 0, 83, 75
1, 654656, Note_on_c, 0, 79, 67
1, 654657, Note_on_c, 0, 64, 54
1, 654673, Control_c, 0, 67, 8
1, 654679, Note_off_c, 0, 79, 68
1, 654688, Control_c, 0, 67, 0
1, 654689, Note_off_c, 0, 64, 66
1, 654690, Note_off_c, 0, 83, 63
1, 654774, Note_on_c, 0, 81, 77
1, 654780, Note_on_c, 0, 66, 68
1, 654787, Note_on_c, 0, 78, 59
1, 654801, Note_off_c, 0, 81, 62
1, 654805, Note_off_c, 0, 66, 68
1, 654807, Note_off_c, 0, 78, 66
1, 654898, Note_on_c, 0, 67, 69
1, 654905, Note_on_c, 0, 79, 79
1, 654922, Note_off_c, 0, 67, 67
1, 654927, Note_on_c, 0, 76, 38
1, 654940, Note_off_c, 0, 79, 63
1, 654958, Note_off_c, 0, 76, 50
1, 655041, Note_on_c, 0, 88, 82
1, 655056, Note_on_c, 0, 59, 57
1, 655073, Note_on_c, 0, 79, 37
1, 655076, Note_off_c, 0, 88, 63
1, 655090, Note_off_c, 0, 59, 64
1, 655095, Control_c, 0, 64, 45
1, 655104, Note_off_c, 0, 79, 55
1, 655110, Control_c, 0, 64, 0
1, 655436, Note_on_c, 0, 60, 101
1, 655443, Note_on_c, 0, 36, 89
1, 655446, Note_on_c, 0, 43, 94
1, 655466, Control_c, 0, 64, 55
1, 655472, Note_off_c, 0, 60, 71
1, 655480, Control_c, 0, 64, 74
1, 655493, Note_on_c, 0, 37, 20
1, 655494, Note_off_c, 0, 37, 127
1, 655495, Control_c, 0, 64, 82
1, 655496, Note_off_c, 0, 43, 62
1, 655510, Control_c, 0, 64, 88
1, 655525, Control_c, 0, 64, 90
1, 655530, Note_off_c, 0, 36, 60
1, 655540, Control_c, 0, 64, 90
1, 655542, Poly_aftertouch_c, 0, 37, 0
1, 655553, Poly_aftertouch_c, 0, 35, 0
1, 655579, Note_on_c, 0, 31, 77
1, 655588, Note_on_c, 0, 55, 77
1, 655618, Note_on_c, 0, 60, 83
1, 655630, Note_off_c, 0, 55, 63
1, 655636, Note_on_c, 0, 43, 82
1, 655636, Note_off_c, 0, 31, 60
1, 655640, Note_on_c, 0, 36, 71
1, 655661, Note_off_c, 0, 60, 69
1, 655674, Note_on_c, 0, 37, 29
1, 655689, Note_on_c, 0, 55, 96
1, 655697, Note_off_c, 0, 43, 63
1, 655714, Note_on_c, 0, 31, 74
1, 655714, Note_off_c, 0, 37, 52
1, 655716, Note_off_c, 0, 36, 62
1, 655730, Note_off_c, 0, 55, 66
1, 655752, Note_off_c, 0, 31, 59
1, 655808, Control_c, 0, 64, 89
1, 655822, Note_on_c, 0, 36, 82
1, 655824, Note_on_c, 0, 43, 83
1, 655825, Note_on_c, 0, 60, 102
1, 655829, Control_c, 0, 64, 82
1, 655844, Note_on_c, 0, 37, 51
1, 655844, Control_c, 0, 64, 60
1, 655857, Note_off_c, 0, 60, 69
1, 655859, Control_c, 0, 64, 0
1, 655860, Note_off_c, 0, 43, 60
1, 655863, Note_off_c, 0, 36, 54
1, 655880, Note_off_c, 0, 37, 33
1, 655955, Note_on_c, 0, 55, 92
1, 655966, Note_on_c, 0, 31, 66
1, 655994, Note_off_c, 0, 55, 65
1, 656059, Note_off_c, 0, 31, 63
1, 656059, Note_on_c, 0, 36, 73
1, 656066, Note_on_c, 0, 43, 80
1, 656068, Note_on_c, 0, 60, 84
1, 656092, Note_off_c, 0, 36, 63
1, 656095, Note_off_c, 0, 60, 66
1, 656097, Note_off_c, 0, 43, 67
1, 656197, Note_on_c, 0, 76, 107
1, 656198, Note_on_c, 0, 48, 77
1, 656199, Note_on_c, 0, 55, 85
1, 656204, Note_on_c, 0, 72, 91
1, 656220, Note_off_c, 0, 72, 73
1, 656226, Note_off_c, 0, 55, 63
1, 656230, Control_c, 0, 64, 47
1, 656234, Note_off_c, 0, 76, 65
1, 656245, Control_c, 0, 64, 62
1, 656249, Note_off_c, 0, 48, 58
1, 656260, Control_c, 0, 64, 66
1, 656275, Control_c, 0, 64, 69
1, 656289, Control_c, 0, 64, 71
1, 656304, Control_c, 0, 64, 72
1, 656319, Control_c, 0, 64, 73
1, 656322, Note_on_c, 0, 43, 76
1, 656334, Control_c, 0, 64, 74
1, 656340, Note_on_c, 0, 74, 97
1, 656354, Note_on_c, 0, 71, 65
1, 656358, Note_on_c, 0, 76, 74
1, 656369, Note_on_c, 0, 48, 79
1, 656371, Note_off_c, 0, 71, 66
1, 656375, Note_on_c, 0, 55, 87
1, 656380, Note_on_c, 0, 72, 50
1, 656380, Note_off_c, 0, 43, 63
1, 656389, Note_off_c, 0, 74, 67
1, 656402, Note_off_c, 0, 72, 59
1, 656426, Note_off_c, 0, 55, 61
1, 656431, Note_on_c, 0, 71, 85
1, 656433, Note_on_c, 0, 74, 83
1, 656434, Note_on_c, 0, 43, 81
1, 656445, Note_off_c, 0, 48, 65
1, 656458, Note_off_c, 0, 76, 63
1, 656467, Control_c, 0, 64, 73
1, 656468, Note_off_c, 0, 71, 67
1, 656472, Note_off_c, 0, 74, 67
1, 656482, Control_c, 0, 64, 70
1, 656498, Control_c, 0, 64, 62
1, 656513, Control_c, 0, 64, 0
1, 656548, Note_off_c, 0, 43, 59
1, 656550, Note_on_c, 0, 48, 80
1, 656555, Note_on_c, 0, 55, 87
1, 656572, Note_on_c, 0, 76, 98
1, 656573, Note_on_c, 0, 49, 66
1, 656573, Note_on_c, 0, 72, 96
1, 656594, Note_off_c, 0, 55, 65
1, 656595, Control_c, 0, 64, 54
1, 656597, Note_off_c, 0, 72, 68
1, 656598, Note_off_c, 0, 49, 58
1, 656609, Control_c, 0, 64, 64
1, 656614, Note_off_c, 0, 76, 64
1, 656624, Note_off_c, 0, 48, 61
1, 656624, Control_c, 0, 64, 60
1, 656639, Control_c, 0, 64, 0
1, 656675, Note_on_c, 0, 43, 74
1, 656695, Note_on_c, 0, 74, 97
1, 656696, Note_on_c, 0, 71, 97
1, 656734, Note_off_c, 0, 74, 66
1, 656737, Note_off_c, 0, 71, 65
1, 656789, Note_on_c, 0, 48, 86
1, 656791, Note_off_c, 0, 43, 64
1, 656792, Note_on_c, 0, 55, 87
1, 656808, Note_on_c, 0, 76, 98
1, 656811, Note_on_c, 0, 72, 92
1, 656828, Note_off_c, 0, 48, 61
1, 656832, Note_off_c, 0, 55, 65
1, 656846, Note_off_c, 0, 72, 65
1, 656856, Note_off_c, 0, 76, 66
1, 656928, Note_on_c, 0, 60, 95
1, 656932, Note_on_c, 0, 48, 91
1, 656933, Note_on_c, 0, 79, 96
1, 656936, Note_on_c, 0, 67, 93
1, 656938, Note_on_c, 0, 76, 88
1, 656956, Note_off_c, 0, 67, 67
1, 656965, Note_off_c, 0, 60, 65
1, 656971, Note_off_c, 0, 48, 59
1, 656977, Note_off_c, 0, 76, 62
1, 656994, Note_off_c, 0, 79, 63
1, 657024, Control_c, 0, 64, 39
1, 657038, Control_c, 0, 64, 26
1, 657046, Note_on_c, 0, 79, 86
1, 657051, Note_on_c, 0, 59, 94
1, 657053, Control_c, 0, 64, 0
1, 657056, Note_on_c, 0, 47, 94
1, 657058, Note_on_c, 0, 76, 81
1, 657075, Note_on_c, 0, 67, 89
1, 657084, Note_off_c, 0, 47, 64
1, 657091, Note_off_c, 0, 59, 64
1, 657110, Note_off_c, 0, 79, 62
1, 657117, Note_off_c, 0, 76, 62
1, 657133, Note_off_c, 0, 67, 62
1, 657142, Control_c, 0, 64, 49
1, 657157, Control_c, 0, 64, 60
1, 657171, Control_c, 0, 64, 61
1, 657173, Note_on_c, 0, 58, 101
1, 657174, Note_on_c, 0, 79, 91
1, 657177, Note_on_c, 0, 46, 89
1, 657186, Control_c, 0, 64, 46
1, 657201, Control_c, 0, 64, 0
1, 657207, Note_on_c, 0, 67, 52
1, 657218, Note_off_c, 0, 58, 64
1, 657229, Note_off_c, 0, 67, 61
1, 657233, Note_off_c, 0, 79, 63
1, 657240, Note_off_c, 0, 46, 57
1, 657296, Note_on_c, 0, 59, 94
1, 657304, Note_on_c, 0, 47, 88
1, 657305, Note_on_c, 0, 67, 87
1, 657308, Note_on_c, 0, 79, 100
1, 657331, Note_off_c, 0, 59, 60
1, 657344, Note_off_c, 0, 67, 65
1, 657344, Note_off_c, 0, 47, 67
1, 657347, Note_off_c, 0, 79, 65
1, 657430, Note_on_c, 0, 66, 91
1, 657431, Note_on_c, 0, 78, 88
1, 657433, Note_on_c, 0, 74, 86
1, 657465, Note_off_c, 0, 66, 58
1, 657470, Note_off_c, 0, 74, 63
1, 657490, Note_off_c, 0, 78, 64
1, 657554, Note_on_c, 0, 64, 90
1, 657557, Note_on_c, 0, 77, 82
1, 657560, Note_on_c, 0, 40, 81
1, 657563, Note_on_c, 0, 52, 71
1, 657564, Note_on_c, 0, 73, 66
1, 657572, Note_on_c, 0, 76, 71
1, 657582, Note_off_c, 0, 64, 58
1, 657588, Note_off_c, 0, 40, 66
1, 657590, Note_off_c, 0, 73, 56
1, 657591, Note_off_c, 0, 52, 64
1, 657597, Note_off_c, 0, 77, 64
1, 657601, Note_off_c, 0, 76, 51
1, 657610, Note_on_c, 0, 65, 6
1, 657611, Note_off_c, 0, 65, 127
1, 657683, Control_c, 0, 64, 67
1, 657685, Note_on_c, 0, 54, 92
1, 657687, Note_on_c, 0, 62, 96
1, 657688, Note_on_c, 0, 42, 87
1, 657689, Note_on_c, 0, 74, 92
1, 657698, Control_c, 0, 64, 71
1, 657701, Note_on_c, 0, 71, 74
1, 657704, Note_off_c, 0, 54, 74
1, 657712, Note_off_c, 0, 62, 66
1, 657713, Control_c, 0, 64, 67
1, 657717, Note_off_c, 0, 42, 65
1, 657725, Note_off_c, 0, 71, 70
1, 657728, Control_c, 0, 64, 0
1, 657731, Note_off_c, 0, 74, 65
1, 658177, Note_on_c, 0, 42, 88
1, 658177, Note_on_c, 0, 73, 95
1, 658179, Note_on_c, 0, 30, 81
1, 658181, Note_on_c, 0, 61, 87
1, 658191, Note_on_c, 0, 70, 70
1, 658196, Control_c, 0, 64, 52
1, 658201, Note_off_c, 0, 61, 70
1, 658205, Note_off_c, 0, 42, 67
1, 658211, Control_c, 0, 64, 79
1, 658213, Note_off_c, 0, 30, 65
1, 658214, Note_off_c, 0, 73, 63
1, 658216, Note_off_c, 0, 70, 68
1, 658225, Control_c, 0, 64, 93
1, 658240, Control_c, 0, 64, 97
1, 658270, Control_c, 0, 64, 93
1, 658285, Control_c, 0, 64, 78
1, 658299, Control_c, 0, 64, 0
1, 658620, Note_on_c, 0, 35, 64
1, 658672, Note_on_c, 0, 47, 83
1, 658684, Note_off_c, 0, 35, 64
1, 658709, Note_off_c, 0, 47, 63
1, 658793, Note_on_c, 0, 59, 96
1, 658800, Note_on_c, 0, 91, 106
1, 658803, Control_c, 0, 64, 71
1, 658805, Note_on_c, 0, 79, 91
1, 658819, Note_off_c, 0, 59, 67
1, 658825, Control_c, 0, 64, 87
1, 658840, Control_c, 0, 64, 101
1, 658840, Note_off_c, 0, 79, 63
1, 658855, Control_c, 0, 64, 113
1, 658869, Note_on_c, 0, 93, 87
1, 658870, Control_c, 0, 64, 127
1, 658876, Note_off_c, 0, 91, 65
1, 658915, Note_off_c, 0, 93, 57
1, 658944, Note_on_c, 0, 91, 93
1, 658947, Note_on_c, 0, 79, 88
1, 658955, Note_on_c, 0, 61, 80
1, 658959, Note_on_c, 0, 49, 75
1, 658977, Note_off_c, 0, 61, 68
1, 658980, Note_off_c, 0, 79, 58
1, 658986, Note_off_c, 0, 49, 66
1, 658987, Note_on_c, 0, 89, 31
1, 658988, Note_off_c, 0, 89, 127
1, 659009, Note_on_c, 0, 93, 92
1, 659010, Note_off_c, 0, 91, 68
1, 659059, Note_off_c, 0, 93, 58
1, 659070, Note_on_c, 0, 91, 91
1, 659071, Note_on_c, 0, 62, 88
1, 659073, Note_on_c, 0, 50, 81
1, 659076, Note_on_c, 0, 79, 91
1, 659095, Note_off_c, 0, 62, 66
1, 659100, Note_off_c, 0, 50, 71
1, 659109, Note_off_c, 0, 79, 62
1, 659142, Note_on_c, 0, 93, 93
1, 659144, Note_off_c, 0, 91, 68
1, 659170, Note_off_c, 0, 93, 57
1, 659195, Note_on_c, 0, 58, 101
1, 659203, Note_on_c, 0, 46, 79
1, 659203, Note_on_c, 0, 91, 87
1, 659206, Note_on_c, 0, 79, 96
1, 659211, Control_c, 0, 64, 88
1, 659216, Note_off_c, 0, 58, 63
1, 659226, Control_c, 0, 64, 0
1, 659227, Note_off_c, 0, 46, 65
1, 659241, Note_off_c, 0, 79, 63
1, 659272, Note_on_c, 0, 93, 95
1, 659275, Note_off_c, 0, 91, 68
1, 659320, Note_off_c, 0, 93, 41
1, 659334, Note_on_c, 0, 91, 78
1, 659338, Note_on_c, 0, 79, 83
1, 659359, Note_off_c, 0, 79, 68
1, 659399, Note_on_c, 0, 93, 90
1, 659400, Note_off_c, 0, 91, 60
1, 659425, Note_off_c, 0, 93, 58
1, 659475, Note_on_c, 0, 79, 72
1, 659478, Note_on_c, 0, 91, 61
1, 659497, Note_off_c, 0, 79, 69
1, 659525, Note_on_c, 0, 93, 88
1, 659541, Note_off_c, 0, 91, 52
1, 659555, Note_off_c, 0, 93, 60
1, 659606, Note_on_c, 0, 67, 92
1, 659610, Note_on_c, 0, 79, 73
1, 659612, Note_on_c, 0, 64, 82
1, 659619, Note_on_c, 0, 91, 59
1, 659628, Note_off_c, 0, 67, 67
1, 659630, Note_off_c, 0, 79, 70
1, 659634, Note_off_c, 0, 64, 72
1, 659662, Note_on_c, 0, 93, 82
1, 659669, Note_off_c, 0, 91, 65
1, 659717, Note_off_c, 0, 93, 42
1, 659729, Note_on_c, 0, 79, 78
1, 659734, Note_on_c, 0, 66, 87
1, 659736, Note_on_c, 0, 91, 65
1, 659752, Note_on_c, 0, 62, 55
1, 659753, Note_off_c, 0, 79, 66
1, 659782, Note_off_c, 0, 62, 63
1, 659784, Note_off_c, 0, 66, 61
1, 659805, Note_off_c, 0, 91, 61
1, 659812, Note_on_c, 0, 93, 64
1, 659832, Note_off_c, 0, 93, 65
1, 659865, Note_on_c, 0, 64, 74
1, 659874, Note_on_c, 0, 79, 73
1, 659876, Note_on_c, 0, 61, 55
1, 659893, Note_on_c, 0, 91, 28
1, 659893, Note_off_c, 0, 64, 66
1, 659894, Note_on_c, 0, 60, 52
1, 659898, Note_off_c, 0, 79, 66
1, 659902, Note_off_c, 0, 61, 58
1, 659919, Note_off_c, 0, 60, 60
1, 659942, Note_on_c, 0, 93, 69
1, 659946, Note_off_c, 0, 91, 53
1, 659970, Note_on_c, 0, 58, 75
1, 659973, Note_off_c, 0, 93, 61
1, 659976, Note_on_c, 0, 64, 73
1, 659997, Note_off_c, 0, 58, 68
1, 660009, Note_on_c, 0, 73, 95
1, 660019, Control_c, 0, 64, 52
1, 660021, Note_on_c, 0, 79, 72
1, 660023, Note_on_c, 0, 91, 77
1, 660034, Control_c, 0, 64, 68
1, 660038, Note_off_c, 0, 73, 62
1, 660044, Note_off_c, 0, 79, 66
1, 660047, Note_off_c, 0, 64, 65
1, 660049, Control_c, 0, 64, 71
1, 660063, Control_c, 0, 64, 73
1, 660078, Control_c, 0, 64, 74
1, 660085, Note_on_c, 0, 93, 78
1, 660089, Note_off_c, 0, 91, 62
1, 660093, Control_c, 0, 64, 74
1, 660123, Control_c, 0, 64, 72
1, 660130, Note_off_c, 0, 93, 56
1, 660137, Control_c, 0, 64, 68
1, 660152, Control_c, 0, 64, 60
1, 660167, Control_c, 0, 64, 0
1, 660168, Note_on_c, 0, 91, 62
1, 660169, Note_on_c, 0, 79, 69
1, 660190, Note_off_c, 0, 79, 65
1, 660226, Note_on_c, 0, 93, 80
1, 660228, Note_off_c, 0, 91, 64
1, 660269, Note_off_c, 0, 93, 56
1, 660301, Note_on_c, 0, 79, 65
1, 660313, Note_on_c, 0, 91, 63
1, 660334, Note_off_c, 0, 79, 67
1, 660371, Note_on_c, 0, 93, 82
1, 660372, Note_off_c, 0, 91, 65
1, 660397, Note_off_c, 0, 93, 62
1, 660426, Note_on_c, 0, 61, 96
1, 660427, Note_on_c, 0, 49, 84
1, 660441, Note_on_c, 0, 79, 80
1, 660445, Note_off_c, 0, 61, 70
1, 660448, Note_on_c, 0, 91, 65
1, 660454, Note_off_c, 0, 49, 69
1, 660463, Note_off_c, 0, 79, 66
1, 660504, Note_on_c, 0, 93, 84
1, 660521, Note_off_c, 0, 91, 50
1, 660536, Note_off_c, 0, 93, 58
1, 660560, Note_on_c, 0, 50, 82
1, 660568, Note_on_c, 0, 91, 59
1, 660570, Note_on_c, 0, 62, 71
1, 660572, Note_on_c, 0, 79, 79
1, 660586, Note_off_c, 0, 50, 72
1, 660592, Note_off_c, 0, 79, 68
1, 660596, Note_off_c, 0, 62, 67
1, 660630, Note_on_c, 0, 93, 84
1, 660637, Note_off_c, 0, 91, 65
1, 660658, Note_off_c, 0, 93, 60
1, 660695, Note_on_c, 0, 64, 90
1, 660698, Note_on_c, 0, 79, 84
1, 660698, Note_on_c, 0, 91, 73
1, 660701, Note_on_c, 0, 52, 84
1, 660721, Note_off_c, 0, 64, 65
1, 660722, Note_off_c, 0, 79, 66
1, 660728, Note_off_c, 0, 52, 68
1, 660763, Note_on_c, 0, 93, 85
1, 660771, Note_off_c, 0, 91, 66
1, 660804, Note_off_c, 0, 93, 63
1, 660826, Note_on_c, 0, 59, 92
1, 660835, Note_on_c, 0, 47, 78
1, 660835, Note_on_c, 0, 79, 82
1, 660837, Note_on_c, 0, 91, 72
1, 660844, Note_off_c, 0, 59, 70
1, 660857, Note_off_c, 0, 79, 68
1, 660864, Note_off_c, 0, 47, 66
1, 660903, Note_off_c, 0, 91, 65
1, 660904, Note_on_c, 0, 93, 81
1, 660920, Note_off_c, 0, 93, 69
1, 660965, Note_on_c, 0, 91, 69
1, 660968, Note_on_c, 0, 79, 71
1, 660991, Note_off_c, 0, 79, 69
1, 661022, Note_on_c, 0, 93, 76
1, 661030, Note_off_c, 0, 91, 66
1, 661053, Note_off_c, 0, 93, 59
1, 661095, Note_on_c, 0, 91, 74
1, 661100, Note_on_c, 0, 79, 72
1, 661121, Note_off_c, 0, 79, 70
1, 661156, Note_on_c, 0, 93, 86
1, 661166, Note_off_c, 0, 91, 64
1, 661198, Note_off_c, 0, 93, 61
1, 661230, Note_on_c, 0, 91, 71
1, 661232, Note_on_c, 0, 71, 92
1, 661234, Note_on_c, 0, 79, 75
1, 661237, Note_on_c, 0, 67, 84
1, 661255, Note_off_c, 0, 79, 69
1, 661261, Note_off_c, 0, 71, 65
1, 661265, Note_off_c, 0, 67, 61
1, 661298, Note_off_c, 0, 91, 64
1, 661301, Note_on_c, 0, 93, 78
1, 661326, Note_off_c, 0, 93, 62
1, 661362, Note_on_c, 0, 79, 80
1, 661364, Note_on_c, 0, 91, 69
1, 661367, Note_on_c, 0, 69, 78
1, 661371, Note_on_c, 0, 66, 72
1, 661384, Note_off_c, 0, 79, 66
1, 661392, Note_off_c, 0, 69, 63
1, 661396, Note_off_c, 0, 66, 63
1, 661435, Note_off_c, 0, 91, 63
1, 661436, Note_on_c, 0, 93, 71
1, 661464, Note_on_c, 0, 64, 77
1, 661493, Note_on_c, 0, 91, 73
1, 661493, Note_off_c, 0, 93, 38
1, 661497, Note_on_c, 0, 79, 83
1, 661499, Note_on_c, 0, 67, 76
1, 661515, Note_off_c, 0, 64, 63
1, 661527, Note_off_c, 0, 79, 60
1, 661561, Note_off_c, 0, 67, 61
1, 661569, Note_on_c, 0, 93, 84
1, 661571, Note_on_c, 0, 59, 82
1, 661571, Note_off_c, 0, 91, 64
1, 661591, Note_on_c, 0, 67, 66
1, 661606, Note_off_c, 0, 59, 62
1, 661621, Note_off_c, 0, 93, 56
1, 661630, Note_on_c, 0, 91, 79
1, 661635, Note_on_c, 0, 79, 88
1, 661642, Note_on_c, 0, 76, 99
1, 661650, Control_c, 0, 64, 27
1, 661663, Note_off_c, 0, 76, 65
1, 661665, Control_c, 0, 64, 68
1, 661670, Note_off_c, 0, 79, 61
1, 661681, Control_c, 0, 64, 74
1, 661683, Note_off_c, 0, 67, 64
1, 661687, Note_on_c, 0, 68, 9
1, 661688, Note_off_c, 0, 68, 127
1, 661696, Control_c, 0, 64, 78
1, 661709, Note_on_c, 0, 93, 86
1, 661710, Control_c, 0, 64, 81
1, 661713, Note_off_c, 0, 91, 64
1, 661725, Control_c, 0, 64, 83
1, 661743, Note_off_c, 0, 93, 59
1, 661754, Control_c, 0, 64, 82
1, 661769, Control_c, 0, 64, 75
1, 661773, Note_on_c, 0, 91, 74
1, 661781, Note_on_c, 0, 79, 76
1, 661784, Control_c, 0, 64, 49
1, 661799, Control_c, 0, 64, 0
1, 661800, Note_off_c, 0, 79, 69
1, 661848, Note_on_c, 0, 93, 83
1, 661851, Note_off_c, 0, 91, 65
1, 661882, Note_off_c, 0, 93, 56
1, 661911, Note_on_c, 0, 91, 76
1, 661917, Note_on_c, 0, 79, 73
1, 661938, Note_off_c, 0, 79, 69
1, 661970, Note_on_c, 0, 93, 93
1, 661977, Note_off_c, 0, 91, 66
1, 662008, Note_off_c, 0, 93, 65
1, 662033, Note_on_c, 0, 60, 97
1, 662036, Note_on_c, 0, 91, 94
1, 662036, Note_on_c, 0, 79, 96
1, 662037, Note_on_c, 0, 52, 82
1, 662039, Note_on_c, 0, 55, 86
1, 662044, Note_on_c, 0, 48, 78
1, 662064, Note_off_c, 0, 60, 63
1, 662065, Note_off_c, 0, 55, 67
1, 662067, Note_off_c, 0, 79, 67
1, 662073, Control_c, 0, 64, 55
1, 662075, Note_off_c, 0, 52, 62
1, 662085, Note_off_c, 0, 48, 61
1, 662089, Control_c, 0, 64, 76
1, 662104, Control_c, 0, 64, 84
1, 662104, Note_on_c, 0, 93, 90
1, 662110, Note_off_c, 0, 91, 66
1, 662119, Control_c, 0, 64, 95
1, 662134, Control_c, 0, 64, 98
1, 662148, Control_c, 0, 64, 102
1, 662163, Note_off_c, 0, 93, 63
1, 662163, Control_c, 0, 64, 104
1, 662173, Note_on_c, 0, 91, 75
1, 662174, Note_on_c, 0, 79, 82
1, 662178, Control_c, 0, 64, 105
1, 662182, Note_on_c, 0, 51, 67
1, 662182, Note_on_c, 0, 43, 82
1, 662192, Control_c, 0, 64, 106
1, 662209, Note_off_c, 0, 79, 59
1, 662214, Note_off_c, 0, 51, 64
1, 662223, Note_on_c, 0, 48, 62
1, 662226, Note_on_c, 0, 52, 78
1, 662231, Note_on_c, 0, 55, 87
1, 662232, Note_off_c, 0, 43, 64
1, 662237, Control_c, 0, 64, 106
1, 662244, Note_on_c, 0, 93, 90
1, 662252, Note_off_c, 0, 91, 66
1, 662273, Note_off_c, 0, 55, 63
1, 662283, Note_off_c, 0, 93, 63
1, 662295, Note_on_c, 0, 43, 83
1, 662295, Note_off_c, 0, 52, 59
1, 662296, Control_c, 0, 64, 106
1, 662305, Note_on_c, 0, 91, 80
1, 662305, Note_off_c, 0, 48, 63
1, 662307, Note_on_c, 0, 79, 93
1, 662326, Control_c, 0, 64, 105
1, 662337, Note_off_c, 0, 79, 61
1, 662339, Note_off_c, 0, 43, 64
1, 662340, Control_c, 0, 64, 99
1, 662355, Control_c, 0, 64, 86
1, 662370, Control_c, 0, 64, 66
1, 662373, Note_on_c, 0, 93, 86
1, 662379, Note_off_c, 0, 91, 66
1, 662384, Control_c, 0, 64, 0
1, 662415, Note_on_c, 0, 55, 88
1, 662417, Note_on_c, 0, 48, 78
1, 662418, Note_on_c, 0, 52, 82
1, 662418, Note_off_c, 0, 93, 42
1, 662429, Note_on_c, 0, 91, 78
1, 662430, Note_on_c, 0, 79, 93
1, 662441, Note_off_c, 0, 55, 67
1, 662449, Note_off_c, 0, 52, 66
1, 662457, Note_off_c, 0, 79, 63
1, 662459, Note_off_c, 0, 48, 61
1, 662501, Note_on_c, 0, 93, 84
1, 662502, Note_off_c, 0, 91, 66
1, 662566, Note_on_c, 0, 79, 91
1, 662570, Note_on_c, 0, 51, 72
1, 662572, Note_on_c, 0, 43, 70
1, 662573, Note_on_c, 0, 91, 69
1, 662573, Note_off_c, 0, 93, 45
1, 662597, Note_off_c, 0, 79, 62
1, 662602, Note_off_c, 0, 51, 60
1, 662623, Note_off_c, 0, 43, 57
1, 662647, Note_on_c, 0, 93, 73
1, 662649, Note_off_c, 0, 91, 66
1, 662681, Note_off_c, 0, 93, 0
1, 662682, Note_on_c, 0, 48, 68
1, 662685, Note_on_c, 0, 55, 94
1, 662691, Note_on_c, 0, 79, 96
1, 662705, Note_on_c, 0, 91, 64
1, 662705, Note_off_c, 0, 48, 63
1, 662707, Note_on_c, 0, 52, 39
1, 662708, Note_off_c, 0, 52, 127
1, 662709, Note_off_c, 0, 55, 68
1, 662721, Note_off_c, 0, 79, 65
1, 662754, Poly_aftertouch_c, 0, 93, 0
1, 662771, Note_off_c, 0, 91, 65
1, 662814, Note_on_c, 0, 88, 94
1, 662817, Note_on_c, 0, 84, 85
1, 662825, Note_on_c, 0, 76, 81
1, 662826, Note_on_c, 0, 72, 78
1, 662829, Note_on_c, 0, 91, 64
1, 662846, Note_off_c, 0, 72, 72
1, 662851, Note_off_c, 0, 76, 64
1, 662854, Note_off_c, 0, 84, 65
1, 662873, Note_off_c, 0, 88, 65
1, 662877, Note_on_c, 0, 93, 84
1, 662894, Note_off_c, 0, 91, 66
1, 662953, Note_on_c, 0, 83, 91
1, 662955, Note_on_c, 0, 86, 87
1, 662957, Note_on_c, 0, 74, 80
1, 662958, Note_on_c, 0, 67, 76
1, 662958, Note_on_c, 0, 91, 69
1, 662963, Note_off_c, 0, 93, 64
1, 662986, Note_off_c, 0, 83, 64
1, 663000, Note_off_c, 0, 67, 61
1, 663002, Note_off_c, 0, 86, 67
1, 663003, Note_off_c, 0, 74, 64
1, 663004, Note_on_c, 0, 93, 62
1, 663022, Note_on_c, 0, 76, 81
1, 663032, Note_off_c, 0, 91, 66
1, 663073, Note_on_c, 0, 86, 93
1, 663073, Note_on_c, 0, 83, 94
1, 663079, Note_on_c, 0, 91, 68
1, 663081, Note_on_c, 0, 74, 85
1, 663083, Note_on_c, 0, 67, 74
1, 663086, Note_off_c, 0, 76, 64
1, 663105, Note_off_c, 0, 83, 65
1, 663109, Note_off_c, 0, 67, 64
1, 663117, Note_off_c, 0, 86, 67
1, 663125, Note_off_c, 0, 74, 66
1, 663127, Note_off_c, 0, 93, 0
1, 663127, Note_on_c, 0, 93, 35
1, 663151, Note_off_c, 0, 91, 66
1, 663162, Note_off_c, 0, 93, 64
1, 663198, Note_on_c, 0, 88, 90
1, 663201, Note_on_c, 0, 76, 88
1, 663201, Note_on_c, 0, 84, 92
1, 663201, Note_on_c, 0, 91, 67
1, 663203, Note_on_c, 0, 72, 78
1, 663231, Note_off_c, 0, 84, 66
1, 663234, Note_off_c, 0, 76, 62
1, 663235, Note_off_c, 0, 72, 61
1, 663248, Note_off_c, 0, 88, 64
1, 663267, Note_off_c, 0, 91, 66
1, 663273, Note_on_c, 0, 93, 67
1, 663333, Note_on_c, 0, 86, 93
1, 663335, Note_on_c, 0, 83, 87
1, 663338, Note_on_c, 0, 74, 86
1, 663345, Note_on_c, 0, 91, 72
1, 663347, Note_on_c, 0, 67, 68
1, 663349, Note_off_c, 0, 93, 30
1, 663362, Note_off_c, 0, 83, 63
1, 663376, Note_off_c, 0, 67, 63
1, 663380, Note_off_c, 0, 86, 66
1, 663386, Note_on_c, 0, 93, 57
1, 663386, Note_off_c, 0, 74, 60
1, 663411, Note_off_c, 0, 91, 65
1, 663458, Note_on_c, 0, 76, 73
1, 663458, Note_on_c, 0, 84, 84
1, 663459, Note_on_c, 0, 72, 72
1, 663461, Note_on_c, 0, 88, 88
1, 663461, Note_on_c, 0, 91, 64
1, 663472, Note_off_c, 0, 93, 34
1, 663480, Note_off_c, 0, 72, 71
1, 663480, Note_off_c, 0, 76, 68
1, 663485, Note_off_c, 0, 84, 64
1, 663511, Note_off_c, 0, 88, 65
1, 663514, Note_on_c, 0, 93, 75
1, 663526, Control_c, 0, 64, 41
1, 663536, Note_off_c, 0, 91, 64
1, 663541, Control_c, 0, 64, 58
1, 663556, Control_c, 0, 64, 50
1, 663571, Note_off_c, 0, 93, 64
1, 663571, Control_c, 0, 64, 42
1, 663576, Poly_aftertouch_c, 0, 91, 0
1, 663583, Note_on_c, 0, 91, 73
1, 663586, Note_on_c, 0, 79, 97
1, 663586, Control_c, 0, 64, 38
1, 663589, Note_on_c, 0, 88, 83
1, 663596, Note_on_c, 0, 60, 84
1, 663598, Note_on_c, 0, 48, 87
1, 663601, Control_c, 0, 64, 41
1, 663615, Control_c, 0, 64, 51
1, 663617, Note_off_c, 0, 79, 65
1, 663618, Note_off_c, 0, 60, 69
1, 663623, Note_off_c, 0, 48, 68
1, 663630, Control_c, 0, 64, 59
1, 663642, Note_off_c, 0, 88, 64
1, 663645, Control_c, 0, 64, 63
1, 663653, Note_on_c, 0, 93, 83
1, 663660, Control_c, 0, 64, 66
1, 663671, Note_off_c, 0, 91, 66
1, 663690, Control_c, 0, 64, 64
1, 663705, Control_c, 0, 64, 60
1, 663715, Note_on_c, 0, 79, 99
1, 663720, Note_on_c, 0, 91, 78
1, 663720, Control_c, 0, 64, 53
1, 663727, Note_on_c, 0, 88, 79
1, 663729, Note_on_c, 0, 59, 86
1, 663730, Note_on_c, 0, 47, 83
1, 663734, Note_off_c, 0, 93, 59
1, 663735, Control_c, 0, 64, 59
1, 663750, Control_c, 0, 64, 63
1, 663751, Note_off_c, 0, 79, 65
1, 663756, Note_off_c, 0, 47, 69
1, 663756, Note_off_c, 0, 59, 64
1, 663764, Control_c, 0, 64, 66
1, 663774, Note_on_c, 0, 93, 74
1, 663779, Control_c, 0, 64, 68
1, 663781, Note_off_c, 0, 88, 65
1, 663794, Control_c, 0, 64, 70
1, 663806, Note_off_c, 0, 91, 66
1, 663809, Control_c, 0, 64, 71
1, 663824, Control_c, 0, 64, 70
1, 663837, Note_on_c, 0, 91, 61
1, 663838, Control_c, 0, 64, 66
1, 663842, Note_on_c, 0, 79, 97
1, 663845, Note_on_c, 0, 58, 97
1, 663850, Note_on_c, 0, 46, 88
1, 663853, Control_c, 0, 64, 57
1, 663855, Note_on_c, 0, 88, 66
1, 663863, Note_on_c, 0, 89, 59
1, 663863, Note_off_c, 0, 93, 64
1, 663867, Note_off_c, 0, 79, 63
1, 663868, Control_c, 0, 64, 59
1, 663882, Note_off_c, 0, 89, 62
1, 663883, Control_c, 0, 64, 66
1, 663891, Note_off_c, 0, 58, 63
1, 663896, Note_off_c, 0, 88, 62
1, 663898, Control_c, 0, 64, 71
1, 663909, Note_off_c, 0, 46, 57
1, 663911, Note_off_c, 0, 91, 66
1, 663912, Control_c, 0, 64, 75
1, 663927, Control_c, 0, 64, 79
1, 663942, Control_c, 0, 64, 80
1, 663956, Control_c, 0, 64, 79
1, 663960, Note_on_c, 0, 79, 98
1, 663961, Note_on_c, 0, 87, 66
1, 663964, Note_on_c, 0, 90, 84
1, 663971, Control_c, 0, 64, 72
1, 663973, Note_on_c, 0, 59, 91
1, 663975, Note_on_c, 0, 88, 78
1, 663979, Note_on_c, 0, 47, 88
1, 663982, Note_off_c, 0, 87, 62
1, 663985, Note_on_c, 0, 91, 68
1, 663986, Control_c, 0, 64, 42
1, 663994, Note_off_c, 0, 79, 62
1, 664001, Control_c, 0, 64, 0
1, 664012, Note_off_c, 0, 88, 61
1, 664017, Note_off_c, 0, 59, 65
1, 664017, Note_off_c, 0, 90, 47
1, 664033, Note_off_c, 0, 91, 66
1, 664034, Note_off_c, 0, 47, 65
1, 664045, Control_c, 0, 64, 48
1, 664068, Control_c, 0, 64, 63
1, 664083, Control_c, 0, 64, 67
1, 664097, Note_on_c, 0, 78, 93
1, 664098, Control_c, 0, 64, 68
1, 664102, Note_on_c, 0, 90, 64
1, 664107, Note_on_c, 0, 87, 65
1, 664108, Note_on_c, 0, 91, 75
1, 664127, Control_c, 0, 64, 68
1, 664139, Note_off_c, 0, 78, 62
1, 664142, Control_c, 0, 64, 70
1, 664157, Control_c, 0, 64, 73
1, 664164, Note_off_c, 0, 87, 61
1, 664168, Note_off_c, 0, 90, 64
1, 664171, Control_c, 0, 64, 75
1, 664173, Note_off_c, 0, 91, 64
1, 664186, Control_c, 0, 64, 75
1, 664199, Poly_aftertouch_c, 0, 89, 0
1, 664216, Control_c, 0, 64, 74
1, 664221, Note_on_c, 0, 87, 77
1, 664227, Note_on_c, 0, 76, 87
1, 664230, Control_c, 0, 64, 69
1, 664236, Note_on_c, 0, 88, 82
1, 664237, Note_on_c, 0, 52, 86
1, 664241, Note_on_c, 0, 40, 82
1, 664245, Control_c, 0, 64, 0
1, 664257, Note_off_c, 0, 76, 64
1, 664258, Note_on_c, 0, 89, 76
1, 664274, Note_off_c, 0, 40, 68
1, 664279, Note_off_c, 0, 52, 61
1, 664293, Note_off_c, 0, 88, 58
1, 664298, Note_off_c, 0, 87, 61
1, 664308, Note_off_c, 0, 89, 63
1, 664352, Note_on_c, 0, 74, 100
1, 664354, Note_on_c, 0, 54, 93
1, 664355, Note_on_c, 0, 86, 82
1, 664358, Note_on_c, 0, 42, 90
1, 664376, Note_off_c, 0, 54, 71
1, 664388, Note_off_c, 0, 74, 66
1, 664396, Note_off_c, 0, 42, 61
1, 664401, Note_on_c, 0, 88, 77
1, 664423, Note_off_c, 0, 86, 66
1, 664440, Note_off_c, 0, 88, 64
1, 664482, Note_on_c, 0, 74, 96
1, 664494, Note_on_c, 0, 85, 53
1, 664496, Note_on_c, 0, 86, 74
1, 664511, Note_off_c, 0, 74, 67
1, 664517, Note_off_c, 0, 85, 63
1, 664528, Note_on_c, 0, 88, 78
1, 664567, Note_off_c, 0, 88, 65
1, 664579, Note_off_c, 0, 86, 64
1, 664598, Note_on_c, 0, 42, 83
1, 664606, Note_on_c, 0, 73, 95
1, 664608, Note_on_c, 0, 85, 63
1, 664611, Note_on_c, 0, 30, 61
1, 664622, Note_on_c, 0, 84, 79
1, 664626, Note_off_c, 0, 42, 65
1, 664628, Note_off_c, 0, 85, 38
1, 664645, Note_off_c, 0, 30, 62
1, 664651, Note_off_c, 0, 73, 64
1, 664683, Note_on_c, 0, 85, 74
1, 664686, Note_off_c, 0, 84, 63
1, 664706, Note_off_c, 0, 85, 63
1, 664729, Note_on_c, 0, 47, 93
1, 664736, Note_on_c, 0, 35, 82
1, 664747, Note_on_c, 0, 71, 100
1, 664754, Note_on_c, 0, 82, 76
1, 664762, Note_off_c, 0, 47, 65
1, 664762, Note_off_c, 0, 35, 67
1, 664764, Note_on_c, 0, 83, 81
1, 664764, Control_c, 0, 64, 62
1, 664778, Control_c, 0, 64, 70
1, 664779, Note_off_c, 0, 82, 66
1, 664781, Note_off_c, 0, 71, 65
1, 664793, Control_c, 0, 64, 74
1, 664816, Control_c, 0, 64, 78
1, 664830, Note_on_c, 0, 85, 62
1, 664831, Control_c, 0, 64, 84
1, 664845, Note_off_c, 0, 83, 64
1, 664846, Control_c, 0, 64, 89
1, 664860, Control_c, 0, 64, 88
1, 664870, Note_off_c, 0, 85, 56
1, 664875, Control_c, 0, 64, 80
1, 664885, Note_on_c, 0, 71, 99
1, 664890, Control_c, 0, 64, 67
1, 664894, Note_on_c, 0, 82, 73
1, 664902, Note_on_c, 0, 83, 69
1, 664905, Control_c, 0, 64, 38
1, 664912, Note_off_c, 0, 82, 65
1, 664920, Control_c, 0, 64, 61
1, 664921, Note_off_c, 0, 71, 61
1, 664934, Control_c, 0, 64, 67
1, 664949, Control_c, 0, 64, 70
1, 664964, Control_c, 0, 64, 73
1, 664979, Control_c, 0, 64, 77
1, 664993, Control_c, 0, 64, 80
1, 665005, Note_on_c, 0, 71, 87
1, 665005, Note_on_c, 0, 85, 86
1, 665008, Control_c, 0, 64, 82
1, 665023, Control_c, 0, 64, 84
1, 665024, Note_off_c, 0, 71, 73
1, 665038, Control_c, 0, 64, 85
1, 665039, Note_off_c, 0, 83, 62
1, 665053, Control_c, 0, 64, 87
1, 665065, Note_off_c, 0, 85, 64
1, 665067, Control_c, 0, 64, 94
1, 665082, Control_c, 0, 64, 100
1, 665097, Control_c, 0, 64, 101
1, 665112, Control_c, 0, 64, 99
1, 665127, Control_c, 0, 64, 87
1, 665141, Note_on_c, 0, 62, 93
1, 665142, Control_c, 0, 64, 70
1, 665143, Note_on_c, 0, 50, 86
1, 665147, Note_on_c, 0, 83, 96
1, 665149, Note_on_c, 0, 95, 102
1, 665157, Control_c, 0, 64, 0
1, 665165, Note_on_c, 0, 94, 57
1, 665172, Control_c, 0, 64, 62
1, 665180, Note_off_c, 0, 83, 65
1, 665183, Note_off_c, 0, 62, 61
1, 665186, Control_c, 0, 64, 70
1, 665186, Note_off_c, 0, 94, 37
1, 665194, Note_off_c, 0, 50, 63
1, 665201, Control_c, 0, 64, 76
1, 665216, Control_c, 0, 64, 83
1, 665218, Note_off_c, 0, 95, 67
1, 665231, Control_c, 0, 64, 87
1, 665246, Control_c, 0, 64, 86
1, 665260, Control_c, 0, 64, 74
1, 665272, Note_on_c, 0, 83, 100
1, 665272, Note_on_c, 0, 95, 95
1, 665276, Control_c, 0, 64, 59
1, 665279, Note_on_c, 0, 64, 95
1, 665282, Note_on_c, 0, 52, 90
1, 665291, Control_c, 0, 64, 57
1, 665306, Control_c, 0, 64, 68
1, 665309, Note_off_c, 0, 83, 65
1, 665309, Note_off_c, 0, 52, 64
1, 665320, Note_off_c, 0, 64, 66
1, 665321, Control_c, 0, 64, 72
1, 665335, Control_c, 0, 64, 74
1, 665343, Note_off_c, 0, 95, 66
1, 665350, Control_c, 0, 64, 73
1, 665365, Control_c, 0, 64, 69
1, 665380, Control_c, 0, 64, 68
1, 665395, Control_c, 0, 64, 71
1, 665397, Note_on_c, 0, 83, 92
1, 665401, Note_on_c, 0, 95, 91
1, 665404, Note_on_c, 0, 54, 81
1, 665405, Note_on_c, 0, 66, 81
1, 665409, Control_c, 0, 64, 76
1, 665420, Note_off_c, 0, 83, 67
1, 665422, Note_on_c, 0, 94, 45
1, 665424, Control_c, 0, 64, 82
1, 665425, Note_off_c, 0, 54, 67
1, 665425, Note_off_c, 0, 66, 70
1, 665439, Note_on_c, 0, 97, 89
1, 665439, Control_c, 0, 64, 87
1, 665446, Note_off_c, 0, 94, 58
1, 665454, Control_c, 0, 64, 90
1, 665462, Note_off_c, 0, 95, 66
1, 665469, Control_c, 0, 64, 93
1, 665483, Control_c, 0, 64, 94
1, 665502, Note_off_c, 0, 97, 66
1, 665513, Control_c, 0, 64, 92
1, 665519, Note_on_c, 0, 82, 99
1, 665521, Note_on_c, 0, 94, 85
1, 665528, Control_c, 0, 64, 76
1, 665529, Note_on_c, 0, 61, 91
1, 665531, Note_on_c, 0, 49, 83
1, 665543, Control_c, 0, 64, 0
1, 665548, Note_off_c, 0, 61, 71
1, 665548, Note_off_c, 0, 49, 69
1, 665567, Note_off_c, 0, 82, 63
1, 665588, Note_on_c, 0, 96, 85
1, 665599, Note_off_c, 0, 94, 64
1, 665629, Note_off_c, 0, 96, 64
1, 665654, Note_on_c, 0, 82, 99
1, 665665, Note_on_c, 0, 94, 64
1, 665677, Note_off_c, 0, 82, 66
1, 665719, Note_off_c, 0, 94, 66
1, 665722, Note_on_c, 0, 96, 80
1, 665759, Note_off_c, 0, 96, 45
1, 665781, Note_on_c, 0, 82, 86
1, 665785, Note_on_c, 0, 94, 70
1, 665799, Note_off_c, 0, 82, 71
1, 665839, Note_off_c, 0, 94, 64
1, 665845, Note_on_c, 0, 96, 85
1, 665884, Note_off_c, 0, 96, 44
1, 665902, Note_on_c, 0, 82, 95
1, 665905, Note_on_c, 0, 70, 78
1, 665905, Note_on_c, 0, 94, 78
1, 665913, Note_on_c, 0, 67, 69
1, 665923, Note_off_c, 0, 82, 66
1, 665924, Note_off_c, 0, 70, 71
1, 665937, Note_off_c, 0, 67, 67
1, 665970, Note_off_c, 0, 94, 64
1, 665974, Note_on_c, 0, 96, 75
1, 666013, Note_off_c, 0, 96, 44
1, 666030, Note_on_c, 0, 82, 91
1, 666033, Note_on_c, 0, 94, 70
1, 666036, Note_on_c, 0, 69, 80
1, 666051, Note_off_c, 0, 82, 66
1, 666075, Note_off_c, 0, 69, 57
1, 666095, Note_off_c, 0, 94, 65
1, 666110, Note_on_c, 0, 96, 62
1, 666132, Note_off_c, 0, 96, 58
1, 666151, Note_on_c, 0, 67, 81
1, 666161, Note_on_c, 0, 82, 86
1, 666161, Note_on_c, 0, 94, 66
1, 666162, Note_on_c, 0, 64, 73
1, 666183, Note_off_c, 0, 82, 65
1, 666189, Note_off_c, 0, 67, 63
1, 666191, Note_off_c, 0, 64, 66
1, 666226, Note_on_c, 0, 96, 82
1, 666227, Note_off_c, 0, 94, 64
1, 666263, Note_on_c, 0, 67, 86
1, 666265, Note_on_c, 0, 61, 84
1, 666279, Note_off_c, 0, 96, 59
1, 666286, Note_off_c, 0, 61, 70
1, 666298, Note_on_c, 0, 76, 99
1, 666304, Note_on_c, 0, 82, 91
1, 666310, Note_on_c, 0, 94, 64
1, 666328, Note_off_c, 0, 76, 65
1, 666328, Control_c, 0, 64, 14
1, 666331, Note_off_c, 0, 82, 62
1, 666332, Note_off_c, 0, 67, 63
1, 666343, Note_off_c, 0, 94, 0
1, 666343, Control_c, 0, 64, 66
1, 666358, Control_c, 0, 64, 71
1, 666359, Note_on_c, 0, 63, 16
1, 666360, Note_off_c, 0, 63, 127
1, 666370, Poly_aftertouch_c, 0, 94, 0
1, 666373, Control_c, 0, 64, 75
1, 666373, Note_on_c, 0, 96, 87
1, 666388, Control_c, 0, 64, 80
1, 666403, Control_c, 0, 64, 84
1, 666418, Control_c, 0, 64, 84
1, 666426, Note_off_c, 0, 96, 63
1, 666441, Note_on_c, 0, 82, 79
1, 666447, Control_c, 0, 64, 80
1, 666451, Note_on_c, 0, 94, 58
1, 666461, Note_off_c, 0, 82, 70
1, 666462, Control_c, 0, 64, 69
1, 666477, Control_c, 0, 64, 0
1, 666496, Note_off_c, 0, 94, 63
1, 666500, Note_on_c, 0, 96, 78
1, 666532, Note_off_c, 0, 96, 59
1, 666570, Note_on_c, 0, 82, 82
1, 666579, Note_on_c, 0, 94, 60
1, 666590, Note_off_c, 0, 82, 69
1, 666629, Note_off_c, 0, 94, 63
1, 666629, Note_on_c, 0, 96, 83
1, 666667, Note_off_c, 0, 96, 59
1, 666695, Note_on_c, 0, 64, 100
1, 666696, Note_on_c, 0, 52, 91
1, 666700, Note_on_c, 0, 82, 86
1, 666708, Note_on_c, 0, 94, 58
1, 666718, Note_off_c, 0, 52, 70
1, 666719, Note_off_c, 0, 82, 68
1, 666722, Note_off_c, 0, 64, 67
1, 666756, Note_off_c, 0, 94, 61
1, 666761, Note_on_c, 0, 96, 83
1, 666809, Note_off_c, 0, 96, 57
1, 666822, Note_on_c, 0, 66, 93
1, 666826, Note_on_c, 0, 54, 82
1, 666829, Note_on_c, 0, 82, 80
1, 666841, Note_on_c, 0, 94, 55
1, 666850, Note_off_c, 0, 82, 70
1, 666855, Note_off_c, 0, 54, 65
1, 666856, Note_off_c, 0, 66, 59
1, 666886, Note_off_c, 0, 94, 57
1, 666893, Note_on_c, 0, 96, 85
1, 666931, Note_off_c, 0, 96, 56
1, 666963, Note_on_c, 0, 67, 85
1, 666963, Note_on_c, 0, 82, 84
1, 666966, Note_on_c, 0, 55, 87
1, 666975, Note_on_c, 0, 94, 68
1, 666982, Note_off_c, 0, 82, 70
1, 666984, Note_off_c, 0, 67, 67
1, 666991, Note_off_c, 0, 55, 67
1, 667020, Note_on_c, 0, 96, 89
1, 667022, Note_off_c, 0, 94, 64
1, 667073, Note_off_c, 0, 96, 59
1, 667094, Note_on_c, 0, 62, 96
1, 667103, Note_on_c, 0, 82, 87
1, 667105, Note_on_c, 0, 50, 75
1, 667112, Note_on_c, 0, 94, 67
1, 667112, Note_off_c, 0, 62, 70
1, 667121, Note_off_c, 0, 82, 72
1, 667122, Control_c, 0, 64, 61
1, 667125, Note_off_c, 0, 50, 68
1, 667136, Control_c, 0, 64, 64
1, 667160, Note_off_c, 0, 94, 62
1, 667166, Note_on_c, 0, 96, 79
1, 667181, Control_c, 0, 64, 62
1, 667196, Control_c, 0, 64, 19
1, 667199, Note_off_c, 0, 96, 54
1, 667210, Control_c, 0, 64, 0
1, 667234, Note_on_c, 0, 82, 78
1, 667246, Note_on_c, 0, 94, 54
1, 667254, Note_off_c, 0, 82, 69
1, 667281, Note_off_c, 0, 94, 52
1, 667300, Note_on_c, 0, 96, 70
1, 667324, Note_off_c, 0, 96, 55
1, 667367, Note_on_c, 0, 82, 63
1, 667378, Note_on_c, 0, 94, 34
1, 667386, Note_off_c, 0, 82, 62
1, 667407, Note_off_c, 0, 94, 55
1, 667413, Note_on_c, 0, 96, 77
1, 667461, Note_off_c, 0, 96, 61
1, 667491, Note_on_c, 0, 82, 66
1, 667495, Note_on_c, 0, 94, 53
1, 667497, Note_on_c, 0, 74, 95
1, 667501, Note_on_c, 0, 70, 81
1, 667515, Note_off_c, 0, 82, 66
1, 667519, Note_off_c, 0, 94, 60
1, 667520, Note_off_c, 0, 74, 66
1, 667523, Note_off_c, 0, 70, 68
1, 667552, Note_on_c, 0, 96, 80
1, 667607, Note_off_c, 0, 96, 61
1, 667620, Note_on_c, 0, 82, 77
1, 667627, Note_on_c, 0, 72, 85
1, 667631, Note_on_c, 0, 94, 49
1, 667636, Note_on_c, 0, 69, 70
1, 667648, Note_off_c, 0, 82, 63
1, 667657, Note_off_c, 0, 94, 56
1, 667662, Note_off_c, 0, 72, 65
1, 667667, Note_off_c, 0, 69, 60
1, 667696, Note_on_c, 0, 96, 83
1, 667741, Note_on_c, 0, 70, 79
1, 667748, Note_off_c, 0, 96, 62
1, 667763, Note_on_c, 0, 94, 65
1, 667765, Note_on_c, 0, 82, 81
1, 667788, Note_off_c, 0, 82, 67
1, 667802, Note_off_c, 0, 70, 64
1, 667808, Note_on_c, 0, 62, 74
1, 667831, Note_off_c, 0, 94, 59
1, 667835, Note_on_c, 0, 96, 85
1, 667858, Note_off_c, 0, 62, 58
1, 667866, Note_on_c, 0, 70, 72
1, 667893, Note_off_c, 0, 96, 63
1, 667904, Note_on_c, 0, 82, 94
1, 667906, Note_on_c, 0, 79, 99
1, 667908, Note_on_c, 0, 94, 65
1, 667929, Control_c, 0, 64, 50
1, 667932, Note_off_c, 0, 79, 63
1, 667944, Note_off_c, 0, 70, 65
1, 667944, Control_c, 0, 64, 75
1, 667949, Note_off_c, 0, 82, 64
1, 667959, Control_c, 0, 64, 82
1, 667974, Control_c, 0, 64, 91
1, 667977, Note_off_c, 0, 94, 59
1, 667979, Note_on_c, 0, 96, 87
1, 667989, Control_c, 0, 64, 95
1, 668003, Control_c, 0, 64, 99
1, 668018, Control_c, 0, 64, 100
1, 668031, Note_off_c, 0, 96, 64
1, 668048, Control_c, 0, 64, 99
1, 668049, Note_on_c, 0, 82, 80
1, 668063, Control_c, 0, 64, 93
1, 668066, Note_on_c, 0, 94, 36
1, 668072, Note_off_c, 0, 82, 67
1, 668078, Control_c, 0, 64, 76
1, 668093, Control_c, 0, 64, 0
1, 668111, Note_off_c, 0, 94, 53
1, 668114, Note_on_c, 0, 96, 82
1, 668164, Note_off_c, 0, 96, 58
1, 668180, Note_on_c, 0, 82, 77
1, 668201, Note_off_c, 0, 82, 69
1, 668205, Note_on_c, 0, 94, 52
1, 668236, Note_off_c, 0, 94, 67
1, 668239, Note_on_c, 0, 96, 84
1, 668284, Note_off_c, 0, 96, 61
1, 668298, Note_on_c, 0, 63, 98
1, 668302, Note_on_c, 0, 55, 83
1, 668303, Note_on_c, 0, 82, 97
1, 668304, Note_on_c, 0, 58, 91
1, 668307, Note_on_c, 0, 94, 83
1, 668314, Note_on_c, 0, 51, 76
1, 668321, Note_off_c, 0, 63, 67
1, 668331, Note_off_c, 0, 82, 67
1, 668334, Note_off_c, 0, 55, 66
1, 668340, Note_off_c, 0, 58, 61
1, 668344, Control_c, 0, 64, 71
1, 668346, Note_off_c, 0, 51, 68
1, 668359, Control_c, 0, 64, 88
1, 668369, Note_off_c, 0, 94, 64
1, 668370, Note_on_c, 0, 96, 77
1, 668374, Control_c, 0, 64, 99
1, 668389, Control_c, 0, 64, 104
1, 668419, Control_c, 0, 64, 104
1, 668430, Note_off_c, 0, 96, 60
1, 668441, Note_on_c, 0, 82, 77
1, 668442, Note_on_c, 0, 94, 60
1, 668456, Note_off_c, 0, 82, 68
1, 668464, Control_c, 0, 64, 105
1, 668477, Note_on_c, 0, 51, 62
1, 668479, Note_on_c, 0, 46, 42
1, 668480, Control_c, 0, 64, 106
1, 668489, Note_on_c, 0, 55, 73
1, 668495, Control_c, 0, 64, 106
1, 668499, Note_on_c, 0, 58, 82
1, 668501, Note_off_c, 0, 94, 65
1, 668504, Note_on_c, 0, 96, 80
1, 668509, Note_off_c, 0, 46, 52
1, 668509, Control_c, 0, 64, 110
1, 668524, Control_c, 0, 64, 116
1, 668539, Control_c, 0, 64, 127
1, 668555, Note_off_c, 0, 58, 63
1, 668567, Note_on_c, 0, 82, 79
1, 668571, Note_off_c, 0, 96, 51
1, 668579, Note_on_c, 0, 46, 85
1, 668582, Note_off_c, 0, 55, 64
1, 668592, Note_off_c, 0, 51, 63
1, 668603, Note_on_c, 0, 94, 49
1, 668608, Note_off_c, 0, 82, 62
1, 668636, Note_off_c, 0, 46, 60
1, 668646, Note_off_c, 0, 94, 64
1, 668651, Note_on_c, 0, 96, 78
1, 668680, Control_c, 0, 64, 120
1, 668694, Note_off_c, 0, 96, 43
1, 668695, Control_c, 0, 64, 89
1, 668696, Note_on_c, 0, 58, 98
1, 668697, Note_on_c, 0, 55, 86
1, 668699, Note_on_c, 0, 82, 93
1, 668700, Note_on_c, 0, 51, 81
1, 668709, Control_c, 0, 64, 60
1, 668712, Note_on_c, 0, 94, 59
1, 668724, Control_c, 0, 64, 0
1, 668726, Note_off_c, 0, 82, 63
1, 668728, Note_off_c, 0, 55, 60
1, 668731, Note_on_c, 0, 49, 21
1, 668732, Note_off_c, 0, 49, 127
1, 668734, Note_off_c, 0, 58, 56
1, 668736, Note_off_c, 0, 51, 61
1, 668780, Note_off_c, 0, 94, 63
1, 668784, Note_on_c, 0, 96, 66
1, 668808, Note_off_c, 0, 96, 54
1, 668829, Note_on_c, 0, 82, 84
1, 668832, Note_on_c, 0, 46, 90
1, 668862, Note_off_c, 0, 82, 64
1, 668933, Note_off_c, 0, 46, 61
1, 668948, Note_on_c, 0, 58, 83
1, 668956, Note_on_c, 0, 82, 92
1, 668957, Note_on_c, 0, 55, 47
1, 668961, Note_on_c, 0, 51, 39
1, 668966, Note_off_c, 0, 58, 71
1, 668987, Note_off_c, 0, 55, 33
1, 668988, Note_off_c, 0, 82, 66
1, 668999, Note_off_c, 0, 51, 54
1, 669004, Note_on_c, 0, 94, 17
1, 669045, Note_off_c, 0, 94, 49
1, 669084, Note_on_c, 0, 94, 82
1, 669087, Note_on_c, 0, 87, 86
1, 669090, Note_on_c, 0, 91, 65
1, 669091, Note_on_c, 0, 75, 73
1, 669101, Note_on_c, 0, 79, 63
1, 669110, Note_off_c, 0, 91, 68
1, 669112, Note_off_c, 0, 75, 69
1, 669120, Note_off_c, 0, 79, 66
1, 669133, Note_on_c, 0, 96, 79
1, 669139, Note_off_c, 0, 87, 66
1, 669145, Note_off_c, 0, 94, 65
1, 669174, Note_off_c, 0, 96, 59
1, 669214, Note_on_c, 0, 89, 69
1, 669217, Note_on_c, 0, 77, 84
1, 669219, Note_on_c, 0, 70, 77
1, 669221, Note_on_c, 0, 86, 77
1, 669227, Note_on_c, 0, 88, 70
1, 669238, Note_off_c, 0, 70, 71
1, 669243, Note_off_c, 0, 88, 64
1, 669254, Note_off_c, 0, 86, 58
1, 669257, Note_off_c, 0, 89, 64
1, 669263, Note_on_c, 0, 96, 83
1, 669265, Note_off_c, 0, 77, 63
1, 669275, Note_on_c, 0, 79, 84
1, 669334, Note_on_c, 0, 89, 90
1, 669344, Note_on_c, 0, 77, 85
1, 669348, Note_off_c, 0, 96, 66
1, 669351, Note_on_c, 0, 86, 70
1, 669351, Note_on_c, 0, 94, 76
1, 669351, Note_on_c, 0, 70, 80
1, 669355, Note_off_c, 0, 79, 61
1, 669366, Note_off_c, 0, 86, 69
1, 669374, Note_off_c, 0, 89, 64
1, 669376, Note_off_c, 0, 70, 63
1, 669381, Note_off_c, 0, 77, 64
1, 669410, Note_on_c, 0, 96, 53
1, 669417, Note_off_c, 0, 94, 65
1, 669456, Note_on_c, 0, 94, 64
1, 669461, Note_on_c, 0, 87, 90
1, 669466, Note_on_c, 0, 91, 78
1, 669469, Note_off_c, 0, 96, 66
1, 669474, Note_on_c, 0, 75, 86
1, 669476, Note_on_c, 0, 79, 87
1, 669506, Note_off_c, 0, 91, 62
1, 669509, Note_off_c, 0, 79, 63
1, 669510, Note_off_c, 0, 87, 66
1, 669521, Note_off_c, 0, 75, 58
1, 669528, Note_on_c, 0, 96, 79
1, 669533, Note_off_c, 0, 94, 66
1, 669592, Note_on_c, 0, 89, 91
1, 669592, Note_on_c, 0, 86, 85
1, 669607, Note_off_c, 0, 96, 64
1, 669608, Note_on_c, 0, 77, 88
1, 669611, Note_on_c, 0, 70, 83
1, 669616, Note_off_c, 0, 86, 68
1, 669639, Note_off_c, 0, 89, 64
1, 669649, Note_off_c, 0, 70, 47
1, 669655, Note_on_c, 0, 94, 51
1, 669661, Note_off_c, 0, 77, 60
1, 669661, Note_on_c, 0, 96, 55
1, 669678, Note_off_c, 0, 94, 59
1, 669717, Note_on_c, 0, 87, 87
1, 669720, Note_off_c, 0, 96, 61
1, 669726, Note_on_c, 0, 79, 77
1, 669726, Note_on_c, 0, 92, 73
1, 669727, Note_on_c, 0, 75, 86
1, 669747, Note_off_c, 0, 79, 70
1, 669761, Note_off_c, 0, 92, 65
1, 669762, Note_off_c, 0, 87, 63
1, 669765, Note_off_c, 0, 75, 64
1, 669765, Note_on_c, 0, 94, 39
1, 669804, Note_on_c, 0, 95, 87
1, 669811, Note_on_c, 0, 91, 19
1, 669813, Control_c, 0, 64, 52
1, 669817, Note_off_c, 0, 94, 64
1, 669819, Note_off_c, 0, 91, 39
1, 669828, Control_c, 0, 64, 65
1, 669843, Control_c, 0, 64, 70
1, 669857, Control_c, 0, 64, 74
1, 669864, Note_on_c, 0, 63, 94
1, 669866, Note_on_c, 0, 82, 95
1, 669870, Note_off_c, 0, 95, 63
1, 669871, Note_on_c, 0, 51, 79
1, 669872, Control_c, 0, 64, 76
1, 669875, Note_on_c, 0, 94, 66
1, 669887, Control_c, 0, 64, 74
1, 669890, Note_on_c, 0, 91, 41
1, 669901, Control_c, 0, 64, 68
1, 669905, Note_on_c, 0, 90, 16
1, 669909, Note_off_c, 0, 82, 65
1, 669912, Note_off_c, 0, 63, 59
1, 669914, Note_off_c, 0, 51, 55
1, 669916, Control_c, 0, 64, 59
1, 669930, Note_off_c, 0, 90, 33
1, 669931, Control_c, 0, 64, 64
1, 669942, Note_on_c, 0, 95, 95
1, 669942, Note_off_c, 0, 91, 63
1, 669946, Control_c, 0, 64, 70
1, 669953, Note_off_c, 0, 94, 65
1, 669961, Control_c, 0, 64, 74
1, 669975, Control_c, 0, 64, 79
1, 669990, Control_c, 0, 64, 83
1, 669998, Note_off_c, 0, 95, 50
1, 669999, Note_on_c, 0, 62, 89
1, 669999, Note_on_c, 0, 82, 107
1, 670001, Note_on_c, 0, 50, 84
1, 670005, Control_c, 0, 64, 85
1, 670006, Note_on_c, 0, 91, 56
1, 670011, Note_on_c, 0, 94, 60
1, 670030, Note_off_c, 0, 62, 58
1, 670039, Note_off_c, 0, 50, 63
1, 670040, Note_off_c, 0, 82, 66
1, 670042, Note_on_c, 0, 90, 16
1, 670072, Note_off_c, 0, 91, 42
1, 670072, Control_c, 0, 64, 84
1, 670083, Note_on_c, 0, 95, 93
1, 670087, Note_off_c, 0, 90, 30
1, 670087, Control_c, 0, 64, 81
1, 670095, Note_off_c, 0, 94, 64
1, 670102, Control_c, 0, 64, 71
1, 670117, Control_c, 0, 64, 57
1, 670132, Control_c, 0, 64, 59
1, 670135, Note_on_c, 0, 82, 98
1, 670141, Note_on_c, 0, 61, 92
1, 670142, Note_on_c, 0, 49, 84
1, 670147, Control_c, 0, 64, 69
1, 670153, Note_off_c, 0, 95, 62
1, 670162, Control_c, 0, 64, 75
1, 670176, Control_c, 0, 64, 79
1, 670179, Note_off_c, 0, 82, 64
1, 670188, Note_off_c, 0, 61, 59
1, 670191, Note_off_c, 0, 49, 60
1, 670191, Control_c, 0, 64, 83
1, 670206, Control_c, 0, 64, 84
1, 670214, Note_on_c, 0, 95, 88
1, 670221, Control_c, 0, 64, 78
1, 670236, Control_c, 0, 64, 65
1, 670251, Control_c, 0, 64, 39
1, 670264, Note_on_c, 0, 82, 99
1, 670266, Control_c, 0, 64, 65
1, 670274, Note_on_c, 0, 61, 86
1, 670277, Note_on_c, 0, 49, 80
1, 670280, Control_c, 0, 64, 72
1, 670289, Note_on_c, 0, 63, 66
1, 670295, Control_c, 0, 64, 77
1, 670305, Note_off_c, 0, 95, 65
1, 670305, Note_off_c, 0, 61, 60
1, 670309, Note_off_c, 0, 63, 64
1, 670310, Control_c, 0, 64, 83
1, 670317, Note_off_c, 0, 49, 60
1, 670324, Control_c, 0, 64, 92
1, 670327, Note_off_c, 0, 82, 63
1, 670339, Control_c, 0, 64, 100
1, 670369, Control_c, 0, 64, 96
1, 670384, Control_c, 0, 64, 84
1, 670391, Note_on_c, 0, 63, 85
1, 670394, Note_on_c, 0, 93, 94
1, 670397, Note_on_c, 0, 79, 91
1, 670398, Note_on_c, 0, 51, 82
1, 670398, Control_c, 0, 64, 74
1, 670412, Note_on_c, 0, 91, 72
1, 670413, Control_c, 0, 64, 72
1, 670427, Note_on_c, 0, 81, 43
1, 670428, Note_off_c, 0, 81, 127
1, 670428, Control_c, 0, 64, 75
1, 670432, Note_off_c, 0, 91, 45
1, 670438, Note_off_c, 0, 79, 64
1, 670443, Note_off_c, 0, 63, 63
1, 670443, Control_c, 0, 64, 80
1, 670446, Note_on_c, 0, 92, 28
1, 670454, Note_off_c, 0, 93, 62
1, 670458, Control_c, 0, 64, 84
1, 670463, Note_off_c, 0, 51, 60
1, 670472, Control_c, 0, 64, 87
1, 670487, Control_c, 0, 64, 88
1, 670491, Note_off_c, 0, 92, 43
1, 670524, Note_on_c, 0, 64, 95
1, 670525, Note_on_c, 0, 79, 94
1, 670528, Note_on_c, 0, 52, 89
1, 670528, Note_on_c, 0, 91, 94
1, 670531, Control_c, 0, 64, 91
1, 670546, Control_c, 0, 64, 97
1, 670561, Note_off_c, 0, 79, 64
1, 670561, Control_c, 0, 64, 102
1, 670565, Note_on_c, 0, 86, 39
1, 670570, Note_off_c, 0, 64, 64
1, 670570, Note_off_c, 0, 52, 59
1, 670576, Control_c, 0, 64, 103
1, 670591, Control_c, 0, 64, 103
1, 670593, Note_off_c, 0, 86, 57
1, 670600, Note_off_c, 0, 91, 66
1, 670606, Control_c, 0, 64, 102
1, 670621, Control_c, 0, 64, 85
1, 670636, Control_c, 0, 64, 38
1, 670641, Note_on_c, 0, 78, 95
1, 670650, Note_on_c, 0, 86, 90
1, 670650, Control_c, 0, 64, 0
1, 670652, Note_on_c, 0, 66, 97
1, 670656, Note_on_c, 0, 54, 92
1, 670659, Note_on_c, 0, 90, 79
1, 670674, Note_off_c, 0, 66, 67
1, 670685, Note_off_c, 0, 78, 66
1, 670705, Note_off_c, 0, 54, 59
1, 670708, Note_off_c, 0, 86, 65
1, 670711, Note_on_c, 0, 89, 37
1, 670713, Note_on_c, 0, 91, 85
1, 670728, Note_off_c, 0, 90, 55
1, 670742, Note_off_c, 0, 89, 33
1, 670773, Note_on_c, 0, 86, 77
1, 670781, Note_off_c, 0, 91, 64
1, 670782, Note_on_c, 0, 78, 79
1, 670809, Note_on_c, 0, 90, 44
1, 670812, Note_off_c, 0, 78, 64
1, 670833, Note_off_c, 0, 86, 63
1, 670850, Note_on_c, 0, 91, 78
1, 670855, Note_off_c, 0, 90, 66
1, 670914, Note_on_c, 0, 90, 75
1, 670920, Note_on_c, 0, 78, 89
1, 670922, Note_on_c, 0, 85, 85
1, 670922, Note_off_c, 0, 91, 63
1, 670925, Note_on_c, 0, 54, 84
1, 670928, Note_on_c, 0, 42, 84
1, 670946, Note_off_c, 0, 54, 71
1, 670946, Note_off_c, 0, 78, 66
1, 670952, Note_off_c, 0, 42, 66
1, 670959, Note_off_c, 0, 85, 59
1, 670990, Note_on_c, 0, 91, 84
1, 670991, Note_off_c, 0, 90, 66
1, 671049, Note_on_c, 0, 78, 98
1, 671050, Note_on_c, 0, 90, 76
1, 671069, Note_off_c, 0, 91, 62
1, 671097, Note_off_c, 0, 78, 63
1, 671138, Note_on_c, 0, 91, 85
1, 671139, Note_off_c, 0, 90, 60
1, 671158, Note_on_c, 0, 78, 71
1, 671208, Note_off_c, 0, 78, 63
1, 671279, Note_on_c, 0, 42, 83
1, 671280, Note_on_c, 0, 54, 87
1, 671285, Note_on_c, 0, 78, 91
1, 671297, Note_on_c, 0, 89, 54
1, 671305, Note_off_c, 0, 54, 70
1, 671309, Note_off_c, 0, 42, 66
1, 671320, Note_off_c, 0, 91, 64
1, 671321, Note_off_c, 0, 89, 37
1, 671333, Note_off_c, 0, 78, 63
1, 671405, Note_on_c, 0, 88, 91
1, 671408, Note_on_c, 0, 85, 87
1, 671412, Note_on_c, 0, 58, 95
1, 671415, Control_c, 0, 64, 64
1, 671417, Note_on_c, 0, 46, 87
1, 671429, Control_c, 0, 64, 71
1, 671444, Control_c, 0, 64, 74
1, 671452, Note_on_c, 0, 90, 73
1, 671453, Note_off_c, 0, 85, 64
1, 671455, Note_off_c, 0, 58, 63
1, 671459, Control_c, 0, 64, 79
1, 671464, Note_off_c, 0, 88, 65
1, 671468, Note_off_c, 0, 46, 59
1, 671473, Control_c, 0, 64, 85
1, 671478, Note_on_c, 0, 92, 41
1, 671479, Note_off_c, 0, 92, 127
1, 671488, Control_c, 0, 64, 89
1, 671491, Note_off_c, 0, 90, 60
1, 671503, Control_c, 0, 64, 90
1, 671533, Note_on_c, 0, 86, 87
1, 671538, Note_on_c, 0, 59, 94
1, 671547, Note_on_c, 0, 83, 85
1, 671550, Note_on_c, 0, 47, 79
1, 671555, Control_c, 0, 64, 90
1, 671572, Poly_aftertouch_c, 0, 91, 0
1, 671573, Note_off_c, 0, 47, 66
1, 671575, Note_off_c, 0, 83, 65
1, 671583, Note_off_c, 0, 59, 59
1, 671612, Note_off_c, 0, 86, 65
1, 671613, Note_on_c, 0, 88, 83
1, 671663, Note_off_c, 0, 88, 55
1, 671672, Note_on_c, 0, 61, 90
1, 671674, Note_on_c, 0, 82, 91
1, 671675, Control_c, 0, 64, 89
1, 671676, Note_on_c, 0, 49, 79
1, 671690, Control_c, 0, 64, 81
1, 671705, Control_c, 0, 64, 70
1, 671713, Note_off_c, 0, 61, 60
1, 671714, Note_off_c, 0, 49, 60
1, 671719, Control_c, 0, 64, 64
1, 671729, Note_off_c, 0, 82, 65
1, 671734, Control_c, 0, 64, 70
1, 671749, Control_c, 0, 64, 76
1, 671756, Note_on_c, 0, 88, 56
1, 671764, Control_c, 0, 64, 80
1, 671765, Note_on_c, 0, 86, 57
1, 671778, Control_c, 0, 64, 80
1, 671781, Note_off_c, 0, 88, 0
1, 671781, Note_on_c, 0, 88, 36
1, 671793, Control_c, 0, 64, 74
1, 671794, Note_on_c, 0, 79, 83
1, 671796, Note_on_c, 0, 62, 90
1, 671803, Note_on_c, 0, 50, 81
1, 671808, Control_c, 0, 64, 55
1, 671816, Note_on_c, 0, 83, 66
1, 671816, Note_off_c, 0, 86, 60
1, 671823, Note_off_c, 0, 79, 62
1, 671823, Control_c, 0, 64, 38
1, 671825, Note_on_c, 0, 85, 57
1, 671827, Note_off_c, 0, 50, 69
1, 671827, Note_off_c, 0, 88, 46
1, 671838, Note_off_c, 0, 62, 62
1, 671838, Control_c, 0, 64, 64
1, 671852, Control_c, 0, 64, 69
1, 671856, Note_off_c, 0, 85, 66
1, 671861, Note_off_c, 0, 83, 66
1, 671867, Control_c, 0, 64, 72
1, 671882, Control_c, 0, 64, 77
1, 671891, Note_on_c, 0, 81, 68
1, 671896, Control_c, 0, 64, 82
1, 671911, Control_c, 0, 64, 87
1, 671920, Note_on_c, 0, 63, 94
1, 671926, Control_c, 0, 64, 89
1, 671929, Note_on_c, 0, 51, 69
1, 671930, Note_on_c, 0, 85, 71
1, 671932, Note_on_c, 0, 78, 49
1, 671936, Note_on_c, 0, 83, 71
1, 671941, Control_c, 0, 64, 90
1, 671944, Note_off_c, 0, 81, 58
1, 671958, Note_off_c, 0, 78, 60
1, 671963, Poly_aftertouch_c, 0, 50, 0
1, 671966, Note_off_c, 0, 63, 64
1, 671969, Note_off_c, 0, 51, 62
1, 671987, Note_off_c, 0, 85, 63
1, 671995, Note_off_c, 0, 83, 62
1, 671998, Poly_aftertouch_c, 0, 88, 0
1, 672012, Note_on_c, 0, 76, 82
1, 672045, Note_on_c, 0, 64, 91
1, 672058, Note_on_c, 0, 52, 83
1, 672059, Note_off_c, 0, 76, 62
1, 672084, Note_off_c, 0, 52, 65
1, 672089, Note_off_c, 0, 64, 66
1, 672102, Note_on_c, 0, 79, 80
1, 672134, Control_c, 0, 64, 89
1, 672149, Control_c, 0, 64, 81
1, 672156, Note_on_c, 0, 74, 81
1, 672157, Note_on_c, 0, 78, 82
1, 672161, Note_off_c, 0, 79, 63
1, 672164, Control_c, 0, 64, 59
1, 672177, Note_on_c, 0, 66, 96
1, 672178, Control_c, 0, 64, 0
1, 672180, Note_on_c, 0, 54, 89
1, 672202, Note_off_c, 0, 66, 64
1, 672214, Note_off_c, 0, 74, 64
1, 672228, Note_off_c, 0, 54, 61
1, 672237, Note_on_c, 0, 79, 82
1, 672241, Note_off_c, 0, 78, 63
1, 672303, Note_off_c, 0, 79, 61
1, 672311, Note_on_c, 0, 78, 61
1, 672318, Note_on_c, 0, 74, 76
1, 672357, Note_off_c, 0, 74, 60
1, 672382, Note_on_c, 0, 79, 82
1, 672385, Note_off_c, 0, 78, 64
1, 672443, Note_on_c, 0, 66, 95
1, 672447, Note_on_c, 0, 78, 73
1, 672447, Note_off_c, 0, 79, 61
1, 672448, Note_on_c, 0, 54, 88
1, 672451, Note_on_c, 0, 73, 80
1, 672452, Note_on_c, 0, 42, 87
1, 672452, Control_c, 0, 64, 42
1, 672467, Control_c, 0, 64, 69
1, 672469, Note_off_c, 0, 54, 72
1, 672478, Note_off_c, 0, 42, 67
1, 672483, Control_c, 0, 64, 74
1, 672484, Note_off_c, 0, 66, 63
1, 672494, Note_off_c, 0, 73, 55
1, 672513, Control_c, 0, 64, 70
1, 672522, Note_on_c, 0, 79, 81
1, 672523, Note_off_c, 0, 78, 65
1, 672527, Control_c, 0, 64, 51
1, 672542, Control_c, 0, 64, 0
1, 672580, Note_on_c, 0, 66, 88
1, 672585, Note_off_c, 0, 79, 60
1, 672588, Note_on_c, 0, 78, 69
1, 672616, Note_off_c, 0, 66, 60
1, 672656, Note_off_c, 0, 78, 63
1, 672660, Note_on_c, 0, 79, 78
1, 672718, Note_on_c, 0, 66, 84
1, 672723, Note_off_c, 0, 79, 59
1, 672728, Note_on_c, 0, 78, 67
1, 672744, Note_off_c, 0, 66, 62
1, 672792, Note_off_c, 0, 78, 59
1, 672793, Note_on_c, 0, 79, 72
1, 672847, Note_on_c, 0, 54, 72
1, 672847, Note_on_c, 0, 66, 90
1, 672850, Note_on_c, 0, 42, 79
1, 672853, Control_c, 0, 64, 21
1, 672854, Note_on_c, 0, 78, 64
1, 672857, Note_off_c, 0, 79, 59
1, 672859, Note_on_c, 0, 73, 73
1, 672866, Note_off_c, 0, 54, 66
1, 672868, Control_c, 0, 64, 70
1, 672876, Note_off_c, 0, 66, 60
1, 672877, Note_off_c, 0, 42, 66
1, 672883, Control_c, 0, 64, 79
1, 672884, Note_off_c, 0, 73, 64
1, 672898, Control_c, 0, 64, 85
1, 672927, Control_c, 0, 64, 82
1, 672928, Note_off_c, 0, 78, 63
1, 672929, Note_on_c, 0, 79, 77
1, 672942, Control_c, 0, 64, 71
1, 672957, Control_c, 0, 64, 0
1, 672983, Note_on_c, 0, 66, 79
1, 672992, Note_off_c, 0, 79, 60
1, 672993, Note_on_c, 0, 78, 59
1, 673012, Note_off_c, 0, 66, 62
1, 673066, Note_off_c, 0, 78, 62
1, 673071, Note_on_c, 0, 79, 65
1, 673117, Note_off_c, 0, 79, 45
1, 673129, Note_on_c, 0, 66, 77
1, 673136, Note_on_c, 0, 78, 58
1, 673157, Note_off_c, 0, 66, 62
1, 673198, Note_off_c, 0, 78, 61
1, 673206, Note_on_c, 0, 79, 71
1, 673243, Note_on_c, 0, 42, 77
1, 673245, Control_c, 0, 64, 57
1, 673249, Note_on_c, 0, 30, 69
1, 673256, Note_off_c, 0, 79, 50
1, 673260, Control_c, 0, 64, 69
1, 673266, Note_on_c, 0, 66, 78
1, 673271, Note_on_c, 0, 78, 61
1, 673272, Note_off_c, 0, 42, 65
1, 673277, Control_c, 0, 64, 73
1, 673286, Note_off_c, 0, 30, 62
1, 673293, Note_off_c, 0, 66, 60
1, 673306, Control_c, 0, 64, 69
1, 673321, Control_c, 0, 64, 57
1, 673333, Note_off_c, 0, 78, 62
1, 673336, Control_c, 0, 64, 0
1, 673336, Control_c, 0, 67, 8
1, 673342, Note_on_c, 0, 79, 72
1, 673350, Control_c, 0, 67, 8
1, 673365, Control_c, 0, 67, 9
1, 673380, Control_c, 0, 67, 9
1, 673395, Control_c, 0, 67, 11
1, 673399, Note_off_c, 0, 79, 50
1, 673405, Note_on_c, 0, 66, 69
1, 673410, Note_on_c, 0, 78, 60
1, 673410, Control_c, 0, 67, 12
1, 673424, Control_c, 0, 67, 13
1, 673437, Note_off_c, 0, 66, 60
1, 673439, Control_c, 0, 67, 14
1, 673454, Control_c, 0, 67, 15
1, 673469, Control_c, 0, 67, 16
1, 673472, Note_off_c, 0, 78, 61
1, 673485, Note_on_c, 0, 79, 63
1, 673513, Control_c, 0, 67, 17
1, 673536, Note_off_c, 0, 79, 47
1, 673552, Note_on_c, 0, 66, 63
1, 673557, Note_on_c, 0, 78, 55
1, 673587, Note_off_c, 0, 66, 61
1, 673615, Note_off_c, 0, 78, 62
1, 673631, Note_on_c, 0, 79, 66
1, 673631, Control_c, 0, 67, 17
1, 673661, Control_c, 0, 67, 19
1, 673665, Note_off_c, 0, 79, 57
1, 673676, Control_c, 0, 67, 20
1, 673682, Note_on_c, 0, 42, 62
1, 673690, Control_c, 0, 64, 49
1, 673690, Control_c, 0, 67, 23
1, 673694, Note_on_c, 0, 30, 54
1, 673694, Note_on_c, 0, 66, 66
1, 673697, Note_on_c, 0, 78, 55
1, 673705, Control_c, 0, 64, 66
1, 673705, Control_c, 0, 67, 25
1, 673712, Note_off_c, 0, 42, 63
1, 673720, Control_c, 0, 64, 70
1, 673720, Control_c, 0, 67, 27
1, 673728, Note_off_c, 0, 30, 52
1, 673734, Control_c, 0, 64, 74
1, 673734, Control_c, 0, 67, 28
1, 673749, Control_c, 0, 64, 76
1, 673749, Control_c, 0, 67, 29
1, 673754, Note_off_c, 0, 66, 52
1, 673764, Note_off_c, 0, 78, 59
1, 673764, Control_c, 0, 64, 79
1, 673779, Control_c, 0, 64, 81
1, 673779, Control_c, 0, 67, 29
1, 673782, Note_on_c, 0, 79, 65
1, 673801, Control_c, 0, 64, 82
1, 673816, Control_c, 0, 64, 83
1, 673831, Control_c, 0, 67, 30
1, 673846, Control_c, 0, 67, 30
1, 673858, Note_off_c, 0, 79, 55
1, 673861, Control_c, 0, 67, 31
1, 673875, Control_c, 0, 67, 32
1, 673890, Control_c, 0, 67, 34
1, 673897, Note_on_c, 0, 78, 55
1, 673905, Control_c, 0, 64, 82
1, 673905, Control_c, 0, 67, 35
1, 673920, Control_c, 0, 64, 82
1, 673920, Control_c, 0, 67, 36
1, 673935, Control_c, 0, 67, 37
1, 673949, Control_c, 0, 64, 81
1, 673949, Control_c, 0, 67, 38
1, 673964, Control_c, 0, 64, 80
1, 673964, Control_c, 0, 67, 39
1, 673969, Note_off_c, 0, 78, 60
1, 673979, Control_c, 0, 64, 79
1, 673979, Control_c, 0, 67, 39
1, 673989, Note_on_c, 0, 79, 56
1, 673994, Control_c, 0, 64, 78
1, 674009, Control_c, 0, 64, 77
1, 674023, Control_c, 0, 64, 76
1, 674038, Control_c, 0, 64, 74
1, 674053, Control_c, 0, 64, 71
1, 674067, Note_off_c, 0, 79, 60
1, 674069, Control_c, 0, 64, 68
1, 674084, Control_c, 0, 64, 65
1, 674089, Note_on_c, 0, 78, 58
1, 674099, Control_c, 0, 64, 63
1, 674128, Control_c, 0, 64, 63
1, 674132, Note_off_c, 0, 78, 60
1, 674143, Control_c, 0, 64, 59
1, 674158, Control_c, 0, 64, 45
1, 674167, Note_on_c, 0, 79, 54
1, 674172, Control_c, 0, 64, 0
1, 674213, Note_off_c, 0, 79, 56
1, 674244, Note_on_c, 0, 78, 60
1, 674261, Control_c, 0, 67, 39
1, 674275, Note_off_c, 0, 78, 62
1, 674290, Control_c, 0, 67, 38
1, 674316, Note_on_c, 0, 79, 57
1, 674348, Note_off_c, 0, 79, 54
1, 674365, Control_c, 0, 67, 38
1, 674371, Note_on_c, 0, 78, 57
1, 674394, Control_c, 0, 64, 46
1, 674398, Note_off_c, 0, 78, 61
1, 674410, Control_c, 0, 64, 57
1, 674425, Note_on_c, 0, 79, 70
1, 674425, Control_c, 0, 64, 61
1, 674439, Control_c, 0, 64, 62
1, 674454, Control_c, 0, 64, 63
1, 674454, Control_c, 0, 67, 37
1, 674469, Control_c, 0, 64, 64
1, 674484, Control_c, 0, 64, 65
1, 674485, Note_off_c, 0, 79, 60
1, 674495, Note_on_c, 0, 78, 59
1, 674499, Control_c, 0, 64, 66
1, 674514, Control_c, 0, 64, 67
1, 674526, Note_off_c, 0, 78, 64
1, 674529, Control_c, 0, 64, 67
1, 674551, Control_c, 0, 64, 68
1, 674551, Control_c, 0, 67, 37
1, 674557, Note_on_c, 0, 79, 57
1, 674565, Control_c, 0, 64, 69
1, 674580, Control_c, 0, 64, 70
1, 674595, Control_c, 0, 64, 71
1, 674603, Note_off_c, 0, 79, 60
1, 674610, Control_c, 0, 64, 72
1, 674610, Control_c, 0, 67, 36
1, 674620, Note_on_c, 0, 78, 68
1, 674625, Control_c, 0, 64, 72
1, 674639, Control_c, 0, 64, 73
1, 674651, Note_off_c, 0, 78, 58
1, 674654, Control_c, 0, 64, 74
1, 674669, Control_c, 0, 64, 75
1, 674669, Control_c, 0, 67, 36
1, 674676, Note_on_c, 0, 79, 56
1, 674684, Control_c, 0, 64, 75
1, 674698, Control_c, 0, 64, 76
1, 674713, Control_c, 0, 64, 77
1, 674716, Note_off_c, 0, 79, 62
1, 674728, Control_c, 0, 64, 78
1, 674728, Control_c, 0, 67, 35
1, 674742, Note_on_c, 0, 78, 66
1, 674743, Control_c, 0, 64, 79
1, 674758, Control_c, 0, 64, 80
1, 674769, Note_off_c, 0, 78, 64
1, 674773, Control_c, 0, 64, 82
1, 674773, Control_c, 0, 67, 35
1, 674785, Note_on_c, 0, 79, 61
1, 674788, Control_c, 0, 64, 83
1, 674788, Control_c, 0, 67, 34
1, 674803, Control_c, 0, 64, 85
1, 674818, Control_c, 0, 64, 87
1, 674818, Control_c, 0, 67, 34
1, 674833, Control_c, 0, 64, 88
1, 674833, Control_c, 0, 67, 33
1, 674839, Note_off_c, 0, 79, 60
1, 674842, Note_on_c, 0, 78, 73
1, 674847, Control_c, 0, 64, 90
1, 674862, Control_c, 0, 64, 94
1, 674862, Control_c, 0, 67, 33
1, 674877, Control_c, 0, 64, 97
1, 674877, Control_c, 0, 67, 32
1, 674883, Note_off_c, 0, 78, 58
1, 674892, Note_on_c, 0, 79, 56
1, 674892, Control_c, 0, 64, 99
1, 674892, Control_c, 0, 67, 32
1, 674907, Control_c, 0, 64, 102
1, 674907, Control_c, 0, 67, 31
1, 674922, Control_c, 0, 64, 104
1, 674937, Control_c, 0, 64, 106
1, 674937, Control_c, 0, 67, 30
1, 674949, Note_off_c, 0, 79, 61
1, 674951, Note_on_c, 0, 78, 74
1, 674952, Control_c, 0, 64, 108
1, 674967, Control_c, 0, 64, 112
1, 674967, Control_c, 0, 67, 29
1, 674982, Control_c, 0, 64, 120
1, 674982, Control_c, 0, 67, 29
1, 674996, Control_c, 0, 64, 127
1, 674996, Control_c, 0, 67, 28
1, 675001, Note_off_c, 0, 78, 59
1, 675004, Note_on_c, 0, 79, 66
1, 675011, Control_c, 0, 67, 27
1, 675026, Control_c, 0, 67, 27
1, 675041, Control_c, 0, 67, 25
1, 675056, Control_c, 0, 67, 24
1, 675057, Note_off_c, 0, 79, 60
1, 675063, Note_on_c, 0, 78, 68
1, 675070, Control_c, 0, 67, 21
1, 675085, Control_c, 0, 67, 17
1, 675100, Control_c, 0, 67, 12
1, 675103, Note_off_c, 0, 78, 60
1, 675109, Note_on_c, 0, 79, 60
1, 675114, Control_c, 0, 67, 0
1, 675168, Note_off_c, 0, 79, 60
1, 675169, Note_on_c, 0, 78, 78
1, 675221, Note_off_c, 0, 78, 63
1, 675232, Note_on_c, 0, 79, 63
1, 675275, Note_off_c, 0, 79, 61
1, 675281, Note_on_c, 0, 78, 71
1, 675335, Note_on_c, 0, 79, 65
1, 675336, Note_off_c, 0, 78, 61
1, 675395, Note_on_c, 0, 78, 73
1, 675395, Note_off_c, 0, 79, 61
1, 675440, Note_on_c, 0, 79, 63
1, 675447, Note_off_c, 0, 78, 63
1, 675499, Note_on_c, 0, 78, 69
1, 675499, Note_off_c, 0, 79, 62
1, 675533, Poly_aftertouch_c, 0, 79, 0
1, 675542, Note_on_c, 0, 79, 62
1, 675547, Note_off_c, 0, 78, 65
1, 675608, Note_on_c, 0, 78, 84
1, 675611, Note_off_c, 0, 79, 60
1, 675721, Note_on_c, 0, 80, 83
1, 675724, Note_off_c, 0, 78, 61
1, 675760, Control_c, 0, 64, 119
1, 675775, Control_c, 0, 64, 95
1, 675789, Control_c, 0, 64, 77
1, 675804, Control_c, 0, 64, 52
1, 675810, Note_off_c, 0, 80, 62
1, 675811, Note_on_c, 0, 78, 87
1, 675819, Control_c, 0, 64, 35
1, 675834, Control_c, 0, 64, 62
1, 675849, Control_c, 0, 64, 66
1, 675864, Control_c, 0, 64, 68
1, 675879, Control_c, 0, 64, 70
1, 675883, Note_on_c, 0, 80, 83
1, 675886, Note_off_c, 0, 78, 62
1, 675893, Control_c, 0, 64, 73
1, 675908, Control_c, 0, 64, 76
1, 675923, Control_c, 0, 64, 80
1, 675937, Control_c, 0, 64, 82
1, 675952, Control_c, 0, 64, 83
1, 675956, Note_off_c, 0, 80, 64
1, 675962, Note_on_c, 0, 78, 83
1, 675967, Control_c, 0, 64, 85
1, 675982, Control_c, 0, 64, 87
1, 675997, Control_c, 0, 64, 90
1, 676011, Control_c, 0, 64, 93
1, 676025, Note_off_c, 0, 78, 63
1, 676026, Control_c, 0, 64, 96
1, 676028, Note_on_c, 0, 80, 79
1, 676049, Control_c, 0, 64, 98
1, 676064, Control_c, 0, 64, 101
1, 676078, Control_c, 0, 64, 104
1, 676093, Control_c, 0, 64, 110
1, 676096, Note_off_c, 0, 80, 63
1, 676101, Note_on_c, 0, 78, 78
1, 676108, Control_c, 0, 64, 116
1, 676123, Control_c, 0, 64, 127
1, 676156, Note_off_c, 0, 78, 63
1, 676158, Note_on_c, 0, 80, 71
1, 676213, Note_on_c, 0, 78, 72
1, 676213, Note_off_c, 0, 80, 63
1, 676266, Note_off_c, 0, 78, 62
1, 676267, Note_on_c, 0, 80, 69
1, 676331, Note_off_c, 0, 80, 63
1, 676335, Note_on_c, 0, 78, 73
1, 676380, Note_off_c, 0, 78, 59
1, 676381, Note_on_c, 0, 80, 63
1, 676439, Note_off_c, 0, 80, 62
1, 676441, Note_on_c, 0, 78, 69
1, 676492, Note_off_c, 0, 78, 61
1, 676493, Note_on_c, 0, 80, 63
1, 676551, Note_on_c, 0, 78, 66
1, 676553, Note_off_c, 0, 80, 62
1, 676600, Note_on_c, 0, 80, 62
1, 676605, Note_off_c, 0, 78, 61
1, 676659, Note_on_c, 0, 78, 66
1, 676659, Note_off_c, 0, 80, 62
1, 676710, Note_off_c, 0, 78, 60
1, 676712, Note_on_c, 0, 80, 60
1, 676768, Note_off_c, 0, 80, 62
1, 676773, Note_on_c, 0, 78, 62
1, 676827, Note_on_c, 0, 80, 58
1, 676828, Note_off_c, 0, 78, 59
1, 676887, Note_off_c, 0, 80, 62
1, 676891, Note_on_c, 0, 78, 58
1, 676933, Note_off_c, 0, 78, 60
1, 676937, Note_on_c, 0, 80, 52
1, 676946, Control_c, 0, 67, 9
1, 676961, Control_c, 0, 67, 11
1, 676975, Control_c, 0, 67, 13
1, 676990, Control_c, 0, 67, 16
1, 676995, Note_off_c, 0, 80, 62
1, 677005, Control_c, 0, 67, 19
1, 677006, Note_on_c, 0, 78, 58
1, 677020, Control_c, 0, 67, 21
1, 677035, Control_c, 0, 67, 23
1, 677044, Note_off_c, 0, 78, 58
1, 677049, Control_c, 0, 67, 27
1, 677062, Note_on_c, 0, 80, 44
1, 677064, Control_c, 0, 67, 31
1, 677079, Control_c, 0, 67, 33
1, 677093, Control_c, 0, 67, 36
1, 677108, Note_off_c, 0, 80, 59
1, 677108, Control_c, 0, 67, 39
1, 677123, Control_c, 0, 67, 42
1, 677124, Note_on_c, 0, 78, 50
1, 677138, Control_c, 0, 67, 44
1, 677153, Control_c, 0, 67, 46
1, 677154, Note_off_c, 0, 78, 55
1, 677167, Control_c, 0, 67, 49
1, 677170, Note_on_c, 0, 80, 47
1, 677182, Control_c, 0, 67, 50
1, 677197, Control_c, 0, 67, 53
1, 677212, Control_c, 0, 67, 56
1, 677219, Note_off_c, 0, 80, 55
1, 677227, Control_c, 0, 67, 58
1, 677239, Note_on_c, 0, 78, 43
1, 677241, Control_c, 0, 67, 60
1, 677257, Control_c, 0, 67, 62
1, 677272, Note_off_c, 0, 78, 52
1, 677272, Control_c, 0, 67, 64
1, 677279, Note_on_c, 0, 80, 51
1, 677287, Control_c, 0, 67, 66
1, 677302, Control_c, 0, 67, 68
1, 677316, Control_c, 0, 67, 69
1, 677331, Control_c, 0, 67, 72
1, 677337, Note_off_c, 0, 80, 55
1, 677346, Note_on_c, 0, 78, 53
1, 677346, Control_c, 0, 67, 74
1, 677361, Control_c, 0, 67, 77
1, 677376, Control_c, 0, 67, 79
1, 677387, Note_off_c, 0, 78, 58
1, 677390, Control_c, 0, 67, 81
1, 677399, Note_on_c, 0, 80, 45
1, 677405, Control_c, 0, 67, 82
1, 677420, Control_c, 0, 67, 83
1, 677435, Control_c, 0, 67, 84
1, 677450, Control_c, 0, 67, 84
1, 677454, Note_off_c, 0, 80, 56
1, 677464, Control_c, 0, 67, 85
1, 677468, Note_on_c, 0, 78, 42
1, 677507, Note_off_c, 0, 78, 52
1, 677515, Note_on_c, 0, 80, 41
1, 677581, Note_off_c, 0, 80, 56
1, 677588, Note_on_c, 0, 78, 45
1, 677640, Note_off_c, 0, 78, 49
1, 677649, Note_on_c, 0, 80, 40
1, 677699, Note_on_c, 0, 78, 45
1, 677707, Note_off_c, 0, 80, 51
1, 677772, Note_on_c, 0, 80, 34
1, 677789, Note_off_c, 0, 78, 0
1, 677797, Control_c, 0, 67, 84
1, 677811, Note_on_c, 0, 78, 32
1, 677867, Note_off_c, 0, 80, 0
1, 677882, Note_on_c, 0, 80, 37
1, 677915, Note_off_c, 0, 78, 0
1, 677936, Note_on_c, 0, 78, 28
1, 677945, Control_c, 0, 67, 84
1, 677948, Note_off_c, 0, 80, 57
1, 678004, Note_off_c, 0, 78, 54
1, 678019, Note_on_c, 0, 80, 35
1, 678073, Note_on_c, 0, 78, 38
1, 678076, Note_off_c, 0, 80, 43
1, 678125, Note_on_c, 0, 66, 31
1, 678126, Note_off_c, 0, 78, 47
1, 678128, Note_on_c, 0, 54, 30
1, 678168, Control_c, 0, 67, 83
1, 678186, Poly_aftertouch_c, 0, 80, 127
1, 678198, Control_c, 0, 67, 83
1, 678219, Note_on_c, 0, 78, 21
1, 678237, Poly_aftertouch_c, 0, 80, 0
1, 678243, Control_c, 0, 67, 82
1, 678260, Note_off_c, 0, 66, 35
1, 678318, Note_off_c, 0, 54, 42
1, 678338, Control_c, 0, 67, 82
1, 678339, Note_off_c, 0, 78, 35
1, 678362, Note_on_c, 0, 59, 41
1, 678365, Note_on_c, 0, 71, 48
1, 678368, Control_c, 0, 67, 81
1, 678389, Note_on_c, 0, 51, 33
1, 678398, Control_c, 0, 67, 81
1, 678410, Note_on_c, 0, 80, 12
1, 678413, Control_c, 0, 67, 80
1, 678428, Control_c, 0, 67, 80
1, 678481, Note_off_c, 0, 80, 0
1, 678483, Note_off_c, 0, 71, 38
1, 678487, Control_c, 0, 67, 79
1, 678496, Poly_aftertouch_c, 0, 78, 127
1, 678496, Note_on_c, 0, 80, 38
1, 678553, Note_off_c, 0, 80, 60
1, 678555, Note_on_c, 0, 78, 11
1, 678604, Note_off_c, 0, 51, 47
1, 678606, Note_on_c, 0, 73, 73
1, 678608, Note_off_c, 0, 59, 38
1, 678609, Note_off_c, 0, 78, 49
1, 678624, Note_on_c, 0, 61, 44
1, 678632, Note_on_c, 0, 54, 40
1, 678705, Note_on_c, 0, 80, 15
1, 678724, Note_on_c, 0, 78, 49
1, 678767, Note_off_c, 0, 78, 60
1, 678770, Note_off_c, 0, 61, 35
1, 678781, Note_off_c, 0, 80, 0
1, 678794, Note_off_c, 0, 73, 38
1, 678795, Note_on_c, 0, 80, 35
1, 678842, Control_c, 0, 67, 80
1, 678845, Note_off_c, 0, 80, 54
1, 678884, Note_on_c, 0, 78, 41
1, 678917, Control_c, 0, 64, 107
1, 678917, Control_c, 0, 67, 80
1, 678919, Note_off_c, 0, 78, 53
1, 678932, Control_c, 0, 64, 89
1, 678945, Note_on_c, 0, 75, 59
1, 678947, Control_c, 0, 64, 74
1, 678953, Note_off_c, 0, 54, 44
1, 678958, Note_on_c, 0, 63, 36
1, 678961, Control_c, 0, 64, 60
1, 678971, Note_on_c, 0, 59, 40
1, 678976, Control_c, 0, 64, 47
1, 678991, Control_c, 0, 64, 60
1, 679006, Control_c, 0, 64, 63
1, 679021, Control_c, 0, 64, 65
1, 679043, Control_c, 0, 64, 68
1, 679043, Control_c, 0, 67, 80
1, 679049, Note_on_c, 0, 80, 30
1, 679058, Control_c, 0, 64, 72
1, 679073, Control_c, 0, 64, 76
1, 679073, Control_c, 0, 67, 79
1, 679086, Note_off_c, 0, 80, 53
1, 679087, Control_c, 0, 64, 80
1, 679087, Control_c, 0, 67, 79
1, 679102, Control_c, 0, 64, 84
1, 679102, Control_c, 0, 67, 78
1, 679110, Note_on_c, 0, 78, 45
1, 679117, Control_c, 0, 64, 89
1, 679125, Note_off_c, 0, 63, 61
1, 679132, Control_c, 0, 64, 93
1, 679132, Control_c, 0, 67, 78
1, 679139, Note_off_c, 0, 59, 57
1, 679140, Note_off_c, 0, 78, 56
1, 679147, Control_c, 0, 64, 97
1, 679161, Control_c, 0, 64, 102
1, 679176, Control_c, 0, 64, 106
1, 679182, Note_on_c, 0, 80, 48
1, 679191, Control_c, 0, 64, 111
1, 679206, Control_c, 0, 64, 119
1, 679219, Note_off_c, 0, 80, 48
1, 679221, Control_c, 0, 64, 127
1, 679232, Note_on_c, 0, 78, 53
1, 679279, Note_off_c, 0, 78, 58
1, 679314, Note_on_c, 0, 80, 50
1, 679355, Note_off_c, 0, 80, 52
1, 679396, Note_on_c, 0, 78, 40
1, 679424, Note_off_c, 0, 78, 56
1, 679472, Note_on_c, 0, 80, 32
1, 679478, Note_on_c, 0, 35, 39
1, 679506, Note_on_c, 0, 78, 48
1, 679507, Note_off_c, 0, 80, 51
1, 679517, Note_off_c, 0, 35, 53
1, 679521, Note_off_c, 0, 75, 0
1, 679531, Note_on_c, 0, 42, 53
1, 679534, Note_off_c, 0, 78, 58
1, 679560, Note_off_c, 0, 42, 62
1, 679561, Control_c, 0, 67, 77
1, 679576, Control_c, 0, 67, 76
1, 679578, Note_on_c, 0, 80, 43
1, 679591, Control_c, 0, 67, 75
1, 679596, Poly_aftertouch_c, 0, 75, 0
1, 679605, Control_c, 0, 67, 74
1, 679616, Note_off_c, 0, 80, 50
1, 679620, Note_on_c, 0, 78, 54
1, 679649, Note_off_c, 0, 78, 60
1, 679665, Control_c, 0, 67, 74
1, 679681, Note_on_c, 0, 80, 44
1, 679695, Control_c, 0, 67, 75
1, 679729, Note_off_c, 0, 80, 56
1, 679734, Note_on_c, 0, 78, 59
1, 679739, Control_c, 0, 67, 75
1, 679754, Control_c, 0, 67, 76
1, 679769, Control_c, 0, 67, 76
1, 679780, Note_off_c, 0, 78, 60
1, 679794, Note_on_c, 0, 75, 73
1, 679800, Note_on_c, 0, 63, 50
1, 679803, Note_on_c, 0, 59, 44
1, 679806, Control_c, 0, 67, 77
1, 679851, Control_c, 0, 67, 77
1, 679874, Note_on_c, 0, 80, 40
1, 679876, Note_off_c, 0, 59, 43
1, 679880, Control_c, 0, 67, 78
1, 679927, Note_off_c, 0, 63, 50
1, 679929, Note_off_c, 0, 80, 56
1, 679946, Note_on_c, 0, 78, 49
1, 679980, Note_off_c, 0, 78, 54
1, 679984, Control_c, 0, 67, 78
1, 680046, Note_on_c, 0, 80, 31
1, 680082, Note_off_c, 0, 80, 52
1, 680088, Note_on_c, 0, 78, 43
1, 680126, Note_off_c, 0, 78, 52
1, 680201, Note_on_c, 0, 80, 13
1, 680230, Note_on_c, 0, 78, 43
1, 680261, Note_off_c, 0, 78, 55
1, 680287, Note_off_c, 0, 80, 0
1, 680306, Note_on_c, 0, 80, 19
1, 680309, Control_c, 0, 67, 78
1, 680339, Control_c, 0, 67, 77
1, 680351, Note_off_c, 0, 80, 49
1, 680354, Control_c, 0, 67, 77
1, 680355, Note_on_c, 0, 78, 49
1, 680359, Note_on_c, 0, 35, 49
1, 680386, Note_off_c, 0, 78, 60
1, 680389, Note_off_c, 0, 35, 63
1, 680398, Note_on_c, 0, 42, 54
1, 680413, Control_c, 0, 67, 76
1, 680428, Control_c, 0, 67, 76
1, 680429, Note_off_c, 0, 42, 63
1, 680459, Control_c, 0, 67, 75
1, 680476, Note_on_c, 0, 78, 57
1, 680487, Poly_aftertouch_c, 0, 80, 0
1, 680509, Note_off_c, 0, 78, 63
1, 680523, Note_on_c, 0, 80, 17
1, 680539, Note_off_c, 0, 75, 36
1, 680555, Control_c, 0, 67, 75
1, 680585, Control_c, 0, 67, 76
1, 680600, Control_c, 0, 67, 76
1, 680602, Note_off_c, 0, 80, 52
1, 680604, Note_on_c, 0, 78, 44
1, 680629, Control_c, 0, 64, 114
1, 680629, Control_c, 0, 67, 77
1, 680633, Note_off_c, 0, 78, 57
1, 680644, Control_c, 0, 64, 88
1, 680653, Note_on_c, 0, 75, 61
1, 680658, Control_c, 0, 64, 67
1, 680673, Note_on_c, 0, 59, 44
1, 680673, Control_c, 0, 64, 61
1, 680676, Note_on_c, 0, 63, 50
1, 680688, Control_c, 0, 64, 66
1, 680703, Control_c, 0, 64, 68
1, 680703, Control_c, 0, 67, 76
1, 680717, Note_on_c, 0, 80, 52
1, 680718, Control_c, 0, 64, 70
1, 680718, Control_c, 0, 67, 76
1, 680732, Control_c, 0, 64, 74
1, 680747, Control_c, 0, 64, 79
1, 680747, Control_c, 0, 67, 75
1, 680762, Control_c, 0, 64, 84
1, 680762, Control_c, 0, 67, 74
1, 680777, Control_c, 0, 64, 88
1, 680779, Note_off_c, 0, 80, 52
1, 680792, Control_c, 0, 64, 92
1, 680794, Note_on_c, 0, 78, 37
1, 680806, Control_c, 0, 64, 94
1, 680821, Control_c, 0, 64, 96
1, 680821, Control_c, 0, 67, 74
1, 680823, Note_off_c, 0, 78, 55
1, 680832, Note_on_c, 0, 80, 40
1, 680836, Control_c, 0, 64, 98
1, 680836, Control_c, 0, 67, 73
1, 680851, Control_c, 0, 64, 101
1, 680866, Control_c, 0, 64, 104
1, 680881, Note_off_c, 0, 80, 63
1, 680881, Control_c, 0, 64, 108
1, 680894, Note_on_c, 0, 78, 65
1, 680895, Note_off_c, 0, 59, 38
1, 680896, Control_c, 0, 64, 111
1, 680896, Control_c, 0, 67, 73
1, 680899, Note_off_c, 0, 63, 37
1, 680911, Control_c, 0, 64, 114
1, 680911, Control_c, 0, 67, 72
1, 680926, Control_c, 0, 64, 119
1, 680940, Control_c, 0, 64, 127
1, 680943, Note_off_c, 0, 75, 42
1, 680949, Note_off_c, 0, 78, 52
1, 680950, Note_on_c, 0, 80, 62
1, 680955, Control_c, 0, 67, 72
1, 680985, Control_c, 0, 67, 71
1, 681000, Control_c, 0, 67, 70
1, 681011, Note_off_c, 0, 80, 62
1, 681014, Control_c, 0, 67, 69
1, 681029, Control_c, 0, 67, 69
1, 681030, Note_on_c, 0, 61, 55
1, 681030, Note_on_c, 0, 73, 82
1, 681033, Note_on_c, 0, 58, 55
1, 681044, Control_c, 0, 67, 68
1, 681058, Control_c, 0, 67, 68
1, 681060, Note_off_c, 0, 73, 62
1, 681078, Note_off_c, 0, 61, 54
1, 681088, Control_c, 0, 67, 67
1, 681098, Note_on_c, 0, 80, 48
1, 681134, Note_on_c, 0, 59, 56
1, 681137, Note_on_c, 0, 63, 54
1, 681139, Note_on_c, 0, 75, 78
1, 681148, Note_off_c, 0, 80, 55
1, 681148, Control_c, 0, 67, 67
1, 681175, Note_off_c, 0, 58, 36
1, 681178, Poly_aftertouch_c, 0, 80, 0
1, 681188, Note_off_c, 0, 63, 52
1, 681192, Note_on_c, 0, 80, 46
1, 681203, Note_off_c, 0, 75, 59
1, 681235, Note_off_c, 0, 59, 52
1, 681253, Note_on_c, 0, 78, 75
1, 681255, Note_off_c, 0, 80, 63
1, 681289, Control_c, 0, 67, 67
1, 681330, Note_on_c, 0, 80, 62
1, 681334, Control_c, 0, 67, 68
1, 681349, Control_c, 0, 67, 68
1, 681379, Control_c, 0, 64, 110
1, 681384, Note_off_c, 0, 80, 61
1, 681393, Note_on_c, 0, 75, 83
1, 681394, Control_c, 0, 64, 92
1, 681396, Note_off_c, 0, 78, 27
1, 681407, Note_on_c, 0, 59, 49
1, 681407, Note_on_c, 0, 63, 54
1, 681408, Control_c, 0, 64, 71
1, 681423, Control_c, 0, 64, 40
1, 681438, Control_c, 0, 64, 49
1, 681453, Control_c, 0, 64, 62
1, 681453, Control_c, 0, 67, 68
1, 681461, Note_on_c, 0, 80, 67
1, 681468, Control_c, 0, 64, 65
1, 681482, Control_c, 0, 64, 67
1, 681497, Control_c, 0, 64, 70
1, 681512, Control_c, 0, 64, 74
1, 681516, Note_off_c, 0, 80, 62
1, 681523, Note_on_c, 0, 78, 63
1, 681527, Control_c, 0, 64, 77
1, 681542, Control_c, 0, 64, 80
1, 681542, Control_c, 0, 67, 67
1, 681556, Control_c, 0, 64, 83
1, 681559, Note_off_c, 0, 78, 53
1, 681571, Note_off_c, 0, 75, 0
1, 681571, Control_c, 0, 64, 85
1, 681578, Note_on_c, 0, 80, 54
1, 681586, Control_c, 0, 64, 87
1, 681601, Control_c, 0, 64, 90
1, 681608, Poly_aftertouch_c, 0, 75, 127
1, 681610, Note_off_c, 0, 63, 37
1, 681615, Note_off_c, 0, 80, 64
1, 681616, Control_c, 0, 64, 93
1, 681629, Note_on_c, 0, 78, 66
1, 681630, Control_c, 0, 64, 96
1, 681636, Note_off_c, 0, 59, 33
1, 681645, Control_c, 0, 64, 100
1, 681645, Control_c, 0, 67, 67
1, 681660, Control_c, 0, 64, 103
1, 681674, Note_off_c, 0, 78, 58
1, 681675, Control_c, 0, 64, 106
1, 681678, Poly_aftertouch_c, 0, 75, 0
1, 681684, Note_on_c, 0, 80, 66
1, 681689, Control_c, 0, 64, 110
1, 681689, Control_c, 0, 67, 66
1, 681704, Control_c, 0, 64, 114
1, 681719, Control_c, 0, 64, 118
1, 681719, Control_c, 0, 67, 66
1, 681734, Control_c, 0, 64, 121
1, 681745, Note_off_c, 0, 80, 61
1, 681749, Control_c, 0, 64, 127
1, 681762, Note_on_c, 0, 73, 91
1, 681763, Control_c, 0, 67, 65
1, 681778, Control_c, 0, 67, 65
1, 681780, Note_on_c, 0, 58, 55
1, 681792, Note_on_c, 0, 61, 46
1, 681793, Control_c, 0, 67, 64
1, 681803, Note_off_c, 0, 73, 61
1, 681808, Control_c, 0, 67, 61
1, 681823, Control_c, 0, 67, 58
1, 681831, Note_on_c, 0, 80, 59
1, 681838, Control_c, 0, 67, 54
1, 681847, Note_off_c, 0, 61, 53
1, 681853, Control_c, 0, 67, 49
1, 681862, Note_off_c, 0, 58, 57
1, 681868, Control_c, 0, 67, 45
1, 681872, Note_on_c, 0, 75, 81
1, 681876, Note_off_c, 0, 80, 60
1, 681876, Note_on_c, 0, 63, 58
1, 681881, Note_on_c, 0, 59, 51
1, 681882, Control_c, 0, 67, 40
1, 681897, Control_c, 0, 67, 36
1, 681912, Control_c, 0, 67, 33
1, 681927, Control_c, 0, 67, 31
1, 681937, Note_off_c, 0, 63, 55
1, 681942, Control_c, 0, 67, 29
1, 681943, Note_off_c, 0, 75, 56
1, 681956, Control_c, 0, 67, 27
1, 681957, Note_on_c, 0, 80, 59
1, 681971, Control_c, 0, 67, 26
1, 681986, Control_c, 0, 67, 25
1, 681992, Note_off_c, 0, 80, 62
1, 682001, Note_on_c, 0, 78, 71
1, 682015, Control_c, 0, 67, 24
1, 682037, Control_c, 0, 67, 24
1, 682040, Note_off_c, 0, 59, 32
1, 682068, Control_c, 0, 67, 23
1, 682069, Note_off_c, 0, 78, 59
1, 682090, Note_on_c, 0, 80, 65
1, 682184, Note_off_c, 0, 80, 60
1, 682187, Control_c, 0, 64, 110
1, 682201, Control_c, 0, 64, 97
1, 682216, Control_c, 0, 64, 83
1, 682224, Note_on_c, 0, 78, 74
1, 682231, Note_on_c, 0, 63, 46
1, 682231, Control_c, 0, 64, 69
1, 682234, Note_on_c, 0, 54, 37
1, 682241, Note_on_c, 0, 66, 39
1, 682246, Control_c, 0, 64, 38
1, 682261, Control_c, 0, 64, 0
1, 682291, Control_c, 0, 64, 35
1, 682305, Control_c, 0, 64, 47
1, 682320, Control_c, 0, 64, 55
1, 682335, Control_c, 0, 64, 62
1, 682350, Control_c, 0, 64, 65
1, 682365, Control_c, 0, 64, 68
1, 682379, Control_c, 0, 64, 70
1, 682394, Control_c, 0, 64, 72
1, 682409, Control_c, 0, 64, 74
1, 682424, Control_c, 0, 64, 77
1, 682438, Control_c, 0, 64, 80
1, 682453, Control_c, 0, 64, 83
1, 682468, Control_c, 0, 64, 85
1, 682476, Note_off_c, 0, 78, 61
1, 682483, Control_c, 0, 64, 88
1, 682498, Control_c, 0, 64, 90
1, 682502, Note_on_c, 0, 80, 53
1, 682512, Control_c, 0, 64, 93
1, 682527, Control_c, 0, 64, 95
1, 682538, Note_off_c, 0, 80, 64
1, 682542, Control_c, 0, 64, 97
1, 682557, Control_c, 0, 64, 100
1, 682559, Note_on_c, 0, 78, 59
1, 682572, Control_c, 0, 64, 102
1, 682586, Control_c, 0, 64, 105
1, 682593, Note_off_c, 0, 66, 37
1, 682594, Note_off_c, 0, 78, 59
1, 682601, Control_c, 0, 64, 107
1, 682616, Control_c, 0, 64, 110
1, 682620, Note_off_c, 0, 63, 54
1, 682628, Note_on_c, 0, 80, 54
1, 682631, Control_c, 0, 64, 112
1, 682646, Control_c, 0, 64, 117
1, 682651, Note_off_c, 0, 80, 62
1, 682660, Control_c, 0, 64, 123
1, 682674, Note_on_c, 0, 78, 56
1, 682675, Control_c, 0, 64, 127
1, 682694, Note_off_c, 0, 78, 63
1, 682728, Note_on_c, 0, 80, 61
1, 682756, Note_off_c, 0, 80, 65
1, 682763, Note_on_c, 0, 78, 70
1, 682814, Note_off_c, 0, 78, 55
1, 682832, Note_on_c, 0, 80, 63
1, 682874, Note_off_c, 0, 80, 60
1, 682876, Note_on_c, 0, 75, 70
1, 682899, Note_on_c, 0, 63, 40
1, 682906, Note_on_c, 0, 59, 42
1, 682948, Note_on_c, 0, 80, 54
1, 683004, Note_off_c, 0, 59, 55
1, 683004, Note_off_c, 0, 80, 60
1, 683015, Note_on_c, 0, 78, 57
1, 683041, Note_off_c, 0, 78, 59
1, 683056, Note_on_c, 0, 80, 46
1, 683058, Note_off_c, 0, 54, 45
1, 683115, Note_on_c, 0, 78, 67
1, 683116, Note_off_c, 0, 80, 61
1, 683183, Note_on_c, 0, 80, 53
1, 683187, Note_off_c, 0, 75, 46
1, 683189, Note_off_c, 0, 78, 53
1, 683251, Note_off_c, 0, 80, 62
1, 683261, Control_c, 0, 64, 113
1, 683272, Note_on_c, 0, 73, 64
1, 683276, Control_c, 0, 64, 100
1, 683276, Control_c, 0, 67, 24
1, 683285, Note_on_c, 0, 54, 35
1, 683290, Note_off_c, 0, 63, 35
1, 683291, Control_c, 0, 64, 86
1, 683293, Note_on_c, 0, 61, 42
1, 683299, Note_on_c, 0, 58, 38
1, 683306, Control_c, 0, 64, 70
1, 683306, Control_c, 0, 67, 24
1, 683321, Control_c, 0, 64, 53
1, 683335, Control_c, 0, 64, 49
1, 683348, Note_on_c, 0, 80, 45
1, 683350, Control_c, 0, 64, 58
1, 683365, Control_c, 0, 64, 61
1, 683380, Control_c, 0, 64, 63
1, 683390, Note_off_c, 0, 80, 62
1, 683395, Control_c, 0, 64, 64
1, 683409, Control_c, 0, 64, 66
1, 683412, Note_on_c, 0, 78, 51
1, 683424, Control_c, 0, 64, 68
1, 683439, Control_c, 0, 64, 70
1, 683441, Note_off_c, 0, 78, 57
1, 683453, Control_c, 0, 64, 72
1, 683467, Note_on_c, 0, 80, 57
1, 683468, Control_c, 0, 64, 74
1, 683483, Control_c, 0, 64, 77
1, 683483, Control_c, 0, 67, 25
1, 683498, Control_c, 0, 64, 79
1, 683510, Note_off_c, 0, 80, 60
1, 683513, Control_c, 0, 64, 82
1, 683525, Note_off_c, 0, 61, 41
1, 683529, Note_on_c, 0, 78, 59
1, 683535, Control_c, 0, 64, 84
1, 683550, Control_c, 0, 64, 87
1, 683550, Control_c, 0, 67, 25
1, 683561, Note_off_c, 0, 78, 54
1, 683565, Control_c, 0, 64, 89
1, 683565, Control_c, 0, 67, 26
1, 683580, Control_c, 0, 64, 91
1, 683580, Control_c, 0, 67, 27
1, 683582, Note_on_c, 0, 80, 48
1, 683590, Note_off_c, 0, 58, 42
1, 683593, Note_off_c, 0, 54, 47
1, 683595, Control_c, 0, 64, 94
1, 683609, Control_c, 0, 64, 96
1, 683609, Control_c, 0, 67, 27
1, 683619, Note_off_c, 0, 80, 62
1, 683624, Control_c, 0, 64, 98
1, 683624, Control_c, 0, 67, 28
1, 683639, Control_c, 0, 64, 101
1, 683646, Note_off_c, 0, 73, 0
1, 683654, Note_on_c, 0, 78, 43
1, 683655, Control_c, 0, 64, 103
1, 683655, Control_c, 0, 67, 28
1, 683670, Control_c, 0, 64, 106
1, 683670, Control_c, 0, 67, 29
1, 683682, Note_off_c, 0, 78, 55
1, 683683, Poly_aftertouch_c, 0, 73, 127
1, 683684, Note_on_c, 0, 80, 61
1, 683684, Control_c, 0, 64, 107
1, 683699, Control_c, 0, 64, 108
1, 683699, Control_c, 0, 67, 29
1, 683714, Control_c, 0, 64, 109
1, 683722, Note_off_c, 0, 80, 58
1, 683729, Control_c, 0, 64, 110
1, 683729, Control_c, 0, 67, 30
1, 683744, Control_c, 0, 64, 112
1, 683747, Note_on_c, 0, 78, 45
1, 683758, Control_c, 0, 64, 113
1, 683771, Note_off_c, 0, 78, 60
1, 683773, Control_c, 0, 64, 113
1, 683786, Note_on_c, 0, 80, 49
1, 683818, Control_c, 0, 64, 114
1, 683818, Control_c, 0, 67, 30
1, 683822, Note_off_c, 0, 80, 56
1, 683855, Note_on_c, 0, 78, 47
1, 683877, Control_c, 0, 67, 31
1, 683880, Note_off_c, 0, 78, 58
1, 683892, Control_c, 0, 67, 31
1, 683898, Note_on_c, 0, 80, 58
1, 683925, Note_off_c, 0, 80, 59
1, 683951, Control_c, 0, 67, 32
1, 683959, Note_on_c, 0, 78, 49
1, 683966, Control_c, 0, 67, 32
1, 683985, Note_off_c, 0, 78, 58
1, 683996, Control_c, 0, 67, 33
1, 684002, Note_on_c, 0, 80, 60
1, 684005, Note_on_c, 0, 30, 42
1, 684011, Control_c, 0, 64, 114
1, 684025, Control_c, 0, 67, 33
1, 684029, Note_off_c, 0, 80, 57
1, 684040, Control_c, 0, 67, 34
1, 684055, Note_on_c, 0, 78, 50
1, 684069, Control_c, 0, 67, 34
1, 684086, Note_off_c, 0, 78, 52
1, 684094, Note_on_c, 0, 42, 46
1, 684099, Control_c, 0, 67, 35
1, 684106, Note_off_c, 0, 30, 52
1, 684108, Note_on_c, 0, 80, 58
1, 684114, Control_c, 0, 67, 36
1, 684136, Note_off_c, 0, 80, 58
1, 684139, Note_off_c, 0, 42, 58
1, 684143, Control_c, 0, 67, 38
1, 684158, Control_c, 0, 67, 40
1, 684164, Note_on_c, 0, 78, 45
1, 684173, Control_c, 0, 67, 43
1, 684188, Control_c, 0, 67, 46
1, 684192, Note_off_c, 0, 78, 56
1, 684202, Control_c, 0, 67, 50
1, 684211, Note_on_c, 0, 80, 60
1, 684217, Control_c, 0, 67, 53
1, 684232, Control_c, 0, 67, 56
1, 684242, Note_off_c, 0, 80, 58
1, 684247, Control_c, 0, 67, 60
1, 684262, Control_c, 0, 67, 64
1, 684279, Note_on_c, 0, 78, 51
1, 684284, Control_c, 0, 67, 67
1, 684299, Control_c, 0, 67, 70
1, 684303, Note_off_c, 0, 78, 58
1, 684314, Control_c, 0, 67, 72
1, 684329, Control_c, 0, 67, 74
1, 684339, Note_on_c, 0, 80, 39
1, 684344, Control_c, 0, 67, 76
1, 684358, Control_c, 0, 67, 77
1, 684369, Note_off_c, 0, 80, 54
1, 684372, Note_on_c, 0, 78, 51
1, 684373, Control_c, 0, 67, 78
1, 684384, Poly_aftertouch_c, 0, 73, 0
1, 684388, Control_c, 0, 67, 80
1, 684398, Note_off_c, 0, 78, 54
1, 684402, Control_c, 0, 67, 82
1, 684417, Control_c, 0, 67, 84
1, 684423, Note_on_c, 0, 80, 57
1, 684432, Control_c, 0, 67, 85
1, 684447, Control_c, 0, 67, 86
1, 684463, Control_c, 0, 67, 87
1, 684478, Control_c, 0, 67, 88
1, 684480, Note_off_c, 0, 80, 53
1, 684491, Note_on_c, 0, 78, 54
1, 684493, Control_c, 0, 67, 90
1, 684507, Control_c, 0, 67, 91
1, 684522, Control_c, 0, 67, 92
1, 684537, Control_c, 0, 67, 93
1, 684552, Control_c, 0, 67, 95
1, 684567, Control_c, 0, 67, 96
1, 684581, Control_c, 0, 67, 97
1, 684596, Control_c, 0, 67, 98
1, 684611, Control_c, 0, 67, 98
1, 684626, Control_c, 0, 64, 114
1, 684626, Control_c, 0, 67, 100
1, 684641, Control_c, 0, 67, 101
1, 684655, Control_c, 0, 67, 101
1, 684679, Note_off_c, 0, 78, 56
1, 684685, Control_c, 0, 64, 113
1, 684699, Control_c, 0, 64, 112
1, 684714, Control_c, 0, 64, 112
1, 684729, Control_c, 0, 64, 111
1, 684744, Control_c, 0, 64, 110
1, 684759, Control_c, 0, 64, 110
1, 684774, Control_c, 0, 64, 109
1, 684789, Control_c, 0, 64, 108
1, 684804, Control_c, 0, 64, 107
1, 684818, Control_c, 0, 64, 104
1, 684825, Note_on_c, 0, 66, 43
1, 684833, Control_c, 0, 64, 102
1, 684847, Note_on_c, 0, 74, 45
1, 684848, Control_c, 0, 64, 100
1, 684863, Control_c, 0, 64, 97
1, 684874, Note_on_c, 0, 90, 75
1, 684878, Control_c, 0, 64, 93
1, 684892, Control_c, 0, 64, 87
1, 684896, Note_on_c, 0, 78, 43
1, 684907, Control_c, 0, 64, 77
1, 684922, Control_c, 0, 64, 64
1, 684937, Control_c, 0, 64, 49
1, 684952, Control_c, 0, 64, 57
1, 684966, Control_c, 0, 64, 62
1, 684981, Control_c, 0, 64, 63
1, 684996, Control_c, 0, 64, 65
1, 685011, Control_c, 0, 64, 67
1, 685033, Control_c, 0, 64, 70
1, 685048, Control_c, 0, 64, 73
1, 685063, Control_c, 0, 64, 76
1, 685078, Control_c, 0, 64, 79
1, 685093, Control_c, 0, 64, 82
1, 685093, Control_c, 0, 67, 101
1, 685107, Control_c, 0, 64, 85
1, 685116, Note_off_c, 0, 90, 60
1, 685122, Control_c, 0, 64, 89
1, 685137, Control_c, 0, 64, 91
1, 685152, Control_c, 0, 64, 93
1, 685167, Control_c, 0, 64, 95
1, 685181, Control_c, 0, 64, 98
1, 685196, Control_c, 0, 64, 100
1, 685211, Control_c, 0, 64, 103
1, 685215, Note_off_c, 0, 78, 37
1, 685225, Control_c, 0, 64, 106
1, 685225, Control_c, 0, 67, 100
1, 685240, Control_c, 0, 64, 109
1, 685249, Note_on_c, 0, 79, 45
1, 685256, Control_c, 0, 64, 112
1, 685271, Control_c, 0, 64, 115
1, 685275, Note_off_c, 0, 79, 56
1, 685286, Control_c, 0, 64, 118
1, 685301, Control_c, 0, 64, 122
1, 685316, Control_c, 0, 64, 127
1, 685317, Note_on_c, 0, 78, 42
1, 685330, Control_c, 0, 67, 100
1, 685347, Note_off_c, 0, 78, 54
1, 685348, Note_on_c, 0, 79, 60
1, 685376, Note_off_c, 0, 79, 52
1, 685404, Control_c, 0, 67, 99
1, 685421, Note_on_c, 0, 78, 42
1, 685448, Note_off_c, 0, 78, 58
1, 685471, Note_on_c, 0, 79, 35
1, 685508, Control_c, 0, 67, 99
1, 685514, Note_off_c, 0, 79, 44
1, 685531, Note_on_c, 0, 78, 34
1, 685557, Note_on_c, 0, 79, 36
1, 685564, Note_off_c, 0, 78, 53
1, 685582, Control_c, 0, 67, 98
1, 685615, Note_off_c, 0, 79, 62
1, 685624, Note_on_c, 0, 78, 40
1, 685704, Note_off_c, 0, 74, 35
1, 685714, Note_off_c, 0, 78, 55
1, 685735, Note_on_c, 0, 71, 44
1, 685736, Note_on_c, 0, 86, 67
1, 685796, Control_c, 0, 67, 98
1, 685882, Note_on_c, 0, 79, 51
1, 685891, Poly_aftertouch_c, 0, 78, 127
1, 685921, Note_off_c, 0, 79, 52
1, 685942, Note_on_c, 0, 78, 20
1, 685984, Note_off_c, 0, 78, 49
1, 686015, Note_off_c, 0, 66, 37
1, 686020, Note_on_c, 0, 79, 30
1, 686034, Control_c, 0, 67, 97
1, 686058, Note_off_c, 0, 79, 51
1, 686063, Note_on_c, 0, 78, 45
1, 686080, Note_off_c, 0, 86, 12
1, 686089, Note_off_c, 0, 78, 57
1, 686107, Note_on_c, 0, 79, 41
1, 686172, Note_on_c, 0, 78, 58
1, 686227, Control_c, 0, 64, 119
1, 686242, Control_c, 0, 64, 107
1, 686257, Control_c, 0, 64, 93
1, 686270, Note_off_c, 0, 71, 44
1, 686271, Control_c, 0, 64, 81
1, 686285, Note_on_c, 0, 85, 62
1, 686286, Note_on_c, 0, 66, 34
1, 686286, Control_c, 0, 64, 70
1, 686294, Note_on_c, 0, 70, 37
1, 686294, Note_off_c, 0, 78, 44
1, 686301, Control_c, 0, 64, 66
1, 686314, Note_off_c, 0, 79, 41
1, 686316, Control_c, 0, 64, 68
1, 686331, Control_c, 0, 64, 69
1, 686345, Control_c, 0, 64, 70
1, 686360, Control_c, 0, 64, 71
1, 686375, Control_c, 0, 64, 74
1, 686375, Control_c, 0, 67, 97
1, 686390, Control_c, 0, 64, 77
1, 686405, Control_c, 0, 64, 80
1, 686405, Control_c, 0, 67, 96
1, 686419, Control_c, 0, 64, 83
1, 686434, Control_c, 0, 64, 86
1, 686434, Control_c, 0, 67, 96
1, 686449, Control_c, 0, 64, 89
1, 686463, Note_off_c, 0, 85, 59
1, 686464, Control_c, 0, 64, 91
1, 686464, Control_c, 0, 67, 95
1, 686479, Control_c, 0, 64, 94
1, 686479, Control_c, 0, 67, 95
1, 686494, Control_c, 0, 64, 97
1, 686494, Control_c, 0, 67, 94
1, 686503, Note_on_c, 0, 78, 53
1, 686509, Control_c, 0, 64, 100
1, 686531, Control_c, 0, 64, 103
1, 686531, Control_c, 0, 67, 94
1, 686539, Note_off_c, 0, 78, 61
1, 686546, Control_c, 0, 64, 106
1, 686546, Control_c, 0, 67, 93
1, 686560, Control_c, 0, 64, 109
1, 686560, Control_c, 0, 67, 93
1, 686564, Note_on_c, 0, 79, 53
1, 686575, Control_c, 0, 64, 112
1, 686575, Control_c, 0, 67, 92
1, 686590, Control_c, 0, 64, 117
1, 686590, Control_c, 0, 67, 92
1, 686604, Control_c, 0, 64, 127
1, 686613, Note_off_c, 0, 79, 58
1, 686619, Control_c, 0, 67, 91
1, 686628, Note_on_c, 0, 78, 55
1, 686634, Control_c, 0, 67, 91
1, 686647, Note_off_c, 0, 70, 36
1, 686649, Control_c, 0, 67, 90
1, 686657, Note_off_c, 0, 78, 56
1, 686664, Control_c, 0, 67, 90
1, 686692, Note_on_c, 0, 79, 56
1, 686694, Control_c, 0, 67, 89
1, 686709, Control_c, 0, 67, 89
1, 686723, Control_c, 0, 67, 88
1, 686734, Note_off_c, 0, 79, 60
1, 686738, Control_c, 0, 67, 88
1, 686747, Note_on_c, 0, 78, 52
1, 686753, Control_c, 0, 67, 86
1, 686768, Control_c, 0, 67, 84
1, 686774, Note_off_c, 0, 78, 57
1, 686783, Control_c, 0, 67, 82
1, 686792, Note_on_c, 0, 79, 48
1, 686797, Control_c, 0, 67, 80
1, 686812, Control_c, 0, 67, 78
1, 686827, Control_c, 0, 67, 77
1, 686839, Note_off_c, 0, 79, 61
1, 686842, Control_c, 0, 67, 76
1, 686851, Note_on_c, 0, 78, 57
1, 686858, Control_c, 0, 67, 75
1, 686871, Note_off_c, 0, 78, 63
1, 686872, Control_c, 0, 67, 74
1, 686878, Note_off_c, 0, 66, 32
1, 686887, Control_c, 0, 67, 73
1, 686896, Note_on_c, 0, 79, 53
1, 686902, Control_c, 0, 67, 72
1, 686917, Control_c, 0, 67, 71
1, 686932, Control_c, 0, 67, 70
1, 686940, Note_off_c, 0, 79, 46
1, 686947, Control_c, 0, 67, 68
1, 686952, Note_on_c, 0, 78, 59
1, 686962, Control_c, 0, 67, 66
1, 686976, Control_c, 0, 67, 64
1, 686978, Note_off_c, 0, 78, 60
1, 686991, Control_c, 0, 67, 62
1, 687006, Control_c, 0, 67, 60
1, 687008, Note_on_c, 0, 79, 42
1, 687020, Control_c, 0, 67, 58
1, 687035, Control_c, 0, 67, 54
1, 687048, Note_off_c, 0, 79, 51
1, 687050, Control_c, 0, 67, 52
1, 687052, Note_on_c, 0, 78, 65
1, 687065, Control_c, 0, 67, 50
1, 687080, Control_c, 0, 67, 48
1, 687087, Note_off_c, 0, 78, 58
1, 687094, Control_c, 0, 67, 45
1, 687109, Control_c, 0, 67, 43
1, 687110, Note_on_c, 0, 79, 48
1, 687124, Control_c, 0, 67, 42
1, 687140, Control_c, 0, 67, 40
1, 687153, Note_off_c, 0, 79, 54
1, 687155, Control_c, 0, 67, 38
1, 687169, Control_c, 0, 67, 37
1, 687174, Note_on_c, 0, 78, 48
1, 687184, Control_c, 0, 67, 34
1, 687197, Note_off_c, 0, 78, 61
1, 687199, Control_c, 0, 67, 32
1, 687206, Note_on_c, 0, 79, 47
1, 687214, Control_c, 0, 67, 30
1, 687228, Control_c, 0, 67, 28
1, 687243, Control_c, 0, 67, 25
1, 687245, Note_off_c, 0, 79, 60
1, 687258, Control_c, 0, 67, 24
1, 687281, Control_c, 0, 67, 21
1, 687283, Note_on_c, 0, 78, 48
1, 687296, Control_c, 0, 67, 19
1, 687307, Note_off_c, 0, 78, 59
1, 687310, Control_c, 0, 67, 17
1, 687325, Note_on_c, 0, 79, 51
1, 687325, Control_c, 0, 67, 15
1, 687340, Control_c, 0, 67, 12
1, 687355, Control_c, 0, 67, 10
1, 687356, Note_off_c, 0, 79, 59
1, 687370, Control_c, 0, 67, 8
1, 687383, Note_on_c, 0, 78, 54
1, 687384, Control_c, 0, 67, 0
1, 687405, Note_off_c, 0, 78, 59
1, 687434, Note_on_c, 0, 79, 54
1, 687466, Note_off_c, 0, 79, 56
1, 687473, Note_on_c, 0, 78, 69
1, 687531, Note_off_c, 0, 78, 61
1, 687555, Note_on_c, 0, 79, 58
1, 687615, Note_on_c, 0, 78, 64
1, 687617, Note_off_c, 0, 79, 59
1, 687619, Note_on_c, 0, 42, 96
1, 687636, Control_c, 0, 64, 83
1, 687651, Control_c, 0, 64, 36
1, 687666, Control_c, 0, 64, 0
1, 687680, Note_off_c, 0, 78, 61
1, 687681, Control_c, 0, 64, 61
1, 687690, Note_on_c, 0, 79, 54
1, 687696, Control_c, 0, 64, 67
1, 687710, Note_on_c, 0, 54, 87
1, 687711, Control_c, 0, 64, 75
1, 687725, Control_c, 0, 64, 85
1, 687734, Note_off_c, 0, 54, 69
1, 687737, Note_off_c, 0, 42, 64
1, 687740, Control_c, 0, 64, 98
1, 687755, Control_c, 0, 64, 107
1, 687756, Note_on_c, 0, 78, 67
1, 687760, Note_off_c, 0, 79, 60
1, 687770, Control_c, 0, 64, 115
1, 687785, Control_c, 0, 64, 127
1, 687826, Note_off_c, 0, 78, 59
1, 687841, Note_on_c, 0, 79, 59
1, 687869, Note_on_c, 0, 67, 101
1, 687874, Control_c, 0, 64, 103
1, 687880, Note_on_c, 0, 53, 86
1, 687880, Note_on_c, 0, 55, 81
1, 687888, Control_c, 0, 64, 101
1, 687897, Note_off_c, 0, 67, 65
1, 687900, Note_on_c, 0, 65, 43
1, 687901, Note_off_c, 0, 65, 127
1, 687903, Control_c, 0, 64, 106
1, 687904, Note_off_c, 0, 53, 71
1, 687904, Note_off_c, 0, 55, 69
1, 687908, Note_on_c, 0, 78, 69
1, 687912, Note_off_c, 0, 79, 59
1, 687917, Control_c, 0, 64, 118
1, 687930, Poly_aftertouch_c, 0, 65, 0
1, 687932, Control_c, 0, 64, 127
1, 687978, Note_off_c, 0, 78, 60
1, 687986, Note_on_c, 0, 79, 68
1, 687990, Note_on_c, 0, 57, 92
1, 687992, Note_on_c, 0, 69, 98
1, 688035, Note_off_c, 0, 57, 61
1, 688039, Note_off_c, 0, 69, 61
1, 688053, Note_off_c, 0, 79, 61
1, 688062, Note_on_c, 0, 78, 61
1, 688116, Note_on_c, 0, 70, 100
1, 688118, Note_off_c, 0, 78, 58
1, 688124, Note_on_c, 0, 58, 91
1, 688130, Note_on_c, 0, 79, 69
1, 688151, Note_off_c, 0, 70, 66
1, 688172, Note_off_c, 0, 58, 58
1, 688196, Note_off_c, 0, 79, 62
1, 688203, Note_on_c, 0, 78, 74
1, 688221, Control_c, 0, 64, 104
1, 688230, Note_on_c, 0, 64, 102
1, 688235, Note_on_c, 0, 52, 89
1, 688236, Control_c, 0, 64, 61
1, 688250, Control_c, 0, 64, 0
1, 688256, Note_off_c, 0, 64, 67
1, 688256, Note_off_c, 0, 78, 57
1, 688256, Note_off_c, 0, 52, 70
1, 688268, Note_on_c, 0, 79, 69
1, 688330, Note_off_c, 0, 79, 58
1, 688338, Note_on_c, 0, 66, 93
1, 688342, Note_on_c, 0, 54, 83
1, 688348, Note_on_c, 0, 78, 72
1, 688375, Note_off_c, 0, 54, 63
1, 688377, Note_off_c, 0, 66, 57
1, 688387, Note_off_c, 0, 78, 50
1, 688415, Note_on_c, 0, 79, 58
1, 688449, Note_on_c, 0, 67, 88
1, 688454, Note_on_c, 0, 55, 82
1, 688470, Note_off_c, 0, 67, 65
1, 688471, Note_off_c, 0, 79, 59
1, 688479, Note_off_c, 0, 55, 70
1, 688485, Note_on_c, 0, 78, 73
1, 688524, Note_off_c, 0, 78, 50
1, 688554, Note_on_c, 0, 79, 58
1, 688559, Note_on_c, 0, 61, 94
1, 688561, Note_on_c, 0, 49, 89
1, 688589, Note_off_c, 0, 61, 61
1, 688594, Note_off_c, 0, 49, 61
1, 688605, Note_off_c, 0, 79, 59
1, 688619, Note_on_c, 0, 78, 71
1, 688659, Note_off_c, 0, 78, 49
1, 688670, Note_on_c, 0, 62, 91
1, 688674, Note_on_c, 0, 50, 91
1, 688685, Note_on_c, 0, 79, 59
1, 688699, Note_off_c, 0, 62, 64
1, 688700, Note_off_c, 0, 50, 67
1, 688730, Note_off_c, 0, 79, 59
1, 688756, Note_on_c, 0, 78, 65
1, 688789, Note_on_c, 0, 64, 95
1, 688791, Note_on_c, 0, 52, 94
1, 688798, Note_off_c, 0, 78, 60
1, 688812, Note_off_c, 0, 64, 65
1, 688814, Note_on_c, 0, 79, 53
1, 688818, Note_off_c, 0, 52, 67
1, 688852, Note_off_c, 0, 79, 58
1, 688887, Note_on_c, 0, 78, 66
1, 688897, Note_on_c, 0, 58, 96
1, 688899, Note_on_c, 0, 46, 95
1, 688911, Note_off_c, 0, 78, 61
1, 688934, Note_off_c, 0, 58, 63
1, 688938, Note_on_c, 0, 79, 62
1, 688944, Note_off_c, 0, 46, 62
1, 688964, Note_off_c, 0, 79, 60
1, 688988, Note_on_c, 0, 78, 67
1, 689009, Note_on_c, 0, 59, 99
1, 689014, Note_on_c, 0, 47, 88
1, 689019, Note_off_c, 0, 78, 60
1, 689032, Note_on_c, 0, 48, 64
1, 689035, Note_on_c, 0, 79, 69
1, 689040, Note_off_c, 0, 47, 70
1, 689043, Note_off_c, 0, 59, 66
1, 689057, Note_off_c, 0, 48, 37
1, 689090, Note_off_c, 0, 79, 62
1, 689096, Note_on_c, 0, 78, 78
1, 689111, Note_on_c, 0, 61, 102
1, 689115, Note_on_c, 0, 49, 94
1, 689141, Note_off_c, 0, 61, 62
1, 689144, Note_off_c, 0, 78, 60
1, 689150, Note_on_c, 0, 79, 67
1, 689156, Note_off_c, 0, 49, 63
1, 689224, Note_on_c, 0, 54, 96
1, 689224, Note_on_c, 0, 42, 95
1, 689224, Note_on_c, 0, 78, 91
1, 689233, Note_off_c, 0, 79, 56
1, 689236, Control_c, 0, 64, 59
1, 689252, Control_c, 0, 64, 74
1, 689256, Note_off_c, 0, 78, 66
1, 689266, Note_off_c, 0, 54, 67
1, 689267, Control_c, 0, 64, 81
1, 689276, Note_off_c, 0, 42, 63
1, 689282, Control_c, 0, 64, 91
1, 689293, Note_on_c, 0, 44, 2
1, 689296, Control_c, 0, 64, 98
1, 689311, Control_c, 0, 64, 103
1, 689326, Control_c, 0, 64, 105
1, 689333, Note_off_c, 0, 44, 0
1, 689335, Note_on_c, 0, 91, 109
1, 689338, Note_on_c, 0, 55, 95
1, 689340, Note_on_c, 0, 43, 90
1, 689341, Control_c, 0, 64, 109
1, 689344, Note_on_c, 0, 79, 86
1, 689356, Poly_aftertouch_c, 0, 44, 0
1, 689356, Control_c, 0, 64, 116
1, 689361, Note_off_c, 0, 79, 72
1, 689365, Note_off_c, 0, 55, 67
1, 689370, Note_off_c, 0, 43, 66
1, 689370, Control_c, 0, 64, 124
1, 689373, Note_off_c, 0, 91, 66
1, 689385, Control_c, 0, 64, 126
1, 689439, Poly_aftertouch_c, 0, 81, 0
1, 689443, Note_on_c, 0, 54, 96
1, 689445, Control_c, 0, 64, 127
1, 689446, Note_on_c, 0, 42, 89
1, 689446, Note_on_c, 0, 90, 101
1, 689447, Note_on_c, 0, 78, 102
1, 689468, Note_on_c, 0, 91, 72
1, 689477, Note_on_c, 0, 44, 41
1, 689481, Note_off_c, 0, 78, 62
1, 689484, Note_off_c, 0, 54, 63
1, 689485, Note_off_c, 0, 91, 68
1, 689490, Note_off_c, 0, 90, 63
1, 689493, Note_off_c, 0, 42, 61
1, 689518, Note_off_c, 0, 44, 52
1, 689541, Control_c, 0, 64, 124
1, 689556, Control_c, 0, 64, 99
1, 689560, Note_on_c, 0, 88, 111
1, 689562, Note_on_c, 0, 52, 98
1, 689563, Note_on_c, 0, 76, 108
1, 689566, Note_on_c, 0, 40, 90
1, 689570, Control_c, 0, 64, 71
1, 689585, Control_c, 0, 64, 0
1, 689587, Note_off_c, 0, 52, 66
1, 689587, Note_off_c, 0, 76, 66
1, 689593, Note_off_c, 0, 88, 66
1, 689597, Note_off_c, 0, 40, 66
1, 689666, Note_on_c, 0, 50, 96
1, 689667, Note_on_c, 0, 86, 103
1, 689668, Note_on_c, 0, 38, 92
1, 689669, Note_on_c, 0, 74, 104
1, 689686, Note_off_c, 0, 74, 74
1, 689692, Note_off_c, 0, 38, 68
1, 689692, Note_off_c, 0, 50, 67
1, 689700, Note_off_c, 0, 86, 67
1, 689768, Note_on_c, 0, 49, 99
1, 689773, Note_on_c, 0, 73, 109
1, 689775, Note_on_c, 0, 85, 103
1, 689778, Note_on_c, 0, 37, 84
1, 689803, Note_off_c, 0, 73, 64
1, 689812, Note_off_c, 0, 49, 65
1, 689823, Note_off_c, 0, 85, 64
1, 689845, Note_off_c, 0, 37, 49
1, 689893, Note_on_c, 0, 71, 111
1, 689893, Note_on_c, 0, 83, 108
1, 689895, Note_on_c, 0, 47, 104
1, 689896, Note_on_c, 0, 35, 87
1, 689917, Note_off_c, 0, 71, 73
1, 689922, Note_off_c, 0, 83, 69
1, 689926, Control_c, 0, 64, 63
1, 689931, Note_off_c, 0, 35, 63
1, 689931, Note_off_c, 0, 47, 66
1, 689941, Control_c, 0, 64, 87
1, 689956, Control_c, 0, 64, 127
1, 690134, Control_c, 0, 64, 119
1, 690149, Control_c, 0, 64, 99
1, 690163, Control_c, 0, 64, 88
1, 690178, Control_c, 0, 64, 80
1, 690193, Control_c, 0, 64, 73
1, 690208, Control_c, 0, 64, 68
1, 690223, Control_c, 0, 64, 66
1, 690237, Control_c, 0, 64, 65
1, 690252, Control_c, 0, 64, 64
1, 690274, Control_c, 0, 64, 62
1, 690289, Control_c, 0, 64, 55
1, 690304, Control_c, 0, 64, 26
1, 690318, Control_c, 0, 64, 0
1, 694841, Control_c, 0, 64, 56
1, 694856, Control_c, 0, 64, 62
1, 694871, Control_c, 0, 64, 63
1, 694886, Control_c, 0, 64, 65
1, 694901, Control_c, 0, 64, 66
1, 694915, Control_c, 0, 64, 69
1, 694930, Control_c, 0, 64, 70
1, 694945, Control_c, 0, 64, 72
1, 694960, Control_c, 0, 64, 73
1, 694975, Control_c, 0, 64, 75
1, 694989, Control_c, 0, 64, 77
1, 695004, Control_c, 0, 64, 79
1, 695019, Control_c, 0, 64, 81
1, 695034, Control_c, 0, 64, 83
1, 695049, Control_c, 0, 64, 86
1, 695064, Control_c, 0, 64, 89
1, 695079, Control_c, 0, 64, 92
1, 695094, Control_c, 0, 64, 94
1, 695108, Control_c, 0, 64, 96
1, 695123, Control_c, 0, 64, 99
1, 695138, Control_c, 0, 64, 102
1, 695152, Control_c, 0, 64, 106
1, 695167, Control_c, 0, 64, 109
1, 695182, Control_c, 0, 64, 111
1, 695197, Control_c, 0, 64, 115
1, 695212, Control_c, 0, 64, 127
1, 695220, Note_on_c, 0, 78, 81
1, 695238, Note_on_c, 0, 66, 56
1, 695245, Note_on_c, 0, 54, 48
1, 695661, Note_off_c, 0, 78, 54
1, 695768, Note_off_c, 0, 66, 61
1, 695893, Note_off_c, 0, 54, 60
1, 695898, Note_on_c, 0, 76, 74
1, 695899, Note_on_c, 0, 52, 54
1, 695908, Note_on_c, 0, 64, 49
1, 695961, Control_c, 0, 64, 111
1, 695965, Poly_aftertouch_c, 0, 50, 127
1, 695975, Control_c, 0, 64, 101
1, 695990, Control_c, 0, 64, 94
1, 696005, Control_c, 0, 64, 87
1, 696020, Control_c, 0, 64, 79
1, 696035, Control_c, 0, 64, 69
1, 696049, Control_c, 0, 64, 44
1, 696064, Control_c, 0, 64, 0
1, 696089, Poly_aftertouch_c, 0, 50, 0
1, 696138, Control_c, 0, 64, 17
1, 696153, Control_c, 0, 64, 58
1, 696168, Control_c, 0, 64, 65
1, 696182, Control_c, 0, 64, 68
1, 696197, Control_c, 0, 64, 71
1, 696212, Control_c, 0, 64, 73
1, 696227, Control_c, 0, 64, 77
1, 696242, Control_c, 0, 64, 81
1, 696264, Control_c, 0, 64, 85
1, 696279, Control_c, 0, 64, 90
1, 696294, Control_c, 0, 64, 95
1, 696309, Control_c, 0, 64, 101
1, 696324, Control_c, 0, 64, 107
1, 696338, Control_c, 0, 64, 117
1, 696353, Control_c, 0, 64, 127
1, 696461, Note_off_c, 0, 64, 34
1, 696539, Note_off_c, 0, 76, 55
1, 696942, Note_on_c, 0, 69, 75
1, 696963, Note_on_c, 0, 45, 56
1, 696966, Note_on_c, 0, 57, 48
1, 696977, Control_c, 0, 64, 104
1, 696992, Control_c, 0, 64, 88
1, 697014, Control_c, 0, 64, 76
1, 697018, Note_off_c, 0, 52, 52
1, 697028, Control_c, 0, 64, 69
1, 697043, Control_c, 0, 64, 67
1, 697058, Control_c, 0, 64, 68
1, 697073, Control_c, 0, 64, 69
1, 697088, Control_c, 0, 64, 70
1, 697103, Control_c, 0, 64, 72
1, 697118, Control_c, 0, 64, 74
1, 697132, Control_c, 0, 64, 77
1, 697147, Control_c, 0, 64, 81
1, 697162, Control_c, 0, 64, 87
1, 697177, Control_c, 0, 64, 92
1, 697192, Control_c, 0, 64, 97
1, 697206, Control_c, 0, 64, 102
1, 697221, Control_c, 0, 64, 108
1, 697237, Control_c, 0, 64, 113
1, 697252, Control_c, 0, 64, 120
1, 697267, Control_c, 0, 64, 127
1, 697314, Note_off_c, 0, 57, 34
1, 697444, Control_c, 0, 64, 123
1, 697459, Control_c, 0, 64, 107
1, 697474, Control_c, 0, 64, 93
1, 697476, Note_on_c, 0, 71, 83
1, 697486, Note_on_c, 0, 59, 61
1, 697489, Control_c, 0, 64, 80
1, 697492, Note_on_c, 0, 47, 56
1, 697493, Note_off_c, 0, 69, 59
1, 697496, Note_off_c, 0, 45, 58
1, 697503, Control_c, 0, 64, 68
1, 697518, Control_c, 0, 64, 53
1, 697548, Control_c, 0, 64, 59
1, 697562, Control_c, 0, 64, 63
1, 697577, Control_c, 0, 64, 64
1, 697592, Control_c, 0, 64, 66
1, 697607, Control_c, 0, 64, 69
1, 697622, Control_c, 0, 64, 72
1, 697637, Control_c, 0, 64, 75
1, 697651, Control_c, 0, 64, 79
1, 697666, Control_c, 0, 64, 83
1, 697681, Control_c, 0, 64, 87
1, 697696, Control_c, 0, 64, 91
1, 697711, Control_c, 0, 64, 96
1, 697726, Control_c, 0, 64, 101
1, 697741, Control_c, 0, 64, 106
1, 697762, Note_off_c, 0, 59, 57
1, 697762, Control_c, 0, 64, 114
1, 697777, Control_c, 0, 64, 127
1, 697783, Note_off_c, 0, 71, 61
1, 698116, Note_on_c, 0, 64, 66
1, 698134, Control_c, 0, 64, 121
1, 698134, Note_on_c, 0, 40, 48
1, 698144, Note_on_c, 0, 52, 49
1, 698149, Control_c, 0, 64, 111
1, 698164, Control_c, 0, 64, 104
1, 698178, Control_c, 0, 64, 98
1, 698193, Control_c, 0, 64, 92
1, 698196, Note_off_c, 0, 47, 38
1, 698208, Control_c, 0, 64, 88
1, 698223, Control_c, 0, 64, 83
1, 698238, Control_c, 0, 64, 76
1, 698252, Control_c, 0, 64, 68
1, 698267, Control_c, 0, 64, 54
1, 698282, Control_c, 0, 64, 0
1, 698415, Control_c, 0, 67, 8
1, 698429, Control_c, 0, 67, 8
1, 698444, Control_c, 0, 67, 9
1, 698459, Control_c, 0, 67, 10
1, 698474, Control_c, 0, 67, 11
1, 698489, Control_c, 0, 67, 12
1, 698511, Control_c, 0, 67, 15
1, 698526, Control_c, 0, 67, 17
1, 698540, Control_c, 0, 67, 20
1, 698555, Control_c, 0, 67, 23
1, 698570, Control_c, 0, 64, 14
1, 698570, Control_c, 0, 67, 26
1, 698584, Control_c, 0, 64, 27
1, 698584, Control_c, 0, 67, 30
1, 698599, Control_c, 0, 64, 36
1, 698599, Control_c, 0, 67, 34
1, 698614, Control_c, 0, 64, 42
1, 698614, Control_c, 0, 67, 38
1, 698629, Control_c, 0, 64, 45
1, 698629, Control_c, 0, 67, 41
1, 698644, Control_c, 0, 64, 48
1, 698644, Control_c, 0, 67, 44
1, 698659, Control_c, 0, 64, 52
1, 698659, Control_c, 0, 67, 47
1, 698674, Control_c, 0, 64, 58
1, 698674, Control_c, 0, 67, 50
1, 698689, Control_c, 0, 64, 62
1, 698689, Control_c, 0, 67, 52
1, 698703, Control_c, 0, 64, 64
1, 698703, Control_c, 0, 67, 54
1, 698718, Control_c, 0, 64, 65
1, 698718, Control_c, 0, 67, 57
1, 698733, Control_c, 0, 64, 66
1, 698733, Control_c, 0, 67, 59
1, 698748, Control_c, 0, 64, 67
1, 698748, Control_c, 0, 67, 62
1, 698763, Control_c, 0, 64, 69
1, 698763, Control_c, 0, 67, 66
1, 698777, Control_c, 0, 64, 71
1, 698777, Control_c, 0, 67, 69
1, 698792, Control_c, 0, 64, 72
1, 698792, Control_c, 0, 67, 72
1, 698807, Control_c, 0, 64, 74
1, 698807, Control_c, 0, 67, 77
1, 698823, Control_c, 0, 64, 76
1, 698823, Control_c, 0, 67, 81
1, 698838, Control_c, 0, 64, 78
1, 698838, Control_c, 0, 67, 84
1, 698853, Control_c, 0, 64, 80
1, 698853, Control_c, 0, 67, 87
1, 698868, Control_c, 0, 64, 82
1, 698868, Control_c, 0, 67, 91
1, 698882, Control_c, 0, 64, 84
1, 698882, Control_c, 0, 67, 96
1, 698897, Control_c, 0, 64, 88
1, 698897, Control_c, 0, 67, 100
1, 698912, Control_c, 0, 64, 90
1, 698912, Control_c, 0, 67, 104
1, 698927, Control_c, 0, 64, 92
1, 698927, Control_c, 0, 67, 107
1, 698942, Control_c, 0, 64, 94
1, 698942, Control_c, 0, 67, 110
1, 698956, Control_c, 0, 64, 97
1, 698956, Control_c, 0, 67, 113
1, 698971, Control_c, 0, 64, 100
1, 698971, Control_c, 0, 67, 117
1, 698986, Control_c, 0, 64, 103
1, 698986, Control_c, 0, 67, 121
1, 699000, Control_c, 0, 64, 106
1, 699000, Control_c, 0, 67, 125
1, 699015, Control_c, 0, 64, 109
1, 699015, Control_c, 0, 67, 127
1, 699030, Control_c, 0, 64, 111
1, 699045, Control_c, 0, 64, 115
1, 699060, Control_c, 0, 64, 119
1, 699074, Control_c, 0, 64, 126
1, 699089, Control_c, 0, 64, 127
1, 699388, Note_off_c, 0, 52, 34
1, 699599, Note_off_c, 0, 64, 51
1, 699884, Control_c, 0, 64, 123
1, 699898, Control_c, 0, 64, 121
1, 699913, Control_c, 0, 64, 119
1, 699928, Control_c, 0, 64, 119
1, 699942, Control_c, 0, 64, 118
1, 699957, Control_c, 0, 64, 118
1, 699972, Control_c, 0, 64, 117
1, 699987, Control_c, 0, 64, 117
1, 700009, Control_c, 0, 64, 116
1, 700024, Control_c, 0, 64, 115
1, 700039, Control_c, 0, 64, 113
1, 700054, Control_c, 0, 64, 112
1, 700069, Control_c, 0, 64, 111
1, 700084, Control_c, 0, 64, 111
1, 700099, Control_c, 0, 64, 110
1, 700113, Control_c, 0, 64, 109
1, 700128, Control_c, 0, 64, 108
1, 700143, Control_c, 0, 64, 107
1, 700157, Control_c, 0, 64, 105
1, 700172, Control_c, 0, 64, 103
1, 700187, Control_c, 0, 64, 101
1, 700202, Control_c, 0, 64, 99
1, 700217, Control_c, 0, 64, 97
1, 700231, Control_c, 0, 64, 94
1, 700246, Control_c, 0, 64, 91
1, 700257, Note_on_c, 0, 66, 44
1, 700261, Control_c, 0, 64, 87
1, 700276, Control_c, 0, 64, 82
1, 700283, Note_on_c, 0, 42, 35
1, 700291, Control_c, 0, 64, 76
1, 700305, Control_c, 0, 64, 70
1, 700320, Control_c, 0, 64, 62
1, 700334, Note_off_c, 0, 40, 36
1, 700335, Control_c, 0, 64, 53
1, 700349, Control_c, 0, 64, 50
1, 700425, Control_c, 0, 64, 51
1, 700440, Control_c, 0, 64, 53
1, 700454, Control_c, 0, 64, 55
1, 700469, Control_c, 0, 64, 58
1, 700484, Control_c, 0, 64, 59
1, 700499, Control_c, 0, 64, 61
1, 700514, Control_c, 0, 64, 62
1, 700528, Control_c, 0, 64, 63
1, 700543, Control_c, 0, 64, 65
1, 700558, Control_c, 0, 64, 66
1, 700573, Control_c, 0, 64, 68
1, 700588, Control_c, 0, 64, 70
1, 700603, Control_c, 0, 64, 72
1, 700617, Control_c, 0, 64, 74
1, 700632, Control_c, 0, 64, 76
1, 700647, Control_c, 0, 64, 79
1, 700662, Control_c, 0, 64, 81
1, 700677, Control_c, 0, 64, 83
1, 700692, Control_c, 0, 64, 85
1, 700707, Control_c, 0, 64, 86
1, 700721, Control_c, 0, 64, 86
1, 700862, Control_c, 0, 64, 85
1, 700877, Control_c, 0, 64, 85
1, 700892, Control_c, 0, 64, 84
1, 700907, Control_c, 0, 64, 84
1, 700908, Note_on_c, 0, 64, 46
1, 700921, Control_c, 0, 64, 83
1, 700934, Note_on_c, 0, 40, 32
1, 700936, Control_c, 0, 64, 82
1, 700942, Note_off_c, 0, 42, 41
1, 700948, Note_off_c, 0, 66, 30
1, 700951, Control_c, 0, 64, 81
1, 700966, Control_c, 0, 64, 80
1, 700980, Control_c, 0, 64, 79
1, 700995, Control_c, 0, 64, 76
1, 701010, Control_c, 0, 64, 73
1, 701025, Control_c, 0, 64, 69
1, 701040, Control_c, 0, 64, 64
1, 701054, Control_c, 0, 64, 62
1, 701069, Control_c, 0, 64, 62
1, 701098, Control_c, 0, 64, 61
1, 701143, Control_c, 0, 64, 62
1, 701158, Control_c, 0, 64, 62
1, 701172, Control_c, 0, 64, 63
1, 701187, Control_c, 0, 64, 64
1, 701202, Control_c, 0, 64, 64
1, 701217, Control_c, 0, 64, 65
1, 701233, Control_c, 0, 64, 65
1, 701248, Control_c, 0, 64, 66
1, 701263, Control_c, 0, 64, 68
1, 701277, Control_c, 0, 64, 70
1, 701292, Control_c, 0, 64, 72
1, 701307, Control_c, 0, 64, 74
1, 701322, Control_c, 0, 64, 76
1, 701337, Control_c, 0, 64, 79
1, 701351, Control_c, 0, 64, 81
1, 701366, Control_c, 0, 64, 84
1, 701381, Control_c, 0, 64, 86
1, 701395, Control_c, 0, 64, 88
1, 701410, Control_c, 0, 64, 91
1, 701425, Control_c, 0, 64, 93
1, 701440, Control_c, 0, 64, 95
1, 701455, Control_c, 0, 64, 98
1, 701470, Control_c, 0, 64, 100
1, 701485, Control_c, 0, 64, 103
1, 701507, Control_c, 0, 64, 106
1, 701522, Control_c, 0, 64, 109
1, 701536, Control_c, 0, 64, 112
1, 701551, Control_c, 0, 64, 116
1, 701566, Control_c, 0, 64, 121
1, 701581, Control_c, 0, 64, 124
1, 701596, Control_c, 0, 64, 126
1, 701610, Control_c, 0, 64, 127
1, 701981, Control_c, 0, 64, 124
1, 701995, Control_c, 0, 64, 120
1, 702010, Control_c, 0, 64, 118
1, 702026, Control_c, 0, 64, 116
1, 702041, Control_c, 0, 64, 113
1, 702056, Control_c, 0, 64, 110
1, 702071, Control_c, 0, 64, 108
1, 702086, Control_c, 0, 64, 106
1, 702100, Control_c, 0, 64, 104
1, 702115, Control_c, 0, 64, 101
1, 702128, Note_on_c, 0, 57, 44
1, 702130, Control_c, 0, 64, 97
1, 702137, Note_off_c, 0, 64, 30
1, 702142, Note_on_c, 0, 33, 41
1, 702144, Control_c, 0, 64, 94
1, 702159, Control_c, 0, 64, 89
1, 702174, Control_c, 0, 64, 84
1, 702189, Control_c, 0, 64, 78
1, 702203, Note_off_c, 0, 40, 37
1, 702204, Control_c, 0, 64, 72
1, 702218, Control_c, 0, 64, 67
1, 702256, Control_c, 0, 64, 68
1, 702300, Control_c, 0, 64, 68
1, 702315, Control_c, 0, 64, 69
1, 702330, Control_c, 0, 64, 69
1, 702345, Control_c, 0, 64, 70
1, 702374, Control_c, 0, 64, 71
1, 702389, Control_c, 0, 64, 72
1, 702404, Control_c, 0, 64, 74
1, 702419, Control_c, 0, 64, 75
1, 702433, Control_c, 0, 64, 76
1, 702448, Control_c, 0, 64, 78
1, 702463, Control_c, 0, 64, 80
1, 702478, Control_c, 0, 64, 83
1, 702493, Control_c, 0, 64, 85
1, 702507, Control_c, 0, 64, 89
1, 702522, Control_c, 0, 64, 91
1, 702537, Control_c, 0, 64, 93
1, 702552, Control_c, 0, 64, 95
1, 702567, Control_c, 0, 64, 96
1, 702656, Note_off_c, 0, 57, 29
1, 702700, Control_c, 0, 64, 95
1, 702715, Control_c, 0, 64, 94
1, 702730, Control_c, 0, 64, 93
1, 702744, Control_c, 0, 64, 92
1, 702759, Control_c, 0, 64, 90
1, 702770, Note_on_c, 0, 59, 46
1, 702774, Control_c, 0, 64, 86
1, 702781, Note_off_c, 0, 33, 39
1, 702785, Note_on_c, 0, 35, 33
1, 702789, Control_c, 0, 64, 80
1, 702804, Control_c, 0, 64, 73
1, 702820, Control_c, 0, 64, 65
1, 702835, Control_c, 0, 64, 60
1, 702849, Control_c, 0, 64, 61
1, 702864, Control_c, 0, 64, 61
1, 702877, Control_c, 0, 64, 62
1, 702892, Control_c, 0, 64, 63
1, 702907, Control_c, 0, 64, 63
1, 702922, Control_c, 0, 64, 64
1, 702937, Control_c, 0, 64, 64
1, 702951, Control_c, 0, 64, 65
1, 702966, Control_c, 0, 64, 66
1, 702981, Control_c, 0, 64, 68
1, 703003, Control_c, 0, 64, 69
1, 703018, Control_c, 0, 64, 71
1, 703033, Control_c, 0, 64, 72
1, 703047, Control_c, 0, 64, 74
1, 703062, Control_c, 0, 64, 75
1, 703077, Control_c, 0, 64, 77
1, 703092, Control_c, 0, 64, 79
1, 703107, Control_c, 0, 64, 81
1, 703121, Control_c, 0, 64, 84
1, 703136, Control_c, 0, 64, 86
1, 703151, Control_c, 0, 64, 88
1, 703166, Control_c, 0, 64, 89
1, 703181, Control_c, 0, 64, 92
1, 703196, Control_c, 0, 64, 93
1, 703211, Control_c, 0, 64, 95
1, 703226, Note_off_c, 0, 35, 34
1, 703226, Control_c, 0, 64, 96
1, 703241, Control_c, 0, 64, 97
1, 703270, Control_c, 0, 64, 97
1, 703285, Control_c, 0, 64, 98
1, 703299, Control_c, 0, 64, 98
1, 703350, Note_off_c, 0, 59, 35
1, 703611, Control_c, 0, 64, 98
1, 703627, Control_c, 0, 64, 97
1, 703642, Control_c, 0, 64, 96
1, 703654, Note_on_c, 0, 40, 33
1, 703655, Note_on_c, 0, 52, 45
1, 703657, Control_c, 0, 64, 95
1, 703670, Note_on_c, 0, 28, 37
1, 703671, Control_c, 0, 64, 94
1, 703686, Control_c, 0, 64, 93
1, 703701, Control_c, 0, 64, 92
1, 703716, Control_c, 0, 64, 89
1, 703731, Control_c, 0, 64, 86
1, 703753, Control_c, 0, 64, 82
1, 703768, Control_c, 0, 64, 79
1, 703783, Control_c, 0, 64, 74
1, 703797, Control_c, 0, 64, 68
1, 703812, Control_c, 0, 64, 62
1, 703827, Control_c, 0, 64, 46
1, 703842, Control_c, 0, 64, 0
1, 704123, Control_c, 0, 64, 38
1, 704138, Control_c, 0, 64, 51
1, 704153, Control_c, 0, 64, 58
1, 704168, Control_c, 0, 64, 61
1, 704183, Control_c, 0, 64, 62
1, 704197, Control_c, 0, 64, 64
1, 704212, Control_c, 0, 64, 65
1, 704227, Control_c, 0, 64, 66
1, 704242, Control_c, 0, 64, 67
1, 704257, Control_c, 0, 64, 68
1, 704271, Control_c, 0, 64, 69
1, 704286, Control_c, 0, 64, 70
1, 704301, Control_c, 0, 64, 71
1, 704315, Control_c, 0, 64, 72
1, 704330, Control_c, 0, 64, 73
1, 704345, Control_c, 0, 64, 74
1, 704360, Control_c, 0, 64, 74
1, 704375, Control_c, 0, 64, 75
1, 704389, Control_c, 0, 64, 76
1, 704404, Control_c, 0, 64, 77
1, 704420, Control_c, 0, 64, 79
1, 704435, Control_c, 0, 64, 80
1, 704450, Control_c, 0, 64, 81
1, 704465, Control_c, 0, 64, 82
1, 704480, Control_c, 0, 64, 83
1, 704502, Control_c, 0, 64, 84
1, 704516, Control_c, 0, 64, 84
1, 704531, Control_c, 0, 64, 85
1, 704546, Control_c, 0, 64, 86
1, 704561, Control_c, 0, 64, 87
1, 704576, Control_c, 0, 64, 88
1, 704591, Control_c, 0, 64, 89
1, 704606, Control_c, 0, 64, 90
1, 704620, Control_c, 0, 64, 91
1, 704635, Control_c, 0, 64, 92
1, 704650, Control_c, 0, 64, 93
1, 704665, Control_c, 0, 64, 94
1, 704680, Control_c, 0, 64, 94
1, 704694, Control_c, 0, 64, 95
1, 704709, Control_c, 0, 64, 96
1, 704724, Control_c, 0, 64, 98
1, 704739, Control_c, 0, 64, 99
1, 704753, Control_c, 0, 64, 100
1, 704768, Control_c, 0, 64, 101
1, 704783, Control_c, 0, 64, 101
1, 704798, Control_c, 0, 64, 102
1, 704813, Control_c, 0, 64, 103
1, 704827, Control_c, 0, 64, 105
1, 704842, Control_c, 0, 64, 106
1, 704857, Control_c, 0, 64, 107
1, 704872, Control_c, 0, 64, 108
1, 704887, Control_c, 0, 64, 109
1, 704901, Control_c, 0, 64, 110
1, 704916, Control_c, 0, 64, 111
1, 704931, Control_c, 0, 64, 113
1, 704946, Control_c, 0, 64, 114
1, 704961, Control_c, 0, 64, 117
1, 704976, Control_c, 0, 64, 120
1, 704990, Control_c, 0, 64, 127
1, 705324, Control_c, 0, 67, 127
1, 705354, Control_c, 0, 67, 126
1, 705383, Control_c, 0, 67, 126
1, 705398, Control_c, 0, 67, 125
1, 705401, Note_off_c, 0, 52, 33
1, 705413, Control_c, 0, 67, 125
1, 705428, Control_c, 0, 67, 124
1, 705442, Control_c, 0, 67, 123
1, 705457, Control_c, 0, 67, 121
1, 705472, Control_c, 0, 67, 119
1, 705487, Control_c, 0, 67, 117
1, 705502, Control_c, 0, 67, 115
1, 705516, Control_c, 0, 67, 113
1, 705531, Control_c, 0, 67, 110
1, 705546, Control_c, 0, 67, 107
1, 705560, Control_c, 0, 67, 105
1, 705575, Control_c, 0, 67, 102
1, 705590, Control_c, 0, 67, 99
1, 705605, Control_c, 0, 67, 95
1, 705620, Control_c, 0, 67, 92
1, 705635, Control_c, 0, 67, 89
1, 705649, Control_c, 0, 67, 86
1, 705664, Control_c, 0, 67, 83
1, 705679, Control_c, 0, 67, 79
1, 705694, Control_c, 0, 67, 75
1, 705709, Control_c, 0, 67, 72
1, 705724, Control_c, 0, 67, 70
1, 705739, Control_c, 0, 67, 68
1, 705754, Control_c, 0, 67, 66
1, 705768, Control_c, 0, 67, 65
1, 705783, Control_c, 0, 67, 63
1, 705798, Control_c, 0, 67, 61
1, 705813, Control_c, 0, 67, 60
1, 705820, Note_off_c, 0, 28, 35
1, 705828, Control_c, 0, 67, 58
1, 705842, Control_c, 0, 67, 56
1, 705857, Control_c, 0, 67, 54
1, 705872, Control_c, 0, 67, 53
1, 705886, Control_c, 0, 67, 50
1, 705890, Note_off_c, 0, 40, 38
1, 705901, Control_c, 0, 67, 48
1, 705916, Control_c, 0, 67, 45
1, 705931, Control_c, 0, 67, 43
1, 705946, Control_c, 0, 67, 41
1, 705960, Control_c, 0, 67, 39
1, 705975, Control_c, 0, 67, 37
1, 705998, Control_c, 0, 67, 34
1, 706013, Control_c, 0, 67, 32
1, 706028, Control_c, 0, 67, 29
1, 706043, Control_c, 0, 67, 26
1, 706058, Control_c, 0, 67, 24
1, 706072, Control_c, 0, 67, 21
1, 706084, Note_on_c, 0, 64, 41
1, 706087, Control_c, 0, 67, 17
1, 706102, Control_c, 0, 67, 15
1, 706108, Note_on_c, 0, 61, 28
1, 706117, Control_c, 0, 67, 13
1, 706132, Control_c, 0, 67, 12
1, 706147, Control_c, 0, 67, 10
1, 706162, Control_c, 0, 67, 8
1, 706177, Control_c, 0, 67, 0
1, 706417, Note_on_c, 0, 69, 50
1, 706446, Note_off_c, 0, 64, 36
1, 706463, Note_off_c, 0, 61, 41
1, 706777, Control_c, 0, 64, 113
1, 706791, Control_c, 0, 64, 103
1, 706806, Control_c, 0, 64, 96
1, 706808, Note_on_c, 0, 28, 36
1, 706812, Note_on_c, 0, 40, 31
1, 706822, Control_c, 0, 64, 88
1, 706823, Note_on_c, 0, 62, 37
1, 706824, Note_on_c, 0, 59, 35
1, 706837, Control_c, 0, 64, 80
1, 706852, Control_c, 0, 64, 72
1, 706867, Control_c, 0, 64, 64
1, 706882, Control_c, 0, 64, 57
1, 706896, Control_c, 0, 64, 59
1, 706911, Control_c, 0, 64, 61
1, 706926, Control_c, 0, 64, 62
1, 706940, Control_c, 0, 64, 63
1, 706955, Control_c, 0, 64, 64
1, 706970, Control_c, 0, 64, 64
1, 706985, Control_c, 0, 64, 65
1, 707000, Control_c, 0, 64, 67
1, 707014, Control_c, 0, 64, 68
1, 707029, Control_c, 0, 64, 70
1, 707044, Control_c, 0, 64, 71
1, 707059, Control_c, 0, 64, 73
1, 707074, Control_c, 0, 64, 75
1, 707089, Control_c, 0, 64, 77
1, 707104, Control_c, 0, 64, 79
1, 707119, Control_c, 0, 64, 81
1, 707134, Control_c, 0, 64, 83
1, 707148, Control_c, 0, 64, 85
1, 707163, Control_c, 0, 64, 88
1, 707178, Control_c, 0, 64, 90
1, 707193, Control_c, 0, 64, 91
1, 707208, Control_c, 0, 64, 93
1, 707222, Control_c, 0, 64, 95
1, 707237, Control_c, 0, 64, 97
1, 707252, Control_c, 0, 64, 99
1, 707267, Control_c, 0, 64, 101
1, 707281, Control_c, 0, 64, 103
1, 707296, Control_c, 0, 64, 104
1, 707311, Control_c, 0, 64, 106
1, 707326, Control_c, 0, 64, 108
1, 707340, Control_c, 0, 64, 110
1, 707349, Note_off_c, 0, 62, 37
1, 707355, Control_c, 0, 64, 113
1, 707370, Control_c, 0, 64, 114
1, 707385, Control_c, 0, 64, 116
1, 707400, Control_c, 0, 64, 117
1, 707414, Control_c, 0, 64, 119
1, 707429, Control_c, 0, 64, 121
1, 707444, Control_c, 0, 64, 124
1, 707459, Control_c, 0, 64, 127
1, 707646, Note_off_c, 0, 69, 43
1, 707667, Note_off_c, 0, 40, 34
1, 707669, Note_on_c, 0, 68, 50
1, 707694, Note_off_c, 0, 28, 31
1, 707700, Note_off_c, 0, 59, 38
1, 707966, Note_on_c, 0, 71, 63
1, 708001, Note_off_c, 0, 68, 56
1, 708223, Control_c, 0, 64, 115
1, 708245, Control_c, 0, 64, 102
1, 708260, Control_c, 0, 64, 89
1, 708275, Control_c, 0, 64, 75
1, 708277, Note_on_c, 0, 61, 39
1, 708278, Note_on_c, 0, 40, 34
1, 708281, Note_on_c, 0, 64, 44
1, 708288, Note_on_c, 0, 28, 35
1, 708289, Control_c, 0, 64, 63
1, 708304, Control_c, 0, 64, 0
1, 708349, Control_c, 0, 64, 14
1, 708363, Control_c, 0, 64, 36
1, 708378, Control_c, 0, 64, 47
1, 708393, Control_c, 0, 64, 56
1, 708408, Control_c, 0, 64, 62
1, 708424, Control_c, 0, 64, 64
1, 708439, Control_c, 0, 64, 66
1, 708454, Control_c, 0, 64, 68
1, 708468, Control_c, 0, 64, 70
1, 708483, Control_c, 0, 64, 73
1, 708498, Control_c, 0, 64, 76
1, 708512, Control_c, 0, 64, 77
1, 708527, Control_c, 0, 64, 79
1, 708542, Control_c, 0, 64, 82
1, 708557, Control_c, 0, 64, 85
1, 708572, Control_c, 0, 64, 88
1, 708586, Control_c, 0, 64, 90
1, 708601, Control_c, 0, 64, 93
1, 708616, Control_c, 0, 64, 95
1, 708631, Control_c, 0, 64, 98
1, 708646, Control_c, 0, 64, 101
1, 708652, Note_off_c, 0, 64, 61
1, 708660, Control_c, 0, 64, 106
1, 708675, Control_c, 0, 64, 111
1, 708690, Control_c, 0, 64, 118
1, 708705, Control_c, 0, 64, 127
1, 708954, Note_off_c, 0, 71, 62
1, 708967, Note_on_c, 0, 69, 68
1, 709107, Note_off_c, 0, 28, 37
1, 709133, Note_off_c, 0, 61, 41
1, 709208, Note_off_c, 0, 40, 41
1, 709324, Note_on_c, 0, 73, 80
1, 709342, Note_off_c, 0, 69, 58
1, 709796, Note_on_c, 0, 66, 58
1, 709802, Note_on_c, 0, 40, 38
1, 709802, Note_on_c, 0, 63, 49
1, 709805, Note_on_c, 0, 28, 39
1, 709817, Control_c, 0, 64, 108
1, 709831, Control_c, 0, 64, 92
1, 709846, Control_c, 0, 64, 79
1, 709861, Control_c, 0, 64, 64
1, 709876, Control_c, 0, 64, 0
1, 709980, Control_c, 0, 64, 48
1, 709995, Control_c, 0, 64, 59
1, 710010, Control_c, 0, 64, 63
1, 710025, Control_c, 0, 64, 65
1, 710040, Control_c, 0, 64, 68
1, 710055, Control_c, 0, 64, 71
1, 710070, Control_c, 0, 64, 73
1, 710085, Control_c, 0, 64, 75
1, 710100, Control_c, 0, 64, 76
1, 710114, Control_c, 0, 64, 80
1, 710129, Control_c, 0, 64, 83
1, 710144, Control_c, 0, 64, 86
1, 710158, Control_c, 0, 64, 88
1, 710173, Control_c, 0, 64, 90
1, 710176, Note_off_c, 0, 63, 43
1, 710188, Control_c, 0, 64, 93
1, 710203, Control_c, 0, 64, 98
1, 710218, Control_c, 0, 64, 102
1, 710232, Control_c, 0, 64, 106
1, 710247, Control_c, 0, 64, 109
1, 710262, Control_c, 0, 64, 115
1, 710273, Note_off_c, 0, 66, 37
1, 710277, Control_c, 0, 64, 127
1, 710383, Note_off_c, 0, 73, 52
1, 710667, Note_on_c, 0, 71, 66
1, 710832, Note_off_c, 0, 28, 35
1, 711286, Note_on_c, 0, 81, 75
1, 711292, Note_off_c, 0, 40, 37
1, 711309, Note_off_c, 0, 71, 51
1, 711686, Note_on_c, 0, 28, 43
1, 711730, Control_c, 0, 64, 108
1, 711745, Control_c, 0, 64, 93
1, 711760, Control_c, 0, 64, 78
1, 711769, Note_on_c, 0, 80, 72
1, 711775, Control_c, 0, 64, 65
1, 711790, Control_c, 0, 64, 0
1, 711811, Note_off_c, 0, 81, 56
1, 711819, Control_c, 0, 64, 28
1, 711834, Control_c, 0, 64, 49
1, 711849, Control_c, 0, 64, 58
1, 711864, Control_c, 0, 64, 63
1, 711878, Control_c, 0, 64, 66
1, 711893, Control_c, 0, 64, 68
1, 711893, Control_c, 0, 67, 8
1, 711908, Control_c, 0, 64, 71
1, 711908, Control_c, 0, 67, 9
1, 711922, Control_c, 0, 64, 74
1, 711922, Control_c, 0, 67, 11
1, 711937, Control_c, 0, 64, 77
1, 711937, Control_c, 0, 67, 13
1, 711952, Control_c, 0, 64, 80
1, 711952, Control_c, 0, 67, 14
1, 711967, Control_c, 0, 64, 83
1, 711967, Control_c, 0, 67, 16
1, 711990, Control_c, 0, 64, 86
1, 711990, Control_c, 0, 67, 20
1, 712004, Control_c, 0, 64, 89
1, 712004, Control_c, 0, 67, 24
1, 712010, Note_off_c, 0, 28, 36
1, 712019, Control_c, 0, 64, 92
1, 712019, Control_c, 0, 67, 27
1, 712034, Control_c, 0, 64, 95
1, 712034, Control_c, 0, 67, 28
1, 712037, Note_on_c, 0, 40, 46
1, 712049, Control_c, 0, 64, 97
1, 712063, Control_c, 0, 64, 100
1, 712077, Note_off_c, 0, 40, 63
1, 712078, Control_c, 0, 64, 103
1, 712093, Control_c, 0, 64, 105
1, 712093, Control_c, 0, 67, 27
1, 712108, Control_c, 0, 64, 108
1, 712123, Control_c, 0, 64, 110
1, 712137, Control_c, 0, 64, 112
1, 712137, Control_c, 0, 67, 27
1, 712152, Control_c, 0, 64, 115
1, 712167, Control_c, 0, 64, 118
1, 712182, Control_c, 0, 64, 119
1, 712197, Control_c, 0, 64, 119
1, 712211, Control_c, 0, 67, 26
1, 712215, Note_on_c, 0, 76, 70
1, 712241, Control_c, 0, 67, 26
1, 712245, Note_off_c, 0, 80, 55
1, 712305, Note_on_c, 0, 52, 43
1, 712344, Control_c, 0, 67, 25
1, 712374, Control_c, 0, 67, 25
1, 712401, Note_on_c, 0, 78, 72
1, 712406, Note_off_c, 0, 76, 59
1, 712434, Control_c, 0, 67, 24
1, 712449, Control_c, 0, 67, 24
1, 712479, Control_c, 0, 67, 23
1, 712508, Control_c, 0, 67, 23
1, 712520, Note_on_c, 0, 59, 52
1, 712523, Control_c, 0, 67, 22
1, 712538, Control_c, 0, 67, 22
1, 712553, Control_c, 0, 67, 21
1, 712558, Note_off_c, 0, 78, 58
1, 712562, Note_on_c, 0, 76, 63
1, 712568, Control_c, 0, 67, 21
1, 712613, Control_c, 0, 67, 20
1, 712621, Note_off_c, 0, 52, 50
1, 712627, Control_c, 0, 67, 20
1, 712642, Control_c, 0, 67, 19
1, 712672, Control_c, 0, 67, 19
1, 712677, Note_off_c, 0, 76, 60
1, 712681, Note_off_c, 0, 59, 59
1, 712687, Note_on_c, 0, 78, 65
1, 712694, Note_on_c, 0, 64, 60
1, 712702, Control_c, 0, 67, 18
1, 712739, Control_c, 0, 67, 17
1, 712754, Control_c, 0, 67, 17
1, 712795, Note_off_c, 0, 78, 58
1, 712821, Note_on_c, 0, 76, 70
1, 712827, Control_c, 0, 67, 16
1, 712899, Note_off_c, 0, 76, 59
1, 712917, Note_on_c, 0, 68, 59
1, 712918, Note_off_c, 0, 64, 57
1, 712930, Note_on_c, 0, 78, 66
1, 712932, Control_c, 0, 67, 16
1, 712961, Control_c, 0, 67, 15
1, 712991, Control_c, 0, 67, 15
1, 713003, Note_off_c, 0, 78, 61
1, 713006, Control_c, 0, 67, 13
1, 713021, Control_c, 0, 67, 12
1, 713035, Control_c, 0, 64, 126
1, 713035, Control_c, 0, 67, 11
1, 713047, Note_on_c, 0, 76, 67
1, 713050, Control_c, 0, 64, 127
1, 713050, Control_c, 0, 67, 10
1, 713065, Control_c, 0, 67, 9
1, 713079, Control_c, 0, 67, 0
1, 713102, Note_off_c, 0, 76, 59
1, 713135, Note_on_c, 0, 78, 68
1, 713196, Note_off_c, 0, 78, 62
1, 713233, Note_on_c, 0, 76, 63
1, 713268, Note_off_c, 0, 76, 62
1, 713307, Note_on_c, 0, 78, 74
1, 713359, Note_off_c, 0, 78, 62
1, 713389, Note_on_c, 0, 76, 67
1, 713420, Note_off_c, 0, 76, 62
1, 713462, Note_on_c, 0, 78, 76
1, 713504, Note_off_c, 0, 78, 54
1, 713528, Note_off_c, 0, 68, 33
1, 713538, Note_on_c, 0, 76, 70
1, 713565, Note_off_c, 0, 76, 64
1, 713596, Note_on_c, 0, 78, 78
1, 713647, Note_off_c, 0, 78, 59
1, 713668, Note_on_c, 0, 76, 65
1, 713692, Note_off_c, 0, 76, 64
1, 713721, Note_on_c, 0, 78, 66
1, 713754, Note_off_c, 0, 78, 61
1, 713769, Note_on_c, 0, 76, 67
1, 713805, Note_off_c, 0, 76, 61
1, 713821, Note_on_c, 0, 78, 69
1, 713866, Note_off_c, 0, 78, 58
1, 713877, Note_on_c, 0, 76, 70
1, 713906, Note_off_c, 0, 76, 65
1, 713919, Note_on_c, 0, 78, 66
1, 713963, Note_off_c, 0, 78, 60
1, 713976, Note_on_c, 0, 76, 74
1, 714008, Note_off_c, 0, 76, 63
1, 714020, Note_on_c, 0, 78, 67
1, 714071, Note_off_c, 0, 78, 61
1, 714078, Note_on_c, 0, 76, 76
1, 714109, Note_off_c, 0, 76, 60
1, 714125, Note_on_c, 0, 78, 64
1, 714170, Note_off_c, 0, 78, 60
1, 714179, Note_on_c, 0, 76, 67
1, 714205, Note_off_c, 0, 76, 61
1, 714235, Note_on_c, 0, 78, 59
1, 714276, Note_off_c, 0, 78, 61
1, 714280, Control_c, 0, 67, 8
1, 714290, Note_on_c, 0, 76, 64
1, 714295, Control_c, 0, 67, 9
1, 714310, Control_c, 0, 67, 11
1, 714321, Note_off_c, 0, 76, 60
1, 714325, Control_c, 0, 67, 11
1, 714339, Control_c, 0, 67, 13
1, 714342, Note_on_c, 0, 78, 60
1, 714354, Control_c, 0, 67, 15
1, 714369, Control_c, 0, 67, 18
1, 714377, Note_off_c, 0, 78, 61
1, 714384, Control_c, 0, 67, 20
1, 714398, Note_on_c, 0, 76, 60
1, 714399, Control_c, 0, 67, 23
1, 714413, Control_c, 0, 67, 24
1, 714424, Note_off_c, 0, 76, 58
1, 714428, Control_c, 0, 67, 25
1, 714443, Control_c, 0, 67, 27
1, 714458, Control_c, 0, 67, 29
1, 714460, Note_on_c, 0, 78, 56
1, 714473, Control_c, 0, 67, 30
1, 714485, Note_off_c, 0, 78, 58
1, 714488, Control_c, 0, 67, 32
1, 714502, Note_on_c, 0, 76, 61
1, 714502, Control_c, 0, 67, 33
1, 714517, Control_c, 0, 67, 34
1, 714526, Note_off_c, 0, 76, 59
1, 714532, Control_c, 0, 67, 35
1, 714547, Control_c, 0, 67, 36
1, 714562, Control_c, 0, 67, 38
1, 714563, Note_on_c, 0, 78, 59
1, 714577, Control_c, 0, 67, 39
1, 714586, Note_off_c, 0, 78, 60
1, 714592, Control_c, 0, 67, 40
1, 714606, Control_c, 0, 67, 41
1, 714607, Note_on_c, 0, 76, 56
1, 714621, Control_c, 0, 67, 42
1, 714629, Note_off_c, 0, 76, 60
1, 714636, Control_c, 0, 67, 43
1, 714650, Control_c, 0, 67, 44
1, 714658, Note_on_c, 0, 78, 64
1, 714665, Control_c, 0, 67, 45
1, 714680, Control_c, 0, 67, 46
1, 714684, Note_off_c, 0, 78, 64
1, 714695, Control_c, 0, 67, 48
1, 714702, Note_on_c, 0, 76, 66
1, 714710, Control_c, 0, 67, 49
1, 714724, Control_c, 0, 67, 50
1, 714735, Note_off_c, 0, 76, 59
1, 714739, Control_c, 0, 67, 51
1, 714753, Note_on_c, 0, 78, 64
1, 714754, Control_c, 0, 67, 52
1, 714769, Control_c, 0, 67, 54
1, 714784, Control_c, 0, 67, 55
1, 714800, Control_c, 0, 67, 56
1, 714801, Note_off_c, 0, 78, 52
1, 714815, Control_c, 0, 67, 56
1, 714817, Note_on_c, 0, 76, 59
1, 714829, Control_c, 0, 67, 57
1, 714844, Control_c, 0, 67, 57
1, 714872, Note_off_c, 0, 76, 60
1, 714895, Note_on_c, 0, 75, 53
1, 714927, Note_off_c, 0, 75, 64
1, 714933, Control_c, 0, 64, 122
1, 714947, Control_c, 0, 64, 109
1, 714959, Note_on_c, 0, 76, 56
1, 714962, Control_c, 0, 64, 101
1, 714985, Control_c, 0, 64, 99
1, 715008, Note_off_c, 0, 76, 59
1, 715015, Control_c, 0, 67, 57
1, 715035, Note_on_c, 0, 78, 63
1, 715044, Control_c, 0, 67, 56
1, 715088, Control_c, 0, 67, 56
1, 715093, Note_off_c, 0, 78, 62
1, 715098, Note_on_c, 0, 80, 61
1, 715117, Note_off_c, 0, 80, 66
1, 715118, Control_c, 0, 64, 99
1, 715153, Note_on_c, 0, 81, 69
1, 715177, Control_c, 0, 64, 99
1, 715192, Control_c, 0, 64, 98
1, 715198, Note_off_c, 0, 81, 57
1, 715207, Control_c, 0, 64, 97
1, 715224, Note_on_c, 0, 83, 62
1, 715251, Control_c, 0, 67, 55
1, 715263, Note_on_c, 0, 85, 73
1, 715271, Note_off_c, 0, 83, 63
1, 715295, Control_c, 0, 64, 98
1, 715310, Control_c, 0, 64, 98
1, 715315, Note_on_c, 0, 87, 61
1, 715330, Note_off_c, 0, 85, 63
1, 715351, Note_on_c, 0, 88, 77
1, 715352, Note_off_c, 0, 87, 62
1, 715400, Control_c, 0, 64, 98
1, 715409, Note_on_c, 0, 87, 68
1, 715442, Note_off_c, 0, 88, 60
1, 715452, Note_on_c, 0, 85, 66
1, 715486, Note_off_c, 0, 87, 65
1, 715509, Note_off_c, 0, 85, 61
1, 715512, Note_on_c, 0, 83, 47
1, 715518, Control_c, 0, 64, 97
1, 715533, Control_c, 0, 64, 96
1, 715534, Note_on_c, 0, 81, 65
1, 715537, Note_off_c, 0, 83, 57
1, 715570, Note_off_c, 0, 81, 53
1, 715577, Control_c, 0, 67, 55
1, 715593, Note_on_c, 0, 80, 69
1, 715646, Note_off_c, 0, 80, 62
1, 715647, Note_on_c, 0, 78, 63
1, 715676, Note_off_c, 0, 78, 67
1, 715684, Note_on_c, 0, 76, 70
1, 715695, Control_c, 0, 64, 96
1, 715695, Control_c, 0, 67, 54
1, 715734, Note_off_c, 0, 76, 50
1, 715749, Note_on_c, 0, 75, 66
1, 715762, Control_c, 0, 64, 95
1, 715776, Control_c, 0, 64, 92
1, 715791, Control_c, 0, 64, 87
1, 715793, Note_on_c, 0, 73, 68
1, 715806, Control_c, 0, 64, 83
1, 715806, Control_c, 0, 67, 54
1, 715816, Note_off_c, 0, 75, 59
1, 715821, Control_c, 0, 64, 83
1, 715838, Note_on_c, 0, 71, 66
1, 715848, Note_off_c, 0, 73, 61
1, 715864, Note_off_c, 0, 71, 67
1, 715865, Control_c, 0, 64, 82
1, 715885, Note_on_c, 0, 69, 70
1, 715924, Note_off_c, 0, 69, 56
1, 715924, Control_c, 0, 64, 82
1, 715939, Control_c, 0, 64, 80
1, 715946, Note_on_c, 0, 68, 62
1, 715954, Control_c, 0, 64, 79
1, 715969, Control_c, 0, 67, 54
1, 715977, Note_off_c, 0, 68, 64
1, 715993, Note_on_c, 0, 66, 71
1, 715999, Control_c, 0, 64, 78
1, 716014, Control_c, 0, 64, 75
1, 716022, Note_off_c, 0, 66, 66
1, 716028, Control_c, 0, 64, 72
1, 716041, Note_on_c, 0, 64, 66
1, 716043, Control_c, 0, 64, 70
1, 716058, Control_c, 0, 64, 71
1, 716091, Note_off_c, 0, 64, 61
1, 716100, Note_on_c, 0, 63, 68
1, 716102, Control_c, 0, 64, 70
1, 716117, Control_c, 0, 64, 70
1, 716132, Control_c, 0, 64, 69
1, 716144, Note_on_c, 0, 61, 65
1, 716147, Control_c, 0, 64, 68
1, 716162, Control_c, 0, 64, 65
1, 716162, Control_c, 0, 67, 55
1, 716175, Note_off_c, 0, 63, 61
1, 716176, Control_c, 0, 64, 61
1, 716193, Note_on_c, 0, 59, 64
1, 716200, Note_off_c, 0, 61, 62
1, 716206, Control_c, 0, 64, 62
1, 716220, Note_off_c, 0, 59, 65
1, 716220, Control_c, 0, 64, 63
1, 716234, Note_on_c, 0, 57, 67
1, 716291, Note_off_c, 0, 57, 55
1, 716303, Note_on_c, 0, 56, 65
1, 716309, Control_c, 0, 64, 62
1, 716324, Control_c, 0, 64, 60
1, 716339, Control_c, 0, 64, 59
1, 716339, Control_c, 0, 67, 55
1, 716351, Note_off_c, 0, 56, 61
1, 716356, Note_on_c, 0, 54, 61
1, 716369, Control_c, 0, 64, 60
1, 716384, Control_c, 0, 64, 61
1, 716384, Control_c, 0, 67, 56
1, 716396, Note_off_c, 0, 54, 66
1, 716400, Control_c, 0, 64, 61
1, 716400, Control_c, 0, 67, 56
1, 716410, Note_on_c, 0, 52, 62
1, 716415, Control_c, 0, 64, 59
1, 716415, Control_c, 0, 67, 57
1, 716445, Control_c, 0, 67, 57
1, 716460, Control_c, 0, 64, 60
1, 716460, Control_c, 0, 67, 58
1, 716476, Note_off_c, 0, 52, 58
1, 716482, Control_c, 0, 67, 58
1, 716485, Note_on_c, 0, 51, 58
1, 716497, Control_c, 0, 64, 58
1, 716497, Control_c, 0, 67, 59
1, 716512, Control_c, 0, 64, 55
1, 716512, Control_c, 0, 67, 59
1, 716526, Control_c, 0, 64, 55
1, 716526, Control_c, 0, 67, 60
1, 716530, Note_on_c, 0, 49, 62
1, 716541, Control_c, 0, 67, 63
1, 716556, Control_c, 0, 67, 67
1, 716556, Note_off_c, 0, 51, 63
1, 716571, Control_c, 0, 64, 54
1, 716571, Control_c, 0, 67, 70
1, 716583, Note_off_c, 0, 49, 63
1, 716586, Control_c, 0, 64, 51
1, 716586, Control_c, 0, 67, 72
1, 716588, Note_on_c, 0, 47, 57
1, 716600, Control_c, 0, 64, 49
1, 716600, Control_c, 0, 67, 73
1, 716615, Control_c, 0, 64, 49
1, 716615, Control_c, 0, 67, 75
1, 716627, Note_off_c, 0, 47, 65
1, 716630, Control_c, 0, 67, 77
1, 716644, Control_c, 0, 64, 48
1, 716644, Control_c, 0, 67, 80
1, 716646, Note_on_c, 0, 45, 60
1, 716659, Control_c, 0, 64, 47
1, 716659, Control_c, 0, 67, 82
1, 716674, Control_c, 0, 67, 84
1, 716689, Control_c, 0, 64, 46
1, 716689, Control_c, 0, 67, 85
1, 716704, Control_c, 0, 67, 86
1, 716705, Note_off_c, 0, 45, 59
1, 716718, Control_c, 0, 64, 45
1, 716718, Control_c, 0, 67, 87
1, 716723, Note_on_c, 0, 44, 53
1, 716733, Control_c, 0, 64, 45
1, 716733, Control_c, 0, 67, 88
1, 716748, Control_c, 0, 67, 88
1, 716763, Control_c, 0, 64, 44
1, 716763, Control_c, 0, 67, 89
1, 716778, Control_c, 0, 64, 44
1, 716778, Control_c, 0, 67, 91
1, 716793, Control_c, 0, 64, 43
1, 716793, Control_c, 0, 67, 93
1, 716795, Note_off_c, 0, 44, 60
1, 716807, Control_c, 0, 67, 94
1, 716813, Note_on_c, 0, 42, 47
1, 716822, Control_c, 0, 67, 96
1, 716837, Control_c, 0, 67, 98
1, 716851, Control_c, 0, 67, 100
1, 716866, Control_c, 0, 67, 101
1, 716881, Control_c, 0, 64, 43
1, 716881, Control_c, 0, 67, 102
1, 716896, Control_c, 0, 67, 103
1, 716911, Control_c, 0, 64, 42
1, 716911, Control_c, 0, 67, 104
1, 716926, Control_c, 0, 67, 106
1, 716941, Control_c, 0, 64, 42
1, 716941, Control_c, 0, 67, 107
1, 716944, Note_off_c, 0, 42, 44
1, 716956, Control_c, 0, 64, 41
1, 716956, Control_c, 0, 67, 108
1, 716961, Note_on_c, 0, 40, 32
1, 716971, Control_c, 0, 64, 40
1, 716971, Control_c, 0, 67, 108
1, 716986, Control_c, 0, 64, 32
1, 716986, Control_c, 0, 67, 109
1, 717000, Control_c, 0, 64, 0
1, 717000, Control_c, 0, 67, 109
1, 717230, Control_c, 0, 67, 109
1, 717245, Control_c, 0, 67, 108
1, 717275, Control_c, 0, 64, 36
1, 717275, Control_c, 0, 67, 108
1, 717290, Control_c, 0, 64, 52
1, 717290, Control_c, 0, 67, 107
1, 717305, Control_c, 0, 64, 60
1, 717319, Control_c, 0, 64, 63
1, 717319, Control_c, 0, 67, 107
1, 717334, Control_c, 0, 64, 65
1, 717349, Control_c, 0, 64, 66
1, 717364, Control_c, 0, 64, 68
1, 717364, Control_c, 0, 67, 106
1, 717379, Control_c, 0, 64, 69
1, 717394, Control_c, 0, 64, 70
1, 717409, Control_c, 0, 64, 72
1, 717423, Control_c, 0, 64, 73
1, 717438, Control_c, 0, 64, 74
1, 717438, Control_c, 0, 67, 106
1, 717453, Control_c, 0, 64, 76
1, 717468, Control_c, 0, 64, 78
1, 717482, Control_c, 0, 64, 79
1, 717541, Control_c, 0, 64, 80
1, 717623, Note_off_c, 0, 40, 35
1, 717645, Control_c, 0, 64, 79
1, 717704, Control_c, 0, 64, 79
1, 717734, Control_c, 0, 64, 78
1, 717912, Control_c, 0, 64, 78
1, 717941, Control_c, 0, 64, 77
1, 718009, Control_c, 0, 64, 76
1, 718024, Control_c, 0, 64, 76
1, 718039, Control_c, 0, 64, 75
1, 718053, Control_c, 0, 64, 73
1, 718068, Control_c, 0, 64, 71
1, 718083, Control_c, 0, 64, 68
1, 718097, Control_c, 0, 64, 66
1, 718112, Control_c, 0, 64, 66
1, 718127, Control_c, 0, 64, 65
1, 718142, Control_c, 0, 64, 64
1, 718157, Control_c, 0, 64, 62
1, 718172, Control_c, 0, 64, 60
1, 718187, Control_c, 0, 64, 58
1, 718202, Control_c, 0, 64, 55
1, 718217, Control_c, 0, 64, 49
1, 718232, Control_c, 0, 64, 40
1, 718246, Control_c, 0, 64, 33
1, 718261, Control_c, 0, 64, 24
1, 718276, Control_c, 0, 64, 0
1, 718832, Control_c, 0, 67, 105
1, 718950, Control_c, 0, 67, 105
1, 718995, Control_c, 0, 67, 104
1, 719010, Control_c, 0, 67, 104
1, 719039, Control_c, 0, 67, 103
1, 719054, Control_c, 0, 67, 102
1, 719069, Control_c, 0, 67, 101
1, 719084, Control_c, 0, 67, 101
1, 719114, Control_c, 0, 67, 100
1, 719128, Control_c, 0, 67, 100
1, 719143, Control_c, 0, 67, 99
1, 719158, Control_c, 0, 67, 97
1, 719173, Control_c, 0, 67, 96
1, 719188, Control_c, 0, 67, 93
1, 719202, Control_c, 0, 67, 88
1, 719217, Control_c, 0, 64, 21
1, 719217, Control_c, 0, 67, 81
1, 719232, Control_c, 0, 64, 39
1, 719232, Control_c, 0, 67, 72
1, 719246, Control_c, 0, 64, 50
1, 719246, Control_c, 0, 67, 58
1, 719261, Control_c, 0, 64, 56
1, 719261, Control_c, 0, 67, 45
1, 719276, Control_c, 0, 64, 61
1, 719276, Control_c, 0, 67, 32
1, 719291, Control_c, 0, 64, 64
1, 719291, Control_c, 0, 67, 19
1, 719306, Control_c, 0, 64, 65
1, 719306, Control_c, 0, 67, 0
1, 719320, Control_c, 0, 64, 67
1, 719335, Control_c, 0, 64, 69
1, 719350, Control_c, 0, 64, 71
1, 719365, Control_c, 0, 64, 74
1, 719380, Control_c, 0, 64, 76
1, 719394, Control_c, 0, 64, 80
1, 719409, Control_c, 0, 64, 83
1, 719424, Control_c, 0, 64, 86
1, 719439, Control_c, 0, 64, 90
1, 719454, Control_c, 0, 64, 93
1, 719476, Control_c, 0, 64, 96
1, 719491, Control_c, 0, 64, 100
1, 719506, Control_c, 0, 64, 104
1, 719520, Control_c, 0, 64, 108
1, 719528, Note_on_c, 0, 76, 86
1, 719535, Control_c, 0, 64, 112
1, 719540, Note_on_c, 0, 52, 53
1, 719546, Note_on_c, 0, 64, 69
1, 719550, Control_c, 0, 64, 118
1, 719565, Control_c, 0, 64, 127
1, 719917, Note_off_c, 0, 64, 57
1, 720118, Note_on_c, 0, 74, 87
1, 720129, Note_on_c, 0, 50, 59
1, 720134, Note_on_c, 0, 62, 63
1, 720159, Note_off_c, 0, 52, 60
1, 720168, Note_off_c, 0, 76, 55
1, 720225, Control_c, 0, 64, 109
1, 720240, Control_c, 0, 64, 92
1, 720255, Control_c, 0, 64, 81
1, 720269, Control_c, 0, 64, 72
1, 720284, Control_c, 0, 64, 62
1, 720299, Control_c, 0, 64, 24
1, 720314, Control_c, 0, 64, 21
1, 720329, Control_c, 0, 64, 36
1, 720343, Control_c, 0, 64, 46
1, 720358, Control_c, 0, 64, 53
1, 720373, Control_c, 0, 64, 57
1, 720389, Control_c, 0, 64, 60
1, 720404, Control_c, 0, 64, 64
1, 720419, Control_c, 0, 64, 66
1, 720434, Control_c, 0, 64, 69
1, 720448, Control_c, 0, 64, 71
1, 720463, Control_c, 0, 64, 73
1, 720478, Control_c, 0, 64, 76
1, 720492, Control_c, 0, 64, 80
1, 720507, Control_c, 0, 64, 83
1, 720522, Control_c, 0, 64, 85
1, 720537, Control_c, 0, 64, 89
1, 720552, Control_c, 0, 64, 93
1, 720566, Control_c, 0, 64, 97
1, 720581, Control_c, 0, 64, 102
1, 720596, Control_c, 0, 64, 107
1, 720611, Control_c, 0, 64, 114
1, 720625, Control_c, 0, 64, 127
1, 720643, Note_off_c, 0, 62, 58
1, 720687, Note_off_c, 0, 74, 63
1, 721063, Control_c, 0, 64, 107
1, 721064, Note_on_c, 0, 67, 79
1, 721076, Note_on_c, 0, 55, 66
1, 721078, Note_on_c, 0, 43, 58
1, 721078, Control_c, 0, 64, 93
1, 721092, Control_c, 0, 64, 79
1, 721107, Control_c, 0, 64, 66
1, 721122, Control_c, 0, 64, 59
1, 721137, Control_c, 0, 64, 63
1, 721152, Control_c, 0, 64, 64
1, 721165, Note_off_c, 0, 50, 59
1, 721166, Control_c, 0, 64, 65
1, 721181, Control_c, 0, 64, 67
1, 721197, Control_c, 0, 64, 71
1, 721212, Control_c, 0, 64, 74
1, 721227, Control_c, 0, 64, 77
1, 721241, Control_c, 0, 64, 81
1, 721256, Control_c, 0, 64, 84
1, 721271, Control_c, 0, 64, 88
1, 721286, Control_c, 0, 64, 93
1, 721301, Control_c, 0, 64, 98
1, 721315, Control_c, 0, 64, 103
1, 721330, Control_c, 0, 64, 111
1, 721345, Control_c, 0, 64, 124
1, 721360, Control_c, 0, 64, 127
1, 721434, Note_off_c, 0, 55, 50
1, 721567, Control_c, 0, 64, 106
1, 721571, Note_on_c, 0, 69, 80
1, 721581, Note_on_c, 0, 45, 62
1, 721582, Control_c, 0, 64, 88
1, 721583, Note_on_c, 0, 57, 61
1, 721594, Note_off_c, 0, 43, 60
1, 721597, Control_c, 0, 64, 72
1, 721606, Note_off_c, 0, 67, 60
1, 721612, Control_c, 0, 64, 53
1, 721627, Control_c, 0, 64, 54
1, 721641, Control_c, 0, 64, 60
1, 721656, Control_c, 0, 64, 62
1, 721671, Control_c, 0, 64, 64
1, 721686, Control_c, 0, 64, 66
1, 721701, Control_c, 0, 64, 69
1, 721722, Control_c, 0, 64, 72
1, 721737, Control_c, 0, 64, 75
1, 721752, Control_c, 0, 64, 77
1, 721767, Control_c, 0, 64, 80
1, 721782, Control_c, 0, 64, 84
1, 721797, Control_c, 0, 64, 88
1, 721812, Control_c, 0, 64, 93
1, 721827, Control_c, 0, 64, 95
1, 721841, Control_c, 0, 64, 98
1, 721856, Control_c, 0, 64, 103
1, 721871, Control_c, 0, 64, 110
1, 721886, Control_c, 0, 64, 116
1, 721886, Note_off_c, 0, 57, 57
1, 721888, Note_off_c, 0, 69, 60
1, 721901, Control_c, 0, 64, 127
1, 722198, Control_c, 0, 64, 117
1, 722211, Note_on_c, 0, 62, 70
1, 722212, Control_c, 0, 64, 109
1, 722222, Note_on_c, 0, 38, 50
1, 722227, Control_c, 0, 64, 101
1, 722231, Note_on_c, 0, 50, 49
1, 722242, Control_c, 0, 64, 94
1, 722256, Control_c, 0, 64, 88
1, 722263, Note_off_c, 0, 45, 36
1, 722271, Control_c, 0, 64, 83
1, 722286, Control_c, 0, 64, 78
1, 722301, Control_c, 0, 64, 72
1, 722316, Control_c, 0, 64, 67
1, 722331, Control_c, 0, 64, 64
1, 722346, Control_c, 0, 64, 63
1, 722361, Control_c, 0, 64, 61
1, 722361, Control_c, 0, 67, 8
1, 722376, Control_c, 0, 64, 47
1, 722376, Control_c, 0, 67, 9
1, 722391, Control_c, 0, 64, 0
1, 722391, Control_c, 0, 67, 9
1, 722406, Control_c, 0, 67, 10
1, 722420, Control_c, 0, 67, 11
1, 722435, Control_c, 0, 67, 11
1, 722450, Control_c, 0, 67, 12
1, 722472, Control_c, 0, 67, 13
1, 722487, Control_c, 0, 67, 14
1, 722502, Control_c, 0, 67, 15
1, 722517, Control_c, 0, 67, 16
1, 722532, Control_c, 0, 67, 17
1, 722546, Control_c, 0, 67, 19
1, 722561, Control_c, 0, 67, 20
1, 722576, Control_c, 0, 67, 21
1, 722590, Control_c, 0, 67, 23
1, 722605, Control_c, 0, 67, 24
1, 722620, Control_c, 0, 67, 25
1, 722635, Control_c, 0, 67, 25
1, 722650, Control_c, 0, 67, 26
1, 722664, Control_c, 0, 67, 27
1, 722679, Control_c, 0, 67, 27
1, 722709, Control_c, 0, 67, 28
1, 722724, Control_c, 0, 67, 28
1, 722739, Control_c, 0, 67, 29
1, 722754, Control_c, 0, 67, 29
1, 722769, Control_c, 0, 64, 34
1, 722769, Control_c, 0, 67, 30
1, 722783, Control_c, 0, 64, 49
1, 722783, Control_c, 0, 67, 32
1, 722799, Control_c, 0, 64, 58
1, 722799, Control_c, 0, 67, 33
1, 722814, Control_c, 0, 64, 63
1, 722814, Control_c, 0, 67, 36
1, 722829, Control_c, 0, 64, 64
1, 722829, Control_c, 0, 67, 38
1, 722843, Control_c, 0, 64, 66
1, 722843, Control_c, 0, 67, 41
1, 722858, Control_c, 0, 64, 68
1, 722858, Control_c, 0, 67, 43
1, 722873, Control_c, 0, 64, 69
1, 722873, Control_c, 0, 67, 45
1, 722888, Control_c, 0, 64, 70
1, 722888, Control_c, 0, 67, 47
1, 722903, Control_c, 0, 64, 71
1, 722903, Control_c, 0, 67, 48
1, 722918, Control_c, 0, 64, 73
1, 722918, Control_c, 0, 67, 50
1, 722932, Control_c, 0, 64, 75
1, 722932, Control_c, 0, 67, 51
1, 722947, Control_c, 0, 64, 77
1, 722947, Control_c, 0, 67, 53
1, 722962, Control_c, 0, 64, 79
1, 722962, Control_c, 0, 67, 54
1, 722977, Control_c, 0, 64, 81
1, 722977, Control_c, 0, 67, 56
1, 722992, Control_c, 0, 64, 82
1, 722992, Control_c, 0, 67, 58
1, 723007, Control_c, 0, 64, 84
1, 723007, Control_c, 0, 67, 60
1, 723021, Control_c, 0, 64, 86
1, 723021, Control_c, 0, 67, 63
1, 723036, Control_c, 0, 64, 88
1, 723036, Control_c, 0, 67, 66
1, 723051, Control_c, 0, 64, 90
1, 723051, Control_c, 0, 67, 70
1, 723066, Control_c, 0, 64, 92
1, 723066, Control_c, 0, 67, 73
1, 723081, Control_c, 0, 64, 95
1, 723081, Control_c, 0, 67, 77
1, 723095, Control_c, 0, 64, 97
1, 723095, Control_c, 0, 67, 80
1, 723110, Control_c, 0, 64, 99
1, 723110, Control_c, 0, 67, 84
1, 723125, Control_c, 0, 64, 102
1, 723125, Control_c, 0, 67, 88
1, 723140, Control_c, 0, 64, 105
1, 723140, Control_c, 0, 67, 92
1, 723154, Control_c, 0, 64, 107
1, 723154, Control_c, 0, 67, 96
1, 723169, Control_c, 0, 64, 110
1, 723169, Control_c, 0, 67, 100
1, 723184, Control_c, 0, 64, 113
1, 723184, Control_c, 0, 67, 104
1, 723199, Control_c, 0, 64, 115
1, 723199, Control_c, 0, 67, 109
1, 723221, Control_c, 0, 64, 117
1, 723221, Control_c, 0, 67, 113
1, 723236, Control_c, 0, 67, 118
1, 723251, Control_c, 0, 67, 123
1, 723266, Control_c, 0, 67, 127
1, 723360, Note_off_c, 0, 50, 41
1, 723589, Note_off_c, 0, 62, 32
1, 723785, Control_c, 0, 64, 117
1, 723815, Control_c, 0, 64, 116
1, 723830, Control_c, 0, 64, 116
1, 723843, Control_c, 0, 64, 114
1, 723858, Control_c, 0, 64, 113
1, 723873, Control_c, 0, 64, 113
1, 723888, Control_c, 0, 64, 112
1, 723903, Control_c, 0, 64, 111
1, 723917, Control_c, 0, 64, 111
1, 723932, Control_c, 0, 64, 110
1, 723947, Control_c, 0, 64, 109
1, 723970, Control_c, 0, 64, 108
1, 723985, Control_c, 0, 64, 108
1, 723999, Control_c, 0, 64, 107
1, 724014, Control_c, 0, 64, 106
1, 724029, Control_c, 0, 64, 106
1, 724043, Control_c, 0, 64, 105
1, 724058, Control_c, 0, 64, 103
1, 724073, Control_c, 0, 64, 102
1, 724088, Control_c, 0, 64, 101
1, 724103, Control_c, 0, 64, 100
1, 724117, Control_c, 0, 64, 98
1, 724132, Control_c, 0, 64, 97
1, 724147, Control_c, 0, 64, 95
1, 724162, Control_c, 0, 64, 92
1, 724177, Control_c, 0, 64, 89
1, 724191, Control_c, 0, 64, 86
1, 724206, Control_c, 0, 64, 84
1, 724221, Control_c, 0, 64, 81
1, 724236, Control_c, 0, 64, 77
1, 724243, Note_on_c, 0, 40, 35
1, 724250, Note_on_c, 0, 64, 44
1, 724250, Control_c, 0, 64, 73
1, 724265, Control_c, 0, 64, 66
1, 724280, Control_c, 0, 64, 58
1, 724293, Note_off_c, 0, 38, 37
1, 724295, Control_c, 0, 64, 40
1, 724310, Control_c, 0, 64, 28
1, 724354, Control_c, 0, 64, 30
1, 724369, Control_c, 0, 64, 34
1, 724385, Control_c, 0, 64, 38
1, 724400, Control_c, 0, 64, 43
1, 724414, Control_c, 0, 64, 47
1, 724429, Control_c, 0, 64, 49
1, 724444, Control_c, 0, 64, 51
1, 724459, Control_c, 0, 64, 54
1, 724474, Control_c, 0, 64, 57
1, 724489, Control_c, 0, 64, 61
1, 724503, Control_c, 0, 64, 63
1, 724518, Control_c, 0, 64, 65
1, 724533, Control_c, 0, 64, 66
1, 724548, Control_c, 0, 64, 67
1, 724563, Control_c, 0, 64, 69
1, 724578, Control_c, 0, 64, 70
1, 724593, Control_c, 0, 64, 72
1, 724607, Control_c, 0, 64, 73
1, 724622, Control_c, 0, 64, 75
1, 724637, Control_c, 0, 64, 77
1, 724652, Control_c, 0, 64, 79
1, 724666, Control_c, 0, 64, 80
1, 724681, Control_c, 0, 64, 82
1, 724696, Control_c, 0, 64, 82
1, 724718, Control_c, 0, 64, 83
1, 724792, Control_c, 0, 64, 82
1, 724837, Control_c, 0, 64, 82
1, 724852, Control_c, 0, 64, 81
1, 724866, Control_c, 0, 64, 81
1, 724881, Control_c, 0, 64, 80
1, 724896, Control_c, 0, 64, 79
1, 724900, Note_off_c, 0, 64, 54
1, 724911, Control_c, 0, 64, 78
1, 724920, Note_on_c, 0, 38, 35
1, 724926, Control_c, 0, 64, 76
1, 724930, Note_on_c, 0, 62, 42
1, 724940, Control_c, 0, 64, 74
1, 724952, Note_off_c, 0, 40, 42
1, 724955, Control_c, 0, 64, 72
1, 724970, Control_c, 0, 64, 69
1, 724984, Control_c, 0, 64, 66
1, 724999, Control_c, 0, 64, 63
1, 725014, Control_c, 0, 64, 56
1, 725029, Control_c, 0, 64, 44
1, 725044, Control_c, 0, 64, 32
1, 725058, Control_c, 0, 64, 30
1, 725118, Control_c, 0, 64, 34
1, 725132, Control_c, 0, 64, 41
1, 725147, Control_c, 0, 64, 47
1, 725162, Control_c, 0, 64, 52
1, 725177, Control_c, 0, 64, 56
1, 725193, Control_c, 0, 64, 60
1, 725208, Control_c, 0, 64, 63
1, 725223, Control_c, 0, 64, 66
1, 725237, Control_c, 0, 64, 70
1, 725252, Control_c, 0, 64, 73
1, 725267, Control_c, 0, 64, 76
1, 725281, Control_c, 0, 64, 78
1, 725296, Control_c, 0, 64, 81
1, 725311, Control_c, 0, 64, 86
1, 725326, Control_c, 0, 64, 91
1, 725342, Control_c, 0, 64, 94
1, 725356, Control_c, 0, 64, 96
1, 725371, Control_c, 0, 64, 98
1, 725386, Control_c, 0, 64, 103
1, 725401, Control_c, 0, 64, 105
1, 725416, Control_c, 0, 64, 107
1, 725430, Control_c, 0, 64, 108
1, 725445, Control_c, 0, 64, 110
1, 725468, Control_c, 0, 64, 114
1, 725483, Control_c, 0, 64, 116
1, 725497, Control_c, 0, 64, 118
1, 725542, Control_c, 0, 64, 118
1, 725601, Control_c, 0, 64, 118
1, 725838, Control_c, 0, 64, 117
1, 725853, Control_c, 0, 64, 117
1, 725868, Control_c, 0, 64, 115
1, 725882, Control_c, 0, 64, 113
1, 725897, Control_c, 0, 64, 110
1, 725912, Control_c, 0, 64, 109
1, 725927, Control_c, 0, 64, 107
1, 725942, Control_c, 0, 64, 106
1, 725956, Control_c, 0, 64, 104
1, 725971, Control_c, 0, 64, 102
1, 725987, Control_c, 0, 64, 99
1, 726002, Control_c, 0, 64, 96
1, 726017, Control_c, 0, 64, 92
1, 726031, Control_c, 0, 64, 89
1, 726046, Control_c, 0, 64, 85
1, 726056, Note_on_c, 0, 55, 43
1, 726061, Control_c, 0, 64, 80
1, 726074, Note_on_c, 0, 31, 40
1, 726076, Control_c, 0, 64, 74
1, 726091, Control_c, 0, 64, 68
1, 726105, Control_c, 0, 64, 64
1, 726107, Note_off_c, 0, 38, 40
1, 726126, Note_off_c, 0, 62, 33
1, 726135, Control_c, 0, 64, 64
1, 726165, Control_c, 0, 64, 65
1, 726179, Control_c, 0, 64, 65
1, 726194, Control_c, 0, 64, 66
1, 726217, Control_c, 0, 64, 67
1, 726232, Control_c, 0, 64, 68
1, 726246, Control_c, 0, 64, 70
1, 726261, Control_c, 0, 64, 71
1, 726276, Control_c, 0, 64, 73
1, 726291, Control_c, 0, 64, 75
1, 726306, Control_c, 0, 64, 76
1, 726320, Control_c, 0, 64, 78
1, 726335, Control_c, 0, 64, 80
1, 726350, Control_c, 0, 64, 82
1, 726365, Control_c, 0, 64, 85
1, 726380, Control_c, 0, 64, 87
1, 726394, Control_c, 0, 64, 89
1, 726409, Control_c, 0, 64, 91
1, 726424, Control_c, 0, 64, 92
1, 726529, Note_off_c, 0, 55, 37
1, 726557, Control_c, 0, 64, 91
1, 726572, Control_c, 0, 64, 91
1, 726587, Control_c, 0, 64, 90
1, 726602, Control_c, 0, 64, 90
1, 726617, Control_c, 0, 64, 89
1, 726631, Control_c, 0, 64, 88
1, 726646, Control_c, 0, 64, 87
1, 726661, Control_c, 0, 64, 84
1, 726673, Note_off_c, 0, 31, 39
1, 726676, Control_c, 0, 64, 82
1, 726679, Note_on_c, 0, 57, 42
1, 726686, Note_on_c, 0, 33, 41
1, 726691, Control_c, 0, 64, 78
1, 726705, Control_c, 0, 64, 73
1, 726720, Control_c, 0, 64, 66
1, 726735, Control_c, 0, 64, 61
1, 726764, Control_c, 0, 64, 62
1, 726781, Control_c, 0, 64, 62
1, 726796, Control_c, 0, 64, 63
1, 726810, Control_c, 0, 64, 63
1, 726825, Control_c, 0, 64, 64
1, 726840, Control_c, 0, 64, 64
1, 726854, Control_c, 0, 64, 65
1, 726869, Control_c, 0, 64, 66
1, 726884, Control_c, 0, 64, 67
1, 726899, Control_c, 0, 64, 68
1, 726914, Control_c, 0, 64, 69
1, 726928, Control_c, 0, 64, 71
1, 726943, Control_c, 0, 64, 72
1, 726966, Control_c, 0, 64, 74
1, 726981, Control_c, 0, 64, 75
1, 726995, Control_c, 0, 64, 77
1, 727010, Control_c, 0, 64, 78
1, 727025, Control_c, 0, 64, 79
1, 727040, Control_c, 0, 64, 81
1, 727055, Control_c, 0, 64, 83
1, 727069, Control_c, 0, 64, 85
1, 727084, Control_c, 0, 64, 86
1, 727099, Control_c, 0, 64, 88
1, 727114, Control_c, 0, 64, 89
1, 727129, Control_c, 0, 64, 90
1, 727143, Control_c, 0, 64, 91
1, 727173, Control_c, 0, 64, 91
1, 727265, Note_off_c, 0, 57, 28
1, 727395, Control_c, 0, 64, 91
1, 727471, Note_off_c, 0, 33, 30
1, 727514, Control_c, 0, 64, 90
1, 727528, Control_c, 0, 64, 90
1, 727543, Control_c, 0, 64, 89
1, 727558, Control_c, 0, 64, 89
1, 727573, Control_c, 0, 64, 88
1, 727588, Control_c, 0, 64, 87
1, 727590, Note_on_c, 0, 50, 44
1, 727597, Note_on_c, 0, 38, 30
1, 727601, Note_on_c, 0, 26, 35
1, 727602, Control_c, 0, 64, 86
1, 727617, Control_c, 0, 64, 84
1, 727632, Control_c, 0, 64, 81
1, 727647, Control_c, 0, 64, 78
1, 727662, Control_c, 0, 64, 75
1, 727676, Control_c, 0, 64, 71
1, 727691, Control_c, 0, 64, 66
1, 727714, Control_c, 0, 64, 63
1, 727729, Control_c, 0, 64, 61
1, 727744, Control_c, 0, 64, 57
1, 727758, Control_c, 0, 64, 40
1, 727773, Control_c, 0, 64, 0
1, 728306, Control_c, 0, 64, 21
1, 728321, Control_c, 0, 64, 31
1, 728334, Control_c, 0, 64, 41
1, 728349, Control_c, 0, 64, 48
1, 728364, Control_c, 0, 64, 53
1, 728380, Control_c, 0, 64, 57
1, 728395, Control_c, 0, 64, 59
1, 728410, Control_c, 0, 64, 61
1, 728424, Control_c, 0, 64, 62
1, 728439, Control_c, 0, 64, 63
1, 728462, Control_c, 0, 64, 64
1, 728477, Control_c, 0, 64, 64
1, 728492, Control_c, 0, 64, 65
1, 728506, Control_c, 0, 64, 66
1, 728521, Control_c, 0, 64, 67
1, 728536, Control_c, 0, 64, 68
1, 728551, Control_c, 0, 64, 69
1, 728566, Control_c, 0, 64, 70
1, 728580, Control_c, 0, 64, 71
1, 728595, Control_c, 0, 64, 72
1, 728610, Control_c, 0, 64, 73
1, 728625, Control_c, 0, 64, 74
1, 728639, Control_c, 0, 64, 76
1, 728654, Control_c, 0, 64, 78
1, 728669, Control_c, 0, 64, 81
1, 728684, Control_c, 0, 64, 84
1, 728699, Control_c, 0, 64, 87
1, 728713, Control_c, 0, 64, 90
1, 728728, Control_c, 0, 64, 94
1, 728743, Control_c, 0, 64, 98
1, 728758, Control_c, 0, 64, 100
1, 728772, Control_c, 0, 64, 102
1, 728787, Control_c, 0, 64, 103
1, 728802, Control_c, 0, 64, 106
1, 728817, Control_c, 0, 64, 112
1, 728832, Control_c, 0, 64, 127
1, 729146, Note_off_c, 0, 50, 43
1, 729241, Control_c, 0, 67, 127
1, 729255, Control_c, 0, 67, 125
1, 729270, Control_c, 0, 67, 123
1, 729285, Control_c, 0, 67, 121
1, 729300, Control_c, 0, 67, 119
1, 729315, Control_c, 0, 67, 117
1, 729330, Control_c, 0, 67, 114
1, 729344, Control_c, 0, 67, 112
1, 729359, Control_c, 0, 67, 110
1, 729374, Control_c, 0, 67, 107
1, 729389, Control_c, 0, 67, 105
1, 729404, Control_c, 0, 67, 103
1, 729419, Control_c, 0, 67, 100
1, 729434, Control_c, 0, 67, 97
1, 729449, Control_c, 0, 67, 95
1, 729463, Control_c, 0, 67, 93
1, 729478, Control_c, 0, 67, 90
1, 729493, Control_c, 0, 67, 86
1, 729508, Control_c, 0, 67, 82
1, 729523, Control_c, 0, 67, 79
1, 729537, Control_c, 0, 67, 76
1, 729552, Control_c, 0, 67, 73
1, 729567, Control_c, 0, 67, 70
1, 729581, Control_c, 0, 67, 67
1, 729596, Control_c, 0, 67, 65
1, 729611, Control_c, 0, 67, 63
1, 729626, Control_c, 0, 67, 60
1, 729641, Control_c, 0, 67, 58
1, 729650, Note_off_c, 0, 26, 37
1, 729655, Control_c, 0, 67, 54
1, 729670, Control_c, 0, 67, 51
1, 729685, Control_c, 0, 67, 48
1, 729700, Control_c, 0, 67, 46
1, 729709, Note_off_c, 0, 38, 37
1, 729715, Control_c, 0, 67, 44
1, 729729, Control_c, 0, 67, 41
1, 729744, Control_c, 0, 67, 38
1, 729759, Control_c, 0, 67, 35
1, 729774, Control_c, 0, 67, 33
1, 729789, Control_c, 0, 67, 32
1, 729803, Control_c, 0, 67, 31
1, 729818, Control_c, 0, 67, 30
1, 729833, Control_c, 0, 67, 30
1, 729935, Note_on_c, 0, 62, 28
1, 729960, Note_on_c, 0, 59, 23
1, 730003, Control_c, 0, 67, 32
1, 730018, Control_c, 0, 67, 33
1, 730033, Control_c, 0, 67, 35
1, 730048, Control_c, 0, 67, 36
1, 730063, Control_c, 0, 67, 37
1, 730078, Control_c, 0, 67, 39
1, 730093, Control_c, 0, 67, 40
1, 730108, Control_c, 0, 67, 40
1, 730122, Control_c, 0, 67, 41
1, 730137, Control_c, 0, 67, 42
1, 730152, Control_c, 0, 67, 42
1, 730260, Note_on_c, 0, 67, 46
1, 730285, Control_c, 0, 67, 42
1, 730301, Note_off_c, 0, 62, 39
1, 730315, Control_c, 0, 67, 41
1, 730340, Note_off_c, 0, 59, 40
1, 730522, Control_c, 0, 64, 117
1, 730537, Control_c, 0, 64, 111
1, 730552, Control_c, 0, 64, 105
1, 730567, Control_c, 0, 64, 101
1, 730581, Control_c, 0, 64, 98
1, 730596, Control_c, 0, 64, 95
1, 730611, Control_c, 0, 64, 90
1, 730617, Note_on_c, 0, 60, 39
1, 730626, Control_c, 0, 64, 83
1, 730627, Note_on_c, 0, 26, 28
1, 730633, Note_on_c, 0, 57, 33
1, 730634, Note_on_c, 0, 38, 26
1, 730641, Control_c, 0, 64, 74
1, 730656, Control_c, 0, 64, 65
1, 730670, Control_c, 0, 64, 58
1, 730685, Control_c, 0, 64, 54
1, 730722, Control_c, 0, 64, 56
1, 730736, Control_c, 0, 64, 58
1, 730751, Control_c, 0, 64, 59
1, 730766, Control_c, 0, 64, 60
1, 730782, Control_c, 0, 64, 61
1, 730797, Control_c, 0, 64, 63
1, 730812, Control_c, 0, 64, 63
1, 730826, Control_c, 0, 64, 64
1, 730841, Control_c, 0, 64, 64
1, 730856, Control_c, 0, 64, 65
1, 730871, Control_c, 0, 64, 66
1, 730886, Control_c, 0, 64, 68
1, 730900, Control_c, 0, 64, 70
1, 730915, Control_c, 0, 64, 71
1, 730930, Control_c, 0, 64, 73
1, 730945, Control_c, 0, 64, 74
1, 730960, Control_c, 0, 64, 75
1, 730970, Note_off_c, 0, 60, 53
1, 730975, Control_c, 0, 64, 77
1, 730990, Control_c, 0, 64, 78
1, 731005, Control_c, 0, 64, 80
1, 731020, Control_c, 0, 64, 81
1, 731034, Control_c, 0, 64, 83
1, 731049, Control_c, 0, 64, 86
1, 731064, Control_c, 0, 64, 88
1, 731079, Control_c, 0, 64, 89
1, 731094, Control_c, 0, 64, 90
1, 731108, Control_c, 0, 64, 92
1, 731123, Control_c, 0, 64, 93
1, 731138, Control_c, 0, 64, 95
1, 731152, Control_c, 0, 64, 96
1, 731167, Control_c, 0, 64, 97
1, 731167, Control_c, 0, 67, 41
1, 731182, Control_c, 0, 64, 98
1, 731197, Control_c, 0, 64, 100
1, 731212, Control_c, 0, 64, 102
1, 731226, Control_c, 0, 64, 103
1, 731234, Note_off_c, 0, 67, 37
1, 731239, Note_on_c, 0, 66, 51
1, 731241, Control_c, 0, 64, 105
1, 731256, Control_c, 0, 64, 107
1, 731271, Control_c, 0, 64, 110
1, 731286, Control_c, 0, 64, 113
1, 731300, Control_c, 0, 64, 116
1, 731315, Control_c, 0, 64, 117
1, 731330, Control_c, 0, 64, 119
1, 731345, Control_c, 0, 64, 127
1, 731374, Control_c, 0, 67, 40
1, 731389, Control_c, 0, 67, 40
1, 731398, Note_off_c, 0, 26, 39
1, 731404, Control_c, 0, 67, 39
1, 731419, Control_c, 0, 67, 39
1, 731434, Control_c, 0, 67, 38
1, 731456, Control_c, 0, 67, 37
1, 731471, Control_c, 0, 67, 36
1, 731479, Note_off_c, 0, 57, 35
1, 731486, Control_c, 0, 67, 35
1, 731500, Control_c, 0, 67, 34
1, 731513, Note_on_c, 0, 69, 65
1, 731515, Control_c, 0, 67, 34
1, 731518, Note_off_c, 0, 38, 38
1, 731530, Control_c, 0, 67, 33
1, 731545, Control_c, 0, 67, 33
1, 731565, Note_off_c, 0, 66, 52
1, 731576, Control_c, 0, 67, 32
1, 731591, Control_c, 0, 67, 32
1, 731635, Control_c, 0, 67, 31
1, 731709, Control_c, 0, 67, 32
1, 731723, Control_c, 0, 67, 32
1, 731768, Control_c, 0, 64, 118
1, 731783, Control_c, 0, 64, 109
1, 731783, Control_c, 0, 67, 33
1, 731798, Control_c, 0, 64, 101
1, 731813, Control_c, 0, 64, 91
1, 731827, Note_on_c, 0, 62, 46
1, 731827, Control_c, 0, 64, 79
1, 731828, Note_on_c, 0, 59, 43
1, 731836, Note_on_c, 0, 38, 28
1, 731842, Control_c, 0, 64, 66
1, 731847, Note_on_c, 0, 26, 27
1, 731857, Control_c, 0, 64, 0
1, 731857, Control_c, 0, 67, 33
1, 731946, Control_c, 0, 64, 14
1, 731961, Control_c, 0, 64, 34
1, 731975, Control_c, 0, 64, 42
1, 731990, Control_c, 0, 64, 47
1, 732005, Control_c, 0, 64, 52
1, 732020, Control_c, 0, 64, 57
1, 732035, Control_c, 0, 64, 60
1, 732035, Control_c, 0, 67, 34
1, 732049, Control_c, 0, 64, 62
1, 732064, Control_c, 0, 64, 64
1, 732080, Control_c, 0, 64, 65
1, 732095, Control_c, 0, 64, 66
1, 732110, Control_c, 0, 64, 67
1, 732124, Control_c, 0, 64, 69
1, 732139, Control_c, 0, 64, 70
1, 732154, Control_c, 0, 64, 71
1, 732168, Control_c, 0, 64, 72
1, 732183, Control_c, 0, 64, 73
1, 732206, Control_c, 0, 64, 75
1, 732221, Control_c, 0, 64, 76
1, 732236, Control_c, 0, 64, 78
1, 732241, Note_off_c, 0, 62, 46
1, 732250, Control_c, 0, 64, 79
1, 732265, Control_c, 0, 64, 80
1, 732280, Control_c, 0, 64, 82
1, 732295, Control_c, 0, 64, 83
1, 732310, Control_c, 0, 64, 85
1, 732324, Control_c, 0, 64, 87
1, 732339, Control_c, 0, 64, 88
1, 732354, Control_c, 0, 64, 90
1, 732369, Control_c, 0, 64, 92
1, 732385, Control_c, 0, 64, 94
1, 732399, Control_c, 0, 64, 95
1, 732399, Control_c, 0, 67, 33
1, 732414, Control_c, 0, 64, 97
1, 732414, Control_c, 0, 67, 33
1, 732429, Control_c, 0, 64, 99
1, 732444, Control_c, 0, 64, 103
1, 732444, Control_c, 0, 67, 32
1, 732459, Control_c, 0, 64, 106
1, 732473, Control_c, 0, 64, 109
1, 732473, Control_c, 0, 67, 32
1, 732475, Note_on_c, 0, 67, 64
1, 732488, Control_c, 0, 64, 113
1, 732488, Control_c, 0, 67, 31
1, 732493, Note_off_c, 0, 69, 38
1, 732503, Control_c, 0, 64, 119
1, 732518, Control_c, 0, 64, 127
1, 732518, Control_c, 0, 67, 31
1, 732533, Control_c, 0, 67, 30
1, 732547, Control_c, 0, 67, 30
1, 732562, Control_c, 0, 67, 29
1, 732577, Control_c, 0, 67, 29
1, 732592, Control_c, 0, 67, 27
1, 732600, Note_off_c, 0, 26, 40
1, 732606, Control_c, 0, 67, 22
1, 732621, Control_c, 0, 67, 15
1, 732636, Control_c, 0, 67, 9
1, 732638, Note_off_c, 0, 59, 38
1, 732651, Control_c, 0, 67, 0
1, 732671, Note_off_c, 0, 38, 40
1, 732802, Note_on_c, 0, 71, 74
1, 732841, Note_off_c, 0, 67, 57
1, 733162, Control_c, 0, 64, 112
1, 733178, Control_c, 0, 64, 102
1, 733193, Control_c, 0, 64, 92
1, 733208, Control_c, 0, 64, 81
1, 733213, Note_on_c, 0, 64, 55
1, 733219, Note_on_c, 0, 38, 36
1, 733222, Control_c, 0, 64, 69
1, 733224, Note_on_c, 0, 61, 50
1, 733229, Note_on_c, 0, 26, 34
1, 733237, Control_c, 0, 64, 30
1, 733252, Control_c, 0, 64, 0
1, 733341, Control_c, 0, 64, 14
1, 733356, Control_c, 0, 64, 46
1, 733370, Control_c, 0, 64, 57
1, 733385, Control_c, 0, 64, 62
1, 733400, Control_c, 0, 64, 65
1, 733414, Control_c, 0, 64, 67
1, 733429, Control_c, 0, 64, 70
1, 733444, Control_c, 0, 64, 73
1, 733459, Control_c, 0, 64, 76
1, 733474, Control_c, 0, 64, 78
1, 733489, Control_c, 0, 64, 81
1, 733503, Control_c, 0, 64, 83
1, 733518, Control_c, 0, 64, 87
1, 733533, Control_c, 0, 64, 90
1, 733534, Note_off_c, 0, 61, 36
1, 733547, Control_c, 0, 64, 93
1, 733562, Control_c, 0, 64, 96
1, 733577, Control_c, 0, 64, 98
1, 733592, Control_c, 0, 64, 102
1, 733607, Control_c, 0, 64, 105
1, 733622, Control_c, 0, 64, 108
1, 733637, Control_c, 0, 64, 110
1, 733641, Note_off_c, 0, 64, 38
1, 733652, Control_c, 0, 64, 114
1, 733667, Control_c, 0, 64, 120
1, 733682, Control_c, 0, 64, 127
1, 733912, Note_off_c, 0, 71, 58
1, 734012, Note_on_c, 0, 69, 71
1, 734217, Note_off_c, 0, 26, 39
1, 734571, Note_off_c, 0, 69, 53
1, 734572, Note_on_c, 0, 79, 82
1, 734758, Note_off_c, 0, 38, 40
1, 735010, Note_on_c, 0, 26, 54
1, 735075, Control_c, 0, 64, 114
1, 735089, Note_on_c, 0, 78, 75
1, 735090, Control_c, 0, 64, 96
1, 735105, Control_c, 0, 64, 77
1, 735120, Control_c, 0, 64, 64
1, 735133, Note_off_c, 0, 79, 55
1, 735135, Control_c, 0, 64, 0
1, 735149, Control_c, 0, 64, 31
1, 735164, Control_c, 0, 64, 49
1, 735179, Control_c, 0, 64, 57
1, 735201, Control_c, 0, 64, 62
1, 735216, Control_c, 0, 64, 65
1, 735231, Control_c, 0, 64, 68
1, 735246, Control_c, 0, 64, 71
1, 735261, Control_c, 0, 64, 75
1, 735275, Control_c, 0, 64, 79
1, 735290, Control_c, 0, 64, 82
1, 735305, Control_c, 0, 64, 86
1, 735314, Note_off_c, 0, 26, 48
1, 735319, Control_c, 0, 64, 89
1, 735334, Control_c, 0, 64, 92
1, 735345, Note_on_c, 0, 38, 55
1, 735349, Control_c, 0, 64, 95
1, 735364, Control_c, 0, 64, 100
1, 735379, Control_c, 0, 64, 104
1, 735384, Note_off_c, 0, 38, 62
1, 735393, Control_c, 0, 64, 110
1, 735408, Control_c, 0, 64, 119
1, 735423, Control_c, 0, 64, 127
1, 735507, Note_on_c, 0, 74, 72
1, 735545, Note_off_c, 0, 78, 54
1, 735620, Note_on_c, 0, 50, 49
1, 735678, Note_on_c, 0, 76, 69
1, 735679, Note_off_c, 0, 74, 61
1, 735807, Note_on_c, 0, 57, 55
1, 735828, Note_off_c, 0, 76, 60
1, 735830, Note_on_c, 0, 74, 69
1, 735965, Note_off_c, 0, 74, 63
1, 735975, Note_on_c, 0, 76, 69
1, 735999, Note_off_c, 0, 57, 61
1, 736008, Note_on_c, 0, 62, 66
1, 736013, Note_off_c, 0, 50, 37
1, 736090, Note_off_c, 0, 76, 59
1, 736099, Note_on_c, 0, 74, 69
1, 736205, Note_off_c, 0, 74, 63
1, 736226, Note_on_c, 0, 76, 61
1, 736229, Note_on_c, 0, 66, 56
1, 736275, Note_off_c, 0, 62, 54
1, 736326, Note_off_c, 0, 76, 58
1, 736348, Note_on_c, 0, 74, 65
1, 736439, Note_off_c, 0, 74, 62
1, 736454, Note_on_c, 0, 76, 69
1, 736532, Note_off_c, 0, 76, 56
1, 736559, Note_on_c, 0, 74, 69
1, 736627, Note_off_c, 0, 74, 63
1, 736640, Note_on_c, 0, 76, 74
1, 736718, Note_off_c, 0, 76, 56
1, 736743, Note_on_c, 0, 74, 75
1, 736776, Note_off_c, 0, 66, 37
1, 736788, Note_off_c, 0, 74, 61
1, 736817, Note_on_c, 0, 76, 75
1, 736873, Note_off_c, 0, 76, 61
1, 736895, Note_on_c, 0, 74, 79
1, 736945, Note_off_c, 0, 74, 64
1, 736973, Note_on_c, 0, 76, 70
1, 737020, Note_off_c, 0, 76, 60
1, 737039, Note_on_c, 0, 74, 74
1, 737074, Note_off_c, 0, 74, 60
1, 737099, Note_on_c, 0, 76, 61
1, 737135, Note_off_c, 0, 76, 63
1, 737163, Note_on_c, 0, 74, 78
1, 737186, Note_off_c, 0, 74, 67
1, 737220, Note_on_c, 0, 76, 74
1, 737250, Note_off_c, 0, 76, 59
1, 737276, Note_on_c, 0, 74, 78
1, 737302, Note_off_c, 0, 74, 64
1, 737327, Note_on_c, 0, 76, 74
1, 737363, Note_off_c, 0, 76, 60
1, 737385, Note_on_c, 0, 74, 78
1, 737408, Note_off_c, 0, 74, 65
1, 737423, Note_on_c, 0, 76, 72
1, 737476, Note_off_c, 0, 76, 61
1, 737490, Note_on_c, 0, 74, 82
1, 737520, Note_off_c, 0, 74, 56
1, 737527, Note_on_c, 0, 76, 68
1, 737578, Note_off_c, 0, 76, 63
1, 737593, Note_on_c, 0, 74, 75
1, 737615, Note_off_c, 0, 74, 60
1, 737627, Note_on_c, 0, 76, 68
1, 737679, Note_off_c, 0, 76, 63
1, 737685, Note_on_c, 0, 74, 74
1, 737724, Note_on_c, 0, 76, 64
1, 737728, Note_off_c, 0, 74, 61
1, 737776, Note_off_c, 0, 76, 62
1, 737790, Note_on_c, 0, 74, 67
1, 737831, Note_off_c, 0, 74, 64
1, 737834, Note_on_c, 0, 76, 65
1, 737876, Note_off_c, 0, 76, 59
1, 737888, Note_on_c, 0, 74, 66
1, 737920, Note_off_c, 0, 74, 66
1, 737932, Note_on_c, 0, 76, 63
1, 737971, Note_off_c, 0, 76, 63
1, 737989, Note_on_c, 0, 74, 76
1, 738039, Note_on_c, 0, 76, 59
1, 738058, Note_off_c, 0, 74, 0
1, 738074, Note_off_c, 0, 76, 63
1, 738075, Note_on_c, 0, 74, 39
1, 738126, Note_off_c, 0, 74, 64
1, 738138, Note_on_c, 0, 73, 62
1, 738166, Note_off_c, 0, 73, 64
1, 738202, Note_on_c, 0, 74, 64
1, 738263, Note_off_c, 0, 74, 64
1, 738272, Note_on_c, 0, 76, 65
1, 738300, Control_c, 0, 64, 123
1, 738315, Control_c, 0, 64, 114
1, 738329, Note_on_c, 0, 78, 76
1, 738330, Note_off_c, 0, 76, 63
1, 738330, Control_c, 0, 64, 110
1, 738344, Control_c, 0, 64, 109
1, 738381, Note_off_c, 0, 78, 64
1, 738401, Note_on_c, 0, 79, 78
1, 738433, Control_c, 0, 67, 9
1, 738448, Control_c, 0, 67, 9
1, 738463, Control_c, 0, 67, 11
1, 738472, Note_off_c, 0, 79, 60
1, 738475, Note_on_c, 0, 81, 72
1, 738478, Control_c, 0, 67, 13
1, 738493, Control_c, 0, 67, 14
1, 738508, Control_c, 0, 67, 15
1, 738523, Control_c, 0, 67, 15
1, 738537, Control_c, 0, 64, 108
1, 738537, Control_c, 0, 67, 17
1, 738542, Note_on_c, 0, 83, 70
1, 738552, Control_c, 0, 64, 107
1, 738552, Control_c, 0, 67, 20
1, 738565, Note_off_c, 0, 81, 59
1, 738567, Control_c, 0, 64, 104
1, 738567, Control_c, 0, 67, 23
1, 738582, Control_c, 0, 64, 103
1, 738582, Control_c, 0, 67, 26
1, 738597, Control_c, 0, 64, 101
1, 738597, Control_c, 0, 67, 28
1, 738611, Control_c, 0, 64, 100
1, 738611, Control_c, 0, 67, 30
1, 738615, Note_on_c, 0, 85, 76
1, 738624, Note_off_c, 0, 83, 57
1, 738626, Control_c, 0, 64, 96
1, 738626, Control_c, 0, 67, 33
1, 738641, Control_c, 0, 64, 93
1, 738641, Control_c, 0, 67, 36
1, 738656, Control_c, 0, 64, 92
1, 738656, Control_c, 0, 67, 38
1, 738671, Control_c, 0, 67, 39
1, 738685, Control_c, 0, 67, 41
1, 738689, Note_off_c, 0, 85, 61
1, 738700, Control_c, 0, 67, 43
1, 738715, Control_c, 0, 67, 45
1, 738719, Note_on_c, 0, 86, 65
1, 738730, Control_c, 0, 67, 45
1, 738744, Control_c, 0, 67, 46
1, 738760, Control_c, 0, 64, 90
1, 738760, Control_c, 0, 67, 47
1, 738775, Control_c, 0, 64, 87
1, 738775, Control_c, 0, 67, 48
1, 738790, Control_c, 0, 64, 82
1, 738790, Control_c, 0, 67, 48
1, 738805, Control_c, 0, 64, 78
1, 738805, Control_c, 0, 67, 49
1, 738818, Note_off_c, 0, 86, 56
1, 738820, Control_c, 0, 64, 72
1, 738832, Note_on_c, 0, 90, 76
1, 738834, Control_c, 0, 64, 69
1, 738834, Control_c, 0, 67, 50
1, 738849, Control_c, 0, 67, 50
1, 738864, Control_c, 0, 64, 70
1, 738864, Control_c, 0, 67, 51
1, 738879, Control_c, 0, 64, 70
1, 738879, Control_c, 0, 67, 51
1, 738894, Control_c, 0, 64, 71
1, 738894, Control_c, 0, 67, 52
1, 738908, Control_c, 0, 64, 71
1, 738922, Note_off_c, 0, 90, 63
1, 738923, Note_on_c, 0, 86, 76
1, 738923, Control_c, 0, 64, 72
1, 738923, Control_c, 0, 67, 52
1, 738946, Control_c, 0, 67, 53
1, 738961, Control_c, 0, 64, 73
1, 738973, Note_off_c, 0, 86, 61
1, 738975, Control_c, 0, 64, 74
1, 738975, Control_c, 0, 67, 54
1, 738990, Control_c, 0, 64, 75
1, 738990, Control_c, 0, 67, 54
1, 738991, Note_on_c, 0, 83, 76
1, 739005, Control_c, 0, 64, 78
1, 739005, Control_c, 0, 67, 55
1, 739020, Control_c, 0, 64, 81
1, 739020, Control_c, 0, 67, 56
1, 739034, Control_c, 0, 64, 82
1, 739034, Control_c, 0, 67, 56
1, 739050, Note_off_c, 0, 83, 61
1, 739064, Control_c, 0, 67, 57
1, 739065, Note_on_c, 0, 80, 75
1, 739079, Control_c, 0, 64, 80
1, 739079, Control_c, 0, 67, 57
1, 739094, Control_c, 0, 64, 77
1, 739094, Control_c, 0, 67, 58
1, 739107, Note_on_c, 0, 83, 61
1, 739109, Control_c, 0, 64, 72
1, 739109, Control_c, 0, 67, 58
1, 739122, Note_off_c, 0, 80, 63
1, 739123, Control_c, 0, 64, 70
1, 739123, Control_c, 0, 67, 60
1, 739138, Control_c, 0, 64, 71
1, 739138, Control_c, 0, 67, 61
1, 739153, Control_c, 0, 64, 73
1, 739153, Control_c, 0, 67, 62
1, 739154, Note_on_c, 0, 81, 70
1, 739167, Control_c, 0, 64, 75
1, 739167, Control_c, 0, 67, 64
1, 739169, Note_off_c, 0, 83, 64
1, 739182, Control_c, 0, 64, 76
1, 739182, Control_c, 0, 67, 65
1, 739186, Note_off_c, 0, 81, 59
1, 739197, Control_c, 0, 64, 75
1, 739197, Control_c, 0, 67, 67
1, 739201, Note_on_c, 0, 76, 68
1, 739212, Control_c, 0, 64, 73
1, 739212, Control_c, 0, 67, 69
1, 739227, Control_c, 0, 64, 70
1, 739227, Control_c, 0, 67, 72
1, 739241, Control_c, 0, 64, 70
1, 739241, Control_c, 0, 67, 73
1, 739243, Note_off_c, 0, 76, 58
1, 739256, Control_c, 0, 64, 71
1, 739256, Control_c, 0, 67, 75
1, 739259, Note_on_c, 0, 74, 69
1, 739271, Control_c, 0, 64, 72
1, 739271, Control_c, 0, 67, 77
1, 739285, Note_off_c, 0, 74, 68
1, 739286, Control_c, 0, 64, 74
1, 739286, Control_c, 0, 67, 80
1, 739291, Note_on_c, 0, 78, 74
1, 739301, Control_c, 0, 64, 75
1, 739301, Control_c, 0, 67, 84
1, 739316, Control_c, 0, 64, 76
1, 739316, Control_c, 0, 67, 86
1, 739330, Control_c, 0, 64, 77
1, 739330, Control_c, 0, 67, 89
1, 739345, Control_c, 0, 67, 92
1, 739354, Note_off_c, 0, 78, 60
1, 739360, Control_c, 0, 64, 75
1, 739360, Control_c, 0, 67, 96
1, 739362, Note_on_c, 0, 74, 63
1, 739375, Control_c, 0, 64, 73
1, 739375, Control_c, 0, 67, 100
1, 739387, Note_off_c, 0, 74, 68
1, 739390, Control_c, 0, 64, 72
1, 739390, Control_c, 0, 67, 103
1, 739403, Note_on_c, 0, 71, 76
1, 739405, Control_c, 0, 64, 72
1, 739405, Control_c, 0, 67, 106
1, 739420, Control_c, 0, 64, 74
1, 739420, Control_c, 0, 67, 108
1, 739434, Control_c, 0, 64, 74
1, 739434, Control_c, 0, 67, 110
1, 739449, Control_c, 0, 67, 112
1, 739464, Control_c, 0, 64, 74
1, 739464, Control_c, 0, 67, 113
1, 739465, Note_off_c, 0, 71, 63
1, 739479, Control_c, 0, 67, 114
1, 739480, Note_on_c, 0, 68, 67
1, 739493, Control_c, 0, 64, 74
1, 739497, Poly_aftertouch_c, 0, 71, 0
1, 739508, Control_c, 0, 67, 114
1, 739509, Note_on_c, 0, 71, 55
1, 739516, Note_off_c, 0, 68, 59
1, 739523, Control_c, 0, 64, 74
1, 739538, Control_c, 0, 64, 73
1, 739553, Control_c, 0, 64, 72
1, 739562, Note_on_c, 0, 69, 58
1, 739566, Note_off_c, 0, 71, 62
1, 739569, Control_c, 0, 64, 72
1, 739594, Note_off_c, 0, 69, 65
1, 739604, Note_on_c, 0, 64, 69
1, 739613, Control_c, 0, 64, 71
1, 739628, Control_c, 0, 64, 70
1, 739643, Control_c, 0, 64, 70
1, 739645, Note_off_c, 0, 64, 61
1, 739664, Note_on_c, 0, 62, 47
1, 739672, Control_c, 0, 64, 70
1, 739694, Control_c, 0, 64, 70
1, 739697, Note_off_c, 0, 62, 56
1, 739709, Control_c, 0, 64, 69
1, 739711, Note_on_c, 0, 66, 58
1, 739753, Note_off_c, 0, 66, 59
1, 739766, Note_on_c, 0, 62, 68
1, 739784, Control_c, 0, 64, 69
1, 739792, Note_off_c, 0, 62, 65
1, 739798, Control_c, 0, 64, 68
1, 739813, Control_c, 0, 64, 67
1, 739814, Note_on_c, 0, 59, 67
1, 739871, Note_off_c, 0, 59, 47
1, 739887, Control_c, 0, 64, 67
1, 739895, Note_on_c, 0, 56, 63
1, 739932, Note_off_c, 0, 56, 63
1, 739946, Control_c, 0, 64, 66
1, 739953, Note_on_c, 0, 59, 32
1, 739961, Control_c, 0, 64, 65
1, 739990, Note_on_c, 0, 57, 54
1, 739992, Note_off_c, 0, 59, 62
1, 740024, Note_off_c, 0, 57, 64
1, 740037, Note_on_c, 0, 52, 62
1, 740050, Control_c, 0, 64, 64
1, 740094, Note_off_c, 0, 52, 55
1, 740120, Note_on_c, 0, 50, 50
1, 740123, Control_c, 0, 64, 63
1, 740138, Control_c, 0, 64, 62
1, 740158, Note_off_c, 0, 50, 66
1, 740161, Note_on_c, 0, 54, 63
1, 740213, Control_c, 0, 64, 61
1, 740226, Note_off_c, 0, 54, 62
1, 740228, Control_c, 0, 64, 61
1, 740237, Note_on_c, 0, 50, 58
1, 740257, Control_c, 0, 64, 61
1, 740279, Note_off_c, 0, 50, 66
1, 740304, Note_on_c, 0, 47, 55
1, 740371, Note_off_c, 0, 47, 52
1, 740377, Control_c, 0, 64, 61
1, 740406, Note_on_c, 0, 44, 50
1, 740443, Control_c, 0, 64, 59
1, 740452, Note_off_c, 0, 44, 62
1, 740458, Control_c, 0, 64, 55
1, 740473, Control_c, 0, 64, 53
1, 740484, Note_on_c, 0, 47, 38
1, 740535, Note_off_c, 0, 47, 63
1, 740552, Note_on_c, 0, 45, 52
1, 740625, Note_off_c, 0, 45, 59
1, 740643, Note_on_c, 0, 40, 42
1, 740784, Control_c, 0, 64, 52
1, 740787, Note_off_c, 0, 40, 35
1, 740799, Control_c, 0, 64, 47
1, 740805, Note_on_c, 0, 38, 38
1, 740813, Control_c, 0, 64, 0
1, 741093, Control_c, 0, 64, 29
1, 741108, Control_c, 0, 64, 51
1, 741123, Control_c, 0, 64, 59
1, 741137, Control_c, 0, 64, 64
1, 741153, Control_c, 0, 64, 65
1, 741168, Control_c, 0, 64, 67
1, 741191, Control_c, 0, 64, 69
1, 741205, Control_c, 0, 64, 71
1, 741220, Control_c, 0, 64, 73
1, 741235, Control_c, 0, 64, 74
1, 741250, Control_c, 0, 64, 75
1, 741265, Control_c, 0, 64, 77
1, 741280, Control_c, 0, 64, 79
1, 741295, Control_c, 0, 64, 81
1, 741309, Control_c, 0, 64, 82
1, 741487, Note_off_c, 0, 38, 32
1, 741487, Control_c, 0, 64, 81
1, 741516, Control_c, 0, 64, 81
1, 741531, Control_c, 0, 64, 80
1, 741546, Control_c, 0, 64, 80
1, 741575, Control_c, 0, 64, 79
1, 741590, Control_c, 0, 64, 78
1, 741605, Control_c, 0, 64, 77
1, 741620, Control_c, 0, 64, 76
1, 741635, Control_c, 0, 64, 75
1, 741650, Control_c, 0, 64, 73
1, 741664, Control_c, 0, 64, 71
1, 741679, Control_c, 0, 64, 70
1, 741694, Control_c, 0, 64, 69
1, 741709, Control_c, 0, 64, 68
1, 741724, Control_c, 0, 64, 68
1, 741739, Control_c, 0, 64, 67
1, 741753, Control_c, 0, 64, 67
1, 741768, Control_c, 0, 64, 66
1, 741783, Control_c, 0, 64, 65
1, 741814, Control_c, 0, 64, 65
1, 741858, Control_c, 0, 64, 64
1, 741902, Control_c, 0, 64, 64
1, 741985, Control_c, 0, 64, 63
1, 741999, Control_c, 0, 64, 63
1, 742029, Control_c, 0, 64, 62
1, 742059, Control_c, 0, 64, 62
1, 742073, Control_c, 0, 64, 61
1, 742088, Control_c, 0, 64, 60
1, 742103, Control_c, 0, 64, 59
1, 742118, Control_c, 0, 64, 59
1, 742132, Control_c, 0, 64, 58
1, 742162, Control_c, 0, 64, 57
1, 742177, Control_c, 0, 64, 57
1, 742192, Control_c, 0, 64, 56
1, 742207, Control_c, 0, 64, 56
1, 742222, Control_c, 0, 64, 55
1, 742237, Control_c, 0, 64, 54
1, 742252, Control_c, 0, 64, 54
1, 742266, Control_c, 0, 64, 53
1, 742296, Control_c, 0, 64, 52
1, 742310, Control_c, 0, 64, 52
1, 742340, Control_c, 0, 64, 51
1, 742370, Control_c, 0, 64, 51
1, 742517, Control_c, 0, 64, 51
1, 742547, Control_c, 0, 64, 52
1, 742562, Control_c, 0, 64, 53
1, 742562, Control_c, 0, 67, 114
1, 742577, Control_c, 0, 64, 54
1, 742577, Control_c, 0, 67, 113
1, 742592, Control_c, 0, 64, 55
1, 742592, Control_c, 0, 67, 113
1, 742606, Control_c, 0, 64, 56
1, 742621, Control_c, 0, 64, 58
1, 742636, Control_c, 0, 64, 59
1, 742636, Control_c, 0, 67, 112
1, 742651, Control_c, 0, 64, 61
1, 742651, Control_c, 0, 67, 111
1, 742666, Control_c, 0, 64, 62
1, 742666, Control_c, 0, 67, 111
1, 742688, Control_c, 0, 64, 64
1, 742688, Control_c, 0, 67, 109
1, 742703, Control_c, 0, 64, 65
1, 742703, Control_c, 0, 67, 108
1, 742717, Control_c, 0, 64, 66
1, 742717, Control_c, 0, 67, 107
1, 742732, Control_c, 0, 64, 68
1, 742732, Control_c, 0, 67, 105
1, 742747, Control_c, 0, 64, 69
1, 742747, Control_c, 0, 67, 104
1, 742763, Control_c, 0, 64, 70
1, 742763, Control_c, 0, 67, 102
1, 742778, Control_c, 0, 64, 72
1, 742778, Control_c, 0, 67, 101
1, 742793, Control_c, 0, 64, 73
1, 742793, Control_c, 0, 67, 96
1, 742807, Control_c, 0, 64, 76
1, 742807, Control_c, 0, 67, 90
1, 742822, Control_c, 0, 64, 77
1, 742822, Control_c, 0, 67, 82
1, 742837, Control_c, 0, 64, 79
1, 742837, Control_c, 0, 67, 75
1, 742852, Control_c, 0, 64, 81
1, 742852, Control_c, 0, 67, 67
1, 742867, Control_c, 0, 64, 83
1, 742867, Control_c, 0, 67, 60
1, 742882, Control_c, 0, 64, 86
1, 742882, Control_c, 0, 67, 53
1, 742896, Control_c, 0, 64, 89
1, 742896, Control_c, 0, 67, 45
1, 742911, Control_c, 0, 64, 91
1, 742911, Control_c, 0, 67, 40
1, 742926, Control_c, 0, 64, 93
1, 742926, Control_c, 0, 67, 36
1, 742940, Control_c, 0, 64, 95
1, 742940, Control_c, 0, 67, 31
1, 742955, Control_c, 0, 64, 98
1, 742955, Control_c, 0, 67, 26
1, 742970, Control_c, 0, 64, 101
1, 742970, Control_c, 0, 67, 19
1, 742985, Control_c, 0, 64, 104
1, 742985, Control_c, 0, 67, 10
1, 742994, Note_on_c, 0, 69, 71
1, 743000, Control_c, 0, 64, 107
1, 743000, Control_c, 0, 67, 0
1, 743012, Note_on_c, 0, 65, 50
1, 743015, Control_c, 0, 64, 111
1, 743030, Control_c, 0, 64, 117
1, 743045, Control_c, 0, 64, 127
1, 743456, Note_on_c, 0, 74, 74
1, 743471, Note_off_c, 0, 65, 58
1, 743812, Note_on_c, 0, 64, 59
1, 743818, Note_on_c, 0, 57, 52
1, 744045, Control_c, 0, 64, 110
1, 744060, Control_c, 0, 64, 77
1, 744074, Control_c, 0, 64, 0
1, 744163, Control_c, 0, 64, 45
1, 744186, Control_c, 0, 64, 60
1, 744201, Control_c, 0, 64, 64
1, 744216, Control_c, 0, 64, 65
1, 744230, Control_c, 0, 64, 68
1, 744245, Control_c, 0, 64, 71
1, 744260, Control_c, 0, 64, 73
1, 744275, Note_on_c, 0, 72, 75
1, 744275, Control_c, 0, 64, 76
1, 744289, Control_c, 0, 64, 78
1, 744304, Control_c, 0, 64, 80
1, 744314, Note_off_c, 0, 74, 61
1, 744319, Control_c, 0, 64, 81
1, 744334, Control_c, 0, 64, 83
1, 744349, Control_c, 0, 64, 83
1, 744365, Control_c, 0, 64, 84
1, 744379, Control_c, 0, 64, 85
1, 744394, Control_c, 0, 64, 87
1, 744409, Control_c, 0, 64, 88
1, 744424, Control_c, 0, 64, 89
1, 744453, Control_c, 0, 64, 90
1, 744499, Note_on_c, 0, 77, 83
1, 744512, Note_off_c, 0, 72, 64
1, 744512, Control_c, 0, 64, 90
1, 744616, Control_c, 0, 64, 90
1, 744690, Control_c, 0, 64, 89
1, 744705, Control_c, 0, 64, 88
1, 744720, Control_c, 0, 64, 86
1, 744735, Control_c, 0, 64, 82
1, 744743, Note_on_c, 0, 65, 73
1, 744750, Control_c, 0, 64, 75
1, 744765, Control_c, 0, 64, 66
1, 744779, Control_c, 0, 64, 32
1, 744794, Control_c, 0, 64, 0
1, 744843, Note_off_c, 0, 64, 58
1, 744898, Control_c, 0, 64, 47
1, 744912, Control_c, 0, 64, 59
1, 744935, Control_c, 0, 64, 63
1, 744949, Control_c, 0, 64, 65
1, 744964, Control_c, 0, 64, 67
1, 744979, Control_c, 0, 64, 69
1, 744994, Control_c, 0, 64, 72
1, 745009, Control_c, 0, 64, 75
1, 745024, Control_c, 0, 64, 77
1, 745039, Control_c, 0, 64, 79
1, 745053, Control_c, 0, 64, 81
1, 745068, Control_c, 0, 64, 84
1, 745083, Control_c, 0, 64, 87
1, 745098, Control_c, 0, 64, 89
1, 745112, Control_c, 0, 64, 92
1, 745127, Control_c, 0, 64, 95
1, 745142, Control_c, 0, 64, 98
1, 745158, Control_c, 0, 64, 100
1, 745173, Control_c, 0, 64, 103
1, 745174, Note_on_c, 0, 76, 77
1, 745188, Control_c, 0, 64, 104
1, 745199, Note_off_c, 0, 77, 62
1, 745202, Control_c, 0, 64, 105
1, 745217, Control_c, 0, 64, 107
1, 745232, Control_c, 0, 64, 108
1, 745236, Note_off_c, 0, 57, 35
1, 745247, Control_c, 0, 64, 109
1, 745262, Control_c, 0, 64, 110
1, 745277, Control_c, 0, 64, 110
1, 745469, Control_c, 0, 64, 110
1, 745572, Control_c, 0, 64, 108
1, 745587, Control_c, 0, 64, 107
1, 745602, Control_c, 0, 64, 106
1, 745617, Control_c, 0, 64, 105
1, 745632, Control_c, 0, 64, 103
1, 745647, Control_c, 0, 64, 101
1, 745662, Control_c, 0, 64, 98
1, 745683, Control_c, 0, 64, 95
1, 745698, Control_c, 0, 64, 91
1, 745713, Control_c, 0, 64, 86
1, 745722, Note_on_c, 0, 75, 67
1, 745728, Control_c, 0, 64, 81
1, 745730, Note_off_c, 0, 76, 61
1, 745737, Note_on_c, 0, 66, 40
1, 745742, Control_c, 0, 64, 74
1, 745743, Note_on_c, 0, 59, 34
1, 745757, Control_c, 0, 64, 65
1, 745772, Control_c, 0, 64, 30
1, 745778, Note_off_c, 0, 65, 52
1, 745787, Control_c, 0, 64, 0
1, 745981, Control_c, 0, 64, 29
1, 745996, Control_c, 0, 64, 52
1, 746011, Control_c, 0, 64, 60
1, 746025, Control_c, 0, 64, 63
1, 746040, Control_c, 0, 64, 65
1, 746055, Control_c, 0, 64, 67
1, 746070, Control_c, 0, 64, 69
1, 746085, Control_c, 0, 64, 71
1, 746099, Control_c, 0, 64, 73
1, 746114, Control_c, 0, 64, 74
1, 746129, Control_c, 0, 64, 77
1, 746144, Control_c, 0, 64, 79
1, 746158, Control_c, 0, 64, 81
1, 746173, Control_c, 0, 64, 83
1, 746188, Control_c, 0, 64, 85
1, 746203, Control_c, 0, 64, 88
1, 746218, Control_c, 0, 64, 90
1, 746232, Control_c, 0, 64, 92
1, 746247, Control_c, 0, 64, 94
1, 746262, Control_c, 0, 64, 96
1, 746276, Control_c, 0, 64, 98
1, 746291, Control_c, 0, 64, 100
1, 746306, Control_c, 0, 64, 103
1, 746321, Control_c, 0, 64, 106
1, 746336, Control_c, 0, 64, 108
1, 746350, Control_c, 0, 64, 110
1, 746365, Control_c, 0, 64, 113
1, 746380, Control_c, 0, 64, 115
1, 746386, Note_on_c, 0, 83, 67
1, 746395, Control_c, 0, 64, 117
1, 746410, Control_c, 0, 64, 117
1, 746447, Control_c, 0, 64, 118
1, 746462, Control_c, 0, 64, 118
1, 746491, Control_c, 0, 64, 119
1, 746609, Note_off_c, 0, 69, 35
1, 746649, Note_off_c, 0, 59, 41
1, 746655, Control_c, 0, 64, 118
1, 746669, Note_off_c, 0, 75, 44
1, 746672, Note_off_c, 0, 83, 59
1, 746704, Note_off_c, 0, 66, 35
1, 746789, Control_c, 0, 64, 118
1, 746804, Control_c, 0, 64, 116
1, 746819, Control_c, 0, 64, 113
1, 746834, Control_c, 0, 64, 112
1, 746848, Control_c, 0, 64, 110
1, 746863, Control_c, 0, 64, 107
1, 746878, Control_c, 0, 64, 104
1, 746893, Control_c, 0, 64, 102
1, 746908, Control_c, 0, 64, 100
1, 746923, Control_c, 0, 64, 98
1, 746938, Control_c, 0, 64, 97
1, 746953, Control_c, 0, 64, 95
1, 746968, Control_c, 0, 64, 94
1, 746982, Control_c, 0, 64, 92
1, 746982, Control_c, 0, 67, 8
1, 746997, Control_c, 0, 64, 90
1, 746997, Control_c, 0, 67, 8
1, 747012, Control_c, 0, 64, 88
1, 747012, Control_c, 0, 67, 9
1, 747027, Control_c, 0, 64, 86
1, 747027, Control_c, 0, 67, 9
1, 747042, Control_c, 0, 64, 83
1, 747042, Control_c, 0, 67, 11
1, 747056, Control_c, 0, 64, 82
1, 747056, Control_c, 0, 67, 12
1, 747071, Control_c, 0, 64, 81
1, 747071, Control_c, 0, 67, 14
1, 747086, Control_c, 0, 64, 79
1, 747086, Control_c, 0, 67, 15
1, 747100, Control_c, 0, 64, 76
1, 747100, Control_c, 0, 67, 17
1, 747115, Control_c, 0, 64, 75
1, 747115, Control_c, 0, 67, 19
1, 747130, Control_c, 0, 64, 73
1, 747130, Control_c, 0, 67, 22
1, 747145, Control_c, 0, 64, 72
1, 747145, Control_c, 0, 67, 25
1, 747160, Control_c, 0, 64, 71
1, 747160, Control_c, 0, 67, 28
1, 747182, Control_c, 0, 64, 70
1, 747182, Control_c, 0, 67, 31
1, 747197, Control_c, 0, 64, 68
1, 747197, Control_c, 0, 67, 34
1, 747212, Control_c, 0, 64, 68
1, 747212, Control_c, 0, 67, 37
1, 747227, Control_c, 0, 67, 40
1, 747242, Control_c, 0, 64, 67
1, 747242, Control_c, 0, 67, 42
1, 747256, Control_c, 0, 64, 66
1, 747256, Control_c, 0, 67, 45
1, 747271, Control_c, 0, 64, 66
1, 747271, Control_c, 0, 67, 48
1, 747286, Control_c, 0, 64, 65
1, 747286, Control_c, 0, 67, 52
1, 747300, Control_c, 0, 64, 65
1, 747300, Control_c, 0, 67, 54
1, 747315, Control_c, 0, 64, 64
1, 747315, Control_c, 0, 67, 56
1, 747330, Control_c, 0, 64, 64
1, 747330, Control_c, 0, 67, 58
1, 747345, Control_c, 0, 64, 63
1, 747345, Control_c, 0, 67, 61
1, 747360, Control_c, 0, 67, 64
1, 747374, Control_c, 0, 64, 63
1, 747374, Control_c, 0, 67, 67
1, 747389, Control_c, 0, 67, 70
1, 747404, Control_c, 0, 64, 62
1, 747404, Control_c, 0, 67, 72
1, 747419, Control_c, 0, 64, 61
1, 747419, Control_c, 0, 67, 74
1, 747434, Control_c, 0, 67, 77
1, 747448, Control_c, 0, 67, 78
1, 747463, Control_c, 0, 64, 61
1, 747463, Control_c, 0, 67, 81
1, 747478, Control_c, 0, 64, 60
1, 747478, Control_c, 0, 67, 84
1, 747493, Control_c, 0, 64, 59
1, 747493, Control_c, 0, 67, 86
1, 747507, Control_c, 0, 67, 89
1, 747522, Control_c, 0, 67, 91
1, 747537, Control_c, 0, 64, 58
1, 747537, Control_c, 0, 67, 94
1, 747553, Control_c, 0, 64, 56
1, 747553, Control_c, 0, 67, 97
1, 747568, Control_c, 0, 64, 50
1, 747568, Control_c, 0, 67, 101
1, 747583, Control_c, 0, 64, 46
1, 747583, Control_c, 0, 67, 105
1, 747597, Control_c, 0, 64, 46
1, 747597, Control_c, 0, 67, 108
1, 747612, Control_c, 0, 67, 111
1, 747627, Control_c, 0, 67, 114
1, 747642, Control_c, 0, 67, 117
1, 747657, Control_c, 0, 67, 121
1, 747671, Control_c, 0, 64, 46
1, 747671, Control_c, 0, 67, 124
1, 747686, Control_c, 0, 64, 47
1, 747686, Control_c, 0, 67, 127
1, 747701, Control_c, 0, 64, 48
1, 747716, Control_c, 0, 64, 50
1, 747731, Control_c, 0, 64, 51
1, 747746, Control_c, 0, 64, 53
1, 747760, Control_c, 0, 64, 54
1, 747775, Control_c, 0, 64, 55
1, 747790, Control_c, 0, 64, 56
1, 747805, Control_c, 0, 64, 58
1, 747820, Control_c, 0, 64, 58
1, 747835, Control_c, 0, 64, 59
1, 747850, Control_c, 0, 64, 61
1, 747865, Control_c, 0, 64, 63
1, 747880, Control_c, 0, 64, 63
1, 747895, Control_c, 0, 64, 64
1, 747909, Control_c, 0, 64, 65
1, 747931, Control_c, 0, 64, 65
1, 747946, Control_c, 0, 64, 66
1, 747961, Control_c, 0, 64, 67
1, 747976, Control_c, 0, 64, 68
1, 747991, Control_c, 0, 64, 69
1, 748005, Control_c, 0, 64, 70
1, 748020, Control_c, 0, 64, 71
1, 748035, Control_c, 0, 64, 71
1, 748050, Control_c, 0, 64, 72
1, 748064, Control_c, 0, 64, 73
1, 748072, Note_on_c, 0, 66, 45
1, 748079, Control_c, 0, 64, 74
1, 748080, Note_on_c, 0, 62, 28
1, 748094, Control_c, 0, 64, 75
1, 748109, Control_c, 0, 64, 75
1, 748124, Control_c, 0, 64, 76
1, 748139, Control_c, 0, 64, 77
1, 748154, Control_c, 0, 64, 78
1, 748169, Control_c, 0, 64, 79
1, 748184, Control_c, 0, 64, 81
1, 748198, Control_c, 0, 64, 82
1, 748213, Control_c, 0, 64, 83
1, 748228, Control_c, 0, 64, 85
1, 748243, Control_c, 0, 64, 87
1, 748257, Control_c, 0, 64, 88
1, 748272, Control_c, 0, 64, 89
1, 748287, Control_c, 0, 64, 91
1, 748302, Control_c, 0, 64, 92
1, 748317, Control_c, 0, 64, 95
1, 748331, Control_c, 0, 64, 97
1, 748347, Control_c, 0, 64, 99
1, 748362, Control_c, 0, 64, 101
1, 748377, Control_c, 0, 64, 102
1, 748392, Control_c, 0, 64, 104
1, 748407, Control_c, 0, 64, 105
1, 748421, Control_c, 0, 64, 107
1, 748436, Control_c, 0, 64, 109
1, 748442, Note_on_c, 0, 71, 54
1, 748451, Control_c, 0, 64, 110
1, 748466, Control_c, 0, 64, 110
1, 748606, Note_off_c, 0, 62, 39
1, 748798, Control_c, 0, 64, 110
1, 748813, Control_c, 0, 64, 109
1, 748828, Control_c, 0, 64, 109
1, 748842, Control_c, 0, 64, 108
1, 748843, Note_on_c, 0, 54, 40
1, 748845, Note_on_c, 0, 61, 41
1, 748857, Control_c, 0, 64, 107
1, 748872, Control_c, 0, 64, 105
1, 748887, Control_c, 0, 64, 104
1, 748902, Control_c, 0, 64, 102
1, 748917, Control_c, 0, 64, 101
1, 748932, Control_c, 0, 64, 99
1, 748946, Control_c, 0, 64, 98
1, 748961, Control_c, 0, 64, 96
1, 748976, Control_c, 0, 64, 94
1, 748991, Control_c, 0, 64, 92
1, 749006, Control_c, 0, 64, 90
1, 749020, Control_c, 0, 64, 86
1, 749035, Control_c, 0, 64, 75
1, 749050, Control_c, 0, 64, 46
1, 749065, Control_c, 0, 64, 0
1, 749214, Control_c, 0, 64, 11
1, 749229, Control_c, 0, 64, 45
1, 749243, Control_c, 0, 64, 55
1, 749258, Control_c, 0, 64, 60
1, 749273, Control_c, 0, 64, 62
1, 749288, Control_c, 0, 64, 64
1, 749302, Control_c, 0, 64, 65
1, 749310, Note_off_c, 0, 71, 51
1, 749317, Control_c, 0, 64, 67
1, 749332, Control_c, 0, 64, 68
1, 749340, Note_on_c, 0, 69, 39
1, 749347, Control_c, 0, 64, 70
1, 749362, Control_c, 0, 64, 71
1, 749376, Control_c, 0, 64, 72
1, 749391, Control_c, 0, 64, 73
1, 749406, Control_c, 0, 64, 74
1, 749429, Control_c, 0, 64, 75
1, 749444, Control_c, 0, 64, 77
1, 749458, Control_c, 0, 64, 78
1, 749473, Control_c, 0, 64, 80
1, 749488, Control_c, 0, 64, 82
1, 749502, Control_c, 0, 64, 84
1, 749517, Control_c, 0, 64, 86
1, 749532, Control_c, 0, 64, 87
1, 749547, Control_c, 0, 64, 89
1, 749562, Control_c, 0, 64, 90
1, 749576, Control_c, 0, 64, 91
1, 749583, Note_off_c, 0, 69, 57
1, 749587, Note_on_c, 0, 74, 49
1, 749650, Control_c, 0, 67, 127
1, 749665, Control_c, 0, 67, 126
1, 749680, Control_c, 0, 67, 124
1, 749695, Control_c, 0, 67, 122
1, 749710, Control_c, 0, 67, 121
1, 749740, Control_c, 0, 67, 120
1, 749755, Control_c, 0, 64, 90
1, 749769, Control_c, 0, 64, 89
1, 749784, Control_c, 0, 64, 89
1, 749799, Control_c, 0, 64, 88
1, 749814, Control_c, 0, 64, 87
1, 749823, Note_on_c, 0, 62, 46
1, 749828, Control_c, 0, 64, 84
1, 749837, Note_off_c, 0, 61, 41
1, 749843, Control_c, 0, 64, 80
1, 749858, Control_c, 0, 64, 74
1, 749873, Control_c, 0, 64, 67
1, 749888, Control_c, 0, 64, 57
1, 749902, Control_c, 0, 64, 53
1, 749917, Control_c, 0, 64, 58
1, 749917, Control_c, 0, 67, 120
1, 749932, Control_c, 0, 64, 61
1, 749948, Control_c, 0, 64, 62
1, 749948, Control_c, 0, 67, 119
1, 749963, Control_c, 0, 64, 63
1, 749978, Control_c, 0, 64, 64
1, 749978, Control_c, 0, 67, 119
1, 749992, Control_c, 0, 64, 65
1, 749992, Control_c, 0, 67, 118
1, 750007, Control_c, 0, 64, 67
1, 750007, Control_c, 0, 67, 115
1, 750022, Control_c, 0, 64, 68
1, 750022, Control_c, 0, 67, 112
1, 750037, Control_c, 0, 64, 69
1, 750037, Control_c, 0, 67, 109
1, 750052, Control_c, 0, 64, 71
1, 750052, Control_c, 0, 67, 107
1, 750066, Control_c, 0, 64, 72
1, 750066, Control_c, 0, 67, 103
1, 750081, Control_c, 0, 64, 74
1, 750081, Control_c, 0, 67, 100
1, 750096, Control_c, 0, 64, 75
1, 750096, Control_c, 0, 67, 96
1, 750111, Control_c, 0, 64, 77
1, 750111, Control_c, 0, 67, 93
1, 750125, Control_c, 0, 64, 79
1, 750125, Control_c, 0, 67, 89
1, 750140, Control_c, 0, 64, 81
1, 750140, Control_c, 0, 67, 85
1, 750155, Control_c, 0, 64, 82
1, 750155, Control_c, 0, 67, 81
1, 750178, Control_c, 0, 64, 84
1, 750178, Control_c, 0, 67, 76
1, 750193, Control_c, 0, 64, 86
1, 750193, Control_c, 0, 67, 72
1, 750207, Control_c, 0, 64, 88
1, 750207, Control_c, 0, 67, 69
1, 750222, Control_c, 0, 64, 91
1, 750222, Control_c, 0, 67, 66
1, 750237, Control_c, 0, 64, 93
1, 750237, Control_c, 0, 67, 63
1, 750252, Control_c, 0, 64, 94
1, 750252, Control_c, 0, 67, 61
1, 750267, Control_c, 0, 64, 95
1, 750267, Control_c, 0, 67, 58
1, 750281, Control_c, 0, 64, 96
1, 750281, Control_c, 0, 67, 56
1, 750282, Note_on_c, 0, 73, 62
1, 750296, Control_c, 0, 67, 54
1, 750305, Note_off_c, 0, 74, 39
1, 750311, Control_c, 0, 64, 97
1, 750311, Control_c, 0, 67, 52
1, 750325, Control_c, 0, 64, 98
1, 750325, Control_c, 0, 67, 50
1, 750340, Control_c, 0, 64, 99
1, 750340, Control_c, 0, 67, 48
1, 750355, Control_c, 0, 64, 100
1, 750355, Control_c, 0, 67, 48
1, 750357, Note_off_c, 0, 62, 54
1, 750370, Control_c, 0, 64, 100
1, 750370, Control_c, 0, 67, 47
1, 750385, Control_c, 0, 67, 46
1, 750399, Control_c, 0, 64, 101
1, 750399, Control_c, 0, 67, 46
1, 750414, Control_c, 0, 64, 102
1, 750414, Control_c, 0, 67, 45
1, 750429, Control_c, 0, 64, 103
1, 750429, Control_c, 0, 67, 45
1, 750444, Control_c, 0, 64, 104
1, 750444, Control_c, 0, 67, 44
1, 750458, Control_c, 0, 67, 43
1, 750473, Control_c, 0, 67, 42
1, 750488, Control_c, 0, 67, 41
1, 750503, Control_c, 0, 67, 40
1, 750518, Control_c, 0, 67, 39
1, 750533, Control_c, 0, 67, 38
1, 750548, Control_c, 0, 67, 37
1, 750562, Control_c, 0, 67, 36
1, 750577, Control_c, 0, 67, 35
1, 750592, Control_c, 0, 67, 34
1, 750607, Control_c, 0, 67, 32
1, 750622, Control_c, 0, 67, 31
1, 750637, Control_c, 0, 67, 30
1, 750651, Control_c, 0, 67, 28
1, 750666, Control_c, 0, 67, 27
1, 750681, Control_c, 0, 67, 26
1, 750696, Control_c, 0, 67, 25
1, 750711, Control_c, 0, 67, 24
1, 750725, Control_c, 0, 67, 24
1, 750741, Control_c, 0, 67, 23
1, 750756, Control_c, 0, 64, 104
1, 750756, Control_c, 0, 67, 23
1, 750771, Control_c, 0, 67, 22
1, 750786, Control_c, 0, 64, 103
1, 750786, Control_c, 0, 67, 21
1, 750801, Control_c, 0, 64, 103
1, 750801, Control_c, 0, 67, 20
1, 750815, Control_c, 0, 64, 102
1, 750830, Control_c, 0, 64, 101
1, 750830, Control_c, 0, 67, 20
1, 750845, Control_c, 0, 64, 100
1, 750860, Control_c, 0, 64, 99
1, 750874, Control_c, 0, 64, 99
1, 750889, Control_c, 0, 64, 98
1, 750904, Control_c, 0, 64, 98
1, 750926, Control_c, 0, 64, 97
1, 750941, Control_c, 0, 64, 95
1, 750956, Control_c, 0, 64, 94
1, 750966, Note_on_c, 0, 72, 45
1, 750971, Control_c, 0, 64, 92
1, 750976, Note_on_c, 0, 63, 29
1, 750980, Note_on_c, 0, 56, 37
1, 750986, Control_c, 0, 64, 90
1, 750992, Note_off_c, 0, 73, 39
1, 751001, Control_c, 0, 64, 87
1, 751016, Control_c, 0, 64, 83
1, 751030, Control_c, 0, 64, 80
1, 751045, Control_c, 0, 64, 76
1, 751049, Note_off_c, 0, 54, 43
1, 751060, Control_c, 0, 64, 71
1, 751074, Control_c, 0, 64, 63
1, 751089, Control_c, 0, 64, 36
1, 751104, Control_c, 0, 64, 0
1, 751252, Control_c, 0, 67, 20
1, 751266, Control_c, 0, 67, 21
1, 751281, Control_c, 0, 67, 22
1, 751296, Control_c, 0, 67, 23
1, 751311, Control_c, 0, 64, 17
1, 751311, Control_c, 0, 67, 24
1, 751326, Control_c, 0, 64, 31
1, 751326, Control_c, 0, 67, 24
1, 751341, Control_c, 0, 64, 45
1, 751341, Control_c, 0, 67, 25
1, 751355, Control_c, 0, 64, 56
1, 751355, Control_c, 0, 67, 26
1, 751370, Control_c, 0, 64, 61
1, 751370, Control_c, 0, 67, 27
1, 751385, Control_c, 0, 64, 64
1, 751385, Control_c, 0, 67, 28
1, 751400, Control_c, 0, 64, 65
1, 751415, Control_c, 0, 64, 66
1, 751415, Control_c, 0, 67, 29
1, 751430, Control_c, 0, 64, 67
1, 751430, Control_c, 0, 67, 29
1, 751445, Control_c, 0, 64, 69
1, 751445, Control_c, 0, 67, 30
1, 751460, Control_c, 0, 64, 71
1, 751474, Control_c, 0, 64, 72
1, 751489, Control_c, 0, 64, 74
1, 751489, Control_c, 0, 67, 30
1, 751504, Control_c, 0, 64, 76
1, 751519, Control_c, 0, 64, 78
1, 751519, Control_c, 0, 67, 31
1, 751534, Control_c, 0, 64, 80
1, 751550, Control_c, 0, 64, 82
1, 751564, Control_c, 0, 64, 83
1, 751579, Control_c, 0, 64, 86
1, 751594, Control_c, 0, 64, 88
1, 751609, Control_c, 0, 64, 89
1, 751624, Control_c, 0, 64, 90
1, 751624, Control_c, 0, 67, 31
1, 751639, Control_c, 0, 64, 92
1, 751653, Control_c, 0, 64, 93
1, 751676, Control_c, 0, 64, 95
1, 751691, Control_c, 0, 64, 97
1, 751691, Control_c, 0, 67, 32
1, 751705, Control_c, 0, 64, 98
1, 751720, Control_c, 0, 64, 99
1, 751735, Control_c, 0, 64, 100
1, 751750, Control_c, 0, 64, 101
1, 751750, Control_c, 0, 67, 32
1, 751762, Note_on_c, 0, 80, 44
1, 751765, Control_c, 0, 64, 102
1, 751779, Control_c, 0, 64, 102
1, 751809, Control_c, 0, 64, 103
1, 751809, Control_c, 0, 67, 33
1, 751839, Control_c, 0, 64, 103
1, 751913, Control_c, 0, 67, 33
1, 752002, Control_c, 0, 67, 34
1, 752062, Note_off_c, 0, 80, 37
1, 752076, Control_c, 0, 67, 34
1, 752090, Control_c, 0, 67, 35
1, 752095, Note_off_c, 0, 66, 41
1, 752104, Note_off_c, 0, 72, 40
1, 752105, Control_c, 0, 67, 35
1, 752120, Control_c, 0, 67, 36
1, 752135, Control_c, 0, 67, 36
1, 752150, Control_c, 0, 67, 37
1, 752178, Note_off_c, 0, 56, 42
1, 752194, Control_c, 0, 67, 37
1, 752268, Note_off_c, 0, 63, 40
1, 752312, Control_c, 0, 64, 103
1, 752327, Control_c, 0, 64, 102
1, 752343, Control_c, 0, 64, 102
1, 752358, Control_c, 0, 64, 101
1, 752373, Control_c, 0, 64, 101
1, 752387, Control_c, 0, 64, 100
1, 752402, Control_c, 0, 64, 99
1, 752425, Control_c, 0, 64, 98
1, 752440, Control_c, 0, 64, 98
1, 752455, Control_c, 0, 64, 96
1, 752469, Control_c, 0, 64, 95
1, 752484, Control_c, 0, 64, 94
1, 752499, Control_c, 0, 64, 92
1, 752514, Control_c, 0, 64, 90
1, 752528, Control_c, 0, 64, 88
1, 752543, Control_c, 0, 64, 87
1, 752558, Control_c, 0, 64, 84
1, 752573, Control_c, 0, 64, 82
1, 752588, Control_c, 0, 64, 80
1, 752602, Control_c, 0, 64, 77
1, 752617, Control_c, 0, 64, 75
1, 752632, Control_c, 0, 64, 73
1, 752646, Control_c, 0, 64, 72
1, 752646, Control_c, 0, 67, 37
1, 752661, Control_c, 0, 64, 70
1, 752676, Control_c, 0, 64, 69
1, 752691, Control_c, 0, 64, 68
1, 752706, Control_c, 0, 64, 67
1, 752736, Control_c, 0, 64, 66
1, 752750, Control_c, 0, 64, 65
1, 752765, Control_c, 0, 64, 64
1, 752780, Control_c, 0, 64, 64
1, 752795, Control_c, 0, 64, 63
1, 752810, Control_c, 0, 64, 62
1, 752825, Control_c, 0, 64, 32
1, 752839, Control_c, 0, 64, 0
1, 752943, Control_c, 0, 64, 56
1, 752943, Control_c, 0, 67, 36
1, 752958, Control_c, 0, 64, 66
1, 752973, Control_c, 0, 64, 69
1, 752987, Control_c, 0, 64, 71
1, 752987, Control_c, 0, 67, 36
1, 753002, Control_c, 0, 64, 73
1, 753017, Control_c, 0, 64, 76
1, 753032, Control_c, 0, 64, 79
1, 753046, Control_c, 0, 64, 83
1, 753060, Control_c, 0, 64, 85
1, 753075, Control_c, 0, 64, 87
1, 753090, Control_c, 0, 64, 89
1, 753105, Control_c, 0, 64, 91
1, 753115, Note_on_c, 0, 80, 60
1, 753120, Control_c, 0, 64, 94
1, 753135, Control_c, 0, 64, 96
1, 753150, Control_c, 0, 64, 97
1, 753150, Control_c, 0, 67, 35
1, 753173, Control_c, 0, 64, 99
1, 753188, Control_c, 0, 64, 101
1, 753188, Control_c, 0, 67, 35
1, 753203, Control_c, 0, 64, 103
1, 753203, Control_c, 0, 67, 34
1, 753205, Note_off_c, 0, 80, 59
1, 753217, Control_c, 0, 64, 106
1, 753232, Control_c, 0, 64, 110
1, 753247, Control_c, 0, 64, 115
1, 753262, Control_c, 0, 64, 126
1, 753262, Control_c, 0, 67, 34
1, 753272, Note_on_c, 0, 80, 59
1, 753276, Control_c, 0, 64, 127
1, 753336, Control_c, 0, 67, 33
1, 753395, Control_c, 0, 67, 33
1, 753424, Control_c, 0, 67, 32
1, 753484, Control_c, 0, 67, 32
1, 753484, Note_off_c, 0, 80, 60
1, 753509, Note_on_c, 0, 81, 62
1, 753514, Control_c, 0, 67, 31
1, 753573, Control_c, 0, 67, 30
1, 753576, Note_off_c, 0, 81, 60
1, 753600, Note_on_c, 0, 80, 64
1, 753626, Note_off_c, 0, 80, 66
1, 753632, Control_c, 0, 67, 30
1, 753661, Note_on_c, 0, 81, 66
1, 753676, Control_c, 0, 67, 29
1, 753691, Note_off_c, 0, 81, 59
1, 753722, Note_on_c, 0, 80, 64
1, 753749, Note_off_c, 0, 80, 64
1, 753765, Control_c, 0, 67, 29
1, 753768, Note_on_c, 0, 81, 73
1, 753794, Control_c, 0, 67, 28
1, 753801, Note_off_c, 0, 81, 56
1, 753816, Note_on_c, 0, 80, 73
1, 753853, Control_c, 0, 67, 28
1, 753859, Note_off_c, 0, 80, 61
1, 753862, Note_on_c, 0, 81, 70
1, 753868, Control_c, 0, 67, 27
1, 753898, Control_c, 0, 67, 27
1, 753920, Control_c, 0, 67, 26
1, 753924, Note_off_c, 0, 81, 56
1, 753927, Note_on_c, 0, 80, 65
1, 753935, Control_c, 0, 67, 25
1, 753951, Note_on_c, 0, 81, 59
1, 753951, Control_c, 0, 67, 25
1, 753959, Note_off_c, 0, 80, 63
1, 753965, Control_c, 0, 67, 24
1, 753980, Control_c, 0, 67, 21
1, 753995, Control_c, 0, 67, 19
1, 754010, Control_c, 0, 67, 14
1, 754015, Note_off_c, 0, 81, 65
1, 754018, Note_on_c, 0, 80, 79
1, 754025, Control_c, 0, 67, 8
1, 754040, Control_c, 0, 67, 0
1, 754053, Note_on_c, 0, 81, 61
1, 754059, Note_off_c, 0, 80, 66
1, 754118, Note_on_c, 0, 80, 87
1, 754123, Note_off_c, 0, 81, 65
1, 754187, Control_c, 0, 64, 103
1, 754190, Note_off_c, 0, 80, 66
1, 754196, Note_on_c, 0, 78, 88
1, 754202, Control_c, 0, 64, 93
1, 754232, Control_c, 0, 64, 94
1, 754247, Control_c, 0, 64, 97
1, 754262, Control_c, 0, 64, 104
1, 754268, Note_on_c, 0, 54, 66
1, 754277, Control_c, 0, 64, 114
1, 754291, Control_c, 0, 64, 127
1, 754327, Note_on_c, 0, 80, 88
1, 754333, Note_off_c, 0, 78, 64
1, 754340, Note_on_c, 0, 59, 69
1, 754408, Note_on_c, 0, 62, 69
1, 754422, Note_off_c, 0, 54, 58
1, 754528, Control_c, 0, 64, 104
1, 754544, Control_c, 0, 64, 92
1, 754558, Control_c, 0, 64, 87
1, 754569, Note_on_c, 0, 83, 95
1, 754573, Control_c, 0, 64, 88
1, 754577, Note_on_c, 0, 68, 69
1, 754588, Note_off_c, 0, 80, 62
1, 754588, Control_c, 0, 64, 89
1, 754603, Control_c, 0, 64, 92
1, 754617, Control_c, 0, 64, 98
1, 754632, Control_c, 0, 64, 104
1, 754647, Control_c, 0, 64, 109
1, 754670, Control_c, 0, 64, 110
1, 754685, Control_c, 0, 64, 111
1, 754729, Control_c, 0, 64, 111
1, 754760, Control_c, 0, 64, 112
1, 754878, Control_c, 0, 64, 112
1, 754908, Control_c, 0, 64, 113
1, 754937, Control_c, 0, 64, 114
1, 754952, Control_c, 0, 64, 115
1, 754967, Control_c, 0, 64, 118
1, 754982, Control_c, 0, 64, 120
1, 754996, Control_c, 0, 64, 122
1, 755011, Control_c, 0, 64, 124
1, 755026, Control_c, 0, 64, 126
1, 755040, Control_c, 0, 64, 127
1, 755302, Note_off_c, 0, 68, 35
1, 756050, Note_on_c, 0, 81, 63
1, 756107, Note_off_c, 0, 83, 56
1, 756390, Control_c, 0, 64, 120
1, 756405, Control_c, 0, 64, 116
1, 756420, Control_c, 0, 64, 113
1, 756434, Control_c, 0, 64, 112
1, 756449, Control_c, 0, 64, 110
1, 756464, Control_c, 0, 64, 108
1, 756479, Control_c, 0, 64, 105
1, 756493, Control_c, 0, 64, 102
1, 756508, Control_c, 0, 64, 99
1, 756518, Note_on_c, 0, 53, 43
1, 756519, Note_on_c, 0, 80, 51
1, 756523, Control_c, 0, 64, 95
1, 756538, Control_c, 0, 64, 87
1, 756553, Control_c, 0, 64, 78
1, 756563, Note_off_c, 0, 59, 27
1, 756566, Note_off_c, 0, 81, 52
1, 756567, Control_c, 0, 64, 67
1, 756572, Note_off_c, 0, 62, 27
1, 756582, Control_c, 0, 64, 37
1, 756597, Control_c, 0, 64, 35
1, 756612, Control_c, 0, 64, 49
1, 756627, Control_c, 0, 64, 56
1, 756641, Control_c, 0, 64, 60
1, 756656, Control_c, 0, 64, 63
1, 756671, Control_c, 0, 64, 64
1, 756685, Control_c, 0, 64, 66
1, 756700, Control_c, 0, 64, 68
1, 756715, Control_c, 0, 64, 70
1, 756730, Control_c, 0, 64, 71
1, 756745, Control_c, 0, 64, 73
1, 756760, Control_c, 0, 64, 74
1, 756775, Control_c, 0, 64, 76
1, 756790, Control_c, 0, 64, 78
1, 756804, Control_c, 0, 64, 80
1, 756819, Control_c, 0, 64, 82
1, 756834, Control_c, 0, 64, 84
1, 756849, Control_c, 0, 64, 85
1, 756864, Control_c, 0, 64, 88
1, 756878, Control_c, 0, 64, 90
1, 756893, Control_c, 0, 64, 92
1, 756915, Control_c, 0, 64, 93
1, 756930, Control_c, 0, 64, 94
1, 756934, Note_off_c, 0, 80, 38
1, 756945, Control_c, 0, 64, 95
1, 756960, Control_c, 0, 64, 95
1, 756989, Control_c, 0, 64, 96
1, 757032, Note_off_c, 0, 53, 37
1, 757049, Control_c, 0, 64, 96
1, 757093, Control_c, 0, 64, 97
1, 757228, Control_c, 0, 64, 96
1, 757277, Note_on_c, 0, 71, 45
1, 757331, Control_c, 0, 64, 96
1, 757346, Control_c, 0, 64, 95
1, 757361, Control_c, 0, 64, 95
1, 757390, Control_c, 0, 64, 94
1, 757420, Control_c, 0, 64, 93
1, 757434, Control_c, 0, 64, 93
1, 757449, Control_c, 0, 64, 92
1, 757464, Control_c, 0, 64, 92
1, 757479, Control_c, 0, 64, 91
1, 757494, Control_c, 0, 64, 91
1, 757511, Note_on_c, 0, 73, 61
1, 757523, Control_c, 0, 64, 90
1, 757539, Control_c, 0, 64, 90
1, 757554, Control_c, 0, 64, 89
1, 757569, Control_c, 0, 64, 88
1, 757583, Control_c, 0, 64, 88
1, 757598, Control_c, 0, 64, 87
1, 757613, Control_c, 0, 64, 86
1, 757627, Control_c, 0, 64, 85
1, 757642, Control_c, 0, 64, 85
1, 757665, Control_c, 0, 64, 84
1, 757680, Control_c, 0, 64, 84
1, 757695, Control_c, 0, 64, 83
1, 757709, Control_c, 0, 64, 82
1, 757724, Control_c, 0, 64, 81
1, 757739, Control_c, 0, 64, 80
1, 757741, Note_on_c, 0, 76, 59
1, 757754, Control_c, 0, 64, 79
1, 757767, Note_off_c, 0, 71, 44
1, 757769, Control_c, 0, 64, 77
1, 757779, Note_off_c, 0, 73, 46
1, 757784, Control_c, 0, 64, 76
1, 757798, Control_c, 0, 64, 75
1, 757813, Control_c, 0, 64, 75
1, 757828, Control_c, 0, 64, 74
1, 757842, Control_c, 0, 64, 73
1, 757857, Control_c, 0, 64, 72
1, 757872, Control_c, 0, 64, 70
1, 757887, Control_c, 0, 64, 66
1, 757902, Control_c, 0, 64, 63
1, 757916, Control_c, 0, 64, 60
1, 757947, Control_c, 0, 64, 61
1, 757955, Note_on_c, 0, 74, 64
1, 757962, Control_c, 0, 64, 62
1, 757977, Control_c, 0, 64, 63
1, 757982, Note_off_c, 0, 76, 56
1, 757992, Control_c, 0, 64, 63
1, 758021, Control_c, 0, 64, 64
1, 758036, Control_c, 0, 64, 65
1, 758051, Control_c, 0, 64, 65
1, 758065, Control_c, 0, 64, 66
1, 758080, Control_c, 0, 64, 68
1, 758083, Note_off_c, 0, 74, 64
1, 758093, Note_on_c, 0, 68, 65
1, 758095, Control_c, 0, 64, 69
1, 758110, Control_c, 0, 64, 70
1, 758125, Control_c, 0, 64, 72
1, 758140, Control_c, 0, 64, 73
1, 758155, Control_c, 0, 64, 74
1, 758170, Control_c, 0, 64, 75
1, 758185, Control_c, 0, 64, 76
1, 758200, Control_c, 0, 64, 78
1, 758210, Note_on_c, 0, 73, 76
1, 758214, Control_c, 0, 64, 79
1, 758229, Control_c, 0, 64, 80
1, 758244, Control_c, 0, 64, 80
1, 758247, Note_off_c, 0, 68, 57
1, 758288, Control_c, 0, 64, 81
1, 758320, Note_on_c, 0, 71, 76
1, 758347, Control_c, 0, 64, 80
1, 758362, Control_c, 0, 64, 80
1, 758364, Note_off_c, 0, 73, 57
1, 758377, Control_c, 0, 64, 79
1, 758423, Note_off_c, 0, 71, 63
1, 758434, Note_on_c, 0, 65, 76
1, 758488, Control_c, 0, 64, 80
1, 758518, Control_c, 0, 64, 80
1, 758538, Note_on_c, 0, 69, 78
1, 758562, Control_c, 0, 64, 80
1, 758563, Note_off_c, 0, 65, 60
1, 758577, Control_c, 0, 64, 78
1, 758591, Control_c, 0, 64, 75
1, 758606, Control_c, 0, 64, 71
1, 758621, Control_c, 0, 64, 68
1, 758636, Control_c, 0, 64, 68
1, 758651, Control_c, 0, 64, 69
1, 758663, Note_on_c, 0, 68, 81
1, 758665, Control_c, 0, 64, 69
1, 758680, Control_c, 0, 64, 70
1, 758682, Note_off_c, 0, 69, 62
1, 758695, Control_c, 0, 64, 71
1, 758710, Control_c, 0, 64, 72
1, 758725, Control_c, 0, 64, 74
1, 758741, Control_c, 0, 64, 75
1, 758756, Control_c, 0, 64, 76
1, 758785, Control_c, 0, 64, 74
1, 758795, Note_off_c, 0, 68, 63
1, 758800, Control_c, 0, 64, 72
1, 758815, Control_c, 0, 64, 70
1, 758817, Note_on_c, 0, 61, 85
1, 758829, Control_c, 0, 64, 70
1, 758844, Control_c, 0, 64, 70
1, 758859, Control_c, 0, 64, 71
1, 758874, Control_c, 0, 64, 72
1, 758888, Control_c, 0, 64, 73
1, 758903, Control_c, 0, 64, 74
1, 758918, Control_c, 0, 64, 75
1, 758933, Control_c, 0, 64, 75
1, 758948, Control_c, 0, 64, 76
1, 758963, Control_c, 0, 64, 77
1, 759007, Control_c, 0, 64, 74
1, 759021, Note_on_c, 0, 64, 79
1, 759022, Control_c, 0, 64, 69
1, 759031, Note_off_c, 0, 61, 58
1, 759036, Control_c, 0, 64, 59
1, 759051, Control_c, 0, 64, 44
1, 759066, Control_c, 0, 64, 55
1, 759080, Control_c, 0, 64, 61
1, 759095, Control_c, 0, 64, 65
1, 759110, Control_c, 0, 64, 68
1, 759125, Control_c, 0, 64, 71
1, 759140, Control_c, 0, 64, 73
1, 759162, Control_c, 0, 64, 75
1, 759177, Control_c, 0, 64, 76
1, 759192, Control_c, 0, 64, 78
1, 759206, Control_c, 0, 64, 79
1, 759221, Control_c, 0, 64, 80
1, 759229, Note_off_c, 0, 64, 60
1, 759236, Control_c, 0, 64, 81
1, 759251, Control_c, 0, 64, 82
1, 759266, Control_c, 0, 64, 81
1, 759280, Control_c, 0, 64, 79
1, 759295, Control_c, 0, 64, 75
1, 759302, Note_on_c, 0, 62, 78
1, 759310, Control_c, 0, 64, 68
1, 759325, Control_c, 0, 64, 65
1, 759340, Control_c, 0, 64, 66
1, 759354, Control_c, 0, 64, 67
1, 759369, Control_c, 0, 64, 69
1, 759384, Control_c, 0, 64, 71
1, 759399, Control_c, 0, 64, 74
1, 759413, Control_c, 0, 64, 76
1, 759428, Control_c, 0, 64, 78
1, 759443, Control_c, 0, 64, 79
1, 759458, Control_c, 0, 64, 81
1, 759473, Control_c, 0, 64, 81
1, 759487, Control_c, 0, 64, 80
1, 759502, Control_c, 0, 64, 77
1, 759517, Control_c, 0, 64, 72
1, 759529, Note_on_c, 0, 61, 77
1, 759533, Control_c, 0, 64, 67
1, 759562, Note_off_c, 0, 62, 53
1, 759563, Control_c, 0, 64, 68
1, 759577, Control_c, 0, 64, 69
1, 759592, Control_c, 0, 64, 70
1, 759607, Control_c, 0, 64, 72
1, 759622, Control_c, 0, 64, 74
1, 759636, Control_c, 0, 64, 75
1, 759651, Control_c, 0, 64, 74
1, 759666, Control_c, 0, 64, 72
1, 759681, Control_c, 0, 64, 68
1, 759696, Control_c, 0, 64, 64
1, 759724, Note_on_c, 0, 59, 72
1, 759726, Control_c, 0, 64, 66
1, 759738, Note_off_c, 0, 61, 54
1, 759741, Control_c, 0, 64, 67
1, 759756, Control_c, 0, 64, 69
1, 759770, Control_c, 0, 64, 72
1, 759785, Control_c, 0, 64, 75
1, 759800, Control_c, 0, 64, 75
1, 759815, Control_c, 0, 64, 74
1, 759829, Control_c, 0, 64, 71
1, 759844, Control_c, 0, 64, 68
1, 759859, Control_c, 0, 64, 69
1, 759874, Control_c, 0, 64, 71
1, 759889, Control_c, 0, 64, 72
1, 759909, Note_on_c, 0, 62, 69
1, 759911, Control_c, 0, 64, 74
1, 759925, Control_c, 0, 64, 75
1, 759940, Control_c, 0, 64, 74
1, 759947, Note_off_c, 0, 59, 48
1, 759955, Control_c, 0, 64, 74
1, 759985, Control_c, 0, 64, 75
1, 760010, Note_on_c, 0, 66, 72
1, 760015, Control_c, 0, 64, 74
1, 760029, Control_c, 0, 64, 73
1, 760048, Note_off_c, 0, 62, 58
1, 760059, Control_c, 0, 64, 74
1, 760101, Note_on_c, 0, 69, 74
1, 760117, Note_off_c, 0, 66, 63
1, 760118, Control_c, 0, 64, 74
1, 760133, Control_c, 0, 64, 75
1, 760139, Note_off_c, 0, 69, 63
1, 760148, Control_c, 0, 64, 75
1, 760192, Control_c, 0, 64, 75
1, 760194, Note_on_c, 0, 68, 85
1, 760251, Control_c, 0, 64, 74
1, 760277, Note_on_c, 0, 71, 82
1, 760292, Note_off_c, 0, 68, 61
1, 760296, Control_c, 0, 64, 75
1, 760310, Control_c, 0, 64, 75
1, 760326, Control_c, 0, 64, 75
1, 760341, Control_c, 0, 64, 71
1, 760355, Note_on_c, 0, 74, 82
1, 760356, Control_c, 0, 64, 65
1, 760371, Control_c, 0, 64, 64
1, 760386, Control_c, 0, 64, 65
1, 760398, Note_off_c, 0, 71, 55
1, 760401, Control_c, 0, 64, 67
1, 760415, Control_c, 0, 64, 71
1, 760429, Note_on_c, 0, 78, 86
1, 760430, Control_c, 0, 64, 75
1, 760445, Control_c, 0, 64, 81
1, 760447, Note_off_c, 0, 74, 66
1, 760459, Control_c, 0, 64, 86
1, 760474, Control_c, 0, 64, 87
1, 760487, Note_off_c, 0, 78, 62
1, 760489, Control_c, 0, 64, 82
1, 760504, Control_c, 0, 64, 71
1, 760519, Control_c, 0, 64, 64
1, 760523, Note_on_c, 0, 77, 90
1, 760534, Control_c, 0, 64, 65
1, 760549, Control_c, 0, 64, 68
1, 760564, Control_c, 0, 64, 72
1, 760579, Control_c, 0, 64, 78
1, 760594, Control_c, 0, 64, 85
1, 760608, Control_c, 0, 64, 88
1, 760611, Note_on_c, 0, 80, 89
1, 760623, Note_off_c, 0, 77, 61
1, 760623, Control_c, 0, 64, 86
1, 760638, Control_c, 0, 64, 76
1, 760660, Control_c, 0, 64, 66
1, 760675, Control_c, 0, 64, 67
1, 760690, Control_c, 0, 64, 72
1, 760705, Control_c, 0, 64, 78
1, 760709, Note_on_c, 0, 83, 88
1, 760720, Control_c, 0, 64, 87
1, 760734, Control_c, 0, 64, 95
1, 760737, Note_off_c, 0, 80, 64
1, 760749, Control_c, 0, 64, 99
1, 760764, Control_c, 0, 64, 95
1, 760778, Control_c, 0, 64, 78
1, 760793, Control_c, 0, 64, 71
1, 760808, Control_c, 0, 64, 77
1, 760822, Note_on_c, 0, 86, 98
1, 760823, Control_c, 0, 64, 88
1, 760835, Note_off_c, 0, 83, 61
1, 760838, Control_c, 0, 64, 103
1, 760853, Control_c, 0, 64, 127
1, 760950, Note_off_c, 0, 86, 62
1, 761033, Note_on_c, 0, 86, 101
1, 761040, Note_on_c, 0, 74, 85
1, 761298, Control_c, 0, 64, 99
1, 761313, Control_c, 0, 64, 65
1, 761328, Control_c, 0, 64, 0
1, 761345, Note_on_c, 0, 37, 72
1, 761387, Control_c, 0, 64, 38
1, 761409, Control_c, 0, 64, 66
1, 761424, Control_c, 0, 64, 73
1, 761439, Control_c, 0, 64, 80
1, 761454, Control_c, 0, 64, 85
1, 761469, Note_off_c, 0, 74, 52
1, 761469, Control_c, 0, 64, 90
1, 761483, Control_c, 0, 64, 95
1, 761498, Control_c, 0, 64, 100
1, 761513, Control_c, 0, 64, 106
1, 761528, Control_c, 0, 64, 118
1, 761543, Control_c, 0, 64, 127
1, 761606, Note_off_c, 0, 86, 51
1, 761631, Note_on_c, 0, 44, 81
1, 761803, Note_off_c, 0, 37, 35
1, 761857, Note_on_c, 0, 86, 95
1, 761861, Note_on_c, 0, 49, 78
1, 761863, Note_on_c, 0, 74, 82
1, 761870, Note_off_c, 0, 44, 62
1, 761930, Note_off_c, 0, 49, 63
1, 761990, Note_off_c, 0, 74, 62
1, 761997, Note_off_c, 0, 86, 60
1, 762066, Note_on_c, 0, 54, 75
1, 762076, Note_on_c, 0, 86, 89
1, 762081, Note_on_c, 0, 74, 82
1, 762170, Note_off_c, 0, 74, 60
1, 762188, Note_off_c, 0, 86, 61
1, 762247, Control_c, 0, 64, 116
1, 762262, Note_on_c, 0, 56, 82
1, 762262, Control_c, 0, 64, 105
1, 762271, Note_on_c, 0, 74, 90
1, 762274, Note_on_c, 0, 86, 91
1, 762277, Control_c, 0, 64, 103
1, 762307, Note_off_c, 0, 54, 57
1, 762318, Note_off_c, 0, 74, 65
1, 762321, Control_c, 0, 64, 106
1, 762327, Note_off_c, 0, 86, 64
1, 762336, Control_c, 0, 64, 110
1, 762351, Control_c, 0, 64, 117
1, 762366, Control_c, 0, 64, 119
1, 762380, Control_c, 0, 64, 119
1, 762395, Control_c, 0, 64, 117
1, 762409, Note_off_c, 0, 56, 62
1, 762410, Control_c, 0, 64, 109
1, 762418, Note_on_c, 0, 61, 86
1, 762419, Note_on_c, 0, 86, 92
1, 762421, Note_on_c, 0, 74, 93
1, 762425, Control_c, 0, 64, 104
1, 762439, Control_c, 0, 64, 103
1, 762462, Note_off_c, 0, 74, 63
1, 762465, Note_off_c, 0, 86, 66
1, 762484, Control_c, 0, 64, 105
1, 762486, Note_off_c, 0, 61, 61
1, 762499, Control_c, 0, 64, 108
1, 762543, Control_c, 0, 64, 105
1, 762549, Note_on_c, 0, 66, 82
1, 762552, Note_on_c, 0, 86, 96
1, 762555, Note_on_c, 0, 74, 91
1, 762558, Control_c, 0, 64, 99
1, 762573, Control_c, 0, 64, 91
1, 762587, Control_c, 0, 64, 90
1, 762600, Note_off_c, 0, 74, 64
1, 762601, Note_off_c, 0, 86, 64
1, 762602, Control_c, 0, 64, 91
1, 762617, Control_c, 0, 64, 94
1, 762632, Control_c, 0, 64, 98
1, 762647, Control_c, 0, 64, 101
1, 762677, Control_c, 0, 64, 98
1, 762686, Note_on_c, 0, 68, 85
1, 762692, Control_c, 0, 64, 94
1, 762693, Note_on_c, 0, 86, 93
1, 762695, Note_on_c, 0, 74, 88
1, 762706, Control_c, 0, 64, 92
1, 762727, Note_off_c, 0, 66, 54
1, 762744, Note_off_c, 0, 74, 65
1, 762745, Note_off_c, 0, 86, 65
1, 762751, Control_c, 0, 64, 93
1, 762766, Control_c, 0, 64, 95
1, 762781, Control_c, 0, 64, 98
1, 762796, Control_c, 0, 64, 98
1, 762811, Control_c, 0, 64, 97
1, 762826, Control_c, 0, 64, 93
1, 762829, Note_off_c, 0, 68, 63
1, 762835, Note_on_c, 0, 73, 97
1, 762839, Note_on_c, 0, 74, 94
1, 762840, Note_on_c, 0, 86, 92
1, 762841, Control_c, 0, 64, 89
1, 762855, Control_c, 0, 64, 88
1, 762907, Control_c, 0, 64, 89
1, 762922, Control_c, 0, 64, 91
1, 762936, Control_c, 0, 64, 92
1, 762966, Control_c, 0, 64, 92
1, 762981, Control_c, 0, 64, 93
1, 762996, Control_c, 0, 64, 94
1, 763011, Control_c, 0, 64, 95
1, 763012, Note_off_c, 0, 74, 57
1, 763019, Note_off_c, 0, 86, 57
1, 763026, Control_c, 0, 64, 95
1, 763041, Control_c, 0, 64, 96
1, 763055, Control_c, 0, 64, 97
1, 763070, Control_c, 0, 64, 98
1, 763100, Control_c, 0, 64, 97
1, 763111, Note_on_c, 0, 78, 86
1, 763115, Control_c, 0, 64, 89
1, 763117, Note_on_c, 0, 74, 91
1, 763118, Note_on_c, 0, 86, 95
1, 763129, Control_c, 0, 64, 77
1, 763144, Control_c, 0, 64, 68
1, 763145, Note_off_c, 0, 73, 62
1, 763159, Control_c, 0, 64, 69
1, 763173, Control_c, 0, 64, 71
1, 763188, Control_c, 0, 64, 73
1, 763203, Control_c, 0, 64, 76
1, 763218, Control_c, 0, 64, 81
1, 763233, Control_c, 0, 64, 85
1, 763247, Control_c, 0, 64, 87
1, 763262, Control_c, 0, 64, 88
1, 763277, Control_c, 0, 64, 89
1, 763292, Control_c, 0, 64, 91
1, 763307, Control_c, 0, 64, 92
1, 763321, Control_c, 0, 64, 93
1, 763336, Control_c, 0, 64, 94
1, 763351, Control_c, 0, 64, 95
1, 763366, Control_c, 0, 64, 96
1, 763380, Control_c, 0, 64, 97
1, 763395, Control_c, 0, 64, 98
1, 763410, Control_c, 0, 64, 98
1, 763440, Control_c, 0, 64, 99
1, 763455, Control_c, 0, 64, 99
1, 763470, Control_c, 0, 64, 100
1, 763485, Control_c, 0, 64, 100
1, 763848, Control_c, 0, 64, 100
1, 763877, Control_c, 0, 64, 99
1, 763907, Control_c, 0, 64, 99
1, 763937, Control_c, 0, 64, 98
1, 763966, Control_c, 0, 64, 98
1, 763995, Control_c, 0, 64, 97
1, 764025, Control_c, 0, 64, 97
1, 764040, Control_c, 0, 64, 96
1, 764040, Control_c, 0, 67, 9
1, 764055, Control_c, 0, 67, 10
1, 764069, Control_c, 0, 64, 96
1, 764069, Control_c, 0, 67, 11
1, 764084, Control_c, 0, 67, 12
1, 764099, Control_c, 0, 64, 95
1, 764099, Control_c, 0, 67, 13
1, 764114, Control_c, 0, 64, 94
1, 764114, Control_c, 0, 67, 14
1, 764129, Control_c, 0, 67, 16
1, 764143, Control_c, 0, 64, 94
1, 764143, Control_c, 0, 67, 17
1, 764158, Control_c, 0, 67, 19
1, 764173, Control_c, 0, 67, 21
1, 764188, Control_c, 0, 64, 93
1, 764188, Control_c, 0, 67, 23
1, 764203, Control_c, 0, 64, 93
1, 764203, Control_c, 0, 67, 25
1, 764218, Control_c, 0, 67, 25
1, 764233, Control_c, 0, 64, 92
1, 764233, Control_c, 0, 67, 27
1, 764248, Control_c, 0, 64, 92
1, 764248, Control_c, 0, 67, 28
1, 764263, Control_c, 0, 67, 29
1, 764278, Control_c, 0, 64, 91
1, 764278, Control_c, 0, 67, 30
1, 764293, Control_c, 0, 64, 91
1, 764293, Control_c, 0, 67, 31
1, 764307, Control_c, 0, 64, 90
1, 764307, Control_c, 0, 67, 32
1, 764323, Control_c, 0, 67, 33
1, 764338, Control_c, 0, 64, 90
1, 764338, Control_c, 0, 67, 35
1, 764353, Control_c, 0, 64, 89
1, 764353, Control_c, 0, 67, 36
1, 764368, Control_c, 0, 64, 89
1, 764368, Control_c, 0, 67, 37
1, 764382, Control_c, 0, 64, 88
1, 764382, Control_c, 0, 67, 38
1, 764405, Control_c, 0, 64, 88
1, 764405, Control_c, 0, 67, 39
1, 764420, Control_c, 0, 64, 87
1, 764420, Control_c, 0, 67, 41
1, 764434, Control_c, 0, 64, 87
1, 764434, Control_c, 0, 67, 43
1, 764449, Control_c, 0, 64, 86
1, 764449, Control_c, 0, 67, 44
1, 764464, Control_c, 0, 67, 46
1, 764479, Control_c, 0, 64, 86
1, 764479, Control_c, 0, 67, 47
1, 764494, Control_c, 0, 67, 48
1, 764508, Control_c, 0, 64, 85
1, 764508, Control_c, 0, 67, 50
1, 764523, Control_c, 0, 64, 84
1, 764523, Control_c, 0, 67, 52
1, 764538, Control_c, 0, 67, 54
1, 764553, Control_c, 0, 64, 83
1, 764553, Control_c, 0, 67, 56
1, 764568, Control_c, 0, 64, 83
1, 764568, Control_c, 0, 67, 58
1, 764582, Control_c, 0, 64, 82
1, 764582, Control_c, 0, 67, 61
1, 764597, Control_c, 0, 64, 82
1, 764597, Control_c, 0, 67, 64
1, 764612, Control_c, 0, 64, 81
1, 764612, Control_c, 0, 67, 66
1, 764626, Control_c, 0, 67, 68
1, 764641, Control_c, 0, 64, 81
1, 764641, Control_c, 0, 67, 71
1, 764656, Control_c, 0, 64, 80
1, 764656, Control_c, 0, 67, 73
1, 764671, Control_c, 0, 64, 80
1, 764671, Control_c, 0, 67, 75
1, 764686, Control_c, 0, 67, 77
1, 764701, Control_c, 0, 64, 79
1, 764701, Control_c, 0, 67, 80
1, 764716, Control_c, 0, 67, 82
1, 764731, Control_c, 0, 67, 86
1, 764745, Control_c, 0, 64, 79
1, 764745, Control_c, 0, 67, 89
1, 764760, Control_c, 0, 67, 92
1, 764775, Control_c, 0, 64, 78
1, 764775, Control_c, 0, 67, 96
1, 764790, Control_c, 0, 64, 78
1, 764790, Control_c, 0, 67, 99
1, 764805, Control_c, 0, 64, 77
1, 764805, Control_c, 0, 67, 104
1, 764819, Control_c, 0, 64, 77
1, 764819, Control_c, 0, 67, 108
1, 764834, Control_c, 0, 64, 76
1, 764834, Control_c, 0, 67, 112
1, 764849, Control_c, 0, 64, 75
1, 764849, Control_c, 0, 67, 116
1, 764864, Control_c, 0, 64, 75
1, 764864, Control_c, 0, 67, 121
1, 764879, Control_c, 0, 67, 126
1, 764893, Control_c, 0, 64, 74
1, 764893, Control_c, 0, 67, 127
1, 764923, Control_c, 0, 64, 73
1, 764938, Control_c, 0, 64, 73
1, 764952, Control_c, 0, 64, 72
1, 764967, Control_c, 0, 64, 72
1, 764982, Control_c, 0, 64, 71
1, 764997, Control_c, 0, 64, 71
1, 765012, Control_c, 0, 64, 70
1, 765026, Control_c, 0, 64, 69
1, 765041, Control_c, 0, 64, 68
1, 765056, Control_c, 0, 64, 68
1, 765086, Control_c, 0, 64, 67
1, 765100, Control_c, 0, 64, 67
1, 765131, Control_c, 0, 64, 66
1, 765154, Control_c, 0, 64, 65
1, 765169, Control_c, 0, 64, 65
1, 765184, Control_c, 0, 64, 64
1, 765186, Note_on_c, 0, 49, 39
1, 765198, Control_c, 0, 64, 60
1, 765213, Control_c, 0, 64, 0
1, 765331, Note_on_c, 0, 53, 37
1, 765361, Control_c, 0, 64, 29
1, 765375, Control_c, 0, 64, 56
1, 765390, Control_c, 0, 64, 63
1, 765405, Control_c, 0, 64, 64
1, 765420, Control_c, 0, 64, 66
1, 765435, Control_c, 0, 64, 68
1, 765449, Control_c, 0, 64, 70
1, 765464, Control_c, 0, 64, 73
1, 765479, Note_on_c, 0, 56, 38
1, 765479, Control_c, 0, 64, 75
1, 765494, Control_c, 0, 64, 77
1, 765509, Control_c, 0, 64, 79
1, 765520, Note_off_c, 0, 86, 49
1, 765524, Control_c, 0, 64, 81
1, 765539, Control_c, 0, 64, 83
1, 765546, Note_off_c, 0, 53, 41
1, 765553, Control_c, 0, 64, 86
1, 765557, Note_off_c, 0, 49, 43
1, 765568, Control_c, 0, 64, 88
1, 765583, Control_c, 0, 64, 89
1, 765589, Note_off_c, 0, 74, 52
1, 765598, Control_c, 0, 64, 91
1, 765610, Note_off_c, 0, 56, 57
1, 765613, Control_c, 0, 64, 93
1, 765628, Control_c, 0, 64, 95
1, 765642, Control_c, 0, 64, 96
1, 765657, Control_c, 0, 64, 97
1, 765658, Note_on_c, 0, 61, 43
1, 765676, Note_off_c, 0, 78, 36
1, 765932, Control_c, 0, 64, 96
1, 765947, Control_c, 0, 64, 96
1, 765962, Control_c, 0, 64, 95
1, 765977, Control_c, 0, 64, 95
1, 766006, Control_c, 0, 64, 94
1, 766021, Control_c, 0, 64, 94
1, 766036, Control_c, 0, 64, 93
1, 766051, Control_c, 0, 64, 93
1, 766066, Control_c, 0, 64, 92
1, 766080, Control_c, 0, 64, 92
1, 766094, Note_on_c, 0, 85, 57
1, 766095, Control_c, 0, 64, 90
1, 766106, Note_on_c, 0, 73, 42
1, 766110, Control_c, 0, 64, 88
1, 766118, Note_on_c, 0, 77, 41
1, 766125, Control_c, 0, 64, 86
1, 766129, Note_on_c, 0, 65, 31
1, 766140, Control_c, 0, 64, 84
1, 766154, Control_c, 0, 64, 81
1, 766169, Control_c, 0, 64, 77
1, 766184, Control_c, 0, 64, 73
1, 766213, Control_c, 0, 64, 74
1, 766228, Control_c, 0, 64, 75
1, 766243, Control_c, 0, 64, 76
1, 766258, Control_c, 0, 64, 78
1, 766272, Control_c, 0, 64, 80
1, 766287, Control_c, 0, 64, 82
1, 766302, Control_c, 0, 64, 83
1, 766346, Control_c, 0, 64, 84
1, 766361, Control_c, 0, 64, 86
1, 766376, Control_c, 0, 64, 89
1, 766391, Control_c, 0, 64, 90
1, 766406, Control_c, 0, 64, 91
1, 766421, Control_c, 0, 64, 92
1, 766436, Control_c, 0, 64, 92
1, 766451, Control_c, 0, 64, 94
1, 766465, Control_c, 0, 64, 95
1, 766480, Control_c, 0, 64, 96
1, 766495, Control_c, 0, 64, 96
1, 766510, Control_c, 0, 64, 97
1, 766523, Control_c, 0, 64, 98
1, 766537, Control_c, 0, 64, 99
1, 766552, Control_c, 0, 64, 100
1, 766567, Control_c, 0, 64, 101
1, 766597, Control_c, 0, 64, 102
1, 766612, Control_c, 0, 64, 103
1, 766627, Control_c, 0, 64, 103
1, 766649, Control_c, 0, 64, 104
1, 766693, Control_c, 0, 64, 105
1, 766783, Control_c, 0, 64, 105
1, 766798, Control_c, 0, 64, 106
1, 766827, Control_c, 0, 64, 106
1, 766975, Control_c, 0, 64, 107
1, 767332, Control_c, 0, 64, 107
1, 768967, Note_off_c, 0, 65, 38
1, 768985, Control_c, 0, 64, 107
1, 768996, Note_off_c, 0, 61, 40
1, 769027, Note_off_c, 0, 85, 38
1, 769031, Note_off_c, 0, 73, 45
1, 769044, Control_c, 0, 64, 106
1, 769059, Control_c, 0, 64, 106
1, 769074, Control_c, 0, 64, 105
1, 769079, Note_off_c, 0, 77, 44
1, 769104, Control_c, 0, 64, 105
1, 769119, Control_c, 0, 64, 104
1, 769134, Control_c, 0, 64, 104
1, 769149, Control_c, 0, 64, 103
1, 769178, Control_c, 0, 64, 103
1, 769193, Control_c, 0, 64, 102
1, 769208, Control_c, 0, 64, 101
1, 769223, Control_c, 0, 64, 101
1, 769238, Control_c, 0, 64, 100
1, 769253, Control_c, 0, 64, 100
1, 769268, Control_c, 0, 64, 98
1, 769283, Control_c, 0, 64, 97
1, 769297, Control_c, 0, 64, 96
1, 769312, Control_c, 0, 64, 95
1, 769327, Control_c, 0, 64, 93
1, 769342, Control_c, 0, 64, 90
1, 769357, Control_c, 0, 64, 88
1, 769371, Control_c, 0, 64, 87
1, 769386, Control_c, 0, 64, 86
1, 769401, Control_c, 0, 64, 85
1, 769415, Control_c, 0, 64, 83
1, 769430, Control_c, 0, 64, 81
1, 769445, Control_c, 0, 64, 80
1, 769460, Control_c, 0, 64, 79
1, 769475, Control_c, 0, 64, 78
1, 769489, Control_c, 0, 64, 77
1, 769504, Control_c, 0, 64, 76
1, 769518, Control_c, 0, 64, 75
1, 769533, Control_c, 0, 64, 74
1, 769533, Control_c, 0, 67, 126
1, 769548, Control_c, 0, 64, 74
1, 769548, Control_c, 0, 67, 125
1, 769563, Control_c, 0, 64, 73
1, 769563, Control_c, 0, 67, 122
1, 769578, Control_c, 0, 64, 72
1, 769578, Control_c, 0, 67, 119
1, 769593, Control_c, 0, 64, 71
1, 769593, Control_c, 0, 67, 117
1, 769607, Control_c, 0, 64, 71
1, 769607, Control_c, 0, 67, 114
1, 769622, Control_c, 0, 64, 70
1, 769622, Control_c, 0, 67, 111
1, 769644, Control_c, 0, 64, 70
1, 769644, Control_c, 0, 67, 108
1, 769659, Control_c, 0, 64, 69
1, 769659, Control_c, 0, 67, 104
1, 769674, Control_c, 0, 64, 68
1, 769674, Control_c, 0, 67, 101
1, 769688, Control_c, 0, 64, 68
1, 769688, Control_c, 0, 67, 97
1, 769703, Control_c, 0, 64, 67
1, 769703, Control_c, 0, 67, 92
1, 769718, Control_c, 0, 64, 67
1, 769718, Control_c, 0, 67, 85
1, 769733, Control_c, 0, 64, 66
1, 769733, Control_c, 0, 67, 79
1, 769748, Control_c, 0, 67, 74
1, 769762, Control_c, 0, 67, 71
1, 769777, Control_c, 0, 67, 69
1, 769792, Control_c, 0, 64, 65
1, 769792, Control_c, 0, 67, 65
1, 769807, Control_c, 0, 67, 61
1, 769822, Control_c, 0, 64, 65
1, 769822, Control_c, 0, 67, 57
1, 769837, Control_c, 0, 67, 55
1, 769852, Control_c, 0, 67, 53
1, 769867, Control_c, 0, 64, 64
1, 769867, Control_c, 0, 67, 51
1, 769882, Control_c, 0, 64, 58
1, 769882, Control_c, 0, 67, 49
1, 769896, Control_c, 0, 64, 0
1, 769896, Control_c, 0, 67, 47
1, 769911, Control_c, 0, 67, 45
1, 769926, Control_c, 0, 67, 43
1, 769941, Control_c, 0, 67, 41
1, 769956, Control_c, 0, 67, 38
1, 769971, Control_c, 0, 67, 34
1, 769986, Control_c, 0, 67, 28
1, 770001, Control_c, 0, 67, 21
1, 770016, Control_c, 0, 67, 10
1, 770031, Control_c, 0, 67, 0
1, 770045, Control_c, 0, 64, 47
1, 770060, Control_c, 0, 64, 61
1, 770075, Control_c, 0, 64, 65
1, 770090, Control_c, 0, 64, 66
1, 770105, Control_c, 0, 64, 67
1, 770119, Control_c, 0, 64, 68
1, 770122, Note_on_c, 0, 74, 69
1, 770134, Control_c, 0, 64, 70
1, 770149, Control_c, 0, 64, 71
1, 770163, Control_c, 0, 64, 73
1, 770178, Control_c, 0, 64, 74
1, 770193, Control_c, 0, 64, 75
1, 770208, Control_c, 0, 64, 77
1, 770223, Control_c, 0, 64, 78
1, 770237, Control_c, 0, 64, 81
1, 770252, Control_c, 0, 64, 83
1, 770268, Control_c, 0, 64, 84
1, 770283, Control_c, 0, 64, 85
1, 770298, Control_c, 0, 64, 87
1, 770312, Control_c, 0, 64, 88
1, 770327, Control_c, 0, 64, 90
1, 770342, Control_c, 0, 64, 93
1, 770356, Control_c, 0, 64, 94
1, 770371, Control_c, 0, 64, 95
1, 770394, Control_c, 0, 64, 96
1, 770409, Control_c, 0, 64, 97
1, 770424, Control_c, 0, 64, 98
1, 770438, Control_c, 0, 64, 99
1, 770453, Control_c, 0, 64, 100
1, 770557, Control_c, 0, 64, 100
1, 770645, Control_c, 0, 64, 99
1, 770660, Control_c, 0, 64, 98
1, 770675, Control_c, 0, 64, 97
1, 770690, Control_c, 0, 64, 95
1, 770705, Control_c, 0, 64, 94
1, 770706, Note_on_c, 0, 53, 35
1, 770710, Note_on_c, 0, 73, 55
1, 770721, Control_c, 0, 64, 93
1, 770736, Control_c, 0, 64, 91
1, 770738, Note_off_c, 0, 74, 36
1, 770750, Control_c, 0, 64, 87
1, 770765, Control_c, 0, 64, 79
1, 770780, Control_c, 0, 64, 70
1, 770794, Control_c, 0, 64, 64
1, 770809, Control_c, 0, 64, 64
1, 770824, Control_c, 0, 64, 64
1, 770868, Control_c, 0, 64, 65
1, 770883, Control_c, 0, 64, 65
1, 770898, Control_c, 0, 64, 66
1, 770913, Control_c, 0, 64, 67
1, 770928, Control_c, 0, 64, 68
1, 770943, Control_c, 0, 64, 68
1, 770958, Control_c, 0, 64, 69
1, 770973, Control_c, 0, 64, 71
1, 770987, Control_c, 0, 64, 73
1, 771002, Control_c, 0, 64, 74
1, 771005, Note_off_c, 0, 53, 44
1, 771017, Control_c, 0, 64, 76
1, 771022, Note_on_c, 0, 49, 37
1, 771032, Control_c, 0, 64, 77
1, 771047, Control_c, 0, 64, 79
1, 771061, Control_c, 0, 64, 81
1, 771076, Control_c, 0, 64, 83
1, 771091, Control_c, 0, 64, 85
1, 771106, Control_c, 0, 64, 87
1, 771121, Control_c, 0, 64, 89
1, 771143, Control_c, 0, 64, 91
1, 771158, Control_c, 0, 64, 93
1, 771172, Control_c, 0, 64, 94
1, 771187, Control_c, 0, 64, 95
1, 771195, Note_off_c, 0, 49, 51
1, 771202, Control_c, 0, 64, 95
1, 771219, Note_on_c, 0, 56, 37
1, 771232, Control_c, 0, 64, 96
1, 771247, Control_c, 0, 64, 96
1, 771372, Note_on_c, 0, 49, 35
1, 771383, Note_off_c, 0, 56, 47
1, 771468, Control_c, 0, 64, 95
1, 771483, Control_c, 0, 64, 93
1, 771498, Control_c, 0, 64, 89
1, 771514, Control_c, 0, 64, 85
1, 771526, Note_on_c, 0, 66, 52
1, 771529, Control_c, 0, 64, 83
1, 771530, Note_on_c, 0, 57, 37
1, 771536, Note_off_c, 0, 49, 46
1, 771603, Control_c, 0, 64, 84
1, 771617, Control_c, 0, 64, 85
1, 771632, Control_c, 0, 64, 86
1, 771647, Control_c, 0, 64, 87
1, 771660, Note_on_c, 0, 49, 47
1, 771668, Note_off_c, 0, 57, 59
1, 771677, Control_c, 0, 64, 87
1, 771691, Control_c, 0, 64, 88
1, 771721, Control_c, 0, 64, 88
1, 771781, Control_c, 0, 64, 85
1, 771795, Control_c, 0, 64, 80
1, 771801, Note_on_c, 0, 68, 66
1, 771810, Note_on_c, 0, 59, 57
1, 771810, Control_c, 0, 64, 76
1, 771825, Control_c, 0, 64, 76
1, 771826, Note_off_c, 0, 49, 58
1, 771832, Note_off_c, 0, 66, 55
1, 771840, Control_c, 0, 64, 76
1, 771855, Control_c, 0, 64, 78
1, 771870, Control_c, 0, 64, 80
1, 771891, Control_c, 0, 64, 83
1, 771906, Control_c, 0, 64, 86
1, 771921, Control_c, 0, 64, 88
1, 771930, Note_off_c, 0, 73, 27
1, 771936, Control_c, 0, 64, 89
1, 771950, Control_c, 0, 64, 90
1, 771965, Control_c, 0, 64, 90
1, 771972, Note_on_c, 0, 49, 57
1, 771977, Note_off_c, 0, 59, 58
1, 772055, Control_c, 0, 64, 90
1, 772070, Control_c, 0, 64, 89
1, 772085, Control_c, 0, 64, 88
1, 772099, Control_c, 0, 64, 85
1, 772114, Control_c, 0, 64, 81
1, 772121, Note_on_c, 0, 61, 55
1, 772125, Note_on_c, 0, 60, 57
1, 772129, Control_c, 0, 64, 74
1, 772131, Note_off_c, 0, 49, 56
1, 772143, Control_c, 0, 64, 65
1, 772149, Note_off_c, 0, 68, 49
1, 772158, Control_c, 0, 64, 55
1, 772173, Control_c, 0, 64, 60
1, 772188, Control_c, 0, 64, 63
1, 772203, Control_c, 0, 64, 64
1, 772217, Control_c, 0, 64, 64
1, 772232, Control_c, 0, 64, 65
1, 772247, Control_c, 0, 64, 66
1, 772262, Control_c, 0, 64, 67
1, 772277, Control_c, 0, 64, 69
1, 772291, Control_c, 0, 64, 71
1, 772307, Control_c, 0, 64, 72
1, 772322, Control_c, 0, 64, 73
1, 772337, Control_c, 0, 64, 74
1, 772347, Note_off_c, 0, 60, 60
1, 772352, Control_c, 0, 64, 75
1, 772366, Control_c, 0, 64, 76
1, 772369, Note_on_c, 0, 49, 46
1, 772455, Control_c, 0, 64, 75
1, 772470, Control_c, 0, 64, 74
1, 772480, Note_off_c, 0, 49, 62
1, 772485, Control_c, 0, 64, 72
1, 772500, Control_c, 0, 64, 68
1, 772508, Note_on_c, 0, 59, 52
1, 772514, Control_c, 0, 64, 67
1, 772529, Control_c, 0, 64, 68
1, 772544, Control_c, 0, 64, 69
1, 772559, Control_c, 0, 64, 70
1, 772573, Control_c, 0, 64, 72
1, 772588, Control_c, 0, 64, 74
1, 772603, Control_c, 0, 64, 75
1, 772618, Control_c, 0, 64, 76
1, 772640, Control_c, 0, 64, 77
1, 772651, Note_on_c, 0, 49, 40
1, 772655, Control_c, 0, 64, 78
1, 772670, Control_c, 0, 64, 78
1, 772700, Control_c, 0, 64, 79
1, 772714, Control_c, 0, 64, 78
1, 772729, Control_c, 0, 64, 76
1, 772744, Control_c, 0, 64, 73
1, 772758, Note_off_c, 0, 49, 56
1, 772759, Control_c, 0, 64, 67
1, 772763, Note_off_c, 0, 59, 38
1, 772773, Control_c, 0, 64, 62
1, 772788, Control_c, 0, 64, 63
1, 772792, Note_on_c, 0, 58, 44
1, 772803, Control_c, 0, 64, 65
1, 772818, Control_c, 0, 64, 67
1, 772833, Control_c, 0, 64, 69
1, 772848, Control_c, 0, 64, 71
1, 772863, Control_c, 0, 64, 73
1, 772878, Control_c, 0, 64, 74
1, 772892, Control_c, 0, 64, 76
1, 772907, Control_c, 0, 64, 78
1, 772922, Control_c, 0, 64, 79
1, 772937, Control_c, 0, 64, 79
1, 772942, Note_off_c, 0, 58, 51
1, 772950, Note_on_c, 0, 49, 48
1, 772952, Control_c, 0, 64, 80
1, 772966, Control_c, 0, 64, 80
1, 772996, Control_c, 0, 64, 80
1, 773011, Control_c, 0, 64, 78
1, 773026, Control_c, 0, 64, 75
1, 773040, Control_c, 0, 64, 73
1, 773059, Note_off_c, 0, 49, 56
1, 773070, Control_c, 0, 64, 74
1, 773076, Note_on_c, 0, 66, 51
1, 773084, Control_c, 0, 64, 75
1, 773092, Note_on_c, 0, 57, 37
1, 773099, Control_c, 0, 64, 77
1, 773115, Note_off_c, 0, 61, 37
1, 773116, Control_c, 0, 64, 79
1, 773130, Control_c, 0, 64, 81
1, 773145, Control_c, 0, 64, 82
1, 773160, Control_c, 0, 64, 84
1, 773175, Control_c, 0, 64, 84
1, 773189, Control_c, 0, 64, 85
1, 773215, Note_on_c, 0, 49, 38
1, 773220, Note_off_c, 0, 57, 35
1, 773294, Control_c, 0, 64, 84
1, 773309, Control_c, 0, 64, 82
1, 773322, Note_off_c, 0, 49, 56
1, 773324, Control_c, 0, 64, 80
1, 773338, Control_c, 0, 64, 76
1, 773353, Control_c, 0, 64, 69
1, 773354, Note_on_c, 0, 65, 54
1, 773358, Note_on_c, 0, 56, 44
1, 773368, Control_c, 0, 64, 65
1, 773383, Note_off_c, 0, 66, 48
1, 773390, Control_c, 0, 64, 65
1, 773405, Control_c, 0, 64, 66
1, 773420, Control_c, 0, 64, 67
1, 773435, Control_c, 0, 64, 67
1, 773450, Control_c, 0, 64, 68
1, 773464, Control_c, 0, 64, 70
1, 773479, Control_c, 0, 64, 73
1, 773494, Control_c, 0, 64, 74
1, 773504, Note_on_c, 0, 49, 50
1, 773508, Control_c, 0, 64, 76
1, 773523, Control_c, 0, 64, 77
1, 773527, Note_off_c, 0, 56, 37
1, 773538, Control_c, 0, 64, 78
1, 773553, Control_c, 0, 64, 79
1, 773568, Control_c, 0, 64, 80
1, 773612, Control_c, 0, 64, 79
1, 773627, Control_c, 0, 64, 76
1, 773628, Note_off_c, 0, 49, 58
1, 773635, Note_on_c, 0, 66, 66
1, 773642, Control_c, 0, 64, 73
1, 773657, Control_c, 0, 64, 69
1, 773659, Note_on_c, 0, 57, 41
1, 773671, Control_c, 0, 64, 69
1, 773686, Control_c, 0, 64, 70
1, 773695, Note_off_c, 0, 65, 49
1, 773701, Control_c, 0, 64, 71
1, 773715, Control_c, 0, 64, 72
1, 773730, Control_c, 0, 64, 73
1, 773745, Control_c, 0, 64, 75
1, 773760, Control_c, 0, 64, 77
1, 773768, Note_on_c, 0, 49, 53
1, 773775, Control_c, 0, 64, 79
1, 773790, Control_c, 0, 64, 81
1, 773793, Note_off_c, 0, 57, 36
1, 773805, Control_c, 0, 64, 82
1, 773819, Control_c, 0, 64, 82
1, 773879, Control_c, 0, 64, 80
1, 773894, Control_c, 0, 64, 76
1, 773903, Note_off_c, 0, 49, 57
1, 773909, Control_c, 0, 64, 70
1, 773921, Note_on_c, 0, 68, 73
1, 773924, Control_c, 0, 64, 65
1, 773930, Note_on_c, 0, 53, 39
1, 773939, Control_c, 0, 64, 66
1, 773954, Control_c, 0, 64, 67
1, 773966, Note_off_c, 0, 66, 57
1, 773969, Control_c, 0, 64, 68
1, 773983, Control_c, 0, 64, 70
1, 773998, Control_c, 0, 64, 72
1, 774012, Control_c, 0, 64, 73
1, 774027, Control_c, 0, 64, 74
1, 774042, Control_c, 0, 64, 74
1, 774048, Note_off_c, 0, 53, 57
1, 774057, Control_c, 0, 64, 76
1, 774062, Note_on_c, 0, 49, 50
1, 774072, Control_c, 0, 64, 77
1, 774086, Control_c, 0, 64, 78
1, 774101, Control_c, 0, 64, 78
1, 774116, Control_c, 0, 64, 79
1, 774138, Control_c, 0, 64, 79
1, 774168, Control_c, 0, 64, 78
1, 774183, Control_c, 0, 64, 76
1, 774198, Control_c, 0, 64, 72
1, 774208, Note_on_c, 0, 69, 69
1, 774212, Control_c, 0, 64, 66
1, 774221, Note_off_c, 0, 49, 57
1, 774224, Note_on_c, 0, 54, 51
1, 774227, Control_c, 0, 64, 64
1, 774240, Note_off_c, 0, 68, 60
1, 774242, Control_c, 0, 64, 66
1, 774257, Control_c, 0, 64, 67
1, 774272, Control_c, 0, 64, 69
1, 774286, Control_c, 0, 64, 71
1, 774301, Control_c, 0, 64, 73
1, 774316, Control_c, 0, 64, 75
1, 774330, Control_c, 0, 64, 76
1, 774345, Control_c, 0, 64, 77
1, 774346, Note_on_c, 0, 49, 59
1, 774356, Note_off_c, 0, 54, 63
1, 774360, Control_c, 0, 64, 78
1, 774404, Control_c, 0, 64, 79
1, 774441, Note_off_c, 0, 49, 56
1, 774449, Control_c, 0, 64, 78
1, 774464, Control_c, 0, 64, 75
1, 774478, Control_c, 0, 64, 70
1, 774493, Control_c, 0, 64, 61
1, 774495, Note_off_c, 0, 69, 60
1, 774508, Control_c, 0, 64, 53
1, 774511, Note_on_c, 0, 73, 68
1, 774523, Control_c, 0, 64, 59
1, 774529, Note_on_c, 0, 64, 41
1, 774538, Control_c, 0, 64, 62
1, 774538, Note_on_c, 0, 66, 31
1, 774553, Control_c, 0, 64, 63
1, 774568, Control_c, 0, 64, 65
1, 774583, Control_c, 0, 64, 66
1, 774598, Control_c, 0, 64, 69
1, 774607, Note_off_c, 0, 64, 39
1, 774612, Control_c, 0, 64, 71
1, 774627, Control_c, 0, 64, 72
1, 774642, Control_c, 0, 64, 73
1, 774656, Note_on_c, 0, 49, 48
1, 774657, Control_c, 0, 64, 74
1, 774672, Control_c, 0, 64, 76
1, 774686, Control_c, 0, 64, 77
1, 774747, Control_c, 0, 64, 76
1, 774761, Control_c, 0, 64, 74
1, 774776, Control_c, 0, 64, 71
1, 774791, Control_c, 0, 64, 65
1, 774798, Note_off_c, 0, 73, 50
1, 774805, Note_off_c, 0, 49, 35
1, 774806, Control_c, 0, 64, 51
1, 774809, Note_on_c, 0, 71, 55
1, 774821, Control_c, 0, 64, 50
1, 774835, Control_c, 0, 64, 60
1, 774838, Note_on_c, 0, 62, 31
1, 774850, Control_c, 0, 64, 64
1, 774865, Control_c, 0, 64, 66
1, 774887, Control_c, 0, 64, 67
1, 774902, Control_c, 0, 64, 69
1, 774916, Control_c, 0, 64, 70
1, 774927, Note_off_c, 0, 62, 58
1, 774931, Control_c, 0, 64, 73
1, 774946, Control_c, 0, 64, 74
1, 774961, Control_c, 0, 64, 75
1, 774968, Note_on_c, 0, 49, 37
1, 774976, Control_c, 0, 64, 75
1, 775065, Control_c, 0, 64, 75
1, 775080, Control_c, 0, 64, 74
1, 775095, Control_c, 0, 64, 74
1, 775109, Control_c, 0, 64, 72
1, 775124, Control_c, 0, 64, 69
1, 775134, Note_off_c, 0, 71, 55
1, 775138, Note_off_c, 0, 49, 52
1, 775139, Control_c, 0, 64, 63
1, 775147, Note_off_c, 0, 66, 42
1, 775153, Control_c, 0, 64, 41
1, 775168, Control_c, 0, 64, 0
1, 775169, Note_on_c, 0, 68, 38
1, 775176, Note_on_c, 0, 61, 32
1, 775187, Note_on_c, 0, 65, 18
1, 775227, Control_c, 0, 64, 28
1, 775242, Control_c, 0, 64, 37
1, 775257, Control_c, 0, 64, 47
1, 775272, Control_c, 0, 64, 59
1, 775286, Control_c, 0, 64, 63
1, 775301, Control_c, 0, 64, 65
1, 775313, Note_off_c, 0, 65, 38
1, 775316, Control_c, 0, 64, 66
1, 775318, Note_off_c, 0, 68, 56
1, 775331, Control_c, 0, 64, 68
1, 775346, Control_c, 0, 64, 70
1, 775361, Control_c, 0, 64, 73
1, 775369, Note_on_c, 0, 49, 38
1, 775376, Control_c, 0, 64, 75
1, 775390, Control_c, 0, 64, 76
1, 775391, Note_off_c, 0, 61, 43
1, 775405, Control_c, 0, 64, 78
1, 775420, Control_c, 0, 64, 80
1, 775435, Control_c, 0, 64, 82
1, 775450, Control_c, 0, 64, 84
1, 775465, Control_c, 0, 64, 86
1, 775479, Control_c, 0, 64, 87
1, 775494, Control_c, 0, 64, 89
1, 775510, Control_c, 0, 64, 90
1, 775525, Control_c, 0, 64, 91
1, 775539, Control_c, 0, 64, 91
1, 775542, Note_off_c, 0, 49, 40
1, 775784, Control_c, 0, 64, 91
1, 775814, Control_c, 0, 64, 90
1, 775823, Note_on_c, 0, 74, 58
1, 775829, Control_c, 0, 64, 90
1, 775844, Control_c, 0, 64, 89
1, 775858, Control_c, 0, 64, 88
1, 775873, Control_c, 0, 64, 87
1, 775888, Control_c, 0, 64, 86
1, 775902, Control_c, 0, 64, 84
1, 775917, Control_c, 0, 64, 82
1, 775932, Control_c, 0, 64, 80
1, 775947, Control_c, 0, 64, 77
1, 775962, Control_c, 0, 64, 75
1, 775976, Control_c, 0, 64, 73
1, 775991, Control_c, 0, 64, 71
1, 776006, Control_c, 0, 64, 69
1, 776021, Control_c, 0, 64, 67
1, 776036, Control_c, 0, 64, 64
1, 776036, Control_c, 0, 67, 8
1, 776051, Control_c, 0, 64, 59
1, 776051, Control_c, 0, 67, 13
1, 776065, Control_c, 0, 64, 26
1, 776065, Control_c, 0, 67, 19
1, 776080, Control_c, 0, 64, 0
1, 776080, Control_c, 0, 67, 26
1, 776095, Control_c, 0, 67, 33
1, 776109, Control_c, 0, 67, 39
1, 776124, Control_c, 0, 67, 45
1, 776139, Control_c, 0, 67, 51
1, 776154, Control_c, 0, 67, 59
1, 776169, Control_c, 0, 67, 68
1, 776183, Control_c, 0, 67, 74
1, 776198, Control_c, 0, 67, 78
1, 776213, Control_c, 0, 67, 81
1, 776228, Control_c, 0, 67, 86
1, 776243, Control_c, 0, 67, 89
1, 776258, Control_c, 0, 67, 91
1, 776273, Control_c, 0, 67, 93
1, 776288, Control_c, 0, 67, 93
1, 776303, Control_c, 0, 67, 94
1, 776318, Control_c, 0, 64, 28
1, 776332, Control_c, 0, 64, 48
1, 776347, Control_c, 0, 64, 58
1, 776362, Control_c, 0, 64, 62
1, 776385, Control_c, 0, 64, 63
1, 776400, Control_c, 0, 64, 65
1, 776414, Note_on_c, 0, 62, 30
1, 776414, Control_c, 0, 64, 66
1, 776429, Control_c, 0, 64, 68
1, 776444, Control_c, 0, 64, 69
1, 776459, Control_c, 0, 64, 71
1, 776474, Control_c, 0, 64, 72
1, 776488, Control_c, 0, 64, 74
1, 776503, Control_c, 0, 64, 75
1, 776518, Control_c, 0, 64, 77
1, 776532, Control_c, 0, 64, 78
1, 776547, Control_c, 0, 64, 80
1, 776557, Note_off_c, 0, 62, 47
1, 776562, Control_c, 0, 64, 81
1, 776577, Control_c, 0, 64, 82
1, 776592, Control_c, 0, 64, 83
1, 776601, Note_on_c, 0, 50, 38
1, 776607, Control_c, 0, 64, 85
1, 776622, Control_c, 0, 64, 86
1, 776636, Control_c, 0, 64, 87
1, 776651, Control_c, 0, 64, 88
1, 776666, Control_c, 0, 64, 88
1, 776696, Control_c, 0, 64, 89
1, 776723, Note_off_c, 0, 50, 37
1, 776726, Control_c, 0, 64, 89
1, 776764, Note_on_c, 0, 62, 35
1, 776884, Note_on_c, 0, 50, 38
1, 776888, Control_c, 0, 67, 94
1, 776947, Control_c, 0, 64, 89
1, 776947, Control_c, 0, 67, 93
1, 776977, Control_c, 0, 64, 88
1, 776992, Control_c, 0, 64, 88
1, 777022, Control_c, 0, 64, 87
1, 777037, Control_c, 0, 64, 87
1, 777052, Control_c, 0, 64, 86
1, 777054, Note_off_c, 0, 62, 26
1, 777067, Control_c, 0, 64, 84
1, 777081, Control_c, 0, 64, 80
1, 777093, Note_on_c, 0, 67, 49
1, 777096, Control_c, 0, 64, 76
1, 777105, Note_off_c, 0, 50, 41
1, 777111, Note_on_c, 0, 59, 38
1, 777112, Control_c, 0, 64, 73
1, 777134, Control_c, 0, 64, 72
1, 777149, Control_c, 0, 64, 73
1, 777164, Control_c, 0, 64, 73
1, 777179, Control_c, 0, 64, 74
1, 777194, Control_c, 0, 64, 74
1, 777209, Control_c, 0, 64, 75
1, 777209, Control_c, 0, 67, 93
1, 777224, Control_c, 0, 64, 76
1, 777238, Control_c, 0, 64, 78
1, 777253, Control_c, 0, 64, 79
1, 777253, Control_c, 0, 67, 92
1, 777256, Note_off_c, 0, 74, 29
1, 777264, Note_off_c, 0, 59, 58
1, 777268, Control_c, 0, 64, 79
1, 777279, Note_on_c, 0, 50, 34
1, 777283, Control_c, 0, 64, 80
1, 777298, Control_c, 0, 64, 80
1, 777298, Control_c, 0, 67, 92
1, 777312, Control_c, 0, 64, 81
1, 777327, Control_c, 0, 64, 81
1, 777342, Control_c, 0, 64, 82
1, 777356, Control_c, 0, 64, 83
1, 777401, Control_c, 0, 64, 82
1, 777416, Control_c, 0, 64, 81
1, 777449, Note_off_c, 0, 50, 50
1, 777453, Note_on_c, 0, 69, 63
1, 777456, Note_on_c, 0, 60, 40
1, 777475, Control_c, 0, 64, 81
1, 777475, Control_c, 0, 67, 91
1, 777489, Note_off_c, 0, 67, 62
1, 777490, Control_c, 0, 64, 82
1, 777504, Control_c, 0, 64, 84
1, 777519, Control_c, 0, 64, 85
1, 777534, Control_c, 0, 64, 87
1, 777549, Control_c, 0, 64, 88
1, 777549, Control_c, 0, 67, 91
1, 777564, Control_c, 0, 67, 90
1, 777578, Note_off_c, 0, 60, 35
1, 777586, Note_on_c, 0, 50, 42
1, 777623, Control_c, 0, 64, 88
1, 777638, Control_c, 0, 64, 88
1, 777682, Control_c, 0, 64, 87
1, 777697, Control_c, 0, 64, 86
1, 777712, Control_c, 0, 64, 83
1, 777720, Note_off_c, 0, 50, 54
1, 777727, Control_c, 0, 64, 77
1, 777742, Control_c, 0, 64, 68
1, 777743, Note_on_c, 0, 62, 62
1, 777743, Note_off_c, 0, 69, 48
1, 777750, Note_on_c, 0, 54, 39
1, 777755, Control_c, 0, 64, 63
1, 777770, Control_c, 0, 64, 64
1, 777770, Control_c, 0, 67, 90
1, 777785, Control_c, 0, 64, 65
1, 777800, Control_c, 0, 64, 65
1, 777815, Control_c, 0, 64, 66
1, 777829, Control_c, 0, 64, 67
1, 777829, Control_c, 0, 67, 89
1, 777844, Control_c, 0, 64, 69
1, 777856, Note_off_c, 0, 54, 57
1, 777859, Control_c, 0, 64, 71
1, 777881, Control_c, 0, 64, 74
1, 777885, Note_on_c, 0, 50, 43
1, 777896, Control_c, 0, 64, 75
1, 777912, Control_c, 0, 64, 76
1, 777927, Control_c, 0, 64, 77
1, 777942, Control_c, 0, 64, 78
1, 777957, Control_c, 0, 64, 79
1, 777986, Control_c, 0, 64, 78
1, 778001, Control_c, 0, 64, 75
1, 778016, Note_off_c, 0, 50, 63
1, 778016, Control_c, 0, 64, 71
1, 778029, Note_on_c, 0, 54, 49
1, 778031, Control_c, 0, 64, 65
1, 778046, Control_c, 0, 64, 65
1, 778060, Control_c, 0, 64, 66
1, 778075, Control_c, 0, 64, 67
1, 778090, Control_c, 0, 64, 69
1, 778104, Control_c, 0, 64, 71
1, 778119, Control_c, 0, 64, 73
1, 778130, Note_off_c, 0, 54, 63
1, 778134, Control_c, 0, 64, 75
1, 778149, Control_c, 0, 64, 76
1, 778157, Note_on_c, 0, 48, 51
1, 778164, Control_c, 0, 64, 78
1, 778178, Control_c, 0, 64, 79
1, 778193, Control_c, 0, 64, 79
1, 778252, Control_c, 0, 64, 78
1, 778267, Note_off_c, 0, 48, 59
1, 778267, Control_c, 0, 64, 76
1, 778282, Control_c, 0, 64, 71
1, 778291, Note_on_c, 0, 55, 51
1, 778297, Control_c, 0, 64, 64
1, 778312, Control_c, 0, 64, 60
1, 778327, Control_c, 0, 64, 63
1, 778342, Control_c, 0, 64, 65
1, 778356, Control_c, 0, 64, 66
1, 778371, Control_c, 0, 64, 68
1, 778386, Control_c, 0, 64, 70
1, 778390, Note_off_c, 0, 55, 64
1, 778401, Control_c, 0, 64, 72
1, 778416, Control_c, 0, 64, 74
1, 778416, Control_c, 0, 67, 89
1, 778431, Control_c, 0, 64, 75
1, 778446, Control_c, 0, 64, 77
1, 778446, Note_on_c, 0, 47, 45
1, 778460, Control_c, 0, 64, 78
1, 778460, Control_c, 0, 67, 88
1, 778475, Control_c, 0, 64, 79
1, 778504, Control_c, 0, 64, 78
1, 778519, Control_c, 0, 64, 77
1, 778534, Control_c, 0, 64, 74
1, 778549, Control_c, 0, 64, 71
1, 778556, Note_off_c, 0, 47, 39
1, 778564, Control_c, 0, 64, 69
1, 778578, Control_c, 0, 64, 70
1, 778578, Control_c, 0, 67, 88
1, 778592, Note_on_c, 0, 59, 48
1, 778593, Note_on_c, 0, 67, 56
1, 778593, Control_c, 0, 64, 71
1, 778608, Control_c, 0, 64, 73
1, 778608, Control_c, 0, 67, 87
1, 778631, Control_c, 0, 64, 74
1, 778631, Note_off_c, 0, 62, 52
1, 778646, Control_c, 0, 64, 76
1, 778646, Control_c, 0, 67, 87
1, 778660, Control_c, 0, 64, 78
1, 778675, Control_c, 0, 64, 80
1, 778681, Note_off_c, 0, 59, 56
1, 778690, Control_c, 0, 64, 81
1, 778705, Control_c, 0, 64, 82
1, 778705, Control_c, 0, 67, 86
1, 778716, Note_on_c, 0, 47, 42
1, 778720, Control_c, 0, 64, 83
1, 778735, Control_c, 0, 64, 84
1, 778735, Control_c, 0, 67, 86
1, 778765, Control_c, 0, 64, 84
1, 778824, Control_c, 0, 64, 83
1, 778831, Note_off_c, 0, 67, 38
1, 778839, Control_c, 0, 64, 80
1, 778854, Control_c, 0, 64, 74
1, 778868, Note_on_c, 0, 57, 43
1, 778869, Control_c, 0, 64, 66
1, 778869, Note_on_c, 0, 66, 48
1, 778881, Note_on_c, 0, 61, 45
1, 778883, Note_off_c, 0, 47, 35
1, 778883, Control_c, 0, 64, 64
1, 778898, Control_c, 0, 64, 65
1, 778909, Note_off_c, 0, 66, 61
1, 778913, Control_c, 0, 64, 66
1, 778927, Control_c, 0, 64, 67
1, 778942, Control_c, 0, 64, 68
1, 778950, Note_on_c, 0, 68, 61
1, 778957, Control_c, 0, 64, 70
1, 778962, Note_off_c, 0, 57, 51
1, 778972, Control_c, 0, 64, 72
1, 778987, Control_c, 0, 64, 74
1, 778992, Note_off_c, 0, 68, 61
1, 778998, Note_on_c, 0, 49, 50
1, 779001, Control_c, 0, 64, 75
1, 779001, Control_c, 0, 67, 85
1, 779003, Note_on_c, 0, 66, 65
1, 779016, Note_off_c, 0, 61, 36
1, 779016, Control_c, 0, 64, 77
1, 779031, Control_c, 0, 64, 77
1, 779045, Note_off_c, 0, 66, 59
1, 779046, Control_c, 0, 64, 77
1, 779060, Note_on_c, 0, 68, 63
1, 779061, Control_c, 0, 64, 75
1, 779061, Control_c, 0, 67, 85
1, 779075, Control_c, 0, 64, 71
1, 779079, Note_off_c, 0, 49, 58
1, 779090, Control_c, 0, 64, 68
1, 779093, Note_off_c, 0, 68, 64
1, 779097, Note_on_c, 0, 57, 49
1, 779105, Control_c, 0, 64, 69
1, 779117, Note_on_c, 0, 66, 56
1, 779120, Control_c, 0, 64, 70
1, 779134, Control_c, 0, 64, 71
1, 779140, Note_on_c, 0, 68, 67
1, 779143, Note_off_c, 0, 66, 67
1, 779149, Control_c, 0, 64, 72
1, 779164, Control_c, 0, 64, 74
1, 779179, Control_c, 0, 64, 76
1, 779188, Note_off_c, 0, 57, 52
1, 779194, Control_c, 0, 64, 79
1, 779201, Note_on_c, 0, 66, 71
1, 779201, Note_off_c, 0, 68, 63
1, 779205, Note_on_c, 0, 49, 50
1, 779209, Control_c, 0, 64, 80
1, 779224, Control_c, 0, 64, 81
1, 779235, Note_off_c, 0, 66, 63
1, 779239, Control_c, 0, 64, 81
1, 779241, Note_on_c, 0, 65, 67
1, 779253, Control_c, 0, 67, 85
1, 779295, Note_off_c, 0, 49, 57
1, 779297, Note_on_c, 0, 66, 68
1, 779297, Control_c, 0, 64, 79
1, 779307, Note_off_c, 0, 65, 61
1, 779312, Control_c, 0, 64, 77
1, 779326, Control_c, 0, 64, 71
1, 779341, Control_c, 0, 64, 62
1, 779349, Note_on_c, 0, 59, 41
1, 779356, Note_off_c, 0, 66, 63
1, 779356, Control_c, 0, 64, 0
1, 779378, Note_on_c, 0, 68, 67
1, 779379, Control_c, 0, 67, 86
1, 779394, Control_c, 0, 64, 30
1, 779408, Control_c, 0, 64, 48
1, 779423, Control_c, 0, 64, 55
1, 779438, Control_c, 0, 64, 59
1, 779452, Control_c, 0, 64, 61
1, 779467, Control_c, 0, 64, 64
1, 779470, Note_off_c, 0, 59, 39
1, 779482, Control_c, 0, 64, 66
1, 779497, Note_on_c, 0, 49, 49
1, 779498, Control_c, 0, 64, 68
1, 779513, Control_c, 0, 64, 69
1, 779528, Control_c, 0, 64, 70
1, 779528, Control_c, 0, 67, 85
1, 779543, Control_c, 0, 64, 72
1, 779557, Control_c, 0, 64, 74
1, 779572, Control_c, 0, 64, 76
1, 779583, Note_off_c, 0, 49, 55
1, 779587, Control_c, 0, 64, 77
1, 779617, Control_c, 0, 64, 77
1, 779631, Control_c, 0, 64, 74
1, 779645, Note_off_c, 0, 68, 61
1, 779646, Control_c, 0, 64, 70
1, 779651, Note_on_c, 0, 59, 37
1, 779657, Note_on_c, 0, 73, 74
1, 779661, Control_c, 0, 64, 65
1, 779672, Note_on_c, 0, 65, 54
1, 779676, Control_c, 0, 64, 66
1, 779691, Control_c, 0, 64, 68
1, 779705, Control_c, 0, 64, 69
1, 779720, Control_c, 0, 64, 71
1, 779720, Control_c, 0, 67, 85
1, 779735, Control_c, 0, 64, 74
1, 779749, Control_c, 0, 64, 77
1, 779758, Note_off_c, 0, 59, 56
1, 779764, Control_c, 0, 64, 80
1, 779779, Control_c, 0, 64, 83
1, 779789, Note_on_c, 0, 49, 51
1, 779794, Control_c, 0, 64, 86
1, 779809, Control_c, 0, 64, 87
1, 779821, Note_off_c, 0, 49, 64
1, 779823, Control_c, 0, 64, 88
1, 779857, Note_off_c, 0, 73, 60
1, 779898, Control_c, 0, 64, 88
1, 779898, Control_c, 0, 67, 85
1, 779900, Note_off_c, 0, 65, 57
1, 779912, Control_c, 0, 64, 85
1, 779927, Control_c, 0, 64, 79
1, 779939, Note_on_c, 0, 42, 41
1, 779942, Control_c, 0, 64, 70
1, 779948, Note_on_c, 0, 73, 61
1, 779957, Control_c, 0, 64, 50
1, 779958, Note_on_c, 0, 66, 41
1, 779972, Control_c, 0, 64, 30
1, 779987, Control_c, 0, 64, 47
1, 780002, Control_c, 0, 64, 55
1, 780017, Control_c, 0, 64, 60
1, 780032, Control_c, 0, 64, 64
1, 780047, Control_c, 0, 64, 66
1, 780062, Control_c, 0, 64, 68
1, 780062, Control_c, 0, 67, 85
1, 780076, Control_c, 0, 64, 70
1, 780077, Note_on_c, 0, 49, 45
1, 780089, Note_off_c, 0, 42, 39
1, 780091, Control_c, 0, 64, 72
1, 780106, Control_c, 0, 64, 73
1, 780128, Control_c, 0, 64, 75
1, 780128, Control_c, 0, 67, 84
1, 780143, Control_c, 0, 64, 76
1, 780157, Control_c, 0, 64, 78
1, 780172, Control_c, 0, 64, 80
1, 780187, Note_off_c, 0, 49, 60
1, 780187, Control_c, 0, 64, 81
1, 780202, Control_c, 0, 64, 80
1, 780217, Control_c, 0, 64, 76
1, 780219, Note_on_c, 0, 57, 46
1, 780231, Control_c, 0, 64, 69
1, 780246, Control_c, 0, 64, 55
1, 780261, Control_c, 0, 64, 59
1, 780276, Control_c, 0, 64, 63
1, 780276, Control_c, 0, 67, 84
1, 780288, Note_off_c, 0, 57, 49
1, 780291, Control_c, 0, 64, 65
1, 780307, Control_c, 0, 64, 67
1, 780321, Control_c, 0, 64, 70
1, 780336, Control_c, 0, 64, 73
1, 780351, Control_c, 0, 64, 76
1, 780351, Control_c, 0, 67, 83
1, 780355, Note_on_c, 0, 54, 44
1, 780366, Control_c, 0, 64, 78
1, 780366, Control_c, 0, 67, 83
1, 780380, Control_c, 0, 64, 80
1, 780395, Control_c, 0, 64, 81
1, 780395, Control_c, 0, 67, 82
1, 780401, Note_off_c, 0, 66, 37
1, 780407, Note_off_c, 0, 73, 55
1, 780410, Control_c, 0, 64, 82
1, 780455, Control_c, 0, 64, 82
1, 780514, Control_c, 0, 67, 83
1, 780529, Control_c, 0, 64, 80
1, 780537, Note_on_c, 0, 66, 46
1, 780544, Control_c, 0, 64, 72
1, 780559, Control_c, 0, 64, 56
1, 780573, Control_c, 0, 64, 0
1, 780647, Control_c, 0, 67, 82
1, 780677, Control_c, 0, 64, 42
1, 780677, Control_c, 0, 67, 81
1, 780691, Control_c, 0, 64, 62
1, 780691, Control_c, 0, 67, 81
1, 780706, Control_c, 0, 64, 65
1, 780706, Control_c, 0, 67, 80
1, 780721, Control_c, 0, 64, 68
1, 780721, Control_c, 0, 67, 77
1, 780736, Control_c, 0, 64, 70
1, 780736, Control_c, 0, 67, 74
1, 780751, Control_c, 0, 64, 73
1, 780751, Control_c, 0, 67, 69
1, 780765, Control_c, 0, 64, 76
1, 780765, Control_c, 0, 67, 63
1, 780780, Control_c, 0, 64, 80
1, 780780, Control_c, 0, 67, 57
1, 780795, Control_c, 0, 64, 84
1, 780795, Control_c, 0, 67, 49
1, 780810, Control_c, 0, 64, 87
1, 780810, Control_c, 0, 67, 43
1, 780825, Control_c, 0, 64, 91
1, 780825, Control_c, 0, 67, 38
1, 780840, Control_c, 0, 64, 94
1, 780840, Control_c, 0, 67, 34
1, 780854, Control_c, 0, 64, 97
1, 780854, Control_c, 0, 67, 30
1, 780877, Control_c, 0, 64, 99
1, 780877, Control_c, 0, 67, 24
1, 780892, Control_c, 0, 64, 100
1, 780892, Control_c, 0, 67, 15
1, 780906, Control_c, 0, 67, 0
1, 780914, Note_off_c, 0, 66, 36
1, 780959, Note_off_c, 0, 54, 40
1, 780982, Note_on_c, 0, 78, 65
1, 781025, Control_c, 0, 64, 98
1, 781040, Control_c, 0, 64, 96
1, 781054, Control_c, 0, 64, 93
1, 781069, Control_c, 0, 64, 91
1, 781084, Control_c, 0, 64, 89
1, 781100, Control_c, 0, 64, 87
1, 781115, Control_c, 0, 64, 84
1, 781129, Control_c, 0, 64, 81
1, 781144, Control_c, 0, 64, 78
1, 781159, Control_c, 0, 64, 74
1, 781174, Control_c, 0, 64, 67
1, 781189, Control_c, 0, 64, 52
1, 781203, Control_c, 0, 64, 27
1, 781218, Control_c, 0, 64, 35
1, 781233, Control_c, 0, 64, 40
1, 781248, Control_c, 0, 64, 43
1, 781248, Control_c, 0, 67, 8
1, 781263, Control_c, 0, 64, 45
1, 781263, Control_c, 0, 67, 11
1, 781278, Control_c, 0, 64, 47
1, 781278, Control_c, 0, 67, 13
1, 781293, Control_c, 0, 64, 50
1, 781293, Control_c, 0, 67, 20
1, 781308, Control_c, 0, 64, 54
1, 781308, Control_c, 0, 67, 28
1, 781322, Control_c, 0, 64, 55
1, 781322, Control_c, 0, 67, 34
1, 781337, Control_c, 0, 64, 56
1, 781337, Control_c, 0, 67, 38
1, 781352, Control_c, 0, 64, 57
1, 781352, Control_c, 0, 67, 42
1, 781367, Control_c, 0, 64, 59
1, 781367, Control_c, 0, 67, 45
1, 781382, Control_c, 0, 64, 61
1, 781382, Control_c, 0, 67, 48
1, 781396, Control_c, 0, 64, 63
1, 781396, Control_c, 0, 67, 51
1, 781411, Control_c, 0, 64, 64
1, 781411, Control_c, 0, 67, 53
1, 781426, Control_c, 0, 64, 65
1, 781426, Control_c, 0, 67, 54
1, 781441, Control_c, 0, 64, 66
1, 781441, Control_c, 0, 67, 57
1, 781456, Control_c, 0, 64, 67
1, 781456, Control_c, 0, 67, 60
1, 781470, Control_c, 0, 64, 68
1, 781470, Control_c, 0, 67, 63
1, 781474, Note_on_c, 0, 58, 38
1, 781485, Control_c, 0, 64, 70
1, 781485, Control_c, 0, 67, 65
1, 781500, Control_c, 0, 64, 71
1, 781500, Control_c, 0, 67, 65
1, 781514, Control_c, 0, 64, 72
1, 781514, Control_c, 0, 67, 66
1, 781529, Control_c, 0, 64, 74
1, 781529, Control_c, 0, 67, 66
1, 781544, Control_c, 0, 64, 75
1, 781544, Control_c, 0, 67, 67
1, 781559, Control_c, 0, 64, 77
1, 781559, Control_c, 0, 67, 67
1, 781574, Control_c, 0, 64, 79
1, 781574, Control_c, 0, 67, 68
1, 781588, Control_c, 0, 64, 81
1, 781603, Control_c, 0, 64, 82
1, 781626, Control_c, 0, 64, 84
1, 781639, Note_on_c, 0, 54, 43
1, 781641, Control_c, 0, 64, 86
1, 781644, Note_off_c, 0, 58, 42
1, 781655, Control_c, 0, 64, 88
1, 781670, Control_c, 0, 64, 89
1, 781685, Control_c, 0, 64, 90
1, 781700, Control_c, 0, 64, 90
1, 781715, Control_c, 0, 64, 92
1, 781729, Control_c, 0, 64, 95
1, 781735, Note_off_c, 0, 54, 47
1, 781744, Control_c, 0, 64, 97
1, 781759, Control_c, 0, 64, 98
1, 781759, Control_c, 0, 67, 67
1, 781774, Control_c, 0, 64, 99
1, 781786, Note_on_c, 0, 61, 44
1, 781789, Control_c, 0, 64, 99
1, 781803, Control_c, 0, 64, 100
1, 781803, Control_c, 0, 67, 67
1, 781818, Control_c, 0, 64, 102
1, 781818, Control_c, 0, 67, 66
1, 781833, Control_c, 0, 64, 104
1, 781847, Control_c, 0, 64, 106
1, 781847, Control_c, 0, 67, 66
1, 781862, Control_c, 0, 67, 65
1, 781877, Control_c, 0, 64, 106
1, 781893, Control_c, 0, 67, 65
1, 781915, Note_on_c, 0, 54, 40
1, 781923, Control_c, 0, 67, 64
1, 781939, Note_off_c, 0, 61, 41
1, 781982, Control_c, 0, 64, 106
1, 782012, Control_c, 0, 64, 104
1, 782026, Control_c, 0, 64, 98
1, 782039, Note_on_c, 0, 71, 67
1, 782041, Control_c, 0, 64, 90
1, 782044, Note_off_c, 0, 54, 51
1, 782056, Control_c, 0, 64, 82
1, 782061, Note_on_c, 0, 62, 39
1, 782071, Control_c, 0, 64, 80
1, 782100, Control_c, 0, 64, 80
1, 782100, Control_c, 0, 67, 64
1, 782115, Control_c, 0, 64, 82
1, 782130, Control_c, 0, 64, 83
1, 782145, Control_c, 0, 64, 85
1, 782145, Control_c, 0, 67, 63
1, 782160, Control_c, 0, 64, 88
1, 782160, Control_c, 0, 67, 63
1, 782175, Control_c, 0, 64, 89
1, 782175, Control_c, 0, 67, 62
1, 782183, Note_on_c, 0, 54, 56
1, 782187, Note_off_c, 0, 62, 59
1, 782190, Control_c, 0, 64, 90
1, 782190, Control_c, 0, 67, 62
1, 782205, Control_c, 0, 64, 91
1, 782205, Control_c, 0, 67, 61
1, 782219, Control_c, 0, 64, 91
1, 782219, Control_c, 0, 67, 61
1, 782234, Control_c, 0, 64, 92
1, 782249, Control_c, 0, 64, 92
1, 782249, Control_c, 0, 67, 60
1, 782263, Control_c, 0, 64, 91
1, 782263, Control_c, 0, 67, 60
1, 782278, Control_c, 0, 64, 87
1, 782293, Control_c, 0, 64, 79
1, 782293, Control_c, 0, 67, 59
1, 782308, Note_on_c, 0, 64, 61
1, 782308, Control_c, 0, 64, 70
1, 782308, Control_c, 0, 67, 59
1, 782312, Note_on_c, 0, 73, 74
1, 782323, Note_off_c, 0, 54, 56
1, 782323, Control_c, 0, 64, 67
1, 782323, Control_c, 0, 67, 58
1, 782337, Control_c, 0, 64, 69
1, 782337, Control_c, 0, 67, 58
1, 782341, Note_off_c, 0, 71, 58
1, 782352, Control_c, 0, 64, 72
1, 782375, Control_c, 0, 64, 74
1, 782390, Control_c, 0, 64, 77
1, 782390, Control_c, 0, 67, 57
1, 782404, Control_c, 0, 64, 80
1, 782419, Control_c, 0, 64, 82
1, 782434, Control_c, 0, 64, 84
1, 782449, Control_c, 0, 64, 84
1, 782452, Note_on_c, 0, 54, 65
1, 782464, Control_c, 0, 67, 57
1, 782466, Note_off_c, 0, 64, 63
1, 782482, Note_off_c, 0, 78, 35
1, 782523, Control_c, 0, 64, 82
1, 782538, Control_c, 0, 64, 78
1, 782552, Control_c, 0, 64, 70
1, 782567, Control_c, 0, 64, 61
1, 782569, Note_on_c, 0, 65, 66
1, 782582, Control_c, 0, 64, 61
1, 782583, Note_on_c, 0, 66, 57
1, 782583, Note_off_c, 0, 54, 57
1, 782597, Control_c, 0, 64, 64
1, 782612, Control_c, 0, 64, 65
1, 782626, Control_c, 0, 64, 66
1, 782641, Control_c, 0, 64, 67
1, 782646, Note_off_c, 0, 73, 49
1, 782656, Control_c, 0, 64, 68
1, 782670, Control_c, 0, 64, 69
1, 782685, Control_c, 0, 64, 70
1, 782701, Control_c, 0, 64, 72
1, 782716, Control_c, 0, 64, 73
1, 782730, Note_off_c, 0, 65, 56
1, 782731, Note_on_c, 0, 54, 48
1, 782731, Control_c, 0, 64, 73
1, 782761, Control_c, 0, 64, 74
1, 782790, Control_c, 0, 64, 73
1, 782790, Control_c, 0, 67, 57
1, 782805, Control_c, 0, 64, 71
1, 782820, Control_c, 0, 64, 67
1, 782835, Control_c, 0, 64, 63
1, 782848, Note_off_c, 0, 54, 60
1, 782849, Control_c, 0, 64, 64
1, 782864, Note_on_c, 0, 64, 61
1, 782864, Control_c, 0, 64, 65
1, 782879, Control_c, 0, 64, 66
1, 782893, Control_c, 0, 64, 66
1, 782893, Control_c, 0, 67, 57
1, 782908, Control_c, 0, 64, 68
1, 782923, Control_c, 0, 64, 69
1, 782938, Control_c, 0, 64, 70
1, 782953, Control_c, 0, 64, 71
1, 782968, Control_c, 0, 64, 72
1, 782983, Note_on_c, 0, 54, 44
1, 783013, Control_c, 0, 64, 73
1, 783042, Control_c, 0, 67, 57
1, 783046, Note_off_c, 0, 64, 48
1, 783057, Control_c, 0, 64, 71
1, 783072, Control_c, 0, 64, 68
1, 783087, Control_c, 0, 64, 65
1, 783099, Note_off_c, 0, 54, 47
1, 783102, Control_c, 0, 64, 64
1, 783124, Control_c, 0, 64, 65
1, 783133, Note_on_c, 0, 63, 45
1, 783139, Control_c, 0, 64, 67
1, 783154, Control_c, 0, 64, 68
1, 783154, Control_c, 0, 67, 57
1, 783169, Control_c, 0, 64, 68
1, 783183, Control_c, 0, 64, 69
1, 783198, Control_c, 0, 64, 70
1, 783213, Control_c, 0, 64, 71
1, 783228, Control_c, 0, 64, 72
1, 783242, Control_c, 0, 64, 72
1, 783245, Note_on_c, 0, 54, 39
1, 783257, Note_off_c, 0, 63, 51
1, 783257, Control_c, 0, 64, 73
1, 783272, Control_c, 0, 64, 73
1, 783302, Control_c, 0, 64, 74
1, 783302, Control_c, 0, 67, 56
1, 783346, Control_c, 0, 64, 74
1, 783349, Note_off_c, 0, 54, 57
1, 783361, Control_c, 0, 64, 75
1, 783376, Control_c, 0, 64, 76
1, 783390, Note_on_c, 0, 62, 35
1, 783391, Control_c, 0, 64, 77
1, 783400, Note_on_c, 0, 71, 53
1, 783406, Control_c, 0, 64, 78
1, 783450, Control_c, 0, 64, 78
1, 783465, Control_c, 0, 64, 79
1, 783478, Note_off_c, 0, 66, 31
1, 783480, Control_c, 0, 64, 80
1, 783525, Control_c, 0, 67, 56
1, 783531, Note_off_c, 0, 62, 33
1, 783538, Note_on_c, 0, 54, 42
1, 783555, Control_c, 0, 64, 80
1, 783656, Note_off_c, 0, 54, 47
1, 783667, Note_on_c, 0, 70, 57
1, 783673, Control_c, 0, 64, 80
1, 783688, Control_c, 0, 64, 79
1, 783689, Note_on_c, 0, 61, 39
1, 783703, Control_c, 0, 64, 77
1, 783717, Control_c, 0, 64, 73
1, 783732, Control_c, 0, 64, 68
1, 783732, Control_c, 0, 67, 56
1, 783743, Note_off_c, 0, 71, 39
1, 783747, Control_c, 0, 64, 68
1, 783762, Control_c, 0, 64, 69
1, 783777, Control_c, 0, 64, 69
1, 783791, Control_c, 0, 64, 70
1, 783806, Control_c, 0, 64, 70
1, 783814, Note_on_c, 0, 54, 32
1, 783821, Control_c, 0, 64, 71
1, 783836, Control_c, 0, 64, 72
1, 783851, Control_c, 0, 64, 72
1, 783873, Control_c, 0, 64, 73
1, 783888, Control_c, 0, 64, 74
1, 783895, Note_off_c, 0, 61, 34
1, 783903, Control_c, 0, 64, 75
1, 783917, Note_off_c, 0, 54, 39
1, 783932, Control_c, 0, 64, 74
1, 783946, Note_on_c, 0, 71, 69
1, 783947, Control_c, 0, 64, 72
1, 783952, Note_off_c, 0, 70, 63
1, 783952, Note_on_c, 0, 62, 33
1, 783962, Control_c, 0, 64, 68
1, 783977, Control_c, 0, 64, 66
1, 783992, Control_c, 0, 64, 66
1, 784006, Control_c, 0, 64, 67
1, 784021, Control_c, 0, 64, 68
1, 784036, Control_c, 0, 64, 68
1, 784036, Control_c, 0, 67, 56
1, 784050, Control_c, 0, 64, 70
1, 784065, Control_c, 0, 64, 71
1, 784080, Note_on_c, 0, 54, 38
1, 784080, Note_off_c, 0, 62, 39
1, 784080, Control_c, 0, 64, 73
1, 784095, Control_c, 0, 64, 74
1, 784110, Control_c, 0, 64, 75
1, 784124, Control_c, 0, 64, 76
1, 784139, Control_c, 0, 64, 76
1, 784154, Control_c, 0, 64, 77
1, 784169, Control_c, 0, 64, 78
1, 784184, Control_c, 0, 64, 77
1, 784189, Note_off_c, 0, 54, 58
1, 784199, Control_c, 0, 64, 75
1, 784212, Note_on_c, 0, 73, 75
1, 784214, Control_c, 0, 64, 72
1, 784222, Note_on_c, 0, 58, 44
1, 784229, Control_c, 0, 64, 69
1, 784258, Note_off_c, 0, 71, 52
1, 784258, Control_c, 0, 64, 70
1, 784258, Control_c, 0, 67, 55
1, 784273, Control_c, 0, 64, 71
1, 784288, Control_c, 0, 64, 72
1, 784288, Control_c, 0, 67, 55
1, 784298, Note_off_c, 0, 58, 53
1, 784303, Control_c, 0, 64, 74
1, 784318, Note_on_c, 0, 54, 46
1, 784318, Control_c, 0, 64, 75
1, 784333, Control_c, 0, 64, 76
1, 784333, Control_c, 0, 67, 54
1, 784348, Control_c, 0, 64, 77
1, 784363, Control_c, 0, 64, 78
1, 784378, Control_c, 0, 64, 79
1, 784393, Control_c, 0, 64, 79
1, 784408, Control_c, 0, 64, 80
1, 784422, Control_c, 0, 64, 80
1, 784437, Control_c, 0, 64, 80
1, 784443, Note_off_c, 0, 54, 61
1, 784452, Control_c, 0, 64, 78
1, 784462, Note_on_c, 0, 74, 76
1, 784464, Note_on_c, 0, 59, 49
1, 784466, Control_c, 0, 64, 74
1, 784481, Control_c, 0, 64, 69
1, 784495, Control_c, 0, 64, 67
1, 784496, Note_off_c, 0, 73, 61
1, 784510, Control_c, 0, 64, 69
1, 784510, Control_c, 0, 67, 54
1, 784525, Control_c, 0, 64, 71
1, 784525, Control_c, 0, 67, 53
1, 784539, Control_c, 0, 64, 72
1, 784539, Control_c, 0, 67, 51
1, 784554, Control_c, 0, 64, 74
1, 784554, Control_c, 0, 67, 50
1, 784569, Control_c, 0, 64, 76
1, 784569, Control_c, 0, 67, 48
1, 784584, Control_c, 0, 64, 78
1, 784584, Control_c, 0, 67, 47
1, 784590, Note_on_c, 0, 54, 50
1, 784599, Control_c, 0, 64, 80
1, 784599, Control_c, 0, 67, 46
1, 784621, Control_c, 0, 64, 81
1, 784621, Control_c, 0, 67, 46
1, 784636, Control_c, 0, 67, 45
1, 784641, Note_off_c, 0, 59, 37
1, 784651, Control_c, 0, 67, 44
1, 784665, Control_c, 0, 64, 81
1, 784665, Control_c, 0, 67, 43
1, 784680, Control_c, 0, 64, 78
1, 784680, Control_c, 0, 67, 43
1, 784695, Control_c, 0, 64, 73
1, 784695, Control_c, 0, 67, 42
1, 784710, Control_c, 0, 64, 65
1, 784710, Control_c, 0, 67, 42
1, 784725, Control_c, 0, 64, 54
1, 784725, Control_c, 0, 67, 41
1, 784727, Note_off_c, 0, 54, 61
1, 784740, Control_c, 0, 64, 62
1, 784740, Control_c, 0, 67, 39
1, 784741, Note_on_c, 0, 66, 52
1, 784742, Note_on_c, 0, 76, 72
1, 784749, Note_off_c, 0, 74, 62
1, 784754, Note_on_c, 0, 73, 53
1, 784754, Control_c, 0, 64, 65
1, 784754, Control_c, 0, 67, 37
1, 784769, Control_c, 0, 64, 66
1, 784769, Control_c, 0, 67, 35
1, 784784, Control_c, 0, 64, 68
1, 784784, Control_c, 0, 67, 33
1, 784799, Control_c, 0, 64, 70
1, 784799, Control_c, 0, 67, 30
1, 784814, Control_c, 0, 64, 71
1, 784814, Control_c, 0, 67, 28
1, 784828, Control_c, 0, 64, 73
1, 784828, Control_c, 0, 67, 26
1, 784843, Control_c, 0, 64, 74
1, 784843, Control_c, 0, 67, 24
1, 784854, Note_on_c, 0, 54, 61
1, 784858, Control_c, 0, 64, 76
1, 784858, Control_c, 0, 67, 23
1, 784873, Control_c, 0, 64, 77
1, 784873, Control_c, 0, 67, 19
1, 784888, Note_off_c, 0, 66, 57
1, 784888, Control_c, 0, 64, 79
1, 784888, Control_c, 0, 67, 15
1, 784902, Control_c, 0, 64, 81
1, 784902, Control_c, 0, 67, 12
1, 784917, Control_c, 0, 64, 82
1, 784917, Control_c, 0, 67, 10
1, 784932, Control_c, 0, 64, 80
1, 784932, Control_c, 0, 67, 9
1, 784947, Control_c, 0, 64, 78
1, 784947, Control_c, 0, 67, 0
1, 784962, Control_c, 0, 64, 74
1, 784977, Control_c, 0, 64, 71
1, 784980, Note_off_c, 0, 54, 64
1, 784992, Control_c, 0, 64, 72
1, 785001, Note_on_c, 0, 67, 72
1, 785007, Control_c, 0, 64, 74
1, 785021, Control_c, 0, 64, 76
1, 785036, Control_c, 0, 64, 79
1, 785051, Control_c, 0, 64, 82
1, 785065, Control_c, 0, 64, 86
1, 785080, Control_c, 0, 64, 89
1, 785096, Control_c, 0, 64, 90
1, 785123, Note_on_c, 0, 55, 70
1, 785123, Note_off_c, 0, 67, 59
1, 785153, Poly_aftertouch_c, 0, 58, 0
1, 785156, Control_c, 0, 64, 91
1, 785244, Control_c, 0, 64, 90
1, 785259, Control_c, 0, 64, 84
1, 785270, Note_off_c, 0, 76, 63
1, 785274, Control_c, 0, 64, 68
1, 785281, Note_off_c, 0, 73, 60
1, 785283, Note_on_c, 0, 68, 46
1, 785283, Note_on_c, 0, 75, 64
1, 785288, Control_c, 0, 64, 0
1, 785296, Note_off_c, 0, 55, 50
1, 785300, Note_on_c, 0, 72, 50
1, 785400, Control_c, 0, 64, 60
1, 785415, Control_c, 0, 64, 65
1, 785421, Note_off_c, 0, 68, 53
1, 785430, Control_c, 0, 64, 68
1, 785436, Note_on_c, 0, 56, 62
1, 785439, Note_off_c, 0, 75, 63
1, 785444, Control_c, 0, 64, 72
1, 785459, Control_c, 0, 64, 77
1, 785474, Control_c, 0, 64, 83
1, 785488, Control_c, 0, 64, 89
1, 785503, Control_c, 0, 64, 93
1, 785518, Control_c, 0, 64, 94
1, 785533, Control_c, 0, 64, 95
1, 785592, Control_c, 0, 64, 94
1, 785607, Control_c, 0, 64, 92
1, 785622, Control_c, 0, 64, 87
1, 785632, Note_off_c, 0, 56, 38
1, 785633, Note_on_c, 0, 81, 75
1, 785637, Control_c, 0, 64, 80
1, 785638, Note_off_c, 0, 72, 61
1, 785649, Note_on_c, 0, 68, 47
1, 785651, Control_c, 0, 64, 71
1, 785666, Control_c, 0, 64, 51
1, 785681, Control_c, 0, 64, 27
1, 785695, Control_c, 0, 64, 48
1, 785710, Control_c, 0, 64, 56
1, 785725, Control_c, 0, 64, 59
1, 785740, Control_c, 0, 64, 62
1, 785755, Control_c, 0, 64, 63
1, 785770, Control_c, 0, 64, 65
1, 785785, Control_c, 0, 64, 67
1, 785800, Control_c, 0, 64, 68
1, 785814, Control_c, 0, 64, 70
1, 785814, Control_c, 0, 67, 8
1, 785827, Note_off_c, 0, 68, 51
1, 785829, Control_c, 0, 64, 70
1, 785829, Control_c, 0, 67, 10
1, 785844, Control_c, 0, 64, 71
1, 785844, Control_c, 0, 67, 12
1, 785857, Note_on_c, 0, 56, 42
1, 785859, Control_c, 0, 64, 72
1, 785859, Control_c, 0, 67, 13
1, 785874, Control_c, 0, 64, 73
1, 785874, Control_c, 0, 67, 13
1, 785889, Control_c, 0, 67, 14
1, 785904, Control_c, 0, 67, 16
1, 785919, Control_c, 0, 64, 74
1, 785919, Control_c, 0, 67, 18
1, 785934, Control_c, 0, 67, 20
1, 785949, Control_c, 0, 67, 23
1, 785964, Control_c, 0, 64, 72
1, 785964, Control_c, 0, 67, 26
1, 785979, Control_c, 0, 64, 70
1, 785979, Control_c, 0, 67, 28
1, 785993, Control_c, 0, 64, 67
1, 785993, Control_c, 0, 67, 30
1, 786008, Control_c, 0, 64, 66
1, 786008, Control_c, 0, 67, 32
1, 786022, Note_on_c, 0, 80, 60
1, 786023, Control_c, 0, 64, 67
1, 786023, Control_c, 0, 67, 34
1, 786033, Note_off_c, 0, 56, 47
1, 786038, Note_off_c, 0, 81, 53
1, 786038, Control_c, 0, 64, 68
1, 786038, Control_c, 0, 67, 36
1, 786053, Control_c, 0, 64, 69
1, 786053, Control_c, 0, 67, 37
1, 786058, Note_on_c, 0, 68, 33
1, 786068, Control_c, 0, 64, 69
1, 786068, Control_c, 0, 67, 38
1, 786083, Control_c, 0, 64, 70
1, 786098, Control_c, 0, 64, 71
1, 786098, Control_c, 0, 67, 39
1, 786120, Control_c, 0, 64, 72
1, 786120, Control_c, 0, 67, 39
1, 786135, Control_c, 0, 67, 40
1, 786150, Control_c, 0, 64, 73
1, 786150, Control_c, 0, 67, 40
1, 786154, Note_off_c, 0, 68, 49
1, 786165, Control_c, 0, 64, 74
1, 786179, Note_on_c, 0, 56, 28
1, 786180, Control_c, 0, 64, 76
1, 786194, Control_c, 0, 64, 76
1, 786209, Control_c, 0, 64, 77
1, 786224, Control_c, 0, 64, 78
1, 786239, Control_c, 0, 64, 79
1, 786239, Control_c, 0, 67, 40
1, 786254, Control_c, 0, 64, 80
1, 786268, Control_c, 0, 64, 82
1, 786268, Control_c, 0, 67, 39
1, 786283, Control_c, 0, 64, 84
1, 786295, Note_off_c, 0, 56, 54
1, 786298, Control_c, 0, 64, 85
1, 786298, Control_c, 0, 67, 39
1, 786312, Control_c, 0, 64, 85
1, 786312, Control_c, 0, 67, 38
1, 786327, Note_on_c, 0, 68, 42
1, 786327, Control_c, 0, 64, 86
1, 786327, Control_c, 0, 67, 38
1, 786342, Control_c, 0, 64, 86
1, 786357, Control_c, 0, 64, 87
1, 786372, Control_c, 0, 64, 87
1, 786372, Control_c, 0, 67, 37
1, 786387, Control_c, 0, 67, 37
1, 786438, Note_on_c, 0, 56, 37
1, 786461, Control_c, 0, 67, 36
1, 786476, Control_c, 0, 67, 36
1, 786506, Control_c, 0, 64, 87
1, 786520, Control_c, 0, 64, 86
1, 786535, Control_c, 0, 64, 85
1, 786550, Control_c, 0, 64, 84
1, 786564, Note_on_c, 0, 73, 62
1, 786565, Control_c, 0, 64, 80
1, 786570, Note_off_c, 0, 68, 30
1, 786580, Control_c, 0, 64, 76
1, 786587, Note_off_c, 0, 56, 44
1, 786593, Note_on_c, 0, 64, 43
1, 786594, Control_c, 0, 64, 74
1, 786609, Control_c, 0, 64, 73
1, 786638, Control_c, 0, 64, 73
1, 786638, Control_c, 0, 67, 35
1, 786668, Control_c, 0, 64, 73
1, 786668, Control_c, 0, 67, 34
1, 786683, Control_c, 0, 64, 74
1, 786683, Control_c, 0, 67, 34
1, 786699, Control_c, 0, 64, 75
1, 786703, Note_on_c, 0, 56, 45
1, 786714, Control_c, 0, 64, 76
1, 786714, Control_c, 0, 67, 33
1, 786729, Control_c, 0, 64, 76
1, 786743, Control_c, 0, 64, 78
1, 786743, Control_c, 0, 67, 33
1, 786758, Control_c, 0, 64, 79
1, 786758, Control_c, 0, 67, 32
1, 786803, Control_c, 0, 64, 77
1, 786803, Control_c, 0, 67, 32
1, 786810, Note_off_c, 0, 80, 30
1, 786817, Control_c, 0, 64, 74
1, 786829, Note_on_c, 0, 66, 63
1, 786832, Note_on_c, 0, 75, 63
1, 786832, Control_c, 0, 64, 72
1, 786847, Control_c, 0, 67, 31
1, 786848, Note_off_c, 0, 56, 61
1, 786869, Control_c, 0, 64, 73
1, 786884, Control_c, 0, 64, 74
1, 786884, Control_c, 0, 67, 30
1, 786899, Control_c, 0, 64, 75
1, 786899, Control_c, 0, 67, 30
1, 786914, Control_c, 0, 64, 77
1, 786920, Note_off_c, 0, 73, 37
1, 786929, Control_c, 0, 64, 80
1, 786943, Control_c, 0, 64, 83
1, 786943, Control_c, 0, 67, 29
1, 786958, Control_c, 0, 64, 86
1, 786958, Control_c, 0, 67, 29
1, 786971, Note_on_c, 0, 56, 62
1, 786973, Control_c, 0, 64, 86
1, 786979, Note_off_c, 0, 66, 59
1, 786988, Control_c, 0, 64, 87
1, 787017, Control_c, 0, 64, 86
1, 787047, Control_c, 0, 64, 85
1, 787061, Control_c, 0, 64, 83
1, 787076, Control_c, 0, 64, 78
1, 787076, Control_c, 0, 67, 29
1, 787091, Note_off_c, 0, 56, 61
1, 787091, Control_c, 0, 64, 68
1, 787099, Note_on_c, 0, 67, 65
1, 787106, Control_c, 0, 64, 60
1, 787117, Note_on_c, 0, 68, 57
1, 787121, Control_c, 0, 64, 62
1, 787135, Control_c, 0, 64, 64
1, 787150, Control_c, 0, 64, 65
1, 787150, Control_c, 0, 67, 29
1, 787165, Control_c, 0, 64, 66
1, 787171, Note_off_c, 0, 75, 37
1, 787180, Control_c, 0, 64, 67
1, 787195, Control_c, 0, 64, 69
1, 787210, Control_c, 0, 64, 71
1, 787221, Note_off_c, 0, 67, 60
1, 787225, Control_c, 0, 64, 72
1, 787240, Control_c, 0, 64, 73
1, 787245, Note_on_c, 0, 56, 49
1, 787254, Control_c, 0, 64, 73
1, 787269, Control_c, 0, 64, 74
1, 787284, Control_c, 0, 64, 75
1, 787299, Control_c, 0, 64, 76
1, 787314, Control_c, 0, 64, 76
1, 787329, Control_c, 0, 64, 75
1, 787329, Control_c, 0, 67, 29
1, 787343, Control_c, 0, 64, 73
1, 787353, Note_off_c, 0, 56, 60
1, 787358, Control_c, 0, 64, 69
1, 787372, Note_on_c, 0, 66, 51
1, 787373, Control_c, 0, 64, 64
1, 787388, Control_c, 0, 64, 63
1, 787403, Control_c, 0, 64, 64
1, 787417, Note_off_c, 0, 64, 4
1, 787417, Control_c, 0, 64, 66
1, 787432, Control_c, 0, 64, 67
1, 787447, Control_c, 0, 64, 69
1, 787461, Control_c, 0, 64, 71
1, 787476, Control_c, 0, 64, 72
1, 787492, Control_c, 0, 64, 73
1, 787507, Control_c, 0, 64, 74
1, 787517, Note_on_c, 0, 56, 43
1, 787522, Control_c, 0, 64, 75
1, 787532, Note_off_c, 0, 66, 53
1, 787537, Control_c, 0, 64, 75
1, 787552, Control_c, 0, 64, 76
1, 787581, Control_c, 0, 64, 75
1, 787596, Control_c, 0, 64, 73
1, 787618, Control_c, 0, 64, 69
1, 787630, Note_off_c, 0, 56, 60
1, 787633, Control_c, 0, 64, 68
1, 787648, Control_c, 0, 64, 69
1, 787658, Note_on_c, 0, 65, 44
1, 787663, Control_c, 0, 64, 70
1, 787678, Control_c, 0, 64, 71
1, 787678, Control_c, 0, 67, 29
1, 787692, Control_c, 0, 64, 72
1, 787707, Control_c, 0, 64, 74
1, 787722, Control_c, 0, 64, 75
1, 787737, Control_c, 0, 64, 76
1, 787752, Control_c, 0, 64, 77
1, 787765, Note_off_c, 0, 65, 62
1, 787766, Control_c, 0, 64, 77
1, 787779, Note_on_c, 0, 56, 44
1, 787781, Control_c, 0, 64, 78
1, 787796, Control_c, 0, 64, 79
1, 787811, Control_c, 0, 64, 80
1, 787826, Control_c, 0, 64, 81
1, 787840, Control_c, 0, 64, 81
1, 787896, Note_off_c, 0, 56, 58
1, 787899, Control_c, 0, 64, 80
1, 787914, Control_c, 0, 64, 77
1, 787920, Note_on_c, 0, 73, 56
1, 787925, Note_off_c, 0, 68, 51
1, 787929, Control_c, 0, 64, 73
1, 787943, Note_on_c, 0, 64, 39
1, 787944, Control_c, 0, 64, 70
1, 787959, Control_c, 0, 64, 71
1, 787973, Control_c, 0, 64, 72
1, 787988, Control_c, 0, 64, 72
1, 788003, Control_c, 0, 64, 73
1, 788018, Control_c, 0, 64, 75
1, 788018, Control_c, 0, 67, 28
1, 788032, Control_c, 0, 64, 77
1, 788047, Control_c, 0, 64, 79
1, 788050, Note_on_c, 0, 56, 34
1, 788062, Control_c, 0, 64, 80
1, 788077, Control_c, 0, 67, 28
1, 788106, Note_off_c, 0, 64, 35
1, 788137, Control_c, 0, 64, 80
1, 788152, Control_c, 0, 64, 78
1, 788152, Control_c, 0, 67, 28
1, 788166, Control_c, 0, 64, 76
1, 788181, Control_c, 0, 64, 70
1, 788189, Note_off_c, 0, 56, 52
1, 788190, Note_on_c, 0, 72, 49
1, 788194, Note_off_c, 0, 73, 57
1, 788196, Control_c, 0, 64, 64
1, 788210, Control_c, 0, 64, 61
1, 788214, Note_on_c, 0, 63, 38
1, 788225, Control_c, 0, 64, 63
1, 788239, Control_c, 0, 64, 64
1, 788254, Control_c, 0, 64, 65
1, 788254, Control_c, 0, 67, 28
1, 788269, Control_c, 0, 64, 66
1, 788285, Control_c, 0, 64, 67
1, 788300, Control_c, 0, 64, 68
1, 788314, Control_c, 0, 64, 69
1, 788329, Control_c, 0, 64, 70
1, 788329, Control_c, 0, 67, 27
1, 788332, Note_on_c, 0, 56, 39
1, 788344, Control_c, 0, 64, 71
1, 788366, Control_c, 0, 64, 71
1, 788366, Control_c, 0, 67, 27
1, 788381, Control_c, 0, 64, 72
1, 788396, Control_c, 0, 64, 73
1, 788396, Control_c, 0, 67, 26
1, 788411, Control_c, 0, 64, 74
1, 788426, Control_c, 0, 64, 74
1, 788441, Control_c, 0, 64, 75
1, 788442, Note_off_c, 0, 56, 56
1, 788453, Note_off_c, 0, 63, 25
1, 788456, Control_c, 0, 64, 75
1, 788456, Control_c, 0, 67, 26
1, 788462, Note_on_c, 0, 73, 58
1, 788470, Control_c, 0, 64, 76
1, 788470, Control_c, 0, 67, 24
1, 788473, Note_off_c, 0, 72, 51
1, 788485, Control_c, 0, 64, 77
1, 788485, Control_c, 0, 67, 21
1, 788490, Note_on_c, 0, 64, 39
1, 788500, Control_c, 0, 64, 78
1, 788500, Control_c, 0, 67, 19
1, 788514, Control_c, 0, 64, 78
1, 788514, Control_c, 0, 67, 17
1, 788529, Control_c, 0, 64, 79
1, 788529, Control_c, 0, 67, 16
1, 788544, Control_c, 0, 64, 79
1, 788544, Control_c, 0, 67, 15
1, 788559, Control_c, 0, 64, 80
1, 788559, Control_c, 0, 67, 14
1, 788574, Control_c, 0, 64, 81
1, 788574, Control_c, 0, 67, 13
1, 788581, Note_on_c, 0, 56, 40
1, 788588, Control_c, 0, 67, 13
1, 788603, Control_c, 0, 64, 81
1, 788603, Control_c, 0, 67, 12
1, 788618, Control_c, 0, 64, 82
1, 788618, Control_c, 0, 67, 12
1, 788623, Note_off_c, 0, 64, 35
1, 788633, Control_c, 0, 64, 82
1, 788633, Control_c, 0, 67, 11
1, 788647, Control_c, 0, 64, 83
1, 788647, Control_c, 0, 67, 11
1, 788662, Control_c, 0, 64, 84
1, 788662, Control_c, 0, 67, 10
1, 788677, Control_c, 0, 64, 84
1, 788677, Control_c, 0, 67, 10
1, 788683, Note_off_c, 0, 56, 59
1, 788692, Control_c, 0, 67, 9
1, 788707, Control_c, 0, 67, 9
1, 788718, Note_on_c, 0, 75, 57
1, 788721, Control_c, 0, 64, 85
1, 788721, Control_c, 0, 67, 8
1, 788725, Note_on_c, 0, 60, 41
1, 788735, Note_off_c, 0, 73, 56
1, 788736, Control_c, 0, 64, 86
1, 788736, Control_c, 0, 67, 0
1, 788751, Control_c, 0, 64, 87
1, 788766, Control_c, 0, 64, 87
1, 788781, Control_c, 0, 64, 88
1, 788796, Control_c, 0, 64, 89
1, 788808, Note_off_c, 0, 60, 54
1, 788810, Control_c, 0, 64, 90
1, 788825, Control_c, 0, 64, 92
1, 788830, Note_on_c, 0, 56, 38
1, 788840, Control_c, 0, 64, 93
1, 788855, Control_c, 0, 64, 93
1, 788870, Control_c, 0, 64, 94
1, 788885, Control_c, 0, 64, 95
1, 788900, Control_c, 0, 64, 97
1, 788914, Control_c, 0, 64, 98
1, 788929, Control_c, 0, 64, 99
1, 788940, Note_off_c, 0, 56, 60
1, 788944, Control_c, 0, 64, 100
1, 788959, Control_c, 0, 64, 100
1, 788973, Note_on_c, 0, 76, 63
1, 788974, Control_c, 0, 64, 101
1, 788977, Note_on_c, 0, 61, 47
1, 788983, Note_off_c, 0, 75, 55
1, 788988, Control_c, 0, 64, 102
1, 789003, Control_c, 0, 64, 103
1, 789032, Control_c, 0, 64, 103
1, 789085, Note_on_c, 0, 56, 49
1, 789123, Note_off_c, 0, 61, 35
1, 789126, Note_off_c, 0, 76, 60
1, 789189, Control_c, 0, 64, 103
1, 789204, Control_c, 0, 64, 97
1, 789219, Control_c, 0, 64, 89
1, 789225, Note_off_c, 0, 56, 57
1, 789231, Note_on_c, 0, 78, 63
1, 789234, Control_c, 0, 64, 79
1, 789243, Note_on_c, 0, 68, 46
1, 789249, Control_c, 0, 64, 72
1, 789249, Note_on_c, 0, 75, 43
1, 789263, Control_c, 0, 64, 71
1, 789278, Control_c, 0, 64, 73
1, 789293, Control_c, 0, 64, 73
1, 789308, Control_c, 0, 64, 74
1, 789323, Control_c, 0, 64, 75
1, 789337, Control_c, 0, 64, 76
1, 789345, Note_on_c, 0, 56, 58
1, 789352, Control_c, 0, 64, 78
1, 789367, Control_c, 0, 64, 80
1, 789382, Control_c, 0, 64, 81
1, 789383, Note_off_c, 0, 68, 53
1, 789397, Control_c, 0, 64, 83
1, 789411, Control_c, 0, 64, 84
1, 789426, Control_c, 0, 64, 86
1, 789441, Control_c, 0, 64, 87
1, 789464, Note_off_c, 0, 56, 60
1, 789470, Control_c, 0, 64, 85
1, 789481, Note_on_c, 0, 69, 61
1, 789485, Control_c, 0, 64, 82
1, 789500, Control_c, 0, 64, 78
1, 789515, Control_c, 0, 64, 77
1, 789559, Control_c, 0, 64, 77
1, 789574, Control_c, 0, 64, 79
1, 789589, Control_c, 0, 64, 81
1, 789594, Note_off_c, 0, 69, 63
1, 789599, Note_on_c, 0, 57, 61
1, 789604, Control_c, 0, 64, 83
1, 789618, Control_c, 0, 64, 85
1, 789648, Control_c, 0, 64, 82
1, 789663, Control_c, 0, 64, 76
1, 789678, Control_c, 0, 64, 67
1, 789693, Control_c, 0, 64, 61
1, 789708, Control_c, 0, 64, 64
1, 789717, Note_on_c, 0, 70, 70
1, 789723, Control_c, 0, 64, 66
1, 789738, Control_c, 0, 64, 68
1, 789752, Control_c, 0, 64, 72
1, 789767, Control_c, 0, 64, 75
1, 789782, Control_c, 0, 64, 78
1, 789792, Note_off_c, 0, 57, 37
1, 789797, Control_c, 0, 64, 81
1, 789812, Control_c, 0, 64, 83
1, 789820, Note_on_c, 0, 58, 67
1, 789827, Control_c, 0, 64, 85
1, 789842, Control_c, 0, 64, 86
1, 789877, Note_off_c, 0, 70, 62
1, 789894, Control_c, 0, 64, 85
1, 789909, Control_c, 0, 64, 81
1, 789924, Control_c, 0, 64, 77
1, 789928, Note_off_c, 0, 78, 60
1, 789939, Control_c, 0, 64, 74
1, 789954, Control_c, 0, 64, 74
1, 789968, Control_c, 0, 64, 76
1, 789974, Note_on_c, 0, 77, 86
1, 789983, Control_c, 0, 64, 78
1, 789984, Note_on_c, 0, 71, 70
1, 789987, Note_on_c, 0, 74, 69
1, 789998, Control_c, 0, 64, 81
1, 790000, Note_off_c, 0, 75, 57
1, 790013, Control_c, 0, 64, 85
1, 790028, Control_c, 0, 64, 88
1, 790042, Control_c, 0, 64, 91
1, 790057, Control_c, 0, 64, 92
1, 790072, Control_c, 0, 64, 94
1, 790086, Control_c, 0, 64, 97
1, 790090, Note_on_c, 0, 59, 75
1, 790092, Note_off_c, 0, 58, 0
1, 790099, Note_off_c, 0, 71, 59
1, 790101, Control_c, 0, 64, 99
1, 790116, Control_c, 0, 64, 101
1, 790130, Poly_aftertouch_c, 0, 58, 127
1, 790131, Control_c, 0, 64, 101
1, 790153, Note_off_c, 0, 77, 54
1, 790174, Poly_aftertouch_c, 0, 58, 0
1, 790190, Note_off_c, 0, 59, 60
1, 790191, Control_c, 0, 64, 98
1, 790206, Control_c, 0, 64, 89
1, 790220, Control_c, 0, 64, 75
1, 790230, Note_on_c, 0, 72, 71
1, 790232, Note_on_c, 0, 80, 96
1, 790235, Control_c, 0, 64, 63
1, 790250, Control_c, 0, 64, 65
1, 790253, Note_on_c, 0, 77, 65
1, 790261, Note_off_c, 0, 74, 63
1, 790265, Control_c, 0, 64, 68
1, 790279, Control_c, 0, 64, 71
1, 790294, Control_c, 0, 64, 74
1, 790309, Control_c, 0, 64, 77
1, 790324, Control_c, 0, 64, 81
1, 790334, Note_on_c, 0, 60, 72
1, 790337, Note_off_c, 0, 72, 65
1, 790339, Control_c, 0, 64, 84
1, 790353, Control_c, 0, 64, 87
1, 790368, Control_c, 0, 64, 90
1, 790383, Control_c, 0, 64, 92
1, 790398, Control_c, 0, 64, 93
1, 790412, Control_c, 0, 64, 93
1, 790442, Control_c, 0, 64, 91
1, 790457, Control_c, 0, 64, 87
1, 790463, Note_on_c, 0, 73, 88
1, 790472, Control_c, 0, 64, 81
1, 790485, Note_off_c, 0, 60, 60
1, 790486, Control_c, 0, 64, 77
1, 790501, Control_c, 0, 64, 78
1, 790516, Control_c, 0, 64, 80
1, 790531, Control_c, 0, 64, 82
1, 790546, Control_c, 0, 64, 85
1, 790560, Control_c, 0, 64, 89
1, 790574, Note_on_c, 0, 61, 76
1, 790575, Control_c, 0, 64, 92
1, 790590, Control_c, 0, 64, 96
1, 790592, Note_off_c, 0, 73, 62
1, 790612, Control_c, 0, 64, 98
1, 790614, Note_off_c, 0, 77, 57
1, 790627, Control_c, 0, 64, 100
1, 790642, Control_c, 0, 64, 100
1, 790672, Control_c, 0, 64, 98
1, 790679, Note_off_c, 0, 80, 59
1, 790688, Control_c, 0, 64, 92
1, 790699, Note_off_c, 0, 61, 56
1, 790701, Note_on_c, 0, 74, 87
1, 790703, Control_c, 0, 64, 83
1, 790717, Control_c, 0, 64, 77
1, 790732, Control_c, 0, 64, 79
1, 790747, Control_c, 0, 64, 83
1, 790762, Control_c, 0, 64, 87
1, 790777, Control_c, 0, 64, 92
1, 790791, Control_c, 0, 64, 97
1, 790806, Control_c, 0, 64, 103
1, 790815, Note_on_c, 0, 62, 74
1, 790821, Control_c, 0, 64, 107
1, 790835, Control_c, 0, 64, 109
1, 790837, Note_off_c, 0, 74, 65
1, 790850, Control_c, 0, 64, 110
1, 790865, Control_c, 0, 64, 110
1, 790880, Control_c, 0, 64, 113
1, 790895, Control_c, 0, 64, 113
1, 790909, Control_c, 0, 64, 112
1, 790924, Note_off_c, 0, 62, 57
1, 790924, Control_c, 0, 64, 103
1, 790939, Control_c, 0, 64, 90
1, 790954, Control_c, 0, 64, 79
1, 790957, Note_on_c, 0, 83, 97
1, 790966, Note_on_c, 0, 73, 76
1, 790969, Control_c, 0, 64, 75
1, 790973, Note_on_c, 0, 80, 73
1, 790984, Control_c, 0, 64, 79
1, 790998, Control_c, 0, 64, 85
1, 791013, Control_c, 0, 64, 90
1, 791028, Control_c, 0, 64, 96
1, 791043, Control_c, 0, 64, 102
1, 791058, Control_c, 0, 64, 109
1, 791060, Note_on_c, 0, 61, 76
1, 791063, Poly_aftertouch_c, 0, 62, 127
1, 791064, Note_off_c, 0, 73, 64
1, 791073, Control_c, 0, 64, 116
1, 791088, Control_c, 0, 64, 119
1, 791103, Note_on_c, 0, 65, 69
1, 791132, Control_c, 0, 64, 118
1, 791153, Note_on_c, 0, 68, 71
1, 791158, Note_off_c, 0, 83, 60
1, 791162, Control_c, 0, 64, 114
1, 791176, Control_c, 0, 64, 106
1, 791191, Control_c, 0, 64, 94
1, 791206, Control_c, 0, 64, 80
1, 791219, Poly_aftertouch_c, 0, 62, 0
1, 791221, Control_c, 0, 64, 66
1, 791234, Note_on_c, 0, 71, 70
1, 791235, Control_c, 0, 64, 0
1, 791255, Note_on_c, 0, 86, 91
1, 791258, Note_off_c, 0, 80, 59
1, 791265, Control_c, 0, 64, 32
1, 791280, Control_c, 0, 64, 62
1, 791295, Control_c, 0, 64, 66
1, 791299, Note_off_c, 0, 71, 66
1, 791309, Control_c, 0, 64, 70
1, 791315, Note_off_c, 0, 65, 55
1, 791324, Control_c, 0, 64, 73
1, 791325, Note_off_c, 0, 68, 60
1, 791339, Control_c, 0, 64, 78
1, 791356, Note_off_c, 0, 61, 62
1, 791362, Control_c, 0, 64, 83
1, 791377, Control_c, 0, 64, 90
1, 791385, Note_on_c, 0, 83, 94
1, 791391, Control_c, 0, 64, 98
1, 791406, Control_c, 0, 64, 105
1, 791419, Note_off_c, 0, 86, 63
1, 791421, Control_c, 0, 64, 112
1, 791435, Control_c, 0, 64, 124
1, 791450, Control_c, 0, 64, 127
1, 791502, Note_on_c, 0, 80, 95
1, 791531, Note_off_c, 0, 83, 64
1, 791567, Note_on_c, 0, 49, 79
1, 791609, Note_on_c, 0, 77, 92
1, 791612, Note_off_c, 0, 80, 64
1, 791624, Note_on_c, 0, 53, 76
1, 791644, Control_c, 0, 64, 112
1, 791656, Note_on_c, 0, 56, 78
1, 791658, Control_c, 0, 64, 91
1, 791666, Note_off_c, 0, 77, 64
1, 791673, Control_c, 0, 64, 70
1, 791688, Control_c, 0, 64, 0
1, 791706, Poly_aftertouch_c, 0, 50, 127
1, 791717, Note_on_c, 0, 59, 87
1, 791726, Note_on_c, 0, 74, 100
1, 791747, Control_c, 0, 64, 55
1, 791759, Note_off_c, 0, 59, 64
1, 791762, Control_c, 0, 64, 71
1, 791768, Poly_aftertouch_c, 0, 50, 0
1, 791772, Note_off_c, 0, 56, 65
1, 791776, Note_off_c, 0, 53, 65
1, 791777, Control_c, 0, 64, 81
1, 791782, Note_off_c, 0, 49, 62
1, 791792, Control_c, 0, 64, 93
1, 791806, Control_c, 0, 64, 100
1, 791821, Control_c, 0, 64, 101
1, 791840, Note_on_c, 0, 71, 91
1, 791851, Control_c, 0, 64, 97
1, 791866, Control_c, 0, 64, 83
1, 791870, Note_off_c, 0, 74, 60
1, 791881, Control_c, 0, 64, 62
1, 791896, Control_c, 0, 64, 0
1, 791960, Note_on_c, 0, 68, 87
1, 791973, Note_off_c, 0, 71, 62
1, 792013, Note_on_c, 0, 37, 67
1, 792062, Note_on_c, 0, 41, 68
1, 792063, Note_off_c, 0, 68, 63
1, 792069, Note_on_c, 0, 65, 85
1, 792111, Note_on_c, 0, 44, 74
1, 792152, Note_off_c, 0, 65, 64
1, 792168, Control_c, 0, 64, 55
1, 792170, Note_on_c, 0, 47, 83
1, 792172, Note_off_c, 0, 37, 64
1, 792181, Note_off_c, 0, 41, 63
1, 792182, Control_c, 0, 64, 72
1, 792191, Note_on_c, 0, 62, 85
1, 792194, Note_off_c, 0, 44, 64
1, 792197, Control_c, 0, 64, 82
1, 792212, Control_c, 0, 64, 93
1, 792213, Note_off_c, 0, 47, 66
1, 792227, Control_c, 0, 64, 99
1, 792242, Control_c, 0, 64, 99
1, 792268, Note_off_c, 0, 62, 61
1, 792304, Note_on_c, 0, 61, 78
1, 792317, Control_c, 0, 64, 98
1, 792326, Note_off_c, 0, 61, 69
1, 792332, Control_c, 0, 64, 96
1, 792347, Control_c, 0, 64, 92
1, 792361, Control_c, 0, 64, 87
1, 792376, Control_c, 0, 64, 76
1, 792391, Control_c, 0, 64, 58
1, 792406, Control_c, 0, 64, 0
1, 792442, Note_on_c, 0, 50, 53
1, 792456, Note_on_c, 0, 74, 69
1, 792525, Control_c, 0, 64, 26
1, 792540, Control_c, 0, 64, 64
1, 792554, Control_c, 0, 64, 72
1, 792555, Note_off_c, 0, 74, 63
1, 792557, Note_off_c, 0, 50, 63
1, 792560, Note_on_c, 0, 49, 65
1, 792568, Note_on_c, 0, 73, 76
1, 792569, Control_c, 0, 64, 77
1, 792584, Control_c, 0, 64, 82
1, 792588, Note_off_c, 0, 49, 66
1, 792590, Note_off_c, 0, 73, 69
1, 792599, Control_c, 0, 64, 87
1, 792614, Control_c, 0, 64, 93
1, 792628, Control_c, 0, 64, 98
1, 792643, Control_c, 0, 64, 99
1, 792672, Control_c, 0, 64, 97
1, 792687, Control_c, 0, 64, 88
1, 792702, Note_on_c, 0, 74, 92
1, 792702, Control_c, 0, 64, 70
1, 792717, Control_c, 0, 64, 0
1, 792727, Note_on_c, 0, 50, 65
1, 792777, Control_c, 0, 64, 59
1, 792792, Control_c, 0, 64, 68
1, 792806, Control_c, 0, 64, 74
1, 792817, Note_on_c, 0, 73, 91
1, 792821, Control_c, 0, 64, 81
1, 792824, Note_off_c, 0, 74, 66
1, 792831, Note_on_c, 0, 49, 72
1, 792835, Note_off_c, 0, 50, 65
1, 792836, Control_c, 0, 64, 90
1, 792847, Note_off_c, 0, 73, 65
1, 792859, Control_c, 0, 64, 97
1, 792873, Control_c, 0, 64, 101
1, 792876, Note_off_c, 0, 49, 62
1, 792888, Control_c, 0, 64, 103
1, 792903, Control_c, 0, 64, 103
1, 792992, Control_c, 0, 64, 101
1, 793006, Control_c, 0, 64, 96
1, 793016, Note_on_c, 0, 74, 88
1, 793021, Control_c, 0, 64, 89
1, 793036, Control_c, 0, 64, 80
1, 793051, Control_c, 0, 64, 68
1, 793055, Note_on_c, 0, 50, 45
1, 793066, Control_c, 0, 64, 0
1, 793185, Control_c, 0, 64, 47
1, 793200, Control_c, 0, 64, 62
1, 793207, Note_on_c, 0, 49, 60
1, 793215, Control_c, 0, 64, 65
1, 793217, Note_off_c, 0, 50, 62
1, 793229, Control_c, 0, 64, 67
1, 793244, Control_c, 0, 64, 69
1, 793254, Note_off_c, 0, 49, 58
1, 793259, Control_c, 0, 64, 71
1, 793274, Control_c, 0, 64, 74
1, 793289, Control_c, 0, 64, 76
1, 793303, Control_c, 0, 64, 77
1, 793318, Control_c, 0, 64, 78
1, 793333, Control_c, 0, 64, 79
1, 793348, Control_c, 0, 64, 81
1, 793363, Control_c, 0, 64, 82
1, 793377, Control_c, 0, 64, 83
1, 793452, Control_c, 0, 64, 82
1, 793454, Note_on_c, 0, 53, 46
1, 793467, Control_c, 0, 64, 79
1, 793482, Control_c, 0, 64, 75
1, 793496, Control_c, 0, 64, 67
1, 793511, Control_c, 0, 64, 46
1, 793526, Control_c, 0, 64, 0
1, 793637, Control_c, 0, 64, 17
1, 793651, Control_c, 0, 64, 41
1, 793666, Control_c, 0, 64, 52
1, 793681, Control_c, 0, 64, 58
1, 793696, Control_c, 0, 64, 61
1, 793711, Control_c, 0, 64, 63
1, 793726, Control_c, 0, 64, 64
1, 793728, Note_on_c, 0, 49, 45
1, 793741, Control_c, 0, 64, 66
1, 793756, Control_c, 0, 64, 68
1, 793771, Control_c, 0, 64, 69
1, 793785, Control_c, 0, 64, 70
1, 793800, Control_c, 0, 64, 71
1, 793815, Control_c, 0, 64, 72
1, 793829, Control_c, 0, 64, 74
1, 793844, Control_c, 0, 64, 75
1, 793859, Control_c, 0, 64, 77
1, 793875, Control_c, 0, 64, 78
1, 793890, Control_c, 0, 64, 79
1, 793905, Control_c, 0, 64, 81
1, 793920, Control_c, 0, 64, 83
1, 793934, Control_c, 0, 64, 84
1, 793941, Note_off_c, 0, 74, 61
1, 793949, Control_c, 0, 64, 84
1, 793951, Note_on_c, 0, 73, 64
1, 793964, Control_c, 0, 64, 85
1, 793964, Note_off_c, 0, 49, 37
1, 793975, Note_on_c, 0, 56, 43
1, 793979, Control_c, 0, 64, 86
1, 793994, Control_c, 0, 64, 88
1, 794003, Note_off_c, 0, 53, 34
1, 794008, Control_c, 0, 64, 89
1, 794023, Control_c, 0, 64, 90
1, 794038, Control_c, 0, 64, 90
1, 794052, Control_c, 0, 64, 91
1, 794067, Control_c, 0, 64, 93
1, 794082, Control_c, 0, 64, 95
1, 794097, Control_c, 0, 64, 97
1, 794112, Control_c, 0, 64, 98
1, 794115, Note_off_c, 0, 56, 59
1, 794119, Note_on_c, 0, 49, 59
1, 794126, Control_c, 0, 64, 99
1, 794141, Control_c, 0, 64, 99
1, 794156, Control_c, 0, 64, 100
1, 794171, Control_c, 0, 64, 101
1, 794186, Control_c, 0, 64, 102
1, 794215, Control_c, 0, 64, 101
1, 794230, Control_c, 0, 64, 90
1, 794245, Note_on_c, 0, 66, 73
1, 794245, Control_c, 0, 64, 73
1, 794260, Control_c, 0, 64, 53
1, 794263, Note_on_c, 0, 57, 48
1, 794274, Control_c, 0, 64, 45
1, 794277, Note_off_c, 0, 49, 59
1, 794289, Control_c, 0, 64, 61
1, 794304, Control_c, 0, 64, 65
1, 794319, Control_c, 0, 64, 70
1, 794334, Control_c, 0, 64, 74
1, 794356, Control_c, 0, 64, 77
1, 794371, Control_c, 0, 64, 79
1, 794386, Control_c, 0, 64, 82
1, 794401, Control_c, 0, 64, 85
1, 794403, Note_on_c, 0, 49, 58
1, 794415, Control_c, 0, 64, 86
1, 794417, Note_off_c, 0, 57, 60
1, 794459, Control_c, 0, 64, 85
1, 794474, Control_c, 0, 64, 82
1, 794489, Control_c, 0, 64, 76
1, 794504, Control_c, 0, 64, 66
1, 794519, Control_c, 0, 64, 0
1, 794525, Note_on_c, 0, 68, 69
1, 794534, Control_c, 0, 64, 28
1, 794534, Note_on_c, 0, 59, 58
1, 794539, Note_off_c, 0, 49, 57
1, 794549, Control_c, 0, 64, 54
1, 794555, Note_off_c, 0, 66, 57
1, 794564, Control_c, 0, 64, 62
1, 794578, Control_c, 0, 64, 65
1, 794584, Note_off_c, 0, 73, 30
1, 794593, Control_c, 0, 64, 69
1, 794608, Control_c, 0, 64, 73
1, 794623, Control_c, 0, 64, 75
1, 794638, Control_c, 0, 64, 76
1, 794652, Control_c, 0, 64, 77
1, 794683, Control_c, 0, 64, 77
1, 794688, Note_on_c, 0, 49, 52
1, 794698, Control_c, 0, 64, 78
1, 794710, Note_off_c, 0, 59, 58
1, 794742, Control_c, 0, 64, 77
1, 794757, Control_c, 0, 64, 77
1, 794772, Control_c, 0, 64, 76
1, 794787, Control_c, 0, 64, 76
1, 794802, Control_c, 0, 64, 74
1, 794817, Control_c, 0, 64, 71
1, 794831, Control_c, 0, 64, 65
1, 794846, Control_c, 0, 64, 55
1, 794849, Note_off_c, 0, 49, 53
1, 794850, Note_on_c, 0, 60, 55
1, 794859, Note_on_c, 0, 61, 59
1, 794861, Control_c, 0, 64, 45
1, 794861, Control_c, 0, 67, 8
1, 794865, Note_off_c, 0, 68, 54
1, 794875, Control_c, 0, 64, 47
1, 794890, Control_c, 0, 64, 51
1, 794890, Control_c, 0, 67, 8
1, 794905, Control_c, 0, 64, 55
1, 794920, Control_c, 0, 64, 58
1, 794935, Control_c, 0, 64, 61
1, 794949, Control_c, 0, 64, 63
1, 794949, Control_c, 0, 67, 9
1, 794964, Control_c, 0, 64, 65
1, 794964, Control_c, 0, 67, 11
1, 794978, Control_c, 0, 64, 68
1, 794978, Control_c, 0, 67, 13
1, 794993, Control_c, 0, 64, 69
1, 794993, Control_c, 0, 67, 15
1, 795008, Control_c, 0, 64, 70
1, 795008, Control_c, 0, 67, 17
1, 795023, Control_c, 0, 64, 71
1, 795023, Control_c, 0, 67, 20
1, 795038, Control_c, 0, 64, 72
1, 795038, Control_c, 0, 67, 23
1, 795052, Control_c, 0, 64, 73
1, 795052, Control_c, 0, 67, 25
1, 795067, Control_c, 0, 67, 27
1, 795080, Note_off_c, 0, 60, 56
1, 795082, Control_c, 0, 67, 31
1, 795104, Control_c, 0, 67, 34
1, 795116, Note_on_c, 0, 49, 52
1, 795119, Control_c, 0, 67, 37
1, 795134, Control_c, 0, 67, 39
1, 795149, Control_c, 0, 67, 42
1, 795163, Control_c, 0, 67, 45
1, 795178, Control_c, 0, 67, 48
1, 795193, Control_c, 0, 67, 50
1, 795207, Control_c, 0, 64, 72
1, 795207, Control_c, 0, 67, 53
1, 795221, Note_off_c, 0, 49, 60
1, 795222, Control_c, 0, 64, 70
1, 795222, Control_c, 0, 67, 56
1, 795237, Control_c, 0, 64, 67
1, 795237, Control_c, 0, 67, 58
1, 795251, Note_on_c, 0, 59, 49
1, 795252, Control_c, 0, 64, 64
1, 795252, Control_c, 0, 67, 60
1, 795267, Control_c, 0, 64, 65
1, 795282, Control_c, 0, 64, 65
1, 795297, Control_c, 0, 64, 66
1, 795297, Control_c, 0, 67, 61
1, 795312, Control_c, 0, 64, 66
1, 795327, Control_c, 0, 64, 67
1, 795342, Control_c, 0, 64, 69
1, 795356, Control_c, 0, 64, 71
1, 795371, Control_c, 0, 64, 73
1, 795383, Note_on_c, 0, 49, 48
1, 795386, Control_c, 0, 64, 73
1, 795460, Control_c, 0, 64, 71
1, 795468, Note_off_c, 0, 59, 46
1, 795474, Note_off_c, 0, 49, 60
1, 795476, Control_c, 0, 64, 68
1, 795491, Control_c, 0, 64, 62
1, 795505, Control_c, 0, 64, 52
1, 795505, Control_c, 0, 67, 60
1, 795515, Note_on_c, 0, 58, 42
1, 795520, Control_c, 0, 64, 57
1, 795520, Control_c, 0, 67, 60
1, 795535, Control_c, 0, 64, 61
1, 795550, Control_c, 0, 64, 64
1, 795550, Control_c, 0, 67, 59
1, 795565, Control_c, 0, 64, 65
1, 795565, Control_c, 0, 67, 59
1, 795579, Control_c, 0, 64, 67
1, 795579, Control_c, 0, 67, 58
1, 795594, Control_c, 0, 64, 69
1, 795594, Control_c, 0, 67, 58
1, 795609, Control_c, 0, 64, 70
1, 795609, Control_c, 0, 67, 57
1, 795623, Control_c, 0, 64, 71
1, 795646, Note_off_c, 0, 58, 49
1, 795653, Control_c, 0, 64, 71
1, 795658, Note_on_c, 0, 49, 45
1, 795668, Control_c, 0, 64, 72
1, 795697, Control_c, 0, 64, 71
1, 795712, Control_c, 0, 64, 70
1, 795728, Control_c, 0, 64, 68
1, 795743, Control_c, 0, 64, 66
1, 795750, Note_off_c, 0, 49, 59
1, 795758, Control_c, 0, 64, 67
1, 795772, Control_c, 0, 64, 68
1, 795772, Control_c, 0, 67, 57
1, 795777, Note_on_c, 0, 66, 51
1, 795787, Control_c, 0, 64, 69
1, 795792, Note_off_c, 0, 61, 45
1, 795794, Note_on_c, 0, 57, 38
1, 795802, Control_c, 0, 64, 71
1, 795802, Control_c, 0, 67, 56
1, 795816, Control_c, 0, 64, 73
1, 795816, Control_c, 0, 67, 56
1, 795831, Control_c, 0, 64, 75
1, 795831, Control_c, 0, 67, 55
1, 795854, Control_c, 0, 64, 77
1, 795854, Control_c, 0, 67, 55
1, 795854, Note_off_c, 0, 57, 43
1, 795869, Control_c, 0, 64, 78
1, 795884, Control_c, 0, 64, 79
1, 795928, Control_c, 0, 67, 54
1, 795929, Note_on_c, 0, 49, 42
1, 795958, Control_c, 0, 64, 78
1, 795973, Control_c, 0, 64, 78
1, 795973, Control_c, 0, 67, 55
1, 795987, Control_c, 0, 64, 77
1, 795987, Control_c, 0, 67, 55
1, 796002, Control_c, 0, 64, 76
1, 796017, Control_c, 0, 64, 73
1, 796019, Note_off_c, 0, 49, 54
1, 796031, Control_c, 0, 64, 67
1, 796046, Note_on_c, 0, 65, 53
1, 796046, Control_c, 0, 64, 63
1, 796060, Note_on_c, 0, 56, 40
1, 796060, Note_off_c, 0, 66, 57
1, 796061, Control_c, 0, 64, 64
1, 796061, Control_c, 0, 67, 55
1, 796076, Control_c, 0, 64, 64
1, 796076, Control_c, 0, 67, 54
1, 796091, Control_c, 0, 64, 65
1, 796105, Control_c, 0, 67, 54
1, 796120, Control_c, 0, 64, 66
1, 796135, Control_c, 0, 64, 67
1, 796135, Control_c, 0, 67, 53
1, 796150, Control_c, 0, 64, 69
1, 796150, Control_c, 0, 67, 52
1, 796165, Control_c, 0, 64, 71
1, 796165, Control_c, 0, 67, 52
1, 796179, Control_c, 0, 64, 73
1, 796179, Control_c, 0, 67, 51
1, 796187, Note_on_c, 0, 49, 53
1, 796194, Control_c, 0, 64, 74
1, 796194, Control_c, 0, 67, 51
1, 796209, Control_c, 0, 64, 75
1, 796216, Note_off_c, 0, 56, 36
1, 796224, Control_c, 0, 67, 50
1, 796239, Control_c, 0, 64, 76
1, 796254, Control_c, 0, 64, 76
1, 796269, Control_c, 0, 64, 77
1, 796284, Control_c, 0, 64, 76
1, 796293, Note_off_c, 0, 49, 56
1, 796299, Control_c, 0, 64, 74
1, 796299, Control_c, 0, 67, 51
1, 796314, Control_c, 0, 64, 71
1, 796321, Note_on_c, 0, 66, 75
1, 796328, Control_c, 0, 64, 67
1, 796334, Note_on_c, 0, 57, 46
1, 796343, Control_c, 0, 67, 50
1, 796358, Control_c, 0, 64, 68
1, 796373, Control_c, 0, 64, 69
1, 796373, Control_c, 0, 67, 50
1, 796385, Note_off_c, 0, 65, 51
1, 796388, Control_c, 0, 64, 70
1, 796388, Control_c, 0, 67, 49
1, 796403, Control_c, 0, 64, 71
1, 796418, Control_c, 0, 64, 73
1, 796418, Control_c, 0, 67, 49
1, 796433, Control_c, 0, 64, 75
1, 796433, Control_c, 0, 67, 48
1, 796447, Control_c, 0, 64, 76
1, 796447, Control_c, 0, 67, 48
1, 796449, Note_on_c, 0, 49, 59
1, 796462, Control_c, 0, 64, 77
1, 796462, Control_c, 0, 67, 47
1, 796477, Control_c, 0, 64, 78
1, 796477, Control_c, 0, 67, 46
1, 796477, Note_off_c, 0, 57, 36
1, 796492, Control_c, 0, 64, 79
1, 796492, Control_c, 0, 67, 45
1, 796507, Control_c, 0, 64, 80
1, 796521, Control_c, 0, 64, 81
1, 796536, Control_c, 0, 64, 81
1, 796551, Control_c, 0, 64, 80
1, 796551, Control_c, 0, 67, 45
1, 796566, Control_c, 0, 64, 78
1, 796577, Note_on_c, 0, 68, 77
1, 796581, Note_off_c, 0, 49, 52
1, 796581, Control_c, 0, 64, 73
1, 796601, Note_on_c, 0, 53, 50
1, 796603, Control_c, 0, 64, 65
1, 796603, Control_c, 0, 67, 44
1, 796617, Control_c, 0, 64, 63
1, 796617, Control_c, 0, 67, 44
1, 796624, Note_off_c, 0, 66, 57
1, 796632, Control_c, 0, 64, 64
1, 796632, Control_c, 0, 67, 42
1, 796647, Control_c, 0, 64, 65
1, 796647, Control_c, 0, 67, 41
1, 796662, Control_c, 0, 64, 66
1, 796662, Control_c, 0, 67, 40
1, 796677, Control_c, 0, 64, 67
1, 796677, Control_c, 0, 67, 39
1, 796692, Control_c, 0, 64, 69
1, 796692, Control_c, 0, 67, 37
1, 796707, Note_off_c, 0, 53, 57
1, 796707, Control_c, 0, 64, 70
1, 796707, Control_c, 0, 67, 35
1, 796721, Note_on_c, 0, 49, 55
1, 796721, Control_c, 0, 64, 73
1, 796721, Control_c, 0, 67, 33
1, 796736, Control_c, 0, 64, 74
1, 796736, Control_c, 0, 67, 32
1, 796751, Control_c, 0, 64, 76
1, 796751, Control_c, 0, 67, 30
1, 796766, Control_c, 0, 64, 76
1, 796766, Control_c, 0, 67, 29
1, 796780, Control_c, 0, 64, 77
1, 796780, Control_c, 0, 67, 29
1, 796795, Control_c, 0, 64, 78
1, 796795, Control_c, 0, 67, 28
1, 796810, Control_c, 0, 64, 77
1, 796810, Control_c, 0, 67, 27
1, 796821, Note_on_c, 0, 54, 47
1, 796825, Control_c, 0, 64, 75
1, 796825, Control_c, 0, 67, 26
1, 796831, Note_off_c, 0, 49, 58
1, 796840, Control_c, 0, 64, 71
1, 796840, Control_c, 0, 67, 26
1, 796852, Note_on_c, 0, 69, 72
1, 796854, Control_c, 0, 64, 65
1, 796854, Control_c, 0, 67, 25
1, 796869, Control_c, 0, 64, 63
1, 796869, Control_c, 0, 67, 24
1, 796884, Control_c, 0, 64, 65
1, 796884, Control_c, 0, 67, 23
1, 796886, Note_off_c, 0, 68, 59
1, 796899, Control_c, 0, 64, 67
1, 796899, Control_c, 0, 67, 22
1, 796914, Control_c, 0, 64, 69
1, 796914, Control_c, 0, 67, 21
1, 796928, Control_c, 0, 64, 71
1, 796928, Control_c, 0, 67, 20
1, 796943, Control_c, 0, 64, 74
1, 796943, Control_c, 0, 67, 20
1, 796948, Note_off_c, 0, 54, 61
1, 796951, Note_on_c, 0, 49, 62
1, 796958, Control_c, 0, 64, 76
1, 796958, Control_c, 0, 67, 18
1, 796972, Control_c, 0, 64, 79
1, 796972, Control_c, 0, 67, 16
1, 796987, Control_c, 0, 64, 80
1, 796987, Control_c, 0, 67, 15
1, 797002, Control_c, 0, 64, 81
1, 797002, Control_c, 0, 67, 13
1, 797017, Control_c, 0, 67, 11
1, 797029, Note_off_c, 0, 49, 63
1, 797032, Control_c, 0, 67, 9
1, 797047, Control_c, 0, 67, 8
1, 797062, Control_c, 0, 67, 0
1, 797092, Control_c, 0, 64, 79
1, 797106, Note_off_c, 0, 69, 63
1, 797107, Control_c, 0, 64, 74
1, 797119, Note_on_c, 0, 73, 66
1, 797122, Control_c, 0, 64, 66
1, 797132, Note_on_c, 0, 64, 45
1, 797137, Control_c, 0, 64, 51
1, 797151, Control_c, 0, 64, 53
1, 797159, Note_on_c, 0, 66, 26
1, 797166, Control_c, 0, 64, 60
1, 797181, Control_c, 0, 64, 62
1, 797193, Note_off_c, 0, 64, 55
1, 797196, Control_c, 0, 64, 63
1, 797211, Control_c, 0, 64, 65
1, 797226, Control_c, 0, 64, 66
1, 797240, Control_c, 0, 64, 69
1, 797245, Note_on_c, 0, 50, 52
1, 797255, Control_c, 0, 64, 71
1, 797270, Control_c, 0, 64, 72
1, 797285, Control_c, 0, 64, 72
1, 797300, Control_c, 0, 64, 73
1, 797330, Control_c, 0, 64, 72
1, 797351, Control_c, 0, 64, 70
1, 797366, Control_c, 0, 64, 65
1, 797372, Note_off_c, 0, 50, 59
1, 797381, Control_c, 0, 64, 63
1, 797393, Note_on_c, 0, 71, 68
1, 797395, Control_c, 0, 64, 64
1, 797410, Control_c, 0, 64, 66
1, 797413, Note_on_c, 0, 62, 40
1, 797425, Control_c, 0, 64, 67
1, 797434, Note_off_c, 0, 73, 55
1, 797440, Control_c, 0, 64, 68
1, 797455, Control_c, 0, 64, 70
1, 797470, Control_c, 0, 64, 72
1, 797485, Control_c, 0, 64, 74
1, 797488, Note_off_c, 0, 62, 57
1, 797500, Control_c, 0, 64, 75
1, 797515, Control_c, 0, 64, 76
1, 797528, Note_on_c, 0, 50, 45
1, 797530, Control_c, 0, 64, 77
1, 797544, Control_c, 0, 64, 77
1, 797603, Control_c, 0, 64, 77
1, 797618, Control_c, 0, 64, 76
1, 797633, Control_c, 0, 64, 73
1, 797648, Control_c, 0, 64, 67
1, 797649, Note_off_c, 0, 66, 47
1, 797650, Note_off_c, 0, 71, 58
1, 797661, Note_on_c, 0, 68, 57
1, 797663, Control_c, 0, 64, 54
1, 797677, Control_c, 0, 64, 0
1, 797682, Note_on_c, 0, 59, 37
1, 797700, Note_off_c, 0, 50, 35
1, 797707, Control_c, 0, 64, 36
1, 797722, Control_c, 0, 64, 49
1, 797737, Control_c, 0, 64, 56
1, 797751, Control_c, 0, 64, 60
1, 797762, Note_off_c, 0, 59, 55
1, 797766, Poly_aftertouch_c, 0, 64, 127
1, 797766, Control_c, 0, 64, 63
1, 797781, Control_c, 0, 64, 64
1, 797795, Control_c, 0, 64, 66
1, 797805, Note_on_c, 0, 52, 44
1, 797810, Control_c, 0, 64, 67
1, 797825, Control_c, 0, 64, 68
1, 797840, Control_c, 0, 64, 69
1, 797855, Control_c, 0, 64, 70
1, 797857, Poly_aftertouch_c, 0, 64, 0
1, 797871, Control_c, 0, 64, 71
1, 797881, Note_off_c, 0, 68, 64
1, 797885, Note_off_c, 0, 52, 52
1, 797886, Control_c, 0, 64, 72
1, 797900, Control_c, 0, 64, 73
1, 797915, Control_c, 0, 64, 73
1, 797930, Control_c, 0, 64, 72
1, 797935, Note_on_c, 0, 68, 50
1, 797944, Note_on_c, 0, 59, 32
1, 797945, Control_c, 0, 64, 70
1, 797960, Control_c, 0, 64, 69
1, 797989, Control_c, 0, 64, 70
1, 798004, Control_c, 0, 64, 70
1, 798018, Control_c, 0, 64, 71
1, 798033, Control_c, 0, 64, 72
1, 798036, Note_off_c, 0, 59, 53
1, 798048, Control_c, 0, 64, 73
1, 798056, Note_on_c, 0, 52, 42
1, 798063, Control_c, 0, 64, 74
1, 798078, Control_c, 0, 64, 75
1, 798115, Control_c, 0, 64, 76
1, 798130, Control_c, 0, 64, 76
1, 798141, Note_off_c, 0, 52, 54
1, 798145, Control_c, 0, 64, 77
1, 798174, Control_c, 0, 64, 76
1, 798189, Control_c, 0, 64, 75
1, 798191, Note_on_c, 0, 60, 46
1, 798204, Control_c, 0, 64, 74
1, 798255, Note_off_c, 0, 60, 59
1, 798263, Control_c, 0, 64, 75
1, 798293, Control_c, 0, 64, 75
1, 798308, Note_on_c, 0, 52, 43
1, 798337, Control_c, 0, 64, 76
1, 798367, Control_c, 0, 64, 76
1, 798412, Control_c, 0, 64, 76
1, 798422, Note_off_c, 0, 52, 56
1, 798426, Control_c, 0, 64, 75
1, 798439, Note_on_c, 0, 61, 48
1, 798442, Note_off_c, 0, 68, 60
1, 798444, Note_on_c, 0, 69, 62
1, 798500, Control_c, 0, 64, 76
1, 798534, Note_off_c, 0, 61, 52
1, 798544, Control_c, 0, 64, 76
1, 798555, Note_on_c, 0, 52, 54
1, 798589, Control_c, 0, 64, 77
1, 798604, Control_c, 0, 64, 77
1, 798618, Control_c, 0, 64, 78
1, 798633, Control_c, 0, 64, 78
1, 798664, Control_c, 0, 64, 78
1, 798679, Control_c, 0, 64, 77
1, 798687, Note_on_c, 0, 56, 53
1, 798693, Note_off_c, 0, 52, 52
1, 798694, Control_c, 0, 64, 76
1, 798696, Note_on_c, 0, 71, 71
1, 798768, Control_c, 0, 64, 76
1, 798776, Note_off_c, 0, 69, 34
1, 798783, Control_c, 0, 64, 77
1, 798788, Note_off_c, 0, 56, 61
1, 798797, Control_c, 0, 64, 77
1, 798811, Note_on_c, 0, 52, 63
1, 798827, Control_c, 0, 64, 78
1, 798849, Control_c, 0, 64, 78
1, 798864, Control_c, 0, 64, 79
1, 798894, Control_c, 0, 64, 78
1, 798909, Control_c, 0, 64, 77
1, 798923, Control_c, 0, 64, 77
1, 798933, Note_off_c, 0, 52, 60
1, 798939, Note_on_c, 0, 73, 82
1, 798957, Note_on_c, 0, 57, 55
1, 798968, Control_c, 0, 64, 77
1, 798969, Note_off_c, 0, 71, 54
1, 798983, Control_c, 0, 64, 78
1, 798997, Control_c, 0, 64, 79
1, 799012, Control_c, 0, 64, 80
1, 799027, Control_c, 0, 64, 83
1, 799042, Control_c, 0, 64, 85
1, 799056, Control_c, 0, 64, 88
1, 799071, Control_c, 0, 64, 90
1, 799077, Note_on_c, 0, 52, 73
1, 799086, Control_c, 0, 64, 91
1, 799101, Control_c, 0, 64, 92
1, 799103, Note_off_c, 0, 57, 37
1, 799160, Control_c, 0, 64, 90
1, 799170, Note_off_c, 0, 52, 58
1, 799175, Control_c, 0, 64, 84
1, 799190, Control_c, 0, 64, 76
1, 799196, Note_on_c, 0, 76, 78
1, 799205, Control_c, 0, 64, 65
1, 799208, Note_on_c, 0, 66, 61
1, 799211, Note_on_c, 0, 69, 59
1, 799220, Control_c, 0, 64, 50
1, 799221, Note_off_c, 0, 73, 56
1, 799235, Control_c, 0, 64, 59
1, 799249, Control_c, 0, 64, 63
1, 799264, Control_c, 0, 64, 64
1, 799279, Control_c, 0, 64, 65
1, 799294, Control_c, 0, 64, 67
1, 799309, Control_c, 0, 64, 70
1, 799323, Note_on_c, 0, 54, 74
1, 799323, Control_c, 0, 64, 73
1, 799326, Note_off_c, 0, 66, 57
1, 799338, Control_c, 0, 64, 75
1, 799353, Control_c, 0, 64, 77
1, 799367, Control_c, 0, 64, 79
1, 799382, Control_c, 0, 64, 82
1, 799397, Control_c, 0, 64, 83
1, 799412, Control_c, 0, 64, 82
1, 799427, Control_c, 0, 64, 81
1, 799441, Control_c, 0, 64, 79
1, 799456, Note_on_c, 0, 66, 71
1, 799456, Control_c, 0, 64, 78
1, 799461, Note_on_c, 0, 75, 84
1, 799471, Note_off_c, 0, 54, 59
1, 799487, Control_c, 0, 64, 79
1, 799500, Note_off_c, 0, 69, 62
1, 799502, Control_c, 0, 64, 80
1, 799503, Note_off_c, 0, 76, 55
1, 799517, Control_c, 0, 64, 82
1, 799532, Control_c, 0, 64, 84
1, 799546, Control_c, 0, 64, 87
1, 799561, Control_c, 0, 64, 90
1, 799576, Note_on_c, 0, 54, 75
1, 799576, Control_c, 0, 64, 91
1, 799593, Note_off_c, 0, 66, 62
1, 799613, Control_c, 0, 64, 92
1, 799643, Control_c, 0, 64, 91
1, 799672, Control_c, 0, 64, 88
1, 799687, Control_c, 0, 64, 80
1, 799702, Control_c, 0, 64, 67
1, 799717, Control_c, 0, 64, 0
1, 799722, Note_on_c, 0, 63, 66
1, 799722, Note_on_c, 0, 72, 77
1, 799725, Note_on_c, 0, 68, 66
1, 799738, Note_off_c, 0, 54, 58
1, 799771, Note_off_c, 0, 75, 50
1, 799805, Control_c, 0, 64, 49
1, 799820, Control_c, 0, 64, 63
1, 799835, Control_c, 0, 64, 66
1, 799842, Note_on_c, 0, 56, 75
1, 799849, Note_off_c, 0, 68, 54
1, 799850, Control_c, 0, 64, 68
1, 799855, Note_off_c, 0, 63, 57
1, 799865, Control_c, 0, 64, 70
1, 799879, Control_c, 0, 64, 73
1, 799894, Control_c, 0, 64, 74
1, 799909, Control_c, 0, 64, 76
1, 799911, Note_off_c, 0, 72, 64
1, 799924, Control_c, 0, 64, 79
1, 799939, Control_c, 0, 64, 80
1, 799968, Control_c, 0, 64, 80
1, 799980, Note_on_c, 0, 72, 89
1, 799983, Control_c, 0, 64, 81
1, 799988, Note_on_c, 0, 63, 68
1, 799995, Note_off_c, 0, 56, 63
1, 799998, Control_c, 0, 64, 83
1, 800013, Control_c, 0, 64, 84
1, 800028, Control_c, 0, 64, 86
1, 800042, Control_c, 0, 64, 87
1, 800057, Control_c, 0, 64, 87
1, 800072, Control_c, 0, 64, 88
1, 800087, Control_c, 0, 64, 89
1, 800097, Note_on_c, 0, 56, 75
1, 800102, Control_c, 0, 64, 89
1, 800109, Note_off_c, 0, 63, 59
1, 800132, Control_c, 0, 64, 90
1, 800161, Control_c, 0, 64, 91
1, 800176, Control_c, 0, 64, 92
1, 800205, Control_c, 0, 64, 91
1, 800220, Control_c, 0, 64, 88
1, 800221, Note_on_c, 0, 63, 78
1, 800235, Control_c, 0, 64, 84
1, 800245, Note_off_c, 0, 56, 60
1, 800250, Control_c, 0, 64, 83
1, 800281, Control_c, 0, 64, 83
1, 800295, Control_c, 0, 64, 84
1, 800310, Control_c, 0, 64, 86
1, 800325, Control_c, 0, 64, 88
1, 800347, Control_c, 0, 64, 90
1, 800351, Note_on_c, 0, 56, 77
1, 800362, Control_c, 0, 64, 92
1, 800376, Control_c, 0, 64, 93
1, 800380, Note_off_c, 0, 63, 60
1, 800391, Control_c, 0, 64, 93
1, 800406, Control_c, 0, 64, 95
1, 800421, Control_c, 0, 64, 97
1, 800436, Control_c, 0, 64, 97
1, 800466, Control_c, 0, 64, 97
1, 800474, Note_on_c, 0, 73, 97
1, 800477, Note_on_c, 0, 64, 77
1, 800481, Control_c, 0, 64, 94
1, 800493, Note_off_c, 0, 56, 60
1, 800495, Control_c, 0, 64, 91
1, 800505, Note_off_c, 0, 72, 63
1, 800555, Control_c, 0, 64, 91
1, 800569, Control_c, 0, 64, 92
1, 800584, Control_c, 0, 64, 94
1, 800587, Note_on_c, 0, 56, 83
1, 800599, Control_c, 0, 64, 95
1, 800613, Note_off_c, 0, 64, 39
1, 800614, Control_c, 0, 64, 97
1, 800628, Control_c, 0, 64, 99
1, 800643, Control_c, 0, 64, 100
1, 800658, Control_c, 0, 64, 102
1, 800673, Control_c, 0, 64, 103
1, 800702, Control_c, 0, 64, 102
1, 800717, Control_c, 0, 64, 96
1, 800732, Control_c, 0, 64, 87
1, 800737, Note_on_c, 0, 75, 94
1, 800747, Note_on_c, 0, 60, 70
1, 800747, Control_c, 0, 64, 80
1, 800762, Control_c, 0, 64, 79
1, 800776, Control_c, 0, 64, 80
1, 800782, Note_off_c, 0, 73, 60
1, 800791, Control_c, 0, 64, 82
1, 800806, Control_c, 0, 64, 85
1, 800821, Control_c, 0, 64, 88
1, 800826, Note_off_c, 0, 56, 60
1, 800835, Control_c, 0, 64, 92
1, 800850, Control_c, 0, 64, 95
1, 800865, Control_c, 0, 64, 99
1, 800880, Control_c, 0, 64, 104
1, 800883, Note_on_c, 0, 63, 72
1, 800895, Control_c, 0, 64, 110
1, 800910, Control_c, 0, 64, 112
1, 800925, Control_c, 0, 64, 113
1, 800939, Control_c, 0, 64, 112
1, 800954, Control_c, 0, 64, 110
1, 800969, Control_c, 0, 64, 99
1, 800984, Control_c, 0, 64, 87
1, 800993, Note_on_c, 0, 56, 69
1, 800998, Note_on_c, 0, 78, 89
1, 800999, Control_c, 0, 64, 80
1, 801008, Note_off_c, 0, 60, 54
1, 801011, Note_off_c, 0, 75, 64
1, 801028, Control_c, 0, 64, 83
1, 801043, Control_c, 0, 64, 87
1, 801059, Control_c, 0, 64, 93
1, 801074, Control_c, 0, 64, 98
1, 801096, Control_c, 0, 64, 104
1, 801105, Poly_aftertouch_c, 0, 76, 127
1, 801111, Note_off_c, 0, 63, 36
1, 801111, Control_c, 0, 64, 110
1, 801125, Control_c, 0, 64, 115
1, 801140, Control_c, 0, 64, 116
1, 801153, Note_off_c, 0, 56, 63
1, 801154, Note_on_c, 0, 54, 76
1, 801173, Poly_aftertouch_c, 0, 76, 0
1, 801229, Control_c, 0, 64, 109
1, 801232, Note_off_c, 0, 78, 58
1, 801233, Note_on_c, 0, 61, 68
1, 801244, Control_c, 0, 64, 94
1, 801259, Control_c, 0, 64, 71
1, 801274, Control_c, 0, 64, 0
1, 801290, Note_on_c, 0, 81, 85
1, 801300, Note_on_c, 0, 69, 64
1, 801309, Note_on_c, 0, 66, 66
1, 801361, Poly_aftertouch_c, 0, 73, 127
1, 801392, Control_c, 0, 64, 50
1, 801406, Poly_aftertouch_c, 0, 73, 0
1, 801407, Control_c, 0, 64, 62
1, 801422, Control_c, 0, 64, 65
1, 801436, Control_c, 0, 64, 68
1, 801451, Control_c, 0, 64, 71
1, 801463, Note_on_c, 0, 80, 86
1, 801466, Control_c, 0, 64, 73
1, 801481, Control_c, 0, 64, 77
1, 801496, Control_c, 0, 64, 82
1, 801508, Note_off_c, 0, 66, 62
1, 801511, Control_c, 0, 64, 87
1, 801525, Control_c, 0, 64, 91
1, 801531, Note_off_c, 0, 61, 61
1, 801540, Control_c, 0, 64, 95
1, 801545, Note_off_c, 0, 54, 64
1, 801555, Control_c, 0, 64, 99
1, 801569, Control_c, 0, 64, 103
1, 801584, Control_c, 0, 64, 106
1, 801587, Note_on_c, 0, 78, 91
1, 801590, Note_off_c, 0, 81, 34
1, 801599, Control_c, 0, 64, 108
1, 801614, Control_c, 0, 64, 108
1, 801629, Control_c, 0, 64, 109
1, 801641, Note_off_c, 0, 69, 59
1, 801643, Control_c, 0, 64, 113
1, 801658, Control_c, 0, 64, 121
1, 801663, Note_off_c, 0, 80, 55
1, 801673, Control_c, 0, 64, 127
1, 801704, Note_on_c, 0, 73, 95
1, 801740, Note_off_c, 0, 78, 60
1, 801808, Note_on_c, 0, 69, 92
1, 801815, Note_off_c, 0, 73, 62
1, 801858, Control_c, 0, 64, 124
1, 801874, Control_c, 0, 64, 121
1, 801889, Control_c, 0, 64, 119
1, 801904, Control_c, 0, 64, 117
1, 801919, Control_c, 0, 64, 113
1, 801930, Note_on_c, 0, 68, 84
1, 801934, Control_c, 0, 64, 108
1, 801948, Note_off_c, 0, 69, 61
1, 801948, Control_c, 0, 64, 105
1, 801963, Control_c, 0, 64, 103
1, 801970, Note_on_c, 0, 47, 72
1, 801978, Control_c, 0, 64, 96
1, 801990, Note_on_c, 0, 54, 73
1, 801992, Control_c, 0, 64, 77
1, 802007, Control_c, 0, 64, 0
1, 802050, Note_on_c, 0, 66, 91
1, 802055, Note_on_c, 0, 59, 87
1, 802070, Note_off_c, 0, 68, 58
1, 802144, Note_off_c, 0, 59, 59
1, 802147, Note_off_c, 0, 54, 63
1, 802160, Note_on_c, 0, 74, 88
1, 802165, Note_off_c, 0, 66, 64
1, 802274, Control_c, 0, 64, 54
1, 802287, Note_on_c, 0, 57, 89
1, 802288, Note_on_c, 0, 54, 88
1, 802289, Control_c, 0, 64, 72
1, 802293, Note_on_c, 0, 73, 96
1, 802296, Note_on_c, 0, 49, 76
1, 802301, Note_off_c, 0, 74, 65
1, 802304, Control_c, 0, 64, 91
1, 802308, Note_off_c, 0, 57, 69
1, 802311, Note_off_c, 0, 47, 65
1, 802314, Note_off_c, 0, 54, 70
1, 802319, Control_c, 0, 64, 127
1, 802325, Note_off_c, 0, 73, 68
1, 802328, Note_off_c, 0, 49, 66
1, 802422, Control_c, 0, 64, 115
1, 802437, Control_c, 0, 64, 77
1, 802452, Control_c, 0, 64, 0
1, 802870, Note_on_c, 0, 56, 86
1, 802871, Note_on_c, 0, 49, 73
1, 802871, Note_on_c, 0, 65, 91
1, 802874, Note_on_c, 0, 59, 82
1, 802876, Control_c, 0, 64, 42
1, 802877, Note_on_c, 0, 61, 86
1, 802890, Control_c, 0, 64, 79
1, 802896, Note_off_c, 0, 59, 68
1, 802897, Note_off_c, 0, 56, 67
1, 802897, Note_off_c, 0, 61, 70
1, 802901, Note_off_c, 0, 49, 67
1, 802905, Control_c, 0, 64, 112
1, 802908, Note_off_c, 0, 65, 70
1, 802920, Control_c, 0, 64, 127
1, 803098, Control_c, 0, 64, 107
1, 803113, Control_c, 0, 64, 87
1, 803128, Control_c, 0, 64, 67
1, 803142, Control_c, 0, 64, 0
1, 803599, Note_on_c, 0, 35, 91
1, 803603, Note_on_c, 0, 86, 98
1, 803698, Control_c, 0, 64, 42
1, 803711, Note_on_c, 0, 85, 88
1, 803712, Control_c, 0, 64, 60
1, 803723, Note_on_c, 0, 37, 80
1, 803727, Control_c, 0, 64, 65
1, 803742, Control_c, 0, 64, 67
1, 803745, Note_off_c, 0, 86, 63
1, 803754, Note_off_c, 0, 35, 64
1, 803772, Control_c, 0, 64, 60
1, 803787, Control_c, 0, 64, 0
1, 803789, Note_on_c, 0, 82, 92
1, 803798, Note_on_c, 0, 84, 59
1, 803807, Note_on_c, 0, 38, 69
1, 803816, Note_off_c, 0, 85, 51
1, 803819, Note_off_c, 0, 84, 66
1, 803836, Note_on_c, 0, 83, 65
1, 803842, Note_off_c, 0, 37, 63
1, 803856, Note_on_c, 0, 42, 74
1, 803861, Control_c, 0, 64, 40
1, 803864, Note_on_c, 0, 78, 86
1, 803876, Control_c, 0, 64, 61
1, 803888, Note_off_c, 0, 38, 63
1, 803891, Note_off_c, 0, 82, 61
1, 803891, Note_off_c, 0, 83, 63
1, 803891, Control_c, 0, 64, 63
1, 803920, Control_c, 0, 64, 64
1, 803921, Note_on_c, 0, 47, 77
1, 803924, Note_off_c, 0, 42, 64
1, 803924, Note_off_c, 0, 78, 64
1, 803933, Note_on_c, 0, 74, 85
1, 803935, Control_c, 0, 64, 65
1, 803950, Control_c, 0, 64, 68
1, 803964, Control_c, 0, 64, 70
1, 803972, Note_off_c, 0, 74, 63
1, 803974, Note_off_c, 0, 47, 65
1, 803979, Control_c, 0, 64, 71
1, 804007, Note_on_c, 0, 73, 95
1, 804016, Note_on_c, 0, 49, 86
1, 804024, Control_c, 0, 64, 72
1, 804053, Control_c, 0, 64, 65
1, 804068, Control_c, 0, 64, 0
1, 804072, Note_on_c, 0, 50, 74
1, 804091, Note_on_c, 0, 71, 96
1, 804122, Note_off_c, 0, 73, 63
1, 804136, Note_off_c, 0, 49, 63
1, 804157, Note_on_c, 0, 54, 81
1, 804164, Control_c, 0, 64, 63
1, 804174, Note_on_c, 0, 66, 85
1, 804179, Control_c, 0, 64, 70
1, 804194, Control_c, 0, 64, 72
1, 804201, Note_off_c, 0, 71, 59
1, 804210, Note_off_c, 0, 50, 63
1, 804224, Control_c, 0, 64, 71
1, 804238, Note_off_c, 0, 66, 62
1, 804238, Control_c, 0, 64, 71
1, 804239, Note_off_c, 0, 54, 64
1, 804243, Note_on_c, 0, 59, 80
1, 804243, Note_on_c, 0, 62, 81
1, 804284, Control_c, 0, 64, 69
1, 804299, Control_c, 0, 64, 64
1, 804312, Note_on_c, 0, 66, 80
1, 804314, Control_c, 0, 64, 0
1, 804315, Note_on_c, 0, 54, 76
1, 804330, Note_off_c, 0, 62, 56
1, 804343, Note_off_c, 0, 59, 60
1, 804350, Note_on_c, 0, 71, 71
1, 804365, Note_on_c, 0, 50, 65
1, 804383, Note_off_c, 0, 66, 62
1, 804395, Note_on_c, 0, 74, 84
1, 804414, Note_off_c, 0, 54, 64
1, 804427, Note_off_c, 0, 71, 65
1, 804433, Note_on_c, 0, 47, 72
1, 804445, Note_off_c, 0, 74, 64
1, 804447, Note_off_c, 0, 50, 65
1, 804505, Note_on_c, 0, 57, 85
1, 804506, Control_c, 0, 64, 64
1, 804508, Note_on_c, 0, 54, 92
1, 804508, Note_on_c, 0, 73, 105
1, 804513, Note_on_c, 0, 61, 87
1, 804521, Note_on_c, 0, 49, 79
1, 804521, Control_c, 0, 64, 83
1, 804525, Note_off_c, 0, 57, 72
1, 804530, Note_off_c, 0, 54, 71
1, 804532, Note_off_c, 0, 61, 70
1, 804535, Note_off_c, 0, 73, 62
1, 804535, Control_c, 0, 64, 105
1, 804536, Note_off_c, 0, 47, 64
1, 804547, Note_off_c, 0, 49, 67
1, 804550, Control_c, 0, 64, 127
1, 804684, Control_c, 0, 64, 101
1, 804699, Control_c, 0, 64, 70
1, 804713, Control_c, 0, 64, 0
1, 805090, Note_on_c, 0, 49, 81
1, 805091, Note_on_c, 0, 65, 97
1, 805092, Note_on_c, 0, 56, 88
1, 805095, Note_on_c, 0, 61, 93
1, 805096, Note_on_c, 0, 59, 82
1, 805106, Control_c, 0, 64, 55
1, 805116, Note_off_c, 0, 61, 71
1, 805120, Note_off_c, 0, 59, 65
1, 805121, Control_c, 0, 64, 82
1, 805125, Note_off_c, 0, 49, 64
1, 805129, Note_off_c, 0, 56, 64
1, 805129, Note_off_c, 0, 65, 70
1, 805136, Control_c, 0, 64, 110
1, 805151, Control_c, 0, 64, 127
1, 805343, Control_c, 0, 64, 86
1, 805357, Control_c, 0, 64, 0
1, 805708, Note_on_c, 0, 42, 71
1, 805724, Note_on_c, 0, 85, 75
1, 805733, Note_on_c, 0, 86, 78
1, 805738, Note_on_c, 0, 49, 81
1, 805773, Note_off_c, 0, 85, 65
1, 805784, Note_off_c, 0, 42, 63
1, 805787, Note_on_c, 0, 78, 101
1, 805788, Note_on_c, 0, 90, 103
1, 805791, Note_on_c, 0, 57, 95
1, 805799, Note_on_c, 0, 88, 62
1, 805809, Control_c, 0, 64, 11
1, 805819, Note_off_c, 0, 86, 66
1, 805824, Control_c, 0, 64, 68
1, 805837, Note_off_c, 0, 88, 60
1, 805839, Control_c, 0, 64, 77
1, 805846, Note_off_c, 0, 57, 66
1, 805852, Note_off_c, 0, 49, 64
1, 805855, Control_c, 0, 64, 90
1, 805870, Control_c, 0, 64, 124
1, 805885, Control_c, 0, 64, 127
1, 805967, Note_off_c, 0, 90, 54
1, 806115, Note_off_c, 0, 78, 57
1, 806166, Note_on_c, 0, 88, 89
1, 806207, Note_off_c, 0, 88, 64
1, 806225, Note_on_c, 0, 69, 71
1, 806248, Note_on_c, 0, 71, 79
1, 806258, Note_on_c, 0, 81, 84
1, 806270, Note_on_c, 0, 83, 98
1, 806270, Control_c, 0, 64, 79
1, 806278, Poly_aftertouch_c, 0, 68, 0
1, 806279, Note_on_c, 0, 73, 86
1, 806285, Control_c, 0, 64, 0
1, 806301, Note_on_c, 0, 86, 96
1, 806302, Note_off_c, 0, 81, 65
1, 806318, Note_on_c, 0, 74, 91
1, 806319, Note_off_c, 0, 69, 61
1, 806324, Note_off_c, 0, 83, 66
1, 806349, Note_off_c, 0, 71, 62
1, 806351, Control_c, 0, 64, 54
1, 806365, Control_c, 0, 64, 67
1, 806377, Note_off_c, 0, 73, 63
1, 806380, Control_c, 0, 64, 75
1, 806395, Control_c, 0, 64, 83
1, 806410, Control_c, 0, 64, 89
1, 806425, Control_c, 0, 64, 93
1, 806440, Control_c, 0, 64, 96
1, 806449, Note_off_c, 0, 74, 64
1, 806454, Control_c, 0, 64, 101
1, 806469, Control_c, 0, 64, 111
1, 806484, Control_c, 0, 64, 127
1, 806496, Note_off_c, 0, 86, 58
1, 806660, Note_on_c, 0, 85, 90
1, 806671, Note_on_c, 0, 73, 82
1, 806696, Note_off_c, 0, 73, 66
1, 806707, Note_on_c, 0, 54, 70
1, 806711, Note_off_c, 0, 85, 64
1, 806729, Note_on_c, 0, 55, 72
1, 806770, Note_on_c, 0, 78, 78
1, 806773, Note_on_c, 0, 57, 79
1, 806773, Note_on_c, 0, 71, 89
1, 806776, Note_on_c, 0, 79, 87
1, 806781, Control_c, 0, 64, 85
1, 806794, Note_off_c, 0, 54, 64
1, 806796, Control_c, 0, 64, 0
1, 806800, Note_on_c, 0, 59, 94
1, 806801, Note_on_c, 0, 83, 92
1, 806820, Note_off_c, 0, 78, 62
1, 806834, Note_off_c, 0, 71, 61
1, 806839, Note_off_c, 0, 79, 62
1, 806840, Note_off_c, 0, 55, 53
1, 806848, Note_off_c, 0, 57, 63
1, 806885, Control_c, 0, 64, 45
1, 806900, Control_c, 0, 64, 67
1, 806915, Control_c, 0, 64, 74
1, 806929, Control_c, 0, 64, 79
1, 806944, Control_c, 0, 64, 85
1, 806959, Control_c, 0, 64, 91
1, 806973, Control_c, 0, 64, 94
1, 806988, Control_c, 0, 64, 97
1, 807003, Control_c, 0, 64, 101
1, 807018, Control_c, 0, 64, 107
1, 807026, Note_off_c, 0, 83, 56
1, 807033, Control_c, 0, 64, 111
1, 807048, Control_c, 0, 64, 112
1, 807063, Control_c, 0, 64, 113
1, 807085, Control_c, 0, 64, 114
1, 807100, Control_c, 0, 64, 116
1, 807108, Note_off_c, 0, 59, 56
1, 807115, Control_c, 0, 64, 119
1, 807126, Note_on_c, 0, 57, 69
1, 807130, Control_c, 0, 64, 119
1, 807144, Control_c, 0, 64, 120
1, 807152, Note_off_c, 0, 57, 67
1, 807161, Note_on_c, 0, 81, 83
1, 807168, Note_on_c, 0, 69, 82
1, 807174, Control_c, 0, 64, 121
1, 807185, Note_off_c, 0, 81, 61
1, 807188, Control_c, 0, 64, 124
1, 807203, Control_c, 0, 64, 127
1, 807211, Note_off_c, 0, 69, 61
1, 807265, Note_on_c, 0, 74, 80
1, 807268, Note_on_c, 0, 76, 85
1, 807270, Note_on_c, 0, 38, 73
1, 807286, Note_off_c, 0, 74, 71
1, 807297, Note_on_c, 0, 40, 70
1, 807307, Control_c, 0, 64, 99
1, 807310, Note_on_c, 0, 42, 87
1, 807322, Control_c, 0, 64, 70
1, 807325, Note_on_c, 0, 79, 91
1, 807326, Note_on_c, 0, 43, 91
1, 807327, Note_on_c, 0, 67, 95
1, 807337, Control_c, 0, 64, 0
1, 807348, Note_off_c, 0, 38, 63
1, 807351, Note_on_c, 0, 77, 53
1, 807355, Note_off_c, 0, 76, 62
1, 807364, Note_off_c, 0, 40, 63
1, 807374, Note_off_c, 0, 77, 60
1, 807387, Note_off_c, 0, 42, 63
1, 807426, Control_c, 0, 64, 63
1, 807441, Control_c, 0, 64, 70
1, 807454, Note_off_c, 0, 67, 62
1, 807456, Control_c, 0, 64, 74
1, 807471, Control_c, 0, 64, 77
1, 807486, Control_c, 0, 64, 80
1, 807501, Control_c, 0, 64, 83
1, 807516, Control_c, 0, 64, 85
1, 807531, Control_c, 0, 64, 87
1, 807545, Control_c, 0, 64, 87
1, 807608, Note_off_c, 0, 79, 41
1, 807619, Control_c, 0, 64, 88
1, 807676, Note_on_c, 0, 42, 72
1, 807682, Note_off_c, 0, 43, 62
1, 807691, Note_on_c, 0, 78, 83
1, 807692, Note_on_c, 0, 66, 83
1, 807708, Note_off_c, 0, 42, 65
1, 807731, Note_off_c, 0, 66, 56
1, 807744, Note_off_c, 0, 78, 63
1, 807782, Control_c, 0, 64, 87
1, 807796, Control_c, 0, 64, 87
1, 807811, Control_c, 0, 64, 85
1, 807834, Control_c, 0, 64, 83
1, 807849, Control_c, 0, 64, 80
1, 807852, Note_on_c, 0, 52, 83
1, 807862, Note_on_c, 0, 64, 72
1, 807863, Note_on_c, 0, 76, 77
1, 807864, Control_c, 0, 64, 75
1, 807878, Control_c, 0, 64, 67
1, 807893, Control_c, 0, 64, 32
1, 807894, Note_off_c, 0, 64, 64
1, 807904, Note_off_c, 0, 76, 61
1, 807908, Control_c, 0, 64, 0
1, 807910, Note_off_c, 0, 52, 61
1, 807967, Control_c, 0, 64, 14
1, 807982, Control_c, 0, 64, 32
1, 807997, Control_c, 0, 64, 42
1, 808011, Control_c, 0, 64, 47
1, 808016, Note_on_c, 0, 74, 80
1, 808017, Note_on_c, 0, 50, 77
1, 808021, Note_on_c, 0, 62, 64
1, 808026, Control_c, 0, 64, 48
1, 808051, Note_off_c, 0, 62, 65
1, 808056, Note_off_c, 0, 50, 63
1, 808056, Control_c, 0, 64, 48
1, 808058, Note_off_c, 0, 74, 61
1, 808071, Control_c, 0, 64, 46
1, 808085, Control_c, 0, 64, 44
1, 808100, Control_c, 0, 64, 44
1, 808115, Control_c, 0, 64, 44
1, 808162, Note_on_c, 0, 61, 79
1, 808162, Note_on_c, 0, 73, 78
1, 808165, Note_on_c, 0, 49, 79
1, 808189, Control_c, 0, 64, 45
1, 808198, Note_off_c, 0, 49, 63
1, 808216, Note_off_c, 0, 61, 60
1, 808219, Control_c, 0, 64, 44
1, 808222, Note_off_c, 0, 73, 60
1, 808234, Control_c, 0, 64, 38
1, 808249, Control_c, 0, 64, 34
1, 808294, Control_c, 0, 64, 35
1, 808309, Control_c, 0, 64, 36
1, 808312, Note_on_c, 0, 47, 78
1, 808315, Note_on_c, 0, 59, 79
1, 808317, Note_on_c, 0, 71, 82
1, 808350, Note_off_c, 0, 47, 63
1, 808357, Note_off_c, 0, 59, 59
1, 808362, Note_off_c, 0, 71, 63
1, 808383, Control_c, 0, 64, 30
1, 808398, Control_c, 0, 64, 0
1, 808442, Control_c, 0, 64, 11
1, 808458, Control_c, 0, 64, 24
1, 808459, Note_on_c, 0, 45, 81
1, 808466, Note_on_c, 0, 69, 84
1, 808467, Note_on_c, 0, 57, 77
1, 808472, Control_c, 0, 64, 29
1, 808487, Control_c, 0, 64, 30
1, 808497, Note_off_c, 0, 57, 63
1, 808502, Control_c, 0, 64, 32
1, 808505, Note_off_c, 0, 69, 62
1, 808508, Note_off_c, 0, 45, 62
1, 808517, Control_c, 0, 64, 34
1, 808532, Control_c, 0, 64, 36
1, 808583, Control_c, 0, 64, 36
1, 808598, Control_c, 0, 64, 42
1, 808613, Control_c, 0, 64, 46
1, 808616, Note_on_c, 0, 44, 76
1, 808619, Note_on_c, 0, 68, 85
1, 808621, Note_on_c, 0, 56, 84
1, 808627, Control_c, 0, 64, 47
1, 808642, Control_c, 0, 64, 48
1, 808657, Control_c, 0, 64, 48
1, 808668, Note_off_c, 0, 44, 62
1, 808672, Note_off_c, 0, 56, 65
1, 808676, Note_off_c, 0, 68, 62
1, 808717, Control_c, 0, 64, 45
1, 808732, Control_c, 0, 64, 41
1, 808747, Control_c, 0, 64, 38
1, 808774, Note_on_c, 0, 64, 81
1, 808774, Note_on_c, 0, 52, 79
1, 808778, Note_on_c, 0, 40, 72
1, 808806, Control_c, 0, 64, 40
1, 808806, Note_off_c, 0, 52, 64
1, 808816, Note_off_c, 0, 40, 63
1, 808821, Control_c, 0, 64, 42
1, 808835, Control_c, 0, 64, 43
1, 808838, Note_off_c, 0, 64, 61
1, 808880, Control_c, 0, 64, 42
1, 808895, Control_c, 0, 64, 40
1, 808909, Control_c, 0, 64, 40
1, 808920, Note_on_c, 0, 50, 83
1, 808923, Note_on_c, 0, 62, 87
1, 808923, Note_on_c, 0, 38, 80
1, 808924, Control_c, 0, 64, 41
1, 808939, Control_c, 0, 64, 45
1, 808953, Control_c, 0, 64, 50
1, 808968, Control_c, 0, 64, 53
1, 808969, Note_off_c, 0, 38, 59
1, 808970, Note_off_c, 0, 50, 64
1, 808983, Control_c, 0, 64, 56
1, 808994, Note_off_c, 0, 62, 59
1, 808998, Control_c, 0, 64, 58
1, 809013, Control_c, 0, 64, 58
1, 809027, Control_c, 0, 64, 53
1, 809042, Control_c, 0, 64, 39
1, 809058, Control_c, 0, 64, 24
1, 809066, Note_on_c, 0, 49, 88
1, 809070, Note_on_c, 0, 61, 86
1, 809074, Note_on_c, 0, 37, 81
1, 809088, Control_c, 0, 64, 35
1, 809103, Control_c, 0, 64, 47
1, 809118, Control_c, 0, 64, 55
1, 809129, Note_off_c, 0, 49, 63
1, 809132, Control_c, 0, 64, 60
1, 809140, Note_off_c, 0, 37, 62
1, 809147, Control_c, 0, 64, 63
1, 809150, Note_off_c, 0, 61, 62
1, 809162, Control_c, 0, 64, 60
1, 809176, Control_c, 0, 64, 39
1, 809191, Control_c, 0, 64, 0
1, 809222, Note_on_c, 0, 59, 98
1, 809226, Note_on_c, 0, 47, 90
1, 809230, Note_on_c, 0, 35, 81
1, 809250, Control_c, 0, 64, 59
1, 809265, Control_c, 0, 64, 69
1, 809268, Note_off_c, 0, 47, 64
1, 809277, Note_off_c, 0, 35, 62
1, 809280, Control_c, 0, 64, 73
1, 809283, Note_off_c, 0, 59, 62
1, 809295, Control_c, 0, 64, 72
1, 809310, Control_c, 0, 64, 64
1, 809331, Control_c, 0, 64, 0
1, 809375, Note_on_c, 0, 45, 96
1, 809376, Note_on_c, 0, 33, 90
1, 809379, Note_on_c, 0, 57, 92
1, 809406, Control_c, 0, 64, 57
1, 809420, Control_c, 0, 64, 69
1, 809421, Note_off_c, 0, 45, 65
1, 809429, Note_off_c, 0, 33, 59
1, 809435, Control_c, 0, 64, 71
1, 809447, Note_off_c, 0, 57, 61
1, 809465, Control_c, 0, 64, 69
1, 809480, Control_c, 0, 64, 68
1, 809495, Control_c, 0, 64, 68
1, 809509, Control_c, 0, 64, 68
1, 809519, Note_on_c, 0, 44, 94
1, 809522, Note_on_c, 0, 56, 95
1, 809526, Note_on_c, 0, 32, 82
1, 809539, Control_c, 0, 64, 68
1, 809554, Control_c, 0, 64, 67
1, 809569, Control_c, 0, 64, 66
1, 809576, Note_off_c, 0, 44, 63
1, 809583, Control_c, 0, 64, 64
1, 809591, Note_off_c, 0, 32, 59
1, 809598, Control_c, 0, 64, 0
1, 809620, Note_off_c, 0, 56, 63
1, 809680, Note_on_c, 0, 42, 99
1, 809683, Note_on_c, 0, 30, 88
1, 809687, Note_on_c, 0, 54, 100
1, 809687, Control_c, 0, 64, 37
1, 809701, Control_c, 0, 64, 77
1, 809716, Note_off_c, 0, 30, 65
1, 809716, Control_c, 0, 64, 112
1, 809722, Note_off_c, 0, 42, 66
1, 809730, Note_off_c, 0, 54, 68
1, 809731, Control_c, 0, 64, 127
1, 809940, Control_c, 0, 64, 109
1, 809954, Control_c, 0, 64, 91
1, 809969, Control_c, 0, 64, 74
1, 809984, Control_c, 0, 64, 45
1, 809999, Control_c, 0, 64, 0
1, 810060, Note_on_c, 0, 42, 75
1, 810086, Note_on_c, 0, 45, 74
1, 810121, Note_on_c, 0, 49, 84
1, 810165, Note_off_c, 0, 42, 65
1, 810169, Control_c, 0, 64, 61
1, 810171, Note_on_c, 0, 73, 70
1, 810173, Note_on_c, 0, 78, 101
1, 810175, Note_on_c, 0, 66, 109
1, 810175, Note_on_c, 0, 57, 103
1, 810178, Note_on_c, 0, 69, 80
1, 810184, Control_c, 0, 64, 85
1, 810194, Note_off_c, 0, 45, 64
1, 810199, Control_c, 0, 64, 127
1, 810205, Note_off_c, 0, 69, 63
1, 810215, Note_off_c, 0, 57, 67
1, 810223, Note_off_c, 0, 66, 65
1, 810227, Note_off_c, 0, 49, 65
1, 810243, Note_off_c, 0, 73, 61
1, 810248, Note_off_c, 0, 78, 67
1, 810282, Poly_aftertouch_c, 0, 46, 0
1, 810554, Control_c, 0, 64, 124
1, 810569, Control_c, 0, 64, 100
1, 810584, Control_c, 0, 64, 88
1, 810598, Control_c, 0, 64, 75
1, 810600, Note_on_c, 0, 54, 83
1, 810613, Control_c, 0, 64, 48
1, 810622, Note_on_c, 0, 57, 72
1, 810628, Control_c, 0, 64, 0
1, 810658, Note_on_c, 0, 61, 83
1, 810704, Note_off_c, 0, 54, 65
1, 810718, Control_c, 0, 64, 43
1, 810733, Control_c, 0, 64, 74
1, 810735, Note_on_c, 0, 85, 89
1, 810737, Note_on_c, 0, 81, 89
1, 810737, Note_on_c, 0, 90, 104
1, 810738, Note_on_c, 0, 78, 106
1, 810746, Note_on_c, 0, 69, 92
1, 810747, Control_c, 0, 64, 103
1, 810762, Control_c, 0, 64, 127
1, 810812, Note_off_c, 0, 57, 48
1, 810850, Note_off_c, 0, 61, 64
1, 810854, Note_off_c, 0, 69, 64
1, 810982, Note_off_c, 0, 78, 58
1, 811018, Note_off_c, 0, 81, 60
1, 811034, Note_off_c, 0, 90, 64
1, 811047, Note_off_c, 0, 85, 60
1, 811436, Control_c, 0, 64, 111
1, 811453, Control_c, 0, 64, 100
1, 811468, Control_c, 0, 64, 91
1, 811483, Control_c, 0, 64, 80
1, 811498, Control_c, 0, 64, 68
1, 811513, Control_c, 0, 64, 0
1, 811933, Note_on_c, 0, 62, 94
1, 811939, Note_on_c, 0, 50, 90
1, 811949, Control_c, 0, 64, 49
1, 811964, Control_c, 0, 64, 67
1, 811978, Control_c, 0, 64, 73
1, 811993, Control_c, 0, 64, 82
1, 812008, Control_c, 0, 64, 93
1, 812023, Control_c, 0, 64, 105
1, 812038, Control_c, 0, 64, 112
1, 812053, Control_c, 0, 64, 114
1, 812067, Control_c, 0, 64, 117
1, 812082, Control_c, 0, 64, 126
1, 812096, Note_off_c, 0, 62, 63
1, 812097, Control_c, 0, 64, 127
1, 812125, Note_off_c, 0, 50, 63
1, 812186, Control_c, 0, 64, 98
1, 812188, Note_on_c, 0, 61, 99
1, 812195, Note_on_c, 0, 49, 96
1, 812201, Control_c, 0, 64, 78
1, 812216, Control_c, 0, 64, 62
1, 812231, Control_c, 0, 64, 63
1, 812246, Control_c, 0, 64, 70
1, 812261, Control_c, 0, 64, 76
1, 812276, Control_c, 0, 64, 84
1, 812291, Control_c, 0, 64, 92
1, 812306, Note_off_c, 0, 61, 63
1, 812306, Control_c, 0, 64, 99
1, 812327, Control_c, 0, 64, 102
1, 812331, Note_off_c, 0, 49, 62
1, 812342, Control_c, 0, 64, 103
1, 812357, Control_c, 0, 64, 104
1, 812372, Control_c, 0, 64, 105
1, 812387, Control_c, 0, 64, 109
1, 812401, Control_c, 0, 64, 114
1, 812416, Control_c, 0, 64, 116
1, 812431, Control_c, 0, 64, 116
1, 812446, Control_c, 0, 64, 113
1, 812458, Note_on_c, 0, 56, 95
1, 812461, Control_c, 0, 64, 90
1, 812467, Note_on_c, 0, 44, 81
1, 812476, Control_c, 0, 64, 52
1, 812491, Control_c, 0, 64, 0
1, 812494, Note_off_c, 0, 56, 62
1, 812503, Note_off_c, 0, 44, 63
1, 812576, Note_on_c, 0, 57, 93
1, 812583, Note_on_c, 0, 45, 88
1, 812614, Note_off_c, 0, 57, 64
1, 812615, Note_off_c, 0, 45, 63
1, 812702, Note_on_c, 0, 54, 95
1, 812707, Note_on_c, 0, 42, 92
1, 812713, Control_c, 0, 64, 11
1, 812727, Control_c, 0, 64, 71
1, 812742, Control_c, 0, 64, 82
1, 812757, Control_c, 0, 64, 98
1, 812772, Control_c, 0, 64, 112
1, 812787, Control_c, 0, 64, 127
1, 812799, Note_off_c, 0, 54, 66
1, 812837, Note_off_c, 0, 42, 57
1, 812940, Note_on_c, 0, 52, 90
1, 812942, Note_on_c, 0, 40, 84
1, 812965, Control_c, 0, 64, 109
1, 812969, Note_off_c, 0, 40, 68
1, 812978, Note_off_c, 0, 52, 62
1, 812980, Control_c, 0, 64, 75
1, 812994, Control_c, 0, 64, 0
1, 813053, Note_on_c, 0, 54, 91
1, 813063, Note_on_c, 0, 42, 81
1, 813099, Note_off_c, 0, 54, 62
1, 813110, Note_off_c, 0, 42, 59
1, 813193, Note_on_c, 0, 50, 95
1, 813195, Control_c, 0, 64, 66
1, 813197, Note_on_c, 0, 38, 90
1, 813210, Control_c, 0, 64, 77
1, 813224, Control_c, 0, 64, 88
1, 813239, Control_c, 0, 64, 100
1, 813243, Note_off_c, 0, 50, 66
1, 813245, Note_off_c, 0, 38, 62
1, 813254, Control_c, 0, 64, 104
1, 813269, Control_c, 0, 64, 106
1, 813284, Control_c, 0, 64, 106
1, 813313, Control_c, 0, 64, 107
1, 813388, Control_c, 0, 64, 107
1, 813403, Control_c, 0, 64, 108
1, 813432, Control_c, 0, 64, 107
1, 813441, Note_on_c, 0, 49, 90
1, 813447, Note_on_c, 0, 37, 76
1, 813447, Control_c, 0, 64, 90
1, 813462, Control_c, 0, 64, 66
1, 813464, Note_off_c, 0, 49, 71
1, 813477, Control_c, 0, 64, 0
1, 813480, Note_off_c, 0, 37, 65
1, 813558, Note_on_c, 0, 50, 82
1, 813562, Note_on_c, 0, 38, 80
1, 813582, Note_off_c, 0, 50, 68
1, 813593, Note_off_c, 0, 38, 67
1, 813668, Control_c, 0, 64, 66
1, 813683, Control_c, 0, 64, 73
1, 813686, Note_on_c, 0, 47, 94
1, 813688, Note_on_c, 0, 35, 86
1, 813698, Control_c, 0, 64, 79
1, 813713, Control_c, 0, 64, 84
1, 813728, Control_c, 0, 64, 88
1, 813728, Note_off_c, 0, 47, 66
1, 813731, Note_off_c, 0, 35, 62
1, 813742, Control_c, 0, 64, 91
1, 813757, Control_c, 0, 64, 93
1, 813772, Control_c, 0, 64, 94
1, 813787, Control_c, 0, 64, 94
1, 813802, Control_c, 0, 64, 95
1, 813823, Control_c, 0, 64, 97
1, 813838, Control_c, 0, 64, 97
1, 813869, Control_c, 0, 64, 92
1, 813884, Control_c, 0, 64, 75
1, 813899, Control_c, 0, 64, 0
1, 813914, Control_c, 0, 64, 31
1, 813927, Note_on_c, 0, 45, 91
1, 813928, Control_c, 0, 64, 65
1, 813929, Note_on_c, 0, 59, 91
1, 813931, Note_on_c, 0, 33, 85
1, 813933, Note_on_c, 0, 71, 94
1, 813943, Note_on_c, 0, 66, 55
1, 813943, Control_c, 0, 64, 72
1, 813948, Note_off_c, 0, 59, 68
1, 813952, Note_off_c, 0, 45, 70
1, 813958, Control_c, 0, 64, 78
1, 813959, Note_off_c, 0, 33, 64
1, 813965, Note_off_c, 0, 66, 61
1, 813972, Control_c, 0, 64, 86
1, 813981, Note_off_c, 0, 71, 67
1, 813987, Control_c, 0, 64, 94
1, 814002, Control_c, 0, 64, 97
1, 814017, Control_c, 0, 64, 98
1, 814049, Note_on_c, 0, 47, 87
1, 814054, Note_on_c, 0, 35, 77
1, 814075, Note_off_c, 0, 47, 68
1, 814084, Note_off_c, 0, 35, 66
1, 814091, Control_c, 0, 64, 91
1, 814106, Control_c, 0, 64, 74
1, 814121, Control_c, 0, 64, 0
1, 814165, Control_c, 0, 64, 65
1, 814170, Note_on_c, 0, 43, 99
1, 814175, Note_on_c, 0, 31, 90
1, 814175, Note_on_c, 0, 71, 98
1, 814175, Note_on_c, 0, 83, 102
1, 814180, Control_c, 0, 64, 79
1, 814195, Control_c, 0, 64, 94
1, 814202, Note_off_c, 0, 31, 64
1, 814204, Note_off_c, 0, 71, 68
1, 814208, Note_off_c, 0, 43, 66
1, 814210, Control_c, 0, 64, 110
1, 814217, Note_off_c, 0, 83, 69
1, 814225, Control_c, 0, 64, 115
1, 814239, Control_c, 0, 64, 117
1, 814254, Control_c, 0, 64, 118
1, 814269, Control_c, 0, 64, 119
1, 814284, Control_c, 0, 64, 120
1, 814328, Control_c, 0, 64, 121
1, 814343, Control_c, 0, 64, 122
1, 814372, Control_c, 0, 64, 121
1, 814387, Control_c, 0, 64, 110
1, 814402, Control_c, 0, 64, 85
1, 814415, Note_on_c, 0, 55, 79
1, 814415, Note_on_c, 0, 59, 82
1, 814417, Control_c, 0, 64, 52
1, 814419, Note_on_c, 0, 52, 75
1, 814424, Note_on_c, 0, 78, 93
1, 814426, Note_on_c, 0, 66, 78
1, 814432, Control_c, 0, 64, 0
1, 814446, Note_off_c, 0, 66, 70
1, 814467, Note_off_c, 0, 78, 57
1, 814506, Control_c, 0, 64, 46
1, 814521, Control_c, 0, 64, 62
1, 814521, Note_off_c, 0, 59, 60
1, 814532, Note_on_c, 0, 79, 84
1, 814533, Note_on_c, 0, 67, 84
1, 814536, Control_c, 0, 64, 65
1, 814541, Note_off_c, 0, 55, 64
1, 814551, Control_c, 0, 64, 66
1, 814554, Note_off_c, 0, 52, 62
1, 814556, Note_off_c, 0, 67, 66
1, 814573, Note_off_c, 0, 79, 64
1, 814580, Note_on_c, 0, 77, 22
1, 814581, Note_off_c, 0, 77, 127
1, 814587, Control_c, 0, 64, 66
1, 814602, Control_c, 0, 64, 67
1, 814617, Control_c, 0, 64, 68
1, 814632, Control_c, 0, 64, 65
1, 814648, Control_c, 0, 64, 54
1, 814663, Control_c, 0, 64, 0
1, 814664, Note_on_c, 0, 76, 93
1, 814667, Note_on_c, 0, 64, 83
1, 814736, Control_c, 0, 64, 55
1, 814751, Control_c, 0, 64, 64
1, 814766, Control_c, 0, 64, 66
1, 814777, Note_off_c, 0, 64, 60
1, 814780, Note_off_c, 0, 76, 56
1, 814781, Control_c, 0, 64, 68
1, 814795, Control_c, 0, 64, 69
1, 814810, Control_c, 0, 64, 70
1, 814825, Control_c, 0, 64, 71
1, 814840, Control_c, 0, 64, 74
1, 814855, Control_c, 0, 64, 75
1, 814870, Control_c, 0, 64, 66
1, 814884, Control_c, 0, 64, 0
1, 814892, Note_on_c, 0, 42, 82
1, 814896, Note_on_c, 0, 62, 84
1, 814899, Note_on_c, 0, 30, 80
1, 814899, Note_on_c, 0, 74, 93
1, 814922, Note_off_c, 0, 42, 67
1, 814922, Note_off_c, 0, 62, 67
1, 814931, Note_off_c, 0, 30, 64
1, 814941, Note_off_c, 0, 74, 63
1, 814959, Control_c, 0, 64, 39
1, 814974, Control_c, 0, 64, 63
1, 814989, Control_c, 0, 64, 70
1, 815003, Control_c, 0, 64, 74
1, 815004, Note_on_c, 0, 76, 94
1, 815005, Note_on_c, 0, 64, 86
1, 815011, Note_on_c, 0, 43, 80
1, 815018, Note_on_c, 0, 31, 74
1, 815018, Control_c, 0, 64, 77
1, 815031, Note_off_c, 0, 64, 66
1, 815033, Control_c, 0, 64, 73
1, 815039, Note_off_c, 0, 43, 67
1, 815045, Note_off_c, 0, 31, 65
1, 815045, Note_off_c, 0, 76, 63
1, 815048, Control_c, 0, 64, 61
1, 815063, Control_c, 0, 64, 0
1, 815118, Note_on_c, 0, 40, 95
1, 815123, Note_on_c, 0, 28, 89
1, 815125, Note_on_c, 0, 73, 100
1, 815130, Note_on_c, 0, 61, 90
1, 815136, Control_c, 0, 64, 65
1, 815147, Note_off_c, 0, 28, 64
1, 815151, Control_c, 0, 64, 72
1, 815157, Note_off_c, 0, 40, 67
1, 815166, Control_c, 0, 64, 79
1, 815181, Control_c, 0, 64, 84
1, 815192, Note_off_c, 0, 61, 55
1, 815196, Control_c, 0, 64, 87
1, 815228, Note_off_c, 0, 73, 59
1, 815300, Control_c, 0, 64, 85
1, 815322, Control_c, 0, 64, 72
1, 815337, Control_c, 0, 64, 0
1, 815373, Note_on_c, 0, 59, 88
1, 815373, Note_on_c, 0, 71, 90
1, 815375, Note_on_c, 0, 55, 83
1, 815380, Note_on_c, 0, 52, 71
1, 815400, Note_off_c, 0, 59, 64
1, 815416, Note_off_c, 0, 55, 61
1, 815422, Note_off_c, 0, 71, 63
1, 815426, Control_c, 0, 64, 14
1, 815441, Control_c, 0, 64, 61
1, 815444, Note_off_c, 0, 52, 62
1, 815457, Control_c, 0, 64, 66
1, 815472, Control_c, 0, 64, 69
1, 815481, Note_on_c, 0, 61, 92
1, 815484, Note_on_c, 0, 73, 93
1, 815487, Control_c, 0, 64, 70
1, 815501, Control_c, 0, 64, 71
1, 815512, Note_off_c, 0, 61, 63
1, 815516, Control_c, 0, 64, 72
1, 815531, Control_c, 0, 64, 69
1, 815531, Note_off_c, 0, 73, 63
1, 815545, Control_c, 0, 64, 60
1, 815560, Control_c, 0, 64, 0
1, 815603, Note_on_c, 0, 58, 98
1, 815604, Note_on_c, 0, 70, 97
1, 815605, Control_c, 0, 64, 50
1, 815619, Control_c, 0, 64, 63
1, 815634, Control_c, 0, 64, 68
1, 815649, Control_c, 0, 64, 70
1, 815664, Control_c, 0, 64, 73
1, 815679, Control_c, 0, 64, 76
1, 815693, Control_c, 0, 64, 78
1, 815708, Control_c, 0, 64, 80
1, 815723, Control_c, 0, 64, 82
1, 815734, Note_off_c, 0, 58, 59
1, 815738, Control_c, 0, 64, 83
1, 815749, Note_off_c, 0, 70, 57
1, 815767, Control_c, 0, 64, 80
1, 815782, Control_c, 0, 64, 72
1, 815797, Control_c, 0, 64, 53
1, 815812, Control_c, 0, 64, 57
1, 815826, Control_c, 0, 64, 66
1, 815832, Note_on_c, 0, 54, 100
1, 815839, Note_on_c, 0, 42, 81
1, 815841, Control_c, 0, 64, 72
1, 815842, Note_on_c, 0, 71, 91
1, 815844, Note_on_c, 0, 59, 83
1, 815856, Control_c, 0, 64, 77
1, 815862, Note_off_c, 0, 42, 67
1, 815865, Note_off_c, 0, 54, 63
1, 815868, Note_off_c, 0, 59, 65
1, 815871, Control_c, 0, 64, 83
1, 815883, Note_off_c, 0, 71, 64
1, 815886, Control_c, 0, 64, 88
1, 815901, Control_c, 0, 64, 94
1, 815916, Control_c, 0, 64, 96
1, 815931, Control_c, 0, 64, 98
1, 815944, Note_on_c, 0, 61, 96
1, 815945, Control_c, 0, 64, 100
1, 815946, Note_on_c, 0, 73, 97
1, 815960, Control_c, 0, 64, 103
1, 815975, Control_c, 0, 64, 103
1, 815990, Control_c, 0, 64, 100
1, 815990, Note_off_c, 0, 61, 63
1, 816005, Control_c, 0, 64, 86
1, 816018, Note_off_c, 0, 73, 57
1, 816019, Control_c, 0, 64, 68
1, 816034, Control_c, 0, 64, 0
1, 816049, Control_c, 0, 64, 59
1, 816064, Control_c, 0, 64, 67
1, 816076, Note_on_c, 0, 62, 93
1, 816077, Note_on_c, 0, 66, 102
1, 816080, Note_on_c, 0, 54, 91
1, 816080, Note_on_c, 0, 74, 106
1, 816086, Control_c, 0, 64, 72
1, 816101, Control_c, 0, 64, 78
1, 816106, Note_off_c, 0, 62, 60
1, 816116, Control_c, 0, 64, 85
1, 816121, Note_off_c, 0, 66, 65
1, 816127, Note_off_c, 0, 74, 70
1, 816130, Control_c, 0, 64, 90
1, 816137, Note_off_c, 0, 54, 65
1, 816145, Control_c, 0, 64, 92
1, 816160, Control_c, 0, 64, 93
1, 816175, Control_c, 0, 64, 94
1, 816190, Control_c, 0, 64, 94
1, 816205, Control_c, 0, 64, 95
1, 816219, Control_c, 0, 64, 97
1, 816234, Control_c, 0, 64, 98
1, 816279, Control_c, 0, 64, 90
1, 816294, Control_c, 0, 64, 73
1, 816309, Control_c, 0, 64, 0
1, 816315, Note_on_c, 0, 61, 89
1, 816317, Note_on_c, 0, 83, 96
1, 816317, Note_on_c, 0, 71, 87
1, 816324, Note_on_c, 0, 49, 69
1, 816335, Note_off_c, 0, 61, 70
1, 816338, Note_off_c, 0, 71, 68
1, 816342, Note_on_c, 0, 78, 45
1, 816360, Note_off_c, 0, 49, 62
1, 816363, Note_off_c, 0, 83, 66
1, 816368, Control_c, 0, 64, 58
1, 816369, Note_off_c, 0, 78, 57
1, 816383, Control_c, 0, 64, 65
1, 816398, Control_c, 0, 64, 69
1, 816413, Control_c, 0, 64, 72
1, 816428, Control_c, 0, 64, 75
1, 816429, Note_on_c, 0, 62, 84
1, 816431, Note_on_c, 0, 50, 79
1, 816442, Control_c, 0, 64, 79
1, 816453, Note_off_c, 0, 62, 66
1, 816457, Control_c, 0, 64, 81
1, 816472, Control_c, 0, 64, 80
1, 816473, Note_off_c, 0, 50, 63
1, 816487, Control_c, 0, 64, 73
1, 816501, Control_c, 0, 64, 54
1, 816516, Control_c, 0, 64, 0
1, 816552, Note_on_c, 0, 59, 92
1, 816554, Note_on_c, 0, 47, 84
1, 816590, Control_c, 0, 64, 54
1, 816594, Note_off_c, 0, 59, 63
1, 816605, Control_c, 0, 64, 62
1, 816607, Note_off_c, 0, 47, 63
1, 816620, Control_c, 0, 64, 63
1, 816635, Control_c, 0, 64, 64
1, 816649, Control_c, 0, 64, 65
1, 816664, Control_c, 0, 64, 66
1, 816679, Control_c, 0, 64, 68
1, 816694, Control_c, 0, 64, 70
1, 816709, Control_c, 0, 64, 70
1, 816724, Control_c, 0, 64, 67
1, 816739, Control_c, 0, 64, 42
1, 816753, Control_c, 0, 64, 0
1, 816772, Note_on_c, 0, 57, 80
1, 816774, Note_on_c, 0, 45, 78
1, 816781, Note_on_c, 0, 73, 91
1, 816785, Note_on_c, 0, 61, 87
1, 816796, Note_off_c, 0, 57, 69
1, 816804, Note_off_c, 0, 45, 68
1, 816806, Note_off_c, 0, 61, 70
1, 816835, Control_c, 0, 64, 59
1, 816840, Note_off_c, 0, 73, 60
1, 816849, Control_c, 0, 64, 67
1, 816864, Control_c, 0, 64, 71
1, 816879, Control_c, 0, 64, 74
1, 816889, Note_on_c, 0, 59, 85
1, 816891, Note_on_c, 0, 47, 85
1, 816894, Control_c, 0, 64, 78
1, 816894, Note_on_c, 0, 63, 93
1, 816895, Note_on_c, 0, 75, 96
1, 816908, Control_c, 0, 64, 81
1, 816913, Note_off_c, 0, 59, 66
1, 816923, Note_off_c, 0, 47, 64
1, 816938, Note_off_c, 0, 63, 59
1, 816938, Control_c, 0, 64, 71
1, 816941, Note_off_c, 0, 75, 64
1, 816953, Control_c, 0, 64, 0
1, 816998, Note_on_c, 0, 55, 98
1, 817001, Note_on_c, 0, 43, 95
1, 817008, Note_on_c, 0, 64, 87
1, 817008, Note_on_c, 0, 76, 102
1, 817013, Control_c, 0, 64, 42
1, 817027, Note_off_c, 0, 64, 74
1, 817028, Control_c, 0, 64, 67
1, 817039, Note_off_c, 0, 55, 67
1, 817043, Control_c, 0, 64, 79
1, 817045, Note_off_c, 0, 43, 63
1, 817046, Note_off_c, 0, 76, 69
1, 817058, Control_c, 0, 64, 88
1, 817072, Control_c, 0, 64, 93
1, 817087, Control_c, 0, 64, 94
1, 817177, Control_c, 0, 64, 88
1, 817191, Control_c, 0, 64, 69
1, 817206, Control_c, 0, 64, 0
1, 817238, Note_on_c, 0, 54, 93
1, 817241, Note_on_c, 0, 76, 96
1, 817241, Note_on_c, 0, 88, 102
1, 817242, Note_on_c, 0, 42, 80
1, 817265, Control_c, 0, 64, 56
1, 817270, Note_off_c, 0, 76, 63
1, 817272, Note_off_c, 0, 54, 64
1, 817278, Note_off_c, 0, 88, 67
1, 817280, Control_c, 0, 64, 69
1, 817285, Note_off_c, 0, 42, 60
1, 817295, Control_c, 0, 64, 76
1, 817310, Control_c, 0, 64, 83
1, 817324, Control_c, 0, 64, 88
1, 817339, Control_c, 0, 64, 91
1, 817350, Note_on_c, 0, 55, 86
1, 817354, Control_c, 0, 64, 93
1, 817357, Note_on_c, 0, 43, 81
1, 817369, Control_c, 0, 64, 96
1, 817379, Note_off_c, 0, 55, 64
1, 817384, Control_c, 0, 64, 98
1, 817392, Note_off_c, 0, 43, 65
1, 817398, Control_c, 0, 64, 99
1, 817413, Control_c, 0, 64, 96
1, 817428, Control_c, 0, 64, 75
1, 817442, Control_c, 0, 64, 0
1, 817472, Note_on_c, 0, 52, 101
1, 817473, Note_on_c, 0, 40, 93
1, 817514, Note_off_c, 0, 52, 64
1, 817515, Control_c, 0, 64, 39
1, 817517, Note_off_c, 0, 40, 65
1, 817530, Control_c, 0, 64, 64
1, 817545, Control_c, 0, 64, 71
1, 817567, Control_c, 0, 64, 75
1, 817582, Control_c, 0, 64, 80
1, 817597, Control_c, 0, 64, 83
1, 817612, Control_c, 0, 64, 86
1, 817627, Control_c, 0, 64, 86
1, 817641, Control_c, 0, 64, 82
1, 817656, Control_c, 0, 64, 65
1, 817671, Control_c, 0, 64, 0
1, 817715, Control_c, 0, 64, 58
1, 817716, Note_on_c, 0, 50, 95
1, 817719, Note_on_c, 0, 65, 95
1, 817719, Note_on_c, 0, 77, 98
1, 817720, Note_on_c, 0, 38, 88
1, 817730, Control_c, 0, 64, 71
1, 817740, Note_off_c, 0, 65, 68
1, 817745, Control_c, 0, 64, 83
1, 817746, Note_off_c, 0, 38, 69
1, 817746, Note_off_c, 0, 50, 67
1, 817760, Control_c, 0, 64, 96
1, 817761, Note_off_c, 0, 77, 69
1, 817775, Control_c, 0, 64, 106
1, 817789, Control_c, 0, 64, 113
1, 817804, Control_c, 0, 64, 122
1, 817819, Control_c, 0, 64, 127
1, 817841, Note_on_c, 0, 52, 92
1, 817845, Note_on_c, 0, 40, 86
1, 817870, Note_off_c, 0, 52, 62
1, 817878, Note_off_c, 0, 40, 64
1, 817938, Control_c, 0, 64, 88
1, 817953, Control_c, 0, 64, 24
1, 817968, Control_c, 0, 64, 0
1, 817988, Note_on_c, 0, 81, 65
1, 817990, Note_on_c, 0, 48, 99
1, 817991, Note_on_c, 0, 77, 98
1, 817991, Note_on_c, 0, 89, 111
1, 817996, Note_on_c, 0, 36, 91
1, 818012, Control_c, 0, 64, 58
1, 818027, Control_c, 0, 64, 72
1, 818034, Note_on_c, 0, 87, 42
1, 818042, Control_c, 0, 64, 82
1, 818057, Control_c, 0, 64, 93
1, 818065, Note_off_c, 0, 87, 57
1, 818072, Control_c, 0, 64, 103
1, 818074, Note_off_c, 0, 77, 55
1, 818076, Note_off_c, 0, 48, 54
1, 818079, Note_off_c, 0, 89, 60
1, 818083, Note_off_c, 0, 36, 54
1, 818086, Control_c, 0, 64, 107
1, 818101, Control_c, 0, 64, 109
1, 818116, Note_off_c, 0, 81, 63
1, 818116, Control_c, 0, 64, 112
1, 818131, Control_c, 0, 64, 117
1, 818146, Control_c, 0, 64, 127
1, 818235, Control_c, 0, 64, 81
1, 818246, Note_on_c, 0, 83, 87
1, 818247, Note_on_c, 0, 45, 73
1, 818250, Note_on_c, 0, 48, 78
1, 818250, Note_on_c, 0, 71, 74
1, 818250, Control_c, 0, 64, 0
1, 818258, Note_on_c, 0, 36, 63
1, 818265, Note_off_c, 0, 71, 70
1, 818272, Note_off_c, 0, 83, 66
1, 818368, Note_on_c, 0, 84, 86
1, 818387, Note_off_c, 0, 84, 68
1, 818394, Note_on_c, 0, 72, 38
1, 818395, Note_off_c, 0, 72, 127
1, 818444, Note_off_c, 0, 48, 61
1, 818453, Note_off_c, 0, 36, 57
1, 818456, Note_off_c, 0, 45, 61
1, 818489, Note_on_c, 0, 81, 83
1, 818494, Control_c, 0, 64, 55
1, 818499, Note_on_c, 0, 69, 65
1, 818509, Control_c, 0, 64, 64
1, 818524, Control_c, 0, 64, 70
1, 818539, Control_c, 0, 64, 74
1, 818554, Control_c, 0, 64, 79
1, 818569, Control_c, 0, 64, 82
1, 818584, Control_c, 0, 64, 83
1, 818599, Control_c, 0, 64, 84
1, 818602, Note_on_c, 0, 48, 73
1, 818608, Note_on_c, 0, 45, 62
1, 818613, Control_c, 0, 64, 85
1, 818627, Note_off_c, 0, 48, 66
1, 818637, Note_off_c, 0, 69, 60
1, 818640, Note_off_c, 0, 45, 65
1, 818641, Note_off_c, 0, 81, 40
1, 818658, Control_c, 0, 64, 83
1, 818673, Control_c, 0, 64, 70
1, 818688, Control_c, 0, 64, 0
1, 818720, Note_on_c, 0, 45, 74
1, 818720, Note_on_c, 0, 49, 90
1, 818728, Note_on_c, 0, 67, 79
1, 818728, Note_on_c, 0, 79, 89
1, 818731, Note_on_c, 0, 37, 67
1, 818748, Note_off_c, 0, 67, 70
1, 818753, Note_off_c, 0, 79, 63
1, 818844, Note_on_c, 0, 81, 83
1, 818852, Note_on_c, 0, 69, 61
1, 818864, Note_off_c, 0, 81, 67
1, 818872, Note_off_c, 0, 69, 64
1, 818910, Control_c, 0, 64, 38
1, 818925, Control_c, 0, 64, 66
1, 818940, Control_c, 0, 64, 72
1, 818941, Note_off_c, 0, 49, 62
1, 818953, Note_off_c, 0, 37, 61
1, 818954, Note_off_c, 0, 45, 61
1, 818955, Control_c, 0, 64, 75
1, 818956, Note_on_c, 0, 77, 82
1, 818961, Note_on_c, 0, 65, 74
1, 818970, Control_c, 0, 64, 80
1, 818985, Control_c, 0, 64, 85
1, 819000, Control_c, 0, 64, 88
1, 819015, Control_c, 0, 64, 90
1, 819029, Control_c, 0, 64, 92
1, 819044, Control_c, 0, 64, 93
1, 819067, Control_c, 0, 64, 94
1, 819082, Control_c, 0, 64, 95
1, 819082, Note_on_c, 0, 49, 84
1, 819086, Note_on_c, 0, 37, 71
1, 819088, Note_on_c, 0, 45, 73
1, 819096, Control_c, 0, 64, 95
1, 819111, Note_off_c, 0, 49, 66
1, 819111, Control_c, 0, 64, 96
1, 819113, Note_off_c, 0, 77, 59
1, 819117, Note_off_c, 0, 65, 61
1, 819120, Note_off_c, 0, 37, 66
1, 819121, Note_off_c, 0, 45, 64
1, 819156, Control_c, 0, 64, 89
1, 819170, Control_c, 0, 64, 68
1, 819185, Control_c, 0, 64, 0
1, 819198, Note_on_c, 0, 45, 73
1, 819199, Note_on_c, 0, 50, 87
1, 819201, Note_on_c, 0, 64, 91
1, 819202, Note_on_c, 0, 76, 96
1, 819210, Note_on_c, 0, 38, 69
1, 819225, Note_off_c, 0, 64, 67
1, 819237, Note_off_c, 0, 76, 63
1, 819311, Note_on_c, 0, 77, 94
1, 819313, Note_on_c, 0, 65, 81
1, 819335, Note_off_c, 0, 65, 70
1, 819338, Note_off_c, 0, 77, 59
1, 819394, Note_off_c, 0, 50, 63
1, 819397, Note_off_c, 0, 45, 61
1, 819403, Note_off_c, 0, 38, 60
1, 819407, Control_c, 0, 64, 51
1, 819422, Control_c, 0, 64, 63
1, 819428, Note_on_c, 0, 74, 87
1, 819435, Note_on_c, 0, 62, 74
1, 819438, Control_c, 0, 64, 68
1, 819453, Control_c, 0, 64, 71
1, 819467, Control_c, 0, 64, 74
1, 819482, Control_c, 0, 64, 75
1, 819497, Control_c, 0, 64, 76
1, 819511, Control_c, 0, 64, 77
1, 819526, Control_c, 0, 64, 79
1, 819541, Control_c, 0, 64, 82
1, 819547, Note_on_c, 0, 50, 79
1, 819551, Note_on_c, 0, 45, 72
1, 819555, Note_on_c, 0, 38, 57
1, 819556, Control_c, 0, 64, 85
1, 819562, Note_off_c, 0, 74, 58
1, 819571, Control_c, 0, 64, 87
1, 819573, Note_off_c, 0, 50, 68
1, 819574, Note_off_c, 0, 62, 60
1, 819582, Note_off_c, 0, 38, 57
1, 819585, Note_off_c, 0, 45, 66
1, 819600, Control_c, 0, 64, 82
1, 819615, Control_c, 0, 64, 63
1, 819630, Control_c, 0, 64, 0
1, 819649, Note_on_c, 0, 51, 96
1, 819651, Note_on_c, 0, 45, 76
1, 819654, Note_on_c, 0, 60, 84
1, 819654, Note_on_c, 0, 39, 84
1, 819654, Note_on_c, 0, 72, 89
1, 819674, Note_off_c, 0, 60, 69
1, 819690, Note_off_c, 0, 72, 63
1, 819747, Note_off_c, 0, 45, 64
1, 819748, Control_c, 0, 64, 56
1, 819760, Note_on_c, 0, 74, 91
1, 819761, Note_on_c, 0, 62, 84
1, 819763, Control_c, 0, 64, 64
1, 819777, Control_c, 0, 64, 70
1, 819788, Note_off_c, 0, 62, 65
1, 819792, Control_c, 0, 64, 75
1, 819795, Note_off_c, 0, 39, 61
1, 819797, Note_off_c, 0, 74, 64
1, 819815, Control_c, 0, 64, 80
1, 819822, Note_off_c, 0, 51, 61
1, 819830, Control_c, 0, 64, 84
1, 819845, Control_c, 0, 64, 87
1, 819859, Control_c, 0, 64, 90
1, 819874, Control_c, 0, 64, 93
1, 819875, Poly_aftertouch_c, 0, 72, 0
1, 819885, Note_on_c, 0, 71, 93
1, 819888, Note_on_c, 0, 59, 91
1, 819889, Control_c, 0, 64, 94
1, 819904, Control_c, 0, 64, 94
1, 819918, Control_c, 0, 64, 95
1, 819933, Control_c, 0, 64, 97
1, 819948, Control_c, 0, 64, 101
1, 819963, Control_c, 0, 64, 106
1, 819978, Control_c, 0, 64, 108
1, 819992, Note_on_c, 0, 51, 90
1, 819992, Control_c, 0, 64, 109
1, 819997, Note_off_c, 0, 71, 51
1, 819997, Note_on_c, 0, 45, 84
1, 820006, Note_on_c, 0, 39, 55
1, 820007, Control_c, 0, 64, 110
1, 820019, Note_off_c, 0, 59, 61
1, 820022, Control_c, 0, 64, 115
1, 820027, Note_on_c, 0, 42, 39
1, 820029, Note_off_c, 0, 51, 62
1, 820035, Note_off_c, 0, 39, 59
1, 820036, Control_c, 0, 64, 127
1, 820056, Note_off_c, 0, 45, 61
1, 820063, Note_off_c, 0, 42, 53
1, 820081, Control_c, 0, 64, 96
1, 820096, Control_c, 0, 64, 61
1, 820103, Note_on_c, 0, 47, 70
1, 820105, Note_on_c, 0, 53, 98
1, 820109, Note_on_c, 0, 57, 93
1, 820110, Note_on_c, 0, 41, 80
1, 820111, Control_c, 0, 64, 0
1, 820113, Note_on_c, 0, 69, 82
1, 820116, Note_on_c, 0, 63, 82
1, 820134, Note_off_c, 0, 57, 67
1, 820149, Note_off_c, 0, 63, 57
1, 820154, Note_off_c, 0, 69, 63
1, 820217, Note_on_c, 0, 71, 93
1, 820220, Note_on_c, 0, 59, 88
1, 820246, Control_c, 0, 64, 44
1, 820247, Note_off_c, 0, 59, 64
1, 820261, Control_c, 0, 64, 63
1, 820262, Note_on_c, 0, 69, 32
1, 820263, Note_off_c, 0, 69, 127
1, 820265, Note_off_c, 0, 71, 63
1, 820276, Control_c, 0, 64, 68
1, 820290, Control_c, 0, 64, 71
1, 820304, Note_off_c, 0, 41, 60
1, 820305, Control_c, 0, 64, 73
1, 820306, Note_off_c, 0, 53, 60
1, 820317, Note_off_c, 0, 47, 60
1, 820320, Control_c, 0, 64, 75
1, 820331, Note_on_c, 0, 68, 91
1, 820332, Note_on_c, 0, 56, 93
1, 820334, Control_c, 0, 64, 77
1, 820339, Note_on_c, 0, 64, 69
1, 820349, Control_c, 0, 64, 80
1, 820364, Control_c, 0, 64, 83
1, 820379, Control_c, 0, 64, 83
1, 820408, Control_c, 0, 64, 84
1, 820423, Control_c, 0, 64, 85
1, 820438, Control_c, 0, 64, 88
1, 820446, Note_on_c, 0, 52, 90
1, 820447, Note_on_c, 0, 40, 72
1, 820449, Note_on_c, 0, 47, 77
1, 820453, Control_c, 0, 64, 90
1, 820467, Note_off_c, 0, 64, 24
1, 820468, Control_c, 0, 64, 92
1, 820470, Note_off_c, 0, 56, 63
1, 820472, Note_off_c, 0, 40, 60
1, 820477, Note_off_c, 0, 52, 62
1, 820483, Control_c, 0, 64, 93
1, 820487, Note_off_c, 0, 68, 58
1, 820497, Control_c, 0, 64, 95
1, 820501, Note_off_c, 0, 47, 62
1, 820520, Poly_aftertouch_c, 0, 45, 127
1, 820527, Control_c, 0, 64, 89
1, 820542, Control_c, 0, 64, 69
1, 820551, Note_on_c, 0, 57, 87
1, 820551, Note_on_c, 0, 53, 93
1, 820552, Note_on_c, 0, 69, 85
1, 820553, Note_on_c, 0, 47, 67
1, 820554, Note_on_c, 0, 63, 79
1, 820564, Note_on_c, 0, 41, 82
1, 820564, Control_c, 0, 64, 0
1, 820571, Poly_aftertouch_c, 0, 45, 0
1, 820579, Note_off_c, 0, 57, 70
1, 820598, Note_off_c, 0, 63, 57
1, 820607, Note_off_c, 0, 69, 62
1, 820638, Control_c, 0, 64, 42
1, 820653, Control_c, 0, 64, 66
1, 820662, Note_on_c, 0, 71, 96
1, 820666, Note_on_c, 0, 59, 85
1, 820667, Control_c, 0, 64, 70
1, 820682, Control_c, 0, 64, 74
1, 820685, Note_off_c, 0, 41, 57
1, 820690, Note_off_c, 0, 59, 65
1, 820696, Note_off_c, 0, 53, 60
1, 820697, Control_c, 0, 64, 77
1, 820709, Note_off_c, 0, 47, 61
1, 820709, Note_off_c, 0, 71, 61
1, 820712, Control_c, 0, 64, 79
1, 820727, Control_c, 0, 64, 81
1, 820757, Control_c, 0, 64, 75
1, 820772, Control_c, 0, 64, 51
1, 820778, Note_on_c, 0, 68, 98
1, 820781, Note_on_c, 0, 56, 94
1, 820787, Control_c, 0, 64, 0
1, 820804, Note_on_c, 0, 58, 52
1, 820804, Note_off_c, 0, 56, 70
1, 820825, Note_off_c, 0, 68, 64
1, 820830, Note_off_c, 0, 58, 38
1, 820860, Control_c, 0, 64, 56
1, 820875, Control_c, 0, 64, 68
1, 820882, Note_on_c, 0, 52, 95
1, 820885, Note_on_c, 0, 47, 83
1, 820890, Control_c, 0, 64, 72
1, 820893, Note_on_c, 0, 40, 74
1, 820905, Control_c, 0, 64, 76
1, 820920, Control_c, 0, 64, 78
1, 820925, Note_off_c, 0, 52, 65
1, 820934, Control_c, 0, 64, 79
1, 820944, Note_off_c, 0, 47, 66
1, 820949, Control_c, 0, 64, 77
1, 820964, Control_c, 0, 64, 68
1, 820975, Note_off_c, 0, 40, 63
1, 820979, Control_c, 0, 64, 0
1, 821016, Note_on_c, 0, 64, 102
1, 821020, Note_on_c, 0, 52, 84
1, 821039, Control_c, 0, 64, 64
1, 821042, Note_off_c, 0, 52, 68
1, 821054, Note_off_c, 0, 64, 63
1, 821054, Control_c, 0, 64, 75
1, 821069, Control_c, 0, 64, 85
1, 821083, Control_c, 0, 64, 94
1, 821098, Control_c, 0, 64, 95
1, 821143, Control_c, 0, 64, 93
1, 821157, Control_c, 0, 64, 87
1, 821172, Control_c, 0, 64, 76
1, 821183, Poly_aftertouch_c, 0, 52, 0
1, 821188, Control_c, 0, 64, 61
1, 821203, Control_c, 0, 64, 0
1, 821286, Note_on_c, 0, 28, 83
1, 821286, Note_on_c, 0, 40, 93
1, 821324, Note_off_c, 0, 28, 67
1, 821341, Note_off_c, 0, 40, 66
1, 821344, Control_c, 0, 64, 39
1, 821359, Control_c, 0, 64, 65
1, 821373, Control_c, 0, 64, 73
1, 821388, Control_c, 0, 64, 83
1, 821403, Control_c, 0, 64, 93
1, 821418, Control_c, 0, 64, 100
1, 821433, Control_c, 0, 64, 101
1, 821447, Control_c, 0, 64, 102
1, 821462, Control_c, 0, 64, 103
1, 821506, Control_c, 0, 64, 102
1, 821551, Control_c, 0, 64, 102
1, 821565, Control_c, 0, 64, 101
1, 821580, Control_c, 0, 64, 100
1, 821595, Control_c, 0, 64, 99
1, 821610, Control_c, 0, 64, 97
1, 821625, Control_c, 0, 64, 97
1, 821669, Control_c, 0, 64, 96
1, 821684, Control_c, 0, 64, 96
1, 821699, Control_c, 0, 64, 94
1, 821714, Control_c, 0, 64, 90
1, 821729, Control_c, 0, 64, 83
1, 821743, Control_c, 0, 64, 69
1, 821748, Note_on_c, 0, 64, 87
1, 821758, Control_c, 0, 64, 0
1, 822186, Note_on_c, 0, 44, 76
1, 822244, Note_off_c, 0, 44, 59
1, 822255, Control_c, 0, 64, 47
1, 822270, Control_c, 0, 64, 63
1, 822285, Control_c, 0, 64, 66
1, 822300, Control_c, 0, 64, 66
1, 822329, Control_c, 0, 64, 68
1, 822344, Control_c, 0, 64, 69
1, 822359, Control_c, 0, 64, 71
1, 822374, Control_c, 0, 64, 72
1, 822388, Control_c, 0, 64, 72
1, 822403, Control_c, 0, 64, 73
1, 822418, Control_c, 0, 64, 75
1, 822432, Control_c, 0, 64, 78
1, 822447, Control_c, 0, 64, 81
1, 822450, Note_on_c, 0, 59, 62
1, 822462, Control_c, 0, 64, 83
1, 822477, Control_c, 0, 64, 85
1, 822492, Control_c, 0, 64, 89
1, 822507, Control_c, 0, 64, 93
1, 822521, Control_c, 0, 64, 96
1, 822536, Control_c, 0, 64, 98
1, 822551, Control_c, 0, 64, 100
1, 822566, Control_c, 0, 64, 103
1, 822581, Control_c, 0, 64, 106
1, 822593, Note_off_c, 0, 64, 57
1, 822596, Control_c, 0, 64, 111
1, 822611, Control_c, 0, 64, 114
1, 822616, Note_on_c, 0, 76, 92
1, 822626, Control_c, 0, 64, 116
1, 822641, Control_c, 0, 64, 120
1, 822647, Note_on_c, 0, 51, 54
1, 822656, Control_c, 0, 64, 127
1, 822683, Note_off_c, 0, 59, 37
1, 822751, Note_on_c, 0, 52, 77
1, 822774, Note_off_c, 0, 51, 54
1, 822781, Note_off_c, 0, 52, 67
1, 822912, Note_on_c, 0, 40, 72
1, 822915, Control_c, 0, 64, 97
1, 822930, Control_c, 0, 64, 64
1, 822945, Control_c, 0, 64, 0
1, 822972, Note_off_c, 0, 40, 63
1, 822975, Control_c, 0, 64, 27
1, 822989, Control_c, 0, 64, 51
1, 823004, Control_c, 0, 64, 63
1, 823019, Control_c, 0, 64, 68
1, 823034, Control_c, 0, 64, 73
1, 823049, Control_c, 0, 64, 76
1, 823063, Control_c, 0, 64, 81
1, 823078, Control_c, 0, 64, 84
1, 823083, Note_on_c, 0, 71, 86
1, 823088, Note_on_c, 0, 62, 55
1, 823093, Control_c, 0, 64, 87
1, 823100, Note_off_c, 0, 76, 57
1, 823108, Control_c, 0, 64, 90
1, 823123, Control_c, 0, 64, 91
1, 823133, Note_off_c, 0, 71, 67
1, 823137, Control_c, 0, 64, 90
1, 823152, Control_c, 0, 64, 85
1, 823167, Control_c, 0, 64, 76
1, 823182, Control_c, 0, 64, 70
1, 823197, Control_c, 0, 64, 72
1, 823205, Note_on_c, 0, 74, 86
1, 823211, Control_c, 0, 64, 78
1, 823218, Note_off_c, 0, 62, 51
1, 823219, Note_on_c, 0, 72, 87
1, 823222, Note_off_c, 0, 74, 75
1, 823226, Control_c, 0, 64, 81
1, 823241, Control_c, 0, 64, 84
1, 823243, Note_on_c, 0, 51, 57
1, 823255, Note_off_c, 0, 72, 67
1, 823255, Control_c, 0, 64, 89
1, 823270, Control_c, 0, 64, 93
1, 823285, Control_c, 0, 64, 97
1, 823300, Control_c, 0, 64, 98
1, 823315, Control_c, 0, 64, 99
1, 823328, Note_on_c, 0, 71, 93
1, 823329, Control_c, 0, 64, 102
1, 823344, Control_c, 0, 64, 106
1, 823345, Note_off_c, 0, 51, 54
1, 823349, Note_on_c, 0, 52, 55
1, 823359, Control_c, 0, 64, 108
1, 823375, Note_off_c, 0, 52, 57
1, 823377, Note_off_c, 0, 71, 66
1, 823434, Control_c, 0, 64, 106
1, 823449, Control_c, 0, 64, 93
1, 823460, Note_on_c, 0, 69, 74
1, 823464, Control_c, 0, 64, 72
1, 823469, Note_on_c, 0, 45, 57
1, 823478, Control_c, 0, 64, 0
1, 823535, Note_off_c, 0, 45, 65
1, 823620, Control_c, 0, 64, 52
1, 823634, Control_c, 0, 64, 64
1, 823642, Note_on_c, 0, 60, 52
1, 823649, Control_c, 0, 64, 66
1, 823664, Control_c, 0, 64, 66
1, 823678, Control_c, 0, 64, 66
1, 823708, Control_c, 0, 64, 67
1, 823717, Note_off_c, 0, 60, 55
1, 823723, Control_c, 0, 64, 68
1, 823753, Control_c, 0, 64, 67
1, 823754, Note_off_c, 0, 69, 58
1, 823779, Note_on_c, 0, 64, 52
1, 823800, Note_on_c, 0, 51, 51
1, 823813, Control_c, 0, 64, 68
1, 823827, Control_c, 0, 64, 68
1, 823838, Note_off_c, 0, 51, 60
1, 823842, Control_c, 0, 64, 69
1, 823857, Control_c, 0, 64, 71
1, 823872, Control_c, 0, 64, 72
1, 823887, Control_c, 0, 64, 74
1, 823902, Control_c, 0, 64, 76
1, 823906, Note_on_c, 0, 52, 59
1, 823917, Note_off_c, 0, 64, 61
1, 823917, Control_c, 0, 64, 78
1, 823931, Control_c, 0, 64, 79
1, 823942, Note_off_c, 0, 52, 63
1, 823946, Control_c, 0, 64, 80
1, 823961, Control_c, 0, 64, 81
1, 823976, Control_c, 0, 64, 82
1, 823991, Control_c, 0, 64, 83
1, 824006, Control_c, 0, 64, 83
1, 824024, Note_on_c, 0, 48, 78
1, 824065, Control_c, 0, 64, 81
1, 824079, Control_c, 0, 64, 72
1, 824094, Control_c, 0, 64, 44
1, 824109, Control_c, 0, 64, 0
1, 824138, Note_on_c, 0, 57, 78
1, 824153, Control_c, 0, 64, 14
1, 824168, Control_c, 0, 64, 47
1, 824179, Note_off_c, 0, 48, 56
1, 824183, Control_c, 0, 64, 60
1, 824198, Control_c, 0, 64, 66
1, 824212, Control_c, 0, 64, 71
1, 824229, Control_c, 0, 64, 73
1, 824256, Note_on_c, 0, 64, 93
1, 824258, Control_c, 0, 64, 73
1, 824273, Control_c, 0, 64, 74
1, 824278, Note_on_c, 0, 51, 63
1, 824282, Note_off_c, 0, 57, 53
1, 824288, Control_c, 0, 64, 75
1, 824310, Control_c, 0, 64, 76
1, 824340, Control_c, 0, 64, 76
1, 824354, Note_off_c, 0, 51, 0
1, 824355, Control_c, 0, 64, 78
1, 824370, Control_c, 0, 64, 79
1, 824370, Note_on_c, 0, 52, 79
1, 824384, Control_c, 0, 64, 80
1, 824399, Control_c, 0, 64, 80
1, 824414, Control_c, 0, 64, 81
1, 824429, Control_c, 0, 64, 83
1, 824433, Poly_aftertouch_c, 0, 51, 0
1, 824444, Control_c, 0, 64, 83
1, 824490, Note_off_c, 0, 52, 38
1, 824502, Control_c, 0, 64, 83
1, 824507, Note_on_c, 0, 44, 85
1, 824517, Control_c, 0, 64, 74
1, 824532, Control_c, 0, 64, 53
1, 824547, Control_c, 0, 64, 0
1, 824616, Note_off_c, 0, 44, 64
1, 824635, Note_on_c, 0, 59, 84
1, 824683, Poly_aftertouch_c, 0, 52, 127
1, 824709, Control_c, 0, 64, 59
1, 824724, Control_c, 0, 64, 65
1, 824732, Poly_aftertouch_c, 0, 52, 0
1, 824739, Control_c, 0, 64, 68
1, 824754, Control_c, 0, 64, 69
1, 824760, Note_on_c, 0, 51, 69
1, 824769, Control_c, 0, 64, 71
1, 824770, Note_off_c, 0, 64, 49
1, 824774, Note_on_c, 0, 76, 93
1, 824784, Control_c, 0, 64, 74
1, 824793, Note_off_c, 0, 59, 53
1, 824799, Control_c, 0, 64, 78
1, 824814, Control_c, 0, 64, 81
1, 824828, Control_c, 0, 64, 84
1, 824843, Control_c, 0, 64, 85
1, 824858, Control_c, 0, 64, 88
1, 824873, Control_c, 0, 64, 92
1, 824876, Note_on_c, 0, 52, 82
1, 824888, Control_c, 0, 64, 95
1, 824902, Control_c, 0, 64, 96
1, 824906, Note_off_c, 0, 51, 60
1, 824917, Control_c, 0, 64, 96
1, 824947, Control_c, 0, 64, 97
1, 824965, Note_off_c, 0, 52, 56
1, 825002, Note_on_c, 0, 50, 86
1, 825021, Control_c, 0, 64, 96
1, 825037, Control_c, 0, 64, 88
1, 825058, Control_c, 0, 64, 69
1, 825073, Control_c, 0, 64, 0
1, 825113, Note_on_c, 0, 71, 85
1, 825124, Note_off_c, 0, 76, 60
1, 825124, Note_on_c, 0, 56, 67
1, 825145, Note_off_c, 0, 71, 66
1, 825222, Note_on_c, 0, 74, 90
1, 825233, Note_on_c, 0, 72, 90
1, 825240, Note_off_c, 0, 74, 75
1, 825262, Note_on_c, 0, 51, 58
1, 825265, Note_off_c, 0, 72, 69
1, 825306, Note_off_c, 0, 56, 35
1, 825312, Note_off_c, 0, 50, 53
1, 825351, Note_on_c, 0, 71, 87
1, 825377, Note_on_c, 0, 52, 58
1, 825378, Note_off_c, 0, 71, 65
1, 825392, Note_off_c, 0, 51, 58
1, 825464, Note_off_c, 0, 52, 45
1, 825500, Note_on_c, 0, 69, 73
1, 825506, Note_on_c, 0, 48, 54
1, 825629, Note_on_c, 0, 57, 51
1, 825637, Control_c, 0, 64, 50
1, 825651, Control_c, 0, 64, 62
1, 825666, Control_c, 0, 64, 65
1, 825681, Control_c, 0, 64, 66
1, 825696, Control_c, 0, 64, 68
1, 825711, Control_c, 0, 64, 70
1, 825714, Note_off_c, 0, 57, 36
1, 825725, Control_c, 0, 64, 72
1, 825731, Note_off_c, 0, 48, 52
1, 825740, Control_c, 0, 64, 73
1, 825750, Note_on_c, 0, 64, 65
1, 825755, Control_c, 0, 64, 75
1, 825759, Note_on_c, 0, 51, 51
1, 825770, Control_c, 0, 64, 76
1, 825785, Control_c, 0, 64, 77
1, 825806, Control_c, 0, 64, 78
1, 825824, Note_off_c, 0, 69, 33
1, 825837, Note_off_c, 0, 51, 60
1, 825837, Control_c, 0, 64, 76
1, 825852, Control_c, 0, 64, 71
1, 825854, Note_on_c, 0, 52, 70
1, 825867, Control_c, 0, 64, 62
1, 825881, Control_c, 0, 64, 53
1, 825896, Control_c, 0, 64, 61
1, 825911, Control_c, 0, 64, 64
1, 825926, Control_c, 0, 64, 66
1, 825932, Note_off_c, 0, 64, 61
1, 825941, Control_c, 0, 64, 69
1, 825955, Control_c, 0, 64, 73
1, 825968, Note_on_c, 0, 45, 85
1, 825970, Control_c, 0, 64, 80
1, 825985, Control_c, 0, 64, 86
1, 826000, Control_c, 0, 64, 89
1, 826026, Note_off_c, 0, 45, 63
1, 826045, Control_c, 0, 64, 90
1, 826060, Control_c, 0, 64, 92
1, 826075, Control_c, 0, 64, 96
1, 826076, Note_on_c, 0, 60, 83
1, 826089, Control_c, 0, 64, 98
1, 826104, Control_c, 0, 64, 99
1, 826119, Control_c, 0, 64, 99
1, 826136, Note_off_c, 0, 52, 40
1, 826206, Note_on_c, 0, 69, 96
1, 826208, Note_on_c, 0, 51, 76
1, 826219, Note_off_c, 0, 60, 48
1, 826267, Control_c, 0, 64, 99
1, 826281, Control_c, 0, 64, 98
1, 826296, Control_c, 0, 64, 98
1, 826311, Control_c, 0, 64, 97
1, 826320, Note_on_c, 0, 52, 85
1, 826326, Control_c, 0, 64, 95
1, 826341, Control_c, 0, 64, 94
1, 826355, Control_c, 0, 64, 92
1, 826370, Control_c, 0, 64, 91
1, 826373, Note_off_c, 0, 51, 0
1, 826385, Control_c, 0, 64, 89
1, 826400, Control_c, 0, 64, 87
1, 826408, Poly_aftertouch_c, 0, 51, 0
1, 826415, Control_c, 0, 64, 83
1, 826429, Control_c, 0, 64, 73
1, 826436, Note_off_c, 0, 52, 53
1, 826444, Control_c, 0, 64, 0
1, 826471, Note_on_c, 0, 49, 94
1, 826650, Note_on_c, 0, 57, 80
1, 826781, Note_off_c, 0, 69, 59
1, 826802, Note_on_c, 0, 81, 96
1, 826821, Note_on_c, 0, 51, 71
1, 826822, Note_off_c, 0, 57, 54
1, 826872, Note_off_c, 0, 49, 54
1, 826883, Control_c, 0, 64, 56
1, 826897, Control_c, 0, 64, 66
1, 826912, Control_c, 0, 64, 67
1, 826920, Note_on_c, 0, 52, 78
1, 826927, Control_c, 0, 64, 69
1, 826937, Note_off_c, 0, 51, 62
1, 826942, Control_c, 0, 64, 72
1, 826957, Control_c, 0, 64, 77
1, 826972, Control_c, 0, 64, 81
1, 826986, Control_c, 0, 64, 82
1, 827001, Control_c, 0, 64, 82
1, 827016, Control_c, 0, 64, 74
1, 827030, Control_c, 0, 64, 57
1, 827035, Note_on_c, 0, 45, 79
1, 827045, Control_c, 0, 64, 0
1, 827075, Control_c, 0, 64, 43
1, 827090, Control_c, 0, 64, 65
1, 827097, Note_off_c, 0, 45, 65
1, 827104, Control_c, 0, 64, 73
1, 827110, Note_off_c, 0, 52, 33
1, 827119, Control_c, 0, 64, 76
1, 827134, Control_c, 0, 64, 75
1, 827149, Control_c, 0, 64, 69
1, 827151, Note_on_c, 0, 76, 97
1, 827164, Control_c, 0, 64, 57
1, 827166, Note_on_c, 0, 61, 83
1, 827169, Note_off_c, 0, 81, 59
1, 827178, Control_c, 0, 64, 46
1, 827193, Control_c, 0, 64, 60
1, 827198, Note_off_c, 0, 76, 65
1, 827208, Control_c, 0, 64, 65
1, 827222, Control_c, 0, 64, 69
1, 827237, Control_c, 0, 64, 72
1, 827249, Note_off_c, 0, 61, 44
1, 827252, Control_c, 0, 64, 74
1, 827256, Note_on_c, 0, 79, 89
1, 827261, Note_on_c, 0, 51, 72
1, 827273, Note_on_c, 0, 77, 84
1, 827318, Note_off_c, 0, 79, 63
1, 827319, Control_c, 0, 64, 73
1, 827345, Note_off_c, 0, 77, 55
1, 827349, Control_c, 0, 64, 72
1, 827359, Note_on_c, 0, 52, 64
1, 827364, Control_c, 0, 64, 72
1, 827367, Note_off_c, 0, 51, 61
1, 827374, Note_on_c, 0, 76, 81
1, 827378, Control_c, 0, 64, 71
1, 827398, Note_off_c, 0, 76, 66
1, 827407, Note_off_c, 0, 52, 61
1, 827423, Control_c, 0, 64, 70
1, 827439, Control_c, 0, 64, 68
1, 827453, Control_c, 0, 64, 60
1, 827468, Control_c, 0, 64, 0
1, 827495, Note_on_c, 0, 76, 86
1, 827500, Note_on_c, 0, 50, 69
1, 827514, Note_on_c, 0, 65, 60
1, 827518, Note_on_c, 0, 69, 46
1, 827613, Note_on_c, 0, 74, 86
1, 827616, Note_off_c, 0, 76, 59
1, 827632, Note_off_c, 0, 69, 57
1, 827634, Note_off_c, 0, 65, 62
1, 827640, Note_off_c, 0, 50, 63
1, 827664, Note_off_c, 0, 74, 65
1, 827723, Note_on_c, 0, 52, 88
1, 827728, Note_on_c, 0, 74, 88
1, 827739, Note_on_c, 0, 64, 77
1, 827748, Note_on_c, 0, 69, 61
1, 827748, Note_off_c, 0, 52, 67
1, 827842, Note_off_c, 0, 74, 57
1, 827848, Note_off_c, 0, 69, 29
1, 827849, Note_on_c, 0, 72, 85
1, 827868, Note_off_c, 0, 64, 57
1, 827900, Note_off_c, 0, 72, 62
1, 827959, Note_on_c, 0, 53, 90
1, 827965, Note_on_c, 0, 72, 76
1, 827975, Note_on_c, 0, 62, 70
1, 827978, Note_on_c, 0, 68, 71
1, 827982, Note_off_c, 0, 53, 71
1, 828019, Note_off_c, 0, 62, 50
1, 828057, Note_off_c, 0, 72, 53
1, 828090, Note_on_c, 0, 71, 78
1, 828090, Note_off_c, 0, 68, 62
1, 828135, Note_off_c, 0, 71, 64
1, 828192, Note_on_c, 0, 54, 84
1, 828202, Note_on_c, 0, 71, 74
1, 828208, Note_on_c, 0, 63, 70
1, 828215, Note_off_c, 0, 54, 72
1, 828221, Note_on_c, 0, 60, 51
1, 828289, Note_off_c, 0, 71, 57
1, 828322, Note_on_c, 0, 69, 71
1, 828325, Note_off_c, 0, 63, 61
1, 828344, Note_off_c, 0, 60, 23
1, 828358, Note_off_c, 0, 69, 60
1, 828433, Note_on_c, 0, 55, 80
1, 828442, Note_on_c, 0, 69, 74
1, 828443, Note_on_c, 0, 43, 68
1, 828451, Note_on_c, 0, 60, 52
1, 828455, Note_off_c, 0, 55, 68
1, 828456, Note_on_c, 0, 64, 52
1, 828468, Note_off_c, 0, 43, 63
1, 828491, Note_off_c, 0, 60, 58
1, 828498, Note_off_c, 0, 64, 47
1, 828530, Note_off_c, 0, 69, 53
1, 828557, Note_on_c, 0, 67, 61
1, 828592, Note_off_c, 0, 67, 61
1, 828674, Note_on_c, 0, 44, 64
1, 828680, Note_on_c, 0, 67, 64
1, 828692, Note_on_c, 0, 59, 49
1, 828696, Note_on_c, 0, 62, 42
1, 828703, Note_off_c, 0, 44, 65
1, 828742, Note_off_c, 0, 59, 52
1, 828753, Note_off_c, 0, 62, 49
1, 828760, Note_off_c, 0, 67, 55
1, 828790, Note_on_c, 0, 65, 66
1, 828827, Note_off_c, 0, 65, 65
1, 828919, Note_on_c, 0, 65, 54
1, 828930, Note_on_c, 0, 57, 46
1, 828930, Note_on_c, 0, 45, 41
1, 828938, Note_on_c, 0, 60, 31
1, 828964, Note_off_c, 0, 45, 51
1, 828987, Note_off_c, 0, 60, 44
1, 828987, Note_off_c, 0, 65, 35
1, 828988, Note_off_c, 0, 57, 51
1, 829021, Note_on_c, 0, 64, 50
1, 829053, Note_off_c, 0, 64, 55
1, 829135, Note_on_c, 0, 64, 63
1, 829143, Note_on_c, 0, 47, 54
1, 829148, Note_on_c, 0, 56, 56
1, 829165, Note_on_c, 0, 53, 38
1, 829169, Note_off_c, 0, 47, 57
1, 829210, Note_off_c, 0, 64, 40
1, 829212, Note_off_c, 0, 56, 57
1, 829223, Note_off_c, 0, 53, 45
1, 829243, Note_on_c, 0, 62, 63
1, 829278, Note_off_c, 0, 62, 63
1, 829370, Note_on_c, 0, 62, 51
1, 829374, Note_on_c, 0, 48, 38
1, 829382, Note_on_c, 0, 52, 46
1, 829398, Note_on_c, 0, 57, 27
1, 829409, Note_off_c, 0, 48, 46
1, 829425, Note_off_c, 0, 62, 55
1, 829440, Note_off_c, 0, 57, 53
1, 829464, Note_off_c, 0, 52, 47
1, 829470, Note_on_c, 0, 60, 52
1, 829509, Note_off_c, 0, 60, 63
1, 829872, Note_on_c, 0, 59, 55
1, 829886, Note_on_c, 0, 54, 30
1, 829900, Note_on_c, 0, 51, 44
1, 829935, Note_off_c, 0, 51, 52
1, 829936, Note_off_c, 0, 54, 48
1, 829959, Note_off_c, 0, 59, 57
1, 829991, Note_on_c, 0, 57, 57
1, 830021, Note_off_c, 0, 57, 64
1, 830433, Note_on_c, 0, 56, 68
1, 830451, Note_on_c, 0, 52, 30
1, 830465, Note_off_c, 0, 56, 66
1, 830537, Note_on_c, 0, 64, 58
1, 830704, Note_off_c, 0, 52, 38
1, 830937, Control_c, 0, 64, 41
1, 830951, Control_c, 0, 64, 51
1, 830966, Control_c, 0, 64, 58
1, 830981, Control_c, 0, 64, 63
1, 830996, Control_c, 0, 64, 66
1, 831011, Control_c, 0, 64, 69
1, 831014, Note_on_c, 0, 47, 45
1, 831020, Note_on_c, 0, 40, 38
1, 831026, Control_c, 0, 64, 70
1, 831048, Control_c, 0, 64, 73
1, 831052, Note_off_c, 0, 47, 51
1, 831063, Control_c, 0, 64, 77
1, 831064, Note_off_c, 0, 40, 46
1, 831077, Control_c, 0, 64, 82
1, 831092, Control_c, 0, 64, 85
1, 831107, Control_c, 0, 64, 87
1, 831122, Control_c, 0, 64, 89
1, 831137, Control_c, 0, 64, 93
1, 831151, Control_c, 0, 64, 96
1, 831166, Control_c, 0, 64, 99
1, 831181, Control_c, 0, 64, 102
1, 831196, Control_c, 0, 64, 103
1, 831241, Control_c, 0, 64, 104
1, 831256, Control_c, 0, 64, 104
1, 831270, Control_c, 0, 64, 105
1, 831285, Control_c, 0, 64, 106
1, 831300, Control_c, 0, 64, 108
1, 831306, Note_off_c, 0, 64, 39
1, 831315, Control_c, 0, 64, 111
1, 831330, Control_c, 0, 64, 112
1, 831344, Control_c, 0, 64, 109
1, 831359, Control_c, 0, 64, 96
1, 831374, Control_c, 0, 64, 79
1, 831377, Note_on_c, 0, 44, 94
1, 831383, Note_on_c, 0, 32, 78
1, 831387, Note_on_c, 0, 76, 84
1, 831387, Note_on_c, 0, 64, 84
1, 831389, Control_c, 0, 64, 70
1, 831390, Note_on_c, 0, 77, 88
1, 831403, Control_c, 0, 64, 74
1, 831404, Note_off_c, 0, 44, 65
1, 831411, Note_off_c, 0, 32, 65
1, 831419, Control_c, 0, 64, 80
1, 831434, Control_c, 0, 64, 87
1, 831449, Control_c, 0, 64, 97
1, 831464, Control_c, 0, 64, 110
1, 831467, Note_off_c, 0, 77, 58
1, 831479, Control_c, 0, 64, 127
1, 831576, Note_on_c, 0, 44, 82
1, 831607, Note_on_c, 0, 52, 82
1, 831612, Control_c, 0, 64, 122
1, 831624, Note_off_c, 0, 64, 62
1, 831626, Control_c, 0, 64, 85
1, 831635, Note_off_c, 0, 44, 66
1, 831641, Control_c, 0, 64, 69
1, 831645, Note_on_c, 0, 59, 101
1, 831647, Note_on_c, 0, 75, 94
1, 831656, Control_c, 0, 64, 70
1, 831671, Control_c, 0, 64, 82
1, 831675, Note_off_c, 0, 76, 64
1, 831685, Note_off_c, 0, 52, 61
1, 831686, Control_c, 0, 64, 92
1, 831697, Note_off_c, 0, 75, 68
1, 831700, Control_c, 0, 64, 101
1, 831715, Control_c, 0, 64, 110
1, 831730, Control_c, 0, 64, 127
1, 831741, Note_off_c, 0, 59, 48
1, 831871, Control_c, 0, 64, 90
1, 831886, Control_c, 0, 64, 68
1, 831900, Control_c, 0, 64, 60
1, 831902, Note_on_c, 0, 88, 98
1, 831908, Note_on_c, 0, 74, 94
1, 831910, Note_on_c, 0, 54, 77
1, 831915, Control_c, 0, 64, 68
1, 831930, Control_c, 0, 64, 75
1, 831945, Control_c, 0, 64, 81
1, 831960, Control_c, 0, 64, 89
1, 831973, Note_off_c, 0, 54, 57
1, 831974, Control_c, 0, 64, 98
1, 831989, Control_c, 0, 64, 110
1, 832004, Control_c, 0, 64, 127
1, 832012, Note_on_c, 0, 56, 97
1, 832065, Note_off_c, 0, 88, 60
1, 832099, Note_off_c, 0, 56, 64
1, 832108, Control_c, 0, 64, 95
1, 832123, Note_on_c, 0, 52, 90
1, 832123, Control_c, 0, 64, 74
1, 832138, Control_c, 0, 64, 70
1, 832141, Note_off_c, 0, 74, 60
1, 832153, Control_c, 0, 64, 82
1, 832167, Control_c, 0, 64, 93
1, 832182, Control_c, 0, 64, 102
1, 832192, Note_off_c, 0, 52, 64
1, 832197, Control_c, 0, 64, 110
1, 832212, Control_c, 0, 64, 127
1, 832217, Poly_aftertouch_c, 0, 50, 127
1, 832248, Note_on_c, 0, 83, 95
1, 832251, Poly_aftertouch_c, 0, 50, 0
1, 832254, Note_on_c, 0, 71, 89
1, 832278, Note_off_c, 0, 71, 65
1, 832296, Note_off_c, 0, 83, 66
1, 832346, Control_c, 0, 64, 96
1, 832348, Note_on_c, 0, 50, 71
1, 832356, Note_on_c, 0, 84, 89
1, 832358, Note_on_c, 0, 86, 90
1, 832361, Control_c, 0, 64, 60
1, 832362, Note_on_c, 0, 72, 93
1, 832376, Control_c, 0, 64, 0
1, 832382, Note_off_c, 0, 72, 67
1, 832384, Note_off_c, 0, 50, 68
1, 832386, Note_off_c, 0, 86, 63
1, 832401, Note_off_c, 0, 84, 63
1, 832466, Note_on_c, 0, 83, 89
1, 832467, Note_on_c, 0, 52, 64
1, 832468, Note_on_c, 0, 71, 82
1, 832490, Note_off_c, 0, 71, 68
1, 832496, Note_off_c, 0, 52, 64
1, 832497, Note_off_c, 0, 83, 58
1, 832585, Note_on_c, 0, 48, 79
1, 832591, Note_on_c, 0, 81, 79
1, 832602, Note_on_c, 0, 69, 70
1, 832605, Control_c, 0, 64, 65
1, 832609, Note_off_c, 0, 48, 66
1, 832620, Control_c, 0, 64, 73
1, 832635, Control_c, 0, 64, 81
1, 832649, Control_c, 0, 64, 87
1, 832664, Control_c, 0, 64, 92
1, 832677, Note_off_c, 0, 81, 60
1, 832679, Control_c, 0, 64, 94
1, 832694, Control_c, 0, 64, 95
1, 832709, Control_c, 0, 64, 96
1, 832722, Note_off_c, 0, 69, 63
1, 832723, Control_c, 0, 64, 97
1, 832738, Control_c, 0, 64, 99
1, 832753, Control_c, 0, 64, 102
1, 832767, Control_c, 0, 64, 104
1, 832812, Control_c, 0, 64, 96
1, 832819, Note_on_c, 0, 47, 92
1, 832826, Note_on_c, 0, 76, 83
1, 832827, Control_c, 0, 64, 73
1, 832832, Note_on_c, 0, 64, 73
1, 832841, Control_c, 0, 64, 0
1, 832852, Note_off_c, 0, 47, 69
1, 832928, Note_on_c, 0, 48, 87
1, 832962, Note_off_c, 0, 48, 63
1, 833048, Note_on_c, 0, 45, 99
1, 833068, Note_off_c, 0, 45, 73
1, 833095, Control_c, 0, 64, 65
1, 833110, Control_c, 0, 64, 71
1, 833125, Control_c, 0, 64, 75
1, 833139, Control_c, 0, 64, 79
1, 833154, Control_c, 0, 64, 82
1, 833169, Control_c, 0, 64, 83
1, 833184, Control_c, 0, 64, 85
1, 833196, Note_off_c, 0, 64, 37
1, 833198, Control_c, 0, 64, 88
1, 833213, Control_c, 0, 64, 93
1, 833228, Control_c, 0, 64, 97
1, 833232, Note_off_c, 0, 76, 61
1, 833243, Control_c, 0, 64, 97
1, 833258, Control_c, 0, 64, 92
1, 833272, Control_c, 0, 64, 79
1, 833294, Control_c, 0, 64, 68
1, 833299, Note_on_c, 0, 47, 88
1, 833300, Note_on_c, 0, 33, 68
1, 833300, Note_on_c, 0, 77, 100
1, 833301, Note_on_c, 0, 65, 89
1, 833304, Note_on_c, 0, 45, 69
1, 833309, Control_c, 0, 64, 72
1, 833321, Note_off_c, 0, 47, 71
1, 833324, Control_c, 0, 64, 80
1, 833327, Note_off_c, 0, 33, 57
1, 833330, Note_off_c, 0, 45, 65
1, 833339, Control_c, 0, 64, 87
1, 833354, Control_c, 0, 64, 93
1, 833369, Control_c, 0, 64, 100
1, 833384, Control_c, 0, 64, 106
1, 833398, Control_c, 0, 64, 108
1, 833413, Control_c, 0, 64, 109
1, 833428, Control_c, 0, 64, 112
1, 833429, Note_on_c, 0, 45, 56
1, 833443, Control_c, 0, 64, 119
1, 833458, Control_c, 0, 64, 127
1, 833479, Note_on_c, 0, 53, 76
1, 833487, Control_c, 0, 64, 118
1, 833502, Control_c, 0, 64, 90
1, 833512, Note_off_c, 0, 65, 60
1, 833517, Control_c, 0, 64, 66
1, 833520, Note_off_c, 0, 45, 65
1, 833532, Control_c, 0, 64, 0
1, 833539, Note_on_c, 0, 60, 101
1, 833541, Note_on_c, 0, 76, 99
1, 833546, Control_c, 0, 64, 28
1, 833561, Control_c, 0, 64, 64
1, 833562, Note_off_c, 0, 77, 64
1, 833576, Control_c, 0, 64, 71
1, 833578, Note_off_c, 0, 53, 63
1, 833583, Note_off_c, 0, 76, 68
1, 833590, Control_c, 0, 64, 79
1, 833605, Control_c, 0, 64, 89
1, 833620, Control_c, 0, 64, 98
1, 833635, Control_c, 0, 64, 101
1, 833643, Note_off_c, 0, 60, 50
1, 833650, Control_c, 0, 64, 104
1, 833664, Control_c, 0, 64, 115
1, 833679, Control_c, 0, 64, 127
1, 833754, Control_c, 0, 64, 106
1, 833768, Control_c, 0, 64, 76
1, 833780, Note_on_c, 0, 55, 81
1, 833783, Note_on_c, 0, 89, 96
1, 833783, Control_c, 0, 64, 64
1, 833786, Note_on_c, 0, 75, 95
1, 833798, Control_c, 0, 64, 69
1, 833799, Note_on_c, 0, 88, 65
1, 833813, Control_c, 0, 64, 74
1, 833814, Note_off_c, 0, 55, 66
1, 833822, Note_off_c, 0, 88, 38
1, 833828, Control_c, 0, 64, 79
1, 833843, Control_c, 0, 64, 85
1, 833858, Control_c, 0, 64, 99
1, 833873, Control_c, 0, 64, 114
1, 833882, Note_off_c, 0, 89, 63
1, 833885, Note_on_c, 0, 88, 42
1, 833888, Note_on_c, 0, 57, 89
1, 833888, Control_c, 0, 64, 127
1, 833916, Note_off_c, 0, 88, 56
1, 833941, Note_off_c, 0, 57, 64
1, 833977, Control_c, 0, 64, 96
1, 833992, Control_c, 0, 64, 73
1, 833993, Note_off_c, 0, 75, 61
1, 834000, Note_on_c, 0, 53, 95
1, 834007, Control_c, 0, 64, 64
1, 834022, Control_c, 0, 64, 71
1, 834042, Note_off_c, 0, 53, 70
1, 834044, Control_c, 0, 64, 77
1, 834059, Control_c, 0, 64, 85
1, 834074, Control_c, 0, 64, 93
1, 834089, Control_c, 0, 64, 103
1, 834103, Control_c, 0, 64, 114
1, 834111, Note_on_c, 0, 84, 89
1, 834118, Control_c, 0, 64, 127
1, 834120, Note_on_c, 0, 72, 78
1, 834141, Note_off_c, 0, 72, 69
1, 834156, Note_off_c, 0, 84, 65
1, 834219, Note_on_c, 0, 87, 106
1, 834228, Note_on_c, 0, 75, 81
1, 834236, Control_c, 0, 64, 106
1, 834239, Note_on_c, 0, 51, 68
1, 834248, Note_off_c, 0, 75, 72
1, 834251, Control_c, 0, 64, 71
1, 834256, Note_off_c, 0, 87, 68
1, 834266, Control_c, 0, 64, 0
1, 834268, Note_off_c, 0, 51, 63
1, 834332, Note_on_c, 0, 84, 94
1, 834335, Note_on_c, 0, 72, 85
1, 834341, Note_on_c, 0, 53, 67
1, 834358, Note_off_c, 0, 72, 64
1, 834364, Note_off_c, 0, 53, 62
1, 834366, Note_off_c, 0, 84, 63
1, 834445, Note_on_c, 0, 83, 94
1, 834453, Note_on_c, 0, 50, 66
1, 834454, Note_on_c, 0, 71, 82
1, 834474, Control_c, 0, 64, 62
1, 834488, Control_c, 0, 64, 69
1, 834503, Control_c, 0, 64, 77
1, 834518, Control_c, 0, 64, 89
1, 834520, Note_off_c, 0, 50, 61
1, 834533, Control_c, 0, 64, 97
1, 834547, Control_c, 0, 64, 100
1, 834551, Note_off_c, 0, 83, 64
1, 834562, Control_c, 0, 64, 101
1, 834573, Note_off_c, 0, 71, 63
1, 834577, Control_c, 0, 64, 103
1, 834592, Control_c, 0, 64, 105
1, 834607, Control_c, 0, 64, 108
1, 834623, Control_c, 0, 64, 112
1, 834637, Control_c, 0, 64, 113
1, 834666, Control_c, 0, 64, 106
1, 834681, Control_c, 0, 64, 89
1, 834692, Note_on_c, 0, 74, 83
1, 834696, Control_c, 0, 64, 72
1, 834700, Note_on_c, 0, 53, 59
1, 834701, Note_on_c, 0, 62, 65
1, 834710, Control_c, 0, 64, 67
1, 834725, Control_c, 0, 64, 72
1, 834740, Control_c, 0, 64, 77
1, 834755, Note_off_c, 0, 53, 65
1, 834755, Control_c, 0, 64, 81
1, 834756, Note_off_c, 0, 62, 61
1, 834770, Control_c, 0, 64, 87
1, 834792, Control_c, 0, 64, 96
1, 834794, Note_off_c, 0, 74, 65
1, 834800, Note_on_c, 0, 56, 80
1, 834807, Control_c, 0, 64, 106
1, 834822, Control_c, 0, 64, 114
1, 834836, Note_off_c, 0, 56, 59
1, 834836, Control_c, 0, 64, 124
1, 834851, Control_c, 0, 64, 127
1, 834881, Control_c, 0, 64, 102
1, 834896, Control_c, 0, 64, 77
1, 834910, Control_c, 0, 64, 0
1, 834916, Note_on_c, 0, 41, 90
1, 834925, Control_c, 0, 64, 42
1, 834940, Control_c, 0, 64, 64
1, 834950, Note_off_c, 0, 41, 64
1, 834955, Control_c, 0, 64, 68
1, 834970, Control_c, 0, 64, 75
1, 834985, Control_c, 0, 64, 85
1, 835000, Control_c, 0, 64, 101
1, 835014, Control_c, 0, 64, 112
1, 835029, Control_c, 0, 64, 127
1, 835031, Note_on_c, 0, 82, 90
1, 835038, Note_on_c, 0, 70, 76
1, 835061, Note_off_c, 0, 70, 70
1, 835076, Note_off_c, 0, 82, 64
1, 835127, Note_on_c, 0, 85, 66
1, 835134, Control_c, 0, 64, 79
1, 835134, Note_on_c, 0, 52, 69
1, 835135, Note_on_c, 0, 84, 95
1, 835140, Note_on_c, 0, 72, 92
1, 835149, Control_c, 0, 64, 0
1, 835159, Note_off_c, 0, 85, 48
1, 835159, Note_off_c, 0, 52, 65
1, 835163, Note_off_c, 0, 72, 66
1, 835164, Note_on_c, 0, 86, 37
1, 835165, Note_off_c, 0, 86, 127
1, 835178, Note_off_c, 0, 84, 64
1, 835247, Note_on_c, 0, 55, 73
1, 835248, Note_on_c, 0, 82, 94
1, 835254, Note_on_c, 0, 70, 80
1, 835275, Note_off_c, 0, 55, 65
1, 835277, Note_off_c, 0, 70, 66
1, 835298, Note_off_c, 0, 82, 62
1, 835371, Note_on_c, 0, 81, 89
1, 835380, Note_on_c, 0, 69, 74
1, 835384, Note_on_c, 0, 41, 65
1, 835385, Control_c, 0, 64, 24
1, 835400, Control_c, 0, 64, 57
1, 835416, Control_c, 0, 64, 66
1, 835431, Control_c, 0, 64, 72
1, 835446, Control_c, 0, 64, 79
1, 835448, Note_off_c, 0, 41, 52
1, 835460, Control_c, 0, 64, 87
1, 835475, Control_c, 0, 64, 92
1, 835490, Control_c, 0, 64, 95
1, 835494, Note_off_c, 0, 81, 65
1, 835499, Note_off_c, 0, 69, 62
1, 835505, Control_c, 0, 64, 99
1, 835520, Control_c, 0, 64, 104
1, 835542, Control_c, 0, 64, 107
1, 835557, Control_c, 0, 64, 107
1, 835572, Control_c, 0, 64, 101
1, 835587, Control_c, 0, 64, 85
1, 835601, Control_c, 0, 64, 69
1, 835615, Note_on_c, 0, 48, 56
1, 835616, Control_c, 0, 64, 63
1, 835618, Note_on_c, 0, 75, 84
1, 835631, Control_c, 0, 64, 69
1, 835637, Note_on_c, 0, 63, 62
1, 835644, Note_off_c, 0, 48, 65
1, 835646, Control_c, 0, 64, 75
1, 835660, Control_c, 0, 64, 79
1, 835675, Control_c, 0, 64, 84
1, 835690, Control_c, 0, 64, 89
1, 835705, Control_c, 0, 64, 94
1, 835720, Control_c, 0, 64, 97
1, 835724, Note_off_c, 0, 63, 62
1, 835729, Note_on_c, 0, 53, 86
1, 835734, Control_c, 0, 64, 98
1, 835748, Note_off_c, 0, 75, 61
1, 835749, Control_c, 0, 64, 99
1, 835765, Note_off_c, 0, 53, 63
1, 835779, Control_c, 0, 64, 98
1, 835793, Control_c, 0, 64, 91
1, 835808, Control_c, 0, 64, 76
1, 835823, Control_c, 0, 64, 30
1, 835838, Control_c, 0, 64, 0
1, 835844, Note_on_c, 0, 41, 93
1, 835853, Control_c, 0, 64, 61
1, 835867, Control_c, 0, 64, 68
1, 835878, Note_off_c, 0, 41, 65
1, 835882, Control_c, 0, 64, 75
1, 835897, Control_c, 0, 64, 84
1, 835912, Control_c, 0, 64, 95
1, 835927, Control_c, 0, 64, 103
1, 835942, Control_c, 0, 64, 109
1, 835956, Control_c, 0, 64, 127
1, 835957, Note_on_c, 0, 81, 100
1, 835959, Note_on_c, 0, 69, 85
1, 835977, Note_off_c, 0, 69, 71
1, 835994, Note_off_c, 0, 81, 62
1, 836065, Note_on_c, 0, 50, 74
1, 836071, Note_on_c, 0, 82, 101
1, 836074, Note_on_c, 0, 70, 91
1, 836075, Control_c, 0, 64, 82
1, 836090, Note_off_c, 0, 50, 68
1, 836090, Control_c, 0, 64, 0
1, 836092, Note_off_c, 0, 70, 72
1, 836094, Note_off_c, 0, 82, 65
1, 836186, Note_on_c, 0, 53, 71
1, 836187, Note_on_c, 0, 74, 94
1, 836189, Note_on_c, 0, 62, 87
1, 836210, Note_off_c, 0, 62, 70
1, 836212, Note_off_c, 0, 53, 68
1, 836222, Note_off_c, 0, 74, 68
1, 836315, Note_on_c, 0, 75, 92
1, 836325, Note_on_c, 0, 63, 81
1, 836328, Note_on_c, 0, 41, 74
1, 836335, Control_c, 0, 64, 46
1, 836350, Control_c, 0, 64, 67
1, 836365, Control_c, 0, 64, 72
1, 836380, Control_c, 0, 64, 77
1, 836382, Note_off_c, 0, 63, 62
1, 836395, Control_c, 0, 64, 83
1, 836410, Control_c, 0, 64, 90
1, 836418, Note_off_c, 0, 41, 59
1, 836424, Control_c, 0, 64, 95
1, 836439, Control_c, 0, 64, 97
1, 836454, Control_c, 0, 64, 100
1, 836469, Control_c, 0, 64, 105
1, 836484, Control_c, 0, 64, 110
1, 836494, Note_off_c, 0, 75, 59
1, 836498, Control_c, 0, 64, 112
1, 836513, Control_c, 0, 64, 105
1, 836528, Control_c, 0, 64, 85
1, 836543, Control_c, 0, 64, 64
1, 836550, Note_on_c, 0, 48, 69
1, 836557, Note_on_c, 0, 81, 92
1, 836558, Control_c, 0, 64, 0
1, 836568, Note_on_c, 0, 69, 73
1, 836573, Control_c, 0, 64, 57
1, 836582, Note_off_c, 0, 48, 66
1, 836588, Control_c, 0, 64, 65
1, 836603, Control_c, 0, 64, 69
1, 836617, Control_c, 0, 64, 77
1, 836632, Control_c, 0, 64, 87
1, 836647, Control_c, 0, 64, 98
1, 836662, Control_c, 0, 64, 103
1, 836668, Note_on_c, 0, 53, 85
1, 836677, Control_c, 0, 64, 105
1, 836691, Control_c, 0, 64, 105
1, 836711, Note_off_c, 0, 53, 64
1, 836721, Control_c, 0, 64, 96
1, 836736, Control_c, 0, 64, 70
1, 836751, Control_c, 0, 64, 0
1, 836783, Note_on_c, 0, 41, 91
1, 836791, Note_off_c, 0, 69, 61
1, 836804, Note_off_c, 0, 81, 58
1, 836809, Control_c, 0, 64, 36
1, 836824, Control_c, 0, 64, 67
1, 836826, Note_off_c, 0, 41, 64
1, 836839, Control_c, 0, 64, 77
1, 836854, Control_c, 0, 64, 87
1, 836869, Control_c, 0, 64, 97
1, 836883, Control_c, 0, 64, 102
1, 836898, Control_c, 0, 64, 104
1, 836900, Note_on_c, 0, 81, 98
1, 836906, Note_on_c, 0, 69, 78
1, 836913, Control_c, 0, 64, 108
1, 836928, Note_off_c, 0, 69, 71
1, 836928, Control_c, 0, 64, 113
1, 836936, Note_off_c, 0, 81, 59
1, 836943, Control_c, 0, 64, 115
1, 836958, Control_c, 0, 64, 115
1, 836973, Control_c, 0, 64, 107
1, 836988, Control_c, 0, 64, 74
1, 837003, Control_c, 0, 64, 0
1, 837004, Note_on_c, 0, 50, 63
1, 837012, Note_on_c, 0, 82, 98
1, 837016, Note_on_c, 0, 70, 85
1, 837038, Note_off_c, 0, 50, 68
1, 837044, Note_off_c, 0, 82, 64
1, 837044, Note_off_c, 0, 70, 68
1, 837134, Note_on_c, 0, 53, 71
1, 837143, Note_on_c, 0, 74, 92
1, 837147, Note_on_c, 0, 62, 78
1, 837161, Note_off_c, 0, 53, 67
1, 837168, Note_off_c, 0, 62, 69
1, 837179, Note_off_c, 0, 74, 65
1, 837265, Note_on_c, 0, 75, 82
1, 837270, Note_on_c, 0, 63, 75
1, 837276, Note_on_c, 0, 41, 65
1, 837277, Control_c, 0, 64, 55
1, 837292, Control_c, 0, 64, 70
1, 837307, Control_c, 0, 64, 75
1, 837322, Control_c, 0, 64, 79
1, 837327, Note_off_c, 0, 41, 54
1, 837337, Control_c, 0, 64, 82
1, 837350, Note_off_c, 0, 63, 62
1, 837351, Control_c, 0, 64, 83
1, 837366, Control_c, 0, 64, 83
1, 837381, Control_c, 0, 64, 84
1, 837396, Control_c, 0, 64, 87
1, 837411, Control_c, 0, 64, 90
1, 837423, Note_off_c, 0, 75, 63
1, 837426, Control_c, 0, 64, 91
1, 837455, Control_c, 0, 64, 90
1, 837470, Control_c, 0, 64, 78
1, 837485, Control_c, 0, 64, 53
1, 837500, Control_c, 0, 64, 0
1, 837511, Note_on_c, 0, 81, 77
1, 837515, Note_on_c, 0, 48, 59
1, 837526, Note_on_c, 0, 69, 58
1, 837543, Note_off_c, 0, 48, 65
1, 837558, Control_c, 0, 64, 27
1, 837573, Control_c, 0, 64, 58
1, 837588, Control_c, 0, 64, 64
1, 837603, Control_c, 0, 64, 64
1, 837618, Control_c, 0, 64, 52
1, 837632, Control_c, 0, 64, 0
1, 837637, Note_on_c, 0, 53, 73
1, 837664, Note_off_c, 0, 53, 68
1, 837737, Control_c, 0, 64, 33
1, 837738, Note_off_c, 0, 69, 37
1, 837739, Note_off_c, 0, 81, 58
1, 837752, Control_c, 0, 64, 0
1, 837754, Note_on_c, 0, 41, 89
1, 837792, Note_off_c, 0, 41, 67
1, 837882, Note_on_c, 0, 81, 86
1, 837895, Note_on_c, 0, 69, 58
1, 837916, Note_off_c, 0, 69, 62
1, 837916, Note_off_c, 0, 81, 63
1, 838011, Note_on_c, 0, 50, 65
1, 838011, Note_on_c, 0, 82, 86
1, 838015, Note_on_c, 0, 70, 77
1, 838031, Note_off_c, 0, 82, 68
1, 838035, Note_off_c, 0, 70, 71
1, 838042, Note_off_c, 0, 50, 67
1, 838144, Note_on_c, 0, 74, 86
1, 838148, Note_on_c, 0, 53, 66
1, 838150, Note_on_c, 0, 62, 70
1, 838170, Note_off_c, 0, 62, 65
1, 838170, Note_off_c, 0, 74, 65
1, 838177, Note_off_c, 0, 53, 68
1, 838320, Note_on_c, 0, 75, 74
1, 838323, Control_c, 0, 64, 24
1, 838325, Note_on_c, 0, 41, 54
1, 838331, Note_on_c, 0, 63, 58
1, 838338, Control_c, 0, 64, 68
1, 838353, Control_c, 0, 64, 72
1, 838359, Note_off_c, 0, 41, 61
1, 838367, Note_off_c, 0, 63, 64
1, 838368, Control_c, 0, 64, 73
1, 838368, Control_c, 0, 67, 8
1, 838382, Control_c, 0, 64, 74
1, 838382, Control_c, 0, 67, 11
1, 838397, Control_c, 0, 67, 13
1, 838426, Control_c, 0, 64, 74
1, 838426, Control_c, 0, 67, 13
1, 838441, Control_c, 0, 67, 13
1, 838455, Control_c, 0, 67, 14
1, 838470, Control_c, 0, 67, 15
1, 838526, Note_off_c, 0, 75, 61
1, 838562, Note_on_c, 0, 48, 62
1, 838567, Control_c, 0, 64, 71
1, 838567, Control_c, 0, 67, 15
1, 838581, Control_c, 0, 64, 50
1, 838589, Note_on_c, 0, 53, 73
1, 838596, Control_c, 0, 64, 0
1, 838596, Control_c, 0, 67, 15
1, 838599, Note_off_c, 0, 48, 63
1, 838620, Note_off_c, 0, 53, 67
1, 838642, Control_c, 0, 67, 15
1, 838716, Control_c, 0, 67, 15
1, 838819, Control_c, 0, 67, 14
1, 838834, Control_c, 0, 67, 13
1, 838849, Control_c, 0, 67, 13
1, 838863, Note_on_c, 0, 36, 58
1, 838864, Control_c, 0, 67, 12
1, 838867, Note_on_c, 0, 41, 62
1, 838869, Note_on_c, 0, 81, 75
1, 838876, Note_on_c, 0, 75, 61
1, 838879, Control_c, 0, 64, 59
1, 838879, Control_c, 0, 67, 11
1, 838881, Note_on_c, 0, 69, 58
1, 838893, Control_c, 0, 64, 74
1, 838893, Control_c, 0, 67, 10
1, 838896, Note_off_c, 0, 36, 62
1, 838896, Note_off_c, 0, 41, 64
1, 838901, Note_off_c, 0, 75, 68
1, 838902, Note_off_c, 0, 69, 64
1, 838908, Control_c, 0, 64, 79
1, 838908, Control_c, 0, 67, 10
1, 838909, Note_off_c, 0, 81, 62
1, 838923, Control_c, 0, 64, 82
1, 838938, Control_c, 0, 64, 83
1, 838938, Control_c, 0, 67, 9
1, 838953, Control_c, 0, 64, 84
1, 838953, Control_c, 0, 67, 9
1, 839086, Control_c, 0, 67, 9
1, 839101, Control_c, 0, 64, 84
1, 839126, Note_on_c, 0, 48, 65
1, 839130, Control_c, 0, 64, 82
1, 839145, Control_c, 0, 64, 70
1, 839157, Note_on_c, 0, 53, 63
1, 839160, Control_c, 0, 64, 0
1, 839163, Note_off_c, 0, 48, 64
1, 839175, Control_c, 0, 67, 10
1, 839182, Note_off_c, 0, 53, 68
1, 839414, Note_on_c, 0, 36, 51
1, 839415, Note_on_c, 0, 48, 47
1, 839424, Note_on_c, 0, 41, 66
1, 839438, Note_on_c, 0, 53, 46
1, 839445, Note_off_c, 0, 48, 50
1, 839446, Note_off_c, 0, 36, 58
1, 839466, Note_off_c, 0, 53, 57
1, 839471, Note_off_c, 0, 41, 54
1, 839524, Control_c, 0, 67, 10
1, 839687, Control_c, 0, 67, 9
1, 839694, Note_on_c, 0, 45, 64
1, 839694, Note_on_c, 0, 57, 54
1, 839702, Control_c, 0, 67, 0
1, 839703, Note_on_c, 0, 60, 76
1, 839715, Note_on_c, 0, 48, 73
1, 839718, Note_off_c, 0, 57, 59
1, 839722, Note_off_c, 0, 45, 65
1, 839729, Note_off_c, 0, 60, 69
1, 839740, Note_off_c, 0, 48, 66
1, 839948, Note_on_c, 0, 65, 52
1, 839960, Note_on_c, 0, 53, 74
1, 839965, Note_on_c, 0, 69, 89
1, 839969, Note_on_c, 0, 57, 76
1, 839979, Note_off_c, 0, 65, 65
1, 839999, Note_off_c, 0, 69, 67
1, 840002, Note_off_c, 0, 53, 63
1, 840012, Note_off_c, 0, 57, 57
1, 840216, Note_on_c, 0, 72, 70
1, 840228, Note_on_c, 0, 60, 66
1, 840239, Note_on_c, 0, 65, 83
1, 840240, Note_on_c, 0, 77, 90
1, 840243, Note_off_c, 0, 72, 65
1, 840258, Control_c, 0, 64, 14
1, 840258, Note_off_c, 0, 65, 72
1, 840268, Note_off_c, 0, 60, 65
1, 840273, Control_c, 0, 64, 66
1, 840288, Note_off_c, 0, 77, 62
1, 840288, Control_c, 0, 64, 72
1, 840303, Control_c, 0, 64, 77
1, 840317, Control_c, 0, 64, 80
1, 840332, Control_c, 0, 64, 82
1, 840347, Control_c, 0, 64, 83
1, 840355, Note_on_c, 0, 77, 17
1, 840398, Note_off_c, 0, 77, 51
1, 840406, Control_c, 0, 64, 82
1, 840421, Control_c, 0, 64, 77
1, 840436, Control_c, 0, 64, 66
1, 840450, Control_c, 0, 64, 0
1, 840480, Control_c, 0, 64, 27
1, 840489, Note_on_c, 0, 41, 69
1, 840493, Note_on_c, 0, 46, 85
1, 840495, Control_c, 0, 64, 66
1, 840505, Note_on_c, 0, 65, 86
1, 840505, Note_on_c, 0, 77, 87
1, 840507, Note_on_c, 0, 73, 86
1, 840510, Control_c, 0, 64, 81
1, 840514, Note_on_c, 0, 70, 67
1, 840523, Note_off_c, 0, 65, 72
1, 840525, Control_c, 0, 64, 100
1, 840539, Note_off_c, 0, 70, 66
1, 840539, Control_c, 0, 64, 127
1, 840541, Note_off_c, 0, 41, 58
1, 840545, Note_off_c, 0, 73, 64
1, 840549, Note_off_c, 0, 77, 67
1, 840550, Note_off_c, 0, 46, 60
1, 840583, Control_c, 0, 64, 104
1, 840598, Control_c, 0, 64, 71
1, 840613, Control_c, 0, 64, 0
1, 840763, Note_on_c, 0, 49, 74
1, 840803, Note_on_c, 0, 53, 67
1, 840815, Note_off_c, 0, 49, 61
1, 840842, Note_off_c, 0, 53, 62
1, 841042, Note_on_c, 0, 41, 67
1, 841044, Note_on_c, 0, 70, 79
1, 841045, Note_on_c, 0, 82, 89
1, 841047, Note_on_c, 0, 77, 76
1, 841052, Note_on_c, 0, 73, 70
1, 841052, Control_c, 0, 64, 51
1, 841056, Note_on_c, 0, 46, 69
1, 841065, Note_off_c, 0, 70, 70
1, 841067, Control_c, 0, 64, 70
1, 841075, Note_off_c, 0, 77, 63
1, 841079, Note_off_c, 0, 41, 61
1, 841079, Note_off_c, 0, 73, 66
1, 841081, Control_c, 0, 64, 87
1, 841092, Note_off_c, 0, 82, 65
1, 841093, Note_off_c, 0, 46, 61
1, 841096, Control_c, 0, 64, 113
1, 841111, Control_c, 0, 64, 127
1, 841304, Control_c, 0, 64, 87
1, 841310, Note_on_c, 0, 49, 68
1, 841319, Control_c, 0, 64, 0
1, 841339, Note_on_c, 0, 53, 72
1, 841361, Note_off_c, 0, 49, 60
1, 841371, Note_off_c, 0, 53, 66
1, 841577, Note_on_c, 0, 41, 49
1, 841584, Note_on_c, 0, 53, 54
1, 841609, Note_off_c, 0, 53, 63
1, 841612, Note_on_c, 0, 58, 58
1, 841624, Note_on_c, 0, 46, 37
1, 841625, Note_off_c, 0, 41, 55
1, 841653, Note_off_c, 0, 58, 57
1, 841667, Note_off_c, 0, 46, 49
1, 841833, Note_on_c, 0, 61, 64
1, 841842, Note_on_c, 0, 49, 70
1, 841861, Note_on_c, 0, 65, 75
1, 841867, Note_on_c, 0, 53, 77
1, 841871, Note_off_c, 0, 61, 64
1, 841876, Note_off_c, 0, 49, 66
1, 841885, Note_off_c, 0, 65, 70
1, 841894, Note_off_c, 0, 53, 68
1, 842085, Note_on_c, 0, 70, 78
1, 842098, Note_on_c, 0, 58, 87
1, 842109, Note_on_c, 0, 61, 85
1, 842111, Note_on_c, 0, 73, 89
1, 842127, Control_c, 0, 64, 66
1, 842136, Note_off_c, 0, 70, 65
1, 842142, Control_c, 0, 64, 77
1, 842151, Note_off_c, 0, 58, 63
1, 842156, Note_off_c, 0, 73, 66
1, 842156, Control_c, 0, 64, 85
1, 842171, Control_c, 0, 64, 87
1, 842201, Control_c, 0, 64, 85
1, 842206, Note_off_c, 0, 61, 42
1, 842216, Control_c, 0, 64, 77
1, 842230, Control_c, 0, 64, 64
1, 842245, Control_c, 0, 64, 0
1, 842338, Note_on_c, 0, 65, 59
1, 842345, Note_on_c, 0, 77, 87
1, 842365, Note_on_c, 0, 70, 98
1, 842368, Note_on_c, 0, 82, 96
1, 842371, Control_c, 0, 64, 67
1, 842386, Control_c, 0, 64, 86
1, 842391, Note_off_c, 0, 77, 66
1, 842391, Note_off_c, 0, 70, 67
1, 842401, Control_c, 0, 64, 114
1, 842410, Note_off_c, 0, 82, 67
1, 842413, Note_off_c, 0, 65, 63
1, 842416, Control_c, 0, 64, 127
1, 842563, Control_c, 0, 64, 76
1, 842578, Control_c, 0, 64, 0
1, 842606, Note_on_c, 0, 38, 85
1, 842613, Note_on_c, 0, 71, 101
1, 842616, Note_on_c, 0, 83, 99
1, 842617, Note_on_c, 0, 80, 87
1, 842620, Note_on_c, 0, 44, 89
1, 842624, Control_c, 0, 64, 68
1, 842631, Note_on_c, 0, 77, 48
1, 842639, Control_c, 0, 64, 83
1, 842641, Note_off_c, 0, 71, 69
1, 842653, Control_c, 0, 64, 106
1, 842655, Note_off_c, 0, 38, 64
1, 842657, Note_off_c, 0, 77, 57
1, 842661, Note_off_c, 0, 83, 68
1, 842661, Note_off_c, 0, 80, 65
1, 842668, Control_c, 0, 64, 127
1, 842672, Note_off_c, 0, 44, 64
1, 842831, Control_c, 0, 64, 91
1, 842846, Control_c, 0, 64, 0
1, 842861, Note_on_c, 0, 50, 79
1, 842882, Note_on_c, 0, 56, 105
1, 842937, Note_off_c, 0, 56, 66
1, 842946, Note_off_c, 0, 50, 66
1, 842948, Control_c, 0, 64, 61
1, 842963, Control_c, 0, 64, 67
1, 842977, Control_c, 0, 64, 70
1, 842992, Control_c, 0, 64, 71
1, 843007, Control_c, 0, 64, 72
1, 843030, Control_c, 0, 64, 74
1, 843045, Control_c, 0, 64, 75
1, 843059, Control_c, 0, 64, 68
1, 843074, Control_c, 0, 64, 0
1, 843121, Note_on_c, 0, 45, 88
1, 843124, Note_on_c, 0, 39, 88
1, 843125, Note_on_c, 0, 84, 95
1, 843128, Note_on_c, 0, 72, 102
1, 843133, Note_on_c, 0, 81, 85
1, 843133, Control_c, 0, 64, 60
1, 843136, Note_on_c, 0, 78, 79
1, 843148, Control_c, 0, 64, 76
1, 843152, Note_on_c, 0, 42, 52
1, 843152, Note_off_c, 0, 72, 69
1, 843155, Note_off_c, 0, 78, 71
1, 843163, Control_c, 0, 64, 94
1, 843170, Note_off_c, 0, 84, 66
1, 843173, Note_off_c, 0, 81, 62
1, 843175, Note_off_c, 0, 39, 61
1, 843177, Control_c, 0, 64, 127
1, 843182, Note_off_c, 0, 42, 56
1, 843183, Note_off_c, 0, 45, 64
1, 843325, Control_c, 0, 64, 104
1, 843340, Control_c, 0, 64, 70
1, 843355, Control_c, 0, 64, 0
1, 843365, Note_on_c, 0, 51, 91
1, 843376, Note_on_c, 0, 57, 98
1, 843400, Control_c, 0, 64, 56
1, 843411, Note_off_c, 0, 57, 67
1, 843415, Control_c, 0, 64, 72
1, 843417, Note_off_c, 0, 51, 65
1, 843430, Control_c, 0, 64, 85
1, 843445, Control_c, 0, 64, 102
1, 843460, Control_c, 0, 64, 126
1, 843474, Control_c, 0, 64, 127
1, 843593, Control_c, 0, 64, 99
1, 843608, Control_c, 0, 64, 58
1, 843609, Note_on_c, 0, 52, 96
1, 843613, Note_on_c, 0, 85, 94
1, 843614, Note_on_c, 0, 73, 100
1, 843623, Control_c, 0, 64, 0
1, 843628, Note_on_c, 0, 40, 67
1, 843634, Note_on_c, 0, 81, 62
1, 843636, Note_off_c, 0, 52, 63
1, 843639, Note_on_c, 0, 38, 44
1, 843640, Note_off_c, 0, 38, 127
1, 843652, Note_off_c, 0, 73, 65
1, 843653, Note_off_c, 0, 40, 61
1, 843653, Note_off_c, 0, 81, 65
1, 843668, Note_off_c, 0, 85, 61
1, 843868, Control_c, 0, 64, 81
1, 843874, Note_on_c, 0, 53, 102
1, 843876, Note_on_c, 0, 74, 105
1, 843877, Note_on_c, 0, 81, 85
1, 843879, Note_on_c, 0, 41, 96
1, 843879, Note_on_c, 0, 86, 105
1, 843883, Control_c, 0, 64, 127
1, 843907, Note_off_c, 0, 53, 71
1, 843913, Note_off_c, 0, 41, 62
1, 844004, Note_off_c, 0, 81, 62
1, 844208, Note_off_c, 0, 74, 52
1, 844211, Note_off_c, 0, 86, 53
1, 844298, Control_c, 0, 64, 97
1, 844313, Control_c, 0, 64, 0
1, 844342, Note_on_c, 0, 49, 103
1, 844343, Control_c, 0, 64, 70
1, 844345, Note_on_c, 0, 45, 85
1, 844345, Note_on_c, 0, 37, 83
1, 844346, Note_on_c, 0, 76, 108
1, 844348, Note_on_c, 0, 88, 103
1, 844357, Note_on_c, 0, 81, 57
1, 844357, Control_c, 0, 64, 85
1, 844372, Control_c, 0, 64, 127
1, 844376, Note_off_c, 0, 81, 64
1, 844410, Note_off_c, 0, 49, 63
1, 844411, Note_off_c, 0, 37, 63
1, 844449, Note_off_c, 0, 45, 56
1, 844491, Note_off_c, 0, 88, 54
1, 844509, Note_off_c, 0, 76, 55
1, 844557, Control_c, 0, 64, 97
1, 844572, Control_c, 0, 64, 61
1, 844587, Control_c, 0, 64, 0
1, 844617, Control_c, 0, 64, 58
1, 844629, Note_on_c, 0, 50, 103
1, 844631, Control_c, 0, 64, 80
1, 844634, Note_on_c, 0, 45, 87
1, 844634, Note_on_c, 0, 89, 108
1, 844635, Note_on_c, 0, 77, 105
1, 844637, Note_on_c, 0, 38, 80
1, 844639, Note_on_c, 0, 81, 75
1, 844646, Control_c, 0, 64, 127
1, 844661, Note_off_c, 0, 81, 69
1, 844664, Note_off_c, 0, 38, 65
1, 844668, Note_off_c, 0, 77, 67
1, 844669, Note_on_c, 0, 87, 59
1, 844675, Note_off_c, 0, 50, 69
1, 844681, Note_off_c, 0, 45, 66
1, 844684, Note_off_c, 0, 89, 67
1, 844693, Note_off_c, 0, 87, 39
1, 844972, Control_c, 0, 64, 103
1, 844987, Control_c, 0, 64, 89
1, 845003, Control_c, 0, 64, 77
1, 845018, Control_c, 0, 64, 54
1, 845033, Control_c, 0, 64, 0
1, 845528, Note_on_c, 0, 40, 80
1, 845552, Note_on_c, 0, 44, 79
1, 845598, Note_on_c, 0, 47, 72
1, 845620, Note_on_c, 0, 52, 102
1, 845628, Note_on_c, 0, 68, 109
1, 845629, Note_on_c, 0, 71, 82
1, 845631, Note_on_c, 0, 80, 96
1, 845632, Note_on_c, 0, 74, 83
1, 845632, Control_c, 0, 64, 55
1, 845646, Control_c, 0, 64, 95
1, 845647, Note_off_c, 0, 40, 61
1, 845661, Control_c, 0, 64, 127
1, 845666, Note_off_c, 0, 68, 67
1, 845670, Note_off_c, 0, 71, 63
1, 845680, Note_off_c, 0, 52, 67
1, 845682, Note_off_c, 0, 74, 68
1, 845686, Note_off_c, 0, 47, 66
1, 845694, Note_off_c, 0, 44, 64
1, 845697, Note_off_c, 0, 80, 67
1, 846128, Control_c, 0, 64, 106
1, 846143, Control_c, 0, 64, 85
1, 846158, Control_c, 0, 64, 67
1, 846173, Control_c, 0, 64, 0
1, 846551, Note_on_c, 0, 33, 83
1, 846572, Note_on_c, 0, 40, 69
1, 846604, Control_c, 0, 64, 60
1, 846614, Note_on_c, 0, 45, 93
1, 846619, Control_c, 0, 64, 83
1, 846630, Note_off_c, 0, 33, 62
1, 846633, Control_c, 0, 64, 127
1, 846653, Note_off_c, 0, 40, 64
1, 846655, Note_off_c, 0, 45, 67
1, 846670, Note_on_c, 0, 73, 89
1, 846670, Note_on_c, 0, 76, 91
1, 846671, Note_on_c, 0, 69, 101
1, 846672, Note_on_c, 0, 81, 99
1, 846800, Note_on_c, 0, 67, 99
1, 846804, Note_on_c, 0, 55, 89
1, 846823, Note_off_c, 0, 67, 63
1, 846827, Note_off_c, 0, 55, 66
1, 846844, Note_on_c, 0, 57, 36
1, 846845, Note_off_c, 0, 57, 127
1, 846904, Note_on_c, 0, 67, 101
1, 846905, Note_on_c, 0, 55, 91
1, 846934, Note_off_c, 0, 67, 65
1, 846935, Note_off_c, 0, 55, 67
1, 847010, Note_on_c, 0, 67, 102
1, 847013, Note_on_c, 0, 55, 99
1, 847043, Note_off_c, 0, 67, 67
1, 847051, Note_off_c, 0, 55, 60
1, 847115, Control_c, 0, 64, 100
1, 847130, Control_c, 0, 64, 73
1, 847131, Note_on_c, 0, 67, 100
1, 847134, Note_on_c, 0, 55, 101
1, 847144, Control_c, 0, 64, 66
1, 847159, Control_c, 0, 64, 73
1, 847174, Control_c, 0, 64, 78
1, 847189, Control_c, 0, 64, 82
1, 847204, Control_c, 0, 64, 90
1, 847218, Control_c, 0, 64, 107
1, 847233, Control_c, 0, 64, 127
1, 847240, Note_off_c, 0, 81, 40
1, 847263, Note_off_c, 0, 76, 55
1, 847264, Note_off_c, 0, 69, 55
1, 847281, Note_off_c, 0, 73, 59
1, 847346, Note_on_c, 0, 81, 102
1, 847349, Note_on_c, 0, 69, 99
1, 847350, Note_on_c, 0, 79, 95
1, 847350, Note_off_c, 0, 67, 61
1, 847361, Note_off_c, 0, 55, 63
1, 847508, Note_off_c, 0, 81, 56
1, 847513, Note_off_c, 0, 69, 56
1, 847549, Note_off_c, 0, 79, 62
1, 847606, Note_on_c, 0, 77, 78
1, 847607, Note_on_c, 0, 81, 90
1, 847613, Note_on_c, 0, 69, 77
1, 847686, Control_c, 0, 64, 95
1, 847701, Control_c, 0, 64, 68
1, 847710, Note_on_c, 0, 65, 94
1, 847716, Control_c, 0, 64, 38
1, 847716, Note_on_c, 0, 53, 83
1, 847731, Control_c, 0, 64, 65
1, 847742, Note_off_c, 0, 53, 72
1, 847746, Control_c, 0, 64, 72
1, 847750, Note_off_c, 0, 65, 63
1, 847761, Control_c, 0, 64, 79
1, 847775, Control_c, 0, 64, 90
1, 847790, Control_c, 0, 64, 106
1, 847805, Control_c, 0, 64, 127
1, 847808, Note_on_c, 0, 53, 88
1, 847808, Note_on_c, 0, 65, 87
1, 847844, Note_off_c, 0, 65, 68
1, 847848, Note_off_c, 0, 53, 67
1, 847923, Note_on_c, 0, 65, 103
1, 847928, Note_on_c, 0, 53, 95
1, 847963, Note_off_c, 0, 65, 68
1, 847967, Note_off_c, 0, 53, 65
1, 847994, Note_off_c, 0, 69, 60
1, 848009, Note_off_c, 0, 77, 59
1, 848027, Control_c, 0, 64, 108
1, 848032, Note_on_c, 0, 74, 94
1, 848040, Note_on_c, 0, 62, 101
1, 848042, Control_c, 0, 64, 75
1, 848043, Note_on_c, 0, 50, 99
1, 848054, Note_off_c, 0, 81, 58
1, 848057, Control_c, 0, 64, 58
1, 848072, Control_c, 0, 64, 67
1, 848086, Note_off_c, 0, 50, 62
1, 848087, Control_c, 0, 64, 76
1, 848099, Note_off_c, 0, 62, 59
1, 848101, Control_c, 0, 64, 85
1, 848116, Control_c, 0, 64, 102
1, 848131, Control_c, 0, 64, 127
1, 848271, Note_on_c, 0, 64, 99
1, 848278, Note_on_c, 0, 52, 70
1, 848279, Note_off_c, 0, 74, 56
1, 848285, Note_on_c, 0, 76, 85
1, 848286, Note_on_c, 0, 69, 99
1, 848290, Note_on_c, 0, 81, 98
1, 848294, Note_on_c, 0, 53, 65
1, 848303, Note_off_c, 0, 64, 65
1, 848312, Note_off_c, 0, 53, 67
1, 848323, Note_off_c, 0, 52, 63
1, 848440, Note_on_c, 0, 45, 63
1, 848442, Note_on_c, 0, 49, 80
1, 848443, Note_off_c, 0, 69, 55
1, 848443, Note_off_c, 0, 81, 56
1, 848463, Note_on_c, 0, 52, 67
1, 848466, Control_c, 0, 64, 88
1, 848480, Control_c, 0, 64, 0
1, 848487, Note_off_c, 0, 76, 58
1, 848508, Note_on_c, 0, 57, 86
1, 848515, Note_off_c, 0, 45, 64
1, 848534, Note_off_c, 0, 49, 62
1, 848536, Note_on_c, 0, 69, 91
1, 848539, Note_on_c, 0, 76, 77
1, 848539, Note_on_c, 0, 81, 90
1, 848539, Control_c, 0, 64, 64
1, 848541, Note_on_c, 0, 73, 86
1, 848541, Note_off_c, 0, 52, 63
1, 848541, Note_off_c, 0, 57, 64
1, 848554, Control_c, 0, 64, 78
1, 848569, Control_c, 0, 64, 94
1, 848584, Control_c, 0, 64, 127
1, 848643, Note_on_c, 0, 67, 95
1, 848648, Note_on_c, 0, 55, 90
1, 848669, Note_off_c, 0, 55, 71
1, 848674, Note_off_c, 0, 67, 62
1, 848753, Note_on_c, 0, 67, 105
1, 848754, Note_on_c, 0, 55, 94
1, 848780, Note_off_c, 0, 55, 60
1, 848783, Note_off_c, 0, 67, 59
1, 848850, Note_on_c, 0, 67, 107
1, 848854, Note_on_c, 0, 55, 97
1, 848885, Note_off_c, 0, 67, 64
1, 848892, Note_off_c, 0, 55, 65
1, 848968, Note_on_c, 0, 67, 100
1, 848968, Control_c, 0, 64, 96
1, 848971, Note_on_c, 0, 55, 101
1, 848983, Control_c, 0, 64, 50
1, 848999, Control_c, 0, 64, 0
1, 849066, Control_c, 0, 64, 52
1, 849081, Control_c, 0, 64, 68
1, 849095, Control_c, 0, 64, 77
1, 849110, Control_c, 0, 64, 85
1, 849121, Note_off_c, 0, 81, 53
1, 849125, Control_c, 0, 64, 94
1, 849134, Note_off_c, 0, 69, 60
1, 849134, Note_off_c, 0, 76, 58
1, 849140, Control_c, 0, 64, 103
1, 849141, Note_off_c, 0, 73, 60
1, 849154, Control_c, 0, 64, 119
1, 849169, Control_c, 0, 64, 127
1, 849206, Note_on_c, 0, 81, 103
1, 849207, Note_on_c, 0, 69, 103
1, 849209, Note_on_c, 0, 79, 98
1, 849225, Note_off_c, 0, 67, 62
1, 849226, Note_off_c, 0, 55, 61
1, 849374, Note_off_c, 0, 81, 55
1, 849382, Note_off_c, 0, 69, 57
1, 849404, Note_off_c, 0, 79, 57
1, 849464, Note_on_c, 0, 77, 82
1, 849465, Note_on_c, 0, 81, 93
1, 849468, Note_on_c, 0, 69, 83
1, 849565, Note_on_c, 0, 65, 94
1, 849569, Control_c, 0, 64, 124
1, 849571, Note_on_c, 0, 53, 82
1, 849584, Control_c, 0, 64, 72
1, 849599, Control_c, 0, 64, 0
1, 849604, Note_off_c, 0, 53, 62
1, 849606, Note_off_c, 0, 65, 62
1, 849613, Control_c, 0, 64, 40
1, 849628, Control_c, 0, 64, 65
1, 849643, Control_c, 0, 64, 71
1, 849658, Control_c, 0, 64, 80
1, 849666, Note_on_c, 0, 65, 86
1, 849669, Note_on_c, 0, 53, 85
1, 849672, Control_c, 0, 64, 96
1, 849687, Control_c, 0, 64, 123
1, 849702, Control_c, 0, 64, 127
1, 849712, Note_off_c, 0, 53, 66
1, 849713, Note_off_c, 0, 65, 65
1, 849786, Note_on_c, 0, 65, 93
1, 849794, Note_on_c, 0, 53, 84
1, 849827, Note_off_c, 0, 53, 62
1, 849827, Note_off_c, 0, 65, 66
1, 849836, Note_off_c, 0, 69, 58
1, 849867, Note_off_c, 0, 77, 57
1, 849874, Control_c, 0, 64, 90
1, 849889, Control_c, 0, 64, 77
1, 849898, Note_on_c, 0, 62, 98
1, 849898, Note_on_c, 0, 50, 100
1, 849898, Note_on_c, 0, 74, 101
1, 849904, Control_c, 0, 64, 79
1, 849915, Note_off_c, 0, 81, 58
1, 849918, Control_c, 0, 64, 94
1, 849933, Control_c, 0, 64, 109
1, 849942, Note_off_c, 0, 50, 65
1, 849948, Note_off_c, 0, 62, 61
1, 849948, Control_c, 0, 64, 127
1, 850118, Note_off_c, 0, 74, 57
1, 850121, Note_on_c, 0, 64, 96
1, 850122, Note_on_c, 0, 52, 88
1, 850128, Note_on_c, 0, 76, 86
1, 850131, Note_on_c, 0, 69, 101
1, 850132, Note_on_c, 0, 81, 99
1, 850145, Note_off_c, 0, 64, 66
1, 850169, Note_off_c, 0, 52, 65
1, 850268, Note_off_c, 0, 81, 55
1, 850277, Note_off_c, 0, 69, 57
1, 850316, Note_off_c, 0, 76, 56
1, 850348, Control_c, 0, 64, 89
1, 850362, Control_c, 0, 64, 0
1, 850366, Note_on_c, 0, 49, 80
1, 850366, Note_on_c, 0, 52, 85
1, 850368, Note_on_c, 0, 57, 94
1, 850369, Note_on_c, 0, 69, 99
1, 850371, Note_on_c, 0, 81, 98
1, 850372, Note_on_c, 0, 45, 75
1, 850372, Note_on_c, 0, 76, 84
1, 850373, Note_on_c, 0, 73, 89
1, 850482, Control_c, 0, 64, 62
1, 850496, Control_c, 0, 64, 70
1, 850518, Control_c, 0, 64, 75
1, 850533, Control_c, 0, 64, 81
1, 850548, Control_c, 0, 64, 87
1, 850563, Control_c, 0, 64, 91
1, 850578, Control_c, 0, 64, 95
1, 850593, Control_c, 0, 64, 100
1, 850608, Control_c, 0, 64, 105
1, 850623, Control_c, 0, 64, 110
1, 850637, Note_off_c, 0, 57, 55
1, 850638, Control_c, 0, 64, 126
1, 850653, Control_c, 0, 64, 127
1, 850703, Note_off_c, 0, 69, 53
1, 850728, Note_off_c, 0, 81, 46
1, 850882, Note_on_c, 0, 56, 93
1, 850883, Note_on_c, 0, 68, 102
1, 850901, Note_off_c, 0, 73, 58
1, 850904, Note_off_c, 0, 52, 61
1, 851136, Note_off_c, 0, 68, 54
1, 851142, Note_off_c, 0, 45, 40
1, 851151, Note_off_c, 0, 56, 58
1, 851171, Note_off_c, 0, 76, 45
1, 851356, Control_c, 0, 64, 93
1, 851362, Note_on_c, 0, 74, 85
1, 851364, Note_on_c, 0, 81, 103
1, 851365, Note_on_c, 0, 67, 97
1, 851371, Note_on_c, 0, 50, 79
1, 851371, Note_on_c, 0, 55, 89
1, 851371, Note_on_c, 0, 57, 81
1, 851371, Control_c, 0, 64, 61
1, 851373, Note_off_c, 0, 49, 59
1, 851378, Note_on_c, 0, 45, 70
1, 851387, Control_c, 0, 64, 0
1, 851476, Control_c, 0, 64, 61
1, 851490, Control_c, 0, 64, 68
1, 851505, Control_c, 0, 64, 74
1, 851520, Control_c, 0, 64, 79
1, 851535, Control_c, 0, 64, 84
1, 851550, Control_c, 0, 64, 89
1, 851564, Control_c, 0, 64, 94
1, 851579, Control_c, 0, 64, 99
1, 851594, Control_c, 0, 64, 105
1, 851609, Control_c, 0, 64, 110
1, 851624, Control_c, 0, 64, 119
1, 851639, Control_c, 0, 64, 127
1, 851702, Note_off_c, 0, 81, 37
1, 851706, Note_off_c, 0, 57, 57
1, 851715, Note_off_c, 0, 55, 60
1, 851731, Note_off_c, 0, 67, 59
1, 851857, Note_on_c, 0, 65, 96
1, 851859, Note_on_c, 0, 53, 83
1, 851872, Note_off_c, 0, 74, 64
1, 851875, Note_off_c, 0, 50, 63
1, 851913, Note_off_c, 0, 65, 66
1, 851970, Note_off_c, 0, 45, 33
1, 852091, Note_off_c, 0, 53, 62
1, 852328, Note_on_c, 0, 57, 94
1, 852328, Control_c, 0, 64, 81
1, 852330, Note_on_c, 0, 69, 90
1, 852332, Note_on_c, 0, 64, 78
1, 852333, Note_on_c, 0, 61, 76
1, 852336, Note_on_c, 0, 52, 77
1, 852339, Note_on_c, 0, 45, 69
1, 852343, Control_c, 0, 64, 0
1, 852387, Control_c, 0, 64, 31
1, 852402, Control_c, 0, 64, 60
1, 852417, Control_c, 0, 64, 67
1, 852432, Control_c, 0, 64, 73
1, 852447, Control_c, 0, 64, 79
1, 852462, Control_c, 0, 64, 86
1, 852477, Control_c, 0, 64, 91
1, 852491, Control_c, 0, 64, 97
1, 852506, Control_c, 0, 64, 102
1, 852521, Control_c, 0, 64, 109
1, 852536, Control_c, 0, 64, 119
1, 852551, Control_c, 0, 64, 127
1, 852655, Note_off_c, 0, 52, 60
1, 852686, Note_off_c, 0, 45, 62
1, 852795, Control_c, 0, 64, 90
1, 852810, Control_c, 0, 64, 71
1, 852816, Note_on_c, 0, 56, 102
1, 852819, Note_on_c, 0, 44, 87
1, 852825, Control_c, 0, 64, 68
1, 852839, Control_c, 0, 64, 76
1, 852854, Control_c, 0, 64, 80
1, 852869, Control_c, 0, 64, 86
1, 852884, Control_c, 0, 64, 95
1, 852898, Control_c, 0, 64, 111
1, 852913, Control_c, 0, 64, 127
1, 853075, Note_off_c, 0, 61, 51
1, 853159, Note_off_c, 0, 57, 52
1, 853162, Note_off_c, 0, 56, 63
1, 853162, Note_off_c, 0, 69, 29
1, 853243, Note_off_c, 0, 64, 60
1, 853297, Note_on_c, 0, 57, 89
1, 853299, Note_on_c, 0, 62, 77
1, 853299, Note_on_c, 0, 69, 92
1, 853299, Control_c, 0, 64, 93
1, 853303, Note_on_c, 0, 50, 83
1, 853304, Note_on_c, 0, 55, 95
1, 853307, Note_on_c, 0, 43, 76
1, 853308, Note_off_c, 0, 44, 55
1, 853314, Control_c, 0, 64, 60
1, 853329, Control_c, 0, 64, 0
1, 853403, Control_c, 0, 64, 53
1, 853418, Control_c, 0, 64, 67
1, 853433, Control_c, 0, 64, 75
1, 853448, Control_c, 0, 64, 80
1, 853462, Control_c, 0, 64, 85
1, 853477, Control_c, 0, 64, 89
1, 853492, Control_c, 0, 64, 95
1, 853514, Control_c, 0, 64, 105
1, 853529, Control_c, 0, 64, 119
1, 853544, Control_c, 0, 64, 127
1, 853601, Note_off_c, 0, 43, 58
1, 853606, Note_off_c, 0, 55, 53
1, 853781, Control_c, 0, 64, 123
1, 853797, Control_c, 0, 64, 76
1, 853811, Control_c, 0, 64, 0
1, 853822, Note_on_c, 0, 53, 86
1, 853827, Note_on_c, 0, 41, 77
1, 853860, Note_off_c, 0, 50, 64
1, 853871, Control_c, 0, 64, 45
1, 853885, Control_c, 0, 64, 64
1, 853893, Note_off_c, 0, 53, 66
1, 853900, Control_c, 0, 64, 73
1, 853915, Control_c, 0, 64, 84
1, 853930, Control_c, 0, 64, 95
1, 853934, Note_off_c, 0, 41, 62
1, 853944, Control_c, 0, 64, 103
1, 853959, Control_c, 0, 64, 109
1, 853968, Note_off_c, 0, 62, 59
1, 853974, Control_c, 0, 64, 122
1, 853989, Control_c, 0, 64, 127
1, 854111, Note_on_c, 0, 33, 75
1, 854111, Note_off_c, 0, 69, 35
1, 854122, Control_c, 0, 64, 82
1, 854137, Note_off_c, 0, 57, 50
1, 854137, Control_c, 0, 64, 0
1, 854153, Note_on_c, 0, 40, 72
1, 854197, Control_c, 0, 64, 35
1, 854203, Note_off_c, 0, 33, 60
1, 854211, Control_c, 0, 64, 64
1, 854223, Note_on_c, 0, 45, 73
1, 854226, Control_c, 0, 64, 70
1, 854241, Note_off_c, 0, 40, 63
1, 854241, Control_c, 0, 64, 75
1, 854262, Control_c, 0, 64, 78
1, 854277, Control_c, 0, 64, 80
1, 854292, Control_c, 0, 64, 81
1, 854298, Note_off_c, 0, 45, 65
1, 854307, Control_c, 0, 64, 82
1, 854322, Control_c, 0, 64, 84
1, 854337, Control_c, 0, 64, 88
1, 854348, Note_on_c, 0, 52, 76
1, 854350, Note_on_c, 0, 57, 85
1, 854350, Note_on_c, 0, 69, 88
1, 854352, Control_c, 0, 64, 90
1, 854355, Note_on_c, 0, 64, 75
1, 854357, Note_on_c, 0, 61, 74
1, 854366, Control_c, 0, 64, 92
1, 854376, Note_off_c, 0, 52, 68
1, 854381, Control_c, 0, 64, 93
1, 854396, Control_c, 0, 64, 95
1, 854411, Control_c, 0, 64, 95
1, 854426, Control_c, 0, 64, 96
1, 854441, Control_c, 0, 64, 97
1, 854456, Control_c, 0, 64, 98
1, 854470, Control_c, 0, 64, 99
1, 854485, Control_c, 0, 64, 100
1, 854500, Control_c, 0, 64, 100
1, 854515, Control_c, 0, 64, 101
1, 854530, Control_c, 0, 64, 103
1, 854544, Control_c, 0, 64, 103
1, 854559, Control_c, 0, 64, 104
1, 854590, Control_c, 0, 64, 104
1, 855012, Control_c, 0, 64, 91
1, 855027, Control_c, 0, 64, 69
1, 855041, Control_c, 0, 64, 0
1, 855051, Note_on_c, 0, 33, 75
1, 855097, Note_on_c, 0, 40, 72
1, 855100, Control_c, 0, 64, 51
1, 855115, Control_c, 0, 64, 65
1, 855126, Note_off_c, 0, 33, 60
1, 855130, Control_c, 0, 64, 71
1, 855145, Control_c, 0, 64, 76
1, 855152, Note_off_c, 0, 69, 39
1, 855156, Note_on_c, 0, 45, 72
1, 855159, Control_c, 0, 64, 81
1, 855165, Note_off_c, 0, 40, 62
1, 855174, Control_c, 0, 64, 84
1, 855177, Note_off_c, 0, 57, 52
1, 855189, Control_c, 0, 64, 86
1, 855196, Note_off_c, 0, 61, 59
1, 855198, Note_off_c, 0, 64, 41
1, 855204, Control_c, 0, 64, 88
1, 855217, Note_off_c, 0, 45, 64
1, 855219, Control_c, 0, 64, 91
1, 855234, Control_c, 0, 64, 95
1, 855249, Control_c, 0, 64, 98
1, 855261, Note_on_c, 0, 52, 72
1, 855264, Control_c, 0, 64, 99
1, 855266, Note_on_c, 0, 69, 81
1, 855267, Note_on_c, 0, 57, 82
1, 855279, Note_on_c, 0, 61, 67
1, 855279, Note_on_c, 0, 64, 61
1, 855279, Control_c, 0, 64, 99
1, 855293, Control_c, 0, 64, 100
1, 855294, Note_off_c, 0, 52, 64
1, 855308, Control_c, 0, 64, 102
1, 855323, Control_c, 0, 64, 103
1, 855383, Control_c, 0, 64, 103
1, 855398, Control_c, 0, 64, 104
1, 855413, Control_c, 0, 64, 105
1, 855428, Control_c, 0, 64, 105
1, 855457, Control_c, 0, 64, 106
1, 855472, Control_c, 0, 64, 107
1, 855487, Control_c, 0, 64, 108
1, 855502, Control_c, 0, 64, 109
1, 855531, Control_c, 0, 64, 110
1, 855546, Control_c, 0, 64, 112
1, 855561, Control_c, 0, 64, 115
1, 855576, Control_c, 0, 64, 121
1, 855590, Control_c, 0, 64, 127
1, 855967, Control_c, 0, 64, 82
1, 855981, Control_c, 0, 64, 0
1, 855998, Note_on_c, 0, 33, 77
1, 856055, Control_c, 0, 64, 41
1, 856064, Note_on_c, 0, 40, 74
1, 856070, Control_c, 0, 64, 64
1, 856085, Control_c, 0, 64, 70
1, 856094, Note_off_c, 0, 33, 60
1, 856100, Control_c, 0, 64, 75
1, 856114, Control_c, 0, 64, 78
1, 856116, Note_off_c, 0, 69, 38
1, 856129, Control_c, 0, 64, 80
1, 856131, Note_on_c, 0, 45, 72
1, 856137, Note_off_c, 0, 40, 62
1, 856144, Control_c, 0, 64, 83
1, 856148, Note_off_c, 0, 57, 51
1, 856159, Control_c, 0, 64, 87
1, 856175, Control_c, 0, 64, 91
1, 856190, Control_c, 0, 64, 95
1, 856194, Note_off_c, 0, 45, 64
1, 856198, Note_off_c, 0, 61, 39
1, 856198, Note_off_c, 0, 64, 34
1, 856204, Control_c, 0, 64, 97
1, 856219, Control_c, 0, 64, 98
1, 856234, Control_c, 0, 64, 100
1, 856249, Control_c, 0, 64, 102
1, 856261, Note_on_c, 0, 52, 78
1, 856262, Note_on_c, 0, 57, 78
1, 856264, Control_c, 0, 64, 106
1, 856265, Note_on_c, 0, 69, 82
1, 856271, Note_on_c, 0, 61, 64
1, 856273, Note_on_c, 0, 64, 67
1, 856278, Control_c, 0, 64, 110
1, 856288, Note_off_c, 0, 52, 65
1, 856293, Control_c, 0, 64, 113
1, 856308, Control_c, 0, 64, 115
1, 856322, Control_c, 0, 64, 115
1, 856337, Control_c, 0, 64, 116
1, 856352, Control_c, 0, 64, 117
1, 856367, Control_c, 0, 64, 118
1, 856383, Control_c, 0, 64, 119
1, 856412, Control_c, 0, 64, 119
1, 856427, Control_c, 0, 64, 120
1, 856442, Control_c, 0, 64, 122
1, 856456, Control_c, 0, 64, 124
1, 856471, Control_c, 0, 64, 126
1, 856486, Control_c, 0, 64, 127
1, 857317, Control_c, 0, 64, 110
1, 857332, Control_c, 0, 64, 97
1, 857335, Note_on_c, 0, 31, 71
1, 857347, Control_c, 0, 64, 84
1, 857361, Control_c, 0, 64, 71
1, 857376, Control_c, 0, 64, 46
1, 857391, Control_c, 0, 64, 0
1, 857553, Control_c, 0, 64, 19
1, 857568, Control_c, 0, 64, 56
1, 857583, Control_c, 0, 64, 63
1, 857583, Control_c, 0, 67, 8
1, 857598, Control_c, 0, 64, 65
1, 857598, Control_c, 0, 67, 9
1, 857613, Control_c, 0, 64, 68
1, 857613, Control_c, 0, 67, 11
1, 857628, Control_c, 0, 64, 70
1, 857628, Control_c, 0, 67, 13
1, 857642, Control_c, 0, 64, 73
1, 857642, Control_c, 0, 67, 16
1, 857657, Control_c, 0, 64, 75
1, 857657, Control_c, 0, 67, 18
1, 857672, Control_c, 0, 64, 78
1, 857672, Control_c, 0, 67, 21
1, 857687, Control_c, 0, 64, 81
1, 857687, Control_c, 0, 67, 25
1, 857702, Control_c, 0, 64, 85
1, 857702, Control_c, 0, 67, 29
1, 857717, Control_c, 0, 64, 88
1, 857717, Control_c, 0, 67, 32
1, 857732, Control_c, 0, 64, 91
1, 857732, Control_c, 0, 67, 35
1, 857747, Control_c, 0, 64, 93
1, 857747, Control_c, 0, 67, 38
1, 857761, Control_c, 0, 64, 96
1, 857761, Control_c, 0, 67, 42
1, 857771, Note_off_c, 0, 69, 36
1, 857777, Control_c, 0, 64, 99
1, 857777, Control_c, 0, 67, 45
1, 857792, Control_c, 0, 64, 102
1, 857792, Control_c, 0, 67, 49
1, 857806, Control_c, 0, 64, 105
1, 857806, Control_c, 0, 67, 53
1, 857821, Control_c, 0, 64, 108
1, 857821, Control_c, 0, 67, 58
1, 857836, Control_c, 0, 64, 112
1, 857836, Control_c, 0, 67, 65
1, 857851, Control_c, 0, 64, 118
1, 857851, Control_c, 0, 67, 73
1, 857866, Control_c, 0, 64, 127
1, 857866, Control_c, 0, 67, 80
1, 857881, Control_c, 0, 67, 85
1, 857896, Control_c, 0, 67, 92
1, 857910, Control_c, 0, 67, 98
1, 857925, Control_c, 0, 67, 104
1, 857940, Control_c, 0, 67, 109
1, 857955, Control_c, 0, 67, 115
1, 857970, Control_c, 0, 67, 120
1, 857984, Control_c, 0, 67, 126
1, 857989, Note_off_c, 0, 57, 47
1, 858006, Control_c, 0, 67, 127
1, 858020, Note_off_c, 0, 31, 42
1, 858155, Control_c, 0, 64, 100
1, 858166, Note_on_c, 0, 30, 60
1, 858170, Control_c, 0, 64, 70
1, 858176, Note_off_c, 0, 61, 50
1, 858184, Control_c, 0, 64, 0
1, 858215, Note_off_c, 0, 64, 37
1, 858225, Note_on_c, 0, 37, 56
1, 858272, Note_off_c, 0, 30, 60
1, 858273, Control_c, 0, 64, 39
1, 858288, Control_c, 0, 64, 63
1, 858297, Note_on_c, 0, 42, 60
1, 858301, Note_off_c, 0, 37, 62
1, 858303, Control_c, 0, 64, 66
1, 858317, Control_c, 0, 64, 67
1, 858332, Control_c, 0, 64, 69
1, 858342, Note_off_c, 0, 42, 63
1, 858347, Control_c, 0, 64, 72
1, 858362, Control_c, 0, 64, 75
1, 858376, Control_c, 0, 64, 80
1, 858391, Control_c, 0, 64, 83
1, 858406, Control_c, 0, 64, 85
1, 858421, Control_c, 0, 64, 87
1, 858435, Control_c, 0, 64, 89
1, 858450, Control_c, 0, 64, 92
1, 858456, Note_on_c, 0, 70, 67
1, 858465, Control_c, 0, 64, 95
1, 858468, Note_on_c, 0, 58, 47
1, 858473, Note_on_c, 0, 52, 50
1, 858473, Note_on_c, 0, 64, 48
1, 858479, Note_on_c, 0, 61, 40
1, 858480, Control_c, 0, 64, 98
1, 858495, Control_c, 0, 64, 100
1, 858510, Note_off_c, 0, 52, 63
1, 858510, Control_c, 0, 64, 103
1, 858525, Control_c, 0, 64, 106
1, 858540, Control_c, 0, 64, 108
1, 858555, Control_c, 0, 64, 109
1, 858570, Control_c, 0, 64, 110
1, 858585, Control_c, 0, 64, 110
1, 858599, Control_c, 0, 64, 114
1, 858614, Control_c, 0, 64, 119
1, 858629, Control_c, 0, 64, 126
1, 858644, Control_c, 0, 64, 127
1, 858978, Control_c, 0, 64, 120
1, 858993, Control_c, 0, 64, 116
1, 859037, Control_c, 0, 67, 127
1, 859051, Control_c, 0, 67, 126
1, 859066, Control_c, 0, 67, 125
1, 859081, Control_c, 0, 67, 123
1, 859096, Control_c, 0, 67, 120
1, 859109, Note_off_c, 0, 70, 32
1, 859111, Control_c, 0, 67, 117
1, 859125, Control_c, 0, 64, 117
1, 859125, Control_c, 0, 67, 114
1, 859140, Control_c, 0, 67, 111
1, 859155, Control_c, 0, 64, 118
1, 859155, Control_c, 0, 67, 108
1, 859170, Control_c, 0, 64, 122
1, 859170, Control_c, 0, 67, 105
1, 859185, Control_c, 0, 64, 127
1, 859185, Control_c, 0, 67, 102
1, 859199, Control_c, 0, 67, 99
1, 859212, Note_on_c, 0, 30, 54
1, 859214, Control_c, 0, 67, 97
1, 859229, Control_c, 0, 67, 95
1, 859242, Note_off_c, 0, 64, 38
1, 859244, Control_c, 0, 67, 95
1, 859246, Note_on_c, 0, 37, 55
1, 859252, Note_off_c, 0, 58, 29
1, 859258, Control_c, 0, 67, 94
1, 859264, Note_off_c, 0, 30, 59
1, 859273, Control_c, 0, 67, 93
1, 859278, Note_off_c, 0, 61, 39
1, 859288, Control_c, 0, 67, 92
1, 859296, Note_on_c, 0, 42, 60
1, 859297, Note_off_c, 0, 37, 60
1, 859303, Control_c, 0, 67, 91
1, 859318, Control_c, 0, 67, 89
1, 859327, Note_off_c, 0, 42, 64
1, 859333, Control_c, 0, 67, 87
1, 859348, Control_c, 0, 67, 84
1, 859362, Control_c, 0, 67, 80
1, 859378, Control_c, 0, 67, 77
1, 859393, Control_c, 0, 67, 73
1, 859408, Control_c, 0, 67, 71
1, 859422, Control_c, 0, 67, 69
1, 859437, Control_c, 0, 67, 67
1, 859440, Note_on_c, 0, 70, 70
1, 859449, Note_on_c, 0, 52, 50
1, 859450, Note_on_c, 0, 58, 49
1, 859452, Control_c, 0, 67, 64
1, 859457, Note_on_c, 0, 64, 50
1, 859461, Note_on_c, 0, 61, 44
1, 859467, Control_c, 0, 67, 62
1, 859482, Control_c, 0, 67, 61
1, 859501, Note_off_c, 0, 52, 56
1, 859504, Control_c, 0, 67, 59
1, 859519, Control_c, 0, 67, 58
1, 859534, Control_c, 0, 67, 58
1, 859549, Control_c, 0, 67, 57
1, 859563, Control_c, 0, 67, 57
1, 859578, Control_c, 0, 67, 56
1, 859593, Control_c, 0, 67, 55
1, 859608, Control_c, 0, 67, 55
1, 859623, Control_c, 0, 67, 54
1, 859637, Control_c, 0, 67, 54
1, 859860, Control_c, 0, 67, 54
1, 859889, Control_c, 0, 67, 55
1, 859904, Control_c, 0, 67, 56
1, 859919, Control_c, 0, 67, 58
1, 859934, Control_c, 0, 67, 60
1, 859948, Control_c, 0, 67, 61
1, 859963, Control_c, 0, 67, 62
1, 859978, Control_c, 0, 67, 64
1, 859993, Control_c, 0, 67, 66
1, 860007, Control_c, 0, 67, 68
1, 860022, Control_c, 0, 67, 72
1, 860037, Control_c, 0, 67, 75
1, 860052, Control_c, 0, 67, 79
1, 860067, Control_c, 0, 67, 85
1, 860081, Control_c, 0, 67, 91
1, 860083, Note_off_c, 0, 58, 33
1, 860096, Control_c, 0, 67, 96
1, 860111, Control_c, 0, 67, 99
1, 860126, Control_c, 0, 67, 100
1, 860141, Control_c, 0, 67, 101
1, 860149, Note_off_c, 0, 70, 25
1, 860158, Note_off_c, 0, 61, 31
1, 860169, Note_off_c, 0, 64, 37
1, 860186, Control_c, 0, 67, 100
1, 860201, Control_c, 0, 67, 100
1, 860216, Control_c, 0, 67, 99
1, 860231, Control_c, 0, 67, 98
1, 860268, Control_c, 0, 67, 98
1, 860283, Control_c, 0, 67, 97
1, 860298, Control_c, 0, 67, 96
1, 860312, Control_c, 0, 67, 96
1, 860327, Note_on_c, 0, 30, 48
1, 860327, Control_c, 0, 67, 95
1, 860342, Control_c, 0, 67, 94
1, 860357, Control_c, 0, 67, 94
1, 860372, Control_c, 0, 67, 93
1, 860386, Note_on_c, 0, 37, 54
1, 860386, Control_c, 0, 67, 92
1, 860401, Control_c, 0, 67, 91
1, 860409, Note_off_c, 0, 30, 50
1, 860416, Control_c, 0, 67, 90
1, 860430, Control_c, 0, 67, 89
1, 860442, Note_off_c, 0, 37, 58
1, 860445, Control_c, 0, 67, 89
1, 860457, Note_on_c, 0, 42, 48
1, 860460, Control_c, 0, 67, 88
1, 860475, Control_c, 0, 67, 86
1, 860490, Note_off_c, 0, 42, 61
1, 860490, Control_c, 0, 67, 83
1, 860504, Control_c, 0, 67, 81
1, 860519, Control_c, 0, 67, 78
1, 860534, Control_c, 0, 67, 77
1, 860549, Control_c, 0, 67, 75
1, 860564, Control_c, 0, 67, 73
1, 860579, Control_c, 0, 67, 71
1, 860594, Control_c, 0, 67, 69
1, 860608, Control_c, 0, 67, 67
1, 860623, Control_c, 0, 67, 66
1, 860638, Control_c, 0, 67, 65
1, 860653, Control_c, 0, 67, 65
1, 860668, Control_c, 0, 67, 64
1, 860683, Control_c, 0, 67, 63
1, 860684, Note_on_c, 0, 52, 43
1, 860689, Note_on_c, 0, 70, 57
1, 860697, Control_c, 0, 67, 62
1, 860703, Note_on_c, 0, 58, 38
1, 860707, Note_on_c, 0, 64, 42
1, 860710, Note_on_c, 0, 61, 35
1, 860712, Control_c, 0, 67, 61
1, 860727, Control_c, 0, 67, 61
1, 860742, Control_c, 0, 67, 60
1, 860757, Control_c, 0, 67, 58
1, 860771, Control_c, 0, 67, 57
1, 860786, Control_c, 0, 67, 55
1, 860801, Control_c, 0, 67, 54
1, 860816, Control_c, 0, 67, 53
1, 860830, Control_c, 0, 67, 52
1, 860845, Control_c, 0, 67, 50
1, 860860, Control_c, 0, 67, 49
1, 860875, Control_c, 0, 67, 48
1, 860890, Control_c, 0, 67, 46
1, 860904, Control_c, 0, 67, 45
1, 860919, Control_c, 0, 67, 44
1, 860934, Control_c, 0, 67, 43
1, 860949, Control_c, 0, 67, 42
1, 860965, Control_c, 0, 67, 41
1, 860980, Control_c, 0, 67, 40
1, 861002, Control_c, 0, 67, 39
1, 861017, Control_c, 0, 67, 38
1, 861032, Control_c, 0, 67, 37
1, 861047, Control_c, 0, 67, 36
1, 861061, Control_c, 0, 67, 36
1, 861076, Control_c, 0, 67, 35
1, 861091, Control_c, 0, 67, 33
1, 861106, Control_c, 0, 67, 32
1, 861121, Control_c, 0, 67, 31
1, 861135, Control_c, 0, 67, 30
1, 861150, Control_c, 0, 67, 29
1, 861165, Control_c, 0, 67, 28
1, 861180, Control_c, 0, 67, 26
1, 861195, Control_c, 0, 67, 25
1, 861209, Control_c, 0, 67, 24
1, 861224, Control_c, 0, 67, 22
1, 861239, Control_c, 0, 67, 21
1, 861253, Control_c, 0, 67, 19
1, 861268, Control_c, 0, 67, 17
1, 861283, Control_c, 0, 67, 16
1, 861298, Control_c, 0, 67, 14
1, 861313, Control_c, 0, 67, 12
1, 861327, Control_c, 0, 67, 11
1, 861342, Control_c, 0, 67, 10
1, 861357, Control_c, 0, 67, 8
1, 861372, Control_c, 0, 67, 0
1, 861898, Note_off_c, 0, 52, 28
1, 862063, Note_off_c, 0, 58, 42
1, 862144, Note_off_c, 0, 64, 37
1, 862171, Note_off_c, 0, 61, 37
1, 862314, Note_off_c, 0, 70, 48
1, 862417, Control_c, 0, 64, 89
1, 862432, Control_c, 0, 64, 0
1, 862754, Note_on_c, 0, 54, 97
1, 862758, Note_on_c, 0, 70, 101
1, 862758, Note_on_c, 0, 78, 91
1, 862759, Note_on_c, 0, 82, 98
1, 862761, Note_on_c, 0, 49, 85
1, 862761, Note_on_c, 0, 46, 83
1, 862764, Note_on_c, 0, 42, 76
1, 862781, Control_c, 0, 64, 58
1, 862790, Note_off_c, 0, 54, 68
1, 862791, Note_off_c, 0, 70, 66
1, 862796, Control_c, 0, 64, 91
1, 862797, Note_off_c, 0, 49, 64
1, 862800, Note_off_c, 0, 78, 68
1, 862805, Note_off_c, 0, 82, 67
1, 862808, Note_off_c, 0, 46, 63
1, 862811, Control_c, 0, 64, 127
1, 862820, Note_off_c, 0, 42, 63
1, 863003, Control_c, 0, 64, 111
1, 863009, Note_on_c, 0, 35, 78
1, 863017, Control_c, 0, 64, 68
1, 863032, Control_c, 0, 64, 0
1, 863038, Note_on_c, 0, 42, 78
1, 863076, Note_on_c, 0, 47, 90
1, 863092, Control_c, 0, 64, 62
1, 863096, Note_on_c, 0, 71, 104
1, 863097, Note_on_c, 0, 83, 99
1, 863098, Note_on_c, 0, 78, 90
1, 863098, Note_on_c, 0, 75, 92
1, 863101, Note_off_c, 0, 35, 65
1, 863106, Control_c, 0, 64, 77
1, 863121, Note_off_c, 0, 42, 64
1, 863122, Control_c, 0, 64, 95
1, 863129, Note_off_c, 0, 47, 68
1, 863137, Control_c, 0, 64, 127
1, 863348, Note_on_c, 0, 69, 90
1, 863351, Note_on_c, 0, 57, 86
1, 863381, Note_off_c, 0, 69, 61
1, 863384, Note_off_c, 0, 57, 62
1, 863459, Note_on_c, 0, 69, 97
1, 863462, Note_on_c, 0, 57, 92
1, 863493, Note_off_c, 0, 69, 65
1, 863494, Note_off_c, 0, 57, 64
1, 863558, Note_on_c, 0, 69, 98
1, 863563, Note_on_c, 0, 57, 86
1, 863593, Note_off_c, 0, 57, 53
1, 863596, Note_off_c, 0, 69, 64
1, 863667, Note_on_c, 0, 69, 105
1, 863670, Note_on_c, 0, 57, 100
1, 863679, Control_c, 0, 64, 90
1, 863694, Control_c, 0, 64, 76
1, 863709, Control_c, 0, 64, 78
1, 863723, Control_c, 0, 64, 85
1, 863738, Control_c, 0, 64, 93
1, 863753, Control_c, 0, 64, 108
1, 863768, Control_c, 0, 64, 127
1, 863782, Note_off_c, 0, 83, 48
1, 863820, Note_off_c, 0, 71, 56
1, 863820, Note_off_c, 0, 78, 34
1, 863846, Note_off_c, 0, 75, 25
1, 863902, Note_on_c, 0, 71, 102
1, 863902, Note_on_c, 0, 81, 100
1, 863903, Note_on_c, 0, 83, 98
1, 863926, Note_off_c, 0, 69, 58
1, 863935, Note_off_c, 0, 57, 61
1, 864070, Note_off_c, 0, 71, 58
1, 864077, Note_off_c, 0, 83, 57
1, 864091, Note_off_c, 0, 81, 58
1, 864151, Note_on_c, 0, 79, 83
1, 864153, Note_on_c, 0, 83, 93
1, 864156, Note_on_c, 0, 71, 85
1, 864205, Control_c, 0, 64, 109
1, 864219, Control_c, 0, 64, 71
1, 864234, Control_c, 0, 64, 0
1, 864257, Note_on_c, 0, 67, 89
1, 864263, Note_on_c, 0, 55, 83
1, 864264, Control_c, 0, 64, 24
1, 864278, Control_c, 0, 64, 63
1, 864290, Note_off_c, 0, 55, 67
1, 864290, Note_off_c, 0, 67, 62
1, 864293, Control_c, 0, 64, 71
1, 864308, Control_c, 0, 64, 81
1, 864323, Control_c, 0, 64, 92
1, 864338, Control_c, 0, 64, 100
1, 864353, Control_c, 0, 64, 105
1, 864363, Note_on_c, 0, 67, 89
1, 864367, Control_c, 0, 64, 108
1, 864368, Note_on_c, 0, 55, 87
1, 864382, Control_c, 0, 64, 110
1, 864396, Note_off_c, 0, 55, 68
1, 864396, Note_off_c, 0, 67, 55
1, 864397, Control_c, 0, 64, 114
1, 864412, Control_c, 0, 64, 117
1, 864427, Control_c, 0, 64, 119
1, 864442, Control_c, 0, 64, 122
1, 864457, Control_c, 0, 64, 127
1, 864460, Note_on_c, 0, 67, 91
1, 864463, Note_on_c, 0, 55, 86
1, 864497, Note_off_c, 0, 67, 60
1, 864499, Note_off_c, 0, 55, 63
1, 864525, Note_off_c, 0, 71, 58
1, 864531, Control_c, 0, 64, 104
1, 864545, Control_c, 0, 64, 75
1, 864552, Note_off_c, 0, 79, 59
1, 864560, Control_c, 0, 64, 0
1, 864575, Control_c, 0, 64, 58
1, 864576, Note_on_c, 0, 64, 98
1, 864577, Note_on_c, 0, 52, 97
1, 864579, Note_on_c, 0, 76, 97
1, 864590, Control_c, 0, 64, 67
1, 864601, Note_off_c, 0, 83, 60
1, 864605, Control_c, 0, 64, 73
1, 864619, Control_c, 0, 64, 81
1, 864621, Note_off_c, 0, 52, 56
1, 864624, Note_off_c, 0, 64, 65
1, 864634, Control_c, 0, 64, 93
1, 864649, Control_c, 0, 64, 113
1, 864663, Control_c, 0, 64, 127
1, 864799, Note_on_c, 0, 66, 88
1, 864805, Note_off_c, 0, 76, 54
1, 864806, Note_on_c, 0, 54, 77
1, 864819, Note_off_c, 0, 66, 70
1, 864822, Note_on_c, 0, 71, 95
1, 864822, Note_on_c, 0, 78, 93
1, 864826, Note_on_c, 0, 83, 96
1, 864837, Note_off_c, 0, 54, 65
1, 864971, Note_on_c, 0, 47, 78
1, 864998, Note_off_c, 0, 71, 57
1, 864998, Control_c, 0, 64, 120
1, 865001, Note_on_c, 0, 51, 75
1, 865002, Note_off_c, 0, 83, 56
1, 865013, Control_c, 0, 64, 74
1, 865025, Note_off_c, 0, 78, 60
1, 865027, Control_c, 0, 64, 0
1, 865028, Note_on_c, 0, 54, 78
1, 865058, Note_off_c, 0, 47, 66
1, 865061, Note_on_c, 0, 59, 84
1, 865072, Control_c, 0, 64, 57
1, 865080, Note_on_c, 0, 78, 89
1, 865082, Note_on_c, 0, 71, 95
1, 865083, Note_on_c, 0, 75, 89
1, 865083, Note_on_c, 0, 83, 101
1, 865084, Note_off_c, 0, 59, 66
1, 865085, Note_off_c, 0, 51, 65
1, 865087, Control_c, 0, 64, 69
1, 865089, Note_off_c, 0, 54, 65
1, 865101, Control_c, 0, 64, 79
1, 865116, Control_c, 0, 64, 91
1, 865131, Control_c, 0, 64, 103
1, 865146, Control_c, 0, 64, 109
1, 865161, Control_c, 0, 64, 114
1, 865175, Control_c, 0, 64, 121
1, 865187, Note_on_c, 0, 69, 92
1, 865190, Control_c, 0, 64, 127
1, 865193, Note_on_c, 0, 57, 84
1, 865208, Note_off_c, 0, 69, 67
1, 865214, Note_off_c, 0, 57, 70
1, 865293, Note_on_c, 0, 69, 94
1, 865294, Note_on_c, 0, 57, 85
1, 865326, Note_off_c, 0, 69, 59
1, 865327, Note_off_c, 0, 57, 59
1, 865398, Note_on_c, 0, 69, 95
1, 865403, Note_on_c, 0, 57, 88
1, 865427, Control_c, 0, 64, 107
1, 865431, Note_off_c, 0, 57, 61
1, 865434, Note_off_c, 0, 69, 63
1, 865442, Control_c, 0, 64, 74
1, 865457, Control_c, 0, 64, 64
1, 865472, Control_c, 0, 64, 70
1, 865494, Control_c, 0, 64, 76
1, 865506, Note_on_c, 0, 69, 96
1, 865509, Note_on_c, 0, 57, 92
1, 865509, Control_c, 0, 64, 83
1, 865524, Control_c, 0, 64, 93
1, 865539, Control_c, 0, 64, 110
1, 865554, Control_c, 0, 64, 127
1, 865640, Note_off_c, 0, 83, 50
1, 865646, Note_off_c, 0, 78, 52
1, 865669, Note_off_c, 0, 75, 61
1, 865671, Note_off_c, 0, 71, 60
1, 865748, Note_on_c, 0, 81, 101
1, 865748, Note_on_c, 0, 83, 100
1, 865750, Note_on_c, 0, 71, 96
1, 865768, Poly_aftertouch_c, 0, 63, 127
1, 865792, Note_off_c, 0, 57, 62
1, 865792, Note_off_c, 0, 69, 63
1, 865839, Poly_aftertouch_c, 0, 63, 0
1, 865940, Note_off_c, 0, 71, 58
1, 865947, Note_off_c, 0, 83, 59
1, 865965, Note_off_c, 0, 81, 59
1, 866019, Note_on_c, 0, 71, 96
1, 866020, Note_on_c, 0, 83, 100
1, 866022, Note_on_c, 0, 79, 85
1, 866043, Control_c, 0, 64, 74
1, 866058, Control_c, 0, 64, 0
1, 866102, Control_c, 0, 64, 53
1, 866117, Control_c, 0, 64, 66
1, 866123, Note_on_c, 0, 67, 88
1, 866126, Note_on_c, 0, 55, 79
1, 866132, Control_c, 0, 64, 76
1, 866147, Control_c, 0, 64, 88
1, 866154, Note_off_c, 0, 67, 62
1, 866162, Note_off_c, 0, 55, 60
1, 866162, Control_c, 0, 64, 102
1, 866177, Control_c, 0, 64, 120
1, 866192, Control_c, 0, 64, 127
1, 866242, Note_on_c, 0, 67, 86
1, 866245, Note_on_c, 0, 55, 85
1, 866278, Note_off_c, 0, 55, 58
1, 866284, Note_off_c, 0, 67, 61
1, 866337, Note_on_c, 0, 67, 86
1, 866345, Note_on_c, 0, 55, 83
1, 866373, Note_off_c, 0, 55, 59
1, 866374, Note_off_c, 0, 67, 62
1, 866413, Note_off_c, 0, 71, 60
1, 866415, Note_off_c, 0, 79, 60
1, 866446, Note_on_c, 0, 52, 104
1, 866447, Note_on_c, 0, 64, 100
1, 866450, Note_on_c, 0, 76, 97
1, 866483, Note_off_c, 0, 52, 64
1, 866489, Note_off_c, 0, 83, 59
1, 866492, Note_off_c, 0, 64, 65
1, 866671, Note_on_c, 0, 66, 97
1, 866674, Note_on_c, 0, 54, 93
1, 866675, Note_off_c, 0, 76, 50
1, 866677, Note_on_c, 0, 71, 97
1, 866677, Note_on_c, 0, 78, 87
1, 866678, Note_on_c, 0, 83, 95
1, 866696, Note_off_c, 0, 66, 64
1, 866713, Note_off_c, 0, 54, 58
1, 866723, Note_on_c, 0, 82, 35
1, 866761, Note_off_c, 0, 82, 51
1, 866847, Note_off_c, 0, 83, 54
1, 866853, Note_off_c, 0, 71, 56
1, 866882, Note_off_c, 0, 78, 61
1, 866911, Control_c, 0, 64, 72
1, 866922, Note_on_c, 0, 54, 90
1, 866922, Note_on_c, 0, 59, 94
1, 866924, Note_on_c, 0, 51, 84
1, 866924, Note_on_c, 0, 78, 84
1, 866926, Control_c, 0, 64, 0
1, 866927, Note_on_c, 0, 47, 75
1, 866927, Note_on_c, 0, 71, 101
1, 866928, Note_on_c, 0, 83, 99
1, 866928, Note_on_c, 0, 75, 84
1, 867007, Control_c, 0, 64, 54
1, 867022, Control_c, 0, 64, 69
1, 867037, Control_c, 0, 64, 80
1, 867052, Control_c, 0, 64, 87
1, 867066, Control_c, 0, 64, 90
1, 867081, Control_c, 0, 64, 92
1, 867096, Control_c, 0, 64, 96
1, 867111, Control_c, 0, 64, 100
1, 867126, Control_c, 0, 64, 103
1, 867140, Control_c, 0, 64, 104
1, 867155, Control_c, 0, 64, 104
1, 867170, Control_c, 0, 64, 112
1, 867185, Control_c, 0, 64, 127
1, 867195, Note_off_c, 0, 59, 54
1, 867208, Note_off_c, 0, 71, 59
1, 867255, Note_off_c, 0, 83, 51
1, 867384, Note_on_c, 0, 70, 103
1, 867392, Note_on_c, 0, 58, 93
1, 867411, Note_off_c, 0, 75, 61
1, 867429, Note_off_c, 0, 54, 59
1, 867682, Note_off_c, 0, 47, 40
1, 867688, Note_off_c, 0, 58, 58
1, 867689, Note_off_c, 0, 70, 56
1, 867769, Note_off_c, 0, 78, 56
1, 867843, Control_c, 0, 64, 88
1, 867848, Note_on_c, 0, 76, 82
1, 867849, Note_on_c, 0, 83, 95
1, 867849, Note_on_c, 0, 69, 99
1, 867852, Note_on_c, 0, 52, 82
1, 867853, Note_on_c, 0, 57, 85
1, 867854, Note_on_c, 0, 59, 85
1, 867858, Control_c, 0, 64, 64
1, 867864, Note_on_c, 0, 47, 73
1, 867870, Note_off_c, 0, 51, 64
1, 867873, Control_c, 0, 64, 0
1, 867918, Control_c, 0, 64, 26
1, 867933, Control_c, 0, 64, 62
1, 867947, Control_c, 0, 64, 68
1, 867962, Control_c, 0, 64, 73
1, 867977, Control_c, 0, 64, 80
1, 867992, Control_c, 0, 64, 86
1, 868007, Control_c, 0, 64, 92
1, 868021, Control_c, 0, 64, 97
1, 868036, Control_c, 0, 64, 104
1, 868051, Control_c, 0, 64, 114
1, 868066, Control_c, 0, 64, 127
1, 868150, Note_off_c, 0, 59, 52
1, 868162, Note_off_c, 0, 57, 55
1, 868202, Note_off_c, 0, 69, 60
1, 868215, Note_off_c, 0, 83, 50
1, 868306, Note_on_c, 0, 67, 94
1, 868308, Note_on_c, 0, 55, 78
1, 868309, Note_off_c, 0, 76, 60
1, 868320, Note_off_c, 0, 52, 59
1, 868364, Note_off_c, 0, 67, 64
1, 868511, Note_off_c, 0, 47, 31
1, 868607, Note_off_c, 0, 55, 62
1, 868711, Control_c, 0, 64, 113
1, 868725, Control_c, 0, 64, 84
1, 868740, Control_c, 0, 64, 59
1, 868746, Note_on_c, 0, 71, 89
1, 868749, Note_on_c, 0, 59, 91
1, 868752, Note_on_c, 0, 63, 76
1, 868752, Note_on_c, 0, 66, 78
1, 868755, Note_on_c, 0, 54, 78
1, 868755, Control_c, 0, 64, 0
1, 868758, Note_on_c, 0, 51, 70
1, 868761, Note_on_c, 0, 47, 68
1, 868770, Control_c, 0, 64, 53
1, 868785, Control_c, 0, 64, 63
1, 868800, Control_c, 0, 64, 66
1, 868815, Control_c, 0, 64, 69
1, 868830, Control_c, 0, 64, 76
1, 868844, Control_c, 0, 64, 83
1, 868859, Control_c, 0, 64, 89
1, 868874, Control_c, 0, 64, 94
1, 868889, Control_c, 0, 64, 98
1, 868904, Control_c, 0, 64, 103
1, 868918, Control_c, 0, 64, 109
1, 868933, Control_c, 0, 64, 124
1, 868948, Control_c, 0, 64, 127
1, 869021, Note_off_c, 0, 47, 36
1, 869130, Note_off_c, 0, 51, 64
1, 869147, Note_off_c, 0, 54, 64
1, 869200, Note_on_c, 0, 58, 103
1, 869202, Control_c, 0, 64, 91
1, 869205, Note_on_c, 0, 46, 86
1, 869216, Control_c, 0, 64, 67
1, 869238, Control_c, 0, 64, 56
1, 869253, Control_c, 0, 64, 65
1, 869268, Control_c, 0, 64, 69
1, 869283, Control_c, 0, 64, 72
1, 869298, Control_c, 0, 64, 77
1, 869313, Control_c, 0, 64, 84
1, 869328, Control_c, 0, 64, 90
1, 869342, Control_c, 0, 64, 94
1, 869357, Control_c, 0, 64, 98
1, 869372, Control_c, 0, 64, 103
1, 869386, Control_c, 0, 64, 110
1, 869401, Control_c, 0, 64, 127
1, 869495, Note_off_c, 0, 71, 50
1, 869540, Note_off_c, 0, 63, 34
1, 869543, Note_off_c, 0, 58, 62
1, 869548, Note_off_c, 0, 59, 52
1, 869632, Note_off_c, 0, 66, 58
1, 869638, Control_c, 0, 64, 87
1, 869653, Control_c, 0, 64, 64
1, 869656, Note_on_c, 0, 57, 83
1, 869656, Note_on_c, 0, 59, 90
1, 869658, Note_on_c, 0, 52, 76
1, 869659, Note_on_c, 0, 71, 96
1, 869661, Note_on_c, 0, 64, 69
1, 869664, Note_on_c, 0, 45, 71
1, 869667, Note_off_c, 0, 46, 56
1, 869668, Control_c, 0, 64, 0
1, 869683, Control_c, 0, 64, 24
1, 869698, Control_c, 0, 64, 59
1, 869713, Control_c, 0, 64, 65
1, 869728, Control_c, 0, 64, 69
1, 869742, Control_c, 0, 64, 75
1, 869758, Control_c, 0, 64, 82
1, 869773, Control_c, 0, 64, 88
1, 869788, Control_c, 0, 64, 94
1, 869803, Control_c, 0, 64, 99
1, 869817, Control_c, 0, 64, 104
1, 869832, Control_c, 0, 64, 108
1, 869847, Control_c, 0, 64, 113
1, 869861, Control_c, 0, 64, 123
1, 869876, Control_c, 0, 64, 127
1, 869943, Note_off_c, 0, 45, 62
1, 869949, Note_off_c, 0, 57, 49
1, 870061, Control_c, 0, 64, 111
1, 870076, Control_c, 0, 64, 87
1, 870091, Control_c, 0, 64, 70
1, 870106, Control_c, 0, 64, 65
1, 870121, Control_c, 0, 64, 70
1, 870127, Note_on_c, 0, 55, 83
1, 870135, Note_on_c, 0, 43, 76
1, 870135, Control_c, 0, 64, 76
1, 870138, Note_off_c, 0, 52, 63
1, 870150, Control_c, 0, 64, 82
1, 870162, Note_off_c, 0, 55, 63
1, 870165, Control_c, 0, 64, 92
1, 870168, Note_off_c, 0, 59, 53
1, 870180, Control_c, 0, 64, 105
1, 870192, Note_off_c, 0, 43, 64
1, 870195, Control_c, 0, 64, 127
1, 870357, Control_c, 0, 64, 71
1, 870366, Note_on_c, 0, 35, 71
1, 870372, Control_c, 0, 64, 0
1, 870410, Note_on_c, 0, 42, 72
1, 870441, Note_off_c, 0, 35, 64
1, 870460, Note_on_c, 0, 47, 76
1, 870461, Control_c, 0, 64, 57
1, 870465, Note_off_c, 0, 71, 35
1, 870476, Control_c, 0, 64, 67
1, 870478, Note_off_c, 0, 64, 55
1, 870479, Note_off_c, 0, 42, 64
1, 870490, Control_c, 0, 64, 72
1, 870505, Control_c, 0, 64, 75
1, 870517, Note_off_c, 0, 47, 65
1, 870520, Control_c, 0, 64, 79
1, 870535, Control_c, 0, 64, 85
1, 870550, Control_c, 0, 64, 92
1, 870566, Control_c, 0, 64, 97
1, 870580, Control_c, 0, 64, 102
1, 870583, Note_on_c, 0, 54, 77
1, 870592, Note_on_c, 0, 71, 90
1, 870593, Note_on_c, 0, 59, 82
1, 870595, Note_on_c, 0, 63, 78
1, 870595, Control_c, 0, 64, 107
1, 870608, Note_off_c, 0, 54, 68
1, 870610, Control_c, 0, 64, 113
1, 870625, Control_c, 0, 64, 124
1, 870639, Control_c, 0, 64, 127
1, 871180, Control_c, 0, 64, 104
1, 871195, Control_c, 0, 64, 68
1, 871208, Note_on_c, 0, 35, 76
1, 871210, Control_c, 0, 64, 0
1, 871254, Control_c, 0, 64, 54
1, 871259, Note_on_c, 0, 42, 77
1, 871269, Control_c, 0, 64, 67
1, 871284, Control_c, 0, 64, 76
1, 871292, Note_off_c, 0, 35, 65
1, 871299, Control_c, 0, 64, 86
1, 871307, Note_on_c, 0, 47, 78
1, 871313, Control_c, 0, 64, 96
1, 871319, Note_off_c, 0, 71, 56
1, 871328, Control_c, 0, 64, 101
1, 871337, Note_off_c, 0, 42, 63
1, 871337, Note_off_c, 0, 59, 57
1, 871343, Control_c, 0, 64, 103
1, 871355, Note_off_c, 0, 63, 58
1, 871359, Control_c, 0, 64, 105
1, 871370, Note_off_c, 0, 47, 64
1, 871374, Control_c, 0, 64, 109
1, 871389, Control_c, 0, 64, 116
1, 871403, Control_c, 0, 64, 127
1, 871436, Note_on_c, 0, 54, 75
1, 871441, Note_on_c, 0, 71, 91
1, 871443, Note_on_c, 0, 59, 79
1, 871449, Note_on_c, 0, 63, 77
1, 871462, Note_off_c, 0, 54, 67
1, 872048, Control_c, 0, 64, 91
1, 872062, Control_c, 0, 64, 0
1, 872078, Note_on_c, 0, 35, 67
1, 872123, Control_c, 0, 64, 33
1, 872130, Note_on_c, 0, 42, 71
1, 872137, Control_c, 0, 64, 65
1, 872153, Control_c, 0, 64, 74
1, 872168, Control_c, 0, 64, 84
1, 872170, Note_off_c, 0, 35, 64
1, 872183, Control_c, 0, 64, 93
1, 872197, Note_on_c, 0, 47, 69
1, 872198, Control_c, 0, 64, 98
1, 872212, Control_c, 0, 64, 99
1, 872214, Note_off_c, 0, 42, 63
1, 872218, Note_off_c, 0, 71, 55
1, 872220, Note_off_c, 0, 59, 51
1, 872248, Note_off_c, 0, 63, 57
1, 872262, Note_off_c, 0, 47, 64
1, 872264, Control_c, 0, 64, 100
1, 872279, Control_c, 0, 64, 101
1, 872294, Control_c, 0, 64, 101
1, 872323, Note_on_c, 0, 71, 88
1, 872327, Note_on_c, 0, 59, 78
1, 872332, Note_on_c, 0, 54, 70
1, 872338, Note_on_c, 0, 63, 76
1, 872358, Note_off_c, 0, 54, 67
1, 873087, Control_c, 0, 64, 100
1, 873102, Control_c, 0, 64, 99
1, 873116, Control_c, 0, 64, 98
1, 873131, Control_c, 0, 64, 97
1, 873146, Control_c, 0, 64, 94
1, 873161, Control_c, 0, 64, 91
1, 873176, Control_c, 0, 64, 87
1, 873191, Control_c, 0, 64, 80
1, 873202, Note_on_c, 0, 33, 76
1, 873206, Control_c, 0, 64, 68
1, 873221, Control_c, 0, 64, 0
1, 873339, Control_c, 0, 64, 14
1, 873353, Control_c, 0, 64, 47
1, 873368, Control_c, 0, 64, 58
1, 873383, Control_c, 0, 64, 63
1, 873398, Control_c, 0, 64, 65
1, 873413, Control_c, 0, 64, 67
1, 873427, Control_c, 0, 64, 69
1, 873442, Control_c, 0, 64, 71
1, 873457, Control_c, 0, 64, 73
1, 873472, Control_c, 0, 64, 76
1, 873487, Control_c, 0, 64, 80
1, 873501, Control_c, 0, 64, 84
1, 873516, Control_c, 0, 64, 87
1, 873531, Control_c, 0, 64, 90
1, 873546, Control_c, 0, 64, 93
1, 873561, Control_c, 0, 64, 97
1, 873575, Control_c, 0, 64, 101
1, 873590, Control_c, 0, 64, 106
1, 873605, Control_c, 0, 64, 110
1, 873620, Control_c, 0, 64, 113
1, 873635, Control_c, 0, 64, 115
1, 873650, Control_c, 0, 64, 119
1, 873665, Control_c, 0, 64, 127
1, 873754, Note_off_c, 0, 33, 25
1, 873851, Control_c, 0, 64, 99
1, 873865, Control_c, 0, 64, 71
1, 873880, Control_c, 0, 64, 0
1, 873887, Note_on_c, 0, 32, 64
1, 873901, Note_off_c, 0, 71, 36
1, 873948, Note_on_c, 0, 39, 64
1, 873978, Note_off_c, 0, 63, 56
1, 873984, Control_c, 0, 64, 61
1, 873999, Control_c, 0, 64, 67
1, 874006, Note_off_c, 0, 32, 62
1, 874014, Control_c, 0, 64, 70
1, 874017, Note_on_c, 0, 44, 73
1, 874028, Note_off_c, 0, 59, 36
1, 874029, Control_c, 0, 64, 72
1, 874043, Note_off_c, 0, 39, 61
1, 874043, Control_c, 0, 64, 75
1, 874058, Control_c, 0, 64, 80
1, 874072, Note_off_c, 0, 44, 63
1, 874073, Control_c, 0, 64, 84
1, 874088, Control_c, 0, 64, 86
1, 874103, Control_c, 0, 64, 88
1, 874118, Control_c, 0, 64, 91
1, 874132, Control_c, 0, 64, 94
1, 874147, Control_c, 0, 64, 97
1, 874162, Control_c, 0, 64, 100
1, 874169, Note_on_c, 0, 72, 78
1, 874177, Control_c, 0, 64, 102
1, 874178, Note_on_c, 0, 63, 64
1, 874182, Note_on_c, 0, 60, 59
1, 874185, Note_on_c, 0, 54, 64
1, 874191, Control_c, 0, 64, 104
1, 874206, Control_c, 0, 64, 107
1, 874216, Note_off_c, 0, 54, 65
1, 874221, Control_c, 0, 64, 110
1, 874236, Control_c, 0, 64, 116
1, 874250, Control_c, 0, 64, 127
1, 874777, Control_c, 0, 64, 109
1, 874792, Control_c, 0, 64, 87
1, 874806, Control_c, 0, 64, 67
1, 874807, Note_on_c, 0, 32, 66
1, 874821, Control_c, 0, 64, 56
1, 874836, Control_c, 0, 64, 65
1, 874851, Control_c, 0, 64, 68
1, 874863, Note_on_c, 0, 39, 65
1, 874866, Control_c, 0, 64, 70
1, 874880, Control_c, 0, 64, 74
1, 874893, Note_off_c, 0, 32, 62
1, 874895, Control_c, 0, 64, 81
1, 874910, Control_c, 0, 64, 88
1, 874911, Note_on_c, 0, 44, 69
1, 874925, Control_c, 0, 64, 93
1, 874926, Note_off_c, 0, 72, 37
1, 874933, Note_off_c, 0, 39, 60
1, 874933, Note_off_c, 0, 60, 58
1, 874940, Control_c, 0, 64, 96
1, 874954, Control_c, 0, 64, 99
1, 874956, Note_off_c, 0, 44, 63
1, 874964, Note_off_c, 0, 63, 57
1, 874969, Control_c, 0, 64, 103
1, 874984, Control_c, 0, 64, 106
1, 874998, Control_c, 0, 64, 108
1, 875013, Control_c, 0, 64, 110
1, 875028, Control_c, 0, 64, 110
1, 875036, Note_on_c, 0, 72, 83
1, 875040, Note_on_c, 0, 60, 67
1, 875048, Note_on_c, 0, 54, 66
1, 875049, Note_on_c, 0, 63, 64
1, 875072, Note_off_c, 0, 54, 67
1, 875206, Control_c, 0, 64, 111
1, 875228, Control_c, 0, 64, 111
1, 875243, Control_c, 0, 64, 112
1, 875258, Control_c, 0, 64, 113
1, 875659, Control_c, 0, 64, 108
1, 875674, Control_c, 0, 64, 88
1, 875688, Note_on_c, 0, 32, 71
1, 875689, Control_c, 0, 64, 70
1, 875703, Control_c, 0, 64, 61
1, 875718, Control_c, 0, 64, 66
1, 875733, Control_c, 0, 64, 70
1, 875746, Note_on_c, 0, 39, 67
1, 875747, Control_c, 0, 64, 73
1, 875762, Control_c, 0, 64, 78
1, 875775, Note_off_c, 0, 32, 62
1, 875777, Control_c, 0, 64, 87
1, 875792, Control_c, 0, 64, 95
1, 875793, Note_on_c, 0, 44, 73
1, 875807, Control_c, 0, 64, 100
1, 875808, Note_off_c, 0, 72, 36
1, 875811, Note_off_c, 0, 39, 61
1, 875821, Control_c, 0, 64, 102
1, 875823, Note_off_c, 0, 60, 54
1, 875831, Note_off_c, 0, 44, 64
1, 875836, Control_c, 0, 64, 104
1, 875852, Control_c, 0, 64, 106
1, 875863, Note_off_c, 0, 63, 59
1, 875867, Control_c, 0, 64, 109
1, 875882, Control_c, 0, 64, 113
1, 875897, Control_c, 0, 64, 116
1, 875911, Control_c, 0, 64, 118
1, 875918, Note_on_c, 0, 72, 85
1, 875926, Note_on_c, 0, 63, 69
1, 875926, Control_c, 0, 64, 119
1, 875928, Note_on_c, 0, 60, 71
1, 875941, Control_c, 0, 64, 122
1, 875955, Control_c, 0, 64, 127
1, 875998, Poly_aftertouch_c, 0, 54, 127
1, 876029, Poly_aftertouch_c, 0, 54, 0
1, 876771, Control_c, 0, 64, 122
1, 876786, Control_c, 0, 64, 116
1, 876801, Control_c, 0, 64, 110
1, 876816, Control_c, 0, 64, 104
1, 876831, Control_c, 0, 64, 94
1, 876834, Note_on_c, 0, 42, 80
1, 876845, Control_c, 0, 64, 80
1, 876860, Control_c, 0, 64, 64
1, 876875, Control_c, 0, 64, 0
1, 876965, Control_c, 0, 64, 26
1, 876980, Control_c, 0, 64, 54
1, 876995, Control_c, 0, 64, 63
1, 877009, Control_c, 0, 64, 66
1, 877024, Control_c, 0, 64, 68
1, 877039, Control_c, 0, 64, 70
1, 877054, Control_c, 0, 64, 72
1, 877069, Control_c, 0, 64, 74
1, 877078, Note_off_c, 0, 60, 39
1, 877083, Control_c, 0, 64, 76
1, 877088, Note_off_c, 0, 63, 53
1, 877098, Control_c, 0, 64, 79
1, 877113, Control_c, 0, 64, 82
1, 877128, Control_c, 0, 64, 84
1, 877143, Control_c, 0, 64, 86
1, 877157, Control_c, 0, 64, 88
1, 877172, Control_c, 0, 64, 91
1, 877172, Control_c, 0, 67, 8
1, 877187, Control_c, 0, 64, 93
1, 877187, Control_c, 0, 67, 9
1, 877201, Control_c, 0, 64, 96
1, 877201, Control_c, 0, 67, 11
1, 877216, Control_c, 0, 64, 97
1, 877216, Control_c, 0, 67, 14
1, 877231, Control_c, 0, 64, 98
1, 877231, Control_c, 0, 67, 16
1, 877246, Control_c, 0, 64, 99
1, 877246, Control_c, 0, 67, 19
1, 877261, Control_c, 0, 64, 99
1, 877261, Control_c, 0, 67, 21
1, 877275, Control_c, 0, 64, 100
1, 877275, Control_c, 0, 67, 24
1, 877290, Control_c, 0, 64, 100
1, 877290, Control_c, 0, 67, 27
1, 877305, Control_c, 0, 64, 101
1, 877305, Control_c, 0, 67, 30
1, 877320, Control_c, 0, 67, 34
1, 877335, Control_c, 0, 67, 38
1, 877349, Control_c, 0, 67, 42
1, 877364, Control_c, 0, 67, 45
1, 877379, Control_c, 0, 67, 48
1, 877394, Control_c, 0, 67, 51
1, 877409, Control_c, 0, 67, 55
1, 877424, Control_c, 0, 67, 58
1, 877439, Control_c, 0, 67, 63
1, 877454, Control_c, 0, 67, 66
1, 877475, Control_c, 0, 67, 70
1, 877490, Control_c, 0, 67, 74
1, 877505, Control_c, 0, 67, 78
1, 877520, Control_c, 0, 64, 99
1, 877520, Control_c, 0, 67, 81
1, 877534, Control_c, 0, 64, 82
1, 877534, Control_c, 0, 67, 84
1, 877549, Control_c, 0, 64, 28
1, 877549, Control_c, 0, 67, 85
1, 877564, Control_c, 0, 64, 0
1, 877564, Control_c, 0, 67, 86
1, 877579, Control_c, 0, 67, 87
1, 877583, Note_off_c, 0, 42, 55
1, 877585, Note_on_c, 0, 41, 68
1, 877653, Control_c, 0, 64, 52
1, 877668, Control_c, 0, 64, 64
1, 877671, Note_on_c, 0, 49, 71
1, 877680, Note_off_c, 0, 41, 61
1, 877683, Control_c, 0, 64, 67
1, 877698, Control_c, 0, 64, 70
1, 877713, Control_c, 0, 64, 72
1, 877723, Note_off_c, 0, 72, 42
1, 877727, Control_c, 0, 64, 73
1, 877742, Note_on_c, 0, 61, 60
1, 877742, Control_c, 0, 64, 74
1, 877758, Control_c, 0, 64, 76
1, 877768, Note_on_c, 0, 59, 60
1, 877773, Control_c, 0, 64, 77
1, 877787, Note_on_c, 0, 68, 66
1, 877787, Control_c, 0, 64, 79
1, 877802, Control_c, 0, 64, 80
1, 877817, Control_c, 0, 64, 80
1, 877830, Note_on_c, 0, 73, 79
1, 877832, Control_c, 0, 64, 81
1, 877847, Control_c, 0, 64, 82
1, 877862, Control_c, 0, 64, 83
1, 877862, Control_c, 0, 67, 86
1, 877877, Control_c, 0, 64, 86
1, 877877, Control_c, 0, 67, 86
1, 877892, Control_c, 0, 64, 89
1, 877906, Control_c, 0, 64, 90
1, 877906, Control_c, 0, 67, 85
1, 877921, Control_c, 0, 64, 91
1, 877936, Control_c, 0, 64, 92
1, 877936, Control_c, 0, 67, 85
1, 877950, Control_c, 0, 64, 94
1, 877965, Control_c, 0, 64, 99
1, 877965, Control_c, 0, 67, 84
1, 877980, Control_c, 0, 64, 105
1, 877990, Note_off_c, 0, 59, 34
1, 877995, Control_c, 0, 64, 109
1, 878010, Control_c, 0, 64, 113
1, 878010, Control_c, 0, 67, 84
1, 878024, Control_c, 0, 64, 123
1, 878039, Control_c, 0, 64, 127
1, 878039, Control_c, 0, 67, 83
1, 878069, Control_c, 0, 67, 82
1, 878103, Note_off_c, 0, 61, 37
1, 878112, Control_c, 0, 67, 82
1, 878187, Control_c, 0, 67, 81
1, 878193, Note_off_c, 0, 68, 32
1, 878238, Control_c, 0, 67, 81
1, 878253, Control_c, 0, 67, 80
1, 878283, Control_c, 0, 67, 80
1, 878342, Control_c, 0, 67, 79
1, 878347, Note_off_c, 0, 49, 25
1, 878372, Control_c, 0, 67, 79
1, 878446, Control_c, 0, 67, 78
1, 878476, Control_c, 0, 67, 78
1, 878491, Control_c, 0, 67, 77
1, 878504, Note_on_c, 0, 41, 56
1, 878505, Control_c, 0, 67, 76
1, 878520, Control_c, 0, 67, 75
1, 878533, Note_off_c, 0, 41, 60
1, 878535, Control_c, 0, 67, 75
1, 878542, Note_on_c, 0, 49, 69
1, 878551, Control_c, 0, 67, 73
1, 878565, Control_c, 0, 67, 72
1, 878577, Note_off_c, 0, 73, 32
1, 878580, Control_c, 0, 67, 71
1, 878595, Control_c, 0, 67, 70
1, 878612, Note_on_c, 0, 59, 62
1, 878625, Control_c, 0, 67, 70
1, 878631, Note_on_c, 0, 61, 64
1, 878667, Note_on_c, 0, 68, 71
1, 878699, Control_c, 0, 67, 69
1, 878706, Note_off_c, 0, 61, 61
1, 878714, Note_off_c, 0, 59, 53
1, 878717, Note_on_c, 0, 73, 81
1, 878763, Note_off_c, 0, 68, 58
1, 879201, Note_off_c, 0, 49, 31
1, 879269, Control_c, 0, 67, 69
1, 879359, Control_c, 0, 67, 68
1, 879418, Control_c, 0, 67, 68
1, 879425, Note_on_c, 0, 41, 50
1, 879457, Note_off_c, 0, 41, 55
1, 879472, Note_on_c, 0, 49, 64
1, 879478, Control_c, 0, 67, 67
1, 879488, Note_off_c, 0, 73, 4
1, 879537, Control_c, 0, 67, 66
1, 879549, Note_on_c, 0, 59, 60
1, 879552, Control_c, 0, 67, 65
1, 879567, Control_c, 0, 67, 64
1, 879582, Control_c, 0, 67, 63
1, 879588, Note_on_c, 0, 61, 62
1, 879596, Control_c, 0, 67, 63
1, 879611, Control_c, 0, 67, 62
1, 879626, Control_c, 0, 67, 62
1, 879633, Note_on_c, 0, 68, 68
1, 879641, Control_c, 0, 67, 61
1, 879656, Control_c, 0, 67, 61
1, 879670, Control_c, 0, 67, 60
1, 879686, Note_off_c, 0, 59, 38
1, 879692, Note_on_c, 0, 73, 86
1, 879700, Control_c, 0, 67, 60
1, 879737, Control_c, 0, 67, 59
1, 879829, Note_off_c, 0, 49, 37
1, 880092, Control_c, 0, 67, 60
1, 880432, Control_c, 0, 67, 60
1, 880529, Control_c, 0, 67, 61
1, 880588, Control_c, 0, 67, 61
1, 880632, Control_c, 0, 67, 62
1, 880662, Control_c, 0, 67, 62
1, 880677, Control_c, 0, 67, 63
1, 880706, Control_c, 0, 67, 64
1, 880721, Control_c, 0, 64, 103
1, 880721, Control_c, 0, 67, 64
1, 880736, Control_c, 0, 64, 86
1, 880736, Control_c, 0, 67, 65
1, 880750, Control_c, 0, 64, 70
1, 880750, Control_c, 0, 67, 65
1, 880752, Note_on_c, 0, 40, 51
1, 880765, Control_c, 0, 64, 0
1, 880765, Control_c, 0, 67, 66
1, 880780, Control_c, 0, 67, 66
1, 880810, Control_c, 0, 67, 67
1, 880825, Control_c, 0, 67, 68
1, 880840, Control_c, 0, 64, 30
1, 880840, Control_c, 0, 67, 68
1, 880855, Control_c, 0, 64, 53
1, 880870, Control_c, 0, 64, 62
1, 880870, Control_c, 0, 67, 69
1, 880885, Control_c, 0, 64, 65
1, 880885, Control_c, 0, 67, 69
1, 880899, Control_c, 0, 64, 67
1, 880899, Control_c, 0, 67, 70
1, 880914, Control_c, 0, 64, 70
1, 880914, Control_c, 0, 67, 71
1, 880929, Control_c, 0, 64, 73
1, 880929, Control_c, 0, 67, 71
1, 880944, Control_c, 0, 64, 76
1, 880944, Control_c, 0, 67, 72
1, 880959, Control_c, 0, 64, 79
1, 880959, Control_c, 0, 67, 73
1, 880974, Control_c, 0, 64, 82
1, 880974, Control_c, 0, 67, 75
1, 880989, Control_c, 0, 64, 85
1, 880989, Control_c, 0, 67, 77
1, 881004, Control_c, 0, 64, 89
1, 881004, Control_c, 0, 67, 79
1, 881019, Control_c, 0, 64, 92
1, 881019, Control_c, 0, 67, 80
1, 881034, Control_c, 0, 64, 94
1, 881034, Control_c, 0, 67, 81
1, 881048, Control_c, 0, 64, 97
1, 881063, Control_c, 0, 64, 100
1, 881078, Control_c, 0, 64, 103
1, 881093, Control_c, 0, 64, 106
1, 881108, Control_c, 0, 64, 110
1, 881108, Control_c, 0, 67, 80
1, 881111, Note_off_c, 0, 40, 35
1, 881122, Control_c, 0, 64, 114
1, 881122, Control_c, 0, 67, 80
1, 881137, Control_c, 0, 64, 118
1, 881137, Control_c, 0, 67, 79
1, 881152, Control_c, 0, 64, 126
1, 881152, Control_c, 0, 67, 78
1, 881166, Control_c, 0, 64, 127
1, 881166, Control_c, 0, 67, 78
1, 881181, Control_c, 0, 67, 77
1, 881196, Control_c, 0, 67, 77
1, 881233, Control_c, 0, 67, 76
1, 881263, Control_c, 0, 67, 76
1, 881322, Control_c, 0, 67, 75
1, 881366, Control_c, 0, 67, 75
1, 881378, Note_off_c, 0, 68, 37
1, 881676, Note_on_c, 0, 47, 34
1, 881692, Control_c, 0, 67, 74
1, 881734, Note_on_c, 0, 52, 47
1, 881734, Note_off_c, 0, 61, 32
1, 881782, Control_c, 0, 64, 124
1, 881796, Note_on_c, 0, 59, 45
1, 881797, Control_c, 0, 64, 121
1, 881803, Note_off_c, 0, 73, 51
1, 881812, Control_c, 0, 64, 119
1, 881827, Control_c, 0, 64, 117
1, 881831, Note_on_c, 0, 62, 49
1, 881842, Control_c, 0, 64, 113
1, 881857, Control_c, 0, 64, 107
1, 881871, Control_c, 0, 64, 101
1, 881876, Note_on_c, 0, 68, 55
1, 881886, Control_c, 0, 64, 92
1, 881901, Control_c, 0, 64, 81
1, 881916, Control_c, 0, 64, 69
1, 881925, Note_on_c, 0, 74, 67
1, 881931, Control_c, 0, 64, 45
1, 881946, Control_c, 0, 64, 14
1, 881968, Control_c, 0, 64, 49
1, 881983, Control_c, 0, 64, 59
1, 881997, Control_c, 0, 64, 63
1, 882012, Control_c, 0, 64, 65
1, 882027, Control_c, 0, 64, 68
1, 882027, Control_c, 0, 67, 74
1, 882042, Control_c, 0, 64, 72
1, 882057, Control_c, 0, 64, 75
1, 882071, Control_c, 0, 64, 78
1, 882086, Control_c, 0, 64, 81
1, 882101, Control_c, 0, 64, 84
1, 882116, Control_c, 0, 64, 88
1, 882131, Control_c, 0, 64, 90
1, 882146, Control_c, 0, 64, 92
1, 882160, Control_c, 0, 64, 94
1, 882175, Control_c, 0, 64, 97
1, 882190, Control_c, 0, 64, 99
1, 882205, Control_c, 0, 64, 101
1, 882205, Control_c, 0, 67, 73
1, 882212, Note_off_c, 0, 62, 27
1, 882220, Control_c, 0, 64, 103
1, 882235, Control_c, 0, 64, 107
1, 882242, Note_off_c, 0, 68, 33
1, 882247, Note_off_c, 0, 47, 39
1, 882250, Control_c, 0, 64, 111
1, 882259, Note_off_c, 0, 74, 41
1, 882264, Control_c, 0, 64, 116
1, 882274, Note_off_c, 0, 59, 31
1, 882279, Control_c, 0, 64, 124
1, 882294, Control_c, 0, 64, 127
1, 882336, Note_off_c, 0, 52, 38
1, 882486, Control_c, 0, 67, 73
1, 882593, Note_on_c, 0, 47, 38
1, 882659, Note_on_c, 0, 52, 42
1, 882723, Note_on_c, 0, 59, 45
1, 882761, Note_on_c, 0, 62, 47
1, 882795, Note_on_c, 0, 68, 56
1, 882831, Note_on_c, 0, 74, 64
1, 882903, Note_off_c, 0, 62, 30
1, 882973, Note_off_c, 0, 68, 36
1, 882977, Note_off_c, 0, 59, 28
1, 883012, Note_off_c, 0, 47, 39
1, 883039, Note_off_c, 0, 74, 38
1, 883130, Note_off_c, 0, 52, 32
1, 883525, Control_c, 0, 67, 72
1, 883570, Note_on_c, 0, 47, 32
1, 883643, Note_on_c, 0, 52, 43
1, 883658, Control_c, 0, 67, 72
1, 883707, Note_on_c, 0, 59, 42
1, 883732, Control_c, 0, 67, 71
1, 883772, Note_on_c, 0, 62, 46
1, 883776, Control_c, 0, 67, 71
1, 883803, Note_on_c, 0, 68, 52
1, 883851, Control_c, 0, 67, 70
1, 883852, Note_on_c, 0, 74, 66
1, 883880, Control_c, 0, 67, 70
1, 883910, Control_c, 0, 67, 69
1, 883940, Control_c, 0, 67, 69
1, 883969, Control_c, 0, 67, 68
1, 884014, Control_c, 0, 67, 68
1, 884043, Control_c, 0, 67, 67
1, 884058, Control_c, 0, 67, 66
1, 884073, Control_c, 0, 67, 64
1, 884087, Control_c, 0, 67, 63
1, 884102, Control_c, 0, 67, 62
1, 884104, Note_off_c, 0, 59, 32
1, 884117, Control_c, 0, 67, 61
1, 884133, Control_c, 0, 67, 61
1, 884148, Control_c, 0, 67, 60
1, 884152, Note_off_c, 0, 52, 31
1, 884163, Control_c, 0, 67, 60
1, 884178, Control_c, 0, 67, 59
1, 884192, Control_c, 0, 67, 59
1, 884214, Control_c, 0, 67, 58
1, 884229, Control_c, 0, 67, 58
1, 884241, Note_off_c, 0, 47, 39
1, 884244, Control_c, 0, 67, 57
1, 884259, Control_c, 0, 67, 57
1, 884274, Control_c, 0, 67, 56
1, 884289, Control_c, 0, 67, 55
1, 884304, Control_c, 0, 67, 55
1, 884318, Control_c, 0, 67, 54
1, 884333, Control_c, 0, 67, 54
1, 884348, Control_c, 0, 67, 53
1, 884363, Control_c, 0, 67, 53
1, 884378, Control_c, 0, 67, 52
1, 884392, Control_c, 0, 67, 51
1, 884407, Control_c, 0, 67, 51
1, 884422, Control_c, 0, 67, 50
1, 884437, Control_c, 0, 67, 49
1, 884452, Control_c, 0, 67, 48
1, 884466, Control_c, 0, 67, 48
1, 884481, Control_c, 0, 67, 47
1, 884496, Control_c, 0, 67, 46
1, 884510, Control_c, 0, 67, 46
1, 884525, Control_c, 0, 67, 45
1, 884540, Control_c, 0, 67, 44
1, 884555, Control_c, 0, 67, 44
1, 884585, Control_c, 0, 67, 43
1, 884599, Control_c, 0, 67, 42
1, 884614, Control_c, 0, 67, 42
1, 884629, Control_c, 0, 67, 41
1, 884658, Control_c, 0, 67, 41
1, 884673, Control_c, 0, 67, 40
1, 884688, Control_c, 0, 67, 40
1, 884718, Control_c, 0, 67, 39
1, 884733, Control_c, 0, 67, 38
1, 884748, Control_c, 0, 67, 38
1, 884763, Control_c, 0, 67, 37
1, 884792, Control_c, 0, 67, 37
1, 884807, Control_c, 0, 67, 36
1, 884837, Control_c, 0, 67, 36
1, 884866, Control_c, 0, 67, 35
1, 884925, Control_c, 0, 67, 35
1, 885085, Note_on_c, 0, 39, 50
1, 885112, Control_c, 0, 64, 103
1, 885112, Control_c, 0, 67, 35
1, 885126, Control_c, 0, 64, 84
1, 885141, Control_c, 0, 64, 65
1, 885156, Control_c, 0, 64, 0
1, 885275, Control_c, 0, 64, 53
1, 885289, Control_c, 0, 64, 62
1, 885304, Control_c, 0, 64, 65
1, 885319, Control_c, 0, 64, 67
1, 885334, Control_c, 0, 64, 70
1, 885348, Control_c, 0, 64, 73
1, 885363, Control_c, 0, 64, 76
1, 885378, Control_c, 0, 64, 79
1, 885393, Control_c, 0, 64, 82
1, 885396, Note_off_c, 0, 39, 57
1, 885406, Note_off_c, 0, 62, 32
1, 885408, Control_c, 0, 64, 84
1, 885422, Control_c, 0, 64, 87
1, 885422, Control_c, 0, 67, 35
1, 885437, Control_c, 0, 64, 90
1, 885452, Control_c, 0, 64, 93
1, 885467, Control_c, 0, 64, 96
1, 885481, Control_c, 0, 64, 98
1, 885496, Control_c, 0, 64, 100
1, 885496, Control_c, 0, 67, 34
1, 885511, Control_c, 0, 64, 103
1, 885526, Control_c, 0, 64, 106
1, 885541, Control_c, 0, 64, 110
1, 885556, Control_c, 0, 64, 115
1, 885571, Control_c, 0, 64, 121
1, 885585, Control_c, 0, 64, 127
1, 885591, Note_off_c, 0, 68, 29
1, 885948, Note_off_c, 0, 74, 37
1, 886125, Note_on_c, 0, 51, 36
1, 886198, Note_on_c, 0, 56, 43
1, 886269, Note_on_c, 0, 58, 38
1, 886313, Note_on_c, 0, 63, 45
1, 886352, Note_on_c, 0, 68, 50
1, 886386, Note_on_c, 0, 70, 56
1, 886435, Note_on_c, 0, 75, 60
1, 886656, Note_off_c, 0, 58, 31
1, 886686, Note_off_c, 0, 56, 40
1, 886860, Note_off_c, 0, 51, 42
1, 887616, Note_on_c, 0, 37, 57
1, 887624, Control_c, 0, 64, 112
1, 887639, Control_c, 0, 64, 91
1, 887654, Control_c, 0, 64, 68
1, 887669, Control_c, 0, 64, 0
1, 887683, Note_off_c, 0, 63, 45
1, 887728, Note_off_c, 0, 68, 36
1, 887773, Control_c, 0, 64, 54
1, 887788, Control_c, 0, 64, 63
1, 887794, Note_off_c, 0, 70, 35
1, 887802, Control_c, 0, 64, 66
1, 887802, Control_c, 0, 67, 34
1, 887817, Control_c, 0, 64, 70
1, 887832, Control_c, 0, 64, 74
1, 887847, Control_c, 0, 64, 79
1, 887862, Control_c, 0, 64, 83
1, 887862, Control_c, 0, 67, 33
1, 887876, Control_c, 0, 64, 88
1, 887891, Control_c, 0, 64, 92
1, 887900, Note_off_c, 0, 37, 53
1, 887906, Control_c, 0, 64, 96
1, 887921, Control_c, 0, 64, 103
1, 887921, Control_c, 0, 67, 33
1, 887935, Control_c, 0, 64, 111
1, 887958, Control_c, 0, 64, 123
1, 887973, Control_c, 0, 64, 127
1, 887988, Control_c, 0, 67, 32
1, 888032, Control_c, 0, 67, 32
1, 888047, Control_c, 0, 67, 27
1, 888061, Control_c, 0, 67, 22
1, 888076, Control_c, 0, 67, 18
1, 888091, Control_c, 0, 67, 15
1, 888106, Control_c, 0, 67, 13
1, 888121, Control_c, 0, 67, 11
1, 888137, Control_c, 0, 67, 9
1, 888152, Control_c, 0, 67, 8
1, 888166, Control_c, 0, 67, 0
1, 888307, Note_off_c, 0, 75, 43
1, 888456, Note_on_c, 0, 51, 43
1, 888498, Note_on_c, 0, 55, 50
1, 888553, Note_on_c, 0, 58, 53
1, 888584, Note_on_c, 0, 63, 62
1, 888632, Note_on_c, 0, 67, 64
1, 888665, Note_on_c, 0, 70, 72
1, 888726, Note_on_c, 0, 75, 78
1, 888781, Note_on_c, 0, 79, 90
1, 888831, Note_off_c, 0, 63, 48
1, 888951, Note_off_c, 0, 58, 37
1, 888973, Note_off_c, 0, 55, 31
1, 889038, Note_off_c, 0, 51, 43
1, 889845, Note_on_c, 0, 36, 91
1, 889872, Control_c, 0, 64, 77
1, 889886, Control_c, 0, 64, 0
1, 889990, Control_c, 0, 64, 55
1, 890004, Control_c, 0, 64, 64
1, 890019, Control_c, 0, 64, 69
1, 890034, Control_c, 0, 64, 75
1, 890049, Control_c, 0, 64, 82
1, 890063, Control_c, 0, 64, 90
1, 890078, Control_c, 0, 64, 97
1, 890093, Control_c, 0, 64, 106
1, 890108, Control_c, 0, 64, 123
1, 890122, Control_c, 0, 64, 127
1, 890128, Note_off_c, 0, 36, 59
1, 890176, Note_off_c, 0, 70, 42
1, 890286, Note_off_c, 0, 67, 40
1, 890455, Note_off_c, 0, 75, 42
1, 890624, Note_off_c, 0, 79, 56
1, 890745, Note_on_c, 0, 51, 82
1, 890812, Note_on_c, 0, 58, 87
1, 890874, Note_on_c, 0, 55, 39
1, 890879, Note_on_c, 0, 63, 93
1, 890911, Note_on_c, 0, 70, 84
1, 890919, Note_off_c, 0, 55, 55
1, 890979, Note_on_c, 0, 75, 84
1, 891002, Note_off_c, 0, 70, 63
1, 891038, Note_on_c, 0, 82, 99
1, 891061, Note_off_c, 0, 75, 66
1, 891073, Note_off_c, 0, 63, 57
1, 891116, Note_off_c, 0, 58, 59
1, 891135, Poly_aftertouch_c, 0, 83, 127
1, 891155, Poly_aftertouch_c, 0, 83, 0
1, 891200, Note_off_c, 0, 51, 61
1, 891838, Note_off_c, 0, 82, 37
1, 892228, Note_on_c, 0, 35, 92
1, 892267, Control_c, 0, 64, 119
1, 892281, Control_c, 0, 64, 73
1, 892296, Control_c, 0, 64, 0
1, 892385, Control_c, 0, 64, 60
1, 892400, Control_c, 0, 64, 71
1, 892415, Control_c, 0, 64, 80
1, 892430, Control_c, 0, 64, 91
1, 892451, Control_c, 0, 64, 102
1, 892466, Control_c, 0, 64, 111
1, 892481, Control_c, 0, 64, 127
1, 892629, Note_off_c, 0, 35, 59
1, 893042, Note_on_c, 0, 51, 95
1, 893159, Note_on_c, 0, 56, 81
1, 893208, Note_off_c, 0, 51, 59
1, 893249, Note_off_c, 0, 56, 65
1, 893256, Note_on_c, 0, 63, 80
1, 893309, Note_off_c, 0, 63, 59
1, 893345, Note_on_c, 0, 68, 90
1, 893376, Note_off_c, 0, 68, 59
1, 893389, Note_on_c, 0, 75, 82
1, 893441, Note_on_c, 0, 80, 86
1, 893464, Note_off_c, 0, 75, 64
1, 893491, Note_on_c, 0, 87, 104
1, 893507, Note_off_c, 0, 80, 67
1, 893530, Note_on_c, 0, 88, 53
1, 893536, Note_off_c, 0, 87, 65
1, 893550, Note_off_c, 0, 88, 60
1, 894735, Note_on_c, 0, 34, 96
1, 894787, Control_c, 0, 64, 69
1, 894801, Control_c, 0, 64, 0
1, 894993, Control_c, 0, 64, 56
1, 895008, Control_c, 0, 64, 65
1, 895023, Control_c, 0, 64, 71
1, 895038, Control_c, 0, 64, 78
1, 895053, Control_c, 0, 64, 86
1, 895068, Control_c, 0, 64, 96
1, 895083, Control_c, 0, 64, 103
1, 895098, Control_c, 0, 64, 109
1, 895112, Control_c, 0, 64, 124
1, 895127, Control_c, 0, 64, 127
1, 896054, Note_on_c, 0, 46, 102
1, 896076, Note_off_c, 0, 34, 64
1, 896090, Note_off_c, 0, 46, 68
1, 896487, Note_on_c, 0, 87, 43
1, 896501, Note_on_c, 0, 75, 97
1, 896502, Note_on_c, 0, 92, 107
1, 896505, Note_on_c, 0, 65, 81
1, 896505, Note_on_c, 0, 68, 80
1, 896505, Note_on_c, 0, 80, 94
1, 896535, Note_off_c, 0, 87, 49
1, 896547, Note_off_c, 0, 80, 66
1, 896564, Note_off_c, 0, 92, 68
1, 896835, Note_off_c, 0, 65, 53
1, 896841, Note_off_c, 0, 75, 59
1, 896845, Note_off_c, 0, 68, 51
1, 896972, Note_on_c, 0, 89, 103
1, 896973, Note_on_c, 0, 77, 95
1, 896976, Note_on_c, 0, 74, 100
1, 896977, Note_on_c, 0, 80, 90
1, 896981, Note_on_c, 0, 68, 73
1, 896988, Note_on_c, 0, 65, 68
1, 897014, Note_on_c, 0, 87, 33
1, 897046, Note_off_c, 0, 87, 54
1, 897057, Note_off_c, 0, 77, 61
1, 897057, Note_off_c, 0, 89, 60
1, 897069, Note_off_c, 0, 68, 56
1, 897083, Note_off_c, 0, 65, 56
1, 897087, Note_off_c, 0, 80, 61
1, 897093, Note_off_c, 0, 74, 67
1, 897161, Note_on_c, 0, 68, 88
1, 897163, Note_on_c, 0, 70, 83
1, 897164, Note_on_c, 0, 86, 98
1, 897168, Note_on_c, 0, 74, 91
1, 897175, Note_on_c, 0, 65, 50
1, 897175, Note_on_c, 0, 80, 83
1, 897181, Note_off_c, 0, 70, 72
1, 897190, Note_off_c, 0, 68, 63
1, 897194, Note_off_c, 0, 65, 65
1, 897197, Note_off_c, 0, 80, 68
1, 897199, Note_off_c, 0, 86, 63
1, 897201, Note_off_c, 0, 74, 65
1, 897373, Control_c, 0, 64, 68
1, 897384, Note_on_c, 0, 62, 55
1, 897385, Note_on_c, 0, 56, 92
1, 897386, Note_on_c, 0, 58, 104
1, 897387, Note_on_c, 0, 44, 95
1, 897388, Control_c, 0, 64, 0
1, 897389, Note_on_c, 0, 70, 93
1, 897394, Note_on_c, 0, 65, 72
1, 897408, Note_off_c, 0, 56, 66
1, 897432, Control_c, 0, 64, 61
1, 897434, Note_off_c, 0, 44, 59
1, 897447, Control_c, 0, 64, 76
1, 897461, Control_c, 0, 64, 92
1, 897476, Control_c, 0, 64, 127
1, 897630, Note_off_c, 0, 58, 51
1, 897648, Note_off_c, 0, 70, 36
1, 897667, Note_off_c, 0, 65, 55
1, 897675, Note_off_c, 0, 62, 51
1, 897751, Control_c, 0, 64, 97
1, 897766, Control_c, 0, 64, 77
1, 897780, Note_on_c, 0, 58, 95
1, 897781, Control_c, 0, 64, 76
1, 897782, Note_on_c, 0, 44, 91
1, 897783, Note_on_c, 0, 70, 86
1, 897788, Note_on_c, 0, 65, 72
1, 897789, Note_on_c, 0, 32, 81
1, 897796, Control_c, 0, 64, 85
1, 897801, Note_on_c, 0, 62, 47
1, 897811, Control_c, 0, 64, 98
1, 897825, Control_c, 0, 64, 127
1, 897826, Note_off_c, 0, 62, 56
1, 897828, Note_off_c, 0, 44, 64
1, 897846, Note_off_c, 0, 58, 59
1, 897887, Note_off_c, 0, 70, 62
1, 897904, Note_off_c, 0, 32, 35
1, 897929, Control_c, 0, 64, 77
1, 897937, Note_off_c, 0, 65, 52
1, 897944, Control_c, 0, 64, 0
1, 897958, Note_on_c, 0, 43, 103
1, 897964, Note_on_c, 0, 31, 69
1, 897964, Note_on_c, 0, 58, 85
1, 897971, Note_on_c, 0, 70, 88
1, 897973, Note_on_c, 0, 63, 74
1, 897983, Note_off_c, 0, 58, 72
1, 897989, Control_c, 0, 64, 51
1, 897992, Note_off_c, 0, 31, 59
1, 897992, Note_off_c, 0, 43, 67
1, 897996, Note_off_c, 0, 63, 67
1, 898004, Control_c, 0, 64, 73
1, 898017, Note_off_c, 0, 70, 65
1, 898018, Control_c, 0, 64, 95
1, 898033, Control_c, 0, 64, 127
1, 898251, Note_on_c, 0, 75, 97
1, 898252, Note_on_c, 0, 70, 76
1, 898254, Note_on_c, 0, 67, 75
1, 898254, Note_on_c, 0, 82, 103
1, 898254, Note_on_c, 0, 94, 103
1, 898290, Note_off_c, 0, 82, 68
1, 898290, Note_off_c, 0, 94, 64
1, 898397, Note_off_c, 0, 75, 58
1, 898408, Note_off_c, 0, 70, 56
1, 898415, Note_off_c, 0, 67, 51
1, 898511, Note_on_c, 0, 73, 17
1, 898558, Note_off_c, 0, 73, 53
1, 898606, Note_on_c, 0, 85, 98
1, 898607, Note_on_c, 0, 73, 101
1, 898608, Note_on_c, 0, 82, 91
1, 898612, Note_on_c, 0, 70, 86
1, 898615, Note_on_c, 0, 67, 78
1, 898694, Note_off_c, 0, 73, 63
1, 898701, Note_off_c, 0, 85, 63
1, 898724, Note_off_c, 0, 82, 61
1, 898775, Note_on_c, 0, 68, 82
1, 898777, Note_off_c, 0, 70, 61
1, 898778, Note_on_c, 0, 83, 98
1, 898782, Note_on_c, 0, 71, 88
1, 898786, Note_on_c, 0, 75, 78
1, 898786, Note_off_c, 0, 67, 62
1, 898795, Note_off_c, 0, 68, 69
1, 898803, Note_off_c, 0, 71, 69
1, 898806, Note_off_c, 0, 75, 72
1, 898811, Note_off_c, 0, 83, 69
1, 898960, Control_c, 0, 64, 86
1, 898975, Control_c, 0, 64, 0
1, 898980, Note_on_c, 0, 71, 86
1, 898984, Note_on_c, 0, 59, 77
1, 898985, Note_on_c, 0, 56, 85
1, 898988, Note_on_c, 0, 63, 71
1, 898991, Note_on_c, 0, 44, 80
1, 899033, Note_off_c, 0, 56, 63
1, 899034, Control_c, 0, 64, 53
1, 899045, Note_off_c, 0, 44, 63
1, 899049, Control_c, 0, 64, 69
1, 899063, Control_c, 0, 64, 83
1, 899078, Control_c, 0, 64, 100
1, 899092, Control_c, 0, 64, 127
1, 899206, Note_off_c, 0, 59, 58
1, 899207, Note_off_c, 0, 71, 57
1, 899225, Note_off_c, 0, 63, 58
1, 899328, Note_on_c, 0, 71, 91
1, 899333, Note_on_c, 0, 59, 86
1, 899335, Note_on_c, 0, 44, 87
1, 899337, Note_on_c, 0, 63, 75
1, 899341, Note_on_c, 0, 32, 72
1, 899375, Note_off_c, 0, 59, 63
1, 899389, Note_off_c, 0, 44, 60
1, 899405, Note_off_c, 0, 71, 60
1, 899441, Note_off_c, 0, 63, 49
1, 899444, Note_off_c, 0, 32, 34
1, 899471, Control_c, 0, 64, 70
1, 899486, Control_c, 0, 64, 0
1, 899506, Note_on_c, 0, 43, 105
1, 899509, Note_on_c, 0, 58, 94
1, 899511, Note_on_c, 0, 70, 97
1, 899512, Note_on_c, 0, 31, 65
1, 899526, Note_off_c, 0, 58, 73
1, 899531, Control_c, 0, 64, 60
1, 899535, Note_off_c, 0, 43, 67
1, 899543, Note_off_c, 0, 31, 54
1, 899546, Control_c, 0, 64, 77
1, 899559, Note_off_c, 0, 70, 65
1, 899561, Control_c, 0, 64, 99
1, 899576, Control_c, 0, 64, 127
1, 899800, Note_on_c, 0, 75, 96
1, 899801, Note_on_c, 0, 70, 83
1, 899801, Note_on_c, 0, 94, 100
1, 899801, Note_on_c, 0, 82, 105
1, 899806, Note_on_c, 0, 67, 77
1, 899835, Note_off_c, 0, 82, 69
1, 899838, Note_off_c, 0, 94, 67
1, 899844, Note_on_c, 0, 92, 24
1, 899889, Note_off_c, 0, 92, 55
1, 899950, Note_off_c, 0, 75, 61
1, 899969, Note_off_c, 0, 70, 55
1, 899974, Note_off_c, 0, 67, 57
1, 900153, Note_on_c, 0, 85, 103
1, 900156, Note_on_c, 0, 82, 94
1, 900156, Note_on_c, 0, 73, 104
1, 900159, Note_on_c, 0, 70, 88
1, 900162, Note_on_c, 0, 67, 79
1, 900279, Note_off_c, 0, 73, 65
1, 900281, Note_off_c, 0, 85, 61
1, 900298, Note_off_c, 0, 82, 58
1, 900345, Note_on_c, 0, 68, 80
1, 900352, Note_off_c, 0, 70, 63
1, 900353, Note_on_c, 0, 83, 96
1, 900358, Note_on_c, 0, 71, 95
1, 900362, Note_off_c, 0, 67, 62
1, 900365, Note_on_c, 0, 75, 77
1, 900366, Note_off_c, 0, 68, 71
1, 900377, Note_off_c, 0, 71, 70
1, 900385, Note_off_c, 0, 75, 71
1, 900395, Note_off_c, 0, 83, 69
1, 900532, Control_c, 0, 64, 102
1, 900547, Control_c, 0, 64, 67
1, 900559, Note_on_c, 0, 71, 83
1, 900561, Note_on_c, 0, 59, 76
1, 900562, Control_c, 0, 64, 0
1, 900563, Note_on_c, 0, 56, 83
1, 900566, Note_on_c, 0, 63, 68
1, 900568, Note_on_c, 0, 44, 78
1, 900591, Control_c, 0, 64, 46
1, 900597, Note_off_c, 0, 56, 63
1, 900606, Control_c, 0, 64, 66
1, 900609, Note_off_c, 0, 44, 62
1, 900621, Control_c, 0, 64, 76
1, 900636, Control_c, 0, 64, 87
1, 900651, Control_c, 0, 64, 102
1, 900665, Control_c, 0, 64, 127
1, 900773, Note_off_c, 0, 71, 45
1, 900776, Note_off_c, 0, 59, 57
1, 900783, Note_off_c, 0, 63, 55
1, 900880, Control_c, 0, 64, 109
1, 900895, Control_c, 0, 64, 80
1, 900901, Note_on_c, 0, 71, 74
1, 900904, Note_on_c, 0, 59, 64
1, 900904, Note_on_c, 0, 63, 59
1, 900910, Control_c, 0, 64, 69
1, 900915, Note_on_c, 0, 44, 63
1, 900923, Note_on_c, 0, 32, 52
1, 900925, Control_c, 0, 64, 73
1, 900940, Note_off_c, 0, 44, 66
1, 900940, Control_c, 0, 64, 80
1, 900955, Note_off_c, 0, 59, 59
1, 900955, Control_c, 0, 64, 89
1, 900961, Note_off_c, 0, 32, 61
1, 900969, Note_off_c, 0, 71, 61
1, 900970, Control_c, 0, 64, 97
1, 900985, Control_c, 0, 64, 110
1, 900999, Note_off_c, 0, 63, 55
1, 901000, Control_c, 0, 64, 127
1, 901044, Control_c, 0, 64, 101
1, 901059, Control_c, 0, 64, 79
1, 901071, Note_on_c, 0, 43, 83
1, 901074, Note_on_c, 0, 70, 78
1, 901074, Control_c, 0, 64, 78
1, 901080, Note_on_c, 0, 58, 71
1, 901083, Note_on_c, 0, 31, 52
1, 901088, Control_c, 0, 64, 92
1, 901096, Note_off_c, 0, 43, 67
1, 901097, Note_on_c, 0, 63, 55
1, 901103, Control_c, 0, 64, 127
1, 901116, Note_off_c, 0, 31, 59
1, 901173, Note_off_c, 0, 58, 61
1, 901191, Note_off_c, 0, 70, 58
1, 901230, Note_off_c, 0, 63, 34
1, 901236, Control_c, 0, 64, 87
1, 901251, Control_c, 0, 64, 0
1, 901264, Note_on_c, 0, 59, 88
1, 901265, Note_on_c, 0, 56, 82
1, 901265, Note_on_c, 0, 63, 69
1, 901265, Note_on_c, 0, 71, 94
1, 901266, Note_on_c, 0, 44, 85
1, 901286, Note_off_c, 0, 56, 71
1, 901295, Note_off_c, 0, 44, 65
1, 901295, Control_c, 0, 64, 40
1, 901311, Control_c, 0, 64, 66
1, 901326, Control_c, 0, 64, 76
1, 901341, Control_c, 0, 64, 93
1, 901355, Control_c, 0, 64, 110
1, 901370, Control_c, 0, 64, 121
1, 901385, Control_c, 0, 64, 122
1, 901414, Control_c, 0, 64, 124
1, 901429, Control_c, 0, 64, 127
1, 901532, Note_off_c, 0, 71, 57
1, 901535, Note_off_c, 0, 59, 56
1, 901551, Note_off_c, 0, 63, 59
1, 901585, Control_c, 0, 64, 88
1, 901600, Control_c, 0, 64, 0
1, 901622, Note_on_c, 0, 44, 78
1, 901626, Note_on_c, 0, 71, 85
1, 901630, Note_on_c, 0, 32, 68
1, 901632, Note_on_c, 0, 59, 73
1, 901636, Note_on_c, 0, 63, 77
1, 901656, Note_off_c, 0, 44, 65
1, 901659, Control_c, 0, 64, 65
1, 901672, Note_off_c, 0, 32, 60
1, 901674, Control_c, 0, 64, 76
1, 901688, Control_c, 0, 64, 91
1, 901692, Note_off_c, 0, 59, 60
1, 901703, Control_c, 0, 64, 127
1, 901720, Note_off_c, 0, 71, 62
1, 901749, Control_c, 0, 64, 102
1, 901754, Note_off_c, 0, 63, 57
1, 901764, Control_c, 0, 64, 68
1, 901779, Control_c, 0, 64, 0
1, 901790, Note_on_c, 0, 43, 94
1, 901793, Control_c, 0, 64, 69
1, 901802, Note_on_c, 0, 58, 91
1, 901803, Note_on_c, 0, 70, 91
1, 901804, Note_on_c, 0, 31, 58
1, 901808, Control_c, 0, 64, 84
1, 901812, Note_on_c, 0, 63, 55
1, 901814, Note_off_c, 0, 43, 69
1, 901823, Control_c, 0, 64, 127
1, 901841, Note_off_c, 0, 31, 58
1, 901873, Note_off_c, 0, 58, 62
1, 901915, Note_off_c, 0, 70, 62
1, 901948, Note_off_c, 0, 63, 22
1, 901957, Control_c, 0, 64, 87
1, 901972, Control_c, 0, 64, 0
1, 902001, Note_on_c, 0, 59, 103
1, 902001, Note_on_c, 0, 71, 102
1, 902004, Note_on_c, 0, 56, 90
1, 902006, Note_on_c, 0, 63, 83
1, 902007, Note_on_c, 0, 68, 87
1, 902010, Note_on_c, 0, 44, 91
1, 902023, Note_off_c, 0, 56, 74
1, 902031, Control_c, 0, 64, 38
1, 902034, Note_off_c, 0, 44, 66
1, 902045, Control_c, 0, 64, 69
1, 902060, Control_c, 0, 64, 81
1, 902075, Control_c, 0, 64, 95
1, 902090, Control_c, 0, 64, 110
1, 902105, Control_c, 0, 64, 119
1, 902119, Control_c, 0, 64, 127
1, 902321, Note_off_c, 0, 59, 54
1, 902324, Note_off_c, 0, 71, 55
1, 902347, Note_off_c, 0, 63, 55
1, 902359, Note_off_c, 0, 68, 58
1, 902393, Control_c, 0, 64, 87
1, 902408, Control_c, 0, 64, 0
1, 902417, Note_on_c, 0, 44, 97
1, 902419, Note_on_c, 0, 71, 96
1, 902420, Note_on_c, 0, 68, 75
1, 902421, Note_on_c, 0, 59, 92
1, 902422, Note_on_c, 0, 32, 91
1, 902434, Note_on_c, 0, 63, 82
1, 902437, Control_c, 0, 64, 67
1, 902439, Note_off_c, 0, 44, 70
1, 902446, Note_off_c, 0, 32, 70
1, 902452, Control_c, 0, 64, 76
1, 902455, Note_on_c, 0, 34, 31
1, 902456, Note_off_c, 0, 34, 127
1, 902467, Control_c, 0, 64, 94
1, 902482, Control_c, 0, 64, 127
1, 902491, Note_off_c, 0, 59, 61
1, 902492, Note_off_c, 0, 71, 63
1, 902499, Poly_aftertouch_c, 0, 34, 0
1, 902527, Note_off_c, 0, 68, 59
1, 902543, Poly_aftertouch_c, 0, 44, 127
1, 902583, Poly_aftertouch_c, 0, 44, 0
1, 902587, Control_c, 0, 64, 93
1, 902602, Control_c, 0, 64, 0
1, 902614, Note_off_c, 0, 63, 56
1, 902648, Note_on_c, 0, 39, 97
1, 902649, Note_on_c, 0, 27, 87
1, 902652, Note_on_c, 0, 58, 99
1, 902653, Note_on_c, 0, 70, 99
1, 902669, Note_off_c, 0, 58, 72
1, 902675, Control_c, 0, 64, 36
1, 902678, Note_off_c, 0, 27, 65
1, 902689, Note_off_c, 0, 39, 62
1, 902690, Control_c, 0, 64, 75
1, 902705, Note_off_c, 0, 70, 65
1, 902705, Control_c, 0, 64, 97
1, 902720, Control_c, 0, 64, 127
1, 902913, Control_c, 0, 64, 85
1, 902916, Note_on_c, 0, 51, 88
1, 902918, Note_on_c, 0, 63, 100
1, 902921, Note_on_c, 0, 55, 83
1, 902921, Note_on_c, 0, 58, 92
1, 902921, Note_on_c, 0, 82, 94
1, 902922, Note_on_c, 0, 79, 91
1, 902923, Note_on_c, 0, 87, 101
1, 902924, Note_on_c, 0, 75, 100
1, 902928, Control_c, 0, 64, 63
1, 902949, Control_c, 0, 64, 70
1, 902964, Control_c, 0, 64, 89
1, 902979, Control_c, 0, 64, 127
1, 902988, Note_off_c, 0, 63, 65
1, 902989, Note_off_c, 0, 51, 64
1, 902997, Note_off_c, 0, 55, 65
1, 902998, Note_off_c, 0, 58, 66
1, 903455, Note_off_c, 0, 87, 58
1, 903457, Note_off_c, 0, 79, 51
1, 903464, Note_off_c, 0, 75, 56
1, 903522, Note_off_c, 0, 82, 35
1, 903557, Control_c, 0, 64, 73
1, 903569, Note_on_c, 0, 63, 97
1, 903572, Control_c, 0, 64, 0
1, 903576, Note_on_c, 0, 58, 86
1, 903577, Note_on_c, 0, 82, 94
1, 903578, Note_on_c, 0, 55, 76
1, 903579, Note_on_c, 0, 79, 83
1, 903580, Note_on_c, 0, 51, 72
1, 903580, Note_on_c, 0, 75, 102
1, 903581, Note_on_c, 0, 87, 103
1, 903587, Control_c, 0, 64, 49
1, 903601, Control_c, 0, 64, 70
1, 903605, Note_off_c, 0, 63, 65
1, 903608, Note_off_c, 0, 79, 56
1, 903616, Control_c, 0, 64, 87
1, 903618, Note_off_c, 0, 58, 66
1, 903622, Note_off_c, 0, 55, 64
1, 903631, Control_c, 0, 64, 127
1, 903635, Note_off_c, 0, 51, 64
1, 903641, Note_off_c, 0, 82, 64
1, 903873, Note_off_c, 0, 87, 61
1, 903876, Note_off_c, 0, 75, 55
1, 903920, Control_c, 0, 64, 94
1, 903935, Control_c, 0, 64, 0
1, 903957, Note_on_c, 0, 75, 104
1, 903957, Note_on_c, 0, 32, 85
1, 903958, Note_on_c, 0, 44, 95
1, 903958, Note_on_c, 0, 83, 92
1, 903958, Note_on_c, 0, 87, 101
1, 903961, Note_on_c, 0, 80, 83
1, 903980, Control_c, 0, 64, 53
1, 903985, Note_off_c, 0, 32, 69
1, 903995, Control_c, 0, 64, 73
1, 904001, Note_off_c, 0, 44, 66
1, 904009, Control_c, 0, 64, 98
1, 904024, Control_c, 0, 64, 127
1, 904191, Note_off_c, 0, 75, 61
1, 904211, Note_on_c, 0, 51, 61
1, 904215, Note_on_c, 0, 56, 65
1, 904216, Note_off_c, 0, 87, 63
1, 904216, Note_on_c, 0, 59, 52
1, 904222, Note_off_c, 0, 80, 61
1, 904224, Note_off_c, 0, 83, 61
1, 904240, Note_off_c, 0, 59, 59
1, 904242, Note_off_c, 0, 56, 65
1, 904243, Note_off_c, 0, 51, 64
1, 904282, Poly_aftertouch_c, 0, 57, 127
1, 904315, Note_on_c, 0, 59, 75
1, 904317, Note_on_c, 0, 56, 67
1, 904317, Poly_aftertouch_c, 0, 57, 0
1, 904320, Note_on_c, 0, 51, 69
1, 904340, Note_off_c, 0, 59, 65
1, 904350, Note_off_c, 0, 56, 63
1, 904354, Note_off_c, 0, 51, 62
1, 904421, Note_on_c, 0, 59, 86
1, 904434, Note_on_c, 0, 56, 80
1, 904448, Note_on_c, 0, 51, 29
1, 904460, Note_on_c, 0, 52, 50
1, 904477, Note_off_c, 0, 59, 60
1, 904481, Note_off_c, 0, 51, 52
1, 904488, Note_off_c, 0, 52, 59
1, 904508, Note_off_c, 0, 56, 60
1, 904526, Note_on_c, 0, 80, 102
1, 904528, Note_on_c, 0, 68, 97
1, 904537, Control_c, 0, 64, 82
1, 904552, Control_c, 0, 64, 0
1, 904611, Control_c, 0, 64, 60
1, 904626, Control_c, 0, 64, 70
1, 904631, Note_on_c, 0, 51, 68
1, 904636, Note_on_c, 0, 59, 69
1, 904640, Control_c, 0, 64, 81
1, 904651, Note_on_c, 0, 56, 62
1, 904655, Control_c, 0, 64, 95
1, 904659, Note_off_c, 0, 68, 55
1, 904667, Note_off_c, 0, 59, 61
1, 904670, Control_c, 0, 64, 120
1, 904685, Control_c, 0, 64, 127
1, 904687, Note_off_c, 0, 56, 61
1, 904714, Control_c, 0, 64, 107
1, 904715, Note_off_c, 0, 51, 59
1, 904729, Control_c, 0, 64, 84
1, 904741, Note_on_c, 0, 70, 89
1, 904744, Note_on_c, 0, 82, 94
1, 904744, Control_c, 0, 64, 71
1, 904759, Control_c, 0, 64, 75
1, 904768, Note_off_c, 0, 80, 58
1, 904774, Control_c, 0, 64, 86
1, 904782, Note_off_c, 0, 70, 65
1, 904786, Note_off_c, 0, 82, 67
1, 904788, Control_c, 0, 64, 99
1, 904803, Control_c, 0, 64, 117
1, 904818, Control_c, 0, 64, 127
1, 904844, Note_on_c, 0, 52, 64
1, 904845, Note_on_c, 0, 61, 74
1, 904849, Note_on_c, 0, 56, 66
1, 904882, Note_off_c, 0, 56, 62
1, 904897, Note_off_c, 0, 61, 59
1, 904909, Note_off_c, 0, 52, 60
1, 904970, Note_on_c, 0, 75, 81
1, 904973, Note_on_c, 0, 63, 77
1, 905027, Control_c, 0, 64, 97
1, 905042, Control_c, 0, 64, 56
1, 905056, Control_c, 0, 64, 0
1, 905075, Note_on_c, 0, 60, 72
1, 905076, Note_on_c, 0, 56, 68
1, 905081, Note_on_c, 0, 54, 67
1, 905098, Note_off_c, 0, 60, 70
1, 905101, Note_off_c, 0, 56, 67
1, 905105, Note_off_c, 0, 54, 67
1, 905185, Note_on_c, 0, 56, 74
1, 905188, Note_on_c, 0, 60, 75
1, 905188, Note_on_c, 0, 54, 68
1, 905211, Note_off_c, 0, 60, 69
1, 905215, Note_off_c, 0, 54, 66
1, 905217, Note_off_c, 0, 56, 67
1, 905234, Note_off_c, 0, 63, 59
1, 905286, Note_on_c, 0, 54, 67
1, 905289, Note_on_c, 0, 60, 70
1, 905303, Note_on_c, 0, 56, 60
1, 905315, Note_off_c, 0, 60, 66
1, 905325, Note_off_c, 0, 54, 63
1, 905325, Note_off_c, 0, 56, 63
1, 905375, Note_off_c, 0, 75, 61
1, 905394, Note_on_c, 0, 80, 72
1, 905399, Note_on_c, 0, 68, 60
1, 905516, Note_on_c, 0, 61, 59
1, 905517, Note_off_c, 0, 68, 56
1, 905519, Note_on_c, 0, 56, 59
1, 905520, Note_off_c, 0, 80, 58
1, 905521, Note_on_c, 0, 52, 51
1, 905523, Control_c, 0, 64, 52
1, 905537, Control_c, 0, 64, 64
1, 905539, Note_off_c, 0, 61, 63
1, 905547, Note_off_c, 0, 56, 65
1, 905552, Control_c, 0, 64, 67
1, 905555, Note_off_c, 0, 52, 63
1, 905567, Control_c, 0, 64, 70
1, 905581, Control_c, 0, 64, 72
1, 905596, Control_c, 0, 64, 75
1, 905611, Control_c, 0, 64, 78
1, 905622, Note_on_c, 0, 80, 69
1, 905626, Note_on_c, 0, 68, 56
1, 905626, Control_c, 0, 64, 81
1, 905641, Control_c, 0, 64, 83
1, 905656, Control_c, 0, 64, 84
1, 905671, Control_c, 0, 64, 84
1, 905686, Control_c, 0, 64, 86
1, 905701, Control_c, 0, 64, 89
1, 905714, Note_on_c, 0, 61, 70
1, 905716, Control_c, 0, 64, 93
1, 905721, Note_on_c, 0, 52, 59
1, 905731, Control_c, 0, 64, 94
1, 905739, Note_off_c, 0, 61, 66
1, 905749, Note_off_c, 0, 52, 65
1, 905754, Note_off_c, 0, 68, 61
1, 905776, Note_off_c, 0, 80, 60
1, 905803, Control_c, 0, 64, 93
1, 905818, Control_c, 0, 64, 86
1, 905832, Note_on_c, 0, 79, 69
1, 905833, Control_c, 0, 64, 68
1, 905834, Note_on_c, 0, 67, 61
1, 905848, Control_c, 0, 64, 0
1, 905931, Note_off_c, 0, 67, 55
1, 905946, Note_on_c, 0, 61, 70
1, 905950, Note_on_c, 0, 64, 64
1, 905966, Note_on_c, 0, 51, 44
1, 905977, Note_off_c, 0, 64, 68
1, 905978, Note_off_c, 0, 61, 63
1, 905999, Note_off_c, 0, 51, 53
1, 906030, Note_off_c, 0, 79, 51
1, 906043, Note_on_c, 0, 80, 73
1, 906059, Note_on_c, 0, 68, 59
1, 906099, Note_off_c, 0, 68, 58
1, 906149, Note_on_c, 0, 63, 74
1, 906156, Note_on_c, 0, 59, 65
1, 906163, Note_on_c, 0, 51, 42
1, 906174, Note_off_c, 0, 63, 65
1, 906185, Note_off_c, 0, 59, 65
1, 906195, Note_off_c, 0, 51, 59
1, 906221, Note_off_c, 0, 80, 59
1, 906250, Note_on_c, 0, 82, 69
1, 906260, Note_on_c, 0, 70, 55
1, 906356, Note_on_c, 0, 61, 65
1, 906357, Note_on_c, 0, 58, 65
1, 906375, Note_off_c, 0, 70, 55
1, 906389, Note_off_c, 0, 58, 65
1, 906389, Note_off_c, 0, 61, 61
1, 906391, Note_on_c, 0, 51, 22
1, 906424, Note_off_c, 0, 51, 49
1, 906460, Note_on_c, 0, 83, 80
1, 906464, Note_on_c, 0, 71, 70
1, 906468, Note_off_c, 0, 82, 38
1, 906485, Note_off_c, 0, 71, 71
1, 906501, Note_off_c, 0, 83, 65
1, 906562, Note_on_c, 0, 59, 62
1, 906568, Control_c, 0, 64, 63
1, 906568, Note_on_c, 0, 56, 56
1, 906573, Note_on_c, 0, 51, 45
1, 906582, Control_c, 0, 64, 68
1, 906597, Note_off_c, 0, 59, 61
1, 906597, Control_c, 0, 64, 70
1, 906598, Note_off_c, 0, 56, 65
1, 906612, Control_c, 0, 64, 72
1, 906613, Note_off_c, 0, 51, 64
1, 906626, Control_c, 0, 64, 74
1, 906641, Control_c, 0, 64, 78
1, 906656, Control_c, 0, 64, 82
1, 906671, Control_c, 0, 64, 85
1, 906690, Note_on_c, 0, 85, 88
1, 906693, Control_c, 0, 64, 86
1, 906699, Note_on_c, 0, 73, 73
1, 906708, Control_c, 0, 64, 87
1, 906723, Control_c, 0, 64, 87
1, 906777, Note_on_c, 0, 58, 80
1, 906783, Note_on_c, 0, 51, 69
1, 906798, Note_on_c, 0, 55, 57
1, 906804, Note_off_c, 0, 58, 62
1, 906812, Control_c, 0, 64, 88
1, 906822, Note_off_c, 0, 55, 62
1, 906823, Note_off_c, 0, 51, 63
1, 906827, Control_c, 0, 64, 90
1, 906841, Control_c, 0, 64, 91
1, 906856, Control_c, 0, 64, 89
1, 906871, Control_c, 0, 64, 69
1, 906886, Control_c, 0, 64, 0
1, 906890, Note_on_c, 0, 55, 74
1, 906893, Note_on_c, 0, 58, 79
1, 906896, Note_on_c, 0, 52, 69
1, 906914, Note_off_c, 0, 58, 67
1, 906926, Note_off_c, 0, 55, 63
1, 906938, Note_off_c, 0, 52, 60
1, 906990, Note_on_c, 0, 58, 92
1, 906991, Note_off_c, 0, 73, 60
1, 907000, Note_on_c, 0, 55, 69
1, 907006, Note_on_c, 0, 52, 57
1, 907007, Note_on_c, 0, 51, 78
1, 907018, Note_off_c, 0, 85, 57
1, 907019, Control_c, 0, 64, 33
1, 907030, Note_off_c, 0, 55, 67
1, 907033, Control_c, 0, 64, 46
1, 907035, Note_off_c, 0, 58, 63
1, 907039, Note_off_c, 0, 52, 63
1, 907048, Control_c, 0, 64, 54
1, 907062, Note_off_c, 0, 51, 63
1, 907063, Control_c, 0, 64, 61
1, 907078, Control_c, 0, 64, 64
1, 907093, Control_c, 0, 64, 67
1, 907105, Note_on_c, 0, 84, 95
1, 907107, Note_on_c, 0, 72, 87
1, 907108, Control_c, 0, 64, 70
1, 907123, Control_c, 0, 64, 71
1, 907123, Note_off_c, 0, 72, 74
1, 907137, Note_off_c, 0, 84, 68
1, 907137, Control_c, 0, 64, 65
1, 907152, Control_c, 0, 64, 56
1, 907167, Control_c, 0, 64, 61
1, 907182, Control_c, 0, 64, 66
1, 907188, Note_on_c, 0, 54, 84
1, 907189, Note_on_c, 0, 44, 75
1, 907197, Control_c, 0, 64, 70
1, 907212, Control_c, 0, 64, 76
1, 907219, Note_off_c, 0, 54, 63
1, 907226, Control_c, 0, 64, 86
1, 907241, Control_c, 0, 64, 96
1, 907248, Note_off_c, 0, 44, 61
1, 907256, Control_c, 0, 64, 106
1, 907271, Control_c, 0, 64, 114
1, 907272, Poly_aftertouch_c, 0, 46, 127
1, 907286, Control_c, 0, 64, 122
1, 907302, Control_c, 0, 64, 127
1, 907316, Note_on_c, 0, 80, 99
1, 907316, Note_on_c, 0, 92, 104
1, 907322, Note_on_c, 0, 54, 83
1, 907325, Note_on_c, 0, 45, 72
1, 907328, Note_on_c, 0, 51, 79
1, 907337, Note_off_c, 0, 80, 63
1, 907348, Note_off_c, 0, 92, 66
1, 907351, Note_off_c, 0, 54, 67
1, 907358, Note_off_c, 0, 51, 67
1, 907378, Poly_aftertouch_c, 0, 46, 0
1, 907381, Note_off_c, 0, 45, 58
1, 907435, Note_on_c, 0, 54, 85
1, 907437, Note_on_c, 0, 51, 82
1, 907443, Note_on_c, 0, 44, 76
1, 907468, Note_off_c, 0, 51, 64
1, 907477, Note_off_c, 0, 54, 66
1, 907487, Note_off_c, 0, 44, 63
1, 907546, Control_c, 0, 64, 86
1, 907561, Control_c, 0, 64, 0
1, 907584, Note_on_c, 0, 92, 104
1, 907585, Note_on_c, 0, 80, 97
1, 907586, Note_on_c, 0, 49, 95
1, 907591, Note_on_c, 0, 37, 84
1, 907610, Note_off_c, 0, 49, 69
1, 907616, Note_off_c, 0, 37, 67
1, 907620, Control_c, 0, 64, 62
1, 907621, Note_on_c, 0, 93, 48
1, 907635, Control_c, 0, 64, 74
1, 907636, Note_on_c, 0, 82, 23
1, 907637, Note_off_c, 0, 82, 127
1, 907647, Note_off_c, 0, 93, 59
1, 907650, Control_c, 0, 64, 85
1, 907665, Control_c, 0, 64, 99
1, 907680, Control_c, 0, 64, 108
1, 907695, Control_c, 0, 64, 111
1, 907710, Control_c, 0, 64, 112
1, 907725, Control_c, 0, 64, 112
1, 907754, Control_c, 0, 64, 113
1, 907769, Control_c, 0, 64, 115
1, 907772, Note_on_c, 0, 65, 91
1, 907778, Note_on_c, 0, 61, 75
1, 907783, Note_off_c, 0, 80, 63
1, 907783, Control_c, 0, 64, 116
1, 907784, Note_off_c, 0, 92, 63
1, 907785, Note_on_c, 0, 56, 59
1, 907790, Note_off_c, 0, 65, 71
1, 907800, Note_off_c, 0, 61, 66
1, 907809, Note_off_c, 0, 56, 63
1, 907828, Control_c, 0, 64, 117
1, 907843, Control_c, 0, 64, 117
1, 907857, Control_c, 0, 64, 118
1, 907871, Note_on_c, 0, 61, 87
1, 907875, Note_on_c, 0, 65, 87
1, 907877, Note_on_c, 0, 56, 77
1, 907894, Note_off_c, 0, 56, 68
1, 907895, Note_off_c, 0, 65, 72
1, 907902, Control_c, 0, 64, 115
1, 907904, Note_off_c, 0, 61, 60
1, 907917, Control_c, 0, 64, 93
1, 907931, Control_c, 0, 64, 64
1, 907946, Control_c, 0, 64, 0
1, 907974, Note_on_c, 0, 56, 70
1, 907977, Note_on_c, 0, 65, 89
1, 907980, Note_on_c, 0, 61, 77
1, 908012, Note_off_c, 0, 61, 62
1, 908012, Note_off_c, 0, 65, 62
1, 908020, Note_off_c, 0, 56, 62
1, 908070, Note_on_c, 0, 85, 96
1, 908075, Note_on_c, 0, 73, 85
1, 908187, Note_on_c, 0, 65, 78
1, 908190, Note_on_c, 0, 56, 67
1, 908203, Note_on_c, 0, 61, 64
1, 908206, Control_c, 0, 64, 58
1, 908217, Note_off_c, 0, 65, 62
1, 908221, Control_c, 0, 64, 59
1, 908222, Note_off_c, 0, 73, 60
1, 908234, Note_off_c, 0, 61, 62
1, 908236, Control_c, 0, 64, 61
1, 908238, Note_off_c, 0, 56, 53
1, 908251, Control_c, 0, 64, 66
1, 908266, Control_c, 0, 64, 73
1, 908280, Control_c, 0, 64, 77
1, 908283, Note_off_c, 0, 85, 58
1, 908295, Control_c, 0, 64, 78
1, 908298, Note_on_c, 0, 86, 94
1, 908301, Note_on_c, 0, 74, 84
1, 908310, Control_c, 0, 64, 80
1, 908325, Note_off_c, 0, 74, 68
1, 908325, Control_c, 0, 64, 83
1, 908340, Control_c, 0, 64, 88
1, 908343, Note_off_c, 0, 86, 67
1, 908354, Control_c, 0, 64, 93
1, 908369, Control_c, 0, 64, 98
1, 908384, Control_c, 0, 64, 104
1, 908386, Note_on_c, 0, 66, 82
1, 908388, Note_on_c, 0, 57, 65
1, 908395, Note_on_c, 0, 61, 68
1, 908399, Control_c, 0, 64, 112
1, 908413, Control_c, 0, 64, 127
1, 908423, Note_off_c, 0, 61, 65
1, 908426, Note_off_c, 0, 66, 58
1, 908429, Note_off_c, 0, 57, 60
1, 908503, Note_on_c, 0, 80, 87
1, 908512, Note_on_c, 0, 68, 77
1, 908532, Control_c, 0, 64, 99
1, 908547, Control_c, 0, 64, 70
1, 908562, Control_c, 0, 64, 0
1, 908599, Note_on_c, 0, 65, 72
1, 908604, Note_on_c, 0, 62, 65
1, 908605, Note_on_c, 0, 59, 60
1, 908622, Note_off_c, 0, 65, 70
1, 908632, Note_off_c, 0, 62, 64
1, 908634, Note_off_c, 0, 59, 60
1, 908687, Note_off_c, 0, 68, 59
1, 908704, Note_on_c, 0, 59, 75
1, 908705, Note_on_c, 0, 62, 71
1, 908707, Note_on_c, 0, 65, 75
1, 908729, Note_off_c, 0, 65, 70
1, 908733, Note_off_c, 0, 62, 65
1, 908738, Note_off_c, 0, 59, 56
1, 908805, Note_on_c, 0, 65, 86
1, 908819, Note_on_c, 0, 59, 67
1, 908823, Note_on_c, 0, 62, 62
1, 908842, Note_off_c, 0, 65, 55
1, 908846, Note_off_c, 0, 62, 64
1, 908853, Note_off_c, 0, 59, 61
1, 908896, Note_off_c, 0, 80, 60
1, 908928, Note_on_c, 0, 85, 72
1, 908937, Note_on_c, 0, 73, 79
1, 908941, Control_c, 0, 64, 36
1, 908956, Control_c, 0, 64, 61
1, 908962, Note_off_c, 0, 85, 63
1, 908971, Control_c, 0, 64, 67
1, 908985, Control_c, 0, 64, 70
1, 908997, Note_off_c, 0, 73, 61
1, 909000, Control_c, 0, 64, 71
1, 909015, Control_c, 0, 64, 72
1, 909029, Control_c, 0, 64, 73
1, 909035, Note_on_c, 0, 66, 71
1, 909042, Note_on_c, 0, 58, 59
1, 909044, Control_c, 0, 64, 76
1, 909051, Note_on_c, 0, 61, 57
1, 909059, Control_c, 0, 64, 80
1, 909060, Note_off_c, 0, 66, 67
1, 909074, Control_c, 0, 64, 83
1, 909080, Note_off_c, 0, 61, 63
1, 909083, Note_off_c, 0, 58, 57
1, 909089, Control_c, 0, 64, 84
1, 909103, Control_c, 0, 64, 85
1, 909118, Control_c, 0, 64, 87
1, 909133, Control_c, 0, 64, 91
1, 909148, Control_c, 0, 64, 96
1, 909153, Note_on_c, 0, 73, 84
1, 909163, Control_c, 0, 64, 101
1, 909177, Control_c, 0, 64, 103
1, 909192, Control_c, 0, 64, 106
1, 909207, Control_c, 0, 64, 108
1, 909221, Control_c, 0, 64, 111
1, 909234, Note_on_c, 0, 66, 63
1, 909236, Control_c, 0, 64, 111
1, 909251, Note_on_c, 0, 57, 53
1, 909255, Note_off_c, 0, 66, 62
1, 909276, Note_off_c, 0, 57, 57
1, 909340, Control_c, 0, 64, 110
1, 909355, Control_c, 0, 64, 99
1, 909369, Note_on_c, 0, 72, 62
1, 909370, Control_c, 0, 64, 76
1, 909375, Note_on_c, 0, 56, 60
1, 909385, Control_c, 0, 64, 0
1, 909401, Note_off_c, 0, 73, 41
1, 909473, Note_on_c, 0, 66, 59
1, 909488, Note_off_c, 0, 72, 55
1, 909489, Control_c, 0, 64, 52
1, 909495, Note_on_c, 0, 63, 48
1, 909503, Control_c, 0, 64, 64
1, 909518, Control_c, 0, 64, 67
1, 909533, Control_c, 0, 64, 69
1, 909546, Control_c, 0, 64, 71
1, 909561, Control_c, 0, 64, 73
1, 909567, Note_off_c, 0, 66, 61
1, 909576, Control_c, 0, 64, 75
1, 909577, Note_on_c, 0, 73, 76
1, 909582, Note_off_c, 0, 63, 60
1, 909591, Control_c, 0, 64, 78
1, 909606, Control_c, 0, 64, 79
1, 909621, Control_c, 0, 64, 80
1, 909635, Control_c, 0, 64, 81
1, 909650, Control_c, 0, 64, 83
1, 909665, Control_c, 0, 64, 85
1, 909681, Note_on_c, 0, 68, 70
1, 909683, Note_on_c, 0, 64, 64
1, 909688, Control_c, 0, 64, 86
1, 909697, Note_off_c, 0, 73, 57
1, 909704, Control_c, 0, 64, 87
1, 909733, Control_c, 0, 64, 88
1, 909737, Note_off_c, 0, 64, 55
1, 909748, Control_c, 0, 64, 89
1, 909777, Control_c, 0, 64, 85
1, 909779, Note_off_c, 0, 68, 59
1, 909780, Note_on_c, 0, 48, 56
1, 909781, Note_on_c, 0, 75, 85
1, 909792, Control_c, 0, 64, 75
1, 909802, Note_off_c, 0, 56, 38
1, 909807, Control_c, 0, 64, 43
1, 909822, Control_c, 0, 64, 0
1, 909837, Control_c, 0, 64, 50
1, 909851, Control_c, 0, 64, 62
1, 909866, Control_c, 0, 64, 67
1, 909881, Control_c, 0, 64, 72
1, 909889, Note_on_c, 0, 66, 70
1, 909889, Note_on_c, 0, 68, 72
1, 909896, Control_c, 0, 64, 78
1, 909911, Control_c, 0, 64, 84
1, 909917, Note_off_c, 0, 75, 58
1, 909925, Control_c, 0, 64, 90
1, 909940, Control_c, 0, 64, 94
1, 909955, Note_off_c, 0, 66, 58
1, 909955, Control_c, 0, 64, 95
1, 909969, Control_c, 0, 64, 92
1, 909984, Control_c, 0, 64, 80
1, 909992, Note_on_c, 0, 76, 89
1, 909993, Note_on_c, 0, 49, 67
1, 909997, Note_off_c, 0, 48, 59
1, 909999, Control_c, 0, 64, 65
1, 910004, Note_off_c, 0, 68, 62
1, 910014, Control_c, 0, 64, 52
1, 910029, Control_c, 0, 64, 64
1, 910044, Control_c, 0, 64, 68
1, 910059, Control_c, 0, 64, 71
1, 910074, Control_c, 0, 64, 75
1, 910089, Control_c, 0, 64, 81
1, 910100, Note_on_c, 0, 64, 61
1, 910103, Control_c, 0, 64, 86
1, 910106, Note_on_c, 0, 68, 66
1, 910107, Note_off_c, 0, 76, 61
1, 910118, Control_c, 0, 64, 89
1, 910122, Note_off_c, 0, 64, 60
1, 910133, Control_c, 0, 64, 90
1, 910138, Note_off_c, 0, 68, 64
1, 910148, Control_c, 0, 64, 90
1, 910163, Control_c, 0, 64, 90
1, 910177, Control_c, 0, 64, 82
1, 910192, Control_c, 0, 64, 69
1, 910207, Control_c, 0, 64, 0
1, 910208, Note_off_c, 0, 49, 60
1, 910215, Note_on_c, 0, 80, 78
1, 910222, Note_on_c, 0, 44, 58
1, 910242, Note_on_c, 0, 78, 49
1, 910251, Control_c, 0, 64, 33
1, 910266, Control_c, 0, 64, 63
1, 910278, Note_off_c, 0, 78, 48
1, 910281, Control_c, 0, 64, 68
1, 910296, Control_c, 0, 64, 71
1, 910311, Control_c, 0, 64, 73
1, 910321, Note_off_c, 0, 44, 63
1, 910325, Control_c, 0, 64, 75
1, 910339, Note_on_c, 0, 72, 51
1, 910340, Control_c, 0, 64, 78
1, 910344, Note_on_c, 0, 68, 48
1, 910355, Control_c, 0, 64, 82
1, 910358, Note_off_c, 0, 80, 57
1, 910369, Control_c, 0, 64, 84
1, 910404, Note_off_c, 0, 68, 57
1, 910414, Control_c, 0, 64, 84
1, 910437, Control_c, 0, 64, 85
1, 910444, Note_on_c, 0, 78, 71
1, 910448, Note_off_c, 0, 72, 63
1, 910452, Control_c, 0, 64, 85
1, 910466, Control_c, 0, 64, 86
1, 910547, Note_on_c, 0, 68, 50
1, 910562, Note_on_c, 0, 72, 66
1, 910586, Control_c, 0, 64, 84
1, 910600, Control_c, 0, 64, 77
1, 910605, Note_off_c, 0, 78, 35
1, 910615, Control_c, 0, 64, 65
1, 910627, Note_on_c, 0, 75, 72
1, 910630, Control_c, 0, 64, 0
1, 910631, Note_off_c, 0, 72, 59
1, 910636, Note_off_c, 0, 68, 54
1, 910735, Note_on_c, 0, 72, 69
1, 910741, Note_on_c, 0, 68, 68
1, 910748, Control_c, 0, 64, 46
1, 910763, Control_c, 0, 64, 63
1, 910767, Note_off_c, 0, 75, 59
1, 910778, Control_c, 0, 64, 68
1, 910792, Control_c, 0, 64, 71
1, 910807, Control_c, 0, 64, 75
1, 910821, Note_off_c, 0, 68, 57
1, 910822, Control_c, 0, 64, 78
1, 910836, Note_on_c, 0, 57, 88
1, 910837, Control_c, 0, 64, 83
1, 910848, Note_on_c, 0, 75, 75
1, 910852, Note_off_c, 0, 72, 36
1, 910852, Control_c, 0, 64, 87
1, 910867, Control_c, 0, 64, 90
1, 910881, Control_c, 0, 64, 91
1, 910896, Control_c, 0, 64, 92
1, 910911, Control_c, 0, 64, 93
1, 910926, Control_c, 0, 64, 95
1, 910941, Control_c, 0, 64, 97
1, 910955, Note_on_c, 0, 66, 62
1, 910956, Control_c, 0, 64, 98
1, 910960, Note_on_c, 0, 72, 62
1, 910965, Note_off_c, 0, 75, 55
1, 910971, Control_c, 0, 64, 98
1, 911030, Control_c, 0, 64, 98
1, 911045, Control_c, 0, 64, 97
1, 911060, Control_c, 0, 64, 93
1, 911063, Note_off_c, 0, 72, 36
1, 911075, Control_c, 0, 64, 85
1, 911085, Note_on_c, 0, 58, 76
1, 911090, Control_c, 0, 64, 72
1, 911095, Note_on_c, 0, 74, 70
1, 911096, Note_off_c, 0, 66, 40
1, 911105, Control_c, 0, 64, 43
1, 911119, Control_c, 0, 64, 0
1, 911123, Note_off_c, 0, 57, 58
1, 911171, Control_c, 0, 64, 38
1, 911186, Control_c, 0, 64, 56
1, 911200, Control_c, 0, 64, 63
1, 911215, Control_c, 0, 64, 65
1, 911218, Note_on_c, 0, 68, 72
1, 911228, Note_on_c, 0, 65, 57
1, 911230, Control_c, 0, 64, 68
1, 911245, Control_c, 0, 64, 70
1, 911257, Note_off_c, 0, 74, 54
1, 911260, Control_c, 0, 64, 72
1, 911275, Control_c, 0, 64, 75
1, 911284, Note_off_c, 0, 65, 60
1, 911290, Control_c, 0, 64, 77
1, 911305, Control_c, 0, 64, 79
1, 911307, Note_on_c, 0, 75, 83
1, 911315, Note_off_c, 0, 68, 63
1, 911320, Control_c, 0, 64, 81
1, 911335, Control_c, 0, 64, 83
1, 911350, Control_c, 0, 64, 87
1, 911365, Control_c, 0, 64, 89
1, 911379, Control_c, 0, 64, 91
1, 911409, Control_c, 0, 64, 92
1, 911411, Note_on_c, 0, 66, 75
1, 911418, Note_off_c, 0, 75, 64
1, 911423, Note_on_c, 0, 69, 66
1, 911424, Control_c, 0, 64, 92
1, 911439, Control_c, 0, 64, 95
1, 911447, Note_off_c, 0, 66, 54
1, 911454, Control_c, 0, 64, 96
1, 911466, Note_off_c, 0, 69, 55
1, 911484, Control_c, 0, 64, 94
1, 911498, Control_c, 0, 64, 88
1, 911509, Note_on_c, 0, 77, 90
1, 911511, Note_on_c, 0, 50, 63
1, 911513, Control_c, 0, 64, 74
1, 911528, Control_c, 0, 64, 66
1, 911533, Note_off_c, 0, 58, 51
1, 911557, Control_c, 0, 64, 68
1, 911572, Control_c, 0, 64, 70
1, 911587, Control_c, 0, 64, 72
1, 911602, Control_c, 0, 64, 76
1, 911607, Note_on_c, 0, 68, 68
1, 911616, Control_c, 0, 64, 80
1, 911618, Note_off_c, 0, 77, 63
1, 911620, Note_on_c, 0, 70, 67
1, 911631, Control_c, 0, 64, 85
1, 911646, Control_c, 0, 64, 89
1, 911661, Control_c, 0, 64, 90
1, 911671, Note_off_c, 0, 68, 59
1, 911676, Control_c, 0, 64, 89
1, 911691, Control_c, 0, 64, 84
1, 911705, Control_c, 0, 64, 74
1, 911713, Note_on_c, 0, 78, 93
1, 911719, Note_off_c, 0, 70, 63
1, 911720, Control_c, 0, 64, 65
1, 911723, Note_on_c, 0, 51, 64
1, 911749, Control_c, 0, 64, 70
1, 911764, Control_c, 0, 64, 74
1, 911774, Note_off_c, 0, 50, 37
1, 911779, Control_c, 0, 64, 79
1, 911794, Control_c, 0, 64, 86
1, 911809, Control_c, 0, 64, 91
1, 911817, Note_on_c, 0, 66, 76
1, 911821, Note_on_c, 0, 70, 79
1, 911823, Control_c, 0, 64, 94
1, 911832, Note_off_c, 0, 78, 62
1, 911838, Control_c, 0, 64, 96
1, 911847, Note_off_c, 0, 66, 61
1, 911853, Control_c, 0, 64, 96
1, 911862, Note_off_c, 0, 70, 56
1, 911868, Control_c, 0, 64, 96
1, 911898, Control_c, 0, 64, 94
1, 911920, Control_c, 0, 64, 86
1, 911935, Control_c, 0, 64, 72
1, 911937, Note_on_c, 0, 82, 88
1, 911948, Note_on_c, 0, 46, 53
1, 911950, Control_c, 0, 64, 45
1, 911952, Note_off_c, 0, 51, 55
1, 911964, Control_c, 0, 64, 0
1, 911967, Note_on_c, 0, 80, 43
1, 911979, Control_c, 0, 64, 31
1, 911994, Control_c, 0, 64, 54
1, 912009, Control_c, 0, 64, 62
1, 912023, Control_c, 0, 64, 66
1, 912038, Control_c, 0, 64, 68
1, 912053, Control_c, 0, 64, 70
1, 912062, Note_on_c, 0, 74, 60
1, 912065, Note_off_c, 0, 80, 27
1, 912068, Note_on_c, 0, 70, 58
1, 912068, Control_c, 0, 64, 72
1, 912083, Control_c, 0, 64, 74
1, 912094, Note_off_c, 0, 82, 63
1, 912099, Control_c, 0, 64, 75
1, 912114, Control_c, 0, 64, 76
1, 912116, Note_off_c, 0, 46, 60
1, 912128, Control_c, 0, 64, 78
1, 912130, Note_off_c, 0, 70, 59
1, 912143, Control_c, 0, 64, 79
1, 912148, Note_on_c, 0, 80, 83
1, 912158, Control_c, 0, 64, 80
1, 912164, Note_off_c, 0, 74, 65
1, 912172, Control_c, 0, 64, 80
1, 912202, Control_c, 0, 64, 81
1, 912217, Control_c, 0, 64, 82
1, 912232, Control_c, 0, 64, 83
1, 912247, Control_c, 0, 64, 83
1, 912247, Note_on_c, 0, 74, 67
1, 912256, Note_on_c, 0, 70, 57
1, 912262, Control_c, 0, 64, 79
1, 912276, Control_c, 0, 64, 73
1, 912277, Note_off_c, 0, 80, 57
1, 912291, Control_c, 0, 64, 65
1, 912306, Control_c, 0, 64, 64
1, 912321, Control_c, 0, 64, 67
1, 912336, Control_c, 0, 64, 68
1, 912339, Note_off_c, 0, 70, 59
1, 912351, Note_on_c, 0, 77, 79
1, 912351, Control_c, 0, 64, 70
1, 912364, Note_off_c, 0, 74, 65
1, 912366, Control_c, 0, 64, 74
1, 912380, Control_c, 0, 64, 77
1, 912395, Control_c, 0, 64, 80
1, 912410, Control_c, 0, 64, 81
1, 912425, Control_c, 0, 64, 82
1, 912440, Control_c, 0, 64, 83
1, 912453, Note_off_c, 0, 77, 58
1, 912454, Control_c, 0, 64, 83
1, 912458, Note_on_c, 0, 74, 68
1, 912466, Note_on_c, 0, 70, 54
1, 912469, Control_c, 0, 64, 84
1, 912484, Control_c, 0, 64, 86
1, 912499, Control_c, 0, 64, 87
1, 912514, Control_c, 0, 64, 88
1, 912530, Note_off_c, 0, 70, 59
1, 912543, Control_c, 0, 64, 87
1, 912558, Control_c, 0, 64, 81
1, 912568, Note_on_c, 0, 59, 74
1, 912572, Control_c, 0, 64, 71
1, 912578, Note_on_c, 0, 77, 76
1, 912587, Control_c, 0, 64, 53
1, 912591, Note_off_c, 0, 74, 63
1, 912602, Control_c, 0, 64, 47
1, 912617, Control_c, 0, 64, 63
1, 912632, Control_c, 0, 64, 66
1, 912646, Control_c, 0, 64, 69
1, 912661, Control_c, 0, 64, 73
1, 912684, Control_c, 0, 64, 78
1, 912698, Note_on_c, 0, 68, 55
1, 912699, Control_c, 0, 64, 83
1, 912700, Note_on_c, 0, 74, 66
1, 912714, Control_c, 0, 64, 88
1, 912728, Control_c, 0, 64, 89
1, 912743, Control_c, 0, 64, 90
1, 912772, Control_c, 0, 64, 91
1, 912787, Note_off_c, 0, 77, 42
1, 912792, Note_off_c, 0, 68, 46
1, 912794, Note_off_c, 0, 74, 57
1, 912817, Control_c, 0, 64, 90
1, 912832, Control_c, 0, 64, 87
1, 912845, Note_on_c, 0, 76, 74
1, 912846, Control_c, 0, 64, 79
1, 912861, Control_c, 0, 64, 68
1, 912864, Note_on_c, 0, 60, 45
1, 912876, Control_c, 0, 64, 32
1, 912892, Control_c, 0, 64, 0
1, 912897, Note_off_c, 0, 59, 38
1, 912907, Control_c, 0, 64, 34
1, 912922, Control_c, 0, 64, 51
1, 912937, Control_c, 0, 64, 57
1, 912951, Control_c, 0, 64, 62
1, 912966, Control_c, 0, 64, 64
1, 912981, Control_c, 0, 64, 67
1, 912985, Note_on_c, 0, 72, 63
1, 912988, Note_on_c, 0, 67, 56
1, 912995, Control_c, 0, 64, 70
1, 913010, Control_c, 0, 64, 71
1, 913025, Control_c, 0, 64, 73
1, 913031, Note_off_c, 0, 76, 56
1, 913040, Control_c, 0, 64, 74
1, 913043, Note_off_c, 0, 67, 52
1, 913055, Control_c, 0, 64, 76
1, 913069, Control_c, 0, 64, 79
1, 913074, Note_off_c, 0, 72, 63
1, 913076, Note_on_c, 0, 77, 78
1, 913084, Control_c, 0, 64, 82
1, 913099, Control_c, 0, 64, 85
1, 913114, Control_c, 0, 64, 87
1, 913129, Control_c, 0, 64, 88
1, 913138, Poly_aftertouch_c, 0, 76, 127
1, 913144, Control_c, 0, 64, 89
1, 913159, Control_c, 0, 64, 90
1, 913166, Note_on_c, 0, 68, 72
1, 913171, Note_on_c, 0, 72, 70
1, 913174, Control_c, 0, 64, 91
1, 913187, Poly_aftertouch_c, 0, 76, 0
1, 913189, Control_c, 0, 64, 92
1, 913203, Control_c, 0, 64, 93
1, 913218, Control_c, 0, 64, 93
1, 913241, Note_off_c, 0, 68, 60
1, 913248, Control_c, 0, 64, 93
1, 913263, Control_c, 0, 64, 87
1, 913263, Note_on_c, 0, 79, 86
1, 913272, Note_on_c, 0, 52, 61
1, 913272, Note_off_c, 0, 72, 59
1, 913277, Control_c, 0, 64, 77
1, 913286, Note_off_c, 0, 60, 59
1, 913292, Control_c, 0, 64, 65
1, 913296, Note_off_c, 0, 77, 46
1, 913307, Control_c, 0, 64, 63
1, 913322, Control_c, 0, 64, 66
1, 913337, Control_c, 0, 64, 68
1, 913351, Control_c, 0, 64, 70
1, 913366, Control_c, 0, 64, 74
1, 913368, Note_off_c, 0, 79, 64
1, 913379, Note_on_c, 0, 72, 68
1, 913381, Control_c, 0, 64, 78
1, 913388, Note_on_c, 0, 70, 67
1, 913395, Control_c, 0, 64, 82
1, 913410, Control_c, 0, 64, 88
1, 913433, Control_c, 0, 64, 91
1, 913450, Note_off_c, 0, 70, 59
1, 913463, Control_c, 0, 64, 89
1, 913471, Note_off_c, 0, 72, 61
1, 913473, Note_on_c, 0, 80, 84
1, 913477, Control_c, 0, 64, 83
1, 913484, Note_on_c, 0, 53, 67
1, 913492, Control_c, 0, 64, 75
1, 913507, Control_c, 0, 64, 70
1, 913521, Control_c, 0, 64, 72
1, 913536, Control_c, 0, 64, 75
1, 913551, Control_c, 0, 64, 78
1, 913564, Note_on_c, 0, 70, 68
1, 913566, Control_c, 0, 64, 82
1, 913570, Note_on_c, 0, 72, 70
1, 913581, Note_off_c, 0, 80, 61
1, 913581, Control_c, 0, 64, 88
1, 913595, Control_c, 0, 64, 94
1, 913610, Control_c, 0, 64, 98
1, 913625, Control_c, 0, 64, 98
1, 913632, Note_off_c, 0, 70, 40
1, 913655, Control_c, 0, 64, 96
1, 913667, Note_off_c, 0, 72, 50
1, 913669, Control_c, 0, 64, 86
1, 913672, Note_on_c, 0, 79, 79
1, 913676, Note_off_c, 0, 52, 16
1, 913678, Note_off_c, 0, 53, 56
1, 913684, Control_c, 0, 64, 71
1, 913692, Note_on_c, 0, 60, 55
1, 913695, Note_on_c, 0, 48, 57
1, 913700, Control_c, 0, 64, 19
1, 913715, Control_c, 0, 64, 53
1, 913730, Control_c, 0, 64, 63
1, 913745, Control_c, 0, 64, 65
1, 913760, Control_c, 0, 64, 67
1, 913774, Control_c, 0, 64, 71
1, 913783, Note_on_c, 0, 68, 75
1, 913789, Note_off_c, 0, 79, 62
1, 913789, Control_c, 0, 64, 75
1, 913804, Control_c, 0, 64, 79
1, 913814, Note_on_c, 0, 76, 48
1, 913818, Control_c, 0, 64, 82
1, 913824, Note_on_c, 0, 77, 39
1, 913833, Control_c, 0, 64, 84
1, 913848, Control_c, 0, 64, 85
1, 913856, Note_off_c, 0, 68, 60
1, 913863, Control_c, 0, 64, 87
1, 913866, Note_off_c, 0, 76, 47
1, 913876, Note_off_c, 0, 77, 42
1, 913878, Control_c, 0, 64, 90
1, 913880, Note_on_c, 0, 80, 86
1, 913883, Note_off_c, 0, 60, 62
1, 913892, Control_c, 0, 64, 93
1, 913907, Control_c, 0, 64, 95
1, 913908, Note_off_c, 0, 48, 63
1, 913937, Control_c, 0, 64, 96
1, 913952, Control_c, 0, 64, 98
1, 913967, Control_c, 0, 64, 102
1, 913974, Note_on_c, 0, 68, 73
1, 913979, Note_on_c, 0, 77, 76
1, 913982, Control_c, 0, 64, 107
1, 913996, Control_c, 0, 64, 109
1, 914011, Control_c, 0, 64, 110
1, 914026, Control_c, 0, 64, 110
1, 914029, Note_off_c, 0, 68, 58
1, 914029, Note_off_c, 0, 80, 53
1, 914056, Control_c, 0, 64, 109
1, 914071, Control_c, 0, 64, 95
1, 914071, Note_on_c, 0, 55, 79
1, 914074, Note_on_c, 0, 43, 76
1, 914081, Note_on_c, 0, 82, 92
1, 914086, Control_c, 0, 64, 78
1, 914086, Note_off_c, 0, 77, 64
1, 914100, Control_c, 0, 64, 63
1, 914115, Control_c, 0, 64, 63
1, 914130, Control_c, 0, 64, 68
1, 914144, Control_c, 0, 64, 71
1, 914159, Control_c, 0, 64, 75
1, 914160, Note_off_c, 0, 55, 64
1, 914181, Control_c, 0, 64, 82
1, 914190, Note_on_c, 0, 76, 79
1, 914196, Control_c, 0, 64, 90
1, 914200, Note_on_c, 0, 73, 77
1, 914211, Control_c, 0, 64, 99
1, 914214, Note_off_c, 0, 82, 64
1, 914226, Control_c, 0, 64, 105
1, 914241, Control_c, 0, 64, 107
1, 914249, Note_off_c, 0, 76, 61
1, 914256, Control_c, 0, 64, 105
1, 914257, Note_off_c, 0, 73, 63
1, 914271, Control_c, 0, 64, 90
1, 914274, Note_off_c, 0, 43, 59
1, 914286, Control_c, 0, 64, 74
1, 914296, Note_on_c, 0, 56, 85
1, 914297, Note_on_c, 0, 84, 86
1, 914298, Note_on_c, 0, 44, 75
1, 914300, Control_c, 0, 64, 65
1, 914315, Control_c, 0, 64, 70
1, 914330, Control_c, 0, 64, 75
1, 914339, Note_on_c, 0, 86, 9
1, 914340, Note_off_c, 0, 86, 127
1, 914344, Note_off_c, 0, 56, 65
1, 914344, Control_c, 0, 64, 81
1, 914359, Control_c, 0, 64, 91
1, 914374, Control_c, 0, 64, 104
1, 914375, Note_off_c, 0, 44, 63
1, 914379, Note_on_c, 0, 77, 61
1, 914389, Control_c, 0, 64, 127
1, 914390, Note_on_c, 0, 72, 70
1, 914422, Note_off_c, 0, 84, 61
1, 914463, Control_c, 0, 64, 119
1, 914478, Control_c, 0, 64, 81
1, 914482, Note_off_c, 0, 72, 58
1, 914494, Control_c, 0, 64, 0
1, 914509, Note_on_c, 0, 48, 65
1, 914513, Note_off_c, 0, 77, 61
1, 914515, Note_on_c, 0, 36, 64
1, 914515, Note_on_c, 0, 85, 90
1, 914553, Control_c, 0, 64, 23
1, 914567, Control_c, 0, 64, 64
1, 914582, Control_c, 0, 64, 73
1, 914597, Control_c, 0, 64, 83
1, 914607, Note_off_c, 0, 36, 62
1, 914612, Control_c, 0, 64, 95
1, 914627, Control_c, 0, 64, 102
1, 914641, Note_off_c, 0, 48, 63
1, 914641, Control_c, 0, 64, 107
1, 914642, Note_on_c, 0, 76, 74
1, 914642, Note_off_c, 0, 85, 63
1, 914648, Note_on_c, 0, 72, 63
1, 914656, Control_c, 0, 64, 112
1, 914671, Control_c, 0, 64, 126
1, 914686, Control_c, 0, 64, 127
1, 914713, Note_off_c, 0, 72, 61
1, 914737, Note_on_c, 0, 84, 94
1, 914742, Note_on_c, 0, 60, 83
1, 914747, Note_on_c, 0, 52, 73
1, 914748, Note_on_c, 0, 55, 69
1, 914749, Note_off_c, 0, 76, 64
1, 914834, Note_on_c, 0, 72, 86
1, 914835, Note_on_c, 0, 76, 89
1, 914848, Note_off_c, 0, 84, 54
1, 914922, Note_off_c, 0, 72, 49
1, 914935, Note_on_c, 0, 79, 96
1, 914951, Note_off_c, 0, 60, 58
1, 914951, Note_off_c, 0, 76, 67
1, 914961, Note_off_c, 0, 52, 57
1, 914969, Note_off_c, 0, 55, 59
1, 915026, Note_on_c, 0, 72, 84
1, 915030, Note_on_c, 0, 76, 89
1, 915051, Poly_aftertouch_c, 0, 81, 0
1, 915105, Note_off_c, 0, 72, 58
1, 915123, Note_on_c, 0, 55, 81
1, 915126, Note_on_c, 0, 60, 93
1, 915130, Note_on_c, 0, 84, 94
1, 915135, Note_on_c, 0, 52, 77
1, 915135, Note_off_c, 0, 76, 64
1, 915152, Note_off_c, 0, 60, 66
1, 915156, Note_on_c, 0, 81, 31
1, 915169, Note_off_c, 0, 55, 66
1, 915175, Note_off_c, 0, 79, 46
1, 915187, Note_off_c, 0, 52, 65
1, 915193, Note_off_c, 0, 81, 46
1, 915213, Note_on_c, 0, 72, 87
1, 915224, Note_on_c, 0, 76, 80
1, 915228, Note_off_c, 0, 84, 61
1, 915229, Note_on_c, 0, 79, 25
1, 915259, Note_off_c, 0, 72, 63
1, 915269, Note_off_c, 0, 76, 63
1, 915272, Note_off_c, 0, 79, 50
1, 915302, Control_c, 0, 64, 81
1, 915317, Control_c, 0, 64, 0
1, 915332, Note_on_c, 0, 34, 94
1, 915333, Note_on_c, 0, 46, 92
1, 915338, Note_on_c, 0, 87, 103
1, 915361, Control_c, 0, 64, 53
1, 915376, Control_c, 0, 64, 69
1, 915377, Note_off_c, 0, 34, 63
1, 915385, Note_off_c, 0, 46, 62
1, 915390, Control_c, 0, 64, 81
1, 915405, Control_c, 0, 64, 100
1, 915420, Control_c, 0, 64, 127
1, 915434, Note_on_c, 0, 79, 79
1, 915441, Note_on_c, 0, 75, 81
1, 915463, Note_off_c, 0, 87, 63
1, 915517, Note_off_c, 0, 75, 60
1, 915544, Note_on_c, 0, 61, 98
1, 915549, Note_on_c, 0, 55, 73
1, 915549, Note_on_c, 0, 85, 95
1, 915550, Note_on_c, 0, 51, 77
1, 915560, Note_off_c, 0, 79, 62
1, 915642, Note_on_c, 0, 75, 87
1, 915642, Note_on_c, 0, 79, 88
1, 915666, Note_off_c, 0, 85, 62
1, 915730, Note_off_c, 0, 75, 57
1, 915746, Note_off_c, 0, 51, 59
1, 915756, Note_on_c, 0, 82, 105
1, 915761, Note_off_c, 0, 61, 58
1, 915770, Note_off_c, 0, 55, 59
1, 915781, Note_off_c, 0, 79, 62
1, 915849, Note_on_c, 0, 79, 88
1, 915853, Note_on_c, 0, 75, 85
1, 915868, Note_off_c, 0, 82, 65
1, 915955, Note_off_c, 0, 75, 57
1, 915961, Note_on_c, 0, 61, 94
1, 915963, Note_on_c, 0, 55, 86
1, 915973, Note_on_c, 0, 85, 93
1, 915976, Note_on_c, 0, 51, 89
1, 915986, Note_off_c, 0, 61, 63
1, 915992, Note_off_c, 0, 79, 60
1, 916000, Note_off_c, 0, 55, 62
1, 916026, Note_off_c, 0, 51, 65
1, 916032, Note_on_c, 0, 86, 21
1, 916071, Note_off_c, 0, 86, 44
1, 916090, Note_on_c, 0, 79, 88
1, 916091, Note_on_c, 0, 75, 81
1, 916139, Note_off_c, 0, 75, 63
1, 916149, Note_off_c, 0, 85, 53
1, 916156, Note_off_c, 0, 79, 61
1, 916213, Control_c, 0, 64, 96
1, 916228, Control_c, 0, 64, 38
1, 916241, Note_on_c, 0, 39, 94
1, 916243, Control_c, 0, 64, 0
1, 916249, Note_on_c, 0, 27, 80
1, 916256, Note_on_c, 0, 82, 99
1, 916256, Note_on_c, 0, 91, 112
1, 916256, Note_on_c, 0, 79, 102
1, 916274, Note_off_c, 0, 27, 65
1, 916284, Note_off_c, 0, 39, 63
1, 916287, Control_c, 0, 64, 57
1, 916302, Control_c, 0, 64, 71
1, 916317, Control_c, 0, 64, 83
1, 916331, Control_c, 0, 64, 98
1, 916342, Note_off_c, 0, 91, 63
1, 916346, Control_c, 0, 64, 109
1, 916361, Control_c, 0, 64, 117
1, 916376, Control_c, 0, 64, 126
1, 916391, Note_off_c, 0, 79, 60
1, 916391, Control_c, 0, 64, 127
1, 916428, Note_on_c, 0, 87, 102
1, 916444, Note_off_c, 0, 82, 63
1, 916491, Note_off_c, 0, 87, 64
1, 916561, Control_c, 0, 64, 97
1, 916568, Note_on_c, 0, 76, 100
1, 916570, Note_on_c, 0, 85, 110
1, 916571, Note_on_c, 0, 64, 80
1, 916571, Note_on_c, 0, 70, 84
1, 916572, Note_on_c, 0, 68, 81
1, 916574, Note_on_c, 0, 73, 93
1, 916576, Control_c, 0, 64, 66
1, 916591, Control_c, 0, 64, 40
1, 916606, Control_c, 0, 64, 67
1, 916616, Note_off_c, 0, 73, 63
1, 916620, Control_c, 0, 64, 75
1, 916634, Note_off_c, 0, 76, 68
1, 916635, Control_c, 0, 64, 88
1, 916650, Control_c, 0, 64, 108
1, 916665, Control_c, 0, 64, 127
1, 916689, Note_on_c, 0, 82, 93
1, 916721, Note_off_c, 0, 85, 60
1, 916732, Note_off_c, 0, 70, 63
1, 916742, Note_off_c, 0, 68, 61
1, 916748, Note_off_c, 0, 64, 64
1, 916784, Note_on_c, 0, 80, 96
1, 916811, Note_off_c, 0, 82, 63
1, 916870, Note_on_c, 0, 76, 89
1, 916876, Note_off_c, 0, 80, 63
1, 916923, Note_off_c, 0, 76, 64
1, 916974, Note_on_c, 0, 73, 91
1, 916980, Note_on_c, 0, 64, 97
1, 916986, Note_on_c, 0, 52, 88
1, 916998, Note_off_c, 0, 64, 73
1, 917009, Note_off_c, 0, 52, 66
1, 917055, Note_off_c, 0, 73, 60
1, 917060, Note_on_c, 0, 68, 84
1, 917104, Note_off_c, 0, 68, 64
1, 917152, Poly_aftertouch_c, 0, 52, 0
1, 917184, Note_on_c, 0, 79, 90
1, 917187, Note_on_c, 0, 63, 92
1, 917189, Note_on_c, 0, 67, 90
1, 917192, Note_on_c, 0, 51, 83
1, 917192, Note_on_c, 0, 70, 82
1, 917192, Control_c, 0, 64, 83
1, 917207, Note_off_c, 0, 63, 68
1, 917207, Control_c, 0, 64, 0
1, 917216, Note_off_c, 0, 51, 67
1, 917245, Note_off_c, 0, 79, 61
1, 917255, Note_off_c, 0, 67, 56
1, 917290, Note_on_c, 0, 75, 83
1, 917294, Note_off_c, 0, 70, 62
1, 917350, Note_off_c, 0, 75, 62
1, 917391, Note_on_c, 0, 64, 103
1, 917394, Note_on_c, 0, 58, 89
1, 917394, Note_on_c, 0, 73, 101
1, 917395, Note_on_c, 0, 61, 97
1, 917397, Note_on_c, 0, 56, 81
1, 917398, Note_on_c, 0, 52, 81
1, 917400, Control_c, 0, 64, 62
1, 917415, Control_c, 0, 64, 90
1, 917430, Control_c, 0, 64, 127
1, 917432, Note_off_c, 0, 64, 70
1, 917452, Note_off_c, 0, 61, 61
1, 917476, Note_off_c, 0, 56, 66
1, 917476, Note_off_c, 0, 58, 60
1, 917489, Note_off_c, 0, 52, 63
1, 917490, Note_on_c, 0, 70, 85
1, 917547, Note_off_c, 0, 73, 49
1, 917588, Note_on_c, 0, 68, 91
1, 917619, Note_off_c, 0, 70, 60
1, 917675, Note_on_c, 0, 64, 84
1, 917682, Note_off_c, 0, 68, 62
1, 917738, Note_off_c, 0, 64, 65
1, 917779, Note_on_c, 0, 52, 90
1, 917779, Note_on_c, 0, 61, 90
1, 917783, Note_on_c, 0, 40, 83
1, 917800, Note_off_c, 0, 52, 70
1, 917808, Note_off_c, 0, 40, 66
1, 917859, Note_on_c, 0, 56, 89
1, 917861, Note_off_c, 0, 61, 60
1, 917913, Note_off_c, 0, 56, 65
1, 917970, Control_c, 0, 64, 105
1, 917985, Control_c, 0, 64, 68
1, 917989, Note_on_c, 0, 51, 95
1, 917989, Note_on_c, 0, 67, 84
1, 917993, Note_on_c, 0, 55, 84
1, 917994, Note_on_c, 0, 39, 81
1, 917995, Note_on_c, 0, 58, 78
1, 918000, Control_c, 0, 64, 0
1, 918011, Note_off_c, 0, 51, 71
1, 918023, Note_off_c, 0, 39, 66
1, 918029, Note_off_c, 0, 55, 55
1, 918044, Note_off_c, 0, 67, 61
1, 918088, Note_on_c, 0, 63, 84
1, 918106, Note_off_c, 0, 58, 0
1, 918106, Note_on_c, 0, 58, 2
1, 918107, Note_off_c, 0, 58, 59
1, 918137, Note_off_c, 0, 63, 62
1, 918191, Note_on_c, 0, 52, 94
1, 918196, Note_on_c, 0, 61, 95
1, 918197, Note_on_c, 0, 46, 83
1, 918197, Note_on_c, 0, 49, 84
1, 918199, Note_on_c, 0, 40, 69
1, 918199, Note_on_c, 0, 44, 77
1, 918207, Control_c, 0, 64, 55
1, 918214, Note_off_c, 0, 52, 71
1, 918222, Control_c, 0, 64, 80
1, 918224, Note_off_c, 0, 49, 68
1, 918226, Note_off_c, 0, 46, 67
1, 918237, Note_off_c, 0, 44, 64
1, 918237, Control_c, 0, 64, 102
1, 918247, Note_off_c, 0, 40, 63
1, 918252, Control_c, 0, 64, 127
1, 918294, Note_on_c, 0, 58, 82
1, 918325, Note_off_c, 0, 61, 60
1, 918382, Note_on_c, 0, 56, 92
1, 918405, Note_off_c, 0, 58, 60
1, 918470, Note_on_c, 0, 52, 88
1, 918472, Note_off_c, 0, 56, 64
1, 918542, Note_off_c, 0, 52, 63
1, 918578, Note_on_c, 0, 28, 86
1, 918578, Control_c, 0, 64, 114
1, 918578, Note_on_c, 0, 40, 88
1, 918580, Note_on_c, 0, 49, 85
1, 918593, Control_c, 0, 64, 72
1, 918602, Note_off_c, 0, 40, 71
1, 918606, Note_off_c, 0, 28, 67
1, 918607, Control_c, 0, 64, 0
1, 918685, Note_on_c, 0, 44, 88
1, 918688, Control_c, 0, 64, 57
1, 918700, Note_off_c, 0, 49, 63
1, 918703, Control_c, 0, 64, 67
1, 918718, Control_c, 0, 64, 71
1, 918733, Control_c, 0, 64, 74
1, 918763, Control_c, 0, 64, 69
1, 918778, Control_c, 0, 64, 0
1, 918803, Note_on_c, 0, 39, 95
1, 918805, Note_on_c, 0, 43, 83
1, 918805, Note_on_c, 0, 51, 94
1, 918806, Note_on_c, 0, 27, 94
1, 918814, Note_off_c, 0, 44, 61
1, 918824, Note_off_c, 0, 39, 71
1, 918830, Note_off_c, 0, 43, 66
1, 918832, Note_off_c, 0, 27, 69
1, 918835, Note_off_c, 0, 51, 64
1, 919085, Note_on_c, 0, 27, 94
1, 919118, Control_c, 0, 64, 69
1, 919133, Control_c, 0, 64, 93
1, 919135, Note_off_c, 0, 27, 64
1, 919147, Control_c, 0, 64, 127
1, 919467, Control_c, 0, 64, 97
1, 919482, Control_c, 0, 64, 76
1, 919497, Control_c, 0, 64, 0
1, 920032, Note_on_c, 0, 51, 83
1, 920057, Note_off_c, 0, 51, 68
1, 920378, Note_on_c, 0, 51, 88
1, 920586, Control_c, 0, 64, 57
1, 920601, Control_c, 0, 64, 65
1, 920616, Control_c, 0, 64, 68
1, 920631, Control_c, 0, 64, 70
1, 920646, Control_c, 0, 64, 72
1, 920658, Note_on_c, 0, 63, 88
1, 920660, Control_c, 0, 64, 76
1, 920675, Control_c, 0, 64, 79
1, 920676, Note_off_c, 0, 51, 67
1, 920690, Control_c, 0, 64, 81
1, 920704, Control_c, 0, 64, 84
1, 920708, Note_off_c, 0, 63, 64
1, 920719, Control_c, 0, 64, 86
1, 920734, Control_c, 0, 64, 87
1, 920749, Control_c, 0, 64, 87
1, 920764, Control_c, 0, 64, 89
1, 920778, Control_c, 0, 64, 91
1, 920793, Control_c, 0, 64, 93
1, 920808, Control_c, 0, 64, 94
1, 920883, Control_c, 0, 64, 93
1, 920921, Control_c, 0, 64, 89
1, 920935, Control_c, 0, 64, 78
1, 920950, Control_c, 0, 64, 64
1, 920965, Control_c, 0, 64, 0
1, 921083, Note_on_c, 0, 58, 86
1, 921186, Note_off_c, 0, 58, 64
1, 921188, Note_on_c, 0, 60, 78
1, 921188, Note_on_c, 0, 61, 78
1, 921247, Note_off_c, 0, 61, 61
1, 921271, Note_on_c, 0, 58, 86
1, 921276, Note_off_c, 0, 60, 66
1, 921292, Note_off_c, 0, 58, 69
1, 921321, Control_c, 0, 67, 8
1, 921335, Control_c, 0, 67, 15
1, 921350, Control_c, 0, 67, 19
1, 921365, Control_c, 0, 67, 24
1, 921380, Control_c, 0, 67, 28
1, 921395, Control_c, 0, 67, 29
1, 921402, Note_on_c, 0, 72, 53
1, 921408, Note_on_c, 0, 56, 44
1, 921455, Note_off_c, 0, 72, 56
1, 921520, Note_on_c, 0, 84, 47
1, 921547, Note_off_c, 0, 84, 54
1, 921549, Note_off_c, 0, 56, 54
1, 921572, Control_c, 0, 67, 29
1, 921587, Control_c, 0, 67, 30
1, 921601, Note_on_c, 0, 51, 36
1, 921610, Note_on_c, 0, 82, 63
1, 921616, Control_c, 0, 67, 31
1, 921631, Control_c, 0, 67, 34
1, 921637, Note_off_c, 0, 82, 67
1, 921646, Control_c, 0, 67, 37
1, 921668, Control_c, 0, 67, 39
1, 921684, Control_c, 0, 67, 40
1, 921699, Control_c, 0, 67, 42
1, 921713, Note_on_c, 0, 80, 62
1, 921714, Control_c, 0, 67, 45
1, 921729, Control_c, 0, 67, 49
1, 921741, Note_off_c, 0, 80, 63
1, 921744, Control_c, 0, 67, 51
1, 921758, Control_c, 0, 67, 52
1, 921768, Note_off_c, 0, 51, 45
1, 921803, Control_c, 0, 67, 52
1, 921811, Note_on_c, 0, 79, 66
1, 921833, Note_off_c, 0, 79, 65
1, 921877, Control_c, 0, 67, 52
1, 921911, Note_on_c, 0, 77, 60
1, 921938, Note_off_c, 0, 77, 67
1, 921950, Control_c, 0, 67, 51
1, 921965, Control_c, 0, 67, 51
1, 921980, Control_c, 0, 67, 50
1, 922008, Note_on_c, 0, 51, 54
1, 922010, Control_c, 0, 67, 50
1, 922021, Note_on_c, 0, 75, 56
1, 922024, Control_c, 0, 67, 49
1, 922039, Control_c, 0, 67, 49
1, 922047, Note_off_c, 0, 75, 66
1, 922054, Control_c, 0, 67, 48
1, 922069, Control_c, 0, 67, 48
1, 922084, Control_c, 0, 67, 47
1, 922099, Control_c, 0, 67, 46
1, 922113, Control_c, 0, 67, 46
1, 922128, Control_c, 0, 67, 45
1, 922143, Note_on_c, 0, 72, 10
1, 922143, Control_c, 0, 67, 45
1, 922158, Control_c, 0, 67, 44
1, 922187, Note_off_c, 0, 72, 28
1, 922188, Control_c, 0, 67, 43
1, 922203, Control_c, 0, 67, 43
1, 922218, Control_c, 0, 67, 42
1, 922224, Note_on_c, 0, 67, 58
1, 922230, Note_on_c, 0, 69, 57
1, 922247, Control_c, 0, 67, 41
1, 922276, Control_c, 0, 67, 41
1, 922304, Note_off_c, 0, 69, 55
1, 922306, Control_c, 0, 67, 40
1, 922307, Note_off_c, 0, 67, 37
1, 922318, Note_on_c, 0, 70, 74
1, 922321, Control_c, 0, 67, 40
1, 922343, Note_off_c, 0, 70, 69
1, 922350, Control_c, 0, 67, 39
1, 922365, Control_c, 0, 67, 39
1, 922380, Control_c, 0, 67, 37
1, 922403, Control_c, 0, 67, 35
1, 922409, Note_off_c, 0, 51, 57
1, 922418, Control_c, 0, 67, 33
1, 922428, Note_on_c, 0, 63, 61
1, 922429, Note_on_c, 0, 67, 64
1, 922432, Control_c, 0, 67, 30
1, 922432, Note_on_c, 0, 77, 70
1, 922444, Note_on_c, 0, 70, 57
1, 922447, Control_c, 0, 67, 29
1, 922462, Control_c, 0, 67, 27
1, 922477, Control_c, 0, 67, 25
1, 922482, Note_off_c, 0, 67, 52
1, 922485, Note_off_c, 0, 70, 56
1, 922492, Control_c, 0, 67, 21
1, 922507, Control_c, 0, 67, 17
1, 922522, Control_c, 0, 67, 15
1, 922529, Note_on_c, 0, 75, 76
1, 922537, Control_c, 0, 64, 26
1, 922537, Control_c, 0, 67, 13
1, 922547, Note_off_c, 0, 63, 51
1, 922551, Note_off_c, 0, 77, 59
1, 922552, Control_c, 0, 64, 38
1, 922552, Control_c, 0, 67, 12
1, 922567, Control_c, 0, 64, 43
1, 922567, Control_c, 0, 67, 10
1, 922573, Note_off_c, 0, 75, 56
1, 922581, Control_c, 0, 64, 44
1, 922581, Control_c, 0, 67, 8
1, 922596, Control_c, 0, 64, 42
1, 922596, Control_c, 0, 67, 8
1, 922611, Control_c, 0, 64, 0
1, 922611, Control_c, 0, 67, 0
1, 922618, Note_on_c, 0, 70, 72
1, 922629, Note_on_c, 0, 67, 58
1, 922635, Note_on_c, 0, 74, 65
1, 922660, Note_off_c, 0, 67, 53
1, 922667, Note_off_c, 0, 74, 59
1, 922716, Note_off_c, 0, 70, 61
1, 922722, Note_on_c, 0, 58, 71
1, 922722, Note_on_c, 0, 75, 76
1, 922755, Note_off_c, 0, 75, 61
1, 922759, Control_c, 0, 64, 23
1, 922774, Control_c, 0, 64, 57
1, 922788, Control_c, 0, 64, 64
1, 922788, Control_c, 0, 67, 8
1, 922803, Control_c, 0, 64, 67
1, 922806, Note_off_c, 0, 58, 62
1, 922809, Note_on_c, 0, 61, 75
1, 922818, Control_c, 0, 64, 70
1, 922818, Control_c, 0, 67, 8
1, 922822, Note_on_c, 0, 70, 79
1, 922825, Note_on_c, 0, 60, 68
1, 922828, Note_on_c, 0, 80, 76
1, 922833, Control_c, 0, 64, 72
1, 922847, Control_c, 0, 64, 73
1, 922862, Note_off_c, 0, 61, 57
1, 922862, Control_c, 0, 64, 74
1, 922873, Note_off_c, 0, 70, 63
1, 922877, Control_c, 0, 64, 74
1, 922886, Note_off_c, 0, 60, 65
1, 922889, Note_off_c, 0, 80, 60
1, 922892, Control_c, 0, 67, 9
1, 922894, Note_on_c, 0, 58, 66
1, 922906, Control_c, 0, 64, 73
1, 922918, Note_off_c, 0, 58, 66
1, 922920, Note_on_c, 0, 79, 77
1, 922921, Control_c, 0, 64, 72
1, 922936, Control_c, 0, 64, 69
1, 922951, Control_c, 0, 64, 65
1, 922957, Note_off_c, 0, 79, 59
1, 922966, Control_c, 0, 64, 61
1, 922966, Control_c, 0, 67, 9
1, 922981, Control_c, 0, 64, 52
1, 922996, Control_c, 0, 64, 11
1, 923011, Control_c, 0, 64, 0
1, 923011, Control_c, 0, 67, 10
1, 923020, Note_on_c, 0, 56, 53
1, 923030, Note_on_c, 0, 72, 51
1, 923036, Note_on_c, 0, 80, 67
1, 923041, Control_c, 0, 67, 11
1, 923055, Note_off_c, 0, 72, 56
1, 923099, Control_c, 0, 67, 11
1, 923103, Note_off_c, 0, 80, 62
1, 923150, Note_on_c, 0, 87, 81
1, 923178, Note_off_c, 0, 87, 60
1, 923195, Note_off_c, 0, 56, 55
1, 923233, Note_on_c, 0, 51, 54
1, 923247, Note_on_c, 0, 85, 87
1, 923272, Note_off_c, 0, 51, 65
1, 923282, Note_off_c, 0, 85, 63
1, 923300, Control_c, 0, 67, 11
1, 923342, Note_on_c, 0, 84, 88
1, 923359, Control_c, 0, 67, 10
1, 923372, Note_off_c, 0, 84, 65
1, 923374, Control_c, 0, 67, 10
1, 923434, Note_on_c, 0, 82, 90
1, 923465, Note_off_c, 0, 82, 66
1, 923537, Note_on_c, 0, 80, 73
1, 923558, Note_off_c, 0, 80, 70
1, 923582, Control_c, 0, 67, 9
1, 923622, Note_on_c, 0, 56, 61
1, 923626, Control_c, 0, 67, 10
1, 923634, Note_on_c, 0, 78, 77
1, 923641, Control_c, 0, 67, 12
1, 923655, Note_off_c, 0, 78, 70
1, 923656, Control_c, 0, 67, 13
1, 923671, Control_c, 0, 67, 14
1, 923685, Control_c, 0, 67, 15
1, 923700, Control_c, 0, 67, 16
1, 923715, Control_c, 0, 67, 18
1, 923724, Note_on_c, 0, 76, 78
1, 923729, Control_c, 0, 67, 19
1, 923744, Control_c, 0, 67, 19
1, 923746, Note_off_c, 0, 76, 70
1, 923759, Control_c, 0, 67, 20
1, 923775, Control_c, 0, 67, 22
1, 923790, Control_c, 0, 67, 23
1, 923804, Control_c, 0, 67, 23
1, 923837, Note_on_c, 0, 74, 73
1, 923838, Note_on_c, 0, 72, 61
1, 923848, Control_c, 0, 67, 23
1, 923878, Control_c, 0, 67, 22
1, 923916, Control_c, 0, 67, 21
1, 923920, Note_off_c, 0, 74, 61
1, 923930, Control_c, 0, 67, 21
1, 923931, Note_off_c, 0, 72, 41
1, 923944, Note_on_c, 0, 75, 60
1, 923945, Control_c, 0, 67, 20
1, 923960, Control_c, 0, 67, 19
1, 923975, Control_c, 0, 67, 19
1, 923977, Note_off_c, 0, 75, 64
1, 924004, Control_c, 0, 64, 44
1, 924004, Control_c, 0, 67, 18
1, 924019, Control_c, 0, 64, 56
1, 924019, Control_c, 0, 67, 18
1, 924025, Note_off_c, 0, 56, 58
1, 924034, Control_c, 0, 64, 61
1, 924048, Note_on_c, 0, 72, 65
1, 924048, Control_c, 0, 64, 63
1, 924050, Note_on_c, 0, 68, 72
1, 924051, Note_on_c, 0, 81, 75
1, 924063, Control_c, 0, 64, 61
1, 924069, Note_on_c, 0, 75, 60
1, 924080, Control_c, 0, 64, 56
1, 924095, Control_c, 0, 64, 45
1, 924109, Control_c, 0, 64, 24
1, 924112, Note_off_c, 0, 72, 56
1, 924124, Control_c, 0, 64, 14
1, 924124, Control_c, 0, 67, 17
1, 924139, Control_c, 0, 64, 21
1, 924143, Note_off_c, 0, 75, 55
1, 924148, Note_on_c, 0, 80, 76
1, 924153, Control_c, 0, 64, 35
1, 924168, Control_c, 0, 64, 46
1, 924172, Note_off_c, 0, 81, 64
1, 924183, Control_c, 0, 64, 54
1, 924198, Control_c, 0, 64, 60
1, 924209, Note_off_c, 0, 80, 60
1, 924213, Control_c, 0, 64, 63
1, 924221, Note_off_c, 0, 68, 58
1, 924227, Control_c, 0, 64, 64
1, 924235, Note_on_c, 0, 72, 67
1, 924242, Control_c, 0, 64, 61
1, 924243, Note_on_c, 0, 75, 70
1, 924243, Note_on_c, 0, 79, 71
1, 924257, Control_c, 0, 64, 51
1, 924257, Control_c, 0, 67, 17
1, 924272, Control_c, 0, 64, 0
1, 924298, Note_off_c, 0, 72, 61
1, 924304, Note_off_c, 0, 75, 62
1, 924322, Note_on_c, 0, 80, 79
1, 924331, Note_on_c, 0, 63, 76
1, 924336, Note_off_c, 0, 79, 60
1, 924356, Note_off_c, 0, 80, 63
1, 924361, Control_c, 0, 64, 38
1, 924376, Control_c, 0, 64, 56
1, 924391, Control_c, 0, 64, 61
1, 924406, Control_c, 0, 64, 63
1, 924408, Note_on_c, 0, 66, 74
1, 924421, Control_c, 0, 64, 64
1, 924423, Note_off_c, 0, 63, 54
1, 924427, Note_on_c, 0, 75, 86
1, 924432, Note_on_c, 0, 85, 82
1, 924435, Control_c, 0, 64, 66
1, 924450, Control_c, 0, 64, 67
1, 924465, Control_c, 0, 64, 68
1, 924496, Note_on_c, 0, 64, 65
1, 924498, Note_off_c, 0, 66, 58
1, 924499, Note_off_c, 0, 85, 64
1, 924500, Note_off_c, 0, 75, 62
1, 924519, Note_on_c, 0, 84, 78
1, 924549, Note_on_c, 0, 63, 64
1, 924557, Note_off_c, 0, 84, 63
1, 924558, Note_off_c, 0, 64, 65
1, 924567, Control_c, 0, 64, 66
1, 924576, Note_off_c, 0, 63, 67
1, 924582, Control_c, 0, 64, 57
1, 924597, Control_c, 0, 64, 0
1, 924625, Note_on_c, 0, 88, 95
1, 924628, Note_on_c, 0, 76, 88
1, 924633, Note_on_c, 0, 63, 85
1, 924641, Control_c, 0, 67, 17
1, 924659, Note_on_c, 0, 80, 55
1, 924660, Note_off_c, 0, 76, 66
1, 924681, Note_off_c, 0, 80, 56
1, 924691, Note_off_c, 0, 88, 59
1, 924731, Note_on_c, 0, 61, 79
1, 924734, Note_off_c, 0, 63, 63
1, 924782, Note_off_c, 0, 61, 62
1, 924838, Note_on_c, 0, 87, 87
1, 924840, Note_on_c, 0, 61, 75
1, 924840, Note_on_c, 0, 75, 83
1, 924868, Note_off_c, 0, 87, 63
1, 924874, Note_off_c, 0, 75, 63
1, 924943, Note_on_c, 0, 59, 78
1, 924944, Note_off_c, 0, 61, 64
1, 924987, Note_off_c, 0, 59, 66
1, 925047, Note_on_c, 0, 67, 75
1, 925047, Note_on_c, 0, 79, 80
1, 925049, Note_on_c, 0, 59, 83
1, 925064, Note_on_c, 0, 73, 54
1, 925076, Note_off_c, 0, 67, 63
1, 925086, Note_off_c, 0, 73, 61
1, 925089, Note_off_c, 0, 79, 62
1, 925135, Note_on_c, 0, 58, 89
1, 925144, Note_off_c, 0, 59, 59
1, 925185, Note_off_c, 0, 58, 63
1, 925244, Note_on_c, 0, 58, 80
1, 925250, Note_on_c, 0, 80, 77
1, 925252, Note_on_c, 0, 68, 72
1, 925257, Note_on_c, 0, 71, 57
1, 925277, Note_off_c, 0, 71, 64
1, 925279, Note_off_c, 0, 68, 67
1, 925300, Note_off_c, 0, 80, 62
1, 925301, Control_c, 0, 67, 18
1, 925316, Control_c, 0, 67, 18
1, 925331, Control_c, 0, 67, 20
1, 925332, Note_off_c, 0, 58, 65
1, 925336, Note_on_c, 0, 56, 84
1, 925346, Control_c, 0, 67, 21
1, 925361, Control_c, 0, 67, 22
1, 925373, Note_off_c, 0, 56, 60
1, 925375, Control_c, 0, 67, 24
1, 925390, Control_c, 0, 67, 26
1, 925413, Control_c, 0, 67, 33
1, 925428, Control_c, 0, 67, 45
1, 925443, Control_c, 0, 67, 51
1, 925446, Note_on_c, 0, 56, 83
1, 925452, Note_on_c, 0, 82, 80
1, 925455, Note_on_c, 0, 70, 75
1, 925457, Control_c, 0, 67, 54
1, 925466, Note_on_c, 0, 75, 52
1, 925472, Control_c, 0, 67, 55
1, 925479, Note_off_c, 0, 70, 64
1, 925489, Note_off_c, 0, 75, 60
1, 925504, Note_off_c, 0, 82, 62
1, 925527, Note_off_c, 0, 56, 53
1, 925538, Note_on_c, 0, 54, 78
1, 925575, Control_c, 0, 67, 54
1, 925590, Control_c, 0, 67, 54
1, 925605, Control_c, 0, 67, 53
1, 925620, Control_c, 0, 67, 53
1, 925635, Control_c, 0, 67, 52
1, 925656, Note_on_c, 0, 71, 77
1, 925658, Note_on_c, 0, 83, 76
1, 925660, Note_on_c, 0, 80, 73
1, 925663, Note_on_c, 0, 52, 77
1, 925665, Note_off_c, 0, 54, 65
1, 925679, Note_off_c, 0, 71, 70
1, 925680, Control_c, 0, 67, 52
1, 925700, Note_off_c, 0, 83, 66
1, 925711, Note_off_c, 0, 80, 55
1, 925729, Note_off_c, 0, 52, 61
1, 925838, Note_on_c, 0, 72, 78
1, 925840, Note_on_c, 0, 84, 84
1, 925851, Note_on_c, 0, 78, 60
1, 925854, Note_on_c, 0, 52, 75
1, 925866, Note_off_c, 0, 72, 64
1, 925869, Note_off_c, 0, 78, 65
1, 925882, Note_off_c, 0, 84, 65
1, 925941, Note_on_c, 0, 51, 80
1, 925944, Note_off_c, 0, 52, 63
1, 925982, Note_off_c, 0, 51, 61
1, 926006, Control_c, 0, 67, 51
1, 926035, Note_on_c, 0, 51, 73
1, 926036, Control_c, 0, 67, 51
1, 926042, Note_on_c, 0, 73, 82
1, 926044, Note_on_c, 0, 85, 87
1, 926063, Note_off_c, 0, 73, 69
1, 926080, Control_c, 0, 67, 50
1, 926097, Note_off_c, 0, 85, 63
1, 926137, Note_off_c, 0, 51, 60
1, 926138, Note_on_c, 0, 49, 71
1, 926162, Control_c, 0, 67, 51
1, 926180, Note_off_c, 0, 49, 65
1, 926221, Control_c, 0, 67, 50
1, 926236, Control_c, 0, 67, 50
1, 926245, Note_on_c, 0, 49, 72
1, 926250, Control_c, 0, 67, 49
1, 926257, Note_on_c, 0, 87, 84
1, 926265, Control_c, 0, 67, 49
1, 926266, Note_on_c, 0, 75, 63
1, 926272, Note_on_c, 0, 80, 69
1, 926280, Control_c, 0, 67, 48
1, 926284, Note_off_c, 0, 75, 65
1, 926294, Note_off_c, 0, 80, 69
1, 926295, Control_c, 0, 64, 53
1, 926307, Note_off_c, 0, 87, 64
1, 926310, Control_c, 0, 64, 64
1, 926317, Note_off_c, 0, 49, 62
1, 926324, Control_c, 0, 64, 66
1, 926324, Control_c, 0, 67, 48
1, 926326, Note_on_c, 0, 47, 60
1, 926339, Control_c, 0, 64, 64
1, 926353, Note_off_c, 0, 47, 66
1, 926354, Control_c, 0, 64, 44
1, 926369, Control_c, 0, 64, 0
1, 926489, Control_c, 0, 67, 47
1, 926518, Control_c, 0, 67, 47
1, 926547, Control_c, 0, 67, 46
1, 926577, Control_c, 0, 67, 47
1, 926607, Control_c, 0, 67, 47
1, 926678, Note_on_c, 0, 87, 81
1, 926680, Note_on_c, 0, 75, 69
1, 926691, Note_on_c, 0, 46, 50
1, 926695, Control_c, 0, 67, 46
1, 926698, Note_on_c, 0, 83, 56
1, 926704, Note_off_c, 0, 75, 66
1, 926710, Control_c, 0, 67, 36
1, 926713, Note_off_c, 0, 87, 66
1, 926725, Control_c, 0, 64, 36
1, 926725, Control_c, 0, 67, 0
1, 926726, Note_off_c, 0, 83, 67
1, 926740, Control_c, 0, 64, 63
1, 926746, Note_off_c, 0, 46, 61
1, 926755, Control_c, 0, 64, 67
1, 926765, Note_on_c, 0, 44, 58
1, 926770, Control_c, 0, 64, 68
1, 926785, Control_c, 0, 64, 69
1, 926795, Note_off_c, 0, 44, 64
1, 926800, Control_c, 0, 64, 68
1, 926814, Control_c, 0, 64, 64
1, 926829, Control_c, 0, 64, 0
1, 927136, Note_on_c, 0, 87, 81
1, 927148, Note_on_c, 0, 75, 51
1, 927149, Note_on_c, 0, 39, 53
1, 927149, Note_on_c, 0, 82, 54
1, 927168, Note_off_c, 0, 87, 67
1, 927172, Note_off_c, 0, 82, 61
1, 927172, Note_off_c, 0, 75, 59
1, 927178, Control_c, 0, 64, 65
1, 927178, Control_c, 0, 67, 11
1, 927193, Control_c, 0, 64, 71
1, 927193, Control_c, 0, 67, 13
1, 927208, Control_c, 0, 64, 74
1, 927208, Control_c, 0, 67, 15
1, 927217, Note_off_c, 0, 39, 59
1, 927223, Control_c, 0, 64, 76
1, 927224, Note_on_c, 0, 51, 66
1, 927238, Control_c, 0, 64, 77
1, 927238, Control_c, 0, 67, 14
1, 927253, Control_c, 0, 64, 78
1, 927253, Control_c, 0, 67, 14
1, 927267, Control_c, 0, 64, 79
1, 927267, Control_c, 0, 67, 13
1, 927283, Control_c, 0, 64, 80
1, 927297, Control_c, 0, 64, 81
1, 927312, Control_c, 0, 64, 83
1, 927327, Control_c, 0, 64, 83
1, 927327, Control_c, 0, 67, 13
1, 927342, Control_c, 0, 64, 84
1, 927357, Control_c, 0, 64, 84
1, 927372, Control_c, 0, 67, 12
1, 927387, Control_c, 0, 64, 85
1, 927387, Control_c, 0, 67, 12
1, 927402, Control_c, 0, 64, 86
1, 927417, Control_c, 0, 64, 87
1, 927431, Control_c, 0, 64, 87
1, 927431, Control_c, 0, 67, 11
1, 927446, Control_c, 0, 64, 88
1, 927461, Control_c, 0, 64, 89
1, 927476, Control_c, 0, 64, 91
1, 927490, Control_c, 0, 64, 93
1, 927505, Control_c, 0, 64, 95
1, 927520, Control_c, 0, 64, 96
1, 927535, Control_c, 0, 64, 96
1, 927550, Control_c, 0, 64, 97
1, 927565, Control_c, 0, 64, 99
1, 927579, Control_c, 0, 64, 101
1, 927594, Control_c, 0, 64, 104
1, 927609, Control_c, 0, 64, 108
1, 927624, Control_c, 0, 64, 111
1, 927624, Control_c, 0, 67, 11
1, 927646, Control_c, 0, 64, 116
1, 927649, Note_on_c, 0, 91, 101
1, 927657, Note_on_c, 0, 79, 79
1, 927661, Control_c, 0, 64, 127
1, 927661, Control_c, 0, 67, 10
1, 927661, Note_on_c, 0, 87, 78
1, 927673, Note_off_c, 0, 79, 69
1, 927676, Control_c, 0, 67, 9
1, 927682, Note_off_c, 0, 87, 72
1, 927688, Note_off_c, 0, 91, 68
1, 927691, Control_c, 0, 67, 0
1, 927735, Note_on_c, 0, 63, 92
1, 927762, Note_off_c, 0, 51, 65
1, 927765, Note_off_c, 0, 63, 60
1, 928016, Control_c, 0, 64, 118
1, 928031, Control_c, 0, 64, 104
1, 928045, Control_c, 0, 64, 91
1, 928060, Control_c, 0, 64, 79
1, 928076, Control_c, 0, 64, 66
1, 928091, Control_c, 0, 64, 0
1, 928180, Note_on_c, 0, 87, 96
1, 928183, Note_on_c, 0, 75, 66
1, 928189, Note_on_c, 0, 70, 64
1, 928190, Note_on_c, 0, 67, 59
1, 928193, Note_on_c, 0, 79, 76
1, 928239, Control_c, 0, 64, 58
1, 928254, Control_c, 0, 64, 66
1, 928257, Note_off_c, 0, 79, 54
1, 928268, Control_c, 0, 64, 70
1, 928283, Control_c, 0, 64, 73
1, 928293, Note_on_c, 0, 85, 94
1, 928298, Control_c, 0, 64, 76
1, 928313, Control_c, 0, 64, 80
1, 928314, Note_off_c, 0, 87, 62
1, 928327, Control_c, 0, 64, 85
1, 928336, Note_off_c, 0, 75, 62
1, 928342, Control_c, 0, 64, 89
1, 928349, Note_off_c, 0, 85, 65
1, 928357, Control_c, 0, 64, 92
1, 928372, Control_c, 0, 64, 95
1, 928387, Control_c, 0, 64, 99
1, 928397, Note_on_c, 0, 82, 101
1, 928409, Control_c, 0, 64, 104
1, 928424, Control_c, 0, 64, 108
1, 928438, Note_off_c, 0, 70, 58
1, 928439, Control_c, 0, 64, 111
1, 928445, Note_off_c, 0, 67, 59
1, 928445, Note_off_c, 0, 82, 67
1, 928453, Control_c, 0, 64, 114
1, 928468, Control_c, 0, 64, 116
1, 928483, Control_c, 0, 64, 118
1, 928490, Note_on_c, 0, 79, 94
1, 928498, Control_c, 0, 64, 119
1, 928528, Note_off_c, 0, 79, 66
1, 928599, Note_on_c, 0, 75, 90
1, 928645, Note_off_c, 0, 75, 62
1, 928690, Note_on_c, 0, 70, 91
1, 928719, Control_c, 0, 64, 117
1, 928734, Control_c, 0, 64, 109
1, 928740, Note_off_c, 0, 70, 64
1, 928749, Control_c, 0, 64, 102
1, 928764, Control_c, 0, 64, 94
1, 928777, Note_on_c, 0, 73, 84
1, 928779, Control_c, 0, 64, 87
1, 928794, Control_c, 0, 64, 74
1, 928803, Note_on_c, 0, 71, 83
1, 928809, Control_c, 0, 64, 0
1, 928868, Note_off_c, 0, 73, 59
1, 928892, Note_on_c, 0, 70, 82
1, 928895, Note_off_c, 0, 71, 65
1, 928967, Note_off_c, 0, 70, 61
1, 929005, Note_on_c, 0, 68, 73
1, 929018, Note_on_c, 0, 56, 48
1, 929091, Note_off_c, 0, 56, 58
1, 929113, Note_on_c, 0, 59, 74
1, 929180, Note_off_c, 0, 59, 60
1, 929221, Note_off_c, 0, 68, 55
1, 929223, Note_on_c, 0, 63, 81
1, 929229, Note_on_c, 0, 58, 84
1, 929253, Note_off_c, 0, 63, 64
1, 929271, Note_off_c, 0, 58, 60
1, 929326, Note_on_c, 0, 56, 89
1, 929372, Note_off_c, 0, 56, 62
1, 929427, Note_on_c, 0, 54, 76
1, 929455, Note_off_c, 0, 54, 69
1, 929527, Note_on_c, 0, 52, 74
1, 929561, Note_off_c, 0, 52, 61
1, 929640, Note_on_c, 0, 51, 66
1, 929642, Note_on_c, 0, 63, 78
1, 929677, Note_off_c, 0, 51, 64
1, 929751, Note_on_c, 0, 49, 72
1, 929787, Note_off_c, 0, 49, 64
1, 929893, Note_on_c, 0, 45, 80
1, 930007, Note_on_c, 0, 46, 74
1, 930044, Note_off_c, 0, 45, 61
1, 930071, Note_off_c, 0, 63, 60
1, 930111, Note_on_c, 0, 75, 75
1, 930117, Note_on_c, 0, 55, 66
1, 930135, Note_off_c, 0, 46, 57
1, 930159, Control_c, 0, 64, 11
1, 930168, Note_off_c, 0, 55, 62
1, 930174, Control_c, 0, 64, 29
1, 930189, Control_c, 0, 64, 30
1, 930217, Note_on_c, 0, 51, 78
1, 930218, Control_c, 0, 64, 26
1, 930233, Control_c, 0, 64, 0
1, 930266, Note_off_c, 0, 51, 62
1, 930320, Note_on_c, 0, 51, 82
1, 930368, Note_off_c, 0, 75, 46
1, 930421, Note_on_c, 0, 52, 70
1, 930424, Note_on_c, 0, 70, 87
1, 930463, Note_off_c, 0, 51, 60
1, 930489, Note_off_c, 0, 70, 63
1, 930518, Note_on_c, 0, 73, 90
1, 930525, Note_on_c, 0, 61, 64
1, 930575, Control_c, 0, 64, 28
1, 930577, Note_off_c, 0, 52, 57
1, 930589, Control_c, 0, 64, 60
1, 930591, Note_off_c, 0, 73, 61
1, 930603, Note_off_c, 0, 61, 60
1, 930604, Control_c, 0, 64, 65
1, 930606, Note_on_c, 0, 72, 33
1, 930615, Note_on_c, 0, 55, 57
1, 930617, Note_on_c, 0, 70, 81
1, 930619, Control_c, 0, 64, 66
1, 930643, Note_off_c, 0, 72, 50
1, 930657, Control_c, 0, 64, 66
1, 930660, Note_off_c, 0, 70, 63
1, 930671, Control_c, 0, 64, 65
1, 930686, Control_c, 0, 64, 65
1, 930701, Control_c, 0, 64, 63
1, 930716, Control_c, 0, 64, 61
1, 930728, Note_off_c, 0, 55, 62
1, 930730, Control_c, 0, 64, 56
1, 930739, Note_on_c, 0, 53, 79
1, 930743, Note_on_c, 0, 69, 78
1, 930745, Control_c, 0, 64, 51
1, 930760, Control_c, 0, 64, 47
1, 930775, Control_c, 0, 64, 39
1, 930789, Control_c, 0, 64, 0
1, 930852, Note_on_c, 0, 66, 93
1, 930852, Note_off_c, 0, 53, 62
1, 930904, Note_off_c, 0, 66, 63
1, 930919, Note_off_c, 0, 69, 63
1, 930942, Note_on_c, 0, 65, 85
1, 930964, Note_off_c, 0, 65, 69
1, 931044, Note_on_c, 0, 63, 78
1, 931084, Note_off_c, 0, 63, 56
1, 931155, Note_on_c, 0, 61, 63
1, 931182, Note_off_c, 0, 61, 65
1, 931248, Note_on_c, 0, 60, 64
1, 931280, Note_off_c, 0, 60, 62
1, 931361, Note_on_c, 0, 65, 80
1, 931370, Note_on_c, 0, 58, 65
1, 931427, Note_off_c, 0, 58, 58
1, 931475, Note_on_c, 0, 57, 64
1, 931502, Note_off_c, 0, 57, 65
1, 931583, Note_on_c, 0, 52, 72
1, 931670, Control_c, 0, 64, 49
1, 931682, Note_off_c, 0, 52, 59
1, 931685, Control_c, 0, 64, 62
1, 931688, Note_on_c, 0, 53, 64
1, 931700, Control_c, 0, 64, 65
1, 931715, Control_c, 0, 64, 67
1, 931730, Control_c, 0, 64, 67
1, 931744, Control_c, 0, 64, 68
1, 931772, Note_off_c, 0, 53, 63
1, 931789, Control_c, 0, 64, 68
1, 931793, Note_off_c, 0, 65, 54
1, 931804, Control_c, 0, 64, 69
1, 931810, Note_on_c, 0, 77, 69
1, 931812, Note_on_c, 0, 60, 43
1, 931863, Control_c, 0, 64, 69
1, 931867, Note_off_c, 0, 60, 60
1, 931917, Note_on_c, 0, 57, 54
1, 931937, Control_c, 0, 64, 70
1, 931982, Control_c, 0, 64, 67
1, 931996, Control_c, 0, 64, 0
1, 932016, Note_off_c, 0, 57, 59
1, 932029, Note_on_c, 0, 52, 70
1, 932107, Note_off_c, 0, 77, 52
1, 932132, Note_on_c, 0, 72, 77
1, 932132, Note_on_c, 0, 53, 60
1, 932150, Note_off_c, 0, 52, 59
1, 932175, Note_off_c, 0, 72, 63
1, 932228, Control_c, 0, 64, 23
1, 932237, Note_on_c, 0, 75, 78
1, 932239, Note_on_c, 0, 63, 60
1, 932242, Control_c, 0, 64, 56
1, 932249, Note_off_c, 0, 53, 60
1, 932254, Note_on_c, 0, 73, 79
1, 932255, Note_off_c, 0, 75, 72
1, 932257, Control_c, 0, 64, 63
1, 932272, Control_c, 0, 64, 65
1, 932275, Note_off_c, 0, 73, 71
1, 932286, Control_c, 0, 64, 66
1, 932298, Note_off_c, 0, 63, 59
1, 932301, Control_c, 0, 64, 67
1, 932316, Control_c, 0, 64, 67
1, 932331, Note_on_c, 0, 57, 53
1, 932344, Note_on_c, 0, 72, 85
1, 932360, Control_c, 0, 64, 67
1, 932375, Control_c, 0, 64, 66
1, 932380, Note_off_c, 0, 72, 64
1, 932390, Control_c, 0, 64, 65
1, 932405, Control_c, 0, 64, 56
1, 932420, Control_c, 0, 64, 0
1, 932460, Note_off_c, 0, 57, 29
1, 932473, Note_on_c, 0, 71, 91
1, 932477, Note_on_c, 0, 52, 64
1, 932587, Note_on_c, 0, 53, 71
1, 932615, Note_off_c, 0, 52, 62
1, 932642, Control_c, 0, 64, 36
1, 932657, Control_c, 0, 64, 62
1, 932672, Control_c, 0, 64, 68
1, 932686, Control_c, 0, 64, 70
1, 932701, Control_c, 0, 64, 70
1, 932716, Control_c, 0, 64, 72
1, 932731, Control_c, 0, 64, 74
1, 932740, Note_off_c, 0, 53, 56
1, 932745, Note_on_c, 0, 83, 95
1, 932746, Control_c, 0, 64, 77
1, 932752, Note_on_c, 0, 61, 67
1, 932758, Note_off_c, 0, 71, 41
1, 932761, Control_c, 0, 64, 78
1, 932776, Control_c, 0, 64, 80
1, 932791, Control_c, 0, 64, 82
1, 932806, Control_c, 0, 64, 84
1, 932820, Control_c, 0, 64, 85
1, 932824, Note_off_c, 0, 61, 61
1, 932835, Control_c, 0, 64, 87
1, 932850, Control_c, 0, 64, 89
1, 932860, Note_on_c, 0, 56, 81
1, 932866, Control_c, 0, 64, 92
1, 932881, Control_c, 0, 64, 94
1, 932903, Control_c, 0, 64, 97
1, 932917, Control_c, 0, 64, 98
1, 932925, Note_off_c, 0, 56, 63
1, 932932, Control_c, 0, 64, 99
1, 932947, Control_c, 0, 64, 100
1, 932973, Note_on_c, 0, 50, 91
1, 932977, Control_c, 0, 64, 97
1, 932991, Control_c, 0, 64, 77
1, 933006, Control_c, 0, 64, 0
1, 933036, Control_c, 0, 64, 11
1, 933050, Control_c, 0, 64, 53
1, 933065, Control_c, 0, 64, 64
1, 933071, Note_on_c, 0, 54, 64
1, 933077, Note_on_c, 0, 59, 75
1, 933080, Note_on_c, 0, 78, 92
1, 933080, Control_c, 0, 64, 71
1, 933083, Note_off_c, 0, 50, 63
1, 933095, Control_c, 0, 64, 76
1, 933110, Control_c, 0, 64, 82
1, 933111, Note_off_c, 0, 83, 58
1, 933125, Control_c, 0, 64, 86
1, 933140, Control_c, 0, 64, 90
1, 933155, Control_c, 0, 64, 94
1, 933156, Note_off_c, 0, 54, 0
1, 933170, Control_c, 0, 64, 96
1, 933174, Note_on_c, 0, 54, 51
1, 933177, Note_on_c, 0, 50, 65
1, 933177, Note_on_c, 0, 81, 92
1, 933179, Note_off_c, 0, 59, 60
1, 933181, Note_off_c, 0, 78, 62
1, 933184, Control_c, 0, 64, 99
1, 933199, Control_c, 0, 64, 102
1, 933203, Note_off_c, 0, 54, 67
1, 933205, Note_on_c, 0, 53, 80
1, 933207, Note_off_c, 0, 50, 69
1, 933212, Note_on_c, 0, 80, 73
1, 933214, Control_c, 0, 64, 106
1, 933229, Control_c, 0, 64, 112
1, 933243, Control_c, 0, 64, 117
1, 933249, Note_on_c, 0, 56, 85
1, 933258, Control_c, 0, 64, 118
1, 933273, Control_c, 0, 64, 119
1, 933288, Control_c, 0, 64, 120
1, 933303, Control_c, 0, 64, 127
1, 933307, Note_on_c, 0, 78, 72
1, 933320, Note_on_c, 0, 49, 83
1, 933325, Note_off_c, 0, 81, 0
1, 933343, Note_on_c, 0, 81, 34
1, 933364, Note_off_c, 0, 78, 61
1, 933377, Control_c, 0, 64, 115
1, 933380, Note_off_c, 0, 80, 59
1, 933391, Control_c, 0, 64, 83
1, 933402, Note_off_c, 0, 81, 58
1, 933406, Control_c, 0, 64, 0
1, 933416, Note_off_c, 0, 53, 64
1, 933420, Note_on_c, 0, 59, 94
1, 933420, Note_on_c, 0, 77, 99
1, 933444, Note_off_c, 0, 56, 63
1, 933467, Note_off_c, 0, 49, 62
1, 933480, Control_c, 0, 64, 40
1, 933495, Control_c, 0, 64, 64
1, 933509, Control_c, 0, 64, 69
1, 933524, Control_c, 0, 64, 72
1, 933532, Note_off_c, 0, 77, 65
1, 933539, Control_c, 0, 64, 73
1, 933554, Control_c, 0, 64, 75
1, 933569, Control_c, 0, 64, 78
1, 933579, Note_on_c, 0, 62, 82
1, 933581, Note_on_c, 0, 86, 105
1, 933584, Control_c, 0, 64, 81
1, 933587, Note_on_c, 0, 74, 86
1, 933599, Control_c, 0, 64, 83
1, 933605, Note_off_c, 0, 59, 60
1, 933610, Note_off_c, 0, 74, 69
1, 933614, Control_c, 0, 64, 85
1, 933629, Control_c, 0, 64, 85
1, 933638, Note_off_c, 0, 86, 65
1, 933666, Control_c, 0, 64, 86
1, 933698, Note_off_c, 0, 62, 52
1, 933708, Note_on_c, 0, 61, 78
1, 933715, Note_on_c, 0, 73, 99
1, 933715, Note_on_c, 0, 85, 102
1, 933736, Note_off_c, 0, 61, 64
1, 933755, Control_c, 0, 64, 86
1, 933756, Note_off_c, 0, 73, 63
1, 933763, Note_off_c, 0, 85, 62
1, 933785, Control_c, 0, 64, 87
1, 933800, Control_c, 0, 64, 87
1, 933813, Note_on_c, 0, 59, 89
1, 933814, Control_c, 0, 64, 89
1, 933822, Note_on_c, 0, 83, 100
1, 933825, Note_on_c, 0, 71, 93
1, 933829, Control_c, 0, 64, 89
1, 933844, Control_c, 0, 64, 89
1, 933848, Note_off_c, 0, 71, 66
1, 933852, Note_off_c, 0, 59, 65
1, 933858, Note_off_c, 0, 83, 63
1, 933859, Control_c, 0, 64, 84
1, 933873, Control_c, 0, 64, 75
1, 933888, Control_c, 0, 64, 63
1, 933903, Control_c, 0, 64, 48
1, 933918, Control_c, 0, 64, 63
1, 933921, Note_on_c, 0, 57, 91
1, 933930, Note_on_c, 0, 81, 93
1, 933933, Note_on_c, 0, 69, 87
1, 933933, Control_c, 0, 64, 68
1, 933939, Note_on_c, 0, 83, 84
1, 933948, Control_c, 0, 64, 76
1, 933951, Note_off_c, 0, 69, 71
1, 933951, Note_off_c, 0, 83, 70
1, 933963, Control_c, 0, 64, 84
1, 933966, Note_off_c, 0, 57, 61
1, 933976, Note_off_c, 0, 81, 63
1, 933977, Control_c, 0, 64, 88
1, 933992, Control_c, 0, 64, 83
1, 934007, Control_c, 0, 64, 72
1, 934022, Control_c, 0, 64, 54
1, 934025, Note_on_c, 0, 68, 93
1, 934028, Note_on_c, 0, 56, 89
1, 934028, Note_on_c, 0, 80, 91
1, 934037, Control_c, 0, 64, 60
1, 934051, Note_off_c, 0, 68, 66
1, 934052, Control_c, 0, 64, 68
1, 934061, Note_off_c, 0, 80, 56
1, 934066, Control_c, 0, 64, 72
1, 934078, Note_off_c, 0, 56, 64
1, 934081, Control_c, 0, 64, 76
1, 934096, Control_c, 0, 64, 79
1, 934126, Control_c, 0, 64, 78
1, 934131, Note_on_c, 0, 54, 80
1, 934133, Note_on_c, 0, 66, 99
1, 934134, Note_on_c, 0, 78, 96
1, 934140, Control_c, 0, 64, 79
1, 934155, Control_c, 0, 64, 83
1, 934168, Note_off_c, 0, 54, 64
1, 934170, Control_c, 0, 64, 85
1, 934171, Note_off_c, 0, 66, 64
1, 934180, Note_off_c, 0, 78, 61
1, 934185, Control_c, 0, 64, 85
1, 934200, Control_c, 0, 64, 81
1, 934214, Control_c, 0, 64, 74
1, 934229, Control_c, 0, 64, 67
1, 934240, Note_on_c, 0, 65, 99
1, 934240, Note_on_c, 0, 77, 100
1, 934243, Note_on_c, 0, 53, 91
1, 934244, Control_c, 0, 64, 70
1, 934258, Control_c, 0, 64, 73
1, 934269, Note_off_c, 0, 65, 63
1, 934273, Control_c, 0, 64, 74
1, 934276, Note_off_c, 0, 77, 65
1, 934281, Note_off_c, 0, 53, 64
1, 934288, Control_c, 0, 64, 75
1, 934303, Control_c, 0, 64, 77
1, 934318, Control_c, 0, 64, 79
1, 934332, Control_c, 0, 64, 77
1, 934344, Note_on_c, 0, 50, 85
1, 934347, Note_on_c, 0, 74, 100
1, 934347, Control_c, 0, 64, 71
1, 934352, Note_on_c, 0, 62, 88
1, 934362, Control_c, 0, 64, 60
1, 934371, Note_off_c, 0, 62, 70
1, 934384, Control_c, 0, 64, 52
1, 934395, Note_off_c, 0, 74, 64
1, 934399, Control_c, 0, 64, 63
1, 934404, Note_off_c, 0, 50, 65
1, 934414, Control_c, 0, 64, 66
1, 934429, Control_c, 0, 64, 68
1, 934444, Control_c, 0, 64, 74
1, 934455, Note_on_c, 0, 61, 93
1, 934457, Note_on_c, 0, 49, 89
1, 934459, Control_c, 0, 64, 82
1, 934461, Note_on_c, 0, 73, 97
1, 934475, Control_c, 0, 64, 85
1, 934489, Control_c, 0, 64, 81
1, 934493, Note_off_c, 0, 61, 62
1, 934499, Note_off_c, 0, 49, 64
1, 934504, Control_c, 0, 64, 71
1, 934508, Note_off_c, 0, 73, 62
1, 934519, Control_c, 0, 64, 0
1, 934549, Control_c, 0, 64, 46
1, 934563, Control_c, 0, 64, 64
1, 934568, Note_on_c, 0, 47, 81
1, 934570, Note_on_c, 0, 59, 99
1, 934571, Note_on_c, 0, 71, 99
1, 934578, Control_c, 0, 64, 72
1, 934593, Control_c, 0, 64, 80
1, 934595, Note_off_c, 0, 59, 64
1, 934599, Note_off_c, 0, 47, 67
1, 934603, Note_off_c, 0, 71, 66
1, 934608, Control_c, 0, 64, 82
1, 934623, Control_c, 0, 64, 72
1, 934637, Control_c, 0, 64, 0
1, 934677, Note_on_c, 0, 45, 81
1, 934680, Note_on_c, 0, 57, 95
1, 934684, Note_on_c, 0, 69, 90
1, 934697, Control_c, 0, 64, 40
1, 934712, Note_on_c, 0, 67, 54
1, 934712, Control_c, 0, 64, 64
1, 934723, Note_off_c, 0, 57, 64
1, 934727, Control_c, 0, 64, 70
1, 934734, Note_off_c, 0, 45, 65
1, 934736, Note_off_c, 0, 69, 64
1, 934737, Note_off_c, 0, 67, 38
1, 934742, Control_c, 0, 64, 71
1, 934757, Control_c, 0, 64, 65
1, 934771, Control_c, 0, 64, 0
1, 934799, Note_on_c, 0, 44, 89
1, 934799, Note_on_c, 0, 56, 92
1, 934806, Note_on_c, 0, 68, 91
1, 934835, Note_off_c, 0, 56, 60
1, 934836, Note_off_c, 0, 44, 62
1, 934845, Control_c, 0, 64, 57
1, 934860, Control_c, 0, 64, 69
1, 934863, Note_off_c, 0, 68, 62
1, 934875, Control_c, 0, 64, 74
1, 934890, Control_c, 0, 64, 70
1, 934905, Control_c, 0, 64, 36
1, 934919, Control_c, 0, 64, 0
1, 934928, Note_on_c, 0, 54, 100
1, 934928, Note_on_c, 0, 66, 97
1, 934933, Note_on_c, 0, 42, 89
1, 934958, Note_off_c, 0, 54, 65
1, 934968, Note_off_c, 0, 42, 59
1, 934979, Control_c, 0, 64, 63
1, 934982, Note_off_c, 0, 66, 64
1, 934994, Control_c, 0, 64, 71
1, 935007, Control_c, 0, 64, 78
1, 935022, Control_c, 0, 64, 81
1, 935037, Control_c, 0, 64, 73
1, 935052, Control_c, 0, 64, 0
1, 935066, Note_on_c, 0, 64, 104
1, 935068, Note_on_c, 0, 52, 94
1, 935069, Note_on_c, 0, 40, 93
1, 935095, Note_off_c, 0, 52, 64
1, 935103, Note_off_c, 0, 40, 66
1, 935104, Note_off_c, 0, 64, 70
1, 935111, Control_c, 0, 64, 53
1, 935126, Control_c, 0, 64, 69
1, 935149, Control_c, 0, 64, 75
1, 935163, Control_c, 0, 64, 73
1, 935178, Control_c, 0, 64, 31
1, 935193, Control_c, 0, 64, 0
1, 935207, Note_on_c, 0, 50, 98
1, 935211, Note_on_c, 0, 38, 92
1, 935215, Note_on_c, 0, 62, 92
1, 935237, Control_c, 0, 64, 63
1, 935241, Note_off_c, 0, 38, 64
1, 935247, Note_off_c, 0, 50, 66
1, 935252, Control_c, 0, 64, 71
1, 935268, Control_c, 0, 64, 79
1, 935283, Control_c, 0, 64, 87
1, 935298, Control_c, 0, 64, 93
1, 935312, Control_c, 0, 64, 93
1, 935342, Control_c, 0, 64, 93
1, 935357, Control_c, 0, 64, 83
1, 935365, Note_off_c, 0, 62, 57
1, 935372, Control_c, 0, 64, 38
1, 935386, Control_c, 0, 64, 0
1, 935405, Note_on_c, 0, 61, 101
1, 935408, Note_on_c, 0, 49, 101
1, 935411, Note_on_c, 0, 37, 92
1, 935437, Note_on_c, 0, 39, 51
1, 935475, Note_off_c, 0, 39, 51
1, 935549, Control_c, 0, 64, 61
1, 935564, Control_c, 0, 64, 66
1, 935579, Control_c, 0, 64, 70
1, 935593, Control_c, 0, 64, 76
1, 935608, Control_c, 0, 64, 83
1, 935623, Control_c, 0, 64, 87
1, 935638, Control_c, 0, 64, 88
1, 935653, Control_c, 0, 64, 91
1, 935668, Control_c, 0, 64, 98
1, 935683, Control_c, 0, 64, 115
1, 935697, Control_c, 0, 64, 127
1, 935751, Note_off_c, 0, 49, 64
1, 935844, Note_off_c, 0, 37, 61
1, 935942, Control_c, 0, 64, 93
1, 935957, Control_c, 0, 64, 63
1, 935962, Note_on_c, 0, 42, 98
1, 935968, Note_on_c, 0, 30, 92
1, 935972, Control_c, 0, 64, 0
1, 935986, Control_c, 0, 64, 48
1, 936001, Control_c, 0, 64, 63
1, 936016, Control_c, 0, 64, 66
1, 936031, Control_c, 0, 64, 75
1, 936045, Control_c, 0, 64, 84
1, 936061, Control_c, 0, 64, 93
1, 936076, Control_c, 0, 64, 101
1, 936091, Control_c, 0, 64, 111
1, 936106, Control_c, 0, 64, 127
1, 936127, Note_off_c, 0, 42, 62
1, 936146, Note_off_c, 0, 30, 61
1, 936195, Control_c, 0, 64, 93
1, 936209, Control_c, 0, 64, 63
1, 936224, Control_c, 0, 64, 0
1, 936231, Note_on_c, 0, 44, 98
1, 936233, Note_on_c, 0, 32, 88
1, 936239, Control_c, 0, 64, 49
1, 936253, Control_c, 0, 64, 65
1, 936268, Control_c, 0, 64, 72
1, 936283, Control_c, 0, 64, 84
1, 936298, Control_c, 0, 64, 105
1, 936313, Control_c, 0, 64, 127
1, 936361, Note_off_c, 0, 44, 64
1, 936398, Note_off_c, 0, 32, 61
1, 936485, Note_off_c, 0, 61, 57
1, 936517, Note_on_c, 0, 37, 97
1, 936520, Note_on_c, 0, 54, 92
1, 936520, Note_on_c, 0, 50, 95
1, 936521, Note_on_c, 0, 62, 94
1, 936521, Control_c, 0, 64, 75
1, 936522, Note_on_c, 0, 25, 91
1, 936535, Control_c, 0, 64, 0
1, 936661, Control_c, 0, 64, 24
1, 936676, Control_c, 0, 64, 48
1, 936691, Control_c, 0, 64, 63
1, 936706, Control_c, 0, 64, 70
1, 936721, Control_c, 0, 64, 75
1, 936735, Control_c, 0, 64, 80
1, 936750, Control_c, 0, 64, 84
1, 936765, Control_c, 0, 64, 89
1, 936780, Control_c, 0, 64, 96
1, 936794, Control_c, 0, 64, 102
1, 936809, Control_c, 0, 64, 109
1, 936824, Control_c, 0, 64, 121
1, 936839, Control_c, 0, 64, 127
1, 936845, Note_off_c, 0, 62, 58
1, 936923, Note_off_c, 0, 50, 63
1, 936994, Poly_aftertouch_c, 0, 56, 127
1, 937009, Note_off_c, 0, 54, 57
1, 937024, Poly_aftertouch_c, 0, 56, 0
1, 937063, Note_on_c, 0, 57, 89
1, 937064, Note_on_c, 0, 49, 95
1, 937131, Note_on_c, 0, 58, 11
1, 937143, Note_off_c, 0, 25, 58
1, 937179, Note_off_c, 0, 37, 61
1, 937186, Note_off_c, 0, 49, 61
1, 937188, Note_off_c, 0, 58, 46
1, 937237, Note_off_c, 0, 57, 51
1, 937318, Note_on_c, 0, 50, 92
1, 937320, Note_on_c, 0, 59, 97
1, 937343, Note_off_c, 0, 50, 72
1, 937361, Note_off_c, 0, 59, 69
1, 937558, Control_c, 0, 64, 102
1, 937573, Note_on_c, 0, 47, 77
1, 937573, Control_c, 0, 64, 66
1, 937576, Note_on_c, 0, 56, 96
1, 937579, Note_on_c, 0, 54, 81
1, 937588, Control_c, 0, 64, 0
1, 937592, Note_on_c, 0, 80, 97
1, 937593, Note_on_c, 0, 68, 93
1, 937600, Note_on_c, 0, 74, 57
1, 937638, Note_off_c, 0, 74, 58
1, 937647, Control_c, 0, 64, 51
1, 937663, Control_c, 0, 64, 68
1, 937678, Control_c, 0, 64, 79
1, 937693, Control_c, 0, 64, 93
1, 937707, Control_c, 0, 64, 110
1, 937722, Control_c, 0, 64, 127
1, 937740, Note_off_c, 0, 56, 66
1, 937761, Poly_aftertouch_c, 0, 74, 127
1, 937778, Note_off_c, 0, 54, 66
1, 937803, Note_off_c, 0, 47, 65
1, 937824, Poly_aftertouch_c, 0, 74, 0
1, 937855, Note_off_c, 0, 80, 61
1, 937940, Note_off_c, 0, 68, 62
1, 938078, Control_c, 0, 64, 80
1, 938085, Note_on_c, 0, 37, 88
1, 938086, Note_on_c, 0, 25, 88
1, 938093, Control_c, 0, 64, 0
1, 938099, Note_on_c, 0, 76, 92
1, 938101, Note_on_c, 0, 64, 90
1, 938160, Control_c, 0, 64, 56
1, 938175, Control_c, 0, 64, 67
1, 938189, Control_c, 0, 64, 78
1, 938204, Control_c, 0, 64, 92
1, 938219, Control_c, 0, 64, 117
1, 938233, Control_c, 0, 64, 127
1, 938281, Note_off_c, 0, 25, 55
1, 938333, Note_off_c, 0, 37, 62
1, 938336, Note_off_c, 0, 64, 60
1, 938443, Note_on_c, 0, 65, 95
1, 938444, Note_on_c, 0, 77, 97
1, 938464, Note_off_c, 0, 76, 60
1, 938483, Note_off_c, 0, 65, 65
1, 938505, Note_off_c, 0, 77, 64
1, 938663, Control_c, 0, 64, 105
1, 938678, Control_c, 0, 64, 86
1, 938693, Control_c, 0, 64, 84
1, 938695, Note_on_c, 0, 83, 99
1, 938696, Note_on_c, 0, 62, 89
1, 938699, Note_on_c, 0, 71, 94
1, 938705, Note_on_c, 0, 80, 68
1, 938708, Control_c, 0, 64, 93
1, 938723, Control_c, 0, 64, 103
1, 938738, Control_c, 0, 64, 127
1, 938800, Note_off_c, 0, 62, 61
1, 938830, Note_off_c, 0, 71, 58
1, 938866, Note_on_c, 0, 82, 27
1, 938897, Note_off_c, 0, 83, 61
1, 938900, Note_off_c, 0, 80, 60
1, 938911, Note_off_c, 0, 82, 56
1, 938947, Note_on_c, 0, 37, 92
1, 938997, Note_off_c, 0, 37, 64
1, 939144, Control_c, 0, 64, 103
1, 939158, Note_on_c, 0, 86, 99
1, 939159, Control_c, 0, 64, 76
1, 939161, Note_on_c, 0, 74, 93
1, 939164, Note_on_c, 0, 80, 78
1, 939170, Note_on_c, 0, 58, 83
1, 939172, Note_on_c, 0, 70, 86
1, 939174, Control_c, 0, 64, 65
1, 939188, Control_c, 0, 64, 74
1, 939203, Control_c, 0, 64, 81
1, 939218, Control_c, 0, 64, 90
1, 939233, Control_c, 0, 64, 99
1, 939248, Control_c, 0, 64, 123
1, 939264, Control_c, 0, 64, 127
1, 939281, Note_off_c, 0, 80, 62
1, 939323, Note_off_c, 0, 70, 61
1, 939415, Note_on_c, 0, 71, 96
1, 939417, Note_on_c, 0, 59, 84
1, 939444, Note_off_c, 0, 74, 51
1, 939465, Note_off_c, 0, 58, 51
1, 939488, Note_off_c, 0, 71, 61
1, 939507, Note_off_c, 0, 59, 62
1, 939525, Note_off_c, 0, 86, 53
1, 939605, Control_c, 0, 64, 86
1, 939620, Control_c, 0, 64, 70
1, 939623, Note_on_c, 0, 67, 93
1, 939632, Note_on_c, 0, 55, 88
1, 939638, Note_on_c, 0, 83, 78
1, 939638, Note_on_c, 0, 89, 109
1, 939639, Note_on_c, 0, 77, 96
1, 939642, Control_c, 0, 64, 70
1, 939657, Control_c, 0, 64, 80
1, 939672, Control_c, 0, 64, 87
1, 939686, Control_c, 0, 64, 96
1, 939701, Control_c, 0, 64, 112
1, 939716, Control_c, 0, 64, 127
1, 939748, Note_off_c, 0, 67, 62
1, 939820, Note_off_c, 0, 77, 60
1, 939844, Note_off_c, 0, 83, 63
1, 939872, Note_off_c, 0, 55, 43
1, 939890, Note_on_c, 0, 56, 83
1, 939890, Note_on_c, 0, 68, 96
1, 939949, Note_off_c, 0, 68, 63
1, 939992, Note_off_c, 0, 56, 63
1, 940059, Note_off_c, 0, 89, 55
1, 940088, Control_c, 0, 64, 84
1, 940102, Control_c, 0, 64, 66
1, 940104, Note_on_c, 0, 64, 97
1, 940108, Note_on_c, 0, 52, 95
1, 940117, Control_c, 0, 64, 71
1, 940118, Note_on_c, 0, 80, 96
1, 940118, Note_on_c, 0, 92, 102
1, 940119, Note_on_c, 0, 86, 67
1, 940132, Control_c, 0, 64, 80
1, 940143, Note_off_c, 0, 86, 63
1, 940147, Control_c, 0, 64, 87
1, 940162, Control_c, 0, 64, 96
1, 940176, Control_c, 0, 64, 113
1, 940191, Control_c, 0, 64, 127
1, 940250, Note_off_c, 0, 64, 60
1, 940252, Note_off_c, 0, 80, 61
1, 940261, Note_off_c, 0, 52, 55
1, 940275, Note_on_c, 0, 86, 14
1, 940318, Note_off_c, 0, 86, 39
1, 940379, Note_off_c, 0, 92, 65
1, 940392, Note_on_c, 0, 65, 97
1, 940398, Note_on_c, 0, 53, 79
1, 940413, Note_off_c, 0, 65, 66
1, 940448, Note_off_c, 0, 53, 67
1, 940485, Poly_aftertouch_c, 0, 64, 127
1, 940506, Poly_aftertouch_c, 0, 64, 0
1, 940509, Poly_aftertouch_c, 0, 54, 0
1, 940613, Note_on_c, 0, 37, 81
1, 940627, Note_on_c, 0, 41, 72
1, 940658, Control_c, 0, 64, 83
1, 940665, Note_on_c, 0, 44, 84
1, 940673, Control_c, 0, 64, 0
1, 940701, Note_on_c, 0, 49, 95
1, 940713, Note_on_c, 0, 92, 84
1, 940713, Note_on_c, 0, 95, 99
1, 940713, Note_on_c, 0, 98, 105
1, 940714, Note_on_c, 0, 86, 102
1, 940732, Control_c, 0, 64, 62
1, 940747, Control_c, 0, 64, 79
1, 940755, Poly_aftertouch_c, 0, 39, 127
1, 940759, Note_off_c, 0, 37, 64
1, 940761, Control_c, 0, 64, 103
1, 940776, Control_c, 0, 64, 127
1, 940779, Note_off_c, 0, 41, 63
1, 940796, Note_off_c, 0, 49, 63
1, 940804, Note_off_c, 0, 44, 63
1, 940822, Poly_aftertouch_c, 0, 39, 0
1, 940897, Note_off_c, 0, 86, 59
1, 940962, Note_off_c, 0, 98, 57
1, 941064, Note_off_c, 0, 92, 40
1, 941073, Note_on_c, 0, 79, 95
1, 941078, Note_on_c, 0, 67, 88
1, 941167, Note_off_c, 0, 67, 58
1, 941176, Note_off_c, 0, 79, 60
1, 941203, Note_off_c, 0, 95, 54
1, 941206, Note_on_c, 0, 72, 44
1, 941254, Note_off_c, 0, 72, 58
1, 941277, Note_on_c, 0, 80, 104
1, 941282, Note_on_c, 0, 68, 85
1, 941343, Note_off_c, 0, 80, 65
1, 941359, Note_off_c, 0, 68, 62
1, 941446, Note_on_c, 0, 83, 98
1, 941448, Note_on_c, 0, 95, 105
1, 941474, Note_off_c, 0, 83, 69
1, 941487, Note_off_c, 0, 95, 67
1, 941606, Note_on_c, 0, 76, 94
1, 941612, Note_on_c, 0, 64, 88
1, 941646, Note_off_c, 0, 76, 65
1, 941655, Note_off_c, 0, 64, 58
1, 941674, Note_on_c, 0, 74, 3
1, 941713, Note_off_c, 0, 74, 40
1, 941731, Note_on_c, 0, 77, 101
1, 941742, Note_on_c, 0, 64, 87
1, 941746, Note_on_c, 0, 65, 83
1, 941770, Poly_aftertouch_c, 0, 92, 0
1, 941774, Note_off_c, 0, 77, 63
1, 941779, Note_off_c, 0, 64, 59
1, 941795, Note_off_c, 0, 65, 64
1, 941862, Note_on_c, 0, 92, 99
1, 941863, Note_on_c, 0, 80, 96
1, 941900, Note_off_c, 0, 80, 67
1, 941909, Note_off_c, 0, 92, 66
1, 941997, Note_on_c, 0, 70, 99
1, 941999, Note_on_c, 0, 58, 88
1, 942037, Note_off_c, 0, 70, 66
1, 942050, Note_off_c, 0, 58, 59
1, 942110, Note_on_c, 0, 71, 99
1, 942115, Note_on_c, 0, 59, 87
1, 942142, Control_c, 0, 64, 108
1, 942156, Control_c, 0, 64, 106
1, 942170, Note_off_c, 0, 71, 65
1, 942186, Control_c, 0, 64, 107
1, 942191, Note_off_c, 0, 59, 64
1, 942200, Control_c, 0, 64, 113
1, 942215, Control_c, 0, 64, 127
1, 942229, Note_on_c, 0, 74, 97
1, 942229, Note_on_c, 0, 86, 100
1, 942255, Note_off_c, 0, 74, 66
1, 942265, Note_off_c, 0, 86, 67
1, 942352, Note_on_c, 0, 64, 93
1, 942356, Note_on_c, 0, 52, 85
1, 942387, Note_off_c, 0, 64, 62
1, 942392, Note_off_c, 0, 52, 59
1, 942470, Note_on_c, 0, 53, 81
1, 942473, Note_on_c, 0, 65, 96
1, 942553, Note_off_c, 0, 53, 65
1, 942564, Note_off_c, 0, 65, 59
1, 942587, Control_c, 0, 64, 72
1, 942594, Note_on_c, 0, 84, 101
1, 942595, Note_on_c, 0, 72, 94
1, 942602, Control_c, 0, 64, 0
1, 942669, Control_c, 0, 64, 21
1, 942684, Control_c, 0, 64, 66
1, 942698, Control_c, 0, 64, 75
1, 942713, Control_c, 0, 64, 82
1, 942726, Note_off_c, 0, 72, 63
1, 942728, Control_c, 0, 64, 87
1, 942735, Note_off_c, 0, 84, 63
1, 942743, Control_c, 0, 64, 90
1, 942758, Control_c, 0, 64, 93
1, 942772, Control_c, 0, 64, 96
1, 942779, Note_on_c, 0, 66, 83
1, 942786, Note_on_c, 0, 54, 65
1, 942787, Control_c, 0, 64, 99
1, 942802, Control_c, 0, 64, 103
1, 942817, Control_c, 0, 64, 110
1, 942831, Control_c, 0, 64, 123
1, 942846, Control_c, 0, 64, 127
1, 942854, Note_off_c, 0, 66, 60
1, 942872, Note_off_c, 0, 54, 63
1, 942891, Control_c, 0, 64, 120
1, 942905, Control_c, 0, 64, 100
1, 942917, Note_on_c, 0, 81, 97
1, 942920, Control_c, 0, 64, 92
1, 942923, Note_on_c, 0, 69, 85
1, 942942, Note_off_c, 0, 69, 71
1, 942950, Control_c, 0, 64, 95
1, 942957, Note_off_c, 0, 81, 65
1, 942965, Control_c, 0, 64, 100
1, 942980, Control_c, 0, 64, 110
1, 942995, Control_c, 0, 64, 127
1, 943044, Note_on_c, 0, 63, 90
1, 943045, Note_on_c, 0, 51, 81
1, 943097, Note_off_c, 0, 63, 62
1, 943159, Note_on_c, 0, 66, 99
1, 943162, Note_on_c, 0, 78, 102
1, 943191, Note_off_c, 0, 66, 59
1, 943196, Note_off_c, 0, 78, 64
1, 943261, Note_on_c, 0, 60, 96
1, 943263, Note_off_c, 0, 51, 59
1, 943264, Note_on_c, 0, 48, 88
1, 943316, Note_off_c, 0, 60, 65
1, 943336, Note_off_c, 0, 48, 61
1, 943406, Note_on_c, 0, 75, 94
1, 943409, Note_on_c, 0, 63, 95
1, 943437, Note_off_c, 0, 63, 62
1, 943439, Note_on_c, 0, 73, 41
1, 943446, Note_off_c, 0, 75, 67
1, 943467, Note_off_c, 0, 73, 57
1, 943519, Note_on_c, 0, 45, 90
1, 943519, Note_on_c, 0, 57, 91
1, 943556, Note_off_c, 0, 57, 65
1, 943561, Note_off_c, 0, 45, 67
1, 943565, Control_c, 0, 64, 122
1, 943579, Control_c, 0, 64, 118
1, 943594, Control_c, 0, 64, 120
1, 943609, Control_c, 0, 64, 127
1, 943655, Note_on_c, 0, 72, 100
1, 943656, Note_on_c, 0, 60, 98
1, 943670, Note_off_c, 0, 60, 75
1, 943686, Note_off_c, 0, 72, 63
1, 943789, Note_on_c, 0, 54, 99
1, 943792, Note_on_c, 0, 42, 96
1, 943820, Note_off_c, 0, 54, 64
1, 943839, Note_off_c, 0, 42, 59
1, 943961, Note_on_c, 0, 54, 97
1, 943962, Note_on_c, 0, 66, 104
1, 943981, Note_off_c, 0, 54, 70
1, 943997, Note_off_c, 0, 66, 58
1, 944124, Note_on_c, 0, 48, 103
1, 944129, Note_on_c, 0, 36, 93
1, 944146, Note_off_c, 0, 48, 68
1, 944169, Note_off_c, 0, 36, 62
1, 944491, Control_c, 0, 64, 80
1, 944506, Control_c, 0, 64, 0
1, 944516, Note_on_c, 0, 61, 95
1, 944517, Note_on_c, 0, 25, 92
1, 944517, Note_on_c, 0, 37, 96
1, 944517, Note_on_c, 0, 49, 97
1, 944885, Control_c, 0, 64, 33
1, 944899, Control_c, 0, 64, 50
1, 944914, Control_c, 0, 64, 59
1, 944929, Control_c, 0, 64, 64
1, 944944, Control_c, 0, 64, 66
1, 944959, Control_c, 0, 64, 67
1, 944973, Control_c, 0, 64, 69
1, 944988, Control_c, 0, 64, 70
1, 945003, Control_c, 0, 64, 71
1, 945018, Control_c, 0, 64, 72
1, 945032, Control_c, 0, 64, 73
1, 945047, Control_c, 0, 64, 74
1, 945062, Control_c, 0, 64, 76
1, 945077, Control_c, 0, 64, 77
1, 945092, Control_c, 0, 64, 78
1, 945106, Control_c, 0, 64, 80
1, 945121, Control_c, 0, 64, 82
1, 945136, Control_c, 0, 64, 84
1, 945151, Control_c, 0, 64, 85
1, 945166, Control_c, 0, 64, 87
1, 945180, Control_c, 0, 64, 89
1, 945195, Control_c, 0, 64, 93
1, 945210, Control_c, 0, 64, 95
1, 945224, Control_c, 0, 64, 96
1, 945239, Control_c, 0, 64, 99
1, 945254, Control_c, 0, 64, 102
1, 945269, Control_c, 0, 64, 105
1, 945284, Control_c, 0, 64, 108
1, 945299, Control_c, 0, 64, 112
1, 945314, Control_c, 0, 64, 116
1, 945329, Control_c, 0, 64, 126
1, 945343, Control_c, 0, 64, 127
1, 945534, Note_off_c, 0, 25, 57
1, 945665, Note_off_c, 0, 37, 53
1, 946004, Note_off_c, 0, 49, 56
1, 946289, Note_off_c, 0, 61, 51
1, 946329, Note_on_c, 0, 49, 92
1, 946329, Control_c, 0, 64, 117
1, 946344, Control_c, 0, 64, 91
1, 946359, Control_c, 0, 64, 84
1, 946381, Control_c, 0, 64, 85
1, 946396, Control_c, 0, 64, 88
1, 946411, Control_c, 0, 64, 91
1, 946426, Control_c, 0, 64, 95
1, 946441, Control_c, 0, 64, 100
1, 946456, Control_c, 0, 64, 106
1, 946470, Control_c, 0, 64, 113
1, 946485, Control_c, 0, 64, 119
1, 946500, Control_c, 0, 64, 126
1, 946515, Control_c, 0, 64, 127
1, 946754, Note_on_c, 0, 54, 90
1, 946989, Note_on_c, 0, 68, 89
1, 946997, Note_on_c, 0, 56, 83
1, 947004, Control_c, 0, 64, 90
1, 947019, Control_c, 0, 64, 69
1, 947034, Control_c, 0, 64, 63
1, 947049, Control_c, 0, 64, 68
1, 947063, Control_c, 0, 64, 70
1, 947078, Control_c, 0, 64, 72
1, 947093, Control_c, 0, 64, 75
1, 947108, Control_c, 0, 64, 81
1, 947129, Control_c, 0, 64, 88
1, 947144, Control_c, 0, 64, 93
1, 947159, Control_c, 0, 64, 95
1, 947162, Note_off_c, 0, 56, 62
1, 947174, Control_c, 0, 64, 96
1, 947189, Control_c, 0, 64, 97
1, 947204, Control_c, 0, 64, 98
1, 947219, Control_c, 0, 64, 101
1, 947234, Control_c, 0, 64, 105
1, 947249, Control_c, 0, 64, 107
1, 947264, Control_c, 0, 64, 107
1, 947284, Note_on_c, 0, 71, 89
1, 947294, Note_on_c, 0, 59, 77
1, 947321, Note_off_c, 0, 68, 55
1, 947383, Control_c, 0, 64, 108
1, 947412, Control_c, 0, 64, 109
1, 947421, Note_off_c, 0, 54, 51
1, 947427, Control_c, 0, 64, 110
1, 947442, Control_c, 0, 64, 111
1, 947457, Control_c, 0, 64, 112
1, 947472, Control_c, 0, 64, 112
1, 947486, Control_c, 0, 64, 113
1, 947500, Note_on_c, 0, 53, 79
1, 947501, Control_c, 0, 64, 113
1, 947516, Control_c, 0, 64, 114
1, 947531, Control_c, 0, 64, 116
1, 947545, Control_c, 0, 64, 117
1, 947560, Control_c, 0, 64, 117
1, 947575, Control_c, 0, 64, 118
1, 947590, Control_c, 0, 64, 121
1, 947605, Control_c, 0, 64, 126
1, 947619, Control_c, 0, 64, 127
1, 947679, Note_off_c, 0, 49, 56
1, 947710, Note_off_c, 0, 59, 57
1, 947746, Note_on_c, 0, 56, 91
1, 947811, Note_off_c, 0, 71, 50
1, 947967, Control_c, 0, 64, 107
1, 947982, Control_c, 0, 64, 76
1, 947991, Note_on_c, 0, 69, 86
1, 947996, Note_on_c, 0, 57, 80
1, 947997, Control_c, 0, 64, 0
1, 947998, Note_on_c, 0, 49, 76
1, 948019, Note_off_c, 0, 56, 59
1, 948021, Note_off_c, 0, 53, 60
1, 948087, Control_c, 0, 64, 59
1, 948102, Control_c, 0, 64, 70
1, 948111, Note_off_c, 0, 57, 59
1, 948116, Control_c, 0, 64, 76
1, 948131, Control_c, 0, 64, 82
1, 948146, Control_c, 0, 64, 86
1, 948161, Control_c, 0, 64, 91
1, 948176, Control_c, 0, 64, 96
1, 948190, Control_c, 0, 64, 102
1, 948205, Control_c, 0, 64, 109
1, 948220, Control_c, 0, 64, 115
1, 948235, Control_c, 0, 64, 127
1, 948248, Note_on_c, 0, 73, 89
1, 948250, Note_off_c, 0, 69, 54
1, 948250, Note_on_c, 0, 61, 75
1, 948469, Note_on_c, 0, 54, 78
1, 948538, Note_off_c, 0, 61, 62
1, 948665, Note_off_c, 0, 73, 59
1, 948695, Note_off_c, 0, 49, 58
1, 948713, Note_on_c, 0, 57, 83
1, 948727, Note_off_c, 0, 54, 64
1, 948748, Note_off_c, 0, 57, 61
1, 948967, Note_on_c, 0, 37, 88
1, 948969, Control_c, 0, 64, 98
1, 948984, Control_c, 0, 64, 65
1, 948998, Control_c, 0, 64, 0
1, 949003, Note_on_c, 0, 71, 85
1, 949014, Note_on_c, 0, 59, 80
1, 949073, Control_c, 0, 64, 59
1, 949088, Control_c, 0, 64, 69
1, 949103, Control_c, 0, 64, 77
1, 949117, Control_c, 0, 64, 84
1, 949132, Control_c, 0, 64, 91
1, 949147, Control_c, 0, 64, 99
1, 949162, Control_c, 0, 64, 109
1, 949177, Control_c, 0, 64, 127
1, 949183, Note_off_c, 0, 59, 52
1, 949196, Note_off_c, 0, 37, 59
1, 949311, Note_on_c, 0, 74, 94
1, 949312, Note_off_c, 0, 71, 67
1, 949322, Note_on_c, 0, 62, 79
1, 949538, Note_on_c, 0, 49, 74
1, 949543, Note_on_c, 0, 56, 88
1, 949622, Note_off_c, 0, 49, 64
1, 949698, Note_off_c, 0, 74, 58
1, 949805, Note_off_c, 0, 62, 58
1, 949812, Note_on_c, 0, 65, 83
1, 949833, Note_off_c, 0, 65, 69
1, 949866, Note_off_c, 0, 56, 66
1, 950084, Note_on_c, 0, 37, 85
1, 950110, Control_c, 0, 64, 96
1, 950125, Control_c, 0, 64, 70
1, 950137, Note_on_c, 0, 71, 89
1, 950140, Control_c, 0, 64, 0
1, 950149, Note_on_c, 0, 59, 75
1, 950200, Control_c, 0, 64, 41
1, 950214, Control_c, 0, 64, 64
1, 950229, Control_c, 0, 64, 70
1, 950244, Control_c, 0, 64, 75
1, 950259, Control_c, 0, 64, 80
1, 950274, Control_c, 0, 64, 85
1, 950288, Control_c, 0, 64, 90
1, 950303, Control_c, 0, 64, 94
1, 950318, Control_c, 0, 64, 99
1, 950323, Note_off_c, 0, 59, 54
1, 950333, Control_c, 0, 64, 104
1, 950347, Control_c, 0, 64, 109
1, 950362, Control_c, 0, 64, 114
1, 950377, Control_c, 0, 64, 122
1, 950392, Control_c, 0, 64, 127
1, 950394, Note_off_c, 0, 37, 53
1, 950447, Note_on_c, 0, 74, 94
1, 950460, Note_on_c, 0, 62, 67
1, 950469, Note_off_c, 0, 71, 60
1, 950726, Note_on_c, 0, 56, 75
1, 950727, Note_on_c, 0, 49, 68
1, 950826, Note_off_c, 0, 49, 63
1, 951018, Note_off_c, 0, 74, 38
1, 951070, Note_on_c, 0, 65, 69
1, 951118, Note_off_c, 0, 65, 62
1, 951170, Note_off_c, 0, 62, 55
1, 951174, Note_off_c, 0, 56, 63
1, 951519, Note_on_c, 0, 37, 64
1, 951541, Control_c, 0, 64, 117
1, 951544, Note_on_c, 0, 71, 80
1, 951556, Control_c, 0, 64, 95
1, 951568, Note_on_c, 0, 59, 54
1, 951571, Control_c, 0, 64, 78
1, 951586, Control_c, 0, 64, 63
1, 951601, Control_c, 0, 64, 0
1, 951653, Control_c, 0, 64, 43
1, 951667, Control_c, 0, 64, 59
1, 951682, Control_c, 0, 64, 64
1, 951697, Control_c, 0, 64, 66
1, 951711, Control_c, 0, 64, 69
1, 951726, Control_c, 0, 64, 72
1, 951741, Control_c, 0, 64, 75
1, 951756, Control_c, 0, 64, 78
1, 951771, Control_c, 0, 64, 80
1, 951785, Control_c, 0, 64, 83
1, 951800, Control_c, 0, 64, 86
1, 951815, Control_c, 0, 64, 89
1, 951830, Control_c, 0, 64, 92
1, 951845, Control_c, 0, 64, 95
1, 951860, Control_c, 0, 64, 97
1, 951875, Control_c, 0, 64, 100
1, 951890, Control_c, 0, 64, 103
1, 951896, Note_off_c, 0, 37, 37
1, 951904, Control_c, 0, 64, 106
1, 951917, Note_off_c, 0, 59, 35
1, 951919, Control_c, 0, 64, 110
1, 951934, Control_c, 0, 64, 113
1, 951949, Control_c, 0, 64, 122
1, 951964, Control_c, 0, 64, 127
1, 952152, Note_on_c, 0, 74, 80
1, 952158, Note_off_c, 0, 71, 56
1, 952177, Note_on_c, 0, 62, 50
1, 952547, Note_on_c, 0, 56, 58
1, 952552, Note_on_c, 0, 49, 45
1, 952661, Note_off_c, 0, 49, 56
1, 953307, Note_on_c, 0, 65, 48
1, 955018, Control_c, 0, 67, 8
1, 955048, Control_c, 0, 67, 8
1, 955063, Control_c, 0, 67, 9
1, 955077, Control_c, 0, 67, 9
1, 955092, Control_c, 0, 67, 10
1, 955122, Control_c, 0, 67, 10
1, 955136, Control_c, 0, 67, 11
1, 955151, Control_c, 0, 67, 11
1, 955166, Control_c, 0, 67, 12
1, 955181, Control_c, 0, 67, 13
1, 955196, Control_c, 0, 67, 14
1, 955210, Control_c, 0, 67, 14
1, 955227, Control_c, 0, 67, 15
1, 955240, Note_off_c, 0, 65, 26
1, 955242, Control_c, 0, 67, 16
1, 955257, Control_c, 0, 67, 17
1, 955272, Control_c, 0, 67, 17
1, 955287, Control_c, 0, 67, 18
1, 955301, Control_c, 0, 67, 18
1, 955316, Control_c, 0, 67, 19
1, 955428, Control_c, 0, 67, 19
1, 955531, Control_c, 0, 67, 20
1, 955575, Control_c, 0, 67, 20
1, 955590, Control_c, 0, 67, 21
1, 955605, Control_c, 0, 67, 24
1, 955620, Control_c, 0, 67, 28
1, 955634, Control_c, 0, 67, 32
1, 955649, Control_c, 0, 67, 35
1, 955664, Control_c, 0, 67, 38
1, 955679, Control_c, 0, 67, 41
1, 955694, Control_c, 0, 67, 44
1, 955708, Control_c, 0, 67, 47
1, 955723, Control_c, 0, 67, 49
1, 955738, Control_c, 0, 67, 52
1, 955753, Control_c, 0, 67, 55
1, 955768, Control_c, 0, 67, 58
1, 955781, Note_off_c, 0, 56, 34
1, 955783, Control_c, 0, 67, 61
1, 955798, Control_c, 0, 67, 63
1, 955813, Control_c, 0, 67, 65
1, 955827, Control_c, 0, 67, 68
1, 955842, Control_c, 0, 67, 70
1, 955857, Control_c, 0, 67, 73
1, 955871, Control_c, 0, 67, 76
1, 955886, Control_c, 0, 67, 78
1, 955901, Control_c, 0, 67, 80
1, 955916, Control_c, 0, 67, 83
1, 955931, Control_c, 0, 67, 85
1, 955946, Control_c, 0, 67, 88
1, 955960, Control_c, 0, 67, 90
1, 955975, Control_c, 0, 67, 92
1, 955990, Control_c, 0, 67, 93
1, 956005, Control_c, 0, 67, 94
1, 956020, Control_c, 0, 67, 95
1, 956036, Control_c, 0, 67, 95
1, 956050, Control_c, 0, 67, 96
1, 956065, Control_c, 0, 67, 96
1, 956095, Control_c, 0, 67, 97
1, 956507, Note_off_c, 0, 62, 23
1, 956938, Control_c, 0, 64, 123
1, 956953, Control_c, 0, 64, 113
1, 956968, Control_c, 0, 64, 107
1, 956983, Control_c, 0, 64, 101
1, 956998, Control_c, 0, 64, 93
1, 957008, Note_on_c, 0, 37, 43
1, 957012, Control_c, 0, 64, 83
1, 957027, Control_c, 0, 64, 71
1, 957027, Control_c, 0, 67, 96
1, 957042, Control_c, 0, 64, 38
1, 957057, Control_c, 0, 64, 0
1, 957086, Control_c, 0, 64, 42
1, 957101, Control_c, 0, 64, 55
1, 957101, Control_c, 0, 67, 96
1, 957116, Control_c, 0, 64, 62
1, 957130, Control_c, 0, 64, 64
1, 957145, Control_c, 0, 64, 66
1, 957145, Control_c, 0, 67, 95
1, 957160, Control_c, 0, 64, 68
1, 957175, Control_c, 0, 64, 71
1, 957190, Control_c, 0, 64, 74
1, 957190, Control_c, 0, 67, 95
1, 957205, Control_c, 0, 64, 76
1, 957220, Control_c, 0, 64, 78
1, 957234, Control_c, 0, 64, 80
1, 957234, Control_c, 0, 67, 94
1, 957249, Control_c, 0, 64, 83
1, 957264, Control_c, 0, 64, 86
1, 957279, Control_c, 0, 64, 88
1, 957294, Control_c, 0, 64, 90
1, 957296, Note_off_c, 0, 37, 41
1, 957309, Control_c, 0, 64, 92
1, 957323, Control_c, 0, 64, 95
1, 957338, Control_c, 0, 64, 98
1, 957338, Control_c, 0, 67, 94
1, 957353, Control_c, 0, 64, 101
1, 957368, Control_c, 0, 64, 103
1, 957383, Control_c, 0, 64, 106
1, 957397, Control_c, 0, 64, 111
1, 957412, Control_c, 0, 64, 117
1, 957427, Control_c, 0, 64, 124
1, 957442, Control_c, 0, 64, 127
1, 957530, Control_c, 0, 67, 93
1, 957805, Note_on_c, 0, 49, 29
1, 957806, Control_c, 0, 67, 93
1, 957960, Note_off_c, 0, 49, 46
1, 957998, Control_c, 0, 67, 92
1, 958142, Note_off_c, 0, 74, 41
1, 958156, Note_on_c, 0, 64, 38
1, 958160, Note_on_c, 0, 73, 50
1, 958188, Note_on_c, 0, 61, 26
1, 958206, Control_c, 0, 67, 92
1, 958294, Control_c, 0, 67, 91
1, 958319, Note_off_c, 0, 64, 38
1, 958376, Control_c, 0, 67, 91
1, 958397, Note_off_c, 0, 73, 53
1, 958625, Note_on_c, 0, 49, 39
1, 958695, Note_off_c, 0, 61, 40
1, 958762, Control_c, 0, 64, 126
1, 958776, Control_c, 0, 64, 122
1, 958791, Control_c, 0, 64, 121
1, 958806, Control_c, 0, 64, 119
1, 958821, Control_c, 0, 64, 117
1, 958836, Control_c, 0, 64, 110
1, 958850, Control_c, 0, 64, 100
1, 958855, Note_on_c, 0, 63, 54
1, 958860, Note_on_c, 0, 66, 48
1, 958865, Control_c, 0, 64, 88
1, 958872, Note_on_c, 0, 60, 36
1, 958880, Control_c, 0, 64, 81
1, 958883, Note_off_c, 0, 49, 43
1, 958895, Control_c, 0, 64, 79
1, 958954, Control_c, 0, 64, 80
1, 958969, Control_c, 0, 64, 81
1, 958984, Control_c, 0, 64, 82
1, 958999, Control_c, 0, 64, 83
1, 958999, Control_c, 0, 67, 90
1, 959014, Control_c, 0, 64, 85
1, 959029, Control_c, 0, 64, 88
1, 959029, Control_c, 0, 67, 90
1, 959044, Control_c, 0, 64, 90
1, 959059, Control_c, 0, 64, 92
1, 959059, Control_c, 0, 67, 89
1, 959074, Control_c, 0, 64, 94
1, 959074, Control_c, 0, 67, 89
1, 959089, Control_c, 0, 64, 96
1, 959089, Control_c, 0, 67, 88
1, 959110, Control_c, 0, 64, 96
1, 959110, Control_c, 0, 67, 88
1, 959124, Note_on_c, 0, 49, 53
1, 959125, Control_c, 0, 64, 97
1, 959129, Note_off_c, 0, 60, 41
1, 959140, Control_c, 0, 67, 87
1, 959142, Note_off_c, 0, 63, 51
1, 959170, Control_c, 0, 64, 97
1, 959170, Control_c, 0, 67, 86
1, 959260, Control_c, 0, 64, 95
1, 959260, Control_c, 0, 67, 87
1, 959274, Control_c, 0, 64, 89
1, 959275, Note_off_c, 0, 66, 57
1, 959278, Note_off_c, 0, 49, 55
1, 959289, Note_on_c, 0, 68, 59
1, 959289, Control_c, 0, 64, 79
1, 959292, Note_on_c, 0, 62, 54
1, 959299, Note_on_c, 0, 59, 45
1, 959304, Control_c, 0, 64, 68
1, 959319, Control_c, 0, 64, 66
1, 959333, Control_c, 0, 64, 68
1, 959348, Control_c, 0, 64, 69
1, 959363, Control_c, 0, 64, 71
1, 959378, Control_c, 0, 64, 73
1, 959393, Control_c, 0, 64, 76
1, 959408, Control_c, 0, 64, 79
1, 959422, Control_c, 0, 64, 81
1, 959437, Control_c, 0, 64, 83
1, 959452, Control_c, 0, 64, 85
1, 959467, Control_c, 0, 64, 87
1, 959472, Note_off_c, 0, 62, 49
1, 959475, Note_on_c, 0, 49, 54
1, 959482, Control_c, 0, 64, 89
1, 959497, Control_c, 0, 64, 91
1, 959512, Control_c, 0, 64, 91
1, 959541, Control_c, 0, 64, 92
1, 959589, Note_off_c, 0, 49, 49
1, 959610, Note_off_c, 0, 59, 35
1, 959630, Control_c, 0, 67, 86
1, 959637, Note_on_c, 0, 61, 59
1, 959647, Note_on_c, 0, 58, 48
1, 959670, Note_off_c, 0, 68, 52
1, 959762, Control_c, 0, 64, 91
1, 959792, Control_c, 0, 64, 90
1, 959810, Note_on_c, 0, 49, 48
1, 959822, Control_c, 0, 64, 90
1, 959858, Control_c, 0, 64, 89
1, 959873, Control_c, 0, 64, 87
1, 959888, Control_c, 0, 64, 83
1, 959903, Control_c, 0, 64, 78
1, 959918, Control_c, 0, 64, 69
1, 959932, Control_c, 0, 64, 54
1, 959947, Control_c, 0, 64, 40
1, 959962, Control_c, 0, 64, 54
1, 959968, Note_on_c, 0, 60, 57
1, 959977, Control_c, 0, 64, 61
1, 959982, Note_off_c, 0, 49, 58
1, 959988, Note_on_c, 0, 57, 41
1, 959992, Control_c, 0, 64, 64
1, 959999, Note_off_c, 0, 58, 36
1, 960007, Control_c, 0, 64, 66
1, 960022, Control_c, 0, 64, 69
1, 960037, Control_c, 0, 64, 71
1, 960052, Control_c, 0, 64, 74
1, 960067, Control_c, 0, 64, 76
1, 960082, Control_c, 0, 64, 79
1, 960096, Control_c, 0, 64, 82
1, 960111, Control_c, 0, 64, 86
1, 960126, Control_c, 0, 64, 88
1, 960134, Note_off_c, 0, 60, 53
1, 960138, Note_on_c, 0, 49, 48
1, 960141, Control_c, 0, 64, 90
1, 960156, Control_c, 0, 64, 90
1, 960260, Control_c, 0, 64, 90
1, 960275, Control_c, 0, 64, 88
1, 960275, Control_c, 0, 67, 87
1, 960284, Note_off_c, 0, 57, 33
1, 960290, Control_c, 0, 64, 84
1, 960291, Note_off_c, 0, 49, 53
1, 960304, Control_c, 0, 64, 79
1, 960313, Note_on_c, 0, 59, 46
1, 960317, Note_on_c, 0, 56, 38
1, 960319, Control_c, 0, 64, 71
1, 960334, Control_c, 0, 64, 64
1, 960363, Control_c, 0, 64, 65
1, 960393, Control_c, 0, 64, 66
1, 960408, Control_c, 0, 64, 68
1, 960422, Control_c, 0, 64, 70
1, 960437, Control_c, 0, 64, 73
1, 960452, Control_c, 0, 64, 77
1, 960466, Note_off_c, 0, 59, 55
1, 960466, Control_c, 0, 64, 79
1, 960466, Control_c, 0, 67, 86
1, 960472, Note_on_c, 0, 49, 47
1, 960481, Control_c, 0, 64, 82
1, 960496, Control_c, 0, 64, 84
1, 960511, Control_c, 0, 64, 86
1, 960526, Control_c, 0, 64, 87
1, 960627, Note_off_c, 0, 56, 56
1, 960630, Note_off_c, 0, 49, 52
1, 960637, Control_c, 0, 64, 86
1, 960637, Control_c, 0, 67, 87
1, 960651, Note_on_c, 0, 66, 53
1, 960652, Control_c, 0, 64, 83
1, 960663, Note_off_c, 0, 61, 38
1, 960664, Note_on_c, 0, 57, 40
1, 960667, Control_c, 0, 64, 78
1, 960681, Control_c, 0, 64, 72
1, 960696, Control_c, 0, 64, 65
1, 960711, Control_c, 0, 64, 64
1, 960726, Control_c, 0, 64, 66
1, 960741, Control_c, 0, 64, 67
1, 960755, Control_c, 0, 64, 68
1, 960770, Control_c, 0, 64, 70
1, 960785, Control_c, 0, 64, 72
1, 960800, Control_c, 0, 64, 75
1, 960800, Control_c, 0, 67, 86
1, 960815, Control_c, 0, 64, 78
1, 960831, Control_c, 0, 64, 80
1, 960838, Note_on_c, 0, 49, 38
1, 960845, Control_c, 0, 64, 81
1, 960860, Control_c, 0, 64, 83
1, 960875, Control_c, 0, 64, 83
1, 960890, Control_c, 0, 64, 84
1, 960971, Note_off_c, 0, 57, 18
1, 960981, Note_off_c, 0, 66, 46
1, 960993, Control_c, 0, 64, 83
1, 961008, Control_c, 0, 64, 83
1, 961023, Control_c, 0, 64, 82
1, 961027, Note_off_c, 0, 49, 41
1, 961038, Control_c, 0, 64, 81
1, 961053, Control_c, 0, 64, 80
1, 961056, Note_on_c, 0, 65, 46
1, 961060, Note_on_c, 0, 56, 38
1, 961068, Control_c, 0, 64, 78
1, 961083, Control_c, 0, 64, 75
1, 961083, Control_c, 0, 67, 87
1, 961097, Control_c, 0, 64, 70
1, 961112, Control_c, 0, 64, 63
1, 961127, Control_c, 0, 64, 56
1, 961142, Control_c, 0, 64, 59
1, 961157, Control_c, 0, 64, 60
1, 961171, Control_c, 0, 64, 61
1, 961186, Control_c, 0, 64, 62
1, 961201, Control_c, 0, 64, 62
1, 961216, Control_c, 0, 64, 64
1, 961231, Control_c, 0, 64, 65
1, 961245, Control_c, 0, 64, 66
1, 961260, Control_c, 0, 64, 67
1, 961260, Control_c, 0, 67, 86
1, 961275, Control_c, 0, 64, 68
1, 961276, Note_on_c, 0, 49, 36
1, 961289, Control_c, 0, 64, 69
1, 961304, Control_c, 0, 64, 71
1, 961319, Control_c, 0, 64, 73
1, 961342, Control_c, 0, 64, 74
1, 961357, Control_c, 0, 64, 75
1, 961371, Control_c, 0, 64, 75
1, 961386, Control_c, 0, 64, 76
1, 961416, Control_c, 0, 64, 76
1, 961431, Control_c, 0, 64, 76
1, 961432, Note_off_c, 0, 49, 49
1, 961433, Note_on_c, 0, 66, 56
1, 961445, Control_c, 0, 64, 74
1, 961460, Control_c, 0, 64, 73
1, 961475, Control_c, 0, 64, 73
1, 961475, Control_c, 0, 67, 87
1, 961476, Note_on_c, 0, 57, 32
1, 961514, Note_off_c, 0, 65, 38
1, 961519, Control_c, 0, 64, 74
1, 961534, Control_c, 0, 64, 75
1, 961549, Control_c, 0, 64, 76
1, 961564, Control_c, 0, 64, 78
1, 961578, Control_c, 0, 64, 79
1, 961593, Control_c, 0, 64, 80
1, 961593, Control_c, 0, 67, 86
1, 961599, Note_off_c, 0, 56, 42
1, 961608, Control_c, 0, 64, 81
1, 961613, Note_on_c, 0, 49, 37
1, 961624, Control_c, 0, 64, 81
1, 961698, Control_c, 0, 64, 81
1, 961713, Control_c, 0, 64, 80
1, 961727, Control_c, 0, 64, 78
1, 961727, Control_c, 0, 67, 87
1, 961742, Control_c, 0, 64, 74
1, 961743, Note_off_c, 0, 57, 30
1, 961746, Note_on_c, 0, 68, 67
1, 961757, Note_off_c, 0, 49, 52
1, 961757, Control_c, 0, 64, 67
1, 961772, Note_on_c, 0, 53, 43
1, 961772, Control_c, 0, 64, 61
1, 961787, Control_c, 0, 64, 63
1, 961801, Control_c, 0, 64, 65
1, 961810, Note_off_c, 0, 66, 55
1, 961816, Control_c, 0, 64, 66
1, 961831, Control_c, 0, 64, 67
1, 961846, Control_c, 0, 64, 69
1, 961861, Control_c, 0, 64, 71
1, 961861, Control_c, 0, 67, 86
1, 961876, Control_c, 0, 64, 73
1, 961891, Control_c, 0, 64, 75
1, 961906, Control_c, 0, 64, 76
1, 961917, Note_off_c, 0, 53, 57
1, 961920, Note_on_c, 0, 49, 38
1, 961920, Control_c, 0, 64, 78
1, 961935, Control_c, 0, 64, 80
1, 961950, Control_c, 0, 64, 81
1, 961965, Control_c, 0, 64, 82
1, 962039, Control_c, 0, 64, 81
1, 962054, Control_c, 0, 64, 80
1, 962063, Note_on_c, 0, 69, 67
1, 962069, Control_c, 0, 64, 75
1, 962084, Note_on_c, 0, 54, 42
1, 962084, Control_c, 0, 64, 68
1, 962088, Note_off_c, 0, 49, 47
1, 962099, Note_off_c, 0, 68, 59
1, 962106, Control_c, 0, 64, 61
1, 962120, Control_c, 0, 64, 63
1, 962135, Control_c, 0, 64, 65
1, 962150, Control_c, 0, 64, 66
1, 962165, Control_c, 0, 64, 67
1, 962180, Control_c, 0, 64, 69
1, 962195, Control_c, 0, 64, 70
1, 962210, Control_c, 0, 64, 72
1, 962225, Control_c, 0, 64, 74
1, 962228, Note_on_c, 0, 49, 47
1, 962236, Note_off_c, 0, 54, 61
1, 962239, Control_c, 0, 64, 76
1, 962254, Control_c, 0, 64, 77
1, 962269, Control_c, 0, 64, 78
1, 962284, Control_c, 0, 64, 78
1, 962299, Control_c, 0, 64, 79
1, 962373, Control_c, 0, 64, 78
1, 962376, Note_off_c, 0, 49, 37
1, 962388, Note_off_c, 0, 69, 60
1, 962388, Control_c, 0, 64, 77
1, 962402, Control_c, 0, 64, 75
1, 962411, Note_on_c, 0, 73, 59
1, 962418, Control_c, 0, 64, 70
1, 962418, Control_c, 0, 67, 87
1, 962424, Note_on_c, 0, 66, 40
1, 962433, Control_c, 0, 64, 63
1, 962442, Note_on_c, 0, 64, 46
1, 962448, Control_c, 0, 64, 43
1, 962463, Control_c, 0, 64, 51
1, 962478, Control_c, 0, 64, 58
1, 962492, Control_c, 0, 64, 62
1, 962507, Control_c, 0, 64, 64
1, 962522, Control_c, 0, 64, 65
1, 962529, Note_off_c, 0, 64, 54
1, 962537, Control_c, 0, 64, 66
1, 962551, Control_c, 0, 64, 69
1, 962566, Control_c, 0, 64, 70
1, 962581, Control_c, 0, 64, 71
1, 962596, Control_c, 0, 64, 72
1, 962611, Control_c, 0, 64, 73
1, 962618, Note_on_c, 0, 49, 49
1, 962625, Control_c, 0, 64, 74
1, 962640, Control_c, 0, 64, 75
1, 962655, Control_c, 0, 64, 76
1, 962743, Control_c, 0, 64, 75
1, 962758, Control_c, 0, 64, 72
1, 962761, Note_off_c, 0, 49, 55
1, 962773, Control_c, 0, 64, 67
1, 962776, Note_on_c, 0, 71, 49
1, 962781, Note_off_c, 0, 73, 36
1, 962788, Control_c, 0, 64, 59
1, 962803, Control_c, 0, 64, 56
1, 962818, Control_c, 0, 64, 61
1, 962829, Note_on_c, 0, 62, 29
1, 962833, Control_c, 0, 64, 63
1, 962855, Control_c, 0, 64, 64
1, 962869, Control_c, 0, 64, 66
1, 962884, Control_c, 0, 64, 67
1, 962899, Control_c, 0, 64, 69
1, 962914, Control_c, 0, 64, 71
1, 962929, Control_c, 0, 64, 73
1, 962943, Control_c, 0, 64, 74
1, 962958, Control_c, 0, 64, 75
1, 962973, Control_c, 0, 64, 76
1, 962988, Control_c, 0, 64, 77
1, 962991, Note_off_c, 0, 62, 45
1, 963022, Note_on_c, 0, 49, 41
1, 963032, Control_c, 0, 64, 78
1, 963047, Control_c, 0, 64, 78
1, 963062, Control_c, 0, 64, 79
1, 963137, Control_c, 0, 64, 78
1, 963151, Control_c, 0, 64, 78
1, 963166, Control_c, 0, 64, 77
1, 963181, Control_c, 0, 64, 77
1, 963208, Note_off_c, 0, 71, 49
1, 963211, Control_c, 0, 64, 76
1, 963226, Control_c, 0, 64, 75
1, 963241, Control_c, 0, 64, 73
1, 963256, Control_c, 0, 64, 71
1, 963271, Control_c, 0, 64, 67
1, 963279, Note_off_c, 0, 66, 40
1, 963286, Control_c, 0, 64, 63
1, 963289, Note_on_c, 0, 68, 37
1, 963298, Note_on_c, 0, 65, 28
1, 963300, Control_c, 0, 64, 51
1, 963314, Note_on_c, 0, 61, 27
1, 963315, Control_c, 0, 64, 45
1, 963330, Control_c, 0, 64, 48
1, 963345, Control_c, 0, 64, 52
1, 963360, Control_c, 0, 64, 55
1, 963374, Control_c, 0, 64, 57
1, 963389, Control_c, 0, 64, 59
1, 963404, Control_c, 0, 64, 63
1, 963419, Control_c, 0, 64, 65
1, 963434, Control_c, 0, 64, 66
1, 963448, Control_c, 0, 64, 67
1, 963463, Control_c, 0, 64, 68
1, 963478, Control_c, 0, 64, 70
1, 963492, Control_c, 0, 64, 72
1, 963507, Control_c, 0, 64, 73
1, 963522, Control_c, 0, 64, 74
1, 963537, Control_c, 0, 64, 75
1, 963552, Control_c, 0, 64, 76
1, 963566, Control_c, 0, 64, 77
1, 963578, Note_off_c, 0, 65, 36
1, 963581, Control_c, 0, 64, 78
1, 963602, Note_off_c, 0, 68, 36
1, 963604, Control_c, 0, 64, 80
1, 963619, Control_c, 0, 64, 81
1, 963634, Control_c, 0, 64, 83
1, 963644, Note_off_c, 0, 61, 38
1, 963648, Control_c, 0, 64, 83
1, 963695, Note_off_c, 0, 49, 32
1, 963796, Control_c, 0, 64, 83
1, 963811, Control_c, 0, 64, 82
1, 963826, Control_c, 0, 64, 82
1, 963855, Control_c, 0, 64, 81
1, 963870, Control_c, 0, 64, 81
1, 963885, Control_c, 0, 64, 80
1, 963900, Control_c, 0, 64, 79
1, 963915, Control_c, 0, 64, 78
1, 963930, Control_c, 0, 64, 77
1, 963944, Control_c, 0, 64, 77
1, 963959, Control_c, 0, 64, 76
1, 963974, Control_c, 0, 64, 75
1, 963989, Control_c, 0, 64, 74
1, 963989, Control_c, 0, 67, 87
1, 964004, Control_c, 0, 64, 73
1, 964019, Control_c, 0, 64, 72
1, 964019, Control_c, 0, 67, 88
1, 964034, Control_c, 0, 64, 70
1, 964049, Control_c, 0, 64, 69
1, 964064, Control_c, 0, 64, 68
1, 964094, Control_c, 0, 64, 67
1, 964108, Control_c, 0, 64, 67
1, 964123, Control_c, 0, 64, 66
1, 964138, Control_c, 0, 64, 66
1, 964168, Control_c, 0, 64, 65
1, 964182, Control_c, 0, 64, 65
1, 964197, Control_c, 0, 64, 64
1, 964226, Control_c, 0, 64, 64
1, 964270, Control_c, 0, 64, 63
1, 964285, Control_c, 0, 64, 62
1, 964367, Control_c, 0, 64, 61
1, 964382, Control_c, 0, 64, 56
1, 964396, Control_c, 0, 64, 48
1, 964411, Control_c, 0, 64, 42
1, 964430, Note_on_c, 0, 74, 45
1, 964452, Note_on_c, 0, 62, 32
1, 964455, Control_c, 0, 64, 45
1, 964470, Control_c, 0, 64, 49
1, 964485, Control_c, 0, 64, 53
1, 964500, Control_c, 0, 64, 56
1, 964514, Control_c, 0, 64, 59
1, 964529, Control_c, 0, 64, 62
1, 964544, Control_c, 0, 64, 64
1, 964559, Control_c, 0, 64, 65
1, 964574, Control_c, 0, 64, 67
1, 964588, Control_c, 0, 64, 68
1, 964603, Control_c, 0, 64, 69
1, 964618, Control_c, 0, 64, 71
1, 964633, Control_c, 0, 64, 72
1, 964648, Control_c, 0, 64, 73
1, 964663, Control_c, 0, 64, 74
1, 964663, Control_c, 0, 67, 87
1, 964678, Control_c, 0, 64, 76
1, 964693, Control_c, 0, 64, 77
1, 964708, Control_c, 0, 64, 78
1, 964722, Control_c, 0, 64, 79
1, 964737, Control_c, 0, 64, 81
1, 964737, Control_c, 0, 67, 87
1, 964752, Control_c, 0, 64, 82
1, 964767, Control_c, 0, 64, 84
1, 964782, Control_c, 0, 64, 85
1, 964796, Control_c, 0, 64, 86
1, 964802, Note_off_c, 0, 62, 40
1, 964812, Control_c, 0, 64, 87
1, 964816, Note_on_c, 0, 50, 36
1, 964827, Control_c, 0, 64, 88
1, 964842, Control_c, 0, 64, 89
1, 964857, Control_c, 0, 64, 90
1, 964872, Control_c, 0, 64, 91
1, 964886, Control_c, 0, 64, 92
1, 964901, Control_c, 0, 64, 92
1, 964916, Control_c, 0, 64, 93
1, 964926, Note_off_c, 0, 50, 38
1, 965220, Control_c, 0, 64, 92
1, 965235, Control_c, 0, 67, 87
1, 965250, Control_c, 0, 64, 92
1, 965255, Note_on_c, 0, 63, 31
1, 965264, Control_c, 0, 64, 91
1, 965267, Note_on_c, 0, 75, 55
1, 965294, Control_c, 0, 64, 91
1, 965309, Control_c, 0, 64, 90
1, 965324, Control_c, 0, 64, 90
1, 965338, Control_c, 0, 64, 89
1, 965353, Control_c, 0, 64, 89
1, 965353, Control_c, 0, 67, 88
1, 965360, Note_off_c, 0, 74, 35
1, 965368, Control_c, 0, 64, 88
1, 965383, Control_c, 0, 64, 87
1, 965398, Control_c, 0, 64, 83
1, 965412, Control_c, 0, 64, 78
1, 965427, Control_c, 0, 64, 71
1, 965442, Control_c, 0, 64, 63
1, 965457, Control_c, 0, 64, 54
1, 965471, Control_c, 0, 64, 61
1, 965486, Control_c, 0, 64, 64
1, 965501, Control_c, 0, 64, 66
1, 965516, Control_c, 0, 64, 67
1, 965531, Control_c, 0, 64, 69
1, 965545, Control_c, 0, 64, 70
1, 965560, Control_c, 0, 64, 72
1, 965575, Control_c, 0, 64, 74
1, 965590, Control_c, 0, 64, 75
1, 965605, Control_c, 0, 64, 76
1, 965621, Control_c, 0, 64, 77
1, 965635, Control_c, 0, 64, 79
1, 965650, Control_c, 0, 64, 80
1, 965664, Note_off_c, 0, 63, 37
1, 965665, Note_on_c, 0, 51, 30
1, 965665, Control_c, 0, 64, 82
1, 965680, Control_c, 0, 64, 83
1, 965694, Control_c, 0, 64, 85
1, 965709, Control_c, 0, 64, 86
1, 965724, Control_c, 0, 64, 87
1, 965739, Control_c, 0, 64, 89
1, 965754, Control_c, 0, 64, 90
1, 965769, Control_c, 0, 64, 90
1, 965784, Control_c, 0, 64, 91
1, 965799, Control_c, 0, 64, 92
1, 965814, Control_c, 0, 64, 93
1, 965824, Note_off_c, 0, 51, 45
1, 965828, Control_c, 0, 64, 93
1, 965850, Control_c, 0, 64, 94
1, 965881, Note_on_c, 0, 63, 35
1, 965909, Control_c, 0, 64, 95
1, 965969, Control_c, 0, 64, 94
1, 966053, Note_on_c, 0, 51, 36
1, 966176, Control_c, 0, 64, 93
1, 966191, Control_c, 0, 64, 92
1, 966206, Control_c, 0, 64, 90
1, 966220, Control_c, 0, 64, 86
1, 966233, Note_on_c, 0, 68, 48
1, 966235, Control_c, 0, 64, 82
1, 966236, Note_off_c, 0, 51, 44
1, 966250, Control_c, 0, 64, 80
1, 966258, Note_on_c, 0, 59, 32
1, 966258, Note_off_c, 0, 63, 35
1, 966309, Control_c, 0, 64, 80
1, 966324, Control_c, 0, 64, 81
1, 966339, Control_c, 0, 64, 81
1, 966354, Control_c, 0, 64, 82
1, 966368, Control_c, 0, 64, 83
1, 966383, Control_c, 0, 64, 84
1, 966398, Control_c, 0, 64, 84
1, 966401, Note_off_c, 0, 75, 35
1, 966414, Control_c, 0, 64, 85
1, 966436, Note_on_c, 0, 51, 36
1, 966444, Control_c, 0, 64, 85
1, 966458, Control_c, 0, 64, 83
1, 966459, Note_off_c, 0, 59, 33
1, 966562, Control_c, 0, 64, 84
1, 966562, Control_c, 0, 67, 87
1, 966569, Note_on_c, 0, 70, 68
1, 966577, Control_c, 0, 64, 85
1, 966591, Note_on_c, 0, 61, 36
1, 966597, Note_off_c, 0, 51, 47
1, 966599, Control_c, 0, 64, 85
1, 966607, Note_off_c, 0, 68, 57
1, 966614, Control_c, 0, 64, 86
1, 966629, Control_c, 0, 64, 86
1, 966643, Control_c, 0, 64, 87
1, 966717, Control_c, 0, 64, 87
1, 966758, Note_off_c, 0, 61, 39
1, 966782, Note_on_c, 0, 51, 43
1, 966836, Control_c, 0, 64, 87
1, 966881, Control_c, 0, 64, 86
1, 966896, Control_c, 0, 64, 86
1, 966910, Control_c, 0, 64, 85
1, 966925, Control_c, 0, 64, 85
1, 966940, Control_c, 0, 64, 84
1, 966940, Control_c, 0, 67, 88
1, 966955, Control_c, 0, 64, 83
1, 966968, Note_off_c, 0, 51, 44
1, 966970, Control_c, 0, 64, 82
1, 966984, Control_c, 0, 64, 80
1, 966994, Note_on_c, 0, 63, 49
1, 966999, Control_c, 0, 64, 75
1, 967006, Note_off_c, 0, 70, 37
1, 967014, Control_c, 0, 64, 68
1, 967016, Note_on_c, 0, 55, 37
1, 967028, Control_c, 0, 64, 57
1, 967043, Control_c, 0, 64, 45
1, 967058, Control_c, 0, 64, 50
1, 967073, Control_c, 0, 64, 53
1, 967088, Control_c, 0, 64, 55
1, 967103, Control_c, 0, 64, 57
1, 967117, Control_c, 0, 64, 59
1, 967132, Control_c, 0, 64, 60
1, 967147, Control_c, 0, 64, 62
1, 967162, Control_c, 0, 64, 63
1, 967177, Control_c, 0, 64, 64
1, 967191, Control_c, 0, 64, 64
1, 967207, Control_c, 0, 64, 65
1, 967222, Control_c, 0, 64, 66
1, 967237, Control_c, 0, 64, 67
1, 967238, Note_off_c, 0, 55, 50
1, 967252, Control_c, 0, 64, 68
1, 967266, Control_c, 0, 64, 69
1, 967281, Control_c, 0, 64, 70
1, 967286, Note_on_c, 0, 51, 34
1, 967296, Control_c, 0, 64, 72
1, 967311, Control_c, 0, 64, 73
1, 967326, Control_c, 0, 64, 73
1, 967348, Control_c, 0, 64, 74
1, 967363, Control_c, 0, 64, 75
1, 967378, Control_c, 0, 64, 76
1, 967393, Control_c, 0, 64, 76
1, 967422, Control_c, 0, 64, 77
1, 967425, Note_off_c, 0, 51, 51
1, 967452, Control_c, 0, 64, 77
1, 967463, Note_on_c, 0, 55, 42
1, 967466, Control_c, 0, 64, 78
1, 967481, Control_c, 0, 64, 78
1, 967511, Control_c, 0, 64, 78
1, 967526, Control_c, 0, 64, 76
1, 967540, Control_c, 0, 64, 73
1, 967555, Control_c, 0, 64, 72
1, 967563, Note_off_c, 0, 55, 55
1, 967585, Control_c, 0, 64, 72
1, 967600, Control_c, 0, 64, 73
1, 967605, Note_on_c, 0, 49, 45
1, 967614, Control_c, 0, 64, 73
1, 967629, Control_c, 0, 64, 74
1, 967644, Control_c, 0, 64, 75
1, 967659, Control_c, 0, 64, 75
1, 967674, Control_c, 0, 64, 76
1, 967718, Control_c, 0, 64, 75
1, 967731, Note_off_c, 0, 49, 55
1, 967733, Control_c, 0, 64, 73
1, 967748, Control_c, 0, 64, 71
1, 967763, Control_c, 0, 64, 70
1, 967769, Note_on_c, 0, 56, 45
1, 967778, Control_c, 0, 64, 70
1, 967793, Control_c, 0, 64, 71
1, 967807, Control_c, 0, 64, 71
1, 967822, Control_c, 0, 64, 72
1, 967837, Control_c, 0, 64, 73
1, 967852, Control_c, 0, 64, 73
1, 967867, Note_off_c, 0, 56, 61
1, 967881, Control_c, 0, 64, 74
1, 967926, Control_c, 0, 64, 74
1, 967933, Note_on_c, 0, 47, 43
1, 967940, Control_c, 0, 64, 75
1, 967955, Control_c, 0, 64, 75
1, 968016, Control_c, 0, 64, 76
1, 968060, Control_c, 0, 64, 75
1, 968075, Control_c, 0, 64, 74
1, 968093, Note_off_c, 0, 47, 42
1, 968097, Control_c, 0, 64, 70
1, 968097, Control_c, 0, 67, 88
1, 968111, Note_on_c, 0, 68, 50
1, 968112, Control_c, 0, 64, 64
1, 968127, Control_c, 0, 64, 49
1, 968136, Note_on_c, 0, 59, 39
1, 968142, Control_c, 0, 64, 50
1, 968157, Control_c, 0, 64, 58
1, 968171, Control_c, 0, 64, 61
1, 968186, Control_c, 0, 64, 63
1, 968201, Control_c, 0, 64, 65
1, 968216, Control_c, 0, 64, 67
1, 968231, Control_c, 0, 64, 69
1, 968245, Control_c, 0, 64, 70
1, 968260, Control_c, 0, 64, 71
1, 968275, Control_c, 0, 64, 72
1, 968289, Control_c, 0, 64, 73
1, 968304, Control_c, 0, 64, 75
1, 968319, Control_c, 0, 64, 76
1, 968324, Note_off_c, 0, 59, 37
1, 968332, Note_on_c, 0, 47, 36
1, 968334, Control_c, 0, 64, 77
1, 968349, Control_c, 0, 64, 79
1, 968351, Note_off_c, 0, 63, 34
1, 968363, Control_c, 0, 64, 80
1, 968378, Control_c, 0, 64, 81
1, 968393, Control_c, 0, 64, 83
1, 968393, Control_c, 0, 67, 88
1, 968408, Control_c, 0, 64, 84
1, 968423, Control_c, 0, 64, 85
1, 968437, Control_c, 0, 64, 86
1, 968452, Control_c, 0, 64, 86
1, 968571, Control_c, 0, 64, 86
1, 968601, Control_c, 0, 64, 85
1, 968607, Note_on_c, 0, 62, 47
1, 968615, Control_c, 0, 64, 85
1, 968616, Note_off_c, 0, 47, 39
1, 968630, Control_c, 0, 64, 84
1, 968631, Note_on_c, 0, 59, 33
1, 968638, Note_off_c, 0, 68, 38
1, 968645, Control_c, 0, 64, 82
1, 968660, Control_c, 0, 64, 79
1, 968675, Control_c, 0, 64, 73
1, 968689, Control_c, 0, 64, 66
1, 968704, Control_c, 0, 64, 54
1, 968734, Control_c, 0, 64, 58
1, 968749, Control_c, 0, 64, 59
1, 968763, Control_c, 0, 64, 61
1, 968778, Control_c, 0, 64, 62
1, 968793, Control_c, 0, 64, 64
1, 968809, Control_c, 0, 64, 66
1, 968831, Control_c, 0, 64, 68
1, 968846, Control_c, 0, 64, 69
1, 968846, Control_c, 0, 67, 87
1, 968860, Control_c, 0, 64, 70
1, 968875, Control_c, 0, 64, 72
1, 968875, Control_c, 0, 67, 87
1, 968890, Control_c, 0, 64, 73
1, 968905, Control_c, 0, 64, 75
1, 968920, Control_c, 0, 64, 77
1, 968935, Control_c, 0, 64, 78
1, 968949, Control_c, 0, 64, 80
1, 968953, Note_on_c, 0, 47, 31
1, 968964, Control_c, 0, 64, 82
1, 968979, Control_c, 0, 64, 83
1, 968979, Control_c, 0, 67, 86
1, 968994, Control_c, 0, 64, 84
1, 969009, Control_c, 0, 64, 86
1, 969024, Control_c, 0, 64, 88
1, 969038, Control_c, 0, 64, 89
1, 969053, Control_c, 0, 64, 90
1, 969068, Control_c, 0, 64, 92
1, 969083, Control_c, 0, 64, 92
1, 969098, Control_c, 0, 64, 93
1, 969112, Control_c, 0, 64, 94
1, 969125, Note_off_c, 0, 59, 22
1, 969142, Control_c, 0, 64, 94
1, 969157, Control_c, 0, 64, 95
1, 969186, Control_c, 0, 64, 96
1, 969201, Control_c, 0, 64, 97
1, 969216, Control_c, 0, 64, 97
1, 969230, Control_c, 0, 64, 98
1, 969303, Note_on_c, 0, 74, 52
1, 969304, Control_c, 0, 64, 98
1, 969327, Note_off_c, 0, 47, 36
1, 969349, Note_on_c, 0, 56, 24
1, 969482, Control_c, 0, 64, 99
1, 969558, Note_off_c, 0, 56, 43
1, 969620, Note_on_c, 0, 47, 18
1, 969757, Control_c, 0, 64, 99
1, 969834, Note_on_c, 0, 71, 49
1, 969834, Note_off_c, 0, 47, 43
1, 969846, Control_c, 0, 64, 100
1, 969861, Note_on_c, 0, 56, 37
1, 969883, Note_off_c, 0, 74, 31
1, 969890, Control_c, 0, 64, 100
1, 969998, Note_off_c, 0, 56, 43
1, 970029, Note_on_c, 0, 47, 31
1, 970157, Note_off_c, 0, 71, 57
1, 970158, Note_off_c, 0, 47, 41
1, 970181, Note_off_c, 0, 62, 38
1, 970181, Note_on_c, 0, 68, 47
1, 970199, Note_on_c, 0, 59, 33
1, 970259, Control_c, 0, 67, 86
1, 970314, Note_off_c, 0, 59, 37
1, 970342, Note_on_c, 0, 47, 28
1, 970416, Control_c, 0, 64, 99
1, 970431, Control_c, 0, 64, 98
1, 970446, Control_c, 0, 64, 95
1, 970446, Control_c, 0, 67, 86
1, 970461, Control_c, 0, 64, 90
1, 970476, Control_c, 0, 64, 81
1, 970481, Note_off_c, 0, 68, 56
1, 970490, Control_c, 0, 64, 71
1, 970505, Control_c, 0, 64, 61
1, 970508, Note_on_c, 0, 57, 33
1, 970519, Note_on_c, 0, 66, 42
1, 970520, Note_on_c, 0, 61, 26
1, 970520, Control_c, 0, 64, 58
1, 970526, Note_off_c, 0, 47, 33
1, 970535, Control_c, 0, 64, 61
1, 970550, Control_c, 0, 64, 62
1, 970564, Control_c, 0, 64, 63
1, 970579, Control_c, 0, 64, 65
1, 970594, Control_c, 0, 64, 67
1, 970603, Note_off_c, 0, 66, 60
1, 970609, Control_c, 0, 64, 69
1, 970623, Control_c, 0, 64, 71
1, 970632, Note_on_c, 0, 68, 48
1, 970635, Note_off_c, 0, 57, 52
1, 970638, Control_c, 0, 64, 72
1, 970653, Control_c, 0, 64, 74
1, 970668, Control_c, 0, 64, 75
1, 970675, Note_on_c, 0, 49, 42
1, 970678, Note_off_c, 0, 68, 62
1, 970682, Control_c, 0, 64, 77
1, 970697, Control_c, 0, 64, 78
1, 970708, Note_on_c, 0, 66, 49
1, 970712, Control_c, 0, 64, 80
1, 970720, Note_off_c, 0, 61, 47
1, 970727, Control_c, 0, 64, 81
1, 970737, Note_off_c, 0, 49, 50
1, 970740, Note_off_c, 0, 66, 64
1, 970742, Control_c, 0, 64, 83
1, 970756, Note_on_c, 0, 68, 49
1, 970756, Control_c, 0, 64, 84
1, 970771, Control_c, 0, 64, 86
1, 970774, Note_on_c, 0, 57, 40
1, 970786, Control_c, 0, 64, 87
1, 970786, Control_c, 0, 67, 86
1, 970790, Note_off_c, 0, 68, 64
1, 970801, Control_c, 0, 64, 87
1, 970810, Note_on_c, 0, 66, 57
1, 970833, Note_off_c, 0, 66, 62
1, 970854, Note_on_c, 0, 68, 67
1, 970875, Note_off_c, 0, 57, 54
1, 970892, Note_off_c, 0, 68, 59
1, 970911, Note_on_c, 0, 66, 53
1, 970926, Note_on_c, 0, 49, 41
1, 970959, Note_on_c, 0, 65, 63
1, 970979, Note_off_c, 0, 66, 0
1, 970994, Note_on_c, 0, 66, 36
1, 971009, Control_c, 0, 67, 86
1, 971016, Note_off_c, 0, 49, 46
1, 971017, Note_off_c, 0, 65, 43
1, 971024, Control_c, 0, 64, 87
1, 971039, Control_c, 0, 64, 85
1, 971054, Control_c, 0, 64, 82
1, 971069, Control_c, 0, 64, 75
1, 971071, Note_off_c, 0, 66, 62
1, 971081, Note_on_c, 0, 68, 60
1, 971084, Note_on_c, 0, 59, 37
1, 971090, Control_c, 0, 64, 66
1, 971105, Control_c, 0, 64, 0
1, 971150, Control_c, 0, 64, 11
1, 971164, Control_c, 0, 64, 43
1, 971179, Control_c, 0, 64, 55
1, 971189, Note_off_c, 0, 59, 37
1, 971194, Control_c, 0, 64, 62
1, 971210, Control_c, 0, 64, 64
1, 971225, Control_c, 0, 64, 66
1, 971232, Note_on_c, 0, 49, 45
1, 971240, Control_c, 0, 64, 68
1, 971254, Control_c, 0, 64, 69
1, 971269, Control_c, 0, 64, 70
1, 971284, Control_c, 0, 64, 71
1, 971299, Control_c, 0, 64, 72
1, 971313, Control_c, 0, 64, 74
1, 971328, Control_c, 0, 64, 75
1, 971343, Control_c, 0, 64, 77
1, 971354, Note_off_c, 0, 49, 37
1, 971358, Control_c, 0, 64, 78
1, 971373, Control_c, 0, 64, 79
1, 971387, Note_off_c, 0, 68, 60
1, 971388, Control_c, 0, 64, 81
1, 971403, Control_c, 0, 64, 83
1, 971405, Note_on_c, 0, 73, 62
1, 971418, Control_c, 0, 64, 85
1, 971424, Note_on_c, 0, 65, 37
1, 971426, Note_on_c, 0, 59, 34
1, 971432, Control_c, 0, 64, 86
1, 971447, Control_c, 0, 64, 88
1, 971462, Control_c, 0, 64, 89
1, 971477, Control_c, 0, 64, 91
1, 971492, Control_c, 0, 64, 92
1, 971506, Control_c, 0, 64, 93
1, 971521, Control_c, 0, 64, 93
1, 971551, Control_c, 0, 64, 94
1, 971581, Note_off_c, 0, 59, 34
1, 971593, Note_on_c, 0, 49, 49
1, 971625, Note_off_c, 0, 49, 56
1, 971673, Note_off_c, 0, 73, 53
1, 971772, Control_c, 0, 64, 93
1, 971802, Control_c, 0, 64, 93
1, 971832, Note_on_c, 0, 73, 52
1, 971839, Control_c, 0, 64, 92
1, 971840, Note_off_c, 0, 65, 42
1, 971854, Control_c, 0, 64, 91
1, 971855, Note_on_c, 0, 42, 39
1, 971859, Note_on_c, 0, 66, 36
1, 971869, Control_c, 0, 64, 88
1, 971884, Control_c, 0, 64, 82
1, 971899, Control_c, 0, 64, 74
1, 971899, Control_c, 0, 67, 87
1, 971913, Control_c, 0, 64, 64
1, 971928, Control_c, 0, 64, 44
1, 971943, Control_c, 0, 64, 48
1, 971958, Control_c, 0, 64, 54
1, 971973, Control_c, 0, 64, 56
1, 971987, Control_c, 0, 64, 58
1, 972003, Control_c, 0, 64, 60
1, 972018, Control_c, 0, 64, 62
1, 972033, Control_c, 0, 64, 64
1, 972048, Control_c, 0, 64, 65
1, 972048, Control_c, 0, 67, 86
1, 972062, Control_c, 0, 64, 66
1, 972077, Control_c, 0, 64, 67
1, 972092, Control_c, 0, 64, 69
1, 972107, Control_c, 0, 64, 71
1, 972122, Control_c, 0, 64, 72
1, 972136, Control_c, 0, 64, 74
1, 972145, Note_on_c, 0, 49, 43
1, 972151, Control_c, 0, 64, 75
1, 972166, Control_c, 0, 64, 76
1, 972166, Control_c, 0, 67, 86
1, 972181, Control_c, 0, 64, 77
1, 972196, Control_c, 0, 64, 78
1, 972211, Control_c, 0, 64, 79
1, 972211, Control_c, 0, 67, 85
1, 972225, Control_c, 0, 64, 80
1, 972240, Control_c, 0, 64, 81
1, 972240, Control_c, 0, 67, 85
1, 972253, Note_off_c, 0, 49, 54
1, 972255, Control_c, 0, 64, 82
1, 972270, Control_c, 0, 64, 82
1, 972285, Control_c, 0, 64, 83
1, 972300, Control_c, 0, 67, 84
1, 972309, Note_off_c, 0, 73, 34
1, 972311, Note_on_c, 0, 54, 43
1, 972344, Control_c, 0, 64, 83
1, 972349, Note_off_c, 0, 42, 40
1, 972354, Note_off_c, 0, 66, 36
1, 972359, Control_c, 0, 67, 84
1, 972391, Note_off_c, 0, 54, 53
1, 972433, Control_c, 0, 64, 84
1, 972447, Control_c, 0, 64, 84
1, 972452, Note_on_c, 0, 49, 49
1, 972492, Control_c, 0, 67, 83
1, 972521, Control_c, 0, 67, 83
1, 972537, Note_off_c, 0, 49, 46
1, 972588, Control_c, 0, 67, 82
1, 972596, Note_on_c, 0, 57, 45
1, 972603, Control_c, 0, 67, 82
1, 972618, Control_c, 0, 67, 81
1, 972633, Control_c, 0, 67, 80
1, 972647, Control_c, 0, 67, 79
1, 972662, Control_c, 0, 67, 79
1, 972677, Control_c, 0, 67, 78
1, 972692, Control_c, 0, 67, 78
1, 972707, Control_c, 0, 67, 77
1, 972708, Note_off_c, 0, 57, 54
1, 972722, Control_c, 0, 67, 77
1, 972736, Control_c, 0, 67, 76
1, 972744, Note_on_c, 0, 54, 44
1, 972751, Control_c, 0, 64, 85
1, 972766, Control_c, 0, 67, 76
1, 972780, Control_c, 0, 64, 85
1, 972780, Control_c, 0, 67, 75
1, 972795, Control_c, 0, 64, 86
1, 972795, Control_c, 0, 67, 75
1, 972812, Control_c, 0, 64, 87
1, 972812, Control_c, 0, 67, 74
1, 972813, Note_off_c, 0, 54, 54
1, 972826, Control_c, 0, 67, 74
1, 972841, Control_c, 0, 67, 73
1, 972856, Control_c, 0, 67, 72
1, 972871, Control_c, 0, 67, 71
1, 972885, Control_c, 0, 67, 70
1, 972895, Note_on_c, 0, 61, 48
1, 972900, Control_c, 0, 67, 69
1, 972915, Control_c, 0, 67, 68
1, 972930, Control_c, 0, 67, 66
1, 972945, Control_c, 0, 67, 65
1, 972959, Control_c, 0, 64, 87
1, 972959, Control_c, 0, 67, 64
1, 972974, Control_c, 0, 64, 88
1, 972974, Control_c, 0, 67, 63
1, 972989, Control_c, 0, 64, 90
1, 972989, Control_c, 0, 67, 61
1, 972993, Note_off_c, 0, 61, 61
1, 973004, Control_c, 0, 64, 90
1, 973004, Control_c, 0, 67, 59
1, 973014, Note_on_c, 0, 57, 53
1, 973019, Control_c, 0, 67, 56
1, 973033, Control_c, 0, 67, 54
1, 973048, Control_c, 0, 67, 52
1, 973063, Control_c, 0, 67, 50
1, 973078, Control_c, 0, 67, 48
1, 973093, Control_c, 0, 64, 89
1, 973093, Control_c, 0, 67, 47
1, 973108, Control_c, 0, 64, 88
1, 973108, Control_c, 0, 67, 46
1, 973123, Control_c, 0, 64, 86
1, 973123, Control_c, 0, 67, 45
1, 973132, Note_off_c, 0, 57, 55
1, 973138, Control_c, 0, 64, 85
1, 973138, Control_c, 0, 67, 44
1, 973152, Control_c, 0, 67, 43
1, 973159, Note_on_c, 0, 66, 56
1, 973167, Control_c, 0, 67, 42
1, 973182, Control_c, 0, 67, 40
1, 973196, Control_c, 0, 64, 86
1, 973196, Control_c, 0, 67, 38
1, 973211, Control_c, 0, 64, 87
1, 973211, Control_c, 0, 67, 37
1, 973226, Control_c, 0, 64, 88
1, 973226, Control_c, 0, 67, 35
1, 973232, Note_off_c, 0, 66, 61
1, 973241, Control_c, 0, 64, 89
1, 973241, Control_c, 0, 67, 32
1, 973256, Control_c, 0, 64, 89
1, 973256, Control_c, 0, 67, 29
1, 973270, Control_c, 0, 67, 27
1, 973285, Control_c, 0, 67, 25
1, 973287, Note_on_c, 0, 61, 66
1, 973300, Control_c, 0, 64, 89
1, 973300, Control_c, 0, 67, 23
1, 973315, Control_c, 0, 64, 86
1, 973315, Control_c, 0, 67, 20
1, 973337, Control_c, 0, 64, 82
1, 973337, Control_c, 0, 67, 17
1, 973352, Control_c, 0, 64, 80
1, 973352, Control_c, 0, 67, 16
1, 973367, Control_c, 0, 67, 13
1, 973382, Control_c, 0, 67, 11
1, 973397, Control_c, 0, 64, 80
1, 973397, Control_c, 0, 67, 0
1, 973411, Control_c, 0, 64, 81
1, 973426, Control_c, 0, 64, 83
1, 973427, Note_on_c, 0, 69, 73
1, 973441, Control_c, 0, 64, 84
1, 973456, Control_c, 0, 64, 86
1, 973470, Note_off_c, 0, 61, 52
1, 973471, Control_c, 0, 64, 87
1, 973485, Control_c, 0, 64, 89
1, 973500, Control_c, 0, 64, 91
1, 973515, Control_c, 0, 64, 93
1, 973530, Control_c, 0, 64, 95
1, 973545, Control_c, 0, 64, 96
1, 973551, Note_on_c, 0, 66, 79
1, 973574, Control_c, 0, 64, 96
1, 973589, Control_c, 0, 64, 97
1, 973605, Control_c, 0, 64, 97
1, 973632, Note_off_c, 0, 69, 49
1, 973679, Control_c, 0, 64, 93
1, 973694, Control_c, 0, 64, 85
1, 973708, Control_c, 0, 64, 74
1, 973723, Control_c, 0, 64, 66
1, 973732, Note_on_c, 0, 73, 80
1, 973753, Control_c, 0, 64, 69
1, 973761, Note_off_c, 0, 66, 62
1, 973768, Control_c, 0, 64, 71
1, 973782, Control_c, 0, 64, 73
1, 973797, Control_c, 0, 64, 77
1, 973812, Control_c, 0, 64, 80
1, 973826, Control_c, 0, 64, 83
1, 973836, Note_off_c, 0, 73, 61
1, 973841, Control_c, 0, 64, 86
1, 973856, Control_c, 0, 64, 88
1, 973871, Control_c, 0, 64, 90
1, 973886, Control_c, 0, 64, 92
1, 973901, Control_c, 0, 64, 94
1, 973916, Control_c, 0, 64, 95
1, 974100, Control_c, 0, 64, 93
1, 974115, Control_c, 0, 64, 85
1, 974130, Control_c, 0, 64, 70
1, 974145, Control_c, 0, 64, 0
1, 974248, Note_on_c, 0, 78, 83
1, 974249, Control_c, 0, 64, 45
1, 974264, Control_c, 0, 64, 62
1, 974269, Note_on_c, 0, 66, 52
1, 974279, Control_c, 0, 64, 68
1, 974294, Control_c, 0, 64, 72
1, 974308, Control_c, 0, 64, 77
1, 974323, Control_c, 0, 64, 82
1, 974338, Control_c, 0, 64, 87
1, 974353, Control_c, 0, 64, 91
1, 974368, Control_c, 0, 64, 94
1, 974382, Control_c, 0, 64, 95
1, 974398, Control_c, 0, 64, 97
1, 974413, Control_c, 0, 64, 99
1, 974428, Control_c, 0, 64, 101
1, 974440, Note_off_c, 0, 66, 51
1, 974443, Control_c, 0, 64, 101
1, 974457, Control_c, 0, 64, 102
1, 974487, Control_c, 0, 64, 103
1, 974502, Control_c, 0, 64, 103
1, 974694, Note_off_c, 0, 78, 30
1, 974753, Control_c, 0, 64, 102
1, 974768, Control_c, 0, 64, 101
1, 974783, Control_c, 0, 64, 97
1, 974798, Control_c, 0, 64, 89
1, 974813, Control_c, 0, 64, 76
1, 974814, Note_on_c, 0, 78, 68
1, 974831, Note_on_c, 0, 42, 30
1, 974835, Control_c, 0, 64, 65
1, 974840, Note_on_c, 0, 66, 42
1, 974849, Control_c, 0, 64, 64
1, 974864, Control_c, 0, 64, 68
1, 974879, Control_c, 0, 64, 71
1, 974894, Control_c, 0, 64, 73
1, 974909, Control_c, 0, 64, 78
1, 974909, Control_c, 0, 67, 8
1, 974923, Control_c, 0, 64, 83
1, 974923, Control_c, 0, 67, 9
1, 974938, Control_c, 0, 64, 87
1, 974938, Control_c, 0, 67, 11
1, 974953, Control_c, 0, 64, 90
1, 974953, Control_c, 0, 67, 11
1, 974968, Control_c, 0, 64, 91
1, 974968, Control_c, 0, 67, 12
1, 974977, Note_off_c, 0, 42, 56
1, 974983, Control_c, 0, 64, 93
1, 974983, Control_c, 0, 67, 12
1, 974998, Control_c, 0, 64, 95
1, 975013, Control_c, 0, 64, 96
1, 975013, Control_c, 0, 67, 13
1, 975027, Control_c, 0, 64, 98
1, 975027, Control_c, 0, 67, 14
1, 975042, Control_c, 0, 64, 100
1, 975042, Control_c, 0, 67, 15
1, 975057, Control_c, 0, 64, 101
1, 975057, Control_c, 0, 67, 15
1, 975072, Control_c, 0, 64, 102
1, 975072, Control_c, 0, 67, 16
1, 975087, Control_c, 0, 64, 103
1, 975087, Control_c, 0, 67, 16
1, 975102, Control_c, 0, 64, 104
1, 975102, Control_c, 0, 67, 17
1, 975117, Control_c, 0, 64, 104
1, 975117, Control_c, 0, 67, 17
1, 975131, Control_c, 0, 64, 105
1, 975131, Control_c, 0, 67, 18
1, 975161, Control_c, 0, 64, 105
1, 975161, Control_c, 0, 67, 19
1, 975177, Note_on_c, 0, 58, 33
1, 975206, Control_c, 0, 67, 19
1, 975280, Control_c, 0, 64, 106
1, 975354, Control_c, 0, 67, 19
1, 975361, Note_off_c, 0, 58, 40
1, 975365, Note_on_c, 0, 61, 36
1, 975443, Control_c, 0, 67, 18
1, 975472, Control_c, 0, 67, 18
1, 975505, Note_off_c, 0, 61, 41
1, 975506, Note_on_c, 0, 54, 25
1, 975517, Control_c, 0, 67, 17
1, 975560, Note_off_c, 0, 54, 47
1, 975561, Control_c, 0, 64, 105
1, 975561, Control_c, 0, 67, 17
1, 975628, Control_c, 0, 64, 105
1, 975642, Note_on_c, 0, 62, 44
1, 975643, Control_c, 0, 64, 101
1, 975648, Note_on_c, 0, 71, 57
1, 975658, Control_c, 0, 64, 98
1, 975672, Control_c, 0, 64, 92
1, 975687, Control_c, 0, 64, 92
1, 975711, Note_off_c, 0, 66, 37
1, 975717, Control_c, 0, 67, 16
1, 975746, Control_c, 0, 64, 92
1, 975746, Control_c, 0, 67, 16
1, 975761, Note_off_c, 0, 62, 55
1, 975761, Control_c, 0, 64, 94
1, 975775, Note_on_c, 0, 54, 52
1, 975776, Control_c, 0, 64, 95
1, 975791, Control_c, 0, 64, 95
1, 975806, Control_c, 0, 64, 96
1, 975820, Control_c, 0, 67, 15
1, 975835, Control_c, 0, 64, 97
1, 975850, Control_c, 0, 64, 97
1, 975880, Control_c, 0, 64, 96
1, 975895, Control_c, 0, 64, 92
1, 975900, Note_off_c, 0, 54, 55
1, 975910, Control_c, 0, 64, 86
1, 975913, Note_on_c, 0, 64, 58
1, 975919, Note_on_c, 0, 73, 64
1, 975925, Control_c, 0, 64, 79
1, 975940, Note_off_c, 0, 71, 57
1, 975940, Control_c, 0, 64, 76
1, 975954, Control_c, 0, 64, 77
1, 975954, Control_c, 0, 67, 16
1, 975969, Control_c, 0, 64, 79
1, 975984, Control_c, 0, 64, 82
1, 975999, Control_c, 0, 64, 86
1, 976014, Control_c, 0, 64, 89
1, 976014, Control_c, 0, 67, 16
1, 976028, Note_off_c, 0, 78, 33
1, 976029, Control_c, 0, 64, 90
1, 976038, Note_on_c, 0, 54, 56
1, 976042, Note_off_c, 0, 64, 61
1, 976044, Control_c, 0, 64, 92
1, 976044, Control_c, 0, 67, 17
1, 976059, Control_c, 0, 64, 92
1, 976074, Control_c, 0, 67, 17
1, 976103, Control_c, 0, 67, 18
1, 976118, Control_c, 0, 64, 92
1, 976133, Control_c, 0, 64, 88
1, 976133, Control_c, 0, 67, 18
1, 976148, Control_c, 0, 64, 83
1, 976148, Control_c, 0, 67, 19
1, 976163, Control_c, 0, 64, 75
1, 976167, Note_off_c, 0, 54, 58
1, 976173, Note_on_c, 0, 65, 58
1, 976177, Control_c, 0, 64, 71
1, 976178, Note_on_c, 0, 66, 51
1, 976192, Control_c, 0, 64, 72
1, 976207, Control_c, 0, 64, 73
1, 976221, Control_c, 0, 64, 74
1, 976235, Note_off_c, 0, 73, 37
1, 976236, Control_c, 0, 64, 75
1, 976236, Control_c, 0, 67, 19
1, 976251, Control_c, 0, 64, 77
1, 976251, Control_c, 0, 67, 20
1, 976266, Control_c, 0, 64, 78
1, 976281, Control_c, 0, 64, 79
1, 976295, Control_c, 0, 64, 80
1, 976303, Note_off_c, 0, 65, 59
1, 976318, Control_c, 0, 67, 20
1, 976330, Note_on_c, 0, 54, 46
1, 976333, Control_c, 0, 67, 21
1, 976348, Control_c, 0, 67, 22
1, 976363, Control_c, 0, 67, 26
1, 976377, Control_c, 0, 64, 78
1, 976377, Control_c, 0, 67, 30
1, 976392, Control_c, 0, 64, 75
1, 976392, Control_c, 0, 67, 36
1, 976407, Control_c, 0, 64, 70
1, 976407, Control_c, 0, 67, 40
1, 976421, Control_c, 0, 64, 63
1, 976421, Control_c, 0, 67, 42
1, 976436, Control_c, 0, 64, 64
1, 976436, Control_c, 0, 67, 44
1, 976441, Note_off_c, 0, 54, 61
1, 976451, Control_c, 0, 64, 66
1, 976451, Control_c, 0, 67, 45
1, 976464, Note_on_c, 0, 64, 54
1, 976466, Control_c, 0, 64, 67
1, 976466, Control_c, 0, 67, 46
1, 976481, Control_c, 0, 64, 69
1, 976481, Control_c, 0, 67, 46
1, 976495, Control_c, 0, 64, 71
1, 976495, Control_c, 0, 67, 47
1, 976510, Control_c, 0, 64, 73
1, 976510, Control_c, 0, 67, 48
1, 976525, Control_c, 0, 64, 75
1, 976525, Control_c, 0, 67, 48
1, 976540, Control_c, 0, 64, 77
1, 976555, Control_c, 0, 64, 78
1, 976555, Control_c, 0, 67, 49
1, 976569, Control_c, 0, 64, 78
1, 976569, Control_c, 0, 67, 50
1, 976584, Control_c, 0, 67, 52
1, 976598, Note_on_c, 0, 54, 39
1, 976599, Control_c, 0, 67, 54
1, 976614, Control_c, 0, 64, 77
1, 976614, Control_c, 0, 67, 56
1, 976628, Control_c, 0, 64, 75
1, 976628, Control_c, 0, 67, 58
1, 976643, Control_c, 0, 64, 71
1, 976643, Control_c, 0, 67, 60
1, 976652, Note_off_c, 0, 64, 37
1, 976658, Control_c, 0, 64, 66
1, 976658, Control_c, 0, 67, 62
1, 976673, Control_c, 0, 67, 64
1, 976688, Note_off_c, 0, 54, 48
1, 976688, Control_c, 0, 64, 67
1, 976688, Control_c, 0, 67, 65
1, 976703, Control_c, 0, 64, 68
1, 976703, Control_c, 0, 67, 66
1, 976718, Control_c, 0, 64, 69
1, 976718, Control_c, 0, 67, 68
1, 976718, Note_on_c, 0, 63, 43
1, 976733, Control_c, 0, 64, 71
1, 976733, Control_c, 0, 67, 68
1, 976747, Control_c, 0, 64, 73
1, 976762, Control_c, 0, 64, 75
1, 976777, Control_c, 0, 64, 76
1, 976792, Control_c, 0, 64, 77
1, 976807, Control_c, 0, 64, 77
1, 976837, Control_c, 0, 64, 78
1, 976852, Control_c, 0, 64, 79
1, 976867, Control_c, 0, 64, 80
1, 976867, Note_off_c, 0, 63, 37
1, 976879, Note_on_c, 0, 54, 37
1, 976897, Control_c, 0, 64, 80
1, 976911, Control_c, 0, 64, 79
1, 976950, Note_off_c, 0, 54, 42
1, 976985, Note_on_c, 0, 71, 53
1, 976986, Control_c, 0, 64, 80
1, 977000, Control_c, 0, 64, 80
1, 977005, Note_on_c, 0, 62, 34
1, 977015, Control_c, 0, 64, 81
1, 977030, Control_c, 0, 64, 82
1, 977044, Control_c, 0, 64, 83
1, 977059, Control_c, 0, 64, 84
1, 977095, Note_off_c, 0, 66, 23
1, 977096, Control_c, 0, 67, 68
1, 977126, Control_c, 0, 67, 67
1, 977126, Note_off_c, 0, 62, 34
1, 977144, Note_on_c, 0, 54, 33
1, 977230, Control_c, 0, 64, 83
1, 977244, Note_off_c, 0, 54, 38
1, 977244, Control_c, 0, 64, 81
1, 977259, Note_on_c, 0, 70, 54
1, 977259, Control_c, 0, 64, 78
1, 977274, Control_c, 0, 64, 72
1, 977289, Control_c, 0, 64, 70
1, 977290, Note_on_c, 0, 61, 25
1, 977293, Note_off_c, 0, 71, 52
1, 977304, Control_c, 0, 64, 71
1, 977318, Control_c, 0, 64, 71
1, 977333, Control_c, 0, 64, 72
1, 977333, Control_c, 0, 67, 67
1, 977348, Control_c, 0, 64, 73
1, 977348, Control_c, 0, 67, 66
1, 977363, Control_c, 0, 64, 74
1, 977363, Control_c, 0, 67, 66
1, 977377, Control_c, 0, 64, 75
1, 977392, Control_c, 0, 64, 76
1, 977392, Control_c, 0, 67, 65
1, 977407, Control_c, 0, 64, 77
1, 977414, Note_on_c, 0, 54, 39
1, 977422, Control_c, 0, 64, 78
1, 977422, Control_c, 0, 67, 65
1, 977437, Control_c, 0, 64, 79
1, 977443, Note_off_c, 0, 61, 36
1, 977451, Control_c, 0, 64, 79
1, 977466, Control_c, 0, 64, 80
1, 977481, Control_c, 0, 64, 80
1, 977488, Note_off_c, 0, 54, 51
1, 977511, Control_c, 0, 64, 80
1, 977518, Note_off_c, 0, 70, 62
1, 977522, Note_on_c, 0, 71, 60
1, 977525, Control_c, 0, 64, 78
1, 977540, Control_c, 0, 64, 75
1, 977543, Note_on_c, 0, 62, 41
1, 977555, Control_c, 0, 64, 73
1, 977570, Control_c, 0, 64, 72
1, 977585, Control_c, 0, 64, 73
1, 977601, Control_c, 0, 64, 73
1, 977601, Control_c, 0, 67, 64
1, 977615, Control_c, 0, 64, 74
1, 977630, Control_c, 0, 64, 75
1, 977645, Control_c, 0, 64, 76
1, 977650, Note_off_c, 0, 62, 36
1, 977660, Control_c, 0, 64, 78
1, 977660, Control_c, 0, 67, 64
1, 977671, Note_on_c, 0, 54, 41
1, 977675, Control_c, 0, 64, 79
1, 977690, Control_c, 0, 64, 80
1, 977705, Control_c, 0, 64, 80
1, 977720, Control_c, 0, 64, 81
1, 977735, Control_c, 0, 64, 80
1, 977749, Control_c, 0, 64, 79
1, 977764, Control_c, 0, 64, 76
1, 977773, Note_off_c, 0, 54, 51
1, 977779, Control_c, 0, 64, 74
1, 977793, Note_on_c, 0, 73, 67
1, 977809, Control_c, 0, 64, 74
1, 977822, Note_on_c, 0, 58, 38
1, 977827, Note_off_c, 0, 71, 47
1, 977831, Control_c, 0, 64, 75
1, 977831, Control_c, 0, 67, 63
1, 977846, Control_c, 0, 64, 76
1, 977861, Control_c, 0, 64, 77
1, 977861, Control_c, 0, 67, 63
1, 977875, Control_c, 0, 64, 79
1, 977890, Control_c, 0, 64, 80
1, 977895, Note_off_c, 0, 58, 52
1, 977905, Control_c, 0, 64, 81
1, 977905, Control_c, 0, 67, 62
1, 977920, Control_c, 0, 64, 82
1, 977922, Note_on_c, 0, 54, 41
1, 977949, Control_c, 0, 64, 83
1, 977964, Control_c, 0, 64, 85
1, 977979, Control_c, 0, 64, 85
1, 978008, Control_c, 0, 64, 84
1, 978023, Control_c, 0, 64, 81
1, 978029, Note_off_c, 0, 54, 62
1, 978038, Control_c, 0, 64, 75
1, 978044, Note_on_c, 0, 74, 73
1, 978053, Control_c, 0, 64, 71
1, 978057, Note_off_c, 0, 73, 57
1, 978062, Note_on_c, 0, 59, 46
1, 978083, Control_c, 0, 64, 73
1, 978098, Control_c, 0, 64, 74
1, 978113, Control_c, 0, 64, 75
1, 978113, Control_c, 0, 67, 62
1, 978128, Control_c, 0, 64, 77
1, 978142, Control_c, 0, 64, 78
1, 978165, Note_off_c, 0, 59, 56
1, 978172, Control_c, 0, 64, 78
1, 978172, Control_c, 0, 67, 61
1, 978186, Control_c, 0, 64, 80
1, 978188, Note_on_c, 0, 54, 37
1, 978201, Control_c, 0, 64, 81
1, 978216, Control_c, 0, 64, 83
1, 978246, Control_c, 0, 64, 82
1, 978261, Control_c, 0, 64, 79
1, 978275, Control_c, 0, 64, 74
1, 978282, Note_off_c, 0, 54, 53
1, 978290, Control_c, 0, 64, 67
1, 978300, Note_off_c, 0, 74, 63
1, 978304, Note_on_c, 0, 76, 67
1, 978305, Control_c, 0, 64, 64
1, 978315, Note_on_c, 0, 73, 52
1, 978320, Note_on_c, 0, 66, 44
1, 978320, Control_c, 0, 64, 67
1, 978335, Control_c, 0, 64, 69
1, 978349, Control_c, 0, 64, 71
1, 978349, Control_c, 0, 67, 61
1, 978364, Control_c, 0, 64, 73
1, 978379, Control_c, 0, 64, 75
1, 978395, Control_c, 0, 64, 78
1, 978395, Control_c, 0, 67, 60
1, 978410, Control_c, 0, 64, 80
1, 978410, Control_c, 0, 67, 59
1, 978413, Note_on_c, 0, 54, 51
1, 978424, Control_c, 0, 64, 82
1, 978424, Control_c, 0, 67, 58
1, 978430, Note_off_c, 0, 66, 60
1, 978438, Control_c, 0, 64, 83
1, 978438, Control_c, 0, 67, 58
1, 978453, Control_c, 0, 64, 84
1, 978453, Control_c, 0, 67, 57
1, 978468, Control_c, 0, 64, 85
1, 978483, Control_c, 0, 64, 86
1, 978497, Control_c, 0, 64, 87
1, 978497, Control_c, 0, 67, 57
1, 978512, Control_c, 0, 64, 86
1, 978526, Note_off_c, 0, 54, 63
1, 978527, Control_c, 0, 64, 84
1, 978527, Control_c, 0, 67, 56
1, 978542, Control_c, 0, 64, 79
1, 978554, Note_on_c, 0, 67, 61
1, 978557, Control_c, 0, 64, 73
1, 978557, Control_c, 0, 67, 56
1, 978579, Control_c, 0, 64, 71
1, 978579, Control_c, 0, 67, 55
1, 978594, Control_c, 0, 64, 72
1, 978594, Control_c, 0, 67, 53
1, 978609, Control_c, 0, 64, 74
1, 978609, Control_c, 0, 67, 52
1, 978623, Control_c, 0, 64, 75
1, 978623, Control_c, 0, 67, 50
1, 978638, Control_c, 0, 64, 77
1, 978638, Control_c, 0, 67, 48
1, 978653, Control_c, 0, 64, 80
1, 978653, Control_c, 0, 67, 46
1, 978659, Note_off_c, 0, 67, 62
1, 978668, Control_c, 0, 64, 82
1, 978668, Control_c, 0, 67, 43
1, 978676, Note_on_c, 0, 55, 68
1, 978683, Control_c, 0, 64, 84
1, 978683, Control_c, 0, 67, 40
1, 978697, Control_c, 0, 64, 85
1, 978697, Control_c, 0, 67, 35
1, 978712, Control_c, 0, 64, 86
1, 978712, Control_c, 0, 67, 32
1, 978727, Control_c, 0, 67, 29
1, 978742, Control_c, 0, 67, 27
1, 978757, Control_c, 0, 67, 24
1, 978772, Control_c, 0, 67, 22
1, 978786, Control_c, 0, 64, 85
1, 978786, Control_c, 0, 67, 20
1, 978801, Control_c, 0, 64, 81
1, 978801, Control_c, 0, 67, 17
1, 978815, Note_off_c, 0, 55, 55
1, 978815, Note_off_c, 0, 76, 63
1, 978816, Control_c, 0, 64, 73
1, 978816, Control_c, 0, 67, 13
1, 978824, Note_on_c, 0, 75, 66
1, 978825, Note_off_c, 0, 73, 61
1, 978827, Note_on_c, 0, 68, 55
1, 978831, Control_c, 0, 64, 60
1, 978831, Control_c, 0, 67, 0
1, 978836, Note_on_c, 0, 72, 52
1, 978846, Control_c, 0, 64, 0
1, 978905, Control_c, 0, 64, 23
1, 978920, Control_c, 0, 64, 57
1, 978935, Control_c, 0, 64, 65
1, 978950, Control_c, 0, 64, 69
1, 978952, Note_off_c, 0, 68, 59
1, 978956, Note_off_c, 0, 75, 63
1, 978959, Note_on_c, 0, 56, 61
1, 978964, Control_c, 0, 64, 72
1, 978979, Control_c, 0, 64, 75
1, 978994, Control_c, 0, 64, 81
1, 979009, Control_c, 0, 64, 88
1, 979023, Control_c, 0, 64, 94
1, 979038, Control_c, 0, 64, 97
1, 979053, Control_c, 0, 64, 98
1, 979068, Control_c, 0, 64, 99
1, 979083, Control_c, 0, 64, 100
1, 979114, Note_on_c, 0, 81, 81
1, 979117, Note_off_c, 0, 56, 38
1, 979125, Note_off_c, 0, 72, 62
1, 979141, Control_c, 0, 64, 99
1, 979150, Note_on_c, 0, 68, 44
1, 979156, Control_c, 0, 64, 94
1, 979171, Control_c, 0, 64, 86
1, 979187, Control_c, 0, 64, 72
1, 979202, Control_c, 0, 64, 59
1, 979217, Control_c, 0, 64, 32
1, 979232, Control_c, 0, 64, 47
1, 979246, Control_c, 0, 64, 53
1, 979261, Control_c, 0, 64, 57
1, 979270, Note_off_c, 0, 68, 54
1, 979276, Control_c, 0, 64, 62
1, 979291, Control_c, 0, 64, 64
1, 979304, Note_on_c, 0, 56, 38
1, 979306, Control_c, 0, 64, 66
1, 979328, Control_c, 0, 64, 68
1, 979343, Control_c, 0, 64, 69
1, 979358, Control_c, 0, 64, 70
1, 979373, Control_c, 0, 64, 70
1, 979388, Control_c, 0, 64, 71
1, 979402, Control_c, 0, 64, 72
1, 979417, Control_c, 0, 64, 72
1, 979432, Control_c, 0, 64, 73
1, 979446, Control_c, 0, 64, 74
1, 979446, Control_c, 0, 67, 8
1, 979461, Control_c, 0, 64, 75
1, 979461, Control_c, 0, 67, 9
1, 979476, Control_c, 0, 64, 73
1, 979476, Control_c, 0, 67, 11
1, 979478, Note_off_c, 0, 56, 44
1, 979487, Note_on_c, 0, 80, 58
1, 979491, Control_c, 0, 64, 71
1, 979491, Control_c, 0, 67, 13
1, 979506, Control_c, 0, 64, 67
1, 979506, Control_c, 0, 67, 15
1, 979508, Note_on_c, 0, 68, 36
1, 979511, Note_off_c, 0, 81, 58
1, 979520, Control_c, 0, 64, 62
1, 979520, Control_c, 0, 67, 17
1, 979535, Control_c, 0, 64, 62
1, 979535, Control_c, 0, 67, 19
1, 979550, Control_c, 0, 64, 64
1, 979550, Control_c, 0, 67, 20
1, 979564, Control_c, 0, 64, 65
1, 979564, Control_c, 0, 67, 22
1, 979579, Control_c, 0, 64, 66
1, 979579, Control_c, 0, 67, 24
1, 979594, Control_c, 0, 64, 69
1, 979594, Control_c, 0, 67, 25
1, 979605, Note_off_c, 0, 68, 51
1, 979609, Control_c, 0, 64, 71
1, 979609, Control_c, 0, 67, 27
1, 979624, Control_c, 0, 64, 74
1, 979624, Control_c, 0, 67, 28
1, 979633, Note_on_c, 0, 56, 35
1, 979639, Control_c, 0, 64, 76
1, 979639, Control_c, 0, 67, 29
1, 979654, Control_c, 0, 64, 77
1, 979654, Control_c, 0, 67, 30
1, 979669, Control_c, 0, 64, 78
1, 979669, Control_c, 0, 67, 31
1, 979684, Control_c, 0, 64, 80
1, 979684, Control_c, 0, 67, 33
1, 979699, Control_c, 0, 64, 82
1, 979699, Control_c, 0, 67, 34
1, 979713, Control_c, 0, 64, 84
1, 979713, Control_c, 0, 67, 35
1, 979728, Control_c, 0, 64, 85
1, 979728, Control_c, 0, 67, 36
1, 979738, Note_off_c, 0, 56, 57
1, 979743, Control_c, 0, 64, 86
1, 979743, Control_c, 0, 67, 36
1, 979758, Control_c, 0, 64, 87
1, 979758, Control_c, 0, 67, 37
1, 979772, Control_c, 0, 64, 88
1, 979777, Note_on_c, 0, 68, 43
1, 979787, Control_c, 0, 64, 89
1, 979802, Control_c, 0, 67, 37
1, 979874, Note_on_c, 0, 56, 36
1, 979876, Control_c, 0, 67, 38
1, 979891, Control_c, 0, 64, 88
1, 979935, Control_c, 0, 64, 88
1, 979950, Control_c, 0, 64, 87
1, 979950, Control_c, 0, 67, 38
1, 979964, Control_c, 0, 64, 86
1, 979980, Control_c, 0, 64, 84
1, 979995, Control_c, 0, 64, 81
1, 980006, Note_off_c, 0, 68, 20
1, 980010, Control_c, 0, 64, 77
1, 980022, Note_on_c, 0, 73, 58
1, 980024, Note_off_c, 0, 56, 38
1, 980025, Control_c, 0, 64, 72
1, 980037, Note_on_c, 0, 64, 42
1, 980040, Control_c, 0, 64, 69
1, 980062, Control_c, 0, 64, 71
1, 980077, Control_c, 0, 64, 71
1, 980092, Control_c, 0, 67, 38
1, 980107, Control_c, 0, 64, 72
1, 980122, Control_c, 0, 64, 74
1, 980137, Control_c, 0, 64, 76
1, 980137, Control_c, 0, 67, 37
1, 980151, Control_c, 0, 64, 78
1, 980162, Note_on_c, 0, 56, 44
1, 980166, Control_c, 0, 64, 80
1, 980166, Control_c, 0, 67, 37
1, 980181, Control_c, 0, 64, 81
1, 980187, Note_off_c, 0, 80, 32
1, 980195, Control_c, 0, 64, 82
1, 980210, Control_c, 0, 64, 83
1, 980225, Control_c, 0, 64, 81
1, 980240, Control_c, 0, 64, 79
1, 980255, Control_c, 0, 64, 76
1, 980269, Control_c, 0, 64, 74
1, 980277, Note_off_c, 0, 56, 61
1, 980288, Note_on_c, 0, 66, 54
1, 980289, Note_on_c, 0, 75, 61
1, 980299, Control_c, 0, 64, 74
1, 980314, Control_c, 0, 64, 75
1, 980321, Note_off_c, 0, 73, 52
1, 980329, Control_c, 0, 64, 76
1, 980343, Control_c, 0, 64, 78
1, 980343, Control_c, 0, 67, 36
1, 980358, Control_c, 0, 64, 79
1, 980373, Control_c, 0, 64, 80
1, 980387, Control_c, 0, 64, 80
1, 980412, Note_on_c, 0, 56, 50
1, 980416, Note_off_c, 0, 66, 59
1, 980432, Control_c, 0, 64, 81
1, 980447, Control_c, 0, 64, 81
1, 980477, Control_c, 0, 64, 81
1, 980477, Control_c, 0, 67, 37
1, 980480, Note_off_c, 0, 64, 8
1, 980491, Control_c, 0, 64, 78
1, 980506, Control_c, 0, 64, 74
1, 980517, Note_off_c, 0, 56, 58
1, 980521, Control_c, 0, 64, 67
1, 980536, Control_c, 0, 64, 65
1, 980545, Note_on_c, 0, 68, 54
1, 980545, Note_on_c, 0, 67, 60
1, 980546, Note_off_c, 0, 75, 54
1, 980551, Control_c, 0, 64, 66
1, 980566, Control_c, 0, 64, 67
1, 980566, Control_c, 0, 67, 36
1, 980581, Control_c, 0, 64, 68
1, 980595, Control_c, 0, 64, 70
1, 980610, Control_c, 0, 64, 72
1, 980625, Control_c, 0, 64, 74
1, 980640, Control_c, 0, 64, 76
1, 980651, Note_off_c, 0, 67, 61
1, 980655, Control_c, 0, 64, 77
1, 980683, Note_on_c, 0, 56, 44
1, 980685, Control_c, 0, 64, 78
1, 980685, Control_c, 0, 67, 36
1, 980700, Control_c, 0, 64, 79
1, 980715, Control_c, 0, 64, 80
1, 980715, Control_c, 0, 67, 36
1, 980730, Control_c, 0, 64, 81
1, 980744, Control_c, 0, 64, 80
1, 980744, Control_c, 0, 67, 37
1, 980759, Control_c, 0, 64, 78
1, 980759, Control_c, 0, 67, 37
1, 980774, Control_c, 0, 64, 74
1, 980787, Note_off_c, 0, 56, 58
1, 980790, Control_c, 0, 64, 68
1, 980790, Control_c, 0, 67, 38
1, 980804, Control_c, 0, 64, 67
1, 980819, Note_on_c, 0, 66, 54
1, 980826, Control_c, 0, 64, 68
1, 980826, Control_c, 0, 67, 38
1, 980841, Control_c, 0, 64, 69
1, 980856, Control_c, 0, 64, 70
1, 980856, Control_c, 0, 67, 39
1, 980871, Control_c, 0, 64, 72
1, 980885, Control_c, 0, 64, 74
1, 980885, Control_c, 0, 67, 39
1, 980900, Control_c, 0, 64, 75
1, 980915, Control_c, 0, 64, 76
1, 980930, Control_c, 0, 64, 77
1, 980945, Control_c, 0, 64, 78
1, 980945, Control_c, 0, 67, 40
1, 980951, Note_on_c, 0, 56, 44
1, 980959, Control_c, 0, 64, 78
1, 980967, Note_off_c, 0, 66, 44
1, 980974, Control_c, 0, 64, 78
1, 980974, Control_c, 0, 67, 41
1, 980989, Control_c, 0, 64, 76
1, 980989, Control_c, 0, 67, 44
1, 981004, Control_c, 0, 64, 74
1, 981004, Control_c, 0, 67, 45
1, 981019, Control_c, 0, 64, 71
1, 981019, Control_c, 0, 67, 46
1, 981034, Control_c, 0, 64, 70
1, 981034, Control_c, 0, 67, 46
1, 981044, Note_off_c, 0, 56, 59
1, 981049, Control_c, 0, 64, 71
1, 981064, Control_c, 0, 64, 71
1, 981079, Control_c, 0, 64, 72
1, 981085, Note_on_c, 0, 65, 45
1, 981093, Control_c, 0, 64, 73
1, 981108, Control_c, 0, 64, 74
1, 981108, Control_c, 0, 67, 46
1, 981123, Control_c, 0, 64, 75
1, 981138, Control_c, 0, 64, 76
1, 981138, Control_c, 0, 67, 45
1, 981153, Control_c, 0, 64, 77
1, 981167, Control_c, 0, 64, 77
1, 981182, Control_c, 0, 64, 78
1, 981188, Note_off_c, 0, 65, 57
1, 981197, Control_c, 0, 64, 78
1, 981211, Note_on_c, 0, 56, 41
1, 981211, Control_c, 0, 64, 79
1, 981241, Control_c, 0, 64, 78
1, 981256, Control_c, 0, 64, 77
1, 981271, Control_c, 0, 64, 73
1, 981285, Control_c, 0, 64, 71
1, 981300, Control_c, 0, 64, 72
1, 981301, Note_off_c, 0, 56, 56
1, 981315, Control_c, 0, 64, 72
1, 981323, Note_off_c, 0, 68, 54
1, 981330, Control_c, 0, 64, 73
1, 981337, Note_on_c, 0, 73, 54
1, 981344, Control_c, 0, 64, 74
1, 981352, Note_on_c, 0, 64, 43
1, 981359, Control_c, 0, 64, 75
1, 981359, Control_c, 0, 67, 45
1, 981374, Control_c, 0, 64, 76
1, 981389, Control_c, 0, 64, 77
1, 981404, Control_c, 0, 64, 78
1, 981419, Control_c, 0, 64, 79
1, 981419, Control_c, 0, 67, 44
1, 981453, Note_on_c, 0, 56, 40
1, 981459, Note_off_c, 0, 64, 49
1, 981521, Control_c, 0, 64, 79
1, 981535, Control_c, 0, 64, 78
1, 981550, Control_c, 0, 64, 75
1, 981573, Control_c, 0, 64, 71
1, 981582, Note_off_c, 0, 56, 57
1, 981588, Control_c, 0, 64, 66
1, 981597, Note_off_c, 0, 73, 58
1, 981600, Note_on_c, 0, 72, 48
1, 981603, Control_c, 0, 64, 63
1, 981618, Control_c, 0, 64, 64
1, 981621, Note_on_c, 0, 63, 37
1, 981633, Control_c, 0, 64, 65
1, 981633, Control_c, 0, 67, 44
1, 981648, Control_c, 0, 64, 65
1, 981663, Control_c, 0, 64, 66
1, 981678, Control_c, 0, 64, 67
1, 981693, Control_c, 0, 64, 68
1, 981693, Control_c, 0, 67, 43
1, 981708, Control_c, 0, 64, 69
1, 981722, Control_c, 0, 64, 70
1, 981734, Note_on_c, 0, 56, 39
1, 981737, Control_c, 0, 64, 71
1, 981737, Control_c, 0, 67, 43
1, 981752, Control_c, 0, 64, 72
1, 981752, Control_c, 0, 67, 42
1, 981767, Control_c, 0, 64, 73
1, 981782, Control_c, 0, 64, 74
1, 981796, Control_c, 0, 64, 75
1, 981806, Note_off_c, 0, 63, 30
1, 981811, Control_c, 0, 64, 76
1, 981826, Control_c, 0, 64, 77
1, 981831, Note_off_c, 0, 56, 56
1, 981855, Control_c, 0, 64, 76
1, 981863, Note_on_c, 0, 73, 56
1, 981869, Note_off_c, 0, 72, 50
1, 981870, Control_c, 0, 64, 75
1, 981877, Note_on_c, 0, 64, 42
1, 981885, Control_c, 0, 64, 74
1, 981929, Control_c, 0, 64, 75
1, 981944, Control_c, 0, 64, 75
1, 981958, Control_c, 0, 64, 76
1, 981973, Control_c, 0, 64, 76
1, 981973, Control_c, 0, 67, 42
1, 981976, Note_on_c, 0, 56, 36
1, 981979, Note_off_c, 0, 64, 46
1, 981988, Control_c, 0, 64, 77
1, 982003, Control_c, 0, 64, 78
1, 982003, Control_c, 0, 67, 41
1, 982033, Control_c, 0, 64, 79
1, 982048, Control_c, 0, 64, 79
1, 982074, Note_off_c, 0, 56, 53
1, 982077, Control_c, 0, 64, 79
1, 982092, Control_c, 0, 64, 78
1, 982107, Note_on_c, 0, 75, 56
1, 982114, Note_off_c, 0, 73, 56
1, 982119, Note_on_c, 0, 60, 43
1, 982122, Control_c, 0, 67, 41
1, 982152, Control_c, 0, 64, 79
1, 982152, Control_c, 0, 67, 40
1, 982166, Control_c, 0, 64, 79
1, 982181, Control_c, 0, 64, 80
1, 982196, Control_c, 0, 64, 81
1, 982196, Control_c, 0, 67, 40
1, 982211, Control_c, 0, 64, 82
1, 982213, Note_off_c, 0, 60, 55
1, 982226, Control_c, 0, 64, 83
1, 982226, Control_c, 0, 67, 39
1, 982240, Control_c, 0, 64, 84
1, 982244, Note_on_c, 0, 56, 28
1, 982255, Control_c, 0, 64, 85
1, 982255, Control_c, 0, 67, 38
1, 982270, Control_c, 0, 64, 86
1, 982270, Control_c, 0, 67, 38
1, 982285, Control_c, 0, 64, 87
1, 982285, Control_c, 0, 67, 37
1, 982300, Control_c, 0, 64, 88
1, 982322, Control_c, 0, 64, 89
1, 982337, Control_c, 0, 64, 90
1, 982337, Control_c, 0, 67, 37
1, 982352, Control_c, 0, 64, 91
1, 982352, Control_c, 0, 67, 36
1, 982366, Note_on_c, 0, 76, 61
1, 982366, Control_c, 0, 64, 92
1, 982381, Control_c, 0, 64, 93
1, 982381, Control_c, 0, 67, 36
1, 982384, Note_off_c, 0, 56, 35
1, 982392, Note_on_c, 0, 61, 48
1, 982396, Control_c, 0, 64, 95
1, 982396, Control_c, 0, 67, 35
1, 982409, Note_off_c, 0, 75, 36
1, 982411, Control_c, 0, 64, 97
1, 982426, Control_c, 0, 64, 97
1, 982426, Control_c, 0, 67, 34
1, 982441, Control_c, 0, 64, 98
1, 982456, Control_c, 0, 67, 34
1, 982471, Control_c, 0, 64, 99
1, 982471, Control_c, 0, 67, 33
1, 982471, Note_off_c, 0, 76, 59
1, 982486, Control_c, 0, 67, 33
1, 982488, Note_on_c, 0, 56, 51
1, 982501, Control_c, 0, 67, 32
1, 982501, Note_off_c, 0, 61, 51
1, 982516, Control_c, 0, 67, 31
1, 982530, Control_c, 0, 67, 30
1, 982545, Control_c, 0, 67, 29
1, 982560, Control_c, 0, 67, 29
1, 982589, Control_c, 0, 64, 96
1, 982604, Control_c, 0, 64, 90
1, 982605, Note_off_c, 0, 56, 53
1, 982619, Control_c, 0, 64, 80
1, 982619, Control_c, 0, 67, 28
1, 982624, Note_on_c, 0, 78, 66
1, 982634, Control_c, 0, 64, 70
1, 982641, Note_on_c, 0, 68, 46
1, 982649, Control_c, 0, 64, 66
1, 982649, Control_c, 0, 67, 28
1, 982654, Note_on_c, 0, 75, 38
1, 982663, Control_c, 0, 64, 68
1, 982663, Control_c, 0, 67, 27
1, 982678, Control_c, 0, 64, 69
1, 982678, Control_c, 0, 67, 26
1, 982693, Control_c, 0, 64, 69
1, 982693, Control_c, 0, 67, 25
1, 982708, Control_c, 0, 64, 70
1, 982708, Control_c, 0, 67, 24
1, 982723, Control_c, 0, 64, 71
1, 982723, Control_c, 0, 67, 23
1, 982730, Note_on_c, 0, 56, 54
1, 982737, Control_c, 0, 64, 73
1, 982737, Control_c, 0, 67, 22
1, 982752, Control_c, 0, 64, 75
1, 982752, Control_c, 0, 67, 20
1, 982755, Note_off_c, 0, 68, 56
1, 982767, Control_c, 0, 64, 77
1, 982767, Control_c, 0, 67, 19
1, 982781, Control_c, 0, 64, 77
1, 982781, Control_c, 0, 67, 18
1, 982796, Control_c, 0, 64, 78
1, 982796, Control_c, 0, 67, 17
1, 982811, Control_c, 0, 64, 79
1, 982811, Control_c, 0, 67, 16
1, 982826, Control_c, 0, 64, 81
1, 982826, Control_c, 0, 67, 15
1, 982833, Note_off_c, 0, 56, 62
1, 982841, Control_c, 0, 64, 82
1, 982841, Control_c, 0, 67, 13
1, 982855, Control_c, 0, 64, 83
1, 982855, Control_c, 0, 67, 12
1, 982862, Note_on_c, 0, 69, 59
1, 982870, Control_c, 0, 64, 84
1, 982870, Control_c, 0, 67, 10
1, 982885, Control_c, 0, 67, 0
1, 982900, Control_c, 0, 64, 85
1, 982915, Control_c, 0, 64, 86
1, 982930, Control_c, 0, 64, 86
1, 982956, Note_off_c, 0, 69, 62
1, 982973, Note_on_c, 0, 57, 58
1, 982989, Control_c, 0, 64, 86
1, 983004, Control_c, 0, 64, 83
1, 983019, Control_c, 0, 64, 78
1, 983034, Control_c, 0, 64, 73
1, 983049, Control_c, 0, 64, 71
1, 983070, Control_c, 0, 64, 73
1, 983085, Control_c, 0, 64, 74
1, 983100, Control_c, 0, 64, 76
1, 983110, Note_on_c, 0, 70, 62
1, 983115, Control_c, 0, 64, 77
1, 983130, Control_c, 0, 64, 80
1, 983144, Control_c, 0, 64, 83
1, 983159, Control_c, 0, 64, 86
1, 983174, Control_c, 0, 64, 88
1, 983190, Control_c, 0, 64, 89
1, 983204, Note_on_c, 0, 58, 68
1, 983205, Control_c, 0, 64, 89
1, 983212, Note_off_c, 0, 57, 29
1, 983234, Control_c, 0, 64, 88
1, 983238, Note_off_c, 0, 70, 58
1, 983249, Control_c, 0, 64, 87
1, 983264, Control_c, 0, 64, 87
1, 983281, Note_off_c, 0, 78, 57
1, 983323, Control_c, 0, 64, 87
1, 983338, Note_on_c, 0, 74, 72
1, 983338, Control_c, 0, 64, 89
1, 983340, Note_on_c, 0, 77, 80
1, 983341, Note_on_c, 0, 71, 68
1, 983353, Control_c, 0, 64, 90
1, 983365, Note_off_c, 0, 75, 50
1, 983368, Control_c, 0, 64, 93
1, 983383, Control_c, 0, 64, 94
1, 983395, Note_off_c, 0, 58, 38
1, 983398, Control_c, 0, 64, 95
1, 983412, Control_c, 0, 64, 96
1, 983427, Control_c, 0, 64, 98
1, 983441, Note_on_c, 0, 59, 73
1, 983442, Control_c, 0, 64, 99
1, 983457, Control_c, 0, 64, 99
1, 983464, Note_off_c, 0, 71, 54
1, 983501, Control_c, 0, 64, 98
1, 983505, Note_off_c, 0, 77, 56
1, 983516, Control_c, 0, 64, 94
1, 983530, Control_c, 0, 64, 87
1, 983545, Control_c, 0, 64, 84
1, 983564, Note_off_c, 0, 59, 60
1, 983578, Note_on_c, 0, 72, 70
1, 983579, Note_on_c, 0, 80, 92
1, 983589, Note_on_c, 0, 77, 71
1, 983590, Control_c, 0, 64, 85
1, 983604, Control_c, 0, 64, 87
1, 983609, Note_off_c, 0, 74, 63
1, 983619, Control_c, 0, 64, 89
1, 983634, Control_c, 0, 64, 91
1, 983649, Control_c, 0, 64, 93
1, 983664, Control_c, 0, 64, 94
1, 983678, Control_c, 0, 64, 95
1, 983681, Note_on_c, 0, 60, 77
1, 983687, Note_off_c, 0, 72, 65
1, 983693, Control_c, 0, 64, 96
1, 983708, Control_c, 0, 64, 100
1, 983723, Control_c, 0, 64, 103
1, 983738, Control_c, 0, 64, 104
1, 983768, Control_c, 0, 64, 101
1, 983782, Control_c, 0, 64, 97
1, 983797, Control_c, 0, 64, 94
1, 983813, Note_on_c, 0, 73, 88
1, 983836, Note_off_c, 0, 60, 56
1, 983864, Control_c, 0, 64, 95
1, 983879, Control_c, 0, 64, 96
1, 983893, Control_c, 0, 64, 99
1, 983908, Control_c, 0, 64, 102
1, 983920, Note_on_c, 0, 61, 78
1, 983923, Control_c, 0, 64, 105
1, 983937, Control_c, 0, 64, 110
1, 983946, Note_off_c, 0, 77, 55
1, 983950, Note_off_c, 0, 73, 63
1, 983952, Control_c, 0, 64, 116
1, 983967, Control_c, 0, 64, 127
1, 984012, Note_off_c, 0, 80, 61
1, 984028, Control_c, 0, 64, 126
1, 984041, Note_on_c, 0, 74, 93
1, 984059, Note_off_c, 0, 61, 58
1, 984080, Note_on_c, 0, 63, 33
1, 984149, Note_on_c, 0, 62, 74
1, 984173, Note_off_c, 0, 74, 63
1, 984176, Control_c, 0, 64, 127
1, 984274, Note_on_c, 0, 73, 83
1, 984280, Note_on_c, 0, 83, 95
1, 984289, Note_on_c, 0, 80, 81
1, 984346, Note_off_c, 0, 63, 23
1, 984364, Note_on_c, 0, 61, 80
1, 984384, Note_off_c, 0, 73, 63
1, 984408, Note_on_c, 0, 65, 74
1, 984455, Note_on_c, 0, 68, 78
1, 984465, Note_off_c, 0, 83, 56
1, 984488, Control_c, 0, 64, 111
1, 984502, Control_c, 0, 64, 90
1, 984517, Control_c, 0, 64, 71
1, 984532, Control_c, 0, 64, 50
1, 984537, Note_off_c, 0, 62, 39
1, 984547, Control_c, 0, 64, 58
1, 984551, Note_on_c, 0, 71, 79
1, 984569, Control_c, 0, 64, 65
1, 984578, Note_on_c, 0, 86, 93
1, 984584, Control_c, 0, 64, 67
1, 984590, Note_off_c, 0, 80, 63
1, 984599, Control_c, 0, 64, 73
1, 984614, Control_c, 0, 64, 80
1, 984626, Note_off_c, 0, 71, 66
1, 984629, Control_c, 0, 64, 89
1, 984643, Control_c, 0, 64, 100
1, 984644, Note_off_c, 0, 65, 55
1, 984656, Note_off_c, 0, 68, 60
1, 984658, Control_c, 0, 64, 112
1, 984673, Control_c, 0, 64, 127
1, 984678, Note_off_c, 0, 61, 62
1, 984707, Note_on_c, 0, 83, 95
1, 984740, Note_off_c, 0, 86, 60
1, 984817, Note_on_c, 0, 80, 96
1, 984841, Note_off_c, 0, 83, 63
1, 984888, Note_on_c, 0, 49, 79
1, 984912, Note_on_c, 0, 77, 97
1, 984917, Note_off_c, 0, 80, 66
1, 984940, Note_on_c, 0, 53, 81
1, 984968, Note_off_c, 0, 77, 64
1, 984970, Control_c, 0, 64, 126
1, 984978, Note_on_c, 0, 56, 85
1, 984984, Control_c, 0, 64, 84
1, 984986, Note_on_c, 0, 50, 32
1, 984999, Control_c, 0, 64, 61
1, 985014, Control_c, 0, 64, 0
1, 985021, Note_on_c, 0, 74, 98
1, 985029, Control_c, 0, 64, 61
1, 985040, Note_on_c, 0, 59, 84
1, 985041, Note_off_c, 0, 50, 46
1, 985044, Control_c, 0, 64, 69
1, 985058, Control_c, 0, 64, 74
1, 985073, Control_c, 0, 64, 82
1, 985082, Note_off_c, 0, 49, 63
1, 985088, Control_c, 0, 64, 89
1, 985100, Note_off_c, 0, 53, 61
1, 985103, Control_c, 0, 64, 94
1, 985118, Control_c, 0, 64, 97
1, 985127, Note_off_c, 0, 59, 64
1, 985129, Note_on_c, 0, 71, 91
1, 985133, Control_c, 0, 64, 99
1, 985139, Note_off_c, 0, 56, 60
1, 985148, Control_c, 0, 64, 100
1, 985163, Control_c, 0, 64, 103
1, 985163, Note_off_c, 0, 74, 59
1, 985176, Control_c, 0, 64, 105
1, 985191, Control_c, 0, 64, 107
1, 985206, Control_c, 0, 64, 109
1, 985221, Control_c, 0, 64, 110
1, 985243, Note_on_c, 0, 69, 90
1, 985256, Note_off_c, 0, 71, 63
1, 985265, Control_c, 0, 64, 112
1, 985280, Control_c, 0, 64, 115
1, 985295, Control_c, 0, 64, 118
1, 985317, Control_c, 0, 64, 120
1, 985332, Control_c, 0, 64, 121
1, 985344, Note_on_c, 0, 65, 90
1, 985347, Control_c, 0, 64, 124
1, 985350, Note_off_c, 0, 69, 65
1, 985362, Control_c, 0, 64, 127
1, 985407, Note_off_c, 0, 65, 64
1, 985451, Control_c, 0, 64, 104
1, 985460, Note_on_c, 0, 62, 91
1, 985465, Control_c, 0, 64, 81
1, 985480, Control_c, 0, 64, 42
1, 985495, Control_c, 0, 64, 0
1, 985539, Control_c, 0, 64, 55
1, 985554, Control_c, 0, 64, 68
1, 985569, Control_c, 0, 64, 74
1, 985573, Note_on_c, 0, 59, 91
1, 985585, Control_c, 0, 64, 81
1, 985595, Note_off_c, 0, 62, 61
1, 985600, Control_c, 0, 64, 89
1, 985614, Control_c, 0, 64, 96
1, 985629, Control_c, 0, 64, 103
1, 985644, Control_c, 0, 64, 119
1, 985659, Control_c, 0, 64, 127
1, 985678, Note_on_c, 0, 56, 98
1, 985701, Note_off_c, 0, 59, 56
1, 985776, Note_on_c, 0, 53, 98
1, 985789, Note_off_c, 0, 56, 62
1, 985828, Note_off_c, 0, 53, 70
1, 985866, Control_c, 0, 64, 83
1, 985881, Control_c, 0, 64, 0
1, 985923, Note_on_c, 0, 49, 99
1, 985929, Note_on_c, 0, 37, 77
1, 985940, Control_c, 0, 64, 31
1, 985953, Note_off_c, 0, 37, 66
1, 985955, Control_c, 0, 64, 65
1, 985967, Note_off_c, 0, 49, 64
1, 985970, Control_c, 0, 64, 74
1, 985985, Control_c, 0, 64, 86
1, 985999, Control_c, 0, 64, 104
1, 986014, Control_c, 0, 64, 127
1, 986170, Control_c, 0, 64, 114
1, 986185, Control_c, 0, 64, 105
1, 986200, Control_c, 0, 64, 96
1, 986214, Control_c, 0, 64, 88
1, 986229, Control_c, 0, 64, 82
1, 986244, Control_c, 0, 64, 76
1, 986259, Control_c, 0, 64, 69
1, 986274, Control_c, 0, 64, 54
1, 986288, Control_c, 0, 64, 0
1, 986461, Note_on_c, 0, 61, 100
1, 986818, Note_on_c, 0, 44, 93
1, 986852, Note_off_c, 0, 44, 63
1, 986859, Control_c, 0, 64, 62
1, 986874, Control_c, 0, 64, 77
1, 986889, Control_c, 0, 64, 82
1, 986903, Control_c, 0, 64, 86
1, 986918, Control_c, 0, 64, 90
1, 986933, Control_c, 0, 64, 95
1, 986948, Control_c, 0, 64, 97
1, 986963, Control_c, 0, 64, 98
1, 986974, Note_on_c, 0, 59, 76
1, 986978, Control_c, 0, 64, 100
1, 986993, Control_c, 0, 64, 101
1, 987008, Control_c, 0, 64, 102
1, 987023, Control_c, 0, 64, 105
1, 987037, Control_c, 0, 64, 122
1, 987052, Control_c, 0, 64, 127
1, 987072, Note_on_c, 0, 73, 102
1, 987073, Note_off_c, 0, 59, 57
1, 987088, Note_on_c, 0, 52, 67
1, 987106, Note_off_c, 0, 61, 59
1, 987173, Note_on_c, 0, 53, 77
1, 987198, Note_off_c, 0, 52, 63
1, 987201, Note_off_c, 0, 53, 70
1, 987288, Note_on_c, 0, 37, 86
1, 987315, Note_off_c, 0, 37, 69
1, 987404, Note_on_c, 0, 68, 92
1, 987411, Note_on_c, 0, 60, 68
1, 987435, Note_off_c, 0, 73, 56
1, 987442, Note_on_c, 0, 59, 32
1, 987444, Note_off_c, 0, 68, 62
1, 987451, Note_off_c, 0, 60, 53
1, 987468, Control_c, 0, 64, 82
1, 987479, Note_off_c, 0, 59, 56
1, 987483, Control_c, 0, 64, 0
1, 987508, Note_on_c, 0, 52, 68
1, 987515, Note_on_c, 0, 67, 87
1, 987551, Note_off_c, 0, 67, 64
1, 987600, Note_off_c, 0, 52, 61
1, 987617, Note_on_c, 0, 53, 49
1, 987618, Note_on_c, 0, 68, 84
1, 987643, Note_off_c, 0, 53, 63
1, 987654, Note_off_c, 0, 68, 63
1, 987734, Note_on_c, 0, 69, 75
1, 987757, Note_on_c, 0, 44, 39
1, 987789, Note_off_c, 0, 44, 52
1, 987838, Note_on_c, 0, 58, 65
1, 987887, Note_off_c, 0, 58, 47
1, 987943, Note_off_c, 0, 69, 59
1, 987950, Note_on_c, 0, 48, 54
1, 987950, Note_on_c, 0, 70, 65
1, 987995, Control_c, 0, 64, 50
1, 988009, Control_c, 0, 64, 61
1, 988024, Control_c, 0, 64, 63
1, 988039, Control_c, 0, 64, 65
1, 988041, Note_off_c, 0, 48, 60
1, 988049, Note_on_c, 0, 49, 76
1, 988054, Control_c, 0, 64, 69
1, 988069, Control_c, 0, 64, 71
1, 988082, Note_off_c, 0, 49, 67
1, 988084, Control_c, 0, 64, 73
1, 988099, Control_c, 0, 64, 75
1, 988114, Control_c, 0, 64, 80
1, 988129, Control_c, 0, 64, 87
1, 988143, Control_c, 0, 64, 95
1, 988158, Control_c, 0, 64, 96
1, 988171, Note_on_c, 0, 37, 77
1, 988173, Control_c, 0, 64, 94
1, 988188, Control_c, 0, 64, 84
1, 988195, Note_off_c, 0, 37, 68
1, 988202, Control_c, 0, 64, 70
1, 988214, Note_off_c, 0, 70, 51
1, 988217, Control_c, 0, 64, 69
1, 988232, Control_c, 0, 64, 76
1, 988247, Control_c, 0, 64, 83
1, 988260, Note_on_c, 0, 58, 99
1, 988262, Control_c, 0, 64, 91
1, 988276, Control_c, 0, 64, 106
1, 988291, Control_c, 0, 64, 127
1, 988358, Control_c, 0, 64, 114
1, 988373, Control_c, 0, 64, 76
1, 988380, Note_off_c, 0, 58, 60
1, 988384, Note_on_c, 0, 61, 109
1, 988385, Note_on_c, 0, 48, 73
1, 988388, Control_c, 0, 64, 64
1, 988402, Control_c, 0, 64, 72
1, 988417, Control_c, 0, 64, 79
1, 988432, Control_c, 0, 64, 88
1, 988447, Control_c, 0, 64, 104
1, 988462, Control_c, 0, 64, 127
1, 988478, Note_on_c, 0, 49, 82
1, 988486, Note_off_c, 0, 48, 61
1, 988580, Note_off_c, 0, 61, 63
1, 988601, Note_off_c, 0, 49, 62
1, 988609, Control_c, 0, 64, 82
1, 988617, Note_on_c, 0, 75, 93
1, 988617, Note_on_c, 0, 44, 82
1, 988624, Control_c, 0, 64, 0
1, 988635, Note_off_c, 0, 75, 70
1, 988668, Note_off_c, 0, 44, 62
1, 988729, Note_on_c, 0, 59, 79
1, 988847, Note_off_c, 0, 59, 51
1, 988872, Note_on_c, 0, 74, 101
1, 988874, Note_on_c, 0, 52, 67
1, 988877, Control_c, 0, 64, 68
1, 988892, Control_c, 0, 64, 80
1, 988907, Control_c, 0, 64, 95
1, 988921, Control_c, 0, 64, 113
1, 988936, Control_c, 0, 64, 127
1, 988949, Note_on_c, 0, 53, 78
1, 988972, Note_off_c, 0, 52, 62
1, 988975, Note_off_c, 0, 53, 71
1, 989071, Note_on_c, 0, 37, 93
1, 989076, Control_c, 0, 64, 88
1, 989091, Control_c, 0, 64, 64
1, 989095, Note_off_c, 0, 37, 71
1, 989106, Control_c, 0, 64, 61
1, 989121, Control_c, 0, 64, 69
1, 989136, Control_c, 0, 64, 75
1, 989150, Control_c, 0, 64, 83
1, 989165, Control_c, 0, 64, 95
1, 989172, Note_off_c, 0, 74, 59
1, 989179, Note_on_c, 0, 73, 88
1, 989180, Control_c, 0, 64, 105
1, 989187, Note_on_c, 0, 60, 70
1, 989190, Note_on_c, 0, 59, 75
1, 989195, Control_c, 0, 64, 114
1, 989198, Note_off_c, 0, 73, 71
1, 989210, Control_c, 0, 64, 116
1, 989213, Note_off_c, 0, 60, 69
1, 989224, Control_c, 0, 64, 116
1, 989226, Note_off_c, 0, 59, 54
1, 989254, Control_c, 0, 64, 116
1, 989269, Control_c, 0, 64, 113
1, 989276, Note_on_c, 0, 67, 95
1, 989284, Control_c, 0, 64, 94
1, 989298, Control_c, 0, 64, 72
1, 989299, Note_on_c, 0, 52, 49
1, 989313, Note_on_c, 0, 50, 45
1, 989313, Control_c, 0, 64, 0
1, 989314, Note_off_c, 0, 67, 62
1, 989343, Note_off_c, 0, 50, 57
1, 989369, Note_on_c, 0, 53, 75
1, 989376, Note_on_c, 0, 68, 91
1, 989378, Note_off_c, 0, 52, 62
1, 989398, Note_off_c, 0, 53, 70
1, 989411, Note_off_c, 0, 68, 66
1, 989485, Note_on_c, 0, 69, 84
1, 989502, Note_on_c, 0, 42, 73
1, 989534, Note_off_c, 0, 42, 64
1, 989598, Note_on_c, 0, 58, 88
1, 989625, Control_c, 0, 64, 51
1, 989640, Control_c, 0, 64, 60
1, 989655, Control_c, 0, 64, 64
1, 989670, Control_c, 0, 64, 67
1, 989685, Control_c, 0, 64, 70
1, 989700, Note_off_c, 0, 58, 59
1, 989700, Control_c, 0, 64, 72
1, 989705, Note_on_c, 0, 48, 80
1, 989714, Control_c, 0, 64, 74
1, 989717, Note_on_c, 0, 70, 89
1, 989729, Control_c, 0, 64, 78
1, 989738, Note_off_c, 0, 69, 62
1, 989744, Control_c, 0, 64, 81
1, 989759, Control_c, 0, 64, 84
1, 989773, Control_c, 0, 64, 87
1, 989788, Control_c, 0, 64, 90
1, 989808, Note_on_c, 0, 49, 88
1, 989810, Control_c, 0, 64, 95
1, 989820, Note_off_c, 0, 48, 62
1, 989825, Control_c, 0, 64, 105
1, 989840, Control_c, 0, 64, 127
1, 989852, Note_off_c, 0, 49, 66
1, 989882, Note_off_c, 0, 70, 59
1, 989923, Note_on_c, 0, 37, 90
1, 989929, Control_c, 0, 64, 113
1, 989944, Control_c, 0, 64, 87
1, 989946, Note_off_c, 0, 37, 71
1, 989959, Control_c, 0, 64, 83
1, 989973, Control_c, 0, 64, 89
1, 989988, Control_c, 0, 64, 100
1, 990003, Control_c, 0, 64, 120
1, 990018, Control_c, 0, 64, 127
1, 990032, Note_on_c, 0, 58, 101
1, 990106, Control_c, 0, 64, 91
1, 990121, Control_c, 0, 64, 64
1, 990136, Control_c, 0, 64, 54
1, 990149, Note_off_c, 0, 58, 38
1, 990151, Control_c, 0, 64, 70
1, 990154, Note_on_c, 0, 48, 83
1, 990160, Note_on_c, 0, 66, 111
1, 990166, Control_c, 0, 64, 78
1, 990180, Control_c, 0, 64, 90
1, 990195, Control_c, 0, 64, 112
1, 990210, Control_c, 0, 64, 127
1, 990266, Note_on_c, 0, 49, 91
1, 990283, Note_off_c, 0, 48, 58
1, 990314, Note_off_c, 0, 66, 64
1, 990381, Note_off_c, 0, 49, 59
1, 990419, Control_c, 0, 64, 78
1, 990434, Note_on_c, 0, 81, 105
1, 990434, Control_c, 0, 64, 0
1, 990435, Note_on_c, 0, 46, 91
1, 990465, Note_off_c, 0, 81, 71
1, 990521, Note_off_c, 0, 46, 63
1, 990604, Control_c, 0, 64, 40
1, 990618, Note_on_c, 0, 61, 88
1, 990619, Control_c, 0, 64, 62
1, 990634, Control_c, 0, 64, 66
1, 990649, Control_c, 0, 64, 69
1, 990664, Control_c, 0, 64, 73
1, 990678, Control_c, 0, 64, 78
1, 990693, Control_c, 0, 64, 83
1, 990708, Control_c, 0, 64, 88
1, 990722, Control_c, 0, 64, 95
1, 990737, Control_c, 0, 64, 101
1, 990752, Control_c, 0, 64, 109
1, 990763, Note_off_c, 0, 61, 60
1, 990766, Note_on_c, 0, 51, 79
1, 990767, Note_on_c, 0, 79, 103
1, 990767, Control_c, 0, 64, 127
1, 990868, Note_on_c, 0, 52, 81
1, 990901, Note_off_c, 0, 51, 58
1, 990912, Note_off_c, 0, 52, 64
1, 990984, Note_on_c, 0, 42, 99
1, 990990, Control_c, 0, 64, 79
1, 991004, Control_c, 0, 64, 64
1, 991015, Note_off_c, 0, 42, 60
1, 991019, Control_c, 0, 64, 69
1, 991034, Control_c, 0, 64, 75
1, 991041, Note_off_c, 0, 79, 49
1, 991049, Control_c, 0, 64, 84
1, 991064, Control_c, 0, 64, 103
1, 991078, Control_c, 0, 64, 127
1, 991086, Note_on_c, 0, 78, 95
1, 991095, Note_on_c, 0, 58, 90
1, 991129, Note_off_c, 0, 78, 67
1, 991157, Note_off_c, 0, 58, 61
1, 991168, Control_c, 0, 64, 91
1, 991183, Control_c, 0, 64, 73
1, 991184, Note_on_c, 0, 72, 90
1, 991198, Control_c, 0, 64, 73
1, 991199, Note_on_c, 0, 51, 68
1, 991213, Control_c, 0, 64, 83
1, 991227, Control_c, 0, 64, 90
1, 991235, Note_off_c, 0, 72, 64
1, 991242, Control_c, 0, 64, 94
1, 991257, Control_c, 0, 64, 101
1, 991272, Control_c, 0, 64, 107
1, 991282, Note_on_c, 0, 52, 77
1, 991300, Note_on_c, 0, 73, 94
1, 991309, Control_c, 0, 64, 107
1, 991324, Control_c, 0, 64, 110
1, 991325, Note_off_c, 0, 51, 58
1, 991339, Control_c, 0, 64, 117
1, 991347, Note_off_c, 0, 73, 63
1, 991351, Note_off_c, 0, 52, 63
1, 991353, Control_c, 0, 64, 127
1, 991383, Control_c, 0, 64, 99
1, 991398, Control_c, 0, 64, 70
1, 991405, Note_on_c, 0, 76, 81
1, 991409, Note_on_c, 0, 47, 84
1, 991411, Note_on_c, 0, 66, 77
1, 991413, Control_c, 0, 64, 0
1, 991422, Note_on_c, 0, 71, 52
1, 991434, Note_on_c, 0, 75, 26
1, 991438, Note_off_c, 0, 75, 45
1, 991495, Note_off_c, 0, 76, 61
1, 991500, Note_off_c, 0, 47, 52
1, 991521, Note_on_c, 0, 74, 83
1, 991528, Note_off_c, 0, 66, 59
1, 991532, Note_off_c, 0, 71, 60
1, 991558, Note_off_c, 0, 74, 66
1, 991629, Note_on_c, 0, 73, 100
1, 991635, Note_on_c, 0, 62, 80
1, 991636, Note_on_c, 0, 49, 87
1, 991645, Note_on_c, 0, 66, 73
1, 991660, Note_off_c, 0, 49, 68
1, 991679, Note_off_c, 0, 62, 47
1, 991730, Note_on_c, 0, 62, 28
1, 991731, Note_on_c, 0, 71, 75
1, 991737, Note_off_c, 0, 66, 61
1, 991742, Note_off_c, 0, 73, 55
1, 991760, Note_off_c, 0, 62, 50
1, 991768, Note_off_c, 0, 71, 67
1, 991843, Note_on_c, 0, 69, 86
1, 991844, Note_on_c, 0, 50, 86
1, 991852, Note_on_c, 0, 59, 81
1, 991859, Note_on_c, 0, 62, 64
1, 991869, Note_off_c, 0, 50, 70
1, 991941, Note_off_c, 0, 69, 59
1, 991951, Note_on_c, 0, 68, 76
1, 991960, Note_off_c, 0, 59, 52
1, 991962, Note_off_c, 0, 62, 62
1, 992003, Note_off_c, 0, 68, 59
1, 992063, Note_on_c, 0, 51, 86
1, 992073, Note_on_c, 0, 68, 82
1, 992078, Note_on_c, 0, 57, 77
1, 992086, Note_on_c, 0, 60, 70
1, 992087, Note_off_c, 0, 51, 67
1, 992174, Note_on_c, 0, 66, 75
1, 992177, Note_off_c, 0, 57, 59
1, 992181, Note_off_c, 0, 60, 56
1, 992202, Note_off_c, 0, 68, 59
1, 992229, Note_off_c, 0, 66, 62
1, 992285, Note_on_c, 0, 52, 81
1, 992285, Note_on_c, 0, 66, 82
1, 992290, Note_on_c, 0, 40, 78
1, 992293, Note_on_c, 0, 57, 77
1, 992301, Note_on_c, 0, 61, 73
1, 992308, Note_off_c, 0, 52, 66
1, 992319, Note_off_c, 0, 40, 66
1, 992362, Note_off_c, 0, 57, 50
1, 992384, Note_off_c, 0, 61, 61
1, 992386, Note_on_c, 0, 64, 76
1, 992399, Note_off_c, 0, 66, 58
1, 992433, Note_off_c, 0, 64, 61
1, 992496, Note_on_c, 0, 41, 64
1, 992499, Note_on_c, 0, 56, 72
1, 992499, Note_on_c, 0, 64, 73
1, 992513, Note_on_c, 0, 59, 51
1, 992522, Note_off_c, 0, 41, 61
1, 992561, Control_c, 0, 67, 8
1, 992592, Note_off_c, 0, 56, 34
1, 992596, Note_on_c, 0, 62, 73
1, 992597, Note_off_c, 0, 64, 63
1, 992633, Note_off_c, 0, 59, 49
1, 992635, Note_off_c, 0, 62, 59
1, 992707, Note_on_c, 0, 42, 58
1, 992712, Note_on_c, 0, 63, 72
1, 992714, Note_on_c, 0, 54, 71
1, 992735, Note_off_c, 0, 42, 61
1, 992742, Note_on_c, 0, 61, 36
1, 992800, Note_off_c, 0, 54, 42
1, 992803, Note_off_c, 0, 61, 0
1, 992803, Note_on_c, 0, 61, 45
1, 992806, Note_off_c, 0, 63, 61
1, 992859, Note_off_c, 0, 61, 61
1, 992866, Control_c, 0, 67, 8
1, 992919, Note_on_c, 0, 44, 59
1, 992925, Note_on_c, 0, 61, 72
1, 992934, Note_on_c, 0, 50, 61
1, 992940, Control_c, 0, 67, 9
1, 992945, Note_off_c, 0, 44, 59
1, 992955, Control_c, 0, 67, 9
1, 992974, Note_off_c, 0, 50, 63
1, 992985, Control_c, 0, 67, 10
1, 992999, Control_c, 0, 67, 11
1, 993012, Note_off_c, 0, 61, 63
1, 993014, Control_c, 0, 67, 12
1, 993020, Note_on_c, 0, 59, 67
1, 993029, Control_c, 0, 67, 15
1, 993044, Control_c, 0, 67, 17
1, 993054, Note_off_c, 0, 59, 61
1, 993059, Control_c, 0, 67, 20
1, 993074, Control_c, 0, 67, 23
1, 993089, Control_c, 0, 67, 24
1, 993140, Note_on_c, 0, 45, 62
1, 993141, Note_on_c, 0, 49, 65
1, 993151, Note_on_c, 0, 59, 62
1, 993163, Control_c, 0, 67, 24
1, 993166, Note_off_c, 0, 45, 62
1, 993192, Control_c, 0, 67, 23
1, 993232, Note_off_c, 0, 59, 56
1, 993241, Note_on_c, 0, 57, 66
1, 993247, Note_off_c, 0, 49, 61
1, 993280, Note_off_c, 0, 57, 61
1, 993429, Control_c, 0, 67, 23
1, 993555, Control_c, 0, 67, 22
1, 993586, Control_c, 0, 67, 22
1, 993607, Note_on_c, 0, 48, 61
1, 993607, Note_on_c, 0, 56, 60
1, 993616, Control_c, 0, 67, 21
1, 993631, Note_off_c, 0, 48, 61
1, 993644, Poly_aftertouch_c, 0, 51, 127
1, 993652, Note_on_c, 0, 51, 2
1, 993668, Note_off_c, 0, 51, 46
1, 993683, Note_off_c, 0, 56, 59
1, 993704, Control_c, 0, 67, 22
1, 993708, Note_on_c, 0, 54, 59
1, 993734, Note_off_c, 0, 54, 65
1, 994115, Note_on_c, 0, 49, 60
1, 994129, Note_on_c, 0, 53, 70
1, 994134, Control_c, 0, 67, 21
1, 994167, Note_off_c, 0, 49, 53
1, 994167, Note_off_c, 0, 53, 63
1, 994193, Control_c, 0, 67, 21
1, 994222, Note_on_c, 0, 61, 71
1, 994453, Control_c, 0, 67, 21
1, 994616, Control_c, 0, 67, 20
1, 994631, Note_on_c, 0, 44, 65
1, 994631, Control_c, 0, 67, 17
1, 994635, Note_on_c, 0, 37, 59
1, 994645, Control_c, 0, 64, 60
1, 994645, Control_c, 0, 67, 0
1, 994660, Note_off_c, 0, 44, 64
1, 994660, Control_c, 0, 64, 83
1, 994666, Note_off_c, 0, 37, 63
1, 994675, Note_off_c, 0, 61, 62
1, 994675, Control_c, 0, 64, 127
1, 994893, Note_on_c, 0, 29, 78
1, 994897, Control_c, 0, 64, 98
1, 994899, Note_on_c, 0, 41, 90
1, 994911, Control_c, 0, 64, 71
1, 994912, Note_on_c, 0, 61, 102
1, 994913, Note_on_c, 0, 73, 101
1, 994921, Note_off_c, 0, 29, 64
1, 994926, Control_c, 0, 64, 67
1, 994937, Note_off_c, 0, 41, 64
1, 994941, Control_c, 0, 64, 77
1, 994956, Control_c, 0, 64, 91
1, 994970, Control_c, 0, 64, 117
1, 994985, Control_c, 0, 64, 127
1, 995075, Note_on_c, 0, 41, 74
1, 995103, Note_off_c, 0, 61, 57
1, 995125, Note_on_c, 0, 49, 83
1, 995140, Note_off_c, 0, 73, 55
1, 995141, Control_c, 0, 64, 96
1, 995156, Control_c, 0, 64, 68
1, 995161, Note_off_c, 0, 41, 61
1, 995172, Control_c, 0, 64, 67
1, 995181, Note_on_c, 0, 72, 95
1, 995183, Note_on_c, 0, 56, 101
1, 995187, Control_c, 0, 64, 79
1, 995201, Control_c, 0, 64, 91
1, 995216, Control_c, 0, 64, 112
1, 995217, Note_off_c, 0, 72, 70
1, 995223, Note_off_c, 0, 49, 64
1, 995231, Control_c, 0, 64, 127
1, 995293, Note_off_c, 0, 56, 60
1, 995379, Control_c, 0, 64, 121
1, 995393, Control_c, 0, 64, 75
1, 995408, Control_c, 0, 64, 0
1, 995418, Note_on_c, 0, 85, 100
1, 995422, Note_on_c, 0, 71, 95
1, 995423, Note_on_c, 0, 51, 90
1, 995438, Control_c, 0, 64, 62
1, 995453, Control_c, 0, 64, 71
1, 995468, Control_c, 0, 64, 82
1, 995482, Control_c, 0, 64, 98
1, 995484, Note_off_c, 0, 51, 56
1, 995497, Control_c, 0, 64, 115
1, 995512, Control_c, 0, 64, 127
1, 995527, Note_on_c, 0, 53, 91
1, 995583, Note_off_c, 0, 85, 62
1, 995601, Control_c, 0, 64, 117
1, 995602, Note_off_c, 0, 53, 59
1, 995615, Note_off_c, 0, 71, 62
1, 995616, Control_c, 0, 64, 69
1, 995631, Control_c, 0, 64, 0
1, 995633, Note_on_c, 0, 49, 97
1, 995646, Control_c, 0, 64, 55
1, 995659, Control_c, 0, 64, 70
1, 995673, Note_off_c, 0, 49, 67
1, 995674, Control_c, 0, 64, 81
1, 995689, Control_c, 0, 64, 101
1, 995704, Control_c, 0, 64, 127
1, 995745, Note_on_c, 0, 80, 99
1, 995750, Note_on_c, 0, 68, 78
1, 995773, Note_off_c, 0, 68, 69
1, 995790, Note_off_c, 0, 80, 66
1, 995844, Control_c, 0, 64, 112
1, 995853, Note_on_c, 0, 46, 83
1, 995855, Note_on_c, 0, 83, 93
1, 995857, Note_on_c, 0, 81, 88
1, 995858, Note_on_c, 0, 69, 89
1, 995859, Control_c, 0, 64, 67
1, 995874, Control_c, 0, 64, 0
1, 995876, Note_off_c, 0, 46, 65
1, 995876, Note_off_c, 0, 69, 71
1, 995885, Note_off_c, 0, 83, 64
1, 995891, Note_off_c, 0, 81, 64
1, 995956, Note_on_c, 0, 80, 93
1, 995957, Note_on_c, 0, 68, 84
1, 995959, Note_on_c, 0, 49, 85
1, 995989, Note_off_c, 0, 68, 63
1, 995990, Note_off_c, 0, 49, 62
1, 996000, Note_on_c, 0, 70, 26
1, 996001, Note_off_c, 0, 70, 127
1, 996001, Note_off_c, 0, 80, 58
1, 996064, Note_on_c, 0, 45, 86
1, 996072, Note_on_c, 0, 78, 95
1, 996076, Note_on_c, 0, 66, 87
1, 996083, Control_c, 0, 64, 66
1, 996092, Note_off_c, 0, 45, 69
1, 996097, Control_c, 0, 64, 89
1, 996112, Control_c, 0, 64, 117
1, 996127, Control_c, 0, 64, 127
1, 996144, Note_off_c, 0, 78, 65
1, 996199, Note_off_c, 0, 66, 63
1, 996292, Note_on_c, 0, 44, 96
1, 996303, Note_on_c, 0, 73, 94
1, 996310, Note_on_c, 0, 61, 79
1, 996320, Control_c, 0, 64, 80
1, 996329, Note_off_c, 0, 44, 66
1, 996334, Control_c, 0, 64, 0
1, 996397, Note_on_c, 0, 45, 94
1, 996435, Note_off_c, 0, 45, 66
1, 996510, Note_on_c, 0, 42, 98
1, 996547, Note_off_c, 0, 42, 66
1, 996549, Control_c, 0, 64, 56
1, 996564, Control_c, 0, 64, 78
1, 996579, Control_c, 0, 64, 101
1, 996586, Note_off_c, 0, 61, 56
1, 996588, Note_off_c, 0, 73, 54
1, 996594, Control_c, 0, 64, 127
1, 996741, Control_c, 0, 64, 90
1, 996749, Note_on_c, 0, 30, 82
1, 996755, Note_on_c, 0, 42, 94
1, 996756, Control_c, 0, 64, 70
1, 996769, Note_on_c, 0, 62, 92
1, 996772, Note_on_c, 0, 74, 102
1, 996772, Control_c, 0, 64, 73
1, 996778, Note_off_c, 0, 30, 66
1, 996785, Note_off_c, 0, 42, 62
1, 996787, Control_c, 0, 64, 87
1, 996802, Control_c, 0, 64, 102
1, 996817, Control_c, 0, 64, 127
1, 996889, Poly_aftertouch_c, 0, 43, 0
1, 996928, Note_on_c, 0, 42, 73
1, 996945, Note_on_c, 0, 50, 56
1, 996964, Control_c, 0, 64, 96
1, 996979, Control_c, 0, 64, 64
1, 996985, Note_off_c, 0, 62, 53
1, 996994, Control_c, 0, 64, 0
1, 996997, Note_off_c, 0, 42, 63
1, 997002, Note_on_c, 0, 57, 104
1, 997005, Note_on_c, 0, 73, 100
1, 997009, Control_c, 0, 64, 64
1, 997022, Note_off_c, 0, 74, 65
1, 997024, Control_c, 0, 64, 77
1, 997037, Note_off_c, 0, 50, 66
1, 997038, Control_c, 0, 64, 98
1, 997044, Note_off_c, 0, 73, 68
1, 997053, Control_c, 0, 64, 127
1, 997110, Note_off_c, 0, 57, 34
1, 997232, Control_c, 0, 64, 88
1, 997238, Note_on_c, 0, 86, 106
1, 997244, Note_on_c, 0, 52, 84
1, 997247, Control_c, 0, 64, 54
1, 997247, Note_on_c, 0, 74, 83
1, 997250, Note_on_c, 0, 72, 82
1, 997262, Control_c, 0, 64, 0
1, 997277, Control_c, 0, 64, 64
1, 997298, Control_c, 0, 64, 74
1, 997313, Control_c, 0, 64, 84
1, 997328, Control_c, 0, 64, 101
1, 997343, Control_c, 0, 64, 127
1, 997363, Note_on_c, 0, 54, 95
1, 997381, Note_off_c, 0, 52, 36
1, 997386, Note_off_c, 0, 86, 63
1, 997422, Note_off_c, 0, 54, 64
1, 997438, Note_off_c, 0, 74, 62
1, 997447, Note_off_c, 0, 72, 63
1, 997462, Note_on_c, 0, 50, 98
1, 997477, Control_c, 0, 64, 102
1, 997491, Control_c, 0, 64, 79
1, 997506, Control_c, 0, 64, 76
1, 997521, Control_c, 0, 64, 87
1, 997521, Note_off_c, 0, 50, 67
1, 997536, Control_c, 0, 64, 99
1, 997551, Control_c, 0, 64, 107
1, 997566, Control_c, 0, 64, 126
1, 997570, Note_on_c, 0, 81, 94
1, 997581, Control_c, 0, 64, 127
1, 997581, Note_on_c, 0, 69, 79
1, 997601, Note_off_c, 0, 69, 73
1, 997611, Note_off_c, 0, 81, 66
1, 997662, Note_on_c, 0, 48, 83
1, 997670, Control_c, 0, 64, 117
1, 997676, Note_on_c, 0, 84, 91
1, 997678, Note_on_c, 0, 71, 90
1, 997678, Note_on_c, 0, 83, 94
1, 997685, Control_c, 0, 64, 73
1, 997692, Note_off_c, 0, 48, 66
1, 997697, Note_off_c, 0, 84, 64
1, 997700, Note_off_c, 0, 71, 67
1, 997700, Control_c, 0, 64, 0
1, 997706, Note_off_c, 0, 83, 64
1, 997781, Note_on_c, 0, 50, 72
1, 997781, Note_on_c, 0, 81, 98
1, 997793, Note_on_c, 0, 69, 75
1, 997807, Note_off_c, 0, 50, 68
1, 997811, Note_off_c, 0, 81, 69
1, 997813, Note_off_c, 0, 69, 72
1, 997893, Note_on_c, 0, 80, 90
1, 997900, Note_on_c, 0, 47, 70
1, 997906, Note_on_c, 0, 68, 75
1, 997921, Control_c, 0, 64, 42
1, 997936, Control_c, 0, 64, 77
1, 997951, Control_c, 0, 64, 102
1, 997966, Control_c, 0, 64, 127
1, 997981, Note_off_c, 0, 47, 59
1, 997996, Note_off_c, 0, 80, 63
1, 998008, Note_off_c, 0, 68, 60
1, 998132, Note_on_c, 0, 71, 74
1, 998136, Note_on_c, 0, 59, 72
1, 998136, Control_c, 0, 64, 98
1, 998138, Note_on_c, 0, 50, 69
1, 998151, Control_c, 0, 64, 77
1, 998166, Control_c, 0, 64, 72
1, 998181, Control_c, 0, 64, 79
1, 998192, Note_off_c, 0, 59, 56
1, 998195, Control_c, 0, 64, 86
1, 998210, Note_off_c, 0, 50, 63
1, 998210, Control_c, 0, 64, 90
1, 998220, Note_off_c, 0, 71, 63
1, 998225, Control_c, 0, 64, 95
1, 998240, Note_on_c, 0, 53, 85
1, 998240, Control_c, 0, 64, 104
1, 998255, Control_c, 0, 64, 119
1, 998268, Note_off_c, 0, 53, 67
1, 998270, Control_c, 0, 64, 127
1, 998299, Control_c, 0, 64, 109
1, 998314, Control_c, 0, 64, 84
1, 998329, Control_c, 0, 64, 64
1, 998341, Note_on_c, 0, 38, 94
1, 998344, Control_c, 0, 64, 59
1, 998359, Control_c, 0, 64, 70
1, 998374, Control_c, 0, 64, 79
1, 998387, Note_off_c, 0, 38, 66
1, 998389, Control_c, 0, 64, 88
1, 998404, Control_c, 0, 64, 99
1, 998419, Control_c, 0, 64, 117
1, 998434, Control_c, 0, 64, 127
1, 998447, Note_on_c, 0, 79, 91
1, 998449, Note_on_c, 0, 67, 86
1, 998476, Note_off_c, 0, 67, 64
1, 998487, Note_off_c, 0, 79, 65
1, 998537, Control_c, 0, 64, 97
1, 998552, Control_c, 0, 64, 45
1, 998553, Note_on_c, 0, 49, 74
1, 998553, Note_on_c, 0, 82, 89
1, 998556, Note_on_c, 0, 70, 84
1, 998565, Note_on_c, 0, 81, 71
1, 998567, Control_c, 0, 64, 0
1, 998574, Note_off_c, 0, 82, 66
1, 998577, Note_off_c, 0, 49, 67
1, 998577, Note_off_c, 0, 70, 70
1, 998587, Note_off_c, 0, 81, 70
1, 998659, Note_on_c, 0, 79, 95
1, 998667, Note_on_c, 0, 67, 76
1, 998674, Note_on_c, 0, 52, 59
1, 998688, Note_off_c, 0, 67, 69
1, 998700, Note_off_c, 0, 52, 58
1, 998702, Note_off_c, 0, 79, 63
1, 998784, Note_on_c, 0, 78, 89
1, 998794, Note_on_c, 0, 66, 77
1, 998794, Note_on_c, 0, 38, 70
1, 998811, Control_c, 0, 64, 44
1, 998826, Control_c, 0, 64, 78
1, 998841, Control_c, 0, 64, 100
1, 998856, Control_c, 0, 64, 127
1, 998897, Note_off_c, 0, 38, 56
1, 998910, Note_off_c, 0, 78, 64
1, 998916, Note_off_c, 0, 66, 62
1, 999004, Control_c, 0, 64, 101
1, 999016, Note_on_c, 0, 45, 79
1, 999017, Note_on_c, 0, 72, 78
1, 999018, Control_c, 0, 64, 72
1, 999027, Note_on_c, 0, 60, 62
1, 999033, Control_c, 0, 64, 52
1, 999047, Note_off_c, 0, 45, 68
1, 999048, Control_c, 0, 64, 67
1, 999063, Control_c, 0, 64, 74
1, 999077, Control_c, 0, 64, 79
1, 999092, Control_c, 0, 64, 86
1, 999107, Control_c, 0, 64, 95
1, 999109, Note_off_c, 0, 60, 62
1, 999122, Control_c, 0, 64, 108
1, 999124, Note_on_c, 0, 50, 88
1, 999136, Note_off_c, 0, 72, 64
1, 999137, Control_c, 0, 64, 127
1, 999167, Note_off_c, 0, 50, 68
1, 999232, Note_on_c, 0, 38, 93
1, 999271, Control_c, 0, 64, 100
1, 999274, Note_off_c, 0, 38, 66
1, 999286, Control_c, 0, 64, 74
1, 999301, Control_c, 0, 64, 60
1, 999316, Control_c, 0, 64, 64
1, 999331, Control_c, 0, 64, 66
1, 999342, Note_on_c, 0, 78, 94
1, 999346, Control_c, 0, 64, 66
1, 999348, Note_on_c, 0, 66, 90
1, 999360, Control_c, 0, 64, 67
1, 999367, Note_off_c, 0, 66, 68
1, 999375, Control_c, 0, 64, 68
1, 999381, Note_off_c, 0, 78, 57
1, 999390, Control_c, 0, 64, 69
1, 999404, Control_c, 0, 64, 71
1, 999419, Control_c, 0, 64, 73
1, 999433, Control_c, 0, 64, 70
1, 999443, Note_on_c, 0, 47, 76
1, 999448, Control_c, 0, 64, 38
1, 999450, Note_on_c, 0, 79, 96
1, 999453, Note_on_c, 0, 67, 85
1, 999463, Control_c, 0, 64, 0
1, 999466, Note_off_c, 0, 47, 67
1, 999466, Note_off_c, 0, 79, 70
1, 999471, Note_off_c, 0, 67, 71
1, 999562, Note_on_c, 0, 50, 73
1, 999568, Note_on_c, 0, 59, 93
1, 999568, Note_on_c, 0, 71, 99
1, 999585, Note_off_c, 0, 59, 72
1, 999593, Note_off_c, 0, 50, 69
1, 999602, Note_off_c, 0, 71, 67
1, 999684, Note_on_c, 0, 72, 93
1, 999687, Note_on_c, 0, 60, 87
1, 999691, Note_on_c, 0, 38, 80
1, 999707, Control_c, 0, 64, 24
1, 999722, Control_c, 0, 64, 63
1, 999724, Note_on_c, 0, 71, 29
1, 999725, Note_off_c, 0, 71, 127
1, 999737, Control_c, 0, 64, 70
1, 999752, Control_c, 0, 64, 76
1, 999766, Control_c, 0, 64, 83
1, 999781, Control_c, 0, 64, 91
1, 999796, Note_off_c, 0, 60, 64
1, 999796, Control_c, 0, 64, 99
1, 999811, Control_c, 0, 64, 107
1, 999824, Note_off_c, 0, 38, 33
1, 999826, Control_c, 0, 64, 127
1, 999829, Note_off_c, 0, 72, 65
1, 999885, Control_c, 0, 64, 104
1, 999900, Control_c, 0, 64, 71
1, 999915, Control_c, 0, 64, 0
1, 999919, Note_on_c, 0, 45, 80
1, 999924, Note_on_c, 0, 78, 90
1, 999930, Control_c, 0, 64, 58
1, 999938, Note_on_c, 0, 66, 69
1, 999945, Control_c, 0, 64, 68
1, 999948, Note_off_c, 0, 45, 67
1, 999960, Control_c, 0, 64, 72
1, 999975, Control_c, 0, 64, 78
1, 999990, Control_c, 0, 64, 88
1, 1000004, Control_c, 0, 64, 99
1, 1000019, Control_c, 0, 64, 107
1, 1000025, Note_on_c, 0, 50, 89
1, 1000034, Control_c, 0, 64, 109
1, 1000049, Control_c, 0, 64, 108
1, 1000064, Control_c, 0, 64, 105
1, 1000078, Note_off_c, 0, 50, 66
1, 1000079, Control_c, 0, 64, 85
1, 1000085, Note_off_c, 0, 66, 56
1, 1000094, Control_c, 0, 64, 0
1, 1000130, Note_off_c, 0, 78, 57
1, 1000142, Note_on_c, 0, 38, 90
1, 1000168, Control_c, 0, 64, 65
1, 1000183, Control_c, 0, 64, 81
1, 1000185, Note_off_c, 0, 38, 66
1, 1000198, Control_c, 0, 64, 96
1, 1000213, Control_c, 0, 64, 109
1, 1000228, Control_c, 0, 64, 113
1, 1000243, Control_c, 0, 64, 119
1, 1000257, Control_c, 0, 64, 127
1, 1000258, Note_on_c, 0, 78, 93
1, 1000266, Note_on_c, 0, 66, 82
1, 1000294, Note_off_c, 0, 66, 70
1, 1000310, Note_off_c, 0, 78, 61
1, 1000368, Control_c, 0, 64, 97
1, 1000377, Note_on_c, 0, 47, 82
1, 1000383, Control_c, 0, 64, 66
1, 1000383, Note_on_c, 0, 79, 97
1, 1000387, Note_on_c, 0, 67, 85
1, 1000398, Control_c, 0, 64, 0
1, 1000400, Note_off_c, 0, 47, 70
1, 1000400, Note_off_c, 0, 79, 70
1, 1000407, Note_off_c, 0, 67, 70
1, 1000493, Note_on_c, 0, 71, 101
1, 1000494, Note_on_c, 0, 59, 91
1, 1000495, Note_on_c, 0, 50, 85
1, 1000512, Note_off_c, 0, 59, 67
1, 1000527, Note_off_c, 0, 50, 64
1, 1000529, Note_off_c, 0, 71, 66
1, 1000616, Note_on_c, 0, 38, 95
1, 1000616, Note_on_c, 0, 72, 97
1, 1000620, Note_on_c, 0, 60, 88
1, 1000634, Control_c, 0, 64, 41
1, 1000649, Control_c, 0, 64, 69
1, 1000664, Control_c, 0, 64, 75
1, 1000679, Control_c, 0, 64, 78
1, 1000694, Control_c, 0, 64, 81
1, 1000708, Control_c, 0, 64, 83
1, 1000723, Control_c, 0, 64, 86
1, 1000738, Note_off_c, 0, 38, 32
1, 1000738, Control_c, 0, 64, 88
1, 1000747, Note_off_c, 0, 60, 64
1, 1000754, Control_c, 0, 64, 91
1, 1000769, Control_c, 0, 64, 93
1, 1000782, Note_off_c, 0, 72, 65
1, 1000784, Control_c, 0, 64, 96
1, 1000799, Control_c, 0, 64, 99
1, 1000828, Control_c, 0, 64, 91
1, 1000843, Control_c, 0, 64, 75
1, 1000858, Control_c, 0, 64, 11
1, 1000863, Note_on_c, 0, 45, 81
1, 1000873, Note_on_c, 0, 78, 93
1, 1000873, Control_c, 0, 64, 39
1, 1000880, Note_on_c, 0, 66, 74
1, 1000887, Control_c, 0, 64, 61
1, 1000902, Control_c, 0, 64, 64
1, 1000907, Note_off_c, 0, 45, 64
1, 1000917, Control_c, 0, 64, 66
1, 1000932, Control_c, 0, 64, 69
1, 1000946, Control_c, 0, 64, 71
1, 1000961, Control_c, 0, 64, 72
1, 1000973, Note_on_c, 0, 50, 89
1, 1001021, Control_c, 0, 64, 69
1, 1001033, Note_off_c, 0, 50, 66
1, 1001043, Control_c, 0, 64, 0
1, 1001097, Note_off_c, 0, 66, 0
1, 1001106, Note_on_c, 0, 38, 91
1, 1001134, Note_off_c, 0, 78, 58
1, 1001145, Note_on_c, 0, 39, 35
1, 1001146, Poly_aftertouch_c, 0, 66, 0
1, 1001146, Control_c, 0, 64, 33
1, 1001161, Control_c, 0, 64, 62
1, 1001176, Control_c, 0, 64, 65
1, 1001182, Note_off_c, 0, 39, 31
1, 1001185, Note_off_c, 0, 38, 53
1, 1001191, Control_c, 0, 64, 66
1, 1001232, Note_on_c, 0, 78, 89
1, 1001235, Note_on_c, 0, 66, 77
1, 1001236, Control_c, 0, 64, 66
1, 1001251, Control_c, 0, 64, 65
1, 1001265, Note_off_c, 0, 66, 64
1, 1001265, Control_c, 0, 64, 61
1, 1001280, Control_c, 0, 64, 49
1, 1001283, Note_off_c, 0, 78, 62
1, 1001295, Control_c, 0, 64, 32
1, 1001310, Control_c, 0, 64, 0
1, 1001339, Control_c, 0, 64, 41
1, 1001352, Note_on_c, 0, 47, 66
1, 1001354, Control_c, 0, 64, 58
1, 1001355, Note_on_c, 0, 79, 96
1, 1001361, Note_on_c, 0, 67, 74
1, 1001369, Control_c, 0, 64, 64
1, 1001382, Note_off_c, 0, 79, 61
1, 1001382, Note_off_c, 0, 47, 68
1, 1001384, Control_c, 0, 64, 66
1, 1001385, Note_off_c, 0, 67, 68
1, 1001399, Control_c, 0, 64, 66
1, 1001413, Control_c, 0, 64, 65
1, 1001428, Control_c, 0, 64, 65
1, 1001457, Control_c, 0, 64, 65
1, 1001478, Note_on_c, 0, 50, 75
1, 1001487, Note_on_c, 0, 71, 84
1, 1001487, Control_c, 0, 64, 65
1, 1001491, Note_on_c, 0, 59, 74
1, 1001509, Note_off_c, 0, 50, 69
1, 1001512, Note_off_c, 0, 71, 66
1, 1001513, Note_off_c, 0, 59, 68
1, 1001517, Control_c, 0, 64, 64
1, 1001531, Control_c, 0, 64, 63
1, 1001546, Control_c, 0, 64, 62
1, 1001562, Control_c, 0, 64, 62
1, 1001577, Control_c, 0, 64, 56
1, 1001592, Control_c, 0, 64, 0
1, 1001646, Note_on_c, 0, 38, 68
1, 1001657, Note_on_c, 0, 72, 77
1, 1001665, Note_on_c, 0, 60, 61
1, 1001680, Control_c, 0, 67, 8
1, 1001692, Note_off_c, 0, 38, 57
1, 1001695, Control_c, 0, 67, 9
1, 1001710, Control_c, 0, 64, 59
1, 1001725, Control_c, 0, 64, 65
1, 1001740, Control_c, 0, 64, 68
1, 1001740, Control_c, 0, 67, 8
1, 1001754, Control_c, 0, 64, 69
1, 1001769, Control_c, 0, 64, 70
1, 1001769, Control_c, 0, 67, 8
1, 1001791, Note_off_c, 0, 60, 60
1, 1001792, Control_c, 0, 64, 70
1, 1001807, Control_c, 0, 64, 71
1, 1001822, Control_c, 0, 64, 72
1, 1001836, Control_c, 0, 64, 72
1, 1001866, Control_c, 0, 64, 71
1, 1001878, Note_off_c, 0, 72, 49
1, 1001880, Control_c, 0, 64, 61
1, 1001880, Control_c, 0, 67, 0
1, 1001890, Note_on_c, 0, 45, 69
1, 1001895, Control_c, 0, 64, 0
1, 1001914, Note_on_c, 0, 50, 76
1, 1001927, Note_off_c, 0, 45, 67
1, 1001945, Note_off_c, 0, 50, 68
1, 1002185, Note_on_c, 0, 78, 81
1, 1002187, Note_on_c, 0, 38, 67
1, 1002192, Control_c, 0, 64, 45
1, 1002197, Note_on_c, 0, 33, 40
1, 1002200, Note_on_c, 0, 72, 61
1, 1002202, Note_on_c, 0, 66, 58
1, 1002206, Control_c, 0, 64, 69
1, 1002214, Note_off_c, 0, 38, 64
1, 1002221, Control_c, 0, 64, 77
1, 1002225, Note_off_c, 0, 66, 63
1, 1002228, Note_off_c, 0, 72, 67
1, 1002234, Note_off_c, 0, 33, 50
1, 1002236, Control_c, 0, 64, 84
1, 1002237, Note_off_c, 0, 78, 62
1, 1002251, Control_c, 0, 64, 86
1, 1002325, Control_c, 0, 64, 85
1, 1002340, Control_c, 0, 64, 85
1, 1002356, Control_c, 0, 64, 84
1, 1002370, Control_c, 0, 64, 83
1, 1002385, Control_c, 0, 64, 82
1, 1002400, Control_c, 0, 64, 81
1, 1002415, Control_c, 0, 64, 73
1, 1002430, Control_c, 0, 64, 0
1, 1002455, Note_on_c, 0, 45, 67
1, 1002479, Note_on_c, 0, 50, 83
1, 1002494, Note_off_c, 0, 45, 66
1, 1002514, Note_off_c, 0, 50, 63
1, 1002630, Control_c, 0, 64, 35
1, 1002645, Control_c, 0, 64, 52
1, 1002659, Control_c, 0, 64, 58
1, 1002674, Control_c, 0, 64, 59
1, 1002689, Control_c, 0, 64, 57
1, 1002703, Control_c, 0, 64, 40
1, 1002718, Control_c, 0, 64, 0
1, 1002733, Note_on_c, 0, 45, 49
1, 1002736, Note_on_c, 0, 33, 53
1, 1002753, Note_on_c, 0, 38, 54
1, 1002756, Note_on_c, 0, 50, 58
1, 1002763, Note_off_c, 0, 45, 53
1, 1002768, Note_off_c, 0, 33, 54
1, 1002786, Note_off_c, 0, 50, 67
1, 1002801, Note_off_c, 0, 38, 45
1, 1002989, Note_on_c, 0, 54, 61
1, 1002993, Note_on_c, 0, 42, 64
1, 1003009, Note_on_c, 0, 45, 79
1, 1003012, Note_on_c, 0, 57, 69
1, 1003020, Note_off_c, 0, 42, 64
1, 1003021, Note_off_c, 0, 54, 66
1, 1003034, Note_off_c, 0, 45, 67
1, 1003038, Note_off_c, 0, 57, 65
1, 1003245, Note_on_c, 0, 50, 77
1, 1003250, Note_on_c, 0, 62, 72
1, 1003261, Note_on_c, 0, 54, 83
1, 1003266, Note_on_c, 0, 66, 88
1, 1003283, Note_off_c, 0, 62, 68
1, 1003290, Control_c, 0, 64, 45
1, 1003305, Control_c, 0, 64, 38
1, 1003306, Note_off_c, 0, 66, 63
1, 1003308, Note_off_c, 0, 50, 65
1, 1003320, Note_off_c, 0, 54, 63
1, 1003320, Control_c, 0, 64, 0
1, 1003503, Note_on_c, 0, 69, 74
1, 1003516, Note_on_c, 0, 57, 71
1, 1003526, Note_on_c, 0, 62, 73
1, 1003526, Note_on_c, 0, 74, 93
1, 1003526, Note_off_c, 0, 69, 68
1, 1003542, Control_c, 0, 64, 41
1, 1003549, Note_off_c, 0, 62, 67
1, 1003550, Note_off_c, 0, 57, 64
1, 1003557, Control_c, 0, 64, 63
1, 1003572, Control_c, 0, 64, 63
1, 1003602, Control_c, 0, 64, 63
1, 1003616, Control_c, 0, 64, 60
1, 1003631, Control_c, 0, 64, 56
1, 1003646, Control_c, 0, 64, 52
1, 1003660, Control_c, 0, 64, 46
1, 1003674, Note_off_c, 0, 74, 48
1, 1003675, Control_c, 0, 64, 36
1, 1003690, Control_c, 0, 64, 0
1, 1003779, Control_c, 0, 64, 42
1, 1003785, Note_on_c, 0, 38, 76
1, 1003786, Note_on_c, 0, 43, 85
1, 1003788, Note_on_c, 0, 62, 88
1, 1003792, Note_on_c, 0, 74, 90
1, 1003794, Control_c, 0, 64, 78
1, 1003796, Note_on_c, 0, 70, 82
1, 1003808, Note_off_c, 0, 62, 70
1, 1003808, Control_c, 0, 64, 98
1, 1003819, Note_off_c, 0, 70, 68
1, 1003823, Control_c, 0, 64, 127
1, 1003831, Note_off_c, 0, 74, 68
1, 1003832, Note_off_c, 0, 43, 63
1, 1003841, Note_off_c, 0, 38, 56
1, 1003883, Control_c, 0, 64, 105
1, 1003897, Control_c, 0, 64, 67
1, 1003912, Control_c, 0, 64, 0
1, 1004057, Note_on_c, 0, 46, 74
1, 1004074, Note_on_c, 0, 50, 80
1, 1004100, Note_off_c, 0, 46, 61
1, 1004111, Note_off_c, 0, 50, 67
1, 1004325, Note_on_c, 0, 79, 89
1, 1004329, Note_on_c, 0, 74, 76
1, 1004330, Note_on_c, 0, 70, 69
1, 1004330, Note_on_c, 0, 38, 65
1, 1004331, Note_on_c, 0, 67, 70
1, 1004334, Note_on_c, 0, 43, 72
1, 1004335, Control_c, 0, 64, 61
1, 1004349, Note_off_c, 0, 67, 65
1, 1004349, Control_c, 0, 64, 72
1, 1004350, Note_off_c, 0, 74, 73
1, 1004356, Note_off_c, 0, 70, 67
1, 1004361, Note_off_c, 0, 38, 64
1, 1004363, Note_off_c, 0, 79, 64
1, 1004364, Note_off_c, 0, 43, 65
1, 1004364, Control_c, 0, 64, 83
1, 1004379, Control_c, 0, 64, 91
1, 1004394, Control_c, 0, 64, 93
1, 1004468, Control_c, 0, 64, 93
1, 1004527, Control_c, 0, 64, 92
1, 1004542, Control_c, 0, 64, 89
1, 1004556, Control_c, 0, 64, 75
1, 1004571, Control_c, 0, 64, 0
1, 1004587, Note_on_c, 0, 46, 75
1, 1004601, Note_on_c, 0, 50, 73
1, 1004632, Note_off_c, 0, 50, 70
1, 1004654, Note_off_c, 0, 46, 53
1, 1004868, Note_on_c, 0, 38, 48
1, 1004872, Note_on_c, 0, 43, 61
1, 1004872, Note_on_c, 0, 50, 37
1, 1004886, Note_on_c, 0, 55, 55
1, 1004897, Note_off_c, 0, 38, 56
1, 1004908, Note_off_c, 0, 50, 52
1, 1004914, Note_off_c, 0, 43, 56
1, 1004921, Note_off_c, 0, 55, 63
1, 1005112, Note_on_c, 0, 46, 70
1, 1005112, Note_on_c, 0, 58, 66
1, 1005132, Note_on_c, 0, 50, 80
1, 1005134, Note_on_c, 0, 62, 75
1, 1005140, Note_off_c, 0, 58, 68
1, 1005144, Note_off_c, 0, 46, 65
1, 1005158, Note_off_c, 0, 62, 67
1, 1005158, Note_off_c, 0, 50, 71
1, 1005355, Note_on_c, 0, 67, 75
1, 1005362, Note_on_c, 0, 55, 81
1, 1005374, Note_on_c, 0, 58, 85
1, 1005376, Note_on_c, 0, 70, 94
1, 1005394, Control_c, 0, 64, 44
1, 1005398, Note_off_c, 0, 67, 63
1, 1005409, Control_c, 0, 64, 65
1, 1005415, Note_off_c, 0, 55, 64
1, 1005415, Note_off_c, 0, 70, 64
1, 1005424, Control_c, 0, 64, 66
1, 1005439, Note_off_c, 0, 58, 61
1, 1005454, Control_c, 0, 64, 65
1, 1005468, Control_c, 0, 64, 59
1, 1005483, Control_c, 0, 64, 0
1, 1005616, Note_on_c, 0, 74, 84
1, 1005617, Note_on_c, 0, 62, 79
1, 1005627, Note_on_c, 0, 67, 86
1, 1005635, Note_on_c, 0, 79, 95
1, 1005636, Note_off_c, 0, 74, 66
1, 1005646, Note_off_c, 0, 67, 70
1, 1005649, Note_on_c, 0, 77, 63
1, 1005654, Control_c, 0, 64, 64
1, 1005665, Note_off_c, 0, 62, 64
1, 1005668, Note_off_c, 0, 77, 39
1, 1005669, Control_c, 0, 64, 72
1, 1005671, Note_on_c, 0, 76, 19
1, 1005673, Note_off_c, 0, 79, 67
1, 1005684, Control_c, 0, 64, 74
1, 1005699, Control_c, 0, 64, 76
1, 1005719, Note_off_c, 0, 76, 28
1, 1005743, Control_c, 0, 64, 75
1, 1005773, Control_c, 0, 64, 74
1, 1005788, Control_c, 0, 64, 74
1, 1005803, Control_c, 0, 64, 67
1, 1005817, Control_c, 0, 64, 0
1, 1005868, Note_on_c, 0, 41, 96
1, 1005873, Note_on_c, 0, 35, 74
1, 1005874, Note_on_c, 0, 68, 100
1, 1005874, Note_on_c, 0, 80, 103
1, 1005885, Note_on_c, 0, 77, 70
1, 1005886, Note_on_c, 0, 36, 71
1, 1005892, Control_c, 0, 64, 75
1, 1005905, Note_on_c, 0, 74, 37
1, 1005907, Control_c, 0, 64, 97
1, 1005909, Note_off_c, 0, 68, 65
1, 1005909, Note_off_c, 0, 77, 68
1, 1005913, Note_off_c, 0, 35, 65
1, 1005913, Note_off_c, 0, 36, 57
1, 1005921, Control_c, 0, 64, 127
1, 1005925, Note_off_c, 0, 41, 64
1, 1005931, Note_on_c, 0, 38, 8
1, 1005931, Note_off_c, 0, 80, 62
1, 1005936, Note_off_c, 0, 74, 60
1, 1005993, Note_off_c, 0, 38, 45
1, 1006069, Control_c, 0, 64, 89
1, 1006084, Control_c, 0, 64, 53
1, 1006099, Control_c, 0, 64, 0
1, 1006110, Note_on_c, 0, 47, 87
1, 1006130, Note_on_c, 0, 53, 100
1, 1006174, Control_c, 0, 64, 66
1, 1006181, Note_off_c, 0, 47, 66
1, 1006189, Control_c, 0, 64, 74
1, 1006190, Note_off_c, 0, 53, 60
1, 1006203, Control_c, 0, 64, 79
1, 1006218, Control_c, 0, 64, 81
1, 1006247, Control_c, 0, 64, 81
1, 1006262, Control_c, 0, 64, 79
1, 1006285, Control_c, 0, 64, 77
1, 1006300, Control_c, 0, 64, 68
1, 1006315, Control_c, 0, 64, 0
1, 1006375, Note_on_c, 0, 42, 96
1, 1006378, Note_on_c, 0, 69, 101
1, 1006378, Note_on_c, 0, 81, 106
1, 1006381, Note_on_c, 0, 36, 80
1, 1006384, Note_on_c, 0, 75, 87
1, 1006385, Note_on_c, 0, 78, 90
1, 1006390, Control_c, 0, 64, 67
1, 1006404, Control_c, 0, 64, 82
1, 1006406, Note_off_c, 0, 69, 68
1, 1006410, Note_off_c, 0, 36, 67
1, 1006412, Note_off_c, 0, 75, 64
1, 1006419, Control_c, 0, 64, 94
1, 1006422, Note_off_c, 0, 81, 63
1, 1006422, Note_on_c, 0, 80, 26
1, 1006424, Note_off_c, 0, 42, 65
1, 1006432, Note_off_c, 0, 78, 63
1, 1006434, Control_c, 0, 64, 100
1, 1006458, Note_off_c, 0, 80, 53
1, 1006502, Poly_aftertouch_c, 0, 40, 0
1, 1006552, Control_c, 0, 64, 99
1, 1006567, Control_c, 0, 64, 88
1, 1006582, Control_c, 0, 64, 66
1, 1006597, Control_c, 0, 64, 0
1, 1006610, Note_on_c, 0, 48, 83
1, 1006620, Note_on_c, 0, 54, 97
1, 1006641, Control_c, 0, 64, 29
1, 1006655, Note_off_c, 0, 54, 69
1, 1006656, Control_c, 0, 64, 71
1, 1006665, Note_off_c, 0, 48, 65
1, 1006670, Control_c, 0, 64, 85
1, 1006685, Control_c, 0, 64, 103
1, 1006700, Control_c, 0, 64, 127
1, 1006849, Control_c, 0, 64, 78
1, 1006853, Note_on_c, 0, 82, 94
1, 1006855, Note_on_c, 0, 70, 94
1, 1006858, Note_on_c, 0, 49, 94
1, 1006859, Note_on_c, 0, 78, 73
1, 1006864, Note_on_c, 0, 37, 81
1, 1006864, Control_c, 0, 64, 0
1, 1006880, Note_off_c, 0, 78, 69
1, 1006890, Note_off_c, 0, 37, 68
1, 1006890, Note_off_c, 0, 49, 59
1, 1006896, Note_off_c, 0, 70, 61
1, 1006906, Note_off_c, 0, 82, 63
1, 1007105, Note_on_c, 0, 50, 104
1, 1007108, Note_on_c, 0, 71, 96
1, 1007111, Note_on_c, 0, 83, 100
1, 1007111, Note_on_c, 0, 38, 93
1, 1007113, Note_on_c, 0, 78, 91
1, 1007123, Control_c, 0, 64, 73
1, 1007138, Control_c, 0, 64, 109
1, 1007150, Note_off_c, 0, 50, 69
1, 1007153, Control_c, 0, 64, 127
1, 1007159, Note_off_c, 0, 38, 65
1, 1007216, Poly_aftertouch_c, 0, 39, 127
1, 1007235, Poly_aftertouch_c, 0, 39, 0
1, 1007369, Note_off_c, 0, 71, 57
1, 1007379, Note_off_c, 0, 83, 59
1, 1007413, Note_off_c, 0, 78, 57
1, 1007567, Control_c, 0, 64, 82
1, 1007582, Control_c, 0, 64, 0
1, 1007594, Note_on_c, 0, 46, 99
1, 1007597, Note_on_c, 0, 34, 81
1, 1007598, Note_on_c, 0, 42, 90
1, 1007598, Note_on_c, 0, 85, 103
1, 1007603, Note_on_c, 0, 73, 110
1, 1007612, Control_c, 0, 64, 64
1, 1007627, Control_c, 0, 64, 78
1, 1007640, Control_c, 0, 64, 106
1, 1007642, Note_off_c, 0, 34, 58
1, 1007650, Note_off_c, 0, 46, 61
1, 1007655, Control_c, 0, 64, 127
1, 1007679, Note_off_c, 0, 42, 61
1, 1007686, Note_off_c, 0, 73, 60
1, 1007758, Note_off_c, 0, 85, 58
1, 1007811, Control_c, 0, 64, 96
1, 1007825, Control_c, 0, 64, 59
1, 1007840, Control_c, 0, 64, 0
1, 1007881, Note_on_c, 0, 47, 104
1, 1007882, Note_on_c, 0, 74, 100
1, 1007883, Note_on_c, 0, 86, 104
1, 1007884, Note_on_c, 0, 42, 95
1, 1007885, Control_c, 0, 64, 73
1, 1007886, Note_on_c, 0, 35, 80
1, 1007889, Note_on_c, 0, 78, 93
1, 1007899, Control_c, 0, 64, 102
1, 1007910, Note_off_c, 0, 35, 66
1, 1007914, Control_c, 0, 64, 127
1, 1007919, Note_off_c, 0, 74, 69
1, 1007930, Note_off_c, 0, 42, 64
1, 1007931, Note_off_c, 0, 47, 65
1, 1007934, Note_off_c, 0, 78, 64
1, 1007937, Note_off_c, 0, 86, 69
1, 1008271, Control_c, 0, 64, 117
1, 1008285, Control_c, 0, 64, 78
1, 1008300, Control_c, 0, 64, 0
1, 1008822, Note_on_c, 0, 37, 76
1, 1008842, Note_on_c, 0, 41, 77
1, 1008875, Note_on_c, 0, 44, 88
1, 1008891, Note_on_c, 0, 71, 82
1, 1008894, Note_on_c, 0, 49, 101
1, 1008895, Note_on_c, 0, 77, 95
1, 1008897, Note_on_c, 0, 65, 102
1, 1008899, Note_on_c, 0, 68, 91
1, 1008916, Control_c, 0, 64, 55
1, 1008931, Control_c, 0, 64, 94
1, 1008932, Note_off_c, 0, 65, 67
1, 1008934, Note_off_c, 0, 37, 64
1, 1008944, Note_off_c, 0, 68, 64
1, 1008945, Control_c, 0, 64, 127
1, 1008950, Note_on_c, 0, 74, 19
1, 1008952, Note_off_c, 0, 41, 62
1, 1008953, Note_off_c, 0, 71, 66
1, 1008959, Note_off_c, 0, 49, 64
1, 1008962, Note_off_c, 0, 77, 67
1, 1008963, Note_off_c, 0, 44, 65
1, 1008990, Note_off_c, 0, 74, 47
1, 1009412, Control_c, 0, 64, 126
1, 1009427, Control_c, 0, 64, 104
1, 1009442, Control_c, 0, 64, 91
1, 1009457, Control_c, 0, 64, 77
1, 1009471, Control_c, 0, 64, 61
1, 1009486, Control_c, 0, 64, 0
1, 1009967, Note_on_c, 0, 30, 86
1, 1009990, Note_on_c, 0, 37, 84
1, 1010031, Note_on_c, 0, 42, 93
1, 1010042, Note_on_c, 0, 78, 95
1, 1010042, Control_c, 0, 64, 68
1, 1010044, Note_on_c, 0, 66, 101
1, 1010045, Note_on_c, 0, 70, 91
1, 1010046, Note_on_c, 0, 73, 94
1, 1010052, Note_off_c, 0, 30, 62
1, 1010057, Control_c, 0, 64, 86
1, 1010071, Note_off_c, 0, 37, 63
1, 1010071, Note_off_c, 0, 42, 64
1, 1010072, Control_c, 0, 64, 118
1, 1010087, Control_c, 0, 64, 127
1, 1010235, Note_on_c, 0, 52, 89
1, 1010238, Note_on_c, 0, 64, 84
1, 1010258, Note_off_c, 0, 64, 72
1, 1010260, Note_off_c, 0, 52, 67
1, 1010339, Note_on_c, 0, 64, 93
1, 1010342, Note_on_c, 0, 52, 88
1, 1010369, Note_off_c, 0, 52, 61
1, 1010372, Note_off_c, 0, 64, 67
1, 1010439, Note_on_c, 0, 64, 98
1, 1010444, Note_on_c, 0, 52, 93
1, 1010469, Note_off_c, 0, 52, 58
1, 1010473, Note_off_c, 0, 64, 66
1, 1010532, Control_c, 0, 64, 99
1, 1010547, Control_c, 0, 64, 66
1, 1010551, Note_on_c, 0, 64, 100
1, 1010553, Note_on_c, 0, 52, 92
1, 1010562, Control_c, 0, 64, 50
1, 1010577, Control_c, 0, 64, 65
1, 1010591, Control_c, 0, 64, 69
1, 1010606, Control_c, 0, 64, 72
1, 1010621, Control_c, 0, 64, 77
1, 1010635, Control_c, 0, 64, 87
1, 1010650, Control_c, 0, 64, 97
1, 1010665, Control_c, 0, 64, 102
1, 1010671, Note_off_c, 0, 70, 47
1, 1010680, Control_c, 0, 64, 106
1, 1010690, Note_off_c, 0, 73, 47
1, 1010691, Note_off_c, 0, 66, 53
1, 1010695, Control_c, 0, 64, 113
1, 1010703, Note_off_c, 0, 78, 50
1, 1010709, Control_c, 0, 64, 127
1, 1010789, Note_on_c, 0, 66, 100
1, 1010790, Note_on_c, 0, 78, 97
1, 1010795, Note_on_c, 0, 76, 92
1, 1010826, Note_off_c, 0, 64, 61
1, 1010834, Note_off_c, 0, 52, 61
1, 1010941, Note_off_c, 0, 78, 57
1, 1010947, Note_off_c, 0, 66, 56
1, 1010998, Note_off_c, 0, 76, 56
1, 1011043, Note_on_c, 0, 78, 86
1, 1011044, Note_on_c, 0, 66, 81
1, 1011044, Note_on_c, 0, 74, 85
1, 1011058, Control_c, 0, 64, 104
1, 1011073, Control_c, 0, 64, 70
1, 1011087, Control_c, 0, 64, 0
1, 1011117, Control_c, 0, 64, 56
1, 1011132, Control_c, 0, 64, 64
1, 1011147, Control_c, 0, 64, 70
1, 1011156, Note_on_c, 0, 62, 82
1, 1011162, Note_on_c, 0, 50, 80
1, 1011162, Control_c, 0, 64, 77
1, 1011177, Control_c, 0, 64, 86
1, 1011184, Note_off_c, 0, 62, 63
1, 1011190, Note_off_c, 0, 50, 70
1, 1011192, Control_c, 0, 64, 95
1, 1011207, Control_c, 0, 64, 100
1, 1011222, Control_c, 0, 64, 105
1, 1011237, Control_c, 0, 64, 111
1, 1011251, Control_c, 0, 64, 127
1, 1011263, Note_on_c, 0, 50, 81
1, 1011266, Note_on_c, 0, 62, 89
1, 1011296, Note_off_c, 0, 62, 58
1, 1011301, Note_off_c, 0, 50, 65
1, 1011359, Note_on_c, 0, 62, 89
1, 1011365, Note_on_c, 0, 50, 84
1, 1011398, Note_off_c, 0, 62, 63
1, 1011403, Note_off_c, 0, 50, 64
1, 1011434, Note_off_c, 0, 66, 59
1, 1011443, Note_off_c, 0, 74, 61
1, 1011444, Control_c, 0, 64, 94
1, 1011458, Control_c, 0, 64, 65
1, 1011466, Note_on_c, 0, 59, 99
1, 1011470, Note_on_c, 0, 47, 92
1, 1011473, Control_c, 0, 64, 0
1, 1011475, Note_on_c, 0, 71, 95
1, 1011488, Control_c, 0, 64, 66
1, 1011501, Note_off_c, 0, 78, 60
1, 1011503, Control_c, 0, 64, 75
1, 1011526, Control_c, 0, 64, 86
1, 1011530, Note_off_c, 0, 47, 62
1, 1011540, Control_c, 0, 64, 109
1, 1011550, Note_off_c, 0, 59, 59
1, 1011555, Control_c, 0, 64, 127
1, 1011707, Note_on_c, 0, 49, 86
1, 1011708, Note_on_c, 0, 61, 96
1, 1011728, Note_on_c, 0, 66, 95
1, 1011730, Note_off_c, 0, 71, 60
1, 1011731, Note_on_c, 0, 78, 95
1, 1011732, Note_on_c, 0, 73, 83
1, 1011739, Note_off_c, 0, 61, 63
1, 1011756, Note_off_c, 0, 49, 64
1, 1011895, Note_on_c, 0, 42, 80
1, 1011905, Note_off_c, 0, 78, 54
1, 1011920, Note_on_c, 0, 46, 85
1, 1011926, Note_off_c, 0, 66, 54
1, 1011930, Note_on_c, 0, 41, 54
1, 1011941, Control_c, 0, 64, 83
1, 1011956, Control_c, 0, 64, 0
1, 1011959, Note_off_c, 0, 41, 55
1, 1011963, Note_on_c, 0, 49, 81
1, 1011966, Note_off_c, 0, 73, 53
1, 1012000, Control_c, 0, 64, 40
1, 1012002, Note_on_c, 0, 54, 89
1, 1012015, Control_c, 0, 64, 66
1, 1012017, Note_off_c, 0, 42, 63
1, 1012027, Note_on_c, 0, 66, 94
1, 1012029, Control_c, 0, 64, 77
1, 1012030, Note_on_c, 0, 78, 87
1, 1012038, Note_on_c, 0, 73, 79
1, 1012039, Note_on_c, 0, 70, 76
1, 1012041, Note_off_c, 0, 46, 62
1, 1012044, Control_c, 0, 64, 89
1, 1012047, Note_off_c, 0, 54, 66
1, 1012051, Note_off_c, 0, 49, 64
1, 1012059, Control_c, 0, 64, 106
1, 1012074, Control_c, 0, 64, 120
1, 1012089, Control_c, 0, 64, 127
1, 1012229, Note_on_c, 0, 65, 100
1, 1012233, Note_on_c, 0, 53, 94
1, 1012265, Note_off_c, 0, 53, 68
1, 1012268, Note_off_c, 0, 65, 69
1, 1012363, Note_on_c, 0, 65, 98
1, 1012366, Note_on_c, 0, 53, 99
1, 1012402, Note_off_c, 0, 53, 65
1, 1012402, Note_off_c, 0, 65, 67
1, 1012470, Note_on_c, 0, 65, 103
1, 1012472, Note_on_c, 0, 53, 96
1, 1012506, Note_off_c, 0, 65, 69
1, 1012517, Note_off_c, 0, 53, 66
1, 1012529, Note_off_c, 0, 73, 56
1, 1012557, Note_off_c, 0, 70, 61
1, 1012585, Note_on_c, 0, 65, 102
1, 1012585, Control_c, 0, 64, 105
1, 1012589, Note_on_c, 0, 53, 102
1, 1012600, Control_c, 0, 64, 69
1, 1012614, Control_c, 0, 64, 0
1, 1012629, Control_c, 0, 64, 62
1, 1012644, Control_c, 0, 64, 69
1, 1012659, Control_c, 0, 64, 76
1, 1012674, Control_c, 0, 64, 88
1, 1012688, Control_c, 0, 64, 106
1, 1012698, Note_off_c, 0, 66, 56
1, 1012703, Control_c, 0, 64, 127
1, 1012718, Note_off_c, 0, 78, 31
1, 1012805, Note_on_c, 0, 66, 102
1, 1012808, Note_on_c, 0, 77, 95
1, 1012811, Note_on_c, 0, 78, 96
1, 1012846, Note_off_c, 0, 53, 59
1, 1012850, Note_off_c, 0, 65, 63
1, 1013002, Note_off_c, 0, 78, 55
1, 1013014, Note_off_c, 0, 66, 53
1, 1013044, Note_off_c, 0, 77, 57
1, 1013099, Note_on_c, 0, 66, 101
1, 1013102, Note_on_c, 0, 78, 91
1, 1013103, Note_on_c, 0, 76, 90
1, 1013127, Control_c, 0, 64, 82
1, 1013142, Control_c, 0, 64, 59
1, 1013157, Control_c, 0, 64, 60
1, 1013171, Control_c, 0, 64, 68
1, 1013186, Control_c, 0, 64, 74
1, 1013201, Control_c, 0, 64, 84
1, 1013202, Note_on_c, 0, 64, 94
1, 1013204, Note_on_c, 0, 52, 85
1, 1013216, Control_c, 0, 64, 104
1, 1013231, Control_c, 0, 64, 127
1, 1013234, Note_off_c, 0, 64, 60
1, 1013240, Note_off_c, 0, 52, 59
1, 1013316, Note_on_c, 0, 64, 99
1, 1013320, Note_on_c, 0, 52, 92
1, 1013352, Note_off_c, 0, 64, 67
1, 1013359, Note_off_c, 0, 52, 59
1, 1013420, Note_on_c, 0, 52, 91
1, 1013420, Note_on_c, 0, 64, 99
1, 1013448, Note_off_c, 0, 66, 56
1, 1013465, Note_off_c, 0, 64, 66
1, 1013468, Control_c, 0, 64, 101
1, 1013469, Note_off_c, 0, 52, 63
1, 1013483, Control_c, 0, 64, 75
1, 1013498, Control_c, 0, 64, 72
1, 1013506, Note_off_c, 0, 76, 56
1, 1013512, Control_c, 0, 64, 80
1, 1013527, Control_c, 0, 64, 90
1, 1013537, Note_on_c, 0, 61, 100
1, 1013539, Note_on_c, 0, 49, 97
1, 1013542, Note_on_c, 0, 73, 101
1, 1013543, Control_c, 0, 64, 102
1, 1013558, Control_c, 0, 64, 127
1, 1013566, Note_off_c, 0, 78, 60
1, 1013583, Note_off_c, 0, 73, 68
1, 1013604, Note_on_c, 0, 51, 1
1, 1013651, Note_off_c, 0, 51, 53
1, 1013669, Note_off_c, 0, 61, 57
1, 1013789, Note_on_c, 0, 62, 80
1, 1013790, Note_on_c, 0, 50, 79
1, 1013810, Note_off_c, 0, 62, 70
1, 1013811, Note_off_c, 0, 49, 56
1, 1013830, Note_on_c, 0, 90, 100
1, 1013833, Note_on_c, 0, 78, 104
1, 1013836, Note_on_c, 0, 86, 84
1, 1013836, Note_off_c, 0, 50, 68
1, 1014009, Control_c, 0, 64, 82
1, 1014024, Control_c, 0, 64, 41
1, 1014029, Note_off_c, 0, 78, 60
1, 1014039, Control_c, 0, 64, 39
1, 1014048, Note_on_c, 0, 42, 87
1, 1014051, Note_on_c, 0, 54, 94
1, 1014054, Control_c, 0, 64, 66
1, 1014068, Control_c, 0, 64, 74
1, 1014083, Control_c, 0, 64, 85
1, 1014098, Control_c, 0, 64, 104
1, 1014110, Note_off_c, 0, 90, 64
1, 1014113, Control_c, 0, 64, 127
1, 1014135, Note_off_c, 0, 86, 61
1, 1014188, Note_off_c, 0, 42, 60
1, 1014192, Note_off_c, 0, 54, 66
1, 1014226, Note_on_c, 0, 86, 105
1, 1014229, Note_on_c, 0, 74, 94
1, 1014265, Note_off_c, 0, 74, 62
1, 1014279, Note_off_c, 0, 86, 64
1, 1014361, Note_on_c, 0, 88, 100
1, 1014364, Note_on_c, 0, 76, 98
1, 1014365, Note_on_c, 0, 66, 80
1, 1014369, Note_on_c, 0, 54, 82
1, 1014373, Note_on_c, 0, 86, 78
1, 1014379, Note_off_c, 0, 76, 74
1, 1014384, Note_off_c, 0, 66, 71
1, 1014390, Note_off_c, 0, 86, 67
1, 1014391, Note_off_c, 0, 88, 67
1, 1014402, Note_off_c, 0, 54, 62
1, 1014493, Note_on_c, 0, 66, 96
1, 1014496, Note_on_c, 0, 78, 96
1, 1014533, Note_off_c, 0, 66, 60
1, 1014566, Note_off_c, 0, 78, 62
1, 1014620, Note_on_c, 0, 50, 83
1, 1014624, Note_on_c, 0, 62, 91
1, 1014658, Note_off_c, 0, 62, 60
1, 1014674, Note_off_c, 0, 50, 64
1, 1014733, Poly_aftertouch_c, 0, 52, 0
1, 1014746, Note_on_c, 0, 90, 108
1, 1014747, Note_on_c, 0, 52, 69
1, 1014749, Note_on_c, 0, 64, 89
1, 1014754, Note_on_c, 0, 78, 89
1, 1014767, Note_off_c, 0, 64, 74
1, 1014802, Note_off_c, 0, 52, 62
1, 1014846, Control_c, 0, 64, 94
1, 1014861, Control_c, 0, 64, 60
1, 1014876, Control_c, 0, 64, 0
1, 1014888, Note_on_c, 0, 54, 99
1, 1014891, Control_c, 0, 64, 36
1, 1014891, Note_on_c, 0, 42, 94
1, 1014906, Control_c, 0, 64, 59
1, 1014918, Note_off_c, 0, 78, 60
1, 1014921, Control_c, 0, 64, 67
1, 1014935, Control_c, 0, 64, 77
1, 1014945, Note_off_c, 0, 90, 61
1, 1014950, Control_c, 0, 64, 90
1, 1014965, Control_c, 0, 64, 109
1, 1014980, Control_c, 0, 64, 127
1, 1014993, Note_off_c, 0, 42, 62
1, 1014998, Note_off_c, 0, 54, 66
1, 1015031, Note_on_c, 0, 88, 101
1, 1015031, Note_on_c, 0, 76, 97
1, 1015081, Note_off_c, 0, 76, 65
1, 1015113, Note_off_c, 0, 88, 63
1, 1015159, Control_c, 0, 64, 99
1, 1015174, Control_c, 0, 64, 95
1, 1015181, Note_on_c, 0, 89, 108
1, 1015183, Note_on_c, 0, 67, 92
1, 1015183, Note_on_c, 0, 77, 97
1, 1015186, Note_on_c, 0, 55, 87
1, 1015188, Control_c, 0, 64, 98
1, 1015201, Note_off_c, 0, 77, 70
1, 1015203, Control_c, 0, 64, 108
1, 1015214, Note_off_c, 0, 89, 67
1, 1015218, Control_c, 0, 64, 127
1, 1015248, Note_off_c, 0, 67, 63
1, 1015276, Note_off_c, 0, 55, 65
1, 1015353, Note_on_c, 0, 77, 94
1, 1015357, Note_on_c, 0, 65, 89
1, 1015492, Control_c, 0, 64, 69
1, 1015497, Note_on_c, 0, 64, 82
1, 1015505, Note_on_c, 0, 52, 72
1, 1015507, Control_c, 0, 64, 0
1, 1015510, Note_on_c, 0, 50, 60
1, 1015535, Note_off_c, 0, 50, 61
1, 1015565, Control_c, 0, 64, 57
1, 1015572, Note_off_c, 0, 65, 59
1, 1015580, Control_c, 0, 64, 71
1, 1015589, Note_off_c, 0, 64, 65
1, 1015595, Control_c, 0, 64, 80
1, 1015610, Control_c, 0, 64, 93
1, 1015625, Note_off_c, 0, 52, 59
1, 1015625, Control_c, 0, 64, 107
1, 1015639, Control_c, 0, 64, 112
1, 1015644, Note_off_c, 0, 77, 54
1, 1015654, Control_c, 0, 64, 104
1, 1015669, Control_c, 0, 64, 82
1, 1015675, Note_on_c, 0, 65, 81
1, 1015677, Note_on_c, 0, 79, 93
1, 1015682, Note_on_c, 0, 53, 73
1, 1015684, Control_c, 0, 64, 68
1, 1015696, Note_off_c, 0, 65, 71
1, 1015714, Control_c, 0, 64, 75
1, 1015723, Note_off_c, 0, 53, 65
1, 1015729, Control_c, 0, 64, 79
1, 1015744, Control_c, 0, 64, 86
1, 1015758, Control_c, 0, 64, 95
1, 1015773, Control_c, 0, 64, 114
1, 1015788, Control_c, 0, 64, 122
1, 1015803, Control_c, 0, 64, 101
1, 1015818, Control_c, 0, 64, 74
1, 1015832, Control_c, 0, 64, 0
1, 1015850, Note_on_c, 0, 41, 70
1, 1015853, Note_on_c, 0, 53, 79
1, 1015886, Note_off_c, 0, 41, 61
1, 1015893, Control_c, 0, 64, 46
1, 1015907, Control_c, 0, 64, 64
1, 1015912, Note_off_c, 0, 53, 65
1, 1015922, Control_c, 0, 64, 69
1, 1015937, Control_c, 0, 64, 73
1, 1015952, Control_c, 0, 64, 74
1, 1015954, Note_on_c, 0, 71, 68
1, 1015967, Control_c, 0, 64, 75
1, 1015982, Control_c, 0, 64, 75
1, 1015985, Note_off_c, 0, 79, 36
1, 1016013, Note_off_c, 0, 71, 62
1, 1016014, Note_on_c, 0, 73, 69
1, 1016019, Control_c, 0, 64, 76
1, 1016078, Control_c, 0, 64, 75
1, 1016088, Note_off_c, 0, 73, 60
1, 1016089, Note_on_c, 0, 65, 75
1, 1016090, Note_on_c, 0, 67, 65
1, 1016093, Control_c, 0, 64, 71
1, 1016108, Control_c, 0, 64, 55
1, 1016123, Control_c, 0, 64, 0
1, 1016125, Note_off_c, 0, 67, 58
1, 1016160, Note_on_c, 0, 59, 62
1, 1016221, Note_on_c, 0, 61, 67
1, 1016236, Note_off_c, 0, 65, 39
1, 1016299, Note_on_c, 0, 53, 57
1, 1016299, Note_on_c, 0, 79, 74
1, 1016305, Note_off_c, 0, 59, 57
1, 1016310, Note_off_c, 0, 61, 62
1, 1016316, Control_c, 0, 64, 49
1, 1016330, Control_c, 0, 64, 63
1, 1016333, Note_off_c, 0, 53, 66
1, 1016345, Control_c, 0, 64, 70
1, 1016360, Control_c, 0, 64, 77
1, 1016373, Note_on_c, 0, 71, 68
1, 1016375, Control_c, 0, 64, 84
1, 1016389, Control_c, 0, 64, 89
1, 1016404, Control_c, 0, 64, 90
1, 1016426, Note_off_c, 0, 79, 53
1, 1016430, Note_off_c, 0, 71, 65
1, 1016432, Note_on_c, 0, 73, 73
1, 1016434, Control_c, 0, 64, 89
1, 1016449, Control_c, 0, 64, 87
1, 1016463, Control_c, 0, 64, 82
1, 1016478, Control_c, 0, 64, 72
1, 1016493, Control_c, 0, 64, 0
1, 1016495, Note_on_c, 0, 67, 72
1, 1016498, Note_on_c, 0, 53, 72
1, 1016504, Note_off_c, 0, 73, 60
1, 1016552, Note_on_c, 0, 47, 70
1, 1016566, Note_off_c, 0, 67, 52
1, 1016606, Note_off_c, 0, 53, 61
1, 1016610, Note_on_c, 0, 49, 84
1, 1016668, Note_on_c, 0, 41, 78
1, 1016679, Note_off_c, 0, 47, 64
1, 1016683, Note_off_c, 0, 49, 65
1, 1016686, Note_on_c, 0, 79, 96
1, 1016695, Note_off_c, 0, 41, 64
1, 1016701, Control_c, 0, 64, 66
1, 1016715, Control_c, 0, 64, 80
1, 1016731, Control_c, 0, 64, 91
1, 1016746, Control_c, 0, 64, 105
1, 1016763, Note_on_c, 0, 71, 89
1, 1016768, Control_c, 0, 64, 122
1, 1016783, Control_c, 0, 64, 127
1, 1016822, Note_on_c, 0, 74, 88
1, 1016839, Note_off_c, 0, 79, 50
1, 1016846, Note_off_c, 0, 71, 65
1, 1016888, Note_on_c, 0, 67, 90
1, 1016905, Note_on_c, 0, 65, 73
1, 1016907, Note_off_c, 0, 74, 67
1, 1016910, Poly_aftertouch_c, 0, 61, 127
1, 1016916, Control_c, 0, 64, 90
1, 1016925, Note_on_c, 0, 64, 52
1, 1016928, Note_off_c, 0, 67, 59
1, 1016931, Control_c, 0, 64, 61
1, 1016946, Control_c, 0, 64, 0
1, 1016948, Poly_aftertouch_c, 0, 61, 0
1, 1016951, Note_off_c, 0, 64, 59
1, 1016957, Note_on_c, 0, 59, 77
1, 1016957, Note_off_c, 0, 65, 65
1, 1017037, Note_on_c, 0, 62, 84
1, 1017085, Note_on_c, 0, 83, 92
1, 1017094, Control_c, 0, 64, 48
1, 1017094, Note_on_c, 0, 53, 88
1, 1017104, Note_off_c, 0, 59, 61
1, 1017109, Note_off_c, 0, 62, 65
1, 1017109, Control_c, 0, 64, 80
1, 1017118, Note_on_c, 0, 84, 28
1, 1017119, Note_off_c, 0, 84, 127
1, 1017124, Control_c, 0, 64, 96
1, 1017133, Note_off_c, 0, 53, 67
1, 1017139, Control_c, 0, 64, 127
1, 1017157, Note_on_c, 0, 74, 89
1, 1017181, Note_off_c, 0, 83, 62
1, 1017210, Note_on_c, 0, 79, 90
1, 1017229, Note_off_c, 0, 74, 64
1, 1017267, Note_on_c, 0, 71, 93
1, 1017292, Note_on_c, 0, 50, 76
1, 1017297, Note_off_c, 0, 79, 64
1, 1017302, Note_off_c, 0, 71, 66
1, 1017344, Note_on_c, 0, 43, 81
1, 1017351, Note_off_c, 0, 50, 65
1, 1017407, Note_on_c, 0, 47, 86
1, 1017434, Control_c, 0, 64, 108
1, 1017449, Control_c, 0, 64, 67
1, 1017464, Control_c, 0, 64, 0
1, 1017482, Note_on_c, 0, 86, 113
1, 1017485, Note_on_c, 0, 38, 83
1, 1017493, Control_c, 0, 64, 44
1, 1017507, Note_off_c, 0, 47, 67
1, 1017511, Note_off_c, 0, 43, 64
1, 1017516, Control_c, 0, 64, 65
1, 1017520, Note_off_c, 0, 38, 68
1, 1017532, Control_c, 0, 64, 75
1, 1017547, Control_c, 0, 64, 87
1, 1017562, Control_c, 0, 64, 104
1, 1017566, Note_on_c, 0, 77, 88
1, 1017577, Control_c, 0, 64, 127
1, 1017583, Note_off_c, 0, 86, 60
1, 1017626, Note_on_c, 0, 83, 96
1, 1017647, Note_off_c, 0, 77, 64
1, 1017696, Note_on_c, 0, 74, 104
1, 1017707, Note_on_c, 0, 59, 86
1, 1017723, Note_off_c, 0, 83, 66
1, 1017735, Note_off_c, 0, 74, 68
1, 1017767, Note_on_c, 0, 50, 78
1, 1017780, Note_off_c, 0, 59, 62
1, 1017807, Poly_aftertouch_c, 0, 55, 0
1, 1017833, Note_on_c, 0, 55, 74
1, 1017845, Note_on_c, 0, 52, 45
1, 1017847, Note_on_c, 0, 87, 52
1, 1017848, Note_off_c, 0, 87, 127
1, 1017887, Control_c, 0, 64, 80
1, 1017902, Control_c, 0, 64, 0
1, 1017929, Note_on_c, 0, 47, 83
1, 1017932, Control_c, 0, 64, 59
1, 1017935, Note_off_c, 0, 52, 63
1, 1017937, Note_on_c, 0, 48, 69
1, 1017937, Note_on_c, 0, 89, 99
1, 1017940, Note_on_c, 0, 91, 99
1, 1017941, Note_off_c, 0, 55, 65
1, 1017947, Control_c, 0, 64, 67
1, 1017958, Note_off_c, 0, 47, 68
1, 1017960, Note_off_c, 0, 48, 63
1, 1017961, Control_c, 0, 64, 76
1, 1017962, Note_off_c, 0, 50, 59
1, 1017976, Control_c, 0, 64, 88
1, 1017991, Control_c, 0, 64, 106
1, 1018006, Control_c, 0, 64, 127
1, 1018016, Note_off_c, 0, 91, 62
1, 1018017, Note_on_c, 0, 83, 92
1, 1018054, Note_off_c, 0, 89, 58
1, 1018071, Note_on_c, 0, 86, 91
1, 1018091, Note_off_c, 0, 83, 64
1, 1018113, Note_on_c, 0, 43, 58
1, 1018150, Note_on_c, 0, 77, 94
1, 1018167, Control_c, 0, 64, 109
1, 1018177, Note_off_c, 0, 43, 61
1, 1018179, Note_on_c, 0, 35, 70
1, 1018181, Note_off_c, 0, 86, 62
1, 1018182, Control_c, 0, 64, 66
1, 1018197, Control_c, 0, 64, 0
1, 1018213, Note_on_c, 0, 31, 75
1, 1018228, Note_off_c, 0, 77, 62
1, 1018242, Control_c, 0, 64, 66
1, 1018257, Note_on_c, 0, 38, 71
1, 1018264, Control_c, 0, 64, 78
1, 1018279, Control_c, 0, 64, 94
1, 1018294, Control_c, 0, 64, 127
1, 1018304, Note_on_c, 0, 43, 89
1, 1018307, Note_off_c, 0, 35, 39
1, 1018312, Note_off_c, 0, 31, 61
1, 1018334, Note_off_c, 0, 38, 62
1, 1018346, Note_off_c, 0, 43, 64
1, 1018531, Control_c, 0, 64, 87
1, 1018536, Note_on_c, 0, 67, 101
1, 1018539, Note_on_c, 0, 55, 93
1, 1018546, Note_on_c, 0, 92, 98
1, 1018546, Control_c, 0, 64, 75
1, 1018548, Note_on_c, 0, 80, 104
1, 1018561, Control_c, 0, 64, 80
1, 1018576, Control_c, 0, 64, 92
1, 1018581, Note_off_c, 0, 55, 66
1, 1018586, Note_off_c, 0, 67, 64
1, 1018590, Control_c, 0, 64, 103
1, 1018605, Control_c, 0, 64, 117
1, 1018620, Control_c, 0, 64, 127
1, 1018738, Note_off_c, 0, 80, 60
1, 1018744, Note_off_c, 0, 92, 63
1, 1018751, Note_on_c, 0, 83, 63
1, 1018820, Note_on_c, 0, 89, 77
1, 1018837, Note_off_c, 0, 83, 61
1, 1018916, Note_on_c, 0, 91, 105
1, 1018921, Note_on_c, 0, 79, 93
1, 1018927, Note_on_c, 0, 72, 68
1, 1018933, Note_on_c, 0, 76, 79
1, 1018945, Note_off_c, 0, 89, 61
1, 1019015, Note_on_c, 0, 84, 65
1, 1019064, Note_off_c, 0, 79, 62
1, 1019065, Note_on_c, 0, 88, 72
1, 1019068, Note_off_c, 0, 91, 62
1, 1019077, Note_off_c, 0, 76, 63
1, 1019102, Note_on_c, 0, 89, 46
1, 1019142, Note_off_c, 0, 84, 53
1, 1019145, Note_off_c, 0, 89, 47
1, 1019152, Note_off_c, 0, 72, 59
1, 1019172, Note_on_c, 0, 90, 90
1, 1019175, Note_off_c, 0, 88, 62
1, 1019178, Note_on_c, 0, 78, 96
1, 1019181, Note_on_c, 0, 69, 82
1, 1019184, Note_on_c, 0, 75, 92
1, 1019250, Note_off_c, 0, 75, 59
1, 1019267, Note_on_c, 0, 84, 71
1, 1019282, Note_off_c, 0, 78, 61
1, 1019290, Note_off_c, 0, 90, 63
1, 1019292, Note_off_c, 0, 69, 39
1, 1019318, Note_on_c, 0, 87, 72
1, 1019345, Note_off_c, 0, 84, 61
1, 1019353, Note_on_c, 0, 74, 93
1, 1019356, Note_on_c, 0, 71, 82
1, 1019373, Note_off_c, 0, 74, 71
1, 1019398, Note_off_c, 0, 71, 66
1, 1019408, Note_on_c, 0, 77, 89
1, 1019412, Note_on_c, 0, 89, 97
1, 1019421, Note_off_c, 0, 87, 60
1, 1019488, Control_c, 0, 64, 91
1, 1019503, Control_c, 0, 64, 51
1, 1019508, Note_on_c, 0, 80, 74
1, 1019518, Control_c, 0, 64, 0
1, 1019519, Note_on_c, 0, 60, 101
1, 1019522, Note_on_c, 0, 48, 97
1, 1019533, Control_c, 0, 64, 44
1, 1019547, Control_c, 0, 64, 66
1, 1019562, Control_c, 0, 64, 75
1, 1019571, Note_off_c, 0, 77, 58
1, 1019574, Note_off_c, 0, 48, 66
1, 1019574, Note_on_c, 0, 49, 18
1, 1019577, Control_c, 0, 64, 92
1, 1019588, Note_off_c, 0, 89, 56
1, 1019591, Note_on_c, 0, 86, 70
1, 1019592, Control_c, 0, 64, 127
1, 1019600, Note_off_c, 0, 60, 67
1, 1019625, Note_off_c, 0, 49, 50
1, 1019626, Note_off_c, 0, 80, 58
1, 1019664, Note_off_c, 0, 86, 62
1, 1019717, Note_on_c, 0, 88, 80
1, 1019721, Note_on_c, 0, 76, 73
1, 1019725, Note_on_c, 0, 67, 73
1, 1019734, Note_on_c, 0, 72, 63
1, 1019765, Note_on_c, 0, 71, 21
1, 1019768, Note_off_c, 0, 67, 55
1, 1019769, Note_off_c, 0, 72, 67
1, 1019802, Note_off_c, 0, 71, 51
1, 1019817, Note_off_c, 0, 88, 59
1, 1019826, Note_on_c, 0, 79, 61
1, 1019846, Note_off_c, 0, 76, 59
1, 1019906, Note_on_c, 0, 84, 65
1, 1019909, Note_on_c, 0, 72, 79
1, 1019916, Note_off_c, 0, 79, 59
1, 1019922, Note_on_c, 0, 67, 75
1, 1019928, Note_off_c, 0, 72, 72
1, 1019948, Note_off_c, 0, 67, 67
1, 1020006, Note_on_c, 0, 75, 73
1, 1020006, Note_on_c, 0, 87, 83
1, 1020016, Note_off_c, 0, 84, 56
1, 1020072, Note_on_c, 0, 50, 96
1, 1020072, Note_on_c, 0, 62, 98
1, 1020074, Control_c, 0, 64, 72
1, 1020089, Control_c, 0, 64, 0
1, 1020101, Note_on_c, 0, 79, 66
1, 1020117, Note_on_c, 0, 51, 31
1, 1020133, Control_c, 0, 64, 56
1, 1020140, Note_off_c, 0, 50, 68
1, 1020147, Control_c, 0, 64, 73
1, 1020158, Note_off_c, 0, 51, 56
1, 1020162, Control_c, 0, 64, 88
1, 1020170, Note_off_c, 0, 62, 63
1, 1020177, Control_c, 0, 64, 117
1, 1020182, Note_off_c, 0, 75, 59
1, 1020192, Control_c, 0, 64, 127
1, 1020203, Note_off_c, 0, 87, 63
1, 1020245, Note_off_c, 0, 79, 59
1, 1020266, Note_on_c, 0, 69, 85
1, 1020269, Note_on_c, 0, 66, 81
1, 1020281, Note_on_c, 0, 86, 74
1, 1020286, Note_on_c, 0, 74, 77
1, 1020298, Note_on_c, 0, 84, 62
1, 1020306, Note_off_c, 0, 69, 62
1, 1020328, Note_off_c, 0, 84, 36
1, 1020391, Note_on_c, 0, 78, 63
1, 1020393, Note_off_c, 0, 74, 52
1, 1020394, Poly_aftertouch_c, 0, 84, 127
1, 1020398, Note_off_c, 0, 86, 62
1, 1020424, Note_off_c, 0, 66, 52
1, 1020432, Poly_aftertouch_c, 0, 84, 0
1, 1020447, Note_on_c, 0, 81, 59
1, 1020459, Note_on_c, 0, 70, 87
1, 1020468, Note_on_c, 0, 64, 72
1, 1020472, Note_off_c, 0, 78, 53
1, 1020487, Note_off_c, 0, 70, 64
1, 1020520, Note_off_c, 0, 64, 61
1, 1020569, Note_on_c, 0, 85, 83
1, 1020569, Note_off_c, 0, 81, 53
1, 1020583, Note_on_c, 0, 73, 78
1, 1020643, Control_c, 0, 64, 103
1, 1020658, Control_c, 0, 64, 59
1, 1020666, Note_on_c, 0, 55, 101
1, 1020667, Note_on_c, 0, 43, 94
1, 1020673, Control_c, 0, 64, 0
1, 1020680, Note_on_c, 0, 79, 68
1, 1020733, Control_c, 0, 64, 30
1, 1020748, Control_c, 0, 64, 66
1, 1020762, Note_off_c, 0, 43, 66
1, 1020763, Control_c, 0, 64, 75
1, 1020769, Note_on_c, 0, 82, 73
1, 1020777, Control_c, 0, 64, 85
1, 1020792, Control_c, 0, 64, 96
1, 1020794, Note_off_c, 0, 55, 63
1, 1020796, Note_off_c, 0, 79, 55
1, 1020807, Control_c, 0, 64, 106
1, 1020815, Note_off_c, 0, 85, 59
1, 1020822, Control_c, 0, 64, 109
1, 1020837, Control_c, 0, 64, 111
1, 1020838, Note_off_c, 0, 73, 61
1, 1020851, Control_c, 0, 64, 114
1, 1020866, Control_c, 0, 64, 119
1, 1020881, Control_c, 0, 64, 127
1, 1020913, Note_on_c, 0, 63, 80
1, 1020918, Note_on_c, 0, 69, 80
1, 1020918, Note_on_c, 0, 72, 82
1, 1020918, Note_on_c, 0, 84, 91
1, 1020949, Note_off_c, 0, 82, 53
1, 1021054, Note_on_c, 0, 78, 71
1, 1021065, Note_off_c, 0, 69, 62
1, 1021096, Note_off_c, 0, 84, 59
1, 1021104, Note_off_c, 0, 63, 57
1, 1021106, Note_off_c, 0, 72, 59
1, 1021114, Note_on_c, 0, 81, 73
1, 1021156, Note_off_c, 0, 78, 58
1, 1021169, Note_off_c, 0, 81, 59
1, 1021192, Note_on_c, 0, 62, 70
1, 1021193, Note_on_c, 0, 83, 93
1, 1021196, Note_on_c, 0, 68, 74
1, 1021197, Note_on_c, 0, 71, 90
1, 1021207, Control_c, 0, 64, 102
1, 1021222, Control_c, 0, 64, 84
1, 1021237, Control_c, 0, 64, 82
1, 1021258, Control_c, 0, 64, 87
1, 1021273, Control_c, 0, 64, 93
1, 1021288, Control_c, 0, 64, 100
1, 1021302, Note_on_c, 0, 77, 66
1, 1021303, Control_c, 0, 64, 111
1, 1021318, Control_c, 0, 64, 127
1, 1021340, Note_off_c, 0, 68, 59
1, 1021342, Note_off_c, 0, 71, 63
1, 1021357, Note_off_c, 0, 83, 63
1, 1021362, Note_on_c, 0, 80, 76
1, 1021370, Note_off_c, 0, 62, 50
1, 1021410, Note_off_c, 0, 77, 50
1, 1021434, Note_off_c, 0, 80, 63
1, 1021449, Note_on_c, 0, 67, 76
1, 1021451, Control_c, 0, 64, 123
1, 1021453, Note_on_c, 0, 70, 93
1, 1021458, Note_on_c, 0, 82, 91
1, 1021462, Note_on_c, 0, 61, 60
1, 1021466, Control_c, 0, 64, 121
1, 1021481, Control_c, 0, 64, 124
1, 1021495, Control_c, 0, 64, 127
1, 1021500, Note_on_c, 0, 80, 14
1, 1021503, Note_off_c, 0, 67, 59
1, 1021514, Note_off_c, 0, 61, 54
1, 1021545, Note_off_c, 0, 80, 52
1, 1021566, Note_on_c, 0, 76, 70
1, 1021578, Note_off_c, 0, 70, 61
1, 1021578, Note_off_c, 0, 82, 65
1, 1021606, Note_on_c, 0, 66, 86
1, 1021619, Note_on_c, 0, 60, 71
1, 1021627, Note_on_c, 0, 79, 70
1, 1021646, Note_off_c, 0, 66, 62
1, 1021650, Note_off_c, 0, 60, 66
1, 1021671, Note_off_c, 0, 76, 57
1, 1021700, Poly_aftertouch_c, 0, 80, 127
1, 1021720, Note_on_c, 0, 69, 91
1, 1021720, Note_on_c, 0, 81, 93
1, 1021731, Poly_aftertouch_c, 0, 80, 0
1, 1021739, Note_off_c, 0, 79, 57
1, 1021778, Control_c, 0, 64, 84
1, 1021792, Note_on_c, 0, 48, 101
1, 1021792, Control_c, 0, 64, 0
1, 1021795, Note_on_c, 0, 36, 95
1, 1021832, Note_on_c, 0, 75, 65
1, 1021852, Control_c, 0, 64, 64
1, 1021859, Note_off_c, 0, 36, 61
1, 1021866, Control_c, 0, 64, 76
1, 1021877, Note_on_c, 0, 37, 2
1, 1021881, Control_c, 0, 64, 87
1, 1021886, Note_off_c, 0, 48, 63
1, 1021896, Note_off_c, 0, 81, 63
1, 1021896, Control_c, 0, 64, 99
1, 1021899, Note_off_c, 0, 37, 0
1, 1021899, Note_on_c, 0, 78, 73
1, 1021903, Note_off_c, 0, 69, 63
1, 1021911, Control_c, 0, 64, 109
1, 1021919, Poly_aftertouch_c, 0, 37, 0
1, 1021923, Note_off_c, 0, 75, 59
1, 1021926, Control_c, 0, 64, 118
1, 1021938, Note_off_c, 0, 78, 61
1, 1021941, Control_c, 0, 64, 127
1, 1022024, Note_on_c, 0, 68, 72
1, 1022024, Note_on_c, 0, 65, 75
1, 1022026, Note_on_c, 0, 59, 64
1, 1022030, Note_on_c, 0, 58, 45
1, 1022033, Note_on_c, 0, 80, 77
1, 1022060, Note_on_c, 0, 78, 34
1, 1022062, Note_off_c, 0, 58, 59
1, 1022072, Note_off_c, 0, 65, 62
1, 1022080, Note_off_c, 0, 59, 57
1, 1022091, Note_off_c, 0, 78, 52
1, 1022142, Note_on_c, 0, 74, 63
1, 1022142, Note_off_c, 0, 68, 60
1, 1022151, Note_off_c, 0, 80, 62
1, 1022198, Note_on_c, 0, 63, 79
1, 1022205, Note_on_c, 0, 77, 60
1, 1022206, Note_on_c, 0, 60, 67
1, 1022229, Note_off_c, 0, 74, 59
1, 1022234, Note_off_c, 0, 63, 59
1, 1022238, Note_off_c, 0, 60, 66
1, 1022304, Note_on_c, 0, 79, 86
1, 1022305, Note_on_c, 0, 67, 81
1, 1022312, Note_off_c, 0, 77, 62
1, 1022394, Control_c, 0, 64, 78
1, 1022395, Note_on_c, 0, 72, 63
1, 1022400, Note_on_c, 0, 50, 97
1, 1022405, Note_on_c, 0, 38, 97
1, 1022409, Control_c, 0, 64, 0
1, 1022455, Note_off_c, 0, 67, 59
1, 1022468, Control_c, 0, 64, 60
1, 1022469, Note_off_c, 0, 79, 56
1, 1022475, Note_on_c, 0, 75, 63
1, 1022475, Note_off_c, 0, 38, 64
1, 1022483, Control_c, 0, 64, 71
1, 1022495, Poly_aftertouch_c, 0, 39, 127
1, 1022497, Control_c, 0, 64, 79
1, 1022511, Note_off_c, 0, 50, 66
1, 1022512, Control_c, 0, 64, 92
1, 1022523, Note_off_c, 0, 72, 58
1, 1022527, Control_c, 0, 64, 103
1, 1022528, Poly_aftertouch_c, 0, 39, 0
1, 1022541, Control_c, 0, 64, 118
1, 1022556, Control_c, 0, 64, 127
1, 1022592, Note_off_c, 0, 75, 59
1, 1022633, Note_on_c, 0, 57, 67
1, 1022636, Note_on_c, 0, 66, 66
1, 1022636, Note_on_c, 0, 62, 73
1, 1022639, Note_on_c, 0, 78, 71
1, 1022707, Note_off_c, 0, 62, 58
1, 1022723, Note_off_c, 0, 66, 62
1, 1022733, Note_off_c, 0, 78, 58
1, 1022764, Note_on_c, 0, 69, 66
1, 1022840, Note_on_c, 0, 62, 77
1, 1022853, Note_off_c, 0, 69, 62
1, 1022857, Note_on_c, 0, 55, 69
1, 1022861, Note_on_c, 0, 74, 77
1, 1022868, Note_off_c, 0, 62, 64
1, 1022886, Note_off_c, 0, 55, 66
1, 1022893, Note_off_c, 0, 57, 21
1, 1022965, Note_on_c, 0, 77, 84
1, 1022969, Note_on_c, 0, 65, 76
1, 1022990, Note_off_c, 0, 74, 60
1, 1023068, Control_c, 0, 64, 74
1, 1023072, Note_on_c, 0, 71, 65
1, 1023083, Control_c, 0, 64, 0
1, 1023092, Note_on_c, 0, 43, 98
1, 1023095, Note_on_c, 0, 31, 92
1, 1023158, Control_c, 0, 64, 64
1, 1023172, Control_c, 0, 64, 73
1, 1023181, Note_off_c, 0, 31, 63
1, 1023187, Control_c, 0, 64, 82
1, 1023202, Control_c, 0, 64, 91
1, 1023212, Note_off_c, 0, 43, 66
1, 1023217, Control_c, 0, 64, 98
1, 1023229, Note_on_c, 0, 74, 75
1, 1023232, Control_c, 0, 64, 103
1, 1023247, Control_c, 0, 64, 107
1, 1023255, Note_off_c, 0, 77, 49
1, 1023262, Control_c, 0, 64, 111
1, 1023276, Control_c, 0, 64, 119
1, 1023291, Control_c, 0, 64, 127
1, 1023306, Note_off_c, 0, 65, 39
1, 1023414, Note_on_c, 0, 60, 92
1, 1023415, Note_on_c, 0, 55, 77
1, 1023416, Note_off_c, 0, 71, 36
1, 1023437, Note_on_c, 0, 76, 92
1, 1023440, Note_on_c, 0, 64, 86
1, 1023448, Note_off_c, 0, 74, 64
1, 1023458, Note_off_c, 0, 60, 66
1, 1023471, Note_off_c, 0, 55, 65
1, 1023613, Note_off_c, 0, 64, 60
1, 1023622, Note_on_c, 0, 67, 60
1, 1023680, Note_on_c, 0, 72, 70
1, 1023691, Note_off_c, 0, 67, 61
1, 1023749, Note_on_c, 0, 64, 75
1, 1023772, Control_c, 0, 64, 84
1, 1023782, Note_on_c, 0, 43, 75
1, 1023783, Note_off_c, 0, 72, 51
1, 1023787, Control_c, 0, 64, 0
1, 1023832, Control_c, 0, 64, 54
1, 1023846, Control_c, 0, 64, 66
1, 1023847, Note_on_c, 0, 48, 71
1, 1023861, Control_c, 0, 64, 74
1, 1023862, Note_on_c, 0, 67, 58
1, 1023876, Control_c, 0, 64, 82
1, 1023887, Note_off_c, 0, 64, 60
1, 1023890, Note_off_c, 0, 43, 63
1, 1023891, Control_c, 0, 64, 91
1, 1023905, Control_c, 0, 64, 98
1, 1023913, Note_off_c, 0, 76, 60
1, 1023919, Note_on_c, 0, 55, 79
1, 1023922, Control_c, 0, 64, 103
1, 1023928, Note_on_c, 0, 72, 67
1, 1023932, Note_off_c, 0, 48, 63
1, 1023937, Control_c, 0, 64, 106
1, 1023951, Control_c, 0, 64, 112
1, 1023966, Control_c, 0, 64, 122
1, 1023968, Note_off_c, 0, 55, 65
1, 1023977, Note_off_c, 0, 67, 56
1, 1023981, Control_c, 0, 64, 127
1, 1024011, Note_on_c, 0, 60, 87
1, 1024027, Note_on_c, 0, 63, 96
1, 1024031, Note_on_c, 0, 75, 93
1, 1024034, Note_off_c, 0, 60, 69
1, 1024060, Note_off_c, 0, 72, 61
1, 1024140, Note_on_c, 0, 67, 70
1, 1024151, Note_off_c, 0, 63, 58
1, 1024209, Note_on_c, 0, 72, 71
1, 1024233, Note_off_c, 0, 67, 57
1, 1024299, Note_on_c, 0, 63, 70
1, 1024328, Note_off_c, 0, 72, 54
1, 1024353, Note_on_c, 0, 43, 75
1, 1024358, Control_c, 0, 64, 94
1, 1024373, Control_c, 0, 64, 63
1, 1024388, Control_c, 0, 64, 0
1, 1024403, Control_c, 0, 64, 45
1, 1024412, Note_on_c, 0, 47, 72
1, 1024415, Note_on_c, 0, 67, 58
1, 1024418, Control_c, 0, 64, 62
1, 1024433, Control_c, 0, 64, 67
1, 1024448, Control_c, 0, 64, 74
1, 1024463, Control_c, 0, 64, 84
1, 1024465, Note_off_c, 0, 43, 61
1, 1024477, Control_c, 0, 64, 96
1, 1024482, Note_off_c, 0, 63, 58
1, 1024483, Note_on_c, 0, 72, 69
1, 1024488, Note_on_c, 0, 55, 75
1, 1024492, Control_c, 0, 64, 103
1, 1024497, Note_off_c, 0, 75, 60
1, 1024499, Note_off_c, 0, 47, 65
1, 1024507, Control_c, 0, 64, 108
1, 1024521, Control_c, 0, 64, 113
1, 1024536, Control_c, 0, 64, 123
1, 1024548, Note_off_c, 0, 55, 63
1, 1024549, Note_off_c, 0, 67, 56
1, 1024551, Control_c, 0, 64, 127
1, 1024568, Note_on_c, 0, 59, 87
1, 1024583, Note_on_c, 0, 74, 97
1, 1024585, Note_on_c, 0, 62, 92
1, 1024587, Note_off_c, 0, 59, 72
1, 1024618, Note_off_c, 0, 72, 55
1, 1024640, Control_c, 0, 64, 114
1, 1024655, Control_c, 0, 64, 113
1, 1024706, Note_on_c, 0, 67, 71
1, 1024715, Control_c, 0, 64, 114
1, 1024730, Control_c, 0, 64, 121
1, 1024735, Note_off_c, 0, 62, 55
1, 1024744, Control_c, 0, 64, 127
1, 1024763, Note_on_c, 0, 71, 74
1, 1024811, Note_off_c, 0, 67, 51
1, 1024857, Note_on_c, 0, 62, 68
1, 1024881, Note_off_c, 0, 71, 60
1, 1024892, Control_c, 0, 64, 87
1, 1024907, Control_c, 0, 64, 63
1, 1024913, Note_on_c, 0, 43, 71
1, 1024922, Control_c, 0, 64, 0
1, 1024937, Control_c, 0, 64, 36
1, 1024951, Control_c, 0, 64, 59
1, 1024966, Control_c, 0, 64, 64
1, 1024973, Note_on_c, 0, 45, 74
1, 1024981, Control_c, 0, 64, 71
1, 1024991, Note_on_c, 0, 67, 62
1, 1025003, Control_c, 0, 64, 78
1, 1025018, Control_c, 0, 64, 87
1, 1025026, Note_off_c, 0, 43, 61
1, 1025032, Control_c, 0, 64, 93
1, 1025045, Note_off_c, 0, 74, 53
1, 1025046, Note_on_c, 0, 55, 75
1, 1025047, Control_c, 0, 64, 96
1, 1025056, Note_off_c, 0, 45, 64
1, 1025056, Note_off_c, 0, 62, 54
1, 1025060, Note_on_c, 0, 71, 74
1, 1025062, Control_c, 0, 64, 98
1, 1025077, Control_c, 0, 64, 101
1, 1025092, Control_c, 0, 64, 108
1, 1025098, Note_off_c, 0, 67, 58
1, 1025107, Control_c, 0, 64, 117
1, 1025107, Note_off_c, 0, 55, 61
1, 1025122, Note_off_c, 0, 71, 64
1, 1025122, Control_c, 0, 64, 127
1, 1025132, Note_on_c, 0, 57, 84
1, 1025153, Note_on_c, 0, 72, 97
1, 1025157, Note_on_c, 0, 60, 90
1, 1025160, Note_off_c, 0, 57, 64
1, 1025294, Note_on_c, 0, 67, 70
1, 1025332, Note_off_c, 0, 60, 56
1, 1025399, Note_on_c, 0, 69, 68
1, 1025423, Note_off_c, 0, 67, 56
1, 1025497, Note_on_c, 0, 60, 64
1, 1025501, Note_off_c, 0, 69, 52
1, 1025596, Control_c, 0, 64, 97
1, 1025608, Note_on_c, 0, 43, 78
1, 1025612, Control_c, 0, 64, 59
1, 1025627, Control_c, 0, 64, 0
1, 1025641, Note_on_c, 0, 67, 54
1, 1025679, Note_on_c, 0, 47, 74
1, 1025718, Note_off_c, 0, 60, 49
1, 1025753, Control_c, 0, 64, 38
1, 1025755, Note_off_c, 0, 72, 54
1, 1025768, Note_on_c, 0, 69, 64
1, 1025768, Control_c, 0, 64, 61
1, 1025782, Control_c, 0, 64, 67
1, 1025795, Note_on_c, 0, 55, 83
1, 1025797, Control_c, 0, 64, 70
1, 1025800, Note_off_c, 0, 43, 61
1, 1025810, Note_off_c, 0, 67, 57
1, 1025812, Control_c, 0, 64, 73
1, 1025822, Note_off_c, 0, 47, 65
1, 1025827, Control_c, 0, 64, 74
1, 1025841, Control_c, 0, 64, 77
1, 1025856, Control_c, 0, 64, 80
1, 1025871, Control_c, 0, 64, 83
1, 1025886, Note_off_c, 0, 55, 65
1, 1025886, Control_c, 0, 64, 87
1, 1025901, Control_c, 0, 64, 90
1, 1025916, Control_c, 0, 64, 93
1, 1025919, Note_off_c, 0, 69, 63
1, 1025930, Control_c, 0, 64, 96
1, 1025944, Note_on_c, 0, 59, 90
1, 1025945, Control_c, 0, 64, 102
1, 1025959, Note_on_c, 0, 62, 87
1, 1025960, Control_c, 0, 64, 108
1, 1025961, Note_on_c, 0, 74, 96
1, 1025974, Control_c, 0, 64, 116
1, 1025989, Control_c, 0, 64, 127
1, 1025990, Note_off_c, 0, 59, 63
1, 1026188, Note_on_c, 0, 67, 84
1, 1026226, Note_off_c, 0, 62, 58
1, 1026309, Note_on_c, 0, 71, 87
1, 1026321, Note_off_c, 0, 67, 61
1, 1026415, Note_on_c, 0, 62, 87
1, 1026438, Note_off_c, 0, 71, 61
1, 1026528, Note_on_c, 0, 67, 83
1, 1026564, Note_off_c, 0, 62, 59
1, 1026612, Note_on_c, 0, 71, 83
1, 1026633, Note_off_c, 0, 67, 58
1, 1026679, Control_c, 0, 64, 113
1, 1026694, Control_c, 0, 64, 87
1, 1026706, Note_on_c, 0, 62, 80
1, 1026707, Note_on_c, 0, 59, 90
1, 1026709, Note_on_c, 0, 55, 73
1, 1026709, Control_c, 0, 64, 75
1, 1026727, Note_off_c, 0, 71, 55
1, 1026738, Control_c, 0, 64, 78
1, 1026753, Control_c, 0, 64, 80
1, 1026768, Control_c, 0, 64, 83
1, 1026783, Control_c, 0, 64, 88
1, 1026797, Control_c, 0, 64, 93
1, 1026800, Note_on_c, 0, 67, 78
1, 1026805, Note_off_c, 0, 74, 58
1, 1026812, Control_c, 0, 64, 97
1, 1026827, Control_c, 0, 64, 101
1, 1026833, Note_off_c, 0, 62, 58
1, 1026842, Control_c, 0, 64, 103
1, 1026857, Control_c, 0, 64, 103
1, 1026863, Note_on_c, 0, 71, 74
1, 1026873, Note_off_c, 0, 55, 56
1, 1026886, Control_c, 0, 64, 104
1, 1026891, Note_off_c, 0, 67, 63
1, 1026901, Control_c, 0, 64, 106
1, 1026916, Control_c, 0, 64, 106
1, 1026931, Control_c, 0, 64, 107
1, 1026945, Note_on_c, 0, 62, 79
1, 1026976, Control_c, 0, 64, 107
1, 1026976, Note_off_c, 0, 71, 59
1, 1026990, Control_c, 0, 64, 108
1, 1027019, Note_on_c, 0, 67, 77
1, 1027020, Control_c, 0, 64, 108
1, 1027027, Note_off_c, 0, 59, 55
1, 1027074, Note_off_c, 0, 62, 58
1, 1027084, Note_on_c, 0, 71, 77
1, 1027108, Note_off_c, 0, 67, 60
1, 1027110, Control_c, 0, 64, 108
1, 1027125, Control_c, 0, 64, 105
1, 1027139, Control_c, 0, 64, 93
1, 1027154, Control_c, 0, 64, 77
1, 1027155, Note_off_c, 0, 71, 64
1, 1027166, Note_on_c, 0, 55, 68
1, 1027169, Control_c, 0, 64, 62
1, 1027172, Note_on_c, 0, 50, 64
1, 1027175, Note_on_c, 0, 59, 72
1, 1027184, Control_c, 0, 64, 65
1, 1027199, Control_c, 0, 64, 70
1, 1027213, Control_c, 0, 64, 73
1, 1027228, Control_c, 0, 64, 77
1, 1027250, Control_c, 0, 64, 82
1, 1027265, Control_c, 0, 64, 88
1, 1027269, Note_on_c, 0, 62, 59
1, 1027280, Control_c, 0, 64, 93
1, 1027290, Note_off_c, 0, 59, 40
1, 1027291, Note_off_c, 0, 55, 63
1, 1027295, Control_c, 0, 64, 96
1, 1027296, Note_on_c, 0, 67, 69
1, 1027299, Note_off_c, 0, 50, 65
1, 1027310, Control_c, 0, 64, 96
1, 1027324, Control_c, 0, 64, 97
1, 1027335, Note_off_c, 0, 62, 59
1, 1027339, Control_c, 0, 64, 98
1, 1027354, Control_c, 0, 64, 99
1, 1027369, Control_c, 0, 64, 101
1, 1027384, Control_c, 0, 64, 101
1, 1027393, Note_on_c, 0, 59, 68
1, 1027399, Control_c, 0, 64, 102
1, 1027403, Note_off_c, 0, 67, 54
1, 1027491, Note_on_c, 0, 62, 57
1, 1027504, Note_off_c, 0, 59, 50
1, 1027551, Note_on_c, 0, 67, 67
1, 1027567, Note_off_c, 0, 62, 60
1, 1027591, Control_c, 0, 64, 101
1, 1027605, Note_off_c, 0, 67, 60
1, 1027606, Control_c, 0, 64, 99
1, 1027620, Control_c, 0, 64, 90
1, 1027623, Note_on_c, 0, 50, 71
1, 1027626, Note_on_c, 0, 47, 60
1, 1027635, Control_c, 0, 64, 76
1, 1027636, Note_on_c, 0, 55, 64
1, 1027650, Control_c, 0, 64, 62
1, 1027665, Control_c, 0, 64, 63
1, 1027680, Control_c, 0, 64, 67
1, 1027694, Control_c, 0, 64, 69
1, 1027708, Note_off_c, 0, 55, 58
1, 1027709, Control_c, 0, 64, 71
1, 1027716, Note_on_c, 0, 59, 56
1, 1027724, Control_c, 0, 64, 74
1, 1027735, Note_off_c, 0, 47, 59
1, 1027739, Control_c, 0, 64, 79
1, 1027754, Control_c, 0, 64, 83
1, 1027769, Control_c, 0, 64, 87
1, 1027784, Control_c, 0, 64, 89
1, 1027785, Note_off_c, 0, 59, 57
1, 1027787, Note_on_c, 0, 62, 59
1, 1027798, Control_c, 0, 64, 90
1, 1027813, Control_c, 0, 64, 91
1, 1027828, Control_c, 0, 64, 93
1, 1027843, Control_c, 0, 64, 95
1, 1027858, Control_c, 0, 64, 96
1, 1027858, Note_off_c, 0, 62, 60
1, 1027873, Note_on_c, 0, 55, 58
1, 1027955, Note_off_c, 0, 55, 59
1, 1027958, Note_off_c, 0, 50, 60
1, 1027967, Note_on_c, 0, 59, 52
1, 1028026, Note_off_c, 0, 59, 58
1, 1028028, Note_on_c, 0, 62, 58
1, 1028072, Note_off_c, 0, 62, 61
1, 1028073, Control_c, 0, 64, 91
1, 1028088, Control_c, 0, 64, 82
1, 1028103, Control_c, 0, 64, 69
1, 1028117, Control_c, 0, 64, 59
1, 1028120, Note_on_c, 0, 47, 57
1, 1028127, Note_on_c, 0, 43, 51
1, 1028132, Note_on_c, 0, 50, 46
1, 1028132, Control_c, 0, 64, 64
1, 1028147, Control_c, 0, 64, 66
1, 1028162, Control_c, 0, 64, 68
1, 1028177, Control_c, 0, 64, 70
1, 1028192, Control_c, 0, 64, 72
1, 1028207, Control_c, 0, 64, 76
1, 1028216, Note_off_c, 0, 50, 53
1, 1028220, Note_on_c, 0, 55, 55
1, 1028222, Control_c, 0, 64, 80
1, 1028236, Control_c, 0, 64, 84
1, 1028251, Control_c, 0, 64, 86
1, 1028255, Note_off_c, 0, 47, 64
1, 1028266, Control_c, 0, 64, 87
1, 1028281, Control_c, 0, 64, 89
1, 1028286, Note_off_c, 0, 43, 58
1, 1028287, Note_off_c, 0, 55, 58
1, 1028295, Note_on_c, 0, 59, 56
1, 1028295, Control_c, 0, 64, 91
1, 1028310, Control_c, 0, 64, 93
1, 1028325, Control_c, 0, 64, 93
1, 1028355, Control_c, 0, 64, 94
1, 1028365, Note_off_c, 0, 59, 47
1, 1028369, Control_c, 0, 64, 95
1, 1028372, Note_on_c, 0, 50, 52
1, 1028384, Control_c, 0, 64, 96
1, 1028399, Control_c, 0, 64, 97
1, 1028469, Note_off_c, 0, 50, 54
1, 1028486, Note_on_c, 0, 55, 52
1, 1028544, Note_off_c, 0, 55, 56
1, 1028573, Note_on_c, 0, 59, 47
1, 1028600, Note_off_c, 0, 59, 56
1, 1028606, Control_c, 0, 64, 96
1, 1028621, Control_c, 0, 64, 96
1, 1028636, Control_c, 0, 64, 94
1, 1028651, Control_c, 0, 64, 91
1, 1028654, Note_on_c, 0, 43, 49
1, 1028663, Note_on_c, 0, 47, 48
1, 1028666, Control_c, 0, 64, 86
1, 1028666, Control_c, 0, 67, 8
1, 1028666, Note_on_c, 0, 38, 42
1, 1028681, Control_c, 0, 64, 80
1, 1028695, Control_c, 0, 64, 71
1, 1028711, Control_c, 0, 64, 65
1, 1028711, Control_c, 0, 67, 8
1, 1028725, Control_c, 0, 64, 63
1, 1028725, Control_c, 0, 67, 9
1, 1028748, Control_c, 0, 64, 65
1, 1028748, Control_c, 0, 67, 10
1, 1028763, Control_c, 0, 64, 67
1, 1028763, Control_c, 0, 67, 11
1, 1028771, Note_off_c, 0, 47, 54
1, 1028778, Control_c, 0, 64, 69
1, 1028778, Control_c, 0, 67, 11
1, 1028792, Control_c, 0, 64, 71
1, 1028797, Note_on_c, 0, 50, 34
1, 1028807, Control_c, 0, 64, 73
1, 1028807, Control_c, 0, 67, 12
1, 1028822, Control_c, 0, 64, 75
1, 1028822, Control_c, 0, 67, 12
1, 1028837, Control_c, 0, 64, 77
1, 1028852, Control_c, 0, 64, 77
1, 1028870, Note_on_c, 0, 55, 48
1, 1028881, Control_c, 0, 64, 78
1, 1028881, Control_c, 0, 67, 13
1, 1028896, Control_c, 0, 64, 80
1, 1028902, Note_off_c, 0, 50, 39
1, 1028910, Control_c, 0, 64, 83
1, 1028910, Control_c, 0, 67, 13
1, 1028925, Control_c, 0, 64, 84
1, 1028940, Control_c, 0, 64, 85
1, 1028952, Note_off_c, 0, 55, 55
1, 1028955, Control_c, 0, 64, 85
1, 1028955, Control_c, 0, 67, 14
1, 1028970, Control_c, 0, 67, 14
1, 1028985, Control_c, 0, 64, 86
1, 1028985, Control_c, 0, 67, 15
1, 1028988, Note_on_c, 0, 47, 42
1, 1029000, Control_c, 0, 64, 88
1, 1029000, Control_c, 0, 67, 15
1, 1029015, Control_c, 0, 64, 89
1, 1029015, Control_c, 0, 67, 16
1, 1029030, Control_c, 0, 64, 90
1, 1029044, Control_c, 0, 67, 16
1, 1029074, Control_c, 0, 67, 17
1, 1029107, Note_off_c, 0, 47, 35
1, 1029118, Note_on_c, 0, 50, 38
1, 1029167, Note_off_c, 0, 43, 29
1, 1029176, Note_off_c, 0, 50, 47
1, 1029178, Control_c, 0, 67, 17
1, 1029185, Note_on_c, 0, 55, 47
1, 1029196, Note_off_c, 0, 38, 35
1, 1029237, Control_c, 0, 67, 18
1, 1029252, Control_c, 0, 67, 18
1, 1029262, Note_off_c, 0, 55, 51
1, 1029266, Control_c, 0, 67, 20
1, 1029281, Control_c, 0, 64, 89
1, 1029281, Control_c, 0, 67, 22
1, 1029296, Control_c, 0, 64, 88
1, 1029296, Control_c, 0, 67, 24
1, 1029310, Control_c, 0, 64, 87
1, 1029310, Control_c, 0, 67, 27
1, 1029311, Note_on_c, 0, 47, 36
1, 1029325, Control_c, 0, 64, 86
1, 1029325, Control_c, 0, 67, 29
1, 1029340, Control_c, 0, 64, 87
1, 1029340, Control_c, 0, 67, 31
1, 1029355, Control_c, 0, 67, 33
1, 1029370, Control_c, 0, 67, 34
1, 1029399, Control_c, 0, 64, 87
1, 1029414, Control_c, 0, 64, 88
1, 1029414, Control_c, 0, 67, 34
1, 1029429, Control_c, 0, 64, 88
1, 1029441, Note_off_c, 0, 47, 30
1, 1029447, Note_on_c, 0, 50, 34
1, 1029496, Control_c, 0, 64, 89
1, 1029512, Control_c, 0, 64, 89
1, 1029527, Control_c, 0, 64, 90
1, 1029542, Note_off_c, 0, 50, 41
1, 1029547, Note_on_c, 0, 55, 42
1, 1029586, Control_c, 0, 64, 90
1, 1029630, Control_c, 0, 64, 91
1, 1029634, Note_off_c, 0, 55, 47
1, 1029660, Control_c, 0, 64, 91
1, 1029683, Note_on_c, 0, 47, 33
1, 1029781, Note_off_c, 0, 47, 34
1, 1029809, Note_on_c, 0, 50, 33
1, 1029912, Control_c, 0, 64, 91
1, 1029930, Note_on_c, 0, 55, 40
1, 1029931, Note_off_c, 0, 50, 36
1, 1029941, Control_c, 0, 64, 90
1, 1029941, Control_c, 0, 67, 35
1, 1029956, Control_c, 0, 64, 90
1, 1029986, Control_c, 0, 64, 89
1, 1029986, Control_c, 0, 67, 35
1, 1030015, Control_c, 0, 64, 88
1, 1030030, Control_c, 0, 64, 85
1, 1030045, Control_c, 0, 64, 80
1, 1030045, Control_c, 0, 67, 36
1, 1030059, Control_c, 0, 64, 73
1, 1030074, Control_c, 0, 64, 68
1, 1030076, Note_off_c, 0, 55, 41
1, 1030089, Control_c, 0, 64, 69
1, 1030099, Note_on_c, 0, 35, 27
1, 1030104, Control_c, 0, 64, 70
1, 1030110, Note_on_c, 0, 47, 7
1, 1030119, Control_c, 0, 64, 71
1, 1030133, Control_c, 0, 64, 71
1, 1030148, Control_c, 0, 64, 72
1, 1030163, Control_c, 0, 64, 74
1, 1030178, Control_c, 0, 64, 76
1, 1030193, Control_c, 0, 64, 79
1, 1030193, Control_c, 0, 67, 36
1, 1030207, Control_c, 0, 64, 80
1, 1030222, Control_c, 0, 64, 82
1, 1030245, Control_c, 0, 64, 84
1, 1030245, Control_c, 0, 67, 37
1, 1030258, Note_off_c, 0, 47, 32
1, 1030258, Note_on_c, 0, 50, 31
1, 1030259, Control_c, 0, 64, 86
1, 1030259, Control_c, 0, 67, 40
1, 1030274, Control_c, 0, 64, 88
1, 1030274, Control_c, 0, 67, 42
1, 1030289, Control_c, 0, 64, 89
1, 1030289, Control_c, 0, 67, 45
1, 1030304, Control_c, 0, 64, 90
1, 1030304, Control_c, 0, 67, 48
1, 1030320, Control_c, 0, 64, 92
1, 1030320, Control_c, 0, 67, 49
1, 1030324, Note_off_c, 0, 35, 41
1, 1030335, Control_c, 0, 64, 93
1, 1030335, Control_c, 0, 67, 50
1, 1030350, Control_c, 0, 64, 94
1, 1030350, Control_c, 0, 67, 52
1, 1030364, Control_c, 0, 64, 95
1, 1030364, Control_c, 0, 67, 53
1, 1030379, Control_c, 0, 67, 55
1, 1030389, Note_on_c, 0, 55, 44
1, 1030394, Control_c, 0, 64, 95
1, 1030394, Control_c, 0, 67, 56
1, 1030409, Control_c, 0, 67, 57
1, 1030410, Note_off_c, 0, 50, 41
1, 1030424, Control_c, 0, 67, 58
1, 1030438, Control_c, 0, 67, 60
1, 1030453, Control_c, 0, 67, 62
1, 1030468, Control_c, 0, 67, 64
1, 1030483, Control_c, 0, 67, 66
1, 1030498, Control_c, 0, 67, 69
1, 1030512, Control_c, 0, 67, 73
1, 1030527, Control_c, 0, 67, 75
1, 1030542, Control_c, 0, 67, 77
1, 1030557, Control_c, 0, 67, 80
1, 1030558, Note_off_c, 0, 55, 30
1, 1030571, Control_c, 0, 67, 83
1, 1030573, Note_on_c, 0, 47, 31
1, 1030586, Control_c, 0, 67, 86
1, 1030601, Control_c, 0, 67, 89
1, 1030616, Control_c, 0, 67, 92
1, 1030631, Control_c, 0, 67, 94
1, 1030645, Control_c, 0, 67, 97
1, 1030660, Control_c, 0, 67, 100
1, 1030675, Control_c, 0, 67, 102
1, 1030690, Control_c, 0, 67, 105
1, 1030705, Control_c, 0, 67, 107
1, 1030720, Control_c, 0, 67, 110
1, 1030735, Control_c, 0, 67, 112
1, 1030750, Control_c, 0, 67, 114
1, 1030764, Control_c, 0, 67, 116
1, 1030768, Note_on_c, 0, 50, 32
1, 1030776, Note_off_c, 0, 47, 39
1, 1030779, Control_c, 0, 67, 117
1, 1030794, Control_c, 0, 67, 119
1, 1030809, Control_c, 0, 67, 120
1, 1030824, Control_c, 0, 67, 121
1, 1030853, Control_c, 0, 67, 121
1, 1030868, Control_c, 0, 67, 122
1, 1030897, Control_c, 0, 67, 122
1, 1031068, Note_off_c, 0, 50, 42
1, 1031074, Note_on_c, 0, 55, 38
1, 1031350, Note_off_c, 0, 55, 32
1, 1031380, Control_c, 0, 67, 123
1, 1031454, Control_c, 0, 67, 123
1, 1031498, Control_c, 0, 67, 124
1, 1031528, Control_c, 0, 67, 124
1, 1031542, Control_c, 0, 67, 125
1, 1031557, Control_c, 0, 67, 127
1, 1031572, Control_c, 0, 67, 127
1, 1031647, Control_c, 0, 64, 95
1, 1031742, Control_c, 0, 64, 94
1, 1031802, Control_c, 0, 64, 94
1, 1031846, Control_c, 0, 64, 93
1, 1031891, Control_c, 0, 64, 93
1, 1031898, Note_on_c, 0, 43, 36
1, 1031905, Note_on_c, 0, 31, 37
1, 1031906, Control_c, 0, 64, 92
1, 1031921, Control_c, 0, 64, 92
1, 1031936, Control_c, 0, 64, 91
1, 1031951, Control_c, 0, 64, 90
1, 1031966, Control_c, 0, 64, 87
1, 1031981, Control_c, 0, 64, 83
1, 1031996, Control_c, 0, 64, 77
1, 1032010, Control_c, 0, 64, 70
1, 1032025, Control_c, 0, 64, 51
1, 1032040, Control_c, 0, 64, 0
1, 1032217, Control_c, 0, 64, 47
1, 1032232, Control_c, 0, 64, 62
1, 1032247, Control_c, 0, 64, 64
1, 1032261, Control_c, 0, 64, 65
1, 1032276, Control_c, 0, 64, 67
1, 1032291, Control_c, 0, 64, 69
1, 1032306, Control_c, 0, 64, 72
1, 1032321, Control_c, 0, 64, 75
1, 1032335, Control_c, 0, 64, 77
1, 1032351, Control_c, 0, 64, 80
1, 1032366, Control_c, 0, 64, 82
1, 1032381, Control_c, 0, 64, 84
1, 1032396, Control_c, 0, 64, 87
1, 1032410, Control_c, 0, 64, 90
1, 1032425, Control_c, 0, 64, 93
1, 1032440, Control_c, 0, 64, 94
1, 1032455, Control_c, 0, 64, 97
1, 1032470, Control_c, 0, 64, 100
1, 1032492, Control_c, 0, 64, 103
1, 1032507, Control_c, 0, 64, 107
1, 1032522, Control_c, 0, 64, 109
1, 1032536, Control_c, 0, 64, 111
1, 1032551, Control_c, 0, 64, 112
1, 1032566, Control_c, 0, 64, 115
1, 1032581, Control_c, 0, 64, 120
1, 1032596, Control_c, 0, 64, 127
1, 1032921, Note_off_c, 0, 43, 38
1, 1033522, Control_c, 0, 64, 124
1, 1033537, Control_c, 0, 64, 118
1, 1033552, Control_c, 0, 64, 114
1, 1033566, Control_c, 0, 64, 110
1, 1033581, Control_c, 0, 64, 107
1, 1033596, Control_c, 0, 64, 103
1, 1033602, Note_off_c, 0, 31, 42
1, 1033611, Control_c, 0, 64, 100
1, 1033624, Note_on_c, 0, 30, 40
1, 1033626, Control_c, 0, 64, 97
1, 1033632, Note_on_c, 0, 42, 36
1, 1033641, Control_c, 0, 64, 92
1, 1033655, Control_c, 0, 64, 86
1, 1033670, Control_c, 0, 64, 80
1, 1033685, Control_c, 0, 64, 73
1, 1033699, Control_c, 0, 64, 65
1, 1033714, Control_c, 0, 64, 54
1, 1033729, Control_c, 0, 64, 28
1, 1033744, Control_c, 0, 64, 0
1, 1033833, Control_c, 0, 64, 14
1, 1033847, Control_c, 0, 64, 23
1, 1033862, Control_c, 0, 64, 30
1, 1033877, Control_c, 0, 64, 36
1, 1033892, Control_c, 0, 64, 42
1, 1033906, Control_c, 0, 64, 47
1, 1033921, Control_c, 0, 64, 53
1, 1033936, Control_c, 0, 64, 57
1, 1033951, Control_c, 0, 64, 61
1, 1033966, Control_c, 0, 64, 64
1, 1033988, Control_c, 0, 64, 65
1, 1034003, Control_c, 0, 64, 68
1, 1034018, Control_c, 0, 64, 70
1, 1034033, Control_c, 0, 64, 71
1, 1034048, Control_c, 0, 64, 73
1, 1034062, Control_c, 0, 64, 74
1, 1034077, Control_c, 0, 64, 76
1, 1034092, Control_c, 0, 64, 79
1, 1034106, Control_c, 0, 64, 81
1, 1034121, Control_c, 0, 64, 83
1, 1034136, Control_c, 0, 64, 85
1, 1034151, Control_c, 0, 64, 88
1, 1034166, Control_c, 0, 64, 90
1, 1034181, Control_c, 0, 64, 93
1, 1034195, Control_c, 0, 64, 95
1, 1034210, Control_c, 0, 64, 98
1, 1034225, Control_c, 0, 64, 101
1, 1034240, Control_c, 0, 64, 103
1, 1034255, Control_c, 0, 64, 106
1, 1034270, Control_c, 0, 64, 109
1, 1034285, Control_c, 0, 64, 112
1, 1034300, Control_c, 0, 64, 115
1, 1034315, Control_c, 0, 64, 119
1, 1034330, Control_c, 0, 64, 122
1, 1034344, Control_c, 0, 64, 127
1, 1034526, Note_off_c, 0, 42, 41
1, 1035277, Note_off_c, 0, 30, 38
1, 1035420, Control_c, 0, 64, 119
1, 1035434, Control_c, 0, 64, 115
1, 1035449, Control_c, 0, 64, 110
1, 1035464, Control_c, 0, 64, 106
1, 1035486, Control_c, 0, 64, 102
1, 1035501, Control_c, 0, 64, 96
1, 1035516, Control_c, 0, 64, 89
1, 1035522, Note_on_c, 0, 41, 36
1, 1035531, Control_c, 0, 64, 81
1, 1035539, Note_on_c, 0, 29, 32
1, 1035546, Control_c, 0, 64, 69
1, 1035560, Control_c, 0, 64, 53
1, 1035575, Control_c, 0, 64, 0
1, 1035678, Control_c, 0, 64, 28
1, 1035693, Control_c, 0, 64, 41
1, 1035708, Control_c, 0, 64, 51
1, 1035723, Control_c, 0, 64, 60
1, 1035738, Control_c, 0, 64, 64
1, 1035752, Control_c, 0, 64, 65
1, 1035767, Control_c, 0, 64, 67
1, 1035782, Control_c, 0, 64, 69
1, 1035797, Control_c, 0, 64, 71
1, 1035812, Control_c, 0, 64, 73
1, 1035826, Control_c, 0, 64, 76
1, 1035841, Control_c, 0, 64, 79
1, 1035856, Control_c, 0, 64, 83
1, 1035871, Control_c, 0, 64, 86
1, 1035886, Control_c, 0, 64, 88
1, 1035901, Control_c, 0, 64, 91
1, 1035916, Control_c, 0, 64, 95
1, 1035931, Control_c, 0, 64, 98
1, 1035946, Control_c, 0, 64, 102
1, 1035961, Control_c, 0, 64, 106
1, 1035975, Control_c, 0, 64, 111
1, 1035990, Control_c, 0, 64, 119
1, 1036005, Control_c, 0, 64, 127
1, 1036067, Note_off_c, 0, 29, 43
1, 1037499, Note_on_c, 0, 53, 42
1, 1038343, Note_off_c, 0, 41, 37
1, 1038542, Note_off_c, 0, 53, 34
1, 1039855, Note_on_c, 0, 42, 42
1, 1039858, Note_on_c, 0, 54, 41
1, 1039882, Control_c, 0, 64, 115
1, 1039898, Control_c, 0, 64, 106
1, 1039913, Control_c, 0, 64, 96
1, 1039928, Control_c, 0, 64, 90
1, 1039942, Control_c, 0, 64, 84
1, 1039957, Control_c, 0, 64, 78
1, 1039979, Control_c, 0, 64, 72
1, 1039994, Control_c, 0, 64, 64
1, 1040009, Control_c, 0, 64, 40
1, 1040023, Control_c, 0, 64, 0
1, 1040113, Control_c, 0, 64, 23
1, 1040127, Control_c, 0, 64, 33
1, 1040142, Control_c, 0, 64, 40
1, 1040157, Control_c, 0, 64, 46
1, 1040172, Control_c, 0, 64, 50
1, 1040187, Control_c, 0, 64, 54
1, 1040202, Control_c, 0, 64, 59
1, 1040216, Control_c, 0, 64, 62
1, 1040231, Control_c, 0, 64, 64
1, 1040246, Control_c, 0, 64, 65
1, 1040261, Control_c, 0, 64, 66
1, 1040275, Control_c, 0, 64, 68
1, 1040290, Control_c, 0, 64, 70
1, 1040305, Control_c, 0, 64, 71
1, 1040320, Control_c, 0, 64, 73
1, 1040335, Control_c, 0, 64, 74
1, 1040349, Control_c, 0, 64, 75
1, 1040364, Control_c, 0, 64, 77
1, 1040379, Control_c, 0, 64, 78
1, 1040394, Control_c, 0, 64, 80
1, 1040409, Control_c, 0, 64, 81
1, 1040423, Control_c, 0, 64, 82
1, 1040438, Control_c, 0, 64, 84
1, 1040453, Control_c, 0, 64, 85
1, 1040467, Control_c, 0, 64, 87
1, 1040482, Control_c, 0, 64, 89
1, 1040497, Control_c, 0, 64, 90
1, 1040512, Control_c, 0, 64, 92
1, 1040527, Control_c, 0, 64, 94
1, 1040542, Control_c, 0, 64, 95
1, 1040557, Control_c, 0, 64, 97
1, 1040572, Control_c, 0, 64, 99
1, 1040587, Control_c, 0, 64, 101
1, 1040601, Control_c, 0, 64, 104
1, 1040616, Control_c, 0, 64, 106
1, 1040631, Control_c, 0, 64, 108
1, 1040646, Control_c, 0, 64, 111
1, 1040660, Control_c, 0, 64, 113
1, 1040675, Control_c, 0, 64, 115
1, 1040691, Control_c, 0, 64, 117
1, 1040706, Control_c, 0, 64, 119
1, 1040728, Control_c, 0, 64, 122
1, 1040743, Control_c, 0, 64, 123
1, 1040758, Control_c, 0, 64, 124
1, 1040785, Note_on_c, 0, 51, 38
1, 1040798, Note_on_c, 0, 47, 33
1, 1040817, Control_c, 0, 64, 126
1, 1040876, Control_c, 0, 64, 127
1, 1041147, Note_off_c, 0, 42, 35
1, 1041272, Note_on_c, 0, 66, 39
1, 1041298, Note_on_c, 0, 63, 20
1, 1041337, Note_off_c, 0, 47, 40
1, 1041351, Control_c, 0, 67, 127
1, 1041380, Control_c, 0, 67, 126
1, 1041409, Control_c, 0, 67, 126
1, 1041424, Control_c, 0, 67, 125
1, 1041437, Note_off_c, 0, 51, 43
1, 1041439, Control_c, 0, 67, 124
1, 1041454, Control_c, 0, 67, 123
1, 1041493, Control_c, 0, 67, 123
1, 1041505, Note_off_c, 0, 54, 42
1, 1041537, Control_c, 0, 67, 122
1, 1041758, Note_on_c, 0, 71, 44
1, 1041988, Note_off_c, 0, 66, 39
1, 1042114, Control_c, 0, 67, 123
1, 1042130, Note_on_c, 0, 52, 34
1, 1042142, Note_off_c, 0, 63, 39
1, 1042144, Control_c, 0, 64, 124
1, 1042159, Control_c, 0, 64, 120
1, 1042174, Control_c, 0, 64, 117
1, 1042188, Control_c, 0, 64, 113
1, 1042203, Control_c, 0, 64, 110
1, 1042226, Control_c, 0, 64, 106
1, 1042240, Control_c, 0, 64, 103
1, 1042255, Control_c, 0, 64, 102
1, 1042270, Control_c, 0, 64, 101
1, 1042285, Control_c, 0, 64, 100
1, 1042301, Control_c, 0, 64, 97
1, 1042315, Control_c, 0, 64, 93
1, 1042330, Control_c, 0, 64, 86
1, 1042345, Control_c, 0, 64, 77
1, 1042360, Control_c, 0, 64, 67
1, 1042375, Control_c, 0, 64, 63
1, 1042390, Control_c, 0, 64, 65
1, 1042390, Control_c, 0, 67, 123
1, 1042405, Control_c, 0, 64, 65
1, 1042419, Control_c, 0, 64, 66
1, 1042434, Control_c, 0, 64, 66
1, 1042449, Control_c, 0, 64, 67
1, 1042463, Control_c, 0, 64, 69
1, 1042478, Control_c, 0, 64, 72
1, 1042493, Control_c, 0, 64, 73
1, 1042508, Control_c, 0, 64, 74
1, 1042523, Control_c, 0, 64, 75
1, 1042538, Control_c, 0, 64, 77
1, 1042552, Control_c, 0, 64, 80
1, 1042567, Control_c, 0, 64, 82
1, 1042582, Control_c, 0, 64, 84
1, 1042597, Control_c, 0, 64, 86
1, 1042612, Control_c, 0, 64, 88
1, 1042613, Note_on_c, 0, 61, 32
1, 1042626, Control_c, 0, 64, 91
1, 1042641, Control_c, 0, 64, 93
1, 1042656, Control_c, 0, 64, 94
1, 1042670, Control_c, 0, 64, 96
1, 1042685, Control_c, 0, 64, 99
1, 1042700, Control_c, 0, 64, 101
1, 1042715, Control_c, 0, 64, 104
1, 1042730, Control_c, 0, 64, 107
1, 1042745, Control_c, 0, 64, 110
1, 1042760, Control_c, 0, 64, 114
1, 1042774, Control_c, 0, 64, 118
1, 1042789, Control_c, 0, 64, 126
1, 1042804, Control_c, 0, 64, 127
1, 1042819, Control_c, 0, 67, 123
1, 1042892, Note_off_c, 0, 71, 55
1, 1042926, Note_on_c, 0, 70, 44
1, 1042930, Note_off_c, 0, 61, 40
1, 1043055, Note_off_c, 0, 52, 33
1, 1043108, Control_c, 0, 67, 122
1, 1043153, Control_c, 0, 67, 122
1, 1043183, Control_c, 0, 67, 121
1, 1043228, Control_c, 0, 67, 121
1, 1043278, Note_on_c, 0, 73, 52
1, 1043310, Note_off_c, 0, 70, 38
1, 1043331, Control_c, 0, 67, 120
1, 1043358, Note_off_c, 0, 73, 62
1, 1043375, Control_c, 0, 67, 120
1, 1043390, Control_c, 0, 67, 118
1, 1043405, Control_c, 0, 67, 117
1, 1043419, Control_c, 0, 67, 117
1, 1043434, Control_c, 0, 67, 116
1, 1043464, Control_c, 0, 67, 116
1, 1043479, Control_c, 0, 67, 115
1, 1043508, Control_c, 0, 67, 115
1, 1043523, Control_c, 0, 67, 114
1, 1043538, Control_c, 0, 67, 114
1, 1043553, Control_c, 0, 67, 113
1, 1043567, Control_c, 0, 67, 112
1, 1043582, Control_c, 0, 67, 111
1, 1043597, Control_c, 0, 67, 110
1, 1043603, Note_on_c, 0, 35, 27
1, 1043606, Note_on_c, 0, 47, 29
1, 1043606, Note_on_c, 0, 54, 40
1, 1043611, Control_c, 0, 67, 109
1, 1043626, Control_c, 0, 67, 107
1, 1043641, Control_c, 0, 67, 106
1, 1043656, Control_c, 0, 67, 105
1, 1043685, Control_c, 0, 67, 104
1, 1043700, Control_c, 0, 67, 104
1, 1043722, Control_c, 0, 67, 103
1, 1043737, Control_c, 0, 67, 102
1, 1043752, Control_c, 0, 67, 101
1, 1043767, Control_c, 0, 67, 99
1, 1043782, Control_c, 0, 67, 97
1, 1043797, Control_c, 0, 67, 94
1, 1043812, Control_c, 0, 67, 91
1, 1043826, Control_c, 0, 67, 88
1, 1043841, Control_c, 0, 67, 86
1, 1043856, Control_c, 0, 67, 84
1, 1043871, Control_c, 0, 67, 81
1, 1043886, Control_c, 0, 67, 79
1, 1043895, Note_off_c, 0, 54, 42
1, 1043901, Control_c, 0, 67, 77
1, 1043916, Control_c, 0, 67, 75
1, 1043931, Control_c, 0, 67, 73
1, 1043946, Control_c, 0, 67, 71
1, 1043953, Note_on_c, 0, 63, 41
1, 1043961, Control_c, 0, 67, 69
1, 1043976, Control_c, 0, 67, 68
1, 1043990, Control_c, 0, 67, 66
1, 1043995, Note_off_c, 0, 63, 62
1, 1044005, Control_c, 0, 67, 65
1, 1044020, Control_c, 0, 67, 63
1, 1044034, Control_c, 0, 67, 61
1, 1044049, Control_c, 0, 67, 60
1, 1044056, Note_off_c, 0, 35, 42
1, 1044064, Control_c, 0, 67, 58
1, 1044079, Control_c, 0, 67, 57
1, 1044094, Control_c, 0, 67, 56
1, 1044108, Control_c, 0, 67, 56
1, 1044123, Control_c, 0, 67, 55
1, 1044138, Control_c, 0, 67, 55
1, 1044153, Control_c, 0, 67, 54
1, 1044168, Control_c, 0, 67, 54
1, 1044182, Control_c, 0, 67, 53
1, 1044197, Control_c, 0, 67, 52
1, 1044201, Note_off_c, 0, 47, 43
1, 1044212, Control_c, 0, 67, 50
1, 1044227, Control_c, 0, 67, 48
1, 1044241, Control_c, 0, 67, 46
1, 1044242, Note_on_c, 0, 71, 62
1, 1044256, Control_c, 0, 67, 44
1, 1044271, Control_c, 0, 67, 42
1, 1044286, Control_c, 0, 67, 40
1, 1044301, Control_c, 0, 67, 38
1, 1044316, Control_c, 0, 67, 35
1, 1044331, Control_c, 0, 67, 32
1, 1044345, Control_c, 0, 67, 30
1, 1044360, Control_c, 0, 67, 29
1, 1044375, Control_c, 0, 67, 27
1, 1044390, Control_c, 0, 67, 25
1, 1044405, Control_c, 0, 67, 23
1, 1044420, Control_c, 0, 67, 21
1, 1044434, Control_c, 0, 67, 19
1, 1044449, Control_c, 0, 67, 16
1, 1044471, Control_c, 0, 67, 13
1, 1044486, Control_c, 0, 67, 11
1, 1044501, Control_c, 0, 67, 8
1, 1044515, Control_c, 0, 67, 0
1, 1044667, Note_on_c, 0, 75, 63
1, 1044694, Control_c, 0, 64, 126
1, 1044696, Note_off_c, 0, 71, 59
1, 1044709, Control_c, 0, 64, 101
1, 1044724, Control_c, 0, 64, 88
1, 1044739, Control_c, 0, 64, 85
1, 1044754, Control_c, 0, 64, 86
1, 1044769, Control_c, 0, 64, 89
1, 1044779, Note_on_c, 0, 49, 52
1, 1044784, Control_c, 0, 64, 93
1, 1044787, Note_on_c, 0, 37, 45
1, 1044799, Control_c, 0, 64, 98
1, 1044813, Control_c, 0, 64, 106
1, 1044828, Control_c, 0, 64, 115
1, 1044843, Control_c, 0, 64, 127
1, 1044861, Note_off_c, 0, 37, 60
1, 1044897, Note_off_c, 0, 49, 64
1, 1045058, Note_on_c, 0, 59, 56
1, 1045462, Note_on_c, 0, 65, 54
1, 1045926, Note_off_c, 0, 75, 62
1, 1045945, Note_on_c, 0, 73, 59
1, 1046053, Note_off_c, 0, 65, 35
1, 1046183, Note_off_c, 0, 59, 34
1, 1046720, Note_off_c, 0, 73, 50
1, 1046721, Note_on_c, 0, 83, 65
1, 1047147, Control_c, 0, 67, 8
1, 1047156, Note_on_c, 0, 30, 40
1, 1047162, Control_c, 0, 67, 9
1, 1047177, Control_c, 0, 67, 11
1, 1047192, Control_c, 0, 64, 115
1, 1047192, Control_c, 0, 67, 13
1, 1047207, Control_c, 0, 64, 103
1, 1047207, Control_c, 0, 67, 15
1, 1047222, Control_c, 0, 64, 92
1, 1047222, Control_c, 0, 67, 16
1, 1047237, Control_c, 0, 64, 78
1, 1047237, Control_c, 0, 67, 18
1, 1047252, Control_c, 0, 64, 67
1, 1047252, Control_c, 0, 67, 19
1, 1047266, Control_c, 0, 64, 63
1, 1047266, Control_c, 0, 67, 20
1, 1047281, Control_c, 0, 64, 65
1, 1047281, Control_c, 0, 67, 21
1, 1047296, Control_c, 0, 64, 67
1, 1047296, Control_c, 0, 67, 21
1, 1047311, Control_c, 0, 64, 68
1, 1047326, Control_c, 0, 64, 71
1, 1047326, Control_c, 0, 67, 22
1, 1047340, Control_c, 0, 64, 76
1, 1047355, Control_c, 0, 64, 81
1, 1047370, Control_c, 0, 64, 85
1, 1047384, Control_c, 0, 64, 89
1, 1047399, Control_c, 0, 64, 93
1, 1047399, Control_c, 0, 67, 22
1, 1047414, Control_c, 0, 64, 98
1, 1047429, Control_c, 0, 64, 102
1, 1047444, Control_c, 0, 64, 106
1, 1047463, Note_on_c, 0, 42, 46
1, 1047466, Control_c, 0, 64, 110
1, 1047469, Note_off_c, 0, 30, 40
1, 1047481, Control_c, 0, 64, 116
1, 1047496, Control_c, 0, 64, 127
1, 1047529, Note_off_c, 0, 42, 58
1, 1047592, Note_on_c, 0, 82, 70
1, 1047598, Note_off_c, 0, 83, 51
1, 1047688, Control_c, 0, 67, 23
1, 1047766, Note_on_c, 0, 46, 49
1, 1047934, Note_on_c, 0, 49, 49
1, 1047937, Note_off_c, 0, 46, 47
1, 1048044, Note_off_c, 0, 49, 51
1, 1048053, Note_on_c, 0, 78, 62
1, 1048056, Note_off_c, 0, 82, 56
1, 1048063, Note_on_c, 0, 54, 47
1, 1048167, Note_off_c, 0, 54, 55
1, 1048212, Note_on_c, 0, 58, 51
1, 1048278, Note_off_c, 0, 58, 59
1, 1048299, Note_off_c, 0, 78, 60
1, 1048314, Note_on_c, 0, 80, 63
1, 1048389, Note_on_c, 0, 61, 48
1, 1048522, Note_off_c, 0, 80, 60
1, 1048527, Note_on_c, 0, 66, 49
1, 1048537, Note_on_c, 0, 78, 58
1, 1048686, Note_off_c, 0, 78, 60
1, 1048703, Note_on_c, 0, 70, 49
1, 1048709, Note_on_c, 0, 80, 59
1, 1048832, Note_off_c, 0, 80, 59
1, 1048858, Note_on_c, 0, 78, 58
1, 1048962, Note_off_c, 0, 78, 59
1, 1048987, Note_on_c, 0, 80, 59
1, 1048994, Note_off_c, 0, 61, 33
1, 1049066, Note_off_c, 0, 80, 57
1, 1049100, Note_on_c, 0, 78, 55
1, 1049174, Note_off_c, 0, 78, 57
1, 1049196, Note_on_c, 0, 80, 61
1, 1049265, Note_off_c, 0, 80, 59
1, 1049300, Note_on_c, 0, 78, 59
1, 1049347, Note_off_c, 0, 70, 39
1, 1049353, Note_off_c, 0, 66, 37
1, 1049371, Note_off_c, 0, 78, 59
1, 1049391, Note_on_c, 0, 80, 64
1, 1049453, Control_c, 0, 67, 22
1, 1049458, Note_off_c, 0, 80, 59
1, 1049468, Control_c, 0, 67, 22
1, 1049484, Control_c, 0, 67, 21
1, 1049489, Note_on_c, 0, 78, 59
1, 1049499, Control_c, 0, 67, 21
1, 1049514, Control_c, 0, 67, 20
1, 1049528, Control_c, 0, 67, 19
1, 1049547, Note_off_c, 0, 78, 59
1, 1049558, Control_c, 0, 67, 19
1, 1049571, Note_on_c, 0, 80, 66
1, 1049572, Control_c, 0, 67, 18
1, 1049587, Control_c, 0, 67, 17
1, 1049601, Control_c, 0, 67, 16
1, 1049616, Control_c, 0, 67, 15
1, 1049617, Note_off_c, 0, 80, 58
1, 1049631, Control_c, 0, 67, 14
1, 1049645, Control_c, 0, 67, 13
1, 1049659, Note_on_c, 0, 78, 62
1, 1049660, Control_c, 0, 67, 13
1, 1049675, Control_c, 0, 67, 12
1, 1049690, Control_c, 0, 67, 12
1, 1049691, Note_off_c, 0, 78, 63
1, 1049713, Control_c, 0, 67, 11
1, 1049727, Control_c, 0, 67, 10
1, 1049738, Note_on_c, 0, 80, 68
1, 1049742, Control_c, 0, 67, 10
1, 1049757, Control_c, 0, 67, 9
1, 1049772, Control_c, 0, 67, 8
1, 1049777, Note_off_c, 0, 80, 58
1, 1049786, Control_c, 0, 67, 8
1, 1049801, Control_c, 0, 67, 0
1, 1049821, Note_on_c, 0, 78, 62
1, 1049862, Note_off_c, 0, 78, 58
1, 1049891, Note_on_c, 0, 80, 62
1, 1049930, Note_off_c, 0, 80, 60
1, 1049966, Note_on_c, 0, 78, 67
1, 1049997, Note_off_c, 0, 78, 60
1, 1050046, Note_on_c, 0, 80, 59
1, 1050077, Note_off_c, 0, 80, 65
1, 1050106, Note_on_c, 0, 78, 63
1, 1050134, Note_off_c, 0, 78, 64
1, 1050173, Note_on_c, 0, 80, 57
1, 1050207, Note_off_c, 0, 80, 60
1, 1050241, Note_on_c, 0, 78, 55
1, 1050262, Note_off_c, 0, 78, 63
1, 1050310, Note_on_c, 0, 80, 59
1, 1050332, Note_off_c, 0, 80, 65
1, 1050359, Note_on_c, 0, 78, 50
1, 1050383, Note_off_c, 0, 78, 60
1, 1050403, Note_on_c, 0, 80, 68
1, 1050438, Note_off_c, 0, 80, 57
1, 1050470, Note_on_c, 0, 78, 61
1, 1050498, Note_off_c, 0, 78, 61
1, 1050532, Note_on_c, 0, 80, 54
1, 1050551, Note_off_c, 0, 80, 65
1, 1050576, Note_on_c, 0, 78, 58
1, 1050580, Control_c, 0, 67, 8
1, 1050596, Note_off_c, 0, 78, 64
1, 1050639, Note_on_c, 0, 80, 43
1, 1050666, Note_off_c, 0, 80, 56
1, 1050667, Note_on_c, 0, 78, 68
1, 1050669, Control_c, 0, 67, 8
1, 1050695, Note_off_c, 0, 78, 59
1, 1050698, Control_c, 0, 67, 9
1, 1050726, Note_on_c, 0, 80, 48
1, 1050728, Control_c, 0, 67, 9
1, 1050751, Note_off_c, 0, 80, 60
1, 1050757, Control_c, 0, 67, 10
1, 1050772, Control_c, 0, 67, 10
1, 1050776, Note_on_c, 0, 78, 60
1, 1050787, Control_c, 0, 67, 11
1, 1050796, Note_off_c, 0, 78, 64
1, 1050825, Note_on_c, 0, 80, 57
1, 1050832, Control_c, 0, 67, 11
1, 1050856, Note_off_c, 0, 80, 64
1, 1050865, Note_on_c, 0, 78, 68
1, 1050891, Control_c, 0, 67, 12
1, 1050897, Note_off_c, 0, 78, 61
1, 1050921, Control_c, 0, 67, 12
1, 1050923, Note_on_c, 0, 80, 66
1, 1050950, Control_c, 0, 67, 13
1, 1050960, Note_off_c, 0, 80, 61
1, 1050980, Control_c, 0, 67, 13
1, 1050981, Note_on_c, 0, 78, 57
1, 1050995, Control_c, 0, 67, 14
1, 1051002, Note_off_c, 0, 78, 60
1, 1051009, Control_c, 0, 67, 14
1, 1051023, Note_on_c, 0, 80, 61
1, 1051024, Control_c, 0, 67, 15
1, 1051054, Control_c, 0, 67, 16
1, 1051068, Note_off_c, 0, 80, 60
1, 1051070, Control_c, 0, 67, 16
1, 1051073, Note_on_c, 0, 78, 62
1, 1051106, Note_off_c, 0, 78, 58
1, 1051122, Note_on_c, 0, 80, 52
1, 1051173, Note_off_c, 0, 80, 62
1, 1051204, Note_on_c, 0, 78, 46
1, 1051228, Note_off_c, 0, 78, 59
1, 1051240, Note_on_c, 0, 80, 51
1, 1051276, Note_off_c, 0, 80, 64
1, 1051285, Control_c, 0, 67, 17
1, 1051303, Note_on_c, 0, 78, 53
1, 1051325, Note_off_c, 0, 78, 60
1, 1051348, Note_on_c, 0, 80, 55
1, 1051379, Note_off_c, 0, 80, 64
1, 1051390, Note_on_c, 0, 78, 67
1, 1051422, Note_off_c, 0, 78, 58
1, 1051452, Note_on_c, 0, 80, 57
1, 1051483, Note_off_c, 0, 80, 64
1, 1051501, Note_on_c, 0, 78, 59
1, 1051526, Note_off_c, 0, 78, 55
1, 1051552, Note_on_c, 0, 80, 52
1, 1051590, Note_off_c, 0, 80, 62
1, 1051595, Note_on_c, 0, 78, 62
1, 1051635, Note_off_c, 0, 78, 56
1, 1051657, Note_on_c, 0, 80, 55
1, 1051697, Note_off_c, 0, 80, 59
1, 1051708, Note_on_c, 0, 78, 54
1, 1051759, Note_off_c, 0, 78, 60
1, 1051774, Note_on_c, 0, 80, 49
1, 1051814, Note_off_c, 0, 80, 61
1, 1051827, Note_on_c, 0, 78, 48
1, 1051839, Note_on_c, 0, 70, 66
1, 1051878, Note_off_c, 0, 78, 60
1, 1051893, Control_c, 0, 67, 17
1, 1051903, Note_on_c, 0, 80, 53
1, 1051939, Note_off_c, 0, 80, 62
1, 1051960, Control_c, 0, 67, 18
1, 1051972, Note_on_c, 0, 78, 52
1, 1051989, Control_c, 0, 67, 19
1, 1052004, Control_c, 0, 67, 19
1, 1052006, Note_off_c, 0, 78, 54
1, 1052034, Control_c, 0, 67, 21
1, 1052035, Note_on_c, 0, 80, 58
1, 1052049, Control_c, 0, 67, 22
1, 1052063, Control_c, 0, 67, 24
1, 1052067, Note_off_c, 0, 80, 63
1, 1052072, Note_off_c, 0, 70, 63
1, 1052078, Control_c, 0, 67, 25
1, 1052093, Note_on_c, 0, 78, 58
1, 1052093, Control_c, 0, 67, 27
1, 1052108, Control_c, 0, 67, 29
1, 1052123, Control_c, 0, 67, 31
1, 1052128, Note_off_c, 0, 78, 55
1, 1052138, Control_c, 0, 67, 34
1, 1052151, Note_on_c, 0, 80, 56
1, 1052152, Control_c, 0, 67, 37
1, 1052167, Control_c, 0, 67, 41
1, 1052182, Control_c, 0, 67, 45
1, 1052186, Note_off_c, 0, 80, 61
1, 1052197, Control_c, 0, 67, 49
1, 1052212, Control_c, 0, 67, 52
1, 1052218, Note_on_c, 0, 78, 52
1, 1052227, Control_c, 0, 67, 54
1, 1052242, Control_c, 0, 67, 57
1, 1052246, Note_off_c, 0, 78, 56
1, 1052256, Control_c, 0, 67, 59
1, 1052271, Control_c, 0, 67, 60
1, 1052283, Note_on_c, 0, 80, 51
1, 1052286, Control_c, 0, 67, 61
1, 1052301, Control_c, 0, 67, 62
1, 1052323, Note_off_c, 0, 80, 57
1, 1052328, Note_on_c, 0, 78, 57
1, 1052415, Note_off_c, 0, 78, 60
1, 1052445, Note_on_c, 0, 76, 65
1, 1052478, Control_c, 0, 64, 108
1, 1052493, Control_c, 0, 64, 80
1, 1052503, Note_on_c, 0, 30, 46
1, 1052508, Control_c, 0, 64, 61
1, 1052522, Control_c, 0, 64, 43
1, 1052537, Control_c, 0, 64, 59
1, 1052537, Control_c, 0, 67, 61
1, 1052551, Note_on_c, 0, 78, 41
1, 1052552, Control_c, 0, 64, 63
1, 1052552, Control_c, 0, 67, 61
1, 1052567, Control_c, 0, 64, 65
1, 1052567, Control_c, 0, 67, 60
1, 1052577, Note_off_c, 0, 78, 58
1, 1052582, Control_c, 0, 64, 70
1, 1052584, Note_off_c, 0, 30, 60
1, 1052597, Control_c, 0, 64, 75
1, 1052597, Control_c, 0, 67, 59
1, 1052604, Note_on_c, 0, 80, 46
1, 1052608, Note_on_c, 0, 42, 36
1, 1052611, Control_c, 0, 64, 80
1, 1052611, Control_c, 0, 67, 58
1, 1052626, Control_c, 0, 64, 84
1, 1052626, Control_c, 0, 67, 58
1, 1052633, Note_off_c, 0, 80, 56
1, 1052641, Control_c, 0, 64, 88
1, 1052641, Control_c, 0, 67, 57
1, 1052643, Note_off_c, 0, 42, 47
1, 1052656, Control_c, 0, 64, 92
1, 1052656, Control_c, 0, 67, 57
1, 1052657, Note_on_c, 0, 78, 55
1, 1052671, Control_c, 0, 64, 94
1, 1052683, Note_off_c, 0, 78, 61
1, 1052686, Control_c, 0, 64, 96
1, 1052686, Control_c, 0, 67, 56
1, 1052709, Control_c, 0, 64, 97
1, 1052709, Control_c, 0, 67, 56
1, 1052722, Note_on_c, 0, 80, 63
1, 1052724, Control_c, 0, 64, 99
1, 1052739, Control_c, 0, 64, 101
1, 1052753, Control_c, 0, 64, 103
1, 1052764, Note_on_c, 0, 47, 44
1, 1052768, Control_c, 0, 64, 104
1, 1052771, Note_off_c, 0, 80, 53
1, 1052783, Control_c, 0, 64, 105
1, 1052789, Note_on_c, 0, 78, 48
1, 1052798, Control_c, 0, 64, 107
1, 1052798, Control_c, 0, 67, 55
1, 1052811, Note_off_c, 0, 78, 60
1, 1052812, Control_c, 0, 64, 110
1, 1052812, Control_c, 0, 67, 55
1, 1052827, Control_c, 0, 64, 113
1, 1052827, Control_c, 0, 67, 54
1, 1052834, Note_on_c, 0, 51, 48
1, 1052836, Note_on_c, 0, 80, 49
1, 1052842, Control_c, 0, 64, 116
1, 1052842, Control_c, 0, 67, 54
1, 1052857, Control_c, 0, 64, 119
1, 1052857, Control_c, 0, 67, 53
1, 1052866, Note_off_c, 0, 47, 36
1, 1052872, Note_off_c, 0, 80, 63
1, 1052872, Control_c, 0, 64, 123
1, 1052872, Control_c, 0, 67, 53
1, 1052880, Note_on_c, 0, 78, 67
1, 1052886, Control_c, 0, 64, 127
1, 1052886, Control_c, 0, 67, 52
1, 1052901, Control_c, 0, 67, 51
1, 1052902, Note_on_c, 0, 54, 52
1, 1052910, Note_off_c, 0, 78, 60
1, 1052916, Note_off_c, 0, 51, 58
1, 1052916, Control_c, 0, 67, 50
1, 1052931, Control_c, 0, 67, 50
1, 1052935, Note_off_c, 0, 54, 63
1, 1052946, Control_c, 0, 67, 49
1, 1052947, Note_on_c, 0, 80, 61
1, 1052960, Control_c, 0, 67, 49
1, 1052963, Note_on_c, 0, 59, 56
1, 1052980, Note_off_c, 0, 80, 62
1, 1052990, Control_c, 0, 67, 48
1, 1053001, Note_off_c, 0, 59, 57
1, 1053005, Note_on_c, 0, 78, 57
1, 1053005, Control_c, 0, 67, 48
1, 1053011, Note_off_c, 0, 76, 0
1, 1053026, Note_off_c, 0, 78, 63
1, 1053035, Note_on_c, 0, 76, 19
1, 1053035, Control_c, 0, 67, 47
1, 1053066, Note_on_c, 0, 63, 51
1, 1053079, Control_c, 0, 67, 47
1, 1053109, Control_c, 0, 67, 46
1, 1053175, Note_off_c, 0, 76, 41
1, 1053183, Control_c, 0, 64, 118
1, 1053183, Control_c, 0, 67, 47
1, 1053197, Control_c, 0, 64, 106
1, 1053202, Note_on_c, 0, 75, 62
1, 1053208, Note_on_c, 0, 66, 51
1, 1053209, Note_on_c, 0, 78, 66
1, 1053212, Control_c, 0, 64, 96
1, 1053227, Control_c, 0, 64, 93
1, 1053257, Control_c, 0, 67, 46
1, 1053301, Control_c, 0, 64, 94
1, 1053315, Control_c, 0, 64, 96
1, 1053315, Control_c, 0, 67, 46
1, 1053330, Control_c, 0, 64, 97
1, 1053330, Control_c, 0, 67, 45
1, 1053345, Control_c, 0, 64, 98
1, 1053360, Control_c, 0, 64, 99
1, 1053360, Control_c, 0, 67, 45
1, 1053375, Control_c, 0, 64, 99
1, 1053375, Control_c, 0, 67, 43
1, 1053389, Control_c, 0, 64, 100
1, 1053389, Control_c, 0, 67, 40
1, 1053404, Control_c, 0, 64, 102
1, 1053404, Control_c, 0, 67, 37
1, 1053419, Control_c, 0, 64, 104
1, 1053419, Control_c, 0, 67, 35
1, 1053434, Control_c, 0, 64, 105
1, 1053434, Control_c, 0, 67, 33
1, 1053457, Control_c, 0, 64, 105
1, 1053457, Control_c, 0, 67, 32
1, 1053473, Control_c, 0, 67, 30
1, 1053488, Control_c, 0, 67, 29
1, 1053500, Note_on_c, 0, 71, 50
1, 1053502, Control_c, 0, 64, 106
1, 1053502, Control_c, 0, 67, 28
1, 1053514, Note_off_c, 0, 75, 37
1, 1053517, Control_c, 0, 64, 107
1, 1053517, Control_c, 0, 67, 27
1, 1053532, Control_c, 0, 64, 108
1, 1053532, Control_c, 0, 67, 26
1, 1053547, Control_c, 0, 64, 108
1, 1053547, Control_c, 0, 67, 26
1, 1053562, Control_c, 0, 67, 25
1, 1053576, Control_c, 0, 64, 109
1, 1053576, Control_c, 0, 67, 25
1, 1053591, Control_c, 0, 64, 111
1, 1053591, Control_c, 0, 67, 24
1, 1053606, Control_c, 0, 64, 113
1, 1053621, Control_c, 0, 64, 113
1, 1053621, Control_c, 0, 67, 24
1, 1053635, Control_c, 0, 64, 114
1, 1053635, Control_c, 0, 67, 23
1, 1053646, Note_off_c, 0, 71, 56
1, 1053650, Control_c, 0, 67, 23
1, 1053665, Control_c, 0, 64, 114
1, 1053678, Note_on_c, 0, 73, 50
1, 1053680, Control_c, 0, 67, 22
1, 1053694, Control_c, 0, 64, 115
1, 1053694, Control_c, 0, 67, 22
1, 1053724, Control_c, 0, 64, 116
1, 1053729, Note_off_c, 0, 78, 35
1, 1053753, Control_c, 0, 67, 21
1, 1053777, Note_off_c, 0, 73, 57
1, 1053822, Note_on_c, 0, 71, 47
1, 1053843, Control_c, 0, 67, 21
1, 1053899, Note_off_c, 0, 71, 47
1, 1053947, Note_on_c, 0, 73, 45
1, 1054012, Note_off_c, 0, 73, 47
1, 1054066, Note_on_c, 0, 71, 46
1, 1054111, Note_off_c, 0, 71, 63
1, 1054165, Note_on_c, 0, 73, 45
1, 1054223, Note_off_c, 0, 73, 51
1, 1054281, Note_on_c, 0, 71, 48
1, 1054308, Note_off_c, 0, 71, 60
1, 1054364, Note_on_c, 0, 73, 46
1, 1054406, Note_off_c, 0, 73, 50
1, 1054414, Control_c, 0, 64, 116
1, 1054458, Note_on_c, 0, 71, 44
1, 1054483, Note_off_c, 0, 66, 27
1, 1054487, Note_off_c, 0, 71, 57
1, 1054540, Note_on_c, 0, 73, 45
1, 1054573, Note_off_c, 0, 73, 52
1, 1054591, Control_c, 0, 64, 117
1, 1054621, Note_on_c, 0, 71, 48
1, 1054621, Control_c, 0, 67, 20
1, 1054632, Note_off_c, 0, 63, 35
1, 1054648, Note_off_c, 0, 71, 65
1, 1054680, Control_c, 0, 64, 117
1, 1054697, Note_on_c, 0, 73, 51
1, 1054725, Note_off_c, 0, 73, 60
1, 1054755, Control_c, 0, 64, 118
1, 1054772, Note_on_c, 0, 71, 50
1, 1054799, Control_c, 0, 64, 118
1, 1054802, Note_off_c, 0, 71, 57
1, 1054835, Note_on_c, 0, 73, 50
1, 1054865, Note_off_c, 0, 73, 55
1, 1054888, Control_c, 0, 64, 119
1, 1054900, Note_on_c, 0, 71, 56
1, 1054929, Note_off_c, 0, 71, 65
1, 1054978, Note_on_c, 0, 73, 45
1, 1055007, Note_off_c, 0, 73, 55
1, 1055032, Note_on_c, 0, 71, 61
1, 1055070, Note_off_c, 0, 71, 58
1, 1055101, Note_on_c, 0, 73, 49
1, 1055124, Note_off_c, 0, 73, 60
1, 1055175, Note_on_c, 0, 71, 44
1, 1055203, Note_off_c, 0, 71, 57
1, 1055212, Note_on_c, 0, 73, 56
1, 1055255, Note_off_c, 0, 73, 64
1, 1055285, Note_on_c, 0, 71, 52
1, 1055308, Note_off_c, 0, 71, 61
1, 1055339, Note_on_c, 0, 73, 59
1, 1055366, Note_off_c, 0, 73, 63
1, 1055378, Note_on_c, 0, 71, 64
1, 1055402, Note_off_c, 0, 71, 68
1, 1055440, Note_on_c, 0, 73, 66
1, 1055470, Note_off_c, 0, 73, 65
1, 1055485, Note_on_c, 0, 71, 66
1, 1055503, Note_off_c, 0, 71, 64
1, 1055536, Note_on_c, 0, 73, 71
1, 1055569, Note_off_c, 0, 73, 61
1, 1055574, Note_on_c, 0, 71, 59
1, 1055613, Note_off_c, 0, 71, 58
1, 1055631, Note_on_c, 0, 73, 67
1, 1055664, Note_off_c, 0, 73, 64
1, 1055688, Note_on_c, 0, 71, 47
1, 1055719, Note_off_c, 0, 71, 60
1, 1055736, Note_on_c, 0, 73, 68
1, 1055774, Note_off_c, 0, 73, 58
1, 1055793, Note_on_c, 0, 71, 58
1, 1055812, Note_off_c, 0, 71, 64
1, 1055845, Note_on_c, 0, 73, 63
1, 1055880, Note_off_c, 0, 73, 64
1, 1055882, Note_on_c, 0, 71, 67
1, 1055916, Note_off_c, 0, 71, 54
1, 1055950, Note_on_c, 0, 73, 61
1, 1055980, Note_off_c, 0, 73, 66
1, 1055996, Note_on_c, 0, 71, 58
1, 1056019, Note_off_c, 0, 71, 59
1, 1056048, Note_on_c, 0, 73, 68
1, 1056081, Note_off_c, 0, 73, 63
1, 1056092, Note_on_c, 0, 71, 61
1, 1056125, Note_off_c, 0, 71, 62
1, 1056147, Note_on_c, 0, 73, 62
1, 1056181, Note_off_c, 0, 73, 61
1, 1056196, Note_on_c, 0, 71, 48
1, 1056224, Note_off_c, 0, 71, 52
1, 1056251, Note_on_c, 0, 73, 52
1, 1056282, Note_off_c, 0, 73, 55
1, 1056293, Note_on_c, 0, 71, 54
1, 1056329, Note_off_c, 0, 71, 54
1, 1056355, Note_on_c, 0, 73, 55
1, 1056384, Note_off_c, 0, 73, 57
1, 1056403, Note_on_c, 0, 71, 50
1, 1056429, Note_off_c, 0, 71, 57
1, 1056471, Note_on_c, 0, 73, 58
1, 1056504, Note_off_c, 0, 73, 58
1, 1056514, Note_on_c, 0, 71, 56
1, 1056549, Note_off_c, 0, 71, 60
1, 1056585, Note_on_c, 0, 73, 54
1, 1056610, Note_off_c, 0, 73, 60
1, 1056624, Note_on_c, 0, 63, 69
1, 1056640, Note_on_c, 0, 71, 48
1, 1056668, Note_off_c, 0, 71, 57
1, 1056692, Note_on_c, 0, 73, 55
1, 1056728, Note_off_c, 0, 73, 51
1, 1056750, Note_on_c, 0, 71, 49
1, 1056769, Note_off_c, 0, 71, 64
1, 1056815, Note_on_c, 0, 73, 47
1, 1056840, Note_on_c, 0, 71, 61
1, 1056843, Note_off_c, 0, 73, 55
1, 1056895, Note_off_c, 0, 71, 56
1, 1056915, Note_off_c, 0, 63, 61
1, 1056920, Note_on_c, 0, 73, 50
1, 1056951, Note_off_c, 0, 73, 54
1, 1056956, Note_on_c, 0, 71, 47
1, 1057005, Note_off_c, 0, 71, 61
1, 1057049, Note_on_c, 0, 73, 56
1, 1057098, Note_off_c, 0, 73, 54
1, 1057110, Note_on_c, 0, 71, 44
1, 1057192, Note_off_c, 0, 71, 64
1, 1057209, Note_on_c, 0, 69, 73
1, 1057245, Control_c, 0, 64, 117
1, 1057260, Control_c, 0, 64, 106
1, 1057275, Control_c, 0, 64, 94
1, 1057290, Control_c, 0, 64, 83
1, 1057305, Control_c, 0, 64, 81
1, 1057319, Control_c, 0, 64, 82
1, 1057323, Note_on_c, 0, 71, 31
1, 1057330, Note_on_c, 0, 30, 46
1, 1057334, Control_c, 0, 64, 84
1, 1057342, Note_on_c, 0, 73, 55
1, 1057349, Control_c, 0, 64, 86
1, 1057354, Note_off_c, 0, 71, 50
1, 1057363, Control_c, 0, 64, 90
1, 1057378, Control_c, 0, 64, 94
1, 1057379, Note_off_c, 0, 30, 60
1, 1057382, Note_off_c, 0, 73, 62
1, 1057393, Control_c, 0, 64, 98
1, 1057405, Note_on_c, 0, 42, 40
1, 1057408, Control_c, 0, 64, 102
1, 1057423, Control_c, 0, 64, 104
1, 1057436, Note_on_c, 0, 71, 16
1, 1057438, Control_c, 0, 64, 106
1, 1057441, Note_off_c, 0, 42, 54
1, 1057452, Control_c, 0, 64, 106
1, 1057470, Note_on_c, 0, 73, 48
1, 1057488, Note_off_c, 0, 71, 0
1, 1057496, Note_off_c, 0, 73, 59
1, 1057508, Note_on_c, 0, 71, 41
1, 1057536, Note_off_c, 0, 71, 58
1, 1057575, Note_on_c, 0, 73, 56
1, 1057578, Note_on_c, 0, 47, 49
1, 1057602, Note_off_c, 0, 73, 56
1, 1057619, Note_off_c, 0, 69, 0
1, 1057625, Note_on_c, 0, 71, 52
1, 1057655, Note_on_c, 0, 69, 9
1, 1057655, Note_off_c, 0, 71, 61
1, 1057664, Note_on_c, 0, 52, 49
1, 1057676, Control_c, 0, 67, 21
1, 1057706, Control_c, 0, 67, 21
1, 1057736, Control_c, 0, 64, 106
1, 1057750, Control_c, 0, 64, 105
1, 1057750, Control_c, 0, 67, 22
1, 1057765, Control_c, 0, 64, 104
1, 1057765, Control_c, 0, 67, 22
1, 1057780, Control_c, 0, 64, 104
1, 1057780, Control_c, 0, 67, 23
1, 1057791, Note_on_c, 0, 56, 40
1, 1057794, Control_c, 0, 64, 103
1, 1057794, Control_c, 0, 67, 24
1, 1057809, Control_c, 0, 64, 102
1, 1057809, Control_c, 0, 67, 24
1, 1057824, Control_c, 0, 64, 101
1, 1057824, Control_c, 0, 67, 25
1, 1057839, Control_c, 0, 64, 99
1, 1057839, Control_c, 0, 67, 25
1, 1057854, Control_c, 0, 64, 97
1, 1057868, Control_c, 0, 64, 93
1, 1057868, Control_c, 0, 67, 26
1, 1057883, Control_c, 0, 64, 89
1, 1057883, Control_c, 0, 67, 27
1, 1057887, Note_off_c, 0, 69, 51
1, 1057898, Control_c, 0, 64, 84
1, 1057898, Control_c, 0, 67, 27
1, 1057908, Note_on_c, 0, 68, 54
1, 1057912, Control_c, 0, 64, 78
1, 1057912, Control_c, 0, 67, 28
1, 1057927, Control_c, 0, 64, 71
1, 1057927, Control_c, 0, 67, 28
1, 1057928, Note_on_c, 0, 71, 42
1, 1057950, Control_c, 0, 64, 64
1, 1057950, Control_c, 0, 67, 29
1, 1057954, Note_on_c, 0, 59, 35
1, 1057965, Control_c, 0, 64, 33
1, 1057965, Control_c, 0, 67, 29
1, 1057980, Control_c, 0, 64, 0
1, 1057980, Control_c, 0, 67, 30
1, 1057994, Control_c, 0, 67, 30
1, 1058009, Control_c, 0, 67, 31
1, 1058024, Control_c, 0, 67, 32
1, 1058039, Control_c, 0, 67, 33
1, 1058054, Control_c, 0, 67, 33
1, 1058068, Control_c, 0, 67, 34
1, 1058083, Control_c, 0, 67, 35
1, 1058098, Control_c, 0, 67, 37
1, 1058112, Control_c, 0, 67, 40
1, 1058127, Control_c, 0, 67, 44
1, 1058142, Control_c, 0, 67, 48
1, 1058157, Control_c, 0, 67, 52
1, 1058172, Control_c, 0, 64, 27
1, 1058172, Control_c, 0, 67, 56
1, 1058186, Control_c, 0, 64, 47
1, 1058186, Control_c, 0, 67, 60
1, 1058201, Control_c, 0, 64, 58
1, 1058201, Control_c, 0, 67, 63
1, 1058216, Control_c, 0, 64, 63
1, 1058216, Control_c, 0, 67, 65
1, 1058231, Control_c, 0, 64, 65
1, 1058231, Control_c, 0, 67, 67
1, 1058246, Control_c, 0, 64, 66
1, 1058246, Control_c, 0, 67, 70
1, 1058262, Control_c, 0, 64, 69
1, 1058262, Control_c, 0, 67, 72
1, 1058277, Control_c, 0, 64, 71
1, 1058277, Control_c, 0, 67, 75
1, 1058291, Control_c, 0, 64, 73
1, 1058291, Control_c, 0, 67, 78
1, 1058306, Control_c, 0, 64, 74
1, 1058306, Control_c, 0, 67, 80
1, 1058321, Control_c, 0, 64, 75
1, 1058321, Control_c, 0, 67, 83
1, 1058336, Control_c, 0, 64, 77
1, 1058336, Control_c, 0, 67, 86
1, 1058344, Note_on_c, 0, 64, 40
1, 1058350, Control_c, 0, 64, 79
1, 1058350, Control_c, 0, 67, 89
1, 1058365, Control_c, 0, 64, 80
1, 1058365, Control_c, 0, 67, 91
1, 1058380, Control_c, 0, 64, 82
1, 1058380, Control_c, 0, 67, 94
1, 1058395, Control_c, 0, 64, 83
1, 1058395, Control_c, 0, 67, 96
1, 1058410, Control_c, 0, 64, 84
1, 1058410, Control_c, 0, 67, 97
1, 1058424, Control_c, 0, 64, 86
1, 1058424, Control_c, 0, 67, 99
1, 1058439, Control_c, 0, 64, 88
1, 1058439, Control_c, 0, 67, 100
1, 1058454, Control_c, 0, 64, 89
1, 1058469, Control_c, 0, 64, 90
1, 1058484, Control_c, 0, 64, 91
1, 1058484, Control_c, 0, 67, 100
1, 1058499, Control_c, 0, 64, 92
1, 1058505, Note_off_c, 0, 64, 46
1, 1058514, Control_c, 0, 64, 93
1, 1058523, Note_on_c, 0, 66, 35
1, 1058529, Control_c, 0, 64, 93
1, 1058543, Control_c, 0, 64, 94
1, 1058572, Control_c, 0, 64, 95
1, 1058579, Note_off_c, 0, 68, 24
1, 1058587, Control_c, 0, 64, 96
1, 1058602, Control_c, 0, 64, 96
1, 1058616, Control_c, 0, 64, 97
1, 1058642, Note_off_c, 0, 71, 9
1, 1058646, Control_c, 0, 64, 97
1, 1058669, Note_off_c, 0, 66, 40
1, 1058676, Control_c, 0, 64, 98
1, 1058693, Note_on_c, 0, 64, 37
1, 1058757, Control_c, 0, 64, 98
1, 1058806, Note_off_c, 0, 64, 35
1, 1058818, Note_on_c, 0, 66, 42
1, 1058901, Note_off_c, 0, 66, 47
1, 1058920, Control_c, 0, 64, 99
1, 1058949, Control_c, 0, 64, 99
1, 1058952, Note_on_c, 0, 64, 40
1, 1058964, Control_c, 0, 64, 100
1, 1059008, Control_c, 0, 64, 100
1, 1059008, Control_c, 0, 67, 101
1, 1059010, Note_off_c, 0, 64, 41
1, 1059023, Control_c, 0, 67, 101
1, 1059038, Control_c, 0, 67, 102
1, 1059053, Control_c, 0, 67, 103
1, 1059069, Control_c, 0, 67, 106
1, 1059073, Note_on_c, 0, 66, 38
1, 1059084, Control_c, 0, 67, 110
1, 1059099, Control_c, 0, 67, 114
1, 1059113, Control_c, 0, 67, 117
1, 1059128, Control_c, 0, 67, 121
1, 1059143, Control_c, 0, 67, 123
1, 1059158, Note_off_c, 0, 66, 39
1, 1059158, Control_c, 0, 67, 125
1, 1059172, Control_c, 0, 67, 127
1, 1059187, Control_c, 0, 67, 127
1, 1059201, Note_on_c, 0, 64, 35
1, 1059240, Note_off_c, 0, 64, 49
1, 1059282, Note_on_c, 0, 66, 45
1, 1059321, Note_off_c, 0, 66, 48
1, 1059377, Note_on_c, 0, 64, 36
1, 1059419, Note_off_c, 0, 64, 50
1, 1059453, Note_on_c, 0, 66, 41
1, 1059485, Note_off_c, 0, 66, 54
1, 1059527, Note_on_c, 0, 64, 44
1, 1059558, Note_off_c, 0, 64, 56
1, 1059581, Note_on_c, 0, 66, 47
1, 1059612, Note_off_c, 0, 66, 55
1, 1059661, Note_on_c, 0, 64, 37
1, 1059694, Note_off_c, 0, 64, 52
1, 1059702, Note_on_c, 0, 66, 50
1, 1059727, Note_off_c, 0, 66, 59
1, 1059780, Note_on_c, 0, 64, 26
1, 1059807, Note_on_c, 0, 66, 51
1, 1059813, Note_off_c, 0, 64, 55
1, 1059834, Note_off_c, 0, 66, 56
1, 1059843, Note_off_c, 0, 47, 1
1, 1059870, Note_on_c, 0, 64, 44
1, 1059900, Note_off_c, 0, 64, 55
1, 1059910, Note_off_c, 0, 59, 32
1, 1059919, Note_off_c, 0, 52, 34
1, 1059929, Note_on_c, 0, 66, 45
1, 1059962, Note_off_c, 0, 66, 50
1, 1059983, Note_on_c, 0, 64, 50
1, 1060008, Note_off_c, 0, 64, 59
1, 1060021, Note_off_c, 0, 56, 36
1, 1060034, Note_on_c, 0, 66, 42
1, 1060058, Note_off_c, 0, 66, 58
1, 1060097, Note_on_c, 0, 64, 45
1, 1060126, Note_off_c, 0, 64, 55
1, 1060135, Note_on_c, 0, 66, 55
1, 1060156, Note_off_c, 0, 66, 61
1, 1060207, Note_on_c, 0, 64, 41
1, 1060239, Note_off_c, 0, 64, 54
1, 1060243, Note_on_c, 0, 66, 56
1, 1060274, Note_off_c, 0, 66, 52
1, 1060301, Note_on_c, 0, 64, 44
1, 1060335, Note_off_c, 0, 64, 52
1, 1060374, Note_on_c, 0, 66, 7
1, 1060401, Note_on_c, 0, 64, 44
1, 1060442, Note_off_c, 0, 64, 51
1, 1060506, Note_off_c, 0, 66, 43
1, 1060513, Note_on_c, 0, 64, 39
1, 1060520, Control_c, 0, 64, 100
1, 1060552, Note_off_c, 0, 64, 50
1, 1060553, Note_on_c, 0, 66, 37
1, 1060580, Control_c, 0, 64, 99
1, 1060592, Note_off_c, 0, 66, 49
1, 1060624, Control_c, 0, 64, 99
1, 1060627, Note_on_c, 0, 64, 21
1, 1060660, Note_on_c, 0, 66, 44
1, 1060699, Note_off_c, 0, 66, 49
1, 1060699, Control_c, 0, 64, 98
1, 1060701, Note_off_c, 0, 64, 0
1, 1060717, Note_on_c, 0, 64, 27
1, 1060758, Control_c, 0, 64, 98
1, 1060774, Note_off_c, 0, 64, 42
1, 1060789, Note_on_c, 0, 66, 43
1, 1060818, Control_c, 0, 64, 97
1, 1060827, Note_off_c, 0, 66, 50
1, 1060833, Control_c, 0, 64, 97
1, 1060846, Note_on_c, 0, 64, 41
1, 1060863, Control_c, 0, 64, 96
1, 1060878, Control_c, 0, 64, 96
1, 1060892, Control_c, 0, 64, 95
1, 1060899, Note_off_c, 0, 64, 57
1, 1060907, Control_c, 0, 64, 94
1, 1060922, Control_c, 0, 64, 93
1, 1060944, Control_c, 0, 64, 92
1, 1060959, Control_c, 0, 64, 91
1, 1060983, Note_on_c, 0, 63, 45
1, 1061086, Note_on_c, 0, 64, 48
1, 1061086, Note_off_c, 0, 63, 36
1, 1061137, Note_off_c, 0, 64, 48
1, 1061137, Control_c, 0, 64, 91
1, 1061150, Note_on_c, 0, 66, 58
1, 1061152, Control_c, 0, 64, 90
1, 1061211, Note_on_c, 0, 68, 49
1, 1061213, Note_off_c, 0, 66, 59
1, 1061238, Note_on_c, 0, 70, 61
1, 1061238, Note_off_c, 0, 68, 61
1, 1061257, Note_off_c, 0, 70, 65
1, 1061317, Note_on_c, 0, 71, 53
1, 1061338, Note_off_c, 0, 71, 62
1, 1061362, Note_on_c, 0, 73, 60
1, 1061393, Note_off_c, 0, 73, 66
1, 1061400, Note_on_c, 0, 75, 63
1, 1061429, Note_off_c, 0, 75, 68
1, 1061470, Note_on_c, 0, 76, 67
1, 1061501, Note_off_c, 0, 76, 62
1, 1061524, Note_on_c, 0, 78, 63
1, 1061538, Control_c, 0, 64, 90
1, 1061553, Control_c, 0, 64, 88
1, 1061565, Note_on_c, 0, 80, 66
1, 1061567, Control_c, 0, 64, 83
1, 1061569, Note_off_c, 0, 78, 58
1, 1061582, Control_c, 0, 64, 75
1, 1061597, Control_c, 0, 64, 71
1, 1061612, Control_c, 0, 64, 71
1, 1061617, Note_on_c, 0, 82, 57
1, 1061625, Note_off_c, 0, 80, 62
1, 1061626, Control_c, 0, 64, 73
1, 1061641, Control_c, 0, 64, 73
1, 1061652, Note_off_c, 0, 82, 65
1, 1061656, Control_c, 0, 64, 74
1, 1061659, Note_on_c, 0, 83, 65
1, 1061671, Control_c, 0, 64, 74
1, 1061708, Control_c, 0, 64, 75
1, 1061718, Note_on_c, 0, 82, 62
1, 1061723, Control_c, 0, 64, 75
1, 1061738, Control_c, 0, 64, 76
1, 1061742, Note_off_c, 0, 83, 59
1, 1061753, Control_c, 0, 64, 77
1, 1061767, Control_c, 0, 64, 79
1, 1061768, Note_on_c, 0, 80, 57
1, 1061782, Control_c, 0, 64, 81
1, 1061790, Note_off_c, 0, 82, 61
1, 1061797, Control_c, 0, 64, 82
1, 1061812, Control_c, 0, 64, 82
1, 1061825, Note_off_c, 0, 80, 61
1, 1061827, Control_c, 0, 64, 83
1, 1061828, Note_on_c, 0, 78, 60
1, 1061841, Control_c, 0, 64, 84
1, 1061856, Control_c, 0, 64, 86
1, 1061858, Note_off_c, 0, 78, 65
1, 1061871, Control_c, 0, 64, 87
1, 1061881, Note_on_c, 0, 76, 56
1, 1061885, Control_c, 0, 64, 87
1, 1061900, Control_c, 0, 64, 88
1, 1061915, Control_c, 0, 64, 89
1, 1061930, Note_off_c, 0, 76, 51
1, 1061930, Control_c, 0, 64, 90
1, 1061954, Note_on_c, 0, 75, 53
1, 1061960, Control_c, 0, 64, 90
1, 1061990, Note_off_c, 0, 75, 64
1, 1062004, Control_c, 0, 64, 91
1, 1062013, Note_on_c, 0, 73, 55
1, 1062019, Control_c, 0, 64, 92
1, 1062052, Note_off_c, 0, 73, 63
1, 1062064, Control_c, 0, 67, 127
1, 1062096, Note_on_c, 0, 71, 51
1, 1062171, Note_off_c, 0, 71, 51
1, 1062186, Note_on_c, 0, 70, 55
1, 1062255, Note_off_c, 0, 70, 47
1, 1062268, Note_on_c, 0, 68, 50
1, 1062339, Note_off_c, 0, 68, 53
1, 1062368, Note_on_c, 0, 66, 42
1, 1062420, Control_c, 0, 64, 91
1, 1062472, Control_c, 0, 64, 91
1, 1062487, Control_c, 0, 64, 90
1, 1062488, Note_on_c, 0, 42, 33
1, 1062502, Control_c, 0, 64, 87
1, 1062516, Control_c, 0, 64, 79
1, 1062521, Note_off_c, 0, 66, 57
1, 1062531, Control_c, 0, 64, 65
1, 1062546, Control_c, 0, 64, 0
1, 1062560, Note_on_c, 0, 65, 39
1, 1062561, Control_c, 0, 64, 26
1, 1062576, Control_c, 0, 64, 47
1, 1062590, Control_c, 0, 64, 55
1, 1062605, Control_c, 0, 64, 60
1, 1062620, Control_c, 0, 64, 64
1, 1062635, Control_c, 0, 64, 68
1, 1062650, Control_c, 0, 64, 71
1, 1062664, Control_c, 0, 64, 73
1, 1062679, Control_c, 0, 64, 74
1, 1062680, Note_off_c, 0, 42, 47
1, 1062694, Control_c, 0, 64, 76
1, 1062694, Control_c, 0, 67, 126
1, 1062706, Note_on_c, 0, 49, 45
1, 1062708, Control_c, 0, 64, 78
1, 1062723, Control_c, 0, 64, 80
1, 1062738, Control_c, 0, 64, 82
1, 1062753, Control_c, 0, 64, 84
1, 1062768, Control_c, 0, 64, 85
1, 1062782, Control_c, 0, 64, 87
1, 1062797, Control_c, 0, 64, 88
1, 1062812, Control_c, 0, 64, 89
1, 1062826, Note_off_c, 0, 65, 37
1, 1062827, Control_c, 0, 64, 90
1, 1062842, Control_c, 0, 64, 92
1, 1062842, Control_c, 0, 67, 126
1, 1062872, Control_c, 0, 64, 92
1, 1062872, Note_on_c, 0, 66, 20
1, 1062899, Note_on_c, 0, 56, 41
1, 1062902, Control_c, 0, 64, 93
1, 1062916, Control_c, 0, 64, 93
1, 1062922, Note_off_c, 0, 49, 39
1, 1062931, Control_c, 0, 64, 94
1, 1063006, Note_off_c, 0, 66, 41
1, 1063036, Note_on_c, 0, 59, 34
1, 1063048, Note_on_c, 0, 65, 33
1, 1063140, Note_off_c, 0, 65, 38
1, 1063179, Note_on_c, 0, 66, 42
1, 1063216, Note_off_c, 0, 66, 52
1, 1063259, Note_off_c, 0, 59, 37
1, 1063264, Note_on_c, 0, 65, 51
1, 1063301, Note_off_c, 0, 65, 64
1, 1063337, Note_off_c, 0, 56, 31
1, 1063347, Note_on_c, 0, 66, 34
1, 1063381, Note_off_c, 0, 66, 47
1, 1063405, Note_on_c, 0, 65, 44
1, 1063428, Note_off_c, 0, 65, 60
1, 1063465, Note_on_c, 0, 66, 47
1, 1063490, Note_off_c, 0, 66, 57
1, 1063501, Note_on_c, 0, 65, 58
1, 1063533, Note_off_c, 0, 65, 66
1, 1063573, Note_on_c, 0, 66, 45
1, 1063601, Note_off_c, 0, 66, 55
1, 1063626, Note_on_c, 0, 65, 36
1, 1063652, Note_off_c, 0, 65, 56
1, 1063676, Note_on_c, 0, 66, 35
1, 1063706, Note_off_c, 0, 66, 52
1, 1063720, Note_on_c, 0, 65, 42
1, 1063744, Note_off_c, 0, 65, 58
1, 1063768, Note_on_c, 0, 66, 46
1, 1063793, Note_off_c, 0, 66, 57
1, 1063820, Note_on_c, 0, 65, 55
1, 1063844, Note_off_c, 0, 65, 60
1, 1063875, Note_on_c, 0, 66, 51
1, 1063898, Note_off_c, 0, 66, 59
1, 1063921, Note_on_c, 0, 65, 57
1, 1063954, Note_off_c, 0, 65, 58
1, 1063990, Note_on_c, 0, 66, 44
1, 1064022, Note_off_c, 0, 66, 51
1, 1064036, Note_on_c, 0, 65, 48
1, 1064064, Note_off_c, 0, 65, 53
1, 1064077, Note_on_c, 0, 66, 47
1, 1064110, Note_off_c, 0, 66, 54
1, 1064142, Note_on_c, 0, 65, 46
1, 1064168, Note_off_c, 0, 65, 53
1, 1064195, Note_on_c, 0, 66, 47
1, 1064225, Note_off_c, 0, 66, 55
1, 1064249, Note_on_c, 0, 65, 49
1, 1064277, Note_off_c, 0, 65, 56
1, 1064296, Control_c, 0, 64, 93
1, 1064296, Control_c, 0, 67, 125
1, 1064302, Note_on_c, 0, 66, 60
1, 1064326, Control_c, 0, 64, 93
1, 1064330, Note_off_c, 0, 66, 55
1, 1064356, Control_c, 0, 64, 92
1, 1064370, Control_c, 0, 64, 91
1, 1064372, Note_on_c, 0, 65, 46
1, 1064385, Control_c, 0, 64, 89
1, 1064400, Control_c, 0, 64, 87
1, 1064415, Control_c, 0, 64, 84
1, 1064422, Note_off_c, 0, 65, 46
1, 1064429, Control_c, 0, 64, 83
1, 1064444, Control_c, 0, 64, 82
1, 1064472, Note_on_c, 0, 63, 47
1, 1064503, Control_c, 0, 64, 83
1, 1064503, Control_c, 0, 67, 125
1, 1064518, Control_c, 0, 64, 84
1, 1064523, Note_on_c, 0, 65, 52
1, 1064523, Note_off_c, 0, 63, 54
1, 1064547, Control_c, 0, 64, 83
1, 1064562, Control_c, 0, 64, 82
1, 1064570, Note_off_c, 0, 65, 57
1, 1064577, Control_c, 0, 64, 81
1, 1064584, Note_on_c, 0, 66, 55
1, 1064592, Control_c, 0, 64, 80
1, 1064607, Control_c, 0, 67, 124
1, 1064631, Note_off_c, 0, 66, 58
1, 1064636, Control_c, 0, 64, 81
1, 1064639, Note_on_c, 0, 68, 42
1, 1064651, Control_c, 0, 64, 81
1, 1064666, Note_off_c, 0, 68, 57
1, 1064668, Note_on_c, 0, 70, 55
1, 1064689, Control_c, 0, 64, 81
1, 1064696, Note_off_c, 0, 70, 64
1, 1064703, Control_c, 0, 64, 80
1, 1064718, Control_c, 0, 64, 80
1, 1064733, Control_c, 0, 67, 124
1, 1064741, Note_on_c, 0, 71, 60
1, 1064762, Note_off_c, 0, 71, 65
1, 1064763, Control_c, 0, 67, 123
1, 1064777, Control_c, 0, 64, 80
1, 1064792, Control_c, 0, 64, 81
1, 1064797, Note_on_c, 0, 73, 59
1, 1064807, Control_c, 0, 64, 81
1, 1064822, Control_c, 0, 67, 123
1, 1064825, Note_on_c, 0, 75, 71
1, 1064825, Note_off_c, 0, 73, 66
1, 1064852, Control_c, 0, 67, 122
1, 1064862, Note_off_c, 0, 75, 64
1, 1064866, Control_c, 0, 64, 82
1, 1064866, Control_c, 0, 67, 121
1, 1064881, Control_c, 0, 64, 82
1, 1064906, Note_on_c, 0, 77, 69
1, 1064955, Note_off_c, 0, 77, 57
1, 1064964, Note_on_c, 0, 78, 66
1, 1065018, Note_on_c, 0, 80, 68
1, 1065022, Note_off_c, 0, 78, 61
1, 1065072, Note_on_c, 0, 82, 57
1, 1065076, Note_off_c, 0, 80, 62
1, 1065103, Control_c, 0, 64, 82
1, 1065104, Note_off_c, 0, 82, 64
1, 1065105, Note_on_c, 0, 85, 72
1, 1065118, Control_c, 0, 64, 79
1, 1065133, Control_c, 0, 64, 73
1, 1065148, Control_c, 0, 64, 67
1, 1065163, Control_c, 0, 64, 66
1, 1065177, Control_c, 0, 64, 68
1, 1065187, Note_off_c, 0, 85, 60
1, 1065191, Note_on_c, 0, 83, 67
1, 1065192, Control_c, 0, 64, 69
1, 1065207, Control_c, 0, 64, 71
1, 1065222, Control_c, 0, 64, 73
1, 1065233, Note_on_c, 0, 82, 63
1, 1065233, Note_off_c, 0, 83, 59
1, 1065237, Control_c, 0, 64, 75
1, 1065251, Control_c, 0, 64, 77
1, 1065266, Control_c, 0, 64, 79
1, 1065281, Control_c, 0, 64, 81
1, 1065296, Control_c, 0, 64, 82
1, 1065302, Note_on_c, 0, 80, 58
1, 1065308, Note_off_c, 0, 82, 60
1, 1065310, Control_c, 0, 64, 83
1, 1065325, Control_c, 0, 64, 84
1, 1065340, Control_c, 0, 64, 85
1, 1065346, Note_off_c, 0, 80, 56
1, 1065354, Note_on_c, 0, 78, 51
1, 1065355, Control_c, 0, 64, 86
1, 1065370, Control_c, 0, 64, 87
1, 1065383, Note_off_c, 0, 78, 60
1, 1065385, Control_c, 0, 64, 88
1, 1065400, Control_c, 0, 64, 89
1, 1065406, Note_on_c, 0, 77, 62
1, 1065437, Control_c, 0, 64, 89
1, 1065457, Note_off_c, 0, 77, 48
1, 1065482, Control_c, 0, 64, 90
1, 1065493, Note_on_c, 0, 75, 49
1, 1065533, Note_off_c, 0, 75, 62
1, 1065541, Control_c, 0, 64, 90
1, 1065548, Note_on_c, 0, 73, 56
1, 1065589, Note_off_c, 0, 73, 63
1, 1065629, Note_on_c, 0, 71, 55
1, 1065688, Note_off_c, 0, 71, 45
1, 1065711, Note_on_c, 0, 70, 46
1, 1065772, Note_off_c, 0, 70, 51
1, 1065791, Note_on_c, 0, 68, 45
1, 1065872, Note_off_c, 0, 68, 58
1, 1065895, Note_on_c, 0, 66, 41
1, 1065957, Note_off_c, 0, 66, 55
1, 1065999, Note_on_c, 0, 65, 40
1, 1066089, Control_c, 0, 64, 90
1, 1066131, Note_on_c, 0, 42, 27
1, 1066148, Control_c, 0, 64, 89
1, 1066163, Control_c, 0, 64, 88
1, 1066186, Control_c, 0, 64, 85
1, 1066187, Note_off_c, 0, 65, 39
1, 1066193, Note_on_c, 0, 66, 46
1, 1066201, Control_c, 0, 64, 79
1, 1066215, Control_c, 0, 64, 71
1, 1066215, Control_c, 0, 67, 122
1, 1066230, Control_c, 0, 64, 63
1, 1066261, Control_c, 0, 64, 64
1, 1066276, Control_c, 0, 64, 65
1, 1066291, Control_c, 0, 64, 66
1, 1066305, Control_c, 0, 64, 67
1, 1066320, Control_c, 0, 64, 69
1, 1066335, Control_c, 0, 64, 71
1, 1066349, Control_c, 0, 64, 73
1, 1066364, Control_c, 0, 64, 75
1, 1066379, Control_c, 0, 64, 76
1, 1066381, Note_off_c, 0, 42, 44
1, 1066394, Control_c, 0, 64, 78
1, 1066402, Note_on_c, 0, 49, 35
1, 1066409, Control_c, 0, 64, 80
1, 1066423, Control_c, 0, 64, 82
1, 1066438, Control_c, 0, 64, 84
1, 1066453, Control_c, 0, 64, 85
1, 1066468, Control_c, 0, 64, 87
1, 1066480, Note_off_c, 0, 66, 57
1, 1066482, Control_c, 0, 64, 88
1, 1066497, Control_c, 0, 64, 90
1, 1066512, Control_c, 0, 64, 92
1, 1066522, Note_on_c, 0, 68, 36
1, 1066527, Control_c, 0, 64, 94
1, 1066542, Control_c, 0, 64, 95
1, 1066556, Control_c, 0, 64, 96
1, 1066571, Control_c, 0, 64, 97
1, 1066586, Control_c, 0, 64, 97
1, 1066592, Note_off_c, 0, 68, 0
1, 1066601, Control_c, 0, 64, 98
1, 1066616, Control_c, 0, 64, 98
1, 1066629, Poly_aftertouch_c, 0, 68, 127
1, 1066631, Control_c, 0, 64, 99
1, 1066648, Note_on_c, 0, 54, 32
1, 1066675, Control_c, 0, 64, 99
1, 1066684, Poly_aftertouch_c, 0, 68, 0
1, 1066708, Note_on_c, 0, 66, 41
1, 1066749, Control_c, 0, 64, 100
1, 1066779, Control_c, 0, 64, 100
1, 1066818, Note_on_c, 0, 58, 32
1, 1066824, Control_c, 0, 64, 101
1, 1066839, Control_c, 0, 64, 101
1, 1066854, Control_c, 0, 64, 102
1, 1066857, Note_off_c, 0, 66, 42
1, 1066884, Note_on_c, 0, 68, 43
1, 1066962, Note_off_c, 0, 68, 45
1, 1066965, Control_c, 0, 64, 102
1, 1067006, Note_on_c, 0, 66, 36
1, 1067009, Control_c, 0, 64, 103
1, 1067069, Control_c, 0, 64, 103
1, 1067087, Note_off_c, 0, 66, 39
1, 1067099, Control_c, 0, 64, 104
1, 1067117, Note_on_c, 0, 68, 37
1, 1067162, Note_off_c, 0, 68, 48
1, 1067201, Note_on_c, 0, 66, 42
1, 1067241, Note_off_c, 0, 66, 50
1, 1067287, Note_on_c, 0, 68, 38
1, 1067322, Note_off_c, 0, 68, 52
1, 1067355, Note_on_c, 0, 66, 46
1, 1067387, Note_off_c, 0, 66, 55
1, 1067430, Note_on_c, 0, 68, 40
1, 1067461, Note_off_c, 0, 68, 55
1, 1067496, Note_on_c, 0, 66, 35
1, 1067529, Note_off_c, 0, 66, 49
1, 1067552, Note_on_c, 0, 68, 50
1, 1067578, Note_off_c, 0, 68, 58
1, 1067614, Note_on_c, 0, 66, 47
1, 1067638, Note_off_c, 0, 66, 59
1, 1067678, Note_on_c, 0, 68, 44
1, 1067710, Note_off_c, 0, 68, 53
1, 1067725, Note_on_c, 0, 66, 52
1, 1067749, Note_off_c, 0, 66, 60
1, 1067827, Note_on_c, 0, 68, 9
1, 1067847, Note_on_c, 0, 66, 39
1, 1067874, Note_off_c, 0, 66, 58
1, 1067945, Note_off_c, 0, 68, 49
1, 1067953, Note_on_c, 0, 66, 47
1, 1067980, Note_off_c, 0, 66, 56
1, 1068002, Note_on_c, 0, 68, 47
1, 1068038, Note_off_c, 0, 68, 63
1, 1068061, Note_on_c, 0, 66, 44
1, 1068091, Note_off_c, 0, 66, 52
1, 1068115, Note_on_c, 0, 68, 43
1, 1068142, Note_off_c, 0, 68, 57
1, 1068173, Note_on_c, 0, 66, 46
1, 1068197, Note_off_c, 0, 66, 60
1, 1068244, Note_on_c, 0, 65, 45
1, 1068277, Control_c, 0, 64, 103
1, 1068291, Control_c, 0, 64, 102
1, 1068302, Note_off_c, 0, 65, 55
1, 1068306, Control_c, 0, 64, 102
1, 1068316, Note_on_c, 0, 66, 37
1, 1068351, Control_c, 0, 64, 101
1, 1068366, Control_c, 0, 64, 100
1, 1068380, Control_c, 0, 64, 95
1, 1068395, Control_c, 0, 64, 88
1, 1068407, Note_off_c, 0, 66, 46
1, 1068410, Control_c, 0, 64, 79
1, 1068431, Note_off_c, 0, 58, 39
1, 1068432, Control_c, 0, 64, 74
1, 1068433, Note_on_c, 0, 71, 42
1, 1068461, Control_c, 0, 64, 74
1, 1068476, Control_c, 0, 64, 75
1, 1068482, Note_off_c, 0, 71, 58
1, 1068491, Control_c, 0, 64, 76
1, 1068506, Control_c, 0, 64, 76
1, 1068517, Note_on_c, 0, 65, 27
1, 1068521, Control_c, 0, 64, 77
1, 1068535, Control_c, 0, 64, 78
1, 1068550, Control_c, 0, 64, 79
1, 1068553, Note_off_c, 0, 65, 46
1, 1068565, Control_c, 0, 64, 80
1, 1068571, Note_on_c, 0, 66, 36
1, 1068580, Control_c, 0, 64, 81
1, 1068595, Control_c, 0, 64, 82
1, 1068601, Note_off_c, 0, 66, 58
1, 1068610, Control_c, 0, 64, 84
1, 1068625, Control_c, 0, 64, 84
1, 1068655, Note_on_c, 0, 67, 42
1, 1068670, Control_c, 0, 64, 85
1, 1068683, Note_off_c, 0, 67, 55
1, 1068699, Control_c, 0, 64, 85
1, 1068700, Note_on_c, 0, 68, 46
1, 1068738, Note_on_c, 0, 69, 55
1, 1068741, Note_off_c, 0, 68, 61
1, 1068777, Note_off_c, 0, 69, 59
1, 1068789, Control_c, 0, 64, 83
1, 1068794, Note_on_c, 0, 70, 57
1, 1068804, Control_c, 0, 64, 79
1, 1068819, Control_c, 0, 64, 76
1, 1068825, Note_off_c, 0, 70, 66
1, 1068833, Control_c, 0, 64, 75
1, 1068837, Note_on_c, 0, 75, 65
1, 1068848, Control_c, 0, 64, 76
1, 1068863, Control_c, 0, 64, 76
1, 1068863, Note_off_c, 0, 54, 29
1, 1068865, Note_off_c, 0, 49, 18
1, 1068877, Control_c, 0, 64, 78
1, 1068892, Control_c, 0, 64, 79
1, 1068900, Note_off_c, 0, 75, 60
1, 1068907, Control_c, 0, 64, 80
1, 1068920, Note_on_c, 0, 68, 24
1, 1068922, Control_c, 0, 64, 81
1, 1068937, Control_c, 0, 64, 81
1, 1068953, Note_off_c, 0, 68, 48
1, 1068954, Note_on_c, 0, 69, 52
1, 1068974, Note_off_c, 0, 69, 63
1, 1068981, Control_c, 0, 64, 82
1, 1068981, Control_c, 0, 67, 121
1, 1068996, Note_on_c, 0, 70, 49
1, 1069011, Control_c, 0, 64, 82
1, 1069016, Note_off_c, 0, 70, 63
1, 1069025, Control_c, 0, 64, 83
1, 1069074, Note_on_c, 0, 71, 52
1, 1069098, Note_off_c, 0, 71, 62
1, 1069144, Note_on_c, 0, 72, 36
1, 1069179, Note_off_c, 0, 72, 53
1, 1069180, Note_on_c, 0, 73, 60
1, 1069181, Control_c, 0, 64, 82
1, 1069196, Control_c, 0, 64, 79
1, 1069211, Control_c, 0, 64, 74
1, 1069214, Note_off_c, 0, 73, 65
1, 1069225, Note_on_c, 0, 80, 72
1, 1069225, Control_c, 0, 64, 68
1, 1069240, Control_c, 0, 64, 66
1, 1069255, Control_c, 0, 64, 67
1, 1069269, Control_c, 0, 64, 68
1, 1069283, Note_off_c, 0, 80, 56
1, 1069284, Control_c, 0, 64, 70
1, 1069299, Control_c, 0, 64, 72
1, 1069306, Note_on_c, 0, 72, 42
1, 1069314, Control_c, 0, 64, 73
1, 1069329, Control_c, 0, 64, 75
1, 1069334, Note_off_c, 0, 72, 59
1, 1069343, Control_c, 0, 64, 77
1, 1069358, Control_c, 0, 64, 78
1, 1069358, Control_c, 0, 67, 121
1, 1069364, Note_on_c, 0, 73, 53
1, 1069373, Control_c, 0, 64, 80
1, 1069387, Note_off_c, 0, 73, 62
1, 1069388, Control_c, 0, 64, 81
1, 1069403, Control_c, 0, 64, 83
1, 1069418, Control_c, 0, 64, 84
1, 1069433, Note_on_c, 0, 74, 64
1, 1069433, Control_c, 0, 64, 86
1, 1069448, Control_c, 0, 64, 87
1, 1069460, Note_off_c, 0, 74, 66
1, 1069463, Control_c, 0, 64, 89
1, 1069478, Control_c, 0, 64, 89
1, 1069493, Control_c, 0, 64, 90
1, 1069507, Control_c, 0, 64, 90
1, 1069522, Control_c, 0, 64, 92
1, 1069537, Control_c, 0, 64, 93
1, 1069552, Control_c, 0, 64, 93
1, 1069554, Poly_aftertouch_c, 0, 75, 127
1, 1069580, Note_on_c, 0, 76, 39
1, 1069597, Poly_aftertouch_c, 0, 75, 0
1, 1069611, Note_off_c, 0, 76, 53
1, 1069621, Note_on_c, 0, 77, 59
1, 1069659, Note_off_c, 0, 77, 59
1, 1069675, Note_on_c, 0, 78, 59
1, 1069700, Control_c, 0, 64, 91
1, 1069704, Note_off_c, 0, 78, 66
1, 1069710, Note_on_c, 0, 83, 72
1, 1069715, Control_c, 0, 64, 85
1, 1069730, Control_c, 0, 64, 75
1, 1069745, Control_c, 0, 64, 65
1, 1069760, Control_c, 0, 64, 66
1, 1069774, Control_c, 0, 64, 68
1, 1069782, Note_on_c, 0, 77, 57
1, 1069789, Control_c, 0, 64, 69
1, 1069804, Control_c, 0, 64, 71
1, 1069816, Note_off_c, 0, 77, 65
1, 1069819, Control_c, 0, 64, 73
1, 1069832, Note_off_c, 0, 83, 32
1, 1069834, Control_c, 0, 64, 75
1, 1069842, Note_on_c, 0, 78, 45
1, 1069848, Control_c, 0, 64, 77
1, 1069848, Control_c, 0, 67, 120
1, 1069863, Control_c, 0, 64, 78
1, 1069866, Note_off_c, 0, 78, 60
1, 1069878, Control_c, 0, 64, 79
1, 1069892, Control_c, 0, 64, 80
1, 1069902, Note_on_c, 0, 79, 61
1, 1069907, Control_c, 0, 64, 81
1, 1069930, Control_c, 0, 64, 82
1, 1069944, Note_off_c, 0, 79, 62
1, 1069945, Control_c, 0, 64, 83
1, 1069960, Control_c, 0, 64, 84
1, 1069960, Control_c, 0, 67, 120
1, 1069974, Control_c, 0, 64, 84
1, 1069981, Note_on_c, 0, 80, 45
1, 1070017, Note_on_c, 0, 81, 55
1, 1070019, Control_c, 0, 67, 119
1, 1070034, Control_c, 0, 64, 85
1, 1070039, Note_off_c, 0, 80, 48
1, 1070048, Control_c, 0, 64, 86
1, 1070063, Control_c, 0, 64, 87
1, 1070075, Note_off_c, 0, 81, 59
1, 1070083, Note_on_c, 0, 82, 57
1, 1070107, Control_c, 0, 64, 85
1, 1070120, Note_off_c, 0, 82, 65
1, 1070122, Control_c, 0, 64, 83
1, 1070123, Note_on_c, 0, 87, 78
1, 1070137, Control_c, 0, 64, 83
1, 1070166, Control_c, 0, 64, 83
1, 1070166, Control_c, 0, 67, 119
1, 1070181, Control_c, 0, 64, 84
1, 1070196, Control_c, 0, 64, 85
1, 1070196, Control_c, 0, 67, 118
1, 1070206, Note_on_c, 0, 80, 54
1, 1070209, Note_off_c, 0, 87, 64
1, 1070211, Control_c, 0, 64, 87
1, 1070226, Control_c, 0, 64, 89
1, 1070226, Control_c, 0, 67, 118
1, 1070242, Note_off_c, 0, 80, 55
1, 1070242, Control_c, 0, 64, 90
1, 1070242, Control_c, 0, 67, 117
1, 1070257, Control_c, 0, 64, 91
1, 1070257, Control_c, 0, 67, 117
1, 1070261, Note_on_c, 0, 81, 55
1, 1070271, Control_c, 0, 64, 92
1, 1070271, Control_c, 0, 67, 115
1, 1070282, Note_off_c, 0, 81, 63
1, 1070286, Control_c, 0, 64, 92
1, 1070286, Control_c, 0, 67, 113
1, 1070301, Control_c, 0, 64, 93
1, 1070301, Control_c, 0, 67, 111
1, 1070307, Note_on_c, 0, 82, 61
1, 1070315, Control_c, 0, 64, 94
1, 1070315, Control_c, 0, 67, 109
1, 1070330, Control_c, 0, 64, 94
1, 1070330, Control_c, 0, 67, 108
1, 1070335, Note_off_c, 0, 82, 55
1, 1070345, Control_c, 0, 64, 95
1, 1070345, Control_c, 0, 67, 106
1, 1070360, Control_c, 0, 64, 95
1, 1070360, Control_c, 0, 67, 104
1, 1070375, Control_c, 0, 67, 103
1, 1070382, Note_on_c, 0, 83, 59
1, 1070390, Control_c, 0, 67, 101
1, 1070404, Control_c, 0, 64, 96
1, 1070404, Control_c, 0, 67, 99
1, 1070416, Note_off_c, 0, 83, 65
1, 1070419, Control_c, 0, 67, 98
1, 1070434, Control_c, 0, 67, 96
1, 1070446, Note_on_c, 0, 84, 57
1, 1070449, Control_c, 0, 64, 96
1, 1070449, Control_c, 0, 67, 95
1, 1070464, Control_c, 0, 67, 94
1, 1070479, Control_c, 0, 67, 92
1, 1070479, Note_off_c, 0, 84, 66
1, 1070494, Control_c, 0, 64, 96
1, 1070494, Control_c, 0, 67, 91
1, 1070499, Note_on_c, 0, 85, 65
1, 1070509, Control_c, 0, 67, 89
1, 1070523, Control_c, 0, 67, 87
1, 1070539, Control_c, 0, 67, 85
1, 1070547, Note_off_c, 0, 85, 60
1, 1070554, Control_c, 0, 67, 83
1, 1070564, Note_on_c, 0, 92, 73
1, 1070568, Control_c, 0, 67, 81
1, 1070583, Control_c, 0, 67, 78
1, 1070598, Control_c, 0, 64, 97
1, 1070598, Control_c, 0, 67, 76
1, 1070612, Note_off_c, 0, 92, 53
1, 1070613, Control_c, 0, 64, 98
1, 1070613, Control_c, 0, 67, 74
1, 1070628, Control_c, 0, 64, 99
1, 1070628, Control_c, 0, 67, 72
1, 1070642, Control_c, 0, 64, 100
1, 1070642, Control_c, 0, 67, 69
1, 1070647, Note_on_c, 0, 84, 57
1, 1070657, Control_c, 0, 64, 100
1, 1070657, Control_c, 0, 67, 66
1, 1070679, Control_c, 0, 64, 101
1, 1070679, Control_c, 0, 67, 64
1, 1070690, Note_off_c, 0, 84, 53
1, 1070694, Control_c, 0, 64, 102
1, 1070694, Control_c, 0, 67, 62
1, 1070709, Control_c, 0, 64, 103
1, 1070709, Control_c, 0, 67, 61
1, 1070723, Control_c, 0, 64, 104
1, 1070723, Control_c, 0, 67, 59
1, 1070738, Control_c, 0, 64, 105
1, 1070738, Control_c, 0, 67, 57
1, 1070742, Note_on_c, 0, 85, 52
1, 1070753, Control_c, 0, 64, 106
1, 1070753, Control_c, 0, 67, 55
1, 1070768, Note_off_c, 0, 85, 57
1, 1070768, Control_c, 0, 64, 107
1, 1070768, Control_c, 0, 67, 54
1, 1070783, Control_c, 0, 64, 107
1, 1070783, Control_c, 0, 67, 52
1, 1070798, Control_c, 0, 64, 109
1, 1070798, Control_c, 0, 67, 51
1, 1070813, Control_c, 0, 64, 110
1, 1070813, Control_c, 0, 67, 50
1, 1070820, Note_on_c, 0, 86, 58
1, 1070828, Control_c, 0, 64, 112
1, 1070828, Control_c, 0, 67, 48
1, 1070843, Control_c, 0, 64, 113
1, 1070843, Control_c, 0, 67, 46
1, 1070857, Control_c, 0, 64, 113
1, 1070857, Control_c, 0, 67, 45
1, 1070859, Note_off_c, 0, 86, 51
1, 1070872, Control_c, 0, 64, 114
1, 1070872, Control_c, 0, 67, 44
1, 1070887, Control_c, 0, 67, 42
1, 1070896, Note_on_c, 0, 87, 61
1, 1070902, Control_c, 0, 67, 41
1, 1070917, Control_c, 0, 67, 41
1, 1070929, Note_off_c, 0, 87, 58
1, 1070931, Control_c, 0, 67, 40
1, 1070946, Control_c, 0, 67, 38
1, 1070961, Control_c, 0, 67, 37
1, 1070976, Control_c, 0, 67, 37
1, 1070977, Note_on_c, 0, 88, 59
1, 1070991, Control_c, 0, 67, 36
1, 1071005, Control_c, 0, 67, 35
1, 1071017, Note_off_c, 0, 88, 61
1, 1071020, Control_c, 0, 67, 34
1, 1071035, Control_c, 0, 67, 34
1, 1071051, Control_c, 0, 67, 33
1, 1071081, Control_c, 0, 67, 33
1, 1071084, Note_on_c, 0, 89, 48
1, 1071139, Control_c, 0, 67, 32
1, 1071143, Note_off_c, 0, 89, 50
1, 1071180, Note_on_c, 0, 90, 39
1, 1071243, Control_c, 0, 64, 113
1, 1071247, Note_on_c, 0, 78, 36
1, 1071258, Control_c, 0, 64, 113
1, 1071272, Control_c, 0, 64, 112
1, 1071286, Control_c, 0, 64, 111
1, 1071301, Control_c, 0, 64, 110
1, 1071316, Control_c, 0, 64, 109
1, 1071318, Note_off_c, 0, 90, 43
1, 1071331, Control_c, 0, 64, 108
1, 1071333, Note_on_c, 0, 85, 49
1, 1071345, Control_c, 0, 64, 107
1, 1071360, Control_c, 0, 64, 106
1, 1071375, Control_c, 0, 64, 104
1, 1071390, Control_c, 0, 64, 102
1, 1071405, Control_c, 0, 64, 99
1, 1071427, Control_c, 0, 64, 95
1, 1071427, Control_c, 0, 67, 33
1, 1071442, Control_c, 0, 64, 86
1, 1071443, Note_on_c, 0, 90, 47
1, 1071457, Control_c, 0, 64, 75
1, 1071457, Control_c, 0, 67, 33
1, 1071464, Note_on_c, 0, 95, 54
1, 1071471, Control_c, 0, 64, 61
1, 1071486, Control_c, 0, 64, 49
1, 1071501, Control_c, 0, 64, 57
1, 1071516, Control_c, 0, 64, 61
1, 1071531, Control_c, 0, 64, 63
1, 1071545, Control_c, 0, 64, 64
1, 1071560, Control_c, 0, 64, 67
1, 1071575, Control_c, 0, 64, 69
1, 1071590, Control_c, 0, 64, 72
1, 1071605, Control_c, 0, 64, 74
1, 1071619, Control_c, 0, 64, 76
1, 1071622, Note_off_c, 0, 95, 63
1, 1071634, Control_c, 0, 64, 79
1, 1071642, Note_on_c, 0, 94, 62
1, 1071649, Control_c, 0, 64, 82
1, 1071664, Control_c, 0, 64, 84
1, 1071678, Control_c, 0, 64, 87
1, 1071693, Control_c, 0, 64, 89
1, 1071708, Control_c, 0, 64, 91
1, 1071723, Control_c, 0, 64, 94
1, 1071725, Note_off_c, 0, 94, 59
1, 1071738, Control_c, 0, 64, 96
1, 1071740, Note_on_c, 0, 95, 76
1, 1071752, Control_c, 0, 64, 98
1, 1071767, Control_c, 0, 64, 101
1, 1071782, Control_c, 0, 64, 103
1, 1071797, Control_c, 0, 64, 106
1, 1071805, Note_off_c, 0, 95, 60
1, 1071812, Control_c, 0, 64, 109
1, 1071826, Control_c, 0, 64, 112
1, 1071826, Control_c, 0, 67, 33
1, 1071832, Note_on_c, 0, 94, 75
1, 1071842, Control_c, 0, 64, 116
1, 1071857, Control_c, 0, 64, 122
1, 1071872, Control_c, 0, 64, 127
1, 1071886, Control_c, 0, 67, 32
1, 1071889, Note_off_c, 0, 94, 64
1, 1071896, Note_on_c, 0, 95, 85
1, 1071916, Control_c, 0, 67, 32
1, 1071958, Note_off_c, 0, 95, 54
1, 1071973, Note_on_c, 0, 94, 77
1, 1071990, Control_c, 0, 67, 31
1, 1072002, Note_off_c, 0, 90, 40
1, 1072024, Note_off_c, 0, 94, 66
1, 1072026, Note_on_c, 0, 95, 79
1, 1072050, Control_c, 0, 67, 30
1, 1072065, Control_c, 0, 67, 28
1, 1072080, Control_c, 0, 67, 27
1, 1072084, Note_off_c, 0, 78, 40
1, 1072085, Note_off_c, 0, 95, 63
1, 1072092, Note_on_c, 0, 94, 77
1, 1072092, Note_off_c, 0, 85, 42
1, 1072094, Control_c, 0, 67, 25
1, 1072109, Control_c, 0, 67, 24
1, 1072124, Control_c, 0, 67, 23
1, 1072139, Control_c, 0, 67, 21
1, 1072145, Note_off_c, 0, 94, 66
1, 1072148, Note_on_c, 0, 95, 75
1, 1072154, Control_c, 0, 67, 20
1, 1072175, Control_c, 0, 67, 19
1, 1072190, Control_c, 0, 67, 18
1, 1072205, Control_c, 0, 67, 16
1, 1072211, Note_on_c, 0, 94, 70
1, 1072212, Note_off_c, 0, 95, 65
1, 1072220, Control_c, 0, 67, 15
1, 1072235, Control_c, 0, 67, 14
1, 1072250, Control_c, 0, 67, 12
1, 1072261, Note_off_c, 0, 94, 65
1, 1072262, Note_on_c, 0, 95, 71
1, 1072265, Control_c, 0, 67, 11
1, 1072279, Control_c, 0, 67, 10
1, 1072294, Control_c, 0, 67, 8
1, 1072309, Control_c, 0, 67, 0
1, 1072312, Note_on_c, 0, 94, 62
1, 1072314, Note_off_c, 0, 95, 64
1, 1072361, Note_off_c, 0, 94, 64
1, 1072373, Note_on_c, 0, 95, 69
1, 1072394, Poly_aftertouch_c, 0, 94, 0
1, 1072406, Note_on_c, 0, 94, 55
1, 1072428, Note_off_c, 0, 95, 63
1, 1072458, Note_on_c, 0, 92, 68
1, 1072489, Note_off_c, 0, 94, 64
1, 1072499, Note_on_c, 0, 90, 76
1, 1072507, Note_off_c, 0, 92, 65
1, 1072531, Note_off_c, 0, 90, 63
1, 1072557, Note_on_c, 0, 89, 48
1, 1072581, Note_off_c, 0, 89, 56
1, 1072601, Note_on_c, 0, 87, 68
1, 1072641, Note_off_c, 0, 87, 62
1, 1072651, Note_on_c, 0, 85, 63
1, 1072670, Note_off_c, 0, 85, 65
1, 1072703, Note_on_c, 0, 83, 63
1, 1072711, Note_on_c, 0, 66, 47
1, 1072731, Note_off_c, 0, 83, 65
1, 1072767, Note_on_c, 0, 82, 56
1, 1072789, Note_off_c, 0, 82, 62
1, 1072809, Note_on_c, 0, 73, 40
1, 1072819, Note_on_c, 0, 83, 62
1, 1072828, Note_on_c, 0, 78, 44
1, 1072837, Note_off_c, 0, 83, 66
1, 1072870, Note_on_c, 0, 82, 61
1, 1072876, Note_off_c, 0, 66, 53
1, 1072879, Note_off_c, 0, 78, 45
1, 1072894, Note_off_c, 0, 82, 65
1, 1072933, Note_on_c, 0, 83, 40
1, 1072941, Note_off_c, 0, 73, 37
1, 1072959, Note_off_c, 0, 83, 58
1, 1072973, Note_on_c, 0, 82, 69
1, 1072997, Note_off_c, 0, 82, 65
1, 1073034, Note_on_c, 0, 83, 54
1, 1073054, Note_off_c, 0, 83, 63
1, 1073070, Note_on_c, 0, 82, 67
1, 1073099, Note_off_c, 0, 82, 66
1, 1073120, Note_on_c, 0, 83, 68
1, 1073136, Note_off_c, 0, 83, 68
1, 1073168, Note_on_c, 0, 82, 75
1, 1073213, Note_off_c, 0, 82, 58
1, 1073218, Note_on_c, 0, 83, 63
1, 1073248, Note_off_c, 0, 83, 61
1, 1073288, Note_on_c, 0, 82, 27
1, 1073296, Note_on_c, 0, 83, 56
1, 1073331, Note_off_c, 0, 82, 0
1, 1073338, Note_off_c, 0, 83, 63
1, 1073347, Note_on_c, 0, 82, 52
1, 1073394, Note_off_c, 0, 82, 62
1, 1073397, Note_on_c, 0, 83, 50
1, 1073451, Note_off_c, 0, 83, 53
1, 1073454, Note_on_c, 0, 82, 66
1, 1073507, Note_on_c, 0, 80, 62
1, 1073520, Note_off_c, 0, 82, 61
1, 1073549, Note_off_c, 0, 80, 57
1, 1073552, Note_on_c, 0, 78, 62
1, 1073581, Note_off_c, 0, 78, 66
1, 1073607, Note_on_c, 0, 77, 56
1, 1073630, Note_off_c, 0, 77, 60
1, 1073667, Note_on_c, 0, 75, 60
1, 1073707, Note_off_c, 0, 75, 62
1, 1073719, Note_on_c, 0, 54, 42
1, 1073722, Note_on_c, 0, 73, 56
1, 1073744, Note_off_c, 0, 73, 63
1, 1073763, Control_c, 0, 64, 114
1, 1073778, Control_c, 0, 64, 99
1, 1073785, Note_on_c, 0, 71, 46
1, 1073793, Control_c, 0, 64, 85
1, 1073794, Note_on_c, 0, 61, 44
1, 1073808, Control_c, 0, 64, 72
1, 1073811, Note_off_c, 0, 71, 58
1, 1073822, Control_c, 0, 64, 65
1, 1073837, Control_c, 0, 64, 66
1, 1073840, Note_on_c, 0, 70, 50
1, 1073852, Control_c, 0, 64, 68
1, 1073859, Note_on_c, 0, 66, 31
1, 1073863, Note_off_c, 0, 70, 61
1, 1073866, Control_c, 0, 64, 68
1, 1073881, Control_c, 0, 64, 69
1, 1073888, Note_on_c, 0, 71, 56
1, 1073896, Control_c, 0, 64, 70
1, 1073909, Note_off_c, 0, 71, 64
1, 1073911, Control_c, 0, 64, 72
1, 1073926, Control_c, 0, 64, 74
1, 1073937, Note_on_c, 0, 70, 57
1, 1073940, Control_c, 0, 64, 76
1, 1073955, Control_c, 0, 64, 78
1, 1073968, Note_off_c, 0, 70, 65
1, 1073970, Control_c, 0, 64, 79
1, 1073982, Note_on_c, 0, 71, 65
1, 1073985, Control_c, 0, 64, 81
1, 1074000, Control_c, 0, 64, 83
1, 1074008, Note_off_c, 0, 71, 68
1, 1074014, Control_c, 0, 64, 84
1, 1074029, Control_c, 0, 64, 86
1, 1074031, Note_off_c, 0, 66, 43
1, 1074043, Note_on_c, 0, 70, 58
1, 1074044, Control_c, 0, 64, 87
1, 1074059, Control_c, 0, 64, 89
1, 1074065, Note_off_c, 0, 70, 61
1, 1074074, Control_c, 0, 64, 89
1, 1074078, Note_off_c, 0, 61, 41
1, 1074084, Note_on_c, 0, 71, 63
1, 1074089, Control_c, 0, 64, 90
1, 1074101, Note_off_c, 0, 54, 46
1, 1074114, Note_off_c, 0, 71, 67
1, 1074131, Note_on_c, 0, 70, 70
1, 1074134, Control_c, 0, 67, 8
1, 1074148, Control_c, 0, 67, 8
1, 1074163, Note_off_c, 0, 70, 64
1, 1074163, Control_c, 0, 67, 9
1, 1074178, Control_c, 0, 67, 10
1, 1074187, Note_on_c, 0, 71, 59
1, 1074192, Control_c, 0, 67, 12
1, 1074205, Note_off_c, 0, 71, 65
1, 1074207, Control_c, 0, 67, 14
1, 1074222, Control_c, 0, 67, 17
1, 1074238, Control_c, 0, 67, 21
1, 1074239, Note_on_c, 0, 70, 68
1, 1074253, Control_c, 0, 67, 26
1, 1074268, Control_c, 0, 67, 31
1, 1074275, Note_off_c, 0, 70, 62
1, 1074282, Note_on_c, 0, 71, 61
1, 1074283, Control_c, 0, 67, 37
1, 1074297, Control_c, 0, 67, 42
1, 1074312, Control_c, 0, 67, 47
1, 1074327, Control_c, 0, 67, 51
1, 1074342, Control_c, 0, 67, 55
1, 1074342, Note_off_c, 0, 71, 45
1, 1074357, Control_c, 0, 67, 59
1, 1074360, Note_on_c, 0, 70, 62
1, 1074371, Control_c, 0, 67, 63
1, 1074386, Control_c, 0, 67, 67
1, 1074401, Control_c, 0, 67, 71
1, 1074404, Note_off_c, 0, 70, 54
1, 1074416, Note_on_c, 0, 68, 54
1, 1074423, Control_c, 0, 64, 89
1, 1074423, Control_c, 0, 67, 75
1, 1074438, Control_c, 0, 67, 80
1, 1074453, Control_c, 0, 64, 89
1, 1074453, Control_c, 0, 67, 85
1, 1074459, Note_off_c, 0, 68, 60
1, 1074467, Control_c, 0, 67, 89
1, 1074475, Note_on_c, 0, 66, 52
1, 1074482, Control_c, 0, 64, 88
1, 1074482, Control_c, 0, 67, 93
1, 1074497, Control_c, 0, 64, 88
1, 1074497, Control_c, 0, 67, 96
1, 1074507, Note_off_c, 0, 66, 64
1, 1074512, Control_c, 0, 64, 87
1, 1074512, Control_c, 0, 67, 100
1, 1074522, Note_on_c, 0, 65, 55
1, 1074527, Control_c, 0, 67, 103
1, 1074542, Control_c, 0, 67, 108
1, 1074557, Control_c, 0, 64, 86
1, 1074557, Control_c, 0, 67, 111
1, 1074566, Note_off_c, 0, 65, 56
1, 1074571, Control_c, 0, 64, 86
1, 1074571, Control_c, 0, 67, 114
1, 1074586, Control_c, 0, 64, 85
1, 1074586, Control_c, 0, 67, 118
1, 1074593, Note_on_c, 0, 63, 54
1, 1074601, Control_c, 0, 64, 84
1, 1074601, Control_c, 0, 67, 120
1, 1074616, Control_c, 0, 64, 84
1, 1074616, Control_c, 0, 67, 123
1, 1074631, Control_c, 0, 64, 83
1, 1074631, Control_c, 0, 67, 125
1, 1074645, Control_c, 0, 64, 82
1, 1074645, Control_c, 0, 67, 127
1, 1074652, Note_off_c, 0, 63, 59
1, 1074660, Control_c, 0, 64, 80
1, 1074667, Note_on_c, 0, 61, 49
1, 1074675, Control_c, 0, 64, 78
1, 1074689, Control_c, 0, 64, 77
1, 1074701, Note_off_c, 0, 61, 63
1, 1074704, Control_c, 0, 64, 76
1, 1074719, Control_c, 0, 64, 74
1, 1074728, Note_on_c, 0, 59, 51
1, 1074733, Note_on_c, 0, 42, 39
1, 1074734, Control_c, 0, 64, 72
1, 1074749, Control_c, 0, 64, 69
1, 1074763, Control_c, 0, 64, 63
1, 1074766, Note_off_c, 0, 59, 60
1, 1074778, Control_c, 0, 64, 57
1, 1074793, Control_c, 0, 64, 57
1, 1074806, Note_on_c, 0, 58, 50
1, 1074807, Control_c, 0, 64, 59
1, 1074811, Note_on_c, 0, 49, 36
1, 1074822, Control_c, 0, 64, 60
1, 1074837, Control_c, 0, 64, 61
1, 1074843, Note_off_c, 0, 58, 65
1, 1074852, Control_c, 0, 64, 63
1, 1074867, Control_c, 0, 64, 64
1, 1074868, Note_on_c, 0, 59, 56
1, 1074882, Control_c, 0, 64, 65
1, 1074897, Control_c, 0, 64, 66
1, 1074912, Control_c, 0, 64, 66
1, 1074921, Note_off_c, 0, 59, 55
1, 1074927, Control_c, 0, 64, 67
1, 1074941, Control_c, 0, 64, 68
1, 1074944, Note_on_c, 0, 58, 51
1, 1074971, Control_c, 0, 64, 67
1, 1074978, Note_on_c, 0, 56, 62
1, 1074978, Note_off_c, 0, 58, 64
1, 1074986, Control_c, 0, 64, 64
1, 1075001, Control_c, 0, 64, 62
1, 1075015, Control_c, 0, 64, 60
1, 1075023, Note_off_c, 0, 56, 61
1, 1075029, Control_c, 0, 64, 61
1, 1075040, Note_on_c, 0, 54, 46
1, 1075046, Control_c, 0, 64, 63
1, 1075060, Control_c, 0, 64, 64
1, 1075067, Note_off_c, 0, 54, 63
1, 1075075, Note_on_c, 0, 53, 58
1, 1075075, Control_c, 0, 64, 64
1, 1075079, Note_off_c, 0, 49, 46
1, 1075105, Control_c, 0, 64, 63
1, 1075109, Note_off_c, 0, 53, 63
1, 1075119, Control_c, 0, 64, 62
1, 1075136, Note_on_c, 0, 51, 57
1, 1075149, Control_c, 0, 64, 63
1, 1075171, Control_c, 0, 64, 64
1, 1075188, Note_off_c, 0, 42, 50
1, 1075195, Note_on_c, 0, 49, 58
1, 1075196, Note_off_c, 0, 51, 60
1, 1075237, Note_off_c, 0, 49, 65
1, 1075254, Note_on_c, 0, 47, 55
1, 1075260, Control_c, 0, 64, 64
1, 1075275, Control_c, 0, 64, 62
1, 1075290, Control_c, 0, 64, 61
1, 1075308, Note_off_c, 0, 47, 63
1, 1075317, Note_on_c, 0, 46, 57
1, 1075319, Control_c, 0, 64, 62
1, 1075334, Control_c, 0, 64, 61
1, 1075349, Control_c, 0, 64, 60
1, 1075359, Note_off_c, 0, 46, 58
1, 1075364, Control_c, 0, 64, 57
1, 1075366, Note_on_c, 0, 44, 51
1, 1075379, Control_c, 0, 64, 55
1, 1075393, Control_c, 0, 64, 54
1, 1075401, Note_off_c, 0, 44, 64
1, 1075405, Note_on_c, 0, 42, 52
1, 1075408, Control_c, 0, 64, 49
1, 1075423, Control_c, 0, 64, 37
1, 1075436, Note_off_c, 0, 42, 64
1, 1075437, Control_c, 0, 64, 28
1, 1075455, Note_on_c, 0, 41, 49
1, 1075496, Note_off_c, 0, 41, 60
1, 1075522, Note_on_c, 0, 39, 53
1, 1075556, Control_c, 0, 64, 23
1, 1075571, Control_c, 0, 64, 14
1, 1075585, Note_on_c, 0, 37, 44
1, 1075585, Control_c, 0, 64, 17
1, 1075591, Note_off_c, 0, 39, 57
1, 1075615, Control_c, 0, 64, 19
1, 1075621, Note_off_c, 0, 37, 64
1, 1075630, Control_c, 0, 64, 21
1, 1075645, Note_on_c, 0, 35, 49
1, 1075645, Control_c, 0, 64, 24
1, 1075660, Control_c, 0, 64, 27
1, 1075675, Control_c, 0, 64, 28
1, 1075688, Note_off_c, 0, 35, 62
1, 1075690, Control_c, 0, 64, 29
1, 1075705, Control_c, 0, 67, 127
1, 1075719, Control_c, 0, 67, 126
1, 1075720, Note_on_c, 0, 34, 48
1, 1075749, Control_c, 0, 64, 30
1, 1075749, Control_c, 0, 67, 126
1, 1075764, Control_c, 0, 64, 31
1, 1075764, Control_c, 0, 67, 125
1, 1075772, Note_off_c, 0, 34, 56
1, 1075778, Control_c, 0, 64, 32
1, 1075778, Control_c, 0, 67, 124
1, 1075793, Control_c, 0, 64, 33
1, 1075793, Control_c, 0, 67, 123
1, 1075800, Note_on_c, 0, 32, 34
1, 1075808, Control_c, 0, 67, 123
1, 1075823, Control_c, 0, 64, 34
1, 1075823, Control_c, 0, 67, 122
1, 1075839, Control_c, 0, 64, 35
1, 1075839, Control_c, 0, 67, 121
1, 1075853, Control_c, 0, 67, 119
1, 1075868, Control_c, 0, 67, 118
1, 1075883, Control_c, 0, 67, 118
1, 1075895, Note_off_c, 0, 32, 50
1, 1075920, Control_c, 0, 67, 117
1, 1075934, Control_c, 0, 67, 116
1, 1075949, Control_c, 0, 67, 114
1, 1075964, Control_c, 0, 67, 114
1, 1075970, Note_on_c, 0, 30, 31
1, 1075979, Control_c, 0, 67, 113
1, 1075994, Control_c, 0, 67, 113
1, 1076009, Control_c, 0, 67, 111
1, 1076023, Control_c, 0, 67, 110
1, 1076038, Control_c, 0, 67, 110
1, 1076053, Control_c, 0, 67, 109
1, 1076068, Control_c, 0, 67, 108
1, 1076083, Control_c, 0, 67, 106
1, 1076098, Control_c, 0, 64, 32
1, 1076098, Control_c, 0, 67, 104
1, 1076113, Control_c, 0, 64, 30
1, 1076113, Control_c, 0, 67, 102
1, 1076128, Control_c, 0, 64, 27
1, 1076128, Control_c, 0, 67, 102
1, 1076142, Control_c, 0, 64, 23
1, 1076142, Control_c, 0, 67, 101
1, 1076157, Control_c, 0, 64, 14
1, 1076157, Control_c, 0, 67, 101
1, 1076172, Control_c, 0, 64, 0
1, 1076172, Control_c, 0, 67, 100
1, 1076187, Control_c, 0, 67, 99
1, 1076202, Control_c, 0, 67, 98
1, 1076231, Control_c, 0, 67, 98
1, 1076260, Control_c, 0, 67, 97
1, 1076275, Control_c, 0, 67, 96
1, 1076290, Control_c, 0, 67, 95
1, 1076305, Control_c, 0, 67, 94
1, 1076320, Control_c, 0, 67, 93
1, 1076364, Control_c, 0, 67, 92
1, 1076408, Control_c, 0, 67, 92
1, 1076438, Control_c, 0, 67, 91
1, 1076453, Control_c, 0, 67, 91
1, 1076466, Note_off_c, 0, 30, 26
1, 1076468, Control_c, 0, 67, 90
1, 1076497, Control_c, 0, 67, 90
1, 1076512, Control_c, 0, 67, 89
1, 1076528, Control_c, 0, 67, 89
1, 1076542, Control_c, 0, 67, 88
1, 1076557, Control_c, 0, 67, 87
1, 1076572, Control_c, 0, 67, 87
1, 1076587, Control_c, 0, 67, 86
1, 1076632, Control_c, 0, 67, 86
1, 1076788, Control_c, 0, 67, 85
1, 1076995, Control_c, 0, 67, 86
1, 1077277, Control_c, 0, 67, 86
1, 1077291, Control_c, 0, 67, 88
1, 1077351, Control_c, 0, 67, 89
1, 1077365, Control_c, 0, 67, 89
1, 1077395, Control_c, 0, 67, 90
1, 1077448, Control_c, 0, 67, 90
1, 1077596, Control_c, 0, 67, 90
1, 1077611, Control_c, 0, 67, 89
1, 1077626, Control_c, 0, 67, 89
1, 1077640, Control_c, 0, 67, 88
1, 1077655, Control_c, 0, 67, 86
1, 1077670, Control_c, 0, 67, 85
1, 1077685, Control_c, 0, 67, 83
1, 1077700, Control_c, 0, 67, 78
1, 1077714, Control_c, 0, 67, 61
1, 1077729, Control_c, 0, 64, 11
1, 1077729, Control_c, 0, 67, 27
1, 1077744, Control_c, 0, 67, 0
1, 1077759, Control_c, 0, 64, 0
1, 1077922, Control_c, 0, 64, 45
1, 1077937, Control_c, 0, 64, 63
1, 1077937, Note_on_c, 0, 42, 90
1, 1077952, Control_c, 0, 64, 69
1, 1077967, Control_c, 0, 64, 76
1, 1077981, Control_c, 0, 64, 84
1, 1077996, Control_c, 0, 64, 94
1, 1078011, Control_c, 0, 64, 108
1, 1078018, Note_on_c, 0, 46, 84
1, 1078026, Control_c, 0, 64, 127
1, 1078053, Note_on_c, 0, 66, 76
1, 1078055, Note_on_c, 0, 49, 83
1, 1078082, Note_off_c, 0, 42, 62
1, 1078097, Note_on_c, 0, 70, 85
1, 1078125, Poly_aftertouch_c, 0, 44, 127
1, 1078130, Note_off_c, 0, 66, 61
1, 1078131, Note_on_c, 0, 73, 77
1, 1078139, Note_on_c, 0, 58, 81
1, 1078175, Poly_aftertouch_c, 0, 44, 0
1, 1078177, Note_on_c, 0, 78, 98
1, 1078186, Note_off_c, 0, 70, 64
1, 1078205, Note_off_c, 0, 58, 65
1, 1078211, Note_off_c, 0, 73, 64
1, 1078216, Note_off_c, 0, 46, 63
1, 1078226, Note_off_c, 0, 49, 64
1, 1078228, Note_off_c, 0, 78, 69
1, 1078892, Control_c, 0, 64, 114
1, 1078915, Control_c, 0, 64, 106
1, 1078930, Control_c, 0, 64, 100
1, 1078944, Control_c, 0, 64, 94
1, 1078959, Control_c, 0, 64, 90
1, 1078974, Control_c, 0, 64, 85
1, 1078988, Control_c, 0, 64, 80
1, 1079003, Control_c, 0, 64, 73
1, 1079018, Control_c, 0, 64, 68
1, 1079034, Control_c, 0, 64, 66
1, 1079049, Control_c, 0, 64, 66
1, 1079064, Control_c, 0, 64, 64
1, 1079079, Control_c, 0, 64, 63
1, 1079093, Control_c, 0, 64, 60
1, 1079108, Control_c, 0, 64, 59
1, 1079123, Control_c, 0, 64, 57
1, 1079138, Control_c, 0, 64, 52
1, 1079153, Control_c, 0, 64, 48
1, 1079167, Control_c, 0, 64, 47
1, 1079182, Control_c, 0, 64, 47
1, 1079197, Control_c, 0, 64, 45
1, 1079212, Control_c, 0, 64, 40
1, 1079227, Control_c, 0, 64, 21
1, 1079241, Control_c, 0, 64, 0
1, 1079347, Note_on_c, 0, 30, 92
1, 1079404, Note_on_c, 0, 78, 93
1, 1079419, Control_c, 0, 64, 70
1, 1079434, Control_c, 0, 64, 102
1, 1079449, Control_c, 0, 64, 127
1, 1079473, Note_on_c, 0, 82, 90
1, 1079499, Note_off_c, 0, 78, 62
1, 1079511, Note_on_c, 0, 37, 86
1, 1079519, Note_on_c, 0, 85, 99
1, 1079541, Note_off_c, 0, 82, 66
1, 1079561, Note_off_c, 0, 85, 68
1, 1079605, Note_off_c, 0, 30, 56
1, 1079692, Note_on_c, 0, 42, 98
1, 1079697, Note_on_c, 0, 90, 111
1, 1079726, Note_off_c, 0, 37, 64
1, 1082212, Poly_aftertouch_c, 0, 99, 127
1, 1082534, Poly_aftertouch_c, 0, 99, 0
1, 1082682, Note_off_c, 0, 42, 67
1, 1082698, Note_off_c, 0, 90, 68
1, 1083075, Control_c, 0, 64, 111
1, 1083090, Control_c, 0, 64, 100
1, 1083105, Control_c, 0, 64, 91
1, 1083120, Control_c, 0, 64, 83
1, 1083134, Control_c, 0, 64, 73
1, 1083149, Control_c, 0, 64, 60
1, 1083164, Control_c, 0, 64, 0
1, 1083239, End_track
0, 0, End_of_file
