0, 0, Header, 0, 1, 384
1, 0, Start_track
1, 0, Title_t, "Sonata Op. 110--Diyi Tang       "
1, 0, Text_t, "2009 Piano-e-Competition audition round"
1, 0, Text_t, "captured January 2009"
1, 0, Text_t, "http://www.piano-e-competition.com/"
1, 0, Text_t, "File processed for distribution by software from Zenph Studios, Inc., http://www.zenph.com"
1, 0, Instrument_name_t, "Yamaha Disklavier Pro Mark IV concert grand piano, model DCFIIISM4PRO"
1, 0, Sequencer_specific, 39, 67, 113, 0, 1, 0, 1, 0, 83, 111, 110, 97, 116, 97, 32, 79, 112, 46, 32, 49, 49, 48, 32, 32, 68, 105, 121, 105, 32, 84, 97, 110, 103, 32, 32, 32, 32, 32, 32, 32
1, 0, Sequencer_specific, 6, 67, 113, 0, 0, 0, 69
1, 0, System_exclusive, 21, 67, 113, 126, 21, 0, 2, 2, 0, 3, 14, 1, 4, 1, 13, 13, 10, 11, 9, 2, 7, 247
1, 0, Sequencer_specific, 5, 67, 123, 12, 2, 1
1, 0, Tempo, 512820
1, 0, Time_signature, 4, 2, 24, 8
1, 0, System_exclusive, 5, 126, 127, 9, 1, 247
1, 1, System_exclusive, 8, 67, 16, 76, 0, 0, 126, 0, 247
1, 2, System_exclusive, 8, 67, 16, 76, 8, 9, 7, 1, 247
1, 3, Control_c, 0, 0, 0
1, 3, Control_c, 1, 0, 0
1, 3, Control_c, 2, 0, 0
1, 3, Control_c, 3, 0, 0
1, 3, Control_c, 4, 0, 0
1, 3, Control_c, 5, 0, 0
1, 3, Control_c, 6, 0, 0
1, 3, Control_c, 7, 0, 0
1, 3, Control_c, 8, 0, 0
1, 3, Control_c, 9, 0, 127
1, 3, Control_c, 10, 0, 0
1, 3, Control_c, 11, 0, 0
1, 3, Control_c, 12, 0, 0
1, 3, Control_c, 13, 0, 0
1, 3, Control_c, 14, 0, 0
1, 3, Control_c, 15, 0, 0
1, 4, Control_c, 0, 32, 0
1, 4, Control_c, 1, 32, 0
1, 4, Control_c, 2, 32, 0
1, 4, Control_c, 3, 32, 0
1, 4, Control_c, 4, 32, 0
1, 4, Control_c, 5, 32, 0
1, 4, Control_c, 6, 32, 0
1, 4, Control_c, 7, 32, 0
1, 4, Control_c, 8, 32, 0
1, 4, Control_c, 9, 32, 0
1, 4, Control_c, 10, 32, 0
1, 4, Control_c, 11, 32, 0
1, 4, Control_c, 12, 32, 0
1, 4, Control_c, 13, 32, 0
1, 4, Control_c, 14, 32, 0
1, 4, Control_c, 15, 32, 0
1, 5, Program_c, 0, 0
1, 5, Program_c, 1, 0
1, 5, Program_c, 2, 0
1, 5, Program_c, 3, 0
1, 5, Program_c, 4, 0
1, 5, Program_c, 5, 0
1, 5, Program_c, 6, 0
1, 5, Program_c, 7, 0
1, 5, Program_c, 8, 0
1, 5, Program_c, 9, 0
1, 5, Program_c, 10, 0
1, 5, Program_c, 11, 0
1, 5, Program_c, 12, 0
1, 5, Program_c, 13, 0
1, 5, Program_c, 14, 0
1, 5, Program_c, 15, 0
1, 6, Control_c, 0, 7, 100
1, 6, Control_c, 1, 7, 100
1, 6, Control_c, 2, 7, 100
1, 6, Control_c, 3, 7, 100
1, 6, Control_c, 4, 7, 100
1, 6, Control_c, 5, 7, 100
1, 6, Control_c, 6, 7, 100
1, 6, Control_c, 7, 7, 100
1, 6, Control_c, 8, 7, 100
1, 6, Control_c, 9, 7, 100
1, 6, Control_c, 10, 7, 100
1, 6, Control_c, 11, 7, 100
1, 6, Control_c, 12, 7, 100
1, 6, Control_c, 13, 7, 100
1, 6, Control_c, 14, 7, 100
1, 6, Control_c, 15, 7, 100
1, 117, Control_c, 0, 64, 15
1, 229, Control_c, 0, 64, 31
1, 341, Control_c, 0, 64, 46
1, 452, Control_c, 0, 64, 63
1, 564, Control_c, 0, 64, 77
1, 676, Control_c, 0, 64, 94
1, 787, Control_c, 0, 64, 108
1, 899, Control_c, 0, 64, 127
1, 1132, Note_on_c, 0, 72, 57
1, 1136, Note_on_c, 0, 44, 31
1, 1143, Note_on_c, 0, 68, 44
1, 1159, Note_on_c, 0, 51, 28
1, 1622, Note_off_c, 0, 68, 44
1, 1753, Note_off_c, 0, 51, 42
1, 2318, Note_on_c, 0, 68, 51
1, 2352, Note_on_c, 0, 48, 26
1, 2361, Note_on_c, 0, 63, 5
1, 2366, Note_on_c, 0, 51, 13
1, 2531, Note_off_c, 0, 51, 40
1, 2538, Note_off_c, 0, 68, 36
1, 2542, Note_off_c, 0, 63, 42
1, 2555, Note_off_c, 0, 48, 40
1, 2632, Note_off_c, 0, 72, 29
1, 2730, Note_on_c, 0, 68, 59
1, 2751, Note_on_c, 0, 63, 41
1, 2762, Note_on_c, 0, 51, 35
1, 2770, Note_on_c, 0, 48, 29
1, 2893, Note_off_c, 0, 44, 31
1, 2971, Note_off_c, 0, 48, 41
1, 2973, Note_off_c, 0, 51, 41
1, 3017, Note_off_c, 0, 63, 44
1, 3022, Note_off_c, 0, 68, 33
1, 3297, Note_on_c, 0, 68, 71
1, 3313, Note_on_c, 0, 51, 46
1, 3315, Note_on_c, 0, 48, 42
1, 3317, Note_on_c, 0, 63, 47
1, 3372, Note_off_c, 0, 51, 56
1, 3562, Note_on_c, 0, 73, 66
1, 3577, Note_on_c, 0, 67, 54
1, 3583, Note_on_c, 0, 46, 45
1, 3584, Note_on_c, 0, 51, 34
1, 3585, Control_c, 0, 64, 108
1, 3586, Note_off_c, 0, 63, 34
1, 3600, Control_c, 0, 64, 86
1, 3607, Note_off_c, 0, 68, 53
1, 3611, Note_off_c, 0, 48, 37
1, 3615, Control_c, 0, 64, 73
1, 3629, Control_c, 0, 64, 65
1, 3644, Control_c, 0, 64, 57
1, 3659, Control_c, 0, 64, 45
1, 3673, Control_c, 0, 64, 29
1, 3688, Control_c, 0, 64, 16
1, 3703, Control_c, 0, 64, 0
1, 3806, Control_c, 0, 64, 19
1, 3821, Control_c, 0, 64, 31
1, 3836, Control_c, 0, 64, 41
1, 3851, Control_c, 0, 64, 51
1, 3866, Control_c, 0, 64, 61
1, 3881, Control_c, 0, 64, 67
1, 3889, Note_off_c, 0, 67, 53
1, 3896, Control_c, 0, 64, 72
1, 3911, Control_c, 0, 64, 75
1, 3918, Note_off_c, 0, 51, 43
1, 3926, Control_c, 0, 64, 78
1, 3941, Control_c, 0, 64, 83
1, 3955, Control_c, 0, 64, 89
1, 3977, Control_c, 0, 64, 95
1, 3992, Control_c, 0, 64, 101
1, 4006, Control_c, 0, 64, 107
1, 4021, Control_c, 0, 64, 111
1, 4036, Control_c, 0, 64, 119
1, 4052, Control_c, 0, 64, 127
1, 4425, Note_on_c, 0, 70, 49
1, 4447, Note_on_c, 0, 67, 41
1, 4457, Note_on_c, 0, 51, 30
1, 4468, Note_on_c, 0, 49, 30
1, 4511, Control_c, 0, 64, 95
1, 4526, Control_c, 0, 64, 81
1, 4541, Control_c, 0, 64, 72
1, 4556, Control_c, 0, 64, 66
1, 4570, Control_c, 0, 64, 60
1, 4585, Control_c, 0, 64, 53
1, 4595, Note_off_c, 0, 46, 38
1, 4600, Control_c, 0, 64, 45
1, 4615, Control_c, 0, 64, 38
1, 4629, Control_c, 0, 64, 31
1, 4641, Note_off_c, 0, 73, 41
1, 4644, Control_c, 0, 64, 24
1, 4659, Control_c, 0, 64, 13
1, 4674, Control_c, 0, 64, 0
1, 4785, Control_c, 0, 64, 11
1, 4800, Control_c, 0, 64, 28
1, 4815, Control_c, 0, 64, 38
1, 4829, Control_c, 0, 64, 50
1, 4844, Control_c, 0, 64, 59
1, 4860, Control_c, 0, 64, 65
1, 4875, Control_c, 0, 64, 70
1, 4890, Control_c, 0, 64, 74
1, 4905, Control_c, 0, 64, 78
1, 4920, Control_c, 0, 64, 83
1, 4934, Control_c, 0, 64, 90
1, 4949, Control_c, 0, 64, 98
1, 4964, Control_c, 0, 64, 109
1, 4979, Control_c, 0, 64, 127
1, 5049, Note_off_c, 0, 49, 41
1, 5130, Note_off_c, 0, 70, 35
1, 5166, Note_off_c, 0, 51, 36
1, 5565, Note_off_c, 0, 67, 37
1, 5825, Note_on_c, 0, 75, 64
1, 5836, Note_on_c, 0, 68, 45
1, 5862, Note_on_c, 0, 48, 34
1, 5862, Note_on_c, 0, 51, 29
1, 5905, Control_c, 0, 64, 101
1, 5920, Control_c, 0, 64, 85
1, 5935, Control_c, 0, 64, 74
1, 5949, Control_c, 0, 64, 66
1, 5964, Control_c, 0, 64, 58
1, 5979, Control_c, 0, 64, 48
1, 5993, Control_c, 0, 64, 36
1, 6008, Control_c, 0, 64, 29
1, 6023, Control_c, 0, 64, 25
1, 6038, Control_c, 0, 64, 22
1, 6067, Control_c, 0, 64, 24
1, 6082, Control_c, 0, 64, 31
1, 6097, Control_c, 0, 64, 39
1, 6112, Control_c, 0, 64, 49
1, 6127, Control_c, 0, 64, 58
1, 6141, Control_c, 0, 64, 65
1, 6156, Control_c, 0, 64, 74
1, 6171, Control_c, 0, 64, 79
1, 6186, Control_c, 0, 64, 83
1, 6200, Control_c, 0, 64, 86
1, 6223, Control_c, 0, 64, 92
1, 6238, Control_c, 0, 64, 101
1, 6253, Control_c, 0, 64, 119
1, 6268, Control_c, 0, 64, 127
1, 6363, Note_on_c, 0, 56, 53
1, 6524, Note_off_c, 0, 68, 29
1, 6544, Note_off_c, 0, 48, 36
1, 6725, Note_on_c, 0, 60, 63
1, 6852, Note_off_c, 0, 56, 34
1, 6858, Note_off_c, 0, 51, 43
1, 7094, Note_on_c, 0, 73, 71
1, 7106, Control_c, 0, 64, 92
1, 7108, Note_on_c, 0, 68, 53
1, 7110, Note_off_c, 0, 60, 31
1, 7112, Note_on_c, 0, 58, 47
1, 7119, Note_on_c, 0, 53, 44
1, 7121, Control_c, 0, 64, 66
1, 7136, Control_c, 0, 64, 55
1, 7151, Control_c, 0, 64, 36
1, 7166, Control_c, 0, 64, 19
1, 7180, Control_c, 0, 64, 15
1, 7210, Control_c, 0, 64, 22
1, 7220, Note_off_c, 0, 75, 34
1, 7224, Control_c, 0, 64, 34
1, 7239, Control_c, 0, 64, 47
1, 7255, Control_c, 0, 64, 60
1, 7270, Control_c, 0, 64, 75
1, 7285, Control_c, 0, 64, 127
1, 7306, Note_off_c, 0, 68, 57
1, 7309, Note_off_c, 0, 58, 58
1, 7320, Note_off_c, 0, 73, 59
1, 7384, Note_off_c, 0, 53, 39
1, 7492, Control_c, 0, 64, 88
1, 7505, Note_on_c, 0, 75, 78
1, 7507, Control_c, 0, 64, 64
1, 7512, Note_on_c, 0, 60, 63
1, 7515, Note_on_c, 0, 68, 64
1, 7518, Note_on_c, 0, 51, 60
1, 7521, Control_c, 0, 64, 49
1, 7536, Control_c, 0, 64, 29
1, 7551, Control_c, 0, 64, 19
1, 7581, Control_c, 0, 64, 20
1, 7595, Control_c, 0, 64, 29
1, 7610, Control_c, 0, 64, 39
1, 7625, Control_c, 0, 64, 51
1, 7640, Control_c, 0, 64, 63
1, 7655, Control_c, 0, 64, 79
1, 7670, Control_c, 0, 64, 115
1, 7685, Control_c, 0, 64, 127
1, 7707, Note_off_c, 0, 60, 59
1, 7711, Note_off_c, 0, 68, 57
1, 7726, Note_off_c, 0, 51, 57
1, 7764, Note_off_c, 0, 75, 58
1, 7973, Control_c, 0, 64, 88
1, 7986, Note_on_c, 0, 77, 78
1, 7988, Control_c, 0, 64, 70
1, 7999, Note_on_c, 0, 68, 61
1, 8003, Control_c, 0, 64, 60
1, 8004, Note_on_c, 0, 61, 60
1, 8010, Note_on_c, 0, 49, 54
1, 8018, Control_c, 0, 64, 46
1, 8033, Control_c, 0, 64, 28
1, 8048, Control_c, 0, 64, 0
1, 8123, Control_c, 0, 64, 13
1, 8138, Control_c, 0, 64, 28
1, 8152, Control_c, 0, 64, 38
1, 8167, Control_c, 0, 64, 48
1, 8182, Control_c, 0, 64, 58
1, 8197, Control_c, 0, 64, 66
1, 8212, Control_c, 0, 64, 75
1, 8226, Control_c, 0, 64, 80
1, 8237, Note_off_c, 0, 49, 57
1, 8241, Control_c, 0, 64, 81
1, 8243, Note_off_c, 0, 68, 37
1, 8248, Note_off_c, 0, 61, 58
1, 8256, Control_c, 0, 64, 85
1, 8270, Control_c, 0, 64, 91
1, 8285, Control_c, 0, 64, 98
1, 8293, Note_off_c, 0, 77, 50
1, 8300, Control_c, 0, 64, 103
1, 8315, Control_c, 0, 64, 104
1, 8544, Control_c, 0, 64, 103
1, 8559, Control_c, 0, 64, 103
1, 8574, Control_c, 0, 64, 102
1, 8589, Control_c, 0, 64, 101
1, 8603, Control_c, 0, 64, 100
1, 8618, Control_c, 0, 64, 99
1, 8633, Control_c, 0, 64, 97
1, 8648, Control_c, 0, 64, 94
1, 8663, Control_c, 0, 64, 91
1, 8677, Control_c, 0, 64, 87
1, 8692, Control_c, 0, 64, 82
1, 8707, Control_c, 0, 64, 77
1, 8722, Control_c, 0, 64, 71
1, 8728, Note_on_c, 0, 75, 52
1, 8737, Control_c, 0, 64, 66
1, 8743, Note_on_c, 0, 67, 45
1, 8746, Note_on_c, 0, 51, 40
1, 8752, Note_on_c, 0, 58, 26
1, 8752, Control_c, 0, 64, 61
1, 8767, Control_c, 0, 64, 55
1, 8782, Control_c, 0, 64, 47
1, 8796, Control_c, 0, 64, 40
1, 8811, Control_c, 0, 64, 34
1, 8826, Control_c, 0, 64, 28
1, 8841, Control_c, 0, 64, 15
1, 8856, Control_c, 0, 64, 0
1, 9019, Control_c, 0, 64, 25
1, 9034, Control_c, 0, 64, 35
1, 9049, Control_c, 0, 64, 45
1, 9064, Control_c, 0, 64, 54
1, 9079, Control_c, 0, 64, 59
1, 9093, Control_c, 0, 64, 62
1, 9108, Control_c, 0, 64, 64
1, 9123, Control_c, 0, 64, 66
1, 9127, Note_off_c, 0, 58, 35
1, 9138, Control_c, 0, 64, 69
1, 9151, Note_off_c, 0, 51, 40
1, 9153, Control_c, 0, 64, 72
1, 9167, Control_c, 0, 64, 75
1, 9182, Control_c, 0, 64, 77
1, 9197, Control_c, 0, 64, 79
1, 9219, Control_c, 0, 64, 80
1, 9234, Control_c, 0, 64, 81
1, 9249, Control_c, 0, 64, 83
1, 9264, Control_c, 0, 64, 85
1, 9279, Control_c, 0, 64, 87
1, 9293, Control_c, 0, 64, 88
1, 9308, Control_c, 0, 64, 90
1, 9323, Control_c, 0, 64, 94
1, 9338, Control_c, 0, 64, 97
1, 9353, Control_c, 0, 64, 100
1, 9367, Control_c, 0, 64, 103
1, 9382, Control_c, 0, 64, 106
1, 9397, Control_c, 0, 64, 109
1, 9412, Control_c, 0, 64, 114
1, 9422, Note_off_c, 0, 67, 33
1, 9426, Control_c, 0, 64, 117
1, 9435, Note_on_c, 0, 74, 45
1, 9441, Control_c, 0, 64, 122
1, 9455, Control_c, 0, 64, 127
1, 9578, Note_off_c, 0, 75, 25
1, 9679, Control_c, 0, 64, 115
1, 9694, Control_c, 0, 64, 107
1, 9694, Note_off_c, 0, 74, 36
1, 9709, Control_c, 0, 64, 100
1, 9723, Control_c, 0, 64, 92
1, 9738, Control_c, 0, 64, 82
1, 9738, Note_on_c, 0, 67, 34
1, 9741, Note_on_c, 0, 73, 38
1, 9747, Note_on_c, 0, 58, 29
1, 9753, Control_c, 0, 64, 73
1, 9761, Note_on_c, 0, 51, 28
1, 9768, Control_c, 0, 64, 65
1, 9783, Control_c, 0, 64, 54
1, 9797, Control_c, 0, 64, 39
1, 9812, Control_c, 0, 64, 28
1, 9827, Control_c, 0, 64, 24
1, 9841, Control_c, 0, 64, 20
1, 9856, Control_c, 0, 64, 17
1, 9886, Control_c, 0, 64, 21
1, 9901, Control_c, 0, 64, 30
1, 9915, Control_c, 0, 64, 40
1, 9930, Control_c, 0, 64, 49
1, 9939, Note_off_c, 0, 73, 44
1, 9945, Control_c, 0, 64, 58
1, 9967, Control_c, 0, 64, 64
1, 9982, Control_c, 0, 64, 70
1, 9983, Note_on_c, 0, 75, 41
1, 9987, Note_off_c, 0, 67, 39
1, 9997, Control_c, 0, 64, 74
1, 10012, Control_c, 0, 64, 78
1, 10027, Control_c, 0, 64, 85
1, 10041, Note_off_c, 0, 75, 47
1, 10041, Control_c, 0, 64, 95
1, 10056, Control_c, 0, 64, 111
1, 10071, Control_c, 0, 64, 127
1, 10096, Note_on_c, 0, 73, 44
1, 10149, Note_off_c, 0, 73, 61
1, 10195, Note_on_c, 0, 75, 50
1, 10243, Note_off_c, 0, 75, 58
1, 10299, Note_on_c, 0, 73, 43
1, 10329, Note_off_c, 0, 73, 58
1, 10340, Note_off_c, 0, 51, 38
1, 10383, Note_on_c, 0, 75, 38
1, 10421, Note_off_c, 0, 75, 50
1, 10460, Note_on_c, 0, 73, 40
1, 10497, Note_off_c, 0, 73, 58
1, 10529, Note_on_c, 0, 75, 53
1, 10576, Note_off_c, 0, 75, 60
1, 10608, Note_on_c, 0, 73, 48
1, 10645, Note_off_c, 0, 73, 59
1, 10695, Note_on_c, 0, 75, 46
1, 10737, Note_off_c, 0, 75, 62
1, 10753, Note_on_c, 0, 73, 55
1, 10797, Note_off_c, 0, 73, 62
1, 10835, Note_on_c, 0, 75, 61
1, 10841, Note_off_c, 0, 58, 29
1, 10876, Note_off_c, 0, 75, 61
1, 10908, Note_on_c, 0, 73, 58
1, 10940, Note_off_c, 0, 73, 64
1, 10976, Note_on_c, 0, 75, 56
1, 11015, Note_off_c, 0, 75, 59
1, 11038, Note_on_c, 0, 73, 61
1, 11071, Note_off_c, 0, 73, 64
1, 11113, Note_on_c, 0, 75, 61
1, 11165, Note_off_c, 0, 75, 61
1, 11178, Note_on_c, 0, 73, 61
1, 11215, Note_off_c, 0, 73, 59
1, 11253, Note_on_c, 0, 75, 56
1, 11311, Note_off_c, 0, 75, 61
1, 11327, Note_on_c, 0, 73, 58
1, 11356, Note_off_c, 0, 73, 65
1, 11384, Note_on_c, 0, 75, 60
1, 11430, Note_off_c, 0, 75, 61
1, 11447, Note_on_c, 0, 73, 56
1, 11477, Note_off_c, 0, 73, 66
1, 11502, Note_on_c, 0, 75, 50
1, 11553, Note_on_c, 0, 73, 64
1, 11584, Note_off_c, 0, 75, 58
1, 11669, Note_off_c, 0, 73, 63
1, 11703, Note_on_c, 0, 72, 65
1, 11746, Control_c, 0, 64, 119
1, 11761, Control_c, 0, 64, 98
1, 11776, Control_c, 0, 64, 87
1, 11791, Control_c, 0, 64, 78
1, 11806, Control_c, 0, 64, 72
1, 11820, Control_c, 0, 64, 68
1, 11822, Note_on_c, 0, 73, 70
1, 11835, Control_c, 0, 64, 64
1, 11850, Control_c, 0, 64, 62
1, 11865, Control_c, 0, 64, 60
1, 11880, Control_c, 0, 64, 58
1, 11894, Control_c, 0, 64, 56
1, 11909, Control_c, 0, 64, 55
1, 11918, Note_off_c, 0, 73, 59
1, 11919, Note_on_c, 0, 75, 68
1, 11924, Control_c, 0, 64, 54
1, 11938, Control_c, 0, 64, 53
1, 11953, Control_c, 0, 64, 51
1, 11968, Control_c, 0, 64, 50
1, 11983, Control_c, 0, 64, 48
1, 11998, Control_c, 0, 64, 47
1, 12012, Note_on_c, 0, 73, 74
1, 12013, Control_c, 0, 64, 46
1, 12014, Note_off_c, 0, 75, 59
1, 12028, Control_c, 0, 64, 44
1, 12043, Control_c, 0, 64, 43
1, 12058, Control_c, 0, 64, 41
1, 12073, Control_c, 0, 64, 39
1, 12088, Control_c, 0, 64, 37
1, 12103, Control_c, 0, 64, 34
1, 12105, Note_on_c, 0, 75, 74
1, 12117, Control_c, 0, 64, 31
1, 12119, Note_off_c, 0, 72, 43
1, 12132, Control_c, 0, 64, 26
1, 12147, Control_c, 0, 64, 22
1, 12162, Control_c, 0, 64, 16
1, 12177, Control_c, 0, 64, 0
1, 12308, Note_off_c, 0, 73, 31
1, 12345, Note_on_c, 0, 77, 68
1, 12466, Note_off_c, 0, 75, 59
1, 12766, Note_on_c, 0, 75, 51
1, 12868, Note_off_c, 0, 77, 35
1, 12880, Control_c, 0, 64, 15
1, 12895, Control_c, 0, 64, 18
1, 12910, Control_c, 0, 64, 20
1, 12925, Control_c, 0, 64, 22
1, 12940, Control_c, 0, 64, 27
1, 12962, Control_c, 0, 64, 32
1, 12977, Control_c, 0, 64, 37
1, 12991, Control_c, 0, 64, 41
1, 13006, Control_c, 0, 64, 46
1, 13021, Control_c, 0, 64, 52
1, 13032, Note_on_c, 0, 73, 49
1, 13036, Control_c, 0, 64, 57
1, 13051, Control_c, 0, 64, 60
1, 13065, Control_c, 0, 64, 61
1, 13080, Control_c, 0, 64, 62
1, 13107, Note_off_c, 0, 75, 25
1, 13110, Control_c, 0, 64, 63
1, 13125, Control_c, 0, 64, 63
1, 13259, Control_c, 0, 64, 63
1, 13274, Control_c, 0, 64, 62
1, 13289, Control_c, 0, 64, 61
1, 13304, Control_c, 0, 64, 59
1, 13319, Control_c, 0, 64, 55
1, 13333, Control_c, 0, 64, 46
1, 13344, Note_on_c, 0, 56, 36
1, 13344, Note_on_c, 0, 72, 41
1, 13348, Control_c, 0, 64, 37
1, 13362, Note_off_c, 0, 73, 42
1, 13363, Control_c, 0, 64, 28
1, 13378, Control_c, 0, 64, 20
1, 13392, Control_c, 0, 64, 12
1, 13407, Control_c, 0, 64, 0
1, 13466, Control_c, 0, 64, 9
1, 13481, Control_c, 0, 64, 24
1, 13496, Control_c, 0, 64, 33
1, 13510, Control_c, 0, 64, 43
1, 13525, Control_c, 0, 64, 51
1, 13540, Control_c, 0, 64, 59
1, 13555, Control_c, 0, 64, 64
1, 13567, Note_off_c, 0, 56, 40
1, 13570, Control_c, 0, 64, 67
1, 13584, Control_c, 0, 64, 70
1, 13599, Control_c, 0, 64, 73
1, 13610, Note_on_c, 0, 63, 31
1, 13614, Control_c, 0, 64, 79
1, 13616, Note_on_c, 0, 60, 32
1, 13630, Control_c, 0, 64, 86
1, 13645, Control_c, 0, 64, 93
1, 13660, Control_c, 0, 64, 101
1, 13675, Control_c, 0, 64, 113
1, 13676, Note_off_c, 0, 60, 43
1, 13682, Note_off_c, 0, 63, 43
1, 13689, Control_c, 0, 64, 127
1, 13834, Note_on_c, 0, 63, 10
1, 13896, Note_off_c, 0, 63, 45
1, 13954, Poly_aftertouch_c, 0, 60, 0
1, 13971, Note_on_c, 0, 63, 38
1, 13974, Note_on_c, 0, 60, 20
1, 14052, Note_off_c, 0, 60, 36
1, 14091, Note_off_c, 0, 63, 31
1, 14165, Note_on_c, 0, 56, 40
1, 14272, Note_off_c, 0, 56, 32
1, 14335, Note_on_c, 0, 63, 32
1, 14340, Note_on_c, 0, 60, 33
1, 14386, Note_off_c, 0, 60, 46
1, 14407, Note_off_c, 0, 63, 43
1, 14506, Note_on_c, 0, 75, 60
1, 14541, Note_on_c, 0, 60, 19
1, 14573, Poly_aftertouch_c, 0, 63, 127
1, 14575, Note_off_c, 0, 60, 52
1, 14647, Poly_aftertouch_c, 0, 63, 0
1, 14668, Note_on_c, 0, 63, 24
1, 14699, Note_on_c, 0, 60, 32
1, 14743, Note_off_c, 0, 60, 46
1, 14836, Note_on_c, 0, 56, 41
1, 14836, Note_off_c, 0, 63, 42
1, 14944, Note_off_c, 0, 56, 36
1, 15010, Note_on_c, 0, 63, 43
1, 15018, Note_on_c, 0, 60, 39
1, 15068, Note_off_c, 0, 60, 43
1, 15096, Note_off_c, 0, 63, 39
1, 15173, Note_on_c, 0, 80, 71
1, 15214, Note_on_c, 0, 63, 36
1, 15227, Note_on_c, 0, 60, 22
1, 15259, Note_off_c, 0, 60, 53
1, 15265, Note_off_c, 0, 63, 47
1, 15340, Note_off_c, 0, 72, 44
1, 15357, Note_on_c, 0, 63, 48
1, 15364, Note_on_c, 0, 60, 42
1, 15394, Note_off_c, 0, 60, 54
1, 15444, Note_off_c, 0, 80, 56
1, 15467, Note_off_c, 0, 63, 35
1, 15592, Note_on_c, 0, 80, 67
1, 15594, Control_c, 0, 64, 95
1, 15609, Control_c, 0, 64, 78
1, 15620, Note_on_c, 0, 58, 37
1, 15624, Control_c, 0, 64, 65
1, 15639, Control_c, 0, 64, 56
1, 15653, Control_c, 0, 64, 41
1, 15668, Control_c, 0, 64, 23
1, 15682, Note_off_c, 0, 75, 50
1, 15683, Control_c, 0, 64, 0
1, 15772, Control_c, 0, 64, 8
1, 15774, Note_off_c, 0, 58, 27
1, 15787, Control_c, 0, 64, 27
1, 15802, Control_c, 0, 64, 40
1, 15803, Note_on_c, 0, 63, 38
1, 15812, Note_on_c, 0, 61, 32
1, 15817, Control_c, 0, 64, 51
1, 15831, Control_c, 0, 64, 60
1, 15846, Control_c, 0, 64, 67
1, 15851, Note_off_c, 0, 61, 51
1, 15861, Control_c, 0, 64, 74
1, 15873, Note_off_c, 0, 63, 42
1, 15876, Control_c, 0, 64, 78
1, 15891, Control_c, 0, 64, 82
1, 15905, Control_c, 0, 64, 90
1, 15920, Control_c, 0, 64, 101
1, 15935, Control_c, 0, 64, 127
1, 15983, Note_on_c, 0, 61, 21
1, 15986, Note_on_c, 0, 63, 42
1, 16025, Note_off_c, 0, 61, 52
1, 16028, Note_off_c, 0, 63, 49
1, 16149, Note_on_c, 0, 63, 31
1, 16154, Note_on_c, 0, 61, 10
1, 16209, Note_off_c, 0, 61, 46
1, 16246, Note_off_c, 0, 63, 32
1, 16309, Note_on_c, 0, 79, 59
1, 16329, Note_on_c, 0, 58, 31
1, 16401, Note_off_c, 0, 58, 36
1, 16462, Note_off_c, 0, 80, 38
1, 16486, Note_on_c, 0, 61, 38
1, 16496, Note_on_c, 0, 63, 34
1, 16534, Note_off_c, 0, 61, 46
1, 16539, Note_off_c, 0, 63, 50
1, 16666, Note_on_c, 0, 63, 36
1, 16669, Note_on_c, 0, 61, 31
1, 16717, Note_off_c, 0, 61, 49
1, 16728, Note_off_c, 0, 63, 46
1, 16836, Note_on_c, 0, 61, 32
1, 16851, Note_on_c, 0, 63, 39
1, 16909, Note_off_c, 0, 61, 40
1, 16973, Note_off_c, 0, 63, 26
1, 17015, Note_on_c, 0, 58, 43
1, 17189, Note_on_c, 0, 61, 39
1, 17189, Note_on_c, 0, 63, 44
1, 17249, Note_off_c, 0, 61, 43
1, 17254, Note_off_c, 0, 63, 43
1, 17355, Note_on_c, 0, 63, 45
1, 17373, Note_on_c, 0, 61, 29
1, 17411, Note_off_c, 0, 61, 52
1, 17412, Note_off_c, 0, 63, 46
1, 17453, Note_off_c, 0, 58, 16
1, 17519, Note_on_c, 0, 61, 43
1, 17522, Note_on_c, 0, 63, 56
1, 17559, Note_off_c, 0, 61, 64
1, 17567, Note_off_c, 0, 63, 54
1, 17748, Note_on_c, 0, 82, 71
1, 17789, Note_on_c, 0, 61, 43
1, 17796, Control_c, 0, 64, 101
1, 17811, Control_c, 0, 64, 74
1, 17826, Control_c, 0, 64, 62
1, 17841, Control_c, 0, 64, 49
1, 17855, Control_c, 0, 64, 34
1, 17870, Control_c, 0, 64, 25
1, 17885, Control_c, 0, 64, 22
1, 17900, Control_c, 0, 64, 21
1, 17909, Note_off_c, 0, 79, 33
1, 17930, Control_c, 0, 64, 23
1, 17945, Control_c, 0, 64, 30
1, 17952, Note_on_c, 0, 70, 48
1, 17960, Control_c, 0, 64, 38
1, 17969, Note_on_c, 0, 63, 40
1, 17970, Note_on_c, 0, 67, 38
1, 17975, Control_c, 0, 64, 48
1, 17989, Control_c, 0, 64, 59
1, 18004, Control_c, 0, 64, 68
1, 18011, Note_off_c, 0, 70, 44
1, 18019, Control_c, 0, 64, 77
1, 18025, Note_off_c, 0, 61, 41
1, 18031, Note_off_c, 0, 67, 41
1, 18034, Control_c, 0, 64, 83
1, 18043, Note_off_c, 0, 63, 41
1, 18049, Control_c, 0, 64, 89
1, 18063, Control_c, 0, 64, 99
1, 18078, Control_c, 0, 64, 119
1, 18093, Control_c, 0, 64, 127
1, 18147, Note_on_c, 0, 70, 40
1, 18157, Note_on_c, 0, 63, 29
1, 18178, Note_off_c, 0, 70, 51
1, 18216, Poly_aftertouch_c, 0, 67, 127
1, 18222, Note_off_c, 0, 63, 44
1, 18267, Poly_aftertouch_c, 0, 67, 0
1, 18291, Note_on_c, 0, 70, 45
1, 18297, Note_on_c, 0, 63, 37
1, 18303, Poly_aftertouch_c, 0, 67, 127
1, 18315, Note_on_c, 0, 67, 3
1, 18368, Note_off_c, 0, 70, 46
1, 18413, Note_off_c, 0, 63, 0
1, 18422, Note_off_c, 0, 67, 38
1, 18447, Poly_aftertouch_c, 0, 63, 0
1, 18470, Note_on_c, 0, 61, 50
1, 18648, Note_on_c, 0, 70, 34
1, 18651, Note_on_c, 0, 63, 36
1, 18652, Note_on_c, 0, 67, 36
1, 18669, Note_off_c, 0, 61, 35
1, 18699, Note_off_c, 0, 70, 45
1, 18706, Note_off_c, 0, 67, 43
1, 18720, Note_off_c, 0, 63, 40
1, 18801, Note_on_c, 0, 79, 70
1, 18830, Note_on_c, 0, 70, 38
1, 18833, Note_on_c, 0, 63, 36
1, 18853, Note_on_c, 0, 67, 22
1, 18877, Note_off_c, 0, 70, 45
1, 18896, Note_off_c, 0, 67, 50
1, 18943, Note_off_c, 0, 63, 0
1, 18970, Note_on_c, 0, 63, 30
1, 18985, Note_on_c, 0, 70, 39
1, 19021, Note_on_c, 0, 67, 25
1, 19039, Note_off_c, 0, 70, 41
1, 19084, Note_off_c, 0, 67, 42
1, 19094, Poly_aftertouch_c, 0, 72, 127
1, 19137, Note_off_c, 0, 63, 43
1, 19144, Note_on_c, 0, 61, 48
1, 19197, Poly_aftertouch_c, 0, 74, 127
1, 19322, Note_on_c, 0, 70, 43
1, 19325, Note_on_c, 0, 63, 39
1, 19348, Note_on_c, 0, 67, 26
1, 19352, Note_off_c, 0, 61, 36
1, 19382, Note_off_c, 0, 70, 43
1, 19398, Note_off_c, 0, 67, 47
1, 19459, Note_off_c, 0, 63, 0
1, 19483, Note_on_c, 0, 75, 68
1, 19488, Note_on_c, 0, 63, 18
1, 19520, Note_on_c, 0, 70, 29
1, 19543, Note_on_c, 0, 67, 15
1, 19553, Note_off_c, 0, 70, 53
1, 19600, Note_off_c, 0, 67, 43
1, 19644, Note_on_c, 0, 70, 53
1, 19659, Note_on_c, 0, 67, 35
1, 19691, Note_off_c, 0, 70, 47
1, 19693, Poly_aftertouch_c, 0, 74, 0
1, 19704, Note_off_c, 0, 75, 47
1, 19726, Note_off_c, 0, 67, 54
1, 19829, Poly_aftertouch_c, 0, 72, 0
1, 19831, Note_off_c, 0, 63, 41
1, 19875, Note_on_c, 0, 75, 62
1, 19894, Control_c, 0, 64, 82
1, 19909, Control_c, 0, 64, 65
1, 19909, Note_on_c, 0, 60, 38
1, 19924, Control_c, 0, 64, 50
1, 19939, Control_c, 0, 64, 26
1, 19954, Control_c, 0, 64, 0
1, 19962, Note_off_c, 0, 79, 48
1, 20014, Note_off_c, 0, 82, 28
1, 20044, Control_c, 0, 64, 20
1, 20058, Control_c, 0, 64, 34
1, 20064, Note_on_c, 0, 63, 43
1, 20065, Note_on_c, 0, 68, 44
1, 20073, Control_c, 0, 64, 46
1, 20088, Control_c, 0, 64, 57
1, 20103, Control_c, 0, 64, 66
1, 20118, Control_c, 0, 64, 79
1, 20128, Note_off_c, 0, 63, 61
1, 20128, Note_off_c, 0, 68, 45
1, 20132, Note_off_c, 0, 60, 29
1, 20133, Control_c, 0, 64, 88
1, 20148, Control_c, 0, 64, 96
1, 20163, Control_c, 0, 64, 119
1, 20177, Control_c, 0, 64, 127
1, 20240, Note_on_c, 0, 68, 46
1, 20261, Note_on_c, 0, 63, 36
1, 20288, Note_off_c, 0, 68, 44
1, 20305, Note_off_c, 0, 63, 49
1, 20416, Note_on_c, 0, 68, 23
1, 20419, Note_on_c, 0, 63, 37
1, 20483, Note_off_c, 0, 68, 41
1, 20491, Note_off_c, 0, 63, 41
1, 20590, Note_on_c, 0, 80, 66
1, 20622, Note_on_c, 0, 60, 31
1, 20753, Note_on_c, 0, 68, 46
1, 20768, Note_on_c, 0, 63, 39
1, 20814, Note_off_c, 0, 68, 49
1, 20833, Note_off_c, 0, 63, 45
1, 20894, Note_off_c, 0, 60, 31
1, 20941, Note_on_c, 0, 68, 43
1, 20948, Note_on_c, 0, 63, 42
1, 20984, Note_off_c, 0, 68, 46
1, 20990, Note_off_c, 0, 63, 48
1, 21099, Note_on_c, 0, 68, 44
1, 21102, Note_on_c, 0, 63, 46
1, 21105, Note_off_c, 0, 75, 11
1, 21275, Note_off_c, 0, 63, 34
1, 21281, Note_on_c, 0, 60, 52
1, 21294, Note_off_c, 0, 68, 19
1, 21441, Note_on_c, 0, 68, 48
1, 21444, Note_on_c, 0, 63, 47
1, 21507, Note_off_c, 0, 68, 53
1, 21508, Note_off_c, 0, 63, 58
1, 21558, Note_off_c, 0, 80, 32
1, 21611, Note_on_c, 0, 68, 50
1, 21617, Note_on_c, 0, 63, 47
1, 21663, Note_off_c, 0, 68, 50
1, 21672, Note_off_c, 0, 63, 59
1, 21764, Note_on_c, 0, 63, 52
1, 21768, Note_on_c, 0, 68, 56
1, 21797, Note_off_c, 0, 60, 41
1, 21819, Note_off_c, 0, 63, 63
1, 21831, Note_off_c, 0, 68, 53
1, 22011, Note_on_c, 0, 80, 70
1, 22023, Note_on_c, 0, 66, 51
1, 22067, Control_c, 0, 64, 77
1, 22081, Control_c, 0, 64, 61
1, 22096, Control_c, 0, 64, 44
1, 22111, Control_c, 0, 64, 23
1, 22126, Control_c, 0, 64, 14
1, 22155, Control_c, 0, 64, 14
1, 22170, Control_c, 0, 64, 18
1, 22184, Control_c, 0, 64, 27
1, 22199, Control_c, 0, 64, 37
1, 22214, Note_on_c, 0, 75, 48
1, 22214, Control_c, 0, 64, 51
1, 22218, Note_on_c, 0, 68, 46
1, 22225, Note_on_c, 0, 72, 46
1, 22228, Control_c, 0, 64, 61
1, 22243, Control_c, 0, 64, 71
1, 22258, Control_c, 0, 64, 88
1, 22264, Note_off_c, 0, 75, 56
1, 22273, Control_c, 0, 64, 107
1, 22276, Note_off_c, 0, 66, 36
1, 22279, Note_off_c, 0, 68, 52
1, 22279, Note_off_c, 0, 72, 52
1, 22288, Control_c, 0, 64, 127
1, 22387, Note_on_c, 0, 75, 48
1, 22394, Note_on_c, 0, 68, 45
1, 22406, Note_on_c, 0, 72, 41
1, 22426, Note_off_c, 0, 75, 47
1, 22437, Note_off_c, 0, 72, 53
1, 22444, Note_off_c, 0, 68, 57
1, 22545, Note_on_c, 0, 75, 51
1, 22547, Note_on_c, 0, 72, 44
1, 22557, Note_on_c, 0, 68, 52
1, 22636, Poly_aftertouch_c, 0, 88, 127
1, 22657, Note_off_c, 0, 75, 31
1, 22673, Note_off_c, 0, 72, 28
1, 22681, Note_off_c, 0, 68, 35
1, 22697, Note_off_c, 0, 80, 38
1, 22698, Poly_aftertouch_c, 0, 81, 127
1, 22723, Note_on_c, 0, 66, 59
1, 22838, Poly_aftertouch_c, 0, 89, 127
1, 22877, Note_on_c, 0, 75, 52
1, 22887, Note_on_c, 0, 68, 50
1, 22892, Note_on_c, 0, 72, 47
1, 22931, Note_off_c, 0, 66, 35
1, 22933, Note_off_c, 0, 75, 49
1, 22938, Note_off_c, 0, 72, 56
1, 22949, Note_off_c, 0, 68, 53
1, 23041, Note_on_c, 0, 84, 74
1, 23066, Note_on_c, 0, 75, 47
1, 23076, Note_on_c, 0, 68, 46
1, 23083, Note_on_c, 0, 72, 32
1, 23099, Note_off_c, 0, 75, 50
1, 23116, Note_off_c, 0, 72, 52
1, 23129, Note_off_c, 0, 68, 43
1, 23206, Note_on_c, 0, 75, 53
1, 23207, Note_on_c, 0, 72, 49
1, 23214, Note_on_c, 0, 68, 54
1, 23302, Poly_aftertouch_c, 0, 88, 0
1, 23361, Poly_aftertouch_c, 0, 81, 0
1, 23370, Note_on_c, 0, 66, 66
1, 23377, Note_off_c, 0, 72, 51
1, 23401, Note_off_c, 0, 68, 31
1, 23430, Note_off_c, 0, 75, 38
1, 23498, Poly_aftertouch_c, 0, 89, 0
1, 23539, Note_on_c, 0, 68, 57
1, 23541, Note_on_c, 0, 75, 59
1, 23552, Note_on_c, 0, 72, 48
1, 23588, Note_off_c, 0, 66, 52
1, 23603, Note_off_c, 0, 72, 53
1, 23603, Note_off_c, 0, 75, 51
1, 23628, Note_off_c, 0, 68, 55
1, 23700, Note_on_c, 0, 87, 86
1, 23720, Note_on_c, 0, 75, 50
1, 23723, Note_on_c, 0, 68, 47
1, 23749, Note_on_c, 0, 72, 37
1, 23761, Note_off_c, 0, 75, 50
1, 23777, Note_off_c, 0, 72, 55
1, 23794, Note_off_c, 0, 68, 48
1, 23862, Note_on_c, 0, 72, 55
1, 23864, Note_on_c, 0, 75, 61
1, 23871, Note_on_c, 0, 68, 43
1, 23948, Note_off_c, 0, 75, 46
1, 23951, Note_off_c, 0, 72, 52
1, 23967, Note_off_c, 0, 87, 59
1, 24094, Note_on_c, 0, 87, 76
1, 24112, Note_off_c, 0, 68, 38
1, 24136, Note_on_c, 0, 65, 43
1, 24157, Control_c, 0, 64, 115
1, 24172, Control_c, 0, 64, 78
1, 24194, Control_c, 0, 64, 63
1, 24209, Control_c, 0, 64, 48
1, 24223, Control_c, 0, 64, 19
1, 24238, Control_c, 0, 64, 0
1, 24241, Note_off_c, 0, 84, 36
1, 24310, Note_on_c, 0, 68, 52
1, 24315, Note_on_c, 0, 73, 55
1, 24327, Control_c, 0, 64, 32
1, 24342, Control_c, 0, 64, 45
1, 24357, Control_c, 0, 64, 57
1, 24366, Note_off_c, 0, 73, 53
1, 24372, Control_c, 0, 64, 65
1, 24383, Note_off_c, 0, 68, 54
1, 24387, Control_c, 0, 64, 73
1, 24402, Control_c, 0, 64, 85
1, 24416, Control_c, 0, 64, 108
1, 24431, Control_c, 0, 64, 127
1, 24477, Note_on_c, 0, 73, 57
1, 24491, Note_on_c, 0, 68, 49
1, 24524, Note_off_c, 0, 73, 56
1, 24536, Note_off_c, 0, 68, 59
1, 24578, Note_off_c, 0, 65, 17
1, 24633, Note_on_c, 0, 73, 59
1, 24634, Note_on_c, 0, 68, 57
1, 24799, Note_on_c, 0, 65, 70
1, 24854, Note_off_c, 0, 68, 36
1, 24868, Note_off_c, 0, 73, 45
1, 24959, Note_on_c, 0, 73, 71
1, 24960, Note_on_c, 0, 68, 66
1, 25035, Note_off_c, 0, 73, 53
1, 25038, Note_off_c, 0, 68, 58
1, 25120, Note_on_c, 0, 85, 79
1, 25146, Note_on_c, 0, 73, 59
1, 25150, Note_on_c, 0, 68, 61
1, 25186, Note_off_c, 0, 73, 58
1, 25188, Note_off_c, 0, 68, 52
1, 25203, Note_off_c, 0, 87, 62
1, 25282, Note_off_c, 0, 65, 63
1, 25283, Note_on_c, 0, 73, 71
1, 25290, Note_on_c, 0, 68, 75
1, 25455, Note_on_c, 0, 87, 90
1, 25476, Note_on_c, 0, 63, 65
1, 25476, Control_c, 0, 64, 73
1, 25490, Control_c, 0, 64, 55
1, 25501, Note_off_c, 0, 68, 35
1, 25505, Control_c, 0, 64, 27
1, 25520, Control_c, 0, 64, 0
1, 25543, Note_off_c, 0, 73, 36
1, 25579, Note_off_c, 0, 85, 64
1, 25594, Control_c, 0, 64, 30
1, 25610, Control_c, 0, 64, 45
1, 25625, Control_c, 0, 64, 60
1, 25632, Note_on_c, 0, 68, 64
1, 25635, Note_on_c, 0, 72, 71
1, 25640, Control_c, 0, 64, 75
1, 25655, Control_c, 0, 64, 117
1, 25669, Control_c, 0, 64, 127
1, 25670, Note_off_c, 0, 63, 62
1, 25698, Poly_aftertouch_c, 0, 86, 127
1, 25701, Note_off_c, 0, 87, 55
1, 25737, Poly_aftertouch_c, 0, 84, 127
1, 25770, Note_off_c, 0, 72, 37
1, 25782, Poly_aftertouch_c, 0, 84, 0
1, 25810, Note_off_c, 0, 68, 31
1, 25814, Note_on_c, 0, 89, 96
1, 25840, Note_on_c, 0, 61, 61
1, 25840, Control_c, 0, 64, 115
1, 25855, Control_c, 0, 64, 71
1, 25865, Poly_aftertouch_c, 0, 86, 0
1, 25869, Control_c, 0, 64, 61
1, 25884, Control_c, 0, 64, 53
1, 25899, Control_c, 0, 64, 48
1, 25913, Control_c, 0, 64, 49
1, 25928, Control_c, 0, 64, 54
1, 25943, Control_c, 0, 64, 65
1, 25958, Control_c, 0, 64, 87
1, 25973, Control_c, 0, 64, 127
1, 26005, Note_on_c, 0, 70, 69
1, 26007, Note_on_c, 0, 68, 64
1, 26017, Note_off_c, 0, 61, 63
1, 26021, Note_off_c, 0, 89, 64
1, 26101, Poly_aftertouch_c, 0, 88, 127
1, 26109, Note_off_c, 0, 68, 49
1, 26150, Note_off_c, 0, 70, 36
1, 26242, Note_on_c, 0, 89, 82
1, 26254, Control_c, 0, 64, 103
1, 26268, Note_on_c, 0, 63, 50
1, 26269, Control_c, 0, 64, 83
1, 26282, Poly_aftertouch_c, 0, 88, 0
1, 26284, Control_c, 0, 64, 69
1, 26299, Control_c, 0, 64, 59
1, 26313, Control_c, 0, 64, 44
1, 26328, Control_c, 0, 64, 19
1, 26343, Control_c, 0, 64, 0
1, 26479, Note_on_c, 0, 68, 52
1, 26484, Note_on_c, 0, 72, 50
1, 26485, Control_c, 0, 64, 18
1, 26500, Control_c, 0, 64, 33
1, 26515, Control_c, 0, 64, 47
1, 26530, Control_c, 0, 64, 58
1, 26532, Note_off_c, 0, 68, 54
1, 26533, Note_off_c, 0, 72, 50
1, 26544, Control_c, 0, 64, 65
1, 26559, Control_c, 0, 64, 70
1, 26574, Control_c, 0, 64, 72
1, 26589, Control_c, 0, 64, 74
1, 26604, Control_c, 0, 64, 78
1, 26618, Control_c, 0, 64, 86
1, 26633, Control_c, 0, 64, 93
1, 26648, Control_c, 0, 64, 99
1, 26662, Control_c, 0, 64, 103
1, 26677, Control_c, 0, 64, 107
1, 26690, Note_on_c, 0, 87, 72
1, 26692, Control_c, 0, 64, 113
1, 26698, Note_on_c, 0, 68, 36
1, 26704, Note_on_c, 0, 72, 33
1, 26707, Control_c, 0, 64, 127
1, 26753, Note_off_c, 0, 68, 46
1, 26756, Note_off_c, 0, 72, 45
1, 26863, Note_off_c, 0, 63, 38
1, 26876, Note_on_c, 0, 72, 36
1, 26880, Note_on_c, 0, 68, 33
1, 26926, Note_off_c, 0, 72, 43
1, 26928, Note_off_c, 0, 68, 45
1, 27022, Note_on_c, 0, 63, 46
1, 27202, Note_on_c, 0, 72, 43
1, 27211, Note_on_c, 0, 68, 36
1, 27252, Note_off_c, 0, 72, 45
1, 27259, Note_off_c, 0, 68, 45
1, 27364, Note_on_c, 0, 85, 63
1, 27388, Note_on_c, 0, 68, 41
1, 27390, Note_on_c, 0, 72, 41
1, 27441, Note_off_c, 0, 72, 45
1, 27455, Note_off_c, 0, 68, 41
1, 27531, Note_on_c, 0, 84, 66
1, 27543, Note_off_c, 0, 63, 44
1, 27550, Note_off_c, 0, 85, 54
1, 27552, Note_off_c, 0, 87, 38
1, 27558, Note_on_c, 0, 68, 38
1, 27558, Note_on_c, 0, 72, 29
1, 27588, Note_off_c, 0, 89, 36
1, 27597, Note_off_c, 0, 72, 51
1, 27678, Control_c, 0, 64, 103
1, 27690, Note_off_c, 0, 68, 38
1, 27692, Control_c, 0, 64, 81
1, 27707, Control_c, 0, 64, 67
1, 27722, Control_c, 0, 64, 57
1, 27723, Note_on_c, 0, 87, 64
1, 27737, Control_c, 0, 64, 42
1, 27745, Note_on_c, 0, 63, 34
1, 27752, Control_c, 0, 64, 22
1, 27757, Note_off_c, 0, 84, 39
1, 27767, Control_c, 0, 64, 12
1, 27782, Control_c, 0, 64, 0
1, 27856, Control_c, 0, 64, 16
1, 27871, Control_c, 0, 64, 29
1, 27885, Control_c, 0, 64, 37
1, 27900, Control_c, 0, 64, 46
1, 27907, Note_on_c, 0, 85, 56
1, 27910, Note_on_c, 0, 70, 46
1, 27915, Control_c, 0, 64, 55
1, 27916, Note_on_c, 0, 73, 38
1, 27937, Control_c, 0, 64, 63
1, 27952, Control_c, 0, 64, 71
1, 27967, Control_c, 0, 64, 75
1, 27975, Note_off_c, 0, 70, 55
1, 27982, Control_c, 0, 64, 77
1, 27985, Note_off_c, 0, 73, 41
1, 27996, Control_c, 0, 64, 81
1, 28012, Control_c, 0, 64, 89
1, 28027, Control_c, 0, 64, 100
1, 28042, Control_c, 0, 64, 114
1, 28057, Control_c, 0, 64, 127
1, 28113, Note_on_c, 0, 79, 60
1, 28126, Note_on_c, 0, 70, 35
1, 28130, Note_on_c, 0, 73, 32
1, 28170, Note_off_c, 0, 73, 51
1, 28172, Note_off_c, 0, 70, 46
1, 28227, Note_off_c, 0, 79, 55
1, 28262, Note_off_c, 0, 85, 60
1, 28280, Note_off_c, 0, 87, 40
1, 28281, Note_on_c, 0, 73, 42
1, 28289, Note_on_c, 0, 70, 35
1, 28372, Note_off_c, 0, 73, 36
1, 28462, Note_off_c, 0, 70, 20
1, 28492, Note_on_c, 0, 80, 48
1, 28501, Control_c, 0, 64, 108
1, 28515, Control_c, 0, 64, 82
1, 28521, Note_on_c, 0, 68, 40
1, 28529, Note_on_c, 0, 72, 33
1, 28530, Control_c, 0, 64, 64
1, 28545, Control_c, 0, 64, 49
1, 28560, Control_c, 0, 64, 27
1, 28571, Note_off_c, 0, 63, 35
1, 28575, Control_c, 0, 64, 0
1, 28584, Note_on_c, 0, 87, 52
1, 28620, Note_off_c, 0, 80, 34
1, 28633, Note_off_c, 0, 87, 59
1, 28664, Control_c, 0, 64, 22
1, 28686, Control_c, 0, 64, 34
1, 28701, Control_c, 0, 64, 45
1, 28702, Note_on_c, 0, 84, 34
1, 28715, Control_c, 0, 64, 57
1, 28730, Control_c, 0, 64, 64
1, 28745, Control_c, 0, 64, 73
1, 28760, Note_on_c, 0, 87, 50
1, 28760, Control_c, 0, 64, 82
1, 28775, Control_c, 0, 64, 89
1, 28789, Control_c, 0, 64, 100
1, 28804, Control_c, 0, 64, 127
1, 28805, Note_off_c, 0, 87, 62
1, 28823, Note_off_c, 0, 84, 35
1, 28844, Note_on_c, 0, 92, 53
1, 28909, Note_on_c, 0, 87, 60
1, 28954, Note_off_c, 0, 92, 36
1, 28966, Note_off_c, 0, 87, 62
1, 28968, Note_off_c, 0, 72, 40
1, 28998, Note_on_c, 0, 84, 52
1, 28998, Note_off_c, 0, 68, 31
1, 29052, Note_off_c, 0, 84, 57
1, 29076, Note_on_c, 0, 87, 49
1, 29108, Note_off_c, 0, 87, 64
1, 29150, Note_on_c, 0, 80, 53
1, 29171, Note_off_c, 0, 80, 62
1, 29176, Control_c, 0, 67, 9
1, 29191, Control_c, 0, 67, 10
1, 29206, Control_c, 0, 67, 12
1, 29220, Control_c, 0, 67, 14
1, 29235, Control_c, 0, 67, 18
1, 29250, Control_c, 0, 67, 23
1, 29254, Note_on_c, 0, 75, 39
1, 29264, Control_c, 0, 67, 30
1, 29279, Control_c, 0, 67, 37
1, 29294, Control_c, 0, 67, 45
1, 29295, Note_off_c, 0, 75, 62
1, 29309, Control_c, 0, 67, 54
1, 29324, Control_c, 0, 67, 64
1, 29326, Note_on_c, 0, 72, 50
1, 29338, Control_c, 0, 67, 74
1, 29353, Control_c, 0, 67, 86
1, 29368, Control_c, 0, 67, 97
1, 29383, Control_c, 0, 67, 107
1, 29398, Control_c, 0, 67, 121
1, 29412, Note_on_c, 0, 75, 47
1, 29412, Control_c, 0, 67, 127
1, 29450, Note_off_c, 0, 72, 35
1, 29460, Note_off_c, 0, 75, 61
1, 29493, Note_on_c, 0, 68, 58
1, 29524, Note_off_c, 0, 68, 64
1, 29579, Note_on_c, 0, 63, 49
1, 29648, Note_off_c, 0, 63, 64
1, 29671, Note_on_c, 0, 60, 52
1, 29719, Note_off_c, 0, 60, 54
1, 29750, Note_on_c, 0, 63, 44
1, 29793, Note_off_c, 0, 63, 65
1, 29830, Note_on_c, 0, 56, 54
1, 29860, Note_off_c, 0, 56, 68
1, 29925, Note_on_c, 0, 51, 48
1, 29976, Note_off_c, 0, 51, 64
1, 30015, Note_on_c, 0, 48, 44
1, 30065, Note_off_c, 0, 48, 44
1, 30073, Control_c, 0, 64, 86
1, 30082, Note_on_c, 0, 51, 52
1, 30087, Control_c, 0, 64, 67
1, 30102, Control_c, 0, 64, 57
1, 30117, Control_c, 0, 64, 42
1, 30132, Control_c, 0, 64, 30
1, 30137, Note_off_c, 0, 51, 63
1, 30147, Control_c, 0, 64, 27
1, 30164, Note_on_c, 0, 44, 48
1, 30176, Control_c, 0, 64, 27
1, 30199, Control_c, 0, 64, 31
1, 30213, Control_c, 0, 64, 38
1, 30217, Note_off_c, 0, 44, 57
1, 30228, Control_c, 0, 64, 46
1, 30243, Control_c, 0, 64, 56
1, 30258, Control_c, 0, 64, 63
1, 30261, Note_on_c, 0, 51, 49
1, 30273, Control_c, 0, 64, 70
1, 30287, Control_c, 0, 64, 76
1, 30302, Note_off_c, 0, 51, 64
1, 30317, Control_c, 0, 64, 77
1, 30351, Note_on_c, 0, 48, 42
1, 30391, Control_c, 0, 64, 76
1, 30400, Note_off_c, 0, 48, 56
1, 30407, Control_c, 0, 64, 75
1, 30418, Note_on_c, 0, 51, 46
1, 30423, Control_c, 0, 64, 71
1, 30438, Control_c, 0, 64, 64
1, 30453, Control_c, 0, 64, 55
1, 30467, Control_c, 0, 64, 41
1, 30473, Note_off_c, 0, 51, 50
1, 30482, Control_c, 0, 64, 22
1, 30497, Control_c, 0, 64, 0
1, 30530, Note_on_c, 0, 46, 48
1, 30534, Note_on_c, 0, 34, 42
1, 30540, Note_on_c, 0, 43, 43
1, 30546, Note_on_c, 0, 39, 32
1, 30585, Control_c, 0, 64, 11
1, 30600, Control_c, 0, 64, 26
1, 30615, Control_c, 0, 64, 36
1, 30623, Note_on_c, 0, 51, 46
1, 30624, Note_off_c, 0, 43, 38
1, 30630, Control_c, 0, 64, 47
1, 30634, Note_off_c, 0, 34, 53
1, 30645, Control_c, 0, 64, 56
1, 30659, Control_c, 0, 64, 62
1, 30668, Note_off_c, 0, 46, 33
1, 30670, Note_off_c, 0, 51, 62
1, 30674, Control_c, 0, 64, 66
1, 30688, Note_off_c, 0, 39, 35
1, 30689, Control_c, 0, 64, 67
1, 30703, Control_c, 0, 64, 67
1, 30715, Note_on_c, 0, 49, 45
1, 30718, Control_c, 0, 64, 68
1, 30733, Control_c, 0, 64, 69
1, 30748, Control_c, 0, 64, 71
1, 30763, Control_c, 0, 64, 73
1, 30772, Note_off_c, 0, 49, 56
1, 30778, Control_c, 0, 64, 74
1, 30792, Note_on_c, 0, 51, 43
1, 30793, Control_c, 0, 64, 76
1, 30807, Control_c, 0, 64, 76
1, 30822, Control_c, 0, 64, 77
1, 30822, Control_c, 0, 67, 114
1, 30825, Note_off_c, 0, 51, 55
1, 30837, Control_c, 0, 64, 77
1, 30837, Control_c, 0, 67, 103
1, 30852, Control_c, 0, 64, 78
1, 30852, Control_c, 0, 67, 94
1, 30858, Note_on_c, 0, 55, 49
1, 30867, Control_c, 0, 64, 78
1, 30867, Control_c, 0, 67, 85
1, 30882, Control_c, 0, 64, 79
1, 30882, Control_c, 0, 67, 77
1, 30897, Control_c, 0, 64, 79
1, 30897, Control_c, 0, 67, 70
1, 30911, Control_c, 0, 67, 65
1, 30924, Note_on_c, 0, 51, 54
1, 30926, Control_c, 0, 67, 63
1, 30948, Control_c, 0, 64, 80
1, 30991, Note_off_c, 0, 51, 60
1, 30992, Note_off_c, 0, 55, 34
1, 31022, Note_on_c, 0, 49, 54
1, 31022, Control_c, 0, 67, 63
1, 31037, Control_c, 0, 67, 64
1, 31052, Control_c, 0, 67, 64
1, 31073, Note_off_c, 0, 49, 58
1, 31097, Control_c, 0, 64, 79
1, 31100, Note_on_c, 0, 51, 54
1, 31111, Control_c, 0, 64, 76
1, 31111, Control_c, 0, 67, 65
1, 31126, Control_c, 0, 64, 70
1, 31128, Note_off_c, 0, 51, 64
1, 31141, Control_c, 0, 64, 62
1, 31141, Control_c, 0, 67, 65
1, 31156, Control_c, 0, 64, 50
1, 31170, Control_c, 0, 64, 31
1, 31184, Control_c, 0, 64, 10
1, 31199, Control_c, 0, 64, 0
1, 31228, Note_on_c, 0, 46, 45
1, 31229, Note_on_c, 0, 55, 56
1, 31230, Control_c, 0, 67, 65
1, 31236, Note_on_c, 0, 34, 39
1, 31237, Note_on_c, 0, 39, 35
1, 31245, Control_c, 0, 67, 64
1, 31274, Control_c, 0, 67, 64
1, 31289, Control_c, 0, 64, 20
1, 31304, Control_c, 0, 64, 31
1, 31304, Control_c, 0, 67, 63
1, 31319, Control_c, 0, 64, 41
1, 31319, Control_c, 0, 67, 63
1, 31323, Note_on_c, 0, 63, 45
1, 31332, Note_off_c, 0, 55, 37
1, 31333, Control_c, 0, 64, 51
1, 31333, Control_c, 0, 67, 62
1, 31348, Control_c, 0, 64, 59
1, 31348, Control_c, 0, 67, 62
1, 31349, Note_off_c, 0, 34, 37
1, 31363, Control_c, 0, 64, 65
1, 31363, Control_c, 0, 67, 61
1, 31364, Note_off_c, 0, 46, 35
1, 31371, Note_off_c, 0, 39, 35
1, 31374, Note_off_c, 0, 63, 62
1, 31378, Control_c, 0, 64, 71
1, 31378, Control_c, 0, 67, 59
1, 31393, Control_c, 0, 64, 75
1, 31393, Control_c, 0, 67, 56
1, 31407, Note_on_c, 0, 61, 47
1, 31407, Control_c, 0, 64, 77
1, 31407, Control_c, 0, 67, 54
1, 31422, Control_c, 0, 64, 80
1, 31422, Control_c, 0, 67, 51
1, 31437, Control_c, 0, 64, 85
1, 31437, Control_c, 0, 67, 49
1, 31451, Control_c, 0, 64, 91
1, 31451, Control_c, 0, 67, 45
1, 31465, Note_off_c, 0, 61, 53
1, 31466, Control_c, 0, 64, 97
1, 31466, Control_c, 0, 67, 41
1, 31481, Control_c, 0, 64, 103
1, 31481, Control_c, 0, 67, 38
1, 31484, Note_on_c, 0, 63, 49
1, 31496, Control_c, 0, 64, 108
1, 31496, Control_c, 0, 67, 35
1, 31511, Control_c, 0, 64, 115
1, 31511, Control_c, 0, 67, 30
1, 31526, Control_c, 0, 64, 127
1, 31526, Control_c, 0, 67, 26
1, 31535, Note_off_c, 0, 63, 64
1, 31541, Control_c, 0, 67, 24
1, 31555, Note_on_c, 0, 67, 60
1, 31556, Control_c, 0, 67, 22
1, 31571, Control_c, 0, 67, 21
1, 31585, Control_c, 0, 67, 20
1, 31600, Control_c, 0, 67, 18
1, 31615, Control_c, 0, 67, 16
1, 31630, Control_c, 0, 67, 16
1, 31645, Note_on_c, 0, 63, 54
1, 31685, Note_off_c, 0, 67, 55
1, 31691, Note_off_c, 0, 63, 63
1, 31728, Note_on_c, 0, 61, 50
1, 31779, Note_off_c, 0, 61, 59
1, 31792, Note_on_c, 0, 63, 61
1, 31800, Control_c, 0, 64, 111
1, 31815, Control_c, 0, 64, 104
1, 31824, Note_off_c, 0, 63, 68
1, 31830, Control_c, 0, 64, 93
1, 31845, Control_c, 0, 64, 79
1, 31845, Control_c, 0, 67, 16
1, 31859, Control_c, 0, 64, 66
1, 31874, Control_c, 0, 64, 53
1, 31889, Control_c, 0, 64, 33
1, 31889, Control_c, 0, 67, 17
1, 31904, Control_c, 0, 64, 9
1, 31913, Note_on_c, 0, 46, 48
1, 31918, Note_on_c, 0, 67, 60
1, 31919, Control_c, 0, 64, 0
1, 31927, Note_on_c, 0, 39, 37
1, 31929, Note_on_c, 0, 34, 39
1, 31998, Note_off_c, 0, 67, 50
1, 32006, Note_on_c, 0, 75, 50
1, 32009, Control_c, 0, 64, 24
1, 32009, Control_c, 0, 67, 17
1, 32024, Control_c, 0, 64, 35
1, 32024, Control_c, 0, 67, 16
1, 32038, Control_c, 0, 64, 44
1, 32038, Control_c, 0, 67, 15
1, 32053, Control_c, 0, 64, 54
1, 32053, Control_c, 0, 67, 15
1, 32059, Note_off_c, 0, 75, 60
1, 32065, Note_off_c, 0, 39, 0
1, 32068, Control_c, 0, 64, 62
1, 32068, Control_c, 0, 67, 14
1, 32082, Control_c, 0, 64, 67
1, 32082, Control_c, 0, 67, 10
1, 32089, Note_on_c, 0, 73, 52
1, 32097, Control_c, 0, 64, 71
1, 32097, Control_c, 0, 67, 0
1, 32101, Poly_aftertouch_c, 0, 39, 0
1, 32102, Note_off_c, 0, 34, 41
1, 32112, Control_c, 0, 64, 72
1, 32127, Control_c, 0, 64, 74
1, 32142, Control_c, 0, 64, 76
1, 32151, Note_off_c, 0, 73, 47
1, 32156, Note_on_c, 0, 75, 61
1, 32156, Control_c, 0, 64, 79
1, 32171, Control_c, 0, 64, 81
1, 32185, Note_off_c, 0, 46, 32
1, 32186, Control_c, 0, 64, 83
1, 32201, Control_c, 0, 64, 84
1, 32232, Note_off_c, 0, 75, 61
1, 32243, Note_on_c, 0, 79, 63
1, 32316, Note_on_c, 0, 75, 60
1, 32348, Note_off_c, 0, 79, 50
1, 32381, Note_off_c, 0, 75, 61
1, 32393, Control_c, 0, 64, 83
1, 32403, Note_on_c, 0, 73, 53
1, 32430, Control_c, 0, 64, 83
1, 32460, Control_c, 0, 64, 82
1, 32468, Note_off_c, 0, 73, 50
1, 32474, Note_on_c, 0, 75, 61
1, 32475, Control_c, 0, 64, 82
1, 32489, Control_c, 0, 64, 81
1, 32504, Control_c, 0, 64, 80
1, 32518, Note_off_c, 0, 75, 59
1, 32519, Control_c, 0, 64, 79
1, 32534, Control_c, 0, 64, 77
1, 32549, Control_c, 0, 64, 71
1, 32563, Control_c, 0, 64, 66
1, 32578, Control_c, 0, 64, 60
1, 32593, Control_c, 0, 64, 51
1, 32608, Control_c, 0, 64, 36
1, 32623, Control_c, 0, 64, 17
1, 32631, Note_on_c, 0, 80, 61
1, 32638, Control_c, 0, 64, 0
1, 32645, Note_on_c, 0, 48, 42
1, 32648, Note_on_c, 0, 39, 36
1, 32662, Note_on_c, 0, 36, 35
1, 32724, Note_on_c, 0, 87, 61
1, 32740, Note_off_c, 0, 80, 49
1, 32771, Control_c, 0, 64, 24
1, 32786, Control_c, 0, 64, 35
1, 32787, Note_off_c, 0, 87, 62
1, 32801, Control_c, 0, 64, 44
1, 32812, Note_on_c, 0, 84, 59
1, 32817, Control_c, 0, 64, 53
1, 32832, Control_c, 0, 64, 61
1, 32846, Control_c, 0, 64, 64
1, 32861, Control_c, 0, 64, 66
1, 32876, Control_c, 0, 64, 67
1, 32884, Note_on_c, 0, 87, 57
1, 32891, Control_c, 0, 64, 70
1, 32905, Control_c, 0, 64, 73
1, 32920, Control_c, 0, 64, 77
1, 32935, Control_c, 0, 64, 81
1, 32944, Note_off_c, 0, 84, 31
1, 32948, Note_off_c, 0, 87, 64
1, 32950, Control_c, 0, 64, 86
1, 32965, Control_c, 0, 64, 91
1, 32972, Note_on_c, 0, 92, 70
1, 32979, Control_c, 0, 64, 98
1, 32994, Control_c, 0, 64, 105
1, 32995, Note_off_c, 0, 48, 43
1, 33009, Control_c, 0, 64, 127
1, 33039, Note_off_c, 0, 36, 37
1, 33054, Note_on_c, 0, 87, 65
1, 33055, Note_off_c, 0, 39, 31
1, 33074, Note_off_c, 0, 92, 52
1, 33096, Note_off_c, 0, 87, 58
1, 33112, Control_c, 0, 67, 8
1, 33127, Control_c, 0, 67, 10
1, 33138, Note_on_c, 0, 84, 53
1, 33142, Control_c, 0, 67, 11
1, 33157, Control_c, 0, 67, 12
1, 33179, Control_c, 0, 67, 14
1, 33194, Control_c, 0, 67, 15
1, 33201, Note_off_c, 0, 84, 52
1, 33209, Control_c, 0, 67, 17
1, 33213, Note_on_c, 0, 87, 62
1, 33224, Control_c, 0, 67, 20
1, 33238, Control_c, 0, 67, 24
1, 33247, Note_off_c, 0, 87, 65
1, 33253, Control_c, 0, 67, 28
1, 33268, Control_c, 0, 67, 31
1, 33283, Control_c, 0, 67, 35
1, 33294, Note_on_c, 0, 80, 60
1, 33298, Control_c, 0, 67, 38
1, 33312, Control_c, 0, 67, 41
1, 33320, Note_off_c, 0, 80, 65
1, 33327, Control_c, 0, 67, 44
1, 33342, Control_c, 0, 67, 46
1, 33357, Control_c, 0, 67, 49
1, 33372, Control_c, 0, 67, 52
1, 33383, Note_on_c, 0, 75, 52
1, 33386, Control_c, 0, 67, 54
1, 33401, Control_c, 0, 67, 57
1, 33417, Control_c, 0, 67, 59
1, 33431, Control_c, 0, 67, 61
1, 33440, Note_off_c, 0, 75, 60
1, 33446, Control_c, 0, 67, 63
1, 33461, Control_c, 0, 67, 65
1, 33466, Note_on_c, 0, 72, 57
1, 33476, Control_c, 0, 67, 67
1, 33491, Control_c, 0, 67, 69
1, 33505, Control_c, 0, 67, 73
1, 33520, Control_c, 0, 67, 77
1, 33526, Note_off_c, 0, 72, 46
1, 33535, Control_c, 0, 67, 81
1, 33545, Note_on_c, 0, 75, 45
1, 33550, Control_c, 0, 67, 83
1, 33565, Control_c, 0, 67, 86
1, 33580, Control_c, 0, 67, 89
1, 33581, Note_off_c, 0, 75, 63
1, 33595, Control_c, 0, 67, 92
1, 33610, Control_c, 0, 67, 95
1, 33619, Note_on_c, 0, 68, 60
1, 33625, Control_c, 0, 67, 98
1, 33640, Control_c, 0, 67, 101
1, 33644, Note_off_c, 0, 68, 64
1, 33654, Control_c, 0, 67, 103
1, 33669, Control_c, 0, 67, 105
1, 33684, Control_c, 0, 67, 108
1, 33699, Control_c, 0, 67, 111
1, 33707, Note_on_c, 0, 63, 48
1, 33714, Control_c, 0, 67, 112
1, 33729, Control_c, 0, 67, 114
1, 33744, Control_c, 0, 67, 115
1, 33759, Control_c, 0, 67, 117
1, 33771, Note_off_c, 0, 63, 65
1, 33773, Control_c, 0, 67, 118
1, 33788, Note_on_c, 0, 60, 49
1, 33818, Control_c, 0, 67, 118
1, 33843, Note_off_c, 0, 60, 57
1, 33864, Note_on_c, 0, 63, 52
1, 33892, Control_c, 0, 64, 91
1, 33905, Note_off_c, 0, 63, 65
1, 33907, Control_c, 0, 64, 68
1, 33907, Control_c, 0, 67, 119
1, 33922, Control_c, 0, 64, 57
1, 33943, Control_c, 0, 64, 43
1, 33944, Note_on_c, 0, 56, 59
1, 33958, Control_c, 0, 64, 34
1, 33973, Control_c, 0, 64, 33
1, 33979, Note_off_c, 0, 56, 68
1, 33988, Control_c, 0, 64, 35
1, 33988, Control_c, 0, 67, 118
1, 34003, Control_c, 0, 64, 41
1, 34003, Control_c, 0, 67, 117
1, 34018, Control_c, 0, 64, 49
1, 34018, Control_c, 0, 67, 116
1, 34033, Control_c, 0, 64, 58
1, 34033, Control_c, 0, 67, 116
1, 34048, Control_c, 0, 64, 64
1, 34062, Control_c, 0, 64, 68
1, 34062, Control_c, 0, 67, 115
1, 34074, Note_on_c, 0, 52, 29
1, 34077, Control_c, 0, 64, 70
1, 34077, Control_c, 0, 67, 115
1, 34107, Control_c, 0, 67, 114
1, 34111, Note_off_c, 0, 52, 45
1, 34119, Note_on_c, 0, 48, 63
1, 34122, Control_c, 0, 64, 71
1, 34136, Control_c, 0, 64, 72
1, 34151, Control_c, 0, 64, 74
1, 34166, Control_c, 0, 64, 76
1, 34173, Note_off_c, 0, 48, 55
1, 34180, Control_c, 0, 64, 77
1, 34188, Note_on_c, 0, 51, 45
1, 34210, Control_c, 0, 67, 115
1, 34225, Control_c, 0, 67, 116
1, 34240, Control_c, 0, 67, 117
1, 34254, Control_c, 0, 64, 73
1, 34259, Note_off_c, 0, 51, 63
1, 34269, Control_c, 0, 64, 63
1, 34269, Control_c, 0, 67, 118
1, 34274, Note_on_c, 0, 44, 62
1, 34284, Control_c, 0, 64, 49
1, 34284, Control_c, 0, 67, 118
1, 34299, Control_c, 0, 64, 31
1, 34314, Control_c, 0, 64, 23
1, 34328, Note_off_c, 0, 44, 50
1, 34343, Control_c, 0, 64, 23
1, 34356, Note_on_c, 0, 51, 49
1, 34358, Control_c, 0, 64, 28
1, 34373, Control_c, 0, 64, 35
1, 34388, Control_c, 0, 64, 45
1, 34388, Control_c, 0, 67, 118
1, 34404, Control_c, 0, 64, 54
1, 34404, Control_c, 0, 67, 117
1, 34419, Control_c, 0, 64, 62
1, 34419, Control_c, 0, 67, 117
1, 34429, Note_off_c, 0, 51, 63
1, 34433, Control_c, 0, 64, 66
1, 34433, Control_c, 0, 67, 116
1, 34448, Control_c, 0, 64, 69
1, 34456, Note_on_c, 0, 48, 55
1, 34463, Control_c, 0, 67, 116
1, 34477, Control_c, 0, 67, 115
1, 34492, Control_c, 0, 67, 115
1, 34507, Control_c, 0, 67, 114
1, 34522, Control_c, 0, 64, 69
1, 34532, Note_off_c, 0, 48, 55
1, 34534, Note_on_c, 0, 51, 51
1, 34537, Control_c, 0, 64, 66
1, 34551, Control_c, 0, 64, 61
1, 34566, Control_c, 0, 64, 52
1, 34581, Control_c, 0, 64, 35
1, 34596, Control_c, 0, 64, 0
1, 34608, Note_off_c, 0, 51, 57
1, 34653, Note_on_c, 0, 46, 44
1, 34654, Note_on_c, 0, 43, 43
1, 34661, Note_on_c, 0, 39, 42
1, 34664, Note_on_c, 0, 31, 40
1, 34692, Control_c, 0, 67, 113
1, 34707, Control_c, 0, 67, 113
1, 34722, Control_c, 0, 67, 112
1, 34737, Note_on_c, 0, 51, 56
1, 34737, Control_c, 0, 64, 29
1, 34737, Control_c, 0, 67, 110
1, 34739, Note_off_c, 0, 46, 53
1, 34752, Control_c, 0, 64, 39
1, 34752, Control_c, 0, 67, 108
1, 34753, Note_off_c, 0, 39, 48
1, 34755, Note_off_c, 0, 31, 53
1, 34766, Control_c, 0, 64, 49
1, 34766, Control_c, 0, 67, 107
1, 34781, Note_off_c, 0, 51, 64
1, 34781, Control_c, 0, 64, 57
1, 34781, Control_c, 0, 67, 104
1, 34796, Control_c, 0, 64, 63
1, 34796, Control_c, 0, 67, 100
1, 34797, Note_off_c, 0, 43, 35
1, 34811, Control_c, 0, 64, 66
1, 34811, Control_c, 0, 67, 95
1, 34826, Control_c, 0, 64, 68
1, 34826, Control_c, 0, 67, 89
1, 34832, Note_on_c, 0, 49, 39
1, 34841, Control_c, 0, 64, 69
1, 34841, Control_c, 0, 67, 83
1, 34856, Control_c, 0, 64, 71
1, 34856, Control_c, 0, 67, 76
1, 34870, Control_c, 0, 64, 73
1, 34870, Control_c, 0, 67, 69
1, 34885, Control_c, 0, 64, 75
1, 34885, Control_c, 0, 67, 62
1, 34886, Note_off_c, 0, 49, 43
1, 34900, Control_c, 0, 64, 77
1, 34900, Control_c, 0, 67, 55
1, 34909, Note_on_c, 0, 51, 47
1, 34913, Control_c, 0, 64, 78
1, 34913, Control_c, 0, 67, 49
1, 34928, Control_c, 0, 64, 79
1, 34928, Control_c, 0, 67, 44
1, 34943, Control_c, 0, 64, 80
1, 34943, Control_c, 0, 67, 40
1, 34957, Control_c, 0, 64, 80
1, 34957, Control_c, 0, 67, 34
1, 34960, Note_off_c, 0, 51, 60
1, 34972, Control_c, 0, 64, 81
1, 34972, Control_c, 0, 67, 29
1, 34987, Note_on_c, 0, 58, 59
1, 34987, Control_c, 0, 64, 82
1, 34987, Control_c, 0, 67, 24
1, 35002, Control_c, 0, 64, 82
1, 35002, Control_c, 0, 67, 19
1, 35017, Control_c, 0, 64, 83
1, 35017, Control_c, 0, 67, 16
1, 35031, Control_c, 0, 64, 83
1, 35031, Control_c, 0, 67, 15
1, 35046, Control_c, 0, 64, 84
1, 35046, Control_c, 0, 67, 14
1, 35061, Control_c, 0, 64, 86
1, 35061, Control_c, 0, 67, 13
1, 35073, Note_on_c, 0, 51, 61
1, 35076, Control_c, 0, 64, 86
1, 35076, Control_c, 0, 67, 13
1, 35089, Note_off_c, 0, 58, 53
1, 35091, Control_c, 0, 64, 87
1, 35091, Control_c, 0, 67, 12
1, 35106, Control_c, 0, 64, 87
1, 35120, Note_off_c, 0, 51, 61
1, 35121, Control_c, 0, 67, 12
1, 35136, Control_c, 0, 67, 11
1, 35149, Note_on_c, 0, 49, 52
1, 35216, Note_off_c, 0, 49, 56
1, 35234, Note_on_c, 0, 51, 52
1, 35240, Control_c, 0, 64, 87
1, 35255, Control_c, 0, 64, 85
1, 35258, Note_off_c, 0, 51, 61
1, 35270, Control_c, 0, 64, 77
1, 35285, Control_c, 0, 64, 65
1, 35299, Control_c, 0, 64, 51
1, 35314, Control_c, 0, 64, 19
1, 35329, Control_c, 0, 64, 0
1, 35350, Note_on_c, 0, 58, 62
1, 35360, Note_on_c, 0, 43, 50
1, 35371, Note_on_c, 0, 31, 40
1, 35372, Note_on_c, 0, 39, 39
1, 35425, Control_c, 0, 64, 14
1, 35440, Control_c, 0, 64, 28
1, 35443, Note_off_c, 0, 58, 52
1, 35449, Note_on_c, 0, 63, 50
1, 35453, Note_off_c, 0, 31, 53
1, 35455, Control_c, 0, 64, 38
1, 35458, Note_off_c, 0, 39, 55
1, 35470, Control_c, 0, 64, 48
1, 35470, Control_c, 0, 67, 11
1, 35485, Control_c, 0, 64, 57
1, 35485, Control_c, 0, 67, 10
1, 35493, Note_off_c, 0, 43, 37
1, 35499, Control_c, 0, 64, 64
1, 35499, Control_c, 0, 67, 9
1, 35501, Note_off_c, 0, 63, 62
1, 35514, Control_c, 0, 64, 68
1, 35514, Control_c, 0, 67, 0
1, 35529, Control_c, 0, 64, 71
1, 35532, Note_on_c, 0, 61, 51
1, 35544, Control_c, 0, 64, 73
1, 35559, Control_c, 0, 64, 75
1, 35574, Control_c, 0, 64, 77
1, 35588, Control_c, 0, 64, 80
1, 35602, Note_on_c, 0, 63, 55
1, 35603, Control_c, 0, 64, 85
1, 35610, Note_off_c, 0, 61, 46
1, 35618, Control_c, 0, 64, 88
1, 35632, Control_c, 0, 64, 91
1, 35647, Control_c, 0, 64, 93
1, 35662, Control_c, 0, 64, 94
1, 35669, Note_off_c, 0, 63, 64
1, 35677, Note_on_c, 0, 70, 67
1, 35677, Control_c, 0, 64, 95
1, 35692, Control_c, 0, 64, 97
1, 35706, Control_c, 0, 64, 98
1, 35721, Control_c, 0, 64, 99
1, 35736, Control_c, 0, 64, 100
1, 35751, Control_c, 0, 64, 101
1, 35757, Note_on_c, 0, 63, 64
1, 35780, Control_c, 0, 64, 102
1, 35787, Note_off_c, 0, 70, 50
1, 35821, Note_off_c, 0, 63, 64
1, 35830, Note_on_c, 0, 61, 62
1, 35884, Control_c, 0, 64, 100
1, 35899, Control_c, 0, 64, 97
1, 35905, Note_on_c, 0, 63, 56
1, 35908, Note_off_c, 0, 61, 60
1, 35914, Control_c, 0, 64, 94
1, 35929, Control_c, 0, 64, 91
1, 35931, Note_off_c, 0, 63, 71
1, 35944, Control_c, 0, 64, 89
1, 35958, Control_c, 0, 64, 83
1, 35973, Control_c, 0, 64, 70
1, 35988, Control_c, 0, 64, 59
1, 36003, Control_c, 0, 64, 42
1, 36018, Control_c, 0, 64, 15
1, 36029, Note_on_c, 0, 70, 63
1, 36033, Control_c, 0, 64, 0
1, 36044, Note_on_c, 0, 43, 47
1, 36051, Note_on_c, 0, 31, 48
1, 36051, Note_on_c, 0, 39, 42
1, 36118, Note_on_c, 0, 75, 61
1, 36119, Note_off_c, 0, 70, 55
1, 36122, Control_c, 0, 64, 8
1, 36137, Control_c, 0, 64, 28
1, 36152, Note_off_c, 0, 31, 49
1, 36152, Control_c, 0, 64, 39
1, 36174, Control_c, 0, 64, 52
1, 36187, Note_off_c, 0, 75, 61
1, 36189, Control_c, 0, 64, 61
1, 36194, Note_off_c, 0, 43, 34
1, 36200, Note_off_c, 0, 39, 35
1, 36203, Control_c, 0, 64, 67
1, 36206, Note_on_c, 0, 73, 59
1, 36218, Control_c, 0, 64, 72
1, 36233, Control_c, 0, 64, 74
1, 36248, Control_c, 0, 64, 75
1, 36263, Control_c, 0, 64, 78
1, 36274, Note_on_c, 0, 75, 60
1, 36277, Control_c, 0, 64, 82
1, 36292, Control_c, 0, 64, 86
1, 36307, Control_c, 0, 64, 90
1, 36322, Control_c, 0, 64, 91
1, 36341, Note_off_c, 0, 73, 28
1, 36352, Control_c, 0, 64, 91
1, 36355, Note_off_c, 0, 75, 61
1, 36362, Note_on_c, 0, 82, 71
1, 36442, Note_on_c, 0, 75, 65
1, 36470, Control_c, 0, 64, 91
1, 36488, Note_off_c, 0, 82, 54
1, 36499, Note_off_c, 0, 75, 59
1, 36500, Control_c, 0, 64, 89
1, 36515, Control_c, 0, 64, 88
1, 36524, Note_on_c, 0, 73, 57
1, 36529, Control_c, 0, 64, 86
1, 36544, Control_c, 0, 64, 85
1, 36559, Control_c, 0, 64, 83
1, 36573, Control_c, 0, 64, 81
1, 36588, Control_c, 0, 64, 79
1, 36588, Control_c, 0, 67, 8
1, 36597, Note_on_c, 0, 75, 57
1, 36603, Control_c, 0, 64, 76
1, 36618, Control_c, 0, 64, 72
1, 36626, Note_off_c, 0, 73, 36
1, 36633, Control_c, 0, 64, 66
1, 36647, Control_c, 0, 64, 58
1, 36662, Control_c, 0, 64, 45
1, 36663, Note_off_c, 0, 75, 54
1, 36677, Control_c, 0, 64, 26
1, 36692, Control_c, 0, 64, 0
1, 36713, Note_on_c, 0, 72, 54
1, 36721, Note_on_c, 0, 44, 40
1, 36726, Note_on_c, 0, 32, 38
1, 36734, Note_on_c, 0, 39, 36
1, 36794, Note_on_c, 0, 80, 58
1, 36826, Control_c, 0, 64, 21
1, 36841, Control_c, 0, 64, 34
1, 36843, Note_off_c, 0, 80, 58
1, 36856, Control_c, 0, 64, 44
1, 36871, Control_c, 0, 64, 53
1, 36880, Note_on_c, 0, 75, 47
1, 36886, Control_c, 0, 64, 60
1, 36900, Control_c, 0, 64, 64
1, 36912, Note_off_c, 0, 72, 21
1, 36923, Control_c, 0, 64, 67
1, 36938, Control_c, 0, 64, 69
1, 36952, Control_c, 0, 64, 72
1, 36955, Note_off_c, 0, 75, 49
1, 36959, Note_on_c, 0, 80, 64
1, 36967, Control_c, 0, 64, 75
1, 36982, Control_c, 0, 64, 80
1, 36996, Control_c, 0, 64, 85
1, 36996, Control_c, 0, 67, 8
1, 37011, Control_c, 0, 64, 90
1, 37026, Control_c, 0, 64, 95
1, 37033, Note_off_c, 0, 80, 61
1, 37041, Control_c, 0, 64, 100
1, 37053, Note_on_c, 0, 84, 64
1, 37056, Control_c, 0, 64, 105
1, 37070, Control_c, 0, 64, 111
1, 37085, Control_c, 0, 64, 127
1, 37085, Control_c, 0, 67, 9
1, 37115, Control_c, 0, 67, 9
1, 37130, Control_c, 0, 67, 10
1, 37133, Note_off_c, 0, 32, 33
1, 37134, Note_off_c, 0, 44, 32
1, 37145, Control_c, 0, 67, 10
1, 37145, Note_on_c, 0, 80, 59
1, 37153, Note_off_c, 0, 84, 56
1, 37160, Control_c, 0, 67, 11
1, 37162, Note_off_c, 0, 39, 23
1, 37175, Control_c, 0, 67, 13
1, 37180, Note_off_c, 0, 80, 62
1, 37190, Control_c, 0, 67, 14
1, 37204, Control_c, 0, 67, 15
1, 37219, Control_c, 0, 67, 16
1, 37219, Note_on_c, 0, 75, 49
1, 37234, Control_c, 0, 67, 17
1, 37249, Control_c, 0, 67, 18
1, 37257, Note_off_c, 0, 75, 50
1, 37264, Control_c, 0, 67, 20
1, 37278, Control_c, 0, 67, 24
1, 37286, Note_on_c, 0, 80, 55
1, 37293, Control_c, 0, 67, 28
1, 37308, Control_c, 0, 67, 31
1, 37323, Control_c, 0, 67, 35
1, 37325, Note_off_c, 0, 80, 62
1, 37338, Control_c, 0, 67, 37
1, 37352, Control_c, 0, 67, 40
1, 37367, Control_c, 0, 67, 42
1, 37376, Note_on_c, 0, 72, 48
1, 37382, Control_c, 0, 67, 45
1, 37396, Control_c, 0, 67, 47
1, 37398, Note_off_c, 0, 72, 59
1, 37411, Control_c, 0, 67, 50
1, 37426, Control_c, 0, 67, 53
1, 37441, Control_c, 0, 67, 56
1, 37449, Note_on_c, 0, 68, 56
1, 37456, Control_c, 0, 67, 58
1, 37470, Control_c, 0, 67, 60
1, 37485, Control_c, 0, 67, 62
1, 37500, Control_c, 0, 67, 64
1, 37513, Note_off_c, 0, 68, 60
1, 37515, Control_c, 0, 67, 65
1, 37530, Control_c, 0, 67, 66
1, 37535, Note_on_c, 0, 63, 55
1, 37544, Control_c, 0, 67, 67
1, 37559, Control_c, 0, 67, 67
1, 37574, Control_c, 0, 67, 68
1, 37589, Note_off_c, 0, 63, 54
1, 37610, Note_on_c, 0, 68, 56
1, 37680, Note_off_c, 0, 68, 59
1, 37708, Note_on_c, 0, 60, 57
1, 37735, Note_off_c, 0, 60, 67
1, 37775, Control_c, 0, 67, 68
1, 37800, Note_on_c, 0, 56, 51
1, 37805, Control_c, 0, 67, 69
1, 37834, Control_c, 0, 64, 119
1, 37849, Control_c, 0, 64, 117
1, 37860, Note_off_c, 0, 56, 65
1, 37864, Control_c, 0, 64, 114
1, 37879, Control_c, 0, 64, 111
1, 37891, Note_on_c, 0, 51, 51
1, 37893, Control_c, 0, 64, 108
1, 37908, Control_c, 0, 64, 106
1, 37923, Control_c, 0, 64, 103
1, 37938, Control_c, 0, 64, 99
1, 37949, Note_off_c, 0, 51, 56
1, 37952, Note_on_c, 0, 56, 54
1, 37953, Control_c, 0, 64, 89
1, 37968, Control_c, 0, 64, 72
1, 37983, Control_c, 0, 64, 58
1, 37997, Control_c, 0, 64, 40
1, 38012, Control_c, 0, 64, 18
1, 38024, Note_off_c, 0, 56, 64
1, 38027, Control_c, 0, 64, 9
1, 38050, Note_on_c, 0, 48, 56
1, 38072, Control_c, 0, 64, 11
1, 38087, Control_c, 0, 64, 18
1, 38101, Control_c, 0, 64, 26
1, 38116, Control_c, 0, 64, 32
1, 38116, Control_c, 0, 67, 68
1, 38129, Note_on_c, 0, 56, 53
1, 38131, Control_c, 0, 64, 39
1, 38146, Control_c, 0, 64, 46
1, 38146, Control_c, 0, 67, 67
1, 38156, Note_off_c, 0, 48, 36
1, 38161, Control_c, 0, 64, 53
1, 38161, Control_c, 0, 67, 66
1, 38173, Note_off_c, 0, 56, 64
1, 38175, Control_c, 0, 64, 58
1, 38175, Control_c, 0, 67, 65
1, 38190, Control_c, 0, 64, 60
1, 38190, Control_c, 0, 67, 64
1, 38205, Control_c, 0, 64, 61
1, 38205, Control_c, 0, 67, 63
1, 38212, Note_on_c, 0, 51, 57
1, 38219, Control_c, 0, 67, 62
1, 38234, Control_c, 0, 67, 61
1, 38249, Control_c, 0, 67, 60
1, 38264, Control_c, 0, 64, 61
1, 38264, Control_c, 0, 67, 59
1, 38279, Control_c, 0, 64, 62
1, 38279, Control_c, 0, 67, 58
1, 38282, Note_on_c, 0, 56, 59
1, 38293, Control_c, 0, 64, 62
1, 38293, Control_c, 0, 67, 56
1, 38301, Note_off_c, 0, 51, 34
1, 38308, Control_c, 0, 64, 63
1, 38308, Control_c, 0, 67, 54
1, 38323, Control_c, 0, 67, 50
1, 38338, Control_c, 0, 67, 45
1, 38352, Control_c, 0, 67, 40
1, 38359, Note_off_c, 0, 56, 65
1, 38367, Control_c, 0, 67, 33
1, 38371, Note_on_c, 0, 60, 59
1, 38382, Control_c, 0, 67, 28
1, 38398, Control_c, 0, 67, 24
1, 38413, Control_c, 0, 67, 21
1, 38436, Control_c, 0, 67, 18
1, 38450, Control_c, 0, 67, 16
1, 38461, Note_on_c, 0, 56, 59
1, 38465, Control_c, 0, 64, 62
1, 38465, Control_c, 0, 67, 15
1, 38486, Note_off_c, 0, 60, 55
1, 38517, Note_off_c, 0, 56, 64
1, 38524, Control_c, 0, 64, 62
1, 38540, Note_on_c, 0, 51, 57
1, 38584, Control_c, 0, 64, 61
1, 38611, Note_off_c, 0, 51, 57
1, 38612, Note_on_c, 0, 56, 50
1, 38613, Control_c, 0, 64, 61
1, 38628, Control_c, 0, 64, 60
1, 38642, Control_c, 0, 64, 59
1, 38657, Control_c, 0, 64, 54
1, 38672, Control_c, 0, 64, 45
1, 38680, Note_off_c, 0, 56, 60
1, 38687, Control_c, 0, 64, 33
1, 38702, Control_c, 0, 64, 14
1, 38702, Control_c, 0, 67, 16
1, 38716, Control_c, 0, 64, 0
1, 38725, Note_on_c, 0, 41, 44
1, 38728, Note_on_c, 0, 29, 43
1, 38735, Note_on_c, 0, 50, 50
1, 38805, Control_c, 0, 67, 15
1, 38808, Note_on_c, 0, 58, 52
1, 38812, Note_off_c, 0, 50, 51
1, 38850, Control_c, 0, 64, 15
1, 38850, Control_c, 0, 67, 15
1, 38865, Control_c, 0, 64, 28
1, 38865, Control_c, 0, 67, 14
1, 38865, Note_off_c, 0, 58, 60
1, 38880, Control_c, 0, 64, 37
1, 38880, Control_c, 0, 67, 12
1, 38889, Note_on_c, 0, 56, 55
1, 38895, Control_c, 0, 64, 47
1, 38895, Control_c, 0, 67, 10
1, 38907, Note_off_c, 0, 29, 39
1, 38910, Control_c, 0, 64, 55
1, 38910, Control_c, 0, 67, 0
1, 38916, Note_off_c, 0, 41, 47
1, 38924, Control_c, 0, 64, 60
1, 38939, Control_c, 0, 64, 63
1, 38954, Control_c, 0, 64, 65
1, 38966, Note_on_c, 0, 58, 55
1, 38968, Control_c, 0, 64, 66
1, 38983, Control_c, 0, 64, 68
1, 38990, Note_off_c, 0, 56, 35
1, 38998, Control_c, 0, 64, 71
1, 39013, Control_c, 0, 64, 74
1, 39028, Control_c, 0, 64, 77
1, 39035, Note_off_c, 0, 58, 61
1, 39042, Control_c, 0, 64, 80
1, 39045, Note_on_c, 0, 62, 63
1, 39057, Control_c, 0, 64, 83
1, 39072, Control_c, 0, 64, 86
1, 39087, Control_c, 0, 64, 88
1, 39102, Control_c, 0, 64, 91
1, 39115, Note_on_c, 0, 58, 57
1, 39116, Control_c, 0, 64, 93
1, 39131, Control_c, 0, 64, 97
1, 39146, Control_c, 0, 64, 101
1, 39168, Control_c, 0, 64, 108
1, 39172, Note_off_c, 0, 62, 58
1, 39183, Control_c, 0, 64, 122
1, 39184, Note_off_c, 0, 58, 62
1, 39199, Control_c, 0, 64, 127
1, 39207, Note_on_c, 0, 56, 60
1, 39275, Note_on_c, 0, 58, 54
1, 39276, Note_off_c, 0, 56, 60
1, 39311, Note_off_c, 0, 58, 64
1, 39362, Control_c, 0, 64, 119
1, 39377, Control_c, 0, 64, 86
1, 39392, Control_c, 0, 64, 67
1, 39403, Note_on_c, 0, 62, 68
1, 39404, Note_on_c, 0, 46, 53
1, 39405, Note_on_c, 0, 53, 52
1, 39406, Control_c, 0, 64, 55
1, 39416, Note_on_c, 0, 41, 41
1, 39421, Control_c, 0, 64, 29
1, 39436, Control_c, 0, 64, 0
1, 39470, Note_off_c, 0, 53, 0
1, 39470, Note_on_c, 0, 53, 3
1, 39481, Note_on_c, 0, 70, 62
1, 39522, Note_off_c, 0, 62, 38
1, 39525, Control_c, 0, 64, 22
1, 39540, Control_c, 0, 64, 32
1, 39547, Note_off_c, 0, 70, 61
1, 39554, Control_c, 0, 64, 42
1, 39567, Note_on_c, 0, 68, 60
1, 39569, Control_c, 0, 64, 53
1, 39577, Note_off_c, 0, 53, 39
1, 39584, Control_c, 0, 64, 61
1, 39589, Note_off_c, 0, 41, 35
1, 39592, Note_off_c, 0, 46, 42
1, 39598, Control_c, 0, 64, 67
1, 39613, Control_c, 0, 64, 72
1, 39628, Control_c, 0, 64, 73
1, 39640, Note_on_c, 0, 70, 64
1, 39643, Control_c, 0, 64, 75
1, 39658, Control_c, 0, 64, 78
1, 39673, Control_c, 0, 64, 81
1, 39688, Control_c, 0, 64, 85
1, 39702, Control_c, 0, 64, 90
1, 39717, Control_c, 0, 64, 93
1, 39720, Note_off_c, 0, 68, 32
1, 39729, Note_off_c, 0, 70, 62
1, 39731, Note_on_c, 0, 74, 68
1, 39732, Control_c, 0, 64, 96
1, 39747, Control_c, 0, 64, 97
1, 39762, Control_c, 0, 64, 99
1, 39777, Control_c, 0, 64, 100
1, 39791, Control_c, 0, 64, 102
1, 39806, Control_c, 0, 64, 103
1, 39807, Note_on_c, 0, 70, 63
1, 39821, Control_c, 0, 64, 104
1, 39836, Control_c, 0, 64, 105
1, 39851, Control_c, 0, 64, 105
1, 39860, Note_off_c, 0, 74, 61
1, 39865, Control_c, 0, 64, 106
1, 39871, Note_off_c, 0, 70, 63
1, 39881, Note_on_c, 0, 68, 65
1, 39895, Control_c, 0, 64, 107
1, 39961, Note_on_c, 0, 70, 71
1, 39983, Note_off_c, 0, 68, 59
1, 39992, Control_c, 0, 64, 106
1, 39998, Note_off_c, 0, 70, 62
1, 40007, Control_c, 0, 64, 102
1, 40021, Control_c, 0, 64, 91
1, 40036, Control_c, 0, 64, 74
1, 40051, Control_c, 0, 64, 61
1, 40066, Control_c, 0, 64, 44
1, 40081, Control_c, 0, 64, 12
1, 40091, Note_on_c, 0, 51, 54
1, 40092, Note_on_c, 0, 75, 68
1, 40096, Control_c, 0, 64, 0
1, 40098, Note_on_c, 0, 46, 50
1, 40103, Note_on_c, 0, 39, 43
1, 40156, Control_c, 0, 64, 9
1, 40161, Note_on_c, 0, 82, 65
1, 40170, Control_c, 0, 64, 24
1, 40185, Control_c, 0, 64, 38
1, 40200, Control_c, 0, 64, 50
1, 40215, Control_c, 0, 64, 61
1, 40221, Note_off_c, 0, 75, 34
1, 40227, Note_off_c, 0, 82, 64
1, 40230, Control_c, 0, 64, 70
1, 40243, Note_on_c, 0, 79, 67
1, 40245, Control_c, 0, 64, 79
1, 40260, Control_c, 0, 64, 81
1, 40275, Control_c, 0, 64, 83
1, 40286, Note_off_c, 0, 39, 0
1, 40290, Control_c, 0, 64, 86
1, 40293, Note_off_c, 0, 51, 35
1, 40304, Control_c, 0, 64, 91
1, 40308, Note_on_c, 0, 82, 68
1, 40318, Note_off_c, 0, 46, 34
1, 40319, Control_c, 0, 64, 95
1, 40331, Poly_aftertouch_c, 0, 39, 0
1, 40334, Control_c, 0, 64, 97
1, 40389, Note_off_c, 0, 82, 64
1, 40391, Note_on_c, 0, 87, 75
1, 40393, Note_off_c, 0, 79, 59
1, 40452, Control_c, 0, 64, 96
1, 40467, Control_c, 0, 64, 94
1, 40475, Note_on_c, 0, 82, 71
1, 40482, Control_c, 0, 64, 93
1, 40496, Control_c, 0, 64, 91
1, 40511, Control_c, 0, 64, 90
1, 40526, Control_c, 0, 64, 88
1, 40534, Note_off_c, 0, 87, 56
1, 40540, Control_c, 0, 64, 87
1, 40543, Note_off_c, 0, 82, 64
1, 40554, Note_on_c, 0, 79, 62
1, 40555, Control_c, 0, 64, 86
1, 40570, Control_c, 0, 64, 84
1, 40585, Control_c, 0, 64, 82
1, 40600, Control_c, 0, 64, 80
1, 40615, Control_c, 0, 64, 79
1, 40630, Control_c, 0, 64, 77
1, 40636, Note_on_c, 0, 82, 69
1, 40644, Control_c, 0, 64, 75
1, 40650, Note_off_c, 0, 79, 56
1, 40667, Control_c, 0, 64, 72
1, 40682, Control_c, 0, 64, 68
1, 40696, Control_c, 0, 64, 63
1, 40711, Control_c, 0, 64, 56
1, 40726, Control_c, 0, 64, 42
1, 40728, Note_off_c, 0, 82, 64
1, 40740, Control_c, 0, 64, 19
1, 40742, Note_on_c, 0, 77, 68
1, 40743, Note_on_c, 0, 50, 55
1, 40746, Note_on_c, 0, 38, 51
1, 40750, Note_on_c, 0, 46, 50
1, 40755, Control_c, 0, 64, 0
1, 40830, Note_on_c, 0, 82, 69
1, 40875, Control_c, 0, 64, 20
1, 40890, Control_c, 0, 64, 33
1, 40892, Note_off_c, 0, 82, 64
1, 40905, Note_on_c, 0, 80, 63
1, 40905, Control_c, 0, 64, 44
1, 40919, Control_c, 0, 64, 54
1, 40922, Note_off_c, 0, 46, 36
1, 40929, Note_off_c, 0, 38, 38
1, 40934, Control_c, 0, 64, 61
1, 40949, Control_c, 0, 64, 66
1, 40963, Note_off_c, 0, 50, 34
1, 40963, Control_c, 0, 64, 67
1, 40973, Note_on_c, 0, 82, 71
1, 40978, Control_c, 0, 64, 69
1, 40993, Control_c, 0, 64, 73
1, 41008, Control_c, 0, 64, 76
1, 41023, Control_c, 0, 64, 79
1, 41037, Note_off_c, 0, 77, 50
1, 41038, Control_c, 0, 64, 81
1, 41047, Note_off_c, 0, 80, 61
1, 41053, Control_c, 0, 64, 83
1, 41059, Note_off_c, 0, 82, 64
1, 41059, Note_on_c, 0, 89, 76
1, 41068, Control_c, 0, 64, 85
1, 41083, Control_c, 0, 64, 88
1, 41098, Control_c, 0, 64, 92
1, 41112, Control_c, 0, 64, 94
1, 41127, Control_c, 0, 64, 95
1, 41145, Note_on_c, 0, 82, 72
1, 41157, Control_c, 0, 64, 96
1, 41186, Control_c, 0, 64, 96
1, 41197, Note_off_c, 0, 89, 57
1, 41199, Note_off_c, 0, 82, 64
1, 41205, Note_on_c, 0, 80, 70
1, 41279, Note_on_c, 0, 82, 74
1, 41305, Control_c, 0, 64, 95
1, 41319, Control_c, 0, 64, 88
1, 41334, Control_c, 0, 64, 71
1, 41336, Note_off_c, 0, 80, 54
1, 41349, Control_c, 0, 64, 57
1, 41363, Control_c, 0, 64, 37
1, 41364, Note_off_c, 0, 82, 64
1, 41366, Note_on_c, 0, 62, 66
1, 41375, Note_on_c, 0, 77, 73
1, 41377, Note_on_c, 0, 58, 52
1, 41378, Control_c, 0, 64, 14
1, 41379, Note_on_c, 0, 50, 46
1, 41393, Control_c, 0, 64, 10
1, 41431, Control_c, 0, 64, 14
1, 41445, Control_c, 0, 64, 24
1, 41460, Control_c, 0, 64, 34
1, 41461, Note_on_c, 0, 82, 74
1, 41475, Control_c, 0, 64, 44
1, 41490, Control_c, 0, 64, 54
1, 41505, Control_c, 0, 64, 63
1, 41519, Control_c, 0, 64, 72
1, 41520, Note_off_c, 0, 82, 64
1, 41531, Note_on_c, 0, 80, 74
1, 41534, Control_c, 0, 64, 78
1, 41549, Control_c, 0, 64, 79
1, 41564, Control_c, 0, 64, 81
1, 41578, Control_c, 0, 64, 84
1, 41587, Note_off_c, 0, 50, 52
1, 41593, Note_off_c, 0, 62, 47
1, 41594, Control_c, 0, 64, 88
1, 41604, Note_on_c, 0, 82, 76
1, 41609, Control_c, 0, 64, 93
1, 41624, Control_c, 0, 64, 97
1, 41634, Note_off_c, 0, 58, 35
1, 41639, Control_c, 0, 64, 100
1, 41653, Control_c, 0, 64, 103
1, 41667, Control_c, 0, 64, 105
1, 41679, Note_on_c, 0, 89, 79
1, 41682, Control_c, 0, 64, 108
1, 41683, Note_off_c, 0, 82, 65
1, 41685, Note_off_c, 0, 80, 61
1, 41697, Control_c, 0, 64, 109
1, 41712, Control_c, 0, 64, 111
1, 41727, Control_c, 0, 64, 113
1, 41764, Note_on_c, 0, 82, 78
1, 41791, Note_off_c, 0, 77, 39
1, 41818, Note_off_c, 0, 82, 64
1, 41826, Note_on_c, 0, 80, 75
1, 41890, Control_c, 0, 64, 110
1, 41902, Note_on_c, 0, 82, 76
1, 41905, Control_c, 0, 64, 105
1, 41920, Control_c, 0, 64, 100
1, 41934, Control_c, 0, 64, 88
1, 41949, Control_c, 0, 64, 71
1, 41956, Note_off_c, 0, 80, 59
1, 41964, Control_c, 0, 64, 58
1, 41979, Control_c, 0, 64, 40
1, 41980, Note_off_c, 0, 89, 20
1, 41993, Control_c, 0, 64, 18
1, 41998, Note_off_c, 0, 82, 65
1, 42001, Note_on_c, 0, 61, 70
1, 42005, Note_on_c, 0, 79, 72
1, 42008, Control_c, 0, 64, 11
1, 42013, Note_on_c, 0, 51, 53
1, 42018, Note_on_c, 0, 49, 53
1, 42023, Control_c, 0, 64, 8
1, 42053, Control_c, 0, 64, 12
1, 42067, Control_c, 0, 64, 23
1, 42082, Control_c, 0, 64, 35
1, 42083, Note_on_c, 0, 87, 78
1, 42097, Control_c, 0, 64, 47
1, 42112, Control_c, 0, 64, 58
1, 42127, Control_c, 0, 64, 67
1, 42141, Control_c, 0, 64, 79
1, 42150, Note_off_c, 0, 87, 66
1, 42156, Control_c, 0, 64, 83
1, 42170, Note_on_c, 0, 82, 77
1, 42179, Control_c, 0, 64, 85
1, 42193, Control_c, 0, 64, 88
1, 42208, Control_c, 0, 64, 91
1, 42223, Control_c, 0, 64, 96
1, 42238, Control_c, 0, 64, 101
1, 42239, Note_on_c, 0, 87, 77
1, 42253, Control_c, 0, 64, 107
1, 42267, Control_c, 0, 64, 111
1, 42274, Note_off_c, 0, 61, 61
1, 42282, Control_c, 0, 64, 114
1, 42315, Note_on_c, 0, 91, 89
1, 42323, Note_off_c, 0, 87, 66
1, 42325, Note_off_c, 0, 82, 61
1, 42329, Note_off_c, 0, 49, 34
1, 42331, Note_off_c, 0, 51, 32
1, 42373, Note_off_c, 0, 79, 32
1, 42399, Note_on_c, 0, 87, 75
1, 42402, Control_c, 0, 64, 113
1, 42416, Control_c, 0, 64, 109
1, 42431, Control_c, 0, 64, 106
1, 42446, Control_c, 0, 64, 103
1, 42447, Note_off_c, 0, 91, 56
1, 42460, Note_off_c, 0, 87, 65
1, 42461, Control_c, 0, 64, 101
1, 42469, Note_on_c, 0, 82, 77
1, 42476, Control_c, 0, 64, 98
1, 42490, Control_c, 0, 64, 95
1, 42505, Control_c, 0, 64, 92
1, 42520, Control_c, 0, 64, 89
1, 42535, Control_c, 0, 64, 85
1, 42540, Note_on_c, 0, 87, 75
1, 42548, Note_off_c, 0, 82, 62
1, 42550, Control_c, 0, 64, 80
1, 42564, Control_c, 0, 64, 76
1, 42579, Control_c, 0, 64, 72
1, 42594, Control_c, 0, 64, 69
1, 42609, Control_c, 0, 64, 66
1, 42624, Control_c, 0, 64, 61
1, 42639, Control_c, 0, 64, 53
1, 42640, Note_off_c, 0, 87, 64
1, 42654, Note_on_c, 0, 80, 70
1, 42654, Control_c, 0, 64, 41
1, 42668, Control_c, 0, 64, 25
1, 42676, Note_on_c, 0, 60, 50
1, 42683, Note_on_c, 0, 51, 42
1, 42683, Control_c, 0, 64, 8
1, 42695, Note_on_c, 0, 48, 39
1, 42698, Control_c, 0, 64, 0
1, 42744, Note_on_c, 0, 92, 79
1, 42787, Control_c, 0, 64, 22
1, 42802, Control_c, 0, 64, 33
1, 42805, Note_off_c, 0, 51, 51
1, 42815, Note_off_c, 0, 92, 65
1, 42815, Note_off_c, 0, 48, 58
1, 42816, Control_c, 0, 64, 44
1, 42820, Note_on_c, 0, 87, 82
1, 42824, Note_off_c, 0, 60, 58
1, 42826, Note_off_c, 0, 80, 0
1, 42831, Control_c, 0, 64, 54
1, 42846, Control_c, 0, 64, 63
1, 42861, Control_c, 0, 64, 69
1, 42863, Poly_aftertouch_c, 0, 80, 127
1, 42876, Control_c, 0, 64, 70
1, 42889, Poly_aftertouch_c, 0, 80, 0
1, 42890, Control_c, 0, 64, 64
1, 42894, Note_on_c, 0, 92, 81
1, 42913, Control_c, 0, 64, 54
1, 42928, Control_c, 0, 64, 40
1, 42942, Control_c, 0, 64, 33
1, 42957, Control_c, 0, 64, 33
1, 42970, Note_off_c, 0, 87, 51
1, 42972, Control_c, 0, 64, 38
1, 42980, Note_on_c, 0, 51, 56
1, 42982, Note_on_c, 0, 59, 65
1, 42984, Note_on_c, 0, 81, 82
1, 42987, Note_off_c, 0, 92, 64
1, 42987, Control_c, 0, 64, 46
1, 42991, Note_on_c, 0, 47, 58
1, 43002, Control_c, 0, 64, 56
1, 43016, Control_c, 0, 64, 63
1, 43031, Control_c, 0, 64, 69
1, 43035, Note_off_c, 0, 47, 62
1, 43046, Control_c, 0, 64, 74
1, 43061, Note_on_c, 0, 93, 90
1, 43061, Control_c, 0, 64, 76
1, 43067, Note_off_c, 0, 51, 63
1, 43070, Note_off_c, 0, 59, 62
1, 43076, Control_c, 0, 64, 78
1, 43090, Control_c, 0, 64, 82
1, 43092, Note_off_c, 0, 81, 58
1, 43105, Control_c, 0, 64, 86
1, 43120, Control_c, 0, 64, 90
1, 43135, Note_off_c, 0, 93, 63
1, 43135, Control_c, 0, 64, 91
1, 43137, Note_on_c, 0, 87, 84
1, 43149, Control_c, 0, 64, 92
1, 43210, Control_c, 0, 64, 91
1, 43211, Note_on_c, 0, 93, 85
1, 43225, Control_c, 0, 64, 85
1, 43239, Control_c, 0, 64, 72
1, 43254, Control_c, 0, 64, 61
1, 43265, Note_off_c, 0, 87, 63
1, 43269, Control_c, 0, 64, 48
1, 43284, Control_c, 0, 64, 31
1, 43299, Control_c, 0, 64, 16
1, 43303, Note_on_c, 0, 81, 82
1, 43303, Note_on_c, 0, 71, 68
1, 43305, Note_off_c, 0, 93, 62
1, 43313, Note_on_c, 0, 63, 57
1, 43313, Control_c, 0, 64, 0
1, 43314, Note_on_c, 0, 59, 59
1, 43372, Control_c, 0, 64, 17
1, 43380, Note_on_c, 0, 93, 87
1, 43387, Control_c, 0, 64, 32
1, 43402, Control_c, 0, 64, 44
1, 43417, Control_c, 0, 64, 56
1, 43420, Note_off_c, 0, 59, 60
1, 43432, Control_c, 0, 64, 65
1, 43447, Control_c, 0, 64, 72
1, 43450, Note_off_c, 0, 93, 65
1, 43452, Note_on_c, 0, 87, 85
1, 43458, Note_off_c, 0, 63, 63
1, 43461, Control_c, 0, 64, 75
1, 43466, Note_off_c, 0, 71, 64
1, 43476, Control_c, 0, 64, 76
1, 43485, Note_off_c, 0, 81, 50
1, 43491, Control_c, 0, 64, 78
1, 43506, Control_c, 0, 64, 80
1, 43521, Control_c, 0, 64, 83
1, 43521, Note_on_c, 0, 93, 89
1, 43536, Control_c, 0, 64, 86
1, 43592, Note_off_c, 0, 87, 57
1, 43595, Control_c, 0, 64, 78
1, 43610, Note_off_c, 0, 93, 64
1, 43610, Control_c, 0, 64, 65
1, 43622, Note_on_c, 0, 82, 87
1, 43625, Control_c, 0, 64, 48
1, 43629, Note_on_c, 0, 70, 73
1, 43632, Note_on_c, 0, 63, 61
1, 43639, Control_c, 0, 64, 29
1, 43640, Note_on_c, 0, 58, 58
1, 43661, Control_c, 0, 64, 22
1, 43691, Control_c, 0, 64, 24
1, 43705, Note_on_c, 0, 94, 95
1, 43706, Control_c, 0, 64, 31
1, 43721, Control_c, 0, 64, 43
1, 43736, Control_c, 0, 64, 53
1, 43751, Control_c, 0, 64, 63
1, 43759, Note_off_c, 0, 58, 61
1, 43765, Control_c, 0, 64, 72
1, 43777, Note_off_c, 0, 70, 57
1, 43780, Note_on_c, 0, 87, 87
1, 43780, Control_c, 0, 64, 79
1, 43788, Note_off_c, 0, 94, 67
1, 43795, Control_c, 0, 64, 80
1, 43807, Note_off_c, 0, 63, 32
1, 43855, Note_on_c, 0, 94, 89
1, 43874, Note_off_c, 0, 82, 59
1, 43900, Control_c, 0, 64, 77
1, 43914, Control_c, 0, 64, 65
1, 43929, Control_c, 0, 64, 53
1, 43944, Control_c, 0, 64, 32
1, 43950, Note_on_c, 0, 68, 77
1, 43954, Note_on_c, 0, 82, 93
1, 43959, Control_c, 0, 64, 0
1, 43959, Note_on_c, 0, 56, 60
1, 43962, Note_on_c, 0, 63, 61
1, 43964, Note_off_c, 0, 94, 67
1, 43990, Note_off_c, 0, 87, 62
1, 44040, Note_on_c, 0, 94, 93
1, 44049, Control_c, 0, 64, 24
1, 44063, Control_c, 0, 64, 37
1, 44078, Control_c, 0, 64, 49
1, 44093, Control_c, 0, 64, 60
1, 44103, Note_off_c, 0, 56, 59
1, 44108, Control_c, 0, 64, 70
1, 44122, Note_on_c, 0, 87, 89
1, 44123, Note_off_c, 0, 63, 56
1, 44123, Control_c, 0, 64, 76
1, 44138, Note_off_c, 0, 94, 66
1, 44138, Note_off_c, 0, 68, 57
1, 44152, Control_c, 0, 64, 77
1, 44167, Control_c, 0, 64, 77
1, 44182, Control_c, 0, 64, 78
1, 44196, Control_c, 0, 64, 78
1, 44204, Note_on_c, 0, 94, 94
1, 44213, Note_off_c, 0, 82, 59
1, 44270, Control_c, 0, 64, 76
1, 44285, Control_c, 0, 64, 72
1, 44300, Control_c, 0, 64, 65
1, 44315, Control_c, 0, 64, 58
1, 44327, Note_on_c, 0, 83, 84
1, 44329, Control_c, 0, 64, 46
1, 44337, Note_on_c, 0, 67, 64
1, 44344, Control_c, 0, 64, 30
1, 44347, Note_on_c, 0, 55, 53
1, 44350, Note_on_c, 0, 63, 54
1, 44356, Note_off_c, 0, 87, 58
1, 44359, Note_off_c, 0, 94, 64
1, 44359, Control_c, 0, 64, 12
1, 44374, Control_c, 0, 64, 0
1, 44460, Note_on_c, 0, 95, 98
1, 44515, Control_c, 0, 64, 23
1, 44530, Control_c, 0, 64, 35
1, 44536, Note_off_c, 0, 55, 52
1, 44544, Control_c, 0, 64, 46
1, 44559, Control_c, 0, 64, 56
1, 44566, Note_on_c, 0, 87, 85
1, 44574, Control_c, 0, 64, 62
1, 44588, Control_c, 0, 64, 65
1, 44592, Note_off_c, 0, 95, 64
1, 44603, Control_c, 0, 64, 66
1, 44618, Control_c, 0, 64, 68
1, 44623, Note_off_c, 0, 63, 34
1, 44633, Control_c, 0, 64, 70
1, 44648, Control_c, 0, 64, 72
1, 44651, Note_off_c, 0, 67, 53
1, 44653, Note_off_c, 0, 83, 56
1, 44663, Control_c, 0, 64, 72
1, 44682, Note_on_c, 0, 95, 96
1, 44778, Note_off_c, 0, 87, 65
1, 44791, Note_off_c, 0, 95, 63
1, 44827, Control_c, 0, 64, 72
1, 44842, Control_c, 0, 64, 71
1, 44856, Control_c, 0, 64, 71
1, 44886, Control_c, 0, 64, 70
1, 44901, Control_c, 0, 64, 70
1, 44916, Control_c, 0, 64, 69
1, 44960, Control_c, 0, 64, 69
1, 44990, Control_c, 0, 64, 68
1, 45005, Control_c, 0, 64, 68
1, 45019, Control_c, 0, 64, 67
1, 45034, Control_c, 0, 64, 67
1, 45049, Control_c, 0, 64, 66
1, 45064, Control_c, 0, 64, 65
1, 45079, Control_c, 0, 64, 65
1, 45093, Control_c, 0, 64, 64
1, 45108, Control_c, 0, 64, 64
1, 45123, Control_c, 0, 64, 63
1, 45137, Control_c, 0, 64, 62
1, 45152, Control_c, 0, 64, 61
1, 45175, Control_c, 0, 64, 59
1, 45190, Control_c, 0, 64, 58
1, 45205, Control_c, 0, 64, 56
1, 45219, Control_c, 0, 64, 55
1, 45234, Control_c, 0, 64, 54
1, 45249, Control_c, 0, 64, 52
1, 45264, Control_c, 0, 64, 52
1, 45279, Control_c, 0, 64, 51
1, 45283, Note_on_c, 0, 96, 60
1, 45293, Control_c, 0, 64, 49
1, 45308, Control_c, 0, 64, 47
1, 45323, Control_c, 0, 64, 45
1, 45337, Control_c, 0, 64, 43
1, 45352, Control_c, 0, 64, 39
1, 45367, Control_c, 0, 64, 35
1, 45382, Control_c, 0, 64, 29
1, 45396, Control_c, 0, 64, 20
1, 45411, Control_c, 0, 64, 0
1, 45471, Control_c, 0, 67, 9
1, 45485, Control_c, 0, 67, 11
1, 45500, Control_c, 0, 67, 14
1, 45511, Note_on_c, 0, 80, 41
1, 45515, Control_c, 0, 67, 16
1, 45529, Control_c, 0, 67, 19
1, 45544, Control_c, 0, 67, 21
1, 45559, Control_c, 0, 67, 25
1, 45574, Control_c, 0, 64, 17
1, 45574, Control_c, 0, 67, 28
1, 45590, Control_c, 0, 64, 26
1, 45590, Control_c, 0, 67, 31
1, 45605, Control_c, 0, 64, 33
1, 45605, Control_c, 0, 67, 33
1, 45620, Control_c, 0, 64, 40
1, 45620, Control_c, 0, 67, 35
1, 45634, Control_c, 0, 64, 48
1, 45634, Control_c, 0, 67, 37
1, 45649, Control_c, 0, 64, 54
1, 45649, Control_c, 0, 67, 38
1, 45664, Control_c, 0, 64, 59
1, 45664, Control_c, 0, 67, 40
1, 45679, Control_c, 0, 64, 61
1, 45679, Control_c, 0, 67, 42
1, 45694, Control_c, 0, 64, 62
1, 45694, Control_c, 0, 67, 44
1, 45703, Note_on_c, 0, 68, 35
1, 45708, Control_c, 0, 64, 63
1, 45708, Control_c, 0, 67, 45
1, 45723, Control_c, 0, 64, 64
1, 45723, Control_c, 0, 67, 47
1, 45738, Control_c, 0, 64, 65
1, 45738, Control_c, 0, 67, 48
1, 45753, Control_c, 0, 64, 66
1, 45753, Control_c, 0, 67, 49
1, 45767, Control_c, 0, 64, 67
1, 45767, Control_c, 0, 67, 52
1, 45782, Control_c, 0, 67, 54
1, 45797, Control_c, 0, 67, 56
1, 45812, Control_c, 0, 67, 58
1, 45827, Control_c, 0, 67, 59
1, 45841, Control_c, 0, 67, 60
1, 45845, Note_off_c, 0, 80, 40
1, 45855, Note_on_c, 0, 84, 59
1, 45953, Control_c, 0, 67, 61
1, 45967, Control_c, 0, 67, 61
1, 45997, Control_c, 0, 64, 67
1, 46012, Control_c, 0, 64, 66
1, 46027, Control_c, 0, 64, 66
1, 46041, Control_c, 0, 64, 65
1, 46041, Control_c, 0, 67, 62
1, 46056, Control_c, 0, 64, 64
1, 46071, Control_c, 0, 64, 63
1, 46081, Note_on_c, 0, 94, 71
1, 46086, Control_c, 0, 64, 61
1, 46101, Control_c, 0, 64, 60
1, 46101, Control_c, 0, 67, 62
1, 46115, Control_c, 0, 64, 57
1, 46115, Control_c, 0, 67, 63
1, 46130, Control_c, 0, 64, 54
1, 46145, Control_c, 0, 64, 51
1, 46159, Control_c, 0, 64, 47
1, 46174, Control_c, 0, 64, 43
1, 46189, Control_c, 0, 64, 38
1, 46204, Control_c, 0, 64, 28
1, 46207, Poly_aftertouch_c, 0, 95, 127
1, 46219, Control_c, 0, 64, 16
1, 46234, Control_c, 0, 64, 0
1, 46239, Note_off_c, 0, 84, 38
1, 46244, Note_on_c, 0, 79, 50
1, 46248, Note_off_c, 0, 96, 44
1, 46255, Poly_aftertouch_c, 0, 95, 0
1, 46270, Note_off_c, 0, 68, 42
1, 46367, Control_c, 0, 64, 10
1, 46367, Control_c, 0, 67, 62
1, 46383, Control_c, 0, 64, 21
1, 46383, Control_c, 0, 67, 62
1, 46398, Control_c, 0, 64, 27
1, 46413, Control_c, 0, 64, 32
1, 46422, Note_on_c, 0, 67, 41
1, 46427, Control_c, 0, 64, 37
1, 46442, Control_c, 0, 64, 42
1, 46457, Control_c, 0, 64, 46
1, 46472, Control_c, 0, 64, 50
1, 46487, Control_c, 0, 64, 53
1, 46502, Control_c, 0, 64, 54
1, 46502, Control_c, 0, 67, 61
1, 46517, Control_c, 0, 64, 55
1, 46517, Control_c, 0, 67, 61
1, 46531, Control_c, 0, 64, 57
1, 46531, Control_c, 0, 67, 60
1, 46546, Control_c, 0, 64, 59
1, 46546, Control_c, 0, 67, 59
1, 46561, Control_c, 0, 64, 60
1, 46567, Note_off_c, 0, 79, 36
1, 46576, Control_c, 0, 64, 62
1, 46576, Control_c, 0, 67, 59
1, 46582, Note_on_c, 0, 82, 53
1, 46590, Control_c, 0, 64, 63
1, 46590, Control_c, 0, 67, 58
1, 46605, Control_c, 0, 64, 64
1, 46605, Control_c, 0, 67, 57
1, 46620, Control_c, 0, 67, 57
1, 46635, Control_c, 0, 64, 64
1, 46687, Control_c, 0, 67, 56
1, 46702, Control_c, 0, 67, 56
1, 46717, Control_c, 0, 67, 55
1, 46746, Control_c, 0, 64, 64
1, 46746, Control_c, 0, 67, 55
1, 46761, Control_c, 0, 64, 63
1, 46776, Control_c, 0, 64, 63
1, 46783, Note_on_c, 0, 92, 70
1, 46790, Control_c, 0, 64, 61
1, 46805, Control_c, 0, 64, 60
1, 46820, Control_c, 0, 64, 57
1, 46835, Control_c, 0, 64, 55
1, 46850, Control_c, 0, 64, 51
1, 46864, Control_c, 0, 64, 47
1, 46879, Control_c, 0, 64, 37
1, 46895, Control_c, 0, 64, 23
1, 46909, Control_c, 0, 64, 0
1, 46953, Note_on_c, 0, 77, 52
1, 46954, Control_c, 0, 67, 55
1, 46958, Note_off_c, 0, 67, 48
1, 47002, Note_off_c, 0, 82, 25
1, 47024, Poly_aftertouch_c, 0, 83, 127
1, 47037, Poly_aftertouch_c, 0, 90, 127
1, 47043, Control_c, 0, 64, 22
1, 47057, Control_c, 0, 64, 31
1, 47072, Control_c, 0, 64, 38
1, 47087, Control_c, 0, 64, 46
1, 47102, Control_c, 0, 64, 53
1, 47116, Control_c, 0, 64, 58
1, 47123, Note_on_c, 0, 65, 46
1, 47131, Control_c, 0, 64, 61
1, 47146, Control_c, 0, 64, 63
1, 47159, Note_off_c, 0, 94, 32
1, 47161, Control_c, 0, 64, 64
1, 47177, Control_c, 0, 64, 64
1, 47192, Control_c, 0, 64, 66
1, 47192, Control_c, 0, 67, 55
1, 47206, Control_c, 0, 64, 67
1, 47208, Note_off_c, 0, 77, 40
1, 47210, Poly_aftertouch_c, 0, 90, 0
1, 47221, Control_c, 0, 64, 68
1, 47221, Control_c, 0, 67, 54
1, 47222, Poly_aftertouch_c, 0, 83, 0
1, 47236, Control_c, 0, 64, 68
1, 47280, Control_c, 0, 64, 69
1, 47289, Note_on_c, 0, 93, 69
1, 47295, Control_c, 0, 67, 54
1, 47352, Note_off_c, 0, 92, 61
1, 47357, Note_off_c, 0, 65, 43
1, 47495, Control_c, 0, 64, 68
1, 47510, Control_c, 0, 64, 68
1, 47525, Control_c, 0, 64, 67
1, 47530, Note_on_c, 0, 94, 73
1, 47539, Control_c, 0, 64, 66
1, 47554, Control_c, 0, 64, 64
1, 47554, Control_c, 0, 67, 53
1, 47569, Control_c, 0, 64, 62
1, 47569, Control_c, 0, 67, 53
1, 47584, Control_c, 0, 64, 59
1, 47599, Control_c, 0, 64, 56
1, 47614, Control_c, 0, 64, 52
1, 47629, Control_c, 0, 64, 48
1, 47629, Control_c, 0, 67, 52
1, 47633, Note_off_c, 0, 93, 58
1, 47644, Control_c, 0, 64, 43
1, 47659, Control_c, 0, 64, 36
1, 47659, Control_c, 0, 67, 52
1, 47673, Control_c, 0, 64, 28
1, 47688, Control_c, 0, 64, 15
1, 47703, Control_c, 0, 64, 0
1, 47703, Control_c, 0, 67, 51
1, 47705, Note_on_c, 0, 79, 48
1, 47732, Control_c, 0, 67, 51
1, 47762, Control_c, 0, 67, 50
1, 47777, Control_c, 0, 67, 50
1, 47792, Control_c, 0, 67, 49
1, 47806, Control_c, 0, 64, 21
1, 47806, Control_c, 0, 67, 48
1, 47821, Control_c, 0, 64, 30
1, 47821, Control_c, 0, 67, 45
1, 47836, Control_c, 0, 64, 38
1, 47836, Control_c, 0, 67, 42
1, 47851, Control_c, 0, 64, 45
1, 47851, Control_c, 0, 67, 37
1, 47866, Control_c, 0, 64, 52
1, 47866, Control_c, 0, 67, 33
1, 47880, Control_c, 0, 64, 58
1, 47880, Control_c, 0, 67, 28
1, 47883, Note_on_c, 0, 67, 40
1, 47895, Control_c, 0, 64, 61
1, 47895, Control_c, 0, 67, 25
1, 47910, Control_c, 0, 64, 62
1, 47910, Control_c, 0, 67, 22
1, 47925, Control_c, 0, 64, 63
1, 47925, Control_c, 0, 67, 20
1, 47939, Control_c, 0, 64, 64
1, 47939, Control_c, 0, 67, 19
1, 47954, Control_c, 0, 64, 65
1, 47954, Control_c, 0, 67, 17
1, 47969, Control_c, 0, 64, 66
1, 47969, Control_c, 0, 67, 15
1, 47976, Note_off_c, 0, 79, 40
1, 47985, Control_c, 0, 64, 67
1, 47985, Control_c, 0, 67, 13
1, 48000, Control_c, 0, 64, 67
1, 48000, Control_c, 0, 67, 11
1, 48015, Control_c, 0, 67, 9
1, 48029, Control_c, 0, 67, 0
1, 48045, Note_on_c, 0, 82, 48
1, 48185, Control_c, 0, 64, 67
1, 48200, Control_c, 0, 64, 66
1, 48215, Control_c, 0, 64, 66
1, 48229, Control_c, 0, 64, 65
1, 48241, Note_on_c, 0, 92, 70
1, 48244, Control_c, 0, 64, 65
1, 48259, Control_c, 0, 64, 64
1, 48274, Control_c, 0, 64, 62
1, 48289, Control_c, 0, 64, 59
1, 48303, Control_c, 0, 64, 56
1, 48318, Control_c, 0, 64, 52
1, 48333, Control_c, 0, 64, 49
1, 48347, Poly_aftertouch_c, 0, 89, 127
1, 48348, Control_c, 0, 64, 44
1, 48362, Control_c, 0, 64, 36
1, 48377, Control_c, 0, 64, 22
1, 48391, Control_c, 0, 64, 0
1, 48413, Note_on_c, 0, 77, 54
1, 48432, Note_off_c, 0, 94, 63
1, 48440, Note_off_c, 0, 67, 43
1, 48495, Control_c, 0, 64, 14
1, 48509, Control_c, 0, 64, 23
1, 48524, Control_c, 0, 64, 28
1, 48526, Poly_aftertouch_c, 0, 90, 127
1, 48535, Note_off_c, 0, 82, 39
1, 48539, Control_c, 0, 64, 33
1, 48553, Control_c, 0, 64, 39
1, 48568, Control_c, 0, 64, 45
1, 48575, Poly_aftertouch_c, 0, 89, 0
1, 48583, Control_c, 0, 64, 52
1, 48598, Control_c, 0, 64, 57
1, 48603, Note_on_c, 0, 65, 45
1, 48613, Control_c, 0, 64, 60
1, 48627, Control_c, 0, 64, 63
1, 48642, Control_c, 0, 64, 64
1, 48657, Control_c, 0, 64, 65
1, 48672, Control_c, 0, 64, 66
1, 48687, Control_c, 0, 64, 67
1, 48702, Control_c, 0, 64, 69
1, 48705, Note_off_c, 0, 77, 41
1, 48717, Control_c, 0, 64, 70
1, 48732, Control_c, 0, 64, 71
1, 48747, Control_c, 0, 64, 71
1, 48760, Note_on_c, 0, 80, 61
1, 48761, Control_c, 0, 64, 72
1, 48807, Note_off_c, 0, 65, 41
1, 48918, Control_c, 0, 64, 71
1, 48932, Control_c, 0, 64, 70
1, 48947, Control_c, 0, 64, 68
1, 48962, Control_c, 0, 64, 66
1, 48964, Note_on_c, 0, 91, 63
1, 48976, Control_c, 0, 64, 63
1, 48982, Note_on_c, 0, 75, 39
1, 48991, Control_c, 0, 64, 58
1, 49006, Control_c, 0, 64, 50
1, 49021, Control_c, 0, 64, 38
1, 49036, Control_c, 0, 64, 25
1, 49051, Control_c, 0, 64, 14
1, 49066, Control_c, 0, 64, 0
1, 49104, Note_off_c, 0, 80, 31
1, 49107, Note_off_c, 0, 92, 35
1, 49155, Control_c, 0, 64, 8
1, 49155, Note_on_c, 0, 79, 56
1, 49167, Note_on_c, 0, 63, 42
1, 49170, Control_c, 0, 64, 24
1, 49182, Poly_aftertouch_c, 0, 90, 0
1, 49184, Control_c, 0, 64, 33
1, 49199, Control_c, 0, 64, 40
1, 49206, Note_off_c, 0, 75, 31
1, 49214, Control_c, 0, 64, 47
1, 49229, Control_c, 0, 64, 52
1, 49240, Note_off_c, 0, 91, 32
1, 49244, Control_c, 0, 64, 56
1, 49258, Control_c, 0, 64, 57
1, 49288, Control_c, 0, 64, 57
1, 49302, Control_c, 0, 64, 55
1, 49317, Control_c, 0, 64, 48
1, 49332, Control_c, 0, 64, 35
1, 49337, Note_on_c, 0, 80, 62
1, 49347, Control_c, 0, 64, 18
1, 49355, Note_on_c, 0, 65, 42
1, 49362, Control_c, 0, 64, 0
1, 49423, Note_off_c, 0, 63, 43
1, 49465, Control_c, 0, 64, 20
1, 49480, Control_c, 0, 64, 29
1, 49495, Control_c, 0, 64, 37
1, 49510, Control_c, 0, 64, 44
1, 49525, Control_c, 0, 64, 52
1, 49528, Note_on_c, 0, 82, 68
1, 49539, Control_c, 0, 64, 58
1, 49545, Note_on_c, 0, 67, 48
1, 49554, Control_c, 0, 64, 61
1, 49569, Control_c, 0, 64, 62
1, 49626, Note_off_c, 0, 80, 37
1, 49680, Note_off_c, 0, 79, 32
1, 49681, Control_c, 0, 64, 62
1, 49696, Note_off_c, 0, 65, 40
1, 49711, Control_c, 0, 64, 61
1, 49726, Control_c, 0, 64, 60
1, 49727, Note_off_c, 0, 67, 30
1, 49740, Control_c, 0, 64, 59
1, 49755, Control_c, 0, 64, 58
1, 49770, Control_c, 0, 64, 57
1, 49785, Control_c, 0, 64, 55
1, 49800, Control_c, 0, 64, 53
1, 49814, Control_c, 0, 64, 50
1, 49815, Note_on_c, 0, 86, 59
1, 49829, Control_c, 0, 64, 47
1, 49844, Control_c, 0, 64, 43
1, 49849, Note_off_c, 0, 82, 42
1, 49859, Control_c, 0, 64, 38
1, 49873, Control_c, 0, 64, 32
1, 49888, Control_c, 0, 64, 25
1, 49903, Control_c, 0, 64, 16
1, 49918, Control_c, 0, 64, 0
1, 50049, Note_on_c, 0, 84, 59
1, 50052, Control_c, 0, 64, 14
1, 50058, Note_on_c, 0, 70, 36
1, 50067, Control_c, 0, 64, 25
1, 50081, Control_c, 0, 64, 33
1, 50096, Control_c, 0, 64, 40
1, 50111, Control_c, 0, 64, 48
1, 50125, Control_c, 0, 64, 55
1, 50140, Control_c, 0, 64, 60
1, 50155, Control_c, 0, 64, 62
1, 50159, Note_off_c, 0, 86, 28
1, 50170, Control_c, 0, 64, 63
1, 50185, Control_c, 0, 64, 63
1, 50199, Control_c, 0, 64, 64
1, 50214, Control_c, 0, 64, 65
1, 50229, Control_c, 0, 64, 67
1, 50241, Note_on_c, 0, 68, 45
1, 50244, Control_c, 0, 64, 68
1, 50248, Note_off_c, 0, 70, 41
1, 50259, Control_c, 0, 64, 68
1, 50273, Control_c, 0, 64, 69
1, 50297, Note_off_c, 0, 68, 51
1, 50317, Control_c, 0, 64, 69
1, 50332, Control_c, 0, 64, 70
1, 50347, Control_c, 0, 64, 70
1, 50419, Note_on_c, 0, 72, 51
1, 50434, Note_on_c, 0, 56, 38
1, 50449, Note_off_c, 0, 84, 41
1, 50519, Control_c, 0, 64, 69
1, 50534, Control_c, 0, 64, 69
1, 50547, Note_off_c, 0, 56, 39
1, 50549, Control_c, 0, 64, 68
1, 50563, Control_c, 0, 64, 66
1, 50578, Control_c, 0, 64, 64
1, 50593, Control_c, 0, 64, 61
1, 50608, Note_on_c, 0, 84, 65
1, 50608, Control_c, 0, 64, 57
1, 50623, Control_c, 0, 64, 53
1, 50638, Control_c, 0, 64, 50
1, 50653, Control_c, 0, 64, 47
1, 50668, Control_c, 0, 64, 44
1, 50683, Control_c, 0, 64, 42
1, 50698, Control_c, 0, 64, 39
1, 50712, Control_c, 0, 64, 36
1, 50727, Control_c, 0, 64, 32
1, 50742, Control_c, 0, 64, 28
1, 50756, Control_c, 0, 64, 23
1, 50771, Control_c, 0, 64, 15
1, 50786, Note_on_c, 0, 82, 67
1, 50786, Control_c, 0, 64, 0
1, 50802, Note_off_c, 0, 72, 45
1, 50809, Note_on_c, 0, 68, 39
1, 50899, Note_off_c, 0, 84, 38
1, 50955, Note_off_c, 0, 68, 54
1, 50970, Note_on_c, 0, 67, 52
1, 50979, Control_c, 0, 64, 16
1, 50994, Control_c, 0, 64, 25
1, 51009, Control_c, 0, 64, 31
1, 51023, Control_c, 0, 64, 38
1, 51038, Control_c, 0, 64, 46
1, 51053, Control_c, 0, 64, 53
1, 51067, Control_c, 0, 64, 59
1, 51082, Control_c, 0, 64, 61
1, 51097, Control_c, 0, 64, 61
1, 51135, Note_on_c, 0, 70, 55
1, 51156, Note_on_c, 0, 55, 41
1, 51156, Note_off_c, 0, 67, 33
1, 51159, Note_off_c, 0, 82, 54
1, 51239, Control_c, 0, 64, 61
1, 51248, Note_off_c, 0, 55, 39
1, 51268, Control_c, 0, 64, 60
1, 51283, Control_c, 0, 64, 59
1, 51298, Control_c, 0, 64, 59
1, 51313, Control_c, 0, 64, 57
1, 51328, Control_c, 0, 64, 55
1, 51328, Note_on_c, 0, 82, 67
1, 51343, Control_c, 0, 64, 52
1, 51358, Control_c, 0, 64, 51
1, 51373, Control_c, 0, 64, 49
1, 51387, Control_c, 0, 64, 48
1, 51402, Control_c, 0, 64, 46
1, 51417, Control_c, 0, 64, 44
1, 51432, Control_c, 0, 64, 42
1, 51447, Control_c, 0, 64, 40
1, 51461, Control_c, 0, 64, 38
1, 51471, Note_off_c, 0, 70, 34
1, 51476, Control_c, 0, 64, 36
1, 51491, Control_c, 0, 64, 34
1, 51505, Control_c, 0, 64, 31
1, 51517, Note_on_c, 0, 80, 65
1, 51520, Control_c, 0, 64, 28
1, 51533, Note_on_c, 0, 67, 41
1, 51535, Control_c, 0, 64, 25
1, 51550, Control_c, 0, 64, 20
1, 51565, Control_c, 0, 64, 14
1, 51579, Control_c, 0, 64, 0
1, 51695, Note_off_c, 0, 82, 40
1, 51699, Note_off_c, 0, 67, 41
1, 51707, Note_on_c, 0, 65, 37
1, 51727, Control_c, 0, 67, 8
1, 51742, Control_c, 0, 67, 9
1, 51757, Control_c, 0, 67, 10
1, 51772, Control_c, 0, 67, 12
1, 51787, Control_c, 0, 64, 13
1, 51787, Control_c, 0, 67, 13
1, 51802, Control_c, 0, 64, 21
1, 51802, Control_c, 0, 67, 15
1, 51817, Control_c, 0, 64, 27
1, 51817, Control_c, 0, 67, 16
1, 51832, Control_c, 0, 64, 31
1, 51832, Control_c, 0, 67, 18
1, 51846, Control_c, 0, 64, 35
1, 51846, Control_c, 0, 67, 20
1, 51861, Control_c, 0, 64, 40
1, 51861, Control_c, 0, 67, 23
1, 51876, Control_c, 0, 64, 45
1, 51876, Control_c, 0, 67, 26
1, 51889, Note_on_c, 0, 81, 64
1, 51897, Control_c, 0, 64, 51
1, 51897, Control_c, 0, 67, 28
1, 51903, Note_on_c, 0, 66, 48
1, 51912, Control_c, 0, 64, 55
1, 51912, Control_c, 0, 67, 31
1, 51923, Note_off_c, 0, 65, 39
1, 51927, Control_c, 0, 64, 57
1, 51927, Control_c, 0, 67, 35
1, 51942, Control_c, 0, 64, 59
1, 51942, Control_c, 0, 67, 38
1, 51957, Control_c, 0, 64, 60
1, 51957, Control_c, 0, 67, 40
1, 51970, Note_off_c, 0, 80, 38
1, 51973, Control_c, 0, 67, 44
1, 51987, Note_off_c, 0, 81, 59
1, 51988, Control_c, 0, 67, 47
1, 52002, Control_c, 0, 64, 61
1, 52002, Control_c, 0, 67, 50
1, 52017, Control_c, 0, 67, 52
1, 52026, Note_off_c, 0, 66, 34
1, 52032, Control_c, 0, 67, 54
1, 52047, Control_c, 0, 67, 55
1, 52062, Control_c, 0, 67, 56
1, 52076, Control_c, 0, 67, 58
1, 52091, Control_c, 0, 67, 59
1, 52106, Control_c, 0, 64, 60
1, 52106, Control_c, 0, 67, 60
1, 52121, Control_c, 0, 64, 60
1, 52121, Control_c, 0, 67, 63
1, 52135, Control_c, 0, 64, 59
1, 52135, Control_c, 0, 67, 64
1, 52150, Control_c, 0, 64, 57
1, 52150, Control_c, 0, 67, 66
1, 52165, Control_c, 0, 64, 54
1, 52165, Control_c, 0, 67, 67
1, 52180, Control_c, 0, 64, 51
1, 52180, Control_c, 0, 67, 68
1, 52181, Note_on_c, 0, 84, 55
1, 52194, Control_c, 0, 64, 47
1, 52194, Control_c, 0, 67, 69
1, 52209, Control_c, 0, 64, 44
1, 52209, Control_c, 0, 67, 69
1, 52224, Control_c, 0, 64, 40
1, 52239, Control_c, 0, 64, 37
1, 52239, Control_c, 0, 67, 70
1, 52254, Control_c, 0, 64, 32
1, 52254, Control_c, 0, 67, 71
1, 52269, Control_c, 0, 64, 27
1, 52269, Control_c, 0, 67, 73
1, 52283, Control_c, 0, 64, 21
1, 52283, Control_c, 0, 67, 74
1, 52298, Control_c, 0, 64, 15
1, 52298, Control_c, 0, 67, 77
1, 52313, Control_c, 0, 64, 8
1, 52313, Control_c, 0, 67, 79
1, 52327, Control_c, 0, 64, 0
1, 52327, Control_c, 0, 67, 83
1, 52342, Control_c, 0, 67, 85
1, 52357, Control_c, 0, 67, 88
1, 52372, Control_c, 0, 67, 90
1, 52387, Control_c, 0, 67, 94
1, 52401, Control_c, 0, 67, 97
1, 52413, Note_on_c, 0, 82, 54
1, 52416, Control_c, 0, 67, 99
1, 52422, Note_on_c, 0, 68, 32
1, 52431, Control_c, 0, 67, 102
1, 52446, Control_c, 0, 67, 104
1, 52461, Control_c, 0, 67, 107
1, 52476, Control_c, 0, 67, 109
1, 52491, Control_c, 0, 67, 112
1, 52505, Control_c, 0, 67, 113
1, 52511, Note_off_c, 0, 84, 39
1, 52520, Control_c, 0, 67, 114
1, 52535, Control_c, 0, 67, 116
1, 52550, Control_c, 0, 64, 15
1, 52550, Control_c, 0, 67, 118
1, 52565, Control_c, 0, 64, 20
1, 52565, Control_c, 0, 67, 119
1, 52580, Control_c, 0, 64, 25
1, 52580, Control_c, 0, 67, 121
1, 52594, Control_c, 0, 64, 31
1, 52594, Control_c, 0, 67, 123
1, 52601, Note_off_c, 0, 68, 42
1, 52607, Note_on_c, 0, 67, 42
1, 52609, Control_c, 0, 64, 37
1, 52609, Control_c, 0, 67, 125
1, 52624, Control_c, 0, 64, 42
1, 52624, Control_c, 0, 67, 127
1, 52639, Control_c, 0, 64, 48
1, 52660, Control_c, 0, 64, 52
1, 52660, Control_c, 0, 67, 127
1, 52675, Control_c, 0, 64, 55
1, 52690, Control_c, 0, 64, 56
1, 52720, Control_c, 0, 64, 57
1, 52735, Control_c, 0, 64, 57
1, 52750, Control_c, 0, 64, 58
1, 52765, Control_c, 0, 64, 58
1, 52778, Note_on_c, 0, 70, 54
1, 52795, Note_on_c, 0, 55, 42
1, 52798, Note_off_c, 0, 82, 40
1, 52799, Note_off_c, 0, 67, 36
1, 52810, Control_c, 0, 64, 58
1, 52839, Control_c, 0, 64, 57
1, 52840, Note_off_c, 0, 55, 47
1, 52869, Control_c, 0, 64, 57
1, 52884, Control_c, 0, 64, 56
1, 52899, Control_c, 0, 64, 56
1, 52914, Control_c, 0, 64, 55
1, 52929, Control_c, 0, 64, 55
1, 52943, Control_c, 0, 64, 54
1, 52958, Control_c, 0, 64, 53
1, 52973, Control_c, 0, 64, 52
1, 52977, Note_on_c, 0, 82, 60
1, 52988, Control_c, 0, 64, 49
1, 53003, Control_c, 0, 64, 47
1, 53003, Control_c, 0, 67, 127
1, 53006, Note_off_c, 0, 70, 41
1, 53017, Control_c, 0, 64, 44
1, 53032, Control_c, 0, 64, 41
1, 53032, Control_c, 0, 67, 126
1, 53047, Control_c, 0, 64, 39
1, 53047, Control_c, 0, 67, 125
1, 53062, Control_c, 0, 64, 35
1, 53076, Control_c, 0, 64, 31
1, 53091, Control_c, 0, 64, 25
1, 53106, Control_c, 0, 64, 20
1, 53121, Control_c, 0, 64, 14
1, 53121, Control_c, 0, 67, 125
1, 53136, Control_c, 0, 64, 0
1, 53136, Control_c, 0, 67, 124
1, 53153, Note_on_c, 0, 80, 59
1, 53179, Note_on_c, 0, 67, 36
1, 53224, Control_c, 0, 67, 124
1, 53228, Note_off_c, 0, 82, 57
1, 53254, Control_c, 0, 67, 123
1, 53283, Control_c, 0, 67, 123
1, 53298, Control_c, 0, 67, 122
1, 53313, Control_c, 0, 64, 17
1, 53313, Control_c, 0, 67, 122
1, 53322, Note_off_c, 0, 67, 44
1, 53328, Control_c, 0, 64, 24
1, 53340, Note_on_c, 0, 65, 44
1, 53343, Control_c, 0, 64, 30
1, 53358, Control_c, 0, 64, 34
1, 53358, Control_c, 0, 67, 121
1, 53373, Control_c, 0, 64, 41
1, 53373, Control_c, 0, 67, 121
1, 53388, Control_c, 0, 64, 47
1, 53410, Control_c, 0, 64, 53
1, 53424, Control_c, 0, 64, 57
1, 53439, Control_c, 0, 64, 59
1, 53439, Control_c, 0, 67, 120
1, 53454, Control_c, 0, 64, 60
1, 53469, Control_c, 0, 64, 62
1, 53469, Control_c, 0, 67, 120
1, 53483, Control_c, 0, 64, 63
1, 53498, Control_c, 0, 64, 64
1, 53498, Control_c, 0, 67, 119
1, 53513, Control_c, 0, 64, 64
1, 53528, Control_c, 0, 64, 65
1, 53543, Note_on_c, 0, 68, 49
1, 53543, Control_c, 0, 64, 66
1, 53558, Control_c, 0, 64, 67
1, 53573, Control_c, 0, 64, 68
1, 53578, Note_on_c, 0, 53, 20
1, 53585, Note_off_c, 0, 80, 56
1, 53588, Control_c, 0, 64, 68
1, 53598, Note_off_c, 0, 65, 45
1, 53601, Note_off_c, 0, 68, 48
1, 53618, Control_c, 0, 64, 69
1, 53618, Control_c, 0, 67, 119
1, 53619, Note_off_c, 0, 53, 55
1, 53634, Control_c, 0, 64, 69
1, 53648, Control_c, 0, 64, 70
1, 53663, Control_c, 0, 67, 118
1, 53737, Control_c, 0, 67, 118
1, 53781, Control_c, 0, 64, 69
1, 53796, Control_c, 0, 64, 68
1, 53796, Control_c, 0, 67, 117
1, 53811, Control_c, 0, 64, 66
1, 53826, Control_c, 0, 64, 63
1, 53826, Control_c, 0, 67, 117
1, 53829, Note_on_c, 0, 79, 45
1, 53832, Note_on_c, 0, 63, 41
1, 53837, Note_on_c, 0, 70, 39
1, 53839, Note_on_c, 0, 55, 39
1, 53841, Control_c, 0, 64, 57
1, 53856, Control_c, 0, 64, 43
1, 53871, Control_c, 0, 64, 29
1, 53886, Control_c, 0, 64, 18
1, 53900, Control_c, 0, 64, 0
1, 53900, Control_c, 0, 67, 116
1, 53915, Control_c, 0, 67, 116
1, 53930, Control_c, 0, 67, 114
1, 53945, Control_c, 0, 67, 112
1, 53960, Control_c, 0, 67, 108
1, 53974, Control_c, 0, 67, 103
1, 53989, Control_c, 0, 64, 22
1, 53989, Control_c, 0, 67, 97
1, 54004, Control_c, 0, 64, 31
1, 54004, Control_c, 0, 67, 89
1, 54019, Control_c, 0, 64, 40
1, 54019, Control_c, 0, 67, 81
1, 54033, Note_off_c, 0, 55, 39
1, 54034, Control_c, 0, 64, 49
1, 54034, Control_c, 0, 67, 72
1, 54047, Note_on_c, 0, 56, 40
1, 54048, Note_on_c, 0, 77, 50
1, 54048, Control_c, 0, 64, 58
1, 54048, Control_c, 0, 67, 61
1, 54054, Note_on_c, 0, 62, 44
1, 54061, Note_off_c, 0, 79, 38
1, 54063, Control_c, 0, 64, 62
1, 54063, Control_c, 0, 67, 51
1, 54069, Note_off_c, 0, 63, 44
1, 54078, Control_c, 0, 64, 63
1, 54078, Control_c, 0, 67, 42
1, 54090, Note_off_c, 0, 70, 26
1, 54092, Control_c, 0, 67, 33
1, 54107, Control_c, 0, 67, 25
1, 54119, Note_off_c, 0, 62, 41
1, 54122, Control_c, 0, 67, 18
1, 54137, Control_c, 0, 64, 62
1, 54137, Control_c, 0, 67, 11
1, 54151, Note_off_c, 0, 77, 36
1, 54155, Note_off_c, 0, 56, 34
1, 54160, Control_c, 0, 67, 0
1, 54174, Control_c, 0, 64, 61
1, 54189, Control_c, 0, 64, 56
1, 54204, Control_c, 0, 64, 46
1, 54219, Control_c, 0, 64, 31
1, 54234, Control_c, 0, 64, 15
1, 54245, Note_on_c, 0, 79, 59
1, 54248, Control_c, 0, 64, 0
1, 54249, Note_on_c, 0, 63, 42
1, 54261, Note_on_c, 0, 55, 35
1, 54261, Note_on_c, 0, 70, 35
1, 54322, Control_c, 0, 64, 10
1, 54337, Control_c, 0, 64, 25
1, 54352, Control_c, 0, 64, 35
1, 54367, Control_c, 0, 64, 44
1, 54383, Control_c, 0, 64, 53
1, 54397, Control_c, 0, 64, 59
1, 54412, Control_c, 0, 64, 62
1, 54422, Note_on_c, 0, 77, 67
1, 54427, Control_c, 0, 64, 63
1, 54433, Note_on_c, 0, 56, 47
1, 54434, Note_on_c, 0, 62, 51
1, 54457, Control_c, 0, 64, 64
1, 54461, Note_off_c, 0, 55, 42
1, 54464, Note_off_c, 0, 79, 47
1, 54471, Control_c, 0, 64, 64
1, 54479, Note_off_c, 0, 63, 44
1, 54489, Note_off_c, 0, 62, 54
1, 54501, Control_c, 0, 64, 65
1, 54503, Note_off_c, 0, 70, 43
1, 54523, Note_off_c, 0, 77, 52
1, 54551, Note_off_c, 0, 56, 36
1, 54560, Control_c, 0, 64, 64
1, 54590, Control_c, 0, 64, 64
1, 54604, Control_c, 0, 64, 63
1, 54619, Control_c, 0, 64, 61
1, 54634, Control_c, 0, 64, 58
1, 54649, Control_c, 0, 64, 53
1, 54664, Control_c, 0, 64, 46
1, 54670, Note_on_c, 0, 79, 67
1, 54679, Control_c, 0, 64, 39
1, 54683, Note_on_c, 0, 70, 53
1, 54685, Note_on_c, 0, 63, 46
1, 54693, Note_on_c, 0, 55, 40
1, 54693, Control_c, 0, 64, 30
1, 54708, Control_c, 0, 64, 15
1, 54723, Control_c, 0, 64, 0
1, 54842, Control_c, 0, 64, 18
1, 54857, Control_c, 0, 64, 30
1, 54871, Control_c, 0, 64, 39
1, 54893, Control_c, 0, 64, 48
1, 54908, Control_c, 0, 64, 58
1, 54923, Control_c, 0, 64, 63
1, 54938, Control_c, 0, 64, 66
1, 54953, Control_c, 0, 64, 67
1, 54968, Control_c, 0, 64, 68
1, 54983, Control_c, 0, 64, 71
1, 54997, Control_c, 0, 64, 74
1, 55012, Control_c, 0, 64, 77
1, 55027, Control_c, 0, 64, 79
1, 55034, Note_off_c, 0, 70, 37
1, 55042, Control_c, 0, 64, 80
1, 55056, Control_c, 0, 64, 80
1, 55071, Control_c, 0, 64, 81
1, 55086, Control_c, 0, 64, 83
1, 55101, Control_c, 0, 64, 84
1, 55116, Control_c, 0, 64, 86
1, 55130, Control_c, 0, 64, 90
1, 55145, Control_c, 0, 64, 94
1, 55160, Control_c, 0, 64, 98
1, 55176, Control_c, 0, 64, 102
1, 55191, Control_c, 0, 64, 106
1, 55206, Control_c, 0, 64, 109
1, 55220, Control_c, 0, 64, 111
1, 55235, Control_c, 0, 64, 114
1, 55250, Control_c, 0, 64, 117
1, 55265, Control_c, 0, 64, 119
1, 55280, Control_c, 0, 64, 122
1, 55398, Control_c, 0, 64, 114
1, 55413, Control_c, 0, 64, 108
1, 55427, Control_c, 0, 64, 103
1, 55442, Control_c, 0, 64, 99
1, 55457, Control_c, 0, 64, 93
1, 55463, Note_on_c, 0, 77, 70
1, 55471, Note_on_c, 0, 70, 53
1, 55471, Control_c, 0, 64, 86
1, 55475, Note_on_c, 0, 56, 47
1, 55486, Note_on_c, 0, 62, 46
1, 55486, Control_c, 0, 64, 77
1, 55501, Control_c, 0, 64, 68
1, 55516, Control_c, 0, 64, 61
1, 55531, Control_c, 0, 64, 52
1, 55546, Control_c, 0, 64, 39
1, 55561, Control_c, 0, 64, 23
1, 55576, Control_c, 0, 64, 0
1, 55581, Note_off_c, 0, 63, 47
1, 55582, Note_off_c, 0, 79, 39
1, 55594, Note_off_c, 0, 55, 38
1, 55701, Control_c, 0, 64, 13
1, 55716, Control_c, 0, 64, 25
1, 55731, Control_c, 0, 64, 34
1, 55746, Control_c, 0, 64, 44
1, 55761, Control_c, 0, 64, 54
1, 55776, Control_c, 0, 64, 63
1, 55790, Control_c, 0, 64, 67
1, 55805, Control_c, 0, 64, 69
1, 55820, Control_c, 0, 64, 70
1, 55835, Control_c, 0, 64, 72
1, 55850, Control_c, 0, 64, 75
1, 55862, Note_off_c, 0, 62, 34
1, 55865, Control_c, 0, 64, 79
1, 55878, Control_c, 0, 64, 82
1, 55893, Control_c, 0, 64, 83
1, 55908, Control_c, 0, 64, 84
1, 55916, Note_off_c, 0, 77, 31
1, 55923, Control_c, 0, 64, 84
1, 55927, Note_off_c, 0, 56, 45
1, 55938, Control_c, 0, 64, 85
1, 55952, Control_c, 0, 64, 86
1, 55968, Control_c, 0, 64, 87
1, 55983, Control_c, 0, 64, 88
1, 56013, Control_c, 0, 64, 89
1, 56028, Control_c, 0, 64, 89
1, 56041, Note_off_c, 0, 70, 38
1, 56175, Control_c, 0, 64, 89
1, 56190, Control_c, 0, 64, 87
1, 56205, Control_c, 0, 64, 84
1, 56220, Control_c, 0, 64, 82
1, 56235, Control_c, 0, 64, 79
1, 56249, Control_c, 0, 64, 75
1, 56264, Control_c, 0, 64, 69
1, 56279, Control_c, 0, 64, 62
1, 56282, Note_on_c, 0, 82, 75
1, 56294, Control_c, 0, 64, 52
1, 56296, Note_on_c, 0, 63, 56
1, 56297, Note_on_c, 0, 70, 57
1, 56302, Note_on_c, 0, 55, 47
1, 56309, Control_c, 0, 64, 39
1, 56324, Control_c, 0, 64, 24
1, 56339, Control_c, 0, 64, 10
1, 56354, Control_c, 0, 64, 0
1, 56435, Control_c, 0, 64, 16
1, 56449, Control_c, 0, 64, 29
1, 56464, Control_c, 0, 64, 39
1, 56479, Control_c, 0, 64, 49
1, 56480, Note_off_c, 0, 55, 0
1, 56494, Control_c, 0, 64, 58
1, 56509, Control_c, 0, 64, 64
1, 56515, Note_on_c, 0, 81, 78
1, 56524, Note_on_c, 0, 60, 57
1, 56524, Note_on_c, 0, 75, 61
1, 56524, Control_c, 0, 64, 67
1, 56532, Note_on_c, 0, 53, 53
1, 56539, Control_c, 0, 64, 68
1, 56542, Poly_aftertouch_c, 0, 55, 0
1, 56551, Note_off_c, 0, 70, 35
1, 56554, Control_c, 0, 64, 69
1, 56562, Note_off_c, 0, 63, 39
1, 56568, Control_c, 0, 64, 70
1, 56580, Note_off_c, 0, 82, 62
1, 56583, Control_c, 0, 64, 71
1, 56606, Note_off_c, 0, 60, 59
1, 56612, Note_off_c, 0, 75, 57
1, 56613, Control_c, 0, 64, 72
1, 56652, Note_off_c, 0, 81, 47
1, 56661, Note_off_c, 0, 53, 33
1, 56672, Control_c, 0, 64, 71
1, 56686, Control_c, 0, 64, 67
1, 56701, Control_c, 0, 64, 59
1, 56712, Note_on_c, 0, 82, 82
1, 56716, Control_c, 0, 64, 40
1, 56720, Note_on_c, 0, 70, 76
1, 56721, Note_on_c, 0, 63, 64
1, 56730, Note_on_c, 0, 55, 53
1, 56731, Control_c, 0, 64, 15
1, 56746, Control_c, 0, 64, 0
1, 56821, Control_c, 0, 64, 11
1, 56836, Control_c, 0, 64, 28
1, 56851, Control_c, 0, 64, 39
1, 56865, Control_c, 0, 64, 49
1, 56880, Control_c, 0, 64, 59
1, 56895, Control_c, 0, 64, 64
1, 56898, Note_on_c, 0, 81, 84
1, 56906, Note_on_c, 0, 75, 72
1, 56910, Note_on_c, 0, 60, 68
1, 56910, Control_c, 0, 64, 68
1, 56912, Note_on_c, 0, 53, 63
1, 56924, Control_c, 0, 64, 69
1, 56929, Note_off_c, 0, 70, 38
1, 56939, Control_c, 0, 64, 71
1, 56950, Note_off_c, 0, 63, 55
1, 56954, Control_c, 0, 64, 73
1, 56962, Note_off_c, 0, 55, 34
1, 56969, Control_c, 0, 64, 75
1, 56970, Note_off_c, 0, 82, 62
1, 56984, Control_c, 0, 64, 76
1, 56990, Note_off_c, 0, 75, 59
1, 56998, Control_c, 0, 64, 77
1, 57010, Note_off_c, 0, 60, 58
1, 57013, Note_off_c, 0, 53, 58
1, 57028, Control_c, 0, 64, 78
1, 57132, Control_c, 0, 64, 77
1, 57169, Control_c, 0, 64, 76
1, 57184, Control_c, 0, 64, 75
1, 57198, Control_c, 0, 64, 74
1, 57213, Control_c, 0, 64, 72
1, 57228, Control_c, 0, 64, 70
1, 57236, Note_on_c, 0, 82, 88
1, 57242, Note_on_c, 0, 70, 77
1, 57242, Control_c, 0, 64, 65
1, 57245, Note_on_c, 0, 63, 70
1, 57245, Note_on_c, 0, 75, 72
1, 57254, Note_on_c, 0, 58, 55
1, 57257, Control_c, 0, 64, 60
1, 57259, Note_on_c, 0, 55, 58
1, 57272, Control_c, 0, 64, 51
1, 57287, Control_c, 0, 64, 35
1, 57292, Note_off_c, 0, 81, 57
1, 57302, Control_c, 0, 64, 19
1, 57317, Control_c, 0, 64, 0
1, 57436, Control_c, 0, 64, 28
1, 57451, Control_c, 0, 64, 39
1, 57451, Note_off_c, 0, 63, 62
1, 57466, Control_c, 0, 64, 51
1, 57481, Control_c, 0, 64, 61
1, 57496, Control_c, 0, 64, 67
1, 57510, Control_c, 0, 64, 73
1, 57525, Control_c, 0, 64, 78
1, 57533, Note_off_c, 0, 55, 36
1, 57540, Control_c, 0, 64, 82
1, 57545, Note_off_c, 0, 58, 33
1, 57555, Control_c, 0, 64, 88
1, 57570, Control_c, 0, 64, 95
1, 57585, Control_c, 0, 64, 105
1, 57600, Control_c, 0, 64, 111
1, 57615, Control_c, 0, 64, 115
1, 57630, Control_c, 0, 64, 127
1, 57725, Note_off_c, 0, 70, 53
1, 57787, Note_off_c, 0, 82, 60
1, 57836, Note_off_c, 0, 75, 28
1, 58081, Control_c, 0, 64, 110
1, 58096, Control_c, 0, 64, 99
1, 58111, Control_c, 0, 64, 89
1, 58126, Control_c, 0, 64, 75
1, 58140, Control_c, 0, 64, 62
1, 58155, Control_c, 0, 64, 42
1, 58165, Note_on_c, 0, 69, 52
1, 58170, Control_c, 0, 64, 17
1, 58185, Control_c, 0, 64, 0
1, 58192, Note_on_c, 0, 53, 41
1, 58259, Control_c, 0, 64, 16
1, 58274, Control_c, 0, 64, 28
1, 58274, Note_on_c, 0, 75, 48
1, 58288, Control_c, 0, 64, 39
1, 58294, Note_off_c, 0, 69, 54
1, 58303, Control_c, 0, 64, 50
1, 58318, Note_on_c, 0, 55, 45
1, 58318, Control_c, 0, 64, 60
1, 58329, Note_off_c, 0, 53, 35
1, 58333, Control_c, 0, 64, 67
1, 58348, Control_c, 0, 64, 76
1, 58363, Control_c, 0, 64, 79
1, 58378, Control_c, 0, 64, 86
1, 58382, Note_off_c, 0, 55, 55
1, 58393, Control_c, 0, 64, 98
1, 58407, Note_on_c, 0, 84, 62
1, 58408, Control_c, 0, 64, 127
1, 58450, Note_on_c, 0, 53, 33
1, 58481, Note_off_c, 0, 53, 55
1, 58519, Note_on_c, 0, 55, 44
1, 58572, Note_off_c, 0, 55, 48
1, 58595, Note_on_c, 0, 53, 45
1, 58646, Note_off_c, 0, 53, 61
1, 58689, Note_on_c, 0, 55, 38
1, 58722, Note_off_c, 0, 55, 55
1, 58759, Note_on_c, 0, 53, 50
1, 58784, Note_off_c, 0, 53, 58
1, 58816, Note_on_c, 0, 55, 52
1, 58850, Note_off_c, 0, 55, 55
1, 58889, Note_on_c, 0, 53, 46
1, 58927, Note_off_c, 0, 53, 51
1, 58945, Note_on_c, 0, 55, 57
1, 58998, Note_on_c, 0, 53, 56
1, 59021, Note_off_c, 0, 55, 36
1, 59104, Note_on_c, 0, 51, 61
1, 59108, Note_off_c, 0, 75, 28
1, 59111, Note_off_c, 0, 84, 37
1, 59126, Note_off_c, 0, 53, 35
1, 59192, Note_off_c, 0, 51, 63
1, 59209, Note_on_c, 0, 53, 49
1, 59267, Note_off_c, 0, 53, 53
1, 59323, Note_on_c, 0, 51, 43
1, 59352, Note_off_c, 0, 51, 57
1, 59398, Note_on_c, 0, 69, 63
1, 59411, Note_on_c, 0, 53, 37
1, 59440, Note_off_c, 0, 53, 56
1, 59451, Note_on_c, 0, 51, 51
1, 59470, Note_on_c, 0, 77, 59
1, 59481, Note_off_c, 0, 69, 63
1, 59494, Note_off_c, 0, 51, 62
1, 59537, Note_on_c, 0, 53, 51
1, 59567, Note_off_c, 0, 53, 56
1, 59586, Note_on_c, 0, 84, 77
1, 59621, Note_on_c, 0, 51, 41
1, 59651, Note_off_c, 0, 51, 54
1, 59680, Note_on_c, 0, 53, 44
1, 59707, Note_off_c, 0, 53, 55
1, 59732, Note_on_c, 0, 51, 59
1, 59767, Note_off_c, 0, 51, 66
1, 59793, Note_on_c, 0, 53, 62
1, 59860, Note_on_c, 0, 51, 58
1, 59874, Note_off_c, 0, 53, 51
1, 59924, Note_off_c, 0, 51, 63
1, 59934, Control_c, 0, 64, 86
1, 59949, Control_c, 0, 64, 62
1, 59961, Note_off_c, 0, 77, 54
1, 59965, Control_c, 0, 64, 44
1, 59967, Note_on_c, 0, 50, 74
1, 59980, Control_c, 0, 64, 32
1, 59999, Note_off_c, 0, 84, 36
1, 60009, Control_c, 0, 64, 37
1, 60024, Control_c, 0, 64, 47
1, 60039, Control_c, 0, 64, 60
1, 60054, Control_c, 0, 64, 79
1, 60062, Note_off_c, 0, 50, 63
1, 60068, Control_c, 0, 64, 127
1, 60077, Note_on_c, 0, 51, 70
1, 60147, Note_off_c, 0, 51, 59
1, 60182, Note_on_c, 0, 50, 55
1, 60211, Note_on_c, 0, 70, 65
1, 60211, Note_off_c, 0, 50, 64
1, 60261, Note_on_c, 0, 51, 47
1, 60279, Note_on_c, 0, 77, 71
1, 60283, Note_off_c, 0, 51, 61
1, 60296, Note_on_c, 0, 50, 55
1, 60298, Note_off_c, 0, 70, 61
1, 60335, Note_off_c, 0, 50, 63
1, 60355, Note_on_c, 0, 51, 59
1, 60393, Note_on_c, 0, 86, 91
1, 60402, Note_off_c, 0, 51, 63
1, 60432, Note_on_c, 0, 50, 59
1, 60463, Note_off_c, 0, 50, 65
1, 60492, Note_on_c, 0, 51, 59
1, 60524, Note_off_c, 0, 51, 65
1, 60545, Note_on_c, 0, 50, 62
1, 60575, Note_off_c, 0, 50, 66
1, 60596, Note_on_c, 0, 51, 67
1, 60654, Note_on_c, 0, 50, 64
1, 60693, Note_off_c, 0, 51, 37
1, 60742, Control_c, 0, 64, 97
1, 60748, Note_off_c, 0, 86, 56
1, 60758, Control_c, 0, 64, 63
1, 60761, Note_on_c, 0, 48, 84
1, 60773, Control_c, 0, 64, 43
1, 60788, Control_c, 0, 64, 20
1, 60790, Note_off_c, 0, 50, 55
1, 60793, Note_off_c, 0, 77, 34
1, 60803, Control_c, 0, 64, 18
1, 60818, Control_c, 0, 64, 29
1, 60832, Control_c, 0, 64, 48
1, 60847, Control_c, 0, 64, 63
1, 60862, Control_c, 0, 64, 98
1, 60863, Note_on_c, 0, 50, 55
1, 60864, Note_off_c, 0, 48, 64
1, 60877, Control_c, 0, 64, 127
1, 60955, Note_off_c, 0, 50, 56
1, 60970, Note_on_c, 0, 48, 60
1, 60995, Note_off_c, 0, 48, 68
1, 61006, Note_on_c, 0, 72, 69
1, 61034, Note_on_c, 0, 50, 47
1, 61070, Note_on_c, 0, 77, 76
1, 61073, Note_off_c, 0, 50, 62
1, 61082, Note_on_c, 0, 48, 64
1, 61091, Note_off_c, 0, 72, 52
1, 61111, Note_off_c, 0, 48, 65
1, 61135, Note_on_c, 0, 50, 59
1, 61186, Note_off_c, 0, 50, 60
1, 61193, Note_on_c, 0, 87, 96
1, 61219, Note_on_c, 0, 48, 58
1, 61251, Note_off_c, 0, 48, 65
1, 61273, Note_on_c, 0, 50, 51
1, 61300, Note_off_c, 0, 50, 59
1, 61324, Note_on_c, 0, 48, 70
1, 61359, Note_off_c, 0, 48, 63
1, 61377, Note_on_c, 0, 50, 71
1, 61432, Note_on_c, 0, 48, 76
1, 61511, Note_off_c, 0, 87, 61
1, 61517, Note_off_c, 0, 50, 25
1, 61517, Note_off_c, 0, 77, 38
1, 61557, Note_on_c, 0, 46, 97
1, 61566, Control_c, 0, 64, 64
1, 61575, Note_off_c, 0, 48, 65
1, 61580, Control_c, 0, 64, 44
1, 61595, Control_c, 0, 64, 14
1, 61610, Control_c, 0, 64, 17
1, 61625, Control_c, 0, 64, 35
1, 61648, Control_c, 0, 64, 51
1, 61657, Note_off_c, 0, 46, 66
1, 61662, Control_c, 0, 64, 66
1, 61663, Note_on_c, 0, 48, 75
1, 61677, Control_c, 0, 64, 104
1, 61692, Control_c, 0, 64, 127
1, 61726, Note_off_c, 0, 48, 59
1, 61745, Note_on_c, 0, 46, 72
1, 61765, Note_on_c, 0, 74, 78
1, 61779, Note_off_c, 0, 46, 62
1, 61830, Note_on_c, 0, 48, 44
1, 61842, Note_on_c, 0, 77, 87
1, 61851, Note_on_c, 0, 46, 69
1, 61853, Note_off_c, 0, 48, 61
1, 61894, Note_off_c, 0, 74, 66
1, 61910, Note_off_c, 0, 46, 62
1, 61921, Note_on_c, 0, 48, 70
1, 61934, Note_off_c, 0, 77, 63
1, 61991, Note_off_c, 0, 48, 58
1, 62029, Note_on_c, 0, 89, 103
1, 62036, Note_on_c, 0, 46, 70
1, 62088, Note_off_c, 0, 46, 63
1, 62109, Note_on_c, 0, 48, 69
1, 62143, Note_off_c, 0, 48, 64
1, 62152, Note_on_c, 0, 46, 70
1, 62197, Note_off_c, 0, 46, 64
1, 62218, Note_on_c, 0, 48, 69
1, 62256, Note_on_c, 0, 46, 75
1, 62328, Note_off_c, 0, 48, 60
1, 62359, Control_c, 0, 64, 97
1, 62381, Control_c, 0, 64, 59
1, 62390, Note_on_c, 0, 44, 93
1, 62396, Control_c, 0, 64, 35
1, 62405, Note_off_c, 0, 46, 62
1, 62411, Control_c, 0, 64, 0
1, 62441, Control_c, 0, 64, 25
1, 62456, Control_c, 0, 64, 41
1, 62469, Note_off_c, 0, 44, 64
1, 62470, Control_c, 0, 64, 55
1, 62479, Note_on_c, 0, 46, 78
1, 62485, Control_c, 0, 64, 69
1, 62500, Control_c, 0, 64, 127
1, 62527, Note_off_c, 0, 46, 62
1, 62557, Note_on_c, 0, 44, 69
1, 62588, Note_off_c, 0, 44, 57
1, 62618, Note_on_c, 0, 46, 72
1, 62655, Note_off_c, 0, 46, 66
1, 62671, Note_on_c, 0, 44, 64
1, 62701, Note_off_c, 0, 44, 66
1, 62726, Note_on_c, 0, 46, 66
1, 62758, Note_off_c, 0, 46, 66
1, 62767, Note_on_c, 0, 91, 107
1, 62768, Note_on_c, 0, 44, 71
1, 62799, Note_off_c, 0, 44, 62
1, 62809, Note_off_c, 0, 89, 58
1, 62824, Note_on_c, 0, 46, 64
1, 62846, Note_off_c, 0, 46, 67
1, 62858, Note_on_c, 0, 44, 76
1, 62891, Note_off_c, 0, 44, 61
1, 62903, Note_on_c, 0, 46, 74
1, 62951, Note_on_c, 0, 44, 69
1, 62952, Note_off_c, 0, 46, 63
1, 62990, Note_off_c, 0, 44, 52
1, 62999, Note_off_c, 0, 91, 55
1, 63004, Note_on_c, 0, 46, 57
1, 63031, Note_on_c, 0, 44, 60
1, 63045, Note_off_c, 0, 46, 55
1, 63068, Note_off_c, 0, 44, 59
1, 63100, Poly_aftertouch_c, 0, 46, 127
1, 63127, Poly_aftertouch_c, 0, 46, 0
1, 63141, Note_on_c, 0, 44, 69
1, 63156, Note_on_c, 0, 92, 100
1, 63176, Note_off_c, 0, 44, 57
1, 63194, Note_on_c, 0, 46, 65
1, 63226, Note_on_c, 0, 44, 66
1, 63251, Note_off_c, 0, 46, 0
1, 63270, Note_off_c, 0, 44, 59
1, 63287, Poly_aftertouch_c, 0, 46, 127
1, 63314, Poly_aftertouch_c, 0, 46, 0
1, 63316, Note_on_c, 0, 44, 62
1, 63359, Note_off_c, 0, 44, 59
1, 63370, Note_on_c, 0, 46, 64
1, 63405, Note_on_c, 0, 44, 60
1, 63414, Note_off_c, 0, 46, 60
1, 63434, Note_off_c, 0, 92, 51
1, 63457, Note_off_c, 0, 44, 60
1, 63473, Note_on_c, 0, 46, 61
1, 63509, Note_on_c, 0, 44, 61
1, 63511, Note_off_c, 0, 46, 65
1, 63550, Note_on_c, 0, 93, 105
1, 63578, Note_on_c, 0, 46, 48
1, 63599, Note_off_c, 0, 46, 62
1, 63642, Note_off_c, 0, 44, 61
1, 63657, Note_on_c, 0, 46, 69
1, 63683, Note_on_c, 0, 44, 61
1, 63690, Note_off_c, 0, 46, 63
1, 63723, Note_off_c, 0, 93, 60
1, 63734, Note_off_c, 0, 44, 59
1, 63760, Note_on_c, 0, 46, 64
1, 63782, Note_on_c, 0, 44, 62
1, 63795, Note_off_c, 0, 46, 57
1, 63820, Note_off_c, 0, 44, 61
1, 63866, Poly_aftertouch_c, 0, 46, 0
1, 63872, Note_on_c, 0, 44, 63
1, 63916, Note_off_c, 0, 44, 60
1, 63945, Note_on_c, 0, 46, 61
1, 63972, Note_on_c, 0, 44, 72
1, 63972, Note_off_c, 0, 46, 66
1, 64021, Note_off_c, 0, 44, 60
1, 64036, Note_on_c, 0, 46, 68
1, 64071, Note_on_c, 0, 44, 64
1, 64077, Note_off_c, 0, 46, 64
1, 64120, Note_off_c, 0, 44, 60
1, 64142, Note_on_c, 0, 94, 105
1, 64147, Note_on_c, 0, 46, 52
1, 64165, Note_on_c, 0, 44, 59
1, 64168, Note_off_c, 0, 46, 62
1, 64208, Note_off_c, 0, 44, 60
1, 64231, Note_on_c, 0, 46, 67
1, 64264, Note_on_c, 0, 44, 72
1, 64271, Note_off_c, 0, 46, 63
1, 64302, Note_off_c, 0, 44, 61
1, 64330, Note_on_c, 0, 46, 50
1, 64351, Note_on_c, 0, 44, 66
1, 64357, Note_off_c, 0, 46, 58
1, 64395, Note_on_c, 0, 46, 65
1, 64461, Note_off_c, 0, 46, 57
1, 64504, Note_on_c, 0, 43, 84
1, 64518, Note_off_c, 0, 44, 55
1, 64545, Control_c, 0, 64, 72
1, 64560, Control_c, 0, 64, 53
1, 64575, Control_c, 0, 64, 25
1, 64590, Control_c, 0, 64, 0
1, 64664, Note_on_c, 0, 44, 85
1, 64715, Control_c, 0, 64, 20
1, 64721, Note_off_c, 0, 43, 55
1, 64730, Control_c, 0, 64, 35
1, 64745, Control_c, 0, 64, 51
1, 64761, Control_c, 0, 64, 63
1, 64776, Control_c, 0, 64, 72
1, 64778, Note_on_c, 0, 46, 83
1, 64791, Control_c, 0, 64, 76
1, 64793, Note_off_c, 0, 44, 61
1, 64864, Control_c, 0, 64, 77
1, 64877, Note_on_c, 0, 44, 78
1, 64878, Note_off_c, 0, 46, 64
1, 64972, Note_on_c, 0, 43, 82
1, 64989, Note_off_c, 0, 44, 61
1, 65046, Note_on_c, 0, 41, 72
1, 65057, Control_c, 0, 64, 76
1, 65087, Control_c, 0, 64, 76
1, 65092, Note_off_c, 0, 43, 60
1, 65102, Control_c, 0, 64, 75
1, 65117, Control_c, 0, 64, 74
1, 65131, Control_c, 0, 64, 72
1, 65144, Note_off_c, 0, 94, 36
1, 65146, Control_c, 0, 64, 68
1, 65161, Control_c, 0, 64, 61
1, 65172, Note_on_c, 0, 39, 81
1, 65175, Control_c, 0, 64, 45
1, 65190, Control_c, 0, 64, 0
1, 65204, Note_off_c, 0, 41, 62
1, 65323, Control_c, 0, 64, 22
1, 65338, Control_c, 0, 64, 38
1, 65353, Control_c, 0, 64, 51
1, 65356, Note_off_c, 0, 39, 65
1, 65368, Control_c, 0, 64, 62
1, 65390, Control_c, 0, 64, 72
1, 65405, Control_c, 0, 64, 78
1, 65420, Control_c, 0, 64, 80
1, 65435, Control_c, 0, 64, 84
1, 65450, Control_c, 0, 64, 95
1, 65464, Control_c, 0, 64, 113
1, 65466, Note_on_c, 0, 55, 67
1, 65475, Note_on_c, 0, 51, 64
1, 65479, Control_c, 0, 64, 127
1, 65558, Note_off_c, 0, 51, 60
1, 65583, Note_off_c, 0, 55, 38
1, 65693, Note_on_c, 0, 67, 85
1, 65717, Note_on_c, 0, 51, 47
1, 65718, Note_on_c, 0, 55, 44
1, 65750, Note_off_c, 0, 55, 53
1, 65797, Note_off_c, 0, 51, 37
1, 65830, Note_off_c, 0, 67, 64
1, 65899, Note_on_c, 0, 50, 52
1, 65899, Note_on_c, 0, 55, 44
1, 65914, Note_on_c, 0, 51, 10
1, 65937, Note_off_c, 0, 55, 52
1, 65946, Note_off_c, 0, 50, 60
1, 65958, Note_off_c, 0, 51, 53
1, 66058, Control_c, 0, 64, 75
1, 66063, Note_on_c, 0, 50, 57
1, 66063, Note_on_c, 0, 55, 59
1, 66072, Control_c, 0, 64, 57
1, 66081, Note_on_c, 0, 51, 41
1, 66087, Control_c, 0, 64, 30
1, 66102, Control_c, 0, 64, 18
1, 66117, Control_c, 0, 64, 19
1, 66140, Control_c, 0, 64, 26
1, 66152, Note_off_c, 0, 51, 40
1, 66154, Control_c, 0, 64, 34
1, 66156, Note_off_c, 0, 55, 59
1, 66169, Control_c, 0, 64, 44
1, 66173, Note_off_c, 0, 50, 60
1, 66184, Control_c, 0, 64, 57
1, 66199, Control_c, 0, 64, 66
1, 66213, Control_c, 0, 64, 78
1, 66228, Control_c, 0, 64, 85
1, 66242, Note_on_c, 0, 55, 59
1, 66243, Note_on_c, 0, 48, 62
1, 66243, Control_c, 0, 64, 91
1, 66253, Note_on_c, 0, 51, 58
1, 66258, Control_c, 0, 64, 98
1, 66273, Control_c, 0, 64, 110
1, 66287, Control_c, 0, 64, 127
1, 66296, Note_off_c, 0, 51, 59
1, 66302, Note_off_c, 0, 55, 61
1, 66319, Note_off_c, 0, 48, 57
1, 66398, Note_on_c, 0, 48, 53
1, 66404, Note_on_c, 0, 55, 66
1, 66407, Note_on_c, 0, 51, 58
1, 66434, Note_off_c, 0, 55, 63
1, 66445, Note_off_c, 0, 48, 65
1, 66446, Note_off_c, 0, 51, 59
1, 66562, Note_on_c, 0, 67, 81
1, 66578, Note_on_c, 0, 55, 54
1, 66582, Note_on_c, 0, 46, 59
1, 66585, Note_on_c, 0, 51, 47
1, 66625, Note_off_c, 0, 51, 62
1, 66627, Note_off_c, 0, 55, 58
1, 66632, Note_off_c, 0, 46, 62
1, 66732, Control_c, 0, 64, 122
1, 66747, Control_c, 0, 64, 81
1, 66762, Control_c, 0, 64, 64
1, 66776, Control_c, 0, 64, 46
1, 66791, Note_on_c, 0, 68, 75
1, 66791, Control_c, 0, 64, 0
1, 66808, Note_on_c, 0, 55, 52
1, 66811, Note_on_c, 0, 46, 57
1, 66833, Note_on_c, 0, 51, 42
1, 66879, Note_off_c, 0, 51, 56
1, 66888, Note_off_c, 0, 55, 57
1, 66888, Control_c, 0, 64, 27
1, 66890, Note_off_c, 0, 67, 58
1, 66899, Note_off_c, 0, 46, 62
1, 66902, Control_c, 0, 64, 39
1, 66910, Note_off_c, 0, 68, 60
1, 66917, Control_c, 0, 64, 51
1, 66932, Control_c, 0, 64, 61
1, 66946, Control_c, 0, 64, 70
1, 66961, Control_c, 0, 64, 77
1, 66976, Control_c, 0, 64, 79
1, 66978, Note_on_c, 0, 70, 89
1, 66991, Control_c, 0, 64, 82
1, 66998, Note_on_c, 0, 44, 61
1, 66999, Note_on_c, 0, 51, 50
1, 66999, Note_on_c, 0, 55, 61
1, 67006, Control_c, 0, 64, 86
1, 67021, Control_c, 0, 64, 95
1, 67035, Control_c, 0, 64, 117
1, 67047, Note_off_c, 0, 55, 49
1, 67048, Note_off_c, 0, 51, 58
1, 67050, Control_c, 0, 64, 127
1, 67085, Note_off_c, 0, 44, 57
1, 67147, Note_on_c, 0, 72, 91
1, 67150, Note_off_c, 0, 70, 57
1, 67163, Note_on_c, 0, 43, 62
1, 67165, Note_on_c, 0, 51, 50
1, 67166, Note_on_c, 0, 55, 56
1, 67207, Note_off_c, 0, 51, 61
1, 67218, Note_off_c, 0, 55, 58
1, 67222, Note_off_c, 0, 43, 54
1, 67258, Note_off_c, 0, 72, 56
1, 67304, Note_on_c, 0, 74, 93
1, 67317, Note_on_c, 0, 51, 61
1, 67318, Note_on_c, 0, 55, 67
1, 67322, Note_on_c, 0, 43, 59
1, 67361, Note_off_c, 0, 55, 57
1, 67371, Note_off_c, 0, 43, 57
1, 67371, Note_off_c, 0, 51, 62
1, 67496, Control_c, 0, 64, 122
1, 67511, Control_c, 0, 64, 99
1, 67518, Note_on_c, 0, 43, 56
1, 67526, Control_c, 0, 64, 82
1, 67541, Control_c, 0, 64, 67
1, 67556, Control_c, 0, 64, 55
1, 67558, Note_on_c, 0, 75, 89
1, 67570, Control_c, 0, 64, 34
1, 67585, Control_c, 0, 64, 0
1, 67601, Note_off_c, 0, 74, 53
1, 67696, Control_c, 0, 64, 14
1, 67711, Control_c, 0, 64, 35
1, 67726, Control_c, 0, 64, 48
1, 67741, Control_c, 0, 64, 59
1, 67756, Control_c, 0, 64, 69
1, 67770, Control_c, 0, 64, 78
1, 67781, Note_on_c, 0, 55, 62
1, 67785, Control_c, 0, 64, 80
1, 67786, Note_on_c, 0, 51, 58
1, 67800, Control_c, 0, 64, 81
1, 67812, Note_off_c, 0, 43, 39
1, 67815, Control_c, 0, 64, 84
1, 67830, Control_c, 0, 64, 88
1, 67841, Note_off_c, 0, 51, 50
1, 67845, Control_c, 0, 64, 93
1, 67857, Note_off_c, 0, 75, 28
1, 67859, Control_c, 0, 64, 95
1, 67874, Control_c, 0, 64, 97
1, 67889, Control_c, 0, 64, 97
1, 67896, Note_off_c, 0, 55, 36
1, 67964, Control_c, 0, 64, 95
1, 67979, Control_c, 0, 64, 80
1, 67994, Control_c, 0, 64, 61
1, 68008, Control_c, 0, 64, 42
1, 68021, Note_on_c, 0, 70, 73
1, 68023, Control_c, 0, 64, 0
1, 68027, Note_on_c, 0, 55, 49
1, 68046, Note_on_c, 0, 51, 45
1, 68082, Control_c, 0, 64, 23
1, 68097, Control_c, 0, 64, 39
1, 68112, Control_c, 0, 64, 51
1, 68113, Note_off_c, 0, 51, 53
1, 68113, Note_off_c, 0, 55, 49
1, 68127, Control_c, 0, 64, 62
1, 68142, Control_c, 0, 64, 73
1, 68156, Control_c, 0, 64, 86
1, 68171, Control_c, 0, 64, 88
1, 68186, Control_c, 0, 64, 92
1, 68200, Control_c, 0, 64, 103
1, 68206, Note_on_c, 0, 55, 55
1, 68210, Note_off_c, 0, 70, 55
1, 68215, Note_on_c, 0, 50, 53
1, 68215, Control_c, 0, 64, 127
1, 68219, Note_on_c, 0, 51, 36
1, 68257, Note_off_c, 0, 51, 54
1, 68263, Note_off_c, 0, 55, 61
1, 68264, Note_off_c, 0, 50, 60
1, 68319, Control_c, 0, 64, 83
1, 68334, Control_c, 0, 64, 62
1, 68349, Control_c, 0, 64, 45
1, 68364, Control_c, 0, 64, 25
1, 68364, Note_on_c, 0, 55, 69
1, 68376, Note_on_c, 0, 50, 61
1, 68386, Control_c, 0, 64, 22
1, 68394, Note_on_c, 0, 51, 41
1, 68400, Control_c, 0, 64, 30
1, 68415, Control_c, 0, 64, 43
1, 68430, Control_c, 0, 64, 57
1, 68433, Note_off_c, 0, 51, 49
1, 68445, Control_c, 0, 64, 69
1, 68450, Note_off_c, 0, 55, 61
1, 68459, Note_off_c, 0, 50, 60
1, 68460, Control_c, 0, 64, 87
1, 68474, Control_c, 0, 64, 95
1, 68489, Control_c, 0, 64, 106
1, 68504, Control_c, 0, 64, 127
1, 68536, Note_on_c, 0, 48, 68
1, 68537, Note_on_c, 0, 55, 69
1, 68550, Note_on_c, 0, 51, 51
1, 68602, Note_off_c, 0, 51, 62
1, 68605, Note_off_c, 0, 48, 63
1, 68605, Note_off_c, 0, 55, 59
1, 68689, Note_on_c, 0, 55, 75
1, 68690, Note_on_c, 0, 48, 68
1, 68702, Note_on_c, 0, 51, 66
1, 68745, Note_off_c, 0, 48, 62
1, 68751, Note_off_c, 0, 51, 58
1, 68760, Note_off_c, 0, 55, 55
1, 68848, Note_on_c, 0, 74, 81
1, 68860, Note_on_c, 0, 51, 58
1, 68863, Note_on_c, 0, 46, 64
1, 68863, Note_on_c, 0, 55, 57
1, 68905, Control_c, 0, 64, 76
1, 68920, Control_c, 0, 64, 59
1, 68929, Note_off_c, 0, 55, 50
1, 68935, Note_off_c, 0, 46, 63
1, 68935, Control_c, 0, 64, 42
1, 68938, Note_off_c, 0, 51, 57
1, 68950, Control_c, 0, 64, 24
1, 68965, Control_c, 0, 64, 23
1, 68979, Control_c, 0, 64, 25
1, 68994, Control_c, 0, 64, 31
1, 69009, Control_c, 0, 64, 40
1, 69023, Control_c, 0, 64, 51
1, 69029, Note_on_c, 0, 75, 88
1, 69030, Note_on_c, 0, 55, 63
1, 69037, Note_on_c, 0, 46, 66
1, 69038, Control_c, 0, 64, 61
1, 69046, Note_on_c, 0, 51, 57
1, 69053, Control_c, 0, 64, 75
1, 69067, Note_off_c, 0, 74, 65
1, 69068, Control_c, 0, 64, 91
1, 69083, Control_c, 0, 64, 94
1, 69091, Note_off_c, 0, 51, 57
1, 69097, Control_c, 0, 64, 98
1, 69101, Note_off_c, 0, 46, 63
1, 69107, Note_off_c, 0, 55, 55
1, 69112, Control_c, 0, 64, 106
1, 69114, Note_off_c, 0, 75, 60
1, 69135, Control_c, 0, 64, 127
1, 69200, Note_on_c, 0, 77, 99
1, 69207, Note_on_c, 0, 44, 64
1, 69209, Note_on_c, 0, 55, 63
1, 69211, Note_on_c, 0, 51, 53
1, 69261, Note_off_c, 0, 51, 57
1, 69279, Note_off_c, 0, 55, 60
1, 69289, Note_off_c, 0, 44, 55
1, 69361, Note_on_c, 0, 79, 98
1, 69376, Note_on_c, 0, 51, 62
1, 69378, Note_on_c, 0, 43, 69
1, 69379, Note_on_c, 0, 55, 69
1, 69389, Note_off_c, 0, 77, 64
1, 69401, Control_c, 0, 64, 122
1, 69416, Control_c, 0, 64, 117
1, 69421, Note_off_c, 0, 55, 56
1, 69421, Note_off_c, 0, 79, 61
1, 69430, Note_off_c, 0, 51, 60
1, 69431, Control_c, 0, 64, 113
1, 69438, Note_off_c, 0, 43, 58
1, 69446, Control_c, 0, 64, 108
1, 69461, Control_c, 0, 64, 105
1, 69476, Control_c, 0, 64, 101
1, 69491, Control_c, 0, 64, 99
1, 69505, Control_c, 0, 64, 96
1, 69517, Note_on_c, 0, 80, 100
1, 69520, Control_c, 0, 64, 94
1, 69532, Note_on_c, 0, 55, 71
1, 69535, Control_c, 0, 64, 93
1, 69535, Note_on_c, 0, 43, 64
1, 69538, Note_on_c, 0, 51, 66
1, 69550, Control_c, 0, 64, 90
1, 69556, Note_on_c, 0, 77, 39
1, 69562, Note_off_c, 0, 55, 62
1, 69565, Control_c, 0, 64, 89
1, 69571, Note_off_c, 0, 43, 61
1, 69573, Note_off_c, 0, 51, 64
1, 69580, Control_c, 0, 64, 88
1, 69583, Note_off_c, 0, 77, 57
1, 69595, Control_c, 0, 64, 88
1, 69639, Control_c, 0, 64, 87
1, 69654, Control_c, 0, 64, 87
1, 69669, Control_c, 0, 64, 86
1, 69684, Control_c, 0, 64, 86
1, 69699, Control_c, 0, 64, 83
1, 69714, Control_c, 0, 64, 75
1, 69719, Note_on_c, 0, 43, 69
1, 69728, Control_c, 0, 64, 64
1, 69743, Control_c, 0, 64, 51
1, 69758, Control_c, 0, 64, 26
1, 69759, Note_on_c, 0, 82, 96
1, 69772, Control_c, 0, 64, 0
1, 69861, Control_c, 0, 64, 22
1, 69880, Note_off_c, 0, 80, 28
1, 69884, Control_c, 0, 64, 37
1, 69899, Control_c, 0, 64, 49
1, 69914, Control_c, 0, 64, 63
1, 69926, Note_off_c, 0, 82, 63
1, 69928, Control_c, 0, 64, 74
1, 69943, Control_c, 0, 64, 81
1, 69958, Control_c, 0, 64, 84
1, 69959, Note_on_c, 0, 55, 76
1, 69961, Note_on_c, 0, 51, 76
1, 69972, Control_c, 0, 64, 88
1, 69987, Control_c, 0, 64, 95
1, 70002, Control_c, 0, 64, 103
1, 70017, Control_c, 0, 64, 108
1, 70022, Note_off_c, 0, 51, 62
1, 70023, Note_off_c, 0, 55, 59
1, 70032, Control_c, 0, 64, 113
1, 70041, Note_off_c, 0, 43, 40
1, 70046, Control_c, 0, 64, 115
1, 70061, Control_c, 0, 64, 119
1, 70076, Control_c, 0, 64, 122
1, 70091, Control_c, 0, 64, 127
1, 70149, Note_on_c, 0, 75, 94
1, 70152, Note_on_c, 0, 55, 64
1, 70158, Note_on_c, 0, 51, 66
1, 70217, Note_off_c, 0, 55, 63
1, 70219, Note_off_c, 0, 75, 60
1, 70227, Note_off_c, 0, 51, 60
1, 70317, Note_on_c, 0, 50, 73
1, 70319, Note_on_c, 0, 55, 73
1, 70348, Note_on_c, 0, 51, 53
1, 70382, Note_off_c, 0, 55, 60
1, 70382, Note_off_c, 0, 51, 52
1, 70392, Note_off_c, 0, 50, 63
1, 70448, Control_c, 0, 64, 77
1, 70462, Control_c, 0, 64, 58
1, 70471, Note_on_c, 0, 50, 75
1, 70473, Note_on_c, 0, 55, 80
1, 70477, Control_c, 0, 64, 34
1, 70486, Note_on_c, 0, 51, 53
1, 70492, Control_c, 0, 64, 20
1, 70507, Control_c, 0, 64, 21
1, 70522, Control_c, 0, 64, 28
1, 70536, Control_c, 0, 64, 39
1, 70543, Note_off_c, 0, 51, 55
1, 70551, Control_c, 0, 64, 52
1, 70561, Note_off_c, 0, 55, 61
1, 70566, Control_c, 0, 64, 63
1, 70570, Note_off_c, 0, 50, 64
1, 70581, Control_c, 0, 64, 80
1, 70595, Control_c, 0, 64, 91
1, 70617, Control_c, 0, 64, 99
1, 70632, Control_c, 0, 64, 122
1, 70641, Note_on_c, 0, 48, 83
1, 70644, Note_on_c, 0, 55, 84
1, 70647, Control_c, 0, 64, 127
1, 70656, Note_on_c, 0, 51, 70
1, 70697, Note_off_c, 0, 51, 60
1, 70715, Note_off_c, 0, 55, 58
1, 70717, Note_off_c, 0, 48, 63
1, 70794, Note_on_c, 0, 48, 79
1, 70794, Note_on_c, 0, 55, 81
1, 70802, Note_on_c, 0, 51, 71
1, 70853, Note_off_c, 0, 48, 64
1, 70876, Note_off_c, 0, 51, 59
1, 70877, Note_off_c, 0, 55, 59
1, 70945, Note_on_c, 0, 87, 98
1, 70963, Note_on_c, 0, 46, 71
1, 70965, Note_on_c, 0, 51, 59
1, 70966, Note_on_c, 0, 55, 60
1, 71029, Note_off_c, 0, 55, 57
1, 71040, Note_off_c, 0, 46, 61
1, 71044, Note_off_c, 0, 51, 58
1, 71076, Control_c, 0, 64, 86
1, 71091, Control_c, 0, 64, 65
1, 71106, Control_c, 0, 64, 42
1, 71121, Control_c, 0, 64, 0
1, 71125, Note_on_c, 0, 89, 97
1, 71130, Note_on_c, 0, 55, 71
1, 71131, Note_on_c, 0, 46, 69
1, 71134, Note_on_c, 0, 51, 61
1, 71158, Note_off_c, 0, 87, 66
1, 71196, Control_c, 0, 64, 15
1, 71208, Note_off_c, 0, 51, 61
1, 71211, Control_c, 0, 64, 37
1, 71213, Note_off_c, 0, 46, 64
1, 71214, Note_off_c, 0, 55, 59
1, 71226, Control_c, 0, 64, 51
1, 71240, Control_c, 0, 64, 66
1, 71251, Note_off_c, 0, 89, 59
1, 71255, Control_c, 0, 64, 74
1, 71270, Control_c, 0, 64, 75
1, 71285, Control_c, 0, 64, 78
1, 71300, Control_c, 0, 64, 82
1, 71300, Note_on_c, 0, 91, 103
1, 71311, Note_on_c, 0, 55, 75
1, 71312, Note_on_c, 0, 46, 77
1, 71315, Note_on_c, 0, 51, 69
1, 71315, Control_c, 0, 64, 87
1, 71330, Control_c, 0, 64, 93
1, 71345, Control_c, 0, 64, 97
1, 71360, Control_c, 0, 64, 97
1, 71394, Note_off_c, 0, 55, 60
1, 71396, Control_c, 0, 64, 98
1, 71408, Note_off_c, 0, 51, 54
1, 71416, Note_off_c, 0, 46, 63
1, 71440, Control_c, 0, 64, 93
1, 71455, Control_c, 0, 64, 73
1, 71470, Control_c, 0, 64, 56
1, 71485, Control_c, 0, 64, 24
1, 71492, Note_on_c, 0, 92, 103
1, 71500, Control_c, 0, 64, 0
1, 71502, Note_on_c, 0, 55, 79
1, 71503, Note_on_c, 0, 44, 75
1, 71515, Note_on_c, 0, 51, 73
1, 71544, Control_c, 0, 64, 33
1, 71557, Note_off_c, 0, 91, 57
1, 71559, Control_c, 0, 64, 48
1, 71574, Control_c, 0, 64, 61
1, 71589, Control_c, 0, 64, 71
1, 71597, Note_off_c, 0, 55, 60
1, 71604, Control_c, 0, 64, 76
1, 71606, Note_off_c, 0, 51, 53
1, 71607, Note_off_c, 0, 92, 64
1, 71618, Control_c, 0, 64, 79
1, 71627, Poly_aftertouch_c, 0, 46, 0
1, 71633, Control_c, 0, 64, 84
1, 71637, Note_off_c, 0, 44, 56
1, 71648, Control_c, 0, 64, 86
1, 71696, Note_on_c, 0, 94, 105
1, 71702, Note_on_c, 0, 55, 80
1, 71707, Note_on_c, 0, 43, 77
1, 71713, Note_on_c, 0, 51, 76
1, 71761, Note_off_c, 0, 55, 64
1, 71764, Note_off_c, 0, 43, 62
1, 71766, Control_c, 0, 64, 87
1, 71779, Note_off_c, 0, 51, 62
1, 71781, Control_c, 0, 64, 88
1, 71796, Control_c, 0, 64, 89
1, 71811, Control_c, 0, 64, 90
1, 71825, Control_c, 0, 64, 91
1, 71840, Control_c, 0, 64, 91
1, 71855, Control_c, 0, 64, 92
1, 71870, Control_c, 0, 64, 93
1, 71885, Control_c, 0, 64, 94
1, 71899, Control_c, 0, 64, 94
1, 71974, Control_c, 0, 64, 94
1, 71989, Control_c, 0, 64, 93
1, 72004, Control_c, 0, 64, 91
1, 72019, Control_c, 0, 64, 88
1, 72034, Control_c, 0, 64, 85
1, 72048, Control_c, 0, 64, 80
1, 72063, Control_c, 0, 64, 73
1, 72065, Note_on_c, 0, 96, 97
1, 72075, Note_on_c, 0, 53, 79
1, 72078, Control_c, 0, 64, 64
1, 72079, Note_on_c, 0, 44, 66
1, 72081, Note_on_c, 0, 51, 70
1, 72093, Control_c, 0, 64, 55
1, 72108, Control_c, 0, 64, 36
1, 72130, Control_c, 0, 64, 15
1, 72145, Control_c, 0, 64, 0
1, 72200, Note_off_c, 0, 94, 59
1, 72323, Control_c, 0, 64, 22
1, 72337, Control_c, 0, 64, 33
1, 72352, Control_c, 0, 64, 40
1, 72367, Control_c, 0, 64, 46
1, 72382, Control_c, 0, 64, 53
1, 72397, Control_c, 0, 64, 59
1, 72412, Control_c, 0, 64, 64
1, 72427, Control_c, 0, 64, 66
1, 72441, Control_c, 0, 64, 70
1, 72456, Control_c, 0, 64, 78
1, 72471, Control_c, 0, 64, 91
1, 72486, Control_c, 0, 64, 100
1, 72501, Control_c, 0, 64, 103
1, 72515, Control_c, 0, 64, 107
1, 72530, Control_c, 0, 64, 110
1, 72537, Note_off_c, 0, 96, 54
1, 72545, Control_c, 0, 64, 111
1, 72559, Control_c, 0, 64, 113
1, 72585, Note_off_c, 0, 51, 39
1, 72600, Note_off_c, 0, 53, 36
1, 72602, Note_off_c, 0, 44, 29
1, 72678, Control_c, 0, 64, 110
1, 72693, Control_c, 0, 64, 108
1, 72708, Control_c, 0, 64, 106
1, 72722, Control_c, 0, 64, 104
1, 72738, Control_c, 0, 64, 102
1, 72753, Control_c, 0, 64, 101
1, 72768, Control_c, 0, 64, 99
1, 72783, Control_c, 0, 64, 98
1, 72797, Control_c, 0, 64, 96
1, 72812, Control_c, 0, 64, 94
1, 72827, Control_c, 0, 64, 93
1, 72842, Control_c, 0, 64, 92
1, 72857, Control_c, 0, 64, 90
1, 72879, Control_c, 0, 64, 88
1, 72894, Control_c, 0, 64, 87
1, 72909, Control_c, 0, 64, 86
1, 72924, Control_c, 0, 64, 85
1, 72939, Control_c, 0, 64, 84
1, 72953, Control_c, 0, 64, 83
1, 72968, Control_c, 0, 64, 81
1, 72983, Control_c, 0, 64, 79
1, 72997, Control_c, 0, 64, 78
1, 73012, Control_c, 0, 64, 76
1, 73027, Control_c, 0, 64, 75
1, 73042, Control_c, 0, 64, 74
1, 73057, Control_c, 0, 64, 74
1, 73071, Control_c, 0, 64, 73
1, 73086, Control_c, 0, 64, 72
1, 73116, Control_c, 0, 64, 72
1, 73116, Control_c, 0, 67, 8
1, 73131, Control_c, 0, 64, 71
1, 73131, Control_c, 0, 67, 9
1, 73145, Control_c, 0, 64, 71
1, 73145, Control_c, 0, 67, 10
1, 73160, Control_c, 0, 64, 70
1, 73160, Control_c, 0, 67, 10
1, 73175, Control_c, 0, 64, 70
1, 73190, Control_c, 0, 64, 69
1, 73190, Control_c, 0, 67, 11
1, 73205, Control_c, 0, 64, 69
1, 73205, Control_c, 0, 67, 13
1, 73220, Control_c, 0, 64, 68
1, 73220, Control_c, 0, 67, 14
1, 73235, Control_c, 0, 64, 67
1, 73235, Control_c, 0, 67, 15
1, 73250, Control_c, 0, 64, 66
1, 73250, Control_c, 0, 67, 18
1, 73264, Control_c, 0, 64, 65
1, 73264, Control_c, 0, 67, 21
1, 73279, Control_c, 0, 64, 64
1, 73279, Control_c, 0, 67, 23
1, 73294, Control_c, 0, 64, 63
1, 73294, Control_c, 0, 67, 25
1, 73309, Control_c, 0, 64, 62
1, 73309, Control_c, 0, 67, 28
1, 73323, Control_c, 0, 64, 61
1, 73323, Control_c, 0, 67, 31
1, 73338, Control_c, 0, 64, 59
1, 73338, Control_c, 0, 67, 33
1, 73353, Control_c, 0, 64, 57
1, 73353, Control_c, 0, 67, 36
1, 73368, Control_c, 0, 64, 55
1, 73368, Control_c, 0, 67, 40
1, 73382, Control_c, 0, 64, 54
1, 73382, Control_c, 0, 67, 43
1, 73397, Control_c, 0, 64, 53
1, 73397, Control_c, 0, 67, 46
1, 73412, Control_c, 0, 64, 52
1, 73412, Control_c, 0, 67, 49
1, 73427, Control_c, 0, 64, 51
1, 73427, Control_c, 0, 67, 51
1, 73442, Control_c, 0, 64, 50
1, 73442, Control_c, 0, 67, 53
1, 73456, Control_c, 0, 64, 50
1, 73456, Control_c, 0, 67, 57
1, 73471, Control_c, 0, 64, 49
1, 73471, Control_c, 0, 67, 61
1, 73486, Control_c, 0, 64, 48
1, 73486, Control_c, 0, 67, 65
1, 73501, Control_c, 0, 64, 47
1, 73501, Control_c, 0, 67, 69
1, 73515, Control_c, 0, 64, 46
1, 73515, Control_c, 0, 67, 72
1, 73530, Control_c, 0, 64, 44
1, 73530, Control_c, 0, 67, 75
1, 73547, Control_c, 0, 64, 41
1, 73547, Control_c, 0, 67, 79
1, 73561, Control_c, 0, 64, 36
1, 73561, Control_c, 0, 67, 84
1, 73576, Control_c, 0, 64, 32
1, 73576, Control_c, 0, 67, 89
1, 73591, Control_c, 0, 64, 29
1, 73591, Control_c, 0, 67, 94
1, 73606, Control_c, 0, 64, 24
1, 73606, Control_c, 0, 67, 99
1, 73628, Control_c, 0, 64, 18
1, 73628, Control_c, 0, 67, 104
1, 73643, Control_c, 0, 64, 0
1, 73643, Control_c, 0, 67, 109
1, 73658, Control_c, 0, 67, 114
1, 73673, Control_c, 0, 67, 122
1, 73688, Control_c, 0, 67, 127
1, 73849, Control_c, 0, 64, 12
1, 73864, Control_c, 0, 64, 22
1, 73879, Control_c, 0, 64, 30
1, 73893, Control_c, 0, 64, 37
1, 73908, Control_c, 0, 64, 44
1, 73923, Control_c, 0, 64, 54
1, 73937, Control_c, 0, 64, 60
1, 73952, Control_c, 0, 64, 62
1, 73967, Control_c, 0, 64, 63
1, 73982, Control_c, 0, 64, 64
1, 73997, Control_c, 0, 64, 65
1, 74011, Control_c, 0, 64, 66
1, 74014, Note_on_c, 0, 65, 60
1, 74026, Control_c, 0, 64, 67
1, 74029, Note_on_c, 0, 53, 37
1, 74032, Note_on_c, 0, 45, 35
1, 74041, Control_c, 0, 64, 67
1, 74049, Note_on_c, 0, 51, 33
1, 74056, Control_c, 0, 64, 68
1, 74061, Note_off_c, 0, 65, 53
1, 74071, Control_c, 0, 64, 68
1, 74091, Note_off_c, 0, 51, 48
1, 74097, Note_off_c, 0, 53, 42
1, 74115, Control_c, 0, 64, 69
1, 74189, Control_c, 0, 64, 68
1, 74218, Control_c, 0, 64, 68
1, 74233, Control_c, 0, 64, 67
1, 74248, Control_c, 0, 64, 65
1, 74263, Control_c, 0, 64, 63
1, 74275, Note_on_c, 0, 70, 61
1, 74278, Control_c, 0, 64, 60
1, 74293, Control_c, 0, 64, 57
1, 74296, Note_on_c, 0, 65, 40
1, 74303, Note_on_c, 0, 53, 20
1, 74308, Control_c, 0, 64, 52
1, 74309, Note_on_c, 0, 46, 35
1, 74318, Note_off_c, 0, 45, 41
1, 74323, Control_c, 0, 64, 48
1, 74328, Note_on_c, 0, 50, 20
1, 74338, Control_c, 0, 64, 44
1, 74360, Control_c, 0, 64, 40
1, 74375, Control_c, 0, 64, 35
1, 74390, Control_c, 0, 64, 30
1, 74405, Control_c, 0, 64, 22
1, 74420, Control_c, 0, 64, 14
1, 74435, Control_c, 0, 64, 0
1, 74605, Note_off_c, 0, 53, 31
1, 74642, Control_c, 0, 64, 13
1, 74648, Note_off_c, 0, 65, 42
1, 74657, Control_c, 0, 64, 22
1, 74658, Note_off_c, 0, 50, 38
1, 74672, Control_c, 0, 64, 26
1, 74674, Note_off_c, 0, 70, 36
1, 74674, Note_off_c, 0, 46, 45
1, 74687, Control_c, 0, 64, 30
1, 74687, Control_c, 0, 67, 125
1, 74702, Control_c, 0, 64, 32
1, 74702, Control_c, 0, 67, 112
1, 74716, Control_c, 0, 64, 34
1, 74716, Control_c, 0, 67, 102
1, 74731, Control_c, 0, 64, 34
1, 74731, Control_c, 0, 67, 94
1, 74746, Control_c, 0, 67, 86
1, 74761, Control_c, 0, 67, 79
1, 74776, Control_c, 0, 64, 34
1, 74776, Control_c, 0, 67, 73
1, 74791, Control_c, 0, 64, 33
1, 74791, Control_c, 0, 67, 71
1, 74806, Control_c, 0, 64, 28
1, 74821, Control_c, 0, 64, 22
1, 74835, Control_c, 0, 64, 19
1, 74850, Control_c, 0, 64, 17
1, 74865, Control_c, 0, 64, 0
1, 74865, Control_c, 0, 67, 71
1, 74880, Control_c, 0, 67, 70
1, 74895, Control_c, 0, 67, 69
1, 74895, Note_on_c, 0, 70, 63
1, 74909, Control_c, 0, 67, 68
1, 74910, Note_on_c, 0, 46, 39
1, 74913, Note_on_c, 0, 65, 47
1, 74924, Control_c, 0, 67, 67
1, 74925, Note_on_c, 0, 50, 35
1, 74939, Control_c, 0, 67, 66
1, 74954, Control_c, 0, 67, 65
1, 74968, Control_c, 0, 67, 64
1, 74983, Control_c, 0, 67, 64
1, 75013, Control_c, 0, 67, 63
1, 75028, Control_c, 0, 64, 14
1, 75041, Note_off_c, 0, 65, 37
1, 75042, Control_c, 0, 64, 22
1, 75057, Control_c, 0, 64, 24
1, 75057, Control_c, 0, 67, 62
1, 75072, Control_c, 0, 67, 62
1, 75128, Note_on_c, 0, 69, 64
1, 75137, Note_on_c, 0, 51, 50
1, 75139, Control_c, 0, 64, 22
1, 75145, Note_on_c, 0, 65, 44
1, 75148, Note_off_c, 0, 50, 41
1, 75149, Note_on_c, 0, 48, 39
1, 75151, Note_off_c, 0, 46, 47
1, 75154, Control_c, 0, 64, 18
1, 75169, Control_c, 0, 64, 10
1, 75184, Control_c, 0, 64, 0
1, 75277, Note_off_c, 0, 70, 28
1, 75303, Control_c, 0, 67, 61
1, 75333, Control_c, 0, 67, 60
1, 75347, Control_c, 0, 67, 59
1, 75362, Control_c, 0, 67, 55
1, 75377, Control_c, 0, 64, 13
1, 75377, Control_c, 0, 67, 51
1, 75378, Note_off_c, 0, 65, 51
1, 75391, Control_c, 0, 64, 24
1, 75391, Control_c, 0, 67, 47
1, 75406, Control_c, 0, 64, 31
1, 75406, Control_c, 0, 67, 42
1, 75421, Control_c, 0, 64, 36
1, 75421, Control_c, 0, 67, 38
1, 75436, Control_c, 0, 64, 41
1, 75436, Control_c, 0, 67, 36
1, 75451, Control_c, 0, 64, 47
1, 75451, Control_c, 0, 67, 34
1, 75465, Control_c, 0, 64, 52
1, 75465, Control_c, 0, 67, 33
1, 75480, Control_c, 0, 64, 55
1, 75480, Control_c, 0, 67, 32
1, 75495, Control_c, 0, 64, 57
1, 75495, Control_c, 0, 67, 31
1, 75510, Control_c, 0, 64, 59
1, 75510, Control_c, 0, 67, 30
1, 75525, Control_c, 0, 64, 60
1, 75525, Control_c, 0, 67, 30
1, 75539, Control_c, 0, 64, 62
1, 75539, Control_c, 0, 67, 29
1, 75554, Control_c, 0, 64, 64
1, 75554, Control_c, 0, 67, 29
1, 75569, Control_c, 0, 64, 66
1, 75584, Control_c, 0, 64, 68
1, 75599, Control_c, 0, 64, 69
1, 75613, Control_c, 0, 64, 70
1, 75628, Control_c, 0, 64, 71
1, 75628, Control_c, 0, 67, 29
1, 75688, Control_c, 0, 67, 30
1, 75717, Control_c, 0, 67, 30
1, 75791, Control_c, 0, 64, 71
1, 75806, Control_c, 0, 64, 70
1, 75821, Control_c, 0, 64, 69
1, 75836, Control_c, 0, 64, 67
1, 75851, Control_c, 0, 64, 66
1, 75873, Control_c, 0, 64, 63
1, 75873, Control_c, 0, 67, 31
1, 75888, Control_c, 0, 64, 61
1, 75903, Control_c, 0, 64, 56
1, 75904, Note_on_c, 0, 68, 70
1, 75917, Control_c, 0, 64, 50
1, 75917, Control_c, 0, 67, 31
1, 75920, Note_on_c, 0, 65, 46
1, 75932, Note_on_c, 0, 59, 37
1, 75933, Control_c, 0, 64, 42
1, 75941, Note_on_c, 0, 50, 28
1, 75948, Control_c, 0, 64, 35
1, 75956, Note_off_c, 0, 51, 35
1, 75962, Control_c, 0, 64, 28
1, 75977, Control_c, 0, 64, 20
1, 75986, Note_off_c, 0, 48, 44
1, 75992, Control_c, 0, 64, 0
1, 76007, Control_c, 0, 67, 31
1, 76040, Note_off_c, 0, 69, 57
1, 76096, Control_c, 0, 67, 31
1, 76155, Control_c, 0, 67, 32
1, 76170, Control_c, 0, 64, 18
1, 76170, Control_c, 0, 67, 32
1, 76185, Control_c, 0, 64, 28
1, 76185, Control_c, 0, 67, 33
1, 76200, Control_c, 0, 64, 35
1, 76214, Control_c, 0, 64, 44
1, 76214, Control_c, 0, 67, 33
1, 76229, Control_c, 0, 64, 52
1, 76229, Control_c, 0, 67, 34
1, 76244, Control_c, 0, 64, 58
1, 76244, Control_c, 0, 67, 35
1, 76259, Control_c, 0, 64, 62
1, 76259, Control_c, 0, 67, 35
1, 76274, Control_c, 0, 64, 64
1, 76274, Control_c, 0, 67, 36
1, 76288, Control_c, 0, 64, 65
1, 76288, Control_c, 0, 67, 37
1, 76303, Control_c, 0, 64, 66
1, 76303, Control_c, 0, 67, 38
1, 76318, Control_c, 0, 64, 67
1, 76318, Control_c, 0, 67, 39
1, 76332, Control_c, 0, 64, 68
1, 76332, Control_c, 0, 67, 39
1, 76347, Control_c, 0, 64, 69
1, 76347, Control_c, 0, 67, 41
1, 76362, Control_c, 0, 64, 71
1, 76362, Control_c, 0, 67, 42
1, 76377, Control_c, 0, 64, 72
1, 76377, Control_c, 0, 67, 44
1, 76392, Control_c, 0, 64, 73
1, 76392, Control_c, 0, 67, 48
1, 76406, Control_c, 0, 64, 73
1, 76406, Control_c, 0, 67, 52
1, 76421, Control_c, 0, 64, 74
1, 76421, Control_c, 0, 67, 56
1, 76436, Control_c, 0, 67, 60
1, 76451, Control_c, 0, 67, 65
1, 76466, Control_c, 0, 67, 70
1, 76481, Control_c, 0, 67, 75
1, 76496, Control_c, 0, 67, 79
1, 76508, Note_off_c, 0, 65, 41
1, 76511, Control_c, 0, 67, 83
1, 76526, Control_c, 0, 67, 86
1, 76540, Control_c, 0, 64, 73
1, 76540, Control_c, 0, 67, 90
1, 76555, Control_c, 0, 64, 73
1, 76555, Control_c, 0, 67, 94
1, 76570, Control_c, 0, 64, 72
1, 76570, Control_c, 0, 67, 99
1, 76585, Control_c, 0, 64, 71
1, 76585, Control_c, 0, 67, 106
1, 76600, Control_c, 0, 64, 70
1, 76600, Control_c, 0, 67, 111
1, 76621, Control_c, 0, 64, 68
1, 76621, Control_c, 0, 67, 115
1, 76636, Control_c, 0, 64, 64
1, 76636, Control_c, 0, 67, 120
1, 76651, Control_c, 0, 64, 57
1, 76651, Control_c, 0, 67, 124
1, 76666, Control_c, 0, 64, 44
1, 76666, Control_c, 0, 67, 127
1, 76681, Control_c, 0, 64, 26
1, 76695, Note_off_c, 0, 59, 40
1, 76696, Control_c, 0, 64, 0
1, 76718, Note_on_c, 0, 67, 49
1, 76720, Note_off_c, 0, 50, 37
1, 76721, Note_off_c, 0, 68, 49
1, 76727, Note_on_c, 0, 58, 38
1, 76738, Note_on_c, 0, 51, 36
1, 76785, Control_c, 0, 64, 16
1, 76800, Control_c, 0, 64, 32
1, 76815, Control_c, 0, 64, 44
1, 76830, Control_c, 0, 64, 56
1, 76844, Control_c, 0, 64, 64
1, 76847, Note_off_c, 0, 67, 59
1, 76859, Control_c, 0, 64, 70
1, 76868, Note_off_c, 0, 51, 43
1, 76874, Control_c, 0, 64, 72
1, 76889, Control_c, 0, 64, 73
1, 76901, Note_off_c, 0, 58, 35
1, 76904, Control_c, 0, 64, 74
1, 76918, Control_c, 0, 64, 74
1, 76948, Control_c, 0, 64, 75
1, 76977, Control_c, 0, 64, 75
1, 77036, Control_c, 0, 64, 75
1, 77051, Control_c, 0, 64, 74
1, 77066, Control_c, 0, 64, 73
1, 77081, Control_c, 0, 64, 69
1, 77096, Control_c, 0, 64, 65
1, 77099, Note_on_c, 0, 87, 65
1, 77110, Control_c, 0, 64, 59
1, 77111, Note_on_c, 0, 67, 42
1, 77122, Note_on_c, 0, 63, 36
1, 77125, Control_c, 0, 64, 49
1, 77140, Control_c, 0, 64, 38
1, 77155, Control_c, 0, 64, 31
1, 77169, Control_c, 0, 64, 25
1, 77184, Control_c, 0, 64, 19
1, 77199, Control_c, 0, 64, 10
1, 77214, Control_c, 0, 64, 0
1, 77322, Note_on_c, 0, 86, 67
1, 77323, Note_on_c, 0, 68, 44
1, 77324, Note_off_c, 0, 67, 45
1, 77342, Note_on_c, 0, 65, 38
1, 77348, Control_c, 0, 64, 19
1, 77369, Control_c, 0, 64, 28
1, 77382, Note_off_c, 0, 63, 43
1, 77384, Control_c, 0, 64, 34
1, 77399, Control_c, 0, 64, 39
1, 77414, Control_c, 0, 64, 44
1, 77429, Control_c, 0, 64, 47
1, 77444, Control_c, 0, 64, 49
1, 77502, Note_off_c, 0, 68, 40
1, 77515, Note_on_c, 0, 70, 56
1, 77516, Note_on_c, 0, 85, 69
1, 77524, Note_on_c, 0, 67, 48
1, 77573, Note_off_c, 0, 65, 36
1, 77578, Control_c, 0, 64, 48
1, 77593, Note_off_c, 0, 70, 55
1, 77608, Note_off_c, 0, 86, 36
1, 77625, Note_off_c, 0, 87, 37
1, 77682, Control_c, 0, 64, 48
1, 77706, Note_off_c, 0, 85, 62
1, 77712, Control_c, 0, 64, 47
1, 77725, Note_on_c, 0, 84, 56
1, 77727, Control_c, 0, 64, 47
1, 77742, Control_c, 0, 64, 45
1, 77743, Note_on_c, 0, 68, 41
1, 77747, Note_on_c, 0, 72, 46
1, 77757, Control_c, 0, 64, 42
1, 77772, Control_c, 0, 64, 38
1, 77779, Note_off_c, 0, 67, 30
1, 77786, Control_c, 0, 64, 34
1, 77801, Control_c, 0, 64, 29
1, 77816, Control_c, 0, 64, 24
1, 77831, Control_c, 0, 64, 17
1, 77842, Note_off_c, 0, 84, 60
1, 77846, Control_c, 0, 64, 0
1, 77850, Note_on_c, 0, 82, 59
1, 77947, Note_on_c, 0, 80, 60
1, 77995, Note_off_c, 0, 82, 59
1, 78034, Note_off_c, 0, 80, 63
1, 78038, Control_c, 0, 64, 11
1, 78043, Note_on_c, 0, 79, 64
1, 78052, Control_c, 0, 64, 14
1, 78067, Control_c, 0, 64, 17
1, 78081, Note_off_c, 0, 72, 41
1, 78082, Control_c, 0, 64, 20
1, 78097, Control_c, 0, 64, 23
1, 78119, Control_c, 0, 64, 25
1, 78134, Control_c, 0, 64, 26
1, 78145, Note_on_c, 0, 78, 67
1, 78147, Note_off_c, 0, 79, 60
1, 78149, Control_c, 0, 64, 26
1, 78164, Control_c, 0, 64, 27
1, 78178, Control_c, 0, 64, 27
1, 78231, Note_on_c, 0, 77, 67
1, 78238, Control_c, 0, 64, 28
1, 78289, Note_off_c, 0, 68, 41
1, 78299, Note_off_c, 0, 78, 64
1, 78309, Note_off_c, 0, 77, 63
1, 78319, Note_on_c, 0, 76, 70
1, 78397, Note_off_c, 0, 76, 66
1, 78402, Control_c, 0, 64, 27
1, 78403, Note_on_c, 0, 75, 71
1, 78416, Control_c, 0, 64, 27
1, 78431, Control_c, 0, 64, 26
1, 78446, Control_c, 0, 64, 25
1, 78461, Control_c, 0, 64, 24
1, 78476, Control_c, 0, 64, 22
1, 78490, Note_on_c, 0, 74, 74
1, 78490, Control_c, 0, 64, 18
1, 78490, Control_c, 0, 67, 123
1, 78491, Note_off_c, 0, 75, 63
1, 78505, Control_c, 0, 64, 11
1, 78505, Control_c, 0, 67, 116
1, 78520, Control_c, 0, 64, 0
1, 78520, Control_c, 0, 67, 109
1, 78535, Control_c, 0, 67, 102
1, 78550, Control_c, 0, 67, 94
1, 78565, Control_c, 0, 67, 87
1, 78577, Note_on_c, 0, 73, 75
1, 78579, Control_c, 0, 67, 81
1, 78591, Note_off_c, 0, 74, 62
1, 78594, Control_c, 0, 67, 78
1, 78609, Control_c, 0, 67, 76
1, 78624, Control_c, 0, 67, 76
1, 78639, Control_c, 0, 67, 76
1, 78654, Control_c, 0, 67, 77
1, 78668, Note_on_c, 0, 72, 75
1, 78669, Control_c, 0, 67, 77
1, 78683, Control_c, 0, 67, 78
1, 78698, Control_c, 0, 67, 79
1, 78713, Control_c, 0, 67, 79
1, 78728, Control_c, 0, 67, 80
1, 78734, Note_off_c, 0, 73, 64
1, 78742, Control_c, 0, 67, 81
1, 78750, Note_off_c, 0, 72, 64
1, 78757, Note_on_c, 0, 71, 72
1, 78757, Control_c, 0, 67, 83
1, 78772, Control_c, 0, 67, 84
1, 78787, Control_c, 0, 67, 85
1, 78801, Control_c, 0, 67, 87
1, 78816, Control_c, 0, 67, 88
1, 78831, Control_c, 0, 67, 90
1, 78846, Control_c, 0, 67, 94
1, 78850, Note_on_c, 0, 70, 69
1, 78863, Note_off_c, 0, 71, 59
1, 78869, Control_c, 0, 67, 99
1, 78883, Control_c, 0, 67, 103
1, 78898, Control_c, 0, 67, 108
1, 78913, Control_c, 0, 67, 113
1, 78928, Control_c, 0, 67, 118
1, 78942, Control_c, 0, 67, 121
1, 78955, Note_on_c, 0, 68, 65
1, 78957, Control_c, 0, 67, 124
1, 78972, Control_c, 0, 67, 127
1, 79009, Note_off_c, 0, 70, 53
1, 79066, Note_on_c, 0, 67, 59
1, 79076, Control_c, 0, 64, 14
1, 79079, Note_on_c, 0, 45, 38
1, 79084, Note_on_c, 0, 53, 36
1, 79090, Control_c, 0, 64, 20
1, 79091, Note_on_c, 0, 51, 42
1, 79105, Control_c, 0, 64, 22
1, 79120, Control_c, 0, 64, 24
1, 79136, Control_c, 0, 64, 25
1, 79140, Note_off_c, 0, 68, 44
1, 79151, Control_c, 0, 64, 26
1, 79155, Note_off_c, 0, 67, 63
1, 79165, Control_c, 0, 64, 26
1, 79175, Note_on_c, 0, 65, 51
1, 79193, Note_off_c, 0, 53, 37
1, 79269, Control_c, 0, 64, 25
1, 79284, Control_c, 0, 64, 25
1, 79299, Control_c, 0, 64, 23
1, 79313, Control_c, 0, 64, 21
1, 79328, Control_c, 0, 64, 18
1, 79341, Note_off_c, 0, 51, 36
1, 79343, Control_c, 0, 64, 13
1, 79357, Control_c, 0, 64, 0
1, 79391, Note_on_c, 0, 70, 58
1, 79399, Note_on_c, 0, 62, 48
1, 79414, Note_on_c, 0, 53, 33
1, 79431, Note_on_c, 0, 46, 28
1, 79434, Note_off_c, 0, 45, 38
1, 79453, Note_off_c, 0, 65, 39
1, 79811, Note_off_c, 0, 62, 44
1, 79820, Note_off_c, 0, 46, 40
1, 79849, Note_off_c, 0, 70, 43
1, 79889, Note_off_c, 0, 53, 41
1, 79929, Control_c, 0, 67, 125
1, 79944, Control_c, 0, 67, 123
1, 79959, Control_c, 0, 64, 15
1, 79959, Control_c, 0, 67, 122
1, 79973, Control_c, 0, 64, 20
1, 79973, Control_c, 0, 67, 121
1, 79988, Control_c, 0, 64, 25
1, 80003, Control_c, 0, 64, 30
1, 80003, Control_c, 0, 67, 120
1, 80018, Control_c, 0, 64, 35
1, 80033, Control_c, 0, 64, 41
1, 80048, Control_c, 0, 64, 48
1, 80056, Note_on_c, 0, 70, 62
1, 80062, Control_c, 0, 64, 54
1, 80070, Note_on_c, 0, 56, 44
1, 80072, Note_on_c, 0, 62, 52
1, 80077, Control_c, 0, 64, 59
1, 80081, Note_on_c, 0, 46, 41
1, 80092, Control_c, 0, 64, 62
1, 80106, Control_c, 0, 64, 63
1, 80121, Control_c, 0, 64, 64
1, 80136, Control_c, 0, 64, 67
1, 80151, Control_c, 0, 64, 70
1, 80166, Control_c, 0, 64, 72
1, 80180, Control_c, 0, 64, 74
1, 80195, Control_c, 0, 64, 76
1, 80195, Control_c, 0, 67, 120
1, 80207, Note_off_c, 0, 62, 35
1, 80210, Control_c, 0, 64, 77
1, 80210, Control_c, 0, 67, 119
1, 80213, Note_off_c, 0, 70, 57
1, 80225, Control_c, 0, 64, 78
1, 80229, Note_off_c, 0, 56, 42
1, 80246, Note_off_c, 0, 46, 44
1, 80255, Control_c, 0, 64, 79
1, 80270, Control_c, 0, 67, 119
1, 80285, Control_c, 0, 67, 118
1, 80299, Control_c, 0, 67, 117
1, 80314, Control_c, 0, 67, 117
1, 80344, Control_c, 0, 67, 116
1, 80366, Control_c, 0, 64, 77
1, 80380, Control_c, 0, 64, 76
1, 80380, Control_c, 0, 67, 116
1, 80395, Control_c, 0, 64, 74
1, 80410, Control_c, 0, 64, 72
1, 80410, Control_c, 0, 67, 115
1, 80425, Control_c, 0, 64, 69
1, 80425, Control_c, 0, 67, 113
1, 80440, Control_c, 0, 64, 64
1, 80440, Control_c, 0, 67, 112
1, 80454, Note_on_c, 0, 70, 57
1, 80454, Control_c, 0, 64, 60
1, 80454, Control_c, 0, 67, 112
1, 80469, Control_c, 0, 64, 54
1, 80469, Control_c, 0, 67, 111
1, 80477, Note_on_c, 0, 63, 42
1, 80484, Control_c, 0, 64, 48
1, 80493, Note_on_c, 0, 55, 40
1, 80499, Note_on_c, 0, 51, 33
1, 80499, Control_c, 0, 64, 42
1, 80499, Control_c, 0, 67, 110
1, 80514, Control_c, 0, 64, 36
1, 80529, Control_c, 0, 64, 29
1, 80529, Control_c, 0, 67, 109
1, 80544, Control_c, 0, 64, 19
1, 80544, Control_c, 0, 67, 108
1, 80559, Control_c, 0, 64, 0
1, 80559, Control_c, 0, 67, 107
1, 80574, Control_c, 0, 67, 106
1, 80588, Control_c, 0, 67, 106
1, 80618, Control_c, 0, 67, 105
1, 80633, Control_c, 0, 67, 104
1, 80648, Control_c, 0, 67, 102
1, 80662, Control_c, 0, 67, 100
1, 80677, Control_c, 0, 67, 97
1, 80692, Control_c, 0, 64, 16
1, 80692, Control_c, 0, 67, 94
1, 80706, Control_c, 0, 64, 25
1, 80706, Control_c, 0, 67, 89
1, 80722, Control_c, 0, 64, 30
1, 80722, Control_c, 0, 67, 84
1, 80737, Control_c, 0, 64, 36
1, 80737, Control_c, 0, 67, 80
1, 80752, Control_c, 0, 64, 42
1, 80752, Control_c, 0, 67, 76
1, 80767, Control_c, 0, 64, 48
1, 80767, Control_c, 0, 67, 74
1, 80782, Control_c, 0, 64, 53
1, 80782, Control_c, 0, 67, 71
1, 80796, Control_c, 0, 64, 56
1, 80796, Control_c, 0, 67, 69
1, 80811, Control_c, 0, 64, 57
1, 80811, Control_c, 0, 67, 66
1, 80826, Control_c, 0, 67, 64
1, 80841, Control_c, 0, 67, 63
1, 80856, Control_c, 0, 67, 62
1, 80870, Control_c, 0, 67, 60
1, 80885, Control_c, 0, 67, 59
1, 80900, Control_c, 0, 67, 58
1, 80913, Note_on_c, 0, 72, 61
1, 80915, Control_c, 0, 67, 56
1, 80924, Note_off_c, 0, 55, 39
1, 80926, Note_on_c, 0, 56, 44
1, 80929, Control_c, 0, 67, 55
1, 80944, Control_c, 0, 64, 56
1, 80959, Control_c, 0, 67, 55
1, 80969, Note_off_c, 0, 70, 36
1, 80974, Control_c, 0, 64, 56
1, 80974, Control_c, 0, 67, 54
1, 80989, Control_c, 0, 64, 55
1, 80989, Control_c, 0, 67, 54
1, 81003, Control_c, 0, 64, 55
1, 81003, Control_c, 0, 67, 53
1, 81018, Control_c, 0, 64, 54
1, 81018, Control_c, 0, 67, 52
1, 81021, Note_off_c, 0, 56, 0
1, 81021, Note_on_c, 0, 56, 3
1, 81048, Control_c, 0, 64, 53
1, 81063, Control_c, 0, 64, 53
1, 81077, Control_c, 0, 64, 52
1, 81077, Control_c, 0, 67, 51
1, 81092, Control_c, 0, 64, 51
1, 81129, Note_on_c, 0, 70, 63
1, 81129, Control_c, 0, 64, 51
1, 81129, Control_c, 0, 67, 52
1, 81135, Note_off_c, 0, 56, 42
1, 81144, Control_c, 0, 64, 50
1, 81145, Note_on_c, 0, 55, 45
1, 81159, Control_c, 0, 64, 50
1, 81174, Control_c, 0, 64, 49
1, 81189, Control_c, 0, 64, 48
1, 81203, Control_c, 0, 64, 47
1, 81218, Control_c, 0, 64, 46
1, 81233, Control_c, 0, 64, 44
1, 81233, Control_c, 0, 67, 52
1, 81248, Control_c, 0, 64, 42
1, 81263, Control_c, 0, 64, 39
1, 81263, Control_c, 0, 67, 53
1, 81277, Control_c, 0, 64, 34
1, 81292, Control_c, 0, 64, 26
1, 81292, Control_c, 0, 67, 53
1, 81307, Note_off_c, 0, 72, 51
1, 81307, Control_c, 0, 64, 18
1, 81307, Control_c, 0, 67, 54
1, 81322, Note_off_c, 0, 55, 47
1, 81322, Control_c, 0, 64, 8
1, 81324, Note_on_c, 0, 68, 65
1, 81337, Control_c, 0, 64, 0
1, 81344, Note_on_c, 0, 53, 46
1, 81381, Control_c, 0, 67, 54
1, 81388, Note_off_c, 0, 70, 59
1, 81396, Control_c, 0, 67, 55
1, 81400, Note_off_c, 0, 51, 45
1, 81441, Control_c, 0, 64, 16
1, 81455, Control_c, 0, 64, 22
1, 81470, Control_c, 0, 64, 26
1, 81470, Control_c, 0, 67, 56
1, 81485, Control_c, 0, 64, 29
1, 81500, Control_c, 0, 64, 31
1, 81500, Control_c, 0, 67, 56
1, 81515, Control_c, 0, 64, 32
1, 81515, Control_c, 0, 67, 57
1, 81519, Note_on_c, 0, 51, 48
1, 81523, Note_on_c, 0, 67, 62
1, 81531, Control_c, 0, 64, 33
1, 81531, Control_c, 0, 67, 57
1, 81534, Note_off_c, 0, 68, 60
1, 81545, Control_c, 0, 64, 34
1, 81545, Control_c, 0, 67, 58
1, 81560, Control_c, 0, 64, 34
1, 81560, Control_c, 0, 67, 58
1, 81575, Control_c, 0, 64, 35
1, 81575, Control_c, 0, 67, 59
1, 81605, Control_c, 0, 67, 59
1, 81620, Control_c, 0, 64, 36
1, 81634, Control_c, 0, 67, 60
1, 81664, Control_c, 0, 67, 60
1, 81679, Control_c, 0, 64, 36
1, 81691, Note_off_c, 0, 53, 26
1, 81708, Control_c, 0, 64, 37
1, 81711, Note_on_c, 0, 65, 67
1, 81720, Note_on_c, 0, 50, 44
1, 81723, Control_c, 0, 64, 39
1, 81723, Control_c, 0, 67, 61
1, 81734, Note_off_c, 0, 67, 59
1, 81738, Control_c, 0, 64, 41
1, 81752, Control_c, 0, 64, 43
1, 81752, Control_c, 0, 67, 61
1, 81763, Note_off_c, 0, 51, 34
1, 81767, Control_c, 0, 64, 45
1, 81782, Control_c, 0, 64, 46
1, 81797, Control_c, 0, 64, 47
1, 81812, Control_c, 0, 64, 47
1, 81826, Control_c, 0, 64, 48
1, 81841, Control_c, 0, 64, 48
1, 81883, Note_off_c, 0, 63, 34
1, 81901, Note_on_c, 0, 67, 67
1, 81905, Note_on_c, 0, 51, 48
1, 81923, Control_c, 0, 67, 62
1, 81997, Control_c, 0, 64, 48
1, 82012, Control_c, 0, 67, 61
1, 82025, Note_off_c, 0, 50, 29
1, 82026, Control_c, 0, 64, 47
1, 82056, Control_c, 0, 64, 47
1, 82071, Control_c, 0, 64, 46
1, 82085, Control_c, 0, 64, 45
1, 82100, Control_c, 0, 64, 45
1, 82115, Control_c, 0, 64, 44
1, 82130, Control_c, 0, 64, 42
1, 82145, Control_c, 0, 64, 39
1, 82148, Note_off_c, 0, 51, 37
1, 82158, Note_on_c, 0, 68, 60
1, 82159, Control_c, 0, 64, 36
1, 82173, Note_off_c, 0, 65, 35
1, 82174, Control_c, 0, 64, 33
1, 82189, Control_c, 0, 64, 28
1, 82190, Note_on_c, 0, 53, 34
1, 82197, Note_on_c, 0, 46, 35
1, 82204, Control_c, 0, 64, 21
1, 82204, Control_c, 0, 67, 62
1, 82219, Control_c, 0, 64, 0
1, 82240, Note_off_c, 0, 67, 36
1, 82323, Control_c, 0, 67, 61
1, 82338, Control_c, 0, 67, 60
1, 82368, Control_c, 0, 67, 59
1, 82383, Control_c, 0, 67, 59
1, 82389, Note_on_c, 0, 60, 52
1, 82398, Control_c, 0, 64, 18
1, 82398, Control_c, 0, 67, 58
1, 82413, Control_c, 0, 64, 26
1, 82413, Control_c, 0, 67, 58
1, 82428, Control_c, 0, 64, 33
1, 82428, Control_c, 0, 67, 57
1, 82443, Control_c, 0, 64, 39
1, 82443, Control_c, 0, 67, 56
1, 82457, Control_c, 0, 64, 45
1, 82458, Note_off_c, 0, 53, 43
1, 82472, Control_c, 0, 64, 51
1, 82472, Control_c, 0, 67, 56
1, 82487, Control_c, 0, 64, 55
1, 82487, Control_c, 0, 67, 55
1, 82501, Control_c, 0, 64, 58
1, 82516, Control_c, 0, 64, 60
1, 82531, Control_c, 0, 64, 61
1, 82531, Control_c, 0, 67, 55
1, 82546, Control_c, 0, 64, 62
1, 82561, Control_c, 0, 64, 63
1, 82571, Note_off_c, 0, 46, 37
1, 82574, Note_on_c, 0, 63, 61
1, 82575, Control_c, 0, 64, 63
1, 82590, Control_c, 0, 64, 64
1, 82628, Control_c, 0, 64, 64
1, 82628, Control_c, 0, 67, 55
1, 82694, Note_off_c, 0, 60, 54
1, 82766, Note_on_c, 0, 62, 62
1, 82775, Control_c, 0, 67, 56
1, 82807, Note_off_c, 0, 68, 48
1, 82834, Note_off_c, 0, 63, 37
1, 82849, Control_c, 0, 64, 64
1, 82864, Control_c, 0, 67, 55
1, 82894, Control_c, 0, 64, 63
1, 82923, Control_c, 0, 64, 63
1, 82938, Control_c, 0, 64, 62
1, 82953, Control_c, 0, 64, 62
1, 82968, Control_c, 0, 64, 61
1, 82982, Control_c, 0, 64, 59
1, 82997, Control_c, 0, 64, 56
1, 83003, Note_on_c, 0, 67, 60
1, 83012, Control_c, 0, 64, 52
1, 83016, Note_off_c, 0, 62, 54
1, 83018, Note_on_c, 0, 63, 44
1, 83027, Control_c, 0, 64, 49
1, 83035, Note_on_c, 0, 39, 33
1, 83036, Note_on_c, 0, 51, 29
1, 83042, Control_c, 0, 64, 46
1, 83042, Control_c, 0, 67, 56
1, 83057, Control_c, 0, 64, 43
1, 83072, Control_c, 0, 64, 39
1, 83087, Control_c, 0, 64, 32
1, 83087, Control_c, 0, 67, 56
1, 83101, Control_c, 0, 64, 22
1, 83116, Control_c, 0, 64, 14
1, 83131, Control_c, 0, 64, 0
1, 83161, Control_c, 0, 67, 57
1, 83191, Control_c, 0, 67, 57
1, 83206, Control_c, 0, 67, 58
1, 83218, Note_on_c, 0, 58, 60
1, 83221, Control_c, 0, 67, 58
1, 83236, Control_c, 0, 67, 59
1, 83238, Note_on_c, 0, 43, 45
1, 83251, Control_c, 0, 67, 60
1, 83265, Control_c, 0, 67, 61
1, 83280, Control_c, 0, 67, 61
1, 83310, Control_c, 0, 67, 62
1, 83324, Control_c, 0, 64, 8
1, 83339, Control_c, 0, 64, 14
1, 83339, Control_c, 0, 67, 63
1, 83361, Control_c, 0, 64, 18
1, 83361, Control_c, 0, 67, 64
1, 83376, Control_c, 0, 64, 21
1, 83376, Control_c, 0, 67, 64
1, 83388, Note_off_c, 0, 51, 40
1, 83391, Control_c, 0, 64, 25
1, 83406, Control_c, 0, 64, 29
1, 83406, Control_c, 0, 67, 65
1, 83420, Control_c, 0, 64, 33
1, 83420, Control_c, 0, 67, 66
1, 83422, Note_on_c, 0, 60, 65
1, 83425, Note_on_c, 0, 44, 49
1, 83435, Control_c, 0, 64, 36
1, 83435, Control_c, 0, 67, 67
1, 83450, Control_c, 0, 64, 38
1, 83450, Control_c, 0, 67, 69
1, 83465, Control_c, 0, 64, 39
1, 83465, Control_c, 0, 67, 70
1, 83471, Note_off_c, 0, 43, 41
1, 83480, Control_c, 0, 64, 41
1, 83480, Control_c, 0, 67, 71
1, 83495, Control_c, 0, 64, 42
1, 83495, Control_c, 0, 67, 73
1, 83510, Control_c, 0, 64, 44
1, 83524, Control_c, 0, 64, 45
1, 83524, Control_c, 0, 67, 73
1, 83537, Note_off_c, 0, 58, 36
1, 83539, Control_c, 0, 64, 46
1, 83539, Control_c, 0, 67, 74
1, 83569, Control_c, 0, 64, 46
1, 83571, Note_off_c, 0, 67, 40
1, 83578, Note_off_c, 0, 63, 40
1, 83603, Note_on_c, 0, 43, 52
1, 83609, Note_on_c, 0, 58, 63
1, 83635, Note_off_c, 0, 60, 62
1, 83657, Control_c, 0, 64, 46
1, 83672, Control_c, 0, 64, 45
1, 83687, Control_c, 0, 64, 44
1, 83702, Control_c, 0, 64, 43
1, 83717, Control_c, 0, 64, 41
1, 83717, Control_c, 0, 67, 73
1, 83731, Control_c, 0, 64, 39
1, 83746, Control_c, 0, 64, 37
1, 83746, Control_c, 0, 67, 72
1, 83761, Note_off_c, 0, 44, 22
1, 83761, Control_c, 0, 64, 34
1, 83761, Control_c, 0, 67, 72
1, 83776, Control_c, 0, 64, 32
1, 83783, Note_off_c, 0, 43, 50
1, 83791, Control_c, 0, 64, 30
1, 83791, Control_c, 0, 67, 71
1, 83805, Note_on_c, 0, 56, 69
1, 83805, Control_c, 0, 64, 27
1, 83812, Note_on_c, 0, 41, 54
1, 83820, Control_c, 0, 64, 24
1, 83835, Control_c, 0, 64, 21
1, 83850, Control_c, 0, 64, 17
1, 83850, Control_c, 0, 67, 71
1, 83853, Note_off_c, 0, 58, 56
1, 83864, Note_off_c, 0, 39, 51
1, 83865, Control_c, 0, 64, 11
1, 83879, Control_c, 0, 64, 0
1, 84004, Note_on_c, 0, 55, 66
1, 84011, Note_on_c, 0, 39, 51
1, 84163, Note_off_c, 0, 41, 38
1, 84204, Note_on_c, 0, 53, 66
1, 84213, Note_on_c, 0, 38, 57
1, 84246, Note_off_c, 0, 55, 55
1, 84276, Note_off_c, 0, 39, 50
1, 84303, Control_c, 0, 67, 70
1, 84362, Control_c, 0, 67, 70
1, 84377, Control_c, 0, 64, 18
1, 84391, Note_on_c, 0, 55, 68
1, 84392, Control_c, 0, 64, 25
1, 84401, Note_on_c, 0, 39, 59
1, 84407, Control_c, 0, 64, 31
1, 84422, Control_c, 0, 64, 36
1, 84422, Control_c, 0, 67, 69
1, 84437, Control_c, 0, 64, 41
1, 84448, Note_off_c, 0, 53, 38
1, 84452, Note_off_c, 0, 56, 42
1, 84452, Control_c, 0, 64, 45
1, 84467, Control_c, 0, 64, 48
1, 84481, Control_c, 0, 64, 49
1, 84496, Control_c, 0, 64, 49
1, 84555, Control_c, 0, 64, 49
1, 84600, Control_c, 0, 64, 48
1, 84629, Control_c, 0, 64, 47
1, 84629, Control_c, 0, 67, 70
1, 84644, Control_c, 0, 64, 47
1, 84659, Control_c, 0, 64, 46
1, 84673, Control_c, 0, 64, 45
1, 84678, Note_off_c, 0, 38, 32
1, 84681, Note_on_c, 0, 63, 60
1, 84684, Note_on_c, 0, 56, 50
1, 84687, Note_on_c, 0, 41, 37
1, 84688, Control_c, 0, 64, 43
1, 84690, Note_on_c, 0, 34, 41
1, 84703, Control_c, 0, 64, 41
1, 84703, Control_c, 0, 67, 70
1, 84719, Control_c, 0, 64, 38
1, 84734, Control_c, 0, 64, 35
1, 84749, Control_c, 0, 64, 31
1, 84764, Control_c, 0, 64, 26
1, 84765, Note_off_c, 0, 39, 38
1, 84773, Note_off_c, 0, 55, 32
1, 84778, Control_c, 0, 64, 20
1, 84778, Control_c, 0, 67, 71
1, 84793, Control_c, 0, 64, 13
1, 84793, Control_c, 0, 67, 71
1, 84808, Control_c, 0, 64, 0
1, 84860, Control_c, 0, 67, 72
1, 84890, Control_c, 0, 67, 72
1, 84904, Control_c, 0, 67, 73
1, 84907, Note_on_c, 0, 60, 65
1, 84914, Note_off_c, 0, 63, 53
1, 84919, Control_c, 0, 67, 73
1, 84934, Control_c, 0, 67, 74
1, 84964, Control_c, 0, 67, 74
1, 85023, Control_c, 0, 64, 12
1, 85023, Control_c, 0, 67, 75
1, 85038, Control_c, 0, 64, 20
1, 85038, Control_c, 0, 67, 75
1, 85052, Control_c, 0, 64, 25
1, 85052, Control_c, 0, 67, 76
1, 85067, Control_c, 0, 64, 30
1, 85067, Control_c, 0, 67, 80
1, 85081, Control_c, 0, 64, 35
1, 85081, Control_c, 0, 67, 82
1, 85096, Control_c, 0, 64, 40
1, 85096, Control_c, 0, 67, 84
1, 85103, Note_on_c, 0, 63, 59
1, 85111, Control_c, 0, 64, 47
1, 85111, Control_c, 0, 67, 86
1, 85125, Control_c, 0, 64, 51
1, 85125, Control_c, 0, 67, 89
1, 85140, Control_c, 0, 64, 53
1, 85140, Control_c, 0, 67, 93
1, 85155, Control_c, 0, 64, 55
1, 85155, Control_c, 0, 67, 96
1, 85170, Control_c, 0, 64, 56
1, 85170, Control_c, 0, 67, 99
1, 85185, Control_c, 0, 64, 56
1, 85185, Control_c, 0, 67, 102
1, 85200, Control_c, 0, 64, 58
1, 85200, Control_c, 0, 67, 105
1, 85215, Control_c, 0, 64, 58
1, 85215, Control_c, 0, 67, 108
1, 85229, Note_off_c, 0, 60, 52
1, 85230, Control_c, 0, 64, 59
1, 85230, Control_c, 0, 67, 110
1, 85244, Control_c, 0, 64, 59
1, 85244, Control_c, 0, 67, 112
1, 85259, Control_c, 0, 67, 115
1, 85274, Control_c, 0, 67, 117
1, 85289, Control_c, 0, 67, 118
1, 85297, Note_on_c, 0, 62, 59
1, 85299, Note_off_c, 0, 63, 61
1, 85303, Control_c, 0, 67, 120
1, 85318, Control_c, 0, 67, 121
1, 85333, Control_c, 0, 64, 59
1, 85333, Control_c, 0, 67, 123
1, 85348, Control_c, 0, 67, 124
1, 85363, Control_c, 0, 67, 126
1, 85377, Control_c, 0, 64, 58
1, 85377, Control_c, 0, 67, 126
1, 85392, Control_c, 0, 64, 58
1, 85392, Control_c, 0, 67, 127
1, 85407, Control_c, 0, 64, 57
1, 85407, Control_c, 0, 67, 127
1, 85421, Control_c, 0, 64, 57
1, 85436, Control_c, 0, 64, 56
1, 85451, Control_c, 0, 64, 56
1, 85466, Control_c, 0, 64, 55
1, 85473, Note_off_c, 0, 62, 56
1, 85481, Control_c, 0, 64, 52
1, 85494, Note_off_c, 0, 41, 36
1, 85495, Control_c, 0, 64, 49
1, 85510, Control_c, 0, 64, 45
1, 85514, Note_off_c, 0, 56, 40
1, 85517, Note_on_c, 0, 65, 50
1, 85519, Note_on_c, 0, 39, 41
1, 85524, Note_on_c, 0, 43, 39
1, 85526, Note_on_c, 0, 55, 42
1, 85526, Control_c, 0, 64, 40
1, 85541, Control_c, 0, 64, 33
1, 85556, Control_c, 0, 64, 22
1, 85571, Control_c, 0, 64, 0
1, 85623, Note_off_c, 0, 34, 41
1, 85705, Note_off_c, 0, 65, 57
1, 85726, Control_c, 0, 64, 13
1, 85730, Note_on_c, 0, 62, 60
1, 85741, Control_c, 0, 64, 22
1, 85756, Control_c, 0, 64, 29
1, 85771, Control_c, 0, 64, 34
1, 85786, Control_c, 0, 64, 41
1, 85800, Control_c, 0, 64, 47
1, 85815, Control_c, 0, 64, 52
1, 85830, Control_c, 0, 64, 55
1, 85840, Note_off_c, 0, 43, 43
1, 85844, Control_c, 0, 64, 58
1, 85859, Control_c, 0, 64, 59
1, 85874, Control_c, 0, 64, 61
1, 85889, Control_c, 0, 64, 62
1, 85901, Note_off_c, 0, 62, 61
1, 85904, Control_c, 0, 64, 63
1, 85907, Note_off_c, 0, 55, 40
1, 85918, Control_c, 0, 64, 64
1, 85921, Note_on_c, 0, 65, 56
1, 85933, Control_c, 0, 64, 65
1, 85948, Control_c, 0, 64, 65
1, 85963, Control_c, 0, 64, 66
1, 85978, Control_c, 0, 64, 66
1, 85990, Note_off_c, 0, 39, 35
1, 86067, Control_c, 0, 64, 67
1, 86102, Note_off_c, 0, 65, 62
1, 86109, Note_on_c, 0, 63, 59
1, 86200, Control_c, 0, 64, 66
1, 86230, Control_c, 0, 64, 66
1, 86259, Control_c, 0, 64, 65
1, 86274, Control_c, 0, 64, 64
1, 86289, Control_c, 0, 64, 64
1, 86304, Control_c, 0, 64, 63
1, 86320, Control_c, 0, 64, 62
1, 86331, Note_on_c, 0, 68, 61
1, 86335, Control_c, 0, 64, 61
1, 86352, Note_on_c, 0, 51, 43
1, 86357, Control_c, 0, 64, 58
1, 86364, Note_on_c, 0, 43, 34
1, 86366, Note_on_c, 0, 39, 37
1, 86372, Control_c, 0, 64, 55
1, 86377, Note_on_c, 0, 46, 36
1, 86386, Control_c, 0, 64, 52
1, 86389, Note_off_c, 0, 63, 35
1, 86401, Control_c, 0, 64, 49
1, 86416, Control_c, 0, 64, 45
1, 86431, Control_c, 0, 64, 42
1, 86446, Control_c, 0, 64, 35
1, 86461, Control_c, 0, 64, 27
1, 86475, Control_c, 0, 64, 19
1, 86490, Control_c, 0, 64, 12
1, 86505, Control_c, 0, 64, 0
1, 86527, Note_on_c, 0, 65, 55
1, 86531, Note_off_c, 0, 68, 59
1, 86637, Control_c, 0, 67, 127
1, 86652, Control_c, 0, 67, 125
1, 86667, Control_c, 0, 64, 16
1, 86667, Control_c, 0, 67, 122
1, 86682, Control_c, 0, 64, 22
1, 86682, Control_c, 0, 67, 119
1, 86696, Control_c, 0, 64, 27
1, 86696, Control_c, 0, 67, 117
1, 86711, Control_c, 0, 64, 32
1, 86711, Control_c, 0, 67, 114
1, 86721, Note_on_c, 0, 68, 62
1, 86726, Control_c, 0, 64, 37
1, 86726, Control_c, 0, 67, 112
1, 86741, Control_c, 0, 64, 42
1, 86741, Control_c, 0, 67, 110
1, 86756, Control_c, 0, 64, 46
1, 86756, Control_c, 0, 67, 108
1, 86771, Control_c, 0, 64, 49
1, 86771, Control_c, 0, 67, 106
1, 86786, Control_c, 0, 64, 51
1, 86786, Control_c, 0, 67, 103
1, 86801, Control_c, 0, 64, 52
1, 86801, Control_c, 0, 67, 100
1, 86815, Control_c, 0, 67, 98
1, 86830, Control_c, 0, 67, 95
1, 86845, Control_c, 0, 67, 94
1, 86860, Control_c, 0, 67, 92
1, 86874, Control_c, 0, 67, 90
1, 86889, Control_c, 0, 67, 88
1, 86904, Control_c, 0, 64, 51
1, 86904, Control_c, 0, 67, 86
1, 86906, Note_on_c, 0, 67, 66
1, 86919, Control_c, 0, 67, 85
1, 86934, Control_c, 0, 67, 83
1, 86948, Control_c, 0, 67, 82
1, 86963, Control_c, 0, 64, 51
1, 86963, Control_c, 0, 67, 80
1, 86978, Control_c, 0, 67, 79
1, 86993, Control_c, 0, 64, 50
1, 86993, Control_c, 0, 67, 78
1, 87008, Control_c, 0, 64, 50
1, 87008, Control_c, 0, 67, 76
1, 87022, Control_c, 0, 64, 48
1, 87022, Control_c, 0, 67, 74
1, 87037, Control_c, 0, 64, 46
1, 87037, Control_c, 0, 67, 72
1, 87038, Note_off_c, 0, 68, 31
1, 87052, Note_off_c, 0, 65, 33
1, 87052, Control_c, 0, 64, 43
1, 87052, Control_c, 0, 67, 71
1, 87066, Control_c, 0, 64, 40
1, 87066, Control_c, 0, 67, 70
1, 87081, Control_c, 0, 64, 34
1, 87081, Control_c, 0, 67, 69
1, 87104, Control_c, 0, 64, 27
1, 87104, Control_c, 0, 67, 68
1, 87105, Note_on_c, 0, 72, 63
1, 87120, Control_c, 0, 64, 15
1, 87120, Control_c, 0, 67, 66
1, 87135, Control_c, 0, 64, 0
1, 87135, Control_c, 0, 67, 64
1, 87143, Note_off_c, 0, 67, 55
1, 87150, Control_c, 0, 67, 64
1, 87179, Control_c, 0, 67, 63
1, 87194, Control_c, 0, 67, 62
1, 87209, Control_c, 0, 67, 60
1, 87224, Control_c, 0, 67, 59
1, 87238, Control_c, 0, 67, 57
1, 87253, Control_c, 0, 64, 8
1, 87253, Control_c, 0, 67, 55
1, 87268, Control_c, 0, 64, 18
1, 87268, Control_c, 0, 67, 52
1, 87283, Control_c, 0, 64, 24
1, 87283, Control_c, 0, 67, 50
1, 87286, Note_on_c, 0, 69, 63
1, 87297, Control_c, 0, 64, 30
1, 87297, Control_c, 0, 67, 48
1, 87302, Note_off_c, 0, 72, 55
1, 87312, Control_c, 0, 64, 33
1, 87312, Control_c, 0, 67, 46
1, 87326, Control_c, 0, 64, 37
1, 87326, Control_c, 0, 67, 44
1, 87341, Control_c, 0, 64, 42
1, 87341, Control_c, 0, 67, 42
1, 87356, Control_c, 0, 64, 46
1, 87356, Control_c, 0, 67, 41
1, 87370, Control_c, 0, 64, 49
1, 87370, Control_c, 0, 67, 39
1, 87385, Control_c, 0, 64, 52
1, 87385, Control_c, 0, 67, 36
1, 87400, Control_c, 0, 64, 54
1, 87400, Control_c, 0, 67, 34
1, 87415, Control_c, 0, 64, 55
1, 87415, Control_c, 0, 67, 33
1, 87430, Control_c, 0, 64, 56
1, 87430, Control_c, 0, 67, 32
1, 87445, Control_c, 0, 64, 57
1, 87445, Control_c, 0, 67, 31
1, 87460, Control_c, 0, 64, 59
1, 87460, Control_c, 0, 67, 30
1, 87474, Control_c, 0, 64, 60
1, 87474, Control_c, 0, 67, 28
1, 87484, Note_on_c, 0, 72, 66
1, 87489, Control_c, 0, 64, 61
1, 87489, Control_c, 0, 67, 26
1, 87504, Control_c, 0, 64, 62
1, 87504, Control_c, 0, 67, 25
1, 87519, Control_c, 0, 64, 62
1, 87519, Control_c, 0, 67, 24
1, 87534, Control_c, 0, 64, 63
1, 87534, Control_c, 0, 67, 24
1, 87549, Control_c, 0, 64, 64
1, 87549, Control_c, 0, 67, 23
1, 87563, Control_c, 0, 64, 64
1, 87563, Control_c, 0, 67, 23
1, 87578, Control_c, 0, 64, 65
1, 87593, Control_c, 0, 64, 65
1, 87608, Control_c, 0, 64, 66
1, 87608, Control_c, 0, 67, 22
1, 87637, Control_c, 0, 67, 22
1, 87652, Control_c, 0, 64, 66
1, 87652, Control_c, 0, 67, 21
1, 87654, Note_on_c, 0, 70, 66
1, 87682, Control_c, 0, 67, 21
1, 87689, Note_off_c, 0, 69, 29
1, 87696, Control_c, 0, 67, 20
1, 87711, Control_c, 0, 67, 20
1, 87726, Control_c, 0, 67, 19
1, 87741, Control_c, 0, 64, 66
1, 87741, Control_c, 0, 67, 19
1, 87756, Control_c, 0, 64, 64
1, 87770, Control_c, 0, 64, 60
1, 87785, Control_c, 0, 64, 47
1, 87800, Control_c, 0, 64, 32
1, 87814, Control_c, 0, 64, 21
1, 87818, Note_off_c, 0, 72, 38
1, 87829, Control_c, 0, 64, 20
1, 87848, Note_on_c, 0, 77, 61
1, 87852, Control_c, 0, 67, 18
1, 87867, Control_c, 0, 67, 18
1, 87882, Control_c, 0, 64, 22
1, 87882, Control_c, 0, 67, 17
1, 87896, Control_c, 0, 64, 27
1, 87896, Control_c, 0, 67, 15
1, 87899, Note_off_c, 0, 70, 55
1, 87911, Control_c, 0, 64, 34
1, 87911, Control_c, 0, 67, 14
1, 87927, Control_c, 0, 64, 42
1, 87927, Control_c, 0, 67, 12
1, 87942, Control_c, 0, 64, 50
1, 87942, Control_c, 0, 67, 10
1, 87956, Note_off_c, 0, 46, 40
1, 87957, Control_c, 0, 64, 57
1, 87957, Control_c, 0, 67, 8
1, 87972, Control_c, 0, 64, 62
1, 87972, Control_c, 0, 67, 0
1, 87987, Control_c, 0, 64, 65
1, 87993, Note_off_c, 0, 39, 34
1, 88001, Control_c, 0, 64, 66
1, 88006, Note_off_c, 0, 43, 39
1, 88016, Control_c, 0, 64, 68
1, 88030, Note_on_c, 0, 74, 61
1, 88031, Control_c, 0, 64, 71
1, 88035, Note_off_c, 0, 77, 60
1, 88046, Control_c, 0, 64, 74
1, 88061, Control_c, 0, 64, 79
1, 88076, Control_c, 0, 64, 85
1, 88079, Note_off_c, 0, 51, 43
1, 88091, Control_c, 0, 64, 91
1, 88106, Control_c, 0, 64, 97
1, 88120, Control_c, 0, 64, 105
1, 88135, Control_c, 0, 64, 127
1, 88217, Note_on_c, 0, 77, 72
1, 88402, Note_on_c, 0, 75, 68
1, 88539, Note_off_c, 0, 74, 36
1, 88555, Note_off_c, 0, 77, 34
1, 88601, Control_c, 0, 64, 98
1, 88609, Note_on_c, 0, 80, 72
1, 88616, Control_c, 0, 64, 71
1, 88622, Note_on_c, 0, 63, 43
1, 88624, Note_on_c, 0, 58, 39
1, 88629, Note_on_c, 0, 55, 33
1, 88631, Control_c, 0, 64, 59
1, 88641, Note_on_c, 0, 51, 34
1, 88646, Control_c, 0, 64, 41
1, 88661, Control_c, 0, 64, 29
1, 88675, Note_off_c, 0, 75, 52
1, 88676, Note_off_c, 0, 63, 0
1, 88676, Note_on_c, 0, 63, 9
1, 88676, Control_c, 0, 64, 25
1, 88691, Control_c, 0, 64, 24
1, 88706, Control_c, 0, 64, 23
1, 88736, Control_c, 0, 64, 27
1, 88750, Control_c, 0, 64, 33
1, 88765, Control_c, 0, 64, 42
1, 88780, Control_c, 0, 64, 52
1, 88795, Control_c, 0, 64, 62
1, 88806, Note_on_c, 0, 77, 69
1, 88810, Control_c, 0, 64, 70
1, 88824, Note_off_c, 0, 80, 61
1, 88825, Control_c, 0, 64, 78
1, 88840, Control_c, 0, 64, 83
1, 88855, Control_c, 0, 64, 86
1, 88869, Control_c, 0, 64, 91
1, 88884, Control_c, 0, 64, 97
1, 88899, Control_c, 0, 64, 105
1, 88914, Control_c, 0, 64, 122
1, 88929, Control_c, 0, 64, 127
1, 88962, Note_off_c, 0, 55, 40
1, 88966, Note_off_c, 0, 58, 37
1, 88968, Note_off_c, 0, 51, 39
1, 88989, Note_on_c, 0, 80, 74
1, 89005, Note_off_c, 0, 63, 41
1, 89181, Note_on_c, 0, 79, 69
1, 89350, Control_c, 0, 64, 110
1, 89365, Control_c, 0, 64, 101
1, 89380, Control_c, 0, 64, 93
1, 89388, Note_off_c, 0, 80, 49
1, 89391, Note_on_c, 0, 84, 68
1, 89394, Control_c, 0, 64, 81
1, 89399, Note_on_c, 0, 63, 44
1, 89408, Note_on_c, 0, 51, 37
1, 89409, Note_on_c, 0, 58, 36
1, 89409, Control_c, 0, 64, 67
1, 89420, Note_on_c, 0, 55, 34
1, 89424, Control_c, 0, 64, 57
1, 89432, Note_off_c, 0, 77, 35
1, 89439, Control_c, 0, 64, 43
1, 89454, Note_off_c, 0, 79, 57
1, 89454, Control_c, 0, 64, 26
1, 89469, Control_c, 0, 64, 17
1, 89484, Control_c, 0, 64, 14
1, 89498, Control_c, 0, 64, 12
1, 89529, Control_c, 0, 64, 13
1, 89544, Control_c, 0, 64, 22
1, 89559, Control_c, 0, 64, 31
1, 89573, Control_c, 0, 64, 41
1, 89587, Note_on_c, 0, 81, 70
1, 89588, Control_c, 0, 64, 52
1, 89603, Control_c, 0, 64, 63
1, 89612, Note_off_c, 0, 84, 53
1, 89618, Control_c, 0, 64, 70
1, 89633, Control_c, 0, 64, 76
1, 89648, Control_c, 0, 64, 78
1, 89662, Control_c, 0, 64, 81
1, 89677, Control_c, 0, 64, 86
1, 89692, Control_c, 0, 64, 93
1, 89707, Control_c, 0, 64, 100
1, 89711, Note_off_c, 0, 63, 47
1, 89722, Control_c, 0, 64, 107
1, 89725, Note_off_c, 0, 55, 41
1, 89725, Note_off_c, 0, 51, 41
1, 89737, Control_c, 0, 64, 115
1, 89743, Note_off_c, 0, 58, 32
1, 89752, Control_c, 0, 64, 127
1, 89792, Note_on_c, 0, 84, 67
1, 90008, Note_on_c, 0, 82, 68
1, 90129, Control_c, 0, 64, 117
1, 90144, Control_c, 0, 64, 114
1, 90159, Control_c, 0, 64, 110
1, 90173, Control_c, 0, 64, 108
1, 90188, Control_c, 0, 64, 106
1, 90203, Control_c, 0, 64, 104
1, 90217, Control_c, 0, 64, 102
1, 90232, Control_c, 0, 64, 100
1, 90247, Control_c, 0, 64, 98
1, 90259, Note_off_c, 0, 81, 35
1, 90262, Control_c, 0, 64, 97
1, 90277, Control_c, 0, 64, 95
1, 90291, Control_c, 0, 64, 93
1, 90306, Control_c, 0, 64, 92
1, 90322, Control_c, 0, 64, 90
1, 90337, Control_c, 0, 64, 87
1, 90345, Note_on_c, 0, 87, 68
1, 90352, Control_c, 0, 64, 84
1, 90367, Control_c, 0, 64, 78
1, 90369, Note_on_c, 0, 63, 37
1, 90373, Note_on_c, 0, 58, 34
1, 90382, Control_c, 0, 64, 72
1, 90383, Note_on_c, 0, 51, 35
1, 90388, Note_on_c, 0, 55, 34
1, 90396, Control_c, 0, 64, 66
1, 90411, Control_c, 0, 64, 60
1, 90426, Control_c, 0, 64, 49
1, 90440, Control_c, 0, 64, 34
1, 90455, Control_c, 0, 64, 19
1, 90470, Control_c, 0, 64, 14
1, 90485, Control_c, 0, 64, 0
1, 90560, Control_c, 0, 64, 16
1, 90575, Control_c, 0, 64, 27
1, 90589, Control_c, 0, 64, 35
1, 90604, Control_c, 0, 64, 44
1, 90619, Control_c, 0, 64, 53
1, 90619, Note_off_c, 0, 84, 35
1, 90627, Note_off_c, 0, 63, 42
1, 90627, Note_off_c, 0, 82, 38
1, 90633, Control_c, 0, 64, 61
1, 90648, Control_c, 0, 64, 67
1, 90660, Note_off_c, 0, 58, 44
1, 90663, Control_c, 0, 64, 70
1, 90664, Note_off_c, 0, 55, 45
1, 90678, Control_c, 0, 64, 72
1, 90693, Control_c, 0, 64, 74
1, 90707, Control_c, 0, 64, 78
1, 90712, Note_off_c, 0, 51, 41
1, 90722, Control_c, 0, 64, 82
1, 90737, Control_c, 0, 64, 87
1, 90752, Control_c, 0, 64, 93
1, 90767, Control_c, 0, 64, 99
1, 90781, Control_c, 0, 64, 104
1, 90796, Control_c, 0, 64, 110
1, 90811, Control_c, 0, 64, 122
1, 90826, Control_c, 0, 64, 127
1, 91121, Note_on_c, 0, 39, 43
1, 91895, Note_on_c, 0, 75, 48
1, 91919, Note_on_c, 0, 51, 38
1, 92089, Note_off_c, 0, 39, 36
1, 92202, Note_off_c, 0, 51, 41
1, 92414, Note_off_c, 0, 75, 28
1, 92524, Control_c, 0, 67, 8
1, 92835, Control_c, 0, 64, 103
1, 92847, Note_on_c, 0, 85, 48
1, 92850, Control_c, 0, 64, 90
1, 92852, Note_on_c, 0, 37, 35
1, 92865, Control_c, 0, 64, 79
1, 92880, Control_c, 0, 64, 71
1, 92895, Control_c, 0, 64, 64
1, 92909, Control_c, 0, 64, 59
1, 92924, Control_c, 0, 64, 51
1, 92939, Control_c, 0, 64, 39
1, 92954, Control_c, 0, 64, 30
1, 92969, Control_c, 0, 64, 21
1, 92983, Control_c, 0, 64, 10
1, 92998, Control_c, 0, 64, 0
1, 93064, Note_off_c, 0, 87, 37
1, 93109, Control_c, 0, 64, 11
1, 93124, Control_c, 0, 64, 22
1, 93139, Control_c, 0, 64, 31
1, 93154, Control_c, 0, 64, 40
1, 93169, Control_c, 0, 64, 49
1, 93183, Control_c, 0, 64, 57
1, 93198, Control_c, 0, 64, 62
1, 93198, Control_c, 0, 67, 8
1, 93213, Control_c, 0, 64, 66
1, 93213, Control_c, 0, 67, 9
1, 93228, Control_c, 0, 64, 68
1, 93228, Control_c, 0, 67, 10
1, 93242, Control_c, 0, 64, 70
1, 93242, Control_c, 0, 67, 10
1, 93257, Control_c, 0, 64, 74
1, 93257, Control_c, 0, 67, 12
1, 93272, Control_c, 0, 64, 78
1, 93272, Control_c, 0, 67, 12
1, 93287, Control_c, 0, 64, 82
1, 93287, Control_c, 0, 67, 14
1, 93302, Control_c, 0, 64, 87
1, 93302, Control_c, 0, 67, 16
1, 93317, Control_c, 0, 64, 92
1, 93317, Control_c, 0, 67, 18
1, 93332, Control_c, 0, 64, 98
1, 93332, Control_c, 0, 67, 20
1, 93347, Control_c, 0, 64, 105
1, 93347, Control_c, 0, 67, 22
1, 93362, Control_c, 0, 64, 115
1, 93362, Control_c, 0, 67, 25
1, 93377, Control_c, 0, 64, 127
1, 93377, Control_c, 0, 67, 29
1, 93391, Control_c, 0, 67, 31
1, 93406, Control_c, 0, 67, 32
1, 93421, Control_c, 0, 67, 34
1, 93435, Control_c, 0, 67, 37
1, 93450, Control_c, 0, 67, 38
1, 93465, Control_c, 0, 67, 40
1, 93480, Control_c, 0, 67, 41
1, 93495, Control_c, 0, 67, 42
1, 93511, Control_c, 0, 67, 43
1, 93526, Control_c, 0, 67, 44
1, 93540, Control_c, 0, 67, 45
1, 93555, Control_c, 0, 67, 45
1, 93598, Note_on_c, 0, 49, 44
1, 93673, Control_c, 0, 67, 45
1, 93703, Control_c, 0, 67, 44
1, 93718, Control_c, 0, 67, 43
1, 93732, Control_c, 0, 67, 43
1, 93747, Control_c, 0, 67, 42
1, 93762, Control_c, 0, 67, 40
1, 93777, Control_c, 0, 67, 39
1, 93792, Control_c, 0, 67, 38
1, 93806, Control_c, 0, 67, 36
1, 93821, Control_c, 0, 67, 34
1, 93844, Control_c, 0, 67, 33
1, 93858, Control_c, 0, 67, 31
1, 93873, Control_c, 0, 67, 27
1, 93888, Control_c, 0, 67, 23
1, 93901, Note_off_c, 0, 37, 26
1, 93903, Control_c, 0, 67, 18
1, 93918, Control_c, 0, 67, 13
1, 93932, Control_c, 0, 67, 8
1, 93947, Control_c, 0, 67, 0
1, 94345, Note_on_c, 0, 73, 46
1, 94406, Note_off_c, 0, 73, 0
1, 94406, Note_on_c, 0, 73, 10
1, 94596, Note_off_c, 0, 49, 41
1, 94727, Note_off_c, 0, 73, 45
1, 94743, Note_off_c, 0, 85, 33
1, 95216, Control_c, 0, 64, 101
1, 95231, Control_c, 0, 64, 76
1, 95237, Note_on_c, 0, 84, 56
1, 95246, Control_c, 0, 64, 63
1, 95249, Note_on_c, 0, 72, 38
1, 95261, Control_c, 0, 64, 50
1, 95275, Control_c, 0, 64, 30
1, 95278, Note_on_c, 0, 48, 25
1, 95290, Control_c, 0, 64, 11
1, 95293, Note_on_c, 0, 36, 23
1, 95305, Control_c, 0, 64, 0
1, 95372, Control_c, 0, 64, 17
1, 95386, Control_c, 0, 64, 30
1, 95401, Control_c, 0, 64, 41
1, 95416, Control_c, 0, 64, 52
1, 95430, Control_c, 0, 64, 64
1, 95445, Control_c, 0, 64, 76
1, 95449, Note_off_c, 0, 36, 38
1, 95460, Control_c, 0, 64, 90
1, 95475, Control_c, 0, 64, 101
1, 95489, Note_off_c, 0, 48, 46
1, 95490, Control_c, 0, 64, 127
1, 95704, Note_on_c, 0, 56, 38
1, 95712, Note_on_c, 0, 53, 36
1, 95758, Note_off_c, 0, 56, 56
1, 95768, Note_off_c, 0, 53, 44
1, 95896, Note_on_c, 0, 56, 44
1, 95919, Note_on_c, 0, 53, 23
1, 95940, Note_off_c, 0, 56, 47
1, 95964, Note_off_c, 0, 53, 47
1, 96065, Note_on_c, 0, 56, 41
1, 96095, Note_on_c, 0, 53, 32
1, 96141, Note_off_c, 0, 56, 47
1, 96214, Note_off_c, 0, 53, 32
1, 96286, Note_on_c, 0, 48, 33
1, 96437, Note_off_c, 0, 72, 40
1, 96439, Note_on_c, 0, 56, 41
1, 96462, Note_on_c, 0, 53, 27
1, 96490, Note_off_c, 0, 56, 57
1, 96514, Note_off_c, 0, 53, 47
1, 96558, Note_off_c, 0, 48, 32
1, 96587, Note_on_c, 0, 80, 61
1, 96638, Note_on_c, 0, 56, 31
1, 96677, Note_off_c, 0, 56, 51
1, 96732, Poly_aftertouch_c, 0, 53, 0
1, 96758, Note_on_c, 0, 53, 17
1, 96779, Note_on_c, 0, 56, 49
1, 96791, Note_off_c, 0, 80, 35
1, 96848, Note_off_c, 0, 56, 52
1, 96908, Note_off_c, 0, 53, 44
1, 96950, Note_on_c, 0, 80, 67
1, 96992, Note_on_c, 0, 48, 34
1, 97128, Note_on_c, 0, 56, 47
1, 97141, Note_on_c, 0, 53, 36
1, 97174, Note_off_c, 0, 56, 58
1, 97186, Note_off_c, 0, 53, 47
1, 97300, Note_off_c, 0, 80, 47
1, 97302, Note_on_c, 0, 56, 43
1, 97323, Note_off_c, 0, 84, 36
1, 97333, Note_on_c, 0, 53, 26
1, 97357, Note_off_c, 0, 56, 49
1, 97371, Note_off_c, 0, 53, 54
1, 97446, Note_off_c, 0, 48, 33
1, 97456, Note_on_c, 0, 80, 65
1, 97484, Note_on_c, 0, 56, 45
1, 97510, Note_on_c, 0, 53, 19
1, 97549, Note_off_c, 0, 56, 41
1, 97550, Note_off_c, 0, 53, 55
1, 97694, Note_on_c, 0, 85, 68
1, 97705, Note_on_c, 0, 82, 52
1, 97706, Control_c, 0, 64, 88
1, 97715, Note_on_c, 0, 79, 44
1, 97718, Note_on_c, 0, 76, 46
1, 97721, Control_c, 0, 64, 64
1, 97735, Note_off_c, 0, 80, 37
1, 97736, Control_c, 0, 64, 50
1, 97745, Note_on_c, 0, 48, 32
1, 97751, Control_c, 0, 64, 29
1, 97766, Control_c, 0, 64, 12
1, 97780, Control_c, 0, 64, 12
1, 97795, Control_c, 0, 64, 11
1, 97802, Note_off_c, 0, 76, 0
1, 97802, Note_on_c, 0, 76, 3
1, 97811, Control_c, 0, 64, 12
1, 97825, Control_c, 0, 64, 19
1, 97840, Control_c, 0, 64, 29
1, 97855, Control_c, 0, 64, 39
1, 97870, Control_c, 0, 64, 50
1, 97885, Control_c, 0, 64, 60
1, 97889, Note_on_c, 0, 58, 47
1, 97895, Note_on_c, 0, 55, 45
1, 97899, Control_c, 0, 64, 69
1, 97914, Control_c, 0, 64, 80
1, 97917, Note_off_c, 0, 82, 36
1, 97929, Control_c, 0, 64, 84
1, 97934, Note_off_c, 0, 58, 55
1, 97934, Note_off_c, 0, 55, 62
1, 97944, Control_c, 0, 64, 91
1, 97958, Note_off_c, 0, 79, 40
1, 97958, Control_c, 0, 64, 103
1, 97962, Note_off_c, 0, 76, 46
1, 97973, Control_c, 0, 64, 127
1, 98060, Note_on_c, 0, 58, 47
1, 98069, Note_on_c, 0, 55, 37
1, 98108, Note_off_c, 0, 58, 59
1, 98111, Note_off_c, 0, 55, 58
1, 98177, Note_off_c, 0, 48, 36
1, 98221, Note_on_c, 0, 58, 46
1, 98242, Note_on_c, 0, 55, 33
1, 98264, Note_off_c, 0, 58, 48
1, 98286, Note_off_c, 0, 55, 47
1, 98408, Note_on_c, 0, 82, 71
1, 98441, Note_on_c, 0, 79, 39
1, 98445, Note_on_c, 0, 76, 36
1, 98462, Note_on_c, 0, 48, 29
1, 98599, Note_on_c, 0, 58, 43
1, 98601, Note_on_c, 0, 55, 41
1, 98642, Note_off_c, 0, 55, 51
1, 98651, Note_off_c, 0, 58, 54
1, 98773, Note_on_c, 0, 58, 46
1, 98774, Note_on_c, 0, 55, 40
1, 98813, Note_off_c, 0, 55, 61
1, 98815, Note_off_c, 0, 58, 48
1, 98875, Note_off_c, 0, 85, 40
1, 98933, Note_on_c, 0, 58, 46
1, 98940, Note_on_c, 0, 55, 40
1, 98978, Note_off_c, 0, 48, 38
1, 99061, Note_off_c, 0, 55, 34
1, 99112, Note_on_c, 0, 48, 57
1, 99116, Note_off_c, 0, 58, 25
1, 99124, Note_off_c, 0, 76, 37
1, 99239, Note_off_c, 0, 79, 37
1, 99272, Note_on_c, 0, 58, 49
1, 99291, Note_on_c, 0, 55, 42
1, 99335, Note_off_c, 0, 58, 53
1, 99339, Note_off_c, 0, 55, 46
1, 99385, Note_off_c, 0, 82, 36
1, 99455, Note_on_c, 0, 55, 50
1, 99460, Note_on_c, 0, 58, 53
1, 99493, Note_off_c, 0, 55, 60
1, 99504, Note_off_c, 0, 58, 58
1, 99609, Note_on_c, 0, 58, 58
1, 99625, Note_on_c, 0, 55, 49
1, 99667, Note_off_c, 0, 48, 41
1, 99674, Note_off_c, 0, 58, 52
1, 99698, Note_off_c, 0, 55, 41
1, 99842, Note_on_c, 0, 82, 73
1, 99866, Note_on_c, 0, 76, 47
1, 99868, Note_on_c, 0, 79, 46
1, 99893, Control_c, 0, 64, 115
1, 99902, Note_on_c, 0, 48, 29
1, 99909, Control_c, 0, 64, 77
1, 99924, Control_c, 0, 64, 60
1, 99939, Control_c, 0, 64, 44
1, 99954, Control_c, 0, 64, 23
1, 99969, Control_c, 0, 64, 14
1, 99983, Control_c, 0, 64, 14
1, 99998, Control_c, 0, 64, 13
1, 100013, Control_c, 0, 64, 14
1, 100027, Control_c, 0, 64, 22
1, 100042, Control_c, 0, 64, 31
1, 100043, Note_on_c, 0, 52, 52
1, 100054, Note_on_c, 0, 55, 44
1, 100056, Control_c, 0, 64, 42
1, 100071, Control_c, 0, 64, 55
1, 100086, Control_c, 0, 64, 64
1, 100100, Control_c, 0, 64, 73
1, 100111, Note_off_c, 0, 55, 59
1, 100113, Note_off_c, 0, 52, 58
1, 100115, Control_c, 0, 64, 78
1, 100130, Control_c, 0, 64, 82
1, 100145, Control_c, 0, 64, 91
1, 100160, Control_c, 0, 64, 105
1, 100174, Control_c, 0, 64, 127
1, 100222, Note_on_c, 0, 52, 46
1, 100222, Note_on_c, 0, 55, 43
1, 100260, Note_off_c, 0, 52, 63
1, 100268, Note_off_c, 0, 55, 47
1, 100283, Poly_aftertouch_c, 0, 83, 127
1, 100310, Note_off_c, 0, 79, 39
1, 100362, Note_on_c, 0, 52, 50
1, 100378, Note_on_c, 0, 55, 49
1, 100394, Note_off_c, 0, 48, 40
1, 100494, Note_off_c, 0, 52, 53
1, 100528, Note_on_c, 0, 48, 58
1, 100573, Note_off_c, 0, 55, 42
1, 100698, Note_on_c, 0, 55, 49
1, 100707, Note_on_c, 0, 52, 50
1, 100751, Note_off_c, 0, 52, 58
1, 100764, Note_off_c, 0, 55, 50
1, 100872, Note_on_c, 0, 79, 72
1, 100890, Note_on_c, 0, 52, 45
1, 100897, Note_on_c, 0, 55, 34
1, 100918, Note_off_c, 0, 52, 59
1, 100947, Note_off_c, 0, 55, 46
1, 100994, Note_off_c, 0, 79, 58
1, 101043, Note_on_c, 0, 52, 42
1, 101047, Note_on_c, 0, 55, 44
1, 101060, Poly_aftertouch_c, 0, 83, 0
1, 101077, Note_off_c, 0, 48, 42
1, 101097, Poly_aftertouch_c, 0, 83, 127
1, 101164, Note_off_c, 0, 55, 32
1, 101178, Note_off_c, 0, 52, 32
1, 101213, Note_on_c, 0, 79, 74
1, 101219, Note_off_c, 0, 82, 31
1, 101228, Note_on_c, 0, 48, 40
1, 101327, Note_off_c, 0, 76, 37
1, 101387, Note_on_c, 0, 55, 47
1, 101392, Note_on_c, 0, 52, 53
1, 101439, Note_off_c, 0, 55, 56
1, 101440, Note_off_c, 0, 52, 60
1, 101508, Note_off_c, 0, 79, 58
1, 101556, Note_on_c, 0, 52, 58
1, 101556, Note_on_c, 0, 55, 56
1, 101601, Note_off_c, 0, 55, 56
1, 101607, Note_off_c, 0, 52, 58
1, 101705, Note_on_c, 0, 79, 79
1, 101728, Note_on_c, 0, 55, 51
1, 101733, Note_off_c, 0, 48, 42
1, 101740, Note_on_c, 0, 52, 50
1, 101760, Note_off_c, 0, 79, 60
1, 101764, Poly_aftertouch_c, 0, 83, 0
1, 101772, Note_off_c, 0, 55, 57
1, 101896, Note_off_c, 0, 52, 23
1, 101944, Note_on_c, 0, 84, 77
1, 101956, Note_on_c, 0, 80, 61
1, 101965, Note_on_c, 0, 72, 52
1, 101972, Note_on_c, 0, 77, 51
1, 101984, Control_c, 0, 64, 79
1, 101994, Note_on_c, 0, 48, 38
1, 101998, Control_c, 0, 64, 62
1, 102013, Control_c, 0, 64, 46
1, 102028, Control_c, 0, 64, 14
1, 102043, Control_c, 0, 64, 0
1, 102110, Control_c, 0, 64, 20
1, 102124, Control_c, 0, 64, 35
1, 102139, Control_c, 0, 64, 47
1, 102140, Note_on_c, 0, 56, 51
1, 102154, Control_c, 0, 64, 59
1, 102161, Note_on_c, 0, 53, 42
1, 102165, Note_off_c, 0, 72, 53
1, 102169, Control_c, 0, 64, 68
1, 102184, Control_c, 0, 64, 77
1, 102193, Note_off_c, 0, 56, 57
1, 102198, Control_c, 0, 64, 80
1, 102204, Note_off_c, 0, 53, 50
1, 102205, Note_off_c, 0, 80, 58
1, 102213, Control_c, 0, 64, 87
1, 102222, Note_off_c, 0, 77, 54
1, 102228, Control_c, 0, 64, 97
1, 102243, Control_c, 0, 64, 109
1, 102258, Control_c, 0, 64, 127
1, 102307, Note_on_c, 0, 56, 59
1, 102318, Note_on_c, 0, 53, 53
1, 102355, Note_off_c, 0, 56, 55
1, 102358, Note_off_c, 0, 53, 60
1, 102473, Note_on_c, 0, 53, 50
1, 102473, Note_off_c, 0, 48, 37
1, 102474, Note_on_c, 0, 56, 61
1, 102611, Note_off_c, 0, 53, 27
1, 102612, Note_off_c, 0, 56, 28
1, 102651, Note_on_c, 0, 80, 77
1, 102669, Note_on_c, 0, 72, 45
1, 102669, Note_on_c, 0, 77, 57
1, 102698, Note_on_c, 0, 48, 39
1, 102840, Note_on_c, 0, 56, 54
1, 102859, Note_on_c, 0, 53, 43
1, 102897, Note_off_c, 0, 53, 48
1, 102904, Note_off_c, 0, 56, 57
1, 103027, Note_on_c, 0, 56, 59
1, 103032, Note_on_c, 0, 53, 42
1, 103071, Note_off_c, 0, 56, 58
1, 103085, Note_off_c, 0, 53, 45
1, 103173, Note_on_c, 0, 56, 60
1, 103195, Note_on_c, 0, 53, 54
1, 103259, Note_off_c, 0, 56, 53
1, 103263, Note_off_c, 0, 48, 43
1, 103267, Note_off_c, 0, 53, 52
1, 103357, Note_on_c, 0, 48, 66
1, 103529, Note_on_c, 0, 56, 58
1, 103538, Note_on_c, 0, 53, 49
1, 103590, Note_off_c, 0, 56, 51
1, 103593, Note_off_c, 0, 53, 59
1, 103661, Note_off_c, 0, 77, 55
1, 103710, Note_on_c, 0, 56, 60
1, 103713, Note_off_c, 0, 84, 33
1, 103720, Note_on_c, 0, 53, 53
1, 103750, Note_off_c, 0, 56, 58
1, 103765, Note_off_c, 0, 53, 59
1, 103840, Note_off_c, 0, 80, 57
1, 103877, Note_on_c, 0, 56, 57
1, 103878, Note_off_c, 0, 72, 40
1, 103892, Note_on_c, 0, 53, 46
1, 103924, Note_off_c, 0, 48, 40
1, 103943, Note_off_c, 0, 53, 57
1, 103946, Note_off_c, 0, 56, 61
1, 104230, Control_c, 0, 64, 114
1, 104245, Control_c, 0, 64, 99
1, 104260, Control_c, 0, 64, 90
1, 104263, Note_on_c, 0, 80, 60
1, 104274, Control_c, 0, 64, 83
1, 104284, Note_on_c, 0, 77, 45
1, 104289, Control_c, 0, 64, 77
1, 104297, Note_on_c, 0, 72, 33
1, 104304, Control_c, 0, 64, 71
1, 104318, Note_on_c, 0, 41, 28
1, 104325, Control_c, 0, 64, 65
1, 104340, Control_c, 0, 64, 61
1, 104355, Control_c, 0, 64, 56
1, 104370, Control_c, 0, 64, 49
1, 104385, Control_c, 0, 64, 43
1, 104400, Control_c, 0, 64, 40
1, 104415, Control_c, 0, 64, 37
1, 104430, Control_c, 0, 64, 34
1, 104445, Control_c, 0, 64, 30
1, 104460, Control_c, 0, 64, 26
1, 104474, Control_c, 0, 64, 23
1, 104489, Control_c, 0, 64, 20
1, 104504, Control_c, 0, 64, 17
1, 104518, Control_c, 0, 64, 13
1, 104533, Control_c, 0, 64, 0
1, 104544, Note_on_c, 0, 48, 46
1, 104734, Note_on_c, 0, 50, 47
1, 104784, Note_off_c, 0, 41, 36
1, 104824, Note_off_c, 0, 48, 46
1, 104875, Control_c, 0, 67, 8
1, 104889, Control_c, 0, 67, 9
1, 104893, Note_on_c, 0, 52, 60
1, 104896, Note_off_c, 0, 77, 31
1, 104899, Note_off_c, 0, 50, 60
1, 104904, Control_c, 0, 67, 10
1, 104919, Control_c, 0, 67, 11
1, 104934, Control_c, 0, 67, 12
1, 104949, Control_c, 0, 67, 14
1, 104963, Control_c, 0, 67, 16
1, 104978, Control_c, 0, 67, 18
1, 104993, Control_c, 0, 67, 20
1, 105008, Control_c, 0, 67, 21
1, 105023, Control_c, 0, 67, 25
1, 105038, Control_c, 0, 67, 28
1, 105053, Control_c, 0, 67, 31
1, 105075, Control_c, 0, 67, 34
1, 105086, Note_off_c, 0, 52, 60
1, 105086, Note_on_c, 0, 53, 52
1, 105090, Control_c, 0, 67, 38
1, 105104, Control_c, 0, 67, 42
1, 105119, Control_c, 0, 67, 46
1, 105134, Control_c, 0, 67, 49
1, 105148, Control_c, 0, 67, 53
1, 105163, Control_c, 0, 67, 55
1, 105178, Control_c, 0, 67, 57
1, 105193, Control_c, 0, 67, 59
1, 105208, Control_c, 0, 67, 60
1, 105223, Control_c, 0, 67, 61
1, 105238, Control_c, 0, 67, 61
1, 105240, Note_off_c, 0, 53, 65
1, 105252, Note_on_c, 0, 55, 57
1, 105430, Note_on_c, 0, 77, 63
1, 105443, Note_on_c, 0, 56, 41
1, 105455, Note_off_c, 0, 55, 39
1, 105506, Control_c, 0, 64, 12
1, 105521, Control_c, 0, 64, 17
1, 105536, Control_c, 0, 64, 21
1, 105536, Control_c, 0, 67, 61
1, 105551, Control_c, 0, 64, 25
1, 105565, Control_c, 0, 64, 32
1, 105565, Control_c, 0, 67, 60
1, 105580, Control_c, 0, 64, 39
1, 105595, Control_c, 0, 64, 48
1, 105595, Control_c, 0, 67, 60
1, 105610, Control_c, 0, 64, 56
1, 105610, Control_c, 0, 67, 59
1, 105614, Note_on_c, 0, 58, 52
1, 105625, Control_c, 0, 64, 61
1, 105625, Control_c, 0, 67, 59
1, 105639, Control_c, 0, 64, 62
1, 105639, Control_c, 0, 67, 58
1, 105649, Note_off_c, 0, 77, 48
1, 105654, Control_c, 0, 64, 63
1, 105654, Control_c, 0, 67, 58
1, 105669, Control_c, 0, 64, 64
1, 105669, Control_c, 0, 67, 57
1, 105684, Control_c, 0, 64, 65
1, 105684, Control_c, 0, 67, 57
1, 105699, Control_c, 0, 64, 67
1, 105713, Control_c, 0, 64, 72
1, 105713, Control_c, 0, 67, 56
1, 105728, Control_c, 0, 64, 73
1, 105743, Control_c, 0, 64, 74
1, 105743, Control_c, 0, 67, 56
1, 105757, Note_off_c, 0, 56, 36
1, 105758, Control_c, 0, 67, 55
1, 105799, Note_on_c, 0, 77, 68
1, 105802, Control_c, 0, 67, 55
1, 105817, Note_on_c, 0, 60, 47
1, 105820, Note_off_c, 0, 58, 43
1, 105825, Control_c, 0, 64, 71
1, 105839, Control_c, 0, 64, 65
1, 105854, Control_c, 0, 64, 54
1, 105869, Control_c, 0, 64, 40
1, 105884, Control_c, 0, 64, 27
1, 105899, Control_c, 0, 64, 24
1, 105913, Control_c, 0, 64, 23
1, 105913, Control_c, 0, 67, 54
1, 105928, Control_c, 0, 64, 22
1, 105928, Control_c, 0, 67, 54
1, 105943, Control_c, 0, 67, 53
1, 105958, Control_c, 0, 64, 23
1, 105958, Control_c, 0, 67, 53
1, 105972, Control_c, 0, 64, 28
1, 105972, Control_c, 0, 67, 52
1, 105987, Control_c, 0, 64, 34
1, 105987, Control_c, 0, 67, 51
1, 105989, Note_on_c, 0, 56, 49
1, 106002, Control_c, 0, 64, 42
1, 106002, Control_c, 0, 67, 49
1, 106017, Control_c, 0, 64, 52
1, 106017, Control_c, 0, 67, 47
1, 106032, Control_c, 0, 64, 61
1, 106032, Control_c, 0, 67, 43
1, 106045, Control_c, 0, 64, 69
1, 106045, Control_c, 0, 67, 38
1, 106060, Control_c, 0, 64, 74
1, 106060, Control_c, 0, 67, 32
1, 106075, Control_c, 0, 64, 76
1, 106075, Control_c, 0, 67, 26
1, 106081, Note_off_c, 0, 80, 34
1, 106090, Control_c, 0, 64, 81
1, 106090, Control_c, 0, 67, 21
1, 106105, Control_c, 0, 64, 91
1, 106105, Control_c, 0, 67, 17
1, 106120, Control_c, 0, 64, 107
1, 106120, Control_c, 0, 67, 14
1, 106135, Control_c, 0, 64, 127
1, 106135, Control_c, 0, 67, 10
1, 106135, Note_off_c, 0, 60, 34
1, 106150, Control_c, 0, 67, 0
1, 106150, Note_on_c, 0, 55, 58
1, 106196, Note_off_c, 0, 77, 36
1, 106238, Note_off_c, 0, 56, 37
1, 106310, Note_on_c, 0, 77, 71
1, 106316, Note_on_c, 0, 53, 61
1, 106334, Note_off_c, 0, 55, 36
1, 106357, Note_off_c, 0, 53, 63
1, 106368, Note_off_c, 0, 72, 42
1, 106429, Note_off_c, 0, 77, 48
1, 106521, Control_c, 0, 64, 87
1, 106531, Note_on_c, 0, 82, 70
1, 106535, Control_c, 0, 64, 70
1, 106543, Note_on_c, 0, 76, 53
1, 106545, Note_on_c, 0, 72, 49
1, 106546, Note_on_c, 0, 79, 54
1, 106550, Control_c, 0, 64, 58
1, 106555, Note_on_c, 0, 48, 47
1, 106573, Control_c, 0, 64, 40
1, 106587, Control_c, 0, 64, 18
1, 106602, Control_c, 0, 64, 10
1, 106617, Control_c, 0, 64, 9
1, 106647, Control_c, 0, 64, 10
1, 106661, Control_c, 0, 64, 18
1, 106676, Control_c, 0, 64, 27
1, 106691, Control_c, 0, 64, 37
1, 106706, Control_c, 0, 64, 49
1, 106720, Control_c, 0, 64, 59
1, 106735, Note_off_c, 0, 48, 39
1, 106735, Control_c, 0, 64, 66
1, 106750, Control_c, 0, 64, 71
1, 106765, Control_c, 0, 64, 72
1, 106770, Note_on_c, 0, 35, 52
1, 106780, Control_c, 0, 64, 73
1, 106794, Control_c, 0, 64, 74
1, 106800, Note_off_c, 0, 79, 34
1, 106809, Control_c, 0, 64, 75
1, 106824, Control_c, 0, 64, 76
1, 106835, Note_off_c, 0, 76, 44
1, 106839, Control_c, 0, 64, 77
1, 106844, Note_off_c, 0, 72, 41
1, 106941, Note_on_c, 0, 36, 56
1, 106964, Note_off_c, 0, 35, 40
1, 106987, Control_c, 0, 64, 76
1, 107002, Control_c, 0, 64, 76
1, 107017, Control_c, 0, 64, 75
1, 107032, Control_c, 0, 64, 75
1, 107061, Control_c, 0, 64, 74
1, 107092, Control_c, 0, 64, 74
1, 107098, Note_on_c, 0, 35, 61
1, 107107, Control_c, 0, 64, 73
1, 107122, Control_c, 0, 64, 73
1, 107136, Control_c, 0, 64, 72
1, 107151, Control_c, 0, 64, 72
1, 107164, Note_off_c, 0, 36, 36
1, 107166, Control_c, 0, 64, 71
1, 107181, Control_c, 0, 64, 69
1, 107196, Control_c, 0, 64, 67
1, 107210, Control_c, 0, 64, 64
1, 107225, Control_c, 0, 64, 61
1, 107240, Control_c, 0, 64, 57
1, 107255, Control_c, 0, 64, 54
1, 107270, Control_c, 0, 64, 52
1, 107284, Control_c, 0, 64, 51
1, 107299, Control_c, 0, 64, 49
1, 107312, Note_on_c, 0, 79, 69
1, 107321, Control_c, 0, 64, 48
1, 107325, Note_on_c, 0, 72, 49
1, 107327, Note_on_c, 0, 76, 52
1, 107336, Control_c, 0, 64, 47
1, 107351, Control_c, 0, 64, 45
1, 107354, Note_on_c, 0, 36, 45
1, 107366, Control_c, 0, 64, 44
1, 107381, Control_c, 0, 64, 42
1, 107396, Control_c, 0, 64, 41
1, 107410, Control_c, 0, 64, 39
1, 107418, Note_off_c, 0, 76, 0
1, 107418, Note_on_c, 0, 76, 19
1, 107425, Control_c, 0, 64, 38
1, 107440, Control_c, 0, 64, 36
1, 107442, Note_off_c, 0, 35, 30
1, 107455, Control_c, 0, 64, 34
1, 107470, Control_c, 0, 64, 32
1, 107484, Control_c, 0, 64, 30
1, 107499, Control_c, 0, 64, 28
1, 107501, Note_on_c, 0, 40, 65
1, 107514, Control_c, 0, 64, 27
1, 107529, Control_c, 0, 64, 26
1, 107543, Control_c, 0, 64, 25
1, 107558, Control_c, 0, 64, 24
1, 107573, Control_c, 0, 64, 23
1, 107588, Control_c, 0, 64, 22
1, 107603, Control_c, 0, 64, 21
1, 107617, Control_c, 0, 64, 21
1, 107632, Control_c, 0, 64, 20
1, 107647, Control_c, 0, 64, 20
1, 107662, Control_c, 0, 64, 19
1, 107673, Note_on_c, 0, 43, 68
1, 107682, Note_off_c, 0, 36, 56
1, 107685, Note_off_c, 0, 40, 61
1, 107691, Control_c, 0, 64, 19
1, 107706, Control_c, 0, 64, 18
1, 107765, Control_c, 0, 64, 18
1, 107833, Note_off_c, 0, 82, 42
1, 107838, Note_on_c, 0, 47, 69
1, 107838, Note_off_c, 0, 43, 55
1, 107989, Control_c, 0, 64, 17
1, 108004, Control_c, 0, 64, 16
1, 108010, Note_off_c, 0, 47, 63
1, 108019, Control_c, 0, 64, 16
1, 108020, Note_on_c, 0, 48, 57
1, 108033, Control_c, 0, 64, 15
1, 108048, Control_c, 0, 64, 14
1, 108070, Control_c, 0, 64, 12
1, 108085, Control_c, 0, 64, 11
1, 108100, Control_c, 0, 64, 8
1, 108114, Control_c, 0, 64, 0
1, 108209, Note_on_c, 0, 46, 50
1, 108268, Note_off_c, 0, 48, 34
1, 108353, Control_c, 0, 64, 13
1, 108367, Control_c, 0, 64, 19
1, 108382, Control_c, 0, 64, 23
1, 108386, Note_on_c, 0, 44, 48
1, 108397, Control_c, 0, 64, 26
1, 108412, Control_c, 0, 64, 31
1, 108427, Control_c, 0, 64, 37
1, 108441, Control_c, 0, 64, 43
1, 108454, Note_off_c, 0, 46, 28
1, 108456, Control_c, 0, 64, 49
1, 108471, Control_c, 0, 64, 54
1, 108475, Note_off_c, 0, 72, 27
1, 108485, Control_c, 0, 64, 57
1, 108500, Control_c, 0, 64, 59
1, 108515, Control_c, 0, 64, 60
1, 108530, Control_c, 0, 64, 60
1, 108552, Note_on_c, 0, 43, 49
1, 108559, Control_c, 0, 64, 61
1, 108567, Note_off_c, 0, 76, 45
1, 108574, Control_c, 0, 64, 61
1, 108583, Note_off_c, 0, 44, 31
1, 108589, Control_c, 0, 64, 62
1, 108604, Control_c, 0, 64, 62
1, 108619, Control_c, 0, 64, 63
1, 108738, Control_c, 0, 64, 62
1, 108753, Control_c, 0, 64, 61
1, 108768, Control_c, 0, 64, 60
1, 108775, Note_on_c, 0, 80, 67
1, 108782, Control_c, 0, 64, 58
1, 108790, Note_on_c, 0, 72, 37
1, 108795, Note_on_c, 0, 77, 49
1, 108797, Control_c, 0, 64, 56
1, 108807, Note_on_c, 0, 41, 38
1, 108813, Note_off_c, 0, 43, 34
1, 108820, Control_c, 0, 64, 52
1, 108835, Control_c, 0, 64, 50
1, 108841, Note_off_c, 0, 79, 35
1, 108846, Note_off_c, 0, 72, 0
1, 108846, Note_on_c, 0, 72, 4
1, 108850, Control_c, 0, 64, 47
1, 108864, Control_c, 0, 64, 45
1, 108879, Control_c, 0, 64, 44
1, 108894, Control_c, 0, 64, 41
1, 108909, Control_c, 0, 64, 38
1, 108923, Control_c, 0, 64, 36
1, 108938, Control_c, 0, 64, 34
1, 108953, Control_c, 0, 64, 32
1, 108968, Control_c, 0, 64, 30
1, 108982, Control_c, 0, 64, 29
1, 108997, Control_c, 0, 64, 28
1, 109006, Note_on_c, 0, 48, 47
1, 109012, Control_c, 0, 64, 27
1, 109027, Control_c, 0, 64, 25
1, 109042, Control_c, 0, 64, 24
1, 109057, Control_c, 0, 64, 23
1, 109071, Control_c, 0, 64, 22
1, 109086, Control_c, 0, 64, 21
1, 109101, Control_c, 0, 64, 20
1, 109116, Control_c, 0, 64, 18
1, 109131, Control_c, 0, 64, 17
1, 109146, Control_c, 0, 64, 16
1, 109161, Control_c, 0, 64, 14
1, 109175, Control_c, 0, 64, 12
1, 109177, Note_on_c, 0, 50, 48
1, 109190, Control_c, 0, 64, 8
1, 109205, Control_c, 0, 64, 0
1, 109211, Note_off_c, 0, 41, 30
1, 109227, Note_off_c, 0, 48, 43
1, 109339, Note_on_c, 0, 52, 61
1, 109350, Note_off_c, 0, 50, 56
1, 109427, Note_off_c, 0, 77, 43
1, 109471, Control_c, 0, 64, 10
1, 109487, Control_c, 0, 64, 16
1, 109502, Control_c, 0, 64, 21
1, 109517, Control_c, 0, 64, 25
1, 109518, Note_off_c, 0, 52, 59
1, 109521, Note_on_c, 0, 53, 55
1, 109531, Control_c, 0, 64, 27
1, 109546, Control_c, 0, 64, 29
1, 109569, Control_c, 0, 64, 30
1, 109584, Control_c, 0, 64, 31
1, 109599, Control_c, 0, 64, 32
1, 109613, Control_c, 0, 64, 32
1, 109643, Control_c, 0, 64, 33
1, 109685, Note_off_c, 0, 53, 64
1, 109705, Note_on_c, 0, 55, 56
1, 109717, Control_c, 0, 64, 32
1, 109731, Control_c, 0, 64, 31
1, 109746, Control_c, 0, 64, 29
1, 109761, Control_c, 0, 64, 26
1, 109776, Control_c, 0, 64, 23
1, 109791, Control_c, 0, 64, 21
1, 109806, Control_c, 0, 64, 20
1, 109820, Control_c, 0, 64, 19
1, 109870, Note_off_c, 0, 55, 58
1, 109875, Note_on_c, 0, 77, 65
1, 109880, Control_c, 0, 64, 19
1, 109891, Note_on_c, 0, 56, 37
1, 109894, Control_c, 0, 64, 21
1, 109909, Control_c, 0, 64, 23
1, 109924, Control_c, 0, 64, 27
1, 109933, Note_off_c, 0, 72, 42
1, 109939, Control_c, 0, 64, 30
1, 109953, Control_c, 0, 64, 34
1, 109968, Control_c, 0, 64, 39
1, 109983, Control_c, 0, 64, 44
1, 109998, Control_c, 0, 64, 49
1, 110013, Control_c, 0, 64, 53
1, 110028, Control_c, 0, 64, 56
1, 110037, Note_off_c, 0, 77, 58
1, 110040, Note_on_c, 0, 58, 53
1, 110043, Control_c, 0, 64, 57
1, 110057, Control_c, 0, 64, 59
1, 110072, Control_c, 0, 64, 60
1, 110087, Control_c, 0, 64, 61
1, 110102, Control_c, 0, 64, 61
1, 110117, Control_c, 0, 64, 62
1, 110135, Note_off_c, 0, 56, 35
1, 110205, Control_c, 0, 64, 61
1, 110220, Control_c, 0, 64, 61
1, 110231, Note_on_c, 0, 77, 66
1, 110235, Control_c, 0, 64, 60
1, 110242, Note_on_c, 0, 60, 48
1, 110242, Note_on_c, 0, 68, 49
1, 110249, Control_c, 0, 64, 59
1, 110255, Note_on_c, 0, 72, 43
1, 110264, Control_c, 0, 64, 56
1, 110269, Note_off_c, 0, 58, 36
1, 110281, Control_c, 0, 64, 50
1, 110296, Control_c, 0, 64, 42
1, 110317, Control_c, 0, 64, 33
1, 110332, Control_c, 0, 64, 23
1, 110347, Control_c, 0, 64, 16
1, 110362, Control_c, 0, 64, 11
1, 110377, Control_c, 0, 64, 0
1, 110424, Note_on_c, 0, 56, 52
1, 110451, Control_c, 0, 64, 16
1, 110466, Control_c, 0, 64, 23
1, 110481, Control_c, 0, 64, 30
1, 110496, Control_c, 0, 64, 38
1, 110510, Control_c, 0, 64, 46
1, 110525, Control_c, 0, 64, 54
1, 110539, Control_c, 0, 64, 60
1, 110553, Control_c, 0, 64, 62
1, 110568, Control_c, 0, 64, 63
1, 110583, Control_c, 0, 64, 64
1, 110585, Note_off_c, 0, 77, 34
1, 110594, Note_on_c, 0, 55, 54
1, 110598, Control_c, 0, 64, 65
1, 110602, Note_off_c, 0, 80, 38
1, 110613, Control_c, 0, 64, 66
1, 110627, Note_off_c, 0, 60, 41
1, 110628, Control_c, 0, 64, 67
1, 110642, Control_c, 0, 64, 68
1, 110657, Control_c, 0, 64, 70
1, 110672, Control_c, 0, 64, 71
1, 110687, Control_c, 0, 64, 73
1, 110702, Control_c, 0, 64, 74
1, 110708, Note_off_c, 0, 56, 33
1, 110717, Control_c, 0, 64, 74
1, 110755, Note_on_c, 0, 77, 72
1, 110756, Note_off_c, 0, 68, 34
1, 110761, Note_on_c, 0, 53, 54
1, 110761, Control_c, 0, 64, 75
1, 110768, Note_off_c, 0, 55, 53
1, 110776, Control_c, 0, 64, 75
1, 110822, Note_off_c, 0, 53, 61
1, 110823, Note_off_c, 0, 72, 39
1, 110939, Control_c, 0, 64, 75
1, 110953, Control_c, 0, 64, 74
1, 110968, Control_c, 0, 64, 73
1, 110983, Control_c, 0, 64, 72
1, 110993, Note_on_c, 0, 78, 69
1, 110998, Control_c, 0, 64, 70
1, 111004, Note_on_c, 0, 73, 54
1, 111013, Control_c, 0, 64, 67
1, 111020, Note_on_c, 0, 51, 43
1, 111024, Note_on_c, 0, 66, 40
1, 111027, Control_c, 0, 64, 63
1, 111042, Control_c, 0, 64, 59
1, 111065, Control_c, 0, 64, 53
1, 111080, Control_c, 0, 64, 46
1, 111095, Control_c, 0, 64, 39
1, 111107, Note_off_c, 0, 77, 37
1, 111110, Control_c, 0, 64, 31
1, 111125, Control_c, 0, 64, 24
1, 111140, Control_c, 0, 64, 18
1, 111155, Control_c, 0, 64, 9
1, 111170, Control_c, 0, 64, 0
1, 111236, Note_on_c, 0, 39, 50
1, 111302, Control_c, 0, 64, 19
1, 111317, Control_c, 0, 64, 24
1, 111332, Control_c, 0, 64, 28
1, 111340, Note_off_c, 0, 51, 42
1, 111347, Control_c, 0, 64, 32
1, 111362, Control_c, 0, 64, 38
1, 111376, Control_c, 0, 64, 44
1, 111380, Note_off_c, 0, 66, 41
1, 111391, Control_c, 0, 64, 51
1, 111406, Note_on_c, 0, 41, 58
1, 111406, Control_c, 0, 64, 55
1, 111421, Control_c, 0, 64, 58
1, 111436, Control_c, 0, 64, 60
1, 111450, Control_c, 0, 64, 60
1, 111495, Control_c, 0, 64, 61
1, 111539, Control_c, 0, 64, 60
1, 111583, Note_on_c, 0, 42, 62
1, 111584, Control_c, 0, 64, 60
1, 111614, Control_c, 0, 64, 59
1, 111629, Control_c, 0, 64, 59
1, 111644, Control_c, 0, 64, 58
1, 111658, Control_c, 0, 64, 58
1, 111673, Control_c, 0, 64, 57
1, 111681, Note_off_c, 0, 39, 29
1, 111688, Control_c, 0, 64, 56
1, 111702, Control_c, 0, 64, 55
1, 111717, Control_c, 0, 64, 54
1, 111732, Control_c, 0, 64, 53
1, 111747, Control_c, 0, 64, 51
1, 111760, Note_off_c, 0, 41, 31
1, 111762, Control_c, 0, 64, 49
1, 111763, Note_on_c, 0, 75, 64
1, 111775, Note_on_c, 0, 66, 50
1, 111775, Note_on_c, 0, 72, 51
1, 111776, Control_c, 0, 64, 46
1, 111781, Note_on_c, 0, 44, 49
1, 111791, Control_c, 0, 64, 44
1, 111814, Control_c, 0, 64, 42
1, 111828, Control_c, 0, 64, 39
1, 111843, Control_c, 0, 64, 36
1, 111858, Control_c, 0, 64, 34
1, 111873, Control_c, 0, 64, 31
1, 111880, Note_off_c, 0, 42, 32
1, 111888, Control_c, 0, 64, 29
1, 111903, Control_c, 0, 64, 27
1, 111918, Control_c, 0, 64, 24
1, 111933, Control_c, 0, 64, 22
1, 111948, Control_c, 0, 64, 20
1, 111955, Note_on_c, 0, 45, 57
1, 111963, Control_c, 0, 64, 18
1, 111977, Control_c, 0, 64, 17
1, 111987, Note_off_c, 0, 44, 56
1, 111992, Control_c, 0, 64, 15
1, 112007, Control_c, 0, 64, 13
1, 112022, Control_c, 0, 64, 12
1, 112037, Control_c, 0, 64, 11
1, 112052, Control_c, 0, 64, 11
1, 112067, Control_c, 0, 64, 10
1, 112082, Control_c, 0, 64, 10
1, 112097, Control_c, 0, 64, 9
1, 112126, Control_c, 0, 64, 9
1, 112127, Note_on_c, 0, 46, 66
1, 112186, Control_c, 0, 64, 8
1, 112199, Note_off_c, 0, 78, 41
1, 112256, Note_off_c, 0, 66, 38
1, 112292, Note_on_c, 0, 44, 62
1, 112299, Note_off_c, 0, 45, 41
1, 112363, Control_c, 0, 64, 8
1, 112407, Control_c, 0, 64, 0
1, 112422, Note_off_c, 0, 46, 35
1, 112484, Note_on_c, 0, 68, 59
1, 112501, Note_on_c, 0, 42, 46
1, 112520, Note_off_c, 0, 72, 54
1, 112543, Note_off_c, 0, 44, 36
1, 112559, Note_off_c, 0, 73, 38
1, 112665, Note_off_c, 0, 42, 58
1, 112681, Note_on_c, 0, 41, 49
1, 112852, Note_on_c, 0, 66, 59
1, 112866, Note_on_c, 0, 39, 42
1, 112880, Note_off_c, 0, 41, 37
1, 112898, Note_off_c, 0, 68, 38
1, 112903, Control_c, 0, 64, 10
1, 112918, Control_c, 0, 64, 15
1, 112933, Control_c, 0, 64, 19
1, 112947, Control_c, 0, 64, 23
1, 112962, Control_c, 0, 64, 26
1, 112977, Control_c, 0, 64, 29
1, 112992, Control_c, 0, 64, 33
1, 113007, Control_c, 0, 64, 40
1, 113021, Control_c, 0, 64, 49
1, 113033, Note_off_c, 0, 66, 58
1, 113036, Control_c, 0, 64, 55
1, 113038, Note_on_c, 0, 44, 48
1, 113051, Control_c, 0, 64, 59
1, 113066, Control_c, 0, 64, 62
1, 113080, Control_c, 0, 64, 63
1, 113084, Note_off_c, 0, 39, 30
1, 113095, Control_c, 0, 64, 64
1, 113110, Control_c, 0, 64, 64
1, 113125, Control_c, 0, 64, 65
1, 113140, Note_off_c, 0, 44, 43
1, 113140, Control_c, 0, 64, 66
1, 113146, Note_off_c, 0, 75, 37
1, 113215, Control_c, 0, 64, 65
1, 113244, Control_c, 0, 64, 64
1, 113259, Control_c, 0, 64, 63
1, 113273, Control_c, 0, 64, 59
1, 113288, Control_c, 0, 64, 49
1, 113290, Note_on_c, 0, 77, 57
1, 113308, Note_on_c, 0, 73, 45
1, 113310, Control_c, 0, 64, 38
1, 113311, Note_on_c, 0, 65, 38
1, 113325, Note_on_c, 0, 37, 27
1, 113325, Control_c, 0, 64, 28
1, 113340, Control_c, 0, 64, 20
1, 113355, Control_c, 0, 64, 13
1, 113370, Control_c, 0, 64, 0
1, 113426, Note_off_c, 0, 37, 58
1, 113429, Control_c, 0, 64, 19
1, 113444, Control_c, 0, 64, 28
1, 113459, Control_c, 0, 64, 36
1, 113474, Control_c, 0, 64, 44
1, 113489, Control_c, 0, 64, 52
1, 113504, Control_c, 0, 64, 59
1, 113519, Control_c, 0, 64, 62
1, 113534, Control_c, 0, 64, 63
1, 113563, Control_c, 0, 64, 63
1, 113575, Note_on_c, 0, 49, 42
1, 113593, Control_c, 0, 64, 64
1, 113726, Control_c, 0, 64, 63
1, 113744, Note_on_c, 0, 51, 52
1, 113761, Note_off_c, 0, 73, 45
1, 113770, Control_c, 0, 64, 63
1, 113798, Note_off_c, 0, 49, 45
1, 113800, Control_c, 0, 64, 62
1, 113815, Control_c, 0, 64, 61
1, 113830, Control_c, 0, 64, 61
1, 113844, Control_c, 0, 64, 60
1, 113859, Control_c, 0, 64, 58
1, 113873, Note_off_c, 0, 51, 53
1, 113874, Control_c, 0, 64, 56
1, 113889, Control_c, 0, 64, 55
1, 113903, Control_c, 0, 64, 54
1, 113906, Note_on_c, 0, 53, 51
1, 113918, Control_c, 0, 64, 53
1, 113933, Control_c, 0, 64, 51
1, 113948, Control_c, 0, 64, 49
1, 113963, Control_c, 0, 64, 47
1, 113978, Control_c, 0, 64, 45
1, 113993, Control_c, 0, 64, 44
1, 114007, Control_c, 0, 64, 43
1, 114022, Control_c, 0, 64, 41
1, 114037, Control_c, 0, 64, 39
1, 114059, Control_c, 0, 64, 37
1, 114074, Control_c, 0, 64, 35
1, 114089, Control_c, 0, 64, 32
1, 114090, Note_on_c, 0, 54, 49
1, 114103, Control_c, 0, 64, 30
1, 114118, Note_off_c, 0, 53, 34
1, 114118, Control_c, 0, 64, 26
1, 114133, Control_c, 0, 64, 22
1, 114148, Control_c, 0, 64, 18
1, 114163, Control_c, 0, 64, 11
1, 114177, Control_c, 0, 64, 0
1, 114257, Note_on_c, 0, 56, 48
1, 114315, Note_off_c, 0, 54, 33
1, 114371, Control_c, 0, 64, 11
1, 114386, Control_c, 0, 64, 18
1, 114401, Control_c, 0, 64, 23
1, 114416, Control_c, 0, 64, 28
1, 114431, Note_on_c, 0, 73, 59
1, 114431, Control_c, 0, 64, 33
1, 114446, Control_c, 0, 64, 39
1, 114453, Note_on_c, 0, 58, 39
1, 114455, Note_off_c, 0, 56, 35
1, 114460, Control_c, 0, 64, 46
1, 114475, Control_c, 0, 64, 53
1, 114490, Control_c, 0, 64, 58
1, 114505, Control_c, 0, 64, 61
1, 114520, Control_c, 0, 64, 62
1, 114534, Control_c, 0, 64, 63
1, 114549, Control_c, 0, 64, 65
1, 114564, Control_c, 0, 64, 66
1, 114579, Control_c, 0, 64, 68
1, 114593, Control_c, 0, 64, 69
1, 114596, Note_off_c, 0, 65, 43
1, 114598, Note_on_c, 0, 56, 46
1, 114608, Control_c, 0, 64, 69
1, 114623, Control_c, 0, 64, 70
1, 114636, Note_off_c, 0, 73, 32
1, 114638, Control_c, 0, 64, 71
1, 114756, Control_c, 0, 64, 70
1, 114762, Note_off_c, 0, 58, 34
1, 114771, Control_c, 0, 64, 68
1, 114786, Control_c, 0, 64, 65
1, 114787, Note_on_c, 0, 73, 65
1, 114808, Control_c, 0, 64, 59
1, 114819, Note_on_c, 0, 65, 40
1, 114823, Control_c, 0, 64, 47
1, 114824, Note_on_c, 0, 68, 40
1, 114828, Note_on_c, 0, 54, 46
1, 114838, Control_c, 0, 64, 31
1, 114839, Note_off_c, 0, 56, 32
1, 114852, Control_c, 0, 64, 24
1, 114867, Control_c, 0, 64, 23
1, 114882, Control_c, 0, 64, 22
1, 114926, Control_c, 0, 64, 26
1, 114941, Control_c, 0, 64, 32
1, 114956, Control_c, 0, 64, 40
1, 114970, Note_off_c, 0, 54, 57
1, 114971, Control_c, 0, 64, 48
1, 114986, Control_c, 0, 64, 56
1, 114990, Note_on_c, 0, 53, 48
1, 115000, Control_c, 0, 64, 62
1, 115015, Control_c, 0, 64, 65
1, 115031, Control_c, 0, 64, 67
1, 115045, Control_c, 0, 64, 69
1, 115060, Control_c, 0, 64, 72
1, 115076, Control_c, 0, 64, 76
1, 115091, Control_c, 0, 64, 79
1, 115106, Control_c, 0, 64, 82
1, 115121, Control_c, 0, 64, 86
1, 115136, Control_c, 0, 64, 89
1, 115137, Note_off_c, 0, 65, 43
1, 115144, Note_off_c, 0, 73, 58
1, 115150, Control_c, 0, 64, 92
1, 115165, Control_c, 0, 64, 95
1, 115169, Note_on_c, 0, 51, 59
1, 115180, Control_c, 0, 64, 98
1, 115195, Control_c, 0, 64, 99
1, 115210, Note_off_c, 0, 68, 41
1, 115210, Control_c, 0, 64, 100
1, 115226, Note_off_c, 0, 53, 33
1, 115320, Note_on_c, 0, 73, 67
1, 115331, Note_on_c, 0, 49, 56
1, 115337, Note_off_c, 0, 77, 54
1, 115362, Note_off_c, 0, 51, 32
1, 115373, Control_c, 0, 64, 99
1, 115388, Control_c, 0, 64, 99
1, 115398, Note_off_c, 0, 49, 57
1, 115403, Control_c, 0, 64, 98
1, 115417, Control_c, 0, 64, 97
1, 115432, Control_c, 0, 64, 95
1, 115447, Control_c, 0, 64, 93
1, 115462, Control_c, 0, 64, 90
1, 115476, Control_c, 0, 64, 88
1, 115491, Control_c, 0, 64, 84
1, 115506, Control_c, 0, 64, 81
1, 115521, Control_c, 0, 64, 78
1, 115536, Control_c, 0, 64, 72
1, 115558, Control_c, 0, 64, 65
1, 115561, Note_on_c, 0, 78, 70
1, 115566, Note_off_c, 0, 73, 35
1, 115572, Control_c, 0, 64, 57
1, 115582, Note_on_c, 0, 75, 48
1, 115587, Note_on_c, 0, 72, 46
1, 115587, Control_c, 0, 64, 43
1, 115588, Note_on_c, 0, 66, 38
1, 115591, Note_on_c, 0, 44, 40
1, 115602, Control_c, 0, 64, 25
1, 115617, Control_c, 0, 64, 20
1, 115632, Control_c, 0, 64, 18
1, 115647, Control_c, 0, 64, 14
1, 115662, Control_c, 0, 64, 12
1, 115676, Control_c, 0, 64, 13
1, 115691, Control_c, 0, 64, 18
1, 115706, Control_c, 0, 64, 27
1, 115721, Control_c, 0, 64, 34
1, 115736, Control_c, 0, 64, 41
1, 115750, Control_c, 0, 64, 48
1, 115765, Control_c, 0, 64, 55
1, 115780, Control_c, 0, 64, 60
1, 115790, Note_on_c, 0, 31, 57
1, 115795, Note_off_c, 0, 44, 31
1, 115795, Control_c, 0, 64, 62
1, 115810, Control_c, 0, 64, 62
1, 115824, Control_c, 0, 64, 63
1, 115839, Control_c, 0, 64, 64
1, 115854, Control_c, 0, 64, 65
1, 115856, Note_off_c, 0, 66, 37
1, 115870, Control_c, 0, 64, 65
1, 115880, Note_off_c, 0, 75, 35
1, 115896, Note_off_c, 0, 72, 40
1, 115977, Note_on_c, 0, 32, 58
1, 116012, Note_off_c, 0, 31, 35
1, 116077, Control_c, 0, 64, 65
1, 116121, Control_c, 0, 64, 64
1, 116141, Note_on_c, 0, 31, 62
1, 116151, Control_c, 0, 64, 64
1, 116181, Control_c, 0, 64, 63
1, 116198, Note_off_c, 0, 32, 48
1, 116210, Control_c, 0, 64, 62
1, 116225, Control_c, 0, 64, 61
1, 116240, Control_c, 0, 64, 61
1, 116255, Control_c, 0, 64, 59
1, 116270, Control_c, 0, 64, 58
1, 116285, Control_c, 0, 64, 57
1, 116306, Control_c, 0, 64, 56
1, 116321, Control_c, 0, 64, 55
1, 116336, Control_c, 0, 64, 54
1, 116351, Control_c, 0, 64, 52
1, 116366, Control_c, 0, 64, 50
1, 116371, Note_on_c, 0, 66, 50
1, 116371, Note_on_c, 0, 75, 67
1, 116380, Control_c, 0, 64, 49
1, 116382, Note_on_c, 0, 72, 49
1, 116395, Control_c, 0, 64, 47
1, 116401, Note_on_c, 0, 32, 43
1, 116410, Control_c, 0, 64, 46
1, 116416, Note_off_c, 0, 66, 0
1, 116416, Note_on_c, 0, 66, 17
1, 116425, Control_c, 0, 64, 44
1, 116440, Control_c, 0, 64, 42
1, 116455, Control_c, 0, 64, 39
1, 116470, Control_c, 0, 64, 36
1, 116485, Control_c, 0, 64, 34
1, 116499, Control_c, 0, 64, 32
1, 116514, Control_c, 0, 64, 30
1, 116528, Note_off_c, 0, 31, 30
1, 116528, Control_c, 0, 64, 28
1, 116543, Control_c, 0, 64, 26
1, 116558, Control_c, 0, 64, 25
1, 116566, Note_on_c, 0, 34, 58
1, 116572, Control_c, 0, 64, 24
1, 116587, Control_c, 0, 64, 24
1, 116602, Control_c, 0, 64, 23
1, 116616, Control_c, 0, 64, 22
1, 116631, Control_c, 0, 64, 22
1, 116646, Control_c, 0, 64, 21
1, 116661, Control_c, 0, 64, 20
1, 116690, Note_off_c, 0, 32, 35
1, 116692, Control_c, 0, 64, 19
1, 116707, Control_c, 0, 64, 19
1, 116721, Control_c, 0, 64, 18
1, 116731, Note_on_c, 0, 36, 60
1, 116736, Control_c, 0, 64, 18
1, 116751, Control_c, 0, 64, 17
1, 116765, Note_off_c, 0, 34, 62
1, 116766, Control_c, 0, 64, 16
1, 116781, Control_c, 0, 64, 15
1, 116795, Control_c, 0, 64, 14
1, 116810, Control_c, 0, 64, 14
1, 116825, Control_c, 0, 64, 13
1, 116840, Control_c, 0, 64, 12
1, 116855, Control_c, 0, 64, 12
1, 116869, Note_off_c, 0, 78, 39
1, 116869, Control_c, 0, 64, 11
1, 116884, Control_c, 0, 64, 10
1, 116899, Control_c, 0, 64, 9
1, 116902, Note_on_c, 0, 37, 60
1, 116914, Control_c, 0, 64, 8
1, 116929, Control_c, 0, 64, 0
1, 116946, Note_off_c, 0, 36, 52
1, 117087, Note_on_c, 0, 39, 60
1, 117149, Note_off_c, 0, 66, 38
1, 117185, Note_off_c, 0, 37, 45
1, 117260, Note_on_c, 0, 41, 56
1, 117272, Note_off_c, 0, 39, 63
1, 117321, Control_c, 0, 64, 17
1, 117336, Control_c, 0, 64, 23
1, 117351, Control_c, 0, 64, 28
1, 117366, Control_c, 0, 64, 32
1, 117381, Control_c, 0, 64, 37
1, 117395, Control_c, 0, 64, 44
1, 117410, Control_c, 0, 64, 53
1, 117425, Control_c, 0, 64, 57
1, 117437, Note_on_c, 0, 42, 63
1, 117440, Control_c, 0, 64, 60
1, 117448, Note_off_c, 0, 72, 32
1, 117454, Control_c, 0, 64, 61
1, 117470, Control_c, 0, 64, 62
1, 117485, Control_c, 0, 64, 63
1, 117500, Note_off_c, 0, 41, 32
1, 117500, Control_c, 0, 64, 64
1, 117515, Control_c, 0, 64, 66
1, 117530, Control_c, 0, 64, 66
1, 117544, Control_c, 0, 64, 67
1, 117612, Note_on_c, 0, 44, 61
1, 117683, Note_off_c, 0, 42, 36
1, 117683, Note_off_c, 0, 75, 36
1, 117722, Control_c, 0, 64, 66
1, 117737, Control_c, 0, 64, 66
1, 117751, Control_c, 0, 64, 65
1, 117766, Control_c, 0, 64, 65
1, 117781, Control_c, 0, 64, 64
1, 117804, Control_c, 0, 64, 63
1, 117818, Control_c, 0, 64, 61
1, 117833, Control_c, 0, 64, 59
1, 117848, Control_c, 0, 64, 57
1, 117863, Control_c, 0, 64, 55
1, 117877, Control_c, 0, 64, 52
1, 117878, Note_on_c, 0, 77, 64
1, 117889, Note_on_c, 0, 72, 53
1, 117892, Note_off_c, 0, 44, 37
1, 117892, Note_on_c, 0, 65, 44
1, 117892, Control_c, 0, 64, 50
1, 117907, Control_c, 0, 64, 48
1, 117910, Note_on_c, 0, 37, 35
1, 117922, Control_c, 0, 64, 46
1, 117937, Control_c, 0, 64, 43
1, 117951, Control_c, 0, 64, 40
1, 117966, Control_c, 0, 64, 37
1, 117981, Control_c, 0, 64, 32
1, 117996, Control_c, 0, 64, 28
1, 118011, Control_c, 0, 64, 24
1, 118026, Control_c, 0, 64, 19
1, 118041, Control_c, 0, 64, 14
1, 118056, Control_c, 0, 64, 9
1, 118070, Control_c, 0, 64, 0
1, 118124, Note_on_c, 0, 45, 54
1, 118240, Note_off_c, 0, 65, 44
1, 118248, Control_c, 0, 64, 11
1, 118264, Control_c, 0, 64, 16
1, 118279, Control_c, 0, 64, 21
1, 118291, Note_off_c, 0, 45, 50
1, 118293, Control_c, 0, 64, 25
1, 118296, Note_on_c, 0, 46, 57
1, 118308, Control_c, 0, 64, 28
1, 118323, Control_c, 0, 64, 31
1, 118338, Control_c, 0, 64, 32
1, 118353, Control_c, 0, 64, 33
1, 118367, Control_c, 0, 64, 33
1, 118397, Control_c, 0, 64, 34
1, 118463, Note_off_c, 0, 46, 57
1, 118467, Note_on_c, 0, 45, 53
1, 118515, Control_c, 0, 64, 33
1, 118553, Control_c, 0, 64, 32
1, 118567, Control_c, 0, 64, 31
1, 118582, Control_c, 0, 64, 30
1, 118597, Control_c, 0, 64, 28
1, 118612, Control_c, 0, 64, 27
1, 118627, Control_c, 0, 64, 24
1, 118641, Control_c, 0, 64, 22
1, 118655, Note_on_c, 0, 70, 55
1, 118656, Control_c, 0, 64, 19
1, 118661, Note_on_c, 0, 46, 44
1, 118663, Note_on_c, 0, 65, 43
1, 118671, Control_c, 0, 64, 16
1, 118686, Control_c, 0, 64, 12
1, 118692, Note_off_c, 0, 45, 34
1, 118700, Control_c, 0, 64, 0
1, 118701, Note_off_c, 0, 37, 35
1, 118816, Note_off_c, 0, 46, 61
1, 118827, Note_on_c, 0, 48, 54
1, 119006, Note_on_c, 0, 73, 66
1, 119012, Note_off_c, 0, 48, 53
1, 119024, Note_on_c, 0, 49, 45
1, 119117, Control_c, 0, 64, 17
1, 119132, Control_c, 0, 64, 26
1, 119147, Control_c, 0, 64, 34
1, 119161, Control_c, 0, 64, 41
1, 119176, Control_c, 0, 64, 49
1, 119182, Note_on_c, 0, 51, 57
1, 119188, Note_off_c, 0, 72, 35
1, 119191, Control_c, 0, 64, 54
1, 119206, Control_c, 0, 64, 57
1, 119221, Control_c, 0, 64, 59
1, 119257, Note_off_c, 0, 73, 33
1, 119282, Note_off_c, 0, 49, 35
1, 119346, Control_c, 0, 64, 59
1, 119361, Control_c, 0, 64, 57
1, 119370, Note_on_c, 0, 73, 67
1, 119376, Control_c, 0, 64, 53
1, 119390, Note_on_c, 0, 53, 52
1, 119391, Control_c, 0, 64, 46
1, 119406, Control_c, 0, 64, 38
1, 119418, Note_off_c, 0, 51, 32
1, 119421, Control_c, 0, 64, 29
1, 119436, Control_c, 0, 64, 19
1, 119450, Control_c, 0, 64, 0
1, 119525, Note_off_c, 0, 53, 59
1, 119552, Note_on_c, 0, 49, 51
1, 119584, Control_c, 0, 64, 18
1, 119598, Control_c, 0, 64, 28
1, 119613, Control_c, 0, 64, 37
1, 119628, Control_c, 0, 64, 46
1, 119642, Control_c, 0, 64, 53
1, 119657, Control_c, 0, 64, 59
1, 119672, Control_c, 0, 64, 62
1, 119687, Control_c, 0, 64, 63
1, 119695, Note_off_c, 0, 73, 50
1, 119702, Control_c, 0, 64, 64
1, 119708, Note_off_c, 0, 49, 56
1, 119716, Control_c, 0, 64, 66
1, 119719, Note_on_c, 0, 48, 56
1, 119731, Control_c, 0, 64, 68
1, 119746, Control_c, 0, 64, 70
1, 119761, Control_c, 0, 64, 71
1, 119776, Control_c, 0, 64, 72
1, 119790, Control_c, 0, 64, 72
1, 119794, Note_off_c, 0, 65, 36
1, 119881, Note_on_c, 0, 73, 76
1, 119886, Note_off_c, 0, 48, 57
1, 119896, Note_on_c, 0, 46, 57
1, 119911, Note_off_c, 0, 70, 53
1, 119916, Note_off_c, 0, 77, 38
1, 119969, Control_c, 0, 64, 72
1, 119984, Control_c, 0, 64, 71
1, 119999, Control_c, 0, 64, 70
1, 120014, Control_c, 0, 64, 69
1, 120029, Control_c, 0, 64, 67
1, 120051, Control_c, 0, 64, 65
1, 120066, Control_c, 0, 64, 63
1, 120080, Control_c, 0, 64, 61
1, 120087, Note_off_c, 0, 46, 34
1, 120095, Control_c, 0, 64, 56
1, 120110, Control_c, 0, 64, 52
1, 120125, Control_c, 0, 64, 48
1, 120137, Note_on_c, 0, 75, 69
1, 120140, Control_c, 0, 64, 44
1, 120143, Note_on_c, 0, 70, 54
1, 120154, Note_on_c, 0, 48, 38
1, 120154, Control_c, 0, 64, 39
1, 120158, Note_on_c, 0, 65, 41
1, 120169, Control_c, 0, 64, 33
1, 120184, Control_c, 0, 64, 24
1, 120199, Control_c, 0, 64, 15
1, 120214, Control_c, 0, 64, 0
1, 120219, Note_off_c, 0, 73, 38
1, 120333, Control_c, 0, 64, 10
1, 120346, Note_on_c, 0, 36, 48
1, 120347, Control_c, 0, 64, 21
1, 120348, Note_off_c, 0, 48, 42
1, 120362, Control_c, 0, 64, 28
1, 120377, Control_c, 0, 64, 33
1, 120391, Control_c, 0, 64, 39
1, 120406, Control_c, 0, 64, 44
1, 120421, Control_c, 0, 64, 49
1, 120436, Control_c, 0, 64, 53
1, 120451, Control_c, 0, 64, 55
1, 120465, Control_c, 0, 64, 55
1, 120527, Note_on_c, 0, 37, 53
1, 120539, Control_c, 0, 64, 56
1, 120598, Control_c, 0, 64, 55
1, 120688, Control_c, 0, 64, 55
1, 120698, Note_on_c, 0, 39, 60
1, 120733, Control_c, 0, 64, 54
1, 120748, Control_c, 0, 64, 54
1, 120777, Control_c, 0, 64, 53
1, 120800, Control_c, 0, 64, 53
1, 120815, Control_c, 0, 64, 52
1, 120830, Control_c, 0, 64, 52
1, 120844, Control_c, 0, 64, 51
1, 120859, Control_c, 0, 64, 50
1, 120865, Note_off_c, 0, 36, 27
1, 120874, Control_c, 0, 64, 50
1, 120889, Control_c, 0, 64, 49
1, 120903, Control_c, 0, 64, 48
1, 120908, Note_on_c, 0, 72, 66
1, 120918, Control_c, 0, 64, 46
1, 120925, Note_on_c, 0, 41, 45
1, 120928, Note_off_c, 0, 37, 30
1, 120933, Control_c, 0, 64, 45
1, 120948, Control_c, 0, 64, 44
1, 120963, Control_c, 0, 64, 42
1, 120977, Control_c, 0, 64, 39
1, 120992, Control_c, 0, 64, 35
1, 121007, Control_c, 0, 64, 30
1, 121015, Note_off_c, 0, 39, 32
1, 121021, Control_c, 0, 64, 26
1, 121036, Control_c, 0, 64, 20
1, 121051, Control_c, 0, 64, 13
1, 121066, Control_c, 0, 64, 0
1, 121088, Note_on_c, 0, 42, 63
1, 121174, Note_off_c, 0, 41, 36
1, 121268, Note_off_c, 0, 75, 31
1, 121274, Note_on_c, 0, 41, 58
1, 121436, Note_off_c, 0, 42, 32
1, 121447, Note_on_c, 0, 40, 64
1, 121506, Note_off_c, 0, 41, 38
1, 121640, Note_off_c, 0, 40, 61
1, 121651, Note_on_c, 0, 41, 40
1, 121661, Note_on_c, 0, 69, 58
1, 121817, Note_off_c, 0, 65, 36
1, 121838, Note_on_c, 0, 29, 51
1, 121978, Control_c, 0, 64, 14
1, 121993, Control_c, 0, 64, 18
1, 122008, Control_c, 0, 64, 22
1, 122015, Note_on_c, 0, 65, 53
1, 122022, Note_on_c, 0, 31, 43
1, 122023, Control_c, 0, 64, 24
1, 122029, Note_off_c, 0, 29, 38
1, 122037, Control_c, 0, 64, 27
1, 122052, Control_c, 0, 64, 29
1, 122067, Control_c, 0, 64, 32
1, 122082, Control_c, 0, 64, 36
1, 122097, Control_c, 0, 64, 41
1, 122111, Control_c, 0, 64, 46
1, 122126, Control_c, 0, 64, 50
1, 122141, Control_c, 0, 64, 54
1, 122155, Control_c, 0, 64, 56
1, 122170, Control_c, 0, 64, 57
1, 122185, Control_c, 0, 64, 58
1, 122194, Note_on_c, 0, 33, 55
1, 122215, Control_c, 0, 64, 59
1, 122297, Control_c, 0, 64, 58
1, 122299, Note_off_c, 0, 31, 29
1, 122327, Control_c, 0, 64, 58
1, 122342, Control_c, 0, 64, 57
1, 122357, Control_c, 0, 64, 56
1, 122372, Control_c, 0, 64, 56
1, 122387, Control_c, 0, 64, 54
1, 122402, Control_c, 0, 64, 53
1, 122416, Control_c, 0, 64, 52
1, 122431, Control_c, 0, 64, 51
1, 122446, Control_c, 0, 64, 49
1, 122460, Control_c, 0, 64, 47
1, 122475, Note_on_c, 0, 73, 55
1, 122475, Control_c, 0, 64, 45
1, 122490, Control_c, 0, 64, 42
1, 122505, Control_c, 0, 64, 38
1, 122512, Note_on_c, 0, 34, 40
1, 122520, Control_c, 0, 64, 35
1, 122529, Note_off_c, 0, 41, 30
1, 122533, Note_off_c, 0, 33, 37
1, 122534, Control_c, 0, 64, 30
1, 122546, Note_off_c, 0, 70, 27
1, 122549, Control_c, 0, 64, 26
1, 122564, Control_c, 0, 64, 23
1, 122579, Control_c, 0, 64, 19
1, 122593, Note_off_c, 0, 72, 29
1, 122594, Control_c, 0, 64, 16
1, 122608, Control_c, 0, 64, 11
1, 122616, Note_off_c, 0, 69, 38
1, 122623, Control_c, 0, 64, 0
1, 122626, Note_off_c, 0, 65, 42
1, 122712, Note_on_c, 0, 41, 44
1, 122722, Note_off_c, 0, 34, 56
1, 122771, Control_c, 0, 64, 8
1, 122786, Control_c, 0, 64, 11
1, 122801, Control_c, 0, 64, 15
1, 122816, Control_c, 0, 64, 18
1, 122831, Control_c, 0, 64, 20
1, 122846, Control_c, 0, 64, 21
1, 122860, Control_c, 0, 64, 22
1, 122875, Control_c, 0, 64, 24
1, 122890, Control_c, 0, 64, 25
1, 122902, Note_on_c, 0, 65, 53
1, 122905, Control_c, 0, 64, 26
1, 122920, Control_c, 0, 64, 27
1, 122927, Note_on_c, 0, 43, 41
1, 122934, Control_c, 0, 64, 27
1, 122949, Control_c, 0, 64, 28
1, 122950, Note_off_c, 0, 41, 42
1, 123095, Note_on_c, 0, 45, 41
1, 123150, Control_c, 0, 64, 27
1, 123180, Control_c, 0, 64, 27
1, 123215, Note_off_c, 0, 43, 38
1, 123224, Control_c, 0, 64, 26
1, 123239, Control_c, 0, 64, 26
1, 123254, Control_c, 0, 64, 25
1, 123265, Note_on_c, 0, 46, 53
1, 123269, Control_c, 0, 64, 25
1, 123283, Control_c, 0, 64, 24
1, 123298, Control_c, 0, 64, 24
1, 123312, Note_off_c, 0, 45, 42
1, 123313, Control_c, 0, 64, 23
1, 123328, Control_c, 0, 64, 22
1, 123343, Control_c, 0, 64, 22
1, 123372, Control_c, 0, 64, 21
1, 123416, Control_c, 0, 64, 21
1, 123433, Note_off_c, 0, 46, 62
1, 123446, Note_on_c, 0, 48, 53
1, 123535, Control_c, 0, 64, 18
1, 123550, Control_c, 0, 64, 14
1, 123564, Control_c, 0, 64, 0
1, 123620, Note_on_c, 0, 70, 63
1, 123636, Note_off_c, 0, 48, 36
1, 123648, Note_on_c, 0, 49, 42
1, 123698, Control_c, 0, 64, 16
1, 123713, Control_c, 0, 64, 29
1, 123728, Control_c, 0, 64, 37
1, 123743, Control_c, 0, 64, 46
1, 123757, Control_c, 0, 64, 54
1, 123772, Control_c, 0, 64, 60
1, 123794, Control_c, 0, 64, 63
1, 123809, Control_c, 0, 64, 63
1, 123810, Note_on_c, 0, 51, 46
1, 123824, Control_c, 0, 64, 64
1, 123839, Note_off_c, 0, 70, 38
1, 123853, Control_c, 0, 64, 64
1, 123928, Control_c, 0, 64, 64
1, 123943, Control_c, 0, 64, 63
1, 123950, Note_off_c, 0, 49, 42
1, 123958, Control_c, 0, 64, 61
1, 123973, Control_c, 0, 64, 55
1, 123976, Note_on_c, 0, 70, 62
1, 123988, Note_on_c, 0, 53, 44
1, 123988, Control_c, 0, 64, 45
1, 124002, Control_c, 0, 64, 33
1, 124010, Note_off_c, 0, 51, 35
1, 124017, Control_c, 0, 64, 24
1, 124032, Control_c, 0, 64, 20
1, 124047, Control_c, 0, 64, 16
1, 124062, Control_c, 0, 64, 11
1, 124077, Control_c, 0, 64, 0
1, 124121, Control_c, 0, 64, 9
1, 124136, Control_c, 0, 64, 17
1, 124151, Control_c, 0, 64, 24
1, 124166, Note_off_c, 0, 73, 33
1, 124166, Control_c, 0, 64, 29
1, 124180, Note_on_c, 0, 49, 47
1, 124180, Control_c, 0, 64, 36
1, 124195, Control_c, 0, 64, 44
1, 124210, Control_c, 0, 64, 52
1, 124225, Control_c, 0, 64, 58
1, 124239, Control_c, 0, 64, 62
1, 124254, Control_c, 0, 64, 63
1, 124269, Control_c, 0, 64, 63
1, 124284, Control_c, 0, 64, 65
1, 124299, Control_c, 0, 64, 67
1, 124312, Note_off_c, 0, 70, 55
1, 124313, Control_c, 0, 64, 68
1, 124328, Control_c, 0, 64, 68
1, 124341, Note_off_c, 0, 53, 38
1, 124342, Note_on_c, 0, 48, 50
1, 124343, Control_c, 0, 64, 69
1, 124358, Control_c, 0, 64, 69
1, 124387, Control_c, 0, 64, 70
1, 124402, Control_c, 0, 64, 71
1, 124417, Control_c, 0, 64, 72
1, 124431, Note_off_c, 0, 65, 32
1, 124432, Control_c, 0, 64, 73
1, 124443, Note_off_c, 0, 49, 44
1, 124447, Control_c, 0, 64, 74
1, 124462, Control_c, 0, 64, 75
1, 124476, Control_c, 0, 64, 75
1, 124506, Note_on_c, 0, 70, 64
1, 124506, Control_c, 0, 64, 76
1, 124513, Note_on_c, 0, 46, 56
1, 124543, Control_c, 0, 64, 76
1, 124545, Note_off_c, 0, 48, 35
1, 124561, Note_off_c, 0, 46, 63
1, 124603, Note_off_c, 0, 70, 52
1, 124677, Control_c, 0, 64, 76
1, 124692, Control_c, 0, 64, 74
1, 124707, Control_c, 0, 64, 73
1, 124722, Control_c, 0, 64, 71
1, 124736, Control_c, 0, 64, 70
1, 124751, Control_c, 0, 64, 69
1, 124763, Note_on_c, 0, 70, 49
1, 124763, Note_on_c, 0, 75, 63
1, 124766, Control_c, 0, 64, 66
1, 124780, Control_c, 0, 64, 63
1, 124781, Note_on_c, 0, 41, 37
1, 124786, Note_on_c, 0, 65, 38
1, 124795, Control_c, 0, 64, 59
1, 124810, Control_c, 0, 64, 55
1, 124825, Control_c, 0, 64, 49
1, 124840, Control_c, 0, 64, 44
1, 124854, Control_c, 0, 64, 39
1, 124869, Control_c, 0, 64, 34
1, 124884, Control_c, 0, 64, 30
1, 124899, Control_c, 0, 64, 25
1, 124914, Control_c, 0, 64, 20
1, 124928, Control_c, 0, 64, 16
1, 124943, Control_c, 0, 64, 12
1, 124958, Control_c, 0, 64, 10
1, 124960, Note_on_c, 0, 29, 47
1, 124973, Control_c, 0, 64, 9
1, 124987, Control_c, 0, 64, 9
1, 125007, Note_off_c, 0, 41, 32
1, 125032, Control_c, 0, 64, 10
1, 125047, Control_c, 0, 64, 13
1, 125061, Control_c, 0, 64, 18
1, 125076, Control_c, 0, 64, 22
1, 125091, Control_c, 0, 64, 24
1, 125106, Control_c, 0, 64, 27
1, 125121, Control_c, 0, 64, 30
1, 125126, Note_on_c, 0, 31, 52
1, 125135, Control_c, 0, 64, 32
1, 125150, Control_c, 0, 64, 34
1, 125165, Control_c, 0, 64, 36
1, 125180, Control_c, 0, 64, 37
1, 125195, Control_c, 0, 64, 38
1, 125210, Control_c, 0, 64, 39
1, 125213, Note_off_c, 0, 29, 37
1, 125225, Control_c, 0, 64, 40
1, 125254, Control_c, 0, 64, 40
1, 125302, Note_on_c, 0, 33, 51
1, 125306, Control_c, 0, 64, 41
1, 125437, Note_off_c, 0, 31, 32
1, 125494, Note_on_c, 0, 72, 61
1, 125499, Control_c, 0, 64, 40
1, 125503, Note_on_c, 0, 34, 45
1, 125514, Control_c, 0, 64, 39
1, 125529, Control_c, 0, 64, 37
1, 125544, Control_c, 0, 64, 34
1, 125553, Note_off_c, 0, 33, 44
1, 125558, Control_c, 0, 64, 31
1, 125573, Control_c, 0, 64, 28
1, 125588, Control_c, 0, 64, 24
1, 125603, Control_c, 0, 64, 20
1, 125618, Control_c, 0, 64, 17
1, 125633, Control_c, 0, 64, 13
1, 125648, Control_c, 0, 64, 10
1, 125663, Control_c, 0, 64, 0
1, 125675, Note_off_c, 0, 34, 59
1, 125676, Note_on_c, 0, 36, 53
1, 125791, Note_off_c, 0, 75, 33
1, 125840, Control_c, 0, 64, 9
1, 125852, Note_on_c, 0, 37, 51
1, 125853, Note_off_c, 0, 36, 54
1, 125855, Control_c, 0, 64, 13
1, 125870, Control_c, 0, 64, 16
1, 125873, Note_off_c, 0, 65, 43
1, 125884, Control_c, 0, 64, 18
1, 125899, Control_c, 0, 64, 19
1, 125914, Control_c, 0, 64, 21
1, 125929, Control_c, 0, 64, 22
1, 125944, Control_c, 0, 64, 23
1, 125958, Control_c, 0, 64, 23
1, 126038, Note_on_c, 0, 39, 52
1, 126140, Note_off_c, 0, 37, 32
1, 126218, Note_on_c, 0, 69, 57
1, 126232, Control_c, 0, 64, 22
1, 126234, Note_on_c, 0, 65, 43
1, 126235, Note_off_c, 0, 70, 32
1, 126237, Note_on_c, 0, 41, 35
1, 126247, Control_c, 0, 64, 18
1, 126263, Control_c, 0, 64, 11
1, 126264, Note_off_c, 0, 39, 35
1, 126278, Control_c, 0, 64, 0
1, 126399, Note_on_c, 0, 39, 48
1, 126426, Control_c, 0, 64, 12
1, 126441, Control_c, 0, 64, 18
1, 126456, Note_off_c, 0, 41, 43
1, 126456, Control_c, 0, 64, 24
1, 126471, Control_c, 0, 64, 29
1, 126486, Control_c, 0, 64, 34
1, 126500, Control_c, 0, 64, 41
1, 126515, Control_c, 0, 64, 47
1, 126530, Control_c, 0, 64, 52
1, 126545, Control_c, 0, 64, 56
1, 126560, Control_c, 0, 64, 58
1, 126575, Control_c, 0, 64, 60
1, 126587, Note_on_c, 0, 37, 45
1, 126589, Control_c, 0, 64, 61
1, 126604, Control_c, 0, 64, 62
1, 126619, Control_c, 0, 64, 63
1, 126633, Control_c, 0, 64, 64
1, 126635, Note_off_c, 0, 65, 40
1, 126663, Control_c, 0, 64, 64
1, 126670, Note_off_c, 0, 69, 56
1, 126727, Note_off_c, 0, 39, 31
1, 126754, Note_on_c, 0, 36, 50
1, 126788, Note_off_c, 0, 37, 41
1, 126863, Control_c, 0, 64, 64
1, 126893, Control_c, 0, 64, 63
1, 126907, Control_c, 0, 64, 63
1, 126922, Control_c, 0, 64, 62
1, 126937, Control_c, 0, 64, 62
1, 126951, Control_c, 0, 64, 60
1, 126966, Control_c, 0, 64, 59
1, 126981, Control_c, 0, 64, 56
1, 126996, Control_c, 0, 64, 54
1, 126997, Note_on_c, 0, 73, 58
1, 127010, Control_c, 0, 64, 51
1, 127013, Note_on_c, 0, 70, 48
1, 127017, Note_on_c, 0, 65, 34
1, 127025, Control_c, 0, 64, 48
1, 127026, Note_on_c, 0, 34, 39
1, 127033, Note_off_c, 0, 36, 39
1, 127040, Control_c, 0, 64, 46
1, 127054, Note_off_c, 0, 72, 33
1, 127055, Control_c, 0, 64, 44
1, 127070, Control_c, 0, 64, 42
1, 127085, Control_c, 0, 64, 38
1, 127086, Note_off_c, 0, 65, 0
1, 127086, Note_on_c, 0, 65, 3
1, 127100, Control_c, 0, 64, 35
1, 127115, Control_c, 0, 64, 31
1, 127129, Control_c, 0, 64, 28
1, 127144, Control_c, 0, 64, 24
1, 127159, Control_c, 0, 64, 20
1, 127174, Control_c, 0, 64, 16
1, 127189, Control_c, 0, 64, 12
1, 127204, Control_c, 0, 64, 9
1, 127219, Control_c, 0, 64, 0
1, 127237, Note_on_c, 0, 45, 45
1, 127246, Note_off_c, 0, 34, 55
1, 127404, Note_off_c, 0, 45, 58
1, 127412, Note_on_c, 0, 46, 51
1, 127581, Control_c, 0, 64, 8
1, 127584, Note_on_c, 0, 48, 51
1, 127585, Note_off_c, 0, 46, 61
1, 127596, Control_c, 0, 64, 8
1, 127611, Control_c, 0, 64, 9
1, 127626, Control_c, 0, 64, 9
1, 127641, Control_c, 0, 64, 10
1, 127643, Note_off_c, 0, 70, 43
1, 127655, Control_c, 0, 64, 10
1, 127670, Control_c, 0, 64, 11
1, 127685, Control_c, 0, 64, 11
1, 127700, Control_c, 0, 64, 12
1, 127715, Control_c, 0, 64, 13
1, 127729, Control_c, 0, 64, 14
1, 127744, Control_c, 0, 64, 15
1, 127755, Note_off_c, 0, 48, 52
1, 127759, Control_c, 0, 64, 16
1, 127764, Note_on_c, 0, 49, 54
1, 127773, Control_c, 0, 64, 18
1, 127788, Control_c, 0, 64, 21
1, 127803, Control_c, 0, 64, 23
1, 127818, Control_c, 0, 64, 26
1, 127833, Control_c, 0, 64, 29
1, 127849, Control_c, 0, 64, 32
1, 127864, Control_c, 0, 64, 35
1, 127878, Control_c, 0, 64, 38
1, 127893, Control_c, 0, 64, 41
1, 127908, Control_c, 0, 64, 43
1, 127923, Control_c, 0, 64, 46
1, 127934, Note_on_c, 0, 51, 52
1, 127938, Control_c, 0, 64, 48
1, 127952, Control_c, 0, 64, 49
1, 127967, Control_c, 0, 64, 49
1, 128043, Note_off_c, 0, 49, 37
1, 128056, Control_c, 0, 64, 49
1, 128071, Control_c, 0, 64, 46
1, 128086, Control_c, 0, 64, 40
1, 128092, Note_on_c, 0, 70, 60
1, 128101, Control_c, 0, 64, 32
1, 128110, Note_off_c, 0, 51, 49
1, 128116, Control_c, 0, 64, 22
1, 128116, Note_on_c, 0, 53, 43
1, 128131, Control_c, 0, 64, 16
1, 128145, Control_c, 0, 64, 12
1, 128160, Control_c, 0, 64, 10
1, 128190, Control_c, 0, 64, 11
1, 128204, Control_c, 0, 64, 14
1, 128219, Control_c, 0, 64, 22
1, 128234, Control_c, 0, 64, 29
1, 128249, Control_c, 0, 64, 36
1, 128264, Control_c, 0, 64, 42
1, 128273, Note_on_c, 0, 51, 45
1, 128286, Control_c, 0, 64, 50
1, 128301, Control_c, 0, 64, 56
1, 128316, Control_c, 0, 64, 60
1, 128331, Control_c, 0, 64, 62
1, 128332, Note_off_c, 0, 53, 31
1, 128337, Note_off_c, 0, 70, 37
1, 128360, Control_c, 0, 64, 62
1, 128449, Control_c, 0, 64, 61
1, 128457, Note_on_c, 0, 70, 63
1, 128464, Control_c, 0, 64, 57
1, 128472, Note_on_c, 0, 49, 51
1, 128478, Control_c, 0, 64, 49
1, 128493, Control_c, 0, 64, 37
1, 128498, Note_off_c, 0, 51, 36
1, 128509, Control_c, 0, 64, 28
1, 128524, Control_c, 0, 64, 26
1, 128538, Control_c, 0, 64, 26
1, 128568, Control_c, 0, 64, 26
1, 128583, Control_c, 0, 64, 29
1, 128598, Control_c, 0, 64, 34
1, 128602, Note_off_c, 0, 49, 60
1, 128612, Control_c, 0, 64, 41
1, 128627, Control_c, 0, 64, 47
1, 128639, Note_on_c, 0, 48, 47
1, 128642, Control_c, 0, 64, 53
1, 128658, Control_c, 0, 64, 57
1, 128673, Control_c, 0, 64, 60
1, 128688, Control_c, 0, 64, 61
1, 128702, Control_c, 0, 64, 61
1, 128717, Control_c, 0, 64, 62
1, 128732, Control_c, 0, 64, 63
1, 128747, Control_c, 0, 64, 64
1, 128762, Control_c, 0, 64, 64
1, 128776, Control_c, 0, 64, 65
1, 128806, Control_c, 0, 64, 66
1, 128808, Note_on_c, 0, 46, 53
1, 128817, Note_off_c, 0, 65, 45
1, 128819, Note_off_c, 0, 70, 50
1, 128820, Control_c, 0, 64, 66
1, 128835, Control_c, 0, 64, 67
1, 128852, Note_off_c, 0, 48, 43
1, 128954, Control_c, 0, 64, 66
1, 128962, Note_on_c, 0, 70, 61
1, 128969, Control_c, 0, 64, 66
1, 128975, Note_on_c, 0, 44, 48
1, 128984, Control_c, 0, 64, 65
1, 128998, Control_c, 0, 64, 65
1, 129001, Note_off_c, 0, 73, 42
1, 129013, Control_c, 0, 64, 64
1, 129031, Note_off_c, 0, 46, 46
1, 129035, Control_c, 0, 64, 64
1, 129065, Control_c, 0, 64, 63
1, 129070, Note_off_c, 0, 44, 45
1, 129080, Control_c, 0, 64, 62
1, 129095, Control_c, 0, 64, 62
1, 129109, Note_off_c, 0, 70, 30
1, 129109, Control_c, 0, 64, 61
1, 129124, Control_c, 0, 64, 60
1, 129139, Control_c, 0, 64, 58
1, 129153, Control_c, 0, 64, 56
1, 129168, Control_c, 0, 64, 54
1, 129183, Control_c, 0, 64, 51
1, 129195, Note_on_c, 0, 70, 42
1, 129198, Control_c, 0, 64, 48
1, 129199, Note_on_c, 0, 73, 60
1, 129211, Note_on_c, 0, 63, 43
1, 129213, Control_c, 0, 64, 43
1, 129225, Note_on_c, 0, 43, 38
1, 129228, Control_c, 0, 64, 36
1, 129243, Control_c, 0, 64, 27
1, 129258, Control_c, 0, 64, 15
1, 129273, Control_c, 0, 64, 0
1, 129406, Control_c, 0, 64, 9
1, 129408, Note_on_c, 0, 38, 45
1, 129408, Note_off_c, 0, 70, 36
1, 129421, Control_c, 0, 64, 22
1, 129435, Control_c, 0, 64, 30
1, 129451, Control_c, 0, 64, 38
1, 129457, Note_off_c, 0, 43, 37
1, 129466, Control_c, 0, 64, 46
1, 129481, Control_c, 0, 64, 53
1, 129496, Control_c, 0, 64, 59
1, 129511, Control_c, 0, 64, 62
1, 129525, Control_c, 0, 64, 63
1, 129540, Control_c, 0, 64, 63
1, 129555, Control_c, 0, 64, 64
1, 129569, Control_c, 0, 64, 66
1, 129574, Note_on_c, 0, 39, 48
1, 129584, Control_c, 0, 64, 67
1, 129599, Control_c, 0, 64, 69
1, 129640, Note_off_c, 0, 38, 33
1, 129667, Note_off_c, 0, 63, 43
1, 129755, Note_on_c, 0, 41, 41
1, 129762, Control_c, 0, 64, 68
1, 129779, Note_off_c, 0, 39, 37
1, 129784, Control_c, 0, 64, 68
1, 129799, Control_c, 0, 64, 66
1, 129814, Control_c, 0, 64, 63
1, 129814, Control_c, 0, 67, 8
1, 129829, Control_c, 0, 64, 58
1, 129829, Control_c, 0, 67, 9
1, 129844, Control_c, 0, 64, 47
1, 129844, Control_c, 0, 67, 10
1, 129858, Control_c, 0, 64, 34
1, 129858, Control_c, 0, 67, 10
1, 129863, Note_off_c, 0, 73, 27
1, 129873, Control_c, 0, 64, 24
1, 129888, Control_c, 0, 64, 21
1, 129890, Note_off_c, 0, 41, 36
1, 129903, Control_c, 0, 64, 20
1, 129911, Note_on_c, 0, 70, 55
1, 129936, Note_on_c, 0, 43, 45
1, 129947, Control_c, 0, 64, 22
1, 129962, Control_c, 0, 64, 28
1, 129976, Control_c, 0, 64, 36
1, 129991, Control_c, 0, 64, 43
1, 129994, Note_off_c, 0, 70, 60
1, 130006, Control_c, 0, 64, 52
1, 130015, Note_on_c, 0, 72, 55
1, 130021, Control_c, 0, 64, 58
1, 130036, Control_c, 0, 64, 63
1, 130051, Control_c, 0, 64, 66
1, 130066, Control_c, 0, 64, 67
1, 130081, Control_c, 0, 64, 69
1, 130091, Note_off_c, 0, 72, 58
1, 130095, Control_c, 0, 64, 73
1, 130110, Control_c, 0, 64, 78
1, 130113, Note_on_c, 0, 70, 57
1, 130116, Note_on_c, 0, 44, 41
1, 130125, Control_c, 0, 64, 83
1, 130130, Note_off_c, 0, 43, 44
1, 130140, Control_c, 0, 64, 88
1, 130155, Control_c, 0, 64, 92
1, 130170, Control_c, 0, 64, 98
1, 130176, Note_off_c, 0, 70, 58
1, 130184, Control_c, 0, 64, 107
1, 130199, Control_c, 0, 64, 127
1, 130210, Note_on_c, 0, 72, 50
1, 130254, Note_off_c, 0, 72, 53
1, 130289, Note_on_c, 0, 70, 57
1, 130293, Note_on_c, 0, 46, 50
1, 130316, Note_off_c, 0, 44, 38
1, 130325, Note_off_c, 0, 70, 56
1, 130348, Control_c, 0, 67, 11
1, 130350, Note_on_c, 0, 72, 55
1, 130363, Control_c, 0, 67, 11
1, 130406, Note_off_c, 0, 72, 59
1, 130407, Control_c, 0, 67, 12
1, 130408, Note_on_c, 0, 70, 62
1, 130422, Control_c, 0, 67, 12
1, 130437, Control_c, 0, 67, 14
1, 130452, Control_c, 0, 67, 16
1, 130462, Note_on_c, 0, 44, 42
1, 130466, Control_c, 0, 67, 18
1, 130469, Note_off_c, 0, 70, 58
1, 130481, Control_c, 0, 67, 20
1, 130492, Note_on_c, 0, 72, 44
1, 130492, Note_off_c, 0, 46, 36
1, 130496, Control_c, 0, 67, 23
1, 130511, Control_c, 0, 67, 25
1, 130534, Control_c, 0, 67, 27
1, 130542, Note_off_c, 0, 72, 51
1, 130549, Control_c, 0, 67, 29
1, 130560, Note_on_c, 0, 70, 45
1, 130563, Control_c, 0, 67, 30
1, 130578, Control_c, 0, 67, 30
1, 130603, Note_off_c, 0, 70, 52
1, 130623, Note_on_c, 0, 72, 50
1, 130635, Note_off_c, 0, 44, 48
1, 130660, Note_off_c, 0, 72, 58
1, 130672, Note_on_c, 0, 43, 48
1, 130681, Control_c, 0, 67, 30
1, 130693, Note_on_c, 0, 70, 47
1, 130696, Control_c, 0, 67, 29
1, 130711, Control_c, 0, 67, 29
1, 130719, Note_off_c, 0, 70, 57
1, 130725, Control_c, 0, 67, 28
1, 130748, Note_on_c, 0, 72, 58
1, 130755, Control_c, 0, 67, 27
1, 130770, Control_c, 0, 67, 26
1, 130778, Note_off_c, 0, 72, 54
1, 130803, Note_on_c, 0, 70, 49
1, 130840, Note_on_c, 0, 72, 41
1, 130877, Note_off_c, 0, 70, 0
1, 130879, Note_on_c, 0, 41, 51
1, 130891, Note_on_c, 0, 70, 38
1, 130917, Note_off_c, 0, 43, 32
1, 130953, Note_off_c, 0, 70, 53
1, 130983, Note_off_c, 0, 72, 40
1, 131007, Control_c, 0, 67, 27
1, 131022, Control_c, 0, 67, 27
1, 131037, Control_c, 0, 64, 101
1, 131052, Control_c, 0, 64, 69
1, 131064, Note_on_c, 0, 71, 57
1, 131067, Control_c, 0, 64, 56
1, 131067, Control_c, 0, 67, 28
1, 131082, Control_c, 0, 64, 37
1, 131088, Note_on_c, 0, 39, 41
1, 131097, Control_c, 0, 64, 27
1, 131103, Note_off_c, 0, 41, 46
1, 131127, Note_off_c, 0, 71, 65
1, 131142, Control_c, 0, 64, 28
1, 131157, Control_c, 0, 64, 32
1, 131160, Note_on_c, 0, 72, 44
1, 131171, Control_c, 0, 64, 40
1, 131186, Control_c, 0, 64, 50
1, 131200, Note_off_c, 0, 72, 52
1, 131201, Control_c, 0, 64, 59
1, 131212, Note_on_c, 0, 71, 57
1, 131216, Control_c, 0, 64, 66
1, 131216, Control_c, 0, 67, 27
1, 131230, Control_c, 0, 64, 73
1, 131245, Control_c, 0, 64, 77
1, 131245, Control_c, 0, 67, 27
1, 131260, Control_c, 0, 64, 82
1, 131275, Note_off_c, 0, 39, 41
1, 131275, Note_off_c, 0, 71, 61
1, 131276, Note_on_c, 0, 37, 38
1, 131282, Control_c, 0, 64, 90
1, 131282, Control_c, 0, 67, 26
1, 131297, Control_c, 0, 64, 98
1, 131312, Control_c, 0, 64, 108
1, 131312, Control_c, 0, 67, 26
1, 131316, Note_on_c, 0, 72, 37
1, 131327, Control_c, 0, 64, 127
1, 131327, Control_c, 0, 67, 25
1, 131341, Control_c, 0, 67, 25
1, 131347, Note_off_c, 0, 72, 52
1, 131354, Note_on_c, 0, 71, 52
1, 131386, Control_c, 0, 67, 24
1, 131395, Note_off_c, 0, 71, 62
1, 131401, Control_c, 0, 67, 24
1, 131408, Note_off_c, 0, 37, 34
1, 131434, Note_on_c, 0, 72, 45
1, 131435, Note_on_c, 0, 36, 32
1, 131470, Note_off_c, 0, 72, 48
1, 131474, Note_on_c, 0, 71, 56
1, 131503, Control_c, 0, 67, 23
1, 131508, Note_off_c, 0, 71, 63
1, 131542, Note_on_c, 0, 72, 48
1, 131577, Control_c, 0, 67, 24
1, 131589, Note_on_c, 0, 71, 58
1, 131599, Note_on_c, 0, 34, 46
1, 131602, Note_off_c, 0, 72, 52
1, 131618, Note_off_c, 0, 36, 38
1, 131622, Control_c, 0, 67, 24
1, 131651, Control_c, 0, 67, 25
1, 131696, Control_c, 0, 67, 25
1, 131815, Note_off_c, 0, 34, 34
1, 131829, Control_c, 0, 64, 95
1, 131845, Control_c, 0, 64, 76
1, 131845, Control_c, 0, 67, 26
1, 131860, Control_c, 0, 64, 65
1, 131865, Note_on_c, 0, 72, 59
1, 131875, Control_c, 0, 64, 55
1, 131875, Control_c, 0, 67, 26
1, 131883, Note_on_c, 0, 63, 44
1, 131890, Note_on_c, 0, 60, 35
1, 131890, Control_c, 0, 64, 38
1, 131902, Note_on_c, 0, 32, 31
1, 131905, Control_c, 0, 64, 20
1, 131917, Note_off_c, 0, 71, 38
1, 131919, Control_c, 0, 64, 8
1, 131934, Control_c, 0, 64, 0
1, 132008, Control_c, 0, 64, 11
1, 132018, Note_off_c, 0, 32, 37
1, 132019, Note_on_c, 0, 39, 37
1, 132030, Control_c, 0, 64, 26
1, 132045, Control_c, 0, 64, 37
1, 132060, Control_c, 0, 64, 48
1, 132071, Note_off_c, 0, 39, 60
1, 132075, Control_c, 0, 64, 58
1, 132090, Control_c, 0, 64, 65
1, 132105, Control_c, 0, 64, 72
1, 132107, Note_on_c, 0, 36, 44
1, 132119, Control_c, 0, 64, 76
1, 132134, Control_c, 0, 64, 81
1, 132149, Control_c, 0, 64, 86
1, 132164, Control_c, 0, 64, 94
1, 132178, Control_c, 0, 64, 104
1, 132179, Note_off_c, 0, 36, 52
1, 132179, Note_on_c, 0, 39, 38
1, 132193, Control_c, 0, 64, 119
1, 132208, Control_c, 0, 64, 127
1, 132224, Note_off_c, 0, 39, 62
1, 132238, Control_c, 0, 67, 26
1, 132260, Note_on_c, 0, 44, 50
1, 132279, Note_off_c, 0, 60, 37
1, 132283, Control_c, 0, 67, 25
1, 132314, Note_off_c, 0, 44, 60
1, 132346, Note_off_c, 0, 63, 43
1, 132400, Note_on_c, 0, 51, 34
1, 132435, Note_off_c, 0, 51, 52
1, 132445, Control_c, 0, 67, 25
1, 132519, Control_c, 0, 67, 24
1, 132523, Poly_aftertouch_c, 0, 48, 127
1, 132529, Note_on_c, 0, 51, 48
1, 132581, Poly_aftertouch_c, 0, 48, 0
1, 132586, Note_off_c, 0, 51, 59
1, 132593, Control_c, 0, 64, 92
1, 132608, Control_c, 0, 64, 66
1, 132623, Control_c, 0, 64, 55
1, 132629, Note_on_c, 0, 44, 45
1, 132639, Control_c, 0, 64, 42
1, 132639, Control_c, 0, 67, 25
1, 132654, Control_c, 0, 64, 36
1, 132683, Control_c, 0, 64, 39
1, 132698, Control_c, 0, 64, 47
1, 132713, Control_c, 0, 64, 56
1, 132717, Note_on_c, 0, 51, 48
1, 132728, Control_c, 0, 64, 65
1, 132742, Control_c, 0, 64, 77
1, 132757, Control_c, 0, 64, 86
1, 132757, Control_c, 0, 67, 24
1, 132778, Note_off_c, 0, 51, 62
1, 132780, Control_c, 0, 64, 92
1, 132794, Control_c, 0, 64, 106
1, 132809, Control_c, 0, 64, 127
1, 132809, Control_c, 0, 67, 24
1, 132826, Note_on_c, 0, 48, 41
1, 132839, Control_c, 0, 67, 23
1, 132853, Note_off_c, 0, 44, 34
1, 132854, Control_c, 0, 67, 22
1, 132883, Control_c, 0, 67, 22
1, 132898, Control_c, 0, 67, 21
1, 132911, Note_on_c, 0, 51, 40
1, 132913, Control_c, 0, 67, 21
1, 132928, Control_c, 0, 67, 20
1, 132948, Note_off_c, 0, 51, 51
1, 132987, Note_on_c, 0, 68, 61
1, 132987, Control_c, 0, 67, 20
1, 133000, Note_on_c, 0, 56, 43
1, 133002, Note_on_c, 0, 60, 38
1, 133009, Note_off_c, 0, 48, 32
1, 133017, Note_on_c, 0, 63, 42
1, 133017, Control_c, 0, 67, 19
1, 133047, Control_c, 0, 67, 18
1, 133061, Control_c, 0, 67, 18
1, 133076, Control_c, 0, 67, 17
1, 133091, Control_c, 0, 67, 16
1, 133094, Note_on_c, 0, 51, 35
1, 133100, Note_off_c, 0, 56, 36
1, 133106, Control_c, 0, 67, 15
1, 133120, Control_c, 0, 67, 15
1, 133134, Note_off_c, 0, 51, 52
1, 133135, Control_c, 0, 67, 13
1, 133144, Note_off_c, 0, 60, 45
1, 133150, Control_c, 0, 67, 11
1, 133157, Note_on_c, 0, 48, 48
1, 133165, Control_c, 0, 67, 9
1, 133174, Note_off_c, 0, 63, 33
1, 133180, Control_c, 0, 67, 0
1, 133188, Note_off_c, 0, 68, 36
1, 133210, Note_off_c, 0, 48, 58
1, 133239, Note_on_c, 0, 51, 45
1, 133276, Note_off_c, 0, 51, 57
1, 133355, Note_on_c, 0, 68, 69
1, 133374, Note_on_c, 0, 60, 38
1, 133380, Note_on_c, 0, 63, 42
1, 133411, Note_on_c, 0, 48, 35
1, 133489, Note_on_c, 0, 56, 51
1, 133522, Note_off_c, 0, 60, 43
1, 133538, Note_off_c, 0, 56, 64
1, 133606, Note_on_c, 0, 51, 37
1, 133657, Note_on_c, 0, 56, 46
1, 133691, Note_off_c, 0, 63, 47
1, 133705, Note_off_c, 0, 68, 34
1, 133706, Note_off_c, 0, 56, 61
1, 133730, Note_off_c, 0, 51, 34
1, 133738, Note_on_c, 0, 60, 54
1, 133813, Note_off_c, 0, 60, 53
1, 133823, Note_on_c, 0, 56, 46
1, 133852, Note_off_c, 0, 56, 58
1, 133874, Note_on_c, 0, 51, 47
1, 133883, Note_off_c, 0, 48, 43
1, 133902, Note_on_c, 0, 68, 71
1, 133925, Note_off_c, 0, 72, 59
1, 133969, Note_on_c, 0, 56, 48
1, 134020, Note_off_c, 0, 51, 35
1, 134094, Note_off_c, 0, 56, 34
1, 134167, Note_on_c, 0, 73, 68
1, 134184, Note_on_c, 0, 67, 53
1, 134193, Note_on_c, 0, 46, 40
1, 134196, Control_c, 0, 64, 80
1, 134199, Note_on_c, 0, 63, 40
1, 134210, Control_c, 0, 64, 63
1, 134225, Control_c, 0, 64, 47
1, 134230, Note_off_c, 0, 68, 50
1, 134241, Control_c, 0, 64, 21
1, 134256, Control_c, 0, 64, 11
1, 134284, Note_on_c, 0, 55, 40
1, 134308, Control_c, 0, 64, 12
1, 134322, Control_c, 0, 64, 18
1, 134332, Note_off_c, 0, 55, 61
1, 134337, Control_c, 0, 64, 29
1, 134352, Control_c, 0, 64, 39
1, 134362, Note_on_c, 0, 51, 47
1, 134367, Control_c, 0, 64, 50
1, 134382, Control_c, 0, 64, 61
1, 134397, Control_c, 0, 64, 68
1, 134412, Control_c, 0, 64, 75
1, 134427, Control_c, 0, 64, 78
1, 134441, Control_c, 0, 64, 84
1, 134452, Note_on_c, 0, 55, 47
1, 134456, Control_c, 0, 64, 92
1, 134458, Note_off_c, 0, 67, 47
1, 134471, Control_c, 0, 64, 101
1, 134486, Note_off_c, 0, 63, 45
1, 134486, Control_c, 0, 64, 117
1, 134496, Note_off_c, 0, 55, 62
1, 134501, Control_c, 0, 64, 127
1, 134510, Note_off_c, 0, 51, 34
1, 134522, Note_on_c, 0, 58, 51
1, 134576, Note_off_c, 0, 58, 52
1, 134617, Note_on_c, 0, 55, 47
1, 134658, Note_off_c, 0, 46, 40
1, 134659, Note_off_c, 0, 55, 62
1, 134684, Note_on_c, 0, 51, 48
1, 134769, Note_on_c, 0, 55, 52
1, 134769, Note_off_c, 0, 51, 37
1, 134878, Note_off_c, 0, 55, 37
1, 134879, Note_on_c, 0, 70, 70
1, 134904, Note_on_c, 0, 63, 45
1, 134906, Note_on_c, 0, 67, 42
1, 134916, Note_on_c, 0, 49, 44
1, 134930, Control_c, 0, 64, 93
1, 134945, Control_c, 0, 64, 69
1, 134960, Control_c, 0, 64, 58
1, 134974, Control_c, 0, 64, 43
1, 134989, Control_c, 0, 64, 32
1, 135004, Control_c, 0, 64, 32
1, 135020, Note_on_c, 0, 55, 43
1, 135026, Control_c, 0, 64, 34
1, 135041, Control_c, 0, 64, 41
1, 135057, Control_c, 0, 64, 50
1, 135066, Note_off_c, 0, 55, 62
1, 135068, Note_off_c, 0, 49, 31
1, 135071, Control_c, 0, 64, 60
1, 135086, Control_c, 0, 64, 68
1, 135090, Note_on_c, 0, 51, 50
1, 135101, Control_c, 0, 64, 82
1, 135116, Control_c, 0, 64, 86
1, 135131, Control_c, 0, 64, 91
1, 135145, Control_c, 0, 64, 101
1, 135160, Control_c, 0, 64, 113
1, 135175, Control_c, 0, 64, 127
1, 135185, Note_on_c, 0, 55, 42
1, 135218, Note_off_c, 0, 55, 57
1, 135229, Note_off_c, 0, 51, 36
1, 135242, Note_on_c, 0, 58, 54
1, 135323, Note_off_c, 0, 58, 49
1, 135326, Note_on_c, 0, 55, 51
1, 135376, Note_off_c, 0, 55, 58
1, 135405, Note_on_c, 0, 51, 47
1, 135467, Note_off_c, 0, 51, 53
1, 135496, Note_on_c, 0, 55, 48
1, 135553, Note_off_c, 0, 55, 59
1, 135576, Note_on_c, 0, 49, 57
1, 135580, Note_off_c, 0, 73, 42
1, 135613, Note_off_c, 0, 67, 40
1, 135681, Note_on_c, 0, 55, 51
1, 135728, Note_off_c, 0, 49, 34
1, 135756, Note_off_c, 0, 55, 55
1, 135757, Note_on_c, 0, 51, 57
1, 135771, Note_off_c, 0, 63, 41
1, 135835, Note_on_c, 0, 55, 36
1, 135884, Note_off_c, 0, 51, 50
1, 135906, Note_off_c, 0, 55, 61
1, 135914, Note_on_c, 0, 58, 56
1, 135965, Note_off_c, 0, 70, 33
1, 136017, Note_off_c, 0, 58, 38
1, 136018, Note_on_c, 0, 55, 43
1, 136056, Note_off_c, 0, 55, 59
1, 136078, Note_on_c, 0, 51, 45
1, 136131, Note_off_c, 0, 51, 54
1, 136141, Note_on_c, 0, 55, 51
1, 136217, Note_off_c, 0, 55, 48
1, 136290, Note_on_c, 0, 75, 74
1, 136294, Control_c, 0, 64, 104
1, 136309, Control_c, 0, 64, 78
1, 136314, Note_on_c, 0, 68, 53
1, 136317, Note_on_c, 0, 63, 46
1, 136324, Control_c, 0, 64, 63
1, 136331, Note_on_c, 0, 48, 42
1, 136338, Control_c, 0, 64, 44
1, 136353, Control_c, 0, 64, 19
1, 136368, Control_c, 0, 64, 0
1, 136406, Note_on_c, 0, 56, 51
1, 136442, Control_c, 0, 64, 15
1, 136457, Control_c, 0, 64, 30
1, 136459, Note_off_c, 0, 56, 63
1, 136472, Control_c, 0, 64, 41
1, 136486, Control_c, 0, 64, 53
1, 136488, Note_on_c, 0, 51, 56
1, 136501, Control_c, 0, 64, 63
1, 136524, Control_c, 0, 64, 72
1, 136538, Control_c, 0, 64, 75
1, 136553, Control_c, 0, 64, 78
1, 136568, Control_c, 0, 64, 82
1, 136583, Control_c, 0, 64, 88
1, 136587, Note_on_c, 0, 56, 53
1, 136598, Control_c, 0, 64, 96
1, 136609, Poly_aftertouch_c, 0, 71, 127
1, 136613, Control_c, 0, 64, 105
1, 136627, Control_c, 0, 64, 115
1, 136630, Note_off_c, 0, 56, 63
1, 136643, Control_c, 0, 64, 127
1, 136672, Note_off_c, 0, 51, 36
1, 136673, Note_on_c, 0, 60, 52
1, 136683, Poly_aftertouch_c, 0, 72, 127
1, 136746, Note_off_c, 0, 48, 40
1, 136754, Note_on_c, 0, 56, 54
1, 136785, Note_off_c, 0, 56, 65
1, 136799, Note_on_c, 0, 51, 54
1, 136811, Note_off_c, 0, 60, 30
1, 136813, Poly_aftertouch_c, 0, 64, 127
1, 136874, Note_on_c, 0, 56, 61
1, 136883, Note_off_c, 0, 51, 61
1, 136932, Note_off_c, 0, 56, 54
1, 136965, Note_on_c, 0, 48, 66
1, 136996, Note_off_c, 0, 63, 45
1, 136996, Poly_aftertouch_c, 0, 71, 0
1, 137052, Note_off_c, 0, 48, 60
1, 137055, Note_off_c, 0, 68, 32
1, 137056, Note_on_c, 0, 60, 53
1, 137090, Note_off_c, 0, 75, 52
1, 137109, Poly_aftertouch_c, 0, 64, 0
1, 137114, Note_off_c, 0, 60, 55
1, 137130, Note_on_c, 0, 56, 57
1, 137192, Note_off_c, 0, 56, 60
1, 137208, Note_on_c, 0, 60, 47
1, 137252, Note_off_c, 0, 60, 49
1, 137302, Control_c, 0, 64, 79
1, 137317, Control_c, 0, 64, 62
1, 137327, Note_on_c, 0, 74, 71
1, 137332, Control_c, 0, 64, 48
1, 137339, Note_on_c, 0, 47, 60
1, 137339, Note_on_c, 0, 62, 59
1, 137342, Note_on_c, 0, 68, 59
1, 137347, Control_c, 0, 64, 31
1, 137361, Control_c, 0, 64, 25
1, 137387, Poly_aftertouch_c, 0, 72, 0
1, 137390, Note_off_c, 0, 62, 0
1, 137390, Note_on_c, 0, 62, 15
1, 137391, Control_c, 0, 64, 30
1, 137406, Control_c, 0, 64, 37
1, 137421, Control_c, 0, 64, 47
1, 137428, Note_off_c, 0, 47, 58
1, 137429, Note_on_c, 0, 59, 52
1, 137437, Control_c, 0, 64, 57
1, 137452, Control_c, 0, 64, 67
1, 137466, Control_c, 0, 64, 80
1, 137481, Control_c, 0, 64, 84
1, 137486, Note_off_c, 0, 62, 51
1, 137490, Note_off_c, 0, 59, 57
1, 137493, Note_off_c, 0, 74, 64
1, 137496, Control_c, 0, 64, 86
1, 137500, Note_on_c, 0, 56, 58
1, 137511, Control_c, 0, 64, 91
1, 137514, Note_off_c, 0, 68, 54
1, 137515, Note_on_c, 0, 72, 8
1, 137526, Control_c, 0, 64, 94
1, 137540, Control_c, 0, 64, 96
1, 137555, Control_c, 0, 64, 97
1, 137577, Note_on_c, 0, 59, 61
1, 137577, Note_off_c, 0, 56, 60
1, 137599, Control_c, 0, 64, 96
1, 137614, Control_c, 0, 64, 92
1, 137629, Control_c, 0, 64, 77
1, 137644, Control_c, 0, 64, 63
1, 137659, Control_c, 0, 64, 47
1, 137661, Note_off_c, 0, 59, 58
1, 137668, Note_on_c, 0, 75, 82
1, 137673, Control_c, 0, 64, 24
1, 137678, Note_on_c, 0, 63, 65
1, 137678, Note_on_c, 0, 68, 58
1, 137688, Control_c, 0, 64, 21
1, 137694, Note_on_c, 0, 48, 62
1, 137694, Note_off_c, 0, 72, 46
1, 137718, Control_c, 0, 64, 22
1, 137732, Control_c, 0, 64, 30
1, 137747, Control_c, 0, 64, 39
1, 137762, Control_c, 0, 64, 51
1, 137776, Note_on_c, 0, 60, 66
1, 137777, Control_c, 0, 64, 63
1, 137792, Control_c, 0, 64, 77
1, 137796, Note_off_c, 0, 63, 55
1, 137803, Note_off_c, 0, 48, 60
1, 137807, Control_c, 0, 64, 86
1, 137822, Control_c, 0, 64, 87
1, 137837, Control_c, 0, 64, 91
1, 137840, Note_off_c, 0, 60, 64
1, 137843, Note_on_c, 0, 56, 68
1, 137851, Note_off_c, 0, 75, 61
1, 137852, Control_c, 0, 64, 96
1, 137866, Control_c, 0, 64, 100
1, 137881, Control_c, 0, 64, 103
1, 137884, Note_off_c, 0, 68, 36
1, 137905, Note_on_c, 0, 60, 61
1, 137935, Note_off_c, 0, 56, 59
1, 137940, Control_c, 0, 64, 102
1, 137955, Control_c, 0, 64, 99
1, 137970, Control_c, 0, 64, 88
1, 137972, Note_off_c, 0, 60, 63
1, 137984, Control_c, 0, 64, 71
1, 137999, Control_c, 0, 64, 58
1, 138016, Note_on_c, 0, 77, 87
1, 138022, Control_c, 0, 64, 39
1, 138027, Note_on_c, 0, 49, 67
1, 138028, Note_on_c, 0, 68, 58
1, 138034, Note_on_c, 0, 65, 54
1, 138037, Control_c, 0, 64, 19
1, 138051, Control_c, 0, 64, 18
1, 138066, Control_c, 0, 64, 19
1, 138081, Control_c, 0, 64, 26
1, 138096, Control_c, 0, 64, 36
1, 138101, Note_on_c, 0, 61, 70
1, 138110, Control_c, 0, 64, 47
1, 138125, Control_c, 0, 64, 59
1, 138137, Note_off_c, 0, 49, 60
1, 138140, Control_c, 0, 64, 70
1, 138155, Control_c, 0, 64, 83
1, 138162, Note_off_c, 0, 68, 59
1, 138186, Note_on_c, 0, 56, 68
1, 138191, Note_off_c, 0, 61, 64
1, 138229, Note_off_c, 0, 65, 34
1, 138266, Note_on_c, 0, 61, 68
1, 138273, Control_c, 0, 64, 81
1, 138281, Note_off_c, 0, 56, 63
1, 138287, Control_c, 0, 64, 79
1, 138302, Control_c, 0, 64, 77
1, 138317, Control_c, 0, 64, 74
1, 138332, Control_c, 0, 64, 71
1, 138347, Control_c, 0, 64, 64
1, 138358, Note_off_c, 0, 61, 64
1, 138361, Control_c, 0, 64, 54
1, 138374, Note_on_c, 0, 75, 83
1, 138376, Control_c, 0, 64, 40
1, 138391, Note_on_c, 0, 51, 65
1, 138391, Control_c, 0, 64, 21
1, 138406, Control_c, 0, 64, 0
1, 138455, Note_on_c, 0, 63, 64
1, 138481, Note_off_c, 0, 51, 58
1, 138510, Control_c, 0, 64, 21
1, 138525, Control_c, 0, 64, 35
1, 138527, Note_off_c, 0, 63, 64
1, 138532, Note_on_c, 0, 55, 63
1, 138539, Control_c, 0, 64, 49
1, 138554, Control_c, 0, 64, 59
1, 138569, Control_c, 0, 64, 66
1, 138584, Control_c, 0, 64, 70
1, 138599, Control_c, 0, 64, 70
1, 138603, Note_off_c, 0, 55, 63
1, 138606, Note_on_c, 0, 63, 64
1, 138613, Control_c, 0, 64, 71
1, 138628, Control_c, 0, 64, 73
1, 138643, Control_c, 0, 64, 74
1, 138658, Control_c, 0, 64, 75
1, 138687, Control_c, 0, 64, 75
1, 138697, Note_off_c, 0, 63, 63
1, 138702, Control_c, 0, 64, 68
1, 138715, Note_on_c, 0, 74, 81
1, 138717, Control_c, 0, 64, 56
1, 138728, Note_on_c, 0, 53, 67
1, 138731, Control_c, 0, 64, 38
1, 138738, Note_off_c, 0, 77, 55
1, 138746, Control_c, 0, 64, 23
1, 138769, Control_c, 0, 64, 22
1, 138784, Control_c, 0, 64, 24
1, 138799, Control_c, 0, 64, 31
1, 138813, Note_on_c, 0, 65, 60
1, 138813, Control_c, 0, 64, 41
1, 138814, Note_off_c, 0, 53, 62
1, 138828, Control_c, 0, 64, 53
1, 138843, Control_c, 0, 64, 62
1, 138857, Note_off_c, 0, 74, 63
1, 138858, Control_c, 0, 64, 67
1, 138873, Control_c, 0, 64, 69
1, 138879, Note_off_c, 0, 65, 59
1, 138883, Note_on_c, 0, 56, 59
1, 138892, Note_off_c, 0, 75, 44
1, 138946, Note_off_c, 0, 56, 60
1, 138946, Note_on_c, 0, 65, 46
1, 138992, Control_c, 0, 64, 66
1, 139007, Control_c, 0, 64, 59
1, 139017, Note_off_c, 0, 65, 62
1, 139021, Control_c, 0, 64, 41
1, 139037, Control_c, 0, 64, 18
1, 139052, Control_c, 0, 64, 0
1, 139066, Note_on_c, 0, 55, 53
1, 139069, Note_on_c, 0, 73, 60
1, 139111, Control_c, 0, 64, 21
1, 139119, Note_off_c, 0, 73, 61
1, 139126, Control_c, 0, 64, 32
1, 139141, Control_c, 0, 64, 42
1, 139145, Note_on_c, 0, 75, 63
1, 139155, Control_c, 0, 64, 53
1, 139158, Note_on_c, 0, 67, 54
1, 139170, Control_c, 0, 64, 62
1, 139185, Control_c, 0, 64, 70
1, 139200, Control_c, 0, 64, 75
1, 139206, Note_off_c, 0, 75, 60
1, 139215, Control_c, 0, 64, 76
1, 139223, Note_off_c, 0, 55, 42
1, 139226, Note_on_c, 0, 58, 57
1, 139226, Note_on_c, 0, 73, 62
1, 139230, Control_c, 0, 64, 78
1, 139233, Note_off_c, 0, 67, 62
1, 139244, Note_off_c, 0, 73, 64
1, 139244, Control_c, 0, 64, 82
1, 139259, Control_c, 0, 64, 86
1, 139274, Control_c, 0, 64, 90
1, 139284, Note_off_c, 0, 58, 63
1, 139289, Control_c, 0, 64, 92
1, 139301, Note_on_c, 0, 75, 42
1, 139303, Control_c, 0, 64, 94
1, 139318, Control_c, 0, 64, 96
1, 139333, Control_c, 0, 64, 100
1, 139348, Poly_aftertouch_c, 0, 73, 127
1, 139348, Control_c, 0, 64, 108
1, 139363, Note_off_c, 0, 75, 62
1, 139363, Control_c, 0, 64, 127
1, 139379, Note_on_c, 0, 51, 60
1, 139409, Note_on_c, 0, 75, 58
1, 139410, Poly_aftertouch_c, 0, 73, 0
1, 139447, Note_on_c, 0, 73, 43
1, 139450, Note_off_c, 0, 75, 61
1, 139464, Note_on_c, 0, 63, 54
1, 139475, Note_off_c, 0, 51, 62
1, 139478, Note_off_c, 0, 73, 64
1, 139503, Note_on_c, 0, 75, 50
1, 139532, Note_off_c, 0, 63, 58
1, 139540, Note_off_c, 0, 75, 50
1, 139546, Note_on_c, 0, 73, 72
1, 139560, Note_on_c, 0, 55, 44
1, 139568, Note_off_c, 0, 73, 58
1, 139610, Note_off_c, 0, 55, 55
1, 139613, Note_on_c, 0, 75, 52
1, 139626, Note_on_c, 0, 63, 50
1, 139637, Note_on_c, 0, 73, 63
1, 139640, Note_off_c, 0, 75, 54
1, 139665, Note_off_c, 0, 73, 61
1, 139688, Note_on_c, 0, 75, 64
1, 139714, Note_off_c, 0, 75, 66
1, 139718, Note_off_c, 0, 63, 61
1, 139728, Note_on_c, 0, 73, 75
1, 139756, Control_c, 0, 64, 87
1, 139762, Note_on_c, 0, 53, 63
1, 139763, Note_off_c, 0, 73, 62
1, 139770, Control_c, 0, 64, 68
1, 139779, Note_on_c, 0, 75, 71
1, 139785, Control_c, 0, 64, 55
1, 139800, Control_c, 0, 64, 43
1, 139815, Control_c, 0, 64, 42
1, 139816, Note_off_c, 0, 75, 63
1, 139825, Note_on_c, 0, 73, 67
1, 139831, Control_c, 0, 64, 46
1, 139846, Control_c, 0, 64, 52
1, 139854, Note_on_c, 0, 65, 59
1, 139854, Note_off_c, 0, 73, 64
1, 139860, Control_c, 0, 64, 59
1, 139865, Note_on_c, 0, 75, 57
1, 139875, Control_c, 0, 64, 66
1, 139879, Note_off_c, 0, 53, 48
1, 139890, Control_c, 0, 64, 74
1, 139900, Note_off_c, 0, 75, 63
1, 139905, Control_c, 0, 64, 81
1, 139909, Note_off_c, 0, 65, 56
1, 139916, Note_on_c, 0, 73, 66
1, 139920, Control_c, 0, 64, 84
1, 139928, Note_on_c, 0, 56, 62
1, 139934, Note_off_c, 0, 73, 65
1, 139934, Control_c, 0, 64, 86
1, 139949, Control_c, 0, 64, 88
1, 139950, Note_on_c, 0, 75, 66
1, 139964, Control_c, 0, 64, 88
1, 139978, Control_c, 0, 64, 89
1, 139997, Note_on_c, 0, 73, 72
1, 139998, Note_off_c, 0, 75, 59
1, 140010, Note_on_c, 0, 65, 53
1, 140019, Note_off_c, 0, 56, 60
1, 140082, Control_c, 0, 64, 88
1, 140097, Control_c, 0, 64, 87
1, 140111, Control_c, 0, 64, 81
1, 140112, Note_off_c, 0, 65, 59
1, 140126, Control_c, 0, 64, 71
1, 140138, Note_on_c, 0, 55, 57
1, 140141, Note_off_c, 0, 73, 60
1, 140141, Control_c, 0, 64, 60
1, 140145, Note_on_c, 0, 72, 74
1, 140156, Control_c, 0, 64, 41
1, 140171, Control_c, 0, 64, 20
1, 140186, Control_c, 0, 64, 12
1, 140201, Control_c, 0, 64, 11
1, 140230, Control_c, 0, 64, 13
1, 140245, Control_c, 0, 64, 25
1, 140249, Note_on_c, 0, 67, 63
1, 140267, Control_c, 0, 64, 37
1, 140282, Control_c, 0, 64, 48
1, 140297, Control_c, 0, 64, 60
1, 140311, Control_c, 0, 64, 69
1, 140326, Control_c, 0, 64, 79
1, 140327, Note_off_c, 0, 67, 58
1, 140338, Note_on_c, 0, 70, 75
1, 140353, Note_off_c, 0, 72, 59
1, 140356, Control_c, 0, 64, 80
1, 140359, Note_on_c, 0, 58, 56
1, 140371, Control_c, 0, 64, 83
1, 140385, Control_c, 0, 64, 85
1, 140400, Control_c, 0, 64, 87
1, 140415, Control_c, 0, 64, 88
1, 140422, Note_off_c, 0, 55, 44
1, 140425, Note_off_c, 0, 70, 60
1, 140440, Note_on_c, 0, 67, 58
1, 140490, Control_c, 0, 64, 87
1, 140505, Control_c, 0, 64, 85
1, 140519, Control_c, 0, 64, 83
1, 140534, Control_c, 0, 64, 81
1, 140549, Control_c, 0, 64, 77
1, 140564, Control_c, 0, 64, 72
1, 140579, Control_c, 0, 64, 66
1, 140593, Control_c, 0, 64, 62
1, 140608, Control_c, 0, 64, 56
1, 140623, Control_c, 0, 64, 48
1, 140629, Note_off_c, 0, 67, 30
1, 140639, Control_c, 0, 64, 39
1, 140654, Control_c, 0, 64, 32
1, 140654, Note_on_c, 0, 63, 55
1, 140660, Note_on_c, 0, 68, 40
1, 140661, Note_on_c, 0, 60, 47
1, 140669, Control_c, 0, 64, 25
1, 140683, Control_c, 0, 64, 11
1, 140698, Control_c, 0, 64, 0
1, 140734, Note_off_c, 0, 58, 31
1, 140763, Note_on_c, 0, 75, 53
1, 140785, Note_off_c, 0, 68, 46
1, 140831, Control_c, 0, 64, 21
1, 140836, Note_off_c, 0, 75, 61
1, 140846, Control_c, 0, 64, 33
1, 140857, Note_on_c, 0, 72, 49
1, 140861, Control_c, 0, 64, 43
1, 140875, Control_c, 0, 64, 54
1, 140890, Control_c, 0, 64, 62
1, 140904, Note_off_c, 0, 72, 57
1, 140905, Control_c, 0, 64, 68
1, 140912, Note_on_c, 0, 75, 59
1, 140920, Control_c, 0, 64, 77
1, 140934, Control_c, 0, 64, 84
1, 140949, Control_c, 0, 64, 89
1, 140950, Note_off_c, 0, 75, 62
1, 140964, Control_c, 0, 64, 98
1, 140979, Control_c, 0, 64, 117
1, 140994, Control_c, 0, 64, 127
1, 141028, Note_on_c, 0, 80, 69
1, 141079, Note_off_c, 0, 80, 53
1, 141113, Note_on_c, 0, 87, 64
1, 141175, Note_off_c, 0, 87, 64
1, 141196, Note_on_c, 0, 84, 62
1, 141199, Note_off_c, 0, 60, 59
1, 141262, Note_on_c, 0, 87, 59
1, 141267, Note_off_c, 0, 84, 51
1, 141354, Note_on_c, 0, 92, 65
1, 141363, Note_off_c, 0, 87, 57
1, 141416, Note_off_c, 0, 92, 58
1, 141447, Note_on_c, 0, 80, 42
1, 141480, Note_off_c, 0, 80, 51
1, 141512, Note_on_c, 0, 92, 62
1, 141569, Note_off_c, 0, 92, 59
1, 141583, Note_on_c, 0, 80, 50
1, 141665, Note_off_c, 0, 80, 54
1, 141682, Note_on_c, 0, 92, 65
1, 141697, Note_on_c, 0, 60, 54
1, 141709, Note_on_c, 0, 56, 42
1, 141765, Note_off_c, 0, 92, 57
1, 141781, Note_on_c, 0, 80, 58
1, 141796, Note_off_c, 0, 63, 33
1, 141839, Note_off_c, 0, 80, 57
1, 141863, Note_on_c, 0, 92, 62
1, 141865, Note_off_c, 0, 60, 58
1, 141881, Note_off_c, 0, 56, 45
1, 141926, Note_off_c, 0, 92, 60
1, 141944, Note_on_c, 0, 80, 63
1, 142028, Note_off_c, 0, 80, 58
1, 142040, Note_on_c, 0, 92, 69
1, 142049, Note_on_c, 0, 60, 65
1, 142061, Note_on_c, 0, 56, 47
1, 142106, Note_off_c, 0, 92, 59
1, 142136, Note_on_c, 0, 80, 62
1, 142194, Note_off_c, 0, 80, 60
1, 142211, Note_on_c, 0, 92, 71
1, 142282, Note_off_c, 0, 92, 60
1, 142290, Note_off_c, 0, 56, 30
1, 142299, Note_on_c, 0, 80, 68
1, 142317, Note_off_c, 0, 60, 61
1, 142359, Note_off_c, 0, 80, 62
1, 142380, Note_on_c, 0, 92, 77
1, 142444, Note_off_c, 0, 92, 60
1, 142457, Note_on_c, 0, 80, 69
1, 142556, Note_on_c, 0, 92, 75
1, 142556, Note_off_c, 0, 80, 60
1, 142562, Note_on_c, 0, 60, 68
1, 142568, Note_on_c, 0, 56, 58
1, 142630, Note_off_c, 0, 92, 57
1, 142639, Note_on_c, 0, 80, 61
1, 142760, Note_off_c, 0, 80, 55
1, 142779, Note_on_c, 0, 92, 67
1, 142779, Note_on_c, 0, 65, 71
1, 142794, Note_off_c, 0, 60, 54
1, 142795, Control_c, 0, 64, 93
1, 142796, Note_on_c, 0, 61, 57
1, 142810, Control_c, 0, 64, 70
1, 142825, Control_c, 0, 64, 57
1, 142840, Control_c, 0, 64, 30
1, 142854, Control_c, 0, 64, 0
1, 142860, Note_off_c, 0, 92, 61
1, 142878, Note_on_c, 0, 80, 61
1, 142883, Note_off_c, 0, 56, 35
1, 142913, Control_c, 0, 64, 19
1, 142928, Control_c, 0, 64, 30
1, 142943, Control_c, 0, 64, 40
1, 142953, Note_off_c, 0, 80, 60
1, 142958, Control_c, 0, 64, 52
1, 142966, Note_on_c, 0, 92, 74
1, 142973, Control_c, 0, 64, 62
1, 142988, Control_c, 0, 64, 69
1, 143003, Control_c, 0, 64, 72
1, 143018, Control_c, 0, 64, 73
1, 143026, Note_off_c, 0, 92, 60
1, 143030, Note_off_c, 0, 61, 62
1, 143033, Control_c, 0, 64, 76
1, 143046, Note_on_c, 0, 80, 70
1, 143048, Control_c, 0, 64, 79
1, 143063, Control_c, 0, 64, 85
1, 143077, Control_c, 0, 64, 90
1, 143092, Control_c, 0, 64, 94
1, 143103, Note_off_c, 0, 80, 61
1, 143107, Control_c, 0, 64, 98
1, 143122, Control_c, 0, 64, 102
1, 143123, Note_on_c, 0, 92, 78
1, 143137, Control_c, 0, 64, 105
1, 143152, Control_c, 0, 64, 108
1, 143167, Control_c, 0, 64, 114
1, 143182, Control_c, 0, 64, 122
1, 143184, Note_off_c, 0, 92, 58
1, 143196, Control_c, 0, 64, 127
1, 143198, Note_on_c, 0, 80, 71
1, 143272, Note_off_c, 0, 80, 62
1, 143292, Note_on_c, 0, 92, 75
1, 143352, Note_off_c, 0, 92, 60
1, 143366, Note_on_c, 0, 80, 66
1, 143469, Note_off_c, 0, 80, 58
1, 143471, Note_on_c, 0, 92, 69
1, 143480, Note_on_c, 0, 61, 71
1, 143489, Note_on_c, 0, 58, 54
1, 143515, Control_c, 0, 64, 95
1, 143529, Control_c, 0, 64, 75
1, 143544, Control_c, 0, 64, 64
1, 143557, Note_off_c, 0, 92, 62
1, 143559, Control_c, 0, 64, 55
1, 143568, Note_on_c, 0, 80, 66
1, 143574, Control_c, 0, 64, 46
1, 143589, Control_c, 0, 64, 40
1, 143599, Note_off_c, 0, 65, 37
1, 143603, Control_c, 0, 64, 38
1, 143618, Control_c, 0, 64, 37
1, 143633, Control_c, 0, 64, 37
1, 143646, Note_off_c, 0, 80, 57
1, 143656, Note_on_c, 0, 92, 75
1, 143662, Control_c, 0, 64, 40
1, 143677, Control_c, 0, 64, 45
1, 143692, Control_c, 0, 64, 55
1, 143707, Control_c, 0, 64, 62
1, 143720, Note_off_c, 0, 92, 62
1, 143721, Control_c, 0, 64, 68
1, 143731, Note_on_c, 0, 80, 68
1, 143736, Control_c, 0, 64, 73
1, 143751, Control_c, 0, 64, 76
1, 143766, Control_c, 0, 64, 80
1, 143781, Control_c, 0, 64, 86
1, 143796, Control_c, 0, 64, 92
1, 143799, Note_off_c, 0, 80, 59
1, 143810, Note_on_c, 0, 92, 78
1, 143811, Control_c, 0, 64, 96
1, 143826, Control_c, 0, 64, 103
1, 143841, Control_c, 0, 64, 117
1, 143856, Control_c, 0, 64, 127
1, 143876, Note_off_c, 0, 92, 63
1, 143885, Note_on_c, 0, 80, 69
1, 143950, Note_off_c, 0, 80, 60
1, 143967, Note_on_c, 0, 92, 81
1, 144039, Note_off_c, 0, 92, 62
1, 144049, Note_on_c, 0, 80, 71
1, 144118, Note_off_c, 0, 80, 61
1, 144135, Note_on_c, 0, 92, 85
1, 144208, Note_off_c, 0, 92, 64
1, 144214, Note_on_c, 0, 80, 75
1, 144289, Note_off_c, 0, 80, 60
1, 144293, Note_off_c, 0, 61, 36
1, 144299, Note_on_c, 0, 92, 87
1, 144373, Note_on_c, 0, 80, 75
1, 144373, Note_off_c, 0, 92, 64
1, 144390, Note_off_c, 0, 58, 25
1, 144452, Note_off_c, 0, 80, 60
1, 144457, Note_on_c, 0, 92, 87
1, 144535, Note_off_c, 0, 92, 65
1, 144538, Note_on_c, 0, 80, 77
1, 144627, Note_on_c, 0, 92, 93
1, 144642, Note_off_c, 0, 80, 63
1, 144715, Note_on_c, 0, 80, 76
1, 144764, Note_off_c, 0, 92, 64
1, 144953, Control_c, 0, 64, 114
1, 144965, Note_on_c, 0, 92, 87
1, 144968, Control_c, 0, 64, 98
1, 144978, Note_on_c, 0, 66, 65
1, 144982, Control_c, 0, 64, 87
1, 144997, Note_on_c, 0, 63, 53
1, 144997, Control_c, 0, 64, 77
1, 145012, Control_c, 0, 64, 68
1, 145027, Control_c, 0, 64, 61
1, 145042, Control_c, 0, 64, 49
1, 145057, Control_c, 0, 64, 33
1, 145071, Control_c, 0, 64, 14
1, 145086, Control_c, 0, 64, 0
1, 145116, Note_off_c, 0, 80, 34
1, 145205, Control_c, 0, 64, 17
1, 145220, Control_c, 0, 64, 26
1, 145234, Control_c, 0, 64, 33
1, 145249, Control_c, 0, 64, 41
1, 145264, Control_c, 0, 64, 49
1, 145279, Control_c, 0, 64, 56
1, 145294, Control_c, 0, 64, 63
1, 145308, Control_c, 0, 64, 67
1, 145310, Note_off_c, 0, 63, 36
1, 145323, Control_c, 0, 64, 70
1, 145338, Control_c, 0, 64, 72
1, 145353, Control_c, 0, 64, 75
1, 145368, Control_c, 0, 64, 80
1, 145376, Note_on_c, 0, 90, 78
1, 145382, Control_c, 0, 64, 84
1, 145397, Control_c, 0, 64, 88
1, 145412, Control_c, 0, 64, 92
1, 145426, Note_off_c, 0, 92, 64
1, 145428, Control_c, 0, 64, 95
1, 145439, Poly_aftertouch_c, 0, 81, 127
1, 145443, Control_c, 0, 64, 99
1, 145458, Control_c, 0, 64, 103
1, 145472, Control_c, 0, 64, 108
1, 145487, Control_c, 0, 64, 111
1, 145510, Control_c, 0, 64, 114
1, 145524, Control_c, 0, 64, 115
1, 145539, Control_c, 0, 64, 119
1, 145554, Control_c, 0, 64, 122
1, 145569, Control_c, 0, 64, 127
1, 145589, Note_on_c, 0, 89, 78
1, 145676, Note_off_c, 0, 90, 61
1, 145702, Control_c, 0, 64, 122
1, 145717, Control_c, 0, 64, 113
1, 145731, Control_c, 0, 64, 107
1, 145746, Control_c, 0, 64, 101
1, 145761, Control_c, 0, 64, 95
1, 145776, Control_c, 0, 64, 89
1, 145791, Control_c, 0, 64, 82
1, 145805, Control_c, 0, 64, 70
1, 145809, Note_on_c, 0, 63, 49
1, 145814, Note_on_c, 0, 60, 43
1, 145820, Control_c, 0, 64, 62
1, 145835, Control_c, 0, 64, 51
1, 145836, Note_off_c, 0, 66, 38
1, 145849, Control_c, 0, 64, 36
1, 145864, Control_c, 0, 64, 20
1, 145879, Control_c, 0, 64, 8
1, 145894, Control_c, 0, 64, 0
1, 145984, Control_c, 0, 64, 20
1, 145987, Poly_aftertouch_c, 0, 81, 0
1, 145998, Control_c, 0, 64, 31
1, 145999, Note_on_c, 0, 87, 66
1, 146013, Control_c, 0, 64, 41
1, 146028, Control_c, 0, 64, 52
1, 146043, Control_c, 0, 64, 61
1, 146057, Control_c, 0, 64, 67
1, 146072, Control_c, 0, 64, 69
1, 146084, Note_off_c, 0, 89, 35
1, 146087, Control_c, 0, 64, 70
1, 146094, Note_off_c, 0, 87, 65
1, 146097, Note_on_c, 0, 86, 66
1, 146102, Control_c, 0, 64, 72
1, 146117, Control_c, 0, 64, 77
1, 146131, Control_c, 0, 64, 81
1, 146143, Note_off_c, 0, 63, 53
1, 146146, Control_c, 0, 64, 84
1, 146161, Control_c, 0, 64, 86
1, 146176, Control_c, 0, 64, 89
1, 146183, Note_on_c, 0, 87, 66
1, 146191, Control_c, 0, 64, 92
1, 146205, Control_c, 0, 64, 97
1, 146221, Control_c, 0, 64, 103
1, 146236, Control_c, 0, 64, 108
1, 146258, Control_c, 0, 64, 113
1, 146266, Note_off_c, 0, 86, 49
1, 146273, Control_c, 0, 64, 119
1, 146285, Note_on_c, 0, 89, 68
1, 146288, Control_c, 0, 64, 127
1, 146356, Note_off_c, 0, 87, 63
1, 146374, Note_off_c, 0, 89, 65
1, 146381, Note_on_c, 0, 90, 71
1, 146470, Note_on_c, 0, 89, 58
1, 146495, Control_c, 0, 64, 115
1, 146510, Control_c, 0, 64, 103
1, 146525, Control_c, 0, 64, 95
1, 146540, Control_c, 0, 64, 85
1, 146554, Control_c, 0, 64, 72
1, 146564, Note_off_c, 0, 90, 38
1, 146569, Control_c, 0, 64, 61
1, 146571, Note_off_c, 0, 89, 59
1, 146574, Note_on_c, 0, 87, 63
1, 146584, Control_c, 0, 64, 47
1, 146595, Note_on_c, 0, 68, 43
1, 146599, Control_c, 0, 64, 28
1, 146614, Control_c, 0, 64, 16
1, 146616, Note_on_c, 0, 63, 34
1, 146628, Control_c, 0, 64, 12
1, 146643, Control_c, 0, 64, 0
1, 146674, Note_off_c, 0, 87, 62
1, 146679, Note_on_c, 0, 89, 61
1, 146717, Control_c, 0, 64, 18
1, 146732, Control_c, 0, 64, 27
1, 146747, Control_c, 0, 64, 34
1, 146762, Control_c, 0, 64, 43
1, 146769, Note_on_c, 0, 87, 61
1, 146777, Control_c, 0, 64, 52
1, 146791, Control_c, 0, 64, 60
1, 146806, Note_off_c, 0, 89, 40
1, 146806, Control_c, 0, 64, 64
1, 146821, Control_c, 0, 64, 65
1, 146836, Control_c, 0, 64, 66
1, 146838, Note_off_c, 0, 60, 39
1, 146851, Control_c, 0, 64, 68
1, 146860, Note_on_c, 0, 85, 53
1, 146866, Control_c, 0, 64, 70
1, 146880, Control_c, 0, 64, 71
1, 146895, Control_c, 0, 64, 73
1, 146898, Note_off_c, 0, 87, 63
1, 146910, Control_c, 0, 64, 74
1, 146925, Control_c, 0, 64, 75
1, 146940, Note_off_c, 0, 85, 63
1, 146940, Control_c, 0, 64, 75
1, 146954, Control_c, 0, 64, 76
1, 146964, Note_off_c, 0, 63, 41
1, 146967, Note_on_c, 0, 84, 60
1, 146969, Control_c, 0, 64, 77
1, 146984, Control_c, 0, 64, 79
1, 147006, Control_c, 0, 64, 80
1, 147021, Control_c, 0, 64, 80
1, 147051, Control_c, 0, 64, 81
1, 147063, Note_on_c, 0, 82, 60
1, 147066, Control_c, 0, 64, 81
1, 147069, Note_off_c, 0, 84, 57
1, 147081, Control_c, 0, 64, 82
1, 147140, Control_c, 0, 64, 82
1, 147180, Note_on_c, 0, 80, 53
1, 147220, Note_off_c, 0, 68, 38
1, 147274, Control_c, 0, 64, 82
1, 147284, Note_off_c, 0, 82, 24
1, 147289, Control_c, 0, 64, 81
1, 147292, Note_on_c, 0, 78, 55
1, 147318, Control_c, 0, 64, 81
1, 147333, Control_c, 0, 64, 80
1, 147348, Control_c, 0, 64, 80
1, 147363, Control_c, 0, 64, 79
1, 147370, Note_off_c, 0, 80, 36
1, 147377, Control_c, 0, 64, 79
1, 147392, Control_c, 0, 64, 78
1, 147407, Control_c, 0, 64, 76
1, 147421, Control_c, 0, 64, 75
1, 147436, Control_c, 0, 64, 73
1, 147451, Control_c, 0, 64, 72
1, 147466, Control_c, 0, 64, 70
1, 147481, Control_c, 0, 64, 67
1, 147495, Control_c, 0, 64, 64
1, 147510, Note_on_c, 0, 77, 54
1, 147510, Control_c, 0, 64, 59
1, 147513, Note_on_c, 0, 61, 36
1, 147525, Control_c, 0, 64, 49
1, 147531, Note_off_c, 0, 78, 34
1, 147540, Control_c, 0, 64, 38
1, 147555, Control_c, 0, 64, 25
1, 147569, Control_c, 0, 64, 0
1, 147576, Note_off_c, 0, 77, 0
1, 147576, Note_on_c, 0, 77, 18
1, 147688, Control_c, 0, 64, 22
1, 147703, Control_c, 0, 64, 36
1, 147718, Control_c, 0, 64, 45
1, 147723, Note_off_c, 0, 61, 41
1, 147733, Control_c, 0, 64, 55
1, 147755, Control_c, 0, 64, 63
1, 147769, Note_on_c, 0, 65, 34
1, 147769, Note_on_c, 0, 68, 36
1, 147770, Control_c, 0, 64, 66
1, 147784, Control_c, 0, 64, 66
1, 147799, Control_c, 0, 64, 67
1, 147814, Control_c, 0, 64, 69
1, 147818, Note_off_c, 0, 68, 45
1, 147821, Note_off_c, 0, 65, 46
1, 147830, Control_c, 0, 64, 72
1, 147845, Control_c, 0, 64, 75
1, 147860, Control_c, 0, 64, 78
1, 147874, Control_c, 0, 64, 80
1, 147889, Control_c, 0, 64, 82
1, 147904, Control_c, 0, 64, 86
1, 147919, Control_c, 0, 64, 89
1, 147933, Control_c, 0, 64, 95
1, 147948, Control_c, 0, 64, 100
1, 147963, Control_c, 0, 64, 107
1, 147964, Note_on_c, 0, 68, 30
1, 147972, Note_on_c, 0, 65, 12
1, 147978, Control_c, 0, 64, 117
1, 147993, Control_c, 0, 64, 127
1, 148006, Note_off_c, 0, 68, 48
1, 148014, Note_off_c, 0, 65, 55
1, 148134, Note_on_c, 0, 68, 29
1, 148144, Note_on_c, 0, 65, 22
1, 148198, Note_off_c, 0, 65, 45
1, 148258, Note_off_c, 0, 68, 26
1, 148303, Note_on_c, 0, 61, 39
1, 148383, Note_off_c, 0, 61, 46
1, 148484, Note_on_c, 0, 68, 36
1, 148501, Note_on_c, 0, 65, 27
1, 148544, Note_off_c, 0, 65, 51
1, 148547, Note_off_c, 0, 68, 43
1, 148658, Note_on_c, 0, 80, 63
1, 148678, Note_on_c, 0, 68, 36
1, 148684, Note_on_c, 0, 65, 22
1, 148715, Note_off_c, 0, 68, 49
1, 148722, Note_off_c, 0, 65, 55
1, 148821, Note_on_c, 0, 68, 41
1, 148834, Note_on_c, 0, 65, 38
1, 148838, Poly_aftertouch_c, 0, 86, 127
1, 148851, Poly_aftertouch_c, 0, 84, 127
1, 148942, Note_off_c, 0, 65, 32
1, 148986, Note_off_c, 0, 68, 36
1, 149001, Note_on_c, 0, 61, 42
1, 149063, Poly_aftertouch_c, 0, 86, 0
1, 149096, Poly_aftertouch_c, 0, 84, 0
1, 149173, Note_on_c, 0, 65, 43
1, 149176, Note_on_c, 0, 68, 42
1, 149185, Note_off_c, 0, 61, 26
1, 149224, Note_off_c, 0, 65, 45
1, 149225, Note_off_c, 0, 68, 45
1, 149337, Note_on_c, 0, 85, 72
1, 149355, Note_on_c, 0, 68, 44
1, 149373, Note_on_c, 0, 65, 28
1, 149406, Note_off_c, 0, 68, 48
1, 149424, Note_off_c, 0, 65, 48
1, 149445, Note_off_c, 0, 77, 41
1, 149522, Note_on_c, 0, 68, 47
1, 149531, Note_on_c, 0, 65, 39
1, 149558, Note_off_c, 0, 65, 60
1, 149611, Note_off_c, 0, 85, 48
1, 149649, Note_off_c, 0, 68, 32
1, 149728, Control_c, 0, 64, 100
1, 149733, Note_on_c, 0, 85, 66
1, 149743, Control_c, 0, 64, 85
1, 149758, Control_c, 0, 64, 73
1, 149772, Control_c, 0, 64, 63
1, 149778, Note_on_c, 0, 63, 33
1, 149787, Control_c, 0, 64, 51
1, 149802, Control_c, 0, 64, 32
1, 149817, Control_c, 0, 64, 0
1, 149841, Note_off_c, 0, 80, 37
1, 149921, Control_c, 0, 64, 26
1, 149936, Control_c, 0, 64, 37
1, 149947, Note_on_c, 0, 66, 43
1, 149951, Control_c, 0, 64, 48
1, 149952, Note_on_c, 0, 68, 41
1, 149965, Control_c, 0, 64, 59
1, 149980, Control_c, 0, 64, 66
1, 149993, Note_off_c, 0, 63, 32
1, 150002, Control_c, 0, 64, 69
1, 150004, Note_off_c, 0, 66, 43
1, 150017, Control_c, 0, 64, 70
1, 150020, Note_off_c, 0, 68, 43
1, 150032, Control_c, 0, 64, 73
1, 150047, Control_c, 0, 64, 77
1, 150062, Control_c, 0, 64, 81
1, 150076, Control_c, 0, 64, 85
1, 150091, Control_c, 0, 64, 90
1, 150106, Control_c, 0, 64, 95
1, 150121, Control_c, 0, 64, 101
1, 150134, Note_on_c, 0, 66, 34
1, 150136, Control_c, 0, 64, 108
1, 150142, Note_on_c, 0, 68, 35
1, 150151, Control_c, 0, 64, 122
1, 150166, Control_c, 0, 64, 127
1, 150171, Note_off_c, 0, 66, 49
1, 150180, Note_off_c, 0, 68, 50
1, 150284, Note_on_c, 0, 68, 47
1, 150290, Note_on_c, 0, 66, 31
1, 150377, Note_off_c, 0, 66, 35
1, 150441, Note_off_c, 0, 68, 25
1, 150459, Note_on_c, 0, 84, 63
1, 150497, Note_on_c, 0, 63, 22
1, 150592, Note_off_c, 0, 63, 34
1, 150608, Note_off_c, 0, 85, 58
1, 150644, Note_on_c, 0, 68, 42
1, 150650, Note_on_c, 0, 66, 39
1, 150696, Note_off_c, 0, 66, 45
1, 150702, Note_off_c, 0, 68, 44
1, 150819, Note_on_c, 0, 68, 52
1, 150831, Note_on_c, 0, 66, 26
1, 150859, Note_off_c, 0, 68, 47
1, 150868, Note_off_c, 0, 66, 50
1, 150977, Note_on_c, 0, 68, 48
1, 150980, Note_on_c, 0, 66, 43
1, 151024, Poly_aftertouch_c, 0, 81, 127
1, 151029, Poly_aftertouch_c, 0, 86, 127
1, 151120, Note_off_c, 0, 66, 29
1, 151159, Note_off_c, 0, 68, 39
1, 151161, Note_on_c, 0, 63, 49
1, 151272, Poly_aftertouch_c, 0, 81, 0
1, 151330, Note_on_c, 0, 66, 47
1, 151331, Note_on_c, 0, 68, 46
1, 151383, Note_off_c, 0, 66, 43
1, 151383, Note_off_c, 0, 68, 48
1, 151500, Note_on_c, 0, 68, 56
1, 151508, Note_on_c, 0, 66, 50
1, 151556, Note_off_c, 0, 66, 56
1, 151558, Note_off_c, 0, 68, 51
1, 151660, Note_on_c, 0, 68, 59
1, 151665, Note_on_c, 0, 66, 51
1, 151698, Note_off_c, 0, 66, 56
1, 151701, Note_off_c, 0, 63, 26
1, 151713, Note_off_c, 0, 68, 53
1, 151880, Note_on_c, 0, 87, 71
1, 151912, Note_on_c, 0, 66, 42
1, 151929, Control_c, 0, 64, 100
1, 151944, Control_c, 0, 64, 74
1, 151959, Control_c, 0, 64, 60
1, 151973, Control_c, 0, 64, 42
1, 151981, Poly_aftertouch_c, 0, 86, 0
1, 151988, Control_c, 0, 64, 15
1, 152003, Control_c, 0, 64, 0
1, 152023, Note_off_c, 0, 84, 32
1, 152047, Control_c, 0, 64, 8
1, 152062, Control_c, 0, 64, 20
1, 152077, Control_c, 0, 64, 31
1, 152091, Control_c, 0, 64, 43
1, 152093, Note_on_c, 0, 68, 43
1, 152097, Note_on_c, 0, 75, 44
1, 152102, Note_on_c, 0, 72, 42
1, 152106, Control_c, 0, 64, 58
1, 152121, Control_c, 0, 64, 67
1, 152136, Control_c, 0, 64, 75
1, 152142, Note_off_c, 0, 75, 44
1, 152147, Note_off_c, 0, 72, 43
1, 152151, Control_c, 0, 64, 76
1, 152158, Note_off_c, 0, 68, 51
1, 152163, Note_off_c, 0, 66, 38
1, 152166, Control_c, 0, 64, 79
1, 152181, Control_c, 0, 64, 83
1, 152196, Control_c, 0, 64, 89
1, 152210, Control_c, 0, 64, 95
1, 152225, Control_c, 0, 64, 103
1, 152247, Control_c, 0, 64, 117
1, 152262, Control_c, 0, 64, 127
1, 152272, Note_on_c, 0, 75, 50
1, 152281, Note_on_c, 0, 72, 35
1, 152282, Note_on_c, 0, 68, 37
1, 152306, Note_off_c, 0, 75, 48
1, 152321, Note_off_c, 0, 72, 46
1, 152336, Note_off_c, 0, 68, 43
1, 152430, Note_on_c, 0, 75, 50
1, 152440, Note_on_c, 0, 72, 38
1, 152440, Note_on_c, 0, 68, 50
1, 152593, Note_off_c, 0, 68, 33
1, 152595, Note_on_c, 0, 66, 58
1, 152604, Note_off_c, 0, 75, 34
1, 152614, Note_off_c, 0, 72, 36
1, 152755, Note_on_c, 0, 68, 48
1, 152758, Note_on_c, 0, 75, 47
1, 152767, Note_on_c, 0, 72, 39
1, 152807, Note_off_c, 0, 75, 45
1, 152815, Note_off_c, 0, 66, 35
1, 152830, Note_off_c, 0, 72, 43
1, 152861, Note_off_c, 0, 68, 36
1, 152920, Note_on_c, 0, 84, 69
1, 152943, Note_on_c, 0, 68, 38
1, 152956, Note_on_c, 0, 75, 32
1, 152971, Note_on_c, 0, 72, 30
1, 153001, Note_off_c, 0, 75, 50
1, 153017, Note_off_c, 0, 72, 50
1, 153063, Poly_aftertouch_c, 0, 77, 127
1, 153064, Note_off_c, 0, 68, 0
1, 153082, Note_on_c, 0, 68, 30
1, 153106, Note_on_c, 0, 75, 48
1, 153125, Note_on_c, 0, 72, 43
1, 153160, Note_off_c, 0, 75, 39
1, 153263, Note_on_c, 0, 66, 58
1, 153279, Note_off_c, 0, 72, 35
1, 153292, Note_off_c, 0, 68, 35
1, 153425, Note_on_c, 0, 68, 48
1, 153439, Note_on_c, 0, 72, 42
1, 153440, Note_on_c, 0, 75, 45
1, 153473, Note_off_c, 0, 66, 36
1, 153482, Note_off_c, 0, 75, 46
1, 153486, Note_off_c, 0, 72, 43
1, 153522, Note_off_c, 0, 68, 36
1, 153538, Note_off_c, 0, 87, 42
1, 153590, Note_on_c, 0, 80, 72
1, 153610, Note_on_c, 0, 68, 41
1, 153612, Note_on_c, 0, 75, 49
1, 153623, Note_on_c, 0, 72, 41
1, 153655, Note_off_c, 0, 75, 48
1, 153663, Note_off_c, 0, 72, 46
1, 153686, Note_off_c, 0, 68, 50
1, 153769, Note_on_c, 0, 68, 39
1, 153775, Note_on_c, 0, 72, 50
1, 153776, Note_on_c, 0, 75, 52
1, 153808, Poly_aftertouch_c, 0, 77, 0
1, 153810, Note_off_c, 0, 75, 50
1, 153842, Note_off_c, 0, 80, 38
1, 153907, Note_off_c, 0, 72, 34
1, 153967, Control_c, 0, 64, 122
1, 153969, Note_on_c, 0, 80, 70
1, 153981, Control_c, 0, 64, 90
1, 153991, Note_off_c, 0, 68, 32
1, 153996, Control_c, 0, 64, 72
1, 154000, Note_on_c, 0, 65, 43
1, 154011, Control_c, 0, 64, 60
1, 154026, Control_c, 0, 64, 38
1, 154041, Control_c, 0, 64, 0
1, 154145, Control_c, 0, 64, 22
1, 154154, Note_on_c, 0, 68, 44
1, 154155, Note_on_c, 0, 73, 51
1, 154160, Control_c, 0, 64, 33
1, 154175, Control_c, 0, 64, 44
1, 154189, Control_c, 0, 64, 54
1, 154205, Control_c, 0, 64, 65
1, 154209, Note_off_c, 0, 73, 57
1, 154220, Control_c, 0, 64, 76
1, 154229, Note_off_c, 0, 68, 52
1, 154235, Control_c, 0, 64, 81
1, 154250, Control_c, 0, 64, 82
1, 154265, Control_c, 0, 64, 87
1, 154279, Control_c, 0, 64, 97
1, 154294, Control_c, 0, 64, 109
1, 154309, Control_c, 0, 64, 127
1, 154321, Note_on_c, 0, 73, 57
1, 154341, Note_on_c, 0, 68, 44
1, 154372, Note_off_c, 0, 73, 54
1, 154393, Note_off_c, 0, 68, 43
1, 154452, Note_off_c, 0, 65, 19
1, 154494, Note_on_c, 0, 73, 52
1, 154505, Note_on_c, 0, 68, 49
1, 154636, Note_off_c, 0, 73, 24
1, 154693, Note_on_c, 0, 85, 72
1, 154718, Note_off_c, 0, 68, 41
1, 154733, Note_on_c, 0, 65, 39
1, 154864, Note_on_c, 0, 68, 43
1, 154866, Note_on_c, 0, 73, 50
1, 154911, Note_off_c, 0, 73, 50
1, 154920, Note_off_c, 0, 68, 55
1, 154987, Note_off_c, 0, 84, 27
1, 155031, Note_on_c, 0, 73, 52
1, 155034, Note_on_c, 0, 68, 51
1, 155049, Note_off_c, 0, 80, 40
1, 155080, Note_off_c, 0, 68, 54
1, 155087, Note_off_c, 0, 73, 52
1, 155199, Note_on_c, 0, 68, 55
1, 155204, Note_on_c, 0, 73, 51
1, 155211, Note_off_c, 0, 65, 42
1, 155374, Note_on_c, 0, 65, 57
1, 155394, Note_off_c, 0, 73, 40
1, 155420, Note_off_c, 0, 85, 39
1, 155423, Poly_aftertouch_c, 0, 84, 127
1, 155426, Note_off_c, 0, 68, 36
1, 155538, Note_on_c, 0, 68, 54
1, 155549, Note_on_c, 0, 73, 48
1, 155596, Note_off_c, 0, 68, 54
1, 155600, Note_off_c, 0, 73, 49
1, 155700, Note_on_c, 0, 85, 70
1, 155721, Note_on_c, 0, 73, 46
1, 155725, Note_on_c, 0, 68, 44
1, 155764, Note_off_c, 0, 73, 46
1, 155770, Poly_aftertouch_c, 0, 84, 0
1, 155776, Note_off_c, 0, 68, 43
1, 155876, Note_off_c, 0, 65, 41
1, 155879, Note_on_c, 0, 73, 41
1, 155888, Note_on_c, 0, 68, 48
1, 155916, Note_off_c, 0, 85, 52
1, 155945, Note_off_c, 0, 73, 38
1, 156065, Control_c, 0, 64, 115
1, 156080, Control_c, 0, 64, 102
1, 156095, Control_c, 0, 64, 93
1, 156110, Control_c, 0, 64, 86
1, 156125, Control_c, 0, 64, 77
1, 156140, Control_c, 0, 64, 69
1, 156146, Note_on_c, 0, 85, 62
1, 156154, Note_off_c, 0, 68, 39
1, 156154, Control_c, 0, 64, 62
1, 156169, Control_c, 0, 64, 52
1, 156173, Note_on_c, 0, 64, 35
1, 156184, Control_c, 0, 64, 37
1, 156199, Control_c, 0, 64, 21
1, 156214, Control_c, 0, 64, 9
1, 156229, Control_c, 0, 64, 0
1, 156244, Control_c, 0, 67, 9
1, 156258, Control_c, 0, 67, 11
1, 156273, Control_c, 0, 67, 13
1, 156288, Control_c, 0, 67, 16
1, 156303, Control_c, 0, 64, 19
1, 156303, Control_c, 0, 67, 19
1, 156318, Control_c, 0, 64, 31
1, 156318, Control_c, 0, 67, 21
1, 156332, Control_c, 0, 64, 40
1, 156332, Control_c, 0, 67, 24
1, 156347, Control_c, 0, 64, 50
1, 156347, Control_c, 0, 67, 29
1, 156362, Note_on_c, 0, 73, 41
1, 156362, Control_c, 0, 64, 59
1, 156362, Control_c, 0, 67, 34
1, 156370, Note_on_c, 0, 68, 39
1, 156377, Control_c, 0, 64, 65
1, 156377, Control_c, 0, 67, 40
1, 156391, Control_c, 0, 64, 71
1, 156391, Control_c, 0, 67, 46
1, 156406, Control_c, 0, 64, 74
1, 156406, Control_c, 0, 67, 52
1, 156421, Note_off_c, 0, 68, 43
1, 156421, Control_c, 0, 64, 77
1, 156421, Control_c, 0, 67, 59
1, 156423, Note_off_c, 0, 73, 44
1, 156436, Control_c, 0, 64, 81
1, 156436, Control_c, 0, 67, 66
1, 156451, Control_c, 0, 64, 87
1, 156451, Control_c, 0, 67, 70
1, 156465, Control_c, 0, 64, 93
1, 156465, Control_c, 0, 67, 74
1, 156480, Control_c, 0, 64, 101
1, 156480, Control_c, 0, 67, 78
1, 156495, Control_c, 0, 64, 108
1, 156495, Control_c, 0, 67, 82
1, 156510, Control_c, 0, 64, 122
1, 156510, Control_c, 0, 67, 86
1, 156525, Control_c, 0, 64, 127
1, 156525, Control_c, 0, 67, 91
1, 156539, Control_c, 0, 67, 96
1, 156541, Note_on_c, 0, 73, 43
1, 156542, Note_on_c, 0, 68, 42
1, 156554, Control_c, 0, 67, 99
1, 156569, Control_c, 0, 67, 103
1, 156584, Control_c, 0, 67, 107
1, 156588, Note_off_c, 0, 73, 45
1, 156591, Note_off_c, 0, 68, 43
1, 156599, Control_c, 0, 67, 110
1, 156614, Control_c, 0, 67, 113
1, 156629, Control_c, 0, 67, 114
1, 156631, Note_off_c, 0, 85, 31
1, 156643, Note_off_c, 0, 64, 37
1, 156644, Control_c, 0, 67, 116
1, 156659, Control_c, 0, 67, 118
1, 156673, Control_c, 0, 67, 119
1, 156688, Control_c, 0, 67, 120
1, 156703, Control_c, 0, 67, 121
1, 156707, Note_on_c, 0, 73, 36
1, 156718, Control_c, 0, 67, 122
1, 156735, Note_on_c, 0, 68, 29
1, 156755, Control_c, 0, 67, 123
1, 156761, Note_off_c, 0, 73, 45
1, 156770, Control_c, 0, 67, 123
1, 156893, Note_off_c, 0, 68, 30
1, 156903, Control_c, 0, 67, 124
1, 156904, Note_on_c, 0, 85, 57
1, 156932, Note_on_c, 0, 64, 32
1, 157076, Note_on_c, 0, 73, 38
1, 157079, Note_on_c, 0, 68, 35
1, 157120, Note_off_c, 0, 73, 48
1, 157126, Note_off_c, 0, 68, 45
1, 157214, Control_c, 0, 67, 123
1, 157229, Control_c, 0, 67, 123
1, 157244, Control_c, 0, 67, 122
1, 157247, Note_on_c, 0, 68, 39
1, 157248, Note_on_c, 0, 73, 37
1, 157259, Control_c, 0, 67, 121
1, 157274, Control_c, 0, 67, 121
1, 157288, Control_c, 0, 67, 120
1, 157290, Note_off_c, 0, 68, 45
1, 157292, Note_off_c, 0, 73, 47
1, 157303, Control_c, 0, 67, 119
1, 157318, Control_c, 0, 67, 118
1, 157347, Control_c, 0, 67, 117
1, 157362, Control_c, 0, 67, 117
1, 157377, Control_c, 0, 67, 116
1, 157387, Note_off_c, 0, 64, 41
1, 157392, Control_c, 0, 67, 114
1, 157398, Note_on_c, 0, 68, 48
1, 157403, Note_on_c, 0, 73, 45
1, 157408, Control_c, 0, 67, 113
1, 157423, Control_c, 0, 67, 111
1, 157437, Control_c, 0, 67, 109
1, 157452, Control_c, 0, 67, 106
1, 157467, Control_c, 0, 67, 103
1, 157490, Control_c, 0, 67, 99
1, 157505, Control_c, 0, 67, 94
1, 157519, Control_c, 0, 67, 90
1, 157534, Control_c, 0, 67, 86
1, 157549, Control_c, 0, 67, 84
1, 157550, Note_off_c, 0, 73, 23
1, 157564, Control_c, 0, 67, 82
1, 157579, Control_c, 0, 67, 79
1, 157589, Note_on_c, 0, 64, 47
1, 157593, Control_c, 0, 67, 75
1, 157595, Note_off_c, 0, 68, 42
1, 157608, Control_c, 0, 67, 70
1, 157623, Control_c, 0, 67, 65
1, 157637, Control_c, 0, 67, 60
1, 157652, Control_c, 0, 67, 56
1, 157660, Note_off_c, 0, 85, 48
1, 157667, Control_c, 0, 67, 51
1, 157682, Control_c, 0, 67, 45
1, 157697, Control_c, 0, 67, 38
1, 157711, Control_c, 0, 67, 30
1, 157726, Control_c, 0, 67, 23
1, 157739, Note_on_c, 0, 68, 45
1, 157741, Control_c, 0, 67, 14
1, 157755, Note_on_c, 0, 73, 38
1, 157755, Control_c, 0, 67, 0
1, 157798, Note_off_c, 0, 68, 51
1, 157802, Note_off_c, 0, 73, 47
1, 157913, Note_on_c, 0, 85, 66
1, 157943, Note_on_c, 0, 68, 41
1, 157946, Note_on_c, 0, 73, 29
1, 157982, Note_off_c, 0, 68, 46
1, 157986, Note_off_c, 0, 73, 52
1, 158078, Note_off_c, 0, 64, 40
1, 158088, Note_on_c, 0, 73, 43
1, 158089, Note_on_c, 0, 68, 44
1, 158100, Note_off_c, 0, 85, 56
1, 158126, Control_c, 0, 67, 9
1, 158141, Control_c, 0, 67, 11
1, 158143, Note_off_c, 0, 73, 42
1, 158155, Control_c, 0, 67, 12
1, 158170, Control_c, 0, 67, 14
1, 158185, Control_c, 0, 67, 16
1, 158201, Control_c, 0, 67, 18
1, 158216, Control_c, 0, 67, 20
1, 158238, Control_c, 0, 67, 24
1, 158253, Control_c, 0, 67, 27
1, 158268, Note_off_c, 0, 68, 29
1, 158268, Control_c, 0, 67, 30
1, 158283, Control_c, 0, 64, 108
1, 158283, Control_c, 0, 67, 33
1, 158298, Control_c, 0, 64, 89
1, 158298, Control_c, 0, 67, 36
1, 158306, Note_on_c, 0, 85, 56
1, 158313, Control_c, 0, 64, 75
1, 158313, Control_c, 0, 67, 39
1, 158328, Note_on_c, 0, 63, 38
1, 158328, Control_c, 0, 64, 63
1, 158328, Control_c, 0, 67, 42
1, 158342, Control_c, 0, 64, 52
1, 158342, Control_c, 0, 67, 44
1, 158357, Control_c, 0, 64, 36
1, 158357, Control_c, 0, 67, 47
1, 158372, Control_c, 0, 64, 25
1, 158372, Control_c, 0, 67, 49
1, 158386, Control_c, 0, 64, 24
1, 158386, Control_c, 0, 67, 51
1, 158401, Control_c, 0, 64, 23
1, 158401, Control_c, 0, 67, 52
1, 158416, Control_c, 0, 64, 23
1, 158416, Control_c, 0, 67, 54
1, 158431, Control_c, 0, 67, 55
1, 158446, Control_c, 0, 64, 24
1, 158446, Control_c, 0, 67, 56
1, 158460, Control_c, 0, 64, 29
1, 158460, Control_c, 0, 67, 58
1, 158475, Control_c, 0, 64, 36
1, 158475, Control_c, 0, 67, 59
1, 158489, Note_on_c, 0, 66, 40
1, 158490, Control_c, 0, 64, 45
1, 158496, Note_on_c, 0, 71, 46
1, 158505, Control_c, 0, 64, 54
1, 158520, Control_c, 0, 64, 63
1, 158534, Control_c, 0, 64, 68
1, 158538, Note_off_c, 0, 71, 51
1, 158549, Control_c, 0, 64, 72
1, 158562, Note_off_c, 0, 66, 40
1, 158564, Control_c, 0, 64, 73
1, 158578, Control_c, 0, 64, 76
1, 158593, Control_c, 0, 64, 80
1, 158608, Control_c, 0, 64, 84
1, 158623, Control_c, 0, 64, 86
1, 158623, Control_c, 0, 67, 58
1, 158638, Control_c, 0, 64, 87
1, 158652, Control_c, 0, 64, 89
1, 158662, Note_on_c, 0, 71, 43
1, 158667, Control_c, 0, 64, 92
1, 158682, Control_c, 0, 64, 95
1, 158682, Control_c, 0, 67, 57
1, 158684, Note_on_c, 0, 66, 39
1, 158697, Control_c, 0, 64, 97
1, 158697, Control_c, 0, 67, 57
1, 158703, Note_off_c, 0, 71, 47
1, 158712, Note_off_c, 0, 66, 55
1, 158712, Control_c, 0, 64, 98
1, 158727, Control_c, 0, 64, 98
1, 158727, Control_c, 0, 67, 56
1, 158742, Control_c, 0, 64, 99
1, 158742, Control_c, 0, 67, 56
1, 158757, Control_c, 0, 64, 99
1, 158757, Control_c, 0, 67, 55
1, 158771, Control_c, 0, 64, 100
1, 158771, Control_c, 0, 67, 54
1, 158810, Note_on_c, 0, 66, 48
1, 158816, Control_c, 0, 67, 54
1, 158824, Note_on_c, 0, 71, 43
1, 158871, Note_off_c, 0, 63, 44
1, 158905, Control_c, 0, 64, 99
1, 158912, Note_off_c, 0, 71, 37
1, 158920, Control_c, 0, 64, 97
1, 158934, Control_c, 0, 64, 95
1, 158949, Control_c, 0, 64, 92
1, 158951, Note_off_c, 0, 66, 34
1, 158964, Control_c, 0, 64, 89
1, 158986, Control_c, 0, 64, 85
1, 159001, Control_c, 0, 64, 77
1, 159001, Control_c, 0, 67, 54
1, 159012, Note_on_c, 0, 83, 61
1, 159016, Control_c, 0, 64, 67
1, 159025, Note_on_c, 0, 63, 41
1, 159031, Control_c, 0, 64, 58
1, 159046, Control_c, 0, 64, 45
1, 159046, Control_c, 0, 67, 55
1, 159061, Control_c, 0, 64, 29
1, 159061, Control_c, 0, 67, 55
1, 159076, Control_c, 0, 64, 10
1, 159091, Control_c, 0, 64, 0
1, 159193, Note_on_c, 0, 66, 44
1, 159195, Control_c, 0, 64, 22
1, 159200, Note_on_c, 0, 71, 38
1, 159210, Control_c, 0, 64, 34
1, 159225, Control_c, 0, 64, 43
1, 159240, Control_c, 0, 64, 53
1, 159251, Note_off_c, 0, 71, 46
1, 159255, Control_c, 0, 64, 60
1, 159270, Note_off_c, 0, 66, 39
1, 159270, Control_c, 0, 64, 66
1, 159284, Control_c, 0, 64, 70
1, 159299, Control_c, 0, 64, 73
1, 159314, Control_c, 0, 64, 75
1, 159314, Control_c, 0, 67, 56
1, 159329, Control_c, 0, 64, 78
1, 159344, Control_c, 0, 64, 81
1, 159358, Control_c, 0, 64, 84
1, 159367, Note_off_c, 0, 85, 25
1, 159372, Note_on_c, 0, 71, 36
1, 159373, Control_c, 0, 64, 88
1, 159386, Note_on_c, 0, 66, 38
1, 159388, Control_c, 0, 64, 91
1, 159402, Control_c, 0, 64, 93
1, 159413, Note_off_c, 0, 71, 49
1, 159417, Control_c, 0, 64, 95
1, 159432, Note_off_c, 0, 66, 43
1, 159432, Control_c, 0, 64, 96
1, 159447, Control_c, 0, 64, 97
1, 159462, Control_c, 0, 64, 98
1, 159462, Control_c, 0, 67, 56
1, 159476, Control_c, 0, 64, 99
1, 159491, Control_c, 0, 64, 100
1, 159491, Control_c, 0, 67, 57
1, 159500, Note_off_c, 0, 63, 41
1, 159506, Control_c, 0, 64, 101
1, 159521, Control_c, 0, 64, 101
1, 159521, Control_c, 0, 67, 57
1, 159532, Note_on_c, 0, 66, 40
1, 159535, Note_on_c, 0, 71, 37
1, 159536, Control_c, 0, 64, 102
1, 159565, Control_c, 0, 67, 58
1, 159609, Control_c, 0, 67, 58
1, 159639, Note_off_c, 0, 71, 30
1, 159639, Control_c, 0, 67, 59
1, 159663, Note_off_c, 0, 66, 40
1, 159705, Note_on_c, 0, 63, 47
1, 159833, Note_off_c, 0, 83, 35
1, 159885, Control_c, 0, 64, 103
1, 159889, Note_on_c, 0, 66, 41
1, 159898, Note_on_c, 0, 71, 35
1, 159914, Control_c, 0, 64, 103
1, 159944, Note_off_c, 0, 66, 42
1, 159944, Control_c, 0, 64, 104
1, 159948, Note_off_c, 0, 71, 46
1, 159988, Control_c, 0, 67, 59
1, 160033, Control_c, 0, 67, 60
1, 160046, Note_on_c, 0, 83, 60
1, 160062, Control_c, 0, 67, 60
1, 160077, Control_c, 0, 67, 61
1, 160078, Note_on_c, 0, 66, 40
1, 160084, Note_on_c, 0, 71, 35
1, 160092, Control_c, 0, 67, 63
1, 160107, Control_c, 0, 67, 64
1, 160122, Control_c, 0, 67, 66
1, 160124, Note_off_c, 0, 66, 43
1, 160127, Note_off_c, 0, 71, 49
1, 160137, Control_c, 0, 67, 67
1, 160151, Control_c, 0, 67, 68
1, 160166, Control_c, 0, 67, 68
1, 160181, Control_c, 0, 67, 69
1, 160196, Control_c, 0, 67, 70
1, 160199, Note_off_c, 0, 63, 40
1, 160206, Note_off_c, 0, 83, 57
1, 160211, Control_c, 0, 67, 71
1, 160225, Control_c, 0, 67, 71
1, 160228, Note_on_c, 0, 66, 36
1, 160237, Note_on_c, 0, 71, 37
1, 160240, Control_c, 0, 67, 72
1, 160299, Control_c, 0, 67, 72
1, 160304, Note_off_c, 0, 71, 40
1, 160358, Note_off_c, 0, 66, 35
1, 160358, Control_c, 0, 64, 101
1, 160373, Control_c, 0, 64, 97
1, 160388, Control_c, 0, 64, 92
1, 160388, Control_c, 0, 67, 73
1, 160403, Control_c, 0, 64, 82
1, 160409, Note_on_c, 0, 83, 63
1, 160418, Control_c, 0, 64, 68
1, 160429, Note_on_c, 0, 63, 38
1, 160432, Control_c, 0, 64, 58
1, 160432, Control_c, 0, 67, 74
1, 160447, Control_c, 0, 64, 43
1, 160447, Control_c, 0, 67, 75
1, 160462, Control_c, 0, 64, 30
1, 160462, Control_c, 0, 67, 77
1, 160485, Control_c, 0, 64, 27
1, 160485, Control_c, 0, 67, 78
1, 160500, Control_c, 0, 64, 27
1, 160500, Control_c, 0, 67, 78
1, 160514, Control_c, 0, 67, 79
1, 160544, Control_c, 0, 64, 28
1, 160544, Control_c, 0, 67, 79
1, 160558, Control_c, 0, 64, 33
1, 160573, Control_c, 0, 64, 40
1, 160573, Control_c, 0, 67, 80
1, 160588, Control_c, 0, 64, 48
1, 160588, Control_c, 0, 67, 81
1, 160597, Note_on_c, 0, 71, 33
1, 160598, Note_on_c, 0, 66, 37
1, 160604, Control_c, 0, 64, 57
1, 160604, Control_c, 0, 67, 82
1, 160619, Control_c, 0, 64, 65
1, 160619, Control_c, 0, 67, 83
1, 160634, Control_c, 0, 64, 70
1, 160634, Control_c, 0, 67, 84
1, 160648, Control_c, 0, 64, 71
1, 160648, Control_c, 0, 67, 85
1, 160649, Note_off_c, 0, 71, 46
1, 160663, Control_c, 0, 64, 72
1, 160663, Control_c, 0, 67, 86
1, 160665, Note_off_c, 0, 66, 41
1, 160678, Control_c, 0, 64, 74
1, 160678, Control_c, 0, 67, 88
1, 160693, Control_c, 0, 64, 77
1, 160693, Control_c, 0, 67, 89
1, 160707, Control_c, 0, 64, 80
1, 160707, Control_c, 0, 67, 90
1, 160722, Control_c, 0, 64, 82
1, 160722, Control_c, 0, 67, 91
1, 160736, Control_c, 0, 64, 84
1, 160751, Control_c, 0, 64, 86
1, 160751, Control_c, 0, 67, 92
1, 160755, Note_on_c, 0, 81, 61
1, 160766, Control_c, 0, 64, 89
1, 160781, Control_c, 0, 64, 92
1, 160781, Control_c, 0, 67, 93
1, 160788, Note_on_c, 0, 71, 29
1, 160792, Note_on_c, 0, 66, 41
1, 160796, Control_c, 0, 64, 95
1, 160799, Note_off_c, 0, 83, 53
1, 160811, Control_c, 0, 64, 99
1, 160811, Control_c, 0, 67, 94
1, 160826, Control_c, 0, 64, 102
1, 160827, Note_off_c, 0, 71, 51
1, 160832, Note_off_c, 0, 66, 45
1, 160840, Control_c, 0, 64, 105
1, 160840, Control_c, 0, 67, 94
1, 160855, Control_c, 0, 64, 108
1, 160870, Control_c, 0, 64, 113
1, 160870, Control_c, 0, 67, 95
1, 160885, Control_c, 0, 64, 119
1, 160885, Control_c, 0, 67, 96
1, 160900, Control_c, 0, 64, 127
1, 160900, Control_c, 0, 67, 97
1, 160915, Control_c, 0, 67, 98
1, 160929, Control_c, 0, 67, 98
1, 160940, Note_off_c, 0, 63, 41
1, 160941, Note_on_c, 0, 71, 38
1, 160944, Control_c, 0, 67, 99
1, 160947, Note_on_c, 0, 66, 41
1, 160959, Control_c, 0, 67, 100
1, 160973, Control_c, 0, 67, 101
1, 160988, Control_c, 0, 67, 102
1, 161003, Control_c, 0, 67, 103
1, 161018, Control_c, 0, 67, 104
1, 161026, Note_off_c, 0, 66, 34
1, 161026, Note_off_c, 0, 71, 35
1, 161033, Control_c, 0, 67, 105
1, 161047, Control_c, 0, 67, 107
1, 161062, Control_c, 0, 67, 108
1, 161077, Control_c, 0, 67, 110
1, 161092, Note_on_c, 0, 63, 43
1, 161092, Control_c, 0, 67, 111
1, 161107, Control_c, 0, 67, 113
1, 161121, Control_c, 0, 67, 113
1, 161136, Control_c, 0, 67, 115
1, 161150, Note_off_c, 0, 81, 47
1, 161151, Control_c, 0, 67, 116
1, 161166, Control_c, 0, 67, 117
1, 161180, Control_c, 0, 67, 118
1, 161195, Control_c, 0, 67, 118
1, 161198, Note_on_c, 0, 83, 54
1, 161210, Control_c, 0, 67, 119
1, 161233, Control_c, 0, 67, 119
1, 161248, Control_c, 0, 67, 120
1, 161262, Control_c, 0, 67, 120
1, 161277, Control_c, 0, 67, 121
1, 161282, Note_on_c, 0, 81, 62
1, 161292, Control_c, 0, 67, 122
1, 161296, Note_on_c, 0, 71, 33
1, 161297, Note_on_c, 0, 66, 40
1, 161306, Note_off_c, 0, 83, 54
1, 161321, Control_c, 0, 67, 122
1, 161336, Control_c, 0, 67, 123
1, 161342, Note_off_c, 0, 71, 47
1, 161344, Note_off_c, 0, 66, 43
1, 161347, Note_off_c, 0, 81, 61
1, 161368, Note_on_c, 0, 80, 57
1, 161455, Note_on_c, 0, 81, 64
1, 161475, Note_on_c, 0, 66, 29
1, 161481, Note_on_c, 0, 71, 24
1, 161481, Note_off_c, 0, 80, 38
1, 161518, Note_off_c, 0, 71, 54
1, 161521, Note_off_c, 0, 66, 45
1, 161604, Control_c, 0, 67, 123
1, 161613, Note_on_c, 0, 83, 62
1, 161621, Note_off_c, 0, 63, 43
1, 161626, Note_off_c, 0, 81, 54
1, 161627, Note_on_c, 0, 71, 39
1, 161633, Control_c, 0, 67, 124
1, 161648, Note_on_c, 0, 66, 33
1, 161648, Control_c, 0, 67, 125
1, 161663, Control_c, 0, 67, 126
1, 161678, Control_c, 0, 64, 115
1, 161678, Control_c, 0, 67, 127
1, 161693, Control_c, 0, 64, 109
1, 161701, Note_off_c, 0, 66, 40
1, 161708, Control_c, 0, 64, 104
1, 161716, Note_off_c, 0, 71, 34
1, 161723, Control_c, 0, 64, 98
1, 161738, Control_c, 0, 64, 93
1, 161752, Control_c, 0, 64, 88
1, 161762, Note_off_c, 0, 83, 52
1, 161767, Control_c, 0, 64, 83
1, 161782, Control_c, 0, 64, 77
1, 161796, Control_c, 0, 64, 68
1, 161811, Control_c, 0, 64, 61
1, 161817, Note_on_c, 0, 81, 50
1, 161826, Control_c, 0, 64, 49
1, 161831, Note_on_c, 0, 63, 38
1, 161841, Control_c, 0, 64, 34
1, 161856, Control_c, 0, 64, 23
1, 161870, Control_c, 0, 64, 22
1, 161885, Control_c, 0, 64, 21
1, 161896, Note_on_c, 0, 83, 48
1, 161900, Control_c, 0, 64, 20
1, 161915, Control_c, 0, 64, 21
1, 161929, Control_c, 0, 64, 24
1, 161944, Control_c, 0, 64, 31
1, 161959, Control_c, 0, 64, 39
1, 161982, Control_c, 0, 64, 47
1, 161991, Note_off_c, 0, 81, 48
1, 161997, Control_c, 0, 64, 55
1, 162011, Control_c, 0, 64, 61
1, 162012, Note_on_c, 0, 85, 58
1, 162022, Note_on_c, 0, 71, 39
1, 162026, Control_c, 0, 64, 65
1, 162033, Note_on_c, 0, 66, 37
1, 162041, Control_c, 0, 64, 66
1, 162047, Note_off_c, 0, 83, 49
1, 162056, Control_c, 0, 64, 67
1, 162071, Control_c, 0, 64, 70
1, 162072, Note_off_c, 0, 71, 46
1, 162085, Control_c, 0, 64, 72
1, 162092, Note_off_c, 0, 66, 43
1, 162100, Control_c, 0, 64, 74
1, 162115, Control_c, 0, 64, 76
1, 162129, Control_c, 0, 64, 78
1, 162144, Control_c, 0, 64, 79
1, 162159, Control_c, 0, 64, 80
1, 162174, Control_c, 0, 64, 81
1, 162189, Control_c, 0, 64, 83
1, 162194, Note_on_c, 0, 83, 58
1, 162205, Control_c, 0, 64, 85
1, 162220, Control_c, 0, 64, 86
1, 162225, Note_on_c, 0, 66, 31
1, 162226, Note_on_c, 0, 71, 21
1, 162234, Control_c, 0, 64, 86
1, 162249, Control_c, 0, 64, 87
1, 162264, Control_c, 0, 64, 87
1, 162274, Note_off_c, 0, 71, 47
1, 162275, Note_off_c, 0, 85, 29
1, 162276, Note_off_c, 0, 66, 44
1, 162279, Control_c, 0, 64, 88
1, 162293, Control_c, 0, 64, 89
1, 162308, Control_c, 0, 64, 90
1, 162354, Note_off_c, 0, 63, 44
1, 162402, Note_on_c, 0, 81, 58
1, 162403, Note_off_c, 0, 83, 55
1, 162408, Note_on_c, 0, 66, 40
1, 162411, Note_on_c, 0, 71, 41
1, 162443, Note_off_c, 0, 81, 62
1, 162482, Note_off_c, 0, 71, 40
1, 162531, Note_off_c, 0, 66, 33
1, 162545, Control_c, 0, 64, 88
1, 162560, Control_c, 0, 64, 86
1, 162575, Control_c, 0, 64, 84
1, 162590, Control_c, 0, 64, 81
1, 162605, Control_c, 0, 64, 78
1, 162619, Control_c, 0, 64, 74
1, 162634, Control_c, 0, 64, 70
1, 162649, Control_c, 0, 64, 65
1, 162664, Control_c, 0, 64, 59
1, 162673, Note_on_c, 0, 80, 47
1, 162679, Control_c, 0, 64, 47
1, 162683, Note_on_c, 0, 71, 35
1, 162693, Control_c, 0, 64, 32
1, 162696, Note_on_c, 0, 68, 25
1, 162705, Note_on_c, 0, 64, 32
1, 162708, Control_c, 0, 64, 18
1, 162730, Control_c, 0, 64, 12
1, 162745, Control_c, 0, 64, 0
1, 162771, Note_on_c, 0, 88, 52
1, 162805, Control_c, 0, 64, 12
1, 162820, Control_c, 0, 64, 22
1, 162834, Control_c, 0, 64, 30
1, 162840, Note_off_c, 0, 88, 62
1, 162849, Control_c, 0, 64, 38
1, 162862, Note_on_c, 0, 83, 52
1, 162864, Control_c, 0, 64, 46
1, 162879, Control_c, 0, 64, 56
1, 162894, Control_c, 0, 64, 62
1, 162906, Note_off_c, 0, 80, 37
1, 162908, Control_c, 0, 64, 66
1, 162923, Control_c, 0, 64, 68
1, 162934, Note_off_c, 0, 83, 61
1, 162936, Note_on_c, 0, 88, 54
1, 162938, Control_c, 0, 64, 70
1, 162953, Control_c, 0, 64, 73
1, 162968, Control_c, 0, 64, 77
1, 162983, Control_c, 0, 64, 80
1, 162999, Control_c, 0, 64, 84
1, 163014, Control_c, 0, 64, 89
1, 163025, Note_off_c, 0, 88, 64
1, 163028, Control_c, 0, 64, 94
1, 163043, Control_c, 0, 64, 99
1, 163046, Note_on_c, 0, 92, 58
1, 163058, Control_c, 0, 64, 105
1, 163070, Note_off_c, 0, 68, 34
1, 163073, Control_c, 0, 64, 114
1, 163088, Control_c, 0, 64, 127
1, 163100, Note_off_c, 0, 71, 45
1, 163110, Note_on_c, 0, 88, 58
1, 163139, Note_off_c, 0, 92, 57
1, 163153, Note_off_c, 0, 64, 37
1, 163180, Note_off_c, 0, 88, 63
1, 163197, Note_on_c, 0, 83, 57
1, 163267, Note_off_c, 0, 83, 62
1, 163278, Note_on_c, 0, 88, 54
1, 163325, Note_off_c, 0, 88, 62
1, 163361, Note_on_c, 0, 80, 59
1, 163378, Note_off_c, 0, 80, 65
1, 163482, Note_on_c, 0, 76, 44
1, 163523, Note_off_c, 0, 76, 49
1, 163583, Note_on_c, 0, 71, 21
1, 163619, Note_on_c, 0, 76, 56
1, 163631, Note_off_c, 0, 71, 47
1, 163690, Note_off_c, 0, 76, 64
1, 163712, Note_on_c, 0, 68, 61
1, 163741, Note_off_c, 0, 68, 64
1, 163809, Note_on_c, 0, 64, 60
1, 163872, Note_off_c, 0, 64, 61
1, 163902, Note_on_c, 0, 59, 49
1, 163940, Note_off_c, 0, 59, 60
1, 163957, Note_on_c, 0, 64, 57
1, 164025, Note_off_c, 0, 64, 60
1, 164063, Note_on_c, 0, 56, 52
1, 164089, Note_off_c, 0, 56, 58
1, 164158, Note_on_c, 0, 52, 58
1, 164193, Note_off_c, 0, 52, 64
1, 164244, Note_on_c, 0, 47, 41
1, 164308, Note_on_c, 0, 52, 53
1, 164377, Control_c, 0, 64, 114
1, 164382, Note_off_c, 0, 52, 61
1, 164392, Control_c, 0, 64, 86
1, 164405, Note_off_c, 0, 47, 21
1, 164406, Note_on_c, 0, 44, 60
1, 164406, Control_c, 0, 64, 74
1, 164421, Control_c, 0, 64, 68
1, 164436, Control_c, 0, 64, 68
1, 164465, Control_c, 0, 64, 68
1, 164477, Note_off_c, 0, 44, 50
1, 164479, Control_c, 0, 64, 69
1, 164492, Note_on_c, 0, 52, 60
1, 164494, Control_c, 0, 64, 70
1, 164523, Control_c, 0, 64, 71
1, 164553, Note_off_c, 0, 52, 64
1, 164583, Control_c, 0, 64, 70
1, 164586, Note_on_c, 0, 47, 55
1, 164614, Control_c, 0, 64, 69
1, 164622, Note_off_c, 0, 47, 63
1, 164628, Control_c, 0, 64, 68
1, 164643, Control_c, 0, 64, 66
1, 164655, Note_on_c, 0, 52, 45
1, 164658, Control_c, 0, 64, 63
1, 164673, Control_c, 0, 64, 59
1, 164687, Note_off_c, 0, 52, 54
1, 164688, Control_c, 0, 64, 52
1, 164702, Control_c, 0, 64, 44
1, 164717, Control_c, 0, 64, 32
1, 164732, Control_c, 0, 64, 0
1, 164776, Note_on_c, 0, 30, 48
1, 164778, Note_on_c, 0, 39, 50
1, 164784, Note_on_c, 0, 35, 41
1, 164850, Control_c, 0, 64, 9
1, 164865, Control_c, 0, 64, 24
1, 164868, Note_on_c, 0, 47, 51
1, 164870, Note_off_c, 0, 39, 50
1, 164880, Control_c, 0, 64, 34
1, 164891, Note_off_c, 0, 30, 47
1, 164894, Control_c, 0, 64, 43
1, 164909, Control_c, 0, 64, 53
1, 164921, Note_off_c, 0, 35, 36
1, 164924, Control_c, 0, 64, 59
1, 164930, Note_off_c, 0, 47, 60
1, 164939, Control_c, 0, 64, 62
1, 164954, Control_c, 0, 64, 62
1, 164959, Note_on_c, 0, 45, 48
1, 165006, Control_c, 0, 64, 63
1, 165020, Control_c, 0, 64, 64
1, 165031, Note_off_c, 0, 45, 54
1, 165035, Control_c, 0, 64, 65
1, 165056, Note_on_c, 0, 47, 53
1, 165065, Control_c, 0, 64, 65
1, 165108, Note_off_c, 0, 47, 60
1, 165124, Control_c, 0, 64, 66
1, 165132, Note_on_c, 0, 51, 58
1, 165169, Control_c, 0, 67, 124
1, 165184, Control_c, 0, 67, 121
1, 165199, Control_c, 0, 67, 121
1, 165211, Note_on_c, 0, 47, 57
1, 165213, Control_c, 0, 64, 65
1, 165213, Control_c, 0, 67, 120
1, 165236, Note_off_c, 0, 51, 38
1, 165243, Control_c, 0, 64, 65
1, 165258, Control_c, 0, 64, 64
1, 165265, Note_off_c, 0, 47, 63
1, 165273, Control_c, 0, 64, 64
1, 165285, Note_on_c, 0, 45, 58
1, 165303, Control_c, 0, 64, 63
1, 165318, Control_c, 0, 64, 63
1, 165318, Control_c, 0, 67, 121
1, 165344, Note_off_c, 0, 45, 58
1, 165347, Control_c, 0, 64, 62
1, 165362, Control_c, 0, 64, 62
1, 165362, Control_c, 0, 67, 121
1, 165368, Note_on_c, 0, 47, 52
1, 165377, Control_c, 0, 64, 61
1, 165392, Control_c, 0, 64, 58
1, 165403, Note_off_c, 0, 47, 52
1, 165407, Control_c, 0, 64, 52
1, 165407, Control_c, 0, 67, 122
1, 165422, Control_c, 0, 64, 41
1, 165437, Control_c, 0, 64, 28
1, 165452, Control_c, 0, 64, 12
1, 165452, Control_c, 0, 67, 123
1, 165467, Control_c, 0, 64, 0
1, 165482, Control_c, 0, 67, 123
1, 165495, Note_on_c, 0, 51, 63
1, 165500, Note_on_c, 0, 30, 43
1, 165504, Note_on_c, 0, 42, 43
1, 165507, Note_on_c, 0, 35, 35
1, 165570, Control_c, 0, 64, 19
1, 165585, Control_c, 0, 64, 30
1, 165585, Control_c, 0, 67, 123
1, 165586, Note_off_c, 0, 30, 51
1, 165594, Note_on_c, 0, 59, 50
1, 165600, Control_c, 0, 64, 37
1, 165600, Control_c, 0, 67, 122
1, 165607, Note_off_c, 0, 42, 48
1, 165608, Note_off_c, 0, 51, 44
1, 165615, Control_c, 0, 64, 45
1, 165618, Note_off_c, 0, 35, 47
1, 165630, Control_c, 0, 64, 51
1, 165630, Control_c, 0, 67, 121
1, 165644, Control_c, 0, 64, 56
1, 165644, Control_c, 0, 67, 120
1, 165655, Note_off_c, 0, 59, 56
1, 165659, Control_c, 0, 64, 60
1, 165659, Control_c, 0, 67, 120
1, 165674, Control_c, 0, 64, 62
1, 165674, Control_c, 0, 67, 119
1, 165684, Note_on_c, 0, 57, 49
1, 165689, Control_c, 0, 64, 63
1, 165689, Control_c, 0, 67, 118
1, 165704, Control_c, 0, 64, 64
1, 165704, Control_c, 0, 67, 113
1, 165726, Control_c, 0, 64, 65
1, 165726, Control_c, 0, 67, 108
1, 165741, Control_c, 0, 64, 67
1, 165741, Control_c, 0, 67, 103
1, 165753, Note_off_c, 0, 57, 46
1, 165756, Control_c, 0, 64, 68
1, 165756, Control_c, 0, 67, 97
1, 165761, Note_on_c, 0, 59, 53
1, 165770, Control_c, 0, 64, 69
1, 165770, Control_c, 0, 67, 91
1, 165785, Control_c, 0, 67, 85
1, 165800, Control_c, 0, 67, 78
1, 165815, Control_c, 0, 67, 72
1, 165830, Control_c, 0, 67, 69
1, 165831, Note_off_c, 0, 59, 59
1, 165841, Note_on_c, 0, 63, 63
1, 165844, Control_c, 0, 67, 68
1, 165859, Control_c, 0, 67, 67
1, 165874, Control_c, 0, 67, 67
1, 165889, Control_c, 0, 67, 66
1, 165903, Control_c, 0, 67, 65
1, 165921, Note_on_c, 0, 59, 49
1, 165926, Note_off_c, 0, 63, 54
1, 165933, Control_c, 0, 67, 66
1, 165983, Note_off_c, 0, 59, 60
1, 165998, Note_on_c, 0, 57, 56
1, 166008, Control_c, 0, 67, 66
1, 166069, Note_on_c, 0, 59, 53
1, 166069, Note_off_c, 0, 57, 59
1, 166082, Control_c, 0, 64, 68
1, 166096, Control_c, 0, 64, 67
1, 166099, Note_off_c, 0, 59, 62
1, 166111, Control_c, 0, 64, 64
1, 166111, Control_c, 0, 67, 67
1, 166126, Control_c, 0, 64, 58
1, 166141, Control_c, 0, 64, 46
1, 166141, Control_c, 0, 67, 68
1, 166156, Control_c, 0, 64, 22
1, 166170, Control_c, 0, 64, 0
1, 166195, Note_on_c, 0, 63, 65
1, 166202, Note_on_c, 0, 42, 42
1, 166205, Note_on_c, 0, 30, 39
1, 166205, Note_on_c, 0, 35, 37
1, 166216, Control_c, 0, 67, 68
1, 166246, Control_c, 0, 67, 68
1, 166275, Control_c, 0, 64, 18
1, 166290, Control_c, 0, 64, 27
1, 166303, Note_on_c, 0, 71, 55
1, 166305, Control_c, 0, 64, 35
1, 166305, Control_c, 0, 67, 67
1, 166313, Note_off_c, 0, 63, 50
1, 166319, Control_c, 0, 64, 44
1, 166319, Control_c, 0, 67, 67
1, 166334, Control_c, 0, 64, 53
1, 166334, Control_c, 0, 67, 66
1, 166349, Control_c, 0, 64, 60
1, 166360, Note_off_c, 0, 71, 63
1, 166364, Control_c, 0, 64, 63
1, 166376, Note_on_c, 0, 69, 57
1, 166379, Control_c, 0, 64, 64
1, 166379, Control_c, 0, 67, 66
1, 166384, Note_off_c, 0, 30, 39
1, 166389, Note_off_c, 0, 35, 39
1, 166391, Note_off_c, 0, 42, 33
1, 166394, Control_c, 0, 64, 65
1, 166409, Control_c, 0, 64, 67
1, 166409, Control_c, 0, 67, 65
1, 166424, Control_c, 0, 64, 70
1, 166439, Control_c, 0, 64, 74
1, 166439, Control_c, 0, 67, 65
1, 166446, Note_on_c, 0, 71, 56
1, 166453, Control_c, 0, 64, 77
1, 166453, Control_c, 0, 67, 64
1, 166475, Control_c, 0, 64, 79
1, 166475, Control_c, 0, 67, 64
1, 166490, Control_c, 0, 64, 81
1, 166490, Control_c, 0, 67, 62
1, 166505, Control_c, 0, 64, 85
1, 166505, Control_c, 0, 67, 59
1, 166519, Control_c, 0, 64, 87
1, 166519, Control_c, 0, 67, 56
1, 166527, Note_off_c, 0, 69, 36
1, 166528, Note_off_c, 0, 71, 65
1, 166534, Note_on_c, 0, 75, 66
1, 166534, Control_c, 0, 64, 90
1, 166534, Control_c, 0, 67, 52
1, 166549, Control_c, 0, 64, 92
1, 166549, Control_c, 0, 67, 50
1, 166564, Control_c, 0, 64, 93
1, 166564, Control_c, 0, 67, 49
1, 166579, Control_c, 0, 64, 93
1, 166579, Control_c, 0, 67, 47
1, 166594, Control_c, 0, 67, 46
1, 166608, Control_c, 0, 67, 45
1, 166617, Note_on_c, 0, 71, 59
1, 166622, Note_off_c, 0, 75, 56
1, 166623, Control_c, 0, 64, 94
1, 166623, Control_c, 0, 67, 44
1, 166686, Note_off_c, 0, 71, 64
1, 166701, Note_on_c, 0, 69, 58
1, 166726, Control_c, 0, 64, 93
1, 166741, Control_c, 0, 64, 91
1, 166741, Control_c, 0, 67, 43
1, 166756, Control_c, 0, 64, 89
1, 166767, Note_off_c, 0, 69, 60
1, 166768, Note_on_c, 0, 71, 60
1, 166771, Control_c, 0, 64, 87
1, 166786, Control_c, 0, 64, 84
1, 166800, Control_c, 0, 64, 81
1, 166801, Note_off_c, 0, 71, 66
1, 166815, Control_c, 0, 64, 78
1, 166830, Control_c, 0, 64, 73
1, 166845, Control_c, 0, 64, 66
1, 166860, Control_c, 0, 64, 60
1, 166874, Control_c, 0, 64, 49
1, 166889, Control_c, 0, 64, 35
1, 166889, Control_c, 0, 67, 44
1, 166904, Control_c, 0, 64, 20
1, 166912, Note_on_c, 0, 44, 43
1, 166914, Note_on_c, 0, 35, 38
1, 166919, Control_c, 0, 64, 0
1, 166919, Note_on_c, 0, 76, 61
1, 166923, Note_on_c, 0, 32, 40
1, 167008, Note_on_c, 0, 83, 62
1, 167023, Control_c, 0, 67, 43
1, 167053, Control_c, 0, 67, 43
1, 167064, Note_off_c, 0, 83, 62
1, 167068, Control_c, 0, 64, 16
1, 167068, Control_c, 0, 67, 42
1, 167082, Control_c, 0, 64, 26
1, 167082, Control_c, 0, 67, 40
1, 167091, Note_on_c, 0, 80, 58
1, 167097, Control_c, 0, 64, 34
1, 167097, Control_c, 0, 67, 35
1, 167112, Control_c, 0, 64, 45
1, 167112, Control_c, 0, 67, 31
1, 167127, Control_c, 0, 64, 53
1, 167127, Control_c, 0, 67, 27
1, 167142, Control_c, 0, 64, 60
1, 167142, Control_c, 0, 67, 25
1, 167156, Note_on_c, 0, 83, 67
1, 167157, Control_c, 0, 64, 63
1, 167157, Control_c, 0, 67, 23
1, 167172, Control_c, 0, 64, 64
1, 167172, Control_c, 0, 67, 20
1, 167172, Note_off_c, 0, 76, 18
1, 167187, Control_c, 0, 64, 65
1, 167187, Control_c, 0, 67, 18
1, 167202, Control_c, 0, 64, 67
1, 167202, Control_c, 0, 67, 15
1, 167223, Control_c, 0, 64, 69
1, 167223, Control_c, 0, 67, 11
1, 167238, Control_c, 0, 64, 72
1, 167238, Control_c, 0, 67, 9
1, 167252, Note_off_c, 0, 80, 30
1, 167252, Note_off_c, 0, 83, 63
1, 167253, Control_c, 0, 64, 73
1, 167253, Control_c, 0, 67, 0
1, 167266, Note_on_c, 0, 88, 72
1, 167268, Control_c, 0, 64, 75
1, 167272, Note_off_c, 0, 32, 32
1, 167283, Control_c, 0, 64, 76
1, 167297, Note_off_c, 0, 44, 36
1, 167297, Control_c, 0, 64, 77
1, 167312, Control_c, 0, 64, 79
1, 167327, Control_c, 0, 64, 80
1, 167339, Note_off_c, 0, 35, 36
1, 167342, Control_c, 0, 64, 81
1, 167348, Note_on_c, 0, 83, 57
1, 167357, Control_c, 0, 64, 82
1, 167372, Control_c, 0, 64, 83
1, 167387, Control_c, 0, 64, 83
1, 167389, Note_off_c, 0, 88, 52
1, 167401, Control_c, 0, 64, 84
1, 167407, Note_off_c, 0, 83, 63
1, 167424, Note_on_c, 0, 80, 62
1, 167431, Control_c, 0, 64, 85
1, 167490, Control_c, 0, 64, 85
1, 167504, Note_on_c, 0, 83, 50
1, 167535, Control_c, 0, 64, 86
1, 167536, Note_off_c, 0, 80, 50
1, 167554, Note_off_c, 0, 83, 65
1, 167586, Note_on_c, 0, 76, 59
1, 167622, Note_off_c, 0, 76, 64
1, 167676, Note_on_c, 0, 71, 59
1, 167730, Note_off_c, 0, 71, 55
1, 167813, Note_on_c, 0, 71, 66
1, 167846, Control_c, 0, 64, 85
1, 167868, Note_off_c, 0, 71, 65
1, 167876, Control_c, 0, 64, 85
1, 167891, Control_c, 0, 64, 84
1, 167905, Control_c, 0, 64, 84
1, 167918, Note_on_c, 0, 64, 56
1, 167920, Control_c, 0, 64, 83
1, 167935, Control_c, 0, 64, 83
1, 167946, Note_off_c, 0, 64, 66
1, 167972, Control_c, 0, 64, 82
1, 168002, Control_c, 0, 64, 82
1, 168004, Note_on_c, 0, 59, 53
1, 168046, Control_c, 0, 64, 81
1, 168075, Note_off_c, 0, 59, 59
1, 168076, Control_c, 0, 64, 81
1, 168086, Note_on_c, 0, 56, 61
1, 168091, Control_c, 0, 64, 80
1, 168106, Control_c, 0, 64, 79
1, 168120, Control_c, 0, 64, 78
1, 168135, Control_c, 0, 64, 76
1, 168141, Note_off_c, 0, 56, 52
1, 168150, Control_c, 0, 64, 74
1, 168165, Control_c, 0, 64, 71
1, 168166, Note_on_c, 0, 59, 50
1, 168179, Control_c, 0, 64, 67
1, 168194, Control_c, 0, 64, 63
1, 168209, Control_c, 0, 64, 55
1, 168224, Control_c, 0, 64, 43
1, 168239, Control_c, 0, 64, 26
1, 168242, Note_off_c, 0, 59, 61
1, 168254, Control_c, 0, 64, 0
1, 168257, Note_on_c, 0, 52, 55
1, 168350, Note_on_c, 0, 59, 48
1, 168379, Note_off_c, 0, 52, 35
1, 168398, Note_off_c, 0, 59, 62
1, 168402, Control_c, 0, 64, 12
1, 168417, Control_c, 0, 64, 24
1, 168418, Note_on_c, 0, 56, 55
1, 168432, Control_c, 0, 64, 31
1, 168446, Control_c, 0, 64, 37
1, 168461, Control_c, 0, 64, 44
1, 168468, Note_off_c, 0, 56, 56
1, 168476, Control_c, 0, 64, 49
1, 168490, Control_c, 0, 64, 53
1, 168498, Note_on_c, 0, 59, 57
1, 168505, Control_c, 0, 64, 55
1, 168520, Control_c, 0, 64, 57
1, 168535, Control_c, 0, 64, 59
1, 168550, Control_c, 0, 64, 60
1, 168564, Control_c, 0, 64, 61
1, 168570, Note_off_c, 0, 59, 61
1, 168579, Control_c, 0, 64, 62
1, 168591, Note_on_c, 0, 64, 53
1, 168595, Control_c, 0, 64, 63
1, 168655, Control_c, 0, 64, 63
1, 168665, Note_on_c, 0, 59, 51
1, 168703, Note_off_c, 0, 64, 36
1, 168713, Note_off_c, 0, 59, 61
1, 168760, Note_on_c, 0, 56, 49
1, 168818, Note_off_c, 0, 56, 55
1, 168823, Note_on_c, 0, 59, 57
1, 168825, Control_c, 0, 64, 63
1, 168840, Control_c, 0, 64, 61
1, 168855, Control_c, 0, 64, 57
1, 168869, Control_c, 0, 64, 50
1, 168884, Control_c, 0, 64, 40
1, 168899, Control_c, 0, 64, 27
1, 168912, Note_off_c, 0, 59, 53
1, 168913, Control_c, 0, 64, 11
1, 168928, Control_c, 0, 64, 0
1, 168941, Note_on_c, 0, 54, 53
1, 168951, Note_on_c, 0, 51, 43
1, 168952, Note_on_c, 0, 39, 40
1, 168953, Note_on_c, 0, 47, 41
1, 169032, Control_c, 0, 64, 11
1, 169041, Note_on_c, 0, 59, 52
1, 169047, Control_c, 0, 64, 23
1, 169056, Note_off_c, 0, 54, 35
1, 169062, Control_c, 0, 64, 32
1, 169077, Control_c, 0, 64, 40
1, 169090, Note_off_c, 0, 39, 36
1, 169092, Note_off_c, 0, 51, 35
1, 169092, Control_c, 0, 64, 49
1, 169096, Note_off_c, 0, 59, 56
1, 169106, Control_c, 0, 64, 56
1, 169115, Note_off_c, 0, 47, 48
1, 169118, Note_on_c, 0, 57, 55
1, 169121, Control_c, 0, 64, 62
1, 169136, Control_c, 0, 64, 63
1, 169151, Control_c, 0, 64, 64
1, 169166, Control_c, 0, 64, 65
1, 169181, Control_c, 0, 64, 67
1, 169193, Note_on_c, 0, 59, 49
1, 169195, Control_c, 0, 64, 69
1, 169210, Control_c, 0, 64, 72
1, 169225, Control_c, 0, 64, 73
1, 169240, Control_c, 0, 64, 74
1, 169255, Control_c, 0, 64, 75
1, 169267, Note_off_c, 0, 59, 60
1, 169269, Control_c, 0, 64, 76
1, 169276, Note_off_c, 0, 57, 33
1, 169276, Note_on_c, 0, 66, 61
1, 169284, Control_c, 0, 64, 79
1, 169299, Control_c, 0, 64, 80
1, 169313, Control_c, 0, 64, 81
1, 169328, Control_c, 0, 64, 82
1, 169343, Control_c, 0, 64, 83
1, 169354, Note_on_c, 0, 59, 57
1, 169358, Control_c, 0, 64, 84
1, 169373, Control_c, 0, 64, 85
1, 169375, Note_off_c, 0, 66, 56
1, 169389, Control_c, 0, 64, 85
1, 169404, Control_c, 0, 64, 86
1, 169418, Control_c, 0, 64, 86
1, 169419, Note_off_c, 0, 59, 60
1, 169429, Note_on_c, 0, 57, 55
1, 169502, Note_on_c, 0, 59, 58
1, 169509, Note_off_c, 0, 57, 60
1, 169533, Note_off_c, 0, 59, 63
1, 169544, Control_c, 0, 64, 86
1, 169559, Control_c, 0, 64, 82
1, 169574, Control_c, 0, 64, 75
1, 169589, Control_c, 0, 64, 64
1, 169604, Control_c, 0, 64, 49
1, 169618, Control_c, 0, 64, 26
1, 169633, Control_c, 0, 64, 0
1, 169637, Note_on_c, 0, 66, 64
1, 169650, Note_on_c, 0, 51, 51
1, 169652, Note_on_c, 0, 39, 42
1, 169653, Note_on_c, 0, 47, 46
1, 169723, Control_c, 0, 64, 14
1, 169726, Note_on_c, 0, 71, 58
1, 169737, Control_c, 0, 64, 24
1, 169752, Control_c, 0, 64, 34
1, 169767, Control_c, 0, 64, 43
1, 169769, Note_off_c, 0, 39, 51
1, 169778, Note_off_c, 0, 51, 56
1, 169782, Control_c, 0, 64, 53
1, 169795, Note_off_c, 0, 71, 66
1, 169797, Control_c, 0, 64, 61
1, 169810, Note_on_c, 0, 69, 60
1, 169810, Note_off_c, 0, 47, 35
1, 169811, Control_c, 0, 64, 65
1, 169826, Control_c, 0, 64, 67
1, 169831, Note_off_c, 0, 66, 24
1, 169841, Control_c, 0, 64, 68
1, 169856, Control_c, 0, 64, 70
1, 169871, Control_c, 0, 64, 73
1, 169879, Note_on_c, 0, 71, 60
1, 169885, Control_c, 0, 64, 75
1, 169900, Control_c, 0, 64, 77
1, 169915, Control_c, 0, 64, 79
1, 169929, Control_c, 0, 64, 81
1, 169944, Control_c, 0, 64, 82
1, 169950, Note_off_c, 0, 69, 35
1, 169959, Control_c, 0, 64, 84
1, 169967, Note_off_c, 0, 71, 65
1, 169968, Note_on_c, 0, 78, 75
1, 169974, Control_c, 0, 64, 85
1, 169989, Control_c, 0, 64, 87
1, 170004, Control_c, 0, 64, 88
1, 170019, Control_c, 0, 64, 89
1, 170034, Control_c, 0, 64, 90
1, 170048, Control_c, 0, 64, 90
1, 170053, Note_on_c, 0, 71, 60
1, 170063, Control_c, 0, 64, 91
1, 170093, Note_off_c, 0, 78, 58
1, 170113, Note_off_c, 0, 71, 64
1, 170121, Note_on_c, 0, 69, 66
1, 170188, Note_on_c, 0, 71, 63
1, 170189, Note_off_c, 0, 69, 62
1, 170198, Control_c, 0, 64, 90
1, 170220, Control_c, 0, 64, 89
1, 170225, Note_off_c, 0, 71, 69
1, 170235, Control_c, 0, 64, 87
1, 170249, Control_c, 0, 64, 84
1, 170264, Control_c, 0, 64, 76
1, 170279, Control_c, 0, 64, 65
1, 170294, Control_c, 0, 64, 52
1, 170309, Control_c, 0, 64, 31
1, 170320, Note_on_c, 0, 78, 69
1, 170321, Note_on_c, 0, 47, 52
1, 170322, Note_on_c, 0, 51, 53
1, 170323, Control_c, 0, 64, 9
1, 170329, Note_on_c, 0, 39, 45
1, 170338, Control_c, 0, 64, 0
1, 170382, Control_c, 0, 64, 14
1, 170397, Note_on_c, 0, 83, 63
1, 170397, Control_c, 0, 64, 23
1, 170412, Control_c, 0, 64, 33
1, 170427, Control_c, 0, 64, 42
1, 170442, Control_c, 0, 64, 52
1, 170457, Control_c, 0, 64, 61
1, 170462, Note_off_c, 0, 83, 66
1, 170472, Control_c, 0, 64, 68
1, 170472, Note_on_c, 0, 81, 71
1, 170486, Control_c, 0, 64, 70
1, 170501, Control_c, 0, 64, 71
1, 170516, Control_c, 0, 64, 72
1, 170519, Note_off_c, 0, 78, 25
1, 170531, Control_c, 0, 64, 75
1, 170536, Note_off_c, 0, 51, 36
1, 170542, Note_on_c, 0, 83, 71
1, 170546, Control_c, 0, 64, 79
1, 170558, Note_off_c, 0, 39, 40
1, 170560, Control_c, 0, 64, 83
1, 170563, Note_off_c, 0, 47, 38
1, 170575, Control_c, 0, 64, 85
1, 170590, Control_c, 0, 64, 86
1, 170605, Control_c, 0, 64, 88
1, 170620, Control_c, 0, 64, 91
1, 170621, Note_off_c, 0, 81, 35
1, 170632, Note_off_c, 0, 83, 65
1, 170633, Note_on_c, 0, 90, 80
1, 170634, Control_c, 0, 64, 93
1, 170649, Control_c, 0, 64, 95
1, 170664, Control_c, 0, 64, 96
1, 170679, Control_c, 0, 64, 97
1, 170715, Note_on_c, 0, 83, 62
1, 170761, Note_off_c, 0, 90, 62
1, 170776, Note_off_c, 0, 83, 66
1, 170781, Note_on_c, 0, 81, 72
1, 170797, Control_c, 0, 64, 96
1, 170812, Control_c, 0, 64, 95
1, 170827, Control_c, 0, 64, 92
1, 170841, Control_c, 0, 64, 89
1, 170850, Note_on_c, 0, 83, 63
1, 170856, Control_c, 0, 64, 86
1, 170857, Note_off_c, 0, 81, 59
1, 170871, Control_c, 0, 64, 80
1, 170886, Control_c, 0, 64, 69
1, 170901, Control_c, 0, 64, 57
1, 170916, Control_c, 0, 64, 36
1, 170927, Note_off_c, 0, 83, 63
1, 170931, Control_c, 0, 64, 0
1, 170950, Note_on_c, 0, 80, 69
1, 170967, Note_on_c, 0, 52, 54
1, 170968, Note_on_c, 0, 40, 52
1, 170987, Note_on_c, 0, 47, 33
1, 171013, Control_c, 0, 64, 11
1, 171028, Control_c, 0, 64, 24
1, 171042, Note_on_c, 0, 92, 75
1, 171043, Control_c, 0, 64, 36
1, 171051, Note_off_c, 0, 40, 56
1, 171056, Note_off_c, 0, 80, 59
1, 171058, Control_c, 0, 64, 46
1, 171060, Note_off_c, 0, 47, 40
1, 171072, Control_c, 0, 64, 56
1, 171082, Note_off_c, 0, 52, 57
1, 171087, Control_c, 0, 64, 65
1, 171102, Control_c, 0, 64, 72
1, 171116, Control_c, 0, 64, 75
1, 171119, Note_off_c, 0, 92, 63
1, 171130, Note_on_c, 0, 83, 64
1, 171131, Control_c, 0, 64, 77
1, 171146, Control_c, 0, 64, 80
1, 171161, Control_c, 0, 64, 86
1, 171176, Control_c, 0, 64, 92
1, 171190, Control_c, 0, 64, 99
1, 171205, Control_c, 0, 64, 106
1, 171212, Note_on_c, 0, 92, 65
1, 171220, Control_c, 0, 64, 115
1, 171233, Note_off_c, 0, 83, 60
1, 171235, Control_c, 0, 64, 127
1, 171303, Note_off_c, 0, 92, 63
1, 171333, Note_on_c, 0, 80, 62
1, 171341, Note_on_c, 0, 64, 49
1, 171349, Note_on_c, 0, 52, 47
1, 171415, Note_on_c, 0, 92, 67
1, 171428, Note_off_c, 0, 80, 58
1, 171445, Note_off_c, 0, 52, 58
1, 171467, Note_off_c, 0, 64, 55
1, 171479, Note_off_c, 0, 92, 62
1, 171491, Note_on_c, 0, 83, 63
1, 171570, Note_on_c, 0, 92, 73
1, 171601, Note_off_c, 0, 83, 60
1, 171640, Note_off_c, 0, 92, 65
1, 171662, Note_on_c, 0, 80, 72
1, 171663, Note_on_c, 0, 64, 59
1, 171673, Note_on_c, 0, 52, 60
1, 171743, Note_on_c, 0, 92, 73
1, 171767, Note_off_c, 0, 52, 63
1, 171779, Note_off_c, 0, 64, 59
1, 171780, Note_off_c, 0, 80, 49
1, 171801, Note_off_c, 0, 92, 62
1, 171819, Note_on_c, 0, 83, 69
1, 171888, Note_on_c, 0, 92, 75
1, 171932, Note_off_c, 0, 83, 61
1, 171968, Control_c, 0, 64, 77
1, 171983, Control_c, 0, 64, 58
1, 171989, Note_off_c, 0, 92, 62
1, 171998, Note_on_c, 0, 81, 76
1, 171998, Control_c, 0, 64, 39
1, 172003, Note_on_c, 0, 61, 67
1, 172013, Control_c, 0, 64, 19
1, 172015, Note_on_c, 0, 52, 47
1, 172022, Note_on_c, 0, 49, 53
1, 172028, Control_c, 0, 64, 18
1, 172058, Control_c, 0, 64, 20
1, 172072, Control_c, 0, 64, 26
1, 172075, Note_on_c, 0, 93, 81
1, 172087, Control_c, 0, 64, 36
1, 172102, Control_c, 0, 64, 46
1, 172117, Control_c, 0, 64, 56
1, 172131, Control_c, 0, 64, 64
1, 172142, Note_off_c, 0, 49, 56
1, 172146, Control_c, 0, 64, 71
1, 172147, Note_off_c, 0, 93, 63
1, 172153, Note_on_c, 0, 88, 73
1, 172159, Note_off_c, 0, 61, 61
1, 172161, Control_c, 0, 64, 73
1, 172176, Control_c, 0, 64, 74
1, 172177, Note_off_c, 0, 52, 51
1, 172191, Control_c, 0, 64, 77
1, 172205, Control_c, 0, 64, 81
1, 172213, Note_off_c, 0, 81, 20
1, 172220, Control_c, 0, 64, 84
1, 172235, Control_c, 0, 64, 87
1, 172236, Note_on_c, 0, 93, 80
1, 172250, Control_c, 0, 64, 89
1, 172264, Control_c, 0, 64, 91
1, 172279, Control_c, 0, 64, 95
1, 172294, Control_c, 0, 64, 99
1, 172308, Note_off_c, 0, 88, 49
1, 172309, Control_c, 0, 64, 102
1, 172314, Note_off_c, 0, 93, 61
1, 172324, Control_c, 0, 64, 105
1, 172329, Note_on_c, 0, 81, 78
1, 172335, Note_on_c, 0, 61, 71
1, 172338, Note_on_c, 0, 52, 48
1, 172338, Control_c, 0, 64, 106
1, 172344, Note_on_c, 0, 49, 60
1, 172368, Control_c, 0, 64, 107
1, 172383, Control_c, 0, 64, 108
1, 172398, Control_c, 0, 64, 109
1, 172409, Note_on_c, 0, 93, 88
1, 172412, Control_c, 0, 64, 113
1, 172427, Control_c, 0, 64, 115
1, 172442, Control_c, 0, 64, 119
1, 172464, Control_c, 0, 64, 122
1, 172471, Note_off_c, 0, 81, 52
1, 172479, Control_c, 0, 64, 127
1, 172480, Note_off_c, 0, 49, 46
1, 172484, Note_off_c, 0, 52, 53
1, 172493, Note_off_c, 0, 93, 63
1, 172500, Note_on_c, 0, 88, 75
1, 172505, Note_off_c, 0, 61, 60
1, 172584, Note_on_c, 0, 93, 79
1, 172614, Control_c, 0, 64, 111
1, 172625, Note_off_c, 0, 88, 57
1, 172629, Control_c, 0, 64, 91
1, 172643, Control_c, 0, 64, 70
1, 172658, Control_c, 0, 64, 55
1, 172659, Note_off_c, 0, 93, 63
1, 172673, Control_c, 0, 64, 34
1, 172679, Note_on_c, 0, 82, 78
1, 172681, Note_on_c, 0, 60, 65
1, 172686, Note_on_c, 0, 52, 55
1, 172688, Control_c, 0, 64, 18
1, 172691, Note_on_c, 0, 48, 61
1, 172733, Control_c, 0, 64, 19
1, 172748, Control_c, 0, 64, 27
1, 172757, Note_on_c, 0, 94, 85
1, 172762, Control_c, 0, 64, 38
1, 172777, Control_c, 0, 64, 47
1, 172792, Control_c, 0, 64, 57
1, 172806, Note_off_c, 0, 82, 58
1, 172807, Control_c, 0, 64, 63
1, 172822, Control_c, 0, 64, 68
1, 172836, Control_c, 0, 64, 69
1, 172837, Note_off_c, 0, 52, 56
1, 172838, Note_on_c, 0, 88, 78
1, 172843, Note_off_c, 0, 94, 66
1, 172847, Note_off_c, 0, 48, 53
1, 172851, Control_c, 0, 64, 71
1, 172865, Note_off_c, 0, 60, 58
1, 172866, Control_c, 0, 64, 73
1, 172880, Control_c, 0, 64, 75
1, 172895, Control_c, 0, 64, 78
1, 172910, Control_c, 0, 64, 79
1, 172917, Note_on_c, 0, 94, 78
1, 172925, Control_c, 0, 64, 81
1, 172940, Control_c, 0, 64, 82
1, 172955, Control_c, 0, 64, 83
1, 172967, Note_off_c, 0, 88, 57
1, 172970, Control_c, 0, 64, 84
1, 172985, Control_c, 0, 64, 85
1, 173000, Control_c, 0, 64, 86
1, 173001, Note_off_c, 0, 94, 66
1, 173007, Note_on_c, 0, 82, 80
1, 173008, Note_on_c, 0, 60, 68
1, 173013, Note_on_c, 0, 52, 56
1, 173014, Note_on_c, 0, 48, 59
1, 173014, Control_c, 0, 64, 87
1, 173059, Control_c, 0, 64, 87
1, 173074, Control_c, 0, 64, 88
1, 173082, Note_on_c, 0, 94, 84
1, 173088, Control_c, 0, 64, 88
1, 173103, Control_c, 0, 64, 90
1, 173118, Control_c, 0, 64, 91
1, 173120, Note_off_c, 0, 52, 61
1, 173133, Control_c, 0, 64, 93
1, 173148, Control_c, 0, 64, 94
1, 173150, Note_off_c, 0, 48, 63
1, 173162, Control_c, 0, 64, 95
1, 173164, Note_off_c, 0, 94, 66
1, 173166, Note_on_c, 0, 88, 77
1, 173181, Note_off_c, 0, 60, 58
1, 173192, Control_c, 0, 64, 96
1, 173214, Control_c, 0, 64, 96
1, 173232, Note_off_c, 0, 82, 56
1, 173246, Note_on_c, 0, 94, 80
1, 173303, Control_c, 0, 64, 89
1, 173304, Note_off_c, 0, 88, 58
1, 173318, Control_c, 0, 64, 72
1, 173333, Control_c, 0, 64, 59
1, 173345, Note_off_c, 0, 94, 64
1, 173345, Note_on_c, 0, 83, 83
1, 173348, Control_c, 0, 64, 44
1, 173354, Note_on_c, 0, 59, 70
1, 173358, Note_on_c, 0, 52, 63
1, 173362, Control_c, 0, 64, 32
1, 173369, Note_on_c, 0, 47, 59
1, 173378, Control_c, 0, 64, 30
1, 173393, Control_c, 0, 64, 31
1, 173408, Control_c, 0, 64, 35
1, 173423, Control_c, 0, 64, 44
1, 173423, Note_on_c, 0, 95, 91
1, 173438, Control_c, 0, 64, 53
1, 173452, Control_c, 0, 64, 61
1, 173460, Note_off_c, 0, 52, 64
1, 173467, Control_c, 0, 64, 67
1, 173474, Note_off_c, 0, 83, 53
1, 173482, Control_c, 0, 64, 71
1, 173497, Control_c, 0, 64, 72
1, 173503, Note_off_c, 0, 47, 63
1, 173503, Note_on_c, 0, 88, 86
1, 173507, Note_off_c, 0, 95, 64
1, 173511, Control_c, 0, 64, 72
1, 173526, Control_c, 0, 64, 74
1, 173531, Note_off_c, 0, 59, 57
1, 173556, Control_c, 0, 64, 74
1, 173578, Note_on_c, 0, 95, 85
1, 173615, Control_c, 0, 64, 70
1, 173630, Control_c, 0, 64, 61
1, 173643, Note_off_c, 0, 88, 51
1, 173645, Control_c, 0, 64, 44
1, 173659, Control_c, 0, 64, 20
1, 173674, Note_on_c, 0, 83, 84
1, 173674, Control_c, 0, 64, 0
1, 173679, Note_off_c, 0, 95, 65
1, 173685, Note_on_c, 0, 52, 69
1, 173687, Note_on_c, 0, 57, 77
1, 173691, Note_on_c, 0, 45, 66
1, 173748, Control_c, 0, 64, 16
1, 173760, Note_on_c, 0, 95, 92
1, 173763, Control_c, 0, 64, 29
1, 173778, Control_c, 0, 64, 39
1, 173792, Control_c, 0, 64, 49
1, 173807, Control_c, 0, 64, 59
1, 173822, Control_c, 0, 64, 66
1, 173823, Note_off_c, 0, 45, 62
1, 173837, Note_on_c, 0, 88, 91
1, 173837, Control_c, 0, 64, 70
1, 173849, Note_off_c, 0, 57, 62
1, 173853, Note_off_c, 0, 95, 65
1, 173867, Control_c, 0, 64, 71
1, 173869, Note_off_c, 0, 52, 51
1, 173882, Control_c, 0, 64, 71
1, 173889, Note_off_c, 0, 83, 25
1, 173897, Control_c, 0, 64, 72
1, 173911, Control_c, 0, 64, 72
1, 173916, Note_on_c, 0, 95, 89
1, 173944, Poly_aftertouch_c, 0, 50, 127
1, 173968, Note_off_c, 0, 88, 57
1, 173978, Control_c, 0, 64, 68
1, 173992, Control_c, 0, 64, 57
1, 174007, Control_c, 0, 64, 38
1, 174021, Note_on_c, 0, 52, 64
1, 174022, Control_c, 0, 64, 13
1, 174026, Note_on_c, 0, 56, 70
1, 174026, Note_off_c, 0, 95, 66
1, 174027, Note_on_c, 0, 84, 91
1, 174031, Note_on_c, 0, 44, 63
1, 174037, Control_c, 0, 64, 9
1, 174047, Poly_aftertouch_c, 0, 50, 0
1, 174067, Control_c, 0, 64, 10
1, 174082, Control_c, 0, 64, 19
1, 174097, Control_c, 0, 64, 33
1, 174111, Note_on_c, 0, 96, 93
1, 174111, Control_c, 0, 64, 45
1, 174123, Note_off_c, 0, 44, 61
1, 174126, Control_c, 0, 64, 57
1, 174135, Note_off_c, 0, 52, 59
1, 174141, Control_c, 0, 64, 66
1, 174150, Note_off_c, 0, 84, 61
1, 174153, Note_off_c, 0, 56, 59
1, 174156, Control_c, 0, 64, 78
1, 174171, Control_c, 0, 64, 79
1, 174186, Control_c, 0, 64, 80
1, 174194, Note_on_c, 0, 88, 85
1, 174201, Note_off_c, 0, 96, 64
1, 174201, Control_c, 0, 64, 84
1, 174216, Control_c, 0, 64, 89
1, 174231, Control_c, 0, 64, 93
1, 174246, Control_c, 0, 64, 95
1, 174260, Control_c, 0, 64, 95
1, 174269, Note_on_c, 0, 96, 86
1, 174284, Note_off_c, 0, 88, 66
1, 174289, Note_off_c, 0, 96, 64
1, 174290, Control_c, 0, 64, 96
1, 174349, Control_c, 0, 64, 95
1, 174364, Control_c, 0, 64, 91
1, 174379, Control_c, 0, 64, 75
1, 174394, Control_c, 0, 64, 62
1, 174408, Control_c, 0, 64, 47
1, 174418, Note_on_c, 0, 72, 82
1, 174423, Control_c, 0, 64, 24
1, 174428, Note_on_c, 0, 68, 65
1, 174431, Note_on_c, 0, 56, 54
1, 174433, Note_on_c, 0, 64, 52
1, 174438, Control_c, 0, 64, 15
1, 174467, Control_c, 0, 64, 17
1, 174482, Control_c, 0, 64, 27
1, 174497, Control_c, 0, 64, 37
1, 174512, Control_c, 0, 64, 48
1, 174517, Note_on_c, 0, 84, 85
1, 174526, Control_c, 0, 64, 58
1, 174541, Control_c, 0, 64, 65
1, 174556, Control_c, 0, 64, 70
1, 174559, Note_off_c, 0, 56, 54
1, 174566, Note_off_c, 0, 64, 47
1, 174571, Control_c, 0, 64, 71
1, 174585, Note_off_c, 0, 68, 58
1, 174586, Control_c, 0, 64, 71
1, 174601, Control_c, 0, 64, 72
1, 174601, Note_on_c, 0, 76, 86
1, 174612, Note_off_c, 0, 84, 62
1, 174615, Control_c, 0, 64, 74
1, 174630, Control_c, 0, 64, 74
1, 174644, Note_off_c, 0, 72, 59
1, 174680, Note_on_c, 0, 84, 83
1, 174741, Control_c, 0, 64, 74
1, 174756, Control_c, 0, 64, 73
1, 174771, Control_c, 0, 64, 71
1, 174786, Note_off_c, 0, 76, 50
1, 174786, Control_c, 0, 64, 68
1, 174793, Note_off_c, 0, 84, 61
1, 174801, Control_c, 0, 64, 61
1, 174805, Note_on_c, 0, 73, 86
1, 174807, Note_on_c, 0, 69, 67
1, 174810, Note_on_c, 0, 57, 57
1, 174815, Control_c, 0, 64, 49
1, 174822, Note_on_c, 0, 64, 56
1, 174830, Control_c, 0, 64, 28
1, 174845, Control_c, 0, 64, 0
1, 174920, Note_on_c, 0, 85, 87
1, 174948, Control_c, 0, 64, 12
1, 174963, Control_c, 0, 64, 27
1, 174979, Control_c, 0, 64, 38
1, 174994, Control_c, 0, 64, 49
1, 175009, Control_c, 0, 64, 59
1, 175018, Note_on_c, 0, 76, 81
1, 175024, Control_c, 0, 64, 65
1, 175029, Note_off_c, 0, 69, 56
1, 175038, Control_c, 0, 64, 68
1, 175050, Note_off_c, 0, 85, 62
1, 175053, Control_c, 0, 64, 69
1, 175068, Control_c, 0, 64, 69
1, 175082, Control_c, 0, 64, 70
1, 175097, Control_c, 0, 64, 70
1, 175112, Control_c, 0, 64, 71
1, 175127, Control_c, 0, 64, 71
1, 175130, Note_off_c, 0, 73, 33
1, 175134, Note_off_c, 0, 57, 57
1, 175136, Note_off_c, 0, 64, 33
1, 175138, Note_on_c, 0, 85, 86
1, 175201, Control_c, 0, 64, 72
1, 175259, Note_off_c, 0, 76, 37
1, 175303, Note_off_c, 0, 85, 54
1, 175363, Control_c, 0, 64, 71
1, 175378, Control_c, 0, 64, 71
1, 175393, Control_c, 0, 64, 70
1, 175408, Control_c, 0, 64, 70
1, 175423, Control_c, 0, 64, 69
1, 175438, Control_c, 0, 64, 68
1, 175460, Control_c, 0, 64, 68
1, 175489, Control_c, 0, 64, 67
1, 175519, Control_c, 0, 64, 67
1, 175549, Control_c, 0, 64, 66
1, 175578, Control_c, 0, 64, 66
1, 175593, Control_c, 0, 64, 65
1, 175623, Control_c, 0, 64, 65
1, 175638, Control_c, 0, 64, 64
1, 175667, Control_c, 0, 64, 64
1, 175682, Control_c, 0, 64, 63
1, 175697, Control_c, 0, 64, 63
1, 175712, Control_c, 0, 64, 61
1, 175727, Control_c, 0, 64, 60
1, 175742, Control_c, 0, 64, 58
1, 175756, Control_c, 0, 64, 55
1, 175762, Note_on_c, 0, 85, 60
1, 175771, Control_c, 0, 64, 53
1, 175787, Control_c, 0, 64, 50
1, 175802, Control_c, 0, 64, 48
1, 175817, Control_c, 0, 64, 45
1, 175831, Control_c, 0, 64, 42
1, 175846, Control_c, 0, 64, 37
1, 175861, Control_c, 0, 64, 31
1, 175876, Control_c, 0, 64, 22
1, 175891, Control_c, 0, 64, 11
1, 175905, Control_c, 0, 64, 0
1, 176032, Note_on_c, 0, 69, 33
1, 176068, Control_c, 0, 64, 13
1, 176083, Control_c, 0, 64, 21
1, 176083, Control_c, 0, 67, 8
1, 176097, Control_c, 0, 64, 27
1, 176097, Control_c, 0, 67, 8
1, 176112, Control_c, 0, 64, 32
1, 176112, Control_c, 0, 67, 10
1, 176127, Control_c, 0, 64, 37
1, 176127, Control_c, 0, 67, 11
1, 176142, Control_c, 0, 64, 43
1, 176142, Control_c, 0, 67, 11
1, 176157, Control_c, 0, 64, 48
1, 176171, Control_c, 0, 64, 52
1, 176186, Control_c, 0, 64, 54
1, 176209, Control_c, 0, 64, 55
1, 176235, Note_on_c, 0, 57, 35
1, 176253, Control_c, 0, 64, 56
1, 176268, Control_c, 0, 64, 58
1, 176283, Control_c, 0, 64, 59
1, 176298, Control_c, 0, 64, 60
1, 176301, Note_off_c, 0, 69, 41
1, 176312, Control_c, 0, 64, 60
1, 176327, Control_c, 0, 64, 61
1, 176327, Control_c, 0, 67, 12
1, 176342, Control_c, 0, 64, 62
1, 176342, Control_c, 0, 67, 12
1, 176357, Control_c, 0, 64, 63
1, 176372, Control_c, 0, 64, 63
1, 176372, Control_c, 0, 67, 13
1, 176397, Note_on_c, 0, 73, 51
1, 176401, Control_c, 0, 64, 64
1, 176401, Control_c, 0, 67, 14
1, 176416, Control_c, 0, 67, 15
1, 176431, Control_c, 0, 64, 64
1, 176461, Control_c, 0, 67, 15
1, 176505, Control_c, 0, 67, 16
1, 176565, Control_c, 0, 67, 16
1, 176607, Note_on_c, 0, 83, 59
1, 176610, Control_c, 0, 64, 64
1, 176625, Control_c, 0, 64, 63
1, 176640, Control_c, 0, 64, 62
1, 176655, Control_c, 0, 64, 60
1, 176656, Note_off_c, 0, 85, 34
1, 176670, Control_c, 0, 64, 55
1, 176684, Control_c, 0, 64, 47
1, 176699, Control_c, 0, 64, 37
1, 176714, Control_c, 0, 64, 28
1, 176729, Control_c, 0, 64, 22
1, 176732, Note_off_c, 0, 73, 46
1, 176744, Control_c, 0, 64, 19
1, 176744, Control_c, 0, 67, 16
1, 176758, Control_c, 0, 64, 17
1, 176773, Control_c, 0, 64, 16
1, 176781, Note_on_c, 0, 68, 48
1, 176781, Note_off_c, 0, 57, 41
1, 176788, Control_c, 0, 64, 17
1, 176788, Control_c, 0, 67, 15
1, 176803, Control_c, 0, 64, 20
1, 176818, Control_c, 0, 64, 25
1, 176833, Control_c, 0, 64, 31
1, 176847, Control_c, 0, 64, 35
1, 176862, Control_c, 0, 64, 36
1, 176862, Control_c, 0, 67, 15
1, 176936, Control_c, 0, 67, 14
1, 176959, Note_on_c, 0, 56, 46
1, 177003, Control_c, 0, 64, 37
1, 177003, Control_c, 0, 67, 14
1, 177018, Control_c, 0, 67, 13
1, 177033, Control_c, 0, 67, 13
1, 177048, Control_c, 0, 64, 36
1, 177048, Control_c, 0, 67, 12
1, 177062, Control_c, 0, 67, 11
1, 177077, Control_c, 0, 64, 35
1, 177077, Control_c, 0, 67, 11
1, 177092, Control_c, 0, 64, 34
1, 177092, Control_c, 0, 67, 10
1, 177107, Control_c, 0, 64, 32
1, 177107, Control_c, 0, 67, 10
1, 177110, Note_off_c, 0, 68, 43
1, 177122, Control_c, 0, 64, 28
1, 177122, Control_c, 0, 67, 9
1, 177127, Note_on_c, 0, 71, 57
1, 177136, Control_c, 0, 64, 26
1, 177151, Control_c, 0, 64, 23
1, 177151, Control_c, 0, 67, 8
1, 177166, Control_c, 0, 64, 22
1, 177166, Control_c, 0, 67, 0
1, 177181, Control_c, 0, 64, 20
1, 177194, Control_c, 0, 64, 18
1, 177209, Control_c, 0, 64, 16
1, 177223, Control_c, 0, 64, 15
1, 177238, Control_c, 0, 64, 12
1, 177253, Control_c, 0, 64, 0
1, 177309, Note_on_c, 0, 81, 70
1, 177449, Note_off_c, 0, 71, 38
1, 177481, Note_off_c, 0, 56, 57
1, 177486, Note_on_c, 0, 66, 53
1, 177491, Note_off_c, 0, 83, 51
1, 177617, Poly_aftertouch_c, 0, 76, 127
1, 177654, Control_c, 0, 64, 20
1, 177664, Note_on_c, 0, 54, 53
1, 177668, Control_c, 0, 64, 26
1, 177683, Control_c, 0, 64, 29
1, 177706, Control_c, 0, 64, 32
1, 177721, Control_c, 0, 64, 36
1, 177736, Control_c, 0, 64, 41
1, 177750, Control_c, 0, 64, 46
1, 177764, Note_off_c, 0, 66, 31
1, 177765, Control_c, 0, 64, 51
1, 177780, Control_c, 0, 64, 54
1, 177795, Control_c, 0, 64, 55
1, 177810, Control_c, 0, 64, 57
1, 177824, Control_c, 0, 64, 59
1, 177828, Poly_aftertouch_c, 0, 76, 0
1, 177839, Control_c, 0, 64, 60
1, 177842, Note_on_c, 0, 82, 76
1, 177854, Control_c, 0, 64, 62
1, 177869, Control_c, 0, 64, 63
1, 177883, Control_c, 0, 64, 63
1, 177898, Control_c, 0, 64, 64
1, 177913, Control_c, 0, 64, 65
1, 177928, Control_c, 0, 64, 65
1, 177943, Control_c, 0, 64, 66
1, 177957, Control_c, 0, 64, 67
1, 177968, Note_off_c, 0, 54, 34
1, 177981, Note_off_c, 0, 82, 60
1, 178091, Control_c, 0, 64, 66
1, 178100, Note_on_c, 0, 83, 63
1, 178106, Control_c, 0, 64, 65
1, 178121, Control_c, 0, 64, 64
1, 178136, Control_c, 0, 64, 62
1, 178143, Note_off_c, 0, 81, 58
1, 178150, Control_c, 0, 64, 59
1, 178165, Control_c, 0, 64, 55
1, 178180, Control_c, 0, 64, 51
1, 178195, Control_c, 0, 64, 47
1, 178210, Control_c, 0, 64, 45
1, 178225, Control_c, 0, 64, 43
1, 178240, Control_c, 0, 64, 40
1, 178255, Control_c, 0, 64, 34
1, 178270, Control_c, 0, 64, 25
1, 178285, Control_c, 0, 64, 13
1, 178286, Note_on_c, 0, 68, 46
1, 178299, Control_c, 0, 64, 0
1, 178463, Note_on_c, 0, 56, 42
1, 178470, Control_c, 0, 64, 18
1, 178484, Control_c, 0, 64, 25
1, 178499, Control_c, 0, 64, 33
1, 178508, Note_off_c, 0, 68, 40
1, 178514, Control_c, 0, 64, 39
1, 178529, Control_c, 0, 64, 46
1, 178544, Control_c, 0, 64, 52
1, 178559, Control_c, 0, 64, 57
1, 178573, Control_c, 0, 64, 59
1, 178588, Control_c, 0, 64, 60
1, 178630, Note_on_c, 0, 71, 55
1, 178632, Control_c, 0, 64, 61
1, 178647, Control_c, 0, 64, 62
1, 178727, Note_off_c, 0, 71, 0
1, 178727, Note_on_c, 0, 71, 3
1, 178780, Control_c, 0, 64, 61
1, 178795, Control_c, 0, 64, 61
1, 178810, Control_c, 0, 64, 60
1, 178814, Note_on_c, 0, 81, 63
1, 178824, Control_c, 0, 64, 58
1, 178839, Control_c, 0, 64, 54
1, 178854, Control_c, 0, 64, 48
1, 178859, Note_off_c, 0, 83, 29
1, 178869, Control_c, 0, 64, 37
1, 178884, Control_c, 0, 64, 24
1, 178899, Control_c, 0, 64, 13
1, 178914, Control_c, 0, 64, 0
1, 178963, Note_off_c, 0, 56, 42
1, 178978, Note_off_c, 0, 71, 44
1, 178996, Note_on_c, 0, 66, 48
1, 179033, Control_c, 0, 64, 9
1, 179048, Control_c, 0, 64, 22
1, 179063, Control_c, 0, 64, 31
1, 179078, Control_c, 0, 64, 39
1, 179093, Control_c, 0, 64, 48
1, 179107, Control_c, 0, 64, 55
1, 179122, Control_c, 0, 64, 61
1, 179137, Control_c, 0, 64, 64
1, 179152, Control_c, 0, 64, 67
1, 179167, Note_on_c, 0, 54, 51
1, 179167, Control_c, 0, 64, 68
1, 179182, Control_c, 0, 64, 70
1, 179203, Control_c, 0, 64, 72
1, 179218, Control_c, 0, 64, 75
1, 179233, Control_c, 0, 64, 77
1, 179236, Note_off_c, 0, 66, 40
1, 179248, Control_c, 0, 64, 79
1, 179262, Control_c, 0, 64, 80
1, 179277, Control_c, 0, 64, 81
1, 179292, Control_c, 0, 64, 81
1, 179307, Note_off_c, 0, 54, 36
1, 179307, Control_c, 0, 64, 82
1, 179340, Note_on_c, 0, 69, 56
1, 179382, Note_off_c, 0, 69, 60
1, 179411, Control_c, 0, 64, 81
1, 179426, Control_c, 0, 64, 80
1, 179441, Control_c, 0, 64, 79
1, 179456, Control_c, 0, 64, 78
1, 179471, Control_c, 0, 64, 76
1, 179486, Control_c, 0, 64, 74
1, 179501, Control_c, 0, 64, 69
1, 179516, Control_c, 0, 64, 62
1, 179530, Control_c, 0, 64, 52
1, 179545, Control_c, 0, 64, 32
1, 179555, Note_on_c, 0, 80, 68
1, 179560, Control_c, 0, 64, 20
1, 179569, Note_on_c, 0, 68, 56
1, 179572, Note_on_c, 0, 65, 47
1, 179574, Control_c, 0, 64, 18
1, 179583, Note_on_c, 0, 53, 43
1, 179589, Control_c, 0, 64, 17
1, 179604, Control_c, 0, 64, 16
1, 179634, Control_c, 0, 64, 20
1, 179648, Control_c, 0, 64, 29
1, 179663, Control_c, 0, 64, 39
1, 179669, Note_off_c, 0, 81, 33
1, 179678, Control_c, 0, 64, 52
1, 179693, Control_c, 0, 64, 64
1, 179708, Control_c, 0, 64, 77
1, 179722, Control_c, 0, 64, 83
1, 179737, Note_off_c, 0, 68, 52
1, 179752, Control_c, 0, 64, 84
1, 179762, Note_off_c, 0, 53, 35
1, 179768, Control_c, 0, 64, 86
1, 179780, Note_off_c, 0, 65, 40
1, 179783, Control_c, 0, 64, 88
1, 179798, Control_c, 0, 64, 90
1, 179829, Note_off_c, 0, 80, 60
1, 179857, Control_c, 0, 64, 88
1, 179871, Control_c, 0, 64, 85
1, 179886, Control_c, 0, 64, 79
1, 179901, Control_c, 0, 64, 69
1, 179916, Control_c, 0, 64, 57
1, 179931, Control_c, 0, 64, 41
1, 179953, Control_c, 0, 64, 20
1, 179968, Control_c, 0, 64, 11
1, 179975, Note_on_c, 0, 79, 75
1, 179983, Control_c, 0, 64, 0
1, 179987, Note_on_c, 0, 67, 62
1, 179993, Note_on_c, 0, 52, 55
1, 179996, Note_on_c, 0, 64, 52
1, 180086, Control_c, 0, 64, 22
1, 180101, Control_c, 0, 64, 33
1, 180116, Control_c, 0, 64, 44
1, 180131, Control_c, 0, 64, 55
1, 180145, Control_c, 0, 64, 62
1, 180160, Control_c, 0, 64, 67
1, 180173, Note_off_c, 0, 64, 50
1, 180175, Control_c, 0, 64, 68
1, 180179, Note_off_c, 0, 52, 52
1, 180190, Control_c, 0, 64, 69
1, 180205, Control_c, 0, 64, 71
1, 180219, Control_c, 0, 64, 73
1, 180234, Control_c, 0, 64, 76
1, 180249, Control_c, 0, 64, 79
1, 180264, Control_c, 0, 64, 80
1, 180279, Control_c, 0, 64, 81
1, 180285, Note_off_c, 0, 67, 35
1, 180292, Note_off_c, 0, 79, 36
1, 180294, Control_c, 0, 64, 83
1, 180309, Control_c, 0, 64, 85
1, 180324, Control_c, 0, 64, 86
1, 180339, Control_c, 0, 64, 86
1, 180353, Control_c, 0, 64, 87
1, 180383, Control_c, 0, 64, 87
1, 180397, Control_c, 0, 64, 88
1, 180545, Control_c, 0, 64, 87
1, 180560, Control_c, 0, 64, 86
1, 180576, Control_c, 0, 64, 85
1, 180591, Control_c, 0, 64, 84
1, 180606, Control_c, 0, 64, 83
1, 180621, Control_c, 0, 64, 83
1, 180636, Control_c, 0, 64, 82
1, 180650, Control_c, 0, 64, 81
1, 180665, Control_c, 0, 64, 80
1, 180680, Control_c, 0, 64, 79
1, 180702, Control_c, 0, 64, 78
1, 180717, Control_c, 0, 64, 77
1, 180732, Control_c, 0, 64, 76
1, 180747, Control_c, 0, 64, 74
1, 180762, Control_c, 0, 64, 72
1, 180776, Control_c, 0, 64, 71
1, 180791, Control_c, 0, 64, 69
1, 180806, Control_c, 0, 64, 68
1, 180818, Note_on_c, 0, 79, 60
1, 180820, Control_c, 0, 64, 66
1, 180834, Note_on_c, 0, 67, 48
1, 180835, Control_c, 0, 64, 64
1, 180845, Note_on_c, 0, 63, 40
1, 180850, Control_c, 0, 64, 61
1, 180851, Note_on_c, 0, 51, 42
1, 180865, Control_c, 0, 64, 57
1, 180880, Control_c, 0, 64, 52
1, 180894, Control_c, 0, 64, 48
1, 180909, Control_c, 0, 64, 44
1, 180924, Control_c, 0, 64, 41
1, 180939, Control_c, 0, 64, 37
1, 180954, Control_c, 0, 64, 30
1, 180968, Control_c, 0, 64, 22
1, 180983, Control_c, 0, 64, 9
1, 180998, Control_c, 0, 64, 0
1, 181176, Control_c, 0, 64, 8
1, 181191, Control_c, 0, 64, 22
1, 181206, Control_c, 0, 64, 31
1, 181220, Control_c, 0, 64, 39
1, 181235, Control_c, 0, 64, 47
1, 181250, Control_c, 0, 64, 55
1, 181265, Control_c, 0, 64, 61
1, 181275, Note_off_c, 0, 51, 38
1, 181280, Control_c, 0, 64, 63
1, 181294, Control_c, 0, 64, 64
1, 181309, Control_c, 0, 64, 65
1, 181324, Control_c, 0, 64, 67
1, 181337, Note_off_c, 0, 63, 44
1, 181339, Control_c, 0, 64, 69
1, 181354, Control_c, 0, 64, 71
1, 181370, Control_c, 0, 64, 72
1, 181385, Control_c, 0, 64, 74
1, 181397, Note_off_c, 0, 67, 37
1, 181399, Control_c, 0, 64, 75
1, 181414, Control_c, 0, 64, 76
1, 181429, Control_c, 0, 64, 77
1, 181450, Control_c, 0, 64, 77
1, 181480, Control_c, 0, 64, 78
1, 181495, Control_c, 0, 64, 79
1, 181510, Control_c, 0, 64, 79
1, 181525, Control_c, 0, 64, 80
1, 181555, Control_c, 0, 64, 80
1, 181599, Control_c, 0, 64, 81
1, 181614, Control_c, 0, 64, 81
1, 181629, Control_c, 0, 64, 82
1, 181658, Control_c, 0, 64, 82
1, 181747, Note_on_c, 0, 80, 78
1, 181762, Note_on_c, 0, 68, 54
1, 181766, Note_on_c, 0, 53, 52
1, 181767, Note_on_c, 0, 65, 52
1, 181787, Note_off_c, 0, 79, 55
1, 181805, Control_c, 0, 64, 82
1, 181835, Control_c, 0, 64, 81
1, 181843, Note_off_c, 0, 53, 62
1, 181850, Control_c, 0, 64, 80
1, 181859, Note_off_c, 0, 68, 53
1, 181865, Control_c, 0, 64, 79
1, 181880, Control_c, 0, 64, 78
1, 181881, Note_off_c, 0, 65, 63
1, 181890, Note_off_c, 0, 80, 61
1, 181895, Control_c, 0, 64, 78
1, 181909, Control_c, 0, 64, 77
1, 181924, Control_c, 0, 64, 76
1, 181939, Control_c, 0, 64, 76
1, 181954, Control_c, 0, 64, 75
1, 181969, Control_c, 0, 64, 74
1, 181984, Control_c, 0, 64, 74
1, 181998, Control_c, 0, 64, 73
1, 182013, Control_c, 0, 64, 72
1, 182028, Control_c, 0, 64, 71
1, 182042, Control_c, 0, 64, 68
1, 182057, Control_c, 0, 64, 62
1, 182072, Control_c, 0, 64, 51
1, 182087, Control_c, 0, 64, 28
1, 182094, Note_on_c, 0, 82, 79
1, 182102, Note_on_c, 0, 70, 68
1, 182102, Control_c, 0, 64, 0
1, 182109, Note_on_c, 0, 67, 55
1, 182112, Note_on_c, 0, 55, 52
1, 182174, Note_off_c, 0, 55, 62
1, 182177, Control_c, 0, 64, 16
1, 182199, Control_c, 0, 64, 31
1, 182211, Note_off_c, 0, 67, 62
1, 182214, Control_c, 0, 64, 43
1, 182228, Control_c, 0, 64, 57
1, 182234, Note_off_c, 0, 70, 60
1, 182243, Control_c, 0, 64, 68
1, 182258, Control_c, 0, 64, 76
1, 182327, Note_on_c, 0, 84, 89
1, 182333, Note_on_c, 0, 68, 71
1, 182334, Note_on_c, 0, 56, 63
1, 182334, Note_on_c, 0, 72, 78
1, 182386, Note_off_c, 0, 82, 62
1, 182387, Note_off_c, 0, 72, 62
1, 182393, Note_off_c, 0, 56, 63
1, 182404, Note_off_c, 0, 68, 59
1, 182412, Note_off_c, 0, 84, 63
1, 182451, Control_c, 0, 64, 75
1, 182465, Control_c, 0, 64, 72
1, 182480, Control_c, 0, 64, 68
1, 182495, Control_c, 0, 64, 62
1, 182510, Control_c, 0, 64, 50
1, 182525, Control_c, 0, 64, 32
1, 182539, Control_c, 0, 64, 9
1, 182554, Control_c, 0, 64, 0
1, 182572, Note_on_c, 0, 85, 86
1, 182579, Note_on_c, 0, 73, 80
1, 182584, Note_on_c, 0, 58, 64
1, 182586, Note_on_c, 0, 70, 67
1, 182628, Control_c, 0, 64, 28
1, 182643, Control_c, 0, 64, 41
1, 182658, Control_c, 0, 64, 52
1, 182673, Control_c, 0, 64, 61
1, 182674, Note_off_c, 0, 58, 60
1, 182676, Note_off_c, 0, 73, 62
1, 182685, Note_off_c, 0, 70, 59
1, 182687, Control_c, 0, 64, 65
1, 182702, Note_off_c, 0, 85, 60
1, 182702, Control_c, 0, 64, 65
1, 182732, Control_c, 0, 64, 66
1, 182747, Control_c, 0, 64, 66
1, 182791, Control_c, 0, 64, 65
1, 182806, Control_c, 0, 64, 62
1, 182821, Control_c, 0, 64, 53
1, 182836, Control_c, 0, 64, 36
1, 182851, Control_c, 0, 64, 14
1, 182863, Note_on_c, 0, 87, 87
1, 182865, Note_on_c, 0, 75, 83
1, 182865, Control_c, 0, 64, 0
1, 182876, Note_on_c, 0, 60, 64
1, 182876, Note_on_c, 0, 72, 67
1, 182962, Control_c, 0, 64, 16
1, 182977, Note_off_c, 0, 60, 61
1, 182977, Control_c, 0, 64, 31
1, 182992, Control_c, 0, 64, 43
1, 183007, Control_c, 0, 64, 54
1, 183021, Note_off_c, 0, 72, 57
1, 183021, Control_c, 0, 64, 62
1, 183025, Note_off_c, 0, 75, 60
1, 183036, Control_c, 0, 64, 66
1, 183051, Control_c, 0, 64, 66
1, 183091, Note_off_c, 0, 87, 59
1, 183096, Control_c, 0, 64, 67
1, 183111, Control_c, 0, 64, 67
1, 183126, Control_c, 0, 64, 68
1, 183215, Control_c, 0, 64, 67
1, 183245, Control_c, 0, 64, 67
1, 183260, Control_c, 0, 64, 66
1, 183275, Control_c, 0, 64, 66
1, 183289, Control_c, 0, 64, 65
1, 183304, Control_c, 0, 64, 65
1, 183319, Control_c, 0, 64, 64
1, 183334, Control_c, 0, 64, 63
1, 183349, Control_c, 0, 64, 63
1, 183363, Control_c, 0, 64, 61
1, 183378, Control_c, 0, 64, 60
1, 183393, Control_c, 0, 64, 58
1, 183408, Control_c, 0, 64, 57
1, 183422, Control_c, 0, 64, 56
1, 183437, Control_c, 0, 64, 55
1, 183452, Control_c, 0, 64, 53
1, 183467, Control_c, 0, 64, 51
1, 183482, Control_c, 0, 64, 50
1, 183488, Note_on_c, 0, 89, 61
1, 183496, Control_c, 0, 64, 48
1, 183511, Control_c, 0, 64, 47
1, 183526, Control_c, 0, 64, 44
1, 183541, Control_c, 0, 64, 40
1, 183556, Control_c, 0, 64, 34
1, 183570, Control_c, 0, 64, 26
1, 183585, Control_c, 0, 64, 16
1, 183600, Control_c, 0, 64, 0
1, 183725, Note_on_c, 0, 73, 41
1, 183740, Control_c, 0, 64, 17
1, 183755, Control_c, 0, 64, 26
1, 183772, Control_c, 0, 64, 34
1, 183786, Control_c, 0, 64, 41
1, 183801, Control_c, 0, 64, 47
1, 183816, Control_c, 0, 64, 52
1, 183831, Control_c, 0, 64, 56
1, 183845, Control_c, 0, 64, 58
1, 183860, Control_c, 0, 64, 59
1, 183875, Control_c, 0, 64, 60
1, 183890, Control_c, 0, 64, 61
1, 183905, Control_c, 0, 64, 62
1, 183919, Control_c, 0, 64, 63
1, 183925, Note_on_c, 0, 61, 37
1, 183934, Control_c, 0, 64, 63
1, 183949, Control_c, 0, 64, 64
1, 183964, Control_c, 0, 64, 64
1, 183979, Control_c, 0, 64, 65
1, 183989, Note_off_c, 0, 73, 40
1, 184008, Control_c, 0, 64, 66
1, 184088, Note_on_c, 0, 77, 51
1, 184245, Control_c, 0, 64, 65
1, 184275, Control_c, 0, 64, 65
1, 184286, Note_on_c, 0, 87, 64
1, 184290, Control_c, 0, 64, 64
1, 184319, Control_c, 0, 64, 63
1, 184334, Control_c, 0, 64, 63
1, 184349, Control_c, 0, 64, 62
1, 184363, Control_c, 0, 64, 61
1, 184378, Control_c, 0, 64, 60
1, 184393, Control_c, 0, 64, 57
1, 184408, Control_c, 0, 64, 52
1, 184423, Control_c, 0, 64, 49
1, 184445, Control_c, 0, 64, 46
1, 184460, Control_c, 0, 64, 42
1, 184464, Note_off_c, 0, 89, 34
1, 184465, Note_on_c, 0, 72, 45
1, 184467, Note_off_c, 0, 61, 44
1, 184475, Control_c, 0, 64, 36
1, 184490, Control_c, 0, 64, 29
1, 184491, Note_off_c, 0, 77, 37
1, 184505, Control_c, 0, 64, 22
1, 184519, Control_c, 0, 64, 16
1, 184534, Control_c, 0, 64, 13
1, 184549, Control_c, 0, 64, 13
1, 184624, Control_c, 0, 64, 14
1, 184638, Note_on_c, 0, 60, 44
1, 184639, Control_c, 0, 64, 18
1, 184654, Control_c, 0, 64, 23
1, 184668, Control_c, 0, 64, 27
1, 184683, Control_c, 0, 64, 32
1, 184695, Note_off_c, 0, 72, 39
1, 184698, Control_c, 0, 64, 39
1, 184713, Control_c, 0, 64, 44
1, 184728, Control_c, 0, 64, 49
1, 184742, Control_c, 0, 64, 51
1, 184757, Control_c, 0, 64, 51
1, 184804, Note_on_c, 0, 75, 59
1, 184816, Control_c, 0, 64, 52
1, 184831, Control_c, 0, 64, 53
1, 184846, Control_c, 0, 64, 55
1, 184861, Control_c, 0, 64, 56
1, 184875, Control_c, 0, 64, 56
1, 184890, Control_c, 0, 64, 57
1, 184905, Control_c, 0, 64, 57
1, 184994, Control_c, 0, 64, 57
1, 185003, Note_on_c, 0, 85, 66
1, 185024, Control_c, 0, 64, 56
1, 185039, Control_c, 0, 64, 56
1, 185054, Control_c, 0, 64, 54
1, 185068, Control_c, 0, 64, 51
1, 185083, Control_c, 0, 64, 43
1, 185098, Control_c, 0, 64, 32
1, 185113, Control_c, 0, 64, 20
1, 185128, Control_c, 0, 64, 0
1, 185162, Note_off_c, 0, 60, 42
1, 185170, Note_on_c, 0, 70, 53
1, 185226, Note_off_c, 0, 75, 37
1, 185269, Poly_aftertouch_c, 0, 76, 127
1, 185298, Control_c, 0, 64, 20
1, 185300, Note_off_c, 0, 87, 54
1, 185313, Control_c, 0, 64, 28
1, 185328, Control_c, 0, 64, 35
1, 185342, Control_c, 0, 64, 42
1, 185346, Note_on_c, 0, 58, 51
1, 185357, Control_c, 0, 64, 49
1, 185373, Control_c, 0, 64, 55
1, 185388, Control_c, 0, 64, 57
1, 185403, Control_c, 0, 64, 58
1, 185417, Control_c, 0, 64, 59
1, 185431, Control_c, 0, 64, 60
1, 185446, Control_c, 0, 64, 60
1, 185450, Poly_aftertouch_c, 0, 76, 0
1, 185461, Control_c, 0, 64, 61
1, 185476, Control_c, 0, 64, 61
1, 185519, Note_on_c, 0, 86, 73
1, 185531, Note_off_c, 0, 70, 30
1, 185606, Note_off_c, 0, 85, 51
1, 185639, Control_c, 0, 64, 61
1, 185671, Note_off_c, 0, 58, 39
1, 185713, Control_c, 0, 64, 60
1, 185743, Control_c, 0, 64, 60
1, 185757, Control_c, 0, 64, 59
1, 185772, Control_c, 0, 64, 59
1, 185783, Note_on_c, 0, 87, 70
1, 185787, Control_c, 0, 64, 58
1, 185802, Control_c, 0, 64, 57
1, 185816, Control_c, 0, 64, 55
1, 185831, Control_c, 0, 64, 53
1, 185846, Control_c, 0, 64, 51
1, 185861, Control_c, 0, 64, 48
1, 185865, Note_off_c, 0, 86, 54
1, 185876, Control_c, 0, 64, 45
1, 185890, Control_c, 0, 64, 41
1, 185905, Control_c, 0, 64, 36
1, 185920, Control_c, 0, 64, 29
1, 185943, Control_c, 0, 64, 20
1, 185958, Control_c, 0, 64, 11
1, 185972, Control_c, 0, 64, 0
1, 185984, Note_on_c, 0, 72, 41
1, 186134, Control_c, 0, 64, 15
1, 186149, Control_c, 0, 64, 21
1, 186166, Control_c, 0, 64, 26
1, 186175, Note_on_c, 0, 60, 29
1, 186181, Control_c, 0, 64, 31
1, 186196, Control_c, 0, 64, 36
1, 186211, Control_c, 0, 64, 42
1, 186226, Control_c, 0, 64, 48
1, 186240, Note_off_c, 0, 72, 40
1, 186240, Control_c, 0, 64, 53
1, 186255, Control_c, 0, 64, 56
1, 186270, Control_c, 0, 64, 56
1, 186285, Control_c, 0, 64, 57
1, 186300, Control_c, 0, 64, 57
1, 186314, Control_c, 0, 64, 58
1, 186329, Control_c, 0, 64, 59
1, 186330, Note_on_c, 0, 75, 55
1, 186344, Control_c, 0, 64, 60
1, 186359, Control_c, 0, 64, 61
1, 186374, Control_c, 0, 64, 61
1, 186388, Control_c, 0, 64, 62
1, 186403, Control_c, 0, 64, 62
1, 186418, Control_c, 0, 64, 63
1, 186432, Control_c, 0, 64, 63
1, 186447, Control_c, 0, 64, 64
1, 186477, Control_c, 0, 64, 64
1, 186506, Control_c, 0, 64, 65
1, 186527, Note_on_c, 0, 85, 62
1, 186610, Control_c, 0, 64, 64
1, 186625, Control_c, 0, 64, 63
1, 186640, Control_c, 0, 64, 61
1, 186655, Control_c, 0, 64, 57
1, 186670, Control_c, 0, 64, 50
1, 186692, Control_c, 0, 64, 41
1, 186700, Note_off_c, 0, 60, 43
1, 186702, Note_off_c, 0, 87, 63
1, 186706, Note_on_c, 0, 70, 47
1, 186707, Control_c, 0, 64, 33
1, 186721, Control_c, 0, 64, 25
1, 186736, Control_c, 0, 64, 19
1, 186751, Control_c, 0, 64, 14
1, 186765, Control_c, 0, 64, 9
1, 186780, Control_c, 0, 64, 9
1, 186810, Control_c, 0, 64, 12
1, 186821, Note_off_c, 0, 75, 23
1, 186825, Control_c, 0, 64, 20
1, 186840, Control_c, 0, 64, 26
1, 186855, Control_c, 0, 64, 32
1, 186870, Control_c, 0, 64, 39
1, 186876, Note_on_c, 0, 58, 51
1, 186885, Control_c, 0, 64, 47
1, 186897, Note_off_c, 0, 70, 55
1, 186900, Control_c, 0, 64, 55
1, 186914, Control_c, 0, 64, 58
1, 186929, Control_c, 0, 64, 59
1, 186959, Control_c, 0, 64, 60
1, 186974, Control_c, 0, 64, 61
1, 186989, Control_c, 0, 64, 62
1, 187004, Control_c, 0, 64, 62
1, 187040, Note_on_c, 0, 73, 53
1, 187045, Note_off_c, 0, 58, 36
1, 187099, Note_off_c, 0, 73, 0
1, 187099, Note_on_c, 0, 73, 8
1, 187108, Control_c, 0, 64, 62
1, 187137, Control_c, 0, 64, 61
1, 187152, Control_c, 0, 64, 61
1, 187167, Control_c, 0, 64, 60
1, 187181, Control_c, 0, 64, 60
1, 187196, Control_c, 0, 64, 58
1, 187211, Control_c, 0, 64, 57
1, 187226, Control_c, 0, 64, 55
1, 187228, Note_on_c, 0, 84, 61
1, 187241, Note_on_c, 0, 68, 46
1, 187241, Control_c, 0, 64, 52
1, 187255, Control_c, 0, 64, 50
1, 187270, Control_c, 0, 64, 47
1, 187272, Note_off_c, 0, 73, 41
1, 187285, Control_c, 0, 64, 44
1, 187300, Control_c, 0, 64, 41
1, 187315, Control_c, 0, 64, 37
1, 187329, Control_c, 0, 64, 32
1, 187331, Note_off_c, 0, 85, 60
1, 187344, Control_c, 0, 64, 27
1, 187359, Control_c, 0, 64, 20
1, 187374, Control_c, 0, 64, 0
1, 187416, Note_on_c, 0, 72, 55
1, 187435, Note_on_c, 0, 56, 46
1, 187465, Note_off_c, 0, 84, 37
1, 187552, Note_off_c, 0, 68, 39
1, 187612, Note_on_c, 0, 73, 63
1, 187638, Note_on_c, 0, 58, 42
1, 187707, Control_c, 0, 64, 15
1, 187722, Control_c, 0, 64, 22
1, 187727, Note_off_c, 0, 56, 32
1, 187737, Control_c, 0, 64, 29
1, 187752, Control_c, 0, 64, 34
1, 187767, Control_c, 0, 64, 40
1, 187782, Control_c, 0, 64, 45
1, 187797, Control_c, 0, 64, 49
1, 187806, Note_on_c, 0, 75, 70
1, 187812, Control_c, 0, 64, 52
1, 187820, Note_on_c, 0, 60, 49
1, 187827, Control_c, 0, 64, 54
1, 187841, Control_c, 0, 64, 55
1, 187856, Control_c, 0, 64, 56
1, 187871, Control_c, 0, 64, 56
1, 187885, Note_off_c, 0, 58, 28
1, 187886, Control_c, 0, 64, 57
1, 187901, Control_c, 0, 64, 58
1, 187916, Control_c, 0, 64, 58
1, 187930, Note_off_c, 0, 72, 33
1, 187993, Note_off_c, 0, 73, 28
1, 188026, Note_off_c, 0, 60, 38
1, 188064, Control_c, 0, 64, 58
1, 188077, Note_on_c, 0, 79, 65
1, 188078, Control_c, 0, 64, 57
1, 188093, Control_c, 0, 64, 56
1, 188108, Control_c, 0, 64, 55
1, 188109, Note_on_c, 0, 63, 41
1, 188123, Control_c, 0, 64, 53
1, 188138, Control_c, 0, 64, 49
1, 188152, Control_c, 0, 64, 46
1, 188167, Control_c, 0, 64, 42
1, 188190, Control_c, 0, 64, 38
1, 188205, Control_c, 0, 64, 34
1, 188208, Note_off_c, 0, 75, 23
1, 188219, Control_c, 0, 64, 29
1, 188234, Control_c, 0, 64, 24
1, 188249, Control_c, 0, 64, 14
1, 188264, Control_c, 0, 64, 0
1, 188321, Note_on_c, 0, 76, 67
1, 188338, Note_on_c, 0, 60, 44
1, 188356, Note_off_c, 0, 63, 47
1, 188367, Note_off_c, 0, 79, 52
1, 188485, Control_c, 0, 64, 11
1, 188495, Note_off_c, 0, 60, 61
1, 188500, Control_c, 0, 64, 20
1, 188511, Note_on_c, 0, 77, 69
1, 188515, Control_c, 0, 64, 25
1, 188530, Control_c, 0, 64, 30
1, 188532, Note_on_c, 0, 61, 41
1, 188545, Control_c, 0, 64, 34
1, 188561, Control_c, 0, 64, 39
1, 188576, Control_c, 0, 64, 42
1, 188590, Control_c, 0, 64, 45
1, 188591, Note_off_c, 0, 76, 32
1, 188605, Control_c, 0, 64, 46
1, 188679, Control_c, 0, 64, 45
1, 188694, Note_on_c, 0, 65, 66
1, 188703, Note_on_c, 0, 49, 51
1, 188706, Note_off_c, 0, 77, 52
1, 188709, Control_c, 0, 64, 44
1, 188716, Note_off_c, 0, 61, 42
1, 188724, Control_c, 0, 64, 44
1, 188739, Control_c, 0, 64, 43
1, 188753, Control_c, 0, 64, 43
1, 188768, Control_c, 0, 64, 42
1, 188783, Control_c, 0, 64, 41
1, 188798, Control_c, 0, 64, 40
1, 188813, Control_c, 0, 64, 39
1, 188827, Control_c, 0, 64, 39
1, 188842, Control_c, 0, 64, 38
1, 188857, Control_c, 0, 64, 38
1, 188872, Control_c, 0, 64, 37
1, 188884, Note_on_c, 0, 77, 71
1, 188887, Control_c, 0, 64, 36
1, 188888, Note_on_c, 0, 61, 51
1, 188901, Control_c, 0, 64, 35
1, 188915, Note_off_c, 0, 49, 42
1, 188916, Control_c, 0, 64, 35
1, 188938, Control_c, 0, 64, 34
1, 188953, Control_c, 0, 64, 33
1, 188968, Control_c, 0, 64, 31
1, 188983, Control_c, 0, 64, 30
1, 188998, Control_c, 0, 64, 29
1, 189013, Control_c, 0, 64, 27
1, 189028, Control_c, 0, 64, 25
1, 189042, Control_c, 0, 64, 23
1, 189057, Control_c, 0, 64, 20
1, 189061, Note_on_c, 0, 74, 68
1, 189072, Control_c, 0, 64, 17
1, 189082, Note_on_c, 0, 59, 54
1, 189087, Control_c, 0, 64, 14
1, 189096, Note_off_c, 0, 65, 36
1, 189102, Control_c, 0, 64, 11
1, 189106, Note_off_c, 0, 77, 56
1, 189116, Control_c, 0, 64, 0
1, 189117, Note_off_c, 0, 61, 39
1, 189242, Note_off_c, 0, 59, 58
1, 189252, Note_on_c, 0, 75, 66
1, 189254, Note_on_c, 0, 60, 50
1, 189280, Note_off_c, 0, 74, 62
1, 189425, Note_off_c, 0, 60, 53
1, 189427, Note_on_c, 0, 48, 46
1, 189428, Note_on_c, 0, 63, 63
1, 189454, Note_off_c, 0, 75, 58
1, 189618, Note_on_c, 0, 75, 59
1, 189626, Note_on_c, 0, 60, 43
1, 189673, Note_off_c, 0, 48, 42
1, 189794, Note_off_c, 0, 60, 60
1, 189805, Note_on_c, 0, 72, 62
1, 189816, Note_off_c, 0, 75, 49
1, 189822, Note_on_c, 0, 57, 46
1, 189823, Note_off_c, 0, 63, 27
1, 189958, Note_off_c, 0, 57, 53
1, 189979, Note_off_c, 0, 72, 48
1, 189988, Note_on_c, 0, 73, 60
1, 189995, Note_on_c, 0, 58, 47
1, 190101, Control_c, 0, 64, 14
1, 190116, Control_c, 0, 64, 24
1, 190131, Control_c, 0, 64, 32
1, 190146, Control_c, 0, 64, 40
1, 190161, Control_c, 0, 64, 49
1, 190175, Note_on_c, 0, 61, 57
1, 190176, Control_c, 0, 64, 56
1, 190179, Note_off_c, 0, 58, 35
1, 190184, Note_on_c, 0, 46, 44
1, 190191, Control_c, 0, 64, 61
1, 190197, Note_off_c, 0, 73, 35
1, 190205, Control_c, 0, 64, 62
1, 190220, Control_c, 0, 64, 62
1, 190227, Note_off_c, 0, 61, 51
1, 190235, Control_c, 0, 64, 63
1, 190250, Control_c, 0, 64, 64
1, 190251, Note_off_c, 0, 46, 56
1, 190265, Control_c, 0, 64, 65
1, 190295, Control_c, 0, 64, 65
1, 190369, Control_c, 0, 64, 65
1, 190399, Control_c, 0, 64, 64
1, 190413, Control_c, 0, 64, 64
1, 190435, Control_c, 0, 64, 63
1, 190450, Control_c, 0, 64, 63
1, 190451, Note_on_c, 0, 77, 58
1, 190465, Control_c, 0, 64, 62
1, 190472, Note_on_c, 0, 61, 42
1, 190480, Control_c, 0, 64, 60
1, 190494, Control_c, 0, 64, 57
1, 190509, Control_c, 0, 64, 54
1, 190524, Control_c, 0, 64, 50
1, 190539, Control_c, 0, 64, 46
1, 190554, Control_c, 0, 64, 44
1, 190569, Control_c, 0, 64, 42
1, 190584, Control_c, 0, 64, 39
1, 190599, Control_c, 0, 64, 36
1, 190613, Control_c, 0, 64, 34
1, 190628, Control_c, 0, 64, 31
1, 190643, Control_c, 0, 64, 29
1, 190658, Note_on_c, 0, 74, 54
1, 190658, Control_c, 0, 64, 27
1, 190670, Note_on_c, 0, 59, 43
1, 190673, Control_c, 0, 64, 24
1, 190678, Note_off_c, 0, 61, 38
1, 190687, Control_c, 0, 64, 20
1, 190692, Note_off_c, 0, 77, 49
1, 190702, Control_c, 0, 64, 17
1, 190717, Control_c, 0, 64, 14
1, 190731, Control_c, 0, 64, 12
1, 190746, Control_c, 0, 64, 11
1, 190761, Control_c, 0, 64, 9
1, 190776, Control_c, 0, 64, 8
1, 190791, Control_c, 0, 64, 0
1, 190829, Note_off_c, 0, 59, 37
1, 190829, Note_off_c, 0, 74, 57
1, 190846, Note_on_c, 0, 60, 46
1, 190849, Note_on_c, 0, 75, 55
1, 191011, Note_off_c, 0, 60, 40
1, 191021, Note_off_c, 0, 75, 59
1, 191025, Note_on_c, 0, 48, 43
1, 191026, Note_on_c, 0, 63, 48
1, 191214, Note_on_c, 0, 60, 41
1, 191218, Note_on_c, 0, 75, 56
1, 191274, Note_off_c, 0, 48, 42
1, 191364, Note_off_c, 0, 63, 39
1, 191365, Note_off_c, 0, 60, 52
1, 191386, Note_on_c, 0, 72, 57
1, 191392, Note_off_c, 0, 75, 49
1, 191396, Note_on_c, 0, 57, 41
1, 191547, Note_off_c, 0, 57, 53
1, 191573, Note_off_c, 0, 72, 44
1, 191580, Note_on_c, 0, 73, 52
1, 191589, Note_on_c, 0, 58, 45
1, 191688, Control_c, 0, 64, 15
1, 191702, Control_c, 0, 64, 23
1, 191717, Control_c, 0, 64, 30
1, 191732, Control_c, 0, 64, 36
1, 191748, Control_c, 0, 64, 42
1, 191763, Control_c, 0, 64, 50
1, 191776, Note_off_c, 0, 58, 40
1, 191777, Control_c, 0, 64, 57
1, 191779, Note_on_c, 0, 61, 47
1, 191785, Note_on_c, 0, 46, 36
1, 191792, Control_c, 0, 64, 60
1, 191807, Control_c, 0, 64, 61
1, 191822, Note_off_c, 0, 61, 48
1, 191827, Note_off_c, 0, 73, 33
1, 191828, Note_off_c, 0, 46, 49
1, 191837, Control_c, 0, 64, 61
1, 191851, Control_c, 0, 64, 62
1, 191963, Control_c, 0, 64, 61
1, 191977, Control_c, 0, 64, 61
1, 191992, Control_c, 0, 64, 60
1, 192007, Control_c, 0, 64, 59
1, 192022, Control_c, 0, 64, 57
1, 192037, Control_c, 0, 64, 53
1, 192051, Control_c, 0, 64, 46
1, 192054, Note_on_c, 0, 72, 47
1, 192066, Control_c, 0, 64, 37
1, 192069, Note_on_c, 0, 56, 35
1, 192074, Note_on_c, 0, 63, 41
1, 192081, Control_c, 0, 64, 28
1, 192089, Note_on_c, 0, 48, 29
1, 192096, Control_c, 0, 64, 19
1, 192111, Control_c, 0, 64, 11
1, 192126, Control_c, 0, 64, 0
1, 192214, Control_c, 0, 64, 21
1, 192229, Control_c, 0, 64, 30
1, 192244, Control_c, 0, 64, 38
1, 192258, Control_c, 0, 64, 47
1, 192273, Control_c, 0, 64, 54
1, 192275, Note_off_c, 0, 48, 43
1, 192276, Note_on_c, 0, 70, 56
1, 192282, Note_on_c, 0, 55, 46
1, 192283, Note_on_c, 0, 49, 41
1, 192288, Control_c, 0, 64, 59
1, 192303, Control_c, 0, 64, 60
1, 192305, Note_off_c, 0, 72, 29
1, 192307, Note_off_c, 0, 56, 37
1, 192334, Note_off_c, 0, 55, 59
1, 192337, Note_off_c, 0, 70, 52
1, 192355, Note_off_c, 0, 63, 45
1, 192375, Note_off_c, 0, 49, 38
1, 192376, Control_c, 0, 64, 59
1, 192391, Control_c, 0, 64, 54
1, 192406, Control_c, 0, 64, 44
1, 192421, Control_c, 0, 64, 32
1, 192436, Control_c, 0, 64, 21
1, 192450, Control_c, 0, 64, 8
1, 192465, Control_c, 0, 64, 0
1, 192469, Note_on_c, 0, 63, 49
1, 192470, Note_on_c, 0, 56, 48
1, 192471, Note_on_c, 0, 72, 61
1, 192483, Note_on_c, 0, 48, 41
1, 192555, Control_c, 0, 64, 15
1, 192570, Control_c, 0, 64, 25
1, 192585, Control_c, 0, 64, 33
1, 192599, Control_c, 0, 64, 42
1, 192614, Control_c, 0, 64, 50
1, 192629, Control_c, 0, 64, 57
1, 192644, Control_c, 0, 64, 61
1, 192659, Note_on_c, 0, 70, 64
1, 192659, Control_c, 0, 64, 62
1, 192676, Note_on_c, 0, 49, 47
1, 192679, Note_on_c, 0, 55, 47
1, 192705, Note_off_c, 0, 72, 52
1, 192717, Note_off_c, 0, 56, 43
1, 192724, Note_off_c, 0, 48, 40
1, 192730, Note_off_c, 0, 55, 57
1, 192755, Control_c, 0, 64, 62
1, 192760, Note_off_c, 0, 63, 44
1, 192768, Note_off_c, 0, 70, 49
1, 192770, Control_c, 0, 64, 60
1, 192785, Control_c, 0, 64, 59
1, 192790, Note_off_c, 0, 49, 36
1, 192799, Control_c, 0, 64, 56
1, 192814, Control_c, 0, 64, 52
1, 192829, Control_c, 0, 64, 48
1, 192844, Control_c, 0, 64, 44
1, 192859, Control_c, 0, 64, 41
1, 192874, Control_c, 0, 64, 38
1, 192888, Control_c, 0, 64, 33
1, 192891, Note_on_c, 0, 63, 52
1, 192893, Note_on_c, 0, 72, 63
1, 192895, Note_on_c, 0, 56, 44
1, 192903, Control_c, 0, 64, 25
1, 192905, Note_on_c, 0, 48, 38
1, 192918, Control_c, 0, 64, 11
1, 192933, Control_c, 0, 64, 0
1, 193096, Control_c, 0, 64, 9
1, 193111, Control_c, 0, 64, 26
1, 193125, Control_c, 0, 64, 35
1, 193140, Control_c, 0, 64, 45
1, 193155, Control_c, 0, 64, 54
1, 193170, Control_c, 0, 64, 60
1, 193185, Control_c, 0, 64, 63
1, 193199, Control_c, 0, 64, 64
1, 193214, Control_c, 0, 64, 65
1, 193225, Note_off_c, 0, 63, 42
1, 193229, Control_c, 0, 64, 67
1, 193244, Control_c, 0, 64, 69
1, 193259, Control_c, 0, 64, 71
1, 193273, Control_c, 0, 64, 73
1, 193288, Control_c, 0, 64, 74
1, 193303, Control_c, 0, 64, 77
1, 193318, Control_c, 0, 64, 80
1, 193332, Control_c, 0, 64, 82
1, 193348, Control_c, 0, 64, 84
1, 193363, Control_c, 0, 64, 85
1, 193378, Control_c, 0, 64, 87
1, 193393, Control_c, 0, 64, 88
1, 193408, Control_c, 0, 64, 88
1, 193593, Control_c, 0, 64, 86
1, 193608, Control_c, 0, 64, 84
1, 193622, Control_c, 0, 64, 81
1, 193637, Control_c, 0, 64, 78
1, 193642, Note_on_c, 0, 70, 71
1, 193652, Control_c, 0, 64, 75
1, 193654, Note_on_c, 0, 63, 51
1, 193666, Note_on_c, 0, 55, 47
1, 193666, Note_on_c, 0, 49, 46
1, 193668, Control_c, 0, 64, 71
1, 193683, Control_c, 0, 64, 65
1, 193697, Control_c, 0, 64, 60
1, 193712, Control_c, 0, 64, 51
1, 193727, Control_c, 0, 64, 38
1, 193742, Control_c, 0, 64, 24
1, 193754, Note_off_c, 0, 56, 44
1, 193755, Note_off_c, 0, 48, 42
1, 193756, Control_c, 0, 64, 13
1, 193771, Control_c, 0, 64, 0
1, 193812, Note_off_c, 0, 72, 33
1, 193890, Control_c, 0, 64, 18
1, 193905, Control_c, 0, 64, 31
1, 193920, Control_c, 0, 64, 41
1, 193934, Control_c, 0, 64, 52
1, 193949, Control_c, 0, 64, 60
1, 193964, Control_c, 0, 64, 65
1, 193979, Control_c, 0, 64, 65
1, 193996, Note_off_c, 0, 55, 37
1, 194009, Control_c, 0, 64, 66
1, 194023, Control_c, 0, 64, 68
1, 194038, Control_c, 0, 64, 69
1, 194053, Control_c, 0, 64, 70
1, 194057, Note_off_c, 0, 70, 53
1, 194063, Note_off_c, 0, 49, 43
1, 194082, Control_c, 0, 64, 70
1, 194134, Note_off_c, 0, 63, 41
1, 194239, Control_c, 0, 64, 70
1, 194283, Control_c, 0, 64, 69
1, 194313, Control_c, 0, 64, 69
1, 194328, Control_c, 0, 64, 68
1, 194343, Control_c, 0, 64, 68
1, 194358, Control_c, 0, 64, 67
1, 194372, Control_c, 0, 64, 67
1, 194387, Control_c, 0, 64, 66
1, 194402, Control_c, 0, 64, 65
1, 194417, Control_c, 0, 64, 64
1, 194432, Control_c, 0, 64, 63
1, 194444, Note_on_c, 0, 75, 70
1, 194446, Control_c, 0, 64, 60
1, 194460, Note_on_c, 0, 63, 53
1, 194461, Control_c, 0, 64, 53
1, 194463, Note_on_c, 0, 56, 52
1, 194471, Note_on_c, 0, 48, 46
1, 194476, Control_c, 0, 64, 40
1, 194491, Control_c, 0, 64, 24
1, 194505, Control_c, 0, 64, 11
1, 194516, Note_off_c, 0, 63, 0
1, 194516, Note_on_c, 0, 63, 11
1, 194520, Control_c, 0, 64, 0
1, 194624, Control_c, 0, 64, 9
1, 194639, Control_c, 0, 64, 25
1, 194653, Control_c, 0, 64, 34
1, 194668, Control_c, 0, 64, 44
1, 194675, Note_on_c, 0, 74, 72
1, 194677, Note_off_c, 0, 48, 39
1, 194678, Note_on_c, 0, 68, 62
1, 194682, Note_on_c, 0, 46, 62
1, 194683, Control_c, 0, 64, 52
1, 194687, Note_on_c, 0, 53, 61
1, 194695, Note_off_c, 0, 63, 40
1, 194698, Control_c, 0, 64, 59
1, 194712, Control_c, 0, 64, 63
1, 194725, Note_off_c, 0, 56, 37
1, 194725, Note_off_c, 0, 75, 55
1, 194727, Control_c, 0, 64, 64
1, 194747, Note_off_c, 0, 68, 56
1, 194757, Note_off_c, 0, 53, 59
1, 194780, Note_off_c, 0, 74, 57
1, 194796, Note_off_c, 0, 46, 36
1, 194802, Control_c, 0, 64, 64
1, 194832, Control_c, 0, 64, 63
1, 194846, Control_c, 0, 64, 61
1, 194861, Control_c, 0, 64, 53
1, 194871, Note_on_c, 0, 75, 81
1, 194873, Note_on_c, 0, 63, 77
1, 194875, Note_on_c, 0, 56, 65
1, 194876, Control_c, 0, 64, 36
1, 194890, Note_on_c, 0, 48, 57
1, 194890, Control_c, 0, 64, 12
1, 194905, Control_c, 0, 64, 0
1, 195032, Control_c, 0, 64, 19
1, 195047, Control_c, 0, 64, 28
1, 195062, Control_c, 0, 64, 37
1, 195067, Note_on_c, 0, 74, 78
1, 195070, Note_on_c, 0, 68, 71
1, 195071, Note_on_c, 0, 46, 64
1, 195075, Note_on_c, 0, 53, 69
1, 195076, Control_c, 0, 64, 46
1, 195085, Note_off_c, 0, 48, 52
1, 195091, Control_c, 0, 64, 55
1, 195103, Note_off_c, 0, 63, 47
1, 195106, Control_c, 0, 64, 61
1, 195121, Control_c, 0, 64, 63
1, 195131, Note_off_c, 0, 56, 36
1, 195133, Note_off_c, 0, 75, 57
1, 195136, Control_c, 0, 64, 63
1, 195146, Note_off_c, 0, 68, 56
1, 195166, Control_c, 0, 64, 64
1, 195168, Note_off_c, 0, 53, 60
1, 195180, Note_off_c, 0, 46, 52
1, 195269, Control_c, 0, 64, 63
1, 195299, Control_c, 0, 64, 63
1, 195314, Control_c, 0, 64, 62
1, 195328, Control_c, 0, 64, 62
1, 195343, Control_c, 0, 64, 61
1, 195358, Control_c, 0, 64, 60
1, 195373, Control_c, 0, 64, 58
1, 195388, Control_c, 0, 64, 55
1, 195402, Control_c, 0, 64, 50
1, 195403, Note_on_c, 0, 75, 87
1, 195406, Note_on_c, 0, 63, 76
1, 195410, Note_on_c, 0, 56, 67
1, 195410, Note_on_c, 0, 68, 71
1, 195417, Note_on_c, 0, 48, 61
1, 195417, Control_c, 0, 64, 42
1, 195421, Note_on_c, 0, 51, 60
1, 195432, Control_c, 0, 64, 30
1, 195447, Control_c, 0, 64, 0
1, 195457, Note_off_c, 0, 74, 56
1, 195610, Control_c, 0, 64, 25
1, 195619, Note_off_c, 0, 56, 61
1, 195625, Control_c, 0, 64, 37
1, 195640, Control_c, 0, 64, 49
1, 195654, Control_c, 0, 64, 58
1, 195676, Control_c, 0, 64, 64
1, 195691, Control_c, 0, 64, 68
1, 195706, Control_c, 0, 64, 69
1, 195716, Note_off_c, 0, 48, 35
1, 195720, Control_c, 0, 64, 72
1, 195726, Note_off_c, 0, 51, 31
1, 195735, Control_c, 0, 64, 78
1, 195751, Control_c, 0, 64, 83
1, 195766, Control_c, 0, 64, 87
1, 195781, Control_c, 0, 64, 93
1, 195796, Control_c, 0, 64, 101
1, 195811, Control_c, 0, 64, 113
1, 195825, Control_c, 0, 64, 127
1, 195923, Note_off_c, 0, 63, 38
1, 195975, Note_off_c, 0, 75, 57
1, 195996, Note_off_c, 0, 68, 28
1, 196106, Control_c, 0, 64, 122
1, 196121, Control_c, 0, 64, 113
1, 196136, Control_c, 0, 64, 108
1, 196150, Control_c, 0, 64, 103
1, 196165, Control_c, 0, 64, 100
1, 196180, Control_c, 0, 64, 97
1, 196195, Control_c, 0, 64, 95
1, 196210, Control_c, 0, 64, 93
1, 196224, Control_c, 0, 64, 91
1, 196239, Control_c, 0, 64, 89
1, 196254, Control_c, 0, 64, 86
1, 196269, Control_c, 0, 64, 84
1, 196284, Control_c, 0, 64, 79
1, 196298, Control_c, 0, 64, 70
1, 196313, Control_c, 0, 64, 62
1, 196327, Note_on_c, 0, 62, 58
1, 196328, Control_c, 0, 64, 49
1, 196343, Control_c, 0, 64, 30
1, 196344, Note_on_c, 0, 46, 46
1, 196358, Control_c, 0, 64, 10
1, 196373, Control_c, 0, 64, 8
1, 196388, Control_c, 0, 64, 0
1, 196435, Note_on_c, 0, 68, 55
1, 196439, Note_off_c, 0, 46, 56
1, 196439, Control_c, 0, 64, 16
1, 196454, Control_c, 0, 64, 27
1, 196467, Note_on_c, 0, 48, 41
1, 196468, Control_c, 0, 64, 38
1, 196483, Control_c, 0, 64, 48
1, 196492, Note_off_c, 0, 62, 50
1, 196498, Control_c, 0, 64, 57
1, 196513, Control_c, 0, 64, 63
1, 196528, Control_c, 0, 64, 67
1, 196534, Note_off_c, 0, 48, 52
1, 196544, Control_c, 0, 64, 67
1, 196559, Control_c, 0, 64, 69
1, 196573, Note_on_c, 0, 77, 71
1, 196573, Control_c, 0, 64, 72
1, 196580, Note_on_c, 0, 46, 42
1, 196588, Control_c, 0, 64, 76
1, 196603, Control_c, 0, 64, 80
1, 196618, Control_c, 0, 64, 83
1, 196628, Note_off_c, 0, 46, 60
1, 196633, Control_c, 0, 64, 86
1, 196647, Control_c, 0, 64, 91
1, 196663, Control_c, 0, 64, 95
1, 196678, Control_c, 0, 64, 101
1, 196681, Note_on_c, 0, 48, 29
1, 196693, Control_c, 0, 64, 109
1, 196708, Control_c, 0, 64, 127
1, 196723, Note_off_c, 0, 48, 50
1, 196741, Note_on_c, 0, 46, 47
1, 196784, Note_off_c, 0, 46, 61
1, 196822, Note_on_c, 0, 48, 48
1, 196857, Note_off_c, 0, 48, 56
1, 196891, Note_on_c, 0, 46, 49
1, 196926, Note_off_c, 0, 46, 64
1, 196960, Note_on_c, 0, 48, 50
1, 197000, Note_off_c, 0, 48, 50
1, 197022, Note_on_c, 0, 46, 50
1, 197055, Note_off_c, 0, 46, 63
1, 197101, Note_on_c, 0, 48, 46
1, 197145, Note_on_c, 0, 46, 58
1, 197263, Control_c, 0, 64, 75
1, 197264, Note_off_c, 0, 48, 46
1, 197278, Control_c, 0, 64, 62
1, 197283, Note_on_c, 0, 44, 73
1, 197292, Control_c, 0, 64, 49
1, 197303, Note_off_c, 0, 77, 46
1, 197307, Control_c, 0, 64, 37
1, 197313, Note_off_c, 0, 46, 40
1, 197322, Control_c, 0, 64, 35
1, 197337, Control_c, 0, 64, 36
1, 197353, Control_c, 0, 64, 40
1, 197359, Note_off_c, 0, 44, 62
1, 197368, Control_c, 0, 64, 47
1, 197377, Note_on_c, 0, 46, 60
1, 197383, Control_c, 0, 64, 56
1, 197397, Control_c, 0, 64, 63
1, 197412, Control_c, 0, 64, 72
1, 197414, Note_off_c, 0, 68, 25
1, 197427, Control_c, 0, 64, 77
1, 197442, Control_c, 0, 64, 79
1, 197443, Note_off_c, 0, 46, 63
1, 197457, Control_c, 0, 64, 82
1, 197471, Control_c, 0, 64, 88
1, 197478, Note_on_c, 0, 44, 49
1, 197486, Control_c, 0, 64, 95
1, 197501, Control_c, 0, 64, 100
1, 197514, Note_off_c, 0, 44, 62
1, 197515, Control_c, 0, 64, 103
1, 197541, Note_on_c, 0, 62, 64
1, 197572, Note_on_c, 0, 46, 34
1, 197608, Note_off_c, 0, 46, 55
1, 197615, Note_on_c, 0, 70, 66
1, 197619, Note_on_c, 0, 44, 44
1, 197649, Control_c, 0, 64, 102
1, 197658, Note_off_c, 0, 44, 60
1, 197667, Note_off_c, 0, 62, 39
1, 197678, Control_c, 0, 64, 101
1, 197693, Control_c, 0, 64, 100
1, 197704, Note_on_c, 0, 46, 45
1, 197708, Control_c, 0, 64, 99
1, 197723, Control_c, 0, 64, 99
1, 197731, Note_off_c, 0, 46, 57
1, 197735, Note_on_c, 0, 77, 78
1, 197753, Control_c, 0, 64, 98
1, 197765, Note_on_c, 0, 44, 51
1, 197797, Control_c, 0, 64, 98
1, 197803, Note_off_c, 0, 44, 62
1, 197815, Note_on_c, 0, 46, 57
1, 197842, Control_c, 0, 64, 97
1, 197866, Note_off_c, 0, 46, 65
1, 197890, Note_on_c, 0, 44, 60
1, 197930, Note_off_c, 0, 44, 64
1, 197966, Note_on_c, 0, 46, 61
1, 197977, Poly_aftertouch_c, 0, 74, 127
1, 197997, Control_c, 0, 64, 97
1, 198007, Note_off_c, 0, 46, 56
1, 198012, Note_on_c, 0, 44, 61
1, 198012, Control_c, 0, 64, 96
1, 198027, Control_c, 0, 64, 95
1, 198042, Control_c, 0, 64, 92
1, 198057, Control_c, 0, 64, 78
1, 198071, Control_c, 0, 64, 63
1, 198086, Control_c, 0, 64, 43
1, 198088, Note_off_c, 0, 44, 57
1, 198089, Note_off_c, 0, 77, 54
1, 198101, Control_c, 0, 64, 14
1, 198115, Control_c, 0, 64, 0
1, 198125, Note_on_c, 0, 43, 79
1, 198125, Note_off_c, 0, 70, 61
1, 198131, Poly_aftertouch_c, 0, 74, 0
1, 198161, Control_c, 0, 64, 10
1, 198176, Control_c, 0, 64, 25
1, 198191, Control_c, 0, 64, 38
1, 198206, Control_c, 0, 64, 50
1, 198212, Note_off_c, 0, 43, 63
1, 198220, Control_c, 0, 64, 62
1, 198225, Note_on_c, 0, 44, 68
1, 198235, Control_c, 0, 64, 75
1, 198250, Control_c, 0, 64, 86
1, 198265, Control_c, 0, 64, 87
1, 198280, Control_c, 0, 64, 99
1, 198290, Note_off_c, 0, 44, 57
1, 198294, Control_c, 0, 64, 127
1, 198321, Note_on_c, 0, 43, 64
1, 198352, Note_off_c, 0, 43, 63
1, 198359, Note_on_c, 0, 63, 68
1, 198381, Note_on_c, 0, 44, 52
1, 198421, Note_on_c, 0, 70, 71
1, 198423, Note_off_c, 0, 44, 57
1, 198436, Note_off_c, 0, 63, 63
1, 198451, Note_on_c, 0, 43, 52
1, 198486, Note_off_c, 0, 43, 59
1, 198508, Note_on_c, 0, 44, 56
1, 198543, Note_on_c, 0, 79, 87
1, 198548, Note_off_c, 0, 44, 63
1, 198573, Note_on_c, 0, 43, 61
1, 198608, Note_off_c, 0, 43, 62
1, 198630, Note_on_c, 0, 44, 60
1, 198673, Note_off_c, 0, 44, 61
1, 198690, Note_on_c, 0, 43, 66
1, 198727, Note_off_c, 0, 43, 63
1, 198750, Note_on_c, 0, 44, 65
1, 198796, Note_off_c, 0, 44, 56
1, 198806, Note_on_c, 0, 43, 65
1, 198879, Control_c, 0, 64, 86
1, 198894, Note_off_c, 0, 79, 57
1, 198894, Control_c, 0, 64, 63
1, 198909, Control_c, 0, 64, 47
1, 198912, Note_on_c, 0, 41, 80
1, 198924, Control_c, 0, 64, 27
1, 198939, Control_c, 0, 64, 21
1, 198942, Note_off_c, 0, 70, 49
1, 198949, Note_off_c, 0, 43, 56
1, 198954, Control_c, 0, 64, 21
1, 198969, Control_c, 0, 64, 28
1, 198984, Control_c, 0, 64, 39
1, 198999, Control_c, 0, 64, 52
1, 199007, Note_on_c, 0, 43, 59
1, 199008, Note_off_c, 0, 41, 64
1, 199014, Control_c, 0, 64, 63
1, 199029, Control_c, 0, 64, 76
1, 199043, Control_c, 0, 64, 87
1, 199058, Control_c, 0, 64, 88
1, 199071, Note_off_c, 0, 43, 60
1, 199073, Control_c, 0, 64, 94
1, 199088, Control_c, 0, 64, 107
1, 199103, Control_c, 0, 64, 127
1, 199110, Note_on_c, 0, 41, 58
1, 199136, Note_on_c, 0, 65, 71
1, 199141, Note_off_c, 0, 41, 65
1, 199181, Note_on_c, 0, 43, 58
1, 199207, Note_on_c, 0, 70, 77
1, 199215, Note_off_c, 0, 43, 64
1, 199222, Note_on_c, 0, 41, 58
1, 199229, Note_off_c, 0, 65, 57
1, 199261, Note_off_c, 0, 41, 59
1, 199295, Note_on_c, 0, 43, 59
1, 199337, Note_on_c, 0, 80, 99
1, 199339, Note_off_c, 0, 43, 60
1, 199372, Note_on_c, 0, 41, 54
1, 199413, Note_off_c, 0, 41, 64
1, 199449, Note_on_c, 0, 43, 55
1, 199476, Note_off_c, 0, 43, 58
1, 199494, Note_on_c, 0, 41, 62
1, 199529, Note_off_c, 0, 41, 65
1, 199547, Note_on_c, 0, 43, 68
1, 199607, Note_on_c, 0, 41, 70
1, 199666, Note_off_c, 0, 43, 37
1, 199667, Note_off_c, 0, 70, 51
1, 199670, Note_off_c, 0, 80, 55
1, 199687, Control_c, 0, 64, 82
1, 199702, Control_c, 0, 64, 62
1, 199717, Control_c, 0, 64, 38
1, 199718, Note_on_c, 0, 39, 88
1, 199732, Control_c, 0, 64, 14
1, 199744, Note_off_c, 0, 41, 61
1, 199747, Control_c, 0, 64, 11
1, 199762, Control_c, 0, 64, 12
1, 199777, Control_c, 0, 64, 20
1, 199792, Control_c, 0, 64, 31
1, 199805, Note_off_c, 0, 39, 65
1, 199807, Control_c, 0, 64, 46
1, 199809, Note_on_c, 0, 41, 62
1, 199822, Control_c, 0, 64, 60
1, 199837, Control_c, 0, 64, 79
1, 199852, Control_c, 0, 64, 127
1, 199873, Note_off_c, 0, 41, 60
1, 199901, Note_on_c, 0, 39, 63
1, 199914, Note_on_c, 0, 67, 80
1, 199944, Note_off_c, 0, 39, 60
1, 199980, Note_on_c, 0, 70, 85
1, 199980, Note_on_c, 0, 41, 53
1, 200005, Note_off_c, 0, 41, 61
1, 200011, Note_off_c, 0, 67, 59
1, 200015, Note_on_c, 0, 39, 65
1, 200056, Note_off_c, 0, 39, 63
1, 200076, Note_off_c, 0, 70, 60
1, 200077, Note_on_c, 0, 41, 62
1, 200141, Note_off_c, 0, 41, 58
1, 200156, Note_on_c, 0, 82, 98
1, 200182, Note_on_c, 0, 39, 56
1, 200217, Note_off_c, 0, 39, 65
1, 200252, Note_on_c, 0, 41, 56
1, 200283, Note_off_c, 0, 41, 68
1, 200295, Note_on_c, 0, 39, 70
1, 200331, Note_off_c, 0, 39, 60
1, 200366, Note_on_c, 0, 41, 56
1, 200400, Note_on_c, 0, 39, 60
1, 200454, Note_off_c, 0, 41, 62
1, 200485, Note_off_c, 0, 39, 59
1, 200495, Control_c, 0, 64, 82
1, 200510, Control_c, 0, 64, 59
1, 200513, Note_on_c, 0, 37, 86
1, 200525, Control_c, 0, 64, 34
1, 200540, Control_c, 0, 64, 0
1, 200570, Control_c, 0, 64, 11
1, 200585, Note_off_c, 0, 37, 64
1, 200585, Control_c, 0, 64, 28
1, 200600, Note_on_c, 0, 39, 75
1, 200600, Control_c, 0, 64, 42
1, 200615, Control_c, 0, 64, 56
1, 200630, Control_c, 0, 64, 70
1, 200644, Control_c, 0, 64, 114
1, 200649, Note_off_c, 0, 39, 61
1, 200659, Control_c, 0, 64, 127
1, 200682, Note_on_c, 0, 37, 59
1, 200709, Note_off_c, 0, 37, 65
1, 200741, Note_on_c, 0, 39, 63
1, 200777, Note_off_c, 0, 39, 64
1, 200785, Note_on_c, 0, 37, 67
1, 200817, Note_off_c, 0, 37, 64
1, 200846, Note_on_c, 0, 39, 56
1, 200880, Note_off_c, 0, 39, 64
1, 200881, Note_on_c, 0, 37, 71
1, 200920, Note_on_c, 0, 85, 74
1, 200921, Note_off_c, 0, 85, 127
1, 200926, Note_off_c, 0, 37, 61
1, 200929, Note_on_c, 0, 84, 97
1, 200966, Note_on_c, 0, 39, 31
1, 200971, Note_off_c, 0, 82, 54
1, 200987, Note_on_c, 0, 37, 63
1, 201005, Note_off_c, 0, 39, 0
1, 201016, Note_on_c, 0, 39, 50
1, 201017, Note_off_c, 0, 37, 62
1, 201056, Note_off_c, 0, 39, 63
1, 201057, Note_on_c, 0, 37, 62
1, 201087, Note_off_c, 0, 37, 60
1, 201108, Note_on_c, 0, 39, 61
1, 201145, Note_off_c, 0, 84, 59
1, 201155, Note_off_c, 0, 39, 66
1, 201157, Note_on_c, 0, 37, 70
1, 201187, Note_off_c, 0, 37, 62
1, 201219, Note_on_c, 0, 39, 54
1, 201253, Note_off_c, 0, 39, 65
1, 201256, Note_on_c, 0, 37, 72
1, 201287, Note_off_c, 0, 37, 58
1, 201291, Note_on_c, 0, 85, 94
1, 201351, Note_on_c, 0, 37, 68
1, 201382, Note_off_c, 0, 37, 62
1, 201390, Poly_aftertouch_c, 0, 39, 127
1, 201394, Note_on_c, 0, 39, 3
1, 201432, Note_off_c, 0, 39, 62
1, 201441, Note_on_c, 0, 37, 66
1, 201472, Note_off_c, 0, 37, 62
1, 201489, Note_on_c, 0, 39, 59
1, 201526, Note_off_c, 0, 39, 63
1, 201533, Note_on_c, 0, 37, 72
1, 201554, Note_off_c, 0, 85, 48
1, 201565, Note_off_c, 0, 37, 61
1, 201588, Note_on_c, 0, 39, 66
1, 201622, Note_off_c, 0, 39, 65
1, 201626, Note_on_c, 0, 37, 73
1, 201663, Note_off_c, 0, 37, 60
1, 201697, Note_on_c, 0, 86, 100
1, 201707, Note_on_c, 0, 39, 57
1, 201727, Note_off_c, 0, 39, 67
1, 201735, Note_on_c, 0, 37, 73
1, 201761, Note_off_c, 0, 37, 64
1, 201798, Note_on_c, 0, 39, 52
1, 201814, Note_on_c, 0, 37, 74
1, 201828, Note_off_c, 0, 39, 55
1, 201863, Note_off_c, 0, 37, 63
1, 201873, Note_on_c, 0, 39, 67
1, 201882, Note_off_c, 0, 86, 58
1, 201917, Note_on_c, 0, 37, 66
1, 201920, Note_off_c, 0, 39, 63
1, 201948, Note_off_c, 0, 37, 61
1, 201976, Note_on_c, 0, 39, 56
1, 202010, Note_off_c, 0, 39, 65
1, 202014, Note_on_c, 0, 37, 67
1, 202048, Note_off_c, 0, 37, 59
1, 202077, Note_on_c, 0, 39, 67
1, 202110, Note_off_c, 0, 39, 66
1, 202120, Note_on_c, 0, 37, 70
1, 202166, Note_off_c, 0, 37, 57
1, 202190, Note_on_c, 0, 39, 68
1, 202222, Note_off_c, 0, 39, 63
1, 202236, Note_on_c, 0, 37, 63
1, 202260, Note_on_c, 0, 87, 103
1, 202269, Note_off_c, 0, 37, 60
1, 202299, Note_on_c, 0, 39, 61
1, 202321, Note_off_c, 0, 39, 65
1, 202333, Note_on_c, 0, 37, 74
1, 202379, Note_off_c, 0, 37, 63
1, 202390, Note_on_c, 0, 39, 67
1, 202460, Note_on_c, 0, 37, 53
1, 202585, Note_off_c, 0, 39, 36
1, 202590, Note_on_c, 0, 36, 83
1, 202606, Note_off_c, 0, 37, 59
1, 202638, Control_c, 0, 64, 75
1, 202653, Control_c, 0, 64, 59
1, 202668, Control_c, 0, 64, 35
1, 202683, Control_c, 0, 64, 0
1, 202737, Note_on_c, 0, 37, 87
1, 202776, Note_off_c, 0, 36, 61
1, 202801, Control_c, 0, 64, 23
1, 202816, Control_c, 0, 64, 32
1, 202830, Control_c, 0, 64, 39
1, 202845, Control_c, 0, 64, 47
1, 202860, Control_c, 0, 64, 56
1, 202863, Note_on_c, 0, 39, 82
1, 202875, Control_c, 0, 64, 62
1, 202876, Note_off_c, 0, 37, 63
1, 202890, Control_c, 0, 64, 64
1, 202904, Control_c, 0, 64, 64
1, 202950, Control_c, 0, 64, 64
1, 202970, Note_on_c, 0, 37, 81
1, 202975, Note_off_c, 0, 39, 65
1, 202980, Control_c, 0, 64, 63
1, 202995, Control_c, 0, 64, 63
1, 203009, Control_c, 0, 64, 62
1, 203024, Control_c, 0, 64, 61
1, 203039, Control_c, 0, 64, 60
1, 203054, Control_c, 0, 64, 59
1, 203065, Note_on_c, 0, 36, 76
1, 203069, Control_c, 0, 64, 58
1, 203071, Note_off_c, 0, 37, 62
1, 203083, Control_c, 0, 64, 56
1, 203098, Control_c, 0, 64, 55
1, 203113, Control_c, 0, 64, 54
1, 203128, Control_c, 0, 64, 54
1, 203142, Control_c, 0, 64, 53
1, 203145, Note_on_c, 0, 34, 80
1, 203165, Control_c, 0, 64, 51
1, 203180, Control_c, 0, 64, 50
1, 203195, Note_off_c, 0, 36, 59
1, 203195, Control_c, 0, 64, 48
1, 203209, Control_c, 0, 64, 45
1, 203224, Control_c, 0, 64, 41
1, 203239, Control_c, 0, 64, 34
1, 203254, Control_c, 0, 64, 18
1, 203268, Control_c, 0, 64, 0
1, 203283, Note_on_c, 0, 32, 79
1, 203321, Note_off_c, 0, 34, 63
1, 203336, Note_off_c, 0, 87, 55
1, 203460, Control_c, 0, 64, 24
1, 203469, Note_off_c, 0, 32, 62
1, 203475, Control_c, 0, 64, 37
1, 203490, Control_c, 0, 64, 48
1, 203505, Control_c, 0, 64, 58
1, 203520, Control_c, 0, 64, 66
1, 203534, Control_c, 0, 64, 75
1, 203549, Control_c, 0, 64, 79
1, 203564, Control_c, 0, 64, 84
1, 203579, Control_c, 0, 64, 94
1, 203582, Note_on_c, 0, 48, 68
1, 203589, Note_on_c, 0, 44, 66
1, 203594, Control_c, 0, 64, 109
1, 203608, Control_c, 0, 64, 127
1, 203662, Note_off_c, 0, 48, 54
1, 203674, Note_off_c, 0, 44, 55
1, 203807, Note_on_c, 0, 60, 78
1, 203832, Note_on_c, 0, 44, 43
1, 203842, Note_on_c, 0, 48, 40
1, 203897, Note_off_c, 0, 48, 44
1, 203900, Note_off_c, 0, 44, 46
1, 203985, Note_off_c, 0, 60, 63
1, 204008, Note_on_c, 0, 48, 57
1, 204022, Note_on_c, 0, 43, 54
1, 204034, Note_on_c, 0, 44, 33
1, 204066, Note_off_c, 0, 48, 55
1, 204067, Note_off_c, 0, 44, 52
1, 204072, Note_off_c, 0, 43, 57
1, 204120, Control_c, 0, 64, 114
1, 204135, Control_c, 0, 64, 79
1, 204150, Control_c, 0, 64, 62
1, 204165, Control_c, 0, 64, 45
1, 204179, Note_on_c, 0, 43, 54
1, 204180, Control_c, 0, 64, 21
1, 204191, Note_on_c, 0, 48, 61
1, 204195, Control_c, 0, 64, 9
1, 204207, Note_on_c, 0, 44, 32
1, 204239, Control_c, 0, 64, 12
1, 204254, Control_c, 0, 64, 21
1, 204266, Note_off_c, 0, 44, 43
1, 204269, Control_c, 0, 64, 30
1, 204270, Note_off_c, 0, 48, 55
1, 204281, Note_off_c, 0, 43, 59
1, 204283, Control_c, 0, 64, 39
1, 204298, Control_c, 0, 64, 50
1, 204313, Control_c, 0, 64, 57
1, 204328, Control_c, 0, 64, 61
1, 204343, Control_c, 0, 64, 62
1, 204355, Note_on_c, 0, 48, 54
1, 204359, Note_on_c, 0, 41, 59
1, 204388, Note_on_c, 0, 44, 42
1, 204416, Note_off_c, 0, 48, 55
1, 204421, Note_off_c, 0, 44, 50
1, 204426, Note_off_c, 0, 41, 55
1, 204476, Control_c, 0, 64, 62
1, 204505, Control_c, 0, 64, 61
1, 204520, Control_c, 0, 64, 61
1, 204522, Note_on_c, 0, 41, 55
1, 204525, Note_on_c, 0, 44, 49
1, 204534, Note_on_c, 0, 48, 57
1, 204551, Control_c, 0, 64, 60
1, 204561, Note_off_c, 0, 48, 61
1, 204563, Note_off_c, 0, 41, 63
1, 204566, Control_c, 0, 64, 60
1, 204580, Control_c, 0, 64, 59
1, 204585, Note_off_c, 0, 44, 53
1, 204595, Control_c, 0, 64, 59
1, 204610, Control_c, 0, 64, 58
1, 204625, Control_c, 0, 64, 57
1, 204662, Control_c, 0, 64, 57
1, 204677, Control_c, 0, 64, 56
1, 204692, Control_c, 0, 64, 56
1, 204693, Note_on_c, 0, 60, 79
1, 204706, Control_c, 0, 64, 55
1, 204714, Note_on_c, 0, 48, 49
1, 204717, Note_on_c, 0, 44, 48
1, 204718, Note_on_c, 0, 39, 55
1, 204751, Control_c, 0, 64, 55
1, 204764, Note_off_c, 0, 39, 62
1, 204771, Note_off_c, 0, 44, 51
1, 204773, Note_off_c, 0, 48, 43
1, 204780, Control_c, 0, 64, 54
1, 204825, Control_c, 0, 64, 54
1, 204854, Control_c, 0, 64, 52
1, 204869, Control_c, 0, 64, 49
1, 204884, Control_c, 0, 64, 41
1, 204899, Control_c, 0, 64, 29
1, 204913, Note_on_c, 0, 61, 72
1, 204913, Control_c, 0, 64, 13
1, 204928, Control_c, 0, 64, 0
1, 204936, Note_on_c, 0, 39, 45
1, 204936, Note_on_c, 0, 48, 44
1, 204948, Note_on_c, 0, 44, 35
1, 204982, Note_off_c, 0, 60, 60
1, 205000, Note_off_c, 0, 44, 56
1, 205006, Note_off_c, 0, 48, 54
1, 205013, Note_off_c, 0, 39, 59
1, 205023, Note_off_c, 0, 61, 63
1, 205032, Control_c, 0, 64, 19
1, 205047, Control_c, 0, 64, 30
1, 205062, Control_c, 0, 64, 38
1, 205077, Control_c, 0, 64, 46
1, 205092, Control_c, 0, 64, 55
1, 205093, Note_on_c, 0, 63, 89
1, 205106, Control_c, 0, 64, 62
1, 205107, Note_on_c, 0, 37, 55
1, 205114, Note_on_c, 0, 48, 53
1, 205121, Note_on_c, 0, 44, 42
1, 205121, Control_c, 0, 64, 66
1, 205136, Control_c, 0, 64, 67
1, 205162, Note_off_c, 0, 44, 58
1, 205163, Note_off_c, 0, 48, 57
1, 205180, Control_c, 0, 64, 68
1, 205182, Note_off_c, 0, 37, 52
1, 205195, Control_c, 0, 64, 68
1, 205210, Control_c, 0, 64, 69
1, 205224, Control_c, 0, 64, 72
1, 205239, Control_c, 0, 64, 75
1, 205254, Note_on_c, 0, 65, 88
1, 205254, Control_c, 0, 64, 79
1, 205257, Note_off_c, 0, 63, 58
1, 205269, Control_c, 0, 64, 82
1, 205271, Note_on_c, 0, 48, 57
1, 205273, Note_on_c, 0, 44, 48
1, 205274, Note_on_c, 0, 36, 58
1, 205284, Control_c, 0, 64, 85
1, 205299, Control_c, 0, 64, 91
1, 205313, Control_c, 0, 64, 95
1, 205317, Note_off_c, 0, 48, 60
1, 205319, Note_off_c, 0, 44, 58
1, 205325, Note_off_c, 0, 36, 58
1, 205329, Control_c, 0, 64, 100
1, 205344, Control_c, 0, 64, 108
1, 205359, Control_c, 0, 64, 115
1, 205366, Note_off_c, 0, 65, 60
1, 205374, Control_c, 0, 64, 127
1, 205432, Note_on_c, 0, 48, 59
1, 205432, Note_on_c, 0, 67, 94
1, 205438, Note_on_c, 0, 36, 56
1, 205438, Note_on_c, 0, 44, 51
1, 205475, Note_off_c, 0, 48, 53
1, 205479, Note_off_c, 0, 44, 56
1, 205481, Note_off_c, 0, 36, 59
1, 205559, Control_c, 0, 64, 119
1, 205574, Control_c, 0, 64, 110
1, 205589, Control_c, 0, 64, 105
1, 205603, Control_c, 0, 64, 101
1, 205618, Control_c, 0, 64, 98
1, 205633, Control_c, 0, 64, 93
1, 205648, Control_c, 0, 64, 86
1, 205655, Note_on_c, 0, 36, 49
1, 205661, Note_on_c, 0, 68, 87
1, 205662, Control_c, 0, 64, 73
1, 205677, Control_c, 0, 64, 61
1, 205692, Control_c, 0, 64, 44
1, 205707, Control_c, 0, 64, 15
1, 205722, Control_c, 0, 64, 0
1, 205723, Note_off_c, 0, 67, 52
1, 205796, Control_c, 0, 64, 22
1, 205810, Control_c, 0, 64, 33
1, 205825, Control_c, 0, 64, 46
1, 205840, Control_c, 0, 64, 57
1, 205855, Control_c, 0, 64, 66
1, 205870, Control_c, 0, 64, 74
1, 205885, Control_c, 0, 64, 76
1, 205886, Note_on_c, 0, 44, 57
1, 205891, Note_on_c, 0, 48, 57
1, 205900, Control_c, 0, 64, 76
1, 205915, Control_c, 0, 64, 78
1, 205925, Note_off_c, 0, 36, 32
1, 205929, Control_c, 0, 64, 82
1, 205939, Note_off_c, 0, 44, 56
1, 205944, Control_c, 0, 64, 86
1, 205949, Note_off_c, 0, 48, 56
1, 205959, Control_c, 0, 64, 89
1, 205974, Control_c, 0, 64, 90
1, 205989, Control_c, 0, 64, 91
1, 206018, Control_c, 0, 64, 91
1, 206062, Control_c, 0, 64, 85
1, 206077, Control_c, 0, 64, 70
1, 206082, Note_on_c, 0, 63, 75
1, 206092, Control_c, 0, 64, 57
1, 206107, Note_on_c, 0, 44, 45
1, 206107, Control_c, 0, 64, 36
1, 206108, Note_on_c, 0, 48, 46
1, 206123, Control_c, 0, 64, 23
1, 206140, Note_off_c, 0, 68, 14
1, 206169, Note_off_c, 0, 48, 59
1, 206174, Control_c, 0, 64, 26
1, 206187, Note_off_c, 0, 44, 54
1, 206189, Control_c, 0, 64, 33
1, 206204, Control_c, 0, 64, 42
1, 206219, Control_c, 0, 64, 53
1, 206234, Control_c, 0, 64, 62
1, 206249, Control_c, 0, 64, 71
1, 206263, Control_c, 0, 64, 75
1, 206270, Note_on_c, 0, 43, 60
1, 206282, Note_on_c, 0, 48, 52
1, 206301, Note_off_c, 0, 63, 38
1, 206308, Control_c, 0, 64, 76
1, 206323, Control_c, 0, 64, 76
1, 206324, Note_off_c, 0, 48, 58
1, 206331, Note_off_c, 0, 43, 55
1, 206338, Control_c, 0, 64, 77
1, 206396, Control_c, 0, 64, 73
1, 206410, Control_c, 0, 64, 63
1, 206421, Note_on_c, 0, 48, 62
1, 206425, Control_c, 0, 64, 47
1, 206426, Note_on_c, 0, 43, 66
1, 206440, Control_c, 0, 64, 21
1, 206455, Control_c, 0, 64, 0
1, 206499, Control_c, 0, 64, 8
1, 206503, Note_off_c, 0, 48, 54
1, 206514, Note_off_c, 0, 43, 60
1, 206514, Control_c, 0, 64, 21
1, 206529, Control_c, 0, 64, 31
1, 206544, Control_c, 0, 64, 39
1, 206559, Control_c, 0, 64, 48
1, 206573, Control_c, 0, 64, 56
1, 206584, Note_on_c, 0, 48, 61
1, 206587, Note_on_c, 0, 41, 60
1, 206588, Control_c, 0, 64, 62
1, 206603, Control_c, 0, 64, 64
1, 206607, Note_on_c, 0, 44, 48
1, 206618, Control_c, 0, 64, 64
1, 206642, Note_off_c, 0, 44, 55
1, 206657, Note_off_c, 0, 48, 60
1, 206659, Note_off_c, 0, 41, 58
1, 206663, Control_c, 0, 64, 65
1, 206737, Control_c, 0, 64, 64
1, 206737, Note_on_c, 0, 41, 59
1, 206742, Note_on_c, 0, 44, 61
1, 206746, Note_on_c, 0, 48, 68
1, 206766, Control_c, 0, 64, 64
1, 206781, Control_c, 0, 64, 63
1, 206788, Note_off_c, 0, 41, 60
1, 206795, Control_c, 0, 64, 63
1, 206796, Note_off_c, 0, 48, 49
1, 206810, Control_c, 0, 64, 62
1, 206821, Note_off_c, 0, 44, 52
1, 206840, Control_c, 0, 64, 62
1, 206916, Note_on_c, 0, 67, 85
1, 206937, Control_c, 0, 64, 61
1, 206945, Note_on_c, 0, 48, 57
1, 206946, Note_on_c, 0, 39, 56
1, 206952, Control_c, 0, 64, 59
1, 206955, Note_on_c, 0, 44, 48
1, 206967, Control_c, 0, 64, 52
1, 206982, Control_c, 0, 64, 33
1, 206995, Note_off_c, 0, 44, 61
1, 206997, Control_c, 0, 64, 19
1, 207000, Note_off_c, 0, 48, 53
1, 207002, Note_off_c, 0, 39, 61
1, 207012, Control_c, 0, 64, 18
1, 207027, Control_c, 0, 64, 19
1, 207041, Control_c, 0, 64, 22
1, 207056, Control_c, 0, 64, 28
1, 207071, Control_c, 0, 64, 37
1, 207086, Control_c, 0, 64, 46
1, 207093, Note_on_c, 0, 68, 83
1, 207097, Note_on_c, 0, 48, 56
1, 207101, Control_c, 0, 64, 54
1, 207105, Note_on_c, 0, 44, 55
1, 207107, Note_on_c, 0, 39, 65
1, 207115, Control_c, 0, 64, 60
1, 207130, Control_c, 0, 64, 62
1, 207146, Control_c, 0, 64, 60
1, 207153, Note_off_c, 0, 44, 55
1, 207156, Note_off_c, 0, 67, 57
1, 207159, Note_off_c, 0, 48, 55
1, 207161, Note_off_c, 0, 39, 65
1, 207161, Control_c, 0, 64, 58
1, 207175, Control_c, 0, 64, 56
1, 207190, Control_c, 0, 64, 56
1, 207191, Note_off_c, 0, 68, 58
1, 207205, Control_c, 0, 64, 58
1, 207220, Control_c, 0, 64, 60
1, 207234, Control_c, 0, 64, 62
1, 207249, Control_c, 0, 64, 63
1, 207253, Note_on_c, 0, 70, 93
1, 207262, Note_on_c, 0, 48, 65
1, 207262, Note_on_c, 0, 37, 65
1, 207264, Note_on_c, 0, 44, 54
1, 207279, Control_c, 0, 64, 63
1, 207294, Control_c, 0, 64, 64
1, 207320, Note_off_c, 0, 48, 57
1, 207329, Note_off_c, 0, 44, 48
1, 207352, Note_off_c, 0, 37, 56
1, 207418, Note_on_c, 0, 72, 96
1, 207426, Note_off_c, 0, 70, 59
1, 207433, Note_on_c, 0, 48, 71
1, 207435, Note_on_c, 0, 36, 66
1, 207438, Note_on_c, 0, 44, 62
1, 207471, Control_c, 0, 64, 63
1, 207481, Note_off_c, 0, 44, 57
1, 207486, Note_off_c, 0, 48, 60
1, 207490, Note_off_c, 0, 36, 60
1, 207506, Note_off_c, 0, 72, 51
1, 207515, Control_c, 0, 64, 63
1, 207587, Note_on_c, 0, 73, 94
1, 207595, Note_on_c, 0, 48, 73
1, 207596, Note_on_c, 0, 44, 63
1, 207602, Note_on_c, 0, 36, 68
1, 207644, Note_off_c, 0, 44, 56
1, 207646, Note_off_c, 0, 36, 64
1, 207656, Note_off_c, 0, 48, 62
1, 207731, Control_c, 0, 64, 62
1, 207761, Control_c, 0, 64, 61
1, 207776, Control_c, 0, 64, 60
1, 207791, Control_c, 0, 64, 54
1, 207805, Control_c, 0, 64, 42
1, 207811, Note_on_c, 0, 36, 68
1, 207820, Control_c, 0, 64, 19
1, 207828, Note_on_c, 0, 75, 91
1, 207835, Control_c, 0, 64, 0
1, 207868, Note_off_c, 0, 73, 62
1, 207924, Control_c, 0, 64, 20
1, 207939, Control_c, 0, 64, 35
1, 207954, Control_c, 0, 64, 47
1, 207969, Control_c, 0, 64, 58
1, 207983, Control_c, 0, 64, 66
1, 207998, Note_off_c, 0, 75, 60
1, 207998, Control_c, 0, 64, 69
1, 208028, Control_c, 0, 64, 70
1, 208029, Note_on_c, 0, 48, 72
1, 208031, Note_on_c, 0, 44, 68
1, 208043, Control_c, 0, 64, 71
1, 208050, Note_off_c, 0, 36, 47
1, 208057, Control_c, 0, 64, 74
1, 208072, Control_c, 0, 64, 76
1, 208085, Note_off_c, 0, 44, 56
1, 208085, Note_off_c, 0, 48, 60
1, 208087, Control_c, 0, 64, 77
1, 208102, Control_c, 0, 64, 78
1, 208117, Control_c, 0, 64, 79
1, 208146, Control_c, 0, 64, 80
1, 208220, Control_c, 0, 64, 79
1, 208225, Note_on_c, 0, 68, 92
1, 208235, Control_c, 0, 64, 78
1, 208247, Note_on_c, 0, 44, 59
1, 208249, Control_c, 0, 64, 78
1, 208252, Note_on_c, 0, 48, 60
1, 208264, Control_c, 0, 64, 77
1, 208294, Control_c, 0, 64, 77
1, 208305, Note_off_c, 0, 48, 58
1, 208315, Note_off_c, 0, 44, 57
1, 208339, Note_off_c, 0, 68, 54
1, 208353, Control_c, 0, 64, 76
1, 208401, Note_on_c, 0, 43, 72
1, 208401, Note_on_c, 0, 48, 69
1, 208424, Note_on_c, 0, 44, 42
1, 208447, Note_off_c, 0, 44, 59
1, 208465, Note_off_c, 0, 43, 61
1, 208465, Note_off_c, 0, 48, 62
1, 208540, Control_c, 0, 64, 71
1, 208552, Note_on_c, 0, 43, 78
1, 208553, Note_on_c, 0, 48, 76
1, 208554, Control_c, 0, 64, 61
1, 208568, Note_on_c, 0, 44, 48
1, 208569, Control_c, 0, 64, 44
1, 208584, Control_c, 0, 64, 26
1, 208599, Control_c, 0, 64, 23
1, 208614, Control_c, 0, 64, 22
1, 208623, Note_off_c, 0, 44, 48
1, 208628, Control_c, 0, 64, 22
1, 208642, Note_off_c, 0, 43, 61
1, 208643, Control_c, 0, 64, 22
1, 208648, Note_off_c, 0, 48, 61
1, 208658, Control_c, 0, 64, 27
1, 208672, Control_c, 0, 64, 36
1, 208687, Control_c, 0, 64, 48
1, 208702, Control_c, 0, 64, 58
1, 208708, Note_on_c, 0, 48, 69
1, 208710, Note_on_c, 0, 41, 72
1, 208717, Control_c, 0, 64, 65
1, 208727, Note_on_c, 0, 44, 67
1, 208732, Control_c, 0, 64, 67
1, 208747, Control_c, 0, 64, 68
1, 208761, Control_c, 0, 64, 68
1, 208773, Note_off_c, 0, 44, 55
1, 208776, Control_c, 0, 64, 69
1, 208785, Note_off_c, 0, 48, 60
1, 208786, Note_off_c, 0, 41, 63
1, 208851, Control_c, 0, 64, 68
1, 208866, Control_c, 0, 64, 68
1, 208869, Note_on_c, 0, 48, 81
1, 208872, Note_on_c, 0, 41, 74
1, 208877, Note_on_c, 0, 44, 70
1, 208880, Control_c, 0, 64, 67
1, 208910, Control_c, 0, 64, 67
1, 208924, Note_off_c, 0, 41, 64
1, 208945, Note_off_c, 0, 48, 57
1, 208947, Note_off_c, 0, 44, 58
1, 209036, Note_on_c, 0, 80, 94
1, 209043, Control_c, 0, 64, 66
1, 209053, Note_on_c, 0, 48, 62
1, 209054, Note_on_c, 0, 39, 62
1, 209056, Note_on_c, 0, 44, 57
1, 209116, Note_off_c, 0, 48, 54
1, 209119, Note_off_c, 0, 39, 60
1, 209130, Note_off_c, 0, 44, 55
1, 209132, Control_c, 0, 64, 66
1, 209154, Control_c, 0, 64, 65
1, 209169, Control_c, 0, 64, 58
1, 209184, Control_c, 0, 64, 41
1, 209199, Control_c, 0, 64, 0
1, 209218, Note_on_c, 0, 82, 97
1, 209223, Note_on_c, 0, 48, 69
1, 209225, Note_on_c, 0, 44, 62
1, 209229, Note_on_c, 0, 39, 72
1, 209280, Note_off_c, 0, 80, 63
1, 209287, Control_c, 0, 64, 29
1, 209298, Note_off_c, 0, 48, 60
1, 209302, Control_c, 0, 64, 43
1, 209306, Note_off_c, 0, 39, 63
1, 209310, Note_off_c, 0, 44, 60
1, 209317, Control_c, 0, 64, 55
1, 209325, Note_off_c, 0, 82, 63
1, 209333, Control_c, 0, 64, 63
1, 209348, Control_c, 0, 64, 64
1, 209377, Control_c, 0, 64, 66
1, 209392, Control_c, 0, 64, 67
1, 209396, Note_on_c, 0, 84, 99
1, 209405, Note_on_c, 0, 48, 72
1, 209407, Control_c, 0, 64, 69
1, 209408, Note_on_c, 0, 39, 72
1, 209410, Note_on_c, 0, 44, 66
1, 209437, Control_c, 0, 64, 69
1, 209480, Note_off_c, 0, 48, 57
1, 209481, Control_c, 0, 64, 69
1, 209505, Note_off_c, 0, 44, 55
1, 209507, Note_off_c, 0, 39, 63
1, 209510, Control_c, 0, 64, 67
1, 209525, Control_c, 0, 64, 62
1, 209540, Control_c, 0, 64, 50
1, 209555, Control_c, 0, 64, 21
1, 209569, Control_c, 0, 64, 0
1, 209571, Note_on_c, 0, 85, 97
1, 209586, Note_on_c, 0, 37, 72
1, 209587, Note_on_c, 0, 48, 76
1, 209590, Note_on_c, 0, 44, 62
1, 209635, Note_off_c, 0, 84, 60
1, 209659, Control_c, 0, 64, 30
1, 209670, Note_off_c, 0, 48, 61
1, 209674, Control_c, 0, 64, 44
1, 209689, Control_c, 0, 64, 56
1, 209690, Note_off_c, 0, 44, 59
1, 209694, Note_off_c, 0, 85, 64
1, 209697, Note_off_c, 0, 37, 61
1, 209703, Control_c, 0, 64, 64
1, 209718, Control_c, 0, 64, 65
1, 209763, Control_c, 0, 64, 65
1, 209775, Note_on_c, 0, 87, 103
1, 209775, Note_on_c, 0, 48, 83
1, 209777, Control_c, 0, 64, 66
1, 209780, Note_on_c, 0, 36, 78
1, 209786, Note_on_c, 0, 44, 74
1, 209792, Control_c, 0, 64, 67
1, 209807, Control_c, 0, 64, 68
1, 209835, Note_off_c, 0, 36, 61
1, 209836, Note_off_c, 0, 48, 65
1, 209836, Control_c, 0, 64, 68
1, 209870, Note_off_c, 0, 44, 58
1, 209933, Control_c, 0, 64, 68
1, 209948, Control_c, 0, 64, 67
1, 209963, Control_c, 0, 64, 66
1, 209977, Control_c, 0, 64, 66
1, 209992, Control_c, 0, 64, 65
1, 210007, Control_c, 0, 64, 64
1, 210022, Control_c, 0, 64, 64
1, 210036, Control_c, 0, 64, 63
1, 210066, Control_c, 0, 64, 63
1, 210081, Control_c, 0, 64, 62
1, 210096, Control_c, 0, 64, 61
1, 210110, Control_c, 0, 64, 60
1, 210126, Control_c, 0, 64, 58
1, 210142, Control_c, 0, 64, 54
1, 210143, Note_on_c, 0, 89, 97
1, 210152, Note_on_c, 0, 46, 78
1, 210153, Note_on_c, 0, 44, 66
1, 210157, Control_c, 0, 64, 49
1, 210158, Note_on_c, 0, 37, 64
1, 210171, Control_c, 0, 64, 41
1, 210186, Control_c, 0, 64, 29
1, 210201, Control_c, 0, 64, 12
1, 210215, Note_off_c, 0, 87, 52
1, 210216, Control_c, 0, 64, 0
1, 210438, Control_c, 0, 64, 15
1, 210452, Control_c, 0, 64, 26
1, 210467, Control_c, 0, 64, 34
1, 210482, Control_c, 0, 64, 42
1, 210497, Control_c, 0, 64, 50
1, 210498, Note_off_c, 0, 37, 51
1, 210512, Control_c, 0, 64, 58
1, 210526, Control_c, 0, 64, 62
1, 210541, Control_c, 0, 64, 64
1, 210556, Control_c, 0, 64, 66
1, 210571, Control_c, 0, 64, 68
1, 210586, Control_c, 0, 64, 70
1, 210601, Control_c, 0, 64, 73
1, 210616, Control_c, 0, 64, 75
1, 210622, Note_off_c, 0, 44, 37
1, 210630, Control_c, 0, 64, 76
1, 210647, Note_off_c, 0, 46, 41
1, 210652, Control_c, 0, 64, 77
1, 210667, Control_c, 0, 64, 78
1, 210674, Note_off_c, 0, 89, 52
1, 210682, Control_c, 0, 64, 79
1, 210697, Control_c, 0, 64, 80
1, 210712, Control_c, 0, 64, 80
1, 210845, Control_c, 0, 64, 80
1, 210860, Control_c, 0, 64, 79
1, 210875, Control_c, 0, 64, 79
1, 210889, Control_c, 0, 64, 78
1, 210904, Control_c, 0, 64, 77
1, 210919, Control_c, 0, 64, 76
1, 210935, Control_c, 0, 64, 75
1, 210949, Control_c, 0, 64, 74
1, 210964, Control_c, 0, 64, 74
1, 210979, Control_c, 0, 64, 73
1, 210994, Control_c, 0, 64, 73
1, 211009, Control_c, 0, 64, 72
1, 211023, Control_c, 0, 64, 72
1, 211038, Control_c, 0, 64, 71
1, 211068, Control_c, 0, 64, 71
1, 211082, Control_c, 0, 64, 70
1, 211112, Control_c, 0, 64, 70
1, 211230, Control_c, 0, 64, 69
1, 211260, Control_c, 0, 64, 69
1, 211274, Control_c, 0, 64, 68
1, 211289, Control_c, 0, 64, 68
1, 211304, Control_c, 0, 64, 67
1, 211319, Control_c, 0, 64, 66
1, 211334, Control_c, 0, 64, 65
1, 211349, Control_c, 0, 64, 64
1, 211364, Control_c, 0, 64, 63
1, 211379, Control_c, 0, 64, 62
1, 211400, Control_c, 0, 64, 60
1, 211415, Control_c, 0, 64, 58
1, 211430, Control_c, 0, 64, 55
1, 211445, Control_c, 0, 64, 53
1, 211460, Control_c, 0, 64, 51
1, 211474, Control_c, 0, 64, 49
1, 211489, Control_c, 0, 64, 47
1, 211504, Control_c, 0, 64, 46
1, 211519, Control_c, 0, 64, 46
1, 211534, Control_c, 0, 64, 45
1, 211549, Control_c, 0, 64, 44
1, 211564, Control_c, 0, 64, 43
1, 211578, Control_c, 0, 64, 42
1, 211593, Control_c, 0, 64, 41
1, 211608, Control_c, 0, 64, 39
1, 211623, Control_c, 0, 64, 34
1, 211638, Control_c, 0, 64, 27
1, 211653, Control_c, 0, 64, 17
1, 211667, Control_c, 0, 64, 0
1, 211817, Control_c, 0, 64, 18
1, 211831, Control_c, 0, 64, 27
1, 211846, Control_c, 0, 64, 35
1, 211861, Control_c, 0, 64, 42
1, 211876, Control_c, 0, 64, 49
1, 211878, Note_on_c, 0, 70, 53
1, 211889, Note_on_c, 0, 50, 36
1, 211891, Note_on_c, 0, 65, 45
1, 211891, Control_c, 0, 64, 55
1, 211891, Note_on_c, 0, 56, 41
1, 211905, Control_c, 0, 64, 58
1, 211920, Control_c, 0, 64, 59
1, 212009, Control_c, 0, 64, 59
1, 212023, Control_c, 0, 64, 58
1, 212038, Control_c, 0, 64, 57
1, 212053, Control_c, 0, 64, 55
1, 212068, Control_c, 0, 64, 53
1, 212083, Control_c, 0, 64, 50
1, 212094, Note_off_c, 0, 65, 39
1, 212097, Control_c, 0, 64, 48
1, 212100, Note_off_c, 0, 56, 38
1, 212112, Control_c, 0, 64, 45
1, 212127, Control_c, 0, 64, 42
1, 212132, Note_on_c, 0, 75, 54
1, 212150, Control_c, 0, 64, 39
1, 212157, Note_on_c, 0, 55, 32
1, 212163, Note_on_c, 0, 67, 33
1, 212165, Control_c, 0, 64, 35
1, 212171, Note_off_c, 0, 70, 30
1, 212179, Control_c, 0, 64, 30
1, 212183, Note_on_c, 0, 51, 29
1, 212194, Control_c, 0, 64, 25
1, 212196, Note_off_c, 0, 50, 38
1, 212209, Control_c, 0, 64, 18
1, 212223, Control_c, 0, 64, 0
1, 212374, Note_off_c, 0, 67, 43
1, 212419, Note_off_c, 0, 55, 46
1, 212446, Control_c, 0, 64, 16
1, 212461, Control_c, 0, 64, 23
1, 212461, Note_off_c, 0, 75, 55
1, 212476, Control_c, 0, 64, 27
1, 212478, Note_off_c, 0, 51, 43
1, 212490, Control_c, 0, 64, 30
1, 212505, Control_c, 0, 64, 31
1, 212520, Control_c, 0, 64, 33
1, 212535, Control_c, 0, 64, 36
1, 212550, Control_c, 0, 64, 41
1, 212565, Control_c, 0, 64, 46
1, 212580, Control_c, 0, 64, 51
1, 212595, Control_c, 0, 64, 54
1, 212610, Control_c, 0, 64, 56
1, 212625, Control_c, 0, 64, 57
1, 212639, Control_c, 0, 64, 58
1, 212654, Control_c, 0, 64, 59
1, 212669, Control_c, 0, 64, 61
1, 212675, Note_on_c, 0, 75, 62
1, 212684, Note_on_c, 0, 51, 41
1, 212684, Note_on_c, 0, 58, 44
1, 212684, Control_c, 0, 64, 62
1, 212699, Control_c, 0, 64, 63
1, 212703, Note_on_c, 0, 67, 43
1, 212714, Control_c, 0, 64, 63
1, 212743, Control_c, 0, 64, 64
1, 212758, Control_c, 0, 64, 64
1, 212813, Note_off_c, 0, 75, 59
1, 212876, Control_c, 0, 64, 64
1, 212899, Control_c, 0, 64, 63
1, 212914, Control_c, 0, 64, 62
1, 212914, Note_on_c, 0, 74, 63
1, 212928, Note_on_c, 0, 56, 44
1, 212928, Control_c, 0, 64, 59
1, 212932, Note_on_c, 0, 53, 40
1, 212943, Control_c, 0, 64, 54
1, 212946, Note_on_c, 0, 71, 40
1, 212958, Control_c, 0, 64, 45
1, 212973, Control_c, 0, 64, 33
1, 212973, Note_off_c, 0, 58, 34
1, 212977, Note_off_c, 0, 51, 41
1, 212988, Control_c, 0, 64, 20
1, 212996, Note_off_c, 0, 67, 42
1, 213002, Control_c, 0, 64, 0
1, 213135, Control_c, 0, 64, 8
1, 213150, Control_c, 0, 64, 21
1, 213164, Control_c, 0, 64, 28
1, 213179, Control_c, 0, 64, 35
1, 213194, Control_c, 0, 64, 42
1, 213209, Control_c, 0, 64, 50
1, 213224, Control_c, 0, 64, 56
1, 213239, Control_c, 0, 64, 61
1, 213254, Control_c, 0, 64, 62
1, 213269, Control_c, 0, 64, 63
1, 213283, Control_c, 0, 64, 64
1, 213298, Control_c, 0, 64, 65
1, 213314, Control_c, 0, 64, 67
1, 213329, Control_c, 0, 64, 69
1, 213343, Control_c, 0, 64, 70
1, 213358, Control_c, 0, 64, 71
1, 213373, Control_c, 0, 64, 72
1, 213388, Control_c, 0, 64, 73
1, 213403, Control_c, 0, 64, 74
1, 213418, Control_c, 0, 64, 74
1, 213433, Control_c, 0, 64, 75
1, 213462, Control_c, 0, 64, 76
1, 213492, Control_c, 0, 64, 76
1, 213625, Control_c, 0, 64, 75
1, 213647, Control_c, 0, 64, 74
1, 213656, Note_on_c, 0, 73, 63
1, 213662, Control_c, 0, 64, 72
1, 213671, Note_on_c, 0, 58, 43
1, 213674, Note_on_c, 0, 64, 43
1, 213677, Control_c, 0, 64, 70
1, 213684, Note_on_c, 0, 55, 34
1, 213692, Control_c, 0, 64, 68
1, 213707, Control_c, 0, 64, 64
1, 213722, Control_c, 0, 64, 57
1, 213737, Control_c, 0, 64, 45
1, 213751, Control_c, 0, 64, 29
1, 213751, Note_off_c, 0, 56, 45
1, 213755, Note_off_c, 0, 71, 47
1, 213761, Note_off_c, 0, 53, 46
1, 213766, Control_c, 0, 64, 11
1, 213781, Control_c, 0, 64, 0
1, 213835, Note_off_c, 0, 74, 38
1, 213915, Control_c, 0, 64, 12
1, 213930, Control_c, 0, 64, 25
1, 213944, Control_c, 0, 64, 35
1, 213959, Control_c, 0, 64, 45
1, 213974, Control_c, 0, 64, 55
1, 213989, Control_c, 0, 64, 62
1, 214003, Control_c, 0, 64, 67
1, 214018, Control_c, 0, 64, 67
1, 214033, Control_c, 0, 64, 68
1, 214048, Control_c, 0, 64, 72
1, 214062, Control_c, 0, 64, 77
1, 214077, Control_c, 0, 64, 81
1, 214092, Control_c, 0, 64, 84
1, 214098, Note_off_c, 0, 64, 53
1, 214107, Control_c, 0, 64, 89
1, 214109, Note_off_c, 0, 58, 34
1, 214123, Control_c, 0, 64, 92
1, 214138, Control_c, 0, 64, 96
1, 214153, Control_c, 0, 64, 99
1, 214167, Control_c, 0, 64, 101
1, 214182, Control_c, 0, 64, 103
1, 214271, Control_c, 0, 64, 100
1, 214285, Control_c, 0, 64, 95
1, 214300, Control_c, 0, 64, 86
1, 214315, Control_c, 0, 64, 73
1, 214330, Control_c, 0, 64, 62
1, 214345, Control_c, 0, 64, 47
1, 214360, Control_c, 0, 64, 25
1, 214368, Note_off_c, 0, 55, 43
1, 214374, Control_c, 0, 64, 10
1, 214381, Note_on_c, 0, 72, 57
1, 214392, Note_off_c, 0, 73, 64
1, 214397, Control_c, 0, 64, 8
1, 214401, Note_on_c, 0, 60, 39
1, 214401, Note_on_c, 0, 63, 50
1, 214405, Note_on_c, 0, 56, 36
1, 214412, Control_c, 0, 64, 0
1, 214441, Control_c, 0, 64, 8
1, 214456, Control_c, 0, 64, 20
1, 214471, Control_c, 0, 64, 32
1, 214484, Note_off_c, 0, 63, 63
1, 214486, Control_c, 0, 64, 44
1, 214500, Control_c, 0, 64, 57
1, 214508, Note_off_c, 0, 56, 58
1, 214515, Control_c, 0, 64, 67
1, 214530, Note_off_c, 0, 72, 60
1, 214530, Control_c, 0, 64, 76
1, 214567, Note_off_c, 0, 60, 61
1, 214574, Control_c, 0, 64, 77
1, 214589, Control_c, 0, 64, 78
1, 214604, Control_c, 0, 64, 79
1, 214707, Control_c, 0, 64, 79
1, 214722, Control_c, 0, 64, 78
1, 214737, Control_c, 0, 64, 77
1, 214738, Note_on_c, 0, 92, 72
1, 214751, Control_c, 0, 64, 75
1, 214763, Note_on_c, 0, 60, 40
1, 214766, Note_on_c, 0, 56, 45
1, 214766, Control_c, 0, 64, 73
1, 214781, Control_c, 0, 64, 71
1, 214796, Control_c, 0, 64, 66
1, 214811, Control_c, 0, 64, 59
1, 214825, Control_c, 0, 64, 49
1, 214840, Control_c, 0, 64, 36
1, 214855, Control_c, 0, 64, 28
1, 214870, Control_c, 0, 64, 26
1, 214885, Control_c, 0, 64, 24
1, 214899, Control_c, 0, 64, 23
1, 214930, Control_c, 0, 64, 25
1, 214945, Control_c, 0, 64, 31
1, 214956, Note_on_c, 0, 91, 77
1, 214960, Control_c, 0, 64, 37
1, 214962, Note_off_c, 0, 60, 56
1, 214971, Note_on_c, 0, 61, 49
1, 214974, Note_on_c, 0, 58, 51
1, 214975, Control_c, 0, 64, 43
1, 214989, Control_c, 0, 64, 49
1, 215004, Control_c, 0, 64, 53
1, 215019, Control_c, 0, 64, 56
1, 215033, Control_c, 0, 64, 57
1, 215048, Control_c, 0, 64, 57
1, 215091, Note_off_c, 0, 56, 33
1, 215150, Note_on_c, 0, 90, 80
1, 215150, Note_off_c, 0, 61, 54
1, 215157, Note_on_c, 0, 63, 66
1, 215160, Control_c, 0, 64, 58
1, 215162, Note_on_c, 0, 60, 52
1, 215175, Control_c, 0, 64, 59
1, 215189, Control_c, 0, 64, 60
1, 215204, Control_c, 0, 64, 60
1, 215263, Note_off_c, 0, 63, 57
1, 215275, Note_off_c, 0, 91, 49
1, 215287, Note_off_c, 0, 58, 27
1, 215293, Control_c, 0, 64, 60
1, 215322, Control_c, 0, 64, 59
1, 215346, Note_off_c, 0, 92, 29
1, 215352, Control_c, 0, 64, 59
1, 215367, Control_c, 0, 64, 58
1, 215382, Control_c, 0, 64, 57
1, 215396, Note_off_c, 0, 90, 65
1, 215397, Control_c, 0, 64, 56
1, 215403, Note_on_c, 0, 89, 62
1, 215412, Control_c, 0, 64, 54
1, 215416, Note_on_c, 0, 61, 52
1, 215424, Note_on_c, 0, 65, 52
1, 215427, Control_c, 0, 64, 52
1, 215441, Control_c, 0, 64, 49
1, 215456, Control_c, 0, 64, 45
1, 215468, Note_off_c, 0, 60, 30
1, 215471, Control_c, 0, 64, 36
1, 215486, Control_c, 0, 64, 26
1, 215501, Control_c, 0, 64, 17
1, 215515, Control_c, 0, 64, 8
1, 215523, Note_on_c, 0, 87, 66
1, 215530, Control_c, 0, 64, 0
1, 215531, Note_off_c, 0, 89, 60
1, 215631, Note_on_c, 0, 85, 65
1, 215634, Control_c, 0, 64, 18
1, 215648, Control_c, 0, 64, 26
1, 215663, Control_c, 0, 64, 33
1, 215678, Control_c, 0, 64, 39
1, 215679, Note_off_c, 0, 87, 60
1, 215693, Control_c, 0, 64, 45
1, 215709, Control_c, 0, 64, 50
1, 215719, Note_off_c, 0, 85, 63
1, 215724, Control_c, 0, 64, 52
1, 215730, Note_on_c, 0, 84, 68
1, 215738, Control_c, 0, 64, 53
1, 215752, Note_off_c, 0, 65, 38
1, 215753, Control_c, 0, 64, 54
1, 215782, Control_c, 0, 64, 54
1, 215797, Control_c, 0, 64, 55
1, 215812, Control_c, 0, 64, 56
1, 215827, Control_c, 0, 64, 56
1, 215838, Note_on_c, 0, 83, 63
1, 215856, Control_c, 0, 64, 57
1, 215876, Note_off_c, 0, 84, 34
1, 215941, Note_on_c, 0, 82, 67
1, 215953, Control_c, 0, 64, 56
1, 215975, Note_off_c, 0, 61, 40
1, 215983, Control_c, 0, 64, 56
1, 215997, Control_c, 0, 64, 55
1, 216006, Note_off_c, 0, 83, 62
1, 216012, Control_c, 0, 64, 54
1, 216022, Note_on_c, 0, 81, 70
1, 216027, Control_c, 0, 64, 52
1, 216031, Note_off_c, 0, 82, 64
1, 216042, Control_c, 0, 64, 51
1, 216057, Control_c, 0, 64, 50
1, 216071, Control_c, 0, 64, 48
1, 216086, Control_c, 0, 64, 45
1, 216101, Control_c, 0, 64, 43
1, 216112, Note_on_c, 0, 80, 74
1, 216116, Control_c, 0, 64, 41
1, 216118, Note_off_c, 0, 81, 63
1, 216130, Control_c, 0, 64, 40
1, 216145, Control_c, 0, 64, 38
1, 216160, Control_c, 0, 64, 36
1, 216175, Control_c, 0, 64, 34
1, 216189, Control_c, 0, 64, 33
1, 216201, Note_on_c, 0, 79, 76
1, 216204, Control_c, 0, 64, 31
1, 216205, Note_off_c, 0, 80, 64
1, 216219, Control_c, 0, 64, 28
1, 216234, Control_c, 0, 64, 26
1, 216249, Control_c, 0, 64, 23
1, 216263, Control_c, 0, 64, 20
1, 216278, Control_c, 0, 64, 17
1, 216288, Note_on_c, 0, 78, 79
1, 216293, Control_c, 0, 64, 14
1, 216306, Note_off_c, 0, 79, 59
1, 216308, Control_c, 0, 64, 11
1, 216322, Control_c, 0, 64, 10
1, 216337, Control_c, 0, 64, 9
1, 216352, Control_c, 0, 64, 9
1, 216374, Note_on_c, 0, 77, 78
1, 216396, Control_c, 0, 64, 8
1, 216451, Note_off_c, 0, 78, 64
1, 216461, Note_off_c, 0, 77, 64
1, 216464, Note_on_c, 0, 76, 73
1, 216485, Control_c, 0, 64, 8
1, 216500, Control_c, 0, 64, 0
1, 216581, Note_on_c, 0, 75, 66
1, 216586, Note_on_c, 0, 56, 51
1, 216592, Note_off_c, 0, 76, 55
1, 216599, Note_on_c, 0, 49, 43
1, 216602, Note_on_c, 0, 53, 48
1, 216685, Note_off_c, 0, 56, 56
1, 216688, Note_off_c, 0, 49, 51
1, 216692, Note_on_c, 0, 73, 67
1, 216775, Control_c, 0, 67, 8
1, 216780, Note_off_c, 0, 75, 37
1, 216790, Control_c, 0, 67, 9
1, 216805, Control_c, 0, 67, 10
1, 216816, Note_on_c, 0, 56, 54
1, 216819, Note_on_c, 0, 72, 64
1, 216819, Control_c, 0, 67, 12
1, 216834, Control_c, 0, 64, 18
1, 216834, Control_c, 0, 67, 14
1, 216840, Note_on_c, 0, 50, 42
1, 216849, Control_c, 0, 64, 25
1, 216849, Control_c, 0, 67, 16
1, 216855, Note_off_c, 0, 73, 53
1, 216864, Control_c, 0, 64, 31
1, 216864, Control_c, 0, 67, 18
1, 216873, Note_off_c, 0, 53, 47
1, 216879, Control_c, 0, 64, 37
1, 216879, Control_c, 0, 67, 19
1, 216893, Control_c, 0, 64, 42
1, 216893, Control_c, 0, 67, 20
1, 216905, Note_off_c, 0, 72, 63
1, 216908, Control_c, 0, 64, 48
1, 216908, Control_c, 0, 67, 21
1, 216917, Note_on_c, 0, 70, 65
1, 216923, Control_c, 0, 64, 51
1, 216923, Control_c, 0, 67, 22
1, 216938, Control_c, 0, 64, 52
1, 216938, Control_c, 0, 67, 24
1, 216953, Control_c, 0, 67, 25
1, 216968, Control_c, 0, 67, 26
1, 216983, Control_c, 0, 67, 26
1, 216991, Note_off_c, 0, 70, 51
1, 216998, Control_c, 0, 64, 51
1, 217012, Control_c, 0, 67, 27
1, 217027, Control_c, 0, 64, 51
1, 217027, Control_c, 0, 67, 27
1, 217042, Control_c, 0, 64, 50
1, 217057, Control_c, 0, 64, 50
1, 217072, Control_c, 0, 64, 49
1, 217086, Control_c, 0, 64, 48
1, 217095, Note_off_c, 0, 56, 29
1, 217101, Control_c, 0, 64, 46
1, 217116, Control_c, 0, 64, 44
1, 217130, Control_c, 0, 64, 42
1, 217145, Control_c, 0, 64, 39
1, 217150, Note_on_c, 0, 75, 61
1, 217151, Note_on_c, 0, 70, 50
1, 217160, Control_c, 0, 64, 36
1, 217162, Note_on_c, 0, 51, 36
1, 217175, Control_c, 0, 64, 33
1, 217177, Note_on_c, 0, 55, 33
1, 217177, Note_off_c, 0, 50, 30
1, 217190, Control_c, 0, 64, 31
1, 217204, Control_c, 0, 64, 28
1, 217204, Control_c, 0, 67, 27
1, 217219, Control_c, 0, 64, 24
1, 217234, Control_c, 0, 64, 21
1, 217249, Control_c, 0, 64, 17
1, 217264, Control_c, 0, 64, 11
1, 217264, Control_c, 0, 67, 26
1, 217278, Control_c, 0, 64, 0
1, 217391, Control_c, 0, 67, 27
1, 217406, Control_c, 0, 67, 27
1, 217421, Control_c, 0, 67, 28
1, 217436, Control_c, 0, 67, 29
1, 217450, Control_c, 0, 67, 31
1, 217465, Control_c, 0, 67, 33
1, 217480, Control_c, 0, 67, 35
1, 217495, Control_c, 0, 67, 37
1, 217510, Control_c, 0, 67, 39
1, 217524, Control_c, 0, 67, 40
1, 217539, Control_c, 0, 67, 42
1, 217554, Control_c, 0, 67, 45
1, 217565, Note_off_c, 0, 51, 40
1, 217568, Control_c, 0, 67, 48
1, 217569, Note_off_c, 0, 75, 35
1, 217583, Control_c, 0, 67, 51
1, 217585, Note_off_c, 0, 55, 41
1, 217598, Control_c, 0, 67, 54
1, 217613, Control_c, 0, 67, 57
1, 217628, Control_c, 0, 67, 60
1, 217642, Control_c, 0, 67, 64
1, 217648, Note_off_c, 0, 70, 42
1, 217657, Control_c, 0, 67, 66
1, 217672, Control_c, 0, 67, 69
1, 217687, Control_c, 0, 67, 71
1, 217702, Control_c, 0, 67, 72
1, 217716, Control_c, 0, 64, 9
1, 217731, Control_c, 0, 64, 16
1, 217746, Control_c, 0, 64, 20
1, 217761, Control_c, 0, 64, 22
1, 217776, Control_c, 0, 64, 25
1, 217776, Control_c, 0, 67, 71
1, 217791, Control_c, 0, 64, 27
1, 217806, Control_c, 0, 64, 30
1, 217820, Control_c, 0, 64, 33
1, 217835, Control_c, 0, 64, 38
1, 217847, Note_on_c, 0, 75, 56
1, 217850, Control_c, 0, 64, 45
1, 217855, Note_on_c, 0, 67, 42
1, 217865, Control_c, 0, 64, 53
1, 217865, Note_on_c, 0, 58, 37
1, 217867, Note_on_c, 0, 51, 40
1, 217880, Control_c, 0, 64, 58
1, 217895, Control_c, 0, 64, 61
1, 217909, Control_c, 0, 64, 62
1, 217924, Control_c, 0, 64, 63
1, 217939, Control_c, 0, 64, 64
1, 217953, Control_c, 0, 64, 65
1, 217958, Note_off_c, 0, 51, 55
1, 217968, Control_c, 0, 64, 66
1, 217981, Note_off_c, 0, 67, 44
1, 217983, Control_c, 0, 64, 67
1, 217983, Control_c, 0, 67, 71
1, 218018, Note_off_c, 0, 75, 52
1, 218035, Note_off_c, 0, 58, 42
1, 218042, Control_c, 0, 64, 68
1, 218118, Control_c, 0, 64, 67
1, 218118, Control_c, 0, 67, 70
1, 218139, Control_c, 0, 67, 69
1, 218154, Control_c, 0, 64, 67
1, 218154, Control_c, 0, 67, 69
1, 218169, Control_c, 0, 64, 66
1, 218169, Control_c, 0, 67, 68
1, 218184, Control_c, 0, 64, 65
1, 218199, Control_c, 0, 64, 65
1, 218199, Control_c, 0, 67, 67
1, 218214, Control_c, 0, 64, 64
1, 218229, Control_c, 0, 64, 62
1, 218244, Control_c, 0, 64, 60
1, 218244, Control_c, 0, 67, 66
1, 218244, Note_on_c, 0, 75, 59
1, 218259, Note_on_c, 0, 68, 49
1, 218259, Control_c, 0, 64, 57
1, 218269, Note_on_c, 0, 56, 39
1, 218271, Note_on_c, 0, 60, 38
1, 218273, Control_c, 0, 64, 53
1, 218288, Control_c, 0, 64, 48
1, 218288, Control_c, 0, 67, 66
1, 218303, Control_c, 0, 64, 43
1, 218303, Control_c, 0, 67, 65
1, 218318, Control_c, 0, 64, 38
1, 218318, Control_c, 0, 67, 65
1, 218333, Control_c, 0, 64, 31
1, 218347, Control_c, 0, 64, 18
1, 218347, Control_c, 0, 67, 64
1, 218362, Control_c, 0, 64, 0
1, 218377, Control_c, 0, 67, 64
1, 218406, Control_c, 0, 67, 63
1, 218436, Control_c, 0, 67, 63
1, 218451, Control_c, 0, 67, 61
1, 218465, Control_c, 0, 67, 60
1, 218480, Control_c, 0, 67, 58
1, 218495, Control_c, 0, 67, 55
1, 218510, Control_c, 0, 64, 10
1, 218510, Control_c, 0, 67, 52
1, 218525, Control_c, 0, 64, 18
1, 218525, Control_c, 0, 67, 48
1, 218539, Control_c, 0, 64, 25
1, 218539, Control_c, 0, 67, 44
1, 218554, Control_c, 0, 64, 30
1, 218554, Control_c, 0, 67, 39
1, 218569, Control_c, 0, 64, 34
1, 218569, Control_c, 0, 67, 35
1, 218584, Control_c, 0, 64, 38
1, 218584, Control_c, 0, 67, 31
1, 218598, Control_c, 0, 64, 43
1, 218598, Control_c, 0, 67, 29
1, 218613, Control_c, 0, 64, 47
1, 218613, Control_c, 0, 67, 27
1, 218628, Control_c, 0, 64, 50
1, 218628, Control_c, 0, 67, 25
1, 218643, Control_c, 0, 64, 52
1, 218643, Control_c, 0, 67, 23
1, 218658, Control_c, 0, 64, 53
1, 218658, Control_c, 0, 67, 20
1, 218673, Control_c, 0, 64, 53
1, 218673, Control_c, 0, 67, 19
1, 218688, Control_c, 0, 64, 54
1, 218688, Control_c, 0, 67, 18
1, 218692, Note_on_c, 0, 77, 57
1, 218697, Note_on_c, 0, 61, 47
1, 218703, Control_c, 0, 64, 54
1, 218703, Control_c, 0, 67, 17
1, 218703, Note_off_c, 0, 60, 32
1, 218718, Control_c, 0, 64, 55
1, 218718, Control_c, 0, 67, 16
1, 218732, Control_c, 0, 64, 56
1, 218732, Control_c, 0, 67, 14
1, 218747, Control_c, 0, 64, 57
1, 218747, Control_c, 0, 67, 13
1, 218762, Control_c, 0, 67, 11
1, 218771, Note_off_c, 0, 75, 36
1, 218776, Control_c, 0, 67, 10
1, 218791, Control_c, 0, 67, 10
1, 218806, Control_c, 0, 67, 9
1, 218821, Control_c, 0, 64, 56
1, 218821, Control_c, 0, 67, 9
1, 218865, Control_c, 0, 64, 56
1, 218869, Note_off_c, 0, 61, 56
1, 218897, Note_on_c, 0, 75, 66
1, 218902, Control_c, 0, 64, 55
1, 218902, Control_c, 0, 67, 8
1, 218913, Note_on_c, 0, 60, 48
1, 218918, Control_c, 0, 64, 55
1, 218918, Control_c, 0, 67, 8
1, 218933, Control_c, 0, 64, 54
1, 218933, Control_c, 0, 67, 0
1, 218948, Control_c, 0, 64, 54
1, 218962, Control_c, 0, 64, 53
1, 218977, Control_c, 0, 64, 51
1, 218992, Control_c, 0, 64, 49
1, 219007, Control_c, 0, 64, 47
1, 219022, Control_c, 0, 64, 46
1, 219037, Control_c, 0, 64, 45
1, 219052, Control_c, 0, 64, 42
1, 219066, Control_c, 0, 64, 38
1, 219081, Control_c, 0, 64, 31
1, 219085, Note_off_c, 0, 60, 51
1, 219089, Note_on_c, 0, 73, 64
1, 219096, Control_c, 0, 64, 24
1, 219103, Note_off_c, 0, 77, 40
1, 219109, Note_on_c, 0, 58, 47
1, 219111, Control_c, 0, 64, 17
1, 219119, Note_off_c, 0, 56, 41
1, 219126, Control_c, 0, 64, 13
1, 219141, Control_c, 0, 64, 11
1, 219171, Note_off_c, 0, 75, 61
1, 219200, Control_c, 0, 64, 13
1, 219214, Control_c, 0, 64, 14
1, 219229, Control_c, 0, 64, 15
1, 219244, Control_c, 0, 64, 16
1, 219286, Note_on_c, 0, 72, 65
1, 219289, Note_on_c, 0, 56, 53
1, 219303, Control_c, 0, 64, 17
1, 219318, Note_off_c, 0, 73, 62
1, 219421, Control_c, 0, 64, 18
1, 219436, Control_c, 0, 64, 20
1, 219451, Control_c, 0, 64, 23
1, 219466, Control_c, 0, 64, 25
1, 219473, Note_on_c, 0, 70, 68
1, 219476, Note_off_c, 0, 58, 35
1, 219481, Control_c, 0, 64, 29
1, 219483, Note_on_c, 0, 55, 48
1, 219496, Control_c, 0, 64, 32
1, 219511, Control_c, 0, 64, 34
1, 219514, Note_off_c, 0, 72, 58
1, 219517, Note_off_c, 0, 56, 34
1, 219525, Control_c, 0, 64, 37
1, 219540, Control_c, 0, 64, 39
1, 219555, Control_c, 0, 64, 40
1, 219570, Control_c, 0, 64, 41
1, 219585, Control_c, 0, 64, 42
1, 219643, Note_off_c, 0, 68, 38
1, 219670, Note_on_c, 0, 56, 51
1, 219675, Note_on_c, 0, 72, 65
1, 219726, Control_c, 0, 64, 42
1, 219755, Control_c, 0, 64, 41
1, 219785, Control_c, 0, 64, 41
1, 219800, Control_c, 0, 64, 40
1, 219830, Control_c, 0, 64, 40
1, 219844, Control_c, 0, 64, 39
1, 219874, Control_c, 0, 64, 38
1, 219889, Control_c, 0, 64, 38
1, 219904, Control_c, 0, 64, 37
1, 219919, Control_c, 0, 64, 35
1, 219934, Control_c, 0, 64, 32
1, 219934, Note_on_c, 0, 73, 58
1, 219943, Note_off_c, 0, 55, 31
1, 219949, Control_c, 0, 64, 29
1, 219949, Note_on_c, 0, 58, 40
1, 219963, Control_c, 0, 64, 23
1, 219964, Note_off_c, 0, 70, 35
1, 219970, Note_on_c, 0, 51, 35
1, 219978, Control_c, 0, 64, 11
1, 219991, Note_off_c, 0, 72, 46
1, 219993, Control_c, 0, 64, 0
1, 219999, Note_off_c, 0, 56, 26
1, 220152, Note_on_c, 0, 65, 56
1, 220155, Control_c, 0, 64, 21
1, 220170, Control_c, 0, 64, 27
1, 220185, Control_c, 0, 64, 33
1, 220200, Control_c, 0, 64, 38
1, 220215, Control_c, 0, 64, 44
1, 220229, Control_c, 0, 64, 49
1, 220244, Control_c, 0, 64, 53
1, 220259, Control_c, 0, 64, 55
1, 220274, Control_c, 0, 64, 57
1, 220289, Control_c, 0, 64, 58
1, 220304, Control_c, 0, 64, 59
1, 220318, Control_c, 0, 64, 60
1, 220333, Control_c, 0, 64, 61
1, 220339, Note_on_c, 0, 68, 62
1, 220348, Control_c, 0, 64, 62
1, 220358, Note_off_c, 0, 51, 42
1, 220363, Note_off_c, 0, 58, 33
1, 220363, Control_c, 0, 64, 63
1, 220385, Control_c, 0, 64, 63
1, 220400, Control_c, 0, 64, 64
1, 220415, Control_c, 0, 64, 64
1, 220430, Control_c, 0, 64, 65
1, 220444, Control_c, 0, 64, 65
1, 220474, Control_c, 0, 67, 8
1, 220497, Note_off_c, 0, 65, 36
1, 220520, Control_c, 0, 67, 9
1, 220530, Note_on_c, 0, 67, 59
1, 220549, Control_c, 0, 67, 10
1, 220575, Note_off_c, 0, 68, 52
1, 220593, Control_c, 0, 67, 10
1, 220640, Note_off_c, 0, 73, 40
1, 220668, Control_c, 0, 64, 65
1, 220698, Control_c, 0, 64, 64
1, 220713, Control_c, 0, 64, 64
1, 220727, Control_c, 0, 64, 63
1, 220742, Control_c, 0, 64, 62
1, 220757, Control_c, 0, 64, 62
1, 220760, Note_on_c, 0, 72, 61
1, 220767, Note_off_c, 0, 67, 60
1, 220772, Control_c, 0, 64, 60
1, 220777, Note_on_c, 0, 56, 38
1, 220781, Note_on_c, 0, 68, 46
1, 220786, Control_c, 0, 64, 59
1, 220789, Note_on_c, 0, 44, 39
1, 220801, Control_c, 0, 64, 58
1, 220816, Control_c, 0, 64, 55
1, 220831, Control_c, 0, 64, 52
1, 220846, Control_c, 0, 64, 49
1, 220861, Control_c, 0, 64, 47
1, 220876, Control_c, 0, 64, 46
1, 220876, Control_c, 0, 67, 11
1, 220891, Control_c, 0, 64, 43
1, 220891, Control_c, 0, 67, 11
1, 220906, Control_c, 0, 64, 41
1, 220921, Control_c, 0, 64, 38
1, 220935, Control_c, 0, 64, 35
1, 220935, Control_c, 0, 67, 12
1, 220950, Control_c, 0, 64, 32
1, 220965, Control_c, 0, 64, 29
1, 220965, Control_c, 0, 67, 12
1, 220977, Note_on_c, 0, 63, 57
1, 220979, Control_c, 0, 64, 26
1, 220989, Note_on_c, 0, 48, 48
1, 220994, Control_c, 0, 64, 22
1, 221009, Control_c, 0, 64, 18
1, 221024, Control_c, 0, 64, 14
1, 221024, Control_c, 0, 67, 13
1, 221039, Control_c, 0, 64, 12
1, 221053, Control_c, 0, 64, 11
1, 221053, Control_c, 0, 67, 13
1, 221068, Control_c, 0, 67, 14
1, 221098, Control_c, 0, 67, 14
1, 221135, Control_c, 0, 67, 15
1, 221156, Note_off_c, 0, 56, 36
1, 221176, Note_on_c, 0, 65, 64
1, 221180, Control_c, 0, 67, 15
1, 221181, Note_on_c, 0, 49, 54
1, 221194, Control_c, 0, 67, 16
1, 221209, Control_c, 0, 64, 11
1, 221209, Control_c, 0, 67, 17
1, 221221, Note_off_c, 0, 48, 33
1, 221224, Control_c, 0, 64, 12
1, 221224, Control_c, 0, 67, 17
1, 221239, Control_c, 0, 64, 14
1, 221239, Control_c, 0, 67, 18
1, 221254, Control_c, 0, 64, 17
1, 221268, Control_c, 0, 64, 18
1, 221283, Control_c, 0, 64, 20
1, 221283, Control_c, 0, 67, 18
1, 221287, Note_off_c, 0, 63, 38
1, 221298, Control_c, 0, 64, 21
1, 221313, Note_off_c, 0, 68, 42
1, 221314, Control_c, 0, 64, 22
1, 221314, Control_c, 0, 67, 19
1, 221329, Control_c, 0, 64, 22
1, 221344, Control_c, 0, 64, 23
1, 221344, Control_c, 0, 67, 19
1, 221350, Note_off_c, 0, 72, 59
1, 221354, Note_on_c, 0, 63, 71
1, 221358, Control_c, 0, 67, 20
1, 221359, Note_on_c, 0, 48, 56
1, 221368, Note_off_c, 0, 65, 65
1, 221372, Control_c, 0, 67, 21
1, 221387, Control_c, 0, 64, 23
1, 221387, Control_c, 0, 67, 21
1, 221401, Control_c, 0, 67, 22
1, 221412, Note_off_c, 0, 49, 45
1, 221446, Control_c, 0, 67, 23
1, 221461, Control_c, 0, 67, 24
1, 221475, Control_c, 0, 67, 25
1, 221490, Control_c, 0, 67, 25
1, 221520, Control_c, 0, 64, 23
1, 221520, Control_c, 0, 67, 26
1, 221541, Note_off_c, 0, 48, 55
1, 221549, Note_on_c, 0, 61, 67
1, 221550, Control_c, 0, 67, 27
1, 221561, Note_on_c, 0, 46, 56
1, 221564, Control_c, 0, 67, 28
1, 221569, Note_off_c, 0, 44, 52
1, 221579, Control_c, 0, 67, 28
1, 221590, Note_off_c, 0, 63, 62
1, 221594, Control_c, 0, 67, 29
1, 221624, Control_c, 0, 67, 29
1, 221639, Control_c, 0, 67, 30
1, 221654, Control_c, 0, 67, 30
1, 221683, Control_c, 0, 64, 22
1, 221683, Control_c, 0, 67, 31
1, 221698, Control_c, 0, 67, 31
1, 221713, Control_c, 0, 67, 32
1, 221727, Control_c, 0, 64, 22
1, 221727, Control_c, 0, 67, 32
1, 221742, Control_c, 0, 67, 33
1, 221753, Note_on_c, 0, 60, 68
1, 221756, Note_on_c, 0, 44, 55
1, 221757, Control_c, 0, 64, 21
1, 221757, Control_c, 0, 67, 33
1, 221772, Control_c, 0, 64, 21
1, 221772, Control_c, 0, 67, 35
1, 221787, Control_c, 0, 64, 20
1, 221787, Control_c, 0, 67, 35
1, 221801, Control_c, 0, 64, 19
1, 221801, Control_c, 0, 67, 36
1, 221816, Control_c, 0, 64, 18
1, 221816, Control_c, 0, 67, 37
1, 221831, Control_c, 0, 64, 16
1, 221831, Control_c, 0, 67, 38
1, 221846, Control_c, 0, 64, 14
1, 221846, Control_c, 0, 67, 39
1, 221861, Control_c, 0, 64, 11
1, 221861, Control_c, 0, 67, 40
1, 221883, Control_c, 0, 64, 0
1, 221883, Control_c, 0, 67, 41
1, 221890, Note_off_c, 0, 46, 38
1, 221898, Control_c, 0, 67, 42
1, 221913, Control_c, 0, 67, 43
1, 221927, Control_c, 0, 67, 44
1, 221942, Control_c, 0, 67, 45
1, 221944, Note_off_c, 0, 61, 29
1, 221946, Note_on_c, 0, 58, 67
1, 221957, Control_c, 0, 67, 48
1, 221960, Note_on_c, 0, 43, 54
1, 221961, Note_off_c, 0, 60, 59
1, 221972, Control_c, 0, 67, 50
1, 221987, Control_c, 0, 67, 53
1, 221994, Note_off_c, 0, 44, 50
1, 222002, Control_c, 0, 67, 56
1, 222016, Control_c, 0, 67, 60
1, 222031, Control_c, 0, 67, 64
1, 222046, Control_c, 0, 67, 67
1, 222061, Control_c, 0, 67, 69
1, 222076, Control_c, 0, 67, 71
1, 222090, Control_c, 0, 67, 73
1, 222106, Control_c, 0, 64, 11
1, 222106, Control_c, 0, 67, 75
1, 222121, Control_c, 0, 64, 19
1, 222121, Control_c, 0, 67, 78
1, 222136, Control_c, 0, 64, 25
1, 222136, Control_c, 0, 67, 80
1, 222141, Note_on_c, 0, 44, 49
1, 222149, Note_on_c, 0, 60, 62
1, 222150, Note_off_c, 0, 58, 56
1, 222151, Control_c, 0, 64, 31
1, 222151, Control_c, 0, 67, 83
1, 222165, Control_c, 0, 64, 37
1, 222165, Control_c, 0, 67, 86
1, 222180, Control_c, 0, 64, 42
1, 222180, Control_c, 0, 67, 89
1, 222195, Control_c, 0, 64, 47
1, 222195, Control_c, 0, 67, 93
1, 222210, Control_c, 0, 64, 51
1, 222210, Control_c, 0, 67, 97
1, 222224, Control_c, 0, 64, 53
1, 222224, Control_c, 0, 67, 102
1, 222239, Control_c, 0, 64, 53
1, 222239, Control_c, 0, 67, 106
1, 222254, Control_c, 0, 67, 111
1, 222269, Control_c, 0, 67, 115
1, 222284, Control_c, 0, 67, 120
1, 222298, Control_c, 0, 67, 124
1, 222313, Control_c, 0, 67, 127
1, 222328, Control_c, 0, 64, 53
1, 222343, Control_c, 0, 64, 52
1, 222357, Control_c, 0, 64, 51
1, 222372, Control_c, 0, 64, 50
1, 222376, Note_off_c, 0, 43, 39
1, 222387, Control_c, 0, 64, 48
1, 222390, Note_on_c, 0, 68, 61
1, 222393, Note_on_c, 0, 46, 44
1, 222399, Note_on_c, 0, 61, 50
1, 222402, Control_c, 0, 64, 45
1, 222408, Note_on_c, 0, 39, 42
1, 222417, Control_c, 0, 64, 41
1, 222432, Control_c, 0, 64, 36
1, 222438, Note_off_c, 0, 44, 30
1, 222447, Control_c, 0, 64, 30
1, 222448, Note_off_c, 0, 60, 33
1, 222462, Control_c, 0, 64, 22
1, 222477, Control_c, 0, 64, 13
1, 222491, Control_c, 0, 64, 0
1, 222595, Control_c, 0, 64, 16
1, 222608, Note_on_c, 0, 65, 59
1, 222610, Control_c, 0, 64, 25
1, 222628, Note_off_c, 0, 68, 48
1, 222632, Control_c, 0, 64, 32
1, 222647, Control_c, 0, 64, 40
1, 222661, Control_c, 0, 64, 47
1, 222676, Control_c, 0, 64, 53
1, 222691, Control_c, 0, 64, 57
1, 222706, Control_c, 0, 64, 60
1, 222721, Control_c, 0, 64, 62
1, 222736, Control_c, 0, 64, 63
1, 222750, Control_c, 0, 64, 64
1, 222765, Control_c, 0, 64, 66
1, 222780, Control_c, 0, 64, 68
1, 222791, Note_off_c, 0, 46, 44
1, 222795, Control_c, 0, 64, 69
1, 222797, Note_on_c, 0, 68, 53
1, 222810, Control_c, 0, 64, 70
1, 222824, Control_c, 0, 64, 71
1, 222839, Control_c, 0, 64, 72
1, 222854, Control_c, 0, 64, 73
1, 222869, Control_c, 0, 64, 74
1, 222883, Control_c, 0, 64, 74
1, 222900, Control_c, 0, 64, 75
1, 222907, Note_off_c, 0, 65, 34
1, 222929, Control_c, 0, 64, 76
1, 222944, Control_c, 0, 64, 76
1, 222974, Control_c, 0, 64, 77
1, 222983, Note_on_c, 0, 67, 61
1, 222986, Note_off_c, 0, 68, 53
1, 223107, Control_c, 0, 64, 76
1, 223122, Control_c, 0, 64, 75
1, 223136, Control_c, 0, 64, 74
1, 223151, Control_c, 0, 64, 72
1, 223153, Note_off_c, 0, 67, 58
1, 223166, Control_c, 0, 64, 69
1, 223180, Control_c, 0, 64, 65
1, 223186, Note_on_c, 0, 70, 54
1, 223195, Note_off_c, 0, 61, 38
1, 223195, Control_c, 0, 64, 59
1, 223197, Note_on_c, 0, 60, 50
1, 223198, Note_on_c, 0, 44, 42
1, 223207, Note_on_c, 0, 32, 40
1, 223210, Control_c, 0, 64, 46
1, 223225, Control_c, 0, 64, 33
1, 223235, Note_off_c, 0, 39, 28
1, 223240, Control_c, 0, 64, 25
1, 223255, Control_c, 0, 64, 22
1, 223270, Control_c, 0, 64, 19
1, 223284, Control_c, 0, 64, 18
1, 223329, Control_c, 0, 64, 19
1, 223344, Control_c, 0, 64, 24
1, 223359, Control_c, 0, 64, 29
1, 223369, Note_off_c, 0, 70, 54
1, 223380, Control_c, 0, 64, 35
1, 223395, Control_c, 0, 64, 41
1, 223402, Note_on_c, 0, 67, 54
1, 223410, Control_c, 0, 64, 50
1, 223425, Control_c, 0, 64, 57
1, 223440, Control_c, 0, 64, 62
1, 223454, Control_c, 0, 64, 64
1, 223464, Note_off_c, 0, 60, 30
1, 223469, Control_c, 0, 64, 65
1, 223473, Note_off_c, 0, 44, 36
1, 223484, Control_c, 0, 64, 66
1, 223499, Control_c, 0, 64, 68
1, 223514, Control_c, 0, 64, 71
1, 223529, Control_c, 0, 64, 73
1, 223543, Note_off_c, 0, 32, 29
1, 223544, Control_c, 0, 64, 74
1, 223559, Control_c, 0, 64, 76
1, 223563, Note_off_c, 0, 67, 61
1, 223573, Control_c, 0, 64, 77
1, 223587, Note_on_c, 0, 70, 56
1, 223588, Control_c, 0, 64, 78
1, 223603, Control_c, 0, 64, 79
1, 223618, Control_c, 0, 64, 79
1, 223633, Control_c, 0, 64, 80
1, 223662, Control_c, 0, 64, 80
1, 223746, Note_off_c, 0, 70, 59
1, 223782, Note_on_c, 0, 68, 57
1, 223885, Control_c, 0, 64, 79
1, 223900, Control_c, 0, 64, 79
1, 223915, Control_c, 0, 64, 78
1, 223929, Control_c, 0, 64, 77
1, 223944, Control_c, 0, 64, 75
1, 223959, Control_c, 0, 64, 74
1, 223974, Control_c, 0, 64, 72
1, 223982, Note_on_c, 0, 73, 57
1, 223989, Control_c, 0, 64, 69
1, 223996, Note_off_c, 0, 68, 36
1, 224003, Control_c, 0, 64, 65
1, 224006, Note_on_c, 0, 44, 41
1, 224015, Note_on_c, 0, 39, 37
1, 224018, Note_on_c, 0, 36, 29
1, 224018, Control_c, 0, 64, 62
1, 224027, Note_on_c, 0, 32, 25
1, 224033, Control_c, 0, 64, 56
1, 224048, Control_c, 0, 64, 50
1, 224063, Control_c, 0, 64, 44
1, 224077, Control_c, 0, 64, 35
1, 224092, Control_c, 0, 64, 25
1, 224107, Control_c, 0, 64, 17
1, 224129, Control_c, 0, 64, 8
1, 224144, Control_c, 0, 64, 0
1, 224189, Note_off_c, 0, 73, 59
1, 224201, Note_on_c, 0, 71, 55
1, 224277, Control_c, 0, 64, 19
1, 224292, Control_c, 0, 64, 26
1, 224307, Control_c, 0, 64, 32
1, 224322, Control_c, 0, 64, 38
1, 224322, Control_c, 0, 67, 124
1, 224337, Control_c, 0, 64, 45
1, 224337, Control_c, 0, 67, 121
1, 224352, Control_c, 0, 64, 53
1, 224352, Control_c, 0, 67, 117
1, 224367, Control_c, 0, 64, 59
1, 224367, Control_c, 0, 67, 112
1, 224382, Control_c, 0, 64, 62
1, 224382, Control_c, 0, 67, 107
1, 224387, Note_on_c, 0, 73, 65
1, 224396, Control_c, 0, 64, 63
1, 224396, Control_c, 0, 67, 101
1, 224411, Control_c, 0, 64, 63
1, 224411, Control_c, 0, 67, 95
1, 224426, Control_c, 0, 64, 65
1, 224426, Control_c, 0, 67, 89
1, 224441, Control_c, 0, 64, 66
1, 224441, Control_c, 0, 67, 84
1, 224456, Control_c, 0, 64, 67
1, 224456, Control_c, 0, 67, 79
1, 224471, Control_c, 0, 64, 67
1, 224471, Control_c, 0, 67, 76
1, 224486, Control_c, 0, 64, 68
1, 224486, Control_c, 0, 67, 74
1, 224501, Control_c, 0, 67, 71
1, 224516, Control_c, 0, 67, 69
1, 224531, Control_c, 0, 64, 69
1, 224531, Control_c, 0, 67, 68
1, 224545, Control_c, 0, 64, 69
1, 224545, Control_c, 0, 67, 67
1, 224560, Control_c, 0, 67, 65
1, 224568, Note_on_c, 0, 72, 58
1, 224575, Control_c, 0, 64, 70
1, 224575, Control_c, 0, 67, 63
1, 224590, Control_c, 0, 67, 61
1, 224605, Control_c, 0, 67, 60
1, 224620, Control_c, 0, 67, 59
1, 224632, Note_off_c, 0, 71, 31
1, 224635, Control_c, 0, 67, 58
1, 224650, Control_c, 0, 67, 56
1, 224665, Control_c, 0, 67, 55
1, 224676, Note_off_c, 0, 73, 28
1, 224679, Control_c, 0, 67, 55
1, 224694, Control_c, 0, 64, 69
1, 224694, Control_c, 0, 67, 54
1, 224709, Control_c, 0, 64, 69
1, 224709, Control_c, 0, 67, 53
1, 224724, Control_c, 0, 64, 67
1, 224724, Control_c, 0, 67, 52
1, 224739, Control_c, 0, 64, 62
1, 224739, Control_c, 0, 67, 52
1, 224753, Control_c, 0, 64, 51
1, 224755, Note_on_c, 0, 77, 63
1, 224768, Control_c, 0, 64, 38
1, 224779, Note_off_c, 0, 72, 53
1, 224783, Control_c, 0, 64, 28
1, 224798, Control_c, 0, 64, 26
1, 224813, Control_c, 0, 64, 24
1, 224813, Control_c, 0, 67, 51
1, 224827, Control_c, 0, 64, 24
1, 224827, Control_c, 0, 67, 51
1, 224842, Control_c, 0, 67, 50
1, 224857, Control_c, 0, 64, 24
1, 224857, Control_c, 0, 67, 49
1, 224879, Control_c, 0, 64, 27
1, 224879, Control_c, 0, 67, 47
1, 224894, Control_c, 0, 64, 32
1, 224894, Control_c, 0, 67, 45
1, 224909, Control_c, 0, 64, 38
1, 224909, Control_c, 0, 67, 44
1, 224924, Control_c, 0, 64, 45
1, 224924, Control_c, 0, 67, 42
1, 224939, Control_c, 0, 64, 53
1, 224939, Control_c, 0, 67, 41
1, 224951, Note_on_c, 0, 74, 61
1, 224953, Control_c, 0, 64, 60
1, 224953, Control_c, 0, 67, 40
1, 224968, Control_c, 0, 64, 64
1, 224968, Control_c, 0, 67, 38
1, 224983, Control_c, 0, 64, 66
1, 224983, Control_c, 0, 67, 36
1, 224996, Note_off_c, 0, 77, 37
1, 224998, Control_c, 0, 64, 67
1, 224998, Control_c, 0, 67, 35
1, 225013, Control_c, 0, 64, 68
1, 225013, Control_c, 0, 67, 34
1, 225027, Control_c, 0, 64, 70
1, 225027, Control_c, 0, 67, 32
1, 225042, Control_c, 0, 64, 73
1, 225042, Control_c, 0, 67, 30
1, 225057, Control_c, 0, 64, 76
1, 225057, Control_c, 0, 67, 28
1, 225072, Control_c, 0, 64, 79
1, 225072, Control_c, 0, 67, 26
1, 225086, Control_c, 0, 64, 81
1, 225086, Control_c, 0, 67, 24
1, 225101, Control_c, 0, 64, 84
1, 225101, Control_c, 0, 67, 21
1, 225115, Control_c, 0, 64, 87
1, 225115, Control_c, 0, 67, 20
1, 225130, Control_c, 0, 64, 91
1, 225130, Control_c, 0, 67, 19
1, 225131, Note_on_c, 0, 77, 64
1, 225145, Control_c, 0, 64, 94
1, 225145, Control_c, 0, 67, 18
1, 225159, Control_c, 0, 64, 98
1, 225159, Control_c, 0, 67, 16
1, 225174, Control_c, 0, 64, 101
1, 225174, Control_c, 0, 67, 14
1, 225189, Control_c, 0, 64, 105
1, 225189, Control_c, 0, 67, 12
1, 225195, Note_off_c, 0, 32, 37
1, 225204, Control_c, 0, 64, 109
1, 225204, Control_c, 0, 67, 10
1, 225219, Control_c, 0, 64, 115
1, 225219, Control_c, 0, 67, 8
1, 225234, Control_c, 0, 64, 122
1, 225234, Control_c, 0, 67, 0
1, 225249, Control_c, 0, 64, 127
1, 225297, Note_off_c, 0, 77, 61
1, 225305, Note_on_c, 0, 75, 65
1, 225319, Note_off_c, 0, 74, 41
1, 225495, Note_on_c, 0, 82, 64
1, 225511, Note_off_c, 0, 36, 32
1, 225517, Note_off_c, 0, 75, 47
1, 225563, Note_off_c, 0, 39, 40
1, 225640, Note_off_c, 0, 44, 40
1, 225681, Note_on_c, 0, 79, 65
1, 225692, Note_off_c, 0, 82, 61
1, 225859, Note_on_c, 0, 82, 65
1, 226037, Note_on_c, 0, 80, 63
1, 226072, Control_c, 0, 64, 122
1, 226086, Control_c, 0, 64, 117
1, 226102, Control_c, 0, 64, 114
1, 226116, Control_c, 0, 64, 110
1, 226131, Control_c, 0, 64, 108
1, 226146, Note_off_c, 0, 79, 32
1, 226146, Control_c, 0, 64, 105
1, 226161, Control_c, 0, 64, 103
1, 226176, Control_c, 0, 64, 100
1, 226191, Control_c, 0, 64, 98
1, 226197, Note_off_c, 0, 82, 45
1, 226206, Control_c, 0, 64, 96
1, 226221, Control_c, 0, 64, 91
1, 226234, Note_on_c, 0, 85, 63
1, 226236, Control_c, 0, 64, 81
1, 226245, Note_on_c, 0, 56, 51
1, 226250, Control_c, 0, 64, 69
1, 226254, Note_on_c, 0, 48, 38
1, 226255, Note_on_c, 0, 44, 36
1, 226263, Note_on_c, 0, 51, 38
1, 226265, Control_c, 0, 64, 60
1, 226280, Control_c, 0, 64, 43
1, 226291, Note_off_c, 0, 80, 46
1, 226295, Control_c, 0, 64, 27
1, 226310, Control_c, 0, 64, 24
1, 226324, Control_c, 0, 64, 24
1, 226354, Control_c, 0, 64, 24
1, 226376, Control_c, 0, 64, 29
1, 226391, Control_c, 0, 64, 36
1, 226405, Control_c, 0, 64, 45
1, 226420, Control_c, 0, 64, 54
1, 226435, Control_c, 0, 64, 63
1, 226444, Note_on_c, 0, 83, 64
1, 226447, Note_off_c, 0, 85, 62
1, 226450, Control_c, 0, 64, 70
1, 226465, Control_c, 0, 64, 75
1, 226476, Note_off_c, 0, 44, 33
1, 226480, Control_c, 0, 64, 76
1, 226495, Control_c, 0, 64, 79
1, 226495, Note_off_c, 0, 51, 41
1, 226510, Control_c, 0, 64, 85
1, 226524, Control_c, 0, 64, 91
1, 226537, Note_off_c, 0, 48, 42
1, 226539, Control_c, 0, 64, 99
1, 226554, Control_c, 0, 64, 108
1, 226569, Control_c, 0, 64, 127
1, 226623, Note_off_c, 0, 56, 34
1, 226630, Note_on_c, 0, 85, 66
1, 226798, Note_on_c, 0, 84, 65
1, 226996, Note_on_c, 0, 89, 67
1, 227017, Note_on_c, 0, 63, 48
1, 227021, Note_on_c, 0, 56, 42
1, 227022, Note_off_c, 0, 85, 31
1, 227034, Note_on_c, 0, 60, 37
1, 227056, Note_off_c, 0, 83, 36
1, 227067, Note_off_c, 0, 84, 59
1, 227207, Note_on_c, 0, 86, 75
1, 227209, Note_off_c, 0, 60, 34
1, 227227, Note_off_c, 0, 89, 54
1, 227295, Note_off_c, 0, 56, 41
1, 227303, Control_c, 0, 64, 110
1, 227318, Control_c, 0, 64, 105
1, 227332, Control_c, 0, 64, 100
1, 227347, Control_c, 0, 64, 96
1, 227362, Control_c, 0, 64, 93
1, 227377, Control_c, 0, 64, 90
1, 227380, Note_on_c, 0, 89, 73
1, 227392, Control_c, 0, 64, 88
1, 227405, Note_off_c, 0, 63, 43
1, 227407, Control_c, 0, 64, 86
1, 227422, Control_c, 0, 64, 84
1, 227437, Control_c, 0, 64, 83
1, 227452, Control_c, 0, 64, 83
1, 227466, Control_c, 0, 64, 82
1, 227481, Control_c, 0, 64, 81
1, 227496, Control_c, 0, 64, 81
1, 227511, Control_c, 0, 64, 80
1, 227526, Control_c, 0, 64, 80
1, 227541, Control_c, 0, 64, 79
1, 227568, Note_on_c, 0, 87, 75
1, 227570, Control_c, 0, 64, 79
1, 227585, Control_c, 0, 64, 78
1, 227615, Control_c, 0, 64, 78
1, 227629, Control_c, 0, 64, 77
1, 227644, Control_c, 0, 64, 77
1, 227659, Control_c, 0, 64, 76
1, 227673, Control_c, 0, 64, 76
1, 227681, Note_off_c, 0, 87, 47
1, 227688, Control_c, 0, 64, 75
1, 227705, Control_c, 0, 64, 75
1, 227710, Note_off_c, 0, 86, 31
1, 227719, Control_c, 0, 64, 74
1, 227734, Control_c, 0, 64, 73
1, 227749, Control_c, 0, 64, 72
1, 227764, Control_c, 0, 64, 70
1, 227778, Control_c, 0, 64, 66
1, 227790, Note_on_c, 0, 87, 70
1, 227793, Control_c, 0, 64, 62
1, 227806, Note_on_c, 0, 62, 45
1, 227808, Control_c, 0, 64, 53
1, 227821, Note_on_c, 0, 58, 41
1, 227823, Control_c, 0, 64, 39
1, 227825, Note_on_c, 0, 53, 36
1, 227826, Note_on_c, 0, 56, 41
1, 227837, Control_c, 0, 64, 23
1, 227852, Control_c, 0, 64, 10
1, 227875, Control_c, 0, 64, 0
1, 227890, Note_off_c, 0, 62, 0
1, 227890, Note_on_c, 0, 62, 3
1, 227964, Control_c, 0, 64, 23
1, 227978, Control_c, 0, 64, 33
1, 227993, Control_c, 0, 64, 41
1, 227995, Note_on_c, 0, 84, 69
1, 228008, Control_c, 0, 64, 52
1, 228023, Control_c, 0, 64, 60
1, 228027, Note_off_c, 0, 87, 54
1, 228038, Control_c, 0, 64, 67
1, 228052, Control_c, 0, 64, 70
1, 228067, Control_c, 0, 64, 71
1, 228082, Control_c, 0, 64, 73
1, 228096, Control_c, 0, 64, 78
1, 228107, Note_off_c, 0, 89, 35
1, 228109, Note_off_c, 0, 56, 42
1, 228111, Control_c, 0, 64, 82
1, 228121, Note_off_c, 0, 58, 41
1, 228126, Control_c, 0, 64, 86
1, 228131, Note_off_c, 0, 53, 45
1, 228141, Control_c, 0, 64, 91
1, 228156, Control_c, 0, 64, 95
1, 228169, Note_off_c, 0, 62, 40
1, 228170, Control_c, 0, 64, 101
1, 228179, Note_on_c, 0, 87, 70
1, 228185, Control_c, 0, 64, 111
1, 228200, Control_c, 0, 64, 127
1, 228239, Note_off_c, 0, 84, 59
1, 228361, Note_on_c, 0, 86, 71
1, 228380, Note_off_c, 0, 87, 59
1, 228576, Note_on_c, 0, 96, 69
1, 228587, Note_on_c, 0, 62, 46
1, 228602, Note_on_c, 0, 56, 37
1, 228609, Note_on_c, 0, 58, 34
1, 228623, Note_on_c, 0, 53, 33
1, 228800, Note_on_c, 0, 93, 69
1, 228847, Note_off_c, 0, 96, 50
1, 228988, Note_on_c, 0, 96, 64
1, 229033, Note_off_c, 0, 93, 55
1, 229133, Note_off_c, 0, 86, 26
1, 229177, Note_on_c, 0, 94, 72
1, 229313, Note_off_c, 0, 62, 38
1, 229374, Note_on_c, 0, 87, 62
1, 229434, Note_off_c, 0, 53, 29
1, 229526, Note_off_c, 0, 58, 40
1, 229557, Note_on_c, 0, 84, 62
1, 229588, Note_off_c, 0, 96, 30
1, 229598, Note_off_c, 0, 87, 55
1, 229620, Note_off_c, 0, 94, 29
1, 229738, Note_on_c, 0, 87, 57
1, 229767, Note_off_c, 0, 84, 54
1, 229785, Note_off_c, 0, 56, 36
1, 229920, Note_on_c, 0, 86, 58
1, 230072, Note_off_c, 0, 87, 40
1, 230097, Control_c, 0, 64, 110
1, 230120, Control_c, 0, 64, 85
1, 230126, Note_on_c, 0, 89, 55
1, 230135, Control_c, 0, 64, 70
1, 230140, Note_on_c, 0, 63, 38
1, 230144, Note_on_c, 0, 58, 37
1, 230149, Control_c, 0, 64, 61
1, 230152, Note_on_c, 0, 55, 28
1, 230164, Control_c, 0, 64, 50
1, 230173, Note_on_c, 0, 51, 28
1, 230179, Control_c, 0, 64, 34
1, 230194, Control_c, 0, 64, 23
1, 230207, Note_off_c, 0, 86, 35
1, 230209, Control_c, 0, 64, 22
1, 230253, Control_c, 0, 64, 24
1, 230268, Control_c, 0, 64, 30
1, 230283, Control_c, 0, 64, 40
1, 230297, Control_c, 0, 64, 53
1, 230312, Control_c, 0, 64, 63
1, 230322, Note_on_c, 0, 86, 61
1, 230327, Control_c, 0, 64, 71
1, 230337, Note_off_c, 0, 89, 53
1, 230342, Control_c, 0, 64, 73
1, 230357, Control_c, 0, 64, 74
1, 230371, Control_c, 0, 64, 80
1, 230386, Control_c, 0, 64, 88
1, 230401, Control_c, 0, 64, 97
1, 230416, Control_c, 0, 64, 108
1, 230431, Control_c, 0, 64, 127
1, 230448, Note_off_c, 0, 63, 45
1, 230457, Note_off_c, 0, 58, 41
1, 230475, Note_off_c, 0, 55, 40
1, 230480, Note_off_c, 0, 51, 42
1, 230521, Note_on_c, 0, 89, 62
1, 230696, Note_on_c, 0, 87, 70
1, 230707, Note_off_c, 0, 89, 64
1, 230915, Note_on_c, 0, 96, 71
1, 230924, Note_on_c, 0, 63, 45
1, 230932, Note_on_c, 0, 58, 39
1, 230936, Note_on_c, 0, 51, 40
1, 230954, Note_on_c, 0, 55, 34
1, 230985, Note_off_c, 0, 87, 34
1, 231120, Note_on_c, 0, 93, 73
1, 231167, Note_off_c, 0, 96, 57
1, 231263, Note_off_c, 0, 51, 0
1, 231306, Note_on_c, 0, 96, 66
1, 231309, Note_off_c, 0, 58, 36
1, 231312, Note_off_c, 0, 55, 40
1, 231319, Poly_aftertouch_c, 0, 51, 0
1, 231344, Note_off_c, 0, 63, 40
1, 231387, Note_off_c, 0, 93, 50
1, 231482, Note_on_c, 0, 94, 76
1, 231694, Note_on_c, 0, 89, 70
1, 231694, Note_off_c, 0, 86, 37
1, 231705, Note_on_c, 0, 63, 53
1, 231718, Note_on_c, 0, 58, 45
1, 231720, Note_on_c, 0, 51, 40
1, 231734, Note_on_c, 0, 55, 35
1, 231834, Note_off_c, 0, 96, 37
1, 231855, Note_off_c, 0, 94, 57
1, 231887, Note_on_c, 0, 86, 76
1, 231916, Note_off_c, 0, 89, 63
1, 231929, Note_off_c, 0, 63, 53
1, 231961, Note_off_c, 0, 51, 36
1, 232001, Note_off_c, 0, 58, 54
1, 232079, Note_on_c, 0, 89, 77
1, 232149, Note_off_c, 0, 55, 36
1, 232251, Note_on_c, 0, 87, 80
1, 232370, Note_off_c, 0, 87, 55
1, 232400, Note_off_c, 0, 86, 31
1, 232477, Note_on_c, 0, 87, 74
1, 232484, Control_c, 0, 64, 92
1, 232489, Note_on_c, 0, 62, 55
1, 232499, Control_c, 0, 64, 67
1, 232502, Note_on_c, 0, 58, 47
1, 232506, Note_on_c, 0, 53, 42
1, 232514, Control_c, 0, 64, 56
1, 232522, Note_on_c, 0, 56, 39
1, 232529, Control_c, 0, 64, 38
1, 232544, Control_c, 0, 64, 23
1, 232559, Control_c, 0, 64, 20
1, 232573, Control_c, 0, 64, 18
1, 232588, Control_c, 0, 64, 16
1, 232618, Control_c, 0, 64, 19
1, 232633, Control_c, 0, 64, 28
1, 232647, Control_c, 0, 64, 39
1, 232662, Control_c, 0, 64, 50
1, 232674, Note_on_c, 0, 84, 72
1, 232677, Control_c, 0, 64, 63
1, 232692, Control_c, 0, 64, 71
1, 232707, Control_c, 0, 64, 74
1, 232707, Note_off_c, 0, 89, 22
1, 232713, Note_off_c, 0, 87, 54
1, 232722, Control_c, 0, 64, 76
1, 232737, Control_c, 0, 64, 82
1, 232752, Control_c, 0, 64, 90
1, 232766, Control_c, 0, 64, 99
1, 232781, Control_c, 0, 64, 115
1, 232792, Note_off_c, 0, 58, 36
1, 232794, Note_off_c, 0, 62, 37
1, 232796, Control_c, 0, 64, 127
1, 232802, Note_off_c, 0, 53, 41
1, 232810, Note_off_c, 0, 56, 38
1, 232849, Note_on_c, 0, 87, 70
1, 232902, Note_off_c, 0, 84, 62
1, 233024, Note_on_c, 0, 86, 79
1, 233064, Note_off_c, 0, 87, 64
1, 233267, Note_on_c, 0, 96, 75
1, 233291, Note_on_c, 0, 62, 56
1, 233309, Note_on_c, 0, 53, 36
1, 233310, Note_on_c, 0, 58, 40
1, 233317, Note_on_c, 0, 56, 40
1, 233502, Note_on_c, 0, 93, 81
1, 233556, Note_off_c, 0, 96, 56
1, 233695, Note_on_c, 0, 96, 80
1, 233729, Note_off_c, 0, 86, 31
1, 233756, Note_off_c, 0, 93, 61
1, 233890, Note_on_c, 0, 94, 80
1, 233914, Note_off_c, 0, 62, 36
1, 234069, Poly_aftertouch_c, 0, 95, 127
1, 234081, Note_on_c, 0, 87, 80
1, 234139, Note_off_c, 0, 58, 35
1, 234183, Note_off_c, 0, 96, 37
1, 234251, Poly_aftertouch_c, 0, 95, 0
1, 234266, Note_off_c, 0, 94, 50
1, 234266, Note_on_c, 0, 84, 76
1, 234281, Note_off_c, 0, 53, 42
1, 234318, Note_off_c, 0, 87, 60
1, 234433, Note_off_c, 0, 56, 38
1, 234472, Note_on_c, 0, 87, 78
1, 234679, Note_on_c, 0, 86, 77
1, 234752, Note_off_c, 0, 84, 37
1, 234850, Control_c, 0, 64, 119
1, 234864, Control_c, 0, 64, 106
1, 234880, Control_c, 0, 64, 99
1, 234895, Control_c, 0, 64, 93
1, 234910, Control_c, 0, 64, 86
1, 234910, Note_on_c, 0, 89, 76
1, 234917, Note_on_c, 0, 55, 40
1, 234925, Note_on_c, 0, 63, 44
1, 234925, Control_c, 0, 64, 77
1, 234937, Note_on_c, 0, 51, 41
1, 234937, Note_on_c, 0, 58, 43
1, 234940, Note_off_c, 0, 87, 35
1, 234940, Control_c, 0, 64, 70
1, 234955, Control_c, 0, 64, 63
1, 234967, Note_off_c, 0, 86, 59
1, 234969, Control_c, 0, 64, 52
1, 234984, Control_c, 0, 64, 29
1, 234999, Control_c, 0, 64, 10
1, 235014, Control_c, 0, 64, 0
1, 235087, Control_c, 0, 64, 11
1, 235102, Control_c, 0, 64, 24
1, 235117, Control_c, 0, 64, 33
1, 235132, Control_c, 0, 64, 42
1, 235145, Note_on_c, 0, 86, 75
1, 235147, Control_c, 0, 64, 52
1, 235161, Control_c, 0, 64, 62
1, 235176, Control_c, 0, 64, 69
1, 235191, Control_c, 0, 64, 71
1, 235206, Control_c, 0, 64, 72
1, 235217, Note_off_c, 0, 89, 58
1, 235221, Control_c, 0, 64, 74
1, 235228, Note_off_c, 0, 55, 43
1, 235235, Control_c, 0, 64, 79
1, 235250, Control_c, 0, 64, 84
1, 235265, Note_off_c, 0, 63, 36
1, 235265, Control_c, 0, 64, 91
1, 235280, Control_c, 0, 64, 96
1, 235294, Control_c, 0, 64, 101
1, 235309, Control_c, 0, 64, 109
1, 235324, Control_c, 0, 64, 127
1, 235366, Note_off_c, 0, 58, 32
1, 235381, Note_on_c, 0, 89, 71
1, 235445, Note_off_c, 0, 86, 61
1, 235507, Note_off_c, 0, 51, 43
1, 235631, Note_on_c, 0, 87, 72
1, 235727, Note_off_c, 0, 89, 34
1, 235865, Control_c, 0, 67, 8
1, 235880, Control_c, 0, 67, 9
1, 235895, Control_c, 0, 67, 11
1, 235909, Control_c, 0, 67, 12
1, 235924, Control_c, 0, 67, 14
1, 235939, Control_c, 0, 67, 16
1, 235954, Control_c, 0, 67, 19
1, 235965, Note_off_c, 0, 87, 31
1, 235969, Control_c, 0, 67, 20
1, 235983, Control_c, 0, 67, 22
1, 235998, Control_c, 0, 67, 25
1, 236013, Control_c, 0, 67, 28
1, 236028, Control_c, 0, 67, 31
1, 236043, Control_c, 0, 67, 33
1, 236058, Control_c, 0, 67, 35
1, 236072, Control_c, 0, 67, 37
1, 236087, Control_c, 0, 67, 40
1, 236109, Control_c, 0, 67, 42
1, 236124, Control_c, 0, 67, 43
1, 236139, Control_c, 0, 67, 44
1, 236154, Control_c, 0, 67, 45
1, 236169, Control_c, 0, 67, 46
1, 236183, Control_c, 0, 67, 47
1, 236198, Control_c, 0, 67, 49
1, 236213, Control_c, 0, 64, 122
1, 236213, Control_c, 0, 67, 50
1, 236228, Note_on_c, 0, 89, 61
1, 236228, Control_c, 0, 64, 103
1, 236228, Control_c, 0, 67, 51
1, 236239, Note_on_c, 0, 58, 35
1, 236242, Control_c, 0, 64, 95
1, 236242, Control_c, 0, 67, 52
1, 236243, Note_on_c, 0, 79, 44
1, 236250, Note_on_c, 0, 49, 29
1, 236257, Control_c, 0, 64, 88
1, 236257, Control_c, 0, 67, 53
1, 236272, Control_c, 0, 64, 80
1, 236272, Control_c, 0, 67, 54
1, 236287, Control_c, 0, 64, 74
1, 236287, Control_c, 0, 67, 55
1, 236302, Control_c, 0, 64, 68
1, 236302, Control_c, 0, 67, 56
1, 236317, Control_c, 0, 64, 62
1, 236317, Control_c, 0, 67, 57
1, 236332, Control_c, 0, 64, 56
1, 236347, Control_c, 0, 64, 48
1, 236347, Control_c, 0, 67, 57
1, 236362, Control_c, 0, 64, 41
1, 236377, Control_c, 0, 64, 38
1, 236377, Control_c, 0, 67, 58
1, 236391, Control_c, 0, 64, 34
1, 236406, Control_c, 0, 64, 26
1, 236421, Control_c, 0, 64, 18
1, 236435, Control_c, 0, 64, 11
1, 236450, Control_c, 0, 64, 0
1, 236450, Control_c, 0, 67, 58
1, 236465, Control_c, 0, 67, 59
1, 236555, Control_c, 0, 64, 13
1, 236570, Control_c, 0, 64, 22
1, 236585, Control_c, 0, 64, 27
1, 236599, Control_c, 0, 64, 33
1, 236614, Control_c, 0, 64, 40
1, 236629, Control_c, 0, 64, 48
1, 236629, Control_c, 0, 67, 58
1, 236644, Control_c, 0, 64, 55
1, 236658, Control_c, 0, 64, 61
1, 236658, Control_c, 0, 67, 58
1, 236673, Control_c, 0, 64, 64
1, 236688, Control_c, 0, 64, 67
1, 236688, Control_c, 0, 67, 57
1, 236703, Control_c, 0, 64, 68
1, 236703, Control_c, 0, 67, 57
1, 236718, Control_c, 0, 64, 70
1, 236732, Control_c, 0, 64, 72
1, 236732, Control_c, 0, 67, 56
1, 236747, Control_c, 0, 64, 75
1, 236747, Control_c, 0, 67, 56
1, 236762, Control_c, 0, 64, 79
1, 236762, Control_c, 0, 67, 55
1, 236777, Control_c, 0, 64, 82
1, 236777, Control_c, 0, 67, 54
1, 236792, Control_c, 0, 64, 86
1, 236792, Control_c, 0, 67, 53
1, 236806, Control_c, 0, 64, 90
1, 236806, Control_c, 0, 67, 52
1, 236821, Control_c, 0, 64, 95
1, 236821, Control_c, 0, 67, 51
1, 236836, Control_c, 0, 64, 103
1, 236858, Control_c, 0, 64, 113
1, 236873, Control_c, 0, 64, 127
1, 236873, Control_c, 0, 67, 51
1, 236888, Control_c, 0, 67, 50
1, 236903, Control_c, 0, 67, 49
1, 236918, Control_c, 0, 67, 48
1, 236932, Control_c, 0, 67, 48
1, 236942, Note_off_c, 0, 58, 38
1, 236947, Control_c, 0, 67, 47
1, 236962, Control_c, 0, 67, 46
1, 236977, Control_c, 0, 67, 45
1, 236992, Control_c, 0, 67, 43
1, 237006, Control_c, 0, 67, 42
1, 237021, Control_c, 0, 67, 42
1, 237036, Control_c, 0, 67, 40
1, 237051, Control_c, 0, 67, 38
1, 237065, Control_c, 0, 67, 36
1, 237080, Control_c, 0, 67, 35
1, 237095, Control_c, 0, 67, 34
1, 237125, Control_c, 0, 67, 34
1, 237184, Control_c, 0, 67, 34
1, 237199, Control_c, 0, 67, 35
1, 237229, Control_c, 0, 67, 35
1, 237244, Control_c, 0, 67, 36
1, 237258, Control_c, 0, 67, 36
1, 237274, Control_c, 0, 67, 37
1, 237304, Control_c, 0, 67, 37
1, 237322, Note_off_c, 0, 49, 36
1, 237333, Control_c, 0, 67, 38
1, 237363, Control_c, 0, 67, 38
1, 237378, Control_c, 0, 67, 39
1, 237393, Control_c, 0, 67, 40
1, 237408, Control_c, 0, 67, 40
1, 237422, Control_c, 0, 67, 41
1, 237452, Control_c, 0, 67, 41
1, 237481, Control_c, 0, 67, 42
1, 237496, Control_c, 0, 67, 42
1, 237511, Control_c, 0, 67, 43
1, 237526, Control_c, 0, 67, 43
1, 237541, Control_c, 0, 67, 44
1, 237555, Control_c, 0, 67, 44
1, 237570, Control_c, 0, 67, 45
1, 237637, Control_c, 0, 67, 45
1, 237696, Control_c, 0, 67, 46
1, 237726, Control_c, 0, 67, 46
1, 237904, Control_c, 0, 64, 94
1, 237905, Note_off_c, 0, 79, 30
1, 237919, Control_c, 0, 64, 75
1, 237932, Note_on_c, 0, 87, 63
1, 237934, Control_c, 0, 64, 61
1, 237943, Note_on_c, 0, 80, 57
1, 237948, Note_on_c, 0, 60, 37
1, 237949, Control_c, 0, 64, 47
1, 237963, Control_c, 0, 64, 31
1, 237970, Note_on_c, 0, 48, 23
1, 237978, Control_c, 0, 64, 26
1, 237978, Control_c, 0, 67, 47
1, 238019, Note_off_c, 0, 89, 42
1, 238037, Control_c, 0, 64, 28
1, 238052, Control_c, 0, 64, 34
1, 238067, Control_c, 0, 64, 41
1, 238083, Control_c, 0, 64, 51
1, 238083, Control_c, 0, 67, 46
1, 238097, Control_c, 0, 64, 60
1, 238112, Control_c, 0, 64, 68
1, 238127, Control_c, 0, 64, 77
1, 238141, Note_off_c, 0, 87, 53
1, 238142, Control_c, 0, 64, 78
1, 238157, Control_c, 0, 64, 81
1, 238172, Control_c, 0, 64, 87
1, 238182, Note_off_c, 0, 60, 40
1, 238186, Control_c, 0, 64, 93
1, 238189, Note_off_c, 0, 80, 44
1, 238201, Control_c, 0, 64, 100
1, 238209, Note_off_c, 0, 48, 43
1, 238216, Control_c, 0, 64, 108
1, 238231, Control_c, 0, 64, 127
1, 238606, Note_on_c, 0, 75, 58
1, 238627, Note_on_c, 0, 68, 46
1, 238639, Note_on_c, 0, 60, 26
1, 238652, Note_on_c, 0, 48, 30
1, 238965, Control_c, 0, 67, 47
1, 239009, Control_c, 0, 67, 47
1, 239106, Control_c, 0, 67, 48
1, 239165, Control_c, 0, 67, 49
1, 239180, Control_c, 0, 67, 51
1, 239195, Control_c, 0, 67, 53
1, 239209, Control_c, 0, 67, 54
1, 239224, Control_c, 0, 67, 54
1, 239239, Control_c, 0, 67, 55
1, 239253, Control_c, 0, 64, 97
1, 239253, Control_c, 0, 67, 55
1, 239268, Control_c, 0, 64, 77
1, 239268, Control_c, 0, 67, 56
1, 239283, Control_c, 0, 64, 65
1, 239283, Control_c, 0, 67, 56
1, 239298, Control_c, 0, 64, 60
1, 239298, Control_c, 0, 67, 57
1, 239313, Control_c, 0, 64, 59
1, 239313, Control_c, 0, 67, 58
1, 239328, Control_c, 0, 64, 60
1, 239343, Control_c, 0, 64, 62
1, 239357, Control_c, 0, 64, 64
1, 239372, Control_c, 0, 64, 68
1, 239387, Control_c, 0, 64, 71
1, 239387, Control_c, 0, 67, 58
1, 239402, Control_c, 0, 64, 74
1, 239417, Control_c, 0, 64, 78
1, 239417, Control_c, 0, 67, 59
1, 239432, Control_c, 0, 64, 81
1, 239446, Control_c, 0, 64, 83
1, 239461, Control_c, 0, 64, 86
1, 239461, Control_c, 0, 67, 59
1, 239476, Control_c, 0, 64, 89
1, 239476, Control_c, 0, 67, 60
1, 239491, Control_c, 0, 64, 90
1, 239491, Control_c, 0, 67, 61
1, 239506, Control_c, 0, 64, 91
1, 239506, Control_c, 0, 67, 62
1, 239520, Control_c, 0, 64, 91
1, 239520, Control_c, 0, 67, 63
1, 239535, Control_c, 0, 64, 92
1, 239535, Control_c, 0, 67, 64
1, 239550, Control_c, 0, 64, 93
1, 239550, Control_c, 0, 67, 64
1, 239565, Control_c, 0, 64, 94
1, 239565, Control_c, 0, 67, 66
1, 239579, Control_c, 0, 64, 95
1, 239579, Control_c, 0, 67, 67
1, 239594, Control_c, 0, 67, 69
1, 239609, Control_c, 0, 67, 70
1, 239624, Control_c, 0, 67, 71
1, 239628, Note_off_c, 0, 60, 40
1, 239639, Control_c, 0, 64, 96
1, 239639, Control_c, 0, 67, 72
1, 239653, Control_c, 0, 67, 72
1, 239668, Control_c, 0, 67, 73
1, 239729, Control_c, 0, 67, 73
1, 239758, Control_c, 0, 67, 74
1, 239773, Control_c, 0, 67, 75
1, 239788, Control_c, 0, 67, 77
1, 239803, Control_c, 0, 67, 78
1, 239818, Control_c, 0, 67, 80
1, 239827, Note_off_c, 0, 68, 32
1, 239832, Control_c, 0, 67, 81
1, 239855, Control_c, 0, 67, 83
1, 239870, Control_c, 0, 67, 84
1, 239884, Control_c, 0, 67, 85
1, 239899, Control_c, 0, 67, 87
1, 239914, Control_c, 0, 67, 89
1, 239929, Control_c, 0, 67, 90
1, 239944, Control_c, 0, 67, 92
1, 239958, Control_c, 0, 64, 95
1, 239958, Control_c, 0, 67, 93
1, 239973, Control_c, 0, 67, 94
1, 239988, Control_c, 0, 67, 95
1, 240002, Control_c, 0, 67, 96
1, 240017, Control_c, 0, 64, 95
1, 240017, Control_c, 0, 67, 97
1, 240032, Control_c, 0, 67, 98
1, 240047, Control_c, 0, 64, 94
1, 240047, Control_c, 0, 67, 99
1, 240062, Control_c, 0, 67, 99
1, 240076, Control_c, 0, 67, 100
1, 240091, Control_c, 0, 67, 100
1, 240106, Control_c, 0, 64, 94
1, 240106, Control_c, 0, 67, 101
1, 240121, Control_c, 0, 67, 102
1, 240135, Control_c, 0, 67, 103
1, 240150, Control_c, 0, 64, 93
1, 240150, Control_c, 0, 67, 103
1, 240165, Control_c, 0, 67, 104
1, 240180, Control_c, 0, 67, 105
1, 240194, Control_c, 0, 67, 105
1, 240224, Control_c, 0, 64, 93
1, 240224, Control_c, 0, 67, 106
1, 240239, Control_c, 0, 64, 92
1, 240254, Control_c, 0, 64, 92
1, 240254, Control_c, 0, 67, 106
1, 240268, Control_c, 0, 64, 90
1, 240268, Control_c, 0, 67, 107
1, 240283, Control_c, 0, 64, 87
1, 240298, Control_c, 0, 64, 82
1, 240313, Control_c, 0, 64, 73
1, 240328, Control_c, 0, 64, 62
1, 240332, Note_on_c, 0, 73, 56
1, 240340, Note_on_c, 0, 70, 52
1, 240343, Control_c, 0, 64, 49
1, 240357, Control_c, 0, 64, 31
1, 240359, Note_on_c, 0, 52, 37
1, 240361, Note_on_c, 0, 55, 38
1, 240372, Control_c, 0, 64, 15
1, 240387, Control_c, 0, 64, 12
1, 240389, Note_off_c, 0, 48, 39
1, 240400, Note_off_c, 0, 73, 0
1, 240400, Note_on_c, 0, 73, 25
1, 240401, Control_c, 0, 64, 11
1, 240404, Note_off_c, 0, 75, 35
1, 240416, Control_c, 0, 64, 9
1, 240416, Control_c, 0, 67, 106
1, 240431, Control_c, 0, 64, 10
1, 240431, Control_c, 0, 67, 105
1, 240446, Control_c, 0, 64, 14
1, 240446, Control_c, 0, 67, 104
1, 240461, Control_c, 0, 64, 24
1, 240461, Control_c, 0, 67, 102
1, 240477, Control_c, 0, 64, 33
1, 240477, Control_c, 0, 67, 101
1, 240491, Control_c, 0, 64, 41
1, 240491, Control_c, 0, 67, 99
1, 240506, Control_c, 0, 64, 50
1, 240506, Control_c, 0, 67, 98
1, 240521, Control_c, 0, 64, 60
1, 240521, Control_c, 0, 67, 96
1, 240532, Note_off_c, 0, 55, 42
1, 240536, Control_c, 0, 64, 68
1, 240536, Control_c, 0, 67, 94
1, 240542, Note_off_c, 0, 52, 42
1, 240551, Control_c, 0, 64, 76
1, 240551, Control_c, 0, 67, 91
1, 240562, Note_off_c, 0, 70, 38
1, 240566, Control_c, 0, 64, 77
1, 240566, Control_c, 0, 67, 87
1, 240580, Control_c, 0, 64, 79
1, 240580, Control_c, 0, 67, 85
1, 240602, Note_off_c, 0, 73, 45
1, 240603, Control_c, 0, 64, 83
1, 240603, Control_c, 0, 67, 84
1, 240618, Control_c, 0, 64, 91
1, 240618, Control_c, 0, 67, 82
1, 240632, Control_c, 0, 64, 98
1, 240632, Control_c, 0, 67, 78
1, 240647, Control_c, 0, 64, 107
1, 240647, Control_c, 0, 67, 74
1, 240662, Control_c, 0, 64, 127
1, 240662, Control_c, 0, 67, 73
1, 240847, Note_on_c, 0, 73, 56
1, 240860, Note_on_c, 0, 70, 49
1, 240868, Note_on_c, 0, 52, 33
1, 240875, Note_on_c, 0, 55, 36
1, 240973, Control_c, 0, 67, 72
1, 241003, Control_c, 0, 67, 72
1, 241048, Control_c, 0, 67, 71
1, 241063, Control_c, 0, 67, 70
1, 241077, Control_c, 0, 67, 67
1, 241092, Control_c, 0, 67, 64
1, 241107, Control_c, 0, 67, 63
1, 241122, Control_c, 0, 67, 60
1, 241137, Control_c, 0, 67, 58
1, 241152, Control_c, 0, 67, 55
1, 241166, Control_c, 0, 67, 54
1, 241181, Control_c, 0, 67, 53
1, 241196, Control_c, 0, 67, 52
1, 241211, Control_c, 0, 67, 51
1, 241271, Control_c, 0, 67, 52
1, 241301, Control_c, 0, 67, 52
1, 241315, Control_c, 0, 67, 53
1, 241352, Control_c, 0, 67, 53
1, 241382, Control_c, 0, 67, 54
1, 241397, Control_c, 0, 67, 54
1, 241411, Control_c, 0, 67, 55
1, 241426, Control_c, 0, 67, 55
1, 241441, Control_c, 0, 67, 56
1, 241471, Control_c, 0, 67, 57
1, 241501, Control_c, 0, 67, 57
1, 241516, Control_c, 0, 67, 58
1, 241530, Control_c, 0, 67, 58
1, 241545, Control_c, 0, 67, 59
1, 241575, Control_c, 0, 67, 59
1, 241603, Control_c, 0, 67, 60
1, 241633, Control_c, 0, 67, 60
1, 241677, Control_c, 0, 67, 61
1, 241707, Control_c, 0, 67, 61
1, 241751, Control_c, 0, 67, 62
1, 241763, Note_off_c, 0, 70, 19
1, 241811, Control_c, 0, 67, 62
1, 241841, Control_c, 0, 67, 63
1, 241873, Note_off_c, 0, 52, 29
1, 241900, Control_c, 0, 67, 63
1, 241915, Control_c, 0, 67, 64
1, 241929, Control_c, 0, 67, 64
1, 241944, Control_c, 0, 67, 65
1, 241959, Control_c, 0, 67, 66
1, 241973, Control_c, 0, 67, 67
1, 241988, Control_c, 0, 67, 68
1, 242003, Control_c, 0, 67, 69
1, 242018, Control_c, 0, 67, 70
1, 242033, Control_c, 0, 67, 71
1, 242047, Control_c, 0, 67, 72
1, 242063, Control_c, 0, 67, 74
1, 242078, Control_c, 0, 67, 75
1, 242100, Control_c, 0, 67, 76
1, 242115, Control_c, 0, 67, 78
1, 242130, Control_c, 0, 67, 79
1, 242145, Control_c, 0, 67, 81
1, 242159, Control_c, 0, 67, 82
1, 242174, Control_c, 0, 67, 83
1, 242189, Control_c, 0, 67, 84
1, 242204, Control_c, 0, 67, 86
1, 242219, Control_c, 0, 67, 88
1, 242234, Control_c, 0, 67, 90
1, 242249, Control_c, 0, 67, 92
1, 242264, Control_c, 0, 67, 93
1, 242278, Control_c, 0, 67, 94
1, 242293, Control_c, 0, 67, 96
1, 242308, Control_c, 0, 67, 99
1, 242323, Control_c, 0, 67, 102
1, 242337, Control_c, 0, 67, 106
1, 242351, Control_c, 0, 67, 109
1, 242366, Control_c, 0, 67, 111
1, 242381, Control_c, 0, 67, 113
1, 242395, Control_c, 0, 67, 115
1, 242410, Control_c, 0, 67, 117
1, 242425, Control_c, 0, 67, 120
1, 242440, Control_c, 0, 67, 123
1, 242455, Control_c, 0, 67, 125
1, 242470, Control_c, 0, 67, 127
1, 242484, Control_c, 0, 67, 127
1, 242648, Control_c, 0, 64, 111
1, 242663, Control_c, 0, 64, 97
1, 242673, Note_off_c, 0, 55, 6
1, 242677, Control_c, 0, 64, 85
1, 242692, Control_c, 0, 64, 74
1, 242707, Control_c, 0, 64, 64
1, 242711, Note_on_c, 0, 72, 52
1, 242718, Note_on_c, 0, 56, 36
1, 242722, Control_c, 0, 64, 48
1, 242726, Note_on_c, 0, 68, 37
1, 242727, Note_on_c, 0, 53, 38
1, 242737, Control_c, 0, 64, 24
1, 242751, Control_c, 0, 64, 0
1, 242765, Note_off_c, 0, 73, 42
1, 242825, Control_c, 0, 64, 11
1, 242848, Control_c, 0, 64, 24
1, 242863, Control_c, 0, 64, 34
1, 242878, Control_c, 0, 64, 43
1, 242893, Control_c, 0, 64, 53
1, 242908, Control_c, 0, 64, 61
1, 242919, Note_off_c, 0, 53, 43
1, 242923, Control_c, 0, 64, 69
1, 242932, Note_off_c, 0, 56, 44
1, 242937, Note_off_c, 0, 68, 40
1, 242938, Control_c, 0, 64, 74
1, 242946, Note_off_c, 0, 72, 33
1, 242952, Control_c, 0, 64, 74
1, 242967, Control_c, 0, 64, 77
1, 242982, Control_c, 0, 64, 81
1, 242997, Control_c, 0, 64, 87
1, 243012, Control_c, 0, 64, 94
1, 243026, Control_c, 0, 64, 100
1, 243041, Control_c, 0, 64, 105
1, 243056, Control_c, 0, 64, 114
1, 243071, Control_c, 0, 64, 127
1, 243273, Note_on_c, 0, 72, 52
1, 243288, Note_on_c, 0, 68, 41
1, 243291, Note_on_c, 0, 56, 33
1, 243306, Note_on_c, 0, 53, 33
1, 243993, Note_off_c, 0, 56, 30
1, 244448, Note_off_c, 0, 68, 26
1, 245161, Note_off_c, 0, 53, 23
1, 245289, Control_c, 0, 64, 119
1, 245303, Control_c, 0, 64, 106
1, 245318, Control_c, 0, 64, 95
1, 245333, Control_c, 0, 64, 83
1, 245348, Control_c, 0, 64, 71
1, 245357, Note_off_c, 0, 72, 29
1, 245363, Control_c, 0, 64, 61
1, 245372, Note_on_c, 0, 75, 45
1, 245376, Note_on_c, 0, 58, 39
1, 245377, Control_c, 0, 64, 47
1, 245383, Note_on_c, 0, 67, 38
1, 245392, Control_c, 0, 64, 24
1, 245394, Note_on_c, 0, 51, 26
1, 245407, Control_c, 0, 64, 11
1, 245421, Control_c, 0, 64, 0
1, 245510, Control_c, 0, 64, 18
1, 245525, Control_c, 0, 64, 31
1, 245540, Control_c, 0, 64, 41
1, 245555, Control_c, 0, 64, 52
1, 245570, Control_c, 0, 64, 61
1, 245583, Note_off_c, 0, 58, 41
1, 245585, Control_c, 0, 64, 69
1, 245591, Note_off_c, 0, 51, 40
1, 245599, Control_c, 0, 64, 73
1, 245614, Control_c, 0, 64, 74
1, 245629, Control_c, 0, 64, 75
1, 245632, Note_off_c, 0, 67, 40
1, 245632, Note_off_c, 0, 75, 31
1, 245644, Control_c, 0, 64, 78
1, 245659, Control_c, 0, 64, 82
1, 245674, Control_c, 0, 64, 86
1, 245688, Control_c, 0, 64, 91
1, 245703, Control_c, 0, 64, 95
1, 245718, Control_c, 0, 64, 99
1, 245733, Control_c, 0, 64, 105
1, 245748, Control_c, 0, 64, 114
1, 245762, Control_c, 0, 64, 127
1, 246121, Note_on_c, 0, 75, 41
1, 246125, Note_on_c, 0, 67, 33
1, 246146, Note_on_c, 0, 51, 21
1, 246149, Note_on_c, 0, 58, 17
1, 246459, Note_off_c, 0, 67, 40
1, 246558, Note_off_c, 0, 58, 35
1, 246925, Note_off_c, 0, 75, 37
1, 246962, Note_off_c, 0, 51, 18
1, 247563, Control_c, 0, 64, 119
1, 247579, Control_c, 0, 64, 108
1, 247593, Control_c, 0, 64, 98
1, 247608, Control_c, 0, 64, 84
1, 247623, Control_c, 0, 64, 69
1, 247638, Control_c, 0, 64, 58
1, 247640, Note_on_c, 0, 68, 36
1, 247653, Control_c, 0, 64, 42
1, 247668, Control_c, 0, 64, 30
1, 247679, Note_on_c, 0, 60, 7
1, 247680, Note_on_c, 0, 56, 26
1, 247683, Control_c, 0, 64, 29
1, 247713, Control_c, 0, 64, 31
1, 247728, Control_c, 0, 64, 36
1, 247743, Control_c, 0, 64, 43
1, 247758, Control_c, 0, 64, 52
1, 247767, Note_on_c, 0, 75, 41
1, 247772, Control_c, 0, 64, 61
1, 247787, Control_c, 0, 64, 70
1, 247802, Control_c, 0, 64, 75
1, 247816, Control_c, 0, 64, 77
1, 247820, Note_off_c, 0, 75, 52
1, 247826, Note_off_c, 0, 68, 34
1, 247831, Control_c, 0, 64, 79
1, 247846, Control_c, 0, 64, 84
1, 247861, Control_c, 0, 64, 89
1, 247876, Control_c, 0, 64, 95
1, 247880, Note_on_c, 0, 72, 35
1, 247890, Control_c, 0, 64, 102
1, 247905, Control_c, 0, 64, 113
1, 247920, Control_c, 0, 64, 127
1, 247948, Note_off_c, 0, 72, 38
1, 247950, Note_on_c, 0, 75, 45
1, 247978, Note_off_c, 0, 60, 37
1, 248003, Note_off_c, 0, 75, 53
1, 248037, Note_on_c, 0, 80, 57
1, 248136, Note_on_c, 0, 75, 54
1, 248139, Note_off_c, 0, 56, 38
1, 248183, Note_off_c, 0, 80, 36
1, 248184, Note_off_c, 0, 75, 58
1, 248229, Note_on_c, 0, 72, 44
1, 248282, Note_off_c, 0, 72, 41
1, 248308, Note_on_c, 0, 75, 39
1, 248336, Note_off_c, 0, 75, 54
1, 248389, Note_on_c, 0, 68, 38
1, 248422, Note_off_c, 0, 68, 52
1, 248463, Note_on_c, 0, 63, 50
1, 248524, Note_off_c, 0, 63, 63
1, 248557, Note_on_c, 0, 60, 53
1, 248646, Note_on_c, 0, 63, 43
1, 248656, Note_off_c, 0, 60, 39
1, 248682, Note_off_c, 0, 63, 62
1, 248715, Note_on_c, 0, 56, 55
1, 248749, Note_off_c, 0, 56, 67
1, 248813, Note_on_c, 0, 51, 53
1, 248884, Note_off_c, 0, 51, 62
1, 248915, Note_on_c, 0, 48, 48
1, 248974, Note_off_c, 0, 48, 53
1, 248996, Note_on_c, 0, 51, 42
1, 249033, Note_off_c, 0, 51, 64
1, 249072, Note_on_c, 0, 44, 49
1, 249102, Note_off_c, 0, 44, 59
1, 249171, Note_on_c, 0, 39, 42
1, 249228, Note_off_c, 0, 39, 63
1, 249267, Note_on_c, 0, 36, 37
1, 249308, Note_off_c, 0, 36, 50
1, 249349, Note_on_c, 0, 39, 26
1, 249373, Control_c, 0, 64, 122
1, 249388, Control_c, 0, 64, 119
1, 249388, Note_off_c, 0, 39, 41
1, 249403, Control_c, 0, 64, 117
1, 249418, Control_c, 0, 64, 114
1, 249424, Note_on_c, 0, 32, 50
1, 249433, Control_c, 0, 64, 113
1, 249448, Control_c, 0, 64, 111
1, 249462, Control_c, 0, 64, 109
1, 249477, Control_c, 0, 64, 108
1, 249492, Control_c, 0, 64, 108
1, 249507, Note_on_c, 0, 36, 46
1, 249507, Control_c, 0, 64, 107
1, 249522, Control_c, 0, 64, 106
1, 249536, Control_c, 0, 64, 105
1, 249551, Control_c, 0, 64, 105
1, 249565, Note_off_c, 0, 32, 34
1, 249566, Control_c, 0, 64, 104
1, 249588, Control_c, 0, 64, 103
1, 249603, Control_c, 0, 64, 102
1, 249603, Note_on_c, 0, 39, 32
1, 249618, Control_c, 0, 64, 101
1, 249633, Control_c, 0, 64, 100
1, 249648, Control_c, 0, 64, 97
1, 249659, Note_on_c, 0, 44, 49
1, 249662, Control_c, 0, 64, 92
1, 249663, Note_off_c, 0, 39, 56
1, 249677, Control_c, 0, 64, 87
1, 249692, Control_c, 0, 64, 78
1, 249695, Note_off_c, 0, 36, 42
1, 249697, Note_off_c, 0, 44, 61
1, 249707, Control_c, 0, 64, 65
1, 249721, Control_c, 0, 64, 55
1, 249736, Control_c, 0, 64, 37
1, 249751, Control_c, 0, 64, 8
1, 249766, Control_c, 0, 64, 0
1, 249809, Note_on_c, 0, 43, 43
1, 249817, Note_on_c, 0, 39, 37
1, 249818, Note_on_c, 0, 46, 38
1, 249829, Note_on_c, 0, 34, 38
1, 249855, Control_c, 0, 64, 16
1, 249869, Control_c, 0, 64, 29
1, 249884, Control_c, 0, 64, 40
1, 249892, Note_off_c, 0, 43, 38
1, 249899, Control_c, 0, 64, 50
1, 249903, Note_on_c, 0, 51, 43
1, 249913, Control_c, 0, 64, 58
1, 249928, Note_off_c, 0, 34, 37
1, 249928, Control_c, 0, 64, 64
1, 249939, Note_off_c, 0, 51, 60
1, 249943, Control_c, 0, 64, 66
1, 249948, Note_off_c, 0, 46, 40
1, 249958, Control_c, 0, 64, 67
1, 249969, Note_off_c, 0, 39, 32
1, 249973, Control_c, 0, 64, 69
1, 249987, Control_c, 0, 64, 73
1, 249994, Note_on_c, 0, 49, 39
1, 250002, Control_c, 0, 64, 75
1, 250017, Control_c, 0, 64, 77
1, 250032, Control_c, 0, 64, 79
1, 250041, Note_off_c, 0, 49, 46
1, 250044, Note_on_c, 0, 51, 51
1, 250047, Control_c, 0, 64, 81
1, 250063, Control_c, 0, 64, 84
1, 250078, Control_c, 0, 64, 86
1, 250092, Control_c, 0, 64, 87
1, 250106, Note_off_c, 0, 51, 60
1, 250107, Control_c, 0, 64, 88
1, 250122, Control_c, 0, 64, 88
1, 250144, Note_on_c, 0, 55, 47
1, 250211, Note_off_c, 0, 55, 50
1, 250229, Note_on_c, 0, 51, 51
1, 250269, Note_off_c, 0, 51, 65
1, 250306, Note_on_c, 0, 49, 49
1, 250366, Control_c, 0, 64, 88
1, 250371, Note_off_c, 0, 49, 56
1, 250378, Note_on_c, 0, 51, 58
1, 250381, Control_c, 0, 64, 87
1, 250396, Control_c, 0, 64, 86
1, 250411, Control_c, 0, 64, 84
1, 250414, Note_off_c, 0, 51, 62
1, 250426, Control_c, 0, 64, 79
1, 250440, Control_c, 0, 64, 70
1, 250455, Control_c, 0, 64, 60
1, 250470, Control_c, 0, 64, 42
1, 250485, Control_c, 0, 64, 23
1, 250500, Control_c, 0, 64, 15
1, 250515, Control_c, 0, 64, 14
1, 250522, Note_on_c, 0, 55, 59
1, 250527, Note_on_c, 0, 34, 39
1, 250527, Note_on_c, 0, 46, 42
1, 250533, Note_on_c, 0, 39, 34
1, 250544, Control_c, 0, 64, 15
1, 250559, Control_c, 0, 64, 22
1, 250573, Control_c, 0, 64, 29
1, 250588, Control_c, 0, 64, 37
1, 250601, Note_off_c, 0, 34, 53
1, 250603, Control_c, 0, 64, 47
1, 250612, Note_on_c, 0, 63, 53
1, 250617, Control_c, 0, 64, 56
1, 250632, Control_c, 0, 64, 63
1, 250633, Note_off_c, 0, 55, 33
1, 250647, Control_c, 0, 64, 69
1, 250658, Note_off_c, 0, 46, 34
1, 250662, Control_c, 0, 64, 71
1, 250677, Control_c, 0, 64, 72
1, 250678, Note_off_c, 0, 39, 34
1, 250679, Note_off_c, 0, 63, 62
1, 250691, Control_c, 0, 64, 75
1, 250703, Note_on_c, 0, 61, 52
1, 250706, Control_c, 0, 64, 78
1, 250721, Control_c, 0, 64, 79
1, 250736, Control_c, 0, 64, 80
1, 250750, Control_c, 0, 64, 82
1, 250750, Control_c, 0, 67, 126
1, 250755, Note_off_c, 0, 61, 54
1, 250765, Control_c, 0, 64, 84
1, 250765, Control_c, 0, 67, 123
1, 250771, Note_on_c, 0, 63, 48
1, 250780, Control_c, 0, 64, 86
1, 250780, Control_c, 0, 67, 120
1, 250795, Control_c, 0, 64, 88
1, 250795, Control_c, 0, 67, 118
1, 250810, Control_c, 0, 64, 89
1, 250810, Control_c, 0, 67, 115
1, 250825, Control_c, 0, 64, 90
1, 250825, Control_c, 0, 67, 113
1, 250840, Control_c, 0, 64, 92
1, 250840, Control_c, 0, 67, 109
1, 250846, Note_off_c, 0, 63, 63
1, 250855, Control_c, 0, 64, 93
1, 250855, Control_c, 0, 67, 106
1, 250858, Note_on_c, 0, 67, 62
1, 250870, Control_c, 0, 64, 95
1, 250870, Control_c, 0, 67, 103
1, 250885, Control_c, 0, 64, 96
1, 250885, Control_c, 0, 67, 100
1, 250900, Control_c, 0, 64, 97
1, 250900, Control_c, 0, 67, 97
1, 250914, Control_c, 0, 64, 97
1, 250914, Control_c, 0, 67, 94
1, 250929, Control_c, 0, 64, 98
1, 250929, Control_c, 0, 67, 92
1, 250942, Note_on_c, 0, 63, 56
1, 250944, Control_c, 0, 64, 100
1, 250944, Control_c, 0, 67, 90
1, 250959, Control_c, 0, 64, 101
1, 250959, Control_c, 0, 67, 89
1, 250974, Control_c, 0, 64, 101
1, 250974, Control_c, 0, 67, 89
1, 250974, Note_off_c, 0, 67, 46
1, 250989, Control_c, 0, 67, 88
1, 251003, Note_off_c, 0, 63, 62
1, 251004, Control_c, 0, 67, 86
1, 251019, Control_c, 0, 67, 86
1, 251023, Note_on_c, 0, 61, 59
1, 251033, Control_c, 0, 67, 85
1, 251048, Control_c, 0, 67, 85
1, 251063, Control_c, 0, 67, 84
1, 251069, Note_off_c, 0, 61, 55
1, 251085, Control_c, 0, 64, 100
1, 251100, Control_c, 0, 64, 96
1, 251100, Control_c, 0, 67, 84
1, 251102, Note_on_c, 0, 63, 56
1, 251114, Control_c, 0, 64, 93
1, 251129, Control_c, 0, 64, 88
1, 251142, Note_off_c, 0, 63, 66
1, 251144, Control_c, 0, 64, 85
1, 251144, Control_c, 0, 67, 83
1, 251159, Control_c, 0, 64, 80
1, 251159, Control_c, 0, 67, 83
1, 251174, Control_c, 0, 64, 70
1, 251174, Control_c, 0, 67, 82
1, 251189, Control_c, 0, 64, 60
1, 251204, Control_c, 0, 64, 44
1, 251218, Control_c, 0, 64, 21
1, 251232, Note_on_c, 0, 46, 46
1, 251233, Note_on_c, 0, 67, 61
1, 251233, Control_c, 0, 64, 16
1, 251242, Note_on_c, 0, 34, 39
1, 251242, Note_on_c, 0, 39, 37
1, 251248, Control_c, 0, 67, 81
1, 251263, Control_c, 0, 67, 81
1, 251278, Control_c, 0, 67, 80
1, 251293, Control_c, 0, 64, 17
1, 251293, Control_c, 0, 67, 78
1, 251307, Control_c, 0, 64, 23
1, 251307, Control_c, 0, 67, 76
1, 251320, Note_off_c, 0, 67, 48
1, 251323, Control_c, 0, 64, 32
1, 251323, Control_c, 0, 67, 75
1, 251324, Note_on_c, 0, 75, 58
1, 251338, Control_c, 0, 64, 39
1, 251338, Control_c, 0, 67, 72
1, 251352, Control_c, 0, 64, 48
1, 251352, Control_c, 0, 67, 70
1, 251367, Control_c, 0, 64, 56
1, 251367, Control_c, 0, 67, 67
1, 251381, Note_off_c, 0, 75, 60
1, 251382, Control_c, 0, 64, 62
1, 251382, Control_c, 0, 67, 63
1, 251397, Control_c, 0, 64, 66
1, 251397, Control_c, 0, 67, 59
1, 251409, Note_on_c, 0, 73, 59
1, 251412, Control_c, 0, 64, 67
1, 251412, Control_c, 0, 67, 54
1, 251426, Control_c, 0, 64, 68
1, 251426, Control_c, 0, 67, 51
1, 251431, Note_off_c, 0, 34, 27
1, 251441, Control_c, 0, 64, 70
1, 251441, Control_c, 0, 67, 49
1, 251456, Control_c, 0, 64, 72
1, 251456, Control_c, 0, 67, 45
1, 251460, Note_off_c, 0, 46, 34
1, 251466, Note_off_c, 0, 39, 21
1, 251470, Note_off_c, 0, 73, 47
1, 251471, Control_c, 0, 64, 73
1, 251471, Control_c, 0, 67, 42
1, 251478, Note_on_c, 0, 75, 58
1, 251486, Control_c, 0, 64, 74
1, 251486, Control_c, 0, 67, 38
1, 251500, Control_c, 0, 64, 75
1, 251500, Control_c, 0, 67, 36
1, 251515, Control_c, 0, 64, 75
1, 251515, Control_c, 0, 67, 34
1, 251530, Control_c, 0, 67, 33
1, 251545, Control_c, 0, 67, 32
1, 251550, Note_off_c, 0, 75, 60
1, 251558, Note_on_c, 0, 79, 67
1, 251559, Control_c, 0, 64, 76
1, 251559, Control_c, 0, 67, 31
1, 251574, Control_c, 0, 67, 30
1, 251589, Control_c, 0, 67, 29
1, 251604, Control_c, 0, 67, 29
1, 251641, Note_on_c, 0, 75, 61
1, 251658, Note_off_c, 0, 79, 57
1, 251664, Control_c, 0, 67, 28
1, 251701, Note_off_c, 0, 75, 61
1, 251722, Note_on_c, 0, 73, 58
1, 251768, Control_c, 0, 64, 75
1, 251770, Note_off_c, 0, 73, 54
1, 251782, Control_c, 0, 64, 75
1, 251787, Note_on_c, 0, 75, 61
1, 251797, Control_c, 0, 64, 74
1, 251812, Control_c, 0, 64, 73
1, 251812, Control_c, 0, 67, 29
1, 251835, Control_c, 0, 64, 71
1, 251840, Note_off_c, 0, 75, 59
1, 251850, Control_c, 0, 64, 70
1, 251864, Control_c, 0, 64, 69
1, 251879, Control_c, 0, 64, 67
1, 251894, Control_c, 0, 64, 66
1, 251909, Control_c, 0, 64, 63
1, 251924, Control_c, 0, 64, 58
1, 251938, Control_c, 0, 64, 47
1, 251952, Note_on_c, 0, 80, 61
1, 251953, Control_c, 0, 64, 32
1, 251959, Note_on_c, 0, 39, 35
1, 251968, Control_c, 0, 64, 14
1, 251970, Note_on_c, 0, 48, 36
1, 251978, Note_on_c, 0, 36, 36
1, 251982, Control_c, 0, 64, 0
1, 252045, Note_on_c, 0, 87, 62
1, 252052, Note_off_c, 0, 80, 50
1, 252056, Control_c, 0, 67, 28
1, 252071, Control_c, 0, 64, 11
1, 252071, Control_c, 0, 67, 28
1, 252086, Control_c, 0, 64, 26
1, 252101, Control_c, 0, 64, 35
1, 252101, Control_c, 0, 67, 27
1, 252107, Note_off_c, 0, 87, 64
1, 252116, Control_c, 0, 64, 45
1, 252116, Control_c, 0, 67, 24
1, 252127, Note_on_c, 0, 84, 62
1, 252131, Control_c, 0, 64, 54
1, 252131, Control_c, 0, 67, 21
1, 252146, Control_c, 0, 64, 62
1, 252146, Control_c, 0, 67, 18
1, 252160, Control_c, 0, 64, 65
1, 252160, Control_c, 0, 67, 17
1, 252175, Control_c, 0, 64, 66
1, 252175, Control_c, 0, 67, 16
1, 252180, Note_off_c, 0, 84, 52
1, 252190, Control_c, 0, 64, 67
1, 252190, Control_c, 0, 67, 15
1, 252198, Note_on_c, 0, 87, 61
1, 252205, Control_c, 0, 64, 70
1, 252205, Control_c, 0, 67, 15
1, 252213, Note_off_c, 0, 48, 42
1, 252220, Control_c, 0, 64, 72
1, 252220, Control_c, 0, 67, 14
1, 252235, Control_c, 0, 64, 75
1, 252235, Control_c, 0, 67, 12
1, 252250, Control_c, 0, 64, 77
1, 252250, Control_c, 0, 67, 11
1, 252264, Control_c, 0, 64, 79
1, 252264, Control_c, 0, 67, 10
1, 252267, Note_off_c, 0, 36, 34
1, 252279, Control_c, 0, 64, 83
1, 252279, Control_c, 0, 67, 10
1, 252283, Note_off_c, 0, 87, 64
1, 252294, Control_c, 0, 64, 86
1, 252294, Control_c, 0, 67, 9
1, 252307, Note_on_c, 0, 92, 68
1, 252307, Note_off_c, 0, 39, 33
1, 252308, Control_c, 0, 64, 89
1, 252308, Control_c, 0, 67, 8
1, 252323, Control_c, 0, 64, 92
1, 252323, Control_c, 0, 67, 0
1, 252338, Control_c, 0, 64, 95
1, 252353, Control_c, 0, 64, 98
1, 252368, Control_c, 0, 64, 103
1, 252382, Control_c, 0, 64, 107
1, 252393, Note_on_c, 0, 87, 63
1, 252397, Control_c, 0, 64, 111
1, 252412, Control_c, 0, 64, 119
1, 252427, Control_c, 0, 64, 127
1, 252429, Note_off_c, 0, 92, 51
1, 252443, Note_off_c, 0, 87, 61
1, 252472, Note_on_c, 0, 84, 58
1, 252548, Note_on_c, 0, 87, 62
1, 252548, Note_off_c, 0, 84, 54
1, 252593, Note_off_c, 0, 87, 63
1, 252613, Control_c, 0, 67, 8
1, 252631, Note_on_c, 0, 80, 61
1, 252658, Control_c, 0, 67, 8
1, 252658, Note_off_c, 0, 80, 67
1, 252687, Control_c, 0, 67, 9
1, 252724, Note_on_c, 0, 75, 49
1, 252766, Note_off_c, 0, 75, 62
1, 252776, Control_c, 0, 67, 9
1, 252791, Control_c, 0, 67, 10
1, 252820, Control_c, 0, 67, 10
1, 252824, Note_on_c, 0, 72, 46
1, 252835, Control_c, 0, 67, 11
1, 252850, Control_c, 0, 67, 11
1, 252865, Control_c, 0, 67, 12
1, 252879, Control_c, 0, 67, 12
1, 252883, Note_on_c, 0, 75, 49
1, 252887, Note_off_c, 0, 72, 53
1, 252894, Control_c, 0, 67, 13
1, 252922, Note_off_c, 0, 75, 62
1, 252924, Control_c, 0, 64, 122
1, 252924, Control_c, 0, 67, 14
1, 252938, Control_c, 0, 64, 117
1, 252953, Control_c, 0, 64, 115
1, 252953, Control_c, 0, 67, 14
1, 252961, Note_on_c, 0, 68, 56
1, 252968, Control_c, 0, 64, 114
1, 252968, Control_c, 0, 67, 15
1, 252993, Note_off_c, 0, 68, 63
1, 252998, Control_c, 0, 64, 113
1, 252998, Control_c, 0, 67, 15
1, 253013, Control_c, 0, 64, 110
1, 253028, Control_c, 0, 64, 109
1, 253043, Control_c, 0, 64, 108
1, 253043, Control_c, 0, 67, 16
1, 253047, Note_on_c, 0, 63, 55
1, 253058, Control_c, 0, 64, 108
1, 253058, Control_c, 0, 67, 16
1, 253073, Control_c, 0, 64, 107
1, 253087, Control_c, 0, 64, 106
1, 253102, Control_c, 0, 64, 105
1, 253113, Note_off_c, 0, 63, 64
1, 253131, Control_c, 0, 64, 105
1, 253140, Note_on_c, 0, 60, 48
1, 253146, Control_c, 0, 64, 104
1, 253161, Control_c, 0, 64, 103
1, 253176, Control_c, 0, 64, 101
1, 253191, Control_c, 0, 64, 101
1, 253198, Note_off_c, 0, 60, 52
1, 253205, Control_c, 0, 64, 100
1, 253205, Control_c, 0, 67, 17
1, 253219, Note_on_c, 0, 63, 51
1, 253220, Control_c, 0, 64, 99
1, 253220, Control_c, 0, 67, 18
1, 253235, Control_c, 0, 64, 96
1, 253235, Control_c, 0, 67, 18
1, 253251, Control_c, 0, 64, 86
1, 253251, Control_c, 0, 67, 20
1, 253263, Note_off_c, 0, 63, 65
1, 253266, Control_c, 0, 64, 74
1, 253266, Control_c, 0, 67, 22
1, 253281, Control_c, 0, 64, 65
1, 253281, Control_c, 0, 67, 24
1, 253296, Control_c, 0, 64, 58
1, 253296, Control_c, 0, 67, 25
1, 253298, Note_on_c, 0, 56, 59
1, 253311, Control_c, 0, 64, 51
1, 253311, Control_c, 0, 67, 26
1, 253333, Control_c, 0, 64, 47
1, 253344, Note_off_c, 0, 56, 66
1, 253362, Control_c, 0, 64, 50
1, 253377, Control_c, 0, 64, 54
1, 253377, Control_c, 0, 67, 27
1, 253392, Control_c, 0, 64, 60
1, 253403, Note_on_c, 0, 51, 57
1, 253407, Control_c, 0, 64, 63
1, 253407, Control_c, 0, 67, 27
1, 253422, Control_c, 0, 64, 65
1, 253466, Control_c, 0, 67, 28
1, 253467, Note_off_c, 0, 51, 62
1, 253496, Control_c, 0, 67, 29
1, 253504, Note_on_c, 0, 48, 45
1, 253511, Control_c, 0, 67, 31
1, 253526, Control_c, 0, 64, 65
1, 253526, Control_c, 0, 67, 33
1, 253541, Control_c, 0, 67, 36
1, 253550, Note_off_c, 0, 48, 54
1, 253555, Control_c, 0, 64, 64
1, 253555, Control_c, 0, 67, 39
1, 253570, Control_c, 0, 64, 63
1, 253570, Control_c, 0, 67, 40
1, 253585, Control_c, 0, 64, 58
1, 253585, Control_c, 0, 67, 42
1, 253585, Note_on_c, 0, 51, 44
1, 253600, Control_c, 0, 64, 47
1, 253600, Control_c, 0, 67, 43
1, 253615, Control_c, 0, 64, 33
1, 253615, Control_c, 0, 67, 44
1, 253629, Control_c, 0, 64, 33
1, 253629, Control_c, 0, 67, 44
1, 253634, Note_off_c, 0, 51, 64
1, 253644, Control_c, 0, 64, 34
1, 253657, Note_on_c, 0, 44, 53
1, 253659, Control_c, 0, 64, 36
1, 253674, Control_c, 0, 64, 40
1, 253674, Control_c, 0, 67, 44
1, 253689, Control_c, 0, 64, 46
1, 253704, Control_c, 0, 64, 51
1, 253718, Control_c, 0, 64, 56
1, 253720, Note_off_c, 0, 44, 55
1, 253733, Control_c, 0, 64, 58
1, 253740, Note_on_c, 0, 51, 58
1, 253748, Control_c, 0, 64, 59
1, 253792, Control_c, 0, 64, 58
1, 253797, Note_off_c, 0, 51, 60
1, 253807, Control_c, 0, 64, 55
1, 253822, Control_c, 0, 64, 49
1, 253825, Note_on_c, 0, 48, 50
1, 253836, Control_c, 0, 64, 41
1, 253851, Control_c, 0, 64, 35
1, 253866, Control_c, 0, 64, 31
1, 253866, Control_c, 0, 67, 44
1, 253877, Note_off_c, 0, 48, 61
1, 253880, Control_c, 0, 64, 27
1, 253880, Control_c, 0, 67, 45
1, 253893, Note_on_c, 0, 51, 45
1, 253895, Control_c, 0, 64, 23
1, 253910, Control_c, 0, 64, 18
1, 253925, Control_c, 0, 64, 8
1, 253940, Control_c, 0, 64, 0
1, 253964, Note_off_c, 0, 51, 62
1, 253991, Note_on_c, 0, 43, 40
1, 253994, Note_on_c, 0, 39, 42
1, 253994, Note_on_c, 0, 46, 53
1, 253997, Note_on_c, 0, 31, 35
1, 254015, Control_c, 0, 67, 44
1, 254029, Control_c, 0, 67, 44
1, 254059, Control_c, 0, 67, 43
1, 254062, Note_off_c, 0, 46, 53
1, 254082, Control_c, 0, 64, 16
1, 254082, Control_c, 0, 67, 42
1, 254097, Control_c, 0, 64, 28
1, 254098, Note_on_c, 0, 51, 54
1, 254112, Control_c, 0, 64, 37
1, 254112, Control_c, 0, 67, 41
1, 254126, Control_c, 0, 64, 47
1, 254137, Note_off_c, 0, 39, 34
1, 254137, Note_off_c, 0, 51, 66
1, 254141, Control_c, 0, 64, 55
1, 254141, Control_c, 0, 67, 40
1, 254143, Note_off_c, 0, 31, 36
1, 254152, Note_off_c, 0, 43, 38
1, 254156, Control_c, 0, 64, 61
1, 254156, Control_c, 0, 67, 40
1, 254171, Control_c, 0, 64, 64
1, 254171, Control_c, 0, 67, 39
1, 254174, Note_on_c, 0, 49, 49
1, 254185, Control_c, 0, 64, 65
1, 254185, Control_c, 0, 67, 39
1, 254200, Control_c, 0, 64, 66
1, 254215, Control_c, 0, 64, 68
1, 254215, Control_c, 0, 67, 38
1, 254230, Control_c, 0, 64, 70
1, 254235, Note_off_c, 0, 49, 52
1, 254239, Note_on_c, 0, 51, 54
1, 254245, Control_c, 0, 64, 72
1, 254245, Control_c, 0, 67, 37
1, 254259, Control_c, 0, 64, 74
1, 254274, Control_c, 0, 64, 75
1, 254274, Control_c, 0, 67, 36
1, 254289, Control_c, 0, 64, 77
1, 254289, Control_c, 0, 67, 36
1, 254304, Control_c, 0, 64, 79
1, 254304, Control_c, 0, 67, 35
1, 254318, Note_off_c, 0, 51, 61
1, 254319, Control_c, 0, 64, 81
1, 254330, Note_on_c, 0, 58, 58
1, 254334, Control_c, 0, 64, 83
1, 254334, Control_c, 0, 67, 35
1, 254348, Control_c, 0, 64, 84
1, 254348, Control_c, 0, 67, 34
1, 254363, Control_c, 0, 64, 85
1, 254378, Control_c, 0, 64, 86
1, 254393, Control_c, 0, 64, 86
1, 254407, Note_on_c, 0, 51, 49
1, 254408, Control_c, 0, 64, 87
1, 254423, Control_c, 0, 67, 34
1, 254433, Note_off_c, 0, 58, 55
1, 254459, Note_off_c, 0, 51, 64
1, 254485, Note_on_c, 0, 49, 54
1, 254540, Note_off_c, 0, 49, 58
1, 254541, Control_c, 0, 64, 86
1, 254541, Control_c, 0, 67, 34
1, 254556, Control_c, 0, 64, 85
1, 254566, Note_on_c, 0, 51, 49
1, 254571, Control_c, 0, 64, 83
1, 254585, Control_c, 0, 64, 80
1, 254585, Control_c, 0, 67, 35
1, 254587, Note_off_c, 0, 51, 62
1, 254600, Control_c, 0, 64, 77
1, 254615, Control_c, 0, 64, 70
1, 254630, Control_c, 0, 64, 62
1, 254630, Control_c, 0, 67, 34
1, 254645, Control_c, 0, 64, 50
1, 254659, Control_c, 0, 64, 25
1, 254674, Control_c, 0, 64, 0
1, 254674, Control_c, 0, 67, 34
1, 254679, Note_on_c, 0, 51, 40
1, 254698, Note_on_c, 0, 58, 56
1, 254703, Note_on_c, 0, 55, 49
1, 254703, Control_c, 0, 67, 33
1, 254716, Note_on_c, 0, 43, 45
1, 254718, Control_c, 0, 67, 33
1, 254733, Control_c, 0, 67, 32
1, 254763, Control_c, 0, 64, 17
1, 254763, Control_c, 0, 67, 32
1, 254772, Note_off_c, 0, 58, 53
1, 254778, Control_c, 0, 64, 27
1, 254778, Control_c, 0, 67, 31
1, 254785, Note_on_c, 0, 63, 52
1, 254793, Control_c, 0, 64, 36
1, 254807, Control_c, 0, 64, 46
1, 254807, Control_c, 0, 67, 29
1, 254813, Note_off_c, 0, 43, 38
1, 254830, Control_c, 0, 64, 55
1, 254830, Control_c, 0, 67, 26
1, 254843, Note_off_c, 0, 63, 63
1, 254845, Note_off_c, 0, 55, 36
1, 254845, Control_c, 0, 64, 63
1, 254845, Control_c, 0, 67, 22
1, 254847, Note_off_c, 0, 51, 40
1, 254861, Control_c, 0, 64, 68
1, 254861, Control_c, 0, 67, 20
1, 254872, Note_on_c, 0, 61, 53
1, 254876, Control_c, 0, 64, 69
1, 254876, Control_c, 0, 67, 18
1, 254890, Control_c, 0, 64, 71
1, 254890, Control_c, 0, 67, 15
1, 254905, Control_c, 0, 64, 74
1, 254905, Control_c, 0, 67, 13
1, 254920, Control_c, 0, 64, 78
1, 254920, Control_c, 0, 67, 10
1, 254934, Control_c, 0, 64, 82
1, 254934, Control_c, 0, 67, 0
1, 254945, Note_off_c, 0, 61, 44
1, 254949, Control_c, 0, 64, 87
1, 254951, Note_on_c, 0, 63, 55
1, 254964, Control_c, 0, 64, 91
1, 254979, Control_c, 0, 64, 95
1, 254994, Control_c, 0, 64, 98
1, 255008, Control_c, 0, 64, 103
1, 255022, Note_on_c, 0, 70, 63
1, 255023, Control_c, 0, 64, 108
1, 255024, Note_off_c, 0, 63, 64
1, 255038, Control_c, 0, 64, 114
1, 255053, Control_c, 0, 64, 122
1, 255067, Control_c, 0, 64, 127
1, 255103, Note_on_c, 0, 63, 56
1, 255145, Note_off_c, 0, 70, 51
1, 255165, Note_off_c, 0, 63, 63
1, 255177, Note_on_c, 0, 61, 61
1, 255248, Note_on_c, 0, 63, 58
1, 255250, Note_off_c, 0, 61, 63
1, 255274, Control_c, 0, 64, 111
1, 255280, Note_off_c, 0, 63, 67
1, 255289, Control_c, 0, 64, 99
1, 255304, Control_c, 0, 64, 82
1, 255319, Control_c, 0, 64, 67
1, 255333, Control_c, 0, 64, 52
1, 255348, Control_c, 0, 64, 34
1, 255363, Control_c, 0, 64, 22
1, 255364, Note_on_c, 0, 55, 58
1, 255365, Note_on_c, 0, 70, 65
1, 255375, Note_on_c, 0, 51, 45
1, 255378, Control_c, 0, 64, 21
1, 255381, Note_on_c, 0, 43, 47
1, 255422, Control_c, 0, 64, 24
1, 255437, Control_c, 0, 64, 32
1, 255452, Control_c, 0, 64, 40
1, 255454, Note_on_c, 0, 75, 59
1, 255466, Note_off_c, 0, 70, 53
1, 255467, Control_c, 0, 64, 50
1, 255481, Control_c, 0, 64, 59
1, 255496, Control_c, 0, 64, 65
1, 255511, Control_c, 0, 64, 71
1, 255514, Note_off_c, 0, 75, 59
1, 255526, Control_c, 0, 64, 72
1, 255527, Note_on_c, 0, 73, 62
1, 255538, Note_off_c, 0, 43, 36
1, 255541, Control_c, 0, 64, 75
1, 255550, Note_off_c, 0, 55, 56
1, 255556, Control_c, 0, 64, 78
1, 255578, Control_c, 0, 64, 81
1, 255593, Control_c, 0, 64, 84
1, 255601, Note_on_c, 0, 75, 61
1, 255607, Control_c, 0, 64, 87
1, 255618, Note_off_c, 0, 51, 44
1, 255622, Control_c, 0, 64, 89
1, 255637, Control_c, 0, 64, 92
1, 255653, Control_c, 0, 64, 95
1, 255658, Note_off_c, 0, 73, 29
1, 255668, Control_c, 0, 64, 99
1, 255683, Control_c, 0, 64, 102
1, 255685, Note_off_c, 0, 75, 61
1, 255687, Note_on_c, 0, 82, 70
1, 255697, Control_c, 0, 64, 105
1, 255712, Control_c, 0, 64, 108
1, 255727, Control_c, 0, 64, 110
1, 255742, Control_c, 0, 64, 113
1, 255756, Control_c, 0, 64, 114
1, 255768, Note_on_c, 0, 75, 60
1, 255771, Control_c, 0, 64, 115
1, 255816, Control_c, 0, 64, 117
1, 255830, Note_off_c, 0, 75, 62
1, 255843, Note_off_c, 0, 82, 57
1, 255844, Note_on_c, 0, 73, 66
1, 255904, Control_c, 0, 64, 115
1, 255918, Note_on_c, 0, 75, 66
1, 255919, Control_c, 0, 64, 111
1, 255924, Note_off_c, 0, 73, 58
1, 255934, Control_c, 0, 64, 106
1, 255949, Control_c, 0, 64, 101
1, 255964, Control_c, 0, 64, 93
1, 255979, Control_c, 0, 64, 81
1, 255994, Control_c, 0, 64, 67
1, 256009, Control_c, 0, 64, 54
1, 256009, Note_off_c, 0, 75, 60
1, 256020, Note_on_c, 0, 72, 66
1, 256023, Control_c, 0, 64, 37
1, 256031, Note_on_c, 0, 56, 59
1, 256038, Control_c, 0, 64, 22
1, 256039, Note_on_c, 0, 51, 51
1, 256046, Note_on_c, 0, 44, 45
1, 256053, Control_c, 0, 64, 21
1, 256097, Control_c, 0, 64, 24
1, 256105, Note_off_c, 0, 72, 59
1, 256111, Note_on_c, 0, 75, 64
1, 256112, Control_c, 0, 64, 31
1, 256127, Control_c, 0, 64, 41
1, 256141, Control_c, 0, 64, 52
1, 256156, Control_c, 0, 64, 62
1, 256171, Control_c, 0, 64, 71
1, 256176, Note_off_c, 0, 75, 60
1, 256186, Control_c, 0, 64, 78
1, 256191, Note_on_c, 0, 72, 66
1, 256201, Control_c, 0, 64, 79
1, 256216, Control_c, 0, 64, 84
1, 256219, Note_off_c, 0, 44, 32
1, 256230, Control_c, 0, 64, 92
1, 256241, Note_off_c, 0, 51, 35
1, 256244, Note_off_c, 0, 56, 35
1, 256245, Control_c, 0, 64, 101
1, 256260, Control_c, 0, 64, 111
1, 256268, Note_on_c, 0, 75, 67
1, 256274, Control_c, 0, 64, 127
1, 256350, Note_off_c, 0, 72, 35
1, 256354, Note_off_c, 0, 75, 60
1, 256363, Note_on_c, 0, 84, 76
1, 256447, Note_on_c, 0, 75, 64
1, 256507, Note_off_c, 0, 75, 61
1, 256524, Note_on_c, 0, 72, 68
1, 256578, Note_off_c, 0, 84, 38
1, 256583, Note_off_c, 0, 72, 60
1, 256603, Note_on_c, 0, 75, 64
1, 256623, Control_c, 0, 64, 108
1, 256638, Control_c, 0, 64, 99
1, 256653, Control_c, 0, 64, 88
1, 256668, Control_c, 0, 64, 69
1, 256682, Control_c, 0, 64, 58
1, 256697, Note_off_c, 0, 75, 59
1, 256697, Control_c, 0, 64, 40
1, 256698, Note_on_c, 0, 73, 72
1, 256709, Note_on_c, 0, 65, 66
1, 256712, Control_c, 0, 64, 24
1, 256719, Note_on_c, 0, 53, 53
1, 256721, Note_on_c, 0, 56, 52
1, 256727, Control_c, 0, 64, 22
1, 256771, Control_c, 0, 64, 25
1, 256780, Note_on_c, 0, 80, 72
1, 256783, Note_off_c, 0, 73, 59
1, 256786, Control_c, 0, 64, 31
1, 256801, Control_c, 0, 64, 39
1, 256816, Control_c, 0, 64, 48
1, 256831, Control_c, 0, 64, 58
1, 256845, Control_c, 0, 64, 65
1, 256860, Control_c, 0, 64, 70
1, 256863, Note_on_c, 0, 73, 71
1, 256864, Note_off_c, 0, 80, 63
1, 256889, Note_off_c, 0, 65, 58
1, 256890, Control_c, 0, 64, 73
1, 256904, Control_c, 0, 64, 77
1, 256919, Control_c, 0, 64, 81
1, 256934, Control_c, 0, 64, 83
1, 256949, Control_c, 0, 64, 86
1, 256952, Note_on_c, 0, 80, 72
1, 256963, Control_c, 0, 64, 88
1, 256978, Control_c, 0, 64, 91
1, 256987, Note_off_c, 0, 53, 35
1, 256993, Control_c, 0, 64, 93
1, 257008, Control_c, 0, 64, 95
1, 257013, Note_off_c, 0, 56, 35
1, 257023, Control_c, 0, 64, 95
1, 257037, Control_c, 0, 64, 96
1, 257038, Note_on_c, 0, 85, 79
1, 257043, Note_off_c, 0, 80, 64
1, 257052, Control_c, 0, 64, 96
1, 257128, Note_on_c, 0, 80, 74
1, 257151, Note_off_c, 0, 73, 53
1, 257202, Note_off_c, 0, 80, 62
1, 257209, Note_on_c, 0, 77, 74
1, 257218, Note_off_c, 0, 85, 59
1, 257238, Control_c, 0, 64, 95
1, 257254, Control_c, 0, 64, 94
1, 257269, Control_c, 0, 64, 92
1, 257279, Note_on_c, 0, 80, 77
1, 257283, Control_c, 0, 64, 90
1, 257298, Control_c, 0, 64, 88
1, 257300, Note_off_c, 0, 77, 60
1, 257313, Control_c, 0, 64, 84
1, 257327, Control_c, 0, 64, 73
1, 257342, Control_c, 0, 64, 61
1, 257357, Control_c, 0, 64, 47
1, 257372, Control_c, 0, 64, 29
1, 257376, Note_off_c, 0, 80, 63
1, 257382, Note_on_c, 0, 75, 71
1, 257387, Control_c, 0, 64, 21
1, 257391, Note_on_c, 0, 60, 65
1, 257393, Note_on_c, 0, 56, 55
1, 257398, Note_on_c, 0, 48, 56
1, 257431, Control_c, 0, 64, 22
1, 257446, Control_c, 0, 64, 27
1, 257461, Control_c, 0, 64, 35
1, 257465, Note_on_c, 0, 87, 80
1, 257475, Control_c, 0, 64, 44
1, 257490, Control_c, 0, 64, 53
1, 257505, Control_c, 0, 64, 61
1, 257520, Control_c, 0, 64, 66
1, 257535, Control_c, 0, 64, 68
1, 257538, Note_off_c, 0, 87, 64
1, 257538, Note_off_c, 0, 56, 55
1, 257541, Note_on_c, 0, 80, 80
1, 257546, Note_off_c, 0, 60, 60
1, 257550, Control_c, 0, 64, 69
1, 257559, Note_off_c, 0, 48, 36
1, 257565, Control_c, 0, 64, 71
1, 257580, Control_c, 0, 64, 74
1, 257586, Note_off_c, 0, 75, 45
1, 257594, Control_c, 0, 64, 76
1, 257609, Control_c, 0, 64, 77
1, 257615, Note_on_c, 0, 87, 75
1, 257624, Control_c, 0, 64, 78
1, 257639, Control_c, 0, 64, 79
1, 257654, Control_c, 0, 64, 80
1, 257669, Control_c, 0, 64, 81
1, 257683, Control_c, 0, 64, 82
1, 257698, Control_c, 0, 64, 82
1, 257704, Note_off_c, 0, 87, 63
1, 257713, Control_c, 0, 64, 83
1, 257714, Note_on_c, 0, 76, 86
1, 257718, Note_off_c, 0, 80, 38
1, 257721, Note_on_c, 0, 56, 58
1, 257721, Note_on_c, 0, 60, 68
1, 257732, Note_on_c, 0, 48, 59
1, 257790, Note_on_c, 0, 88, 85
1, 257827, Note_off_c, 0, 48, 57
1, 257869, Note_off_c, 0, 60, 62
1, 257875, Note_off_c, 0, 56, 53
1, 257879, Note_on_c, 0, 80, 84
1, 257881, Note_off_c, 0, 88, 64
1, 257883, Control_c, 0, 64, 82
1, 257898, Control_c, 0, 64, 82
1, 257913, Control_c, 0, 64, 81
1, 257920, Note_off_c, 0, 76, 57
1, 257927, Control_c, 0, 64, 80
1, 257942, Control_c, 0, 64, 79
1, 257953, Note_on_c, 0, 88, 82
1, 257957, Control_c, 0, 64, 78
1, 257972, Control_c, 0, 64, 77
1, 257987, Control_c, 0, 64, 77
1, 258001, Control_c, 0, 64, 75
1, 258010, Note_off_c, 0, 80, 57
1, 258016, Control_c, 0, 64, 68
1, 258031, Control_c, 0, 64, 59
1, 258047, Control_c, 0, 64, 42
1, 258063, Control_c, 0, 64, 21
1, 258068, Note_off_c, 0, 88, 65
1, 258069, Note_on_c, 0, 77, 87
1, 258070, Note_on_c, 0, 61, 80
1, 258076, Note_on_c, 0, 56, 62
1, 258078, Control_c, 0, 64, 12
1, 258085, Note_on_c, 0, 49, 63
1, 258092, Control_c, 0, 64, 9
1, 258107, Control_c, 0, 64, 0
1, 258149, Note_on_c, 0, 89, 87
1, 258151, Control_c, 0, 64, 16
1, 258164, Note_off_c, 0, 77, 61
1, 258166, Control_c, 0, 64, 28
1, 258181, Control_c, 0, 64, 39
1, 258196, Control_c, 0, 64, 49
1, 258211, Control_c, 0, 64, 60
1, 258225, Note_on_c, 0, 77, 82
1, 258225, Control_c, 0, 64, 67
1, 258240, Control_c, 0, 64, 70
1, 258244, Note_off_c, 0, 89, 64
1, 258255, Control_c, 0, 64, 71
1, 258270, Control_c, 0, 64, 74
1, 258276, Note_off_c, 0, 61, 61
1, 258285, Control_c, 0, 64, 79
1, 258299, Control_c, 0, 64, 83
1, 258314, Control_c, 0, 64, 85
1, 258316, Note_on_c, 0, 80, 80
1, 258329, Control_c, 0, 64, 88
1, 258343, Control_c, 0, 64, 90
1, 258345, Note_off_c, 0, 56, 31
1, 258358, Control_c, 0, 64, 94
1, 258373, Note_on_c, 0, 89, 82
1, 258373, Control_c, 0, 64, 99
1, 258375, Note_off_c, 0, 49, 43
1, 258388, Control_c, 0, 64, 106
1, 258403, Control_c, 0, 64, 110
1, 258406, Note_off_c, 0, 80, 63
1, 258417, Control_c, 0, 64, 113
1, 258432, Control_c, 0, 64, 115
1, 258447, Control_c, 0, 64, 127
1, 258460, Note_on_c, 0, 85, 80
1, 258514, Note_off_c, 0, 89, 58
1, 258525, Note_off_c, 0, 77, 0
1, 258528, Note_on_c, 0, 80, 85
1, 258531, Note_off_c, 0, 85, 65
1, 258562, Poly_aftertouch_c, 0, 77, 127
1, 258592, Poly_aftertouch_c, 0, 77, 0
1, 258605, Note_on_c, 0, 85, 82
1, 258620, Poly_aftertouch_c, 0, 77, 0
1, 258632, Control_c, 0, 64, 122
1, 258647, Control_c, 0, 64, 113
1, 258648, Note_off_c, 0, 80, 60
1, 258662, Control_c, 0, 64, 105
1, 258677, Control_c, 0, 64, 90
1, 258692, Control_c, 0, 64, 74
1, 258706, Control_c, 0, 64, 63
1, 258711, Note_off_c, 0, 85, 65
1, 258715, Note_on_c, 0, 79, 86
1, 258721, Control_c, 0, 64, 51
1, 258726, Note_on_c, 0, 58, 81
1, 258731, Note_on_c, 0, 51, 66
1, 258736, Control_c, 0, 64, 33
1, 258739, Note_on_c, 0, 46, 63
1, 258751, Control_c, 0, 64, 18
1, 258766, Control_c, 0, 64, 16
1, 258781, Control_c, 0, 64, 14
1, 258799, Note_on_c, 0, 87, 85
1, 258811, Control_c, 0, 64, 16
1, 258825, Control_c, 0, 64, 27
1, 258841, Control_c, 0, 64, 40
1, 258856, Control_c, 0, 64, 53
1, 258870, Control_c, 0, 64, 65
1, 258885, Control_c, 0, 64, 74
1, 258887, Note_on_c, 0, 85, 82
1, 258889, Note_off_c, 0, 87, 66
1, 258915, Control_c, 0, 64, 74
1, 258930, Control_c, 0, 64, 75
1, 258945, Control_c, 0, 64, 78
1, 258956, Note_on_c, 0, 87, 83
1, 258960, Control_c, 0, 64, 81
1, 258974, Control_c, 0, 64, 82
1, 258989, Control_c, 0, 64, 83
1, 258993, Note_off_c, 0, 46, 60
1, 258994, Note_off_c, 0, 58, 60
1, 258995, Note_off_c, 0, 51, 53
1, 259004, Control_c, 0, 64, 84
1, 259019, Control_c, 0, 64, 84
1, 259034, Control_c, 0, 64, 85
1, 259038, Note_on_c, 0, 91, 94
1, 259045, Note_off_c, 0, 85, 62
1, 259048, Control_c, 0, 64, 86
1, 259050, Note_off_c, 0, 87, 67
1, 259082, Note_off_c, 0, 79, 54
1, 259092, Control_c, 0, 64, 86
1, 259125, Note_on_c, 0, 87, 82
1, 259192, Note_on_c, 0, 85, 87
1, 259200, Note_off_c, 0, 87, 66
1, 259221, Note_off_c, 0, 91, 59
1, 259240, Control_c, 0, 64, 86
1, 259255, Control_c, 0, 64, 85
1, 259270, Control_c, 0, 64, 83
1, 259274, Note_on_c, 0, 87, 89
1, 259285, Control_c, 0, 64, 81
1, 259300, Control_c, 0, 64, 79
1, 259322, Control_c, 0, 64, 73
1, 259337, Control_c, 0, 64, 64
1, 259352, Control_c, 0, 64, 51
1, 259359, Note_off_c, 0, 85, 58
1, 259367, Control_c, 0, 64, 33
1, 259381, Control_c, 0, 64, 14
1, 259389, Note_on_c, 0, 60, 78
1, 259391, Note_on_c, 0, 79, 89
1, 259396, Control_c, 0, 64, 8
1, 259398, Note_on_c, 0, 51, 59
1, 259406, Note_on_c, 0, 48, 61
1, 259411, Control_c, 0, 64, 0
1, 259422, Note_off_c, 0, 87, 64
1, 259455, Control_c, 0, 64, 14
1, 259470, Control_c, 0, 64, 31
1, 259485, Control_c, 0, 64, 44
1, 259489, Note_on_c, 0, 91, 97
1, 259499, Control_c, 0, 64, 56
1, 259514, Control_c, 0, 64, 66
1, 259529, Control_c, 0, 64, 73
1, 259544, Control_c, 0, 64, 74
1, 259559, Control_c, 0, 64, 75
1, 259574, Control_c, 0, 64, 78
1, 259575, Note_on_c, 0, 87, 88
1, 259579, Note_off_c, 0, 51, 55
1, 259589, Control_c, 0, 64, 80
1, 259592, Note_off_c, 0, 48, 35
1, 259592, Note_off_c, 0, 91, 60
1, 259600, Note_off_c, 0, 60, 59
1, 259604, Control_c, 0, 64, 81
1, 259607, Note_off_c, 0, 79, 57
1, 259660, Note_on_c, 0, 91, 94
1, 259693, Control_c, 0, 64, 81
1, 259708, Control_c, 0, 64, 80
1, 259723, Control_c, 0, 64, 79
1, 259738, Control_c, 0, 64, 77
1, 259753, Control_c, 0, 64, 72
1, 259768, Control_c, 0, 64, 64
1, 259782, Note_on_c, 0, 80, 93
1, 259783, Control_c, 0, 64, 55
1, 259789, Note_off_c, 0, 91, 57
1, 259790, Note_on_c, 0, 60, 78
1, 259797, Control_c, 0, 64, 38
1, 259802, Note_on_c, 0, 48, 62
1, 259806, Note_on_c, 0, 51, 60
1, 259812, Control_c, 0, 64, 11
1, 259814, Note_off_c, 0, 87, 63
1, 259827, Control_c, 0, 64, 0
1, 259887, Note_on_c, 0, 92, 100
1, 259945, Control_c, 0, 64, 28
1, 259960, Control_c, 0, 64, 41
1, 259962, Note_off_c, 0, 48, 52
1, 259975, Control_c, 0, 64, 53
1, 259989, Control_c, 0, 64, 63
1, 259992, Note_on_c, 0, 87, 92
1, 260004, Control_c, 0, 64, 71
1, 260009, Note_off_c, 0, 60, 49
1, 260019, Control_c, 0, 64, 74
1, 260021, Note_off_c, 0, 92, 66
1, 260032, Note_off_c, 0, 80, 40
1, 260034, Control_c, 0, 64, 75
1, 260049, Control_c, 0, 64, 79
1, 260071, Control_c, 0, 64, 83
1, 260086, Control_c, 0, 64, 86
1, 260099, Note_off_c, 0, 51, 36
1, 260101, Control_c, 0, 64, 89
1, 260109, Note_on_c, 0, 92, 100
1, 260116, Control_c, 0, 64, 90
1, 260130, Control_c, 0, 64, 91
1, 260145, Note_off_c, 0, 87, 61
1, 260145, Control_c, 0, 64, 92
1, 260160, Control_c, 0, 64, 92
1, 260196, Note_off_c, 0, 92, 67
1, 260412, Control_c, 0, 64, 92
1, 260426, Control_c, 0, 64, 91
1, 260442, Control_c, 0, 64, 90
1, 260472, Control_c, 0, 64, 89
1, 260487, Control_c, 0, 64, 88
1, 260501, Control_c, 0, 64, 88
1, 260516, Control_c, 0, 64, 87
1, 260531, Control_c, 0, 64, 86
1, 260546, Control_c, 0, 64, 85
1, 260561, Control_c, 0, 64, 84
1, 260576, Control_c, 0, 64, 83
1, 260590, Control_c, 0, 64, 81
1, 260605, Control_c, 0, 64, 79
1, 260620, Control_c, 0, 64, 78
1, 260635, Control_c, 0, 64, 77
1, 260650, Control_c, 0, 64, 76
1, 260664, Control_c, 0, 64, 75
1, 260679, Control_c, 0, 64, 73
1, 260694, Control_c, 0, 64, 72
1, 260709, Control_c, 0, 64, 71
1, 260724, Control_c, 0, 64, 69
1, 260738, Control_c, 0, 64, 68
1, 260753, Control_c, 0, 64, 67
1, 260768, Control_c, 0, 64, 66
1, 260783, Control_c, 0, 64, 65
1, 260798, Control_c, 0, 64, 64
1, 260820, Control_c, 0, 64, 62
1, 260835, Control_c, 0, 64, 60
1, 260850, Control_c, 0, 64, 58
1, 260865, Control_c, 0, 64, 56
1, 260868, Note_on_c, 0, 77, 69
1, 260879, Control_c, 0, 64, 53
1, 260894, Control_c, 0, 64, 51
1, 260899, Note_on_c, 0, 56, 37
1, 260902, Note_on_c, 0, 49, 43
1, 260909, Control_c, 0, 64, 49
1, 260924, Control_c, 0, 64, 46
1, 260939, Control_c, 0, 64, 43
1, 260953, Control_c, 0, 64, 39
1, 260968, Control_c, 0, 64, 35
1, 260983, Control_c, 0, 64, 27
1, 260998, Control_c, 0, 64, 17
1, 261013, Control_c, 0, 64, 0
1, 261339, Control_c, 0, 64, 11
1, 261354, Control_c, 0, 64, 13
1, 261368, Control_c, 0, 64, 14
1, 261383, Control_c, 0, 64, 14
1, 261392, Note_on_c, 0, 57, 54
1, 261398, Control_c, 0, 64, 15
1, 261413, Control_c, 0, 64, 15
1, 261532, Control_c, 0, 64, 15
1, 261535, Note_off_c, 0, 56, 44
1, 261547, Control_c, 0, 64, 14
1, 261687, Control_c, 0, 64, 14
1, 261702, Control_c, 0, 64, 15
1, 261717, Control_c, 0, 64, 16
1, 261732, Control_c, 0, 64, 16
1, 261747, Control_c, 0, 64, 17
1, 261761, Control_c, 0, 64, 18
1, 261803, Note_on_c, 0, 58, 55
1, 261850, Control_c, 0, 64, 17
1, 261865, Control_c, 0, 64, 16
1, 261866, Note_off_c, 0, 57, 37
1, 261880, Control_c, 0, 64, 15
1, 261894, Control_c, 0, 64, 15
1, 261909, Control_c, 0, 64, 14
1, 261954, Control_c, 0, 64, 15
1, 261968, Control_c, 0, 64, 16
1, 261983, Control_c, 0, 64, 20
1, 261998, Control_c, 0, 64, 24
1, 262012, Control_c, 0, 64, 28
1, 262020, Note_on_c, 0, 70, 62
1, 262027, Control_c, 0, 64, 34
1, 262044, Control_c, 0, 64, 38
1, 262059, Control_c, 0, 64, 43
1, 262073, Control_c, 0, 64, 49
1, 262088, Control_c, 0, 64, 55
1, 262103, Control_c, 0, 64, 58
1, 262117, Control_c, 0, 64, 60
1, 262132, Control_c, 0, 64, 60
1, 262136, Poly_aftertouch_c, 0, 67, 127
1, 262162, Control_c, 0, 64, 61
1, 262177, Control_c, 0, 64, 62
1, 262191, Control_c, 0, 64, 63
1, 262206, Control_c, 0, 64, 64
1, 262221, Control_c, 0, 64, 65
1, 262235, Note_on_c, 0, 72, 67
1, 262236, Control_c, 0, 64, 65
1, 262251, Control_c, 0, 64, 66
1, 262259, Note_off_c, 0, 49, 56
1, 262260, Note_on_c, 0, 60, 49
1, 262260, Note_off_c, 0, 58, 47
1, 262266, Control_c, 0, 64, 67
1, 262281, Control_c, 0, 64, 68
1, 262296, Control_c, 0, 64, 69
1, 262317, Control_c, 0, 64, 69
1, 262332, Control_c, 0, 64, 70
1, 262445, Note_on_c, 0, 73, 72
1, 262454, Note_on_c, 0, 61, 57
1, 262504, Poly_aftertouch_c, 0, 67, 0
1, 262510, Control_c, 0, 64, 69
1, 262525, Control_c, 0, 64, 69
1, 262540, Control_c, 0, 64, 68
1, 262545, Note_off_c, 0, 60, 31
1, 262555, Control_c, 0, 64, 67
1, 262570, Control_c, 0, 64, 67
1, 262584, Control_c, 0, 64, 66
1, 262599, Control_c, 0, 64, 65
1, 262614, Control_c, 0, 64, 64
1, 262629, Control_c, 0, 64, 64
1, 262643, Control_c, 0, 64, 63
1, 262658, Control_c, 0, 64, 61
1, 262673, Control_c, 0, 64, 60
1, 262688, Control_c, 0, 64, 58
1, 262703, Control_c, 0, 64, 56
1, 262717, Control_c, 0, 64, 53
1, 262732, Note_on_c, 0, 67, 66
1, 262732, Control_c, 0, 64, 51
1, 262746, Note_on_c, 0, 51, 37
1, 262747, Control_c, 0, 64, 50
1, 262754, Note_on_c, 0, 58, 39
1, 262758, Note_on_c, 0, 55, 43
1, 262762, Control_c, 0, 64, 47
1, 262769, Note_off_c, 0, 77, 22
1, 262777, Control_c, 0, 64, 45
1, 262782, Note_off_c, 0, 72, 37
1, 262785, Note_off_c, 0, 70, 30
1, 262791, Control_c, 0, 64, 40
1, 262799, Note_off_c, 0, 73, 58
1, 262806, Control_c, 0, 64, 33
1, 262816, Note_off_c, 0, 61, 39
1, 262821, Control_c, 0, 64, 22
1, 262837, Control_c, 0, 64, 0
1, 262985, Control_c, 0, 64, 16
1, 263000, Control_c, 0, 64, 26
1, 263014, Control_c, 0, 64, 34
1, 263029, Control_c, 0, 64, 43
1, 263044, Control_c, 0, 64, 52
1, 263066, Control_c, 0, 64, 60
1, 263081, Control_c, 0, 64, 64
1, 263096, Control_c, 0, 64, 65
1, 263111, Control_c, 0, 64, 66
1, 263126, Control_c, 0, 64, 67
1, 263140, Control_c, 0, 64, 70
1, 263155, Control_c, 0, 64, 72
1, 263170, Control_c, 0, 64, 74
1, 263185, Control_c, 0, 64, 76
1, 263200, Control_c, 0, 64, 77
1, 263214, Control_c, 0, 64, 79
1, 263229, Control_c, 0, 64, 80
1, 263231, Note_on_c, 0, 75, 70
1, 263244, Control_c, 0, 64, 83
1, 263248, Note_off_c, 0, 58, 37
1, 263259, Control_c, 0, 64, 85
1, 263273, Control_c, 0, 64, 88
1, 263288, Control_c, 0, 64, 91
1, 263291, Note_off_c, 0, 55, 20
1, 263303, Control_c, 0, 64, 93
1, 263318, Poly_aftertouch_c, 0, 77, 127
1, 263318, Control_c, 0, 64, 95
1, 263333, Control_c, 0, 64, 98
1, 263348, Control_c, 0, 64, 100
1, 263363, Control_c, 0, 64, 103
1, 263378, Control_c, 0, 64, 104
1, 263392, Control_c, 0, 64, 105
1, 263432, Note_off_c, 0, 51, 33
1, 263470, Note_off_c, 0, 67, 58
1, 263526, Control_c, 0, 64, 104
1, 263540, Control_c, 0, 64, 102
1, 263555, Control_c, 0, 64, 100
1, 263570, Control_c, 0, 64, 98
1, 263584, Control_c, 0, 64, 96
1, 263599, Control_c, 0, 64, 94
1, 263614, Control_c, 0, 64, 92
1, 263629, Control_c, 0, 64, 91
1, 263645, Control_c, 0, 64, 89
1, 263660, Control_c, 0, 64, 87
1, 263675, Control_c, 0, 64, 86
1, 263689, Control_c, 0, 64, 84
1, 263704, Control_c, 0, 64, 83
1, 263719, Control_c, 0, 64, 82
1, 263734, Control_c, 0, 64, 81
1, 263749, Control_c, 0, 64, 79
1, 263763, Control_c, 0, 64, 78
1, 263778, Control_c, 0, 64, 77
1, 263793, Control_c, 0, 64, 76
1, 263816, Control_c, 0, 64, 75
1, 263831, Control_c, 0, 64, 75
1, 263845, Control_c, 0, 64, 74
1, 263860, Control_c, 0, 64, 73
1, 263875, Control_c, 0, 64, 72
1, 263889, Control_c, 0, 64, 70
1, 263890, Note_on_c, 0, 63, 58
1, 263904, Control_c, 0, 64, 68
1, 263917, Note_on_c, 0, 60, 46
1, 263919, Control_c, 0, 64, 66
1, 263934, Control_c, 0, 64, 64
1, 263949, Control_c, 0, 64, 61
1, 263952, Poly_aftertouch_c, 0, 74, 127
1, 263963, Control_c, 0, 64, 56
1, 263978, Control_c, 0, 64, 49
1, 263993, Control_c, 0, 64, 42
1, 264008, Control_c, 0, 64, 37
1, 264023, Control_c, 0, 64, 30
1, 264037, Control_c, 0, 64, 16
1, 264052, Control_c, 0, 64, 0
1, 264214, Note_on_c, 0, 73, 60
1, 264215, Control_c, 0, 64, 12
1, 264230, Control_c, 0, 64, 25
1, 264245, Control_c, 0, 64, 32
1, 264260, Control_c, 0, 64, 40
1, 264275, Control_c, 0, 64, 47
1, 264289, Control_c, 0, 64, 52
1, 264304, Control_c, 0, 64, 56
1, 264319, Control_c, 0, 64, 57
1, 264323, Poly_aftertouch_c, 0, 77, 0
1, 264334, Control_c, 0, 64, 58
1, 264349, Control_c, 0, 64, 59
1, 264360, Poly_aftertouch_c, 0, 74, 0
1, 264363, Control_c, 0, 64, 60
1, 264378, Control_c, 0, 64, 61
1, 264393, Control_c, 0, 64, 62
1, 264407, Control_c, 0, 64, 63
1, 264408, Note_off_c, 0, 75, 33
1, 264439, Control_c, 0, 64, 64
1, 264451, Note_on_c, 0, 72, 64
1, 264454, Control_c, 0, 64, 64
1, 264468, Control_c, 0, 64, 65
1, 264483, Control_c, 0, 64, 66
1, 264491, Note_off_c, 0, 73, 61
1, 264498, Control_c, 0, 64, 68
1, 264512, Control_c, 0, 64, 69
1, 264527, Control_c, 0, 64, 71
1, 264542, Control_c, 0, 64, 72
1, 264564, Control_c, 0, 64, 74
1, 264579, Control_c, 0, 64, 75
1, 264594, Control_c, 0, 64, 76
1, 264609, Control_c, 0, 64, 78
1, 264617, Note_off_c, 0, 60, 40
1, 264624, Control_c, 0, 64, 80
1, 264638, Control_c, 0, 64, 81
1, 264653, Control_c, 0, 64, 83
1, 264656, Note_on_c, 0, 84, 75
1, 264668, Control_c, 0, 64, 84
1, 264683, Control_c, 0, 64, 86
1, 264698, Control_c, 0, 64, 87
1, 264712, Control_c, 0, 64, 87
1, 264727, Control_c, 0, 64, 88
1, 264742, Control_c, 0, 64, 88
1, 264852, Note_on_c, 0, 82, 78
1, 265040, Note_on_c, 0, 79, 79
1, 265113, Note_off_c, 0, 82, 39
1, 265170, Poly_aftertouch_c, 0, 74, 127
1, 265228, Note_on_c, 0, 82, 76
1, 265235, Note_on_c, 0, 60, 61
1, 265236, Note_off_c, 0, 63, 43
1, 265243, Note_on_c, 0, 56, 53
1, 265299, Note_off_c, 0, 79, 53
1, 265435, Note_on_c, 0, 80, 83
1, 265438, Note_off_c, 0, 72, 29
1, 265455, Poly_aftertouch_c, 0, 74, 0
1, 265491, Control_c, 0, 64, 88
1, 265501, Note_off_c, 0, 56, 56
1, 265507, Note_off_c, 0, 84, 56
1, 265511, Note_off_c, 0, 60, 54
1, 265535, Control_c, 0, 64, 87
1, 265550, Control_c, 0, 64, 86
1, 265565, Control_c, 0, 64, 85
1, 265580, Control_c, 0, 64, 85
1, 265595, Control_c, 0, 64, 84
1, 265601, Note_off_c, 0, 82, 39
1, 265609, Control_c, 0, 64, 83
1, 265624, Control_c, 0, 64, 82
1, 265639, Control_c, 0, 64, 81
1, 265652, Note_on_c, 0, 84, 77
1, 265654, Control_c, 0, 64, 80
1, 265656, Note_on_c, 0, 60, 68
1, 265661, Note_on_c, 0, 56, 53
1, 265668, Control_c, 0, 64, 77
1, 265683, Control_c, 0, 64, 72
1, 265698, Control_c, 0, 64, 64
1, 265713, Control_c, 0, 64, 55
1, 265728, Control_c, 0, 64, 36
1, 265734, Note_off_c, 0, 80, 60
1, 265742, Control_c, 0, 64, 10
1, 265757, Control_c, 0, 64, 0
1, 265831, Control_c, 0, 64, 13
1, 265846, Control_c, 0, 64, 31
1, 265853, Note_on_c, 0, 80, 79
1, 265861, Control_c, 0, 64, 41
1, 265876, Control_c, 0, 64, 53
1, 265890, Control_c, 0, 64, 62
1, 265905, Control_c, 0, 64, 67
1, 265920, Control_c, 0, 64, 68
1, 265935, Control_c, 0, 64, 69
1, 265950, Control_c, 0, 64, 73
1, 265965, Control_c, 0, 64, 76
1, 265979, Control_c, 0, 64, 79
1, 265994, Control_c, 0, 64, 83
1, 266009, Control_c, 0, 64, 86
1, 266024, Control_c, 0, 64, 89
1, 266040, Control_c, 0, 64, 92
1, 266062, Control_c, 0, 64, 95
1, 266077, Control_c, 0, 64, 98
1, 266091, Control_c, 0, 64, 100
1, 266095, Note_on_c, 0, 75, 80
1, 266106, Control_c, 0, 64, 101
1, 266163, Note_off_c, 0, 56, 32
1, 266196, Note_off_c, 0, 84, 33
1, 266198, Note_off_c, 0, 60, 37
1, 266284, Control_c, 0, 64, 100
1, 266299, Control_c, 0, 64, 99
1, 266314, Control_c, 0, 64, 97
1, 266329, Control_c, 0, 64, 96
1, 266344, Control_c, 0, 64, 95
1, 266358, Control_c, 0, 64, 95
1, 266364, Note_on_c, 0, 76, 80
1, 266373, Control_c, 0, 64, 94
1, 266383, Note_on_c, 0, 56, 50
1, 266384, Note_on_c, 0, 60, 52
1, 266388, Note_off_c, 0, 80, 34
1, 266388, Control_c, 0, 64, 93
1, 266402, Control_c, 0, 64, 93
1, 266417, Control_c, 0, 64, 92
1, 266432, Control_c, 0, 64, 91
1, 266435, Note_off_c, 0, 75, 53
1, 266447, Control_c, 0, 64, 91
1, 266462, Control_c, 0, 64, 90
1, 266491, Control_c, 0, 64, 89
1, 266521, Control_c, 0, 64, 89
1, 266536, Control_c, 0, 64, 88
1, 266546, Note_off_c, 0, 56, 60
1, 266551, Control_c, 0, 64, 88
1, 266561, Note_off_c, 0, 60, 36
1, 266580, Control_c, 0, 64, 87
1, 266595, Control_c, 0, 64, 87
1, 266609, Control_c, 0, 64, 86
1, 266639, Control_c, 0, 64, 86
1, 266669, Control_c, 0, 64, 85
1, 266698, Control_c, 0, 64, 85
1, 266713, Control_c, 0, 64, 84
1, 266728, Control_c, 0, 64, 84
1, 266743, Control_c, 0, 64, 83
1, 266758, Control_c, 0, 64, 82
1, 266773, Control_c, 0, 64, 81
1, 266788, Control_c, 0, 64, 80
1, 266809, Control_c, 0, 64, 78
1, 266824, Control_c, 0, 64, 77
1, 266841, Control_c, 0, 64, 75
1, 266856, Control_c, 0, 64, 74
1, 266870, Control_c, 0, 64, 73
1, 266885, Control_c, 0, 64, 72
1, 266895, Note_off_c, 0, 76, 18
1, 266900, Control_c, 0, 64, 71
1, 266914, Control_c, 0, 64, 70
1, 266929, Control_c, 0, 64, 69
1, 266943, Note_on_c, 0, 77, 69
1, 266944, Control_c, 0, 64, 68
1, 266959, Control_c, 0, 64, 66
1, 266969, Note_on_c, 0, 60, 38
1, 266974, Control_c, 0, 64, 64
1, 266979, Note_on_c, 0, 49, 35
1, 266988, Control_c, 0, 64, 63
1, 267003, Note_on_c, 0, 56, 32
1, 267003, Control_c, 0, 64, 60
1, 267018, Control_c, 0, 64, 57
1, 267032, Control_c, 0, 64, 53
1, 267047, Control_c, 0, 64, 47
1, 267062, Control_c, 0, 64, 43
1, 267077, Control_c, 0, 64, 40
1, 267092, Control_c, 0, 64, 35
1, 267107, Control_c, 0, 64, 29
1, 267122, Control_c, 0, 64, 24
1, 267136, Control_c, 0, 64, 20
1, 267151, Control_c, 0, 64, 18
1, 267166, Control_c, 0, 64, 17
1, 267176, Note_off_c, 0, 56, 44
1, 267196, Control_c, 0, 64, 19
1, 267211, Control_c, 0, 64, 23
1, 267225, Control_c, 0, 64, 29
1, 267240, Control_c, 0, 64, 34
1, 267255, Control_c, 0, 64, 40
1, 267270, Control_c, 0, 64, 46
1, 267285, Control_c, 0, 64, 51
1, 267300, Control_c, 0, 64, 53
1, 267314, Control_c, 0, 64, 54
1, 267321, Note_on_c, 0, 57, 58
1, 267329, Control_c, 0, 64, 55
1, 267359, Control_c, 0, 64, 54
1, 267373, Control_c, 0, 64, 53
1, 267388, Control_c, 0, 64, 53
1, 267418, Control_c, 0, 64, 52
1, 267432, Control_c, 0, 64, 51
1, 267447, Control_c, 0, 64, 50
1, 267462, Control_c, 0, 64, 49
1, 267477, Control_c, 0, 64, 48
1, 267492, Control_c, 0, 64, 48
1, 267506, Control_c, 0, 64, 47
1, 267515, Note_off_c, 0, 60, 33
1, 267521, Control_c, 0, 64, 46
1, 267536, Control_c, 0, 64, 45
1, 267559, Control_c, 0, 64, 44
1, 267560, Note_on_c, 0, 58, 56
1, 267574, Control_c, 0, 64, 43
1, 267588, Control_c, 0, 64, 42
1, 267603, Control_c, 0, 64, 40
1, 267618, Control_c, 0, 64, 40
1, 267634, Control_c, 0, 64, 39
1, 267649, Control_c, 0, 64, 38
1, 267649, Note_off_c, 0, 57, 35
1, 267663, Control_c, 0, 64, 37
1, 267678, Control_c, 0, 64, 36
1, 267693, Control_c, 0, 64, 35
1, 267708, Control_c, 0, 64, 35
1, 267723, Control_c, 0, 64, 34
1, 267759, Note_off_c, 0, 58, 61
1, 267765, Note_on_c, 0, 60, 59
1, 267767, Control_c, 0, 64, 34
1, 267782, Control_c, 0, 64, 33
1, 267810, Control_c, 0, 64, 33
1, 267840, Control_c, 0, 64, 32
1, 267855, Control_c, 0, 64, 31
1, 267885, Control_c, 0, 64, 31
1, 267915, Control_c, 0, 64, 30
1, 267962, Note_on_c, 0, 61, 62
1, 267989, Note_off_c, 0, 49, 45
1, 268003, Control_c, 0, 64, 30
1, 268092, Note_off_c, 0, 60, 31
1, 268166, Control_c, 0, 64, 29
1, 268176, Note_on_c, 0, 70, 63
1, 268187, Note_on_c, 0, 49, 49
1, 268240, Control_c, 0, 64, 29
1, 268249, Note_off_c, 0, 61, 39
1, 268284, Control_c, 0, 64, 28
1, 268299, Control_c, 0, 64, 28
1, 268336, Control_c, 0, 64, 27
1, 268341, Poly_aftertouch_c, 0, 67, 127
1, 268351, Control_c, 0, 64, 27
1, 268366, Control_c, 0, 64, 26
1, 268380, Control_c, 0, 64, 26
1, 268394, Note_on_c, 0, 72, 70
1, 268395, Control_c, 0, 64, 25
1, 268403, Note_on_c, 0, 51, 51
1, 268410, Control_c, 0, 64, 25
1, 268425, Control_c, 0, 64, 24
1, 268441, Control_c, 0, 64, 23
1, 268456, Control_c, 0, 64, 23
1, 268471, Control_c, 0, 64, 22
1, 268515, Control_c, 0, 64, 22
1, 268535, Note_off_c, 0, 49, 43
1, 268598, Note_on_c, 0, 73, 72
1, 268603, Note_on_c, 0, 53, 57
1, 268604, Control_c, 0, 64, 22
1, 268606, Poly_aftertouch_c, 0, 67, 0
1, 268619, Control_c, 0, 64, 23
1, 268633, Control_c, 0, 64, 25
1, 268648, Control_c, 0, 64, 26
1, 268656, Note_off_c, 0, 77, 23
1, 268660, Note_off_c, 0, 51, 58
1, 268663, Control_c, 0, 64, 27
1, 268678, Control_c, 0, 64, 28
1, 268693, Control_c, 0, 64, 29
1, 268707, Control_c, 0, 64, 30
1, 268722, Control_c, 0, 64, 30
1, 268737, Control_c, 0, 64, 31
1, 268826, Control_c, 0, 64, 30
1, 268841, Control_c, 0, 64, 29
1, 268844, Note_off_c, 0, 53, 61
1, 268848, Note_on_c, 0, 67, 62
1, 268856, Control_c, 0, 64, 27
1, 268858, Note_on_c, 0, 51, 52
1, 268871, Control_c, 0, 64, 23
1, 268885, Control_c, 0, 64, 20
1, 268894, Note_off_c, 0, 72, 36
1, 268900, Control_c, 0, 64, 14
1, 268915, Control_c, 0, 64, 0
1, 268916, Note_off_c, 0, 70, 51
1, 268970, Note_off_c, 0, 73, 46
1, 269077, Note_on_c, 0, 39, 53
1, 269218, Control_c, 0, 64, 8
1, 269234, Control_c, 0, 64, 15
1, 269249, Control_c, 0, 64, 18
1, 269264, Control_c, 0, 64, 19
1, 269294, Control_c, 0, 64, 19
1, 269331, Note_on_c, 0, 75, 64
1, 269336, Note_off_c, 0, 51, 40
1, 269338, Control_c, 0, 64, 18
1, 269345, Note_on_c, 0, 41, 44
1, 269353, Control_c, 0, 64, 12
1, 269368, Control_c, 0, 64, 0
1, 269393, Note_off_c, 0, 39, 36
1, 269420, Note_off_c, 0, 67, 49
1, 269486, Control_c, 0, 64, 18
1, 269500, Control_c, 0, 64, 27
1, 269515, Control_c, 0, 64, 36
1, 269530, Control_c, 0, 64, 45
1, 269545, Control_c, 0, 64, 54
1, 269560, Control_c, 0, 64, 61
1, 269575, Control_c, 0, 64, 64
1, 269585, Note_on_c, 0, 43, 51
1, 269590, Control_c, 0, 64, 64
1, 269605, Control_c, 0, 64, 65
1, 269620, Control_c, 0, 64, 67
1, 269634, Control_c, 0, 64, 71
1, 269647, Note_off_c, 0, 41, 41
1, 269649, Control_c, 0, 64, 72
1, 269664, Control_c, 0, 64, 74
1, 269667, Note_off_c, 0, 43, 57
1, 269679, Control_c, 0, 64, 75
1, 269694, Control_c, 0, 64, 76
1, 269708, Control_c, 0, 64, 78
1, 269723, Control_c, 0, 64, 80
1, 269738, Control_c, 0, 64, 81
1, 269753, Control_c, 0, 64, 83
1, 269768, Control_c, 0, 64, 84
1, 269782, Control_c, 0, 64, 85
1, 269804, Control_c, 0, 64, 86
1, 269819, Control_c, 0, 64, 86
1, 269968, Control_c, 0, 64, 86
1, 269982, Control_c, 0, 64, 84
1, 269997, Control_c, 0, 64, 83
1, 270012, Control_c, 0, 64, 81
1, 270028, Control_c, 0, 64, 78
1, 270043, Control_c, 0, 64, 76
1, 270051, Note_on_c, 0, 72, 58
1, 270057, Control_c, 0, 64, 74
1, 270060, Note_on_c, 0, 63, 47
1, 270063, Note_on_c, 0, 68, 50
1, 270065, Note_on_c, 0, 44, 42
1, 270072, Control_c, 0, 64, 71
1, 270082, Note_on_c, 0, 32, 37
1, 270087, Control_c, 0, 64, 68
1, 270102, Control_c, 0, 64, 65
1, 270117, Control_c, 0, 64, 62
1, 270131, Control_c, 0, 64, 58
1, 270146, Control_c, 0, 64, 51
1, 270161, Control_c, 0, 64, 43
1, 270176, Control_c, 0, 64, 35
1, 270191, Control_c, 0, 64, 27
1, 270205, Control_c, 0, 64, 21
1, 270220, Control_c, 0, 64, 18
1, 270227, Note_off_c, 0, 75, 36
1, 270235, Control_c, 0, 64, 15
1, 270249, Control_c, 0, 64, 14
1, 270279, Control_c, 0, 64, 17
1, 270294, Control_c, 0, 64, 22
1, 270309, Control_c, 0, 64, 27
1, 270323, Control_c, 0, 64, 33
1, 270338, Control_c, 0, 64, 40
1, 270353, Control_c, 0, 64, 47
1, 270368, Control_c, 0, 64, 54
1, 270374, Note_off_c, 0, 68, 57
1, 270383, Control_c, 0, 64, 60
1, 270398, Control_c, 0, 64, 62
1, 270427, Control_c, 0, 64, 63
1, 270442, Control_c, 0, 64, 63
1, 270457, Control_c, 0, 64, 64
1, 270472, Control_c, 0, 64, 66
1, 270487, Control_c, 0, 64, 67
1, 270502, Control_c, 0, 64, 68
1, 270517, Control_c, 0, 64, 69
1, 270531, Control_c, 0, 64, 71
1, 270553, Control_c, 0, 64, 72
1, 270568, Control_c, 0, 64, 74
1, 270582, Control_c, 0, 64, 76
1, 270597, Control_c, 0, 64, 78
1, 270612, Control_c, 0, 64, 80
1, 270627, Control_c, 0, 64, 82
1, 270642, Control_c, 0, 64, 84
1, 270657, Control_c, 0, 64, 86
1, 270672, Control_c, 0, 64, 87
1, 270687, Control_c, 0, 64, 88
1, 270702, Control_c, 0, 64, 89
1, 270717, Control_c, 0, 64, 89
1, 270731, Control_c, 0, 64, 90
1, 270746, Control_c, 0, 64, 92
1, 270761, Control_c, 0, 64, 92
1, 270775, Control_c, 0, 64, 93
1, 270790, Control_c, 0, 64, 93
1, 270805, Control_c, 0, 64, 94
1, 270820, Control_c, 0, 64, 94
1, 270836, Control_c, 0, 64, 95
1, 270851, Control_c, 0, 64, 95
1, 270912, Poly_aftertouch_c, 0, 64, 127
1, 271032, Note_off_c, 0, 44, 35
1, 271033, Note_on_c, 0, 73, 72
1, 271038, Note_on_c, 0, 68, 66
1, 271044, Note_on_c, 0, 41, 57
1, 271058, Control_c, 0, 64, 95
1, 271072, Control_c, 0, 64, 92
1, 271087, Control_c, 0, 64, 90
1, 271102, Control_c, 0, 64, 87
1, 271117, Control_c, 0, 64, 82
1, 271132, Control_c, 0, 64, 73
1, 271146, Control_c, 0, 64, 64
1, 271147, Note_off_c, 0, 63, 34
1, 271161, Control_c, 0, 64, 55
1, 271176, Control_c, 0, 64, 41
1, 271191, Control_c, 0, 64, 27
1, 271202, Poly_aftertouch_c, 0, 64, 0
1, 271205, Control_c, 0, 64, 22
1, 271220, Control_c, 0, 64, 20
1, 271235, Control_c, 0, 64, 18
1, 271265, Control_c, 0, 64, 20
1, 271280, Control_c, 0, 64, 28
1, 271302, Control_c, 0, 64, 39
1, 271317, Control_c, 0, 64, 49
1, 271332, Control_c, 0, 64, 59
1, 271347, Control_c, 0, 64, 66
1, 271361, Control_c, 0, 64, 70
1, 271391, Control_c, 0, 64, 73
1, 271405, Control_c, 0, 64, 76
1, 271420, Control_c, 0, 64, 79
1, 271435, Control_c, 0, 64, 83
1, 271450, Control_c, 0, 64, 86
1, 271465, Control_c, 0, 64, 89
1, 271480, Control_c, 0, 64, 93
1, 271495, Control_c, 0, 64, 98
1, 271509, Control_c, 0, 64, 102
1, 271519, Note_on_c, 0, 65, 78
1, 271524, Control_c, 0, 64, 107
1, 271530, Note_on_c, 0, 37, 65
1, 271539, Control_c, 0, 64, 113
1, 271554, Control_c, 0, 64, 122
1, 271569, Control_c, 0, 64, 127
1, 271585, Note_off_c, 0, 41, 54
1, 271600, Note_off_c, 0, 72, 35
1, 271696, Note_off_c, 0, 68, 54
1, 271895, Control_c, 0, 64, 117
1, 271910, Control_c, 0, 64, 113
1, 271925, Control_c, 0, 64, 108
1, 271940, Control_c, 0, 64, 105
1, 271955, Control_c, 0, 64, 101
1, 271969, Control_c, 0, 64, 97
1, 271984, Control_c, 0, 64, 94
1, 271999, Control_c, 0, 64, 91
1, 272014, Control_c, 0, 64, 82
1, 272018, Note_on_c, 0, 70, 89
1, 272028, Control_c, 0, 64, 68
1, 272031, Note_on_c, 0, 43, 82
1, 272051, Control_c, 0, 64, 55
1, 272066, Control_c, 0, 64, 29
1, 272081, Control_c, 0, 64, 0
1, 272133, Note_off_c, 0, 37, 55
1, 272140, Control_c, 0, 64, 17
1, 272155, Control_c, 0, 64, 33
1, 272170, Control_c, 0, 64, 46
1, 272173, Note_off_c, 0, 32, 40
1, 272184, Control_c, 0, 64, 59
1, 272199, Control_c, 0, 64, 71
1, 272214, Control_c, 0, 64, 81
1, 272228, Control_c, 0, 64, 82
1, 272234, Note_off_c, 0, 65, 54
1, 272243, Control_c, 0, 64, 88
1, 272246, Poly_aftertouch_c, 0, 69, 127
1, 272258, Control_c, 0, 64, 99
1, 272273, Control_c, 0, 64, 108
1, 272280, Note_off_c, 0, 43, 61
1, 272288, Control_c, 0, 64, 127
1, 272300, Note_off_c, 0, 73, 35
1, 272615, Control_c, 0, 64, 85
1, 272628, Note_on_c, 0, 64, 85
1, 272628, Note_on_c, 0, 73, 92
1, 272630, Control_c, 0, 64, 63
1, 272632, Note_on_c, 0, 67, 84
1, 272634, Note_on_c, 0, 46, 82
1, 272641, Note_on_c, 0, 32, 70
1, 272644, Control_c, 0, 64, 47
1, 272648, Poly_aftertouch_c, 0, 69, 0
1, 272659, Control_c, 0, 64, 21
1, 272674, Control_c, 0, 64, 0
1, 272723, Note_off_c, 0, 70, 44
1, 272748, Control_c, 0, 64, 20
1, 272763, Control_c, 0, 64, 33
1, 272777, Control_c, 0, 64, 45
1, 272800, Control_c, 0, 64, 57
1, 272815, Control_c, 0, 64, 68
1, 272830, Control_c, 0, 64, 79
1, 272844, Control_c, 0, 64, 79
1, 272859, Control_c, 0, 64, 81
1, 272874, Control_c, 0, 64, 86
1, 272889, Control_c, 0, 64, 93
1, 272891, Note_off_c, 0, 64, 52
1, 272900, Note_off_c, 0, 32, 36
1, 272904, Control_c, 0, 64, 100
1, 272914, Note_off_c, 0, 46, 60
1, 272919, Control_c, 0, 64, 104
1, 272933, Control_c, 0, 64, 107
1, 272943, Note_off_c, 0, 67, 54
1, 272948, Control_c, 0, 64, 108
1, 272963, Control_c, 0, 64, 114
1, 272977, Control_c, 0, 64, 127
1, 272996, Note_off_c, 0, 73, 54
1, 273578, Control_c, 0, 64, 122
1, 273593, Control_c, 0, 64, 115
1, 273608, Control_c, 0, 64, 110
1, 273623, Control_c, 0, 64, 108
1, 273638, Control_c, 0, 64, 105
1, 273653, Control_c, 0, 64, 101
1, 273658, Note_on_c, 0, 73, 91
1, 273661, Note_on_c, 0, 64, 83
1, 273662, Note_on_c, 0, 67, 77
1, 273667, Note_on_c, 0, 46, 88
1, 273668, Control_c, 0, 64, 98
1, 273670, Note_on_c, 0, 32, 70
1, 273682, Control_c, 0, 64, 94
1, 273697, Control_c, 0, 64, 88
1, 273712, Control_c, 0, 64, 81
1, 273727, Control_c, 0, 64, 75
1, 273742, Control_c, 0, 64, 68
1, 273756, Control_c, 0, 64, 61
1, 273771, Control_c, 0, 64, 50
1, 273786, Control_c, 0, 64, 31
1, 273800, Control_c, 0, 64, 15
1, 273815, Control_c, 0, 64, 0
1, 274007, Control_c, 0, 64, 20
1, 274023, Control_c, 0, 64, 28
1, 274038, Control_c, 0, 64, 35
1, 274053, Control_c, 0, 64, 42
1, 274068, Control_c, 0, 64, 52
1, 274083, Control_c, 0, 64, 59
1, 274097, Control_c, 0, 64, 63
1, 274112, Control_c, 0, 64, 64
1, 274127, Control_c, 0, 64, 65
1, 274142, Control_c, 0, 64, 68
1, 274157, Control_c, 0, 64, 71
1, 274171, Control_c, 0, 64, 74
1, 274186, Control_c, 0, 64, 77
1, 274201, Control_c, 0, 64, 80
1, 274216, Control_c, 0, 64, 83
1, 274231, Control_c, 0, 64, 86
1, 274246, Control_c, 0, 64, 91
1, 274261, Control_c, 0, 64, 95
1, 274276, Control_c, 0, 64, 99
1, 274297, Control_c, 0, 64, 102
1, 274306, Note_off_c, 0, 64, 54
1, 274312, Control_c, 0, 64, 105
1, 274327, Control_c, 0, 64, 107
1, 274342, Control_c, 0, 64, 108
1, 274357, Control_c, 0, 64, 108
1, 274371, Control_c, 0, 64, 109
1, 274386, Control_c, 0, 64, 110
1, 274786, Control_c, 0, 64, 108
1, 274801, Control_c, 0, 64, 106
1, 274817, Control_c, 0, 64, 103
1, 274832, Control_c, 0, 64, 99
1, 274846, Control_c, 0, 64, 95
1, 274848, Note_on_c, 0, 63, 72
1, 274861, Control_c, 0, 64, 92
1, 274876, Control_c, 0, 64, 87
1, 274891, Control_c, 0, 64, 82
1, 274891, Control_c, 0, 67, 8
1, 274906, Control_c, 0, 64, 75
1, 274906, Control_c, 0, 67, 8
1, 274920, Control_c, 0, 64, 67
1, 274920, Control_c, 0, 67, 9
1, 274935, Control_c, 0, 64, 59
1, 274950, Control_c, 0, 64, 46
1, 274950, Control_c, 0, 67, 9
1, 274965, Control_c, 0, 64, 29
1, 274965, Control_c, 0, 67, 10
1, 274980, Control_c, 0, 64, 15
1, 274980, Control_c, 0, 67, 10
1, 274994, Control_c, 0, 64, 10
1, 274994, Control_c, 0, 67, 11
1, 275009, Control_c, 0, 64, 0
1, 275009, Control_c, 0, 67, 11
1, 275024, Control_c, 0, 67, 12
1, 275046, Control_c, 0, 67, 13
1, 275061, Control_c, 0, 67, 15
1, 275076, Control_c, 0, 64, 18
1, 275076, Control_c, 0, 67, 17
1, 275091, Control_c, 0, 64, 29
1, 275091, Control_c, 0, 67, 19
1, 275106, Control_c, 0, 64, 37
1, 275106, Control_c, 0, 67, 22
1, 275120, Control_c, 0, 64, 48
1, 275120, Control_c, 0, 67, 25
1, 275135, Control_c, 0, 64, 57
1, 275135, Control_c, 0, 67, 28
1, 275150, Control_c, 0, 64, 64
1, 275150, Control_c, 0, 67, 31
1, 275165, Control_c, 0, 64, 67
1, 275165, Control_c, 0, 67, 34
1, 275179, Control_c, 0, 67, 36
1, 275181, Note_off_c, 0, 67, 34
1, 275194, Control_c, 0, 64, 67
1, 275194, Control_c, 0, 67, 39
1, 275207, Note_off_c, 0, 46, 35
1, 275209, Control_c, 0, 64, 69
1, 275209, Control_c, 0, 67, 43
1, 275224, Control_c, 0, 64, 72
1, 275224, Control_c, 0, 67, 46
1, 275239, Control_c, 0, 64, 75
1, 275239, Control_c, 0, 67, 49
1, 275253, Control_c, 0, 64, 76
1, 275253, Control_c, 0, 67, 52
1, 275256, Note_off_c, 0, 32, 34
1, 275268, Control_c, 0, 64, 77
1, 275268, Control_c, 0, 67, 54
1, 275283, Control_c, 0, 64, 78
1, 275283, Control_c, 0, 67, 57
1, 275298, Control_c, 0, 64, 79
1, 275298, Control_c, 0, 67, 60
1, 275313, Control_c, 0, 64, 79
1, 275313, Control_c, 0, 67, 64
1, 275328, Control_c, 0, 64, 80
1, 275328, Control_c, 0, 67, 66
1, 275343, Control_c, 0, 64, 80
1, 275343, Control_c, 0, 67, 69
1, 275358, Control_c, 0, 64, 81
1, 275358, Control_c, 0, 67, 71
1, 275372, Control_c, 0, 67, 74
1, 275387, Control_c, 0, 67, 78
1, 275391, Note_off_c, 0, 63, 38
1, 275402, Control_c, 0, 67, 81
1, 275417, Control_c, 0, 67, 85
1, 275432, Control_c, 0, 67, 90
1, 275446, Control_c, 0, 67, 95
1, 275461, Control_c, 0, 67, 101
1, 275468, Note_off_c, 0, 73, 30
1, 275476, Control_c, 0, 67, 106
1, 275491, Control_c, 0, 67, 111
1, 275506, Control_c, 0, 67, 117
1, 275520, Control_c, 0, 67, 121
1, 275535, Control_c, 0, 67, 126
1, 275550, Control_c, 0, 64, 80
1, 275550, Control_c, 0, 67, 127
1, 275579, Control_c, 0, 64, 80
1, 275594, Control_c, 0, 64, 79
1, 275610, Control_c, 0, 64, 79
1, 275640, Control_c, 0, 64, 78
1, 275655, Control_c, 0, 64, 78
1, 275699, Control_c, 0, 64, 77
1, 275743, Control_c, 0, 64, 77
1, 275795, Control_c, 0, 64, 76
1, 275840, Control_c, 0, 64, 76
1, 275869, Control_c, 0, 64, 75
1, 275899, Control_c, 0, 64, 75
1, 275929, Control_c, 0, 64, 74
1, 275943, Control_c, 0, 64, 74
1, 275958, Control_c, 0, 64, 73
1, 275973, Control_c, 0, 64, 72
1, 275988, Control_c, 0, 64, 71
1, 276002, Control_c, 0, 64, 69
1, 276017, Control_c, 0, 64, 68
1, 276032, Control_c, 0, 64, 66
1, 276047, Control_c, 0, 64, 65
1, 276062, Control_c, 0, 64, 63
1, 276076, Control_c, 0, 64, 59
1, 276091, Control_c, 0, 64, 52
1, 276106, Control_c, 0, 64, 43
1, 276111, Note_on_c, 0, 72, 53
1, 276118, Note_on_c, 0, 68, 45
1, 276120, Note_on_c, 0, 63, 41
1, 276121, Control_c, 0, 64, 33
1, 276122, Note_on_c, 0, 44, 30
1, 276132, Note_on_c, 0, 32, 31
1, 276136, Control_c, 0, 64, 23
1, 276151, Control_c, 0, 64, 8
1, 276166, Control_c, 0, 64, 0
1, 276269, Control_c, 0, 64, 14
1, 276284, Control_c, 0, 64, 27
1, 276299, Control_c, 0, 64, 38
1, 276313, Control_c, 0, 64, 49
1, 276328, Control_c, 0, 64, 58
1, 276340, Note_off_c, 0, 44, 41
1, 276341, Note_off_c, 0, 32, 40
1, 276343, Control_c, 0, 64, 64
1, 276347, Note_off_c, 0, 68, 28
1, 276358, Control_c, 0, 64, 66
1, 276385, Note_off_c, 0, 72, 31
1, 276387, Control_c, 0, 64, 66
1, 276399, Note_off_c, 0, 63, 45
1, 276402, Control_c, 0, 64, 67
1, 276418, Control_c, 0, 64, 68
1, 276433, Control_c, 0, 64, 69
1, 276559, Control_c, 0, 64, 68
1, 276574, Control_c, 0, 64, 67
1, 276589, Control_c, 0, 64, 66
1, 276604, Control_c, 0, 64, 65
1, 276618, Control_c, 0, 64, 64
1, 276633, Control_c, 0, 64, 62
1, 276648, Control_c, 0, 64, 60
1, 276663, Control_c, 0, 64, 58
1, 276678, Control_c, 0, 64, 56
1, 276692, Control_c, 0, 64, 54
1, 276707, Control_c, 0, 64, 51
1, 276722, Control_c, 0, 64, 50
1, 276737, Control_c, 0, 64, 49
1, 276752, Control_c, 0, 64, 48
1, 276766, Control_c, 0, 64, 47
1, 276781, Control_c, 0, 64, 46
1, 276796, Control_c, 0, 64, 45
1, 276811, Control_c, 0, 64, 43
1, 276825, Control_c, 0, 64, 42
1, 276840, Control_c, 0, 64, 39
1, 276855, Control_c, 0, 64, 36
1, 276870, Control_c, 0, 64, 31
1, 276885, Control_c, 0, 64, 25
1, 276899, Control_c, 0, 64, 16
1, 276914, Control_c, 0, 64, 0
1, 277048, Control_c, 0, 64, 22
1, 277063, Control_c, 0, 64, 30
1, 277078, Control_c, 0, 64, 38
1, 277092, Control_c, 0, 64, 46
1, 277107, Control_c, 0, 64, 53
1, 277122, Control_c, 0, 64, 59
1, 277136, Control_c, 0, 64, 61
1, 277151, Control_c, 0, 64, 62
1, 277166, Control_c, 0, 64, 63
1, 277181, Control_c, 0, 64, 64
1, 277196, Control_c, 0, 64, 65
1, 277212, Control_c, 0, 64, 67
1, 277227, Control_c, 0, 64, 68
1, 277241, Control_c, 0, 64, 68
1, 277256, Control_c, 0, 64, 69
1, 277271, Control_c, 0, 64, 70
1, 277293, Control_c, 0, 64, 71
1, 277308, Control_c, 0, 64, 72
1, 277322, Control_c, 0, 64, 73
1, 277337, Control_c, 0, 64, 73
1, 277352, Control_c, 0, 64, 74
1, 277367, Control_c, 0, 64, 74
1, 277383, Note_on_c, 0, 72, 41
1, 277387, Note_on_c, 0, 63, 37
1, 277390, Note_on_c, 0, 44, 29
1, 277391, Note_on_c, 0, 68, 35
1, 277401, Note_on_c, 0, 32, 27
1, 277471, Control_c, 0, 64, 75
1, 277653, Note_off_c, 0, 44, 35
1, 277726, Note_off_c, 0, 72, 34
1, 277727, Note_off_c, 0, 32, 24
1, 277752, Note_off_c, 0, 68, 29
1, 277775, Note_off_c, 0, 63, 36
1, 278101, Control_c, 0, 64, 74
1, 278131, Control_c, 0, 64, 74
1, 278190, Control_c, 0, 64, 73
1, 278234, Control_c, 0, 64, 73
1, 278279, Control_c, 0, 64, 72
1, 278324, Control_c, 0, 64, 72
1, 278339, Control_c, 0, 64, 71
1, 278354, Control_c, 0, 64, 71
1, 278398, Control_c, 0, 64, 70
1, 278458, Control_c, 0, 64, 70
1, 278546, Control_c, 0, 64, 69
1, 278635, Control_c, 0, 64, 69
1, 278664, Control_c, 0, 64, 68
1, 278709, Control_c, 0, 64, 68
1, 278738, Control_c, 0, 64, 67
1, 278753, Control_c, 0, 64, 67
1, 278768, Control_c, 0, 64, 66
1, 278790, Control_c, 0, 64, 65
1, 278805, Control_c, 0, 64, 65
1, 278821, Control_c, 0, 64, 64
1, 278836, Control_c, 0, 64, 63
1, 278851, Control_c, 0, 64, 62
1, 278866, Control_c, 0, 64, 61
1, 278881, Control_c, 0, 64, 59
1, 278895, Control_c, 0, 64, 59
1, 278910, Control_c, 0, 64, 58
1, 278925, Control_c, 0, 64, 57
1, 278940, Control_c, 0, 64, 56
1, 278999, Control_c, 0, 64, 56
1, 279028, Control_c, 0, 64, 55
1, 279413, Control_c, 0, 64, 55
1, 279443, Control_c, 0, 64, 54
1, 279458, Control_c, 0, 64, 52
1, 279473, Control_c, 0, 64, 51
1, 279487, Control_c, 0, 64, 50
1, 279502, Control_c, 0, 64, 50
1, 279999, Control_c, 0, 64, 49
1, 280029, Control_c, 0, 64, 49
1, 280073, Control_c, 0, 64, 48
1, 280103, Control_c, 0, 64, 48
1, 280117, Control_c, 0, 64, 47
1, 280132, Control_c, 0, 64, 46
1, 280147, Control_c, 0, 64, 46
1, 280161, Control_c, 0, 64, 45
1, 280176, Control_c, 0, 64, 45
1, 280191, Control_c, 0, 64, 43
1, 280206, Control_c, 0, 64, 42
1, 280221, Control_c, 0, 64, 41
1, 280235, Control_c, 0, 64, 40
1, 280265, Control_c, 0, 64, 39
1, 280288, Control_c, 0, 64, 36
1, 280303, Control_c, 0, 64, 34
1, 280317, Control_c, 0, 64, 33
1, 280332, Control_c, 0, 64, 32
1, 280361, Control_c, 0, 64, 32
1, 280376, Control_c, 0, 64, 31
1, 280391, Control_c, 0, 64, 30
1, 280406, Control_c, 0, 64, 30
1, 280496, Control_c, 0, 64, 29
1, 280525, Control_c, 0, 64, 29
1, 280554, Control_c, 0, 64, 28
1, 280569, Control_c, 0, 64, 27
1, 280583, Control_c, 0, 64, 25
1, 280598, Control_c, 0, 64, 23
1, 280613, Control_c, 0, 64, 21
1, 280628, Control_c, 0, 64, 19
1, 280643, Control_c, 0, 64, 17
1, 280658, Control_c, 0, 64, 14
1, 280673, Control_c, 0, 64, 11
1, 280688, Control_c, 0, 64, 9
1, 280703, Control_c, 0, 64, 9
1, 280717, Control_c, 0, 64, 0
1, 280792, End_track
0, 0, End_of_file
