0, 0, Header, 0, 1, 384
1, 0, Start_track
1, 0, Title_t, "Berceuse Op. 57--T. J. Tario    "
1, 0, Text_t, "2008 e-Piano Junior Competition recital round"
1, 0, Text_t, "recorded July 2008"
1, 0, Text_t, "http://www.piano-e-competition.com/"
1, 0, Text_t, "File processed for distribution by software from Zenph Studios, Inc., http://www.zenph.com"
1, 0, Instrument_name_t, "Yamaha Disklavier Pro Mark IV concert grand piano, model DCFIIISM4PRO"
1, 0, Sequencer_specific, 39, 67, 113, 0, 1, 0, 1, 0, 66, 101, 114, 99, 101, 117, 115, 101, 32, 79, 112, 46, 32, 53, 55, 32, 84, 46, 32, 74, 46, 32, 84, 97, 114, 105, 111, 32, 32, 32, 32, 32
1, 0, Sequencer_specific, 6, 67, 113, 0, 0, 0, 69
1, 0, System_exclusive, 21, 67, 113, 126, 21, 0, 2, 2, 0, 3, 14, 1, 4, 1, 13, 13, 10, 11, 9, 2, 7, 247
1, 0, Sequencer_specific, 5, 67, 123, 12, 2, 1
1, 0, Tempo, 512820
1, 0, Time_signature, 4, 2, 24, 8
1, 0, System_exclusive, 5, 126, 127, 9, 1, 247
1, 1, System_exclusive, 8, 67, 16, 76, 0, 0, 126, 0, 247
1, 2, System_exclusive, 8, 67, 16, 76, 8, 9, 7, 1, 247
1, 3, Control_c, 0, 0, 0
1, 3, Control_c, 1, 0, 0
1, 3, Control_c, 2, 0, 0
1, 3, Control_c, 3, 0, 0
1, 3, Control_c, 4, 0, 0
1, 3, Control_c, 5, 0, 0
1, 3, Control_c, 6, 0, 0
1, 3, Control_c, 7, 0, 0
1, 3, Control_c, 8, 0, 0
1, 3, Control_c, 9, 0, 127
1, 3, Control_c, 10, 0, 0
1, 3, Control_c, 11, 0, 0
1, 3, Control_c, 12, 0, 0
1, 3, Control_c, 13, 0, 0
1, 3, Control_c, 14, 0, 0
1, 3, Control_c, 15, 0, 0
1, 4, Control_c, 0, 32, 0
1, 4, Control_c, 1, 32, 0
1, 4, Control_c, 2, 32, 0
1, 4, Control_c, 3, 32, 0
1, 4, Control_c, 4, 32, 0
1, 4, Control_c, 5, 32, 0
1, 4, Control_c, 6, 32, 0
1, 4, Control_c, 7, 32, 0
1, 4, Control_c, 8, 32, 0
1, 4, Control_c, 9, 32, 0
1, 4, Control_c, 10, 32, 0
1, 4, Control_c, 11, 32, 0
1, 4, Control_c, 12, 32, 0
1, 4, Control_c, 13, 32, 0
1, 4, Control_c, 14, 32, 0
1, 4, Control_c, 15, 32, 0
1, 5, Program_c, 0, 0
1, 5, Program_c, 1, 0
1, 5, Program_c, 2, 0
1, 5, Program_c, 3, 0
1, 5, Program_c, 4, 0
1, 5, Program_c, 5, 0
1, 5, Program_c, 6, 0
1, 5, Program_c, 7, 0
1, 5, Program_c, 8, 0
1, 5, Program_c, 9, 0
1, 5, Program_c, 10, 0
1, 5, Program_c, 11, 0
1, 5, Program_c, 12, 0
1, 5, Program_c, 13, 0
1, 5, Program_c, 14, 0
1, 5, Program_c, 15, 0
1, 6, Control_c, 0, 7, 100
1, 6, Control_c, 1, 7, 100
1, 6, Control_c, 2, 7, 100
1, 6, Control_c, 3, 7, 100
1, 6, Control_c, 4, 7, 100
1, 6, Control_c, 5, 7, 100
1, 6, Control_c, 6, 7, 100
1, 6, Control_c, 7, 7, 100
1, 6, Control_c, 8, 7, 100
1, 6, Control_c, 9, 7, 100
1, 6, Control_c, 10, 7, 100
1, 6, Control_c, 11, 7, 100
1, 6, Control_c, 12, 7, 100
1, 6, Control_c, 13, 7, 100
1, 6, Control_c, 14, 7, 100
1, 6, Control_c, 15, 7, 100
1, 1135, Control_c, 0, 64, 75
1, 1135, Note_on_c, 0, 37, 30
1, 1149, Control_c, 0, 64, 79
1, 1164, Control_c, 0, 64, 83
1, 1179, Control_c, 0, 64, 87
1, 1194, Control_c, 0, 64, 92
1, 1209, Control_c, 0, 64, 96
1, 1223, Control_c, 0, 64, 101
1, 1238, Control_c, 0, 64, 106
1, 1253, Control_c, 0, 64, 110
1, 1267, Control_c, 0, 64, 115
1, 1282, Control_c, 0, 64, 121
1, 1284, Note_off_c, 0, 37, 52
1, 1297, Control_c, 0, 64, 127
1, 1862, Note_on_c, 0, 56, 31
1, 2336, Note_on_c, 0, 65, 44
1, 2340, Note_on_c, 0, 61, 39
1, 2446, Note_off_c, 0, 65, 64
1, 2491, Note_off_c, 0, 61, 61
1, 2796, Note_on_c, 0, 60, 41
1, 2796, Note_on_c, 0, 66, 41
1, 2825, Control_c, 0, 64, 127
1, 2839, Control_c, 0, 64, 107
1, 2854, Control_c, 0, 64, 97
1, 2869, Control_c, 0, 64, 89
1, 2884, Control_c, 0, 64, 81
1, 2899, Control_c, 0, 64, 75
1, 2913, Control_c, 0, 64, 69
1, 2917, Note_off_c, 0, 56, 41
1, 2928, Control_c, 0, 64, 63
1, 2943, Control_c, 0, 64, 57
1, 2958, Control_c, 0, 64, 59
1, 2973, Control_c, 0, 64, 62
1, 2987, Control_c, 0, 64, 64
1, 3002, Control_c, 0, 64, 66
1, 3017, Control_c, 0, 64, 68
1, 3032, Control_c, 0, 64, 72
1, 3054, Control_c, 0, 64, 75
1, 3069, Control_c, 0, 64, 80
1, 3084, Control_c, 0, 64, 85
1, 3099, Control_c, 0, 64, 89
1, 3114, Control_c, 0, 64, 93
1, 3129, Control_c, 0, 64, 98
1, 3144, Control_c, 0, 64, 102
1, 3159, Control_c, 0, 64, 105
1, 3174, Control_c, 0, 64, 109
1, 3188, Control_c, 0, 64, 114
1, 3203, Control_c, 0, 64, 119
1, 3218, Control_c, 0, 64, 126
1, 3233, Control_c, 0, 64, 127
1, 3428, Note_on_c, 0, 56, 26
1, 3641, Note_off_c, 0, 56, 37
1, 3653, Note_off_c, 0, 66, 37
1, 3757, Note_off_c, 0, 60, 37
1, 5145, Control_c, 0, 64, 116
1, 5147, Note_on_c, 0, 37, 32
1, 5160, Control_c, 0, 64, 101
1, 5175, Control_c, 0, 64, 88
1, 5189, Control_c, 0, 64, 76
1, 5204, Control_c, 0, 64, 66
1, 5219, Control_c, 0, 64, 58
1, 5233, Control_c, 0, 64, 64
1, 5248, Control_c, 0, 64, 71
1, 5263, Control_c, 0, 64, 81
1, 5278, Control_c, 0, 64, 94
1, 5301, Control_c, 0, 64, 109
1, 5315, Control_c, 0, 64, 127
1, 5343, Note_off_c, 0, 37, 54
1, 5765, Note_on_c, 0, 56, 43
1, 6251, Note_on_c, 0, 61, 50
1, 6253, Note_on_c, 0, 65, 43
1, 6363, Note_off_c, 0, 65, 64
1, 6410, Note_off_c, 0, 61, 62
1, 6739, Note_on_c, 0, 66, 33
1, 6774, Note_on_c, 0, 60, 42
1, 6776, Control_c, 0, 64, 123
1, 6798, Control_c, 0, 64, 102
1, 6813, Control_c, 0, 64, 88
1, 6828, Control_c, 0, 64, 76
1, 6843, Control_c, 0, 64, 65
1, 6856, Note_off_c, 0, 56, 42
1, 6858, Control_c, 0, 64, 41
1, 6873, Control_c, 0, 64, 0
1, 6887, Control_c, 0, 64, 45
1, 6902, Control_c, 0, 64, 61
1, 6917, Control_c, 0, 64, 65
1, 6932, Control_c, 0, 64, 68
1, 6947, Control_c, 0, 64, 71
1, 6961, Control_c, 0, 64, 77
1, 6976, Control_c, 0, 64, 83
1, 6991, Control_c, 0, 64, 89
1, 7006, Control_c, 0, 64, 95
1, 7020, Control_c, 0, 64, 100
1, 7035, Control_c, 0, 64, 104
1, 7050, Control_c, 0, 64, 108
1, 7065, Control_c, 0, 64, 111
1, 7080, Control_c, 0, 64, 116
1, 7094, Control_c, 0, 64, 122
1, 7110, Control_c, 0, 64, 127
1, 7436, Note_on_c, 0, 56, 23
1, 7599, Note_off_c, 0, 66, 43
1, 7618, Note_off_c, 0, 56, 38
1, 7645, Note_off_c, 0, 60, 46
1, 9001, Note_on_c, 0, 37, 32
1, 9060, Control_c, 0, 64, 111
1, 9072, Note_on_c, 0, 77, 68
1, 9075, Control_c, 0, 64, 96
1, 9089, Control_c, 0, 64, 81
1, 9104, Control_c, 0, 64, 66
1, 9119, Control_c, 0, 64, 0
1, 9163, Control_c, 0, 64, 17
1, 9178, Control_c, 0, 64, 63
1, 9193, Control_c, 0, 64, 69
1, 9208, Control_c, 0, 64, 78
1, 9223, Control_c, 0, 64, 87
1, 9237, Control_c, 0, 64, 95
1, 9252, Control_c, 0, 64, 103
1, 9267, Control_c, 0, 64, 111
1, 9273, Note_off_c, 0, 37, 54
1, 9281, Control_c, 0, 64, 120
1, 9296, Control_c, 0, 64, 127
1, 9821, Note_on_c, 0, 56, 29
1, 10279, Note_on_c, 0, 65, 32
1, 10291, Note_on_c, 0, 61, 32
1, 10367, Note_off_c, 0, 65, 60
1, 10447, Note_off_c, 0, 61, 36
1, 10688, Note_on_c, 0, 66, 41
1, 10709, Note_on_c, 0, 60, 39
1, 10721, Control_c, 0, 64, 127
1, 10735, Note_on_c, 0, 75, 66
1, 10735, Control_c, 0, 64, 102
1, 10750, Control_c, 0, 64, 86
1, 10765, Control_c, 0, 64, 70
1, 10768, Note_off_c, 0, 77, 56
1, 10780, Control_c, 0, 64, 10
1, 10795, Control_c, 0, 64, 0
1, 10810, Note_off_c, 0, 56, 41
1, 10853, Control_c, 0, 64, 56
1, 10868, Control_c, 0, 64, 64
1, 10883, Control_c, 0, 64, 69
1, 10898, Control_c, 0, 64, 74
1, 10913, Control_c, 0, 64, 82
1, 10927, Control_c, 0, 64, 88
1, 10942, Control_c, 0, 64, 93
1, 10957, Control_c, 0, 64, 97
1, 10972, Control_c, 0, 64, 100
1, 10987, Control_c, 0, 64, 103
1, 11001, Control_c, 0, 64, 105
1, 11016, Control_c, 0, 64, 107
1, 11031, Control_c, 0, 64, 110
1, 11046, Control_c, 0, 64, 113
1, 11061, Control_c, 0, 64, 117
1, 11076, Control_c, 0, 64, 123
1, 11091, Control_c, 0, 64, 127
1, 11252, Note_on_c, 0, 80, 59
1, 11258, Note_on_c, 0, 56, 36
1, 11302, Note_off_c, 0, 75, 60
1, 11381, Note_off_c, 0, 66, 52
1, 11415, Note_off_c, 0, 56, 43
1, 11437, Note_off_c, 0, 60, 52
1, 11735, Note_on_c, 0, 77, 56
1, 12048, Note_off_c, 0, 80, 14
1, 12175, Note_on_c, 0, 37, 33
1, 12188, Control_c, 0, 64, 116
1, 12203, Control_c, 0, 64, 97
1, 12218, Control_c, 0, 64, 80
1, 12228, Note_on_c, 0, 75, 54
1, 12230, Note_off_c, 0, 77, 57
1, 12232, Control_c, 0, 64, 56
1, 12247, Control_c, 0, 64, 0
1, 12292, Control_c, 0, 64, 55
1, 12306, Control_c, 0, 64, 69
1, 12320, Note_off_c, 0, 37, 59
1, 12321, Control_c, 0, 64, 83
1, 12336, Control_c, 0, 64, 95
1, 12351, Control_c, 0, 64, 105
1, 12366, Control_c, 0, 64, 112
1, 12380, Control_c, 0, 64, 117
1, 12395, Control_c, 0, 64, 121
1, 12410, Control_c, 0, 64, 127
1, 12671, Note_on_c, 0, 77, 57
1, 12683, Note_off_c, 0, 75, 64
1, 12700, Note_on_c, 0, 56, 33
1, 13093, Note_on_c, 0, 65, 34
1, 13109, Note_on_c, 0, 73, 54
1, 13112, Note_on_c, 0, 61, 37
1, 13192, Note_off_c, 0, 65, 58
1, 13525, Note_on_c, 0, 63, 38
1, 13538, Control_c, 0, 64, 121
1, 13547, Note_on_c, 0, 66, 36
1, 13553, Control_c, 0, 64, 100
1, 13563, Note_on_c, 0, 70, 51
1, 13567, Control_c, 0, 64, 80
1, 13582, Control_c, 0, 64, 64
1, 13597, Control_c, 0, 64, 0
1, 13605, Note_off_c, 0, 77, 51
1, 13609, Note_off_c, 0, 73, 52
1, 13628, Note_off_c, 0, 61, 35
1, 13667, Note_off_c, 0, 56, 46
1, 13670, Control_c, 0, 64, 53
1, 13685, Control_c, 0, 64, 62
1, 13700, Control_c, 0, 64, 67
1, 13715, Control_c, 0, 64, 75
1, 13730, Control_c, 0, 64, 86
1, 13744, Control_c, 0, 64, 100
1, 13759, Control_c, 0, 64, 110
1, 13774, Control_c, 0, 64, 118
1, 13789, Control_c, 0, 64, 125
1, 13804, Control_c, 0, 64, 127
1, 14030, Note_on_c, 0, 72, 47
1, 14052, Note_on_c, 0, 56, 36
1, 14065, Note_off_c, 0, 70, 56
1, 14207, Note_off_c, 0, 66, 55
1, 14254, Note_off_c, 0, 63, 38
1, 14297, Note_off_c, 0, 56, 41
1, 14473, Note_on_c, 0, 75, 44
1, 14516, Note_off_c, 0, 72, 58
1, 14997, Control_c, 0, 64, 103
1, 15012, Control_c, 0, 64, 84
1, 15013, Note_on_c, 0, 37, 36
1, 15034, Control_c, 0, 64, 66
1, 15045, Note_on_c, 0, 68, 41
1, 15049, Control_c, 0, 64, 0
1, 15097, Note_off_c, 0, 75, 37
1, 15109, Control_c, 0, 64, 63
1, 15124, Control_c, 0, 64, 72
1, 15139, Control_c, 0, 64, 84
1, 15154, Control_c, 0, 64, 99
1, 15169, Control_c, 0, 64, 112
1, 15175, Note_off_c, 0, 37, 56
1, 15184, Control_c, 0, 64, 127
1, 15540, Note_on_c, 0, 73, 54
1, 15544, Note_on_c, 0, 56, 34
1, 15566, Note_off_c, 0, 68, 61
1, 15971, Note_on_c, 0, 65, 39
1, 15979, Note_on_c, 0, 61, 43
1, 16078, Note_off_c, 0, 65, 64
1, 16140, Note_off_c, 0, 61, 57
1, 16376, Note_on_c, 0, 66, 42
1, 16379, Note_on_c, 0, 60, 42
1, 16421, Control_c, 0, 64, 110
1, 16425, Note_on_c, 0, 75, 65
1, 16436, Control_c, 0, 64, 92
1, 16451, Control_c, 0, 64, 75
1, 16465, Control_c, 0, 64, 44
1, 16480, Control_c, 0, 64, 0
1, 16532, Control_c, 0, 64, 40
1, 16546, Control_c, 0, 64, 64
1, 16550, Note_off_c, 0, 56, 48
1, 16561, Control_c, 0, 64, 70
1, 16567, Note_off_c, 0, 73, 36
1, 16576, Control_c, 0, 64, 76
1, 16591, Control_c, 0, 64, 83
1, 16606, Control_c, 0, 64, 89
1, 16620, Control_c, 0, 64, 95
1, 16635, Control_c, 0, 64, 99
1, 16650, Control_c, 0, 64, 103
1, 16665, Control_c, 0, 64, 107
1, 16680, Control_c, 0, 64, 111
1, 16695, Control_c, 0, 64, 116
1, 16710, Control_c, 0, 64, 122
1, 16725, Control_c, 0, 64, 127
1, 16868, Note_on_c, 0, 56, 46
1, 16870, Note_on_c, 0, 78, 73
1, 16960, Note_off_c, 0, 66, 59
1, 16992, Note_off_c, 0, 56, 58
1, 16993, Note_off_c, 0, 75, 56
1, 17008, Note_off_c, 0, 60, 59
1, 17322, Note_on_c, 0, 82, 68
1, 17372, Note_off_c, 0, 78, 60
1, 17777, Note_on_c, 0, 37, 32
1, 17786, Control_c, 0, 64, 107
1, 17801, Control_c, 0, 64, 89
1, 17816, Control_c, 0, 64, 72
1, 17825, Note_on_c, 0, 80, 58
1, 17831, Control_c, 0, 64, 40
1, 17845, Control_c, 0, 64, 0
1, 17875, Control_c, 0, 64, 36
1, 17890, Control_c, 0, 64, 65
1, 17905, Control_c, 0, 64, 75
1, 17919, Control_c, 0, 64, 88
1, 17928, Note_off_c, 0, 37, 56
1, 17934, Control_c, 0, 64, 102
1, 17949, Control_c, 0, 64, 115
1, 17964, Control_c, 0, 64, 127
1, 18259, Note_on_c, 0, 78, 57
1, 18260, Note_on_c, 0, 56, 29
1, 18289, Note_off_c, 0, 82, 42
1, 18319, Note_off_c, 0, 80, 49
1, 18440, Note_off_c, 0, 78, 53
1, 18685, Note_on_c, 0, 77, 53
1, 18707, Note_on_c, 0, 65, 38
1, 18721, Note_on_c, 0, 61, 34
1, 18793, Note_off_c, 0, 65, 63
1, 18883, Note_off_c, 0, 61, 35
1, 19135, Control_c, 0, 64, 118
1, 19143, Note_on_c, 0, 66, 35
1, 19146, Note_on_c, 0, 60, 32
1, 19150, Control_c, 0, 64, 102
1, 19155, Note_on_c, 0, 75, 47
1, 19164, Control_c, 0, 64, 88
1, 19179, Control_c, 0, 64, 74
1, 19194, Control_c, 0, 64, 51
1, 19208, Control_c, 0, 64, 0
1, 19209, Note_off_c, 0, 77, 36
1, 19211, Note_off_c, 0, 56, 34
1, 19268, Control_c, 0, 64, 53
1, 19282, Control_c, 0, 64, 64
1, 19297, Control_c, 0, 64, 69
1, 19312, Control_c, 0, 64, 75
1, 19327, Control_c, 0, 64, 81
1, 19342, Control_c, 0, 64, 85
1, 19357, Control_c, 0, 64, 89
1, 19372, Control_c, 0, 64, 93
1, 19387, Control_c, 0, 64, 97
1, 19402, Control_c, 0, 64, 102
1, 19416, Control_c, 0, 64, 105
1, 19431, Control_c, 0, 64, 109
1, 19446, Control_c, 0, 64, 113
1, 19461, Control_c, 0, 64, 116
1, 19476, Control_c, 0, 64, 119
1, 19490, Control_c, 0, 64, 121
1, 19512, Control_c, 0, 64, 125
1, 19527, Control_c, 0, 64, 127
1, 19619, Note_on_c, 0, 56, 28
1, 19631, Note_on_c, 0, 73, 46
1, 19652, Note_off_c, 0, 75, 53
1, 19774, Note_off_c, 0, 66, 42
1, 19818, Note_off_c, 0, 56, 38
1, 19840, Note_off_c, 0, 60, 40
1, 20099, Note_on_c, 0, 75, 45
1, 20103, Note_on_c, 0, 72, 35
1, 20110, Note_off_c, 0, 73, 35
1, 20385, Note_off_c, 0, 72, 41
1, 20638, Note_on_c, 0, 73, 43
1, 20653, Note_on_c, 0, 37, 33
1, 20654, Note_on_c, 0, 77, 47
1, 20661, Control_c, 0, 64, 113
1, 20676, Control_c, 0, 64, 93
1, 20692, Control_c, 0, 64, 76
1, 20705, Note_off_c, 0, 75, 36
1, 20707, Control_c, 0, 64, 54
1, 20722, Control_c, 0, 64, 0
1, 20751, Control_c, 0, 64, 47
1, 20766, Control_c, 0, 64, 66
1, 20781, Control_c, 0, 64, 75
1, 20796, Note_off_c, 0, 37, 57
1, 20796, Control_c, 0, 64, 88
1, 20810, Control_c, 0, 64, 100
1, 20825, Control_c, 0, 64, 115
1, 20840, Control_c, 0, 64, 127
1, 21156, Note_on_c, 0, 56, 35
1, 21176, Note_on_c, 0, 72, 40
1, 21212, Note_off_c, 0, 73, 34
1, 21573, Note_on_c, 0, 65, 41
1, 21574, Note_on_c, 0, 61, 37
1, 21577, Note_off_c, 0, 72, 55
1, 21584, Note_on_c, 0, 70, 48
1, 21666, Note_off_c, 0, 65, 64
1, 21963, Note_off_c, 0, 77, 57
1, 21964, Note_on_c, 0, 63, 45
1, 21968, Note_on_c, 0, 66, 48
1, 21982, Control_c, 0, 64, 112
1, 21983, Note_on_c, 0, 75, 66
1, 21985, Note_on_c, 0, 72, 62
1, 21997, Control_c, 0, 64, 94
1, 22011, Control_c, 0, 64, 77
1, 22026, Control_c, 0, 64, 55
1, 22027, Note_off_c, 0, 61, 9
1, 22034, Note_off_c, 0, 70, 31
1, 22041, Control_c, 0, 64, 0
1, 22052, Note_off_c, 0, 56, 40
1, 22100, Control_c, 0, 64, 44
1, 22115, Control_c, 0, 64, 63
1, 22130, Control_c, 0, 64, 67
1, 22145, Control_c, 0, 64, 72
1, 22159, Control_c, 0, 64, 79
1, 22174, Control_c, 0, 64, 87
1, 22189, Control_c, 0, 64, 92
1, 22204, Control_c, 0, 64, 97
1, 22219, Control_c, 0, 64, 102
1, 22233, Control_c, 0, 64, 107
1, 22248, Control_c, 0, 64, 112
1, 22263, Control_c, 0, 64, 117
1, 22279, Control_c, 0, 64, 124
1, 22294, Control_c, 0, 64, 127
1, 22397, Note_on_c, 0, 80, 50
1, 22429, Note_on_c, 0, 70, 53
1, 22445, Note_on_c, 0, 56, 24
1, 22445, Note_off_c, 0, 72, 59
1, 22496, Note_off_c, 0, 75, 56
1, 22519, Note_off_c, 0, 66, 52
1, 22560, Note_off_c, 0, 63, 24
1, 22586, Note_off_c, 0, 56, 39
1, 22760, Note_off_c, 0, 70, 36
1, 22885, Note_on_c, 0, 68, 45
1, 22893, Note_on_c, 0, 77, 43
1, 23125, Note_off_c, 0, 80, 31
1, 23375, Control_c, 0, 64, 106
1, 23389, Note_on_c, 0, 70, 40
1, 23390, Control_c, 0, 64, 89
1, 23390, Note_on_c, 0, 37, 32
1, 23402, Note_on_c, 0, 75, 43
1, 23405, Control_c, 0, 64, 73
1, 23414, Note_off_c, 0, 77, 53
1, 23420, Control_c, 0, 64, 37
1, 23435, Control_c, 0, 64, 0
1, 23479, Control_c, 0, 64, 55
1, 23488, Note_off_c, 0, 68, 34
1, 23494, Control_c, 0, 64, 67
1, 23509, Control_c, 0, 64, 77
1, 23524, Control_c, 0, 64, 89
1, 23527, Note_off_c, 0, 37, 58
1, 23538, Control_c, 0, 64, 102
1, 23553, Control_c, 0, 64, 118
1, 23568, Control_c, 0, 64, 127
1, 23841, Note_on_c, 0, 68, 43
1, 23848, Note_on_c, 0, 56, 30
1, 23852, Note_on_c, 0, 77, 48
1, 23921, Note_off_c, 0, 75, 41
1, 23956, Note_off_c, 0, 68, 60
1, 24065, Note_off_c, 0, 77, 33
1, 24260, Note_on_c, 0, 61, 38
1, 24272, Note_on_c, 0, 73, 46
1, 24273, Note_on_c, 0, 65, 41
1, 24307, Note_off_c, 0, 70, 53
1, 24688, Control_c, 0, 64, 127
1, 24690, Note_on_c, 0, 63, 38
1, 24690, Note_on_c, 0, 66, 46
1, 24694, Note_on_c, 0, 70, 46
1, 24702, Control_c, 0, 64, 105
1, 24717, Control_c, 0, 64, 90
1, 24732, Control_c, 0, 64, 75
1, 24747, Control_c, 0, 64, 45
1, 24750, Note_off_c, 0, 56, 40
1, 24770, Control_c, 0, 64, 0
1, 24773, Note_off_c, 0, 61, 37
1, 24779, Note_off_c, 0, 65, 40
1, 24783, Note_off_c, 0, 73, 31
1, 24843, Control_c, 0, 64, 50
1, 24858, Control_c, 0, 64, 62
1, 24873, Control_c, 0, 64, 66
1, 24888, Control_c, 0, 64, 71
1, 24902, Control_c, 0, 64, 78
1, 24917, Control_c, 0, 64, 85
1, 24932, Control_c, 0, 64, 92
1, 24947, Control_c, 0, 64, 100
1, 24962, Control_c, 0, 64, 107
1, 24976, Control_c, 0, 64, 111
1, 24991, Control_c, 0, 64, 115
1, 25006, Control_c, 0, 64, 119
1, 25021, Control_c, 0, 64, 125
1, 25035, Control_c, 0, 64, 127
1, 25143, Note_on_c, 0, 65, 33
1, 25144, Note_on_c, 0, 72, 46
1, 25149, Note_on_c, 0, 56, 25
1, 25179, Note_off_c, 0, 66, 32
1, 25216, Note_off_c, 0, 65, 62
1, 25225, Note_off_c, 0, 63, 32
1, 25307, Note_off_c, 0, 56, 38
1, 25593, Note_on_c, 0, 63, 34
1, 25607, Note_on_c, 0, 75, 40
1, 25718, Note_off_c, 0, 70, 33
1, 25730, Note_off_c, 0, 72, 27
1, 25766, Note_off_c, 0, 63, 42
1, 25770, Note_off_c, 0, 75, 36
1, 26095, Control_c, 0, 64, 109
1, 26110, Control_c, 0, 64, 94
1, 26121, Note_on_c, 0, 66, 40
1, 26124, Control_c, 0, 64, 80
1, 26133, Note_on_c, 0, 37, 35
1, 26136, Note_on_c, 0, 68, 43
1, 26139, Control_c, 0, 64, 66
1, 26154, Control_c, 0, 64, 0
1, 26169, Note_off_c, 0, 66, 0
1, 26169, Note_on_c, 0, 66, 4
1, 26183, Control_c, 0, 64, 33
1, 26198, Control_c, 0, 64, 63
1, 26213, Control_c, 0, 64, 70
1, 26228, Control_c, 0, 64, 79
1, 26243, Control_c, 0, 64, 91
1, 26265, Control_c, 0, 64, 102
1, 26269, Note_off_c, 0, 37, 56
1, 26281, Control_c, 0, 64, 114
1, 26296, Control_c, 0, 64, 127
1, 26652, Note_on_c, 0, 56, 34
1, 26660, Note_on_c, 0, 65, 44
1, 26687, Note_on_c, 0, 73, 41
1, 26720, Note_off_c, 0, 66, 42
1, 26724, Note_off_c, 0, 68, 58
1, 26753, Note_off_c, 0, 65, 63
1, 27059, Note_on_c, 0, 70, 60
1, 27066, Note_on_c, 0, 61, 38
1, 27066, Note_off_c, 0, 73, 61
1, 27074, Note_on_c, 0, 65, 41
1, 27149, Note_off_c, 0, 65, 64
1, 27246, Note_off_c, 0, 61, 35
1, 27378, Note_off_c, 0, 70, 60
1, 27425, Note_on_c, 0, 63, 46
1, 27429, Note_on_c, 0, 75, 59
1, 27430, Control_c, 0, 64, 116
1, 27432, Note_on_c, 0, 66, 46
1, 27438, Note_on_c, 0, 72, 57
1, 27445, Control_c, 0, 64, 99
1, 27460, Control_c, 0, 64, 85
1, 27475, Control_c, 0, 64, 71
1, 27490, Control_c, 0, 64, 50
1, 27504, Control_c, 0, 64, 0
1, 27534, Note_off_c, 0, 56, 40
1, 27534, Control_c, 0, 64, 56
1, 27548, Control_c, 0, 64, 66
1, 27563, Control_c, 0, 64, 74
1, 27578, Control_c, 0, 64, 84
1, 27593, Control_c, 0, 64, 93
1, 27608, Control_c, 0, 64, 98
1, 27609, Note_off_c, 0, 72, 64
1, 27623, Control_c, 0, 64, 103
1, 27638, Control_c, 0, 64, 106
1, 27653, Control_c, 0, 64, 108
1, 27668, Control_c, 0, 64, 110
1, 27683, Control_c, 0, 64, 112
1, 27697, Control_c, 0, 64, 113
1, 27712, Control_c, 0, 64, 115
1, 27727, Control_c, 0, 64, 119
1, 27748, Control_c, 0, 64, 127
1, 27842, Note_on_c, 0, 78, 66
1, 27844, Note_off_c, 0, 75, 65
1, 27846, Note_on_c, 0, 56, 39
1, 27852, Note_on_c, 0, 70, 61
1, 27968, Note_off_c, 0, 70, 59
1, 27989, Note_off_c, 0, 66, 54
1, 28040, Note_off_c, 0, 63, 32
1, 28106, Note_off_c, 0, 56, 41
1, 28243, Note_on_c, 0, 68, 58
1, 28247, Note_on_c, 0, 82, 69
1, 28345, Note_off_c, 0, 68, 61
1, 28347, Note_off_c, 0, 78, 60
1, 28540, Note_off_c, 0, 82, 36
1, 28660, Control_c, 0, 64, 108
1, 28661, Note_on_c, 0, 80, 70
1, 28662, Note_on_c, 0, 37, 47
1, 28670, Note_on_c, 0, 77, 62
1, 28676, Control_c, 0, 64, 87
1, 28691, Control_c, 0, 64, 70
1, 28706, Control_c, 0, 64, 38
1, 28721, Control_c, 0, 64, 0
1, 28736, Control_c, 0, 64, 53
1, 28750, Control_c, 0, 64, 66
1, 28765, Control_c, 0, 64, 77
1, 28780, Control_c, 0, 64, 96
1, 28780, Note_off_c, 0, 37, 65
1, 28794, Control_c, 0, 64, 118
1, 28809, Control_c, 0, 64, 127
1, 29112, Note_on_c, 0, 85, 58
1, 29126, Note_on_c, 0, 72, 42
1, 29140, Note_on_c, 0, 56, 39
1, 29209, Note_off_c, 0, 85, 64
1, 29218, Note_off_c, 0, 72, 62
1, 29540, Note_on_c, 0, 82, 48
1, 29543, Note_on_c, 0, 65, 44
1, 29552, Note_on_c, 0, 61, 40
1, 29562, Note_on_c, 0, 73, 46
1, 29601, Note_off_c, 0, 77, 36
1, 29635, Note_off_c, 0, 65, 59
1, 29649, Note_off_c, 0, 80, 28
1, 29711, Note_off_c, 0, 61, 52
1, 29913, Control_c, 0, 64, 112
1, 29925, Note_on_c, 0, 78, 62
1, 29928, Control_c, 0, 64, 93
1, 29930, Note_on_c, 0, 66, 45
1, 29932, Note_on_c, 0, 75, 58
1, 29941, Note_on_c, 0, 63, 46
1, 29942, Control_c, 0, 64, 77
1, 29957, Control_c, 0, 64, 62
1, 29958, Note_off_c, 0, 82, 62
1, 29972, Control_c, 0, 64, 0
1, 30010, Control_c, 0, 64, 53
1, 30024, Control_c, 0, 64, 69
1, 30030, Note_off_c, 0, 73, 50
1, 30039, Control_c, 0, 64, 80
1, 30054, Control_c, 0, 64, 94
1, 30056, Note_off_c, 0, 66, 66
1, 30059, Note_off_c, 0, 56, 30
1, 30069, Control_c, 0, 64, 107
1, 30084, Control_c, 0, 64, 118
1, 30098, Control_c, 0, 64, 127
1, 30350, Note_on_c, 0, 84, 54
1, 30369, Note_on_c, 0, 70, 44
1, 30392, Note_on_c, 0, 56, 37
1, 30401, Note_off_c, 0, 84, 59
1, 30516, Note_off_c, 0, 70, 55
1, 30553, Note_off_c, 0, 56, 41
1, 30590, Note_off_c, 0, 63, 5
1, 30628, Note_off_c, 0, 78, 26
1, 30792, Note_on_c, 0, 80, 52
1, 30799, Note_on_c, 0, 72, 42
1, 30804, Note_off_c, 0, 75, 52
1, 31234, Control_c, 0, 64, 106
1, 31246, Note_on_c, 0, 37, 36
1, 31249, Control_c, 0, 64, 89
1, 31252, Note_on_c, 0, 77, 46
1, 31259, Note_off_c, 0, 80, 38
1, 31261, Note_on_c, 0, 73, 45
1, 31263, Control_c, 0, 64, 71
1, 31274, Note_off_c, 0, 72, 62
1, 31278, Control_c, 0, 64, 36
1, 31293, Control_c, 0, 64, 0
1, 31323, Control_c, 0, 64, 58
1, 31338, Control_c, 0, 64, 71
1, 31352, Control_c, 0, 64, 87
1, 31367, Control_c, 0, 64, 105
1, 31382, Control_c, 0, 64, 124
1, 31386, Note_off_c, 0, 37, 56
1, 31397, Control_c, 0, 64, 127
1, 31666, Note_off_c, 0, 73, 29
1, 31687, Note_on_c, 0, 82, 48
1, 31695, Note_on_c, 0, 68, 41
1, 31710, Note_on_c, 0, 56, 36
1, 31778, Note_off_c, 0, 82, 61
1, 31804, Note_off_c, 0, 68, 42
1, 32065, Note_off_c, 0, 77, 39
1, 32070, Note_on_c, 0, 78, 50
1, 32072, Note_on_c, 0, 65, 35
1, 32079, Note_on_c, 0, 61, 35
1, 32082, Note_on_c, 0, 70, 43
1, 32137, Note_off_c, 0, 65, 62
1, 32458, Note_on_c, 0, 66, 34
1, 32464, Control_c, 0, 64, 120
1, 32472, Note_on_c, 0, 63, 36
1, 32479, Control_c, 0, 64, 101
1, 32487, Note_on_c, 0, 75, 48
1, 32494, Control_c, 0, 64, 85
1, 32503, Note_off_c, 0, 78, 56
1, 32509, Control_c, 0, 64, 68
1, 32520, Note_on_c, 0, 72, 39
1, 32524, Control_c, 0, 64, 0
1, 32524, Note_off_c, 0, 61, 9
1, 32542, Note_off_c, 0, 70, 54
1, 32583, Control_c, 0, 64, 59
1, 32595, Note_off_c, 0, 56, 39
1, 32598, Control_c, 0, 64, 68
1, 32613, Control_c, 0, 64, 75
1, 32627, Control_c, 0, 64, 83
1, 32642, Control_c, 0, 64, 90
1, 32657, Control_c, 0, 64, 96
1, 32667, Note_off_c, 0, 66, 54
1, 32673, Control_c, 0, 64, 102
1, 32688, Control_c, 0, 64, 107
1, 32702, Control_c, 0, 64, 112
1, 32717, Control_c, 0, 64, 117
1, 32732, Control_c, 0, 64, 124
1, 32747, Control_c, 0, 64, 127
1, 32953, Note_on_c, 0, 80, 41
1, 32955, Note_on_c, 0, 66, 32
1, 32986, Note_on_c, 0, 56, 23
1, 33029, Note_off_c, 0, 63, 31
1, 33061, Note_off_c, 0, 66, 43
1, 33064, Note_off_c, 0, 80, 37
1, 33152, Note_off_c, 0, 56, 40
1, 33400, Note_on_c, 0, 68, 32
1, 33415, Note_on_c, 0, 77, 41
1, 33428, Note_off_c, 0, 72, 28
1, 33477, Note_off_c, 0, 75, 22
1, 33872, Control_c, 0, 64, 115
1, 33887, Control_c, 0, 64, 98
1, 33891, Note_off_c, 0, 68, 38
1, 33902, Control_c, 0, 64, 83
1, 33913, Note_on_c, 0, 70, 40
1, 33916, Control_c, 0, 64, 68
1, 33931, Control_c, 0, 64, 21
1, 33939, Note_on_c, 0, 37, 27
1, 33946, Control_c, 0, 64, 0
1, 33957, Note_on_c, 0, 75, 36
1, 33962, Note_off_c, 0, 70, 0
1, 33962, Note_on_c, 0, 70, 6
1, 33976, Control_c, 0, 64, 52
1, 33991, Control_c, 0, 64, 66
1, 34001, Note_off_c, 0, 77, 37
1, 34006, Control_c, 0, 64, 73
1, 34021, Control_c, 0, 64, 85
1, 34036, Control_c, 0, 64, 100
1, 34039, Note_off_c, 0, 37, 58
1, 34051, Control_c, 0, 64, 112
1, 34065, Control_c, 0, 64, 127
1, 34347, Note_off_c, 0, 75, 33
1, 34357, Note_on_c, 0, 77, 47
1, 34363, Note_on_c, 0, 56, 40
1, 34376, Note_on_c, 0, 68, 42
1, 34464, Note_off_c, 0, 68, 58
1, 34496, Note_off_c, 0, 77, 56
1, 34765, Note_on_c, 0, 73, 48
1, 34766, Note_on_c, 0, 61, 39
1, 34767, Note_on_c, 0, 65, 41
1, 34783, Note_off_c, 0, 70, 41
1, 35188, Note_off_c, 0, 73, 41
1, 35194, Note_on_c, 0, 66, 41
1, 35195, Note_on_c, 0, 63, 32
1, 35200, Control_c, 0, 64, 123
1, 35209, Note_on_c, 0, 70, 36
1, 35215, Control_c, 0, 64, 102
1, 35237, Control_c, 0, 64, 85
1, 35245, Note_off_c, 0, 65, 33
1, 35252, Control_c, 0, 64, 69
1, 35267, Control_c, 0, 64, 0
1, 35269, Note_off_c, 0, 56, 46
1, 35275, Note_off_c, 0, 61, 35
1, 35326, Control_c, 0, 64, 44
1, 35341, Control_c, 0, 64, 63
1, 35356, Control_c, 0, 64, 67
1, 35370, Control_c, 0, 64, 73
1, 35385, Control_c, 0, 64, 81
1, 35400, Control_c, 0, 64, 89
1, 35415, Control_c, 0, 64, 95
1, 35430, Control_c, 0, 64, 100
1, 35445, Control_c, 0, 64, 104
1, 35460, Control_c, 0, 64, 107
1, 35475, Control_c, 0, 64, 110
1, 35490, Control_c, 0, 64, 112
1, 35504, Control_c, 0, 64, 114
1, 35519, Control_c, 0, 64, 117
1, 35534, Control_c, 0, 64, 121
1, 35549, Control_c, 0, 64, 125
1, 35563, Control_c, 0, 64, 127
1, 35658, Note_on_c, 0, 72, 37
1, 35671, Note_on_c, 0, 56, 31
1, 35673, Note_on_c, 0, 65, 25
1, 35720, Note_off_c, 0, 65, 50
1, 35755, Note_off_c, 0, 63, 30
1, 35807, Note_off_c, 0, 66, 40
1, 35841, Note_off_c, 0, 56, 37
1, 36160, Note_on_c, 0, 63, 23
1, 36170, Note_on_c, 0, 75, 23
1, 36221, Note_off_c, 0, 70, 21
1, 36221, Note_off_c, 0, 72, 18
1, 36277, Note_off_c, 0, 75, 35
1, 36333, Note_off_c, 0, 63, 41
1, 36727, Control_c, 0, 64, 112
1, 36748, Control_c, 0, 64, 96
1, 36762, Note_on_c, 0, 37, 22
1, 36763, Control_c, 0, 64, 81
1, 36778, Control_c, 0, 64, 67
1, 36782, Note_on_c, 0, 68, 42
1, 36789, Note_on_c, 0, 66, 32
1, 36793, Control_c, 0, 64, 26
1, 36808, Control_c, 0, 64, 0
1, 36837, Control_c, 0, 64, 44
1, 36852, Control_c, 0, 64, 63
1, 36867, Control_c, 0, 64, 68
1, 36882, Control_c, 0, 64, 74
1, 36897, Control_c, 0, 64, 82
1, 36911, Control_c, 0, 64, 93
1, 36920, Note_off_c, 0, 37, 53
1, 36926, Control_c, 0, 64, 103
1, 36941, Control_c, 0, 64, 114
1, 36956, Control_c, 0, 64, 127
1, 37061, Note_on_c, 0, 65, 39
1, 37251, Note_off_c, 0, 65, 42
1, 37281, Note_off_c, 0, 66, 41
1, 37292, Note_on_c, 0, 56, 33
1, 37299, Note_on_c, 0, 73, 44
1, 37473, Note_on_c, 0, 63, 46
1, 37487, Note_off_c, 0, 68, 42
1, 37530, Note_off_c, 0, 63, 63
1, 37679, Note_on_c, 0, 61, 51
1, 37682, Note_on_c, 0, 65, 45
1, 37684, Note_off_c, 0, 73, 61
1, 37734, Note_off_c, 0, 61, 50
1, 37740, Note_off_c, 0, 65, 61
1, 37834, Note_on_c, 0, 70, 59
1, 37926, Note_off_c, 0, 70, 54
1, 38015, Note_on_c, 0, 73, 52
1, 38028, Note_on_c, 0, 66, 47
1, 38033, Note_on_c, 0, 75, 60
1, 38038, Note_on_c, 0, 63, 46
1, 38046, Control_c, 0, 64, 106
1, 38061, Control_c, 0, 64, 86
1, 38076, Control_c, 0, 64, 70
1, 38090, Control_c, 0, 64, 10
1, 38105, Control_c, 0, 64, 0
1, 38150, Control_c, 0, 64, 60
1, 38152, Note_off_c, 0, 56, 43
1, 38164, Control_c, 0, 64, 67
1, 38179, Control_c, 0, 64, 74
1, 38180, Note_on_c, 0, 72, 66
1, 38194, Control_c, 0, 64, 83
1, 38209, Control_c, 0, 64, 92
1, 38224, Control_c, 0, 64, 101
1, 38246, Control_c, 0, 64, 115
1, 38262, Control_c, 0, 64, 127
1, 38304, Note_off_c, 0, 72, 61
1, 38351, Note_on_c, 0, 78, 74
1, 38372, Note_on_c, 0, 56, 53
1, 38390, Note_off_c, 0, 75, 59
1, 38393, Note_off_c, 0, 73, 64
1, 38433, Note_off_c, 0, 66, 64
1, 38444, Note_off_c, 0, 78, 62
1, 38478, Note_on_c, 0, 70, 70
1, 38487, Note_off_c, 0, 63, 40
1, 38509, Note_off_c, 0, 56, 55
1, 38534, Note_off_c, 0, 70, 57
1, 38638, Note_on_c, 0, 82, 69
1, 38649, Note_on_c, 0, 68, 57
1, 38682, Note_off_c, 0, 68, 0
1, 38682, Note_on_c, 0, 68, 29
1, 38768, Note_on_c, 0, 78, 73
1, 38801, Note_off_c, 0, 68, 49
1, 38834, Note_off_c, 0, 82, 58
1, 38943, Control_c, 0, 64, 109
1, 38958, Control_c, 0, 64, 89
1, 38968, Note_on_c, 0, 37, 40
1, 38973, Control_c, 0, 64, 72
1, 38995, Control_c, 0, 64, 47
1, 39010, Control_c, 0, 64, 0
1, 39016, Note_on_c, 0, 80, 74
1, 39040, Control_c, 0, 64, 62
1, 39055, Control_c, 0, 64, 70
1, 39070, Control_c, 0, 64, 81
1, 39072, Note_off_c, 0, 37, 63
1, 39085, Control_c, 0, 64, 95
1, 39099, Control_c, 0, 64, 108
1, 39114, Control_c, 0, 64, 127
1, 39195, Note_on_c, 0, 77, 61
1, 39329, Note_on_c, 0, 56, 46
1, 39351, Note_on_c, 0, 85, 60
1, 39356, Note_off_c, 0, 77, 54
1, 39478, Note_off_c, 0, 85, 63
1, 39479, Note_on_c, 0, 75, 59
1, 39520, Note_off_c, 0, 78, 23
1, 39589, Note_off_c, 0, 80, 24
1, 39596, Note_off_c, 0, 75, 62
1, 39621, Note_on_c, 0, 82, 58
1, 39627, Note_on_c, 0, 77, 57
1, 39642, Note_on_c, 0, 65, 47
1, 39674, Note_on_c, 0, 61, 44
1, 39695, Note_off_c, 0, 65, 63
1, 39766, Note_on_c, 0, 73, 52
1, 39776, Note_off_c, 0, 77, 52
1, 39785, Note_off_c, 0, 61, 53
1, 39919, Note_off_c, 0, 82, 40
1, 39931, Note_on_c, 0, 78, 62
1, 39931, Note_off_c, 0, 73, 55
1, 39934, Note_on_c, 0, 66, 42
1, 39951, Note_on_c, 0, 63, 42
1, 39952, Control_c, 0, 64, 111
1, 39966, Control_c, 0, 64, 92
1, 39981, Control_c, 0, 64, 76
1, 39996, Control_c, 0, 64, 58
1, 40011, Control_c, 0, 64, 0
1, 40025, Note_off_c, 0, 56, 37
1, 40055, Control_c, 0, 64, 40
1, 40070, Control_c, 0, 64, 64
1, 40085, Control_c, 0, 64, 70
1, 40090, Note_on_c, 0, 74, 47
1, 40100, Control_c, 0, 64, 76
1, 40114, Control_c, 0, 64, 84
1, 40129, Control_c, 0, 64, 90
1, 40144, Control_c, 0, 64, 96
1, 40158, Control_c, 0, 64, 103
1, 40173, Control_c, 0, 64, 107
1, 40188, Control_c, 0, 64, 110
1, 40203, Control_c, 0, 64, 112
1, 40218, Control_c, 0, 64, 112
1, 40232, Control_c, 0, 64, 113
1, 40242, Note_off_c, 0, 74, 62
1, 40245, Note_on_c, 0, 84, 48
1, 40262, Control_c, 0, 64, 113
1, 40277, Control_c, 0, 64, 114
1, 40281, Note_on_c, 0, 75, 38
1, 40281, Note_off_c, 0, 84, 49
1, 40283, Note_on_c, 0, 56, 36
1, 40292, Control_c, 0, 64, 115
1, 40307, Control_c, 0, 64, 116
1, 40322, Control_c, 0, 64, 118
1, 40328, Note_off_c, 0, 75, 64
1, 40337, Control_c, 0, 64, 122
1, 40351, Control_c, 0, 64, 127
1, 40354, Note_off_c, 0, 78, 35
1, 40428, Note_off_c, 0, 66, 55
1, 40435, Note_on_c, 0, 68, 48
1, 40491, Note_off_c, 0, 63, 39
1, 40512, Note_off_c, 0, 56, 35
1, 40676, Note_on_c, 0, 76, 46
1, 40697, Note_on_c, 0, 80, 48
1, 40705, Note_off_c, 0, 68, 42
1, 40922, Note_on_c, 0, 68, 34
1, 40945, Note_off_c, 0, 80, 29
1, 40968, Note_off_c, 0, 76, 31
1, 41286, Control_c, 0, 64, 111
1, 41288, Note_on_c, 0, 37, 33
1, 41301, Control_c, 0, 64, 95
1, 41315, Control_c, 0, 64, 77
1, 41329, Note_on_c, 0, 77, 41
1, 41330, Control_c, 0, 64, 64
1, 41342, Note_on_c, 0, 80, 43
1, 41345, Control_c, 0, 64, 0
1, 41356, Note_off_c, 0, 68, 42
1, 41375, Control_c, 0, 64, 44
1, 41389, Control_c, 0, 64, 64
1, 41404, Control_c, 0, 64, 71
1, 41419, Control_c, 0, 64, 79
1, 41423, Note_off_c, 0, 37, 58
1, 41434, Control_c, 0, 64, 89
1, 41449, Control_c, 0, 64, 99
1, 41465, Control_c, 0, 64, 109
1, 41479, Control_c, 0, 64, 120
1, 41494, Control_c, 0, 64, 127
1, 41524, Note_on_c, 0, 68, 32
1, 41538, Note_off_c, 0, 80, 37
1, 41652, Note_off_c, 0, 77, 54
1, 41654, Note_off_c, 0, 68, 40
1, 41819, Note_on_c, 0, 56, 24
1, 42247, Note_on_c, 0, 65, 31
1, 42273, Note_on_c, 0, 61, 11
1, 42329, Note_off_c, 0, 65, 56
1, 42379, Note_off_c, 0, 61, 43
1, 42717, Note_on_c, 0, 66, 30
1, 42748, Note_on_c, 0, 60, 27
1, 42784, Control_c, 0, 64, 109
1, 42796, Note_on_c, 0, 80, 45
1, 42799, Control_c, 0, 64, 91
1, 42814, Control_c, 0, 64, 76
1, 42819, Note_on_c, 0, 75, 40
1, 42828, Control_c, 0, 64, 63
1, 42835, Note_off_c, 0, 56, 40
1, 42843, Control_c, 0, 64, 27
1, 42858, Control_c, 0, 64, 44
1, 42873, Control_c, 0, 64, 61
1, 42887, Control_c, 0, 64, 68
1, 42902, Control_c, 0, 64, 73
1, 42917, Control_c, 0, 64, 79
1, 42932, Control_c, 0, 64, 86
1, 42947, Control_c, 0, 64, 93
1, 42950, Note_off_c, 0, 80, 42
1, 42961, Control_c, 0, 64, 101
1, 42962, Note_on_c, 0, 68, 41
1, 42976, Control_c, 0, 64, 109
1, 42991, Control_c, 0, 64, 115
1, 42996, Note_off_c, 0, 75, 33
1, 43006, Control_c, 0, 64, 121
1, 43021, Control_c, 0, 64, 127
1, 43213, Note_off_c, 0, 68, 56
1, 43227, Note_on_c, 0, 80, 52
1, 43237, Note_on_c, 0, 56, 34
1, 43350, Note_off_c, 0, 80, 55
1, 43380, Note_on_c, 0, 68, 34
1, 43391, Note_off_c, 0, 66, 52
1, 43436, Note_off_c, 0, 56, 40
1, 43455, Note_off_c, 0, 60, 48
1, 43632, Note_on_c, 0, 80, 49
1, 43642, Note_on_c, 0, 77, 47
1, 43650, Note_off_c, 0, 68, 42
1, 43755, Note_off_c, 0, 77, 49
1, 43771, Note_off_c, 0, 80, 55
1, 43773, Note_on_c, 0, 68, 45
1, 44037, Control_c, 0, 64, 106
1, 44045, Note_off_c, 0, 68, 41
1, 44052, Note_on_c, 0, 80, 51
1, 44052, Control_c, 0, 64, 88
1, 44055, Note_on_c, 0, 75, 44
1, 44060, Note_on_c, 0, 37, 33
1, 44067, Control_c, 0, 64, 72
1, 44081, Control_c, 0, 64, 0
1, 44111, Control_c, 0, 64, 32
1, 44125, Control_c, 0, 64, 66
1, 44140, Control_c, 0, 64, 77
1, 44155, Control_c, 0, 64, 93
1, 44158, Note_off_c, 0, 37, 57
1, 44170, Control_c, 0, 64, 114
1, 44185, Control_c, 0, 64, 127
1, 44194, Note_on_c, 0, 68, 43
1, 44230, Note_off_c, 0, 80, 38
1, 44286, Note_off_c, 0, 75, 32
1, 44444, Note_on_c, 0, 80, 63
1, 44450, Note_on_c, 0, 77, 56
1, 44474, Note_on_c, 0, 56, 26
1, 44480, Note_off_c, 0, 68, 38
1, 44573, Note_on_c, 0, 68, 39
1, 44578, Note_off_c, 0, 77, 56
1, 44589, Note_off_c, 0, 80, 57
1, 44802, Note_on_c, 0, 80, 63
1, 44806, Note_on_c, 0, 65, 43
1, 44814, Note_off_c, 0, 68, 38
1, 44821, Note_on_c, 0, 73, 53
1, 44823, Note_on_c, 0, 61, 41
1, 44867, Note_off_c, 0, 65, 61
1, 44912, Note_off_c, 0, 80, 60
1, 44924, Note_off_c, 0, 73, 62
1, 44935, Note_on_c, 0, 68, 51
1, 45145, Note_off_c, 0, 68, 54
1, 45151, Note_on_c, 0, 66, 44
1, 45154, Note_on_c, 0, 63, 42
1, 45163, Control_c, 0, 64, 121
1, 45170, Note_on_c, 0, 80, 57
1, 45173, Note_on_c, 0, 70, 54
1, 45178, Control_c, 0, 64, 101
1, 45193, Control_c, 0, 64, 87
1, 45200, Note_off_c, 0, 61, 36
1, 45208, Control_c, 0, 64, 73
1, 45222, Control_c, 0, 64, 56
1, 45237, Control_c, 0, 64, 0
1, 45279, Note_off_c, 0, 56, 42
1, 45282, Control_c, 0, 64, 46
1, 45290, Note_off_c, 0, 70, 63
1, 45292, Note_off_c, 0, 80, 57
1, 45297, Control_c, 0, 64, 62
1, 45302, Note_on_c, 0, 68, 48
1, 45312, Control_c, 0, 64, 66
1, 45327, Control_c, 0, 64, 72
1, 45341, Control_c, 0, 64, 78
1, 45356, Control_c, 0, 64, 86
1, 45371, Control_c, 0, 64, 92
1, 45386, Control_c, 0, 64, 98
1, 45401, Control_c, 0, 64, 103
1, 45416, Control_c, 0, 64, 108
1, 45430, Control_c, 0, 64, 112
1, 45446, Control_c, 0, 64, 115
1, 45461, Control_c, 0, 64, 120
1, 45476, Control_c, 0, 64, 125
1, 45490, Control_c, 0, 64, 127
1, 45509, Note_off_c, 0, 68, 55
1, 45514, Note_on_c, 0, 80, 59
1, 45523, Note_on_c, 0, 56, 43
1, 45531, Note_on_c, 0, 72, 55
1, 45612, Note_off_c, 0, 72, 63
1, 45643, Note_off_c, 0, 80, 58
1, 45654, Note_on_c, 0, 68, 51
1, 45713, Note_off_c, 0, 66, 61
1, 45788, Note_off_c, 0, 63, 42
1, 45797, Note_off_c, 0, 56, 40
1, 45873, Note_on_c, 0, 80, 53
1, 45889, Note_off_c, 0, 68, 56
1, 45904, Note_on_c, 0, 75, 46
1, 45994, Note_off_c, 0, 80, 59
1, 46022, Note_off_c, 0, 75, 58
1, 46048, Note_on_c, 0, 68, 37
1, 46283, Control_c, 0, 64, 125
1, 46298, Control_c, 0, 64, 104
1, 46302, Note_on_c, 0, 37, 30
1, 46307, Note_on_c, 0, 80, 51
1, 46313, Control_c, 0, 64, 88
1, 46328, Control_c, 0, 64, 71
1, 46343, Note_off_c, 0, 68, 42
1, 46343, Control_c, 0, 64, 0
1, 46402, Control_c, 0, 64, 64
1, 46417, Control_c, 0, 64, 75
1, 46429, Note_off_c, 0, 80, 59
1, 46432, Control_c, 0, 64, 89
1, 46438, Note_off_c, 0, 37, 58
1, 46447, Control_c, 0, 64, 105
1, 46462, Control_c, 0, 64, 117
1, 46477, Note_on_c, 0, 68, 42
1, 46483, Control_c, 0, 64, 127
1, 46686, Note_on_c, 0, 80, 57
1, 46695, Note_on_c, 0, 56, 39
1, 46704, Note_on_c, 0, 72, 49
1, 46719, Note_off_c, 0, 68, 41
1, 46811, Note_off_c, 0, 72, 62
1, 46811, Note_off_c, 0, 80, 60
1, 46835, Note_on_c, 0, 68, 57
1, 47018, Note_on_c, 0, 80, 61
1, 47024, Note_on_c, 0, 65, 50
1, 47031, Note_on_c, 0, 61, 48
1, 47031, Note_on_c, 0, 73, 62
1, 47038, Note_off_c, 0, 68, 56
1, 47088, Note_off_c, 0, 65, 63
1, 47157, Note_off_c, 0, 80, 57
1, 47158, Note_off_c, 0, 61, 60
1, 47166, Note_on_c, 0, 68, 58
1, 47177, Note_off_c, 0, 73, 57
1, 47350, Note_on_c, 0, 66, 48
1, 47359, Note_on_c, 0, 60, 49
1, 47363, Note_on_c, 0, 80, 74
1, 47365, Control_c, 0, 64, 113
1, 47371, Note_on_c, 0, 74, 67
1, 47377, Note_off_c, 0, 68, 58
1, 47380, Control_c, 0, 64, 97
1, 47395, Control_c, 0, 64, 82
1, 47410, Control_c, 0, 64, 68
1, 47425, Control_c, 0, 64, 21
1, 47440, Control_c, 0, 64, 0
1, 47455, Control_c, 0, 64, 29
1, 47469, Control_c, 0, 64, 62
1, 47484, Control_c, 0, 64, 69
1, 47485, Note_off_c, 0, 56, 47
1, 47492, Note_on_c, 0, 68, 70
1, 47499, Control_c, 0, 64, 78
1, 47507, Note_off_c, 0, 74, 59
1, 47514, Control_c, 0, 64, 90
1, 47518, Note_off_c, 0, 80, 55
1, 47529, Control_c, 0, 64, 100
1, 47543, Control_c, 0, 64, 109
1, 47558, Control_c, 0, 64, 118
1, 47573, Control_c, 0, 64, 127
1, 47684, Note_on_c, 0, 80, 72
1, 47697, Note_on_c, 0, 75, 71
1, 47698, Note_on_c, 0, 56, 45
1, 47723, Note_off_c, 0, 68, 56
1, 47821, Note_on_c, 0, 68, 74
1, 47844, Note_off_c, 0, 66, 65
1, 47849, Note_off_c, 0, 75, 61
1, 47849, Note_off_c, 0, 80, 55
1, 47918, Note_off_c, 0, 56, 60
1, 47920, Note_off_c, 0, 60, 62
1, 48009, Note_off_c, 0, 68, 60
1, 48015, Note_on_c, 0, 76, 69
1, 48024, Note_on_c, 0, 80, 69
1, 48146, Note_on_c, 0, 68, 66
1, 48154, Note_off_c, 0, 80, 55
1, 48186, Note_off_c, 0, 76, 50
1, 48307, Control_c, 0, 64, 107
1, 48317, Note_on_c, 0, 37, 41
1, 48322, Control_c, 0, 64, 86
1, 48337, Control_c, 0, 64, 70
1, 48352, Control_c, 0, 64, 57
1, 48357, Note_on_c, 0, 80, 75
1, 48362, Note_on_c, 0, 77, 71
1, 48367, Control_c, 0, 64, 62
1, 48382, Control_c, 0, 64, 70
1, 48397, Control_c, 0, 64, 89
1, 48410, Note_off_c, 0, 68, 58
1, 48412, Control_c, 0, 64, 127
1, 48430, Note_off_c, 0, 37, 63
1, 48500, Note_off_c, 0, 80, 61
1, 48507, Note_on_c, 0, 68, 59
1, 48516, Note_off_c, 0, 77, 60
1, 48550, Note_off_c, 0, 68, 57
1, 48693, Note_on_c, 0, 82, 65
1, 48698, Note_on_c, 0, 77, 66
1, 48704, Note_on_c, 0, 56, 43
1, 48775, Note_off_c, 0, 82, 62
1, 48801, Note_off_c, 0, 77, 58
1, 48827, Note_on_c, 0, 68, 60
1, 49023, Note_on_c, 0, 79, 52
1, 49024, Note_off_c, 0, 68, 27
1, 49026, Note_on_c, 0, 61, 49
1, 49026, Note_on_c, 0, 65, 47
1, 49029, Note_on_c, 0, 77, 61
1, 49091, Note_off_c, 0, 79, 57
1, 49092, Note_off_c, 0, 65, 63
1, 49144, Note_off_c, 0, 77, 58
1, 49153, Note_off_c, 0, 61, 60
1, 49166, Note_on_c, 0, 68, 56
1, 49417, Note_on_c, 0, 66, 39
1, 49424, Note_on_c, 0, 60, 39
1, 49430, Note_on_c, 0, 80, 58
1, 49442, Control_c, 0, 64, 113
1, 49443, Note_on_c, 0, 78, 57
1, 49450, Note_off_c, 0, 68, 42
1, 49457, Control_c, 0, 64, 96
1, 49479, Control_c, 0, 64, 81
1, 49494, Control_c, 0, 64, 69
1, 49509, Control_c, 0, 64, 56
1, 49524, Control_c, 0, 64, 0
1, 49539, Control_c, 0, 64, 32
1, 49546, Note_off_c, 0, 56, 49
1, 49553, Control_c, 0, 64, 60
1, 49568, Control_c, 0, 64, 66
1, 49577, Note_on_c, 0, 68, 45
1, 49583, Control_c, 0, 64, 70
1, 49598, Control_c, 0, 64, 75
1, 49607, Note_off_c, 0, 78, 52
1, 49613, Control_c, 0, 64, 81
1, 49627, Control_c, 0, 64, 89
1, 49642, Control_c, 0, 64, 98
1, 49647, Note_off_c, 0, 80, 37
1, 49657, Control_c, 0, 64, 107
1, 49671, Control_c, 0, 64, 119
1, 49686, Control_c, 0, 64, 127
1, 49848, Note_on_c, 0, 82, 54
1, 49853, Note_on_c, 0, 78, 50
1, 49854, Note_off_c, 0, 68, 41
1, 49865, Note_on_c, 0, 56, 40
1, 49941, Note_off_c, 0, 82, 56
1, 49957, Note_off_c, 0, 66, 42
1, 49972, Note_off_c, 0, 56, 51
1, 49992, Note_off_c, 0, 60, 52
1, 50002, Note_off_c, 0, 78, 55
1, 50025, Note_on_c, 0, 68, 41
1, 50264, Note_on_c, 0, 78, 39
1, 50285, Note_off_c, 0, 68, 42
1, 50303, Note_on_c, 0, 79, 53
1, 50443, Note_off_c, 0, 78, 24
1, 50489, Note_off_c, 0, 79, 36
1, 50509, Note_on_c, 0, 68, 40
1, 50537, Note_off_c, 0, 68, 59
1, 50915, Note_on_c, 0, 37, 31
1, 50954, Control_c, 0, 64, 100
1, 50975, Control_c, 0, 64, 81
1, 50990, Control_c, 0, 64, 67
1, 51005, Control_c, 0, 64, 41
1, 51006, Note_on_c, 0, 80, 45
1, 51020, Control_c, 0, 64, 0
1, 51029, Note_on_c, 0, 77, 16
1, 51035, Control_c, 0, 64, 47
1, 51051, Control_c, 0, 64, 64
1, 51065, Control_c, 0, 64, 72
1, 51080, Note_off_c, 0, 37, 59
1, 51080, Control_c, 0, 64, 82
1, 51095, Control_c, 0, 64, 91
1, 51109, Control_c, 0, 64, 100
1, 51124, Control_c, 0, 64, 110
1, 51139, Control_c, 0, 64, 127
1, 51140, Note_off_c, 0, 80, 62
1, 51175, Note_on_c, 0, 82, 50
1, 51219, Note_off_c, 0, 82, 62
1, 51262, Note_on_c, 0, 80, 49
1, 51284, Note_off_c, 0, 80, 60
1, 51307, Note_on_c, 0, 82, 58
1, 51339, Note_off_c, 0, 82, 63
1, 51357, Note_on_c, 0, 80, 61
1, 51385, Note_off_c, 0, 80, 60
1, 51402, Note_on_c, 0, 82, 67
1, 51435, Note_on_c, 0, 56, 30
1, 51449, Note_off_c, 0, 82, 63
1, 51461, Note_on_c, 0, 80, 69
1, 51497, Note_off_c, 0, 80, 58
1, 51505, Note_on_c, 0, 82, 63
1, 51562, Note_off_c, 0, 82, 63
1, 51582, Note_on_c, 0, 80, 66
1, 51605, Note_off_c, 0, 80, 60
1, 51612, Note_on_c, 0, 82, 60
1, 51655, Note_off_c, 0, 82, 62
1, 51667, Note_on_c, 0, 80, 49
1, 51696, Note_on_c, 0, 82, 56
1, 51701, Note_off_c, 0, 80, 55
1, 51754, Note_off_c, 0, 77, 35
1, 51785, Note_off_c, 0, 82, 53
1, 51789, Note_on_c, 0, 80, 59
1, 51903, Control_c, 0, 64, 123
1, 51918, Control_c, 0, 64, 99
1, 51933, Control_c, 0, 64, 81
1, 51939, Note_on_c, 0, 65, 36
1, 51947, Control_c, 0, 64, 69
1, 51959, Note_off_c, 0, 80, 57
1, 51962, Control_c, 0, 64, 57
1, 51969, Note_on_c, 0, 61, 17
1, 51977, Control_c, 0, 64, 48
1, 51986, Note_on_c, 0, 79, 55
1, 51992, Control_c, 0, 64, 58
1, 52007, Control_c, 0, 64, 66
1, 52022, Control_c, 0, 64, 71
1, 52037, Control_c, 0, 64, 77
1, 52044, Note_off_c, 0, 65, 60
1, 52051, Control_c, 0, 64, 82
1, 52066, Control_c, 0, 64, 88
1, 52081, Control_c, 0, 64, 95
1, 52096, Control_c, 0, 64, 103
1, 52111, Control_c, 0, 64, 110
1, 52126, Control_c, 0, 64, 118
1, 52140, Control_c, 0, 64, 123
1, 52141, Note_on_c, 0, 80, 54
1, 52155, Control_c, 0, 64, 127
1, 52189, Note_off_c, 0, 79, 37
1, 52236, Note_on_c, 0, 85, 37
1, 52259, Note_on_c, 0, 82, 61
1, 52259, Note_off_c, 0, 80, 58
1, 52269, Note_off_c, 0, 85, 52
1, 52318, Control_c, 0, 64, 118
1, 52323, Note_on_c, 0, 63, 37
1, 52328, Note_on_c, 0, 66, 42
1, 52332, Note_off_c, 0, 82, 61
1, 52332, Control_c, 0, 64, 99
1, 52341, Note_on_c, 0, 77, 59
1, 52347, Control_c, 0, 64, 82
1, 52362, Control_c, 0, 64, 66
1, 52377, Control_c, 0, 64, 0
1, 52391, Note_off_c, 0, 56, 41
1, 52409, Note_off_c, 0, 77, 59
1, 52415, Note_on_c, 0, 78, 65
1, 52416, Note_off_c, 0, 61, 32
1, 52421, Control_c, 0, 64, 45
1, 52436, Control_c, 0, 64, 62
1, 52451, Control_c, 0, 64, 65
1, 52473, Control_c, 0, 64, 67
1, 52488, Control_c, 0, 64, 71
1, 52503, Control_c, 0, 64, 79
1, 52508, Note_on_c, 0, 84, 56
1, 52518, Control_c, 0, 64, 88
1, 52533, Control_c, 0, 64, 97
1, 52536, Note_off_c, 0, 78, 59
1, 52546, Note_off_c, 0, 84, 62
1, 52547, Control_c, 0, 64, 105
1, 52555, Note_on_c, 0, 80, 62
1, 52562, Control_c, 0, 64, 110
1, 52577, Control_c, 0, 64, 112
1, 52592, Control_c, 0, 64, 115
1, 52607, Control_c, 0, 64, 121
1, 52618, Note_off_c, 0, 80, 61
1, 52621, Control_c, 0, 64, 127
1, 52630, Note_on_c, 0, 56, 43
1, 52642, Note_on_c, 0, 76, 53
1, 52682, Note_off_c, 0, 76, 63
1, 52701, Note_on_c, 0, 77, 59
1, 52767, Note_off_c, 0, 66, 60
1, 52775, Note_off_c, 0, 77, 55
1, 52779, Note_on_c, 0, 82, 52
1, 52829, Note_off_c, 0, 82, 55
1, 52829, Note_on_c, 0, 78, 53
1, 52838, Note_off_c, 0, 63, 41
1, 52875, Note_off_c, 0, 56, 41
1, 52895, Note_off_c, 0, 78, 57
1, 52905, Note_on_c, 0, 74, 50
1, 52967, Note_off_c, 0, 74, 62
1, 52987, Note_on_c, 0, 75, 52
1, 53075, Note_on_c, 0, 80, 56
1, 53095, Note_off_c, 0, 75, 56
1, 53137, Note_on_c, 0, 77, 47
1, 53142, Note_off_c, 0, 80, 51
1, 53219, Note_off_c, 0, 77, 53
1, 53238, Control_c, 0, 64, 122
1, 53252, Control_c, 0, 64, 101
1, 53264, Note_on_c, 0, 37, 37
1, 53267, Control_c, 0, 64, 82
1, 53270, Note_on_c, 0, 72, 50
1, 53282, Control_c, 0, 64, 67
1, 53296, Control_c, 0, 64, 0
1, 53341, Control_c, 0, 64, 55
1, 53356, Control_c, 0, 64, 66
1, 53370, Control_c, 0, 64, 74
1, 53371, Note_off_c, 0, 72, 48
1, 53378, Note_off_c, 0, 37, 58
1, 53385, Control_c, 0, 64, 84
1, 53388, Note_on_c, 0, 73, 47
1, 53400, Control_c, 0, 64, 92
1, 53414, Control_c, 0, 64, 99
1, 53429, Control_c, 0, 64, 105
1, 53446, Control_c, 0, 64, 110
1, 53461, Control_c, 0, 64, 114
1, 53467, Note_on_c, 0, 78, 38
1, 53476, Control_c, 0, 64, 119
1, 53491, Control_c, 0, 64, 123
1, 53499, Note_off_c, 0, 78, 52
1, 53500, Note_off_c, 0, 73, 57
1, 53506, Control_c, 0, 64, 127
1, 53511, Note_on_c, 0, 75, 50
1, 53557, Note_off_c, 0, 75, 60
1, 53586, Note_on_c, 0, 71, 56
1, 53615, Note_on_c, 0, 56, 35
1, 53637, Note_off_c, 0, 71, 54
1, 53655, Note_on_c, 0, 72, 56
1, 53730, Note_on_c, 0, 77, 51
1, 53745, Note_off_c, 0, 72, 57
1, 53783, Note_off_c, 0, 77, 50
1, 53787, Note_on_c, 0, 73, 52
1, 53837, Note_off_c, 0, 73, 58
1, 53856, Note_on_c, 0, 69, 52
1, 53870, Note_on_c, 0, 65, 37
1, 53893, Note_on_c, 0, 61, 34
1, 53901, Note_off_c, 0, 65, 55
1, 53909, Note_off_c, 0, 69, 61
1, 53932, Note_on_c, 0, 70, 58
1, 53941, Note_off_c, 0, 61, 59
1, 54028, Note_on_c, 0, 75, 43
1, 54055, Note_off_c, 0, 70, 58
1, 54062, Note_off_c, 0, 75, 54
1, 54075, Note_on_c, 0, 72, 51
1, 54117, Note_off_c, 0, 72, 63
1, 54149, Note_on_c, 0, 67, 51
1, 54165, Control_c, 0, 64, 107
1, 54169, Note_on_c, 0, 66, 42
1, 54175, Note_on_c, 0, 60, 36
1, 54180, Control_c, 0, 64, 88
1, 54194, Control_c, 0, 64, 71
1, 54208, Control_c, 0, 64, 31
1, 54220, Note_off_c, 0, 67, 58
1, 54221, Note_off_c, 0, 56, 39
1, 54223, Control_c, 0, 64, 0
1, 54231, Note_on_c, 0, 68, 60
1, 54269, Control_c, 0, 64, 46
1, 54283, Control_c, 0, 64, 59
1, 54298, Control_c, 0, 64, 63
1, 54300, Note_on_c, 0, 72, 51
1, 54313, Control_c, 0, 64, 65
1, 54316, Note_off_c, 0, 68, 56
1, 54328, Control_c, 0, 64, 70
1, 54341, Note_off_c, 0, 72, 64
1, 54342, Control_c, 0, 64, 77
1, 54346, Note_on_c, 0, 70, 57
1, 54357, Control_c, 0, 64, 85
1, 54372, Control_c, 0, 64, 92
1, 54387, Control_c, 0, 64, 97
1, 54402, Control_c, 0, 64, 101
1, 54410, Note_off_c, 0, 70, 60
1, 54416, Control_c, 0, 64, 104
1, 54426, Note_on_c, 0, 67, 55
1, 54431, Control_c, 0, 64, 107
1, 54435, Note_on_c, 0, 56, 35
1, 54446, Control_c, 0, 64, 110
1, 54460, Control_c, 0, 64, 114
1, 54475, Control_c, 0, 64, 118
1, 54484, Note_off_c, 0, 67, 61
1, 54490, Control_c, 0, 64, 123
1, 54496, Note_on_c, 0, 68, 59
1, 54505, Control_c, 0, 64, 126
1, 54520, Control_c, 0, 64, 127
1, 54528, Note_off_c, 0, 66, 65
1, 54549, Note_off_c, 0, 68, 62
1, 54561, Note_on_c, 0, 70, 58
1, 54564, Control_c, 0, 64, 127
1, 54582, Note_off_c, 0, 70, 60
1, 54593, Note_off_c, 0, 60, 57
1, 54627, Note_off_c, 0, 56, 37
1, 54630, Note_on_c, 0, 72, 69
1, 54694, Note_off_c, 0, 72, 60
1, 54722, Note_on_c, 0, 73, 65
1, 54775, Note_off_c, 0, 73, 60
1, 54788, Note_on_c, 0, 75, 59
1, 54853, Note_off_c, 0, 75, 63
1, 54880, Note_on_c, 0, 77, 61
1, 54952, Note_off_c, 0, 77, 60
1, 54966, Note_on_c, 0, 78, 57
1, 55047, Note_on_c, 0, 37, 30
1, 55047, Control_c, 0, 64, 110
1, 55062, Control_c, 0, 64, 94
1, 55077, Control_c, 0, 64, 77
1, 55086, Note_off_c, 0, 78, 58
1, 55091, Control_c, 0, 64, 46
1, 55106, Control_c, 0, 64, 0
1, 55120, Note_on_c, 0, 79, 56
1, 55151, Control_c, 0, 64, 56
1, 55162, Note_off_c, 0, 37, 60
1, 55165, Control_c, 0, 64, 66
1, 55180, Control_c, 0, 64, 74
1, 55194, Note_off_c, 0, 79, 61
1, 55195, Control_c, 0, 64, 83
1, 55210, Control_c, 0, 64, 91
1, 55215, Note_on_c, 0, 80, 59
1, 55225, Control_c, 0, 64, 97
1, 55239, Control_c, 0, 64, 104
1, 55253, Note_off_c, 0, 80, 60
1, 55254, Control_c, 0, 64, 109
1, 55269, Control_c, 0, 64, 112
1, 55283, Control_c, 0, 64, 115
1, 55289, Note_on_c, 0, 81, 73
1, 55298, Control_c, 0, 64, 118
1, 55313, Control_c, 0, 64, 122
1, 55328, Control_c, 0, 64, 127
1, 55353, Note_off_c, 0, 81, 60
1, 55359, Note_on_c, 0, 83, 65
1, 55387, Note_on_c, 0, 56, 52
1, 55389, Note_off_c, 0, 83, 61
1, 55407, Note_on_c, 0, 82, 58
1, 55445, Note_off_c, 0, 82, 63
1, 55469, Note_on_c, 0, 84, 60
1, 55485, Note_off_c, 0, 56, 0
1, 55485, Note_on_c, 0, 56, 3
1, 55500, Note_off_c, 0, 84, 67
1, 55542, Note_on_c, 0, 83, 69
1, 55571, Note_off_c, 0, 83, 60
1, 55593, Note_on_c, 0, 85, 61
1, 55642, Note_off_c, 0, 85, 62
1, 55665, Note_on_c, 0, 65, 38
1, 55665, Note_on_c, 0, 84, 72
1, 55673, Note_on_c, 0, 61, 44
1, 55691, Note_off_c, 0, 65, 57
1, 55720, Note_off_c, 0, 84, 61
1, 55721, Note_off_c, 0, 61, 58
1, 55744, Note_on_c, 0, 86, 47
1, 55769, Note_off_c, 0, 86, 52
1, 55791, Note_on_c, 0, 85, 61
1, 55843, Note_off_c, 0, 85, 62
1, 55863, Note_on_c, 0, 87, 65
1, 55914, Control_c, 0, 64, 122
1, 55917, Note_off_c, 0, 87, 62
1, 55929, Control_c, 0, 64, 101
1, 55936, Note_on_c, 0, 66, 41
1, 55936, Note_on_c, 0, 86, 67
1, 55939, Note_on_c, 0, 60, 39
1, 55944, Control_c, 0, 64, 81
1, 55959, Control_c, 0, 64, 67
1, 55974, Control_c, 0, 64, 54
1, 55988, Control_c, 0, 64, 59
1, 55989, Note_off_c, 0, 56, 42
1, 55995, Note_off_c, 0, 86, 57
1, 56003, Control_c, 0, 64, 65
1, 56004, Note_off_c, 0, 66, 0
1, 56004, Note_on_c, 0, 66, 6
1, 56004, Note_on_c, 0, 88, 63
1, 56018, Control_c, 0, 64, 72
1, 56033, Control_c, 0, 64, 82
1, 56048, Control_c, 0, 64, 94
1, 56051, Note_off_c, 0, 88, 62
1, 56062, Control_c, 0, 64, 105
1, 56065, Note_on_c, 0, 87, 63
1, 56077, Control_c, 0, 64, 114
1, 56092, Control_c, 0, 64, 121
1, 56106, Control_c, 0, 64, 127
1, 56110, Note_off_c, 0, 87, 56
1, 56135, Note_on_c, 0, 89, 65
1, 56171, Note_off_c, 0, 89, 63
1, 56222, Note_on_c, 0, 88, 67
1, 56222, Note_on_c, 0, 56, 43
1, 56258, Note_off_c, 0, 88, 59
1, 56287, Note_on_c, 0, 90, 64
1, 56338, Note_off_c, 0, 90, 55
1, 56365, Note_on_c, 0, 89, 66
1, 56434, Note_off_c, 0, 66, 55
1, 56434, Note_off_c, 0, 89, 60
1, 56438, Note_on_c, 0, 91, 60
1, 56471, Note_off_c, 0, 91, 60
1, 56505, Note_off_c, 0, 60, 60
1, 56521, Note_on_c, 0, 90, 61
1, 56538, Note_off_c, 0, 56, 41
1, 56579, Note_off_c, 0, 90, 56
1, 56600, Note_on_c, 0, 92, 65
1, 56633, Control_c, 0, 67, 12
1, 56648, Control_c, 0, 67, 23
1, 56660, Note_off_c, 0, 92, 63
1, 56663, Control_c, 0, 67, 39
1, 56678, Note_on_c, 0, 91, 62
1, 56678, Control_c, 0, 67, 60
1, 56693, Control_c, 0, 67, 78
1, 56708, Control_c, 0, 67, 95
1, 56722, Control_c, 0, 67, 110
1, 56737, Control_c, 0, 67, 122
1, 56752, Control_c, 0, 67, 127
1, 56766, Note_off_c, 0, 91, 60
1, 56770, Note_on_c, 0, 94, 62
1, 56805, Note_off_c, 0, 94, 61
1, 56915, Control_c, 0, 64, 108
1, 56922, Note_on_c, 0, 37, 37
1, 56929, Control_c, 0, 64, 89
1, 56944, Control_c, 0, 64, 73
1, 56963, Note_on_c, 0, 92, 57
1, 56967, Control_c, 0, 64, 60
1, 56982, Control_c, 0, 64, 48
1, 56997, Control_c, 0, 64, 60
1, 57011, Control_c, 0, 64, 67
1, 57026, Control_c, 0, 64, 73
1, 57041, Control_c, 0, 64, 80
1, 57052, Note_off_c, 0, 37, 57
1, 57055, Control_c, 0, 64, 89
1, 57070, Control_c, 0, 64, 97
1, 57085, Control_c, 0, 64, 105
1, 57087, Note_on_c, 0, 101, 59
1, 57091, Note_off_c, 0, 92, 56
1, 57100, Control_c, 0, 64, 115
1, 57115, Control_c, 0, 64, 123
1, 57129, Control_c, 0, 64, 127
1, 57166, Note_on_c, 0, 99, 62
1, 57182, Note_off_c, 0, 101, 55
1, 57214, Note_on_c, 0, 97, 66
1, 57226, Note_off_c, 0, 99, 63
1, 57262, Note_off_c, 0, 97, 58
1, 57283, Note_on_c, 0, 89, 59
1, 57289, Note_on_c, 0, 56, 41
1, 57343, Note_on_c, 0, 97, 60
1, 57345, Note_off_c, 0, 89, 60
1, 57417, Note_on_c, 0, 96, 64
1, 57479, Note_off_c, 0, 97, 59
1, 57491, Note_on_c, 0, 94, 66
1, 57504, Note_off_c, 0, 96, 60
1, 57548, Note_on_c, 0, 65, 49
1, 57550, Note_off_c, 0, 94, 63
1, 57569, Note_on_c, 0, 61, 41
1, 57575, Note_on_c, 0, 85, 55
1, 57586, Note_off_c, 0, 65, 63
1, 57623, Note_off_c, 0, 85, 56
1, 57626, Note_on_c, 0, 94, 49
1, 57634, Note_off_c, 0, 61, 53
1, 57729, Note_on_c, 0, 92, 60
1, 57772, Note_off_c, 0, 94, 56
1, 57788, Note_on_c, 0, 90, 59
1, 57799, Note_off_c, 0, 92, 55
1, 57849, Note_off_c, 0, 90, 60
1, 57849, Control_c, 0, 64, 109
1, 57859, Note_on_c, 0, 63, 34
1, 57864, Control_c, 0, 64, 90
1, 57870, Note_on_c, 0, 66, 37
1, 57871, Note_on_c, 0, 82, 59
1, 57879, Control_c, 0, 64, 74
1, 57894, Control_c, 0, 64, 58
1, 57905, Note_off_c, 0, 56, 40
1, 57909, Control_c, 0, 64, 0
1, 57917, Note_off_c, 0, 82, 56
1, 57935, Note_on_c, 0, 90, 52
1, 57939, Control_c, 0, 64, 51
1, 57952, Control_c, 0, 64, 63
1, 57967, Control_c, 0, 64, 67
1, 57982, Control_c, 0, 64, 70
1, 57997, Control_c, 0, 64, 75
1, 58007, Note_on_c, 0, 89, 60
1, 58011, Control_c, 0, 64, 82
1, 58026, Control_c, 0, 64, 89
1, 58041, Control_c, 0, 64, 95
1, 58056, Control_c, 0, 64, 101
1, 58064, Note_off_c, 0, 90, 56
1, 58071, Control_c, 0, 64, 104
1, 58082, Note_on_c, 0, 87, 63
1, 58085, Control_c, 0, 64, 106
1, 58089, Note_off_c, 0, 89, 61
1, 58100, Control_c, 0, 64, 109
1, 58115, Control_c, 0, 64, 112
1, 58130, Control_c, 0, 64, 117
1, 58136, Note_off_c, 0, 87, 61
1, 58145, Control_c, 0, 64, 123
1, 58159, Control_c, 0, 64, 127
1, 58168, Note_on_c, 0, 78, 56
1, 58177, Note_on_c, 0, 56, 30
1, 58205, Note_off_c, 0, 78, 51
1, 58259, Note_on_c, 0, 87, 37
1, 58288, Note_off_c, 0, 87, 33
1, 58309, Note_on_c, 0, 85, 54
1, 58311, Note_off_c, 0, 66, 51
1, 58358, Note_off_c, 0, 63, 38
1, 58386, Note_off_c, 0, 85, 59
1, 58390, Note_on_c, 0, 84, 56
1, 58397, Note_off_c, 0, 56, 40
1, 58430, Note_off_c, 0, 84, 62
1, 58496, Note_on_c, 0, 75, 39
1, 58551, Note_off_c, 0, 75, 52
1, 58556, Note_on_c, 0, 84, 59
1, 58658, Note_on_c, 0, 82, 53
1, 58732, Note_off_c, 0, 84, 31
1, 58750, Note_on_c, 0, 80, 54
1, 58754, Note_off_c, 0, 82, 60
1, 58772, Note_off_c, 0, 80, 60
1, 58968, Control_c, 0, 64, 108
1, 58982, Control_c, 0, 64, 93
1, 58997, Control_c, 0, 64, 78
1, 59006, Note_on_c, 0, 37, 32
1, 59006, Note_on_c, 0, 80, 50
1, 59012, Control_c, 0, 64, 60
1, 59019, Note_on_c, 0, 77, 40
1, 59028, Control_c, 0, 64, 0
1, 59057, Control_c, 0, 64, 27
1, 59072, Control_c, 0, 64, 61
1, 59087, Control_c, 0, 64, 69
1, 59102, Control_c, 0, 64, 79
1, 59117, Control_c, 0, 64, 90
1, 59131, Control_c, 0, 64, 98
1, 59146, Control_c, 0, 64, 106
1, 59161, Control_c, 0, 64, 112
1, 59165, Note_off_c, 0, 37, 55
1, 59176, Control_c, 0, 64, 118
1, 59191, Control_c, 0, 64, 123
1, 59213, Control_c, 0, 64, 127
1, 59268, Note_off_c, 0, 80, 62
1, 59392, Note_off_c, 0, 77, 36
1, 59689, Note_on_c, 0, 56, 34
1, 59712, Note_on_c, 0, 89, 44
1, 59717, Note_on_c, 0, 85, 41
1, 60201, Note_on_c, 0, 61, 30
1, 60220, Note_on_c, 0, 65, 32
1, 60317, Note_off_c, 0, 65, 55
1, 60383, Note_off_c, 0, 89, 58
1, 60400, Note_off_c, 0, 85, 58
1, 60405, Note_on_c, 0, 78, 43
1, 60411, Note_on_c, 0, 82, 47
1, 60419, Note_off_c, 0, 61, 34
1, 60634, Note_on_c, 0, 66, 38
1, 60645, Control_c, 0, 64, 112
1, 60646, Note_on_c, 0, 63, 31
1, 60660, Control_c, 0, 64, 98
1, 60668, Note_off_c, 0, 82, 55
1, 60674, Note_on_c, 0, 87, 47
1, 60675, Control_c, 0, 64, 85
1, 60680, Note_on_c, 0, 84, 57
1, 60690, Control_c, 0, 64, 73
1, 60707, Note_off_c, 0, 78, 38
1, 60711, Control_c, 0, 64, 58
1, 60726, Control_c, 0, 64, 0
1, 60769, Note_off_c, 0, 87, 55
1, 60771, Control_c, 0, 64, 45
1, 60786, Control_c, 0, 64, 60
1, 60790, Note_off_c, 0, 56, 33
1, 60800, Control_c, 0, 64, 64
1, 60815, Control_c, 0, 64, 68
1, 60830, Control_c, 0, 64, 75
1, 60830, Note_off_c, 0, 84, 62
1, 60845, Control_c, 0, 64, 82
1, 60846, Note_on_c, 0, 77, 38
1, 60860, Control_c, 0, 64, 89
1, 60860, Note_on_c, 0, 80, 57
1, 60875, Control_c, 0, 64, 95
1, 60890, Control_c, 0, 64, 100
1, 60896, Note_off_c, 0, 77, 46
1, 60905, Control_c, 0, 64, 104
1, 60919, Control_c, 0, 64, 107
1, 60934, Control_c, 0, 64, 110
1, 60947, Control_c, 0, 64, 111
1, 60950, Note_off_c, 0, 80, 62
1, 60952, Note_on_c, 0, 85, 52
1, 60962, Control_c, 0, 64, 112
1, 60966, Note_on_c, 0, 82, 58
1, 60976, Control_c, 0, 64, 112
1, 60991, Control_c, 0, 64, 113
1, 60995, Note_off_c, 0, 85, 58
1, 61021, Control_c, 0, 64, 113
1, 61047, Note_off_c, 0, 82, 63
1, 61051, Note_on_c, 0, 78, 57
1, 61051, Control_c, 0, 64, 114
1, 61064, Note_on_c, 0, 56, 35
1, 61066, Control_c, 0, 64, 114
1, 61079, Note_on_c, 0, 75, 54
1, 61081, Control_c, 0, 64, 115
1, 61095, Control_c, 0, 64, 115
1, 61110, Control_c, 0, 64, 116
1, 61125, Control_c, 0, 64, 116
1, 61136, Note_off_c, 0, 78, 61
1, 61137, Note_off_c, 0, 75, 56
1, 61152, Note_on_c, 0, 80, 57
1, 61157, Note_on_c, 0, 84, 63
1, 61169, Control_c, 0, 64, 117
1, 61184, Control_c, 0, 64, 117
1, 61199, Control_c, 0, 64, 118
1, 61214, Control_c, 0, 64, 121
1, 61217, Note_off_c, 0, 84, 62
1, 61228, Control_c, 0, 64, 122
1, 61243, Control_c, 0, 64, 123
1, 61245, Note_off_c, 0, 80, 63
1, 61255, Note_on_c, 0, 77, 52
1, 61258, Control_c, 0, 64, 123
1, 61280, Note_on_c, 0, 73, 42
1, 61302, Control_c, 0, 64, 124
1, 61317, Control_c, 0, 64, 125
1, 61325, Note_off_c, 0, 73, 44
1, 61332, Control_c, 0, 64, 126
1, 61334, Note_off_c, 0, 77, 54
1, 61344, Note_on_c, 0, 78, 61
1, 61347, Control_c, 0, 64, 127
1, 61361, Note_on_c, 0, 82, 57
1, 61420, Note_off_c, 0, 82, 52
1, 61426, Note_off_c, 0, 78, 61
1, 61450, Note_on_c, 0, 75, 59
1, 61455, Note_on_c, 0, 72, 43
1, 61458, Note_off_c, 0, 66, 52
1, 61480, Note_off_c, 0, 72, 58
1, 61522, Note_off_c, 0, 75, 63
1, 61526, Note_off_c, 0, 63, 42
1, 61538, Note_on_c, 0, 80, 53
1, 61540, Note_on_c, 0, 77, 59
1, 61549, Note_off_c, 0, 56, 37
1, 61584, Note_off_c, 0, 80, 57
1, 61606, Note_off_c, 0, 77, 60
1, 61614, Note_on_c, 0, 73, 62
1, 61620, Note_on_c, 0, 70, 51
1, 61668, Note_off_c, 0, 70, 60
1, 61677, Note_off_c, 0, 73, 61
1, 61728, Note_on_c, 0, 78, 44
1, 61767, Note_on_c, 0, 68, 57
1, 61767, Note_off_c, 0, 78, 48
1, 61802, Note_on_c, 0, 72, 56
1, 61848, Note_off_c, 0, 68, 54
1, 61966, Note_off_c, 0, 72, 58
1, 61992, Control_c, 0, 64, 123
1, 62007, Control_c, 0, 64, 111
1, 62022, Control_c, 0, 64, 98
1, 62034, Note_on_c, 0, 37, 34
1, 62035, Note_on_c, 0, 77, 47
1, 62037, Control_c, 0, 64, 85
1, 62047, Note_on_c, 0, 73, 39
1, 62051, Control_c, 0, 64, 71
1, 62066, Control_c, 0, 64, 23
1, 62081, Control_c, 0, 64, 0
1, 62125, Control_c, 0, 64, 36
1, 62140, Control_c, 0, 64, 60
1, 62155, Control_c, 0, 64, 66
1, 62169, Control_c, 0, 64, 75
1, 62184, Control_c, 0, 64, 85
1, 62198, Note_off_c, 0, 37, 57
1, 62207, Control_c, 0, 64, 95
1, 62222, Control_c, 0, 64, 103
1, 62237, Control_c, 0, 64, 110
1, 62252, Control_c, 0, 64, 114
1, 62267, Control_c, 0, 64, 118
1, 62282, Control_c, 0, 64, 120
1, 62297, Control_c, 0, 64, 121
1, 62312, Control_c, 0, 64, 123
1, 62327, Control_c, 0, 64, 123
1, 62342, Control_c, 0, 64, 124
1, 62356, Control_c, 0, 64, 125
1, 62371, Control_c, 0, 64, 126
1, 62401, Control_c, 0, 64, 127
1, 62430, Control_c, 0, 64, 127
1, 62560, Note_on_c, 0, 56, 30
1, 62708, Note_off_c, 0, 73, 39
1, 62724, Note_on_c, 0, 68, 36
1, 62731, Note_on_c, 0, 72, 39
1, 62742, Note_off_c, 0, 77, 34
1, 62824, Note_off_c, 0, 72, 48
1, 62927, Note_on_c, 0, 73, 44
1, 62933, Note_on_c, 0, 77, 43
1, 62934, Note_on_c, 0, 65, 27
1, 62935, Note_off_c, 0, 68, 41
1, 62947, Note_on_c, 0, 61, 28
1, 63003, Note_off_c, 0, 65, 43
1, 63078, Note_on_c, 0, 68, 39
1, 63081, Note_off_c, 0, 77, 37
1, 63111, Note_on_c, 0, 70, 48
1, 63135, Note_off_c, 0, 73, 38
1, 63198, Note_off_c, 0, 68, 33
1, 63258, Note_off_c, 0, 70, 33
1, 63284, Control_c, 0, 64, 118
1, 63288, Note_on_c, 0, 63, 39
1, 63292, Note_on_c, 0, 73, 36
1, 63293, Note_on_c, 0, 77, 50
1, 63298, Control_c, 0, 64, 111
1, 63313, Control_c, 0, 64, 100
1, 63328, Control_c, 0, 64, 88
1, 63343, Control_c, 0, 64, 76
1, 63358, Control_c, 0, 64, 64
1, 63372, Control_c, 0, 64, 0
1, 63383, Note_off_c, 0, 56, 41
1, 63394, Note_off_c, 0, 61, 28
1, 63406, Note_off_c, 0, 77, 48
1, 63411, Note_on_c, 0, 70, 44
1, 63420, Note_off_c, 0, 73, 42
1, 63431, Control_c, 0, 64, 48
1, 63436, Note_on_c, 0, 66, 42
1, 63446, Control_c, 0, 64, 60
1, 63461, Control_c, 0, 64, 65
1, 63476, Control_c, 0, 64, 69
1, 63490, Control_c, 0, 64, 75
1, 63505, Control_c, 0, 64, 83
1, 63520, Control_c, 0, 64, 89
1, 63521, Note_off_c, 0, 70, 59
1, 63535, Note_on_c, 0, 77, 58
1, 63535, Control_c, 0, 64, 93
1, 63537, Note_on_c, 0, 73, 58
1, 63546, Note_off_c, 0, 66, 38
1, 63550, Control_c, 0, 64, 97
1, 63564, Control_c, 0, 64, 101
1, 63579, Control_c, 0, 64, 103
1, 63594, Control_c, 0, 64, 105
1, 63609, Control_c, 0, 64, 106
1, 63621, Note_off_c, 0, 77, 50
1, 63623, Control_c, 0, 64, 108
1, 63633, Note_on_c, 0, 56, 39
1, 63638, Control_c, 0, 64, 109
1, 63639, Note_on_c, 0, 70, 61
1, 63653, Control_c, 0, 64, 111
1, 63655, Note_on_c, 0, 66, 45
1, 63668, Control_c, 0, 64, 113
1, 63682, Note_off_c, 0, 73, 29
1, 63683, Control_c, 0, 64, 115
1, 63705, Control_c, 0, 64, 116
1, 63730, Note_on_c, 0, 73, 42
1, 63743, Note_off_c, 0, 70, 58
1, 63744, Note_on_c, 0, 77, 51
1, 63749, Control_c, 0, 64, 116
1, 63753, Note_off_c, 0, 66, 60
1, 63755, Note_off_c, 0, 63, 40
1, 63779, Control_c, 0, 64, 117
1, 63799, Note_off_c, 0, 56, 42
1, 63823, Note_off_c, 0, 77, 56
1, 63838, Note_off_c, 0, 73, 60
1, 63877, Note_on_c, 0, 66, 51
1, 63884, Note_on_c, 0, 70, 32
1, 63884, Control_c, 0, 64, 117
1, 63993, Note_off_c, 0, 70, 28
1, 64022, Note_on_c, 0, 75, 57
1, 64024, Note_off_c, 0, 66, 52
1, 64027, Note_on_c, 0, 72, 45
1, 64193, Note_off_c, 0, 75, 50
1, 64196, Note_off_c, 0, 72, 58
1, 64214, Note_on_c, 0, 70, 48
1, 64240, Note_on_c, 0, 66, 40
1, 64276, Note_off_c, 0, 70, 59
1, 64288, Note_off_c, 0, 66, 45
1, 64432, Control_c, 0, 64, 117
1, 64454, Control_c, 0, 64, 112
1, 64469, Control_c, 0, 64, 100
1, 64484, Control_c, 0, 64, 86
1, 64488, Note_on_c, 0, 37, 33
1, 64499, Control_c, 0, 64, 71
1, 64508, Note_on_c, 0, 68, 47
1, 64514, Control_c, 0, 64, 34
1, 64518, Note_on_c, 0, 65, 38
1, 64528, Control_c, 0, 64, 0
1, 64572, Control_c, 0, 64, 40
1, 64587, Control_c, 0, 64, 62
1, 64602, Control_c, 0, 64, 67
1, 64615, Note_off_c, 0, 37, 59
1, 64618, Control_c, 0, 64, 74
1, 64633, Control_c, 0, 64, 82
1, 64648, Control_c, 0, 64, 90
1, 64663, Control_c, 0, 64, 99
1, 64665, Note_on_c, 0, 69, 63
1, 64667, Note_off_c, 0, 68, 35
1, 64668, Note_on_c, 0, 66, 44
1, 64674, Note_off_c, 0, 65, 38
1, 64677, Control_c, 0, 64, 106
1, 64691, Note_off_c, 0, 66, 59
1, 64691, Control_c, 0, 64, 114
1, 64693, Note_off_c, 0, 69, 67
1, 64706, Control_c, 0, 64, 121
1, 64721, Control_c, 0, 64, 127
1, 64778, Note_on_c, 0, 67, 55
1, 64790, Note_on_c, 0, 70, 57
1, 64852, Note_off_c, 0, 67, 61
1, 64867, Note_on_c, 0, 71, 67
1, 64872, Note_on_c, 0, 68, 58
1, 64886, Note_on_c, 0, 56, 47
1, 64907, Note_off_c, 0, 70, 47
1, 64950, Note_off_c, 0, 71, 61
1, 64966, Note_off_c, 0, 68, 62
1, 64974, Note_on_c, 0, 72, 62
1, 64977, Note_on_c, 0, 69, 69
1, 65033, Note_off_c, 0, 69, 60
1, 65042, Note_off_c, 0, 72, 64
1, 65055, Note_on_c, 0, 70, 57
1, 65055, Note_on_c, 0, 73, 67
1, 65144, Note_on_c, 0, 74, 68
1, 65147, Note_off_c, 0, 73, 61
1, 65156, Note_off_c, 0, 70, 62
1, 65166, Note_on_c, 0, 65, 36
1, 65173, Note_off_c, 0, 74, 61
1, 65191, Note_on_c, 0, 61, 41
1, 65200, Note_off_c, 0, 65, 58
1, 65236, Poly_aftertouch_c, 0, 71, 0
1, 65237, Note_off_c, 0, 61, 59
1, 65259, Note_on_c, 0, 72, 60
1, 65268, Note_on_c, 0, 75, 61
1, 65289, Note_off_c, 0, 72, 47
1, 65339, Note_on_c, 0, 76, 72
1, 65343, Note_on_c, 0, 73, 59
1, 65370, Note_off_c, 0, 75, 60
1, 65395, Control_c, 0, 64, 110
1, 65410, Control_c, 0, 64, 92
1, 65427, Note_on_c, 0, 60, 44
1, 65427, Control_c, 0, 64, 72
1, 65429, Note_off_c, 0, 76, 66
1, 65436, Note_off_c, 0, 73, 56
1, 65439, Note_on_c, 0, 77, 64
1, 65441, Control_c, 0, 64, 46
1, 65442, Note_on_c, 0, 66, 41
1, 65446, Note_off_c, 0, 56, 55
1, 65454, Note_on_c, 0, 74, 64
1, 65456, Control_c, 0, 64, 0
1, 65486, Control_c, 0, 64, 61
1, 65500, Control_c, 0, 64, 68
1, 65514, Note_off_c, 0, 77, 61
1, 65515, Control_c, 0, 64, 78
1, 65516, Note_off_c, 0, 74, 65
1, 65523, Note_on_c, 0, 78, 71
1, 65530, Control_c, 0, 64, 90
1, 65534, Note_on_c, 0, 75, 59
1, 65545, Control_c, 0, 64, 100
1, 65560, Control_c, 0, 64, 112
1, 65574, Control_c, 0, 64, 127
1, 65615, Note_on_c, 0, 79, 73
1, 65621, Note_off_c, 0, 75, 64
1, 65621, Note_off_c, 0, 78, 63
1, 65640, Note_on_c, 0, 76, 32
1, 65647, Note_off_c, 0, 79, 58
1, 65670, Note_off_c, 0, 76, 48
1, 65671, Note_on_c, 0, 56, 54
1, 65713, Note_on_c, 0, 77, 69
1, 65718, Note_on_c, 0, 80, 68
1, 65743, Note_off_c, 0, 66, 65
1, 65771, Note_off_c, 0, 77, 58
1, 65789, Note_on_c, 0, 81, 79
1, 65792, Note_on_c, 0, 78, 71
1, 65795, Note_off_c, 0, 60, 55
1, 65797, Note_off_c, 0, 56, 58
1, 65822, Note_off_c, 0, 80, 63
1, 65850, Note_off_c, 0, 78, 62
1, 65875, Note_on_c, 0, 83, 63
1, 65877, Note_off_c, 0, 81, 0
1, 65886, Note_on_c, 0, 79, 70
1, 65920, Note_off_c, 0, 83, 0
1, 65961, Note_off_c, 0, 79, 60
1, 65962, Note_on_c, 0, 82, 72
1, 65969, Note_on_c, 0, 80, 71
1, 65970, Poly_aftertouch_c, 0, 81, 0
1, 66002, Poly_aftertouch_c, 0, 83, 0
1, 66069, Note_off_c, 0, 82, 65
1, 66088, Note_on_c, 0, 84, 67
1, 66090, Note_on_c, 0, 79, 52
1, 66090, Note_on_c, 0, 83, 62
1, 66096, Note_on_c, 0, 81, 65
1, 66097, Note_off_c, 0, 80, 62
1, 66189, Note_off_c, 0, 79, 56
1, 66204, Control_c, 0, 64, 102
1, 66220, Control_c, 0, 64, 81
1, 66232, Note_off_c, 0, 81, 57
1, 66235, Control_c, 0, 64, 54
1, 66246, Note_off_c, 0, 83, 51
1, 66249, Control_c, 0, 64, 0
1, 66255, Poly_aftertouch_c, 0, 80, 0
1, 66256, Note_off_c, 0, 84, 62
1, 66262, Note_on_c, 0, 37, 58
1, 66294, Control_c, 0, 64, 52
1, 66300, Note_on_c, 0, 83, 47
1, 66300, Note_off_c, 0, 37, 65
1, 66309, Control_c, 0, 64, 68
1, 66323, Control_c, 0, 64, 79
1, 66338, Control_c, 0, 64, 93
1, 66353, Control_c, 0, 64, 104
1, 66368, Control_c, 0, 64, 114
1, 66374, Note_on_c, 0, 87, 73
1, 66383, Control_c, 0, 64, 127
1, 66396, Note_off_c, 0, 83, 61
1, 66397, Control_c, 0, 64, 127
1, 66481, Note_off_c, 0, 87, 63
1, 66491, Poly_aftertouch_c, 0, 84, 0
1, 66491, Note_on_c, 0, 88, 67
1, 66500, Note_on_c, 0, 86, 77
1, 66553, Note_on_c, 0, 56, 54
1, 66565, Note_off_c, 0, 86, 49
1, 66587, Note_off_c, 0, 88, 58
1, 66593, Note_on_c, 0, 89, 64
1, 66595, Note_on_c, 0, 87, 72
1, 66631, Note_off_c, 0, 89, 0
1, 66631, Note_on_c, 0, 89, 17
1, 66674, Note_off_c, 0, 89, 60
1, 66679, Note_on_c, 0, 88, 54
1, 66694, Note_on_c, 0, 91, 76
1, 66700, Note_off_c, 0, 87, 63
1, 66756, Note_off_c, 0, 88, 0
1, 66763, Note_off_c, 0, 91, 58
1, 66780, Note_on_c, 0, 90, 83
1, 66785, Note_on_c, 0, 88, 24
1, 66797, Note_off_c, 0, 88, 54
1, 66829, Note_on_c, 0, 65, 39
1, 66837, Note_off_c, 0, 90, 63
1, 66868, Note_on_c, 0, 61, 49
1, 66877, Note_off_c, 0, 65, 64
1, 66920, Note_off_c, 0, 61, 59
1, 66934, Note_on_c, 0, 92, 72
1, 66944, Note_on_c, 0, 89, 65
1, 67060, Note_on_c, 0, 94, 69
1, 67061, Note_off_c, 0, 89, 64
1, 67067, Note_off_c, 0, 92, 64
1, 67075, Note_on_c, 0, 90, 69
1, 67187, Note_on_c, 0, 92, 73
1, 67190, Note_on_c, 0, 89, 63
1, 67194, Note_off_c, 0, 94, 61
1, 67199, Note_off_c, 0, 90, 57
1, 67325, Control_c, 0, 64, 127
1, 67331, Note_off_c, 0, 89, 60
1, 67339, Note_off_c, 0, 92, 61
1, 67339, Control_c, 0, 64, 100
1, 67341, Note_on_c, 0, 66, 38
1, 67346, Note_on_c, 0, 60, 36
1, 67354, Control_c, 0, 64, 83
1, 67358, Note_on_c, 0, 94, 61
1, 67368, Note_on_c, 0, 90, 55
1, 67369, Control_c, 0, 64, 65
1, 67383, Control_c, 0, 64, 0
1, 67428, Note_off_c, 0, 56, 36
1, 67451, Control_c, 0, 64, 29
1, 67465, Control_c, 0, 64, 51
1, 67480, Control_c, 0, 64, 58
1, 67492, Note_off_c, 0, 94, 59
1, 67494, Note_off_c, 0, 90, 61
1, 67495, Control_c, 0, 64, 64
1, 67503, Note_on_c, 0, 92, 59
1, 67510, Note_on_c, 0, 87, 45
1, 67510, Control_c, 0, 64, 70
1, 67525, Control_c, 0, 64, 80
1, 67539, Control_c, 0, 64, 90
1, 67554, Control_c, 0, 64, 97
1, 67569, Control_c, 0, 64, 101
1, 67584, Control_c, 0, 64, 103
1, 67598, Control_c, 0, 64, 103
1, 67600, Note_off_c, 0, 87, 62
1, 67609, Note_off_c, 0, 92, 61
1, 67613, Control_c, 0, 64, 104
1, 67627, Note_on_c, 0, 90, 63
1, 67627, Note_on_c, 0, 94, 55
1, 67628, Control_c, 0, 64, 105
1, 67643, Control_c, 0, 64, 105
1, 67658, Control_c, 0, 64, 106
1, 67672, Control_c, 0, 64, 106
1, 67702, Control_c, 0, 64, 107
1, 67717, Control_c, 0, 64, 107
1, 67732, Control_c, 0, 64, 108
1, 67737, Note_off_c, 0, 90, 59
1, 67746, Note_off_c, 0, 94, 55
1, 67746, Control_c, 0, 64, 109
1, 67755, Note_on_c, 0, 85, 56
1, 67760, Note_on_c, 0, 56, 42
1, 67760, Note_on_c, 0, 92, 55
1, 67761, Control_c, 0, 64, 110
1, 67776, Control_c, 0, 64, 111
1, 67791, Control_c, 0, 64, 112
1, 67806, Control_c, 0, 64, 113
1, 67821, Control_c, 0, 64, 113
1, 67836, Control_c, 0, 64, 114
1, 67837, Note_off_c, 0, 85, 56
1, 67851, Control_c, 0, 64, 115
1, 67858, Note_off_c, 0, 92, 62
1, 67866, Control_c, 0, 64, 116
1, 67873, Note_on_c, 0, 90, 60
1, 67877, Note_on_c, 0, 94, 53
1, 67881, Control_c, 0, 64, 117
1, 67895, Control_c, 0, 64, 120
1, 67910, Control_c, 0, 64, 124
1, 67925, Control_c, 0, 64, 127
1, 67991, Note_off_c, 0, 90, 60
1, 68007, Note_off_c, 0, 94, 59
1, 68011, Note_on_c, 0, 92, 51
1, 68032, Note_on_c, 0, 84, 35
1, 68144, Note_off_c, 0, 84, 48
1, 68154, Note_on_c, 0, 90, 58
1, 68167, Note_off_c, 0, 92, 60
1, 68197, Note_on_c, 0, 94, 47
1, 68268, Note_off_c, 0, 66, 56
1, 68323, Note_off_c, 0, 60, 58
1, 68324, Note_off_c, 0, 94, 55
1, 68339, Note_off_c, 0, 90, 58
1, 68345, Note_on_c, 0, 92, 56
1, 68353, Note_off_c, 0, 56, 39
1, 68357, Note_on_c, 0, 82, 44
1, 68549, Note_on_c, 0, 90, 49
1, 68590, Note_on_c, 0, 94, 51
1, 68636, Note_off_c, 0, 94, 59
1, 68643, Note_off_c, 0, 92, 29
1, 68685, Note_off_c, 0, 82, 36
1, 68816, Note_off_c, 0, 90, 18
1, 68925, Control_c, 0, 64, 110
1, 68947, Control_c, 0, 64, 93
1, 68953, Note_on_c, 0, 92, 52
1, 68962, Control_c, 0, 64, 74
1, 68964, Note_on_c, 0, 37, 32
1, 68966, Note_on_c, 0, 80, 26
1, 68971, Note_on_c, 0, 89, 52
1, 68977, Control_c, 0, 64, 48
1, 68991, Note_off_c, 0, 80, 45
1, 68992, Control_c, 0, 64, 0
1, 69022, Control_c, 0, 64, 42
1, 69036, Control_c, 0, 64, 64
1, 69051, Control_c, 0, 64, 70
1, 69066, Control_c, 0, 64, 80
1, 69081, Control_c, 0, 64, 90
1, 69096, Control_c, 0, 64, 100
1, 69110, Control_c, 0, 64, 110
1, 69118, Note_off_c, 0, 92, 60
1, 69125, Control_c, 0, 64, 122
1, 69140, Control_c, 0, 64, 127
1, 69176, Note_off_c, 0, 37, 53
1, 69224, Note_on_c, 0, 97, 60
1, 69359, Note_off_c, 0, 89, 31
1, 69500, Note_off_c, 0, 97, 47
1, 69541, Note_on_c, 0, 56, 31
1, 69918, Note_on_c, 0, 97, 54
1, 69951, Note_on_c, 0, 65, 39
1, 69964, Note_on_c, 0, 89, 58
1, 69973, Note_off_c, 0, 97, 59
1, 69984, Note_on_c, 0, 61, 32
1, 70054, Note_off_c, 0, 65, 63
1, 70092, Note_off_c, 0, 89, 31
1, 70110, Note_on_c, 0, 80, 56
1, 70214, Note_off_c, 0, 80, 55
1, 70276, Control_c, 0, 64, 126
1, 70290, Control_c, 0, 64, 103
1, 70300, Note_on_c, 0, 66, 39
1, 70305, Control_c, 0, 64, 86
1, 70316, Note_on_c, 0, 90, 64
1, 70320, Control_c, 0, 64, 72
1, 70322, Note_on_c, 0, 63, 42
1, 70327, Note_on_c, 0, 80, 39
1, 70335, Control_c, 0, 64, 55
1, 70350, Control_c, 0, 64, 0
1, 70355, Note_off_c, 0, 80, 56
1, 70364, Control_c, 0, 64, 39
1, 70379, Control_c, 0, 64, 60
1, 70394, Control_c, 0, 64, 69
1, 70408, Control_c, 0, 64, 77
1, 70423, Control_c, 0, 64, 87
1, 70446, Control_c, 0, 64, 94
1, 70457, Note_off_c, 0, 56, 40
1, 70461, Control_c, 0, 64, 99
1, 70476, Control_c, 0, 64, 102
1, 70476, Note_on_c, 0, 96, 61
1, 70490, Control_c, 0, 64, 104
1, 70502, Note_off_c, 0, 90, 57
1, 70505, Note_off_c, 0, 96, 63
1, 70505, Control_c, 0, 64, 106
1, 70520, Control_c, 0, 64, 109
1, 70535, Control_c, 0, 64, 111
1, 70550, Control_c, 0, 64, 114
1, 70564, Control_c, 0, 64, 117
1, 70579, Control_c, 0, 64, 121
1, 70594, Control_c, 0, 64, 126
1, 70608, Control_c, 0, 64, 127
1, 70701, Note_on_c, 0, 56, 48
1, 70720, Note_on_c, 0, 92, 69
1, 70745, Note_on_c, 0, 84, 59
1, 70762, Note_off_c, 0, 92, 58
1, 70868, Note_on_c, 0, 75, 58
1, 70876, Note_off_c, 0, 84, 57
1, 70906, Note_off_c, 0, 75, 65
1, 70921, Note_off_c, 0, 66, 54
1, 70971, Note_off_c, 0, 63, 60
1, 70992, Note_off_c, 0, 56, 49
1, 70996, Note_off_c, 0, 61, 37
1, 71091, Note_on_c, 0, 78, 62
1, 71091, Note_on_c, 0, 87, 55
1, 71128, Note_off_c, 0, 78, 57
1, 71234, Note_off_c, 0, 87, 60
1, 71277, Note_on_c, 0, 94, 61
1, 71313, Note_off_c, 0, 94, 58
1, 71550, Control_c, 0, 64, 106
1, 71564, Control_c, 0, 64, 90
1, 71579, Control_c, 0, 64, 73
1, 71589, Note_on_c, 0, 37, 35
1, 71594, Note_on_c, 0, 94, 39
1, 71594, Control_c, 0, 64, 52
1, 71609, Control_c, 0, 64, 0
1, 71615, Note_on_c, 0, 85, 56
1, 71631, Note_off_c, 0, 94, 48
1, 71639, Control_c, 0, 64, 44
1, 71654, Control_c, 0, 64, 63
1, 71669, Control_c, 0, 64, 69
1, 71684, Control_c, 0, 64, 77
1, 71693, Note_off_c, 0, 37, 60
1, 71699, Control_c, 0, 64, 88
1, 71708, Note_off_c, 0, 85, 65
1, 71713, Control_c, 0, 64, 99
1, 71728, Control_c, 0, 64, 111
1, 71743, Control_c, 0, 64, 127
1, 71753, Note_on_c, 0, 76, 50
1, 71802, Note_off_c, 0, 76, 40
1, 71989, Note_on_c, 0, 85, 54
1, 71993, Note_on_c, 0, 56, 31
1, 72002, Note_on_c, 0, 77, 33
1, 72032, Note_off_c, 0, 77, 42
1, 72121, Note_off_c, 0, 85, 37
1, 72134, Note_on_c, 0, 92, 60
1, 72157, Note_off_c, 0, 92, 58
1, 72384, Note_on_c, 0, 65, 41
1, 72386, Note_on_c, 0, 61, 41
1, 72393, Note_on_c, 0, 80, 55
1, 72399, Note_on_c, 0, 89, 18
1, 72408, Note_on_c, 0, 88, 32
1, 72421, Note_off_c, 0, 89, 50
1, 72441, Note_off_c, 0, 88, 53
1, 72448, Note_off_c, 0, 65, 64
1, 72530, Note_on_c, 0, 73, 54
1, 72532, Note_off_c, 0, 80, 60
1, 72607, Note_off_c, 0, 73, 55
1, 72722, Control_c, 0, 64, 111
1, 72732, Note_on_c, 0, 66, 40
1, 72737, Control_c, 0, 64, 98
1, 72748, Note_on_c, 0, 63, 41
1, 72751, Note_on_c, 0, 73, 50
1, 72752, Control_c, 0, 64, 85
1, 72761, Note_on_c, 0, 80, 49
1, 72766, Control_c, 0, 64, 73
1, 72772, Note_off_c, 0, 73, 59
1, 72781, Control_c, 0, 64, 56
1, 72796, Control_c, 0, 64, 0
1, 72799, Note_off_c, 0, 80, 0
1, 72799, Note_on_c, 0, 80, 6
1, 72825, Control_c, 0, 64, 40
1, 72840, Control_c, 0, 64, 62
1, 72855, Control_c, 0, 64, 69
1, 72870, Control_c, 0, 64, 77
1, 72882, Note_off_c, 0, 56, 40
1, 72885, Control_c, 0, 64, 89
1, 72900, Control_c, 0, 64, 96
1, 72903, Note_on_c, 0, 89, 54
1, 72915, Control_c, 0, 64, 102
1, 72929, Control_c, 0, 64, 107
1, 72939, Note_off_c, 0, 89, 60
1, 72944, Note_off_c, 0, 80, 44
1, 72944, Control_c, 0, 64, 113
1, 72958, Control_c, 0, 64, 118
1, 72973, Control_c, 0, 64, 126
1, 72988, Control_c, 0, 64, 127
1, 73151, Note_on_c, 0, 87, 55
1, 73168, Note_on_c, 0, 80, 56
1, 73171, Note_on_c, 0, 56, 34
1, 73197, Note_off_c, 0, 87, 52
1, 73284, Note_off_c, 0, 80, 61
1, 73311, Note_on_c, 0, 72, 42
1, 73333, Note_off_c, 0, 72, 58
1, 73529, Note_off_c, 0, 66, 42
1, 73576, Note_on_c, 0, 68, 41
1, 73579, Note_on_c, 0, 78, 55
1, 73586, Note_off_c, 0, 63, 58
1, 73597, Note_off_c, 0, 61, 1
1, 73613, Note_off_c, 0, 68, 57
1, 73624, Note_off_c, 0, 56, 38
1, 73744, Note_on_c, 0, 84, 52
1, 73767, Note_off_c, 0, 84, 66
1, 73794, Note_off_c, 0, 78, 62
1, 74033, Control_c, 0, 64, 110
1, 74048, Control_c, 0, 64, 94
1, 74062, Note_on_c, 0, 80, 51
1, 74062, Control_c, 0, 64, 79
1, 74072, Note_on_c, 0, 37, 35
1, 74077, Control_c, 0, 64, 63
1, 74081, Note_on_c, 0, 75, 50
1, 74092, Control_c, 0, 64, 0
1, 74110, Note_off_c, 0, 80, 41
1, 74137, Control_c, 0, 64, 51
1, 74151, Control_c, 0, 64, 64
1, 74166, Control_c, 0, 64, 71
1, 74188, Control_c, 0, 64, 80
1, 74204, Control_c, 0, 64, 92
1, 74219, Control_c, 0, 64, 103
1, 74222, Note_off_c, 0, 37, 52
1, 74234, Control_c, 0, 64, 112
1, 74249, Control_c, 0, 64, 118
1, 74262, Note_on_c, 0, 65, 48
1, 74263, Control_c, 0, 64, 125
1, 74278, Control_c, 0, 64, 127
1, 74336, Note_off_c, 0, 65, 58
1, 74357, Note_off_c, 0, 75, 26
1, 74490, Note_on_c, 0, 73, 57
1, 74498, Note_on_c, 0, 65, 41
1, 74503, Note_on_c, 0, 56, 40
1, 74529, Note_off_c, 0, 65, 50
1, 74636, Note_on_c, 0, 80, 68
1, 74639, Note_off_c, 0, 73, 59
1, 74680, Note_off_c, 0, 80, 61
1, 74853, Note_on_c, 0, 65, 45
1, 74858, Note_on_c, 0, 61, 49
1, 74859, Note_on_c, 0, 85, 63
1, 74875, Note_on_c, 0, 77, 65
1, 74887, Note_off_c, 0, 65, 54
1, 74897, Note_off_c, 0, 85, 62
1, 75008, Note_on_c, 0, 68, 56
1, 75022, Note_off_c, 0, 77, 29
1, 75101, Note_off_c, 0, 68, 61
1, 75174, Control_c, 0, 64, 122
1, 75189, Control_c, 0, 64, 99
1, 75202, Note_on_c, 0, 66, 46
1, 75204, Control_c, 0, 64, 82
1, 75212, Note_on_c, 0, 63, 40
1, 75216, Note_on_c, 0, 68, 61
1, 75219, Control_c, 0, 64, 64
1, 75228, Note_on_c, 0, 78, 63
1, 75234, Control_c, 0, 64, 0
1, 75237, Note_off_c, 0, 68, 61
1, 75257, Note_off_c, 0, 66, 0
1, 75257, Note_on_c, 0, 66, 5
1, 75278, Control_c, 0, 64, 62
1, 75279, Note_off_c, 0, 78, 61
1, 75293, Control_c, 0, 64, 72
1, 75308, Control_c, 0, 64, 83
1, 75323, Control_c, 0, 64, 95
1, 75338, Control_c, 0, 64, 102
1, 75352, Control_c, 0, 64, 107
1, 75362, Note_on_c, 0, 87, 57
1, 75367, Control_c, 0, 64, 112
1, 75368, Note_off_c, 0, 56, 40
1, 75382, Control_c, 0, 64, 116
1, 75384, Note_off_c, 0, 87, 56
1, 75396, Control_c, 0, 64, 122
1, 75411, Control_c, 0, 64, 127
1, 75572, Note_on_c, 0, 90, 72
1, 75580, Note_on_c, 0, 56, 52
1, 75589, Note_on_c, 0, 84, 69
1, 75641, Note_off_c, 0, 90, 63
1, 75722, Note_on_c, 0, 75, 64
1, 75747, Note_off_c, 0, 75, 60
1, 75752, Note_off_c, 0, 84, 62
1, 75765, Note_off_c, 0, 66, 53
1, 75841, Note_off_c, 0, 63, 56
1, 75850, Note_off_c, 0, 61, 47
1, 75852, Note_off_c, 0, 56, 56
1, 75924, Note_on_c, 0, 78, 71
1, 75930, Note_on_c, 0, 87, 73
1, 75973, Note_off_c, 0, 78, 62
1, 76061, Note_on_c, 0, 94, 73
1, 76102, Note_off_c, 0, 87, 55
1, 76126, Note_off_c, 0, 94, 63
1, 76219, Control_c, 0, 64, 118
1, 76234, Control_c, 0, 64, 92
1, 76249, Control_c, 0, 64, 73
1, 76264, Control_c, 0, 64, 0
1, 76270, Note_on_c, 0, 94, 67
1, 76274, Note_on_c, 0, 37, 43
1, 76288, Note_on_c, 0, 85, 65
1, 76308, Control_c, 0, 64, 41
1, 76316, Note_off_c, 0, 94, 61
1, 76323, Control_c, 0, 64, 67
1, 76338, Control_c, 0, 64, 77
1, 76352, Control_c, 0, 64, 92
1, 76356, Note_off_c, 0, 37, 64
1, 76367, Control_c, 0, 64, 107
1, 76373, Note_off_c, 0, 85, 66
1, 76382, Control_c, 0, 64, 125
1, 76397, Control_c, 0, 64, 127
1, 76428, Note_on_c, 0, 76, 64
1, 76515, Note_off_c, 0, 76, 58
1, 76629, Note_on_c, 0, 56, 38
1, 76638, Note_on_c, 0, 77, 62
1, 76639, Note_on_c, 0, 85, 68
1, 76680, Note_off_c, 0, 77, 55
1, 76722, Note_off_c, 0, 85, 63
1, 76775, Note_on_c, 0, 92, 73
1, 76802, Note_off_c, 0, 92, 63
1, 77006, Note_on_c, 0, 97, 72
1, 77012, Note_on_c, 0, 65, 48
1, 77023, Note_on_c, 0, 61, 49
1, 77026, Note_on_c, 0, 89, 70
1, 77058, Note_off_c, 0, 97, 63
1, 77080, Note_off_c, 0, 65, 64
1, 77106, Note_off_c, 0, 89, 60
1, 77154, Note_on_c, 0, 80, 63
1, 77255, Note_off_c, 0, 80, 60
1, 77347, Control_c, 0, 64, 118
1, 77358, Note_on_c, 0, 66, 45
1, 77362, Control_c, 0, 64, 100
1, 77374, Note_on_c, 0, 90, 66
1, 77376, Control_c, 0, 64, 82
1, 77378, Note_on_c, 0, 63, 41
1, 77380, Note_on_c, 0, 80, 46
1, 77391, Control_c, 0, 64, 69
1, 77404, Note_off_c, 0, 80, 55
1, 77407, Control_c, 0, 64, 50
1, 77422, Control_c, 0, 64, 36
1, 77437, Control_c, 0, 64, 57
1, 77442, Note_off_c, 0, 90, 62
1, 77452, Control_c, 0, 64, 65
1, 77467, Control_c, 0, 64, 70
1, 77481, Control_c, 0, 64, 78
1, 77496, Control_c, 0, 64, 86
1, 77496, Note_off_c, 0, 56, 36
1, 77511, Control_c, 0, 64, 94
1, 77526, Control_c, 0, 64, 103
1, 77529, Note_on_c, 0, 99, 54
1, 77541, Control_c, 0, 64, 113
1, 77555, Control_c, 0, 64, 127
1, 77565, Note_off_c, 0, 99, 63
1, 77570, Control_c, 0, 64, 127
1, 77774, Note_on_c, 0, 101, 68
1, 77792, Note_on_c, 0, 92, 64
1, 77818, Note_off_c, 0, 101, 53
1, 77898, Poly_aftertouch_c, 0, 56, 127
1, 77913, Note_off_c, 0, 92, 60
1, 78219, Note_on_c, 0, 87, 59
1, 78233, Note_on_c, 0, 78, 45
1, 78254, Note_off_c, 0, 78, 61
1, 78303, Note_off_c, 0, 66, 63
1, 78323, Note_off_c, 0, 87, 63
1, 78352, Note_off_c, 0, 63, 53
1, 78365, Note_off_c, 0, 61, 38
1, 78388, Poly_aftertouch_c, 0, 56, 0
1, 78400, Note_on_c, 0, 96, 54
1, 78447, Note_off_c, 0, 96, 41
1, 78859, Control_c, 0, 64, 108
1, 78874, Control_c, 0, 64, 90
1, 78889, Control_c, 0, 64, 73
1, 78895, Note_on_c, 0, 85, 45
1, 78897, Note_on_c, 0, 37, 30
1, 78903, Control_c, 0, 64, 46
1, 78915, Note_on_c, 0, 77, 39
1, 78918, Control_c, 0, 64, 0
1, 78947, Control_c, 0, 64, 36
1, 78962, Control_c, 0, 64, 65
1, 78977, Control_c, 0, 64, 74
1, 78993, Control_c, 0, 64, 88
1, 79008, Control_c, 0, 64, 104
1, 79013, Note_off_c, 0, 77, 59
1, 79023, Control_c, 0, 64, 118
1, 79038, Control_c, 0, 64, 127
1, 79076, Note_off_c, 0, 85, 65
1, 79126, Note_off_c, 0, 37, 53
1, 79370, Note_on_c, 0, 97, 65
1, 79615, Note_off_c, 0, 97, 53
1, 79756, Note_on_c, 0, 56, 24
1, 79861, Control_c, 0, 67, 119
1, 79875, Control_c, 0, 67, 109
1, 79890, Control_c, 0, 67, 98
1, 79905, Control_c, 0, 67, 87
1, 79920, Control_c, 0, 67, 77
1, 79935, Control_c, 0, 67, 68
1, 79950, Control_c, 0, 67, 64
1, 79957, Note_on_c, 0, 93, 56
1, 79962, Note_on_c, 0, 96, 48
1, 79965, Control_c, 0, 67, 60
1, 79980, Control_c, 0, 67, 56
1, 79988, Note_off_c, 0, 96, 57
1, 79988, Note_off_c, 0, 93, 63
1, 79994, Control_c, 0, 67, 52
1, 80009, Control_c, 0, 67, 47
1, 80024, Control_c, 0, 67, 42
1, 80039, Control_c, 0, 67, 37
1, 80054, Control_c, 0, 67, 31
1, 80068, Control_c, 0, 67, 26
1, 80083, Control_c, 0, 67, 20
1, 80090, Note_on_c, 0, 96, 53
1, 80096, Note_on_c, 0, 93, 58
1, 80098, Control_c, 0, 67, 13
1, 80113, Control_c, 0, 67, 8
1, 80128, Control_c, 0, 67, 0
1, 80138, Note_off_c, 0, 93, 58
1, 80201, Note_off_c, 0, 96, 49
1, 80224, Note_on_c, 0, 92, 63
1, 80229, Note_on_c, 0, 95, 53
1, 80246, Note_on_c, 0, 61, 41
1, 80257, Note_on_c, 0, 65, 37
1, 80307, Note_off_c, 0, 65, 60
1, 80340, Note_on_c, 0, 91, 58
1, 80350, Note_on_c, 0, 94, 62
1, 80356, Note_off_c, 0, 61, 57
1, 80374, Note_off_c, 0, 92, 60
1, 80376, Note_off_c, 0, 91, 58
1, 80379, Note_off_c, 0, 94, 66
1, 80383, Note_off_c, 0, 95, 38
1, 80453, Note_on_c, 0, 94, 61
1, 80457, Note_on_c, 0, 91, 56
1, 80471, Note_off_c, 0, 94, 66
1, 80486, Note_off_c, 0, 91, 63
1, 80534, Control_c, 0, 64, 118
1, 80549, Control_c, 0, 64, 99
1, 80551, Note_on_c, 0, 60, 46
1, 80555, Note_on_c, 0, 66, 48
1, 80557, Note_on_c, 0, 90, 67
1, 80564, Control_c, 0, 64, 84
1, 80568, Note_on_c, 0, 93, 63
1, 80579, Control_c, 0, 64, 71
1, 80595, Control_c, 0, 64, 57
1, 80610, Control_c, 0, 64, 39
1, 80624, Control_c, 0, 64, 57
1, 80639, Control_c, 0, 64, 66
1, 80654, Control_c, 0, 64, 72
1, 80656, Note_off_c, 0, 56, 40
1, 80661, Note_off_c, 0, 93, 56
1, 80664, Note_on_c, 0, 92, 70
1, 80666, Note_off_c, 0, 90, 52
1, 80667, Note_on_c, 0, 89, 58
1, 80669, Control_c, 0, 64, 81
1, 80684, Control_c, 0, 64, 89
1, 80695, Note_off_c, 0, 89, 66
1, 80698, Control_c, 0, 64, 95
1, 80713, Control_c, 0, 64, 102
1, 80716, Note_off_c, 0, 92, 64
1, 80728, Control_c, 0, 64, 109
1, 80743, Control_c, 0, 64, 114
1, 80758, Control_c, 0, 64, 120
1, 80761, Note_on_c, 0, 92, 60
1, 80772, Note_on_c, 0, 89, 69
1, 80772, Control_c, 0, 64, 127
1, 80798, Note_off_c, 0, 89, 69
1, 80801, Note_off_c, 0, 92, 61
1, 80877, Note_on_c, 0, 88, 59
1, 80878, Note_on_c, 0, 56, 45
1, 80889, Note_on_c, 0, 91, 61
1, 80972, Note_off_c, 0, 91, 60
1, 80974, Note_on_c, 0, 90, 73
1, 80978, Note_off_c, 0, 88, 62
1, 80993, Note_on_c, 0, 87, 51
1, 81010, Note_off_c, 0, 90, 59
1, 81015, Note_off_c, 0, 87, 53
1, 81070, Note_on_c, 0, 90, 62
1, 81074, Note_on_c, 0, 87, 73
1, 81096, Note_off_c, 0, 66, 65
1, 81112, Note_off_c, 0, 90, 62
1, 81120, Note_off_c, 0, 87, 60
1, 81148, Note_off_c, 0, 60, 61
1, 81170, Note_on_c, 0, 86, 66
1, 81182, Note_off_c, 0, 56, 34
1, 81184, Note_on_c, 0, 89, 67
1, 81247, Note_off_c, 0, 86, 55
1, 81258, Note_on_c, 0, 88, 67
1, 81258, Note_off_c, 0, 89, 61
1, 81279, Note_on_c, 0, 85, 55
1, 81294, Note_off_c, 0, 88, 57
1, 81297, Note_off_c, 0, 85, 64
1, 81366, Note_on_c, 0, 88, 55
1, 81371, Note_on_c, 0, 85, 59
1, 81418, Control_c, 0, 64, 111
1, 81433, Control_c, 0, 64, 92
1, 81447, Control_c, 0, 64, 74
1, 81462, Control_c, 0, 64, 51
1, 81471, Note_on_c, 0, 37, 40
1, 81477, Control_c, 0, 64, 0
1, 81485, Note_off_c, 0, 88, 59
1, 81488, Note_on_c, 0, 84, 59
1, 81489, Note_on_c, 0, 87, 61
1, 81492, Control_c, 0, 64, 36
1, 81494, Note_off_c, 0, 85, 38
1, 81507, Control_c, 0, 64, 64
1, 81517, Note_off_c, 0, 87, 67
1, 81518, Note_off_c, 0, 84, 67
1, 81521, Note_off_c, 0, 37, 62
1, 81521, Control_c, 0, 64, 74
1, 81536, Control_c, 0, 64, 87
1, 81551, Control_c, 0, 64, 101
1, 81565, Control_c, 0, 64, 112
1, 81580, Control_c, 0, 64, 120
1, 81595, Control_c, 0, 64, 127
1, 81601, Note_on_c, 0, 86, 66
1, 81602, Note_on_c, 0, 83, 57
1, 81623, Note_off_c, 0, 83, 55
1, 81628, Note_off_c, 0, 86, 58
1, 81714, Note_on_c, 0, 83, 44
1, 81716, Note_on_c, 0, 86, 60
1, 81779, Note_off_c, 0, 86, 63
1, 81784, Note_off_c, 0, 83, 61
1, 81788, Note_on_c, 0, 56, 45
1, 81797, Note_on_c, 0, 85, 64
1, 81798, Note_on_c, 0, 82, 60
1, 81844, Note_off_c, 0, 85, 53
1, 81893, Note_on_c, 0, 81, 72
1, 81900, Note_off_c, 0, 82, 38
1, 81906, Note_on_c, 0, 84, 60
1, 81916, Note_off_c, 0, 81, 69
1, 81924, Note_off_c, 0, 84, 66
1, 81998, Note_on_c, 0, 84, 62
1, 82016, Note_on_c, 0, 81, 36
1, 82054, Note_off_c, 0, 81, 47
1, 82090, Note_off_c, 0, 84, 61
1, 82097, Note_on_c, 0, 80, 64
1, 82099, Note_on_c, 0, 83, 58
1, 82108, Note_on_c, 0, 65, 46
1, 82123, Note_on_c, 0, 61, 43
1, 82155, Note_off_c, 0, 65, 63
1, 82191, Note_off_c, 0, 61, 54
1, 82206, Note_off_c, 0, 83, 0
1, 82206, Note_on_c, 0, 83, 5
1, 82207, Note_on_c, 0, 79, 53
1, 82218, Note_off_c, 0, 80, 54
1, 82225, Note_on_c, 0, 82, 47
1, 82234, Note_off_c, 0, 83, 51
1, 82235, Note_off_c, 0, 79, 56
1, 82248, Note_off_c, 0, 82, 58
1, 82314, Note_on_c, 0, 82, 45
1, 82322, Note_on_c, 0, 79, 48
1, 82338, Note_off_c, 0, 82, 57
1, 82344, Note_off_c, 0, 79, 57
1, 82388, Control_c, 0, 64, 126
1, 82403, Control_c, 0, 64, 101
1, 82423, Note_on_c, 0, 66, 45
1, 82426, Control_c, 0, 64, 84
1, 82434, Note_on_c, 0, 60, 40
1, 82438, Note_on_c, 0, 78, 57
1, 82441, Control_c, 0, 64, 67
1, 82448, Note_on_c, 0, 81, 50
1, 82456, Control_c, 0, 64, 0
1, 82500, Control_c, 0, 64, 58
1, 82509, Note_off_c, 0, 56, 37
1, 82514, Control_c, 0, 64, 66
1, 82529, Control_c, 0, 64, 71
1, 82542, Note_on_c, 0, 77, 57
1, 82544, Control_c, 0, 64, 79
1, 82550, Note_off_c, 0, 81, 54
1, 82552, Note_off_c, 0, 78, 47
1, 82556, Note_on_c, 0, 80, 65
1, 82559, Control_c, 0, 64, 88
1, 82574, Note_off_c, 0, 77, 64
1, 82574, Control_c, 0, 64, 97
1, 82588, Control_c, 0, 64, 105
1, 82594, Note_off_c, 0, 80, 59
1, 82603, Control_c, 0, 64, 110
1, 82618, Control_c, 0, 64, 112
1, 82633, Control_c, 0, 64, 113
1, 82648, Control_c, 0, 64, 114
1, 82662, Control_c, 0, 64, 115
1, 82668, Note_on_c, 0, 80, 52
1, 82675, Note_on_c, 0, 77, 56
1, 82677, Control_c, 0, 64, 117
1, 82692, Control_c, 0, 64, 119
1, 82694, Note_off_c, 0, 77, 61
1, 82696, Note_off_c, 0, 80, 57
1, 82707, Control_c, 0, 64, 121
1, 82722, Control_c, 0, 64, 122
1, 82752, Control_c, 0, 64, 122
1, 82767, Control_c, 0, 64, 123
1, 82782, Control_c, 0, 64, 123
1, 82784, Note_on_c, 0, 76, 60
1, 82796, Control_c, 0, 64, 124
1, 82797, Note_on_c, 0, 79, 57
1, 82841, Control_c, 0, 64, 125
1, 82856, Control_c, 0, 64, 125
1, 82870, Control_c, 0, 64, 126
1, 82877, Note_off_c, 0, 76, 51
1, 82893, Note_on_c, 0, 56, 3
1, 82898, Note_off_c, 0, 79, 61
1, 82900, Control_c, 0, 64, 127
1, 82910, Note_on_c, 0, 75, 53
1, 82913, Note_on_c, 0, 78, 60
1, 82914, Control_c, 0, 64, 127
1, 82937, Note_off_c, 0, 75, 60
1, 82946, Note_off_c, 0, 78, 64
1, 83022, Note_on_c, 0, 78, 53
1, 83029, Note_on_c, 0, 75, 53
1, 83065, Note_off_c, 0, 78, 52
1, 83078, Note_off_c, 0, 75, 54
1, 83139, Note_on_c, 0, 77, 56
1, 83139, Note_on_c, 0, 74, 47
1, 83169, Note_off_c, 0, 74, 59
1, 83224, Note_off_c, 0, 66, 64
1, 83262, Note_on_c, 0, 72, 57
1, 83273, Note_off_c, 0, 77, 57
1, 83276, Note_off_c, 0, 60, 53
1, 83284, Note_off_c, 0, 72, 61
1, 83287, Note_on_c, 0, 75, 57
1, 83305, Note_off_c, 0, 56, 40
1, 83349, Note_off_c, 0, 75, 64
1, 83393, Note_on_c, 0, 76, 56
1, 83399, Note_on_c, 0, 70, 57
1, 83449, Note_off_c, 0, 70, 57
1, 83452, Note_off_c, 0, 76, 65
1, 83575, Control_c, 0, 64, 123
1, 83589, Control_c, 0, 64, 104
1, 83604, Control_c, 0, 64, 85
1, 83612, Note_on_c, 0, 68, 47
1, 83619, Note_on_c, 0, 37, 36
1, 83619, Control_c, 0, 64, 68
1, 83634, Control_c, 0, 64, 0
1, 83693, Control_c, 0, 64, 46
1, 83708, Control_c, 0, 64, 63
1, 83723, Control_c, 0, 64, 69
1, 83737, Control_c, 0, 64, 77
1, 83752, Control_c, 0, 64, 87
1, 83767, Control_c, 0, 64, 95
1, 83769, Note_off_c, 0, 37, 55
1, 83782, Control_c, 0, 64, 102
1, 83798, Control_c, 0, 64, 108
1, 83813, Control_c, 0, 64, 111
1, 83813, Note_on_c, 0, 78, 52
1, 83828, Control_c, 0, 64, 114
1, 83842, Control_c, 0, 64, 117
1, 83843, Note_on_c, 0, 75, 50
1, 83857, Control_c, 0, 64, 120
1, 83872, Control_c, 0, 64, 125
1, 83887, Control_c, 0, 64, 127
1, 83948, Note_off_c, 0, 78, 51
1, 83971, Note_on_c, 0, 73, 51
1, 83977, Note_off_c, 0, 68, 35
1, 83977, Note_on_c, 0, 77, 47
1, 84045, Note_off_c, 0, 77, 55
1, 84048, Note_off_c, 0, 75, 37
1, 84063, Note_off_c, 0, 73, 58
1, 84099, Note_on_c, 0, 56, 40
1, 84156, Note_on_c, 0, 68, 57
1, 84248, Note_on_c, 0, 77, 57
1, 84269, Note_on_c, 0, 73, 59
1, 84331, Note_off_c, 0, 68, 31
1, 84354, Note_off_c, 0, 77, 55
1, 84369, Note_on_c, 0, 75, 50
1, 84376, Note_on_c, 0, 72, 51
1, 84414, Note_off_c, 0, 73, 61
1, 84425, Note_off_c, 0, 72, 58
1, 84426, Note_off_c, 0, 75, 57
1, 84459, Note_on_c, 0, 65, 41
1, 84469, Note_on_c, 0, 68, 56
1, 84480, Note_on_c, 0, 61, 44
1, 84511, Note_off_c, 0, 65, 62
1, 84546, Note_off_c, 0, 61, 56
1, 84559, Note_on_c, 0, 72, 55
1, 84579, Note_on_c, 0, 75, 50
1, 84674, Note_on_c, 0, 77, 60
1, 84683, Note_on_c, 0, 73, 56
1, 84705, Note_off_c, 0, 72, 62
1, 84710, Note_off_c, 0, 68, 38
1, 84716, Note_off_c, 0, 75, 38
1, 84720, Note_off_c, 0, 73, 64
1, 84733, Note_off_c, 0, 77, 58
1, 84761, Control_c, 0, 64, 107
1, 84776, Control_c, 0, 64, 90
1, 84779, Note_on_c, 0, 60, 43
1, 84781, Note_on_c, 0, 66, 49
1, 84791, Control_c, 0, 64, 73
1, 84806, Control_c, 0, 64, 0
1, 84810, Note_on_c, 0, 68, 50
1, 84825, Note_off_c, 0, 56, 40
1, 84880, Control_c, 0, 64, 56
1, 84888, Note_on_c, 0, 77, 51
1, 84895, Control_c, 0, 64, 63
1, 84909, Control_c, 0, 64, 67
1, 84916, Note_on_c, 0, 80, 62
1, 84924, Control_c, 0, 64, 72
1, 84939, Control_c, 0, 64, 82
1, 84954, Control_c, 0, 64, 91
1, 84967, Note_off_c, 0, 68, 35
1, 84969, Control_c, 0, 64, 100
1, 84984, Control_c, 0, 64, 107
1, 84998, Control_c, 0, 64, 111
1, 85000, Note_on_c, 0, 75, 56
1, 85011, Note_on_c, 0, 78, 64
1, 85013, Control_c, 0, 64, 114
1, 85028, Control_c, 0, 64, 117
1, 85029, Note_off_c, 0, 80, 57
1, 85042, Note_off_c, 0, 77, 57
1, 85043, Control_c, 0, 64, 121
1, 85057, Control_c, 0, 64, 127
1, 85070, Note_off_c, 0, 75, 63
1, 85074, Note_off_c, 0, 78, 62
1, 85107, Note_on_c, 0, 56, 45
1, 85107, Note_on_c, 0, 68, 62
1, 85139, Note_off_c, 0, 66, 58
1, 85212, Note_on_c, 0, 78, 62
1, 85214, Note_off_c, 0, 60, 51
1, 85220, Note_on_c, 0, 75, 61
1, 85244, Note_off_c, 0, 56, 34
1, 85281, Note_off_c, 0, 68, 59
1, 85309, Note_on_c, 0, 74, 57
1, 85313, Note_on_c, 0, 77, 67
1, 85352, Note_off_c, 0, 78, 60
1, 85385, Note_off_c, 0, 75, 59
1, 85422, Note_on_c, 0, 68, 63
1, 85423, Note_off_c, 0, 74, 59
1, 85428, Note_off_c, 0, 77, 59
1, 85533, Note_on_c, 0, 77, 65
1, 85535, Note_on_c, 0, 74, 65
1, 85549, Note_off_c, 0, 68, 60
1, 85639, Note_on_c, 0, 75, 68
1, 85643, Note_on_c, 0, 78, 66
1, 85661, Note_off_c, 0, 74, 57
1, 85685, Note_off_c, 0, 77, 56
1, 85718, Control_c, 0, 64, 119
1, 85733, Control_c, 0, 64, 98
1, 85747, Control_c, 0, 64, 79
1, 85755, Note_off_c, 0, 78, 57
1, 85762, Control_c, 0, 64, 59
1, 85774, Note_on_c, 0, 37, 40
1, 85774, Note_on_c, 0, 68, 64
1, 85777, Control_c, 0, 64, 0
1, 85794, Note_off_c, 0, 75, 61
1, 85807, Control_c, 0, 64, 60
1, 85821, Control_c, 0, 64, 71
1, 85836, Control_c, 0, 64, 84
1, 85847, Note_off_c, 0, 37, 64
1, 85851, Control_c, 0, 64, 102
1, 85866, Control_c, 0, 64, 127
1, 85883, Note_on_c, 0, 75, 63
1, 85894, Note_on_c, 0, 78, 61
1, 85951, Note_off_c, 0, 68, 55
1, 85989, Note_on_c, 0, 79, 69
1, 85990, Note_on_c, 0, 76, 73
1, 86028, Note_off_c, 0, 75, 60
1, 86084, Note_on_c, 0, 68, 74
1, 86085, Note_off_c, 0, 78, 40
1, 86085, Note_off_c, 0, 79, 61
1, 86098, Note_on_c, 0, 56, 52
1, 86102, Note_off_c, 0, 76, 64
1, 86186, Note_on_c, 0, 76, 65
1, 86207, Note_on_c, 0, 79, 74
1, 86212, Note_off_c, 0, 68, 60
1, 86305, Note_on_c, 0, 80, 77
1, 86308, Note_on_c, 0, 77, 72
1, 86358, Note_off_c, 0, 76, 54
1, 86371, Note_off_c, 0, 79, 52
1, 86406, Note_on_c, 0, 68, 68
1, 86409, Note_on_c, 0, 65, 48
1, 86412, Note_off_c, 0, 77, 58
1, 86418, Note_off_c, 0, 80, 60
1, 86426, Note_on_c, 0, 61, 46
1, 86461, Note_off_c, 0, 65, 62
1, 86510, Note_off_c, 0, 61, 60
1, 86519, Note_on_c, 0, 80, 71
1, 86520, Note_off_c, 0, 68, 61
1, 86522, Note_on_c, 0, 77, 57
1, 86616, Note_on_c, 0, 78, 65
1, 86631, Note_on_c, 0, 81, 62
1, 86692, Note_off_c, 0, 80, 50
1, 86695, Note_off_c, 0, 77, 33
1, 86712, Note_off_c, 0, 78, 58
1, 86719, Note_off_c, 0, 81, 54
1, 86731, Note_on_c, 0, 68, 54
1, 86734, Note_on_c, 0, 66, 37
1, 86747, Control_c, 0, 64, 101
1, 86758, Note_on_c, 0, 60, 34
1, 86761, Control_c, 0, 64, 79
1, 86776, Control_c, 0, 64, 61
1, 86791, Control_c, 0, 64, 0
1, 86842, Note_off_c, 0, 56, 38
1, 86851, Control_c, 0, 64, 63
1, 86856, Note_off_c, 0, 68, 52
1, 86856, Note_on_c, 0, 78, 52
1, 86858, Note_on_c, 0, 81, 52
1, 86865, Control_c, 0, 64, 70
1, 86880, Control_c, 0, 64, 77
1, 86895, Control_c, 0, 64, 85
1, 86917, Control_c, 0, 64, 91
1, 86932, Control_c, 0, 64, 96
1, 86947, Control_c, 0, 64, 101
1, 86961, Control_c, 0, 64, 105
1, 86975, Note_on_c, 0, 80, 55
1, 86976, Control_c, 0, 64, 110
1, 86991, Note_off_c, 0, 81, 35
1, 86992, Control_c, 0, 64, 115
1, 87000, Note_on_c, 0, 77, 46
1, 87007, Control_c, 0, 64, 120
1, 87022, Control_c, 0, 64, 127
1, 87027, Note_off_c, 0, 78, 52
1, 87048, Note_off_c, 0, 77, 42
1, 87056, Note_off_c, 0, 80, 60
1, 87125, Note_on_c, 0, 68, 43
1, 87128, Note_on_c, 0, 56, 28
1, 87214, Control_c, 0, 67, 8
1, 87229, Control_c, 0, 67, 12
1, 87244, Control_c, 0, 67, 17
1, 87250, Note_on_c, 0, 77, 44
1, 87252, Note_off_c, 0, 68, 41
1, 87259, Control_c, 0, 67, 22
1, 87265, Note_on_c, 0, 80, 48
1, 87274, Control_c, 0, 67, 29
1, 87289, Control_c, 0, 67, 37
1, 87303, Control_c, 0, 67, 45
1, 87318, Control_c, 0, 67, 54
1, 87326, Note_off_c, 0, 66, 43
1, 87333, Control_c, 0, 67, 62
1, 87348, Control_c, 0, 67, 68
1, 87363, Control_c, 0, 67, 72
1, 87377, Control_c, 0, 67, 73
1, 87385, Note_on_c, 0, 79, 47
1, 87392, Control_c, 0, 67, 74
1, 87403, Note_on_c, 0, 76, 43
1, 87407, Control_c, 0, 67, 76
1, 87410, Note_off_c, 0, 80, 31
1, 87422, Control_c, 0, 67, 78
1, 87426, Note_off_c, 0, 60, 36
1, 87427, Note_off_c, 0, 77, 34
1, 87437, Control_c, 0, 67, 80
1, 87451, Control_c, 0, 67, 81
1, 87466, Control_c, 0, 67, 82
1, 87468, Note_off_c, 0, 56, 27
1, 87481, Control_c, 0, 67, 83
1, 87492, Note_off_c, 0, 76, 47
1, 87496, Control_c, 0, 67, 85
1, 87497, Note_off_c, 0, 79, 39
1, 87510, Control_c, 0, 67, 87
1, 87525, Control_c, 0, 67, 89
1, 87540, Control_c, 0, 67, 91
1, 87551, Note_on_c, 0, 68, 41
1, 87555, Control_c, 0, 67, 94
1, 87570, Control_c, 0, 67, 99
1, 87584, Control_c, 0, 67, 104
1, 87599, Control_c, 0, 67, 109
1, 87614, Control_c, 0, 67, 112
1, 87629, Control_c, 0, 67, 115
1, 87644, Control_c, 0, 67, 118
1, 87666, Control_c, 0, 67, 120
1, 87681, Control_c, 0, 67, 121
1, 87700, Note_on_c, 0, 76, 43
1, 87709, Note_on_c, 0, 79, 47
1, 87841, Note_off_c, 0, 79, 55
1, 87875, Control_c, 0, 67, 121
1, 87880, Note_on_c, 0, 78, 49
1, 87889, Control_c, 0, 67, 122
1, 87897, Note_off_c, 0, 68, 16
1, 87911, Note_on_c, 0, 75, 42
1, 87917, Note_off_c, 0, 76, 39
1, 87919, Control_c, 0, 67, 122
1, 87923, Note_off_c, 0, 78, 54
1, 87933, Control_c, 0, 67, 124
1, 87937, Note_off_c, 0, 75, 58
1, 87948, Control_c, 0, 67, 127
1, 88126, Control_c, 0, 64, 110
1, 88141, Control_c, 0, 64, 92
1, 88156, Control_c, 0, 64, 76
1, 88171, Control_c, 0, 64, 62
1, 88174, Note_on_c, 0, 73, 41
1, 88181, Note_on_c, 0, 37, 25
1, 88186, Control_c, 0, 64, 0
1, 88186, Note_on_c, 0, 77, 47
1, 88200, Control_c, 0, 64, 26
1, 88201, Note_on_c, 0, 68, 29
1, 88215, Control_c, 0, 64, 61
1, 88230, Control_c, 0, 64, 69
1, 88245, Control_c, 0, 64, 79
1, 88256, Note_off_c, 0, 68, 45
1, 88260, Control_c, 0, 64, 92
1, 88274, Control_c, 0, 64, 105
1, 88285, Note_off_c, 0, 73, 63
1, 88289, Control_c, 0, 64, 121
1, 88293, Note_off_c, 0, 77, 61
1, 88298, Note_off_c, 0, 37, 54
1, 88304, Control_c, 0, 64, 127
1, 88466, Note_on_c, 0, 80, 54
1, 88499, Note_on_c, 0, 77, 42
1, 88526, Note_off_c, 0, 77, 56
1, 88555, Note_off_c, 0, 80, 64
1, 88669, Note_on_c, 0, 56, 40
1, 88684, Note_on_c, 0, 77, 48
1, 88684, Note_on_c, 0, 85, 56
1, 88707, Note_on_c, 0, 80, 48
1, 88732, Note_off_c, 0, 77, 46
1, 88733, Note_off_c, 0, 85, 59
1, 88743, Note_off_c, 0, 80, 55
1, 88860, Note_on_c, 0, 78, 60
1, 88870, Note_on_c, 0, 87, 53
1, 88886, Note_off_c, 0, 78, 59
1, 88892, Note_on_c, 0, 80, 48
1, 88913, Note_off_c, 0, 87, 61
1, 88915, Note_off_c, 0, 80, 61
1, 89031, Note_on_c, 0, 80, 54
1, 89036, Note_on_c, 0, 65, 44
1, 89039, Note_on_c, 0, 61, 43
1, 89045, Note_on_c, 0, 89, 65
1, 89055, Note_on_c, 0, 85, 59
1, 89092, Note_off_c, 0, 80, 49
1, 89092, Note_off_c, 0, 65, 63
1, 89116, Note_off_c, 0, 85, 64
1, 89127, Note_off_c, 0, 89, 64
1, 89214, Note_on_c, 0, 90, 65
1, 89217, Note_on_c, 0, 82, 61
1, 89232, Note_on_c, 0, 85, 62
1, 89276, Note_off_c, 0, 90, 61
1, 89291, Note_off_c, 0, 85, 63
1, 89293, Note_off_c, 0, 82, 63
1, 89402, Control_c, 0, 64, 106
1, 89410, Note_on_c, 0, 89, 66
1, 89417, Control_c, 0, 64, 88
1, 89423, Note_on_c, 0, 63, 42
1, 89430, Note_on_c, 0, 66, 44
1, 89431, Note_on_c, 0, 84, 66
1, 89432, Control_c, 0, 64, 71
1, 89436, Note_on_c, 0, 80, 53
1, 89447, Control_c, 0, 64, 0
1, 89477, Note_off_c, 0, 66, 0
1, 89477, Note_on_c, 0, 66, 5
1, 89478, Note_off_c, 0, 89, 64
1, 89489, Note_off_c, 0, 80, 61
1, 89491, Control_c, 0, 64, 58
1, 89495, Note_off_c, 0, 84, 64
1, 89506, Control_c, 0, 64, 66
1, 89521, Control_c, 0, 64, 73
1, 89535, Control_c, 0, 64, 83
1, 89550, Control_c, 0, 64, 92
1, 89559, Note_off_c, 0, 56, 39
1, 89565, Control_c, 0, 64, 102
1, 89579, Control_c, 0, 64, 112
1, 89594, Control_c, 0, 64, 127
1, 89605, Note_on_c, 0, 78, 54
1, 89605, Note_on_c, 0, 87, 60
1, 89608, Note_on_c, 0, 84, 66
1, 89609, Control_c, 0, 64, 127
1, 89653, Note_off_c, 0, 87, 56
1, 89667, Note_off_c, 0, 84, 63
1, 89670, Note_off_c, 0, 78, 46
1, 89793, Note_on_c, 0, 84, 62
1, 89805, Note_on_c, 0, 78, 51
1, 89807, Note_on_c, 0, 75, 49
1, 89853, Note_off_c, 0, 75, 57
1, 89859, Note_off_c, 0, 84, 63
1, 89882, Note_off_c, 0, 78, 61
1, 90016, Note_on_c, 0, 78, 59
1, 90032, Note_on_c, 0, 73, 19
1, 90075, Note_off_c, 0, 73, 51
1, 90107, Poly_aftertouch_c, 0, 82, 0
1, 90123, Note_off_c, 0, 78, 50
1, 90207, Note_on_c, 0, 78, 36
1, 90223, Note_on_c, 0, 80, 50
1, 90227, Note_on_c, 0, 72, 40
1, 90250, Note_off_c, 0, 72, 57
1, 90252, Note_off_c, 0, 66, 53
1, 90272, Note_off_c, 0, 80, 61
1, 90279, Note_off_c, 0, 78, 62
1, 90319, Note_off_c, 0, 61, 34
1, 90322, Note_off_c, 0, 63, 47
1, 90379, Note_on_c, 0, 82, 53
1, 90396, Note_on_c, 0, 78, 53
1, 90413, Note_on_c, 0, 73, 38
1, 90436, Note_off_c, 0, 78, 61
1, 90440, Note_off_c, 0, 73, 53
1, 90454, Note_off_c, 0, 82, 60
1, 90541, Note_on_c, 0, 73, 44
1, 90549, Note_on_c, 0, 82, 36
1, 90550, Note_on_c, 0, 78, 59
1, 90576, Note_off_c, 0, 73, 55
1, 90606, Note_off_c, 0, 78, 55
1, 90611, Note_off_c, 0, 82, 55
1, 90780, Control_c, 0, 64, 118
1, 90795, Control_c, 0, 64, 97
1, 90809, Control_c, 0, 64, 81
1, 90824, Control_c, 0, 64, 65
1, 90830, Note_on_c, 0, 80, 44
1, 90835, Note_on_c, 0, 37, 26
1, 90836, Note_on_c, 0, 75, 28
1, 90839, Control_c, 0, 64, 0
1, 90855, Note_on_c, 0, 77, 45
1, 90869, Control_c, 0, 64, 51
1, 90884, Control_c, 0, 64, 66
1, 90899, Control_c, 0, 64, 74
1, 90914, Control_c, 0, 64, 87
1, 90928, Control_c, 0, 64, 101
1, 90943, Control_c, 0, 64, 117
1, 90958, Control_c, 0, 64, 127
1, 90967, Note_off_c, 0, 75, 56
1, 90982, Note_off_c, 0, 37, 55
1, 90989, Note_off_c, 0, 77, 60
1, 90989, Note_off_c, 0, 80, 61
1, 91107, Note_on_c, 0, 77, 53
1, 91120, Note_on_c, 0, 73, 39
1, 91122, Note_on_c, 0, 80, 58
1, 91143, Note_off_c, 0, 77, 62
1, 91147, Note_off_c, 0, 73, 53
1, 91162, Note_off_c, 0, 80, 61
1, 91308, Note_on_c, 0, 85, 59
1, 91319, Note_on_c, 0, 56, 41
1, 91323, Note_on_c, 0, 77, 47
1, 91325, Note_on_c, 0, 82, 52
1, 91358, Note_off_c, 0, 85, 58
1, 91363, Note_off_c, 0, 77, 46
1, 91363, Note_off_c, 0, 82, 60
1, 91453, Note_on_c, 0, 85, 62
1, 91456, Note_on_c, 0, 80, 61
1, 91477, Note_off_c, 0, 80, 65
1, 91482, Note_off_c, 0, 85, 67
1, 91579, Note_on_c, 0, 80, 61
1, 91584, Note_on_c, 0, 90, 70
1, 91623, Note_off_c, 0, 80, 56
1, 91629, Note_on_c, 0, 85, 28
1, 91667, Note_off_c, 0, 85, 43
1, 91683, Note_off_c, 0, 90, 59
1, 91721, Note_on_c, 0, 89, 63
1, 91727, Note_on_c, 0, 61, 41
1, 91736, Note_on_c, 0, 65, 37
1, 91740, Note_on_c, 0, 80, 39
1, 91748, Note_on_c, 0, 85, 57
1, 91766, Note_off_c, 0, 80, 54
1, 91771, Note_off_c, 0, 85, 65
1, 91779, Note_off_c, 0, 89, 65
1, 91832, Note_off_c, 0, 65, 57
1, 91855, Note_on_c, 0, 80, 60
1, 91860, Note_on_c, 0, 92, 74
1, 91881, Note_off_c, 0, 92, 55
1, 91883, Note_off_c, 0, 80, 66
1, 91999, Note_on_c, 0, 85, 53
1, 92000, Note_on_c, 0, 92, 53
1, 92010, Note_on_c, 0, 97, 62
1, 92023, Note_off_c, 0, 85, 59
1, 92043, Note_off_c, 0, 92, 47
1, 92067, Note_off_c, 0, 97, 61
1, 92122, Control_c, 0, 64, 105
1, 92124, Note_on_c, 0, 97, 57
1, 92137, Control_c, 0, 64, 87
1, 92153, Note_on_c, 0, 63, 42
1, 92154, Note_on_c, 0, 66, 40
1, 92157, Note_on_c, 0, 92, 54
1, 92160, Control_c, 0, 64, 71
1, 92164, Note_on_c, 0, 87, 43
1, 92174, Control_c, 0, 64, 49
1, 92189, Control_c, 0, 64, 15
1, 92204, Control_c, 0, 64, 54
1, 92219, Control_c, 0, 64, 66
1, 92222, Note_off_c, 0, 66, 0
1, 92222, Note_on_c, 0, 66, 3
1, 92234, Control_c, 0, 64, 73
1, 92234, Note_off_c, 0, 87, 0
1, 92234, Note_on_c, 0, 87, 17
1, 92247, Note_on_c, 0, 96, 72
1, 92249, Control_c, 0, 64, 83
1, 92249, Note_off_c, 0, 97, 60
1, 92250, Note_off_c, 0, 61, 0
1, 92263, Control_c, 0, 64, 91
1, 92278, Control_c, 0, 64, 97
1, 92279, Note_off_c, 0, 87, 62
1, 92288, Poly_aftertouch_c, 0, 61, 127
1, 92288, Note_off_c, 0, 92, 63
1, 92293, Note_off_c, 0, 96, 63
1, 92293, Control_c, 0, 64, 102
1, 92307, Control_c, 0, 64, 107
1, 92322, Control_c, 0, 64, 110
1, 92337, Control_c, 0, 64, 114
1, 92349, Note_off_c, 0, 56, 40
1, 92352, Control_c, 0, 64, 117
1, 92356, Note_on_c, 0, 94, 83
1, 92367, Control_c, 0, 64, 118
1, 92381, Control_c, 0, 64, 121
1, 92383, Note_on_c, 0, 87, 55
1, 92396, Control_c, 0, 64, 125
1, 92404, Note_off_c, 0, 87, 60
1, 92411, Control_c, 0, 64, 127
1, 92429, Note_off_c, 0, 94, 61
1, 92467, Note_on_c, 0, 84, 65
1, 92474, Note_on_c, 0, 87, 69
1, 92474, Note_on_c, 0, 92, 70
1, 92492, Note_off_c, 0, 84, 57
1, 92496, Note_on_c, 0, 56, 38
1, 92497, Note_off_c, 0, 92, 71
1, 92498, Note_off_c, 0, 87, 64
1, 92601, Note_on_c, 0, 78, 64
1, 92607, Note_on_c, 0, 82, 56
1, 92621, Note_off_c, 0, 78, 60
1, 92622, Note_on_c, 0, 87, 45
1, 92636, Note_off_c, 0, 82, 52
1, 92653, Note_off_c, 0, 87, 62
1, 92735, Note_on_c, 0, 89, 64
1, 92738, Note_on_c, 0, 80, 58
1, 92756, Note_off_c, 0, 89, 57
1, 92762, Note_off_c, 0, 80, 55
1, 92866, Note_on_c, 0, 87, 66
1, 92869, Note_on_c, 0, 78, 67
1, 92880, Note_on_c, 0, 82, 57
1, 92902, Note_off_c, 0, 78, 56
1, 92905, Note_off_c, 0, 87, 61
1, 92919, Note_off_c, 0, 82, 64
1, 92925, Note_off_c, 0, 66, 56
1, 92997, Note_off_c, 0, 63, 55
1, 93010, Poly_aftertouch_c, 0, 61, 0
1, 93026, Note_off_c, 0, 56, 42
1, 93027, Note_on_c, 0, 82, 57
1, 93030, Note_on_c, 0, 73, 46
1, 93057, Note_off_c, 0, 73, 54
1, 93105, Note_off_c, 0, 82, 59
1, 93168, Poly_aftertouch_c, 0, 78, 127
1, 93181, Note_on_c, 0, 72, 57
1, 93183, Note_on_c, 0, 80, 56
1, 93205, Note_off_c, 0, 72, 61
1, 93205, Note_off_c, 0, 80, 60
1, 93212, Poly_aftertouch_c, 0, 78, 0
1, 93384, Control_c, 0, 64, 115
1, 93399, Control_c, 0, 64, 94
1, 93409, Note_on_c, 0, 37, 41
1, 93411, Note_on_c, 0, 68, 52
1, 93414, Control_c, 0, 64, 74
1, 93428, Control_c, 0, 64, 0
1, 93477, Note_off_c, 0, 68, 0
1, 93477, Note_on_c, 0, 68, 3
1, 93502, Control_c, 0, 64, 51
1, 93517, Control_c, 0, 64, 67
1, 93532, Control_c, 0, 64, 75
1, 93546, Control_c, 0, 64, 86
1, 93561, Note_on_c, 0, 80, 55
1, 93561, Control_c, 0, 64, 93
1, 93568, Note_off_c, 0, 37, 55
1, 93576, Control_c, 0, 64, 99
1, 93591, Control_c, 0, 64, 104
1, 93601, Note_off_c, 0, 68, 42
1, 93606, Control_c, 0, 64, 108
1, 93620, Control_c, 0, 64, 113
1, 93635, Control_c, 0, 64, 119
1, 93658, Control_c, 0, 64, 127
1, 93669, Note_on_c, 0, 72, 54
1, 93683, Note_off_c, 0, 80, 59
1, 93717, Control_c, 0, 67, 126
1, 93719, Note_off_c, 0, 72, 61
1, 93732, Control_c, 0, 67, 126
1, 93743, Note_on_c, 0, 70, 28
1, 93746, Control_c, 0, 67, 125
1, 93776, Note_off_c, 0, 70, 44
1, 93806, Control_c, 0, 67, 126
1, 93822, Note_on_c, 0, 56, 46
1, 93844, Note_on_c, 0, 70, 54
1, 93850, Control_c, 0, 67, 125
1, 93901, Note_on_c, 0, 80, 62
1, 93913, Note_off_c, 0, 70, 60
1, 93966, Note_on_c, 0, 73, 56
1, 94027, Control_c, 0, 67, 126
1, 94032, Note_off_c, 0, 80, 57
1, 94042, Control_c, 0, 67, 126
1, 94048, Note_off_c, 0, 73, 60
1, 94052, Note_on_c, 0, 72, 58
1, 94070, Note_off_c, 0, 72, 64
1, 94116, Control_c, 0, 67, 127
1, 94127, Note_on_c, 0, 61, 44
1, 94136, Note_on_c, 0, 65, 46
1, 94158, Note_on_c, 0, 72, 60
1, 94160, Control_c, 0, 67, 127
1, 94172, Note_off_c, 0, 65, 65
1, 94229, Note_off_c, 0, 61, 58
1, 94252, Note_on_c, 0, 80, 58
1, 94283, Note_off_c, 0, 72, 56
1, 94331, Note_on_c, 0, 75, 50
1, 94375, Note_off_c, 0, 80, 56
1, 94383, Control_c, 0, 67, 127
1, 94407, Note_on_c, 0, 73, 59
1, 94425, Note_off_c, 0, 75, 54
1, 94509, Control_c, 0, 64, 110
1, 94513, Note_on_c, 0, 63, 33
1, 94514, Note_on_c, 0, 66, 45
1, 94523, Note_off_c, 0, 73, 55
1, 94524, Control_c, 0, 64, 93
1, 94524, Control_c, 0, 67, 126
1, 94539, Control_c, 0, 64, 77
1, 94554, Control_c, 0, 64, 63
1, 94560, Note_on_c, 0, 70, 50
1, 94568, Control_c, 0, 64, 0
1, 94568, Control_c, 0, 67, 126
1, 94583, Note_off_c, 0, 56, 38
1, 94598, Control_c, 0, 67, 125
1, 94613, Control_c, 0, 64, 60
1, 94628, Control_c, 0, 64, 65
1, 94643, Control_c, 0, 64, 68
1, 94643, Control_c, 0, 67, 125
1, 94658, Control_c, 0, 64, 73
1, 94658, Control_c, 0, 67, 124
1, 94669, Note_on_c, 0, 80, 50
1, 94671, Note_off_c, 0, 70, 59
1, 94672, Control_c, 0, 64, 80
1, 94672, Control_c, 0, 67, 124
1, 94687, Control_c, 0, 64, 88
1, 94687, Control_c, 0, 67, 123
1, 94702, Control_c, 0, 64, 96
1, 94702, Control_c, 0, 67, 118
1, 94713, Note_on_c, 0, 73, 58
1, 94717, Control_c, 0, 64, 102
1, 94717, Control_c, 0, 67, 112
1, 94732, Control_c, 0, 64, 106
1, 94732, Control_c, 0, 67, 108
1, 94747, Control_c, 0, 64, 110
1, 94747, Control_c, 0, 67, 104
1, 94759, Note_off_c, 0, 80, 59
1, 94762, Control_c, 0, 64, 113
1, 94762, Control_c, 0, 67, 101
1, 94776, Control_c, 0, 64, 118
1, 94776, Control_c, 0, 67, 97
1, 94791, Control_c, 0, 64, 124
1, 94791, Control_c, 0, 67, 92
1, 94792, Note_off_c, 0, 73, 62
1, 94796, Note_on_c, 0, 72, 54
1, 94806, Control_c, 0, 64, 127
1, 94806, Control_c, 0, 67, 85
1, 94814, Note_off_c, 0, 72, 62
1, 94821, Control_c, 0, 67, 79
1, 94836, Control_c, 0, 67, 73
1, 94850, Control_c, 0, 67, 67
1, 94855, Note_on_c, 0, 56, 40
1, 94865, Control_c, 0, 67, 62
1, 94880, Control_c, 0, 67, 58
1, 94893, Note_on_c, 0, 72, 66
1, 94894, Control_c, 0, 67, 55
1, 94909, Control_c, 0, 67, 54
1, 94926, Note_off_c, 0, 66, 62
1, 94941, Note_on_c, 0, 80, 68
1, 94954, Control_c, 0, 67, 53
1, 94969, Note_off_c, 0, 72, 61
1, 94985, Control_c, 0, 67, 53
1, 94989, Note_off_c, 0, 63, 42
1, 95001, Note_on_c, 0, 75, 66
1, 95014, Control_c, 0, 67, 53
1, 95015, Note_off_c, 0, 56, 47
1, 95040, Note_off_c, 0, 80, 62
1, 95044, Control_c, 0, 67, 54
1, 95059, Control_c, 0, 67, 55
1, 95073, Control_c, 0, 67, 55
1, 95083, Note_off_c, 0, 75, 65
1, 95085, Note_on_c, 0, 73, 60
1, 95088, Control_c, 0, 67, 56
1, 95103, Note_off_c, 0, 73, 62
1, 95103, Control_c, 0, 67, 56
1, 95117, Control_c, 0, 67, 57
1, 95132, Control_c, 0, 67, 57
1, 95155, Control_c, 0, 67, 58
1, 95170, Control_c, 0, 67, 58
1, 95176, Note_on_c, 0, 73, 71
1, 95185, Control_c, 0, 67, 59
1, 95214, Control_c, 0, 67, 59
1, 95236, Note_on_c, 0, 80, 70
1, 95244, Control_c, 0, 67, 60
1, 95300, Note_off_c, 0, 73, 42
1, 95315, Note_on_c, 0, 77, 66
1, 95317, Control_c, 0, 67, 60
1, 95336, Note_off_c, 0, 80, 60
1, 95373, Note_on_c, 0, 75, 72
1, 95377, Control_c, 0, 67, 61
1, 95406, Control_c, 0, 64, 120
1, 95406, Control_c, 0, 67, 62
1, 95412, Note_off_c, 0, 77, 57
1, 95421, Control_c, 0, 64, 100
1, 95430, Note_on_c, 0, 37, 42
1, 95436, Control_c, 0, 64, 82
1, 95451, Control_c, 0, 64, 65
1, 95457, Note_on_c, 0, 73, 63
1, 95465, Control_c, 0, 64, 0
1, 95465, Control_c, 0, 67, 61
1, 95468, Note_off_c, 0, 75, 60
1, 95480, Control_c, 0, 67, 61
1, 95495, Control_c, 0, 64, 28
1, 95495, Control_c, 0, 67, 60
1, 95498, Note_off_c, 0, 37, 64
1, 95510, Control_c, 0, 64, 65
1, 95525, Control_c, 0, 64, 74
1, 95525, Note_on_c, 0, 82, 62
1, 95540, Control_c, 0, 64, 86
1, 95540, Control_c, 0, 67, 59
1, 95555, Control_c, 0, 64, 100
1, 95555, Control_c, 0, 67, 59
1, 95558, Note_off_c, 0, 82, 0
1, 95558, Note_on_c, 0, 82, 35
1, 95558, Note_off_c, 0, 73, 52
1, 95570, Control_c, 0, 64, 115
1, 95570, Control_c, 0, 67, 58
1, 95585, Control_c, 0, 64, 127
1, 95585, Control_c, 0, 67, 57
1, 95594, Note_on_c, 0, 77, 66
1, 95599, Control_c, 0, 67, 57
1, 95614, Control_c, 0, 67, 56
1, 95629, Control_c, 0, 67, 55
1, 95633, Note_off_c, 0, 82, 54
1, 95651, Note_on_c, 0, 76, 59
1, 95668, Note_off_c, 0, 77, 53
1, 95688, Control_c, 0, 67, 55
1, 95703, Control_c, 0, 67, 54
1, 95704, Note_off_c, 0, 76, 66
1, 95707, Note_on_c, 0, 75, 67
1, 95716, Note_on_c, 0, 56, 54
1, 95732, Control_c, 0, 67, 53
1, 95737, Note_off_c, 0, 75, 61
1, 95747, Control_c, 0, 67, 53
1, 95778, Control_c, 0, 67, 52
1, 95781, Note_on_c, 0, 84, 74
1, 95808, Control_c, 0, 67, 52
1, 95822, Control_c, 0, 67, 50
1, 95834, Note_on_c, 0, 78, 75
1, 95837, Control_c, 0, 67, 45
1, 95852, Control_c, 0, 67, 41
1, 95866, Control_c, 0, 67, 37
1, 95874, Note_off_c, 0, 84, 62
1, 95881, Control_c, 0, 67, 34
1, 95904, Control_c, 0, 67, 32
1, 95908, Note_on_c, 0, 77, 73
1, 95918, Control_c, 0, 67, 32
1, 95948, Note_off_c, 0, 78, 61
1, 95963, Control_c, 0, 67, 31
1, 95978, Control_c, 0, 67, 29
1, 95981, Note_on_c, 0, 76, 66
1, 95983, Note_on_c, 0, 65, 53
1, 95993, Control_c, 0, 67, 26
1, 95995, Note_off_c, 0, 77, 58
1, 95996, Note_on_c, 0, 61, 44
1, 96008, Control_c, 0, 67, 23
1, 96022, Control_c, 0, 67, 21
1, 96037, Control_c, 0, 67, 20
1, 96041, Note_off_c, 0, 65, 64
1, 96052, Control_c, 0, 67, 19
1, 96061, Note_on_c, 0, 85, 65
1, 96067, Control_c, 0, 67, 18
1, 96079, Note_off_c, 0, 61, 62
1, 96081, Control_c, 0, 67, 16
1, 96096, Control_c, 0, 67, 13
1, 96111, Control_c, 0, 67, 11
1, 96115, Note_on_c, 0, 79, 64
1, 96126, Control_c, 0, 67, 8
1, 96134, Note_off_c, 0, 76, 59
1, 96141, Control_c, 0, 67, 0
1, 96180, Note_on_c, 0, 78, 72
1, 96182, Note_off_c, 0, 85, 54
1, 96202, Note_off_c, 0, 79, 57
1, 96272, Note_off_c, 0, 78, 60
1, 96280, Note_on_c, 0, 60, 41
1, 96289, Note_on_c, 0, 77, 58
1, 96289, Control_c, 0, 64, 122
1, 96292, Note_on_c, 0, 66, 39
1, 96301, Note_off_c, 0, 56, 34
1, 96304, Control_c, 0, 64, 101
1, 96319, Control_c, 0, 64, 85
1, 96334, Control_c, 0, 64, 68
1, 96348, Control_c, 0, 64, 0
1, 96361, Note_on_c, 0, 86, 60
1, 96386, Note_off_c, 0, 77, 52
1, 96393, Control_c, 0, 64, 50
1, 96408, Control_c, 0, 64, 62
1, 96422, Control_c, 0, 64, 65
1, 96425, Note_on_c, 0, 80, 58
1, 96437, Control_c, 0, 64, 67
1, 96452, Control_c, 0, 64, 71
1, 96462, Note_off_c, 0, 86, 61
1, 96467, Control_c, 0, 64, 76
1, 96482, Control_c, 0, 64, 84
1, 96497, Control_c, 0, 64, 90
1, 96499, Note_on_c, 0, 79, 61
1, 96509, Note_off_c, 0, 80, 60
1, 96512, Control_c, 0, 64, 96
1, 96527, Control_c, 0, 64, 100
1, 96541, Control_c, 0, 64, 103
1, 96556, Control_c, 0, 64, 106
1, 96571, Control_c, 0, 64, 111
1, 96586, Control_c, 0, 64, 120
1, 96593, Note_off_c, 0, 79, 60
1, 96601, Control_c, 0, 64, 127
1, 96607, Note_on_c, 0, 56, 39
1, 96610, Note_on_c, 0, 78, 57
1, 96704, Note_on_c, 0, 87, 53
1, 96751, Note_off_c, 0, 78, 37
1, 96785, Note_on_c, 0, 81, 46
1, 96836, Note_off_c, 0, 87, 31
1, 96853, Note_off_c, 0, 66, 57
1, 96862, Note_off_c, 0, 81, 55
1, 96864, Note_on_c, 0, 80, 57
1, 96909, Note_off_c, 0, 60, 53
1, 96919, Note_off_c, 0, 56, 33
1, 96945, Note_off_c, 0, 80, 59
1, 96976, Note_on_c, 0, 79, 49
1, 96979, Control_c, 0, 67, 8
1, 96994, Control_c, 0, 67, 13
1, 97009, Control_c, 0, 67, 21
1, 97024, Control_c, 0, 67, 33
1, 97039, Control_c, 0, 67, 47
1, 97053, Control_c, 0, 67, 62
1, 97068, Control_c, 0, 67, 77
1, 97083, Control_c, 0, 67, 89
1, 97097, Control_c, 0, 67, 100
1, 97112, Control_c, 0, 67, 109
1, 97126, Note_on_c, 0, 88, 49
1, 97127, Control_c, 0, 67, 116
1, 97142, Control_c, 0, 67, 120
1, 97157, Control_c, 0, 67, 124
1, 97171, Control_c, 0, 67, 127
1, 97252, Note_off_c, 0, 79, 19
1, 97268, Note_off_c, 0, 88, 54
1, 97277, Note_on_c, 0, 82, 47
1, 97367, Note_on_c, 0, 81, 55
1, 97392, Note_off_c, 0, 82, 62
1, 97407, Note_off_c, 0, 81, 64
1, 97710, Note_on_c, 0, 37, 34
1, 97713, Control_c, 0, 64, 116
1, 97714, Note_on_c, 0, 89, 51
1, 97727, Control_c, 0, 64, 97
1, 97735, Note_on_c, 0, 80, 46
1, 97742, Control_c, 0, 64, 81
1, 97757, Control_c, 0, 64, 61
1, 97772, Control_c, 0, 64, 0
1, 97816, Control_c, 0, 64, 47
1, 97831, Control_c, 0, 64, 65
1, 97846, Control_c, 0, 64, 72
1, 97861, Control_c, 0, 64, 82
1, 97864, Note_off_c, 0, 37, 57
1, 97875, Control_c, 0, 64, 90
1, 97890, Control_c, 0, 64, 98
1, 97905, Control_c, 0, 64, 106
1, 97919, Control_c, 0, 64, 113
1, 97934, Control_c, 0, 64, 119
1, 97949, Control_c, 0, 64, 127
1, 97972, Note_off_c, 0, 80, 57
1, 97975, Note_off_c, 0, 89, 65
1, 98371, Note_on_c, 0, 82, 54
1, 98374, Note_on_c, 0, 56, 30
1, 98438, Note_off_c, 0, 82, 62
1, 98470, Note_on_c, 0, 90, 48
1, 98527, Note_on_c, 0, 82, 40
1, 98558, Note_off_c, 0, 90, 37
1, 98562, Note_off_c, 0, 82, 52
1, 98587, Note_on_c, 0, 80, 62
1, 98633, Note_off_c, 0, 80, 59
1, 98652, Note_on_c, 0, 89, 66
1, 98698, Note_on_c, 0, 80, 63
1, 98705, Note_off_c, 0, 89, 62
1, 98759, Note_off_c, 0, 80, 63
1, 98761, Note_on_c, 0, 82, 68
1, 98774, Note_on_c, 0, 65, 36
1, 98781, Note_on_c, 0, 61, 34
1, 98802, Note_off_c, 0, 82, 58
1, 98824, Note_on_c, 0, 90, 61
1, 98837, Note_off_c, 0, 65, 57
1, 98867, Note_on_c, 0, 82, 61
1, 98885, Note_off_c, 0, 90, 63
1, 98938, Note_on_c, 0, 77, 68
1, 98938, Note_off_c, 0, 82, 63
1, 98995, Note_off_c, 0, 77, 57
1, 99004, Note_on_c, 0, 85, 61
1, 99034, Note_on_c, 0, 77, 49
1, 99088, Note_off_c, 0, 85, 64
1, 99090, Control_c, 0, 64, 116
1, 99105, Control_c, 0, 64, 94
1, 99108, Note_on_c, 0, 80, 76
1, 99119, Note_off_c, 0, 77, 61
1, 99120, Control_c, 0, 64, 76
1, 99122, Note_on_c, 0, 66, 44
1, 99135, Control_c, 0, 64, 54
1, 99149, Note_on_c, 0, 63, 33
1, 99150, Control_c, 0, 64, 0
1, 99162, Note_on_c, 0, 89, 74
1, 99176, Note_off_c, 0, 80, 63
1, 99178, Note_off_c, 0, 66, 0
1, 99178, Note_on_c, 0, 66, 10
1, 99194, Control_c, 0, 64, 59
1, 99209, Control_c, 0, 64, 69
1, 99218, Note_off_c, 0, 89, 65
1, 99224, Control_c, 0, 64, 77
1, 99230, Note_on_c, 0, 80, 59
1, 99239, Control_c, 0, 64, 89
1, 99254, Control_c, 0, 64, 99
1, 99269, Control_c, 0, 64, 107
1, 99281, Note_on_c, 0, 78, 77
1, 99283, Control_c, 0, 64, 112
1, 99296, Note_off_c, 0, 80, 58
1, 99298, Control_c, 0, 64, 117
1, 99300, Note_off_c, 0, 56, 38
1, 99313, Control_c, 0, 64, 118
1, 99328, Control_c, 0, 64, 119
1, 99335, Note_off_c, 0, 78, 61
1, 99343, Note_on_c, 0, 87, 61
1, 99343, Control_c, 0, 64, 119
1, 99357, Control_c, 0, 64, 120
1, 99367, Note_on_c, 0, 88, 53
1, 99372, Control_c, 0, 64, 123
1, 99387, Control_c, 0, 64, 127
1, 99388, Note_off_c, 0, 88, 56
1, 99391, Note_on_c, 0, 78, 75
1, 99417, Control_c, 0, 64, 126
1, 99418, Note_off_c, 0, 87, 62
1, 99431, Control_c, 0, 64, 120
1, 99446, Control_c, 0, 64, 106
1, 99455, Note_off_c, 0, 78, 63
1, 99461, Control_c, 0, 64, 92
1, 99463, Note_on_c, 0, 80, 73
1, 99476, Control_c, 0, 64, 75
1, 99490, Control_c, 0, 64, 0
1, 99505, Note_off_c, 0, 80, 58
1, 99510, Note_on_c, 0, 89, 67
1, 99536, Note_off_c, 0, 89, 68
1, 99543, Poly_aftertouch_c, 0, 56, 127
1, 99550, Control_c, 0, 64, 32
1, 99558, Note_on_c, 0, 80, 55
1, 99564, Control_c, 0, 64, 64
1, 99579, Control_c, 0, 64, 73
1, 99594, Control_c, 0, 64, 82
1, 99609, Control_c, 0, 64, 90
1, 99615, Note_on_c, 0, 75, 72
1, 99616, Note_off_c, 0, 80, 63
1, 99624, Control_c, 0, 64, 95
1, 99646, Control_c, 0, 64, 99
1, 99661, Control_c, 0, 64, 104
1, 99676, Control_c, 0, 64, 110
1, 99684, Note_off_c, 0, 75, 63
1, 99690, Control_c, 0, 64, 115
1, 99699, Note_on_c, 0, 84, 65
1, 99705, Control_c, 0, 64, 120
1, 99720, Control_c, 0, 64, 125
1, 99735, Control_c, 0, 64, 127
1, 99741, Note_on_c, 0, 75, 57
1, 99754, Note_off_c, 0, 84, 62
1, 99770, Note_off_c, 0, 66, 54
1, 99807, Note_off_c, 0, 75, 64
1, 99814, Note_on_c, 0, 78, 71
1, 99832, Note_off_c, 0, 63, 51
1, 99847, Note_off_c, 0, 61, 43
1, 99865, Note_off_c, 0, 78, 61
1, 99880, Poly_aftertouch_c, 0, 56, 0
1, 99890, Note_on_c, 0, 87, 58
1, 99925, Note_off_c, 0, 87, 63
1, 99950, Note_on_c, 0, 78, 65
1, 99987, Note_off_c, 0, 78, 58
1, 99996, Note_on_c, 0, 77, 62
1, 100053, Note_off_c, 0, 77, 59
1, 100062, Note_on_c, 0, 85, 70
1, 100129, Note_on_c, 0, 77, 56
1, 100140, Note_off_c, 0, 85, 57
1, 100166, Control_c, 0, 64, 107
1, 100180, Control_c, 0, 64, 89
1, 100188, Note_off_c, 0, 77, 61
1, 100195, Control_c, 0, 64, 71
1, 100198, Note_on_c, 0, 78, 63
1, 100199, Note_on_c, 0, 37, 38
1, 100210, Control_c, 0, 64, 0
1, 100228, Note_off_c, 0, 78, 52
1, 100254, Control_c, 0, 64, 32
1, 100256, Note_on_c, 0, 87, 59
1, 100269, Control_c, 0, 64, 63
1, 100274, Note_off_c, 0, 37, 65
1, 100283, Note_off_c, 0, 87, 60
1, 100284, Control_c, 0, 64, 70
1, 100299, Control_c, 0, 64, 79
1, 100304, Note_on_c, 0, 78, 76
1, 100313, Control_c, 0, 64, 90
1, 100328, Control_c, 0, 64, 99
1, 100343, Control_c, 0, 64, 108
1, 100358, Control_c, 0, 64, 112
1, 100366, Note_off_c, 0, 78, 63
1, 100373, Control_c, 0, 64, 114
1, 100375, Note_on_c, 0, 73, 61
1, 100395, Control_c, 0, 64, 115
1, 100410, Control_c, 0, 64, 116
1, 100414, Note_off_c, 0, 73, 64
1, 100432, Note_on_c, 0, 82, 74
1, 100439, Control_c, 0, 64, 116
1, 100454, Control_c, 0, 64, 117
1, 100469, Control_c, 0, 64, 118
1, 100488, Note_on_c, 0, 73, 70
1, 100506, Note_off_c, 0, 82, 60
1, 100528, Control_c, 0, 64, 119
1, 100539, Note_off_c, 0, 73, 62
1, 100543, Note_on_c, 0, 77, 73
1, 100543, Control_c, 0, 64, 119
1, 100569, Note_on_c, 0, 56, 40
1, 100610, Note_off_c, 0, 77, 60
1, 100622, Note_on_c, 0, 85, 58
1, 100660, Note_on_c, 0, 77, 56
1, 100673, Note_off_c, 0, 85, 55
1, 100727, Note_on_c, 0, 75, 66
1, 100728, Note_off_c, 0, 77, 58
1, 100762, Note_off_c, 0, 75, 62
1, 100777, Note_on_c, 0, 84, 72
1, 100829, Note_on_c, 0, 75, 66
1, 100833, Note_off_c, 0, 84, 61
1, 100879, Note_off_c, 0, 75, 64
1, 100888, Note_on_c, 0, 77, 68
1, 100891, Note_on_c, 0, 65, 43
1, 100907, Note_on_c, 0, 61, 41
1, 100921, Note_off_c, 0, 77, 59
1, 100941, Note_on_c, 0, 85, 70
1, 100944, Note_off_c, 0, 65, 62
1, 101002, Note_off_c, 0, 85, 64
1, 101006, Note_on_c, 0, 77, 59
1, 101046, Note_off_c, 0, 77, 57
1, 101048, Control_c, 0, 64, 120
1, 101057, Note_on_c, 0, 72, 74
1, 101076, Note_off_c, 0, 61, 0
1, 101092, Control_c, 0, 64, 121
1, 101103, Note_off_c, 0, 72, 62
1, 101107, Control_c, 0, 64, 122
1, 101114, Poly_aftertouch_c, 0, 61, 127
1, 101121, Note_on_c, 0, 80, 70
1, 101122, Control_c, 0, 64, 123
1, 101144, Control_c, 0, 64, 123
1, 101159, Control_c, 0, 64, 126
1, 101174, Control_c, 0, 64, 127
1, 101178, Note_on_c, 0, 72, 63
1, 101204, Control_c, 0, 64, 127
1, 101210, Note_off_c, 0, 80, 62
1, 101218, Control_c, 0, 64, 117
1, 101232, Note_on_c, 0, 75, 76
1, 101233, Control_c, 0, 64, 102
1, 101236, Note_off_c, 0, 72, 64
1, 101241, Note_on_c, 0, 66, 47
1, 101243, Note_on_c, 0, 63, 43
1, 101248, Control_c, 0, 64, 85
1, 101262, Control_c, 0, 64, 68
1, 101277, Control_c, 0, 64, 0
1, 101282, Note_on_c, 0, 84, 74
1, 101290, Note_off_c, 0, 75, 64
1, 101322, Control_c, 0, 64, 36
1, 101336, Control_c, 0, 64, 63
1, 101344, Note_off_c, 0, 84, 62
1, 101351, Control_c, 0, 64, 69
1, 101355, Note_on_c, 0, 75, 67
1, 101367, Control_c, 0, 64, 76
1, 101382, Control_c, 0, 64, 86
1, 101391, Note_off_c, 0, 56, 41
1, 101397, Control_c, 0, 64, 98
1, 101411, Note_on_c, 0, 73, 61
1, 101412, Control_c, 0, 64, 108
1, 101427, Control_c, 0, 64, 117
1, 101433, Note_off_c, 0, 75, 58
1, 101441, Control_c, 0, 64, 121
1, 101452, Note_off_c, 0, 73, 60
1, 101455, Note_on_c, 0, 82, 75
1, 101456, Control_c, 0, 64, 123
1, 101471, Control_c, 0, 64, 123
1, 101485, Control_c, 0, 64, 125
1, 101500, Control_c, 0, 64, 127
1, 101526, Note_on_c, 0, 73, 72
1, 101539, Note_off_c, 0, 82, 60
1, 101574, Control_c, 0, 64, 115
1, 101584, Note_off_c, 0, 73, 62
1, 101589, Control_c, 0, 64, 97
1, 101599, Note_on_c, 0, 75, 66
1, 101604, Control_c, 0, 64, 81
1, 101619, Control_c, 0, 64, 64
1, 101628, Note_on_c, 0, 56, 12
1, 101633, Control_c, 0, 64, 0
1, 101634, Note_off_c, 0, 75, 49
1, 101645, Note_on_c, 0, 84, 66
1, 101666, Note_off_c, 0, 84, 62
1, 101678, Control_c, 0, 64, 20
1, 101692, Control_c, 0, 64, 62
1, 101702, Note_on_c, 0, 75, 70
1, 101707, Control_c, 0, 64, 69
1, 101722, Control_c, 0, 64, 78
1, 101737, Control_c, 0, 64, 89
1, 101750, Note_off_c, 0, 75, 61
1, 101752, Control_c, 0, 64, 96
1, 101764, Note_on_c, 0, 70, 63
1, 101767, Control_c, 0, 64, 101
1, 101782, Control_c, 0, 64, 105
1, 101797, Control_c, 0, 64, 108
1, 101808, Note_off_c, 0, 70, 58
1, 101812, Control_c, 0, 64, 110
1, 101823, Note_on_c, 0, 78, 64
1, 101826, Control_c, 0, 64, 111
1, 101841, Control_c, 0, 64, 112
1, 101856, Control_c, 0, 64, 113
1, 101865, Note_off_c, 0, 66, 65
1, 101871, Control_c, 0, 64, 114
1, 101885, Note_on_c, 0, 70, 57
1, 101892, Control_c, 0, 64, 115
1, 101899, Note_off_c, 0, 78, 60
1, 101942, Note_off_c, 0, 70, 62
1, 101957, Note_on_c, 0, 73, 60
1, 101961, Note_off_c, 0, 63, 63
1, 101985, Poly_aftertouch_c, 0, 61, 0
1, 102008, Note_off_c, 0, 73, 58
1, 102009, Note_off_c, 0, 56, 38
1, 102036, Note_on_c, 0, 82, 63
1, 102101, Note_on_c, 0, 73, 46
1, 102101, Note_off_c, 0, 82, 60
1, 102154, Note_off_c, 0, 73, 57
1, 102160, Note_on_c, 0, 72, 61
1, 102226, Note_off_c, 0, 72, 61
1, 102245, Note_on_c, 0, 80, 59
1, 102280, Note_off_c, 0, 80, 62
1, 102330, Note_on_c, 0, 72, 48
1, 102363, Note_off_c, 0, 72, 52
1, 102382, Control_c, 0, 64, 114
1, 102397, Control_c, 0, 64, 109
1, 102412, Control_c, 0, 64, 99
1, 102427, Control_c, 0, 64, 84
1, 102442, Control_c, 0, 64, 66
1, 102444, Note_on_c, 0, 68, 51
1, 102449, Note_on_c, 0, 37, 28
1, 102456, Control_c, 0, 64, 0
1, 102519, Note_off_c, 0, 68, 49
1, 102530, Control_c, 0, 64, 56
1, 102543, Note_on_c, 0, 77, 62
1, 102545, Control_c, 0, 64, 65
1, 102560, Control_c, 0, 64, 70
1, 102575, Control_c, 0, 64, 79
1, 102582, Note_off_c, 0, 77, 57
1, 102590, Control_c, 0, 64, 88
1, 102599, Note_on_c, 0, 68, 65
1, 102602, Note_off_c, 0, 37, 56
1, 102605, Control_c, 0, 64, 97
1, 102620, Control_c, 0, 64, 103
1, 102641, Control_c, 0, 64, 109
1, 102652, Note_off_c, 0, 68, 63
1, 102656, Control_c, 0, 64, 111
1, 102671, Control_c, 0, 64, 113
1, 102686, Control_c, 0, 64, 114
1, 102687, Note_on_c, 0, 69, 51
1, 102701, Control_c, 0, 64, 115
1, 102707, Note_off_c, 0, 69, 58
1, 102715, Control_c, 0, 64, 116
1, 102718, Note_on_c, 0, 78, 71
1, 102730, Control_c, 0, 64, 118
1, 102745, Control_c, 0, 64, 120
1, 102760, Control_c, 0, 64, 121
1, 102775, Control_c, 0, 64, 122
1, 102775, Control_c, 0, 67, 127
1, 102779, Note_on_c, 0, 69, 68
1, 102780, Note_off_c, 0, 78, 61
1, 102789, Control_c, 0, 64, 124
1, 102789, Control_c, 0, 67, 124
1, 102804, Control_c, 0, 64, 127
1, 102804, Control_c, 0, 67, 122
1, 102819, Control_c, 0, 64, 127
1, 102819, Control_c, 0, 67, 121
1, 102831, Note_off_c, 0, 69, 63
1, 102834, Control_c, 0, 67, 119
1, 102835, Note_on_c, 0, 70, 71
1, 102849, Control_c, 0, 67, 118
1, 102864, Control_c, 0, 67, 116
1, 102864, Note_on_c, 0, 56, 48
1, 102879, Control_c, 0, 67, 114
1, 102888, Note_on_c, 0, 79, 76
1, 102889, Note_off_c, 0, 70, 62
1, 102894, Control_c, 0, 67, 113
1, 102909, Control_c, 0, 67, 111
1, 102924, Control_c, 0, 67, 110
1, 102938, Control_c, 0, 67, 109
1, 102949, Note_on_c, 0, 70, 65
1, 102954, Control_c, 0, 67, 108
1, 102958, Note_off_c, 0, 79, 63
1, 102969, Control_c, 0, 67, 106
1, 102984, Control_c, 0, 67, 106
1, 102996, Note_on_c, 0, 71, 75
1, 102999, Control_c, 0, 67, 105
1, 103001, Note_off_c, 0, 70, 61
1, 103028, Control_c, 0, 67, 105
1, 103034, Note_off_c, 0, 71, 58
1, 103057, Note_on_c, 0, 80, 73
1, 103115, Note_off_c, 0, 80, 56
1, 103118, Note_on_c, 0, 71, 72
1, 103132, Control_c, 0, 67, 104
1, 103160, Note_off_c, 0, 71, 58
1, 103161, Note_on_c, 0, 72, 75
1, 103162, Control_c, 0, 67, 105
1, 103177, Control_c, 0, 67, 105
1, 103189, Note_on_c, 0, 65, 43
1, 103192, Control_c, 0, 67, 106
1, 103193, Note_off_c, 0, 72, 60
1, 103201, Note_on_c, 0, 61, 44
1, 103206, Control_c, 0, 67, 106
1, 103218, Note_on_c, 0, 81, 67
1, 103221, Control_c, 0, 67, 107
1, 103222, Note_off_c, 0, 65, 57
1, 103236, Control_c, 0, 67, 107
1, 103250, Control_c, 0, 67, 108
1, 103263, Note_off_c, 0, 61, 57
1, 103264, Note_off_c, 0, 81, 54
1, 103265, Control_c, 0, 67, 108
1, 103275, Note_on_c, 0, 72, 74
1, 103295, Control_c, 0, 67, 109
1, 103310, Control_c, 0, 67, 109
1, 103320, Note_off_c, 0, 72, 65
1, 103325, Control_c, 0, 67, 110
1, 103330, Note_on_c, 0, 73, 69
1, 103359, Note_off_c, 0, 73, 62
1, 103371, Note_on_c, 0, 82, 72
1, 103446, Note_on_c, 0, 73, 62
1, 103450, Note_off_c, 0, 82, 61
1, 103484, Note_off_c, 0, 73, 62
1, 103495, Control_c, 0, 64, 116
1, 103498, Note_on_c, 0, 66, 42
1, 103500, Note_on_c, 0, 74, 68
1, 103508, Note_on_c, 0, 60, 42
1, 103510, Control_c, 0, 64, 92
1, 103525, Control_c, 0, 64, 72
1, 103525, Control_c, 0, 67, 109
1, 103529, Note_off_c, 0, 74, 60
1, 103539, Control_c, 0, 64, 0
1, 103539, Control_c, 0, 67, 109
1, 103552, Note_on_c, 0, 83, 71
1, 103554, Control_c, 0, 67, 108
1, 103569, Control_c, 0, 67, 108
1, 103584, Control_c, 0, 67, 107
1, 103604, Note_off_c, 0, 56, 56
1, 103608, Note_on_c, 0, 74, 62
1, 103612, Note_off_c, 0, 83, 60
1, 103613, Control_c, 0, 64, 61
1, 103628, Control_c, 0, 64, 66
1, 103643, Control_c, 0, 64, 70
1, 103657, Control_c, 0, 64, 78
1, 103666, Note_off_c, 0, 74, 64
1, 103667, Note_on_c, 0, 75, 71
1, 103672, Control_c, 0, 64, 86
1, 103687, Control_c, 0, 64, 94
1, 103687, Control_c, 0, 67, 108
1, 103702, Control_c, 0, 64, 101
1, 103702, Control_c, 0, 67, 108
1, 103717, Control_c, 0, 64, 105
1, 103717, Control_c, 0, 67, 109
1, 103723, Note_on_c, 0, 84, 71
1, 103725, Note_off_c, 0, 75, 64
1, 103731, Control_c, 0, 64, 107
1, 103746, Control_c, 0, 64, 108
1, 103746, Control_c, 0, 67, 109
1, 103762, Control_c, 0, 64, 110
1, 103762, Control_c, 0, 67, 110
1, 103777, Control_c, 0, 64, 111
1, 103777, Control_c, 0, 67, 111
1, 103779, Note_on_c, 0, 75, 58
1, 103779, Note_off_c, 0, 84, 62
1, 103792, Control_c, 0, 64, 113
1, 103807, Control_c, 0, 64, 115
1, 103807, Control_c, 0, 67, 111
1, 103822, Control_c, 0, 64, 118
1, 103835, Note_on_c, 0, 76, 71
1, 103836, Note_off_c, 0, 75, 65
1, 103836, Control_c, 0, 64, 120
1, 103836, Control_c, 0, 67, 112
1, 103851, Control_c, 0, 64, 123
1, 103851, Control_c, 0, 67, 113
1, 103866, Note_off_c, 0, 76, 63
1, 103866, Control_c, 0, 64, 127
1, 103866, Control_c, 0, 67, 113
1, 103880, Control_c, 0, 67, 114
1, 103892, Note_on_c, 0, 56, 37
1, 103894, Note_on_c, 0, 85, 64
1, 103895, Control_c, 0, 67, 114
1, 103930, Note_off_c, 0, 85, 57
1, 103951, Note_on_c, 0, 76, 73
1, 103985, Control_c, 0, 67, 115
1, 103993, Note_off_c, 0, 76, 63
1, 104000, Control_c, 0, 67, 116
1, 104003, Note_on_c, 0, 77, 73
1, 104015, Control_c, 0, 67, 118
1, 104029, Control_c, 0, 67, 120
1, 104033, Note_off_c, 0, 77, 56
1, 104044, Control_c, 0, 67, 124
1, 104059, Control_c, 0, 67, 127
1, 104062, Note_on_c, 0, 86, 57
1, 104095, Note_off_c, 0, 86, 65
1, 104106, Note_on_c, 0, 77, 73
1, 104124, Note_off_c, 0, 66, 64
1, 104167, Note_off_c, 0, 77, 63
1, 104176, Note_on_c, 0, 78, 71
1, 104195, Note_off_c, 0, 78, 63
1, 104211, Note_on_c, 0, 87, 74
1, 104213, Note_off_c, 0, 60, 58
1, 104241, Note_off_c, 0, 56, 40
1, 104276, Note_on_c, 0, 78, 66
1, 104291, Note_off_c, 0, 87, 62
1, 104320, Note_off_c, 0, 78, 61
1, 104332, Note_on_c, 0, 79, 67
1, 104359, Note_off_c, 0, 79, 63
1, 104386, Note_on_c, 0, 88, 74
1, 104434, Note_on_c, 0, 79, 72
1, 104458, Note_off_c, 0, 88, 53
1, 104480, Control_c, 0, 64, 106
1, 104495, Control_c, 0, 64, 88
1, 104497, Note_off_c, 0, 79, 60
1, 104500, Note_on_c, 0, 80, 73
1, 104509, Control_c, 0, 64, 70
1, 104522, Note_on_c, 0, 37, 35
1, 104524, Control_c, 0, 64, 0
1, 104556, Note_off_c, 0, 80, 62
1, 104563, Note_on_c, 0, 89, 71
1, 104570, Control_c, 0, 64, 63
1, 104584, Control_c, 0, 64, 72
1, 104593, Note_off_c, 0, 37, 63
1, 104599, Control_c, 0, 64, 83
1, 104611, Note_on_c, 0, 80, 73
1, 104614, Control_c, 0, 64, 96
1, 104620, Note_off_c, 0, 89, 65
1, 104629, Control_c, 0, 64, 107
1, 104644, Control_c, 0, 64, 117
1, 104658, Control_c, 0, 64, 122
1, 104666, Note_on_c, 0, 81, 73
1, 104666, Note_off_c, 0, 80, 65
1, 104673, Control_c, 0, 64, 127
1, 104700, Note_off_c, 0, 81, 59
1, 104719, Note_on_c, 0, 90, 75
1, 104775, Note_on_c, 0, 81, 76
1, 104787, Note_off_c, 0, 90, 61
1, 104834, Note_off_c, 0, 81, 61
1, 104838, Note_on_c, 0, 82, 70
1, 104848, Note_on_c, 0, 56, 47
1, 104894, Note_on_c, 0, 91, 73
1, 104894, Note_off_c, 0, 82, 63
1, 104952, Note_on_c, 0, 82, 76
1, 104956, Note_off_c, 0, 91, 60
1, 105002, Note_off_c, 0, 82, 63
1, 105006, Note_on_c, 0, 83, 69
1, 105033, Note_off_c, 0, 83, 61
1, 105064, Note_on_c, 0, 92, 67
1, 105100, Note_off_c, 0, 92, 60
1, 105126, Note_on_c, 0, 83, 71
1, 105162, Note_off_c, 0, 83, 57
1, 105165, Note_on_c, 0, 65, 47
1, 105168, Note_on_c, 0, 84, 74
1, 105177, Note_on_c, 0, 61, 50
1, 105186, Note_off_c, 0, 65, 63
1, 105216, Note_off_c, 0, 61, 62
1, 105222, Note_off_c, 0, 84, 63
1, 105241, Note_on_c, 0, 93, 48
1, 105264, Note_off_c, 0, 93, 58
1, 105274, Note_on_c, 0, 84, 62
1, 105336, Note_off_c, 0, 84, 66
1, 105344, Note_on_c, 0, 85, 67
1, 105379, Note_off_c, 0, 85, 60
1, 105399, Note_on_c, 0, 94, 67
1, 105463, Note_on_c, 0, 85, 55
1, 105472, Note_off_c, 0, 94, 61
1, 105492, Note_on_c, 0, 66, 39
1, 105494, Note_off_c, 0, 85, 68
1, 105496, Control_c, 0, 64, 110
1, 105511, Note_on_c, 0, 60, 33
1, 105511, Control_c, 0, 64, 90
1, 105517, Note_on_c, 0, 86, 66
1, 105526, Control_c, 0, 64, 74
1, 105541, Control_c, 0, 64, 41
1, 105549, Note_off_c, 0, 86, 58
1, 105556, Control_c, 0, 64, 0
1, 105577, Note_on_c, 0, 95, 65
1, 105584, Note_off_c, 0, 56, 55
1, 105600, Control_c, 0, 64, 35
1, 105615, Control_c, 0, 64, 61
1, 105635, Note_on_c, 0, 86, 62
1, 105636, Note_off_c, 0, 95, 63
1, 105637, Control_c, 0, 64, 66
1, 105651, Control_c, 0, 64, 71
1, 105666, Control_c, 0, 64, 79
1, 105681, Control_c, 0, 64, 88
1, 105691, Note_off_c, 0, 86, 61
1, 105696, Control_c, 0, 64, 95
1, 105698, Note_on_c, 0, 87, 69
1, 105711, Control_c, 0, 64, 103
1, 105726, Control_c, 0, 64, 107
1, 105732, Note_off_c, 0, 87, 56
1, 105741, Control_c, 0, 64, 109
1, 105744, Note_on_c, 0, 96, 74
1, 105755, Control_c, 0, 64, 111
1, 105770, Control_c, 0, 64, 112
1, 105785, Control_c, 0, 64, 114
1, 105797, Note_off_c, 0, 96, 62
1, 105800, Control_c, 0, 64, 117
1, 105808, Note_on_c, 0, 87, 65
1, 105815, Control_c, 0, 64, 121
1, 105830, Control_c, 0, 64, 123
1, 105845, Control_c, 0, 64, 125
1, 105850, Note_off_c, 0, 87, 60
1, 105856, Note_on_c, 0, 88, 67
1, 105859, Control_c, 0, 64, 126
1, 105875, Control_c, 0, 64, 127
1, 105875, Note_on_c, 0, 56, 35
1, 105887, Note_off_c, 0, 88, 58
1, 105916, Note_on_c, 0, 97, 63
1, 105943, Note_off_c, 0, 97, 66
1, 105982, Note_on_c, 0, 88, 66
1, 106017, Note_off_c, 0, 88, 61
1, 106037, Note_on_c, 0, 89, 65
1, 106076, Note_off_c, 0, 89, 56
1, 106098, Note_on_c, 0, 98, 58
1, 106142, Note_off_c, 0, 98, 62
1, 106150, Note_on_c, 0, 89, 65
1, 106173, Note_off_c, 0, 66, 46
1, 106211, Note_off_c, 0, 89, 65
1, 106222, Note_on_c, 0, 90, 61
1, 106232, Note_off_c, 0, 60, 60
1, 106254, Note_off_c, 0, 90, 64
1, 106259, Note_on_c, 0, 99, 75
1, 106273, Note_off_c, 0, 56, 41
1, 106334, Note_off_c, 0, 99, 67
1, 106341, Note_on_c, 0, 90, 66
1, 106383, Note_off_c, 0, 90, 61
1, 106402, Note_on_c, 0, 91, 58
1, 106440, Note_off_c, 0, 91, 54
1, 106467, Note_on_c, 0, 100, 66
1, 106554, Note_off_c, 0, 100, 59
1, 106559, Note_on_c, 0, 91, 50
1, 106584, Note_off_c, 0, 91, 52
1, 106781, Note_on_c, 0, 37, 27
1, 106787, Control_c, 0, 64, 118
1, 106801, Control_c, 0, 64, 99
1, 106816, Control_c, 0, 64, 83
1, 106831, Control_c, 0, 64, 66
1, 106846, Control_c, 0, 64, 0
1, 106855, Note_on_c, 0, 92, 52
1, 106890, Control_c, 0, 64, 61
1, 106905, Control_c, 0, 64, 69
1, 106920, Control_c, 0, 64, 76
1, 106935, Control_c, 0, 64, 87
1, 106944, Note_off_c, 0, 37, 57
1, 106951, Control_c, 0, 64, 96
1, 106966, Control_c, 0, 64, 103
1, 106980, Control_c, 0, 64, 109
1, 106995, Control_c, 0, 64, 112
1, 106995, Note_off_c, 0, 92, 60
1, 107010, Control_c, 0, 64, 115
1, 107025, Control_c, 0, 64, 115
1, 107027, Note_on_c, 0, 101, 55
1, 107040, Control_c, 0, 64, 116
1, 107069, Control_c, 0, 64, 117
1, 107084, Control_c, 0, 64, 117
1, 107090, Note_on_c, 0, 100, 61
1, 107101, Note_off_c, 0, 101, 50
1, 107165, Note_on_c, 0, 99, 66
1, 107167, Note_off_c, 0, 100, 61
1, 107213, Note_on_c, 0, 97, 63
1, 107225, Note_off_c, 0, 99, 67
1, 107239, Control_c, 0, 64, 118
1, 107254, Control_c, 0, 64, 118
1, 107264, Note_off_c, 0, 97, 64
1, 107269, Control_c, 0, 64, 119
1, 107270, Note_on_c, 0, 96, 64
1, 107272, Note_on_c, 0, 56, 27
1, 107284, Control_c, 0, 64, 119
1, 107312, Note_off_c, 0, 96, 56
1, 107313, Control_c, 0, 64, 120
1, 107328, Control_c, 0, 64, 124
1, 107338, Note_on_c, 0, 94, 72
1, 107343, Control_c, 0, 64, 127
1, 107386, Note_on_c, 0, 92, 62
1, 107398, Note_off_c, 0, 94, 64
1, 107417, Note_off_c, 0, 92, 65
1, 107433, Note_on_c, 0, 90, 73
1, 107482, Note_on_c, 0, 89, 63
1, 107484, Note_off_c, 0, 90, 63
1, 107526, Note_off_c, 0, 89, 63
1, 107536, Note_on_c, 0, 88, 71
1, 107579, Note_off_c, 0, 88, 50
1, 107592, Note_on_c, 0, 87, 76
1, 107648, Note_off_c, 0, 87, 65
1, 107657, Note_on_c, 0, 85, 68
1, 107706, Note_off_c, 0, 85, 63
1, 107714, Note_on_c, 0, 84, 47
1, 107737, Note_off_c, 0, 84, 60
1, 107747, Note_on_c, 0, 82, 72
1, 107757, Note_on_c, 0, 61, 37
1, 107806, Note_on_c, 0, 80, 65
1, 107809, Note_off_c, 0, 82, 60
1, 107820, Note_on_c, 0, 65, 23
1, 107841, Note_off_c, 0, 80, 59
1, 107848, Note_on_c, 0, 78, 69
1, 107905, Note_off_c, 0, 78, 60
1, 107914, Note_on_c, 0, 77, 53
1, 107917, Note_off_c, 0, 65, 57
1, 107948, Note_off_c, 0, 77, 64
1, 107949, Note_off_c, 0, 61, 59
1, 107973, Note_on_c, 0, 76, 52
1, 107995, Note_off_c, 0, 76, 61
1, 108024, Note_on_c, 0, 75, 59
1, 108075, Note_on_c, 0, 73, 64
1, 108089, Note_off_c, 0, 75, 65
1, 108102, Note_off_c, 0, 73, 66
1, 108129, Note_on_c, 0, 72, 63
1, 108158, Note_off_c, 0, 72, 68
1, 108285, Note_on_c, 0, 60, 35
1, 108291, Note_on_c, 0, 66, 34
1, 108298, Control_c, 0, 64, 106
1, 108306, Note_on_c, 0, 69, 57
1, 108313, Control_c, 0, 64, 90
1, 108328, Control_c, 0, 64, 73
1, 108343, Control_c, 0, 64, 44
1, 108358, Control_c, 0, 64, 0
1, 108409, Note_off_c, 0, 56, 38
1, 108457, Note_off_c, 0, 69, 63
1, 108461, Control_c, 0, 64, 48
1, 108476, Control_c, 0, 64, 62
1, 108483, Note_on_c, 0, 71, 48
1, 108491, Control_c, 0, 64, 66
1, 108506, Control_c, 0, 64, 69
1, 108508, Note_off_c, 0, 71, 55
1, 108520, Control_c, 0, 64, 74
1, 108535, Control_c, 0, 64, 80
1, 108536, Note_on_c, 0, 69, 52
1, 108551, Control_c, 0, 64, 84
1, 108565, Note_off_c, 0, 69, 65
1, 108566, Control_c, 0, 64, 88
1, 108581, Control_c, 0, 64, 89
1, 108596, Control_c, 0, 64, 90
1, 108601, Note_on_c, 0, 71, 48
1, 108611, Control_c, 0, 64, 92
1, 108630, Note_off_c, 0, 71, 58
1, 108632, Control_c, 0, 64, 93
1, 108647, Control_c, 0, 64, 94
1, 108656, Note_on_c, 0, 69, 62
1, 108662, Control_c, 0, 64, 95
1, 108675, Note_off_c, 0, 69, 63
1, 108677, Control_c, 0, 64, 96
1, 108692, Control_c, 0, 64, 98
1, 108706, Note_on_c, 0, 71, 59
1, 108707, Control_c, 0, 64, 99
1, 108721, Control_c, 0, 64, 99
1, 108733, Note_off_c, 0, 71, 52
1, 108751, Note_on_c, 0, 69, 62
1, 108766, Control_c, 0, 64, 100
1, 108784, Note_off_c, 0, 69, 66
1, 108807, Note_on_c, 0, 71, 49
1, 108826, Note_off_c, 0, 71, 58
1, 108854, Note_on_c, 0, 69, 60
1, 108886, Note_off_c, 0, 69, 67
1, 108889, Note_on_c, 0, 71, 72
1, 108923, Note_off_c, 0, 71, 51
1, 108961, Note_on_c, 0, 69, 58
1, 108977, Note_off_c, 0, 69, 66
1, 108987, Note_on_c, 0, 56, 31
1, 108999, Note_on_c, 0, 71, 60
1, 109016, Note_off_c, 0, 71, 60
1, 109045, Note_on_c, 0, 69, 64
1, 109088, Note_on_c, 0, 71, 65
1, 109091, Note_off_c, 0, 69, 63
1, 109134, Note_off_c, 0, 71, 58
1, 109142, Note_on_c, 0, 69, 50
1, 109188, Note_off_c, 0, 69, 66
1, 109192, Note_on_c, 0, 71, 54
1, 109218, Note_off_c, 0, 71, 54
1, 109243, Note_on_c, 0, 69, 56
1, 109278, Note_off_c, 0, 69, 63
1, 109291, Note_on_c, 0, 71, 56
1, 109310, Note_off_c, 0, 71, 61
1, 109334, Note_on_c, 0, 69, 52
1, 109371, Note_off_c, 0, 69, 66
1, 109387, Note_on_c, 0, 71, 64
1, 109396, Control_c, 0, 64, 99
1, 109410, Note_off_c, 0, 71, 57
1, 109411, Control_c, 0, 64, 95
1, 109425, Control_c, 0, 64, 87
1, 109437, Note_on_c, 0, 69, 68
1, 109440, Control_c, 0, 64, 72
1, 109455, Control_c, 0, 64, 39
1, 109470, Control_c, 0, 64, 0
1, 109521, Note_off_c, 0, 69, 62
1, 109533, Note_on_c, 0, 68, 58
1, 109544, Control_c, 0, 64, 54
1, 109559, Control_c, 0, 64, 64
1, 109574, Control_c, 0, 64, 69
1, 109589, Control_c, 0, 64, 75
1, 109601, Note_off_c, 0, 66, 57
1, 109604, Control_c, 0, 64, 81
1, 109619, Control_c, 0, 64, 86
1, 109634, Control_c, 0, 64, 90
1, 109648, Control_c, 0, 64, 93
1, 109663, Control_c, 0, 64, 95
1, 109678, Control_c, 0, 64, 96
1, 109680, Note_off_c, 0, 60, 59
1, 109693, Control_c, 0, 64, 97
1, 109705, Note_off_c, 0, 68, 61
1, 109708, Control_c, 0, 64, 97
1, 109723, Control_c, 0, 64, 98
1, 109726, Note_on_c, 0, 70, 50
1, 109738, Control_c, 0, 64, 99
1, 109739, Note_off_c, 0, 56, 40
1, 109753, Control_c, 0, 64, 99
1, 109768, Control_c, 0, 64, 100
1, 109801, Note_off_c, 0, 70, 61
1, 109812, Control_c, 0, 64, 100
1, 109826, Control_c, 0, 64, 101
1, 109836, Note_on_c, 0, 68, 45
1, 109870, Note_off_c, 0, 68, 55
1, 109906, Note_on_c, 0, 70, 52
1, 109944, Note_off_c, 0, 70, 65
1, 109968, Note_on_c, 0, 68, 57
1, 110002, Note_off_c, 0, 68, 65
1, 110034, Note_on_c, 0, 70, 57
1, 110073, Note_off_c, 0, 70, 64
1, 110121, Note_on_c, 0, 68, 47
1, 110140, Note_off_c, 0, 68, 64
1, 110170, Note_on_c, 0, 70, 56
1, 110220, Note_off_c, 0, 70, 61
1, 110241, Note_on_c, 0, 68, 48
1, 110264, Control_c, 0, 64, 99
1, 110279, Control_c, 0, 64, 94
1, 110288, Note_off_c, 0, 68, 64
1, 110294, Control_c, 0, 64, 82
1, 110300, Note_on_c, 0, 37, 30
1, 110309, Control_c, 0, 64, 69
1, 110316, Note_on_c, 0, 70, 46
1, 110323, Control_c, 0, 64, 21
1, 110338, Control_c, 0, 64, 0
1, 110356, Note_off_c, 0, 70, 64
1, 110397, Control_c, 0, 64, 62
1, 110405, Note_on_c, 0, 68, 43
1, 110412, Control_c, 0, 64, 68
1, 110427, Control_c, 0, 64, 75
1, 110432, Note_off_c, 0, 68, 57
1, 110441, Control_c, 0, 64, 83
1, 110456, Control_c, 0, 64, 89
1, 110465, Note_on_c, 0, 70, 50
1, 110471, Control_c, 0, 64, 94
1, 110472, Note_off_c, 0, 37, 53
1, 110486, Control_c, 0, 64, 98
1, 110495, Note_off_c, 0, 70, 62
1, 110501, Control_c, 0, 64, 101
1, 110516, Control_c, 0, 64, 102
1, 110527, Note_on_c, 0, 68, 48
1, 110546, Control_c, 0, 64, 102
1, 110558, Note_off_c, 0, 68, 64
1, 110561, Control_c, 0, 64, 103
1, 110576, Control_c, 0, 64, 105
1, 110589, Note_on_c, 0, 70, 55
1, 110590, Control_c, 0, 64, 106
1, 110620, Note_off_c, 0, 70, 66
1, 110635, Control_c, 0, 64, 107
1, 110649, Control_c, 0, 64, 107
1, 110650, Note_on_c, 0, 68, 54
1, 110670, Note_off_c, 0, 68, 66
1, 110693, Note_on_c, 0, 70, 68
1, 110723, Control_c, 0, 64, 108
1, 110742, Note_off_c, 0, 70, 62
1, 110757, Note_on_c, 0, 68, 61
1, 110782, Control_c, 0, 64, 108
1, 110796, Note_off_c, 0, 68, 64
1, 110805, Note_on_c, 0, 70, 55
1, 110812, Control_c, 0, 64, 109
1, 110879, Note_off_c, 0, 70, 61
1, 110895, Note_on_c, 0, 68, 45
1, 110909, Control_c, 0, 64, 106
1, 110923, Control_c, 0, 64, 97
1, 110924, Note_off_c, 0, 68, 53
1, 110938, Control_c, 0, 64, 83
1, 110951, Note_on_c, 0, 65, 55
1, 110953, Note_on_c, 0, 56, 37
1, 110954, Control_c, 0, 64, 68
1, 110969, Control_c, 0, 64, 0
1, 111028, Control_c, 0, 64, 58
1, 111043, Control_c, 0, 64, 65
1, 111054, Note_off_c, 0, 65, 61
1, 111058, Note_on_c, 0, 68, 42
1, 111058, Control_c, 0, 64, 71
1, 111072, Control_c, 0, 64, 76
1, 111087, Control_c, 0, 64, 84
1, 111102, Control_c, 0, 64, 90
1, 111114, Note_off_c, 0, 68, 59
1, 111115, Control_c, 0, 64, 96
1, 111130, Note_on_c, 0, 73, 49
1, 111130, Control_c, 0, 64, 101
1, 111145, Control_c, 0, 64, 103
1, 111153, Note_off_c, 0, 73, 52
1, 111160, Control_c, 0, 64, 105
1, 111175, Control_c, 0, 64, 105
1, 111190, Control_c, 0, 64, 107
1, 111205, Control_c, 0, 64, 109
1, 111207, Note_on_c, 0, 77, 70
1, 111219, Control_c, 0, 64, 113
1, 111231, Note_off_c, 0, 77, 67
1, 111234, Control_c, 0, 64, 118
1, 111247, Note_on_c, 0, 82, 70
1, 111249, Control_c, 0, 64, 124
1, 111264, Control_c, 0, 64, 126
1, 111293, Control_c, 0, 64, 127
1, 111299, Note_off_c, 0, 82, 63
1, 111309, Note_on_c, 0, 80, 80
1, 111365, Note_off_c, 0, 80, 64
1, 111527, Note_on_c, 0, 80, 73
1, 111553, Note_off_c, 0, 80, 65
1, 111650, Note_on_c, 0, 94, 67
1, 111864, Control_c, 0, 64, 119
1, 111879, Control_c, 0, 64, 98
1, 111887, Note_on_c, 0, 92, 61
1, 111893, Control_c, 0, 64, 82
1, 111908, Note_on_c, 0, 65, 29
1, 111908, Control_c, 0, 64, 68
1, 111923, Note_off_c, 0, 94, 37
1, 111923, Control_c, 0, 64, 13
1, 111926, Note_on_c, 0, 61, 25
1, 111938, Control_c, 0, 64, 0
1, 111968, Control_c, 0, 64, 56
1, 111983, Control_c, 0, 64, 64
1, 111997, Control_c, 0, 64, 67
1, 112012, Control_c, 0, 64, 71
1, 112027, Control_c, 0, 64, 78
1, 112033, Note_off_c, 0, 92, 64
1, 112042, Control_c, 0, 64, 85
1, 112057, Control_c, 0, 64, 92
1, 112072, Control_c, 0, 64, 98
1, 112087, Control_c, 0, 64, 102
1, 112101, Control_c, 0, 64, 105
1, 112106, Note_off_c, 0, 65, 42
1, 112116, Control_c, 0, 64, 108
1, 112131, Control_c, 0, 64, 110
1, 112146, Control_c, 0, 64, 112
1, 112160, Control_c, 0, 64, 113
1, 112171, Note_off_c, 0, 61, 41
1, 112175, Control_c, 0, 64, 115
1, 112190, Control_c, 0, 64, 115
1, 112205, Control_c, 0, 64, 116
1, 112219, Control_c, 0, 64, 116
1, 112249, Control_c, 0, 64, 117
1, 112279, Control_c, 0, 64, 117
1, 112592, Note_on_c, 0, 60, 30
1, 112598, Control_c, 0, 64, 117
1, 112614, Control_c, 0, 64, 116
1, 112629, Control_c, 0, 64, 112
1, 112638, Note_on_c, 0, 66, 37
1, 112643, Control_c, 0, 64, 104
1, 112658, Control_c, 0, 64, 94
1, 112673, Control_c, 0, 64, 81
1, 112678, Note_on_c, 0, 68, 41
1, 112679, Note_off_c, 0, 56, 31
1, 112688, Control_c, 0, 64, 65
1, 112703, Control_c, 0, 64, 0
1, 112777, Control_c, 0, 64, 27
1, 112791, Control_c, 0, 64, 55
1, 112806, Control_c, 0, 64, 63
1, 112808, Note_off_c, 0, 68, 49
1, 112821, Control_c, 0, 64, 68
1, 112836, Control_c, 0, 64, 73
1, 112838, Note_on_c, 0, 70, 47
1, 112850, Control_c, 0, 64, 81
1, 112865, Control_c, 0, 64, 87
1, 112869, Note_off_c, 0, 66, 43
1, 112880, Control_c, 0, 64, 92
1, 112884, Note_off_c, 0, 70, 60
1, 112895, Control_c, 0, 64, 96
1, 112910, Control_c, 0, 64, 98
1, 112922, Note_on_c, 0, 68, 45
1, 112924, Control_c, 0, 64, 99
1, 112945, Note_off_c, 0, 68, 58
1, 112969, Note_on_c, 0, 70, 54
1, 112969, Control_c, 0, 64, 99
1, 112984, Control_c, 0, 64, 100
1, 112999, Control_c, 0, 64, 100
1, 113006, Note_off_c, 0, 70, 65
1, 113020, Note_on_c, 0, 68, 64
1, 113029, Control_c, 0, 64, 101
1, 113048, Note_off_c, 0, 68, 67
1, 113068, Note_on_c, 0, 70, 72
1, 113073, Control_c, 0, 64, 101
1, 113120, Note_off_c, 0, 70, 62
1, 113139, Note_on_c, 0, 68, 63
1, 113157, Note_off_c, 0, 68, 65
1, 113166, Note_on_c, 0, 70, 60
1, 113240, Note_off_c, 0, 70, 61
1, 113241, Note_on_c, 0, 68, 53
1, 113258, Control_c, 0, 64, 100
1, 113261, Note_off_c, 0, 60, 40
1, 113273, Control_c, 0, 64, 92
1, 113284, Note_on_c, 0, 56, 40
1, 113288, Control_c, 0, 64, 80
1, 113303, Control_c, 0, 64, 65
1, 113317, Control_c, 0, 64, 0
1, 113318, Note_off_c, 0, 68, 61
1, 113346, Note_on_c, 0, 66, 59
1, 113392, Control_c, 0, 64, 38
1, 113407, Control_c, 0, 64, 58
1, 113422, Control_c, 0, 64, 65
1, 113435, Note_off_c, 0, 66, 63
1, 113437, Control_c, 0, 64, 69
1, 113444, Note_on_c, 0, 68, 56
1, 113452, Control_c, 0, 64, 78
1, 113466, Control_c, 0, 64, 86
1, 113481, Control_c, 0, 64, 94
1, 113496, Control_c, 0, 64, 100
1, 113510, Note_off_c, 0, 68, 60
1, 113511, Note_on_c, 0, 72, 59
1, 113511, Control_c, 0, 64, 104
1, 113526, Control_c, 0, 64, 107
1, 113537, Note_off_c, 0, 72, 66
1, 113540, Control_c, 0, 64, 110
1, 113555, Control_c, 0, 64, 114
1, 113562, Note_on_c, 0, 78, 37
1, 113570, Control_c, 0, 64, 116
1, 113585, Control_c, 0, 64, 117
1, 113589, Note_off_c, 0, 78, 34
1, 113599, Control_c, 0, 64, 118
1, 113614, Control_c, 0, 64, 118
1, 113624, Note_on_c, 0, 82, 69
1, 113629, Control_c, 0, 64, 119
1, 113644, Control_c, 0, 64, 121
1, 113659, Control_c, 0, 64, 123
1, 113661, Note_off_c, 0, 82, 52
1, 113673, Control_c, 0, 64, 127
1, 113690, Note_on_c, 0, 80, 80
1, 113742, Note_off_c, 0, 80, 62
1, 113785, Note_on_c, 0, 80, 59
1, 113823, Note_off_c, 0, 80, 62
1, 113872, Note_on_c, 0, 80, 65
1, 113911, Note_off_c, 0, 80, 62
1, 113993, Note_on_c, 0, 94, 66
1, 114004, Note_off_c, 0, 56, 49
1, 114191, Note_off_c, 0, 94, 49
1, 114207, Note_on_c, 0, 92, 59
1, 114284, Note_off_c, 0, 92, 61
1, 114816, Note_on_c, 0, 37, 31
1, 114829, Control_c, 0, 64, 108
1, 114844, Control_c, 0, 64, 92
1, 114859, Control_c, 0, 64, 77
1, 114874, Control_c, 0, 64, 64
1, 114888, Control_c, 0, 64, 0
1, 114899, Note_on_c, 0, 97, 42
1, 114918, Control_c, 0, 64, 55
1, 114934, Control_c, 0, 64, 64
1, 114949, Control_c, 0, 64, 68
1, 114963, Control_c, 0, 64, 73
1, 114978, Control_c, 0, 64, 78
1, 114993, Control_c, 0, 64, 85
1, 115004, Note_off_c, 0, 37, 54
1, 115008, Control_c, 0, 64, 90
1, 115023, Control_c, 0, 64, 95
1, 115034, Note_off_c, 0, 97, 61
1, 115037, Control_c, 0, 64, 100
1, 115052, Control_c, 0, 64, 102
1, 115062, Note_on_c, 0, 94, 52
1, 115067, Control_c, 0, 64, 104
1, 115082, Control_c, 0, 64, 106
1, 115097, Control_c, 0, 64, 107
1, 115111, Control_c, 0, 64, 109
1, 115126, Control_c, 0, 64, 110
1, 115141, Control_c, 0, 64, 111
1, 115143, Note_on_c, 0, 97, 55
1, 115156, Control_c, 0, 64, 112
1, 115171, Control_c, 0, 64, 112
1, 115185, Control_c, 0, 64, 113
1, 115185, Control_c, 0, 67, 124
1, 115192, Note_off_c, 0, 97, 61
1, 115198, Note_off_c, 0, 94, 27
1, 115200, Control_c, 0, 64, 114
1, 115200, Control_c, 0, 67, 123
1, 115209, Note_on_c, 0, 92, 65
1, 115215, Control_c, 0, 64, 115
1, 115229, Control_c, 0, 64, 116
1, 115244, Control_c, 0, 64, 116
1, 115244, Control_c, 0, 67, 123
1, 115259, Control_c, 0, 64, 117
1, 115267, Note_off_c, 0, 92, 62
1, 115274, Control_c, 0, 64, 119
1, 115274, Control_c, 0, 67, 122
1, 115285, Note_on_c, 0, 97, 56
1, 115289, Control_c, 0, 64, 121
1, 115289, Control_c, 0, 67, 121
1, 115303, Control_c, 0, 64, 123
1, 115303, Control_c, 0, 67, 121
1, 115318, Control_c, 0, 64, 124
1, 115325, Note_off_c, 0, 97, 60
1, 115333, Control_c, 0, 67, 121
1, 115348, Control_c, 0, 64, 125
1, 115354, Note_on_c, 0, 89, 52
1, 115371, Control_c, 0, 64, 127
1, 115371, Control_c, 0, 67, 122
1, 115386, Control_c, 0, 64, 127
1, 115403, Note_off_c, 0, 89, 45
1, 115416, Note_on_c, 0, 56, 37
1, 115430, Note_on_c, 0, 97, 61
1, 115430, Control_c, 0, 67, 122
1, 115444, Control_c, 0, 67, 123
1, 115482, Note_off_c, 0, 97, 60
1, 115489, Control_c, 0, 67, 123
1, 115493, Note_on_c, 0, 90, 61
1, 115518, Control_c, 0, 67, 124
1, 115533, Note_off_c, 0, 90, 56
1, 115533, Control_c, 0, 67, 124
1, 115549, Note_on_c, 0, 97, 63
1, 115578, Control_c, 0, 67, 125
1, 115592, Control_c, 0, 67, 125
1, 115608, Control_c, 0, 67, 126
1, 115628, Note_on_c, 0, 89, 67
1, 115637, Control_c, 0, 67, 126
1, 115640, Note_off_c, 0, 97, 65
1, 115691, Note_on_c, 0, 97, 66
1, 115691, Note_off_c, 0, 89, 63
1, 115727, Control_c, 0, 67, 127
1, 115742, Control_c, 0, 67, 127
1, 115780, Note_off_c, 0, 97, 64
1, 115790, Note_on_c, 0, 85, 68
1, 115841, Note_on_c, 0, 65, 39
1, 115841, Note_off_c, 0, 85, 57
1, 115849, Note_on_c, 0, 61, 42
1, 115854, Note_on_c, 0, 97, 71
1, 115935, Note_off_c, 0, 97, 66
1, 115949, Note_off_c, 0, 65, 55
1, 115950, Note_on_c, 0, 89, 50
1, 115979, Control_c, 0, 64, 122
1, 115983, Note_off_c, 0, 89, 50
1, 115989, Note_on_c, 0, 85, 75
1, 115994, Control_c, 0, 64, 104
1, 116009, Control_c, 0, 64, 87
1, 116024, Control_c, 0, 64, 69
1, 116039, Control_c, 0, 64, 0
1, 116047, Note_off_c, 0, 85, 58
1, 116054, Note_on_c, 0, 96, 68
1, 116082, Note_on_c, 0, 95, 49
1, 116083, Control_c, 0, 64, 29
1, 116098, Control_c, 0, 64, 64
1, 116120, Control_c, 0, 64, 72
1, 116123, Note_off_c, 0, 96, 62
1, 116128, Note_off_c, 0, 95, 47
1, 116135, Control_c, 0, 64, 84
1, 116137, Note_on_c, 0, 89, 71
1, 116150, Control_c, 0, 64, 94
1, 116165, Control_c, 0, 64, 103
1, 116180, Control_c, 0, 64, 111
1, 116194, Control_c, 0, 64, 116
1, 116201, Note_off_c, 0, 61, 0
1, 116206, Note_off_c, 0, 89, 63
1, 116209, Control_c, 0, 64, 120
1, 116210, Note_on_c, 0, 94, 78
1, 116224, Control_c, 0, 64, 125
1, 116239, Control_c, 0, 64, 127
1, 116239, Poly_aftertouch_c, 0, 61, 127
1, 116241, Note_off_c, 0, 94, 60
1, 116260, Note_on_c, 0, 63, 42
1, 116261, Note_on_c, 0, 66, 39
1, 116284, Note_on_c, 0, 84, 65
1, 116328, Control_c, 0, 64, 122
1, 116330, Note_on_c, 0, 93, 73
1, 116342, Control_c, 0, 64, 104
1, 116357, Control_c, 0, 64, 89
1, 116372, Control_c, 0, 64, 74
1, 116380, Note_off_c, 0, 84, 40
1, 116385, Note_off_c, 0, 56, 49
1, 116386, Control_c, 0, 64, 58
1, 116400, Note_off_c, 0, 93, 62
1, 116401, Control_c, 0, 64, 0
1, 116403, Note_on_c, 0, 90, 67
1, 116416, Control_c, 0, 64, 39
1, 116431, Control_c, 0, 64, 62
1, 116433, Poly_aftertouch_c, 0, 61, 0
1, 116446, Control_c, 0, 64, 67
1, 116457, Note_on_c, 0, 92, 71
1, 116460, Control_c, 0, 64, 72
1, 116475, Control_c, 0, 64, 79
1, 116479, Note_off_c, 0, 90, 58
1, 116490, Control_c, 0, 64, 86
1, 116505, Control_c, 0, 64, 91
1, 116514, Note_on_c, 0, 84, 64
1, 116516, Note_off_c, 0, 92, 63
1, 116520, Control_c, 0, 64, 96
1, 116535, Control_c, 0, 64, 99
1, 116551, Control_c, 0, 64, 101
1, 116565, Control_c, 0, 64, 101
1, 116570, Note_off_c, 0, 84, 63
1, 116580, Control_c, 0, 64, 102
1, 116598, Note_on_c, 0, 91, 61
1, 116611, Note_on_c, 0, 56, 40
1, 116624, Control_c, 0, 64, 101
1, 116626, Note_off_c, 0, 91, 62
1, 116636, Note_on_c, 0, 87, 65
1, 116639, Control_c, 0, 64, 97
1, 116654, Control_c, 0, 64, 88
1, 116669, Control_c, 0, 64, 75
1, 116683, Control_c, 0, 64, 59
1, 116698, Control_c, 0, 64, 0
1, 116698, Control_c, 0, 67, 127
1, 116710, Note_on_c, 0, 90, 71
1, 116713, Control_c, 0, 67, 126
1, 116718, Note_off_c, 0, 87, 59
1, 116743, Control_c, 0, 64, 60
1, 116758, Control_c, 0, 64, 67
1, 116760, Note_off_c, 0, 90, 64
1, 116773, Control_c, 0, 64, 72
1, 116783, Note_on_c, 0, 81, 70
1, 116788, Control_c, 0, 64, 79
1, 116802, Control_c, 0, 64, 86
1, 116802, Control_c, 0, 67, 126
1, 116817, Control_c, 0, 64, 90
1, 116817, Control_c, 0, 67, 125
1, 116820, Note_off_c, 0, 81, 53
1, 116832, Control_c, 0, 64, 95
1, 116838, Note_on_c, 0, 89, 68
1, 116847, Control_c, 0, 64, 99
1, 116869, Control_c, 0, 64, 103
1, 116869, Control_c, 0, 67, 126
1, 116883, Control_c, 0, 64, 105
1, 116883, Control_c, 0, 67, 126
1, 116896, Note_off_c, 0, 89, 66
1, 116898, Control_c, 0, 64, 108
1, 116910, Note_on_c, 0, 84, 54
1, 116913, Control_c, 0, 64, 110
1, 116913, Control_c, 0, 67, 127
1, 116928, Control_c, 0, 64, 112
1, 116928, Control_c, 0, 67, 127
1, 116942, Note_off_c, 0, 84, 57
1, 116943, Control_c, 0, 64, 116
1, 116958, Control_c, 0, 64, 121
1, 116962, Note_on_c, 0, 87, 71
1, 116973, Control_c, 0, 64, 127
1, 116983, Note_off_c, 0, 66, 57
1, 117029, Note_off_c, 0, 87, 58
1, 117030, Note_on_c, 0, 80, 65
1, 117038, Note_off_c, 0, 63, 59
1, 117082, Note_off_c, 0, 80, 63
1, 117089, Note_off_c, 0, 56, 41
1, 117098, Note_on_c, 0, 90, 70
1, 117127, Note_off_c, 0, 90, 65
1, 117152, Note_on_c, 0, 78, 71
1, 117188, Note_off_c, 0, 78, 59
1, 117245, Note_on_c, 0, 84, 51
1, 117302, Note_on_c, 0, 80, 60
1, 117311, Note_off_c, 0, 84, 55
1, 117403, Control_c, 0, 64, 120
1, 117418, Control_c, 0, 64, 103
1, 117432, Control_c, 0, 64, 87
1, 117435, Note_off_c, 0, 80, 49
1, 117447, Control_c, 0, 64, 71
1, 117462, Control_c, 0, 64, 27
1, 117466, Note_on_c, 0, 85, 49
1, 117472, Note_on_c, 0, 37, 30
1, 117477, Control_c, 0, 64, 0
1, 117521, Control_c, 0, 64, 57
1, 117536, Control_c, 0, 64, 65
1, 117551, Control_c, 0, 64, 70
1, 117564, Note_off_c, 0, 85, 64
1, 117566, Control_c, 0, 64, 79
1, 117581, Control_c, 0, 64, 90
1, 117590, Note_on_c, 0, 82, 52
1, 117596, Control_c, 0, 64, 99
1, 117610, Note_off_c, 0, 37, 54
1, 117618, Control_c, 0, 64, 107
1, 117632, Control_c, 0, 64, 113
1, 117647, Control_c, 0, 64, 115
1, 117662, Control_c, 0, 64, 116
1, 117672, Note_on_c, 0, 85, 65
1, 117688, Note_off_c, 0, 82, 55
1, 117739, Note_off_c, 0, 85, 64
1, 117745, Note_on_c, 0, 80, 65
1, 117751, Control_c, 0, 64, 117
1, 117765, Control_c, 0, 64, 117
1, 117780, Control_c, 0, 64, 118
1, 117795, Control_c, 0, 64, 118
1, 117806, Note_off_c, 0, 80, 62
1, 117819, Note_on_c, 0, 85, 53
1, 117840, Control_c, 0, 64, 119
1, 117855, Control_c, 0, 64, 119
1, 117856, Note_off_c, 0, 85, 63
1, 117888, Note_on_c, 0, 77, 25
1, 117924, Note_off_c, 0, 77, 40
1, 117928, Note_on_c, 0, 85, 68
1, 117929, Control_c, 0, 64, 120
1, 117933, Note_on_c, 0, 56, 34
1, 117944, Control_c, 0, 64, 121
1, 117958, Control_c, 0, 64, 125
1, 117973, Control_c, 0, 64, 127
1, 117994, Note_off_c, 0, 85, 64
1, 117999, Note_on_c, 0, 78, 68
1, 118054, Note_off_c, 0, 78, 53
1, 118060, Note_on_c, 0, 85, 65
1, 118144, Note_off_c, 0, 85, 64
1, 118168, Note_on_c, 0, 77, 41
1, 118208, Note_off_c, 0, 77, 61
1, 118209, Note_on_c, 0, 85, 63
1, 118286, Note_off_c, 0, 85, 65
1, 118298, Note_on_c, 0, 73, 66
1, 118365, Note_on_c, 0, 65, 38
1, 118374, Note_on_c, 0, 85, 66
1, 118378, Note_off_c, 0, 73, 58
1, 118406, Note_on_c, 0, 61, 32
1, 118473, Note_off_c, 0, 85, 66
1, 118485, Note_off_c, 0, 65, 53
1, 118489, Note_on_c, 0, 77, 49
1, 118508, Note_on_c, 0, 73, 73
1, 118514, Note_off_c, 0, 77, 58
1, 118565, Note_on_c, 0, 84, 81
1, 118579, Note_off_c, 0, 73, 59
1, 118630, Note_off_c, 0, 84, 62
1, 118641, Note_on_c, 0, 77, 69
1, 118662, Control_c, 0, 64, 106
1, 118677, Control_c, 0, 64, 89
1, 118692, Control_c, 0, 64, 73
1, 118707, Control_c, 0, 64, 48
1, 118722, Control_c, 0, 64, 0
1, 118728, Note_on_c, 0, 82, 70
1, 118731, Note_off_c, 0, 77, 58
1, 118751, Control_c, 0, 64, 50
1, 118753, Note_on_c, 0, 66, 45
1, 118756, Note_off_c, 0, 82, 64
1, 118764, Note_on_c, 0, 63, 40
1, 118766, Control_c, 0, 64, 65
1, 118780, Control_c, 0, 64, 73
1, 118795, Control_c, 0, 64, 82
1, 118806, Note_off_c, 0, 66, 0
1, 118806, Note_on_c, 0, 66, 12
1, 118809, Note_on_c, 0, 72, 65
1, 118810, Control_c, 0, 64, 93
1, 118821, Note_off_c, 0, 61, 23
1, 118825, Control_c, 0, 64, 100
1, 118840, Control_c, 0, 64, 105
1, 118854, Note_on_c, 0, 81, 66
1, 118854, Control_c, 0, 64, 107
1, 118869, Note_off_c, 0, 56, 36
1, 118869, Control_c, 0, 64, 108
1, 118884, Control_c, 0, 64, 108
1, 118898, Note_off_c, 0, 72, 56
1, 118899, Control_c, 0, 64, 109
1, 118914, Control_c, 0, 64, 109
1, 118926, Note_on_c, 0, 78, 66
1, 118930, Control_c, 0, 64, 111
1, 118939, Note_off_c, 0, 81, 52
1, 118945, Control_c, 0, 64, 112
1, 118959, Control_c, 0, 64, 113
1, 118977, Note_on_c, 0, 80, 66
1, 118989, Control_c, 0, 64, 114
1, 118996, Note_off_c, 0, 78, 60
1, 119003, Control_c, 0, 64, 114
1, 119034, Note_off_c, 0, 80, 62
1, 119035, Note_on_c, 0, 72, 61
1, 119048, Control_c, 0, 64, 114
1, 119063, Control_c, 0, 64, 113
1, 119077, Control_c, 0, 64, 109
1, 119092, Note_off_c, 0, 72, 63
1, 119092, Control_c, 0, 64, 97
1, 119112, Note_on_c, 0, 56, 39
1, 119115, Control_c, 0, 64, 81
1, 119119, Note_on_c, 0, 79, 65
1, 119130, Control_c, 0, 64, 64
1, 119145, Control_c, 0, 64, 0
1, 119158, Note_off_c, 0, 79, 62
1, 119177, Note_on_c, 0, 75, 62
1, 119218, Control_c, 0, 64, 53
1, 119233, Control_c, 0, 64, 63
1, 119244, Note_on_c, 0, 78, 70
1, 119248, Control_c, 0, 64, 67
1, 119256, Note_off_c, 0, 75, 59
1, 119263, Control_c, 0, 64, 74
1, 119278, Control_c, 0, 64, 81
1, 119292, Control_c, 0, 64, 89
1, 119303, Note_off_c, 0, 78, 62
1, 119307, Control_c, 0, 64, 94
1, 119322, Control_c, 0, 64, 97
1, 119327, Note_on_c, 0, 69, 65
1, 119337, Control_c, 0, 64, 98
1, 119353, Control_c, 0, 64, 98
1, 119365, Note_off_c, 0, 69, 56
1, 119367, Control_c, 0, 64, 99
1, 119390, Note_on_c, 0, 77, 59
1, 119397, Control_c, 0, 64, 100
1, 119411, Control_c, 0, 64, 101
1, 119426, Control_c, 0, 64, 102
1, 119441, Control_c, 0, 64, 102
1, 119450, Note_off_c, 0, 77, 61
1, 119458, Note_on_c, 0, 72, 53
1, 119471, Control_c, 0, 64, 103
1, 119477, Note_off_c, 0, 66, 56
1, 119485, Control_c, 0, 64, 104
1, 119486, Note_off_c, 0, 72, 56
1, 119500, Control_c, 0, 64, 105
1, 119515, Control_c, 0, 64, 106
1, 119522, Note_on_c, 0, 75, 61
1, 119545, Control_c, 0, 64, 107
1, 119560, Control_c, 0, 64, 108
1, 119567, Note_off_c, 0, 63, 42
1, 119575, Control_c, 0, 64, 109
1, 119597, Note_on_c, 0, 68, 58
1, 119604, Control_c, 0, 64, 110
1, 119616, Note_off_c, 0, 56, 41
1, 119619, Control_c, 0, 64, 110
1, 119634, Control_c, 0, 64, 111
1, 119649, Control_c, 0, 64, 111
1, 119669, Note_off_c, 0, 68, 63
1, 119689, Note_on_c, 0, 78, 59
1, 119724, Control_c, 0, 64, 112
1, 119737, Note_off_c, 0, 75, 19
1, 119739, Note_off_c, 0, 78, 53
1, 119804, Note_on_c, 0, 66, 48
1, 119864, Control_c, 0, 64, 112
1, 119902, Note_on_c, 0, 73, 31
1, 119910, Note_off_c, 0, 66, 37
1, 119935, Note_off_c, 0, 73, 32
1, 119951, Note_on_c, 0, 72, 51
1, 120043, Note_on_c, 0, 68, 43
1, 120305, Note_off_c, 0, 72, 23
1, 120308, Control_c, 0, 64, 112
1, 120323, Control_c, 0, 64, 110
1, 120338, Control_c, 0, 64, 103
1, 120341, Note_on_c, 0, 73, 44
1, 120342, Note_on_c, 0, 37, 29
1, 120348, Note_on_c, 0, 65, 41
1, 120353, Control_c, 0, 64, 91
1, 120368, Control_c, 0, 64, 77
1, 120383, Control_c, 0, 64, 59
1, 120398, Control_c, 0, 64, 0
1, 120401, Note_off_c, 0, 68, 35
1, 120472, Control_c, 0, 64, 40
1, 120487, Control_c, 0, 64, 59
1, 120501, Control_c, 0, 64, 65
1, 120516, Control_c, 0, 64, 72
1, 120532, Control_c, 0, 64, 83
1, 120544, Note_off_c, 0, 37, 55
1, 120547, Control_c, 0, 64, 94
1, 120562, Control_c, 0, 64, 103
1, 120576, Control_c, 0, 64, 110
1, 120591, Control_c, 0, 64, 115
1, 120613, Control_c, 0, 64, 119
1, 120628, Control_c, 0, 64, 127
1, 120668, Note_off_c, 0, 65, 61
1, 120703, Note_off_c, 0, 73, 61
1, 121055, Note_on_c, 0, 56, 26
1, 121131, Control_c, 0, 67, 127
1, 121146, Control_c, 0, 67, 125
1, 121161, Control_c, 0, 67, 125
1, 121176, Control_c, 0, 67, 124
1, 121191, Control_c, 0, 67, 124
1, 121205, Control_c, 0, 67, 123
1, 121220, Control_c, 0, 67, 123
1, 121235, Control_c, 0, 67, 122
1, 121250, Control_c, 0, 67, 121
1, 121265, Control_c, 0, 67, 120
1, 121280, Control_c, 0, 67, 120
1, 121295, Control_c, 0, 67, 119
1, 121310, Control_c, 0, 67, 118
1, 121325, Control_c, 0, 67, 117
1, 121340, Control_c, 0, 67, 115
1, 121362, Control_c, 0, 67, 113
1, 121377, Control_c, 0, 67, 112
1, 121392, Control_c, 0, 67, 112
1, 121436, Control_c, 0, 67, 111
1, 121480, Control_c, 0, 67, 111
1, 121495, Note_on_c, 0, 65, 35
1, 121514, Note_on_c, 0, 61, 25
1, 121524, Note_on_c, 0, 73, 40
1, 121584, Control_c, 0, 67, 110
1, 121599, Note_off_c, 0, 65, 56
1, 121599, Control_c, 0, 67, 110
1, 121614, Control_c, 0, 67, 108
1, 121629, Control_c, 0, 67, 105
1, 121644, Control_c, 0, 67, 104
1, 121659, Control_c, 0, 67, 103
1, 121671, Note_off_c, 0, 61, 43
1, 121673, Control_c, 0, 67, 102
1, 121688, Control_c, 0, 67, 102
1, 121703, Control_c, 0, 67, 101
1, 121718, Control_c, 0, 67, 100
1, 121733, Control_c, 0, 67, 99
1, 121747, Control_c, 0, 67, 98
1, 121762, Control_c, 0, 67, 98
1, 121866, Control_c, 0, 67, 97
1, 121933, Note_on_c, 0, 66, 34
1, 121942, Note_on_c, 0, 63, 30
1, 121969, Control_c, 0, 64, 115
1, 121984, Control_c, 0, 64, 97
1, 121998, Control_c, 0, 64, 82
1, 121998, Control_c, 0, 67, 97
1, 122009, Note_on_c, 0, 72, 55
1, 122013, Control_c, 0, 64, 70
1, 122013, Control_c, 0, 67, 96
1, 122017, Note_off_c, 0, 73, 49
1, 122028, Control_c, 0, 64, 55
1, 122028, Control_c, 0, 67, 96
1, 122043, Control_c, 0, 64, 0
1, 122043, Control_c, 0, 67, 93
1, 122058, Control_c, 0, 64, 24
1, 122058, Control_c, 0, 67, 91
1, 122073, Control_c, 0, 64, 56
1, 122073, Control_c, 0, 67, 89
1, 122088, Control_c, 0, 64, 64
1, 122088, Control_c, 0, 67, 89
1, 122110, Control_c, 0, 64, 67
1, 122125, Control_c, 0, 64, 70
1, 122141, Control_c, 0, 64, 73
1, 122141, Control_c, 0, 67, 88
1, 122142, Note_off_c, 0, 56, 41
1, 122156, Control_c, 0, 64, 77
1, 122156, Control_c, 0, 67, 88
1, 122171, Control_c, 0, 64, 83
1, 122171, Control_c, 0, 67, 87
1, 122185, Control_c, 0, 64, 88
1, 122185, Control_c, 0, 67, 84
1, 122200, Control_c, 0, 64, 93
1, 122200, Control_c, 0, 67, 82
1, 122215, Control_c, 0, 64, 97
1, 122215, Control_c, 0, 67, 79
1, 122229, Control_c, 0, 64, 99
1, 122229, Control_c, 0, 67, 78
1, 122243, Note_on_c, 0, 73, 65
1, 122244, Control_c, 0, 64, 101
1, 122244, Control_c, 0, 67, 76
1, 122259, Control_c, 0, 64, 103
1, 122259, Control_c, 0, 67, 74
1, 122274, Control_c, 0, 64, 106
1, 122274, Control_c, 0, 67, 72
1, 122289, Control_c, 0, 64, 110
1, 122289, Control_c, 0, 67, 68
1, 122303, Control_c, 0, 64, 114
1, 122303, Control_c, 0, 67, 64
1, 122318, Control_c, 0, 64, 118
1, 122318, Control_c, 0, 67, 60
1, 122333, Control_c, 0, 64, 126
1, 122333, Control_c, 0, 67, 56
1, 122349, Control_c, 0, 64, 127
1, 122349, Control_c, 0, 67, 53
1, 122364, Control_c, 0, 67, 51
1, 122378, Control_c, 0, 67, 49
1, 122393, Control_c, 0, 67, 47
1, 122408, Control_c, 0, 67, 44
1, 122422, Control_c, 0, 67, 41
1, 122437, Control_c, 0, 67, 39
1, 122449, Note_on_c, 0, 75, 64
1, 122452, Control_c, 0, 67, 37
1, 122457, Note_on_c, 0, 56, 44
1, 122467, Control_c, 0, 67, 35
1, 122482, Control_c, 0, 67, 33
1, 122496, Control_c, 0, 67, 31
1, 122511, Control_c, 0, 67, 27
1, 122526, Control_c, 0, 67, 24
1, 122541, Control_c, 0, 67, 21
1, 122556, Control_c, 0, 67, 18
1, 122571, Control_c, 0, 67, 16
1, 122586, Control_c, 0, 67, 14
1, 122601, Control_c, 0, 67, 13
1, 122615, Control_c, 0, 67, 12
1, 122627, Note_on_c, 0, 78, 75
1, 122630, Control_c, 0, 67, 11
1, 122645, Control_c, 0, 67, 9
1, 122660, Control_c, 0, 67, 8
1, 122675, Control_c, 0, 67, 0
1, 122678, Note_off_c, 0, 66, 55
1, 122689, Note_off_c, 0, 72, 64
1, 122730, Note_off_c, 0, 63, 54
1, 122743, Note_off_c, 0, 56, 52
1, 122751, Note_off_c, 0, 73, 22
1, 122833, Note_on_c, 0, 82, 64
1, 122942, Note_off_c, 0, 75, 37
1, 122977, Note_off_c, 0, 82, 59
1, 123008, Note_off_c, 0, 78, 54
1, 123036, Note_on_c, 0, 70, 51
1, 123319, Control_c, 0, 64, 110
1, 123331, Note_on_c, 0, 37, 33
1, 123333, Control_c, 0, 64, 93
1, 123339, Note_on_c, 0, 68, 45
1, 123348, Control_c, 0, 64, 76
1, 123363, Control_c, 0, 64, 54
1, 123377, Control_c, 0, 64, 0
1, 123429, Note_off_c, 0, 70, 34
1, 123437, Control_c, 0, 64, 58
1, 123451, Control_c, 0, 64, 67
1, 123466, Note_off_c, 0, 37, 60
1, 123466, Control_c, 0, 64, 73
1, 123481, Control_c, 0, 64, 81
1, 123496, Control_c, 0, 64, 89
1, 123511, Control_c, 0, 64, 95
1, 123525, Control_c, 0, 64, 101
1, 123540, Control_c, 0, 64, 106
1, 123555, Control_c, 0, 64, 110
1, 123569, Control_c, 0, 64, 112
1, 123584, Control_c, 0, 64, 115
1, 123607, Control_c, 0, 64, 117
1, 123622, Control_c, 0, 64, 121
1, 123637, Control_c, 0, 64, 126
1, 123651, Control_c, 0, 64, 127
1, 123782, Note_off_c, 0, 68, 51
1, 123811, Note_on_c, 0, 56, 27
1, 124173, Note_on_c, 0, 65, 32
1, 124200, Note_on_c, 0, 61, 22
1, 124209, Note_on_c, 0, 68, 45
1, 124300, Note_off_c, 0, 65, 33
1, 124623, Control_c, 0, 64, 124
1, 124637, Note_on_c, 0, 63, 32
1, 124638, Control_c, 0, 64, 108
1, 124645, Note_on_c, 0, 66, 45
1, 124653, Control_c, 0, 64, 91
1, 124668, Control_c, 0, 64, 76
1, 124683, Control_c, 0, 64, 62
1, 124687, Note_off_c, 0, 68, 40
1, 124697, Control_c, 0, 64, 0
1, 124738, Note_off_c, 0, 56, 43
1, 124738, Note_off_c, 0, 61, 30
1, 124742, Control_c, 0, 64, 30
1, 124757, Control_c, 0, 64, 57
1, 124771, Control_c, 0, 64, 62
1, 124786, Control_c, 0, 64, 64
1, 124801, Control_c, 0, 64, 67
1, 124816, Control_c, 0, 64, 70
1, 124830, Control_c, 0, 64, 77
1, 124845, Control_c, 0, 64, 86
1, 124860, Control_c, 0, 64, 93
1, 124875, Note_on_c, 0, 68, 53
1, 124875, Control_c, 0, 64, 97
1, 124890, Control_c, 0, 64, 100
1, 124905, Control_c, 0, 64, 102
1, 124920, Control_c, 0, 64, 105
1, 124935, Control_c, 0, 64, 110
1, 124949, Control_c, 0, 64, 115
1, 124964, Control_c, 0, 64, 120
1, 124979, Control_c, 0, 64, 127
1, 124994, Control_c, 0, 64, 127
1, 125051, Note_on_c, 0, 72, 62
1, 125066, Note_on_c, 0, 56, 38
1, 125197, Note_off_c, 0, 63, 42
1, 125225, Note_off_c, 0, 56, 39
1, 125234, Note_on_c, 0, 75, 65
1, 125265, Note_off_c, 0, 68, 59
1, 125283, Note_off_c, 0, 66, 59
1, 125408, Note_on_c, 0, 78, 60
1, 125563, Note_on_c, 0, 66, 55
1, 125608, Note_off_c, 0, 78, 53
1, 125652, Note_off_c, 0, 66, 64
1, 125674, Note_off_c, 0, 72, 27
1, 125682, Note_off_c, 0, 75, 33
1, 125757, Control_c, 0, 64, 123
1, 125772, Control_c, 0, 64, 107
1, 125787, Control_c, 0, 64, 91
1, 125799, Note_on_c, 0, 37, 32
1, 125802, Control_c, 0, 64, 72
1, 125808, Note_on_c, 0, 65, 45
1, 125817, Control_c, 0, 64, 0
1, 125868, Control_c, 0, 64, 10
1, 125883, Control_c, 0, 64, 66
1, 125898, Control_c, 0, 64, 79
1, 125912, Note_off_c, 0, 37, 59
1, 125913, Control_c, 0, 64, 93
1, 125927, Control_c, 0, 64, 105
1, 125942, Control_c, 0, 64, 114
1, 125957, Control_c, 0, 64, 120
1, 125972, Control_c, 0, 64, 123
1, 125981, Note_off_c, 0, 65, 59
1, 125987, Control_c, 0, 64, 127
1, 126255, Note_on_c, 0, 56, 40
1, 126415, Note_on_c, 0, 80, 74
1, 126574, Note_on_c, 0, 65, 50
1, 126595, Note_on_c, 0, 61, 48
1, 126610, Note_on_c, 0, 79, 71
1, 126643, Note_off_c, 0, 80, 58
1, 126646, Note_off_c, 0, 65, 64
1, 126775, Note_on_c, 0, 80, 75
1, 126832, Note_off_c, 0, 79, 57
1, 126938, Note_on_c, 0, 66, 47
1, 126944, Control_c, 0, 64, 122
1, 126953, Note_on_c, 0, 63, 51
1, 126959, Control_c, 0, 64, 99
1, 126971, Note_on_c, 0, 82, 76
1, 126973, Control_c, 0, 64, 80
1, 126988, Control_c, 0, 64, 60
1, 127003, Control_c, 0, 64, 0
1, 127019, Note_off_c, 0, 61, 42
1, 127031, Note_off_c, 0, 80, 58
1, 127048, Control_c, 0, 64, 34
1, 127063, Control_c, 0, 64, 65
1, 127069, Note_off_c, 0, 56, 54
1, 127078, Control_c, 0, 64, 73
1, 127092, Control_c, 0, 64, 83
1, 127107, Control_c, 0, 64, 92
1, 127122, Control_c, 0, 64, 98
1, 127129, Note_on_c, 0, 80, 86
1, 127136, Control_c, 0, 64, 105
1, 127151, Control_c, 0, 64, 111
1, 127166, Control_c, 0, 64, 118
1, 127181, Control_c, 0, 64, 127
1, 127247, Note_off_c, 0, 82, 54
1, 127298, Note_on_c, 0, 56, 55
1, 127319, Note_on_c, 0, 72, 60
1, 127458, Note_off_c, 0, 66, 66
1, 127480, Note_on_c, 0, 78, 76
1, 127503, Note_off_c, 0, 72, 55
1, 127516, Note_off_c, 0, 80, 62
1, 127516, Note_off_c, 0, 63, 63
1, 127539, Note_off_c, 0, 56, 57
1, 127663, Note_on_c, 0, 84, 75
1, 127686, Note_off_c, 0, 78, 62
1, 127712, Note_off_c, 0, 84, 65
1, 127829, Note_on_c, 0, 90, 49
1, 127950, Note_off_c, 0, 90, 49
1, 128004, Control_c, 0, 64, 107
1, 128018, Note_on_c, 0, 37, 46
1, 128019, Control_c, 0, 64, 88
1, 128033, Control_c, 0, 64, 71
1, 128048, Control_c, 0, 64, 48
1, 128063, Control_c, 0, 64, 0
1, 128078, Control_c, 0, 64, 44
1, 128080, Note_on_c, 0, 89, 63
1, 128100, Control_c, 0, 64, 65
1, 128115, Control_c, 0, 64, 72
1, 128130, Control_c, 0, 64, 82
1, 128145, Control_c, 0, 64, 93
1, 128160, Control_c, 0, 64, 107
1, 128161, Note_off_c, 0, 37, 65
1, 128174, Control_c, 0, 64, 127
1, 128281, Note_on_c, 0, 87, 71
1, 128465, Note_on_c, 0, 56, 44
1, 128471, Note_on_c, 0, 85, 71
1, 128506, Note_off_c, 0, 89, 35
1, 128569, Note_off_c, 0, 87, 53
1, 128604, Note_off_c, 0, 85, 61
1, 128634, Note_on_c, 0, 77, 63
1, 128813, Note_on_c, 0, 61, 43
1, 128817, Note_on_c, 0, 65, 43
1, 128825, Note_on_c, 0, 80, 64
1, 128908, Note_off_c, 0, 65, 64
1, 128948, Note_off_c, 0, 77, 37
1, 128952, Note_off_c, 0, 61, 60
1, 129009, Note_on_c, 0, 84, 59
1, 129027, Note_off_c, 0, 80, 61
1, 129223, Note_on_c, 0, 60, 35
1, 129227, Note_on_c, 0, 66, 35
1, 129231, Note_on_c, 0, 82, 55
1, 129249, Control_c, 0, 64, 115
1, 129263, Control_c, 0, 64, 98
1, 129278, Control_c, 0, 64, 83
1, 129293, Control_c, 0, 64, 68
1, 129308, Control_c, 0, 64, 0
1, 129313, Note_off_c, 0, 84, 35
1, 129328, Note_off_c, 0, 56, 41
1, 129422, Note_on_c, 0, 78, 53
1, 129427, Control_c, 0, 64, 57
1, 129439, Note_off_c, 0, 82, 51
1, 129442, Control_c, 0, 64, 65
1, 129457, Control_c, 0, 64, 70
1, 129472, Control_c, 0, 64, 76
1, 129486, Control_c, 0, 64, 83
1, 129501, Control_c, 0, 64, 87
1, 129516, Control_c, 0, 64, 91
1, 129531, Control_c, 0, 64, 94
1, 129546, Control_c, 0, 64, 97
1, 129561, Control_c, 0, 64, 100
1, 129576, Control_c, 0, 64, 102
1, 129598, Control_c, 0, 64, 105
1, 129613, Control_c, 0, 64, 108
1, 129627, Control_c, 0, 64, 112
1, 129635, Note_off_c, 0, 78, 60
1, 129642, Note_on_c, 0, 56, 37
1, 129642, Control_c, 0, 64, 115
1, 129657, Control_c, 0, 64, 118
1, 129663, Note_on_c, 0, 75, 44
1, 129672, Control_c, 0, 64, 122
1, 129687, Control_c, 0, 64, 125
1, 129701, Control_c, 0, 64, 127
1, 129818, Note_off_c, 0, 75, 56
1, 129844, Note_on_c, 0, 70, 51
1, 129939, Note_off_c, 0, 66, 51
1, 129992, Note_off_c, 0, 60, 49
1, 130011, Note_off_c, 0, 56, 37
1, 130077, Note_on_c, 0, 72, 44
1, 130115, Note_off_c, 0, 70, 31
1, 130247, Note_off_c, 0, 72, 62
1, 130308, Note_on_c, 0, 75, 41
1, 130629, Note_off_c, 0, 75, 29
1, 130640, Note_on_c, 0, 68, 40
1, 130658, Control_c, 0, 64, 115
1, 130673, Control_c, 0, 64, 95
1, 130676, Note_on_c, 0, 37, 30
1, 130688, Control_c, 0, 64, 81
1, 130703, Control_c, 0, 64, 67
1, 130717, Control_c, 0, 64, 31
1, 130732, Control_c, 0, 64, 0
1, 130761, Control_c, 0, 64, 50
1, 130761, Control_c, 0, 67, 9
1, 130776, Control_c, 0, 64, 64
1, 130776, Control_c, 0, 67, 13
1, 130791, Control_c, 0, 64, 68
1, 130791, Control_c, 0, 67, 20
1, 130806, Control_c, 0, 64, 73
1, 130806, Control_c, 0, 67, 25
1, 130821, Control_c, 0, 64, 81
1, 130821, Control_c, 0, 67, 30
1, 130835, Control_c, 0, 64, 89
1, 130835, Control_c, 0, 67, 35
1, 130849, Note_off_c, 0, 37, 56
1, 130850, Control_c, 0, 64, 96
1, 130850, Control_c, 0, 67, 40
1, 130865, Control_c, 0, 64, 103
1, 130865, Control_c, 0, 67, 44
1, 130880, Control_c, 0, 64, 109
1, 130880, Control_c, 0, 67, 48
1, 130894, Control_c, 0, 64, 114
1, 130894, Control_c, 0, 67, 50
1, 130911, Control_c, 0, 64, 120
1, 130911, Control_c, 0, 67, 51
1, 130926, Control_c, 0, 64, 127
1, 130926, Control_c, 0, 67, 52
1, 130940, Control_c, 0, 67, 52
1, 131014, Control_c, 0, 67, 52
1, 131140, Control_c, 0, 67, 52
1, 131185, Control_c, 0, 67, 53
1, 131199, Control_c, 0, 67, 53
1, 131212, Note_on_c, 0, 56, 33
1, 131259, Control_c, 0, 67, 54
1, 131273, Control_c, 0, 67, 54
1, 131288, Control_c, 0, 67, 57
1, 131303, Control_c, 0, 67, 62
1, 131317, Control_c, 0, 67, 66
1, 131332, Control_c, 0, 67, 70
1, 131347, Control_c, 0, 67, 71
1, 131362, Control_c, 0, 67, 73
1, 131377, Control_c, 0, 67, 75
1, 131391, Control_c, 0, 67, 77
1, 131406, Control_c, 0, 67, 79
1, 131421, Control_c, 0, 67, 80
1, 131436, Control_c, 0, 67, 80
1, 131451, Control_c, 0, 67, 81
1, 131555, Control_c, 0, 67, 81
1, 131584, Control_c, 0, 67, 82
1, 131604, Note_on_c, 0, 65, 31
1, 131629, Control_c, 0, 67, 83
1, 131644, Control_c, 0, 67, 85
1, 131648, Note_on_c, 0, 61, 15
1, 131658, Control_c, 0, 67, 87
1, 131673, Control_c, 0, 67, 90
1, 131683, Note_off_c, 0, 65, 57
1, 131688, Control_c, 0, 67, 92
1, 131704, Control_c, 0, 67, 93
1, 131719, Control_c, 0, 67, 94
1, 131727, Note_off_c, 0, 61, 39
1, 131734, Control_c, 0, 67, 95
1, 131749, Control_c, 0, 67, 96
1, 131793, Control_c, 0, 67, 97
1, 131807, Control_c, 0, 67, 98
1, 132020, Note_on_c, 0, 66, 33
1, 132030, Note_on_c, 0, 60, 26
1, 132052, Control_c, 0, 64, 116
1, 132059, Note_off_c, 0, 68, 56
1, 132067, Control_c, 0, 64, 98
1, 132074, Note_on_c, 0, 67, 45
1, 132083, Control_c, 0, 64, 82
1, 132097, Control_c, 0, 64, 67
1, 132112, Control_c, 0, 64, 0
1, 132127, Note_off_c, 0, 56, 40
1, 132171, Control_c, 0, 64, 46
1, 132186, Control_c, 0, 64, 56
1, 132201, Control_c, 0, 64, 60
1, 132215, Control_c, 0, 64, 63
1, 132230, Note_off_c, 0, 67, 56
1, 132230, Control_c, 0, 64, 66
1, 132236, Note_on_c, 0, 68, 43
1, 132245, Control_c, 0, 64, 71
1, 132245, Control_c, 0, 67, 97
1, 132260, Control_c, 0, 64, 78
1, 132275, Control_c, 0, 64, 85
1, 132275, Control_c, 0, 67, 97
1, 132289, Control_c, 0, 64, 90
1, 132304, Control_c, 0, 64, 94
1, 132319, Control_c, 0, 64, 96
1, 132330, Note_off_c, 0, 68, 62
1, 132333, Control_c, 0, 64, 98
1, 132348, Control_c, 0, 64, 101
1, 132349, Note_on_c, 0, 70, 52
1, 132363, Control_c, 0, 64, 105
1, 132378, Control_c, 0, 64, 110
1, 132383, Note_off_c, 0, 70, 65
1, 132393, Control_c, 0, 64, 115
1, 132408, Control_c, 0, 64, 119
1, 132423, Control_c, 0, 64, 123
1, 132437, Control_c, 0, 64, 127
1, 132440, Note_on_c, 0, 72, 60
1, 132446, Note_on_c, 0, 56, 36
1, 132497, Control_c, 0, 67, 96
1, 132520, Note_off_c, 0, 72, 61
1, 132527, Control_c, 0, 67, 96
1, 132575, Note_off_c, 0, 66, 57
1, 132624, Control_c, 0, 67, 95
1, 132628, Note_on_c, 0, 75, 62
1, 132668, Control_c, 0, 67, 95
1, 132671, Note_off_c, 0, 60, 42
1, 132676, Note_off_c, 0, 75, 63
1, 132688, Note_off_c, 0, 56, 38
1, 132732, Note_on_c, 0, 77, 63
1, 132786, Control_c, 0, 67, 94
1, 132827, Note_off_c, 0, 77, 55
1, 132837, Note_on_c, 0, 78, 60
1, 132946, Note_on_c, 0, 82, 59
1, 132947, Note_off_c, 0, 78, 56
1, 133082, Control_c, 0, 67, 94
1, 133142, Control_c, 0, 64, 107
1, 133151, Note_on_c, 0, 37, 28
1, 133156, Control_c, 0, 64, 87
1, 133168, Note_on_c, 0, 80, 53
1, 133171, Control_c, 0, 64, 70
1, 133186, Control_c, 0, 64, 0
1, 133186, Control_c, 0, 67, 93
1, 133216, Control_c, 0, 67, 93
1, 133245, Control_c, 0, 64, 54
1, 133255, Note_off_c, 0, 82, 27
1, 133260, Control_c, 0, 64, 67
1, 133275, Control_c, 0, 64, 75
1, 133275, Control_c, 0, 67, 92
1, 133290, Control_c, 0, 64, 84
1, 133290, Control_c, 0, 67, 91
1, 133293, Note_off_c, 0, 37, 58
1, 133306, Control_c, 0, 64, 94
1, 133306, Control_c, 0, 67, 91
1, 133321, Control_c, 0, 64, 101
1, 133321, Control_c, 0, 67, 90
1, 133343, Control_c, 0, 64, 106
1, 133343, Control_c, 0, 67, 90
1, 133358, Control_c, 0, 64, 110
1, 133358, Control_c, 0, 67, 89
1, 133373, Control_c, 0, 64, 112
1, 133373, Control_c, 0, 67, 89
1, 133387, Control_c, 0, 64, 113
1, 133402, Control_c, 0, 64, 115
1, 133417, Control_c, 0, 64, 117
1, 133417, Control_c, 0, 67, 88
1, 133432, Control_c, 0, 64, 120
1, 133432, Control_c, 0, 67, 88
1, 133447, Control_c, 0, 64, 123
1, 133447, Control_c, 0, 67, 87
1, 133461, Control_c, 0, 64, 127
1, 133476, Control_c, 0, 67, 86
1, 133609, Control_c, 0, 67, 86
1, 133639, Control_c, 0, 67, 86
1, 133649, Note_on_c, 0, 56, 19
1, 133860, Control_c, 0, 67, 86
1, 133919, Control_c, 0, 67, 85
1, 134011, Note_on_c, 0, 65, 33
1, 134034, Note_on_c, 0, 61, 24
1, 134084, Note_off_c, 0, 65, 59
1, 134129, Note_off_c, 0, 61, 55
1, 134180, Control_c, 0, 67, 86
1, 134313, Control_c, 0, 67, 86
1, 134440, Note_on_c, 0, 66, 34
1, 134441, Note_on_c, 0, 60, 30
1, 134483, Note_off_c, 0, 80, 54
1, 134491, Control_c, 0, 64, 113
1, 134491, Control_c, 0, 67, 87
1, 134503, Note_on_c, 0, 79, 47
1, 134506, Control_c, 0, 64, 96
1, 134521, Control_c, 0, 64, 80
1, 134535, Control_c, 0, 64, 64
1, 134550, Control_c, 0, 64, 0
1, 134558, Note_off_c, 0, 56, 40
1, 134624, Control_c, 0, 64, 21
1, 134624, Control_c, 0, 67, 87
1, 134639, Control_c, 0, 64, 54
1, 134654, Control_c, 0, 64, 62
1, 134654, Control_c, 0, 67, 87
1, 134657, Note_on_c, 0, 80, 48
1, 134669, Control_c, 0, 64, 66
1, 134679, Note_off_c, 0, 79, 38
1, 134683, Control_c, 0, 64, 70
1, 134698, Control_c, 0, 64, 77
1, 134713, Control_c, 0, 64, 84
1, 134727, Control_c, 0, 64, 89
1, 134742, Control_c, 0, 64, 94
1, 134757, Control_c, 0, 64, 98
1, 134772, Control_c, 0, 64, 101
1, 134785, Note_on_c, 0, 84, 39
1, 134787, Control_c, 0, 64, 103
1, 134788, Note_off_c, 0, 80, 46
1, 134801, Control_c, 0, 64, 105
1, 134816, Control_c, 0, 64, 107
1, 134839, Control_c, 0, 64, 108
1, 134854, Control_c, 0, 64, 109
1, 134869, Control_c, 0, 64, 110
1, 134883, Control_c, 0, 64, 111
1, 134888, Note_on_c, 0, 82, 58
1, 134898, Control_c, 0, 64, 111
1, 134913, Note_on_c, 0, 56, 26
1, 134944, Control_c, 0, 64, 112
1, 134973, Control_c, 0, 67, 87
1, 134982, Note_off_c, 0, 84, 43
1, 134998, Note_on_c, 0, 80, 59
1, 135018, Control_c, 0, 67, 88
1, 135027, Note_off_c, 0, 66, 56
1, 135032, Control_c, 0, 67, 88
1, 135043, Note_off_c, 0, 82, 45
1, 135047, Control_c, 0, 67, 89
1, 135099, Note_on_c, 0, 78, 61
1, 135099, Note_off_c, 0, 80, 57
1, 135136, Control_c, 0, 67, 89
1, 135151, Control_c, 0, 67, 90
1, 135156, Note_off_c, 0, 60, 36
1, 135162, Note_off_c, 0, 56, 35
1, 135177, Note_off_c, 0, 78, 63
1, 135199, Note_on_c, 0, 75, 53
1, 135225, Control_c, 0, 64, 112
1, 135264, Note_off_c, 0, 75, 54
1, 135284, Control_c, 0, 67, 90
1, 135294, Note_on_c, 0, 70, 49
1, 135314, Control_c, 0, 67, 91
1, 135390, Note_off_c, 0, 70, 60
1, 135421, Note_on_c, 0, 72, 52
1, 135521, Control_c, 0, 64, 111
1, 135529, Note_off_c, 0, 72, 54
1, 135536, Control_c, 0, 64, 104
1, 135536, Control_c, 0, 67, 91
1, 135550, Control_c, 0, 64, 89
1, 135565, Control_c, 0, 64, 74
1, 135565, Control_c, 0, 67, 92
1, 135582, Note_on_c, 0, 37, 32
1, 135588, Control_c, 0, 64, 51
1, 135594, Note_on_c, 0, 70, 46
1, 135603, Control_c, 0, 64, 0
1, 135647, Control_c, 0, 64, 55
1, 135662, Control_c, 0, 64, 67
1, 135662, Control_c, 0, 67, 91
1, 135671, Note_off_c, 0, 37, 61
1, 135676, Control_c, 0, 64, 74
1, 135676, Control_c, 0, 67, 91
1, 135687, Note_off_c, 0, 70, 60
1, 135691, Control_c, 0, 64, 85
1, 135691, Control_c, 0, 67, 90
1, 135708, Control_c, 0, 64, 95
1, 135708, Control_c, 0, 67, 89
1, 135713, Note_on_c, 0, 68, 62
1, 135722, Control_c, 0, 64, 105
1, 135722, Control_c, 0, 67, 88
1, 135737, Control_c, 0, 64, 114
1, 135737, Control_c, 0, 67, 87
1, 135752, Control_c, 0, 64, 123
1, 135752, Control_c, 0, 67, 86
1, 135767, Control_c, 0, 64, 127
1, 135767, Control_c, 0, 67, 85
1, 135794, Note_off_c, 0, 68, 62
1, 135811, Control_c, 0, 67, 85
1, 135826, Note_on_c, 0, 75, 54
1, 135840, Control_c, 0, 67, 84
1, 135854, Control_c, 0, 67, 83
1, 135869, Control_c, 0, 67, 78
1, 135884, Control_c, 0, 67, 73
1, 135899, Control_c, 0, 67, 70
1, 135911, Note_off_c, 0, 75, 63
1, 135913, Control_c, 0, 67, 67
1, 135922, Note_on_c, 0, 73, 69
1, 135924, Note_on_c, 0, 56, 47
1, 135928, Control_c, 0, 67, 65
1, 135943, Control_c, 0, 67, 62
1, 135958, Control_c, 0, 67, 60
1, 135973, Control_c, 0, 67, 59
1, 135988, Control_c, 0, 67, 57
1, 136003, Control_c, 0, 67, 56
1, 136011, Note_on_c, 0, 75, 68
1, 136018, Control_c, 0, 67, 55
1, 136018, Note_off_c, 0, 73, 52
1, 136032, Control_c, 0, 67, 54
1, 136047, Control_c, 0, 67, 54
1, 136062, Control_c, 0, 67, 53
1, 136077, Control_c, 0, 67, 52
1, 136092, Control_c, 0, 67, 50
1, 136106, Control_c, 0, 67, 48
1, 136114, Note_on_c, 0, 78, 71
1, 136121, Control_c, 0, 67, 44
1, 136133, Note_off_c, 0, 75, 64
1, 136136, Control_c, 0, 67, 42
1, 136151, Control_c, 0, 67, 38
1, 136166, Control_c, 0, 67, 35
1, 136180, Control_c, 0, 67, 32
1, 136195, Control_c, 0, 67, 30
1, 136199, Note_on_c, 0, 65, 54
1, 136203, Note_on_c, 0, 61, 58
1, 136208, Note_off_c, 0, 78, 61
1, 136209, Note_on_c, 0, 77, 78
1, 136210, Control_c, 0, 67, 27
1, 136225, Control_c, 0, 67, 25
1, 136232, Note_off_c, 0, 65, 67
1, 136240, Control_c, 0, 67, 23
1, 136254, Control_c, 0, 67, 21
1, 136269, Control_c, 0, 67, 18
1, 136284, Control_c, 0, 67, 16
1, 136298, Control_c, 0, 67, 13
1, 136307, Note_on_c, 0, 78, 80
1, 136313, Control_c, 0, 67, 11
1, 136336, Control_c, 0, 67, 9
1, 136350, Note_off_c, 0, 77, 59
1, 136351, Control_c, 0, 67, 0
1, 136401, Note_on_c, 0, 82, 83
1, 136417, Note_off_c, 0, 78, 64
1, 136441, Note_off_c, 0, 82, 66
1, 136528, Note_on_c, 0, 63, 52
1, 136529, Control_c, 0, 64, 115
1, 136537, Note_on_c, 0, 66, 50
1, 136544, Control_c, 0, 64, 94
1, 136549, Note_on_c, 0, 80, 79
1, 136559, Control_c, 0, 64, 78
1, 136572, Note_off_c, 0, 61, 58
1, 136574, Control_c, 0, 64, 64
1, 136589, Control_c, 0, 64, 0
1, 136618, Control_c, 0, 64, 47
1, 136633, Control_c, 0, 64, 63
1, 136648, Control_c, 0, 64, 68
1, 136663, Control_c, 0, 64, 72
1, 136674, Note_on_c, 0, 92, 78
1, 136675, Note_off_c, 0, 56, 61
1, 136677, Control_c, 0, 64, 79
1, 136689, Note_off_c, 0, 80, 64
1, 136692, Control_c, 0, 64, 86
1, 136707, Control_c, 0, 64, 95
1, 136721, Control_c, 0, 64, 102
1, 136736, Control_c, 0, 64, 110
1, 136751, Control_c, 0, 64, 117
1, 136766, Control_c, 0, 64, 127
1, 136792, Note_on_c, 0, 82, 73
1, 136794, Note_off_c, 0, 92, 59
1, 136918, Note_on_c, 0, 92, 67
1, 136952, Note_on_c, 0, 56, 42
1, 137024, Note_off_c, 0, 82, 24
1, 137034, Note_on_c, 0, 85, 60
1, 137034, Note_off_c, 0, 92, 56
1, 137153, Note_off_c, 0, 85, 59
1, 137154, Note_off_c, 0, 66, 65
1, 137159, Note_on_c, 0, 92, 67
1, 137216, Note_off_c, 0, 63, 62
1, 137241, Note_off_c, 0, 92, 60
1, 137267, Note_off_c, 0, 56, 41
1, 137279, Note_on_c, 0, 84, 64
1, 137397, Note_on_c, 0, 92, 63
1, 137463, Note_off_c, 0, 84, 55
1, 137530, Note_on_c, 0, 89, 62
1, 137623, Note_off_c, 0, 92, 35
1, 137663, Control_c, 0, 64, 121
1, 137678, Control_c, 0, 64, 97
1, 137691, Note_on_c, 0, 87, 60
1, 137693, Control_c, 0, 64, 79
1, 137697, Note_off_c, 0, 89, 60
1, 137698, Note_on_c, 0, 37, 37
1, 137708, Control_c, 0, 64, 62
1, 137723, Control_c, 0, 64, 0
1, 137752, Control_c, 0, 64, 59
1, 137767, Control_c, 0, 64, 69
1, 137782, Control_c, 0, 64, 80
1, 137790, Note_off_c, 0, 87, 60
1, 137797, Control_c, 0, 64, 95
1, 137812, Control_c, 0, 64, 110
1, 137814, Note_off_c, 0, 37, 57
1, 137819, Note_on_c, 0, 85, 70
1, 137833, Control_c, 0, 64, 127
1, 137945, Note_on_c, 0, 97, 71
1, 138034, Note_off_c, 0, 85, 53
1, 138048, Note_on_c, 0, 96, 68
1, 138053, Note_on_c, 0, 56, 43
1, 138150, Note_on_c, 0, 94, 69
1, 138214, Note_off_c, 0, 97, 36
1, 138217, Note_off_c, 0, 96, 57
1, 138241, Note_on_c, 0, 92, 68
1, 138292, Note_off_c, 0, 94, 59
1, 138331, Note_off_c, 0, 92, 63
1, 138364, Note_on_c, 0, 89, 53
1, 138365, Note_on_c, 0, 61, 39
1, 138368, Note_on_c, 0, 65, 43
1, 138412, Note_off_c, 0, 65, 64
1, 138424, Note_off_c, 0, 89, 60
1, 138438, Note_off_c, 0, 61, 59
1, 138451, Note_on_c, 0, 87, 62
1, 138540, Note_off_c, 0, 87, 55
1, 138552, Note_on_c, 0, 85, 60
1, 138643, Note_off_c, 0, 85, 61
1, 138658, Note_on_c, 0, 60, 40
1, 138665, Note_on_c, 0, 66, 42
1, 138671, Control_c, 0, 64, 118
1, 138673, Note_on_c, 0, 84, 56
1, 138686, Control_c, 0, 64, 101
1, 138700, Control_c, 0, 64, 88
1, 138715, Control_c, 0, 64, 74
1, 138718, Note_off_c, 0, 56, 38
1, 138730, Control_c, 0, 64, 64
1, 138736, Note_off_c, 0, 84, 64
1, 138745, Control_c, 0, 64, 47
1, 138760, Control_c, 0, 64, 45
1, 138775, Control_c, 0, 64, 56
1, 138777, Note_on_c, 0, 82, 55
1, 138790, Control_c, 0, 64, 61
1, 138805, Control_c, 0, 64, 64
1, 138820, Control_c, 0, 64, 65
1, 138820, Control_c, 0, 67, 8
1, 138835, Control_c, 0, 64, 67
1, 138835, Control_c, 0, 67, 10
1, 138849, Control_c, 0, 64, 70
1, 138849, Control_c, 0, 67, 11
1, 138863, Note_off_c, 0, 82, 60
1, 138864, Control_c, 0, 64, 74
1, 138864, Control_c, 0, 67, 12
1, 138879, Control_c, 0, 64, 79
1, 138879, Control_c, 0, 67, 13
1, 138881, Note_on_c, 0, 80, 54
1, 138894, Control_c, 0, 64, 84
1, 138894, Control_c, 0, 67, 14
1, 138910, Control_c, 0, 64, 89
1, 138910, Control_c, 0, 67, 16
1, 138924, Control_c, 0, 64, 92
1, 138924, Control_c, 0, 67, 19
1, 138939, Control_c, 0, 64, 95
1, 138939, Control_c, 0, 67, 21
1, 138954, Control_c, 0, 64, 97
1, 138954, Control_c, 0, 67, 24
1, 138969, Control_c, 0, 64, 99
1, 138969, Control_c, 0, 67, 26
1, 138976, Note_off_c, 0, 80, 46
1, 138984, Control_c, 0, 64, 100
1, 138984, Control_c, 0, 67, 30
1, 138996, Note_on_c, 0, 77, 53
1, 138998, Control_c, 0, 64, 102
1, 138998, Control_c, 0, 67, 33
1, 139005, Note_on_c, 0, 56, 34
1, 139013, Control_c, 0, 64, 102
1, 139013, Control_c, 0, 67, 37
1, 139028, Control_c, 0, 64, 103
1, 139028, Control_c, 0, 67, 41
1, 139043, Control_c, 0, 64, 104
1, 139043, Control_c, 0, 67, 44
1, 139058, Control_c, 0, 64, 105
1, 139058, Control_c, 0, 67, 48
1, 139070, Note_off_c, 0, 77, 52
1, 139073, Control_c, 0, 64, 105
1, 139073, Control_c, 0, 67, 52
1, 139088, Control_c, 0, 64, 106
1, 139088, Control_c, 0, 67, 56
1, 139103, Control_c, 0, 64, 107
1, 139103, Control_c, 0, 67, 60
1, 139110, Note_on_c, 0, 75, 58
1, 139118, Control_c, 0, 64, 108
1, 139118, Control_c, 0, 67, 63
1, 139132, Control_c, 0, 64, 109
1, 139132, Control_c, 0, 67, 66
1, 139147, Control_c, 0, 64, 110
1, 139147, Control_c, 0, 67, 69
1, 139162, Control_c, 0, 64, 111
1, 139162, Control_c, 0, 67, 72
1, 139177, Control_c, 0, 64, 111
1, 139177, Control_c, 0, 67, 74
1, 139192, Control_c, 0, 67, 76
1, 139199, Note_off_c, 0, 75, 57
1, 139203, Note_off_c, 0, 66, 56
1, 139206, Control_c, 0, 67, 77
1, 139207, Note_on_c, 0, 73, 51
1, 139221, Control_c, 0, 67, 78
1, 139236, Control_c, 0, 67, 79
1, 139251, Control_c, 0, 67, 79
1, 139265, Control_c, 0, 67, 81
1, 139280, Control_c, 0, 67, 84
1, 139294, Note_off_c, 0, 60, 54
1, 139295, Control_c, 0, 67, 87
1, 139300, Note_off_c, 0, 73, 62
1, 139310, Control_c, 0, 67, 91
1, 139332, Control_c, 0, 67, 95
1, 139333, Note_on_c, 0, 72, 52
1, 139336, Note_off_c, 0, 56, 39
1, 139347, Control_c, 0, 67, 100
1, 139362, Control_c, 0, 67, 103
1, 139377, Control_c, 0, 64, 112
1, 139377, Control_c, 0, 67, 106
1, 139392, Control_c, 0, 67, 109
1, 139406, Control_c, 0, 67, 111
1, 139411, Note_off_c, 0, 72, 64
1, 139421, Control_c, 0, 67, 112
1, 139436, Control_c, 0, 67, 113
1, 139443, Note_on_c, 0, 70, 52
1, 139450, Control_c, 0, 67, 113
1, 139480, Control_c, 0, 67, 114
1, 139495, Control_c, 0, 67, 114
1, 139524, Control_c, 0, 67, 115
1, 139534, Note_off_c, 0, 70, 61
1, 139554, Control_c, 0, 67, 115
1, 139565, Note_on_c, 0, 68, 51
1, 139687, Control_c, 0, 67, 115
1, 139732, Control_c, 0, 67, 114
1, 139762, Control_c, 0, 64, 111
1, 139770, Note_off_c, 0, 68, 58
1, 139776, Control_c, 0, 64, 109
1, 139791, Control_c, 0, 64, 103
1, 139794, Note_on_c, 0, 73, 46
1, 139797, Note_on_c, 0, 37, 26
1, 139806, Control_c, 0, 64, 93
1, 139821, Control_c, 0, 64, 80
1, 139836, Control_c, 0, 64, 65
1, 139851, Control_c, 0, 64, 0
1, 139910, Control_c, 0, 64, 46
1, 139925, Control_c, 0, 64, 62
1, 139940, Control_c, 0, 64, 67
1, 139953, Note_off_c, 0, 37, 60
1, 139954, Control_c, 0, 64, 75
1, 139969, Control_c, 0, 64, 85
1, 139984, Control_c, 0, 64, 94
1, 139999, Control_c, 0, 64, 101
1, 139999, Control_c, 0, 67, 114
1, 140014, Control_c, 0, 64, 109
1, 140028, Control_c, 0, 64, 115
1, 140043, Control_c, 0, 64, 124
1, 140058, Control_c, 0, 64, 127
1, 140095, Control_c, 0, 67, 113
1, 140363, Note_on_c, 0, 56, 25
1, 140450, Control_c, 0, 67, 114
1, 140569, Control_c, 0, 67, 114
1, 140733, Control_c, 0, 67, 115
1, 140822, Note_on_c, 0, 65, 20
1, 140833, Note_on_c, 0, 61, 16
1, 140859, Control_c, 0, 67, 115
1, 140906, Note_off_c, 0, 61, 49
1, 140910, Note_off_c, 0, 65, 38
1, 141392, Control_c, 0, 67, 116
1, 141408, Note_on_c, 0, 61, 27
1, 141415, Note_on_c, 0, 65, 32
1, 141422, Control_c, 0, 64, 107
1, 141437, Control_c, 0, 64, 92
1, 141438, Note_on_c, 0, 71, 41
1, 141452, Control_c, 0, 64, 77
1, 141467, Control_c, 0, 64, 65
1, 141482, Control_c, 0, 64, 31
1, 141491, Note_off_c, 0, 73, 36
1, 141496, Control_c, 0, 64, 0
1, 141511, Control_c, 0, 64, 23
1, 141526, Control_c, 0, 64, 53
1, 141541, Control_c, 0, 64, 62
1, 141556, Control_c, 0, 64, 65
1, 141578, Control_c, 0, 64, 67
1, 141593, Control_c, 0, 64, 70
1, 141607, Control_c, 0, 64, 74
1, 141622, Control_c, 0, 64, 80
1, 141633, Note_off_c, 0, 56, 41
1, 141637, Control_c, 0, 64, 86
1, 141652, Control_c, 0, 64, 92
1, 141667, Control_c, 0, 64, 97
1, 141681, Control_c, 0, 64, 101
1, 141696, Control_c, 0, 64, 105
1, 141711, Control_c, 0, 64, 109
1, 141726, Control_c, 0, 64, 114
1, 141732, Note_on_c, 0, 73, 43
1, 141741, Control_c, 0, 64, 122
1, 141741, Control_c, 0, 67, 115
1, 141756, Control_c, 0, 64, 127
1, 141786, Control_c, 0, 67, 115
1, 141875, Control_c, 0, 67, 114
1, 141934, Control_c, 0, 67, 114
1, 141953, Note_off_c, 0, 73, 58
1, 141973, Note_on_c, 0, 77, 47
1, 141979, Control_c, 0, 67, 113
1, 141988, Note_on_c, 0, 56, 28
1, 142038, Control_c, 0, 67, 113
1, 142082, Control_c, 0, 67, 112
1, 142113, Control_c, 0, 67, 112
1, 142136, Note_off_c, 0, 65, 54
1, 142142, Control_c, 0, 67, 111
1, 142157, Control_c, 0, 67, 111
1, 142182, Note_on_c, 0, 82, 55
1, 142216, Control_c, 0, 67, 110
1, 142219, Note_off_c, 0, 56, 38
1, 142230, Note_off_c, 0, 61, 41
1, 142246, Control_c, 0, 67, 110
1, 142305, Control_c, 0, 67, 109
1, 142343, Control_c, 0, 67, 109
1, 142389, Note_on_c, 0, 80, 62
1, 142417, Control_c, 0, 67, 108
1, 142490, Control_c, 0, 67, 108
1, 142535, Control_c, 0, 67, 107
1, 142565, Note_on_c, 0, 75, 56
1, 142608, Note_off_c, 0, 71, 56
1, 142623, Control_c, 0, 67, 107
1, 142664, Note_off_c, 0, 80, 37
1, 142668, Control_c, 0, 67, 106
1, 142713, Note_off_c, 0, 77, 31
1, 142727, Note_off_c, 0, 82, 35
1, 142742, Control_c, 0, 64, 110
1, 142757, Control_c, 0, 64, 94
1, 142757, Control_c, 0, 67, 106
1, 142772, Control_c, 0, 64, 78
1, 142772, Control_c, 0, 67, 105
1, 142787, Control_c, 0, 64, 63
1, 142793, Note_on_c, 0, 37, 27
1, 142795, Note_off_c, 0, 75, 62
1, 142802, Control_c, 0, 64, 0
1, 142802, Control_c, 0, 67, 104
1, 142816, Control_c, 0, 67, 104
1, 142817, Note_on_c, 0, 71, 34
1, 142831, Control_c, 0, 67, 103
1, 142846, Control_c, 0, 64, 61
1, 142861, Control_c, 0, 64, 70
1, 142861, Control_c, 0, 67, 102
1, 142875, Control_c, 0, 64, 79
1, 142875, Control_c, 0, 67, 101
1, 142889, Note_off_c, 0, 37, 59
1, 142892, Control_c, 0, 64, 90
1, 142892, Control_c, 0, 67, 98
1, 142906, Control_c, 0, 64, 97
1, 142906, Control_c, 0, 67, 93
1, 142921, Control_c, 0, 64, 101
1, 142921, Control_c, 0, 67, 88
1, 142936, Control_c, 0, 64, 103
1, 142936, Control_c, 0, 67, 82
1, 142951, Control_c, 0, 64, 104
1, 142951, Control_c, 0, 67, 77
1, 142965, Control_c, 0, 64, 105
1, 142965, Control_c, 0, 67, 74
1, 142980, Control_c, 0, 64, 108
1, 142980, Control_c, 0, 67, 72
1, 142990, Note_on_c, 0, 65, 56
1, 142995, Control_c, 0, 64, 110
1, 142995, Control_c, 0, 67, 71
1, 143010, Control_c, 0, 64, 115
1, 143010, Control_c, 0, 67, 70
1, 143025, Control_c, 0, 64, 120
1, 143025, Control_c, 0, 67, 70
1, 143039, Control_c, 0, 64, 127
1, 143039, Control_c, 0, 67, 69
1, 143048, Note_off_c, 0, 71, 32
1, 143054, Control_c, 0, 67, 69
1, 143073, Note_off_c, 0, 65, 62
1, 143076, Control_c, 0, 67, 68
1, 143091, Control_c, 0, 67, 68
1, 143106, Control_c, 0, 67, 67
1, 143165, Control_c, 0, 67, 67
1, 143178, Note_on_c, 0, 56, 44
1, 143180, Control_c, 0, 67, 66
1, 143194, Note_on_c, 0, 71, 59
1, 143195, Control_c, 0, 67, 66
1, 143210, Control_c, 0, 67, 64
1, 143225, Control_c, 0, 67, 61
1, 143240, Control_c, 0, 67, 58
1, 143254, Control_c, 0, 67, 55
1, 143269, Control_c, 0, 67, 51
1, 143284, Control_c, 0, 67, 46
1, 143298, Control_c, 0, 67, 42
1, 143313, Control_c, 0, 67, 39
1, 143328, Control_c, 0, 67, 37
1, 143343, Control_c, 0, 67, 35
1, 143358, Control_c, 0, 67, 35
1, 143362, Note_on_c, 0, 75, 60
1, 143372, Control_c, 0, 67, 34
1, 143387, Control_c, 0, 67, 33
1, 143402, Control_c, 0, 67, 32
1, 143432, Control_c, 0, 67, 31
1, 143446, Control_c, 0, 67, 30
1, 143461, Control_c, 0, 67, 30
1, 143476, Control_c, 0, 67, 29
1, 143491, Control_c, 0, 67, 28
1, 143506, Control_c, 0, 67, 26
1, 143512, Note_on_c, 0, 65, 45
1, 143520, Control_c, 0, 67, 24
1, 143522, Note_on_c, 0, 68, 66
1, 143527, Note_on_c, 0, 61, 48
1, 143535, Control_c, 0, 67, 23
1, 143550, Control_c, 0, 67, 22
1, 143565, Control_c, 0, 67, 20
1, 143568, Note_off_c, 0, 65, 62
1, 143580, Control_c, 0, 67, 20
1, 143595, Control_c, 0, 67, 19
1, 143609, Note_off_c, 0, 61, 62
1, 143624, Control_c, 0, 67, 18
1, 143639, Control_c, 0, 67, 17
1, 143654, Control_c, 0, 67, 17
1, 143660, Note_off_c, 0, 75, 31
1, 143669, Control_c, 0, 67, 16
1, 143681, Note_off_c, 0, 71, 26
1, 143681, Note_on_c, 0, 73, 72
1, 143705, Note_off_c, 0, 68, 63
1, 143720, Note_off_c, 0, 73, 57
1, 143858, Note_on_c, 0, 65, 50
1, 143869, Note_on_c, 0, 61, 49
1, 143869, Control_c, 0, 67, 17
1, 143884, Control_c, 0, 64, 101
1, 143889, Note_on_c, 0, 71, 67
1, 143899, Control_c, 0, 64, 83
1, 143914, Control_c, 0, 64, 66
1, 143929, Control_c, 0, 64, 0
1, 143929, Control_c, 0, 67, 17
1, 143950, Note_off_c, 0, 56, 57
1, 143974, Control_c, 0, 67, 18
1, 144003, Control_c, 0, 64, 50
1, 144018, Control_c, 0, 64, 59
1, 144033, Control_c, 0, 64, 64
1, 144033, Control_c, 0, 67, 18
1, 144044, Note_on_c, 0, 73, 73
1, 144048, Control_c, 0, 64, 69
1, 144062, Control_c, 0, 64, 76
1, 144076, Control_c, 0, 64, 87
1, 144091, Control_c, 0, 64, 95
1, 144091, Control_c, 0, 67, 19
1, 144106, Control_c, 0, 64, 103
1, 144106, Control_c, 0, 67, 19
1, 144120, Control_c, 0, 64, 109
1, 144120, Control_c, 0, 67, 20
1, 144135, Control_c, 0, 64, 113
1, 144135, Control_c, 0, 67, 20
1, 144150, Control_c, 0, 64, 118
1, 144150, Control_c, 0, 67, 21
1, 144165, Control_c, 0, 64, 125
1, 144180, Control_c, 0, 64, 127
1, 144210, Note_on_c, 0, 56, 44
1, 144215, Note_on_c, 0, 77, 73
1, 144224, Control_c, 0, 67, 21
1, 144232, Note_off_c, 0, 65, 59
1, 144239, Control_c, 0, 67, 22
1, 144269, Control_c, 0, 67, 22
1, 144284, Control_c, 0, 67, 23
1, 144289, Note_off_c, 0, 73, 63
1, 144291, Note_off_c, 0, 56, 57
1, 144299, Control_c, 0, 67, 23
1, 144305, Note_off_c, 0, 61, 59
1, 144373, Control_c, 0, 67, 24
1, 144376, Note_on_c, 0, 82, 78
1, 144387, Control_c, 0, 67, 24
1, 144549, Note_on_c, 0, 80, 76
1, 144662, Control_c, 0, 67, 25
1, 144736, Note_on_c, 0, 75, 60
1, 144769, Note_off_c, 0, 71, 58
1, 144796, Control_c, 0, 67, 25
1, 144802, Note_off_c, 0, 77, 49
1, 144807, Note_off_c, 0, 80, 52
1, 144850, Note_off_c, 0, 82, 47
1, 144884, Control_c, 0, 64, 112
1, 144899, Control_c, 0, 64, 93
1, 144914, Control_c, 0, 64, 76
1, 144929, Control_c, 0, 64, 53
1, 144933, Note_off_c, 0, 75, 62
1, 144936, Note_on_c, 0, 37, 26
1, 144943, Control_c, 0, 64, 0
1, 144943, Control_c, 0, 67, 25
1, 144958, Control_c, 0, 67, 24
1, 144973, Control_c, 0, 64, 59
1, 144985, Note_on_c, 0, 71, 53
1, 144988, Control_c, 0, 64, 67
1, 145003, Control_c, 0, 64, 76
1, 145003, Control_c, 0, 67, 24
1, 145017, Control_c, 0, 64, 87
1, 145017, Control_c, 0, 67, 23
1, 145032, Control_c, 0, 64, 100
1, 145035, Note_off_c, 0, 37, 60
1, 145047, Control_c, 0, 64, 109
1, 145047, Control_c, 0, 67, 23
1, 145062, Control_c, 0, 64, 117
1, 145062, Control_c, 0, 67, 22
1, 145077, Control_c, 0, 64, 127
1, 145142, Note_on_c, 0, 65, 54
1, 145172, Note_off_c, 0, 71, 37
1, 145209, Note_off_c, 0, 65, 60
1, 145317, Note_on_c, 0, 56, 40
1, 145332, Note_on_c, 0, 71, 50
1, 145381, Control_c, 0, 67, 22
1, 145485, Control_c, 0, 67, 21
1, 145494, Note_on_c, 0, 75, 46
1, 145545, Control_c, 0, 67, 21
1, 145589, Control_c, 0, 67, 20
1, 145619, Control_c, 0, 67, 20
1, 145670, Note_on_c, 0, 68, 55
1, 145672, Note_on_c, 0, 65, 38
1, 145679, Control_c, 0, 67, 19
1, 145695, Note_on_c, 0, 61, 37
1, 145708, Control_c, 0, 67, 19
1, 145721, Note_off_c, 0, 71, 34
1, 145741, Note_off_c, 0, 65, 59
1, 145742, Note_off_c, 0, 75, 30
1, 145749, Note_off_c, 0, 61, 58
1, 145834, Note_off_c, 0, 68, 62
1, 145837, Note_on_c, 0, 73, 50
1, 145861, Note_off_c, 0, 73, 61
1, 145959, Control_c, 0, 67, 19
1, 146048, Control_c, 0, 67, 20
1, 146050, Note_on_c, 0, 71, 47
1, 146079, Note_on_c, 0, 65, 31
1, 146086, Control_c, 0, 64, 121
1, 146086, Control_c, 0, 67, 20
1, 146089, Note_on_c, 0, 61, 38
1, 146102, Control_c, 0, 64, 101
1, 146116, Control_c, 0, 64, 86
1, 146131, Control_c, 0, 64, 71
1, 146146, Control_c, 0, 64, 49
1, 146161, Control_c, 0, 64, 0
1, 146176, Control_c, 0, 67, 21
1, 146205, Control_c, 0, 64, 49
1, 146206, Note_off_c, 0, 56, 41
1, 146220, Control_c, 0, 64, 62
1, 146220, Control_c, 0, 67, 21
1, 146235, Control_c, 0, 64, 66
1, 146243, Note_on_c, 0, 73, 54
1, 146250, Control_c, 0, 64, 69
1, 146264, Control_c, 0, 64, 74
1, 146279, Control_c, 0, 64, 82
1, 146294, Control_c, 0, 64, 89
1, 146309, Control_c, 0, 64, 95
1, 146323, Control_c, 0, 64, 101
1, 146338, Control_c, 0, 64, 106
1, 146338, Control_c, 0, 67, 22
1, 146353, Control_c, 0, 64, 109
1, 146368, Control_c, 0, 64, 113
1, 146368, Control_c, 0, 67, 22
1, 146383, Control_c, 0, 64, 116
1, 146397, Control_c, 0, 64, 120
1, 146408, Note_off_c, 0, 71, 34
1, 146412, Control_c, 0, 64, 125
1, 146427, Control_c, 0, 64, 127
1, 146443, Note_on_c, 0, 77, 49
1, 146447, Note_on_c, 0, 56, 33
1, 146462, Note_off_c, 0, 65, 41
1, 146501, Control_c, 0, 67, 23
1, 146511, Note_off_c, 0, 73, 36
1, 146573, Note_off_c, 0, 61, 37
1, 146577, Note_off_c, 0, 77, 53
1, 146585, Note_off_c, 0, 56, 31
1, 146590, Control_c, 0, 67, 23
1, 146591, Note_on_c, 0, 80, 65
1, 146620, Control_c, 0, 67, 24
1, 146623, Note_off_c, 0, 80, 64
1, 146634, Control_c, 0, 67, 24
1, 146708, Control_c, 0, 67, 25
1, 146723, Control_c, 0, 67, 25
1, 146819, Note_on_c, 0, 83, 47
1, 146820, Control_c, 0, 67, 25
1, 146864, Control_c, 0, 67, 25
1, 146999, Control_c, 0, 67, 26
1, 147028, Note_on_c, 0, 85, 61
1, 147028, Control_c, 0, 67, 26
1, 147146, Control_c, 0, 67, 26
1, 147176, Control_c, 0, 67, 25
1, 147250, Control_c, 0, 64, 120
1, 147258, Note_on_c, 0, 37, 35
1, 147265, Control_c, 0, 64, 100
1, 147279, Control_c, 0, 64, 83
1, 147294, Control_c, 0, 64, 66
1, 147295, Note_on_c, 0, 87, 61
1, 147309, Control_c, 0, 64, 0
1, 147339, Control_c, 0, 64, 31
1, 147354, Control_c, 0, 64, 63
1, 147369, Control_c, 0, 64, 70
1, 147375, Note_off_c, 0, 37, 60
1, 147384, Control_c, 0, 64, 78
1, 147399, Control_c, 0, 64, 90
1, 147413, Control_c, 0, 64, 102
1, 147428, Control_c, 0, 64, 124
1, 147428, Control_c, 0, 67, 24
1, 147443, Control_c, 0, 64, 127
1, 147457, Control_c, 0, 67, 23
1, 147514, Note_on_c, 0, 90, 64
1, 147583, Control_c, 0, 67, 23
1, 147598, Control_c, 0, 67, 22
1, 147658, Control_c, 0, 67, 23
1, 147703, Control_c, 0, 67, 22
1, 147703, Note_on_c, 0, 56, 36
1, 147722, Note_on_c, 0, 89, 63
1, 147745, Note_off_c, 0, 85, 41
1, 147762, Control_c, 0, 67, 22
1, 147850, Control_c, 0, 67, 21
1, 147864, Note_off_c, 0, 83, 54
1, 147865, Control_c, 0, 67, 21
1, 147866, Note_on_c, 0, 85, 58
1, 147906, Note_off_c, 0, 89, 60
1, 147924, Control_c, 0, 67, 20
1, 147945, Note_off_c, 0, 87, 50
1, 147945, Note_off_c, 0, 90, 30
1, 147954, Control_c, 0, 67, 20
1, 147983, Control_c, 0, 67, 19
1, 148028, Control_c, 0, 67, 19
1, 148040, Note_off_c, 0, 85, 62
1, 148060, Note_on_c, 0, 61, 43
1, 148067, Note_on_c, 0, 65, 45
1, 148070, Note_on_c, 0, 83, 61
1, 148156, Note_off_c, 0, 61, 59
1, 148156, Note_off_c, 0, 65, 57
1, 148189, Note_off_c, 0, 83, 59
1, 148231, Note_on_c, 0, 80, 59
1, 148435, Control_c, 0, 67, 19
1, 148442, Note_on_c, 0, 61, 35
1, 148450, Note_on_c, 0, 65, 33
1, 148451, Note_off_c, 0, 80, 61
1, 148457, Note_on_c, 0, 75, 48
1, 148465, Control_c, 0, 67, 20
1, 148543, Note_off_c, 0, 56, 51
1, 148609, Note_on_c, 0, 78, 62
1, 148614, Control_c, 0, 67, 20
1, 148627, Note_off_c, 0, 75, 55
1, 148658, Control_c, 0, 67, 21
1, 148732, Control_c, 0, 67, 21
1, 148806, Control_c, 0, 67, 22
1, 148814, Note_on_c, 0, 77, 55
1, 148815, Note_on_c, 0, 56, 38
1, 148850, Control_c, 0, 67, 22
1, 148891, Note_off_c, 0, 65, 41
1, 148940, Control_c, 0, 67, 23
1, 148955, Control_c, 0, 67, 23
1, 148965, Note_off_c, 0, 56, 35
1, 148966, Note_off_c, 0, 61, 40
1, 148989, Note_on_c, 0, 73, 53
1, 148996, Note_off_c, 0, 78, 16
1, 148999, Control_c, 0, 67, 24
1, 149003, Note_off_c, 0, 77, 52
1, 149028, Control_c, 0, 67, 24
1, 149043, Control_c, 0, 67, 25
1, 149065, Control_c, 0, 67, 25
1, 149095, Control_c, 0, 67, 26
1, 149110, Control_c, 0, 67, 26
1, 149154, Note_off_c, 0, 73, 61
1, 149154, Control_c, 0, 67, 27
1, 149184, Control_c, 0, 67, 26
1, 149207, Note_on_c, 0, 71, 47
1, 149348, Control_c, 0, 67, 27
1, 149405, Note_on_c, 0, 68, 51
1, 149437, Control_c, 0, 67, 27
1, 149438, Note_off_c, 0, 71, 37
1, 149452, Control_c, 0, 67, 28
1, 149585, Control_c, 0, 67, 28
1, 149614, Control_c, 0, 67, 29
1, 149644, Control_c, 0, 67, 29
1, 149658, Control_c, 0, 64, 119
1, 149658, Control_c, 0, 67, 30
1, 149673, Control_c, 0, 64, 97
1, 149673, Control_c, 0, 67, 30
1, 149688, Control_c, 0, 64, 79
1, 149688, Control_c, 0, 67, 32
1, 149703, Control_c, 0, 64, 62
1, 149718, Control_c, 0, 64, 0
1, 149718, Control_c, 0, 67, 32
1, 149733, Control_c, 0, 67, 32
1, 149733, Note_on_c, 0, 37, 27
1, 149743, Note_on_c, 0, 70, 50
1, 149748, Note_off_c, 0, 68, 58
1, 149777, Control_c, 0, 64, 51
1, 149792, Control_c, 0, 64, 64
1, 149814, Control_c, 0, 64, 73
1, 149829, Control_c, 0, 64, 84
1, 149844, Control_c, 0, 64, 98
1, 149844, Control_c, 0, 67, 31
1, 149858, Control_c, 0, 64, 116
1, 149858, Control_c, 0, 67, 31
1, 149873, Control_c, 0, 64, 127
1, 149873, Control_c, 0, 67, 30
1, 149888, Control_c, 0, 67, 30
1, 149903, Note_off_c, 0, 37, 58
1, 149947, Control_c, 0, 67, 29
1, 149962, Control_c, 0, 67, 29
1, 150185, Control_c, 0, 67, 29
1, 150252, Note_on_c, 0, 58, 21
1, 150362, Control_c, 0, 67, 29
1, 150407, Control_c, 0, 67, 28
1, 150481, Control_c, 0, 67, 28
1, 150621, Note_on_c, 0, 61, 41
1, 150622, Control_c, 0, 67, 27
1, 150636, Note_on_c, 0, 66, 40
1, 150651, Control_c, 0, 67, 27
1, 150729, Note_off_c, 0, 61, 60
1, 150748, Note_off_c, 0, 66, 60
1, 150770, Control_c, 0, 67, 26
1, 150814, Control_c, 0, 67, 26
1, 150874, Control_c, 0, 67, 25
1, 150904, Control_c, 0, 67, 25
1, 150964, Control_c, 0, 67, 24
1, 151062, Note_on_c, 0, 66, 33
1, 151068, Note_on_c, 0, 61, 39
1, 151082, Control_c, 0, 67, 24
1, 151156, Control_c, 0, 67, 23
1, 151221, Note_off_c, 0, 58, 56
1, 151247, Note_on_c, 0, 73, 46
1, 151459, Note_on_c, 0, 78, 62
1, 151462, Note_on_c, 0, 58, 46
1, 151529, Note_off_c, 0, 66, 43
1, 151533, Control_c, 0, 67, 23
1, 151549, Control_c, 0, 67, 22
1, 151562, Note_off_c, 0, 58, 59
1, 151569, Note_off_c, 0, 61, 57
1, 151593, Control_c, 0, 67, 22
1, 151629, Note_on_c, 0, 80, 73
1, 151727, Control_c, 0, 67, 22
1, 151787, Control_c, 0, 67, 23
1, 151801, Note_on_c, 0, 82, 76
1, 151801, Control_c, 0, 67, 23
1, 151846, Control_c, 0, 67, 24
1, 151855, Note_off_c, 0, 70, 60
1, 151861, Control_c, 0, 67, 24
1, 151891, Control_c, 0, 67, 25
1, 151921, Control_c, 0, 67, 25
1, 151941, Note_off_c, 0, 73, 0
1, 151965, Control_c, 0, 67, 26
1, 151967, Note_on_c, 0, 71, 62
1, 151978, Poly_aftertouch_c, 0, 73, 127
1, 151980, Control_c, 0, 67, 26
1, 151995, Control_c, 0, 67, 27
1, 152008, Note_off_c, 0, 71, 56
1, 152051, Poly_aftertouch_c, 0, 73, 0
1, 152061, Control_c, 0, 67, 27
1, 152091, Control_c, 0, 67, 28
1, 152120, Control_c, 0, 67, 29
1, 152135, Control_c, 0, 64, 109
1, 152146, Note_off_c, 0, 78, 30
1, 152150, Control_c, 0, 64, 87
1, 152153, Note_on_c, 0, 37, 50
1, 152161, Note_on_c, 0, 70, 68
1, 152165, Control_c, 0, 64, 67
1, 152177, Note_off_c, 0, 82, 49
1, 152180, Control_c, 0, 64, 0
1, 152180, Control_c, 0, 67, 28
1, 152193, Note_off_c, 0, 80, 20
1, 152195, Control_c, 0, 67, 28
1, 152209, Control_c, 0, 67, 27
1, 152224, Control_c, 0, 64, 56
1, 152224, Control_c, 0, 67, 27
1, 152239, Control_c, 0, 64, 72
1, 152239, Control_c, 0, 67, 26
1, 152244, Note_off_c, 0, 37, 66
1, 152253, Control_c, 0, 64, 89
1, 152268, Control_c, 0, 64, 116
1, 152268, Control_c, 0, 67, 25
1, 152283, Control_c, 0, 64, 127
1, 152298, Control_c, 0, 67, 24
1, 152313, Control_c, 0, 67, 24
1, 152321, Note_on_c, 0, 73, 79
1, 152327, Control_c, 0, 67, 23
1, 152372, Control_c, 0, 67, 23
1, 152401, Control_c, 0, 67, 22
1, 152476, Control_c, 0, 67, 23
1, 152491, Control_c, 0, 67, 23
1, 152492, Note_on_c, 0, 78, 79
1, 152503, Note_on_c, 0, 58, 56
1, 152521, Control_c, 0, 67, 24
1, 152580, Control_c, 0, 67, 24
1, 152638, Note_on_c, 0, 80, 80
1, 152654, Control_c, 0, 67, 25
1, 152669, Control_c, 0, 67, 25
1, 152692, Note_off_c, 0, 73, 58
1, 152699, Control_c, 0, 67, 25
1, 152729, Control_c, 0, 67, 24
1, 152743, Control_c, 0, 67, 25
1, 152813, Note_on_c, 0, 61, 55
1, 152813, Note_on_c, 0, 66, 50
1, 152815, Note_off_c, 0, 70, 56
1, 152829, Note_on_c, 0, 82, 74
1, 152839, Control_c, 0, 67, 24
1, 152842, Note_off_c, 0, 78, 59
1, 152857, Note_off_c, 0, 80, 63
1, 152883, Note_off_c, 0, 82, 64
1, 152884, Control_c, 0, 67, 25
1, 152920, Note_off_c, 0, 61, 60
1, 152928, Control_c, 0, 67, 25
1, 152931, Note_off_c, 0, 66, 61
1, 152998, Note_on_c, 0, 85, 70
1, 153030, Note_off_c, 0, 85, 59
1, 153106, Control_c, 0, 67, 25
1, 153180, Control_c, 0, 67, 24
1, 153197, Note_on_c, 0, 66, 49
1, 153199, Note_on_c, 0, 61, 54
1, 153204, Note_on_c, 0, 90, 76
1, 153224, Control_c, 0, 67, 24
1, 153254, Control_c, 0, 67, 23
1, 153299, Control_c, 0, 67, 23
1, 153337, Note_off_c, 0, 58, 62
1, 153344, Control_c, 0, 67, 22
1, 153359, Note_on_c, 0, 85, 8
1, 153396, Note_on_c, 0, 92, 80
1, 153492, Control_c, 0, 67, 23
1, 153521, Control_c, 0, 67, 24
1, 153536, Control_c, 0, 67, 25
1, 153559, Control_c, 0, 67, 25
1, 153672, Note_on_c, 0, 58, 41
1, 153679, Note_on_c, 0, 94, 67
1, 153692, Control_c, 0, 67, 25
1, 153706, Control_c, 0, 67, 24
1, 153728, Note_off_c, 0, 90, 35
1, 153781, Control_c, 0, 67, 24
1, 153796, Control_c, 0, 67, 23
1, 153854, Note_on_c, 0, 90, 62
1, 153855, Control_c, 0, 67, 23
1, 153870, Control_c, 0, 67, 22
1, 153931, Note_off_c, 0, 66, 57
1, 153959, Control_c, 0, 67, 22
1, 153969, Note_off_c, 0, 58, 56
1, 153993, Note_off_c, 0, 85, 33
1, 154033, Note_off_c, 0, 61, 61
1, 154082, Note_on_c, 0, 87, 62
1, 154088, Note_off_c, 0, 94, 37
1, 154128, Note_off_c, 0, 92, 40
1, 154137, Note_off_c, 0, 90, 57
1, 154255, Control_c, 0, 67, 22
1, 154281, Note_off_c, 0, 87, 62
1, 154290, Note_on_c, 0, 85, 55
1, 154589, Control_c, 0, 64, 106
1, 154595, Note_on_c, 0, 89, 57
1, 154595, Note_on_c, 0, 37, 36
1, 154603, Control_c, 0, 64, 84
1, 154618, Control_c, 0, 64, 67
1, 154633, Control_c, 0, 64, 0
1, 154662, Control_c, 0, 67, 23
1, 154677, Control_c, 0, 67, 23
1, 154692, Control_c, 0, 64, 55
1, 154692, Control_c, 0, 67, 24
1, 154707, Control_c, 0, 64, 68
1, 154707, Control_c, 0, 67, 24
1, 154721, Control_c, 0, 64, 77
1, 154736, Control_c, 0, 64, 90
1, 154737, Note_off_c, 0, 37, 57
1, 154751, Control_c, 0, 64, 103
1, 154751, Control_c, 0, 67, 25
1, 154766, Control_c, 0, 64, 118
1, 154779, Note_off_c, 0, 85, 40
1, 154781, Control_c, 0, 64, 127
1, 154795, Control_c, 0, 67, 25
1, 154810, Control_c, 0, 67, 26
1, 154815, Note_on_c, 0, 87, 53
1, 154825, Control_c, 0, 67, 26
1, 154840, Control_c, 0, 67, 27
1, 154900, Control_c, 0, 67, 26
1, 154959, Control_c, 0, 67, 27
1, 155008, Note_on_c, 0, 82, 45
1, 155079, Poly_aftertouch_c, 0, 56, 127
1, 155100, Control_c, 0, 67, 27
1, 155115, Control_c, 0, 67, 28
1, 155165, Note_off_c, 0, 89, 28
1, 155174, Control_c, 0, 67, 27
1, 155203, Note_off_c, 0, 87, 23
1, 155204, Note_on_c, 0, 84, 52
1, 155204, Control_c, 0, 67, 28
1, 155248, Control_c, 0, 67, 28
1, 155277, Control_c, 0, 67, 29
1, 155323, Control_c, 0, 67, 29
1, 155338, Control_c, 0, 67, 30
1, 155376, Note_on_c, 0, 66, 40
1, 155377, Note_on_c, 0, 60, 29
1, 155396, Note_on_c, 0, 87, 56
1, 155399, Note_off_c, 0, 84, 57
1, 155461, Note_off_c, 0, 60, 58
1, 155480, Note_off_c, 0, 66, 58
1, 155536, Note_off_c, 0, 82, 41
1, 155563, Note_on_c, 0, 85, 60
1, 155649, Control_c, 0, 67, 29
1, 155664, Control_c, 0, 67, 29
1, 155742, Note_on_c, 0, 66, 45
1, 155749, Note_on_c, 0, 60, 34
1, 155768, Control_c, 0, 64, 106
1, 155778, Note_on_c, 0, 80, 50
1, 155783, Control_c, 0, 64, 90
1, 155805, Control_c, 0, 64, 76
1, 155820, Control_c, 0, 64, 65
1, 155835, Control_c, 0, 64, 44
1, 155850, Control_c, 0, 64, 38
1, 155864, Control_c, 0, 64, 55
1, 155879, Control_c, 0, 64, 64
1, 155894, Control_c, 0, 64, 68
1, 155909, Control_c, 0, 64, 72
1, 155916, Note_off_c, 0, 87, 33
1, 155924, Control_c, 0, 64, 77
1, 155930, Poly_aftertouch_c, 0, 56, 0
1, 155933, Note_off_c, 0, 85, 37
1, 155939, Control_c, 0, 64, 83
1, 155954, Control_c, 0, 64, 89
1, 155959, Note_on_c, 0, 82, 58
1, 155968, Control_c, 0, 64, 96
1, 155983, Control_c, 0, 64, 104
1, 155983, Control_c, 0, 67, 28
1, 155998, Control_c, 0, 64, 112
1, 156013, Control_c, 0, 64, 120
1, 156027, Control_c, 0, 64, 127
1, 156072, Control_c, 0, 67, 28
1, 156116, Control_c, 0, 67, 27
1, 156151, Note_on_c, 0, 85, 58
1, 156177, Note_on_c, 0, 56, 29
1, 156234, Control_c, 0, 67, 27
1, 156297, Note_off_c, 0, 66, 62
1, 156325, Note_off_c, 0, 80, 54
1, 156334, Note_on_c, 0, 84, 61
1, 156338, Control_c, 0, 67, 26
1, 156344, Note_off_c, 0, 60, 56
1, 156347, Note_off_c, 0, 82, 19
1, 156363, Note_off_c, 0, 56, 42
1, 156442, Control_c, 0, 67, 26
1, 156457, Control_c, 0, 67, 25
1, 156573, Note_off_c, 0, 84, 59
1, 156575, Note_on_c, 0, 78, 48
1, 156581, Note_off_c, 0, 85, 25
1, 156643, Control_c, 0, 67, 25
1, 156757, Note_on_c, 0, 80, 58
1, 156924, Control_c, 0, 67, 25
1, 156984, Control_c, 0, 67, 26
1, 157013, Control_c, 0, 64, 127
1, 157028, Control_c, 0, 64, 106
1, 157042, Control_c, 0, 64, 90
1, 157057, Control_c, 0, 64, 74
1, 157059, Note_on_c, 0, 84, 51
1, 157072, Control_c, 0, 64, 55
1, 157072, Control_c, 0, 67, 26
1, 157080, Note_off_c, 0, 80, 53
1, 157081, Note_on_c, 0, 37, 26
1, 157087, Control_c, 0, 64, 0
1, 157146, Control_c, 0, 64, 52
1, 157161, Control_c, 0, 64, 63
1, 157161, Control_c, 0, 67, 27
1, 157176, Control_c, 0, 64, 71
1, 157191, Control_c, 0, 64, 81
1, 157206, Control_c, 0, 64, 93
1, 157211, Note_off_c, 0, 37, 57
1, 157221, Control_c, 0, 64, 105
1, 157236, Control_c, 0, 64, 121
1, 157250, Control_c, 0, 64, 127
1, 157280, Control_c, 0, 67, 27
1, 157313, Note_on_c, 0, 82, 51
1, 157318, Control_c, 0, 67, 28
1, 157331, Note_off_c, 0, 78, 51
1, 157362, Control_c, 0, 67, 27
1, 157421, Control_c, 0, 67, 28
1, 157529, Note_on_c, 0, 56, 28
1, 157531, Note_on_c, 0, 77, 40
1, 157569, Control_c, 0, 67, 28
1, 157584, Control_c, 0, 67, 29
1, 157605, Note_off_c, 0, 84, 25
1, 157674, Note_off_c, 0, 77, 54
1, 157682, Note_off_c, 0, 82, 36
1, 157688, Control_c, 0, 67, 29
1, 157689, Note_on_c, 0, 78, 58
1, 157806, Control_c, 0, 67, 30
1, 157876, Note_on_c, 0, 66, 36
1, 157886, Note_on_c, 0, 60, 24
1, 157897, Note_on_c, 0, 82, 53
1, 157897, Note_off_c, 0, 78, 52
1, 157933, Note_off_c, 0, 60, 46
1, 157948, Note_off_c, 0, 66, 57
1, 157954, Control_c, 0, 67, 30
1, 157984, Control_c, 0, 67, 30
1, 158088, Note_on_c, 0, 80, 50
1, 158215, Control_c, 0, 67, 29
1, 158289, Control_c, 0, 64, 117
1, 158291, Note_on_c, 0, 60, 33
1, 158292, Note_on_c, 0, 75, 41
1, 158303, Control_c, 0, 64, 97
1, 158306, Note_on_c, 0, 66, 35
1, 158315, Note_off_c, 0, 82, 20
1, 158318, Control_c, 0, 64, 82
1, 158333, Control_c, 0, 64, 65
1, 158348, Control_c, 0, 64, 0
1, 158359, Note_off_c, 0, 66, 0
1, 158359, Note_on_c, 0, 66, 4
1, 158365, Note_off_c, 0, 80, 30
1, 158407, Control_c, 0, 64, 17
1, 158422, Control_c, 0, 64, 47
1, 158422, Control_c, 0, 67, 30
1, 158437, Control_c, 0, 64, 55
1, 158452, Control_c, 0, 64, 61
1, 158467, Control_c, 0, 64, 65
1, 158473, Note_off_c, 0, 56, 49
1, 158482, Control_c, 0, 64, 70
1, 158496, Control_c, 0, 64, 77
1, 158511, Control_c, 0, 64, 86
1, 158526, Control_c, 0, 64, 95
1, 158527, Note_on_c, 0, 77, 47
1, 158541, Control_c, 0, 64, 100
1, 158556, Control_c, 0, 64, 104
1, 158570, Control_c, 0, 64, 108
1, 158585, Control_c, 0, 64, 112
1, 158600, Control_c, 0, 64, 120
1, 158614, Control_c, 0, 64, 127
1, 158644, Control_c, 0, 67, 29
1, 158659, Control_c, 0, 67, 29
1, 158748, Control_c, 0, 67, 28
1, 158779, Note_off_c, 0, 77, 36
1, 158795, Note_on_c, 0, 80, 47
1, 158819, Note_on_c, 0, 56, 28
1, 158829, Control_c, 0, 67, 28
1, 158890, Control_c, 0, 67, 27
1, 158919, Control_c, 0, 67, 26
1, 158934, Control_c, 0, 67, 26
1, 158949, Control_c, 0, 67, 25
1, 158979, Control_c, 0, 67, 25
1, 158993, Control_c, 0, 67, 24
1, 159008, Control_c, 0, 67, 23
1, 159010, Note_on_c, 0, 78, 55
1, 159010, Note_off_c, 0, 75, 43
1, 159023, Control_c, 0, 67, 23
1, 159038, Control_c, 0, 67, 22
1, 159051, Note_off_c, 0, 66, 43
1, 159067, Control_c, 0, 67, 22
1, 159087, Note_off_c, 0, 56, 41
1, 159105, Note_off_c, 0, 60, 57
1, 159112, Control_c, 0, 67, 21
1, 159126, Control_c, 0, 67, 21
1, 159171, Control_c, 0, 67, 20
1, 159275, Control_c, 0, 67, 20
1, 159286, Note_on_c, 0, 73, 45
1, 159305, Note_off_c, 0, 78, 35
1, 159549, Note_on_c, 0, 75, 48
1, 159549, Control_c, 0, 67, 20
1, 159578, Control_c, 0, 67, 21
1, 159623, Control_c, 0, 67, 21
1, 159624, Note_off_c, 0, 73, 34
1, 159652, Note_off_c, 0, 80, 30
1, 159683, Control_c, 0, 67, 22
1, 159757, Control_c, 0, 67, 22
1, 159846, Control_c, 0, 67, 23
1, 159875, Control_c, 0, 67, 23
1, 159902, Note_on_c, 0, 37, 32
1, 159920, Control_c, 0, 64, 105
1, 159920, Control_c, 0, 67, 24
1, 159934, Control_c, 0, 64, 87
1, 159949, Control_c, 0, 64, 68
1, 159949, Control_c, 0, 67, 24
1, 159962, Note_on_c, 0, 77, 59
1, 159964, Control_c, 0, 64, 0
1, 160018, Note_off_c, 0, 75, 61
1, 160038, Control_c, 0, 64, 58
1, 160053, Control_c, 0, 64, 67
1, 160067, Control_c, 0, 64, 75
1, 160082, Control_c, 0, 64, 86
1, 160097, Control_c, 0, 64, 97
1, 160097, Control_c, 0, 67, 24
1, 160102, Note_off_c, 0, 37, 56
1, 160112, Control_c, 0, 64, 108
1, 160112, Control_c, 0, 67, 23
1, 160127, Control_c, 0, 64, 125
1, 160142, Control_c, 0, 64, 127
1, 160201, Control_c, 0, 67, 23
1, 160216, Control_c, 0, 67, 22
1, 160246, Control_c, 0, 67, 22
1, 160386, Control_c, 0, 67, 21
1, 160497, Note_on_c, 0, 56, 20
1, 160711, Control_c, 0, 67, 22
1, 160935, Note_on_c, 0, 65, 22
1, 161012, Poly_aftertouch_c, 0, 61, 127
1, 161058, Poly_aftertouch_c, 0, 61, 0
1, 161077, Note_off_c, 0, 65, 41
1, 161394, Note_on_c, 0, 61, 32
1, 161401, Note_on_c, 0, 65, 27
1, 161416, Control_c, 0, 64, 117
1, 161431, Control_c, 0, 64, 97
1, 161438, Note_on_c, 0, 75, 46
1, 161445, Control_c, 0, 64, 81
1, 161460, Control_c, 0, 64, 66
1, 161475, Control_c, 0, 64, 0
1, 161540, Note_off_c, 0, 77, 36
1, 161549, Control_c, 0, 64, 51
1, 161564, Control_c, 0, 64, 61
1, 161579, Note_off_c, 0, 56, 48
1, 161579, Control_c, 0, 64, 66
1, 161594, Control_c, 0, 64, 72
1, 161594, Control_c, 0, 67, 21
1, 161609, Control_c, 0, 64, 80
1, 161624, Control_c, 0, 64, 87
1, 161624, Control_c, 0, 67, 21
1, 161638, Control_c, 0, 64, 92
1, 161653, Control_c, 0, 64, 97
1, 161668, Control_c, 0, 64, 101
1, 161683, Control_c, 0, 64, 105
1, 161698, Control_c, 0, 64, 108
1, 161712, Control_c, 0, 64, 111
1, 161727, Control_c, 0, 64, 116
1, 161742, Control_c, 0, 64, 123
1, 161757, Control_c, 0, 64, 127
1, 161898, Control_c, 0, 67, 20
1, 161934, Note_on_c, 0, 80, 51
1, 161951, Note_on_c, 0, 56, 27
1, 161957, Control_c, 0, 67, 21
1, 161981, Note_off_c, 0, 75, 61
1, 162070, Note_off_c, 0, 65, 41
1, 162092, Control_c, 0, 67, 21
1, 162156, Note_off_c, 0, 56, 38
1, 162176, Note_off_c, 0, 61, 39
1, 162181, Control_c, 0, 67, 22
1, 162240, Control_c, 0, 67, 22
1, 162361, Note_on_c, 0, 77, 56
1, 162387, Control_c, 0, 67, 23
1, 162447, Control_c, 0, 67, 23
1, 162491, Control_c, 0, 67, 24
1, 162506, Control_c, 0, 67, 24
1, 162587, Control_c, 0, 67, 25
1, 162602, Control_c, 0, 67, 25
1, 162676, Control_c, 0, 67, 26
1, 162706, Control_c, 0, 67, 26
1, 162750, Control_c, 0, 67, 27
1, 162765, Control_c, 0, 64, 105
1, 162780, Control_c, 0, 64, 89
1, 162780, Control_c, 0, 67, 27
1, 162787, Note_on_c, 0, 37, 38
1, 162795, Control_c, 0, 64, 72
1, 162800, Note_on_c, 0, 75, 48
1, 162810, Control_c, 0, 64, 34
1, 162814, Note_off_c, 0, 80, 43
1, 162825, Control_c, 0, 64, 0
1, 162840, Control_c, 0, 67, 27
1, 162846, Note_off_c, 0, 77, 58
1, 162870, Control_c, 0, 64, 54
1, 162884, Control_c, 0, 64, 66
1, 162899, Control_c, 0, 64, 73
1, 162911, Note_off_c, 0, 37, 57
1, 162914, Control_c, 0, 64, 85
1, 162914, Control_c, 0, 67, 26
1, 162929, Control_c, 0, 64, 96
1, 162929, Control_c, 0, 67, 26
1, 162944, Control_c, 0, 64, 107
1, 162944, Control_c, 0, 67, 25
1, 162959, Control_c, 0, 64, 118
1, 162974, Control_c, 0, 64, 127
1, 162989, Control_c, 0, 67, 25
1, 163033, Control_c, 0, 67, 25
1, 163078, Control_c, 0, 67, 25
1, 163092, Control_c, 0, 67, 24
1, 163199, Note_off_c, 0, 75, 65
1, 163201, Note_on_c, 0, 77, 51
1, 163230, Note_on_c, 0, 56, 31
1, 163470, Control_c, 0, 67, 24
1, 163588, Control_c, 0, 67, 23
1, 163624, Note_on_c, 0, 73, 43
1, 163630, Note_on_c, 0, 65, 31
1, 163633, Note_on_c, 0, 61, 31
1, 163708, Note_off_c, 0, 61, 53
1, 163736, Note_off_c, 0, 65, 46
1, 164041, Control_c, 0, 67, 24
1, 164056, Control_c, 0, 67, 24
1, 164071, Control_c, 0, 64, 122
1, 164086, Control_c, 0, 64, 104
1, 164099, Note_on_c, 0, 70, 48
1, 164101, Control_c, 0, 64, 89
1, 164103, Note_on_c, 0, 65, 23
1, 164104, Note_on_c, 0, 61, 31
1, 164115, Control_c, 0, 64, 73
1, 164118, Note_off_c, 0, 77, 35
1, 164130, Control_c, 0, 64, 45
1, 164136, Note_off_c, 0, 73, 53
1, 164145, Control_c, 0, 64, 0
1, 164172, Note_off_c, 0, 65, 0
1, 164172, Note_on_c, 0, 65, 3
1, 164189, Control_c, 0, 67, 25
1, 164204, Control_c, 0, 64, 32
1, 164219, Control_c, 0, 64, 57
1, 164233, Control_c, 0, 64, 64
1, 164248, Control_c, 0, 64, 70
1, 164263, Control_c, 0, 64, 80
1, 164263, Control_c, 0, 67, 24
1, 164278, Control_c, 0, 64, 89
1, 164293, Control_c, 0, 64, 97
1, 164293, Control_c, 0, 67, 24
1, 164303, Note_off_c, 0, 56, 40
1, 164307, Control_c, 0, 64, 104
1, 164307, Control_c, 0, 67, 23
1, 164322, Control_c, 0, 64, 109
1, 164337, Control_c, 0, 64, 112
1, 164352, Control_c, 0, 64, 115
1, 164366, Control_c, 0, 64, 117
1, 164366, Control_c, 0, 67, 23
1, 164381, Control_c, 0, 64, 118
1, 164381, Control_c, 0, 67, 22
1, 164396, Control_c, 0, 64, 119
1, 164396, Control_c, 0, 67, 22
1, 164411, Control_c, 0, 64, 120
1, 164411, Control_c, 0, 67, 21
1, 164426, Control_c, 0, 64, 123
1, 164426, Control_c, 0, 67, 20
1, 164440, Control_c, 0, 64, 127
1, 164456, Control_c, 0, 67, 20
1, 164471, Control_c, 0, 67, 19
1, 164486, Control_c, 0, 67, 19
1, 164501, Control_c, 0, 67, 18
1, 164516, Control_c, 0, 67, 18
1, 164530, Control_c, 0, 67, 16
1, 164545, Control_c, 0, 67, 12
1, 164553, Note_on_c, 0, 73, 48
1, 164560, Control_c, 0, 67, 0
1, 164587, Note_on_c, 0, 56, 22
1, 164621, Note_off_c, 0, 70, 36
1, 164828, Note_off_c, 0, 65, 42
1, 164915, Note_off_c, 0, 56, 39
1, 164936, Note_off_c, 0, 61, 41
1, 165002, Note_on_c, 0, 68, 46
1, 165048, Note_off_c, 0, 73, 35
1, 165339, Control_c, 0, 67, 8
1, 165353, Control_c, 0, 67, 8
1, 165368, Control_c, 0, 67, 9
1, 165383, Control_c, 0, 67, 10
1, 165397, Control_c, 0, 67, 11
1, 165412, Control_c, 0, 67, 12
1, 165427, Control_c, 0, 67, 12
1, 165442, Control_c, 0, 67, 13
1, 165457, Control_c, 0, 67, 14
1, 165466, Note_on_c, 0, 37, 30
1, 165472, Control_c, 0, 64, 109
1, 165472, Control_c, 0, 67, 15
1, 165487, Control_c, 0, 64, 93
1, 165487, Control_c, 0, 67, 15
1, 165502, Control_c, 0, 64, 75
1, 165502, Control_c, 0, 67, 16
1, 165517, Control_c, 0, 64, 54
1, 165517, Control_c, 0, 67, 17
1, 165539, Control_c, 0, 64, 0
1, 165539, Control_c, 0, 67, 17
1, 165543, Note_on_c, 0, 70, 48
1, 165554, Control_c, 0, 67, 18
1, 165568, Control_c, 0, 67, 19
1, 165582, Note_off_c, 0, 68, 59
1, 165583, Control_c, 0, 67, 21
1, 165598, Control_c, 0, 64, 43
1, 165598, Control_c, 0, 67, 25
1, 165612, Control_c, 0, 64, 62
1, 165612, Control_c, 0, 67, 27
1, 165627, Control_c, 0, 64, 68
1, 165627, Control_c, 0, 67, 28
1, 165642, Control_c, 0, 64, 77
1, 165642, Control_c, 0, 67, 28
1, 165644, Note_off_c, 0, 37, 60
1, 165657, Control_c, 0, 64, 88
1, 165657, Control_c, 0, 67, 29
1, 165672, Control_c, 0, 64, 98
1, 165686, Control_c, 0, 64, 107
1, 165686, Control_c, 0, 67, 30
1, 165701, Control_c, 0, 64, 122
1, 165701, Control_c, 0, 67, 33
1, 165716, Control_c, 0, 64, 127
1, 165716, Control_c, 0, 67, 38
1, 165731, Control_c, 0, 67, 44
1, 165746, Control_c, 0, 67, 52
1, 165761, Control_c, 0, 67, 61
1, 165776, Control_c, 0, 67, 70
1, 165791, Control_c, 0, 67, 75
1, 165805, Control_c, 0, 67, 80
1, 165820, Control_c, 0, 67, 83
1, 165835, Control_c, 0, 67, 85
1, 165850, Control_c, 0, 67, 86
1, 165865, Control_c, 0, 67, 86
1, 165961, Note_on_c, 0, 73, 48
1, 165965, Note_on_c, 0, 56, 26
1, 165998, Note_off_c, 0, 70, 56
1, 166132, Control_c, 0, 67, 87
1, 166265, Control_c, 0, 67, 87
1, 166357, Note_on_c, 0, 68, 47
1, 166390, Note_on_c, 0, 65, 21
1, 166392, Note_on_c, 0, 61, 30
1, 166406, Control_c, 0, 67, 88
1, 166442, Note_off_c, 0, 61, 58
1, 166446, Note_off_c, 0, 65, 47
1, 166510, Note_off_c, 0, 73, 33
1, 166717, Control_c, 0, 67, 87
1, 166776, Control_c, 0, 64, 111
1, 166791, Control_c, 0, 64, 94
1, 166804, Note_on_c, 0, 66, 41
1, 166805, Note_on_c, 0, 61, 35
1, 166806, Control_c, 0, 64, 79
1, 166821, Control_c, 0, 64, 67
1, 166835, Control_c, 0, 64, 42
1, 166838, Note_off_c, 0, 66, 0
1, 166838, Note_on_c, 0, 66, 9
1, 166851, Control_c, 0, 64, 0
1, 166925, Control_c, 0, 64, 33
1, 166940, Control_c, 0, 64, 55
1, 166955, Control_c, 0, 64, 62
1, 166970, Control_c, 0, 64, 65
1, 166985, Control_c, 0, 64, 69
1, 166995, Note_off_c, 0, 56, 41
1, 166999, Control_c, 0, 64, 75
1, 167014, Control_c, 0, 64, 83
1, 167037, Control_c, 0, 64, 93
1, 167052, Control_c, 0, 64, 100
1, 167066, Control_c, 0, 64, 106
1, 167081, Control_c, 0, 64, 111
1, 167096, Control_c, 0, 64, 115
1, 167096, Control_c, 0, 67, 87
1, 167111, Control_c, 0, 64, 121
1, 167126, Control_c, 0, 64, 127
1, 167126, Control_c, 0, 67, 86
1, 167184, Control_c, 0, 67, 86
1, 167214, Control_c, 0, 67, 85
1, 167316, Note_on_c, 0, 73, 44
1, 167334, Note_on_c, 0, 56, 25
1, 167347, Control_c, 0, 67, 85
1, 167406, Control_c, 0, 67, 84
1, 167496, Control_c, 0, 67, 84
1, 167526, Control_c, 0, 67, 83
1, 167619, Note_off_c, 0, 56, 39
1, 167662, Note_off_c, 0, 61, 36
1, 167800, Note_off_c, 0, 66, 41
1, 167855, Note_on_c, 0, 65, 40
1, 167875, Note_off_c, 0, 73, 33
1, 167885, Note_off_c, 0, 68, 34
1, 167934, Control_c, 0, 67, 83
1, 168127, Control_c, 0, 67, 82
1, 168171, Control_c, 0, 67, 82
1, 168260, Control_c, 0, 67, 81
1, 168319, Control_c, 0, 67, 81
1, 168408, Control_c, 0, 67, 80
1, 168423, Control_c, 0, 67, 80
1, 168438, Control_c, 0, 67, 79
1, 168546, Note_on_c, 0, 37, 28
1, 168565, Control_c, 0, 64, 120
1, 168579, Control_c, 0, 64, 103
1, 168594, Control_c, 0, 64, 90
1, 168609, Control_c, 0, 64, 78
1, 168624, Control_c, 0, 64, 66
1, 168638, Control_c, 0, 64, 0
1, 168638, Control_c, 0, 67, 79
1, 168668, Control_c, 0, 67, 78
1, 168683, Control_c, 0, 64, 42
1, 168683, Control_c, 0, 67, 77
1, 168698, Control_c, 0, 64, 64
1, 168712, Control_c, 0, 64, 71
1, 168712, Control_c, 0, 67, 77
1, 168727, Control_c, 0, 64, 80
1, 168731, Note_off_c, 0, 37, 60
1, 168742, Control_c, 0, 64, 90
1, 168757, Control_c, 0, 64, 97
1, 168757, Control_c, 0, 67, 76
1, 168772, Control_c, 0, 64, 100
1, 168786, Control_c, 0, 64, 102
1, 168801, Control_c, 0, 64, 103
1, 168816, Control_c, 0, 64, 106
1, 168830, Control_c, 0, 64, 108
1, 168845, Control_c, 0, 64, 110
1, 168860, Control_c, 0, 64, 113
1, 168875, Control_c, 0, 64, 116
1, 168890, Control_c, 0, 64, 121
1, 168904, Control_c, 0, 64, 127
1, 168919, Control_c, 0, 67, 77
1, 168948, Control_c, 0, 67, 77
1, 169052, Control_c, 0, 67, 78
1, 169107, Note_on_c, 0, 56, 32
1, 169112, Control_c, 0, 67, 78
1, 169156, Control_c, 0, 67, 79
1, 169230, Control_c, 0, 67, 79
1, 169261, Control_c, 0, 67, 80
1, 169327, Control_c, 0, 67, 80
1, 169342, Control_c, 0, 67, 81
1, 169431, Control_c, 0, 67, 81
1, 169499, Note_off_c, 0, 65, 35
1, 169535, Note_on_c, 0, 61, 47
1, 169550, Control_c, 0, 67, 82
1, 169609, Control_c, 0, 67, 82
1, 169624, Control_c, 0, 67, 83
1, 169645, Note_off_c, 0, 61, 61
1, 169698, Control_c, 0, 67, 83
1, 169949, Control_c, 0, 67, 84
1, 169975, Note_on_c, 0, 61, 38
1, 169979, Control_c, 0, 64, 110
1, 169979, Control_c, 0, 67, 84
1, 169994, Control_c, 0, 64, 88
1, 170009, Control_c, 0, 64, 69
1, 170009, Control_c, 0, 67, 85
1, 170031, Note_on_c, 0, 65, 54
1, 170031, Control_c, 0, 64, 0
1, 170076, Control_c, 0, 67, 84
1, 170121, Control_c, 0, 64, 39
1, 170136, Control_c, 0, 64, 61
1, 170150, Control_c, 0, 64, 67
1, 170165, Control_c, 0, 64, 75
1, 170180, Control_c, 0, 64, 87
1, 170195, Control_c, 0, 64, 101
1, 170195, Control_c, 0, 67, 85
1, 170208, Note_off_c, 0, 56, 50
1, 170209, Control_c, 0, 64, 112
1, 170209, Control_c, 0, 67, 85
1, 170224, Control_c, 0, 64, 121
1, 170224, Control_c, 0, 67, 86
1, 170239, Control_c, 0, 64, 127
1, 170239, Control_c, 0, 67, 86
1, 170254, Control_c, 0, 67, 87
1, 170269, Control_c, 0, 67, 87
1, 170432, Control_c, 0, 67, 87
1, 170447, Control_c, 0, 67, 86
1, 170463, Note_on_c, 0, 68, 58
1, 170486, Note_on_c, 0, 56, 25
1, 170666, Note_off_c, 0, 61, 40
1, 170673, Note_off_c, 0, 56, 41
1, 170809, Control_c, 0, 67, 86
1, 170904, Note_on_c, 0, 63, 45
1, 170929, Control_c, 0, 67, 86
1, 170959, Control_c, 0, 67, 87
1, 170973, Control_c, 0, 67, 87
1, 170999, Note_off_c, 0, 68, 58
1, 171000, Note_off_c, 0, 65, 60
1, 171018, Control_c, 0, 67, 88
1, 171023, Note_off_c, 0, 63, 64
1, 171077, Control_c, 0, 67, 88
1, 171106, Control_c, 0, 67, 89
1, 171121, Control_c, 0, 67, 90
1, 171136, Control_c, 0, 67, 97
1, 171150, Control_c, 0, 67, 102
1, 171165, Control_c, 0, 67, 105
1, 171180, Control_c, 0, 67, 106
1, 171255, Control_c, 0, 67, 105
1, 171285, Control_c, 0, 67, 105
1, 171329, Control_c, 0, 64, 104
1, 171343, Control_c, 0, 64, 82
1, 171358, Control_c, 0, 64, 64
1, 171365, Note_on_c, 0, 63, 39
1, 171368, Note_on_c, 0, 37, 25
1, 171373, Control_c, 0, 64, 0
1, 171373, Control_c, 0, 67, 104
1, 171432, Control_c, 0, 64, 38
1, 171447, Control_c, 0, 64, 60
1, 171447, Control_c, 0, 67, 103
1, 171462, Control_c, 0, 64, 67
1, 171474, Note_off_c, 0, 37, 61
1, 171477, Control_c, 0, 64, 74
1, 171477, Control_c, 0, 67, 103
1, 171491, Control_c, 0, 64, 84
1, 171491, Control_c, 0, 67, 102
1, 171506, Control_c, 0, 64, 94
1, 171506, Control_c, 0, 67, 101
1, 171529, Control_c, 0, 64, 103
1, 171544, Control_c, 0, 64, 113
1, 171558, Control_c, 0, 64, 118
1, 171573, Control_c, 0, 64, 123
1, 171588, Control_c, 0, 64, 127
1, 171603, Control_c, 0, 64, 127
1, 171632, Control_c, 0, 67, 100
1, 171648, Control_c, 0, 67, 100
1, 171768, Control_c, 0, 67, 99
1, 171782, Control_c, 0, 67, 99
1, 171823, Note_on_c, 0, 68, 46
1, 171833, Note_on_c, 0, 56, 27
1, 171922, Note_off_c, 0, 63, 38
1, 171930, Control_c, 0, 67, 98
1, 171989, Control_c, 0, 67, 97
1, 172019, Control_c, 0, 67, 97
1, 172048, Control_c, 0, 67, 96
1, 172078, Control_c, 0, 67, 96
1, 172167, Control_c, 0, 67, 95
1, 172168, Note_off_c, 0, 56, 33
1, 172227, Control_c, 0, 67, 96
1, 172389, Note_on_c, 0, 61, 44
1, 172405, Note_on_c, 0, 65, 41
1, 172471, Control_c, 0, 67, 96
1, 172483, Note_off_c, 0, 68, 37
1, 172531, Control_c, 0, 67, 97
1, 172534, Note_off_c, 0, 61, 55
1, 172534, Note_off_c, 0, 65, 57
1, 172560, Control_c, 0, 67, 97
1, 172620, Control_c, 0, 67, 98
1, 172783, Control_c, 0, 67, 98
1, 172886, Control_c, 0, 67, 99
1, 172997, Note_on_c, 0, 61, 40
1, 173005, Control_c, 0, 64, 116
1, 173005, Control_c, 0, 67, 99
1, 173022, Note_on_c, 0, 65, 34
1, 173027, Control_c, 0, 64, 104
1, 173042, Control_c, 0, 64, 91
1, 173042, Control_c, 0, 67, 100
1, 173057, Control_c, 0, 64, 77
1, 173071, Control_c, 0, 64, 53
1, 173086, Control_c, 0, 64, 0
1, 173116, Control_c, 0, 67, 99
1, 173175, Control_c, 0, 67, 99
1, 173204, Control_c, 0, 64, 56
1, 173204, Control_c, 0, 67, 98
1, 173219, Control_c, 0, 64, 65
1, 173219, Control_c, 0, 67, 98
1, 173234, Control_c, 0, 64, 69
1, 173250, Control_c, 0, 64, 74
1, 173264, Control_c, 0, 64, 82
1, 173279, Control_c, 0, 64, 86
1, 173279, Control_c, 0, 67, 97
1, 173293, Control_c, 0, 64, 91
1, 173308, Control_c, 0, 64, 94
1, 173323, Control_c, 0, 64, 97
1, 173338, Control_c, 0, 64, 100
1, 173353, Control_c, 0, 64, 103
1, 173353, Control_c, 0, 67, 97
1, 173367, Control_c, 0, 64, 107
1, 173367, Control_c, 0, 67, 96
1, 173382, Control_c, 0, 64, 110
1, 173397, Control_c, 0, 64, 113
1, 173412, Control_c, 0, 64, 118
1, 173426, Control_c, 0, 64, 122
1, 173441, Control_c, 0, 64, 127
1, 173500, Control_c, 0, 67, 96
1, 173634, Control_c, 0, 67, 95
1, 173779, Note_on_c, 0, 56, 26
1, 173818, Control_c, 0, 67, 96
1, 174582, Control_c, 0, 67, 96
1, 174677, Note_off_c, 0, 56, 36
1, 174867, Note_off_c, 0, 61, 54
1, 174894, Note_off_c, 0, 65, 36
1, 174999, Control_c, 0, 67, 97
1, 175044, Control_c, 0, 67, 96
1, 175221, Control_c, 0, 67, 97
1, 175236, Control_c, 0, 67, 97
1, 175362, Control_c, 0, 67, 98
1, 175583, Control_c, 0, 67, 98
1, 175658, Control_c, 0, 67, 99
1, 175807, Control_c, 0, 67, 99
1, 176060, Note_on_c, 0, 37, 31
1, 176215, Note_off_c, 0, 37, 53
1, 176644, Control_c, 0, 67, 100
1, 176733, Control_c, 0, 67, 100
1, 176734, Note_on_c, 0, 56, 37
1, 176784, Control_c, 0, 67, 101
1, 177253, Note_on_c, 0, 65, 44
1, 177266, Note_on_c, 0, 61, 53
1, 177389, Note_off_c, 0, 65, 64
1, 177419, Note_off_c, 0, 61, 62
1, 178008, Control_c, 0, 67, 100
1, 178041, Note_on_c, 0, 65, 27
1, 178047, Note_on_c, 0, 61, 38
1, 178113, Control_c, 0, 67, 100
1, 178172, Control_c, 0, 67, 99
1, 178187, Control_c, 0, 67, 99
1, 178246, Control_c, 0, 67, 98
1, 178284, Control_c, 0, 67, 98
1, 178372, Control_c, 0, 67, 97
1, 178451, Note_off_c, 0, 56, 42
1, 178505, Control_c, 0, 67, 97
1, 179018, Note_on_c, 0, 56, 25
1, 179195, Control_c, 0, 67, 96
1, 179327, Control_c, 0, 67, 96
1, 179476, Control_c, 0, 67, 95
1, 179810, Control_c, 0, 67, 95
1, 179869, Control_c, 0, 67, 94
1, 180328, Control_c, 0, 67, 94
1, 180358, Control_c, 0, 67, 93
1, 180529, Control_c, 0, 67, 93
1, 180781, Control_c, 0, 67, 92
1, 180855, Control_c, 0, 67, 92
1, 180943, Control_c, 0, 67, 91
1, 180958, Control_c, 0, 67, 88
1, 180973, Control_c, 0, 67, 86
1, 180988, Control_c, 0, 67, 86
1, 181002, Control_c, 0, 67, 85
1, 181032, Control_c, 0, 67, 84
1, 181047, Control_c, 0, 67, 83
1, 181062, Control_c, 0, 67, 81
1, 181077, Control_c, 0, 67, 80
1, 181092, Control_c, 0, 67, 79
1, 181107, Control_c, 0, 67, 79
1, 181122, Control_c, 0, 67, 78
1, 181136, Control_c, 0, 67, 76
1, 181151, Control_c, 0, 67, 75
1, 181166, Control_c, 0, 67, 73
1, 181181, Control_c, 0, 67, 69
1, 181196, Control_c, 0, 67, 65
1, 181210, Control_c, 0, 67, 61
1, 181226, Control_c, 0, 67, 58
1, 181241, Control_c, 0, 67, 54
1, 181263, Control_c, 0, 67, 52
1, 181278, Control_c, 0, 67, 50
1, 181293, Control_c, 0, 67, 49
1, 181307, Control_c, 0, 67, 48
1, 181322, Control_c, 0, 67, 47
1, 181337, Control_c, 0, 67, 46
1, 181352, Control_c, 0, 67, 43
1, 181366, Control_c, 0, 67, 39
1, 181381, Control_c, 0, 67, 36
1, 181396, Control_c, 0, 67, 33
1, 181411, Control_c, 0, 67, 31
1, 181426, Control_c, 0, 67, 29
1, 181441, Control_c, 0, 67, 29
1, 181455, Control_c, 0, 67, 28
1, 181470, Control_c, 0, 67, 28
1, 181485, Control_c, 0, 67, 27
1, 181501, Control_c, 0, 67, 26
1, 181515, Control_c, 0, 67, 25
1, 181530, Control_c, 0, 67, 23
1, 181545, Control_c, 0, 67, 21
1, 181560, Control_c, 0, 67, 19
1, 181575, Control_c, 0, 67, 16
1, 181590, Control_c, 0, 67, 13
1, 181605, Control_c, 0, 67, 10
1, 181619, Control_c, 0, 67, 8
1, 181634, Control_c, 0, 67, 0
1, 181751, Note_off_c, 0, 65, 31
1, 181969, Note_off_c, 0, 56, 27
1, 182068, Note_off_c, 0, 61, 35
1, 182472, Control_c, 0, 67, 8
1, 182487, Control_c, 0, 67, 12
1, 182501, Control_c, 0, 67, 17
1, 182516, Control_c, 0, 67, 24
1, 182531, Control_c, 0, 67, 33
1, 182546, Control_c, 0, 67, 45
1, 182561, Control_c, 0, 67, 60
1, 182575, Control_c, 0, 67, 72
1, 182590, Control_c, 0, 67, 83
1, 182605, Control_c, 0, 67, 91
1, 182620, Control_c, 0, 67, 96
1, 182635, Control_c, 0, 67, 98
1, 182649, Control_c, 0, 67, 99
1, 182664, Control_c, 0, 67, 101
1, 182679, Control_c, 0, 67, 102
1, 182694, Control_c, 0, 67, 103
1, 182708, Control_c, 0, 67, 103
1, 182723, Control_c, 0, 67, 104
1, 182738, Control_c, 0, 67, 106
1, 182761, Control_c, 0, 67, 110
1, 182776, Control_c, 0, 67, 115
1, 182790, Control_c, 0, 67, 118
1, 182805, Control_c, 0, 67, 121
1, 182820, Control_c, 0, 67, 123
1, 182836, Control_c, 0, 67, 125
1, 182851, Control_c, 0, 67, 127
1, 182865, Control_c, 0, 64, 125
1, 182880, Control_c, 0, 64, 122
1, 182895, Control_c, 0, 64, 120
1, 182910, Control_c, 0, 64, 118
1, 182925, Control_c, 0, 64, 117
1, 182939, Control_c, 0, 64, 115
1, 182954, Control_c, 0, 64, 113
1, 182969, Control_c, 0, 64, 110
1, 182984, Control_c, 0, 64, 108
1, 182999, Control_c, 0, 64, 105
1, 183013, Control_c, 0, 64, 103
1, 183028, Control_c, 0, 64, 101
1, 183043, Control_c, 0, 64, 98
1, 183058, Control_c, 0, 64, 96
1, 183073, Control_c, 0, 64, 92
1, 183087, Control_c, 0, 64, 88
1, 183102, Control_c, 0, 64, 83
1, 183117, Control_c, 0, 64, 76
1, 183131, Control_c, 0, 64, 67
1, 183146, Control_c, 0, 64, 55
1, 183161, Control_c, 0, 64, 0
1, 183441, Note_on_c, 0, 44, 33
1, 183447, Note_on_c, 0, 60, 55
1, 183452, Note_on_c, 0, 32, 48
1, 183456, Note_on_c, 0, 54, 48
1, 183458, Note_on_c, 0, 56, 53
1, 183460, Note_on_c, 0, 63, 59
1, 184043, Control_c, 0, 67, 124
1, 184058, Control_c, 0, 67, 122
1, 184073, Control_c, 0, 67, 118
1, 184088, Control_c, 0, 67, 115
1, 184102, Control_c, 0, 67, 112
1, 184117, Control_c, 0, 67, 108
1, 184132, Control_c, 0, 67, 104
1, 184146, Control_c, 0, 67, 101
1, 184161, Control_c, 0, 67, 98
1, 184176, Control_c, 0, 67, 95
1, 184191, Control_c, 0, 67, 92
1, 184206, Control_c, 0, 67, 88
1, 184220, Control_c, 0, 67, 83
1, 184235, Control_c, 0, 67, 77
1, 184258, Control_c, 0, 67, 73
1, 184272, Control_c, 0, 67, 72
1, 184332, Control_c, 0, 64, 24
1, 184347, Control_c, 0, 64, 45
1, 184347, Control_c, 0, 67, 72
1, 184361, Control_c, 0, 64, 52
1, 184361, Control_c, 0, 67, 73
1, 184376, Control_c, 0, 64, 52
1, 184406, Control_c, 0, 67, 73
1, 184421, Control_c, 0, 64, 53
1, 184436, Control_c, 0, 64, 54
1, 184436, Control_c, 0, 67, 74
1, 184451, Control_c, 0, 64, 54
1, 184481, Control_c, 0, 64, 55
1, 184496, Control_c, 0, 64, 56
1, 184511, Control_c, 0, 64, 57
1, 184556, Control_c, 0, 67, 74
1, 184571, Control_c, 0, 64, 57
1, 184585, Control_c, 0, 67, 75
1, 184600, Control_c, 0, 64, 58
1, 184615, Control_c, 0, 67, 76
1, 184630, Control_c, 0, 67, 76
1, 184645, Control_c, 0, 64, 58
1, 184659, Control_c, 0, 64, 59
1, 184674, Control_c, 0, 64, 60
1, 184674, Control_c, 0, 67, 77
1, 184689, Control_c, 0, 64, 62
1, 184689, Control_c, 0, 67, 77
1, 184704, Control_c, 0, 64, 63
1, 184704, Control_c, 0, 67, 78
1, 184733, Control_c, 0, 64, 63
1, 184763, Control_c, 0, 64, 64
1, 184792, Control_c, 0, 64, 64
1, 184792, Control_c, 0, 67, 78
1, 184807, Control_c, 0, 64, 65
1, 184822, Control_c, 0, 64, 65
1, 184822, Control_c, 0, 67, 78
1, 184837, Control_c, 0, 64, 66
1, 184837, Control_c, 0, 67, 77
1, 184851, Control_c, 0, 64, 67
1, 184866, Control_c, 0, 64, 67
1, 184866, Control_c, 0, 67, 77
1, 184881, Control_c, 0, 64, 68
1, 184881, Control_c, 0, 67, 76
1, 184895, Control_c, 0, 64, 69
1, 184895, Control_c, 0, 67, 76
1, 184910, Control_c, 0, 67, 75
1, 184925, Control_c, 0, 64, 69
1, 184925, Control_c, 0, 67, 74
1, 184940, Control_c, 0, 64, 70
1, 184955, Control_c, 0, 64, 71
1, 184955, Control_c, 0, 67, 73
1, 184970, Control_c, 0, 64, 71
1, 184985, Control_c, 0, 64, 72
1, 184985, Control_c, 0, 67, 73
1, 185007, Control_c, 0, 64, 72
1, 185007, Control_c, 0, 67, 72
1, 185022, Control_c, 0, 67, 72
1, 185037, Control_c, 0, 64, 73
1, 185051, Control_c, 0, 64, 74
1, 185066, Control_c, 0, 64, 74
1, 185081, Control_c, 0, 64, 75
1, 185081, Control_c, 0, 67, 72
1, 185096, Control_c, 0, 64, 76
1, 185110, Control_c, 0, 64, 78
1, 185125, Control_c, 0, 64, 79
1, 185140, Control_c, 0, 64, 81
1, 185140, Control_c, 0, 67, 72
1, 185155, Control_c, 0, 64, 82
1, 185155, Control_c, 0, 67, 72
1, 185170, Control_c, 0, 64, 83
1, 185185, Control_c, 0, 64, 83
1, 185199, Control_c, 0, 64, 84
1, 185214, Control_c, 0, 64, 84
1, 185230, Control_c, 0, 64, 85
1, 185244, Control_c, 0, 64, 86
1, 185244, Control_c, 0, 67, 73
1, 185259, Control_c, 0, 64, 87
1, 185274, Control_c, 0, 64, 88
1, 185274, Control_c, 0, 67, 73
1, 185289, Control_c, 0, 64, 89
1, 185304, Control_c, 0, 64, 90
1, 185319, Control_c, 0, 64, 91
1, 185319, Control_c, 0, 67, 74
1, 185333, Control_c, 0, 64, 92
1, 185333, Control_c, 0, 67, 74
1, 185348, Control_c, 0, 64, 93
1, 185348, Control_c, 0, 67, 75
1, 185363, Control_c, 0, 64, 93
1, 185363, Control_c, 0, 67, 75
1, 185378, Control_c, 0, 64, 94
1, 185378, Control_c, 0, 67, 76
1, 185393, Control_c, 0, 64, 95
1, 185393, Control_c, 0, 67, 77
1, 185407, Control_c, 0, 64, 96
1, 185407, Control_c, 0, 67, 78
1, 185422, Control_c, 0, 64, 97
1, 185422, Control_c, 0, 67, 78
1, 185437, Control_c, 0, 64, 98
1, 185437, Control_c, 0, 67, 79
1, 185452, Control_c, 0, 64, 100
1, 185452, Control_c, 0, 67, 80
1, 185467, Control_c, 0, 64, 101
1, 185467, Control_c, 0, 67, 81
1, 185481, Control_c, 0, 64, 102
1, 185481, Control_c, 0, 67, 81
1, 185496, Control_c, 0, 64, 103
1, 185496, Control_c, 0, 67, 82
1, 185511, Control_c, 0, 64, 104
1, 185525, Control_c, 0, 64, 104
1, 185525, Control_c, 0, 67, 82
1, 185540, Control_c, 0, 64, 105
1, 185540, Control_c, 0, 67, 83
1, 185555, Control_c, 0, 64, 105
1, 185555, Control_c, 0, 67, 83
1, 185570, Control_c, 0, 64, 106
1, 185570, Control_c, 0, 67, 84
1, 185585, Control_c, 0, 64, 106
1, 185585, Control_c, 0, 67, 85
1, 185599, Control_c, 0, 64, 107
1, 185599, Control_c, 0, 67, 86
1, 185614, Control_c, 0, 64, 107
1, 185614, Control_c, 0, 67, 86
1, 185629, Control_c, 0, 64, 108
1, 185644, Control_c, 0, 64, 108
1, 185644, Control_c, 0, 67, 88
1, 185659, Control_c, 0, 67, 90
1, 185673, Control_c, 0, 64, 109
1, 185673, Control_c, 0, 67, 93
1, 185688, Control_c, 0, 67, 98
1, 185703, Control_c, 0, 64, 109
1, 185703, Control_c, 0, 67, 102
1, 185718, Control_c, 0, 67, 106
1, 185733, Control_c, 0, 67, 111
1, 185755, Control_c, 0, 67, 115
1, 185770, Control_c, 0, 67, 122
1, 185785, Control_c, 0, 64, 110
1, 185785, Control_c, 0, 67, 127
1, 185859, Control_c, 0, 64, 110
1, 186082, Control_c, 0, 64, 111
1, 186115, Note_off_c, 0, 32, 40
1, 186185, Control_c, 0, 64, 111
1, 186209, Note_off_c, 0, 44, 38
1, 186563, Note_off_c, 0, 54, 35
1, 186741, Note_off_c, 0, 56, 32
1, 186853, Note_off_c, 0, 60, 30
1, 187054, Note_off_c, 0, 63, 38
1, 187790, Note_on_c, 0, 61, 20
1, 187820, Note_on_c, 0, 44, 20
1, 187831, Control_c, 0, 64, 111
1, 187837, Note_on_c, 0, 53, 39
1, 187843, Note_on_c, 0, 37, 19
1, 187846, Control_c, 0, 64, 109
1, 187861, Control_c, 0, 64, 106
1, 187875, Control_c, 0, 64, 101
1, 187890, Control_c, 0, 64, 93
1, 187905, Control_c, 0, 64, 85
1, 187919, Control_c, 0, 64, 75
1, 187934, Control_c, 0, 64, 65
1, 187949, Control_c, 0, 64, 0
1, 196021, Note_off_c, 0, 44, 37
1, 196031, Note_off_c, 0, 37, 54
1, 196050, Note_off_c, 0, 53, 38
1, 196080, Note_off_c, 0, 61, 41
1, 196201, Control_c, 0, 67, 126
1, 196216, Control_c, 0, 67, 124
1, 196238, Control_c, 0, 67, 122
1, 196253, Control_c, 0, 67, 120
1, 196268, Control_c, 0, 67, 117
1, 196282, Control_c, 0, 67, 115
1, 196297, Control_c, 0, 67, 114
1, 196312, Control_c, 0, 67, 112
1, 196327, Control_c, 0, 67, 111
1, 196342, Control_c, 0, 67, 109
1, 196357, Control_c, 0, 67, 106
1, 196372, Control_c, 0, 67, 102
1, 196387, Control_c, 0, 67, 97
1, 196402, Control_c, 0, 67, 91
1, 196417, Control_c, 0, 67, 85
1, 196432, Control_c, 0, 67, 80
1, 196446, Control_c, 0, 67, 74
1, 196461, Control_c, 0, 67, 70
1, 196476, Control_c, 0, 67, 65
1, 196491, Control_c, 0, 67, 62
1, 196506, Control_c, 0, 67, 58
1, 196521, Control_c, 0, 67, 54
1, 196536, Control_c, 0, 67, 50
1, 196551, Control_c, 0, 67, 46
1, 196565, Control_c, 0, 67, 43
1, 196580, Control_c, 0, 67, 40
1, 196595, Control_c, 0, 67, 38
1, 196610, Control_c, 0, 67, 35
1, 196625, Control_c, 0, 67, 34
1, 196639, Control_c, 0, 67, 32
1, 196654, Control_c, 0, 67, 30
1, 196669, Control_c, 0, 67, 28
1, 196683, Control_c, 0, 67, 25
1, 196698, Control_c, 0, 67, 22
1, 196713, Control_c, 0, 67, 19
1, 196728, Control_c, 0, 67, 16
1, 196743, Control_c, 0, 67, 13
1, 196757, Control_c, 0, 67, 10
1, 196772, Control_c, 0, 67, 0
1, 196772, End_track
0, 0, End_of_file
