0, 0, Header, 0, 1, 384
1, 0, Start_track
1, 0, Title_t, "Gnomenreigen--T. J. Tario       "
1, 0, Text_t, "2008 e-Piano Junior Competition recital round"
1, 0, Text_t, "recorded July 2008"
1, 0, Text_t, "http://www.piano-e-competition.com/"
1, 0, Text_t, "File processed for distribution by software from Zenph Studios, Inc., http://www.zenph.com"
1, 0, Instrument_name_t, "Yamaha Disklavier Pro Mark IV concert grand piano, model DCFIIISM4PRO"
1, 0, Sequencer_specific, 39, 67, 113, 0, 1, 0, 1, 0, 71, 110, 111, 109, 101, 110, 114, 101, 105, 103, 101, 110, 32, 32, 32, 32, 84, 46, 32, 74, 46, 32, 84, 97, 114, 105, 111, 32, 32, 32, 32, 32
1, 0, Sequencer_specific, 6, 67, 113, 0, 0, 0, 69
1, 0, System_exclusive, 21, 67, 113, 126, 21, 0, 2, 2, 0, 3, 14, 1, 4, 1, 13, 13, 10, 11, 9, 2, 7, 247
1, 0, Sequencer_specific, 5, 67, 123, 12, 2, 1
1, 0, Tempo, 512820
1, 0, Time_signature, 4, 2, 24, 8
1, 0, System_exclusive, 5, 126, 127, 9, 1, 247
1, 1, System_exclusive, 8, 67, 16, 76, 0, 0, 126, 0, 247
1, 2, System_exclusive, 8, 67, 16, 76, 8, 9, 7, 1, 247
1, 3, Control_c, 0, 0, 0
1, 3, Control_c, 1, 0, 0
1, 3, Control_c, 2, 0, 0
1, 3, Control_c, 3, 0, 0
1, 3, Control_c, 4, 0, 0
1, 3, Control_c, 5, 0, 0
1, 3, Control_c, 6, 0, 0
1, 3, Control_c, 7, 0, 0
1, 3, Control_c, 8, 0, 0
1, 3, Control_c, 9, 0, 127
1, 3, Control_c, 10, 0, 0
1, 3, Control_c, 11, 0, 0
1, 3, Control_c, 12, 0, 0
1, 3, Control_c, 13, 0, 0
1, 3, Control_c, 14, 0, 0
1, 3, Control_c, 15, 0, 0
1, 4, Control_c, 0, 32, 0
1, 4, Control_c, 1, 32, 0
1, 4, Control_c, 2, 32, 0
1, 4, Control_c, 3, 32, 0
1, 4, Control_c, 4, 32, 0
1, 4, Control_c, 5, 32, 0
1, 4, Control_c, 6, 32, 0
1, 4, Control_c, 7, 32, 0
1, 4, Control_c, 8, 32, 0
1, 4, Control_c, 9, 32, 0
1, 4, Control_c, 10, 32, 0
1, 4, Control_c, 11, 32, 0
1, 4, Control_c, 12, 32, 0
1, 4, Control_c, 13, 32, 0
1, 4, Control_c, 14, 32, 0
1, 4, Control_c, 15, 32, 0
1, 5, Program_c, 0, 0
1, 5, Program_c, 1, 0
1, 5, Program_c, 2, 0
1, 5, Program_c, 3, 0
1, 5, Program_c, 4, 0
1, 5, Program_c, 5, 0
1, 5, Program_c, 6, 0
1, 5, Program_c, 7, 0
1, 5, Program_c, 8, 0
1, 5, Program_c, 9, 0
1, 5, Program_c, 10, 0
1, 5, Program_c, 11, 0
1, 5, Program_c, 12, 0
1, 5, Program_c, 13, 0
1, 5, Program_c, 14, 0
1, 5, Program_c, 15, 0
1, 6, Control_c, 0, 7, 100
1, 6, Control_c, 1, 7, 100
1, 6, Control_c, 2, 7, 100
1, 6, Control_c, 3, 7, 100
1, 6, Control_c, 4, 7, 100
1, 6, Control_c, 5, 7, 100
1, 6, Control_c, 6, 7, 100
1, 6, Control_c, 7, 7, 100
1, 6, Control_c, 8, 7, 100
1, 6, Control_c, 9, 7, 100
1, 6, Control_c, 10, 7, 100
1, 6, Control_c, 11, 7, 100
1, 6, Control_c, 12, 7, 100
1, 6, Control_c, 13, 7, 100
1, 6, Control_c, 14, 7, 100
1, 6, Control_c, 15, 7, 100
1, 117, Control_c, 0, 64, 8
1, 117, Control_c, 0, 67, 15
1, 229, Control_c, 0, 64, 16
1, 229, Control_c, 0, 67, 31
1, 341, Control_c, 0, 64, 24
1, 341, Control_c, 0, 67, 46
1, 452, Control_c, 0, 64, 32
1, 452, Control_c, 0, 67, 63
1, 564, Control_c, 0, 64, 40
1, 564, Control_c, 0, 67, 77
1, 676, Control_c, 0, 64, 48
1, 676, Control_c, 0, 67, 94
1, 787, Control_c, 0, 64, 56
1, 787, Control_c, 0, 67, 108
1, 899, Control_c, 0, 64, 65
1, 899, Control_c, 0, 67, 127
1, 1133, Note_on_c, 0, 61, 38
1, 1135, Control_c, 0, 64, 46
1, 1145, Note_on_c, 0, 62, 36
1, 1150, Control_c, 0, 64, 0
1, 1184, Note_off_c, 0, 62, 63
1, 1194, Control_c, 0, 64, 44
1, 1196, Note_off_c, 0, 61, 62
1, 1209, Control_c, 0, 64, 59
1, 1224, Control_c, 0, 64, 64
1, 1238, Control_c, 0, 64, 68
1, 1253, Control_c, 0, 64, 72
1, 1268, Control_c, 0, 64, 77
1, 1283, Control_c, 0, 64, 81
1, 1298, Control_c, 0, 64, 83
1, 1312, Control_c, 0, 64, 84
1, 1327, Control_c, 0, 64, 86
1, 1342, Control_c, 0, 64, 86
1, 1357, Control_c, 0, 64, 87
1, 1394, Control_c, 0, 64, 88
1, 1405, Note_on_c, 0, 66, 56
1, 1409, Control_c, 0, 64, 89
1, 1424, Control_c, 0, 64, 90
1, 1425, Note_on_c, 0, 65, 42
1, 1434, Note_off_c, 0, 66, 61
1, 1438, Control_c, 0, 64, 90
1, 1452, Note_off_c, 0, 65, 50
1, 1453, Control_c, 0, 64, 91
1, 1468, Control_c, 0, 64, 91
1, 1483, Control_c, 0, 64, 92
1, 1498, Control_c, 0, 64, 92
1, 1514, Control_c, 0, 64, 93
1, 1529, Control_c, 0, 64, 93
1, 1543, Control_c, 0, 64, 94
1, 1573, Control_c, 0, 64, 94
1, 1603, Control_c, 0, 64, 95
1, 1616, Note_on_c, 0, 69, 60
1, 1617, Control_c, 0, 64, 95
1, 1637, Note_on_c, 0, 68, 60
1, 1645, Note_off_c, 0, 69, 66
1, 1648, Control_c, 0, 64, 96
1, 1662, Note_off_c, 0, 68, 65
1, 1766, Control_c, 0, 64, 93
1, 1781, Control_c, 0, 64, 87
1, 1796, Control_c, 0, 64, 79
1, 1804, Note_on_c, 0, 68, 62
1, 1804, Note_on_c, 0, 69, 49
1, 1810, Control_c, 0, 64, 70
1, 1824, Note_off_c, 0, 69, 52
1, 1825, Control_c, 0, 64, 61
1, 1840, Control_c, 0, 64, 49
1, 1851, Note_off_c, 0, 68, 63
1, 1855, Control_c, 0, 64, 59
1, 1870, Control_c, 0, 64, 64
1, 1885, Control_c, 0, 64, 68
1, 1899, Control_c, 0, 64, 74
1, 1914, Control_c, 0, 64, 81
1, 1929, Control_c, 0, 64, 86
1, 1943, Note_on_c, 0, 71, 55
1, 1944, Control_c, 0, 64, 88
1, 1957, Note_on_c, 0, 73, 51
1, 1959, Control_c, 0, 64, 89
1, 1962, Note_off_c, 0, 71, 62
1, 1974, Control_c, 0, 64, 90
1, 1979, Note_off_c, 0, 73, 61
1, 1989, Control_c, 0, 64, 91
1, 2004, Control_c, 0, 64, 91
1, 2018, Control_c, 0, 64, 92
1, 2033, Control_c, 0, 64, 93
1, 2048, Control_c, 0, 64, 94
1, 2062, Control_c, 0, 64, 95
1, 2077, Control_c, 0, 64, 95
1, 2084, Note_on_c, 0, 74, 54
1, 2098, Note_on_c, 0, 73, 59
1, 2115, Note_off_c, 0, 74, 67
1, 2124, Note_off_c, 0, 73, 66
1, 2159, Control_c, 0, 64, 92
1, 2174, Control_c, 0, 64, 85
1, 2189, Control_c, 0, 64, 75
1, 2203, Control_c, 0, 64, 63
1, 2218, Control_c, 0, 64, 0
1, 2229, Note_on_c, 0, 74, 56
1, 2232, Note_on_c, 0, 73, 61
1, 2247, Note_off_c, 0, 74, 63
1, 2248, Control_c, 0, 64, 21
1, 2260, Note_off_c, 0, 73, 64
1, 2262, Control_c, 0, 64, 58
1, 2277, Control_c, 0, 64, 65
1, 2292, Control_c, 0, 64, 71
1, 2307, Control_c, 0, 64, 78
1, 2323, Control_c, 0, 64, 85
1, 2328, Note_on_c, 0, 77, 65
1, 2331, Note_on_c, 0, 78, 67
1, 2338, Control_c, 0, 64, 87
1, 2349, Note_off_c, 0, 77, 66
1, 2351, Note_off_c, 0, 78, 67
1, 2353, Control_c, 0, 64, 89
1, 2367, Control_c, 0, 64, 90
1, 2382, Control_c, 0, 64, 91
1, 2412, Control_c, 0, 64, 92
1, 2427, Control_c, 0, 64, 93
1, 2441, Control_c, 0, 64, 94
1, 2448, Note_on_c, 0, 81, 58
1, 2456, Control_c, 0, 64, 95
1, 2464, Note_on_c, 0, 80, 73
1, 2471, Control_c, 0, 64, 95
1, 2472, Note_off_c, 0, 81, 61
1, 2479, Note_off_c, 0, 80, 69
1, 2515, Control_c, 0, 64, 96
1, 2530, Control_c, 0, 64, 96
1, 2566, Note_on_c, 0, 81, 62
1, 2568, Note_on_c, 0, 80, 74
1, 2574, Control_c, 0, 64, 95
1, 2583, Note_off_c, 0, 81, 62
1, 2589, Control_c, 0, 64, 91
1, 2604, Control_c, 0, 64, 82
1, 2618, Note_off_c, 0, 80, 62
1, 2618, Control_c, 0, 64, 73
1, 2633, Control_c, 0, 64, 65
1, 2648, Control_c, 0, 64, 60
1, 2663, Control_c, 0, 64, 63
1, 2676, Note_on_c, 0, 83, 51
1, 2678, Control_c, 0, 64, 66
1, 2681, Note_on_c, 0, 85, 53
1, 2692, Control_c, 0, 64, 70
1, 2695, Note_off_c, 0, 83, 60
1, 2705, Note_off_c, 0, 85, 66
1, 2707, Control_c, 0, 64, 76
1, 2722, Control_c, 0, 64, 80
1, 2737, Control_c, 0, 64, 83
1, 2752, Control_c, 0, 64, 86
1, 2767, Control_c, 0, 64, 88
1, 2782, Control_c, 0, 64, 90
1, 2782, Note_on_c, 0, 86, 65
1, 2797, Control_c, 0, 64, 91
1, 2811, Note_on_c, 0, 85, 67
1, 2811, Note_off_c, 0, 86, 64
1, 2811, Control_c, 0, 64, 92
1, 2826, Control_c, 0, 64, 93
1, 2836, Note_off_c, 0, 85, 70
1, 2841, Control_c, 0, 64, 93
1, 2892, Control_c, 0, 64, 89
1, 2907, Control_c, 0, 64, 82
1, 2922, Control_c, 0, 64, 73
1, 2930, Note_on_c, 0, 80, 61
1, 2937, Control_c, 0, 64, 64
1, 2949, Note_on_c, 0, 83, 40
1, 2952, Control_c, 0, 64, 53
1, 2967, Control_c, 0, 64, 57
1, 2973, Note_off_c, 0, 83, 59
1, 2982, Control_c, 0, 64, 62
1, 2990, Note_off_c, 0, 80, 61
1, 2996, Control_c, 0, 64, 66
1, 3011, Control_c, 0, 64, 70
1, 3026, Control_c, 0, 64, 74
1, 3041, Control_c, 0, 64, 79
1, 3056, Control_c, 0, 64, 82
1, 3065, Note_on_c, 0, 85, 59
1, 3071, Control_c, 0, 64, 84
1, 3071, Note_on_c, 0, 83, 61
1, 3086, Control_c, 0, 64, 87
1, 3099, Note_off_c, 0, 83, 65
1, 3100, Control_c, 0, 64, 89
1, 3106, Note_off_c, 0, 85, 58
1, 3116, Control_c, 0, 64, 89
1, 3145, Control_c, 0, 64, 90
1, 3175, Control_c, 0, 64, 90
1, 3189, Control_c, 0, 64, 91
1, 3220, Note_on_c, 0, 86, 56
1, 3233, Control_c, 0, 64, 92
1, 3248, Note_on_c, 0, 85, 62
1, 3259, Note_off_c, 0, 86, 52
1, 3278, Control_c, 0, 64, 91
1, 3293, Control_c, 0, 64, 88
1, 3306, Note_off_c, 0, 85, 64
1, 3307, Control_c, 0, 64, 81
1, 3322, Control_c, 0, 64, 73
1, 3337, Control_c, 0, 64, 64
1, 3352, Control_c, 0, 64, 48
1, 3362, Note_on_c, 0, 77, 50
1, 3367, Control_c, 0, 64, 56
1, 3381, Control_c, 0, 64, 63
1, 3387, Note_on_c, 0, 80, 53
1, 3396, Control_c, 0, 64, 67
1, 3405, Note_off_c, 0, 77, 53
1, 3411, Note_off_c, 0, 80, 60
1, 3411, Control_c, 0, 64, 70
1, 3426, Control_c, 0, 64, 75
1, 3441, Control_c, 0, 64, 79
1, 3455, Control_c, 0, 64, 82
1, 3470, Control_c, 0, 64, 86
1, 3485, Control_c, 0, 64, 88
1, 3500, Control_c, 0, 64, 90
1, 3515, Control_c, 0, 64, 92
1, 3528, Note_on_c, 0, 83, 62
1, 3530, Note_on_c, 0, 85, 53
1, 3530, Control_c, 0, 64, 93
1, 3545, Control_c, 0, 64, 93
1, 3557, Note_off_c, 0, 83, 64
1, 3560, Control_c, 0, 64, 94
1, 3566, Note_off_c, 0, 85, 64
1, 3575, Control_c, 0, 64, 94
1, 3604, Control_c, 0, 64, 95
1, 3655, Control_c, 0, 64, 95
1, 3685, Control_c, 0, 64, 96
1, 3706, Note_on_c, 0, 86, 59
1, 3730, Control_c, 0, 64, 96
1, 3734, Note_on_c, 0, 85, 60
1, 3734, Note_off_c, 0, 86, 56
1, 3789, Control_c, 0, 64, 96
1, 3789, Note_off_c, 0, 85, 64
1, 3804, Control_c, 0, 64, 92
1, 3819, Control_c, 0, 64, 85
1, 3834, Control_c, 0, 64, 77
1, 3848, Control_c, 0, 64, 68
1, 3863, Control_c, 0, 64, 64
1, 3874, Note_on_c, 0, 80, 33
1, 3878, Control_c, 0, 64, 65
1, 3890, Note_on_c, 0, 83, 52
1, 3892, Control_c, 0, 64, 68
1, 3907, Control_c, 0, 64, 71
1, 3923, Control_c, 0, 64, 75
1, 3933, Note_off_c, 0, 83, 57
1, 3937, Control_c, 0, 64, 78
1, 3952, Control_c, 0, 64, 81
1, 3967, Control_c, 0, 64, 85
1, 3981, Note_off_c, 0, 80, 44
1, 3982, Control_c, 0, 64, 88
1, 3997, Control_c, 0, 64, 91
1, 4011, Control_c, 0, 64, 94
1, 4026, Control_c, 0, 64, 95
1, 4041, Control_c, 0, 64, 96
1, 4055, Control_c, 0, 64, 97
1, 4070, Control_c, 0, 64, 97
1, 4080, Note_on_c, 0, 83, 56
1, 4085, Control_c, 0, 64, 98
1, 4115, Control_c, 0, 64, 99
1, 4118, Note_off_c, 0, 83, 58
1, 4270, Note_on_c, 0, 86, 67
1, 4319, Note_off_c, 0, 86, 58
1, 4537, Control_c, 0, 64, 97
1, 4552, Control_c, 0, 64, 91
1, 4552, Note_on_c, 0, 77, 48
1, 4567, Control_c, 0, 64, 83
1, 4581, Control_c, 0, 64, 74
1, 4596, Control_c, 0, 64, 67
1, 4606, Note_on_c, 0, 80, 57
1, 4611, Control_c, 0, 64, 63
1, 4626, Control_c, 0, 64, 65
1, 4630, Note_off_c, 0, 77, 57
1, 4641, Control_c, 0, 64, 69
1, 4643, Note_off_c, 0, 80, 62
1, 4655, Control_c, 0, 64, 73
1, 4670, Control_c, 0, 64, 78
1, 4685, Control_c, 0, 64, 83
1, 4700, Control_c, 0, 64, 87
1, 4716, Control_c, 0, 64, 91
1, 4731, Control_c, 0, 64, 94
1, 4746, Control_c, 0, 64, 97
1, 4760, Control_c, 0, 64, 99
1, 4775, Control_c, 0, 64, 101
1, 4790, Control_c, 0, 64, 103
1, 4805, Control_c, 0, 64, 104
1, 4849, Control_c, 0, 64, 104
1, 4864, Control_c, 0, 64, 105
1, 4893, Control_c, 0, 64, 105
1, 4938, Control_c, 0, 64, 106
1, 4952, Control_c, 0, 64, 106
1, 4982, Control_c, 0, 64, 107
1, 5012, Control_c, 0, 64, 107
1, 5101, Control_c, 0, 64, 108
1, 5965, Note_on_c, 0, 73, 52
1, 5996, Note_off_c, 0, 73, 66
1, 6347, Control_c, 0, 64, 107
1, 6362, Control_c, 0, 64, 103
1, 6377, Control_c, 0, 64, 95
1, 6382, Note_on_c, 0, 78, 51
1, 6392, Control_c, 0, 64, 86
1, 6406, Control_c, 0, 64, 77
1, 6421, Control_c, 0, 64, 69
1, 6429, Note_off_c, 0, 78, 48
1, 6431, Note_on_c, 0, 81, 54
1, 6436, Control_c, 0, 64, 61
1, 6450, Control_c, 0, 64, 61
1, 6465, Control_c, 0, 64, 64
1, 6472, Note_off_c, 0, 81, 59
1, 6476, Note_on_c, 0, 85, 53
1, 6480, Control_c, 0, 64, 68
1, 6495, Control_c, 0, 64, 73
1, 6502, Note_off_c, 0, 85, 63
1, 6510, Control_c, 0, 64, 78
1, 6524, Control_c, 0, 64, 84
1, 6539, Control_c, 0, 64, 87
1, 6554, Control_c, 0, 64, 90
1, 6569, Control_c, 0, 64, 93
1, 6584, Control_c, 0, 64, 95
1, 6599, Control_c, 0, 64, 97
1, 6613, Control_c, 0, 64, 99
1, 6636, Control_c, 0, 64, 99
1, 6665, Control_c, 0, 64, 100
1, 6682, Note_on_c, 0, 73, 49
1, 6683, Note_on_c, 0, 78, 55
1, 6713, Note_off_c, 0, 73, 58
1, 6714, Note_off_c, 0, 78, 54
1, 6828, Note_on_c, 0, 78, 53
1, 6834, Note_on_c, 0, 69, 53
1, 6857, Note_off_c, 0, 69, 62
1, 6866, Note_off_c, 0, 78, 49
1, 6887, Control_c, 0, 64, 99
1, 6902, Control_c, 0, 64, 94
1, 6917, Control_c, 0, 64, 82
1, 6931, Control_c, 0, 64, 69
1, 6945, Note_on_c, 0, 69, 58
1, 6946, Control_c, 0, 64, 32
1, 6961, Control_c, 0, 64, 0
1, 6975, Note_on_c, 0, 74, 54
1, 6982, Note_off_c, 0, 69, 66
1, 6985, Note_on_c, 0, 78, 62
1, 6991, Control_c, 0, 64, 26
1, 7005, Note_off_c, 0, 74, 68
1, 7006, Control_c, 0, 64, 62
1, 7013, Note_off_c, 0, 78, 67
1, 7021, Control_c, 0, 64, 68
1, 7036, Control_c, 0, 64, 74
1, 7050, Control_c, 0, 64, 82
1, 7065, Control_c, 0, 64, 88
1, 7080, Control_c, 0, 64, 92
1, 7095, Control_c, 0, 64, 94
1, 7097, Note_on_c, 0, 69, 53
1, 7103, Note_on_c, 0, 66, 57
1, 7110, Control_c, 0, 64, 96
1, 7122, Note_off_c, 0, 66, 65
1, 7125, Control_c, 0, 64, 96
1, 7128, Note_off_c, 0, 69, 66
1, 7140, Control_c, 0, 64, 97
1, 7170, Control_c, 0, 64, 97
1, 7185, Control_c, 0, 64, 98
1, 7202, Note_on_c, 0, 66, 57
1, 7205, Note_on_c, 0, 62, 59
1, 7214, Control_c, 0, 64, 98
1, 7226, Note_on_c, 0, 71, 59
1, 7229, Note_off_c, 0, 62, 62
1, 7234, Note_off_c, 0, 66, 60
1, 7258, Note_off_c, 0, 71, 64
1, 7288, Control_c, 0, 64, 98
1, 7303, Control_c, 0, 64, 93
1, 7318, Control_c, 0, 64, 84
1, 7333, Control_c, 0, 64, 71
1, 7347, Control_c, 0, 64, 36
1, 7357, Note_on_c, 0, 66, 29
1, 7362, Control_c, 0, 64, 0
1, 7368, Note_on_c, 0, 69, 76
1, 7402, Note_off_c, 0, 66, 44
1, 7403, Note_off_c, 0, 69, 64
1, 7410, Note_on_c, 0, 73, 58
1, 7414, Control_c, 0, 64, 21
1, 7429, Note_off_c, 0, 73, 64
1, 7429, Control_c, 0, 64, 60
1, 7444, Control_c, 0, 64, 66
1, 7459, Control_c, 0, 64, 72
1, 7474, Control_c, 0, 64, 79
1, 7488, Control_c, 0, 64, 85
1, 7503, Control_c, 0, 64, 89
1, 7518, Control_c, 0, 64, 92
1, 7533, Control_c, 0, 64, 94
1, 7548, Control_c, 0, 64, 95
1, 7549, Note_on_c, 0, 69, 60
1, 7560, Note_on_c, 0, 66, 47
1, 7562, Control_c, 0, 64, 95
1, 7582, Note_off_c, 0, 69, 67
1, 7590, Note_off_c, 0, 66, 67
1, 7606, Control_c, 0, 64, 96
1, 7676, Note_on_c, 0, 66, 58
1, 7676, Note_on_c, 0, 61, 60
1, 7697, Note_off_c, 0, 66, 63
1, 7708, Note_off_c, 0, 61, 64
1, 7710, Control_c, 0, 64, 96
1, 7781, Note_on_c, 0, 61, 69
1, 7781, Note_on_c, 0, 57, 57
1, 7803, Note_off_c, 0, 57, 62
1, 7818, Note_off_c, 0, 61, 58
1, 7828, Control_c, 0, 64, 97
1, 7843, Control_c, 0, 64, 97
1, 7858, Control_c, 0, 64, 98
1, 7873, Control_c, 0, 64, 99
1, 7873, Note_on_c, 0, 57, 69
1, 7883, Note_on_c, 0, 54, 62
1, 7888, Control_c, 0, 64, 99
1, 7900, Note_off_c, 0, 57, 67
1, 7903, Control_c, 0, 64, 100
1, 7915, Note_off_c, 0, 54, 63
1, 7918, Control_c, 0, 64, 100
1, 7933, Control_c, 0, 64, 101
1, 7948, Control_c, 0, 64, 102
1, 7963, Control_c, 0, 64, 103
1, 7978, Control_c, 0, 64, 104
1, 7983, Note_on_c, 0, 61, 72
1, 7992, Control_c, 0, 64, 105
1, 8001, Note_on_c, 0, 66, 65
1, 8008, Note_off_c, 0, 61, 67
1, 8022, Control_c, 0, 64, 104
1, 8028, Note_off_c, 0, 66, 68
1, 8037, Control_c, 0, 64, 98
1, 8052, Control_c, 0, 64, 85
1, 8067, Control_c, 0, 64, 66
1, 8082, Control_c, 0, 64, 0
1, 8113, Note_on_c, 0, 61, 70
1, 8148, Control_c, 0, 64, 28
1, 8158, Note_on_c, 0, 65, 55
1, 8163, Control_c, 0, 64, 65
1, 8164, Note_off_c, 0, 61, 61
1, 8174, Note_on_c, 0, 68, 65
1, 8177, Control_c, 0, 64, 73
1, 8192, Control_c, 0, 64, 84
1, 8196, Note_off_c, 0, 65, 65
1, 8207, Control_c, 0, 64, 93
1, 8211, Note_off_c, 0, 68, 58
1, 8222, Control_c, 0, 64, 100
1, 8237, Control_c, 0, 64, 104
1, 8252, Control_c, 0, 64, 107
1, 8267, Control_c, 0, 64, 109
1, 8282, Control_c, 0, 64, 109
1, 8296, Note_on_c, 0, 61, 61
1, 8296, Control_c, 0, 64, 110
1, 8308, Note_on_c, 0, 49, 48
1, 8311, Control_c, 0, 64, 111
1, 8317, Note_off_c, 0, 61, 63
1, 8326, Control_c, 0, 64, 111
1, 8333, Note_off_c, 0, 49, 56
1, 8341, Control_c, 0, 64, 112
1, 8386, Control_c, 0, 64, 110
1, 8401, Control_c, 0, 64, 101
1, 8416, Control_c, 0, 64, 86
1, 8418, Note_on_c, 0, 66, 69
1, 8425, Note_on_c, 0, 65, 38
1, 8430, Control_c, 0, 64, 66
1, 8434, Note_on_c, 0, 68, 34
1, 8445, Control_c, 0, 64, 0
1, 8447, Note_off_c, 0, 65, 50
1, 8448, Note_off_c, 0, 66, 65
1, 8467, Note_off_c, 0, 68, 43
1, 8504, Control_c, 0, 64, 48
1, 8513, Note_on_c, 0, 69, 73
1, 8517, Note_on_c, 0, 61, 63
1, 8519, Control_c, 0, 64, 68
1, 8529, Note_on_c, 0, 66, 52
1, 8534, Control_c, 0, 64, 81
1, 8547, Note_off_c, 0, 61, 61
1, 8549, Control_c, 0, 64, 91
1, 8551, Note_off_c, 0, 66, 65
1, 8564, Control_c, 0, 64, 95
1, 8567, Note_off_c, 0, 69, 62
1, 8578, Control_c, 0, 64, 97
1, 8593, Control_c, 0, 64, 99
1, 8608, Control_c, 0, 64, 101
1, 8623, Control_c, 0, 64, 104
1, 8637, Control_c, 0, 64, 107
1, 8638, Note_on_c, 0, 61, 51
1, 8639, Note_on_c, 0, 54, 55
1, 8652, Control_c, 0, 64, 110
1, 8663, Note_off_c, 0, 61, 63
1, 8667, Control_c, 0, 64, 114
1, 8672, Note_off_c, 0, 54, 63
1, 8682, Control_c, 0, 64, 116
1, 8698, Control_c, 0, 64, 117
1, 8713, Control_c, 0, 64, 117
1, 8727, Control_c, 0, 64, 118
1, 8746, Note_on_c, 0, 69, 70
1, 8751, Note_on_c, 0, 61, 60
1, 8765, Note_on_c, 0, 66, 58
1, 8772, Control_c, 0, 64, 117
1, 8783, Note_off_c, 0, 61, 62
1, 8785, Note_off_c, 0, 66, 67
1, 8787, Control_c, 0, 64, 110
1, 8800, Note_off_c, 0, 69, 59
1, 8801, Control_c, 0, 64, 99
1, 8816, Control_c, 0, 64, 85
1, 8831, Control_c, 0, 64, 66
1, 8845, Control_c, 0, 64, 0
1, 8866, Note_on_c, 0, 66, 62
1, 8883, Note_on_c, 0, 63, 54
1, 8911, Note_off_c, 0, 66, 62
1, 8913, Control_c, 0, 64, 62
1, 8914, Note_off_c, 0, 63, 63
1, 8927, Control_c, 0, 64, 71
1, 8942, Control_c, 0, 64, 81
1, 8957, Control_c, 0, 64, 90
1, 8972, Control_c, 0, 64, 96
1, 8987, Control_c, 0, 64, 99
1, 8995, Note_on_c, 0, 57, 50
1, 8997, Note_on_c, 0, 60, 50
1, 9001, Control_c, 0, 64, 102
1, 9016, Control_c, 0, 64, 105
1, 9020, Note_off_c, 0, 60, 59
1, 9021, Note_off_c, 0, 57, 63
1, 9031, Control_c, 0, 64, 106
1, 9046, Control_c, 0, 64, 107
1, 9060, Control_c, 0, 64, 108
1, 9075, Control_c, 0, 64, 109
1, 9090, Control_c, 0, 64, 109
1, 9110, Note_on_c, 0, 66, 60
1, 9120, Note_on_c, 0, 63, 52
1, 9120, Control_c, 0, 64, 109
1, 9134, Control_c, 0, 64, 107
1, 9139, Note_off_c, 0, 63, 61
1, 9141, Note_off_c, 0, 66, 67
1, 9149, Control_c, 0, 64, 102
1, 9164, Control_c, 0, 64, 92
1, 9178, Control_c, 0, 64, 77
1, 9193, Control_c, 0, 64, 56
1, 9208, Control_c, 0, 64, 0
1, 9252, Control_c, 0, 64, 24
1, 9259, Note_on_c, 0, 61, 38
1, 9264, Note_on_c, 0, 65, 63
1, 9267, Control_c, 0, 64, 63
1, 9282, Control_c, 0, 64, 71
1, 9291, Note_off_c, 0, 61, 33
1, 9297, Control_c, 0, 64, 81
1, 9300, Note_off_c, 0, 65, 63
1, 9312, Control_c, 0, 64, 90
1, 9326, Control_c, 0, 64, 95
1, 9341, Control_c, 0, 64, 98
1, 9356, Control_c, 0, 64, 101
1, 9370, Control_c, 0, 64, 102
1, 9385, Control_c, 0, 64, 103
1, 9400, Control_c, 0, 64, 104
1, 9412, Note_on_c, 0, 68, 58
1, 9414, Note_on_c, 0, 73, 58
1, 9415, Control_c, 0, 64, 104
1, 9430, Control_c, 0, 64, 105
1, 9432, Note_off_c, 0, 68, 64
1, 9432, Note_off_c, 0, 73, 62
1, 9445, Control_c, 0, 64, 106
1, 9459, Control_c, 0, 64, 106
1, 9474, Control_c, 0, 64, 107
1, 9520, Control_c, 0, 64, 107
1, 9535, Note_on_c, 0, 77, 63
1, 9551, Note_on_c, 0, 80, 61
1, 9554, Note_off_c, 0, 77, 64
1, 9564, Control_c, 0, 64, 108
1, 9569, Note_off_c, 0, 80, 66
1, 9609, Control_c, 0, 64, 108
1, 9661, Control_c, 0, 64, 107
1, 9675, Control_c, 0, 64, 99
1, 9690, Control_c, 0, 64, 85
1, 9694, Note_on_c, 0, 78, 68
1, 9705, Control_c, 0, 64, 70
1, 9720, Control_c, 0, 64, 13
1, 9734, Note_off_c, 0, 78, 49
1, 9735, Control_c, 0, 64, 0
1, 9736, Note_on_c, 0, 81, 66
1, 9761, Note_off_c, 0, 81, 65
1, 9764, Note_on_c, 0, 85, 68
1, 9764, Control_c, 0, 64, 55
1, 9779, Control_c, 0, 64, 67
1, 9790, Note_off_c, 0, 85, 68
1, 9794, Control_c, 0, 64, 74
1, 9808, Control_c, 0, 64, 83
1, 9823, Control_c, 0, 64, 91
1, 9838, Control_c, 0, 64, 97
1, 9853, Control_c, 0, 64, 103
1, 9868, Control_c, 0, 64, 107
1, 9882, Control_c, 0, 64, 111
1, 9897, Control_c, 0, 64, 113
1, 9901, Note_on_c, 0, 73, 44
1, 9903, Note_on_c, 0, 81, 46
1, 9906, Note_on_c, 0, 78, 54
1, 9927, Note_off_c, 0, 78, 62
1, 9927, Note_off_c, 0, 81, 53
1, 9927, Control_c, 0, 64, 113
1, 9933, Note_off_c, 0, 73, 47
1, 9942, Control_c, 0, 64, 115
1, 9957, Control_c, 0, 64, 115
1, 10015, Note_on_c, 0, 78, 64
1, 10025, Note_on_c, 0, 69, 33
1, 10037, Note_off_c, 0, 78, 63
1, 10055, Note_off_c, 0, 69, 45
1, 10061, Control_c, 0, 64, 113
1, 10075, Control_c, 0, 64, 101
1, 10083, Poly_aftertouch_c, 0, 73, 0
1, 10090, Control_c, 0, 64, 86
1, 10105, Control_c, 0, 64, 70
1, 10120, Control_c, 0, 64, 0
1, 10135, Note_on_c, 0, 74, 58
1, 10135, Note_on_c, 0, 78, 68
1, 10145, Note_on_c, 0, 69, 33
1, 10161, Note_off_c, 0, 74, 69
1, 10175, Note_off_c, 0, 69, 35
1, 10175, Note_off_c, 0, 78, 64
1, 10179, Control_c, 0, 64, 59
1, 10193, Control_c, 0, 64, 68
1, 10208, Control_c, 0, 64, 77
1, 10223, Control_c, 0, 64, 87
1, 10238, Control_c, 0, 64, 94
1, 10253, Control_c, 0, 64, 99
1, 10261, Note_on_c, 0, 69, 57
1, 10268, Control_c, 0, 64, 101
1, 10269, Note_on_c, 0, 66, 45
1, 10279, Note_off_c, 0, 69, 62
1, 10282, Control_c, 0, 64, 102
1, 10297, Note_off_c, 0, 66, 56
1, 10298, Control_c, 0, 64, 103
1, 10313, Control_c, 0, 64, 103
1, 10343, Control_c, 0, 64, 104
1, 10344, Note_on_c, 0, 62, 60
1, 10358, Control_c, 0, 64, 105
1, 10360, Note_on_c, 0, 71, 60
1, 10365, Note_off_c, 0, 62, 63
1, 10378, Note_on_c, 0, 66, 35
1, 10380, Control_c, 0, 64, 105
1, 10398, Note_off_c, 0, 71, 65
1, 10407, Note_off_c, 0, 66, 53
1, 10454, Control_c, 0, 64, 101
1, 10469, Control_c, 0, 64, 92
1, 10484, Control_c, 0, 64, 78
1, 10488, Note_on_c, 0, 66, 50
1, 10499, Control_c, 0, 64, 62
1, 10504, Note_on_c, 0, 69, 70
1, 10510, Note_off_c, 0, 66, 56
1, 10513, Control_c, 0, 64, 0
1, 10525, Note_off_c, 0, 69, 72
1, 10527, Note_on_c, 0, 73, 67
1, 10546, Note_off_c, 0, 73, 67
1, 10558, Control_c, 0, 64, 30
1, 10573, Control_c, 0, 64, 64
1, 10587, Control_c, 0, 64, 71
1, 10602, Control_c, 0, 64, 80
1, 10617, Control_c, 0, 64, 89
1, 10631, Control_c, 0, 64, 93
1, 10646, Control_c, 0, 64, 96
1, 10660, Note_on_c, 0, 66, 57
1, 10660, Note_on_c, 0, 69, 60
1, 10661, Control_c, 0, 64, 98
1, 10676, Control_c, 0, 64, 99
1, 10691, Control_c, 0, 64, 100
1, 10693, Note_off_c, 0, 69, 68
1, 10695, Note_off_c, 0, 66, 66
1, 10705, Control_c, 0, 64, 100
1, 10735, Control_c, 0, 64, 101
1, 10750, Control_c, 0, 64, 102
1, 10765, Control_c, 0, 64, 102
1, 10771, Note_on_c, 0, 61, 61
1, 10796, Note_on_c, 0, 66, 35
1, 10807, Note_off_c, 0, 61, 62
1, 10824, Note_off_c, 0, 66, 54
1, 10854, Control_c, 0, 64, 103
1, 10885, Note_on_c, 0, 57, 54
1, 10888, Note_on_c, 0, 61, 63
1, 10908, Note_off_c, 0, 57, 61
1, 10923, Note_off_c, 0, 61, 62
1, 10978, Note_on_c, 0, 57, 69
1, 11002, Control_c, 0, 64, 103
1, 11003, Note_off_c, 0, 57, 68
1, 11003, Note_on_c, 0, 54, 47
1, 11030, Note_off_c, 0, 54, 53
1, 11031, Control_c, 0, 64, 104
1, 11061, Control_c, 0, 64, 104
1, 11076, Control_c, 0, 64, 105
1, 11091, Note_on_c, 0, 61, 66
1, 11105, Note_on_c, 0, 66, 58
1, 11122, Note_off_c, 0, 61, 68
1, 11131, Note_off_c, 0, 66, 65
1, 11143, Control_c, 0, 64, 104
1, 11158, Control_c, 0, 64, 98
1, 11173, Control_c, 0, 64, 85
1, 11188, Control_c, 0, 64, 68
1, 11203, Control_c, 0, 64, 0
1, 11218, Note_on_c, 0, 61, 62
1, 11248, Note_on_c, 0, 65, 65
1, 11252, Note_off_c, 0, 61, 63
1, 11262, Note_on_c, 0, 68, 68
1, 11262, Control_c, 0, 64, 60
1, 11277, Control_c, 0, 64, 70
1, 11289, Note_off_c, 0, 65, 65
1, 11292, Control_c, 0, 64, 81
1, 11307, Control_c, 0, 64, 95
1, 11311, Note_off_c, 0, 68, 55
1, 11322, Control_c, 0, 64, 101
1, 11336, Control_c, 0, 64, 103
1, 11351, Control_c, 0, 64, 104
1, 11366, Control_c, 0, 64, 105
1, 11382, Control_c, 0, 64, 106
1, 11389, Note_on_c, 0, 61, 54
1, 11391, Note_on_c, 0, 49, 53
1, 11397, Control_c, 0, 64, 108
1, 11411, Control_c, 0, 64, 109
1, 11413, Note_off_c, 0, 61, 63
1, 11415, Note_off_c, 0, 49, 61
1, 11426, Control_c, 0, 64, 110
1, 11441, Control_c, 0, 64, 110
1, 11480, Note_on_c, 0, 68, 62
1, 11485, Control_c, 0, 64, 106
1, 11489, Note_on_c, 0, 65, 55
1, 11500, Control_c, 0, 64, 95
1, 11510, Note_off_c, 0, 68, 62
1, 11514, Note_on_c, 0, 66, 50
1, 11514, Note_off_c, 0, 65, 58
1, 11515, Control_c, 0, 64, 81
1, 11529, Control_c, 0, 64, 64
1, 11536, Note_off_c, 0, 66, 57
1, 11544, Control_c, 0, 64, 0
1, 11587, Note_on_c, 0, 69, 69
1, 11590, Note_on_c, 0, 61, 65
1, 11603, Control_c, 0, 64, 63
1, 11610, Note_off_c, 0, 61, 63
1, 11613, Note_on_c, 0, 66, 51
1, 11618, Control_c, 0, 64, 72
1, 11633, Control_c, 0, 64, 82
1, 11635, Note_off_c, 0, 66, 60
1, 11637, Note_off_c, 0, 69, 59
1, 11647, Control_c, 0, 64, 91
1, 11662, Control_c, 0, 64, 95
1, 11677, Control_c, 0, 64, 97
1, 11692, Control_c, 0, 64, 99
1, 11704, Note_on_c, 0, 61, 57
1, 11707, Control_c, 0, 64, 100
1, 11713, Note_on_c, 0, 54, 52
1, 11722, Control_c, 0, 64, 100
1, 11736, Control_c, 0, 64, 101
1, 11740, Note_off_c, 0, 61, 61
1, 11742, Note_off_c, 0, 54, 62
1, 11751, Control_c, 0, 64, 103
1, 11766, Control_c, 0, 64, 104
1, 11781, Control_c, 0, 64, 104
1, 11808, Note_on_c, 0, 69, 68
1, 11826, Control_c, 0, 64, 104
1, 11832, Note_on_c, 0, 66, 48
1, 11836, Note_on_c, 0, 61, 39
1, 11840, Control_c, 0, 64, 99
1, 11842, Note_off_c, 0, 69, 62
1, 11855, Control_c, 0, 64, 89
1, 11859, Note_off_c, 0, 61, 56
1, 11859, Note_off_c, 0, 66, 54
1, 11877, Control_c, 0, 64, 75
1, 11892, Control_c, 0, 64, 25
1, 11908, Control_c, 0, 64, 0
1, 11934, Note_on_c, 0, 63, 57
1, 11952, Note_on_c, 0, 66, 51
1, 11952, Control_c, 0, 64, 45
1, 11959, Note_off_c, 0, 63, 61
1, 11967, Control_c, 0, 64, 65
1, 11975, Note_off_c, 0, 66, 60
1, 11982, Control_c, 0, 64, 74
1, 11996, Control_c, 0, 64, 84
1, 12011, Control_c, 0, 64, 92
1, 12026, Control_c, 0, 64, 97
1, 12041, Control_c, 0, 64, 100
1, 12056, Control_c, 0, 64, 102
1, 12061, Note_on_c, 0, 57, 46
1, 12064, Note_on_c, 0, 60, 43
1, 12070, Control_c, 0, 64, 104
1, 12085, Control_c, 0, 64, 105
1, 12086, Note_off_c, 0, 57, 55
1, 12089, Note_off_c, 0, 60, 50
1, 12100, Control_c, 0, 64, 105
1, 12160, Control_c, 0, 64, 105
1, 12166, Note_on_c, 0, 66, 58
1, 12170, Note_on_c, 0, 63, 52
1, 12175, Control_c, 0, 64, 102
1, 12190, Control_c, 0, 64, 94
1, 12193, Note_off_c, 0, 63, 58
1, 12202, Note_off_c, 0, 66, 60
1, 12204, Control_c, 0, 64, 80
1, 12219, Control_c, 0, 64, 63
1, 12234, Control_c, 0, 64, 0
1, 12293, Control_c, 0, 64, 26
1, 12308, Control_c, 0, 64, 62
1, 12317, Note_on_c, 0, 65, 56
1, 12322, Note_on_c, 0, 61, 35
1, 12323, Control_c, 0, 64, 69
1, 12338, Control_c, 0, 64, 77
1, 12352, Control_c, 0, 64, 87
1, 12353, Note_off_c, 0, 65, 63
1, 12354, Note_off_c, 0, 61, 32
1, 12367, Control_c, 0, 64, 95
1, 12382, Control_c, 0, 64, 100
1, 12396, Control_c, 0, 64, 104
1, 12411, Control_c, 0, 64, 105
1, 12426, Control_c, 0, 64, 106
1, 12441, Control_c, 0, 64, 106
1, 12456, Control_c, 0, 64, 107
1, 12461, Note_on_c, 0, 68, 65
1, 12469, Note_on_c, 0, 73, 50
1, 12470, Control_c, 0, 64, 108
1, 12485, Control_c, 0, 64, 109
1, 12489, Note_off_c, 0, 68, 67
1, 12489, Note_off_c, 0, 73, 60
1, 12515, Control_c, 0, 64, 110
1, 12530, Control_c, 0, 64, 110
1, 12544, Control_c, 0, 64, 111
1, 12559, Control_c, 0, 64, 113
1, 12574, Control_c, 0, 64, 114
1, 12585, Note_on_c, 0, 77, 66
1, 12589, Control_c, 0, 64, 115
1, 12602, Note_on_c, 0, 80, 58
1, 12602, Note_off_c, 0, 77, 65
1, 12604, Control_c, 0, 64, 115
1, 12626, Control_c, 0, 64, 116
1, 12628, Note_off_c, 0, 80, 64
1, 12641, Control_c, 0, 64, 117
1, 12656, Control_c, 0, 64, 118
1, 12701, Control_c, 0, 64, 117
1, 12716, Control_c, 0, 64, 111
1, 12731, Control_c, 0, 64, 99
1, 12746, Control_c, 0, 64, 83
1, 12758, Note_on_c, 0, 81, 66
1, 12761, Control_c, 0, 64, 61
1, 12775, Control_c, 0, 64, 0
1, 12790, Note_on_c, 0, 77, 64
1, 12810, Note_off_c, 0, 81, 57
1, 12819, Control_c, 0, 64, 30
1, 12833, Note_off_c, 0, 77, 57
1, 12834, Control_c, 0, 64, 63
1, 12849, Control_c, 0, 64, 71
1, 12864, Control_c, 0, 64, 79
1, 12879, Control_c, 0, 64, 88
1, 12893, Control_c, 0, 64, 93
1, 12908, Control_c, 0, 64, 97
1, 12913, Note_on_c, 0, 73, 56
1, 12914, Note_on_c, 0, 69, 62
1, 12923, Control_c, 0, 64, 100
1, 12936, Note_off_c, 0, 73, 61
1, 12938, Control_c, 0, 64, 102
1, 12951, Note_off_c, 0, 69, 61
1, 12953, Control_c, 0, 64, 103
1, 12968, Control_c, 0, 64, 104
1, 12982, Control_c, 0, 64, 105
1, 12997, Control_c, 0, 64, 107
1, 13012, Control_c, 0, 64, 109
1, 13027, Control_c, 0, 64, 110
1, 13030, Note_on_c, 0, 69, 68
1, 13055, Note_on_c, 0, 65, 69
1, 13063, Note_off_c, 0, 69, 66
1, 13086, Note_off_c, 0, 65, 65
1, 13164, Note_on_c, 0, 61, 59
1, 13176, Note_on_c, 0, 65, 58
1, 13185, Note_off_c, 0, 61, 58
1, 13198, Note_off_c, 0, 65, 63
1, 13265, Note_on_c, 0, 70, 72
1, 13276, Note_on_c, 0, 73, 66
1, 13300, Note_off_c, 0, 73, 63
1, 13321, Note_off_c, 0, 70, 60
1, 13352, Note_on_c, 0, 81, 76
1, 13352, Note_on_c, 0, 77, 74
1, 13384, Note_off_c, 0, 77, 67
1, 13394, Note_off_c, 0, 81, 55
1, 13434, Control_c, 0, 64, 109
1, 13449, Control_c, 0, 64, 101
1, 13457, Note_on_c, 0, 78, 77
1, 13464, Control_c, 0, 64, 87
1, 13467, Note_on_c, 0, 74, 65
1, 13479, Control_c, 0, 64, 70
1, 13480, Note_off_c, 0, 78, 68
1, 13491, Note_off_c, 0, 74, 70
1, 13495, Control_c, 0, 64, 0
1, 13554, Control_c, 0, 64, 56
1, 13567, Note_on_c, 0, 69, 68
1, 13569, Note_on_c, 0, 66, 60
1, 13569, Control_c, 0, 64, 67
1, 13584, Control_c, 0, 64, 75
1, 13591, Note_off_c, 0, 66, 66
1, 13593, Note_off_c, 0, 69, 70
1, 13598, Control_c, 0, 64, 85
1, 13613, Control_c, 0, 64, 92
1, 13627, Control_c, 0, 64, 95
1, 13641, Note_on_c, 0, 62, 67
1, 13641, Control_c, 0, 64, 96
1, 13650, Note_on_c, 0, 66, 47
1, 13656, Control_c, 0, 64, 97
1, 13671, Note_off_c, 0, 62, 63
1, 13671, Note_off_c, 0, 66, 61
1, 13671, Control_c, 0, 64, 97
1, 13724, Note_on_c, 0, 69, 80
1, 13737, Note_on_c, 0, 66, 69
1, 13746, Note_off_c, 0, 69, 71
1, 13753, Note_off_c, 0, 66, 67
1, 13760, Control_c, 0, 64, 98
1, 13760, Control_c, 0, 67, 125
1, 13775, Control_c, 0, 67, 123
1, 13805, Control_c, 0, 64, 98
1, 13814, Note_on_c, 0, 74, 69
1, 13820, Note_on_c, 0, 70, 74
1, 13820, Control_c, 0, 64, 99
1, 13835, Control_c, 0, 64, 100
1, 13836, Note_off_c, 0, 74, 72
1, 13849, Control_c, 0, 64, 102
1, 13855, Note_off_c, 0, 70, 54
1, 13864, Control_c, 0, 64, 104
1, 13879, Control_c, 0, 64, 107
1, 13894, Control_c, 0, 64, 112
1, 13908, Note_on_c, 0, 82, 74
1, 13909, Control_c, 0, 64, 115
1, 13912, Note_on_c, 0, 78, 79
1, 13923, Note_off_c, 0, 82, 68
1, 13923, Control_c, 0, 64, 117
1, 13930, Note_off_c, 0, 78, 66
1, 13953, Control_c, 0, 64, 116
1, 13953, Control_c, 0, 67, 124
1, 13967, Control_c, 0, 64, 108
1, 13982, Control_c, 0, 64, 92
1, 13982, Control_c, 0, 67, 125
1, 13997, Control_c, 0, 64, 68
1, 14012, Control_c, 0, 64, 0
1, 14017, Note_on_c, 0, 83, 79
1, 14027, Control_c, 0, 67, 124
1, 14030, Note_on_c, 0, 78, 75
1, 14041, Control_c, 0, 67, 124
1, 14052, Note_off_c, 0, 83, 60
1, 14066, Note_off_c, 0, 78, 67
1, 14071, Control_c, 0, 64, 63
1, 14071, Control_c, 0, 67, 124
1, 14086, Control_c, 0, 64, 73
1, 14086, Control_c, 0, 67, 125
1, 14101, Control_c, 0, 64, 83
1, 14123, Note_on_c, 0, 75, 73
1, 14123, Control_c, 0, 64, 94
1, 14127, Note_on_c, 0, 71, 67
1, 14138, Control_c, 0, 64, 100
1, 14138, Control_c, 0, 67, 125
1, 14150, Note_off_c, 0, 75, 67
1, 14153, Control_c, 0, 64, 104
1, 14160, Note_off_c, 0, 71, 61
1, 14168, Control_c, 0, 64, 107
1, 14182, Control_c, 0, 64, 110
1, 14182, Control_c, 0, 67, 126
1, 14197, Control_c, 0, 64, 112
1, 14212, Control_c, 0, 64, 113
1, 14214, Note_on_c, 0, 69, 53
1, 14222, Note_on_c, 0, 66, 65
1, 14227, Control_c, 0, 64, 114
1, 14227, Control_c, 0, 67, 126
1, 14237, Note_off_c, 0, 69, 62
1, 14260, Note_off_c, 0, 66, 58
1, 14286, Control_c, 0, 67, 125
1, 14289, Note_on_c, 0, 63, 82
1, 14289, Note_on_c, 0, 67, 69
1, 14302, Control_c, 0, 67, 124
1, 14311, Note_off_c, 0, 63, 70
1, 14317, Control_c, 0, 67, 123
1, 14332, Control_c, 0, 67, 123
1, 14337, Note_off_c, 0, 67, 65
1, 14346, Control_c, 0, 67, 122
1, 14361, Control_c, 0, 67, 122
1, 14376, Control_c, 0, 64, 113
1, 14385, Note_on_c, 0, 75, 78
1, 14388, Note_on_c, 0, 72, 71
1, 14390, Control_c, 0, 64, 112
1, 14390, Control_c, 0, 67, 121
1, 14405, Control_c, 0, 67, 121
1, 14410, Note_off_c, 0, 75, 66
1, 14420, Control_c, 0, 67, 119
1, 14425, Note_off_c, 0, 72, 61
1, 14435, Control_c, 0, 67, 117
1, 14449, Note_on_c, 0, 79, 90
1, 14449, Note_on_c, 0, 83, 83
1, 14450, Control_c, 0, 67, 114
1, 14464, Control_c, 0, 67, 112
1, 14467, Note_off_c, 0, 79, 71
1, 14479, Note_off_c, 0, 83, 53
1, 14479, Control_c, 0, 67, 110
1, 14494, Control_c, 0, 64, 106
1, 14494, Control_c, 0, 67, 110
1, 14509, Control_c, 0, 64, 88
1, 14524, Control_c, 0, 64, 63
1, 14524, Control_c, 0, 67, 109
1, 14538, Note_on_c, 0, 76, 89
1, 14538, Control_c, 0, 64, 0
1, 14538, Control_c, 0, 67, 108
1, 14539, Note_on_c, 0, 80, 88
1, 14553, Control_c, 0, 67, 104
1, 14561, Note_off_c, 0, 76, 66
1, 14562, Note_off_c, 0, 80, 66
1, 14568, Control_c, 0, 67, 100
1, 14583, Control_c, 0, 64, 28
1, 14583, Control_c, 0, 67, 98
1, 14598, Control_c, 0, 64, 67
1, 14610, Note_on_c, 0, 71, 87
1, 14613, Control_c, 0, 64, 78
1, 14614, Note_on_c, 0, 68, 76
1, 14628, Control_c, 0, 64, 91
1, 14628, Control_c, 0, 67, 96
1, 14643, Note_off_c, 0, 68, 66
1, 14643, Control_c, 0, 64, 97
1, 14643, Control_c, 0, 67, 92
1, 14658, Control_c, 0, 64, 100
1, 14658, Control_c, 0, 67, 83
1, 14661, Note_off_c, 0, 71, 59
1, 14672, Control_c, 0, 64, 102
1, 14672, Control_c, 0, 67, 72
1, 14685, Note_on_c, 0, 68, 80
1, 14687, Control_c, 0, 64, 103
1, 14687, Control_c, 0, 67, 61
1, 14689, Note_on_c, 0, 64, 83
1, 14702, Control_c, 0, 64, 103
1, 14702, Control_c, 0, 67, 52
1, 14710, Note_off_c, 0, 64, 71
1, 14716, Note_off_c, 0, 68, 64
1, 14717, Control_c, 0, 67, 46
1, 14732, Control_c, 0, 64, 104
1, 14732, Control_c, 0, 67, 42
1, 14746, Control_c, 0, 67, 40
1, 14761, Control_c, 0, 64, 105
1, 14767, Note_on_c, 0, 72, 88
1, 14775, Note_on_c, 0, 68, 74
1, 14776, Control_c, 0, 64, 108
1, 14776, Control_c, 0, 67, 40
1, 14790, Control_c, 0, 64, 110
1, 14790, Control_c, 0, 67, 40
1, 14797, Note_off_c, 0, 68, 71
1, 14801, Note_off_c, 0, 72, 68
1, 14805, Control_c, 0, 64, 111
1, 14820, Control_c, 0, 64, 111
1, 14834, Note_on_c, 0, 72, 69
1, 14835, Control_c, 0, 64, 113
1, 14840, Note_on_c, 0, 76, 73
1, 14850, Control_c, 0, 64, 119
1, 14850, Control_c, 0, 67, 40
1, 14871, Note_off_c, 0, 76, 69
1, 14872, Control_c, 0, 64, 127
1, 14872, Control_c, 0, 67, 41
1, 14889, Note_off_c, 0, 72, 62
1, 14902, Control_c, 0, 67, 41
1, 14932, Control_c, 0, 64, 121
1, 14932, Control_c, 0, 67, 42
1, 14932, Note_on_c, 0, 80, 82
1, 14938, Note_on_c, 0, 84, 57
1, 14946, Control_c, 0, 64, 94
1, 14946, Control_c, 0, 67, 41
1, 14948, Note_off_c, 0, 80, 63
1, 14961, Note_off_c, 0, 84, 63
1, 14961, Control_c, 0, 64, 70
1, 14961, Control_c, 0, 67, 41
1, 14976, Control_c, 0, 64, 0
1, 14976, Control_c, 0, 67, 40
1, 14989, Note_on_c, 0, 85, 70
1, 14991, Control_c, 0, 67, 39
1, 15005, Control_c, 0, 67, 39
1, 15020, Control_c, 0, 64, 24
1, 15025, Note_on_c, 0, 80, 87
1, 15035, Control_c, 0, 64, 68
1, 15042, Note_off_c, 0, 85, 67
1, 15050, Control_c, 0, 64, 81
1, 15057, Note_off_c, 0, 80, 65
1, 15065, Control_c, 0, 64, 94
1, 15079, Control_c, 0, 64, 101
1, 15079, Control_c, 0, 67, 38
1, 15092, Note_on_c, 0, 77, 80
1, 15095, Control_c, 0, 64, 105
1, 15095, Control_c, 0, 67, 38
1, 15099, Note_on_c, 0, 73, 68
1, 15110, Control_c, 0, 64, 108
1, 15126, Control_c, 0, 64, 109
1, 15126, Control_c, 0, 67, 37
1, 15141, Control_c, 0, 67, 37
1, 15155, Note_off_c, 0, 77, 51
1, 15156, Control_c, 0, 64, 110
1, 15170, Control_c, 0, 64, 110
1, 15170, Note_on_c, 0, 65, 85
1, 15185, Control_c, 0, 64, 111
1, 15190, Note_on_c, 0, 69, 57
1, 15193, Note_off_c, 0, 65, 68
1, 15200, Control_c, 0, 64, 111
1, 15209, Note_off_c, 0, 69, 63
1, 15214, Control_c, 0, 67, 36
1, 15229, Control_c, 0, 67, 36
1, 15244, Control_c, 0, 67, 35
1, 15259, Control_c, 0, 64, 112
1, 15259, Control_c, 0, 67, 32
1, 15262, Note_on_c, 0, 69, 73
1, 15265, Note_on_c, 0, 71, 72
1, 15267, Note_on_c, 0, 67, 60
1, 15274, Note_on_c, 0, 70, 41
1, 15274, Control_c, 0, 64, 112
1, 15274, Control_c, 0, 67, 30
1, 15275, Note_off_c, 0, 73, 40
1, 15283, Note_off_c, 0, 69, 73
1, 15287, Note_off_c, 0, 67, 61
1, 15287, Note_off_c, 0, 71, 66
1, 15288, Control_c, 0, 64, 113
1, 15288, Control_c, 0, 67, 28
1, 15303, Control_c, 0, 64, 113
1, 15303, Control_c, 0, 67, 26
1, 15304, Note_off_c, 0, 70, 51
1, 15318, Control_c, 0, 64, 116
1, 15318, Control_c, 0, 67, 25
1, 15328, Note_on_c, 0, 72, 76
1, 15333, Control_c, 0, 64, 127
1, 15333, Control_c, 0, 67, 24
1, 15334, Note_on_c, 0, 75, 68
1, 15348, Control_c, 0, 67, 23
1, 15354, Note_on_c, 0, 76, 68
1, 15357, Note_off_c, 0, 75, 56
1, 15362, Control_c, 0, 67, 22
1, 15370, Note_off_c, 0, 76, 69
1, 15377, Control_c, 0, 67, 21
1, 15381, Note_off_c, 0, 72, 62
1, 15402, Note_on_c, 0, 80, 62
1, 15407, Note_on_c, 0, 81, 87
1, 15407, Control_c, 0, 64, 100
1, 15411, Note_on_c, 0, 83, 65
1, 15421, Control_c, 0, 64, 71
1, 15425, Note_off_c, 0, 80, 58
1, 15426, Note_off_c, 0, 81, 68
1, 15436, Control_c, 0, 64, 0
1, 15436, Control_c, 0, 67, 21
1, 15438, Note_off_c, 0, 83, 65
1, 15451, Control_c, 0, 67, 19
1, 15466, Control_c, 0, 67, 18
1, 15477, Note_on_c, 0, 85, 88
1, 15481, Control_c, 0, 67, 17
1, 15495, Control_c, 0, 64, 66
1, 15495, Control_c, 0, 67, 16
1, 15506, Note_on_c, 0, 80, 85
1, 15510, Control_c, 0, 64, 77
1, 15510, Control_c, 0, 67, 14
1, 15522, Note_off_c, 0, 85, 65
1, 15524, Note_off_c, 0, 80, 73
1, 15525, Control_c, 0, 64, 93
1, 15525, Control_c, 0, 67, 12
1, 15540, Control_c, 0, 64, 105
1, 15540, Control_c, 0, 67, 9
1, 15555, Control_c, 0, 64, 115
1, 15555, Control_c, 0, 67, 0
1, 15570, Control_c, 0, 64, 127
1, 15575, Note_on_c, 0, 77, 81
1, 15576, Note_on_c, 0, 73, 73
1, 15631, Note_off_c, 0, 77, 55
1, 15638, Note_off_c, 0, 73, 62
1, 15658, Note_on_c, 0, 65, 85
1, 15662, Note_on_c, 0, 68, 79
1, 15680, Note_off_c, 0, 65, 71
1, 15686, Note_off_c, 0, 68, 69
1, 15738, Note_on_c, 0, 69, 86
1, 15745, Note_on_c, 0, 66, 61
1, 15764, Note_off_c, 0, 66, 65
1, 15773, Note_off_c, 0, 69, 66
1, 15825, Note_on_c, 0, 72, 79
1, 15826, Note_on_c, 0, 75, 79
1, 15859, Note_off_c, 0, 72, 58
1, 15874, Note_off_c, 0, 75, 63
1, 15889, Control_c, 0, 64, 102
1, 15896, Note_on_c, 0, 81, 84
1, 15904, Control_c, 0, 64, 77
1, 15913, Note_on_c, 0, 84, 68
1, 15919, Control_c, 0, 64, 0
1, 15930, Note_off_c, 0, 84, 67
1, 15940, Note_off_c, 0, 81, 61
1, 15976, Note_on_c, 0, 85, 77
1, 15978, Control_c, 0, 64, 64
1, 15993, Control_c, 0, 64, 74
1, 16008, Control_c, 0, 64, 91
1, 16011, Note_on_c, 0, 80, 82
1, 16023, Control_c, 0, 64, 106
1, 16023, Note_off_c, 0, 85, 66
1, 16029, Note_off_c, 0, 80, 73
1, 16038, Control_c, 0, 64, 117
1, 16052, Control_c, 0, 64, 127
1, 16077, Note_on_c, 0, 77, 76
1, 16083, Note_on_c, 0, 73, 65
1, 16118, Note_off_c, 0, 73, 60
1, 16142, Note_off_c, 0, 77, 42
1, 16145, Note_on_c, 0, 65, 80
1, 16159, Note_on_c, 0, 68, 68
1, 16166, Note_off_c, 0, 65, 72
1, 16178, Note_off_c, 0, 68, 67
1, 16215, Control_c, 0, 64, 117
1, 16230, Control_c, 0, 64, 97
1, 16244, Control_c, 0, 64, 76
1, 16259, Control_c, 0, 64, 0
1, 16262, Note_on_c, 0, 85, 77
1, 16279, Note_on_c, 0, 80, 78
1, 16285, Note_off_c, 0, 85, 70
1, 16304, Control_c, 0, 64, 40
1, 16318, Control_c, 0, 64, 68
1, 16333, Control_c, 0, 64, 81
1, 16338, Note_off_c, 0, 80, 62
1, 16348, Control_c, 0, 64, 99
1, 16370, Control_c, 0, 64, 112
1, 16377, Note_on_c, 0, 77, 66
1, 16382, Note_on_c, 0, 73, 63
1, 16385, Control_c, 0, 64, 119
1, 16400, Control_c, 0, 64, 123
1, 16410, Note_off_c, 0, 77, 58
1, 16415, Control_c, 0, 64, 127
1, 16430, Control_c, 0, 64, 127
1, 16431, Note_off_c, 0, 73, 54
1, 16487, Note_on_c, 0, 69, 74
1, 16497, Note_on_c, 0, 65, 32
1, 16510, Note_off_c, 0, 69, 68
1, 16529, Note_off_c, 0, 65, 47
1, 16548, Control_c, 0, 64, 117
1, 16563, Control_c, 0, 64, 100
1, 16577, Control_c, 0, 64, 78
1, 16592, Control_c, 0, 64, 48
1, 16607, Control_c, 0, 64, 0
1, 16613, Note_on_c, 0, 85, 72
1, 16625, Note_on_c, 0, 80, 79
1, 16650, Note_off_c, 0, 85, 58
1, 16650, Control_c, 0, 64, 61
1, 16665, Control_c, 0, 64, 74
1, 16668, Note_off_c, 0, 80, 66
1, 16680, Control_c, 0, 64, 88
1, 16693, Note_on_c, 0, 81, 51
1, 16696, Control_c, 0, 64, 101
1, 16711, Control_c, 0, 64, 110
1, 16715, Note_off_c, 0, 81, 56
1, 16726, Control_c, 0, 64, 117
1, 16740, Control_c, 0, 64, 123
1, 16755, Control_c, 0, 64, 127
1, 16762, Note_on_c, 0, 73, 63
1, 16765, Note_on_c, 0, 77, 63
1, 16796, Note_off_c, 0, 77, 62
1, 16798, Note_off_c, 0, 73, 59
1, 16861, Note_on_c, 0, 65, 67
1, 16890, Note_on_c, 0, 69, 48
1, 16899, Note_off_c, 0, 65, 61
1, 16928, Note_off_c, 0, 69, 57
1, 16947, Control_c, 0, 64, 111
1, 16962, Control_c, 0, 64, 92
1, 16977, Control_c, 0, 64, 74
1, 16992, Control_c, 0, 64, 32
1, 17001, Note_on_c, 0, 69, 47
1, 17007, Control_c, 0, 64, 0
1, 17022, Note_on_c, 0, 73, 66
1, 17033, Note_off_c, 0, 69, 66
1, 17036, Control_c, 0, 64, 32
1, 17051, Control_c, 0, 64, 67
1, 17053, Note_off_c, 0, 73, 64
1, 17066, Control_c, 0, 64, 79
1, 17081, Control_c, 0, 64, 94
1, 17096, Control_c, 0, 64, 105
1, 17118, Control_c, 0, 64, 111
1, 17133, Control_c, 0, 64, 116
1, 17147, Control_c, 0, 64, 121
1, 17162, Control_c, 0, 64, 127
1, 17169, Note_on_c, 0, 76, 67
1, 17218, Note_off_c, 0, 76, 67
1, 17355, Note_on_c, 0, 77, 60
1, 17368, Note_on_c, 0, 81, 71
1, 17387, Note_off_c, 0, 77, 64
1, 17418, Note_off_c, 0, 81, 61
1, 17896, Control_c, 0, 64, 123
1, 17911, Control_c, 0, 64, 99
1, 17926, Control_c, 0, 64, 77
1, 17936, Note_on_c, 0, 69, 51
1, 17937, Note_on_c, 0, 64, 40
1, 17940, Note_on_c, 0, 73, 41
1, 17940, Control_c, 0, 64, 53
1, 17955, Control_c, 0, 64, 0
1, 17961, Note_on_c, 0, 85, 61
1, 17981, Note_off_c, 0, 64, 52
1, 17985, Control_c, 0, 64, 49
1, 17990, Note_off_c, 0, 73, 60
1, 17991, Note_off_c, 0, 69, 61
1, 18000, Control_c, 0, 64, 67
1, 18014, Control_c, 0, 64, 79
1, 18019, Note_off_c, 0, 85, 60
1, 18029, Control_c, 0, 64, 91
1, 18044, Control_c, 0, 64, 102
1, 18059, Control_c, 0, 64, 111
1, 18062, Note_on_c, 0, 88, 55
1, 18074, Control_c, 0, 64, 120
1, 18089, Control_c, 0, 64, 127
1, 18092, Note_off_c, 0, 88, 64
1, 18103, Note_on_c, 0, 73, 56
1, 18108, Note_on_c, 0, 64, 46
1, 18110, Note_on_c, 0, 69, 57
1, 18124, Note_on_c, 0, 97, 56
1, 18125, Note_off_c, 0, 73, 63
1, 18130, Note_off_c, 0, 64, 58
1, 18133, Note_off_c, 0, 69, 66
1, 18163, Note_on_c, 0, 88, 79
1, 18166, Note_off_c, 0, 97, 63
1, 18197, Note_off_c, 0, 88, 61
1, 18199, Note_on_c, 0, 85, 75
1, 18213, Note_on_c, 0, 73, 69
1, 18215, Note_on_c, 0, 69, 69
1, 18217, Note_on_c, 0, 64, 62
1, 18219, Note_off_c, 0, 85, 71
1, 18241, Note_off_c, 0, 73, 66
1, 18243, Note_off_c, 0, 69, 67
1, 18247, Note_off_c, 0, 64, 67
1, 18297, Note_on_c, 0, 83, 46
1, 18318, Note_on_c, 0, 73, 83
1, 18322, Note_on_c, 0, 81, 79
1, 18322, Note_off_c, 0, 83, 50
1, 18325, Note_on_c, 0, 64, 64
1, 18328, Note_on_c, 0, 69, 72
1, 18342, Note_off_c, 0, 73, 67
1, 18342, Note_off_c, 0, 64, 66
1, 18349, Note_off_c, 0, 69, 73
1, 18373, Note_off_c, 0, 81, 60
1, 18378, Note_on_c, 0, 85, 81
1, 18421, Note_on_c, 0, 73, 82
1, 18423, Note_on_c, 0, 64, 67
1, 18423, Note_off_c, 0, 85, 62
1, 18431, Note_on_c, 0, 69, 75
1, 18435, Note_on_c, 0, 95, 55
1, 18438, Note_on_c, 0, 93, 61
1, 18441, Note_off_c, 0, 73, 64
1, 18452, Note_off_c, 0, 64, 63
1, 18454, Note_off_c, 0, 95, 60
1, 18455, Note_off_c, 0, 69, 70
1, 18461, Note_on_c, 0, 85, 63
1, 18469, Note_off_c, 0, 93, 66
1, 18516, Note_on_c, 0, 73, 88
1, 18518, Note_off_c, 0, 85, 65
1, 18521, Note_on_c, 0, 69, 80
1, 18523, Note_on_c, 0, 64, 69
1, 18524, Note_on_c, 0, 81, 69
1, 18550, Note_off_c, 0, 64, 67
1, 18554, Note_off_c, 0, 81, 60
1, 18555, Note_off_c, 0, 73, 58
1, 18557, Note_off_c, 0, 69, 50
1, 18579, Note_on_c, 0, 81, 63
1, 18590, Note_on_c, 0, 80, 32
1, 18591, Note_off_c, 0, 80, 127
1, 18617, Control_c, 0, 64, 124
1, 18622, Note_on_c, 0, 73, 97
1, 18625, Note_on_c, 0, 69, 84
1, 18632, Control_c, 0, 64, 97
1, 18634, Note_on_c, 0, 64, 77
1, 18646, Note_on_c, 0, 78, 86
1, 18646, Note_off_c, 0, 81, 60
1, 18646, Control_c, 0, 64, 73
1, 18661, Control_c, 0, 64, 0
1, 18706, Control_c, 0, 64, 15
1, 18714, Note_on_c, 0, 90, 70
1, 18714, Note_off_c, 0, 78, 62
1, 18721, Control_c, 0, 64, 66
1, 18724, Note_on_c, 0, 85, 74
1, 18729, Note_off_c, 0, 90, 66
1, 18736, Control_c, 0, 64, 76
1, 18750, Control_c, 0, 64, 91
1, 18765, Control_c, 0, 64, 105
1, 18780, Control_c, 0, 64, 117
1, 18795, Control_c, 0, 64, 127
1, 18813, Note_off_c, 0, 85, 61
1, 18818, Note_off_c, 0, 73, 59
1, 18825, Note_off_c, 0, 64, 59
1, 18840, Note_on_c, 0, 78, 56
1, 18854, Note_on_c, 0, 81, 70
1, 18857, Note_off_c, 0, 69, 59
1, 18861, Note_off_c, 0, 78, 57
1, 18877, Note_off_c, 0, 81, 68
1, 18891, Poly_aftertouch_c, 0, 80, 127
1, 18912, Poly_aftertouch_c, 0, 80, 0
1, 18935, Note_on_c, 0, 75, 86
1, 18938, Note_on_c, 0, 83, 72
1, 18939, Note_on_c, 0, 64, 68
1, 18943, Note_on_c, 0, 66, 67
1, 18943, Control_c, 0, 64, 121
1, 18946, Note_on_c, 0, 69, 65
1, 18954, Note_off_c, 0, 75, 70
1, 18958, Control_c, 0, 64, 100
1, 18969, Note_off_c, 0, 64, 66
1, 18969, Note_off_c, 0, 69, 71
1, 18970, Note_off_c, 0, 66, 68
1, 18972, Control_c, 0, 64, 76
1, 18987, Control_c, 0, 64, 0
1, 18991, Note_off_c, 0, 83, 59
1, 18993, Note_on_c, 0, 87, 64
1, 19022, Note_on_c, 0, 95, 28
1, 19034, Note_on_c, 0, 75, 74
1, 19034, Note_on_c, 0, 66, 69
1, 19035, Note_on_c, 0, 64, 69
1, 19043, Note_off_c, 0, 95, 54
1, 19044, Note_on_c, 0, 69, 55
1, 19055, Note_on_c, 0, 90, 66
1, 19056, Note_off_c, 0, 75, 70
1, 19063, Note_off_c, 0, 64, 68
1, 19063, Note_off_c, 0, 66, 66
1, 19066, Note_off_c, 0, 69, 65
1, 19081, Note_off_c, 0, 87, 64
1, 19085, Note_off_c, 0, 90, 66
1, 19102, Note_on_c, 0, 83, 69
1, 19138, Note_on_c, 0, 64, 71
1, 19140, Note_on_c, 0, 75, 71
1, 19144, Note_on_c, 0, 66, 69
1, 19149, Note_off_c, 0, 83, 57
1, 19168, Note_off_c, 0, 75, 66
1, 19172, Note_on_c, 0, 80, 66
1, 19172, Note_off_c, 0, 66, 69
1, 19176, Note_off_c, 0, 64, 62
1, 19192, Note_off_c, 0, 80, 67
1, 19235, Note_on_c, 0, 74, 96
1, 19241, Note_on_c, 0, 71, 83
1, 19242, Note_on_c, 0, 64, 75
1, 19244, Note_on_c, 0, 68, 79
1, 19253, Note_on_c, 0, 78, 78
1, 19254, Control_c, 0, 64, 67
1, 19269, Control_c, 0, 64, 81
1, 19284, Note_off_c, 0, 78, 59
1, 19284, Control_c, 0, 64, 100
1, 19287, Note_on_c, 0, 83, 64
1, 19299, Control_c, 0, 64, 127
1, 19337, Note_on_c, 0, 90, 78
1, 19410, Note_off_c, 0, 90, 63
1, 19428, Note_off_c, 0, 83, 63
1, 19430, Note_on_c, 0, 78, 82
1, 19451, Note_off_c, 0, 78, 69
1, 19475, Note_off_c, 0, 74, 61
1, 19487, Note_on_c, 0, 76, 86
1, 19496, Note_off_c, 0, 71, 57
1, 19497, Note_off_c, 0, 64, 59
1, 19529, Control_c, 0, 64, 92
1, 19531, Note_off_c, 0, 68, 64
1, 19531, Note_off_c, 0, 76, 68
1, 19543, Control_c, 0, 64, 65
1, 19545, Note_on_c, 0, 75, 75
1, 19558, Control_c, 0, 64, 0
1, 19580, Note_off_c, 0, 75, 58
1, 19596, Note_on_c, 0, 76, 79
1, 19634, Note_off_c, 0, 76, 66
1, 19652, Note_on_c, 0, 78, 76
1, 19689, Note_on_c, 0, 80, 70
1, 19696, Note_off_c, 0, 78, 63
1, 19711, Note_off_c, 0, 80, 70
1, 19752, Note_on_c, 0, 81, 76
1, 19794, Note_off_c, 0, 81, 63
1, 19810, Note_on_c, 0, 83, 63
1, 19827, Note_off_c, 0, 83, 61
1, 19895, Note_on_c, 0, 85, 69
1, 19899, Control_c, 0, 64, 44
1, 19900, Note_on_c, 0, 64, 56
1, 19900, Note_on_c, 0, 69, 62
1, 19905, Note_on_c, 0, 73, 55
1, 19914, Control_c, 0, 64, 63
1, 19928, Note_off_c, 0, 85, 64
1, 19929, Control_c, 0, 64, 70
1, 19931, Note_off_c, 0, 73, 63
1, 19931, Note_off_c, 0, 69, 66
1, 19936, Note_off_c, 0, 64, 64
1, 19944, Control_c, 0, 64, 81
1, 19958, Control_c, 0, 64, 98
1, 19961, Note_on_c, 0, 88, 52
1, 19973, Control_c, 0, 64, 121
1, 19983, Note_off_c, 0, 88, 64
1, 19988, Control_c, 0, 64, 127
1, 20007, Note_on_c, 0, 97, 65
1, 20024, Note_on_c, 0, 73, 61
1, 20029, Note_on_c, 0, 64, 53
1, 20035, Note_on_c, 0, 69, 55
1, 20047, Note_off_c, 0, 64, 64
1, 20053, Note_off_c, 0, 73, 65
1, 20055, Note_off_c, 0, 69, 65
1, 20061, Note_on_c, 0, 88, 68
1, 20063, Note_off_c, 0, 97, 59
1, 20097, Note_off_c, 0, 88, 62
1, 20098, Note_on_c, 0, 85, 72
1, 20128, Note_off_c, 0, 85, 68
1, 20134, Note_on_c, 0, 73, 81
1, 20135, Note_on_c, 0, 69, 78
1, 20138, Note_on_c, 0, 64, 68
1, 20156, Note_off_c, 0, 73, 65
1, 20157, Note_off_c, 0, 69, 65
1, 20167, Note_off_c, 0, 64, 66
1, 20178, Note_on_c, 0, 83, 76
1, 20199, Note_off_c, 0, 83, 67
1, 20236, Note_on_c, 0, 73, 89
1, 20241, Note_on_c, 0, 69, 80
1, 20244, Note_on_c, 0, 64, 71
1, 20247, Note_on_c, 0, 81, 80
1, 20260, Note_off_c, 0, 73, 63
1, 20262, Note_off_c, 0, 69, 68
1, 20268, Note_off_c, 0, 64, 69
1, 20286, Note_off_c, 0, 81, 54
1, 20298, Note_on_c, 0, 85, 78
1, 20334, Note_on_c, 0, 93, 71
1, 20336, Note_on_c, 0, 73, 89
1, 20341, Note_on_c, 0, 69, 80
1, 20348, Note_on_c, 0, 64, 70
1, 20358, Note_off_c, 0, 85, 0
1, 20359, Note_off_c, 0, 73, 66
1, 20364, Note_off_c, 0, 64, 69
1, 20366, Note_off_c, 0, 69, 66
1, 20369, Note_on_c, 0, 85, 54
1, 20369, Note_off_c, 0, 93, 60
1, 20417, Note_off_c, 0, 85, 66
1, 20427, Note_on_c, 0, 73, 97
1, 20429, Note_on_c, 0, 64, 73
1, 20435, Note_on_c, 0, 69, 76
1, 20464, Note_off_c, 0, 69, 63
1, 20465, Note_off_c, 0, 64, 60
1, 20469, Note_off_c, 0, 73, 57
1, 20474, Note_on_c, 0, 80, 87
1, 20514, Control_c, 0, 64, 106
1, 20516, Note_off_c, 0, 80, 63
1, 20527, Note_on_c, 0, 73, 94
1, 20529, Control_c, 0, 64, 80
1, 20530, Note_on_c, 0, 69, 86
1, 20534, Note_on_c, 0, 64, 79
1, 20543, Control_c, 0, 64, 0
1, 20551, Note_on_c, 0, 78, 84
1, 20603, Control_c, 0, 64, 54
1, 20617, Control_c, 0, 64, 71
1, 20618, Note_off_c, 0, 78, 63
1, 20623, Note_on_c, 0, 90, 57
1, 20632, Control_c, 0, 64, 84
1, 20638, Note_on_c, 0, 85, 66
1, 20647, Control_c, 0, 64, 100
1, 20659, Note_off_c, 0, 90, 64
1, 20661, Note_on_c, 0, 81, 38
1, 20662, Control_c, 0, 64, 112
1, 20677, Control_c, 0, 64, 127
1, 20711, Note_off_c, 0, 85, 59
1, 20713, Note_off_c, 0, 81, 56
1, 20724, Note_on_c, 0, 80, 59
1, 20730, Note_off_c, 0, 64, 61
1, 20733, Note_off_c, 0, 73, 59
1, 20744, Note_off_c, 0, 80, 60
1, 20763, Note_off_c, 0, 69, 59
1, 20828, Note_on_c, 0, 75, 85
1, 20829, Note_on_c, 0, 69, 71
1, 20833, Note_on_c, 0, 64, 71
1, 20836, Note_on_c, 0, 66, 67
1, 20840, Control_c, 0, 64, 116
1, 20847, Note_off_c, 0, 75, 69
1, 20848, Note_on_c, 0, 83, 67
1, 20863, Control_c, 0, 64, 92
1, 20864, Note_off_c, 0, 64, 69
1, 20868, Note_off_c, 0, 69, 65
1, 20871, Note_off_c, 0, 66, 68
1, 20878, Control_c, 0, 64, 71
1, 20893, Control_c, 0, 64, 0
1, 20900, Note_off_c, 0, 83, 57
1, 20920, Note_on_c, 0, 95, 35
1, 20921, Note_on_c, 0, 87, 65
1, 20936, Note_on_c, 0, 75, 71
1, 20938, Note_on_c, 0, 66, 69
1, 20939, Note_on_c, 0, 64, 64
1, 20941, Note_on_c, 0, 69, 65
1, 20954, Note_off_c, 0, 95, 63
1, 20961, Note_off_c, 0, 75, 69
1, 20962, Note_off_c, 0, 69, 65
1, 20968, Note_off_c, 0, 64, 65
1, 20968, Note_off_c, 0, 66, 67
1, 20992, Note_on_c, 0, 90, 31
1, 20993, Note_off_c, 0, 87, 63
1, 21014, Note_on_c, 0, 83, 67
1, 21019, Note_off_c, 0, 90, 45
1, 21044, Note_on_c, 0, 64, 67
1, 21044, Note_on_c, 0, 75, 59
1, 21044, Note_off_c, 0, 83, 59
1, 21046, Note_on_c, 0, 66, 60
1, 21068, Note_on_c, 0, 69, 23
1, 21077, Note_off_c, 0, 75, 67
1, 21079, Note_off_c, 0, 66, 67
1, 21079, Note_off_c, 0, 64, 62
1, 21090, Note_off_c, 0, 69, 44
1, 21096, Note_on_c, 0, 80, 53
1, 21116, Note_off_c, 0, 80, 60
1, 21157, Note_on_c, 0, 74, 77
1, 21165, Note_on_c, 0, 64, 62
1, 21166, Note_on_c, 0, 68, 62
1, 21169, Note_on_c, 0, 71, 57
1, 21173, Note_on_c, 0, 78, 60
1, 21174, Control_c, 0, 64, 60
1, 21189, Control_c, 0, 64, 68
1, 21193, Note_off_c, 0, 78, 63
1, 21204, Control_c, 0, 64, 75
1, 21216, Note_on_c, 0, 83, 61
1, 21219, Control_c, 0, 64, 86
1, 21233, Control_c, 0, 64, 97
1, 21248, Note_off_c, 0, 83, 58
1, 21248, Control_c, 0, 64, 108
1, 21261, Note_on_c, 0, 90, 74
1, 21263, Control_c, 0, 64, 118
1, 21278, Control_c, 0, 64, 122
1, 21293, Control_c, 0, 64, 123
1, 21299, Note_on_c, 0, 83, 65
1, 21304, Note_off_c, 0, 74, 52
1, 21318, Note_off_c, 0, 64, 55
1, 21320, Note_off_c, 0, 90, 62
1, 21345, Note_on_c, 0, 78, 86
1, 21345, Note_off_c, 0, 83, 62
1, 21347, Note_off_c, 0, 71, 54
1, 21362, Note_off_c, 0, 78, 73
1, 21362, Note_off_c, 0, 68, 62
1, 21401, Note_on_c, 0, 76, 80
1, 21440, Control_c, 0, 64, 123
1, 21443, Note_off_c, 0, 76, 67
1, 21463, Note_on_c, 0, 75, 76
1, 21500, Note_off_c, 0, 75, 58
1, 21514, Note_on_c, 0, 76, 80
1, 21557, Note_off_c, 0, 76, 64
1, 21572, Note_on_c, 0, 78, 78
1, 21612, Note_on_c, 0, 80, 76
1, 21621, Note_off_c, 0, 78, 59
1, 21633, Note_off_c, 0, 80, 71
1, 21657, Control_c, 0, 64, 123
1, 21673, Note_on_c, 0, 81, 90
1, 21714, Note_off_c, 0, 81, 61
1, 21731, Control_c, 0, 64, 114
1, 21740, Note_on_c, 0, 83, 45
1, 21745, Control_c, 0, 64, 94
1, 21760, Control_c, 0, 64, 73
1, 21763, Note_off_c, 0, 83, 39
1, 21775, Control_c, 0, 64, 0
1, 21789, Note_on_c, 0, 69, 52
1, 21789, Note_on_c, 0, 76, 56
1, 21792, Note_on_c, 0, 73, 55
1, 21795, Note_on_c, 0, 85, 78
1, 21809, Note_off_c, 0, 76, 64
1, 21815, Note_off_c, 0, 73, 61
1, 21816, Note_off_c, 0, 69, 60
1, 21833, Note_off_c, 0, 85, 65
1, 21834, Control_c, 0, 64, 60
1, 21839, Note_on_c, 0, 88, 74
1, 21849, Control_c, 0, 64, 73
1, 21864, Control_c, 0, 64, 86
1, 21868, Note_off_c, 0, 88, 62
1, 21879, Control_c, 0, 64, 94
1, 21889, Note_on_c, 0, 97, 68
1, 21890, Note_on_c, 0, 76, 65
1, 21894, Control_c, 0, 64, 102
1, 21898, Note_on_c, 0, 73, 58
1, 21909, Control_c, 0, 64, 104
1, 21914, Note_on_c, 0, 69, 48
1, 21917, Note_off_c, 0, 76, 69
1, 21919, Note_off_c, 0, 73, 62
1, 21924, Control_c, 0, 64, 105
1, 21929, Note_off_c, 0, 97, 60
1, 21935, Note_on_c, 0, 88, 74
1, 21935, Note_off_c, 0, 69, 56
1, 21958, Note_off_c, 0, 88, 68
1, 21968, Control_c, 0, 64, 106
1, 21982, Control_c, 0, 64, 107
1, 21987, Note_on_c, 0, 81, 78
1, 21997, Control_c, 0, 64, 111
1, 22000, Note_on_c, 0, 73, 63
1, 22005, Note_on_c, 0, 69, 72
1, 22005, Note_on_c, 0, 76, 68
1, 22012, Control_c, 0, 64, 112
1, 22027, Control_c, 0, 64, 110
1, 22031, Note_off_c, 0, 76, 69
1, 22032, Note_off_c, 0, 69, 68
1, 22042, Control_c, 0, 64, 98
1, 22046, Note_on_c, 0, 83, 79
1, 22050, Note_off_c, 0, 81, 60
1, 22052, Note_off_c, 0, 73, 62
1, 22056, Control_c, 0, 64, 78
1, 22065, Note_off_c, 0, 83, 68
1, 22071, Control_c, 0, 64, 0
1, 22101, Note_on_c, 0, 76, 94
1, 22107, Note_on_c, 0, 73, 70
1, 22107, Note_on_c, 0, 68, 81
1, 22122, Note_on_c, 0, 85, 81
1, 22131, Control_c, 0, 64, 66
1, 22139, Note_off_c, 0, 76, 66
1, 22146, Control_c, 0, 64, 81
1, 22149, Note_off_c, 0, 73, 63
1, 22160, Note_off_c, 0, 85, 65
1, 22161, Control_c, 0, 64, 99
1, 22166, Note_off_c, 0, 68, 62
1, 22167, Note_on_c, 0, 88, 78
1, 22175, Control_c, 0, 64, 110
1, 22190, Control_c, 0, 64, 111
1, 22199, Note_off_c, 0, 88, 60
1, 22205, Note_on_c, 0, 68, 59
1, 22205, Note_on_c, 0, 76, 83
1, 22210, Note_on_c, 0, 97, 72
1, 22217, Note_on_c, 0, 73, 59
1, 22218, Note_on_c, 0, 90, 40
1, 22247, Note_off_c, 0, 90, 51
1, 22250, Note_off_c, 0, 76, 66
1, 22259, Note_off_c, 0, 97, 64
1, 22260, Note_on_c, 0, 88, 71
1, 22265, Note_off_c, 0, 73, 59
1, 22295, Control_c, 0, 64, 111
1, 22303, Note_on_c, 0, 84, 82
1, 22303, Note_off_c, 0, 88, 62
1, 22312, Note_on_c, 0, 76, 77
1, 22322, Note_on_c, 0, 73, 53
1, 22325, Control_c, 0, 64, 112
1, 22361, Control_c, 0, 64, 110
1, 22366, Note_off_c, 0, 76, 66
1, 22375, Note_off_c, 0, 84, 64
1, 22376, Control_c, 0, 64, 98
1, 22378, Note_on_c, 0, 85, 85
1, 22388, Note_off_c, 0, 68, 63
1, 22388, Note_off_c, 0, 73, 61
1, 22391, Control_c, 0, 64, 77
1, 22394, Note_off_c, 0, 85, 78
1, 22405, Control_c, 0, 64, 0
1, 22426, Note_on_c, 0, 76, 87
1, 22431, Note_on_c, 0, 73, 52
1, 22439, Note_on_c, 0, 67, 76
1, 22449, Note_on_c, 0, 85, 85
1, 22465, Control_c, 0, 64, 61
1, 22469, Note_off_c, 0, 76, 66
1, 22480, Control_c, 0, 64, 76
1, 22495, Control_c, 0, 64, 91
1, 22495, Note_on_c, 0, 88, 73
1, 22497, Note_off_c, 0, 85, 65
1, 22509, Control_c, 0, 64, 106
1, 22524, Control_c, 0, 64, 108
1, 22525, Note_off_c, 0, 73, 0
1, 22527, Note_off_c, 0, 88, 62
1, 22535, Note_on_c, 0, 97, 76
1, 22539, Control_c, 0, 64, 110
1, 22554, Control_c, 0, 64, 110
1, 22562, Poly_aftertouch_c, 0, 73, 127
1, 22589, Note_on_c, 0, 76, 68
1, 22596, Note_off_c, 0, 97, 65
1, 22608, Note_off_c, 0, 67, 61
1, 22613, Control_c, 0, 64, 112
1, 22620, Note_on_c, 0, 88, 52
1, 22622, Poly_aftertouch_c, 0, 90, 0
1, 22628, Note_on_c, 0, 70, 49
1, 22628, Control_c, 0, 64, 115
1, 22635, Note_on_c, 0, 84, 80
1, 22641, Note_off_c, 0, 88, 60
1, 22658, Note_off_c, 0, 76, 65
1, 22673, Control_c, 0, 64, 107
1, 22687, Control_c, 0, 64, 89
1, 22694, Note_on_c, 0, 64, 87
1, 22700, Note_off_c, 0, 84, 61
1, 22702, Control_c, 0, 64, 62
1, 22706, Note_on_c, 0, 85, 83
1, 22717, Control_c, 0, 64, 0
1, 22722, Note_off_c, 0, 64, 68
1, 22722, Note_off_c, 0, 85, 73
1, 22768, Note_on_c, 0, 79, 103
1, 22776, Control_c, 0, 64, 66
1, 22778, Note_on_c, 0, 85, 79
1, 22791, Control_c, 0, 64, 83
1, 22805, Control_c, 0, 64, 101
1, 22815, Note_on_c, 0, 88, 79
1, 22819, Note_off_c, 0, 85, 64
1, 22820, Control_c, 0, 64, 112
1, 22829, Note_off_c, 0, 70, 55
1, 22835, Control_c, 0, 64, 117
1, 22840, Note_off_c, 0, 79, 56
1, 22849, Note_on_c, 0, 97, 75
1, 22850, Control_c, 0, 64, 118
1, 22865, Control_c, 0, 64, 119
1, 22893, Note_on_c, 0, 94, 77
1, 22900, Note_off_c, 0, 88, 59
1, 22909, Control_c, 0, 64, 120
1, 22924, Control_c, 0, 64, 121
1, 22928, Poly_aftertouch_c, 0, 73, 0
1, 22937, Note_on_c, 0, 91, 74
1, 22939, Control_c, 0, 64, 123
1, 22944, Note_off_c, 0, 97, 62
1, 22954, Control_c, 0, 64, 125
1, 22968, Control_c, 0, 64, 126
1, 22980, Note_on_c, 0, 88, 74
1, 22983, Control_c, 0, 64, 127
1, 22993, Note_off_c, 0, 94, 65
1, 23013, Note_off_c, 0, 91, 59
1, 23023, Note_on_c, 0, 85, 79
1, 23037, Note_off_c, 0, 88, 63
1, 23058, Control_c, 0, 64, 108
1, 23063, Note_off_c, 0, 85, 68
1, 23067, Note_on_c, 0, 76, 98
1, 23072, Note_on_c, 0, 70, 87
1, 23073, Control_c, 0, 64, 89
1, 23076, Note_on_c, 0, 66, 83
1, 23076, Note_on_c, 0, 73, 85
1, 23088, Control_c, 0, 64, 71
1, 23110, Control_c, 0, 64, 0
1, 23121, Note_on_c, 0, 82, 65
1, 23150, Note_on_c, 0, 79, 74
1, 23163, Note_off_c, 0, 82, 64
1, 23191, Note_off_c, 0, 79, 64
1, 23233, Note_off_c, 0, 76, 27
1, 23273, Note_on_c, 0, 78, 83
1, 23320, Note_off_c, 0, 78, 61
1, 23331, Note_on_c, 0, 77, 76
1, 23362, Control_c, 0, 64, 25
1, 23373, Note_off_c, 0, 77, 62
1, 23377, Control_c, 0, 64, 67
1, 23392, Control_c, 0, 64, 74
1, 23392, Note_off_c, 0, 73, 60
1, 23395, Note_on_c, 0, 80, 66
1, 23404, Note_off_c, 0, 66, 63
1, 23407, Control_c, 0, 64, 83
1, 23412, Note_off_c, 0, 70, 60
1, 23416, Note_off_c, 0, 80, 58
1, 23422, Control_c, 0, 64, 92
1, 23436, Control_c, 0, 64, 103
1, 23451, Note_on_c, 0, 79, 82
1, 23451, Control_c, 0, 64, 119
1, 23466, Control_c, 0, 64, 127
1, 23497, Note_off_c, 0, 79, 63
1, 23502, Note_on_c, 0, 81, 73
1, 23541, Note_on_c, 0, 82, 78
1, 23546, Note_off_c, 0, 81, 60
1, 23591, Note_off_c, 0, 82, 62
1, 23620, Note_on_c, 0, 84, 67
1, 23627, Note_on_c, 0, 83, 69
1, 23642, Note_off_c, 0, 84, 59
1, 23643, Control_c, 0, 64, 106
1, 23654, Note_off_c, 0, 83, 63
1, 23658, Control_c, 0, 64, 77
1, 23673, Control_c, 0, 64, 0
1, 23681, Note_on_c, 0, 86, 76
1, 23687, Note_on_c, 0, 77, 74
1, 23693, Note_on_c, 0, 70, 63
1, 23696, Note_on_c, 0, 74, 63
1, 23714, Note_off_c, 0, 86, 54
1, 23714, Note_off_c, 0, 77, 62
1, 23723, Note_off_c, 0, 74, 67
1, 23726, Note_off_c, 0, 70, 62
1, 23732, Control_c, 0, 64, 64
1, 23746, Control_c, 0, 64, 77
1, 23749, Note_on_c, 0, 96, 60
1, 23761, Control_c, 0, 64, 89
1, 23776, Control_c, 0, 64, 97
1, 23791, Control_c, 0, 64, 100
1, 23799, Note_off_c, 0, 96, 59
1, 23800, Note_on_c, 0, 88, 82
1, 23806, Control_c, 0, 64, 101
1, 23810, Note_on_c, 0, 77, 66
1, 23812, Note_on_c, 0, 70, 62
1, 23821, Control_c, 0, 64, 102
1, 23828, Note_on_c, 0, 74, 42
1, 23831, Note_off_c, 0, 77, 63
1, 23842, Note_off_c, 0, 88, 63
1, 23845, Note_off_c, 0, 70, 64
1, 23857, Note_off_c, 0, 74, 63
1, 23873, Control_c, 0, 64, 103
1, 23889, Control_c, 0, 64, 104
1, 23899, Note_on_c, 0, 82, 83
1, 23904, Control_c, 0, 64, 105
1, 23911, Note_on_c, 0, 77, 78
1, 23922, Note_on_c, 0, 70, 73
1, 23933, Control_c, 0, 64, 102
1, 23936, Note_on_c, 0, 74, 61
1, 23948, Note_off_c, 0, 82, 64
1, 23948, Control_c, 0, 64, 84
1, 23955, Note_off_c, 0, 70, 50
1, 23956, Note_on_c, 0, 84, 69
1, 23962, Note_off_c, 0, 74, 70
1, 23963, Control_c, 0, 64, 64
1, 23964, Note_off_c, 0, 77, 61
1, 23973, Note_off_c, 0, 84, 67
1, 23977, Control_c, 0, 64, 0
1, 24019, Note_on_c, 0, 77, 74
1, 24024, Note_on_c, 0, 88, 84
1, 24036, Note_on_c, 0, 74, 57
1, 24037, Control_c, 0, 64, 55
1, 24048, Note_on_c, 0, 69, 36
1, 24051, Control_c, 0, 64, 75
1, 24062, Note_off_c, 0, 88, 64
1, 24064, Note_off_c, 0, 74, 70
1, 24064, Note_off_c, 0, 77, 61
1, 24065, Note_on_c, 0, 89, 76
1, 24066, Control_c, 0, 64, 89
1, 24076, Note_off_c, 0, 69, 46
1, 24081, Control_c, 0, 64, 103
1, 24096, Control_c, 0, 64, 109
1, 24110, Note_on_c, 0, 98, 62
1, 24110, Control_c, 0, 64, 114
1, 24116, Note_off_c, 0, 89, 57
1, 24125, Control_c, 0, 64, 117
1, 24128, Note_on_c, 0, 77, 73
1, 24136, Note_off_c, 0, 98, 69
1, 24140, Control_c, 0, 64, 121
1, 24144, Note_on_c, 0, 89, 52
1, 24151, Note_on_c, 0, 69, 68
1, 24152, Note_on_c, 0, 74, 51
1, 24155, Control_c, 0, 64, 127
1, 24169, Note_off_c, 0, 89, 65
1, 24174, Note_off_c, 0, 74, 64
1, 24177, Note_on_c, 0, 86, 77
1, 24179, Note_off_c, 0, 77, 58
1, 24206, Note_off_c, 0, 69, 0
1, 24232, Note_on_c, 0, 77, 65
1, 24243, Poly_aftertouch_c, 0, 69, 127
1, 24247, Note_off_c, 0, 86, 66
1, 24258, Control_c, 0, 64, 102
1, 24269, Poly_aftertouch_c, 0, 69, 0
1, 24271, Note_off_c, 0, 77, 61
1, 24273, Control_c, 0, 64, 78
1, 24274, Note_on_c, 0, 74, 33
1, 24288, Control_c, 0, 64, 0
1, 24299, Note_off_c, 0, 74, 48
1, 24317, Note_on_c, 0, 86, 90
1, 24331, Note_on_c, 0, 77, 66
1, 24334, Note_on_c, 0, 68, 77
1, 24347, Control_c, 0, 64, 67
1, 24348, Note_off_c, 0, 86, 68
1, 24360, Note_on_c, 0, 74, 29
1, 24362, Control_c, 0, 64, 81
1, 24364, Note_on_c, 0, 89, 88
1, 24376, Control_c, 0, 64, 97
1, 24391, Control_c, 0, 64, 106
1, 24406, Control_c, 0, 64, 110
1, 24410, Note_on_c, 0, 98, 79
1, 24412, Note_off_c, 0, 77, 54
1, 24420, Note_off_c, 0, 89, 63
1, 24421, Control_c, 0, 64, 114
1, 24436, Control_c, 0, 64, 118
1, 24443, Note_off_c, 0, 98, 61
1, 24450, Control_c, 0, 64, 123
1, 24455, Note_off_c, 0, 68, 65
1, 24465, Control_c, 0, 64, 127
1, 24468, Note_on_c, 0, 89, 17
1, 24477, Note_on_c, 0, 77, 51
1, 24480, Note_on_c, 0, 86, 86
1, 24495, Note_on_c, 0, 88, 41
1, 24513, Note_off_c, 0, 89, 35
1, 24522, Note_off_c, 0, 74, 61
1, 24524, Note_off_c, 0, 88, 56
1, 24539, Control_c, 0, 64, 101
1, 24542, Note_on_c, 0, 71, 14
1, 24545, Note_off_c, 0, 86, 66
1, 24547, Note_on_c, 0, 65, 80
1, 24548, Note_on_c, 0, 85, 85
1, 24554, Control_c, 0, 64, 74
1, 24556, Note_off_c, 0, 77, 62
1, 24568, Note_off_c, 0, 85, 72
1, 24569, Note_off_c, 0, 65, 72
1, 24569, Control_c, 0, 64, 0
1, 24593, Note_on_c, 0, 74, 47
1, 24629, Note_on_c, 0, 80, 108
1, 24636, Note_on_c, 0, 86, 90
1, 24636, Control_c, 0, 64, 67
1, 24651, Control_c, 0, 64, 88
1, 24658, Note_off_c, 0, 71, 58
1, 24665, Note_off_c, 0, 86, 69
1, 24665, Control_c, 0, 64, 127
1, 24677, Note_on_c, 0, 89, 96
1, 24730, Note_off_c, 0, 80, 57
1, 24762, Note_on_c, 0, 98, 72
1, 24792, Note_on_c, 0, 95, 86
1, 24796, Note_off_c, 0, 89, 63
1, 24823, Note_off_c, 0, 74, 32
1, 24849, Note_on_c, 0, 92, 86
1, 24863, Note_off_c, 0, 98, 53
1, 24877, Note_on_c, 0, 89, 80
1, 24894, Note_off_c, 0, 95, 62
1, 24933, Note_off_c, 0, 92, 65
1, 24936, Note_on_c, 0, 86, 86
1, 24948, Control_c, 0, 64, 114
1, 24953, Note_off_c, 0, 89, 67
1, 24955, Note_on_c, 0, 77, 102
1, 24956, Note_on_c, 0, 74, 71
1, 24960, Note_on_c, 0, 67, 90
1, 24963, Note_on_c, 0, 71, 95
1, 24963, Control_c, 0, 64, 87
1, 24973, Note_off_c, 0, 86, 66
1, 24978, Control_c, 0, 64, 63
1, 24993, Control_c, 0, 64, 0
1, 25007, Note_on_c, 0, 83, 78
1, 25048, Note_on_c, 0, 80, 87
1, 25049, Note_off_c, 0, 77, 60
1, 25058, Note_off_c, 0, 83, 60
1, 25100, Note_on_c, 0, 77, 76
1, 25102, Note_off_c, 0, 80, 64
1, 25165, Note_on_c, 0, 79, 74
1, 25170, Note_off_c, 0, 77, 62
1, 25207, Note_off_c, 0, 79, 64
1, 25215, Note_on_c, 0, 80, 73
1, 25244, Note_off_c, 0, 80, 61
1, 25260, Control_c, 0, 64, 15
1, 25261, Note_off_c, 0, 67, 59
1, 25274, Note_on_c, 0, 81, 81
1, 25274, Control_c, 0, 64, 67
1, 25289, Control_c, 0, 64, 77
1, 25297, Note_off_c, 0, 71, 59
1, 25303, Note_off_c, 0, 81, 59
1, 25304, Control_c, 0, 64, 89
1, 25310, Note_off_c, 0, 74, 64
1, 25319, Control_c, 0, 64, 102
1, 25333, Control_c, 0, 64, 127
1, 25335, Note_on_c, 0, 82, 53
1, 25336, Note_off_c, 0, 82, 127
1, 25388, Note_on_c, 0, 83, 58
1, 25449, Note_off_c, 0, 83, 60
1, 25463, Note_on_c, 0, 84, 77
1, 25475, Note_on_c, 0, 85, 77
1, 25487, Note_off_c, 0, 84, 70
1, 25500, Note_off_c, 0, 85, 66
1, 25564, Control_c, 0, 64, 108
1, 25577, Note_on_c, 0, 87, 79
1, 25579, Control_c, 0, 64, 82
1, 25591, Note_on_c, 0, 78, 72
1, 25594, Note_on_c, 0, 71, 54
1, 25594, Control_c, 0, 64, 64
1, 25607, Note_on_c, 0, 75, 48
1, 25609, Note_off_c, 0, 78, 63
1, 25609, Control_c, 0, 64, 0
1, 25627, Note_off_c, 0, 71, 48
1, 25634, Note_off_c, 0, 75, 66
1, 25636, Note_off_c, 0, 87, 63
1, 25638, Control_c, 0, 64, 45
1, 25648, Note_on_c, 0, 90, 73
1, 25653, Control_c, 0, 64, 64
1, 25668, Control_c, 0, 64, 72
1, 25683, Control_c, 0, 64, 80
1, 25689, Note_off_c, 0, 90, 55
1, 25697, Control_c, 0, 64, 89
1, 25701, Note_on_c, 0, 99, 67
1, 25712, Control_c, 0, 64, 97
1, 25715, Note_on_c, 0, 78, 62
1, 25721, Note_on_c, 0, 71, 62
1, 25727, Control_c, 0, 64, 105
1, 25733, Note_on_c, 0, 75, 58
1, 25742, Control_c, 0, 64, 110
1, 25747, Note_on_c, 0, 90, 66
1, 25747, Note_off_c, 0, 78, 65
1, 25747, Note_off_c, 0, 99, 63
1, 25753, Note_off_c, 0, 71, 64
1, 25756, Control_c, 0, 64, 114
1, 25765, Note_off_c, 0, 75, 67
1, 25771, Control_c, 0, 64, 116
1, 25786, Control_c, 0, 64, 118
1, 25797, Note_off_c, 0, 90, 64
1, 25800, Note_on_c, 0, 87, 66
1, 25801, Control_c, 0, 64, 119
1, 25816, Control_c, 0, 64, 119
1, 25820, Note_off_c, 0, 87, 65
1, 25830, Note_on_c, 0, 78, 94
1, 25844, Note_on_c, 0, 71, 63
1, 25845, Note_on_c, 0, 75, 65
1, 25856, Note_off_c, 0, 78, 58
1, 25870, Note_off_c, 0, 75, 70
1, 25875, Note_off_c, 0, 71, 63
1, 25881, Note_on_c, 0, 85, 67
1, 25923, Note_off_c, 0, 85, 51
1, 25937, Note_on_c, 0, 78, 101
1, 25948, Note_on_c, 0, 71, 65
1, 25949, Note_on_c, 0, 75, 72
1, 25955, Note_on_c, 0, 83, 73
1, 25957, Note_off_c, 0, 78, 64
1, 25964, Control_c, 0, 64, 119
1, 25971, Note_off_c, 0, 75, 71
1, 25973, Note_off_c, 0, 71, 67
1, 25990, Note_off_c, 0, 83, 60
1, 25994, Control_c, 0, 64, 118
1, 26003, Note_on_c, 0, 87, 73
1, 26036, Note_on_c, 0, 78, 100
1, 26048, Note_on_c, 0, 75, 72
1, 26061, Note_off_c, 0, 78, 57
1, 26064, Note_on_c, 0, 71, 51
1, 26065, Note_on_c, 0, 95, 40
1, 26072, Note_off_c, 0, 75, 69
1, 26086, Note_off_c, 0, 71, 56
1, 26098, Note_off_c, 0, 95, 46
1, 26105, Note_off_c, 0, 87, 64
1, 26120, Note_on_c, 0, 83, 76
1, 26140, Note_on_c, 0, 78, 93
1, 26149, Note_on_c, 0, 75, 78
1, 26158, Note_on_c, 0, 71, 67
1, 26173, Note_on_c, 0, 82, 90
1, 26173, Note_off_c, 0, 83, 62
1, 26179, Control_c, 0, 64, 118
1, 26179, Note_off_c, 0, 78, 64
1, 26183, Note_off_c, 0, 71, 65
1, 26194, Control_c, 0, 64, 107
1, 26201, Note_off_c, 0, 75, 64
1, 26207, Poly_aftertouch_c, 0, 84, 0
1, 26209, Note_off_c, 0, 82, 68
1, 26209, Control_c, 0, 64, 90
1, 26224, Control_c, 0, 64, 66
1, 26232, Note_on_c, 0, 75, 75
1, 26237, Note_on_c, 0, 80, 108
1, 26238, Control_c, 0, 64, 0
1, 26246, Note_on_c, 0, 71, 77
1, 26248, Note_on_c, 0, 76, 94
1, 26281, Note_on_c, 0, 83, 84
1, 26298, Control_c, 0, 64, 64
1, 26313, Control_c, 0, 64, 75
1, 26328, Control_c, 0, 64, 89
1, 26343, Control_c, 0, 64, 103
1, 26349, Note_off_c, 0, 75, 58
1, 26351, Note_on_c, 0, 92, 40
1, 26351, Note_off_c, 0, 83, 45
1, 26358, Control_c, 0, 64, 111
1, 26370, Note_on_c, 0, 88, 70
1, 26373, Control_c, 0, 64, 117
1, 26374, Note_off_c, 0, 92, 50
1, 26387, Control_c, 0, 64, 121
1, 26402, Control_c, 0, 64, 123
1, 26432, Control_c, 0, 64, 123
1, 26443, Note_off_c, 0, 88, 62
1, 26446, Control_c, 0, 64, 125
1, 26456, Note_on_c, 0, 83, 57
1, 26461, Control_c, 0, 64, 127
1, 26463, Note_off_c, 0, 80, 56
1, 26468, Note_off_c, 0, 71, 58
1, 26484, Note_off_c, 0, 83, 63
1, 26487, Note_on_c, 0, 85, 66
1, 26495, Note_off_c, 0, 76, 58
1, 26513, Note_off_c, 0, 85, 67
1, 26521, Control_c, 0, 64, 127
1, 26535, Control_c, 0, 64, 112
1, 26550, Control_c, 0, 64, 95
1, 26565, Control_c, 0, 64, 75
1, 26579, Control_c, 0, 64, 0
1, 26581, Note_on_c, 0, 87, 65
1, 26584, Note_on_c, 0, 75, 64
1, 26589, Note_on_c, 0, 71, 59
1, 26593, Note_on_c, 0, 78, 55
1, 26613, Note_off_c, 0, 78, 61
1, 26614, Note_off_c, 0, 71, 60
1, 26614, Note_off_c, 0, 75, 66
1, 26620, Note_off_c, 0, 87, 60
1, 26639, Control_c, 0, 64, 57
1, 26645, Note_on_c, 0, 90, 68
1, 26653, Control_c, 0, 64, 69
1, 26668, Control_c, 0, 64, 77
1, 26683, Control_c, 0, 64, 87
1, 26695, Note_on_c, 0, 99, 54
1, 26698, Control_c, 0, 64, 93
1, 26703, Note_off_c, 0, 90, 0
1, 26707, Note_on_c, 0, 78, 59
1, 26710, Note_on_c, 0, 71, 53
1, 26712, Note_on_c, 0, 75, 66
1, 26712, Control_c, 0, 64, 98
1, 26719, Note_off_c, 0, 99, 64
1, 26727, Note_off_c, 0, 78, 62
1, 26727, Control_c, 0, 64, 100
1, 26739, Note_off_c, 0, 71, 59
1, 26739, Note_off_c, 0, 75, 69
1, 26740, Poly_aftertouch_c, 0, 90, 127
1, 26742, Control_c, 0, 64, 103
1, 26757, Control_c, 0, 64, 104
1, 26772, Control_c, 0, 64, 105
1, 26773, Poly_aftertouch_c, 0, 90, 0
1, 26780, Note_on_c, 0, 87, 72
1, 26807, Note_off_c, 0, 87, 62
1, 26811, Note_on_c, 0, 78, 81
1, 26817, Control_c, 0, 64, 105
1, 26823, Note_on_c, 0, 75, 70
1, 26826, Note_on_c, 0, 71, 63
1, 26852, Note_off_c, 0, 78, 57
1, 26857, Note_off_c, 0, 75, 65
1, 26860, Note_off_c, 0, 71, 60
1, 26873, Note_on_c, 0, 85, 66
1, 26914, Note_off_c, 0, 85, 60
1, 26926, Note_on_c, 0, 78, 92
1, 26934, Note_on_c, 0, 75, 75
1, 26942, Note_on_c, 0, 71, 61
1, 26945, Note_on_c, 0, 83, 71
1, 26949, Note_off_c, 0, 78, 62
1, 26960, Note_off_c, 0, 71, 63
1, 26960, Note_off_c, 0, 75, 66
1, 26987, Note_off_c, 0, 83, 59
1, 26991, Note_on_c, 0, 87, 77
1, 27027, Note_on_c, 0, 78, 91
1, 27034, Note_on_c, 0, 71, 65
1, 27034, Note_on_c, 0, 75, 68
1, 27057, Note_on_c, 0, 95, 50
1, 27060, Note_off_c, 0, 78, 57
1, 27066, Note_off_c, 0, 71, 60
1, 27075, Note_off_c, 0, 75, 59
1, 27080, Note_off_c, 0, 95, 50
1, 27091, Control_c, 0, 64, 106
1, 27100, Note_off_c, 0, 87, 64
1, 27106, Control_c, 0, 64, 107
1, 27111, Note_on_c, 0, 83, 79
1, 27121, Control_c, 0, 64, 108
1, 27126, Note_on_c, 0, 78, 84
1, 27130, Note_on_c, 0, 75, 65
1, 27136, Control_c, 0, 64, 110
1, 27142, Note_on_c, 0, 71, 55
1, 27165, Note_off_c, 0, 78, 64
1, 27165, Note_off_c, 0, 83, 64
1, 27168, Note_on_c, 0, 82, 88
1, 27169, Note_off_c, 0, 71, 59
1, 27180, Control_c, 0, 64, 105
1, 27189, Note_off_c, 0, 75, 65
1, 27195, Control_c, 0, 64, 87
1, 27205, Note_off_c, 0, 82, 66
1, 27210, Control_c, 0, 64, 66
1, 27225, Control_c, 0, 64, 0
1, 27225, Note_on_c, 0, 76, 85
1, 27229, Note_on_c, 0, 80, 97
1, 27248, Note_on_c, 0, 71, 61
1, 27270, Note_on_c, 0, 83, 82
1, 27284, Control_c, 0, 64, 59
1, 27299, Control_c, 0, 64, 71
1, 27314, Control_c, 0, 64, 81
1, 27325, Note_on_c, 0, 92, 58
1, 27328, Control_c, 0, 64, 92
1, 27341, Note_off_c, 0, 83, 52
1, 27343, Control_c, 0, 64, 100
1, 27356, Note_off_c, 0, 92, 67
1, 27357, Note_on_c, 0, 88, 65
1, 27358, Control_c, 0, 64, 108
1, 27373, Control_c, 0, 64, 115
1, 27388, Control_c, 0, 64, 118
1, 27402, Control_c, 0, 64, 118
1, 27419, Note_off_c, 0, 88, 62
1, 27427, Note_on_c, 0, 83, 64
1, 27432, Control_c, 0, 64, 119
1, 27435, Note_off_c, 0, 71, 58
1, 27437, Note_off_c, 0, 80, 59
1, 27447, Control_c, 0, 64, 120
1, 27460, Note_off_c, 0, 83, 61
1, 27462, Control_c, 0, 64, 121
1, 27467, Note_off_c, 0, 76, 60
1, 27472, Note_on_c, 0, 85, 65
1, 27476, Control_c, 0, 64, 121
1, 27491, Control_c, 0, 64, 117
1, 27499, Note_off_c, 0, 85, 67
1, 27506, Control_c, 0, 64, 103
1, 27520, Control_c, 0, 64, 86
1, 27535, Control_c, 0, 64, 67
1, 27544, Note_on_c, 0, 75, 62
1, 27550, Control_c, 0, 64, 0
1, 27556, Note_on_c, 0, 71, 48
1, 27557, Note_on_c, 0, 87, 69
1, 27558, Note_on_c, 0, 78, 46
1, 27575, Note_off_c, 0, 75, 66
1, 27577, Note_off_c, 0, 71, 59
1, 27585, Note_off_c, 0, 78, 35
1, 27586, Note_off_c, 0, 87, 65
1, 27602, Control_c, 0, 64, 53
1, 27613, Note_on_c, 0, 90, 67
1, 27617, Control_c, 0, 64, 70
1, 27632, Control_c, 0, 64, 81
1, 27647, Note_off_c, 0, 90, 58
1, 27647, Control_c, 0, 64, 94
1, 27660, Note_on_c, 0, 75, 69
1, 27662, Control_c, 0, 64, 100
1, 27663, Note_on_c, 0, 78, 64
1, 27670, Note_on_c, 0, 71, 49
1, 27675, Note_on_c, 0, 99, 37
1, 27676, Control_c, 0, 64, 102
1, 27680, Note_off_c, 0, 78, 64
1, 27690, Note_off_c, 0, 75, 65
1, 27691, Control_c, 0, 64, 104
1, 27692, Note_off_c, 0, 71, 56
1, 27698, Note_off_c, 0, 99, 58
1, 27706, Control_c, 0, 64, 105
1, 27720, Note_on_c, 0, 90, 69
1, 27720, Control_c, 0, 64, 107
1, 27735, Control_c, 0, 64, 112
1, 27750, Control_c, 0, 64, 121
1, 27762, Note_on_c, 0, 78, 65
1, 27764, Note_on_c, 0, 75, 64
1, 27765, Control_c, 0, 64, 127
1, 27768, Note_on_c, 0, 87, 73
1, 27769, Note_on_c, 0, 71, 62
1, 27772, Note_off_c, 0, 90, 64
1, 27786, Note_off_c, 0, 78, 63
1, 27794, Note_off_c, 0, 87, 67
1, 27795, Control_c, 0, 64, 113
1, 27800, Note_off_c, 0, 71, 63
1, 27809, Control_c, 0, 64, 95
1, 27818, Note_off_c, 0, 75, 56
1, 27824, Control_c, 0, 64, 76
1, 27827, Note_on_c, 0, 90, 79
1, 27839, Control_c, 0, 64, 33
1, 27848, Note_off_c, 0, 90, 68
1, 27854, Control_c, 0, 64, 0
1, 27860, Note_on_c, 0, 76, 72
1, 27861, Note_on_c, 0, 79, 74
1, 27866, Note_on_c, 0, 89, 67
1, 27883, Note_on_c, 0, 71, 52
1, 27887, Note_off_c, 0, 79, 65
1, 27889, Note_off_c, 0, 89, 66
1, 27899, Control_c, 0, 64, 62
1, 27901, Note_off_c, 0, 76, 65
1, 27904, Note_off_c, 0, 71, 58
1, 27914, Note_on_c, 0, 88, 78
1, 27914, Control_c, 0, 64, 73
1, 27929, Control_c, 0, 64, 83
1, 27944, Control_c, 0, 64, 91
1, 27959, Control_c, 0, 64, 93
1, 27962, Note_on_c, 0, 76, 60
1, 27966, Note_on_c, 0, 79, 73
1, 27967, Note_on_c, 0, 91, 83
1, 27967, Note_off_c, 0, 88, 64
1, 27973, Control_c, 0, 64, 94
1, 27988, Control_c, 0, 64, 94
1, 27989, Note_off_c, 0, 79, 68
1, 27997, Note_on_c, 0, 71, 44
1, 28000, Note_off_c, 0, 76, 61
1, 28003, Control_c, 0, 64, 95
1, 28010, Note_off_c, 0, 91, 60
1, 28018, Control_c, 0, 64, 98
1, 28019, Note_on_c, 0, 100, 57
1, 28021, Note_off_c, 0, 71, 50
1, 28033, Control_c, 0, 64, 106
1, 28039, Note_off_c, 0, 100, 57
1, 28048, Control_c, 0, 64, 115
1, 28063, Control_c, 0, 64, 116
1, 28075, Note_on_c, 0, 79, 72
1, 28077, Note_on_c, 0, 88, 64
1, 28078, Control_c, 0, 64, 115
1, 28089, Note_on_c, 0, 91, 67
1, 28093, Control_c, 0, 64, 101
1, 28093, Note_off_c, 0, 88, 63
1, 28094, Note_on_c, 0, 71, 53
1, 28107, Note_off_c, 0, 79, 62
1, 28107, Control_c, 0, 64, 83
1, 28118, Note_off_c, 0, 71, 56
1, 28122, Control_c, 0, 64, 62
1, 28137, Control_c, 0, 64, 0
1, 28146, Note_off_c, 0, 91, 61
1, 28181, Control_c, 0, 64, 13
1, 28196, Control_c, 0, 64, 66
1, 28206, Note_on_c, 0, 89, 82
1, 28209, Note_on_c, 0, 71, 62
1, 28211, Control_c, 0, 64, 77
1, 28214, Note_on_c, 0, 80, 74
1, 28220, Note_on_c, 0, 77, 64
1, 28225, Control_c, 0, 64, 89
1, 28240, Control_c, 0, 64, 97
1, 28243, Note_off_c, 0, 80, 62
1, 28255, Note_off_c, 0, 77, 59
1, 28255, Control_c, 0, 64, 101
1, 28265, Note_on_c, 0, 92, 81
1, 28266, Note_off_c, 0, 71, 58
1, 28268, Note_off_c, 0, 89, 65
1, 28270, Control_c, 0, 64, 105
1, 28285, Control_c, 0, 64, 110
1, 28299, Control_c, 0, 64, 115
1, 28314, Control_c, 0, 64, 117
1, 28328, Note_on_c, 0, 101, 69
1, 28329, Control_c, 0, 64, 119
1, 28331, Note_off_c, 0, 92, 64
1, 28347, Note_on_c, 0, 80, 70
1, 28351, Control_c, 0, 64, 127
1, 28356, Note_on_c, 0, 71, 53
1, 28361, Note_on_c, 0, 77, 58
1, 28366, Control_c, 0, 64, 127
1, 28372, Note_off_c, 0, 80, 66
1, 28382, Note_on_c, 0, 99, 34
1, 28383, Note_off_c, 0, 77, 64
1, 28385, Note_on_c, 0, 92, 69
1, 28391, Note_off_c, 0, 71, 62
1, 28407, Note_off_c, 0, 99, 53
1, 28410, Note_off_c, 0, 101, 62
1, 28451, Note_on_c, 0, 89, 80
1, 28456, Note_off_c, 0, 92, 65
1, 28471, Note_on_c, 0, 71, 63
1, 28473, Note_on_c, 0, 80, 68
1, 28484, Note_on_c, 0, 77, 53
1, 28498, Note_off_c, 0, 71, 63
1, 28511, Note_off_c, 0, 77, 62
1, 28514, Note_on_c, 0, 92, 69
1, 28514, Control_c, 0, 64, 107
1, 28515, Note_off_c, 0, 80, 56
1, 28517, Note_off_c, 0, 89, 66
1, 28529, Control_c, 0, 64, 86
1, 28543, Control_c, 0, 64, 58
1, 28551, Note_off_c, 0, 92, 64
1, 28558, Control_c, 0, 64, 0
1, 28602, Control_c, 0, 64, 61
1, 28606, Note_on_c, 0, 72, 67
1, 28609, Note_on_c, 0, 81, 67
1, 28617, Control_c, 0, 64, 72
1, 28632, Control_c, 0, 64, 84
1, 28645, Note_off_c, 0, 72, 57
1, 28645, Note_off_c, 0, 81, 58
1, 28647, Control_c, 0, 64, 92
1, 28660, Note_on_c, 0, 93, 70
1, 28662, Control_c, 0, 64, 94
1, 28677, Control_c, 0, 64, 96
1, 28692, Control_c, 0, 64, 96
1, 28707, Control_c, 0, 64, 97
1, 28722, Note_off_c, 0, 93, 64
1, 28726, Note_on_c, 0, 89, 83
1, 28737, Control_c, 0, 64, 97
1, 28751, Control_c, 0, 64, 99
1, 28766, Control_c, 0, 64, 102
1, 28781, Control_c, 0, 64, 104
1, 28781, Note_on_c, 0, 101, 95
1, 28784, Note_off_c, 0, 89, 54
1, 28796, Note_on_c, 0, 82, 85
1, 28796, Control_c, 0, 64, 105
1, 28803, Note_on_c, 0, 73, 73
1, 28811, Control_c, 0, 64, 106
1, 28826, Control_c, 0, 64, 111
1, 28840, Control_c, 0, 64, 118
1, 28851, Note_on_c, 0, 94, 87
1, 28855, Control_c, 0, 64, 127
1, 28857, Note_off_c, 0, 82, 55
1, 28865, Note_off_c, 0, 73, 62
1, 28886, Note_off_c, 0, 101, 63
1, 28895, Note_on_c, 0, 97, 17
1, 28900, Control_c, 0, 64, 124
1, 28909, Note_on_c, 0, 89, 85
1, 28915, Control_c, 0, 64, 97
1, 28923, Note_off_c, 0, 97, 33
1, 28928, Note_off_c, 0, 94, 65
1, 28929, Control_c, 0, 64, 77
1, 28944, Control_c, 0, 64, 58
1, 28955, Note_on_c, 0, 83, 85
1, 28957, Note_on_c, 0, 74, 78
1, 28959, Control_c, 0, 64, 0
1, 28968, Note_on_c, 0, 101, 95
1, 28973, Control_c, 0, 64, 42
1, 28977, Note_off_c, 0, 89, 63
1, 28988, Control_c, 0, 64, 63
1, 29003, Control_c, 0, 64, 73
1, 29012, Note_on_c, 0, 95, 79
1, 29018, Control_c, 0, 64, 92
1, 29025, Note_off_c, 0, 83, 56
1, 29033, Control_c, 0, 64, 111
1, 29035, Note_off_c, 0, 74, 64
1, 29047, Control_c, 0, 64, 122
1, 29052, Note_off_c, 0, 101, 65
1, 29062, Control_c, 0, 64, 120
1, 29075, Note_on_c, 0, 89, 85
1, 29077, Control_c, 0, 64, 104
1, 29095, Note_off_c, 0, 95, 65
1, 29099, Control_c, 0, 64, 84
1, 29114, Control_c, 0, 64, 59
1, 29129, Note_on_c, 0, 84, 102
1, 29129, Control_c, 0, 64, 0
1, 29139, Note_on_c, 0, 75, 79
1, 29145, Note_on_c, 0, 101, 103
1, 29153, Note_on_c, 0, 79, 24
1, 29158, Note_off_c, 0, 89, 65
1, 29159, Control_c, 0, 64, 59
1, 29173, Control_c, 0, 64, 70
1, 29188, Note_on_c, 0, 96, 80
1, 29188, Control_c, 0, 64, 82
1, 29190, Note_off_c, 0, 84, 64
1, 29201, Note_off_c, 0, 79, 0
1, 29203, Control_c, 0, 64, 101
1, 29210, Note_off_c, 0, 75, 63
1, 29218, Control_c, 0, 64, 122
1, 29224, Note_off_c, 0, 101, 65
1, 29233, Control_c, 0, 64, 127
1, 29242, Note_on_c, 0, 89, 87
1, 29262, Control_c, 0, 64, 121
1, 29270, Poly_aftertouch_c, 0, 79, 0
1, 29277, Control_c, 0, 64, 106
1, 29282, Note_off_c, 0, 96, 63
1, 29292, Control_c, 0, 64, 93
1, 29303, Note_on_c, 0, 85, 108
1, 29306, Control_c, 0, 64, 87
1, 29309, Note_on_c, 0, 76, 95
1, 29312, Note_on_c, 0, 101, 98
1, 29327, Note_on_c, 0, 81, 42
1, 29329, Note_off_c, 0, 89, 67
1, 29330, Note_on_c, 0, 82, 54
1, 29334, Note_on_c, 0, 79, 23
1, 29348, Note_on_c, 0, 97, 85
1, 29353, Note_off_c, 0, 82, 44
1, 29356, Note_off_c, 0, 76, 69
1, 29357, Note_off_c, 0, 81, 47
1, 29357, Note_off_c, 0, 85, 62
1, 29366, Control_c, 0, 64, 90
1, 29371, Note_off_c, 0, 79, 39
1, 29380, Control_c, 0, 64, 94
1, 29395, Control_c, 0, 64, 99
1, 29401, Note_off_c, 0, 101, 66
1, 29410, Control_c, 0, 64, 101
1, 29413, Note_on_c, 0, 89, 88
1, 29429, Note_off_c, 0, 97, 65
1, 29455, Control_c, 0, 64, 101
1, 29470, Control_c, 0, 64, 102
1, 29476, Note_on_c, 0, 86, 98
1, 29477, Note_on_c, 0, 77, 89
1, 29485, Control_c, 0, 64, 102
1, 29487, Note_on_c, 0, 101, 91
1, 29488, Note_off_c, 0, 89, 62
1, 29497, Note_on_c, 0, 98, 72
1, 29509, Note_off_c, 0, 86, 69
1, 29519, Note_off_c, 0, 77, 60
1, 29529, Control_c, 0, 64, 103
1, 29544, Control_c, 0, 64, 105
1, 29547, Note_off_c, 0, 101, 65
1, 29559, Control_c, 0, 64, 107
1, 29574, Control_c, 0, 64, 110
1, 29577, Note_on_c, 0, 89, 88
1, 29589, Control_c, 0, 64, 115
1, 29604, Control_c, 0, 64, 118
1, 29610, Note_off_c, 0, 98, 63
1, 29615, Note_on_c, 0, 85, 48
1, 29619, Control_c, 0, 64, 120
1, 29628, Note_on_c, 0, 82, 29
1, 29635, Note_off_c, 0, 89, 63
1, 29637, Note_off_c, 0, 85, 60
1, 29649, Control_c, 0, 64, 119
1, 29658, Note_off_c, 0, 82, 47
1, 29663, Control_c, 0, 64, 109
1, 29678, Control_c, 0, 64, 91
1, 29693, Control_c, 0, 64, 72
1, 29700, Note_on_c, 0, 89, 99
1, 29702, Note_on_c, 0, 83, 85
1, 29702, Note_on_c, 0, 86, 85
1, 29705, Note_on_c, 0, 80, 86
1, 29708, Control_c, 0, 64, 0
1, 29752, Control_c, 0, 64, 58
1, 29763, Note_on_c, 0, 92, 79
1, 29767, Control_c, 0, 64, 72
1, 29778, Note_off_c, 0, 80, 65
1, 29781, Note_off_c, 0, 89, 64
1, 29782, Control_c, 0, 64, 90
1, 29795, Note_off_c, 0, 86, 63
1, 29796, Control_c, 0, 64, 107
1, 29799, Note_on_c, 0, 95, 75
1, 29801, Note_off_c, 0, 83, 58
1, 29805, Note_off_c, 0, 92, 66
1, 29811, Control_c, 0, 64, 115
1, 29826, Control_c, 0, 64, 120
1, 29848, Control_c, 0, 64, 123
1, 29861, Note_on_c, 0, 101, 89
1, 29863, Control_c, 0, 64, 125
1, 29878, Control_c, 0, 64, 127
1, 29878, Note_off_c, 0, 95, 65
1, 29902, Note_on_c, 0, 100, 77
1, 29935, Note_on_c, 0, 99, 94
1, 29955, Note_off_c, 0, 101, 59
1, 29973, Note_off_c, 0, 100, 66
1, 29994, Note_on_c, 0, 98, 96
1, 30010, Note_on_c, 0, 95, 80
1, 30020, Note_off_c, 0, 99, 68
1, 30039, Note_off_c, 0, 98, 67
1, 30082, Note_on_c, 0, 94, 36
1, 30111, Note_off_c, 0, 95, 66
1, 30112, Note_on_c, 0, 92, 81
1, 30116, Note_on_c, 0, 93, 86
1, 30122, Note_off_c, 0, 94, 64
1, 30132, Note_off_c, 0, 93, 71
1, 30146, Note_on_c, 0, 95, 75
1, 30151, Note_off_c, 0, 92, 69
1, 30202, Note_on_c, 0, 94, 82
1, 30209, Note_off_c, 0, 95, 65
1, 30239, Note_on_c, 0, 93, 84
1, 30258, Note_off_c, 0, 94, 65
1, 30281, Note_on_c, 0, 92, 95
1, 30307, Note_off_c, 0, 93, 65
1, 30331, Note_on_c, 0, 89, 88
1, 30338, Note_off_c, 0, 92, 65
1, 30360, Note_on_c, 0, 88, 80
1, 30389, Note_on_c, 0, 87, 81
1, 30398, Note_off_c, 0, 89, 64
1, 30428, Note_on_c, 0, 86, 69
1, 30431, Note_off_c, 0, 88, 64
1, 30446, Note_off_c, 0, 86, 66
1, 30451, Note_off_c, 0, 87, 66
1, 30456, Note_on_c, 0, 89, 76
1, 30513, Note_on_c, 0, 88, 74
1, 30526, Note_off_c, 0, 89, 64
1, 30539, Note_on_c, 0, 87, 89
1, 30560, Note_off_c, 0, 88, 61
1, 30576, Note_on_c, 0, 86, 75
1, 30617, Note_off_c, 0, 87, 62
1, 30633, Note_on_c, 0, 83, 68
1, 30639, Note_off_c, 0, 86, 64
1, 30684, Note_on_c, 0, 82, 39
1, 30695, Note_on_c, 0, 81, 83
1, 30716, Note_off_c, 0, 82, 32
1, 30721, Note_on_c, 0, 80, 79
1, 30721, Note_off_c, 0, 83, 62
1, 30739, Note_off_c, 0, 81, 63
1, 30754, Note_on_c, 0, 83, 58
1, 30761, Note_off_c, 0, 80, 66
1, 30809, Note_on_c, 0, 82, 81
1, 30817, Note_off_c, 0, 83, 60
1, 30847, Note_on_c, 0, 81, 79
1, 30869, Note_off_c, 0, 82, 62
1, 30892, Note_on_c, 0, 80, 77
1, 30910, Note_off_c, 0, 81, 63
1, 30926, Note_on_c, 0, 77, 75
1, 30937, Note_off_c, 0, 80, 64
1, 30974, Note_on_c, 0, 76, 65
1, 31000, Note_on_c, 0, 75, 75
1, 31012, Note_off_c, 0, 77, 59
1, 31041, Note_off_c, 0, 76, 64
1, 31042, Note_on_c, 0, 74, 56
1, 31061, Note_off_c, 0, 74, 65
1, 31062, Note_off_c, 0, 75, 64
1, 31073, Note_on_c, 0, 77, 61
1, 31121, Note_on_c, 0, 76, 62
1, 31137, Note_off_c, 0, 77, 61
1, 31163, Note_on_c, 0, 75, 74
1, 31169, Note_off_c, 0, 76, 65
1, 31185, Note_on_c, 0, 74, 66
1, 31220, Note_off_c, 0, 75, 63
1, 31245, Note_on_c, 0, 71, 51
1, 31246, Note_off_c, 0, 74, 64
1, 31274, Note_on_c, 0, 70, 77
1, 31304, Note_off_c, 0, 71, 60
1, 31312, Note_on_c, 0, 69, 56
1, 31374, Note_off_c, 0, 70, 61
1, 31375, Note_on_c, 0, 68, 49
1, 31380, Note_off_c, 0, 69, 67
1, 31398, Note_off_c, 0, 68, 61
1, 31425, Note_on_c, 0, 71, 63
1, 31475, Note_off_c, 0, 71, 60
1, 31488, Note_on_c, 0, 69, 74
1, 31508, Control_c, 0, 67, 12
1, 31509, Note_off_c, 0, 69, 73
1, 31520, Note_on_c, 0, 68, 64
1, 31523, Control_c, 0, 67, 16
1, 31538, Control_c, 0, 67, 22
1, 31553, Control_c, 0, 67, 27
1, 31567, Control_c, 0, 67, 32
1, 31582, Control_c, 0, 67, 38
1, 31598, Control_c, 0, 67, 43
1, 31613, Control_c, 0, 67, 47
1, 31624, Note_off_c, 0, 68, 60
1, 31628, Control_c, 0, 67, 51
1, 31642, Control_c, 0, 67, 55
1, 31657, Control_c, 0, 67, 59
1, 31672, Control_c, 0, 67, 64
1, 31679, Note_on_c, 0, 65, 65
1, 31687, Control_c, 0, 67, 69
1, 31701, Control_c, 0, 67, 74
1, 31711, Note_off_c, 0, 65, 65
1, 31716, Control_c, 0, 67, 78
1, 31731, Control_c, 0, 67, 81
1, 31746, Control_c, 0, 67, 85
1, 31761, Control_c, 0, 67, 89
1, 31775, Control_c, 0, 67, 93
1, 31790, Control_c, 0, 67, 96
1, 31800, Note_on_c, 0, 64, 63
1, 31805, Control_c, 0, 67, 100
1, 31820, Control_c, 0, 67, 105
1, 31831, Note_off_c, 0, 64, 64
1, 31835, Control_c, 0, 67, 111
1, 31849, Control_c, 0, 67, 116
1, 31865, Control_c, 0, 67, 121
1, 31880, Control_c, 0, 67, 126
1, 31895, Control_c, 0, 67, 127
1, 31911, Note_on_c, 0, 63, 62
1, 31941, Note_off_c, 0, 63, 66
1, 31998, Control_c, 0, 64, 105
1, 32013, Control_c, 0, 64, 89
1, 32028, Control_c, 0, 64, 72
1, 32033, Note_on_c, 0, 62, 65
1, 32043, Control_c, 0, 64, 29
1, 32058, Control_c, 0, 64, 0
1, 32078, Note_off_c, 0, 62, 58
1, 32139, Control_c, 0, 64, 33
1, 32154, Control_c, 0, 64, 46
1, 32169, Control_c, 0, 64, 60
1, 32179, Note_on_c, 0, 65, 49
1, 32184, Control_c, 0, 64, 65
1, 32198, Control_c, 0, 64, 69
1, 32213, Note_off_c, 0, 65, 58
1, 32213, Control_c, 0, 64, 73
1, 32228, Control_c, 0, 64, 77
1, 32243, Control_c, 0, 64, 80
1, 32258, Control_c, 0, 64, 81
1, 32272, Control_c, 0, 64, 82
1, 32287, Control_c, 0, 64, 82
1, 32298, Note_on_c, 0, 68, 60
1, 32302, Control_c, 0, 64, 83
1, 32317, Control_c, 0, 64, 85
1, 32331, Control_c, 0, 64, 87
1, 32334, Note_off_c, 0, 68, 56
1, 32346, Control_c, 0, 64, 89
1, 32361, Control_c, 0, 64, 90
1, 32376, Control_c, 0, 64, 91
1, 32391, Control_c, 0, 64, 92
1, 32406, Control_c, 0, 64, 93
1, 32421, Control_c, 0, 64, 93
1, 32436, Control_c, 0, 64, 94
1, 32452, Note_on_c, 0, 61, 59
1, 32465, Control_c, 0, 64, 92
1, 32480, Control_c, 0, 64, 85
1, 32486, Note_off_c, 0, 61, 61
1, 32495, Control_c, 0, 64, 74
1, 32509, Control_c, 0, 64, 60
1, 32524, Control_c, 0, 64, 0
1, 32554, Control_c, 0, 64, 33
1, 32569, Control_c, 0, 64, 60
1, 32583, Control_c, 0, 64, 66
1, 32598, Control_c, 0, 64, 71
1, 32611, Note_on_c, 0, 62, 63
1, 32613, Control_c, 0, 64, 77
1, 32628, Control_c, 0, 64, 81
1, 32630, Note_on_c, 0, 61, 44
1, 32643, Note_off_c, 0, 62, 64
1, 32643, Control_c, 0, 64, 83
1, 32656, Note_off_c, 0, 61, 57
1, 32658, Control_c, 0, 64, 85
1, 32674, Control_c, 0, 64, 86
1, 32688, Control_c, 0, 64, 87
1, 32703, Control_c, 0, 64, 88
1, 32718, Control_c, 0, 64, 89
1, 32733, Control_c, 0, 64, 90
1, 32747, Control_c, 0, 64, 91
1, 32762, Control_c, 0, 64, 92
1, 32776, Note_on_c, 0, 65, 57
1, 32777, Control_c, 0, 64, 92
1, 32796, Note_off_c, 0, 65, 66
1, 32807, Control_c, 0, 64, 93
1, 32821, Control_c, 0, 64, 94
1, 32844, Control_c, 0, 64, 94
1, 32855, Poly_aftertouch_c, 0, 66, 0
1, 32859, Control_c, 0, 64, 95
1, 32876, Poly_aftertouch_c, 0, 66, 0
1, 32903, Control_c, 0, 64, 95
1, 32914, Note_on_c, 0, 69, 59
1, 32942, Note_on_c, 0, 68, 61
1, 32947, Note_off_c, 0, 69, 67
1, 32947, Control_c, 0, 64, 95
1, 32962, Control_c, 0, 64, 91
1, 32969, Note_off_c, 0, 68, 65
1, 32977, Control_c, 0, 64, 81
1, 32992, Control_c, 0, 64, 68
1, 33007, Control_c, 0, 64, 0
1, 33038, Note_on_c, 0, 68, 68
1, 33041, Note_on_c, 0, 69, 58
1, 33051, Control_c, 0, 64, 54
1, 33059, Note_off_c, 0, 69, 61
1, 33066, Control_c, 0, 64, 67
1, 33074, Note_off_c, 0, 68, 60
1, 33081, Control_c, 0, 64, 76
1, 33095, Control_c, 0, 64, 87
1, 33110, Control_c, 0, 64, 94
1, 33123, Note_on_c, 0, 71, 61
1, 33125, Control_c, 0, 64, 96
1, 33139, Control_c, 0, 64, 97
1, 33143, Note_on_c, 0, 73, 42
1, 33146, Note_off_c, 0, 71, 64
1, 33154, Control_c, 0, 64, 98
1, 33169, Control_c, 0, 64, 99
1, 33172, Note_off_c, 0, 73, 45
1, 33184, Control_c, 0, 64, 100
1, 33199, Control_c, 0, 64, 102
1, 33214, Control_c, 0, 64, 104
1, 33227, Note_on_c, 0, 74, 68
1, 33229, Control_c, 0, 64, 105
1, 33244, Control_c, 0, 64, 105
1, 33257, Note_on_c, 0, 73, 56
1, 33258, Note_off_c, 0, 74, 61
1, 33258, Control_c, 0, 64, 105
1, 33273, Control_c, 0, 64, 101
1, 33276, Note_off_c, 0, 73, 63
1, 33288, Control_c, 0, 64, 91
1, 33303, Control_c, 0, 64, 79
1, 33318, Control_c, 0, 64, 63
1, 33332, Control_c, 0, 64, 0
1, 33345, Note_on_c, 0, 73, 70
1, 33353, Note_on_c, 0, 74, 52
1, 33362, Control_c, 0, 64, 51
1, 33373, Note_off_c, 0, 74, 61
1, 33377, Control_c, 0, 64, 65
1, 33379, Note_off_c, 0, 73, 61
1, 33392, Control_c, 0, 64, 73
1, 33406, Control_c, 0, 64, 83
1, 33421, Control_c, 0, 64, 91
1, 33431, Note_on_c, 0, 77, 62
1, 33436, Control_c, 0, 64, 93
1, 33440, Note_on_c, 0, 78, 54
1, 33451, Note_off_c, 0, 77, 65
1, 33451, Control_c, 0, 64, 94
1, 33461, Note_off_c, 0, 78, 61
1, 33467, Control_c, 0, 64, 95
1, 33511, Control_c, 0, 64, 96
1, 33526, Control_c, 0, 64, 97
1, 33541, Control_c, 0, 64, 98
1, 33556, Control_c, 0, 64, 98
1, 33560, Note_on_c, 0, 81, 55
1, 33575, Note_on_c, 0, 80, 67
1, 33579, Note_off_c, 0, 81, 61
1, 33607, Note_off_c, 0, 80, 68
1, 33607, Control_c, 0, 64, 97
1, 33622, Control_c, 0, 64, 90
1, 33637, Control_c, 0, 64, 78
1, 33652, Control_c, 0, 64, 64
1, 33667, Control_c, 0, 64, 0
1, 33672, Note_on_c, 0, 81, 63
1, 33685, Note_on_c, 0, 80, 72
1, 33693, Note_off_c, 0, 81, 64
1, 33697, Control_c, 0, 64, 45
1, 33712, Control_c, 0, 64, 64
1, 33724, Note_off_c, 0, 80, 58
1, 33726, Control_c, 0, 64, 71
1, 33741, Control_c, 0, 64, 79
1, 33756, Control_c, 0, 64, 87
1, 33770, Control_c, 0, 64, 93
1, 33785, Control_c, 0, 64, 97
1, 33796, Note_on_c, 0, 83, 47
1, 33800, Control_c, 0, 64, 100
1, 33807, Note_on_c, 0, 85, 34
1, 33815, Control_c, 0, 64, 101
1, 33819, Note_off_c, 0, 83, 56
1, 33830, Control_c, 0, 64, 102
1, 33839, Note_off_c, 0, 85, 44
1, 33874, Control_c, 0, 64, 102
1, 33903, Control_c, 0, 64, 103
1, 33918, Note_on_c, 0, 86, 53
1, 33952, Note_off_c, 0, 86, 64
1, 33961, Note_on_c, 0, 85, 55
1, 33977, Control_c, 0, 64, 101
1, 33992, Control_c, 0, 64, 93
1, 33994, Note_off_c, 0, 85, 67
1, 34007, Control_c, 0, 64, 82
1, 34022, Control_c, 0, 64, 70
1, 34033, Note_on_c, 0, 80, 63
1, 34037, Control_c, 0, 64, 55
1, 34051, Control_c, 0, 64, 49
1, 34059, Note_on_c, 0, 83, 45
1, 34066, Control_c, 0, 64, 61
1, 34081, Note_off_c, 0, 83, 57
1, 34081, Control_c, 0, 64, 67
1, 34096, Control_c, 0, 64, 75
1, 34100, Note_off_c, 0, 80, 62
1, 34111, Control_c, 0, 64, 85
1, 34126, Control_c, 0, 64, 92
1, 34141, Control_c, 0, 64, 96
1, 34155, Control_c, 0, 64, 98
1, 34170, Note_on_c, 0, 85, 57
1, 34170, Control_c, 0, 64, 99
1, 34174, Note_on_c, 0, 83, 51
1, 34185, Control_c, 0, 64, 100
1, 34198, Note_off_c, 0, 83, 60
1, 34206, Note_off_c, 0, 85, 63
1, 34215, Control_c, 0, 64, 100
1, 34244, Control_c, 0, 64, 101
1, 34319, Control_c, 0, 64, 102
1, 34320, Note_on_c, 0, 86, 58
1, 34361, Note_off_c, 0, 86, 63
1, 34362, Note_on_c, 0, 85, 65
1, 34400, Control_c, 0, 64, 99
1, 34415, Control_c, 0, 64, 92
1, 34423, Note_off_c, 0, 85, 62
1, 34430, Control_c, 0, 64, 81
1, 34445, Control_c, 0, 64, 67
1, 34459, Note_on_c, 0, 77, 51
1, 34460, Control_c, 0, 64, 36
1, 34475, Control_c, 0, 64, 25
1, 34478, Note_on_c, 0, 80, 61
1, 34490, Control_c, 0, 64, 56
1, 34496, Note_off_c, 0, 77, 61
1, 34505, Control_c, 0, 64, 65
1, 34511, Note_off_c, 0, 80, 64
1, 34519, Control_c, 0, 64, 71
1, 34534, Control_c, 0, 64, 80
1, 34549, Control_c, 0, 64, 88
1, 34564, Control_c, 0, 64, 93
1, 34579, Control_c, 0, 64, 95
1, 34593, Control_c, 0, 64, 98
1, 34608, Control_c, 0, 64, 99
1, 34609, Note_on_c, 0, 85, 44
1, 34620, Note_on_c, 0, 83, 46
1, 34623, Control_c, 0, 64, 100
1, 34634, Note_off_c, 0, 85, 61
1, 34638, Control_c, 0, 64, 101
1, 34643, Note_off_c, 0, 83, 55
1, 34653, Control_c, 0, 64, 101
1, 34667, Control_c, 0, 64, 102
1, 34682, Control_c, 0, 64, 102
1, 34697, Control_c, 0, 64, 103
1, 34741, Control_c, 0, 64, 103
1, 34756, Control_c, 0, 64, 104
1, 34759, Note_on_c, 0, 86, 54
1, 34771, Control_c, 0, 64, 105
1, 34785, Control_c, 0, 64, 105
1, 34791, Note_off_c, 0, 86, 64
1, 34796, Note_on_c, 0, 85, 62
1, 34830, Control_c, 0, 64, 105
1, 34845, Control_c, 0, 64, 102
1, 34850, Note_off_c, 0, 85, 57
1, 34859, Control_c, 0, 64, 93
1, 34874, Control_c, 0, 64, 81
1, 34882, Note_on_c, 0, 80, 52
1, 34889, Control_c, 0, 64, 68
1, 34904, Control_c, 0, 64, 49
1, 34916, Note_on_c, 0, 83, 48
1, 34919, Control_c, 0, 64, 46
1, 34934, Control_c, 0, 64, 60
1, 34943, Note_off_c, 0, 83, 54
1, 34949, Control_c, 0, 64, 67
1, 34964, Control_c, 0, 64, 72
1, 34970, Note_off_c, 0, 80, 59
1, 34978, Control_c, 0, 64, 79
1, 34993, Control_c, 0, 64, 86
1, 35008, Control_c, 0, 64, 91
1, 35023, Control_c, 0, 64, 96
1, 35038, Control_c, 0, 64, 101
1, 35053, Note_on_c, 0, 83, 45
1, 35053, Control_c, 0, 64, 103
1, 35068, Control_c, 0, 64, 104
1, 35080, Note_on_c, 0, 85, 33
1, 35090, Control_c, 0, 64, 105
1, 35101, Note_off_c, 0, 83, 60
1, 35105, Control_c, 0, 64, 105
1, 35119, Note_off_c, 0, 85, 53
1, 35134, Control_c, 0, 64, 106
1, 35149, Control_c, 0, 64, 106
1, 35238, Control_c, 0, 64, 107
1, 35265, Note_on_c, 0, 86, 45
1, 35289, Note_off_c, 0, 86, 58
1, 35309, Note_on_c, 0, 85, 49
1, 35312, Control_c, 0, 64, 107
1, 35333, Note_off_c, 0, 85, 59
1, 35357, Control_c, 0, 64, 108
1, 35372, Control_c, 0, 64, 108
1, 35387, Control_c, 0, 64, 109
1, 35402, Control_c, 0, 64, 109
1, 35431, Control_c, 0, 64, 110
1, 35446, Control_c, 0, 64, 112
1, 35461, Control_c, 0, 64, 112
1, 35505, Control_c, 0, 64, 110
1, 35520, Control_c, 0, 64, 102
1, 35525, Note_on_c, 0, 77, 49
1, 35534, Control_c, 0, 64, 96
1, 35549, Control_c, 0, 64, 95
1, 35564, Control_c, 0, 64, 95
1, 35569, Note_off_c, 0, 77, 56
1, 35579, Control_c, 0, 64, 96
1, 35581, Note_on_c, 0, 80, 50
1, 35594, Control_c, 0, 64, 100
1, 35606, Note_off_c, 0, 80, 56
1, 35608, Control_c, 0, 64, 108
1, 35623, Control_c, 0, 64, 116
1, 35638, Control_c, 0, 64, 127
1, 36973, Note_on_c, 0, 73, 47
1, 36996, Note_off_c, 0, 73, 62
1, 37351, Control_c, 0, 64, 116
1, 37366, Control_c, 0, 64, 100
1, 37369, Note_on_c, 0, 78, 49
1, 37381, Control_c, 0, 64, 86
1, 37395, Control_c, 0, 64, 73
1, 37410, Control_c, 0, 64, 63
1, 37411, Note_off_c, 0, 78, 49
1, 37417, Note_on_c, 0, 81, 55
1, 37425, Control_c, 0, 64, 59
1, 37439, Control_c, 0, 64, 65
1, 37451, Note_off_c, 0, 81, 63
1, 37454, Control_c, 0, 64, 70
1, 37461, Note_on_c, 0, 85, 52
1, 37471, Control_c, 0, 64, 76
1, 37482, Note_off_c, 0, 85, 62
1, 37485, Control_c, 0, 64, 83
1, 37500, Control_c, 0, 64, 89
1, 37515, Control_c, 0, 64, 94
1, 37530, Control_c, 0, 64, 99
1, 37544, Control_c, 0, 64, 103
1, 37559, Control_c, 0, 64, 106
1, 37574, Control_c, 0, 64, 109
1, 37590, Control_c, 0, 64, 111
1, 37605, Control_c, 0, 64, 112
1, 37619, Control_c, 0, 64, 113
1, 37634, Control_c, 0, 64, 114
1, 37644, Note_on_c, 0, 73, 55
1, 37645, Note_on_c, 0, 78, 56
1, 37645, Note_on_c, 0, 81, 51
1, 37649, Control_c, 0, 64, 115
1, 37664, Control_c, 0, 64, 116
1, 37667, Note_off_c, 0, 81, 59
1, 37669, Note_off_c, 0, 78, 59
1, 37678, Control_c, 0, 64, 116
1, 37681, Note_off_c, 0, 73, 60
1, 37708, Control_c, 0, 64, 117
1, 37780, Note_on_c, 0, 78, 53
1, 37802, Note_on_c, 0, 69, 28
1, 37808, Note_off_c, 0, 78, 56
1, 37826, Control_c, 0, 64, 116
1, 37834, Note_off_c, 0, 69, 41
1, 37841, Control_c, 0, 64, 116
1, 37856, Control_c, 0, 64, 109
1, 37871, Control_c, 0, 64, 98
1, 37885, Control_c, 0, 64, 85
1, 37900, Control_c, 0, 64, 69
1, 37915, Control_c, 0, 64, 0
1, 37933, Note_on_c, 0, 74, 52
1, 37943, Note_on_c, 0, 78, 68
1, 37959, Control_c, 0, 64, 20
1, 37966, Note_off_c, 0, 74, 64
1, 37974, Note_off_c, 0, 78, 65
1, 37974, Control_c, 0, 64, 62
1, 37989, Control_c, 0, 64, 70
1, 38004, Control_c, 0, 64, 77
1, 38019, Control_c, 0, 64, 84
1, 38034, Control_c, 0, 64, 87
1, 38048, Control_c, 0, 64, 89
1, 38063, Control_c, 0, 64, 90
1, 38085, Control_c, 0, 64, 91
1, 38094, Note_on_c, 0, 66, 50
1, 38100, Control_c, 0, 64, 92
1, 38107, Note_on_c, 0, 69, 42
1, 38115, Control_c, 0, 64, 92
1, 38116, Note_off_c, 0, 66, 59
1, 38132, Note_off_c, 0, 69, 49
1, 38144, Control_c, 0, 64, 93
1, 38159, Control_c, 0, 64, 93
1, 38192, Note_on_c, 0, 62, 58
1, 38213, Note_on_c, 0, 71, 60
1, 38217, Note_off_c, 0, 62, 63
1, 38234, Control_c, 0, 64, 94
1, 38246, Note_off_c, 0, 71, 63
1, 38249, Control_c, 0, 64, 94
1, 38268, Poly_aftertouch_c, 0, 66, 127
1, 38291, Poly_aftertouch_c, 0, 66, 0
1, 38308, Control_c, 0, 64, 93
1, 38323, Control_c, 0, 64, 87
1, 38338, Control_c, 0, 64, 77
1, 38353, Control_c, 0, 64, 63
1, 38356, Note_on_c, 0, 69, 67
1, 38356, Note_on_c, 0, 66, 12
1, 38367, Control_c, 0, 64, 0
1, 38384, Note_off_c, 0, 69, 68
1, 38389, Note_off_c, 0, 66, 41
1, 38402, Note_on_c, 0, 73, 39
1, 38412, Control_c, 0, 64, 13
1, 38427, Control_c, 0, 64, 60
1, 38427, Note_off_c, 0, 73, 48
1, 38441, Control_c, 0, 64, 66
1, 38456, Control_c, 0, 64, 71
1, 38471, Control_c, 0, 64, 78
1, 38485, Control_c, 0, 64, 85
1, 38500, Control_c, 0, 64, 89
1, 38515, Control_c, 0, 64, 92
1, 38520, Note_on_c, 0, 66, 46
1, 38530, Control_c, 0, 64, 95
1, 38544, Note_on_c, 0, 69, 43
1, 38545, Control_c, 0, 64, 96
1, 38553, Note_off_c, 0, 66, 66
1, 38559, Control_c, 0, 64, 97
1, 38568, Note_off_c, 0, 69, 50
1, 38574, Control_c, 0, 64, 97
1, 38604, Control_c, 0, 64, 98
1, 38619, Control_c, 0, 64, 98
1, 38633, Control_c, 0, 64, 99
1, 38650, Note_on_c, 0, 66, 57
1, 38659, Note_on_c, 0, 61, 58
1, 38685, Note_off_c, 0, 66, 64
1, 38690, Note_off_c, 0, 61, 64
1, 38767, Control_c, 0, 64, 99
1, 38773, Note_on_c, 0, 61, 61
1, 38792, Note_on_c, 0, 57, 23
1, 38806, Note_off_c, 0, 61, 60
1, 38837, Note_off_c, 0, 57, 41
1, 38890, Note_on_c, 0, 57, 43
1, 38916, Note_off_c, 0, 57, 56
1, 38917, Note_on_c, 0, 54, 27
1, 38954, Note_off_c, 0, 54, 42
1, 38982, Control_c, 0, 64, 100
1, 39006, Note_on_c, 0, 61, 61
1, 39017, Note_on_c, 0, 66, 58
1, 39036, Note_off_c, 0, 61, 63
1, 39053, Note_off_c, 0, 66, 62
1, 39071, Control_c, 0, 64, 98
1, 39086, Control_c, 0, 64, 91
1, 39101, Control_c, 0, 64, 79
1, 39116, Control_c, 0, 64, 65
1, 39131, Control_c, 0, 64, 0
1, 39132, Note_on_c, 0, 61, 50
1, 39170, Note_on_c, 0, 65, 50
1, 39173, Note_off_c, 0, 61, 62
1, 39190, Control_c, 0, 64, 51
1, 39193, Note_on_c, 0, 68, 58
1, 39205, Control_c, 0, 64, 65
1, 39220, Note_off_c, 0, 65, 61
1, 39220, Control_c, 0, 64, 69
1, 39233, Note_off_c, 0, 68, 61
1, 39235, Control_c, 0, 64, 75
1, 39250, Control_c, 0, 64, 82
1, 39264, Control_c, 0, 64, 86
1, 39279, Control_c, 0, 64, 89
1, 39294, Control_c, 0, 64, 91
1, 39308, Control_c, 0, 64, 93
1, 39323, Control_c, 0, 64, 95
1, 39338, Control_c, 0, 64, 96
1, 39352, Note_on_c, 0, 61, 40
1, 39353, Control_c, 0, 64, 97
1, 39358, Note_on_c, 0, 49, 31
1, 39368, Control_c, 0, 64, 98
1, 39378, Note_off_c, 0, 61, 55
1, 39382, Control_c, 0, 64, 99
1, 39393, Note_off_c, 0, 49, 41
1, 39397, Control_c, 0, 64, 99
1, 39412, Control_c, 0, 64, 100
1, 39428, Note_on_c, 0, 68, 57
1, 39429, Note_on_c, 0, 65, 52
1, 39456, Note_off_c, 0, 65, 59
1, 39468, Note_off_c, 0, 68, 63
1, 39486, Control_c, 0, 64, 96
1, 39501, Control_c, 0, 64, 87
1, 39515, Control_c, 0, 64, 73
1, 39530, Control_c, 0, 64, 0
1, 39536, Note_on_c, 0, 69, 62
1, 39542, Note_on_c, 0, 66, 52
1, 39552, Note_on_c, 0, 61, 38
1, 39581, Note_off_c, 0, 66, 60
1, 39586, Note_off_c, 0, 61, 50
1, 39592, Note_off_c, 0, 69, 64
1, 39597, Control_c, 0, 64, 33
1, 39612, Control_c, 0, 64, 65
1, 39627, Control_c, 0, 64, 72
1, 39642, Control_c, 0, 64, 82
1, 39656, Control_c, 0, 64, 88
1, 39670, Note_on_c, 0, 61, 60
1, 39671, Control_c, 0, 64, 91
1, 39679, Note_on_c, 0, 54, 58
1, 39686, Control_c, 0, 64, 92
1, 39701, Control_c, 0, 64, 93
1, 39706, Note_off_c, 0, 61, 61
1, 39714, Note_off_c, 0, 54, 62
1, 39745, Control_c, 0, 64, 92
1, 39752, Note_on_c, 0, 69, 61
1, 39760, Control_c, 0, 64, 87
1, 39775, Control_c, 0, 64, 79
1, 39781, Note_on_c, 0, 61, 43
1, 39784, Note_on_c, 0, 66, 40
1, 39790, Control_c, 0, 64, 67
1, 39793, Note_off_c, 0, 69, 61
1, 39805, Control_c, 0, 64, 21
1, 39805, Note_off_c, 0, 61, 54
1, 39812, Note_off_c, 0, 66, 48
1, 39820, Control_c, 0, 64, 0
1, 39863, Note_on_c, 0, 63, 66
1, 39865, Control_c, 0, 64, 59
1, 39876, Note_on_c, 0, 66, 62
1, 39879, Control_c, 0, 64, 67
1, 39894, Control_c, 0, 64, 75
1, 39896, Note_off_c, 0, 63, 63
1, 39909, Note_off_c, 0, 66, 64
1, 39909, Control_c, 0, 64, 83
1, 39924, Control_c, 0, 64, 88
1, 39939, Control_c, 0, 64, 91
1, 39954, Control_c, 0, 64, 92
1, 39980, Note_on_c, 0, 57, 57
1, 40001, Note_off_c, 0, 57, 62
1, 40013, Control_c, 0, 64, 88
1, 40028, Control_c, 0, 64, 80
1, 40043, Control_c, 0, 64, 67
1, 40058, Control_c, 0, 64, 0
1, 40065, Poly_aftertouch_c, 0, 60, 0
1, 40075, Note_on_c, 0, 66, 58
1, 40087, Note_on_c, 0, 63, 48
1, 40110, Note_off_c, 0, 63, 58
1, 40115, Note_off_c, 0, 66, 66
1, 40191, Control_c, 0, 64, 58
1, 40198, Note_on_c, 0, 61, 48
1, 40199, Note_on_c, 0, 65, 56
1, 40205, Control_c, 0, 64, 70
1, 40220, Control_c, 0, 64, 79
1, 40223, Note_off_c, 0, 61, 36
1, 40231, Note_off_c, 0, 65, 65
1, 40235, Control_c, 0, 64, 89
1, 40249, Control_c, 0, 64, 94
1, 40264, Control_c, 0, 64, 96
1, 40279, Control_c, 0, 64, 97
1, 40288, Note_on_c, 0, 68, 72
1, 40294, Control_c, 0, 64, 97
1, 40299, Note_on_c, 0, 73, 58
1, 40309, Control_c, 0, 64, 98
1, 40313, Note_off_c, 0, 68, 69
1, 40317, Note_off_c, 0, 73, 62
1, 40331, Control_c, 0, 64, 100
1, 40346, Control_c, 0, 64, 102
1, 40361, Control_c, 0, 64, 105
1, 40376, Control_c, 0, 64, 109
1, 40391, Control_c, 0, 64, 112
1, 40405, Control_c, 0, 64, 116
1, 40420, Control_c, 0, 64, 120
1, 40421, Note_on_c, 0, 77, 72
1, 40435, Control_c, 0, 64, 127
1, 40440, Note_on_c, 0, 80, 57
1, 40444, Note_off_c, 0, 77, 68
1, 40450, Control_c, 0, 64, 127
1, 40457, Note_off_c, 0, 80, 65
1, 40553, Control_c, 0, 64, 115
1, 40568, Control_c, 0, 64, 101
1, 40581, Note_on_c, 0, 78, 56
1, 40583, Control_c, 0, 64, 87
1, 40598, Control_c, 0, 64, 71
1, 40605, Note_on_c, 0, 81, 66
1, 40606, Note_off_c, 0, 78, 55
1, 40612, Control_c, 0, 64, 50
1, 40627, Control_c, 0, 64, 0
1, 40639, Note_off_c, 0, 81, 62
1, 40642, Control_c, 0, 64, 44
1, 40643, Note_on_c, 0, 85, 61
1, 40658, Control_c, 0, 64, 62
1, 40673, Control_c, 0, 64, 67
1, 40674, Note_off_c, 0, 85, 67
1, 40688, Control_c, 0, 64, 73
1, 40702, Control_c, 0, 64, 79
1, 40717, Control_c, 0, 64, 87
1, 40732, Control_c, 0, 64, 94
1, 40747, Control_c, 0, 64, 101
1, 40761, Control_c, 0, 64, 105
1, 40776, Control_c, 0, 64, 108
1, 40780, Note_on_c, 0, 81, 52
1, 40786, Note_on_c, 0, 73, 35
1, 40791, Control_c, 0, 64, 108
1, 40794, Note_on_c, 0, 78, 43
1, 40801, Note_off_c, 0, 81, 58
1, 40819, Note_off_c, 0, 78, 51
1, 40836, Control_c, 0, 64, 109
1, 40851, Control_c, 0, 64, 109
1, 40860, Note_off_c, 0, 73, 0
1, 40878, Note_on_c, 0, 73, 22
1, 40911, Note_on_c, 0, 69, 30
1, 40912, Note_on_c, 0, 78, 49
1, 40925, Note_off_c, 0, 73, 48
1, 40934, Note_off_c, 0, 78, 60
1, 40940, Control_c, 0, 64, 108
1, 40942, Note_off_c, 0, 69, 43
1, 40954, Control_c, 0, 64, 101
1, 40969, Control_c, 0, 64, 85
1, 40984, Control_c, 0, 64, 68
1, 40999, Control_c, 0, 64, 0
1, 41024, Note_on_c, 0, 74, 53
1, 41025, Note_on_c, 0, 78, 61
1, 41047, Note_off_c, 0, 74, 65
1, 41053, Note_off_c, 0, 78, 67
1, 41058, Control_c, 0, 64, 52
1, 41080, Control_c, 0, 64, 65
1, 41095, Control_c, 0, 64, 70
1, 41110, Control_c, 0, 64, 77
1, 41125, Control_c, 0, 64, 85
1, 41140, Control_c, 0, 64, 91
1, 41148, Note_on_c, 0, 69, 48
1, 41152, Note_on_c, 0, 66, 55
1, 41154, Control_c, 0, 64, 95
1, 41169, Control_c, 0, 64, 98
1, 41171, Note_off_c, 0, 69, 65
1, 41173, Note_off_c, 0, 66, 64
1, 41184, Control_c, 0, 64, 100
1, 41199, Control_c, 0, 64, 101
1, 41214, Control_c, 0, 64, 101
1, 41241, Note_on_c, 0, 62, 58
1, 41259, Note_on_c, 0, 66, 48
1, 41260, Note_on_c, 0, 71, 59
1, 41263, Note_off_c, 0, 62, 60
1, 41286, Note_off_c, 0, 66, 55
1, 41289, Note_off_c, 0, 71, 62
1, 41317, Control_c, 0, 64, 101
1, 41331, Control_c, 0, 64, 95
1, 41346, Control_c, 0, 64, 82
1, 41358, Note_on_c, 0, 66, 60
1, 41361, Control_c, 0, 64, 60
1, 41374, Note_on_c, 0, 69, 51
1, 41376, Control_c, 0, 64, 0
1, 41382, Note_off_c, 0, 66, 58
1, 41392, Note_on_c, 0, 73, 72
1, 41403, Note_off_c, 0, 69, 67
1, 41417, Note_off_c, 0, 73, 67
1, 41435, Control_c, 0, 64, 33
1, 41450, Control_c, 0, 64, 66
1, 41465, Control_c, 0, 64, 72
1, 41480, Control_c, 0, 64, 81
1, 41495, Control_c, 0, 64, 88
1, 41510, Control_c, 0, 64, 92
1, 41510, Note_on_c, 0, 69, 65
1, 41519, Note_on_c, 0, 66, 54
1, 41525, Control_c, 0, 64, 94
1, 41540, Control_c, 0, 64, 95
1, 41542, Note_off_c, 0, 69, 68
1, 41546, Note_off_c, 0, 66, 68
1, 41554, Control_c, 0, 64, 96
1, 41569, Control_c, 0, 64, 96
1, 41599, Control_c, 0, 64, 97
1, 41614, Control_c, 0, 64, 97
1, 41629, Control_c, 0, 64, 98
1, 41637, Note_on_c, 0, 65, 22
1, 41640, Note_on_c, 0, 61, 33
1, 41671, Note_off_c, 0, 61, 34
1, 41675, Note_off_c, 0, 65, 43
1, 41722, Note_on_c, 0, 57, 58
1, 41745, Note_on_c, 0, 61, 59
1, 41751, Note_off_c, 0, 57, 63
1, 41762, Control_c, 0, 64, 98
1, 41775, Note_off_c, 0, 61, 63
1, 41818, Note_on_c, 0, 57, 69
1, 41848, Note_on_c, 0, 54, 54
1, 41851, Note_off_c, 0, 57, 67
1, 41858, Control_c, 0, 64, 99
1, 41870, Note_off_c, 0, 54, 59
1, 41902, Control_c, 0, 64, 99
1, 41917, Control_c, 0, 64, 100
1, 41932, Control_c, 0, 64, 100
1, 41951, Note_on_c, 0, 61, 55
1, 41958, Note_on_c, 0, 66, 56
1, 41970, Note_off_c, 0, 61, 63
1, 41978, Note_off_c, 0, 66, 64
1, 42006, Control_c, 0, 64, 98
1, 42021, Control_c, 0, 64, 90
1, 42035, Control_c, 0, 64, 74
1, 42050, Control_c, 0, 64, 37
1, 42061, Note_on_c, 0, 61, 53
1, 42065, Control_c, 0, 64, 0
1, 42106, Note_on_c, 0, 65, 54
1, 42113, Note_off_c, 0, 61, 59
1, 42124, Control_c, 0, 64, 57
1, 42131, Note_on_c, 0, 68, 58
1, 42139, Control_c, 0, 64, 67
1, 42154, Note_off_c, 0, 65, 61
1, 42154, Control_c, 0, 64, 72
1, 42169, Control_c, 0, 64, 79
1, 42172, Note_off_c, 0, 68, 62
1, 42183, Control_c, 0, 64, 85
1, 42198, Control_c, 0, 64, 88
1, 42213, Control_c, 0, 64, 91
1, 42228, Control_c, 0, 64, 93
1, 42243, Control_c, 0, 64, 94
1, 42250, Note_on_c, 0, 61, 58
1, 42257, Note_on_c, 0, 49, 53
1, 42259, Control_c, 0, 64, 95
1, 42273, Control_c, 0, 64, 96
1, 42281, Note_off_c, 0, 49, 61
1, 42283, Note_off_c, 0, 61, 64
1, 42288, Control_c, 0, 64, 97
1, 42303, Control_c, 0, 64, 98
1, 42318, Control_c, 0, 64, 98
1, 42332, Control_c, 0, 64, 99
1, 42340, Note_on_c, 0, 65, 61
1, 42346, Note_on_c, 0, 68, 58
1, 42362, Control_c, 0, 64, 98
1, 42373, Note_off_c, 0, 65, 65
1, 42377, Control_c, 0, 64, 95
1, 42383, Note_off_c, 0, 68, 64
1, 42392, Control_c, 0, 64, 87
1, 42407, Control_c, 0, 64, 70
1, 42422, Control_c, 0, 64, 0
1, 42444, Note_on_c, 0, 66, 63
1, 42444, Note_on_c, 0, 69, 66
1, 42449, Note_on_c, 0, 61, 58
1, 42468, Note_off_c, 0, 61, 62
1, 42479, Note_off_c, 0, 66, 66
1, 42481, Control_c, 0, 64, 25
1, 42484, Note_off_c, 0, 69, 58
1, 42496, Control_c, 0, 64, 64
1, 42511, Control_c, 0, 64, 72
1, 42525, Control_c, 0, 64, 80
1, 42540, Control_c, 0, 64, 86
1, 42553, Note_on_c, 0, 61, 59
1, 42555, Control_c, 0, 64, 89
1, 42562, Note_on_c, 0, 54, 57
1, 42577, Control_c, 0, 64, 90
1, 42592, Control_c, 0, 64, 90
1, 42596, Note_off_c, 0, 61, 63
1, 42598, Note_off_c, 0, 54, 62
1, 42607, Control_c, 0, 64, 91
1, 42622, Control_c, 0, 64, 91
1, 42636, Control_c, 0, 64, 92
1, 42651, Control_c, 0, 64, 94
1, 42659, Note_on_c, 0, 69, 67
1, 42666, Control_c, 0, 64, 95
1, 42681, Control_c, 0, 64, 96
1, 42682, Note_on_c, 0, 61, 46
1, 42690, Note_off_c, 0, 69, 62
1, 42705, Note_off_c, 0, 61, 57
1, 42711, Control_c, 0, 64, 94
1, 42725, Control_c, 0, 64, 89
1, 42740, Control_c, 0, 64, 77
1, 42755, Control_c, 0, 64, 57
1, 42770, Control_c, 0, 64, 0
1, 42771, Note_on_c, 0, 66, 35
1, 42775, Note_on_c, 0, 63, 62
1, 42802, Note_off_c, 0, 63, 61
1, 42821, Note_off_c, 0, 66, 61
1, 42829, Control_c, 0, 64, 58
1, 42844, Control_c, 0, 64, 67
1, 42858, Control_c, 0, 64, 74
1, 42873, Control_c, 0, 64, 82
1, 42888, Control_c, 0, 64, 88
1, 42895, Note_on_c, 0, 57, 48
1, 42903, Control_c, 0, 64, 90
1, 42904, Note_on_c, 0, 60, 31
1, 42918, Control_c, 0, 64, 92
1, 42920, Note_off_c, 0, 57, 58
1, 42932, Control_c, 0, 64, 94
1, 42937, Note_off_c, 0, 60, 43
1, 42947, Control_c, 0, 64, 95
1, 42962, Control_c, 0, 64, 96
1, 43004, Note_on_c, 0, 66, 53
1, 43009, Note_on_c, 0, 63, 49
1, 43033, Note_off_c, 0, 66, 57
1, 43035, Note_off_c, 0, 63, 57
1, 43036, Control_c, 0, 64, 95
1, 43052, Control_c, 0, 64, 89
1, 43067, Control_c, 0, 64, 77
1, 43081, Control_c, 0, 64, 32
1, 43096, Control_c, 0, 64, 0
1, 43150, Note_on_c, 0, 65, 54
1, 43151, Note_on_c, 0, 61, 29
1, 43170, Control_c, 0, 64, 63
1, 43185, Note_off_c, 0, 61, 32
1, 43185, Control_c, 0, 64, 69
1, 43188, Note_off_c, 0, 65, 66
1, 43200, Control_c, 0, 64, 76
1, 43215, Control_c, 0, 64, 86
1, 43230, Control_c, 0, 64, 95
1, 43245, Control_c, 0, 64, 101
1, 43259, Control_c, 0, 64, 105
1, 43274, Control_c, 0, 64, 106
1, 43289, Control_c, 0, 64, 107
1, 43295, Note_on_c, 0, 68, 61
1, 43302, Note_on_c, 0, 73, 51
1, 43304, Control_c, 0, 64, 108
1, 43326, Control_c, 0, 64, 109
1, 43331, Note_off_c, 0, 73, 60
1, 43334, Note_off_c, 0, 68, 64
1, 43341, Control_c, 0, 64, 111
1, 43355, Control_c, 0, 64, 112
1, 43370, Control_c, 0, 64, 113
1, 43385, Control_c, 0, 64, 114
1, 43400, Control_c, 0, 64, 114
1, 43429, Control_c, 0, 64, 115
1, 43444, Control_c, 0, 64, 116
1, 43453, Note_on_c, 0, 77, 43
1, 43459, Control_c, 0, 64, 116
1, 43462, Note_on_c, 0, 80, 49
1, 43474, Control_c, 0, 64, 117
1, 43478, Note_off_c, 0, 77, 47
1, 43482, Note_off_c, 0, 80, 62
1, 43548, Control_c, 0, 64, 113
1, 43563, Control_c, 0, 64, 100
1, 43578, Control_c, 0, 64, 86
1, 43593, Control_c, 0, 64, 68
1, 43608, Control_c, 0, 64, 0
1, 43616, Note_on_c, 0, 81, 59
1, 43642, Note_on_c, 0, 77, 63
1, 43653, Note_off_c, 0, 81, 59
1, 43666, Control_c, 0, 64, 62
1, 43675, Note_off_c, 0, 77, 59
1, 43681, Control_c, 0, 64, 68
1, 43696, Control_c, 0, 64, 74
1, 43711, Control_c, 0, 64, 82
1, 43726, Control_c, 0, 64, 89
1, 43741, Control_c, 0, 64, 95
1, 43755, Control_c, 0, 64, 102
1, 43767, Note_on_c, 0, 69, 60
1, 43769, Note_on_c, 0, 73, 52
1, 43770, Control_c, 0, 64, 107
1, 43785, Control_c, 0, 64, 110
1, 43793, Note_off_c, 0, 73, 59
1, 43800, Control_c, 0, 64, 113
1, 43807, Note_off_c, 0, 69, 58
1, 43815, Control_c, 0, 64, 115
1, 43829, Control_c, 0, 64, 117
1, 43845, Control_c, 0, 64, 119
1, 43860, Control_c, 0, 64, 120
1, 43875, Control_c, 0, 64, 121
1, 43890, Control_c, 0, 64, 121
1, 43892, Note_on_c, 0, 69, 65
1, 43921, Note_on_c, 0, 65, 61
1, 43937, Note_off_c, 0, 69, 54
1, 43952, Note_off_c, 0, 65, 67
1, 44014, Note_on_c, 0, 61, 68
1, 44020, Note_on_c, 0, 65, 71
1, 44039, Note_off_c, 0, 61, 66
1, 44050, Note_off_c, 0, 65, 64
1, 44131, Note_on_c, 0, 69, 66
1, 44134, Control_c, 0, 64, 121
1, 44137, Note_on_c, 0, 73, 63
1, 44166, Note_off_c, 0, 69, 63
1, 44171, Note_off_c, 0, 73, 61
1, 44205, Note_on_c, 0, 77, 78
1, 44229, Note_on_c, 0, 81, 50
1, 44229, Note_off_c, 0, 77, 64
1, 44252, Note_off_c, 0, 81, 57
1, 44252, Control_c, 0, 64, 121
1, 44282, Control_c, 0, 67, 125
1, 44297, Control_c, 0, 67, 123
1, 44307, Note_on_c, 0, 78, 80
1, 44312, Control_c, 0, 64, 118
1, 44312, Control_c, 0, 67, 122
1, 44318, Note_on_c, 0, 74, 65
1, 44327, Control_c, 0, 64, 103
1, 44327, Control_c, 0, 67, 122
1, 44333, Note_off_c, 0, 78, 62
1, 44341, Note_off_c, 0, 74, 72
1, 44342, Control_c, 0, 64, 87
1, 44342, Control_c, 0, 67, 123
1, 44357, Control_c, 0, 64, 68
1, 44371, Control_c, 0, 64, 0
1, 44371, Control_c, 0, 67, 124
1, 44386, Control_c, 0, 67, 125
1, 44401, Control_c, 0, 67, 126
1, 44416, Note_on_c, 0, 69, 68
1, 44416, Control_c, 0, 67, 126
1, 44428, Note_on_c, 0, 66, 51
1, 44431, Control_c, 0, 64, 65
1, 44431, Control_c, 0, 67, 127
1, 44442, Note_off_c, 0, 69, 70
1, 44446, Control_c, 0, 64, 74
1, 44446, Control_c, 0, 67, 127
1, 44450, Note_off_c, 0, 66, 58
1, 44461, Control_c, 0, 64, 84
1, 44476, Control_c, 0, 64, 92
1, 44490, Note_on_c, 0, 62, 71
1, 44491, Control_c, 0, 64, 96
1, 44491, Control_c, 0, 67, 127
1, 44498, Note_on_c, 0, 66, 45
1, 44500, Note_on_c, 0, 68, 43
1, 44505, Control_c, 0, 64, 98
1, 44505, Control_c, 0, 67, 126
1, 44511, Note_off_c, 0, 62, 62
1, 44520, Control_c, 0, 64, 99
1, 44520, Control_c, 0, 67, 125
1, 44522, Note_off_c, 0, 66, 63
1, 44526, Note_off_c, 0, 68, 57
1, 44535, Control_c, 0, 67, 124
1, 44565, Control_c, 0, 67, 123
1, 44568, Note_on_c, 0, 69, 77
1, 44568, Note_on_c, 0, 66, 71
1, 44579, Control_c, 0, 67, 123
1, 44593, Note_off_c, 0, 66, 68
1, 44594, Note_off_c, 0, 69, 68
1, 44594, Control_c, 0, 67, 122
1, 44609, Control_c, 0, 67, 121
1, 44623, Control_c, 0, 67, 120
1, 44640, Control_c, 0, 67, 117
1, 44655, Control_c, 0, 67, 111
1, 44660, Note_on_c, 0, 74, 77
1, 44669, Control_c, 0, 67, 106
1, 44671, Note_on_c, 0, 70, 72
1, 44682, Note_off_c, 0, 74, 67
1, 44684, Control_c, 0, 64, 99
1, 44684, Control_c, 0, 67, 100
1, 44699, Control_c, 0, 64, 102
1, 44699, Control_c, 0, 67, 93
1, 44708, Note_off_c, 0, 70, 57
1, 44714, Control_c, 0, 64, 107
1, 44714, Control_c, 0, 67, 84
1, 44728, Control_c, 0, 64, 114
1, 44728, Control_c, 0, 67, 73
1, 44743, Control_c, 0, 64, 127
1, 44743, Control_c, 0, 67, 65
1, 44744, Note_on_c, 0, 82, 86
1, 44754, Note_on_c, 0, 78, 80
1, 44758, Control_c, 0, 67, 60
1, 44775, Note_off_c, 0, 78, 68
1, 44780, Note_off_c, 0, 82, 62
1, 44788, Control_c, 0, 67, 61
1, 44802, Control_c, 0, 67, 63
1, 44824, Control_c, 0, 64, 109
1, 44824, Control_c, 0, 67, 64
1, 44839, Control_c, 0, 64, 87
1, 44839, Control_c, 0, 67, 64
1, 44854, Control_c, 0, 64, 64
1, 44854, Control_c, 0, 67, 65
1, 44868, Note_on_c, 0, 83, 75
1, 44869, Control_c, 0, 64, 0
1, 44884, Control_c, 0, 67, 64
1, 44884, Note_on_c, 0, 78, 79
1, 44906, Note_off_c, 0, 83, 61
1, 44914, Control_c, 0, 64, 47
1, 44926, Note_off_c, 0, 78, 64
1, 44928, Control_c, 0, 64, 69
1, 44943, Control_c, 0, 64, 82
1, 44958, Control_c, 0, 64, 99
1, 44973, Control_c, 0, 64, 119
1, 44988, Note_on_c, 0, 75, 75
1, 44988, Control_c, 0, 64, 127
1, 44991, Note_on_c, 0, 71, 66
1, 45014, Note_off_c, 0, 75, 65
1, 45061, Control_c, 0, 67, 64
1, 45064, Note_on_c, 0, 66, 72
1, 45090, Control_c, 0, 67, 63
1, 45120, Control_c, 0, 67, 62
1, 45124, Note_on_c, 0, 67, 59
1, 45132, Note_on_c, 0, 63, 82
1, 45134, Control_c, 0, 67, 61
1, 45149, Control_c, 0, 67, 60
1, 45153, Note_off_c, 0, 63, 69
1, 45158, Note_off_c, 0, 71, 35
1, 45164, Control_c, 0, 67, 58
1, 45173, Note_off_c, 0, 66, 64
1, 45179, Note_off_c, 0, 67, 64
1, 45179, Control_c, 0, 67, 52
1, 45194, Control_c, 0, 67, 45
1, 45209, Control_c, 0, 67, 36
1, 45216, Note_on_c, 0, 71, 58
1, 45224, Note_on_c, 0, 75, 88
1, 45224, Control_c, 0, 67, 27
1, 45239, Control_c, 0, 67, 23
1, 45253, Control_c, 0, 67, 24
1, 45268, Control_c, 0, 67, 26
1, 45269, Note_off_c, 0, 75, 61
1, 45278, Note_off_c, 0, 71, 62
1, 45283, Control_c, 0, 64, 109
1, 45283, Control_c, 0, 67, 30
1, 45290, Note_on_c, 0, 79, 90
1, 45294, Note_on_c, 0, 83, 83
1, 45298, Control_c, 0, 64, 86
1, 45298, Control_c, 0, 67, 33
1, 45313, Control_c, 0, 64, 59
1, 45313, Control_c, 0, 67, 35
1, 45315, Note_off_c, 0, 79, 63
1, 45327, Control_c, 0, 64, 0
1, 45327, Control_c, 0, 67, 37
1, 45329, Note_off_c, 0, 83, 57
1, 45342, Control_c, 0, 67, 41
1, 45357, Control_c, 0, 67, 44
1, 45372, Control_c, 0, 64, 59
1, 45372, Control_c, 0, 67, 46
1, 45386, Control_c, 0, 64, 75
1, 45386, Control_c, 0, 67, 45
1, 45390, Note_on_c, 0, 77, 54
1, 45396, Note_on_c, 0, 76, 54
1, 45399, Note_on_c, 0, 81, 47
1, 45401, Control_c, 0, 64, 93
1, 45401, Control_c, 0, 67, 43
1, 45412, Note_off_c, 0, 77, 57
1, 45416, Control_c, 0, 64, 118
1, 45416, Control_c, 0, 67, 41
1, 45418, Note_off_c, 0, 76, 59
1, 45424, Note_off_c, 0, 81, 55
1, 45431, Control_c, 0, 64, 127
1, 45431, Control_c, 0, 67, 40
1, 45447, Control_c, 0, 67, 38
1, 45458, Note_on_c, 0, 71, 79
1, 45459, Note_on_c, 0, 68, 77
1, 45462, Control_c, 0, 67, 36
1, 45476, Control_c, 0, 67, 33
1, 45483, Note_off_c, 0, 68, 69
1, 45491, Control_c, 0, 67, 29
1, 45504, Note_off_c, 0, 71, 52
1, 45506, Control_c, 0, 67, 24
1, 45521, Control_c, 0, 67, 19
1, 45530, Note_on_c, 0, 64, 83
1, 45535, Control_c, 0, 67, 14
1, 45536, Note_on_c, 0, 68, 68
1, 45550, Note_off_c, 0, 64, 71
1, 45550, Control_c, 0, 67, 9
1, 45556, Note_off_c, 0, 68, 67
1, 45573, Control_c, 0, 67, 0
1, 45614, Note_on_c, 0, 72, 81
1, 45627, Note_on_c, 0, 71, 68
1, 45644, Note_off_c, 0, 71, 58
1, 45652, Note_off_c, 0, 72, 67
1, 45689, Note_on_c, 0, 72, 64
1, 45689, Poly_aftertouch_c, 0, 68, 127
1, 45691, Note_on_c, 0, 76, 75
1, 45713, Poly_aftertouch_c, 0, 68, 0
1, 45716, Note_off_c, 0, 76, 68
1, 45724, Note_off_c, 0, 72, 57
1, 45765, Control_c, 0, 64, 101
1, 45780, Control_c, 0, 64, 77
1, 45784, Note_on_c, 0, 80, 77
1, 45784, Note_on_c, 0, 84, 65
1, 45795, Control_c, 0, 64, 0
1, 45795, Control_c, 0, 67, 8
1, 45802, Note_off_c, 0, 84, 68
1, 45808, Note_off_c, 0, 80, 69
1, 45810, Control_c, 0, 67, 9
1, 45824, Control_c, 0, 67, 8
1, 45829, Note_on_c, 0, 85, 66
1, 45839, Control_c, 0, 67, 0
1, 45854, Control_c, 0, 64, 63
1, 45868, Control_c, 0, 64, 74
1, 45880, Note_on_c, 0, 80, 77
1, 45883, Control_c, 0, 64, 86
1, 45891, Note_off_c, 0, 85, 66
1, 45898, Control_c, 0, 64, 96
1, 45903, Note_off_c, 0, 80, 70
1, 45913, Control_c, 0, 64, 100
1, 45928, Control_c, 0, 64, 102
1, 45942, Control_c, 0, 64, 104
1, 45945, Note_on_c, 0, 77, 73
1, 45950, Note_on_c, 0, 73, 62
1, 45957, Control_c, 0, 64, 104
1, 45972, Control_c, 0, 64, 105
1, 45974, Note_off_c, 0, 77, 60
1, 45984, Note_off_c, 0, 73, 62
1, 46017, Control_c, 0, 64, 105
1, 46032, Control_c, 0, 64, 108
1, 46032, Note_on_c, 0, 68, 66
1, 46036, Note_on_c, 0, 65, 63
1, 46047, Control_c, 0, 64, 109
1, 46050, Note_off_c, 0, 68, 67
1, 46054, Note_off_c, 0, 65, 66
1, 46062, Control_c, 0, 64, 110
1, 46091, Control_c, 0, 64, 110
1, 46092, Note_on_c, 0, 69, 85
1, 46097, Note_on_c, 0, 66, 84
1, 46106, Control_c, 0, 64, 113
1, 46118, Note_off_c, 0, 66, 72
1, 46121, Control_c, 0, 64, 118
1, 46131, Note_off_c, 0, 69, 68
1, 46136, Control_c, 0, 64, 127
1, 46188, Note_on_c, 0, 72, 72
1, 46188, Note_on_c, 0, 75, 81
1, 46242, Note_off_c, 0, 72, 62
1, 46250, Note_on_c, 0, 81, 85
1, 46255, Control_c, 0, 64, 114
1, 46258, Note_off_c, 0, 75, 63
1, 46260, Note_on_c, 0, 84, 70
1, 46270, Control_c, 0, 64, 86
1, 46284, Control_c, 0, 64, 54
1, 46285, Note_off_c, 0, 84, 69
1, 46286, Note_off_c, 0, 81, 60
1, 46299, Control_c, 0, 64, 0
1, 46331, Note_on_c, 0, 85, 89
1, 46357, Note_on_c, 0, 80, 87
1, 46366, Control_c, 0, 64, 64
1, 46372, Note_off_c, 0, 85, 64
1, 46375, Note_off_c, 0, 80, 70
1, 46380, Control_c, 0, 64, 74
1, 46395, Control_c, 0, 64, 86
1, 46410, Control_c, 0, 64, 96
1, 46425, Control_c, 0, 64, 105
1, 46434, Note_on_c, 0, 77, 82
1, 46440, Note_on_c, 0, 73, 70
1, 46440, Control_c, 0, 64, 115
1, 46455, Control_c, 0, 64, 126
1, 46470, Control_c, 0, 64, 127
1, 46495, Note_off_c, 0, 77, 53
1, 46508, Note_on_c, 0, 68, 88
1, 46515, Note_on_c, 0, 65, 72
1, 46524, Note_off_c, 0, 73, 39
1, 46531, Note_off_c, 0, 68, 67
1, 46541, Note_off_c, 0, 65, 70
1, 46594, Note_on_c, 0, 69, 86
1, 46595, Note_on_c, 0, 66, 80
1, 46617, Note_off_c, 0, 69, 68
1, 46618, Note_off_c, 0, 66, 71
1, 46668, Note_on_c, 0, 75, 79
1, 46669, Note_on_c, 0, 72, 71
1, 46676, Poly_aftertouch_c, 0, 68, 0
1, 46697, Note_off_c, 0, 72, 63
1, 46717, Note_off_c, 0, 75, 65
1, 46736, Control_c, 0, 64, 105
1, 46745, Note_on_c, 0, 81, 77
1, 46748, Note_on_c, 0, 84, 68
1, 46751, Control_c, 0, 64, 83
1, 46765, Note_off_c, 0, 81, 69
1, 46765, Control_c, 0, 64, 41
1, 46771, Note_off_c, 0, 84, 66
1, 46780, Control_c, 0, 64, 0
1, 46810, Note_on_c, 0, 85, 77
1, 46825, Control_c, 0, 64, 51
1, 46840, Note_on_c, 0, 80, 81
1, 46840, Control_c, 0, 64, 71
1, 46842, Note_on_c, 0, 86, 49
1, 46852, Note_off_c, 0, 85, 65
1, 46854, Control_c, 0, 64, 84
1, 46862, Note_off_c, 0, 80, 67
1, 46866, Note_off_c, 0, 86, 61
1, 46869, Control_c, 0, 64, 102
1, 46884, Control_c, 0, 64, 119
1, 46899, Control_c, 0, 64, 127
1, 46915, Note_on_c, 0, 73, 70
1, 46915, Note_on_c, 0, 77, 78
1, 46968, Note_off_c, 0, 73, 55
1, 46981, Note_off_c, 0, 77, 50
1, 46985, Note_on_c, 0, 65, 62
1, 46993, Note_on_c, 0, 68, 64
1, 47004, Note_off_c, 0, 65, 64
1, 47010, Note_off_c, 0, 68, 65
1, 47048, Control_c, 0, 64, 112
1, 47070, Control_c, 0, 64, 91
1, 47085, Control_c, 0, 64, 71
1, 47098, Note_on_c, 0, 85, 80
1, 47100, Control_c, 0, 64, 0
1, 47124, Note_on_c, 0, 81, 78
1, 47144, Control_c, 0, 64, 50
1, 47147, Note_off_c, 0, 85, 64
1, 47159, Control_c, 0, 64, 69
1, 47173, Note_off_c, 0, 81, 63
1, 47174, Control_c, 0, 64, 82
1, 47188, Control_c, 0, 64, 98
1, 47199, Note_on_c, 0, 77, 69
1, 47203, Note_on_c, 0, 73, 63
1, 47203, Control_c, 0, 64, 112
1, 47218, Control_c, 0, 64, 123
1, 47233, Control_c, 0, 64, 127
1, 47248, Note_off_c, 0, 73, 56
1, 47253, Note_off_c, 0, 77, 45
1, 47311, Note_on_c, 0, 69, 64
1, 47328, Note_off_c, 0, 69, 65
1, 47352, Control_c, 0, 64, 115
1, 47367, Control_c, 0, 64, 92
1, 47379, Poly_aftertouch_c, 0, 65, 0
1, 47382, Control_c, 0, 64, 68
1, 47396, Control_c, 0, 64, 0
1, 47412, Note_on_c, 0, 85, 74
1, 47427, Note_on_c, 0, 80, 81
1, 47441, Note_off_c, 0, 85, 62
1, 47455, Control_c, 0, 64, 65
1, 47470, Control_c, 0, 64, 75
1, 47485, Control_c, 0, 64, 90
1, 47494, Note_off_c, 0, 80, 63
1, 47500, Control_c, 0, 64, 101
1, 47514, Control_c, 0, 64, 107
1, 47529, Control_c, 0, 64, 114
1, 47544, Control_c, 0, 64, 120
1, 47545, Note_on_c, 0, 73, 64
1, 47554, Note_on_c, 0, 77, 51
1, 47559, Control_c, 0, 64, 127
1, 47576, Note_off_c, 0, 77, 60
1, 47576, Note_off_c, 0, 73, 66
1, 47650, Note_on_c, 0, 65, 56
1, 47653, Note_on_c, 0, 69, 68
1, 47671, Note_off_c, 0, 65, 65
1, 47689, Note_off_c, 0, 69, 58
1, 47707, Control_c, 0, 64, 109
1, 47722, Control_c, 0, 64, 91
1, 47737, Control_c, 0, 64, 72
1, 47752, Control_c, 0, 64, 0
1, 47771, Note_on_c, 0, 69, 63
1, 47787, Note_on_c, 0, 73, 64
1, 47793, Note_off_c, 0, 69, 66
1, 47796, Control_c, 0, 64, 20
1, 47818, Control_c, 0, 64, 66
1, 47825, Note_off_c, 0, 73, 65
1, 47833, Control_c, 0, 64, 76
1, 47849, Control_c, 0, 64, 91
1, 47864, Control_c, 0, 64, 106
1, 47878, Control_c, 0, 64, 117
1, 47893, Control_c, 0, 64, 127
1, 47913, Note_on_c, 0, 76, 73
1, 47956, Note_off_c, 0, 76, 64
1, 48085, Note_on_c, 0, 77, 68
1, 48096, Note_on_c, 0, 81, 75
1, 48112, Note_off_c, 0, 77, 65
1, 48142, Note_off_c, 0, 81, 63
1, 48583, Control_c, 0, 64, 112
1, 48597, Control_c, 0, 64, 92
1, 48602, Note_on_c, 0, 70, 49
1, 48608, Note_on_c, 0, 86, 58
1, 48612, Note_on_c, 0, 65, 37
1, 48612, Control_c, 0, 64, 74
1, 48615, Note_on_c, 0, 74, 39
1, 48627, Control_c, 0, 64, 0
1, 48649, Note_off_c, 0, 74, 54
1, 48650, Note_off_c, 0, 70, 53
1, 48652, Note_off_c, 0, 65, 48
1, 48668, Note_off_c, 0, 86, 56
1, 48673, Control_c, 0, 64, 20
1, 48688, Control_c, 0, 64, 64
1, 48697, Note_on_c, 0, 89, 58
1, 48702, Control_c, 0, 64, 74
1, 48717, Control_c, 0, 64, 84
1, 48731, Note_off_c, 0, 89, 65
1, 48732, Control_c, 0, 64, 94
1, 48747, Control_c, 0, 64, 98
1, 48761, Note_on_c, 0, 65, 56
1, 48761, Note_on_c, 0, 74, 54
1, 48762, Note_on_c, 0, 98, 51
1, 48762, Control_c, 0, 64, 101
1, 48766, Note_on_c, 0, 70, 56
1, 48776, Control_c, 0, 64, 103
1, 48783, Note_off_c, 0, 98, 59
1, 48789, Note_off_c, 0, 70, 64
1, 48789, Note_off_c, 0, 74, 69
1, 48791, Control_c, 0, 64, 104
1, 48795, Note_off_c, 0, 65, 65
1, 48804, Note_on_c, 0, 89, 72
1, 48806, Control_c, 0, 64, 105
1, 48840, Note_off_c, 0, 89, 62
1, 48849, Control_c, 0, 64, 106
1, 48864, Note_on_c, 0, 86, 60
1, 48883, Note_off_c, 0, 86, 63
1, 48884, Note_on_c, 0, 65, 59
1, 48884, Note_on_c, 0, 70, 58
1, 48890, Note_on_c, 0, 74, 60
1, 48905, Note_off_c, 0, 65, 66
1, 48908, Note_off_c, 0, 74, 68
1, 48908, Note_off_c, 0, 70, 64
1, 48923, Control_c, 0, 64, 106
1, 48953, Control_c, 0, 64, 107
1, 48968, Control_c, 0, 64, 109
1, 48977, Note_on_c, 0, 74, 74
1, 48983, Control_c, 0, 64, 114
1, 48984, Note_on_c, 0, 65, 62
1, 48988, Note_on_c, 0, 70, 67
1, 48998, Note_on_c, 0, 82, 68
1, 48998, Control_c, 0, 64, 121
1, 49004, Note_off_c, 0, 74, 64
1, 49010, Note_off_c, 0, 70, 70
1, 49012, Control_c, 0, 64, 127
1, 49014, Note_off_c, 0, 65, 68
1, 49019, Note_off_c, 0, 82, 61
1, 49036, Note_on_c, 0, 86, 69
1, 49077, Note_off_c, 0, 86, 50
1, 49086, Note_on_c, 0, 94, 74
1, 49090, Note_on_c, 0, 74, 63
1, 49105, Note_on_c, 0, 65, 45
1, 49105, Note_off_c, 0, 74, 70
1, 49126, Note_off_c, 0, 65, 60
1, 49132, Note_on_c, 0, 86, 67
1, 49138, Note_off_c, 0, 94, 66
1, 49153, Poly_aftertouch_c, 0, 70, 0
1, 49163, Note_on_c, 0, 74, 83
1, 49165, Note_off_c, 0, 86, 65
1, 49168, Note_on_c, 0, 82, 83
1, 49186, Note_off_c, 0, 82, 72
1, 49189, Poly_aftertouch_c, 0, 70, 127
1, 49191, Note_off_c, 0, 74, 64
1, 49192, Note_on_c, 0, 65, 51
1, 49213, Note_off_c, 0, 65, 59
1, 49221, Poly_aftertouch_c, 0, 70, 0
1, 49245, Note_on_c, 0, 81, 79
1, 49264, Control_c, 0, 64, 118
1, 49266, Note_off_c, 0, 81, 68
1, 49276, Note_on_c, 0, 74, 84
1, 49279, Control_c, 0, 64, 90
1, 49280, Note_on_c, 0, 65, 76
1, 49293, Note_on_c, 0, 79, 81
1, 49293, Control_c, 0, 64, 61
1, 49300, Note_on_c, 0, 70, 69
1, 49316, Control_c, 0, 64, 0
1, 49358, Note_on_c, 0, 82, 83
1, 49361, Control_c, 0, 64, 29
1, 49362, Note_off_c, 0, 79, 60
1, 49375, Control_c, 0, 64, 68
1, 49389, Note_on_c, 0, 91, 60
1, 49390, Control_c, 0, 64, 82
1, 49405, Control_c, 0, 64, 103
1, 49419, Control_c, 0, 64, 116
1, 49421, Note_off_c, 0, 82, 62
1, 49433, Note_on_c, 0, 86, 71
1, 49434, Control_c, 0, 64, 127
1, 49445, Note_off_c, 0, 91, 60
1, 49475, Note_on_c, 0, 81, 70
1, 49480, Note_off_c, 0, 74, 61
1, 49510, Note_on_c, 0, 82, 82
1, 49510, Note_off_c, 0, 65, 58
1, 49515, Note_off_c, 0, 86, 39
1, 49521, Note_off_c, 0, 81, 62
1, 49528, Note_off_c, 0, 70, 61
1, 49531, Note_off_c, 0, 82, 69
1, 49584, Control_c, 0, 64, 112
1, 49588, Note_on_c, 0, 76, 97
1, 49592, Note_on_c, 0, 70, 80
1, 49598, Control_c, 0, 64, 87
1, 49599, Note_on_c, 0, 84, 84
1, 49609, Note_on_c, 0, 65, 63
1, 49613, Control_c, 0, 64, 62
1, 49618, Note_on_c, 0, 67, 44
1, 49619, Note_off_c, 0, 76, 69
1, 49628, Control_c, 0, 64, 0
1, 49629, Note_off_c, 0, 70, 63
1, 49630, Note_off_c, 0, 65, 61
1, 49633, Note_off_c, 0, 84, 68
1, 49635, Note_on_c, 0, 88, 76
1, 49644, Note_off_c, 0, 67, 35
1, 49670, Note_on_c, 0, 96, 76
1, 49685, Note_on_c, 0, 70, 77
1, 49685, Note_on_c, 0, 76, 89
1, 49695, Note_on_c, 0, 65, 70
1, 49707, Note_on_c, 0, 91, 69
1, 49709, Note_off_c, 0, 88, 56
1, 49717, Note_off_c, 0, 96, 63
1, 49723, Note_off_c, 0, 76, 68
1, 49729, Note_off_c, 0, 65, 60
1, 49731, Note_off_c, 0, 70, 61
1, 49752, Note_off_c, 0, 91, 57
1, 49758, Note_on_c, 0, 84, 79
1, 49779, Note_on_c, 0, 76, 83
1, 49784, Note_on_c, 0, 65, 64
1, 49789, Note_off_c, 0, 84, 57
1, 49796, Note_on_c, 0, 69, 69
1, 49823, Note_on_c, 0, 81, 82
1, 49833, Note_off_c, 0, 76, 68
1, 49844, Note_off_c, 0, 65, 64
1, 49859, Note_off_c, 0, 81, 64
1, 49866, Note_off_c, 0, 69, 58
1, 49893, Note_on_c, 0, 69, 66
1, 49901, Note_on_c, 0, 72, 88
1, 49904, Note_on_c, 0, 75, 103
1, 49907, Note_on_c, 0, 65, 86
1, 49909, Note_on_c, 0, 79, 82
1, 49909, Control_c, 0, 64, 65
1, 49924, Control_c, 0, 64, 90
1, 49939, Control_c, 0, 64, 127
1, 49952, Note_off_c, 0, 79, 63
1, 49954, Note_on_c, 0, 84, 82
1, 49956, Note_on_c, 0, 66, 32
1, 49990, Note_off_c, 0, 66, 51
1, 49991, Note_on_c, 0, 91, 70
1, 50007, Note_off_c, 0, 84, 62
1, 50045, Note_on_c, 0, 84, 55
1, 50050, Note_off_c, 0, 91, 61
1, 50091, Note_off_c, 0, 84, 66
1, 50105, Note_on_c, 0, 79, 71
1, 50136, Note_off_c, 0, 75, 60
1, 50151, Note_off_c, 0, 79, 58
1, 50157, Note_off_c, 0, 72, 60
1, 50160, Note_on_c, 0, 77, 78
1, 50169, Note_off_c, 0, 65, 56
1, 50171, Note_off_c, 0, 69, 63
1, 50183, Control_c, 0, 64, 121
1, 50194, Note_off_c, 0, 77, 55
1, 50198, Control_c, 0, 64, 87
1, 50209, Note_on_c, 0, 76, 75
1, 50213, Control_c, 0, 64, 52
1, 50228, Control_c, 0, 64, 0
1, 50253, Note_off_c, 0, 76, 65
1, 50266, Note_on_c, 0, 79, 76
1, 50302, Note_off_c, 0, 79, 62
1, 50327, Note_on_c, 0, 81, 89
1, 50376, Note_off_c, 0, 81, 60
1, 50390, Note_on_c, 0, 82, 73
1, 50414, Note_off_c, 0, 82, 68
1, 50425, Note_on_c, 0, 84, 85
1, 50446, Note_off_c, 0, 84, 70
1, 50482, Note_on_c, 0, 74, 72
1, 50489, Note_on_c, 0, 70, 69
1, 50490, Note_on_c, 0, 65, 64
1, 50494, Note_on_c, 0, 86, 85
1, 50508, Note_off_c, 0, 74, 66
1, 50510, Control_c, 0, 64, 61
1, 50517, Note_off_c, 0, 70, 68
1, 50521, Note_off_c, 0, 65, 67
1, 50525, Control_c, 0, 64, 74
1, 50536, Note_off_c, 0, 86, 62
1, 50539, Control_c, 0, 64, 83
1, 50553, Note_on_c, 0, 89, 80
1, 50554, Control_c, 0, 64, 90
1, 50569, Control_c, 0, 64, 93
1, 50584, Note_off_c, 0, 89, 60
1, 50584, Control_c, 0, 64, 98
1, 50594, Note_on_c, 0, 98, 76
1, 50596, Note_on_c, 0, 74, 76
1, 50598, Note_on_c, 0, 65, 65
1, 50599, Control_c, 0, 64, 102
1, 50603, Note_on_c, 0, 70, 65
1, 50613, Control_c, 0, 64, 104
1, 50617, Note_off_c, 0, 74, 71
1, 50619, Note_off_c, 0, 70, 69
1, 50628, Note_off_c, 0, 65, 67
1, 50628, Control_c, 0, 64, 105
1, 50640, Note_off_c, 0, 98, 65
1, 50643, Control_c, 0, 64, 105
1, 50646, Note_on_c, 0, 89, 79
1, 50690, Note_off_c, 0, 89, 66
1, 50695, Note_on_c, 0, 86, 76
1, 50702, Note_on_c, 0, 70, 67
1, 50704, Note_on_c, 0, 74, 77
1, 50707, Note_on_c, 0, 65, 72
1, 50723, Note_off_c, 0, 74, 72
1, 50726, Note_off_c, 0, 86, 0
1, 50730, Note_off_c, 0, 65, 71
1, 50730, Note_off_c, 0, 70, 67
1, 50750, Poly_aftertouch_c, 0, 86, 0
1, 50754, Note_on_c, 0, 84, 74
1, 50762, Control_c, 0, 64, 106
1, 50770, Note_off_c, 0, 84, 69
1, 50777, Control_c, 0, 64, 108
1, 50791, Control_c, 0, 64, 110
1, 50800, Note_on_c, 0, 74, 94
1, 50803, Note_on_c, 0, 70, 84
1, 50813, Control_c, 0, 64, 115
1, 50817, Note_on_c, 0, 65, 75
1, 50828, Control_c, 0, 64, 120
1, 50831, Note_off_c, 0, 74, 65
1, 50831, Note_off_c, 0, 70, 68
1, 50833, Note_on_c, 0, 82, 78
1, 50838, Note_off_c, 0, 65, 72
1, 50843, Control_c, 0, 64, 126
1, 50858, Control_c, 0, 64, 127
1, 50872, Note_on_c, 0, 86, 81
1, 50877, Note_off_c, 0, 82, 61
1, 50904, Note_on_c, 0, 74, 97
1, 50906, Note_on_c, 0, 70, 87
1, 50917, Note_on_c, 0, 65, 75
1, 50921, Note_off_c, 0, 74, 68
1, 50923, Note_off_c, 0, 86, 65
1, 50926, Note_on_c, 0, 94, 70
1, 50935, Note_off_c, 0, 70, 63
1, 50944, Note_off_c, 0, 65, 68
1, 50968, Note_on_c, 0, 86, 69
1, 50977, Note_off_c, 0, 94, 63
1, 50991, Note_on_c, 0, 74, 99
1, 50998, Note_on_c, 0, 65, 84
1, 50998, Note_on_c, 0, 70, 87
1, 50999, Note_on_c, 0, 82, 85
1, 51003, Note_off_c, 0, 86, 65
1, 51022, Note_off_c, 0, 74, 69
1, 51025, Note_off_c, 0, 65, 62
1, 51034, Note_off_c, 0, 70, 46
1, 51038, Note_off_c, 0, 82, 65
1, 51081, Control_c, 0, 64, 103
1, 51095, Note_on_c, 0, 81, 60
1, 51096, Control_c, 0, 64, 71
1, 51101, Note_on_c, 0, 74, 110
1, 51108, Note_on_c, 0, 70, 100
1, 51111, Note_on_c, 0, 65, 89
1, 51111, Control_c, 0, 64, 0
1, 51112, Note_off_c, 0, 81, 58
1, 51129, Note_on_c, 0, 79, 86
1, 51156, Control_c, 0, 64, 21
1, 51171, Control_c, 0, 64, 77
1, 51186, Control_c, 0, 64, 101
1, 51195, Note_on_c, 0, 82, 80
1, 51201, Control_c, 0, 64, 127
1, 51214, Note_off_c, 0, 79, 57
1, 51218, Note_on_c, 0, 91, 61
1, 51251, Note_off_c, 0, 82, 63
1, 51260, Note_off_c, 0, 74, 55
1, 51263, Note_off_c, 0, 91, 57
1, 51270, Note_on_c, 0, 86, 61
1, 51288, Note_off_c, 0, 65, 57
1, 51311, Note_off_c, 0, 70, 57
1, 51321, Note_on_c, 0, 79, 50
1, 51328, Note_off_c, 0, 86, 61
1, 51331, Note_on_c, 0, 81, 52
1, 51345, Note_off_c, 0, 79, 59
1, 51353, Note_off_c, 0, 81, 60
1, 51360, Note_on_c, 0, 82, 68
1, 51384, Note_off_c, 0, 82, 67
1, 51422, Control_c, 0, 64, 101
1, 51424, Note_on_c, 0, 70, 73
1, 51424, Note_on_c, 0, 76, 80
1, 51436, Note_on_c, 0, 65, 54
1, 51437, Control_c, 0, 64, 75
1, 51445, Note_off_c, 0, 76, 71
1, 51448, Note_on_c, 0, 84, 65
1, 51451, Note_on_c, 0, 67, 34
1, 51451, Note_off_c, 0, 65, 67
1, 51452, Control_c, 0, 64, 0
1, 51455, Note_off_c, 0, 70, 64
1, 51477, Note_off_c, 0, 84, 69
1, 51483, Note_off_c, 0, 67, 33
1, 51490, Note_on_c, 0, 88, 67
1, 51517, Note_on_c, 0, 96, 68
1, 51521, Note_on_c, 0, 65, 59
1, 51525, Note_on_c, 0, 76, 76
1, 51539, Note_on_c, 0, 70, 55
1, 51546, Note_off_c, 0, 76, 73
1, 51552, Note_off_c, 0, 96, 59
1, 51560, Note_on_c, 0, 91, 70
1, 51564, Note_off_c, 0, 65, 63
1, 51564, Note_off_c, 0, 70, 63
1, 51570, Note_off_c, 0, 88, 58
1, 51597, Note_off_c, 0, 91, 59
1, 51619, Note_on_c, 0, 84, 72
1, 51635, Note_on_c, 0, 76, 76
1, 51642, Note_on_c, 0, 65, 59
1, 51648, Note_off_c, 0, 84, 61
1, 51669, Note_off_c, 0, 76, 64
1, 51672, Note_off_c, 0, 65, 67
1, 51677, Note_on_c, 0, 69, 25
1, 51697, Note_on_c, 0, 81, 64
1, 51725, Note_off_c, 0, 81, 64
1, 51745, Note_off_c, 0, 69, 0
1, 51758, Note_on_c, 0, 69, 31
1, 51761, Note_on_c, 0, 65, 58
1, 51770, Control_c, 0, 64, 46
1, 51773, Note_on_c, 0, 79, 74
1, 51775, Note_on_c, 0, 72, 49
1, 51785, Control_c, 0, 64, 65
1, 51786, Note_on_c, 0, 75, 46
1, 51800, Control_c, 0, 64, 74
1, 51812, Note_off_c, 0, 79, 61
1, 51815, Control_c, 0, 64, 86
1, 51830, Control_c, 0, 64, 100
1, 51836, Note_on_c, 0, 84, 66
1, 51845, Control_c, 0, 64, 113
1, 51860, Control_c, 0, 64, 120
1, 51864, Note_off_c, 0, 84, 67
1, 51875, Control_c, 0, 64, 122
1, 51884, Note_on_c, 0, 91, 59
1, 51890, Control_c, 0, 64, 123
1, 51918, Note_off_c, 0, 91, 60
1, 51924, Note_on_c, 0, 84, 70
1, 51955, Note_off_c, 0, 65, 58
1, 51964, Note_off_c, 0, 84, 63
1, 51967, Note_off_c, 0, 72, 59
1, 51972, Note_off_c, 0, 75, 54
1, 51978, Note_on_c, 0, 79, 69
1, 51981, Note_off_c, 0, 69, 55
1, 52008, Control_c, 0, 64, 122
1, 52019, Note_off_c, 0, 79, 53
1, 52031, Note_on_c, 0, 77, 72
1, 52047, Note_off_c, 0, 77, 67
1, 52080, Note_on_c, 0, 76, 76
1, 52127, Note_on_c, 0, 79, 62
1, 52134, Note_off_c, 0, 76, 69
1, 52169, Note_off_c, 0, 79, 62
1, 52186, Control_c, 0, 64, 123
1, 52198, Note_on_c, 0, 81, 77
1, 52201, Control_c, 0, 64, 127
1, 52245, Note_off_c, 0, 81, 62
1, 52252, Note_on_c, 0, 82, 70
1, 52291, Note_on_c, 0, 84, 80
1, 52294, Note_off_c, 0, 82, 66
1, 52320, Note_off_c, 0, 84, 69
1, 52357, Control_c, 0, 64, 112
1, 52366, Note_on_c, 0, 77, 59
1, 52368, Note_on_c, 0, 86, 77
1, 52369, Note_on_c, 0, 74, 55
1, 52371, Note_on_c, 0, 70, 56
1, 52372, Control_c, 0, 64, 83
1, 52384, Note_off_c, 0, 77, 61
1, 52386, Control_c, 0, 64, 35
1, 52393, Note_off_c, 0, 74, 65
1, 52393, Note_off_c, 0, 70, 61
1, 52401, Control_c, 0, 64, 0
1, 52416, Note_off_c, 0, 86, 61
1, 52439, Note_on_c, 0, 89, 62
1, 52441, Note_on_c, 0, 88, 58
1, 52445, Control_c, 0, 64, 34
1, 52460, Control_c, 0, 64, 67
1, 52462, Note_off_c, 0, 88, 64
1, 52471, Note_on_c, 0, 77, 58
1, 52473, Note_on_c, 0, 70, 60
1, 52475, Control_c, 0, 64, 76
1, 52480, Note_on_c, 0, 74, 52
1, 52486, Note_off_c, 0, 89, 0
1, 52490, Control_c, 0, 64, 85
1, 52494, Note_on_c, 0, 98, 20
1, 52496, Note_off_c, 0, 77, 60
1, 52497, Note_off_c, 0, 70, 62
1, 52502, Note_off_c, 0, 74, 65
1, 52505, Control_c, 0, 64, 91
1, 52515, Poly_aftertouch_c, 0, 89, 0
1, 52519, Control_c, 0, 64, 96
1, 52530, Note_off_c, 0, 98, 31
1, 52534, Control_c, 0, 64, 102
1, 52549, Control_c, 0, 64, 115
1, 52564, Control_c, 0, 64, 127
1, 52571, Note_on_c, 0, 82, 78
1, 52578, Note_on_c, 0, 70, 67
1, 52579, Note_on_c, 0, 77, 74
1, 52585, Note_on_c, 0, 74, 61
1, 52608, Note_off_c, 0, 77, 58
1, 52614, Note_off_c, 0, 82, 64
1, 52615, Note_off_c, 0, 74, 63
1, 52623, Note_off_c, 0, 70, 58
1, 52638, Note_on_c, 0, 84, 52
1, 52639, Control_c, 0, 64, 100
1, 52654, Control_c, 0, 64, 74
1, 52661, Note_off_c, 0, 84, 57
1, 52668, Control_c, 0, 64, 0
1, 52697, Note_on_c, 0, 77, 75
1, 52701, Note_on_c, 0, 86, 91
1, 52707, Note_on_c, 0, 69, 54
1, 52719, Note_on_c, 0, 74, 46
1, 52720, Note_off_c, 0, 77, 68
1, 52727, Note_off_c, 0, 69, 62
1, 52727, Control_c, 0, 64, 57
1, 52736, Note_off_c, 0, 86, 64
1, 52742, Note_off_c, 0, 74, 57
1, 52742, Control_c, 0, 64, 74
1, 52749, Note_on_c, 0, 89, 78
1, 52757, Control_c, 0, 64, 86
1, 52772, Control_c, 0, 64, 98
1, 52783, Note_on_c, 0, 98, 79
1, 52787, Control_c, 0, 64, 104
1, 52796, Note_off_c, 0, 89, 62
1, 52801, Note_on_c, 0, 69, 66
1, 52802, Note_on_c, 0, 77, 68
1, 52802, Control_c, 0, 64, 111
1, 52816, Control_c, 0, 64, 121
1, 52820, Note_off_c, 0, 77, 65
1, 52825, Note_off_c, 0, 98, 61
1, 52828, Note_on_c, 0, 89, 46
1, 52831, Control_c, 0, 64, 127
1, 52841, Note_off_c, 0, 69, 57
1, 52859, Note_on_c, 0, 86, 87
1, 52863, Note_off_c, 0, 89, 66
1, 52881, Note_on_c, 0, 69, 64
1, 52890, Note_on_c, 0, 77, 79
1, 52906, Note_on_c, 0, 74, 5
1, 52929, Note_off_c, 0, 86, 63
1, 52936, Note_off_c, 0, 69, 64
1, 52936, Note_off_c, 0, 77, 62
1, 52940, Note_on_c, 0, 85, 69
1, 52946, Note_off_c, 0, 74, 63
1, 52950, Control_c, 0, 64, 116
1, 52958, Note_off_c, 0, 85, 69
1, 52965, Control_c, 0, 64, 86
1, 52980, Control_c, 0, 64, 48
1, 52995, Control_c, 0, 64, 0
1, 53000, Note_on_c, 0, 68, 74
1, 53003, Note_on_c, 0, 86, 90
1, 53004, Note_on_c, 0, 77, 65
1, 53037, Note_off_c, 0, 86, 67
1, 53039, Control_c, 0, 64, 59
1, 53040, Note_on_c, 0, 74, 41
1, 53058, Note_on_c, 0, 89, 80
1, 53061, Control_c, 0, 64, 74
1, 53071, Note_off_c, 0, 77, 61
1, 53076, Control_c, 0, 64, 88
1, 53091, Control_c, 0, 64, 100
1, 53097, Note_on_c, 0, 98, 84
1, 53105, Control_c, 0, 64, 103
1, 53112, Note_off_c, 0, 89, 65
1, 53120, Control_c, 0, 64, 105
1, 53135, Control_c, 0, 64, 108
1, 53136, Note_off_c, 0, 68, 60
1, 53150, Control_c, 0, 64, 110
1, 53154, Note_off_c, 0, 98, 65
1, 53155, Note_on_c, 0, 77, 63
1, 53156, Note_on_c, 0, 89, 54
1, 53165, Control_c, 0, 64, 112
1, 53180, Control_c, 0, 64, 116
1, 53186, Note_off_c, 0, 89, 66
1, 53190, Note_on_c, 0, 86, 81
1, 53194, Control_c, 0, 64, 127
1, 53198, Note_off_c, 0, 74, 65
1, 53242, Note_off_c, 0, 77, 59
1, 53244, Note_on_c, 0, 65, 72
1, 53254, Control_c, 0, 64, 115
1, 53257, Note_on_c, 0, 85, 81
1, 53257, Note_off_c, 0, 86, 64
1, 53268, Control_c, 0, 64, 91
1, 53272, Note_on_c, 0, 71, 75
1, 53273, Note_off_c, 0, 65, 67
1, 53283, Control_c, 0, 64, 66
1, 53286, Note_off_c, 0, 85, 66
1, 53298, Control_c, 0, 64, 0
1, 53301, Note_on_c, 0, 74, 61
1, 53339, Note_on_c, 0, 80, 105
1, 53339, Note_on_c, 0, 86, 95
1, 53356, Control_c, 0, 64, 54
1, 53370, Note_off_c, 0, 71, 60
1, 53371, Control_c, 0, 64, 78
1, 53385, Control_c, 0, 64, 98
1, 53389, Note_off_c, 0, 86, 66
1, 53395, Note_on_c, 0, 89, 90
1, 53400, Control_c, 0, 64, 127
1, 53434, Note_off_c, 0, 80, 61
1, 53472, Note_on_c, 0, 98, 76
1, 53514, Note_off_c, 0, 89, 62
1, 53523, Note_on_c, 0, 95, 73
1, 53585, Note_off_c, 0, 98, 60
1, 53587, Note_on_c, 0, 92, 82
1, 53626, Note_on_c, 0, 89, 77
1, 53630, Note_off_c, 0, 95, 65
1, 53681, Note_off_c, 0, 92, 65
1, 53692, Note_off_c, 0, 74, 0
1, 53695, Note_on_c, 0, 86, 76
1, 53700, Note_off_c, 0, 89, 66
1, 53722, Note_off_c, 0, 86, 63
1, 53722, Note_on_c, 0, 74, 6
1, 53724, Note_on_c, 0, 77, 57
1, 53727, Control_c, 0, 64, 101
1, 53730, Note_on_c, 0, 67, 59
1, 53732, Note_on_c, 0, 71, 59
1, 53742, Control_c, 0, 64, 80
1, 53744, Note_off_c, 0, 77, 62
1, 53756, Control_c, 0, 64, 43
1, 53763, Note_on_c, 0, 83, 72
1, 53771, Control_c, 0, 64, 0
1, 53820, Note_off_c, 0, 83, 59
1, 53821, Note_on_c, 0, 80, 80
1, 53858, Note_off_c, 0, 80, 64
1, 53860, Note_on_c, 0, 77, 77
1, 53916, Note_off_c, 0, 77, 64
1, 53919, Note_on_c, 0, 79, 73
1, 53943, Note_off_c, 0, 79, 67
1, 53964, Note_on_c, 0, 80, 69
1, 53991, Note_off_c, 0, 80, 66
1, 54011, Note_on_c, 0, 81, 84
1, 54046, Note_off_c, 0, 81, 62
1, 54057, Note_off_c, 0, 67, 62
1, 54061, Control_c, 0, 64, 63
1, 54074, Note_on_c, 0, 82, 62
1, 54076, Control_c, 0, 64, 70
1, 54090, Control_c, 0, 64, 79
1, 54099, Note_off_c, 0, 71, 62
1, 54105, Note_off_c, 0, 82, 50
1, 54105, Control_c, 0, 64, 93
1, 54113, Note_off_c, 0, 74, 60
1, 54120, Control_c, 0, 64, 112
1, 54133, Note_on_c, 0, 81, 67
1, 54135, Control_c, 0, 64, 127
1, 54149, Note_on_c, 0, 83, 55
1, 54167, Note_off_c, 0, 81, 59
1, 54168, Note_off_c, 0, 83, 59
1, 54184, Note_on_c, 0, 84, 68
1, 54215, Note_off_c, 0, 84, 65
1, 54228, Note_on_c, 0, 85, 67
1, 54273, Note_off_c, 0, 85, 64
1, 54283, Note_on_c, 0, 86, 71
1, 54307, Note_off_c, 0, 86, 67
1, 54328, Control_c, 0, 64, 115
1, 54343, Control_c, 0, 64, 92
1, 54358, Control_c, 0, 64, 70
1, 54373, Control_c, 0, 64, 0
1, 54375, Note_on_c, 0, 71, 56
1, 54375, Note_on_c, 0, 78, 69
1, 54381, Note_on_c, 0, 87, 58
1, 54391, Note_off_c, 0, 78, 64
1, 54393, Note_on_c, 0, 75, 40
1, 54402, Note_off_c, 0, 71, 57
1, 54416, Note_off_c, 0, 75, 54
1, 54417, Control_c, 0, 64, 48
1, 54419, Note_off_c, 0, 87, 63
1, 54432, Control_c, 0, 64, 67
1, 54435, Note_on_c, 0, 90, 65
1, 54447, Control_c, 0, 64, 76
1, 54462, Control_c, 0, 64, 91
1, 54471, Note_off_c, 0, 90, 59
1, 54477, Control_c, 0, 64, 101
1, 54481, Note_on_c, 0, 99, 61
1, 54489, Note_on_c, 0, 71, 63
1, 54489, Note_on_c, 0, 78, 62
1, 54492, Control_c, 0, 64, 106
1, 54504, Note_on_c, 0, 75, 54
1, 54506, Control_c, 0, 64, 109
1, 54513, Note_off_c, 0, 78, 61
1, 54513, Note_off_c, 0, 99, 69
1, 54521, Note_on_c, 0, 90, 62
1, 54521, Control_c, 0, 64, 109
1, 54522, Note_off_c, 0, 71, 61
1, 54527, Note_off_c, 0, 75, 64
1, 54572, Note_off_c, 0, 90, 63
1, 54591, Note_on_c, 0, 83, 73
1, 54602, Note_on_c, 0, 78, 74
1, 54611, Note_on_c, 0, 71, 63
1, 54617, Control_c, 0, 64, 106
1, 54618, Note_on_c, 0, 75, 69
1, 54626, Note_off_c, 0, 78, 64
1, 54629, Note_off_c, 0, 71, 65
1, 54631, Note_off_c, 0, 83, 56
1, 54632, Control_c, 0, 64, 90
1, 54643, Note_on_c, 0, 85, 79
1, 54643, Note_off_c, 0, 75, 69
1, 54647, Control_c, 0, 64, 67
1, 54661, Control_c, 0, 64, 0
1, 54664, Note_off_c, 0, 85, 69
1, 54699, Note_on_c, 0, 78, 104
1, 54706, Control_c, 0, 64, 25
1, 54709, Note_on_c, 0, 70, 74
1, 54716, Note_on_c, 0, 87, 82
1, 54717, Note_on_c, 0, 75, 69
1, 54721, Control_c, 0, 64, 70
1, 54736, Note_off_c, 0, 78, 61
1, 54736, Control_c, 0, 64, 87
1, 54743, Note_off_c, 0, 75, 69
1, 54745, Note_off_c, 0, 70, 58
1, 54751, Control_c, 0, 64, 120
1, 54759, Note_off_c, 0, 87, 62
1, 54766, Control_c, 0, 64, 127
1, 54768, Note_on_c, 0, 90, 74
1, 54797, Note_on_c, 0, 99, 80
1, 54799, Note_on_c, 0, 78, 97
1, 54800, Note_off_c, 0, 90, 61
1, 54813, Note_on_c, 0, 75, 73
1, 54814, Note_on_c, 0, 70, 70
1, 54834, Note_off_c, 0, 78, 65
1, 54840, Note_off_c, 0, 75, 65
1, 54857, Note_on_c, 0, 90, 73
1, 54860, Note_off_c, 0, 70, 50
1, 54861, Note_off_c, 0, 99, 66
1, 54894, Note_on_c, 0, 70, 64
1, 54896, Note_on_c, 0, 78, 98
1, 54898, Note_on_c, 0, 86, 85
1, 54905, Note_off_c, 0, 90, 63
1, 54909, Note_on_c, 0, 75, 71
1, 54928, Control_c, 0, 64, 116
1, 54943, Control_c, 0, 64, 84
1, 54948, Note_off_c, 0, 78, 64
1, 54951, Note_off_c, 0, 86, 55
1, 54956, Note_off_c, 0, 70, 63
1, 54957, Control_c, 0, 64, 47
1, 54967, Note_on_c, 0, 87, 82
1, 54972, Control_c, 0, 64, 0
1, 54985, Note_off_c, 0, 87, 71
1, 54986, Note_on_c, 0, 78, 87
1, 55002, Note_on_c, 0, 69, 73
1, 55017, Control_c, 0, 64, 60
1, 55025, Note_on_c, 0, 72, 50
1, 55031, Note_on_c, 0, 87, 91
1, 55033, Control_c, 0, 64, 83
1, 55043, Note_off_c, 0, 78, 63
1, 55048, Control_c, 0, 64, 113
1, 55062, Control_c, 0, 64, 127
1, 55081, Note_off_c, 0, 87, 63
1, 55086, Note_on_c, 0, 90, 72
1, 55106, Note_off_c, 0, 72, 0
1, 55106, Note_on_c, 0, 72, 4
1, 55124, Note_on_c, 0, 99, 79
1, 55126, Note_on_c, 0, 78, 72
1, 55134, Note_off_c, 0, 90, 64
1, 55156, Note_off_c, 0, 69, 64
1, 55185, Note_on_c, 0, 90, 69
1, 55193, Note_off_c, 0, 99, 66
1, 55207, Note_off_c, 0, 78, 63
1, 55231, Note_on_c, 0, 86, 78
1, 55233, Note_off_c, 0, 90, 62
1, 55259, Note_on_c, 0, 66, 83
1, 55306, Note_off_c, 0, 66, 69
1, 55311, Note_off_c, 0, 86, 64
1, 55314, Note_on_c, 0, 87, 82
1, 55338, Note_off_c, 0, 87, 65
1, 55351, Control_c, 0, 64, 102
1, 55365, Note_on_c, 0, 81, 67
1, 55366, Control_c, 0, 64, 81
1, 55381, Control_c, 0, 64, 59
1, 55396, Control_c, 0, 64, 0
1, 55405, Note_off_c, 0, 72, 38
1, 55414, Note_on_c, 0, 87, 66
1, 55440, Control_c, 0, 64, 64
1, 55447, Note_off_c, 0, 87, 62
1, 55451, Note_on_c, 0, 90, 75
1, 55454, Note_off_c, 0, 81, 58
1, 55454, Control_c, 0, 64, 74
1, 55469, Control_c, 0, 64, 87
1, 55484, Control_c, 0, 64, 101
1, 55489, Note_on_c, 0, 99, 75
1, 55499, Control_c, 0, 64, 113
1, 55514, Control_c, 0, 64, 127
1, 55521, Poly_aftertouch_c, 0, 72, 127
1, 55538, Note_on_c, 0, 96, 71
1, 55542, Note_off_c, 0, 90, 62
1, 55559, Note_off_c, 0, 75, 57
1, 55582, Note_on_c, 0, 93, 71
1, 55587, Poly_aftertouch_c, 0, 72, 0
1, 55597, Note_off_c, 0, 99, 67
1, 55612, Note_on_c, 0, 90, 70
1, 55622, Note_off_c, 0, 96, 63
1, 55644, Note_off_c, 0, 93, 61
1, 55651, Note_on_c, 0, 87, 76
1, 55671, Note_off_c, 0, 90, 64
1, 55672, Note_off_c, 0, 87, 70
1, 55689, Note_on_c, 0, 78, 71
1, 55694, Note_on_c, 0, 75, 43
1, 55707, Note_on_c, 0, 68, 53
1, 55707, Note_on_c, 0, 72, 50
1, 55731, Note_on_c, 0, 84, 76
1, 55738, Note_off_c, 0, 78, 60
1, 55751, Control_c, 0, 64, 106
1, 55766, Control_c, 0, 64, 83
1, 55780, Control_c, 0, 64, 54
1, 55786, Note_off_c, 0, 84, 65
1, 55795, Note_on_c, 0, 81, 72
1, 55795, Control_c, 0, 64, 0
1, 55811, Note_off_c, 0, 81, 67
1, 55834, Note_on_c, 0, 78, 80
1, 55856, Control_c, 0, 64, 58
1, 55871, Control_c, 0, 64, 71
1, 55885, Control_c, 0, 64, 83
1, 55890, Note_off_c, 0, 78, 63
1, 55894, Note_on_c, 0, 80, 77
1, 55900, Control_c, 0, 64, 95
1, 55915, Control_c, 0, 64, 100
1, 55930, Control_c, 0, 64, 103
1, 55945, Control_c, 0, 64, 104
1, 55959, Control_c, 0, 64, 105
1, 55966, Note_off_c, 0, 68, 58
1, 55969, Note_off_c, 0, 80, 64
1, 55972, Note_off_c, 0, 72, 64
1, 55976, Note_on_c, 0, 81, 76
1, 55985, Note_off_c, 0, 75, 62
1, 55989, Control_c, 0, 64, 105
1, 55997, Note_off_c, 0, 81, 67
1, 56003, Control_c, 0, 64, 106
1, 56018, Control_c, 0, 64, 107
1, 56033, Control_c, 0, 64, 107
1, 56085, Control_c, 0, 64, 108
1, 56100, Note_on_c, 0, 83, 59
1, 56100, Control_c, 0, 64, 109
1, 56115, Control_c, 0, 64, 109
1, 56130, Control_c, 0, 64, 111
1, 56141, Note_off_c, 0, 83, 60
1, 56145, Control_c, 0, 64, 113
1, 56154, Note_on_c, 0, 84, 62
1, 56159, Control_c, 0, 64, 115
1, 56174, Control_c, 0, 64, 117
1, 56189, Control_c, 0, 64, 118
1, 56203, Control_c, 0, 64, 120
1, 56204, Note_on_c, 0, 85, 74
1, 56206, Note_off_c, 0, 84, 63
1, 56218, Control_c, 0, 64, 122
1, 56233, Control_c, 0, 64, 124
1, 56243, Note_off_c, 0, 85, 56
1, 56248, Control_c, 0, 64, 126
1, 56263, Control_c, 0, 64, 127
1, 56274, Note_on_c, 0, 86, 70
1, 56316, Note_off_c, 0, 86, 60
1, 56322, Control_c, 0, 64, 121
1, 56337, Note_on_c, 0, 87, 66
1, 56337, Control_c, 0, 64, 107
1, 56352, Control_c, 0, 64, 91
1, 56367, Control_c, 0, 64, 72
1, 56381, Control_c, 0, 64, 0
1, 56387, Note_off_c, 0, 87, 54
1, 56388, Note_on_c, 0, 72, 37
1, 56390, Note_on_c, 0, 76, 47
1, 56393, Note_on_c, 0, 79, 40
1, 56424, Note_off_c, 0, 72, 52
1, 56426, Control_c, 0, 64, 24
1, 56429, Note_off_c, 0, 76, 66
1, 56432, Note_off_c, 0, 79, 50
1, 56441, Control_c, 0, 64, 64
1, 56444, Note_on_c, 0, 88, 64
1, 56456, Control_c, 0, 64, 71
1, 56471, Control_c, 0, 64, 81
1, 56485, Control_c, 0, 64, 90
1, 56492, Note_off_c, 0, 88, 60
1, 56500, Control_c, 0, 64, 97
1, 56515, Note_on_c, 0, 91, 62
1, 56515, Control_c, 0, 64, 104
1, 56530, Control_c, 0, 64, 109
1, 56544, Note_off_c, 0, 91, 62
1, 56545, Control_c, 0, 64, 112
1, 56546, Note_on_c, 0, 72, 44
1, 56558, Note_on_c, 0, 79, 38
1, 56559, Control_c, 0, 64, 115
1, 56561, Note_on_c, 0, 100, 59
1, 56570, Note_on_c, 0, 76, 36
1, 56571, Note_off_c, 0, 72, 58
1, 56574, Control_c, 0, 64, 118
1, 56585, Note_off_c, 0, 79, 48
1, 56589, Control_c, 0, 64, 121
1, 56594, Note_off_c, 0, 100, 64
1, 56600, Note_off_c, 0, 76, 44
1, 56603, Control_c, 0, 64, 125
1, 56611, Note_on_c, 0, 91, 67
1, 56619, Control_c, 0, 64, 127
1, 56646, Note_off_c, 0, 91, 60
1, 56656, Note_on_c, 0, 88, 70
1, 56675, Note_on_c, 0, 72, 55
1, 56680, Note_off_c, 0, 88, 69
1, 56682, Note_on_c, 0, 79, 50
1, 56686, Note_on_c, 0, 76, 51
1, 56695, Note_off_c, 0, 72, 62
1, 56703, Note_off_c, 0, 79, 61
1, 56706, Note_off_c, 0, 76, 57
1, 56733, Note_on_c, 0, 86, 70
1, 56757, Note_off_c, 0, 86, 66
1, 56779, Note_on_c, 0, 72, 64
1, 56784, Note_on_c, 0, 76, 56
1, 56787, Note_on_c, 0, 79, 60
1, 56801, Note_on_c, 0, 84, 79
1, 56810, Note_off_c, 0, 76, 66
1, 56812, Note_off_c, 0, 79, 64
1, 56814, Note_off_c, 0, 72, 62
1, 56831, Note_off_c, 0, 84, 63
1, 56852, Note_on_c, 0, 88, 75
1, 56889, Note_on_c, 0, 76, 61
1, 56892, Note_on_c, 0, 96, 75
1, 56894, Note_on_c, 0, 79, 59
1, 56901, Note_on_c, 0, 72, 49
1, 56906, Note_off_c, 0, 76, 68
1, 56912, Note_off_c, 0, 79, 63
1, 56919, Note_off_c, 0, 72, 60
1, 56920, Note_off_c, 0, 96, 61
1, 56968, Note_off_c, 0, 88, 63
1, 56972, Note_on_c, 0, 86, 61
1, 56973, Note_on_c, 0, 84, 81
1, 56978, Note_on_c, 0, 76, 75
1, 56983, Note_on_c, 0, 79, 78
1, 56993, Note_on_c, 0, 72, 69
1, 56993, Note_off_c, 0, 86, 64
1, 57015, Note_off_c, 0, 79, 59
1, 57019, Note_off_c, 0, 72, 69
1, 57022, Note_off_c, 0, 76, 68
1, 57026, Control_c, 0, 64, 106
1, 57041, Control_c, 0, 64, 83
1, 57052, Note_on_c, 0, 83, 37
1, 57056, Control_c, 0, 64, 36
1, 57062, Note_off_c, 0, 84, 68
1, 57070, Note_on_c, 0, 77, 94
1, 57070, Note_on_c, 0, 81, 99
1, 57071, Control_c, 0, 64, 0
1, 57079, Note_on_c, 0, 72, 80
1, 57082, Note_off_c, 0, 83, 39
1, 57130, Control_c, 0, 64, 59
1, 57136, Note_on_c, 0, 84, 83
1, 57145, Control_c, 0, 64, 76
1, 57160, Control_c, 0, 64, 91
1, 57174, Control_c, 0, 64, 105
1, 57189, Control_c, 0, 64, 113
1, 57195, Note_off_c, 0, 84, 62
1, 57199, Note_on_c, 0, 93, 58
1, 57204, Control_c, 0, 64, 118
1, 57219, Control_c, 0, 64, 121
1, 57223, Note_on_c, 0, 89, 67
1, 57226, Note_off_c, 0, 93, 63
1, 57234, Control_c, 0, 64, 122
1, 57264, Control_c, 0, 64, 123
1, 57275, Note_off_c, 0, 89, 61
1, 57279, Control_c, 0, 64, 125
1, 57294, Note_on_c, 0, 84, 72
1, 57294, Control_c, 0, 64, 127
1, 57311, Note_off_c, 0, 72, 63
1, 57314, Note_off_c, 0, 81, 58
1, 57344, Note_off_c, 0, 84, 62
1, 57351, Note_off_c, 0, 77, 59
1, 57360, Note_on_c, 0, 86, 52
1, 57367, Control_c, 0, 64, 118
1, 57382, Note_off_c, 0, 86, 59
1, 57382, Control_c, 0, 64, 101
1, 57397, Control_c, 0, 64, 83
1, 57412, Control_c, 0, 64, 62
1, 57428, Control_c, 0, 64, 0
1, 57437, Note_on_c, 0, 88, 67
1, 57438, Note_on_c, 0, 72, 52
1, 57440, Note_on_c, 0, 76, 46
1, 57442, Note_on_c, 0, 79, 47
1, 57459, Note_off_c, 0, 72, 59
1, 57462, Note_off_c, 0, 76, 59
1, 57464, Note_off_c, 0, 88, 66
1, 57465, Note_off_c, 0, 79, 51
1, 57472, Control_c, 0, 64, 53
1, 57487, Control_c, 0, 64, 70
1, 57500, Note_on_c, 0, 91, 57
1, 57502, Control_c, 0, 64, 81
1, 57516, Control_c, 0, 64, 93
1, 57526, Note_on_c, 0, 100, 70
1, 57526, Note_off_c, 0, 91, 57
1, 57531, Control_c, 0, 64, 99
1, 57538, Note_on_c, 0, 76, 64
1, 57543, Note_on_c, 0, 72, 61
1, 57543, Note_on_c, 0, 79, 61
1, 57553, Control_c, 0, 64, 101
1, 57568, Control_c, 0, 64, 102
1, 57572, Note_off_c, 0, 79, 60
1, 57579, Note_off_c, 0, 72, 59
1, 57580, Note_off_c, 0, 76, 61
1, 57583, Control_c, 0, 64, 103
1, 57587, Note_off_c, 0, 100, 63
1, 57601, Note_on_c, 0, 91, 69
1, 57613, Control_c, 0, 64, 103
1, 57626, Note_off_c, 0, 91, 65
1, 57643, Note_on_c, 0, 88, 70
1, 57653, Note_on_c, 0, 79, 70
1, 57664, Note_on_c, 0, 72, 62
1, 57669, Note_off_c, 0, 88, 59
1, 57672, Note_on_c, 0, 76, 59
1, 57681, Note_off_c, 0, 79, 62
1, 57684, Note_off_c, 0, 72, 63
1, 57691, Note_off_c, 0, 76, 66
1, 57711, Note_on_c, 0, 86, 67
1, 57734, Note_off_c, 0, 86, 65
1, 57762, Note_on_c, 0, 76, 71
1, 57765, Note_on_c, 0, 72, 62
1, 57767, Note_on_c, 0, 79, 64
1, 57771, Note_on_c, 0, 84, 85
1, 57783, Note_off_c, 0, 72, 66
1, 57785, Note_off_c, 0, 79, 65
1, 57785, Note_off_c, 0, 76, 71
1, 57818, Note_off_c, 0, 84, 62
1, 57827, Note_on_c, 0, 88, 79
1, 57854, Note_on_c, 0, 72, 74
1, 57854, Note_on_c, 0, 79, 76
1, 57863, Note_on_c, 0, 76, 62
1, 57864, Note_on_c, 0, 96, 70
1, 57879, Note_off_c, 0, 72, 67
1, 57879, Note_off_c, 0, 79, 64
1, 57883, Note_off_c, 0, 76, 69
1, 57890, Note_off_c, 0, 96, 64
1, 57933, Note_on_c, 0, 86, 77
1, 57933, Note_off_c, 0, 88, 63
1, 57944, Note_on_c, 0, 76, 79
1, 57944, Note_on_c, 0, 79, 83
1, 57951, Note_on_c, 0, 84, 67
1, 57956, Note_on_c, 0, 72, 68
1, 57990, Note_off_c, 0, 84, 0
1, 57990, Note_on_c, 0, 84, 46
1, 57991, Note_off_c, 0, 72, 58
1, 57995, Note_off_c, 0, 79, 62
1, 57998, Control_c, 0, 64, 103
1, 58002, Note_off_c, 0, 76, 67
1, 58013, Control_c, 0, 64, 90
1, 58015, Note_on_c, 0, 83, 55
1, 58016, Note_off_c, 0, 83, 127
1, 58017, Note_off_c, 0, 86, 62
1, 58028, Control_c, 0, 64, 69
1, 58042, Note_on_c, 0, 72, 80
1, 58042, Note_on_c, 0, 81, 103
1, 58043, Control_c, 0, 64, 0
1, 58044, Note_on_c, 0, 77, 97
1, 58044, Note_on_c, 0, 85, 32
1, 58045, Note_off_c, 0, 85, 127
1, 58045, Note_off_c, 0, 84, 66
1, 58087, Control_c, 0, 64, 29
1, 58102, Control_c, 0, 64, 73
1, 58109, Note_on_c, 0, 86, 70
1, 58116, Note_on_c, 0, 84, 65
1, 58117, Control_c, 0, 64, 90
1, 58131, Control_c, 0, 64, 112
1, 58146, Control_c, 0, 64, 125
1, 58152, Note_off_c, 0, 84, 52
1, 58157, Note_on_c, 0, 95, 73
1, 58161, Note_off_c, 0, 86, 61
1, 58161, Control_c, 0, 64, 127
1, 58193, Note_off_c, 0, 95, 58
1, 58204, Note_on_c, 0, 89, 55
1, 58233, Note_off_c, 0, 89, 57
1, 58251, Note_on_c, 0, 84, 71
1, 58287, Note_off_c, 0, 72, 60
1, 58287, Note_off_c, 0, 81, 54
1, 58310, Note_off_c, 0, 84, 65
1, 58314, Note_on_c, 0, 86, 68
1, 58318, Control_c, 0, 64, 117
1, 58320, Note_off_c, 0, 77, 60
1, 58333, Control_c, 0, 64, 94
1, 58337, Note_off_c, 0, 86, 69
1, 58347, Control_c, 0, 64, 74
1, 58362, Control_c, 0, 64, 0
1, 58382, Note_on_c, 0, 79, 82
1, 58385, Note_on_c, 0, 76, 72
1, 58395, Note_on_c, 0, 72, 58
1, 58397, Note_on_c, 0, 88, 80
1, 58402, Note_off_c, 0, 79, 67
1, 58408, Note_off_c, 0, 76, 69
1, 58412, Note_off_c, 0, 72, 66
1, 58421, Control_c, 0, 64, 62
1, 58425, Note_off_c, 0, 88, 60
1, 58436, Control_c, 0, 64, 75
1, 58451, Control_c, 0, 64, 88
1, 58455, Note_on_c, 0, 91, 63
1, 58466, Control_c, 0, 64, 100
1, 58474, Note_on_c, 0, 100, 83
1, 58480, Note_off_c, 0, 91, 65
1, 58480, Control_c, 0, 64, 105
1, 58495, Control_c, 0, 64, 109
1, 58497, Note_on_c, 0, 72, 45
1, 58507, Note_on_c, 0, 79, 38
1, 58509, Note_on_c, 0, 76, 48
1, 58510, Control_c, 0, 64, 113
1, 58514, Note_on_c, 0, 77, 32
1, 58516, Note_off_c, 0, 72, 61
1, 58525, Control_c, 0, 64, 123
1, 58531, Note_off_c, 0, 76, 59
1, 58537, Note_off_c, 0, 79, 46
1, 58539, Note_off_c, 0, 77, 48
1, 58540, Control_c, 0, 64, 127
1, 58542, Note_off_c, 0, 100, 63
1, 58548, Note_on_c, 0, 91, 68
1, 58575, Note_off_c, 0, 91, 62
1, 58581, Note_on_c, 0, 88, 84
1, 58593, Note_on_c, 0, 79, 75
1, 58596, Note_on_c, 0, 72, 62
1, 58602, Note_on_c, 0, 76, 60
1, 58622, Note_off_c, 0, 79, 62
1, 58629, Control_c, 0, 64, 103
1, 58631, Note_off_c, 0, 72, 60
1, 58636, Note_off_c, 0, 88, 61
1, 58644, Control_c, 0, 64, 81
1, 58644, Note_on_c, 0, 91, 77
1, 58645, Note_off_c, 0, 76, 61
1, 58659, Control_c, 0, 64, 53
1, 58665, Note_off_c, 0, 91, 67
1, 58673, Control_c, 0, 64, 0
1, 58702, Note_on_c, 0, 80, 88
1, 58703, Note_on_c, 0, 77, 62
1, 58712, Note_on_c, 0, 72, 60
1, 58716, Note_on_c, 0, 89, 90
1, 58718, Control_c, 0, 64, 65
1, 58732, Note_off_c, 0, 80, 54
1, 58733, Note_off_c, 0, 72, 62
1, 58733, Control_c, 0, 64, 82
1, 58744, Note_off_c, 0, 77, 55
1, 58747, Control_c, 0, 64, 103
1, 58760, Note_on_c, 0, 92, 78
1, 58762, Control_c, 0, 64, 127
1, 58765, Note_off_c, 0, 89, 66
1, 58809, Note_on_c, 0, 80, 78
1, 58815, Note_on_c, 0, 101, 83
1, 58815, Note_off_c, 0, 92, 61
1, 58817, Note_on_c, 0, 72, 66
1, 58826, Note_on_c, 0, 77, 48
1, 58841, Note_off_c, 0, 80, 58
1, 58844, Note_off_c, 0, 72, 66
1, 58853, Note_off_c, 0, 77, 54
1, 58869, Note_off_c, 0, 101, 63
1, 58881, Note_on_c, 0, 92, 71
1, 58914, Note_on_c, 0, 72, 63
1, 58922, Note_on_c, 0, 80, 63
1, 58929, Note_on_c, 0, 89, 80
1, 58932, Note_off_c, 0, 92, 66
1, 58939, Control_c, 0, 64, 116
1, 58942, Note_off_c, 0, 80, 60
1, 58948, Note_off_c, 0, 72, 63
1, 58954, Control_c, 0, 64, 83
1, 58969, Control_c, 0, 64, 54
1, 58981, Note_off_c, 0, 89, 65
1, 58981, Note_on_c, 0, 92, 78
1, 58984, Control_c, 0, 64, 0
1, 59028, Note_on_c, 0, 81, 80
1, 59029, Control_c, 0, 64, 60
1, 59034, Note_on_c, 0, 72, 65
1, 59052, Control_c, 0, 64, 75
1, 59056, Note_off_c, 0, 92, 66
1, 59061, Note_off_c, 0, 81, 61
1, 59067, Control_c, 0, 64, 92
1, 59073, Note_on_c, 0, 90, 82
1, 59076, Note_off_c, 0, 72, 62
1, 59082, Control_c, 0, 64, 107
1, 59097, Control_c, 0, 64, 119
1, 59111, Control_c, 0, 64, 127
1, 59125, Note_on_c, 0, 93, 85
1, 59131, Note_off_c, 0, 90, 63
1, 59151, Note_on_c, 0, 81, 72
1, 59159, Note_on_c, 0, 72, 55
1, 59170, Note_off_c, 0, 93, 62
1, 59176, Note_off_c, 0, 81, 66
1, 59177, Note_off_c, 0, 72, 63
1, 59178, Note_on_c, 0, 102, 69
1, 59248, Note_on_c, 0, 93, 67
1, 59267, Note_on_c, 0, 72, 68
1, 59270, Note_off_c, 0, 102, 62
1, 59279, Note_on_c, 0, 81, 74
1, 59303, Note_off_c, 0, 93, 64
1, 59306, Note_off_c, 0, 81, 61
1, 59308, Note_on_c, 0, 90, 77
1, 59314, Note_off_c, 0, 72, 64
1, 59318, Control_c, 0, 64, 93
1, 59333, Control_c, 0, 64, 70
1, 59347, Control_c, 0, 64, 0
1, 59375, Note_on_c, 0, 93, 69
1, 59377, Control_c, 0, 64, 55
1, 59383, Note_off_c, 0, 90, 64
1, 59392, Control_c, 0, 64, 68
1, 59398, Note_off_c, 0, 93, 68
1, 59407, Control_c, 0, 64, 79
1, 59421, Control_c, 0, 64, 94
1, 59422, Note_on_c, 0, 82, 91
1, 59431, Note_on_c, 0, 73, 73
1, 59436, Control_c, 0, 64, 111
1, 59451, Control_c, 0, 64, 127
1, 59468, Note_off_c, 0, 73, 49
1, 59470, Note_off_c, 0, 82, 61
1, 59505, Note_on_c, 0, 94, 75
1, 59567, Note_on_c, 0, 90, 87
1, 59577, Note_off_c, 0, 94, 64
1, 59599, Control_c, 0, 64, 104
1, 59614, Control_c, 0, 64, 82
1, 59619, Note_on_c, 0, 74, 86
1, 59619, Note_on_c, 0, 102, 92
1, 59620, Note_on_c, 0, 83, 94
1, 59628, Control_c, 0, 64, 57
1, 59635, Note_off_c, 0, 90, 63
1, 59643, Control_c, 0, 64, 0
1, 59658, Control_c, 0, 64, 47
1, 59665, Note_off_c, 0, 83, 59
1, 59673, Control_c, 0, 64, 67
1, 59677, Note_on_c, 0, 95, 73
1, 59688, Note_off_c, 0, 74, 66
1, 59688, Control_c, 0, 64, 82
1, 59702, Control_c, 0, 64, 109
1, 59717, Control_c, 0, 64, 127
1, 59726, Note_off_c, 0, 102, 65
1, 59738, Note_on_c, 0, 90, 86
1, 59747, Control_c, 0, 64, 115
1, 59756, Note_off_c, 0, 95, 65
1, 59762, Control_c, 0, 64, 91
1, 59765, Poly_aftertouch_c, 0, 79, 127
1, 59777, Control_c, 0, 64, 74
1, 59798, Note_on_c, 0, 84, 99
1, 59799, Control_c, 0, 64, 68
1, 59806, Note_on_c, 0, 75, 79
1, 59807, Note_on_c, 0, 102, 91
1, 59814, Control_c, 0, 64, 72
1, 59830, Control_c, 0, 64, 84
1, 59832, Note_off_c, 0, 90, 61
1, 59844, Note_off_c, 0, 84, 64
1, 59845, Control_c, 0, 64, 99
1, 59848, Note_on_c, 0, 96, 78
1, 59859, Control_c, 0, 64, 116
1, 59863, Note_off_c, 0, 75, 64
1, 59874, Control_c, 0, 64, 127
1, 59900, Note_off_c, 0, 102, 64
1, 59911, Note_on_c, 0, 90, 90
1, 59919, Control_c, 0, 64, 116
1, 59933, Control_c, 0, 64, 91
1, 59935, Poly_aftertouch_c, 0, 79, 0
1, 59948, Control_c, 0, 64, 75
1, 59950, Note_off_c, 0, 96, 56
1, 59963, Control_c, 0, 64, 62
1, 59971, Note_on_c, 0, 102, 94
1, 59978, Note_on_c, 0, 85, 105
1, 59978, Control_c, 0, 64, 55
1, 59983, Note_on_c, 0, 76, 88
1, 59992, Control_c, 0, 64, 64
1, 60000, Note_off_c, 0, 90, 60
1, 60007, Control_c, 0, 64, 72
1, 60010, Note_on_c, 0, 97, 84
1, 60022, Control_c, 0, 64, 89
1, 60033, Note_off_c, 0, 76, 66
1, 60037, Control_c, 0, 64, 109
1, 60038, Note_off_c, 0, 85, 65
1, 60051, Control_c, 0, 64, 122
1, 60065, Note_off_c, 0, 102, 65
1, 60066, Control_c, 0, 64, 123
1, 60081, Note_on_c, 0, 90, 85
1, 60081, Control_c, 0, 64, 122
1, 60086, Note_off_c, 0, 97, 65
1, 60096, Control_c, 0, 64, 120
1, 60111, Control_c, 0, 64, 115
1, 60125, Control_c, 0, 64, 114
1, 60131, Note_on_c, 0, 102, 85
1, 60135, Note_on_c, 0, 86, 102
1, 60137, Note_on_c, 0, 77, 99
1, 60169, Note_off_c, 0, 86, 71
1, 60172, Note_on_c, 0, 98, 84
1, 60173, Note_off_c, 0, 77, 66
1, 60177, Note_off_c, 0, 90, 62
1, 60231, Note_off_c, 0, 102, 64
1, 60248, Note_on_c, 0, 90, 84
1, 60259, Note_off_c, 0, 98, 65
1, 60259, Control_c, 0, 64, 115
1, 60274, Control_c, 0, 64, 117
1, 60289, Control_c, 0, 64, 124
1, 60304, Control_c, 0, 64, 127
1, 60310, Note_on_c, 0, 87, 105
1, 60315, Note_on_c, 0, 78, 89
1, 60317, Note_on_c, 0, 102, 84
1, 60330, Note_on_c, 0, 82, 62
1, 60338, Note_off_c, 0, 90, 63
1, 60338, Note_off_c, 0, 87, 67
1, 60340, Note_on_c, 0, 99, 87
1, 60349, Note_off_c, 0, 82, 66
1, 60352, Note_off_c, 0, 78, 67
1, 60418, Note_on_c, 0, 90, 85
1, 60461, Note_on_c, 0, 84, 27
1, 60474, Note_off_c, 0, 90, 65
1, 60481, Control_c, 0, 64, 108
1, 60484, Note_off_c, 0, 102, 28
1, 60485, Note_off_c, 0, 84, 0
1, 60496, Control_c, 0, 64, 78
1, 60497, Note_off_c, 0, 99, 57
1, 60502, Note_on_c, 0, 84, 47
1, 60507, Note_on_c, 0, 87, 60
1, 60508, Note_on_c, 0, 90, 97
1, 60509, Note_on_c, 0, 81, 88
1, 60511, Control_c, 0, 64, 0
1, 60558, Note_on_c, 0, 82, 43
1, 60574, Note_off_c, 0, 81, 63
1, 60577, Control_c, 0, 64, 66
1, 60585, Note_off_c, 0, 82, 48
1, 60590, Note_on_c, 0, 93, 83
1, 60591, Note_off_c, 0, 90, 63
1, 60592, Control_c, 0, 64, 83
1, 60605, Note_off_c, 0, 84, 64
1, 60607, Control_c, 0, 64, 103
1, 60617, Note_off_c, 0, 87, 64
1, 60623, Control_c, 0, 64, 127
1, 60624, Note_on_c, 0, 96, 71
1, 60638, Note_on_c, 0, 102, 83
1, 60653, Note_off_c, 0, 93, 63
1, 60669, Note_off_c, 0, 96, 63
1, 60695, Note_off_c, 0, 102, 65
1, 60698, Note_on_c, 0, 103, 65
1, 60699, Note_on_c, 0, 101, 76
1, 60737, Note_off_c, 0, 103, 62
1, 60744, Note_on_c, 0, 100, 89
1, 60779, Note_on_c, 0, 99, 105
1, 60800, Note_off_c, 0, 101, 60
1, 60812, Note_on_c, 0, 96, 80
1, 60819, Note_off_c, 0, 100, 66
1, 60843, Note_off_c, 0, 99, 69
1, 60846, Note_on_c, 0, 95, 77
1, 60873, Note_on_c, 0, 94, 90
1, 60877, Note_off_c, 0, 96, 66
1, 60906, Note_off_c, 0, 95, 67
1, 60922, Note_on_c, 0, 93, 58
1, 60933, Note_off_c, 0, 94, 67
1, 60942, Note_off_c, 0, 93, 40
1, 60947, Note_on_c, 0, 96, 86
1, 60992, Note_on_c, 0, 95, 79
1, 61003, Note_off_c, 0, 96, 65
1, 61017, Note_on_c, 0, 94, 84
1, 61047, Note_off_c, 0, 95, 65
1, 61055, Note_on_c, 0, 93, 81
1, 61096, Note_off_c, 0, 94, 66
1, 61108, Note_on_c, 0, 90, 95
1, 61115, Note_off_c, 0, 93, 64
1, 61118, Note_on_c, 0, 89, 95
1, 61148, Note_off_c, 0, 90, 65
1, 61155, Note_on_c, 0, 88, 81
1, 61187, Note_off_c, 0, 89, 67
1, 61187, Note_on_c, 0, 87, 82
1, 61209, Note_off_c, 0, 88, 65
1, 61216, Note_on_c, 0, 90, 82
1, 61230, Note_off_c, 0, 87, 65
1, 61274, Note_off_c, 0, 90, 61
1, 61277, Note_on_c, 0, 89, 74
1, 61303, Note_on_c, 0, 88, 73
1, 61312, Note_on_c, 0, 87, 33
1, 61313, Note_off_c, 0, 87, 127
1, 61329, Note_off_c, 0, 89, 60
1, 61347, Note_on_c, 0, 87, 57
1, 61378, Note_off_c, 0, 88, 64
1, 61403, Note_on_c, 0, 84, 88
1, 61403, Note_off_c, 0, 87, 65
1, 61440, Note_on_c, 0, 83, 70
1, 61458, Note_on_c, 0, 82, 83
1, 61467, Note_off_c, 0, 84, 66
1, 61497, Note_on_c, 0, 81, 74
1, 61502, Note_off_c, 0, 83, 62
1, 61522, Note_off_c, 0, 81, 67
1, 61525, Note_off_c, 0, 82, 64
1, 61537, Note_on_c, 0, 84, 65
1, 61567, Note_on_c, 0, 83, 28
1, 61568, Note_on_c, 0, 82, 68
1, 61574, Note_off_c, 0, 84, 0
1, 61574, Note_on_c, 0, 84, 23
1, 61590, Note_off_c, 0, 84, 57
1, 61599, Note_off_c, 0, 83, 0
1, 61599, Note_on_c, 0, 83, 39
1, 61634, Note_off_c, 0, 83, 61
1, 61658, Note_on_c, 0, 81, 74
1, 61681, Note_off_c, 0, 82, 62
1, 61697, Note_on_c, 0, 78, 74
1, 61708, Note_off_c, 0, 81, 61
1, 61720, Note_on_c, 0, 77, 74
1, 61753, Note_off_c, 0, 78, 59
1, 61759, Note_on_c, 0, 76, 59
1, 61795, Note_off_c, 0, 77, 58
1, 61816, Note_on_c, 0, 75, 45
1, 61818, Note_off_c, 0, 76, 67
1, 61828, Note_on_c, 0, 78, 68
1, 61842, Note_off_c, 0, 75, 60
1, 61890, Note_off_c, 0, 78, 64
1, 61896, Note_on_c, 0, 77, 73
1, 61928, Note_off_c, 0, 77, 58
1, 61930, Note_on_c, 0, 76, 67
1, 61971, Note_on_c, 0, 75, 76
1, 61981, Note_off_c, 0, 76, 66
1, 62008, Note_off_c, 0, 75, 62
1, 62018, Note_on_c, 0, 72, 69
1, 62076, Note_on_c, 0, 71, 55
1, 62104, Note_on_c, 0, 70, 63
1, 62110, Note_off_c, 0, 72, 58
1, 62146, Note_on_c, 0, 69, 63
1, 62157, Note_off_c, 0, 71, 60
1, 62175, Note_off_c, 0, 69, 69
1, 62185, Note_off_c, 0, 70, 61
1, 62200, Note_on_c, 0, 72, 64
1, 62239, Note_off_c, 0, 72, 57
1, 62242, Note_on_c, 0, 71, 56
1, 62296, Note_on_c, 0, 70, 73
1, 62296, Note_off_c, 0, 71, 59
1, 62337, Note_on_c, 0, 69, 62
1, 62364, Note_off_c, 0, 70, 57
1, 62370, Note_off_c, 0, 69, 67
1, 62419, Note_on_c, 0, 66, 64
1, 62453, Note_off_c, 0, 66, 63
1, 62532, Note_on_c, 0, 65, 63
1, 62563, Note_off_c, 0, 65, 65
1, 62567, Control_c, 0, 67, 9
1, 62582, Control_c, 0, 67, 16
1, 62597, Control_c, 0, 67, 23
1, 62612, Control_c, 0, 67, 30
1, 62623, Note_on_c, 0, 64, 66
1, 62626, Control_c, 0, 67, 37
1, 62641, Control_c, 0, 67, 43
1, 62653, Note_off_c, 0, 64, 64
1, 62656, Control_c, 0, 67, 50
1, 62671, Control_c, 0, 67, 57
1, 62686, Control_c, 0, 67, 64
1, 62701, Control_c, 0, 67, 71
1, 62715, Control_c, 0, 67, 79
1, 62730, Control_c, 0, 64, 117
1, 62730, Control_c, 0, 67, 86
1, 62745, Control_c, 0, 64, 104
1, 62745, Control_c, 0, 67, 92
1, 62747, Note_on_c, 0, 63, 56
1, 62760, Control_c, 0, 64, 93
1, 62760, Control_c, 0, 67, 99
1, 62769, Note_off_c, 0, 63, 59
1, 62774, Control_c, 0, 64, 82
1, 62774, Control_c, 0, 67, 104
1, 62796, Control_c, 0, 64, 69
1, 62796, Control_c, 0, 67, 108
1, 62811, Control_c, 0, 64, 44
1, 62811, Control_c, 0, 67, 109
1, 62826, Control_c, 0, 64, 0
1, 62826, Control_c, 0, 67, 110
1, 62844, Note_on_c, 0, 66, 63
1, 62871, Control_c, 0, 67, 109
1, 62883, Note_off_c, 0, 66, 57
1, 62886, Control_c, 0, 67, 109
1, 62901, Control_c, 0, 67, 108
1, 62916, Control_c, 0, 67, 108
1, 62930, Control_c, 0, 67, 107
1, 62945, Control_c, 0, 67, 107
1, 62960, Control_c, 0, 67, 106
1, 62961, Note_on_c, 0, 69, 44
1, 62984, Note_off_c, 0, 69, 57
1, 63035, Control_c, 0, 67, 106
1, 63062, Note_on_c, 0, 63, 56
1, 63083, Note_off_c, 0, 63, 63
1, 63109, Control_c, 0, 67, 105
1, 63145, Note_on_c, 0, 62, 64
1, 63178, Note_off_c, 0, 62, 63
1, 63243, Note_on_c, 0, 61, 62
1, 63271, Control_c, 0, 64, 42
1, 63275, Note_off_c, 0, 61, 63
1, 63286, Control_c, 0, 64, 55
1, 63301, Control_c, 0, 64, 62
1, 63316, Control_c, 0, 64, 65
1, 63331, Control_c, 0, 64, 67
1, 63339, Note_on_c, 0, 60, 63
1, 63345, Control_c, 0, 64, 67
1, 63360, Control_c, 0, 64, 66
1, 63372, Note_off_c, 0, 60, 62
1, 63375, Control_c, 0, 64, 63
1, 63390, Control_c, 0, 64, 58
1, 63404, Control_c, 0, 64, 52
1, 63419, Control_c, 0, 64, 53
1, 63434, Note_on_c, 0, 63, 62
1, 63434, Control_c, 0, 64, 56
1, 63449, Control_c, 0, 64, 60
1, 63464, Control_c, 0, 64, 62
1, 63475, Note_off_c, 0, 63, 58
1, 63479, Control_c, 0, 64, 62
1, 63494, Control_c, 0, 64, 63
1, 63509, Control_c, 0, 64, 64
1, 63509, Control_c, 0, 67, 106
1, 63524, Control_c, 0, 64, 65
1, 63527, Note_on_c, 0, 66, 69
1, 63545, Control_c, 0, 64, 65
1, 63560, Control_c, 0, 67, 106
1, 63569, Note_off_c, 0, 66, 62
1, 63575, Control_c, 0, 64, 65
1, 63590, Control_c, 0, 64, 64
1, 63604, Control_c, 0, 64, 59
1, 63619, Control_c, 0, 64, 47
1, 63634, Control_c, 0, 64, 23
1, 63640, Note_on_c, 0, 60, 60
1, 63649, Control_c, 0, 64, 0
1, 63663, Note_off_c, 0, 60, 63
1, 63694, Control_c, 0, 67, 107
1, 63708, Control_c, 0, 67, 107
1, 63733, Note_on_c, 0, 59, 68
1, 63770, Note_off_c, 0, 59, 56
1, 63822, Note_on_c, 0, 58, 66
1, 63852, Note_off_c, 0, 58, 66
1, 63887, Control_c, 0, 64, 31
1, 63902, Control_c, 0, 64, 61
1, 63917, Control_c, 0, 64, 67
1, 63922, Note_on_c, 0, 57, 62
1, 63932, Control_c, 0, 64, 71
1, 63932, Control_c, 0, 67, 107
1, 63947, Control_c, 0, 64, 76
1, 63956, Note_off_c, 0, 57, 62
1, 63961, Control_c, 0, 64, 78
1, 63961, Control_c, 0, 67, 106
1, 63991, Control_c, 0, 64, 77
1, 64006, Control_c, 0, 64, 74
1, 64019, Note_on_c, 0, 60, 61
1, 64020, Control_c, 0, 64, 68
1, 64035, Control_c, 0, 64, 56
1, 64050, Control_c, 0, 64, 0
1, 64050, Control_c, 0, 67, 106
1, 64056, Note_off_c, 0, 60, 61
1, 64111, Note_on_c, 0, 63, 63
1, 64124, Control_c, 0, 64, 51
1, 64138, Control_c, 0, 64, 61
1, 64148, Note_off_c, 0, 63, 63
1, 64153, Control_c, 0, 64, 65
1, 64168, Control_c, 0, 64, 68
1, 64183, Control_c, 0, 64, 71
1, 64198, Control_c, 0, 64, 74
1, 64212, Control_c, 0, 64, 75
1, 64216, Note_on_c, 0, 56, 62
1, 64227, Control_c, 0, 64, 74
1, 64227, Control_c, 0, 67, 105
1, 64239, Note_off_c, 0, 56, 59
1, 64242, Control_c, 0, 64, 71
1, 64257, Control_c, 0, 64, 65
1, 64272, Control_c, 0, 64, 53
1, 64294, Control_c, 0, 64, 0
1, 64312, Note_on_c, 0, 60, 58
1, 64324, Control_c, 0, 67, 105
1, 64348, Note_off_c, 0, 60, 61
1, 64383, Control_c, 0, 64, 10
1, 64398, Control_c, 0, 64, 24
1, 64410, Note_on_c, 0, 63, 58
1, 64413, Control_c, 0, 64, 34
1, 64427, Control_c, 0, 64, 40
1, 64442, Control_c, 0, 64, 43
1, 64448, Note_off_c, 0, 63, 64
1, 64457, Control_c, 0, 64, 42
1, 64472, Control_c, 0, 64, 37
1, 64487, Control_c, 0, 64, 10
1, 64501, Note_on_c, 0, 55, 58
1, 64501, Control_c, 0, 64, 0
1, 64537, Note_off_c, 0, 55, 64
1, 64594, Note_on_c, 0, 60, 65
1, 64641, Note_off_c, 0, 60, 54
1, 64665, Control_c, 0, 67, 105
1, 64694, Note_on_c, 0, 63, 57
1, 64710, Control_c, 0, 67, 106
1, 64732, Note_off_c, 0, 63, 65
1, 64791, Note_on_c, 0, 54, 56
1, 64832, Note_off_c, 0, 54, 60
1, 64898, Note_on_c, 0, 60, 53
1, 64946, Note_off_c, 0, 60, 55
1, 65012, Note_on_c, 0, 63, 48
1, 65054, Note_off_c, 0, 63, 54
1, 65073, Control_c, 0, 67, 105
1, 65118, Control_c, 0, 67, 105
1, 65120, Note_on_c, 0, 57, 55
1, 65147, Control_c, 0, 67, 104
1, 65159, Note_off_c, 0, 57, 61
1, 65232, Note_on_c, 0, 60, 47
1, 65260, Note_off_c, 0, 60, 55
1, 65265, Control_c, 0, 64, 13
1, 65280, Control_c, 0, 64, 18
1, 65295, Control_c, 0, 64, 23
1, 65324, Control_c, 0, 67, 104
1, 65329, Note_on_c, 0, 63, 57
1, 65339, Control_c, 0, 67, 103
1, 65354, Control_c, 0, 64, 21
1, 65357, Note_off_c, 0, 63, 59
1, 65384, Control_c, 0, 64, 20
1, 65417, Note_on_c, 0, 62, 60
1, 65444, Control_c, 0, 67, 103
1, 65455, Note_off_c, 0, 62, 61
1, 65488, Control_c, 0, 64, 21
1, 65495, Note_on_c, 0, 58, 64
1, 65503, Control_c, 0, 64, 24
1, 65518, Control_c, 0, 64, 28
1, 65518, Control_c, 0, 67, 103
1, 65525, Note_off_c, 0, 58, 66
1, 65533, Control_c, 0, 64, 32
1, 65548, Control_c, 0, 64, 38
1, 65563, Control_c, 0, 64, 41
1, 65578, Control_c, 0, 64, 41
1, 65606, Note_on_c, 0, 55, 43
1, 65607, Control_c, 0, 64, 40
1, 65622, Control_c, 0, 64, 39
1, 65622, Control_c, 0, 67, 103
1, 65632, Note_off_c, 0, 55, 55
1, 65637, Control_c, 0, 64, 37
1, 65652, Control_c, 0, 64, 36
1, 65666, Control_c, 0, 64, 34
1, 65666, Control_c, 0, 67, 102
1, 65677, Note_on_c, 0, 51, 60
1, 65681, Control_c, 0, 64, 33
1, 65692, Note_on_c, 0, 60, 62
1, 65708, Note_on_c, 0, 67, 52
1, 65712, Note_off_c, 0, 60, 64
1, 65718, Note_off_c, 0, 51, 59
1, 65726, Control_c, 0, 64, 34
1, 65730, Note_off_c, 0, 67, 60
1, 65740, Control_c, 0, 64, 36
1, 65755, Control_c, 0, 64, 36
1, 65766, Note_on_c, 0, 55, 57
1, 65807, Control_c, 0, 64, 36
1, 65822, Control_c, 0, 64, 35
1, 65837, Control_c, 0, 64, 34
1, 65852, Control_c, 0, 64, 34
1, 65853, Note_off_c, 0, 55, 37
1, 65866, Control_c, 0, 64, 32
1, 65866, Control_c, 0, 67, 102
1, 65867, Note_on_c, 0, 57, 65
1, 65881, Control_c, 0, 64, 29
1, 65896, Control_c, 0, 64, 27
1, 65902, Note_off_c, 0, 57, 61
1, 65911, Control_c, 0, 64, 23
1, 65926, Control_c, 0, 64, 13
1, 65940, Control_c, 0, 64, 0
1, 65962, Note_on_c, 0, 58, 73
1, 65988, Note_on_c, 0, 62, 63
1, 65991, Note_off_c, 0, 58, 66
1, 66010, Note_off_c, 0, 62, 64
1, 66043, Control_c, 0, 67, 102
1, 66052, Note_on_c, 0, 55, 73
1, 66072, Note_off_c, 0, 55, 68
1, 66139, Note_on_c, 0, 50, 67
1, 66177, Note_off_c, 0, 50, 64
1, 66205, Control_c, 0, 67, 102
1, 66243, Note_on_c, 0, 46, 74
1, 66266, Control_c, 0, 67, 101
1, 66281, Note_off_c, 0, 46, 62
1, 66325, Control_c, 0, 67, 102
1, 66329, Note_on_c, 0, 55, 71
1, 66365, Note_off_c, 0, 55, 60
1, 66384, Control_c, 0, 67, 102
1, 66424, Note_on_c, 0, 51, 69
1, 66428, Control_c, 0, 67, 103
1, 66458, Note_off_c, 0, 51, 64
1, 66502, Control_c, 0, 67, 103
1, 66517, Control_c, 0, 64, 37
1, 66522, Note_on_c, 0, 50, 70
1, 66540, Control_c, 0, 64, 55
1, 66555, Control_c, 0, 64, 63
1, 66561, Note_off_c, 0, 50, 66
1, 66569, Control_c, 0, 64, 67
1, 66584, Control_c, 0, 64, 73
1, 66599, Control_c, 0, 64, 81
1, 66611, Note_on_c, 0, 49, 70
1, 66613, Control_c, 0, 64, 88
1, 66628, Control_c, 0, 64, 91
1, 66643, Control_c, 0, 64, 91
1, 66643, Control_c, 0, 67, 103
1, 66653, Note_off_c, 0, 49, 58
1, 66673, Control_c, 0, 67, 102
1, 66687, Control_c, 0, 67, 102
1, 66705, Note_on_c, 0, 50, 59
1, 66717, Control_c, 0, 67, 101
1, 66732, Control_c, 0, 64, 91
1, 66732, Control_c, 0, 67, 101
1, 66746, Control_c, 0, 64, 87
1, 66758, Note_off_c, 0, 50, 58
1, 66761, Control_c, 0, 64, 78
1, 66761, Control_c, 0, 67, 100
1, 66776, Control_c, 0, 64, 64
1, 66791, Control_c, 0, 64, 0
1, 66791, Control_c, 0, 67, 100
1, 66794, Note_on_c, 0, 51, 74
1, 66803, Note_on_c, 0, 55, 67
1, 66809, Note_on_c, 0, 60, 67
1, 66829, Note_off_c, 0, 55, 67
1, 66832, Note_off_c, 0, 51, 62
1, 66835, Control_c, 0, 67, 99
1, 66836, Note_off_c, 0, 60, 65
1, 66850, Control_c, 0, 67, 100
1, 66880, Control_c, 0, 64, 29
1, 66880, Note_on_c, 0, 53, 74
1, 66895, Control_c, 0, 64, 57
1, 66895, Control_c, 0, 67, 100
1, 66910, Control_c, 0, 64, 65
1, 66925, Control_c, 0, 64, 68
1, 66939, Control_c, 0, 64, 73
1, 66939, Control_c, 0, 67, 101
1, 66954, Control_c, 0, 64, 78
1, 66965, Note_off_c, 0, 53, 58
1, 66969, Control_c, 0, 64, 82
1, 66969, Control_c, 0, 67, 101
1, 66979, Note_on_c, 0, 51, 66
1, 66984, Control_c, 0, 64, 84
1, 66984, Control_c, 0, 67, 102
1, 66999, Control_c, 0, 67, 102
1, 67014, Control_c, 0, 67, 103
1, 67029, Control_c, 0, 64, 83
1, 67029, Control_c, 0, 67, 103
1, 67044, Control_c, 0, 64, 80
1, 67059, Control_c, 0, 64, 72
1, 67074, Control_c, 0, 64, 51
1, 67076, Note_on_c, 0, 54, 73
1, 67080, Note_on_c, 0, 57, 69
1, 67086, Note_on_c, 0, 50, 57
1, 67089, Control_c, 0, 64, 0
1, 67092, Note_off_c, 0, 51, 58
1, 67095, Note_off_c, 0, 54, 65
1, 67105, Note_off_c, 0, 57, 65
1, 67118, Control_c, 0, 67, 104
1, 67121, Note_off_c, 0, 50, 61
1, 67133, Control_c, 0, 67, 104
1, 67148, Control_c, 0, 67, 105
1, 67163, Control_c, 0, 64, 43
1, 67163, Control_c, 0, 67, 105
1, 67169, Note_on_c, 0, 49, 60
1, 67178, Control_c, 0, 64, 58
1, 67192, Control_c, 0, 64, 62
1, 67207, Control_c, 0, 64, 64
1, 67220, Note_off_c, 0, 49, 62
1, 67222, Control_c, 0, 64, 65
1, 67222, Control_c, 0, 67, 105
1, 67236, Control_c, 0, 64, 67
1, 67236, Control_c, 0, 67, 104
1, 67240, Note_on_c, 0, 50, 62
1, 67251, Control_c, 0, 64, 69
1, 67266, Control_c, 0, 64, 70
1, 67289, Control_c, 0, 64, 71
1, 67289, Control_c, 0, 67, 104
1, 67303, Control_c, 0, 64, 69
1, 67303, Control_c, 0, 67, 103
1, 67318, Control_c, 0, 64, 65
1, 67327, Note_off_c, 0, 50, 61
1, 67333, Control_c, 0, 64, 42
1, 67333, Control_c, 0, 67, 103
1, 67348, Control_c, 0, 64, 0
1, 67348, Control_c, 0, 67, 102
1, 67350, Note_on_c, 0, 54, 71
1, 67362, Control_c, 0, 67, 102
1, 67377, Control_c, 0, 67, 101
1, 67393, Note_off_c, 0, 54, 56
1, 67422, Control_c, 0, 67, 102
1, 67429, Note_on_c, 0, 57, 70
1, 67457, Note_off_c, 0, 57, 67
1, 67466, Control_c, 0, 67, 102
1, 67481, Control_c, 0, 64, 39
1, 67496, Control_c, 0, 64, 53
1, 67510, Control_c, 0, 64, 58
1, 67525, Control_c, 0, 64, 60
1, 67533, Note_on_c, 0, 61, 66
1, 67541, Control_c, 0, 64, 59
1, 67556, Control_c, 0, 64, 57
1, 67569, Note_off_c, 0, 61, 64
1, 67570, Control_c, 0, 64, 51
1, 67585, Control_c, 0, 64, 0
1, 67600, Control_c, 0, 67, 102
1, 67605, Note_on_c, 0, 62, 79
1, 67630, Control_c, 0, 67, 101
1, 67652, Note_off_c, 0, 62, 61
1, 67674, Control_c, 0, 67, 102
1, 67689, Control_c, 0, 67, 102
1, 67704, Control_c, 0, 67, 103
1, 67748, Control_c, 0, 64, 43
1, 67763, Control_c, 0, 64, 58
1, 67776, Note_on_c, 0, 55, 63
1, 67777, Control_c, 0, 64, 61
1, 67777, Control_c, 0, 67, 102
1, 67792, Control_c, 0, 64, 60
1, 67808, Control_c, 0, 64, 53
1, 67808, Control_c, 0, 67, 102
1, 67811, Note_off_c, 0, 55, 63
1, 67823, Control_c, 0, 64, 0
1, 67855, Note_on_c, 0, 51, 65
1, 67870, Note_on_c, 0, 60, 69
1, 67882, Note_on_c, 0, 67, 58
1, 67898, Note_off_c, 0, 60, 64
1, 67902, Note_off_c, 0, 67, 61
1, 67917, Note_off_c, 0, 51, 61
1, 67947, Note_on_c, 0, 55, 65
1, 67956, Control_c, 0, 64, 35
1, 67971, Control_c, 0, 64, 48
1, 67986, Control_c, 0, 64, 54
1, 68001, Control_c, 0, 64, 57
1, 68001, Control_c, 0, 67, 101
1, 68006, Note_off_c, 0, 55, 62
1, 68016, Control_c, 0, 64, 57
1, 68016, Control_c, 0, 67, 101
1, 68034, Note_on_c, 0, 57, 55
1, 68067, Control_c, 0, 64, 57
1, 68082, Control_c, 0, 64, 56
1, 68096, Note_off_c, 0, 57, 49
1, 68097, Control_c, 0, 64, 52
1, 68097, Control_c, 0, 67, 101
1, 68112, Control_c, 0, 64, 30
1, 68126, Note_on_c, 0, 58, 64
1, 68127, Control_c, 0, 64, 0
1, 68138, Note_on_c, 0, 62, 64
1, 68156, Control_c, 0, 67, 101
1, 68161, Note_off_c, 0, 58, 67
1, 68168, Note_off_c, 0, 62, 64
1, 68201, Control_c, 0, 67, 101
1, 68208, Note_on_c, 0, 55, 72
1, 68237, Note_off_c, 0, 55, 68
1, 68245, Control_c, 0, 67, 102
1, 68295, Note_on_c, 0, 50, 62
1, 68305, Control_c, 0, 64, 23
1, 68320, Control_c, 0, 64, 37
1, 68332, Note_off_c, 0, 50, 63
1, 68334, Control_c, 0, 64, 34
1, 68349, Control_c, 0, 64, 0
1, 68391, Note_on_c, 0, 46, 65
1, 68424, Note_off_c, 0, 46, 63
1, 68482, Control_c, 0, 64, 24
1, 68484, Note_on_c, 0, 55, 60
1, 68497, Control_c, 0, 64, 47
1, 68511, Control_c, 0, 64, 56
1, 68520, Note_off_c, 0, 55, 63
1, 68526, Control_c, 0, 64, 62
1, 68541, Control_c, 0, 64, 64
1, 68556, Control_c, 0, 64, 67
1, 68562, Note_on_c, 0, 51, 70
1, 68571, Control_c, 0, 64, 69
1, 68585, Control_c, 0, 64, 72
1, 68601, Control_c, 0, 64, 72
1, 68609, Note_off_c, 0, 51, 55
1, 68616, Control_c, 0, 64, 71
1, 68616, Control_c, 0, 67, 102
1, 68631, Control_c, 0, 64, 64
1, 68646, Control_c, 0, 64, 0
1, 68676, Control_c, 0, 67, 102
1, 68679, Note_on_c, 0, 50, 61
1, 68702, Note_off_c, 0, 50, 64
1, 68735, Control_c, 0, 64, 61
1, 68735, Control_c, 0, 67, 102
1, 68748, Note_on_c, 0, 49, 62
1, 68750, Control_c, 0, 64, 69
1, 68750, Control_c, 0, 67, 103
1, 68764, Control_c, 0, 64, 77
1, 68787, Control_c, 0, 64, 87
1, 68802, Control_c, 0, 64, 93
1, 68809, Note_off_c, 0, 49, 59
1, 68816, Control_c, 0, 64, 95
1, 68831, Control_c, 0, 64, 96
1, 68837, Note_on_c, 0, 50, 55
1, 68876, Control_c, 0, 64, 96
1, 68890, Control_c, 0, 64, 94
1, 68890, Control_c, 0, 67, 103
1, 68900, Note_off_c, 0, 50, 62
1, 68905, Control_c, 0, 64, 87
1, 68920, Control_c, 0, 64, 68
1, 68925, Note_on_c, 0, 51, 67
1, 68931, Note_on_c, 0, 55, 59
1, 68935, Control_c, 0, 64, 0
1, 68942, Note_on_c, 0, 60, 59
1, 68950, Control_c, 0, 67, 103
1, 68958, Note_off_c, 0, 55, 56
1, 68971, Note_off_c, 0, 51, 59
1, 68979, Control_c, 0, 67, 102
1, 68986, Note_off_c, 0, 60, 59
1, 68994, Control_c, 0, 67, 103
1, 69023, Control_c, 0, 64, 51
1, 69038, Control_c, 0, 64, 63
1, 69040, Note_on_c, 0, 53, 54
1, 69053, Control_c, 0, 64, 67
1, 69068, Control_c, 0, 64, 72
1, 69083, Control_c, 0, 64, 79
1, 69097, Note_off_c, 0, 53, 65
1, 69098, Control_c, 0, 64, 86
1, 69104, Note_on_c, 0, 51, 59
1, 69113, Control_c, 0, 64, 91
1, 69128, Control_c, 0, 64, 93
1, 69142, Control_c, 0, 64, 94
1, 69157, Control_c, 0, 67, 104
1, 69159, Note_off_c, 0, 51, 55
1, 69172, Control_c, 0, 67, 105
1, 69187, Control_c, 0, 64, 92
1, 69187, Control_c, 0, 67, 106
1, 69202, Control_c, 0, 64, 82
1, 69202, Control_c, 0, 67, 107
1, 69216, Control_c, 0, 64, 66
1, 69216, Control_c, 0, 67, 107
1, 69217, Note_on_c, 0, 54, 65
1, 69222, Note_on_c, 0, 50, 64
1, 69226, Note_on_c, 0, 57, 50
1, 69231, Control_c, 0, 64, 0
1, 69254, Note_off_c, 0, 54, 46
1, 69257, Note_off_c, 0, 50, 59
1, 69265, Note_off_c, 0, 57, 61
1, 69290, Control_c, 0, 67, 108
1, 69305, Control_c, 0, 67, 108
1, 69308, Note_on_c, 0, 45, 62
1, 69379, Control_c, 0, 64, 59
1, 69384, Note_off_c, 0, 45, 64
1, 69390, Note_on_c, 0, 42, 63
1, 69394, Control_c, 0, 64, 68
1, 69410, Control_c, 0, 64, 72
1, 69425, Control_c, 0, 64, 77
1, 69429, Note_off_c, 0, 42, 66
1, 69439, Control_c, 0, 64, 79
1, 69454, Control_c, 0, 64, 78
1, 69469, Control_c, 0, 64, 75
1, 69484, Control_c, 0, 64, 63
1, 69499, Control_c, 0, 64, 0
1, 69518, Note_on_c, 0, 38, 63
1, 69556, Note_off_c, 0, 38, 63
1, 69565, Control_c, 0, 67, 109
1, 69610, Control_c, 0, 64, 56
1, 69625, Control_c, 0, 64, 64
1, 69625, Control_c, 0, 67, 108
1, 69631, Note_on_c, 0, 38, 72
1, 69639, Control_c, 0, 64, 66
1, 69654, Control_c, 0, 64, 68
1, 69660, Note_off_c, 0, 38, 64
1, 69669, Control_c, 0, 64, 70
1, 69684, Control_c, 0, 64, 73
1, 69699, Control_c, 0, 64, 76
1, 69713, Control_c, 0, 64, 79
1, 69728, Note_on_c, 0, 38, 73
1, 69728, Control_c, 0, 64, 82
1, 69743, Control_c, 0, 64, 84
1, 69757, Control_c, 0, 64, 85
1, 69757, Control_c, 0, 67, 108
1, 69766, Note_off_c, 0, 38, 62
1, 69787, Control_c, 0, 64, 86
1, 69787, Control_c, 0, 67, 107
1, 69801, Control_c, 0, 64, 87
1, 69816, Control_c, 0, 64, 88
1, 69826, Note_on_c, 0, 38, 57
1, 69831, Control_c, 0, 64, 88
1, 69846, Control_c, 0, 64, 89
1, 69849, Note_off_c, 0, 38, 61
1, 69861, Control_c, 0, 64, 90
1, 69891, Control_c, 0, 64, 90
1, 69891, Control_c, 0, 67, 107
1, 69905, Note_on_c, 0, 38, 61
1, 69920, Control_c, 0, 64, 91
1, 69920, Control_c, 0, 67, 106
1, 69929, Note_off_c, 0, 38, 64
1, 69979, Control_c, 0, 64, 91
1, 69979, Control_c, 0, 67, 106
1, 69987, Note_on_c, 0, 38, 77
1, 69994, Control_c, 0, 64, 92
1, 70009, Control_c, 0, 67, 105
1, 70027, Note_off_c, 0, 38, 64
1, 70053, Control_c, 0, 67, 105
1, 70068, Control_c, 0, 64, 89
1, 70077, Note_on_c, 0, 38, 66
1, 70081, Note_on_c, 0, 58, 68
1, 70083, Control_c, 0, 64, 83
1, 70086, Note_on_c, 0, 54, 66
1, 70098, Control_c, 0, 64, 72
1, 70112, Control_c, 0, 64, 42
1, 70113, Note_off_c, 0, 38, 64
1, 70116, Note_off_c, 0, 54, 63
1, 70117, Note_off_c, 0, 58, 61
1, 70127, Control_c, 0, 64, 0
1, 70127, Control_c, 0, 67, 104
1, 70156, Control_c, 0, 67, 104
1, 70169, Note_on_c, 0, 38, 77
1, 70181, Note_on_c, 0, 58, 53
1, 70185, Note_on_c, 0, 54, 65
1, 70186, Control_c, 0, 64, 51
1, 70202, Control_c, 0, 64, 65
1, 70205, Note_off_c, 0, 38, 67
1, 70206, Note_off_c, 0, 58, 61
1, 70207, Note_off_c, 0, 54, 61
1, 70217, Control_c, 0, 64, 71
1, 70232, Control_c, 0, 64, 76
1, 70232, Control_c, 0, 67, 104
1, 70247, Control_c, 0, 64, 79
1, 70258, Note_on_c, 0, 54, 69
1, 70261, Note_on_c, 0, 38, 78
1, 70261, Control_c, 0, 64, 78
1, 70268, Note_on_c, 0, 58, 70
1, 70284, Control_c, 0, 64, 72
1, 70299, Control_c, 0, 64, 60
1, 70299, Control_c, 0, 67, 105
1, 70300, Note_off_c, 0, 54, 62
1, 70311, Note_off_c, 0, 38, 63
1, 70314, Control_c, 0, 64, 0
1, 70354, Note_off_c, 0, 58, 56
1, 70358, Control_c, 0, 67, 105
1, 70362, Note_on_c, 0, 38, 73
1, 70365, Note_on_c, 0, 51, 76
1, 70373, Control_c, 0, 64, 43
1, 70377, Note_on_c, 0, 55, 68
1, 70387, Control_c, 0, 64, 61
1, 70392, Note_off_c, 0, 51, 66
1, 70401, Note_off_c, 0, 38, 66
1, 70402, Control_c, 0, 64, 65
1, 70405, Note_off_c, 0, 55, 65
1, 70417, Control_c, 0, 64, 67
1, 70432, Control_c, 0, 64, 69
1, 70432, Control_c, 0, 67, 105
1, 70447, Control_c, 0, 64, 71
1, 70447, Control_c, 0, 67, 104
1, 70451, Note_on_c, 0, 38, 70
1, 70461, Control_c, 0, 64, 72
1, 70476, Control_c, 0, 64, 72
1, 70490, Note_off_c, 0, 38, 63
1, 70506, Control_c, 0, 64, 73
1, 70553, Note_on_c, 0, 38, 72
1, 70566, Control_c, 0, 67, 104
1, 70580, Control_c, 0, 64, 71
1, 70580, Control_c, 0, 67, 103
1, 70588, Note_off_c, 0, 38, 65
1, 70595, Control_c, 0, 64, 67
1, 70610, Control_c, 0, 64, 50
1, 70625, Control_c, 0, 64, 0
1, 70647, Note_on_c, 0, 38, 72
1, 70662, Note_on_c, 0, 59, 65
1, 70670, Note_on_c, 0, 55, 59
1, 70684, Control_c, 0, 67, 103
1, 70687, Note_off_c, 0, 38, 66
1, 70690, Note_off_c, 0, 59, 65
1, 70690, Note_off_c, 0, 55, 62
1, 70714, Control_c, 0, 67, 103
1, 70743, Note_on_c, 0, 38, 71
1, 70743, Control_c, 0, 64, 49
1, 70758, Control_c, 0, 64, 62
1, 70773, Control_c, 0, 64, 64
1, 70785, Note_off_c, 0, 38, 63
1, 70788, Control_c, 0, 64, 65
1, 70803, Control_c, 0, 64, 66
1, 70818, Control_c, 0, 64, 67
1, 70833, Control_c, 0, 67, 103
1, 70842, Note_on_c, 0, 38, 67
1, 70848, Control_c, 0, 64, 66
1, 70862, Control_c, 0, 64, 62
1, 70877, Control_c, 0, 64, 42
1, 70882, Note_off_c, 0, 38, 64
1, 70892, Control_c, 0, 64, 0
1, 70936, Note_on_c, 0, 38, 71
1, 70979, Note_off_c, 0, 38, 64
1, 70995, Control_c, 0, 64, 40
1, 71011, Control_c, 0, 64, 60
1, 71033, Control_c, 0, 64, 65
1, 71037, Note_on_c, 0, 38, 69
1, 71048, Control_c, 0, 64, 68
1, 71048, Control_c, 0, 67, 102
1, 71063, Control_c, 0, 64, 70
1, 71078, Control_c, 0, 64, 72
1, 71080, Note_off_c, 0, 38, 65
1, 71092, Control_c, 0, 64, 74
1, 71107, Control_c, 0, 64, 74
1, 71122, Control_c, 0, 64, 75
1, 71136, Note_on_c, 0, 38, 75
1, 71137, Control_c, 0, 64, 76
1, 71167, Control_c, 0, 67, 103
1, 71180, Note_off_c, 0, 38, 62
1, 71197, Control_c, 0, 64, 75
1, 71211, Control_c, 0, 64, 70
1, 71226, Control_c, 0, 64, 62
1, 71237, Note_on_c, 0, 38, 71
1, 71241, Control_c, 0, 64, 0
1, 71246, Note_on_c, 0, 52, 68
1, 71247, Note_on_c, 0, 56, 60
1, 71250, Note_on_c, 0, 60, 65
1, 71275, Note_off_c, 0, 52, 69
1, 71277, Note_off_c, 0, 56, 65
1, 71279, Note_off_c, 0, 38, 66
1, 71280, Note_off_c, 0, 60, 65
1, 71329, Control_c, 0, 67, 103
1, 71330, Note_on_c, 0, 38, 73
1, 71334, Note_on_c, 0, 60, 66
1, 71337, Note_on_c, 0, 52, 72
1, 71344, Control_c, 0, 64, 59
1, 71347, Note_on_c, 0, 56, 59
1, 71356, Note_off_c, 0, 52, 69
1, 71359, Control_c, 0, 64, 66
1, 71368, Note_off_c, 0, 56, 62
1, 71374, Control_c, 0, 64, 70
1, 71376, Note_off_c, 0, 38, 63
1, 71388, Note_off_c, 0, 60, 0
1, 71389, Control_c, 0, 64, 73
1, 71403, Control_c, 0, 64, 75
1, 71403, Control_c, 0, 67, 104
1, 71411, Poly_aftertouch_c, 0, 38, 0
1, 71413, Note_on_c, 0, 52, 88
1, 71418, Control_c, 0, 67, 104
1, 71419, Note_on_c, 0, 38, 68
1, 71420, Note_on_c, 0, 56, 75
1, 71425, Poly_aftertouch_c, 0, 60, 127
1, 71433, Control_c, 0, 64, 73
1, 71447, Note_off_c, 0, 52, 66
1, 71448, Control_c, 0, 64, 65
1, 71455, Note_off_c, 0, 56, 62
1, 71463, Control_c, 0, 64, 0
1, 71463, Control_c, 0, 67, 104
1, 71472, Note_off_c, 0, 38, 62
1, 71474, Poly_aftertouch_c, 0, 60, 0
1, 71492, Control_c, 0, 67, 103
1, 71508, Note_on_c, 0, 53, 97
1, 71510, Note_on_c, 0, 38, 72
1, 71515, Note_on_c, 0, 57, 85
1, 71521, Control_c, 0, 67, 103
1, 71534, Note_off_c, 0, 53, 68
1, 71536, Control_c, 0, 67, 102
1, 71543, Note_off_c, 0, 57, 66
1, 71551, Control_c, 0, 64, 49
1, 71551, Control_c, 0, 67, 102
1, 71560, Note_off_c, 0, 38, 63
1, 71566, Control_c, 0, 64, 64
1, 71566, Control_c, 0, 67, 101
1, 71581, Control_c, 0, 64, 69
1, 71581, Control_c, 0, 67, 100
1, 71596, Control_c, 0, 64, 75
1, 71596, Control_c, 0, 67, 100
1, 71600, Note_on_c, 0, 38, 74
1, 71611, Control_c, 0, 64, 78
1, 71611, Control_c, 0, 67, 99
1, 71626, Control_c, 0, 64, 80
1, 71626, Control_c, 0, 67, 98
1, 71641, Control_c, 0, 67, 98
1, 71655, Note_off_c, 0, 38, 62
1, 71656, Control_c, 0, 67, 96
1, 71670, Control_c, 0, 67, 94
1, 71685, Control_c, 0, 67, 93
1, 71693, Note_on_c, 0, 38, 67
1, 71700, Control_c, 0, 67, 91
1, 71715, Control_c, 0, 64, 79
1, 71715, Control_c, 0, 67, 91
1, 71729, Control_c, 0, 64, 73
1, 71729, Control_c, 0, 67, 90
1, 71742, Note_off_c, 0, 38, 61
1, 71744, Control_c, 0, 64, 56
1, 71744, Control_c, 0, 67, 89
1, 71759, Control_c, 0, 64, 0
1, 71759, Control_c, 0, 67, 87
1, 71781, Control_c, 0, 67, 85
1, 71790, Note_on_c, 0, 38, 79
1, 71790, Note_on_c, 0, 53, 91
1, 71795, Note_on_c, 0, 61, 86
1, 71796, Control_c, 0, 67, 84
1, 71809, Note_off_c, 0, 53, 74
1, 71812, Control_c, 0, 67, 84
1, 71828, Note_off_c, 0, 61, 61
1, 71836, Note_off_c, 0, 38, 63
1, 71856, Control_c, 0, 64, 42
1, 71856, Control_c, 0, 67, 84
1, 71871, Control_c, 0, 64, 63
1, 71871, Control_c, 0, 67, 85
1, 71880, Note_on_c, 0, 38, 75
1, 71886, Control_c, 0, 64, 68
1, 71886, Control_c, 0, 67, 85
1, 71901, Control_c, 0, 64, 73
1, 71915, Control_c, 0, 64, 77
1, 71915, Control_c, 0, 67, 86
1, 71930, Control_c, 0, 64, 79
1, 71930, Control_c, 0, 67, 86
1, 71931, Note_off_c, 0, 38, 62
1, 71945, Control_c, 0, 64, 79
1, 71945, Control_c, 0, 67, 87
1, 71975, Note_on_c, 0, 38, 74
1, 71975, Control_c, 0, 64, 77
1, 71975, Control_c, 0, 67, 88
1, 71989, Control_c, 0, 64, 71
1, 72004, Control_c, 0, 64, 56
1, 72018, Note_off_c, 0, 38, 63
1, 72019, Control_c, 0, 64, 0
1, 72067, Note_on_c, 0, 38, 82
1, 72094, Control_c, 0, 64, 26
1, 72108, Control_c, 0, 64, 59
1, 72117, Note_off_c, 0, 38, 61
1, 72123, Control_c, 0, 64, 66
1, 72123, Control_c, 0, 67, 88
1, 72138, Control_c, 0, 64, 70
1, 72150, Note_on_c, 0, 38, 69
1, 72152, Control_c, 0, 64, 75
1, 72167, Control_c, 0, 64, 80
1, 72182, Control_c, 0, 64, 82
1, 72197, Control_c, 0, 64, 83
1, 72197, Control_c, 0, 67, 89
1, 72206, Note_off_c, 0, 38, 63
1, 72226, Control_c, 0, 64, 83
1, 72246, Note_on_c, 0, 38, 69
1, 72300, Control_c, 0, 64, 81
1, 72301, Note_off_c, 0, 38, 61
1, 72315, Control_c, 0, 64, 74
1, 72330, Control_c, 0, 64, 59
1, 72330, Control_c, 0, 67, 88
1, 72332, Note_on_c, 0, 38, 68
1, 72338, Note_on_c, 0, 54, 85
1, 72341, Note_on_c, 0, 62, 68
1, 72343, Note_on_c, 0, 58, 72
1, 72345, Control_c, 0, 64, 0
1, 72359, Control_c, 0, 67, 88
1, 72367, Note_off_c, 0, 54, 65
1, 72372, Note_off_c, 0, 58, 67
1, 72378, Note_off_c, 0, 62, 60
1, 72388, Note_off_c, 0, 38, 64
1, 72423, Note_on_c, 0, 54, 76
1, 72424, Note_on_c, 0, 38, 75
1, 72424, Note_on_c, 0, 62, 61
1, 72433, Note_on_c, 0, 58, 67
1, 72434, Control_c, 0, 64, 53
1, 72448, Control_c, 0, 64, 65
1, 72448, Control_c, 0, 67, 87
1, 72460, Note_off_c, 0, 54, 60
1, 72462, Note_off_c, 0, 58, 68
1, 72463, Control_c, 0, 64, 70
1, 72478, Control_c, 0, 64, 75
1, 72482, Note_off_c, 0, 38, 62
1, 72493, Control_c, 0, 64, 79
1, 72505, Note_on_c, 0, 54, 77
1, 72508, Control_c, 0, 64, 80
1, 72511, Note_on_c, 0, 38, 68
1, 72530, Control_c, 0, 64, 81
1, 72543, Note_on_c, 0, 58, 65
1, 72559, Control_c, 0, 64, 81
1, 72559, Control_c, 0, 67, 87
1, 72565, Note_off_c, 0, 54, 60
1, 72565, Note_off_c, 0, 58, 63
1, 72573, Note_off_c, 0, 38, 64
1, 72574, Control_c, 0, 64, 77
1, 72575, Note_off_c, 0, 62, 62
1, 72589, Control_c, 0, 64, 67
1, 72589, Control_c, 0, 67, 86
1, 72605, Control_c, 0, 64, 0
1, 72612, Note_on_c, 0, 55, 86
1, 72613, Note_on_c, 0, 38, 76
1, 72618, Note_on_c, 0, 58, 89
1, 72635, Control_c, 0, 67, 86
1, 72642, Note_off_c, 0, 55, 65
1, 72650, Control_c, 0, 67, 85
1, 72656, Note_off_c, 0, 58, 65
1, 72663, Note_off_c, 0, 38, 64
1, 72699, Poly_aftertouch_c, 0, 38, 0
1, 72707, Note_on_c, 0, 38, 77
1, 72709, Control_c, 0, 64, 51
1, 72724, Control_c, 0, 64, 62
1, 72738, Control_c, 0, 64, 64
1, 72753, Control_c, 0, 64, 65
1, 72756, Note_off_c, 0, 38, 62
1, 72768, Control_c, 0, 64, 66
1, 72782, Control_c, 0, 64, 67
1, 72797, Control_c, 0, 64, 68
1, 72800, Note_on_c, 0, 38, 76
1, 72812, Control_c, 0, 67, 86
1, 72827, Control_c, 0, 64, 67
1, 72827, Control_c, 0, 67, 86
1, 72842, Control_c, 0, 64, 65
1, 72847, Note_off_c, 0, 38, 61
1, 72857, Control_c, 0, 64, 55
1, 72857, Control_c, 0, 67, 87
1, 72872, Control_c, 0, 64, 0
1, 72893, Note_on_c, 0, 38, 82
1, 72902, Control_c, 0, 67, 87
1, 72903, Note_on_c, 0, 55, 90
1, 72903, Note_on_c, 0, 63, 87
1, 72916, Control_c, 0, 67, 88
1, 72924, Note_off_c, 0, 55, 72
1, 72940, Note_off_c, 0, 38, 64
1, 72946, Control_c, 0, 67, 89
1, 72949, Note_on_c, 0, 60, 9
1, 72950, Note_off_c, 0, 60, 127
1, 72952, Note_off_c, 0, 63, 63
1, 72976, Control_c, 0, 64, 43
1, 72976, Control_c, 0, 67, 90
1, 72979, Note_on_c, 0, 38, 84
1, 72990, Control_c, 0, 64, 59
1, 73005, Control_c, 0, 64, 62
1, 73035, Control_c, 0, 64, 57
1, 73036, Note_off_c, 0, 38, 64
1, 73049, Control_c, 0, 64, 13
1, 73064, Control_c, 0, 64, 0
1, 73078, Note_on_c, 0, 38, 78
1, 73079, Control_c, 0, 67, 90
1, 73123, Note_off_c, 0, 38, 64
1, 73123, Control_c, 0, 67, 91
1, 73153, Control_c, 0, 67, 90
1, 73161, Note_on_c, 0, 38, 79
1, 73167, Note_on_c, 0, 56, 96
1, 73168, Control_c, 0, 64, 17
1, 73168, Control_c, 0, 67, 90
1, 73170, Note_on_c, 0, 60, 91
1, 73182, Control_c, 0, 64, 56
1, 73190, Note_off_c, 0, 56, 65
1, 73197, Control_c, 0, 64, 62
1, 73197, Control_c, 0, 67, 89
1, 73203, Note_off_c, 0, 60, 63
1, 73212, Control_c, 0, 64, 63
1, 73212, Control_c, 0, 67, 88
1, 73218, Note_off_c, 0, 38, 63
1, 73227, Control_c, 0, 64, 65
1, 73227, Control_c, 0, 67, 88
1, 73242, Control_c, 0, 64, 66
1, 73248, Note_on_c, 0, 38, 76
1, 73256, Control_c, 0, 64, 67
1, 73279, Control_c, 0, 64, 68
1, 73279, Control_c, 0, 67, 87
1, 73294, Control_c, 0, 64, 68
1, 73294, Control_c, 0, 67, 87
1, 73308, Control_c, 0, 67, 86
1, 73312, Note_off_c, 0, 38, 63
1, 73316, Note_on_c, 0, 56, 50
1, 73338, Control_c, 0, 64, 68
1, 73338, Control_c, 0, 67, 86
1, 73352, Note_on_c, 0, 38, 70
1, 73352, Note_off_c, 0, 56, 48
1, 73353, Control_c, 0, 64, 67
1, 73353, Control_c, 0, 67, 85
1, 73368, Control_c, 0, 64, 64
1, 73382, Control_c, 0, 64, 32
1, 73398, Control_c, 0, 64, 0
1, 73398, Control_c, 0, 67, 85
1, 73409, Note_off_c, 0, 38, 62
1, 73447, Note_on_c, 0, 38, 74
1, 73458, Control_c, 0, 67, 85
1, 73468, Note_on_c, 0, 56, 88
1, 73471, Note_on_c, 0, 64, 77
1, 73474, Note_on_c, 0, 59, 77
1, 73487, Control_c, 0, 67, 86
1, 73498, Note_off_c, 0, 56, 62
1, 73498, Note_off_c, 0, 59, 68
1, 73507, Note_off_c, 0, 38, 62
1, 73511, Note_off_c, 0, 64, 61
1, 73531, Control_c, 0, 67, 86
1, 73539, Note_on_c, 0, 38, 82
1, 73545, Note_on_c, 0, 56, 86
1, 73545, Note_on_c, 0, 64, 69
1, 73546, Control_c, 0, 67, 87
1, 73549, Note_on_c, 0, 59, 88
1, 73561, Control_c, 0, 67, 88
1, 73576, Control_c, 0, 67, 89
1, 73589, Note_off_c, 0, 59, 64
1, 73591, Note_off_c, 0, 56, 63
1, 73591, Control_c, 0, 67, 90
1, 73598, Note_off_c, 0, 38, 63
1, 73599, Note_off_c, 0, 64, 62
1, 73605, Control_c, 0, 67, 91
1, 73620, Control_c, 0, 67, 92
1, 73628, Note_on_c, 0, 38, 72
1, 73632, Note_on_c, 0, 56, 84
1, 73632, Note_on_c, 0, 64, 66
1, 73635, Control_c, 0, 64, 47
1, 73635, Control_c, 0, 67, 93
1, 73639, Note_on_c, 0, 59, 79
1, 73650, Control_c, 0, 64, 67
1, 73650, Control_c, 0, 67, 94
1, 73665, Control_c, 0, 64, 77
1, 73671, Note_off_c, 0, 56, 66
1, 73672, Note_off_c, 0, 59, 63
1, 73680, Control_c, 0, 64, 89
1, 73680, Control_c, 0, 67, 93
1, 73682, Note_off_c, 0, 38, 64
1, 73684, Note_off_c, 0, 64, 63
1, 73695, Control_c, 0, 64, 98
1, 73695, Control_c, 0, 67, 91
1, 73709, Control_c, 0, 64, 102
1, 73709, Control_c, 0, 67, 89
1, 73721, Note_on_c, 0, 38, 89
1, 73722, Note_on_c, 0, 57, 100
1, 73724, Control_c, 0, 67, 87
1, 73725, Note_on_c, 0, 60, 92
1, 73739, Control_c, 0, 64, 101
1, 73739, Control_c, 0, 67, 84
1, 73746, Note_off_c, 0, 57, 67
1, 73754, Control_c, 0, 64, 96
1, 73754, Control_c, 0, 67, 81
1, 73756, Note_off_c, 0, 60, 64
1, 73769, Control_c, 0, 64, 84
1, 73769, Control_c, 0, 67, 76
1, 73769, Note_off_c, 0, 38, 63
1, 73784, Control_c, 0, 64, 68
1, 73784, Control_c, 0, 67, 69
1, 73798, Control_c, 0, 64, 0
1, 73798, Control_c, 0, 67, 60
1, 73805, Note_on_c, 0, 38, 87
1, 73813, Control_c, 0, 67, 55
1, 73828, Control_c, 0, 67, 53
1, 73858, Note_off_c, 0, 38, 64
1, 73872, Control_c, 0, 67, 53
1, 73887, Control_c, 0, 67, 54
1, 73901, Note_on_c, 0, 38, 83
1, 73902, Control_c, 0, 67, 55
1, 73917, Control_c, 0, 67, 56
1, 73931, Control_c, 0, 67, 57
1, 73946, Control_c, 0, 67, 58
1, 73956, Note_off_c, 0, 38, 63
1, 73961, Control_c, 0, 67, 60
1, 73976, Control_c, 0, 67, 61
1, 73991, Control_c, 0, 67, 61
1, 73994, Note_on_c, 0, 38, 83
1, 74005, Control_c, 0, 67, 62
1, 74008, Note_on_c, 0, 61, 79
1, 74009, Note_on_c, 0, 65, 77
1, 74010, Note_on_c, 0, 57, 84
1, 74028, Control_c, 0, 67, 63
1, 74037, Note_off_c, 0, 57, 70
1, 74040, Note_off_c, 0, 61, 68
1, 74040, Note_off_c, 0, 65, 71
1, 74043, Control_c, 0, 67, 63
1, 74053, Note_off_c, 0, 38, 63
1, 74073, Control_c, 0, 67, 64
1, 74087, Control_c, 0, 67, 65
1, 74097, Note_on_c, 0, 38, 80
1, 74102, Control_c, 0, 67, 66
1, 74117, Control_c, 0, 67, 66
1, 74145, Note_off_c, 0, 38, 63
1, 74146, Control_c, 0, 67, 65
1, 74176, Control_c, 0, 67, 65
1, 74191, Control_c, 0, 67, 64
1, 74198, Note_on_c, 0, 38, 72
1, 74236, Control_c, 0, 67, 64
1, 74240, Note_off_c, 0, 38, 65
1, 74266, Control_c, 0, 67, 63
1, 74300, Note_on_c, 0, 38, 78
1, 74310, Control_c, 0, 67, 64
1, 74321, Note_on_c, 0, 58, 69
1, 74322, Note_on_c, 0, 62, 70
1, 74337, Note_off_c, 0, 38, 66
1, 74337, Note_off_c, 0, 58, 67
1, 74340, Control_c, 0, 67, 63
1, 74351, Note_off_c, 0, 62, 65
1, 74409, Note_on_c, 0, 38, 69
1, 74438, Note_off_c, 0, 38, 64
1, 74458, Control_c, 0, 67, 64
1, 74488, Control_c, 0, 67, 64
1, 74502, Note_on_c, 0, 38, 68
1, 74532, Control_c, 0, 64, 55
1, 74535, Note_off_c, 0, 38, 63
1, 74547, Control_c, 0, 64, 65
1, 74562, Control_c, 0, 64, 70
1, 74577, Control_c, 0, 64, 75
1, 74592, Control_c, 0, 64, 79
1, 74592, Control_c, 0, 67, 65
1, 74607, Control_c, 0, 64, 79
1, 74607, Control_c, 0, 67, 65
1, 74614, Note_on_c, 0, 39, 64
1, 74618, Note_on_c, 0, 57, 72
1, 74628, Note_on_c, 0, 66, 69
1, 74635, Note_off_c, 0, 57, 65
1, 74639, Note_on_c, 0, 63, 41
1, 74639, Note_off_c, 0, 39, 61
1, 74651, Control_c, 0, 64, 78
1, 74660, Note_off_c, 0, 66, 66
1, 74666, Control_c, 0, 64, 77
1, 74667, Note_off_c, 0, 63, 52
1, 74681, Control_c, 0, 64, 74
1, 74695, Control_c, 0, 64, 70
1, 74695, Control_c, 0, 67, 65
1, 74708, Note_on_c, 0, 39, 80
1, 74710, Control_c, 0, 64, 65
1, 74725, Control_c, 0, 64, 55
1, 74725, Control_c, 0, 67, 64
1, 74735, Note_off_c, 0, 39, 65
1, 74740, Control_c, 0, 64, 35
1, 74754, Control_c, 0, 64, 0
1, 74800, Note_on_c, 0, 39, 76
1, 74847, Note_off_c, 0, 39, 60
1, 74851, Control_c, 0, 67, 64
1, 74866, Control_c, 0, 67, 63
1, 74881, Control_c, 0, 67, 63
1, 74896, Control_c, 0, 67, 62
1, 74903, Note_on_c, 0, 38, 77
1, 74941, Note_off_c, 0, 38, 65
1, 74991, Note_on_c, 0, 38, 74
1, 75024, Note_off_c, 0, 38, 63
1, 75030, Control_c, 0, 67, 62
1, 75077, Note_on_c, 0, 38, 76
1, 75110, Note_off_c, 0, 38, 63
1, 75171, Note_on_c, 0, 36, 80
1, 75174, Note_on_c, 0, 66, 82
1, 75176, Note_on_c, 0, 60, 78
1, 75176, Note_on_c, 0, 69, 77
1, 75191, Note_off_c, 0, 60, 69
1, 75195, Note_off_c, 0, 66, 72
1, 75198, Note_off_c, 0, 69, 71
1, 75206, Note_off_c, 0, 36, 69
1, 75256, Note_on_c, 0, 36, 79
1, 75298, Note_off_c, 0, 36, 62
1, 75346, Note_on_c, 0, 36, 77
1, 75355, Control_c, 0, 67, 61
1, 75386, Note_off_c, 0, 36, 65
1, 75435, Note_on_c, 0, 38, 85
1, 75444, Control_c, 0, 67, 61
1, 75459, Control_c, 0, 67, 61
1, 75476, Note_off_c, 0, 38, 63
1, 75528, Note_on_c, 0, 38, 76
1, 75584, Control_c, 0, 67, 62
1, 75587, Note_off_c, 0, 38, 58
1, 75617, Note_on_c, 0, 38, 60
1, 75659, Control_c, 0, 67, 62
1, 75681, Note_off_c, 0, 38, 62
1, 75689, Control_c, 0, 67, 63
1, 75703, Control_c, 0, 64, 10
1, 75703, Control_c, 0, 67, 63
1, 75718, Control_c, 0, 64, 46
1, 75718, Control_c, 0, 67, 64
1, 75726, Note_on_c, 0, 38, 32
1, 75729, Note_on_c, 0, 39, 85
1, 75733, Control_c, 0, 64, 60
1, 75733, Control_c, 0, 67, 65
1, 75735, Note_on_c, 0, 66, 94
1, 75737, Note_on_c, 0, 72, 86
1, 75748, Control_c, 0, 64, 65
1, 75748, Control_c, 0, 67, 66
1, 75752, Note_off_c, 0, 66, 75
1, 75757, Note_off_c, 0, 38, 58
1, 75758, Note_off_c, 0, 72, 70
1, 75761, Note_off_c, 0, 39, 66
1, 75763, Control_c, 0, 64, 71
1, 75763, Control_c, 0, 67, 65
1, 75777, Control_c, 0, 64, 78
1, 75777, Control_c, 0, 67, 65
1, 75792, Control_c, 0, 64, 82
1, 75808, Control_c, 0, 64, 81
1, 75814, Note_on_c, 0, 39, 85
1, 75823, Control_c, 0, 64, 79
1, 75838, Control_c, 0, 64, 72
1, 75838, Control_c, 0, 67, 64
1, 75847, Note_off_c, 0, 39, 59
1, 75853, Control_c, 0, 64, 62
1, 75853, Control_c, 0, 67, 64
1, 75868, Control_c, 0, 64, 0
1, 75868, Control_c, 0, 67, 63
1, 75882, Control_c, 0, 67, 63
1, 75897, Control_c, 0, 67, 62
1, 75906, Note_on_c, 0, 39, 75
1, 75945, Note_off_c, 0, 39, 62
1, 75956, Control_c, 0, 67, 62
1, 75986, Control_c, 0, 67, 61
1, 76000, Control_c, 0, 67, 61
1, 76001, Note_on_c, 0, 38, 78
1, 76037, Note_off_c, 0, 38, 67
1, 76060, Control_c, 0, 67, 61
1, 76088, Note_on_c, 0, 38, 74
1, 76126, Note_off_c, 0, 38, 66
1, 76133, Control_c, 0, 67, 62
1, 76148, Control_c, 0, 64, 40
1, 76163, Control_c, 0, 64, 52
1, 76178, Note_on_c, 0, 38, 72
1, 76178, Control_c, 0, 64, 56
1, 76193, Control_c, 0, 64, 55
1, 76207, Control_c, 0, 64, 53
1, 76207, Control_c, 0, 67, 62
1, 76218, Note_off_c, 0, 38, 65
1, 76222, Control_c, 0, 64, 49
1, 76237, Control_c, 0, 64, 44
1, 76252, Control_c, 0, 64, 38
1, 76274, Control_c, 0, 64, 32
1, 76289, Note_on_c, 0, 36, 82
1, 76289, Control_c, 0, 64, 20
1, 76289, Control_c, 0, 67, 62
1, 76302, Note_on_c, 0, 78, 76
1, 76303, Note_on_c, 0, 69, 69
1, 76304, Control_c, 0, 64, 0
1, 76311, Note_on_c, 0, 75, 56
1, 76318, Note_off_c, 0, 69, 68
1, 76323, Note_off_c, 0, 36, 65
1, 76330, Note_off_c, 0, 75, 64
1, 76330, Note_off_c, 0, 78, 61
1, 76380, Note_on_c, 0, 36, 73
1, 76393, Control_c, 0, 67, 62
1, 76422, Control_c, 0, 67, 62
1, 76424, Note_off_c, 0, 36, 63
1, 76490, Note_on_c, 0, 36, 54
1, 76513, Note_off_c, 0, 36, 62
1, 76556, Control_c, 0, 67, 62
1, 76561, Note_on_c, 0, 38, 17
1, 76566, Note_on_c, 0, 78, 72
1, 76574, Note_on_c, 0, 81, 55
1, 76578, Note_on_c, 0, 72, 50
1, 76582, Note_off_c, 0, 78, 44
1, 76597, Note_off_c, 0, 81, 54
1, 76601, Note_off_c, 0, 72, 43
1, 76610, Note_off_c, 0, 38, 61
1, 76631, Control_c, 0, 67, 63
1, 76646, Note_on_c, 0, 38, 59
1, 76646, Control_c, 0, 67, 63
1, 76699, Note_off_c, 0, 38, 62
1, 76705, Control_c, 0, 67, 64
1, 76735, Control_c, 0, 67, 64
1, 76745, Note_on_c, 0, 38, 65
1, 76809, Note_off_c, 0, 38, 0
1, 76823, Control_c, 0, 64, 13
1, 76823, Control_c, 0, 67, 65
1, 76834, Note_on_c, 0, 78, 83
1, 76836, Note_on_c, 0, 39, 77
1, 76836, Note_on_c, 0, 84, 82
1, 76838, Control_c, 0, 64, 15
1, 76853, Control_c, 0, 67, 64
1, 76854, Note_off_c, 0, 78, 70
1, 76854, Poly_aftertouch_c, 0, 38, 0
1, 76856, Note_off_c, 0, 84, 72
1, 76868, Control_c, 0, 64, 10
1, 76872, Note_off_c, 0, 39, 64
1, 76883, Control_c, 0, 64, 0
1, 76923, Note_on_c, 0, 39, 77
1, 76927, Control_c, 0, 67, 63
1, 76956, Control_c, 0, 67, 63
1, 76960, Note_off_c, 0, 39, 63
1, 76971, Control_c, 0, 67, 62
1, 77001, Control_c, 0, 67, 62
1, 77038, Control_c, 0, 67, 61
1, 77053, Note_on_c, 0, 39, 20
1, 77064, Note_on_c, 0, 38, 30
1, 77083, Control_c, 0, 67, 61
1, 77093, Note_off_c, 0, 38, 0
1, 77101, Note_off_c, 0, 39, 28
1, 77111, Note_on_c, 0, 38, 45
1, 77135, Note_on_c, 0, 90, 71
1, 77136, Note_on_c, 0, 87, 65
1, 77137, Note_on_c, 0, 81, 66
1, 77151, Note_off_c, 0, 87, 65
1, 77152, Note_off_c, 0, 81, 62
1, 77154, Note_off_c, 0, 38, 65
1, 77158, Note_off_c, 0, 90, 68
1, 77171, Control_c, 0, 67, 61
1, 77186, Control_c, 0, 67, 62
1, 77215, Note_on_c, 0, 38, 71
1, 77257, Note_off_c, 0, 38, 65
1, 77260, Control_c, 0, 67, 62
1, 77310, Note_on_c, 0, 38, 57
1, 77335, Control_c, 0, 67, 63
1, 77338, Note_off_c, 0, 38, 61
1, 77379, Control_c, 0, 67, 63
1, 77400, Note_on_c, 0, 93, 72
1, 77402, Note_on_c, 0, 84, 69
1, 77405, Note_on_c, 0, 39, 66
1, 77408, Note_on_c, 0, 90, 58
1, 77418, Note_off_c, 0, 84, 66
1, 77427, Note_off_c, 0, 90, 61
1, 77427, Note_off_c, 0, 93, 66
1, 77439, Note_off_c, 0, 39, 63
1, 77496, Note_on_c, 0, 39, 65
1, 77528, Note_off_c, 0, 39, 63
1, 77543, Control_c, 0, 67, 64
1, 77573, Control_c, 0, 67, 64
1, 77576, Note_on_c, 0, 39, 60
1, 77603, Note_off_c, 0, 39, 57
1, 77647, Control_c, 0, 67, 64
1, 77662, Note_on_c, 0, 42, 77
1, 77692, Note_off_c, 0, 42, 65
1, 77692, Control_c, 0, 67, 63
1, 77736, Control_c, 0, 67, 63
1, 77749, Note_on_c, 0, 42, 73
1, 77751, Control_c, 0, 67, 62
1, 77783, Note_off_c, 0, 42, 66
1, 77835, Note_on_c, 0, 42, 76
1, 77862, Control_c, 0, 67, 63
1, 77878, Note_off_c, 0, 42, 61
1, 77892, Control_c, 0, 67, 63
1, 77906, Control_c, 0, 67, 63
1, 77921, Control_c, 0, 67, 62
1, 77931, Note_on_c, 0, 45, 89
1, 77936, Control_c, 0, 67, 62
1, 77966, Control_c, 0, 67, 62
1, 77966, Note_off_c, 0, 45, 67
1, 78021, Note_on_c, 0, 45, 77
1, 78024, Control_c, 0, 67, 62
1, 78050, Note_off_c, 0, 45, 67
1, 78100, Note_on_c, 0, 45, 78
1, 78112, Control_c, 0, 67, 62
1, 78137, Note_off_c, 0, 45, 66
1, 78142, Control_c, 0, 67, 63
1, 78157, Control_c, 0, 67, 63
1, 78208, Note_on_c, 0, 46, 78
1, 78232, Control_c, 0, 67, 64
1, 78237, Note_off_c, 0, 46, 62
1, 78276, Control_c, 0, 67, 63
1, 78285, Poly_aftertouch_c, 0, 45, 0
1, 78288, Note_on_c, 0, 46, 82
1, 78322, Note_off_c, 0, 46, 63
1, 78366, Control_c, 0, 67, 63
1, 78383, Note_on_c, 0, 46, 68
1, 78395, Control_c, 0, 67, 62
1, 78426, Note_off_c, 0, 46, 61
1, 78469, Control_c, 0, 67, 62
1, 78480, Note_on_c, 0, 45, 73
1, 78520, Note_off_c, 0, 45, 65
1, 78577, Note_on_c, 0, 45, 76
1, 78610, Note_off_c, 0, 45, 65
1, 78640, Control_c, 0, 67, 62
1, 78661, Note_on_c, 0, 45, 70
1, 78691, Note_off_c, 0, 45, 66
1, 78767, Note_on_c, 0, 42, 75
1, 78798, Note_off_c, 0, 42, 64
1, 78865, Note_on_c, 0, 42, 71
1, 78896, Note_off_c, 0, 42, 64
1, 78905, Control_c, 0, 67, 63
1, 78920, Control_c, 0, 67, 63
1, 78955, Note_on_c, 0, 42, 69
1, 78965, Control_c, 0, 67, 64
1, 78989, Note_off_c, 0, 42, 65
1, 78995, Control_c, 0, 67, 64
1, 79009, Control_c, 0, 67, 64
1, 79039, Control_c, 0, 67, 63
1, 79051, Note_on_c, 0, 39, 71
1, 79054, Control_c, 0, 67, 63
1, 79084, Control_c, 0, 67, 62
1, 79108, Note_off_c, 0, 39, 60
1, 79143, Control_c, 0, 67, 62
1, 79187, Note_on_c, 0, 38, 28
1, 79203, Control_c, 0, 64, 10
1, 79217, Control_c, 0, 64, 34
1, 79227, Note_off_c, 0, 38, 56
1, 79232, Control_c, 0, 64, 43
1, 79247, Control_c, 0, 64, 49
1, 79269, Control_c, 0, 64, 53
1, 79284, Control_c, 0, 64, 59
1, 79284, Control_c, 0, 67, 61
1, 79299, Control_c, 0, 64, 62
1, 79299, Note_on_c, 0, 38, 54
1, 79314, Control_c, 0, 64, 64
1, 79314, Control_c, 0, 67, 61
1, 79328, Control_c, 0, 64, 65
1, 79340, Note_off_c, 0, 38, 64
1, 79343, Control_c, 0, 64, 68
1, 79343, Control_c, 0, 67, 60
1, 79358, Control_c, 0, 64, 70
1, 79373, Control_c, 0, 64, 73
1, 79373, Control_c, 0, 67, 59
1, 79388, Control_c, 0, 64, 75
1, 79403, Control_c, 0, 64, 78
1, 79417, Control_c, 0, 64, 80
1, 79417, Control_c, 0, 67, 60
1, 79422, Note_on_c, 0, 38, 53
1, 79432, Control_c, 0, 64, 81
1, 79447, Control_c, 0, 64, 83
1, 79452, Note_off_c, 0, 38, 55
1, 79462, Control_c, 0, 64, 84
1, 79477, Control_c, 0, 64, 86
1, 79491, Control_c, 0, 64, 88
1, 79491, Control_c, 0, 67, 60
1, 79506, Control_c, 0, 64, 90
1, 79506, Control_c, 0, 67, 61
1, 79521, Control_c, 0, 64, 91
1, 79536, Control_c, 0, 64, 92
1, 79542, Note_on_c, 0, 39, 59
1, 79550, Control_c, 0, 64, 93
1, 79565, Control_c, 0, 64, 93
1, 79573, Note_off_c, 0, 39, 61
1, 79580, Control_c, 0, 64, 94
1, 79580, Control_c, 0, 67, 61
1, 79595, Control_c, 0, 64, 94
1, 79610, Control_c, 0, 67, 62
1, 79639, Control_c, 0, 64, 95
1, 79654, Control_c, 0, 64, 95
1, 79655, Note_on_c, 0, 39, 61
1, 79668, Control_c, 0, 64, 97
1, 79668, Control_c, 0, 67, 62
1, 79683, Control_c, 0, 64, 99
1, 79683, Control_c, 0, 67, 63
1, 79689, Note_off_c, 0, 39, 63
1, 79698, Control_c, 0, 64, 101
1, 79698, Control_c, 0, 67, 63
1, 79728, Control_c, 0, 64, 100
1, 79743, Control_c, 0, 64, 95
1, 79757, Note_on_c, 0, 38, 75
1, 79758, Control_c, 0, 64, 82
1, 79773, Control_c, 0, 64, 63
1, 79788, Control_c, 0, 64, 0
1, 79801, Note_off_c, 0, 38, 64
1, 79803, Control_c, 0, 67, 62
1, 79818, Control_c, 0, 67, 62
1, 79832, Control_c, 0, 67, 61
1, 79847, Control_c, 0, 67, 60
1, 79862, Note_on_c, 0, 90, 69
1, 79862, Control_c, 0, 67, 60
1, 79883, Note_on_c, 0, 38, 62
1, 79907, Note_on_c, 0, 92, 69
1, 79922, Control_c, 0, 67, 60
1, 79922, Note_off_c, 0, 38, 63
1, 79937, Control_c, 0, 67, 61
1, 79941, Note_on_c, 0, 93, 75
1, 79967, Note_on_c, 0, 95, 82
1, 79981, Control_c, 0, 67, 61
1, 79984, Note_off_c, 0, 90, 62
1, 79992, Note_off_c, 0, 93, 64
1, 79993, Note_off_c, 0, 92, 64
1, 79996, Control_c, 0, 67, 62
1, 80005, Note_on_c, 0, 38, 46
1, 80008, Note_off_c, 0, 95, 65
1, 80033, Control_c, 0, 67, 62
1, 80047, Note_off_c, 0, 38, 46
1, 80092, Note_on_c, 0, 93, 64
1, 80092, Control_c, 0, 67, 63
1, 80100, Note_on_c, 0, 37, 61
1, 80115, Note_on_c, 0, 97, 54
1, 80121, Control_c, 0, 64, 61
1, 80121, Control_c, 0, 67, 64
1, 80136, Control_c, 0, 64, 66
1, 80139, Note_off_c, 0, 37, 63
1, 80141, Note_off_c, 0, 97, 54
1, 80151, Control_c, 0, 64, 73
1, 80166, Control_c, 0, 64, 85
1, 80166, Control_c, 0, 67, 63
1, 80181, Control_c, 0, 64, 97
1, 80182, Note_off_c, 0, 93, 60
1, 80196, Control_c, 0, 64, 107
1, 80205, Note_on_c, 0, 90, 63
1, 80211, Control_c, 0, 64, 111
1, 80226, Control_c, 0, 64, 111
1, 80231, Note_on_c, 0, 37, 58
1, 80258, Note_off_c, 0, 90, 58
1, 80264, Note_off_c, 0, 37, 64
1, 80285, Control_c, 0, 64, 112
1, 80294, Note_on_c, 0, 85, 69
1, 80299, Control_c, 0, 67, 63
1, 80314, Control_c, 0, 67, 62
1, 80328, Note_off_c, 0, 85, 56
1, 80329, Note_on_c, 0, 37, 69
1, 80329, Control_c, 0, 64, 110
1, 80344, Control_c, 0, 64, 102
1, 80359, Note_off_c, 0, 37, 66
1, 80359, Control_c, 0, 64, 88
1, 80359, Control_c, 0, 67, 63
1, 80373, Control_c, 0, 64, 72
1, 80373, Control_c, 0, 67, 63
1, 80384, Note_on_c, 0, 90, 75
1, 80388, Control_c, 0, 64, 0
1, 80406, Note_on_c, 0, 86, 54
1, 80413, Note_off_c, 0, 90, 59
1, 80416, Note_on_c, 0, 37, 71
1, 80426, Note_off_c, 0, 86, 62
1, 80445, Note_off_c, 0, 37, 66
1, 80482, Note_on_c, 0, 81, 81
1, 80495, Note_on_c, 0, 37, 72
1, 80513, Note_off_c, 0, 81, 62
1, 80528, Note_off_c, 0, 37, 64
1, 80552, Control_c, 0, 67, 64
1, 80566, Control_c, 0, 67, 63
1, 80567, Note_on_c, 0, 83, 81
1, 80585, Note_on_c, 0, 37, 71
1, 80598, Note_off_c, 0, 83, 53
1, 80622, Note_off_c, 0, 37, 68
1, 80642, Control_c, 0, 67, 62
1, 80671, Control_c, 0, 67, 62
1, 80673, Note_on_c, 0, 82, 68
1, 80689, Note_on_c, 0, 37, 72
1, 80694, Note_on_c, 0, 85, 60
1, 80725, Note_off_c, 0, 37, 66
1, 80730, Control_c, 0, 64, 54
1, 80730, Control_c, 0, 67, 61
1, 80745, Control_c, 0, 64, 64
1, 80745, Control_c, 0, 67, 61
1, 80753, Note_off_c, 0, 85, 58
1, 80768, Control_c, 0, 64, 70
1, 80776, Note_on_c, 0, 81, 40
1, 80783, Control_c, 0, 64, 82
1, 80783, Control_c, 0, 67, 60
1, 80794, Note_off_c, 0, 82, 31
1, 80797, Control_c, 0, 64, 93
1, 80803, Note_on_c, 0, 37, 73
1, 80809, Note_off_c, 0, 81, 51
1, 80812, Control_c, 0, 64, 99
1, 80813, Note_on_c, 0, 78, 74
1, 80827, Control_c, 0, 64, 104
1, 80842, Control_c, 0, 64, 106
1, 80844, Note_off_c, 0, 37, 64
1, 80857, Control_c, 0, 64, 107
1, 80857, Control_c, 0, 67, 60
1, 80871, Control_c, 0, 64, 107
1, 80902, Note_on_c, 0, 37, 76
1, 80916, Note_on_c, 0, 73, 78
1, 80928, Note_off_c, 0, 78, 60
1, 80938, Note_off_c, 0, 37, 66
1, 80938, Note_off_c, 0, 73, 70
1, 80994, Note_on_c, 0, 37, 87
1, 81004, Note_on_c, 0, 69, 83
1, 81004, Control_c, 0, 67, 60
1, 81019, Control_c, 0, 64, 108
1, 81022, Note_off_c, 0, 37, 67
1, 81024, Note_off_c, 0, 69, 72
1, 81034, Control_c, 0, 64, 109
1, 81049, Control_c, 0, 64, 115
1, 81049, Control_c, 0, 67, 61
1, 81063, Control_c, 0, 64, 127
1, 81082, Note_on_c, 0, 37, 79
1, 81084, Note_on_c, 0, 73, 86
1, 81108, Note_off_c, 0, 37, 67
1, 81111, Note_off_c, 0, 73, 64
1, 81123, Control_c, 0, 67, 61
1, 81153, Control_c, 0, 67, 62
1, 81167, Note_on_c, 0, 78, 95
1, 81170, Note_on_c, 0, 37, 88
1, 81203, Note_off_c, 0, 78, 64
1, 81204, Note_off_c, 0, 37, 65
1, 81212, Control_c, 0, 64, 120
1, 81227, Control_c, 0, 64, 98
1, 81227, Control_c, 0, 67, 62
1, 81242, Control_c, 0, 64, 81
1, 81242, Control_c, 0, 67, 63
1, 81248, Note_on_c, 0, 73, 99
1, 81249, Note_on_c, 0, 80, 100
1, 81257, Control_c, 0, 64, 53
1, 81257, Control_c, 0, 67, 62
1, 81259, Note_on_c, 0, 37, 84
1, 81262, Note_off_c, 0, 73, 77
1, 81266, Note_off_c, 0, 80, 73
1, 81271, Control_c, 0, 64, 0
1, 81299, Note_off_c, 0, 37, 62
1, 81315, Control_c, 0, 67, 63
1, 81330, Control_c, 0, 67, 63
1, 81345, Control_c, 0, 67, 63
1, 81360, Control_c, 0, 67, 62
1, 81367, Note_on_c, 0, 37, 73
1, 81398, Note_off_c, 0, 37, 63
1, 81450, Control_c, 0, 67, 62
1, 81460, Note_on_c, 0, 68, 76
1, 81474, Note_on_c, 0, 37, 71
1, 81487, Note_off_c, 0, 68, 65
1, 81489, Note_on_c, 0, 65, 38
1, 81514, Note_off_c, 0, 37, 62
1, 81526, Note_off_c, 0, 65, 34
1, 81552, Note_on_c, 0, 69, 82
1, 81556, Note_on_c, 0, 66, 73
1, 81561, Note_on_c, 0, 37, 80
1, 81561, Note_on_c, 0, 70, 71
1, 81561, Control_c, 0, 67, 62
1, 81572, Note_off_c, 0, 66, 69
1, 81574, Note_off_c, 0, 69, 72
1, 81576, Control_c, 0, 67, 62
1, 81576, Note_off_c, 0, 70, 65
1, 81603, Note_off_c, 0, 37, 60
1, 81606, Control_c, 0, 67, 62
1, 81650, Control_c, 0, 67, 62
1, 81652, Note_on_c, 0, 37, 66
1, 81680, Control_c, 0, 67, 61
1, 81698, Note_off_c, 0, 37, 64
1, 81709, Control_c, 0, 67, 62
1, 81749, Note_on_c, 0, 81, 86
1, 81757, Note_on_c, 0, 73, 80
1, 81764, Note_on_c, 0, 37, 76
1, 81777, Note_off_c, 0, 73, 71
1, 81791, Note_off_c, 0, 81, 62
1, 81798, Note_off_c, 0, 37, 67
1, 81827, Control_c, 0, 67, 62
1, 81838, Note_on_c, 0, 78, 87
1, 81849, Note_on_c, 0, 75, 72
1, 81850, Note_on_c, 0, 37, 78
1, 81855, Note_off_c, 0, 78, 68
1, 81865, Note_off_c, 0, 75, 43
1, 81886, Control_c, 0, 67, 63
1, 81889, Note_off_c, 0, 37, 64
1, 81901, Control_c, 0, 67, 63
1, 81952, Note_on_c, 0, 37, 69
1, 81994, Note_off_c, 0, 37, 66
1, 82020, Control_c, 0, 67, 63
1, 82035, Control_c, 0, 67, 62
1, 82047, Note_on_c, 0, 66, 52
1, 82056, Note_on_c, 0, 63, 38
1, 82057, Note_off_c, 0, 63, 127
1, 82068, Note_off_c, 0, 66, 64
1, 82070, Note_on_c, 0, 37, 65
1, 82101, Note_off_c, 0, 37, 64
1, 82124, Control_c, 0, 67, 62
1, 82134, Note_on_c, 0, 65, 68
1, 82139, Note_on_c, 0, 68, 76
1, 82151, Note_off_c, 0, 65, 69
1, 82155, Note_on_c, 0, 37, 72
1, 82162, Note_off_c, 0, 68, 70
1, 82184, Control_c, 0, 67, 62
1, 82195, Note_off_c, 0, 37, 66
1, 82214, Control_c, 0, 67, 63
1, 82229, Control_c, 0, 67, 63
1, 82262, Note_on_c, 0, 37, 69
1, 82265, Control_c, 0, 67, 64
1, 82303, Note_off_c, 0, 37, 65
1, 82333, Note_on_c, 0, 73, 64
1, 82339, Control_c, 0, 67, 63
1, 82368, Note_on_c, 0, 77, 71
1, 82372, Note_on_c, 0, 37, 63
1, 82384, Control_c, 0, 67, 63
1, 82398, Note_off_c, 0, 73, 64
1, 82409, Note_off_c, 0, 37, 62
1, 82414, Control_c, 0, 67, 62
1, 82417, Note_on_c, 0, 81, 65
1, 82420, Note_off_c, 0, 77, 61
1, 82429, Control_c, 0, 67, 62
1, 82466, Note_on_c, 0, 37, 69
1, 82467, Note_on_c, 0, 85, 78
1, 82473, Control_c, 0, 64, 65
1, 82487, Control_c, 0, 64, 78
1, 82502, Control_c, 0, 64, 93
1, 82503, Note_off_c, 0, 37, 67
1, 82517, Control_c, 0, 64, 107
1, 82532, Control_c, 0, 64, 121
1, 82532, Control_c, 0, 67, 61
1, 82547, Control_c, 0, 64, 127
1, 82547, Control_c, 0, 67, 61
1, 82555, Note_off_c, 0, 85, 64
1, 82558, Note_on_c, 0, 78, 83
1, 82575, Note_off_c, 0, 81, 61
1, 82575, Note_on_c, 0, 37, 70
1, 82603, Note_off_c, 0, 37, 66
1, 82618, Note_off_c, 0, 78, 62
1, 82646, Note_on_c, 0, 73, 88
1, 82666, Note_on_c, 0, 37, 78
1, 82673, Note_off_c, 0, 73, 63
1, 82691, Note_off_c, 0, 37, 66
1, 82724, Control_c, 0, 64, 112
1, 82739, Control_c, 0, 64, 93
1, 82739, Control_c, 0, 67, 61
1, 82747, Note_on_c, 0, 37, 85
1, 82749, Note_on_c, 0, 78, 48
1, 82750, Note_off_c, 0, 78, 127
1, 82752, Note_on_c, 0, 74, 65
1, 82754, Control_c, 0, 64, 73
1, 82764, Note_on_c, 0, 77, 55
1, 82767, Note_off_c, 0, 74, 65
1, 82768, Control_c, 0, 64, 0
1, 82782, Note_off_c, 0, 37, 66
1, 82783, Control_c, 0, 67, 62
1, 82784, Note_off_c, 0, 77, 56
1, 82828, Note_on_c, 0, 69, 81
1, 82839, Note_on_c, 0, 37, 78
1, 82862, Note_off_c, 0, 69, 63
1, 82872, Note_off_c, 0, 37, 62
1, 82911, Note_on_c, 0, 71, 73
1, 82926, Note_on_c, 0, 37, 75
1, 82929, Note_on_c, 0, 69, 47
1, 82932, Note_off_c, 0, 71, 58
1, 82947, Control_c, 0, 67, 61
1, 82950, Note_off_c, 0, 69, 37
1, 82970, Note_off_c, 0, 37, 62
1, 82976, Control_c, 0, 67, 61
1, 83016, Note_on_c, 0, 73, 71
1, 83043, Note_on_c, 0, 37, 71
1, 83043, Note_on_c, 0, 69, 54
1, 83044, Control_c, 0, 64, 17
1, 83044, Control_c, 0, 67, 60
1, 83059, Control_c, 0, 64, 54
1, 83073, Control_c, 0, 64, 63
1, 83073, Control_c, 0, 67, 60
1, 83074, Note_off_c, 0, 73, 61
1, 83084, Note_off_c, 0, 37, 65
1, 83088, Control_c, 0, 64, 70
1, 83103, Control_c, 0, 64, 78
1, 83109, Note_on_c, 0, 70, 33
1, 83117, Control_c, 0, 64, 88
1, 83132, Control_c, 0, 64, 95
1, 83142, Note_off_c, 0, 70, 44
1, 83144, Note_on_c, 0, 66, 75
1, 83146, Note_off_c, 0, 69, 64
1, 83147, Control_c, 0, 64, 101
1, 83159, Note_on_c, 0, 37, 73
1, 83162, Control_c, 0, 64, 105
1, 83162, Control_c, 0, 67, 60
1, 83177, Control_c, 0, 64, 106
1, 83189, Note_off_c, 0, 37, 65
1, 83192, Control_c, 0, 64, 106
1, 83219, Note_off_c, 0, 66, 59
1, 83221, Control_c, 0, 67, 61
1, 83233, Note_on_c, 0, 61, 85
1, 83242, Note_on_c, 0, 37, 82
1, 83251, Control_c, 0, 64, 107
1, 83261, Note_off_c, 0, 61, 64
1, 83281, Control_c, 0, 64, 107
1, 83287, Note_off_c, 0, 37, 61
1, 83296, Control_c, 0, 67, 60
1, 83325, Control_c, 0, 67, 61
1, 83329, Note_on_c, 0, 57, 83
1, 83340, Control_c, 0, 67, 60
1, 83341, Note_on_c, 0, 37, 75
1, 83355, Note_off_c, 0, 57, 65
1, 83355, Control_c, 0, 67, 60
1, 83377, Note_off_c, 0, 37, 65
1, 83384, Control_c, 0, 67, 59
1, 83399, Control_c, 0, 64, 108
1, 83412, Note_on_c, 0, 61, 87
1, 83414, Control_c, 0, 64, 109
1, 83429, Control_c, 0, 64, 111
1, 83430, Note_on_c, 0, 37, 81
1, 83444, Control_c, 0, 64, 113
1, 83457, Note_off_c, 0, 61, 62
1, 83458, Control_c, 0, 64, 116
1, 83458, Control_c, 0, 67, 60
1, 83462, Note_off_c, 0, 37, 67
1, 83473, Control_c, 0, 64, 119
1, 83488, Control_c, 0, 64, 125
1, 83488, Control_c, 0, 67, 60
1, 83494, Note_on_c, 0, 66, 102
1, 83503, Control_c, 0, 64, 127
1, 83503, Control_c, 0, 67, 61
1, 83517, Control_c, 0, 67, 61
1, 83518, Note_on_c, 0, 37, 77
1, 83532, Control_c, 0, 67, 62
1, 83534, Note_off_c, 0, 66, 68
1, 83547, Control_c, 0, 64, 118
1, 83547, Control_c, 0, 67, 62
1, 83557, Note_off_c, 0, 37, 59
1, 83562, Control_c, 0, 64, 101
1, 83562, Control_c, 0, 67, 63
1, 83577, Control_c, 0, 64, 85
1, 83577, Control_c, 0, 67, 64
1, 83578, Note_on_c, 0, 61, 104
1, 83582, Note_on_c, 0, 68, 98
1, 83591, Control_c, 0, 64, 66
1, 83591, Control_c, 0, 67, 65
1, 83596, Note_on_c, 0, 37, 69
1, 83599, Note_off_c, 0, 61, 69
1, 83604, Note_off_c, 0, 68, 65
1, 83606, Control_c, 0, 64, 0
1, 83606, Control_c, 0, 67, 64
1, 83638, Note_off_c, 0, 37, 65
1, 83651, Control_c, 0, 67, 65
1, 83695, Control_c, 0, 67, 64
1, 83710, Control_c, 0, 67, 63
1, 83721, Note_on_c, 0, 37, 66
1, 83740, Control_c, 0, 67, 63
1, 83749, Note_off_c, 0, 37, 66
1, 83762, Control_c, 0, 67, 62
1, 83803, Note_on_c, 0, 56, 76
1, 83822, Control_c, 0, 67, 63
1, 83824, Note_on_c, 0, 37, 77
1, 83829, Note_on_c, 0, 53, 42
1, 83833, Note_off_c, 0, 56, 61
1, 83852, Control_c, 0, 67, 63
1, 83859, Note_off_c, 0, 37, 66
1, 83860, Note_off_c, 0, 53, 34
1, 83889, Note_on_c, 0, 57, 79
1, 83892, Note_on_c, 0, 54, 76
1, 83909, Note_off_c, 0, 54, 67
1, 83910, Note_on_c, 0, 58, 48
1, 83911, Control_c, 0, 67, 63
1, 83912, Note_off_c, 0, 57, 69
1, 83914, Note_on_c, 0, 37, 76
1, 83936, Note_off_c, 0, 58, 37
1, 83953, Note_off_c, 0, 37, 66
1, 83955, Control_c, 0, 67, 63
1, 84000, Control_c, 0, 67, 63
1, 84014, Note_on_c, 0, 37, 72
1, 84053, Note_off_c, 0, 37, 66
1, 84060, Control_c, 0, 67, 63
1, 84105, Note_on_c, 0, 69, 75
1, 84119, Control_c, 0, 67, 64
1, 84121, Note_on_c, 0, 37, 70
1, 84148, Note_on_c, 0, 61, 25
1, 84148, Note_off_c, 0, 69, 60
1, 84154, Note_off_c, 0, 61, 43
1, 84160, Note_off_c, 0, 37, 65
1, 84178, Control_c, 0, 67, 64
1, 84193, Control_c, 0, 67, 65
1, 84196, Note_on_c, 0, 66, 84
1, 84202, Note_on_c, 0, 63, 80
1, 84214, Note_on_c, 0, 37, 68
1, 84221, Note_off_c, 0, 66, 66
1, 84223, Control_c, 0, 67, 65
1, 84224, Note_off_c, 0, 63, 70
1, 84255, Note_off_c, 0, 37, 66
1, 84324, Note_on_c, 0, 37, 66
1, 84327, Control_c, 0, 67, 66
1, 84341, Control_c, 0, 67, 66
1, 84363, Note_off_c, 0, 37, 65
1, 84446, Note_on_c, 0, 37, 64
1, 84446, Note_on_c, 0, 54, 58
1, 84452, Note_on_c, 0, 51, 47
1, 84479, Note_off_c, 0, 51, 50
1, 84483, Note_off_c, 0, 37, 62
1, 84483, Note_off_c, 0, 54, 61
1, 84489, Control_c, 0, 67, 66
1, 84512, Control_c, 0, 67, 65
1, 84569, Note_on_c, 0, 56, 57
1, 84571, Control_c, 0, 67, 65
1, 84579, Note_on_c, 0, 37, 55
1, 84591, Note_on_c, 0, 53, 30
1, 84592, Note_off_c, 0, 53, 52
1, 84605, Note_off_c, 0, 56, 64
1, 84614, Note_off_c, 0, 37, 66
1, 84706, Control_c, 0, 67, 65
1, 84707, Note_on_c, 0, 37, 52
1, 84740, Note_off_c, 0, 37, 65
1, 84793, Control_c, 0, 67, 66
1, 84808, Control_c, 0, 67, 66
1, 84830, Note_on_c, 0, 61, 67
1, 84837, Control_c, 0, 67, 67
1, 84849, Note_on_c, 0, 37, 31
1, 84852, Control_c, 0, 67, 67
1, 84871, Note_off_c, 0, 61, 55
1, 84882, Control_c, 0, 67, 68
1, 84885, Note_off_c, 0, 37, 43
1, 84941, Control_c, 0, 67, 68
1, 84971, Control_c, 0, 67, 69
1, 84975, Note_on_c, 0, 37, 53
1, 84980, Note_on_c, 0, 69, 52
1, 84986, Control_c, 0, 64, 59
1, 84986, Control_c, 0, 67, 70
1, 84989, Note_on_c, 0, 65, 56
1, 85001, Control_c, 0, 64, 68
1, 85001, Control_c, 0, 67, 71
1, 85010, Note_off_c, 0, 69, 54
1, 85015, Note_off_c, 0, 37, 65
1, 85016, Control_c, 0, 64, 77
1, 85016, Control_c, 0, 67, 71
1, 85030, Control_c, 0, 64, 88
1, 85030, Control_c, 0, 67, 70
1, 85045, Control_c, 0, 64, 100
1, 85045, Control_c, 0, 67, 69
1, 85060, Control_c, 0, 64, 112
1, 85060, Control_c, 0, 67, 68
1, 85075, Control_c, 0, 64, 123
1, 85075, Control_c, 0, 67, 67
1, 85089, Control_c, 0, 64, 127
1, 85089, Control_c, 0, 67, 66
1, 85104, Control_c, 0, 67, 66
1, 85119, Control_c, 0, 67, 65
1, 85133, Note_on_c, 0, 53, 54
1, 85136, Note_on_c, 0, 61, 48
1, 85142, Note_off_c, 0, 65, 42
1, 85149, Control_c, 0, 67, 65
1, 85163, Control_c, 0, 67, 64
1, 85179, Note_off_c, 0, 61, 58
1, 85193, Control_c, 0, 67, 64
1, 85204, Note_off_c, 0, 53, 59
1, 85205, Note_on_c, 0, 57, 52
1, 85208, Control_c, 0, 67, 63
1, 85219, Note_on_c, 0, 49, 62
1, 85223, Control_c, 0, 67, 63
1, 85246, Note_off_c, 0, 49, 64
1, 85260, Note_off_c, 0, 57, 59
1, 85317, Note_on_c, 0, 65, 43
1, 85326, Note_on_c, 0, 37, 64
1, 85340, Note_off_c, 0, 65, 57
1, 85349, Control_c, 0, 67, 62
1, 85359, Note_off_c, 0, 37, 48
1, 85363, Control_c, 0, 67, 63
1, 85394, Control_c, 0, 67, 63
1, 85412, Note_on_c, 0, 53, 64
1, 85430, Note_on_c, 0, 69, 64
1, 85483, Control_c, 0, 67, 64
1, 85498, Control_c, 0, 67, 64
1, 85507, Note_off_c, 0, 53, 60
1, 85512, Control_c, 0, 67, 65
1, 85515, Note_on_c, 0, 49, 70
1, 85515, Note_off_c, 0, 69, 63
1, 85527, Control_c, 0, 67, 65
1, 85542, Control_c, 0, 64, 118
1, 85542, Control_c, 0, 67, 66
1, 85557, Note_off_c, 0, 49, 64
1, 85557, Control_c, 0, 64, 83
1, 85557, Control_c, 0, 67, 67
1, 85572, Control_c, 0, 64, 0
1, 85572, Control_c, 0, 67, 68
1, 85586, Control_c, 0, 67, 67
1, 85611, Note_on_c, 0, 37, 75
1, 85616, Control_c, 0, 67, 67
1, 85618, Note_on_c, 0, 74, 64
1, 85622, Note_on_c, 0, 78, 68
1, 85631, Control_c, 0, 64, 61
1, 85631, Control_c, 0, 67, 66
1, 85638, Note_off_c, 0, 37, 69
1, 85646, Control_c, 0, 64, 78
1, 85646, Control_c, 0, 67, 65
1, 85660, Control_c, 0, 64, 108
1, 85660, Control_c, 0, 67, 64
1, 85675, Control_c, 0, 64, 127
1, 85675, Control_c, 0, 67, 63
1, 85690, Control_c, 0, 67, 62
1, 85705, Control_c, 0, 67, 61
1, 85719, Note_off_c, 0, 78, 61
1, 85719, Control_c, 0, 67, 59
1, 85722, Note_on_c, 0, 54, 60
1, 85722, Note_on_c, 0, 69, 68
1, 85733, Note_off_c, 0, 74, 64
1, 85734, Control_c, 0, 67, 55
1, 85749, Note_off_c, 0, 69, 68
1, 85749, Control_c, 0, 67, 52
1, 85764, Control_c, 0, 67, 51
1, 85794, Control_c, 0, 67, 50
1, 85809, Control_c, 0, 67, 50
1, 85811, Note_on_c, 0, 50, 70
1, 85818, Note_off_c, 0, 54, 53
1, 85824, Control_c, 0, 67, 49
1, 85835, Note_off_c, 0, 50, 67
1, 85839, Control_c, 0, 67, 47
1, 85848, Note_on_c, 0, 62, 61
1, 85853, Control_c, 0, 67, 43
1, 85855, Note_on_c, 0, 66, 68
1, 85868, Control_c, 0, 67, 40
1, 85883, Control_c, 0, 67, 37
1, 85885, Note_off_c, 0, 62, 50
1, 85898, Control_c, 0, 67, 35
1, 85902, Note_on_c, 0, 37, 76
1, 85912, Control_c, 0, 67, 34
1, 85927, Control_c, 0, 67, 34
1, 85928, Note_off_c, 0, 66, 61
1, 85937, Note_off_c, 0, 37, 68
1, 85942, Control_c, 0, 67, 33
1, 85946, Note_on_c, 0, 57, 73
1, 85957, Control_c, 0, 67, 32
1, 85972, Control_c, 0, 67, 30
1, 85986, Control_c, 0, 67, 28
1, 86009, Control_c, 0, 67, 27
1, 86021, Note_on_c, 0, 54, 75
1, 86027, Note_on_c, 0, 66, 86
1, 86033, Note_off_c, 0, 57, 63
1, 86074, Note_off_c, 0, 66, 67
1, 86083, Control_c, 0, 67, 27
1, 86095, Note_on_c, 0, 50, 79
1, 86098, Control_c, 0, 67, 28
1, 86107, Note_off_c, 0, 54, 59
1, 86112, Control_c, 0, 67, 28
1, 86123, Note_on_c, 0, 58, 94
1, 86127, Control_c, 0, 67, 29
1, 86128, Note_on_c, 0, 70, 86
1, 86132, Note_off_c, 0, 50, 63
1, 86142, Control_c, 0, 67, 30
1, 86145, Note_off_c, 0, 58, 67
1, 86157, Control_c, 0, 64, 121
1, 86157, Control_c, 0, 67, 31
1, 86158, Note_off_c, 0, 70, 56
1, 86172, Control_c, 0, 64, 88
1, 86172, Control_c, 0, 67, 33
1, 86187, Control_c, 0, 64, 42
1, 86187, Control_c, 0, 67, 34
1, 86202, Control_c, 0, 64, 0
1, 86203, Note_on_c, 0, 37, 74
1, 86217, Control_c, 0, 67, 35
1, 86226, Note_on_c, 0, 71, 79
1, 86229, Note_on_c, 0, 66, 87
1, 86232, Control_c, 0, 67, 34
1, 86238, Note_on_c, 0, 35, 28
1, 86245, Note_off_c, 0, 37, 67
1, 86247, Control_c, 0, 64, 34
1, 86247, Control_c, 0, 67, 34
1, 86256, Note_on_c, 0, 36, 21
1, 86257, Note_off_c, 0, 36, 127
1, 86262, Control_c, 0, 64, 72
1, 86262, Control_c, 0, 67, 32
1, 86277, Control_c, 0, 64, 93
1, 86277, Control_c, 0, 67, 32
1, 86286, Note_off_c, 0, 35, 34
1, 86291, Control_c, 0, 64, 127
1, 86291, Control_c, 0, 67, 30
1, 86306, Control_c, 0, 67, 29
1, 86309, Note_off_c, 0, 71, 56
1, 86310, Poly_aftertouch_c, 0, 36, 0
1, 86314, Note_on_c, 0, 54, 77
1, 86321, Control_c, 0, 67, 28
1, 86335, Note_on_c, 0, 63, 74
1, 86335, Control_c, 0, 67, 26
1, 86350, Control_c, 0, 67, 24
1, 86365, Control_c, 0, 67, 20
1, 86377, Note_off_c, 0, 66, 62
1, 86380, Control_c, 0, 67, 18
1, 86395, Control_c, 0, 67, 17
1, 86409, Control_c, 0, 67, 16
1, 86417, Note_on_c, 0, 51, 77
1, 86417, Note_off_c, 0, 63, 62
1, 86420, Note_off_c, 0, 54, 62
1, 86422, Note_on_c, 0, 59, 72
1, 86424, Control_c, 0, 67, 15
1, 86439, Control_c, 0, 67, 12
1, 86444, Note_off_c, 0, 51, 66
1, 86454, Control_c, 0, 67, 9
1, 86469, Control_c, 0, 67, 0
1, 86506, Note_off_c, 0, 59, 61
1, 86513, Note_on_c, 0, 63, 53
1, 86522, Note_on_c, 0, 67, 78
1, 86527, Note_on_c, 0, 37, 71
1, 86533, Note_on_c, 0, 39, 53
1, 86538, Note_off_c, 0, 63, 57
1, 86543, Note_off_c, 0, 67, 69
1, 86549, Note_off_c, 0, 37, 62
1, 86563, Note_on_c, 0, 41, 15
1, 86565, Note_off_c, 0, 39, 56
1, 86617, Note_on_c, 0, 55, 77
1, 86618, Note_off_c, 0, 41, 40
1, 86638, Note_on_c, 0, 71, 76
1, 86709, Note_on_c, 0, 51, 85
1, 86715, Note_off_c, 0, 55, 62
1, 86725, Note_on_c, 0, 83, 71
1, 86748, Note_off_c, 0, 71, 60
1, 86765, Note_off_c, 0, 83, 56
1, 86774, Note_off_c, 0, 51, 65
1, 86787, Control_c, 0, 64, 121
1, 86802, Control_c, 0, 64, 81
1, 86816, Control_c, 0, 64, 0
1, 86834, Note_on_c, 0, 37, 86
1, 86844, Note_on_c, 0, 80, 83
1, 86851, Note_on_c, 0, 76, 75
1, 86861, Control_c, 0, 64, 68
1, 86870, Note_off_c, 0, 37, 66
1, 86876, Control_c, 0, 64, 99
1, 86891, Control_c, 0, 64, 127
1, 86952, Note_off_c, 0, 80, 63
1, 86957, Note_on_c, 0, 71, 72
1, 86961, Note_on_c, 0, 56, 75
1, 86966, Note_off_c, 0, 76, 67
1, 86992, Note_off_c, 0, 71, 60
1, 87028, Note_off_c, 0, 56, 61
1, 87032, Note_on_c, 0, 52, 79
1, 87076, Note_on_c, 0, 64, 73
1, 87077, Note_off_c, 0, 52, 67
1, 87083, Note_on_c, 0, 68, 78
1, 87144, Note_on_c, 0, 37, 72
1, 87153, Note_off_c, 0, 64, 49
1, 87162, Note_off_c, 0, 37, 70
1, 87172, Note_on_c, 0, 39, 38
1, 87182, Note_on_c, 0, 59, 78
1, 87195, Note_off_c, 0, 68, 61
1, 87207, Note_off_c, 0, 39, 50
1, 87240, Note_off_c, 0, 59, 59
1, 87258, Note_on_c, 0, 56, 76
1, 87281, Note_on_c, 0, 69, 74
1, 87288, Note_on_c, 0, 68, 38
1, 87313, Note_off_c, 0, 68, 56
1, 87332, Note_on_c, 0, 52, 80
1, 87351, Note_off_c, 0, 56, 63
1, 87357, Note_on_c, 0, 60, 80
1, 87375, Note_off_c, 0, 52, 68
1, 87377, Note_on_c, 0, 65, 44
1, 87378, Note_off_c, 0, 69, 63
1, 87380, Note_off_c, 0, 60, 68
1, 87396, Control_c, 0, 64, 97
1, 87401, Note_off_c, 0, 65, 56
1, 87411, Control_c, 0, 64, 64
1, 87425, Control_c, 0, 64, 0
1, 87434, Note_on_c, 0, 61, 95
1, 87436, Note_on_c, 0, 73, 95
1, 87439, Note_on_c, 0, 69, 82
1, 87442, Note_on_c, 0, 37, 82
1, 87469, Note_off_c, 0, 37, 70
1, 87470, Control_c, 0, 64, 60
1, 87484, Control_c, 0, 64, 98
1, 87499, Control_c, 0, 64, 127
1, 87553, Note_off_c, 0, 61, 38
1, 87556, Note_on_c, 0, 65, 66
1, 87561, Poly_aftertouch_c, 0, 60, 0
1, 87566, Note_off_c, 0, 73, 60
1, 87580, Note_on_c, 0, 57, 59
1, 87594, Note_off_c, 0, 69, 63
1, 87651, Note_on_c, 0, 61, 86
1, 87668, Note_off_c, 0, 61, 73
1, 87675, Note_off_c, 0, 65, 64
1, 87675, Note_off_c, 0, 57, 61
1, 87733, Note_on_c, 0, 62, 95
1, 87735, Note_on_c, 0, 74, 93
1, 87735, Note_on_c, 0, 70, 88
1, 87761, Note_on_c, 0, 54, 77
1, 87833, Note_off_c, 0, 62, 58
1, 87836, Note_off_c, 0, 54, 61
1, 87838, Note_on_c, 0, 66, 85
1, 87851, Note_on_c, 0, 58, 68
1, 87885, Note_off_c, 0, 74, 65
1, 87901, Note_on_c, 0, 54, 68
1, 87920, Note_off_c, 0, 70, 54
1, 87924, Note_off_c, 0, 58, 63
1, 87926, Note_on_c, 0, 62, 80
1, 87949, Note_off_c, 0, 54, 61
1, 87955, Note_off_c, 0, 62, 61
1, 87965, Note_off_c, 0, 66, 65
1, 87967, Control_c, 0, 64, 112
1, 87982, Control_c, 0, 64, 78
1, 87997, Control_c, 0, 64, 0
1, 88012, Note_on_c, 0, 75, 83
1, 88024, Note_on_c, 0, 39, 60
1, 88025, Note_off_c, 0, 39, 127
1, 88025, Note_on_c, 0, 72, 62
1, 88025, Note_on_c, 0, 37, 39
1, 88026, Note_off_c, 0, 37, 127
1, 88027, Note_on_c, 0, 71, 75
1, 88042, Control_c, 0, 64, 71
1, 88056, Control_c, 0, 64, 116
1, 88065, Poly_aftertouch_c, 0, 37, 0
1, 88071, Control_c, 0, 64, 127
1, 88104, Note_on_c, 0, 67, 74
1, 88111, Poly_aftertouch_c, 0, 38, 0
1, 88125, Note_off_c, 0, 71, 57
1, 88125, Note_off_c, 0, 72, 54
1, 88133, Note_on_c, 0, 59, 67
1, 88168, Note_off_c, 0, 75, 60
1, 88197, Note_on_c, 0, 64, 78
1, 88203, Note_off_c, 0, 59, 62
1, 88212, Note_off_c, 0, 67, 61
1, 88220, Note_off_c, 0, 64, 70
1, 88265, Poly_aftertouch_c, 0, 55, 0
1, 88281, Note_on_c, 0, 64, 96
1, 88281, Note_on_c, 0, 72, 89
1, 88285, Note_on_c, 0, 76, 85
1, 88290, Poly_aftertouch_c, 0, 55, 0
1, 88299, Note_on_c, 0, 56, 76
1, 88377, Note_on_c, 0, 68, 88
1, 88379, Note_on_c, 0, 60, 71
1, 88379, Note_off_c, 0, 56, 60
1, 88402, Note_off_c, 0, 64, 57
1, 88423, Poly_aftertouch_c, 0, 74, 0
1, 88448, Note_off_c, 0, 72, 61
1, 88459, Note_off_c, 0, 76, 62
1, 88479, Note_off_c, 0, 60, 61
1, 88489, Note_off_c, 0, 68, 61
1, 88494, Note_on_c, 0, 56, 59
1, 88521, Note_off_c, 0, 56, 66
1, 88536, Control_c, 0, 64, 97
1, 88551, Control_c, 0, 64, 72
1, 88557, Note_on_c, 0, 65, 70
1, 88561, Note_on_c, 0, 77, 69
1, 88562, Note_on_c, 0, 57, 75
1, 88566, Control_c, 0, 64, 0
1, 88570, Note_on_c, 0, 73, 55
1, 88580, Note_on_c, 0, 76, 63
1, 88591, Note_off_c, 0, 77, 0
1, 88591, Note_on_c, 0, 77, 41
1, 88596, Note_on_c, 0, 74, 56
1, 88605, Note_off_c, 0, 73, 0
1, 88605, Note_on_c, 0, 73, 33
1, 88608, Note_on_c, 0, 75, 49
1, 88611, Control_c, 0, 64, 55
1, 88626, Control_c, 0, 64, 80
1, 88641, Control_c, 0, 64, 116
1, 88642, Note_off_c, 0, 65, 37
1, 88644, Note_on_c, 0, 68, 90
1, 88649, Note_off_c, 0, 57, 62
1, 88649, Note_off_c, 0, 77, 61
1, 88651, Note_on_c, 0, 61, 72
1, 88655, Note_off_c, 0, 75, 64
1, 88656, Control_c, 0, 64, 127
1, 88677, Note_off_c, 0, 76, 25
1, 88681, Note_off_c, 0, 73, 49
1, 88685, Note_off_c, 0, 74, 66
1, 88696, Note_off_c, 0, 68, 63
1, 88730, Control_c, 0, 64, 93
1, 88736, Note_on_c, 0, 58, 71
1, 88736, Note_on_c, 0, 66, 93
1, 88745, Control_c, 0, 64, 71
1, 88746, Note_on_c, 0, 78, 83
1, 88746, Note_off_c, 0, 61, 58
1, 88759, Note_on_c, 0, 74, 60
1, 88760, Control_c, 0, 64, 21
1, 88775, Control_c, 0, 64, 41
1, 88790, Control_c, 0, 64, 69
1, 88804, Control_c, 0, 64, 87
1, 88818, Note_on_c, 0, 70, 86
1, 88819, Control_c, 0, 64, 127
1, 88829, Note_on_c, 0, 62, 73
1, 88832, Note_off_c, 0, 58, 61
1, 88837, Note_off_c, 0, 66, 63
1, 88852, Note_off_c, 0, 78, 62
1, 88856, Note_off_c, 0, 74, 63
1, 88867, Note_off_c, 0, 62, 61
1, 88875, Note_off_c, 0, 70, 62
1, 88893, Control_c, 0, 64, 105
1, 88903, Note_on_c, 0, 59, 63
1, 88908, Control_c, 0, 64, 74
1, 88912, Note_on_c, 0, 67, 94
1, 88912, Note_on_c, 0, 79, 94
1, 88914, Note_on_c, 0, 75, 57
1, 88922, Control_c, 0, 64, 0
1, 88934, Note_on_c, 0, 76, 74
1, 88947, Note_on_c, 0, 78, 63
1, 88952, Control_c, 0, 64, 52
1, 88967, Control_c, 0, 64, 75
1, 88978, Note_on_c, 0, 63, 75
1, 88982, Control_c, 0, 64, 102
1, 88991, Note_on_c, 0, 72, 88
1, 88995, Note_off_c, 0, 75, 62
1, 89004, Note_off_c, 0, 59, 62
1, 89004, Control_c, 0, 64, 127
1, 89010, Note_off_c, 0, 67, 61
1, 89017, Note_off_c, 0, 78, 63
1, 89017, Note_off_c, 0, 79, 64
1, 89035, Note_off_c, 0, 76, 67
1, 89038, Note_off_c, 0, 63, 67
1, 89058, Note_off_c, 0, 72, 64
1, 89063, Control_c, 0, 64, 98
1, 89078, Control_c, 0, 64, 72
1, 89088, Note_on_c, 0, 68, 98
1, 89092, Note_on_c, 0, 76, 81
1, 89093, Control_c, 0, 64, 0
1, 89095, Note_on_c, 0, 60, 80
1, 89100, Note_on_c, 0, 80, 80
1, 89123, Control_c, 0, 64, 61
1, 89133, Note_on_c, 0, 78, 54
1, 89137, Note_on_c, 0, 67, 28
1, 89137, Control_c, 0, 64, 78
1, 89152, Control_c, 0, 64, 106
1, 89165, Note_on_c, 0, 72, 72
1, 89167, Control_c, 0, 64, 127
1, 89171, Note_off_c, 0, 67, 53
1, 89172, Note_off_c, 0, 78, 62
1, 89174, Note_off_c, 0, 60, 60
1, 89179, Note_off_c, 0, 68, 64
1, 89191, Note_on_c, 0, 64, 80
1, 89195, Note_off_c, 0, 80, 64
1, 89203, Note_off_c, 0, 76, 61
1, 89218, Note_off_c, 0, 72, 66
1, 89241, Control_c, 0, 64, 112
1, 89255, Control_c, 0, 64, 79
1, 89262, Note_off_c, 0, 64, 54
1, 89263, Note_on_c, 0, 69, 83
1, 89265, Note_on_c, 0, 77, 88
1, 89267, Note_on_c, 0, 81, 89
1, 89270, Control_c, 0, 64, 0
1, 89273, Note_on_c, 0, 61, 78
1, 89315, Control_c, 0, 64, 49
1, 89329, Control_c, 0, 64, 73
1, 89344, Control_c, 0, 64, 94
1, 89359, Control_c, 0, 64, 127
1, 89365, Note_on_c, 0, 65, 78
1, 89365, Note_on_c, 0, 73, 89
1, 89372, Note_off_c, 0, 69, 65
1, 89376, Note_off_c, 0, 81, 61
1, 89379, Note_off_c, 0, 61, 60
1, 89395, Note_off_c, 0, 77, 63
1, 89416, Note_off_c, 0, 65, 65
1, 89421, Note_off_c, 0, 73, 59
1, 89434, Control_c, 0, 64, 114
1, 89449, Control_c, 0, 64, 84
1, 89464, Control_c, 0, 64, 66
1, 89468, Note_on_c, 0, 70, 98
1, 89469, Note_on_c, 0, 62, 71
1, 89471, Note_on_c, 0, 66, 79
1, 89472, Note_on_c, 0, 82, 86
1, 89475, Note_on_c, 0, 78, 79
1, 89478, Control_c, 0, 64, 28
1, 89493, Note_off_c, 0, 70, 63
1, 89493, Control_c, 0, 64, 60
1, 89508, Control_c, 0, 64, 70
1, 89511, Note_off_c, 0, 62, 62
1, 89513, Note_off_c, 0, 78, 57
1, 89513, Note_off_c, 0, 82, 64
1, 89523, Control_c, 0, 64, 84
1, 89526, Note_off_c, 0, 66, 65
1, 89538, Control_c, 0, 64, 102
1, 89553, Control_c, 0, 64, 127
1, 89562, Note_on_c, 0, 67, 89
1, 89570, Note_on_c, 0, 71, 95
1, 89574, Note_on_c, 0, 79, 84
1, 89575, Note_on_c, 0, 63, 78
1, 89578, Note_on_c, 0, 83, 82
1, 89591, Note_off_c, 0, 71, 65
1, 89596, Note_off_c, 0, 67, 64
1, 89614, Note_off_c, 0, 79, 60
1, 89621, Note_off_c, 0, 63, 63
1, 89628, Note_off_c, 0, 83, 60
1, 89660, Note_on_c, 0, 63, 84
1, 89665, Note_on_c, 0, 72, 95
1, 89667, Note_on_c, 0, 68, 93
1, 89683, Note_on_c, 0, 84, 64
1, 89684, Note_off_c, 0, 72, 70
1, 89687, Note_on_c, 0, 79, 65
1, 89689, Note_on_c, 0, 83, 51
1, 89702, Note_off_c, 0, 63, 64
1, 89707, Note_off_c, 0, 79, 67
1, 89710, Note_off_c, 0, 84, 65
1, 89711, Note_off_c, 0, 68, 63
1, 89712, Note_off_c, 0, 83, 59
1, 89768, Note_on_c, 0, 73, 102
1, 89769, Note_on_c, 0, 65, 86
1, 89770, Note_on_c, 0, 69, 91
1, 89774, Note_on_c, 0, 85, 90
1, 89794, Note_off_c, 0, 69, 67
1, 89795, Note_on_c, 0, 81, 50
1, 89802, Note_off_c, 0, 65, 64
1, 89807, Note_on_c, 0, 78, 35
1, 89807, Note_off_c, 0, 73, 55
1, 89818, Note_off_c, 0, 81, 56
1, 89824, Note_off_c, 0, 85, 65
1, 89839, Note_off_c, 0, 78, 45
1, 89864, Note_on_c, 0, 70, 107
1, 89864, Note_on_c, 0, 74, 98
1, 89876, Note_on_c, 0, 84, 77
1, 89878, Note_on_c, 0, 66, 85
1, 89884, Note_on_c, 0, 78, 54
1, 89893, Note_off_c, 0, 74, 63
1, 89895, Note_on_c, 0, 81, 58
1, 89896, Note_off_c, 0, 70, 63
1, 89897, Note_off_c, 0, 66, 70
1, 89899, Note_off_c, 0, 84, 66
1, 89904, Note_off_c, 0, 78, 59
1, 89915, Note_off_c, 0, 81, 59
1, 89967, Note_on_c, 0, 75, 86
1, 89973, Note_on_c, 0, 71, 93
1, 89979, Note_on_c, 0, 67, 78
1, 89981, Note_on_c, 0, 82, 73
1, 89993, Note_off_c, 0, 75, 64
1, 89996, Note_on_c, 0, 85, 41
1, 90002, Note_on_c, 0, 74, 44
1, 90004, Note_off_c, 0, 67, 66
1, 90004, Note_off_c, 0, 71, 59
1, 90006, Note_off_c, 0, 82, 68
1, 90024, Note_off_c, 0, 74, 64
1, 90025, Note_off_c, 0, 85, 37
1, 90063, Note_on_c, 0, 76, 100
1, 90071, Note_on_c, 0, 72, 93
1, 90072, Note_on_c, 0, 68, 82
1, 90081, Note_on_c, 0, 84, 60
1, 90088, Note_off_c, 0, 72, 73
1, 90092, Note_on_c, 0, 88, 52
1, 90095, Note_off_c, 0, 76, 62
1, 90096, Note_on_c, 0, 85, 51
1, 90101, Note_on_c, 0, 83, 43
1, 90103, Note_off_c, 0, 84, 66
1, 90113, Note_off_c, 0, 88, 54
1, 90121, Note_off_c, 0, 85, 56
1, 90127, Note_off_c, 0, 83, 49
1, 90146, Note_on_c, 0, 77, 101
1, 90152, Note_on_c, 0, 85, 81
1, 90155, Note_off_c, 0, 68, 60
1, 90159, Note_on_c, 0, 82, 73
1, 90165, Note_on_c, 0, 89, 59
1, 90182, Note_on_c, 0, 87, 49
1, 90182, Note_on_c, 0, 88, 53
1, 90183, Note_off_c, 0, 77, 62
1, 90184, Note_off_c, 0, 82, 66
1, 90196, Note_off_c, 0, 89, 52
1, 90204, Note_off_c, 0, 85, 67
1, 90205, Note_off_c, 0, 87, 55
1, 90205, Note_off_c, 0, 88, 38
1, 90241, Note_on_c, 0, 78, 100
1, 90257, Note_on_c, 0, 87, 77
1, 90257, Note_on_c, 0, 89, 71
1, 90279, Note_off_c, 0, 78, 60
1, 90283, Note_off_c, 0, 89, 68
1, 90286, Note_off_c, 0, 87, 57
1, 90328, Note_on_c, 0, 79, 97
1, 90337, Note_on_c, 0, 85, 78
1, 90349, Note_on_c, 0, 88, 64
1, 90355, Note_on_c, 0, 89, 46
1, 90358, Note_on_c, 0, 87, 48
1, 90358, Note_off_c, 0, 85, 71
1, 90363, Note_off_c, 0, 79, 66
1, 90379, Note_off_c, 0, 89, 55
1, 90379, Note_off_c, 0, 87, 55
1, 90389, Note_off_c, 0, 88, 61
1, 90412, Note_on_c, 0, 80, 86
1, 90420, Note_on_c, 0, 88, 51
1, 90424, Note_on_c, 0, 79, 85
1, 90441, Note_off_c, 0, 79, 68
1, 90460, Note_off_c, 0, 80, 62
1, 90470, Note_off_c, 0, 88, 65
1, 90502, Control_c, 0, 64, 96
1, 90513, Note_on_c, 0, 89, 97
1, 90515, Note_on_c, 0, 79, 84
1, 90516, Note_on_c, 0, 76, 107
1, 90516, Note_on_c, 0, 81, 101
1, 90517, Control_c, 0, 64, 64
1, 90522, Note_on_c, 0, 73, 95
1, 90523, Note_on_c, 0, 77, 98
1, 90525, Note_on_c, 0, 88, 66
1, 90527, Note_on_c, 0, 93, 83
1, 90529, Note_on_c, 0, 90, 83
1, 90532, Control_c, 0, 64, 0
1, 90535, Note_off_c, 0, 77, 73
1, 90539, Note_on_c, 0, 91, 75
1, 90543, Note_on_c, 0, 86, 46
1, 90544, Note_on_c, 0, 72, 79
1, 90552, Note_off_c, 0, 76, 72
1, 90562, Control_c, 0, 64, 44
1, 90564, Note_off_c, 0, 73, 64
1, 90566, Note_off_c, 0, 72, 71
1, 90571, Note_off_c, 0, 86, 37
1, 90576, Control_c, 0, 64, 75
1, 90581, Note_off_c, 0, 91, 0
1, 90581, Note_on_c, 0, 91, 33
1, 90584, Note_off_c, 0, 90, 52
1, 90589, Note_on_c, 0, 77, 40
1, 90590, Note_off_c, 0, 77, 127
1, 90591, Control_c, 0, 64, 98
1, 90606, Control_c, 0, 64, 127
1, 90612, Note_off_c, 0, 79, 58
1, 90612, Note_off_c, 0, 88, 29
1, 90677, Note_off_c, 0, 91, 19
1, 90680, Note_off_c, 0, 93, 63
1, 90806, Note_off_c, 0, 81, 46
1, 90871, Control_c, 0, 64, 115
1, 90886, Control_c, 0, 64, 80
1, 90900, Control_c, 0, 64, 0
1, 90981, Note_off_c, 0, 89, 49
1, 91162, Note_on_c, 0, 42, 84
1, 91163, Note_on_c, 0, 54, 101
1, 91165, Note_on_c, 0, 82, 106
1, 91169, Control_c, 0, 64, 80
1, 91170, Note_on_c, 0, 89, 3
1, 91183, Control_c, 0, 64, 127
1, 91204, Note_off_c, 0, 89, 62
1, 91208, Note_off_c, 0, 42, 64
1, 91218, Note_off_c, 0, 54, 64
1, 91288, Note_on_c, 0, 85, 57
1, 91294, Note_off_c, 0, 82, 56
1, 91362, Note_off_c, 0, 85, 65
1, 91374, Note_on_c, 0, 94, 64
1, 91398, Note_on_c, 0, 70, 86
1, 91401, Note_on_c, 0, 61, 77
1, 91414, Note_on_c, 0, 66, 66
1, 91424, Note_off_c, 0, 70, 58
1, 91437, Note_off_c, 0, 94, 62
1, 91439, Note_off_c, 0, 66, 63
1, 91441, Note_on_c, 0, 85, 62
1, 91446, Note_off_c, 0, 61, 55
1, 91499, Note_off_c, 0, 85, 64
1, 91509, Note_on_c, 0, 82, 72
1, 91541, Note_on_c, 0, 70, 96
1, 91547, Note_on_c, 0, 66, 80
1, 91553, Note_on_c, 0, 61, 72
1, 91559, Note_off_c, 0, 82, 51
1, 91577, Note_off_c, 0, 61, 64
1, 91579, Note_off_c, 0, 66, 58
1, 91579, Note_off_c, 0, 70, 60
1, 91582, Note_on_c, 0, 80, 75
1, 91640, Note_off_c, 0, 80, 64
1, 91659, Note_on_c, 0, 70, 104
1, 91665, Note_on_c, 0, 78, 76
1, 91667, Note_on_c, 0, 61, 76
1, 91670, Note_on_c, 0, 66, 80
1, 91692, Note_off_c, 0, 66, 71
1, 91693, Note_off_c, 0, 70, 61
1, 91709, Note_off_c, 0, 61, 56
1, 91714, Note_off_c, 0, 78, 62
1, 91723, Note_on_c, 0, 82, 73
1, 91768, Note_on_c, 0, 70, 100
1, 91776, Note_on_c, 0, 66, 77
1, 91780, Note_off_c, 0, 82, 63
1, 91783, Note_on_c, 0, 61, 69
1, 91791, Note_on_c, 0, 90, 65
1, 91794, Note_off_c, 0, 66, 74
1, 91806, Note_off_c, 0, 61, 64
1, 91808, Note_off_c, 0, 70, 57
1, 91829, Note_on_c, 0, 82, 62
1, 91851, Note_off_c, 0, 90, 62
1, 91872, Note_on_c, 0, 70, 86
1, 91880, Note_off_c, 0, 82, 64
1, 91887, Note_on_c, 0, 78, 60
1, 91890, Note_on_c, 0, 61, 69
1, 91899, Note_on_c, 0, 66, 55
1, 91908, Poly_aftertouch_c, 0, 85, 0
1, 91908, Note_off_c, 0, 78, 59
1, 91914, Note_off_c, 0, 61, 69
1, 91919, Note_off_c, 0, 66, 62
1, 91927, Note_off_c, 0, 70, 60
1, 91932, Control_c, 0, 64, 99
1, 91947, Control_c, 0, 64, 67
1, 91952, Note_on_c, 0, 77, 57
1, 91961, Control_c, 0, 64, 0
1, 91973, Note_on_c, 0, 71, 94
1, 91973, Note_off_c, 0, 77, 39
1, 91974, Note_on_c, 0, 76, 28
1, 91975, Note_off_c, 0, 76, 127
1, 91977, Note_on_c, 0, 66, 90
1, 91987, Note_on_c, 0, 63, 74
1, 92000, Note_on_c, 0, 68, 52
1, 92000, Note_off_c, 0, 71, 66
1, 92009, Note_on_c, 0, 75, 83
1, 92014, Control_c, 0, 64, 13
1, 92024, Note_off_c, 0, 68, 58
1, 92028, Control_c, 0, 64, 76
1, 92039, Note_off_c, 0, 63, 62
1, 92043, Control_c, 0, 64, 102
1, 92047, Note_off_c, 0, 66, 64
1, 92058, Control_c, 0, 64, 127
1, 92070, Note_off_c, 0, 75, 56
1, 92077, Note_on_c, 0, 85, 55
1, 92104, Note_on_c, 0, 77, 20
1, 92104, Note_on_c, 0, 78, 21
1, 92107, Note_off_c, 0, 85, 50
1, 92116, Note_on_c, 0, 82, 76
1, 92143, Note_off_c, 0, 78, 48
1, 92145, Note_off_c, 0, 77, 37
1, 92167, Note_on_c, 0, 75, 56
1, 92203, Note_off_c, 0, 82, 54
1, 92221, Note_on_c, 0, 78, 78
1, 92240, Note_off_c, 0, 75, 65
1, 92262, Note_off_c, 0, 78, 63
1, 92266, Control_c, 0, 64, 120
1, 92280, Control_c, 0, 64, 83
1, 92295, Control_c, 0, 64, 0
1, 92300, Note_on_c, 0, 63, 52
1, 92301, Note_on_c, 0, 59, 56
1, 92302, Note_on_c, 0, 54, 52
1, 92321, Note_off_c, 0, 63, 61
1, 92327, Note_off_c, 0, 54, 36
1, 92328, Note_on_c, 0, 80, 42
1, 92328, Note_off_c, 0, 59, 62
1, 92337, Note_on_c, 0, 82, 63
1, 92355, Note_off_c, 0, 80, 35
1, 92369, Control_c, 0, 64, 65
1, 92382, Note_on_c, 0, 92, 70
1, 92384, Control_c, 0, 64, 86
1, 92389, Note_on_c, 0, 63, 78
1, 92399, Control_c, 0, 64, 117
1, 92403, Note_on_c, 0, 54, 59
1, 92408, Note_on_c, 0, 59, 54
1, 92414, Note_off_c, 0, 63, 69
1, 92414, Control_c, 0, 64, 127
1, 92425, Note_off_c, 0, 82, 64
1, 92426, Note_off_c, 0, 54, 59
1, 92427, Note_off_c, 0, 92, 65
1, 92428, Note_off_c, 0, 59, 63
1, 92437, Note_on_c, 0, 87, 63
1, 92466, Note_off_c, 0, 87, 67
1, 92471, Note_on_c, 0, 80, 65
1, 92498, Note_on_c, 0, 54, 72
1, 92500, Note_on_c, 0, 63, 73
1, 92520, Note_on_c, 0, 59, 47
1, 92528, Note_off_c, 0, 80, 44
1, 92530, Note_off_c, 0, 54, 59
1, 92540, Note_off_c, 0, 63, 58
1, 92542, Note_off_c, 0, 59, 60
1, 92544, Note_on_c, 0, 78, 74
1, 92593, Note_off_c, 0, 78, 63
1, 92622, Control_c, 0, 64, 109
1, 92628, Note_on_c, 0, 59, 78
1, 92630, Note_on_c, 0, 68, 92
1, 92632, Note_on_c, 0, 75, 71
1, 92635, Note_on_c, 0, 65, 85
1, 92637, Control_c, 0, 64, 69
1, 92651, Control_c, 0, 64, 0
1, 92671, Note_off_c, 0, 75, 53
1, 92692, Note_on_c, 0, 80, 69
1, 92710, Control_c, 0, 64, 68
1, 92725, Control_c, 0, 64, 84
1, 92730, Note_on_c, 0, 87, 53
1, 92748, Control_c, 0, 64, 111
1, 92754, Note_off_c, 0, 80, 59
1, 92763, Control_c, 0, 64, 127
1, 92790, Note_on_c, 0, 85, 67
1, 92799, Note_off_c, 0, 87, 51
1, 92841, Note_on_c, 0, 80, 65
1, 92847, Note_off_c, 0, 85, 63
1, 92870, Note_off_c, 0, 80, 62
1, 92895, Note_on_c, 0, 75, 67
1, 92912, Note_off_c, 0, 68, 62
1, 92939, Note_off_c, 0, 65, 62
1, 92944, Note_off_c, 0, 75, 58
1, 92947, Note_off_c, 0, 59, 58
1, 92955, Control_c, 0, 64, 95
1, 92960, Note_on_c, 0, 73, 72
1, 92969, Control_c, 0, 64, 64
1, 92984, Control_c, 0, 64, 0
1, 92999, Note_off_c, 0, 73, 64
1, 93013, Note_on_c, 0, 75, 68
1, 93076, Note_on_c, 0, 72, 71
1, 93076, Note_off_c, 0, 75, 64
1, 93116, Note_on_c, 0, 73, 76
1, 93141, Note_off_c, 0, 72, 64
1, 93172, Note_on_c, 0, 80, 79
1, 93181, Note_off_c, 0, 73, 64
1, 93194, Note_off_c, 0, 80, 69
1, 93232, Note_on_c, 0, 54, 104
1, 93236, Control_c, 0, 64, 72
1, 93237, Note_on_c, 0, 42, 78
1, 93251, Control_c, 0, 64, 127
1, 93254, Note_on_c, 0, 82, 90
1, 93267, Note_off_c, 0, 42, 67
1, 93271, Note_on_c, 0, 80, 61
1, 93282, Note_off_c, 0, 54, 62
1, 93294, Note_off_c, 0, 80, 59
1, 93318, Note_off_c, 0, 82, 63
1, 93361, Note_on_c, 0, 84, 35
1, 93394, Note_on_c, 0, 70, 86
1, 93395, Note_off_c, 0, 84, 46
1, 93400, Note_on_c, 0, 66, 76
1, 93401, Note_on_c, 0, 92, 44
1, 93403, Note_on_c, 0, 61, 61
1, 93416, Note_off_c, 0, 70, 65
1, 93431, Note_off_c, 0, 92, 53
1, 93437, Note_off_c, 0, 61, 63
1, 93442, Note_off_c, 0, 66, 61
1, 93475, Note_on_c, 0, 85, 51
1, 93479, Poly_aftertouch_c, 0, 87, 0
1, 93497, Note_on_c, 0, 82, 79
1, 93506, Note_off_c, 0, 85, 59
1, 93520, Note_off_c, 0, 82, 64
1, 93527, Note_on_c, 0, 70, 96
1, 93538, Note_on_c, 0, 61, 72
1, 93545, Note_on_c, 0, 66, 70
1, 93557, Note_off_c, 0, 70, 58
1, 93565, Note_off_c, 0, 66, 68
1, 93571, Note_off_c, 0, 61, 63
1, 93579, Note_on_c, 0, 80, 71
1, 93604, Note_off_c, 0, 80, 67
1, 93635, Note_on_c, 0, 70, 98
1, 93641, Note_on_c, 0, 66, 81
1, 93646, Note_on_c, 0, 61, 71
1, 93658, Note_off_c, 0, 66, 73
1, 93660, Note_off_c, 0, 70, 65
1, 93661, Note_on_c, 0, 78, 64
1, 93675, Note_off_c, 0, 61, 63
1, 93696, Note_off_c, 0, 78, 49
1, 93714, Note_on_c, 0, 82, 73
1, 93744, Note_on_c, 0, 70, 85
1, 93757, Note_on_c, 0, 66, 57
1, 93763, Note_on_c, 0, 61, 61
1, 93764, Note_off_c, 0, 70, 69
1, 93771, Note_off_c, 0, 82, 62
1, 93781, Note_off_c, 0, 66, 60
1, 93785, Note_on_c, 0, 90, 63
1, 93789, Note_off_c, 0, 61, 64
1, 93822, Note_off_c, 0, 90, 63
1, 93826, Note_on_c, 0, 82, 49
1, 93834, Note_on_c, 0, 70, 82
1, 93848, Note_on_c, 0, 61, 62
1, 93854, Note_on_c, 0, 78, 75
1, 93854, Note_off_c, 0, 82, 65
1, 93869, Note_on_c, 0, 66, 48
1, 93869, Note_off_c, 0, 78, 68
1, 93881, Note_off_c, 0, 61, 63
1, 93883, Note_off_c, 0, 70, 58
1, 93889, Note_off_c, 0, 66, 63
1, 93912, Control_c, 0, 64, 111
1, 93926, Control_c, 0, 64, 79
1, 93927, Note_on_c, 0, 77, 66
1, 93940, Note_on_c, 0, 71, 91
1, 93941, Note_on_c, 0, 66, 91
1, 93941, Control_c, 0, 64, 0
1, 93946, Note_off_c, 0, 77, 64
1, 93951, Note_on_c, 0, 63, 74
1, 93965, Note_off_c, 0, 71, 60
1, 93981, Note_on_c, 0, 75, 80
1, 94000, Control_c, 0, 64, 68
1, 94009, Note_off_c, 0, 66, 64
1, 94011, Note_off_c, 0, 63, 65
1, 94015, Control_c, 0, 64, 91
1, 94030, Control_c, 0, 64, 127
1, 94033, Note_off_c, 0, 75, 61
1, 94053, Note_on_c, 0, 78, 33
1, 94063, Note_on_c, 0, 85, 40
1, 94093, Note_off_c, 0, 85, 53
1, 94099, Note_off_c, 0, 78, 44
1, 94119, Note_on_c, 0, 83, 56
1, 94149, Note_on_c, 0, 75, 74
1, 94161, Poly_aftertouch_c, 0, 86, 0
1, 94176, Note_off_c, 0, 83, 57
1, 94205, Note_on_c, 0, 78, 65
1, 94207, Note_off_c, 0, 75, 65
1, 94224, Control_c, 0, 64, 123
1, 94230, Note_off_c, 0, 78, 67
1, 94244, Note_on_c, 0, 63, 65
1, 94245, Note_on_c, 0, 59, 67
1, 94246, Control_c, 0, 64, 92
1, 94257, Note_on_c, 0, 54, 51
1, 94261, Control_c, 0, 64, 64
1, 94271, Note_off_c, 0, 63, 68
1, 94275, Control_c, 0, 64, 0
1, 94280, Note_off_c, 0, 59, 62
1, 94285, Note_off_c, 0, 54, 55
1, 94301, Note_on_c, 0, 80, 63
1, 94325, Note_off_c, 0, 80, 66
1, 94335, Control_c, 0, 64, 67
1, 94340, Note_on_c, 0, 83, 60
1, 94349, Control_c, 0, 64, 81
1, 94355, Note_on_c, 0, 59, 44
1, 94357, Note_on_c, 0, 63, 64
1, 94359, Note_on_c, 0, 92, 65
1, 94364, Control_c, 0, 64, 100
1, 94373, Note_on_c, 0, 54, 54
1, 94379, Note_off_c, 0, 63, 65
1, 94379, Control_c, 0, 64, 127
1, 94381, Note_off_c, 0, 59, 59
1, 94394, Note_off_c, 0, 92, 61
1, 94401, Note_off_c, 0, 54, 55
1, 94417, Note_off_c, 0, 83, 56
1, 94421, Note_on_c, 0, 87, 46
1, 94442, Note_off_c, 0, 87, 55
1, 94448, Note_on_c, 0, 80, 72
1, 94461, Note_on_c, 0, 63, 64
1, 94466, Note_on_c, 0, 54, 56
1, 94469, Note_off_c, 0, 80, 70
1, 94489, Note_off_c, 0, 63, 66
1, 94495, Note_off_c, 0, 54, 62
1, 94520, Note_on_c, 0, 59, 2
1, 94526, Note_off_c, 0, 59, 0
1, 94531, Note_on_c, 0, 78, 70
1, 94559, Note_off_c, 0, 78, 63
1, 94582, Poly_aftertouch_c, 0, 59, 0
1, 94588, Control_c, 0, 64, 92
1, 94593, Note_on_c, 0, 59, 51
1, 94597, Note_on_c, 0, 65, 67
1, 94601, Note_on_c, 0, 68, 64
1, 94603, Control_c, 0, 64, 64
1, 94605, Note_on_c, 0, 75, 66
1, 94617, Control_c, 0, 64, 0
1, 94631, Note_off_c, 0, 75, 56
1, 94667, Note_on_c, 0, 80, 61
1, 94676, Control_c, 0, 64, 53
1, 94691, Control_c, 0, 64, 67
1, 94702, Note_on_c, 0, 87, 59
1, 94706, Control_c, 0, 64, 76
1, 94712, Note_off_c, 0, 80, 62
1, 94721, Control_c, 0, 64, 87
1, 94736, Control_c, 0, 64, 97
1, 94750, Note_off_c, 0, 87, 56
1, 94750, Control_c, 0, 64, 106
1, 94761, Note_on_c, 0, 85, 53
1, 94765, Control_c, 0, 64, 112
1, 94780, Control_c, 0, 64, 115
1, 94790, Note_off_c, 0, 85, 66
1, 94793, Note_on_c, 0, 80, 62
1, 94795, Control_c, 0, 64, 116
1, 94810, Control_c, 0, 64, 117
1, 94821, Note_off_c, 0, 80, 67
1, 94838, Note_on_c, 0, 75, 63
1, 94859, Note_off_c, 0, 75, 63
1, 94868, Control_c, 0, 64, 117
1, 94873, Note_off_c, 0, 68, 63
1, 94879, Note_off_c, 0, 59, 61
1, 94892, Note_off_c, 0, 65, 63
1, 94910, Note_on_c, 0, 73, 72
1, 94953, Note_off_c, 0, 73, 61
1, 94954, Note_on_c, 0, 75, 71
1, 95026, Control_c, 0, 64, 118
1, 95040, Note_off_c, 0, 75, 63
1, 95041, Control_c, 0, 64, 118
1, 95042, Note_on_c, 0, 72, 64
1, 95055, Control_c, 0, 64, 119
1, 95069, Note_on_c, 0, 73, 79
1, 95070, Control_c, 0, 64, 121
1, 95073, Note_off_c, 0, 72, 62
1, 95085, Control_c, 0, 64, 127
1, 95130, Note_on_c, 0, 80, 77
1, 95132, Note_off_c, 0, 73, 64
1, 95151, Note_off_c, 0, 80, 71
1, 95159, Control_c, 0, 64, 99
1, 95173, Control_c, 0, 64, 72
1, 95188, Control_c, 0, 64, 0
1, 95217, Note_on_c, 0, 54, 70
1, 95224, Note_on_c, 0, 82, 73
1, 95246, Control_c, 0, 64, 68
1, 95252, Note_off_c, 0, 54, 64
1, 95260, Note_off_c, 0, 82, 60
1, 95261, Control_c, 0, 64, 84
1, 95276, Control_c, 0, 64, 106
1, 95279, Note_on_c, 0, 85, 67
1, 95291, Control_c, 0, 64, 127
1, 95317, Note_off_c, 0, 85, 56
1, 95325, Note_on_c, 0, 94, 62
1, 95347, Note_on_c, 0, 61, 72
1, 95347, Note_on_c, 0, 70, 74
1, 95354, Note_off_c, 0, 94, 66
1, 95359, Note_on_c, 0, 66, 54
1, 95372, Note_off_c, 0, 70, 69
1, 95372, Note_on_c, 0, 85, 58
1, 95376, Note_off_c, 0, 61, 62
1, 95380, Note_off_c, 0, 66, 61
1, 95412, Note_off_c, 0, 85, 65
1, 95436, Note_on_c, 0, 78, 83
1, 95437, Note_on_c, 0, 70, 82
1, 95441, Note_on_c, 0, 66, 86
1, 95443, Note_on_c, 0, 61, 76
1, 95458, Note_off_c, 0, 70, 70
1, 95469, Control_c, 0, 64, 94
1, 95474, Note_off_c, 0, 66, 66
1, 95476, Note_off_c, 0, 61, 65
1, 95484, Control_c, 0, 64, 65
1, 95486, Note_off_c, 0, 78, 64
1, 95498, Control_c, 0, 64, 0
1, 95501, Note_on_c, 0, 81, 62
1, 95520, Note_off_c, 0, 81, 64
1, 95543, Control_c, 0, 64, 40
1, 95548, Note_on_c, 0, 53, 87
1, 95558, Control_c, 0, 64, 80
1, 95561, Note_on_c, 0, 82, 90
1, 95572, Control_c, 0, 64, 119
1, 95586, Note_off_c, 0, 53, 63
1, 95587, Control_c, 0, 64, 127
1, 95606, Note_off_c, 0, 82, 62
1, 95626, Note_on_c, 0, 85, 74
1, 95654, Note_off_c, 0, 85, 61
1, 95661, Note_on_c, 0, 70, 91
1, 95664, Note_on_c, 0, 94, 69
1, 95667, Note_on_c, 0, 66, 75
1, 95676, Note_on_c, 0, 61, 63
1, 95681, Note_off_c, 0, 70, 69
1, 95692, Note_off_c, 0, 66, 68
1, 95702, Note_off_c, 0, 61, 65
1, 95706, Note_off_c, 0, 94, 59
1, 95717, Note_on_c, 0, 85, 70
1, 95749, Note_on_c, 0, 70, 100
1, 95759, Note_on_c, 0, 81, 88
1, 95762, Note_on_c, 0, 66, 89
1, 95765, Note_on_c, 0, 61, 83
1, 95765, Note_off_c, 0, 85, 64
1, 95789, Control_c, 0, 64, 117
1, 95790, Note_off_c, 0, 70, 63
1, 95803, Control_c, 0, 64, 75
1, 95804, Note_off_c, 0, 66, 63
1, 95807, Note_off_c, 0, 61, 62
1, 95813, Note_off_c, 0, 81, 64
1, 95815, Note_on_c, 0, 82, 80
1, 95818, Control_c, 0, 64, 0
1, 95847, Note_off_c, 0, 82, 66
1, 95866, Note_on_c, 0, 52, 88
1, 95877, Control_c, 0, 64, 73
1, 95890, Note_on_c, 0, 82, 80
1, 95892, Control_c, 0, 64, 127
1, 95909, Note_off_c, 0, 52, 59
1, 95939, Note_off_c, 0, 82, 61
1, 95944, Note_on_c, 0, 85, 71
1, 95978, Note_on_c, 0, 94, 76
1, 95979, Note_on_c, 0, 70, 100
1, 95986, Note_on_c, 0, 66, 83
1, 95992, Note_off_c, 0, 85, 56
1, 96002, Note_off_c, 0, 70, 58
1, 96008, Note_off_c, 0, 66, 67
1, 96010, Control_c, 0, 64, 107
1, 96011, Note_on_c, 0, 63, 41
1, 96024, Note_on_c, 0, 85, 49
1, 96025, Control_c, 0, 64, 81
1, 96031, Note_off_c, 0, 94, 65
1, 96037, Note_off_c, 0, 63, 52
1, 96039, Control_c, 0, 64, 0
1, 96072, Note_on_c, 0, 81, 80
1, 96080, Note_off_c, 0, 85, 65
1, 96084, Note_on_c, 0, 70, 96
1, 96093, Note_on_c, 0, 66, 77
1, 96098, Note_on_c, 0, 61, 61
1, 96126, Note_off_c, 0, 66, 58
1, 96126, Note_off_c, 0, 70, 60
1, 96132, Note_off_c, 0, 61, 64
1, 96166, Note_off_c, 0, 81, 64
1, 96188, Note_on_c, 0, 67, 94
1, 96194, Note_on_c, 0, 70, 88
1, 96200, Note_on_c, 0, 61, 78
1, 96218, Control_c, 0, 64, 95
1, 96232, Note_off_c, 0, 70, 55
1, 96233, Control_c, 0, 64, 127
1, 96237, Note_off_c, 0, 67, 65
1, 96266, Note_off_c, 0, 61, 64
1, 96315, Note_on_c, 0, 94, 46
1, 96317, Note_on_c, 0, 95, 76
1, 96340, Note_off_c, 0, 94, 60
1, 96356, Note_on_c, 0, 91, 71
1, 96370, Note_off_c, 0, 95, 63
1, 96385, Note_on_c, 0, 52, 51
1, 96405, Note_off_c, 0, 91, 60
1, 96407, Note_on_c, 0, 86, 70
1, 96419, Note_on_c, 0, 88, 62
1, 96437, Note_off_c, 0, 88, 60
1, 96439, Control_c, 0, 64, 121
1, 96454, Note_on_c, 0, 58, 84
1, 96454, Control_c, 0, 64, 85
1, 96458, Note_off_c, 0, 86, 65
1, 96466, Note_off_c, 0, 52, 66
1, 96469, Control_c, 0, 64, 0
1, 96478, Note_on_c, 0, 56, 55
1, 96497, Note_on_c, 0, 61, 43
1, 96525, Note_off_c, 0, 56, 64
1, 96527, Note_on_c, 0, 84, 59
1, 96537, Note_off_c, 0, 58, 67
1, 96546, Note_on_c, 0, 81, 71
1, 96552, Note_on_c, 0, 69, 90
1, 96555, Note_on_c, 0, 67, 78
1, 96559, Note_off_c, 0, 84, 48
1, 96567, Control_c, 0, 64, 79
1, 96571, Note_off_c, 0, 61, 62
1, 96582, Control_c, 0, 64, 106
1, 96597, Control_c, 0, 64, 127
1, 96602, Note_off_c, 0, 81, 59
1, 96608, Note_on_c, 0, 77, 67
1, 96612, Note_off_c, 0, 69, 65
1, 96615, Note_on_c, 0, 78, 43
1, 96617, Note_off_c, 0, 67, 62
1, 96637, Note_off_c, 0, 78, 49
1, 96649, Note_off_c, 0, 77, 59
1, 96667, Note_on_c, 0, 74, 69
1, 96689, Note_off_c, 0, 74, 70
1, 96722, Note_on_c, 0, 73, 83
1, 96761, Note_on_c, 0, 70, 73
1, 96788, Note_off_c, 0, 73, 61
1, 96808, Note_on_c, 0, 67, 76
1, 96828, Note_on_c, 0, 69, 60
1, 96835, Note_off_c, 0, 70, 59
1, 96844, Note_off_c, 0, 69, 67
1, 96849, Control_c, 0, 64, 97
1, 96855, Note_on_c, 0, 65, 96
1, 96864, Control_c, 0, 64, 59
1, 96865, Note_off_c, 0, 67, 62
1, 96878, Control_c, 0, 64, 0
1, 96882, Note_on_c, 0, 64, 91
1, 96883, Note_on_c, 0, 63, 58
1, 96895, Note_off_c, 0, 65, 67
1, 96909, Note_off_c, 0, 63, 61
1, 96913, Note_off_c, 0, 64, 67
1, 96932, Note_on_c, 0, 67, 73
1, 96937, Control_c, 0, 64, 69
1, 96952, Control_c, 0, 64, 91
1, 96967, Control_c, 0, 64, 122
1, 96977, Note_on_c, 0, 70, 80
1, 96982, Control_c, 0, 64, 127
1, 97020, Note_off_c, 0, 67, 56
1, 97032, Note_on_c, 0, 73, 79
1, 97068, Note_off_c, 0, 70, 65
1, 97082, Note_on_c, 0, 79, 76
1, 97099, Note_off_c, 0, 73, 65
1, 97124, Note_off_c, 0, 79, 65
1, 97160, Control_c, 0, 64, 92
1, 97175, Control_c, 0, 64, 63
1, 97190, Control_c, 0, 64, 0
1, 97248, Note_on_c, 0, 55, 70
1, 97248, Note_on_c, 0, 83, 71
1, 97276, Note_off_c, 0, 55, 67
1, 97285, Control_c, 0, 64, 27
1, 97294, Note_off_c, 0, 83, 62
1, 97300, Control_c, 0, 64, 80
1, 97310, Note_on_c, 0, 86, 56
1, 97315, Control_c, 0, 64, 109
1, 97330, Control_c, 0, 64, 127
1, 97347, Note_on_c, 0, 95, 72
1, 97362, Note_off_c, 0, 86, 58
1, 97382, Note_on_c, 0, 62, 65
1, 97383, Note_on_c, 0, 71, 63
1, 97386, Note_off_c, 0, 95, 63
1, 97390, Note_on_c, 0, 67, 52
1, 97401, Note_on_c, 0, 86, 29
1, 97403, Note_off_c, 0, 71, 63
1, 97409, Note_off_c, 0, 62, 63
1, 97412, Note_off_c, 0, 67, 58
1, 97431, Note_off_c, 0, 86, 46
1, 97454, Note_on_c, 0, 79, 75
1, 97467, Note_on_c, 0, 71, 75
1, 97470, Note_on_c, 0, 67, 80
1, 97478, Note_on_c, 0, 62, 64
1, 97483, Note_off_c, 0, 71, 64
1, 97485, Note_on_c, 0, 65, 64
1, 97491, Note_off_c, 0, 67, 69
1, 97496, Note_off_c, 0, 62, 63
1, 97502, Note_off_c, 0, 79, 62
1, 97503, Note_on_c, 0, 81, 78
1, 97511, Note_off_c, 0, 65, 67
1, 97521, Note_off_c, 0, 81, 70
1, 97554, Control_c, 0, 64, 101
1, 97568, Control_c, 0, 64, 68
1, 97569, Poly_aftertouch_c, 0, 64, 0
1, 97569, Note_on_c, 0, 54, 88
1, 97582, Note_on_c, 0, 83, 84
1, 97583, Control_c, 0, 64, 0
1, 97605, Note_on_c, 0, 53, 32
1, 97610, Note_off_c, 0, 54, 64
1, 97624, Note_off_c, 0, 83, 60
1, 97628, Control_c, 0, 64, 42
1, 97635, Note_off_c, 0, 53, 36
1, 97642, Control_c, 0, 64, 76
1, 97655, Note_on_c, 0, 86, 58
1, 97657, Control_c, 0, 64, 99
1, 97661, Note_on_c, 0, 84, 35
1, 97672, Control_c, 0, 64, 127
1, 97673, Note_on_c, 0, 95, 76
1, 97687, Note_on_c, 0, 71, 80
1, 97687, Note_on_c, 0, 67, 74
1, 97694, Note_off_c, 0, 84, 43
1, 97701, Note_on_c, 0, 62, 58
1, 97706, Note_off_c, 0, 95, 59
1, 97708, Note_off_c, 0, 71, 67
1, 97712, Note_off_c, 0, 67, 67
1, 97720, Note_on_c, 0, 92, 15
1, 97723, Note_off_c, 0, 62, 62
1, 97725, Note_off_c, 0, 86, 33
1, 97741, Note_on_c, 0, 83, 80
1, 97768, Note_off_c, 0, 92, 27
1, 97770, Note_on_c, 0, 71, 89
1, 97773, Note_on_c, 0, 67, 92
1, 97780, Note_on_c, 0, 62, 78
1, 97796, Note_off_c, 0, 71, 59
1, 97807, Note_off_c, 0, 62, 65
1, 97809, Note_off_c, 0, 67, 64
1, 97813, Note_on_c, 0, 65, 38
1, 97813, Note_off_c, 0, 83, 62
1, 97813, Note_on_c, 0, 82, 83
1, 97841, Note_off_c, 0, 82, 63
1, 97843, Note_off_c, 0, 65, 49
1, 97849, Control_c, 0, 64, 92
1, 97864, Control_c, 0, 64, 57
1, 97879, Control_c, 0, 64, 0
1, 97882, Note_on_c, 0, 53, 98
1, 97891, Note_on_c, 0, 83, 95
1, 97915, Note_off_c, 0, 53, 70
1, 97923, Control_c, 0, 64, 65
1, 97935, Note_off_c, 0, 83, 62
1, 97938, Control_c, 0, 64, 90
1, 97943, Note_on_c, 0, 86, 79
1, 97953, Control_c, 0, 64, 127
1, 98003, Note_on_c, 0, 96, 64
1, 98005, Note_on_c, 0, 71, 87
1, 98007, Note_on_c, 0, 67, 85
1, 98021, Note_off_c, 0, 96, 60
1, 98022, Note_on_c, 0, 62, 64
1, 98028, Note_on_c, 0, 95, 34
1, 98035, Note_off_c, 0, 71, 59
1, 98043, Note_off_c, 0, 62, 62
1, 98046, Note_off_c, 0, 67, 60
1, 98049, Control_c, 0, 64, 105
1, 98060, Note_off_c, 0, 95, 33
1, 98064, Control_c, 0, 64, 81
1, 98069, Note_on_c, 0, 83, 82
1, 98070, Note_off_c, 0, 86, 63
1, 98079, Control_c, 0, 64, 0
1, 98096, Poly_aftertouch_c, 0, 66, 0
1, 98101, Note_on_c, 0, 71, 91
1, 98103, Note_on_c, 0, 62, 86
1, 98108, Note_on_c, 0, 67, 73
1, 98128, Poly_aftertouch_c, 0, 66, 0
1, 98138, Note_off_c, 0, 67, 65
1, 98141, Note_off_c, 0, 62, 61
1, 98141, Note_off_c, 0, 71, 61
1, 98144, Note_on_c, 0, 82, 81
1, 98144, Note_off_c, 0, 83, 59
1, 98166, Note_off_c, 0, 82, 70
1, 98206, Note_on_c, 0, 71, 99
1, 98213, Note_on_c, 0, 68, 91
1, 98213, Note_on_c, 0, 83, 86
1, 98213, Control_c, 0, 64, 75
1, 98220, Note_on_c, 0, 62, 73
1, 98228, Control_c, 0, 64, 112
1, 98243, Control_c, 0, 64, 127
1, 98245, Note_off_c, 0, 71, 60
1, 98260, Note_on_c, 0, 86, 75
1, 98262, Note_off_c, 0, 83, 62
1, 98278, Note_off_c, 0, 68, 62
1, 98287, Note_off_c, 0, 62, 61
1, 98322, Note_on_c, 0, 95, 86
1, 98360, Note_on_c, 0, 92, 72
1, 98368, Note_off_c, 0, 86, 63
1, 98432, Note_on_c, 0, 52, 69
1, 98433, Note_on_c, 0, 89, 82
1, 98438, Note_off_c, 0, 95, 59
1, 98477, Note_on_c, 0, 86, 80
1, 98480, Control_c, 0, 64, 95
1, 98482, Note_on_c, 0, 59, 81
1, 98487, Note_off_c, 0, 52, 66
1, 98495, Control_c, 0, 64, 64
1, 98508, Note_on_c, 0, 62, 62
1, 98509, Note_off_c, 0, 92, 62
1, 98510, Control_c, 0, 64, 0
1, 98542, Note_off_c, 0, 89, 62
1, 98554, Control_c, 0, 64, 20
1, 98566, Note_on_c, 0, 83, 83
1, 98569, Control_c, 0, 64, 72
1, 98571, Note_off_c, 0, 59, 64
1, 98571, Note_off_c, 0, 86, 65
1, 98579, Note_on_c, 0, 68, 103
1, 98584, Control_c, 0, 64, 96
1, 98588, Note_off_c, 0, 62, 62
1, 98598, Control_c, 0, 64, 127
1, 98612, Note_off_c, 0, 83, 61
1, 98645, Note_on_c, 0, 80, 83
1, 98677, Note_off_c, 0, 68, 62
1, 98690, Note_on_c, 0, 77, 75
1, 98723, Note_on_c, 0, 74, 78
1, 98724, Note_off_c, 0, 80, 65
1, 98755, Note_off_c, 0, 77, 60
1, 98777, Note_off_c, 0, 74, 64
1, 98788, Note_on_c, 0, 71, 73
1, 98847, Note_on_c, 0, 68, 91
1, 98853, Note_off_c, 0, 71, 58
1, 98857, Control_c, 0, 64, 121
1, 98872, Control_c, 0, 64, 80
1, 98887, Note_on_c, 0, 65, 91
1, 98887, Control_c, 0, 64, 0
1, 98889, Note_off_c, 0, 68, 65
1, 98905, Note_on_c, 0, 64, 93
1, 98938, Note_off_c, 0, 65, 67
1, 98946, Control_c, 0, 64, 63
1, 98949, Note_off_c, 0, 64, 69
1, 98962, Control_c, 0, 64, 92
1, 98972, Note_on_c, 0, 68, 78
1, 98977, Control_c, 0, 64, 127
1, 99012, Note_on_c, 0, 71, 75
1, 99021, Note_off_c, 0, 68, 62
1, 99057, Note_on_c, 0, 74, 72
1, 99095, Note_off_c, 0, 71, 59
1, 99110, Note_on_c, 0, 80, 76
1, 99122, Note_off_c, 0, 74, 63
1, 99159, Note_off_c, 0, 80, 64
1, 99184, Control_c, 0, 64, 90
1, 99199, Control_c, 0, 64, 39
1, 99213, Control_c, 0, 64, 0
1, 99250, Note_on_c, 0, 56, 104
1, 99256, Note_on_c, 0, 44, 76
1, 99267, Note_on_c, 0, 84, 96
1, 99279, Note_off_c, 0, 44, 67
1, 99287, Control_c, 0, 64, 78
1, 99292, Note_off_c, 0, 56, 69
1, 99302, Control_c, 0, 64, 127
1, 99337, Note_off_c, 0, 84, 63
1, 99343, Note_on_c, 0, 87, 79
1, 99393, Note_on_c, 0, 72, 91
1, 99393, Note_on_c, 0, 96, 66
1, 99395, Note_off_c, 0, 87, 63
1, 99405, Note_on_c, 0, 63, 69
1, 99408, Note_on_c, 0, 68, 63
1, 99429, Note_off_c, 0, 96, 54
1, 99436, Note_off_c, 0, 63, 65
1, 99436, Note_off_c, 0, 72, 63
1, 99450, Note_on_c, 0, 87, 60
1, 99451, Note_off_c, 0, 68, 61
1, 99488, Note_off_c, 0, 87, 66
1, 99491, Note_on_c, 0, 84, 74
1, 99500, Poly_aftertouch_c, 0, 70, 0
1, 99522, Note_off_c, 0, 84, 59
1, 99533, Note_on_c, 0, 72, 96
1, 99544, Note_on_c, 0, 68, 74
1, 99548, Note_on_c, 0, 63, 68
1, 99557, Note_off_c, 0, 72, 62
1, 99571, Note_off_c, 0, 68, 65
1, 99572, Note_on_c, 0, 82, 68
1, 99572, Note_off_c, 0, 63, 70
1, 99597, Note_off_c, 0, 82, 66
1, 99637, Note_on_c, 0, 72, 93
1, 99645, Note_on_c, 0, 80, 78
1, 99649, Note_on_c, 0, 68, 76
1, 99659, Note_off_c, 0, 72, 65
1, 99660, Note_on_c, 0, 63, 63
1, 99670, Note_off_c, 0, 68, 68
1, 99678, Note_off_c, 0, 63, 66
1, 99688, Note_off_c, 0, 80, 59
1, 99709, Note_on_c, 0, 84, 63
1, 99748, Note_on_c, 0, 72, 80
1, 99753, Note_on_c, 0, 63, 70
1, 99754, Note_on_c, 0, 92, 66
1, 99760, Note_on_c, 0, 68, 61
1, 99769, Note_on_c, 0, 87, 50
1, 99770, Note_off_c, 0, 72, 70
1, 99792, Note_off_c, 0, 92, 60
1, 99795, Note_off_c, 0, 68, 64
1, 99801, Note_off_c, 0, 63, 49
1, 99806, Note_off_c, 0, 87, 64
1, 99810, Note_on_c, 0, 80, 82
1, 99824, Note_off_c, 0, 84, 59
1, 99843, Note_on_c, 0, 63, 45
1, 99845, Note_on_c, 0, 72, 78
1, 99852, Note_off_c, 0, 80, 65
1, 99870, Note_on_c, 0, 68, 71
1, 99878, Note_off_c, 0, 63, 64
1, 99887, Note_on_c, 0, 79, 72
1, 99903, Control_c, 0, 64, 87
1, 99911, Note_off_c, 0, 72, 62
1, 99918, Control_c, 0, 64, 0
1, 99936, Note_off_c, 0, 79, 63
1, 99958, Poly_aftertouch_c, 0, 70, 127
1, 99969, Note_on_c, 0, 65, 62
1, 99971, Note_on_c, 0, 73, 64
1, 99973, Note_on_c, 0, 74, 79
1, 99977, Control_c, 0, 64, 74
1, 99980, Note_on_c, 0, 64, 48
1, 99992, Control_c, 0, 64, 101
1, 99993, Note_off_c, 0, 74, 70
1, 99996, Note_on_c, 0, 77, 65
1, 100007, Control_c, 0, 64, 127
1, 100019, Note_off_c, 0, 64, 48
1, 100023, Note_off_c, 0, 73, 62
1, 100031, Note_off_c, 0, 77, 62
1, 100032, Note_on_c, 0, 80, 63
1, 100035, Note_off_c, 0, 65, 65
1, 100037, Poly_aftertouch_c, 0, 70, 0
1, 100038, Note_on_c, 0, 89, 62
1, 100045, Note_off_c, 0, 68, 65
1, 100068, Note_on_c, 0, 88, 45
1, 100082, Note_off_c, 0, 80, 59
1, 100092, Note_off_c, 0, 89, 66
1, 100096, Note_off_c, 0, 88, 35
1, 100098, Note_on_c, 0, 85, 70
1, 100159, Note_off_c, 0, 85, 65
1, 100165, Note_on_c, 0, 80, 79
1, 100198, Note_on_c, 0, 82, 73
1, 100219, Note_off_c, 0, 80, 63
1, 100236, Control_c, 0, 64, 117
1, 100251, Control_c, 0, 64, 80
1, 100252, Note_off_c, 0, 82, 64
1, 100266, Control_c, 0, 64, 0
1, 100295, Note_on_c, 0, 56, 84
1, 100300, Note_on_c, 0, 44, 81
1, 100311, Control_c, 0, 64, 56
1, 100322, Note_on_c, 0, 84, 85
1, 100326, Control_c, 0, 64, 83
1, 100329, Note_off_c, 0, 44, 65
1, 100339, Note_off_c, 0, 56, 66
1, 100341, Control_c, 0, 64, 127
1, 100374, Note_off_c, 0, 84, 64
1, 100380, Note_on_c, 0, 87, 77
1, 100418, Note_on_c, 0, 96, 73
1, 100436, Note_off_c, 0, 87, 61
1, 100440, Note_on_c, 0, 72, 86
1, 100448, Note_on_c, 0, 63, 69
1, 100453, Note_on_c, 0, 68, 62
1, 100459, Note_off_c, 0, 72, 71
1, 100469, Note_off_c, 0, 96, 60
1, 100477, Note_off_c, 0, 63, 67
1, 100484, Note_off_c, 0, 68, 65
1, 100489, Note_on_c, 0, 87, 53
1, 100520, Note_off_c, 0, 87, 65
1, 100522, Note_on_c, 0, 84, 75
1, 100551, Note_off_c, 0, 84, 63
1, 100554, Note_on_c, 0, 72, 80
1, 100564, Note_on_c, 0, 68, 67
1, 100576, Note_on_c, 0, 63, 55
1, 100580, Note_off_c, 0, 72, 67
1, 100593, Note_off_c, 0, 63, 64
1, 100596, Note_off_c, 0, 68, 65
1, 100597, Note_on_c, 0, 82, 72
1, 100623, Note_off_c, 0, 82, 67
1, 100672, Note_on_c, 0, 72, 75
1, 100674, Note_on_c, 0, 80, 71
1, 100679, Note_on_c, 0, 63, 55
1, 100696, Note_off_c, 0, 72, 69
1, 100697, Note_on_c, 0, 68, 44
1, 100700, Note_off_c, 0, 63, 63
1, 100716, Note_off_c, 0, 68, 63
1, 100721, Note_off_c, 0, 80, 62
1, 100737, Note_on_c, 0, 84, 60
1, 100776, Note_on_c, 0, 72, 66
1, 100780, Note_on_c, 0, 92, 73
1, 100781, Note_off_c, 0, 84, 58
1, 100786, Note_on_c, 0, 63, 56
1, 100794, Note_on_c, 0, 68, 45
1, 100803, Note_off_c, 0, 72, 68
1, 100824, Note_off_c, 0, 68, 55
1, 100840, Note_off_c, 0, 92, 64
1, 100845, Note_off_c, 0, 63, 48
1, 100848, Note_on_c, 0, 84, 32
1, 100874, Note_on_c, 0, 80, 70
1, 100882, Note_off_c, 0, 84, 45
1, 100897, Note_off_c, 0, 80, 70
1, 100898, Note_on_c, 0, 72, 51
1, 100916, Note_off_c, 0, 72, 62
1, 100920, Note_on_c, 0, 68, 56
1, 100949, Control_c, 0, 64, 109
1, 100949, Note_on_c, 0, 79, 76
1, 100964, Control_c, 0, 64, 80
1, 100985, Control_c, 0, 64, 0
1, 100992, Note_off_c, 0, 79, 58
1, 101014, Note_on_c, 0, 65, 65
1, 101014, Note_on_c, 0, 73, 71
1, 101026, Note_on_c, 0, 77, 73
1, 101043, Note_off_c, 0, 73, 64
1, 101044, Control_c, 0, 64, 49
1, 101059, Control_c, 0, 64, 71
1, 101074, Control_c, 0, 64, 87
1, 101077, Note_on_c, 0, 89, 72
1, 101079, Note_off_c, 0, 65, 64
1, 101079, Note_off_c, 0, 77, 57
1, 101083, Note_off_c, 0, 68, 63
1, 101089, Control_c, 0, 64, 102
1, 101104, Control_c, 0, 64, 109
1, 101115, Note_on_c, 0, 80, 25
1, 101119, Control_c, 0, 64, 116
1, 101134, Control_c, 0, 64, 123
1, 101145, Note_off_c, 0, 89, 65
1, 101149, Control_c, 0, 64, 127
1, 101152, Note_off_c, 0, 80, 46
1, 101153, Note_on_c, 0, 85, 73
1, 101212, Note_off_c, 0, 85, 65
1, 101228, Note_on_c, 0, 80, 68
1, 101264, Note_on_c, 0, 82, 70
1, 101270, Note_off_c, 0, 80, 62
1, 101291, Note_off_c, 0, 82, 66
1, 101297, Control_c, 0, 64, 107
1, 101311, Control_c, 0, 64, 81
1, 101326, Control_c, 0, 64, 0
1, 101335, Note_on_c, 0, 56, 61
1, 101364, Note_off_c, 0, 56, 65
1, 101366, Note_on_c, 0, 84, 78
1, 101387, Control_c, 0, 64, 62
1, 101402, Control_c, 0, 64, 73
1, 101416, Control_c, 0, 64, 86
1, 101420, Note_on_c, 0, 87, 72
1, 101423, Note_off_c, 0, 84, 64
1, 101431, Control_c, 0, 64, 100
1, 101446, Control_c, 0, 64, 109
1, 101452, Note_on_c, 0, 96, 74
1, 101460, Control_c, 0, 64, 117
1, 101461, Note_on_c, 0, 72, 60
1, 101470, Note_on_c, 0, 63, 52
1, 101470, Note_off_c, 0, 87, 63
1, 101475, Control_c, 0, 64, 127
1, 101478, Note_off_c, 0, 72, 64
1, 101493, Note_off_c, 0, 63, 58
1, 101500, Note_on_c, 0, 92, 70
1, 101514, Note_off_c, 0, 96, 61
1, 101537, Note_on_c, 0, 84, 77
1, 101549, Note_on_c, 0, 72, 77
1, 101553, Note_off_c, 0, 92, 63
1, 101564, Note_on_c, 0, 63, 73
1, 101565, Note_on_c, 0, 68, 68
1, 101574, Note_off_c, 0, 72, 68
1, 101592, Note_off_c, 0, 68, 68
1, 101593, Note_off_c, 0, 63, 64
1, 101601, Note_on_c, 0, 87, 76
1, 101605, Note_off_c, 0, 84, 64
1, 101641, Note_off_c, 0, 87, 62
1, 101667, Control_c, 0, 64, 93
1, 101669, Note_on_c, 0, 57, 89
1, 101679, Note_on_c, 0, 84, 91
1, 101682, Control_c, 0, 64, 66
1, 101697, Note_off_c, 0, 57, 64
1, 101697, Control_c, 0, 64, 0
1, 101749, Control_c, 0, 64, 39
1, 101751, Note_on_c, 0, 87, 80
1, 101757, Note_off_c, 0, 84, 65
1, 101764, Control_c, 0, 64, 73
1, 101776, Note_on_c, 0, 96, 78
1, 101779, Control_c, 0, 64, 90
1, 101794, Control_c, 0, 64, 118
1, 101795, Note_on_c, 0, 72, 76
1, 101798, Note_on_c, 0, 66, 71
1, 101808, Control_c, 0, 64, 127
1, 101816, Note_off_c, 0, 72, 67
1, 101816, Note_on_c, 0, 63, 50
1, 101825, Note_off_c, 0, 66, 67
1, 101836, Note_off_c, 0, 87, 57
1, 101837, Note_on_c, 0, 90, 70
1, 101841, Note_off_c, 0, 63, 57
1, 101845, Note_off_c, 0, 96, 63
1, 101868, Note_on_c, 0, 84, 82
1, 101881, Note_on_c, 0, 72, 76
1, 101890, Note_off_c, 0, 90, 63
1, 101903, Note_on_c, 0, 66, 76
1, 101906, Note_on_c, 0, 63, 72
1, 101915, Note_off_c, 0, 72, 59
1, 101926, Note_off_c, 0, 66, 70
1, 101930, Note_off_c, 0, 63, 69
1, 101933, Note_on_c, 0, 87, 87
1, 101933, Note_off_c, 0, 84, 66
1, 101956, Control_c, 0, 64, 108
1, 101971, Control_c, 0, 64, 80
1, 101972, Note_off_c, 0, 87, 64
1, 101986, Control_c, 0, 64, 0
1, 101998, Note_on_c, 0, 58, 88
1, 102013, Note_on_c, 0, 85, 85
1, 102031, Control_c, 0, 64, 56
1, 102045, Note_off_c, 0, 58, 65
1, 102046, Control_c, 0, 64, 75
1, 102060, Control_c, 0, 64, 97
1, 102072, Note_on_c, 0, 88, 69
1, 102075, Control_c, 0, 64, 127
1, 102085, Note_off_c, 0, 85, 63
1, 102123, Note_on_c, 0, 97, 61
1, 102129, Note_on_c, 0, 67, 57
1, 102138, Note_on_c, 0, 73, 62
1, 102154, Note_off_c, 0, 88, 61
1, 102157, Note_off_c, 0, 97, 66
1, 102159, Note_off_c, 0, 73, 39
1, 102165, Note_on_c, 0, 91, 68
1, 102165, Note_off_c, 0, 67, 63
1, 102201, Note_on_c, 0, 85, 78
1, 102205, Note_on_c, 0, 64, 67
1, 102210, Note_on_c, 0, 73, 90
1, 102210, Note_off_c, 0, 91, 55
1, 102246, Note_on_c, 0, 67, 28
1, 102256, Note_off_c, 0, 73, 59
1, 102259, Note_off_c, 0, 64, 64
1, 102269, Note_on_c, 0, 88, 74
1, 102269, Note_off_c, 0, 85, 64
1, 102278, Note_off_c, 0, 67, 50
1, 102295, Note_off_c, 0, 88, 64
1, 102313, Control_c, 0, 64, 93
1, 102323, Note_on_c, 0, 59, 87
1, 102328, Control_c, 0, 64, 64
1, 102343, Control_c, 0, 64, 0
1, 102347, Note_on_c, 0, 86, 96
1, 102347, Note_off_c, 0, 59, 66
1, 102387, Control_c, 0, 64, 40
1, 102401, Control_c, 0, 64, 76
1, 102407, Note_on_c, 0, 89, 81
1, 102410, Note_off_c, 0, 86, 62
1, 102416, Control_c, 0, 64, 93
1, 102431, Control_c, 0, 64, 115
1, 102436, Note_on_c, 0, 74, 81
1, 102439, Note_on_c, 0, 98, 74
1, 102442, Note_on_c, 0, 68, 76
1, 102446, Control_c, 0, 64, 127
1, 102460, Note_off_c, 0, 74, 65
1, 102475, Note_off_c, 0, 68, 62
1, 102490, Note_on_c, 0, 92, 75
1, 102494, Note_off_c, 0, 89, 59
1, 102512, Note_off_c, 0, 98, 67
1, 102536, Note_on_c, 0, 86, 83
1, 102545, Note_on_c, 0, 74, 84
1, 102549, Note_off_c, 0, 92, 64
1, 102551, Note_on_c, 0, 65, 77
1, 102560, Note_on_c, 0, 68, 74
1, 102568, Note_off_c, 0, 74, 65
1, 102576, Note_off_c, 0, 65, 67
1, 102591, Note_off_c, 0, 68, 67
1, 102597, Note_off_c, 0, 86, 65
1, 102611, Note_on_c, 0, 89, 65
1, 102616, Control_c, 0, 64, 102
1, 102626, Note_off_c, 0, 89, 67
1, 102631, Control_c, 0, 64, 76
1, 102646, Control_c, 0, 64, 0
1, 102661, Note_on_c, 0, 60, 84
1, 102687, Note_on_c, 0, 87, 76
1, 102690, Control_c, 0, 64, 57
1, 102699, Note_off_c, 0, 60, 60
1, 102705, Control_c, 0, 64, 75
1, 102720, Control_c, 0, 64, 96
1, 102721, Note_on_c, 0, 90, 81
1, 102735, Control_c, 0, 64, 127
1, 102743, Note_off_c, 0, 87, 60
1, 102763, Note_on_c, 0, 99, 72
1, 102791, Note_on_c, 0, 68, 35
1, 102798, Note_on_c, 0, 69, 61
1, 102806, Note_on_c, 0, 75, 36
1, 102811, Note_off_c, 0, 90, 63
1, 102814, Note_on_c, 0, 93, 67
1, 102821, Note_off_c, 0, 68, 55
1, 102830, Note_off_c, 0, 99, 66
1, 102857, Note_off_c, 0, 75, 0
1, 102859, Note_off_c, 0, 69, 0
1, 102866, Note_on_c, 0, 75, 65
1, 102871, Note_on_c, 0, 87, 74
1, 102872, Note_on_c, 0, 66, 82
1, 102873, Note_off_c, 0, 93, 63
1, 102888, Note_on_c, 0, 69, 26
1, 102910, Note_off_c, 0, 75, 62
1, 102912, Note_off_c, 0, 69, 59
1, 102923, Note_off_c, 0, 66, 66
1, 102923, Note_off_c, 0, 87, 63
1, 102961, Note_on_c, 0, 91, 35
1, 102973, Control_c, 0, 64, 104
1, 102988, Control_c, 0, 64, 73
1, 102991, Note_on_c, 0, 61, 83
1, 102991, Note_off_c, 0, 91, 34
1, 103003, Control_c, 0, 64, 0
1, 103003, Note_on_c, 0, 88, 89
1, 103028, Note_off_c, 0, 61, 64
1, 103047, Control_c, 0, 64, 50
1, 103060, Note_on_c, 0, 91, 82
1, 103062, Control_c, 0, 64, 71
1, 103069, Note_off_c, 0, 88, 61
1, 103077, Control_c, 0, 64, 89
1, 103092, Control_c, 0, 64, 107
1, 103097, Note_on_c, 0, 100, 78
1, 103106, Control_c, 0, 64, 118
1, 103110, Note_on_c, 0, 76, 79
1, 103121, Control_c, 0, 64, 127
1, 103125, Note_on_c, 0, 67, 62
1, 103134, Note_on_c, 0, 70, 32
1, 103134, Note_off_c, 0, 76, 67
1, 103144, Note_off_c, 0, 91, 60
1, 103147, Note_off_c, 0, 67, 63
1, 103163, Note_on_c, 0, 94, 66
1, 103166, Note_off_c, 0, 70, 47
1, 103168, Note_off_c, 0, 100, 63
1, 103196, Note_on_c, 0, 88, 71
1, 103208, Note_off_c, 0, 94, 61
1, 103218, Note_on_c, 0, 76, 68
1, 103224, Note_on_c, 0, 70, 74
1, 103242, Note_off_c, 0, 76, 65
1, 103271, Note_off_c, 0, 88, 63
1, 103276, Note_off_c, 0, 70, 61
1, 103279, Note_on_c, 0, 93, 64
1, 103280, Note_on_c, 0, 91, 59
1, 103305, Note_off_c, 0, 93, 64
1, 103307, Note_off_c, 0, 91, 61
1, 103317, Poly_aftertouch_c, 0, 67, 0
1, 103336, Control_c, 0, 64, 120
1, 103351, Control_c, 0, 64, 88
1, 103355, Note_on_c, 0, 61, 77
1, 103366, Control_c, 0, 64, 50
1, 103368, Note_on_c, 0, 89, 80
1, 103381, Control_c, 0, 64, 0
1, 103382, Note_off_c, 0, 61, 66
1, 103425, Control_c, 0, 64, 66
1, 103431, Note_on_c, 0, 92, 80
1, 103439, Control_c, 0, 64, 77
1, 103447, Note_off_c, 0, 89, 49
1, 103454, Control_c, 0, 64, 92
1, 103455, Note_on_c, 0, 101, 69
1, 103469, Control_c, 0, 64, 102
1, 103479, Note_on_c, 0, 77, 84
1, 103480, Note_off_c, 0, 92, 64
1, 103483, Note_on_c, 0, 71, 64
1, 103483, Control_c, 0, 64, 108
1, 103491, Note_on_c, 0, 68, 70
1, 103498, Control_c, 0, 64, 112
1, 103504, Note_off_c, 0, 77, 62
1, 103510, Note_on_c, 0, 99, 76
1, 103512, Control_c, 0, 64, 114
1, 103520, Note_off_c, 0, 68, 66
1, 103524, Note_off_c, 0, 71, 57
1, 103527, Control_c, 0, 64, 116
1, 103542, Control_c, 0, 64, 117
1, 103545, Note_off_c, 0, 101, 64
1, 103557, Control_c, 0, 64, 118
1, 103563, Note_on_c, 0, 97, 78
1, 103572, Control_c, 0, 64, 120
1, 103575, Note_on_c, 0, 77, 93
1, 103576, Note_on_c, 0, 71, 74
1, 103587, Control_c, 0, 64, 120
1, 103596, Note_on_c, 0, 68, 67
1, 103597, Note_off_c, 0, 99, 67
1, 103602, Control_c, 0, 64, 121
1, 103612, Note_off_c, 0, 77, 60
1, 103614, Note_off_c, 0, 68, 68
1, 103622, Note_on_c, 0, 96, 75
1, 103623, Note_off_c, 0, 71, 60
1, 103636, Note_off_c, 0, 97, 64
1, 103646, Control_c, 0, 64, 121
1, 103667, Note_on_c, 0, 77, 94
1, 103670, Note_on_c, 0, 71, 77
1, 103679, Note_on_c, 0, 68, 81
1, 103680, Note_on_c, 0, 95, 85
1, 103683, Note_off_c, 0, 96, 64
1, 103706, Note_off_c, 0, 77, 66
1, 103711, Note_off_c, 0, 68, 64
1, 103720, Note_off_c, 0, 71, 62
1, 103725, Note_off_c, 0, 95, 62
1, 103755, Note_on_c, 0, 94, 81
1, 103766, Note_on_c, 0, 77, 95
1, 103767, Note_on_c, 0, 71, 81
1, 103778, Note_on_c, 0, 97, 80
1, 103782, Note_on_c, 0, 68, 76
1, 103804, Note_off_c, 0, 68, 64
1, 103810, Note_off_c, 0, 77, 63
1, 103821, Note_off_c, 0, 71, 61
1, 103825, Control_c, 0, 64, 122
1, 103828, Note_on_c, 0, 95, 78
1, 103828, Note_off_c, 0, 94, 66
1, 103840, Control_c, 0, 64, 123
1, 103846, Note_on_c, 0, 96, 38
1, 103854, Control_c, 0, 64, 124
1, 103858, Note_off_c, 0, 97, 63
1, 103862, Note_on_c, 0, 77, 93
1, 103866, Note_on_c, 0, 91, 82
1, 103868, Note_on_c, 0, 71, 79
1, 103869, Control_c, 0, 64, 125
1, 103876, Note_off_c, 0, 96, 35
1, 103879, Note_off_c, 0, 95, 67
1, 103884, Control_c, 0, 64, 127
1, 103885, Note_on_c, 0, 68, 75
1, 103909, Note_off_c, 0, 77, 64
1, 103909, Note_off_c, 0, 68, 68
1, 103925, Note_off_c, 0, 71, 62
1, 103929, Note_off_c, 0, 91, 61
1, 103936, Note_on_c, 0, 92, 78
1, 103943, Control_c, 0, 64, 112
1, 103958, Control_c, 0, 64, 89
1, 103967, Note_on_c, 0, 77, 102
1, 103972, Note_on_c, 0, 71, 80
1, 103980, Control_c, 0, 64, 62
1, 103987, Note_on_c, 0, 94, 74
1, 103992, Note_on_c, 0, 68, 79
1, 103995, Control_c, 0, 64, 0
1, 104004, Note_off_c, 0, 92, 67
1, 104040, Control_c, 0, 64, 48
1, 104041, Note_off_c, 0, 77, 61
1, 104051, Note_on_c, 0, 92, 65
1, 104054, Control_c, 0, 64, 72
1, 104069, Control_c, 0, 64, 88
1, 104072, Note_off_c, 0, 94, 65
1, 104080, Note_off_c, 0, 71, 59
1, 104084, Control_c, 0, 64, 110
1, 104092, Note_off_c, 0, 68, 55
1, 104096, Note_on_c, 0, 88, 72
1, 104099, Control_c, 0, 64, 127
1, 104109, Note_off_c, 0, 92, 64
1, 104153, Note_on_c, 0, 89, 66
1, 104192, Note_off_c, 0, 88, 61
1, 104200, Note_on_c, 0, 94, 66
1, 104228, Note_off_c, 0, 89, 64
1, 104231, Note_off_c, 0, 94, 64
1, 104242, Note_on_c, 0, 92, 60
1, 104263, Note_off_c, 0, 92, 66
1, 104306, Control_c, 0, 64, 110
1, 104321, Control_c, 0, 64, 85
1, 104322, Note_on_c, 0, 61, 57
1, 104332, Note_on_c, 0, 90, 66
1, 104335, Control_c, 0, 64, 60
1, 104350, Control_c, 0, 64, 0
1, 104359, Note_off_c, 0, 61, 54
1, 104384, Note_on_c, 0, 94, 71
1, 104395, Control_c, 0, 64, 51
1, 104397, Note_off_c, 0, 90, 56
1, 104410, Control_c, 0, 64, 72
1, 104418, Note_on_c, 0, 66, 72
1, 104425, Note_on_c, 0, 99, 68
1, 104425, Control_c, 0, 64, 84
1, 104440, Control_c, 0, 64, 97
1, 104453, Note_off_c, 0, 66, 61
1, 104454, Control_c, 0, 64, 105
1, 104469, Control_c, 0, 64, 114
1, 104476, Note_on_c, 0, 97, 69
1, 104484, Control_c, 0, 64, 127
1, 104499, Control_c, 0, 64, 127
1, 104500, Note_off_c, 0, 99, 65
1, 104508, Note_on_c, 0, 70, 91
1, 104538, Note_off_c, 0, 94, 65
1, 104540, Note_off_c, 0, 97, 65
1, 104546, Note_off_c, 0, 70, 61
1, 104571, Note_on_c, 0, 85, 68
1, 104611, Note_on_c, 0, 73, 92
1, 104637, Note_on_c, 0, 90, 71
1, 104640, Note_off_c, 0, 73, 64
1, 104650, Note_off_c, 0, 85, 65
1, 104656, Note_on_c, 0, 95, 69
1, 104701, Note_on_c, 0, 94, 72
1, 104705, Note_off_c, 0, 95, 60
1, 104744, Note_on_c, 0, 77, 63
1, 104761, Note_off_c, 0, 77, 61
1, 104762, Note_off_c, 0, 90, 62
1, 104763, Note_off_c, 0, 94, 65
1, 104788, Note_on_c, 0, 82, 79
1, 104843, Note_on_c, 0, 80, 93
1, 104853, Note_on_c, 0, 85, 74
1, 104876, Note_off_c, 0, 80, 63
1, 104901, Note_on_c, 0, 92, 70
1, 104927, Note_off_c, 0, 82, 41
1, 104937, Note_off_c, 0, 85, 63
1, 104937, Control_c, 0, 64, 98
1, 104940, Note_on_c, 0, 90, 75
1, 104951, Control_c, 0, 64, 74
1, 104960, Note_off_c, 0, 92, 63
1, 104966, Control_c, 0, 64, 0
1, 104967, Note_on_c, 0, 81, 81
1, 104988, Note_on_c, 0, 84, 77
1, 105008, Note_off_c, 0, 90, 64
1, 105010, Control_c, 0, 64, 52
1, 105025, Control_c, 0, 64, 67
1, 105040, Control_c, 0, 64, 77
1, 105055, Control_c, 0, 64, 91
1, 105058, Note_on_c, 0, 87, 69
1, 105064, Note_off_c, 0, 84, 61
1, 105070, Control_c, 0, 64, 105
1, 105084, Control_c, 0, 64, 127
1, 105088, Note_on_c, 0, 92, 67
1, 105110, Note_off_c, 0, 87, 63
1, 105114, Note_on_c, 0, 90, 76
1, 105115, Note_off_c, 0, 92, 68
1, 105146, Note_off_c, 0, 81, 52
1, 105152, Note_off_c, 0, 90, 55
1, 105157, Note_on_c, 0, 72, 69
1, 105169, Note_on_c, 0, 79, 19
1, 105173, Note_on_c, 0, 87, 71
1, 105185, Note_off_c, 0, 72, 67
1, 105212, Note_off_c, 0, 79, 36
1, 105227, Note_off_c, 0, 87, 64
1, 105238, Note_on_c, 0, 90, 72
1, 105247, Control_c, 0, 64, 108
1, 105262, Control_c, 0, 64, 82
1, 105263, Note_off_c, 0, 90, 65
1, 105277, Control_c, 0, 64, 0
1, 105277, Note_on_c, 0, 61, 81
1, 105299, Note_on_c, 0, 89, 89
1, 105299, Note_off_c, 0, 61, 70
1, 105337, Control_c, 0, 64, 67
1, 105352, Control_c, 0, 64, 80
1, 105356, Note_on_c, 0, 92, 89
1, 105361, Note_off_c, 0, 89, 65
1, 105367, Control_c, 0, 64, 100
1, 105381, Note_on_c, 0, 77, 82
1, 105382, Control_c, 0, 64, 118
1, 105396, Note_on_c, 0, 71, 63
1, 105396, Control_c, 0, 64, 127
1, 105404, Note_off_c, 0, 92, 66
1, 105405, Note_on_c, 0, 101, 80
1, 105423, Note_off_c, 0, 77, 59
1, 105427, Note_on_c, 0, 70, 35
1, 105431, Note_off_c, 0, 71, 61
1, 105442, Note_on_c, 0, 99, 75
1, 105461, Note_off_c, 0, 70, 32
1, 105489, Note_on_c, 0, 97, 82
1, 105489, Note_off_c, 0, 101, 66
1, 105501, Note_on_c, 0, 77, 87
1, 105506, Note_on_c, 0, 71, 66
1, 105516, Note_on_c, 0, 68, 70
1, 105525, Note_off_c, 0, 99, 67
1, 105528, Note_off_c, 0, 77, 60
1, 105538, Note_off_c, 0, 68, 67
1, 105543, Note_off_c, 0, 71, 60
1, 105545, Note_on_c, 0, 96, 78
1, 105595, Note_off_c, 0, 97, 56
1, 105599, Note_on_c, 0, 77, 100
1, 105599, Note_on_c, 0, 71, 81
1, 105602, Note_on_c, 0, 95, 85
1, 105608, Note_off_c, 0, 96, 64
1, 105608, Note_on_c, 0, 68, 78
1, 105632, Note_off_c, 0, 77, 65
1, 105635, Note_off_c, 0, 68, 67
1, 105646, Note_off_c, 0, 71, 62
1, 105650, Note_off_c, 0, 95, 62
1, 105679, Note_on_c, 0, 94, 85
1, 105697, Note_on_c, 0, 77, 101
1, 105698, Note_on_c, 0, 71, 84
1, 105709, Note_on_c, 0, 97, 77
1, 105715, Note_on_c, 0, 68, 79
1, 105733, Note_off_c, 0, 68, 70
1, 105737, Note_off_c, 0, 77, 65
1, 105745, Note_on_c, 0, 95, 83
1, 105747, Note_off_c, 0, 71, 62
1, 105760, Note_off_c, 0, 94, 61
1, 105783, Note_off_c, 0, 97, 63
1, 105795, Note_on_c, 0, 77, 97
1, 105797, Note_on_c, 0, 91, 84
1, 105799, Note_on_c, 0, 71, 81
1, 105807, Note_off_c, 0, 95, 66
1, 105811, Note_on_c, 0, 68, 79
1, 105836, Note_off_c, 0, 68, 61
1, 105842, Note_off_c, 0, 77, 63
1, 105861, Note_off_c, 0, 71, 61
1, 105864, Note_on_c, 0, 92, 82
1, 105877, Note_off_c, 0, 91, 53
1, 105877, Control_c, 0, 64, 115
1, 105892, Control_c, 0, 64, 90
1, 105906, Control_c, 0, 64, 65
1, 105909, Note_on_c, 0, 94, 75
1, 105918, Note_on_c, 0, 77, 100
1, 105921, Control_c, 0, 64, 0
1, 105924, Note_on_c, 0, 71, 75
1, 105936, Note_on_c, 0, 68, 74
1, 105944, Note_off_c, 0, 92, 67
1, 105966, Control_c, 0, 64, 54
1, 105981, Control_c, 0, 64, 71
1, 105984, Note_off_c, 0, 77, 60
1, 105993, Note_on_c, 0, 92, 61
1, 105996, Control_c, 0, 64, 85
1, 106005, Note_off_c, 0, 94, 64
1, 106010, Control_c, 0, 64, 105
1, 106019, Note_on_c, 0, 88, 70
1, 106025, Control_c, 0, 64, 127
1, 106031, Note_off_c, 0, 68, 58
1, 106040, Note_off_c, 0, 71, 60
1, 106050, Note_off_c, 0, 92, 58
1, 106106, Note_on_c, 0, 89, 68
1, 106133, Note_on_c, 0, 94, 64
1, 106169, Note_off_c, 0, 88, 58
1, 106179, Note_off_c, 0, 89, 64
1, 106186, Note_on_c, 0, 92, 63
1, 106195, Note_off_c, 0, 94, 64
1, 106212, Note_off_c, 0, 92, 69
1, 106255, Control_c, 0, 64, 99
1, 106270, Control_c, 0, 64, 78
1, 106277, Note_on_c, 0, 61, 65
1, 106285, Note_on_c, 0, 90, 69
1, 106285, Control_c, 0, 64, 15
1, 106300, Control_c, 0, 64, 0
1, 106319, Note_off_c, 0, 61, 57
1, 106344, Control_c, 0, 64, 64
1, 106351, Note_on_c, 0, 94, 70
1, 106359, Note_off_c, 0, 90, 56
1, 106359, Control_c, 0, 64, 76
1, 106374, Control_c, 0, 64, 92
1, 106384, Note_on_c, 0, 66, 76
1, 106389, Control_c, 0, 64, 109
1, 106398, Note_on_c, 0, 98, 62
1, 106404, Control_c, 0, 64, 125
1, 106416, Note_on_c, 0, 97, 28
1, 106419, Control_c, 0, 64, 127
1, 106431, Note_off_c, 0, 98, 62
1, 106437, Note_off_c, 0, 66, 63
1, 106469, Note_off_c, 0, 94, 64
1, 106481, Note_on_c, 0, 70, 93
1, 106497, Note_off_c, 0, 97, 64
1, 106518, Note_off_c, 0, 70, 65
1, 106523, Note_on_c, 0, 85, 67
1, 106585, Note_on_c, 0, 90, 74
1, 106586, Note_on_c, 0, 73, 98
1, 106597, Note_on_c, 0, 95, 69
1, 106603, Note_off_c, 0, 85, 64
1, 106615, Note_off_c, 0, 73, 67
1, 106647, Note_on_c, 0, 94, 75
1, 106656, Note_off_c, 0, 95, 62
1, 106702, Note_off_c, 0, 90, 61
1, 106702, Note_on_c, 0, 78, 99
1, 106707, Note_off_c, 0, 94, 65
1, 106734, Note_on_c, 0, 82, 76
1, 106747, Note_off_c, 0, 78, 64
1, 106791, Note_on_c, 0, 85, 76
1, 106803, Note_off_c, 0, 82, 0
1, 106841, Poly_aftertouch_c, 0, 82, 127
1, 106842, Note_on_c, 0, 92, 71
1, 106869, Note_off_c, 0, 85, 63
1, 106875, Note_on_c, 0, 90, 74
1, 106893, Control_c, 0, 64, 99
1, 106896, Poly_aftertouch_c, 0, 82, 0
1, 106902, Note_off_c, 0, 92, 61
1, 106908, Control_c, 0, 64, 75
1, 106923, Control_c, 0, 64, 0
1, 106933, Note_on_c, 0, 84, 75
1, 106949, Note_off_c, 0, 90, 63
1, 106968, Control_c, 0, 64, 49
1, 106979, Note_on_c, 0, 81, 62
1, 106991, Control_c, 0, 64, 68
1, 107003, Note_on_c, 0, 87, 66
1, 107006, Control_c, 0, 64, 81
1, 107021, Control_c, 0, 64, 97
1, 107023, Note_off_c, 0, 84, 56
1, 107035, Note_on_c, 0, 92, 68
1, 107035, Control_c, 0, 64, 113
1, 107050, Control_c, 0, 64, 127
1, 107061, Note_off_c, 0, 87, 63
1, 107064, Note_off_c, 0, 92, 61
1, 107068, Note_on_c, 0, 90, 75
1, 107102, Note_off_c, 0, 81, 54
1, 107108, Note_off_c, 0, 90, 55
1, 107127, Note_on_c, 0, 87, 68
1, 107139, Note_on_c, 0, 78, 46
1, 107150, Note_on_c, 0, 72, 69
1, 107166, Note_off_c, 0, 78, 59
1, 107175, Note_off_c, 0, 72, 70
1, 107185, Note_off_c, 0, 87, 64
1, 107192, Note_on_c, 0, 90, 68
1, 107208, Note_off_c, 0, 90, 66
1, 107212, Control_c, 0, 64, 120
1, 107227, Control_c, 0, 64, 93
1, 107242, Control_c, 0, 64, 70
1, 107257, Note_on_c, 0, 89, 83
1, 107257, Control_c, 0, 64, 0
1, 107261, Note_on_c, 0, 61, 80
1, 107285, Note_off_c, 0, 61, 69
1, 107301, Control_c, 0, 64, 54
1, 107312, Note_on_c, 0, 92, 86
1, 107316, Control_c, 0, 64, 71
1, 107317, Note_off_c, 0, 89, 65
1, 107331, Control_c, 0, 64, 85
1, 107346, Control_c, 0, 64, 104
1, 107361, Control_c, 0, 64, 122
1, 107364, Note_on_c, 0, 101, 78
1, 107364, Note_on_c, 0, 77, 84
1, 107366, Note_off_c, 0, 92, 66
1, 107376, Control_c, 0, 64, 127
1, 107383, Note_on_c, 0, 71, 53
1, 107385, Note_on_c, 0, 68, 55
1, 107394, Note_off_c, 0, 77, 57
1, 107409, Note_off_c, 0, 68, 60
1, 107409, Note_off_c, 0, 71, 63
1, 107410, Note_on_c, 0, 99, 72
1, 107450, Note_off_c, 0, 101, 64
1, 107456, Note_on_c, 0, 97, 75
1, 107484, Note_off_c, 0, 99, 66
1, 107486, Note_on_c, 0, 77, 72
1, 107488, Note_on_c, 0, 68, 60
1, 107496, Note_on_c, 0, 71, 60
1, 107504, Note_on_c, 0, 96, 78
1, 107504, Note_off_c, 0, 77, 65
1, 107520, Note_off_c, 0, 68, 63
1, 107523, Note_off_c, 0, 97, 59
1, 107525, Note_off_c, 0, 71, 57
1, 107539, Control_c, 0, 64, 121
1, 107553, Control_c, 0, 64, 95
1, 107568, Control_c, 0, 64, 73
1, 107571, Note_off_c, 0, 96, 63
1, 107578, Note_on_c, 0, 95, 77
1, 107583, Control_c, 0, 64, 0
1, 107597, Note_on_c, 0, 77, 71
1, 107605, Note_on_c, 0, 68, 61
1, 107605, Note_on_c, 0, 71, 68
1, 107627, Control_c, 0, 64, 51
1, 107635, Note_off_c, 0, 95, 55
1, 107642, Control_c, 0, 64, 70
1, 107643, Note_off_c, 0, 68, 64
1, 107650, Note_on_c, 0, 94, 79
1, 107657, Control_c, 0, 64, 85
1, 107671, Note_off_c, 0, 77, 62
1, 107671, Control_c, 0, 64, 106
1, 107672, Note_off_c, 0, 71, 60
1, 107676, Note_on_c, 0, 97, 68
1, 107686, Control_c, 0, 64, 117
1, 107701, Control_c, 0, 64, 121
1, 107724, Control_c, 0, 64, 122
1, 107736, Note_on_c, 0, 95, 79
1, 107739, Control_c, 0, 64, 123
1, 107746, Note_off_c, 0, 94, 58
1, 107754, Control_c, 0, 64, 124
1, 107769, Control_c, 0, 64, 127
1, 107777, Note_off_c, 0, 97, 61
1, 107790, Note_off_c, 0, 95, 66
1, 107794, Note_on_c, 0, 91, 77
1, 107864, Note_on_c, 0, 92, 81
1, 107870, Note_off_c, 0, 91, 57
1, 107873, Control_c, 0, 64, 111
1, 107888, Control_c, 0, 64, 91
1, 107902, Control_c, 0, 64, 72
1, 107911, Note_off_c, 0, 92, 67
1, 107917, Control_c, 0, 64, 0
1, 107921, Note_on_c, 0, 95, 90
1, 107924, Note_on_c, 0, 87, 82
1, 107962, Control_c, 0, 64, 57
1, 107972, Note_on_c, 0, 85, 64
1, 107976, Control_c, 0, 64, 71
1, 107980, Note_off_c, 0, 87, 64
1, 107990, Note_on_c, 0, 94, 78
1, 107991, Control_c, 0, 64, 85
1, 108006, Control_c, 0, 64, 105
1, 108021, Control_c, 0, 64, 127
1, 108033, Note_on_c, 0, 92, 75
1, 108033, Note_off_c, 0, 95, 64
1, 108039, Note_off_c, 0, 85, 65
1, 108056, Note_on_c, 0, 83, 65
1, 108082, Note_off_c, 0, 94, 63
1, 108086, Note_on_c, 0, 90, 82
1, 108112, Note_off_c, 0, 92, 63
1, 108116, Note_on_c, 0, 82, 82
1, 108118, Note_off_c, 0, 83, 61
1, 108153, Note_off_c, 0, 90, 63
1, 108154, Note_on_c, 0, 89, 74
1, 108180, Note_on_c, 0, 80, 72
1, 108211, Note_off_c, 0, 89, 57
1, 108212, Note_on_c, 0, 87, 75
1, 108213, Control_c, 0, 64, 115
1, 108214, Note_on_c, 0, 78, 80
1, 108214, Note_off_c, 0, 82, 63
1, 108228, Control_c, 0, 64, 92
1, 108239, Note_on_c, 0, 92, 81
1, 108243, Control_c, 0, 64, 71
1, 108244, Note_off_c, 0, 80, 64
1, 108258, Control_c, 0, 64, 55
1, 108273, Control_c, 0, 64, 60
1, 108275, Note_on_c, 0, 83, 64
1, 108283, Note_off_c, 0, 78, 63
1, 108288, Control_c, 0, 64, 67
1, 108291, Note_on_c, 0, 81, 62
1, 108302, Control_c, 0, 64, 74
1, 108305, Note_on_c, 0, 90, 77
1, 108306, Note_off_c, 0, 87, 62
1, 108317, Control_c, 0, 64, 87
1, 108332, Control_c, 0, 64, 105
1, 108336, Note_on_c, 0, 82, 79
1, 108347, Control_c, 0, 64, 120
1, 108348, Note_off_c, 0, 81, 0
1, 108348, Note_on_c, 0, 81, 25
1, 108351, Note_on_c, 0, 89, 63
1, 108353, Note_off_c, 0, 92, 64
1, 108358, Note_off_c, 0, 82, 67
1, 108360, Note_off_c, 0, 90, 64
1, 108362, Control_c, 0, 64, 127
1, 108364, Note_off_c, 0, 83, 56
1, 108366, Note_on_c, 0, 88, 52
1, 108392, Note_off_c, 0, 88, 53
1, 108399, Note_on_c, 0, 80, 54
1, 108399, Note_off_c, 0, 89, 65
1, 108407, Note_on_c, 0, 77, 75
1, 108413, Note_off_c, 0, 81, 62
1, 108419, Note_off_c, 0, 80, 64
1, 108425, Note_on_c, 0, 87, 55
1, 108426, Note_off_c, 0, 87, 127
1, 108437, Note_off_c, 0, 77, 62
1, 108440, Note_on_c, 0, 88, 71
1, 108473, Poly_aftertouch_c, 0, 87, 0
1, 108479, Note_on_c, 0, 85, 89
1, 108485, Note_on_c, 0, 77, 66
1, 108506, Note_off_c, 0, 88, 63
1, 108540, Note_on_c, 0, 75, 69
1, 108547, Note_on_c, 0, 83, 74
1, 108547, Control_c, 0, 64, 104
1, 108561, Note_off_c, 0, 77, 49
1, 108562, Control_c, 0, 64, 83
1, 108574, Note_off_c, 0, 85, 56
1, 108577, Control_c, 0, 64, 63
1, 108585, Note_off_c, 0, 75, 64
1, 108586, Note_on_c, 0, 89, 74
1, 108590, Note_on_c, 0, 80, 74
1, 108592, Control_c, 0, 64, 0
1, 108634, Note_on_c, 0, 78, 75
1, 108637, Control_c, 0, 64, 63
1, 108645, Note_on_c, 0, 87, 77
1, 108646, Note_off_c, 0, 83, 60
1, 108651, Note_off_c, 0, 80, 66
1, 108651, Control_c, 0, 64, 74
1, 108666, Control_c, 0, 64, 87
1, 108681, Control_c, 0, 64, 101
1, 108684, Note_off_c, 0, 78, 64
1, 108687, Note_on_c, 0, 77, 66
1, 108691, Note_off_c, 0, 89, 63
1, 108696, Control_c, 0, 64, 108
1, 108699, Note_on_c, 0, 85, 72
1, 108711, Control_c, 0, 64, 113
1, 108725, Control_c, 0, 64, 115
1, 108732, Note_off_c, 0, 87, 64
1, 108740, Control_c, 0, 64, 117
1, 108750, Note_on_c, 0, 83, 74
1, 108753, Note_off_c, 0, 77, 60
1, 108755, Control_c, 0, 64, 118
1, 108765, Note_off_c, 0, 85, 64
1, 108770, Control_c, 0, 64, 118
1, 108776, Note_on_c, 0, 75, 65
1, 108785, Control_c, 0, 64, 121
1, 108800, Control_c, 0, 64, 127
1, 108813, Note_off_c, 0, 83, 57
1, 108827, Note_on_c, 0, 82, 75
1, 108836, Note_on_c, 0, 73, 61
1, 108857, Note_off_c, 0, 75, 63
1, 108872, Note_off_c, 0, 73, 64
1, 108874, Control_c, 0, 64, 115
1, 108875, Note_on_c, 0, 71, 61
1, 108887, Note_on_c, 0, 80, 77
1, 108889, Control_c, 0, 64, 97
1, 108899, Note_off_c, 0, 82, 56
1, 108904, Control_c, 0, 64, 79
1, 108919, Control_c, 0, 64, 46
1, 108933, Control_c, 0, 64, 0
1, 108935, Note_off_c, 0, 71, 55
1, 108942, Note_on_c, 0, 83, 62
1, 108945, Note_on_c, 0, 75, 28
1, 108948, Note_on_c, 0, 73, 66
1, 108956, Note_off_c, 0, 80, 65
1, 108963, Control_c, 0, 64, 23
1, 108977, Control_c, 0, 64, 64
1, 108981, Note_off_c, 0, 75, 31
1, 108982, Note_off_c, 0, 73, 64
1, 108992, Control_c, 0, 64, 74
1, 108997, Note_on_c, 0, 82, 72
1, 109007, Control_c, 0, 64, 88
1, 109015, Note_on_c, 0, 72, 14
1, 109022, Control_c, 0, 64, 97
1, 109032, Note_on_c, 0, 71, 66
1, 109037, Control_c, 0, 64, 101
1, 109039, Note_off_c, 0, 83, 61
1, 109051, Note_on_c, 0, 80, 68
1, 109051, Control_c, 0, 64, 104
1, 109057, Note_off_c, 0, 72, 30
1, 109066, Control_c, 0, 64, 105
1, 109081, Control_c, 0, 64, 106
1, 109086, Note_off_c, 0, 82, 63
1, 109087, Note_on_c, 0, 78, 75
1, 109096, Control_c, 0, 64, 107
1, 109101, Note_off_c, 0, 71, 60
1, 109105, Note_on_c, 0, 70, 71
1, 109111, Control_c, 0, 64, 109
1, 109112, Note_off_c, 0, 80, 62
1, 109126, Control_c, 0, 64, 113
1, 109140, Control_c, 0, 64, 118
1, 109150, Note_off_c, 0, 78, 63
1, 109155, Note_on_c, 0, 77, 69
1, 109155, Control_c, 0, 64, 121
1, 109170, Control_c, 0, 64, 122
1, 109195, Note_on_c, 0, 68, 39
1, 109200, Control_c, 0, 64, 121
1, 109206, Note_on_c, 0, 66, 70
1, 109211, Note_on_c, 0, 75, 73
1, 109211, Note_off_c, 0, 70, 61
1, 109222, Control_c, 0, 64, 111
1, 109237, Control_c, 0, 64, 96
1, 109238, Note_off_c, 0, 68, 51
1, 109239, Note_off_c, 0, 77, 55
1, 109248, Note_on_c, 0, 80, 76
1, 109251, Control_c, 0, 64, 78
1, 109266, Control_c, 0, 64, 59
1, 109274, Note_on_c, 0, 71, 60
1, 109277, Note_off_c, 0, 66, 65
1, 109281, Control_c, 0, 64, 0
1, 109292, Note_off_c, 0, 75, 65
1, 109311, Control_c, 0, 64, 54
1, 109313, Note_on_c, 0, 78, 71
1, 109325, Control_c, 0, 64, 66
1, 109335, Note_on_c, 0, 70, 74
1, 109340, Control_c, 0, 64, 76
1, 109351, Note_on_c, 0, 77, 76
1, 109353, Note_off_c, 0, 71, 59
1, 109353, Note_off_c, 0, 80, 64
1, 109356, Control_c, 0, 64, 90
1, 109369, Note_off_c, 0, 78, 62
1, 109371, Control_c, 0, 64, 104
1, 109386, Control_c, 0, 64, 113
1, 109400, Note_on_c, 0, 66, 68
1, 109400, Control_c, 0, 64, 119
1, 109406, Note_on_c, 0, 68, 36
1, 109407, Note_off_c, 0, 70, 61
1, 109411, Note_off_c, 0, 77, 60
1, 109415, Control_c, 0, 64, 121
1, 109424, Note_on_c, 0, 75, 80
1, 109427, Note_off_c, 0, 66, 67
1, 109430, Control_c, 0, 64, 122
1, 109439, Note_off_c, 0, 68, 53
1, 109445, Control_c, 0, 64, 124
1, 109460, Control_c, 0, 64, 127
1, 109479, Note_on_c, 0, 65, 64
1, 109482, Note_on_c, 0, 73, 84
1, 109509, Note_off_c, 0, 75, 64
1, 109512, Note_on_c, 0, 63, 65
1, 109535, Note_off_c, 0, 65, 60
1, 109541, Note_on_c, 0, 71, 72
1, 109548, Control_c, 0, 64, 107
1, 109563, Poly_aftertouch_c, 0, 67, 0
1, 109563, Control_c, 0, 64, 89
1, 109565, Note_on_c, 0, 68, 68
1, 109573, Note_off_c, 0, 63, 65
1, 109573, Note_off_c, 0, 73, 61
1, 109578, Control_c, 0, 64, 67
1, 109582, Note_on_c, 0, 77, 73
1, 109592, Control_c, 0, 64, 0
1, 109609, Note_on_c, 0, 66, 71
1, 109630, Note_off_c, 0, 68, 63
1, 109630, Note_off_c, 0, 71, 57
1, 109637, Control_c, 0, 64, 45
1, 109638, Note_on_c, 0, 75, 73
1, 109652, Control_c, 0, 64, 65
1, 109665, Note_on_c, 0, 65, 63
1, 109667, Control_c, 0, 64, 74
1, 109669, Note_off_c, 0, 66, 64
1, 109681, Control_c, 0, 64, 86
1, 109687, Note_off_c, 0, 77, 59
1, 109693, Note_on_c, 0, 73, 71
1, 109696, Control_c, 0, 64, 92
1, 109711, Control_c, 0, 64, 95
1, 109726, Control_c, 0, 64, 96
1, 109727, Note_off_c, 0, 75, 64
1, 109731, Note_off_c, 0, 65, 62
1, 109740, Control_c, 0, 64, 96
1, 109746, Note_on_c, 0, 71, 70
1, 109749, Note_on_c, 0, 63, 70
1, 109752, Note_off_c, 0, 73, 62
1, 109755, Control_c, 0, 64, 97
1, 109770, Control_c, 0, 64, 97
1, 109799, Control_c, 0, 64, 98
1, 109803, Note_off_c, 0, 71, 52
1, 109814, Control_c, 0, 64, 99
1, 109815, Note_off_c, 0, 63, 61
1, 109823, Note_on_c, 0, 70, 73
1, 109829, Control_c, 0, 64, 100
1, 109854, Note_on_c, 0, 59, 57
1, 109859, Control_c, 0, 64, 99
1, 109874, Control_c, 0, 64, 92
1, 109877, Note_on_c, 0, 68, 74
1, 109879, Note_off_c, 0, 70, 59
1, 109889, Control_c, 0, 64, 77
1, 109901, Poly_aftertouch_c, 0, 61, 0
1, 109904, Control_c, 0, 64, 39
1, 109906, Note_off_c, 0, 59, 57
1, 109917, Note_on_c, 0, 63, 56
1, 109918, Control_c, 0, 64, 0
1, 109944, Note_on_c, 0, 61, 57
1, 109946, Note_on_c, 0, 71, 74
1, 109948, Note_off_c, 0, 63, 64
1, 109972, Note_off_c, 0, 68, 63
1, 109985, Control_c, 0, 64, 40
1, 109999, Control_c, 0, 64, 65
1, 110005, Note_on_c, 0, 70, 68
1, 110014, Control_c, 0, 64, 74
1, 110015, Note_off_c, 0, 61, 63
1, 110029, Control_c, 0, 64, 85
1, 110044, Note_on_c, 0, 59, 63
1, 110044, Control_c, 0, 64, 94
1, 110055, Note_off_c, 0, 71, 54
1, 110059, Control_c, 0, 64, 98
1, 110073, Control_c, 0, 64, 101
1, 110074, Note_on_c, 0, 68, 64
1, 110088, Control_c, 0, 64, 102
1, 110103, Control_c, 0, 64, 104
1, 110118, Note_off_c, 0, 70, 61
1, 110118, Control_c, 0, 64, 104
1, 110119, Note_off_c, 0, 59, 60
1, 110121, Note_on_c, 0, 66, 71
1, 110127, Note_on_c, 0, 58, 63
1, 110133, Control_c, 0, 64, 105
1, 110139, Note_off_c, 0, 68, 60
1, 110149, Control_c, 0, 64, 106
1, 110164, Control_c, 0, 64, 109
1, 110178, Control_c, 0, 64, 111
1, 110184, Note_off_c, 0, 66, 65
1, 110192, Note_on_c, 0, 65, 68
1, 110193, Control_c, 0, 64, 112
1, 110208, Control_c, 0, 64, 112
1, 110223, Control_c, 0, 64, 113
1, 110238, Control_c, 0, 64, 113
1, 110249, Note_off_c, 0, 58, 60
1, 110251, Note_on_c, 0, 56, 33
1, 110260, Note_off_c, 0, 65, 57
1, 110265, Note_on_c, 0, 63, 67
1, 110270, Note_on_c, 0, 54, 55
1, 110283, Control_c, 0, 64, 107
1, 110285, Note_off_c, 0, 56, 50
1, 110297, Control_c, 0, 64, 95
1, 110312, Control_c, 0, 64, 78
1, 110327, Note_off_c, 0, 54, 60
1, 110327, Control_c, 0, 64, 46
1, 110337, Note_on_c, 0, 68, 60
1, 110342, Control_c, 0, 64, 0
1, 110357, Note_off_c, 0, 63, 59
1, 110363, Note_on_c, 0, 59, 45
1, 110386, Control_c, 0, 64, 40
1, 110401, Control_c, 0, 64, 65
1, 110409, Note_on_c, 0, 66, 62
1, 110416, Control_c, 0, 64, 71
1, 110431, Control_c, 0, 64, 80
1, 110443, Note_off_c, 0, 68, 62
1, 110446, Control_c, 0, 64, 90
1, 110452, Note_on_c, 0, 58, 68
1, 110452, Note_off_c, 0, 59, 58
1, 110461, Control_c, 0, 64, 96
1, 110462, Note_on_c, 0, 65, 60
1, 110463, Note_off_c, 0, 66, 63
1, 110476, Control_c, 0, 64, 101
1, 110490, Control_c, 0, 64, 105
1, 110505, Control_c, 0, 64, 107
1, 110515, Note_on_c, 0, 56, 54
1, 110520, Control_c, 0, 64, 109
1, 110535, Control_c, 0, 64, 112
1, 110535, Note_off_c, 0, 65, 65
1, 110544, Note_on_c, 0, 63, 70
1, 110544, Note_off_c, 0, 58, 61
1, 110544, Note_on_c, 0, 54, 59
1, 110550, Control_c, 0, 64, 116
1, 110564, Control_c, 0, 64, 121
1, 110565, Note_off_c, 0, 56, 57
1, 110579, Control_c, 0, 64, 127
1, 110586, Note_off_c, 0, 54, 61
1, 110599, Note_off_c, 0, 63, 63
1, 110611, Note_on_c, 0, 53, 54
1, 110615, Note_on_c, 0, 61, 69
1, 110667, Note_on_c, 0, 63, 63
1, 110674, Note_off_c, 0, 61, 63
1, 110689, Note_off_c, 0, 53, 63
1, 110690, Note_on_c, 0, 56, 69
1, 110697, Note_on_c, 0, 54, 43
1, 110726, Note_off_c, 0, 63, 62
1, 110740, Note_on_c, 0, 65, 80
1, 110740, Note_off_c, 0, 54, 52
1, 110758, Note_on_c, 0, 58, 68
1, 110771, Note_off_c, 0, 56, 63
1, 110798, Note_on_c, 0, 59, 64
1, 110801, Note_off_c, 0, 58, 65
1, 110806, Note_on_c, 0, 66, 78
1, 110809, Note_off_c, 0, 65, 59
1, 110853, Note_on_c, 0, 68, 72
1, 110878, Note_on_c, 0, 63, 69
1, 110879, Note_off_c, 0, 59, 64
1, 110888, Note_on_c, 0, 61, 71
1, 110889, Note_off_c, 0, 66, 65
1, 110902, Note_on_c, 0, 70, 67
1, 110919, Note_off_c, 0, 63, 56
1, 110932, Note_off_c, 0, 68, 64
1, 110932, Note_off_c, 0, 70, 65
1, 110951, Note_off_c, 0, 61, 61
1, 110974, Note_on_c, 0, 71, 72
1, 110980, Note_on_c, 0, 59, 76
1, 111030, Note_on_c, 0, 73, 74
1, 111035, Note_off_c, 0, 71, 59
1, 111050, Note_off_c, 0, 59, 62
1, 111059, Note_on_c, 0, 58, 70
1, 111082, Note_on_c, 0, 75, 79
1, 111096, Note_off_c, 0, 73, 62
1, 111098, Note_on_c, 0, 56, 64
1, 111131, Note_off_c, 0, 75, 65
1, 111138, Note_on_c, 0, 54, 70
1, 111141, Note_off_c, 0, 58, 61
1, 111160, Note_off_c, 0, 56, 63
1, 111175, Note_on_c, 0, 77, 64
1, 111182, Note_off_c, 0, 54, 60
1, 111191, Note_on_c, 0, 76, 63
1, 111210, Note_off_c, 0, 76, 60
1, 111212, Note_on_c, 0, 53, 75
1, 111215, Note_off_c, 0, 77, 41
1, 111225, Note_on_c, 0, 78, 85
1, 111261, Note_on_c, 0, 80, 78
1, 111273, Note_on_c, 0, 51, 74
1, 111283, Note_off_c, 0, 53, 62
1, 111290, Note_off_c, 0, 78, 65
1, 111296, Note_on_c, 0, 82, 71
1, 111310, Note_off_c, 0, 80, 65
1, 111316, Note_on_c, 0, 49, 71
1, 111320, Note_off_c, 0, 82, 67
1, 111330, Note_off_c, 0, 51, 63
1, 111348, Note_off_c, 0, 49, 61
1, 111361, Note_on_c, 0, 84, 79
1, 111396, Note_on_c, 0, 47, 81
1, 111411, Note_on_c, 0, 87, 83
1, 111420, Note_off_c, 0, 84, 60
1, 111457, Note_on_c, 0, 46, 77
1, 111459, Note_off_c, 0, 47, 63
1, 111483, Note_on_c, 0, 44, 81
1, 111493, Note_on_c, 0, 90, 62
1, 111498, Note_on_c, 0, 89, 58
1, 111504, Note_on_c, 0, 88, 48
1, 111506, Note_on_c, 0, 91, 79
1, 111510, Note_off_c, 0, 87, 62
1, 111516, Note_on_c, 0, 45, 56
1, 111526, Note_on_c, 0, 42, 55
1, 111529, Note_off_c, 0, 46, 62
1, 111534, Note_off_c, 0, 91, 55
1, 111534, Note_off_c, 0, 88, 65
1, 111535, Note_off_c, 0, 89, 65
1, 111540, Note_off_c, 0, 44, 62
1, 111540, Note_off_c, 0, 90, 62
1, 111543, Control_c, 0, 64, 93
1, 111549, Note_off_c, 0, 45, 66
1, 111558, Poly_aftertouch_c, 0, 86, 0
1, 111558, Note_off_c, 0, 42, 64
1, 111558, Control_c, 0, 64, 61
1, 111573, Control_c, 0, 64, 0
1, 111588, Note_on_c, 0, 53, 89
1, 111590, Note_on_c, 0, 83, 86
1, 111597, Note_on_c, 0, 95, 92
1, 111599, Note_on_c, 0, 41, 86
1, 111612, Note_on_c, 0, 93, 74
1, 111618, Control_c, 0, 64, 69
1, 111627, Note_off_c, 0, 93, 44
1, 111631, Note_off_c, 0, 83, 62
1, 111632, Note_off_c, 0, 53, 65
1, 111632, Control_c, 0, 64, 94
1, 111647, Control_c, 0, 64, 127
1, 111651, Note_off_c, 0, 41, 64
1, 111653, Note_off_c, 0, 95, 64
1, 111748, Note_on_c, 0, 84, 86
1, 111750, Note_on_c, 0, 96, 83
1, 111751, Note_on_c, 0, 51, 82
1, 111758, Note_on_c, 0, 39, 76
1, 111768, Note_off_c, 0, 84, 72
1, 111770, Note_off_c, 0, 96, 66
1, 111774, Note_off_c, 0, 51, 68
1, 111792, Note_off_c, 0, 39, 63
1, 111847, Note_on_c, 0, 49, 92
1, 111849, Note_on_c, 0, 85, 84
1, 111857, Note_on_c, 0, 37, 77
1, 111858, Note_on_c, 0, 97, 80
1, 111867, Note_off_c, 0, 85, 72
1, 111869, Note_off_c, 0, 49, 68
1, 111878, Note_off_c, 0, 97, 70
1, 111885, Note_off_c, 0, 37, 63
1, 111915, Control_c, 0, 64, 97
1, 111930, Control_c, 0, 64, 65
1, 111942, Note_on_c, 0, 87, 85
1, 111942, Note_on_c, 0, 99, 86
1, 111944, Control_c, 0, 64, 0
1, 111945, Note_on_c, 0, 47, 88
1, 111956, Note_on_c, 0, 45, 76
1, 111958, Note_on_c, 0, 35, 67
1, 111960, Note_off_c, 0, 87, 72
1, 111968, Note_off_c, 0, 99, 66
1, 111971, Note_off_c, 0, 47, 69
1, 111974, Control_c, 0, 64, 56
1, 111975, Note_off_c, 0, 45, 64
1, 111978, Note_on_c, 0, 33, 41
1, 111988, Note_off_c, 0, 35, 65
1, 111988, Control_c, 0, 64, 84
1, 112003, Control_c, 0, 64, 127
1, 112015, Note_off_c, 0, 33, 58
1, 112023, Note_on_c, 0, 46, 97
1, 112027, Note_on_c, 0, 97, 63
1, 112029, Note_on_c, 0, 85, 69
1, 112030, Note_off_c, 0, 85, 127
1, 112037, Note_on_c, 0, 34, 79
1, 112040, Note_on_c, 0, 94, 68
1, 112041, Note_off_c, 0, 94, 127
1, 112045, Note_off_c, 0, 97, 63
1, 112057, Note_on_c, 0, 98, 50
1, 112062, Note_off_c, 0, 34, 65
1, 112062, Note_off_c, 0, 46, 65
1, 112082, Note_off_c, 0, 98, 41
1, 112118, Note_on_c, 0, 44, 95
1, 112119, Note_on_c, 0, 89, 77
1, 112121, Note_on_c, 0, 88, 77
1, 112122, Control_c, 0, 64, 89
1, 112127, Note_on_c, 0, 94, 60
1, 112128, Note_off_c, 0, 94, 127
1, 112136, Note_off_c, 0, 88, 69
1, 112136, Note_off_c, 0, 89, 69
1, 112136, Control_c, 0, 64, 0
1, 112142, Note_on_c, 0, 97, 37
1, 112143, Note_off_c, 0, 97, 127
1, 112146, Note_on_c, 0, 99, 32
1, 112148, Note_off_c, 0, 44, 67
1, 112151, Note_on_c, 0, 42, 43
1, 112152, Note_off_c, 0, 42, 127
1, 112182, Note_off_c, 0, 99, 35
1, 112194, Note_on_c, 0, 90, 102
1, 112196, Control_c, 0, 64, 83
1, 112196, Note_on_c, 0, 102, 108
1, 112199, Note_on_c, 0, 42, 83
1, 112218, Control_c, 0, 64, 127
1, 112221, Note_on_c, 0, 30, 74
1, 112232, Note_off_c, 0, 90, 63
1, 112238, Poly_aftertouch_c, 0, 34, 127
1, 112241, Note_off_c, 0, 102, 62
1, 112248, Note_off_c, 0, 30, 61
1, 112264, Note_off_c, 0, 42, 63
1, 112293, Poly_aftertouch_c, 0, 34, 0
1, 112515, Note_on_c, 0, 42, 65
1, 112545, Control_c, 0, 64, 99
1, 112548, Note_off_c, 0, 42, 66
1, 112560, Control_c, 0, 64, 75
1, 112574, Control_c, 0, 64, 0
1, 112603, Note_on_c, 0, 42, 75
1, 112634, Note_off_c, 0, 42, 65
1, 112634, Control_c, 0, 64, 54
1, 112649, Control_c, 0, 64, 71
1, 112664, Control_c, 0, 64, 79
1, 112679, Control_c, 0, 64, 85
1, 112691, Note_on_c, 0, 42, 76
1, 112693, Control_c, 0, 64, 86
1, 112723, Control_c, 0, 64, 84
1, 112729, Note_off_c, 0, 42, 61
1, 112738, Control_c, 0, 64, 74
1, 112753, Control_c, 0, 64, 55
1, 112767, Control_c, 0, 64, 0
1, 112778, Note_on_c, 0, 43, 84
1, 112797, Control_c, 0, 64, 46
1, 112811, Note_off_c, 0, 43, 64
1, 112811, Control_c, 0, 64, 61
1, 112826, Control_c, 0, 64, 64
1, 112841, Control_c, 0, 64, 67
1, 112856, Control_c, 0, 64, 73
1, 112871, Note_on_c, 0, 43, 79
1, 112871, Control_c, 0, 64, 79
1, 112885, Control_c, 0, 64, 81
1, 112903, Note_off_c, 0, 43, 63
1, 112915, Control_c, 0, 64, 80
1, 112930, Control_c, 0, 64, 80
1, 112968, Note_on_c, 0, 43, 75
1, 112999, Note_off_c, 0, 43, 62
1, 113071, Note_on_c, 0, 40, 71
1, 113071, Control_c, 0, 64, 77
1, 113081, Note_on_c, 0, 59, 74
1, 113081, Note_on_c, 0, 61, 82
1, 113086, Control_c, 0, 64, 70
1, 113087, Note_on_c, 0, 41, 58
1, 113096, Note_off_c, 0, 59, 65
1, 113100, Control_c, 0, 64, 52
1, 113102, Note_off_c, 0, 40, 65
1, 113103, Note_off_c, 0, 61, 69
1, 113115, Control_c, 0, 64, 0
1, 113117, Note_off_c, 0, 41, 57
1, 113154, Note_on_c, 0, 40, 87
1, 113161, Note_on_c, 0, 59, 72
1, 113163, Note_on_c, 0, 61, 81
1, 113186, Note_off_c, 0, 59, 66
1, 113188, Note_off_c, 0, 61, 66
1, 113189, Control_c, 0, 64, 18
1, 113193, Note_off_c, 0, 40, 64
1, 113204, Control_c, 0, 64, 54
1, 113219, Control_c, 0, 64, 60
1, 113234, Control_c, 0, 64, 57
1, 113239, Note_on_c, 0, 59, 85
1, 113242, Note_on_c, 0, 40, 75
1, 113245, Note_on_c, 0, 61, 88
1, 113249, Control_c, 0, 64, 29
1, 113264, Control_c, 0, 64, 0
1, 113266, Note_off_c, 0, 59, 67
1, 113282, Note_off_c, 0, 61, 63
1, 113284, Note_off_c, 0, 40, 63
1, 113326, Note_on_c, 0, 58, 102
1, 113326, Note_on_c, 0, 61, 90
1, 113331, Note_on_c, 0, 42, 92
1, 113339, Control_c, 0, 64, 24
1, 113343, Note_off_c, 0, 58, 75
1, 113344, Note_off_c, 0, 61, 72
1, 113354, Control_c, 0, 64, 62
1, 113360, Note_off_c, 0, 42, 67
1, 113369, Control_c, 0, 64, 67
1, 113384, Control_c, 0, 64, 70
1, 113398, Control_c, 0, 64, 71
1, 113413, Control_c, 0, 64, 68
1, 113428, Control_c, 0, 64, 61
1, 113429, Note_on_c, 0, 42, 84
1, 113442, Control_c, 0, 64, 0
1, 113456, Note_off_c, 0, 42, 66
1, 113464, Poly_aftertouch_c, 0, 41, 0
1, 113513, Note_on_c, 0, 42, 83
1, 113552, Note_off_c, 0, 42, 63
1, 113561, Control_c, 0, 64, 56
1, 113576, Control_c, 0, 64, 65
1, 113591, Control_c, 0, 64, 67
1, 113599, Note_on_c, 0, 58, 90
1, 113603, Note_on_c, 0, 37, 85
1, 113606, Control_c, 0, 64, 64
1, 113606, Note_on_c, 0, 66, 78
1, 113618, Note_off_c, 0, 58, 73
1, 113621, Control_c, 0, 64, 51
1, 113628, Note_off_c, 0, 66, 70
1, 113635, Note_off_c, 0, 37, 68
1, 113636, Control_c, 0, 64, 0
1, 113696, Note_on_c, 0, 37, 84
1, 113731, Control_c, 0, 64, 39
1, 113734, Note_off_c, 0, 37, 69
1, 113746, Control_c, 0, 64, 59
1, 113761, Control_c, 0, 64, 65
1, 113776, Control_c, 0, 64, 66
1, 113788, Note_on_c, 0, 37, 71
1, 113791, Control_c, 0, 64, 64
1, 113806, Control_c, 0, 64, 41
1, 113820, Control_c, 0, 64, 0
1, 113829, Note_off_c, 0, 37, 64
1, 113880, Note_on_c, 0, 38, 82
1, 113880, Control_c, 0, 64, 42
1, 113895, Control_c, 0, 64, 64
1, 113910, Control_c, 0, 64, 66
1, 113910, Note_off_c, 0, 38, 63
1, 113924, Control_c, 0, 64, 68
1, 113939, Control_c, 0, 64, 68
1, 113962, Note_on_c, 0, 38, 88
1, 113994, Note_off_c, 0, 38, 65
1, 113997, Control_c, 0, 64, 68
1, 114041, Control_c, 0, 64, 68
1, 114047, Note_on_c, 0, 38, 75
1, 114085, Note_off_c, 0, 38, 65
1, 114086, Control_c, 0, 64, 67
1, 114101, Control_c, 0, 64, 66
1, 114116, Control_c, 0, 64, 65
1, 114130, Control_c, 0, 64, 62
1, 114145, Note_on_c, 0, 35, 79
1, 114146, Control_c, 0, 64, 53
1, 114156, Note_on_c, 0, 62, 80
1, 114160, Note_on_c, 0, 68, 71
1, 114161, Control_c, 0, 64, 0
1, 114165, Note_on_c, 0, 65, 59
1, 114179, Note_off_c, 0, 62, 68
1, 114183, Note_off_c, 0, 65, 64
1, 114187, Note_off_c, 0, 68, 68
1, 114190, Note_off_c, 0, 35, 63
1, 114231, Note_on_c, 0, 35, 74
1, 114232, Note_on_c, 0, 62, 77
1, 114234, Note_on_c, 0, 68, 73
1, 114250, Note_off_c, 0, 62, 67
1, 114253, Note_on_c, 0, 65, 52
1, 114262, Note_off_c, 0, 68, 66
1, 114277, Note_off_c, 0, 65, 39
1, 114304, Note_on_c, 0, 62, 89
1, 114305, Note_on_c, 0, 68, 83
1, 114315, Note_on_c, 0, 65, 76
1, 114332, Note_off_c, 0, 62, 63
1, 114338, Note_off_c, 0, 65, 70
1, 114354, Note_off_c, 0, 68, 65
1, 114364, Note_off_c, 0, 35, 64
1, 114398, Note_on_c, 0, 61, 88
1, 114402, Note_on_c, 0, 66, 78
1, 114404, Note_on_c, 0, 70, 75
1, 114409, Note_on_c, 0, 37, 77
1, 114413, Control_c, 0, 64, 28
1, 114417, Note_off_c, 0, 61, 67
1, 114423, Note_off_c, 0, 70, 61
1, 114426, Note_off_c, 0, 66, 71
1, 114428, Control_c, 0, 64, 49
1, 114437, Note_off_c, 0, 37, 66
1, 114464, Control_c, 0, 64, 43
1, 114473, Note_on_c, 0, 39, 3
1, 114474, Note_off_c, 0, 39, 127
1, 114479, Control_c, 0, 64, 29
1, 114494, Control_c, 0, 64, 0
1, 114501, Note_on_c, 0, 37, 84
1, 114541, Note_off_c, 0, 37, 65
1, 114584, Control_c, 0, 64, 10
1, 114598, Control_c, 0, 64, 35
1, 114613, Control_c, 0, 64, 50
1, 114619, Note_on_c, 0, 37, 35
1, 114628, Control_c, 0, 64, 59
1, 114643, Control_c, 0, 64, 64
1, 114655, Note_off_c, 0, 37, 44
1, 114658, Control_c, 0, 64, 69
1, 114672, Control_c, 0, 64, 73
1, 114678, Note_on_c, 0, 61, 78
1, 114685, Note_on_c, 0, 73, 69
1, 114687, Note_on_c, 0, 42, 85
1, 114687, Control_c, 0, 64, 76
1, 114694, Note_off_c, 0, 61, 66
1, 114699, Note_on_c, 0, 66, 46
1, 114702, Note_off_c, 0, 73, 65
1, 114715, Note_off_c, 0, 42, 68
1, 114717, Control_c, 0, 64, 73
1, 114724, Note_off_c, 0, 66, 59
1, 114732, Control_c, 0, 64, 66
1, 114746, Control_c, 0, 64, 43
1, 114761, Control_c, 0, 64, 0
1, 114768, Note_on_c, 0, 42, 85
1, 114776, Control_c, 0, 64, 44
1, 114790, Control_c, 0, 64, 60
1, 114801, Note_off_c, 0, 42, 65
1, 114805, Control_c, 0, 64, 65
1, 114820, Control_c, 0, 64, 69
1, 114835, Control_c, 0, 64, 73
1, 114847, Note_on_c, 0, 42, 76
1, 114850, Control_c, 0, 64, 75
1, 114864, Control_c, 0, 64, 72
1, 114879, Control_c, 0, 64, 64
1, 114892, Note_off_c, 0, 42, 62
1, 114894, Control_c, 0, 64, 0
1, 114927, Note_on_c, 0, 43, 95
1, 114966, Note_off_c, 0, 43, 63
1, 115021, Note_on_c, 0, 43, 83
1, 115043, Note_on_c, 0, 45, 46
1, 115044, Note_off_c, 0, 45, 127
1, 115063, Note_off_c, 0, 43, 64
1, 115099, Note_on_c, 0, 43, 79
1, 115149, Note_off_c, 0, 43, 63
1, 115199, Note_on_c, 0, 40, 84
1, 115219, Note_on_c, 0, 67, 77
1, 115220, Note_on_c, 0, 73, 77
1, 115224, Note_on_c, 0, 71, 67
1, 115242, Note_off_c, 0, 67, 69
1, 115242, Note_off_c, 0, 71, 65
1, 115242, Note_off_c, 0, 73, 67
1, 115254, Note_off_c, 0, 40, 63
1, 115289, Note_on_c, 0, 40, 77
1, 115291, Note_on_c, 0, 73, 87
1, 115294, Note_on_c, 0, 67, 79
1, 115301, Note_on_c, 0, 71, 73
1, 115316, Note_off_c, 0, 67, 70
1, 115318, Note_off_c, 0, 71, 66
1, 115330, Note_off_c, 0, 73, 61
1, 115343, Note_off_c, 0, 40, 64
1, 115367, Note_on_c, 0, 73, 79
1, 115374, Note_on_c, 0, 67, 83
1, 115392, Note_on_c, 0, 72, 55
1, 115393, Note_on_c, 0, 40, 65
1, 115393, Note_off_c, 0, 67, 72
1, 115406, Control_c, 0, 64, 53
1, 115412, Note_on_c, 0, 71, 16
1, 115412, Note_off_c, 0, 72, 43
1, 115415, Note_off_c, 0, 73, 65
1, 115421, Control_c, 0, 64, 66
1, 115436, Control_c, 0, 64, 71
1, 115436, Control_c, 0, 67, 8
1, 115451, Control_c, 0, 64, 76
1, 115451, Control_c, 0, 67, 18
1, 115453, Note_off_c, 0, 71, 31
1, 115456, Note_on_c, 0, 73, 93
1, 115460, Note_on_c, 0, 66, 92
1, 115466, Note_on_c, 0, 42, 86
1, 115466, Control_c, 0, 64, 80
1, 115466, Control_c, 0, 67, 30
1, 115469, Note_off_c, 0, 40, 60
1, 115478, Note_off_c, 0, 66, 73
1, 115481, Control_c, 0, 64, 82
1, 115481, Control_c, 0, 67, 47
1, 115495, Control_c, 0, 64, 81
1, 115495, Control_c, 0, 67, 66
1, 115502, Note_off_c, 0, 42, 61
1, 115505, Note_off_c, 0, 73, 51
1, 115510, Control_c, 0, 64, 76
1, 115510, Control_c, 0, 67, 83
1, 115525, Control_c, 0, 64, 66
1, 115525, Control_c, 0, 67, 100
1, 115539, Control_c, 0, 64, 0
1, 115539, Control_c, 0, 67, 114
1, 115554, Control_c, 0, 67, 122
1, 115568, Note_on_c, 0, 42, 70
1, 115569, Control_c, 0, 67, 123
1, 115594, Note_off_c, 0, 42, 69
1, 115613, Control_c, 0, 67, 122
1, 115642, Note_on_c, 0, 42, 74
1, 115643, Control_c, 0, 64, 40
1, 115643, Control_c, 0, 67, 122
1, 115658, Control_c, 0, 64, 46
1, 115658, Control_c, 0, 67, 121
1, 115673, Control_c, 0, 64, 44
1, 115673, Control_c, 0, 67, 121
1, 115685, Note_off_c, 0, 42, 62
1, 115687, Control_c, 0, 64, 40
1, 115702, Control_c, 0, 64, 38
1, 115702, Control_c, 0, 67, 121
1, 115717, Control_c, 0, 67, 123
1, 115725, Note_on_c, 0, 66, 86
1, 115732, Note_on_c, 0, 37, 86
1, 115733, Control_c, 0, 64, 37
1, 115733, Control_c, 0, 67, 124
1, 115735, Note_on_c, 0, 78, 75
1, 115741, Note_off_c, 0, 66, 72
1, 115746, Note_on_c, 0, 70, 54
1, 115748, Control_c, 0, 64, 37
1, 115748, Control_c, 0, 67, 126
1, 115758, Note_off_c, 0, 78, 68
1, 115763, Control_c, 0, 67, 127
1, 115767, Note_off_c, 0, 37, 67
1, 115768, Note_off_c, 0, 70, 39
1, 115778, Control_c, 0, 64, 36
1, 115792, Control_c, 0, 64, 24
1, 115807, Control_c, 0, 64, 0
1, 115823, Note_on_c, 0, 37, 77
1, 115859, Note_off_c, 0, 37, 64
1, 115928, Note_on_c, 0, 37, 45
1, 115972, Note_off_c, 0, 37, 43
1, 116004, Note_on_c, 0, 38, 71
1, 116023, Note_on_c, 0, 36, 34
1, 116024, Note_off_c, 0, 36, 127
1, 116033, Note_off_c, 0, 38, 64
1, 116087, Note_on_c, 0, 38, 86
1, 116120, Note_off_c, 0, 38, 67
1, 116168, Note_on_c, 0, 38, 73
1, 116205, Note_off_c, 0, 38, 67
1, 116255, Note_on_c, 0, 35, 79
1, 116265, Note_on_c, 0, 74, 71
1, 116266, Note_on_c, 0, 77, 68
1, 116268, Note_on_c, 0, 80, 65
1, 116283, Note_off_c, 0, 74, 69
1, 116283, Note_off_c, 0, 77, 65
1, 116285, Note_off_c, 0, 80, 66
1, 116294, Note_off_c, 0, 35, 66
1, 116336, Note_on_c, 0, 74, 72
1, 116339, Note_on_c, 0, 35, 75
1, 116344, Note_on_c, 0, 80, 77
1, 116350, Note_on_c, 0, 77, 61
1, 116354, Note_off_c, 0, 74, 70
1, 116357, Note_off_c, 0, 80, 70
1, 116369, Note_off_c, 0, 77, 41
1, 116405, Note_on_c, 0, 74, 82
1, 116416, Note_on_c, 0, 80, 84
1, 116417, Note_on_c, 0, 77, 80
1, 116438, Note_off_c, 0, 77, 69
1, 116440, Note_off_c, 0, 74, 65
1, 116444, Note_off_c, 0, 80, 62
1, 116491, Note_on_c, 0, 73, 86
1, 116492, Note_on_c, 0, 37, 79
1, 116494, Note_on_c, 0, 82, 80
1, 116494, Note_off_c, 0, 35, 53
1, 116499, Note_on_c, 0, 78, 73
1, 116512, Note_off_c, 0, 78, 67
1, 116514, Note_off_c, 0, 73, 62
1, 116518, Note_off_c, 0, 82, 66
1, 116520, Note_off_c, 0, 37, 65
1, 116574, Note_on_c, 0, 37, 82
1, 116606, Note_off_c, 0, 37, 67
1, 116655, Note_on_c, 0, 37, 77
1, 116694, Note_off_c, 0, 37, 65
1, 116754, Note_on_c, 0, 42, 84
1, 116772, Note_on_c, 0, 73, 63
1, 116780, Note_on_c, 0, 85, 54
1, 116780, Note_off_c, 0, 42, 65
1, 116789, Note_off_c, 0, 73, 63
1, 116802, Note_off_c, 0, 85, 38
1, 116825, Note_on_c, 0, 42, 89
1, 116877, Note_off_c, 0, 42, 63
1, 116910, Note_on_c, 0, 42, 70
1, 116967, Note_off_c, 0, 42, 62
1, 117001, Note_on_c, 0, 38, 80
1, 117043, Note_off_c, 0, 38, 63
1, 117087, Note_on_c, 0, 38, 83
1, 117162, Note_off_c, 0, 38, 0
1, 117188, Note_on_c, 0, 38, 34
1, 117206, Note_on_c, 0, 35, 73
1, 117235, Note_off_c, 0, 38, 62
1, 117238, Note_on_c, 0, 80, 85
1, 117239, Note_on_c, 0, 77, 77
1, 117240, Note_on_c, 0, 89, 80
1, 117242, Note_off_c, 0, 35, 64
1, 117252, Note_off_c, 0, 77, 70
1, 117254, Note_off_c, 0, 89, 72
1, 117255, Note_off_c, 0, 80, 74
1, 117286, Note_on_c, 0, 35, 84
1, 117337, Note_off_c, 0, 35, 60
1, 117368, Note_on_c, 0, 35, 67
1, 117486, Note_on_c, 0, 37, 76
1, 117494, Note_off_c, 0, 35, 61
1, 117523, Note_off_c, 0, 37, 68
1, 117571, Note_on_c, 0, 37, 74
1, 117606, Note_off_c, 0, 37, 66
1, 117656, Note_on_c, 0, 37, 79
1, 117704, Note_off_c, 0, 37, 65
1, 117747, Note_on_c, 0, 42, 85
1, 117758, Note_on_c, 0, 78, 80
1, 117768, Note_on_c, 0, 90, 70
1, 117777, Note_off_c, 0, 42, 68
1, 117779, Note_off_c, 0, 78, 71
1, 117782, Note_on_c, 0, 82, 41
1, 117783, Note_off_c, 0, 82, 127
1, 117784, Note_off_c, 0, 90, 65
1, 117828, Note_on_c, 0, 42, 84
1, 117895, Note_off_c, 0, 42, 0
1, 117932, Poly_aftertouch_c, 0, 42, 127
1, 117970, Poly_aftertouch_c, 0, 42, 0
1, 118016, Note_on_c, 0, 38, 77
1, 118052, Note_off_c, 0, 38, 67
1, 118104, Note_on_c, 0, 38, 80
1, 118148, Note_off_c, 0, 38, 62
1, 118190, Note_on_c, 0, 38, 69
1, 118294, Note_on_c, 0, 35, 78
1, 118298, Note_on_c, 0, 80, 79
1, 118304, Note_on_c, 0, 89, 69
1, 118304, Note_on_c, 0, 92, 71
1, 118311, Note_off_c, 0, 80, 72
1, 118319, Note_off_c, 0, 92, 68
1, 118320, Note_off_c, 0, 89, 68
1, 118322, Note_off_c, 0, 38, 58
1, 118333, Note_off_c, 0, 35, 65
1, 118396, Note_on_c, 0, 35, 77
1, 118441, Note_off_c, 0, 35, 61
1, 118500, Note_on_c, 0, 35, 61
1, 118570, Note_off_c, 0, 35, 46
1, 118596, Note_on_c, 0, 38, 67
1, 118641, Note_off_c, 0, 38, 65
1, 118723, Note_on_c, 0, 38, 65
1, 118727, Control_c, 0, 64, 21
1, 118742, Control_c, 0, 64, 62
1, 118757, Control_c, 0, 64, 67
1, 118763, Note_off_c, 0, 38, 62
1, 118772, Control_c, 0, 64, 72
1, 118787, Control_c, 0, 64, 77
1, 118802, Control_c, 0, 64, 82
1, 118816, Control_c, 0, 64, 85
1, 118831, Control_c, 0, 64, 88
1, 118846, Control_c, 0, 64, 90
1, 118846, Note_on_c, 0, 38, 62
1, 118861, Control_c, 0, 64, 93
1, 118876, Control_c, 0, 64, 95
1, 118887, Note_off_c, 0, 38, 61
1, 118891, Control_c, 0, 64, 98
1, 118905, Control_c, 0, 64, 100
1, 118920, Control_c, 0, 64, 102
1, 118936, Control_c, 0, 64, 104
1, 118944, Note_on_c, 0, 38, 63
1, 118958, Control_c, 0, 64, 105
1, 118973, Control_c, 0, 64, 105
1, 118987, Control_c, 0, 64, 106
1, 118996, Note_off_c, 0, 38, 61
1, 119002, Control_c, 0, 64, 106
1, 119017, Control_c, 0, 64, 107
1, 119032, Control_c, 0, 64, 107
1, 119047, Note_on_c, 0, 38, 67
1, 119121, Control_c, 0, 64, 106
1, 119135, Control_c, 0, 64, 100
1, 119150, Control_c, 0, 64, 85
1, 119154, Note_on_c, 0, 81, 61
1, 119165, Control_c, 0, 64, 68
1, 119180, Control_c, 0, 64, 0
1, 119201, Note_on_c, 0, 35, 58
1, 119202, Note_on_c, 0, 86, 59
1, 119210, Note_on_c, 0, 89, 74
1, 119218, Note_off_c, 0, 81, 61
1, 119250, Note_on_c, 0, 93, 82
1, 119254, Note_off_c, 0, 38, 40
1, 119259, Note_off_c, 0, 86, 62
1, 119281, Note_off_c, 0, 35, 63
1, 119282, Note_off_c, 0, 89, 65
1, 119284, Control_c, 0, 64, 49
1, 119296, Note_off_c, 0, 93, 62
1, 119299, Control_c, 0, 64, 63
1, 119314, Control_c, 0, 64, 68
1, 119329, Control_c, 0, 64, 74
1, 119343, Control_c, 0, 64, 82
1, 119358, Control_c, 0, 64, 86
1, 119368, Note_on_c, 0, 35, 54
1, 119373, Control_c, 0, 64, 89
1, 119387, Control_c, 0, 64, 90
1, 119402, Control_c, 0, 64, 92
1, 119417, Control_c, 0, 64, 93
1, 119421, Note_off_c, 0, 35, 56
1, 119432, Control_c, 0, 64, 95
1, 119447, Control_c, 0, 64, 97
1, 119461, Control_c, 0, 64, 100
1, 119476, Control_c, 0, 64, 102
1, 119491, Control_c, 0, 64, 104
1, 119499, Note_on_c, 0, 35, 50
1, 119505, Control_c, 0, 64, 105
1, 119520, Control_c, 0, 64, 105
1, 119535, Control_c, 0, 64, 106
1, 119543, Note_off_c, 0, 35, 61
1, 119550, Control_c, 0, 64, 106
1, 119644, Note_on_c, 0, 35, 47
1, 119686, Note_off_c, 0, 35, 49
1, 119737, Control_c, 0, 64, 107
1, 119766, Control_c, 0, 64, 107
1, 119781, Control_c, 0, 64, 108
1, 119790, Note_on_c, 0, 35, 31
1, 119796, Control_c, 0, 64, 109
1, 119810, Control_c, 0, 64, 109
1, 119830, Note_off_c, 0, 35, 52
1, 119840, Control_c, 0, 64, 111
1, 119855, Control_c, 0, 64, 112
1, 119870, Control_c, 0, 64, 113
1, 119875, Note_on_c, 0, 86, 48
1, 119884, Control_c, 0, 64, 114
1, 119899, Control_c, 0, 64, 115
1, 119914, Control_c, 0, 64, 116
1, 119929, Control_c, 0, 64, 118
1, 119931, Note_on_c, 0, 35, 37
1, 119944, Control_c, 0, 64, 120
1, 119958, Control_c, 0, 64, 121
1, 119960, Note_on_c, 0, 90, 60
1, 119961, Note_off_c, 0, 35, 55
1, 119988, Control_c, 0, 64, 122
1, 120003, Control_c, 0, 64, 121
1, 120018, Control_c, 0, 64, 115
1, 120033, Note_off_c, 0, 86, 34
1, 120033, Control_c, 0, 64, 101
1, 120048, Control_c, 0, 64, 83
1, 120062, Control_c, 0, 64, 61
1, 120074, Note_off_c, 0, 90, 48
1, 120077, Control_c, 0, 64, 0
1, 120081, Note_on_c, 0, 94, 54
1, 120089, Note_on_c, 0, 98, 60
1, 120095, Note_on_c, 0, 30, 60
1, 120122, Control_c, 0, 64, 54
1, 120135, Note_off_c, 0, 30, 62
1, 120136, Control_c, 0, 64, 69
1, 120151, Control_c, 0, 64, 79
1, 120166, Control_c, 0, 64, 91
1, 120181, Control_c, 0, 64, 101
1, 120196, Control_c, 0, 64, 111
1, 120210, Control_c, 0, 64, 119
1, 120225, Control_c, 0, 64, 127
1, 120236, Note_off_c, 0, 98, 32
1, 120241, Note_on_c, 0, 30, 61
1, 120253, Note_on_c, 0, 90, 57
1, 120291, Note_off_c, 0, 30, 61
1, 120316, Note_off_c, 0, 94, 55
1, 120365, Note_off_c, 0, 90, 59
1, 120377, Note_on_c, 0, 86, 59
1, 120381, Note_on_c, 0, 30, 65
1, 120396, Note_off_c, 0, 86, 63
1, 120413, Note_off_c, 0, 30, 64
1, 120482, Note_on_c, 0, 30, 75
1, 120483, Note_on_c, 0, 86, 62
1, 120507, Note_on_c, 0, 82, 63
1, 120511, Note_off_c, 0, 86, 66
1, 120519, Note_off_c, 0, 30, 64
1, 120585, Note_on_c, 0, 30, 71
1, 120616, Note_on_c, 0, 78, 60
1, 120623, Note_off_c, 0, 30, 61
1, 120674, Note_off_c, 0, 82, 34
1, 120682, Note_on_c, 0, 30, 70
1, 120700, Note_on_c, 0, 74, 72
1, 120710, Note_off_c, 0, 78, 63
1, 120713, Note_off_c, 0, 30, 63
1, 120751, Control_c, 0, 64, 118
1, 120764, Note_on_c, 0, 30, 71
1, 120766, Control_c, 0, 64, 89
1, 120771, Note_on_c, 0, 82, 76
1, 120781, Control_c, 0, 64, 58
1, 120784, Note_off_c, 0, 74, 65
1, 120796, Control_c, 0, 64, 0
1, 120797, Note_off_c, 0, 30, 66
1, 120840, Control_c, 0, 64, 60
1, 120848, Note_on_c, 0, 30, 80
1, 120851, Note_on_c, 0, 78, 82
1, 120855, Note_off_c, 0, 82, 52
1, 120855, Control_c, 0, 64, 72
1, 120870, Control_c, 0, 64, 84
1, 120885, Control_c, 0, 64, 90
1, 120888, Note_off_c, 0, 30, 64
1, 120903, Note_off_c, 0, 78, 61
1, 120930, Control_c, 0, 64, 89
1, 120942, Note_on_c, 0, 30, 78
1, 120944, Note_on_c, 0, 73, 79
1, 120945, Control_c, 0, 64, 84
1, 120959, Control_c, 0, 64, 75
1, 120969, Note_off_c, 0, 73, 64
1, 120974, Control_c, 0, 64, 54
1, 120982, Note_off_c, 0, 30, 64
1, 120989, Control_c, 0, 64, 0
1, 121028, Note_on_c, 0, 30, 83
1, 121029, Note_on_c, 0, 78, 73
1, 121063, Control_c, 0, 64, 49
1, 121078, Control_c, 0, 64, 63
1, 121079, Note_off_c, 0, 30, 64
1, 121093, Control_c, 0, 64, 67
1, 121103, Note_on_c, 0, 73, 76
1, 121105, Note_off_c, 0, 78, 62
1, 121107, Control_c, 0, 64, 71
1, 121122, Control_c, 0, 64, 75
1, 121123, Note_on_c, 0, 30, 70
1, 121137, Control_c, 0, 64, 79
1, 121151, Control_c, 0, 64, 82
1, 121166, Control_c, 0, 64, 86
1, 121171, Note_off_c, 0, 30, 64
1, 121181, Control_c, 0, 64, 90
1, 121196, Control_c, 0, 64, 92
1, 121198, Note_off_c, 0, 73, 64
1, 121213, Note_on_c, 0, 70, 76
1, 121219, Control_c, 0, 64, 93
1, 121231, Note_on_c, 0, 30, 79
1, 121234, Note_off_c, 0, 70, 70
1, 121248, Control_c, 0, 64, 90
1, 121263, Control_c, 0, 64, 78
1, 121275, Note_off_c, 0, 30, 63
1, 121278, Control_c, 0, 64, 57
1, 121288, Note_on_c, 0, 82, 70
1, 121290, Note_on_c, 0, 86, 79
1, 121292, Control_c, 0, 64, 0
1, 121310, Note_on_c, 0, 30, 76
1, 121324, Note_on_c, 0, 85, 41
1, 121353, Control_c, 0, 64, 20
1, 121368, Control_c, 0, 64, 65
1, 121372, Note_off_c, 0, 30, 63
1, 121382, Control_c, 0, 64, 72
1, 121385, Note_on_c, 0, 78, 75
1, 121397, Control_c, 0, 64, 79
1, 121412, Control_c, 0, 64, 85
1, 121419, Note_on_c, 0, 30, 62
1, 121427, Control_c, 0, 64, 89
1, 121437, Note_off_c, 0, 85, 45
1, 121442, Control_c, 0, 64, 92
1, 121448, Note_off_c, 0, 86, 54
1, 121456, Control_c, 0, 64, 94
1, 121466, Note_off_c, 0, 30, 63
1, 121467, Note_off_c, 0, 82, 63
1, 121471, Control_c, 0, 64, 95
1, 121475, Note_on_c, 0, 74, 65
1, 121487, Note_off_c, 0, 78, 64
1, 121502, Note_on_c, 0, 76, 27
1, 121502, Note_off_c, 0, 74, 68
1, 121515, Note_on_c, 0, 30, 80
1, 121530, Control_c, 0, 64, 94
1, 121534, Note_off_c, 0, 76, 45
1, 121545, Control_c, 0, 64, 88
1, 121553, Note_on_c, 0, 70, 88
1, 121557, Note_off_c, 0, 30, 66
1, 121560, Control_c, 0, 64, 76
1, 121574, Control_c, 0, 64, 61
1, 121589, Control_c, 0, 64, 0
1, 121603, Note_on_c, 0, 30, 74
1, 121634, Control_c, 0, 64, 35
1, 121635, Note_on_c, 0, 66, 89
1, 121642, Note_off_c, 0, 70, 62
1, 121648, Control_c, 0, 64, 62
1, 121654, Note_off_c, 0, 30, 63
1, 121663, Control_c, 0, 64, 68
1, 121678, Control_c, 0, 64, 74
1, 121693, Control_c, 0, 64, 82
1, 121706, Note_on_c, 0, 30, 69
1, 121708, Control_c, 0, 64, 87
1, 121723, Control_c, 0, 64, 89
1, 121726, Note_on_c, 0, 62, 86
1, 121741, Note_off_c, 0, 66, 66
1, 121747, Note_off_c, 0, 30, 62
1, 121753, Control_c, 0, 64, 88
1, 121757, Note_off_c, 0, 62, 60
1, 121768, Control_c, 0, 64, 83
1, 121782, Control_c, 0, 64, 72
1, 121790, Note_on_c, 0, 30, 83
1, 121797, Note_on_c, 0, 73, 76
1, 121797, Control_c, 0, 64, 37
1, 121801, Note_on_c, 0, 70, 82
1, 121812, Control_c, 0, 64, 0
1, 121838, Note_off_c, 0, 30, 61
1, 121857, Control_c, 0, 64, 56
1, 121858, Note_off_c, 0, 73, 60
1, 121872, Note_on_c, 0, 66, 86
1, 121872, Control_c, 0, 64, 67
1, 121887, Control_c, 0, 64, 75
1, 121889, Note_off_c, 0, 70, 61
1, 121893, Note_on_c, 0, 30, 65
1, 121901, Control_c, 0, 64, 86
1, 121916, Control_c, 0, 64, 94
1, 121931, Control_c, 0, 64, 96
1, 121942, Note_off_c, 0, 30, 59
1, 121946, Control_c, 0, 64, 97
1, 121961, Note_on_c, 0, 61, 89
1, 121968, Control_c, 0, 64, 96
1, 121973, Note_off_c, 0, 66, 64
1, 121982, Control_c, 0, 64, 91
1, 121997, Control_c, 0, 64, 80
1, 122011, Note_on_c, 0, 30, 59
1, 122011, Note_off_c, 0, 61, 58
1, 122012, Control_c, 0, 64, 63
1, 122027, Control_c, 0, 64, 0
1, 122036, Note_on_c, 0, 70, 73
1, 122068, Note_on_c, 0, 66, 67
1, 122082, Note_off_c, 0, 70, 62
1, 122085, Note_on_c, 0, 68, 36
1, 122086, Control_c, 0, 64, 63
1, 122101, Control_c, 0, 64, 71
1, 122114, Note_off_c, 0, 68, 51
1, 122116, Control_c, 0, 64, 83
1, 122116, Note_on_c, 0, 61, 84
1, 122131, Note_off_c, 0, 66, 66
1, 122132, Control_c, 0, 64, 95
1, 122147, Control_c, 0, 64, 103
1, 122161, Control_c, 0, 64, 108
1, 122176, Control_c, 0, 64, 109
1, 122184, Note_on_c, 0, 58, 89
1, 122190, Note_off_c, 0, 61, 66
1, 122200, Note_off_c, 0, 30, 63
1, 122203, Note_off_c, 0, 58, 72
1, 122206, Control_c, 0, 64, 108
1, 122221, Control_c, 0, 64, 100
1, 122236, Control_c, 0, 64, 85
1, 122250, Control_c, 0, 64, 64
1, 122258, Note_on_c, 0, 30, 68
1, 122265, Note_on_c, 0, 74, 78
1, 122265, Control_c, 0, 64, 0
1, 122271, Note_on_c, 0, 70, 78
1, 122306, Note_on_c, 0, 73, 20
1, 122307, Note_off_c, 0, 73, 127
1, 122325, Control_c, 0, 64, 56
1, 122340, Note_on_c, 0, 66, 83
1, 122340, Control_c, 0, 64, 70
1, 122354, Control_c, 0, 64, 82
1, 122369, Control_c, 0, 64, 96
1, 122373, Note_off_c, 0, 74, 53
1, 122384, Control_c, 0, 64, 104
1, 122398, Control_c, 0, 64, 107
1, 122405, Note_off_c, 0, 70, 61
1, 122411, Note_on_c, 0, 62, 77
1, 122413, Control_c, 0, 64, 108
1, 122428, Control_c, 0, 64, 109
1, 122429, Note_off_c, 0, 30, 53
1, 122432, Note_off_c, 0, 66, 65
1, 122445, Note_off_c, 0, 62, 63
1, 122458, Control_c, 0, 64, 107
1, 122472, Control_c, 0, 64, 95
1, 122474, Note_on_c, 0, 30, 63
1, 122487, Control_c, 0, 64, 78
1, 122501, Note_on_c, 0, 58, 86
1, 122502, Control_c, 0, 64, 18
1, 122517, Control_c, 0, 64, 0
1, 122561, Control_c, 0, 64, 52
1, 122563, Note_on_c, 0, 54, 85
1, 122576, Control_c, 0, 64, 68
1, 122591, Control_c, 0, 64, 79
1, 122592, Note_off_c, 0, 58, 64
1, 122605, Control_c, 0, 64, 90
1, 122620, Control_c, 0, 64, 98
1, 122635, Control_c, 0, 64, 103
1, 122643, Note_on_c, 0, 50, 84
1, 122648, Note_off_c, 0, 30, 54
1, 122650, Control_c, 0, 64, 104
1, 122661, Note_off_c, 0, 54, 61
1, 122665, Control_c, 0, 64, 103
1, 122680, Control_c, 0, 64, 99
1, 122692, Note_on_c, 0, 30, 68
1, 122695, Control_c, 0, 64, 81
1, 122707, Note_off_c, 0, 50, 58
1, 122715, Note_on_c, 0, 61, 89
1, 122717, Control_c, 0, 64, 58
1, 122727, Note_on_c, 0, 58, 72
1, 122731, Control_c, 0, 64, 0
1, 122787, Note_on_c, 0, 54, 81
1, 122791, Control_c, 0, 64, 68
1, 122798, Note_off_c, 0, 61, 57
1, 122805, Control_c, 0, 64, 80
1, 122820, Control_c, 0, 64, 91
1, 122832, Note_off_c, 0, 30, 61
1, 122835, Control_c, 0, 64, 120
1, 122842, Note_off_c, 0, 58, 61
1, 122844, Note_on_c, 0, 49, 93
1, 122850, Control_c, 0, 64, 127
1, 122883, Note_off_c, 0, 54, 62
1, 122887, Note_off_c, 0, 49, 65
1, 122894, Control_c, 0, 67, 126
1, 122904, Note_on_c, 0, 30, 70
1, 122909, Control_c, 0, 64, 106
1, 122909, Control_c, 0, 67, 125
1, 122921, Note_on_c, 0, 62, 80
1, 122924, Control_c, 0, 64, 82
1, 122924, Control_c, 0, 67, 126
1, 122937, Note_on_c, 0, 61, 67
1, 122939, Note_on_c, 0, 58, 82
1, 122940, Control_c, 0, 64, 47
1, 122940, Control_c, 0, 67, 127
1, 122952, Poly_aftertouch_c, 0, 50, 0
1, 122955, Control_c, 0, 64, 0
1, 122984, Note_on_c, 0, 38, 59
1, 122987, Note_off_c, 0, 62, 61
1, 122995, Note_on_c, 0, 54, 83
1, 123011, Note_off_c, 0, 61, 64
1, 123034, Note_off_c, 0, 30, 61
1, 123055, Note_on_c, 0, 50, 80
1, 123068, Note_off_c, 0, 58, 64
1, 123071, Note_on_c, 0, 42, 77
1, 123079, Note_off_c, 0, 38, 64
1, 123105, Note_off_c, 0, 54, 61
1, 123118, Control_c, 0, 64, 72
1, 123126, Note_on_c, 0, 41, 31
1, 123127, Note_off_c, 0, 42, 63
1, 123128, Note_on_c, 0, 61, 82
1, 123133, Control_c, 0, 64, 127
1, 123137, Note_on_c, 0, 30, 80
1, 123142, Note_off_c, 0, 50, 63
1, 123145, Note_on_c, 0, 58, 71
1, 123168, Note_off_c, 0, 41, 53
1, 123175, Note_on_c, 0, 37, 62
1, 123192, Note_off_c, 0, 61, 63
1, 123207, Note_on_c, 0, 54, 82
1, 123223, Note_off_c, 0, 30, 63
1, 123234, Poly_aftertouch_c, 0, 32, 127
1, 123245, Note_on_c, 0, 42, 71
1, 123252, Control_c, 0, 67, 126
1, 123253, Note_on_c, 0, 49, 86
1, 123265, Note_off_c, 0, 58, 64
1, 123267, Control_c, 0, 67, 124
1, 123278, Poly_aftertouch_c, 0, 32, 0
1, 123282, Control_c, 0, 67, 121
1, 123289, Note_off_c, 0, 37, 65
1, 123293, Note_off_c, 0, 54, 61
1, 123296, Control_c, 0, 67, 116
1, 123308, Note_off_c, 0, 42, 65
1, 123311, Control_c, 0, 67, 109
1, 123312, Note_off_c, 0, 49, 65
1, 123326, Control_c, 0, 67, 105
1, 123331, Note_on_c, 0, 30, 82
1, 123341, Control_c, 0, 64, 99
1, 123341, Control_c, 0, 67, 103
1, 123344, Note_on_c, 0, 62, 74
1, 123355, Note_on_c, 0, 61, 70
1, 123355, Control_c, 0, 64, 70
1, 123355, Control_c, 0, 67, 103
1, 123356, Note_on_c, 0, 58, 82
1, 123370, Control_c, 0, 64, 0
1, 123370, Control_c, 0, 67, 102
1, 123385, Control_c, 0, 67, 103
1, 123389, Note_on_c, 0, 38, 63
1, 123398, Note_off_c, 0, 62, 61
1, 123413, Note_on_c, 0, 54, 74
1, 123415, Control_c, 0, 67, 105
1, 123416, Note_off_c, 0, 30, 63
1, 123425, Note_off_c, 0, 61, 62
1, 123429, Control_c, 0, 67, 106
1, 123452, Control_c, 0, 67, 107
1, 123467, Control_c, 0, 67, 108
1, 123482, Control_c, 0, 67, 109
1, 123488, Note_on_c, 0, 50, 76
1, 123495, Note_on_c, 0, 42, 69
1, 123496, Control_c, 0, 67, 110
1, 123499, Note_off_c, 0, 58, 62
1, 123501, Note_off_c, 0, 38, 62
1, 123511, Control_c, 0, 67, 111
1, 123526, Note_off_c, 0, 54, 62
1, 123526, Control_c, 0, 67, 112
1, 123541, Control_c, 0, 64, 67
1, 123541, Control_c, 0, 67, 113
1, 123546, Note_on_c, 0, 30, 73
1, 123553, Note_on_c, 0, 61, 79
1, 123555, Note_off_c, 0, 42, 62
1, 123555, Control_c, 0, 64, 95
1, 123555, Control_c, 0, 67, 114
1, 123570, Control_c, 0, 64, 127
1, 123570, Control_c, 0, 67, 113
1, 123571, Note_on_c, 0, 58, 70
1, 123578, Note_off_c, 0, 50, 63
1, 123585, Control_c, 0, 67, 113
1, 123600, Control_c, 0, 67, 112
1, 123615, Control_c, 0, 67, 111
1, 123616, Note_on_c, 0, 37, 58
1, 123622, Note_on_c, 0, 54, 75
1, 123625, Note_off_c, 0, 61, 61
1, 123629, Control_c, 0, 67, 110
1, 123644, Control_c, 0, 67, 109
1, 123660, Note_off_c, 0, 30, 58
1, 123674, Note_on_c, 0, 42, 61
1, 123678, Note_on_c, 0, 49, 77
1, 123690, Note_off_c, 0, 58, 63
1, 123693, Note_off_c, 0, 37, 65
1, 123724, Note_off_c, 0, 54, 59
1, 123725, Note_off_c, 0, 42, 64
1, 123731, Note_off_c, 0, 49, 63
1, 123749, Control_c, 0, 64, 101
1, 123749, Control_c, 0, 67, 108
1, 123760, Note_on_c, 0, 30, 70
1, 123764, Control_c, 0, 64, 78
1, 123768, Note_on_c, 0, 62, 69
1, 123778, Control_c, 0, 64, 0
1, 123778, Control_c, 0, 67, 109
1, 123790, Note_on_c, 0, 58, 71
1, 123795, Note_on_c, 0, 61, 52
1, 123808, Control_c, 0, 67, 111
1, 123823, Control_c, 0, 67, 112
1, 123827, Note_off_c, 0, 62, 61
1, 123834, Note_on_c, 0, 38, 50
1, 123836, Note_off_c, 0, 61, 57
1, 123838, Control_c, 0, 67, 113
1, 123845, Note_on_c, 0, 54, 69
1, 123852, Control_c, 0, 67, 113
1, 123859, Note_off_c, 0, 30, 62
1, 123867, Control_c, 0, 67, 114
1, 123897, Note_off_c, 0, 58, 59
1, 123903, Note_off_c, 0, 38, 62
1, 123920, Note_on_c, 0, 42, 55
1, 123935, Note_on_c, 0, 50, 61
1, 123956, Control_c, 0, 67, 115
1, 123959, Note_off_c, 0, 54, 59
1, 123971, Control_c, 0, 67, 115
1, 123988, Note_off_c, 0, 42, 54
1, 123997, Note_on_c, 0, 30, 56
1, 124000, Note_off_c, 0, 50, 62
1, 124015, Control_c, 0, 64, 51
1, 124024, Note_on_c, 0, 58, 52
1, 124030, Control_c, 0, 64, 65
1, 124042, Note_on_c, 0, 61, 6
1, 124045, Control_c, 0, 64, 70
1, 124045, Control_c, 0, 67, 116
1, 124060, Control_c, 0, 64, 77
1, 124060, Control_c, 0, 67, 116
1, 124075, Control_c, 0, 64, 86
1, 124079, Note_off_c, 0, 61, 34
1, 124082, Note_off_c, 0, 58, 54
1, 124083, Note_on_c, 0, 54, 65
1, 124090, Control_c, 0, 64, 96
1, 124090, Control_c, 0, 67, 117
1, 124097, Note_off_c, 0, 30, 60
1, 124103, Note_on_c, 0, 37, 47
1, 124105, Control_c, 0, 64, 105
1, 124105, Control_c, 0, 67, 117
1, 124119, Control_c, 0, 64, 119
1, 124119, Control_c, 0, 67, 118
1, 124125, Note_on_c, 0, 42, 54
1, 124134, Control_c, 0, 64, 127
1, 124136, Note_off_c, 0, 37, 64
1, 124139, Note_off_c, 0, 54, 61
1, 124146, Note_on_c, 0, 49, 38
1, 124149, Control_c, 0, 67, 119
1, 124151, Note_off_c, 0, 42, 56
1, 124164, Control_c, 0, 67, 118
1, 124179, Note_off_c, 0, 49, 46
1, 124215, Note_on_c, 0, 54, 70
1, 124239, Note_on_c, 0, 46, 64
1, 124289, Control_c, 0, 67, 117
1, 124299, Note_on_c, 0, 58, 62
1, 124301, Note_on_c, 0, 49, 52
1, 124334, Note_off_c, 0, 46, 61
1, 124349, Control_c, 0, 67, 117
1, 124364, Note_on_c, 0, 61, 61
1, 124364, Note_off_c, 0, 49, 60
1, 124367, Note_off_c, 0, 58, 62
1, 124375, Note_off_c, 0, 54, 55
1, 124378, Control_c, 0, 67, 116
1, 124394, Note_off_c, 0, 61, 64
1, 124408, Control_c, 0, 67, 116
1, 124451, Control_c, 0, 67, 115
1, 124457, Note_on_c, 0, 66, 68
1, 124466, Control_c, 0, 67, 115
1, 124487, Note_on_c, 0, 58, 55
1, 124501, Note_off_c, 0, 66, 57
1, 124523, Note_off_c, 0, 58, 63
1, 124526, Note_on_c, 0, 61, 56
1, 124538, Note_on_c, 0, 70, 59
1, 124571, Control_c, 0, 67, 114
1, 124615, Control_c, 0, 67, 114
1, 124620, Note_off_c, 0, 61, 62
1, 124624, Note_off_c, 0, 70, 60
1, 124627, Note_on_c, 0, 66, 38
1, 124630, Note_on_c, 0, 73, 54
1, 124645, Control_c, 0, 67, 113
1, 124652, Note_off_c, 0, 66, 58
1, 124653, Note_off_c, 0, 73, 64
1, 124735, Note_on_c, 0, 70, 62
1, 124756, Note_on_c, 0, 78, 43
1, 124805, Note_on_c, 0, 82, 56
1, 124805, Note_off_c, 0, 78, 42
1, 124811, Note_off_c, 0, 70, 61
1, 124815, Note_on_c, 0, 73, 61
1, 124901, Note_off_c, 0, 73, 61
1, 124903, Note_off_c, 0, 82, 54
1, 124908, Note_on_c, 0, 85, 64
1, 124918, Note_on_c, 0, 70, 64
1, 124919, Note_on_c, 0, 78, 45
1, 124941, Note_off_c, 0, 85, 63
1, 124943, Note_off_c, 0, 78, 57
1, 125040, Note_off_c, 0, 70, 62
1, 125047, Note_on_c, 0, 82, 61
1, 125049, Note_on_c, 0, 73, 51
1, 125057, Note_on_c, 0, 90, 65
1, 125070, Note_off_c, 0, 73, 61
1, 125071, Note_off_c, 0, 82, 66
1, 125073, Note_off_c, 0, 90, 66
1, 125141, Control_c, 0, 67, 114
1, 125156, Control_c, 0, 67, 114
1, 125200, Control_c, 0, 67, 115
1, 125230, Control_c, 0, 67, 115
1, 125527, Note_on_c, 0, 85, 60
1, 125532, Note_on_c, 0, 94, 65
1, 125544, Note_on_c, 0, 78, 66
1, 125556, Note_off_c, 0, 85, 67
1, 125562, Note_off_c, 0, 94, 66
1, 125571, Control_c, 0, 67, 115
1, 125572, Note_off_c, 0, 78, 66
1, 125690, Control_c, 0, 67, 115
1, 126068, Control_c, 0, 67, 115
1, 126128, Control_c, 0, 67, 114
1, 126303, Note_on_c, 0, 90, 58
1, 126304, Note_on_c, 0, 82, 63
1, 126304, Note_on_c, 0, 97, 62
1, 126323, Note_off_c, 0, 90, 63
1, 126331, Note_off_c, 0, 97, 66
1, 126331, Note_off_c, 0, 82, 66
1, 126491, Control_c, 0, 67, 114
1, 126550, Control_c, 0, 67, 113
1, 126609, Control_c, 0, 67, 113
1, 126787, Control_c, 0, 67, 112
1, 126847, Control_c, 0, 67, 112
1, 126966, Control_c, 0, 67, 111
1, 126981, Control_c, 0, 67, 111
1, 127159, Control_c, 0, 67, 110
1, 127226, Control_c, 0, 67, 110
1, 127463, Control_c, 0, 67, 109
1, 127492, Control_c, 0, 67, 109
1, 127595, Control_c, 0, 67, 108
1, 127730, Control_c, 0, 67, 108
1, 127759, Control_c, 0, 67, 107
1, 127849, Control_c, 0, 67, 107
1, 127863, Control_c, 0, 67, 106
1, 127944, Control_c, 0, 67, 106
1, 127974, Control_c, 0, 67, 105
1, 128033, Control_c, 0, 67, 105
1, 128048, Control_c, 0, 67, 103
1, 128063, Control_c, 0, 67, 103
1, 128078, Control_c, 0, 67, 102
1, 128108, Control_c, 0, 67, 101
1, 128123, Control_c, 0, 67, 101
1, 128138, Control_c, 0, 67, 100
1, 128152, Control_c, 0, 67, 100
1, 128182, Control_c, 0, 67, 99
1, 128195, Control_c, 0, 67, 99
1, 128224, Control_c, 0, 67, 98
1, 128239, Control_c, 0, 67, 97
1, 128254, Control_c, 0, 67, 96
1, 128269, Control_c, 0, 67, 94
1, 128284, Control_c, 0, 67, 93
1, 128299, Control_c, 0, 67, 92
1, 128314, Control_c, 0, 67, 91
1, 128329, Control_c, 0, 67, 90
1, 128358, Control_c, 0, 67, 89
1, 128373, Control_c, 0, 67, 89
1, 128388, Control_c, 0, 67, 88
1, 128403, Control_c, 0, 67, 88
1, 128417, Control_c, 0, 67, 86
1, 128432, Control_c, 0, 67, 85
1, 128447, Control_c, 0, 67, 84
1, 128462, Control_c, 0, 67, 83
1, 128476, Control_c, 0, 67, 82
1, 128491, Control_c, 0, 67, 81
1, 128506, Control_c, 0, 67, 79
1, 128522, Control_c, 0, 67, 77
1, 128537, Control_c, 0, 67, 75
1, 128552, Control_c, 0, 67, 73
1, 128566, Control_c, 0, 67, 70
1, 128581, Control_c, 0, 67, 67
1, 128596, Control_c, 0, 67, 63
1, 128611, Control_c, 0, 67, 60
1, 128626, Control_c, 0, 67, 58
1, 128640, Control_c, 0, 67, 55
1, 128655, Control_c, 0, 67, 52
1, 128670, Control_c, 0, 67, 50
1, 128692, Control_c, 0, 67, 49
1, 128707, Control_c, 0, 67, 47
1, 128722, Control_c, 0, 67, 47
1, 128752, Control_c, 0, 67, 46
1, 128811, Control_c, 0, 67, 46
1, 128826, Control_c, 0, 67, 45
1, 128840, Control_c, 0, 67, 44
1, 128855, Control_c, 0, 67, 41
1, 128870, Control_c, 0, 67, 38
1, 128885, Control_c, 0, 67, 35
1, 128899, Control_c, 0, 67, 32
1, 128914, Control_c, 0, 67, 28
1, 128929, Control_c, 0, 67, 25
1, 128944, Control_c, 0, 67, 23
1, 128959, Control_c, 0, 67, 21
1, 128973, Control_c, 0, 67, 19
1, 128988, Control_c, 0, 67, 18
1, 129003, Control_c, 0, 67, 17
1, 129018, Control_c, 0, 67, 16
1, 129033, Control_c, 0, 67, 14
1, 129047, Control_c, 0, 67, 12
1, 129062, Control_c, 0, 67, 9
1, 129077, Control_c, 0, 67, 0
1, 129211, Control_c, 0, 64, 109
1, 129226, Control_c, 0, 64, 92
1, 129240, Control_c, 0, 64, 77
1, 129255, Control_c, 0, 64, 59
1, 129270, Control_c, 0, 64, 0
1, 129270, End_track
0, 0, End_of_file
