0, 0, Header, 0, 1, 384
1, 0, Start_track
1, 0, Title_t, "Etude No.13--Taverna            "
1, 0, Text_t, "2009 International Piano-e-Competition finals"
1, 0, Text_t, "captured June-July 2009"
1, 0, Text_t, "http://www.piano-e-competition.com/"
1, 0, Text_t, "standard-resolution version"
1, 0, Text_t, "File processed for distribution by software from Zenph Studios, Inc., http://www.zenph.com"
1, 0, Instrument_name_t, "Yamaha Disklavier Pro Mark IV concert grand piano, model DCFIIISM4PRO"
1, 0, Sequencer_specific, 39, 67, 113, 0, 1, 0, 1, 0, 69, 116, 117, 100, 101, 32, 78, 111, 46, 49, 51, 32, 32, 32, 32, 32, 65, 84, 97, 118, 101, 114, 110, 97, 32, 32, 32, 32, 32, 32, 32, 32
1, 0, Sequencer_specific, 6, 67, 113, 0, 0, 0, 69
1, 0, System_exclusive, 21, 67, 113, 126, 21, 0, 2, 2, 1, 1, 13, 3, 4, 10, 4, 13, 2, 1, 1, 4, 3, 247
1, 0, Sequencer_specific, 5, 67, 123, 12, 2, 1
1, 0, Tempo, 512820
1, 0, Time_signature, 4, 2, 24, 8
1, 0, System_exclusive, 5, 126, 127, 9, 1, 247
1, 1, System_exclusive, 8, 67, 16, 76, 0, 0, 126, 0, 247
1, 2, System_exclusive, 8, 67, 16, 76, 8, 9, 7, 1, 247
1, 3, Control_c, 0, 0, 0
1, 3, Control_c, 1, 0, 0
1, 3, Control_c, 2, 0, 0
1, 3, Control_c, 3, 0, 0
1, 3, Control_c, 4, 0, 0
1, 3, Control_c, 5, 0, 0
1, 3, Control_c, 6, 0, 0
1, 3, Control_c, 7, 0, 0
1, 3, Control_c, 8, 0, 0
1, 3, Control_c, 9, 0, 127
1, 3, Control_c, 10, 0, 0
1, 3, Control_c, 11, 0, 0
1, 3, Control_c, 12, 0, 0
1, 3, Control_c, 13, 0, 0
1, 3, Control_c, 14, 0, 0
1, 3, Control_c, 15, 0, 0
1, 4, Control_c, 0, 32, 0
1, 4, Control_c, 1, 32, 0
1, 4, Control_c, 2, 32, 0
1, 4, Control_c, 3, 32, 0
1, 4, Control_c, 4, 32, 0
1, 4, Control_c, 5, 32, 0
1, 4, Control_c, 6, 32, 0
1, 4, Control_c, 7, 32, 0
1, 4, Control_c, 8, 32, 0
1, 4, Control_c, 9, 32, 0
1, 4, Control_c, 10, 32, 0
1, 4, Control_c, 11, 32, 0
1, 4, Control_c, 12, 32, 0
1, 4, Control_c, 13, 32, 0
1, 4, Control_c, 14, 32, 0
1, 4, Control_c, 15, 32, 0
1, 5, Program_c, 0, 0
1, 5, Program_c, 1, 0
1, 5, Program_c, 2, 0
1, 5, Program_c, 3, 0
1, 5, Program_c, 4, 0
1, 5, Program_c, 5, 0
1, 5, Program_c, 6, 0
1, 5, Program_c, 7, 0
1, 5, Program_c, 8, 0
1, 5, Program_c, 9, 0
1, 5, Program_c, 10, 0
1, 5, Program_c, 11, 0
1, 5, Program_c, 12, 0
1, 5, Program_c, 13, 0
1, 5, Program_c, 14, 0
1, 5, Program_c, 15, 0
1, 6, Control_c, 0, 7, 100
1, 6, Control_c, 1, 7, 100
1, 6, Control_c, 2, 7, 100
1, 6, Control_c, 3, 7, 100
1, 6, Control_c, 4, 7, 100
1, 6, Control_c, 5, 7, 100
1, 6, Control_c, 6, 7, 100
1, 6, Control_c, 7, 7, 100
1, 6, Control_c, 8, 7, 100
1, 6, Control_c, 9, 7, 100
1, 6, Control_c, 10, 7, 100
1, 6, Control_c, 11, 7, 100
1, 6, Control_c, 12, 7, 100
1, 6, Control_c, 13, 7, 100
1, 6, Control_c, 14, 7, 100
1, 6, Control_c, 15, 7, 100
1, 117, Control_c, 0, 67, 15
1, 229, Control_c, 0, 67, 31
1, 341, Control_c, 0, 67, 46
1, 452, Control_c, 0, 67, 63
1, 564, Control_c, 0, 67, 77
1, 676, Control_c, 0, 67, 94
1, 787, Control_c, 0, 67, 108
1, 899, Control_c, 0, 67, 127
1, 1132, Note_on_c, 0, 35, 47
1, 1162, Note_off_c, 0, 35, 58
1, 1246, Note_on_c, 0, 46, 39
1, 1277, Note_off_c, 0, 46, 50
1, 1370, Note_on_c, 0, 36, 31
1, 1411, Note_off_c, 0, 36, 45
1, 1463, Note_on_c, 0, 42, 51
1, 1494, Note_off_c, 0, 42, 58
1, 1577, Note_on_c, 0, 37, 54
1, 1624, Note_off_c, 0, 37, 61
1, 1688, Note_on_c, 0, 46, 63
1, 1738, Note_off_c, 0, 46, 51
1, 1788, Note_on_c, 0, 42, 59
1, 1842, Note_off_c, 0, 42, 59
1, 1911, Note_on_c, 0, 38, 57
1, 1948, Note_off_c, 0, 38, 55
1, 2013, Note_on_c, 0, 46, 56
1, 2051, Note_off_c, 0, 46, 61
1, 2131, Note_on_c, 0, 39, 49
1, 2159, Note_off_c, 0, 39, 56
1, 2208, Note_on_c, 0, 48, 64
1, 2254, Note_off_c, 0, 48, 57
1, 2329, Note_on_c, 0, 40, 61
1, 2360, Note_off_c, 0, 40, 66
1, 2420, Note_on_c, 0, 46, 64
1, 2456, Note_off_c, 0, 46, 62
1, 2530, Note_on_c, 0, 41, 57
1, 2592, Note_off_c, 0, 41, 51
1, 2645, Note_on_c, 0, 48, 58
1, 2705, Note_off_c, 0, 48, 53
1, 2740, Note_on_c, 0, 46, 62
1, 2776, Note_off_c, 0, 46, 62
1, 2846, Note_on_c, 0, 42, 66
1, 2901, Note_off_c, 0, 42, 62
1, 2946, Note_on_c, 0, 48, 71
1, 2990, Note_off_c, 0, 48, 60
1, 3052, Note_on_c, 0, 43, 75
1, 3116, Note_off_c, 0, 43, 58
1, 3150, Note_on_c, 0, 52, 74
1, 3200, Note_off_c, 0, 52, 60
1, 3267, Note_on_c, 0, 44, 65
1, 3334, Note_off_c, 0, 44, 63
1, 3405, Note_on_c, 0, 52, 45
1, 3440, Note_off_c, 0, 52, 54
1, 3489, Note_on_c, 0, 48, 55
1, 3515, Note_off_c, 0, 48, 54
1, 3591, Note_on_c, 0, 45, 73
1, 3618, Note_off_c, 0, 45, 66
1, 3714, Note_on_c, 0, 54, 38
1, 3742, Note_off_c, 0, 54, 56
1, 3795, Note_on_c, 0, 46, 59
1, 3843, Note_off_c, 0, 46, 54
1, 3889, Note_on_c, 0, 52, 60
1, 3946, Note_off_c, 0, 52, 58
1, 4008, Note_on_c, 0, 47, 71
1, 4026, Note_on_c, 0, 35, 55
1, 4059, Control_c, 0, 64, 40
1, 4074, Control_c, 0, 64, 48
1, 4082, Note_off_c, 0, 35, 59
1, 4088, Note_off_c, 0, 47, 59
1, 4088, Control_c, 0, 64, 49
1, 4103, Control_c, 0, 64, 50
1, 4115, Note_on_c, 0, 54, 63
1, 4118, Control_c, 0, 64, 51
1, 4127, Note_on_c, 0, 42, 56
1, 4133, Control_c, 0, 64, 50
1, 4148, Control_c, 0, 64, 50
1, 4162, Control_c, 0, 64, 49
1, 4163, Note_off_c, 0, 42, 58
1, 4170, Note_off_c, 0, 54, 58
1, 4221, Control_c, 0, 67, 90
1, 4233, Note_on_c, 0, 48, 70
1, 4236, Control_c, 0, 67, 42
1, 4250, Note_on_c, 0, 36, 55
1, 4251, Control_c, 0, 64, 48
1, 4251, Control_c, 0, 67, 0
1, 4266, Control_c, 0, 64, 46
1, 4280, Control_c, 0, 64, 39
1, 4295, Control_c, 0, 64, 0
1, 4304, Note_off_c, 0, 48, 55
1, 4339, Note_on_c, 0, 58, 62
1, 4356, Control_c, 0, 67, 16
1, 4359, Note_on_c, 0, 46, 37
1, 4361, Note_off_c, 0, 36, 36
1, 4371, Control_c, 0, 67, 36
1, 4385, Control_c, 0, 67, 52
1, 4396, Note_off_c, 0, 58, 59
1, 4400, Note_off_c, 0, 46, 47
1, 4400, Control_c, 0, 67, 65
1, 4415, Control_c, 0, 67, 75
1, 4429, Control_c, 0, 67, 83
1, 4439, Note_on_c, 0, 54, 60
1, 4444, Control_c, 0, 67, 91
1, 4445, Note_on_c, 0, 42, 46
1, 4459, Control_c, 0, 67, 99
1, 4474, Control_c, 0, 67, 109
1, 4480, Note_off_c, 0, 54, 59
1, 4489, Control_c, 0, 67, 118
1, 4495, Note_off_c, 0, 42, 53
1, 4504, Control_c, 0, 67, 127
1, 4549, Note_on_c, 0, 49, 75
1, 4569, Note_on_c, 0, 37, 50
1, 4608, Note_off_c, 0, 37, 63
1, 4638, Note_off_c, 0, 49, 56
1, 4641, Note_on_c, 0, 58, 63
1, 4650, Note_on_c, 0, 46, 48
1, 4676, Note_off_c, 0, 58, 60
1, 4677, Note_off_c, 0, 46, 57
1, 4764, Note_on_c, 0, 50, 67
1, 4768, Note_on_c, 0, 38, 52
1, 4823, Note_off_c, 0, 38, 58
1, 4840, Note_off_c, 0, 50, 62
1, 4870, Note_on_c, 0, 48, 48
1, 4870, Note_on_c, 0, 60, 57
1, 4902, Note_off_c, 0, 48, 59
1, 4906, Note_off_c, 0, 60, 62
1, 4979, Note_on_c, 0, 51, 61
1, 4981, Note_on_c, 0, 39, 42
1, 5016, Note_off_c, 0, 39, 54
1, 5048, Note_off_c, 0, 51, 58
1, 5064, Note_on_c, 0, 58, 57
1, 5070, Note_on_c, 0, 46, 47
1, 5100, Note_off_c, 0, 58, 60
1, 5112, Note_off_c, 0, 46, 58
1, 5180, Note_on_c, 0, 52, 77
1, 5194, Note_on_c, 0, 40, 53
1, 5236, Note_off_c, 0, 40, 61
1, 5249, Note_off_c, 0, 52, 60
1, 5276, Note_on_c, 0, 48, 50
1, 5277, Note_on_c, 0, 60, 62
1, 5283, Control_c, 0, 67, 110
1, 5298, Control_c, 0, 67, 78
1, 5309, Note_off_c, 0, 48, 61
1, 5313, Control_c, 0, 67, 37
1, 5322, Note_off_c, 0, 60, 61
1, 5327, Control_c, 0, 67, 0
1, 5394, Note_on_c, 0, 53, 75
1, 5399, Note_on_c, 0, 41, 58
1, 5454, Note_off_c, 0, 41, 59
1, 5485, Note_off_c, 0, 53, 63
1, 5490, Control_c, 0, 67, 21
1, 5496, Note_on_c, 0, 64, 57
1, 5499, Note_on_c, 0, 52, 46
1, 5505, Control_c, 0, 67, 52
1, 5520, Control_c, 0, 67, 82
1, 5535, Control_c, 0, 67, 111
1, 5537, Note_off_c, 0, 52, 61
1, 5537, Note_off_c, 0, 64, 62
1, 5557, Control_c, 0, 67, 127
1, 5607, Note_on_c, 0, 60, 55
1, 5616, Note_on_c, 0, 48, 34
1, 5640, Note_off_c, 0, 60, 64
1, 5652, Note_off_c, 0, 48, 49
1, 5712, Note_on_c, 0, 54, 73
1, 5718, Note_on_c, 0, 42, 50
1, 5771, Note_off_c, 0, 42, 61
1, 5780, Note_off_c, 0, 54, 62
1, 5801, Note_on_c, 0, 64, 53
1, 5841, Note_off_c, 0, 64, 62
1, 5868, Control_c, 0, 67, 123
1, 5883, Control_c, 0, 67, 72
1, 5898, Control_c, 0, 67, 22
1, 5913, Control_c, 0, 67, 0
1, 5919, Note_on_c, 0, 43, 49
1, 5922, Note_on_c, 0, 55, 67
1, 5973, Control_c, 0, 67, 9
1, 5984, Note_off_c, 0, 43, 55
1, 5987, Note_off_c, 0, 55, 62
1, 5988, Control_c, 0, 67, 43
1, 6003, Control_c, 0, 67, 92
1, 6018, Control_c, 0, 67, 127
1, 6020, Note_on_c, 0, 48, 42
1, 6026, Note_on_c, 0, 60, 48
1, 6050, Note_off_c, 0, 48, 51
1, 6061, Note_off_c, 0, 60, 53
1, 6127, Note_on_c, 0, 44, 57
1, 6127, Note_on_c, 0, 56, 74
1, 6178, Note_off_c, 0, 44, 62
1, 6195, Note_off_c, 0, 56, 58
1, 6215, Note_on_c, 0, 64, 58
1, 6221, Note_on_c, 0, 52, 54
1, 6248, Note_off_c, 0, 52, 58
1, 6248, Note_off_c, 0, 64, 64
1, 6270, Control_c, 0, 67, 126
1, 6284, Control_c, 0, 67, 23
1, 6307, Control_c, 0, 67, 0
1, 6340, Note_on_c, 0, 57, 81
1, 6348, Note_on_c, 0, 45, 61
1, 6446, Note_off_c, 0, 57, 62
1, 6447, Note_on_c, 0, 64, 57
1, 6451, Note_on_c, 0, 52, 51
1, 6457, Note_off_c, 0, 45, 56
1, 6477, Note_off_c, 0, 52, 62
1, 6504, Note_off_c, 0, 64, 62
1, 6558, Note_on_c, 0, 60, 42
1, 6579, Note_on_c, 0, 48, 19
1, 6585, Note_off_c, 0, 60, 56
1, 6602, Control_c, 0, 67, 8
1, 6617, Control_c, 0, 67, 10
1, 6625, Note_off_c, 0, 48, 43
1, 6632, Control_c, 0, 67, 14
1, 6647, Control_c, 0, 67, 17
1, 6662, Control_c, 0, 67, 18
1, 6669, Note_on_c, 0, 58, 77
1, 6679, Note_on_c, 0, 46, 62
1, 6692, Control_c, 0, 64, 34
1, 6707, Control_c, 0, 64, 55
1, 6707, Control_c, 0, 67, 18
1, 6722, Control_c, 0, 64, 59
1, 6728, Note_off_c, 0, 46, 60
1, 6737, Control_c, 0, 64, 58
1, 6739, Note_off_c, 0, 58, 62
1, 6752, Control_c, 0, 64, 51
1, 6763, Note_on_c, 0, 66, 54
1, 6767, Control_c, 0, 64, 0
1, 6774, Note_on_c, 0, 54, 39
1, 6796, Control_c, 0, 67, 18
1, 6802, Note_off_c, 0, 66, 60
1, 6805, Note_off_c, 0, 54, 46
1, 6811, Control_c, 0, 67, 17
1, 6826, Control_c, 0, 67, 16
1, 6841, Control_c, 0, 67, 15
1, 6856, Control_c, 0, 67, 15
1, 6871, Control_c, 0, 67, 15
1, 6875, Note_on_c, 0, 59, 64
1, 6880, Note_on_c, 0, 47, 61
1, 6900, Control_c, 0, 67, 16
1, 6915, Control_c, 0, 67, 16
1, 6930, Control_c, 0, 67, 17
1, 6942, Note_off_c, 0, 59, 60
1, 6945, Control_c, 0, 67, 18
1, 6960, Control_c, 0, 67, 19
1, 6972, Note_off_c, 0, 47, 56
1, 6974, Control_c, 0, 67, 20
1, 6984, Note_on_c, 0, 64, 39
1, 6989, Control_c, 0, 67, 23
1, 7004, Control_c, 0, 67, 26
1, 7019, Control_c, 0, 67, 29
1, 7032, Note_off_c, 0, 64, 45
1, 7033, Control_c, 0, 67, 33
1, 7052, Poly_aftertouch_c, 0, 52, 0
1, 7055, Control_c, 0, 67, 39
1, 7070, Control_c, 0, 67, 44
1, 7085, Control_c, 0, 67, 49
1, 7100, Control_c, 0, 67, 56
1, 7108, Note_on_c, 0, 58, 74
1, 7114, Control_c, 0, 64, 26
1, 7114, Control_c, 0, 67, 64
1, 7121, Note_on_c, 0, 48, 60
1, 7129, Control_c, 0, 64, 58
1, 7129, Control_c, 0, 67, 74
1, 7144, Control_c, 0, 64, 66
1, 7144, Control_c, 0, 67, 86
1, 7159, Control_c, 0, 64, 78
1, 7159, Control_c, 0, 67, 98
1, 7174, Control_c, 0, 64, 104
1, 7174, Control_c, 0, 67, 109
1, 7188, Control_c, 0, 64, 127
1, 7188, Control_c, 0, 67, 118
1, 7190, Note_off_c, 0, 48, 57
1, 7203, Control_c, 0, 67, 125
1, 7205, Note_off_c, 0, 58, 39
1, 7216, Note_on_c, 0, 66, 53
1, 7218, Control_c, 0, 67, 127
1, 7240, Note_on_c, 0, 54, 36
1, 7256, Note_off_c, 0, 66, 50
1, 7262, Control_c, 0, 64, 104
1, 7273, Note_off_c, 0, 54, 47
1, 7277, Control_c, 0, 64, 87
1, 7277, Control_c, 0, 67, 127
1, 7292, Control_c, 0, 64, 75
1, 7292, Control_c, 0, 67, 125
1, 7306, Control_c, 0, 64, 67
1, 7306, Control_c, 0, 67, 125
1, 7309, Note_on_c, 0, 64, 54
1, 7321, Control_c, 0, 64, 59
1, 7321, Control_c, 0, 67, 124
1, 7333, Note_on_c, 0, 52, 51
1, 7336, Control_c, 0, 64, 34
1, 7336, Control_c, 0, 67, 123
1, 7345, Note_off_c, 0, 64, 62
1, 7351, Control_c, 0, 64, 0
1, 7351, Control_c, 0, 67, 121
1, 7364, Note_off_c, 0, 52, 62
1, 7365, Control_c, 0, 67, 119
1, 7380, Control_c, 0, 67, 116
1, 7395, Control_c, 0, 67, 113
1, 7410, Control_c, 0, 67, 109
1, 7420, Note_on_c, 0, 57, 72
1, 7425, Control_c, 0, 67, 108
1, 7437, Note_on_c, 0, 49, 48
1, 7440, Control_c, 0, 67, 109
1, 7455, Control_c, 0, 67, 112
1, 7470, Control_c, 0, 67, 115
1, 7478, Note_off_c, 0, 49, 63
1, 7483, Note_off_c, 0, 57, 60
1, 7485, Control_c, 0, 67, 117
1, 7499, Control_c, 0, 67, 120
1, 7514, Control_c, 0, 67, 122
1, 7529, Control_c, 0, 67, 124
1, 7536, Note_on_c, 0, 58, 55
1, 7539, Note_on_c, 0, 66, 35
1, 7558, Note_off_c, 0, 58, 62
1, 7569, Note_off_c, 0, 66, 57
1, 7634, Control_c, 0, 67, 123
1, 7641, Note_on_c, 0, 56, 66
1, 7642, Note_on_c, 0, 50, 66
1, 7648, Control_c, 0, 67, 123
1, 7663, Control_c, 0, 67, 122
1, 7678, Control_c, 0, 67, 121
1, 7682, Note_off_c, 0, 56, 61
1, 7687, Note_off_c, 0, 50, 59
1, 7708, Control_c, 0, 67, 120
1, 7717, Note_on_c, 0, 64, 61
1, 7721, Note_on_c, 0, 58, 62
1, 7722, Control_c, 0, 67, 120
1, 7737, Control_c, 0, 67, 119
1, 7752, Control_c, 0, 67, 119
1, 7766, Note_off_c, 0, 58, 52
1, 7770, Note_off_c, 0, 64, 60
1, 7804, Control_c, 0, 67, 118
1, 7819, Control_c, 0, 67, 118
1, 7845, Note_on_c, 0, 55, 69
1, 7847, Note_on_c, 0, 51, 66
1, 7849, Control_c, 0, 67, 117
1, 7881, Note_off_c, 0, 55, 64
1, 7893, Note_off_c, 0, 51, 54
1, 7893, Control_c, 0, 67, 116
1, 7923, Control_c, 0, 67, 115
1, 7935, Note_on_c, 0, 66, 72
1, 7946, Note_on_c, 0, 60, 60
1, 7953, Control_c, 0, 67, 114
1, 7968, Control_c, 0, 67, 112
1, 7980, Note_off_c, 0, 60, 61
1, 7982, Control_c, 0, 67, 108
1, 7988, Note_off_c, 0, 66, 64
1, 7997, Control_c, 0, 67, 104
1, 8012, Control_c, 0, 67, 96
1, 8027, Control_c, 0, 67, 88
1, 8042, Control_c, 0, 67, 83
1, 8056, Control_c, 0, 67, 82
1, 8061, Note_on_c, 0, 52, 79
1, 8063, Note_on_c, 0, 54, 77
1, 8071, Control_c, 0, 67, 84
1, 8086, Control_c, 0, 67, 85
1, 8101, Control_c, 0, 67, 86
1, 8116, Control_c, 0, 64, 37
1, 8116, Control_c, 0, 67, 86
1, 8130, Control_c, 0, 64, 58
1, 8130, Control_c, 0, 67, 87
1, 8145, Control_c, 0, 64, 68
1, 8160, Control_c, 0, 64, 85
1, 8160, Control_c, 0, 67, 86
1, 8161, Note_off_c, 0, 52, 65
1, 8163, Note_off_c, 0, 54, 61
1, 8167, Note_on_c, 0, 70, 81
1, 8174, Control_c, 0, 64, 127
1, 8174, Control_c, 0, 67, 86
1, 8185, Note_on_c, 0, 60, 57
1, 8189, Control_c, 0, 67, 85
1, 8204, Control_c, 0, 67, 83
1, 8219, Control_c, 0, 67, 81
1, 8234, Control_c, 0, 67, 77
1, 8248, Control_c, 0, 67, 62
1, 8252, Note_off_c, 0, 60, 0
1, 8255, Note_off_c, 0, 70, 60
1, 8263, Control_c, 0, 67, 25
1, 8269, Note_on_c, 0, 66, 72
1, 8278, Control_c, 0, 67, 0
1, 8297, Poly_aftertouch_c, 0, 60, 0
1, 8310, Note_off_c, 0, 66, 62
1, 8382, Note_on_c, 0, 53, 70
1, 8383, Control_c, 0, 64, 88
1, 8397, Control_c, 0, 64, 62
1, 8412, Control_c, 0, 64, 0
1, 8430, Note_off_c, 0, 53, 62
1, 8457, Control_c, 0, 67, 8
1, 8471, Control_c, 0, 67, 21
1, 8474, Note_on_c, 0, 64, 65
1, 8486, Control_c, 0, 67, 31
1, 8501, Control_c, 0, 67, 39
1, 8516, Note_off_c, 0, 64, 57
1, 8516, Control_c, 0, 67, 42
1, 8531, Control_c, 0, 67, 42
1, 8553, Control_c, 0, 67, 43
1, 8568, Control_c, 0, 67, 43
1, 8583, Control_c, 0, 67, 44
1, 8597, Note_on_c, 0, 54, 59
1, 8597, Note_on_c, 0, 47, 60
1, 8598, Control_c, 0, 67, 45
1, 8612, Control_c, 0, 67, 46
1, 8634, Note_off_c, 0, 54, 61
1, 8647, Note_off_c, 0, 47, 60
1, 8692, Note_on_c, 0, 60, 69
1, 8701, Control_c, 0, 67, 45
1, 8716, Control_c, 0, 67, 44
1, 8731, Control_c, 0, 67, 42
1, 8743, Note_off_c, 0, 60, 60
1, 8746, Control_c, 0, 67, 36
1, 8761, Control_c, 0, 67, 23
1, 8775, Control_c, 0, 67, 0
1, 8808, Note_on_c, 0, 55, 67
1, 8808, Note_on_c, 0, 48, 62
1, 8837, Note_off_c, 0, 55, 66
1, 8837, Note_off_c, 0, 48, 62
1, 8904, Note_on_c, 0, 64, 69
1, 8906, Note_on_c, 0, 58, 71
1, 8945, Note_off_c, 0, 64, 61
1, 8948, Note_off_c, 0, 58, 58
1, 9012, Note_on_c, 0, 56, 86
1, 9013, Note_on_c, 0, 49, 81
1, 9050, Note_off_c, 0, 49, 61
1, 9054, Note_off_c, 0, 56, 60
1, 9105, Note_on_c, 0, 66, 74
1, 9115, Note_on_c, 0, 60, 56
1, 9136, Note_off_c, 0, 66, 62
1, 9138, Note_off_c, 0, 60, 60
1, 9217, Note_on_c, 0, 57, 100
1, 9223, Note_on_c, 0, 50, 86
1, 9250, Control_c, 0, 64, 67
1, 9265, Control_c, 0, 64, 108
1, 9276, Note_off_c, 0, 50, 42
1, 9278, Note_off_c, 0, 57, 49
1, 9280, Control_c, 0, 64, 127
1, 9310, Note_on_c, 0, 70, 65
1, 9333, Note_on_c, 0, 64, 44
1, 9360, Note_off_c, 0, 64, 57
1, 9378, Note_off_c, 0, 70, 61
1, 9436, Note_on_c, 0, 54, 79
1, 9437, Note_on_c, 0, 60, 70
1, 9480, Note_off_c, 0, 60, 58
1, 9493, Note_off_c, 0, 54, 57
1, 9524, Control_c, 0, 64, 83
1, 9539, Control_c, 0, 64, 63
1, 9540, Note_on_c, 0, 51, 75
1, 9552, Note_on_c, 0, 58, 77
1, 9554, Control_c, 0, 64, 0
1, 9600, Note_off_c, 0, 51, 63
1, 9621, Note_off_c, 0, 58, 59
1, 9648, Note_on_c, 0, 60, 69
1, 9652, Note_on_c, 0, 66, 70
1, 9688, Note_off_c, 0, 66, 61
1, 9699, Note_off_c, 0, 60, 58
1, 9761, Note_on_c, 0, 52, 74
1, 9762, Note_on_c, 0, 59, 76
1, 9811, Note_off_c, 0, 59, 64
1, 9819, Note_off_c, 0, 52, 67
1, 9849, Note_on_c, 0, 70, 81
1, 9855, Note_on_c, 0, 64, 73
1, 9898, Note_off_c, 0, 64, 61
1, 9902, Note_off_c, 0, 70, 64
1, 9959, Note_on_c, 0, 53, 74
1, 9971, Note_on_c, 0, 60, 81
1, 9992, Note_off_c, 0, 53, 68
1, 10051, Note_off_c, 0, 60, 57
1, 10074, Note_on_c, 0, 72, 82
1, 10084, Note_on_c, 0, 66, 72
1, 10120, Note_off_c, 0, 66, 61
1, 10125, Note_off_c, 0, 72, 66
1, 10240, Note_on_c, 0, 54, 66
1, 10251, Note_on_c, 0, 47, 69
1, 10301, Note_off_c, 0, 54, 61
1, 10311, Note_off_c, 0, 47, 60
1, 10344, Note_on_c, 0, 76, 74
1, 10348, Note_on_c, 0, 70, 71
1, 10391, Note_off_c, 0, 76, 63
1, 10396, Note_off_c, 0, 70, 60
1, 10442, Note_on_c, 0, 72, 75
1, 10455, Note_on_c, 0, 64, 61
1, 10484, Note_off_c, 0, 64, 67
1, 10494, Note_off_c, 0, 72, 65
1, 10554, Note_on_c, 0, 48, 65
1, 10558, Note_on_c, 0, 55, 59
1, 10594, Note_off_c, 0, 55, 64
1, 10615, Note_off_c, 0, 48, 60
1, 10652, Note_on_c, 0, 70, 82
1, 10662, Note_on_c, 0, 60, 65
1, 10695, Note_off_c, 0, 60, 61
1, 10704, Note_off_c, 0, 70, 64
1, 10762, Note_on_c, 0, 56, 71
1, 10773, Note_on_c, 0, 49, 60
1, 10817, Note_off_c, 0, 56, 52
1, 10828, Note_off_c, 0, 49, 53
1, 10865, Note_on_c, 0, 66, 80
1, 10871, Note_on_c, 0, 64, 67
1, 10900, Note_off_c, 0, 64, 65
1, 10919, Note_off_c, 0, 66, 65
1, 10933, Control_c, 0, 64, 21
1, 10947, Control_c, 0, 64, 56
1, 10962, Control_c, 0, 64, 64
1, 10975, Note_on_c, 0, 50, 94
1, 10977, Control_c, 0, 64, 74
1, 10992, Control_c, 0, 64, 127
1, 11009, Note_off_c, 0, 50, 66
1, 11082, Note_on_c, 0, 66, 71
1, 11100, Note_on_c, 0, 60, 57
1, 11136, Note_off_c, 0, 60, 63
1, 11148, Note_off_c, 0, 66, 60
1, 11185, Note_on_c, 0, 64, 72
1, 11193, Note_on_c, 0, 58, 56
1, 11218, Note_off_c, 0, 58, 58
1, 11226, Note_off_c, 0, 64, 57
1, 11361, Note_on_c, 0, 63, 77
1, 11362, Control_c, 0, 64, 75
1, 11369, Note_on_c, 0, 35, 71
1, 11377, Control_c, 0, 64, 55
1, 11391, Control_c, 0, 64, 0
1, 11419, Note_off_c, 0, 63, 63
1, 11436, Control_c, 0, 67, 9
1, 11438, Note_off_c, 0, 35, 60
1, 11451, Control_c, 0, 67, 11
1, 11465, Control_c, 0, 67, 13
1, 11470, Note_on_c, 0, 58, 61
1, 11473, Note_on_c, 0, 42, 59
1, 11480, Control_c, 0, 67, 14
1, 11495, Control_c, 0, 67, 15
1, 11504, Note_off_c, 0, 58, 61
1, 11510, Control_c, 0, 67, 16
1, 11521, Note_off_c, 0, 42, 56
1, 11526, Control_c, 0, 67, 16
1, 11549, Control_c, 0, 67, 18
1, 11564, Control_c, 0, 67, 20
1, 11578, Control_c, 0, 67, 24
1, 11589, Note_on_c, 0, 52, 65
1, 11593, Control_c, 0, 67, 27
1, 11596, Note_on_c, 0, 36, 62
1, 11608, Control_c, 0, 67, 29
1, 11622, Control_c, 0, 67, 32
1, 11637, Control_c, 0, 67, 34
1, 11641, Note_off_c, 0, 52, 51
1, 11652, Note_off_c, 0, 36, 55
1, 11652, Control_c, 0, 67, 35
1, 11667, Control_c, 0, 67, 37
1, 11682, Control_c, 0, 67, 37
1, 11691, Note_on_c, 0, 54, 58
1, 11697, Note_on_c, 0, 46, 39
1, 11730, Note_off_c, 0, 46, 50
1, 11734, Note_off_c, 0, 54, 58
1, 11756, Control_c, 0, 67, 38
1, 11801, Note_on_c, 0, 53, 64
1, 11810, Note_on_c, 0, 37, 51
1, 11816, Control_c, 0, 67, 38
1, 11855, Note_off_c, 0, 37, 58
1, 11860, Control_c, 0, 67, 39
1, 11864, Note_off_c, 0, 53, 60
1, 11890, Control_c, 0, 67, 39
1, 11904, Control_c, 0, 67, 41
1, 11908, Note_on_c, 0, 42, 46
1, 11908, Note_on_c, 0, 58, 51
1, 11919, Control_c, 0, 67, 42
1, 11934, Control_c, 0, 67, 44
1, 11948, Control_c, 0, 67, 45
1, 11949, Note_off_c, 0, 42, 50
1, 11956, Note_off_c, 0, 58, 57
1, 11963, Control_c, 0, 67, 47
1, 11978, Control_c, 0, 67, 48
1, 12008, Control_c, 0, 67, 48
1, 12023, Note_on_c, 0, 54, 76
1, 12037, Control_c, 0, 64, 32
1, 12041, Note_on_c, 0, 38, 58
1, 12052, Control_c, 0, 64, 60
1, 12067, Control_c, 0, 64, 62
1, 12067, Control_c, 0, 67, 49
1, 12082, Control_c, 0, 64, 63
1, 12096, Control_c, 0, 64, 65
1, 12111, Control_c, 0, 64, 71
1, 12116, Note_off_c, 0, 54, 54
1, 12123, Note_on_c, 0, 64, 62
1, 12126, Control_c, 0, 64, 89
1, 12126, Control_c, 0, 67, 48
1, 12138, Note_on_c, 0, 46, 52
1, 12141, Control_c, 0, 64, 127
1, 12141, Control_c, 0, 67, 48
1, 12156, Note_off_c, 0, 38, 29
1, 12167, Note_off_c, 0, 46, 52
1, 12171, Note_off_c, 0, 64, 52
1, 12215, Control_c, 0, 64, 93
1, 12215, Control_c, 0, 67, 48
1, 12230, Control_c, 0, 64, 71
1, 12230, Control_c, 0, 67, 49
1, 12239, Note_on_c, 0, 60, 51
1, 12245, Control_c, 0, 64, 39
1, 12260, Control_c, 0, 64, 0
1, 12260, Control_c, 0, 67, 49
1, 12266, Note_on_c, 0, 42, 28
1, 12275, Control_c, 0, 67, 50
1, 12279, Note_off_c, 0, 60, 61
1, 12308, Note_off_c, 0, 42, 50
1, 12327, Control_c, 0, 67, 50
1, 12364, Note_on_c, 0, 55, 63
1, 12386, Control_c, 0, 67, 50
1, 12397, Note_on_c, 0, 39, 34
1, 12401, Control_c, 0, 64, 52
1, 12401, Control_c, 0, 67, 50
1, 12416, Control_c, 0, 64, 45
1, 12431, Control_c, 0, 64, 0
1, 12433, Note_off_c, 0, 39, 51
1, 12439, Note_off_c, 0, 55, 61
1, 12445, Control_c, 0, 67, 51
1, 12460, Note_on_c, 0, 64, 57
1, 12460, Control_c, 0, 67, 52
1, 12475, Control_c, 0, 67, 53
1, 12490, Control_c, 0, 67, 54
1, 12493, Note_off_c, 0, 64, 66
1, 12496, Note_on_c, 0, 48, 22
1, 12505, Control_c, 0, 67, 56
1, 12519, Control_c, 0, 67, 56
1, 12534, Control_c, 0, 67, 57
1, 12540, Note_off_c, 0, 48, 29
1, 12549, Control_c, 0, 67, 59
1, 12564, Control_c, 0, 67, 60
1, 12576, Note_on_c, 0, 56, 70
1, 12579, Control_c, 0, 67, 61
1, 12581, Note_on_c, 0, 40, 58
1, 12594, Control_c, 0, 67, 62
1, 12609, Control_c, 0, 67, 62
1, 12624, Control_c, 0, 67, 63
1, 12627, Note_off_c, 0, 40, 62
1, 12639, Control_c, 0, 67, 63
1, 12644, Note_off_c, 0, 56, 59
1, 12653, Control_c, 0, 67, 64
1, 12671, Note_on_c, 0, 66, 61
1, 12681, Note_on_c, 0, 46, 49
1, 12705, Note_off_c, 0, 66, 63
1, 12720, Note_off_c, 0, 46, 58
1, 12727, Control_c, 0, 67, 63
1, 12757, Control_c, 0, 67, 63
1, 12771, Control_c, 0, 67, 62
1, 12780, Note_on_c, 0, 57, 66
1, 12783, Note_on_c, 0, 41, 50
1, 12824, Note_off_c, 0, 41, 64
1, 12831, Control_c, 0, 67, 63
1, 12861, Note_off_c, 0, 57, 61
1, 12876, Note_on_c, 0, 48, 56
1, 12879, Note_on_c, 0, 64, 55
1, 12910, Note_off_c, 0, 48, 63
1, 12919, Control_c, 0, 67, 63
1, 12931, Note_off_c, 0, 64, 59
1, 12979, Control_c, 0, 64, 42
1, 12992, Note_on_c, 0, 58, 77
1, 12993, Control_c, 0, 64, 66
1, 12994, Note_on_c, 0, 42, 47
1, 13008, Control_c, 0, 64, 64
1, 13023, Control_c, 0, 64, 39
1, 13045, Note_off_c, 0, 42, 61
1, 13045, Control_c, 0, 64, 0
1, 13060, Control_c, 0, 67, 64
1, 13070, Note_off_c, 0, 58, 62
1, 13086, Note_on_c, 0, 66, 67
1, 13097, Note_on_c, 0, 52, 45
1, 13104, Control_c, 0, 67, 64
1, 13123, Note_off_c, 0, 66, 58
1, 13126, Note_off_c, 0, 52, 58
1, 13180, Control_c, 0, 67, 64
1, 13194, Control_c, 0, 67, 63
1, 13209, Control_c, 0, 67, 63
1, 13212, Note_on_c, 0, 43, 50
1, 13216, Note_on_c, 0, 59, 69
1, 13224, Control_c, 0, 67, 62
1, 13239, Control_c, 0, 67, 61
1, 13254, Control_c, 0, 64, 58
1, 13254, Control_c, 0, 67, 61
1, 13268, Control_c, 0, 64, 72
1, 13283, Control_c, 0, 64, 114
1, 13283, Control_c, 0, 67, 60
1, 13298, Control_c, 0, 64, 127
1, 13300, Note_off_c, 0, 59, 49
1, 13313, Control_c, 0, 67, 59
1, 13316, Note_on_c, 0, 66, 64
1, 13320, Note_off_c, 0, 43, 48
1, 13328, Control_c, 0, 67, 59
1, 13336, Note_on_c, 0, 52, 39
1, 13357, Control_c, 0, 67, 58
1, 13375, Note_off_c, 0, 52, 49
1, 13387, Note_off_c, 0, 66, 37
1, 13425, Note_on_c, 0, 64, 51
1, 13432, Control_c, 0, 67, 58
1, 13437, Note_on_c, 0, 48, 44
1, 13447, Control_c, 0, 64, 90
1, 13461, Note_off_c, 0, 64, 51
1, 13461, Control_c, 0, 64, 62
1, 13461, Control_c, 0, 67, 57
1, 13469, Note_off_c, 0, 48, 53
1, 13476, Control_c, 0, 64, 0
1, 13521, Control_c, 0, 67, 57
1, 13525, Note_on_c, 0, 60, 81
1, 13536, Control_c, 0, 67, 56
1, 13536, Note_on_c, 0, 44, 45
1, 13550, Control_c, 0, 67, 53
1, 13565, Control_c, 0, 64, 60
1, 13565, Control_c, 0, 67, 51
1, 13580, Control_c, 0, 64, 73
1, 13580, Control_c, 0, 67, 49
1, 13582, Note_off_c, 0, 44, 62
1, 13587, Note_off_c, 0, 60, 62
1, 13594, Control_c, 0, 64, 101
1, 13594, Control_c, 0, 67, 47
1, 13609, Control_c, 0, 64, 127
1, 13609, Control_c, 0, 67, 44
1, 13622, Note_on_c, 0, 52, 58
1, 13624, Control_c, 0, 67, 41
1, 13631, Note_on_c, 0, 70, 54
1, 13639, Control_c, 0, 64, 81
1, 13639, Control_c, 0, 67, 39
1, 13654, Note_off_c, 0, 52, 66
1, 13654, Control_c, 0, 64, 53
1, 13654, Control_c, 0, 67, 40
1, 13655, Note_off_c, 0, 70, 60
1, 13668, Control_c, 0, 64, 0
1, 13668, Control_c, 0, 67, 41
1, 13683, Control_c, 0, 67, 41
1, 13727, Control_c, 0, 64, 58
1, 13733, Note_on_c, 0, 61, 82
1, 13742, Control_c, 0, 64, 58
1, 13749, Note_on_c, 0, 45, 55
1, 13757, Control_c, 0, 64, 14
1, 13757, Control_c, 0, 67, 42
1, 13772, Control_c, 0, 64, 0
1, 13809, Control_c, 0, 67, 41
1, 13823, Note_off_c, 0, 61, 60
1, 13832, Note_on_c, 0, 69, 66
1, 13839, Control_c, 0, 67, 40
1, 13847, Note_on_c, 0, 54, 50
1, 13854, Control_c, 0, 67, 40
1, 13861, Note_off_c, 0, 45, 55
1, 13870, Note_off_c, 0, 69, 61
1, 13876, Note_off_c, 0, 54, 53
1, 13883, Control_c, 0, 67, 39
1, 13898, Control_c, 0, 67, 38
1, 13913, Control_c, 0, 67, 37
1, 13929, Control_c, 0, 67, 33
1, 13943, Control_c, 0, 67, 30
1, 13953, Note_on_c, 0, 62, 80
1, 13958, Control_c, 0, 67, 26
1, 13971, Note_on_c, 0, 46, 64
1, 13973, Control_c, 0, 67, 23
1, 13988, Control_c, 0, 67, 21
1, 14003, Control_c, 0, 64, 61
1, 14003, Control_c, 0, 67, 20
1, 14016, Note_off_c, 0, 62, 62
1, 14017, Control_c, 0, 64, 63
1, 14017, Control_c, 0, 67, 21
1, 14021, Note_off_c, 0, 46, 59
1, 14032, Control_c, 0, 64, 48
1, 14032, Control_c, 0, 67, 22
1, 14047, Control_c, 0, 64, 0
1, 14047, Control_c, 0, 67, 24
1, 14055, Note_on_c, 0, 68, 56
1, 14061, Note_on_c, 0, 52, 59
1, 14062, Control_c, 0, 67, 26
1, 14077, Control_c, 0, 67, 27
1, 14091, Control_c, 0, 67, 28
1, 14092, Note_off_c, 0, 52, 68
1, 14093, Note_off_c, 0, 68, 58
1, 14106, Control_c, 0, 67, 30
1, 14121, Control_c, 0, 67, 31
1, 14135, Control_c, 0, 67, 33
1, 14150, Control_c, 0, 67, 35
1, 14162, Note_on_c, 0, 63, 83
1, 14167, Note_on_c, 0, 47, 62
1, 14195, Control_c, 0, 64, 49
1, 14195, Control_c, 0, 67, 34
1, 14210, Control_c, 0, 64, 56
1, 14210, Control_c, 0, 67, 34
1, 14223, Note_off_c, 0, 47, 58
1, 14225, Control_c, 0, 64, 53
1, 14226, Note_off_c, 0, 63, 62
1, 14239, Control_c, 0, 64, 45
1, 14254, Control_c, 0, 64, 22
1, 14254, Control_c, 0, 67, 33
1, 14266, Note_on_c, 0, 52, 55
1, 14266, Note_on_c, 0, 67, 55
1, 14269, Control_c, 0, 64, 0
1, 14269, Control_c, 0, 67, 33
1, 14302, Note_off_c, 0, 52, 66
1, 14338, Note_off_c, 0, 67, 37
1, 14371, Note_on_c, 0, 48, 37
1, 14383, Note_on_c, 0, 66, 36
1, 14403, Control_c, 0, 67, 32
1, 14410, Note_off_c, 0, 48, 48
1, 14415, Note_off_c, 0, 66, 52
1, 14417, Control_c, 0, 67, 32
1, 14447, Control_c, 0, 67, 31
1, 14462, Control_c, 0, 67, 31
1, 14477, Control_c, 0, 67, 30
1, 14491, Control_c, 0, 67, 30
1, 14504, Note_on_c, 0, 65, 87
1, 14506, Control_c, 0, 67, 29
1, 14509, Note_on_c, 0, 44, 63
1, 14516, Note_on_c, 0, 49, 65
1, 14521, Control_c, 0, 67, 28
1, 14542, Control_c, 0, 64, 61
1, 14542, Control_c, 0, 67, 28
1, 14557, Control_c, 0, 64, 67
1, 14557, Control_c, 0, 67, 27
1, 14562, Note_off_c, 0, 44, 60
1, 14564, Note_off_c, 0, 49, 58
1, 14572, Control_c, 0, 67, 25
1, 14587, Control_c, 0, 64, 62
1, 14587, Control_c, 0, 67, 24
1, 14597, Note_off_c, 0, 65, 41
1, 14602, Control_c, 0, 64, 0
1, 14602, Control_c, 0, 67, 24
1, 14616, Control_c, 0, 67, 23
1, 14628, Note_on_c, 0, 71, 39
1, 14631, Control_c, 0, 67, 23
1, 14632, Note_on_c, 0, 55, 27
1, 14658, Note_off_c, 0, 71, 53
1, 14672, Note_off_c, 0, 55, 41
1, 14676, Control_c, 0, 67, 23
1, 14705, Control_c, 0, 67, 24
1, 14722, Note_on_c, 0, 66, 86
1, 14724, Note_on_c, 0, 45, 48
1, 14737, Note_on_c, 0, 50, 54
1, 14751, Control_c, 0, 67, 23
1, 14761, Note_off_c, 0, 45, 64
1, 14765, Control_c, 0, 64, 38
1, 14772, Note_off_c, 0, 50, 64
1, 14780, Control_c, 0, 64, 10
1, 14795, Control_c, 0, 64, 0
1, 14809, Note_off_c, 0, 66, 51
1, 14820, Note_on_c, 0, 70, 57
1, 14824, Note_on_c, 0, 54, 54
1, 14839, Control_c, 0, 67, 23
1, 14840, Note_off_c, 0, 70, 66
1, 14854, Note_off_c, 0, 54, 63
1, 14938, Note_on_c, 0, 67, 86
1, 14958, Note_on_c, 0, 46, 57
1, 14958, Control_c, 0, 67, 22
1, 14958, Note_on_c, 0, 51, 57
1, 14988, Control_c, 0, 64, 55
1, 14988, Control_c, 0, 67, 21
1, 15003, Control_c, 0, 64, 76
1, 15003, Control_c, 0, 67, 20
1, 15017, Control_c, 0, 64, 109
1, 15017, Control_c, 0, 67, 19
1, 15028, Note_off_c, 0, 51, 58
1, 15030, Note_off_c, 0, 46, 51
1, 15032, Control_c, 0, 64, 127
1, 15032, Control_c, 0, 67, 16
1, 15038, Note_off_c, 0, 67, 56
1, 15047, Note_on_c, 0, 54, 61
1, 15047, Control_c, 0, 67, 12
1, 15053, Note_on_c, 0, 69, 63
1, 15062, Control_c, 0, 67, 0
1, 15086, Note_off_c, 0, 54, 57
1, 15089, Note_off_c, 0, 69, 60
1, 15157, Note_on_c, 0, 68, 73
1, 15167, Note_on_c, 0, 53, 56
1, 15184, Note_off_c, 0, 68, 62
1, 15198, Note_off_c, 0, 53, 64
1, 15254, Control_c, 0, 64, 68
1, 15268, Note_on_c, 0, 47, 74
1, 15268, Note_on_c, 0, 67, 91
1, 15269, Control_c, 0, 64, 0
1, 15321, Control_c, 0, 64, 53
1, 15336, Control_c, 0, 64, 73
1, 15345, Note_off_c, 0, 47, 63
1, 15351, Control_c, 0, 64, 127
1, 15357, Note_off_c, 0, 67, 51
1, 15365, Note_on_c, 0, 73, 70
1, 15370, Note_on_c, 0, 57, 62
1, 15395, Control_c, 0, 64, 90
1, 15408, Note_off_c, 0, 57, 60
1, 15409, Note_off_c, 0, 73, 58
1, 15410, Control_c, 0, 64, 63
1, 15425, Control_c, 0, 64, 0
1, 15475, Note_on_c, 0, 68, 88
1, 15485, Note_on_c, 0, 48, 65
1, 15488, Note_on_c, 0, 53, 56
1, 15521, Note_off_c, 0, 53, 67
1, 15541, Note_off_c, 0, 68, 61
1, 15545, Note_off_c, 0, 48, 61
1, 15576, Note_on_c, 0, 75, 68
1, 15588, Note_on_c, 0, 55, 54
1, 15619, Note_off_c, 0, 75, 60
1, 15626, Note_off_c, 0, 55, 65
1, 15682, Note_on_c, 0, 69, 87
1, 15694, Note_on_c, 0, 49, 67
1, 15698, Note_on_c, 0, 54, 64
1, 15733, Note_off_c, 0, 69, 67
1, 15736, Note_off_c, 0, 54, 59
1, 15742, Note_off_c, 0, 49, 55
1, 15782, Note_on_c, 0, 57, 64
1, 15790, Note_on_c, 0, 73, 71
1, 15798, Note_on_c, 0, 67, 49
1, 15810, Note_off_c, 0, 57, 65
1, 15824, Note_off_c, 0, 73, 60
1, 15825, Note_off_c, 0, 67, 57
1, 15891, Note_on_c, 0, 70, 95
1, 15906, Note_on_c, 0, 50, 55
1, 15906, Note_on_c, 0, 55, 66
1, 15929, Control_c, 0, 64, 29
1, 15939, Note_off_c, 0, 50, 64
1, 15944, Control_c, 0, 64, 70
1, 15948, Note_off_c, 0, 55, 63
1, 15956, Note_off_c, 0, 70, 61
1, 15959, Control_c, 0, 64, 97
1, 15974, Control_c, 0, 64, 127
1, 15992, Note_on_c, 0, 61, 72
1, 16004, Note_on_c, 0, 75, 76
1, 16024, Note_on_c, 0, 69, 52
1, 16041, Note_off_c, 0, 61, 57
1, 16049, Note_off_c, 0, 75, 55
1, 16054, Note_off_c, 0, 69, 63
1, 16102, Note_on_c, 0, 73, 77
1, 16112, Note_on_c, 0, 57, 64
1, 16147, Note_off_c, 0, 73, 61
1, 16170, Note_off_c, 0, 57, 61
1, 16174, Control_c, 0, 64, 71
1, 16188, Control_c, 0, 64, 0
1, 16219, Note_on_c, 0, 71, 99
1, 16223, Note_on_c, 0, 56, 67
1, 16234, Note_on_c, 0, 51, 60
1, 16248, Control_c, 0, 64, 55
1, 16262, Control_c, 0, 64, 75
1, 16277, Control_c, 0, 64, 127
1, 16283, Note_off_c, 0, 51, 53
1, 16285, Note_off_c, 0, 71, 59
1, 16307, Control_c, 0, 64, 82
1, 16323, Control_c, 0, 64, 63
1, 16326, Note_off_c, 0, 56, 60
1, 16332, Note_on_c, 0, 79, 58
1, 16332, Note_on_c, 0, 63, 59
1, 16337, Control_c, 0, 64, 0
1, 16358, Note_off_c, 0, 79, 64
1, 16360, Note_off_c, 0, 63, 66
1, 16430, Note_on_c, 0, 72, 98
1, 16442, Note_on_c, 0, 52, 72
1, 16451, Note_on_c, 0, 57, 61
1, 16493, Note_off_c, 0, 57, 60
1, 16496, Note_off_c, 0, 72, 58
1, 16504, Note_off_c, 0, 52, 66
1, 16529, Note_on_c, 0, 61, 69
1, 16531, Note_on_c, 0, 81, 71
1, 16556, Note_off_c, 0, 61, 62
1, 16558, Note_off_c, 0, 81, 61
1, 16644, Note_on_c, 0, 73, 96
1, 16645, Note_on_c, 0, 53, 65
1, 16657, Note_on_c, 0, 58, 64
1, 16663, Control_c, 0, 64, 63
1, 16678, Control_c, 0, 64, 127
1, 16708, Note_off_c, 0, 53, 65
1, 16711, Note_off_c, 0, 73, 58
1, 16731, Note_off_c, 0, 58, 62
1, 16734, Note_on_c, 0, 63, 65
1, 16763, Note_on_c, 0, 79, 65
1, 16798, Note_off_c, 0, 63, 52
1, 16799, Note_off_c, 0, 79, 63
1, 16872, Note_on_c, 0, 74, 82
1, 16878, Note_on_c, 0, 54, 68
1, 16923, Note_off_c, 0, 74, 62
1, 16925, Note_off_c, 0, 54, 60
1, 16940, Poly_aftertouch_c, 0, 59, 127
1, 16973, Note_on_c, 0, 75, 90
1, 16976, Note_on_c, 0, 57, 72
1, 16977, Poly_aftertouch_c, 0, 59, 0
1, 16999, Note_on_c, 0, 67, 48
1, 17015, Note_on_c, 0, 65, 32
1, 17018, Note_off_c, 0, 75, 65
1, 17022, Note_off_c, 0, 57, 59
1, 17024, Note_off_c, 0, 67, 61
1, 17053, Note_off_c, 0, 65, 50
1, 17070, Control_c, 0, 64, 119
1, 17079, Note_on_c, 0, 76, 94
1, 17085, Control_c, 0, 64, 56
1, 17086, Note_on_c, 0, 70, 92
1, 17088, Note_on_c, 0, 55, 78
1, 17092, Note_on_c, 0, 48, 77
1, 17100, Control_c, 0, 64, 0
1, 17137, Note_off_c, 0, 48, 61
1, 17137, Note_off_c, 0, 76, 65
1, 17141, Note_off_c, 0, 55, 62
1, 17152, Note_off_c, 0, 70, 63
1, 17193, Note_on_c, 0, 69, 78
1, 17207, Note_on_c, 0, 51, 68
1, 17220, Control_c, 0, 67, 12
1, 17234, Control_c, 0, 67, 22
1, 17238, Note_off_c, 0, 69, 65
1, 17241, Note_off_c, 0, 51, 65
1, 17249, Control_c, 0, 67, 25
1, 17294, Control_c, 0, 67, 24
1, 17300, Note_on_c, 0, 79, 73
1, 17302, Note_on_c, 0, 61, 68
1, 17308, Control_c, 0, 67, 25
1, 17323, Control_c, 0, 67, 25
1, 17337, Note_off_c, 0, 61, 61
1, 17338, Control_c, 0, 67, 26
1, 17343, Note_off_c, 0, 79, 62
1, 17353, Control_c, 0, 67, 26
1, 17397, Note_on_c, 0, 77, 90
1, 17409, Note_on_c, 0, 49, 61
1, 17412, Control_c, 0, 67, 26
1, 17414, Note_on_c, 0, 71, 74
1, 17418, Note_on_c, 0, 56, 66
1, 17446, Note_off_c, 0, 49, 57
1, 17456, Control_c, 0, 67, 26
1, 17463, Note_off_c, 0, 71, 59
1, 17464, Note_off_c, 0, 77, 63
1, 17471, Control_c, 0, 67, 27
1, 17473, Note_off_c, 0, 56, 62
1, 17501, Control_c, 0, 67, 27
1, 17517, Note_on_c, 0, 55, 61
1, 17540, Note_on_c, 0, 73, 55
1, 17562, Note_off_c, 0, 73, 60
1, 17570, Note_off_c, 0, 55, 55
1, 17581, Control_c, 0, 67, 27
1, 17611, Control_c, 0, 67, 27
1, 17626, Control_c, 0, 67, 28
1, 17629, Note_on_c, 0, 72, 88
1, 17630, Note_on_c, 0, 54, 66
1, 17641, Control_c, 0, 67, 30
1, 17645, Note_on_c, 0, 50, 46
1, 17656, Control_c, 0, 67, 32
1, 17668, Note_off_c, 0, 54, 62
1, 17670, Control_c, 0, 67, 35
1, 17671, Note_off_c, 0, 72, 67
1, 17685, Control_c, 0, 67, 37
1, 17699, Note_off_c, 0, 50, 54
1, 17700, Control_c, 0, 67, 41
1, 17715, Control_c, 0, 67, 45
1, 17730, Control_c, 0, 67, 49
1, 17744, Note_on_c, 0, 51, 52
1, 17745, Control_c, 0, 67, 55
1, 17759, Control_c, 0, 67, 62
1, 17769, Note_off_c, 0, 51, 57
1, 17774, Control_c, 0, 67, 68
1, 17789, Control_c, 0, 67, 72
1, 17804, Control_c, 0, 67, 74
1, 17819, Control_c, 0, 67, 75
1, 17857, Note_on_c, 0, 73, 82
1, 17861, Note_on_c, 0, 52, 63
1, 17863, Control_c, 0, 67, 75
1, 17865, Note_on_c, 0, 44, 51
1, 17877, Control_c, 0, 67, 76
1, 17892, Control_c, 0, 67, 77
1, 17894, Note_off_c, 0, 52, 66
1, 17899, Note_off_c, 0, 44, 64
1, 17906, Note_off_c, 0, 73, 61
1, 17908, Control_c, 0, 67, 78
1, 17966, Note_on_c, 0, 51, 57
1, 17992, Note_on_c, 0, 69, 19
1, 17992, Note_off_c, 0, 51, 63
1, 17997, Control_c, 0, 67, 77
1, 18012, Control_c, 0, 67, 76
1, 18027, Control_c, 0, 67, 76
1, 18032, Note_off_c, 0, 69, 44
1, 18042, Control_c, 0, 67, 73
1, 18056, Control_c, 0, 67, 67
1, 18071, Control_c, 0, 67, 50
1, 18073, Note_on_c, 0, 74, 91
1, 18078, Note_on_c, 0, 53, 68
1, 18085, Note_on_c, 0, 45, 68
1, 18086, Control_c, 0, 67, 14
1, 18101, Control_c, 0, 64, 29
1, 18101, Control_c, 0, 67, 0
1, 18115, Control_c, 0, 64, 67
1, 18130, Note_off_c, 0, 53, 62
1, 18130, Control_c, 0, 64, 75
1, 18145, Control_c, 0, 64, 78
1, 18160, Control_c, 0, 64, 79
1, 18175, Control_c, 0, 64, 81
1, 18177, Note_off_c, 0, 45, 63
1, 18182, Note_on_c, 0, 51, 65
1, 18183, Note_off_c, 0, 74, 63
1, 18189, Control_c, 0, 64, 84
1, 18204, Note_on_c, 0, 69, 44
1, 18204, Control_c, 0, 64, 85
1, 18213, Note_on_c, 0, 67, 39
1, 18219, Control_c, 0, 64, 81
1, 18234, Note_off_c, 0, 51, 49
1, 18234, Note_off_c, 0, 69, 57
1, 18234, Control_c, 0, 64, 66
1, 18244, Note_off_c, 0, 67, 53
1, 18249, Control_c, 0, 64, 0
1, 18304, Note_on_c, 0, 49, 58
1, 18305, Note_on_c, 0, 79, 73
1, 18314, Note_on_c, 0, 75, 76
1, 18344, Note_off_c, 0, 79, 63
1, 18344, Note_off_c, 0, 75, 65
1, 18366, Note_off_c, 0, 49, 62
1, 18398, Note_on_c, 0, 76, 85
1, 18399, Note_on_c, 0, 54, 73
1, 18402, Note_on_c, 0, 46, 79
1, 18411, Note_on_c, 0, 73, 87
1, 18436, Note_off_c, 0, 54, 59
1, 18463, Note_off_c, 0, 46, 61
1, 18463, Note_off_c, 0, 73, 61
1, 18467, Note_off_c, 0, 76, 66
1, 18534, Note_on_c, 0, 69, 44
1, 18562, Note_off_c, 0, 69, 56
1, 18604, Note_on_c, 0, 77, 86
1, 18609, Note_on_c, 0, 47, 79
1, 18610, Note_on_c, 0, 55, 80
1, 18613, Note_on_c, 0, 74, 77
1, 18661, Note_off_c, 0, 47, 63
1, 18662, Note_off_c, 0, 77, 62
1, 18669, Note_off_c, 0, 55, 55
1, 18669, Note_off_c, 0, 74, 65
1, 18707, Note_on_c, 0, 49, 74
1, 18741, Note_on_c, 0, 67, 31
1, 18746, Note_off_c, 0, 49, 62
1, 18780, Note_off_c, 0, 67, 30
1, 18837, Note_on_c, 0, 78, 95
1, 18839, Note_on_c, 0, 48, 79
1, 18843, Note_on_c, 0, 44, 70
1, 18845, Note_on_c, 0, 75, 87
1, 18866, Control_c, 0, 64, 97
1, 18876, Note_on_c, 0, 45, 55
1, 18880, Control_c, 0, 64, 127
1, 18903, Note_off_c, 0, 75, 63
1, 18907, Note_off_c, 0, 45, 65
1, 18909, Note_off_c, 0, 78, 61
1, 18930, Note_off_c, 0, 44, 41
1, 18943, Note_on_c, 0, 51, 78
1, 18943, Note_on_c, 0, 69, 74
1, 18948, Note_off_c, 0, 48, 60
1, 18988, Note_off_c, 0, 69, 64
1, 18998, Note_off_c, 0, 51, 61
1, 19051, Note_on_c, 0, 73, 79
1, 19054, Note_on_c, 0, 57, 55
1, 19054, Note_on_c, 0, 55, 59
1, 19079, Note_off_c, 0, 57, 61
1, 19080, Note_off_c, 0, 55, 65
1, 19097, Note_off_c, 0, 73, 62
1, 19139, Control_c, 0, 64, 74
1, 19154, Control_c, 0, 64, 0
1, 19156, Note_on_c, 0, 45, 65
1, 19161, Note_on_c, 0, 79, 82
1, 19164, Note_on_c, 0, 76, 76
1, 19165, Note_on_c, 0, 49, 69
1, 19212, Note_off_c, 0, 79, 64
1, 19214, Note_off_c, 0, 76, 65
1, 19232, Note_off_c, 0, 49, 61
1, 19265, Note_on_c, 0, 72, 65
1, 19270, Note_on_c, 0, 52, 68
1, 19273, Note_off_c, 0, 45, 39
1, 19291, Note_off_c, 0, 72, 69
1, 19301, Note_off_c, 0, 52, 67
1, 19370, Note_on_c, 0, 80, 85
1, 19381, Note_on_c, 0, 77, 77
1, 19382, Note_on_c, 0, 46, 63
1, 19384, Note_on_c, 0, 50, 63
1, 19419, Note_off_c, 0, 77, 60
1, 19423, Note_off_c, 0, 50, 65
1, 19429, Note_off_c, 0, 46, 62
1, 19440, Note_off_c, 0, 80, 64
1, 19490, Note_on_c, 0, 54, 64
1, 19493, Note_on_c, 0, 70, 45
1, 19520, Note_off_c, 0, 54, 64
1, 19520, Note_off_c, 0, 70, 58
1, 19581, Note_on_c, 0, 78, 79
1, 19581, Note_on_c, 0, 81, 77
1, 19599, Note_on_c, 0, 51, 71
1, 19602, Note_on_c, 0, 47, 70
1, 19644, Note_off_c, 0, 81, 61
1, 19653, Note_off_c, 0, 51, 62
1, 19664, Note_off_c, 0, 47, 63
1, 19675, Note_off_c, 0, 78, 55
1, 19686, Note_on_c, 0, 54, 63
1, 19689, Note_on_c, 0, 72, 48
1, 19712, Note_off_c, 0, 72, 60
1, 19713, Note_off_c, 0, 54, 64
1, 19799, Note_on_c, 0, 82, 82
1, 19799, Control_c, 0, 64, 56
1, 19803, Note_on_c, 0, 79, 77
1, 19811, Note_on_c, 0, 48, 76
1, 19814, Control_c, 0, 64, 127
1, 19816, Note_on_c, 0, 52, 75
1, 19872, Note_off_c, 0, 79, 57
1, 19873, Note_off_c, 0, 48, 61
1, 19888, Note_off_c, 0, 82, 59
1, 19896, Note_off_c, 0, 52, 64
1, 19902, Note_on_c, 0, 70, 63
1, 19918, Note_on_c, 0, 54, 62
1, 19933, Note_off_c, 0, 70, 65
1, 19960, Note_off_c, 0, 54, 59
1, 19989, Note_on_c, 0, 76, 60
1, 20005, Note_on_c, 0, 58, 61
1, 20008, Note_off_c, 0, 76, 66
1, 20031, Note_off_c, 0, 58, 61
1, 20112, Note_on_c, 0, 83, 89
1, 20114, Note_on_c, 0, 80, 87
1, 20123, Note_on_c, 0, 49, 61
1, 20125, Control_c, 0, 64, 67
1, 20129, Note_on_c, 0, 53, 67
1, 20140, Control_c, 0, 64, 0
1, 20184, Control_c, 0, 64, 32
1, 20188, Note_off_c, 0, 83, 59
1, 20189, Note_off_c, 0, 49, 60
1, 20194, Note_off_c, 0, 53, 64
1, 20199, Control_c, 0, 64, 66
1, 20214, Control_c, 0, 64, 79
1, 20216, Note_on_c, 0, 58, 66
1, 20223, Note_off_c, 0, 80, 63
1, 20228, Note_on_c, 0, 72, 41
1, 20228, Control_c, 0, 64, 79
1, 20243, Note_off_c, 0, 58, 67
1, 20243, Control_c, 0, 64, 64
1, 20255, Note_off_c, 0, 72, 55
1, 20258, Control_c, 0, 64, 0
1, 20320, Note_on_c, 0, 84, 98
1, 20326, Note_on_c, 0, 79, 95
1, 20329, Note_on_c, 0, 54, 72
1, 20337, Note_on_c, 0, 48, 68
1, 20395, Note_off_c, 0, 54, 62
1, 20398, Note_off_c, 0, 84, 66
1, 20406, Note_off_c, 0, 48, 62
1, 20413, Note_on_c, 0, 58, 70
1, 20414, Note_off_c, 0, 79, 58
1, 20440, Note_off_c, 0, 58, 66
1, 20534, Control_c, 0, 64, 65
1, 20539, Note_on_c, 0, 78, 94
1, 20539, Note_on_c, 0, 85, 92
1, 20542, Note_on_c, 0, 55, 80
1, 20545, Note_on_c, 0, 47, 79
1, 20549, Control_c, 0, 64, 127
1, 20597, Note_off_c, 0, 78, 62
1, 20606, Note_off_c, 0, 55, 62
1, 20615, Note_off_c, 0, 85, 60
1, 20625, Note_off_c, 0, 47, 62
1, 20645, Note_on_c, 0, 52, 65
1, 20697, Note_off_c, 0, 52, 66
1, 20697, Control_c, 0, 64, 99
1, 20711, Control_c, 0, 64, 61
1, 20726, Control_c, 0, 64, 0
1, 20741, Note_on_c, 0, 86, 97
1, 20742, Note_on_c, 0, 46, 91
1, 20742, Note_on_c, 0, 56, 95
1, 20744, Note_on_c, 0, 77, 98
1, 20771, Control_c, 0, 64, 61
1, 20786, Control_c, 0, 64, 101
1, 20800, Control_c, 0, 64, 127
1, 20815, Note_off_c, 0, 56, 59
1, 20828, Note_off_c, 0, 46, 57
1, 20831, Note_off_c, 0, 77, 51
1, 20833, Note_off_c, 0, 86, 55
1, 20843, Note_on_c, 0, 48, 78
1, 20849, Note_on_c, 0, 82, 76
1, 20871, Note_off_c, 0, 82, 69
1, 20899, Note_off_c, 0, 48, 61
1, 20904, Control_c, 0, 64, 86
1, 20919, Control_c, 0, 64, 54
1, 20934, Control_c, 0, 64, 0
1, 20973, Note_on_c, 0, 57, 95
1, 20975, Note_on_c, 0, 87, 100
1, 20976, Note_on_c, 0, 45, 84
1, 20979, Note_on_c, 0, 76, 91
1, 20993, Control_c, 0, 64, 36
1, 21008, Control_c, 0, 64, 66
1, 21021, Note_on_c, 0, 77, 24
1, 21022, Note_off_c, 0, 77, 127
1, 21023, Control_c, 0, 64, 103
1, 21027, Note_on_c, 0, 88, 21
1, 21038, Control_c, 0, 64, 127
1, 21060, Note_off_c, 0, 76, 65
1, 21063, Poly_aftertouch_c, 0, 77, 0
1, 21067, Note_off_c, 0, 45, 61
1, 21067, Note_off_c, 0, 57, 60
1, 21072, Note_off_c, 0, 88, 43
1, 21075, Note_on_c, 0, 53, 70
1, 21080, Note_off_c, 0, 87, 58
1, 21085, Note_on_c, 0, 84, 67
1, 21152, Note_off_c, 0, 84, 60
1, 21160, Note_off_c, 0, 53, 62
1, 21170, Note_on_c, 0, 48, 60
1, 21186, Note_on_c, 0, 80, 72
1, 21209, Note_off_c, 0, 80, 69
1, 21230, Note_off_c, 0, 48, 62
1, 21246, Control_c, 0, 64, 91
1, 21261, Control_c, 0, 64, 61
1, 21283, Control_c, 0, 64, 0
1, 21294, Note_on_c, 0, 58, 86
1, 21295, Note_on_c, 0, 88, 97
1, 21300, Note_on_c, 0, 46, 86
1, 21300, Note_on_c, 0, 77, 99
1, 21342, Control_c, 0, 64, 58
1, 21357, Control_c, 0, 64, 73
1, 21359, Note_off_c, 0, 58, 63
1, 21361, Note_off_c, 0, 46, 62
1, 21367, Note_off_c, 0, 88, 62
1, 21370, Note_off_c, 0, 77, 59
1, 21372, Control_c, 0, 64, 110
1, 21387, Control_c, 0, 64, 127
1, 21412, Note_on_c, 0, 48, 73
1, 21426, Note_on_c, 0, 82, 54
1, 21446, Control_c, 0, 64, 99
1, 21449, Note_off_c, 0, 82, 59
1, 21451, Note_off_c, 0, 48, 61
1, 21461, Control_c, 0, 64, 65
1, 21476, Control_c, 0, 64, 0
1, 21508, Note_on_c, 0, 89, 100
1, 21513, Note_on_c, 0, 78, 97
1, 21514, Note_on_c, 0, 59, 90
1, 21527, Note_on_c, 0, 47, 59
1, 21529, Note_on_c, 0, 48, 73
1, 21572, Note_off_c, 0, 47, 56
1, 21574, Note_off_c, 0, 78, 59
1, 21596, Note_off_c, 0, 59, 59
1, 21604, Note_off_c, 0, 89, 58
1, 21620, Note_on_c, 0, 49, 65
1, 21635, Note_on_c, 0, 84, 51
1, 21650, Note_off_c, 0, 48, 34
1, 21656, Note_off_c, 0, 49, 64
1, 21656, Note_off_c, 0, 84, 59
1, 21722, Note_on_c, 0, 60, 92
1, 21727, Note_on_c, 0, 48, 88
1, 21730, Note_on_c, 0, 90, 107
1, 21730, Note_on_c, 0, 79, 98
1, 21757, Control_c, 0, 64, 67
1, 21772, Control_c, 0, 64, 127
1, 21797, Note_off_c, 0, 79, 52
1, 21802, Note_off_c, 0, 48, 62
1, 21806, Note_off_c, 0, 90, 62
1, 21807, Note_off_c, 0, 60, 59
1, 21814, Note_on_c, 0, 53, 76
1, 21817, Note_on_c, 0, 85, 75
1, 21842, Note_off_c, 0, 85, 66
1, 21864, Note_off_c, 0, 53, 65
1, 21906, Control_c, 0, 64, 81
1, 21921, Control_c, 0, 64, 58
1, 21933, Note_on_c, 0, 61, 101
1, 21936, Note_on_c, 0, 49, 94
1, 21936, Control_c, 0, 64, 0
1, 21938, Note_on_c, 0, 80, 98
1, 21938, Note_on_c, 0, 91, 104
1, 21965, Control_c, 0, 64, 54
1, 21980, Control_c, 0, 64, 90
1, 21995, Control_c, 0, 64, 127
1, 22018, Note_off_c, 0, 61, 55
1, 22029, Note_on_c, 0, 56, 80
1, 22032, Note_off_c, 0, 49, 61
1, 22036, Note_off_c, 0, 80, 58
1, 22039, Note_on_c, 0, 85, 80
1, 22046, Note_off_c, 0, 91, 32
1, 22091, Note_off_c, 0, 56, 59
1, 22103, Note_off_c, 0, 85, 61
1, 22124, Note_on_c, 0, 90, 74
1, 22139, Note_on_c, 0, 53, 65
1, 22140, Note_off_c, 0, 90, 68
1, 22175, Note_off_c, 0, 53, 66
1, 22235, Poly_aftertouch_c, 0, 89, 0
1, 22239, Control_c, 0, 64, 71
1, 22254, Control_c, 0, 64, 0
1, 22267, Note_on_c, 0, 92, 112
1, 22268, Note_on_c, 0, 50, 84
1, 22269, Note_on_c, 0, 60, 84
1, 22270, Note_on_c, 0, 81, 98
1, 22281, Note_on_c, 0, 87, 75
1, 22312, Note_on_c, 0, 88, 48
1, 22317, Note_off_c, 0, 60, 61
1, 22324, Note_off_c, 0, 87, 0
1, 22324, Note_on_c, 0, 87, 26
1, 22329, Note_off_c, 0, 81, 59
1, 22334, Note_off_c, 0, 92, 61
1, 22341, Note_off_c, 0, 88, 55
1, 22359, Note_off_c, 0, 87, 54
1, 22360, Note_off_c, 0, 50, 59
1, 22367, Note_on_c, 0, 90, 64
1, 22369, Note_on_c, 0, 56, 73
1, 22395, Note_off_c, 0, 90, 66
1, 22417, Note_off_c, 0, 56, 63
1, 22470, Note_on_c, 0, 51, 74
1, 22472, Note_on_c, 0, 91, 105
1, 22475, Note_on_c, 0, 82, 96
1, 22476, Note_on_c, 0, 59, 82
1, 22482, Note_on_c, 0, 86, 90
1, 22505, Control_c, 0, 64, 69
1, 22520, Note_off_c, 0, 59, 66
1, 22520, Control_c, 0, 64, 81
1, 22535, Control_c, 0, 64, 81
1, 22538, Note_off_c, 0, 51, 61
1, 22542, Note_off_c, 0, 82, 56
1, 22550, Control_c, 0, 64, 75
1, 22554, Note_off_c, 0, 91, 56
1, 22565, Control_c, 0, 64, 68
1, 22574, Note_off_c, 0, 86, 60
1, 22580, Control_c, 0, 64, 56
1, 22586, Note_on_c, 0, 53, 72
1, 22595, Control_c, 0, 64, 0
1, 22625, Note_off_c, 0, 53, 63
1, 22693, Note_on_c, 0, 90, 104
1, 22696, Note_on_c, 0, 58, 79
1, 22698, Note_on_c, 0, 83, 90
1, 22699, Note_on_c, 0, 85, 86
1, 22700, Note_on_c, 0, 52, 71
1, 22729, Control_c, 0, 64, 44
1, 22744, Control_c, 0, 64, 64
1, 22748, Note_off_c, 0, 58, 63
1, 22759, Control_c, 0, 64, 63
1, 22761, Note_off_c, 0, 83, 60
1, 22765, Note_off_c, 0, 85, 61
1, 22780, Control_c, 0, 64, 62
1, 22795, Control_c, 0, 64, 61
1, 22798, Note_off_c, 0, 52, 67
1, 22806, Note_on_c, 0, 56, 75
1, 22827, Note_on_c, 0, 93, 72
1, 22827, Note_off_c, 0, 90, 60
1, 22854, Control_c, 0, 64, 60
1, 22859, Note_off_c, 0, 56, 62
1, 22869, Control_c, 0, 64, 58
1, 22884, Note_off_c, 0, 93, 57
1, 22884, Control_c, 0, 64, 56
1, 22899, Control_c, 0, 64, 45
1, 22909, Note_on_c, 0, 53, 68
1, 22914, Control_c, 0, 64, 0
1, 22916, Note_on_c, 0, 87, 69
1, 22942, Note_off_c, 0, 87, 66
1, 22971, Note_off_c, 0, 53, 62
1, 23032, Note_on_c, 0, 57, 58
1, 23034, Note_on_c, 0, 89, 77
1, 23041, Note_on_c, 0, 84, 63
1, 23062, Note_off_c, 0, 57, 64
1, 23075, Note_off_c, 0, 84, 62
1, 23086, Note_off_c, 0, 89, 63
1, 23150, Note_on_c, 0, 94, 88
1, 23155, Note_on_c, 0, 46, 76
1, 23216, Note_off_c, 0, 94, 66
1, 23238, Note_off_c, 0, 46, 62
1, 23254, Note_on_c, 0, 87, 91
1, 23256, Note_on_c, 0, 53, 66
1, 23260, Note_on_c, 0, 58, 70
1, 23260, Note_on_c, 0, 85, 72
1, 23291, Note_off_c, 0, 85, 65
1, 23297, Note_off_c, 0, 58, 58
1, 23302, Note_off_c, 0, 87, 65
1, 23314, Note_off_c, 0, 53, 64
1, 23363, Note_on_c, 0, 47, 82
1, 23366, Note_on_c, 0, 95, 99
1, 23403, Note_on_c, 0, 94, 40
1, 23418, Control_c, 0, 64, 40
1, 23430, Note_off_c, 0, 95, 65
1, 23432, Control_c, 0, 64, 33
1, 23433, Note_off_c, 0, 94, 49
1, 23447, Control_c, 0, 64, 0
1, 23450, Note_off_c, 0, 47, 63
1, 23462, Note_on_c, 0, 52, 81
1, 23469, Note_on_c, 0, 59, 74
1, 23471, Note_on_c, 0, 86, 82
1, 23472, Note_on_c, 0, 87, 93
1, 23511, Note_off_c, 0, 59, 61
1, 23514, Note_off_c, 0, 86, 62
1, 23521, Note_off_c, 0, 87, 64
1, 23522, Note_off_c, 0, 52, 67
1, 23579, Note_on_c, 0, 48, 88
1, 23583, Note_on_c, 0, 96, 97
1, 23632, Note_off_c, 0, 96, 67
1, 23687, Note_on_c, 0, 87, 77
1, 23688, Note_on_c, 0, 60, 60
1, 23689, Note_on_c, 0, 88, 85
1, 23689, Note_off_c, 0, 48, 63
1, 23692, Note_on_c, 0, 51, 74
1, 23708, Note_off_c, 0, 87, 68
1, 23718, Note_off_c, 0, 60, 61
1, 23725, Note_off_c, 0, 88, 65
1, 23744, Note_off_c, 0, 51, 59
1, 23796, Note_on_c, 0, 49, 79
1, 23800, Note_on_c, 0, 97, 92
1, 23848, Note_off_c, 0, 97, 66
1, 23881, Note_off_c, 0, 49, 61
1, 23891, Note_on_c, 0, 50, 75
1, 23901, Note_on_c, 0, 89, 86
1, 23935, Note_off_c, 0, 89, 66
1, 23965, Note_off_c, 0, 50, 59
1, 24011, Note_on_c, 0, 98, 103
1, 24013, Note_on_c, 0, 88, 104
1, 24016, Note_on_c, 0, 44, 82
1, 24016, Note_on_c, 0, 92, 96
1, 24017, Note_on_c, 0, 51, 88
1, 24018, Control_c, 0, 64, 127
1, 24030, Note_off_c, 0, 92, 77
1, 24036, Note_off_c, 0, 88, 65
1, 24040, Note_off_c, 0, 98, 63
1, 24127, Note_off_c, 0, 44, 63
1, 24127, Note_off_c, 0, 51, 61
1, 24193, Note_on_c, 0, 55, 43
1, 24222, Note_off_c, 0, 55, 56
1, 24308, Control_c, 0, 64, 115
1, 24323, Control_c, 0, 64, 70
1, 24338, Control_c, 0, 64, 0
1, 24338, Control_c, 0, 67, 10
1, 24346, Note_on_c, 0, 52, 68
1, 24352, Control_c, 0, 67, 35
1, 24353, Note_on_c, 0, 45, 65
1, 24367, Control_c, 0, 67, 64
1, 24376, Note_off_c, 0, 52, 66
1, 24382, Control_c, 0, 67, 101
1, 24397, Control_c, 0, 67, 127
1, 24420, Note_off_c, 0, 45, 62
1, 24461, Note_on_c, 0, 59, 58
1, 24497, Note_off_c, 0, 59, 63
1, 24562, Note_on_c, 0, 46, 64
1, 24569, Note_on_c, 0, 53, 47
1, 24599, Note_off_c, 0, 53, 58
1, 24604, Note_off_c, 0, 46, 59
1, 24673, Note_on_c, 0, 61, 56
1, 24675, Note_on_c, 0, 55, 57
1, 24705, Note_off_c, 0, 55, 59
1, 24705, Note_off_c, 0, 61, 62
1, 24771, Note_on_c, 0, 47, 63
1, 24771, Note_on_c, 0, 54, 64
1, 24817, Note_off_c, 0, 47, 61
1, 24822, Note_off_c, 0, 54, 60
1, 24875, Note_on_c, 0, 59, 60
1, 24875, Note_on_c, 0, 65, 61
1, 24913, Note_off_c, 0, 59, 63
1, 24913, Note_off_c, 0, 65, 60
1, 24995, Note_on_c, 0, 55, 77
1, 24998, Note_on_c, 0, 48, 79
1, 25027, Control_c, 0, 64, 63
1, 25042, Control_c, 0, 64, 69
1, 25057, Control_c, 0, 64, 70
1, 25063, Note_off_c, 0, 55, 62
1, 25069, Note_off_c, 0, 48, 60
1, 25072, Control_c, 0, 64, 71
1, 25086, Control_c, 0, 64, 73
1, 25100, Note_on_c, 0, 67, 57
1, 25102, Control_c, 0, 64, 74
1, 25106, Note_on_c, 0, 61, 63
1, 25128, Note_off_c, 0, 67, 55
1, 25144, Note_off_c, 0, 61, 59
1, 25147, Control_c, 0, 64, 73
1, 25161, Control_c, 0, 64, 70
1, 25176, Control_c, 0, 64, 66
1, 25191, Control_c, 0, 64, 59
1, 25206, Control_c, 0, 64, 36
1, 25221, Control_c, 0, 64, 0
1, 25227, Note_on_c, 0, 57, 38
1, 25260, Note_off_c, 0, 57, 52
1, 25333, Note_on_c, 0, 56, 61
1, 25336, Note_on_c, 0, 49, 84
1, 25368, Note_off_c, 0, 56, 61
1, 25388, Note_off_c, 0, 49, 61
1, 25435, Note_on_c, 0, 59, 50
1, 25463, Note_off_c, 0, 59, 55
1, 25554, Note_on_c, 0, 57, 70
1, 25559, Note_on_c, 0, 50, 85
1, 25597, Note_off_c, 0, 57, 61
1, 25613, Note_off_c, 0, 50, 63
1, 25644, Note_on_c, 0, 65, 65
1, 25665, Note_on_c, 0, 59, 56
1, 25688, Note_off_c, 0, 59, 62
1, 25690, Note_off_c, 0, 65, 59
1, 25776, Note_on_c, 0, 58, 92
1, 25790, Control_c, 0, 64, 34
1, 25799, Note_on_c, 0, 51, 67
1, 25805, Control_c, 0, 64, 74
1, 25820, Control_c, 0, 64, 127
1, 25820, Control_c, 0, 67, 119
1, 25824, Note_off_c, 0, 58, 65
1, 25834, Control_c, 0, 67, 59
1, 25849, Control_c, 0, 67, 0
1, 25865, Note_off_c, 0, 51, 61
1, 25895, Note_on_c, 0, 53, 61
1, 25902, Note_on_c, 0, 55, 61
1, 25918, Note_off_c, 0, 53, 66
1, 25925, Note_off_c, 0, 55, 61
1, 26021, Note_on_c, 0, 59, 72
1, 26046, Note_on_c, 0, 52, 56
1, 26074, Note_off_c, 0, 52, 57
1, 26086, Note_off_c, 0, 59, 54
1, 26146, Control_c, 0, 64, 90
1, 26161, Control_c, 0, 64, 65
1, 26164, Note_on_c, 0, 49, 86
1, 26171, Note_on_c, 0, 41, 71
1, 26176, Control_c, 0, 64, 0
1, 26176, Control_c, 0, 67, 8
1, 26178, Note_on_c, 0, 55, 11
1, 26190, Control_c, 0, 67, 23
1, 26205, Control_c, 0, 67, 38
1, 26218, Note_off_c, 0, 55, 38
1, 26220, Control_c, 0, 67, 54
1, 26223, Note_off_c, 0, 49, 58
1, 26235, Control_c, 0, 67, 71
1, 26250, Control_c, 0, 67, 86
1, 26264, Control_c, 0, 67, 97
1, 26266, Note_on_c, 0, 47, 72
1, 26279, Control_c, 0, 67, 107
1, 26294, Control_c, 0, 67, 114
1, 26309, Control_c, 0, 67, 122
1, 26318, Note_off_c, 0, 47, 61
1, 26324, Control_c, 0, 67, 127
1, 26380, Note_on_c, 0, 60, 67
1, 26384, Note_on_c, 0, 45, 63
1, 26390, Note_on_c, 0, 53, 53
1, 26413, Note_off_c, 0, 60, 61
1, 26413, Note_off_c, 0, 41, 40
1, 26422, Note_off_c, 0, 53, 66
1, 26453, Note_off_c, 0, 45, 60
1, 26482, Note_on_c, 0, 49, 62
1, 26532, Note_off_c, 0, 49, 58
1, 26610, Note_on_c, 0, 46, 62
1, 26610, Note_on_c, 0, 61, 71
1, 26619, Note_on_c, 0, 54, 59
1, 26655, Note_off_c, 0, 61, 56
1, 26661, Note_off_c, 0, 54, 59
1, 26664, Note_off_c, 0, 46, 55
1, 26708, Note_on_c, 0, 59, 71
1, 26714, Note_on_c, 0, 43, 61
1, 26747, Note_off_c, 0, 43, 62
1, 26756, Note_off_c, 0, 59, 63
1, 26828, Note_on_c, 0, 59, 72
1, 26840, Note_on_c, 0, 39, 70
1, 26878, Note_off_c, 0, 59, 63
1, 26889, Note_off_c, 0, 39, 61
1, 26928, Note_on_c, 0, 61, 74
1, 26947, Note_on_c, 0, 47, 60
1, 26981, Note_off_c, 0, 47, 64
1, 26983, Note_off_c, 0, 61, 61
1, 27036, Note_on_c, 0, 67, 68
1, 27051, Note_on_c, 0, 59, 43
1, 27081, Note_off_c, 0, 59, 54
1, 27087, Note_off_c, 0, 67, 61
1, 27143, Note_on_c, 0, 63, 86
1, 27159, Note_on_c, 0, 40, 71
1, 27165, Note_on_c, 0, 56, 55
1, 27186, Note_off_c, 0, 56, 62
1, 27209, Note_off_c, 0, 40, 63
1, 27221, Note_off_c, 0, 63, 47
1, 27253, Note_on_c, 0, 65, 51
1, 27264, Note_on_c, 0, 49, 52
1, 27297, Note_off_c, 0, 49, 57
1, 27297, Note_off_c, 0, 65, 59
1, 27317, Control_c, 0, 67, 119
1, 27332, Control_c, 0, 67, 60
1, 27346, Control_c, 0, 67, 0
1, 27379, Note_on_c, 0, 64, 70
1, 27388, Note_on_c, 0, 36, 82
1, 27389, Note_on_c, 0, 41, 82
1, 27399, Note_on_c, 0, 57, 46
1, 27425, Note_off_c, 0, 57, 56
1, 27431, Note_off_c, 0, 36, 62
1, 27433, Note_off_c, 0, 64, 62
1, 27433, Note_off_c, 0, 41, 64
1, 27482, Note_on_c, 0, 67, 59
1, 27513, Note_off_c, 0, 67, 65
1, 27600, Note_on_c, 0, 42, 90
1, 27606, Note_on_c, 0, 37, 79
1, 27613, Note_on_c, 0, 65, 69
1, 27629, Control_c, 0, 67, 48
1, 27643, Control_c, 0, 67, 53
1, 27645, Note_on_c, 0, 58, 31
1, 27650, Note_off_c, 0, 37, 64
1, 27658, Control_c, 0, 67, 52
1, 27660, Note_off_c, 0, 65, 58
1, 27662, Note_off_c, 0, 42, 63
1, 27679, Note_off_c, 0, 58, 49
1, 27688, Control_c, 0, 67, 56
1, 27702, Control_c, 0, 67, 59
1, 27725, Note_on_c, 0, 71, 52
1, 27760, Note_off_c, 0, 71, 65
1, 27806, Control_c, 0, 67, 60
1, 27841, Note_on_c, 0, 43, 94
1, 27846, Note_on_c, 0, 38, 81
1, 27853, Note_on_c, 0, 66, 58
1, 27873, Note_on_c, 0, 59, 42
1, 27879, Note_off_c, 0, 66, 65
1, 27894, Note_off_c, 0, 43, 64
1, 27901, Note_off_c, 0, 38, 64
1, 27907, Note_off_c, 0, 59, 53
1, 27910, Control_c, 0, 67, 61
1, 27925, Control_c, 0, 67, 65
1, 27940, Control_c, 0, 67, 71
1, 27955, Control_c, 0, 67, 77
1, 27957, Note_on_c, 0, 71, 67
1, 27969, Control_c, 0, 67, 81
1, 27984, Control_c, 0, 67, 84
1, 27984, Note_off_c, 0, 71, 64
1, 27991, Note_on_c, 0, 65, 41
1, 27999, Control_c, 0, 67, 86
1, 28020, Control_c, 0, 67, 89
1, 28026, Note_off_c, 0, 65, 55
1, 28035, Control_c, 0, 67, 93
1, 28050, Control_c, 0, 67, 98
1, 28065, Control_c, 0, 67, 104
1, 28078, Note_on_c, 0, 61, 70
1, 28080, Control_c, 0, 67, 111
1, 28095, Control_c, 0, 67, 116
1, 28103, Note_off_c, 0, 61, 66
1, 28110, Control_c, 0, 67, 122
1, 28124, Control_c, 0, 67, 127
1, 28200, Note_on_c, 0, 70, 84
1, 28211, Note_on_c, 0, 44, 61
1, 28214, Note_on_c, 0, 60, 70
1, 28220, Note_on_c, 0, 39, 62
1, 28244, Note_off_c, 0, 44, 62
1, 28253, Note_off_c, 0, 60, 59
1, 28254, Note_off_c, 0, 39, 63
1, 28268, Note_off_c, 0, 70, 63
1, 28273, Control_c, 0, 67, 114
1, 28288, Control_c, 0, 67, 65
1, 28303, Control_c, 0, 67, 0
1, 28333, Note_on_c, 0, 36, 58
1, 28335, Note_on_c, 0, 64, 40
1, 28367, Note_off_c, 0, 64, 34
1, 28373, Note_off_c, 0, 36, 61
1, 28432, Note_on_c, 0, 71, 85
1, 28439, Note_on_c, 0, 40, 62
1, 28442, Note_on_c, 0, 45, 50
1, 28450, Note_on_c, 0, 61, 68
1, 28470, Note_off_c, 0, 45, 59
1, 28470, Note_off_c, 0, 61, 64
1, 28481, Control_c, 0, 67, 19
1, 28494, Note_off_c, 0, 40, 64
1, 28496, Control_c, 0, 67, 47
1, 28503, Note_off_c, 0, 71, 56
1, 28511, Control_c, 0, 67, 76
1, 28525, Control_c, 0, 67, 91
1, 28540, Control_c, 0, 67, 95
1, 28551, Note_on_c, 0, 37, 61
1, 28555, Control_c, 0, 67, 96
1, 28560, Note_on_c, 0, 65, 38
1, 28592, Note_off_c, 0, 65, 33
1, 28592, Note_off_c, 0, 37, 64
1, 28599, Control_c, 0, 67, 95
1, 28614, Control_c, 0, 67, 92
1, 28629, Control_c, 0, 67, 87
1, 28640, Note_on_c, 0, 72, 87
1, 28643, Control_c, 0, 67, 82
1, 28644, Note_on_c, 0, 62, 88
1, 28650, Note_on_c, 0, 46, 65
1, 28658, Note_on_c, 0, 41, 64
1, 28658, Control_c, 0, 67, 76
1, 28673, Control_c, 0, 67, 65
1, 28685, Note_off_c, 0, 46, 62
1, 28688, Control_c, 0, 67, 47
1, 28697, Note_off_c, 0, 62, 60
1, 28703, Control_c, 0, 67, 19
1, 28709, Note_off_c, 0, 41, 63
1, 28718, Control_c, 0, 67, 0
1, 28721, Note_off_c, 0, 72, 62
1, 28753, Note_on_c, 0, 66, 61
1, 28770, Note_on_c, 0, 38, 69
1, 28781, Note_off_c, 0, 66, 64
1, 28799, Control_c, 0, 67, 10
1, 28814, Control_c, 0, 67, 31
1, 28821, Note_off_c, 0, 38, 60
1, 28829, Control_c, 0, 67, 42
1, 28843, Control_c, 0, 67, 47
1, 28858, Control_c, 0, 67, 50
1, 28869, Note_on_c, 0, 63, 93
1, 28869, Note_on_c, 0, 73, 91
1, 28873, Note_on_c, 0, 47, 75
1, 28873, Control_c, 0, 67, 50
1, 28879, Note_on_c, 0, 42, 71
1, 28888, Control_c, 0, 67, 51
1, 28903, Control_c, 0, 67, 51
1, 28909, Note_off_c, 0, 47, 65
1, 28930, Note_off_c, 0, 42, 61
1, 28941, Note_off_c, 0, 63, 63
1, 28944, Note_off_c, 0, 73, 57
1, 28947, Control_c, 0, 67, 51
1, 28962, Control_c, 0, 67, 50
1, 28971, Note_on_c, 0, 67, 47
1, 28977, Note_on_c, 0, 39, 77
1, 28977, Control_c, 0, 67, 50
1, 28992, Control_c, 0, 67, 49
1, 28997, Note_off_c, 0, 67, 57
1, 29007, Control_c, 0, 67, 46
1, 29022, Control_c, 0, 67, 31
1, 29028, Note_off_c, 0, 39, 61
1, 29036, Control_c, 0, 67, 0
1, 29090, Note_on_c, 0, 74, 91
1, 29090, Note_on_c, 0, 64, 91
1, 29096, Note_on_c, 0, 43, 79
1, 29096, Note_on_c, 0, 48, 73
1, 29111, Control_c, 0, 64, 28
1, 29126, Control_c, 0, 64, 58
1, 29145, Note_off_c, 0, 48, 59
1, 29156, Control_c, 0, 64, 58
1, 29166, Note_off_c, 0, 43, 58
1, 29171, Control_c, 0, 64, 60
1, 29186, Control_c, 0, 64, 61
1, 29192, Note_off_c, 0, 74, 60
1, 29196, Note_on_c, 0, 40, 76
1, 29199, Note_off_c, 0, 64, 54
1, 29200, Note_on_c, 0, 68, 72
1, 29201, Control_c, 0, 64, 60
1, 29215, Control_c, 0, 64, 44
1, 29229, Note_off_c, 0, 40, 65
1, 29230, Control_c, 0, 64, 0
1, 29242, Note_off_c, 0, 68, 57
1, 29302, Note_on_c, 0, 70, 69
1, 29332, Note_off_c, 0, 70, 63
1, 29415, Note_on_c, 0, 73, 79
1, 29416, Note_on_c, 0, 65, 78
1, 29420, Note_on_c, 0, 49, 65
1, 29422, Note_on_c, 0, 44, 61
1, 29458, Note_off_c, 0, 49, 61
1, 29466, Note_off_c, 0, 65, 60
1, 29479, Note_off_c, 0, 44, 57
1, 29480, Note_off_c, 0, 73, 48
1, 29533, Note_on_c, 0, 69, 59
1, 29534, Note_on_c, 0, 41, 72
1, 29565, Note_off_c, 0, 69, 66
1, 29592, Note_off_c, 0, 41, 61
1, 29634, Note_on_c, 0, 72, 79
1, 29641, Note_on_c, 0, 50, 69
1, 29642, Note_on_c, 0, 45, 68
1, 29645, Note_on_c, 0, 66, 68
1, 29681, Note_off_c, 0, 50, 61
1, 29685, Note_off_c, 0, 72, 64
1, 29693, Note_off_c, 0, 45, 63
1, 29693, Note_off_c, 0, 66, 55
1, 29727, Note_on_c, 0, 42, 76
1, 29735, Note_on_c, 0, 70, 74
1, 29773, Note_off_c, 0, 42, 63
1, 29778, Note_off_c, 0, 70, 61
1, 29846, Note_on_c, 0, 53, 84
1, 29847, Note_on_c, 0, 71, 85
1, 29850, Note_on_c, 0, 49, 84
1, 29852, Note_on_c, 0, 67, 78
1, 29883, Note_off_c, 0, 53, 64
1, 29887, Note_off_c, 0, 67, 58
1, 29903, Note_off_c, 0, 71, 61
1, 29904, Note_off_c, 0, 49, 61
1, 29951, Note_on_c, 0, 51, 89
1, 29952, Note_on_c, 0, 69, 83
1, 29994, Note_off_c, 0, 69, 64
1, 30004, Note_off_c, 0, 51, 64
1, 30055, Note_on_c, 0, 52, 105
1, 30058, Note_on_c, 0, 70, 80
1, 30062, Note_on_c, 0, 68, 78
1, 30063, Note_on_c, 0, 47, 98
1, 30097, Control_c, 0, 64, 90
1, 30099, Note_off_c, 0, 68, 54
1, 30110, Note_off_c, 0, 70, 63
1, 30112, Control_c, 0, 64, 127
1, 30149, Note_off_c, 0, 52, 64
1, 30150, Note_off_c, 0, 47, 61
1, 30184, Note_on_c, 0, 74, 66
1, 30219, Note_off_c, 0, 74, 62
1, 30287, Note_on_c, 0, 73, 90
1, 30306, Note_on_c, 0, 68, 60
1, 30324, Note_off_c, 0, 68, 67
1, 30343, Note_off_c, 0, 73, 61
1, 30371, Control_c, 0, 64, 74
1, 30386, Control_c, 0, 64, 49
1, 30393, Note_on_c, 0, 65, 89
1, 30393, Note_on_c, 0, 76, 92
1, 30401, Control_c, 0, 64, 50
1, 30404, Note_on_c, 0, 68, 64
1, 30415, Control_c, 0, 64, 71
1, 30430, Control_c, 0, 64, 127
1, 30463, Note_off_c, 0, 65, 61
1, 30473, Note_off_c, 0, 68, 61
1, 30491, Note_on_c, 0, 73, 49
1, 30505, Note_off_c, 0, 76, 57
1, 30516, Note_off_c, 0, 73, 58
1, 30608, Control_c, 0, 64, 102
1, 30622, Control_c, 0, 64, 68
1, 30624, Note_on_c, 0, 66, 68
1, 30625, Note_on_c, 0, 69, 65
1, 30635, Note_on_c, 0, 77, 96
1, 30637, Control_c, 0, 64, 0
1, 30678, Note_off_c, 0, 69, 64
1, 30679, Note_off_c, 0, 66, 65
1, 30725, Note_off_c, 0, 77, 56
1, 30731, Note_on_c, 0, 85, 82
1, 30734, Note_on_c, 0, 75, 90
1, 30739, Note_on_c, 0, 71, 81
1, 30742, Note_on_c, 0, 81, 77
1, 30782, Note_off_c, 0, 75, 65
1, 30786, Note_off_c, 0, 81, 58
1, 30787, Note_off_c, 0, 85, 65
1, 30797, Note_off_c, 0, 71, 61
1, 30837, Note_on_c, 0, 78, 92
1, 30843, Note_on_c, 0, 67, 73
1, 30858, Note_on_c, 0, 70, 69
1, 30888, Note_off_c, 0, 70, 65
1, 30890, Note_off_c, 0, 78, 65
1, 30921, Note_off_c, 0, 67, 0
1, 30945, Note_on_c, 0, 82, 87
1, 30945, Note_on_c, 0, 86, 89
1, 30946, Note_on_c, 0, 67, 31
1, 30951, Note_on_c, 0, 76, 85
1, 30958, Note_on_c, 0, 73, 70
1, 30992, Note_off_c, 0, 76, 66
1, 30998, Note_off_c, 0, 86, 65
1, 31002, Note_off_c, 0, 82, 65
1, 31008, Note_off_c, 0, 67, 62
1, 31038, Note_off_c, 0, 73, 47
1, 31061, Note_on_c, 0, 70, 65
1, 31089, Note_off_c, 0, 70, 66
1, 31195, Note_on_c, 0, 87, 102
1, 31197, Note_on_c, 0, 79, 95
1, 31201, Note_on_c, 0, 83, 85
1, 31204, Note_on_c, 0, 68, 61
1, 31213, Note_on_c, 0, 77, 72
1, 31222, Note_on_c, 0, 71, 57
1, 31253, Control_c, 0, 64, 55
1, 31254, Note_off_c, 0, 68, 61
1, 31256, Note_off_c, 0, 83, 58
1, 31259, Note_off_c, 0, 79, 62
1, 31263, Note_off_c, 0, 71, 62
1, 31265, Note_off_c, 0, 77, 62
1, 31268, Control_c, 0, 64, 62
1, 31272, Note_off_c, 0, 87, 65
1, 31283, Control_c, 0, 64, 66
1, 31298, Control_c, 0, 64, 73
1, 31312, Control_c, 0, 64, 85
1, 31327, Control_c, 0, 64, 113
1, 31332, Note_on_c, 0, 73, 63
1, 31342, Control_c, 0, 64, 127
1, 31381, Note_off_c, 0, 73, 50
1, 31386, Control_c, 0, 64, 80
1, 31401, Control_c, 0, 64, 55
1, 31416, Control_c, 0, 64, 0
1, 31436, Note_on_c, 0, 80, 81
1, 31456, Note_on_c, 0, 69, 46
1, 31460, Note_on_c, 0, 72, 53
1, 31491, Note_off_c, 0, 80, 63
1, 31492, Note_off_c, 0, 69, 54
1, 31502, Note_off_c, 0, 72, 58
1, 31543, Note_on_c, 0, 77, 66
1, 31544, Note_on_c, 0, 88, 75
1, 31544, Note_on_c, 0, 84, 70
1, 31546, Note_on_c, 0, 78, 74
1, 31572, Note_off_c, 0, 77, 63
1, 31588, Note_off_c, 0, 78, 62
1, 31593, Note_off_c, 0, 88, 62
1, 31594, Note_off_c, 0, 84, 63
1, 31645, Note_on_c, 0, 81, 91
1, 31646, Note_on_c, 0, 73, 67
1, 31665, Note_on_c, 0, 70, 67
1, 31675, Note_off_c, 0, 73, 61
1, 31693, Note_off_c, 0, 70, 67
1, 31693, Note_off_c, 0, 81, 63
1, 31746, Note_on_c, 0, 76, 67
1, 31747, Note_on_c, 0, 89, 85
1, 31750, Note_on_c, 0, 79, 87
1, 31779, Note_on_c, 0, 86, 68
1, 31797, Note_on_c, 0, 85, 13
1, 31800, Note_off_c, 0, 89, 64
1, 31802, Note_off_c, 0, 79, 58
1, 31803, Note_off_c, 0, 76, 65
1, 31809, Note_off_c, 0, 86, 57
1, 31812, Note_off_c, 0, 85, 56
1, 31866, Note_on_c, 0, 74, 62
1, 31871, Note_on_c, 0, 82, 100
1, 31895, Note_on_c, 0, 71, 44
1, 31898, Control_c, 0, 64, 18
1, 31904, Note_on_c, 0, 86, 46
1, 31913, Control_c, 0, 64, 95
1, 31923, Note_off_c, 0, 74, 64
1, 31925, Note_off_c, 0, 71, 53
1, 31928, Control_c, 0, 64, 127
1, 31932, Note_off_c, 0, 86, 57
1, 31938, Note_off_c, 0, 82, 62
1, 31968, Note_on_c, 0, 80, 76
1, 31970, Note_on_c, 0, 83, 98
1, 31971, Note_on_c, 0, 90, 92
1, 31977, Note_on_c, 0, 86, 86
1, 32001, Note_on_c, 0, 89, 44
1, 32006, Note_off_c, 0, 83, 56
1, 32010, Note_off_c, 0, 86, 59
1, 32013, Note_off_c, 0, 90, 64
1, 32020, Note_off_c, 0, 80, 63
1, 32028, Note_off_c, 0, 89, 56
1, 32081, Note_on_c, 0, 77, 75
1, 32129, Note_off_c, 0, 77, 59
1, 32136, Control_c, 0, 64, 59
1, 32150, Control_c, 0, 64, 0
1, 32220, Note_on_c, 0, 83, 108
1, 32220, Note_on_c, 0, 84, 101
1, 32225, Note_on_c, 0, 75, 65
1, 32242, Note_on_c, 0, 72, 46
1, 32256, Note_off_c, 0, 84, 70
1, 32257, Note_off_c, 0, 83, 64
1, 32268, Note_off_c, 0, 72, 60
1, 32304, Note_off_c, 0, 75, 51
1, 32308, Poly_aftertouch_c, 0, 85, 0
1, 32320, Note_on_c, 0, 79, 73
1, 32334, Note_on_c, 0, 81, 77
1, 32354, Note_off_c, 0, 81, 69
1, 32356, Note_off_c, 0, 79, 61
1, 32441, Note_on_c, 0, 84, 108
1, 32450, Note_on_c, 0, 76, 65
1, 32454, Note_on_c, 0, 73, 55
1, 32492, Control_c, 0, 64, 63
1, 32500, Note_off_c, 0, 73, 56
1, 32503, Note_off_c, 0, 84, 64
1, 32514, Control_c, 0, 64, 85
1, 32529, Control_c, 0, 64, 127
1, 32535, Note_off_c, 0, 76, 64
1, 32546, Note_on_c, 0, 82, 78
1, 32590, Note_off_c, 0, 82, 61
1, 32670, Note_on_c, 0, 74, 65
1, 32671, Note_on_c, 0, 88, 110
1, 32673, Note_on_c, 0, 84, 114
1, 32685, Note_on_c, 0, 77, 75
1, 32748, Note_off_c, 0, 84, 56
1, 32748, Note_off_c, 0, 74, 62
1, 32756, Note_off_c, 0, 77, 60
1, 32757, Note_off_c, 0, 88, 59
1, 32771, Note_on_c, 0, 79, 75
1, 32818, Note_off_c, 0, 79, 59
1, 32884, Note_on_c, 0, 86, 80
1, 32891, Note_on_c, 0, 78, 71
1, 32921, Note_on_c, 0, 75, 63
1, 32924, Note_off_c, 0, 86, 64
1, 32927, Note_off_c, 0, 78, 57
1, 32955, Note_off_c, 0, 75, 63
1, 32983, Note_on_c, 0, 85, 95
1, 33004, Note_on_c, 0, 77, 75
1, 33013, Note_on_c, 0, 83, 44
1, 33017, Control_c, 0, 64, 109
1, 33019, Note_off_c, 0, 85, 67
1, 33032, Control_c, 0, 64, 74
1, 33039, Note_off_c, 0, 83, 56
1, 33046, Note_off_c, 0, 77, 59
1, 33047, Control_c, 0, 64, 45
1, 33062, Control_c, 0, 64, 0
1, 33096, Note_on_c, 0, 76, 87
1, 33100, Note_on_c, 0, 87, 103
1, 33103, Note_on_c, 0, 79, 92
1, 33150, Note_off_c, 0, 76, 65
1, 33162, Note_off_c, 0, 79, 57
1, 33177, Note_off_c, 0, 87, 58
1, 33201, Note_on_c, 0, 77, 94
1, 33204, Note_on_c, 0, 92, 87
1, 33206, Note_on_c, 0, 85, 82
1, 33214, Note_on_c, 0, 90, 71
1, 33262, Note_off_c, 0, 90, 60
1, 33267, Note_off_c, 0, 77, 63
1, 33273, Note_off_c, 0, 85, 55
1, 33282, Note_off_c, 0, 92, 62
1, 33314, Note_on_c, 0, 74, 70
1, 33314, Note_on_c, 0, 80, 80
1, 33346, Note_off_c, 0, 80, 56
1, 33370, Note_off_c, 0, 74, 65
1, 33421, Note_on_c, 0, 86, 91
1, 33424, Note_on_c, 0, 93, 101
1, 33425, Note_on_c, 0, 91, 88
1, 33427, Note_on_c, 0, 77, 87
1, 33427, Note_on_c, 0, 83, 91
1, 33436, Note_on_c, 0, 72, 72
1, 33440, Control_c, 0, 64, 53
1, 33453, Note_off_c, 0, 77, 65
1, 33455, Control_c, 0, 64, 113
1, 33458, Note_off_c, 0, 72, 68
1, 33466, Note_off_c, 0, 83, 61
1, 33470, Control_c, 0, 64, 127
1, 33528, Note_off_c, 0, 86, 63
1, 33529, Note_off_c, 0, 91, 53
1, 33535, Note_off_c, 0, 93, 57
1, 33540, Note_on_c, 0, 82, 59
1, 33562, Note_off_c, 0, 82, 64
1, 33588, Control_c, 0, 64, 108
1, 33603, Control_c, 0, 64, 77
1, 33618, Control_c, 0, 64, 59
1, 33633, Control_c, 0, 64, 0
1, 33676, Note_on_c, 0, 84, 79
1, 33678, Note_on_c, 0, 78, 75
1, 33679, Note_on_c, 0, 73, 67
1, 33707, Note_off_c, 0, 73, 64
1, 33721, Note_off_c, 0, 78, 61
1, 33725, Note_off_c, 0, 84, 65
1, 33777, Note_on_c, 0, 87, 80
1, 33778, Note_on_c, 0, 80, 77
1, 33779, Note_on_c, 0, 92, 80
1, 33782, Note_on_c, 0, 94, 72
1, 33811, Note_off_c, 0, 94, 62
1, 33826, Note_off_c, 0, 92, 66
1, 33827, Note_off_c, 0, 87, 64
1, 33827, Note_off_c, 0, 80, 64
1, 33877, Note_on_c, 0, 85, 85
1, 33891, Note_on_c, 0, 74, 64
1, 33892, Note_on_c, 0, 79, 76
1, 33927, Note_off_c, 0, 85, 67
1, 33931, Note_off_c, 0, 79, 62
1, 33938, Note_off_c, 0, 74, 62
1, 33979, Note_on_c, 0, 88, 84
1, 33985, Note_on_c, 0, 95, 79
1, 33987, Note_on_c, 0, 93, 79
1, 33993, Note_on_c, 0, 82, 79
1, 34033, Note_off_c, 0, 88, 65
1, 34042, Note_off_c, 0, 82, 63
1, 34048, Note_off_c, 0, 95, 66
1, 34052, Note_off_c, 0, 93, 60
1, 34098, Note_on_c, 0, 86, 95
1, 34101, Note_on_c, 0, 80, 84
1, 34109, Note_on_c, 0, 75, 73
1, 34145, Control_c, 0, 64, 57
1, 34160, Control_c, 0, 64, 88
1, 34164, Note_off_c, 0, 80, 61
1, 34166, Note_off_c, 0, 86, 57
1, 34175, Control_c, 0, 64, 127
1, 34196, Note_on_c, 0, 96, 94
1, 34197, Note_on_c, 0, 94, 93
1, 34198, Note_on_c, 0, 89, 91
1, 34207, Note_on_c, 0, 82, 82
1, 34214, Note_off_c, 0, 75, 0
1, 34214, Note_on_c, 0, 75, 30
1, 34234, Control_c, 0, 64, 125
1, 34237, Note_off_c, 0, 89, 65
1, 34244, Note_off_c, 0, 96, 62
1, 34249, Control_c, 0, 64, 72
1, 34251, Note_off_c, 0, 75, 66
1, 34255, Note_off_c, 0, 82, 62
1, 34262, Note_off_c, 0, 94, 67
1, 34263, Control_c, 0, 64, 0
1, 34317, Note_on_c, 0, 80, 39
1, 34325, Note_on_c, 0, 81, 74
1, 34349, Note_off_c, 0, 80, 54
1, 34360, Note_off_c, 0, 81, 59
1, 34413, Note_on_c, 0, 76, 75
1, 34413, Note_on_c, 0, 90, 99
1, 34413, Note_on_c, 0, 95, 102
1, 34417, Note_on_c, 0, 97, 97
1, 34421, Note_on_c, 0, 87, 89
1, 34426, Control_c, 0, 64, 66
1, 34431, Note_on_c, 0, 81, 78
1, 34441, Control_c, 0, 64, 127
1, 34483, Note_off_c, 0, 81, 61
1, 34483, Note_off_c, 0, 87, 63
1, 34486, Note_off_c, 0, 76, 61
1, 34524, Note_off_c, 0, 95, 62
1, 34525, Note_off_c, 0, 97, 65
1, 34527, Note_off_c, 0, 90, 61
1, 34532, Note_on_c, 0, 80, 83
1, 34576, Note_off_c, 0, 80, 62
1, 34634, Note_on_c, 0, 77, 81
1, 34639, Note_on_c, 0, 82, 74
1, 34644, Note_on_c, 0, 88, 96
1, 34688, Note_off_c, 0, 82, 63
1, 34691, Note_off_c, 0, 77, 62
1, 34706, Note_off_c, 0, 88, 64
1, 34709, Control_c, 0, 64, 97
1, 34724, Control_c, 0, 64, 69
1, 34737, Note_on_c, 0, 91, 98
1, 34739, Control_c, 0, 64, 0
1, 34740, Note_on_c, 0, 96, 90
1, 34740, Note_on_c, 0, 98, 90
1, 34742, Note_on_c, 0, 80, 83
1, 34793, Note_off_c, 0, 91, 62
1, 34793, Note_off_c, 0, 80, 66
1, 34801, Note_off_c, 0, 98, 66
1, 34806, Note_off_c, 0, 96, 63
1, 34849, Note_on_c, 0, 78, 94
1, 34855, Note_on_c, 0, 84, 85
1, 34856, Note_on_c, 0, 89, 99
1, 34879, Control_c, 0, 64, 68
1, 34894, Control_c, 0, 64, 101
1, 34906, Note_off_c, 0, 84, 63
1, 34909, Control_c, 0, 64, 127
1, 34957, Note_on_c, 0, 82, 93
1, 34957, Note_on_c, 0, 99, 90
1, 34958, Note_on_c, 0, 97, 93
1, 34959, Note_on_c, 0, 92, 81
1, 34962, Note_off_c, 0, 78, 62
1, 34965, Note_off_c, 0, 89, 58
1, 34972, Note_on_c, 0, 91, 80
1, 34995, Note_off_c, 0, 91, 60
1, 35011, Note_off_c, 0, 99, 64
1, 35022, Note_off_c, 0, 97, 65
1, 35023, Note_off_c, 0, 92, 62
1, 35029, Note_off_c, 0, 82, 61
1, 35042, Control_c, 0, 64, 74
1, 35057, Control_c, 0, 64, 39
1, 35059, Note_on_c, 0, 86, 94
1, 35072, Control_c, 0, 64, 0
1, 35104, Note_off_c, 0, 86, 63
1, 35165, Note_on_c, 0, 79, 82
1, 35165, Note_on_c, 0, 84, 88
1, 35168, Note_on_c, 0, 100, 102
1, 35169, Note_on_c, 0, 93, 102
1, 35171, Note_on_c, 0, 98, 88
1, 35172, Note_on_c, 0, 82, 77
1, 35172, Note_on_c, 0, 90, 95
1, 35190, Control_c, 0, 64, 53
1, 35204, Control_c, 0, 64, 82
1, 35219, Control_c, 0, 64, 127
1, 35221, Note_off_c, 0, 79, 60
1, 35221, Note_off_c, 0, 84, 64
1, 35224, Note_off_c, 0, 100, 67
1, 35225, Note_off_c, 0, 90, 65
1, 35225, Note_off_c, 0, 93, 64
1, 35232, Note_off_c, 0, 82, 60
1, 35232, Note_off_c, 0, 98, 68
1, 35276, Note_on_c, 0, 86, 89
1, 35313, Note_off_c, 0, 86, 63
1, 35382, Note_on_c, 0, 91, 112
1, 35387, Note_on_c, 0, 80, 75
1, 35390, Note_on_c, 0, 85, 82
1, 35427, Control_c, 0, 64, 83
1, 35428, Note_off_c, 0, 80, 60
1, 35435, Note_off_c, 0, 85, 65
1, 35441, Note_off_c, 0, 91, 62
1, 35442, Control_c, 0, 64, 45
1, 35457, Control_c, 0, 64, 0
1, 35477, Note_on_c, 0, 101, 88
1, 35480, Note_on_c, 0, 88, 80
1, 35480, Note_on_c, 0, 94, 95
1, 35481, Note_on_c, 0, 100, 92
1, 35526, Note_off_c, 0, 94, 67
1, 35526, Note_off_c, 0, 101, 67
1, 35532, Note_off_c, 0, 88, 64
1, 35537, Note_off_c, 0, 100, 65
1, 35595, Note_on_c, 0, 81, 71
1, 35595, Note_on_c, 0, 86, 73
1, 35598, Note_on_c, 0, 92, 104
1, 35599, Control_c, 0, 64, 62
1, 35614, Control_c, 0, 64, 81
1, 35629, Control_c, 0, 64, 84
1, 35636, Note_off_c, 0, 86, 64
1, 35643, Control_c, 0, 64, 72
1, 35649, Note_off_c, 0, 81, 61
1, 35658, Control_c, 0, 64, 37
1, 35661, Note_off_c, 0, 92, 66
1, 35673, Control_c, 0, 64, 0
1, 35687, Note_on_c, 0, 102, 87
1, 35692, Note_on_c, 0, 95, 93
1, 35696, Note_on_c, 0, 100, 85
1, 35699, Note_on_c, 0, 88, 76
1, 35729, Note_off_c, 0, 95, 67
1, 35738, Note_off_c, 0, 100, 64
1, 35743, Note_off_c, 0, 102, 65
1, 35758, Note_off_c, 0, 88, 64
1, 35801, Note_on_c, 0, 82, 79
1, 35801, Note_on_c, 0, 87, 80
1, 35806, Note_on_c, 0, 91, 106
1, 35851, Note_on_c, 0, 101, 41
1, 35852, Note_off_c, 0, 101, 127
1, 35852, Control_c, 0, 64, 68
1, 35866, Control_c, 0, 64, 127
1, 35869, Note_off_c, 0, 87, 62
1, 35877, Note_off_c, 0, 91, 58
1, 35902, Note_on_c, 0, 96, 103
1, 35902, Note_on_c, 0, 103, 91
1, 35905, Note_on_c, 0, 101, 86
1, 35911, Note_on_c, 0, 86, 78
1, 35938, Note_off_c, 0, 96, 69
1, 35940, Note_off_c, 0, 82, 45
1, 35950, Note_off_c, 0, 103, 64
1, 35955, Note_off_c, 0, 101, 67
1, 35971, Note_off_c, 0, 86, 64
1, 36000, Note_on_c, 0, 88, 91
1, 36054, Note_off_c, 0, 88, 66
1, 36104, Note_on_c, 0, 90, 114
1, 36118, Note_on_c, 0, 86, 80
1, 36122, Note_on_c, 0, 84, 64
1, 36128, Note_on_c, 0, 83, 50
1, 36141, Note_on_c, 0, 102, 55
1, 36142, Note_off_c, 0, 102, 127
1, 36149, Note_off_c, 0, 83, 61
1, 36160, Note_on_c, 0, 89, 51
1, 36175, Note_off_c, 0, 84, 57
1, 36176, Note_off_c, 0, 86, 61
1, 36183, Note_off_c, 0, 89, 60
1, 36186, Note_off_c, 0, 90, 58
1, 36200, Note_on_c, 0, 88, 79
1, 36203, Note_on_c, 0, 102, 94
1, 36206, Note_on_c, 0, 104, 89
1, 36215, Note_on_c, 0, 96, 83
1, 36235, Note_on_c, 0, 99, 45
1, 36256, Note_off_c, 0, 96, 61
1, 36266, Note_off_c, 0, 88, 63
1, 36268, Note_off_c, 0, 104, 62
1, 36271, Note_off_c, 0, 99, 57
1, 36277, Note_off_c, 0, 102, 66
1, 36325, Note_on_c, 0, 89, 91
1, 36332, Note_on_c, 0, 85, 79
1, 36355, Note_on_c, 0, 88, 49
1, 36375, Note_off_c, 0, 85, 66
1, 36375, Note_off_c, 0, 89, 67
1, 36381, Note_off_c, 0, 88, 55
1, 36399, Note_on_c, 0, 104, 50
1, 36412, Note_on_c, 0, 92, 87
1, 36438, Note_on_c, 0, 88, 79
1, 36457, Note_off_c, 0, 104, 58
1, 36463, Note_off_c, 0, 92, 67
1, 36490, Note_off_c, 0, 88, 58
1, 36516, Note_on_c, 0, 98, 97
1, 36516, Note_on_c, 0, 105, 106
1, 36517, Note_on_c, 0, 103, 94
1, 36524, Note_on_c, 0, 88, 79
1, 36525, Note_on_c, 0, 93, 102
1, 36526, Note_on_c, 0, 85, 92
1, 36546, Note_on_c, 0, 84, 74
1, 36553, Note_off_c, 0, 93, 67
1, 36565, Note_off_c, 0, 88, 65
1, 36568, Note_off_c, 0, 84, 69
1, 36579, Note_off_c, 0, 85, 65
1, 36628, Note_on_c, 0, 96, 87
1, 36643, Note_off_c, 0, 98, 62
1, 36692, Note_off_c, 0, 96, 65
1, 36724, Note_on_c, 0, 102, 97
1, 36735, Note_off_c, 0, 105, 63
1, 36744, Note_off_c, 0, 103, 58
1, 36762, Control_c, 0, 64, 73
1, 36766, Note_off_c, 0, 102, 67
1, 36776, Control_c, 0, 64, 0
1, 36821, Control_c, 0, 64, 61
1, 36828, Note_on_c, 0, 99, 108
1, 36829, Note_on_c, 0, 104, 107
1, 36829, Note_on_c, 0, 107, 107
1, 36829, Note_on_c, 0, 106, 102
1, 36832, Note_on_c, 0, 22, 85
1, 36836, Control_c, 0, 64, 127
1, 36841, Note_off_c, 0, 99, 72
1, 36843, Note_off_c, 0, 107, 73
1, 36846, Note_off_c, 0, 106, 73
1, 36850, Note_off_c, 0, 104, 65
1, 36853, Note_on_c, 0, 25, 41
1, 36885, Note_on_c, 0, 21, 27
1, 36894, Note_off_c, 0, 25, 39
1, 36931, Note_off_c, 0, 21, 38
1, 36941, Note_on_c, 0, 33, 73
1, 36943, Note_off_c, 0, 22, 58
1, 36977, Note_off_c, 0, 33, 66
1, 36984, Control_c, 0, 67, 14
1, 37006, Control_c, 0, 67, 57
1, 37021, Control_c, 0, 67, 90
1, 37036, Control_c, 0, 67, 115
1, 37051, Control_c, 0, 67, 127
1, 37068, Note_on_c, 0, 23, 67
1, 37175, Note_off_c, 0, 23, 36
1, 37190, Note_on_c, 0, 29, 53
1, 37295, Note_off_c, 0, 29, 36
1, 37335, Note_on_c, 0, 24, 58
1, 37455, Note_on_c, 0, 33, 51
1, 37516, Note_off_c, 0, 33, 49
1, 37586, Note_on_c, 0, 29, 36
1, 37586, Note_off_c, 0, 24, 39
1, 37629, Control_c, 0, 64, 87
1, 37631, Note_off_c, 0, 29, 49
1, 37644, Control_c, 0, 64, 70
1, 37659, Control_c, 0, 64, 59
1, 37673, Control_c, 0, 64, 48
1, 37688, Control_c, 0, 64, 46
1, 37697, Note_on_c, 0, 25, 61
1, 37703, Control_c, 0, 64, 50
1, 37718, Control_c, 0, 64, 53
1, 37732, Control_c, 0, 64, 54
1, 37755, Control_c, 0, 64, 56
1, 37770, Control_c, 0, 64, 58
1, 37778, Note_off_c, 0, 25, 58
1, 37785, Control_c, 0, 64, 60
1, 37800, Control_c, 0, 64, 61
1, 37814, Control_c, 0, 64, 61
1, 37822, Note_on_c, 0, 33, 45
1, 37829, Control_c, 0, 64, 62
1, 37853, Note_off_c, 0, 33, 58
1, 37934, Control_c, 0, 64, 61
1, 37939, Note_on_c, 0, 26, 52
1, 37978, Control_c, 0, 64, 62
1, 38008, Control_c, 0, 64, 62
1, 38030, Note_on_c, 0, 35, 42
1, 38039, Note_off_c, 0, 26, 51
1, 38066, Note_off_c, 0, 35, 51
1, 38067, Control_c, 0, 64, 63
1, 38082, Control_c, 0, 64, 63
1, 38136, Note_on_c, 0, 27, 50
1, 38207, Note_off_c, 0, 27, 55
1, 38239, Note_on_c, 0, 33, 51
1, 38269, Note_off_c, 0, 33, 61
1, 38289, Control_c, 0, 64, 63
1, 38346, Note_on_c, 0, 28, 62
1, 38348, Control_c, 0, 64, 63
1, 38363, Control_c, 0, 64, 64
1, 38378, Control_c, 0, 64, 65
1, 38393, Control_c, 0, 64, 67
1, 38408, Control_c, 0, 64, 69
1, 38422, Control_c, 0, 64, 72
1, 38437, Control_c, 0, 64, 73
1, 38452, Control_c, 0, 64, 74
1, 38456, Note_on_c, 0, 35, 44
1, 38467, Control_c, 0, 64, 75
1, 38498, Control_c, 0, 64, 76
1, 38514, Note_off_c, 0, 35, 60
1, 38528, Note_off_c, 0, 28, 61
1, 38551, Note_on_c, 0, 33, 43
1, 38584, Note_off_c, 0, 33, 58
1, 38593, Control_c, 0, 64, 76
1, 38673, Note_on_c, 0, 29, 59
1, 38787, Control_c, 0, 64, 76
1, 38792, Note_off_c, 0, 29, 56
1, 38794, Note_on_c, 0, 35, 47
1, 38802, Control_c, 0, 64, 75
1, 38817, Control_c, 0, 64, 74
1, 38832, Control_c, 0, 64, 72
1, 38832, Note_off_c, 0, 35, 62
1, 38847, Control_c, 0, 64, 70
1, 38861, Control_c, 0, 64, 68
1, 38876, Control_c, 0, 64, 65
1, 38889, Note_on_c, 0, 30, 63
1, 38891, Control_c, 0, 64, 62
1, 38906, Control_c, 0, 64, 58
1, 38921, Control_c, 0, 64, 52
1, 38935, Control_c, 0, 64, 49
1, 38950, Control_c, 0, 64, 50
1, 38966, Note_off_c, 0, 30, 63
1, 38996, Note_on_c, 0, 39, 55
1, 39009, Control_c, 0, 64, 49
1, 39050, Note_off_c, 0, 39, 57
1, 39053, Control_c, 0, 64, 48
1, 39068, Control_c, 0, 64, 46
1, 39083, Control_c, 0, 64, 41
1, 39098, Control_c, 0, 64, 35
1, 39109, Note_on_c, 0, 31, 55
1, 39113, Control_c, 0, 64, 23
1, 39127, Control_c, 0, 64, 0
1, 39220, Note_on_c, 0, 39, 54
1, 39294, Note_off_c, 0, 39, 53
1, 39328, Note_on_c, 0, 35, 53
1, 39346, Note_off_c, 0, 31, 46
1, 39383, Note_off_c, 0, 35, 60
1, 39446, Note_on_c, 0, 32, 64
1, 39532, Note_off_c, 0, 32, 63
1, 39550, Note_on_c, 0, 39, 56
1, 39601, Note_off_c, 0, 39, 57
1, 39664, Note_on_c, 0, 33, 56
1, 39749, Note_on_c, 0, 41, 52
1, 39754, Note_off_c, 0, 33, 55
1, 39826, Note_off_c, 0, 41, 59
1, 39872, Note_on_c, 0, 34, 58
1, 39979, Note_on_c, 0, 41, 51
1, 40048, Note_off_c, 0, 41, 55
1, 40087, Note_off_c, 0, 34, 59
1, 40102, Note_on_c, 0, 60, 71
1, 40107, Note_on_c, 0, 59, 62
1, 40120, Note_on_c, 0, 39, 51
1, 40191, Note_off_c, 0, 39, 53
1, 40235, Note_on_c, 0, 35, 57
1, 40346, Note_on_c, 0, 41, 48
1, 40376, Note_off_c, 0, 35, 35
1, 40400, Note_off_c, 0, 41, 62
1, 40453, Note_on_c, 0, 39, 47
1, 40513, Note_off_c, 0, 39, 61
1, 40543, Note_off_c, 0, 59, 60
1, 40549, Control_c, 0, 64, 14
1, 40563, Note_on_c, 0, 36, 60
1, 40563, Note_off_c, 0, 60, 62
1, 40564, Control_c, 0, 64, 43
1, 40579, Control_c, 0, 64, 55
1, 40594, Control_c, 0, 64, 60
1, 40609, Control_c, 0, 64, 63
1, 40623, Control_c, 0, 64, 65
1, 40638, Control_c, 0, 64, 68
1, 40653, Control_c, 0, 64, 75
1, 40665, Note_on_c, 0, 45, 50
1, 40668, Control_c, 0, 64, 91
1, 40683, Control_c, 0, 64, 127
1, 40686, Note_off_c, 0, 36, 0
1, 40713, Control_c, 0, 67, 116
1, 40728, Control_c, 0, 67, 100
1, 40736, Note_off_c, 0, 45, 52
1, 40749, Control_c, 0, 67, 78
1, 40764, Control_c, 0, 67, 46
1, 40777, Poly_aftertouch_c, 0, 36, 0
1, 40779, Control_c, 0, 67, 0
1, 40807, Note_on_c, 0, 61, 85
1, 40818, Note_on_c, 0, 39, 55
1, 40823, Control_c, 0, 64, 101
1, 40838, Control_c, 0, 64, 79
1, 40853, Control_c, 0, 64, 64
1, 40868, Note_off_c, 0, 61, 62
1, 40868, Control_c, 0, 64, 27
1, 40883, Control_c, 0, 64, 0
1, 40891, Note_off_c, 0, 39, 56
1, 40916, Note_on_c, 0, 62, 77
1, 40939, Note_on_c, 0, 37, 58
1, 40963, Note_off_c, 0, 62, 60
1, 40970, Note_off_c, 0, 37, 65
1, 41035, Note_on_c, 0, 41, 59
1, 41035, Note_on_c, 0, 64, 88
1, 41039, Note_on_c, 0, 63, 82
1, 41077, Control_c, 0, 67, 20
1, 41090, Note_off_c, 0, 63, 62
1, 41091, Control_c, 0, 64, 36
1, 41091, Control_c, 0, 67, 28
1, 41092, Note_off_c, 0, 41, 57
1, 41106, Control_c, 0, 64, 0
1, 41106, Control_c, 0, 67, 28
1, 41110, Note_off_c, 0, 64, 62
1, 41121, Control_c, 0, 67, 30
1, 41136, Control_c, 0, 67, 31
1, 41149, Note_on_c, 0, 31, 61
1, 41150, Note_on_c, 0, 65, 76
1, 41151, Control_c, 0, 67, 30
1, 41162, Note_on_c, 0, 38, 50
1, 41166, Control_c, 0, 67, 29
1, 41180, Control_c, 0, 67, 28
1, 41193, Note_off_c, 0, 38, 60
1, 41195, Note_off_c, 0, 65, 61
1, 41195, Control_c, 0, 67, 29
1, 41210, Control_c, 0, 67, 30
1, 41213, Note_off_c, 0, 31, 63
1, 41225, Control_c, 0, 67, 28
1, 41240, Control_c, 0, 67, 27
1, 41246, Note_on_c, 0, 66, 80
1, 41259, Note_on_c, 0, 41, 52
1, 41269, Control_c, 0, 67, 28
1, 41284, Control_c, 0, 67, 29
1, 41295, Note_off_c, 0, 41, 63
1, 41298, Note_off_c, 0, 66, 64
1, 41328, Control_c, 0, 67, 30
1, 41343, Control_c, 0, 67, 32
1, 41358, Control_c, 0, 67, 33
1, 41366, Note_on_c, 0, 67, 88
1, 41375, Note_on_c, 0, 60, 77
1, 41376, Note_on_c, 0, 62, 79
1, 41387, Note_on_c, 0, 39, 59
1, 41387, Note_on_c, 0, 32, 66
1, 41387, Control_c, 0, 64, 56
1, 41387, Control_c, 0, 67, 33
1, 41402, Control_c, 0, 64, 20
1, 41402, Control_c, 0, 67, 35
1, 41417, Control_c, 0, 64, 0
1, 41417, Control_c, 0, 67, 37
1, 41432, Control_c, 0, 67, 40
1, 41440, Note_off_c, 0, 39, 55
1, 41446, Control_c, 0, 67, 41
1, 41448, Note_off_c, 0, 32, 59
1, 41461, Control_c, 0, 67, 42
1, 41476, Control_c, 0, 67, 43
1, 41484, Note_on_c, 0, 42, 58
1, 41499, Control_c, 0, 67, 46
1, 41514, Control_c, 0, 67, 49
1, 41525, Note_off_c, 0, 42, 65
1, 41528, Control_c, 0, 67, 50
1, 41572, Control_c, 0, 67, 50
1, 41587, Control_c, 0, 67, 51
1, 41597, Note_on_c, 0, 41, 57
1, 41602, Control_c, 0, 67, 51
1, 41617, Control_c, 0, 67, 52
1, 41632, Control_c, 0, 67, 53
1, 41649, Note_off_c, 0, 41, 61
1, 41676, Control_c, 0, 67, 52
1, 41691, Control_c, 0, 67, 52
1, 41706, Control_c, 0, 67, 51
1, 41709, Note_on_c, 0, 33, 65
1, 41720, Control_c, 0, 67, 51
1, 41730, Note_on_c, 0, 40, 40
1, 41747, Note_off_c, 0, 33, 63
1, 41750, Control_c, 0, 64, 67
1, 41750, Control_c, 0, 67, 52
1, 41755, Note_off_c, 0, 60, 59
1, 41757, Note_off_c, 0, 62, 56
1, 41765, Control_c, 0, 64, 75
1, 41765, Control_c, 0, 67, 52
1, 41766, Note_off_c, 0, 40, 48
1, 41779, Note_off_c, 0, 67, 61
1, 41780, Control_c, 0, 64, 76
1, 41780, Control_c, 0, 67, 53
1, 41795, Control_c, 0, 64, 77
1, 41795, Control_c, 0, 67, 53
1, 41810, Control_c, 0, 64, 79
1, 41825, Control_c, 0, 64, 82
1, 41825, Note_on_c, 0, 42, 74
1, 41854, Control_c, 0, 64, 79
1, 41854, Control_c, 0, 67, 54
1, 41861, Note_off_c, 0, 42, 64
1, 41869, Control_c, 0, 64, 64
1, 41869, Control_c, 0, 67, 55
1, 41884, Control_c, 0, 64, 0
1, 41884, Control_c, 0, 67, 57
1, 41899, Control_c, 0, 67, 61
1, 41914, Control_c, 0, 67, 63
1, 41929, Control_c, 0, 67, 65
1, 41944, Control_c, 0, 67, 66
1, 41947, Note_on_c, 0, 34, 65
1, 41953, Note_on_c, 0, 41, 56
1, 41959, Control_c, 0, 67, 66
1, 41992, Note_off_c, 0, 41, 63
1, 42018, Note_off_c, 0, 34, 64
1, 42044, Note_on_c, 0, 42, 67
1, 42057, Note_on_c, 0, 68, 84
1, 42060, Note_on_c, 0, 66, 86
1, 42087, Note_off_c, 0, 42, 62
1, 42118, Note_off_c, 0, 68, 62
1, 42122, Control_c, 0, 67, 66
1, 42123, Note_off_c, 0, 66, 57
1, 42164, Note_on_c, 0, 67, 81
1, 42170, Note_on_c, 0, 43, 66
1, 42181, Control_c, 0, 67, 65
1, 42188, Note_on_c, 0, 35, 47
1, 42195, Control_c, 0, 67, 63
1, 42204, Note_off_c, 0, 43, 64
1, 42210, Control_c, 0, 67, 63
1, 42214, Note_off_c, 0, 67, 62
1, 42218, Note_off_c, 0, 35, 51
1, 42272, Note_on_c, 0, 68, 82
1, 42277, Note_on_c, 0, 40, 72
1, 42292, Control_c, 0, 67, 62
1, 42307, Control_c, 0, 67, 61
1, 42321, Note_off_c, 0, 68, 64
1, 42321, Control_c, 0, 67, 59
1, 42330, Note_off_c, 0, 40, 64
1, 42336, Control_c, 0, 67, 58
1, 42351, Control_c, 0, 67, 53
1, 42366, Control_c, 0, 67, 44
1, 42380, Note_on_c, 0, 69, 95
1, 42381, Control_c, 0, 67, 26
1, 42386, Note_on_c, 0, 44, 79
1, 42389, Note_on_c, 0, 36, 72
1, 42395, Control_c, 0, 64, 56
1, 42395, Control_c, 0, 67, 0
1, 42410, Control_c, 0, 64, 85
1, 42425, Control_c, 0, 64, 104
1, 42440, Control_c, 0, 64, 127
1, 42451, Note_off_c, 0, 44, 62
1, 42459, Note_off_c, 0, 69, 63
1, 42480, Note_off_c, 0, 36, 59
1, 42492, Note_on_c, 0, 42, 72
1, 42492, Note_on_c, 0, 70, 82
1, 42531, Note_off_c, 0, 42, 63
1, 42536, Note_off_c, 0, 70, 64
1, 42543, Control_c, 0, 64, 80
1, 42558, Control_c, 0, 64, 53
1, 42573, Control_c, 0, 64, 0
1, 42588, Note_on_c, 0, 46, 71
1, 42592, Note_on_c, 0, 71, 79
1, 42627, Note_off_c, 0, 46, 62
1, 42642, Note_off_c, 0, 71, 63
1, 42705, Note_on_c, 0, 72, 86
1, 42708, Note_on_c, 0, 45, 85
1, 42718, Note_on_c, 0, 37, 79
1, 42752, Control_c, 0, 64, 127
1, 42756, Note_off_c, 0, 72, 67
1, 42767, Note_off_c, 0, 45, 64
1, 42777, Note_off_c, 0, 37, 62
1, 42782, Control_c, 0, 64, 98
1, 42797, Control_c, 0, 64, 68
1, 42808, Note_on_c, 0, 48, 81
1, 42811, Control_c, 0, 64, 0
1, 42813, Note_on_c, 0, 75, 89
1, 42850, Note_off_c, 0, 75, 68
1, 42862, Note_off_c, 0, 48, 62
1, 42914, Note_on_c, 0, 81, 98
1, 42917, Note_on_c, 0, 46, 88
1, 42920, Note_on_c, 0, 74, 83
1, 42927, Note_on_c, 0, 38, 76
1, 42960, Note_off_c, 0, 74, 64
1, 42960, Note_off_c, 0, 81, 65
1, 42966, Note_off_c, 0, 46, 63
1, 42973, Note_off_c, 0, 38, 63
1, 43023, Note_on_c, 0, 48, 80
1, 43024, Note_on_c, 0, 80, 89
1, 43077, Note_off_c, 0, 48, 62
1, 43079, Note_off_c, 0, 80, 67
1, 43128, Note_on_c, 0, 79, 96
1, 43134, Note_on_c, 0, 76, 94
1, 43136, Note_on_c, 0, 47, 78
1, 43151, Note_on_c, 0, 39, 69
1, 43176, Note_off_c, 0, 47, 63
1, 43178, Note_on_c, 0, 81, 11
1, 43179, Note_off_c, 0, 81, 127
1, 43193, Note_off_c, 0, 39, 56
1, 43204, Control_c, 0, 64, 56
1, 43219, Control_c, 0, 64, 56
1, 43233, Control_c, 0, 64, 59
1, 43237, Note_on_c, 0, 48, 78
1, 43248, Control_c, 0, 64, 63
1, 43263, Control_c, 0, 64, 68
1, 43278, Control_c, 0, 64, 77
1, 43282, Note_off_c, 0, 48, 60
1, 43292, Control_c, 0, 64, 106
1, 43307, Control_c, 0, 64, 127
1, 43347, Note_on_c, 0, 46, 79
1, 43396, Note_off_c, 0, 46, 62
1, 43401, Note_off_c, 0, 76, 60
1, 43430, Note_off_c, 0, 79, 61
1, 43440, Control_c, 0, 64, 74
1, 43455, Control_c, 0, 64, 0
1, 43462, Note_on_c, 0, 49, 83
1, 43470, Note_on_c, 0, 40, 68
1, 43513, Note_off_c, 0, 49, 63
1, 43515, Note_off_c, 0, 40, 63
1, 43566, Note_on_c, 0, 46, 81
1, 43587, Note_on_c, 0, 78, 103
1, 43589, Control_c, 0, 64, 60
1, 43595, Note_on_c, 0, 77, 85
1, 43604, Control_c, 0, 64, 57
1, 43613, Note_off_c, 0, 77, 72
1, 43619, Control_c, 0, 64, 0
1, 43628, Note_off_c, 0, 46, 63
1, 43632, Note_off_c, 0, 78, 68
1, 43684, Note_on_c, 0, 50, 83
1, 43686, Note_on_c, 0, 41, 82
1, 43690, Note_on_c, 0, 79, 103
1, 43746, Note_off_c, 0, 79, 66
1, 43757, Note_off_c, 0, 41, 63
1, 43759, Note_off_c, 0, 50, 59
1, 43798, Note_on_c, 0, 42, 63
1, 43802, Note_on_c, 0, 84, 96
1, 43807, Note_on_c, 0, 76, 94
1, 43845, Note_off_c, 0, 76, 67
1, 43850, Note_off_c, 0, 84, 62
1, 43870, Note_off_c, 0, 42, 58
1, 43888, Note_on_c, 0, 43, 19
1, 43905, Note_on_c, 0, 83, 95
1, 43944, Note_on_c, 0, 39, 58
1, 43978, Note_off_c, 0, 43, 57
1, 43978, Note_off_c, 0, 83, 61
1, 43980, Note_off_c, 0, 39, 52
1, 44009, Note_on_c, 0, 82, 101
1, 44016, Note_on_c, 0, 49, 82
1, 44022, Note_on_c, 0, 77, 80
1, 44026, Note_on_c, 0, 76, 68
1, 44042, Note_off_c, 0, 76, 67
1, 44098, Note_off_c, 0, 49, 52
1, 44100, Control_c, 0, 64, 73
1, 44111, Note_on_c, 0, 45, 75
1, 44115, Control_c, 0, 64, 99
1, 44130, Control_c, 0, 64, 127
1, 44160, Control_c, 0, 64, 102
1, 44174, Control_c, 0, 64, 68
1, 44176, Note_off_c, 0, 45, 64
1, 44189, Control_c, 0, 64, 0
1, 44236, Note_on_c, 0, 44, 88
1, 44244, Note_on_c, 0, 40, 79
1, 44295, Control_c, 0, 64, 54
1, 44310, Control_c, 0, 64, 79
1, 44325, Control_c, 0, 64, 127
1, 44330, Note_off_c, 0, 44, 58
1, 44337, Note_on_c, 0, 49, 81
1, 44368, Note_off_c, 0, 40, 54
1, 44380, Note_off_c, 0, 82, 62
1, 44384, Note_off_c, 0, 77, 58
1, 44394, Note_off_c, 0, 49, 61
1, 44453, Note_on_c, 0, 43, 78
1, 44519, Note_off_c, 0, 43, 61
1, 44621, Note_on_c, 0, 86, 96
1, 44623, Note_on_c, 0, 41, 78
1, 44625, Note_on_c, 0, 85, 93
1, 44626, Note_on_c, 0, 44, 83
1, 44628, Control_c, 0, 64, 78
1, 44643, Control_c, 0, 64, 0
1, 44664, Note_off_c, 0, 86, 64
1, 44689, Note_off_c, 0, 44, 62
1, 44691, Note_off_c, 0, 41, 64
1, 44713, Note_off_c, 0, 85, 60
1, 44724, Note_on_c, 0, 81, 88
1, 44728, Note_on_c, 0, 45, 77
1, 44737, Note_on_c, 0, 78, 84
1, 44781, Note_off_c, 0, 45, 64
1, 44841, Note_on_c, 0, 43, 81
1, 44895, Note_off_c, 0, 43, 62
1, 44954, Note_on_c, 0, 45, 71
1, 44958, Note_on_c, 0, 42, 76
1, 45012, Note_off_c, 0, 45, 63
1, 45027, Note_off_c, 0, 42, 62
1, 45056, Note_on_c, 0, 37, 81
1, 45116, Note_off_c, 0, 37, 65
1, 45171, Note_on_c, 0, 47, 72
1, 45177, Note_on_c, 0, 41, 80
1, 45206, Note_off_c, 0, 47, 66
1, 45243, Note_off_c, 0, 41, 63
1, 45270, Note_off_c, 0, 81, 60
1, 45271, Note_off_c, 0, 78, 61
1, 45286, Note_on_c, 0, 38, 84
1, 45348, Note_off_c, 0, 38, 64
1, 45393, Note_on_c, 0, 40, 83
1, 45397, Note_on_c, 0, 48, 62
1, 45419, Note_off_c, 0, 48, 60
1, 45452, Note_off_c, 0, 40, 64
1, 45505, Note_on_c, 0, 39, 71
1, 45550, Note_off_c, 0, 39, 56
1, 45631, Note_on_c, 0, 86, 100
1, 45635, Note_on_c, 0, 77, 95
1, 45639, Note_on_c, 0, 41, 77
1, 45644, Control_c, 0, 64, 21
1, 45659, Control_c, 0, 64, 127
1, 45679, Note_off_c, 0, 77, 59
1, 45681, Note_off_c, 0, 86, 58
1, 45707, Note_off_c, 0, 41, 62
1, 45737, Poly_aftertouch_c, 0, 83, 0
1, 45742, Note_on_c, 0, 49, 74
1, 45744, Note_on_c, 0, 85, 90
1, 45768, Note_on_c, 0, 40, 58
1, 45775, Note_off_c, 0, 49, 64
1, 45796, Note_off_c, 0, 85, 66
1, 45849, Note_on_c, 0, 43, 74
1, 45851, Note_on_c, 0, 76, 89
1, 45852, Note_off_c, 0, 40, 56
1, 45852, Control_c, 0, 64, 86
1, 45854, Note_on_c, 0, 84, 81
1, 45867, Control_c, 0, 64, 65
1, 45882, Control_c, 0, 64, 0
1, 45898, Note_off_c, 0, 84, 62
1, 45906, Note_off_c, 0, 43, 60
1, 45912, Note_off_c, 0, 76, 56
1, 45953, Note_on_c, 0, 75, 99
1, 45955, Note_on_c, 0, 50, 77
1, 45977, Note_on_c, 0, 41, 51
1, 46012, Note_off_c, 0, 50, 61
1, 46013, Note_off_c, 0, 75, 64
1, 46027, Note_off_c, 0, 41, 62
1, 46072, Note_on_c, 0, 45, 80
1, 46073, Note_on_c, 0, 74, 93
1, 46073, Note_on_c, 0, 76, 92
1, 46097, Control_c, 0, 64, 100
1, 46112, Control_c, 0, 64, 127
1, 46136, Note_off_c, 0, 76, 58
1, 46139, Note_off_c, 0, 74, 60
1, 46151, Note_off_c, 0, 45, 62
1, 46177, Note_on_c, 0, 51, 92
1, 46182, Note_on_c, 0, 42, 82
1, 46183, Note_on_c, 0, 80, 87
1, 46193, Note_on_c, 0, 73, 83
1, 46233, Note_off_c, 0, 80, 62
1, 46237, Note_off_c, 0, 73, 60
1, 46240, Note_off_c, 0, 51, 56
1, 46248, Note_off_c, 0, 42, 0
1, 46284, Note_on_c, 0, 79, 84
1, 46285, Note_on_c, 0, 43, 79
1, 46286, Poly_aftertouch_c, 0, 42, 127
1, 46311, Poly_aftertouch_c, 0, 42, 0
1, 46340, Note_off_c, 0, 43, 60
1, 46340, Note_off_c, 0, 79, 62
1, 46363, Control_c, 0, 64, 92
1, 46378, Control_c, 0, 64, 60
1, 46393, Control_c, 0, 64, 0
1, 46394, Note_on_c, 0, 81, 97
1, 46396, Note_on_c, 0, 72, 94
1, 46396, Note_on_c, 0, 77, 101
1, 46399, Note_on_c, 0, 44, 77
1, 46412, Note_on_c, 0, 52, 87
1, 46464, Note_off_c, 0, 44, 64
1, 46496, Control_c, 0, 64, 39
1, 46506, Note_off_c, 0, 52, 55
1, 46509, Note_on_c, 0, 45, 87
1, 46511, Control_c, 0, 64, 0
1, 46562, Note_off_c, 0, 45, 65
1, 46615, Note_on_c, 0, 43, 83
1, 46672, Note_off_c, 0, 43, 63
1, 46724, Note_on_c, 0, 46, 97
1, 46726, Note_on_c, 0, 53, 90
1, 46729, Note_on_c, 0, 41, 87
1, 46743, Note_off_c, 0, 72, 62
1, 46754, Note_off_c, 0, 81, 61
1, 46755, Note_off_c, 0, 77, 63
1, 46771, Control_c, 0, 64, 53
1, 46786, Control_c, 0, 64, 89
1, 46800, Control_c, 0, 64, 127
1, 46812, Note_off_c, 0, 41, 56
1, 46818, Note_off_c, 0, 46, 62
1, 46823, Note_off_c, 0, 53, 63
1, 46859, Note_on_c, 0, 42, 72
1, 46897, Note_off_c, 0, 42, 64
1, 46976, Note_on_c, 0, 43, 72
1, 46998, Poly_aftertouch_c, 0, 44, 127
1, 47034, Note_off_c, 0, 43, 60
1, 47039, Poly_aftertouch_c, 0, 44, 0
1, 47074, Note_on_c, 0, 47, 60
1, 47137, Note_off_c, 0, 47, 59
1, 47185, Control_c, 0, 64, 79
1, 47200, Control_c, 0, 64, 50
1, 47215, Control_c, 0, 64, 0
1, 47229, Note_on_c, 0, 87, 88
1, 47232, Note_on_c, 0, 75, 85
1, 47235, Note_on_c, 0, 83, 81
1, 47236, Note_on_c, 0, 51, 71
1, 47244, Note_on_c, 0, 39, 66
1, 47245, Control_c, 0, 67, 14
1, 47254, Note_on_c, 0, 44, 50
1, 47259, Control_c, 0, 67, 26
1, 47274, Control_c, 0, 67, 40
1, 47289, Control_c, 0, 67, 52
1, 47295, Note_off_c, 0, 44, 60
1, 47304, Control_c, 0, 67, 65
1, 47310, Note_off_c, 0, 51, 59
1, 47319, Control_c, 0, 67, 77
1, 47319, Note_off_c, 0, 39, 60
1, 47333, Control_c, 0, 67, 87
1, 47348, Control_c, 0, 67, 94
1, 47357, Note_on_c, 0, 45, 69
1, 47363, Control_c, 0, 67, 101
1, 47378, Control_c, 0, 67, 106
1, 47393, Control_c, 0, 67, 108
1, 47408, Control_c, 0, 67, 109
1, 47414, Note_off_c, 0, 45, 60
1, 47437, Control_c, 0, 67, 109
1, 47462, Note_on_c, 0, 41, 74
1, 47525, Note_off_c, 0, 41, 64
1, 47549, Control_c, 0, 67, 108
1, 47564, Control_c, 0, 67, 107
1, 47567, Note_on_c, 0, 52, 92
1, 47575, Note_on_c, 0, 40, 85
1, 47579, Control_c, 0, 67, 106
1, 47594, Control_c, 0, 67, 104
1, 47609, Control_c, 0, 64, 72
1, 47609, Control_c, 0, 67, 101
1, 47623, Control_c, 0, 64, 84
1, 47623, Control_c, 0, 67, 101
1, 47625, Note_off_c, 0, 52, 59
1, 47627, Note_off_c, 0, 40, 58
1, 47638, Control_c, 0, 67, 100
1, 47653, Control_c, 0, 64, 78
1, 47653, Control_c, 0, 67, 100
1, 47664, Note_on_c, 0, 46, 82
1, 47668, Control_c, 0, 64, 78
1, 47676, Note_off_c, 0, 83, 57
1, 47683, Control_c, 0, 64, 78
1, 47683, Control_c, 0, 67, 98
1, 47697, Control_c, 0, 64, 86
1, 47697, Control_c, 0, 67, 97
1, 47712, Control_c, 0, 64, 111
1, 47712, Control_c, 0, 67, 95
1, 47718, Note_off_c, 0, 46, 62
1, 47727, Control_c, 0, 64, 127
1, 47727, Control_c, 0, 67, 93
1, 47742, Control_c, 0, 67, 91
1, 47744, Note_off_c, 0, 75, 60
1, 47751, Note_off_c, 0, 87, 60
1, 47757, Control_c, 0, 67, 88
1, 47772, Control_c, 0, 67, 86
1, 47772, Note_on_c, 0, 53, 85
1, 47778, Note_on_c, 0, 41, 84
1, 47787, Control_c, 0, 67, 85
1, 47801, Control_c, 0, 67, 84
1, 47816, Control_c, 0, 67, 83
1, 47828, Note_off_c, 0, 53, 63
1, 47831, Control_c, 0, 67, 83
1, 47846, Control_c, 0, 67, 82
1, 47852, Note_off_c, 0, 41, 61
1, 47861, Control_c, 0, 64, 77
1, 47873, Note_on_c, 0, 48, 72
1, 47875, Control_c, 0, 64, 0
1, 47888, Note_on_c, 0, 84, 96
1, 47888, Note_on_c, 0, 78, 92
1, 47890, Control_c, 0, 67, 81
1, 47920, Control_c, 0, 67, 81
1, 47939, Note_off_c, 0, 48, 62
1, 47964, Control_c, 0, 64, 62
1, 47964, Control_c, 0, 67, 80
1, 47979, Control_c, 0, 64, 127
1, 47979, Control_c, 0, 67, 79
1, 47994, Control_c, 0, 67, 79
1, 47998, Note_on_c, 0, 42, 84
1, 47998, Note_on_c, 0, 54, 87
1, 48008, Control_c, 0, 67, 76
1, 48023, Control_c, 0, 67, 73
1, 48038, Control_c, 0, 67, 69
1, 48043, Note_off_c, 0, 84, 60
1, 48043, Note_off_c, 0, 78, 63
1, 48053, Note_off_c, 0, 54, 60
1, 48053, Control_c, 0, 67, 62
1, 48064, Note_off_c, 0, 42, 57
1, 48067, Control_c, 0, 67, 50
1, 48082, Control_c, 0, 67, 29
1, 48097, Control_c, 0, 67, 0
1, 48100, Note_on_c, 0, 46, 76
1, 48159, Note_off_c, 0, 46, 61
1, 48203, Note_on_c, 0, 48, 82
1, 48266, Note_off_c, 0, 48, 61
1, 48323, Note_on_c, 0, 43, 87
1, 48330, Note_on_c, 0, 55, 89
1, 48380, Note_off_c, 0, 43, 60
1, 48427, Note_off_c, 0, 55, 56
1, 48429, Note_on_c, 0, 76, 106
1, 48430, Note_on_c, 0, 88, 101
1, 48431, Note_on_c, 0, 79, 96
1, 48432, Note_on_c, 0, 82, 94
1, 48439, Note_on_c, 0, 52, 78
1, 48449, Note_on_c, 0, 46, 72
1, 48476, Control_c, 0, 64, 79
1, 48483, Note_on_c, 0, 49, 21
1, 48484, Note_off_c, 0, 52, 64
1, 48490, Control_c, 0, 64, 61
1, 48505, Control_c, 0, 64, 0
1, 48509, Note_off_c, 0, 46, 64
1, 48528, Note_off_c, 0, 49, 0
1, 48528, Note_on_c, 0, 49, 41
1, 48565, Note_on_c, 0, 48, 69
1, 48613, Note_off_c, 0, 49, 61
1, 48645, Note_on_c, 0, 56, 101
1, 48654, Control_c, 0, 64, 46
1, 48655, Note_on_c, 0, 44, 82
1, 48669, Control_c, 0, 64, 109
1, 48675, Note_off_c, 0, 48, 57
1, 48683, Control_c, 0, 64, 127
1, 48704, Note_off_c, 0, 56, 63
1, 48708, Note_off_c, 0, 44, 62
1, 48770, Note_on_c, 0, 46, 80
1, 48824, Note_off_c, 0, 46, 61
1, 48865, Note_off_c, 0, 76, 55
1, 48869, Note_on_c, 0, 54, 86
1, 48884, Note_off_c, 0, 79, 55
1, 48886, Note_off_c, 0, 88, 60
1, 48892, Note_off_c, 0, 82, 60
1, 48918, Note_off_c, 0, 54, 62
1, 48976, Note_on_c, 0, 45, 88
1, 48979, Note_on_c, 0, 55, 90
1, 48980, Control_c, 0, 64, 103
1, 49003, Control_c, 0, 64, 68
1, 49018, Control_c, 0, 64, 17
1, 49033, Control_c, 0, 64, 0
1, 49033, Note_off_c, 0, 55, 63
1, 49036, Note_off_c, 0, 45, 63
1, 49091, Note_on_c, 0, 49, 85
1, 49140, Note_off_c, 0, 49, 63
1, 49220, Note_on_c, 0, 46, 81
1, 49220, Note_on_c, 0, 77, 103
1, 49220, Note_on_c, 0, 89, 99
1, 49222, Note_on_c, 0, 54, 89
1, 49223, Note_on_c, 0, 80, 98
1, 49229, Note_on_c, 0, 85, 85
1, 49256, Control_c, 0, 64, 98
1, 49270, Control_c, 0, 64, 127
1, 49287, Note_off_c, 0, 54, 58
1, 49331, Note_on_c, 0, 51, 78
1, 49334, Note_off_c, 0, 46, 62
1, 49345, Note_on_c, 0, 49, 72
1, 49382, Note_off_c, 0, 51, 61
1, 49390, Note_off_c, 0, 49, 58
1, 49434, Note_off_c, 0, 89, 61
1, 49446, Note_on_c, 0, 53, 94
1, 49455, Note_on_c, 0, 47, 80
1, 49457, Note_off_c, 0, 85, 63
1, 49460, Note_off_c, 0, 80, 62
1, 49467, Note_off_c, 0, 77, 55
1, 49499, Note_off_c, 0, 47, 64
1, 49507, Control_c, 0, 64, 77
1, 49508, Note_off_c, 0, 53, 58
1, 49521, Control_c, 0, 64, 49
1, 49536, Control_c, 0, 64, 0
1, 49565, Note_on_c, 0, 51, 83
1, 49572, Note_on_c, 0, 49, 76
1, 49626, Note_off_c, 0, 51, 61
1, 49629, Note_off_c, 0, 49, 60
1, 49674, Note_on_c, 0, 55, 89
1, 49724, Note_off_c, 0, 55, 66
1, 49781, Control_c, 0, 64, 27
1, 49791, Note_on_c, 0, 52, 102
1, 49793, Note_on_c, 0, 48, 96
1, 49793, Note_on_c, 0, 45, 89
1, 49796, Control_c, 0, 64, 127
1, 49823, Note_on_c, 0, 50, 55
1, 49849, Note_off_c, 0, 50, 57
1, 49889, Note_off_c, 0, 45, 62
1, 49892, Note_off_c, 0, 52, 66
1, 49898, Note_off_c, 0, 48, 61
1, 49960, Control_c, 0, 64, 72
1, 49960, Note_on_c, 0, 55, 60
1, 49975, Control_c, 0, 64, 0
1, 49985, Note_off_c, 0, 55, 60
1, 50004, Control_c, 0, 67, 14
1, 50019, Control_c, 0, 67, 26
1, 50034, Control_c, 0, 67, 44
1, 50049, Control_c, 0, 67, 61
1, 50064, Control_c, 0, 67, 76
1, 50076, Note_on_c, 0, 46, 60
1, 50079, Control_c, 0, 67, 87
1, 50093, Control_c, 0, 67, 101
1, 50098, Note_on_c, 0, 51, 56
1, 50108, Control_c, 0, 67, 117
1, 50118, Note_off_c, 0, 46, 60
1, 50123, Control_c, 0, 67, 127
1, 50133, Note_off_c, 0, 51, 62
1, 50184, Note_on_c, 0, 66, 70
1, 50198, Note_on_c, 0, 61, 53
1, 50210, Note_on_c, 0, 57, 37
1, 50230, Note_off_c, 0, 61, 62
1, 50237, Note_off_c, 0, 66, 61
1, 50242, Note_off_c, 0, 57, 47
1, 50307, Note_on_c, 0, 67, 63
1, 50310, Note_on_c, 0, 47, 61
1, 50317, Note_on_c, 0, 52, 55
1, 50349, Note_off_c, 0, 67, 57
1, 50350, Note_off_c, 0, 52, 68
1, 50356, Note_off_c, 0, 47, 62
1, 50409, Note_on_c, 0, 63, 67
1, 50418, Note_on_c, 0, 55, 46
1, 50445, Note_off_c, 0, 55, 58
1, 50454, Note_off_c, 0, 63, 58
1, 50530, Note_on_c, 0, 53, 91
1, 50534, Note_on_c, 0, 48, 79
1, 50534, Note_on_c, 0, 68, 73
1, 50538, Note_on_c, 0, 62, 62
1, 50580, Note_off_c, 0, 62, 60
1, 50581, Note_on_c, 0, 52, 18
1, 50582, Note_off_c, 0, 52, 127
1, 50584, Note_off_c, 0, 68, 65
1, 50603, Note_off_c, 0, 53, 65
1, 50609, Note_off_c, 0, 48, 60
1, 50640, Note_on_c, 0, 73, 62
1, 50653, Note_on_c, 0, 57, 67
1, 50685, Note_off_c, 0, 73, 52
1, 50687, Note_off_c, 0, 57, 62
1, 50753, Note_on_c, 0, 69, 61
1, 50761, Note_on_c, 0, 55, 68
1, 50777, Note_on_c, 0, 63, 50
1, 50799, Note_off_c, 0, 55, 62
1, 50800, Note_off_c, 0, 69, 61
1, 50804, Note_off_c, 0, 63, 58
1, 50860, Note_on_c, 0, 65, 65
1, 50867, Note_on_c, 0, 54, 76
1, 50878, Note_on_c, 0, 49, 61
1, 50895, Note_off_c, 0, 65, 59
1, 50904, Note_off_c, 0, 54, 59
1, 50907, Note_off_c, 0, 49, 64
1, 50973, Note_on_c, 0, 70, 74
1, 50979, Note_on_c, 0, 60, 64
1, 50985, Note_on_c, 0, 64, 58
1, 51008, Note_off_c, 0, 70, 58
1, 51012, Note_off_c, 0, 60, 62
1, 51018, Note_off_c, 0, 64, 64
1, 51080, Note_on_c, 0, 55, 70
1, 51083, Note_on_c, 0, 71, 75
1, 51121, Note_on_c, 0, 50, 17
1, 51121, Note_off_c, 0, 55, 61
1, 51122, Control_c, 0, 67, 122
1, 51131, Note_off_c, 0, 71, 59
1, 51137, Control_c, 0, 67, 90
1, 51152, Control_c, 0, 67, 47
1, 51166, Note_off_c, 0, 50, 28
1, 51167, Control_c, 0, 67, 0
1, 51192, Note_on_c, 0, 58, 82
1, 51195, Note_on_c, 0, 65, 86
1, 51198, Note_on_c, 0, 69, 82
1, 51205, Note_on_c, 0, 60, 70
1, 51212, Control_c, 0, 64, 46
1, 51233, Control_c, 0, 64, 127
1, 51247, Note_off_c, 0, 58, 64
1, 51263, Note_off_c, 0, 60, 58
1, 51264, Note_off_c, 0, 65, 55
1, 51316, Note_on_c, 0, 56, 76
1, 51325, Note_on_c, 0, 71, 74
1, 51327, Note_on_c, 0, 66, 64
1, 51334, Note_off_c, 0, 69, 55
1, 51352, Note_off_c, 0, 56, 59
1, 51352, Note_off_c, 0, 66, 70
1, 51353, Note_off_c, 0, 71, 65
1, 51367, Control_c, 0, 64, 102
1, 51382, Control_c, 0, 64, 78
1, 51396, Control_c, 0, 64, 64
1, 51411, Control_c, 0, 64, 31
1, 51417, Note_on_c, 0, 60, 64
1, 51419, Note_on_c, 0, 63, 74
1, 51426, Control_c, 0, 64, 0
1, 51449, Note_off_c, 0, 60, 59
1, 51474, Note_off_c, 0, 63, 63
1, 51522, Note_on_c, 0, 56, 72
1, 51528, Note_on_c, 0, 52, 56
1, 51533, Note_on_c, 0, 67, 67
1, 51534, Note_on_c, 0, 72, 63
1, 51554, Note_on_c, 0, 50, 21
1, 51569, Note_off_c, 0, 72, 63
1, 51580, Note_off_c, 0, 52, 57
1, 51580, Note_off_c, 0, 56, 62
1, 51584, Note_off_c, 0, 67, 62
1, 51585, Note_off_c, 0, 50, 43
1, 51635, Control_c, 0, 64, 76
1, 51636, Note_on_c, 0, 57, 81
1, 51645, Note_on_c, 0, 71, 78
1, 51649, Note_on_c, 0, 63, 82
1, 51650, Control_c, 0, 64, 114
1, 51664, Control_c, 0, 64, 127
1, 51692, Note_off_c, 0, 71, 62
1, 51694, Note_off_c, 0, 57, 61
1, 51700, Note_off_c, 0, 63, 61
1, 51748, Note_on_c, 0, 73, 83
1, 51750, Note_on_c, 0, 68, 87
1, 51776, Note_on_c, 0, 56, 39
1, 51778, Note_on_c, 0, 57, 54
1, 51797, Note_off_c, 0, 57, 63
1, 51798, Note_off_c, 0, 68, 63
1, 51806, Note_off_c, 0, 56, 57
1, 51808, Note_off_c, 0, 73, 59
1, 51817, Poly_aftertouch_c, 0, 72, 127
1, 51842, Control_c, 0, 64, 86
1, 51843, Poly_aftertouch_c, 0, 72, 0
1, 51852, Note_on_c, 0, 63, 81
1, 51856, Control_c, 0, 64, 62
1, 51863, Note_on_c, 0, 60, 79
1, 51871, Control_c, 0, 64, 0
1, 51890, Note_off_c, 0, 63, 65
1, 51913, Note_off_c, 0, 60, 63
1, 51949, Note_on_c, 0, 58, 87
1, 51951, Note_on_c, 0, 69, 78
1, 51953, Note_on_c, 0, 74, 77
1, 52010, Note_off_c, 0, 58, 63
1, 52012, Note_off_c, 0, 74, 64
1, 52013, Note_off_c, 0, 69, 66
1, 52071, Note_on_c, 0, 65, 82
1, 52077, Note_on_c, 0, 60, 77
1, 52116, Note_off_c, 0, 60, 59
1, 52127, Note_off_c, 0, 65, 62
1, 52168, Note_on_c, 0, 75, 87
1, 52215, Note_off_c, 0, 75, 65
1, 52288, Note_on_c, 0, 70, 80
1, 52288, Note_on_c, 0, 76, 79
1, 52295, Control_c, 0, 64, 66
1, 52297, Note_on_c, 0, 54, 85
1, 52300, Note_on_c, 0, 50, 72
1, 52310, Control_c, 0, 64, 96
1, 52325, Control_c, 0, 64, 127
1, 52326, Note_off_c, 0, 76, 60
1, 52334, Note_off_c, 0, 70, 64
1, 52335, Note_off_c, 0, 50, 62
1, 52362, Note_off_c, 0, 54, 60
1, 52399, Control_c, 0, 64, 95
1, 52401, Note_on_c, 0, 60, 67
1, 52402, Note_on_c, 0, 71, 72
1, 52413, Control_c, 0, 64, 66
1, 52426, Note_off_c, 0, 71, 67
1, 52428, Control_c, 0, 64, 0
1, 52429, Note_off_c, 0, 60, 65
1, 52443, Control_c, 0, 67, 10
1, 52458, Control_c, 0, 67, 20
1, 52473, Control_c, 0, 67, 25
1, 52487, Control_c, 0, 67, 29
1, 52502, Control_c, 0, 67, 31
1, 52509, Note_on_c, 0, 56, 67
1, 52517, Control_c, 0, 67, 32
1, 52520, Note_on_c, 0, 77, 70
1, 52531, Note_on_c, 0, 72, 69
1, 52532, Control_c, 0, 67, 33
1, 52551, Note_off_c, 0, 77, 62
1, 52559, Note_off_c, 0, 72, 66
1, 52563, Note_off_c, 0, 56, 61
1, 52621, Note_on_c, 0, 51, 57
1, 52622, Note_on_c, 0, 55, 61
1, 52628, Note_on_c, 0, 69, 70
1, 52657, Note_off_c, 0, 51, 62
1, 52663, Note_off_c, 0, 55, 63
1, 52663, Note_off_c, 0, 69, 63
1, 52665, Control_c, 0, 67, 32
1, 52732, Control_c, 0, 67, 31
1, 52732, Note_on_c, 0, 60, 65
1, 52735, Note_on_c, 0, 78, 86
1, 52747, Note_on_c, 0, 73, 79
1, 52762, Control_c, 0, 67, 31
1, 52774, Note_off_c, 0, 60, 55
1, 52777, Control_c, 0, 67, 30
1, 52791, Note_off_c, 0, 78, 63
1, 52791, Control_c, 0, 67, 30
1, 52795, Note_off_c, 0, 73, 58
1, 52806, Control_c, 0, 67, 29
1, 52831, Note_on_c, 0, 54, 70
1, 52836, Control_c, 0, 67, 29
1, 52837, Note_on_c, 0, 75, 86
1, 52848, Note_on_c, 0, 71, 66
1, 52865, Control_c, 0, 67, 28
1, 52873, Note_off_c, 0, 71, 67
1, 52880, Control_c, 0, 67, 28
1, 52884, Note_off_c, 0, 75, 65
1, 52891, Note_off_c, 0, 54, 61
1, 52910, Control_c, 0, 67, 27
1, 52925, Control_c, 0, 67, 27
1, 52939, Control_c, 0, 67, 26
1, 52946, Note_on_c, 0, 79, 96
1, 52950, Note_on_c, 0, 56, 75
1, 52952, Note_on_c, 0, 74, 91
1, 52954, Control_c, 0, 67, 25
1, 52969, Control_c, 0, 67, 25
1, 52974, Note_on_c, 0, 52, 48
1, 52984, Control_c, 0, 64, 70
1, 52984, Control_c, 0, 67, 24
1, 52999, Control_c, 0, 64, 127
1, 52999, Control_c, 0, 67, 23
1, 53010, Note_off_c, 0, 56, 61
1, 53012, Note_off_c, 0, 79, 61
1, 53021, Note_off_c, 0, 74, 60
1, 53027, Note_off_c, 0, 52, 41
1, 53052, Note_on_c, 0, 63, 70
1, 53054, Note_on_c, 0, 69, 77
1, 53059, Control_c, 0, 67, 23
1, 53084, Note_off_c, 0, 69, 64
1, 53101, Note_off_c, 0, 63, 60
1, 53118, Control_c, 0, 67, 24
1, 53148, Note_on_c, 0, 56, 57
1, 53148, Control_c, 0, 64, 118
1, 53148, Control_c, 0, 67, 23
1, 53162, Control_c, 0, 64, 88
1, 53162, Control_c, 0, 67, 23
1, 53164, Note_on_c, 0, 80, 90
1, 53176, Note_on_c, 0, 53, 56
1, 53177, Note_on_c, 0, 75, 82
1, 53177, Control_c, 0, 64, 87
1, 53192, Control_c, 0, 64, 104
1, 53192, Control_c, 0, 67, 22
1, 53204, Note_off_c, 0, 53, 55
1, 53207, Control_c, 0, 64, 127
1, 53207, Control_c, 0, 67, 22
1, 53218, Note_off_c, 0, 80, 66
1, 53220, Note_off_c, 0, 56, 54
1, 53227, Note_off_c, 0, 75, 62
1, 53255, Note_on_c, 0, 63, 72
1, 53265, Note_on_c, 0, 77, 89
1, 53266, Note_on_c, 0, 71, 56
1, 53292, Note_off_c, 0, 71, 67
1, 53322, Note_off_c, 0, 77, 63
1, 53340, Note_off_c, 0, 63, 63
1, 53340, Control_c, 0, 67, 22
1, 53355, Control_c, 0, 67, 23
1, 53370, Control_c, 0, 64, 87
1, 53376, Note_on_c, 0, 72, 98
1, 53382, Note_on_c, 0, 58, 65
1, 53385, Note_on_c, 0, 54, 63
1, 53385, Control_c, 0, 64, 59
1, 53385, Control_c, 0, 67, 23
1, 53400, Control_c, 0, 64, 0
1, 53400, Control_c, 0, 67, 23
1, 53414, Control_c, 0, 67, 22
1, 53417, Note_off_c, 0, 72, 67
1, 53429, Control_c, 0, 64, 46
1, 53429, Control_c, 0, 67, 22
1, 53431, Note_off_c, 0, 54, 60
1, 53435, Note_off_c, 0, 58, 63
1, 53444, Control_c, 0, 64, 67
1, 53459, Control_c, 0, 64, 86
1, 53459, Control_c, 0, 67, 21
1, 53463, Note_on_c, 0, 63, 76
1, 53472, Control_c, 0, 64, 127
1, 53472, Control_c, 0, 67, 21
1, 53494, Control_c, 0, 67, 20
1, 53499, Note_on_c, 0, 81, 94
1, 53500, Note_on_c, 0, 71, 84
1, 53504, Note_off_c, 0, 63, 63
1, 53509, Control_c, 0, 64, 116
1, 53510, Note_on_c, 0, 80, 71
1, 53524, Control_c, 0, 64, 110
1, 53524, Control_c, 0, 67, 19
1, 53525, Note_off_c, 0, 80, 70
1, 53539, Control_c, 0, 64, 127
1, 53539, Control_c, 0, 67, 18
1, 53541, Note_off_c, 0, 81, 63
1, 53545, Note_off_c, 0, 71, 45
1, 53553, Control_c, 0, 67, 17
1, 53568, Control_c, 0, 67, 16
1, 53571, Note_on_c, 0, 55, 69
1, 53583, Control_c, 0, 67, 15
1, 53594, Note_on_c, 0, 60, 57
1, 53597, Note_on_c, 0, 78, 98
1, 53613, Control_c, 0, 67, 15
1, 53627, Control_c, 0, 67, 14
1, 53630, Note_on_c, 0, 80, 17
1, 53635, Note_off_c, 0, 55, 64
1, 53644, Note_off_c, 0, 78, 65
1, 53657, Control_c, 0, 67, 15
1, 53663, Note_off_c, 0, 60, 62
1, 53669, Note_off_c, 0, 80, 55
1, 53674, Note_on_c, 0, 63, 77
1, 53703, Note_on_c, 0, 72, 97
1, 53703, Note_on_c, 0, 82, 102
1, 53716, Control_c, 0, 67, 14
1, 53741, Note_off_c, 0, 72, 63
1, 53746, Control_c, 0, 67, 13
1, 53750, Note_off_c, 0, 82, 62
1, 53751, Note_off_c, 0, 63, 63
1, 53760, Control_c, 0, 67, 13
1, 53775, Control_c, 0, 67, 11
1, 53782, Note_on_c, 0, 56, 61
1, 53789, Note_on_c, 0, 60, 67
1, 53790, Control_c, 0, 67, 0
1, 53798, Note_on_c, 0, 78, 100
1, 53848, Note_off_c, 0, 60, 63
1, 53851, Note_off_c, 0, 56, 61
1, 53855, Note_off_c, 0, 78, 66
1, 53877, Note_on_c, 0, 65, 80
1, 53907, Note_on_c, 0, 73, 97
1, 53923, Note_on_c, 0, 82, 63
1, 53928, Note_on_c, 0, 83, 67
1, 53945, Note_off_c, 0, 65, 55
1, 53953, Note_off_c, 0, 83, 65
1, 53954, Note_off_c, 0, 73, 62
1, 53960, Note_off_c, 0, 82, 62
1, 54003, Note_on_c, 0, 59, 42
1, 54014, Note_on_c, 0, 61, 43
1, 54017, Note_on_c, 0, 76, 95
1, 54021, Note_on_c, 0, 78, 82
1, 54041, Note_off_c, 0, 78, 67
1, 54044, Note_off_c, 0, 59, 52
1, 54051, Note_off_c, 0, 61, 45
1, 54056, Note_off_c, 0, 76, 68
1, 54100, Note_on_c, 0, 63, 83
1, 54111, Note_on_c, 0, 74, 91
1, 54153, Note_off_c, 0, 63, 61
1, 54158, Note_off_c, 0, 74, 70
1, 54288, Control_c, 0, 64, 102
1, 54302, Control_c, 0, 64, 64
1, 54309, Note_on_c, 0, 59, 80
1, 54312, Note_on_c, 0, 63, 87
1, 54317, Control_c, 0, 64, 55
1, 54319, Note_on_c, 0, 75, 115
1, 54325, Note_on_c, 0, 85, 87
1, 54332, Control_c, 0, 64, 64
1, 54336, Note_on_c, 0, 80, 72
1, 54347, Control_c, 0, 64, 85
1, 54354, Note_on_c, 0, 86, 56
1, 54362, Control_c, 0, 64, 127
1, 54375, Note_off_c, 0, 86, 61
1, 54396, Note_off_c, 0, 75, 60
1, 54402, Note_off_c, 0, 85, 54
1, 54406, Note_off_c, 0, 63, 61
1, 54415, Note_on_c, 0, 69, 83
1, 54425, Note_on_c, 0, 78, 84
1, 54425, Note_off_c, 0, 59, 51
1, 54455, Note_off_c, 0, 80, 65
1, 54463, Note_off_c, 0, 69, 65
1, 54465, Note_off_c, 0, 78, 61
1, 54530, Note_on_c, 0, 76, 98
1, 54533, Note_on_c, 0, 86, 87
1, 54534, Note_on_c, 0, 65, 82
1, 54538, Note_on_c, 0, 88, 86
1, 54543, Note_on_c, 0, 60, 78
1, 54556, Note_off_c, 0, 88, 71
1, 54584, Note_off_c, 0, 86, 60
1, 54589, Note_off_c, 0, 65, 62
1, 54594, Note_off_c, 0, 76, 56
1, 54600, Note_off_c, 0, 60, 61
1, 54626, Note_on_c, 0, 80, 90
1, 54631, Note_on_c, 0, 78, 88
1, 54645, Note_on_c, 0, 71, 83
1, 54666, Note_off_c, 0, 78, 61
1, 54667, Note_off_c, 0, 80, 66
1, 54669, Note_on_c, 0, 64, 36
1, 54695, Note_off_c, 0, 71, 63
1, 54702, Note_off_c, 0, 64, 55
1, 54745, Note_on_c, 0, 87, 94
1, 54747, Note_on_c, 0, 77, 101
1, 54759, Note_on_c, 0, 61, 75
1, 54766, Note_on_c, 0, 64, 74
1, 54767, Note_on_c, 0, 65, 62
1, 54794, Note_off_c, 0, 87, 62
1, 54798, Note_off_c, 0, 77, 56
1, 54816, Note_off_c, 0, 64, 62
1, 54839, Note_on_c, 0, 82, 75
1, 54846, Note_off_c, 0, 65, 62
1, 54848, Note_off_c, 0, 61, 57
1, 54863, Note_on_c, 0, 81, 57
1, 54866, Note_on_c, 0, 72, 88
1, 54866, Note_on_c, 0, 83, 57
1, 54881, Note_off_c, 0, 81, 63
1, 54890, Note_off_c, 0, 83, 64
1, 54893, Note_off_c, 0, 82, 66
1, 54954, Note_on_c, 0, 76, 77
1, 54956, Note_off_c, 0, 72, 58
1, 54958, Note_on_c, 0, 77, 80
1, 54984, Note_off_c, 0, 76, 72
1, 54985, Note_off_c, 0, 77, 68
1, 55068, Note_on_c, 0, 78, 107
1, 55075, Note_on_c, 0, 88, 82
1, 55075, Note_on_c, 0, 89, 91
1, 55084, Note_on_c, 0, 66, 87
1, 55095, Note_on_c, 0, 62, 74
1, 55096, Note_on_c, 0, 83, 61
1, 55145, Note_off_c, 0, 89, 59
1, 55169, Note_off_c, 0, 88, 61
1, 55170, Note_on_c, 0, 82, 82
1, 55170, Note_off_c, 0, 78, 60
1, 55172, Note_off_c, 0, 83, 60
1, 55173, Note_off_c, 0, 62, 56
1, 55176, Note_off_c, 0, 66, 63
1, 55188, Note_on_c, 0, 73, 88
1, 55213, Note_off_c, 0, 82, 63
1, 55243, Note_off_c, 0, 73, 58
1, 55283, Note_on_c, 0, 90, 90
1, 55284, Note_on_c, 0, 70, 85
1, 55284, Note_on_c, 0, 79, 99
1, 55303, Note_on_c, 0, 89, 66
1, 55319, Note_off_c, 0, 89, 66
1, 55333, Note_off_c, 0, 90, 65
1, 55339, Note_off_c, 0, 79, 61
1, 55369, Note_off_c, 0, 70, 61
1, 55388, Note_on_c, 0, 67, 84
1, 55389, Note_on_c, 0, 84, 99
1, 55395, Note_on_c, 0, 85, 92
1, 55430, Note_off_c, 0, 84, 66
1, 55436, Note_off_c, 0, 85, 64
1, 55448, Note_off_c, 0, 67, 62
1, 55465, Note_on_c, 0, 61, 27
1, 55495, Note_on_c, 0, 80, 96
1, 55497, Note_off_c, 0, 61, 46
1, 55498, Note_on_c, 0, 90, 101
1, 55501, Note_on_c, 0, 71, 93
1, 55519, Note_on_c, 0, 91, 78
1, 55542, Note_off_c, 0, 91, 67
1, 55553, Note_off_c, 0, 71, 67
1, 55555, Note_off_c, 0, 80, 68
1, 55567, Note_off_c, 0, 90, 55
1, 55594, Note_on_c, 0, 82, 25
1, 55601, Note_on_c, 0, 68, 85
1, 55623, Note_on_c, 0, 60, 51
1, 55632, Note_on_c, 0, 88, 52
1, 55647, Note_off_c, 0, 60, 57
1, 55647, Note_off_c, 0, 82, 61
1, 55654, Note_off_c, 0, 68, 62
1, 55657, Note_off_c, 0, 88, 58
1, 55705, Note_on_c, 0, 64, 83
1, 55708, Note_on_c, 0, 91, 104
1, 55712, Note_on_c, 0, 81, 102
1, 55731, Note_on_c, 0, 88, 81
1, 55732, Note_on_c, 0, 61, 49
1, 55737, Note_on_c, 0, 63, 47
1, 55752, Note_off_c, 0, 88, 71
1, 55755, Note_off_c, 0, 91, 64
1, 55757, Note_off_c, 0, 81, 64
1, 55759, Note_off_c, 0, 61, 55
1, 55766, Note_off_c, 0, 63, 39
1, 55817, Note_on_c, 0, 88, 105
1, 55819, Note_on_c, 0, 69, 83
1, 55833, Note_off_c, 0, 64, 64
1, 55860, Note_on_c, 0, 89, 26
1, 55868, Note_off_c, 0, 88, 67
1, 55885, Note_off_c, 0, 69, 60
1, 55899, Note_off_c, 0, 89, 50
1, 55922, Note_on_c, 0, 66, 85
1, 55934, Note_on_c, 0, 83, 92
1, 55957, Note_off_c, 0, 83, 63
1, 55962, Note_on_c, 0, 82, 26
1, 55963, Note_off_c, 0, 82, 127
1, 55987, Note_off_c, 0, 66, 64
1, 56006, Note_on_c, 0, 64, 74
1, 56032, Note_on_c, 0, 92, 102
1, 56033, Note_on_c, 0, 83, 107
1, 56041, Note_on_c, 0, 90, 95
1, 56069, Note_off_c, 0, 90, 53
1, 56073, Note_off_c, 0, 83, 55
1, 56076, Note_off_c, 0, 92, 66
1, 56133, Note_on_c, 0, 93, 92
1, 56136, Note_on_c, 0, 88, 82
1, 56137, Note_on_c, 0, 89, 82
1, 56139, Note_on_c, 0, 70, 92
1, 56143, Note_off_c, 0, 64, 62
1, 56160, Note_on_c, 0, 91, 49
1, 56175, Note_off_c, 0, 93, 60
1, 56184, Note_off_c, 0, 89, 67
1, 56185, Note_off_c, 0, 88, 63
1, 56187, Note_off_c, 0, 91, 52
1, 56201, Note_off_c, 0, 70, 54
1, 56253, Note_on_c, 0, 68, 77
1, 56261, Control_c, 0, 64, 74
1, 56276, Control_c, 0, 64, 0
1, 56310, Note_off_c, 0, 68, 62
1, 56335, Control_c, 0, 64, 90
1, 56348, Note_on_c, 0, 64, 77
1, 56350, Control_c, 0, 64, 127
1, 56375, Note_on_c, 0, 71, 93
1, 56375, Note_on_c, 0, 59, 87
1, 56417, Note_on_c, 0, 62, 37
1, 56436, Note_off_c, 0, 64, 65
1, 56438, Note_off_c, 0, 71, 69
1, 56446, Note_off_c, 0, 59, 66
1, 56450, Note_off_c, 0, 62, 53
1, 56501, Note_on_c, 0, 65, 94
1, 56567, Note_off_c, 0, 65, 55
1, 56586, Note_on_c, 0, 67, 55
1, 56598, Note_on_c, 0, 61, 81
1, 56616, Note_off_c, 0, 61, 70
1, 56622, Note_on_c, 0, 53, 105
1, 56625, Note_on_c, 0, 52, 102
1, 56647, Note_off_c, 0, 67, 62
1, 56729, Note_on_c, 0, 60, 75
1, 56738, Note_on_c, 0, 72, 59
1, 56747, Note_on_c, 0, 62, 47
1, 56747, Note_on_c, 0, 74, 48
1, 56753, Note_off_c, 0, 60, 67
1, 56757, Note_off_c, 0, 72, 64
1, 56772, Note_off_c, 0, 74, 63
1, 56777, Note_off_c, 0, 62, 54
1, 56811, Note_on_c, 0, 66, 49
1, 56822, Note_on_c, 0, 65, 83
1, 56836, Note_on_c, 0, 61, 68
1, 56855, Note_off_c, 0, 65, 54
1, 56864, Note_off_c, 0, 61, 62
1, 56898, Note_off_c, 0, 66, 50
1, 56934, Note_on_c, 0, 73, 84
1, 56942, Note_on_c, 0, 62, 87
1, 56950, Control_c, 0, 64, 74
1, 56965, Control_c, 0, 64, 0
1, 56983, Note_off_c, 0, 62, 52
1, 56985, Note_off_c, 0, 73, 63
1, 57009, Control_c, 0, 64, 55
1, 57018, Note_off_c, 0, 53, 54
1, 57023, Control_c, 0, 64, 83
1, 57038, Note_on_c, 0, 67, 72
1, 57038, Control_c, 0, 64, 127
1, 57063, Note_off_c, 0, 67, 68
1, 57071, Note_off_c, 0, 52, 56
1, 57145, Note_on_c, 0, 63, 89
1, 57149, Note_on_c, 0, 74, 85
1, 57155, Note_on_c, 0, 54, 77
1, 57192, Note_off_c, 0, 74, 62
1, 57205, Note_off_c, 0, 54, 61
1, 57205, Note_off_c, 0, 63, 61
1, 57258, Note_on_c, 0, 55, 77
1, 57264, Note_on_c, 0, 67, 80
1, 57307, Note_off_c, 0, 55, 64
1, 57314, Note_off_c, 0, 67, 61
1, 57361, Note_on_c, 0, 56, 72
1, 57366, Note_on_c, 0, 71, 79
1, 57409, Note_off_c, 0, 71, 63
1, 57415, Note_off_c, 0, 56, 61
1, 57463, Note_on_c, 0, 57, 84
1, 57471, Note_on_c, 0, 75, 96
1, 57473, Note_on_c, 0, 64, 91
1, 57514, Note_off_c, 0, 57, 63
1, 57518, Note_off_c, 0, 64, 61
1, 57526, Note_off_c, 0, 75, 65
1, 57572, Note_on_c, 0, 71, 89
1, 57573, Note_on_c, 0, 58, 79
1, 57621, Note_off_c, 0, 71, 64
1, 57624, Note_off_c, 0, 58, 62
1, 57677, Note_on_c, 0, 57, 74
1, 57682, Note_on_c, 0, 66, 88
1, 57683, Note_on_c, 0, 76, 72
1, 57684, Note_on_c, 0, 77, 78
1, 57701, Note_on_c, 0, 59, 48
1, 57702, Note_off_c, 0, 59, 127
1, 57705, Note_off_c, 0, 77, 68
1, 57712, Note_off_c, 0, 66, 57
1, 57720, Note_off_c, 0, 76, 66
1, 57723, Note_off_c, 0, 57, 64
1, 57776, Note_on_c, 0, 73, 94
1, 57796, Note_on_c, 0, 60, 77
1, 57823, Note_off_c, 0, 73, 63
1, 57829, Note_off_c, 0, 60, 57
1, 57880, Note_on_c, 0, 77, 101
1, 57882, Note_on_c, 0, 67, 94
1, 57897, Note_on_c, 0, 60, 93
1, 57922, Note_off_c, 0, 67, 63
1, 57931, Note_off_c, 0, 77, 60
1, 57946, Note_off_c, 0, 60, 64
1, 57982, Note_on_c, 0, 71, 93
1, 58008, Note_on_c, 0, 73, 55
1, 58019, Note_off_c, 0, 71, 68
1, 58020, Note_on_c, 0, 59, 57
1, 58028, Note_off_c, 0, 73, 65
1, 58047, Note_off_c, 0, 59, 59
1, 58091, Control_c, 0, 64, 125
1, 58106, Control_c, 0, 64, 61
1, 58110, Note_on_c, 0, 78, 99
1, 58112, Note_on_c, 0, 68, 101
1, 58115, Note_on_c, 0, 62, 109
1, 58121, Control_c, 0, 64, 0
1, 58122, Note_on_c, 0, 59, 81
1, 58124, Note_on_c, 0, 55, 90
1, 58162, Note_off_c, 0, 68, 62
1, 58165, Control_c, 0, 64, 66
1, 58180, Control_c, 0, 64, 127
1, 58196, Note_off_c, 0, 78, 52
1, 58204, Note_on_c, 0, 73, 88
1, 58257, Note_off_c, 0, 73, 62
1, 58308, Note_on_c, 0, 70, 77
1, 58345, Note_off_c, 0, 70, 58
1, 58402, Control_c, 0, 64, 102
1, 58416, Control_c, 0, 64, 61
1, 58431, Control_c, 0, 64, 0
1, 58448, Note_on_c, 0, 79, 79
1, 58449, Note_on_c, 0, 69, 80
1, 58452, Note_off_c, 0, 55, 57
1, 58458, Note_off_c, 0, 62, 59
1, 58467, Note_off_c, 0, 59, 62
1, 58491, Control_c, 0, 64, 60
1, 58500, Note_off_c, 0, 79, 60
1, 58506, Control_c, 0, 64, 78
1, 58521, Control_c, 0, 64, 98
1, 58527, Note_off_c, 0, 69, 40
1, 58536, Control_c, 0, 64, 89
1, 58539, Note_on_c, 0, 73, 74
1, 58550, Control_c, 0, 64, 64
1, 58560, Note_off_c, 0, 73, 66
1, 58565, Control_c, 0, 64, 0
1, 58652, Note_on_c, 0, 70, 81
1, 58655, Note_on_c, 0, 80, 75
1, 58691, Note_off_c, 0, 80, 61
1, 58700, Note_off_c, 0, 70, 63
1, 58765, Note_on_c, 0, 73, 77
1, 58806, Note_off_c, 0, 73, 57
1, 58865, Note_on_c, 0, 81, 88
1, 58873, Note_on_c, 0, 71, 77
1, 58875, Note_on_c, 0, 63, 73
1, 58881, Note_on_c, 0, 61, 59
1, 58899, Control_c, 0, 64, 10
1, 58911, Note_off_c, 0, 61, 65
1, 58913, Note_off_c, 0, 81, 61
1, 58914, Control_c, 0, 64, 0
1, 58920, Note_off_c, 0, 63, 60
1, 58943, Note_off_c, 0, 71, 46
1, 58969, Note_on_c, 0, 79, 72
1, 58975, Note_on_c, 0, 62, 73
1, 59010, Note_off_c, 0, 62, 62
1, 59020, Note_off_c, 0, 79, 60
1, 59063, Note_on_c, 0, 73, 83
1, 59073, Note_on_c, 0, 63, 74
1, 59099, Note_off_c, 0, 73, 55
1, 59134, Note_off_c, 0, 63, 63
1, 59176, Note_on_c, 0, 72, 96
1, 59176, Note_on_c, 0, 82, 93
1, 59183, Note_on_c, 0, 65, 76
1, 59200, Note_on_c, 0, 64, 57
1, 59211, Control_c, 0, 64, 43
1, 59221, Note_off_c, 0, 64, 64
1, 59225, Control_c, 0, 64, 0
1, 59226, Note_on_c, 0, 81, 9
1, 59233, Note_off_c, 0, 82, 58
1, 59233, Note_off_c, 0, 65, 62
1, 59236, Note_off_c, 0, 72, 61
1, 59248, Note_off_c, 0, 81, 34
1, 59269, Note_on_c, 0, 66, 81
1, 59275, Note_on_c, 0, 77, 80
1, 59310, Note_off_c, 0, 66, 66
1, 59323, Note_off_c, 0, 77, 62
1, 59380, Note_on_c, 0, 73, 94
1, 59382, Note_on_c, 0, 67, 79
1, 59386, Note_on_c, 0, 83, 86
1, 59439, Note_off_c, 0, 83, 60
1, 59445, Note_off_c, 0, 73, 63
1, 59491, Note_on_c, 0, 70, 79
1, 59492, Note_on_c, 0, 79, 82
1, 59496, Note_off_c, 0, 67, 61
1, 59498, Note_on_c, 0, 68, 75
1, 59534, Note_off_c, 0, 68, 61
1, 59534, Note_off_c, 0, 79, 62
1, 59541, Note_off_c, 0, 70, 64
1, 59596, Note_on_c, 0, 74, 97
1, 59599, Note_on_c, 0, 84, 95
1, 59602, Note_on_c, 0, 71, 82
1, 59622, Note_on_c, 0, 82, 55
1, 59646, Note_off_c, 0, 82, 36
1, 59648, Note_off_c, 0, 71, 65
1, 59675, Note_off_c, 0, 84, 58
1, 59677, Note_off_c, 0, 74, 58
1, 59699, Note_on_c, 0, 72, 89
1, 59704, Note_on_c, 0, 79, 89
1, 59755, Note_off_c, 0, 79, 59
1, 59758, Note_off_c, 0, 72, 64
1, 59806, Note_on_c, 0, 73, 97
1, 59807, Note_on_c, 0, 77, 88
1, 59825, Note_on_c, 0, 66, 66
1, 59842, Note_off_c, 0, 77, 64
1, 59910, Note_on_c, 0, 85, 89
1, 59911, Note_on_c, 0, 75, 90
1, 59946, Note_off_c, 0, 66, 23
1, 59955, Note_off_c, 0, 75, 65
1, 59958, Note_off_c, 0, 85, 64
1, 59978, Note_off_c, 0, 73, 57
1, 60011, Note_on_c, 0, 82, 82
1, 60029, Note_on_c, 0, 72, 92
1, 60064, Note_off_c, 0, 82, 63
1, 60090, Note_off_c, 0, 72, 67
1, 60113, Note_on_c, 0, 79, 84
1, 60117, Note_on_c, 0, 77, 80
1, 60145, Note_off_c, 0, 77, 61
1, 60159, Note_off_c, 0, 79, 62
1, 60231, Note_on_c, 0, 76, 97
1, 60232, Note_on_c, 0, 71, 94
1, 60232, Note_on_c, 0, 86, 93
1, 60233, Note_on_c, 0, 68, 91
1, 60238, Note_on_c, 0, 65, 84
1, 60265, Control_c, 0, 64, 71
1, 60270, Note_off_c, 0, 65, 59
1, 60280, Control_c, 0, 64, 127
1, 60282, Note_off_c, 0, 68, 67
1, 60300, Note_off_c, 0, 71, 59
1, 60302, Note_off_c, 0, 86, 59
1, 60310, Note_off_c, 0, 76, 59
1, 60351, Note_on_c, 0, 82, 76
1, 60437, Note_on_c, 0, 80, 71
1, 60440, Note_off_c, 0, 82, 35
1, 60477, Note_off_c, 0, 80, 59
1, 60556, Note_on_c, 0, 87, 87
1, 60560, Note_on_c, 0, 77, 80
1, 60601, Note_off_c, 0, 77, 58
1, 60601, Note_off_c, 0, 87, 63
1, 60664, Note_on_c, 0, 80, 62
1, 60670, Note_on_c, 0, 84, 59
1, 60685, Note_off_c, 0, 80, 67
1, 60690, Note_off_c, 0, 84, 66
1, 60765, Note_on_c, 0, 78, 85
1, 60765, Note_on_c, 0, 88, 93
1, 60798, Note_off_c, 0, 78, 61
1, 60816, Note_off_c, 0, 88, 61
1, 60872, Note_on_c, 0, 86, 67
1, 60885, Note_on_c, 0, 84, 43
1, 60900, Note_off_c, 0, 86, 66
1, 60912, Note_off_c, 0, 84, 56
1, 60960, Control_c, 0, 64, 81
1, 60983, Control_c, 0, 64, 44
1, 60988, Note_on_c, 0, 79, 97
1, 60989, Note_on_c, 0, 89, 97
1, 60997, Control_c, 0, 64, 0
1, 61027, Control_c, 0, 64, 35
1, 61043, Control_c, 0, 64, 66
1, 61058, Control_c, 0, 64, 101
1, 61072, Control_c, 0, 64, 127
1, 61074, Note_off_c, 0, 89, 59
1, 61096, Note_off_c, 0, 79, 49
1, 61100, Note_on_c, 0, 86, 73
1, 61195, Note_off_c, 0, 86, 56
1, 61200, Note_on_c, 0, 82, 70
1, 61227, Note_off_c, 0, 82, 63
1, 61293, Poly_aftertouch_c, 0, 80, 0
1, 61323, Note_on_c, 0, 90, 98
1, 61329, Note_on_c, 0, 79, 82
1, 61384, Note_off_c, 0, 79, 59
1, 61384, Note_off_c, 0, 90, 56
1, 61425, Note_on_c, 0, 85, 74
1, 61453, Note_off_c, 0, 85, 61
1, 61532, Note_on_c, 0, 91, 96
1, 61535, Note_on_c, 0, 80, 91
1, 61600, Note_off_c, 0, 91, 53
1, 61618, Note_off_c, 0, 80, 52
1, 61633, Note_on_c, 0, 87, 85
1, 61635, Control_c, 0, 64, 70
1, 61641, Note_on_c, 0, 74, 100
1, 61650, Control_c, 0, 64, 0
1, 61686, Note_off_c, 0, 87, 62
1, 61693, Note_off_c, 0, 74, 68
1, 61694, Control_c, 0, 64, 49
1, 61709, Control_c, 0, 64, 67
1, 61731, Control_c, 0, 64, 75
1, 61746, Control_c, 0, 64, 72
1, 61761, Control_c, 0, 64, 51
1, 61763, Note_on_c, 0, 75, 85
1, 61764, Note_on_c, 0, 73, 77
1, 61767, Note_on_c, 0, 81, 91
1, 61776, Control_c, 0, 64, 0
1, 61776, Note_on_c, 0, 91, 78
1, 61782, Note_on_c, 0, 90, 63
1, 61797, Note_on_c, 0, 92, 23
1, 61803, Note_off_c, 0, 90, 61
1, 61804, Note_off_c, 0, 91, 58
1, 61813, Note_off_c, 0, 73, 61
1, 61814, Note_off_c, 0, 81, 63
1, 61818, Note_off_c, 0, 75, 62
1, 61839, Note_off_c, 0, 92, 35
1, 61856, Note_on_c, 0, 85, 88
1, 61882, Note_on_c, 0, 76, 72
1, 61883, Note_on_c, 0, 71, 56
1, 61899, Note_on_c, 0, 72, 51
1, 61904, Note_off_c, 0, 85, 66
1, 61911, Note_off_c, 0, 71, 59
1, 61922, Note_off_c, 0, 76, 63
1, 61923, Note_off_c, 0, 72, 55
1, 61940, Control_c, 0, 64, 51
1, 61955, Control_c, 0, 64, 103
1, 61963, Note_on_c, 0, 82, 107
1, 61964, Note_on_c, 0, 91, 107
1, 61970, Control_c, 0, 64, 127
1, 61983, Note_on_c, 0, 70, 91
1, 61983, Note_on_c, 0, 77, 93
1, 62030, Note_off_c, 0, 70, 63
1, 62035, Note_off_c, 0, 77, 61
1, 62037, Note_off_c, 0, 91, 54
1, 62056, Note_off_c, 0, 82, 57
1, 62063, Note_on_c, 0, 87, 66
1, 62074, Note_on_c, 0, 88, 86
1, 62084, Note_off_c, 0, 87, 59
1, 62103, Control_c, 0, 64, 79
1, 62105, Note_off_c, 0, 88, 62
1, 62117, Control_c, 0, 64, 44
1, 62132, Control_c, 0, 64, 0
1, 62172, Note_on_c, 0, 76, 104
1, 62175, Note_on_c, 0, 69, 101
1, 62178, Note_on_c, 0, 91, 101
1, 62179, Note_on_c, 0, 85, 101
1, 62206, Control_c, 0, 64, 26
1, 62221, Control_c, 0, 64, 66
1, 62229, Note_off_c, 0, 91, 58
1, 62235, Control_c, 0, 64, 98
1, 62239, Note_off_c, 0, 85, 63
1, 62250, Control_c, 0, 64, 127
1, 62286, Note_on_c, 0, 90, 93
1, 62291, Note_on_c, 0, 83, 87
1, 62335, Note_off_c, 0, 83, 61
1, 62342, Note_off_c, 0, 90, 63
1, 62382, Note_on_c, 0, 88, 95
1, 62435, Note_off_c, 0, 88, 65
1, 62478, Note_off_c, 0, 76, 52
1, 62481, Control_c, 0, 64, 74
1, 62496, Control_c, 0, 64, 0
1, 62501, Note_on_c, 0, 89, 99
1, 62507, Note_on_c, 0, 84, 94
1, 62520, Note_off_c, 0, 69, 60
1, 62573, Note_off_c, 0, 84, 48
1, 62581, Note_off_c, 0, 89, 57
1, 62598, Note_on_c, 0, 88, 83
1, 62641, Note_off_c, 0, 88, 65
1, 62763, Note_on_c, 0, 87, 97
1, 62763, Note_on_c, 0, 85, 95
1, 62769, Note_on_c, 0, 73, 98
1, 62770, Note_on_c, 0, 79, 106
1, 62778, Control_c, 0, 64, 46
1, 62793, Control_c, 0, 64, 127
1, 62839, Note_off_c, 0, 79, 55
1, 62846, Note_off_c, 0, 73, 61
1, 62867, Control_c, 0, 64, 79
1, 62882, Control_c, 0, 64, 52
1, 62890, Note_off_c, 0, 87, 59
1, 62891, Note_off_c, 0, 85, 60
1, 62897, Control_c, 0, 64, 0
1, 62899, Note_on_c, 0, 90, 77
1, 62934, Note_off_c, 0, 90, 64
1, 62991, Note_on_c, 0, 76, 103
1, 62993, Note_on_c, 0, 68, 99
1, 62993, Note_on_c, 0, 74, 99
1, 62995, Note_on_c, 0, 84, 98
1, 63030, Control_c, 0, 64, 66
1, 63035, Note_off_c, 0, 68, 67
1, 63045, Note_off_c, 0, 76, 72
1, 63045, Control_c, 0, 64, 99
1, 63049, Note_off_c, 0, 74, 55
1, 63057, Note_off_c, 0, 84, 62
1, 63059, Control_c, 0, 64, 127
1, 63109, Note_on_c, 0, 91, 88
1, 63117, Note_on_c, 0, 86, 78
1, 63151, Note_off_c, 0, 86, 58
1, 63161, Note_off_c, 0, 91, 59
1, 63220, Note_on_c, 0, 88, 85
1, 63263, Note_off_c, 0, 88, 64
1, 63327, Note_on_c, 0, 92, 87
1, 63332, Note_on_c, 0, 87, 76
1, 63374, Note_off_c, 0, 87, 62
1, 63374, Note_off_c, 0, 92, 64
1, 63416, Note_on_c, 0, 90, 91
1, 63476, Note_off_c, 0, 90, 64
1, 63523, Note_on_c, 0, 93, 98
1, 63526, Note_on_c, 0, 88, 93
1, 63582, Note_off_c, 0, 88, 60
1, 63594, Note_off_c, 0, 93, 62
1, 63631, Note_on_c, 0, 94, 91
1, 63681, Note_off_c, 0, 94, 66
1, 63732, Note_on_c, 0, 82, 88
1, 63732, Note_on_c, 0, 92, 99
1, 63780, Note_off_c, 0, 92, 66
1, 63786, Note_off_c, 0, 82, 63
1, 63839, Note_on_c, 0, 95, 90
1, 63840, Note_on_c, 0, 80, 87
1, 63840, Note_on_c, 0, 81, 87
1, 63886, Note_off_c, 0, 95, 67
1, 63889, Note_off_c, 0, 81, 64
1, 63895, Note_off_c, 0, 80, 60
1, 63930, Note_on_c, 0, 94, 74
1, 63934, Note_on_c, 0, 78, 90
1, 63964, Control_c, 0, 64, 68
1, 63979, Control_c, 0, 64, 0
1, 64004, Note_off_c, 0, 94, 66
1, 64012, Note_off_c, 0, 78, 65
1, 64056, Note_on_c, 0, 77, 102
1, 64056, Note_on_c, 0, 84, 101
1, 64061, Note_on_c, 0, 96, 78
1, 64083, Control_c, 0, 64, 68
1, 64088, Note_off_c, 0, 96, 62
1, 64097, Control_c, 0, 64, 127
1, 64137, Note_off_c, 0, 77, 59
1, 64140, Note_off_c, 0, 84, 62
1, 64162, Note_on_c, 0, 97, 88
1, 64176, Note_on_c, 0, 98, 85
1, 64179, Note_on_c, 0, 93, 77
1, 64189, Note_off_c, 0, 98, 74
1, 64193, Note_on_c, 0, 94, 39
1, 64199, Note_off_c, 0, 93, 68
1, 64204, Note_off_c, 0, 97, 65
1, 64215, Control_c, 0, 64, 79
1, 64223, Note_off_c, 0, 94, 35
1, 64230, Control_c, 0, 64, 0
1, 64263, Note_on_c, 0, 78, 96
1, 64265, Note_on_c, 0, 83, 91
1, 64297, Note_off_c, 0, 83, 67
1, 64302, Note_off_c, 0, 78, 68
1, 64381, Note_on_c, 0, 84, 78
1, 64383, Note_on_c, 0, 82, 79
1, 64397, Note_on_c, 0, 83, 62
1, 64418, Note_off_c, 0, 83, 39
1, 64420, Note_off_c, 0, 82, 57
1, 64432, Note_off_c, 0, 84, 65
1, 64471, Note_on_c, 0, 85, 92
1, 64483, Note_on_c, 0, 79, 73
1, 64507, Note_off_c, 0, 79, 65
1, 64579, Note_on_c, 0, 86, 97
1, 64581, Note_on_c, 0, 78, 101
1, 64582, Note_on_c, 0, 35, 93
1, 64582, Note_on_c, 0, 81, 91
1, 64587, Control_c, 0, 64, 65
1, 64602, Control_c, 0, 64, 51
1, 64617, Control_c, 0, 64, 0
1, 64619, Note_off_c, 0, 85, 29
1, 64724, Note_on_c, 0, 45, 68
1, 64724, Note_off_c, 0, 35, 66
1, 64766, Note_off_c, 0, 45, 63
1, 64815, Note_on_c, 0, 41, 86
1, 64869, Note_off_c, 0, 41, 65
1, 64935, Note_on_c, 0, 36, 79
1, 64982, Note_off_c, 0, 36, 62
1, 65034, Note_on_c, 0, 45, 78
1, 65073, Note_off_c, 0, 45, 64
1, 65130, Note_off_c, 0, 81, 57
1, 65139, Note_on_c, 0, 41, 84
1, 65139, Note_off_c, 0, 78, 60
1, 65141, Note_off_c, 0, 86, 64
1, 65177, Note_off_c, 0, 41, 65
1, 65244, Note_on_c, 0, 47, 82
1, 65296, Note_off_c, 0, 47, 63
1, 65368, Note_on_c, 0, 37, 80
1, 65469, Note_off_c, 0, 37, 60
1, 65504, Note_on_c, 0, 87, 96
1, 65505, Note_on_c, 0, 77, 94
1, 65512, Note_on_c, 0, 82, 92
1, 65517, Note_on_c, 0, 47, 84
1, 65521, Control_c, 0, 64, 99
1, 65536, Control_c, 0, 64, 127
1, 65594, Control_c, 0, 64, 89
1, 65609, Control_c, 0, 64, 57
1, 65623, Note_off_c, 0, 47, 64
1, 65624, Control_c, 0, 64, 0
1, 65633, Note_on_c, 0, 45, 67
1, 65696, Note_off_c, 0, 45, 64
1, 65752, Note_on_c, 0, 39, 69
1, 65794, Note_off_c, 0, 39, 60
1, 65860, Note_on_c, 0, 41, 69
1, 65895, Note_off_c, 0, 41, 64
1, 65977, Note_on_c, 0, 38, 69
1, 66025, Control_c, 0, 64, 54
1, 66028, Note_off_c, 0, 38, 64
1, 66040, Control_c, 0, 64, 52
1, 66055, Control_c, 0, 64, 0
1, 66083, Note_on_c, 0, 47, 72
1, 66118, Note_off_c, 0, 47, 67
1, 66173, Note_off_c, 0, 82, 52
1, 66188, Note_on_c, 0, 45, 72
1, 66238, Note_off_c, 0, 45, 61
1, 66240, Note_off_c, 0, 77, 34
1, 66259, Note_off_c, 0, 87, 37
1, 66302, Note_on_c, 0, 39, 75
1, 66372, Note_off_c, 0, 39, 59
1, 66468, Note_on_c, 0, 85, 95
1, 66469, Note_on_c, 0, 88, 103
1, 66471, Note_on_c, 0, 79, 99
1, 66471, Note_on_c, 0, 81, 96
1, 66477, Control_c, 0, 64, 55
1, 66477, Note_on_c, 0, 47, 89
1, 66491, Control_c, 0, 64, 99
1, 66506, Control_c, 0, 64, 127
1, 66575, Note_off_c, 0, 47, 54
1, 66580, Control_c, 0, 64, 84
1, 66594, Note_on_c, 0, 41, 75
1, 66595, Control_c, 0, 64, 0
1, 66636, Note_off_c, 0, 88, 0
1, 66644, Note_off_c, 0, 41, 62
1, 66674, Poly_aftertouch_c, 0, 88, 127
1, 66681, Note_on_c, 0, 88, 18
1, 66694, Note_on_c, 0, 45, 78
1, 66733, Note_off_c, 0, 45, 63
1, 66813, Note_on_c, 0, 40, 68
1, 66847, Control_c, 0, 64, 51
1, 66858, Note_off_c, 0, 40, 61
1, 66862, Control_c, 0, 64, 64
1, 66877, Control_c, 0, 64, 79
1, 66892, Control_c, 0, 64, 127
1, 66909, Note_on_c, 0, 51, 78
1, 66930, Note_off_c, 0, 79, 51
1, 66940, Note_off_c, 0, 81, 55
1, 66966, Note_off_c, 0, 51, 60
1, 66987, Note_off_c, 0, 88, 51
1, 66988, Note_off_c, 0, 85, 61
1, 67026, Note_on_c, 0, 45, 74
1, 67032, Control_c, 0, 64, 79
1, 67047, Control_c, 0, 64, 0
1, 67087, Note_off_c, 0, 45, 60
1, 67127, Note_on_c, 0, 41, 78
1, 67188, Note_off_c, 0, 41, 64
1, 67270, Control_c, 0, 64, 56
1, 67276, Note_on_c, 0, 89, 97
1, 67279, Note_on_c, 0, 51, 97
1, 67279, Note_on_c, 0, 80, 108
1, 67282, Note_on_c, 0, 84, 102
1, 67284, Note_on_c, 0, 86, 91
1, 67285, Control_c, 0, 64, 127
1, 67338, Note_off_c, 0, 89, 66
1, 67359, Note_off_c, 0, 80, 67
1, 67371, Note_off_c, 0, 84, 69
1, 67381, Note_off_c, 0, 86, 66
1, 67392, Note_off_c, 0, 51, 59
1, 67392, Note_on_c, 0, 45, 71
1, 67475, Note_off_c, 0, 45, 0
1, 67513, Poly_aftertouch_c, 0, 45, 127
1, 67515, Note_on_c, 0, 45, 13
1, 67523, Note_on_c, 0, 42, 66
1, 67547, Note_off_c, 0, 45, 52
1, 67675, Note_off_c, 0, 42, 57
1, 67711, Note_on_c, 0, 51, 87
1, 67812, Note_off_c, 0, 51, 59
1, 67840, Control_c, 0, 64, 91
1, 67842, Note_on_c, 0, 78, 108
1, 67842, Note_on_c, 0, 90, 98
1, 67846, Note_on_c, 0, 83, 98
1, 67846, Note_on_c, 0, 87, 92
1, 67848, Note_on_c, 0, 45, 81
1, 67854, Control_c, 0, 64, 0
1, 67899, Control_c, 0, 64, 39
1, 67914, Control_c, 0, 64, 67
1, 67929, Control_c, 0, 64, 80
1, 67943, Control_c, 0, 64, 76
1, 67958, Control_c, 0, 64, 60
1, 67969, Note_on_c, 0, 43, 80
1, 67973, Control_c, 0, 64, 0
1, 67989, Note_off_c, 0, 45, 58
1, 68034, Note_off_c, 0, 43, 61
1, 68073, Note_on_c, 0, 51, 75
1, 68116, Note_off_c, 0, 51, 60
1, 68176, Note_on_c, 0, 47, 79
1, 68211, Note_off_c, 0, 47, 65
1, 68287, Note_on_c, 0, 44, 83
1, 68300, Control_c, 0, 64, 77
1, 68309, Note_off_c, 0, 83, 60
1, 68315, Control_c, 0, 64, 127
1, 68316, Note_off_c, 0, 90, 65
1, 68319, Note_off_c, 0, 87, 61
1, 68325, Note_off_c, 0, 78, 62
1, 68340, Note_off_c, 0, 44, 63
1, 68416, Note_on_c, 0, 51, 71
1, 68443, Note_off_c, 0, 51, 65
1, 68530, Control_c, 0, 64, 81
1, 68545, Note_on_c, 0, 45, 58
1, 68545, Control_c, 0, 64, 0
1, 68584, Note_off_c, 0, 45, 65
1, 68589, Control_c, 0, 67, 21
1, 68603, Control_c, 0, 67, 37
1, 68618, Control_c, 0, 67, 52
1, 68633, Control_c, 0, 67, 64
1, 68644, Note_on_c, 0, 53, 57
1, 68648, Control_c, 0, 67, 79
1, 68663, Control_c, 0, 67, 97
1, 68675, Note_off_c, 0, 53, 67
1, 68677, Control_c, 0, 67, 117
1, 68692, Control_c, 0, 67, 127
1, 68753, Note_on_c, 0, 46, 74
1, 68802, Note_off_c, 0, 46, 58
1, 68950, Note_on_c, 0, 64, 79
1, 68951, Note_on_c, 0, 61, 79
1, 68954, Note_on_c, 0, 53, 62
1, 68958, Note_on_c, 0, 57, 57
1, 68975, Note_off_c, 0, 61, 62
1, 68985, Note_off_c, 0, 53, 66
1, 68987, Note_off_c, 0, 57, 63
1, 68996, Note_off_c, 0, 64, 65
1, 69083, Note_on_c, 0, 71, 46
1, 69086, Note_on_c, 0, 51, 54
1, 69106, Note_off_c, 0, 71, 59
1, 69109, Note_off_c, 0, 51, 62
1, 69216, Note_on_c, 0, 65, 86
1, 69218, Note_on_c, 0, 47, 71
1, 69220, Note_on_c, 0, 62, 83
1, 69265, Note_off_c, 0, 62, 60
1, 69268, Note_off_c, 0, 47, 62
1, 69282, Note_off_c, 0, 65, 62
1, 69335, Note_on_c, 0, 57, 43
1, 69337, Note_on_c, 0, 73, 66
1, 69360, Note_off_c, 0, 57, 56
1, 69384, Note_off_c, 0, 73, 54
1, 69449, Note_on_c, 0, 51, 55
1, 69461, Note_on_c, 0, 69, 61
1, 69488, Note_off_c, 0, 51, 61
1, 69496, Note_off_c, 0, 69, 64
1, 69568, Note_on_c, 0, 67, 55
1, 69580, Note_on_c, 0, 53, 36
1, 69598, Note_off_c, 0, 67, 63
1, 69612, Note_off_c, 0, 53, 48
1, 69676, Note_on_c, 0, 63, 71
1, 69691, Note_on_c, 0, 48, 56
1, 69716, Note_off_c, 0, 63, 59
1, 69724, Note_off_c, 0, 48, 64
1, 69781, Note_on_c, 0, 66, 91
1, 69783, Note_on_c, 0, 62, 75
1, 69796, Note_on_c, 0, 59, 61
1, 69814, Note_off_c, 0, 62, 63
1, 69823, Note_off_c, 0, 66, 69
1, 69827, Note_off_c, 0, 59, 65
1, 69903, Note_on_c, 0, 75, 61
1, 69912, Note_on_c, 0, 57, 49
1, 69933, Note_off_c, 0, 75, 56
1, 69937, Note_off_c, 0, 57, 55
1, 70016, Note_on_c, 0, 53, 56
1, 70021, Note_on_c, 0, 69, 64
1, 70039, Note_off_c, 0, 53, 64
1, 70051, Note_off_c, 0, 69, 60
1, 70123, Note_on_c, 0, 73, 66
1, 70133, Note_on_c, 0, 51, 57
1, 70157, Note_off_c, 0, 73, 60
1, 70163, Note_off_c, 0, 51, 64
1, 70232, Note_on_c, 0, 67, 87
1, 70234, Note_on_c, 0, 63, 92
1, 70242, Note_on_c, 0, 49, 81
1, 70294, Note_off_c, 0, 63, 63
1, 70299, Note_off_c, 0, 67, 62
1, 70303, Note_off_c, 0, 49, 59
1, 70351, Note_on_c, 0, 59, 68
1, 70361, Note_on_c, 0, 75, 61
1, 70378, Note_off_c, 0, 59, 67
1, 70392, Note_off_c, 0, 75, 65
1, 70460, Note_on_c, 0, 73, 65
1, 70472, Note_on_c, 0, 53, 55
1, 70495, Note_off_c, 0, 53, 62
1, 70498, Note_off_c, 0, 73, 55
1, 70568, Note_on_c, 0, 51, 59
1, 70573, Note_on_c, 0, 67, 71
1, 70579, Note_on_c, 0, 57, 49
1, 70601, Note_off_c, 0, 51, 63
1, 70602, Note_off_c, 0, 67, 61
1, 70602, Note_off_c, 0, 57, 58
1, 70681, Note_on_c, 0, 69, 65
1, 70683, Note_on_c, 0, 50, 69
1, 70719, Note_off_c, 0, 50, 65
1, 70719, Note_off_c, 0, 69, 66
1, 70733, Control_c, 0, 67, 96
1, 70748, Control_c, 0, 67, 0
1, 70793, Note_on_c, 0, 68, 96
1, 70797, Note_on_c, 0, 61, 84
1, 70800, Note_on_c, 0, 64, 80
1, 70821, Control_c, 0, 67, 41
1, 70836, Control_c, 0, 67, 127
1, 70849, Note_off_c, 0, 64, 62
1, 70852, Note_off_c, 0, 68, 64
1, 70863, Note_off_c, 0, 61, 58
1, 70905, Note_on_c, 0, 73, 84
1, 70912, Note_on_c, 0, 55, 63
1, 70951, Note_off_c, 0, 73, 62
1, 70957, Note_off_c, 0, 55, 63
1, 71028, Note_on_c, 0, 67, 57
1, 71030, Note_on_c, 0, 51, 66
1, 71043, Note_on_c, 0, 75, 30
1, 71050, Note_off_c, 0, 67, 59
1, 71073, Note_off_c, 0, 51, 57
1, 71080, Note_off_c, 0, 75, 32
1, 71136, Note_on_c, 0, 61, 60
1, 71137, Note_on_c, 0, 69, 72
1, 71167, Note_off_c, 0, 69, 61
1, 71169, Note_off_c, 0, 61, 61
1, 71243, Note_on_c, 0, 55, 53
1, 71251, Note_on_c, 0, 73, 66
1, 71274, Note_off_c, 0, 55, 57
1, 71281, Note_off_c, 0, 73, 59
1, 71348, Note_on_c, 0, 69, 78
1, 71368, Note_on_c, 0, 65, 43
1, 71371, Note_on_c, 0, 57, 42
1, 71386, Note_off_c, 0, 69, 64
1, 71395, Note_off_c, 0, 65, 55
1, 71399, Note_off_c, 0, 57, 52
1, 71413, Control_c, 0, 67, 59
1, 71429, Control_c, 0, 67, 0
1, 71470, Note_on_c, 0, 50, 74
1, 71470, Note_on_c, 0, 78, 85
1, 71478, Note_on_c, 0, 52, 85
1, 71502, Note_off_c, 0, 50, 66
1, 71525, Note_off_c, 0, 52, 66
1, 71525, Control_c, 0, 67, 51
1, 71526, Note_off_c, 0, 78, 64
1, 71540, Control_c, 0, 67, 127
1, 71572, Note_on_c, 0, 61, 77
1, 71580, Note_on_c, 0, 68, 73
1, 71613, Note_off_c, 0, 68, 64
1, 71618, Note_off_c, 0, 61, 63
1, 71682, Note_on_c, 0, 72, 71
1, 71690, Note_on_c, 0, 57, 47
1, 71702, Note_on_c, 0, 51, 59
1, 71715, Note_off_c, 0, 57, 56
1, 71735, Note_off_c, 0, 72, 63
1, 71741, Note_off_c, 0, 51, 63
1, 71792, Note_on_c, 0, 70, 70
1, 71804, Note_on_c, 0, 55, 72
1, 71818, Note_on_c, 0, 67, 39
1, 71837, Note_off_c, 0, 55, 62
1, 71839, Note_off_c, 0, 70, 59
1, 71847, Note_off_c, 0, 67, 55
1, 71896, Note_on_c, 0, 78, 71
1, 71901, Note_on_c, 0, 51, 77
1, 71947, Note_off_c, 0, 78, 63
1, 71949, Note_off_c, 0, 51, 63
1, 71954, Control_c, 0, 67, 127
1, 71969, Control_c, 0, 67, 38
1, 71984, Control_c, 0, 67, 0
1, 72006, Note_on_c, 0, 72, 89
1, 72012, Note_on_c, 0, 53, 83
1, 72014, Note_on_c, 0, 49, 87
1, 72028, Control_c, 0, 67, 10
1, 72043, Control_c, 0, 67, 93
1, 72058, Control_c, 0, 67, 127
1, 72070, Note_off_c, 0, 72, 64
1, 72084, Note_off_c, 0, 53, 64
1, 72090, Note_off_c, 0, 49, 58
1, 72115, Note_on_c, 0, 71, 80
1, 72122, Note_on_c, 0, 60, 74
1, 72147, Note_on_c, 0, 68, 27
1, 72155, Note_off_c, 0, 60, 59
1, 72155, Note_off_c, 0, 71, 58
1, 72182, Note_off_c, 0, 68, 53
1, 72242, Note_on_c, 0, 56, 67
1, 72246, Note_on_c, 0, 78, 56
1, 72272, Note_off_c, 0, 56, 60
1, 72275, Note_off_c, 0, 78, 56
1, 72340, Note_on_c, 0, 72, 63
1, 72348, Note_on_c, 0, 50, 58
1, 72378, Note_off_c, 0, 72, 62
1, 72384, Note_off_c, 0, 50, 64
1, 72408, Control_c, 0, 67, 115
1, 72423, Control_c, 0, 67, 54
1, 72438, Control_c, 0, 67, 0
1, 72454, Note_on_c, 0, 73, 89
1, 72456, Note_on_c, 0, 54, 86
1, 72459, Note_on_c, 0, 69, 80
1, 72467, Note_on_c, 0, 48, 71
1, 72495, Note_off_c, 0, 69, 64
1, 72497, Note_off_c, 0, 48, 65
1, 72502, Note_off_c, 0, 54, 62
1, 72509, Note_off_c, 0, 73, 59
1, 72572, Note_on_c, 0, 60, 59
1, 72573, Note_on_c, 0, 80, 64
1, 72603, Note_off_c, 0, 60, 65
1, 72606, Note_off_c, 0, 80, 61
1, 72689, Note_on_c, 0, 78, 56
1, 72695, Note_on_c, 0, 56, 45
1, 72720, Note_off_c, 0, 78, 60
1, 72721, Note_off_c, 0, 56, 56
1, 72784, Note_on_c, 0, 54, 60
1, 72790, Note_on_c, 0, 74, 61
1, 72815, Note_off_c, 0, 54, 64
1, 72817, Note_on_c, 0, 71, 44
1, 72832, Note_off_c, 0, 74, 62
1, 72843, Note_off_c, 0, 71, 56
1, 72895, Note_on_c, 0, 55, 100
1, 72895, Note_on_c, 0, 47, 97
1, 72904, Note_on_c, 0, 75, 89
1, 72929, Note_off_c, 0, 55, 67
1, 72933, Note_off_c, 0, 47, 65
1, 72955, Note_off_c, 0, 75, 66
1, 73017, Note_on_c, 0, 81, 74
1, 73035, Note_on_c, 0, 54, 62
1, 73045, Note_off_c, 0, 81, 61
1, 73071, Note_off_c, 0, 54, 63
1, 73082, Control_c, 0, 67, 12
1, 73097, Control_c, 0, 67, 18
1, 73112, Control_c, 0, 67, 22
1, 73127, Control_c, 0, 67, 23
1, 73142, Note_on_c, 0, 50, 64
1, 73151, Note_on_c, 0, 73, 44
1, 73172, Control_c, 0, 67, 23
1, 73178, Note_off_c, 0, 50, 67
1, 73180, Note_off_c, 0, 73, 54
1, 73187, Control_c, 0, 67, 22
1, 73202, Control_c, 0, 67, 21
1, 73231, Control_c, 0, 67, 21
1, 73239, Note_on_c, 0, 56, 98
1, 73243, Note_on_c, 0, 75, 85
1, 73246, Note_on_c, 0, 46, 87
1, 73246, Control_c, 0, 67, 23
1, 73248, Note_on_c, 0, 72, 73
1, 73261, Control_c, 0, 67, 25
1, 73273, Note_off_c, 0, 72, 65
1, 73275, Control_c, 0, 67, 26
1, 73276, Note_off_c, 0, 56, 67
1, 73286, Note_off_c, 0, 75, 66
1, 73290, Control_c, 0, 67, 27
1, 73294, Note_off_c, 0, 46, 61
1, 73305, Control_c, 0, 67, 28
1, 73319, Control_c, 0, 67, 29
1, 73349, Control_c, 0, 67, 28
1, 73354, Note_on_c, 0, 54, 72
1, 73358, Note_on_c, 0, 83, 65
1, 73364, Control_c, 0, 67, 26
1, 73379, Control_c, 0, 67, 25
1, 73381, Note_off_c, 0, 54, 64
1, 73384, Note_off_c, 0, 83, 63
1, 73393, Control_c, 0, 67, 24
1, 73408, Control_c, 0, 67, 23
1, 73423, Control_c, 0, 67, 23
1, 73438, Control_c, 0, 67, 22
1, 73461, Note_on_c, 0, 50, 63
1, 73473, Note_on_c, 0, 81, 52
1, 73490, Note_off_c, 0, 50, 65
1, 73503, Note_off_c, 0, 81, 57
1, 73571, Note_on_c, 0, 48, 66
1, 73575, Note_on_c, 0, 77, 51
1, 73586, Control_c, 0, 67, 22
1, 73601, Control_c, 0, 67, 20
1, 73607, Note_off_c, 0, 77, 54
1, 73610, Note_off_c, 0, 48, 62
1, 73616, Control_c, 0, 67, 14
1, 73631, Control_c, 0, 67, 0
1, 73675, Note_on_c, 0, 57, 94
1, 73676, Note_on_c, 0, 75, 86
1, 73685, Note_on_c, 0, 45, 82
1, 73712, Control_c, 0, 67, 8
1, 73720, Note_off_c, 0, 45, 68
1, 73726, Note_off_c, 0, 75, 65
1, 73726, Control_c, 0, 67, 60
1, 73735, Note_off_c, 0, 57, 63
1, 73741, Control_c, 0, 67, 120
1, 73756, Control_c, 0, 67, 127
1, 73801, Note_on_c, 0, 76, 71
1, 73808, Note_on_c, 0, 55, 80
1, 73816, Note_on_c, 0, 73, 64
1, 73843, Note_off_c, 0, 55, 62
1, 73845, Note_off_c, 0, 76, 61
1, 73861, Note_off_c, 0, 73, 54
1, 73908, Note_on_c, 0, 51, 74
1, 73932, Note_on_c, 0, 83, 56
1, 73939, Note_off_c, 0, 51, 60
1, 73965, Note_off_c, 0, 83, 61
1, 74016, Note_on_c, 0, 49, 59
1, 74021, Note_on_c, 0, 81, 68
1, 74054, Note_off_c, 0, 49, 61
1, 74057, Note_off_c, 0, 81, 57
1, 74098, Control_c, 0, 67, 113
1, 74113, Control_c, 0, 67, 77
1, 74128, Note_on_c, 0, 45, 68
1, 74128, Control_c, 0, 67, 26
1, 74131, Note_on_c, 0, 75, 63
1, 74142, Control_c, 0, 67, 0
1, 74154, Note_off_c, 0, 45, 66
1, 74161, Note_off_c, 0, 75, 66
1, 74235, Note_on_c, 0, 58, 91
1, 74238, Note_on_c, 0, 74, 85
1, 74238, Note_on_c, 0, 77, 92
1, 74281, Note_off_c, 0, 74, 64
1, 74287, Note_off_c, 0, 77, 65
1, 74289, Note_off_c, 0, 58, 65
1, 74320, Control_c, 0, 67, 11
1, 74335, Control_c, 0, 67, 13
1, 74339, Note_on_c, 0, 54, 73
1, 74349, Control_c, 0, 67, 14
1, 74358, Note_on_c, 0, 84, 62
1, 74364, Control_c, 0, 67, 15
1, 74374, Note_off_c, 0, 54, 62
1, 74377, Note_off_c, 0, 84, 64
1, 74379, Control_c, 0, 67, 18
1, 74394, Control_c, 0, 67, 21
1, 74409, Control_c, 0, 67, 23
1, 74424, Control_c, 0, 67, 25
1, 74446, Control_c, 0, 67, 26
1, 74461, Control_c, 0, 67, 26
1, 74469, Note_on_c, 0, 52, 54
1, 74469, Note_on_c, 0, 80, 73
1, 74495, Note_off_c, 0, 52, 59
1, 74504, Note_off_c, 0, 80, 63
1, 74562, Note_on_c, 0, 50, 64
1, 74571, Note_on_c, 0, 78, 77
1, 74590, Note_on_c, 0, 75, 50
1, 74592, Note_off_c, 0, 50, 65
1, 74605, Note_off_c, 0, 78, 60
1, 74614, Note_off_c, 0, 75, 63
1, 74683, Note_on_c, 0, 59, 81
1, 74684, Note_on_c, 0, 49, 80
1, 74684, Control_c, 0, 67, 27
1, 74692, Note_on_c, 0, 86, 69
1, 74714, Control_c, 0, 67, 27
1, 74723, Note_off_c, 0, 49, 59
1, 74726, Note_off_c, 0, 59, 60
1, 74731, Note_off_c, 0, 86, 61
1, 74743, Control_c, 0, 67, 27
1, 74758, Control_c, 0, 67, 26
1, 74773, Control_c, 0, 67, 25
1, 74788, Control_c, 0, 67, 24
1, 74790, Note_on_c, 0, 55, 70
1, 74797, Note_on_c, 0, 84, 64
1, 74802, Control_c, 0, 67, 23
1, 74817, Control_c, 0, 67, 22
1, 74818, Note_off_c, 0, 55, 68
1, 74829, Note_off_c, 0, 84, 64
1, 74832, Control_c, 0, 67, 21
1, 74847, Control_c, 0, 67, 19
1, 74862, Control_c, 0, 67, 18
1, 74877, Control_c, 0, 67, 16
1, 74888, Note_on_c, 0, 53, 79
1, 74892, Control_c, 0, 67, 12
1, 74897, Note_on_c, 0, 80, 69
1, 74906, Control_c, 0, 67, 0
1, 74931, Note_off_c, 0, 80, 59
1, 74934, Note_off_c, 0, 53, 63
1, 74999, Note_on_c, 0, 48, 80
1, 75000, Note_on_c, 0, 79, 90
1, 75001, Note_on_c, 0, 60, 83
1, 75002, Note_on_c, 0, 54, 82
1, 75005, Note_on_c, 0, 76, 77
1, 75047, Note_off_c, 0, 48, 62
1, 75051, Note_off_c, 0, 79, 63
1, 75056, Note_off_c, 0, 76, 64
1, 75074, Note_off_c, 0, 54, 54
1, 75080, Note_off_c, 0, 60, 43
1, 75102, Note_on_c, 0, 50, 67
1, 75115, Note_on_c, 0, 87, 70
1, 75142, Note_off_c, 0, 50, 63
1, 75148, Note_off_c, 0, 87, 57
1, 75229, Note_on_c, 0, 61, 102
1, 75237, Note_on_c, 0, 49, 100
1, 75239, Note_on_c, 0, 85, 85
1, 75278, Note_off_c, 0, 61, 65
1, 75301, Note_off_c, 0, 85, 62
1, 75302, Note_off_c, 0, 49, 58
1, 75335, Note_on_c, 0, 57, 80
1, 75357, Note_on_c, 0, 80, 73
1, 75383, Note_off_c, 0, 57, 65
1, 75397, Note_on_c, 0, 77, 20
1, 75401, Note_off_c, 0, 80, 61
1, 75425, Note_off_c, 0, 77, 47
1, 75449, Note_on_c, 0, 55, 70
1, 75466, Note_on_c, 0, 87, 73
1, 75490, Note_off_c, 0, 55, 64
1, 75508, Note_off_c, 0, 87, 61
1, 75560, Note_on_c, 0, 51, 69
1, 75564, Note_on_c, 0, 85, 70
1, 75599, Note_off_c, 0, 85, 63
1, 75601, Note_off_c, 0, 51, 61
1, 75670, Note_on_c, 0, 81, 86
1, 75675, Note_on_c, 0, 50, 90
1, 75677, Note_on_c, 0, 60, 84
1, 75678, Note_on_c, 0, 62, 88
1, 75716, Note_off_c, 0, 81, 64
1, 75717, Note_off_c, 0, 60, 60
1, 75718, Note_off_c, 0, 50, 62
1, 75719, Note_off_c, 0, 62, 61
1, 75783, Note_on_c, 0, 82, 77
1, 75785, Note_on_c, 0, 56, 72
1, 75791, Note_on_c, 0, 78, 61
1, 75806, Note_off_c, 0, 82, 65
1, 75812, Note_off_c, 0, 78, 67
1, 75813, Note_off_c, 0, 56, 63
1, 75882, Note_on_c, 0, 54, 72
1, 75888, Note_on_c, 0, 88, 68
1, 75920, Note_off_c, 0, 54, 60
1, 75928, Note_off_c, 0, 88, 61
1, 76001, Note_on_c, 0, 63, 99
1, 76003, Note_on_c, 0, 86, 89
1, 76010, Note_on_c, 0, 55, 81
1, 76016, Note_on_c, 0, 51, 72
1, 76051, Note_off_c, 0, 51, 57
1, 76063, Note_off_c, 0, 86, 63
1, 76092, Note_off_c, 0, 63, 61
1, 76111, Note_on_c, 0, 82, 86
1, 76118, Note_on_c, 0, 53, 70
1, 76128, Note_off_c, 0, 55, 52
1, 76162, Note_off_c, 0, 82, 62
1, 76167, Note_off_c, 0, 53, 62
1, 76221, Note_on_c, 0, 83, 75
1, 76226, Note_on_c, 0, 62, 78
1, 76239, Note_on_c, 0, 79, 42
1, 76262, Note_off_c, 0, 83, 60
1, 76266, Note_off_c, 0, 79, 57
1, 76287, Note_off_c, 0, 62, 61
1, 76328, Note_on_c, 0, 89, 77
1, 76329, Note_on_c, 0, 58, 76
1, 76370, Note_off_c, 0, 89, 64
1, 76377, Note_off_c, 0, 58, 62
1, 76433, Note_on_c, 0, 87, 90
1, 76439, Note_on_c, 0, 62, 94
1, 76442, Note_on_c, 0, 52, 92
1, 76444, Note_on_c, 0, 64, 95
1, 76478, Note_off_c, 0, 52, 65
1, 76488, Note_off_c, 0, 62, 62
1, 76490, Note_off_c, 0, 64, 61
1, 76490, Note_off_c, 0, 87, 63
1, 76543, Note_on_c, 0, 83, 75
1, 76553, Note_on_c, 0, 63, 79
1, 76589, Note_off_c, 0, 63, 61
1, 76591, Note_off_c, 0, 83, 60
1, 76654, Note_on_c, 0, 84, 73
1, 76658, Note_on_c, 0, 59, 64
1, 76695, Note_off_c, 0, 59, 66
1, 76700, Note_off_c, 0, 84, 62
1, 76743, Poly_aftertouch_c, 0, 80, 0
1, 76773, Note_on_c, 0, 57, 64
1, 76775, Note_on_c, 0, 89, 66
1, 76808, Note_off_c, 0, 89, 63
1, 76822, Note_off_c, 0, 57, 58
1, 76889, Note_on_c, 0, 87, 90
1, 76897, Note_on_c, 0, 65, 79
1, 76899, Note_on_c, 0, 61, 80
1, 76900, Note_on_c, 0, 53, 79
1, 76937, Note_off_c, 0, 61, 56
1, 76946, Note_off_c, 0, 65, 59
1, 76952, Note_off_c, 0, 53, 59
1, 76955, Note_off_c, 0, 87, 63
1, 77000, Note_on_c, 0, 83, 80
1, 77002, Note_on_c, 0, 59, 68
1, 77035, Note_off_c, 0, 83, 62
1, 77041, Note_off_c, 0, 59, 59
1, 77100, Note_on_c, 0, 81, 66
1, 77129, Note_on_c, 0, 58, 16
1, 77140, Note_off_c, 0, 81, 61
1, 77159, Note_off_c, 0, 58, 35
1, 77227, Note_on_c, 0, 85, 101
1, 77234, Note_on_c, 0, 82, 97
1, 77237, Note_on_c, 0, 66, 92
1, 77241, Note_on_c, 0, 59, 66
1, 77247, Note_on_c, 0, 61, 77
1, 77259, Note_on_c, 0, 87, 47
1, 77275, Note_off_c, 0, 59, 65
1, 77282, Note_off_c, 0, 87, 37
1, 77294, Note_off_c, 0, 85, 64
1, 77295, Note_off_c, 0, 66, 66
1, 77296, Note_off_c, 0, 61, 63
1, 77301, Note_off_c, 0, 82, 62
1, 77351, Note_on_c, 0, 90, 77
1, 77365, Note_on_c, 0, 57, 66
1, 77402, Note_off_c, 0, 90, 59
1, 77406, Note_off_c, 0, 57, 59
1, 77458, Note_on_c, 0, 88, 79
1, 77485, Note_on_c, 0, 59, 51
1, 77511, Note_off_c, 0, 59, 57
1, 77512, Note_off_c, 0, 88, 63
1, 77567, Note_on_c, 0, 86, 84
1, 77589, Note_on_c, 0, 83, 50
1, 77594, Note_on_c, 0, 63, 67
1, 77617, Note_off_c, 0, 83, 53
1, 77619, Note_off_c, 0, 86, 64
1, 77634, Note_off_c, 0, 63, 60
1, 77682, Note_on_c, 0, 65, 98
1, 77685, Note_on_c, 0, 67, 98
1, 77685, Note_on_c, 0, 94, 91
1, 77686, Note_on_c, 0, 55, 91
1, 77688, Note_on_c, 0, 58, 91
1, 77736, Note_off_c, 0, 55, 63
1, 77741, Note_off_c, 0, 94, 66
1, 77756, Note_off_c, 0, 65, 52
1, 77764, Note_off_c, 0, 67, 54
1, 77769, Note_off_c, 0, 58, 58
1, 77788, Note_on_c, 0, 90, 70
1, 77799, Note_on_c, 0, 60, 72
1, 77840, Note_off_c, 0, 60, 62
1, 77846, Note_off_c, 0, 90, 64
1, 77869, Poly_aftertouch_c, 0, 61, 0
1, 77898, Note_on_c, 0, 68, 101
1, 77900, Note_on_c, 0, 88, 87
1, 77905, Note_on_c, 0, 62, 84
1, 77910, Note_on_c, 0, 56, 83
1, 77956, Note_off_c, 0, 62, 56
1, 77957, Note_off_c, 0, 88, 64
1, 77959, Note_off_c, 0, 56, 61
1, 77963, Note_off_c, 0, 68, 65
1, 78004, Note_on_c, 0, 59, 74
1, 78020, Note_on_c, 0, 90, 80
1, 78022, Note_on_c, 0, 87, 68
1, 78029, Note_on_c, 0, 83, 52
1, 78048, Note_off_c, 0, 87, 67
1, 78052, Note_off_c, 0, 83, 58
1, 78061, Note_off_c, 0, 90, 61
1, 78063, Note_off_c, 0, 59, 61
1, 78110, Note_on_c, 0, 61, 78
1, 78126, Note_on_c, 0, 94, 75
1, 78169, Note_off_c, 0, 61, 60
1, 78173, Note_off_c, 0, 94, 63
1, 78231, Note_on_c, 0, 92, 90
1, 78232, Note_on_c, 0, 69, 94
1, 78234, Note_on_c, 0, 57, 84
1, 78236, Note_on_c, 0, 63, 89
1, 78296, Note_off_c, 0, 92, 66
1, 78302, Note_off_c, 0, 57, 60
1, 78320, Note_off_c, 0, 69, 63
1, 78322, Note_off_c, 0, 63, 58
1, 78344, Note_on_c, 0, 88, 71
1, 78347, Note_on_c, 0, 59, 63
1, 78374, Note_off_c, 0, 88, 64
1, 78404, Note_off_c, 0, 59, 62
1, 78451, Note_on_c, 0, 61, 55
1, 78451, Note_on_c, 0, 86, 64
1, 78478, Note_off_c, 0, 86, 62
1, 78489, Note_off_c, 0, 61, 61
1, 78564, Note_on_c, 0, 84, 77
1, 78565, Note_on_c, 0, 91, 78
1, 78566, Note_on_c, 0, 87, 78
1, 78572, Note_on_c, 0, 65, 63
1, 78597, Note_off_c, 0, 87, 60
1, 78610, Note_off_c, 0, 91, 58
1, 78611, Note_off_c, 0, 84, 58
1, 78628, Note_off_c, 0, 65, 61
1, 78673, Note_on_c, 0, 68, 99
1, 78673, Note_on_c, 0, 95, 91
1, 78686, Note_on_c, 0, 62, 74
1, 78693, Note_on_c, 0, 56, 66
1, 78722, Note_off_c, 0, 62, 61
1, 78725, Note_off_c, 0, 56, 61
1, 78728, Note_off_c, 0, 95, 66
1, 78736, Note_off_c, 0, 68, 60
1, 78782, Note_on_c, 0, 93, 85
1, 78788, Note_on_c, 0, 61, 72
1, 78824, Note_off_c, 0, 93, 63
1, 78842, Note_off_c, 0, 61, 62
1, 78881, Note_on_c, 0, 89, 82
1, 78888, Note_on_c, 0, 65, 70
1, 78921, Note_off_c, 0, 89, 64
1, 78946, Note_off_c, 0, 65, 61
1, 78992, Note_on_c, 0, 63, 93
1, 78994, Note_on_c, 0, 69, 95
1, 78997, Note_on_c, 0, 92, 105
1, 78998, Note_on_c, 0, 85, 97
1, 79003, Note_on_c, 0, 57, 79
1, 79047, Note_off_c, 0, 57, 47
1, 79056, Note_off_c, 0, 85, 62
1, 79062, Note_off_c, 0, 63, 63
1, 79074, Note_off_c, 0, 92, 62
1, 79079, Note_off_c, 0, 69, 62
1, 79105, Note_on_c, 0, 96, 80
1, 79123, Note_on_c, 0, 61, 68
1, 79146, Note_off_c, 0, 96, 61
1, 79172, Note_off_c, 0, 61, 52
1, 79216, Note_on_c, 0, 94, 64
1, 79224, Note_on_c, 0, 65, 69
1, 79251, Note_off_c, 0, 65, 67
1, 79255, Note_off_c, 0, 94, 63
1, 79314, Note_on_c, 0, 67, 71
1, 79318, Note_on_c, 0, 93, 81
1, 79324, Note_on_c, 0, 91, 72
1, 79334, Note_on_c, 0, 86, 51
1, 79345, Note_off_c, 0, 67, 60
1, 79352, Note_off_c, 0, 91, 60
1, 79360, Note_off_c, 0, 86, 56
1, 79381, Note_off_c, 0, 93, 61
1, 79431, Note_on_c, 0, 68, 90
1, 79432, Note_on_c, 0, 97, 95
1, 79446, Note_on_c, 0, 58, 70
1, 79480, Note_off_c, 0, 58, 59
1, 79495, Note_off_c, 0, 97, 63
1, 79496, Note_off_c, 0, 68, 63
1, 79541, Note_on_c, 0, 62, 70
1, 79546, Note_on_c, 0, 95, 70
1, 79548, Note_on_c, 0, 96, 68
1, 79576, Note_off_c, 0, 96, 63
1, 79581, Note_off_c, 0, 95, 65
1, 79597, Note_off_c, 0, 62, 61
1, 79639, Note_on_c, 0, 91, 87
1, 79655, Note_on_c, 0, 64, 66
1, 79676, Note_on_c, 0, 94, 43
1, 79694, Note_off_c, 0, 91, 61
1, 79711, Note_off_c, 0, 64, 54
1, 79712, Note_off_c, 0, 94, 53
1, 79754, Note_on_c, 0, 94, 101
1, 79759, Note_on_c, 0, 66, 78
1, 79759, Note_on_c, 0, 87, 77
1, 79790, Note_off_c, 0, 87, 65
1, 79813, Note_off_c, 0, 66, 64
1, 79817, Note_off_c, 0, 94, 65
1, 79858, Note_on_c, 0, 98, 84
1, 79860, Note_on_c, 0, 70, 73
1, 79896, Note_off_c, 0, 70, 63
1, 79907, Note_off_c, 0, 98, 69
1, 79963, Note_on_c, 0, 67, 91
1, 79963, Note_on_c, 0, 96, 96
1, 79980, Note_on_c, 0, 59, 76
1, 80013, Note_off_c, 0, 67, 65
1, 80028, Note_off_c, 0, 96, 65
1, 80030, Note_off_c, 0, 59, 63
1, 80072, Note_on_c, 0, 92, 87
1, 80072, Note_on_c, 0, 95, 91
1, 80075, Note_on_c, 0, 62, 79
1, 80083, Note_on_c, 0, 88, 61
1, 80108, Note_off_c, 0, 88, 53
1, 80111, Note_off_c, 0, 92, 66
1, 80113, Note_off_c, 0, 95, 66
1, 80137, Note_off_c, 0, 62, 52
1, 80175, Note_on_c, 0, 99, 87
1, 80179, Note_on_c, 0, 64, 63
1, 80226, Note_off_c, 0, 99, 63
1, 80242, Note_off_c, 0, 64, 63
1, 80274, Note_on_c, 0, 97, 85
1, 80278, Note_on_c, 0, 68, 72
1, 80327, Note_off_c, 0, 68, 58
1, 80329, Note_off_c, 0, 97, 65
1, 80418, Note_on_c, 0, 96, 100
1, 80419, Note_on_c, 0, 89, 91
1, 80421, Note_on_c, 0, 69, 90
1, 80425, Note_on_c, 0, 60, 79
1, 80425, Note_on_c, 0, 93, 87
1, 80429, Control_c, 0, 64, 66
1, 80451, Control_c, 0, 64, 78
1, 80466, Control_c, 0, 64, 79
1, 80479, Note_off_c, 0, 60, 62
1, 80481, Note_off_c, 0, 69, 63
1, 80481, Control_c, 0, 64, 77
1, 80493, Note_off_c, 0, 93, 61
1, 80496, Control_c, 0, 64, 70
1, 80497, Note_off_c, 0, 89, 66
1, 80507, Note_off_c, 0, 96, 67
1, 80511, Control_c, 0, 64, 56
1, 80525, Control_c, 0, 64, 0
1, 80537, Note_on_c, 0, 62, 61
1, 80560, Note_on_c, 0, 99, 59
1, 80582, Note_off_c, 0, 62, 60
1, 80585, Note_off_c, 0, 99, 58
1, 80641, Note_on_c, 0, 97, 82
1, 80651, Note_on_c, 0, 64, 60
1, 80684, Note_off_c, 0, 64, 65
1, 80695, Note_off_c, 0, 97, 65
1, 80744, Note_on_c, 0, 94, 77
1, 80745, Note_on_c, 0, 96, 83
1, 80758, Note_on_c, 0, 68, 65
1, 80759, Note_on_c, 0, 90, 63
1, 80786, Note_off_c, 0, 94, 64
1, 80791, Note_off_c, 0, 90, 64
1, 80793, Note_off_c, 0, 96, 65
1, 80797, Note_off_c, 0, 68, 59
1, 80857, Note_on_c, 0, 100, 103
1, 80860, Note_on_c, 0, 70, 97
1, 80867, Note_on_c, 0, 61, 80
1, 80904, Note_off_c, 0, 70, 66
1, 80911, Note_off_c, 0, 61, 60
1, 80919, Note_off_c, 0, 100, 66
1, 80958, Note_on_c, 0, 98, 58
1, 80968, Note_on_c, 0, 63, 74
1, 81011, Note_off_c, 0, 98, 68
1, 81018, Note_off_c, 0, 63, 57
1, 81071, Note_on_c, 0, 96, 89
1, 81076, Note_on_c, 0, 67, 61
1, 81109, Note_off_c, 0, 67, 59
1, 81109, Note_off_c, 0, 96, 64
1, 81187, Note_on_c, 0, 95, 100
1, 81190, Note_on_c, 0, 91, 96
1, 81195, Note_on_c, 0, 71, 82
1, 81198, Note_on_c, 0, 62, 78
1, 81206, Note_on_c, 0, 93, 69
1, 81225, Note_on_c, 0, 97, 34
1, 81226, Note_off_c, 0, 93, 39
1, 81244, Control_c, 0, 64, 17
1, 81245, Note_off_c, 0, 71, 62
1, 81251, Note_off_c, 0, 91, 58
1, 81252, Note_off_c, 0, 62, 56
1, 81259, Note_off_c, 0, 95, 64
1, 81259, Control_c, 0, 64, 54
1, 81263, Note_off_c, 0, 97, 53
1, 81274, Control_c, 0, 64, 63
1, 81289, Control_c, 0, 64, 64
1, 81298, Note_on_c, 0, 63, 71
1, 81303, Note_on_c, 0, 100, 80
1, 81304, Control_c, 0, 64, 56
1, 81319, Control_c, 0, 64, 0
1, 81342, Note_off_c, 0, 63, 56
1, 81347, Note_off_c, 0, 100, 64
1, 81405, Note_on_c, 0, 67, 69
1, 81406, Note_on_c, 0, 98, 81
1, 81435, Note_off_c, 0, 67, 61
1, 81453, Note_off_c, 0, 98, 67
1, 81505, Note_on_c, 0, 96, 98
1, 81512, Note_on_c, 0, 69, 65
1, 81515, Note_on_c, 0, 92, 86
1, 81553, Note_off_c, 0, 96, 66
1, 81556, Note_off_c, 0, 69, 62
1, 81561, Note_off_c, 0, 92, 65
1, 81621, Note_on_c, 0, 101, 96
1, 81624, Note_on_c, 0, 72, 87
1, 81629, Control_c, 0, 64, 51
1, 81632, Note_on_c, 0, 64, 81
1, 81644, Control_c, 0, 64, 72
1, 81659, Control_c, 0, 64, 111
1, 81673, Note_off_c, 0, 72, 63
1, 81673, Control_c, 0, 64, 127
1, 81676, Note_off_c, 0, 101, 68
1, 81688, Note_off_c, 0, 64, 60
1, 81727, Note_on_c, 0, 66, 83
1, 81728, Note_on_c, 0, 99, 98
1, 81771, Note_off_c, 0, 99, 65
1, 81777, Note_off_c, 0, 66, 64
1, 81829, Note_on_c, 0, 68, 80
1, 81831, Note_on_c, 0, 97, 101
1, 81852, Control_c, 0, 64, 90
1, 81867, Control_c, 0, 64, 69
1, 81874, Note_off_c, 0, 97, 65
1, 81877, Note_off_c, 0, 68, 63
1, 81882, Control_c, 0, 64, 45
1, 81897, Control_c, 0, 64, 0
1, 81943, Note_on_c, 0, 72, 83
1, 81948, Note_on_c, 0, 96, 100
1, 81949, Note_on_c, 0, 98, 101
1, 81950, Note_on_c, 0, 93, 96
1, 81978, Control_c, 0, 64, 44
1, 81992, Control_c, 0, 64, 65
1, 81995, Note_off_c, 0, 72, 66
1, 82003, Note_off_c, 0, 96, 63
1, 82007, Control_c, 0, 64, 68
1, 82009, Note_off_c, 0, 93, 58
1, 82015, Note_off_c, 0, 98, 67
1, 82022, Control_c, 0, 64, 62
1, 82037, Control_c, 0, 64, 0
1, 82049, Note_on_c, 0, 103, 81
1, 82052, Note_on_c, 0, 74, 71
1, 82055, Note_on_c, 0, 101, 70
1, 82079, Note_off_c, 0, 101, 69
1, 82079, Note_off_c, 0, 103, 62
1, 82085, Note_off_c, 0, 74, 62
1, 82159, Note_on_c, 0, 97, 97
1, 82159, Note_on_c, 0, 99, 98
1, 82169, Note_on_c, 0, 94, 90
1, 82171, Note_on_c, 0, 102, 78
1, 82173, Note_on_c, 0, 73, 90
1, 82180, Note_on_c, 0, 65, 77
1, 82185, Control_c, 0, 64, 56
1, 82191, Note_off_c, 0, 102, 67
1, 82200, Control_c, 0, 64, 72
1, 82215, Control_c, 0, 64, 127
1, 82225, Note_off_c, 0, 97, 64
1, 82228, Note_off_c, 0, 65, 58
1, 82231, Note_off_c, 0, 94, 65
1, 82237, Note_off_c, 0, 99, 65
1, 82264, Note_off_c, 0, 73, 46
1, 82279, Note_on_c, 0, 103, 78
1, 82282, Note_on_c, 0, 67, 65
1, 82329, Note_off_c, 0, 103, 61
1, 82333, Note_off_c, 0, 67, 61
1, 82381, Note_on_c, 0, 101, 73
1, 82390, Note_on_c, 0, 69, 72
1, 82415, Note_off_c, 0, 101, 65
1, 82438, Note_off_c, 0, 69, 65
1, 82466, Control_c, 0, 64, 79
1, 82481, Control_c, 0, 64, 57
1, 82483, Note_on_c, 0, 100, 103
1, 82490, Note_on_c, 0, 98, 86
1, 82490, Note_on_c, 0, 95, 81
1, 82496, Control_c, 0, 64, 0
1, 82499, Note_on_c, 0, 73, 80
1, 82518, Note_off_c, 0, 98, 65
1, 82530, Note_off_c, 0, 95, 61
1, 82530, Note_off_c, 0, 100, 65
1, 82554, Note_off_c, 0, 73, 59
1, 82605, Note_on_c, 0, 103, 103
1, 82615, Note_on_c, 0, 66, 84
1, 82620, Note_on_c, 0, 74, 87
1, 82625, Note_on_c, 0, 72, 81
1, 82645, Control_c, 0, 64, 58
1, 82657, Note_off_c, 0, 103, 64
1, 82660, Control_c, 0, 64, 68
1, 82660, Note_off_c, 0, 72, 57
1, 82669, Note_off_c, 0, 66, 65
1, 82670, Note_off_c, 0, 74, 64
1, 82682, Control_c, 0, 64, 81
1, 82698, Control_c, 0, 64, 127
1, 82720, Note_on_c, 0, 101, 93
1, 82740, Note_on_c, 0, 67, 74
1, 82767, Note_off_c, 0, 101, 67
1, 82802, Note_off_c, 0, 67, 58
1, 82819, Note_on_c, 0, 99, 98
1, 82839, Note_on_c, 0, 69, 69
1, 82866, Note_off_c, 0, 99, 66
1, 82875, Control_c, 0, 64, 84
1, 82890, Control_c, 0, 64, 53
1, 82905, Control_c, 0, 64, 0
1, 82927, Note_off_c, 0, 69, 36
1, 82934, Note_on_c, 0, 100, 113
1, 82935, Note_on_c, 0, 75, 99
1, 82937, Note_on_c, 0, 96, 99
1, 82943, Note_on_c, 0, 65, 79
1, 82946, Note_on_c, 0, 73, 77
1, 82964, Control_c, 0, 64, 24
1, 82979, Control_c, 0, 64, 65
1, 82980, Note_off_c, 0, 96, 59
1, 82991, Note_off_c, 0, 73, 50
1, 82994, Control_c, 0, 64, 80
1, 83006, Note_off_c, 0, 100, 63
1, 83009, Control_c, 0, 64, 127
1, 83012, Note_off_c, 0, 65, 59
1, 83015, Note_off_c, 0, 75, 64
1, 83043, Note_on_c, 0, 67, 71
1, 83044, Note_on_c, 0, 103, 83
1, 83095, Note_off_c, 0, 103, 61
1, 83098, Note_off_c, 0, 67, 60
1, 83127, Control_c, 0, 64, 92
1, 83142, Control_c, 0, 64, 69
1, 83149, Note_on_c, 0, 101, 79
1, 83157, Control_c, 0, 64, 47
1, 83163, Note_on_c, 0, 69, 61
1, 83172, Control_c, 0, 64, 0
1, 83193, Note_off_c, 0, 69, 62
1, 83193, Note_off_c, 0, 101, 66
1, 83251, Note_on_c, 0, 100, 91
1, 83256, Note_on_c, 0, 73, 73
1, 83264, Note_on_c, 0, 97, 79
1, 83298, Note_off_c, 0, 100, 64
1, 83302, Note_off_c, 0, 97, 62
1, 83307, Note_off_c, 0, 73, 62
1, 83364, Control_c, 0, 64, 67
1, 83365, Note_on_c, 0, 76, 98
1, 83366, Note_on_c, 0, 104, 102
1, 83367, Note_on_c, 0, 74, 96
1, 83367, Note_on_c, 0, 66, 94
1, 83379, Control_c, 0, 64, 127
1, 83438, Note_off_c, 0, 104, 62
1, 83453, Note_off_c, 0, 74, 55
1, 83459, Note_off_c, 0, 76, 56
1, 83480, Note_on_c, 0, 102, 92
1, 83486, Note_on_c, 0, 68, 76
1, 83490, Note_off_c, 0, 66, 40
1, 83533, Note_off_c, 0, 102, 65
1, 83542, Note_off_c, 0, 68, 61
1, 83579, Note_on_c, 0, 70, 73
1, 83583, Note_on_c, 0, 100, 91
1, 83626, Note_off_c, 0, 70, 61
1, 83631, Note_off_c, 0, 100, 65
1, 83653, Control_c, 0, 64, 89
1, 83668, Control_c, 0, 64, 62
1, 83683, Control_c, 0, 64, 0
1, 83686, Note_on_c, 0, 74, 79
1, 83692, Note_on_c, 0, 98, 89
1, 83693, Note_on_c, 0, 101, 99
1, 83733, Note_off_c, 0, 74, 67
1, 83745, Note_off_c, 0, 98, 65
1, 83746, Note_off_c, 0, 101, 66
1, 83797, Note_on_c, 0, 76, 85
1, 83798, Note_on_c, 0, 104, 87
1, 83839, Note_off_c, 0, 104, 62
1, 83839, Note_off_c, 0, 76, 65
1, 83912, Note_on_c, 0, 102, 103
1, 83931, Note_on_c, 0, 69, 73
1, 83935, Control_c, 0, 64, 57
1, 83949, Note_on_c, 0, 75, 68
1, 83950, Control_c, 0, 64, 86
1, 83965, Control_c, 0, 64, 127
1, 83972, Note_off_c, 0, 75, 68
1, 83981, Note_off_c, 0, 69, 64
1, 83985, Note_on_c, 0, 67, 15
1, 83987, Note_off_c, 0, 102, 65
1, 84025, Note_on_c, 0, 101, 95
1, 84034, Note_off_c, 0, 67, 51
1, 84034, Note_on_c, 0, 99, 86
1, 84040, Note_on_c, 0, 69, 71
1, 84061, Note_off_c, 0, 99, 64
1, 84074, Note_off_c, 0, 101, 66
1, 84097, Note_off_c, 0, 69, 62
1, 84129, Note_on_c, 0, 105, 93
1, 84141, Note_on_c, 0, 71, 72
1, 84192, Note_off_c, 0, 105, 64
1, 84217, Note_off_c, 0, 71, 61
1, 84242, Note_on_c, 0, 103, 96
1, 84246, Note_on_c, 0, 75, 81
1, 84282, Note_off_c, 0, 103, 64
1, 84285, Note_off_c, 0, 75, 66
1, 84314, Control_c, 0, 64, 68
1, 84329, Control_c, 0, 64, 0
1, 84351, Note_on_c, 0, 66, 97
1, 84353, Note_on_c, 0, 76, 103
1, 84356, Note_on_c, 0, 102, 104
1, 84357, Note_on_c, 0, 100, 98
1, 84359, Note_on_c, 0, 72, 85
1, 84373, Control_c, 0, 64, 35
1, 84388, Control_c, 0, 64, 65
1, 84395, Note_on_c, 0, 103, 50
1, 84403, Control_c, 0, 64, 93
1, 84405, Note_off_c, 0, 66, 61
1, 84410, Note_off_c, 0, 100, 64
1, 84411, Note_off_c, 0, 102, 61
1, 84415, Note_off_c, 0, 72, 61
1, 84418, Control_c, 0, 64, 127
1, 84422, Note_off_c, 0, 76, 50
1, 84424, Note_off_c, 0, 103, 47
1, 84464, Note_on_c, 0, 106, 92
1, 84471, Note_on_c, 0, 68, 82
1, 84514, Note_off_c, 0, 106, 65
1, 84525, Note_off_c, 0, 68, 60
1, 84564, Note_on_c, 0, 104, 93
1, 84569, Note_on_c, 0, 72, 72
1, 84613, Note_off_c, 0, 104, 64
1, 84616, Note_off_c, 0, 72, 61
1, 84672, Note_on_c, 0, 74, 65
1, 84675, Note_on_c, 0, 107, 101
1, 84681, Note_on_c, 0, 103, 93
1, 84686, Note_on_c, 0, 99, 84
1, 84704, Note_off_c, 0, 74, 65
1, 84720, Note_off_c, 0, 103, 64
1, 84729, Control_c, 0, 64, 92
1, 84731, Note_off_c, 0, 99, 59
1, 84736, Note_off_c, 0, 107, 65
1, 84744, Control_c, 0, 64, 65
1, 84758, Control_c, 0, 64, 12
1, 84773, Control_c, 0, 64, 0
1, 84786, Note_on_c, 0, 77, 93
1, 84788, Note_on_c, 0, 67, 77
1, 84791, Note_on_c, 0, 106, 106
1, 84795, Note_on_c, 0, 71, 73
1, 84802, Note_on_c, 0, 70, 69
1, 84802, Control_c, 0, 64, 61
1, 84817, Control_c, 0, 64, 77
1, 84820, Note_off_c, 0, 70, 68
1, 84831, Note_off_c, 0, 67, 61
1, 84832, Control_c, 0, 64, 127
1, 84851, Note_off_c, 0, 71, 58
1, 84855, Note_off_c, 0, 106, 66
1, 84857, Note_off_c, 0, 77, 54
1, 84897, Note_on_c, 0, 104, 99
1, 84911, Note_on_c, 0, 69, 69
1, 84954, Note_off_c, 0, 104, 63
1, 84964, Note_off_c, 0, 69, 61
1, 85008, Note_on_c, 0, 102, 101
1, 85019, Note_on_c, 0, 73, 72
1, 85055, Note_off_c, 0, 102, 67
1, 85063, Control_c, 0, 64, 100
1, 85068, Note_off_c, 0, 73, 57
1, 85078, Control_c, 0, 64, 63
1, 85093, Control_c, 0, 64, 0
1, 85117, Note_on_c, 0, 104, 107
1, 85118, Note_on_c, 0, 78, 104
1, 85124, Note_on_c, 0, 100, 97
1, 85125, Note_on_c, 0, 72, 84
1, 85126, Note_on_c, 0, 68, 84
1, 85137, Control_c, 0, 64, 53
1, 85152, Control_c, 0, 64, 75
1, 85167, Control_c, 0, 64, 127
1, 85176, Note_off_c, 0, 68, 57
1, 85191, Note_off_c, 0, 100, 63
1, 85191, Note_off_c, 0, 104, 62
1, 85195, Note_off_c, 0, 78, 60
1, 85203, Note_off_c, 0, 72, 60
1, 85231, Note_on_c, 0, 108, 85
1, 85244, Note_on_c, 0, 70, 77
1, 85283, Note_off_c, 0, 108, 61
1, 85298, Note_off_c, 0, 70, 61
1, 85336, Note_on_c, 0, 106, 93
1, 85343, Note_on_c, 0, 72, 60
1, 85374, Note_off_c, 0, 72, 65
1, 85386, Note_off_c, 0, 106, 65
1, 85440, Note_on_c, 0, 104, 104
1, 85444, Note_on_c, 0, 74, 71
1, 85450, Note_on_c, 0, 101, 76
1, 85489, Note_off_c, 0, 101, 63
1, 85494, Note_off_c, 0, 104, 63
1, 85497, Note_off_c, 0, 74, 65
1, 85551, Note_on_c, 0, 77, 95
1, 85552, Note_on_c, 0, 108, 98
1, 85554, Note_on_c, 0, 69, 85
1, 85557, Note_on_c, 0, 73, 89
1, 85581, Control_c, 0, 64, 99
1, 85596, Control_c, 0, 64, 84
1, 85597, Note_off_c, 0, 69, 66
1, 85611, Control_c, 0, 64, 74
1, 85612, Note_off_c, 0, 108, 62
1, 85614, Note_off_c, 0, 77, 60
1, 85617, Note_off_c, 0, 73, 62
1, 85625, Control_c, 0, 64, 65
1, 85640, Control_c, 0, 64, 55
1, 85655, Control_c, 0, 64, 0
1, 85657, Note_on_c, 0, 76, 83
1, 85658, Note_on_c, 0, 106, 94
1, 85705, Note_off_c, 0, 76, 66
1, 85710, Note_off_c, 0, 106, 65
1, 85771, Note_on_c, 0, 78, 109
1, 85775, Note_on_c, 0, 104, 105
1, 85778, Note_on_c, 0, 70, 89
1, 85783, Note_on_c, 0, 75, 84
1, 85796, Control_c, 0, 64, 52
1, 85811, Control_c, 0, 64, 70
1, 85826, Control_c, 0, 64, 127
1, 85842, Note_off_c, 0, 104, 63
1, 85846, Note_off_c, 0, 70, 62
1, 85846, Note_off_c, 0, 78, 65
1, 85853, Note_off_c, 0, 75, 63
1, 85891, Note_on_c, 0, 105, 92
1, 85903, Note_on_c, 0, 102, 69
1, 85913, Note_on_c, 0, 73, 72
1, 85923, Note_on_c, 0, 106, 40
1, 85924, Note_off_c, 0, 106, 127
1, 85931, Note_off_c, 0, 102, 67
1, 85940, Note_off_c, 0, 105, 65
1, 85952, Note_off_c, 0, 73, 55
1, 85993, Note_on_c, 0, 108, 93
1, 86001, Note_on_c, 0, 77, 66
1, 86009, Note_on_c, 0, 76, 67
1, 86028, Note_off_c, 0, 76, 67
1, 86036, Note_off_c, 0, 77, 63
1, 86049, Note_off_c, 0, 108, 63
1, 86078, Control_c, 0, 64, 75
1, 86093, Control_c, 0, 64, 54
1, 86101, Note_on_c, 0, 106, 107
1, 86105, Note_on_c, 0, 103, 103
1, 86108, Control_c, 0, 64, 0
1, 86110, Note_on_c, 0, 79, 104
1, 86112, Note_on_c, 0, 75, 95
1, 86115, Note_on_c, 0, 71, 88
1, 86152, Control_c, 0, 64, 60
1, 86164, Note_off_c, 0, 103, 59
1, 86167, Control_c, 0, 64, 81
1, 86173, Note_off_c, 0, 75, 64
1, 86182, Control_c, 0, 64, 127
1, 86183, Note_off_c, 0, 106, 65
1, 86190, Note_off_c, 0, 71, 50
1, 86191, Note_off_c, 0, 79, 57
1, 86216, Note_on_c, 0, 108, 88
1, 86229, Note_on_c, 0, 73, 73
1, 86267, Note_off_c, 0, 108, 63
1, 86309, Note_off_c, 0, 73, 59
1, 86318, Note_on_c, 0, 106, 98
1, 86329, Note_on_c, 0, 77, 70
1, 86364, Note_off_c, 0, 106, 65
1, 86374, Note_off_c, 0, 77, 60
1, 86433, Note_on_c, 0, 104, 102
1, 86434, Note_on_c, 0, 79, 81
1, 86434, Note_on_c, 0, 108, 102
1, 86477, Note_off_c, 0, 79, 63
1, 86491, Note_off_c, 0, 108, 62
1, 86497, Note_off_c, 0, 104, 62
1, 86547, Note_on_c, 0, 106, 113
1, 86559, Note_on_c, 0, 70, 75
1, 86559, Note_on_c, 0, 80, 96
1, 86565, Note_on_c, 0, 76, 76
1, 86595, Note_off_c, 0, 76, 65
1, 86609, Note_off_c, 0, 106, 65
1, 86621, Note_off_c, 0, 80, 65
1, 86625, Note_off_c, 0, 70, 62
1, 86653, Note_on_c, 0, 108, 84
1, 86655, Note_on_c, 0, 105, 104
1, 86659, Note_on_c, 0, 101, 87
1, 86672, Note_on_c, 0, 73, 73
1, 86675, Note_on_c, 0, 107, 58
1, 86699, Note_off_c, 0, 107, 59
1, 86705, Note_off_c, 0, 101, 56
1, 86711, Note_off_c, 0, 105, 64
1, 86714, Note_off_c, 0, 108, 61
1, 86747, Note_off_c, 0, 73, 46
1, 86765, Note_on_c, 0, 106, 99
1, 86776, Note_on_c, 0, 77, 85
1, 86808, Note_off_c, 0, 106, 66
1, 86820, Note_off_c, 0, 77, 61
1, 86886, Control_c, 0, 64, 83
1, 86901, Control_c, 0, 64, 64
1, 86916, Control_c, 0, 64, 17
1, 86931, Control_c, 0, 64, 0
1, 86939, Note_on_c, 0, 108, 109
1, 86944, Note_on_c, 0, 107, 99
1, 86948, Note_on_c, 0, 78, 82
1, 86951, Note_on_c, 0, 75, 69
1, 86954, Note_on_c, 0, 71, 69
1, 86990, Control_c, 0, 64, 61
1, 87004, Control_c, 0, 64, 77
1, 87012, Note_off_c, 0, 78, 61
1, 87015, Note_off_c, 0, 75, 65
1, 87019, Control_c, 0, 64, 127
1, 87021, Note_off_c, 0, 71, 59
1, 87056, Note_off_c, 0, 108, 58
1, 87060, Note_on_c, 0, 106, 83
1, 87060, Note_off_c, 0, 107, 62
1, 87061, Note_on_c, 0, 79, 68
1, 87102, Note_off_c, 0, 106, 64
1, 87121, Note_off_c, 0, 79, 61
1, 87187, Note_on_c, 0, 104, 112
1, 87191, Note_on_c, 0, 72, 69
1, 87194, Note_on_c, 0, 76, 72
1, 87197, Note_on_c, 0, 80, 68
1, 87199, Note_on_c, 0, 103, 90
1, 87203, Note_on_c, 0, 108, 75
1, 87215, Note_off_c, 0, 103, 63
1, 87221, Note_off_c, 0, 108, 66
1, 87244, Note_off_c, 0, 104, 61
1, 87253, Note_off_c, 0, 72, 61
1, 87263, Note_off_c, 0, 76, 64
1, 87266, Note_off_c, 0, 80, 61
1, 87309, Note_on_c, 0, 81, 79
1, 87316, Note_on_c, 0, 108, 113
1, 87321, Note_on_c, 0, 105, 111
1, 87330, Note_on_c, 0, 103, 89
1, 87349, Note_off_c, 0, 103, 70
1, 87370, Note_off_c, 0, 81, 60
1, 87385, Note_off_c, 0, 105, 60
1, 87394, Note_off_c, 0, 108, 62
1, 87430, Note_on_c, 0, 106, 99
1, 87434, Note_on_c, 0, 73, 63
1, 87436, Note_on_c, 0, 82, 61
1, 87444, Note_on_c, 0, 78, 65
1, 87479, Note_off_c, 0, 106, 65
1, 87483, Note_off_c, 0, 78, 60
1, 87494, Note_off_c, 0, 73, 62
1, 87497, Note_off_c, 0, 82, 61
1, 87537, Note_on_c, 0, 83, 81
1, 87541, Note_on_c, 0, 108, 119
1, 87543, Note_on_c, 0, 100, 105
1, 87544, Note_on_c, 0, 104, 110
1, 87564, Note_on_c, 0, 107, 56
1, 87585, Note_off_c, 0, 107, 63
1, 87595, Note_off_c, 0, 83, 62
1, 87608, Note_off_c, 0, 108, 62
1, 87612, Note_off_c, 0, 100, 63
1, 87615, Note_off_c, 0, 104, 65
1, 87653, Note_on_c, 0, 84, 76
1, 87655, Note_on_c, 0, 106, 102
1, 87684, Note_on_c, 0, 80, 15
1, 87699, Note_off_c, 0, 84, 64
1, 87703, Note_on_c, 0, 81, 32
1, 87703, Note_off_c, 0, 106, 66
1, 87728, Note_off_c, 0, 80, 52
1, 87738, Note_off_c, 0, 81, 49
1, 87761, Note_on_c, 0, 108, 118
1, 87764, Note_on_c, 0, 101, 107
1, 87764, Note_on_c, 0, 105, 103
1, 87766, Note_on_c, 0, 78, 88
1, 87826, Note_off_c, 0, 78, 63
1, 87832, Note_off_c, 0, 105, 66
1, 87832, Note_off_c, 0, 101, 66
1, 87835, Note_off_c, 0, 108, 63
1, 87868, Note_on_c, 0, 106, 94
1, 87888, Note_on_c, 0, 82, 63
1, 87933, Note_off_c, 0, 106, 66
1, 87939, Note_off_c, 0, 82, 58
1, 87957, Poly_aftertouch_c, 0, 81, 127
1, 87983, Control_c, 0, 64, 118
1, 87992, Poly_aftertouch_c, 0, 81, 0
1, 87993, Note_on_c, 0, 108, 115
1, 87998, Control_c, 0, 64, 67
1, 88000, Note_on_c, 0, 86, 102
1, 88003, Note_on_c, 0, 81, 66
1, 88005, Note_on_c, 0, 76, 79
1, 88008, Note_on_c, 0, 107, 81
1, 88013, Control_c, 0, 64, 0
1, 88023, Note_off_c, 0, 107, 67
1, 88045, Note_on_c, 0, 79, 34
1, 88056, Note_off_c, 0, 108, 64
1, 88057, Control_c, 0, 64, 48
1, 88072, Control_c, 0, 64, 70
1, 88073, Note_off_c, 0, 76, 65
1, 88078, Note_off_c, 0, 79, 33
1, 88086, Note_off_c, 0, 86, 66
1, 88087, Control_c, 0, 64, 127
1, 88098, Note_on_c, 0, 107, 94
1, 88102, Note_on_c, 0, 105, 98
1, 88106, Note_on_c, 0, 103, 87
1, 88124, Note_on_c, 0, 79, 68
1, 88130, Note_off_c, 0, 103, 57
1, 88140, Note_off_c, 0, 105, 65
1, 88160, Note_off_c, 0, 107, 64
1, 88181, Note_off_c, 0, 81, 34
1, 88206, Note_off_c, 0, 79, 59
1, 88215, Note_on_c, 0, 83, 76
1, 88220, Note_on_c, 0, 108, 86
1, 88269, Note_off_c, 0, 83, 59
1, 88275, Note_off_c, 0, 108, 61
1, 88318, Note_on_c, 0, 106, 95
1, 88319, Note_on_c, 0, 85, 84
1, 88366, Note_off_c, 0, 106, 66
1, 88369, Note_off_c, 0, 85, 64
1, 88413, Control_c, 0, 64, 85
1, 88428, Control_c, 0, 64, 53
1, 88436, Note_on_c, 0, 107, 106
1, 88437, Note_on_c, 0, 108, 108
1, 88443, Control_c, 0, 64, 0
1, 88444, Note_on_c, 0, 86, 99
1, 88446, Note_on_c, 0, 77, 97
1, 88446, Note_on_c, 0, 84, 100
1, 88488, Control_c, 0, 64, 56
1, 88503, Control_c, 0, 64, 75
1, 88517, Control_c, 0, 64, 127
1, 88521, Note_off_c, 0, 84, 58
1, 88527, Note_off_c, 0, 107, 63
1, 88532, Note_off_c, 0, 77, 57
1, 88534, Note_off_c, 0, 86, 56
1, 88535, Note_off_c, 0, 108, 53
1, 88544, Note_on_c, 0, 79, 54
1, 88554, Note_on_c, 0, 106, 92
1, 88603, Note_off_c, 0, 106, 65
1, 88613, Note_off_c, 0, 79, 61
1, 88658, Note_on_c, 0, 108, 89
1, 88676, Note_on_c, 0, 81, 79
1, 88720, Note_off_c, 0, 108, 62
1, 88732, Note_off_c, 0, 81, 57
1, 88777, Note_on_c, 0, 107, 105
1, 88780, Note_on_c, 0, 85, 79
1, 88782, Note_on_c, 0, 105, 95
1, 88830, Note_off_c, 0, 105, 63
1, 88841, Note_off_c, 0, 107, 65
1, 88843, Note_off_c, 0, 85, 63
1, 88883, Note_on_c, 0, 87, 100
1, 88891, Note_on_c, 0, 78, 89
1, 88893, Note_on_c, 0, 108, 107
1, 88946, Note_off_c, 0, 87, 61
1, 88950, Note_off_c, 0, 78, 60
1, 88959, Note_off_c, 0, 108, 63
1, 89001, Note_on_c, 0, 107, 103
1, 89002, Note_on_c, 0, 80, 76
1, 89045, Note_off_c, 0, 107, 65
1, 89087, Note_off_c, 0, 80, 60
1, 89093, Note_on_c, 0, 84, 76
1, 89103, Control_c, 0, 64, 92
1, 89108, Note_on_c, 0, 108, 92
1, 89118, Control_c, 0, 64, 62
1, 89133, Control_c, 0, 64, 0
1, 89153, Note_off_c, 0, 108, 63
1, 89156, Note_off_c, 0, 84, 61
1, 89206, Control_c, 0, 64, 65
1, 89209, Note_on_c, 0, 88, 95
1, 89210, Note_on_c, 0, 106, 107
1, 89212, Note_on_c, 0, 79, 76
1, 89214, Note_on_c, 0, 83, 79
1, 89218, Note_on_c, 0, 105, 98
1, 89221, Control_c, 0, 64, 77
1, 89236, Control_c, 0, 64, 75
1, 89251, Control_c, 0, 64, 61
1, 89260, Note_off_c, 0, 105, 65
1, 89266, Control_c, 0, 64, 0
1, 89270, Note_off_c, 0, 106, 65
1, 89278, Note_off_c, 0, 88, 56
1, 89284, Note_off_c, 0, 79, 58
1, 89320, Note_on_c, 0, 81, 57
1, 89321, Note_on_c, 0, 108, 97
1, 89335, Note_off_c, 0, 83, 61
1, 89367, Note_off_c, 0, 81, 60
1, 89370, Note_off_c, 0, 108, 63
1, 89422, Control_c, 0, 64, 36
1, 89434, Note_on_c, 0, 85, 92
1, 89436, Note_on_c, 0, 107, 113
1, 89437, Note_on_c, 0, 89, 105
1, 89437, Control_c, 0, 64, 67
1, 89439, Note_on_c, 0, 78, 97
1, 89452, Control_c, 0, 64, 127
1, 89455, Note_on_c, 0, 108, 78
1, 89465, Note_on_c, 0, 106, 42
1, 89466, Note_off_c, 0, 106, 127
1, 89479, Note_off_c, 0, 108, 66
1, 89493, Note_on_c, 0, 80, 11
1, 89498, Note_off_c, 0, 107, 67
1, 89505, Note_off_c, 0, 89, 67
1, 89520, Note_off_c, 0, 78, 56
1, 89533, Note_off_c, 0, 85, 53
1, 89549, Note_on_c, 0, 108, 96
1, 89552, Note_off_c, 0, 80, 0
1, 89552, Note_on_c, 0, 80, 47
1, 89570, Note_on_c, 0, 104, 50
1, 89571, Note_off_c, 0, 104, 127
1, 89572, Note_on_c, 0, 105, 66
1, 89585, Note_on_c, 0, 107, 31
1, 89592, Note_off_c, 0, 105, 65
1, 89606, Note_off_c, 0, 108, 62
1, 89615, Note_off_c, 0, 107, 33
1, 89621, Note_off_c, 0, 80, 60
1, 89659, Note_on_c, 0, 84, 68
1, 89665, Note_on_c, 0, 105, 111
1, 89711, Note_off_c, 0, 105, 67
1, 89749, Note_off_c, 0, 84, 62
1, 89763, Note_on_c, 0, 108, 100
1, 89767, Note_on_c, 0, 85, 83
1, 89830, Note_off_c, 0, 108, 62
1, 89841, Note_off_c, 0, 85, 61
1, 89871, Note_on_c, 0, 106, 107
1, 89876, Note_on_c, 0, 90, 106
1, 89879, Note_on_c, 0, 79, 89
1, 89906, Note_on_c, 0, 80, 54
1, 89927, Note_off_c, 0, 106, 66
1, 89929, Note_off_c, 0, 80, 37
1, 89939, Note_off_c, 0, 79, 64
1, 89948, Note_off_c, 0, 90, 64
1, 89985, Note_on_c, 0, 105, 101
1, 89987, Note_on_c, 0, 107, 99
1, 89987, Note_on_c, 0, 81, 78
1, 90023, Note_off_c, 0, 105, 64
1, 90033, Note_off_c, 0, 107, 66
1, 90042, Note_off_c, 0, 81, 58
1, 90089, Note_on_c, 0, 85, 83
1, 90089, Note_on_c, 0, 108, 97
1, 90089, Control_c, 0, 64, 83
1, 90104, Control_c, 0, 64, 61
1, 90119, Control_c, 0, 64, 0
1, 90141, Note_off_c, 0, 108, 63
1, 90145, Note_off_c, 0, 85, 64
1, 90198, Note_on_c, 0, 106, 111
1, 90200, Note_on_c, 0, 91, 111
1, 90200, Control_c, 0, 64, 47
1, 90202, Note_on_c, 0, 80, 95
1, 90215, Control_c, 0, 64, 68
1, 90217, Note_on_c, 0, 107, 95
1, 90229, Control_c, 0, 64, 108
1, 90244, Control_c, 0, 64, 127
1, 90273, Note_off_c, 0, 80, 56
1, 90273, Note_off_c, 0, 91, 55
1, 90273, Note_off_c, 0, 107, 64
1, 90280, Note_off_c, 0, 106, 63
1, 90317, Note_on_c, 0, 108, 89
1, 90323, Note_on_c, 0, 82, 66
1, 90375, Note_off_c, 0, 108, 61
1, 90381, Note_off_c, 0, 82, 64
1, 90422, Note_on_c, 0, 106, 104
1, 90422, Control_c, 0, 64, 109
1, 90433, Note_on_c, 0, 86, 80
1, 90437, Control_c, 0, 64, 69
1, 90452, Control_c, 0, 64, 45
1, 90467, Control_c, 0, 64, 0
1, 90471, Note_off_c, 0, 106, 68
1, 90488, Note_off_c, 0, 86, 63
1, 90511, Control_c, 0, 64, 45
1, 90526, Control_c, 0, 64, 70
1, 90533, Note_on_c, 0, 107, 108
1, 90534, Note_on_c, 0, 108, 108
1, 90536, Note_on_c, 0, 88, 90
1, 90536, Note_on_c, 0, 105, 107
1, 90541, Control_c, 0, 64, 127
1, 90600, Note_off_c, 0, 105, 61
1, 90613, Note_off_c, 0, 88, 65
1, 90618, Note_off_c, 0, 107, 65
1, 90648, Note_on_c, 0, 106, 104
1, 90651, Note_on_c, 0, 92, 103
1, 90653, Note_on_c, 0, 81, 84
1, 90677, Note_off_c, 0, 108, 31
1, 90704, Note_off_c, 0, 106, 65
1, 90707, Note_off_c, 0, 81, 60
1, 90718, Note_off_c, 0, 92, 66
1, 90756, Note_on_c, 0, 105, 95
1, 90757, Note_on_c, 0, 107, 104
1, 90761, Note_on_c, 0, 83, 82
1, 90798, Note_off_c, 0, 105, 65
1, 90809, Note_off_c, 0, 107, 64
1, 90852, Note_on_c, 0, 108, 97
1, 90854, Note_on_c, 0, 87, 89
1, 90858, Note_off_c, 0, 83, 35
1, 90864, Note_on_c, 0, 106, 81
1, 90891, Note_off_c, 0, 106, 64
1, 90897, Control_c, 0, 64, 71
1, 90903, Note_off_c, 0, 108, 63
1, 90919, Control_c, 0, 64, 0
1, 90926, Note_off_c, 0, 87, 62
1, 90965, Note_on_c, 0, 104, 114
1, 90967, Note_on_c, 0, 93, 111
1, 90967, Note_on_c, 0, 107, 113
1, 90968, Note_on_c, 0, 85, 95
1, 90970, Note_on_c, 0, 82, 90
1, 90972, Note_on_c, 0, 106, 83
1, 90978, Control_c, 0, 64, 64
1, 90987, Note_on_c, 0, 103, 70
1, 90987, Note_on_c, 0, 108, 54
1, 90993, Control_c, 0, 64, 98
1, 91004, Note_off_c, 0, 103, 64
1, 91008, Control_c, 0, 64, 127
1, 91010, Note_off_c, 0, 106, 0
1, 91010, Note_on_c, 0, 106, 35
1, 91011, Note_off_c, 0, 108, 59
1, 91018, Note_off_c, 0, 104, 60
1, 91030, Note_off_c, 0, 107, 65
1, 91036, Note_off_c, 0, 82, 60
1, 91039, Note_off_c, 0, 106, 57
1, 91042, Note_off_c, 0, 93, 58
1, 91075, Note_on_c, 0, 108, 97
1, 91083, Note_on_c, 0, 87, 81
1, 91086, Note_on_c, 0, 106, 92
1, 91102, Note_off_c, 0, 85, 62
1, 91132, Note_off_c, 0, 108, 63
1, 91135, Note_off_c, 0, 106, 64
1, 91142, Note_off_c, 0, 87, 63
1, 91176, Note_on_c, 0, 106, 94
1, 91192, Note_on_c, 0, 91, 83
1, 91231, Note_off_c, 0, 106, 65
1, 91245, Note_off_c, 0, 91, 63
1, 91293, Note_on_c, 0, 108, 105
1, 91299, Note_on_c, 0, 104, 104
1, 91302, Note_on_c, 0, 86, 80
1, 91311, Note_on_c, 0, 106, 77
1, 91334, Note_off_c, 0, 106, 69
1, 91349, Note_off_c, 0, 104, 61
1, 91358, Note_off_c, 0, 108, 62
1, 91373, Note_off_c, 0, 86, 61
1, 91402, Note_on_c, 0, 106, 100
1, 91413, Note_on_c, 0, 88, 83
1, 91459, Note_off_c, 0, 106, 66
1, 91505, Note_on_c, 0, 90, 92
1, 91510, Note_on_c, 0, 104, 108
1, 91513, Note_off_c, 0, 88, 59
1, 91563, Note_off_c, 0, 104, 64
1, 91585, Note_off_c, 0, 90, 63
1, 91587, Control_c, 0, 64, 100
1, 91601, Control_c, 0, 64, 65
1, 91615, Note_on_c, 0, 106, 105
1, 91616, Control_c, 0, 64, 0
1, 91618, Note_on_c, 0, 94, 106
1, 91630, Note_on_c, 0, 86, 85
1, 91634, Note_on_c, 0, 83, 75
1, 91661, Control_c, 0, 64, 40
1, 91683, Control_c, 0, 64, 69
1, 91686, Note_off_c, 0, 106, 65
1, 91698, Control_c, 0, 64, 127
1, 91708, Note_off_c, 0, 83, 58
1, 91724, Note_off_c, 0, 94, 66
1, 91737, Note_on_c, 0, 108, 104
1, 91739, Note_on_c, 0, 88, 78
1, 91740, Note_on_c, 0, 103, 96
1, 91743, Note_on_c, 0, 105, 97
1, 91768, Note_off_c, 0, 86, 59
1, 91782, Note_off_c, 0, 103, 62
1, 91785, Note_off_c, 0, 105, 65
1, 91796, Note_off_c, 0, 108, 62
1, 91840, Note_on_c, 0, 106, 111
1, 91844, Note_on_c, 0, 92, 89
1, 91852, Note_off_c, 0, 88, 0
1, 91867, Note_on_c, 0, 108, 53
1, 91892, Note_off_c, 0, 106, 66
1, 91892, Note_off_c, 0, 108, 58
1, 91905, Control_c, 0, 64, 87
1, 91908, Note_off_c, 0, 92, 66
1, 91913, Poly_aftertouch_c, 0, 88, 0
1, 91920, Control_c, 0, 64, 64
1, 91935, Control_c, 0, 64, 0
1, 91952, Note_on_c, 0, 108, 118
1, 91954, Note_on_c, 0, 95, 107
1, 91964, Note_on_c, 0, 84, 83
1, 91964, Control_c, 0, 64, 46
1, 91968, Note_on_c, 0, 88, 82
1, 91972, Note_on_c, 0, 86, 79
1, 91979, Control_c, 0, 64, 68
1, 91991, Note_on_c, 0, 87, 47
1, 91993, Control_c, 0, 64, 114
1, 92008, Control_c, 0, 64, 127
1, 92014, Note_off_c, 0, 108, 63
1, 92021, Note_off_c, 0, 84, 60
1, 92021, Note_off_c, 0, 86, 60
1, 92021, Note_off_c, 0, 87, 34
1, 92030, Note_off_c, 0, 95, 54
1, 92038, Note_off_c, 0, 88, 62
1, 92054, Note_on_c, 0, 107, 101
1, 92057, Note_on_c, 0, 104, 102
1, 92059, Note_on_c, 0, 108, 66
1, 92067, Note_on_c, 0, 90, 82
1, 92080, Note_off_c, 0, 108, 62
1, 92098, Note_off_c, 0, 104, 61
1, 92103, Note_off_c, 0, 107, 65
1, 92116, Note_off_c, 0, 90, 65
1, 92127, Control_c, 0, 64, 84
1, 92142, Control_c, 0, 64, 61
1, 92157, Control_c, 0, 64, 0
1, 92167, Note_on_c, 0, 108, 106
1, 92170, Note_on_c, 0, 96, 112
1, 92172, Note_on_c, 0, 87, 97
1, 92174, Note_on_c, 0, 85, 86
1, 92187, Note_on_c, 0, 104, 90
1, 92187, Control_c, 0, 64, 23
1, 92200, Note_off_c, 0, 104, 47
1, 92202, Control_c, 0, 64, 65
1, 92217, Control_c, 0, 64, 127
1, 92242, Note_off_c, 0, 85, 64
1, 92247, Note_off_c, 0, 108, 64
1, 92249, Note_off_c, 0, 96, 62
1, 92280, Note_off_c, 0, 87, 59
1, 92281, Note_on_c, 0, 106, 97
1, 92285, Note_on_c, 0, 107, 86
1, 92287, Note_on_c, 0, 89, 70
1, 92297, Note_on_c, 0, 108, 43
1, 92320, Note_off_c, 0, 107, 62
1, 92325, Note_off_c, 0, 108, 54
1, 92328, Note_off_c, 0, 106, 65
1, 92345, Note_off_c, 0, 89, 61
1, 92384, Note_on_c, 0, 108, 103
1, 92389, Note_on_c, 0, 105, 98
1, 92396, Note_on_c, 0, 91, 86
1, 92443, Note_off_c, 0, 105, 65
1, 92461, Note_off_c, 0, 91, 61
1, 92467, Note_off_c, 0, 108, 62
1, 92497, Note_on_c, 0, 106, 94
1, 92503, Note_on_c, 0, 107, 83
1, 92512, Note_on_c, 0, 95, 86
1, 92548, Note_off_c, 0, 107, 64
1, 92557, Note_off_c, 0, 106, 65
1, 92564, Note_off_c, 0, 95, 66
1, 92607, Note_on_c, 0, 108, 99
1, 92610, Note_on_c, 0, 92, 89
1, 92610, Note_on_c, 0, 94, 91
1, 92616, Note_on_c, 0, 86, 88
1, 92627, Note_on_c, 0, 105, 85
1, 92646, Note_off_c, 0, 105, 68
1, 92661, Note_off_c, 0, 86, 63
1, 92667, Note_off_c, 0, 94, 66
1, 92681, Note_off_c, 0, 92, 66
1, 92686, Note_off_c, 0, 108, 63
1, 92716, Note_on_c, 0, 106, 99
1, 92726, Note_on_c, 0, 88, 92
1, 92733, Note_on_c, 0, 105, 77
1, 92736, Note_on_c, 0, 108, 36
1, 92740, Note_on_c, 0, 107, 61
1, 92753, Note_off_c, 0, 105, 60
1, 92760, Note_off_c, 0, 107, 61
1, 92763, Note_off_c, 0, 106, 66
1, 92766, Note_off_c, 0, 108, 32
1, 92775, Note_off_c, 0, 88, 64
1, 92786, Control_c, 0, 64, 86
1, 92801, Control_c, 0, 64, 58
1, 92816, Control_c, 0, 64, 0
1, 92828, Note_on_c, 0, 108, 105
1, 92829, Note_on_c, 0, 87, 101
1, 92830, Note_on_c, 0, 93, 122
1, 92830, Note_on_c, 0, 95, 111
1, 92846, Control_c, 0, 64, 23
1, 92861, Control_c, 0, 64, 67
1, 92864, Note_on_c, 0, 94, 35
1, 92865, Note_off_c, 0, 94, 127
1, 92876, Control_c, 0, 64, 127
1, 92879, Note_off_c, 0, 95, 64
1, 92885, Note_off_c, 0, 93, 58
1, 92894, Note_off_c, 0, 108, 61
1, 92923, Note_off_c, 0, 87, 61
1, 92937, Note_on_c, 0, 106, 94
1, 92938, Note_on_c, 0, 104, 75
1, 92944, Note_on_c, 0, 89, 76
1, 92954, Note_off_c, 0, 104, 65
1, 92971, Note_on_c, 0, 105, 48
1, 92984, Note_off_c, 0, 106, 66
1, 93001, Note_off_c, 0, 105, 36
1, 93010, Note_off_c, 0, 89, 65
1, 93040, Note_on_c, 0, 106, 66
1, 93047, Note_on_c, 0, 93, 88
1, 93054, Note_on_c, 0, 107, 83
1, 93087, Note_off_c, 0, 106, 62
1, 93090, Note_off_c, 0, 93, 62
1, 93095, Note_off_c, 0, 107, 63
1, 93099, Control_c, 0, 64, 88
1, 93113, Control_c, 0, 64, 56
1, 93128, Control_c, 0, 64, 0
1, 93153, Note_on_c, 0, 102, 112
1, 93153, Note_on_c, 0, 108, 112
1, 93156, Note_on_c, 0, 95, 102
1, 93158, Note_on_c, 0, 106, 91
1, 93171, Note_on_c, 0, 92, 96
1, 93173, Note_on_c, 0, 88, 76
1, 93174, Note_on_c, 0, 107, 64
1, 93180, Control_c, 0, 64, 37
1, 93195, Control_c, 0, 64, 68
1, 93197, Note_off_c, 0, 107, 67
1, 93199, Note_on_c, 0, 90, 50
1, 93210, Control_c, 0, 64, 127
1, 93221, Note_off_c, 0, 95, 63
1, 93222, Note_off_c, 0, 88, 60
1, 93228, Note_off_c, 0, 90, 35
1, 93234, Note_off_c, 0, 102, 61
1, 93241, Note_off_c, 0, 108, 62
1, 93244, Note_off_c, 0, 92, 66
1, 93256, Note_off_c, 0, 106, 64
1, 93291, Note_on_c, 0, 90, 83
1, 93291, Note_on_c, 0, 105, 86
1, 93340, Note_off_c, 0, 90, 61
1, 93341, Note_off_c, 0, 105, 64
1, 93344, Poly_aftertouch_c, 0, 106, 0
1, 93388, Note_on_c, 0, 94, 77
1, 93388, Note_on_c, 0, 107, 92
1, 93436, Note_off_c, 0, 94, 67
1, 93443, Note_off_c, 0, 107, 65
1, 93493, Note_on_c, 0, 96, 79
1, 93493, Note_on_c, 0, 108, 94
1, 93499, Note_on_c, 0, 103, 84
1, 93526, Note_off_c, 0, 103, 61
1, 93540, Note_off_c, 0, 108, 63
1, 93547, Note_off_c, 0, 96, 63
1, 93564, Control_c, 0, 64, 84
1, 93579, Control_c, 0, 64, 59
1, 93594, Control_c, 0, 64, 0
1, 93605, Note_on_c, 0, 107, 102
1, 93606, Note_on_c, 0, 89, 79
1, 93608, Note_on_c, 0, 104, 106
1, 93612, Note_on_c, 0, 97, 94
1, 93621, Note_on_c, 0, 106, 77
1, 93624, Control_c, 0, 64, 26
1, 93639, Control_c, 0, 64, 62
1, 93645, Note_off_c, 0, 106, 69
1, 93654, Control_c, 0, 64, 64
1, 93658, Note_on_c, 0, 91, 25
1, 93666, Note_off_c, 0, 104, 60
1, 93669, Control_c, 0, 64, 58
1, 93678, Note_off_c, 0, 107, 63
1, 93684, Control_c, 0, 64, 0
1, 93686, Note_off_c, 0, 91, 33
1, 93704, Note_off_c, 0, 97, 0
1, 93713, Note_on_c, 0, 108, 93
1, 93721, Note_off_c, 0, 89, 61
1, 93722, Note_on_c, 0, 93, 73
1, 93722, Note_on_c, 0, 105, 85
1, 93736, Note_on_c, 0, 107, 30
1, 93758, Note_off_c, 0, 105, 63
1, 93761, Note_off_c, 0, 107, 51
1, 93765, Note_off_c, 0, 108, 62
1, 93766, Poly_aftertouch_c, 0, 97, 0
1, 93775, Note_off_c, 0, 93, 62
1, 93824, Note_on_c, 0, 107, 110
1, 93825, Note_on_c, 0, 96, 107
1, 93825, Note_on_c, 0, 98, 99
1, 93827, Note_on_c, 0, 106, 103
1, 93833, Control_c, 0, 64, 48
1, 93837, Note_on_c, 0, 89, 88
1, 93838, Note_on_c, 0, 108, 75
1, 93845, Note_on_c, 0, 90, 57
1, 93845, Note_on_c, 0, 104, 71
1, 93847, Control_c, 0, 64, 71
1, 93848, Note_on_c, 0, 94, 60
1, 93848, Note_on_c, 0, 97, 58
1, 93856, Note_off_c, 0, 108, 43
1, 93862, Control_c, 0, 64, 127
1, 93865, Note_off_c, 0, 104, 43
1, 93870, Note_off_c, 0, 94, 61
1, 93871, Note_off_c, 0, 97, 62
1, 93881, Note_on_c, 0, 95, 7
1, 93882, Note_off_c, 0, 95, 127
1, 93895, Note_off_c, 0, 89, 63
1, 93904, Note_off_c, 0, 90, 45
1, 93915, Note_off_c, 0, 106, 63
1, 93917, Note_off_c, 0, 107, 63
1, 93921, Note_off_c, 0, 96, 55
1, 93924, Note_off_c, 0, 98, 60
1, 93942, Note_on_c, 0, 108, 86
1, 93955, Note_on_c, 0, 104, 62
1, 93956, Note_off_c, 0, 104, 127
1, 93964, Note_on_c, 0, 94, 77
1, 93998, Note_off_c, 0, 108, 62
1, 94053, Note_on_c, 0, 107, 98
1, 94063, Note_on_c, 0, 105, 59
1, 94071, Note_on_c, 0, 96, 82
1, 94090, Note_off_c, 0, 94, 54
1, 94092, Note_off_c, 0, 105, 61
1, 94092, Control_c, 0, 64, 82
1, 94105, Note_off_c, 0, 107, 66
1, 94107, Control_c, 0, 64, 58
1, 94122, Control_c, 0, 64, 0
1, 94128, Note_off_c, 0, 96, 63
1, 94166, Control_c, 0, 64, 36
1, 94166, Note_on_c, 0, 108, 108
1, 94170, Note_on_c, 0, 99, 107
1, 94172, Note_on_c, 0, 106, 103
1, 94175, Note_on_c, 0, 91, 95
1, 94181, Control_c, 0, 64, 67
1, 94195, Control_c, 0, 64, 111
1, 94199, Note_on_c, 0, 107, 67
1, 94210, Control_c, 0, 64, 127
1, 94217, Note_off_c, 0, 107, 64
1, 94238, Note_off_c, 0, 108, 62
1, 94249, Note_off_c, 0, 106, 64
1, 94253, Note_off_c, 0, 91, 59
1, 94260, Note_off_c, 0, 99, 59
1, 94265, Poly_aftertouch_c, 0, 93, 127
1, 94282, Note_on_c, 0, 104, 78
1, 94283, Note_on_c, 0, 107, 96
1, 94289, Note_on_c, 0, 93, 11
1, 94324, Note_off_c, 0, 104, 62
1, 94327, Note_off_c, 0, 107, 66
1, 94386, Note_on_c, 0, 108, 94
1, 94390, Note_on_c, 0, 105, 92
1, 94399, Note_on_c, 0, 97, 83
1, 94400, Note_off_c, 0, 93, 54
1, 94434, Note_off_c, 0, 105, 65
1, 94442, Note_off_c, 0, 108, 63
1, 94464, Note_off_c, 0, 97, 63
1, 94487, Note_on_c, 0, 106, 96
1, 94494, Note_on_c, 0, 107, 87
1, 94506, Note_on_c, 0, 99, 88
1, 94535, Note_off_c, 0, 107, 65
1, 94539, Note_off_c, 0, 106, 65
1, 94551, Note_off_c, 0, 99, 65
1, 94593, Note_on_c, 0, 108, 101
1, 94602, Note_on_c, 0, 98, 96
1, 94605, Note_on_c, 0, 92, 89
1, 94619, Note_on_c, 0, 107, 56
1, 94620, Note_off_c, 0, 107, 127
1, 94627, Note_on_c, 0, 94, 56
1, 94637, Note_on_c, 0, 93, 50
1, 94649, Note_off_c, 0, 94, 60
1, 94649, Note_off_c, 0, 92, 66
1, 94670, Note_off_c, 0, 93, 56
1, 94670, Note_off_c, 0, 98, 68
1, 94670, Note_off_c, 0, 108, 63
1, 94704, Note_on_c, 0, 106, 98
1, 94708, Note_on_c, 0, 107, 88
1, 94715, Note_on_c, 0, 94, 89
1, 94753, Note_off_c, 0, 107, 64
1, 94754, Note_off_c, 0, 106, 66
1, 94792, Note_off_c, 0, 94, 58
1, 94796, Control_c, 0, 64, 98
1, 94808, Note_on_c, 0, 108, 81
1, 94810, Control_c, 0, 64, 70
1, 94813, Note_on_c, 0, 98, 76
1, 94819, Note_on_c, 0, 105, 78
1, 94825, Control_c, 0, 64, 52
1, 94840, Control_c, 0, 64, 0
1, 94846, Note_off_c, 0, 105, 61
1, 94864, Note_off_c, 0, 108, 61
1, 94869, Note_off_c, 0, 98, 66
1, 94921, Note_on_c, 0, 108, 80
1, 94927, Note_on_c, 0, 100, 85
1, 94931, Note_on_c, 0, 94, 76
1, 94934, Note_on_c, 0, 104, 72
1, 94947, Note_on_c, 0, 106, 64
1, 94965, Note_off_c, 0, 94, 62
1, 94974, Note_off_c, 0, 100, 63
1, 94974, Note_off_c, 0, 108, 61
1, 94975, Note_off_c, 0, 104, 55
1, 94981, Note_off_c, 0, 106, 63
1, 95032, Note_on_c, 0, 105, 81
1, 95039, Note_on_c, 0, 96, 72
1, 95041, Note_on_c, 0, 107, 64
1, 95052, Note_on_c, 0, 108, 66
1, 95073, Note_off_c, 0, 105, 62
1, 95074, Note_off_c, 0, 108, 59
1, 95088, Note_off_c, 0, 107, 64
1, 95126, Note_off_c, 0, 96, 48
1, 95130, Note_on_c, 0, 108, 100
1, 95147, Note_on_c, 0, 97, 76
1, 95148, Note_on_c, 0, 101, 78
1, 95195, Note_off_c, 0, 108, 62
1, 95205, Note_off_c, 0, 101, 63
1, 95211, Note_off_c, 0, 97, 62
1, 95240, Note_on_c, 0, 94, 80
1, 95240, Note_on_c, 0, 104, 99
1, 95241, Note_on_c, 0, 107, 102
1, 95254, Note_on_c, 0, 106, 55
1, 95255, Control_c, 0, 64, 59
1, 95270, Control_c, 0, 64, 69
1, 95282, Note_off_c, 0, 106, 66
1, 95284, Control_c, 0, 64, 86
1, 95299, Control_c, 0, 64, 127
1, 95300, Note_off_c, 0, 104, 62
1, 95308, Note_off_c, 0, 107, 65
1, 95324, Note_off_c, 0, 94, 65
1, 95337, Note_on_c, 0, 101, 84
1, 95340, Note_on_c, 0, 98, 81
1, 95344, Note_on_c, 0, 108, 105
1, 95349, Note_on_c, 0, 107, 64
1, 95359, Control_c, 0, 64, 109
1, 95372, Note_off_c, 0, 107, 67
1, 95374, Control_c, 0, 64, 69
1, 95389, Control_c, 0, 64, 0
1, 95398, Note_off_c, 0, 101, 66
1, 95406, Note_off_c, 0, 98, 66
1, 95415, Note_off_c, 0, 108, 62
1, 95453, Note_on_c, 0, 94, 92
1, 95457, Note_on_c, 0, 106, 109
1, 95458, Note_on_c, 0, 107, 106
1, 95486, Control_c, 0, 64, 46
1, 95501, Control_c, 0, 64, 75
1, 95515, Control_c, 0, 64, 97
1, 95526, Note_off_c, 0, 106, 63
1, 95527, Note_off_c, 0, 107, 66
1, 95530, Control_c, 0, 64, 88
1, 95540, Note_off_c, 0, 94, 65
1, 95545, Control_c, 0, 64, 59
1, 95549, Note_on_c, 0, 97, 91
1, 95558, Note_on_c, 0, 108, 100
1, 95559, Control_c, 0, 64, 0
1, 95618, Note_off_c, 0, 108, 64
1, 95630, Note_off_c, 0, 97, 60
1, 95669, Note_on_c, 0, 93, 92
1, 95672, Note_on_c, 0, 106, 119
1, 95675, Note_on_c, 0, 105, 119
1, 95678, Control_c, 0, 64, 39
1, 95693, Control_c, 0, 64, 67
1, 95708, Control_c, 0, 64, 127
1, 95722, Note_off_c, 0, 105, 57
1, 95746, Note_off_c, 0, 106, 67
1, 95774, Note_off_c, 0, 93, 59
1, 95778, Note_on_c, 0, 99, 82
1, 95794, Note_on_c, 0, 108, 96
1, 95842, Note_off_c, 0, 108, 63
1, 95871, Note_off_c, 0, 99, 61
1, 95884, Note_on_c, 0, 104, 86
1, 95889, Note_on_c, 0, 96, 76
1, 95889, Note_on_c, 0, 106, 110
1, 95936, Note_off_c, 0, 106, 68
1, 95944, Note_off_c, 0, 96, 61
1, 95949, Note_off_c, 0, 104, 63
1, 95974, Control_c, 0, 64, 93
1, 95979, Note_on_c, 0, 100, 86
1, 95989, Control_c, 0, 64, 68
1, 95991, Note_on_c, 0, 107, 98
1, 95996, Note_on_c, 0, 108, 93
1, 95998, Note_on_c, 0, 99, 59
1, 96004, Control_c, 0, 64, 46
1, 96019, Control_c, 0, 64, 0
1, 96032, Note_off_c, 0, 99, 49
1, 96044, Note_off_c, 0, 108, 62
1, 96045, Note_off_c, 0, 107, 66
1, 96057, Note_off_c, 0, 100, 63
1, 96090, Note_on_c, 0, 97, 90
1, 96098, Note_on_c, 0, 106, 107
1, 96102, Note_on_c, 0, 105, 92
1, 96163, Note_off_c, 0, 106, 65
1, 96167, Note_off_c, 0, 97, 66
1, 96173, Note_off_c, 0, 105, 64
1, 96211, Note_on_c, 0, 108, 89
1, 96217, Note_on_c, 0, 99, 94
1, 96258, Note_off_c, 0, 108, 62
1, 96267, Note_off_c, 0, 99, 65
1, 96339, Control_c, 0, 64, 45
1, 96349, Note_on_c, 0, 107, 107
1, 96352, Note_on_c, 0, 98, 112
1, 96352, Note_on_c, 0, 100, 105
1, 96354, Note_on_c, 0, 106, 97
1, 96354, Control_c, 0, 64, 73
1, 96369, Control_c, 0, 64, 127
1, 96385, Note_on_c, 0, 99, 39
1, 96385, Note_on_c, 0, 108, 40
1, 96386, Note_off_c, 0, 108, 127
1, 96393, Note_off_c, 0, 106, 65
1, 96405, Note_off_c, 0, 107, 65
1, 96422, Note_off_c, 0, 99, 54
1, 96435, Note_off_c, 0, 98, 65
1, 96437, Note_off_c, 0, 100, 62
1, 96469, Note_on_c, 0, 108, 92
1, 96486, Note_on_c, 0, 96, 70
1, 96487, Control_c, 0, 64, 94
1, 96502, Control_c, 0, 64, 73
1, 96517, Note_off_c, 0, 108, 63
1, 96517, Control_c, 0, 64, 60
1, 96532, Control_c, 0, 64, 0
1, 96572, Note_on_c, 0, 107, 101
1, 96572, Note_off_c, 0, 96, 53
1, 96577, Note_on_c, 0, 99, 84
1, 96589, Note_on_c, 0, 101, 78
1, 96614, Note_off_c, 0, 107, 65
1, 96642, Note_off_c, 0, 101, 65
1, 96650, Control_c, 0, 64, 46
1, 96664, Note_off_c, 0, 99, 63
1, 96664, Control_c, 0, 64, 65
1, 96679, Note_on_c, 0, 95, 78
1, 96679, Control_c, 0, 64, 75
1, 96682, Note_on_c, 0, 108, 110
1, 96683, Note_on_c, 0, 104, 112
1, 96683, Note_on_c, 0, 106, 109
1, 96694, Control_c, 0, 64, 99
1, 96709, Control_c, 0, 64, 127
1, 96762, Note_off_c, 0, 104, 61
1, 96765, Note_off_c, 0, 108, 61
1, 96780, Note_off_c, 0, 95, 67
1, 96782, Note_on_c, 0, 102, 87
1, 96786, Note_on_c, 0, 98, 74
1, 96793, Note_on_c, 0, 107, 83
1, 96830, Note_off_c, 0, 106, 64
1, 96839, Note_off_c, 0, 107, 65
1, 96843, Note_off_c, 0, 98, 67
1, 96845, Note_off_c, 0, 102, 65
1, 96857, Control_c, 0, 64, 83
1, 96872, Control_c, 0, 64, 62
1, 96887, Control_c, 0, 64, 0
1, 96897, Note_on_c, 0, 105, 113
1, 96897, Note_on_c, 0, 108, 112
1, 96900, Note_on_c, 0, 94, 101
1, 96938, Control_c, 0, 64, 64
1, 96953, Control_c, 0, 64, 90
1, 96962, Note_off_c, 0, 105, 61
1, 96968, Control_c, 0, 64, 127
1, 96998, Control_c, 0, 64, 80
1, 97005, Note_on_c, 0, 106, 92
1, 97011, Note_off_c, 0, 94, 65
1, 97013, Control_c, 0, 64, 62
1, 97019, Note_off_c, 0, 108, 60
1, 97022, Note_on_c, 0, 99, 72
1, 97028, Control_c, 0, 64, 0
1, 97049, Note_off_c, 0, 106, 66
1, 97071, Note_off_c, 0, 99, 63
1, 97102, Control_c, 0, 64, 55
1, 97111, Note_on_c, 0, 102, 107
1, 97111, Note_on_c, 0, 108, 112
1, 97112, Note_on_c, 0, 104, 116
1, 97117, Control_c, 0, 64, 69
1, 97127, Note_on_c, 0, 95, 85
1, 97132, Control_c, 0, 64, 127
1, 97132, Note_on_c, 0, 97, 75
1, 97138, Note_on_c, 0, 99, 23
1, 97150, Note_on_c, 0, 98, 52
1, 97151, Note_off_c, 0, 98, 127
1, 97162, Note_off_c, 0, 97, 59
1, 97165, Note_off_c, 0, 99, 29
1, 97176, Note_off_c, 0, 104, 57
1, 97177, Note_off_c, 0, 95, 66
1, 97189, Note_off_c, 0, 108, 63
1, 97192, Note_off_c, 0, 102, 66
1, 97227, Note_on_c, 0, 107, 98
1, 97228, Note_on_c, 0, 97, 93
1, 97228, Note_on_c, 0, 105, 93
1, 97246, Note_on_c, 0, 106, 50
1, 97269, Note_off_c, 0, 105, 65
1, 97273, Note_off_c, 0, 106, 35
1, 97275, Note_off_c, 0, 107, 67
1, 97317, Note_on_c, 0, 98, 84
1, 97324, Control_c, 0, 64, 95
1, 97331, Note_on_c, 0, 106, 102
1, 97338, Control_c, 0, 64, 68
1, 97353, Control_c, 0, 64, 0
1, 97365, Note_off_c, 0, 97, 53
1, 97383, Note_off_c, 0, 106, 66
1, 97387, Note_off_c, 0, 98, 67
1, 97428, Control_c, 0, 64, 36
1, 97431, Note_on_c, 0, 99, 98
1, 97441, Note_on_c, 0, 108, 116
1, 97442, Note_on_c, 0, 107, 112
1, 97442, Control_c, 0, 64, 66
1, 97457, Control_c, 0, 64, 85
1, 97472, Control_c, 0, 64, 127
1, 97491, Note_off_c, 0, 107, 59
1, 97507, Note_off_c, 0, 108, 62
1, 97509, Note_off_c, 0, 99, 65
1, 97540, Note_on_c, 0, 106, 100
1, 97561, Control_c, 0, 64, 121
1, 97570, Note_on_c, 0, 100, 79
1, 97571, Note_on_c, 0, 101, 83
1, 97576, Control_c, 0, 64, 73
1, 97586, Note_off_c, 0, 106, 66
1, 97591, Control_c, 0, 64, 50
1, 97594, Note_off_c, 0, 100, 65
1, 97595, Note_off_c, 0, 101, 66
1, 97605, Control_c, 0, 64, 0
1, 97667, Note_on_c, 0, 108, 116
1, 97669, Note_on_c, 0, 105, 113
1, 97672, Control_c, 0, 64, 38
1, 97674, Note_on_c, 0, 98, 90
1, 97678, Note_on_c, 0, 103, 74
1, 97679, Note_off_c, 0, 103, 127
1, 97687, Control_c, 0, 64, 65
1, 97702, Control_c, 0, 64, 84
1, 97717, Control_c, 0, 64, 127
1, 97741, Note_off_c, 0, 105, 66
1, 97741, Note_off_c, 0, 98, 60
1, 97766, Note_on_c, 0, 100, 29
1, 97771, Note_on_c, 0, 107, 88
1, 97791, Note_off_c, 0, 108, 61
1, 97824, Note_off_c, 0, 107, 65
1, 97832, Note_off_c, 0, 100, 62
1, 97851, Control_c, 0, 64, 95
1, 97866, Control_c, 0, 64, 76
1, 97877, Note_on_c, 0, 102, 97
1, 97881, Control_c, 0, 64, 69
1, 97881, Note_on_c, 0, 108, 108
1, 97883, Note_on_c, 0, 106, 113
1, 97910, Control_c, 0, 64, 78
1, 97925, Control_c, 0, 64, 127
1, 97942, Note_off_c, 0, 102, 64
1, 97955, Note_off_c, 0, 106, 62
1, 97958, Note_off_c, 0, 108, 61
1, 97982, Note_on_c, 0, 107, 82
1, 97988, Note_on_c, 0, 101, 88
1, 97988, Note_on_c, 0, 103, 88
1, 98030, Note_off_c, 0, 101, 65
1, 98033, Note_off_c, 0, 103, 64
1, 98033, Note_off_c, 0, 107, 65
1, 98073, Control_c, 0, 64, 84
1, 98088, Control_c, 0, 64, 78
1, 98089, Note_on_c, 0, 102, 91
1, 98096, Note_on_c, 0, 107, 106
1, 98102, Note_on_c, 0, 106, 100
1, 98103, Control_c, 0, 64, 83
1, 98110, Note_on_c, 0, 108, 92
1, 98117, Control_c, 0, 64, 118
1, 98132, Control_c, 0, 64, 127
1, 98141, Note_on_c, 0, 105, 44
1, 98142, Note_off_c, 0, 105, 127
1, 98164, Note_off_c, 0, 102, 61
1, 98172, Note_off_c, 0, 106, 62
1, 98175, Note_off_c, 0, 108, 59
1, 98190, Note_off_c, 0, 107, 68
1, 98198, Note_on_c, 0, 103, 91
1, 98214, Note_on_c, 0, 102, 23
1, 98220, Note_on_c, 0, 105, 96
1, 98232, Note_on_c, 0, 108, 78
1, 98253, Note_off_c, 0, 102, 56
1, 98255, Note_off_c, 0, 103, 63
1, 98266, Note_off_c, 0, 105, 66
1, 98278, Note_off_c, 0, 108, 61
1, 98309, Note_on_c, 0, 104, 95
1, 98320, Note_on_c, 0, 108, 102
1, 98355, Note_off_c, 0, 104, 64
1, 98384, Note_off_c, 0, 108, 62
1, 98430, Note_on_c, 0, 102, 88
1, 98435, Note_on_c, 0, 107, 109
1, 98439, Note_on_c, 0, 105, 112
1, 98444, Note_on_c, 0, 108, 88
1, 98474, Note_off_c, 0, 108, 64
1, 98505, Note_off_c, 0, 102, 65
1, 98506, Note_off_c, 0, 105, 64
1, 98535, Note_on_c, 0, 103, 88
1, 98545, Note_on_c, 0, 108, 96
1, 98572, Note_off_c, 0, 107, 66
1, 98593, Note_off_c, 0, 103, 64
1, 98604, Note_off_c, 0, 108, 63
1, 98642, Note_on_c, 0, 105, 97
1, 98650, Note_on_c, 0, 106, 114
1, 98652, Note_on_c, 0, 107, 105
1, 98664, Note_on_c, 0, 108, 63
1, 98668, Note_on_c, 0, 102, 64
1, 98684, Note_off_c, 0, 108, 64
1, 98690, Note_off_c, 0, 102, 61
1, 98726, Note_off_c, 0, 107, 65
1, 98728, Note_off_c, 0, 106, 65
1, 98739, Note_off_c, 0, 105, 62
1, 98752, Note_on_c, 0, 103, 66
1, 98752, Note_on_c, 0, 108, 92
1, 98757, Note_on_c, 0, 104, 89
1, 98785, Note_on_c, 0, 107, 23
1, 98793, Note_off_c, 0, 107, 36
1, 98804, Note_off_c, 0, 103, 62
1, 98812, Note_off_c, 0, 108, 63
1, 98825, Note_off_c, 0, 104, 62
1, 98859, Note_on_c, 0, 105, 95
1, 98861, Note_on_c, 0, 107, 126
1, 98883, Note_on_c, 0, 108, 65
1, 98903, Note_off_c, 0, 108, 64
1, 98927, Note_off_c, 0, 105, 62
1, 98942, Note_off_c, 0, 107, 64
1, 98976, Note_on_c, 0, 108, 98
1, 98981, Note_on_c, 0, 103, 74
1, 99037, Note_off_c, 0, 108, 63
1, 99040, Note_off_c, 0, 103, 63
1, 99076, Note_on_c, 0, 104, 101
1, 99082, Note_on_c, 0, 107, 103
1, 99100, Note_on_c, 0, 108, 65
1, 99120, Note_off_c, 0, 108, 63
1, 99121, Note_off_c, 0, 104, 65
1, 99131, Note_off_c, 0, 107, 67
1, 99204, Note_on_c, 0, 108, 114
1, 99206, Note_on_c, 0, 107, 106
1, 99207, Note_on_c, 0, 105, 110
1, 99286, Note_off_c, 0, 105, 57
1, 99326, Note_on_c, 0, 106, 96
1, 99337, Note_off_c, 0, 107, 65
1, 99338, Note_off_c, 0, 108, 61
1, 99367, Note_off_c, 0, 106, 66
1, 99428, Note_on_c, 0, 108, 114
1, 99428, Note_on_c, 0, 105, 113
1, 99432, Note_on_c, 0, 107, 97
1, 99443, Note_on_c, 0, 106, 62
1, 99444, Note_off_c, 0, 106, 127
1, 99505, Note_off_c, 0, 105, 62
1, 99546, Note_on_c, 0, 106, 92
1, 99574, Note_off_c, 0, 107, 65
1, 99576, Note_off_c, 0, 108, 61
1, 99608, Note_off_c, 0, 106, 66
1, 99651, Note_on_c, 0, 105, 114
1, 99657, Note_on_c, 0, 107, 104
1, 99661, Note_on_c, 0, 108, 90
1, 99703, Note_off_c, 0, 108, 60
1, 99720, Note_off_c, 0, 105, 64
1, 99740, Note_off_c, 0, 107, 65
1, 99766, Note_on_c, 0, 107, 69
1, 99770, Note_on_c, 0, 106, 104
1, 99800, Note_off_c, 0, 107, 65
1, 99833, Note_off_c, 0, 106, 67
1, 99883, Note_on_c, 0, 108, 107
1, 99958, Note_off_c, 0, 108, 63
1, 100007, Note_on_c, 0, 106, 105
1, 100009, Note_on_c, 0, 107, 102
1, 100011, Note_on_c, 0, 108, 94
1, 100051, Note_off_c, 0, 106, 67
1, 100051, Note_off_c, 0, 108, 60
1, 100064, Note_off_c, 0, 107, 65
1, 100131, Note_on_c, 0, 108, 120
1, 100185, Note_off_c, 0, 108, 66
1, 100244, Note_on_c, 0, 107, 108
1, 100269, Note_off_c, 0, 107, 72
1, 100409, Note_on_c, 0, 49, 104
1, 100415, Note_on_c, 0, 34, 99
1, 100416, Note_on_c, 0, 41, 94
1, 100431, Note_on_c, 0, 38, 72
1, 100466, Note_on_c, 0, 46, 25
1, 100483, Control_c, 0, 64, 86
1, 100498, Control_c, 0, 64, 0
1, 100502, Note_off_c, 0, 46, 43
1, 100549, Note_off_c, 0, 38, 55
1, 101142, Control_c, 0, 64, 37
1, 101157, Control_c, 0, 64, 48
1, 101172, Control_c, 0, 64, 52
1, 101186, Control_c, 0, 64, 55
1, 101201, Control_c, 0, 64, 58
1, 101216, Control_c, 0, 64, 61
1, 101231, Control_c, 0, 64, 63
1, 101246, Control_c, 0, 64, 64
1, 101261, Control_c, 0, 64, 66
1, 101276, Control_c, 0, 64, 67
1, 101291, Control_c, 0, 64, 70
1, 101305, Control_c, 0, 64, 75
1, 101320, Control_c, 0, 64, 83
1, 101335, Control_c, 0, 64, 93
1, 101350, Control_c, 0, 64, 101
1, 101365, Control_c, 0, 64, 112
1, 101379, Control_c, 0, 64, 127
1, 102223, Note_on_c, 0, 70, 93
1, 102228, Note_on_c, 0, 59, 85
1, 102228, Note_on_c, 0, 64, 91
1, 102756, Note_off_c, 0, 41, 60
1, 102993, Note_off_c, 0, 49, 54
1, 103246, Note_off_c, 0, 34, 36
1, 103295, Note_on_c, 0, 42, 98
1, 104253, Note_off_c, 0, 70, 57
1, 104257, Control_c, 0, 64, 74
1, 104272, Control_c, 0, 64, 0
1, 104274, Note_on_c, 0, 71, 89
1, 104281, Note_on_c, 0, 50, 97
1, 104287, Note_on_c, 0, 35, 80
1, 104361, Control_c, 0, 66, 127
1, 104679, Control_c, 0, 64, 30
1, 104694, Control_c, 0, 64, 48
1, 104709, Control_c, 0, 64, 55
1, 104723, Control_c, 0, 64, 58
1, 104738, Control_c, 0, 64, 61
1, 104753, Control_c, 0, 64, 63
1, 104768, Control_c, 0, 64, 66
1, 104783, Control_c, 0, 64, 71
1, 104797, Control_c, 0, 64, 79
1, 104812, Control_c, 0, 64, 89
1, 104827, Control_c, 0, 64, 102
1, 104842, Control_c, 0, 64, 127
1, 105098, Note_off_c, 0, 64, 56
1, 105100, Note_off_c, 0, 42, 58
1, 105190, Control_c, 0, 66, 0
1, 105214, Note_on_c, 0, 65, 94
1, 105220, Control_c, 0, 64, 84
1, 105223, Note_on_c, 0, 43, 93
1, 105234, Control_c, 0, 64, 57
1, 105249, Control_c, 0, 64, 0
1, 105323, Control_c, 0, 64, 24
1, 105338, Control_c, 0, 64, 57
1, 105352, Control_c, 0, 64, 66
1, 105367, Control_c, 0, 64, 73
1, 105382, Control_c, 0, 64, 82
1, 105397, Control_c, 0, 64, 92
1, 105412, Control_c, 0, 64, 107
1, 105426, Control_c, 0, 64, 127
1, 105797, Note_off_c, 0, 43, 62
1, 105899, Note_on_c, 0, 44, 94
1, 105908, Control_c, 0, 64, 75
1, 105923, Control_c, 0, 64, 0
1, 106027, Control_c, 0, 64, 39
1, 106042, Control_c, 0, 64, 56
1, 106057, Control_c, 0, 64, 65
1, 106072, Control_c, 0, 64, 76
1, 106087, Control_c, 0, 64, 102
1, 106101, Control_c, 0, 64, 127
1, 106121, Note_off_c, 0, 35, 35
1, 106239, Note_off_c, 0, 50, 58
1, 106288, Note_off_c, 0, 65, 57
1, 106338, Control_c, 0, 66, 127
1, 106376, Poly_aftertouch_c, 0, 41, 127
1, 106451, Note_on_c, 0, 66, 93
1, 106454, Note_on_c, 0, 51, 99
1, 106483, Note_off_c, 0, 59, 59
1, 106488, Note_off_c, 0, 71, 59
1, 106792, Control_c, 0, 66, 0
1, 106797, Poly_aftertouch_c, 0, 41, 0
1, 106899, Note_off_c, 0, 51, 53
1, 107279, Note_on_c, 0, 72, 89
1, 107280, Control_c, 0, 64, 65
1, 107281, Note_on_c, 0, 52, 94
1, 107283, Note_on_c, 0, 60, 90
1, 107286, Note_on_c, 0, 36, 84
1, 107295, Control_c, 0, 64, 0
1, 107339, Control_c, 0, 66, 127
1, 107599, Control_c, 0, 64, 52
1, 107614, Control_c, 0, 64, 63
1, 107628, Control_c, 0, 64, 70
1, 107643, Control_c, 0, 64, 89
1, 107658, Control_c, 0, 64, 127
1, 107661, Note_off_c, 0, 44, 62
1, 107863, Note_on_c, 0, 45, 93
1, 107904, Note_off_c, 0, 66, 62
1, 108041, Note_off_c, 0, 45, 63
1, 108102, Note_off_c, 0, 72, 58
1, 108201, Note_on_c, 0, 46, 93
1, 108208, Note_on_c, 0, 73, 92
1, 108215, Note_on_c, 0, 67, 84
1, 108379, Note_off_c, 0, 52, 63
1, 108410, Note_off_c, 0, 60, 59
1, 108758, Note_on_c, 0, 74, 85
1, 108758, Note_off_c, 0, 73, 62
1, 108758, Note_on_c, 0, 61, 90
1, 108761, Note_off_c, 0, 36, 49
1, 108769, Note_on_c, 0, 53, 79
1, 108806, Note_off_c, 0, 46, 62
1, 108939, Note_off_c, 0, 53, 63
1, 109125, Note_off_c, 0, 74, 59
1, 109423, Control_c, 0, 64, 75
1, 109430, Note_on_c, 0, 54, 99
1, 109431, Note_on_c, 0, 75, 84
1, 109434, Note_on_c, 0, 47, 87
1, 109437, Control_c, 0, 64, 34
1, 109452, Control_c, 0, 64, 0
1, 109511, Control_c, 0, 64, 57
1, 109526, Control_c, 0, 64, 72
1, 109541, Control_c, 0, 64, 127
1, 109633, Note_off_c, 0, 61, 38
1, 109742, Note_off_c, 0, 75, 57
1, 109831, Control_c, 0, 64, 107
1, 109846, Control_c, 0, 64, 63
1, 109861, Control_c, 0, 64, 0
1, 109862, Note_on_c, 0, 55, 101
1, 109862, Note_on_c, 0, 76, 82
1, 109875, Note_on_c, 0, 62, 75
1, 109920, Control_c, 0, 64, 10
1, 109935, Control_c, 0, 64, 58
1, 109950, Control_c, 0, 64, 69
1, 109965, Control_c, 0, 64, 81
1, 109980, Control_c, 0, 64, 99
1, 109995, Control_c, 0, 64, 118
1, 110010, Control_c, 0, 64, 127
1, 110118, Note_off_c, 0, 47, 52
1, 110153, Note_off_c, 0, 54, 57
1, 110168, Note_off_c, 0, 67, 54
1, 110380, Control_c, 0, 64, 119
1, 110402, Control_c, 0, 64, 69
1, 110416, Control_c, 0, 64, 0
1, 110416, Control_c, 0, 66, 0
1, 110423, Note_on_c, 0, 68, 94
1, 110430, Note_on_c, 0, 48, 79
1, 110446, Control_c, 0, 66, 127
1, 110490, Control_c, 0, 64, 48
1, 110505, Control_c, 0, 64, 64
1, 110520, Control_c, 0, 64, 77
1, 110535, Control_c, 0, 64, 103
1, 110549, Control_c, 0, 64, 127
1, 110561, Note_off_c, 0, 55, 58
1, 110696, Note_off_c, 0, 48, 44
1, 110784, Note_off_c, 0, 68, 58
1, 110833, Control_c, 0, 64, 114
1, 110847, Control_c, 0, 64, 68
1, 110847, Control_c, 0, 66, 0
1, 110861, Note_on_c, 0, 56, 93
1, 110862, Note_on_c, 0, 69, 85
1, 110862, Control_c, 0, 64, 0
1, 110862, Control_c, 0, 66, 127
1, 110864, Note_on_c, 0, 49, 83
1, 110907, Note_off_c, 0, 62, 60
1, 110921, Control_c, 0, 64, 59
1, 110936, Control_c, 0, 64, 75
1, 110951, Control_c, 0, 64, 127
1, 110977, Note_off_c, 0, 56, 59
1, 111001, Note_off_c, 0, 76, 59
1, 111009, Note_off_c, 0, 49, 63
1, 111151, Note_off_c, 0, 69, 62
1, 111271, Note_on_c, 0, 70, 103
1, 111274, Note_on_c, 0, 63, 95
1, 111274, Note_on_c, 0, 35, 101
1, 111545, Note_off_c, 0, 63, 58
1, 111551, Note_off_c, 0, 70, 57
1, 111617, Note_off_c, 0, 35, 63
1, 111972, Note_on_c, 0, 77, 98
1, 111973, Control_c, 0, 66, 0
1, 111982, Note_on_c, 0, 34, 94
1, 111987, Control_c, 0, 64, 83
1, 112002, Control_c, 0, 64, 55
1, 112017, Control_c, 0, 64, 0
1, 112032, Control_c, 0, 66, 127
1, 112061, Control_c, 0, 64, 56
1, 112076, Control_c, 0, 64, 80
1, 112091, Control_c, 0, 64, 127
1, 112707, Control_c, 0, 64, 103
1, 112722, Control_c, 0, 64, 59
1, 112722, Control_c, 0, 66, 0
1, 112733, Note_on_c, 0, 49, 110
1, 112736, Control_c, 0, 64, 0
1, 112743, Note_on_c, 0, 42, 80
1, 112766, Control_c, 0, 66, 127
1, 112796, Control_c, 0, 64, 58
1, 112810, Control_c, 0, 64, 73
1, 112825, Control_c, 0, 64, 100
1, 112840, Control_c, 0, 64, 127
1, 112940, Note_off_c, 0, 42, 57
1, 112951, Note_off_c, 0, 77, 56
1, 112967, Note_off_c, 0, 49, 55
1, 113043, Note_off_c, 0, 34, 55
1, 113271, Control_c, 0, 66, 0
1, 113300, Control_c, 0, 64, 106
1, 113315, Control_c, 0, 64, 65
1, 113319, Note_on_c, 0, 45, 104
1, 113323, Note_on_c, 0, 71, 89
1, 113324, Note_on_c, 0, 33, 85
1, 113324, Note_on_c, 0, 64, 94
1, 113326, Note_on_c, 0, 78, 92
1, 113330, Control_c, 0, 64, 0
1, 113345, Control_c, 0, 66, 127
1, 113397, Control_c, 0, 64, 63
1, 113411, Control_c, 0, 64, 83
1, 113426, Control_c, 0, 64, 127
1, 113475, Note_off_c, 0, 33, 64
1, 113533, Note_off_c, 0, 45, 62
1, 113724, Note_off_c, 0, 64, 49
1, 113842, Control_c, 0, 66, 0
1, 113857, Control_c, 0, 64, 83
1, 113872, Control_c, 0, 64, 58
1, 113876, Note_on_c, 0, 65, 98
1, 113880, Note_on_c, 0, 50, 97
1, 113881, Note_on_c, 0, 43, 94
1, 113887, Control_c, 0, 64, 0
1, 113887, Control_c, 0, 66, 127
1, 113931, Control_c, 0, 64, 59
1, 113946, Control_c, 0, 64, 105
1, 113961, Control_c, 0, 64, 127
1, 114079, Note_off_c, 0, 43, 56
1, 114109, Note_off_c, 0, 50, 56
1, 114197, Note_off_c, 0, 71, 50
1, 114418, Note_off_c, 0, 78, 45
1, 114695, Control_c, 0, 66, 0
1, 114710, Control_c, 0, 64, 79
1, 114711, Note_off_c, 0, 65, 0
1, 114725, Control_c, 0, 64, 40
1, 114734, Note_on_c, 0, 44, 103
1, 114734, Note_on_c, 0, 72, 90
1, 114735, Note_on_c, 0, 79, 88
1, 114739, Control_c, 0, 64, 0
1, 114739, Control_c, 0, 66, 127
1, 114741, Note_on_c, 0, 32, 97
1, 114748, Poly_aftertouch_c, 0, 65, 127
1, 114784, Control_c, 0, 64, 64
1, 114799, Control_c, 0, 64, 99
1, 114805, Note_off_c, 0, 79, 64
1, 114813, Control_c, 0, 64, 127
1, 114833, Poly_aftertouch_c, 0, 65, 0
1, 114840, Note_off_c, 0, 72, 65
1, 114861, Poly_aftertouch_c, 0, 31, 0
1, 115038, Note_off_c, 0, 32, 54
1, 115044, Note_off_c, 0, 44, 57
1, 115176, Control_c, 0, 64, 125
1, 115191, Control_c, 0, 64, 67
1, 115191, Control_c, 0, 66, 0
1, 115201, Note_on_c, 0, 61, 93
1, 115206, Note_on_c, 0, 64, 89
1, 115206, Control_c, 0, 64, 0
1, 115208, Note_on_c, 0, 57, 93
1, 115212, Note_on_c, 0, 43, 105
1, 115215, Note_on_c, 0, 31, 94
1, 115235, Control_c, 0, 66, 127
1, 115250, Control_c, 0, 64, 28
1, 115265, Control_c, 0, 64, 67
1, 115274, Note_off_c, 0, 57, 59
1, 115280, Control_c, 0, 64, 111
1, 115295, Note_off_c, 0, 64, 65
1, 115295, Control_c, 0, 64, 127
1, 115308, Note_off_c, 0, 61, 61
1, 115988, Note_on_c, 0, 66, 104
1, 115990, Note_on_c, 0, 73, 95
1, 115992, Note_on_c, 0, 80, 93
1, 116033, Poly_aftertouch_c, 0, 38, 127
1, 116085, Note_off_c, 0, 80, 64
1, 116155, Note_off_c, 0, 66, 53
1, 116159, Note_off_c, 0, 73, 52
1, 116314, Poly_aftertouch_c, 0, 38, 0
1, 116471, Note_off_c, 0, 43, 57
1, 116473, Note_off_c, 0, 31, 60
1, 116971, Control_c, 0, 66, 0
1, 116986, Control_c, 0, 64, 73
1, 117000, Control_c, 0, 64, 0
1, 117012, Note_on_c, 0, 42, 114
1, 117015, Note_on_c, 0, 30, 112
1, 117018, Note_on_c, 0, 44, 93
1, 117019, Note_on_c, 0, 51, 94
1, 117019, Note_on_c, 0, 58, 88
1, 117030, Control_c, 0, 66, 127
1, 117040, Note_on_c, 0, 32, 57
1, 117075, Control_c, 0, 64, 60
1, 117075, Note_off_c, 0, 32, 37
1, 117079, Note_off_c, 0, 58, 65
1, 117087, Note_off_c, 0, 44, 64
1, 117090, Control_c, 0, 64, 80
1, 117103, Note_off_c, 0, 51, 62
1, 117104, Control_c, 0, 64, 127
1, 117828, Note_off_c, 0, 30, 51
1, 117897, Note_off_c, 0, 42, 50
1, 117920, Note_on_c, 0, 82, 102
1, 117922, Note_on_c, 0, 74, 95
1, 117924, Note_on_c, 0, 78, 102
1, 118004, Note_off_c, 0, 74, 62
1, 118011, Note_off_c, 0, 78, 62
1, 118018, Note_off_c, 0, 82, 61
1, 118337, Note_on_c, 0, 76, 108
1, 118339, Note_on_c, 0, 69, 106
1, 118340, Note_on_c, 0, 71, 95
1, 118448, Note_off_c, 0, 69, 65
1, 118448, Note_off_c, 0, 71, 56
1, 118500, Note_off_c, 0, 76, 58
1, 118756, Control_c, 0, 64, 95
1, 118771, Control_c, 0, 64, 77
1, 118786, Control_c, 0, 64, 78
1, 118801, Control_c, 0, 64, 127
1, 118833, Note_on_c, 0, 82, 99
1, 118834, Note_on_c, 0, 74, 100
1, 118838, Note_on_c, 0, 68, 107
1, 118842, Note_on_c, 0, 58, 90
1, 118844, Note_on_c, 0, 78, 87
1, 118845, Note_on_c, 0, 65, 92
1, 118851, Note_on_c, 0, 62, 81
1, 118864, Note_off_c, 0, 78, 66
1, 118875, Note_off_c, 0, 74, 67
1, 118883, Note_off_c, 0, 82, 65
1, 119043, Note_off_c, 0, 68, 61
1, 119083, Note_off_c, 0, 65, 35
1, 119113, Note_off_c, 0, 62, 50
1, 119134, Note_off_c, 0, 58, 52
1, 119244, Note_on_c, 0, 76, 93
1, 119245, Note_on_c, 0, 67, 83
1, 119246, Note_on_c, 0, 74, 88
1, 119247, Note_on_c, 0, 69, 84
1, 119250, Note_on_c, 0, 71, 83
1, 119333, Note_off_c, 0, 67, 62
1, 119364, Note_off_c, 0, 71, 59
1, 119376, Note_off_c, 0, 74, 64
1, 119397, Note_off_c, 0, 69, 58
1, 119440, Note_off_c, 0, 76, 63
1, 119558, Note_on_c, 0, 59, 104
1, 119559, Note_on_c, 0, 45, 89
1, 119563, Note_on_c, 0, 52, 99
1, 119572, Note_on_c, 0, 57, 67
1, 119573, Note_off_c, 0, 57, 127
1, 119643, Note_off_c, 0, 59, 63
1, 119648, Note_off_c, 0, 45, 62
1, 119686, Note_on_c, 0, 82, 103
1, 119686, Note_on_c, 0, 74, 97
1, 119688, Note_off_c, 0, 52, 61
1, 119695, Note_on_c, 0, 78, 90
1, 119709, Poly_aftertouch_c, 0, 57, 0
1, 119754, Note_off_c, 0, 74, 60
1, 119760, Note_off_c, 0, 82, 64
1, 119763, Note_off_c, 0, 78, 60
1, 119922, Note_on_c, 0, 76, 104
1, 119925, Note_on_c, 0, 69, 93
1, 119925, Note_on_c, 0, 71, 92
1, 120038, Control_c, 0, 66, 0
1, 120097, Control_c, 0, 64, 71
1, 120119, Control_c, 0, 64, 0
1, 120129, Note_off_c, 0, 71, 57
1, 120130, Note_off_c, 0, 69, 61
1, 120151, Control_c, 0, 66, 127
1, 120153, Note_on_c, 0, 41, 108
1, 120154, Note_off_c, 0, 76, 63
1, 120159, Note_on_c, 0, 29, 96
1, 120196, Control_c, 0, 64, 56
1, 120210, Control_c, 0, 64, 88
1, 120217, Note_off_c, 0, 29, 63
1, 120225, Control_c, 0, 64, 127
1, 120256, Note_off_c, 0, 41, 42
1, 120271, Poly_aftertouch_c, 0, 36, 0
1, 120541, Note_on_c, 0, 82, 97
1, 120544, Note_on_c, 0, 74, 96
1, 120547, Note_on_c, 0, 78, 95
1, 120604, Note_off_c, 0, 74, 62
1, 120616, Note_off_c, 0, 78, 63
1, 120621, Note_off_c, 0, 82, 61
1, 120843, Note_on_c, 0, 59, 89
1, 120844, Note_on_c, 0, 77, 96
1, 120846, Note_on_c, 0, 66, 95
1, 120846, Note_on_c, 0, 71, 98
1, 120846, Note_on_c, 0, 73, 104
1, 120848, Note_on_c, 0, 69, 106
1, 120848, Note_on_c, 0, 63, 86
1, 120852, Note_on_c, 0, 76, 92
1, 120919, Note_off_c, 0, 76, 62
1, 120933, Note_off_c, 0, 73, 57
1, 120942, Poly_aftertouch_c, 0, 60, 0
1, 120945, Note_off_c, 0, 77, 58
1, 120973, Poly_aftertouch_c, 0, 60, 0
1, 121089, Note_off_c, 0, 71, 57
1, 121097, Note_off_c, 0, 69, 53
1, 121114, Note_off_c, 0, 66, 61
1, 121138, Note_off_c, 0, 63, 61
1, 121139, Note_off_c, 0, 59, 58
1, 121253, Note_on_c, 0, 82, 105
1, 121254, Note_on_c, 0, 74, 93
1, 121258, Note_on_c, 0, 78, 96
1, 121322, Note_off_c, 0, 74, 65
1, 121328, Note_off_c, 0, 78, 63
1, 121332, Note_off_c, 0, 82, 63
1, 121421, Note_on_c, 0, 53, 93
1, 121421, Note_on_c, 0, 67, 104
1, 121429, Note_on_c, 0, 60, 86
1, 121469, Note_on_c, 0, 57, 28
1, 121500, Note_off_c, 0, 67, 68
1, 121508, Note_off_c, 0, 57, 44
1, 121515, Poly_aftertouch_c, 0, 55, 127
1, 121518, Note_off_c, 0, 53, 54
1, 121549, Note_off_c, 0, 60, 58
1, 121558, Poly_aftertouch_c, 0, 55, 0
1, 121604, Note_on_c, 0, 76, 104
1, 121608, Note_on_c, 0, 69, 98
1, 121608, Note_on_c, 0, 71, 101
1, 121701, Note_off_c, 0, 76, 55
1, 121705, Note_off_c, 0, 69, 60
1, 121725, Note_off_c, 0, 71, 58
1, 122166, Control_c, 0, 66, 0
1, 122181, Control_c, 0, 64, 74
1, 122196, Control_c, 0, 64, 31
1, 122208, Note_on_c, 0, 61, 87
1, 122210, Note_on_c, 0, 68, 78
1, 122211, Control_c, 0, 64, 0
1, 122212, Note_on_c, 0, 40, 103
1, 122214, Note_on_c, 0, 74, 81
1, 122216, Note_on_c, 0, 28, 97
1, 122217, Note_on_c, 0, 65, 71
1, 122221, Note_on_c, 0, 71, 70
1, 122240, Control_c, 0, 66, 127
1, 122270, Control_c, 0, 64, 57
1, 122276, Note_off_c, 0, 74, 64
1, 122285, Control_c, 0, 64, 74
1, 122298, Note_off_c, 0, 65, 60
1, 122300, Control_c, 0, 64, 127
1, 122306, Note_off_c, 0, 71, 60
1, 122310, Note_off_c, 0, 61, 56
1, 122323, Note_off_c, 0, 68, 60
1, 122351, Note_off_c, 0, 28, 60
1, 122351, Note_off_c, 0, 40, 60
1, 122545, Control_c, 0, 66, 0
1, 122560, Control_c, 0, 64, 61
1, 122574, Control_c, 0, 64, 0
1, 122580, Note_on_c, 0, 55, 89
1, 122582, Note_on_c, 0, 62, 85
1, 122582, Note_on_c, 0, 69, 88
1, 122591, Note_on_c, 0, 39, 100
1, 122592, Note_on_c, 0, 27, 98
1, 122604, Control_c, 0, 66, 127
1, 122631, Note_on_c, 0, 67, 30
1, 122634, Control_c, 0, 64, 61
1, 122649, Control_c, 0, 64, 93
1, 122664, Note_off_c, 0, 27, 65
1, 122664, Control_c, 0, 64, 127
1, 122674, Note_off_c, 0, 67, 29
1, 122679, Note_off_c, 0, 39, 60
1, 122682, Note_off_c, 0, 55, 54
1, 122732, Note_off_c, 0, 62, 56
1, 122771, Note_off_c, 0, 69, 62
1, 123011, Note_on_c, 0, 76, 97
1, 123013, Note_on_c, 0, 67, 95
1, 123014, Note_on_c, 0, 70, 94
1, 123015, Note_on_c, 0, 73, 92
1, 123021, Note_on_c, 0, 63, 102
1, 123062, Note_off_c, 0, 63, 67
1, 123325, Note_off_c, 0, 67, 53
1, 123353, Note_off_c, 0, 70, 51
1, 123394, Note_off_c, 0, 76, 60
1, 123399, Note_off_c, 0, 73, 51
1, 123924, Control_c, 0, 66, 0
1, 123939, Control_c, 0, 64, 73
1, 123949, Note_on_c, 0, 33, 119
1, 123952, Note_on_c, 0, 21, 93
1, 123953, Control_c, 0, 64, 0
1, 123970, Note_on_c, 0, 89, 101
1, 123972, Note_on_c, 0, 81, 108
1, 123974, Note_on_c, 0, 23, 54
1, 124011, Note_off_c, 0, 23, 53
1, 124101, Control_c, 0, 66, 127
1, 124172, Note_off_c, 0, 21, 62
1, 124206, Control_c, 0, 64, 50
1, 124221, Control_c, 0, 64, 65
1, 124236, Control_c, 0, 64, 76
1, 124244, Note_off_c, 0, 33, 62
1, 124250, Control_c, 0, 64, 127
1, 124256, Poly_aftertouch_c, 0, 24, 0
1, 124258, Note_off_c, 0, 81, 56
1, 124356, Note_off_c, 0, 89, 50
1, 124475, Note_on_c, 0, 85, 97
1, 124477, Note_on_c, 0, 82, 95
1, 124480, Note_on_c, 0, 77, 92
1, 124484, Note_on_c, 0, 76, 96
1, 124679, Note_off_c, 0, 76, 53
1, 124685, Note_off_c, 0, 77, 43
1, 124720, Note_off_c, 0, 82, 53
1, 124739, Note_on_c, 0, 75, 107
1, 124742, Note_on_c, 0, 68, 93
1, 124743, Note_on_c, 0, 70, 91
1, 124744, Note_off_c, 0, 85, 64
1, 124765, Note_on_c, 0, 71, 69
1, 124786, Note_on_c, 0, 66, 43
1, 124840, Note_off_c, 0, 71, 56
1, 124864, Note_off_c, 0, 70, 48
1, 124878, Note_off_c, 0, 66, 30
1, 124947, Note_off_c, 0, 75, 58
1, 124984, Note_on_c, 0, 89, 104
1, 124986, Note_on_c, 0, 81, 107
1, 125036, Note_off_c, 0, 68, 36
1, 125072, Note_off_c, 0, 81, 56
1, 125088, Note_on_c, 0, 64, 92
1, 125089, Note_on_c, 0, 72, 100
1, 125136, Note_off_c, 0, 72, 67
1, 125138, Note_off_c, 0, 64, 67
1, 125139, Note_off_c, 0, 89, 37
1, 125198, Note_on_c, 0, 82, 98
1, 125198, Note_on_c, 0, 85, 101
1, 125204, Note_on_c, 0, 76, 94
1, 125204, Note_on_c, 0, 77, 96
1, 125210, Poly_aftertouch_c, 0, 65, 0
1, 125254, Note_off_c, 0, 77, 58
1, 125256, Note_off_c, 0, 76, 64
1, 125269, Note_off_c, 0, 82, 62
1, 125272, Note_off_c, 0, 85, 65
1, 125424, Note_on_c, 0, 56, 82
1, 125424, Note_on_c, 0, 70, 96
1, 125427, Note_on_c, 0, 63, 86
1, 125451, Note_off_c, 0, 56, 66
1, 125463, Note_off_c, 0, 63, 62
1, 125469, Note_off_c, 0, 70, 62
1, 125582, Note_on_c, 0, 81, 110
1, 125583, Note_on_c, 0, 89, 109
1, 125588, Note_on_c, 0, 75, 97
1, 125594, Note_on_c, 0, 68, 83
1, 125597, Note_on_c, 0, 70, 78
1, 125620, Note_off_c, 0, 70, 65
1, 125633, Note_off_c, 0, 75, 65
1, 125639, Note_off_c, 0, 68, 62
1, 125755, Note_off_c, 0, 81, 51
1, 125809, Note_off_c, 0, 89, 56
1, 125848, Note_on_c, 0, 85, 100
1, 125850, Note_on_c, 0, 82, 97
1, 125851, Note_on_c, 0, 77, 92
1, 125856, Note_on_c, 0, 76, 97
1, 125905, Note_off_c, 0, 77, 56
1, 125907, Note_off_c, 0, 76, 62
1, 125926, Note_off_c, 0, 85, 66
1, 125927, Note_off_c, 0, 82, 62
1, 125994, Note_on_c, 0, 72, 98
1, 125997, Note_on_c, 0, 64, 95
1, 126124, Note_off_c, 0, 72, 59
1, 126149, Note_off_c, 0, 64, 32
1, 126221, Note_on_c, 0, 81, 113
1, 126221, Note_on_c, 0, 89, 114
1, 126315, Note_off_c, 0, 81, 54
1, 126382, Note_off_c, 0, 89, 56
1, 126458, Note_on_c, 0, 82, 99
1, 126458, Note_on_c, 0, 85, 103
1, 126459, Note_on_c, 0, 77, 93
1, 126459, Note_on_c, 0, 76, 94
1, 126462, Note_on_c, 0, 75, 96
1, 126467, Note_on_c, 0, 68, 87
1, 126472, Note_on_c, 0, 70, 82
1, 126499, Note_off_c, 0, 77, 61
1, 126500, Note_off_c, 0, 76, 66
1, 126520, Note_off_c, 0, 82, 64
1, 126527, Note_off_c, 0, 85, 65
1, 126529, Note_off_c, 0, 70, 60
1, 126547, Note_off_c, 0, 68, 59
1, 126582, Note_off_c, 0, 75, 61
1, 126754, Note_on_c, 0, 64, 89
1, 126754, Note_on_c, 0, 72, 90
1, 126755, Note_on_c, 0, 81, 115
1, 126755, Note_on_c, 0, 89, 115
1, 126792, Note_off_c, 0, 64, 68
1, 126792, Note_off_c, 0, 72, 65
1, 126797, Note_off_c, 0, 89, 0
1, 126834, Poly_aftertouch_c, 0, 89, 127
1, 126895, Note_off_c, 0, 81, 44
1, 126989, Poly_aftertouch_c, 0, 89, 0
1, 127065, Note_on_c, 0, 71, 98
1, 127067, Note_on_c, 0, 57, 84
1, 127070, Note_on_c, 0, 64, 91
1, 127076, Note_on_c, 0, 76, 97
1, 127076, Note_on_c, 0, 85, 101
1, 127076, Note_on_c, 0, 82, 101
1, 127079, Note_on_c, 0, 77, 97
1, 127107, Note_off_c, 0, 57, 67
1, 127118, Note_off_c, 0, 64, 67
1, 127124, Note_off_c, 0, 71, 66
1, 127126, Note_off_c, 0, 76, 67
1, 127130, Note_off_c, 0, 77, 58
1, 127136, Note_off_c, 0, 82, 65
1, 127141, Note_off_c, 0, 85, 66
1, 127305, Note_on_c, 0, 75, 96
1, 127311, Note_on_c, 0, 68, 87
1, 127314, Note_on_c, 0, 70, 85
1, 127406, Note_off_c, 0, 68, 54
1, 127414, Note_off_c, 0, 70, 60
1, 127417, Note_on_c, 0, 81, 115
1, 127417, Note_on_c, 0, 89, 112
1, 127423, Note_off_c, 0, 75, 53
1, 127486, Note_off_c, 0, 81, 51
1, 127593, Note_off_c, 0, 89, 55
1, 127682, Note_on_c, 0, 85, 96
1, 127683, Note_on_c, 0, 82, 96
1, 127686, Note_on_c, 0, 76, 90
1, 127687, Note_on_c, 0, 77, 87
1, 127691, Note_on_c, 0, 64, 83
1, 127694, Note_on_c, 0, 72, 86
1, 127706, Note_off_c, 0, 77, 71
1, 127711, Note_off_c, 0, 76, 69
1, 127725, Note_off_c, 0, 82, 65
1, 127726, Note_off_c, 0, 85, 68
1, 127730, Note_off_c, 0, 64, 65
1, 127730, Note_off_c, 0, 72, 64
1, 127923, Note_on_c, 0, 58, 84
1, 127927, Note_on_c, 0, 72, 88
1, 127933, Note_on_c, 0, 65, 76
1, 127967, Note_off_c, 0, 58, 64
1, 127973, Note_off_c, 0, 65, 57
1, 127973, Note_off_c, 0, 72, 64
1, 128040, Note_on_c, 0, 89, 108
1, 128041, Note_on_c, 0, 81, 101
1, 128085, Note_off_c, 0, 81, 57
1, 128165, Note_off_c, 0, 89, 58
1, 128170, Note_on_c, 0, 75, 97
1, 128176, Note_on_c, 0, 68, 84
1, 128178, Note_on_c, 0, 70, 81
1, 128268, Note_on_c, 0, 85, 101
1, 128270, Note_on_c, 0, 82, 97
1, 128274, Note_on_c, 0, 77, 87
1, 128276, Note_on_c, 0, 76, 88
1, 128294, Note_off_c, 0, 76, 74
1, 128300, Note_off_c, 0, 77, 62
1, 128304, Note_off_c, 0, 82, 62
1, 128309, Note_off_c, 0, 85, 61
1, 128319, Note_off_c, 0, 75, 46
1, 128351, Note_off_c, 0, 70, 27
1, 128479, Note_off_c, 0, 68, 41
1, 128498, Note_on_c, 0, 72, 88
1, 128499, Note_on_c, 0, 64, 85
1, 128545, Note_off_c, 0, 72, 66
1, 128547, Note_off_c, 0, 64, 65
1, 128611, Note_on_c, 0, 89, 115
1, 128611, Note_on_c, 0, 81, 112
1, 128674, Note_off_c, 0, 81, 41
1, 128730, Note_on_c, 0, 66, 87
1, 128730, Note_on_c, 0, 73, 95
1, 128739, Note_on_c, 0, 60, 68
1, 128756, Note_off_c, 0, 89, 55
1, 128760, Note_off_c, 0, 60, 65
1, 128778, Note_off_c, 0, 66, 66
1, 128783, Note_off_c, 0, 73, 63
1, 128836, Note_on_c, 0, 85, 104
1, 128837, Note_on_c, 0, 82, 98
1, 128842, Note_on_c, 0, 77, 87
1, 128843, Note_on_c, 0, 76, 93
1, 128861, Note_off_c, 0, 77, 70
1, 128870, Note_off_c, 0, 76, 65
1, 128889, Note_off_c, 0, 82, 63
1, 128891, Note_off_c, 0, 85, 67
1, 128956, Note_on_c, 0, 75, 100
1, 128965, Note_on_c, 0, 70, 85
1, 128966, Note_on_c, 0, 68, 83
1, 129083, Note_off_c, 0, 75, 60
1, 129117, Note_off_c, 0, 70, 55
1, 129126, Note_off_c, 0, 68, 58
1, 129179, Note_on_c, 0, 81, 114
1, 129179, Note_on_c, 0, 89, 108
1, 129215, Note_off_c, 0, 81, 56
1, 129240, Note_off_c, 0, 89, 61
1, 129280, Note_on_c, 0, 72, 96
1, 129282, Note_on_c, 0, 64, 88
1, 129323, Note_off_c, 0, 64, 66
1, 129332, Note_off_c, 0, 72, 65
1, 129386, Note_on_c, 0, 85, 101
1, 129386, Note_on_c, 0, 82, 98
1, 129392, Note_on_c, 0, 76, 90
1, 129392, Note_on_c, 0, 77, 87
1, 129411, Note_off_c, 0, 77, 71
1, 129412, Note_off_c, 0, 76, 70
1, 129425, Note_on_c, 0, 87, 32
1, 129426, Note_off_c, 0, 87, 127
1, 129430, Note_off_c, 0, 82, 63
1, 129432, Note_off_c, 0, 85, 67
1, 129630, Note_on_c, 0, 67, 93
1, 129797, Note_on_c, 0, 81, 109
1, 129797, Note_on_c, 0, 89, 117
1, 129803, Note_on_c, 0, 75, 88
1, 129810, Note_on_c, 0, 68, 83
1, 129817, Note_on_c, 0, 70, 75
1, 129836, Note_off_c, 0, 67, 54
1, 129887, Note_off_c, 0, 75, 62
1, 129914, Note_off_c, 0, 68, 60
1, 129915, Note_off_c, 0, 70, 62
1, 129972, Note_off_c, 0, 81, 56
1, 130001, Note_off_c, 0, 89, 58
1, 130054, Note_on_c, 0, 82, 103
1, 130054, Note_on_c, 0, 85, 104
1, 130059, Note_on_c, 0, 77, 91
1, 130061, Note_on_c, 0, 76, 94
1, 130078, Note_off_c, 0, 77, 68
1, 130081, Note_off_c, 0, 76, 67
1, 130093, Note_off_c, 0, 82, 63
1, 130095, Note_off_c, 0, 85, 67
1, 130166, Note_on_c, 0, 64, 88
1, 130167, Note_on_c, 0, 72, 90
1, 130213, Note_off_c, 0, 72, 64
1, 130223, Note_off_c, 0, 64, 62
1, 130264, Note_on_c, 0, 68, 96
1, 130274, Note_on_c, 0, 61, 85
1, 130338, Note_off_c, 0, 68, 62
1, 130343, Note_off_c, 0, 61, 62
1, 130390, Note_on_c, 0, 81, 109
1, 130390, Note_on_c, 0, 89, 115
1, 130501, Note_off_c, 0, 81, 44
1, 130560, Note_off_c, 0, 89, 57
1, 130649, Note_on_c, 0, 85, 104
1, 130650, Note_on_c, 0, 76, 100
1, 130650, Note_on_c, 0, 82, 94
1, 130653, Note_on_c, 0, 77, 95
1, 130656, Note_on_c, 0, 75, 96
1, 130660, Note_on_c, 0, 68, 87
1, 130660, Note_on_c, 0, 70, 88
1, 130707, Note_off_c, 0, 76, 67
1, 130709, Note_off_c, 0, 77, 56
1, 130715, Note_off_c, 0, 82, 62
1, 130718, Note_off_c, 0, 85, 66
1, 130792, Note_off_c, 0, 75, 61
1, 130991, Note_on_c, 0, 81, 107
1, 130991, Note_on_c, 0, 89, 118
1, 131007, Note_on_c, 0, 72, 96
1, 131008, Note_on_c, 0, 64, 89
1, 131008, Note_off_c, 0, 70, 0
1, 131028, Note_on_c, 0, 70, 37
1, 131057, Note_off_c, 0, 70, 55
1, 131073, Note_off_c, 0, 72, 67
1, 131092, Note_off_c, 0, 68, 49
1, 131123, Note_off_c, 0, 64, 64
1, 131195, Note_off_c, 0, 81, 47
1, 131366, Note_off_c, 0, 89, 55
1, 131408, Note_on_c, 0, 85, 93
1, 131412, Note_on_c, 0, 77, 94
1, 131413, Note_on_c, 0, 82, 95
1, 131415, Note_on_c, 0, 76, 98
1, 131463, Note_off_c, 0, 76, 69
1, 131466, Note_off_c, 0, 85, 71
1, 131470, Note_off_c, 0, 77, 58
1, 131473, Note_off_c, 0, 82, 62
1, 131501, Control_c, 0, 66, 0
1, 131513, Note_on_c, 0, 38, 100
1, 131520, Note_on_c, 0, 26, 90
1, 131535, Note_on_c, 0, 29, 58
1, 131559, Note_on_c, 0, 28, 47
1, 131604, Note_on_c, 0, 68, 107
1, 131608, Note_on_c, 0, 75, 91
1, 131608, Note_off_c, 0, 28, 45
1, 131633, Note_off_c, 0, 68, 71
1, 131638, Note_on_c, 0, 76, 49
1, 131656, Note_off_c, 0, 75, 64
1, 131660, Note_off_c, 0, 76, 62
1, 131664, Note_off_c, 0, 29, 0
1, 131693, Control_c, 0, 67, 24
1, 131702, Poly_aftertouch_c, 0, 29, 127
1, 131708, Control_c, 0, 67, 38
1, 131723, Control_c, 0, 67, 44
1, 131738, Control_c, 0, 67, 48
1, 131753, Control_c, 0, 67, 52
1, 131767, Control_c, 0, 67, 62
1, 131782, Control_c, 0, 67, 75
1, 131797, Control_c, 0, 67, 90
1, 131812, Control_c, 0, 67, 111
1, 131826, Control_c, 0, 67, 127
1, 131842, Poly_aftertouch_c, 0, 29, 0
1, 131878, Poly_aftertouch_c, 0, 29, 127
1, 131958, Note_off_c, 0, 26, 57
1, 132008, Poly_aftertouch_c, 0, 29, 0
1, 132011, Note_off_c, 0, 38, 56
1, 133893, Note_on_c, 0, 66, 51
1, 133897, Note_on_c, 0, 64, 40
1, 133907, Note_on_c, 0, 48, 34
1, 133910, Control_c, 0, 64, 110
1, 133921, Note_on_c, 0, 55, 26
1, 133925, Control_c, 0, 64, 102
1, 133940, Control_c, 0, 64, 95
1, 133954, Control_c, 0, 64, 91
1, 133969, Control_c, 0, 64, 87
1, 133984, Control_c, 0, 64, 84
1, 133999, Control_c, 0, 64, 81
1, 134014, Control_c, 0, 64, 78
1, 134028, Control_c, 0, 64, 75
1, 134043, Control_c, 0, 64, 72
1, 134058, Control_c, 0, 64, 70
1, 134072, Control_c, 0, 64, 69
1, 134087, Control_c, 0, 64, 67
1, 134102, Control_c, 0, 64, 66
1, 134117, Control_c, 0, 64, 65
1, 134132, Control_c, 0, 64, 65
1, 134146, Control_c, 0, 64, 64
1, 134176, Control_c, 0, 64, 64
1, 134206, Control_c, 0, 64, 63
1, 134221, Control_c, 0, 64, 63
1, 134251, Control_c, 0, 64, 62
1, 134266, Control_c, 0, 64, 62
1, 134295, Control_c, 0, 64, 61
1, 134310, Control_c, 0, 64, 61
1, 134361, Control_c, 0, 64, 60
1, 134391, Control_c, 0, 64, 60
1, 134406, Control_c, 0, 64, 59
1, 134465, Control_c, 0, 64, 59
1, 134629, Control_c, 0, 64, 58
1, 134851, Control_c, 0, 64, 58
1, 134874, Note_on_c, 0, 67, 45
1, 134881, Control_c, 0, 64, 57
1, 134895, Control_c, 0, 64, 57
1, 134899, Note_on_c, 0, 56, 28
1, 134910, Control_c, 0, 64, 56
1, 134912, Note_off_c, 0, 66, 36
1, 134925, Control_c, 0, 64, 56
1, 134940, Control_c, 0, 64, 55
1, 134955, Control_c, 0, 64, 55
1, 134984, Control_c, 0, 64, 54
1, 134987, Note_off_c, 0, 55, 40
1, 135044, Control_c, 0, 64, 56
1, 135058, Control_c, 0, 64, 58
1, 135073, Control_c, 0, 64, 62
1, 135088, Control_c, 0, 64, 64
1, 135110, Control_c, 0, 64, 66
1, 135125, Control_c, 0, 64, 69
1, 135140, Control_c, 0, 64, 73
1, 135155, Control_c, 0, 64, 78
1, 135170, Control_c, 0, 64, 86
1, 135184, Control_c, 0, 64, 101
1, 135199, Control_c, 0, 64, 127
1, 135609, Note_off_c, 0, 48, 24
1, 135729, Note_on_c, 0, 70, 51
1, 135733, Control_c, 0, 64, 108
1, 135741, Note_on_c, 0, 49, 37
1, 135748, Control_c, 0, 64, 98
1, 135751, Note_off_c, 0, 67, 43
1, 135763, Control_c, 0, 64, 92
1, 135778, Control_c, 0, 64, 87
1, 135792, Control_c, 0, 64, 84
1, 135807, Control_c, 0, 64, 81
1, 135822, Control_c, 0, 64, 79
1, 135837, Control_c, 0, 64, 78
1, 135861, Note_off_c, 0, 64, 40
1, 135889, Control_c, 0, 64, 78
1, 135904, Control_c, 0, 64, 80
1, 135919, Control_c, 0, 64, 84
1, 135933, Control_c, 0, 64, 90
1, 135948, Control_c, 0, 64, 100
1, 135963, Control_c, 0, 64, 110
1, 135978, Control_c, 0, 64, 121
1, 135993, Control_c, 0, 64, 127
1, 136066, Control_c, 0, 64, 118
1, 136081, Control_c, 0, 64, 107
1, 136096, Control_c, 0, 64, 100
1, 136111, Control_c, 0, 64, 93
1, 136127, Control_c, 0, 64, 87
1, 136142, Control_c, 0, 64, 81
1, 136155, Note_on_c, 0, 65, 40
1, 136156, Control_c, 0, 64, 76
1, 136164, Note_off_c, 0, 49, 38
1, 136165, Note_on_c, 0, 50, 38
1, 136171, Control_c, 0, 64, 73
1, 136186, Control_c, 0, 64, 70
1, 136201, Control_c, 0, 64, 70
1, 136230, Control_c, 0, 64, 71
1, 136245, Control_c, 0, 64, 72
1, 136260, Control_c, 0, 64, 73
1, 136275, Control_c, 0, 64, 75
1, 136290, Control_c, 0, 64, 78
1, 136304, Control_c, 0, 64, 81
1, 136319, Control_c, 0, 64, 85
1, 136334, Control_c, 0, 64, 89
1, 136349, Control_c, 0, 64, 92
1, 136364, Control_c, 0, 64, 98
1, 136379, Control_c, 0, 64, 107
1, 136394, Control_c, 0, 64, 127
1, 136529, Note_off_c, 0, 70, 40
1, 136688, Note_off_c, 0, 56, 36
1, 136965, Control_c, 0, 64, 121
1, 136976, Note_off_c, 0, 65, 27
1, 136979, Control_c, 0, 64, 100
1, 136994, Control_c, 0, 64, 87
1, 137009, Control_c, 0, 64, 79
1, 137024, Control_c, 0, 64, 72
1, 137031, Note_on_c, 0, 71, 45
1, 137039, Control_c, 0, 64, 67
1, 137040, Note_on_c, 0, 66, 44
1, 137042, Note_on_c, 0, 57, 28
1, 137053, Control_c, 0, 64, 63
1, 137068, Control_c, 0, 64, 59
1, 137083, Control_c, 0, 64, 55
1, 137097, Control_c, 0, 64, 54
1, 137112, Control_c, 0, 64, 56
1, 137127, Control_c, 0, 64, 58
1, 137142, Control_c, 0, 64, 61
1, 137157, Control_c, 0, 64, 63
1, 137172, Control_c, 0, 64, 65
1, 137187, Control_c, 0, 64, 67
1, 137202, Control_c, 0, 64, 70
1, 137217, Control_c, 0, 64, 75
1, 137232, Control_c, 0, 64, 82
1, 137246, Control_c, 0, 64, 90
1, 137261, Control_c, 0, 64, 97
1, 137268, Note_off_c, 0, 57, 38
1, 137276, Control_c, 0, 64, 107
1, 137290, Control_c, 0, 64, 127
1, 137311, Note_off_c, 0, 50, 38
1, 137697, Control_c, 0, 64, 106
1, 137712, Control_c, 0, 64, 92
1, 137721, Note_on_c, 0, 60, 36
1, 137728, Control_c, 0, 64, 84
1, 137743, Note_on_c, 0, 51, 34
1, 137743, Control_c, 0, 64, 78
1, 137758, Control_c, 0, 64, 74
1, 137802, Control_c, 0, 64, 75
1, 137817, Control_c, 0, 64, 77
1, 137832, Control_c, 0, 64, 80
1, 137847, Control_c, 0, 64, 86
1, 137862, Control_c, 0, 64, 97
1, 137876, Control_c, 0, 64, 115
1, 137891, Control_c, 0, 64, 127
1, 138067, Note_off_c, 0, 51, 34
1, 138106, Control_c, 0, 64, 102
1, 138108, Note_off_c, 0, 66, 43
1, 138109, Note_on_c, 0, 67, 52
1, 138117, Note_on_c, 0, 52, 47
1, 138120, Control_c, 0, 64, 92
1, 138135, Control_c, 0, 64, 85
1, 138150, Control_c, 0, 64, 79
1, 138165, Control_c, 0, 64, 75
1, 138180, Control_c, 0, 64, 75
1, 138209, Control_c, 0, 64, 75
1, 138224, Control_c, 0, 64, 77
1, 138239, Control_c, 0, 64, 80
1, 138254, Control_c, 0, 64, 83
1, 138269, Control_c, 0, 64, 87
1, 138284, Control_c, 0, 64, 93
1, 138299, Control_c, 0, 64, 101
1, 138314, Control_c, 0, 64, 113
1, 138328, Control_c, 0, 64, 127
1, 138681, Note_off_c, 0, 71, 36
1, 138693, Note_on_c, 0, 75, 67
1, 138699, Control_c, 0, 64, 100
1, 138714, Control_c, 0, 64, 87
1, 138716, Note_on_c, 0, 61, 41
1, 138729, Control_c, 0, 64, 80
1, 138743, Control_c, 0, 64, 75
1, 138758, Control_c, 0, 64, 72
1, 138773, Control_c, 0, 64, 71
1, 138802, Note_off_c, 0, 61, 0
1, 138802, Note_on_c, 0, 61, 3
1, 138803, Control_c, 0, 64, 72
1, 138817, Control_c, 0, 64, 75
1, 138832, Control_c, 0, 64, 80
1, 138855, Control_c, 0, 64, 86
1, 138870, Control_c, 0, 64, 95
1, 138884, Control_c, 0, 64, 111
1, 138899, Control_c, 0, 64, 127
1, 138935, Note_off_c, 0, 52, 42
1, 139008, Note_off_c, 0, 60, 38
1, 139181, Control_c, 0, 64, 110
1, 139195, Control_c, 0, 64, 90
1, 139210, Control_c, 0, 64, 80
1, 139225, Note_on_c, 0, 68, 35
1, 139225, Control_c, 0, 64, 74
1, 139230, Note_on_c, 0, 53, 29
1, 139238, Note_off_c, 0, 67, 35
1, 139240, Control_c, 0, 64, 71
1, 139269, Control_c, 0, 64, 71
1, 139284, Control_c, 0, 64, 74
1, 139299, Control_c, 0, 64, 77
1, 139315, Control_c, 0, 64, 80
1, 139330, Control_c, 0, 64, 86
1, 139345, Control_c, 0, 64, 97
1, 139360, Control_c, 0, 64, 125
1, 139374, Control_c, 0, 64, 127
1, 139615, Note_off_c, 0, 61, 37
1, 139624, Note_off_c, 0, 53, 40
1, 139648, Control_c, 0, 64, 104
1, 139649, Note_off_c, 0, 68, 46
1, 139663, Control_c, 0, 64, 87
1, 139664, Note_on_c, 0, 69, 44
1, 139676, Note_on_c, 0, 54, 40
1, 139678, Control_c, 0, 64, 75
1, 139680, Note_on_c, 0, 62, 33
1, 139692, Control_c, 0, 64, 68
1, 139707, Control_c, 0, 64, 64
1, 139722, Control_c, 0, 64, 61
1, 139737, Control_c, 0, 64, 60
1, 139752, Control_c, 0, 64, 61
1, 139766, Control_c, 0, 64, 62
1, 139781, Control_c, 0, 64, 64
1, 139796, Control_c, 0, 64, 65
1, 139811, Control_c, 0, 64, 67
1, 139825, Control_c, 0, 64, 70
1, 139840, Control_c, 0, 64, 75
1, 139855, Control_c, 0, 64, 81
1, 139870, Control_c, 0, 64, 88
1, 139885, Control_c, 0, 64, 94
1, 139899, Control_c, 0, 64, 100
1, 139914, Control_c, 0, 64, 110
1, 139929, Control_c, 0, 64, 127
1, 140123, Control_c, 0, 64, 106
1, 140138, Control_c, 0, 64, 91
1, 140153, Control_c, 0, 64, 79
1, 140168, Control_c, 0, 64, 70
1, 140183, Control_c, 0, 64, 63
1, 140197, Control_c, 0, 64, 55
1, 140201, Note_on_c, 0, 63, 39
1, 140201, Note_on_c, 0, 70, 44
1, 140201, Note_off_c, 0, 69, 51
1, 140212, Control_c, 0, 64, 43
1, 140215, Note_off_c, 0, 62, 43
1, 140227, Control_c, 0, 64, 32
1, 140242, Control_c, 0, 64, 29
1, 140257, Control_c, 0, 64, 31
1, 140271, Control_c, 0, 64, 33
1, 140286, Control_c, 0, 64, 39
1, 140301, Control_c, 0, 64, 49
1, 140315, Control_c, 0, 64, 58
1, 140330, Control_c, 0, 64, 64
1, 140353, Control_c, 0, 64, 68
1, 140367, Control_c, 0, 64, 72
1, 140382, Control_c, 0, 64, 78
1, 140397, Control_c, 0, 64, 87
1, 140412, Control_c, 0, 64, 99
1, 140427, Control_c, 0, 64, 127
1, 140544, Note_off_c, 0, 54, 58
1, 140686, Note_off_c, 0, 63, 36
1, 140932, Note_off_c, 0, 70, 40
1, 141079, Control_c, 0, 64, 101
1, 141101, Control_c, 0, 64, 86
1, 141108, Note_on_c, 0, 72, 45
1, 141114, Note_on_c, 0, 64, 36
1, 141116, Control_c, 0, 64, 74
1, 141131, Control_c, 0, 64, 66
1, 141137, Note_on_c, 0, 55, 31
1, 141145, Control_c, 0, 64, 61
1, 141160, Control_c, 0, 64, 52
1, 141175, Control_c, 0, 64, 41
1, 141190, Control_c, 0, 64, 36
1, 141220, Control_c, 0, 64, 36
1, 141235, Control_c, 0, 64, 39
1, 141250, Control_c, 0, 64, 47
1, 141264, Control_c, 0, 64, 56
1, 141279, Control_c, 0, 64, 62
1, 141294, Control_c, 0, 64, 66
1, 141309, Control_c, 0, 64, 69
1, 141324, Control_c, 0, 64, 73
1, 141333, Note_off_c, 0, 75, 38
1, 141338, Control_c, 0, 64, 79
1, 141353, Control_c, 0, 64, 89
1, 141368, Control_c, 0, 64, 104
1, 141383, Control_c, 0, 64, 127
1, 141397, Note_off_c, 0, 72, 35
1, 141876, Note_off_c, 0, 55, 40
1, 142547, Control_c, 0, 64, 125
1, 142562, Control_c, 0, 64, 103
1, 142577, Control_c, 0, 64, 95
1, 142593, Note_on_c, 0, 81, 48
1, 142599, Control_c, 0, 64, 90
1, 142606, Note_on_c, 0, 74, 42
1, 142614, Control_c, 0, 64, 89
1, 142621, Note_on_c, 0, 70, 39
1, 142621, Note_on_c, 0, 78, 39
1, 142628, Note_on_c, 0, 48, 35
1, 142643, Control_c, 0, 64, 90
1, 142658, Control_c, 0, 64, 95
1, 142663, Note_off_c, 0, 74, 57
1, 142666, Note_off_c, 0, 78, 47
1, 142671, Note_off_c, 0, 70, 52
1, 142673, Control_c, 0, 64, 108
1, 142688, Control_c, 0, 64, 127
1, 142705, Note_off_c, 0, 81, 36
1, 142711, Note_off_c, 0, 48, 0
1, 142711, Note_on_c, 0, 48, 3
1, 142731, Poly_aftertouch_c, 0, 55, 127
1, 143057, Note_on_c, 0, 93, 57
1, 143076, Note_on_c, 0, 90, 49
1, 143081, Note_on_c, 0, 82, 37
1, 143088, Note_on_c, 0, 86, 42
1, 143115, Note_off_c, 0, 86, 54
1, 143116, Note_off_c, 0, 90, 47
1, 143119, Note_off_c, 0, 82, 50
1, 143122, Note_off_c, 0, 93, 59
1, 143792, Control_c, 0, 64, 121
1, 143807, Control_c, 0, 64, 114
1, 143822, Control_c, 0, 64, 110
1, 143837, Control_c, 0, 64, 106
1, 143852, Control_c, 0, 64, 102
1, 143866, Control_c, 0, 64, 99
1, 143881, Control_c, 0, 64, 95
1, 143896, Control_c, 0, 64, 94
1, 143911, Control_c, 0, 64, 94
1, 143938, Note_on_c, 0, 104, 44
1, 143943, Note_on_c, 0, 102, 39
1, 143958, Note_on_c, 0, 98, 29
1, 143965, Note_on_c, 0, 94, 23
1, 144029, Control_c, 0, 64, 95
1, 144044, Control_c, 0, 64, 95
1, 144049, Note_off_c, 0, 98, 42
1, 144051, Note_off_c, 0, 102, 41
1, 144054, Note_off_c, 0, 94, 38
1, 144058, Control_c, 0, 64, 96
1, 144073, Control_c, 0, 64, 99
1, 144086, Note_off_c, 0, 104, 36
1, 144095, Control_c, 0, 64, 106
1, 144111, Control_c, 0, 64, 127
1, 144171, Note_off_c, 0, 48, 38
1, 144187, Poly_aftertouch_c, 0, 55, 0
1, 144262, Note_off_c, 0, 64, 42
1, 144844, Control_c, 0, 64, 125
1, 144859, Control_c, 0, 64, 101
1, 144874, Control_c, 0, 64, 89
1, 144888, Control_c, 0, 64, 80
1, 144894, Note_on_c, 0, 64, 37
1, 144903, Control_c, 0, 64, 72
1, 144910, Note_on_c, 0, 49, 23
1, 144919, Note_on_c, 0, 56, 29
1, 144919, Control_c, 0, 64, 65
1, 144934, Control_c, 0, 64, 58
1, 144949, Control_c, 0, 64, 46
1, 144964, Control_c, 0, 64, 22
1, 144979, Control_c, 0, 64, 0
1, 145229, Control_c, 0, 64, 18
1, 145244, Control_c, 0, 64, 48
1, 145259, Control_c, 0, 64, 58
1, 145274, Control_c, 0, 64, 62
1, 145289, Control_c, 0, 64, 64
1, 145304, Control_c, 0, 64, 66
1, 145319, Control_c, 0, 64, 68
1, 145334, Control_c, 0, 64, 71
1, 145349, Control_c, 0, 64, 76
1, 145363, Control_c, 0, 64, 82
1, 145378, Control_c, 0, 64, 86
1, 145393, Control_c, 0, 64, 90
1, 145408, Control_c, 0, 64, 91
1, 145423, Control_c, 0, 64, 93
1, 145437, Control_c, 0, 64, 95
1, 145452, Control_c, 0, 64, 98
1, 145467, Control_c, 0, 64, 100
1, 145482, Control_c, 0, 64, 102
1, 145497, Control_c, 0, 64, 103
1, 145511, Control_c, 0, 64, 103
1, 145526, Control_c, 0, 64, 104
1, 145541, Control_c, 0, 64, 104
1, 145555, Control_c, 0, 64, 105
1, 145757, Control_c, 0, 64, 102
1, 145772, Control_c, 0, 64, 98
1, 145787, Control_c, 0, 64, 92
1, 145802, Control_c, 0, 64, 84
1, 145816, Control_c, 0, 64, 77
1, 145831, Control_c, 0, 64, 70
1, 145846, Control_c, 0, 64, 65
1, 145854, Note_on_c, 0, 65, 29
1, 145855, Note_on_c, 0, 75, 41
1, 145860, Control_c, 0, 64, 59
1, 145867, Note_on_c, 0, 72, 35
1, 145875, Control_c, 0, 64, 48
1, 145890, Control_c, 0, 64, 33
1, 145891, Note_on_c, 0, 69, 12
1, 145892, Note_on_c, 0, 71, 27
1, 145905, Control_c, 0, 64, 28
1, 145920, Control_c, 0, 64, 29
1, 145934, Control_c, 0, 64, 37
1, 145949, Control_c, 0, 64, 46
1, 145964, Control_c, 0, 64, 53
1, 145978, Control_c, 0, 64, 59
1, 145993, Control_c, 0, 64, 63
1, 146008, Control_c, 0, 64, 64
1, 146023, Control_c, 0, 64, 66
1, 146033, Note_off_c, 0, 64, 40
1, 146038, Control_c, 0, 64, 68
1, 146052, Control_c, 0, 64, 71
1, 146067, Control_c, 0, 64, 77
1, 146082, Control_c, 0, 64, 84
1, 146097, Control_c, 0, 64, 88
1, 146112, Control_c, 0, 64, 92
1, 146123, Note_off_c, 0, 56, 38
1, 146127, Control_c, 0, 64, 97
1, 146129, Note_off_c, 0, 49, 37
1, 146141, Control_c, 0, 64, 101
1, 146156, Control_c, 0, 64, 106
1, 146171, Control_c, 0, 64, 118
1, 146186, Control_c, 0, 64, 127
1, 146341, Control_c, 0, 64, 115
1, 146356, Control_c, 0, 64, 97
1, 146371, Control_c, 0, 64, 84
1, 146386, Control_c, 0, 64, 75
1, 146397, Note_on_c, 0, 57, 43
1, 146401, Control_c, 0, 64, 68
1, 146411, Note_on_c, 0, 50, 32
1, 146416, Control_c, 0, 64, 64
1, 146431, Control_c, 0, 64, 64
1, 146460, Control_c, 0, 64, 66
1, 146475, Control_c, 0, 64, 67
1, 146490, Control_c, 0, 64, 69
1, 146505, Control_c, 0, 64, 70
1, 146515, Note_off_c, 0, 57, 60
1, 146519, Note_off_c, 0, 65, 31
1, 146520, Control_c, 0, 64, 72
1, 146535, Control_c, 0, 64, 76
1, 146550, Control_c, 0, 64, 83
1, 146565, Control_c, 0, 64, 93
1, 146565, Control_c, 0, 67, 127
1, 146580, Control_c, 0, 64, 100
1, 146580, Control_c, 0, 67, 121
1, 146595, Control_c, 0, 64, 110
1, 146595, Control_c, 0, 67, 113
1, 146608, Note_off_c, 0, 50, 37
1, 146609, Control_c, 0, 64, 127
1, 146609, Control_c, 0, 67, 105
1, 146624, Control_c, 0, 67, 99
1, 146639, Control_c, 0, 67, 93
1, 146654, Control_c, 0, 67, 87
1, 146669, Control_c, 0, 67, 82
1, 146683, Control_c, 0, 67, 78
1, 146698, Control_c, 0, 67, 76
1, 146713, Control_c, 0, 67, 75
1, 146728, Control_c, 0, 67, 74
1, 146757, Control_c, 0, 64, 107
1, 146772, Control_c, 0, 64, 91
1, 146779, Note_on_c, 0, 66, 62
1, 146783, Note_on_c, 0, 51, 44
1, 146787, Control_c, 0, 64, 79
1, 146788, Note_on_c, 0, 61, 43
1, 146788, Note_off_c, 0, 72, 42
1, 146791, Note_on_c, 0, 58, 43
1, 146797, Note_off_c, 0, 69, 44
1, 146801, Control_c, 0, 64, 71
1, 146812, Note_off_c, 0, 71, 40
1, 146816, Control_c, 0, 64, 66
1, 146831, Control_c, 0, 64, 63
1, 146861, Control_c, 0, 64, 64
1, 146861, Control_c, 0, 67, 74
1, 146875, Control_c, 0, 64, 65
1, 146890, Control_c, 0, 64, 67
1, 146905, Control_c, 0, 64, 71
1, 146920, Control_c, 0, 64, 78
1, 146920, Control_c, 0, 67, 73
1, 146935, Control_c, 0, 64, 92
1, 146935, Control_c, 0, 67, 71
1, 146939, Note_off_c, 0, 75, 60
1, 146945, Note_off_c, 0, 66, 58
1, 146949, Control_c, 0, 64, 108
1, 146949, Control_c, 0, 67, 66
1, 146964, Control_c, 0, 64, 127
1, 146964, Control_c, 0, 67, 61
1, 146979, Control_c, 0, 67, 55
1, 146994, Control_c, 0, 67, 49
1, 147009, Control_c, 0, 67, 44
1, 147024, Control_c, 0, 67, 41
1, 147039, Control_c, 0, 67, 38
1, 147054, Control_c, 0, 67, 34
1, 147069, Control_c, 0, 67, 31
1, 147090, Control_c, 0, 67, 29
1, 147105, Control_c, 0, 67, 28
1, 147132, Note_off_c, 0, 51, 38
1, 147238, Control_c, 0, 67, 28
1, 147253, Control_c, 0, 67, 29
1, 147283, Control_c, 0, 67, 29
1, 147298, Control_c, 0, 67, 30
1, 147313, Control_c, 0, 64, 107
1, 147313, Control_c, 0, 67, 31
1, 147315, Note_on_c, 0, 78, 70
1, 147328, Control_c, 0, 64, 87
1, 147338, Note_on_c, 0, 52, 40
1, 147343, Control_c, 0, 64, 75
1, 147343, Control_c, 0, 67, 31
1, 147346, Note_on_c, 0, 67, 43
1, 147358, Control_c, 0, 64, 68
1, 147358, Control_c, 0, 67, 32
1, 147373, Control_c, 0, 64, 64
1, 147387, Control_c, 0, 64, 64
1, 147387, Control_c, 0, 67, 33
1, 147402, Control_c, 0, 64, 64
1, 147402, Control_c, 0, 67, 35
1, 147417, Control_c, 0, 64, 67
1, 147417, Control_c, 0, 67, 36
1, 147432, Control_c, 0, 64, 69
1, 147432, Control_c, 0, 67, 37
1, 147447, Control_c, 0, 64, 72
1, 147447, Control_c, 0, 67, 38
1, 147462, Control_c, 0, 64, 76
1, 147462, Control_c, 0, 67, 39
1, 147477, Control_c, 0, 64, 82
1, 147477, Control_c, 0, 67, 39
1, 147492, Control_c, 0, 64, 90
1, 147492, Control_c, 0, 67, 40
1, 147506, Control_c, 0, 64, 98
1, 147506, Control_c, 0, 67, 40
1, 147521, Control_c, 0, 64, 105
1, 147521, Control_c, 0, 67, 41
1, 147536, Control_c, 0, 64, 113
1, 147536, Control_c, 0, 67, 43
1, 147551, Control_c, 0, 64, 127
1, 147551, Control_c, 0, 67, 45
1, 147566, Control_c, 0, 67, 47
1, 147580, Control_c, 0, 67, 50
1, 147595, Control_c, 0, 67, 52
1, 147602, Note_off_c, 0, 78, 58
1, 147603, Note_off_c, 0, 61, 40
1, 147610, Control_c, 0, 67, 54
1, 147624, Control_c, 0, 67, 56
1, 147639, Control_c, 0, 67, 58
1, 147654, Control_c, 0, 67, 60
1, 147669, Control_c, 0, 67, 62
1, 147684, Control_c, 0, 67, 64
1, 147698, Control_c, 0, 67, 66
1, 147713, Control_c, 0, 67, 69
1, 147728, Note_off_c, 0, 67, 37
1, 147728, Control_c, 0, 67, 72
1, 147743, Control_c, 0, 67, 76
1, 147757, Control_c, 0, 64, 112
1, 147757, Control_c, 0, 67, 81
1, 147772, Control_c, 0, 64, 91
1, 147772, Control_c, 0, 67, 86
1, 147787, Control_c, 0, 64, 76
1, 147787, Control_c, 0, 67, 90
1, 147794, Note_on_c, 0, 81, 58
1, 147802, Note_on_c, 0, 62, 39
1, 147802, Control_c, 0, 64, 66
1, 147802, Control_c, 0, 67, 95
1, 147805, Note_on_c, 0, 77, 43
1, 147817, Control_c, 0, 64, 55
1, 147817, Control_c, 0, 67, 101
1, 147839, Control_c, 0, 64, 19
1, 147839, Control_c, 0, 67, 107
1, 147854, Control_c, 0, 64, 0
1, 147854, Control_c, 0, 67, 113
1, 147859, Poly_aftertouch_c, 0, 67, 127
1, 147869, Control_c, 0, 67, 119
1, 147883, Poly_aftertouch_c, 0, 72, 127
1, 147884, Control_c, 0, 67, 125
1, 147899, Control_c, 0, 67, 127
1, 147928, Control_c, 0, 64, 10
1, 147943, Control_c, 0, 64, 50
1, 147957, Control_c, 0, 64, 62
1, 147972, Control_c, 0, 64, 66
1, 147987, Control_c, 0, 64, 69
1, 148002, Control_c, 0, 64, 71
1, 148017, Control_c, 0, 64, 75
1, 148031, Control_c, 0, 64, 82
1, 148046, Control_c, 0, 64, 92
1, 148061, Control_c, 0, 64, 101
1, 148076, Control_c, 0, 64, 107
1, 148091, Control_c, 0, 64, 113
1, 148107, Control_c, 0, 64, 127
1, 148139, Poly_aftertouch_c, 0, 67, 0
1, 148216, Note_off_c, 0, 52, 40
1, 148677, Control_c, 0, 64, 106
1, 148692, Control_c, 0, 64, 95
1, 148707, Control_c, 0, 64, 87
1, 148711, Note_on_c, 0, 68, 35
1, 148722, Control_c, 0, 64, 79
1, 148736, Control_c, 0, 64, 71
1, 148751, Control_c, 0, 64, 64
1, 148766, Control_c, 0, 64, 56
1, 148774, Poly_aftertouch_c, 0, 53, 127
1, 148780, Control_c, 0, 64, 42
1, 148795, Control_c, 0, 64, 8
1, 148810, Control_c, 0, 64, 0
1, 149003, Control_c, 0, 64, 43
1, 149018, Control_c, 0, 64, 60
1, 149033, Control_c, 0, 64, 66
1, 149048, Control_c, 0, 64, 70
1, 149063, Control_c, 0, 64, 74
1, 149078, Control_c, 0, 64, 80
1, 149093, Control_c, 0, 64, 88
1, 149107, Control_c, 0, 64, 98
1, 149122, Control_c, 0, 64, 113
1, 149137, Control_c, 0, 64, 127
1, 149254, Note_off_c, 0, 62, 40
1, 149287, Note_off_c, 0, 58, 40
1, 149307, Poly_aftertouch_c, 0, 53, 0
1, 149994, Note_on_c, 0, 59, 42
1, 150024, Note_on_c, 0, 48, 23
1, 150122, Note_off_c, 0, 59, 35
1, 150133, Note_on_c, 0, 55, 38
1, 150177, Note_off_c, 0, 48, 37
1, 150231, Note_off_c, 0, 55, 37
1, 150250, Note_on_c, 0, 53, 38
1, 150320, Note_off_c, 0, 53, 62
1, 150390, Note_on_c, 0, 50, 31
1, 150499, Note_on_c, 0, 61, 51
1, 150605, Note_off_c, 0, 61, 45
1, 150622, Note_on_c, 0, 57, 49
1, 150746, Note_on_c, 0, 59, 46
1, 150768, Note_off_c, 0, 57, 31
1, 150849, Control_c, 0, 67, 125
1, 150852, Note_off_c, 0, 59, 35
1, 150859, Note_off_c, 0, 50, 38
1, 150864, Control_c, 0, 67, 117
1, 150879, Control_c, 0, 67, 109
1, 150881, Note_on_c, 0, 53, 43
1, 150894, Control_c, 0, 67, 101
1, 150909, Control_c, 0, 67, 93
1, 150924, Control_c, 0, 67, 86
1, 150938, Control_c, 0, 67, 81
1, 150952, Note_off_c, 0, 53, 40
1, 150953, Control_c, 0, 67, 76
1, 150968, Control_c, 0, 67, 67
1, 150982, Control_c, 0, 67, 52
1, 150997, Control_c, 0, 67, 35
1, 151000, Note_on_c, 0, 55, 42
1, 151012, Control_c, 0, 67, 19
1, 151027, Control_c, 0, 67, 0
1, 151117, Control_c, 0, 64, 111
1, 151126, Note_on_c, 0, 51, 66
1, 151129, Note_off_c, 0, 55, 35
1, 151131, Control_c, 0, 64, 94
1, 151146, Control_c, 0, 64, 81
1, 151161, Control_c, 0, 64, 72
1, 151161, Control_c, 0, 67, 9
1, 151175, Control_c, 0, 64, 65
1, 151175, Control_c, 0, 67, 47
1, 151190, Control_c, 0, 64, 60
1, 151190, Control_c, 0, 67, 88
1, 151205, Control_c, 0, 64, 51
1, 151205, Control_c, 0, 67, 127
1, 151220, Control_c, 0, 64, 49
1, 151235, Control_c, 0, 64, 54
1, 151249, Control_c, 0, 64, 58
1, 151264, Control_c, 0, 64, 63
1, 151278, Note_on_c, 0, 61, 28
1, 151279, Control_c, 0, 64, 67
1, 151295, Control_c, 0, 64, 72
1, 151310, Control_c, 0, 64, 79
1, 151325, Control_c, 0, 64, 86
1, 151340, Control_c, 0, 64, 92
1, 151354, Control_c, 0, 64, 98
1, 151369, Control_c, 0, 64, 110
1, 151376, Note_off_c, 0, 51, 51
1, 151384, Control_c, 0, 64, 127
1, 151394, Note_on_c, 0, 55, 46
1, 151402, Note_off_c, 0, 61, 39
1, 151490, Note_off_c, 0, 55, 58
1, 151507, Note_off_c, 0, 81, 29
1, 151539, Note_on_c, 0, 57, 24
1, 151584, Control_c, 0, 64, 110
1, 151590, Note_off_c, 0, 57, 48
1, 151598, Control_c, 0, 64, 89
1, 151613, Control_c, 0, 64, 77
1, 151628, Control_c, 0, 64, 68
1, 151635, Note_on_c, 0, 60, 55
1, 151643, Control_c, 0, 64, 64
1, 151646, Note_on_c, 0, 52, 55
1, 151658, Control_c, 0, 64, 63
1, 151671, Poly_aftertouch_c, 0, 72, 0
1, 151673, Control_c, 0, 64, 65
1, 151674, Note_off_c, 0, 77, 41
1, 151687, Note_off_c, 0, 68, 46
1, 151687, Control_c, 0, 64, 67
1, 151702, Control_c, 0, 64, 69
1, 151717, Control_c, 0, 64, 73
1, 151732, Control_c, 0, 64, 78
1, 151746, Control_c, 0, 64, 84
1, 151754, Note_off_c, 0, 60, 37
1, 151761, Control_c, 0, 64, 91
1, 151776, Control_c, 0, 64, 97
1, 151787, Note_on_c, 0, 55, 53
1, 151791, Control_c, 0, 64, 104
1, 151805, Control_c, 0, 64, 114
1, 151820, Control_c, 0, 64, 127
1, 151865, Note_off_c, 0, 55, 58
1, 151866, Note_off_c, 0, 52, 29
1, 151895, Note_on_c, 0, 57, 45
1, 151973, Note_off_c, 0, 57, 44
1, 151984, Control_c, 0, 64, 105
1, 151998, Control_c, 0, 64, 84
1, 152010, Note_on_c, 0, 61, 62
1, 152013, Control_c, 0, 64, 67
1, 152022, Note_on_c, 0, 53, 55
1, 152028, Control_c, 0, 64, 57
1, 152043, Control_c, 0, 64, 38
1, 152058, Control_c, 0, 64, 39
1, 152072, Control_c, 0, 64, 49
1, 152087, Control_c, 0, 64, 57
1, 152103, Control_c, 0, 64, 63
1, 152118, Control_c, 0, 64, 66
1, 152133, Control_c, 0, 64, 69
1, 152148, Control_c, 0, 64, 75
1, 152157, Note_on_c, 0, 63, 49
1, 152163, Control_c, 0, 64, 85
1, 152177, Control_c, 0, 64, 96
1, 152192, Control_c, 0, 64, 113
1, 152199, Note_off_c, 0, 53, 37
1, 152207, Control_c, 0, 64, 127
1, 152246, Note_off_c, 0, 61, 36
1, 152276, Note_on_c, 0, 65, 54
1, 152391, Note_on_c, 0, 71, 57
1, 152392, Control_c, 0, 64, 115
1, 152407, Control_c, 0, 64, 84
1, 152421, Control_c, 0, 64, 67
1, 152427, Note_off_c, 0, 65, 31
1, 152436, Control_c, 0, 64, 49
1, 152451, Control_c, 0, 64, 0
1, 152455, Note_off_c, 0, 71, 49
1, 152495, Control_c, 0, 64, 47
1, 152499, Note_on_c, 0, 67, 60
1, 152510, Control_c, 0, 64, 64
1, 152511, Note_on_c, 0, 54, 56
1, 152511, Note_on_c, 0, 62, 56
1, 152525, Control_c, 0, 64, 72
1, 152540, Control_c, 0, 64, 83
1, 152545, Note_off_c, 0, 63, 44
1, 152554, Control_c, 0, 64, 93
1, 152566, Note_off_c, 0, 54, 60
1, 152567, Note_off_c, 0, 62, 51
1, 152569, Control_c, 0, 64, 101
1, 152584, Control_c, 0, 64, 119
1, 152599, Control_c, 0, 64, 127
1, 152617, Note_on_c, 0, 69, 57
1, 152624, Note_off_c, 0, 67, 38
1, 152673, Control_c, 0, 64, 89
1, 152681, Note_off_c, 0, 69, 63
1, 152688, Control_c, 0, 64, 67
1, 152702, Control_c, 0, 64, 49
1, 152717, Control_c, 0, 64, 0
1, 152724, Note_on_c, 0, 64, 62
1, 152732, Note_on_c, 0, 56, 66
1, 152735, Note_on_c, 0, 61, 68
1, 152747, Control_c, 0, 64, 38
1, 152762, Control_c, 0, 64, 59
1, 152777, Control_c, 0, 64, 70
1, 152792, Control_c, 0, 64, 83
1, 152805, Note_off_c, 0, 56, 58
1, 152807, Control_c, 0, 64, 116
1, 152816, Note_off_c, 0, 61, 47
1, 152821, Control_c, 0, 64, 127
1, 152833, Note_on_c, 0, 65, 63
1, 152839, Note_off_c, 0, 64, 52
1, 152939, Note_off_c, 0, 65, 48
1, 152958, Note_on_c, 0, 73, 64
1, 153030, Control_c, 0, 64, 87
1, 153038, Note_off_c, 0, 73, 55
1, 153044, Control_c, 0, 64, 69
1, 153059, Control_c, 0, 64, 53
1, 153075, Note_on_c, 0, 62, 62
1, 153078, Note_on_c, 0, 71, 66
1, 153079, Note_on_c, 0, 57, 59
1, 153081, Control_c, 0, 64, 0
1, 153155, Note_off_c, 0, 62, 57
1, 153159, Note_off_c, 0, 71, 61
1, 153160, Note_off_c, 0, 57, 60
1, 153198, Note_on_c, 0, 66, 64
1, 153293, Note_on_c, 0, 60, 57
1, 153302, Note_on_c, 0, 75, 71
1, 153314, Note_off_c, 0, 66, 48
1, 153333, Control_c, 0, 64, 52
1, 153348, Control_c, 0, 64, 63
1, 153358, Note_off_c, 0, 60, 62
1, 153363, Control_c, 0, 64, 69
1, 153368, Note_off_c, 0, 75, 62
1, 153377, Control_c, 0, 64, 79
1, 153392, Control_c, 0, 64, 99
1, 153397, Note_on_c, 0, 56, 69
1, 153407, Control_c, 0, 64, 127
1, 153415, Note_on_c, 0, 71, 65
1, 153447, Note_off_c, 0, 56, 57
1, 153451, Control_c, 0, 64, 106
1, 153466, Control_c, 0, 64, 81
1, 153468, Note_off_c, 0, 71, 55
1, 153481, Control_c, 0, 64, 63
1, 153496, Control_c, 0, 64, 0
1, 153518, Note_on_c, 0, 58, 69
1, 153522, Note_on_c, 0, 67, 72
1, 153524, Note_on_c, 0, 63, 69
1, 153564, Note_off_c, 0, 63, 58
1, 153570, Control_c, 0, 64, 48
1, 153584, Note_off_c, 0, 58, 62
1, 153585, Control_c, 0, 64, 68
1, 153600, Control_c, 0, 64, 101
1, 153615, Control_c, 0, 64, 127
1, 153638, Note_on_c, 0, 77, 64
1, 153641, Note_off_c, 0, 67, 52
1, 153654, Note_on_c, 0, 68, 53
1, 153681, Note_off_c, 0, 77, 56
1, 153692, Note_off_c, 0, 68, 52
1, 153731, Note_on_c, 0, 59, 60
1, 153739, Note_on_c, 0, 64, 60
1, 153746, Note_on_c, 0, 73, 73
1, 153782, Note_off_c, 0, 64, 56
1, 153799, Note_off_c, 0, 73, 62
1, 153851, Note_off_c, 0, 59, 58
1, 153852, Note_on_c, 0, 62, 74
1, 153856, Note_on_c, 0, 68, 76
1, 153898, Note_off_c, 0, 62, 59
1, 153919, Note_off_c, 0, 68, 62
1, 153949, Control_c, 0, 64, 86
1, 153962, Note_on_c, 0, 65, 77
1, 153964, Control_c, 0, 64, 63
1, 153969, Note_on_c, 0, 79, 77
1, 153979, Control_c, 0, 64, 0
1, 153991, Note_on_c, 0, 60, 51
1, 154015, Note_off_c, 0, 65, 58
1, 154023, Control_c, 0, 64, 15
1, 154032, Note_off_c, 0, 79, 60
1, 154038, Control_c, 0, 64, 60
1, 154053, Control_c, 0, 64, 72
1, 154065, Note_on_c, 0, 75, 71
1, 154068, Control_c, 0, 64, 97
1, 154083, Control_c, 0, 64, 127
1, 154106, Note_on_c, 0, 66, 66
1, 154117, Note_off_c, 0, 60, 24
1, 154165, Note_off_c, 0, 75, 63
1, 154169, Note_on_c, 0, 71, 79
1, 154203, Note_on_c, 0, 68, 77
1, 154224, Note_off_c, 0, 71, 62
1, 154256, Note_off_c, 0, 68, 59
1, 154262, Note_off_c, 0, 66, 48
1, 154283, Note_on_c, 0, 70, 71
1, 154305, Note_on_c, 0, 62, 67
1, 154354, Note_off_c, 0, 70, 62
1, 154376, Note_off_c, 0, 62, 60
1, 154387, Note_on_c, 0, 73, 74
1, 154407, Note_on_c, 0, 64, 71
1, 154443, Note_off_c, 0, 64, 53
1, 154455, Note_off_c, 0, 73, 60
1, 154467, Control_c, 0, 64, 108
1, 154482, Control_c, 0, 64, 70
1, 154498, Control_c, 0, 64, 0
1, 154503, Note_on_c, 0, 81, 68
1, 154521, Note_on_c, 0, 66, 78
1, 154532, Note_on_c, 0, 61, 71
1, 154558, Control_c, 0, 64, 59
1, 154573, Note_off_c, 0, 81, 56
1, 154580, Control_c, 0, 64, 77
1, 154595, Note_off_c, 0, 66, 63
1, 154595, Control_c, 0, 64, 127
1, 154622, Note_on_c, 0, 76, 73
1, 154625, Note_off_c, 0, 61, 58
1, 154634, Note_on_c, 0, 68, 83
1, 154639, Note_on_c, 0, 71, 59
1, 154654, Control_c, 0, 67, 127
1, 154669, Control_c, 0, 67, 119
1, 154684, Control_c, 0, 67, 110
1, 154685, Note_off_c, 0, 76, 63
1, 154691, Note_off_c, 0, 68, 63
1, 154691, Note_off_c, 0, 71, 48
1, 154698, Control_c, 0, 67, 100
1, 154713, Control_c, 0, 67, 92
1, 154728, Control_c, 0, 67, 83
1, 154729, Note_on_c, 0, 70, 68
1, 154733, Note_on_c, 0, 79, 74
1, 154743, Control_c, 0, 67, 74
1, 154757, Control_c, 0, 67, 67
1, 154772, Control_c, 0, 67, 61
1, 154787, Control_c, 0, 67, 57
1, 154789, Note_off_c, 0, 70, 61
1, 154802, Control_c, 0, 67, 55
1, 154816, Control_c, 0, 67, 54
1, 154828, Note_on_c, 0, 64, 75
1, 154831, Control_c, 0, 67, 53
1, 154834, Note_off_c, 0, 79, 55
1, 154834, Note_on_c, 0, 83, 77
1, 154846, Control_c, 0, 67, 51
1, 154861, Control_c, 0, 67, 49
1, 154876, Control_c, 0, 67, 48
1, 154889, Note_off_c, 0, 83, 61
1, 154890, Control_c, 0, 67, 45
1, 154905, Control_c, 0, 64, 113
1, 154905, Control_c, 0, 67, 43
1, 154913, Note_off_c, 0, 64, 59
1, 154920, Control_c, 0, 64, 70
1, 154920, Control_c, 0, 67, 41
1, 154935, Control_c, 0, 64, 40
1, 154935, Control_c, 0, 67, 41
1, 154947, Note_on_c, 0, 77, 92
1, 154950, Control_c, 0, 64, 0
1, 154950, Control_c, 0, 67, 40
1, 154955, Note_on_c, 0, 67, 76
1, 154956, Note_on_c, 0, 72, 72
1, 154962, Note_on_c, 0, 62, 71
1, 154965, Control_c, 0, 67, 40
1, 154980, Control_c, 0, 64, 34
1, 154995, Control_c, 0, 64, 66
1, 155010, Control_c, 0, 64, 112
1, 155010, Control_c, 0, 67, 39
1, 155011, Note_off_c, 0, 67, 62
1, 155018, Note_off_c, 0, 72, 60
1, 155024, Control_c, 0, 64, 127
1, 155024, Control_c, 0, 67, 39
1, 155028, Note_off_c, 0, 77, 59
1, 155039, Control_c, 0, 67, 38
1, 155054, Control_c, 0, 67, 37
1, 155057, Note_off_c, 0, 62, 60
1, 155066, Note_on_c, 0, 85, 74
1, 155069, Control_c, 0, 67, 36
1, 155075, Note_on_c, 0, 70, 68
1, 155084, Control_c, 0, 67, 35
1, 155098, Control_c, 0, 67, 34
1, 155123, Note_off_c, 0, 70, 47
1, 155139, Note_off_c, 0, 85, 55
1, 155163, Note_on_c, 0, 66, 73
1, 155174, Note_on_c, 0, 81, 62
1, 155202, Control_c, 0, 67, 33
1, 155215, Note_off_c, 0, 66, 64
1, 155240, Note_off_c, 0, 81, 57
1, 155261, Control_c, 0, 64, 97
1, 155261, Control_c, 0, 67, 33
1, 155276, Control_c, 0, 64, 67
1, 155286, Note_on_c, 0, 83, 89
1, 155290, Note_on_c, 0, 63, 76
1, 155292, Control_c, 0, 64, 43
1, 155302, Note_on_c, 0, 68, 71
1, 155307, Control_c, 0, 64, 23
1, 155328, Control_c, 0, 64, 50
1, 155343, Control_c, 0, 64, 66
1, 155358, Control_c, 0, 64, 98
1, 155372, Control_c, 0, 64, 127
1, 155382, Note_off_c, 0, 68, 60
1, 155382, Note_off_c, 0, 83, 60
1, 155402, Control_c, 0, 67, 32
1, 155403, Note_on_c, 0, 78, 85
1, 155415, Note_on_c, 0, 74, 58
1, 155417, Control_c, 0, 67, 32
1, 155425, Note_on_c, 0, 72, 76
1, 155429, Note_off_c, 0, 63, 52
1, 155432, Control_c, 0, 67, 31
1, 155446, Control_c, 0, 67, 31
1, 155457, Note_off_c, 0, 74, 42
1, 155461, Control_c, 0, 67, 30
1, 155472, Note_off_c, 0, 72, 63
1, 155513, Note_on_c, 0, 87, 83
1, 155516, Note_off_c, 0, 78, 35
1, 155528, Note_on_c, 0, 66, 80
1, 155535, Control_c, 0, 67, 29
1, 155550, Control_c, 0, 67, 29
1, 155564, Control_c, 0, 67, 28
1, 155577, Note_off_c, 0, 66, 64
1, 155586, Note_off_c, 0, 87, 59
1, 155594, Control_c, 0, 67, 28
1, 155612, Note_on_c, 0, 81, 78
1, 155629, Note_on_c, 0, 70, 76
1, 155674, Note_off_c, 0, 81, 60
1, 155677, Note_off_c, 0, 70, 64
1, 155683, Control_c, 0, 64, 75
1, 155683, Control_c, 0, 67, 27
1, 155698, Control_c, 0, 64, 38
1, 155713, Control_c, 0, 64, 0
1, 155713, Control_c, 0, 67, 27
1, 155724, Note_on_c, 0, 79, 95
1, 155730, Note_on_c, 0, 75, 90
1, 155733, Note_on_c, 0, 69, 83
1, 155739, Note_on_c, 0, 65, 78
1, 155758, Control_c, 0, 64, 44
1, 155772, Control_c, 0, 64, 69
1, 155772, Control_c, 0, 67, 26
1, 155787, Control_c, 0, 64, 127
1, 155787, Control_c, 0, 67, 26
1, 155797, Note_off_c, 0, 65, 56
1, 155802, Control_c, 0, 67, 25
1, 155814, Note_off_c, 0, 69, 60
1, 155817, Control_c, 0, 67, 24
1, 155832, Control_c, 0, 67, 23
1, 155833, Note_on_c, 0, 74, 78
1, 155835, Note_off_c, 0, 75, 63
1, 155835, Note_off_c, 0, 79, 53
1, 155836, Note_on_c, 0, 83, 79
1, 155846, Control_c, 0, 67, 22
1, 155861, Control_c, 0, 67, 21
1, 155876, Control_c, 0, 67, 20
1, 155887, Note_off_c, 0, 74, 63
1, 155905, Control_c, 0, 67, 19
1, 155917, Poly_aftertouch_c, 0, 65, 0
1, 155920, Control_c, 0, 67, 19
1, 155935, Control_c, 0, 67, 18
1, 155946, Note_on_c, 0, 85, 81
1, 155949, Note_on_c, 0, 70, 79
1, 155949, Note_off_c, 0, 83, 58
1, 155950, Control_c, 0, 67, 16
1, 155964, Control_c, 0, 67, 14
1, 155979, Control_c, 0, 67, 12
1, 155994, Control_c, 0, 67, 10
1, 156005, Note_off_c, 0, 70, 62
1, 156009, Control_c, 0, 67, 8
1, 156011, Note_off_c, 0, 85, 59
1, 156024, Control_c, 0, 67, 0
1, 156050, Note_on_c, 0, 81, 84
1, 156051, Note_on_c, 0, 66, 78
1, 156076, Note_on_c, 0, 71, 81
1, 156136, Note_off_c, 0, 71, 61
1, 156165, Note_off_c, 0, 81, 0
1, 156171, Note_on_c, 0, 82, 91
1, 156176, Note_on_c, 0, 64, 82
1, 156184, Note_on_c, 0, 80, 79
1, 156187, Note_on_c, 0, 76, 61
1, 156202, Poly_aftertouch_c, 0, 81, 127
1, 156209, Note_off_c, 0, 66, 64
1, 156232, Note_off_c, 0, 82, 66
1, 156236, Note_off_c, 0, 76, 61
1, 156236, Note_off_c, 0, 80, 62
1, 156249, Poly_aftertouch_c, 0, 81, 0
1, 156274, Note_on_c, 0, 85, 86
1, 156274, Note_on_c, 0, 70, 82
1, 156274, Note_off_c, 0, 64, 63
1, 156321, Note_off_c, 0, 70, 64
1, 156327, Note_off_c, 0, 85, 64
1, 156371, Note_on_c, 0, 72, 80
1, 156377, Note_on_c, 0, 83, 73
1, 156380, Note_on_c, 0, 81, 85
1, 156381, Note_on_c, 0, 77, 86
1, 156423, Note_off_c, 0, 72, 66
1, 156426, Note_off_c, 0, 77, 58
1, 156432, Note_off_c, 0, 81, 60
1, 156452, Note_off_c, 0, 83, 62
1, 156480, Note_on_c, 0, 70, 67
1, 156485, Note_on_c, 0, 73, 86
1, 156485, Note_on_c, 0, 89, 86
1, 156488, Note_on_c, 0, 67, 72
1, 156509, Note_off_c, 0, 70, 65
1, 156511, Note_on_c, 0, 88, 51
1, 156535, Note_off_c, 0, 67, 58
1, 156535, Note_off_c, 0, 88, 60
1, 156539, Note_off_c, 0, 89, 66
1, 156544, Note_off_c, 0, 73, 60
1, 156579, Note_on_c, 0, 76, 81
1, 156592, Note_on_c, 0, 87, 91
1, 156619, Note_on_c, 0, 85, 43
1, 156625, Control_c, 0, 64, 72
1, 156640, Control_c, 0, 64, 26
1, 156640, Note_off_c, 0, 76, 65
1, 156643, Note_off_c, 0, 85, 56
1, 156649, Note_off_c, 0, 87, 63
1, 156655, Control_c, 0, 64, 0
1, 156694, Note_on_c, 0, 74, 83
1, 156694, Note_on_c, 0, 84, 91
1, 156695, Note_on_c, 0, 68, 89
1, 156700, Note_on_c, 0, 82, 82
1, 156706, Note_on_c, 0, 78, 80
1, 156713, Control_c, 0, 64, 62
1, 156728, Control_c, 0, 64, 84
1, 156743, Control_c, 0, 64, 127
1, 156753, Note_off_c, 0, 74, 64
1, 156759, Note_off_c, 0, 82, 59
1, 156761, Note_off_c, 0, 78, 62
1, 156776, Note_off_c, 0, 84, 62
1, 156782, Note_off_c, 0, 68, 61
1, 156798, Note_on_c, 0, 76, 83
1, 156813, Note_on_c, 0, 85, 91
1, 156864, Note_off_c, 0, 76, 67
1, 156876, Note_off_c, 0, 85, 65
1, 156917, Note_on_c, 0, 89, 90
1, 156918, Note_on_c, 0, 72, 83
1, 156974, Note_off_c, 0, 72, 66
1, 156977, Note_off_c, 0, 89, 66
1, 157017, Control_c, 0, 64, 93
1, 157022, Note_on_c, 0, 87, 97
1, 157022, Note_on_c, 0, 75, 99
1, 157028, Note_on_c, 0, 76, 92
1, 157032, Control_c, 0, 64, 65
1, 157034, Note_on_c, 0, 69, 76
1, 157047, Control_c, 0, 64, 0
1, 157077, Control_c, 0, 64, 14
1, 157091, Control_c, 0, 64, 64
1, 157096, Note_off_c, 0, 75, 64
1, 157106, Control_c, 0, 64, 98
1, 157117, Note_off_c, 0, 76, 65
1, 157121, Control_c, 0, 64, 127
1, 157124, Note_on_c, 0, 70, 88
1, 157126, Note_on_c, 0, 85, 92
1, 157131, Note_on_c, 0, 81, 91
1, 157133, Note_on_c, 0, 77, 84
1, 157137, Note_off_c, 0, 69, 58
1, 157137, Note_off_c, 0, 87, 35
1, 157185, Note_off_c, 0, 81, 62
1, 157199, Note_off_c, 0, 77, 58
1, 157200, Note_off_c, 0, 70, 60
1, 157209, Note_off_c, 0, 85, 64
1, 157224, Note_on_c, 0, 72, 79
1, 157237, Note_on_c, 0, 89, 88
1, 157292, Note_off_c, 0, 72, 64
1, 157293, Note_off_c, 0, 89, 65
1, 157337, Note_on_c, 0, 87, 96
1, 157339, Note_on_c, 0, 74, 86
1, 157401, Note_off_c, 0, 74, 64
1, 157408, Note_off_c, 0, 87, 63
1, 157447, Control_c, 0, 64, 76
1, 157451, Note_on_c, 0, 86, 93
1, 157454, Note_on_c, 0, 82, 92
1, 157457, Note_on_c, 0, 70, 88
1, 157462, Note_on_c, 0, 79, 88
1, 157462, Control_c, 0, 64, 45
1, 157463, Note_on_c, 0, 76, 79
1, 157464, Note_on_c, 0, 77, 86
1, 157477, Control_c, 0, 64, 0
1, 157521, Control_c, 0, 64, 53
1, 157529, Note_off_c, 0, 76, 50
1, 157530, Note_off_c, 0, 82, 64
1, 157531, Note_off_c, 0, 79, 59
1, 157534, Note_off_c, 0, 77, 56
1, 157535, Control_c, 0, 64, 75
1, 157536, Note_off_c, 0, 86, 61
1, 157550, Control_c, 0, 64, 127
1, 157572, Note_on_c, 0, 72, 80
1, 157575, Note_on_c, 0, 87, 86
1, 157589, Note_off_c, 0, 70, 52
1, 157627, Note_off_c, 0, 87, 64
1, 157640, Note_off_c, 0, 72, 61
1, 157675, Note_on_c, 0, 74, 78
1, 157678, Note_on_c, 0, 91, 84
1, 157741, Note_off_c, 0, 91, 60
1, 157742, Note_off_c, 0, 74, 63
1, 157781, Control_c, 0, 64, 69
1, 157788, Note_on_c, 0, 89, 96
1, 157796, Control_c, 0, 64, 0
1, 157797, Note_on_c, 0, 78, 93
1, 157803, Note_on_c, 0, 71, 72
1, 157840, Control_c, 0, 64, 43
1, 157855, Control_c, 0, 64, 71
1, 157856, Note_off_c, 0, 71, 60
1, 157861, Note_off_c, 0, 78, 59
1, 157865, Note_off_c, 0, 89, 68
1, 157870, Control_c, 0, 64, 127
1, 157890, Note_on_c, 0, 87, 92
1, 157896, Note_on_c, 0, 80, 89
1, 157897, Note_on_c, 0, 76, 84
1, 157947, Note_off_c, 0, 76, 65
1, 157949, Note_off_c, 0, 80, 62
1, 157960, Note_off_c, 0, 87, 60
1, 157998, Note_on_c, 0, 74, 79
1, 158006, Note_on_c, 0, 91, 77
1, 158032, Note_on_c, 0, 93, 39
1, 158033, Note_off_c, 0, 93, 127
1, 158045, Note_off_c, 0, 74, 65
1, 158069, Note_off_c, 0, 91, 60
1, 158104, Note_on_c, 0, 80, 94
1, 158108, Note_on_c, 0, 88, 91
1, 158112, Note_on_c, 0, 85, 88
1, 158116, Note_on_c, 0, 81, 74
1, 158163, Note_off_c, 0, 80, 62
1, 158183, Note_off_c, 0, 81, 60
1, 158189, Note_off_c, 0, 85, 61
1, 158192, Note_off_c, 0, 88, 60
1, 158225, Note_on_c, 0, 76, 84
1, 158226, Note_on_c, 0, 91, 85
1, 158235, Note_on_c, 0, 79, 53
1, 158246, Note_on_c, 0, 89, 59
1, 158257, Note_off_c, 0, 79, 58
1, 158259, Note_on_c, 0, 73, 51
1, 158268, Note_off_c, 0, 89, 39
1, 158315, Note_off_c, 0, 73, 45
1, 158327, Note_off_c, 0, 76, 54
1, 158331, Note_on_c, 0, 95, 89
1, 158345, Note_on_c, 0, 74, 74
1, 158376, Note_off_c, 0, 91, 45
1, 158386, Note_off_c, 0, 95, 66
1, 158404, Note_off_c, 0, 74, 66
1, 158438, Note_on_c, 0, 80, 95
1, 158448, Note_on_c, 0, 89, 86
1, 158453, Note_on_c, 0, 82, 88
1, 158459, Note_on_c, 0, 88, 81
1, 158487, Note_off_c, 0, 80, 67
1, 158498, Note_off_c, 0, 82, 63
1, 158501, Note_off_c, 0, 88, 59
1, 158515, Note_off_c, 0, 89, 65
1, 158555, Note_on_c, 0, 79, 82
1, 158557, Note_on_c, 0, 81, 55
1, 158559, Note_on_c, 0, 95, 92
1, 158561, Note_on_c, 0, 72, 77
1, 158614, Note_off_c, 0, 72, 64
1, 158617, Note_off_c, 0, 79, 60
1, 158620, Note_off_c, 0, 81, 62
1, 158630, Note_off_c, 0, 95, 66
1, 158659, Note_on_c, 0, 78, 89
1, 158668, Note_on_c, 0, 93, 100
1, 158679, Note_on_c, 0, 85, 84
1, 158711, Note_off_c, 0, 85, 59
1, 158721, Note_off_c, 0, 78, 63
1, 158744, Note_off_c, 0, 93, 48
1, 158757, Note_on_c, 0, 89, 91
1, 158760, Note_on_c, 0, 80, 89
1, 158769, Note_on_c, 0, 74, 69
1, 158807, Note_off_c, 0, 89, 66
1, 158815, Note_off_c, 0, 80, 64
1, 158826, Control_c, 0, 64, 78
1, 158839, Note_off_c, 0, 74, 57
1, 158841, Control_c, 0, 64, 53
1, 158855, Control_c, 0, 64, 0
1, 158866, Note_on_c, 0, 90, 103
1, 158872, Note_on_c, 0, 78, 82
1, 158874, Note_on_c, 0, 84, 89
1, 158875, Note_on_c, 0, 83, 89
1, 158885, Control_c, 0, 64, 53
1, 158900, Control_c, 0, 64, 77
1, 158915, Control_c, 0, 64, 127
1, 158938, Note_off_c, 0, 84, 59
1, 158941, Note_off_c, 0, 83, 57
1, 158958, Poly_aftertouch_c, 0, 76, 0
1, 158970, Note_on_c, 0, 87, 96
1, 158972, Note_off_c, 0, 78, 46
1, 158978, Note_on_c, 0, 76, 42
1, 158986, Note_off_c, 0, 90, 57
1, 158999, Poly_aftertouch_c, 0, 82, 127
1, 159025, Note_off_c, 0, 87, 64
1, 159045, Note_off_c, 0, 76, 63
1, 159063, Poly_aftertouch_c, 0, 82, 0
1, 159084, Note_on_c, 0, 91, 101
1, 159088, Note_on_c, 0, 85, 96
1, 159127, Note_on_c, 0, 81, 66
1, 159151, Note_off_c, 0, 85, 61
1, 159153, Note_off_c, 0, 81, 64
1, 159188, Note_on_c, 0, 89, 86
1, 159202, Note_on_c, 0, 83, 90
1, 159204, Note_on_c, 0, 74, 80
1, 159210, Note_off_c, 0, 91, 31
1, 159226, Note_on_c, 0, 88, 26
1, 159248, Note_off_c, 0, 83, 66
1, 159251, Note_off_c, 0, 89, 65
1, 159257, Note_off_c, 0, 74, 63
1, 159266, Note_off_c, 0, 88, 48
1, 159297, Note_on_c, 0, 92, 100
1, 159304, Note_on_c, 0, 87, 87
1, 159308, Note_on_c, 0, 86, 87
1, 159317, Note_on_c, 0, 82, 49
1, 159328, Note_on_c, 0, 83, 72
1, 159344, Note_off_c, 0, 83, 65
1, 159349, Note_off_c, 0, 87, 64
1, 159352, Note_off_c, 0, 82, 50
1, 159352, Note_off_c, 0, 86, 63
1, 159388, Note_off_c, 0, 92, 0
1, 159398, Note_on_c, 0, 89, 96
1, 159404, Note_on_c, 0, 80, 86
1, 159424, Poly_aftertouch_c, 0, 92, 127
1, 159428, Note_on_c, 0, 92, 17
1, 159436, Note_off_c, 0, 92, 61
1, 159456, Note_off_c, 0, 89, 68
1, 159462, Note_off_c, 0, 80, 65
1, 159505, Note_on_c, 0, 95, 105
1, 159532, Note_on_c, 0, 80, 56
1, 159553, Note_off_c, 0, 95, 68
1, 159558, Note_off_c, 0, 80, 62
1, 159575, Control_c, 0, 64, 118
1, 159590, Control_c, 0, 64, 77
1, 159604, Control_c, 0, 64, 65
1, 159608, Note_on_c, 0, 93, 84
1, 159616, Note_on_c, 0, 88, 107
1, 159619, Note_on_c, 0, 76, 88
1, 159619, Control_c, 0, 64, 60
1, 159620, Note_on_c, 0, 85, 100
1, 159634, Control_c, 0, 64, 63
1, 159635, Note_on_c, 0, 95, 49
1, 159649, Control_c, 0, 64, 71
1, 159660, Note_off_c, 0, 95, 58
1, 159664, Control_c, 0, 64, 96
1, 159666, Note_off_c, 0, 88, 61
1, 159678, Control_c, 0, 64, 127
1, 159702, Note_off_c, 0, 85, 63
1, 159715, Note_on_c, 0, 91, 98
1, 159718, Note_on_c, 0, 82, 84
1, 159722, Note_off_c, 0, 76, 60
1, 159754, Note_off_c, 0, 93, 27
1, 159777, Note_off_c, 0, 82, 60
1, 159777, Note_off_c, 0, 91, 61
1, 159817, Poly_aftertouch_c, 0, 89, 0
1, 159826, Note_on_c, 0, 80, 82
1, 159830, Note_on_c, 0, 89, 33
1, 159830, Note_on_c, 0, 94, 96
1, 159833, Note_on_c, 0, 87, 96
1, 159858, Note_on_c, 0, 92, 44
1, 159880, Note_off_c, 0, 89, 64
1, 159890, Note_off_c, 0, 92, 56
1, 159892, Note_off_c, 0, 87, 65
1, 159901, Note_off_c, 0, 94, 64
1, 159925, Note_on_c, 0, 77, 52
1, 159931, Note_on_c, 0, 86, 90
1, 159931, Note_on_c, 0, 97, 103
1, 159962, Note_off_c, 0, 80, 53
1, 159976, Note_off_c, 0, 86, 65
1, 159989, Note_off_c, 0, 97, 67
1, 160003, Note_off_c, 0, 77, 53
1, 160032, Note_on_c, 0, 95, 96
1, 160035, Note_on_c, 0, 82, 84
1, 160077, Note_off_c, 0, 95, 69
1, 160091, Note_off_c, 0, 82, 61
1, 160140, Note_on_c, 0, 93, 112
1, 160143, Note_on_c, 0, 87, 96
1, 160146, Control_c, 0, 64, 81
1, 160153, Note_on_c, 0, 89, 100
1, 160155, Note_on_c, 0, 76, 72
1, 160161, Control_c, 0, 64, 63
1, 160166, Note_off_c, 0, 89, 70
1, 160176, Control_c, 0, 64, 54
1, 160190, Control_c, 0, 64, 59
1, 160201, Note_off_c, 0, 93, 60
1, 160205, Control_c, 0, 64, 66
1, 160208, Note_off_c, 0, 87, 63
1, 160220, Control_c, 0, 64, 81
1, 160235, Control_c, 0, 64, 127
1, 160242, Note_on_c, 0, 82, 89
1, 160243, Note_on_c, 0, 96, 107
1, 160256, Note_off_c, 0, 76, 57
1, 160271, Note_on_c, 0, 95, 24
1, 160287, Note_off_c, 0, 96, 66
1, 160307, Note_off_c, 0, 82, 62
1, 160316, Note_off_c, 0, 95, 27
1, 160339, Note_on_c, 0, 96, 99
1, 160342, Note_on_c, 0, 88, 89
1, 160356, Note_on_c, 0, 77, 67
1, 160385, Note_off_c, 0, 96, 64
1, 160428, Note_off_c, 0, 77, 48
1, 160432, Note_off_c, 0, 88, 61
1, 160438, Note_on_c, 0, 97, 96
1, 160442, Note_on_c, 0, 82, 83
1, 160457, Note_on_c, 0, 96, 57
1, 160461, Note_on_c, 0, 81, 61
1, 160467, Note_on_c, 0, 83, 71
1, 160472, Control_c, 0, 64, 87
1, 160473, Note_on_c, 0, 98, 50
1, 160477, Note_off_c, 0, 96, 61
1, 160486, Control_c, 0, 64, 62
1, 160489, Note_off_c, 0, 97, 65
1, 160490, Note_off_c, 0, 83, 67
1, 160492, Note_off_c, 0, 82, 56
1, 160495, Note_off_c, 0, 98, 62
1, 160501, Control_c, 0, 64, 0
1, 160549, Note_off_c, 0, 81, 0
1, 160563, Note_on_c, 0, 100, 110
1, 160566, Note_on_c, 0, 81, 59
1, 160566, Note_on_c, 0, 89, 107
1, 160566, Note_on_c, 0, 90, 103
1, 160571, Note_on_c, 0, 94, 98
1, 160575, Note_on_c, 0, 99, 79
1, 160575, Note_on_c, 0, 84, 83
1, 160577, Note_on_c, 0, 78, 89
1, 160584, Control_c, 0, 64, 64
1, 160596, Note_off_c, 0, 99, 69
1, 160599, Control_c, 0, 64, 105
1, 160614, Note_on_c, 0, 85, 18
1, 160615, Note_off_c, 0, 85, 127
1, 160615, Control_c, 0, 64, 127
1, 160625, Note_off_c, 0, 100, 65
1, 160627, Note_off_c, 0, 94, 64
1, 160629, Note_off_c, 0, 89, 68
1, 160629, Note_off_c, 0, 90, 63
1, 160654, Note_off_c, 0, 84, 63
1, 160673, Note_off_c, 0, 81, 61
1, 160676, Note_on_c, 0, 99, 94
1, 160679, Note_off_c, 0, 78, 61
1, 160736, Note_off_c, 0, 99, 64
1, 160771, Note_on_c, 0, 94, 101
1, 160825, Note_off_c, 0, 94, 65
1, 160876, Note_on_c, 0, 91, 107
1, 160876, Note_on_c, 0, 100, 99
1, 160888, Note_on_c, 0, 97, 79
1, 160950, Note_off_c, 0, 100, 64
1, 160961, Note_off_c, 0, 91, 59
1, 160979, Note_on_c, 0, 94, 73
1, 160981, Note_off_c, 0, 97, 65
1, 160994, Note_on_c, 0, 67, 103
1, 160995, Note_on_c, 0, 93, 84
1, 160998, Note_on_c, 0, 56, 90
1, 161001, Note_on_c, 0, 59, 90
1, 161002, Note_off_c, 0, 94, 54
1, 161003, Note_on_c, 0, 64, 91
1, 161016, Note_off_c, 0, 93, 63
1, 161091, Note_on_c, 0, 102, 93
1, 161093, Note_on_c, 0, 92, 100
1, 161127, Note_off_c, 0, 102, 65
1, 161129, Note_off_c, 0, 56, 58
1, 161138, Note_off_c, 0, 67, 59
1, 161145, Note_on_c, 0, 101, 31
1, 161168, Note_off_c, 0, 92, 54
1, 161182, Note_off_c, 0, 101, 43
1, 161186, Note_on_c, 0, 94, 78
1, 161229, Note_off_c, 0, 94, 67
1, 161255, Note_off_c, 0, 59, 58
1, 161289, Note_off_c, 0, 64, 0
1, 161296, Control_c, 0, 64, 83
1, 161306, Note_on_c, 0, 64, 70
1, 161306, Note_on_c, 0, 68, 116
1, 161310, Note_on_c, 0, 93, 101
1, 161313, Note_on_c, 0, 100, 93
1, 161314, Note_on_c, 0, 102, 99
1, 161317, Note_on_c, 0, 57, 86
1, 161317, Control_c, 0, 64, 62
1, 161326, Note_on_c, 0, 60, 49
1, 161332, Control_c, 0, 64, 0
1, 161362, Control_c, 0, 64, 40
1, 161377, Control_c, 0, 64, 65
1, 161385, Note_off_c, 0, 102, 63
1, 161391, Control_c, 0, 64, 82
1, 161398, Note_off_c, 0, 93, 57
1, 161406, Control_c, 0, 64, 127
1, 161407, Note_off_c, 0, 100, 0
1, 161419, Note_on_c, 0, 100, 60
1, 161512, Note_off_c, 0, 100, 58
1, 161514, Note_on_c, 0, 96, 95
1, 161523, Note_off_c, 0, 57, 59
1, 161526, Note_off_c, 0, 60, 57
1, 161541, Note_off_c, 0, 64, 63
1, 161556, Note_off_c, 0, 96, 65
1, 161621, Note_on_c, 0, 103, 97
1, 161624, Note_on_c, 0, 94, 96
1, 161643, Note_on_c, 0, 101, 61
1, 161655, Note_on_c, 0, 100, 58
1, 161690, Note_off_c, 0, 103, 63
1, 161702, Note_off_c, 0, 94, 64
1, 161712, Note_off_c, 0, 100, 39
1, 161726, Note_off_c, 0, 101, 38
1, 161727, Note_on_c, 0, 97, 92
1, 161733, Note_on_c, 0, 65, 86
1, 161735, Note_on_c, 0, 61, 85
1, 161738, Note_on_c, 0, 58, 82
1, 161775, Note_off_c, 0, 97, 67
1, 161838, Note_on_c, 0, 95, 93
1, 161841, Note_on_c, 0, 104, 92
1, 161850, Note_on_c, 0, 101, 79
1, 161873, Note_on_c, 0, 102, 45
1, 161878, Note_off_c, 0, 102, 44
1, 161886, Note_off_c, 0, 104, 64
1, 161905, Note_off_c, 0, 101, 61
1, 161921, Note_off_c, 0, 95, 55
1, 161932, Note_on_c, 0, 97, 87
1, 161965, Note_off_c, 0, 97, 63
1, 162105, Note_on_c, 0, 96, 102
1, 162105, Note_on_c, 0, 105, 108
1, 162105, Note_off_c, 0, 61, 53
1, 162107, Note_on_c, 0, 102, 96
1, 162128, Note_off_c, 0, 58, 58
1, 162172, Note_off_c, 0, 68, 53
1, 162188, Note_off_c, 0, 105, 62
1, 162219, Note_off_c, 0, 96, 60
1, 162232, Note_on_c, 0, 101, 72
1, 162236, Note_off_c, 0, 102, 65
1, 162283, Note_off_c, 0, 101, 63
1, 162325, Note_on_c, 0, 99, 95
1, 162332, Control_c, 0, 64, 96
1, 162334, Note_on_c, 0, 70, 103
1, 162347, Note_on_c, 0, 59, 81
1, 162347, Control_c, 0, 64, 77
1, 162350, Note_on_c, 0, 62, 78
1, 162362, Control_c, 0, 64, 75
1, 162368, Note_off_c, 0, 99, 64
1, 162377, Control_c, 0, 64, 79
1, 162392, Control_c, 0, 64, 113
1, 162406, Control_c, 0, 64, 127
1, 162437, Note_on_c, 0, 97, 110
1, 162439, Note_on_c, 0, 106, 101
1, 162462, Note_on_c, 0, 103, 60
1, 162484, Note_off_c, 0, 103, 58
1, 162500, Note_off_c, 0, 62, 59
1, 162508, Note_off_c, 0, 106, 61
1, 162514, Note_off_c, 0, 97, 61
1, 162522, Note_off_c, 0, 65, 59
1, 162548, Note_on_c, 0, 99, 86
1, 162599, Note_off_c, 0, 99, 64
1, 162644, Note_on_c, 0, 101, 84
1, 162666, Note_on_c, 0, 100, 49
1, 162682, Note_off_c, 0, 101, 68
1, 162695, Note_off_c, 0, 100, 36
1, 162748, Note_on_c, 0, 66, 87
1, 162748, Note_on_c, 0, 63, 86
1, 162753, Note_on_c, 0, 98, 109
1, 162753, Note_on_c, 0, 107, 110
1, 162759, Note_on_c, 0, 100, 102
1, 162829, Note_off_c, 0, 107, 65
1, 162835, Note_off_c, 0, 98, 66
1, 162837, Note_off_c, 0, 100, 62
1, 162868, Note_on_c, 0, 105, 83
1, 162880, Note_off_c, 0, 59, 59
1, 162900, Note_off_c, 0, 63, 61
1, 162914, Note_off_c, 0, 66, 62
1, 162930, Note_off_c, 0, 70, 54
1, 162960, Note_off_c, 0, 105, 44
1, 162966, Note_on_c, 0, 103, 91
1, 162971, Note_on_c, 0, 102, 49
1, 162984, Note_on_c, 0, 104, 71
1, 163003, Note_off_c, 0, 104, 62
1, 163030, Note_off_c, 0, 103, 62
1, 163031, Note_off_c, 0, 102, 43
1, 163076, Note_on_c, 0, 99, 105
1, 163076, Note_on_c, 0, 108, 101
1, 163088, Note_on_c, 0, 101, 82
1, 163091, Note_on_c, 0, 102, 52
1, 163093, Note_on_c, 0, 104, 37
1, 163115, Note_off_c, 0, 104, 36
1, 163165, Note_off_c, 0, 99, 62
1, 163169, Note_on_c, 0, 103, 74
1, 163178, Note_on_c, 0, 73, 110
1, 163182, Note_off_c, 0, 108, 54
1, 163183, Note_off_c, 0, 101, 65
1, 163184, Note_on_c, 0, 60, 81
1, 163184, Note_on_c, 0, 67, 88
1, 163188, Note_on_c, 0, 64, 82
1, 163195, Note_off_c, 0, 102, 37
1, 163207, Note_off_c, 0, 103, 61
1, 163286, Note_on_c, 0, 108, 112
1, 163288, Note_on_c, 0, 100, 104
1, 163311, Note_on_c, 0, 102, 50
1, 163315, Note_on_c, 0, 101, 44
1, 163316, Note_off_c, 0, 101, 127
1, 163323, Note_on_c, 0, 103, 52
1, 163344, Note_off_c, 0, 67, 60
1, 163353, Note_off_c, 0, 64, 62
1, 163366, Note_off_c, 0, 103, 47
1, 163370, Note_off_c, 0, 100, 62
1, 163373, Note_off_c, 0, 108, 61
1, 163398, Note_on_c, 0, 105, 81
1, 163401, Note_off_c, 0, 102, 50
1, 163425, Note_off_c, 0, 105, 64
1, 163498, Note_on_c, 0, 107, 118
1, 163499, Note_on_c, 0, 68, 86
1, 163501, Note_on_c, 0, 101, 110
1, 163508, Note_on_c, 0, 65, 79
1, 163520, Note_on_c, 0, 106, 64
1, 163537, Note_off_c, 0, 60, 34
1, 163541, Note_off_c, 0, 106, 63
1, 163582, Note_off_c, 0, 101, 62
1, 163613, Note_on_c, 0, 105, 89
1, 163624, Note_off_c, 0, 107, 39
1, 163633, Note_off_c, 0, 65, 59
1, 163666, Note_off_c, 0, 105, 64
1, 163668, Note_off_c, 0, 68, 54
1, 163669, Note_off_c, 0, 73, 50
1, 163712, Note_on_c, 0, 103, 100
1, 163757, Note_off_c, 0, 103, 65
1, 163822, Note_on_c, 0, 102, 108
1, 163822, Note_on_c, 0, 107, 101
1, 163887, Note_off_c, 0, 102, 64
1, 163891, Note_off_c, 0, 107, 59
1, 163919, Note_on_c, 0, 74, 101
1, 163920, Note_on_c, 0, 66, 90
1, 163923, Note_on_c, 0, 61, 90
1, 163925, Note_on_c, 0, 69, 83
1, 163926, Note_on_c, 0, 104, 74
1, 163940, Note_on_c, 0, 105, 83
1, 163943, Note_off_c, 0, 104, 66
1, 163959, Note_off_c, 0, 105, 70
1, 163961, Note_on_c, 0, 103, 45
1, 163993, Note_off_c, 0, 103, 34
1, 164033, Note_on_c, 0, 107, 116
1, 164084, Note_off_c, 0, 107, 67
1, 164128, Note_off_c, 0, 61, 59
1, 164128, Note_off_c, 0, 69, 62
1, 164131, Note_on_c, 0, 105, 79
1, 164132, Note_on_c, 0, 107, 93
1, 164145, Note_off_c, 0, 66, 61
1, 164152, Note_on_c, 0, 108, 55
1, 164165, Note_off_c, 0, 74, 59
1, 164170, Note_off_c, 0, 107, 64
1, 164175, Note_off_c, 0, 108, 60
1, 164178, Note_off_c, 0, 105, 64
1, 164245, Note_on_c, 0, 108, 126
1, 164249, Note_on_c, 0, 103, 105
1, 164252, Note_on_c, 0, 105, 103
1, 164308, Note_off_c, 0, 105, 55
1, 164311, Note_off_c, 0, 103, 41
1, 164322, Note_off_c, 0, 108, 60
1, 164361, Note_on_c, 0, 105, 97
1, 164379, Note_on_c, 0, 108, 53
1, 164385, Note_on_c, 0, 107, 57
1, 164397, Note_off_c, 0, 105, 66
1, 164403, Note_off_c, 0, 108, 60
1, 164406, Note_off_c, 0, 107, 60
1, 164461, Control_c, 0, 64, 85
1, 164469, Note_on_c, 0, 108, 125
1, 164471, Note_on_c, 0, 104, 112
1, 164476, Control_c, 0, 64, 68
1, 164477, Note_on_c, 0, 77, 103
1, 164481, Note_on_c, 0, 70, 90
1, 164482, Note_on_c, 0, 64, 81
1, 164488, Note_on_c, 0, 67, 78
1, 164491, Control_c, 0, 64, 64
1, 164506, Control_c, 0, 64, 66
1, 164521, Control_c, 0, 64, 73
1, 164533, Note_off_c, 0, 104, 59
1, 164535, Control_c, 0, 64, 127
1, 164540, Note_off_c, 0, 108, 61
1, 164584, Note_on_c, 0, 105, 103
1, 164596, Note_on_c, 0, 108, 66
1, 164617, Note_off_c, 0, 67, 59
1, 164623, Note_off_c, 0, 105, 66
1, 164626, Note_off_c, 0, 108, 65
1, 164677, Note_off_c, 0, 70, 60
1, 164682, Note_on_c, 0, 107, 113
1, 164709, Note_on_c, 0, 108, 55
1, 164724, Note_off_c, 0, 107, 67
1, 164734, Note_off_c, 0, 108, 58
1, 164787, Note_on_c, 0, 108, 125
1, 164790, Note_on_c, 0, 105, 113
1, 164840, Note_off_c, 0, 105, 59
1, 164850, Note_off_c, 0, 108, 61
1, 164892, Note_on_c, 0, 107, 100
1, 164896, Note_on_c, 0, 108, 84
1, 164897, Note_on_c, 0, 68, 88
1, 164897, Note_on_c, 0, 71, 85
1, 164926, Note_off_c, 0, 108, 63
1, 164943, Note_off_c, 0, 107, 67
1, 164995, Note_off_c, 0, 77, 55
1, 164996, Note_on_c, 0, 108, 107
1, 165002, Note_on_c, 0, 106, 103
1, 165018, Note_off_c, 0, 71, 58
1, 165031, Note_off_c, 0, 68, 60
1, 165055, Note_off_c, 0, 108, 62
1, 165073, Note_off_c, 0, 106, 65
1, 165103, Note_on_c, 0, 107, 102
1, 165163, Note_off_c, 0, 107, 66
1, 165195, Control_c, 0, 64, 98
1, 165210, Note_on_c, 0, 108, 122
1, 165210, Control_c, 0, 64, 89
1, 165216, Note_on_c, 0, 78, 108
1, 165219, Note_on_c, 0, 69, 78
1, 165225, Note_on_c, 0, 72, 84
1, 165225, Control_c, 0, 64, 84
1, 165240, Control_c, 0, 64, 83
1, 165243, Note_off_c, 0, 108, 68
1, 165284, Control_c, 0, 64, 92
1, 165299, Control_c, 0, 64, 127
1, 165640, Control_c, 0, 64, 102
1, 165654, Control_c, 0, 64, 97
1, 165685, Control_c, 0, 64, 98
1, 165699, Control_c, 0, 64, 106
1, 165714, Control_c, 0, 64, 127
1, 165851, Note_off_c, 0, 69, 54
1, 165868, Note_off_c, 0, 72, 61
1, 165902, Note_off_c, 0, 64, 59
1, 165992, Note_on_c, 0, 59, 51
1, 166010, Note_on_c, 0, 53, 42
1, 166015, Note_on_c, 0, 48, 41
1, 166083, Note_off_c, 0, 48, 0
1, 166083, Note_on_c, 0, 48, 8
1, 166136, Control_c, 0, 64, 88
1, 166151, Control_c, 0, 64, 58
1, 166152, Note_on_c, 0, 73, 91
1, 166152, Note_on_c, 0, 70, 85
1, 166155, Note_on_c, 0, 65, 79
1, 166166, Control_c, 0, 64, 0
1, 166210, Control_c, 0, 64, 61
1, 166220, Note_off_c, 0, 59, 60
1, 166221, Note_off_c, 0, 48, 53
1, 166224, Control_c, 0, 64, 83
1, 166239, Control_c, 0, 64, 127
1, 166385, Note_off_c, 0, 65, 53
1, 166528, Note_off_c, 0, 78, 56
1, 166581, Note_on_c, 0, 49, 38
1, 166588, Note_on_c, 0, 60, 41
1, 166649, Note_off_c, 0, 60, 0
1, 166649, Note_on_c, 0, 60, 9
1, 166702, Note_off_c, 0, 60, 46
1, 166767, Note_on_c, 0, 79, 99
1, 166769, Note_on_c, 0, 66, 90
1, 166784, Note_off_c, 0, 49, 40
1, 166889, Note_on_c, 0, 61, 71
1, 166902, Note_off_c, 0, 73, 56
1, 166916, Note_on_c, 0, 50, 48
1, 166957, Note_off_c, 0, 70, 60
1, 166995, Note_off_c, 0, 66, 63
1, 167010, Note_off_c, 0, 53, 41
1, 167026, Note_off_c, 0, 79, 51
1, 167186, Note_on_c, 0, 81, 102
1, 167193, Note_on_c, 0, 67, 88
1, 167208, Note_off_c, 0, 50, 36
1, 167232, Note_on_c, 0, 70, 43
1, 167263, Note_off_c, 0, 70, 55
1, 167506, Note_off_c, 0, 61, 60
1, 167528, Note_on_c, 0, 62, 61
1, 167535, Note_on_c, 0, 56, 49
1, 167558, Note_on_c, 0, 51, 36
1, 167655, Note_on_c, 0, 74, 84
1, 167659, Note_on_c, 0, 71, 80
1, 167693, Note_off_c, 0, 56, 36
1, 167750, Note_off_c, 0, 51, 39
1, 167813, Note_off_c, 0, 67, 58
1, 167845, Note_off_c, 0, 71, 64
1, 167859, Note_off_c, 0, 74, 65
1, 167908, Note_on_c, 0, 57, 54
1, 167933, Note_on_c, 0, 52, 28
1, 167973, Note_off_c, 0, 52, 53
1, 167973, Note_off_c, 0, 57, 60
1, 168009, Note_off_c, 0, 62, 60
1, 168115, Note_on_c, 0, 75, 91
1, 168117, Note_on_c, 0, 72, 79
1, 168118, Note_on_c, 0, 68, 86
1, 168214, Note_on_c, 0, 63, 89
1, 168226, Note_on_c, 0, 53, 67
1, 168230, Note_on_c, 0, 58, 69
1, 168254, Note_off_c, 0, 72, 63
1, 168256, Note_off_c, 0, 68, 62
1, 168270, Note_off_c, 0, 81, 50
1, 168273, Note_off_c, 0, 75, 62
1, 168355, Note_off_c, 0, 58, 56
1, 168483, Note_on_c, 0, 83, 101
1, 168483, Note_off_c, 0, 53, 40
1, 168487, Note_on_c, 0, 73, 85
1, 168489, Note_on_c, 0, 69, 87
1, 168491, Note_on_c, 0, 76, 95
1, 168630, Note_off_c, 0, 69, 63
1, 168643, Note_off_c, 0, 76, 61
1, 168652, Note_off_c, 0, 73, 61
1, 168662, Note_off_c, 0, 83, 54
1, 168735, Note_on_c, 0, 59, 53
1, 168743, Note_on_c, 0, 54, 35
1, 168785, Note_off_c, 0, 59, 54
1, 168895, Note_on_c, 0, 84, 103
1, 168899, Note_on_c, 0, 78, 96
1, 168901, Note_on_c, 0, 71, 87
1, 168902, Note_on_c, 0, 75, 90
1, 168903, Note_off_c, 0, 54, 38
1, 169003, Note_on_c, 0, 66, 76
1, 169003, Note_off_c, 0, 71, 58
1, 169005, Note_off_c, 0, 75, 67
1, 169013, Note_off_c, 0, 78, 67
1, 169023, Note_on_c, 0, 60, 57
1, 169032, Note_on_c, 0, 55, 48
1, 169036, Note_off_c, 0, 63, 62
1, 169042, Note_off_c, 0, 84, 61
1, 169111, Note_off_c, 0, 55, 0
1, 169138, Note_on_c, 0, 55, 20
1, 169265, Control_c, 0, 64, 84
1, 169269, Note_on_c, 0, 86, 105
1, 169275, Note_on_c, 0, 82, 87
1, 169276, Note_on_c, 0, 79, 78
1, 169280, Control_c, 0, 64, 73
1, 169284, Note_on_c, 0, 76, 72
1, 169290, Note_on_c, 0, 72, 54
1, 169295, Note_off_c, 0, 55, 42
1, 169295, Control_c, 0, 64, 70
1, 169310, Control_c, 0, 64, 71
1, 169324, Control_c, 0, 64, 77
1, 169330, Note_off_c, 0, 72, 0
1, 169330, Note_on_c, 0, 72, 19
1, 169339, Control_c, 0, 64, 96
1, 169354, Control_c, 0, 64, 127
1, 169379, Note_off_c, 0, 72, 50
1, 169412, Note_off_c, 0, 76, 53
1, 169446, Note_off_c, 0, 79, 60
1, 169461, Note_off_c, 0, 82, 63
1, 169562, Note_off_c, 0, 86, 56
1, 169567, Note_off_c, 0, 60, 0
1, 169604, Poly_aftertouch_c, 0, 60, 127
1, 169624, Note_off_c, 0, 66, 65
1, 169642, Note_on_c, 0, 67, 57
1, 169695, Note_on_c, 0, 56, 25
1, 169805, Note_off_c, 0, 56, 31
1, 169819, Note_on_c, 0, 78, 100
1, 169822, Note_on_c, 0, 77, 90
1, 169823, Note_on_c, 0, 73, 87
1, 169887, Poly_aftertouch_c, 0, 60, 0
1, 169929, Note_off_c, 0, 73, 55
1, 169931, Note_off_c, 0, 77, 58
1, 169935, Note_off_c, 0, 78, 66
1, 169935, Note_on_c, 0, 63, 72
1, 169960, Note_on_c, 0, 57, 36
1, 170173, Note_off_c, 0, 57, 36
1, 170184, Note_on_c, 0, 83, 92
1, 170188, Note_on_c, 0, 74, 83
1, 170191, Note_on_c, 0, 79, 86
1, 170193, Note_on_c, 0, 76, 75
1, 170201, Note_off_c, 0, 63, 61
1, 170212, Note_off_c, 0, 67, 40
1, 170443, Note_off_c, 0, 74, 62
1, 170523, Note_on_c, 0, 69, 63
1, 170525, Note_on_c, 0, 64, 53
1, 170545, Note_on_c, 0, 58, 42
1, 170555, Note_off_c, 0, 76, 52
1, 170716, Note_off_c, 0, 69, 57
1, 170790, Note_off_c, 0, 58, 42
1, 170828, Note_off_c, 0, 79, 59
1, 170828, Note_off_c, 0, 83, 58
1, 170841, Note_on_c, 0, 75, 89
1, 170841, Note_on_c, 0, 88, 105
1, 171068, Note_on_c, 0, 70, 77
1, 171078, Note_on_c, 0, 59, 64
1, 171270, Note_off_c, 0, 59, 57
1, 171279, Note_off_c, 0, 64, 60
1, 171279, Note_on_c, 0, 85, 98
1, 171282, Note_on_c, 0, 80, 92
1, 171285, Note_on_c, 0, 78, 88
1, 171424, Note_off_c, 0, 88, 57
1, 171437, Note_off_c, 0, 75, 61
1, 171464, Note_off_c, 0, 85, 62
1, 171488, Note_off_c, 0, 80, 61
1, 171494, Note_off_c, 0, 78, 55
1, 171572, Note_on_c, 0, 65, 63
1, 171577, Note_on_c, 0, 68, 71
1, 171579, Note_on_c, 0, 60, 69
1, 171659, Control_c, 0, 64, 116
1, 171674, Control_c, 0, 64, 64
1, 171689, Control_c, 0, 64, 0
1, 171713, Note_on_c, 0, 89, 107
1, 171718, Note_on_c, 0, 76, 89
1, 171720, Note_on_c, 0, 83, 87
1, 171721, Note_on_c, 0, 81, 87
1, 171726, Note_on_c, 0, 79, 83
1, 171733, Control_c, 0, 64, 61
1, 171748, Control_c, 0, 64, 127
1, 171815, Note_off_c, 0, 89, 70
1, 171833, Note_off_c, 0, 60, 0
1, 171833, Note_off_c, 0, 83, 58
1, 171835, Note_off_c, 0, 81, 60
1, 171837, Note_off_c, 0, 79, 56
1, 171852, Note_off_c, 0, 76, 59
1, 171855, Note_on_c, 0, 60, 39
1, 172241, Note_off_c, 0, 65, 32
1, 172274, Note_off_c, 0, 68, 32
1, 172323, Note_off_c, 0, 60, 30
1, 172666, Control_c, 0, 67, 8
1, 172681, Control_c, 0, 67, 9
1, 172696, Control_c, 0, 67, 10
1, 172711, Control_c, 0, 67, 12
1, 172726, Control_c, 0, 67, 13
1, 172740, Control_c, 0, 67, 14
1, 172755, Control_c, 0, 67, 16
1, 172770, Control_c, 0, 67, 17
1, 172785, Control_c, 0, 67, 18
1, 172800, Control_c, 0, 67, 19
1, 172815, Control_c, 0, 67, 20
1, 172823, Note_on_c, 0, 69, 52
1, 172829, Control_c, 0, 67, 21
1, 172844, Control_c, 0, 67, 22
1, 172854, Note_on_c, 0, 62, 22
1, 172860, Control_c, 0, 67, 23
1, 172868, Note_on_c, 0, 66, 26
1, 172875, Control_c, 0, 67, 25
1, 172889, Control_c, 0, 67, 27
1, 172904, Control_c, 0, 67, 29
1, 172919, Control_c, 0, 67, 31
1, 172934, Control_c, 0, 67, 33
1, 172949, Control_c, 0, 67, 35
1, 172964, Control_c, 0, 67, 38
1, 172979, Control_c, 0, 67, 41
1, 172993, Control_c, 0, 67, 44
1, 173008, Control_c, 0, 67, 48
1, 173014, Note_off_c, 0, 70, 33
1, 173023, Control_c, 0, 67, 51
1, 173036, Note_off_c, 0, 62, 38
1, 173038, Control_c, 0, 67, 54
1, 173052, Note_on_c, 0, 50, 46
1, 173053, Control_c, 0, 67, 55
1, 173059, Note_off_c, 0, 66, 46
1, 173061, Note_on_c, 0, 41, 41
1, 173068, Control_c, 0, 67, 57
1, 173072, Note_on_c, 0, 46, 45
1, 173082, Control_c, 0, 67, 58
1, 173097, Control_c, 0, 67, 59
1, 173312, Control_c, 0, 67, 58
1, 173330, Note_off_c, 0, 41, 47
1, 173428, Note_on_c, 0, 74, 69
1, 173441, Note_on_c, 0, 63, 49
1, 173444, Note_on_c, 0, 67, 14
1, 173455, Note_off_c, 0, 50, 51
1, 173563, Control_c, 0, 67, 58
1, 173578, Control_c, 0, 67, 59
1, 173593, Control_c, 0, 67, 59
1, 173637, Control_c, 0, 67, 60
1, 173652, Control_c, 0, 67, 61
1, 173668, Control_c, 0, 67, 65
1, 173683, Control_c, 0, 67, 71
1, 173698, Control_c, 0, 67, 76
1, 173712, Control_c, 0, 67, 81
1, 173727, Control_c, 0, 67, 86
1, 173734, Note_on_c, 0, 51, 45
1, 173742, Control_c, 0, 67, 89
1, 173744, Note_on_c, 0, 42, 41
1, 173757, Control_c, 0, 64, 101
1, 173757, Control_c, 0, 67, 92
1, 173772, Control_c, 0, 64, 84
1, 173772, Control_c, 0, 67, 94
1, 173786, Control_c, 0, 64, 72
1, 173786, Control_c, 0, 67, 99
1, 173801, Control_c, 0, 64, 63
1, 173801, Control_c, 0, 67, 104
1, 173816, Control_c, 0, 64, 51
1, 173816, Control_c, 0, 67, 109
1, 173831, Control_c, 0, 64, 37
1, 173831, Control_c, 0, 67, 114
1, 173846, Control_c, 0, 64, 35
1, 173846, Control_c, 0, 67, 120
1, 173861, Control_c, 0, 64, 39
1, 173861, Control_c, 0, 67, 125
1, 173876, Control_c, 0, 64, 43
1, 173876, Control_c, 0, 67, 127
1, 173891, Control_c, 0, 64, 49
1, 173905, Control_c, 0, 64, 55
1, 173920, Control_c, 0, 64, 60
1, 173935, Control_c, 0, 64, 63
1, 173950, Control_c, 0, 64, 65
1, 173965, Control_c, 0, 64, 67
1, 173979, Control_c, 0, 64, 70
1, 173994, Control_c, 0, 64, 75
1, 174009, Control_c, 0, 64, 80
1, 174024, Control_c, 0, 64, 86
1, 174046, Control_c, 0, 64, 91
1, 174055, Note_off_c, 0, 67, 43
1, 174061, Control_c, 0, 64, 97
1, 174073, Note_off_c, 0, 69, 59
1, 174073, Note_off_c, 0, 46, 31
1, 174076, Control_c, 0, 64, 102
1, 174091, Control_c, 0, 64, 108
1, 174106, Control_c, 0, 64, 116
1, 174120, Control_c, 0, 64, 127
1, 174224, Note_off_c, 0, 42, 49
1, 174271, Note_off_c, 0, 63, 40
1, 174370, Note_off_c, 0, 51, 38
1, 174496, Note_on_c, 0, 71, 42
1, 174510, Note_on_c, 0, 64, 26
1, 174517, Note_on_c, 0, 68, 29
1, 174755, Note_on_c, 0, 52, 48
1, 174763, Note_on_c, 0, 43, 32
1, 174773, Control_c, 0, 64, 111
1, 174795, Control_c, 0, 64, 100
1, 174799, Note_on_c, 0, 36, 26
1, 174810, Control_c, 0, 64, 95
1, 174816, Note_off_c, 0, 74, 60
1, 174825, Control_c, 0, 64, 94
1, 174855, Note_off_c, 0, 68, 45
1, 174899, Control_c, 0, 64, 97
1, 174914, Control_c, 0, 64, 103
1, 174929, Control_c, 0, 64, 116
1, 174943, Control_c, 0, 64, 127
1, 175010, Note_off_c, 0, 36, 42
1, 175025, Note_off_c, 0, 43, 40
1, 175431, Note_off_c, 0, 71, 35
1, 175507, Control_c, 0, 64, 97
1, 175515, Note_on_c, 0, 76, 55
1, 175521, Note_on_c, 0, 73, 35
1, 175522, Control_c, 0, 64, 81
1, 175545, Note_on_c, 0, 69, 43
1, 175545, Control_c, 0, 64, 72
1, 175559, Control_c, 0, 64, 66
1, 175574, Control_c, 0, 64, 62
1, 175589, Control_c, 0, 64, 58
1, 175604, Control_c, 0, 64, 58
1, 175618, Control_c, 0, 64, 61
1, 175633, Control_c, 0, 64, 63
1, 175648, Control_c, 0, 64, 64
1, 175663, Control_c, 0, 64, 66
1, 175678, Control_c, 0, 64, 68
1, 175692, Control_c, 0, 64, 71
1, 175696, Note_on_c, 0, 44, 35
1, 175701, Note_on_c, 0, 37, 43
1, 175707, Control_c, 0, 64, 77
1, 175713, Note_off_c, 0, 69, 44
1, 175718, Note_off_c, 0, 73, 39
1, 175722, Control_c, 0, 64, 86
1, 175737, Control_c, 0, 64, 92
1, 175752, Control_c, 0, 64, 99
1, 175766, Control_c, 0, 64, 107
1, 175766, Control_c, 0, 67, 119
1, 175781, Control_c, 0, 64, 127
1, 175781, Control_c, 0, 67, 106
1, 175796, Control_c, 0, 67, 94
1, 175810, Control_c, 0, 67, 81
1, 175815, Note_off_c, 0, 64, 40
1, 175825, Control_c, 0, 67, 73
1, 175840, Control_c, 0, 67, 68
1, 175855, Control_c, 0, 67, 66
1, 175870, Control_c, 0, 67, 64
1, 175885, Control_c, 0, 67, 58
1, 175900, Control_c, 0, 67, 47
1, 175915, Control_c, 0, 67, 36
1, 175930, Control_c, 0, 67, 34
1, 175935, Note_off_c, 0, 37, 58
1, 176014, Note_on_c, 0, 74, 54
1, 176018, Note_on_c, 0, 70, 22
1, 176045, Note_on_c, 0, 65, 28
1, 176064, Control_c, 0, 67, 34
1, 176094, Control_c, 0, 67, 33
1, 176098, Note_off_c, 0, 76, 36
1, 176108, Control_c, 0, 67, 32
1, 176123, Control_c, 0, 67, 28
1, 176138, Control_c, 0, 67, 25
1, 176153, Control_c, 0, 67, 23
1, 176156, Note_off_c, 0, 44, 39
1, 176168, Control_c, 0, 67, 20
1, 176178, Note_off_c, 0, 70, 44
1, 176182, Control_c, 0, 67, 18
1, 176186, Note_on_c, 0, 46, 72
1, 176196, Note_on_c, 0, 42, 48
1, 176197, Control_c, 0, 67, 15
1, 176212, Control_c, 0, 67, 12
1, 176227, Control_c, 0, 67, 11
1, 176231, Note_off_c, 0, 65, 39
1, 176241, Control_c, 0, 67, 10
1, 176352, Control_c, 0, 67, 11
1, 176381, Control_c, 0, 67, 12
1, 176396, Control_c, 0, 67, 12
1, 176411, Control_c, 0, 67, 13
1, 176426, Control_c, 0, 67, 14
1, 176470, Control_c, 0, 67, 15
1, 176485, Control_c, 0, 67, 15
1, 176500, Control_c, 0, 67, 16
1, 176514, Control_c, 0, 67, 17
1, 176515, Note_off_c, 0, 46, 63
1, 176522, Note_off_c, 0, 42, 58
1, 176529, Control_c, 0, 67, 18
1, 176535, Note_on_c, 0, 78, 69
1, 176544, Control_c, 0, 67, 18
1, 176554, Note_on_c, 0, 67, 31
1, 176559, Control_c, 0, 67, 19
1, 176588, Control_c, 0, 67, 20
1, 176606, Poly_aftertouch_c, 0, 71, 127
1, 176607, Note_off_c, 0, 67, 0
1, 176607, Note_on_c, 0, 67, 7
1, 176618, Control_c, 0, 67, 20
1, 176663, Control_c, 0, 67, 21
1, 176678, Control_c, 0, 67, 22
1, 176693, Control_c, 0, 67, 22
1, 176707, Control_c, 0, 67, 25
1, 176722, Control_c, 0, 67, 27
1, 176737, Control_c, 0, 67, 29
1, 176751, Control_c, 0, 64, 105
1, 176751, Control_c, 0, 67, 31
1, 176762, Note_on_c, 0, 44, 42
1, 176766, Control_c, 0, 64, 82
1, 176766, Control_c, 0, 67, 34
1, 176772, Note_on_c, 0, 48, 55
1, 176781, Control_c, 0, 64, 70
1, 176781, Control_c, 0, 67, 36
1, 176796, Control_c, 0, 64, 63
1, 176796, Control_c, 0, 67, 40
1, 176811, Control_c, 0, 64, 54
1, 176811, Control_c, 0, 67, 44
1, 176825, Control_c, 0, 64, 45
1, 176825, Control_c, 0, 67, 47
1, 176840, Control_c, 0, 64, 47
1, 176840, Control_c, 0, 67, 49
1, 176856, Control_c, 0, 64, 52
1, 176856, Control_c, 0, 67, 51
1, 176871, Control_c, 0, 64, 56
1, 176871, Control_c, 0, 67, 53
1, 176886, Control_c, 0, 64, 59
1, 176886, Control_c, 0, 67, 56
1, 176901, Control_c, 0, 64, 62
1, 176901, Control_c, 0, 67, 59
1, 176916, Control_c, 0, 64, 64
1, 176916, Control_c, 0, 67, 63
1, 176930, Control_c, 0, 64, 67
1, 176930, Control_c, 0, 67, 67
1, 176945, Control_c, 0, 64, 70
1, 176945, Control_c, 0, 67, 70
1, 176960, Control_c, 0, 64, 74
1, 176960, Control_c, 0, 67, 74
1, 176975, Control_c, 0, 64, 76
1, 176975, Control_c, 0, 67, 79
1, 176989, Control_c, 0, 64, 77
1, 176989, Control_c, 0, 67, 84
1, 177004, Control_c, 0, 64, 78
1, 177004, Control_c, 0, 67, 88
1, 177019, Control_c, 0, 64, 78
1, 177019, Control_c, 0, 67, 92
1, 177041, Control_c, 0, 64, 80
1, 177041, Control_c, 0, 67, 96
1, 177056, Control_c, 0, 64, 84
1, 177056, Control_c, 0, 67, 99
1, 177071, Control_c, 0, 64, 90
1, 177071, Control_c, 0, 67, 102
1, 177083, Note_off_c, 0, 67, 36
1, 177086, Control_c, 0, 64, 100
1, 177086, Control_c, 0, 67, 105
1, 177101, Control_c, 0, 64, 114
1, 177101, Control_c, 0, 67, 109
1, 177116, Control_c, 0, 64, 127
1, 177116, Control_c, 0, 67, 112
1, 177131, Control_c, 0, 67, 116
1, 177145, Control_c, 0, 67, 119
1, 177146, Note_off_c, 0, 78, 39
1, 177160, Control_c, 0, 67, 121
1, 177175, Control_c, 0, 67, 123
1, 177189, Control_c, 0, 67, 125
1, 177204, Control_c, 0, 67, 126
1, 177219, Control_c, 0, 67, 127
1, 177414, Note_off_c, 0, 52, 32
1, 177440, Note_on_c, 0, 77, 47
1, 177465, Note_on_c, 0, 68, 17
1, 177524, Note_off_c, 0, 48, 30
1, 177609, Note_off_c, 0, 44, 34
1, 177789, Poly_aftertouch_c, 0, 71, 0
1, 177808, Note_off_c, 0, 77, 33
1, 177833, Note_off_c, 0, 74, 37
1, 178013, Note_off_c, 0, 68, 39
1, 178117, Control_c, 0, 67, 127
1, 178121, Note_on_c, 0, 45, 35
1, 178125, Note_on_c, 0, 41, 31
1, 178130, Note_on_c, 0, 48, 34
1, 178132, Control_c, 0, 67, 126
1, 178147, Control_c, 0, 67, 125
1, 178161, Control_c, 0, 67, 125
1, 178176, Control_c, 0, 67, 124
1, 178191, Control_c, 0, 67, 123
1, 178205, Control_c, 0, 67, 122
1, 178220, Control_c, 0, 67, 120
1, 178235, Control_c, 0, 67, 119
1, 178265, Control_c, 0, 67, 118
1, 178279, Control_c, 0, 67, 118
1, 178294, Control_c, 0, 67, 117
1, 178309, Control_c, 0, 67, 116
1, 178324, Control_c, 0, 67, 114
1, 178338, Control_c, 0, 67, 112
1, 178353, Control_c, 0, 67, 111
1, 178360, Note_off_c, 0, 45, 40
1, 178368, Control_c, 0, 67, 111
1, 178381, Note_on_c, 0, 79, 72
1, 178383, Control_c, 0, 67, 109
1, 178398, Control_c, 0, 67, 107
1, 178402, Note_on_c, 0, 76, 50
1, 178411, Note_on_c, 0, 69, 37
1, 178413, Control_c, 0, 67, 104
1, 178416, Note_off_c, 0, 48, 40
1, 178428, Control_c, 0, 67, 98
1, 178435, Note_on_c, 0, 73, 21
1, 178443, Control_c, 0, 67, 91
1, 178458, Control_c, 0, 67, 86
1, 178473, Control_c, 0, 67, 82
1, 178488, Control_c, 0, 67, 78
1, 178502, Control_c, 0, 67, 73
1, 178517, Control_c, 0, 67, 68
1, 178540, Control_c, 0, 67, 62
1, 178555, Control_c, 0, 67, 58
1, 178570, Control_c, 0, 67, 54
1, 178584, Control_c, 0, 67, 51
1, 178599, Control_c, 0, 67, 48
1, 178614, Control_c, 0, 67, 45
1, 178624, Note_on_c, 0, 53, 53
1, 178627, Note_off_c, 0, 79, 57
1, 178628, Note_on_c, 0, 49, 54
1, 178629, Control_c, 0, 67, 41
1, 178634, Note_on_c, 0, 46, 54
1, 178643, Control_c, 0, 67, 38
1, 178654, Note_off_c, 0, 69, 41
1, 178658, Control_c, 0, 67, 36
1, 178664, Note_off_c, 0, 73, 42
1, 178673, Control_c, 0, 67, 35
1, 178688, Control_c, 0, 67, 33
1, 178702, Control_c, 0, 67, 30
1, 178717, Control_c, 0, 67, 27
1, 178732, Control_c, 0, 67, 24
1, 178747, Control_c, 0, 67, 20
1, 178761, Control_c, 0, 67, 16
1, 178776, Control_c, 0, 67, 12
1, 178791, Control_c, 0, 67, 9
1, 178806, Control_c, 0, 67, 0
1, 178891, Note_off_c, 0, 41, 40
1, 178901, Note_on_c, 0, 80, 75
1, 178913, Note_off_c, 0, 49, 59
1, 178915, Note_on_c, 0, 70, 56
1, 178938, Note_off_c, 0, 46, 50
1, 178975, Poly_aftertouch_c, 0, 74, 127
1, 179012, Note_off_c, 0, 76, 48
1, 179024, Poly_aftertouch_c, 0, 74, 0
1, 179098, Note_off_c, 0, 70, 37
1, 179132, Note_off_c, 0, 53, 0
1, 179132, Note_on_c, 0, 53, 3
1, 179151, Note_on_c, 0, 50, 63
1, 179155, Note_on_c, 0, 47, 58
1, 179159, Note_on_c, 0, 43, 60
1, 179177, Note_off_c, 0, 80, 61
1, 179251, Control_c, 0, 64, 98
1, 179266, Control_c, 0, 64, 83
1, 179268, Note_on_c, 0, 81, 82
1, 179288, Note_on_c, 0, 77, 66
1, 179289, Control_c, 0, 64, 75
1, 179298, Note_on_c, 0, 71, 60
1, 179303, Note_on_c, 0, 74, 52
1, 179304, Control_c, 0, 64, 74
1, 179319, Control_c, 0, 64, 75
1, 179333, Control_c, 0, 64, 79
1, 179348, Control_c, 0, 64, 91
1, 179363, Control_c, 0, 64, 127
1, 179379, Note_off_c, 0, 43, 57
1, 179380, Note_off_c, 0, 50, 60
1, 179432, Note_off_c, 0, 53, 41
1, 179443, Note_off_c, 0, 47, 59
1, 179456, Note_off_c, 0, 77, 59
1, 179457, Note_off_c, 0, 71, 59
1, 179458, Note_off_c, 0, 74, 44
1, 179471, Note_off_c, 0, 81, 59
1, 179641, Note_on_c, 0, 54, 74
1, 179653, Note_on_c, 0, 44, 62
1, 179653, Note_on_c, 0, 49, 65
1, 179658, Note_on_c, 0, 47, 63
1, 179703, Control_c, 0, 64, 107
1, 179718, Control_c, 0, 64, 78
1, 179733, Control_c, 0, 64, 63
1, 179748, Control_c, 0, 64, 49
1, 179748, Note_on_c, 0, 83, 86
1, 179756, Note_on_c, 0, 72, 77
1, 179757, Note_on_c, 0, 78, 69
1, 179758, Note_on_c, 0, 76, 68
1, 179759, Note_on_c, 0, 79, 71
1, 179763, Control_c, 0, 64, 41
1, 179777, Control_c, 0, 64, 53
1, 179792, Control_c, 0, 64, 63
1, 179807, Control_c, 0, 64, 70
1, 179822, Control_c, 0, 64, 92
1, 179837, Control_c, 0, 64, 127
1, 179842, Note_off_c, 0, 49, 61
1, 179868, Note_off_c, 0, 47, 55
1, 179873, Note_off_c, 0, 54, 60
1, 179897, Note_off_c, 0, 44, 61
1, 179902, Note_off_c, 0, 83, 58
1, 179906, Note_off_c, 0, 72, 60
1, 179915, Note_off_c, 0, 79, 59
1, 179917, Note_off_c, 0, 76, 59
1, 179961, Note_off_c, 0, 78, 59
1, 180129, Note_on_c, 0, 43, 84
1, 180130, Note_on_c, 0, 55, 90
1, 180131, Note_on_c, 0, 52, 87
1, 180148, Note_on_c, 0, 48, 68
1, 180155, Control_c, 0, 64, 100
1, 180170, Control_c, 0, 64, 66
1, 180185, Control_c, 0, 64, 0
1, 180234, Note_on_c, 0, 84, 87
1, 180237, Note_on_c, 0, 73, 86
1, 180240, Note_on_c, 0, 76, 80
1, 180241, Note_on_c, 0, 80, 78
1, 180243, Note_on_c, 0, 78, 74
1, 180244, Control_c, 0, 64, 63
1, 180259, Control_c, 0, 64, 98
1, 180270, Note_off_c, 0, 43, 61
1, 180273, Control_c, 0, 64, 127
1, 180282, Note_off_c, 0, 48, 60
1, 180291, Note_off_c, 0, 52, 62
1, 180311, Note_off_c, 0, 55, 62
1, 180359, Note_off_c, 0, 76, 61
1, 180363, Note_off_c, 0, 78, 61
1, 180366, Note_off_c, 0, 84, 60
1, 180379, Note_off_c, 0, 80, 62
1, 180417, Note_off_c, 0, 73, 58
1, 180583, Note_on_c, 0, 81, 80
1, 180583, Note_on_c, 0, 85, 92
1, 180585, Note_on_c, 0, 56, 79
1, 180586, Note_on_c, 0, 48, 72
1, 180586, Note_on_c, 0, 74, 84
1, 180589, Note_on_c, 0, 77, 81
1, 180594, Note_on_c, 0, 53, 70
1, 180604, Note_on_c, 0, 46, 63
1, 180658, Note_off_c, 0, 56, 62
1, 180661, Note_off_c, 0, 77, 59
1, 180666, Note_off_c, 0, 74, 64
1, 180674, Note_off_c, 0, 81, 61
1, 180679, Note_off_c, 0, 53, 50
1, 180680, Note_off_c, 0, 46, 62
1, 180687, Note_off_c, 0, 85, 62
1, 180786, Note_on_c, 0, 47, 78
1, 180790, Note_on_c, 0, 57, 85
1, 180794, Note_on_c, 0, 53, 69
1, 180850, Note_off_c, 0, 48, 52
1, 180855, Note_off_c, 0, 53, 65
1, 180878, Note_off_c, 0, 57, 63
1, 180897, Note_on_c, 0, 80, 85
1, 180899, Note_on_c, 0, 75, 96
1, 180899, Note_on_c, 0, 86, 96
1, 180904, Note_on_c, 0, 83, 80
1, 180976, Note_off_c, 0, 80, 62
1, 180978, Note_off_c, 0, 83, 61
1, 180982, Note_off_c, 0, 75, 60
1, 180985, Note_off_c, 0, 86, 60
1, 180991, Note_on_c, 0, 49, 77
1, 180998, Note_off_c, 0, 47, 0
1, 181000, Note_on_c, 0, 59, 91
1, 181012, Note_on_c, 0, 54, 75
1, 181019, Note_on_c, 0, 47, 13
1, 181052, Note_off_c, 0, 47, 51
1, 181057, Note_on_c, 0, 53, 42
1, 181087, Note_off_c, 0, 53, 55
1, 181104, Note_off_c, 0, 59, 65
1, 181106, Note_off_c, 0, 54, 61
1, 181108, Note_off_c, 0, 49, 61
1, 181113, Note_on_c, 0, 81, 83
1, 181116, Note_on_c, 0, 85, 91
1, 181116, Note_on_c, 0, 87, 95
1, 181117, Note_on_c, 0, 76, 95
1, 181180, Note_off_c, 0, 81, 59
1, 181202, Note_on_c, 0, 54, 73
1, 181203, Note_on_c, 0, 60, 92
1, 181208, Note_off_c, 0, 76, 55
1, 181209, Note_on_c, 0, 50, 73
1, 181221, Note_off_c, 0, 87, 57
1, 181235, Note_off_c, 0, 85, 40
1, 181275, Note_off_c, 0, 50, 62
1, 181277, Note_off_c, 0, 60, 61
1, 181277, Poly_aftertouch_c, 0, 53, 127
1, 181315, Note_on_c, 0, 88, 93
1, 181318, Note_on_c, 0, 84, 83
1, 181319, Note_on_c, 0, 82, 84
1, 181319, Note_on_c, 0, 77, 96
1, 181347, Note_on_c, 0, 86, 48
1, 181350, Note_off_c, 0, 54, 40
1, 181360, Note_on_c, 0, 85, 23
1, 181363, Poly_aftertouch_c, 0, 53, 0
1, 181370, Note_off_c, 0, 82, 61
1, 181374, Note_off_c, 0, 86, 56
1, 181390, Note_off_c, 0, 77, 63
1, 181398, Note_off_c, 0, 84, 65
1, 181400, Note_off_c, 0, 88, 60
1, 181403, Note_off_c, 0, 85, 30
1, 181414, Note_on_c, 0, 61, 99
1, 181420, Note_on_c, 0, 55, 72
1, 181431, Note_on_c, 0, 51, 73
1, 181444, Note_on_c, 0, 50, 70
1, 181490, Note_off_c, 0, 50, 61
1, 181504, Note_off_c, 0, 51, 62
1, 181510, Note_off_c, 0, 55, 63
1, 181516, Note_on_c, 0, 86, 76
1, 181529, Note_on_c, 0, 78, 102
1, 181530, Note_on_c, 0, 83, 84
1, 181531, Note_on_c, 0, 89, 92
1, 181553, Note_off_c, 0, 61, 59
1, 181556, Note_on_c, 0, 85, 50
1, 181580, Note_on_c, 0, 88, 26
1, 181581, Note_off_c, 0, 85, 59
1, 181614, Note_off_c, 0, 83, 62
1, 181623, Note_off_c, 0, 86, 62
1, 181623, Note_off_c, 0, 88, 29
1, 181625, Note_off_c, 0, 78, 61
1, 181628, Note_off_c, 0, 89, 65
1, 181787, Control_c, 0, 64, 84
1, 181790, Note_on_c, 0, 88, 95
1, 181791, Note_on_c, 0, 90, 94
1, 181793, Note_on_c, 0, 79, 97
1, 181794, Note_on_c, 0, 52, 87
1, 181794, Note_on_c, 0, 84, 90
1, 181799, Note_on_c, 0, 57, 79
1, 181802, Control_c, 0, 64, 65
1, 181807, Note_on_c, 0, 62, 92
1, 181817, Control_c, 0, 64, 61
1, 181832, Control_c, 0, 64, 65
1, 181847, Control_c, 0, 64, 81
1, 181861, Control_c, 0, 64, 127
1, 181862, Note_off_c, 0, 62, 62
1, 181864, Note_off_c, 0, 57, 64
1, 181880, Note_off_c, 0, 52, 66
1, 181893, Note_off_c, 0, 79, 63
1, 181901, Note_off_c, 0, 84, 63
1, 181920, Note_off_c, 0, 90, 60
1, 181924, Note_off_c, 0, 88, 59
1, 181991, Note_on_c, 0, 63, 97
1, 182001, Note_on_c, 0, 58, 80
1, 182005, Note_on_c, 0, 53, 66
1, 182016, Note_on_c, 0, 52, 65
1, 182022, Note_on_c, 0, 56, 16
1, 182039, Note_off_c, 0, 52, 57
1, 182049, Note_off_c, 0, 63, 61
1, 182050, Note_off_c, 0, 53, 64
1, 182063, Note_off_c, 0, 56, 52
1, 182064, Note_off_c, 0, 58, 53
1, 182075, Note_on_c, 0, 80, 105
1, 182076, Note_on_c, 0, 91, 101
1, 182077, Note_on_c, 0, 87, 87
1, 182160, Note_off_c, 0, 91, 56
1, 182176, Note_off_c, 0, 80, 59
1, 182187, Note_on_c, 0, 58, 78
1, 182187, Note_off_c, 0, 87, 59
1, 182190, Note_on_c, 0, 54, 84
1, 182190, Note_on_c, 0, 64, 96
1, 182227, Note_on_c, 0, 53, 44
1, 182234, Note_on_c, 0, 57, 29
1, 182249, Note_off_c, 0, 53, 61
1, 182255, Note_off_c, 0, 58, 65
1, 182256, Note_off_c, 0, 64, 67
1, 182258, Note_off_c, 0, 54, 61
1, 182262, Note_off_c, 0, 57, 56
1, 182285, Note_on_c, 0, 86, 99
1, 182289, Note_on_c, 0, 81, 97
1, 182289, Note_on_c, 0, 92, 102
1, 182334, Note_on_c, 0, 87, 7
1, 182335, Note_off_c, 0, 87, 127
1, 182367, Note_off_c, 0, 81, 62
1, 182388, Note_off_c, 0, 86, 54
1, 182394, Note_on_c, 0, 67, 104
1, 182398, Note_on_c, 0, 55, 96
1, 182399, Note_off_c, 0, 92, 57
1, 182402, Note_on_c, 0, 61, 82
1, 182411, Note_on_c, 0, 60, 62
1, 182419, Note_off_c, 0, 61, 60
1, 182431, Note_off_c, 0, 60, 62
1, 182443, Note_on_c, 0, 62, 34
1, 182476, Note_off_c, 0, 62, 56
1, 182483, Note_on_c, 0, 88, 99
1, 182484, Note_on_c, 0, 82, 103
1, 182485, Note_off_c, 0, 55, 61
1, 182488, Note_on_c, 0, 93, 103
1, 182491, Note_off_c, 0, 67, 57
1, 182595, Note_off_c, 0, 93, 55
1, 182616, Note_off_c, 0, 82, 48
1, 182620, Note_off_c, 0, 88, 60
1, 182720, Note_on_c, 0, 87, 100
1, 182720, Note_on_c, 0, 94, 100
1, 182722, Note_on_c, 0, 83, 100
1, 182723, Note_on_c, 0, 60, 72
1, 182724, Note_on_c, 0, 56, 75
1, 182731, Note_on_c, 0, 67, 90
1, 182748, Note_on_c, 0, 92, 56
1, 182774, Note_off_c, 0, 67, 59
1, 182777, Note_off_c, 0, 56, 61
1, 182811, Poly_aftertouch_c, 0, 58, 127
1, 182836, Poly_aftertouch_c, 0, 58, 0
1, 182908, Note_on_c, 0, 68, 103
1, 182911, Note_on_c, 0, 57, 85
1, 182914, Note_off_c, 0, 92, 36
1, 182916, Note_off_c, 0, 83, 51
1, 182926, Note_on_c, 0, 59, 61
1, 182937, Note_off_c, 0, 87, 56
1, 182938, Note_off_c, 0, 94, 53
1, 182950, Note_off_c, 0, 59, 63
1, 182967, Note_off_c, 0, 57, 64
1, 182969, Note_off_c, 0, 68, 65
1, 182972, Note_off_c, 0, 60, 35
1, 183011, Note_on_c, 0, 88, 99
1, 183012, Note_on_c, 0, 96, 98
1, 183013, Note_on_c, 0, 84, 102
1, 183013, Note_on_c, 0, 91, 93
1, 183049, Note_on_c, 0, 93, 55
1, 183110, Note_off_c, 0, 84, 66
1, 183113, Note_off_c, 0, 96, 60
1, 183116, Note_off_c, 0, 88, 63
1, 183130, Note_off_c, 0, 91, 62
1, 183131, Note_on_c, 0, 69, 95
1, 183134, Note_on_c, 0, 58, 88
1, 183143, Note_off_c, 0, 93, 33
1, 183170, Note_on_c, 0, 62, 33
1, 183206, Note_off_c, 0, 69, 66
1, 183207, Note_off_c, 0, 62, 52
1, 183214, Note_off_c, 0, 58, 60
1, 183224, Note_on_c, 0, 85, 104
1, 183227, Note_on_c, 0, 97, 108
1, 183233, Note_on_c, 0, 87, 99
1, 183233, Note_on_c, 0, 91, 87
1, 183255, Note_on_c, 0, 98, 60
1, 183260, Note_on_c, 0, 90, 47
1, 183326, Note_off_c, 0, 98, 33
1, 183334, Poly_aftertouch_c, 0, 95, 127
1, 183372, Note_off_c, 0, 90, 21
1, 183374, Poly_aftertouch_c, 0, 95, 0
1, 183390, Poly_aftertouch_c, 0, 93, 127
1, 183397, Note_off_c, 0, 87, 52
1, 183401, Note_off_c, 0, 85, 60
1, 183412, Note_off_c, 0, 97, 58
1, 183416, Note_off_c, 0, 91, 53
1, 183428, Note_on_c, 0, 59, 89
1, 183429, Note_on_c, 0, 70, 102
1, 183447, Poly_aftertouch_c, 0, 93, 0
1, 183500, Note_off_c, 0, 59, 66
1, 183504, Note_off_c, 0, 70, 66
1, 183511, Note_on_c, 0, 91, 95
1, 183512, Note_on_c, 0, 98, 98
1, 183514, Note_on_c, 0, 86, 102
1, 183517, Note_on_c, 0, 95, 82
1, 183526, Note_on_c, 0, 93, 80
1, 183542, Note_on_c, 0, 94, 60
1, 183570, Note_off_c, 0, 94, 36
1, 183601, Note_off_c, 0, 98, 65
1, 183607, Note_off_c, 0, 86, 66
1, 183613, Note_off_c, 0, 91, 60
1, 183630, Note_off_c, 0, 95, 65
1, 183638, Note_on_c, 0, 72, 93
1, 183638, Note_off_c, 0, 93, 59
1, 183641, Note_on_c, 0, 66, 83
1, 183641, Note_on_c, 0, 71, 96
1, 183648, Note_on_c, 0, 63, 73
1, 183648, Note_on_c, 0, 65, 75
1, 183651, Note_on_c, 0, 61, 61
1, 183663, Note_on_c, 0, 60, 58
1, 183671, Note_off_c, 0, 65, 68
1, 183672, Note_off_c, 0, 63, 64
1, 183680, Note_off_c, 0, 61, 50
1, 183683, Note_off_c, 0, 60, 62
1, 183708, Note_off_c, 0, 71, 62
1, 183709, Note_off_c, 0, 66, 62
1, 183710, Note_off_c, 0, 72, 64
1, 183722, Note_on_c, 0, 87, 106
1, 183725, Note_on_c, 0, 99, 95
1, 183726, Note_on_c, 0, 92, 95
1, 183734, Note_on_c, 0, 97, 81
1, 183752, Note_on_c, 0, 94, 42
1, 183794, Note_off_c, 0, 94, 53
1, 183804, Note_off_c, 0, 87, 65
1, 183810, Note_off_c, 0, 92, 65
1, 183819, Note_off_c, 0, 99, 62
1, 183824, Note_off_c, 0, 97, 63
1, 183839, Note_on_c, 0, 73, 103
1, 183846, Note_on_c, 0, 64, 86
1, 183850, Note_on_c, 0, 62, 85
1, 183850, Note_on_c, 0, 65, 84
1, 183906, Note_off_c, 0, 62, 62
1, 183909, Note_off_c, 0, 65, 59
1, 183912, Note_off_c, 0, 64, 65
1, 183912, Note_off_c, 0, 73, 62
1, 183928, Note_on_c, 0, 89, 111
1, 183929, Note_on_c, 0, 100, 108
1, 183932, Note_on_c, 0, 93, 99
1, 183936, Note_on_c, 0, 95, 93
1, 183941, Note_on_c, 0, 96, 88
1, 183949, Note_on_c, 0, 98, 61
1, 183953, Poly_aftertouch_c, 0, 72, 0
1, 183969, Poly_aftertouch_c, 0, 71, 0
1, 183973, Note_off_c, 0, 98, 67
1, 184005, Note_off_c, 0, 89, 68
1, 184008, Note_off_c, 0, 93, 59
1, 184008, Note_off_c, 0, 100, 63
1, 184016, Note_off_c, 0, 96, 58
1, 184018, Note_off_c, 0, 95, 64
1, 184085, Note_on_c, 0, 63, 84
1, 184085, Note_on_c, 0, 74, 78
1, 184086, Note_on_c, 0, 68, 82
1, 184091, Note_on_c, 0, 72, 88
1, 184142, Note_on_c, 0, 97, 49
1, 184195, Control_c, 0, 64, 125
1, 184198, Note_off_c, 0, 97, 57
1, 184210, Control_c, 0, 64, 72
1, 184225, Control_c, 0, 64, 68
1, 184239, Control_c, 0, 64, 77
1, 184254, Control_c, 0, 64, 127
1, 184301, Note_on_c, 0, 92, 113
1, 184306, Note_on_c, 0, 97, 99
1, 184306, Note_on_c, 0, 98, 94
1, 184306, Note_on_c, 0, 102, 104
1, 184340, Note_on_c, 0, 103, 47
1, 184345, Note_on_c, 0, 65, 28
1, 184346, Note_on_c, 0, 96, 81
1, 184371, Note_off_c, 0, 103, 46
1, 184375, Note_off_c, 0, 102, 67
1, 184379, Note_off_c, 0, 92, 69
1, 184380, Note_off_c, 0, 98, 68
1, 184385, Note_off_c, 0, 96, 67
1, 184404, Note_off_c, 0, 97, 62
1, 184406, Note_off_c, 0, 65, 0
1, 184406, Note_on_c, 0, 65, 13
1, 184421, Note_off_c, 0, 74, 65
1, 184422, Note_off_c, 0, 72, 64
1, 184429, Note_off_c, 0, 68, 66
1, 184442, Note_off_c, 0, 63, 65
1, 184455, Note_off_c, 0, 65, 52
1, 184751, Control_c, 0, 67, 9
1, 184766, Control_c, 0, 67, 22
1, 184780, Control_c, 0, 67, 40
1, 184795, Control_c, 0, 67, 64
1, 184810, Control_c, 0, 67, 82
1, 184825, Control_c, 0, 67, 98
1, 184841, Control_c, 0, 67, 111
1, 184856, Control_c, 0, 67, 122
1, 184870, Control_c, 0, 67, 127
1, 185871, Control_c, 0, 64, 92
1, 185877, Note_on_c, 0, 38, 81
1, 185884, Note_on_c, 0, 26, 69
1, 185886, Control_c, 0, 64, 44
1, 185901, Control_c, 0, 64, 0
1, 185922, Note_off_c, 0, 38, 63
1, 185947, Note_off_c, 0, 26, 58
1, 185978, Note_on_c, 0, 48, 57
1, 185984, Note_on_c, 0, 36, 47
1, 186020, Note_off_c, 0, 36, 57
1, 186072, Note_off_c, 0, 48, 62
1, 186084, Note_on_c, 0, 46, 61
1, 186130, Note_off_c, 0, 46, 57
1, 186168, Poly_aftertouch_c, 0, 34, 0
1, 186187, Note_on_c, 0, 39, 55
1, 186192, Note_on_c, 0, 27, 53
1, 186233, Note_off_c, 0, 27, 60
1, 186238, Note_off_c, 0, 39, 59
1, 186287, Note_on_c, 0, 48, 50
1, 186298, Note_on_c, 0, 36, 32
1, 186337, Note_off_c, 0, 48, 59
1, 186339, Note_off_c, 0, 36, 44
1, 186402, Note_on_c, 0, 28, 51
1, 186404, Note_on_c, 0, 40, 60
1, 186443, Note_off_c, 0, 40, 61
1, 186453, Note_off_c, 0, 28, 47
1, 186494, Note_on_c, 0, 34, 44
1, 186494, Note_on_c, 0, 46, 58
1, 186525, Note_off_c, 0, 34, 58
1, 186539, Note_off_c, 0, 46, 60
1, 186610, Note_on_c, 0, 41, 60
1, 186614, Note_on_c, 0, 29, 47
1, 186650, Note_off_c, 0, 29, 58
1, 186650, Note_off_c, 0, 41, 60
1, 186698, Note_on_c, 0, 36, 41
1, 186710, Note_on_c, 0, 48, 48
1, 186732, Note_off_c, 0, 36, 48
1, 186738, Note_off_c, 0, 48, 60
1, 186815, Note_on_c, 0, 42, 74
1, 186819, Note_on_c, 0, 30, 61
1, 186819, Control_c, 0, 64, 14
1, 186834, Control_c, 0, 64, 61
1, 186849, Control_c, 0, 64, 66
1, 186864, Control_c, 0, 64, 71
1, 186875, Note_off_c, 0, 30, 65
1, 186878, Control_c, 0, 64, 84
1, 186879, Note_off_c, 0, 42, 61
1, 186893, Control_c, 0, 64, 112
1, 186908, Control_c, 0, 64, 121
1, 186917, Note_on_c, 0, 52, 66
1, 186917, Note_on_c, 0, 40, 57
1, 186923, Control_c, 0, 64, 99
1, 186938, Control_c, 0, 64, 78
1, 186950, Note_off_c, 0, 40, 54
1, 186953, Control_c, 0, 64, 64
1, 186967, Control_c, 0, 64, 51
1, 186978, Note_off_c, 0, 52, 61
1, 186982, Control_c, 0, 64, 33
1, 186997, Control_c, 0, 64, 0
1, 187018, Note_on_c, 0, 36, 50
1, 187025, Note_on_c, 0, 48, 53
1, 187060, Note_off_c, 0, 36, 59
1, 187063, Note_off_c, 0, 48, 64
1, 187121, Note_on_c, 0, 43, 68
1, 187124, Note_on_c, 0, 31, 56
1, 187167, Note_off_c, 0, 31, 63
1, 187172, Note_off_c, 0, 43, 61
1, 187215, Note_on_c, 0, 54, 60
1, 187220, Note_on_c, 0, 42, 52
1, 187255, Note_off_c, 0, 42, 50
1, 187255, Note_off_c, 0, 54, 60
1, 187317, Note_on_c, 0, 32, 67
1, 187318, Note_on_c, 0, 44, 64
1, 187374, Note_off_c, 0, 44, 57
1, 187379, Note_off_c, 0, 32, 61
1, 187413, Note_on_c, 0, 52, 58
1, 187423, Note_on_c, 0, 40, 43
1, 187452, Note_off_c, 0, 52, 66
1, 187458, Note_off_c, 0, 40, 53
1, 187524, Control_c, 0, 64, 14
1, 187525, Note_on_c, 0, 45, 80
1, 187533, Note_on_c, 0, 33, 69
1, 187539, Control_c, 0, 64, 68
1, 187554, Control_c, 0, 64, 88
1, 187569, Control_c, 0, 64, 127
1, 187582, Note_off_c, 0, 45, 64
1, 187597, Note_off_c, 0, 33, 58
1, 187618, Note_on_c, 0, 54, 67
1, 187625, Note_on_c, 0, 42, 56
1, 187643, Control_c, 0, 64, 77
1, 187658, Control_c, 0, 64, 45
1, 187668, Note_off_c, 0, 42, 49
1, 187672, Control_c, 0, 64, 0
1, 187673, Note_off_c, 0, 54, 52
1, 187725, Note_on_c, 0, 52, 51
1, 187737, Note_on_c, 0, 40, 39
1, 187767, Note_off_c, 0, 52, 66
1, 187773, Note_off_c, 0, 40, 54
1, 187829, Note_on_c, 0, 46, 68
1, 187850, Note_on_c, 0, 34, 50
1, 187850, Control_c, 0, 64, 67
1, 187865, Control_c, 0, 64, 85
1, 187880, Control_c, 0, 64, 87
1, 187889, Note_off_c, 0, 34, 65
1, 187895, Note_off_c, 0, 46, 61
1, 187895, Control_c, 0, 64, 69
1, 187909, Control_c, 0, 64, 23
1, 187919, Note_on_c, 0, 54, 61
1, 187922, Note_on_c, 0, 42, 44
1, 187924, Control_c, 0, 64, 0
1, 187950, Note_off_c, 0, 42, 51
1, 187955, Note_off_c, 0, 54, 61
1, 188022, Note_on_c, 0, 47, 74
1, 188040, Note_on_c, 0, 35, 53
1, 188076, Note_off_c, 0, 47, 63
1, 188082, Note_off_c, 0, 35, 64
1, 188119, Note_on_c, 0, 46, 54
1, 188120, Note_on_c, 0, 58, 63
1, 188143, Note_off_c, 0, 46, 58
1, 188162, Note_off_c, 0, 58, 55
1, 188223, Note_on_c, 0, 48, 79
1, 188234, Note_on_c, 0, 36, 62
1, 188236, Control_c, 0, 64, 56
1, 188251, Control_c, 0, 64, 73
1, 188274, Control_c, 0, 64, 74
1, 188302, Note_off_c, 0, 48, 55
1, 188303, Control_c, 0, 64, 75
1, 188318, Control_c, 0, 64, 78
1, 188336, Note_on_c, 0, 42, 57
1, 188339, Note_on_c, 0, 54, 62
1, 188352, Note_off_c, 0, 36, 36
1, 188362, Control_c, 0, 64, 77
1, 188377, Control_c, 0, 64, 75
1, 188392, Control_c, 0, 64, 72
1, 188398, Note_off_c, 0, 42, 51
1, 188404, Note_off_c, 0, 54, 45
1, 188407, Control_c, 0, 64, 68
1, 188421, Control_c, 0, 64, 59
1, 188434, Note_on_c, 0, 52, 64
1, 188436, Control_c, 0, 64, 0
1, 188461, Note_on_c, 0, 40, 42
1, 188465, Note_off_c, 0, 52, 67
1, 188495, Note_off_c, 0, 40, 59
1, 188549, Note_on_c, 0, 49, 78
1, 188552, Note_on_c, 0, 37, 69
1, 188554, Control_c, 0, 64, 39
1, 188569, Control_c, 0, 64, 59
1, 188584, Control_c, 0, 64, 63
1, 188599, Control_c, 0, 64, 68
1, 188613, Note_off_c, 0, 37, 57
1, 188613, Control_c, 0, 64, 78
1, 188622, Note_off_c, 0, 49, 59
1, 188628, Control_c, 0, 64, 99
1, 188642, Note_on_c, 0, 46, 61
1, 188643, Control_c, 0, 64, 119
1, 188648, Note_on_c, 0, 58, 67
1, 188658, Control_c, 0, 64, 127
1, 188683, Note_off_c, 0, 46, 57
1, 188710, Note_off_c, 0, 58, 56
1, 188718, Control_c, 0, 64, 116
1, 188732, Control_c, 0, 64, 90
1, 188736, Note_on_c, 0, 54, 70
1, 188747, Control_c, 0, 64, 68
1, 188750, Note_on_c, 0, 42, 50
1, 188762, Control_c, 0, 64, 0
1, 188793, Note_off_c, 0, 42, 62
1, 188795, Note_off_c, 0, 54, 60
1, 188843, Note_on_c, 0, 50, 79
1, 188852, Control_c, 0, 64, 32
1, 188853, Note_on_c, 0, 38, 63
1, 188867, Control_c, 0, 64, 63
1, 188882, Control_c, 0, 64, 75
1, 188897, Control_c, 0, 64, 127
1, 188910, Note_off_c, 0, 50, 62
1, 188912, Note_off_c, 0, 38, 63
1, 188950, Note_on_c, 0, 48, 52
1, 188950, Note_on_c, 0, 60, 51
1, 188991, Note_off_c, 0, 48, 50
1, 189001, Note_off_c, 0, 60, 56
1, 189040, Note_on_c, 0, 46, 52
1, 189044, Note_on_c, 0, 58, 68
1, 189052, Control_c, 0, 64, 94
1, 189066, Control_c, 0, 64, 70
1, 189075, Note_off_c, 0, 46, 51
1, 189078, Note_off_c, 0, 58, 60
1, 189081, Control_c, 0, 64, 14
1, 189096, Control_c, 0, 64, 0
1, 189150, Note_on_c, 0, 51, 79
1, 189159, Note_on_c, 0, 39, 55
1, 189185, Control_c, 0, 64, 53
1, 189200, Control_c, 0, 64, 43
1, 189204, Note_off_c, 0, 39, 59
1, 189215, Control_c, 0, 64, 0
1, 189216, Note_off_c, 0, 51, 62
1, 189240, Note_on_c, 0, 60, 60
1, 189242, Note_on_c, 0, 48, 55
1, 189271, Note_off_c, 0, 48, 61
1, 189279, Note_off_c, 0, 60, 58
1, 189343, Note_on_c, 0, 40, 65
1, 189347, Note_on_c, 0, 52, 82
1, 189400, Note_off_c, 0, 40, 63
1, 189403, Note_off_c, 0, 52, 63
1, 189435, Note_on_c, 0, 58, 67
1, 189436, Note_on_c, 0, 46, 59
1, 189467, Note_off_c, 0, 58, 61
1, 189471, Note_off_c, 0, 46, 62
1, 189539, Note_on_c, 0, 53, 88
1, 189553, Note_on_c, 0, 41, 72
1, 189555, Control_c, 0, 64, 51
1, 189570, Control_c, 0, 64, 85
1, 189585, Control_c, 0, 64, 127
1, 189623, Note_off_c, 0, 53, 58
1, 189628, Note_off_c, 0, 41, 61
1, 189656, Note_on_c, 0, 52, 56
1, 189657, Note_on_c, 0, 64, 60
1, 189691, Note_off_c, 0, 52, 63
1, 189693, Note_off_c, 0, 64, 60
1, 189753, Note_on_c, 0, 48, 40
1, 189767, Note_on_c, 0, 60, 55
1, 189794, Note_off_c, 0, 48, 50
1, 189794, Note_off_c, 0, 60, 61
1, 189800, Control_c, 0, 64, 99
1, 189815, Control_c, 0, 64, 61
1, 189830, Control_c, 0, 64, 0
1, 189863, Note_on_c, 0, 42, 65
1, 189866, Note_on_c, 0, 54, 79
1, 189919, Note_off_c, 0, 54, 62
1, 189922, Note_off_c, 0, 42, 59
1, 189961, Note_on_c, 0, 48, 41
1, 189976, Note_on_c, 0, 64, 38
1, 189997, Note_off_c, 0, 48, 48
1, 190003, Note_off_c, 0, 64, 54
1, 190065, Note_on_c, 0, 43, 59
1, 190065, Note_on_c, 0, 53, 72
1, 190114, Note_off_c, 0, 43, 59
1, 190125, Note_off_c, 0, 53, 62
1, 190154, Note_on_c, 0, 64, 45
1, 190174, Note_on_c, 0, 48, 35
1, 190184, Note_off_c, 0, 64, 58
1, 190208, Note_off_c, 0, 48, 44
1, 190268, Note_on_c, 0, 52, 73
1, 190271, Note_on_c, 0, 44, 52
1, 190306, Note_off_c, 0, 44, 62
1, 190324, Note_off_c, 0, 52, 63
1, 190357, Note_on_c, 0, 48, 42
1, 190362, Note_on_c, 0, 58, 50
1, 190384, Note_off_c, 0, 48, 55
1, 190386, Note_off_c, 0, 58, 59
1, 190482, Note_on_c, 0, 51, 76
1, 190497, Control_c, 0, 64, 8
1, 190519, Control_c, 0, 64, 72
1, 190521, Note_on_c, 0, 45, 9
1, 190533, Control_c, 0, 64, 90
1, 190548, Control_c, 0, 64, 127
1, 190567, Note_off_c, 0, 51, 55
1, 190570, Note_off_c, 0, 45, 51
1, 190597, Note_on_c, 0, 52, 39
1, 190605, Note_on_c, 0, 60, 47
1, 190631, Note_off_c, 0, 52, 54
1, 190646, Note_off_c, 0, 60, 54
1, 190695, Note_on_c, 0, 58, 54
1, 190700, Note_on_c, 0, 48, 35
1, 190720, Note_off_c, 0, 58, 63
1, 190735, Note_off_c, 0, 48, 48
1, 190801, Control_c, 0, 64, 101
1, 190815, Control_c, 0, 64, 65
1, 190830, Control_c, 0, 64, 40
1, 190845, Control_c, 0, 64, 54
1, 190857, Note_on_c, 0, 54, 99
1, 190859, Control_c, 0, 64, 74
1, 190863, Note_on_c, 0, 39, 79
1, 190872, Note_on_c, 0, 46, 72
1, 190874, Control_c, 0, 64, 127
1, 190922, Note_off_c, 0, 54, 62
1, 190939, Note_off_c, 0, 39, 60
1, 190948, Note_on_c, 0, 60, 70
1, 190965, Note_off_c, 0, 46, 33
1, 190971, Note_on_c, 0, 52, 67
1, 190998, Note_off_c, 0, 52, 68
1, 191005, Note_off_c, 0, 60, 60
1, 191055, Note_on_c, 0, 55, 87
1, 191064, Note_on_c, 0, 47, 76
1, 191064, Note_on_c, 0, 40, 79
1, 191082, Control_c, 0, 64, 89
1, 191096, Control_c, 0, 64, 68
1, 191111, Control_c, 0, 64, 50
1, 191113, Note_off_c, 0, 55, 61
1, 191114, Note_off_c, 0, 47, 63
1, 191114, Note_off_c, 0, 40, 63
1, 191126, Control_c, 0, 64, 0
1, 191159, Note_on_c, 0, 64, 56
1, 191170, Note_on_c, 0, 62, 48
1, 191174, Note_on_c, 0, 46, 81
1, 191183, Note_off_c, 0, 64, 63
1, 191197, Note_off_c, 0, 62, 55
1, 191219, Note_off_c, 0, 46, 62
1, 191280, Note_on_c, 0, 56, 96
1, 191284, Control_c, 0, 64, 34
1, 191287, Note_on_c, 0, 41, 84
1, 191298, Control_c, 0, 64, 75
1, 191313, Control_c, 0, 64, 127
1, 191314, Note_on_c, 0, 48, 56
1, 191338, Note_off_c, 0, 48, 57
1, 191377, Note_off_c, 0, 56, 62
1, 191383, Note_off_c, 0, 41, 40
1, 191386, Note_on_c, 0, 60, 67
1, 191413, Note_on_c, 0, 64, 50
1, 191414, Note_on_c, 0, 48, 75
1, 191435, Note_off_c, 0, 60, 59
1, 191448, Note_on_c, 0, 54, 50
1, 191475, Note_off_c, 0, 54, 56
1, 191482, Note_off_c, 0, 48, 54
1, 191490, Note_off_c, 0, 64, 57
1, 191496, Note_on_c, 0, 66, 70
1, 191515, Note_on_c, 0, 46, 64
1, 191526, Note_off_c, 0, 66, 66
1, 191537, Note_off_c, 0, 46, 61
1, 191624, Note_on_c, 0, 64, 73
1, 191624, Control_c, 0, 64, 87
1, 191635, Note_on_c, 0, 58, 63
1, 191636, Note_on_c, 0, 49, 68
1, 191639, Note_on_c, 0, 42, 68
1, 191639, Control_c, 0, 64, 70
1, 191654, Control_c, 0, 64, 61
1, 191669, Control_c, 0, 64, 42
1, 191670, Note_off_c, 0, 49, 62
1, 191671, Note_off_c, 0, 58, 54
1, 191679, Note_off_c, 0, 42, 60
1, 191683, Control_c, 0, 64, 0
1, 191684, Note_off_c, 0, 64, 61
1, 191738, Note_on_c, 0, 70, 64
1, 191742, Note_on_c, 0, 36, 78
1, 191781, Note_off_c, 0, 70, 59
1, 191805, Note_off_c, 0, 36, 61
1, 191834, Note_on_c, 0, 65, 74
1, 191837, Note_on_c, 0, 50, 64
1, 191843, Note_on_c, 0, 43, 65
1, 191843, Note_on_c, 0, 59, 68
1, 191877, Note_off_c, 0, 50, 63
1, 191877, Note_off_c, 0, 59, 59
1, 191887, Note_off_c, 0, 65, 62
1, 191895, Note_off_c, 0, 43, 62
1, 191942, Note_on_c, 0, 37, 80
1, 191943, Note_on_c, 0, 71, 70
1, 191990, Note_off_c, 0, 71, 61
1, 192027, Note_off_c, 0, 37, 61
1, 192045, Note_on_c, 0, 66, 81
1, 192048, Note_on_c, 0, 51, 64
1, 192059, Note_on_c, 0, 44, 58
1, 192062, Note_on_c, 0, 60, 54
1, 192077, Note_off_c, 0, 51, 64
1, 192089, Note_off_c, 0, 60, 57
1, 192096, Note_off_c, 0, 66, 64
1, 192125, Note_off_c, 0, 44, 60
1, 192150, Note_on_c, 0, 38, 66
1, 192152, Note_on_c, 0, 72, 73
1, 192187, Note_off_c, 0, 72, 60
1, 192199, Note_off_c, 0, 38, 62
1, 192246, Note_on_c, 0, 70, 75
1, 192256, Note_on_c, 0, 40, 61
1, 192283, Note_off_c, 0, 70, 57
1, 192295, Note_off_c, 0, 40, 63
1, 192346, Note_on_c, 0, 65, 89
1, 192357, Note_on_c, 0, 50, 70
1, 192358, Note_on_c, 0, 60, 79
1, 192363, Note_on_c, 0, 45, 65
1, 192373, Control_c, 0, 64, 64
1, 192387, Control_c, 0, 64, 127
1, 192393, Note_off_c, 0, 45, 66
1, 192393, Note_off_c, 0, 50, 62
1, 192408, Note_off_c, 0, 60, 60
1, 192408, Note_off_c, 0, 65, 61
1, 192453, Note_on_c, 0, 70, 80
1, 192488, Note_on_c, 0, 43, 44
1, 192500, Note_off_c, 0, 70, 60
1, 192506, Control_c, 0, 64, 112
1, 192518, Note_off_c, 0, 43, 50
1, 192521, Control_c, 0, 64, 79
1, 192536, Control_c, 0, 64, 61
1, 192551, Control_c, 0, 64, 0
1, 192563, Note_on_c, 0, 64, 61
1, 192564, Note_on_c, 0, 46, 62
1, 192599, Note_off_c, 0, 46, 63
1, 192618, Note_off_c, 0, 64, 65
1, 192669, Note_on_c, 0, 66, 90
1, 192669, Control_c, 0, 64, 68
1, 192674, Note_on_c, 0, 61, 83
1, 192676, Note_on_c, 0, 45, 68
1, 192676, Note_on_c, 0, 52, 73
1, 192684, Control_c, 0, 64, 127
1, 192714, Note_off_c, 0, 45, 64
1, 192723, Note_off_c, 0, 52, 62
1, 192724, Note_off_c, 0, 61, 61
1, 192739, Note_off_c, 0, 66, 63
1, 192793, Note_on_c, 0, 44, 67
1, 192794, Note_on_c, 0, 72, 65
1, 192825, Control_c, 0, 64, 95
1, 192830, Note_off_c, 0, 44, 64
1, 192840, Control_c, 0, 64, 68
1, 192855, Note_off_c, 0, 72, 57
1, 192855, Control_c, 0, 64, 41
1, 192870, Control_c, 0, 64, 0
1, 192895, Note_on_c, 0, 68, 65
1, 192903, Note_on_c, 0, 48, 63
1, 192931, Note_off_c, 0, 68, 59
1, 192938, Note_off_c, 0, 48, 63
1, 193004, Note_on_c, 0, 62, 67
1, 193007, Note_on_c, 0, 67, 68
1, 193040, Note_on_c, 0, 46, 45
1, 193051, Note_off_c, 0, 62, 56
1, 193058, Note_off_c, 0, 67, 58
1, 193068, Note_off_c, 0, 46, 51
1, 193118, Note_on_c, 0, 72, 70
1, 193138, Note_on_c, 0, 42, 67
1, 193159, Note_off_c, 0, 72, 61
1, 193189, Note_off_c, 0, 42, 58
1, 193210, Control_c, 0, 64, 56
1, 193211, Note_on_c, 0, 68, 78
1, 193224, Note_on_c, 0, 63, 63
1, 193225, Control_c, 0, 64, 68
1, 193230, Note_on_c, 0, 54, 67
1, 193232, Note_on_c, 0, 47, 68
1, 193240, Control_c, 0, 64, 73
1, 193254, Note_off_c, 0, 63, 64
1, 193255, Control_c, 0, 64, 73
1, 193262, Note_off_c, 0, 68, 63
1, 193269, Note_off_c, 0, 54, 58
1, 193273, Note_off_c, 0, 47, 63
1, 193284, Control_c, 0, 64, 76
1, 193299, Control_c, 0, 64, 82
1, 193314, Control_c, 0, 64, 86
1, 193320, Note_on_c, 0, 73, 83
1, 193329, Note_on_c, 0, 43, 78
1, 193329, Control_c, 0, 64, 82
1, 193344, Control_c, 0, 64, 67
1, 193359, Control_c, 0, 64, 0
1, 193380, Note_off_c, 0, 73, 61
1, 193398, Note_off_c, 0, 43, 61
1, 193413, Note_on_c, 0, 48, 67
1, 193417, Note_on_c, 0, 69, 80
1, 193429, Note_on_c, 0, 64, 65
1, 193433, Note_on_c, 0, 55, 46
1, 193459, Note_off_c, 0, 55, 59
1, 193460, Note_off_c, 0, 64, 62
1, 193466, Note_off_c, 0, 48, 61
1, 193469, Note_off_c, 0, 69, 66
1, 193528, Note_on_c, 0, 44, 73
1, 193529, Note_on_c, 0, 74, 78
1, 193574, Control_c, 0, 64, 68
1, 193583, Note_off_c, 0, 74, 65
1, 193588, Control_c, 0, 64, 76
1, 193599, Note_off_c, 0, 44, 63
1, 193603, Control_c, 0, 64, 70
1, 193618, Control_c, 0, 64, 55
1, 193620, Note_on_c, 0, 70, 84
1, 193621, Note_on_c, 0, 49, 65
1, 193630, Note_on_c, 0, 56, 58
1, 193633, Control_c, 0, 64, 0
1, 193635, Note_on_c, 0, 65, 62
1, 193666, Note_off_c, 0, 56, 61
1, 193666, Note_off_c, 0, 65, 64
1, 193676, Note_off_c, 0, 49, 58
1, 193679, Note_off_c, 0, 70, 61
1, 193708, Control_c, 0, 67, 123
1, 193723, Control_c, 0, 67, 115
1, 193727, Note_on_c, 0, 45, 66
1, 193729, Note_on_c, 0, 75, 87
1, 193738, Control_c, 0, 67, 104
1, 193752, Control_c, 0, 67, 90
1, 193767, Control_c, 0, 64, 61
1, 193767, Control_c, 0, 67, 76
1, 193782, Note_off_c, 0, 75, 64
1, 193782, Control_c, 0, 64, 127
1, 193782, Control_c, 0, 67, 64
1, 193797, Control_c, 0, 67, 49
1, 193812, Control_c, 0, 67, 31
1, 193813, Note_on_c, 0, 57, 66
1, 193815, Note_on_c, 0, 50, 66
1, 193816, Note_off_c, 0, 45, 63
1, 193818, Note_on_c, 0, 71, 86
1, 193825, Note_on_c, 0, 66, 79
1, 193827, Control_c, 0, 67, 0
1, 193859, Note_off_c, 0, 57, 61
1, 193870, Note_off_c, 0, 50, 62
1, 193874, Note_off_c, 0, 66, 64
1, 193881, Note_off_c, 0, 71, 60
1, 193929, Note_on_c, 0, 46, 83
1, 193930, Control_c, 0, 64, 70
1, 193933, Note_on_c, 0, 76, 81
1, 193945, Control_c, 0, 64, 0
1, 193973, Note_on_c, 0, 75, 32
1, 193989, Control_c, 0, 64, 41
1, 193997, Note_off_c, 0, 76, 64
1, 194004, Control_c, 0, 64, 64
1, 194008, Note_off_c, 0, 46, 62
1, 194009, Note_off_c, 0, 75, 45
1, 194019, Control_c, 0, 64, 62
1, 194027, Note_on_c, 0, 51, 63
1, 194028, Note_on_c, 0, 72, 72
1, 194030, Note_on_c, 0, 58, 69
1, 194033, Control_c, 0, 64, 37
1, 194037, Note_on_c, 0, 67, 65
1, 194048, Control_c, 0, 64, 0
1, 194072, Note_off_c, 0, 58, 60
1, 194075, Note_off_c, 0, 67, 59
1, 194077, Note_off_c, 0, 51, 55
1, 194085, Note_off_c, 0, 72, 64
1, 194129, Note_on_c, 0, 78, 80
1, 194137, Note_on_c, 0, 47, 71
1, 194184, Note_off_c, 0, 78, 61
1, 194210, Note_off_c, 0, 47, 62
1, 194225, Note_on_c, 0, 74, 66
1, 194227, Note_on_c, 0, 54, 62
1, 194275, Note_off_c, 0, 54, 60
1, 194286, Note_off_c, 0, 74, 59
1, 194344, Note_on_c, 0, 75, 88
1, 194348, Note_on_c, 0, 68, 87
1, 194354, Note_on_c, 0, 48, 71
1, 194367, Control_c, 0, 64, 34
1, 194381, Control_c, 0, 64, 88
1, 194396, Control_c, 0, 64, 127
1, 194403, Note_off_c, 0, 68, 63
1, 194423, Note_off_c, 0, 48, 60
1, 194436, Note_off_c, 0, 75, 59
1, 194451, Note_on_c, 0, 56, 65
1, 194458, Note_on_c, 0, 78, 69
1, 194494, Note_off_c, 0, 56, 52
1, 194507, Note_off_c, 0, 78, 52
1, 194552, Note_on_c, 0, 76, 89
1, 194557, Note_on_c, 0, 49, 74
1, 194560, Note_on_c, 0, 69, 81
1, 194608, Note_off_c, 0, 69, 67
1, 194610, Note_off_c, 0, 49, 61
1, 194646, Note_off_c, 0, 76, 60
1, 194653, Note_on_c, 0, 58, 64
1, 194658, Note_on_c, 0, 80, 73
1, 194680, Note_off_c, 0, 58, 65
1, 194703, Note_off_c, 0, 80, 59
1, 194768, Control_c, 0, 64, 68
1, 194769, Note_on_c, 0, 50, 75
1, 194772, Note_on_c, 0, 77, 93
1, 194778, Note_on_c, 0, 70, 95
1, 194782, Control_c, 0, 64, 0
1, 194826, Control_c, 0, 64, 62
1, 194840, Note_off_c, 0, 50, 62
1, 194841, Control_c, 0, 64, 127
1, 194863, Note_on_c, 0, 60, 69
1, 194873, Note_off_c, 0, 70, 58
1, 194874, Note_off_c, 0, 77, 60
1, 194891, Note_on_c, 0, 80, 75
1, 194912, Note_off_c, 0, 60, 56
1, 194961, Note_on_c, 0, 56, 68
1, 194963, Note_off_c, 0, 80, 57
1, 194993, Note_off_c, 0, 56, 59
1, 195003, Note_on_c, 0, 78, 63
1, 195058, Note_off_c, 0, 78, 60
1, 195071, Control_c, 0, 64, 70
1, 195083, Note_on_c, 0, 51, 82
1, 195084, Note_on_c, 0, 57, 79
1, 195086, Control_c, 0, 64, 36
1, 195091, Note_on_c, 0, 71, 88
1, 195091, Note_on_c, 0, 77, 88
1, 195100, Control_c, 0, 64, 0
1, 195114, Note_on_c, 0, 74, 64
1, 195115, Control_c, 0, 64, 40
1, 195130, Control_c, 0, 64, 77
1, 195139, Note_off_c, 0, 57, 64
1, 195145, Control_c, 0, 64, 127
1, 195151, Note_off_c, 0, 51, 58
1, 195168, Note_off_c, 0, 74, 63
1, 195171, Note_off_c, 0, 71, 62
1, 195180, Note_off_c, 0, 77, 60
1, 195184, Note_on_c, 0, 60, 69
1, 195199, Note_on_c, 0, 80, 77
1, 195209, Note_on_c, 0, 54, 64
1, 195219, Note_off_c, 0, 80, 72
1, 195230, Note_off_c, 0, 60, 59
1, 195239, Note_off_c, 0, 54, 64
1, 195285, Note_on_c, 0, 78, 93
1, 195292, Note_on_c, 0, 58, 86
1, 195297, Note_on_c, 0, 72, 76
1, 195311, Note_on_c, 0, 52, 72
1, 195330, Note_off_c, 0, 72, 61
1, 195338, Note_off_c, 0, 78, 64
1, 195342, Note_off_c, 0, 58, 63
1, 195384, Note_on_c, 0, 62, 80
1, 195391, Note_on_c, 0, 54, 62
1, 195399, Note_on_c, 0, 83, 69
1, 195400, Note_on_c, 0, 84, 65
1, 195409, Note_on_c, 0, 86, 73
1, 195416, Note_off_c, 0, 52, 62
1, 195425, Note_off_c, 0, 54, 64
1, 195425, Note_off_c, 0, 86, 67
1, 195434, Note_off_c, 0, 62, 62
1, 195441, Note_off_c, 0, 84, 63
1, 195447, Note_on_c, 0, 81, 25
1, 195448, Note_off_c, 0, 83, 61
1, 195466, Poly_aftertouch_c, 0, 80, 0
1, 195479, Note_on_c, 0, 80, 66
1, 195482, Note_on_c, 0, 58, 87
1, 195485, Note_off_c, 0, 81, 44
1, 195499, Note_on_c, 0, 73, 81
1, 195534, Note_on_c, 0, 79, 61
1, 195539, Note_off_c, 0, 58, 63
1, 195539, Note_off_c, 0, 73, 66
1, 195551, Note_off_c, 0, 80, 64
1, 195554, Note_off_c, 0, 79, 65
1, 195592, Note_on_c, 0, 64, 86
1, 195598, Note_on_c, 0, 86, 87
1, 195601, Note_on_c, 0, 84, 78
1, 195607, Note_on_c, 0, 56, 47
1, 195624, Note_on_c, 0, 54, 33
1, 195631, Note_off_c, 0, 56, 60
1, 195639, Note_off_c, 0, 64, 63
1, 195639, Note_off_c, 0, 86, 64
1, 195645, Note_off_c, 0, 84, 65
1, 195650, Note_off_c, 0, 54, 34
1, 195690, Note_on_c, 0, 80, 98
1, 195695, Note_on_c, 0, 60, 81
1, 195698, Note_on_c, 0, 54, 73
1, 195699, Note_on_c, 0, 74, 88
1, 195724, Note_on_c, 0, 85, 44
1, 195726, Poly_aftertouch_c, 0, 82, 127
1, 195726, Note_on_c, 0, 58, 38
1, 195741, Note_off_c, 0, 60, 62
1, 195744, Note_off_c, 0, 58, 66
1, 195744, Note_off_c, 0, 54, 60
1, 195759, Note_off_c, 0, 85, 37
1, 195764, Note_off_c, 0, 74, 62
1, 195765, Note_off_c, 0, 80, 61
1, 195765, Poly_aftertouch_c, 0, 82, 0
1, 195794, Note_on_c, 0, 65, 92
1, 195803, Note_on_c, 0, 83, 82
1, 195818, Note_on_c, 0, 87, 66
1, 195835, Note_off_c, 0, 87, 65
1, 195857, Note_off_c, 0, 65, 56
1, 195861, Note_off_c, 0, 83, 57
1, 195893, Note_on_c, 0, 62, 85
1, 195911, Note_on_c, 0, 78, 58
1, 195934, Note_off_c, 0, 78, 38
1, 195943, Note_off_c, 0, 62, 62
1, 195967, Control_c, 0, 64, 76
1, 195982, Control_c, 0, 64, 0
1, 196011, Note_on_c, 0, 66, 105
1, 196019, Note_on_c, 0, 88, 92
1, 196020, Note_on_c, 0, 84, 88
1, 196021, Note_on_c, 0, 86, 81
1, 196025, Note_on_c, 0, 57, 71
1, 196027, Control_c, 0, 64, 58
1, 196040, Note_on_c, 0, 60, 48
1, 196042, Note_on_c, 0, 62, 44
1, 196042, Note_on_c, 0, 87, 34
1, 196042, Control_c, 0, 64, 103
1, 196057, Control_c, 0, 64, 127
1, 196066, Note_off_c, 0, 60, 55
1, 196072, Note_off_c, 0, 62, 57
1, 196077, Note_on_c, 0, 56, 1
1, 196078, Note_off_c, 0, 87, 31
1, 196081, Note_off_c, 0, 57, 63
1, 196086, Note_off_c, 0, 86, 62
1, 196086, Note_off_c, 0, 88, 64
1, 196095, Note_off_c, 0, 66, 64
1, 196108, Note_off_c, 0, 84, 62
1, 196110, Note_on_c, 0, 80, 84
1, 196120, Note_off_c, 0, 56, 36
1, 196148, Note_on_c, 0, 62, 70
1, 196152, Note_off_c, 0, 80, 62
1, 196212, Note_on_c, 0, 89, 83
1, 196216, Note_on_c, 0, 87, 90
1, 196220, Note_on_c, 0, 85, 85
1, 196229, Note_on_c, 0, 67, 99
1, 196231, Note_on_c, 0, 58, 75
1, 196262, Note_off_c, 0, 89, 64
1, 196270, Note_off_c, 0, 62, 59
1, 196280, Note_off_c, 0, 85, 64
1, 196283, Note_off_c, 0, 87, 63
1, 196298, Note_off_c, 0, 67, 61
1, 196312, Note_on_c, 0, 84, 87
1, 196316, Note_on_c, 0, 78, 83
1, 196339, Note_on_c, 0, 60, 47
1, 196351, Note_on_c, 0, 56, 75
1, 196352, Note_off_c, 0, 78, 57
1, 196363, Note_off_c, 0, 84, 63
1, 196385, Note_off_c, 0, 58, 61
1, 196423, Note_on_c, 0, 90, 86
1, 196423, Note_on_c, 0, 88, 81
1, 196425, Note_on_c, 0, 68, 93
1, 196429, Note_on_c, 0, 86, 86
1, 196432, Note_on_c, 0, 70, 84
1, 196450, Note_off_c, 0, 70, 73
1, 196484, Note_off_c, 0, 60, 63
1, 196487, Note_off_c, 0, 86, 62
1, 196490, Note_off_c, 0, 68, 64
1, 196491, Note_off_c, 0, 90, 61
1, 196492, Note_off_c, 0, 88, 64
1, 196509, Note_off_c, 0, 56, 24
1, 196528, Note_on_c, 0, 84, 84
1, 196546, Note_on_c, 0, 54, 86
1, 196549, Note_on_c, 0, 61, 70
1, 196555, Note_on_c, 0, 80, 49
1, 196569, Note_off_c, 0, 84, 66
1, 196578, Note_off_c, 0, 80, 61
1, 196601, Note_off_c, 0, 54, 59
1, 196618, Note_off_c, 0, 61, 56
1, 196630, Note_on_c, 0, 89, 90
1, 196633, Note_on_c, 0, 91, 92
1, 196640, Note_on_c, 0, 69, 91
1, 196655, Note_on_c, 0, 62, 60
1, 196675, Note_on_c, 0, 63, 31
1, 196679, Note_off_c, 0, 91, 58
1, 196681, Note_off_c, 0, 62, 65
1, 196693, Note_off_c, 0, 69, 67
1, 196695, Note_off_c, 0, 89, 66
1, 196712, Note_off_c, 0, 63, 53
1, 196728, Note_on_c, 0, 87, 91
1, 196742, Note_on_c, 0, 78, 63
1, 196751, Note_on_c, 0, 56, 75
1, 196761, Note_off_c, 0, 78, 66
1, 196784, Note_off_c, 0, 87, 64
1, 196828, Note_off_c, 0, 56, 59
1, 196829, Note_on_c, 0, 92, 97
1, 196837, Note_on_c, 0, 70, 98
1, 196843, Note_on_c, 0, 90, 77
1, 196844, Note_on_c, 0, 88, 86
1, 196850, Note_on_c, 0, 87, 51
1, 196879, Note_off_c, 0, 70, 69
1, 196882, Note_off_c, 0, 90, 59
1, 196885, Note_off_c, 0, 92, 65
1, 196890, Note_off_c, 0, 88, 63
1, 196891, Note_off_c, 0, 87, 46
1, 196927, Note_on_c, 0, 84, 89
1, 196960, Note_on_c, 0, 60, 53
1, 196979, Note_off_c, 0, 84, 65
1, 196982, Note_on_c, 0, 59, 26
1, 196987, Note_off_c, 0, 60, 65
1, 197022, Note_off_c, 0, 59, 53
1, 197025, Note_on_c, 0, 87, 95
1, 197040, Note_on_c, 0, 64, 90
1, 197073, Note_off_c, 0, 87, 66
1, 197081, Note_off_c, 0, 64, 69
1, 197132, Control_c, 0, 64, 99
1, 197139, Note_on_c, 0, 93, 102
1, 197145, Note_on_c, 0, 83, 103
1, 197147, Note_on_c, 0, 89, 94
1, 197147, Control_c, 0, 64, 61
1, 197149, Note_on_c, 0, 60, 107
1, 197150, Note_on_c, 0, 53, 90
1, 197162, Control_c, 0, 64, 0
1, 197201, Note_on_c, 0, 55, 27
1, 197206, Control_c, 0, 64, 61
1, 197220, Control_c, 0, 64, 119
1, 197235, Control_c, 0, 64, 127
1, 197255, Note_off_c, 0, 55, 29
1, 197275, Note_off_c, 0, 83, 56
1, 197286, Note_off_c, 0, 93, 56
1, 197295, Note_off_c, 0, 89, 64
1, 197377, Note_on_c, 0, 90, 108
1, 197379, Note_on_c, 0, 84, 95
1, 197390, Poly_aftertouch_c, 0, 86, 0
1, 197443, Note_off_c, 0, 84, 63
1, 197461, Note_off_c, 0, 60, 0
1, 197477, Note_off_c, 0, 53, 0
1, 197480, Note_on_c, 0, 63, 105
1, 197481, Note_on_c, 0, 87, 78
1, 197483, Note_off_c, 0, 90, 63
1, 197490, Note_on_c, 0, 57, 79
1, 197493, Note_on_c, 0, 53, 47
1, 197497, Poly_aftertouch_c, 0, 60, 127
1, 197503, Note_off_c, 0, 87, 64
1, 197578, Note_off_c, 0, 53, 49
1, 197588, Note_on_c, 0, 91, 99
1, 197589, Note_on_c, 0, 85, 98
1, 197592, Note_off_c, 0, 57, 60
1, 197682, Note_off_c, 0, 85, 50
1, 197696, Note_on_c, 0, 87, 88
1, 197708, Note_off_c, 0, 91, 58
1, 197741, Note_off_c, 0, 87, 63
1, 197807, Note_on_c, 0, 92, 104
1, 197808, Note_on_c, 0, 86, 97
1, 197863, Note_off_c, 0, 86, 60
1, 197872, Poly_aftertouch_c, 0, 60, 0
1, 197899, Note_off_c, 0, 92, 64
1, 197911, Note_on_c, 0, 56, 84
1, 197911, Note_on_c, 0, 59, 84
1, 197913, Note_on_c, 0, 89, 84
1, 197962, Note_off_c, 0, 89, 63
1, 198017, Note_on_c, 0, 87, 90
1, 198057, Note_off_c, 0, 87, 63
1, 198092, Note_off_c, 0, 63, 54
1, 198137, Note_off_c, 0, 59, 59
1, 198140, Note_off_c, 0, 56, 56
1, 198200, Note_on_c, 0, 93, 107
1, 198203, Note_on_c, 0, 85, 97
1, 198307, Note_off_c, 0, 85, 60
1, 198319, Note_on_c, 0, 88, 66
1, 198327, Note_off_c, 0, 93, 57
1, 198346, Note_off_c, 0, 88, 67
1, 198418, Note_on_c, 0, 94, 104
1, 198421, Note_on_c, 0, 86, 97
1, 198508, Note_off_c, 0, 86, 57
1, 198521, Note_on_c, 0, 89, 72
1, 198526, Note_off_c, 0, 94, 63
1, 198540, Note_on_c, 0, 66, 103
1, 198545, Note_off_c, 0, 89, 68
1, 198548, Note_on_c, 0, 51, 91
1, 198550, Note_on_c, 0, 58, 79
1, 198555, Control_c, 0, 64, 74
1, 198570, Control_c, 0, 64, 41
1, 198585, Control_c, 0, 64, 0
1, 198615, Control_c, 0, 64, 56
1, 198629, Control_c, 0, 64, 84
1, 198638, Note_on_c, 0, 95, 101
1, 198641, Note_on_c, 0, 87, 105
1, 198644, Control_c, 0, 64, 127
1, 198705, Note_off_c, 0, 66, 68
1, 198711, Note_off_c, 0, 87, 61
1, 198728, Note_off_c, 0, 58, 51
1, 198754, Note_off_c, 0, 95, 59
1, 198770, Note_on_c, 0, 93, 70
1, 198796, Note_off_c, 0, 51, 58
1, 198862, Note_on_c, 0, 89, 76
1, 198883, Note_off_c, 0, 93, 55
1, 198893, Note_off_c, 0, 89, 63
1, 198984, Note_on_c, 0, 88, 100
1, 198984, Note_on_c, 0, 96, 106
1, 199087, Note_off_c, 0, 88, 59
1, 199094, Note_off_c, 0, 96, 61
1, 199095, Note_on_c, 0, 93, 70
1, 199122, Note_off_c, 0, 93, 63
1, 199200, Note_on_c, 0, 89, 104
1, 199200, Note_on_c, 0, 97, 102
1, 199231, Control_c, 0, 64, 98
1, 199245, Control_c, 0, 64, 64
1, 199249, Note_on_c, 0, 96, 64
1, 199260, Control_c, 0, 64, 0
1, 199287, Note_off_c, 0, 89, 64
1, 199300, Note_on_c, 0, 35, 89
1, 199300, Note_on_c, 0, 42, 102
1, 199306, Note_on_c, 0, 95, 56
1, 199312, Note_off_c, 0, 96, 61
1, 199321, Note_on_c, 0, 41, 91
1, 199322, Note_off_c, 0, 97, 56
1, 199334, Note_off_c, 0, 95, 68
1, 199336, Note_on_c, 0, 38, 52
1, 199349, Control_c, 0, 66, 127
1, 199371, Note_off_c, 0, 38, 50
1, 199393, Control_c, 0, 64, 31
1, 199404, Note_on_c, 0, 90, 100
1, 199404, Note_on_c, 0, 98, 101
1, 199408, Control_c, 0, 64, 64
1, 199422, Control_c, 0, 64, 87
1, 199437, Control_c, 0, 64, 127
1, 199449, Note_off_c, 0, 41, 0
1, 199485, Note_off_c, 0, 35, 64
1, 199485, Note_off_c, 0, 98, 63
1, 199486, Poly_aftertouch_c, 0, 41, 127
1, 199499, Note_off_c, 0, 90, 61
1, 199512, Note_on_c, 0, 93, 78
1, 199535, Poly_aftertouch_c, 0, 41, 0
1, 199548, Note_off_c, 0, 42, 59
1, 199556, Note_off_c, 0, 93, 60
1, 199626, Note_on_c, 0, 99, 104
1, 199628, Note_on_c, 0, 87, 100
1, 199634, Note_on_c, 0, 91, 89
1, 199711, Note_off_c, 0, 91, 58
1, 199720, Note_off_c, 0, 87, 58
1, 199737, Note_off_c, 0, 99, 66
1, 199742, Note_on_c, 0, 95, 76
1, 199810, Note_off_c, 0, 95, 59
1, 199844, Note_on_c, 0, 93, 92
1, 199889, Note_off_c, 0, 93, 63
1, 199943, Note_on_c, 0, 92, 97
1, 199948, Note_on_c, 0, 88, 86
1, 200002, Note_off_c, 0, 88, 62
1, 200007, Note_off_c, 0, 92, 66
1, 200045, Note_on_c, 0, 64, 106
1, 200050, Note_on_c, 0, 56, 85
1, 200050, Note_on_c, 0, 95, 94
1, 200052, Note_on_c, 0, 49, 87
1, 200108, Note_off_c, 0, 95, 66
1, 200155, Note_on_c, 0, 93, 99
1, 200156, Note_on_c, 0, 89, 78
1, 200201, Note_off_c, 0, 89, 64
1, 200204, Note_off_c, 0, 93, 60
1, 200263, Note_on_c, 0, 99, 83
1, 200322, Note_off_c, 0, 99, 63
1, 200376, Note_off_c, 0, 49, 53
1, 200379, Note_on_c, 0, 94, 97
1, 200381, Note_on_c, 0, 90, 88
1, 200387, Note_off_c, 0, 64, 53
1, 200446, Note_off_c, 0, 90, 61
1, 200467, Note_off_c, 0, 94, 65
1, 200488, Note_on_c, 0, 95, 63
1, 200497, Note_off_c, 0, 56, 54
1, 200533, Note_off_c, 0, 95, 63
1, 200619, Note_on_c, 0, 96, 105
1, 200620, Note_on_c, 0, 91, 103
1, 200622, Note_on_c, 0, 84, 101
1, 200733, Note_off_c, 0, 96, 60
1, 200740, Note_on_c, 0, 93, 75
1, 200743, Note_off_c, 0, 91, 56
1, 200748, Note_off_c, 0, 84, 60
1, 200777, Note_off_c, 0, 93, 59
1, 200871, Note_on_c, 0, 97, 101
1, 200871, Note_on_c, 0, 85, 103
1, 200872, Note_on_c, 0, 90, 94
1, 200951, Note_off_c, 0, 85, 60
1, 200969, Note_off_c, 0, 97, 65
1, 200970, Note_off_c, 0, 90, 59
1, 200973, Note_on_c, 0, 95, 79
1, 201035, Note_off_c, 0, 95, 61
1, 201062, Control_c, 0, 66, 0
1, 201083, Note_on_c, 0, 93, 88
1, 201121, Control_c, 0, 64, 70
1, 201126, Note_off_c, 0, 93, 63
1, 201136, Control_c, 0, 64, 0
1, 201165, Control_c, 0, 66, 127
1, 201175, Note_on_c, 0, 59, 105
1, 201177, Note_on_c, 0, 57, 113
1, 201178, Note_on_c, 0, 53, 96
1, 201180, Note_on_c, 0, 48, 89
1, 201181, Note_on_c, 0, 86, 95
1, 201181, Note_on_c, 0, 98, 97
1, 201185, Note_on_c, 0, 91, 104
1, 201209, Control_c, 0, 64, 41
1, 201211, Note_on_c, 0, 52, 44
1, 201212, Note_off_c, 0, 52, 127
1, 201224, Control_c, 0, 64, 65
1, 201239, Control_c, 0, 64, 83
1, 201254, Control_c, 0, 64, 127
1, 201257, Note_off_c, 0, 98, 60
1, 201274, Note_off_c, 0, 86, 54
1, 201283, Note_off_c, 0, 91, 57
1, 201308, Note_on_c, 0, 95, 44
1, 201339, Note_off_c, 0, 95, 50
1, 201408, Note_off_c, 0, 59, 59
1, 201413, Note_on_c, 0, 87, 93
1, 201413, Note_off_c, 0, 48, 53
1, 201415, Note_on_c, 0, 99, 95
1, 201416, Note_on_c, 0, 92, 91
1, 201428, Note_off_c, 0, 57, 58
1, 201475, Note_off_c, 0, 53, 57
1, 201475, Note_off_c, 0, 99, 66
1, 201495, Note_off_c, 0, 87, 55
1, 201519, Note_on_c, 0, 95, 73
1, 201532, Note_off_c, 0, 92, 65
1, 201552, Note_off_c, 0, 95, 63
1, 201637, Note_on_c, 0, 88, 108
1, 201637, Note_on_c, 0, 96, 108
1, 201643, Note_on_c, 0, 93, 93
1, 201666, Note_on_c, 0, 95, 58
1, 201688, Note_off_c, 0, 95, 60
1, 201747, Note_off_c, 0, 88, 56
1, 201753, Note_off_c, 0, 96, 53
1, 201768, Note_on_c, 0, 95, 70
1, 201780, Note_off_c, 0, 93, 62
1, 201793, Note_off_c, 0, 95, 69
1, 201869, Note_on_c, 0, 89, 101
1, 201869, Note_on_c, 0, 97, 102
1, 201880, Note_on_c, 0, 94, 89
1, 201933, Note_off_c, 0, 97, 63
1, 201939, Note_off_c, 0, 89, 61
1, 201977, Note_off_c, 0, 94, 61
1, 201988, Note_on_c, 0, 95, 77
1, 202041, Note_off_c, 0, 95, 65
1, 202078, Note_on_c, 0, 93, 81
1, 202108, Note_off_c, 0, 93, 60
1, 202179, Note_on_c, 0, 88, 110
1, 202179, Note_on_c, 0, 92, 106
1, 202179, Note_on_c, 0, 45, 101
1, 202179, Note_on_c, 0, 98, 98
1, 202183, Note_on_c, 0, 29, 88
1, 202189, Note_on_c, 0, 36, 95
1, 202227, Note_on_c, 0, 43, 23
1, 202228, Note_off_c, 0, 43, 127
1, 202230, Note_on_c, 0, 31, 32
1, 202245, Note_off_c, 0, 29, 61
1, 202254, Note_off_c, 0, 36, 63
1, 202267, Poly_aftertouch_c, 0, 33, 127
1, 202274, Note_off_c, 0, 31, 44
1, 202284, Note_off_c, 0, 45, 63
1, 202287, Note_off_c, 0, 88, 59
1, 202297, Note_off_c, 0, 92, 63
1, 202298, Note_on_c, 0, 93, 73
1, 202299, Note_off_c, 0, 98, 61
1, 202308, Poly_aftertouch_c, 0, 33, 0
1, 202322, Note_off_c, 0, 93, 67
1, 202401, Note_on_c, 0, 89, 102
1, 202401, Note_on_c, 0, 99, 107
1, 202407, Note_on_c, 0, 94, 94
1, 202454, Note_off_c, 0, 99, 65
1, 202475, Note_off_c, 0, 89, 64
1, 202495, Note_off_c, 0, 94, 64
1, 202519, Note_on_c, 0, 93, 76
1, 202541, Note_off_c, 0, 93, 67
1, 202623, Note_on_c, 0, 85, 100
1, 202623, Note_on_c, 0, 95, 106
1, 202627, Note_on_c, 0, 90, 95
1, 202707, Note_off_c, 0, 85, 60
1, 202720, Note_off_c, 0, 90, 61
1, 202730, Note_off_c, 0, 95, 61
1, 202761, Note_on_c, 0, 93, 59
1, 202835, Note_off_c, 0, 93, 61
1, 202835, Note_on_c, 0, 89, 72
1, 202860, Note_off_c, 0, 89, 65
1, 202947, Note_on_c, 0, 96, 91
1, 202948, Note_on_c, 0, 86, 92
1, 202966, Note_on_c, 0, 94, 58
1, 202968, Note_on_c, 0, 91, 70
1, 202988, Note_off_c, 0, 94, 59
1, 203012, Note_off_c, 0, 96, 62
1, 203017, Note_off_c, 0, 86, 57
1, 203053, Note_on_c, 0, 87, 83
1, 203070, Note_off_c, 0, 91, 48
1, 203094, Note_off_c, 0, 87, 62
1, 203153, Note_on_c, 0, 97, 93
1, 203160, Note_on_c, 0, 88, 88
1, 203201, Note_off_c, 0, 88, 66
1, 203257, Note_on_c, 0, 87, 89
1, 203267, Note_off_c, 0, 97, 42
1, 203300, Note_off_c, 0, 87, 63
1, 203308, Control_c, 0, 66, 0
1, 203338, Control_c, 0, 64, 106
1, 203352, Control_c, 0, 64, 64
1, 203367, Control_c, 0, 64, 0
1, 203369, Note_on_c, 0, 86, 103
1, 203370, Note_on_c, 0, 98, 98
1, 203385, Note_on_c, 0, 94, 75
1, 203396, Control_c, 0, 64, 53
1, 203399, Note_off_c, 0, 94, 69
1, 203411, Control_c, 0, 64, 76
1, 203426, Control_c, 0, 64, 127
1, 203437, Note_off_c, 0, 98, 65
1, 203446, Note_off_c, 0, 86, 60
1, 203470, Note_on_c, 0, 93, 85
1, 203471, Note_on_c, 0, 89, 85
1, 203488, Note_on_c, 0, 56, 110
1, 203495, Note_on_c, 0, 46, 91
1, 203495, Note_on_c, 0, 54, 95
1, 203497, Note_on_c, 0, 49, 82
1, 203500, Control_c, 0, 66, 127
1, 203511, Note_off_c, 0, 89, 68
1, 203519, Note_off_c, 0, 93, 60
1, 203580, Note_on_c, 0, 87, 100
1, 203580, Note_on_c, 0, 99, 101
1, 203650, Note_off_c, 0, 99, 59
1, 203651, Note_off_c, 0, 87, 55
1, 203658, Note_off_c, 0, 46, 60
1, 203691, Note_on_c, 0, 95, 67
1, 203693, Note_on_c, 0, 93, 65
1, 203700, Note_off_c, 0, 56, 54
1, 203712, Note_off_c, 0, 54, 51
1, 203713, Note_off_c, 0, 49, 58
1, 203737, Note_off_c, 0, 93, 59
1, 203739, Note_off_c, 0, 95, 64
1, 203783, Note_on_c, 0, 89, 83
1, 203825, Note_off_c, 0, 89, 66
1, 203897, Note_on_c, 0, 88, 109
1, 203897, Note_on_c, 0, 100, 104
1, 203959, Note_off_c, 0, 100, 59
1, 203990, Note_off_c, 0, 88, 63
1, 204013, Note_on_c, 0, 90, 66
1, 204026, Note_on_c, 0, 94, 71
1, 204033, Note_off_c, 0, 90, 64
1, 204043, Note_off_c, 0, 94, 68
1, 204149, Note_on_c, 0, 96, 100
1, 204151, Note_on_c, 0, 84, 103
1, 204218, Note_off_c, 0, 84, 61
1, 204235, Note_off_c, 0, 96, 35
1, 204281, Note_on_c, 0, 95, 46
1, 204307, Note_off_c, 0, 95, 56
1, 204356, Poly_aftertouch_c, 0, 89, 0
1, 204382, Control_c, 0, 64, 69
1, 204395, Note_on_c, 0, 71, 105
1, 204397, Control_c, 0, 64, 0
1, 204399, Note_on_c, 0, 60, 96
1, 204400, Note_on_c, 0, 65, 93
1, 204402, Note_on_c, 0, 67, 95
1, 204427, Control_c, 0, 64, 38
1, 204431, Note_on_c, 0, 85, 111
1, 204435, Note_on_c, 0, 97, 107
1, 204442, Control_c, 0, 64, 74
1, 204444, Note_off_c, 0, 71, 73
1, 204453, Note_on_c, 0, 87, 68
1, 204453, Note_on_c, 0, 98, 70
1, 204457, Control_c, 0, 64, 127
1, 204471, Note_off_c, 0, 98, 63
1, 204472, Note_off_c, 0, 87, 64
1, 204484, Note_off_c, 0, 67, 62
1, 204486, Note_off_c, 0, 60, 60
1, 204487, Note_off_c, 0, 65, 64
1, 204495, Note_off_c, 0, 85, 66
1, 204507, Poly_aftertouch_c, 0, 94, 0
1, 204508, Note_off_c, 0, 97, 63
1, 204556, Note_on_c, 0, 95, 70
1, 204571, Note_on_c, 0, 93, 60
1, 204594, Note_off_c, 0, 95, 64
1, 204596, Note_off_c, 0, 93, 63
1, 204651, Note_on_c, 0, 98, 94
1, 204655, Note_on_c, 0, 86, 84
1, 204657, Note_on_c, 0, 84, 84
1, 204677, Note_off_c, 0, 84, 69
1, 204698, Note_off_c, 0, 98, 65
1, 204708, Note_off_c, 0, 86, 60
1, 204760, Note_on_c, 0, 89, 81
1, 204767, Note_on_c, 0, 93, 82
1, 204793, Note_off_c, 0, 89, 64
1, 204809, Note_off_c, 0, 93, 59
1, 204869, Note_on_c, 0, 87, 101
1, 204871, Note_on_c, 0, 99, 98
1, 204916, Note_off_c, 0, 99, 66
1, 204918, Note_off_c, 0, 87, 64
1, 204973, Note_on_c, 0, 93, 87
1, 204987, Note_on_c, 0, 89, 76
1, 205019, Note_off_c, 0, 93, 63
1, 205029, Note_off_c, 0, 89, 64
1, 205068, Note_on_c, 0, 95, 95
1, 205107, Note_off_c, 0, 95, 68
1, 205191, Note_on_c, 0, 88, 101
1, 205191, Note_on_c, 0, 100, 105
1, 205198, Note_on_c, 0, 79, 104
1, 205199, Note_on_c, 0, 77, 99
1, 205200, Note_on_c, 0, 73, 96
1, 205248, Note_off_c, 0, 100, 57
1, 205268, Note_off_c, 0, 77, 58
1, 205272, Note_off_c, 0, 79, 61
1, 205277, Note_off_c, 0, 73, 60
1, 205284, Note_off_c, 0, 88, 59
1, 205311, Note_on_c, 0, 99, 77
1, 205362, Note_off_c, 0, 99, 62
1, 205463, Note_on_c, 0, 75, 109
1, 205463, Note_on_c, 0, 76, 106
1, 205466, Note_on_c, 0, 89, 101
1, 205466, Note_on_c, 0, 101, 106
1, 205467, Note_on_c, 0, 69, 91
1, 205470, Note_on_c, 0, 93, 98
1, 205507, Note_off_c, 0, 93, 56
1, 205554, Note_off_c, 0, 101, 64
1, 205576, Note_off_c, 0, 89, 64
1, 205583, Note_on_c, 0, 95, 72
1, 205620, Note_off_c, 0, 69, 61
1, 205636, Note_off_c, 0, 75, 61
1, 205641, Note_off_c, 0, 95, 63
1, 205652, Note_off_c, 0, 76, 61
1, 205688, Note_on_c, 0, 90, 96
1, 205688, Note_on_c, 0, 94, 96
1, 205733, Note_off_c, 0, 94, 66
1, 205742, Note_off_c, 0, 90, 63
1, 205786, Note_on_c, 0, 99, 84
1, 205837, Note_off_c, 0, 99, 63
1, 205897, Note_on_c, 0, 95, 91
1, 205899, Note_on_c, 0, 79, 107
1, 205900, Note_on_c, 0, 77, 103
1, 205901, Note_on_c, 0, 73, 100
1, 205904, Note_on_c, 0, 91, 82
1, 205905, Note_on_c, 0, 89, 80
1, 205958, Note_off_c, 0, 77, 58
1, 205960, Note_off_c, 0, 91, 51
1, 205962, Note_off_c, 0, 95, 62
1, 205965, Note_off_c, 0, 79, 62
1, 205968, Note_off_c, 0, 89, 58
1, 205968, Note_off_c, 0, 73, 61
1, 206004, Note_on_c, 0, 93, 80
1, 206055, Note_off_c, 0, 93, 60
1, 206126, Note_on_c, 0, 99, 74
1, 206135, Note_on_c, 0, 75, 109
1, 206135, Note_on_c, 0, 76, 106
1, 206138, Note_on_c, 0, 69, 97
1, 206197, Note_off_c, 0, 99, 62
1, 206247, Note_on_c, 0, 96, 76
1, 206254, Note_on_c, 0, 92, 79
1, 206262, Note_on_c, 0, 90, 64
1, 206265, Note_off_c, 0, 69, 60
1, 206284, Note_off_c, 0, 76, 59
1, 206290, Note_off_c, 0, 75, 62
1, 206293, Note_off_c, 0, 90, 65
1, 206299, Note_off_c, 0, 92, 65
1, 206299, Note_off_c, 0, 96, 64
1, 206356, Note_on_c, 0, 99, 94
1, 206412, Note_off_c, 0, 99, 63
1, 206451, Note_on_c, 0, 97, 90
1, 206454, Note_on_c, 0, 93, 87
1, 206462, Note_on_c, 0, 91, 74
1, 206503, Note_off_c, 0, 91, 52
1, 206511, Note_off_c, 0, 93, 61
1, 206523, Note_off_c, 0, 97, 66
1, 206570, Note_on_c, 0, 99, 84
1, 206571, Note_on_c, 0, 79, 109
1, 206572, Note_on_c, 0, 77, 101
1, 206573, Note_on_c, 0, 73, 94
1, 206629, Note_off_c, 0, 99, 64
1, 206630, Note_on_c, 0, 72, 28
1, 206636, Note_off_c, 0, 73, 65
1, 206639, Note_off_c, 0, 79, 65
1, 206642, Note_off_c, 0, 77, 64
1, 206667, Note_off_c, 0, 72, 50
1, 206671, Note_on_c, 0, 96, 88
1, 206673, Note_on_c, 0, 92, 93
1, 206692, Note_on_c, 0, 87, 81
1, 206746, Note_off_c, 0, 96, 63
1, 206749, Note_off_c, 0, 92, 66
1, 206761, Note_off_c, 0, 87, 58
1, 206785, Note_on_c, 0, 95, 90
1, 206786, Note_on_c, 0, 75, 102
1, 206788, Note_on_c, 0, 76, 103
1, 206794, Note_on_c, 0, 69, 89
1, 206839, Note_off_c, 0, 95, 66
1, 206894, Note_on_c, 0, 99, 98
1, 206910, Note_off_c, 0, 69, 66
1, 206913, Note_off_c, 0, 76, 55
1, 206928, Note_off_c, 0, 75, 60
1, 206949, Note_off_c, 0, 99, 64
1, 207006, Note_on_c, 0, 94, 96
1, 207009, Note_on_c, 0, 88, 84
1, 207009, Note_on_c, 0, 98, 91
1, 207012, Note_on_c, 0, 97, 55
1, 207017, Note_on_c, 0, 99, 54
1, 207043, Note_off_c, 0, 99, 58
1, 207044, Note_off_c, 0, 97, 56
1, 207058, Note_off_c, 0, 98, 66
1, 207062, Note_off_c, 0, 88, 63
1, 207069, Note_off_c, 0, 94, 63
1, 207100, Note_on_c, 0, 95, 95
1, 207146, Note_off_c, 0, 95, 66
1, 207210, Note_on_c, 0, 79, 101
1, 207211, Note_on_c, 0, 73, 95
1, 207211, Note_on_c, 0, 99, 103
1, 207211, Note_on_c, 0, 77, 101
1, 207212, Note_on_c, 0, 89, 97
1, 207215, Note_on_c, 0, 94, 96
1, 207268, Note_off_c, 0, 89, 63
1, 207274, Note_off_c, 0, 77, 56
1, 207276, Note_off_c, 0, 99, 60
1, 207279, Note_off_c, 0, 79, 62
1, 207283, Note_off_c, 0, 73, 63
1, 207310, Note_on_c, 0, 95, 89
1, 207348, Note_off_c, 0, 94, 35
1, 207357, Note_off_c, 0, 95, 68
1, 207421, Note_on_c, 0, 90, 104
1, 207425, Note_on_c, 0, 99, 93
1, 207436, Note_on_c, 0, 75, 107
1, 207437, Note_on_c, 0, 76, 104
1, 207440, Note_on_c, 0, 69, 96
1, 207441, Note_on_c, 0, 93, 76
1, 207443, Note_on_c, 0, 100, 78
1, 207460, Note_off_c, 0, 90, 66
1, 207465, Note_off_c, 0, 99, 63
1, 207489, Note_off_c, 0, 93, 60
1, 207489, Note_off_c, 0, 100, 61
1, 207538, Note_on_c, 0, 95, 96
1, 207542, Note_off_c, 0, 69, 61
1, 207548, Note_off_c, 0, 76, 59
1, 207551, Note_off_c, 0, 75, 61
1, 207555, Note_on_c, 0, 91, 70
1, 207583, Note_off_c, 0, 91, 64
1, 207584, Note_off_c, 0, 95, 68
1, 207645, Note_on_c, 0, 100, 96
1, 207689, Note_off_c, 0, 100, 64
1, 207770, Note_on_c, 0, 100, 105
1, 207771, Note_on_c, 0, 97, 102
1, 207772, Note_on_c, 0, 88, 106
1, 207790, Note_on_c, 0, 98, 61
1, 207823, Note_off_c, 0, 98, 50
1, 207865, Note_on_c, 0, 95, 95
1, 207872, Note_off_c, 0, 88, 62
1, 207873, Note_off_c, 0, 100, 62
1, 207885, Note_on_c, 0, 77, 98
1, 207887, Note_on_c, 0, 79, 97
1, 207888, Note_on_c, 0, 73, 90
1, 207894, Note_off_c, 0, 97, 65
1, 207906, Note_off_c, 0, 95, 69
1, 207924, Note_off_c, 0, 77, 66
1, 207924, Note_off_c, 0, 79, 64
1, 207943, Note_off_c, 0, 73, 64
1, 207981, Note_on_c, 0, 89, 112
1, 207981, Note_on_c, 0, 98, 97
1, 207982, Note_on_c, 0, 101, 102
1, 207995, Note_on_c, 0, 97, 77
1, 208017, Note_off_c, 0, 97, 68
1, 208086, Note_on_c, 0, 75, 92
1, 208086, Note_on_c, 0, 76, 94
1, 208086, Note_off_c, 0, 89, 63
1, 208088, Note_on_c, 0, 95, 88
1, 208092, Note_on_c, 0, 69, 81
1, 208094, Note_off_c, 0, 101, 61
1, 208121, Note_off_c, 0, 75, 67
1, 208121, Note_off_c, 0, 76, 69
1, 208126, Note_off_c, 0, 98, 61
1, 208136, Note_off_c, 0, 69, 68
1, 208144, Note_off_c, 0, 95, 65
1, 208210, Note_on_c, 0, 90, 109
1, 208213, Note_on_c, 0, 102, 104
1, 208219, Note_on_c, 0, 98, 89
1, 208252, Note_on_c, 0, 97, 32
1, 208253, Note_off_c, 0, 97, 127
1, 208272, Note_off_c, 0, 90, 63
1, 208287, Note_off_c, 0, 102, 67
1, 208288, Note_off_c, 0, 98, 0
1, 208309, Note_on_c, 0, 95, 85
1, 208314, Note_on_c, 0, 98, 37
1, 208348, Note_off_c, 0, 95, 67
1, 208352, Note_off_c, 0, 98, 65
1, 208417, Note_on_c, 0, 91, 113
1, 208417, Note_on_c, 0, 103, 104
1, 208442, Note_on_c, 0, 100, 64
1, 208462, Note_off_c, 0, 100, 62
1, 208505, Control_c, 0, 66, 0
1, 208528, Note_on_c, 0, 95, 78
1, 208532, Note_off_c, 0, 103, 60
1, 208534, Note_on_c, 0, 57, 102
1, 208535, Control_c, 0, 64, 67
1, 208540, Note_on_c, 0, 47, 92
1, 208540, Note_on_c, 0, 48, 94
1, 208541, Note_off_c, 0, 91, 57
1, 208542, Note_on_c, 0, 41, 88
1, 208550, Control_c, 0, 64, 0
1, 208577, Note_on_c, 0, 45, 49
1, 208578, Note_off_c, 0, 95, 66
1, 208594, Control_c, 0, 66, 127
1, 208605, Note_off_c, 0, 45, 56
1, 208609, Control_c, 0, 64, 47
1, 208624, Control_c, 0, 64, 80
1, 208639, Control_c, 0, 64, 127
1, 208650, Note_on_c, 0, 92, 107
1, 208651, Note_on_c, 0, 104, 100
1, 208655, Note_off_c, 0, 57, 60
1, 208676, Note_on_c, 0, 102, 55
1, 208706, Note_off_c, 0, 41, 61
1, 208708, Note_off_c, 0, 104, 66
1, 208714, Note_off_c, 0, 102, 45
1, 208715, Note_off_c, 0, 92, 58
1, 208718, Note_off_c, 0, 48, 56
1, 208739, Note_off_c, 0, 47, 60
1, 208752, Note_on_c, 0, 95, 79
1, 208809, Note_off_c, 0, 95, 65
1, 208854, Note_on_c, 0, 99, 86
1, 208893, Note_off_c, 0, 99, 66
1, 208972, Note_on_c, 0, 105, 111
1, 208973, Note_on_c, 0, 93, 113
1, 208973, Note_on_c, 0, 97, 111
1, 209089, Note_on_c, 0, 101, 79
1, 209094, Note_off_c, 0, 97, 66
1, 209099, Note_off_c, 0, 105, 60
1, 209101, Note_on_c, 0, 39, 101
1, 209107, Note_off_c, 0, 93, 63
1, 209107, Note_on_c, 0, 29, 89
1, 209122, Note_on_c, 0, 30, 72
1, 209127, Note_on_c, 0, 28, 50
1, 209128, Note_off_c, 0, 28, 127
1, 209135, Note_on_c, 0, 32, 46
1, 209160, Poly_aftertouch_c, 0, 28, 0
1, 209161, Note_off_c, 0, 30, 67
1, 209161, Note_off_c, 0, 101, 65
1, 209163, Note_off_c, 0, 39, 64
1, 209164, Note_off_c, 0, 29, 63
1, 209173, Note_off_c, 0, 32, 50
1, 209216, Note_on_c, 0, 94, 104
1, 209216, Note_on_c, 0, 106, 97
1, 209217, Note_on_c, 0, 98, 96
1, 209331, Note_on_c, 0, 101, 73
1, 209332, Note_on_c, 0, 33, 120
1, 209335, Note_off_c, 0, 98, 66
1, 209337, Note_on_c, 0, 21, 105
1, 209338, Note_on_c, 0, 100, 66
1, 209339, Note_off_c, 0, 94, 58
1, 209341, Note_off_c, 0, 106, 63
1, 209364, Note_on_c, 0, 23, 62
1, 209374, Note_on_c, 0, 27, 49
1, 209394, Note_off_c, 0, 100, 60
1, 209394, Note_off_c, 0, 101, 66
1, 209408, Note_off_c, 0, 23, 43
1, 209419, Note_off_c, 0, 27, 46
1, 209438, Note_on_c, 0, 95, 100
1, 209438, Note_on_c, 0, 107, 104
1, 209442, Note_on_c, 0, 99, 96
1, 209448, Note_off_c, 0, 21, 63
1, 209477, Note_on_c, 0, 105, 38
1, 209478, Note_off_c, 0, 105, 127
1, 209483, Note_off_c, 0, 33, 66
1, 209529, Note_off_c, 0, 107, 54
1, 209539, Note_on_c, 0, 101, 83
1, 209539, Note_off_c, 0, 95, 65
1, 209548, Note_off_c, 0, 99, 66
1, 209589, Note_off_c, 0, 101, 68
1, 209649, Note_on_c, 0, 39, 101
1, 209652, Note_on_c, 0, 96, 116
1, 209653, Note_on_c, 0, 100, 111
1, 209653, Note_on_c, 0, 103, 114
1, 209656, Note_on_c, 0, 29, 91
1, 209697, Note_on_c, 0, 101, 19
1, 209709, Note_off_c, 0, 39, 62
1, 209712, Note_off_c, 0, 29, 63
1, 209737, Note_off_c, 0, 101, 30
1, 209751, Note_off_c, 0, 96, 65
1, 209757, Note_off_c, 0, 100, 61
1, 209766, Note_on_c, 0, 105, 97
1, 209793, Note_off_c, 0, 103, 63
1, 209834, Note_off_c, 0, 105, 62
1, 209865, Note_on_c, 0, 33, 109
1, 209869, Note_on_c, 0, 101, 105
1, 209870, Note_on_c, 0, 21, 102
1, 209892, Note_on_c, 0, 23, 49
1, 209920, Note_off_c, 0, 23, 55
1, 209938, Note_off_c, 0, 101, 65
1, 209954, Note_off_c, 0, 21, 64
1, 209992, Note_on_c, 0, 104, 102
1, 209993, Note_on_c, 0, 97, 89
1, 209993, Note_on_c, 0, 99, 91
1, 210001, Note_on_c, 0, 102, 71
1, 210018, Note_off_c, 0, 33, 68
1, 210028, Note_off_c, 0, 102, 68
1, 210058, Note_off_c, 0, 97, 65
1, 210070, Note_off_c, 0, 99, 64
1, 210097, Note_on_c, 0, 101, 97
1, 210134, Note_off_c, 0, 104, 64
1, 210155, Note_off_c, 0, 101, 68
1, 210198, Note_on_c, 0, 39, 105
1, 210203, Note_on_c, 0, 103, 112
1, 210204, Note_on_c, 0, 98, 105
1, 210204, Note_on_c, 0, 105, 108
1, 210205, Note_on_c, 0, 29, 96
1, 210240, Note_on_c, 0, 100, 39
1, 210241, Note_off_c, 0, 100, 127
1, 210263, Note_off_c, 0, 39, 64
1, 210264, Note_off_c, 0, 29, 62
1, 210299, Note_off_c, 0, 98, 69
1, 210299, Note_on_c, 0, 101, 85
1, 210322, Note_off_c, 0, 103, 61
1, 210331, Note_off_c, 0, 105, 65
1, 210365, Note_off_c, 0, 101, 67
1, 210409, Note_on_c, 0, 33, 107
1, 210413, Note_on_c, 0, 21, 108
1, 210416, Note_on_c, 0, 31, 77
1, 210422, Note_on_c, 0, 106, 103
1, 210429, Note_on_c, 0, 100, 106
1, 210429, Note_on_c, 0, 102, 92
1, 210430, Note_on_c, 0, 23, 77
1, 210437, Note_on_c, 0, 107, 86
1, 210476, Note_off_c, 0, 102, 56
1, 210479, Note_off_c, 0, 31, 0
1, 210479, Note_on_c, 0, 31, 46
1, 210479, Note_off_c, 0, 107, 57
1, 210485, Note_off_c, 0, 23, 59
1, 210487, Note_off_c, 0, 100, 61
1, 210493, Poly_aftertouch_c, 0, 27, 0
1, 210500, Note_on_c, 0, 27, 2
1, 210510, Note_off_c, 0, 106, 65
1, 210514, Note_off_c, 0, 33, 64
1, 210534, Note_off_c, 0, 21, 59
1, 210538, Note_off_c, 0, 27, 49
1, 210541, Note_on_c, 0, 101, 90
1, 210557, Note_off_c, 0, 31, 57
1, 210567, Note_on_c, 0, 100, 44
1, 210594, Note_off_c, 0, 101, 67
1, 210599, Note_off_c, 0, 100, 38
1, 210632, Note_on_c, 0, 105, 106
1, 210676, Note_on_c, 0, 103, 36
1, 210692, Note_off_c, 0, 105, 66
1, 210696, Note_off_c, 0, 103, 39
1, 210747, Note_on_c, 0, 100, 102
1, 210751, Note_on_c, 0, 103, 96
1, 210751, Note_on_c, 0, 107, 106
1, 210753, Note_on_c, 0, 39, 98
1, 210758, Note_on_c, 0, 29, 89
1, 210763, Note_on_c, 0, 105, 71
1, 210774, Note_on_c, 0, 32, 73
1, 210788, Note_off_c, 0, 105, 67
1, 210799, Note_off_c, 0, 32, 59
1, 210811, Note_off_c, 0, 29, 62
1, 210815, Note_off_c, 0, 107, 65
1, 210816, Note_off_c, 0, 39, 64
1, 210817, Note_off_c, 0, 103, 64
1, 210818, Note_off_c, 0, 100, 67
1, 210855, Note_on_c, 0, 107, 83
1, 210863, Note_on_c, 0, 101, 95
1, 210871, Note_on_c, 0, 105, 82
1, 210876, Note_on_c, 0, 104, 59
1, 210893, Note_off_c, 0, 105, 67
1, 210898, Note_off_c, 0, 104, 59
1, 210905, Note_off_c, 0, 101, 67
1, 210910, Note_off_c, 0, 107, 64
1, 210963, Note_on_c, 0, 33, 109
1, 210964, Note_on_c, 0, 102, 111
1, 210964, Note_on_c, 0, 21, 107
1, 210967, Note_on_c, 0, 106, 94
1, 210967, Note_on_c, 0, 108, 100
1, 210968, Note_on_c, 0, 107, 94
1, 210971, Note_on_c, 0, 31, 85
1, 210977, Note_on_c, 0, 23, 73
1, 210982, Note_on_c, 0, 27, 70
1, 210985, Note_on_c, 0, 103, 79
1, 210989, Note_on_c, 0, 22, 54
1, 211012, Note_off_c, 0, 31, 0
1, 211012, Note_on_c, 0, 31, 16
1, 211020, Note_off_c, 0, 108, 63
1, 211021, Note_off_c, 0, 22, 50
1, 211026, Note_off_c, 0, 107, 65
1, 211029, Note_off_c, 0, 103, 63
1, 211030, Note_off_c, 0, 102, 58
1, 211037, Note_off_c, 0, 106, 66
1, 211042, Note_off_c, 0, 23, 54
1, 211064, Note_off_c, 0, 21, 62
1, 211079, Note_off_c, 0, 31, 38
1, 211083, Note_on_c, 0, 103, 108
1, 211086, Note_on_c, 0, 107, 93
1, 211091, Note_on_c, 0, 106, 71
1, 211092, Note_off_c, 0, 27, 32
1, 211103, Note_on_c, 0, 108, 62
1, 211106, Note_off_c, 0, 33, 68
1, 211122, Note_off_c, 0, 103, 64
1, 211126, Note_off_c, 0, 108, 41
1, 211134, Note_off_c, 0, 106, 64
1, 211135, Note_off_c, 0, 107, 65
1, 211180, Note_on_c, 0, 104, 105
1, 211180, Note_on_c, 0, 106, 96
1, 211183, Note_on_c, 0, 107, 77
1, 211201, Note_on_c, 0, 105, 69
1, 211201, Note_on_c, 0, 108, 68
1, 211217, Note_off_c, 0, 107, 61
1, 211221, Note_off_c, 0, 105, 41
1, 211221, Note_off_c, 0, 108, 64
1, 211233, Note_off_c, 0, 104, 62
1, 211247, Note_off_c, 0, 106, 64
1, 211283, Note_on_c, 0, 39, 100
1, 211284, Note_on_c, 0, 108, 118
1, 211286, Note_on_c, 0, 105, 112
1, 211287, Note_on_c, 0, 29, 93
1, 211302, Note_on_c, 0, 30, 75
1, 211306, Note_on_c, 0, 32, 68
1, 211334, Note_off_c, 0, 32, 57
1, 211343, Note_off_c, 0, 30, 56
1, 211346, Note_off_c, 0, 29, 63
1, 211346, Note_off_c, 0, 39, 64
1, 211349, Note_off_c, 0, 105, 63
1, 211358, Note_off_c, 0, 108, 62
1, 211368, Poly_aftertouch_c, 0, 35, 127
1, 211393, Note_on_c, 0, 107, 93
1, 211397, Note_on_c, 0, 108, 87
1, 211400, Note_on_c, 0, 103, 90
1, 211407, Poly_aftertouch_c, 0, 35, 0
1, 211419, Note_on_c, 0, 106, 68
1, 211438, Note_off_c, 0, 106, 66
1, 211444, Note_off_c, 0, 103, 64
1, 211446, Note_off_c, 0, 108, 62
1, 211451, Note_off_c, 0, 107, 65
1, 211505, Note_on_c, 0, 101, 105
1, 211507, Note_on_c, 0, 33, 116
1, 211508, Note_on_c, 0, 21, 105
1, 211508, Note_on_c, 0, 108, 106
1, 211510, Note_on_c, 0, 107, 96
1, 211525, Note_on_c, 0, 23, 70
1, 211539, Note_on_c, 0, 24, 60
1, 211556, Note_on_c, 0, 28, 52
1, 211566, Note_off_c, 0, 108, 64
1, 211566, Note_off_c, 0, 101, 68
1, 211577, Note_off_c, 0, 107, 65
1, 211597, Note_off_c, 0, 21, 63
1, 211599, Note_off_c, 0, 24, 40
1, 211607, Note_off_c, 0, 23, 56
1, 211619, Note_on_c, 0, 102, 104
1, 211619, Note_on_c, 0, 106, 82
1, 211619, Note_on_c, 0, 107, 98
1, 211641, Note_off_c, 0, 28, 36
1, 211641, Note_off_c, 0, 33, 70
1, 211644, Note_on_c, 0, 108, 58
1, 211668, Note_off_c, 0, 106, 64
1, 211670, Note_off_c, 0, 108, 38
1, 211675, Note_off_c, 0, 107, 66
1, 211677, Note_off_c, 0, 102, 63
1, 211718, Note_on_c, 0, 103, 100
1, 211718, Note_on_c, 0, 108, 113
1, 211728, Note_on_c, 0, 105, 90
1, 211734, Note_on_c, 0, 107, 70
1, 211744, Note_off_c, 0, 105, 43
1, 211765, Note_off_c, 0, 107, 49
1, 211775, Note_off_c, 0, 103, 65
1, 211775, Note_off_c, 0, 108, 63
1, 211816, Note_on_c, 0, 39, 107
1, 211819, Note_on_c, 0, 29, 98
1, 211826, Note_on_c, 0, 107, 108
1, 211827, Note_on_c, 0, 106, 99
1, 211829, Note_on_c, 0, 108, 101
1, 211854, Note_on_c, 0, 32, 39
1, 211855, Note_off_c, 0, 32, 127
1, 211858, Note_on_c, 0, 105, 51
1, 211859, Note_off_c, 0, 105, 127
1, 211866, Note_on_c, 0, 31, 36
1, 211868, Note_on_c, 0, 35, 20
1, 211873, Note_off_c, 0, 108, 60
1, 211882, Note_off_c, 0, 107, 65
1, 211886, Note_off_c, 0, 39, 64
1, 211887, Note_off_c, 0, 29, 61
1, 211888, Note_off_c, 0, 31, 61
1, 211901, Note_off_c, 0, 35, 0
1, 211907, Note_off_c, 0, 106, 64
1, 211915, Poly_aftertouch_c, 0, 35, 0
1, 211930, Note_on_c, 0, 108, 113
1, 211931, Note_on_c, 0, 104, 105
1, 211943, Note_on_c, 0, 103, 93
1, 211965, Note_off_c, 0, 103, 52
1, 211994, Note_off_c, 0, 104, 61
1, 211997, Note_off_c, 0, 108, 64
1, 212037, Note_on_c, 0, 33, 107
1, 212039, Note_on_c, 0, 35, 99
1, 212040, Note_on_c, 0, 21, 100
1, 212044, Note_on_c, 0, 108, 109
1, 212046, Note_on_c, 0, 105, 105
1, 212049, Note_on_c, 0, 107, 99
1, 212049, Note_on_c, 0, 24, 89
1, 212052, Note_on_c, 0, 23, 60
1, 212060, Note_off_c, 0, 35, 71
1, 212064, Note_on_c, 0, 25, 45
1, 212103, Note_off_c, 0, 105, 66
1, 212106, Note_on_c, 0, 28, 22
1, 212106, Note_off_c, 0, 108, 61
1, 212109, Note_off_c, 0, 25, 45
1, 212112, Note_off_c, 0, 107, 66
1, 212123, Note_off_c, 0, 24, 59
1, 212123, Note_off_c, 0, 23, 0
1, 212123, Note_on_c, 0, 23, 16
1, 212129, Note_off_c, 0, 21, 63
1, 212148, Note_on_c, 0, 106, 110
1, 212148, Note_on_c, 0, 108, 107
1, 212154, Note_on_c, 0, 107, 86
1, 212156, Note_off_c, 0, 23, 41
1, 212162, Note_off_c, 0, 28, 50
1, 212168, Poly_aftertouch_c, 0, 35, 127
1, 212172, Note_off_c, 0, 33, 68
1, 212179, Note_off_c, 0, 107, 62
1, 212201, Note_off_c, 0, 108, 62
1, 212204, Poly_aftertouch_c, 0, 35, 0
1, 212215, Note_off_c, 0, 106, 67
1, 212259, Note_on_c, 0, 105, 96
1, 212264, Note_on_c, 0, 108, 112
1, 212278, Note_on_c, 0, 106, 58
1, 212300, Note_off_c, 0, 106, 62
1, 212302, Note_on_c, 0, 34, 43
1, 212309, Note_off_c, 0, 108, 62
1, 212323, Note_off_c, 0, 105, 66
1, 212331, Note_off_c, 0, 34, 56
1, 212364, Note_on_c, 0, 39, 125
1, 212365, Note_on_c, 0, 106, 113
1, 212366, Note_on_c, 0, 108, 119
1, 212371, Note_on_c, 0, 29, 98
1, 212373, Note_on_c, 0, 107, 100
1, 212380, Note_on_c, 0, 32, 76
1, 212393, Note_on_c, 0, 35, 51
1, 212398, Note_on_c, 0, 31, 56
1, 212417, Note_off_c, 0, 32, 62
1, 212422, Note_off_c, 0, 31, 59
1, 212423, Note_off_c, 0, 39, 66
1, 212434, Note_off_c, 0, 29, 62
1, 212437, Note_off_c, 0, 35, 44
1, 212442, Note_off_c, 0, 107, 62
1, 212443, Note_off_c, 0, 108, 62
1, 212471, Note_on_c, 0, 107, 92
1, 212475, Note_off_c, 0, 106, 58
1, 212497, Note_on_c, 0, 108, 39
1, 212531, Note_off_c, 0, 108, 51
1, 212550, Note_off_c, 0, 107, 66
1, 212607, Note_on_c, 0, 33, 117
1, 212609, Note_on_c, 0, 108, 125
1, 212610, Note_on_c, 0, 22, 102
1, 212611, Note_on_c, 0, 21, 109
1, 212639, Note_on_c, 0, 25, 61
1, 212705, Note_off_c, 0, 25, 34
1, 212899, Note_off_c, 0, 22, 31
1, 217271, Note_off_c, 0, 108, 31
1, 217433, Note_off_c, 0, 21, 24
1, 217442, Note_off_c, 0, 33, 30
1, 221945, Control_c, 0, 64, 125
1, 221997, Control_c, 0, 64, 121
1, 222041, Control_c, 0, 64, 119
1, 222056, Control_c, 0, 64, 118
1, 222085, Control_c, 0, 64, 116
1, 222100, Control_c, 0, 64, 115
1, 222115, Control_c, 0, 64, 114
1, 222130, Control_c, 0, 64, 111
1, 222144, Control_c, 0, 64, 110
1, 222159, Control_c, 0, 64, 109
1, 222174, Control_c, 0, 64, 108
1, 222189, Control_c, 0, 64, 107
1, 222204, Control_c, 0, 64, 106
1, 222218, Control_c, 0, 64, 106
1, 222233, Control_c, 0, 64, 105
1, 222248, Control_c, 0, 64, 105
1, 222262, Control_c, 0, 64, 104
1, 222277, Control_c, 0, 64, 103
1, 222292, Control_c, 0, 64, 102
1, 222307, Control_c, 0, 64, 101
1, 222322, Control_c, 0, 64, 99
1, 222336, Control_c, 0, 64, 98
1, 222351, Control_c, 0, 64, 97
1, 222366, Control_c, 0, 64, 97
1, 222382, Control_c, 0, 64, 96
1, 222397, Control_c, 0, 64, 96
1, 222427, Control_c, 0, 64, 95
1, 222441, Control_c, 0, 64, 95
1, 222456, Control_c, 0, 64, 93
1, 222471, Control_c, 0, 64, 92
1, 222485, Control_c, 0, 64, 91
1, 222560, Control_c, 0, 64, 91
1, 222575, Control_c, 0, 64, 90
1, 222634, Control_c, 0, 64, 90
1, 222649, Control_c, 0, 64, 89
1, 222664, Control_c, 0, 64, 88
1, 222693, Control_c, 0, 64, 88
1, 222715, Control_c, 0, 64, 87
1, 222730, Control_c, 0, 64, 87
1, 222745, Control_c, 0, 64, 86
1, 222760, Control_c, 0, 64, 86
1, 222775, Control_c, 0, 64, 85
1, 222789, Control_c, 0, 64, 85
1, 222804, Control_c, 0, 64, 84
1, 222849, Control_c, 0, 64, 83
1, 222864, Control_c, 0, 64, 83
1, 222879, Control_c, 0, 64, 82
1, 222938, Control_c, 0, 64, 82
1, 222953, Control_c, 0, 64, 81
1, 222967, Control_c, 0, 64, 81
1, 223041, Control_c, 0, 64, 80
1, 223100, Control_c, 0, 64, 80
1, 223159, Control_c, 0, 64, 79
1, 223190, Control_c, 0, 64, 79
1, 223279, Control_c, 0, 64, 78
1, 223308, Control_c, 0, 64, 78
1, 223368, Control_c, 0, 64, 77
1, 223464, Control_c, 0, 64, 77
1, 223523, Control_c, 0, 64, 76
1, 223553, Control_c, 0, 64, 76
1, 223568, Control_c, 0, 64, 75
1, 223627, Control_c, 0, 64, 75
1, 223657, Control_c, 0, 64, 74
1, 223716, Control_c, 0, 64, 74
1, 223776, Control_c, 0, 64, 73
1, 223790, Control_c, 0, 64, 73
1, 223805, Control_c, 0, 64, 72
1, 223938, Control_c, 0, 64, 72
1, 224013, Control_c, 0, 64, 71
1, 224257, Control_c, 0, 64, 71
1, 224465, Control_c, 0, 64, 70
1, 224599, Control_c, 0, 64, 70
1, 224672, Control_c, 0, 64, 69
1, 225229, Control_c, 0, 64, 69
1, 225771, Control_c, 0, 64, 68
1, 225845, Control_c, 0, 64, 68
1, 225949, Control_c, 0, 64, 67
1, 226008, Control_c, 0, 64, 67
1, 226244, Control_c, 0, 64, 66
1, 226756, Control_c, 0, 64, 66
1, 227022, Control_c, 0, 64, 65
1, 227052, Control_c, 0, 64, 65
1, 227082, Control_c, 0, 64, 64
1, 227112, Control_c, 0, 64, 64
1, 228002, Control_c, 0, 64, 63
1, 228076, Control_c, 0, 64, 63
1, 228150, Control_c, 0, 64, 62
1, 228209, Control_c, 0, 64, 62
1, 228268, Control_c, 0, 64, 61
1, 228387, Control_c, 0, 64, 61
1, 228476, Control_c, 0, 64, 60
1, 228565, Control_c, 0, 64, 60
1, 228579, Control_c, 0, 64, 59
1, 228609, Control_c, 0, 64, 59
1, 228781, Control_c, 0, 64, 58
1, 228855, Control_c, 0, 64, 58
1, 229003, Control_c, 0, 64, 57
1, 229092, Control_c, 0, 64, 57
1, 229166, Control_c, 0, 64, 56
1, 229300, Control_c, 0, 64, 56
1, 229344, Control_c, 0, 64, 55
1, 229359, Control_c, 0, 64, 55
1, 229373, Control_c, 0, 64, 54
1, 229418, Control_c, 0, 64, 54
1, 229433, Control_c, 0, 64, 53
1, 229455, Control_c, 0, 64, 52
1, 229470, Control_c, 0, 64, 50
1, 229485, Control_c, 0, 64, 48
1, 229499, Control_c, 0, 64, 46
1, 229514, Control_c, 0, 64, 45
1, 229559, Control_c, 0, 64, 44
1, 229574, Control_c, 0, 64, 42
1, 229589, Control_c, 0, 64, 41
1, 229604, Control_c, 0, 64, 40
1, 229619, Control_c, 0, 64, 39
1, 229648, Control_c, 0, 64, 39
1, 229693, Control_c, 0, 64, 38
1, 229708, Control_c, 0, 64, 35
1, 229723, Control_c, 0, 64, 32
1, 229738, Control_c, 0, 64, 29
1, 229752, Control_c, 0, 64, 27
1, 229767, Control_c, 0, 64, 26
1, 229782, Control_c, 0, 64, 25
1, 229796, Control_c, 0, 64, 23
1, 229811, Control_c, 0, 64, 19
1, 229826, Control_c, 0, 64, 15
1, 229841, Control_c, 0, 64, 14
1, 229856, Control_c, 0, 64, 8
1, 229871, Control_c, 0, 64, 0
1, 230456, Control_c, 0, 66, 0
1, 230531, End_track
0, 0, End_of_file
