0, 0, Header, 0, 1, 384
1, 0, Start_track
1, 0, Title_t, "Petrouchka--Alessandro Taverna  "
1, 0, Text_t, "2009 Piano-e-Competition audition round"
1, 0, Text_t, "captured January 2009"
1, 0, Text_t, "http://www.piano-e-competition.com/"
1, 0, Text_t, "File processed for distribution by software from Zenph Studios, Inc., http://www.zenph.com"
1, 0, Instrument_name_t, "Yamaha Disklavier Pro Mark IV concert grand piano, model DCFIIISM4PRO"
1, 0, Sequencer_specific, 39, 67, 113, 0, 1, 0, 1, 0, 80, 101, 116, 114, 111, 117, 99, 104, 107, 97, 32, 32, 32, 32, 32, 32, 65, 46, 32, 84, 97, 118, 101, 114, 110, 97, 32, 32, 32, 32, 32, 32
1, 0, Sequencer_specific, 6, 67, 113, 0, 0, 0, 69
1, 0, System_exclusive, 21, 67, 113, 126, 21, 0, 2, 2, 0, 3, 14, 1, 4, 1, 13, 13, 10, 11, 9, 2, 7, 247
1, 0, Sequencer_specific, 5, 67, 123, 12, 2, 1
1, 0, Tempo, 512820
1, 0, Time_signature, 4, 2, 24, 8
1, 0, System_exclusive, 5, 126, 127, 9, 1, 247
1, 1, System_exclusive, 8, 67, 16, 76, 0, 0, 126, 0, 247
1, 2, System_exclusive, 8, 67, 16, 76, 8, 9, 7, 1, 247
1, 3, Control_c, 0, 0, 0
1, 3, Control_c, 1, 0, 0
1, 3, Control_c, 2, 0, 0
1, 3, Control_c, 3, 0, 0
1, 3, Control_c, 4, 0, 0
1, 3, Control_c, 5, 0, 0
1, 3, Control_c, 6, 0, 0
1, 3, Control_c, 7, 0, 0
1, 3, Control_c, 8, 0, 0
1, 3, Control_c, 9, 0, 127
1, 3, Control_c, 10, 0, 0
1, 3, Control_c, 11, 0, 0
1, 3, Control_c, 12, 0, 0
1, 3, Control_c, 13, 0, 0
1, 3, Control_c, 14, 0, 0
1, 3, Control_c, 15, 0, 0
1, 4, Control_c, 0, 32, 0
1, 4, Control_c, 1, 32, 0
1, 4, Control_c, 2, 32, 0
1, 4, Control_c, 3, 32, 0
1, 4, Control_c, 4, 32, 0
1, 4, Control_c, 5, 32, 0
1, 4, Control_c, 6, 32, 0
1, 4, Control_c, 7, 32, 0
1, 4, Control_c, 8, 32, 0
1, 4, Control_c, 9, 32, 0
1, 4, Control_c, 10, 32, 0
1, 4, Control_c, 11, 32, 0
1, 4, Control_c, 12, 32, 0
1, 4, Control_c, 13, 32, 0
1, 4, Control_c, 14, 32, 0
1, 4, Control_c, 15, 32, 0
1, 5, Program_c, 0, 0
1, 5, Program_c, 1, 0
1, 5, Program_c, 2, 0
1, 5, Program_c, 3, 0
1, 5, Program_c, 4, 0
1, 5, Program_c, 5, 0
1, 5, Program_c, 6, 0
1, 5, Program_c, 7, 0
1, 5, Program_c, 8, 0
1, 5, Program_c, 9, 0
1, 5, Program_c, 10, 0
1, 5, Program_c, 11, 0
1, 5, Program_c, 12, 0
1, 5, Program_c, 13, 0
1, 5, Program_c, 14, 0
1, 5, Program_c, 15, 0
1, 6, Control_c, 0, 7, 100
1, 6, Control_c, 1, 7, 100
1, 6, Control_c, 2, 7, 100
1, 6, Control_c, 3, 7, 100
1, 6, Control_c, 4, 7, 100
1, 6, Control_c, 5, 7, 100
1, 6, Control_c, 6, 7, 100
1, 6, Control_c, 7, 7, 100
1, 6, Control_c, 8, 7, 100
1, 6, Control_c, 9, 7, 100
1, 6, Control_c, 10, 7, 100
1, 6, Control_c, 11, 7, 100
1, 6, Control_c, 12, 7, 100
1, 6, Control_c, 13, 7, 100
1, 6, Control_c, 14, 7, 100
1, 6, Control_c, 15, 7, 100
1, 1168, Poly_aftertouch_c, 0, 58, 127
1, 1310, Poly_aftertouch_c, 0, 58, 0
1, 1812, Control_c, 0, 64, 120
1, 1821, Note_on_c, 0, 83, 100
1, 1827, Note_on_c, 0, 67, 84
1, 1827, Control_c, 0, 64, 127
1, 1829, Note_on_c, 0, 59, 77
1, 1831, Note_on_c, 0, 74, 81
1, 1831, Note_on_c, 0, 77, 87
1, 1832, Note_on_c, 0, 62, 79
1, 1832, Note_on_c, 0, 69, 87
1, 1837, Note_on_c, 0, 55, 69
1, 1852, Note_off_c, 0, 77, 71
1, 1856, Note_off_c, 0, 74, 69
1, 1859, Note_off_c, 0, 69, 64
1, 1862, Note_off_c, 0, 55, 67
1, 1863, Note_off_c, 0, 59, 67
1, 1864, Note_off_c, 0, 62, 67
1, 1865, Note_off_c, 0, 67, 65
1, 1868, Note_off_c, 0, 83, 67
1, 1923, Control_c, 0, 64, 78
1, 1927, Note_on_c, 0, 76, 100
1, 1931, Note_on_c, 0, 72, 94
1, 1933, Note_on_c, 0, 84, 92
1, 1934, Note_on_c, 0, 55, 71
1, 1938, Note_on_c, 0, 67, 74
1, 1938, Control_c, 0, 64, 44
1, 1939, Note_on_c, 0, 62, 75
1, 1942, Note_on_c, 0, 65, 71
1, 1946, Note_on_c, 0, 59, 61
1, 1951, Note_off_c, 0, 72, 67
1, 1952, Note_on_c, 0, 77, 5
1, 1952, Control_c, 0, 64, 0
1, 1956, Note_off_c, 0, 62, 67
1, 1957, Note_off_c, 0, 55, 57
1, 1957, Note_off_c, 0, 67, 61
1, 1960, Note_off_c, 0, 65, 65
1, 1966, Note_off_c, 0, 76, 62
1, 1970, Note_off_c, 0, 84, 62
1, 1971, Note_on_c, 0, 83, 33
1, 1972, Note_off_c, 0, 83, 127
1, 1976, Note_off_c, 0, 59, 54
1, 1990, Note_on_c, 0, 79, 12
1, 2008, Note_off_c, 0, 77, 0
1, 2019, Note_on_c, 0, 67, 85
1, 2019, Note_on_c, 0, 77, 81
1, 2019, Note_on_c, 0, 86, 99
1, 2021, Note_on_c, 0, 55, 75
1, 2021, Note_on_c, 0, 62, 76
1, 2023, Note_on_c, 0, 74, 93
1, 2023, Note_on_c, 0, 65, 81
1, 2023, Note_off_c, 0, 79, 31
1, 2030, Note_on_c, 0, 81, 82
1, 2038, Note_on_c, 0, 59, 75
1, 2068, Note_off_c, 0, 59, 61
1, 2068, Note_off_c, 0, 81, 62
1, 2071, Note_off_c, 0, 74, 64
1, 2074, Note_off_c, 0, 86, 67
1, 2075, Note_off_c, 0, 55, 62
1, 2075, Note_off_c, 0, 77, 65
1, 2076, Note_off_c, 0, 62, 66
1, 2077, Note_off_c, 0, 65, 59
1, 2081, Note_off_c, 0, 67, 63
1, 2220, Control_c, 0, 64, 40
1, 2235, Control_c, 0, 64, 127
1, 2253, Note_on_c, 0, 62, 85
1, 2255, Note_on_c, 0, 67, 93
1, 2256, Note_on_c, 0, 88, 97
1, 2256, Note_on_c, 0, 55, 89
1, 2256, Note_on_c, 0, 76, 101
1, 2259, Note_on_c, 0, 65, 90
1, 2259, Note_on_c, 0, 79, 95
1, 2265, Note_on_c, 0, 59, 75
1, 2274, Note_on_c, 0, 83, 57
1, 2277, Note_off_c, 0, 76, 66
1, 2277, Note_off_c, 0, 79, 71
1, 2282, Note_off_c, 0, 65, 69
1, 2284, Note_off_c, 0, 67, 65
1, 2285, Note_off_c, 0, 88, 56
1, 2286, Note_off_c, 0, 62, 64
1, 2290, Note_off_c, 0, 59, 69
1, 2291, Note_off_c, 0, 83, 68
1, 2293, Note_off_c, 0, 55, 63
1, 2345, Note_on_c, 0, 86, 85
1, 2346, Note_on_c, 0, 67, 94
1, 2349, Note_on_c, 0, 62, 93
1, 2349, Note_on_c, 0, 74, 94
1, 2350, Note_on_c, 0, 59, 69
1, 2351, Note_on_c, 0, 55, 77
1, 2351, Note_on_c, 0, 65, 70
1, 2351, Note_on_c, 0, 77, 86
1, 2364, Note_on_c, 0, 79, 10
1, 2368, Note_off_c, 0, 74, 70
1, 2369, Note_off_c, 0, 77, 73
1, 2373, Note_off_c, 0, 67, 66
1, 2375, Note_off_c, 0, 59, 69
1, 2377, Note_off_c, 0, 65, 66
1, 2379, Note_off_c, 0, 62, 68
1, 2380, Note_off_c, 0, 55, 66
1, 2381, Note_off_c, 0, 79, 56
1, 2385, Note_on_c, 0, 81, 34
1, 2387, Note_off_c, 0, 86, 65
1, 2423, Note_off_c, 0, 81, 43
1, 2435, Note_on_c, 0, 55, 76
1, 2435, Note_on_c, 0, 84, 100
1, 2435, Note_on_c, 0, 59, 64
1, 2437, Note_on_c, 0, 62, 89
1, 2437, Note_on_c, 0, 65, 77
1, 2437, Note_on_c, 0, 67, 75
1, 2438, Note_on_c, 0, 72, 95
1, 2444, Note_on_c, 0, 76, 82
1, 2447, Note_on_c, 0, 77, 55
1, 2455, Note_on_c, 0, 74, 17
1, 2461, Note_off_c, 0, 67, 68
1, 2464, Note_off_c, 0, 65, 66
1, 2465, Note_off_c, 0, 62, 59
1, 2465, Note_off_c, 0, 72, 60
1, 2467, Note_off_c, 0, 76, 70
1, 2468, Note_off_c, 0, 55, 65
1, 2469, Note_off_c, 0, 59, 68
1, 2474, Note_off_c, 0, 77, 67
1, 2475, Note_off_c, 0, 74, 50
1, 2477, Note_off_c, 0, 84, 66
1, 2524, Note_on_c, 0, 83, 100
1, 2526, Note_on_c, 0, 67, 72
1, 2526, Note_on_c, 0, 71, 99
1, 2528, Note_on_c, 0, 65, 77
1, 2533, Note_on_c, 0, 59, 83
1, 2535, Note_on_c, 0, 62, 79
1, 2537, Note_on_c, 0, 55, 66
1, 2539, Note_on_c, 0, 76, 64
1, 2542, Note_on_c, 0, 74, 76
1, 2557, Note_off_c, 0, 74, 71
1, 2557, Note_off_c, 0, 76, 66
1, 2560, Note_off_c, 0, 65, 64
1, 2561, Note_off_c, 0, 55, 68
1, 2561, Note_off_c, 0, 59, 69
1, 2561, Note_off_c, 0, 62, 67
1, 2562, Note_off_c, 0, 67, 64
1, 2563, Control_c, 0, 64, 81
1, 2565, Note_off_c, 0, 71, 64
1, 2568, Note_off_c, 0, 83, 66
1, 2577, Control_c, 0, 64, 0
1, 2592, Control_c, 0, 64, 32
1, 2607, Control_c, 0, 64, 0
1, 2620, Note_on_c, 0, 81, 93
1, 2623, Note_on_c, 0, 72, 96
1, 2627, Note_on_c, 0, 64, 85
1, 2631, Note_on_c, 0, 60, 80
1, 2631, Note_on_c, 0, 67, 89
1, 2631, Note_on_c, 0, 76, 70
1, 2631, Note_on_c, 0, 69, 81
1, 2632, Note_on_c, 0, 55, 50
1, 2652, Note_off_c, 0, 72, 69
1, 2658, Note_off_c, 0, 64, 68
1, 2660, Note_off_c, 0, 67, 69
1, 2661, Note_off_c, 0, 55, 63
1, 2661, Note_off_c, 0, 69, 70
1, 2661, Note_off_c, 0, 76, 67
1, 2663, Note_off_c, 0, 60, 65
1, 2666, Note_off_c, 0, 81, 67
1, 2844, Note_on_c, 0, 81, 99
1, 2849, Note_on_c, 0, 72, 93
1, 2854, Note_on_c, 0, 64, 81
1, 2854, Note_on_c, 0, 76, 87
1, 2855, Note_on_c, 0, 67, 80
1, 2856, Note_on_c, 0, 69, 84
1, 2857, Note_on_c, 0, 55, 72
1, 2859, Note_on_c, 0, 60, 74
1, 2869, Note_off_c, 0, 72, 69
1, 2874, Note_off_c, 0, 76, 71
1, 2879, Note_off_c, 0, 64, 70
1, 2884, Note_off_c, 0, 81, 68
1, 2885, Note_off_c, 0, 69, 66
1, 2886, Note_off_c, 0, 60, 65
1, 2887, Note_off_c, 0, 55, 63
1, 2887, Note_off_c, 0, 67, 64
1, 2951, Note_on_c, 0, 76, 9
1, 2992, Note_off_c, 0, 76, 29
1, 3100, Note_on_c, 0, 74, 118
1, 3101, Note_on_c, 0, 83, 101
1, 3103, Note_on_c, 0, 77, 109
1, 3107, Note_on_c, 0, 67, 90
1, 3110, Note_on_c, 0, 59, 84
1, 3111, Note_on_c, 0, 62, 85
1, 3111, Note_on_c, 0, 55, 82
1, 3114, Note_on_c, 0, 69, 94
1, 3119, Control_c, 0, 64, 100
1, 3126, Note_on_c, 0, 65, 84
1, 3134, Control_c, 0, 64, 127
1, 3188, Note_off_c, 0, 65, 0
1, 3211, Note_on_c, 0, 65, 7
1, 3263, Note_off_c, 0, 65, 42
1, 3303, Note_off_c, 0, 69, 58
1, 3310, Note_off_c, 0, 67, 60
1, 3314, Note_off_c, 0, 59, 61
1, 3320, Note_off_c, 0, 62, 57
1, 3330, Note_off_c, 0, 55, 61
1, 3332, Note_off_c, 0, 74, 62
1, 3344, Note_off_c, 0, 77, 65
1, 3345, Note_off_c, 0, 83, 64
1, 3511, Note_on_c, 0, 83, 99
1, 3519, Note_on_c, 0, 67, 91
1, 3520, Note_on_c, 0, 74, 83
1, 3520, Note_on_c, 0, 62, 90
1, 3522, Note_on_c, 0, 77, 82
1, 3523, Note_on_c, 0, 55, 81
1, 3523, Note_on_c, 0, 59, 83
1, 3528, Note_on_c, 0, 69, 85
1, 3541, Note_off_c, 0, 74, 70
1, 3544, Note_on_c, 0, 65, 61
1, 3546, Note_off_c, 0, 77, 70
1, 3549, Note_off_c, 0, 69, 73
1, 3550, Note_off_c, 0, 62, 65
1, 3551, Note_off_c, 0, 59, 68
1, 3552, Note_off_c, 0, 55, 65
1, 3553, Note_off_c, 0, 83, 66
1, 3557, Note_off_c, 0, 67, 63
1, 3567, Note_off_c, 0, 65, 63
1, 3585, Control_c, 0, 64, 122
1, 3600, Control_c, 0, 64, 65
1, 3606, Note_on_c, 0, 72, 98
1, 3606, Note_on_c, 0, 76, 93
1, 3609, Note_on_c, 0, 59, 73
1, 3612, Note_on_c, 0, 67, 77
1, 3612, Note_on_c, 0, 84, 82
1, 3613, Note_on_c, 0, 62, 86
1, 3614, Note_on_c, 0, 55, 85
1, 3615, Control_c, 0, 64, 56
1, 3616, Note_on_c, 0, 74, 23
1, 3623, Note_on_c, 0, 65, 83
1, 3627, Note_off_c, 0, 72, 65
1, 3630, Control_c, 0, 64, 0
1, 3633, Note_off_c, 0, 76, 64
1, 3637, Note_off_c, 0, 84, 69
1, 3639, Note_off_c, 0, 62, 68
1, 3639, Note_off_c, 0, 65, 68
1, 3640, Note_off_c, 0, 55, 63
1, 3644, Note_off_c, 0, 59, 66
1, 3644, Note_off_c, 0, 67, 67
1, 3646, Note_on_c, 0, 79, 39
1, 3655, Note_on_c, 0, 83, 7
1, 3660, Note_off_c, 0, 74, 34
1, 3675, Note_off_c, 0, 83, 35
1, 3680, Note_off_c, 0, 79, 35
1, 3695, Note_on_c, 0, 77, 82
1, 3701, Note_on_c, 0, 74, 82
1, 3703, Note_on_c, 0, 55, 77
1, 3703, Note_on_c, 0, 62, 82
1, 3703, Note_on_c, 0, 86, 89
1, 3706, Note_on_c, 0, 67, 92
1, 3707, Note_on_c, 0, 65, 74
1, 3710, Note_on_c, 0, 59, 74
1, 3710, Note_on_c, 0, 81, 72
1, 3721, Note_off_c, 0, 74, 69
1, 3725, Note_off_c, 0, 81, 70
1, 3726, Note_off_c, 0, 86, 62
1, 3731, Note_off_c, 0, 67, 65
1, 3733, Note_off_c, 0, 65, 68
1, 3735, Note_off_c, 0, 62, 68
1, 3736, Note_off_c, 0, 55, 65
1, 3736, Note_off_c, 0, 77, 67
1, 3737, Note_off_c, 0, 59, 66
1, 3767, Note_on_c, 0, 85, 8
1, 3788, Note_on_c, 0, 79, 92
1, 3788, Note_on_c, 0, 76, 101
1, 3788, Note_on_c, 0, 88, 95
1, 3791, Note_on_c, 0, 59, 76
1, 3791, Note_on_c, 0, 67, 80
1, 3792, Note_on_c, 0, 65, 74
1, 3794, Note_on_c, 0, 62, 79
1, 3795, Note_on_c, 0, 55, 77
1, 3802, Note_off_c, 0, 85, 32
1, 3814, Note_off_c, 0, 76, 61
1, 3816, Note_on_c, 0, 74, 1
1, 3817, Note_off_c, 0, 74, 127
1, 3819, Note_off_c, 0, 65, 64
1, 3820, Note_off_c, 0, 67, 64
1, 3820, Note_off_c, 0, 79, 65
1, 3821, Note_off_c, 0, 55, 67
1, 3822, Note_off_c, 0, 62, 68
1, 3823, Note_on_c, 0, 83, 22
1, 3824, Note_off_c, 0, 59, 68
1, 3829, Note_off_c, 0, 88, 63
1, 3858, Note_off_c, 0, 83, 31
1, 3877, Note_on_c, 0, 55, 81
1, 3877, Note_on_c, 0, 67, 87
1, 3878, Note_on_c, 0, 86, 98
1, 3879, Note_on_c, 0, 62, 77
1, 3879, Note_on_c, 0, 65, 78
1, 3880, Note_on_c, 0, 74, 87
1, 3883, Note_on_c, 0, 59, 83
1, 3883, Note_on_c, 0, 77, 93
1, 3898, Control_c, 0, 64, 63
1, 3905, Note_on_c, 0, 76, 37
1, 3906, Note_off_c, 0, 76, 127
1, 3906, Note_on_c, 0, 85, 44
1, 3906, Note_on_c, 0, 81, 35
1, 3913, Control_c, 0, 64, 127
1, 3925, Note_off_c, 0, 85, 63
1, 3932, Note_off_c, 0, 62, 61
1, 3933, Note_off_c, 0, 81, 54
1, 3934, Note_off_c, 0, 55, 60
1, 3934, Note_off_c, 0, 77, 65
1, 3938, Note_off_c, 0, 65, 58
1, 3938, Note_off_c, 0, 74, 65
1, 3940, Note_off_c, 0, 67, 61
1, 3940, Note_off_c, 0, 86, 66
1, 3940, Note_off_c, 0, 59, 65
1, 4080, Note_on_c, 0, 62, 73
1, 4082, Note_on_c, 0, 65, 78
1, 4084, Note_on_c, 0, 67, 76
1, 4084, Note_on_c, 0, 84, 84
1, 4085, Note_on_c, 0, 55, 71
1, 4085, Note_on_c, 0, 72, 86
1, 4087, Note_on_c, 0, 59, 68
1, 4090, Note_on_c, 0, 76, 67
1, 4097, Note_off_c, 0, 84, 72
1, 4099, Note_off_c, 0, 72, 71
1, 4100, Note_off_c, 0, 67, 68
1, 4105, Note_off_c, 0, 65, 65
1, 4107, Note_off_c, 0, 76, 67
1, 4109, Note_off_c, 0, 62, 68
1, 4112, Note_off_c, 0, 55, 67
1, 4114, Note_off_c, 0, 59, 68
1, 4168, Note_on_c, 0, 59, 84
1, 4170, Note_on_c, 0, 67, 81
1, 4172, Note_on_c, 0, 65, 83
1, 4172, Control_c, 0, 64, 107
1, 4172, Note_on_c, 0, 71, 96
1, 4174, Note_on_c, 0, 62, 86
1, 4175, Note_on_c, 0, 55, 77
1, 4182, Poly_aftertouch_c, 0, 83, 127
1, 4187, Control_c, 0, 64, 65
1, 4187, Note_on_c, 0, 76, 54
1, 4189, Note_on_c, 0, 74, 56
1, 4190, Note_off_c, 0, 71, 72
1, 4196, Note_off_c, 0, 62, 70
1, 4198, Note_off_c, 0, 65, 64
1, 4202, Control_c, 0, 64, 0
1, 4202, Note_off_c, 0, 55, 66
1, 4202, Note_off_c, 0, 67, 66
1, 4203, Note_on_c, 0, 78, 23
1, 4204, Note_off_c, 0, 78, 127
1, 4205, Note_on_c, 0, 84, 40
1, 4208, Note_off_c, 0, 76, 59
1, 4211, Note_off_c, 0, 74, 43
1, 4211, Poly_aftertouch_c, 0, 83, 0
1, 4215, Note_off_c, 0, 59, 65
1, 4216, Control_c, 0, 64, 23
1, 4220, Note_off_c, 0, 84, 34
1, 4231, Control_c, 0, 64, 0
1, 4257, Note_on_c, 0, 81, 99
1, 4262, Note_on_c, 0, 72, 87
1, 4263, Note_on_c, 0, 71, 25
1, 4264, Note_on_c, 0, 55, 68
1, 4264, Note_on_c, 0, 76, 93
1, 4265, Note_on_c, 0, 67, 93
1, 4266, Note_on_c, 0, 60, 87
1, 4266, Note_on_c, 0, 64, 83
1, 4275, Note_on_c, 0, 62, 59
1, 4275, Note_on_c, 0, 69, 81
1, 4281, Note_off_c, 0, 72, 70
1, 4282, Note_off_c, 0, 76, 72
1, 4290, Note_off_c, 0, 55, 66
1, 4294, Note_off_c, 0, 62, 68
1, 4294, Note_off_c, 0, 64, 62
1, 4294, Note_off_c, 0, 69, 68
1, 4295, Note_off_c, 0, 81, 68
1, 4295, Note_off_c, 0, 60, 67
1, 4297, Note_off_c, 0, 71, 37
1, 4298, Note_off_c, 0, 67, 66
1, 4307, Note_on_c, 0, 63, 31
1, 4340, Note_off_c, 0, 63, 38
1, 4354, Note_on_c, 0, 76, 15
1, 4379, Note_off_c, 0, 76, 45
1, 4468, Note_on_c, 0, 81, 104
1, 4474, Note_on_c, 0, 72, 102
1, 4475, Note_on_c, 0, 76, 91
1, 4483, Note_on_c, 0, 60, 69
1, 4485, Note_on_c, 0, 64, 69
1, 4491, Note_off_c, 0, 72, 69
1, 4493, Note_off_c, 0, 76, 71
1, 4494, Note_on_c, 0, 69, 71
1, 4497, Note_on_c, 0, 67, 54
1, 4502, Note_off_c, 0, 64, 64
1, 4509, Note_on_c, 0, 55, 42
1, 4510, Note_off_c, 0, 81, 66
1, 4513, Note_off_c, 0, 60, 64
1, 4520, Note_off_c, 0, 69, 61
1, 4524, Note_off_c, 0, 67, 63
1, 4541, Note_off_c, 0, 55, 50
1, 4732, Note_on_c, 0, 83, 109
1, 4733, Note_on_c, 0, 74, 96
1, 4736, Control_c, 0, 64, 45
1, 4736, Note_on_c, 0, 77, 104
1, 4739, Note_on_c, 0, 67, 99
1, 4743, Note_on_c, 0, 55, 78
1, 4743, Note_on_c, 0, 62, 78
1, 4745, Note_on_c, 0, 59, 81
1, 4745, Note_on_c, 0, 69, 88
1, 4751, Control_c, 0, 64, 127
1, 4759, Note_on_c, 0, 65, 75
1, 4775, Note_off_c, 0, 65, 65
1, 4785, Note_on_c, 0, 58, 47
1, 4819, Note_off_c, 0, 58, 50
1, 4960, Note_off_c, 0, 74, 58
1, 4965, Note_off_c, 0, 77, 64
1, 4968, Note_off_c, 0, 69, 58
1, 4968, Note_off_c, 0, 83, 64
1, 4969, Note_off_c, 0, 55, 57
1, 4971, Note_off_c, 0, 67, 61
1, 4975, Note_off_c, 0, 59, 63
1, 4985, Note_off_c, 0, 62, 62
1, 5137, Note_on_c, 0, 83, 103
1, 5147, Note_on_c, 0, 67, 87
1, 5147, Note_on_c, 0, 74, 85
1, 5148, Note_on_c, 0, 62, 90
1, 5150, Note_on_c, 0, 77, 81
1, 5153, Note_on_c, 0, 55, 80
1, 5154, Note_on_c, 0, 59, 79
1, 5158, Note_on_c, 0, 69, 85
1, 5162, Note_off_c, 0, 74, 74
1, 5166, Note_off_c, 0, 77, 70
1, 5174, Note_off_c, 0, 67, 64
1, 5174, Note_off_c, 0, 55, 67
1, 5174, Note_off_c, 0, 83, 66
1, 5176, Note_off_c, 0, 62, 65
1, 5180, Note_off_c, 0, 69, 68
1, 5181, Note_off_c, 0, 59, 68
1, 5187, Control_c, 0, 64, 88
1, 5189, Note_on_c, 0, 65, 31
1, 5202, Control_c, 0, 64, 44
1, 5215, Note_off_c, 0, 65, 54
1, 5217, Control_c, 0, 64, 0
1, 5227, Note_on_c, 0, 76, 98
1, 5228, Note_on_c, 0, 72, 93
1, 5230, Note_on_c, 0, 84, 99
1, 5231, Note_on_c, 0, 59, 80
1, 5231, Note_on_c, 0, 67, 89
1, 5234, Note_on_c, 0, 55, 77
1, 5234, Note_on_c, 0, 62, 86
1, 5240, Note_on_c, 0, 65, 74
1, 5248, Note_off_c, 0, 72, 67
1, 5249, Note_on_c, 0, 79, 62
1, 5264, Note_off_c, 0, 76, 61
1, 5265, Note_off_c, 0, 55, 64
1, 5266, Note_off_c, 0, 62, 65
1, 5266, Note_off_c, 0, 84, 63
1, 5269, Note_off_c, 0, 79, 62
1, 5269, Note_off_c, 0, 65, 64
1, 5271, Note_off_c, 0, 59, 66
1, 5274, Note_off_c, 0, 67, 63
1, 5284, Note_on_c, 0, 83, 4
1, 5285, Note_off_c, 0, 83, 127
1, 5316, Note_on_c, 0, 74, 81
1, 5317, Note_on_c, 0, 77, 87
1, 5317, Note_on_c, 0, 86, 90
1, 5318, Note_on_c, 0, 65, 79
1, 5323, Note_on_c, 0, 67, 88
1, 5325, Note_on_c, 0, 59, 77
1, 5326, Note_on_c, 0, 62, 76
1, 5327, Note_on_c, 0, 55, 76
1, 5328, Note_on_c, 0, 81, 73
1, 5348, Note_off_c, 0, 81, 65
1, 5350, Note_on_c, 0, 79, 35
1, 5351, Note_off_c, 0, 79, 127
1, 5353, Note_off_c, 0, 74, 64
1, 5356, Note_off_c, 0, 62, 69
1, 5359, Note_off_c, 0, 77, 66
1, 5359, Note_off_c, 0, 65, 63
1, 5359, Note_off_c, 0, 55, 65
1, 5361, Note_off_c, 0, 67, 63
1, 5364, Note_off_c, 0, 59, 65
1, 5365, Note_off_c, 0, 86, 66
1, 5529, Control_c, 0, 64, 127
1, 5531, Note_on_c, 0, 62, 91
1, 5532, Note_on_c, 0, 76, 97
1, 5532, Note_on_c, 0, 88, 96
1, 5534, Note_on_c, 0, 67, 89
1, 5535, Note_on_c, 0, 79, 91
1, 5535, Note_on_c, 0, 65, 82
1, 5538, Note_on_c, 0, 59, 69
1, 5540, Note_on_c, 0, 55, 73
1, 5548, Note_off_c, 0, 76, 72
1, 5548, Note_off_c, 0, 88, 73
1, 5553, Note_off_c, 0, 79, 72
1, 5556, Note_on_c, 0, 83, 61
1, 5558, Note_off_c, 0, 62, 68
1, 5558, Note_off_c, 0, 67, 68
1, 5559, Note_off_c, 0, 65, 69
1, 5566, Note_off_c, 0, 59, 68
1, 5569, Note_off_c, 0, 55, 66
1, 5580, Note_off_c, 0, 83, 62
1, 5614, Note_on_c, 0, 65, 102
1, 5615, Note_on_c, 0, 86, 82
1, 5616, Note_on_c, 0, 67, 71
1, 5616, Note_on_c, 0, 74, 87
1, 5617, Note_on_c, 0, 77, 91
1, 5618, Note_on_c, 0, 59, 80
1, 5618, Note_on_c, 0, 62, 88
1, 5621, Note_on_c, 0, 55, 81
1, 5643, Note_off_c, 0, 74, 67
1, 5645, Note_off_c, 0, 77, 69
1, 5653, Note_off_c, 0, 86, 60
1, 5654, Note_off_c, 0, 55, 66
1, 5655, Note_off_c, 0, 59, 66
1, 5655, Note_off_c, 0, 67, 62
1, 5658, Note_off_c, 0, 62, 68
1, 5659, Note_off_c, 0, 65, 61
1, 5688, Note_on_c, 0, 85, 1
1, 5708, Note_on_c, 0, 72, 102
1, 5710, Note_on_c, 0, 84, 98
1, 5711, Note_on_c, 0, 76, 84
1, 5711, Note_on_c, 0, 55, 77
1, 5713, Note_on_c, 0, 65, 83
1, 5715, Note_on_c, 0, 62, 81
1, 5716, Note_on_c, 0, 67, 73
1, 5717, Note_on_c, 0, 59, 81
1, 5729, Note_off_c, 0, 85, 44
1, 5737, Note_off_c, 0, 76, 67
1, 5738, Note_off_c, 0, 62, 69
1, 5740, Note_off_c, 0, 67, 66
1, 5742, Note_off_c, 0, 65, 61
1, 5743, Note_off_c, 0, 55, 63
1, 5744, Note_off_c, 0, 72, 61
1, 5746, Note_off_c, 0, 59, 67
1, 5749, Note_off_c, 0, 84, 64
1, 5751, Note_on_c, 0, 61, 17
1, 5794, Note_off_c, 0, 61, 44
1, 5798, Note_on_c, 0, 83, 100
1, 5799, Note_on_c, 0, 71, 97
1, 5803, Note_on_c, 0, 67, 80
1, 5805, Note_on_c, 0, 65, 93
1, 5805, Note_on_c, 0, 74, 68
1, 5806, Note_on_c, 0, 55, 82
1, 5807, Note_on_c, 0, 59, 80
1, 5817, Note_on_c, 0, 62, 69
1, 5818, Control_c, 0, 64, 73
1, 5826, Note_off_c, 0, 71, 60
1, 5826, Note_off_c, 0, 74, 68
1, 5833, Note_off_c, 0, 65, 66
1, 5833, Control_c, 0, 64, 0
1, 5834, Note_off_c, 0, 55, 67
1, 5836, Note_off_c, 0, 62, 65
1, 5836, Note_off_c, 0, 67, 62
1, 5837, Note_off_c, 0, 83, 64
1, 5839, Note_off_c, 0, 59, 66
1, 5848, Control_c, 0, 64, 24
1, 5862, Control_c, 0, 64, 0
1, 5892, Note_on_c, 0, 72, 98
1, 5892, Note_on_c, 0, 81, 92
1, 5899, Note_on_c, 0, 67, 90
1, 5900, Note_on_c, 0, 64, 76
1, 5908, Note_on_c, 0, 60, 71
1, 5908, Note_on_c, 0, 69, 72
1, 5908, Note_on_c, 0, 76, 70
1, 5910, Note_off_c, 0, 72, 69
1, 5913, Note_off_c, 0, 81, 70
1, 5914, Note_off_c, 0, 67, 67
1, 5919, Note_on_c, 0, 59, 44
1, 5924, Note_off_c, 0, 69, 69
1, 5924, Note_off_c, 0, 76, 66
1, 5926, Note_off_c, 0, 64, 69
1, 5931, Note_on_c, 0, 55, 37
1, 5935, Note_off_c, 0, 60, 65
1, 5940, Note_off_c, 0, 55, 46
1, 5953, Note_off_c, 0, 59, 33
1, 6115, Note_on_c, 0, 81, 99
1, 6117, Note_on_c, 0, 67, 100
1, 6118, Note_on_c, 0, 72, 93
1, 6119, Note_on_c, 0, 64, 95
1, 6119, Note_on_c, 0, 69, 101
1, 6122, Note_on_c, 0, 76, 95
1, 6122, Note_on_c, 0, 60, 87
1, 6126, Note_on_c, 0, 55, 87
1, 6127, Note_on_c, 0, 74, 85
1, 6128, Control_c, 0, 64, 39
1, 6143, Control_c, 0, 64, 119
1, 6146, Note_off_c, 0, 74, 54
1, 6158, Control_c, 0, 64, 127
1, 6227, Note_off_c, 0, 72, 62
1, 6231, Note_off_c, 0, 55, 62
1, 6232, Note_off_c, 0, 64, 62
1, 6235, Note_off_c, 0, 69, 62
1, 6235, Note_off_c, 0, 81, 63
1, 6236, Note_off_c, 0, 60, 62
1, 6238, Note_off_c, 0, 67, 63
1, 6238, Note_off_c, 0, 76, 63
1, 6278, Control_c, 0, 64, 98
1, 6292, Control_c, 0, 64, 53
1, 6307, Control_c, 0, 64, 0
1, 6315, Note_on_c, 0, 83, 112
1, 6316, Note_on_c, 0, 67, 84
1, 6317, Note_on_c, 0, 74, 101
1, 6320, Note_on_c, 0, 55, 83
1, 6321, Note_on_c, 0, 77, 93
1, 6322, Note_on_c, 0, 59, 69
1, 6322, Note_on_c, 0, 69, 87
1, 6328, Note_on_c, 0, 62, 56
1, 6336, Note_off_c, 0, 74, 69
1, 6337, Note_off_c, 0, 77, 74
1, 6341, Note_on_c, 0, 63, 59
1, 6348, Note_off_c, 0, 83, 69
1, 6350, Note_off_c, 0, 69, 64
1, 6352, Note_off_c, 0, 55, 62
1, 6355, Note_off_c, 0, 67, 62
1, 6356, Note_off_c, 0, 62, 67
1, 6363, Note_off_c, 0, 59, 66
1, 6363, Note_off_c, 0, 63, 61
1, 6533, Note_on_c, 0, 83, 97
1, 6534, Note_on_c, 0, 74, 102
1, 6536, Note_on_c, 0, 77, 103
1, 6539, Note_on_c, 0, 67, 99
1, 6542, Note_on_c, 0, 62, 94
1, 6544, Note_on_c, 0, 59, 83
1, 6544, Note_on_c, 0, 69, 96
1, 6545, Note_on_c, 0, 55, 82
1, 6551, Control_c, 0, 64, 47
1, 6566, Control_c, 0, 64, 127
1, 6576, Note_on_c, 0, 60, 65
1, 6607, Note_off_c, 0, 77, 62
1, 6612, Note_off_c, 0, 74, 58
1, 6617, Note_off_c, 0, 60, 33
1, 6626, Note_off_c, 0, 83, 60
1, 6641, Note_off_c, 0, 69, 58
1, 6645, Note_off_c, 0, 67, 59
1, 6650, Note_off_c, 0, 55, 56
1, 6650, Note_off_c, 0, 62, 61
1, 6654, Note_off_c, 0, 59, 58
1, 6731, Note_on_c, 0, 83, 98
1, 6734, Note_on_c, 0, 67, 91
1, 6739, Note_on_c, 0, 77, 80
1, 6740, Note_on_c, 0, 59, 76
1, 6742, Note_on_c, 0, 62, 81
1, 6742, Note_on_c, 0, 55, 77
1, 6744, Note_on_c, 0, 74, 72
1, 6745, Note_on_c, 0, 65, 81
1, 6760, Note_off_c, 0, 65, 68
1, 6763, Note_off_c, 0, 77, 70
1, 6766, Note_off_c, 0, 74, 68
1, 6766, Note_off_c, 0, 59, 69
1, 6769, Note_off_c, 0, 55, 66
1, 6769, Note_off_c, 0, 62, 69
1, 6769, Note_off_c, 0, 67, 61
1, 6772, Note_off_c, 0, 83, 67
1, 6772, Note_on_c, 0, 69, 41
1, 6793, Note_off_c, 0, 69, 66
1, 6831, Note_on_c, 0, 67, 96
1, 6832, Note_on_c, 0, 55, 74
1, 6832, Note_on_c, 0, 62, 89
1, 6832, Note_on_c, 0, 72, 85
1, 6833, Note_on_c, 0, 59, 79
1, 6833, Note_on_c, 0, 65, 72
1, 6833, Note_on_c, 0, 76, 86
1, 6835, Note_on_c, 0, 83, 79
1, 6851, Note_on_c, 0, 84, 64
1, 6851, Note_off_c, 0, 83, 67
1, 6853, Note_off_c, 0, 76, 70
1, 6855, Note_off_c, 0, 72, 68
1, 6859, Note_on_c, 0, 80, 43
1, 6860, Note_off_c, 0, 65, 63
1, 6862, Note_off_c, 0, 62, 66
1, 6864, Note_off_c, 0, 67, 62
1, 6865, Note_off_c, 0, 55, 66
1, 6867, Note_off_c, 0, 59, 66
1, 6869, Note_off_c, 0, 84, 64
1, 6883, Note_off_c, 0, 80, 56
1, 6918, Note_on_c, 0, 77, 83
1, 6920, Note_on_c, 0, 65, 72
1, 6920, Note_on_c, 0, 74, 89
1, 6920, Note_on_c, 0, 86, 96
1, 6922, Note_on_c, 0, 67, 89
1, 6923, Note_on_c, 0, 59, 86
1, 6924, Note_on_c, 0, 62, 86
1, 6926, Note_on_c, 0, 55, 76
1, 6940, Note_off_c, 0, 74, 70
1, 6942, Note_on_c, 0, 84, 55
1, 6948, Note_off_c, 0, 77, 67
1, 6951, Note_off_c, 0, 62, 61
1, 6953, Note_off_c, 0, 65, 61
1, 6954, Note_off_c, 0, 59, 67
1, 6957, Note_off_c, 0, 67, 61
1, 6960, Note_off_c, 0, 55, 63
1, 6960, Note_off_c, 0, 84, 64
1, 6960, Note_off_c, 0, 86, 62
1, 6984, Poly_aftertouch_c, 0, 76, 0
1, 7012, Note_on_c, 0, 88, 99
1, 7014, Note_on_c, 0, 65, 83
1, 7015, Note_on_c, 0, 76, 94
1, 7015, Note_on_c, 0, 79, 91
1, 7016, Note_on_c, 0, 67, 92
1, 7016, Note_on_c, 0, 62, 83
1, 7021, Note_on_c, 0, 59, 71
1, 7022, Note_on_c, 0, 55, 76
1, 7033, Note_off_c, 0, 76, 71
1, 7036, Note_off_c, 0, 79, 67
1, 7041, Note_on_c, 0, 74, 11
1, 7046, Note_off_c, 0, 65, 63
1, 7047, Note_off_c, 0, 55, 66
1, 7047, Note_off_c, 0, 67, 64
1, 7049, Note_off_c, 0, 88, 67
1, 7053, Note_off_c, 0, 62, 61
1, 7054, Note_on_c, 0, 86, 35
1, 7055, Note_off_c, 0, 86, 127
1, 7055, Note_off_c, 0, 59, 67
1, 7078, Note_off_c, 0, 74, 33
1, 7106, Note_on_c, 0, 55, 76
1, 7106, Note_on_c, 0, 76, 62
1, 7108, Note_on_c, 0, 67, 93
1, 7108, Poly_aftertouch_c, 0, 77, 0
1, 7109, Note_on_c, 0, 65, 87
1, 7110, Note_on_c, 0, 62, 82
1, 7111, Note_on_c, 0, 59, 90
1, 7111, Note_on_c, 0, 79, 92
1, 7111, Note_on_c, 0, 86, 83
1, 7127, Note_off_c, 0, 79, 72
1, 7128, Note_on_c, 0, 88, 55
1, 7140, Note_off_c, 0, 76, 68
1, 7141, Note_off_c, 0, 59, 67
1, 7142, Note_on_c, 0, 77, 12
1, 7143, Note_off_c, 0, 65, 61
1, 7145, Note_off_c, 0, 62, 67
1, 7146, Note_off_c, 0, 55, 61
1, 7146, Note_off_c, 0, 67, 62
1, 7156, Note_off_c, 0, 88, 65
1, 7159, Note_on_c, 0, 85, 12
1, 7159, Note_off_c, 0, 86, 65
1, 7184, Note_off_c, 0, 77, 32
1, 7204, Note_on_c, 0, 79, 30
1, 7205, Note_on_c, 0, 59, 68
1, 7207, Note_on_c, 0, 62, 81
1, 7207, Note_on_c, 0, 67, 91
1, 7207, Note_on_c, 0, 65, 78
1, 7208, Note_off_c, 0, 85, 35
1, 7209, Note_on_c, 0, 84, 98
1, 7210, Note_on_c, 0, 55, 87
1, 7216, Note_on_c, 0, 72, 83
1, 7222, Note_on_c, 0, 76, 74
1, 7226, Note_on_c, 0, 74, 62
1, 7226, Note_off_c, 0, 79, 37
1, 7232, Note_off_c, 0, 65, 61
1, 7233, Note_off_c, 0, 67, 63
1, 7236, Note_off_c, 0, 62, 66
1, 7236, Note_off_c, 0, 55, 65
1, 7238, Note_off_c, 0, 59, 66
1, 7238, Note_off_c, 0, 76, 67
1, 7240, Note_off_c, 0, 72, 68
1, 7242, Note_off_c, 0, 74, 67
1, 7251, Note_off_c, 0, 84, 65
1, 7297, Note_on_c, 0, 65, 81
1, 7298, Note_on_c, 0, 67, 82
1, 7299, Note_on_c, 0, 55, 72
1, 7299, Note_on_c, 0, 84, 93
1, 7302, Note_on_c, 0, 83, 85
1, 7303, Note_on_c, 0, 72, 88
1, 7304, Note_on_c, 0, 62, 77
1, 7306, Note_on_c, 0, 59, 76
1, 7309, Note_on_c, 0, 76, 68
1, 7311, Poly_aftertouch_c, 0, 77, 0
1, 7320, Note_off_c, 0, 72, 71
1, 7326, Note_off_c, 0, 76, 67
1, 7329, Note_off_c, 0, 55, 64
1, 7330, Note_off_c, 0, 65, 60
1, 7332, Note_off_c, 0, 67, 62
1, 7335, Note_off_c, 0, 59, 66
1, 7336, Note_off_c, 0, 62, 66
1, 7341, Note_off_c, 0, 84, 66
1, 7345, Note_off_c, 0, 83, 66
1, 7390, Control_c, 0, 64, 70
1, 7393, Note_on_c, 0, 65, 85
1, 7393, Note_on_c, 0, 72, 40
1, 7394, Note_on_c, 0, 55, 77
1, 7394, Note_on_c, 0, 81, 98
1, 7395, Note_on_c, 0, 67, 92
1, 7395, Note_on_c, 0, 59, 83
1, 7395, Note_on_c, 0, 62, 79
1, 7395, Note_on_c, 0, 76, 88
1, 7405, Control_c, 0, 64, 0
1, 7419, Note_off_c, 0, 76, 67
1, 7420, Control_c, 0, 64, 9
1, 7422, Note_off_c, 0, 55, 66
1, 7422, Note_off_c, 0, 72, 66
1, 7422, Note_off_c, 0, 67, 60
1, 7424, Note_off_c, 0, 65, 60
1, 7425, Note_off_c, 0, 62, 64
1, 7428, Note_off_c, 0, 59, 68
1, 7433, Note_on_c, 0, 83, 34
1, 7434, Note_off_c, 0, 83, 127
1, 7434, Note_off_c, 0, 81, 66
1, 7435, Control_c, 0, 64, 0
1, 7438, Note_on_c, 0, 77, 26
1, 7439, Note_off_c, 0, 77, 127
1, 7486, Note_on_c, 0, 79, 104
1, 7487, Note_on_c, 0, 65, 97
1, 7489, Note_on_c, 0, 55, 77
1, 7491, Note_on_c, 0, 71, 104
1, 7492, Note_on_c, 0, 67, 89
1, 7494, Note_on_c, 0, 59, 84
1, 7494, Note_on_c, 0, 62, 80
1, 7496, Note_on_c, 0, 74, 85
1, 7509, Note_off_c, 0, 71, 68
1, 7514, Note_on_c, 0, 61, 42
1, 7517, Note_off_c, 0, 74, 71
1, 7522, Note_off_c, 0, 79, 67
1, 7526, Note_off_c, 0, 62, 68
1, 7527, Note_off_c, 0, 55, 61
1, 7532, Note_off_c, 0, 59, 61
1, 7533, Note_off_c, 0, 65, 61
1, 7535, Note_off_c, 0, 67, 61
1, 7541, Note_off_c, 0, 61, 33
1, 7691, Note_on_c, 0, 77, 111
1, 7693, Note_on_c, 0, 69, 109
1, 7695, Note_on_c, 0, 72, 106
1, 7705, Note_on_c, 0, 62, 70
1, 7706, Note_on_c, 0, 65, 69
1, 7708, Note_on_c, 0, 55, 69
1, 7709, Note_on_c, 0, 59, 70
1, 7713, Note_on_c, 0, 67, 66
1, 7715, Note_off_c, 0, 69, 68
1, 7715, Note_off_c, 0, 72, 63
1, 7727, Note_off_c, 0, 77, 68
1, 7735, Note_off_c, 0, 67, 62
1, 7741, Note_off_c, 0, 62, 66
1, 7742, Note_off_c, 0, 65, 52
1, 7747, Note_off_c, 0, 59, 67
1, 7751, Note_off_c, 0, 55, 62
1, 7904, Note_on_c, 0, 76, 121
1, 7905, Note_on_c, 0, 71, 118
1, 7915, Note_on_c, 0, 67, 60
1, 7917, Control_c, 0, 64, 115
1, 7918, Note_on_c, 0, 64, 50
1, 7919, Note_on_c, 0, 55, 59
1, 7922, Note_on_c, 0, 59, 70
1, 7932, Control_c, 0, 64, 127
1, 7933, Note_off_c, 0, 67, 65
1, 7935, Note_off_c, 0, 71, 66
1, 7938, Note_off_c, 0, 64, 60
1, 7945, Note_off_c, 0, 76, 65
1, 7948, Note_off_c, 0, 59, 68
1, 7964, Note_off_c, 0, 55, 64
1, 8038, Note_on_c, 0, 71, 74
1, 8040, Note_on_c, 0, 72, 69
1, 8063, Note_off_c, 0, 71, 67
1, 8074, Note_on_c, 0, 74, 62
1, 8086, Note_off_c, 0, 72, 61
1, 8097, Note_on_c, 0, 76, 81
1, 8097, Note_off_c, 0, 74, 68
1, 8112, Note_off_c, 0, 76, 69
1, 8114, Note_on_c, 0, 77, 81
1, 8129, Note_on_c, 0, 79, 83
1, 8129, Note_off_c, 0, 77, 71
1, 8141, Note_on_c, 0, 81, 80
1, 8143, Note_off_c, 0, 79, 70
1, 8152, Note_on_c, 0, 83, 85
1, 8155, Note_off_c, 0, 81, 71
1, 8164, Note_on_c, 0, 84, 83
1, 8166, Note_off_c, 0, 83, 72
1, 8177, Note_on_c, 0, 86, 79
1, 8181, Note_off_c, 0, 84, 67
1, 8190, Note_on_c, 0, 88, 75
1, 8190, Note_off_c, 0, 86, 70
1, 8195, Note_on_c, 0, 76, 15
1, 8205, Note_on_c, 0, 89, 71
1, 8205, Note_off_c, 0, 88, 71
1, 8217, Note_on_c, 0, 91, 72
1, 8220, Note_off_c, 0, 89, 66
1, 8230, Note_on_c, 0, 93, 72
1, 8232, Note_off_c, 0, 91, 68
1, 8244, Note_off_c, 0, 76, 35
1, 8247, Note_off_c, 0, 93, 42
1, 8247, Note_on_c, 0, 95, 63
1, 8267, Note_off_c, 0, 95, 40
1, 8302, Note_on_c, 0, 100, 101
1, 8305, Note_on_c, 0, 45, 98
1, 8317, Note_off_c, 0, 100, 75
1, 8323, Poly_aftertouch_c, 0, 84, 0
1, 8331, Control_c, 0, 64, 74
1, 8346, Control_c, 0, 64, 0
1, 8354, Note_off_c, 0, 45, 66
1, 8361, Control_c, 0, 64, 25
1, 8376, Control_c, 0, 64, 0
1, 8524, Control_c, 0, 67, 15
1, 8539, Control_c, 0, 67, 28
1, 8554, Control_c, 0, 67, 39
1, 8569, Control_c, 0, 67, 48
1, 8570, Note_on_c, 0, 71, 71
1, 8573, Note_on_c, 0, 88, 81
1, 8578, Note_on_c, 0, 64, 65
1, 8583, Control_c, 0, 67, 58
1, 8587, Note_on_c, 0, 76, 55
1, 8588, Note_off_c, 0, 71, 66
1, 8593, Note_on_c, 0, 74, 42
1, 8594, Note_off_c, 0, 88, 72
1, 8598, Control_c, 0, 67, 64
1, 8602, Note_off_c, 0, 64, 67
1, 8608, Note_off_c, 0, 76, 61
1, 8613, Control_c, 0, 67, 67
1, 8622, Note_off_c, 0, 74, 54
1, 8635, Control_c, 0, 67, 69
1, 8650, Control_c, 0, 67, 70
1, 8666, Control_c, 0, 67, 71
1, 8681, Control_c, 0, 67, 73
1, 8695, Control_c, 0, 67, 73
1, 8739, Control_c, 0, 67, 74
1, 8814, Control_c, 0, 67, 74
1, 8827, Note_on_c, 0, 76, 90
1, 8829, Control_c, 0, 67, 76
1, 8832, Note_on_c, 0, 62, 82
1, 8833, Note_on_c, 0, 66, 77
1, 8844, Control_c, 0, 67, 80
1, 8858, Note_off_c, 0, 62, 69
1, 8858, Note_off_c, 0, 66, 68
1, 8858, Control_c, 0, 67, 84
1, 8873, Control_c, 0, 67, 89
1, 8888, Control_c, 0, 67, 92
1, 8903, Control_c, 0, 67, 95
1, 8918, Control_c, 0, 67, 96
1, 8932, Control_c, 0, 67, 97
1, 8947, Control_c, 0, 67, 98
1, 8952, Note_on_c, 0, 69, 48
1, 8955, Note_on_c, 0, 64, 64
1, 8957, Note_on_c, 0, 72, 40
1, 8962, Control_c, 0, 67, 98
1, 8987, Note_off_c, 0, 64, 67
1, 8988, Note_off_c, 0, 69, 58
1, 8990, Note_off_c, 0, 72, 55
1, 8992, Control_c, 0, 67, 99
1, 9006, Control_c, 0, 67, 101
1, 9021, Control_c, 0, 67, 105
1, 9023, Note_on_c, 0, 50, 74
1, 9025, Note_on_c, 0, 62, 60
1, 9036, Control_c, 0, 67, 106
1, 9046, Note_off_c, 0, 50, 69
1, 9047, Note_off_c, 0, 62, 64
1, 9051, Control_c, 0, 67, 108
1, 9066, Control_c, 0, 67, 111
1, 9081, Control_c, 0, 67, 113
1, 9095, Control_c, 0, 67, 115
1, 9110, Control_c, 0, 67, 116
1, 9123, Note_off_c, 0, 76, 49
1, 9125, Control_c, 0, 67, 117
1, 9138, Note_on_c, 0, 72, 56
1, 9139, Control_c, 0, 67, 118
1, 9154, Control_c, 0, 67, 119
1, 9169, Control_c, 0, 67, 121
1, 9184, Note_off_c, 0, 72, 58
1, 9184, Control_c, 0, 67, 121
1, 9213, Control_c, 0, 67, 121
1, 9228, Control_c, 0, 67, 117
1, 9235, Note_on_c, 0, 76, 84
1, 9243, Control_c, 0, 67, 113
1, 9245, Note_on_c, 0, 45, 81
1, 9246, Note_on_c, 0, 66, 85
1, 9258, Control_c, 0, 64, 42
1, 9258, Control_c, 0, 67, 107
1, 9270, Note_off_c, 0, 45, 69
1, 9273, Control_c, 0, 64, 68
1, 9273, Control_c, 0, 67, 101
1, 9288, Control_c, 0, 64, 70
1, 9288, Control_c, 0, 67, 92
1, 9291, Note_off_c, 0, 66, 65
1, 9299, Note_off_c, 0, 76, 56
1, 9303, Control_c, 0, 64, 72
1, 9303, Control_c, 0, 67, 82
1, 9318, Control_c, 0, 64, 78
1, 9318, Control_c, 0, 67, 63
1, 9332, Control_c, 0, 64, 89
1, 9332, Control_c, 0, 67, 41
1, 9344, Note_on_c, 0, 72, 69
1, 9347, Control_c, 0, 64, 127
1, 9347, Control_c, 0, 67, 15
1, 9347, Note_on_c, 0, 69, 45
1, 9362, Control_c, 0, 67, 0
1, 9374, Note_off_c, 0, 69, 61
1, 9388, Note_off_c, 0, 72, 61
1, 9431, Poly_aftertouch_c, 0, 76, 0
1, 9444, Note_on_c, 0, 76, 70
1, 9462, Note_on_c, 0, 57, 72
1, 9467, Note_on_c, 0, 62, 65
1, 9469, Note_on_c, 0, 64, 45
1, 9492, Note_off_c, 0, 76, 64
1, 9495, Note_off_c, 0, 62, 67
1, 9496, Note_off_c, 0, 64, 56
1, 9499, Note_off_c, 0, 57, 63
1, 9528, Poly_aftertouch_c, 0, 69, 127
1, 9538, Note_on_c, 0, 76, 90
1, 9548, Control_c, 0, 64, 76
1, 9557, Poly_aftertouch_c, 0, 69, 0
1, 9562, Control_c, 0, 64, 0
1, 9564, Note_on_c, 0, 64, 60
1, 9577, Control_c, 0, 64, 26
1, 9583, Note_off_c, 0, 64, 41
1, 9587, Note_off_c, 0, 76, 64
1, 9592, Control_c, 0, 64, 0
1, 9622, Control_c, 0, 67, 14
1, 9632, Note_on_c, 0, 76, 89
1, 9636, Control_c, 0, 67, 21
1, 9641, Note_on_c, 0, 64, 86
1, 9643, Note_on_c, 0, 62, 76
1, 9651, Note_on_c, 0, 67, 59
1, 9651, Control_c, 0, 67, 28
1, 9657, Note_on_c, 0, 73, 59
1, 9666, Note_off_c, 0, 64, 69
1, 9666, Control_c, 0, 67, 28
1, 9669, Note_off_c, 0, 62, 67
1, 9672, Note_off_c, 0, 67, 63
1, 9677, Note_off_c, 0, 73, 64
1, 9681, Control_c, 0, 67, 33
1, 9686, Note_off_c, 0, 76, 64
1, 9696, Control_c, 0, 67, 35
1, 9711, Control_c, 0, 67, 33
1, 9727, Note_on_c, 0, 76, 82
1, 9729, Note_on_c, 0, 71, 57
1, 9730, Note_on_c, 0, 64, 74
1, 9737, Note_on_c, 0, 74, 75
1, 9741, Control_c, 0, 67, 32
1, 9755, Control_c, 0, 67, 34
1, 9759, Note_off_c, 0, 64, 68
1, 9762, Note_off_c, 0, 74, 67
1, 9765, Note_off_c, 0, 71, 67
1, 9770, Control_c, 0, 67, 35
1, 9778, Note_off_c, 0, 76, 64
1, 9800, Control_c, 0, 67, 35
1, 9815, Control_c, 0, 67, 34
1, 9820, Note_on_c, 0, 76, 85
1, 9822, Note_on_c, 0, 64, 78
1, 9823, Note_on_c, 0, 50, 56
1, 9824, Note_on_c, 0, 71, 81
1, 9827, Note_on_c, 0, 74, 58
1, 9830, Control_c, 0, 67, 33
1, 9844, Control_c, 0, 67, 34
1, 9847, Note_off_c, 0, 50, 60
1, 9852, Note_off_c, 0, 71, 62
1, 9852, Note_off_c, 0, 74, 71
1, 9854, Note_off_c, 0, 64, 61
1, 9869, Note_off_c, 0, 76, 64
1, 9889, Control_c, 0, 67, 33
1, 9904, Control_c, 0, 67, 33
1, 9911, Note_on_c, 0, 76, 86
1, 9914, Note_on_c, 0, 64, 75
1, 9947, Note_off_c, 0, 64, 62
1, 9948, Control_c, 0, 67, 32
1, 9962, Control_c, 0, 67, 31
1, 9964, Note_off_c, 0, 76, 65
1, 9977, Control_c, 0, 67, 29
1, 9992, Control_c, 0, 67, 28
1, 10007, Note_on_c, 0, 76, 96
1, 10007, Control_c, 0, 67, 28
1, 10020, Note_on_c, 0, 67, 81
1, 10022, Control_c, 0, 64, 59
1, 10022, Control_c, 0, 67, 26
1, 10027, Note_on_c, 0, 45, 91
1, 10036, Control_c, 0, 64, 76
1, 10036, Control_c, 0, 67, 24
1, 10051, Control_c, 0, 64, 83
1, 10051, Control_c, 0, 67, 21
1, 10055, Note_off_c, 0, 45, 68
1, 10056, Note_off_c, 0, 67, 54
1, 10066, Control_c, 0, 64, 101
1, 10066, Control_c, 0, 67, 15
1, 10081, Control_c, 0, 64, 127
1, 10081, Control_c, 0, 67, 0
1, 10125, Note_on_c, 0, 74, 63
1, 10140, Note_on_c, 0, 71, 42
1, 10140, Note_off_c, 0, 76, 63
1, 10161, Note_off_c, 0, 74, 67
1, 10166, Note_off_c, 0, 71, 49
1, 10236, Control_c, 0, 64, 98
1, 10237, Note_on_c, 0, 79, 85
1, 10250, Note_on_c, 0, 69, 71
1, 10251, Control_c, 0, 64, 64
1, 10255, Note_on_c, 0, 57, 66
1, 10267, Control_c, 0, 64, 0
1, 10280, Note_off_c, 0, 79, 65
1, 10283, Note_off_c, 0, 69, 68
1, 10300, Note_off_c, 0, 57, 63
1, 10331, Note_on_c, 0, 74, 62
1, 10334, Note_on_c, 0, 76, 63
1, 10346, Note_on_c, 0, 64, 64
1, 10349, Note_on_c, 0, 71, 45
1, 10357, Note_off_c, 0, 74, 63
1, 10368, Note_off_c, 0, 76, 65
1, 10373, Note_off_c, 0, 71, 59
1, 10391, Note_off_c, 0, 64, 65
1, 10425, Note_on_c, 0, 78, 89
1, 10444, Note_on_c, 0, 66, 69
1, 10445, Control_c, 0, 67, 8
1, 10448, Note_on_c, 0, 62, 70
1, 10459, Control_c, 0, 67, 10
1, 10467, Note_off_c, 0, 62, 67
1, 10468, Note_off_c, 0, 66, 68
1, 10474, Note_off_c, 0, 78, 63
1, 10474, Control_c, 0, 67, 12
1, 10489, Control_c, 0, 67, 14
1, 10504, Control_c, 0, 67, 17
1, 10513, Note_on_c, 0, 76, 86
1, 10519, Control_c, 0, 67, 20
1, 10525, Note_on_c, 0, 69, 62
1, 10528, Note_on_c, 0, 72, 69
1, 10534, Control_c, 0, 67, 23
1, 10543, Note_off_c, 0, 69, 66
1, 10544, Note_off_c, 0, 72, 66
1, 10549, Control_c, 0, 67, 23
1, 10564, Control_c, 0, 67, 22
1, 10564, Note_off_c, 0, 76, 64
1, 10578, Control_c, 0, 67, 21
1, 10606, Note_on_c, 0, 81, 95
1, 10608, Control_c, 0, 67, 19
1, 10613, Note_on_c, 0, 62, 72
1, 10622, Note_on_c, 0, 50, 76
1, 10623, Control_c, 0, 67, 19
1, 10638, Control_c, 0, 64, 66
1, 10638, Control_c, 0, 67, 17
1, 10643, Note_off_c, 0, 62, 68
1, 10644, Note_off_c, 0, 50, 69
1, 10645, Note_on_c, 0, 72, 29
1, 10652, Control_c, 0, 64, 105
1, 10652, Control_c, 0, 67, 17
1, 10667, Control_c, 0, 64, 127
1, 10675, Note_off_c, 0, 81, 64
1, 10682, Control_c, 0, 67, 16
1, 10692, Note_off_c, 0, 72, 0
1, 10692, Note_on_c, 0, 72, 51
1, 10711, Control_c, 0, 67, 16
1, 10726, Control_c, 0, 67, 15
1, 10727, Note_off_c, 0, 72, 63
1, 10766, Poly_aftertouch_c, 0, 69, 127
1, 10794, Poly_aftertouch_c, 0, 69, 0
1, 10808, Note_on_c, 0, 76, 84
1, 10821, Note_on_c, 0, 66, 69
1, 10822, Note_on_c, 0, 45, 78
1, 10822, Note_on_c, 0, 70, 55
1, 10842, Note_off_c, 0, 70, 62
1, 10846, Note_off_c, 0, 45, 66
1, 10853, Note_off_c, 0, 66, 66
1, 10868, Note_off_c, 0, 76, 60
1, 10874, Control_c, 0, 67, 14
1, 10911, Control_c, 0, 67, 14
1, 10912, Note_on_c, 0, 72, 81
1, 10928, Note_on_c, 0, 69, 46
1, 10954, Note_off_c, 0, 72, 62
1, 10956, Note_off_c, 0, 69, 57
1, 11009, Note_on_c, 0, 62, 63
1, 11020, Note_on_c, 0, 79, 83
1, 11025, Note_on_c, 0, 77, 73
1, 11026, Note_on_c, 0, 57, 48
1, 11048, Note_off_c, 0, 79, 66
1, 11049, Note_off_c, 0, 77, 68
1, 11059, Note_off_c, 0, 57, 55
1, 11061, Control_c, 0, 67, 14
1, 11062, Note_off_c, 0, 62, 59
1, 11076, Control_c, 0, 67, 15
1, 11100, Note_on_c, 0, 64, 71
1, 11111, Note_on_c, 0, 78, 87
1, 11134, Control_c, 0, 67, 15
1, 11140, Note_off_c, 0, 78, 58
1, 11149, Control_c, 0, 64, 69
1, 11164, Control_c, 0, 64, 0
1, 11165, Note_off_c, 0, 64, 41
1, 11205, Note_on_c, 0, 62, 62
1, 11216, Note_on_c, 0, 76, 83
1, 11223, Control_c, 0, 67, 15
1, 11238, Control_c, 0, 64, 59
1, 11238, Control_c, 0, 67, 13
1, 11245, Note_off_c, 0, 76, 63
1, 11252, Note_off_c, 0, 62, 63
1, 11253, Control_c, 0, 64, 110
1, 11258, Note_on_c, 0, 71, 71
1, 11268, Control_c, 0, 64, 127
1, 11291, Note_on_c, 0, 74, 48
1, 11297, Note_off_c, 0, 71, 63
1, 11312, Control_c, 0, 67, 13
1, 11327, Control_c, 0, 67, 12
1, 11342, Control_c, 0, 67, 11
1, 11347, Note_on_c, 0, 64, 61
1, 11349, Note_off_c, 0, 74, 64
1, 11356, Note_on_c, 0, 78, 78
1, 11356, Control_c, 0, 67, 10
1, 11367, Note_on_c, 0, 62, 54
1, 11367, Note_off_c, 0, 64, 64
1, 11371, Control_c, 0, 67, 8
1, 11377, Note_off_c, 0, 78, 68
1, 11386, Control_c, 0, 67, 0
1, 11389, Note_off_c, 0, 62, 63
1, 11410, Note_on_c, 0, 88, 77
1, 11425, Note_off_c, 0, 88, 72
1, 11455, Note_on_c, 0, 57, 32
1, 11455, Note_on_c, 0, 78, 13
1, 11484, Note_on_c, 0, 88, 78
1, 11491, Note_on_c, 0, 50, 57
1, 11491, Note_off_c, 0, 57, 47
1, 11501, Note_off_c, 0, 78, 36
1, 11513, Note_off_c, 0, 88, 67
1, 11517, Note_off_c, 0, 50, 66
1, 11533, Note_on_c, 0, 45, 80
1, 11539, Note_on_c, 0, 100, 102
1, 11563, Note_off_c, 0, 45, 68
1, 11573, Note_off_c, 0, 100, 65
1, 11631, Control_c, 0, 64, 108
1, 11646, Control_c, 0, 64, 57
1, 11661, Control_c, 0, 64, 0
1, 11777, Note_on_c, 0, 88, 92
1, 11788, Note_on_c, 0, 76, 80
1, 11794, Note_on_c, 0, 64, 64
1, 11803, Note_on_c, 0, 74, 44
1, 11803, Note_off_c, 0, 76, 70
1, 11804, Note_off_c, 0, 88, 67
1, 11807, Note_on_c, 0, 71, 38
1, 11824, Note_off_c, 0, 64, 66
1, 11828, Note_off_c, 0, 74, 56
1, 11837, Note_off_c, 0, 71, 35
1, 12030, Note_on_c, 0, 76, 77
1, 12043, Note_on_c, 0, 62, 71
1, 12046, Control_c, 0, 64, 33
1, 12054, Note_on_c, 0, 66, 66
1, 12061, Control_c, 0, 64, 50
1, 12069, Note_off_c, 0, 62, 67
1, 12073, Note_off_c, 0, 66, 63
1, 12076, Control_c, 0, 64, 0
1, 12105, Control_c, 0, 67, 10
1, 12120, Control_c, 0, 67, 15
1, 12135, Control_c, 0, 67, 20
1, 12149, Control_c, 0, 67, 27
1, 12163, Note_on_c, 0, 64, 56
1, 12164, Control_c, 0, 67, 32
1, 12165, Note_on_c, 0, 69, 52
1, 12169, Note_on_c, 0, 72, 49
1, 12179, Control_c, 0, 67, 37
1, 12194, Control_c, 0, 67, 43
1, 12198, Note_off_c, 0, 72, 55
1, 12199, Note_off_c, 0, 64, 59
1, 12200, Note_off_c, 0, 69, 57
1, 12209, Control_c, 0, 67, 48
1, 12224, Control_c, 0, 67, 56
1, 12239, Control_c, 0, 67, 67
1, 12254, Control_c, 0, 67, 81
1, 12266, Note_on_c, 0, 50, 58
1, 12268, Note_on_c, 0, 62, 47
1, 12269, Control_c, 0, 67, 92
1, 12284, Control_c, 0, 67, 98
1, 12291, Note_off_c, 0, 50, 57
1, 12295, Note_off_c, 0, 62, 35
1, 12298, Control_c, 0, 67, 101
1, 12313, Control_c, 0, 67, 104
1, 12328, Control_c, 0, 67, 107
1, 12332, Note_off_c, 0, 76, 64
1, 12343, Control_c, 0, 67, 110
1, 12352, Note_on_c, 0, 72, 54
1, 12357, Control_c, 0, 67, 112
1, 12379, Control_c, 0, 67, 113
1, 12394, Control_c, 0, 67, 113
1, 12399, Note_off_c, 0, 72, 63
1, 12470, Note_on_c, 0, 76, 75
1, 12478, Note_on_c, 0, 45, 66
1, 12486, Note_on_c, 0, 66, 57
1, 12495, Note_on_c, 0, 72, 44
1, 12498, Note_on_c, 0, 69, 39
1, 12502, Note_off_c, 0, 76, 51
1, 12507, Note_off_c, 0, 45, 66
1, 12507, Note_off_c, 0, 66, 61
1, 12521, Note_off_c, 0, 72, 50
1, 12528, Note_off_c, 0, 69, 55
1, 12543, Control_c, 0, 67, 114
1, 12564, Note_on_c, 0, 76, 68
1, 12580, Note_on_c, 0, 69, 47
1, 12587, Control_c, 0, 67, 113
1, 12588, Note_on_c, 0, 72, 52
1, 12588, Note_off_c, 0, 76, 53
1, 12594, Note_on_c, 0, 66, 36
1, 12602, Control_c, 0, 67, 111
1, 12606, Note_off_c, 0, 69, 58
1, 12611, Note_off_c, 0, 72, 56
1, 12626, Note_off_c, 0, 66, 53
1, 12665, Note_on_c, 0, 76, 66
1, 12670, Note_on_c, 0, 57, 60
1, 12673, Note_on_c, 0, 62, 54
1, 12676, Note_on_c, 0, 69, 62
1, 12677, Control_c, 0, 67, 111
1, 12681, Note_on_c, 0, 72, 67
1, 12692, Control_c, 0, 67, 106
1, 12695, Note_off_c, 0, 69, 65
1, 12697, Note_off_c, 0, 62, 60
1, 12699, Note_off_c, 0, 72, 65
1, 12700, Note_off_c, 0, 57, 65
1, 12701, Note_off_c, 0, 76, 59
1, 12707, Control_c, 0, 67, 103
1, 12722, Control_c, 0, 67, 104
1, 12736, Control_c, 0, 67, 102
1, 12751, Control_c, 0, 67, 96
1, 12758, Note_on_c, 0, 69, 74
1, 12760, Note_on_c, 0, 66, 37
1, 12763, Note_on_c, 0, 76, 69
1, 12766, Control_c, 0, 67, 77
1, 12770, Note_on_c, 0, 72, 64
1, 12780, Control_c, 0, 67, 41
1, 12788, Note_off_c, 0, 69, 66
1, 12791, Note_off_c, 0, 66, 64
1, 12792, Note_off_c, 0, 76, 63
1, 12795, Control_c, 0, 67, 0
1, 12797, Note_off_c, 0, 72, 63
1, 12810, Control_c, 0, 64, 60
1, 12825, Control_c, 0, 64, 80
1, 12840, Control_c, 0, 64, 76
1, 12854, Control_c, 0, 64, 52
1, 12856, Note_on_c, 0, 76, 83
1, 12866, Note_on_c, 0, 74, 80
1, 12869, Note_on_c, 0, 62, 68
1, 12869, Control_c, 0, 64, 0
1, 12871, Note_on_c, 0, 64, 79
1, 12875, Note_on_c, 0, 67, 76
1, 12879, Note_on_c, 0, 71, 62
1, 12894, Note_off_c, 0, 76, 62
1, 12895, Note_off_c, 0, 74, 66
1, 12895, Note_off_c, 0, 62, 68
1, 12896, Note_off_c, 0, 71, 64
1, 12898, Note_off_c, 0, 64, 66
1, 12898, Note_off_c, 0, 67, 67
1, 12957, Note_on_c, 0, 64, 78
1, 12960, Note_on_c, 0, 71, 74
1, 12960, Note_on_c, 0, 74, 82
1, 12961, Note_on_c, 0, 76, 78
1, 12974, Note_off_c, 0, 64, 64
1, 12978, Note_off_c, 0, 71, 66
1, 12984, Note_off_c, 0, 76, 66
1, 12988, Note_off_c, 0, 74, 68
1, 13047, Note_on_c, 0, 76, 73
1, 13049, Note_on_c, 0, 64, 81
1, 13052, Note_on_c, 0, 71, 73
1, 13052, Note_on_c, 0, 74, 85
1, 13063, Note_on_c, 0, 50, 65
1, 13078, Note_off_c, 0, 71, 67
1, 13080, Note_off_c, 0, 64, 61
1, 13083, Note_off_c, 0, 76, 65
1, 13085, Note_off_c, 0, 74, 64
1, 13086, Note_off_c, 0, 50, 65
1, 13154, Note_on_c, 0, 76, 76
1, 13160, Note_on_c, 0, 71, 50
1, 13160, Note_on_c, 0, 64, 66
1, 13165, Note_on_c, 0, 74, 61
1, 13181, Note_off_c, 0, 64, 61
1, 13183, Note_off_c, 0, 71, 58
1, 13192, Note_off_c, 0, 74, 67
1, 13198, Note_off_c, 0, 76, 64
1, 13251, Note_on_c, 0, 76, 86
1, 13261, Control_c, 0, 64, 41
1, 13264, Note_on_c, 0, 45, 82
1, 13275, Note_on_c, 0, 67, 67
1, 13276, Control_c, 0, 64, 70
1, 13291, Control_c, 0, 64, 71
1, 13292, Note_off_c, 0, 45, 68
1, 13329, Note_off_c, 0, 67, 46
1, 13336, Note_off_c, 0, 76, 55
1, 13351, Control_c, 0, 64, 71
1, 13362, Note_on_c, 0, 74, 65
1, 13366, Control_c, 0, 64, 68
1, 13380, Control_c, 0, 64, 62
1, 13389, Note_off_c, 0, 74, 67
1, 13395, Control_c, 0, 64, 46
1, 13410, Control_c, 0, 64, 0
1, 13440, Control_c, 0, 67, 9
1, 13455, Control_c, 0, 67, 13
1, 13470, Control_c, 0, 67, 19
1, 13477, Note_on_c, 0, 78, 80
1, 13484, Control_c, 0, 67, 27
1, 13491, Note_on_c, 0, 69, 72
1, 13495, Note_on_c, 0, 57, 68
1, 13499, Control_c, 0, 67, 35
1, 13514, Control_c, 0, 67, 43
1, 13517, Note_off_c, 0, 69, 69
1, 13521, Note_off_c, 0, 78, 59
1, 13524, Note_off_c, 0, 57, 64
1, 13529, Control_c, 0, 67, 49
1, 13544, Control_c, 0, 67, 50
1, 13558, Control_c, 0, 67, 51
1, 13573, Control_c, 0, 67, 52
1, 13574, Note_on_c, 0, 79, 79
1, 13584, Note_on_c, 0, 71, 61
1, 13588, Control_c, 0, 67, 54
1, 13602, Control_c, 0, 67, 55
1, 13603, Note_off_c, 0, 71, 61
1, 13603, Note_off_c, 0, 79, 61
1, 13617, Control_c, 0, 67, 56
1, 13632, Control_c, 0, 67, 58
1, 13647, Control_c, 0, 67, 60
1, 13662, Control_c, 0, 67, 63
1, 13670, Note_on_c, 0, 78, 85
1, 13674, Note_on_c, 0, 72, 79
1, 13676, Control_c, 0, 67, 67
1, 13679, Note_on_c, 0, 66, 77
1, 13685, Note_on_c, 0, 62, 79
1, 13691, Control_c, 0, 67, 74
1, 13703, Note_off_c, 0, 72, 63
1, 13705, Note_off_c, 0, 66, 68
1, 13706, Control_c, 0, 67, 79
1, 13713, Note_off_c, 0, 62, 69
1, 13720, Note_off_c, 0, 78, 62
1, 13721, Control_c, 0, 67, 84
1, 13735, Control_c, 0, 67, 87
1, 13750, Control_c, 0, 67, 89
1, 13765, Control_c, 0, 67, 91
1, 13770, Note_on_c, 0, 69, 50
1, 13770, Note_on_c, 0, 76, 72
1, 13797, Note_off_c, 0, 69, 56
1, 13800, Note_off_c, 0, 76, 65
1, 13810, Control_c, 0, 67, 90
1, 13854, Control_c, 0, 67, 90
1, 13879, Note_on_c, 0, 81, 84
1, 13882, Note_on_c, 0, 50, 66
1, 13894, Note_on_c, 0, 72, 64
1, 13904, Note_off_c, 0, 81, 64
1, 13908, Note_off_c, 0, 50, 67
1, 13911, Note_off_c, 0, 72, 62
1, 13974, Note_on_c, 0, 79, 85
1, 13992, Note_on_c, 0, 69, 61
1, 13995, Control_c, 0, 67, 89
1, 14007, Note_off_c, 0, 79, 61
1, 14009, Control_c, 0, 67, 88
1, 14011, Note_off_c, 0, 69, 65
1, 14024, Control_c, 0, 67, 88
1, 14039, Control_c, 0, 67, 87
1, 14054, Control_c, 0, 67, 86
1, 14068, Note_on_c, 0, 78, 83
1, 14069, Control_c, 0, 64, 20
1, 14069, Control_c, 0, 67, 85
1, 14083, Note_on_c, 0, 45, 74
1, 14084, Control_c, 0, 64, 39
1, 14084, Control_c, 0, 67, 84
1, 14087, Note_on_c, 0, 72, 61
1, 14099, Control_c, 0, 64, 32
1, 14099, Control_c, 0, 67, 84
1, 14105, Note_off_c, 0, 72, 63
1, 14106, Note_off_c, 0, 45, 68
1, 14114, Control_c, 0, 64, 0
1, 14114, Control_c, 0, 67, 83
1, 14121, Note_off_c, 0, 78, 64
1, 14128, Control_c, 0, 67, 83
1, 14158, Control_c, 0, 67, 83
1, 14170, Note_on_c, 0, 76, 86
1, 14173, Control_c, 0, 67, 83
1, 14188, Control_c, 0, 67, 82
1, 14194, Note_on_c, 0, 69, 46
1, 14202, Control_c, 0, 67, 81
1, 14215, Note_off_c, 0, 76, 64
1, 14217, Control_c, 0, 67, 80
1, 14220, Note_off_c, 0, 69, 59
1, 14232, Control_c, 0, 67, 79
1, 14263, Control_c, 0, 67, 78
1, 14272, Note_on_c, 0, 79, 84
1, 14276, Note_on_c, 0, 72, 65
1, 14278, Control_c, 0, 67, 77
1, 14293, Note_on_c, 0, 62, 58
1, 14293, Control_c, 0, 67, 76
1, 14299, Note_on_c, 0, 57, 50
1, 14301, Note_on_c, 0, 69, 40
1, 14307, Control_c, 0, 67, 76
1, 14311, Note_off_c, 0, 72, 64
1, 14314, Note_off_c, 0, 62, 61
1, 14321, Note_off_c, 0, 79, 64
1, 14322, Control_c, 0, 67, 75
1, 14323, Note_off_c, 0, 57, 58
1, 14328, Note_off_c, 0, 69, 56
1, 14337, Control_c, 0, 67, 74
1, 14370, Note_on_c, 0, 78, 92
1, 14381, Control_c, 0, 67, 74
1, 14385, Note_on_c, 0, 69, 69
1, 14396, Control_c, 0, 67, 73
1, 14402, Note_off_c, 0, 69, 69
1, 14418, Note_off_c, 0, 78, 64
1, 14440, Control_c, 0, 67, 73
1, 14455, Control_c, 0, 67, 73
1, 14469, Note_on_c, 0, 76, 100
1, 14473, Note_on_c, 0, 62, 71
1, 14477, Note_on_c, 0, 71, 84
1, 14477, Note_on_c, 0, 67, 83
1, 14499, Control_c, 0, 67, 74
1, 14504, Note_off_c, 0, 67, 68
1, 14507, Note_off_c, 0, 62, 67
1, 14520, Note_off_c, 0, 71, 58
1, 14520, Note_off_c, 0, 76, 65
1, 14558, Control_c, 0, 67, 73
1, 14569, Note_on_c, 0, 74, 86
1, 14578, Note_on_c, 0, 71, 60
1, 14588, Control_c, 0, 67, 73
1, 14612, Note_off_c, 0, 74, 66
1, 14618, Control_c, 0, 67, 73
1, 14627, Note_off_c, 0, 71, 57
1, 14668, Note_on_c, 0, 76, 61
1, 14670, Control_c, 0, 67, 74
1, 14671, Note_on_c, 0, 50, 74
1, 14684, Note_on_c, 0, 74, 52
1, 14685, Control_c, 0, 67, 74
1, 14695, Poly_aftertouch_c, 0, 71, 127
1, 14700, Control_c, 0, 67, 75
1, 14701, Note_off_c, 0, 50, 66
1, 14707, Note_off_c, 0, 74, 59
1, 14713, Poly_aftertouch_c, 0, 71, 0
1, 14719, Note_off_c, 0, 76, 65
1, 14767, Note_on_c, 0, 79, 88
1, 14773, Control_c, 0, 67, 76
1, 14779, Note_on_c, 0, 74, 76
1, 14788, Control_c, 0, 67, 76
1, 14803, Control_c, 0, 67, 77
1, 14811, Note_off_c, 0, 74, 63
1, 14814, Note_off_c, 0, 79, 65
1, 14818, Control_c, 0, 67, 80
1, 14832, Control_c, 0, 67, 83
1, 14847, Control_c, 0, 67, 87
1, 14862, Control_c, 0, 67, 92
1, 14870, Note_on_c, 0, 78, 89
1, 14872, Note_on_c, 0, 74, 80
1, 14876, Note_on_c, 0, 45, 77
1, 14877, Control_c, 0, 67, 98
1, 14892, Control_c, 0, 67, 103
1, 14895, Note_off_c, 0, 45, 69
1, 14907, Note_off_c, 0, 74, 64
1, 14907, Control_c, 0, 67, 108
1, 14922, Control_c, 0, 67, 111
1, 14925, Note_off_c, 0, 78, 65
1, 14937, Control_c, 0, 67, 113
1, 14966, Note_on_c, 0, 76, 87
1, 14969, Note_on_c, 0, 71, 68
1, 14981, Control_c, 0, 67, 112
1, 15009, Note_off_c, 0, 71, 63
1, 15012, Note_off_c, 0, 76, 64
1, 15025, Control_c, 0, 67, 111
1, 15068, Note_on_c, 0, 78, 83
1, 15071, Control_c, 0, 67, 112
1, 15074, Note_on_c, 0, 74, 70
1, 15086, Note_on_c, 0, 69, 45
1, 15087, Note_on_c, 0, 57, 50
1, 15100, Note_off_c, 0, 74, 69
1, 15112, Note_off_c, 0, 69, 58
1, 15115, Note_off_c, 0, 57, 56
1, 15117, Note_off_c, 0, 78, 64
1, 15130, Control_c, 0, 67, 112
1, 15172, Note_on_c, 0, 79, 77
1, 15174, Note_on_c, 0, 71, 66
1, 15193, Note_off_c, 0, 71, 63
1, 15198, Note_off_c, 0, 79, 66
1, 15219, Control_c, 0, 67, 112
1, 15261, Note_on_c, 0, 78, 74
1, 15263, Control_c, 0, 64, 43
1, 15263, Control_c, 0, 67, 113
1, 15274, Note_on_c, 0, 66, 65
1, 15274, Note_on_c, 0, 72, 75
1, 15278, Control_c, 0, 64, 52
1, 15278, Control_c, 0, 67, 114
1, 15279, Note_on_c, 0, 62, 68
1, 15293, Control_c, 0, 64, 54
1, 15293, Control_c, 0, 67, 114
1, 15300, Note_off_c, 0, 72, 66
1, 15300, Note_off_c, 0, 66, 67
1, 15304, Note_off_c, 0, 62, 68
1, 15308, Control_c, 0, 64, 54
1, 15308, Control_c, 0, 67, 115
1, 15316, Note_off_c, 0, 78, 64
1, 15322, Control_c, 0, 64, 51
1, 15322, Control_c, 0, 67, 117
1, 15337, Control_c, 0, 64, 0
1, 15337, Control_c, 0, 67, 119
1, 15352, Control_c, 0, 67, 122
1, 15359, Note_on_c, 0, 76, 82
1, 15364, Note_on_c, 0, 69, 62
1, 15374, Control_c, 0, 67, 124
1, 15389, Control_c, 0, 67, 125
1, 15399, Note_off_c, 0, 69, 68
1, 15409, Note_off_c, 0, 76, 61
1, 15434, Control_c, 0, 67, 125
1, 15471, Note_on_c, 0, 81, 83
1, 15473, Note_on_c, 0, 50, 70
1, 15478, Control_c, 0, 67, 126
1, 15484, Note_on_c, 0, 72, 65
1, 15493, Control_c, 0, 67, 127
1, 15497, Note_off_c, 0, 50, 68
1, 15499, Note_off_c, 0, 81, 61
1, 15501, Note_off_c, 0, 72, 64
1, 15507, Control_c, 0, 67, 127
1, 15564, Note_on_c, 0, 79, 88
1, 15574, Note_on_c, 0, 69, 57
1, 15577, Note_on_c, 0, 72, 54
1, 15598, Note_off_c, 0, 72, 39
1, 15601, Note_off_c, 0, 69, 57
1, 15604, Note_off_c, 0, 79, 64
1, 15661, Note_on_c, 0, 78, 86
1, 15669, Note_on_c, 0, 72, 76
1, 15685, Note_on_c, 0, 45, 65
1, 15685, Control_c, 0, 64, 39
1, 15698, Note_off_c, 0, 72, 63
1, 15700, Control_c, 0, 64, 57
1, 15706, Note_off_c, 0, 45, 63
1, 15715, Control_c, 0, 64, 59
1, 15717, Note_off_c, 0, 78, 65
1, 15729, Control_c, 0, 64, 55
1, 15744, Control_c, 0, 64, 0
1, 15763, Note_on_c, 0, 72, 63
1, 15772, Note_on_c, 0, 76, 74
1, 15781, Note_off_c, 0, 72, 63
1, 15796, Note_on_c, 0, 75, 12
1, 15801, Note_off_c, 0, 76, 65
1, 15807, Note_on_c, 0, 69, 21
1, 15840, Note_off_c, 0, 75, 28
1, 15846, Note_off_c, 0, 69, 30
1, 15864, Note_on_c, 0, 79, 84
1, 15867, Note_on_c, 0, 72, 78
1, 15898, Note_off_c, 0, 72, 64
1, 15899, Note_on_c, 0, 57, 43
1, 15900, Note_on_c, 0, 62, 39
1, 15912, Note_off_c, 0, 79, 64
1, 15929, Note_off_c, 0, 57, 50
1, 15932, Note_off_c, 0, 62, 33
1, 15960, Note_on_c, 0, 78, 90
1, 15967, Note_on_c, 0, 69, 74
1, 15994, Note_off_c, 0, 69, 68
1, 16011, Note_off_c, 0, 78, 64
1, 16057, Control_c, 0, 64, 60
1, 16060, Note_on_c, 0, 76, 94
1, 16069, Note_on_c, 0, 71, 77
1, 16070, Note_on_c, 0, 62, 63
1, 16071, Control_c, 0, 64, 67
1, 16075, Note_on_c, 0, 67, 73
1, 16086, Control_c, 0, 64, 68
1, 16099, Note_off_c, 0, 71, 60
1, 16100, Note_off_c, 0, 67, 67
1, 16101, Note_off_c, 0, 62, 67
1, 16101, Control_c, 0, 64, 72
1, 16107, Note_off_c, 0, 76, 64
1, 16123, Control_c, 0, 64, 82
1, 16123, Control_c, 0, 67, 125
1, 16138, Control_c, 0, 64, 104
1, 16138, Control_c, 0, 67, 123
1, 16153, Control_c, 0, 64, 127
1, 16153, Control_c, 0, 67, 123
1, 16165, Note_on_c, 0, 74, 92
1, 16168, Control_c, 0, 67, 122
1, 16185, Note_on_c, 0, 71, 62
1, 16197, Control_c, 0, 67, 121
1, 16203, Note_off_c, 0, 71, 62
1, 16205, Note_off_c, 0, 74, 66
1, 16212, Control_c, 0, 67, 121
1, 16242, Control_c, 0, 67, 123
1, 16254, Note_on_c, 0, 50, 76
1, 16257, Control_c, 0, 64, 72
1, 16257, Control_c, 0, 67, 127
1, 16263, Note_on_c, 0, 76, 88
1, 16272, Control_c, 0, 64, 0
1, 16272, Note_on_c, 0, 71, 66
1, 16285, Note_off_c, 0, 50, 67
1, 16291, Note_off_c, 0, 71, 59
1, 16306, Note_off_c, 0, 76, 64
1, 16358, Note_on_c, 0, 78, 86
1, 16382, Poly_aftertouch_c, 0, 74, 127
1, 16392, Poly_aftertouch_c, 0, 74, 0
1, 16401, Note_off_c, 0, 78, 61
1, 16449, Control_c, 0, 64, 45
1, 16458, Note_on_c, 0, 76, 90
1, 16464, Control_c, 0, 64, 59
1, 16467, Note_on_c, 0, 45, 79
1, 16478, Control_c, 0, 64, 53
1, 16481, Note_on_c, 0, 75, 36
1, 16484, Note_on_c, 0, 67, 49
1, 16487, Note_off_c, 0, 45, 68
1, 16493, Control_c, 0, 64, 0
1, 16499, Note_off_c, 0, 76, 65
1, 16502, Note_off_c, 0, 75, 36
1, 16510, Note_off_c, 0, 67, 57
1, 16553, Note_on_c, 0, 78, 93
1, 16563, Note_on_c, 0, 71, 69
1, 16591, Note_off_c, 0, 71, 67
1, 16602, Note_off_c, 0, 78, 64
1, 16658, Note_on_c, 0, 69, 77
1, 16659, Note_on_c, 0, 79, 79
1, 16659, Note_on_c, 0, 74, 81
1, 16662, Note_on_c, 0, 57, 69
1, 16683, Note_off_c, 0, 69, 69
1, 16689, Note_off_c, 0, 57, 66
1, 16695, Note_off_c, 0, 74, 66
1, 16695, Note_off_c, 0, 79, 61
1, 16742, Note_on_c, 0, 78, 74
1, 16746, Note_on_c, 0, 71, 70
1, 16785, Note_off_c, 0, 71, 61
1, 16791, Note_off_c, 0, 78, 64
1, 16835, Control_c, 0, 64, 45
1, 16844, Note_on_c, 0, 76, 88
1, 16846, Note_on_c, 0, 72, 90
1, 16850, Note_on_c, 0, 66, 63
1, 16850, Control_c, 0, 64, 60
1, 16852, Note_on_c, 0, 62, 69
1, 16878, Note_off_c, 0, 66, 65
1, 16883, Note_off_c, 0, 72, 65
1, 16886, Note_off_c, 0, 62, 68
1, 16896, Note_off_c, 0, 76, 65
1, 16901, Control_c, 0, 64, 63
1, 16916, Control_c, 0, 64, 67
1, 16931, Control_c, 0, 64, 73
1, 16946, Control_c, 0, 64, 80
1, 16946, Control_c, 0, 67, 125
1, 16952, Note_on_c, 0, 74, 79
1, 16961, Control_c, 0, 64, 86
1, 16961, Control_c, 0, 67, 124
1, 16962, Note_on_c, 0, 69, 61
1, 16975, Control_c, 0, 64, 92
1, 16975, Control_c, 0, 67, 123
1, 16984, Note_off_c, 0, 69, 65
1, 16990, Control_c, 0, 64, 104
1, 16990, Control_c, 0, 67, 121
1, 16991, Note_off_c, 0, 74, 62
1, 17005, Control_c, 0, 64, 127
1, 17005, Control_c, 0, 67, 119
1, 17020, Control_c, 0, 67, 117
1, 17034, Poly_aftertouch_c, 0, 72, 0
1, 17035, Control_c, 0, 67, 118
1, 17039, Note_on_c, 0, 50, 76
1, 17046, Note_on_c, 0, 76, 87
1, 17050, Control_c, 0, 67, 120
1, 17057, Note_on_c, 0, 72, 16
1, 17065, Control_c, 0, 67, 123
1, 17072, Note_off_c, 0, 50, 68
1, 17080, Control_c, 0, 64, 84
1, 17080, Control_c, 0, 67, 124
1, 17082, Note_off_c, 0, 72, 57
1, 17082, Note_off_c, 0, 76, 61
1, 17094, Control_c, 0, 64, 47
1, 17094, Control_c, 0, 67, 126
1, 17109, Control_c, 0, 64, 0
1, 17109, Control_c, 0, 67, 127
1, 17139, Note_on_c, 0, 78, 88
1, 17150, Note_on_c, 0, 69, 60
1, 17172, Note_off_c, 0, 69, 62
1, 17185, Note_off_c, 0, 78, 63
1, 17241, Note_on_c, 0, 79, 88
1, 17244, Note_on_c, 0, 69, 69
1, 17249, Note_on_c, 0, 45, 72
1, 17252, Note_on_c, 0, 72, 62
1, 17265, Note_on_c, 0, 78, 34
1, 17274, Note_off_c, 0, 45, 67
1, 17280, Note_off_c, 0, 72, 65
1, 17282, Note_off_c, 0, 79, 65
1, 17284, Note_off_c, 0, 69, 55
1, 17297, Note_off_c, 0, 78, 41
1, 17337, Note_on_c, 0, 78, 87
1, 17354, Note_on_c, 0, 69, 38
1, 17387, Note_off_c, 0, 69, 55
1, 17393, Note_off_c, 0, 78, 64
1, 17437, Note_on_c, 0, 62, 74
1, 17439, Note_on_c, 0, 57, 74
1, 17440, Note_on_c, 0, 76, 89
1, 17462, Note_off_c, 0, 62, 68
1, 17467, Note_off_c, 0, 57, 66
1, 17506, Note_off_c, 0, 76, 54
1, 17524, Note_on_c, 0, 74, 87
1, 17563, Note_off_c, 0, 74, 65
1, 17613, Control_c, 0, 67, 123
1, 17630, Note_on_c, 0, 62, 83
1, 17632, Note_on_c, 0, 67, 86
1, 17632, Note_on_c, 0, 71, 89
1, 17636, Control_c, 0, 64, 15
1, 17636, Control_c, 0, 67, 112
1, 17639, Note_on_c, 0, 76, 87
1, 17650, Control_c, 0, 64, 64
1, 17650, Control_c, 0, 67, 100
1, 17665, Control_c, 0, 64, 74
1, 17665, Control_c, 0, 67, 88
1, 17680, Control_c, 0, 64, 84
1, 17680, Control_c, 0, 67, 71
1, 17688, Note_on_c, 0, 78, 75
1, 17688, Note_off_c, 0, 76, 64
1, 17695, Control_c, 0, 64, 110
1, 17695, Control_c, 0, 67, 44
1, 17709, Control_c, 0, 64, 127
1, 17709, Control_c, 0, 67, 0
1, 17716, Note_off_c, 0, 78, 65
1, 17729, Note_on_c, 0, 79, 78
1, 17746, Note_off_c, 0, 71, 64
1, 17783, Note_on_c, 0, 81, 74
1, 17785, Note_off_c, 0, 79, 66
1, 17804, Note_off_c, 0, 81, 67
1, 17819, Note_on_c, 0, 69, 89
1, 17825, Note_off_c, 0, 67, 63
1, 17842, Note_on_c, 0, 83, 87
1, 17843, Note_off_c, 0, 69, 68
1, 17844, Note_off_c, 0, 62, 67
1, 17879, Note_on_c, 0, 84, 73
1, 17907, Note_off_c, 0, 83, 64
1, 17908, Note_on_c, 0, 86, 82
1, 17947, Control_c, 0, 67, 21
1, 17948, Note_on_c, 0, 88, 82
1, 17950, Note_off_c, 0, 84, 66
1, 17962, Control_c, 0, 67, 38
1, 17964, Note_off_c, 0, 86, 65
1, 17976, Control_c, 0, 67, 66
1, 17987, Note_off_c, 0, 88, 68
1, 17991, Control_c, 0, 67, 97
1, 18006, Control_c, 0, 67, 121
1, 18021, Control_c, 0, 64, 80
1, 18021, Control_c, 0, 67, 127
1, 18036, Control_c, 0, 64, 49
1, 18050, Control_c, 0, 64, 0
1, 18078, Note_on_c, 0, 50, 65
1, 18081, Note_on_c, 0, 60, 61
1, 18081, Note_on_c, 0, 90, 69
1, 18090, Note_on_c, 0, 52, 48
1, 18102, Note_off_c, 0, 60, 60
1, 18108, Note_off_c, 0, 50, 66
1, 18118, Note_off_c, 0, 52, 54
1, 18135, Note_off_c, 0, 90, 63
1, 18176, Note_on_c, 0, 88, 70
1, 18219, Note_off_c, 0, 88, 65
1, 18279, Note_on_c, 0, 62, 65
1, 18280, Note_on_c, 0, 90, 77
1, 18282, Note_on_c, 0, 54, 60
1, 18283, Note_on_c, 0, 57, 56
1, 18283, Note_on_c, 0, 78, 59
1, 18293, Note_on_c, 0, 48, 44
1, 18304, Note_off_c, 0, 62, 66
1, 18308, Note_off_c, 0, 57, 58
1, 18310, Note_off_c, 0, 54, 66
1, 18311, Note_off_c, 0, 78, 65
1, 18317, Note_off_c, 0, 90, 58
1, 18323, Note_off_c, 0, 48, 49
1, 18379, Note_on_c, 0, 91, 84
1, 18418, Note_on_c, 0, 79, 31
1, 18418, Note_off_c, 0, 91, 66
1, 18454, Note_off_c, 0, 79, 32
1, 18477, Note_on_c, 0, 60, 64
1, 18481, Note_on_c, 0, 55, 58
1, 18482, Note_on_c, 0, 90, 83
1, 18488, Note_on_c, 0, 50, 48
1, 18491, Note_on_c, 0, 78, 67
1, 18505, Note_off_c, 0, 55, 61
1, 18506, Note_off_c, 0, 60, 64
1, 18508, Note_off_c, 0, 78, 67
1, 18514, Note_off_c, 0, 50, 58
1, 18535, Note_off_c, 0, 90, 60
1, 18582, Note_on_c, 0, 88, 66
1, 18585, Note_on_c, 0, 89, 60
1, 18603, Note_off_c, 0, 89, 67
1, 18608, Note_off_c, 0, 88, 69
1, 18667, Note_on_c, 0, 93, 87
1, 18683, Note_on_c, 0, 52, 55
1, 18684, Note_on_c, 0, 62, 69
1, 18688, Note_on_c, 0, 58, 57
1, 18695, Note_on_c, 0, 81, 44
1, 18701, Note_off_c, 0, 93, 64
1, 18710, Note_on_c, 0, 48, 16
1, 18717, Note_off_c, 0, 58, 67
1, 18719, Note_off_c, 0, 62, 68
1, 18721, Note_off_c, 0, 81, 50
1, 18728, Note_off_c, 0, 52, 65
1, 18756, Note_off_c, 0, 48, 28
1, 18773, Note_on_c, 0, 91, 80
1, 18798, Note_off_c, 0, 91, 68
1, 18808, Note_on_c, 0, 79, 32
1, 18839, Note_off_c, 0, 79, 45
1, 18870, Note_on_c, 0, 90, 77
1, 18873, Note_on_c, 0, 60, 64
1, 18874, Note_on_c, 0, 52, 56
1, 18877, Note_on_c, 0, 50, 57
1, 18884, Note_on_c, 0, 78, 51
1, 18887, Note_on_c, 0, 55, 45
1, 18895, Note_off_c, 0, 90, 67
1, 18902, Note_off_c, 0, 60, 65
1, 18907, Note_off_c, 0, 78, 60
1, 18913, Note_off_c, 0, 50, 65
1, 18913, Note_off_c, 0, 52, 61
1, 18917, Note_off_c, 0, 55, 34
1, 18963, Note_on_c, 0, 88, 81
1, 18989, Note_off_c, 0, 88, 68
1, 19066, Note_on_c, 0, 91, 80
1, 19079, Note_on_c, 0, 62, 71
1, 19082, Control_c, 0, 64, 33
1, 19083, Note_on_c, 0, 54, 64
1, 19090, Note_on_c, 0, 48, 52
1, 19091, Note_on_c, 0, 57, 53
1, 19096, Note_off_c, 0, 91, 65
1, 19096, Control_c, 0, 64, 40
1, 19101, Note_on_c, 0, 79, 27
1, 19119, Control_c, 0, 64, 0
1, 19120, Note_off_c, 0, 62, 64
1, 19122, Note_off_c, 0, 57, 61
1, 19125, Note_off_c, 0, 48, 60
1, 19129, Note_off_c, 0, 54, 65
1, 19142, Note_off_c, 0, 79, 36
1, 19172, Note_on_c, 0, 90, 78
1, 19187, Note_on_c, 0, 78, 54
1, 19193, Note_off_c, 0, 90, 72
1, 19209, Note_off_c, 0, 78, 60
1, 19271, Note_on_c, 0, 88, 77
1, 19275, Note_on_c, 0, 60, 63
1, 19280, Note_on_c, 0, 50, 59
1, 19283, Note_on_c, 0, 55, 54
1, 19297, Note_off_c, 0, 88, 68
1, 19300, Note_on_c, 0, 76, 31
1, 19307, Note_off_c, 0, 55, 60
1, 19310, Note_off_c, 0, 60, 60
1, 19313, Note_off_c, 0, 50, 65
1, 19336, Note_off_c, 0, 76, 42
1, 19372, Note_on_c, 0, 86, 75
1, 19396, Note_off_c, 0, 86, 68
1, 19408, Note_on_c, 0, 74, 16
1, 19450, Note_off_c, 0, 74, 39
1, 19470, Note_on_c, 0, 62, 75
1, 19473, Note_on_c, 0, 58, 67
1, 19473, Note_on_c, 0, 88, 83
1, 19482, Note_on_c, 0, 52, 66
1, 19483, Note_on_c, 0, 48, 44
1, 19488, Note_on_c, 0, 76, 49
1, 19493, Note_off_c, 0, 88, 71
1, 19506, Note_off_c, 0, 58, 68
1, 19512, Note_off_c, 0, 76, 58
1, 19513, Note_off_c, 0, 48, 55
1, 19513, Note_off_c, 0, 62, 63
1, 19518, Note_off_c, 0, 52, 66
1, 19563, Note_on_c, 0, 90, 84
1, 19591, Note_off_c, 0, 90, 64
1, 19671, Note_on_c, 0, 88, 86
1, 19673, Note_on_c, 0, 60, 85
1, 19679, Note_on_c, 0, 52, 80
1, 19682, Control_c, 0, 64, 22
1, 19684, Note_on_c, 0, 50, 74
1, 19685, Note_on_c, 0, 55, 67
1, 19686, Note_on_c, 0, 76, 51
1, 19696, Control_c, 0, 64, 57
1, 19697, Note_off_c, 0, 88, 67
1, 19709, Note_off_c, 0, 55, 66
1, 19709, Note_off_c, 0, 76, 57
1, 19711, Control_c, 0, 64, 49
1, 19721, Note_off_c, 0, 60, 63
1, 19724, Note_off_c, 0, 52, 62
1, 19726, Control_c, 0, 64, 0
1, 19727, Note_off_c, 0, 50, 61
1, 19765, Note_on_c, 0, 90, 91
1, 19798, Note_off_c, 0, 90, 57
1, 19845, Control_c, 0, 67, 126
1, 19867, Control_c, 0, 67, 122
1, 19874, Note_on_c, 0, 91, 91
1, 19882, Note_on_c, 0, 79, 74
1, 19882, Control_c, 0, 64, 56
1, 19882, Control_c, 0, 67, 119
1, 19884, Note_on_c, 0, 62, 85
1, 19891, Note_on_c, 0, 57, 74
1, 19891, Note_on_c, 0, 54, 74
1, 19897, Note_on_c, 0, 48, 64
1, 19897, Control_c, 0, 64, 64
1, 19897, Control_c, 0, 67, 118
1, 19909, Note_off_c, 0, 79, 67
1, 19912, Control_c, 0, 64, 63
1, 19912, Control_c, 0, 67, 117
1, 19914, Note_off_c, 0, 91, 61
1, 19927, Control_c, 0, 64, 56
1, 19927, Control_c, 0, 67, 119
1, 19928, Note_off_c, 0, 57, 62
1, 19933, Note_off_c, 0, 48, 62
1, 19938, Note_off_c, 0, 62, 65
1, 19941, Control_c, 0, 64, 18
1, 19941, Control_c, 0, 67, 122
1, 19947, Note_off_c, 0, 54, 64
1, 19956, Control_c, 0, 64, 0
1, 19956, Control_c, 0, 67, 123
1, 19971, Note_on_c, 0, 90, 88
1, 19971, Control_c, 0, 67, 122
1, 20010, Note_off_c, 0, 90, 63
1, 20016, Control_c, 0, 67, 122
1, 20045, Control_c, 0, 67, 121
1, 20060, Control_c, 0, 67, 121
1, 20074, Note_on_c, 0, 88, 82
1, 20075, Control_c, 0, 67, 120
1, 20079, Note_on_c, 0, 60, 81
1, 20085, Note_on_c, 0, 76, 66
1, 20087, Note_on_c, 0, 50, 67
1, 20088, Note_on_c, 0, 55, 66
1, 20101, Note_on_c, 0, 57, 47
1, 20105, Note_off_c, 0, 76, 63
1, 20114, Note_off_c, 0, 88, 62
1, 20114, Note_off_c, 0, 55, 66
1, 20123, Note_off_c, 0, 50, 68
1, 20125, Note_off_c, 0, 60, 57
1, 20129, Note_off_c, 0, 57, 35
1, 20134, Control_c, 0, 67, 119
1, 20149, Control_c, 0, 67, 117
1, 20164, Control_c, 0, 67, 115
1, 20169, Note_on_c, 0, 86, 83
1, 20178, Control_c, 0, 67, 112
1, 20193, Control_c, 0, 67, 109
1, 20204, Note_off_c, 0, 86, 61
1, 20208, Control_c, 0, 67, 106
1, 20223, Control_c, 0, 67, 101
1, 20238, Control_c, 0, 67, 93
1, 20252, Control_c, 0, 67, 85
1, 20264, Note_on_c, 0, 88, 87
1, 20267, Control_c, 0, 67, 77
1, 20272, Note_on_c, 0, 62, 93
1, 20278, Note_on_c, 0, 58, 80
1, 20281, Note_on_c, 0, 76, 54
1, 20282, Control_c, 0, 64, 56
1, 20282, Control_c, 0, 67, 69
1, 20284, Note_on_c, 0, 52, 77
1, 20285, Note_on_c, 0, 48, 64
1, 20296, Control_c, 0, 64, 77
1, 20296, Control_c, 0, 67, 60
1, 20302, Note_off_c, 0, 76, 60
1, 20306, Note_off_c, 0, 88, 68
1, 20311, Control_c, 0, 64, 82
1, 20311, Control_c, 0, 67, 45
1, 20319, Note_off_c, 0, 48, 64
1, 20323, Note_off_c, 0, 58, 65
1, 20326, Control_c, 0, 64, 82
1, 20326, Control_c, 0, 67, 25
1, 20332, Note_off_c, 0, 62, 64
1, 20341, Note_off_c, 0, 52, 64
1, 20341, Control_c, 0, 67, 11
1, 20356, Control_c, 0, 67, 0
1, 20361, Note_on_c, 0, 90, 90
1, 20401, Control_c, 0, 64, 81
1, 20405, Note_off_c, 0, 90, 64
1, 20415, Control_c, 0, 64, 76
1, 20430, Control_c, 0, 64, 69
1, 20445, Control_c, 0, 64, 62
1, 20458, Note_on_c, 0, 91, 92
1, 20460, Control_c, 0, 64, 52
1, 20464, Note_on_c, 0, 79, 80
1, 20465, Note_on_c, 0, 60, 81
1, 20467, Note_on_c, 0, 52, 71
1, 20474, Note_on_c, 0, 50, 64
1, 20475, Control_c, 0, 64, 49
1, 20475, Note_on_c, 0, 55, 65
1, 20489, Control_c, 0, 64, 55
1, 20490, Note_off_c, 0, 79, 67
1, 20499, Note_off_c, 0, 91, 65
1, 20501, Note_off_c, 0, 60, 59
1, 20502, Note_off_c, 0, 55, 66
1, 20504, Note_off_c, 0, 52, 66
1, 20504, Control_c, 0, 64, 63
1, 20509, Note_off_c, 0, 50, 66
1, 20519, Control_c, 0, 64, 66
1, 20534, Control_c, 0, 64, 67
1, 20549, Control_c, 0, 64, 65
1, 20554, Note_on_c, 0, 90, 91
1, 20563, Control_c, 0, 64, 57
1, 20578, Control_c, 0, 64, 30
1, 20585, Note_off_c, 0, 90, 66
1, 20593, Control_c, 0, 64, 0
1, 20660, Note_on_c, 0, 88, 92
1, 20665, Note_on_c, 0, 62, 80
1, 20666, Note_on_c, 0, 57, 73
1, 20666, Note_on_c, 0, 76, 76
1, 20672, Note_on_c, 0, 54, 69
1, 20675, Note_on_c, 0, 48, 64
1, 20693, Note_off_c, 0, 76, 65
1, 20699, Note_off_c, 0, 57, 67
1, 20705, Note_off_c, 0, 88, 65
1, 20708, Note_off_c, 0, 48, 64
1, 20716, Note_off_c, 0, 62, 64
1, 20719, Note_off_c, 0, 54, 63
1, 20754, Note_on_c, 0, 86, 86
1, 20795, Note_on_c, 0, 84, 29
1, 20803, Note_off_c, 0, 86, 65
1, 20829, Note_off_c, 0, 84, 36
1, 20852, Note_on_c, 0, 62, 95
1, 20852, Note_on_c, 0, 88, 91
1, 20856, Note_on_c, 0, 52, 91
1, 20858, Note_on_c, 0, 57, 88
1, 20860, Note_on_c, 0, 59, 82
1, 20868, Control_c, 0, 64, 50
1, 20876, Note_on_c, 0, 76, 45
1, 20883, Control_c, 0, 64, 99
1, 20884, Note_off_c, 0, 59, 68
1, 20892, Note_off_c, 0, 88, 67
1, 20898, Control_c, 0, 64, 127
1, 20902, Note_off_c, 0, 76, 54
1, 20910, Note_off_c, 0, 57, 63
1, 20920, Note_off_c, 0, 52, 63
1, 20922, Note_off_c, 0, 62, 63
1, 20944, Note_on_c, 0, 90, 93
1, 20961, Note_on_c, 0, 78, 63
1, 20979, Note_off_c, 0, 78, 65
1, 20996, Note_off_c, 0, 90, 64
1, 21038, Note_on_c, 0, 92, 96
1, 21049, Note_on_c, 0, 50, 69
1, 21049, Note_on_c, 0, 80, 78
1, 21050, Note_on_c, 0, 64, 79
1, 21053, Note_on_c, 0, 59, 56
1, 21055, Note_on_c, 0, 56, 71
1, 21077, Note_off_c, 0, 80, 62
1, 21080, Note_off_c, 0, 50, 59
1, 21083, Note_off_c, 0, 59, 67
1, 21090, Note_off_c, 0, 56, 64
1, 21092, Note_off_c, 0, 92, 66
1, 21097, Note_off_c, 0, 64, 63
1, 21137, Note_on_c, 0, 93, 102
1, 21149, Control_c, 0, 67, 17
1, 21150, Note_on_c, 0, 81, 77
1, 21164, Control_c, 0, 67, 32
1, 21170, Note_off_c, 0, 81, 68
1, 21179, Note_off_c, 0, 93, 65
1, 21179, Control_c, 0, 67, 50
1, 21193, Control_c, 0, 67, 74
1, 21208, Control_c, 0, 64, 113
1, 21208, Control_c, 0, 67, 100
1, 21223, Control_c, 0, 64, 88
1, 21223, Control_c, 0, 67, 125
1, 21238, Control_c, 0, 64, 57
1, 21238, Control_c, 0, 67, 127
1, 21241, Note_on_c, 0, 59, 39
1, 21241, Note_on_c, 0, 94, 90
1, 21241, Note_on_c, 0, 64, 65
1, 21253, Note_on_c, 0, 56, 65
1, 21253, Control_c, 0, 64, 0
1, 21259, Note_on_c, 0, 54, 59
1, 21265, Note_on_c, 0, 82, 47
1, 21274, Note_off_c, 0, 59, 65
1, 21283, Note_off_c, 0, 64, 61
1, 21285, Note_off_c, 0, 94, 62
1, 21289, Note_off_c, 0, 56, 64
1, 21291, Note_off_c, 0, 82, 56
1, 21298, Note_off_c, 0, 54, 64
1, 21339, Note_on_c, 0, 92, 87
1, 21386, Note_off_c, 0, 92, 63
1, 21450, Note_on_c, 0, 66, 69
1, 21450, Note_on_c, 0, 94, 84
1, 21461, Note_on_c, 0, 82, 59
1, 21462, Note_on_c, 0, 61, 58
1, 21471, Note_on_c, 0, 52, 41
1, 21483, Note_off_c, 0, 82, 65
1, 21486, Note_off_c, 0, 94, 58
1, 21494, Note_on_c, 0, 58, 23
1, 21495, Note_off_c, 0, 61, 64
1, 21499, Note_off_c, 0, 52, 56
1, 21500, Note_off_c, 0, 66, 60
1, 21533, Note_off_c, 0, 58, 30
1, 21541, Note_on_c, 0, 95, 85
1, 21572, Note_on_c, 0, 83, 44
1, 21582, Note_off_c, 0, 95, 67
1, 21600, Note_off_c, 0, 83, 49
1, 21644, Note_on_c, 0, 64, 64
1, 21645, Note_on_c, 0, 94, 85
1, 21655, Note_on_c, 0, 61, 53
1, 21658, Note_on_c, 0, 54, 64
1, 21663, Note_on_c, 0, 59, 46
1, 21678, Note_off_c, 0, 61, 62
1, 21678, Note_off_c, 0, 64, 64
1, 21681, Note_on_c, 0, 82, 32
1, 21685, Note_off_c, 0, 94, 59
1, 21689, Note_off_c, 0, 59, 53
1, 21694, Note_off_c, 0, 54, 66
1, 21711, Note_off_c, 0, 82, 45
1, 21739, Note_on_c, 0, 92, 88
1, 21766, Note_off_c, 0, 92, 64
1, 21795, Control_c, 0, 64, 60
1, 21809, Control_c, 0, 64, 75
1, 21813, Note_on_c, 0, 52, 31
1, 21824, Control_c, 0, 64, 92
1, 21837, Note_on_c, 0, 97, 91
1, 21839, Control_c, 0, 64, 127
1, 21839, Control_c, 0, 67, 127
1, 21844, Note_on_c, 0, 62, 71
1, 21849, Note_on_c, 0, 85, 75
1, 21854, Control_c, 0, 67, 126
1, 21861, Note_on_c, 0, 66, 80
1, 21864, Note_off_c, 0, 52, 61
1, 21869, Control_c, 0, 67, 127
1, 21872, Note_off_c, 0, 85, 68
1, 21873, Note_off_c, 0, 97, 67
1, 21876, Note_off_c, 0, 62, 68
1, 21888, Note_off_c, 0, 66, 68
1, 21928, Control_c, 0, 67, 127
1, 21936, Note_on_c, 0, 95, 94
1, 21953, Note_on_c, 0, 83, 79
1, 21972, Control_c, 0, 64, 78
1, 21974, Note_off_c, 0, 95, 67
1, 21976, Note_off_c, 0, 83, 70
1, 21987, Control_c, 0, 64, 54
1, 22002, Poly_aftertouch_c, 0, 85, 0
1, 22002, Control_c, 0, 64, 0
1, 22039, Note_on_c, 0, 94, 102
1, 22042, Note_on_c, 0, 82, 87
1, 22043, Note_on_c, 0, 64, 75
1, 22046, Note_on_c, 0, 59, 67
1, 22053, Note_on_c, 0, 56, 64
1, 22056, Note_on_c, 0, 54, 70
1, 22067, Note_off_c, 0, 82, 66
1, 22076, Note_off_c, 0, 94, 60
1, 22076, Control_c, 0, 64, 39
1, 22076, Control_c, 0, 67, 126
1, 22080, Note_off_c, 0, 64, 63
1, 22082, Note_off_c, 0, 59, 69
1, 22089, Note_off_c, 0, 56, 63
1, 22090, Note_off_c, 0, 54, 65
1, 22091, Control_c, 0, 64, 68
1, 22091, Control_c, 0, 67, 123
1, 22106, Control_c, 0, 64, 83
1, 22106, Control_c, 0, 67, 118
1, 22128, Control_c, 0, 64, 100
1, 22128, Control_c, 0, 67, 116
1, 22138, Note_on_c, 0, 92, 91
1, 22142, Control_c, 0, 64, 116
1, 22157, Control_c, 0, 64, 127
1, 22157, Control_c, 0, 67, 115
1, 22172, Control_c, 0, 67, 114
1, 22179, Note_off_c, 0, 92, 67
1, 22202, Control_c, 0, 64, 105
1, 22202, Control_c, 0, 67, 116
1, 22214, Note_on_c, 0, 52, 42
1, 22216, Control_c, 0, 64, 72
1, 22216, Control_c, 0, 67, 121
1, 22231, Control_c, 0, 64, 20
1, 22231, Control_c, 0, 67, 126
1, 22232, Note_on_c, 0, 95, 93
1, 22243, Note_on_c, 0, 61, 71
1, 22246, Note_on_c, 0, 66, 80
1, 22247, Note_on_c, 0, 58, 58
1, 22247, Control_c, 0, 64, 0
1, 22247, Control_c, 0, 67, 127
1, 22252, Note_off_c, 0, 52, 57
1, 22260, Note_on_c, 0, 83, 57
1, 22268, Note_off_c, 0, 95, 69
1, 22279, Note_off_c, 0, 83, 63
1, 22283, Note_off_c, 0, 61, 61
1, 22284, Note_off_c, 0, 58, 65
1, 22293, Note_off_c, 0, 66, 63
1, 22335, Note_on_c, 0, 94, 92
1, 22347, Note_on_c, 0, 82, 80
1, 22371, Note_off_c, 0, 82, 69
1, 22377, Note_off_c, 0, 94, 64
1, 22425, Note_on_c, 0, 64, 73
1, 22426, Note_on_c, 0, 59, 47
1, 22431, Note_on_c, 0, 54, 67
1, 22434, Note_on_c, 0, 92, 95
1, 22437, Note_on_c, 0, 61, 64
1, 22462, Note_off_c, 0, 64, 64
1, 22463, Note_on_c, 0, 80, 50
1, 22465, Note_off_c, 0, 61, 65
1, 22466, Note_off_c, 0, 59, 66
1, 22472, Note_off_c, 0, 54, 65
1, 22487, Note_off_c, 0, 80, 57
1, 22489, Note_off_c, 0, 92, 65
1, 22532, Note_on_c, 0, 90, 94
1, 22574, Note_on_c, 0, 52, 51
1, 22579, Note_off_c, 0, 90, 64
1, 22617, Note_on_c, 0, 62, 72
1, 22618, Control_c, 0, 64, 28
1, 22625, Note_off_c, 0, 52, 46
1, 22630, Note_on_c, 0, 92, 92
1, 22632, Control_c, 0, 64, 65
1, 22635, Note_on_c, 0, 80, 45
1, 22639, Note_on_c, 0, 66, 84
1, 22647, Control_c, 0, 64, 74
1, 22660, Note_off_c, 0, 62, 64
1, 22662, Control_c, 0, 64, 86
1, 22674, Note_off_c, 0, 80, 61
1, 22677, Control_c, 0, 64, 127
1, 22682, Note_off_c, 0, 66, 60
1, 22690, Note_off_c, 0, 92, 64
1, 22719, Note_on_c, 0, 94, 81
1, 22736, Control_c, 0, 67, 127
1, 22751, Control_c, 0, 67, 126
1, 22767, Note_off_c, 0, 94, 64
1, 22810, Control_c, 0, 64, 72
1, 22810, Control_c, 0, 67, 127
1, 22825, Control_c, 0, 64, 45
1, 22825, Control_c, 0, 67, 127
1, 22833, Note_on_c, 0, 95, 75
1, 22834, Note_on_c, 0, 65, 72
1, 22837, Note_on_c, 0, 60, 59
1, 22839, Control_c, 0, 64, 0
1, 22843, Note_on_c, 0, 57, 63
1, 22846, Note_on_c, 0, 55, 60
1, 22870, Note_off_c, 0, 95, 64
1, 22873, Note_off_c, 0, 60, 64
1, 22873, Note_off_c, 0, 65, 63
1, 22885, Note_off_c, 0, 55, 63
1, 22885, Note_off_c, 0, 57, 63
1, 22940, Note_on_c, 0, 93, 74
1, 22966, Note_off_c, 0, 93, 67
1, 23040, Note_on_c, 0, 67, 71
1, 23040, Note_on_c, 0, 95, 79
1, 23042, Note_on_c, 0, 53, 51
1, 23043, Note_on_c, 0, 62, 68
1, 23051, Note_on_c, 0, 83, 56
1, 23054, Note_on_c, 0, 59, 61
1, 23067, Note_off_c, 0, 95, 65
1, 23070, Note_off_c, 0, 67, 65
1, 23071, Note_off_c, 0, 83, 62
1, 23076, Note_off_c, 0, 62, 65
1, 23079, Note_off_c, 0, 53, 63
1, 23080, Note_off_c, 0, 59, 67
1, 23136, Note_on_c, 0, 96, 87
1, 23157, Note_on_c, 0, 84, 50
1, 23161, Note_off_c, 0, 96, 65
1, 23177, Note_off_c, 0, 84, 61
1, 23231, Note_on_c, 0, 95, 87
1, 23237, Note_on_c, 0, 65, 74
1, 23244, Note_on_c, 0, 83, 68
1, 23246, Note_on_c, 0, 55, 62
1, 23247, Note_on_c, 0, 60, 50
1, 23270, Note_off_c, 0, 65, 58
1, 23271, Note_off_c, 0, 60, 56
1, 23273, Note_off_c, 0, 83, 65
1, 23279, Note_off_c, 0, 55, 64
1, 23289, Note_off_c, 0, 95, 61
1, 23331, Note_on_c, 0, 93, 74
1, 23356, Note_off_c, 0, 93, 68
1, 23443, Note_on_c, 0, 98, 77
1, 23450, Note_on_c, 0, 63, 63
1, 23450, Note_on_c, 0, 67, 68
1, 23456, Note_on_c, 0, 86, 51
1, 23465, Note_off_c, 0, 98, 68
1, 23471, Note_on_c, 0, 57, 44
1, 23477, Note_off_c, 0, 86, 61
1, 23478, Note_off_c, 0, 63, 67
1, 23480, Note_off_c, 0, 67, 66
1, 23498, Note_off_c, 0, 57, 54
1, 23539, Note_on_c, 0, 96, 86
1, 23555, Note_on_c, 0, 84, 63
1, 23569, Note_off_c, 0, 96, 61
1, 23572, Note_off_c, 0, 84, 67
1, 23646, Note_on_c, 0, 57, 51
1, 23650, Note_on_c, 0, 65, 79
1, 23650, Note_on_c, 0, 95, 86
1, 23657, Note_on_c, 0, 55, 59
1, 23659, Note_on_c, 0, 83, 75
1, 23662, Note_on_c, 0, 60, 59
1, 23670, Control_c, 0, 64, 49
1, 23685, Control_c, 0, 64, 62
1, 23688, Note_off_c, 0, 60, 64
1, 23690, Note_off_c, 0, 83, 61
1, 23699, Note_off_c, 0, 55, 63
1, 23700, Control_c, 0, 64, 70
1, 23700, Note_off_c, 0, 95, 66
1, 23701, Note_off_c, 0, 65, 64
1, 23713, Note_off_c, 0, 57, 63
1, 23714, Control_c, 0, 64, 78
1, 23729, Control_c, 0, 64, 79
1, 23744, Control_c, 0, 64, 69
1, 23750, Note_on_c, 0, 93, 84
1, 23759, Control_c, 0, 64, 26
1, 23774, Control_c, 0, 64, 0
1, 23786, Note_off_c, 0, 93, 62
1, 23855, Note_on_c, 0, 53, 60
1, 23855, Note_on_c, 0, 67, 75
1, 23855, Note_on_c, 0, 95, 90
1, 23860, Note_on_c, 0, 62, 68
1, 23864, Note_on_c, 0, 83, 52
1, 23865, Note_on_c, 0, 59, 57
1, 23886, Note_off_c, 0, 83, 61
1, 23890, Note_off_c, 0, 95, 65
1, 23893, Note_off_c, 0, 62, 66
1, 23895, Note_off_c, 0, 67, 62
1, 23897, Note_off_c, 0, 53, 62
1, 23905, Note_off_c, 0, 59, 67
1, 23950, Note_on_c, 0, 96, 96
1, 23959, Note_on_c, 0, 84, 79
1, 23988, Note_off_c, 0, 84, 66
1, 23991, Note_off_c, 0, 96, 65
1, 24049, Note_on_c, 0, 95, 95
1, 24053, Note_on_c, 0, 65, 76
1, 24056, Note_on_c, 0, 55, 68
1, 24057, Note_on_c, 0, 83, 80
1, 24058, Note_on_c, 0, 60, 66
1, 24072, Control_c, 0, 64, 45
1, 24086, Control_c, 0, 64, 69
1, 24088, Note_off_c, 0, 60, 64
1, 24090, Note_off_c, 0, 83, 60
1, 24097, Note_off_c, 0, 65, 60
1, 24101, Control_c, 0, 64, 70
1, 24102, Note_off_c, 0, 55, 61
1, 24106, Note_off_c, 0, 95, 65
1, 24145, Control_c, 0, 64, 68
1, 24153, Note_on_c, 0, 93, 82
1, 24160, Control_c, 0, 64, 54
1, 24175, Control_c, 0, 64, 0
1, 24189, Note_off_c, 0, 93, 63
1, 24256, Note_on_c, 0, 98, 86
1, 24259, Note_on_c, 0, 67, 73
1, 24264, Note_on_c, 0, 63, 67
1, 24266, Note_on_c, 0, 86, 67
1, 24268, Note_on_c, 0, 53, 51
1, 24278, Note_off_c, 0, 98, 65
1, 24282, Note_on_c, 0, 57, 52
1, 24282, Note_off_c, 0, 86, 66
1, 24288, Note_off_c, 0, 67, 66
1, 24291, Note_off_c, 0, 63, 67
1, 24294, Note_off_c, 0, 53, 57
1, 24305, Note_off_c, 0, 57, 62
1, 24352, Note_on_c, 0, 96, 92
1, 24371, Note_on_c, 0, 84, 69
1, 24386, Note_off_c, 0, 84, 69
1, 24394, Note_off_c, 0, 96, 61
1, 24449, Note_on_c, 0, 57, 51
1, 24449, Control_c, 0, 64, 41
1, 24455, Note_on_c, 0, 95, 99
1, 24455, Note_on_c, 0, 65, 80
1, 24459, Note_on_c, 0, 55, 61
1, 24461, Note_on_c, 0, 83, 90
1, 24464, Control_c, 0, 64, 61
1, 24464, Control_c, 0, 67, 125
1, 24466, Note_on_c, 0, 60, 64
1, 24479, Control_c, 0, 64, 68
1, 24479, Control_c, 0, 67, 122
1, 24490, Note_off_c, 0, 60, 63
1, 24490, Note_off_c, 0, 83, 62
1, 24493, Control_c, 0, 64, 76
1, 24504, Note_off_c, 0, 55, 61
1, 24505, Note_off_c, 0, 65, 64
1, 24508, Note_off_c, 0, 57, 64
1, 24508, Control_c, 0, 64, 88
1, 24508, Control_c, 0, 67, 123
1, 24511, Note_off_c, 0, 95, 66
1, 24523, Control_c, 0, 64, 95
1, 24523, Control_c, 0, 67, 125
1, 24538, Control_c, 0, 64, 93
1, 24538, Control_c, 0, 67, 127
1, 24553, Control_c, 0, 64, 73
1, 24553, Control_c, 0, 67, 127
1, 24556, Note_on_c, 0, 93, 86
1, 24568, Control_c, 0, 64, 31
1, 24583, Control_c, 0, 64, 0
1, 24598, Note_off_c, 0, 93, 64
1, 24657, Note_on_c, 0, 67, 81
1, 24658, Note_on_c, 0, 95, 87
1, 24660, Note_on_c, 0, 53, 62
1, 24666, Note_on_c, 0, 62, 68
1, 24672, Note_on_c, 0, 83, 67
1, 24672, Note_on_c, 0, 59, 67
1, 24687, Note_off_c, 0, 83, 66
1, 24692, Note_off_c, 0, 95, 65
1, 24694, Note_off_c, 0, 62, 66
1, 24696, Note_off_c, 0, 67, 62
1, 24697, Note_off_c, 0, 53, 62
1, 24705, Note_off_c, 0, 59, 66
1, 24752, Note_on_c, 0, 96, 98
1, 24770, Note_on_c, 0, 84, 59
1, 24789, Note_off_c, 0, 84, 63
1, 24790, Note_off_c, 0, 96, 66
1, 24847, Note_on_c, 0, 95, 99
1, 24848, Note_on_c, 0, 65, 85
1, 24851, Note_on_c, 0, 60, 73
1, 24853, Note_on_c, 0, 55, 72
1, 24858, Note_on_c, 0, 83, 84
1, 24863, Control_c, 0, 64, 53
1, 24878, Control_c, 0, 64, 67
1, 24878, Control_c, 0, 67, 127
1, 24883, Note_off_c, 0, 60, 65
1, 24887, Note_off_c, 0, 83, 60
1, 24893, Control_c, 0, 64, 69
1, 24893, Control_c, 0, 67, 124
1, 24898, Note_off_c, 0, 65, 63
1, 24902, Note_off_c, 0, 55, 60
1, 24908, Control_c, 0, 64, 72
1, 24908, Control_c, 0, 67, 123
1, 24923, Control_c, 0, 64, 78
1, 24923, Control_c, 0, 67, 122
1, 24937, Control_c, 0, 64, 92
1, 24937, Control_c, 0, 67, 122
1, 24952, Note_on_c, 0, 93, 77
1, 24952, Control_c, 0, 64, 118
1, 24963, Note_off_c, 0, 95, 63
1, 24967, Control_c, 0, 64, 127
1, 24967, Control_c, 0, 67, 121
1, 24975, Note_off_c, 0, 93, 67
1, 24997, Control_c, 0, 67, 122
1, 25012, Control_c, 0, 67, 124
1, 25027, Control_c, 0, 64, 82
1, 25027, Control_c, 0, 67, 127
1, 25041, Control_c, 0, 64, 45
1, 25047, Note_on_c, 0, 98, 92
1, 25051, Note_on_c, 0, 67, 78
1, 25056, Note_on_c, 0, 53, 56
1, 25056, Control_c, 0, 64, 0
1, 25057, Note_on_c, 0, 63, 71
1, 25058, Note_on_c, 0, 86, 70
1, 25073, Note_on_c, 0, 57, 56
1, 25073, Note_off_c, 0, 98, 63
1, 25074, Note_off_c, 0, 86, 68
1, 25083, Note_off_c, 0, 67, 62
1, 25084, Note_off_c, 0, 63, 66
1, 25089, Note_off_c, 0, 53, 53
1, 25101, Note_off_c, 0, 57, 65
1, 25150, Note_on_c, 0, 96, 95
1, 25163, Note_on_c, 0, 84, 71
1, 25179, Note_off_c, 0, 84, 66
1, 25188, Note_on_c, 0, 86, 21
1, 25191, Note_off_c, 0, 96, 64
1, 25222, Note_off_c, 0, 86, 38
1, 25245, Note_on_c, 0, 57, 62
1, 25249, Note_on_c, 0, 95, 92
1, 25250, Note_on_c, 0, 65, 75
1, 25252, Note_on_c, 0, 55, 69
1, 25255, Note_on_c, 0, 83, 83
1, 25260, Note_on_c, 0, 60, 57
1, 25282, Note_off_c, 0, 60, 62
1, 25283, Note_off_c, 0, 65, 62
1, 25285, Note_off_c, 0, 83, 61
1, 25293, Note_off_c, 0, 55, 61
1, 25293, Note_off_c, 0, 57, 63
1, 25316, Note_off_c, 0, 95, 57
1, 25347, Note_on_c, 0, 93, 78
1, 25373, Note_off_c, 0, 93, 64
1, 25404, Control_c, 0, 64, 52
1, 25404, Control_c, 0, 67, 127
1, 25419, Control_c, 0, 64, 77
1, 25419, Control_c, 0, 67, 126
1, 25435, Control_c, 0, 64, 83
1, 25435, Control_c, 0, 67, 126
1, 25450, Control_c, 0, 64, 88
1, 25450, Control_c, 0, 67, 125
1, 25453, Note_on_c, 0, 53, 61
1, 25453, Note_on_c, 0, 67, 77
1, 25453, Note_on_c, 0, 96, 86
1, 25456, Note_on_c, 0, 62, 76
1, 25464, Note_on_c, 0, 59, 64
1, 25465, Control_c, 0, 64, 94
1, 25465, Control_c, 0, 67, 124
1, 25475, Note_off_c, 0, 96, 69
1, 25480, Control_c, 0, 64, 102
1, 25480, Control_c, 0, 67, 123
1, 25480, Note_on_c, 0, 84, 45
1, 25483, Note_off_c, 0, 67, 65
1, 25489, Note_off_c, 0, 62, 67
1, 25491, Note_off_c, 0, 53, 61
1, 25495, Control_c, 0, 64, 114
1, 25495, Control_c, 0, 67, 122
1, 25497, Note_off_c, 0, 59, 66
1, 25504, Note_off_c, 0, 84, 58
1, 25510, Control_c, 0, 64, 127
1, 25525, Control_c, 0, 67, 122
1, 25539, Control_c, 0, 67, 123
1, 25552, Note_on_c, 0, 95, 83
1, 25554, Control_c, 0, 67, 122
1, 25569, Control_c, 0, 64, 110
1, 25570, Note_on_c, 0, 83, 60
1, 25573, Note_off_c, 0, 95, 72
1, 25583, Control_c, 0, 64, 86
1, 25583, Control_c, 0, 67, 123
1, 25588, Note_off_c, 0, 83, 65
1, 25598, Control_c, 0, 64, 65
1, 25598, Control_c, 0, 67, 124
1, 25613, Control_c, 0, 64, 22
1, 25613, Control_c, 0, 67, 126
1, 25628, Control_c, 0, 64, 0
1, 25628, Control_c, 0, 67, 127
1, 25641, Note_on_c, 0, 55, 67
1, 25642, Note_on_c, 0, 60, 59
1, 25643, Note_on_c, 0, 65, 71
1, 25643, Control_c, 0, 67, 127
1, 25647, Note_on_c, 0, 93, 91
1, 25658, Note_on_c, 0, 81, 69
1, 25669, Note_off_c, 0, 60, 64
1, 25671, Note_off_c, 0, 93, 64
1, 25674, Note_off_c, 0, 65, 65
1, 25674, Note_off_c, 0, 81, 68
1, 25683, Note_off_c, 0, 55, 64
1, 25742, Note_on_c, 0, 91, 97
1, 25747, Note_on_c, 0, 79, 82
1, 25769, Note_off_c, 0, 79, 69
1, 25782, Note_off_c, 0, 91, 66
1, 25820, Control_c, 0, 67, 127
1, 25838, Note_on_c, 0, 67, 68
1, 25841, Note_on_c, 0, 93, 96
1, 25843, Note_on_c, 0, 63, 65
1, 25845, Note_on_c, 0, 57, 62
1, 25848, Note_on_c, 0, 81, 78
1, 25870, Note_on_c, 0, 53, 14
1, 25872, Control_c, 0, 67, 127
1, 25879, Note_off_c, 0, 63, 66
1, 25879, Note_off_c, 0, 81, 70
1, 25883, Note_off_c, 0, 67, 63
1, 25886, Note_off_c, 0, 93, 65
1, 25893, Note_off_c, 0, 57, 65
1, 25901, Note_off_c, 0, 53, 43
1, 25943, Note_on_c, 0, 95, 93
1, 25954, Note_on_c, 0, 83, 75
1, 25978, Note_off_c, 0, 83, 68
1, 25983, Note_off_c, 0, 95, 67
1, 26043, Note_on_c, 0, 93, 98
1, 26048, Note_on_c, 0, 57, 63
1, 26049, Note_on_c, 0, 81, 83
1, 26052, Note_on_c, 0, 65, 69
1, 26055, Note_on_c, 0, 60, 55
1, 26064, Note_on_c, 0, 55, 46
1, 26070, Note_off_c, 0, 81, 69
1, 26079, Note_off_c, 0, 60, 57
1, 26085, Note_off_c, 0, 93, 65
1, 26088, Note_off_c, 0, 65, 59
1, 26091, Note_off_c, 0, 57, 65
1, 26092, Note_off_c, 0, 55, 58
1, 26109, Control_c, 0, 67, 127
1, 26124, Control_c, 0, 67, 126
1, 26139, Control_c, 0, 67, 124
1, 26139, Note_on_c, 0, 95, 97
1, 26148, Note_on_c, 0, 83, 65
1, 26154, Control_c, 0, 67, 123
1, 26169, Control_c, 0, 67, 121
1, 26172, Note_off_c, 0, 83, 67
1, 26180, Note_off_c, 0, 95, 66
1, 26183, Control_c, 0, 67, 116
1, 26198, Control_c, 0, 67, 110
1, 26213, Control_c, 0, 67, 105
1, 26228, Control_c, 0, 64, 52
1, 26228, Control_c, 0, 67, 99
1, 26234, Note_on_c, 0, 96, 102
1, 26240, Note_on_c, 0, 67, 94
1, 26240, Note_on_c, 0, 53, 77
1, 26240, Note_on_c, 0, 84, 94
1, 26243, Note_on_c, 0, 59, 80
1, 26243, Note_on_c, 0, 62, 87
1, 26243, Control_c, 0, 64, 127
1, 26243, Control_c, 0, 67, 93
1, 26258, Control_c, 0, 67, 84
1, 26267, Note_off_c, 0, 84, 66
1, 26273, Control_c, 0, 67, 70
1, 26279, Note_off_c, 0, 96, 66
1, 26288, Control_c, 0, 67, 54
1, 26297, Note_off_c, 0, 62, 64
1, 26303, Note_off_c, 0, 53, 62
1, 26303, Control_c, 0, 67, 36
1, 26304, Note_off_c, 0, 67, 63
1, 26312, Note_off_c, 0, 59, 66
1, 26318, Control_c, 0, 67, 18
1, 26332, Control_c, 0, 67, 0
1, 26343, Note_on_c, 0, 95, 94
1, 26349, Note_on_c, 0, 83, 81
1, 26365, Note_off_c, 0, 95, 68
1, 26371, Note_off_c, 0, 83, 70
1, 26421, Control_c, 0, 64, 92
1, 26436, Control_c, 0, 64, 57
1, 26442, Note_on_c, 0, 93, 91
1, 26449, Note_on_c, 0, 60, 58
1, 26451, Note_on_c, 0, 65, 64
1, 26451, Control_c, 0, 64, 0
1, 26451, Control_c, 0, 67, 8
1, 26452, Note_on_c, 0, 81, 70
1, 26458, Note_on_c, 0, 55, 44
1, 26467, Note_off_c, 0, 93, 65
1, 26467, Note_off_c, 0, 81, 71
1, 26476, Note_off_c, 0, 60, 63
1, 26479, Note_off_c, 0, 65, 66
1, 26480, Control_c, 0, 67, 9
1, 26490, Note_off_c, 0, 55, 64
1, 26495, Control_c, 0, 67, 10
1, 26510, Control_c, 0, 67, 12
1, 26524, Control_c, 0, 67, 12
1, 26543, Note_on_c, 0, 91, 88
1, 26548, Note_on_c, 0, 79, 79
1, 26554, Control_c, 0, 67, 12
1, 26568, Note_off_c, 0, 91, 60
1, 26573, Note_off_c, 0, 79, 67
1, 26606, Control_c, 0, 67, 11
1, 26621, Control_c, 0, 67, 10
1, 26636, Control_c, 0, 67, 10
1, 26646, Note_on_c, 0, 67, 73
1, 26646, Note_on_c, 0, 93, 97
1, 26651, Note_on_c, 0, 63, 63
1, 26651, Control_c, 0, 67, 10
1, 26656, Note_on_c, 0, 81, 67
1, 26666, Control_c, 0, 67, 11
1, 26667, Note_on_c, 0, 57, 49
1, 26674, Note_on_c, 0, 53, 36
1, 26678, Note_off_c, 0, 81, 66
1, 26681, Note_off_c, 0, 63, 66
1, 26681, Control_c, 0, 67, 12
1, 26685, Note_off_c, 0, 93, 65
1, 26685, Note_off_c, 0, 67, 62
1, 26693, Note_off_c, 0, 57, 58
1, 26702, Note_off_c, 0, 53, 51
1, 26725, Control_c, 0, 67, 11
1, 26745, Note_on_c, 0, 95, 101
1, 26755, Note_on_c, 0, 83, 73
1, 26769, Control_c, 0, 67, 10
1, 26779, Note_off_c, 0, 83, 69
1, 26784, Control_c, 0, 67, 9
1, 26791, Note_off_c, 0, 95, 66
1, 26799, Control_c, 0, 67, 0
1, 26843, Note_on_c, 0, 96, 96
1, 26843, Control_c, 0, 64, 29
1, 26847, Note_on_c, 0, 57, 75
1, 26847, Note_on_c, 0, 65, 91
1, 26852, Note_on_c, 0, 55, 73
1, 26854, Note_on_c, 0, 84, 84
1, 26855, Note_on_c, 0, 60, 71
1, 26857, Control_c, 0, 64, 84
1, 26872, Control_c, 0, 64, 127
1, 26878, Note_off_c, 0, 84, 68
1, 26881, Note_off_c, 0, 60, 65
1, 26889, Note_off_c, 0, 96, 66
1, 26899, Note_off_c, 0, 55, 58
1, 26900, Note_off_c, 0, 65, 63
1, 26909, Note_off_c, 0, 57, 63
1, 26950, Note_on_c, 0, 95, 90
1, 26964, Note_on_c, 0, 83, 68
1, 26973, Note_off_c, 0, 95, 69
1, 26982, Note_off_c, 0, 83, 68
1, 27021, Control_c, 0, 64, 89
1, 27036, Control_c, 0, 64, 54
1, 27050, Note_on_c, 0, 93, 87
1, 27051, Control_c, 0, 64, 0
1, 27052, Note_on_c, 0, 67, 69
1, 27054, Note_on_c, 0, 62, 67
1, 27055, Note_on_c, 0, 53, 57
1, 27059, Note_on_c, 0, 81, 74
1, 27066, Note_on_c, 0, 59, 61
1, 27066, Control_c, 0, 67, 9
1, 27069, Note_off_c, 0, 93, 66
1, 27080, Note_off_c, 0, 67, 65
1, 27080, Note_off_c, 0, 81, 67
1, 27081, Control_c, 0, 67, 10
1, 27089, Note_off_c, 0, 62, 65
1, 27094, Note_off_c, 0, 53, 63
1, 27100, Note_off_c, 0, 59, 65
1, 27125, Control_c, 0, 67, 11
1, 27140, Control_c, 0, 67, 12
1, 27150, Note_on_c, 0, 91, 95
1, 27155, Note_on_c, 0, 79, 85
1, 27155, Control_c, 0, 67, 15
1, 27170, Control_c, 0, 67, 16
1, 27176, Note_off_c, 0, 79, 70
1, 27183, Note_off_c, 0, 91, 62
1, 27200, Control_c, 0, 67, 15
1, 27244, Note_on_c, 0, 93, 99
1, 27244, Control_c, 0, 67, 14
1, 27248, Note_on_c, 0, 65, 67
1, 27249, Note_on_c, 0, 55, 62
1, 27252, Note_on_c, 0, 60, 61
1, 27252, Note_on_c, 0, 81, 77
1, 27259, Control_c, 0, 67, 13
1, 27277, Note_off_c, 0, 81, 69
1, 27278, Note_off_c, 0, 60, 63
1, 27279, Note_off_c, 0, 65, 62
1, 27281, Note_off_c, 0, 93, 66
1, 27289, Note_off_c, 0, 55, 64
1, 27289, Control_c, 0, 67, 14
1, 27303, Control_c, 0, 67, 15
1, 27318, Control_c, 0, 67, 14
1, 27333, Control_c, 0, 67, 13
1, 27342, Note_on_c, 0, 95, 97
1, 27355, Control_c, 0, 67, 13
1, 27358, Note_on_c, 0, 83, 75
1, 27382, Note_off_c, 0, 83, 69
1, 27385, Control_c, 0, 67, 14
1, 27394, Note_off_c, 0, 95, 65
1, 27400, Control_c, 0, 67, 15
1, 27415, Control_c, 0, 67, 14
1, 27429, Control_c, 0, 67, 13
1, 27444, Control_c, 0, 67, 13
1, 27448, Note_on_c, 0, 96, 100
1, 27455, Note_on_c, 0, 84, 81
1, 27458, Note_on_c, 0, 67, 85
1, 27459, Note_on_c, 0, 57, 77
1, 27462, Note_on_c, 0, 63, 75
1, 27469, Note_on_c, 0, 53, 58
1, 27474, Control_c, 0, 67, 14
1, 27484, Note_off_c, 0, 84, 66
1, 27494, Note_off_c, 0, 63, 67
1, 27494, Note_off_c, 0, 96, 66
1, 27495, Note_off_c, 0, 53, 59
1, 27503, Note_off_c, 0, 67, 63
1, 27510, Note_off_c, 0, 57, 64
1, 27518, Control_c, 0, 67, 14
1, 27533, Control_c, 0, 67, 13
1, 27542, Note_on_c, 0, 98, 93
1, 27559, Note_on_c, 0, 86, 74
1, 27562, Control_c, 0, 67, 13
1, 27577, Control_c, 0, 67, 12
1, 27583, Note_off_c, 0, 86, 68
1, 27585, Note_off_c, 0, 98, 65
1, 27592, Control_c, 0, 67, 10
1, 27607, Control_c, 0, 67, 0
1, 27622, Control_c, 0, 64, 54
1, 27636, Control_c, 0, 64, 79
1, 27646, Note_on_c, 0, 65, 85
1, 27647, Note_on_c, 0, 96, 94
1, 27648, Note_on_c, 0, 57, 79
1, 27650, Note_on_c, 0, 55, 74
1, 27651, Note_on_c, 0, 84, 90
1, 27651, Control_c, 0, 64, 84
1, 27663, Note_on_c, 0, 60, 58
1, 27666, Control_c, 0, 64, 90
1, 27674, Note_off_c, 0, 84, 69
1, 27676, Note_off_c, 0, 96, 64
1, 27680, Control_c, 0, 64, 108
1, 27686, Note_off_c, 0, 60, 58
1, 27692, Note_off_c, 0, 65, 64
1, 27695, Control_c, 0, 64, 127
1, 27696, Note_off_c, 0, 57, 63
1, 27697, Note_off_c, 0, 55, 62
1, 27713, Poly_aftertouch_c, 0, 86, 0
1, 27745, Note_on_c, 0, 95, 90
1, 27754, Note_on_c, 0, 83, 77
1, 27775, Note_off_c, 0, 95, 64
1, 27778, Note_off_c, 0, 83, 70
1, 27843, Note_on_c, 0, 67, 82
1, 27846, Note_on_c, 0, 93, 88
1, 27849, Note_on_c, 0, 62, 76
1, 27850, Note_on_c, 0, 53, 65
1, 27854, Note_on_c, 0, 81, 79
1, 27859, Control_c, 0, 64, 91
1, 27861, Note_on_c, 0, 59, 71
1, 27874, Note_off_c, 0, 67, 62
1, 27874, Control_c, 0, 64, 52
1, 27877, Note_off_c, 0, 81, 70
1, 27877, Note_off_c, 0, 62, 66
1, 27880, Note_off_c, 0, 93, 61
1, 27884, Note_off_c, 0, 53, 63
1, 27888, Note_off_c, 0, 59, 67
1, 27889, Control_c, 0, 64, 0
1, 27945, Note_on_c, 0, 91, 98
1, 27951, Note_on_c, 0, 79, 78
1, 27975, Note_off_c, 0, 79, 69
1, 27984, Note_off_c, 0, 91, 62
1, 28032, Note_on_c, 0, 55, 77
1, 28034, Note_on_c, 0, 65, 78
1, 28035, Note_on_c, 0, 60, 73
1, 28041, Note_on_c, 0, 93, 100
1, 28043, Note_on_c, 0, 81, 81
1, 28061, Note_off_c, 0, 60, 65
1, 28062, Note_off_c, 0, 65, 64
1, 28071, Note_off_c, 0, 81, 65
1, 28073, Note_off_c, 0, 55, 63
1, 28079, Note_off_c, 0, 93, 66
1, 28147, Note_on_c, 0, 95, 102
1, 28148, Note_on_c, 0, 83, 90
1, 28184, Note_off_c, 0, 83, 64
1, 28190, Note_off_c, 0, 95, 66
1, 28240, Note_on_c, 0, 67, 89
1, 28241, Note_on_c, 0, 63, 77
1, 28242, Note_on_c, 0, 96, 99
1, 28244, Note_on_c, 0, 57, 77
1, 28247, Note_on_c, 0, 84, 85
1, 28250, Note_on_c, 0, 53, 66
1, 28278, Note_off_c, 0, 63, 64
1, 28279, Note_off_c, 0, 67, 61
1, 28281, Note_off_c, 0, 53, 65
1, 28283, Note_off_c, 0, 84, 64
1, 28283, Note_off_c, 0, 96, 68
1, 28290, Note_off_c, 0, 57, 62
1, 28336, Note_on_c, 0, 98, 97
1, 28348, Note_on_c, 0, 86, 85
1, 28371, Note_off_c, 0, 86, 68
1, 28380, Note_off_c, 0, 98, 65
1, 28400, Control_c, 0, 64, 27
1, 28415, Control_c, 0, 64, 105
1, 28425, Note_on_c, 0, 65, 96
1, 28426, Note_on_c, 0, 57, 87
1, 28429, Note_on_c, 0, 55, 86
1, 28430, Control_c, 0, 64, 127
1, 28437, Note_on_c, 0, 96, 104
1, 28437, Note_on_c, 0, 60, 74
1, 28440, Note_on_c, 0, 84, 103
1, 28462, Note_off_c, 0, 60, 66
1, 28470, Note_off_c, 0, 84, 63
1, 28471, Note_on_c, 0, 95, 46
1, 28473, Note_off_c, 0, 65, 64
1, 28476, Note_off_c, 0, 96, 65
1, 28476, Note_off_c, 0, 55, 61
1, 28479, Note_off_c, 0, 57, 62
1, 28498, Note_off_c, 0, 95, 38
1, 28543, Note_on_c, 0, 95, 93
1, 28548, Note_on_c, 0, 83, 83
1, 28568, Note_off_c, 0, 95, 59
1, 28570, Note_off_c, 0, 83, 71
1, 28607, Poly_aftertouch_c, 0, 60, 0
1, 28637, Note_on_c, 0, 53, 75
1, 28637, Note_on_c, 0, 67, 79
1, 28639, Note_on_c, 0, 62, 81
1, 28640, Note_on_c, 0, 93, 69
1, 28646, Note_on_c, 0, 81, 89
1, 28648, Note_on_c, 0, 59, 76
1, 28657, Note_on_c, 0, 91, 64
1, 28666, Note_off_c, 0, 81, 71
1, 28673, Note_off_c, 0, 62, 64
1, 28673, Note_off_c, 0, 67, 60
1, 28675, Note_off_c, 0, 91, 64
1, 28679, Note_off_c, 0, 93, 63
1, 28686, Note_off_c, 0, 53, 60
1, 28686, Note_off_c, 0, 59, 65
1, 28712, Control_c, 0, 64, 101
1, 28726, Control_c, 0, 64, 64
1, 28735, Note_on_c, 0, 91, 93
1, 28741, Control_c, 0, 64, 0
1, 28748, Note_on_c, 0, 79, 83
1, 28763, Note_off_c, 0, 79, 69
1, 28779, Note_off_c, 0, 91, 64
1, 28834, Note_on_c, 0, 55, 81
1, 28834, Note_on_c, 0, 65, 87
1, 28835, Note_on_c, 0, 93, 104
1, 28836, Note_on_c, 0, 81, 91
1, 28836, Note_on_c, 0, 60, 78
1, 28872, Note_off_c, 0, 60, 66
1, 28874, Note_off_c, 0, 65, 63
1, 28875, Note_off_c, 0, 81, 65
1, 28883, Note_off_c, 0, 93, 65
1, 28886, Note_on_c, 0, 62, 4
1, 28887, Note_off_c, 0, 62, 127
1, 28889, Note_off_c, 0, 55, 62
1, 28937, Note_on_c, 0, 95, 99
1, 28944, Note_on_c, 0, 83, 83
1, 28972, Note_off_c, 0, 83, 64
1, 28980, Note_on_c, 0, 84, 42
1, 28981, Note_off_c, 0, 84, 127
1, 28983, Note_off_c, 0, 95, 66
1, 29034, Note_on_c, 0, 63, 81
1, 29035, Note_on_c, 0, 96, 103
1, 29036, Note_on_c, 0, 67, 85
1, 29043, Note_on_c, 0, 53, 67
1, 29043, Note_on_c, 0, 57, 79
1, 29044, Note_on_c, 0, 84, 90
1, 29077, Note_off_c, 0, 84, 64
1, 29082, Note_off_c, 0, 63, 65
1, 29083, Note_off_c, 0, 53, 63
1, 29087, Note_off_c, 0, 67, 63
1, 29095, Note_off_c, 0, 96, 68
1, 29099, Note_off_c, 0, 57, 64
1, 29132, Note_on_c, 0, 98, 99
1, 29153, Note_on_c, 0, 86, 64
1, 29171, Note_off_c, 0, 86, 66
1, 29187, Note_off_c, 0, 98, 64
1, 29232, Note_on_c, 0, 65, 103
1, 29234, Note_on_c, 0, 57, 90
1, 29236, Note_on_c, 0, 55, 87
1, 29239, Note_on_c, 0, 60, 86
1, 29239, Note_on_c, 0, 96, 101
1, 29249, Note_on_c, 0, 84, 81
1, 29252, Control_c, 0, 64, 103
1, 29267, Control_c, 0, 64, 127
1, 29273, Note_off_c, 0, 96, 66
1, 29275, Note_off_c, 0, 84, 69
1, 29414, Note_off_c, 0, 65, 62
1, 29424, Note_off_c, 0, 60, 60
1, 29437, Note_off_c, 0, 55, 63
1, 29444, Note_off_c, 0, 57, 64
1, 29447, Note_on_c, 0, 76, 94
1, 29452, Note_on_c, 0, 67, 90
1, 29471, Note_on_c, 0, 71, 52
1, 29475, Note_off_c, 0, 67, 68
1, 29488, Note_on_c, 0, 69, 44
1, 29493, Note_off_c, 0, 76, 62
1, 29494, Note_off_c, 0, 71, 57
1, 29515, Note_off_c, 0, 69, 57
1, 29549, Poly_aftertouch_c, 0, 65, 0
1, 29553, Poly_aftertouch_c, 0, 73, 0
1, 29581, Note_on_c, 0, 77, 77
1, 29582, Note_on_c, 0, 69, 80
1, 29591, Note_on_c, 0, 65, 80
1, 29612, Note_on_c, 0, 53, 74
1, 29612, Note_off_c, 0, 77, 71
1, 29615, Note_off_c, 0, 69, 69
1, 29615, Note_on_c, 0, 60, 67
1, 29618, Note_on_c, 0, 57, 64
1, 29628, Note_off_c, 0, 65, 66
1, 29632, Note_off_c, 0, 60, 65
1, 29636, Note_off_c, 0, 53, 66
1, 29646, Control_c, 0, 64, 89
1, 29647, Note_off_c, 0, 57, 63
1, 29661, Control_c, 0, 64, 51
1, 29676, Control_c, 0, 64, 0
1, 29677, Poly_aftertouch_c, 0, 75, 0
1, 29689, Note_on_c, 0, 67, 76
1, 29690, Note_on_c, 0, 71, 77
1, 29690, Note_on_c, 0, 79, 81
1, 29704, Note_off_c, 0, 79, 72
1, 29704, Note_off_c, 0, 67, 68
1, 29705, Note_off_c, 0, 71, 68
1, 29723, Note_on_c, 0, 74, 21
1, 29759, Note_off_c, 0, 74, 31
1, 29786, Note_on_c, 0, 64, 78
1, 29787, Note_on_c, 0, 72, 80
1, 29788, Note_on_c, 0, 81, 87
1, 29790, Note_on_c, 0, 52, 74
1, 29790, Note_on_c, 0, 69, 73
1, 29792, Note_on_c, 0, 59, 67
1, 29793, Note_on_c, 0, 55, 66
1, 29806, Note_off_c, 0, 64, 67
1, 29806, Note_off_c, 0, 69, 71
1, 29807, Note_on_c, 0, 76, 52
1, 29809, Note_off_c, 0, 52, 66
1, 29810, Note_off_c, 0, 81, 70
1, 29811, Note_off_c, 0, 72, 67
1, 29812, Note_off_c, 0, 59, 64
1, 29814, Note_off_c, 0, 55, 64
1, 29830, Note_off_c, 0, 76, 58
1, 29879, Note_on_c, 0, 74, 75
1, 29881, Note_on_c, 0, 83, 87
1, 29886, Note_on_c, 0, 71, 67
1, 29892, Note_on_c, 0, 77, 65
1, 29903, Note_off_c, 0, 71, 66
1, 29913, Note_off_c, 0, 74, 65
1, 29913, Note_off_c, 0, 83, 64
1, 29919, Note_off_c, 0, 77, 67
1, 29973, Note_on_c, 0, 76, 85
1, 29974, Note_on_c, 0, 62, 94
1, 29975, Note_on_c, 0, 84, 96
1, 29978, Note_on_c, 0, 50, 85
1, 29979, Note_on_c, 0, 72, 73
1, 29981, Note_on_c, 0, 53, 77
1, 29984, Note_on_c, 0, 57, 75
1, 29987, Note_on_c, 0, 79, 73
1, 29999, Note_off_c, 0, 62, 67
1, 30005, Note_off_c, 0, 72, 67
1, 30006, Note_off_c, 0, 53, 66
1, 30007, Note_off_c, 0, 50, 70
1, 30011, Note_off_c, 0, 79, 68
1, 30012, Note_off_c, 0, 57, 65
1, 30020, Note_off_c, 0, 76, 65
1, 30022, Note_off_c, 0, 84, 63
1, 30075, Note_on_c, 0, 77, 88
1, 30078, Note_on_c, 0, 86, 87
1, 30081, Note_on_c, 0, 74, 74
1, 30090, Note_on_c, 0, 81, 69
1, 30102, Note_off_c, 0, 86, 61
1, 30107, Note_off_c, 0, 74, 67
1, 30112, Note_off_c, 0, 81, 68
1, 30115, Note_off_c, 0, 77, 64
1, 30164, Control_c, 0, 64, 13
1, 30172, Note_on_c, 0, 60, 107
1, 30175, Note_on_c, 0, 48, 104
1, 30176, Note_on_c, 0, 79, 91
1, 30177, Note_on_c, 0, 76, 89
1, 30177, Note_on_c, 0, 88, 91
1, 30178, Note_on_c, 0, 52, 89
1, 30179, Note_on_c, 0, 55, 84
1, 30179, Control_c, 0, 64, 127
1, 30197, Note_on_c, 0, 83, 64
1, 30204, Note_on_c, 0, 82, 44
1, 30209, Note_off_c, 0, 76, 60
1, 30211, Note_off_c, 0, 55, 60
1, 30214, Note_off_c, 0, 83, 68
1, 30217, Note_off_c, 0, 88, 64
1, 30220, Note_off_c, 0, 79, 65
1, 30228, Note_off_c, 0, 82, 58
1, 30229, Note_off_c, 0, 48, 65
1, 30232, Note_off_c, 0, 52, 63
1, 30238, Note_off_c, 0, 60, 61
1, 30288, Note_on_c, 0, 81, 97
1, 30293, Note_on_c, 0, 89, 86
1, 30296, Note_on_c, 0, 77, 73
1, 30306, Note_off_c, 0, 89, 71
1, 30312, Note_off_c, 0, 77, 70
1, 30316, Note_off_c, 0, 81, 61
1, 30319, Note_on_c, 0, 84, 35
1, 30352, Note_off_c, 0, 84, 57
1, 30379, Note_on_c, 0, 59, 100
1, 30384, Note_on_c, 0, 47, 98
1, 30387, Note_on_c, 0, 50, 94
1, 30389, Note_on_c, 0, 53, 84
1, 30390, Note_on_c, 0, 83, 96
1, 30390, Note_on_c, 0, 91, 97
1, 30393, Note_on_c, 0, 79, 76
1, 30407, Note_on_c, 0, 86, 66
1, 30409, Note_on_c, 0, 89, 29
1, 30412, Note_off_c, 0, 53, 66
1, 30415, Note_off_c, 0, 50, 67
1, 30422, Note_off_c, 0, 59, 67
1, 30423, Note_off_c, 0, 47, 65
1, 30423, Note_off_c, 0, 79, 63
1, 30423, Note_off_c, 0, 86, 68
1, 30431, Note_off_c, 0, 83, 66
1, 30437, Note_off_c, 0, 91, 64
1, 30449, Note_off_c, 0, 89, 30
1, 30488, Note_on_c, 0, 84, 86
1, 30489, Note_on_c, 0, 93, 96
1, 30495, Note_on_c, 0, 81, 80
1, 30508, Note_on_c, 0, 88, 68
1, 30518, Note_off_c, 0, 81, 59
1, 30525, Note_off_c, 0, 88, 67
1, 30529, Note_off_c, 0, 84, 66
1, 30529, Note_off_c, 0, 93, 63
1, 30579, Note_on_c, 0, 57, 110
1, 30582, Note_on_c, 0, 45, 102
1, 30586, Note_on_c, 0, 48, 90
1, 30587, Note_on_c, 0, 95, 101
1, 30589, Note_on_c, 0, 86, 91
1, 30589, Note_on_c, 0, 52, 88
1, 30594, Note_on_c, 0, 83, 81
1, 30598, Note_on_c, 0, 88, 66
1, 30610, Note_off_c, 0, 52, 68
1, 30611, Note_on_c, 0, 89, 69
1, 30612, Note_off_c, 0, 83, 64
1, 30615, Note_on_c, 0, 84, 58
1, 30616, Note_off_c, 0, 48, 66
1, 30616, Note_off_c, 0, 57, 66
1, 30617, Note_off_c, 0, 88, 63
1, 30627, Note_off_c, 0, 45, 65
1, 30629, Note_off_c, 0, 86, 66
1, 30630, Note_off_c, 0, 95, 67
1, 30631, Note_off_c, 0, 89, 63
1, 30634, Note_off_c, 0, 84, 65
1, 30647, Note_on_c, 0, 93, 23
1, 30691, Note_on_c, 0, 88, 95
1, 30693, Note_on_c, 0, 84, 97
1, 30697, Note_on_c, 0, 96, 93
1, 30701, Note_off_c, 0, 93, 29
1, 30709, Note_off_c, 0, 84, 69
1, 30714, Note_off_c, 0, 96, 66
1, 30714, Note_on_c, 0, 91, 65
1, 30715, Note_on_c, 0, 94, 59
1, 30726, Note_off_c, 0, 88, 68
1, 30735, Note_off_c, 0, 91, 62
1, 30738, Note_off_c, 0, 94, 58
1, 30756, Poly_aftertouch_c, 0, 52, 0
1, 30769, Note_on_c, 0, 55, 97
1, 30773, Note_on_c, 0, 43, 88
1, 30776, Note_on_c, 0, 47, 83
1, 30782, Note_on_c, 0, 86, 74
1, 30784, Note_on_c, 0, 89, 92
1, 30788, Note_on_c, 0, 98, 97
1, 30795, Note_on_c, 0, 50, 48
1, 30796, Note_off_c, 0, 55, 66
1, 30802, Note_off_c, 0, 47, 68
1, 30807, Note_off_c, 0, 43, 65
1, 30814, Note_off_c, 0, 86, 61
1, 30819, Note_on_c, 0, 96, 5
1, 30822, Note_off_c, 0, 50, 56
1, 30822, Note_off_c, 0, 96, 48
1, 30823, Note_off_c, 0, 89, 65
1, 30828, Note_off_c, 0, 98, 64
1, 30830, Note_on_c, 0, 93, 23
1, 30832, Note_on_c, 0, 91, 27
1, 30867, Note_off_c, 0, 91, 0
1, 30877, Note_on_c, 0, 88, 104
1, 30878, Note_on_c, 0, 91, 74
1, 30879, Note_on_c, 0, 100, 99
1, 30884, Note_off_c, 0, 93, 26
1, 30901, Note_on_c, 0, 94, 54
1, 30915, Note_on_c, 0, 95, 47
1, 30921, Note_off_c, 0, 94, 60
1, 30928, Control_c, 0, 64, 85
1, 30941, Note_off_c, 0, 88, 65
1, 30941, Note_off_c, 0, 95, 58
1, 30942, Note_off_c, 0, 100, 67
1, 30943, Control_c, 0, 64, 52
1, 30944, Note_off_c, 0, 91, 64
1, 30958, Control_c, 0, 64, 0
1, 31069, Note_on_c, 0, 98, 105
1, 31069, Note_on_c, 0, 43, 94
1, 31069, Note_on_c, 0, 86, 102
1, 31070, Note_on_c, 0, 89, 100
1, 31071, Note_on_c, 0, 31, 96
1, 31072, Note_on_c, 0, 38, 89
1, 31082, Note_on_c, 0, 93, 83
1, 31099, Control_c, 0, 64, 127
1, 31105, Note_on_c, 0, 92, 46
1, 31122, Note_off_c, 0, 38, 59
1, 31123, Note_on_c, 0, 32, 13
1, 31123, Note_off_c, 0, 31, 65
1, 31135, Note_off_c, 0, 92, 50
1, 31143, Note_off_c, 0, 43, 64
1, 31170, Note_off_c, 0, 32, 45
1, 31171, Poly_aftertouch_c, 0, 35, 0
1, 31188, Note_off_c, 0, 93, 49
1, 31194, Note_off_c, 0, 98, 59
1, 31199, Poly_aftertouch_c, 0, 35, 0
1, 31200, Note_off_c, 0, 86, 63
1, 31204, Note_off_c, 0, 89, 63
1, 31293, Note_on_c, 0, 84, 87
1, 31293, Note_on_c, 0, 96, 94
1, 31294, Note_on_c, 0, 62, 85
1, 31295, Note_on_c, 0, 88, 89
1, 31300, Note_on_c, 0, 65, 81
1, 31301, Note_on_c, 0, 67, 76
1, 31308, Note_on_c, 0, 55, 67
1, 31309, Note_off_c, 0, 88, 74
1, 31312, Note_off_c, 0, 84, 72
1, 31313, Note_on_c, 0, 59, 53
1, 31313, Note_on_c, 0, 95, 57
1, 31313, Note_off_c, 0, 96, 69
1, 31315, Note_off_c, 0, 65, 69
1, 31316, Note_off_c, 0, 62, 69
1, 31316, Note_off_c, 0, 67, 69
1, 31325, Note_off_c, 0, 55, 67
1, 31334, Note_off_c, 0, 59, 63
1, 31337, Note_off_c, 0, 95, 60
1, 31374, Note_on_c, 0, 62, 87
1, 31376, Note_on_c, 0, 83, 98
1, 31376, Note_on_c, 0, 65, 88
1, 31376, Note_on_c, 0, 95, 99
1, 31378, Note_on_c, 0, 67, 87
1, 31379, Note_on_c, 0, 86, 98
1, 31381, Note_on_c, 0, 59, 93
1, 31381, Note_on_c, 0, 90, 70
1, 31382, Note_on_c, 0, 55, 86
1, 31396, Note_off_c, 0, 83, 69
1, 31397, Note_off_c, 0, 86, 72
1, 31397, Note_off_c, 0, 95, 61
1, 31399, Note_on_c, 0, 84, 39
1, 31403, Note_off_c, 0, 62, 68
1, 31403, Note_off_c, 0, 65, 62
1, 31404, Note_off_c, 0, 67, 66
1, 31404, Note_off_c, 0, 90, 68
1, 31406, Note_off_c, 0, 55, 67
1, 31410, Control_c, 0, 64, 91
1, 31415, Note_off_c, 0, 59, 63
1, 31425, Control_c, 0, 64, 52
1, 31436, Note_off_c, 0, 84, 34
1, 31440, Control_c, 0, 64, 0
1, 31461, Note_on_c, 0, 93, 96
1, 31462, Note_on_c, 0, 81, 95
1, 31463, Note_on_c, 0, 67, 88
1, 31463, Note_on_c, 0, 84, 86
1, 31466, Note_on_c, 0, 64, 87
1, 31479, Note_on_c, 0, 60, 71
1, 31484, Note_on_c, 0, 69, 53
1, 31485, Note_off_c, 0, 69, 127
1, 31486, Note_on_c, 0, 62, 69
1, 31486, Note_off_c, 0, 81, 68
1, 31490, Note_on_c, 0, 59, 39
1, 31490, Note_off_c, 0, 84, 67
1, 31493, Note_off_c, 0, 64, 66
1, 31494, Note_off_c, 0, 93, 68
1, 31495, Note_on_c, 0, 55, 17
1, 31498, Note_on_c, 0, 57, 41
1, 31502, Note_off_c, 0, 60, 65
1, 31504, Note_off_c, 0, 67, 63
1, 31505, Note_off_c, 0, 62, 65
1, 31522, Note_off_c, 0, 59, 42
1, 31531, Note_off_c, 0, 55, 41
1, 31532, Note_off_c, 0, 57, 44
1, 31666, Note_on_c, 0, 93, 96
1, 31668, Note_on_c, 0, 81, 100
1, 31668, Note_on_c, 0, 84, 96
1, 31671, Note_on_c, 0, 67, 105
1, 31672, Note_on_c, 0, 64, 92
1, 31677, Note_on_c, 0, 60, 82
1, 31679, Note_on_c, 0, 55, 82
1, 31685, Note_on_c, 0, 88, 62
1, 31697, Note_on_c, 0, 83, 60
1, 31698, Note_off_c, 0, 83, 127
1, 31698, Note_on_c, 0, 92, 51
1, 31699, Note_off_c, 0, 92, 127
1, 31701, Note_off_c, 0, 88, 69
1, 31705, Note_off_c, 0, 55, 65
1, 31706, Note_off_c, 0, 64, 62
1, 31709, Note_off_c, 0, 81, 62
1, 31710, Note_off_c, 0, 84, 65
1, 31719, Note_off_c, 0, 60, 59
1, 31723, Note_off_c, 0, 93, 62
1, 31728, Note_off_c, 0, 67, 60
1, 31936, Note_on_c, 0, 59, 68
1, 31936, Note_on_c, 0, 95, 99
1, 31937, Note_on_c, 0, 83, 102
1, 31937, Note_on_c, 0, 86, 99
1, 31938, Note_on_c, 0, 67, 101
1, 31941, Note_on_c, 0, 89, 88
1, 31942, Note_on_c, 0, 62, 88
1, 31944, Note_on_c, 0, 55, 91
1, 31946, Note_on_c, 0, 65, 91
1, 31952, Control_c, 0, 64, 67
1, 31966, Control_c, 0, 64, 127
1, 32038, Poly_aftertouch_c, 0, 60, 0
1, 32062, Poly_aftertouch_c, 0, 60, 0
1, 32062, Note_off_c, 0, 95, 57
1, 32121, Note_off_c, 0, 89, 39
1, 32125, Note_off_c, 0, 65, 54
1, 32127, Note_off_c, 0, 67, 60
1, 32137, Note_off_c, 0, 55, 60
1, 32144, Note_off_c, 0, 59, 63
1, 32144, Note_off_c, 0, 86, 56
1, 32146, Note_off_c, 0, 62, 62
1, 32270, Note_off_c, 0, 83, 21
1, 32350, Note_on_c, 0, 55, 85
1, 32351, Note_on_c, 0, 59, 89
1, 32351, Note_on_c, 0, 62, 93
1, 32351, Note_on_c, 0, 65, 94
1, 32351, Note_on_c, 0, 83, 93
1, 32352, Note_on_c, 0, 67, 97
1, 32352, Note_on_c, 0, 86, 95
1, 32354, Note_on_c, 0, 95, 91
1, 32354, Note_on_c, 0, 89, 83
1, 32378, Note_off_c, 0, 62, 67
1, 32381, Note_off_c, 0, 65, 62
1, 32382, Note_off_c, 0, 83, 63
1, 32383, Note_off_c, 0, 67, 61
1, 32387, Note_off_c, 0, 89, 64
1, 32388, Note_off_c, 0, 59, 65
1, 32389, Note_off_c, 0, 86, 67
1, 32390, Note_off_c, 0, 55, 64
1, 32392, Note_off_c, 0, 95, 66
1, 32441, Note_on_c, 0, 67, 97
1, 32445, Note_on_c, 0, 88, 96
1, 32446, Note_on_c, 0, 62, 90
1, 32448, Note_on_c, 0, 84, 87
1, 32448, Note_on_c, 0, 96, 89
1, 32452, Note_on_c, 0, 55, 71
1, 32453, Note_on_c, 0, 65, 89
1, 32453, Note_on_c, 0, 91, 84
1, 32455, Note_on_c, 0, 59, 67
1, 32463, Note_on_c, 0, 60, 74
1, 32467, Note_off_c, 0, 65, 66
1, 32467, Note_off_c, 0, 84, 70
1, 32474, Note_on_c, 0, 57, 57
1, 32476, Note_off_c, 0, 62, 66
1, 32476, Note_off_c, 0, 91, 70
1, 32477, Note_off_c, 0, 55, 60
1, 32479, Note_on_c, 0, 69, 37
1, 32480, Note_off_c, 0, 69, 127
1, 32482, Note_off_c, 0, 67, 64
1, 32484, Note_off_c, 0, 59, 68
1, 32485, Note_off_c, 0, 88, 66
1, 32486, Note_off_c, 0, 96, 62
1, 32488, Note_off_c, 0, 60, 64
1, 32500, Control_c, 0, 64, 81
1, 32503, Note_off_c, 0, 57, 58
1, 32515, Control_c, 0, 64, 54
1, 32530, Control_c, 0, 64, 0
1, 32531, Note_on_c, 0, 62, 85
1, 32532, Note_on_c, 0, 55, 81
1, 32532, Note_on_c, 0, 98, 103
1, 32533, Note_on_c, 0, 89, 105
1, 32533, Note_on_c, 0, 67, 90
1, 32534, Note_on_c, 0, 59, 86
1, 32534, Note_on_c, 0, 65, 70
1, 32534, Note_on_c, 0, 86, 96
1, 32541, Note_on_c, 0, 93, 76
1, 32562, Note_off_c, 0, 93, 69
1, 32562, Note_on_c, 0, 84, 29
1, 32563, Note_off_c, 0, 86, 64
1, 32569, Note_off_c, 0, 55, 61
1, 32571, Note_off_c, 0, 65, 58
1, 32572, Note_off_c, 0, 89, 65
1, 32574, Note_off_c, 0, 67, 62
1, 32574, Note_off_c, 0, 98, 64
1, 32575, Note_off_c, 0, 62, 65
1, 32576, Note_off_c, 0, 59, 63
1, 32604, Note_off_c, 0, 84, 28
1, 32730, Control_c, 0, 64, 41
1, 32745, Control_c, 0, 64, 104
1, 32760, Note_on_c, 0, 62, 89
1, 32760, Control_c, 0, 64, 127
1, 32761, Note_on_c, 0, 67, 88
1, 32762, Note_on_c, 0, 65, 92
1, 32762, Note_on_c, 0, 100, 94
1, 32762, Note_on_c, 0, 55, 83
1, 32763, Note_on_c, 0, 59, 85
1, 32763, Note_on_c, 0, 91, 88
1, 32764, Note_on_c, 0, 88, 89
1, 32778, Note_off_c, 0, 100, 74
1, 32779, Note_off_c, 0, 65, 70
1, 32780, Note_off_c, 0, 67, 70
1, 32780, Note_off_c, 0, 91, 74
1, 32780, Note_off_c, 0, 62, 69
1, 32782, Note_off_c, 0, 88, 73
1, 32784, Note_off_c, 0, 55, 67
1, 32786, Note_off_c, 0, 59, 68
1, 32838, Note_on_c, 0, 67, 77
1, 32840, Note_on_c, 0, 59, 75
1, 32840, Note_on_c, 0, 62, 78
1, 32840, Note_on_c, 0, 65, 68
1, 32843, Note_on_c, 0, 55, 79
1, 32848, Note_on_c, 0, 98, 98
1, 32849, Note_on_c, 0, 86, 96
1, 32853, Note_on_c, 0, 89, 81
1, 32864, Note_off_c, 0, 65, 65
1, 32868, Note_off_c, 0, 86, 72
1, 32868, Note_off_c, 0, 89, 69
1, 32869, Note_off_c, 0, 59, 63
1, 32870, Note_off_c, 0, 55, 64
1, 32870, Note_off_c, 0, 67, 63
1, 32871, Note_off_c, 0, 62, 66
1, 32871, Note_off_c, 0, 98, 63
1, 32933, Note_on_c, 0, 55, 73
1, 32935, Note_on_c, 0, 84, 95
1, 32936, Note_on_c, 0, 96, 96
1, 32937, Note_on_c, 0, 62, 83
1, 32937, Note_on_c, 0, 67, 88
1, 32938, Note_on_c, 0, 59, 85
1, 32938, Note_on_c, 0, 88, 71
1, 32939, Note_on_c, 0, 65, 72
1, 32962, Note_off_c, 0, 84, 64
1, 32964, Note_off_c, 0, 62, 62
1, 32965, Note_off_c, 0, 88, 69
1, 32966, Note_on_c, 0, 89, 6
1, 32967, Note_off_c, 0, 65, 66
1, 32968, Note_off_c, 0, 55, 57
1, 32968, Note_off_c, 0, 96, 57
1, 32969, Note_off_c, 0, 67, 65
1, 32971, Note_off_c, 0, 59, 67
1, 33013, Note_off_c, 0, 89, 33
1, 33028, Note_on_c, 0, 86, 72
1, 33029, Note_on_c, 0, 83, 94
1, 33031, Note_on_c, 0, 95, 93
1, 33034, Note_on_c, 0, 55, 67
1, 33039, Note_on_c, 0, 67, 73
1, 33041, Note_on_c, 0, 59, 72
1, 33042, Control_c, 0, 64, 103
1, 33050, Note_off_c, 0, 83, 61
1, 33051, Note_on_c, 0, 64, 58
1, 33054, Note_on_c, 0, 62, 54
1, 33056, Control_c, 0, 64, 50
1, 33058, Note_off_c, 0, 86, 64
1, 33062, Note_off_c, 0, 67, 64
1, 33063, Note_off_c, 0, 95, 63
1, 33063, Note_off_c, 0, 59, 69
1, 33065, Note_off_c, 0, 55, 65
1, 33071, Note_off_c, 0, 64, 61
1, 33071, Control_c, 0, 64, 0
1, 33078, Note_on_c, 0, 89, 6
1, 33079, Note_off_c, 0, 89, 127
1, 33081, Note_off_c, 0, 62, 49
1, 33122, Note_on_c, 0, 81, 94
1, 33122, Note_on_c, 0, 84, 92
1, 33122, Note_on_c, 0, 93, 95
1, 33127, Note_on_c, 0, 67, 98
1, 33129, Note_on_c, 0, 64, 91
1, 33135, Note_on_c, 0, 59, 52
1, 33137, Note_on_c, 0, 55, 65
1, 33146, Note_off_c, 0, 81, 66
1, 33147, Note_on_c, 0, 60, 55
1, 33150, Note_on_c, 0, 88, 61
1, 33156, Note_off_c, 0, 64, 67
1, 33157, Note_off_c, 0, 84, 65
1, 33157, Note_off_c, 0, 93, 66
1, 33163, Note_off_c, 0, 59, 67
1, 33167, Note_off_c, 0, 55, 66
1, 33168, Note_off_c, 0, 60, 60
1, 33168, Note_off_c, 0, 67, 63
1, 33172, Note_off_c, 0, 88, 40
1, 33186, Note_on_c, 0, 57, 13
1, 33237, Note_off_c, 0, 57, 28
1, 33325, Note_on_c, 0, 67, 95
1, 33325, Note_on_c, 0, 93, 106
1, 33327, Note_on_c, 0, 81, 109
1, 33327, Note_on_c, 0, 84, 101
1, 33328, Note_on_c, 0, 64, 90
1, 33333, Note_on_c, 0, 60, 70
1, 33337, Note_on_c, 0, 55, 78
1, 33353, Note_off_c, 0, 81, 64
1, 33356, Note_on_c, 0, 88, 66
1, 33359, Note_on_c, 0, 92, 58
1, 33362, Note_off_c, 0, 64, 67
1, 33367, Note_off_c, 0, 55, 67
1, 33367, Note_off_c, 0, 84, 65
1, 33371, Note_off_c, 0, 88, 67
1, 33372, Note_off_c, 0, 60, 66
1, 33372, Note_off_c, 0, 93, 66
1, 33376, Note_off_c, 0, 67, 63
1, 33380, Note_off_c, 0, 92, 64
1, 33580, Note_on_c, 0, 65, 101
1, 33580, Note_on_c, 0, 67, 101
1, 33582, Note_on_c, 0, 55, 93
1, 33582, Note_on_c, 0, 83, 103
1, 33583, Note_on_c, 0, 59, 93
1, 33583, Note_on_c, 0, 95, 102
1, 33585, Note_on_c, 0, 62, 92
1, 33586, Note_on_c, 0, 86, 96
1, 33594, Note_on_c, 0, 89, 94
1, 33627, Control_c, 0, 64, 65
1, 33642, Control_c, 0, 64, 127
1, 33797, Note_off_c, 0, 65, 45
1, 33799, Note_off_c, 0, 55, 33
1, 33802, Note_off_c, 0, 67, 58
1, 33818, Note_off_c, 0, 62, 61
1, 33827, Note_off_c, 0, 59, 62
1, 33866, Note_off_c, 0, 95, 52
1, 33901, Note_off_c, 0, 86, 54
1, 33926, Note_off_c, 0, 83, 38
1, 33937, Note_off_c, 0, 89, 38
1, 33999, Note_on_c, 0, 86, 97
1, 33999, Note_on_c, 0, 95, 95
1, 34000, Note_on_c, 0, 62, 95
1, 34000, Note_on_c, 0, 83, 100
1, 34002, Note_on_c, 0, 65, 93
1, 34003, Note_on_c, 0, 59, 86
1, 34003, Note_on_c, 0, 67, 93
1, 34004, Note_on_c, 0, 55, 82
1, 34007, Note_on_c, 0, 89, 87
1, 34029, Note_off_c, 0, 89, 67
1, 34029, Note_off_c, 0, 65, 62
1, 34031, Note_off_c, 0, 67, 60
1, 34032, Note_off_c, 0, 62, 64
1, 34033, Note_off_c, 0, 55, 63
1, 34033, Note_off_c, 0, 59, 65
1, 34034, Note_off_c, 0, 83, 64
1, 34036, Note_off_c, 0, 86, 66
1, 34036, Note_off_c, 0, 95, 68
1, 34097, Note_on_c, 0, 67, 98
1, 34098, Note_on_c, 0, 88, 97
1, 34102, Note_on_c, 0, 84, 84
1, 34103, Note_on_c, 0, 65, 88
1, 34106, Note_on_c, 0, 96, 90
1, 34107, Note_on_c, 0, 55, 79
1, 34108, Note_on_c, 0, 62, 81
1, 34110, Note_on_c, 0, 59, 74
1, 34110, Note_on_c, 0, 91, 73
1, 34123, Control_c, 0, 64, 89
1, 34125, Note_off_c, 0, 55, 61
1, 34126, Note_off_c, 0, 91, 65
1, 34127, Note_on_c, 0, 64, 50
1, 34129, Note_off_c, 0, 96, 65
1, 34130, Note_off_c, 0, 59, 66
1, 34131, Note_off_c, 0, 65, 60
1, 34134, Note_off_c, 0, 62, 67
1, 34134, Note_off_c, 0, 84, 59
1, 34137, Note_off_c, 0, 67, 64
1, 34137, Note_off_c, 0, 88, 67
1, 34138, Control_c, 0, 64, 65
1, 34151, Note_off_c, 0, 64, 58
1, 34153, Control_c, 0, 64, 38
1, 34168, Control_c, 0, 64, 0
1, 34187, Note_on_c, 0, 55, 78
1, 34187, Note_on_c, 0, 65, 74
1, 34188, Note_on_c, 0, 62, 85
1, 34189, Note_on_c, 0, 67, 85
1, 34190, Note_on_c, 0, 59, 82
1, 34193, Note_on_c, 0, 89, 95
1, 34194, Note_on_c, 0, 86, 89
1, 34195, Note_on_c, 0, 98, 94
1, 34223, Note_off_c, 0, 62, 63
1, 34225, Note_off_c, 0, 59, 64
1, 34225, Note_off_c, 0, 65, 62
1, 34225, Note_off_c, 0, 86, 62
1, 34226, Note_on_c, 0, 93, 46
1, 34226, Note_off_c, 0, 55, 62
1, 34229, Note_off_c, 0, 67, 62
1, 34235, Note_off_c, 0, 89, 64
1, 34235, Note_off_c, 0, 98, 64
1, 34241, Note_on_c, 0, 92, 6
1, 34249, Note_off_c, 0, 93, 57
1, 34282, Note_off_c, 0, 92, 46
1, 34286, Note_on_c, 0, 65, 83
1, 34286, Note_on_c, 0, 100, 100
1, 34287, Note_on_c, 0, 88, 95
1, 34287, Note_on_c, 0, 91, 95
1, 34288, Note_on_c, 0, 67, 80
1, 34292, Note_on_c, 0, 55, 67
1, 34292, Note_on_c, 0, 62, 77
1, 34293, Note_on_c, 0, 59, 74
1, 34313, Note_off_c, 0, 88, 65
1, 34315, Note_on_c, 0, 95, 49
1, 34315, Note_off_c, 0, 65, 61
1, 34315, Note_off_c, 0, 67, 65
1, 34319, Note_off_c, 0, 62, 67
1, 34321, Note_off_c, 0, 91, 66
1, 34321, Note_off_c, 0, 55, 66
1, 34322, Note_off_c, 0, 59, 67
1, 34322, Note_off_c, 0, 100, 65
1, 34339, Note_off_c, 0, 95, 60
1, 34375, Note_on_c, 0, 65, 96
1, 34377, Note_on_c, 0, 62, 92
1, 34377, Control_c, 0, 64, 53
1, 34378, Note_on_c, 0, 55, 92
1, 34378, Note_on_c, 0, 59, 85
1, 34378, Note_on_c, 0, 67, 88
1, 34378, Note_on_c, 0, 86, 104
1, 34383, Note_on_c, 0, 89, 89
1, 34384, Note_on_c, 0, 98, 87
1, 34387, Note_on_c, 0, 91, 83
1, 34391, Note_on_c, 0, 100, 72
1, 34392, Control_c, 0, 64, 127
1, 34395, Note_off_c, 0, 86, 73
1, 34401, Note_off_c, 0, 89, 71
1, 34403, Note_off_c, 0, 62, 68
1, 34403, Note_off_c, 0, 91, 66
1, 34406, Note_off_c, 0, 98, 67
1, 34407, Note_on_c, 0, 97, 51
1, 34407, Note_off_c, 0, 55, 66
1, 34407, Note_off_c, 0, 59, 67
1, 34408, Note_off_c, 0, 100, 41
1, 34409, Note_off_c, 0, 67, 63
1, 34411, Note_off_c, 0, 65, 64
1, 34418, Note_on_c, 0, 93, 26
1, 34419, Note_off_c, 0, 93, 127
1, 34422, Control_c, 0, 64, 109
1, 34432, Note_off_c, 0, 97, 54
1, 34437, Control_c, 0, 64, 70
1, 34452, Control_c, 0, 64, 27
1, 34467, Control_c, 0, 64, 0
1, 34479, Note_on_c, 0, 91, 30
1, 34515, Note_off_c, 0, 91, 41
1, 34541, Control_c, 0, 64, 28
1, 34555, Control_c, 0, 64, 62
1, 34570, Control_c, 0, 64, 62
1, 34585, Control_c, 0, 64, 53
1, 34587, Note_on_c, 0, 65, 78
1, 34589, Note_on_c, 0, 59, 77
1, 34590, Note_on_c, 0, 62, 82
1, 34593, Note_on_c, 0, 55, 74
1, 34593, Note_on_c, 0, 67, 80
1, 34593, Note_on_c, 0, 96, 102
1, 34593, Note_on_c, 0, 84, 96
1, 34594, Note_on_c, 0, 88, 92
1, 34600, Control_c, 0, 64, 0
1, 34605, Note_off_c, 0, 65, 67
1, 34608, Note_off_c, 0, 96, 76
1, 34608, Note_on_c, 0, 91, 51
1, 34609, Note_off_c, 0, 91, 127
1, 34610, Note_off_c, 0, 67, 66
1, 34611, Note_off_c, 0, 88, 74
1, 34615, Note_off_c, 0, 84, 71
1, 34616, Note_off_c, 0, 62, 67
1, 34620, Note_off_c, 0, 59, 68
1, 34622, Note_off_c, 0, 55, 65
1, 34670, Note_on_c, 0, 59, 91
1, 34670, Note_on_c, 0, 62, 85
1, 34670, Note_on_c, 0, 67, 84
1, 34671, Note_on_c, 0, 55, 85
1, 34672, Note_on_c, 0, 95, 80
1, 34676, Note_on_c, 0, 86, 84
1, 34676, Note_on_c, 0, 90, 85
1, 34677, Note_on_c, 0, 83, 81
1, 34686, Note_on_c, 0, 65, 54
1, 34690, Note_off_c, 0, 83, 72
1, 34694, Note_off_c, 0, 90, 73
1, 34694, Note_off_c, 0, 95, 69
1, 34695, Note_off_c, 0, 86, 70
1, 34699, Note_off_c, 0, 67, 64
1, 34700, Note_off_c, 0, 62, 66
1, 34701, Note_off_c, 0, 55, 66
1, 34704, Note_off_c, 0, 59, 63
1, 34709, Note_off_c, 0, 65, 57
1, 34755, Note_on_c, 0, 84, 92
1, 34755, Note_on_c, 0, 93, 97
1, 34757, Note_on_c, 0, 81, 95
1, 34762, Note_on_c, 0, 67, 78
1, 34767, Note_on_c, 0, 60, 72
1, 34771, Note_on_c, 0, 65, 74
1, 34772, Note_on_c, 0, 64, 65
1, 34774, Note_on_c, 0, 62, 72
1, 34775, Note_off_c, 0, 81, 71
1, 34777, Note_on_c, 0, 55, 47
1, 34780, Note_on_c, 0, 92, 64
1, 34780, Note_off_c, 0, 84, 69
1, 34783, Note_on_c, 0, 59, 49
1, 34788, Note_off_c, 0, 65, 67
1, 34790, Note_off_c, 0, 93, 65
1, 34792, Note_on_c, 0, 86, 20
1, 34792, Note_off_c, 0, 62, 67
1, 34793, Note_off_c, 0, 67, 67
1, 34795, Note_off_c, 0, 64, 65
1, 34797, Note_off_c, 0, 60, 66
1, 34799, Note_off_c, 0, 92, 64
1, 34804, Note_on_c, 0, 95, 21
1, 34805, Note_off_c, 0, 95, 127
1, 34807, Note_off_c, 0, 55, 35
1, 34810, Note_off_c, 0, 59, 34
1, 34817, Note_off_c, 0, 86, 29
1, 34974, Note_on_c, 0, 67, 106
1, 34975, Note_on_c, 0, 81, 104
1, 34975, Note_on_c, 0, 93, 101
1, 34977, Note_on_c, 0, 84, 98
1, 34978, Note_on_c, 0, 64, 92
1, 34980, Note_on_c, 0, 60, 85
1, 34983, Note_on_c, 0, 55, 88
1, 34990, Note_on_c, 0, 88, 83
1, 34992, Control_c, 0, 64, 57
1, 35007, Control_c, 0, 64, 127
1, 35086, Note_off_c, 0, 81, 64
1, 35087, Poly_aftertouch_c, 0, 91, 0
1, 35097, Note_off_c, 0, 55, 59
1, 35098, Note_off_c, 0, 84, 64
1, 35103, Note_off_c, 0, 88, 62
1, 35105, Note_off_c, 0, 93, 60
1, 35109, Note_off_c, 0, 67, 62
1, 35112, Control_c, 0, 64, 92
1, 35114, Note_off_c, 0, 64, 64
1, 35126, Note_off_c, 0, 60, 63
1, 35126, Control_c, 0, 64, 47
1, 35141, Control_c, 0, 64, 0
1, 35177, Note_on_c, 0, 95, 98
1, 35178, Note_on_c, 0, 83, 88
1, 35182, Note_on_c, 0, 86, 88
1, 35184, Note_on_c, 0, 65, 88
1, 35186, Note_on_c, 0, 67, 90
1, 35187, Note_on_c, 0, 62, 82
1, 35189, Note_on_c, 0, 59, 78
1, 35190, Note_on_c, 0, 55, 81
1, 35190, Note_on_c, 0, 89, 68
1, 35198, Note_off_c, 0, 83, 70
1, 35202, Note_off_c, 0, 86, 71
1, 35206, Note_off_c, 0, 89, 68
1, 35207, Note_off_c, 0, 65, 68
1, 35207, Note_off_c, 0, 67, 68
1, 35213, Note_off_c, 0, 62, 69
1, 35213, Note_off_c, 0, 95, 66
1, 35216, Note_off_c, 0, 59, 68
1, 35218, Note_off_c, 0, 55, 67
1, 35374, Note_on_c, 0, 83, 112
1, 35375, Note_on_c, 0, 67, 110
1, 35377, Note_on_c, 0, 65, 109
1, 35378, Note_on_c, 0, 55, 91
1, 35378, Note_on_c, 0, 62, 93
1, 35378, Note_on_c, 0, 86, 87
1, 35379, Note_on_c, 0, 59, 85
1, 35380, Note_on_c, 0, 95, 86
1, 35384, Note_on_c, 0, 96, 104
1, 35385, Note_on_c, 0, 89, 97
1, 35389, Note_on_c, 0, 94, 69
1, 35390, Note_off_c, 0, 94, 127
1, 35392, Control_c, 0, 64, 58
1, 35395, Note_off_c, 0, 96, 69
1, 35397, Note_on_c, 0, 84, 44
1, 35398, Note_off_c, 0, 84, 127
1, 35398, Note_on_c, 0, 88, 53
1, 35399, Note_off_c, 0, 88, 127
1, 35407, Control_c, 0, 64, 127
1, 35458, Note_off_c, 0, 83, 59
1, 35458, Note_off_c, 0, 55, 65
1, 35462, Note_off_c, 0, 95, 65
1, 35469, Note_off_c, 0, 59, 65
1, 35469, Note_off_c, 0, 65, 56
1, 35469, Note_off_c, 0, 86, 54
1, 35473, Note_off_c, 0, 89, 60
1, 35475, Note_off_c, 0, 62, 65
1, 35476, Note_off_c, 0, 67, 61
1, 35582, Note_on_c, 0, 62, 85
1, 35583, Note_on_c, 0, 59, 82
1, 35592, Note_on_c, 0, 65, 86
1, 35592, Note_on_c, 0, 67, 85
1, 35593, Note_on_c, 0, 55, 80
1, 35598, Note_on_c, 0, 83, 84
1, 35598, Note_on_c, 0, 86, 78
1, 35599, Note_on_c, 0, 95, 86
1, 35617, Note_off_c, 0, 65, 64
1, 35619, Note_on_c, 0, 88, 53
1, 35621, Note_off_c, 0, 67, 65
1, 35621, Note_off_c, 0, 83, 68
1, 35621, Note_off_c, 0, 59, 66
1, 35623, Note_off_c, 0, 62, 65
1, 35624, Note_on_c, 0, 89, 39
1, 35625, Note_off_c, 0, 95, 64
1, 35627, Note_off_c, 0, 55, 65
1, 35627, Note_off_c, 0, 86, 68
1, 35641, Note_off_c, 0, 88, 38
1, 35645, Note_off_c, 0, 89, 58
1, 35684, Note_on_c, 0, 67, 90
1, 35684, Note_on_c, 0, 65, 86
1, 35687, Note_on_c, 0, 55, 79
1, 35689, Note_on_c, 0, 62, 86
1, 35690, Note_on_c, 0, 59, 83
1, 35692, Note_on_c, 0, 88, 93
1, 35694, Note_on_c, 0, 96, 93
1, 35695, Note_on_c, 0, 84, 82
1, 35696, Control_c, 0, 64, 66
1, 35709, Note_off_c, 0, 62, 68
1, 35710, Note_on_c, 0, 91, 64
1, 35710, Control_c, 0, 64, 0
1, 35712, Note_off_c, 0, 96, 72
1, 35713, Note_off_c, 0, 65, 56
1, 35713, Note_off_c, 0, 88, 68
1, 35714, Note_off_c, 0, 67, 60
1, 35715, Note_off_c, 0, 55, 64
1, 35717, Note_off_c, 0, 84, 68
1, 35721, Note_off_c, 0, 59, 67
1, 35731, Note_off_c, 0, 91, 63
1, 35775, Note_on_c, 0, 62, 79
1, 35778, Note_on_c, 0, 67, 88
1, 35779, Note_on_c, 0, 59, 82
1, 35779, Note_on_c, 0, 65, 83
1, 35781, Note_on_c, 0, 55, 85
1, 35782, Note_on_c, 0, 89, 84
1, 35784, Note_on_c, 0, 86, 88
1, 35785, Note_on_c, 0, 98, 95
1, 35800, Note_on_c, 0, 93, 61
1, 35804, Note_off_c, 0, 86, 68
1, 35807, Note_off_c, 0, 65, 61
1, 35809, Note_off_c, 0, 67, 65
1, 35812, Note_off_c, 0, 55, 63
1, 35815, Note_off_c, 0, 59, 66
1, 35815, Note_off_c, 0, 62, 65
1, 35818, Note_off_c, 0, 89, 64
1, 35818, Note_off_c, 0, 93, 65
1, 35818, Note_off_c, 0, 98, 59
1, 35874, Note_on_c, 0, 55, 79
1, 35874, Note_on_c, 0, 67, 90
1, 35876, Note_on_c, 0, 62, 90
1, 35876, Note_on_c, 0, 100, 99
1, 35877, Note_on_c, 0, 65, 81
1, 35879, Note_on_c, 0, 59, 89
1, 35879, Note_on_c, 0, 88, 92
1, 35880, Note_on_c, 0, 91, 85
1, 35901, Note_off_c, 0, 65, 65
1, 35902, Note_off_c, 0, 88, 66
1, 35902, Note_off_c, 0, 67, 67
1, 35904, Note_off_c, 0, 62, 69
1, 35907, Note_off_c, 0, 59, 69
1, 35908, Note_off_c, 0, 55, 67
1, 35910, Note_off_c, 0, 91, 64
1, 35913, Note_off_c, 0, 100, 63
1, 35934, Control_c, 0, 64, 49
1, 35943, Note_on_c, 0, 98, 6
1, 35944, Note_off_c, 0, 98, 127
1, 35949, Control_c, 0, 64, 89
1, 35964, Control_c, 0, 64, 101
1, 35967, Note_on_c, 0, 98, 58
1, 35970, Note_on_c, 0, 67, 104
1, 35970, Note_on_c, 0, 89, 94
1, 35970, Note_on_c, 0, 62, 89
1, 35973, Note_on_c, 0, 86, 92
1, 35973, Note_on_c, 0, 59, 83
1, 35973, Note_on_c, 0, 65, 58
1, 35977, Note_on_c, 0, 55, 83
1, 35979, Control_c, 0, 64, 98
1, 35993, Control_c, 0, 64, 70
1, 35995, Note_off_c, 0, 62, 71
1, 35997, Note_off_c, 0, 67, 58
1, 36000, Note_off_c, 0, 59, 69
1, 36000, Note_off_c, 0, 65, 65
1, 36001, Note_off_c, 0, 55, 66
1, 36001, Note_off_c, 0, 86, 53
1, 36004, Note_off_c, 0, 98, 65
1, 36008, Note_on_c, 0, 93, 27
1, 36008, Control_c, 0, 64, 37
1, 36009, Note_off_c, 0, 89, 64
1, 36016, Note_on_c, 0, 96, 31
1, 36017, Note_off_c, 0, 96, 127
1, 36023, Control_c, 0, 64, 0
1, 36032, Note_off_c, 0, 93, 56
1, 36053, Control_c, 0, 64, 14
1, 36062, Note_on_c, 0, 65, 90
1, 36062, Note_on_c, 0, 55, 79
1, 36062, Note_on_c, 0, 62, 89
1, 36062, Note_on_c, 0, 67, 91
1, 36062, Note_on_c, 0, 96, 34
1, 36064, Note_on_c, 0, 88, 97
1, 36065, Note_on_c, 0, 84, 93
1, 36065, Note_on_c, 0, 59, 84
1, 36067, Control_c, 0, 64, 49
1, 36082, Control_c, 0, 64, 49
1, 36089, Note_on_c, 0, 91, 57
1, 36089, Note_off_c, 0, 65, 64
1, 36089, Note_off_c, 0, 62, 69
1, 36090, Note_off_c, 0, 67, 67
1, 36092, Note_off_c, 0, 55, 65
1, 36093, Note_off_c, 0, 59, 67
1, 36097, Control_c, 0, 64, 0
1, 36098, Note_off_c, 0, 96, 66
1, 36101, Note_off_c, 0, 84, 61
1, 36102, Note_off_c, 0, 88, 68
1, 36109, Note_off_c, 0, 91, 63
1, 36152, Note_on_c, 0, 59, 69
1, 36154, Note_on_c, 0, 55, 75
1, 36154, Note_on_c, 0, 67, 85
1, 36155, Note_on_c, 0, 62, 85
1, 36156, Note_on_c, 0, 65, 80
1, 36158, Note_on_c, 0, 86, 89
1, 36159, Note_on_c, 0, 83, 93
1, 36161, Note_on_c, 0, 95, 87
1, 36171, Control_c, 0, 64, 29
1, 36184, Note_on_c, 0, 89, 58
1, 36184, Note_off_c, 0, 62, 66
1, 36186, Note_off_c, 0, 55, 65
1, 36186, Control_c, 0, 64, 0
1, 36187, Note_off_c, 0, 65, 61
1, 36189, Note_off_c, 0, 95, 63
1, 36189, Note_off_c, 0, 67, 65
1, 36193, Note_off_c, 0, 59, 65
1, 36196, Note_off_c, 0, 83, 63
1, 36199, Note_off_c, 0, 86, 67
1, 36205, Note_off_c, 0, 89, 60
1, 36249, Note_on_c, 0, 84, 80
1, 36250, Note_on_c, 0, 67, 89
1, 36252, Note_on_c, 0, 62, 84
1, 36252, Note_on_c, 0, 65, 72
1, 36252, Note_on_c, 0, 81, 93
1, 36256, Note_on_c, 0, 55, 75
1, 36256, Note_on_c, 0, 59, 75
1, 36259, Note_on_c, 0, 93, 77
1, 36265, Note_on_c, 0, 92, 66
1, 36274, Note_off_c, 0, 93, 66
1, 36277, Note_off_c, 0, 81, 55
1, 36279, Note_off_c, 0, 65, 64
1, 36279, Note_off_c, 0, 62, 68
1, 36280, Note_off_c, 0, 67, 65
1, 36280, Note_off_c, 0, 92, 67
1, 36285, Note_off_c, 0, 55, 66
1, 36286, Note_off_c, 0, 59, 67
1, 36287, Note_off_c, 0, 84, 67
1, 36348, Note_on_c, 0, 55, 85
1, 36348, Note_on_c, 0, 59, 84
1, 36348, Note_on_c, 0, 67, 93
1, 36349, Note_on_c, 0, 65, 85
1, 36350, Note_on_c, 0, 62, 93
1, 36350, Note_on_c, 0, 83, 96
1, 36351, Note_on_c, 0, 79, 97
1, 36353, Note_on_c, 0, 91, 87
1, 36367, Note_on_c, 0, 90, 69
1, 36381, Note_off_c, 0, 62, 66
1, 36385, Note_off_c, 0, 79, 65
1, 36385, Note_off_c, 0, 91, 62
1, 36390, Note_on_c, 0, 86, 45
1, 36391, Note_off_c, 0, 86, 127
1, 36391, Note_off_c, 0, 59, 64
1, 36391, Note_off_c, 0, 83, 68
1, 36392, Note_off_c, 0, 55, 63
1, 36392, Note_off_c, 0, 67, 62
1, 36393, Note_off_c, 0, 65, 61
1, 36393, Note_off_c, 0, 90, 68
1, 36558, Note_on_c, 0, 77, 98
1, 36558, Note_on_c, 0, 89, 105
1, 36560, Note_on_c, 0, 81, 96
1, 36564, Note_on_c, 0, 62, 84
1, 36565, Note_on_c, 0, 65, 79
1, 36567, Note_on_c, 0, 59, 81
1, 36568, Note_on_c, 0, 55, 81
1, 36568, Note_on_c, 0, 67, 84
1, 36593, Note_off_c, 0, 62, 67
1, 36596, Note_off_c, 0, 67, 63
1, 36596, Note_off_c, 0, 77, 60
1, 36598, Note_off_c, 0, 65, 61
1, 36602, Note_off_c, 0, 55, 64
1, 36604, Note_off_c, 0, 81, 62
1, 36605, Note_off_c, 0, 59, 64
1, 36606, Note_off_c, 0, 89, 62
1, 36611, Note_on_c, 0, 84, 19
1, 36634, Note_on_c, 0, 79, 9
1, 36656, Note_off_c, 0, 84, 29
1, 36669, Note_off_c, 0, 79, 37
1, 36781, Note_on_c, 0, 88, 97
1, 36782, Note_on_c, 0, 76, 106
1, 36782, Note_on_c, 0, 79, 89
1, 36786, Control_c, 0, 64, 53
1, 36787, Note_on_c, 0, 67, 99
1, 36792, Note_on_c, 0, 55, 76
1, 36792, Note_on_c, 0, 64, 80
1, 36796, Note_on_c, 0, 59, 81
1, 36801, Control_c, 0, 64, 127
1, 36804, Note_on_c, 0, 83, 65
1, 36812, Note_off_c, 0, 64, 69
1, 36816, Note_off_c, 0, 67, 62
1, 36818, Note_off_c, 0, 59, 70
1, 36819, Note_off_c, 0, 76, 62
1, 36820, Note_off_c, 0, 83, 65
1, 36821, Note_off_c, 0, 55, 67
1, 36822, Note_off_c, 0, 88, 63
1, 36826, Note_off_c, 0, 79, 67
1, 36882, Poly_aftertouch_c, 0, 87, 0
1, 36888, Note_on_c, 0, 64, 31
1, 36915, Note_off_c, 0, 64, 59
1, 36928, Note_on_c, 0, 59, 12
1, 36961, Note_off_c, 0, 59, 34
1, 37211, Note_on_c, 0, 40, 73
1, 37212, Note_on_c, 0, 52, 101
1, 37260, Note_off_c, 0, 52, 65
1, 37266, Note_off_c, 0, 40, 62
1, 37308, Note_on_c, 0, 52, 86
1, 37347, Note_off_c, 0, 52, 63
1, 37380, Note_on_c, 0, 47, 85
1, 37389, Note_on_c, 0, 35, 70
1, 37410, Note_off_c, 0, 47, 68
1, 37421, Note_off_c, 0, 35, 64
1, 37475, Note_on_c, 0, 47, 50
1, 37506, Note_off_c, 0, 47, 60
1, 37578, Control_c, 0, 64, 76
1, 37593, Control_c, 0, 64, 31
1, 37608, Control_c, 0, 64, 0
1, 37624, Note_on_c, 0, 71, 93
1, 37625, Note_on_c, 0, 40, 98
1, 37627, Note_on_c, 0, 28, 86
1, 37628, Note_on_c, 0, 64, 90
1, 37650, Note_off_c, 0, 28, 67
1, 37652, Control_c, 0, 64, 43
1, 37667, Control_c, 0, 64, 70
1, 37670, Note_off_c, 0, 71, 66
1, 37672, Note_off_c, 0, 64, 65
1, 37675, Note_off_c, 0, 40, 65
1, 37682, Control_c, 0, 64, 127
1, 37690, Note_on_c, 0, 62, 75
1, 37717, Note_off_c, 0, 62, 67
1, 37791, Note_on_c, 0, 57, 82
1, 37812, Note_off_c, 0, 57, 68
1, 37829, Note_on_c, 0, 76, 93
1, 37830, Control_c, 0, 64, 75
1, 37852, Control_c, 0, 64, 36
1, 37856, Note_off_c, 0, 76, 71
1, 37867, Control_c, 0, 64, 0
1, 37911, Control_c, 0, 67, 15
1, 37924, Note_on_c, 0, 57, 3
1, 37926, Control_c, 0, 67, 17
1, 37932, Note_on_c, 0, 76, 19
1, 37933, Note_off_c, 0, 76, 127
1, 37941, Control_c, 0, 67, 19
1, 37956, Control_c, 0, 67, 22
1, 37965, Note_off_c, 0, 57, 25
1, 37970, Control_c, 0, 67, 32
1, 37985, Control_c, 0, 67, 41
1, 38000, Control_c, 0, 67, 47
1, 38015, Control_c, 0, 67, 54
1, 38030, Control_c, 0, 67, 63
1, 38044, Control_c, 0, 67, 72
1, 38049, Note_on_c, 0, 65, 78
1, 38054, Note_on_c, 0, 74, 73
1, 38059, Control_c, 0, 64, 46
1, 38059, Control_c, 0, 67, 80
1, 38062, Note_on_c, 0, 57, 60
1, 38074, Control_c, 0, 64, 60
1, 38074, Control_c, 0, 67, 83
1, 38089, Control_c, 0, 64, 53
1, 38089, Control_c, 0, 67, 87
1, 38091, Note_off_c, 0, 74, 63
1, 38092, Note_off_c, 0, 65, 64
1, 38097, Note_on_c, 0, 45, 64
1, 38098, Note_off_c, 0, 57, 67
1, 38104, Control_c, 0, 64, 0
1, 38104, Control_c, 0, 67, 94
1, 38119, Control_c, 0, 67, 101
1, 38123, Note_off_c, 0, 45, 66
1, 38134, Control_c, 0, 67, 106
1, 38141, Note_on_c, 0, 71, 70
1, 38149, Control_c, 0, 67, 110
1, 38164, Control_c, 0, 67, 115
1, 38170, Note_off_c, 0, 71, 65
1, 38179, Control_c, 0, 67, 120
1, 38194, Control_c, 0, 67, 124
1, 38208, Control_c, 0, 67, 127
1, 38224, Control_c, 0, 67, 127
1, 38225, Note_on_c, 0, 28, 78
1, 38250, Note_on_c, 0, 40, 39
1, 38251, Note_on_c, 0, 41, 39
1, 38251, Note_on_c, 0, 76, 61
1, 38253, Note_off_c, 0, 28, 62
1, 38270, Note_off_c, 0, 76, 63
1, 38288, Note_off_c, 0, 40, 33
1, 38288, Note_off_c, 0, 41, 50
1, 38455, Note_on_c, 0, 74, 76
1, 38461, Note_on_c, 0, 66, 70
1, 38461, Control_c, 0, 64, 60
1, 38476, Control_c, 0, 64, 80
1, 38476, Control_c, 0, 67, 125
1, 38487, Note_on_c, 0, 57, 66
1, 38490, Note_off_c, 0, 66, 66
1, 38491, Control_c, 0, 64, 90
1, 38491, Control_c, 0, 67, 123
1, 38505, Control_c, 0, 64, 98
1, 38505, Control_c, 0, 67, 121
1, 38506, Note_on_c, 0, 62, 58
1, 38515, Note_off_c, 0, 57, 65
1, 38519, Note_on_c, 0, 45, 60
1, 38520, Control_c, 0, 64, 120
1, 38520, Control_c, 0, 67, 120
1, 38527, Note_off_c, 0, 74, 59
1, 38535, Control_c, 0, 64, 127
1, 38550, Note_off_c, 0, 45, 66
1, 38550, Note_off_c, 0, 62, 65
1, 38550, Control_c, 0, 67, 120
1, 38565, Control_c, 0, 67, 121
1, 38587, Control_c, 0, 67, 123
1, 38602, Control_c, 0, 67, 125
1, 38617, Control_c, 0, 64, 73
1, 38617, Control_c, 0, 67, 126
1, 38632, Control_c, 0, 64, 0
1, 38632, Control_c, 0, 67, 127
1, 38665, Note_on_c, 0, 28, 74
1, 38668, Note_on_c, 0, 40, 69
1, 38669, Note_on_c, 0, 76, 75
1, 38685, Note_off_c, 0, 76, 69
1, 38691, Note_off_c, 0, 40, 62
1, 38697, Note_off_c, 0, 28, 62
1, 38854, Control_c, 0, 67, 124
1, 38864, Note_on_c, 0, 74, 82
1, 38868, Control_c, 0, 67, 123
1, 38874, Note_on_c, 0, 67, 66
1, 38893, Note_off_c, 0, 67, 64
1, 38898, Note_on_c, 0, 62, 66
1, 38898, Control_c, 0, 67, 123
1, 38906, Note_off_c, 0, 74, 64
1, 38907, Note_on_c, 0, 57, 64
1, 38913, Control_c, 0, 67, 121
1, 38918, Note_off_c, 0, 62, 66
1, 38927, Control_c, 0, 67, 119
1, 38932, Note_off_c, 0, 57, 66
1, 38937, Note_on_c, 0, 45, 52
1, 38942, Control_c, 0, 67, 118
1, 38957, Control_c, 0, 67, 115
1, 38963, Note_off_c, 0, 45, 60
1, 38972, Control_c, 0, 67, 113
1, 38986, Control_c, 0, 67, 112
1, 39001, Control_c, 0, 67, 112
1, 39017, Control_c, 0, 67, 108
1, 39032, Control_c, 0, 67, 101
1, 39047, Control_c, 0, 67, 90
1, 39062, Control_c, 0, 67, 75
1, 39067, Note_on_c, 0, 71, 95
1, 39074, Note_on_c, 0, 28, 69
1, 39077, Control_c, 0, 67, 57
1, 39080, Note_on_c, 0, 40, 60
1, 39091, Control_c, 0, 67, 35
1, 39101, Note_off_c, 0, 28, 61
1, 39102, Note_off_c, 0, 71, 65
1, 39106, Note_off_c, 0, 40, 58
1, 39106, Control_c, 0, 67, 0
1, 39305, Note_on_c, 0, 76, 91
1, 39314, Control_c, 0, 64, 53
1, 39315, Note_on_c, 0, 68, 86
1, 39329, Control_c, 0, 64, 127
1, 39362, Note_on_c, 0, 62, 59
1, 39364, Note_off_c, 0, 68, 65
1, 39373, Note_on_c, 0, 57, 65
1, 39407, Note_off_c, 0, 57, 67
1, 39413, Note_on_c, 0, 45, 62
1, 39445, Note_off_c, 0, 45, 66
1, 39448, Note_off_c, 0, 62, 64
1, 39530, Note_on_c, 0, 28, 74
1, 39532, Note_on_c, 0, 40, 73
1, 39539, Note_on_c, 0, 26, 56
1, 39540, Note_off_c, 0, 26, 127
1, 39541, Note_on_c, 0, 38, 55
1, 39554, Note_off_c, 0, 40, 63
1, 39556, Note_off_c, 0, 28, 57
1, 39568, Note_off_c, 0, 38, 57
1, 39576, Poly_aftertouch_c, 0, 26, 0
1, 39706, Control_c, 0, 64, 80
1, 39721, Control_c, 0, 64, 55
1, 39724, Note_on_c, 0, 74, 81
1, 39735, Control_c, 0, 64, 0
1, 39737, Note_on_c, 0, 69, 69
1, 39754, Note_on_c, 0, 62, 81
1, 39765, Control_c, 0, 64, 41
1, 39771, Note_off_c, 0, 69, 66
1, 39780, Control_c, 0, 64, 65
1, 39782, Note_on_c, 0, 57, 73
1, 39789, Note_off_c, 0, 76, 53
1, 39795, Control_c, 0, 64, 86
1, 39804, Note_off_c, 0, 62, 65
1, 39811, Control_c, 0, 64, 127
1, 39812, Note_off_c, 0, 57, 64
1, 39850, Note_off_c, 0, 74, 64
1, 39956, Note_on_c, 0, 38, 49
1, 39972, Note_on_c, 0, 26, 21
1, 39992, Note_off_c, 0, 38, 51
1, 40023, Note_off_c, 0, 26, 39
1, 40036, Poly_aftertouch_c, 0, 28, 0
1, 40048, Control_c, 0, 64, 100
1, 40063, Control_c, 0, 64, 71
1, 40077, Control_c, 0, 64, 48
1, 40099, Control_c, 0, 64, 0
1, 40106, Note_on_c, 0, 94, 74
1, 40141, Note_on_c, 0, 98, 83
1, 40150, Note_off_c, 0, 94, 63
1, 40167, Note_on_c, 0, 57, 53
1, 40173, Note_on_c, 0, 56, 29
1, 40203, Note_off_c, 0, 56, 42
1, 40211, Note_off_c, 0, 57, 0
1, 40211, Note_on_c, 0, 57, 48
1, 40217, Note_on_c, 0, 95, 92
1, 40238, Note_off_c, 0, 98, 64
1, 40270, Note_on_c, 0, 55, 70
1, 40281, Note_off_c, 0, 57, 64
1, 40287, Note_off_c, 0, 95, 63
1, 40311, Note_on_c, 0, 100, 101
1, 40321, Note_on_c, 0, 57, 85
1, 40322, Note_on_c, 0, 88, 86
1, 40323, Note_on_c, 0, 62, 103
1, 40332, Note_on_c, 0, 54, 88
1, 40337, Control_c, 0, 64, 87
1, 40341, Note_off_c, 0, 88, 70
1, 40343, Note_off_c, 0, 55, 65
1, 40343, Note_off_c, 0, 100, 67
1, 40352, Control_c, 0, 64, 127
1, 40361, Note_off_c, 0, 57, 64
1, 40364, Note_off_c, 0, 62, 67
1, 40376, Note_off_c, 0, 54, 66
1, 40404, Note_on_c, 0, 88, 14
1, 40405, Note_off_c, 0, 88, 127
1, 40438, Poly_aftertouch_c, 0, 88, 0
1, 40556, Note_on_c, 0, 52, 101
1, 40560, Note_on_c, 0, 40, 96
1, 40590, Note_off_c, 0, 40, 66
1, 40593, Note_off_c, 0, 52, 66
1, 40662, Note_on_c, 0, 52, 86
1, 40684, Note_off_c, 0, 52, 65
1, 40736, Note_on_c, 0, 47, 90
1, 40750, Note_on_c, 0, 35, 76
1, 40763, Note_off_c, 0, 47, 70
1, 40777, Note_off_c, 0, 35, 65
1, 40922, Control_c, 0, 64, 83
1, 40937, Control_c, 0, 64, 58
1, 40952, Control_c, 0, 64, 0
1, 40959, Note_on_c, 0, 29, 82
1, 40960, Note_on_c, 0, 41, 92
1, 40965, Note_on_c, 0, 71, 85
1, 40967, Note_on_c, 0, 65, 91
1, 40968, Note_on_c, 0, 72, 85
1, 40980, Note_off_c, 0, 29, 67
1, 40982, Control_c, 0, 64, 27
1, 40996, Control_c, 0, 64, 57
1, 41005, Note_off_c, 0, 41, 65
1, 41010, Note_on_c, 0, 36, 3
1, 41011, Control_c, 0, 64, 71
1, 41016, Note_off_c, 0, 72, 60
1, 41022, Note_off_c, 0, 65, 60
1, 41026, Control_c, 0, 64, 100
1, 41034, Note_off_c, 0, 71, 63
1, 41035, Note_on_c, 0, 64, 79
1, 41041, Control_c, 0, 64, 127
1, 41049, Note_off_c, 0, 36, 54
1, 41061, Note_off_c, 0, 64, 69
1, 41113, Note_on_c, 0, 62, 93
1, 41129, Poly_aftertouch_c, 0, 29, 0
1, 41130, Control_c, 0, 64, 87
1, 41140, Note_off_c, 0, 62, 68
1, 41145, Control_c, 0, 64, 63
1, 41160, Control_c, 0, 64, 23
1, 41166, Note_on_c, 0, 76, 96
1, 41174, Control_c, 0, 64, 0
1, 41189, Note_off_c, 0, 76, 66
1, 41371, Note_on_c, 0, 74, 82
1, 41381, Control_c, 0, 64, 45
1, 41382, Note_on_c, 0, 66, 70
1, 41395, Note_on_c, 0, 62, 70
1, 41396, Control_c, 0, 64, 68
1, 41407, Note_off_c, 0, 66, 65
1, 41412, Control_c, 0, 64, 70
1, 41426, Note_off_c, 0, 74, 63
1, 41431, Note_off_c, 0, 62, 67
1, 41445, Note_on_c, 0, 50, 70
1, 41457, Control_c, 0, 64, 69
1, 41468, Poly_aftertouch_c, 0, 54, 127
1, 41470, Note_on_c, 0, 71, 78
1, 41472, Note_off_c, 0, 50, 68
1, 41472, Control_c, 0, 64, 60
1, 41486, Control_c, 0, 64, 0
1, 41487, Poly_aftertouch_c, 0, 54, 0
1, 41495, Note_off_c, 0, 71, 66
1, 41530, Control_c, 0, 67, 8
1, 41560, Control_c, 0, 67, 9
1, 41565, Note_on_c, 0, 76, 85
1, 41570, Note_on_c, 0, 42, 83
1, 41575, Control_c, 0, 67, 12
1, 41594, Note_on_c, 0, 30, 56
1, 41595, Note_off_c, 0, 30, 127
1, 41595, Note_off_c, 0, 76, 70
1, 41598, Control_c, 0, 67, 17
1, 41600, Note_off_c, 0, 42, 67
1, 41612, Control_c, 0, 67, 21
1, 41657, Control_c, 0, 67, 20
1, 41672, Control_c, 0, 67, 19
1, 41686, Control_c, 0, 67, 18
1, 41701, Control_c, 0, 67, 17
1, 41716, Control_c, 0, 67, 15
1, 41731, Control_c, 0, 67, 14
1, 41745, Control_c, 0, 67, 12
1, 41760, Control_c, 0, 67, 8
1, 41775, Control_c, 0, 67, 0
1, 41785, Note_on_c, 0, 74, 77
1, 41790, Control_c, 0, 64, 58
1, 41792, Note_on_c, 0, 67, 69
1, 41797, Note_on_c, 0, 54, 33
1, 41805, Control_c, 0, 64, 64
1, 41819, Note_on_c, 0, 64, 74
1, 41819, Note_off_c, 0, 67, 66
1, 41819, Control_c, 0, 64, 68
1, 41834, Note_on_c, 0, 62, 68
1, 41834, Control_c, 0, 64, 74
1, 41844, Poly_aftertouch_c, 0, 56, 127
1, 41848, Note_on_c, 0, 56, 2
1, 41849, Control_c, 0, 64, 92
1, 41851, Note_off_c, 0, 64, 68
1, 41855, Note_off_c, 0, 74, 62
1, 41862, Note_off_c, 0, 62, 67
1, 41864, Control_c, 0, 64, 127
1, 41871, Note_on_c, 0, 50, 70
1, 41871, Note_off_c, 0, 54, 59
1, 41885, Note_off_c, 0, 56, 41
1, 41893, Note_off_c, 0, 50, 68
1, 41952, Control_c, 0, 64, 81
1, 41967, Control_c, 0, 64, 46
1, 41982, Control_c, 0, 64, 0
1, 41983, Note_on_c, 0, 76, 90
1, 41993, Note_on_c, 0, 43, 65
1, 42003, Note_off_c, 0, 76, 67
1, 42010, Note_on_c, 0, 31, 36
1, 42018, Note_off_c, 0, 43, 60
1, 42053, Note_off_c, 0, 31, 32
1, 42172, Note_on_c, 0, 74, 87
1, 42179, Note_on_c, 0, 68, 79
1, 42198, Note_on_c, 0, 64, 67
1, 42202, Note_off_c, 0, 68, 69
1, 42217, Note_off_c, 0, 64, 66
1, 42218, Note_off_c, 0, 74, 67
1, 42228, Note_on_c, 0, 62, 60
1, 42259, Note_off_c, 0, 62, 66
1, 42280, Note_on_c, 0, 50, 62
1, 42302, Note_off_c, 0, 50, 65
1, 42311, Poly_aftertouch_c, 0, 56, 0
1, 42389, Note_on_c, 0, 71, 99
1, 42400, Note_on_c, 0, 44, 83
1, 42404, Note_on_c, 0, 32, 78
1, 42419, Note_off_c, 0, 71, 65
1, 42426, Note_off_c, 0, 44, 65
1, 42435, Note_off_c, 0, 32, 62
1, 42598, Control_c, 0, 64, 25
1, 42611, Note_on_c, 0, 76, 99
1, 42613, Control_c, 0, 64, 65
1, 42618, Note_on_c, 0, 69, 86
1, 42628, Control_c, 0, 64, 81
1, 42641, Note_off_c, 0, 69, 70
1, 42642, Control_c, 0, 64, 111
1, 42647, Note_on_c, 0, 64, 80
1, 42657, Control_c, 0, 64, 127
1, 42659, Note_on_c, 0, 56, 32
1, 42666, Note_on_c, 0, 62, 73
1, 42693, Note_on_c, 0, 50, 78
1, 42699, Note_off_c, 0, 62, 68
1, 42701, Note_off_c, 0, 56, 61
1, 42712, Note_off_c, 0, 64, 65
1, 42728, Note_off_c, 0, 50, 68
1, 42751, Poly_aftertouch_c, 0, 54, 0
1, 42812, Note_on_c, 0, 33, 91
1, 42815, Note_on_c, 0, 45, 90
1, 42836, Note_off_c, 0, 45, 69
1, 42839, Note_off_c, 0, 33, 64
1, 42983, Control_c, 0, 64, 83
1, 42998, Control_c, 0, 64, 61
1, 43008, Note_on_c, 0, 74, 84
1, 43014, Control_c, 0, 64, 45
1, 43014, Note_on_c, 0, 70, 77
1, 43029, Control_c, 0, 64, 54
1, 43030, Note_on_c, 0, 64, 78
1, 43043, Note_on_c, 0, 62, 79
1, 43043, Control_c, 0, 64, 66
1, 43049, Note_off_c, 0, 76, 62
1, 43058, Note_off_c, 0, 70, 52
1, 43058, Control_c, 0, 64, 83
1, 43068, Note_on_c, 0, 50, 73
1, 43073, Control_c, 0, 64, 127
1, 43081, Note_off_c, 0, 64, 63
1, 43083, Note_off_c, 0, 62, 66
1, 43109, Note_off_c, 0, 50, 69
1, 43124, Note_off_c, 0, 74, 65
1, 43200, Note_on_c, 0, 34, 98
1, 43204, Note_on_c, 0, 46, 93
1, 43224, Note_off_c, 0, 46, 69
1, 43227, Note_off_c, 0, 34, 65
1, 43248, Note_on_c, 0, 94, 48
1, 43282, Note_off_c, 0, 94, 47
1, 43359, Poly_aftertouch_c, 0, 46, 0
1, 43372, Poly_aftertouch_c, 0, 34, 0
1, 43383, Note_on_c, 0, 94, 83
1, 43392, Note_on_c, 0, 58, 81
1, 43406, Control_c, 0, 64, 74
1, 43421, Control_c, 0, 64, 50
1, 43436, Control_c, 0, 64, 0
1, 43442, Note_on_c, 0, 98, 90
1, 43445, Note_off_c, 0, 94, 64
1, 43458, Note_on_c, 0, 57, 69
1, 43491, Note_off_c, 0, 58, 58
1, 43500, Note_on_c, 0, 55, 83
1, 43503, Note_on_c, 0, 95, 60
1, 43529, Note_off_c, 0, 98, 64
1, 43530, Note_off_c, 0, 57, 64
1, 43555, Note_off_c, 0, 55, 64
1, 43564, Note_off_c, 0, 95, 66
1, 43590, Note_on_c, 0, 57, 88
1, 43591, Note_on_c, 0, 62, 99
1, 43595, Note_on_c, 0, 54, 87
1, 43595, Note_on_c, 0, 100, 103
1, 43598, Control_c, 0, 64, 60
1, 43606, Note_on_c, 0, 88, 85
1, 43613, Control_c, 0, 64, 86
1, 43626, Note_off_c, 0, 88, 73
1, 43627, Note_off_c, 0, 100, 65
1, 43628, Control_c, 0, 64, 118
1, 43634, Note_off_c, 0, 62, 67
1, 43636, Note_off_c, 0, 57, 64
1, 43643, Control_c, 0, 64, 127
1, 43646, Note_off_c, 0, 54, 66
1, 43808, Note_on_c, 0, 52, 104
1, 43813, Note_on_c, 0, 40, 101
1, 43854, Note_off_c, 0, 52, 67
1, 43855, Note_off_c, 0, 40, 63
1, 43927, Note_on_c, 0, 52, 87
1, 43959, Note_off_c, 0, 52, 61
1, 43997, Note_on_c, 0, 47, 92
1, 44001, Note_on_c, 0, 35, 86
1, 44022, Note_off_c, 0, 47, 69
1, 44026, Note_off_c, 0, 35, 64
1, 44075, Note_on_c, 0, 47, 57
1, 44099, Note_off_c, 0, 47, 62
1, 44199, Control_c, 0, 64, 108
1, 44214, Control_c, 0, 64, 68
1, 44229, Control_c, 0, 64, 21
1, 44244, Control_c, 0, 64, 0
1, 44251, Note_on_c, 0, 28, 87
1, 44251, Note_on_c, 0, 40, 100
1, 44258, Note_on_c, 0, 71, 93
1, 44262, Note_on_c, 0, 64, 86
1, 44274, Control_c, 0, 64, 49
1, 44275, Note_off_c, 0, 28, 67
1, 44288, Control_c, 0, 64, 66
1, 44290, Note_off_c, 0, 40, 64
1, 44303, Control_c, 0, 64, 81
1, 44318, Control_c, 0, 64, 127
1, 44337, Note_off_c, 0, 71, 63
1, 44344, Note_on_c, 0, 69, 77
1, 44360, Note_off_c, 0, 64, 58
1, 44375, Poly_aftertouch_c, 0, 29, 0
1, 44415, Note_off_c, 0, 69, 64
1, 44433, Note_on_c, 0, 64, 63
1, 44480, Control_c, 0, 64, 78
1, 44495, Control_c, 0, 64, 53
1, 44510, Control_c, 0, 64, 0
1, 44519, Note_on_c, 0, 76, 99
1, 44519, Note_on_c, 0, 62, 106
1, 44521, Note_on_c, 0, 50, 93
1, 44540, Control_c, 0, 64, 36
1, 44555, Control_c, 0, 64, 63
1, 44567, Note_off_c, 0, 62, 68
1, 44570, Control_c, 0, 64, 79
1, 44588, Note_off_c, 0, 50, 63
1, 44592, Control_c, 0, 64, 127
1, 44770, Control_c, 0, 64, 95
1, 44770, Control_c, 0, 67, 11
1, 44784, Note_off_c, 0, 64, 51
1, 44785, Control_c, 0, 64, 65
1, 44785, Control_c, 0, 67, 16
1, 44786, Note_off_c, 0, 76, 63
1, 44790, Note_on_c, 0, 40, 59
1, 44800, Control_c, 0, 64, 19
1, 44800, Control_c, 0, 67, 21
1, 44815, Control_c, 0, 64, 0
1, 44815, Control_c, 0, 67, 27
1, 44817, Note_on_c, 0, 74, 67
1, 44829, Control_c, 0, 67, 32
1, 44844, Control_c, 0, 67, 35
1, 44848, Note_off_c, 0, 40, 62
1, 44853, Note_on_c, 0, 47, 59
1, 44859, Control_c, 0, 64, 31
1, 44859, Control_c, 0, 67, 39
1, 44874, Control_c, 0, 64, 51
1, 44874, Control_c, 0, 67, 42
1, 44881, Note_off_c, 0, 47, 67
1, 44889, Control_c, 0, 64, 60
1, 44889, Control_c, 0, 67, 46
1, 44904, Control_c, 0, 64, 58
1, 44904, Control_c, 0, 67, 51
1, 44912, Note_on_c, 0, 71, 69
1, 44919, Control_c, 0, 64, 29
1, 44919, Control_c, 0, 67, 57
1, 44934, Control_c, 0, 64, 0
1, 44934, Control_c, 0, 67, 63
1, 44945, Note_off_c, 0, 74, 25
1, 44949, Control_c, 0, 67, 66
1, 44954, Note_on_c, 0, 52, 70
1, 44963, Control_c, 0, 67, 67
1, 44978, Control_c, 0, 67, 68
1, 44991, Note_on_c, 0, 57, 53
1, 44993, Note_off_c, 0, 52, 62
1, 44993, Control_c, 0, 67, 69
1, 45002, Note_off_c, 0, 71, 44
1, 45008, Control_c, 0, 67, 69
1, 45013, Note_on_c, 0, 59, 71
1, 45023, Control_c, 0, 64, 54
1, 45023, Control_c, 0, 67, 70
1, 45032, Note_on_c, 0, 76, 85
1, 45038, Control_c, 0, 64, 67
1, 45038, Control_c, 0, 67, 72
1, 45041, Note_on_c, 0, 64, 76
1, 45047, Note_off_c, 0, 59, 66
1, 45053, Control_c, 0, 64, 70
1, 45053, Control_c, 0, 67, 74
1, 45058, Note_off_c, 0, 57, 62
1, 45068, Note_on_c, 0, 52, 78
1, 45068, Control_c, 0, 64, 72
1, 45068, Control_c, 0, 67, 76
1, 45077, Note_off_c, 0, 64, 62
1, 45082, Control_c, 0, 64, 73
1, 45082, Control_c, 0, 67, 80
1, 45091, Note_off_c, 0, 76, 63
1, 45093, Note_off_c, 0, 52, 67
1, 45097, Control_c, 0, 64, 72
1, 45097, Control_c, 0, 67, 88
1, 45112, Control_c, 0, 64, 68
1, 45112, Control_c, 0, 67, 95
1, 45127, Control_c, 0, 64, 56
1, 45127, Control_c, 0, 67, 99
1, 45142, Control_c, 0, 64, 0
1, 45142, Control_c, 0, 67, 102
1, 45156, Control_c, 0, 67, 103
1, 45171, Control_c, 0, 67, 104
1, 45186, Control_c, 0, 67, 104
1, 45216, Control_c, 0, 67, 105
1, 45231, Note_on_c, 0, 40, 60
1, 45245, Control_c, 0, 64, 51
1, 45245, Control_c, 0, 67, 104
1, 45250, Note_on_c, 0, 74, 80
1, 45260, Control_c, 0, 64, 72
1, 45260, Control_c, 0, 67, 103
1, 45272, Note_off_c, 0, 40, 63
1, 45274, Control_c, 0, 64, 93
1, 45274, Control_c, 0, 67, 102
1, 45279, Note_on_c, 0, 47, 66
1, 45289, Control_c, 0, 64, 127
1, 45302, Note_off_c, 0, 47, 62
1, 45304, Control_c, 0, 67, 103
1, 45308, Note_off_c, 0, 74, 59
1, 45342, Control_c, 0, 67, 104
1, 45356, Control_c, 0, 67, 106
1, 45371, Control_c, 0, 64, 103
1, 45371, Control_c, 0, 67, 110
1, 45377, Note_on_c, 0, 52, 76
1, 45386, Control_c, 0, 64, 66
1, 45386, Control_c, 0, 67, 113
1, 45401, Control_c, 0, 64, 0
1, 45401, Control_c, 0, 67, 114
1, 45416, Control_c, 0, 67, 113
1, 45418, Note_on_c, 0, 57, 56
1, 45422, Note_off_c, 0, 52, 57
1, 45428, Poly_aftertouch_c, 0, 74, 0
1, 45439, Note_on_c, 0, 59, 75
1, 45446, Control_c, 0, 67, 115
1, 45461, Control_c, 0, 67, 119
1, 45465, Note_off_c, 0, 57, 63
1, 45475, Note_on_c, 0, 76, 83
1, 45476, Control_c, 0, 67, 122
1, 45476, Note_off_c, 0, 59, 65
1, 45477, Note_on_c, 0, 54, 79
1, 45485, Note_on_c, 0, 66, 64
1, 45491, Control_c, 0, 67, 123
1, 45505, Control_c, 0, 67, 124
1, 45506, Note_off_c, 0, 54, 69
1, 45509, Note_off_c, 0, 66, 62
1, 45518, Note_off_c, 0, 76, 62
1, 45520, Control_c, 0, 67, 125
1, 45579, Control_c, 0, 67, 124
1, 45594, Control_c, 0, 67, 123
1, 45609, Control_c, 0, 67, 122
1, 45624, Control_c, 0, 67, 120
1, 45639, Control_c, 0, 67, 117
1, 45652, Control_c, 0, 67, 114
1, 45656, Note_on_c, 0, 40, 71
1, 45667, Control_c, 0, 67, 111
1, 45682, Control_c, 0, 64, 68
1, 45682, Control_c, 0, 67, 106
1, 45685, Note_on_c, 0, 74, 80
1, 45693, Note_off_c, 0, 40, 64
1, 45697, Control_c, 0, 64, 97
1, 45697, Control_c, 0, 67, 104
1, 45711, Control_c, 0, 64, 127
1, 45711, Control_c, 0, 67, 102
1, 45712, Note_off_c, 0, 74, 68
1, 45720, Note_on_c, 0, 47, 46
1, 45726, Control_c, 0, 67, 103
1, 45741, Control_c, 0, 67, 108
1, 45753, Note_off_c, 0, 47, 56
1, 45756, Control_c, 0, 64, 76
1, 45756, Control_c, 0, 67, 113
1, 45771, Control_c, 0, 64, 10
1, 45771, Control_c, 0, 67, 117
1, 45786, Control_c, 0, 64, 0
1, 45786, Control_c, 0, 67, 120
1, 45801, Control_c, 0, 67, 121
1, 45814, Note_on_c, 0, 52, 49
1, 45818, Note_on_c, 0, 53, 50
1, 45831, Control_c, 0, 67, 122
1, 45842, Note_off_c, 0, 52, 59
1, 45845, Note_off_c, 0, 53, 56
1, 45846, Control_c, 0, 67, 124
1, 45849, Note_on_c, 0, 57, 49
1, 45860, Control_c, 0, 67, 125
1, 45863, Note_on_c, 0, 59, 68
1, 45875, Control_c, 0, 67, 126
1, 45884, Note_off_c, 0, 57, 55
1, 45887, Note_on_c, 0, 73, 76
1, 45890, Control_c, 0, 67, 127
1, 45899, Note_on_c, 0, 68, 57
1, 45899, Note_off_c, 0, 59, 67
1, 45899, Note_on_c, 0, 56, 76
1, 45904, Control_c, 0, 67, 127
1, 45919, Note_off_c, 0, 68, 64
1, 45925, Note_off_c, 0, 56, 67
1, 45930, Note_off_c, 0, 73, 58
1, 46023, Control_c, 0, 67, 126
1, 46038, Control_c, 0, 67, 122
1, 46052, Control_c, 0, 67, 119
1, 46067, Control_c, 0, 67, 114
1, 46068, Note_on_c, 0, 40, 65
1, 46090, Control_c, 0, 64, 53
1, 46090, Control_c, 0, 67, 107
1, 46099, Note_on_c, 0, 71, 83
1, 46104, Control_c, 0, 64, 71
1, 46104, Control_c, 0, 67, 97
1, 46118, Note_off_c, 0, 40, 63
1, 46119, Control_c, 0, 64, 83
1, 46119, Control_c, 0, 67, 86
1, 46134, Control_c, 0, 64, 127
1, 46134, Control_c, 0, 67, 76
1, 46136, Note_on_c, 0, 47, 55
1, 46149, Control_c, 0, 67, 67
1, 46162, Note_off_c, 0, 47, 59
1, 46164, Control_c, 0, 67, 54
1, 46178, Control_c, 0, 67, 37
1, 46193, Control_c, 0, 67, 20
1, 46209, Control_c, 0, 67, 0
1, 46227, Note_on_c, 0, 52, 61
1, 46231, Note_on_c, 0, 57, 75
1, 46251, Note_off_c, 0, 52, 63
1, 46254, Control_c, 0, 67, 9
1, 46257, Note_off_c, 0, 57, 66
1, 46269, Control_c, 0, 67, 11
1, 46283, Control_c, 0, 64, 72
1, 46283, Control_c, 0, 67, 15
1, 46294, Note_on_c, 0, 59, 76
1, 46298, Control_c, 0, 64, 47
1, 46298, Control_c, 0, 67, 22
1, 46313, Control_c, 0, 64, 0
1, 46313, Control_c, 0, 67, 29
1, 46316, Note_on_c, 0, 76, 83
1, 46319, Note_on_c, 0, 57, 67
1, 46321, Note_off_c, 0, 71, 60
1, 46325, Note_off_c, 0, 59, 69
1, 46327, Note_on_c, 0, 69, 74
1, 46327, Control_c, 0, 67, 36
1, 46342, Control_c, 0, 67, 41
1, 46361, Note_off_c, 0, 57, 64
1, 46364, Note_off_c, 0, 69, 64
1, 46387, Control_c, 0, 67, 43
1, 46401, Control_c, 0, 67, 46
1, 46416, Control_c, 0, 67, 50
1, 46431, Control_c, 0, 67, 51
1, 46446, Control_c, 0, 67, 52
1, 46461, Control_c, 0, 67, 55
1, 46463, Note_off_c, 0, 76, 32
1, 46475, Control_c, 0, 67, 61
1, 46490, Control_c, 0, 67, 69
1, 46510, Note_on_c, 0, 40, 59
1, 46520, Control_c, 0, 64, 29
1, 46520, Control_c, 0, 67, 66
1, 46522, Note_on_c, 0, 74, 75
1, 46534, Control_c, 0, 64, 65
1, 46534, Control_c, 0, 67, 65
1, 46543, Note_off_c, 0, 40, 63
1, 46549, Control_c, 0, 64, 83
1, 46549, Control_c, 0, 67, 65
1, 46564, Control_c, 0, 64, 99
1, 46564, Control_c, 0, 67, 68
1, 46578, Note_off_c, 0, 74, 59
1, 46579, Control_c, 0, 64, 99
1, 46579, Control_c, 0, 67, 68
1, 46594, Control_c, 0, 64, 89
1, 46594, Control_c, 0, 67, 69
1, 46609, Control_c, 0, 64, 69
1, 46609, Control_c, 0, 67, 72
1, 46611, Note_on_c, 0, 71, 77
1, 46624, Control_c, 0, 64, 43
1, 46624, Control_c, 0, 67, 76
1, 46638, Control_c, 0, 64, 0
1, 46638, Control_c, 0, 67, 83
1, 46640, Note_off_c, 0, 71, 63
1, 46643, Poly_aftertouch_c, 0, 47, 0
1, 46648, Note_on_c, 0, 52, 60
1, 46653, Control_c, 0, 67, 89
1, 46654, Note_on_c, 0, 53, 59
1, 46668, Control_c, 0, 67, 90
1, 46674, Note_on_c, 0, 57, 71
1, 46679, Note_off_c, 0, 52, 65
1, 46680, Note_off_c, 0, 53, 63
1, 46683, Control_c, 0, 67, 91
1, 46698, Note_on_c, 0, 59, 81
1, 46698, Control_c, 0, 67, 94
1, 46713, Control_c, 0, 67, 99
1, 46719, Note_on_c, 0, 76, 82
1, 46726, Note_on_c, 0, 67, 69
1, 46727, Control_c, 0, 67, 106
1, 46742, Control_c, 0, 67, 112
1, 46747, Note_off_c, 0, 59, 66
1, 46749, Note_off_c, 0, 57, 58
1, 46756, Note_on_c, 0, 55, 78
1, 46757, Control_c, 0, 67, 116
1, 46772, Control_c, 0, 67, 117
1, 46779, Note_off_c, 0, 67, 54
1, 46785, Note_off_c, 0, 55, 66
1, 46801, Control_c, 0, 67, 117
1, 46816, Control_c, 0, 67, 118
1, 46817, Note_off_c, 0, 76, 48
1, 46868, Control_c, 0, 67, 117
1, 46883, Control_c, 0, 67, 115
1, 46898, Control_c, 0, 67, 115
1, 46913, Control_c, 0, 64, 35
1, 46913, Control_c, 0, 67, 113
1, 46927, Control_c, 0, 64, 62
1, 46927, Control_c, 0, 67, 110
1, 46932, Note_on_c, 0, 71, 81
1, 46938, Note_on_c, 0, 40, 62
1, 46942, Control_c, 0, 64, 76
1, 46942, Control_c, 0, 67, 106
1, 46957, Control_c, 0, 64, 96
1, 46957, Control_c, 0, 67, 104
1, 46968, Note_off_c, 0, 40, 64
1, 46972, Control_c, 0, 64, 127
1, 46972, Control_c, 0, 67, 100
1, 46974, Note_off_c, 0, 71, 60
1, 46987, Control_c, 0, 67, 99
1, 47002, Control_c, 0, 67, 100
1, 47006, Note_on_c, 0, 47, 38
1, 47017, Control_c, 0, 67, 101
1, 47039, Note_off_c, 0, 47, 56
1, 47062, Control_c, 0, 67, 102
1, 47067, Note_on_c, 0, 52, 80
1, 47077, Control_c, 0, 67, 105
1, 47092, Control_c, 0, 67, 108
1, 47100, Note_on_c, 0, 57, 66
1, 47106, Control_c, 0, 67, 111
1, 47115, Note_off_c, 0, 52, 63
1, 47121, Control_c, 0, 67, 112
1, 47129, Note_on_c, 0, 59, 80
1, 47136, Control_c, 0, 67, 114
1, 47150, Control_c, 0, 64, 90
1, 47150, Control_c, 0, 67, 118
1, 47156, Note_on_c, 0, 76, 81
1, 47165, Control_c, 0, 64, 66
1, 47165, Control_c, 0, 67, 122
1, 47166, Note_off_c, 0, 57, 63
1, 47175, Note_off_c, 0, 59, 66
1, 47178, Note_on_c, 0, 53, 73
1, 47180, Control_c, 0, 64, 29
1, 47180, Control_c, 0, 67, 127
1, 47182, Note_on_c, 0, 65, 41
1, 47195, Control_c, 0, 64, 0
1, 47205, Note_off_c, 0, 53, 65
1, 47211, Note_off_c, 0, 65, 53
1, 47252, Note_off_c, 0, 76, 0
1, 47318, Poly_aftertouch_c, 0, 76, 0
1, 47328, Control_c, 0, 67, 124
1, 47343, Control_c, 0, 64, 48
1, 47343, Control_c, 0, 67, 119
1, 47357, Control_c, 0, 64, 66
1, 47357, Control_c, 0, 67, 118
1, 47360, Note_on_c, 0, 74, 74
1, 47372, Control_c, 0, 64, 72
1, 47375, Note_on_c, 0, 40, 44
1, 47378, Note_on_c, 0, 41, 55
1, 47387, Control_c, 0, 64, 82
1, 47387, Control_c, 0, 67, 117
1, 47402, Control_c, 0, 64, 98
1, 47402, Control_c, 0, 67, 116
1, 47406, Note_off_c, 0, 41, 55
1, 47410, Note_off_c, 0, 74, 63
1, 47411, Note_off_c, 0, 40, 50
1, 47417, Control_c, 0, 64, 127
1, 47417, Control_c, 0, 67, 115
1, 47431, Control_c, 0, 67, 116
1, 47446, Control_c, 0, 67, 122
1, 47449, Note_on_c, 0, 73, 74
1, 47461, Control_c, 0, 64, 124
1, 47461, Control_c, 0, 67, 127
1, 47476, Control_c, 0, 64, 85
1, 47482, Note_off_c, 0, 73, 65
1, 47491, Control_c, 0, 64, 64
1, 47492, Note_on_c, 0, 59, 71
1, 47506, Control_c, 0, 64, 24
1, 47512, Note_on_c, 0, 57, 49
1, 47521, Control_c, 0, 64, 0
1, 47546, Note_off_c, 0, 59, 64
1, 47550, Note_on_c, 0, 71, 74
1, 47558, Note_off_c, 0, 57, 64
1, 47560, Note_on_c, 0, 63, 61
1, 47562, Note_on_c, 0, 51, 73
1, 47596, Note_off_c, 0, 63, 67
1, 47601, Note_off_c, 0, 51, 70
1, 47602, Note_off_c, 0, 71, 62
1, 47721, Control_c, 0, 67, 126
1, 47735, Control_c, 0, 64, 37
1, 47735, Control_c, 0, 67, 119
1, 47750, Control_c, 0, 64, 58
1, 47750, Control_c, 0, 67, 117
1, 47765, Control_c, 0, 64, 63
1, 47765, Control_c, 0, 67, 113
1, 47780, Control_c, 0, 64, 69
1, 47780, Control_c, 0, 67, 107
1, 47783, Note_on_c, 0, 40, 70
1, 47794, Note_on_c, 0, 76, 73
1, 47795, Control_c, 0, 64, 80
1, 47795, Control_c, 0, 67, 101
1, 47810, Control_c, 0, 64, 108
1, 47810, Control_c, 0, 67, 95
1, 47822, Note_off_c, 0, 40, 64
1, 47823, Note_off_c, 0, 76, 65
1, 47825, Control_c, 0, 64, 127
1, 47825, Control_c, 0, 67, 88
1, 47828, Note_on_c, 0, 47, 66
1, 47837, Note_on_c, 0, 74, 23
1, 47840, Control_c, 0, 67, 79
1, 47855, Control_c, 0, 67, 66
1, 47865, Note_off_c, 0, 47, 66
1, 47870, Control_c, 0, 67, 49
1, 47873, Note_on_c, 0, 50, 66
1, 47873, Note_off_c, 0, 74, 44
1, 47884, Control_c, 0, 67, 26
1, 47898, Note_off_c, 0, 50, 68
1, 47899, Control_c, 0, 67, 0
1, 47965, Note_on_c, 0, 57, 65
1, 47985, Note_off_c, 0, 57, 63
1, 47986, Note_on_c, 0, 59, 57
1, 48020, Note_on_c, 0, 81, 92
1, 48025, Note_on_c, 0, 50, 69
1, 48025, Note_on_c, 0, 76, 82
1, 48029, Note_off_c, 0, 59, 63
1, 48030, Note_on_c, 0, 62, 84
1, 48053, Note_off_c, 0, 62, 71
1, 48053, Note_off_c, 0, 76, 61
1, 48059, Note_off_c, 0, 50, 68
1, 48084, Note_off_c, 0, 81, 57
1, 48216, Note_on_c, 0, 40, 73
1, 48221, Note_on_c, 0, 80, 82
1, 48225, Control_c, 0, 64, 83
1, 48236, Note_on_c, 0, 74, 61
1, 48240, Control_c, 0, 64, 69
1, 48254, Control_c, 0, 64, 66
1, 48255, Note_off_c, 0, 74, 64
1, 48263, Note_on_c, 0, 47, 55
1, 48267, Note_off_c, 0, 40, 61
1, 48269, Control_c, 0, 64, 70
1, 48284, Note_on_c, 0, 52, 83
1, 48284, Control_c, 0, 64, 81
1, 48289, Note_off_c, 0, 80, 63
1, 48295, Note_off_c, 0, 47, 65
1, 48299, Control_c, 0, 64, 108
1, 48307, Note_on_c, 0, 76, 85
1, 48314, Control_c, 0, 64, 127
1, 48314, Note_off_c, 0, 52, 67
1, 48367, Note_off_c, 0, 76, 66
1, 48410, Note_on_c, 0, 81, 97
1, 48412, Note_on_c, 0, 52, 76
1, 48418, Note_on_c, 0, 73, 87
1, 48420, Note_on_c, 0, 64, 85
1, 48441, Note_off_c, 0, 73, 68
1, 48444, Note_off_c, 0, 64, 70
1, 48452, Note_off_c, 0, 52, 65
1, 48460, Note_off_c, 0, 81, 63
1, 48624, Note_on_c, 0, 40, 73
1, 48633, Note_on_c, 0, 83, 91
1, 48641, Note_on_c, 0, 76, 84
1, 48648, Note_on_c, 0, 80, 75
1, 48656, Note_on_c, 0, 47, 56
1, 48662, Note_off_c, 0, 40, 64
1, 48674, Note_on_c, 0, 52, 85
1, 48683, Note_off_c, 0, 80, 61
1, 48686, Note_off_c, 0, 47, 66
1, 48710, Note_off_c, 0, 52, 62
1, 48726, Note_off_c, 0, 76, 61
1, 48760, Note_off_c, 0, 83, 65
1, 48822, Note_on_c, 0, 54, 86
1, 48822, Note_on_c, 0, 66, 92
1, 48834, Note_on_c, 0, 88, 96
1, 48838, Note_on_c, 0, 81, 97
1, 48847, Note_off_c, 0, 66, 68
1, 48858, Note_off_c, 0, 54, 63
1, 48866, Note_off_c, 0, 81, 66
1, 48873, Note_off_c, 0, 88, 69
1, 48973, Control_c, 0, 67, 8
1, 48988, Control_c, 0, 67, 9
1, 49002, Control_c, 0, 67, 10
1, 49017, Control_c, 0, 67, 12
1, 49032, Control_c, 0, 67, 14
1, 49033, Note_on_c, 0, 40, 69
1, 49050, Note_on_c, 0, 86, 81
1, 49059, Note_on_c, 0, 80, 65
1, 49062, Control_c, 0, 67, 14
1, 49074, Note_on_c, 0, 47, 45
1, 49080, Note_off_c, 0, 40, 62
1, 49084, Control_c, 0, 67, 15
1, 49088, Note_off_c, 0, 80, 60
1, 49092, Note_on_c, 0, 52, 76
1, 49099, Control_c, 0, 67, 18
1, 49114, Control_c, 0, 67, 24
1, 49115, Note_off_c, 0, 47, 66
1, 49119, Note_off_c, 0, 86, 63
1, 49128, Control_c, 0, 67, 30
1, 49137, Note_off_c, 0, 52, 66
1, 49140, Note_on_c, 0, 83, 80
1, 49141, Poly_aftertouch_c, 0, 74, 0
1, 49143, Control_c, 0, 67, 36
1, 49157, Poly_aftertouch_c, 0, 74, 0
1, 49158, Control_c, 0, 67, 40
1, 49173, Control_c, 0, 67, 46
1, 49188, Control_c, 0, 67, 53
1, 49190, Note_off_c, 0, 83, 64
1, 49202, Control_c, 0, 67, 61
1, 49217, Control_c, 0, 67, 71
1, 49232, Control_c, 0, 67, 84
1, 49244, Note_on_c, 0, 88, 87
1, 49247, Control_c, 0, 67, 98
1, 49250, Note_on_c, 0, 68, 86
1, 49257, Note_on_c, 0, 56, 74
1, 49262, Control_c, 0, 67, 108
1, 49264, Note_off_c, 0, 88, 72
1, 49277, Note_off_c, 0, 68, 65
1, 49277, Control_c, 0, 67, 111
1, 49283, Note_on_c, 0, 78, 29
1, 49284, Note_off_c, 0, 78, 127
1, 49289, Note_off_c, 0, 56, 65
1, 49291, Control_c, 0, 67, 113
1, 49306, Control_c, 0, 67, 116
1, 49321, Control_c, 0, 67, 118
1, 49336, Control_c, 0, 67, 121
1, 49342, Note_on_c, 0, 88, 10
1, 49351, Control_c, 0, 64, 109
1, 49351, Control_c, 0, 67, 122
1, 49366, Control_c, 0, 64, 73
1, 49366, Control_c, 0, 67, 123
1, 49370, Note_off_c, 0, 88, 43
1, 49381, Control_c, 0, 64, 58
1, 49381, Control_c, 0, 67, 124
1, 49396, Control_c, 0, 64, 31
1, 49396, Control_c, 0, 67, 124
1, 49411, Control_c, 0, 64, 0
1, 49411, Control_c, 0, 67, 125
1, 49426, Control_c, 0, 67, 126
1, 49440, Control_c, 0, 67, 127
1, 49455, Control_c, 0, 67, 127
1, 49549, Note_on_c, 0, 57, 41
1, 49574, Control_c, 0, 64, 49
1, 49589, Control_c, 0, 64, 59
1, 49601, Note_on_c, 0, 76, 59
1, 49604, Control_c, 0, 64, 63
1, 49618, Control_c, 0, 64, 63
1, 49621, Note_off_c, 0, 76, 62
1, 49648, Control_c, 0, 64, 63
1, 49661, Note_on_c, 0, 69, 53
1, 49661, Note_off_c, 0, 57, 0
1, 49663, Control_c, 0, 64, 56
1, 49678, Control_c, 0, 64, 39
1, 49691, Note_off_c, 0, 69, 58
1, 49692, Control_c, 0, 64, 0
1, 49698, Poly_aftertouch_c, 0, 57, 127
1, 49706, Note_on_c, 0, 71, 65
1, 49725, Note_off_c, 0, 71, 62
1, 49769, Note_on_c, 0, 69, 62
1, 49773, Note_on_c, 0, 61, 47
1, 49793, Note_off_c, 0, 69, 63
1, 49826, Note_on_c, 0, 81, 73
1, 49828, Poly_aftertouch_c, 0, 57, 0
1, 49833, Control_c, 0, 64, 38
1, 49848, Control_c, 0, 64, 59
1, 49849, Note_off_c, 0, 81, 66
1, 49863, Control_c, 0, 64, 66
1, 49877, Control_c, 0, 64, 71
1, 49892, Control_c, 0, 64, 76
1, 49900, Note_off_c, 0, 61, 56
1, 49907, Control_c, 0, 64, 80
1, 49920, Note_on_c, 0, 64, 50
1, 49922, Control_c, 0, 64, 83
1, 49937, Control_c, 0, 64, 85
1, 49951, Control_c, 0, 64, 86
1, 49981, Control_c, 0, 64, 86
1, 49995, Note_off_c, 0, 64, 54
1, 50011, Control_c, 0, 64, 86
1, 50022, Note_on_c, 0, 80, 67
1, 50025, Control_c, 0, 64, 84
1, 50040, Control_c, 0, 64, 77
1, 50049, Note_on_c, 0, 73, 61
1, 50055, Note_off_c, 0, 80, 60
1, 50055, Control_c, 0, 64, 63
1, 50056, Note_on_c, 0, 71, 52
1, 50069, Control_c, 0, 64, 31
1, 50084, Control_c, 0, 64, 0
1, 50093, Note_off_c, 0, 73, 57
1, 50096, Note_off_c, 0, 71, 45
1, 50117, Note_on_c, 0, 78, 65
1, 50153, Note_off_c, 0, 78, 62
1, 50173, Note_on_c, 0, 64, 48
1, 50186, Note_on_c, 0, 69, 71
1, 50219, Control_c, 0, 64, 26
1, 50230, Note_on_c, 0, 83, 78
1, 50232, Note_off_c, 0, 69, 63
1, 50234, Control_c, 0, 64, 58
1, 50248, Control_c, 0, 64, 66
1, 50257, Note_off_c, 0, 83, 67
1, 50263, Control_c, 0, 64, 72
1, 50278, Control_c, 0, 64, 80
1, 50293, Control_c, 0, 64, 91
1, 50308, Control_c, 0, 64, 113
1, 50323, Control_c, 0, 64, 127
1, 50323, Note_on_c, 0, 61, 52
1, 50326, Note_off_c, 0, 64, 33
1, 50395, Note_off_c, 0, 61, 49
1, 50427, Note_on_c, 0, 81, 79
1, 50452, Note_on_c, 0, 57, 56
1, 50456, Note_off_c, 0, 81, 58
1, 50456, Control_c, 0, 67, 126
1, 50471, Control_c, 0, 67, 124
1, 50486, Control_c, 0, 67, 120
1, 50495, Note_on_c, 0, 69, 67
1, 50500, Control_c, 0, 67, 120
1, 50515, Control_c, 0, 67, 123
1, 50530, Control_c, 0, 67, 123
1, 50531, Note_off_c, 0, 69, 63
1, 50538, Note_on_c, 0, 71, 73
1, 50545, Control_c, 0, 67, 123
1, 50560, Control_c, 0, 67, 123
1, 50562, Note_off_c, 0, 57, 59
1, 50564, Note_off_c, 0, 71, 67
1, 50582, Control_c, 0, 67, 126
1, 50597, Control_c, 0, 67, 127
1, 50633, Note_on_c, 0, 61, 52
1, 50633, Note_on_c, 0, 69, 52
1, 50656, Note_on_c, 0, 83, 83
1, 50660, Note_off_c, 0, 69, 58
1, 50677, Note_off_c, 0, 83, 70
1, 50719, Note_off_c, 0, 61, 60
1, 50753, Note_on_c, 0, 64, 49
1, 50822, Note_off_c, 0, 64, 57
1, 50842, Note_on_c, 0, 81, 83
1, 50869, Note_off_c, 0, 81, 64
1, 50871, Note_on_c, 0, 73, 53
1, 50899, Note_on_c, 0, 69, 70
1, 50908, Note_off_c, 0, 73, 64
1, 50932, Note_off_c, 0, 69, 57
1, 50967, Note_on_c, 0, 64, 52
1, 50968, Note_on_c, 0, 71, 52
1, 50988, Note_off_c, 0, 71, 61
1, 51032, Note_on_c, 0, 69, 68
1, 51060, Note_on_c, 0, 80, 81
1, 51066, Note_off_c, 0, 69, 67
1, 51080, Note_off_c, 0, 64, 49
1, 51083, Note_off_c, 0, 80, 65
1, 51110, Note_on_c, 0, 61, 59
1, 51176, Note_off_c, 0, 61, 52
1, 51205, Control_c, 0, 64, 110
1, 51220, Control_c, 0, 64, 75
1, 51235, Control_c, 0, 64, 56
1, 51250, Control_c, 0, 64, 0
1, 51250, Control_c, 0, 67, 126
1, 51264, Control_c, 0, 67, 123
1, 51278, Note_on_c, 0, 83, 87
1, 51279, Control_c, 0, 64, 30
1, 51279, Control_c, 0, 67, 117
1, 51289, Note_on_c, 0, 57, 58
1, 51294, Control_c, 0, 64, 54
1, 51294, Control_c, 0, 67, 116
1, 51295, Note_on_c, 0, 69, 58
1, 51301, Note_on_c, 0, 71, 61
1, 51315, Control_c, 0, 64, 67
1, 51330, Control_c, 0, 64, 79
1, 51330, Control_c, 0, 67, 114
1, 51345, Note_off_c, 0, 71, 58
1, 51345, Control_c, 0, 64, 101
1, 51345, Control_c, 0, 67, 113
1, 51349, Note_off_c, 0, 69, 64
1, 51350, Note_on_c, 0, 76, 76
1, 51354, Note_off_c, 0, 83, 65
1, 51360, Control_c, 0, 64, 127
1, 51360, Control_c, 0, 67, 111
1, 51375, Control_c, 0, 67, 108
1, 51390, Control_c, 0, 67, 104
1, 51401, Note_off_c, 0, 76, 61
1, 51405, Control_c, 0, 67, 101
1, 51420, Control_c, 0, 67, 98
1, 51429, Note_on_c, 0, 62, 60
1, 51429, Note_on_c, 0, 69, 70
1, 51435, Note_on_c, 0, 71, 46
1, 51435, Control_c, 0, 67, 95
1, 51450, Control_c, 0, 67, 91
1, 51465, Control_c, 0, 67, 85
1, 51475, Note_off_c, 0, 71, 55
1, 51476, Note_off_c, 0, 69, 64
1, 51479, Control_c, 0, 67, 76
1, 51480, Note_off_c, 0, 57, 27
1, 51494, Control_c, 0, 67, 69
1, 51500, Note_on_c, 0, 76, 51
1, 51509, Control_c, 0, 67, 59
1, 51522, Note_off_c, 0, 76, 58
1, 51523, Control_c, 0, 67, 45
1, 51538, Control_c, 0, 67, 25
1, 51553, Control_c, 0, 67, 0
1, 51554, Note_on_c, 0, 66, 46
1, 51557, Note_on_c, 0, 69, 49
1, 51564, Note_on_c, 0, 71, 46
1, 51588, Note_off_c, 0, 62, 29
1, 51593, Poly_aftertouch_c, 0, 75, 0
1, 51594, Note_off_c, 0, 71, 55
1, 51595, Note_on_c, 0, 76, 63
1, 51599, Note_off_c, 0, 69, 63
1, 51611, Note_on_c, 0, 75, 20
1, 51634, Note_off_c, 0, 76, 55
1, 51650, Note_off_c, 0, 75, 41
1, 51695, Note_on_c, 0, 69, 55
1, 51711, Note_on_c, 0, 71, 39
1, 51716, Note_off_c, 0, 66, 43
1, 51735, Note_on_c, 0, 76, 39
1, 51736, Note_off_c, 0, 71, 49
1, 51747, Note_off_c, 0, 69, 41
1, 51770, Note_on_c, 0, 74, 7
1, 51771, Note_off_c, 0, 76, 54
1, 51775, Note_on_c, 0, 80, 90
1, 51830, Poly_aftertouch_c, 0, 77, 0
1, 51831, Note_off_c, 0, 80, 63
1, 51855, Note_off_c, 0, 74, 51
1, 51936, Note_on_c, 0, 66, 59
1, 51977, Note_on_c, 0, 85, 94
1, 52034, Note_off_c, 0, 85, 66
1, 52034, Note_off_c, 0, 66, 59
1, 52084, Note_on_c, 0, 62, 42
1, 52126, Note_off_c, 0, 62, 48
1, 52197, Note_on_c, 0, 83, 91
1, 52215, Note_on_c, 0, 57, 61
1, 52237, Note_off_c, 0, 83, 66
1, 52284, Note_on_c, 0, 69, 64
1, 52311, Note_off_c, 0, 57, 56
1, 52338, Note_on_c, 0, 71, 65
1, 52340, Note_off_c, 0, 69, 61
1, 52350, Note_on_c, 0, 62, 55
1, 52359, Note_off_c, 0, 71, 60
1, 52460, Note_off_c, 0, 62, 58
1, 52469, Note_on_c, 0, 80, 64
1, 52539, Note_off_c, 0, 80, 58
1, 52541, Note_on_c, 0, 78, 73
1, 52547, Note_on_c, 0, 66, 28
1, 52568, Control_c, 0, 64, 82
1, 52584, Control_c, 0, 64, 65
1, 52599, Control_c, 0, 64, 52
1, 52603, Note_off_c, 0, 78, 64
1, 52614, Control_c, 0, 64, 44
1, 52626, Note_on_c, 0, 76, 74
1, 52629, Control_c, 0, 64, 46
1, 52643, Control_c, 0, 64, 56
1, 52651, Note_off_c, 0, 66, 40
1, 52652, Note_off_c, 0, 76, 66
1, 52658, Control_c, 0, 64, 65
1, 52673, Note_on_c, 0, 74, 42
1, 52673, Control_c, 0, 64, 76
1, 52687, Control_c, 0, 64, 92
1, 52702, Control_c, 0, 64, 116
1, 52717, Control_c, 0, 64, 127
1, 52784, Note_off_c, 0, 74, 44
1, 52856, Note_on_c, 0, 66, 59
1, 52857, Note_on_c, 0, 93, 91
1, 52863, Note_on_c, 0, 95, 102
1, 52868, Note_on_c, 0, 83, 89
1, 52904, Note_off_c, 0, 83, 64
1, 52927, Note_off_c, 0, 93, 65
1, 52932, Note_off_c, 0, 95, 68
1, 52947, Note_off_c, 0, 66, 59
1, 52981, Note_on_c, 0, 62, 51
1, 53032, Note_off_c, 0, 62, 59
1, 53069, Note_on_c, 0, 93, 101
1, 53075, Note_on_c, 0, 81, 92
1, 53079, Note_on_c, 0, 69, 68
1, 53082, Note_on_c, 0, 57, 70
1, 53084, Note_on_c, 0, 71, 72
1, 53110, Note_off_c, 0, 81, 64
1, 53117, Note_off_c, 0, 93, 66
1, 53170, Note_off_c, 0, 57, 57
1, 53183, Note_off_c, 0, 71, 45
1, 53214, Note_off_c, 0, 69, 36
1, 53219, Note_on_c, 0, 62, 49
1, 53279, Note_on_c, 0, 90, 76
1, 53280, Note_on_c, 0, 92, 98
1, 53281, Note_on_c, 0, 80, 84
1, 53299, Note_on_c, 0, 91, 65
1, 53300, Note_off_c, 0, 90, 56
1, 53307, Note_off_c, 0, 62, 58
1, 53315, Note_off_c, 0, 91, 66
1, 53321, Note_on_c, 0, 66, 66
1, 53328, Note_off_c, 0, 80, 63
1, 53332, Note_on_c, 0, 93, 31
1, 53345, Note_off_c, 0, 92, 66
1, 53347, Note_off_c, 0, 66, 67
1, 53365, Note_off_c, 0, 93, 42
1, 53495, Note_on_c, 0, 95, 101
1, 53500, Note_on_c, 0, 74, 47
1, 53502, Note_on_c, 0, 83, 89
1, 53510, Note_on_c, 0, 76, 58
1, 53523, Note_off_c, 0, 83, 69
1, 53532, Note_off_c, 0, 76, 59
1, 53533, Note_off_c, 0, 95, 68
1, 53569, Note_off_c, 0, 74, 54
1, 53650, Note_on_c, 0, 66, 59
1, 53703, Note_on_c, 0, 92, 81
1, 53720, Note_off_c, 0, 66, 61
1, 53770, Control_c, 0, 67, 8
1, 53779, Note_on_c, 0, 62, 61
1, 53785, Note_on_c, 0, 90, 75
1, 53785, Control_c, 0, 67, 10
1, 53797, Note_off_c, 0, 92, 34
1, 53799, Control_c, 0, 67, 13
1, 53804, Note_on_c, 0, 78, 49
1, 53814, Control_c, 0, 67, 17
1, 53821, Note_off_c, 0, 62, 61
1, 53822, Note_off_c, 0, 90, 63
1, 53827, Note_off_c, 0, 78, 57
1, 53829, Control_c, 0, 67, 21
1, 53844, Control_c, 0, 67, 25
1, 53859, Control_c, 0, 64, 79
1, 53859, Control_c, 0, 67, 29
1, 53873, Control_c, 0, 64, 59
1, 53873, Control_c, 0, 67, 32
1, 53888, Control_c, 0, 64, 38
1, 53888, Control_c, 0, 67, 35
1, 53903, Control_c, 0, 64, 42
1, 53903, Control_c, 0, 67, 39
1, 53906, Note_on_c, 0, 88, 79
1, 53906, Note_on_c, 0, 57, 55
1, 53918, Control_c, 0, 64, 55
1, 53918, Control_c, 0, 67, 41
1, 53929, Note_off_c, 0, 88, 68
1, 53933, Control_c, 0, 64, 65
1, 53933, Control_c, 0, 67, 44
1, 53945, Note_on_c, 0, 76, 48
1, 53948, Control_c, 0, 64, 74
1, 53948, Control_c, 0, 67, 50
1, 53963, Control_c, 0, 64, 86
1, 53963, Control_c, 0, 67, 60
1, 53969, Note_off_c, 0, 76, 57
1, 53977, Control_c, 0, 64, 98
1, 53977, Control_c, 0, 67, 69
1, 53992, Control_c, 0, 67, 76
1, 54007, Control_c, 0, 67, 81
1, 54009, Poly_aftertouch_c, 0, 86, 0
1, 54010, Note_off_c, 0, 57, 63
1, 54022, Control_c, 0, 64, 97
1, 54022, Control_c, 0, 67, 86
1, 54028, Note_on_c, 0, 71, 54
1, 54037, Control_c, 0, 64, 95
1, 54037, Control_c, 0, 67, 91
1, 54046, Note_on_c, 0, 69, 36
1, 54049, Note_off_c, 0, 71, 58
1, 54052, Control_c, 0, 64, 93
1, 54052, Control_c, 0, 67, 96
1, 54061, Note_on_c, 0, 61, 54
1, 54066, Control_c, 0, 64, 89
1, 54066, Control_c, 0, 67, 99
1, 54081, Control_c, 0, 64, 77
1, 54081, Control_c, 0, 67, 102
1, 54083, Note_off_c, 0, 69, 0
1, 54083, Note_on_c, 0, 69, 40
1, 54096, Control_c, 0, 64, 69
1, 54096, Control_c, 0, 67, 103
1, 54110, Control_c, 0, 64, 62
1, 54110, Control_c, 0, 67, 104
1, 54124, Note_off_c, 0, 69, 67
1, 54125, Control_c, 0, 64, 55
1, 54140, Control_c, 0, 64, 44
1, 54142, Note_on_c, 0, 81, 75
1, 54155, Control_c, 0, 64, 26
1, 54155, Control_c, 0, 67, 105
1, 54170, Control_c, 0, 64, 16
1, 54170, Control_c, 0, 67, 106
1, 54183, Note_off_c, 0, 61, 57
1, 54183, Note_off_c, 0, 81, 65
1, 54186, Control_c, 0, 64, 35
1, 54201, Control_c, 0, 64, 54
1, 54201, Control_c, 0, 67, 105
1, 54215, Control_c, 0, 64, 65
1, 54230, Control_c, 0, 64, 72
1, 54233, Note_on_c, 0, 64, 52
1, 54245, Control_c, 0, 64, 82
1, 54245, Control_c, 0, 67, 106
1, 54260, Control_c, 0, 64, 90
1, 54260, Control_c, 0, 67, 107
1, 54275, Control_c, 0, 64, 91
1, 54275, Control_c, 0, 67, 108
1, 54289, Control_c, 0, 64, 83
1, 54291, Note_off_c, 0, 64, 59
1, 54311, Control_c, 0, 64, 66
1, 54311, Control_c, 0, 67, 110
1, 54326, Control_c, 0, 64, 41
1, 54326, Control_c, 0, 67, 114
1, 54339, Note_on_c, 0, 80, 71
1, 54341, Control_c, 0, 64, 0
1, 54341, Control_c, 0, 67, 118
1, 54356, Control_c, 0, 67, 119
1, 54371, Control_c, 0, 67, 120
1, 54371, Note_off_c, 0, 80, 62
1, 54375, Note_on_c, 0, 71, 48
1, 54377, Note_on_c, 0, 73, 58
1, 54386, Control_c, 0, 67, 121
1, 54401, Control_c, 0, 67, 121
1, 54415, Control_c, 0, 67, 123
1, 54422, Note_off_c, 0, 71, 44
1, 54422, Note_off_c, 0, 73, 57
1, 54430, Control_c, 0, 67, 123
1, 54436, Note_on_c, 0, 78, 76
1, 54445, Control_c, 0, 67, 124
1, 54483, Note_off_c, 0, 78, 61
1, 54507, Note_on_c, 0, 69, 68
1, 54535, Note_off_c, 0, 69, 68
1, 54538, Note_on_c, 0, 83, 81
1, 54544, Note_on_c, 0, 64, 19
1, 54568, Note_off_c, 0, 83, 66
1, 54578, Control_c, 0, 64, 10
1, 54593, Control_c, 0, 64, 60
1, 54608, Control_c, 0, 64, 64
1, 54608, Control_c, 0, 67, 123
1, 54622, Control_c, 0, 64, 65
1, 54637, Control_c, 0, 64, 71
1, 54637, Control_c, 0, 67, 122
1, 54652, Control_c, 0, 64, 85
1, 54652, Control_c, 0, 67, 120
1, 54657, Note_off_c, 0, 64, 26
1, 54659, Note_on_c, 0, 61, 57
1, 54666, Control_c, 0, 64, 127
1, 54681, Control_c, 0, 67, 120
1, 54696, Control_c, 0, 67, 118
1, 54711, Control_c, 0, 67, 117
1, 54718, Note_off_c, 0, 61, 57
1, 54726, Control_c, 0, 67, 115
1, 54741, Control_c, 0, 67, 114
1, 54770, Control_c, 0, 67, 115
1, 54773, Note_on_c, 0, 81, 84
1, 54785, Control_c, 0, 64, 106
1, 54798, Note_on_c, 0, 57, 59
1, 54800, Control_c, 0, 64, 77
1, 54800, Control_c, 0, 67, 114
1, 54804, Note_on_c, 0, 71, 43
1, 54807, Note_on_c, 0, 69, 49
1, 54815, Control_c, 0, 64, 59
1, 54815, Control_c, 0, 67, 112
1, 54830, Control_c, 0, 64, 36
1, 54830, Control_c, 0, 67, 108
1, 54845, Control_c, 0, 64, 40
1, 54845, Control_c, 0, 67, 106
1, 54859, Control_c, 0, 64, 57
1, 54859, Control_c, 0, 67, 106
1, 54874, Control_c, 0, 64, 68
1, 54874, Control_c, 0, 67, 105
1, 54889, Control_c, 0, 64, 82
1, 54889, Control_c, 0, 67, 104
1, 54904, Control_c, 0, 64, 105
1, 54904, Control_c, 0, 67, 102
1, 54919, Control_c, 0, 64, 127
1, 54919, Control_c, 0, 67, 97
1, 54933, Control_c, 0, 67, 91
1, 54935, Note_on_c, 0, 61, 61
1, 54948, Control_c, 0, 67, 86
1, 54958, Note_off_c, 0, 69, 41
1, 54960, Note_off_c, 0, 71, 39
1, 54963, Note_off_c, 0, 57, 32
1, 54963, Control_c, 0, 67, 86
1, 54978, Control_c, 0, 67, 86
1, 54990, Note_on_c, 0, 86, 92
1, 54994, Control_c, 0, 67, 85
1, 55006, Note_off_c, 0, 81, 51
1, 55009, Control_c, 0, 67, 81
1, 55012, Note_off_c, 0, 61, 57
1, 55024, Control_c, 0, 67, 74
1, 55038, Control_c, 0, 67, 66
1, 55053, Control_c, 0, 67, 64
1, 55056, Note_on_c, 0, 64, 68
1, 55075, Control_c, 0, 67, 69
1, 55090, Control_c, 0, 67, 71
1, 55091, Note_off_c, 0, 64, 67
1, 55105, Control_c, 0, 67, 71
1, 55119, Control_c, 0, 67, 72
1, 55134, Control_c, 0, 67, 78
1, 55149, Control_c, 0, 67, 92
1, 55164, Control_c, 0, 67, 116
1, 55179, Control_c, 0, 64, 107
1, 55179, Control_c, 0, 67, 123
1, 55194, Control_c, 0, 64, 91
1, 55209, Control_c, 0, 64, 82
1, 55209, Control_c, 0, 67, 124
1, 55212, Note_on_c, 0, 85, 89
1, 55217, Note_on_c, 0, 76, 63
1, 55218, Note_off_c, 0, 86, 64
1, 55223, Control_c, 0, 64, 74
1, 55223, Control_c, 0, 67, 127
1, 55232, Note_on_c, 0, 73, 51
1, 55232, Note_on_c, 0, 81, 61
1, 55233, Note_on_c, 0, 69, 64
1, 55238, Control_c, 0, 64, 68
1, 55247, Note_off_c, 0, 76, 65
1, 55252, Note_off_c, 0, 69, 66
1, 55252, Note_off_c, 0, 81, 59
1, 55253, Control_c, 0, 64, 63
1, 55254, Note_off_c, 0, 73, 58
1, 55283, Control_c, 0, 64, 68
1, 55297, Control_c, 0, 64, 75
1, 55298, Note_off_c, 0, 85, 64
1, 55311, Note_on_c, 0, 83, 88
1, 55312, Control_c, 0, 64, 77
1, 55327, Control_c, 0, 64, 73
1, 55342, Control_c, 0, 64, 58
1, 55357, Control_c, 0, 64, 0
1, 55367, Note_off_c, 0, 83, 66
1, 55396, Note_on_c, 0, 64, 53
1, 55431, Note_on_c, 0, 88, 85
1, 55457, Note_on_c, 0, 80, 48
1, 55459, Note_off_c, 0, 64, 42
1, 55479, Note_off_c, 0, 80, 59
1, 55526, Note_on_c, 0, 61, 53
1, 55563, Note_off_c, 0, 61, 52
1, 55635, Note_off_c, 0, 88, 58
1, 55638, Control_c, 0, 64, 31
1, 55653, Control_c, 0, 64, 45
1, 55653, Control_c, 0, 67, 123
1, 55668, Note_on_c, 0, 86, 75
1, 55668, Control_c, 0, 64, 53
1, 55668, Control_c, 0, 67, 117
1, 55670, Note_on_c, 0, 71, 49
1, 55677, Note_on_c, 0, 57, 41
1, 55683, Note_on_c, 0, 69, 59
1, 55683, Control_c, 0, 64, 60
1, 55683, Control_c, 0, 67, 111
1, 55688, Note_on_c, 0, 83, 56
1, 55697, Control_c, 0, 64, 66
1, 55697, Control_c, 0, 67, 106
1, 55712, Control_c, 0, 64, 75
1, 55712, Control_c, 0, 67, 102
1, 55727, Control_c, 0, 64, 87
1, 55727, Control_c, 0, 67, 95
1, 55737, Note_off_c, 0, 83, 47
1, 55742, Control_c, 0, 64, 104
1, 55742, Control_c, 0, 67, 84
1, 55757, Control_c, 0, 64, 127
1, 55757, Control_c, 0, 67, 71
1, 55772, Control_c, 0, 67, 57
1, 55787, Control_c, 0, 67, 49
1, 55802, Control_c, 0, 67, 46
1, 55820, Note_off_c, 0, 57, 28
1, 55832, Note_off_c, 0, 69, 33
1, 55843, Note_off_c, 0, 71, 39
1, 55848, Note_on_c, 0, 62, 60
1, 55855, Control_c, 0, 67, 47
1, 55860, Poly_aftertouch_c, 0, 83, 127
1, 55869, Control_c, 0, 67, 51
1, 55884, Control_c, 0, 67, 57
1, 55899, Control_c, 0, 67, 61
1, 55906, Note_on_c, 0, 88, 87
1, 55909, Note_off_c, 0, 86, 64
1, 55913, Control_c, 0, 67, 66
1, 55915, Note_off_c, 0, 62, 52
1, 55924, Poly_aftertouch_c, 0, 83, 0
1, 55928, Control_c, 0, 67, 71
1, 55943, Control_c, 0, 67, 79
1, 55958, Control_c, 0, 67, 90
1, 55962, Note_on_c, 0, 66, 77
1, 55973, Control_c, 0, 67, 105
1, 55987, Control_c, 0, 67, 111
1, 55996, Note_off_c, 0, 66, 64
1, 56002, Control_c, 0, 67, 112
1, 56017, Control_c, 0, 64, 96
1, 56017, Control_c, 0, 67, 115
1, 56032, Control_c, 0, 64, 75
1, 56032, Control_c, 0, 67, 122
1, 56047, Control_c, 0, 64, 44
1, 56047, Control_c, 0, 67, 127
1, 56060, Note_off_c, 0, 88, 66
1, 56061, Control_c, 0, 64, 0
1, 56097, Note_on_c, 0, 86, 83
1, 56100, Note_on_c, 0, 80, 78
1, 56108, Note_on_c, 0, 76, 71
1, 56110, Note_on_c, 0, 74, 79
1, 56137, Note_off_c, 0, 80, 61
1, 56142, Note_off_c, 0, 76, 60
1, 56145, Note_on_c, 0, 69, 15
1, 56147, Note_off_c, 0, 74, 58
1, 56162, Note_off_c, 0, 86, 64
1, 56189, Note_off_c, 0, 69, 29
1, 56246, Note_on_c, 0, 66, 73
1, 56279, Note_off_c, 0, 66, 61
1, 56315, Note_on_c, 0, 85, 81
1, 56363, Note_off_c, 0, 85, 63
1, 56388, Note_on_c, 0, 62, 58
1, 56424, Note_off_c, 0, 62, 61
1, 56475, Control_c, 0, 64, 35
1, 56490, Control_c, 0, 64, 52
1, 56505, Control_c, 0, 64, 56
1, 56505, Control_c, 0, 67, 125
1, 56520, Control_c, 0, 64, 64
1, 56520, Control_c, 0, 67, 122
1, 56527, Note_on_c, 0, 88, 81
1, 56535, Control_c, 0, 64, 74
1, 56535, Control_c, 0, 67, 118
1, 56547, Note_on_c, 0, 57, 58
1, 56547, Note_on_c, 0, 69, 48
1, 56548, Note_on_c, 0, 71, 51
1, 56550, Control_c, 0, 64, 98
1, 56550, Control_c, 0, 67, 116
1, 56563, Note_off_c, 0, 88, 68
1, 56572, Control_c, 0, 64, 127
1, 56572, Control_c, 0, 67, 115
1, 56574, Note_on_c, 0, 83, 31
1, 56603, Control_c, 0, 67, 115
1, 56607, Note_off_c, 0, 83, 54
1, 56617, Control_c, 0, 67, 113
1, 56632, Control_c, 0, 67, 110
1, 56642, Note_off_c, 0, 71, 31
1, 56647, Control_c, 0, 67, 110
1, 56651, Note_off_c, 0, 69, 37
1, 56653, Note_off_c, 0, 57, 30
1, 56691, Control_c, 0, 67, 109
1, 56701, Note_on_c, 0, 62, 40
1, 56706, Control_c, 0, 67, 108
1, 56721, Control_c, 0, 67, 107
1, 56735, Control_c, 0, 67, 106
1, 56750, Control_c, 0, 67, 104
1, 56752, Note_off_c, 0, 62, 46
1, 56765, Note_on_c, 0, 80, 68
1, 56765, Control_c, 0, 67, 103
1, 56780, Control_c, 0, 67, 102
1, 56782, Note_on_c, 0, 66, 48
1, 56794, Note_off_c, 0, 80, 64
1, 56795, Control_c, 0, 67, 101
1, 56809, Note_off_c, 0, 66, 56
1, 56809, Control_c, 0, 67, 100
1, 56824, Control_c, 0, 67, 97
1, 56839, Control_c, 0, 67, 94
1, 56846, Note_on_c, 0, 78, 80
1, 56854, Control_c, 0, 67, 91
1, 56869, Control_c, 0, 67, 88
1, 56880, Note_off_c, 0, 78, 60
1, 56884, Control_c, 0, 67, 83
1, 56899, Control_c, 0, 67, 75
1, 56914, Control_c, 0, 67, 65
1, 56929, Control_c, 0, 67, 50
1, 56934, Note_on_c, 0, 85, 92
1, 56939, Note_on_c, 0, 74, 57
1, 56940, Note_on_c, 0, 76, 58
1, 56943, Control_c, 0, 67, 34
1, 56958, Note_off_c, 0, 85, 65
1, 56958, Control_c, 0, 67, 12
1, 56973, Control_c, 0, 67, 0
1, 56975, Note_off_c, 0, 76, 64
1, 56991, Note_off_c, 0, 74, 57
1, 57064, Note_on_c, 0, 66, 58
1, 57131, Note_off_c, 0, 66, 49
1, 57147, Note_on_c, 0, 90, 90
1, 57175, Note_off_c, 0, 90, 65
1, 57218, Note_on_c, 0, 62, 51
1, 57239, Control_c, 0, 67, 8
1, 57253, Control_c, 0, 67, 9
1, 57264, Note_off_c, 0, 62, 59
1, 57321, Control_c, 0, 67, 11
1, 57335, Control_c, 0, 67, 14
1, 57350, Control_c, 0, 67, 16
1, 57365, Control_c, 0, 67, 18
1, 57380, Control_c, 0, 67, 20
1, 57396, Control_c, 0, 67, 26
1, 57411, Control_c, 0, 67, 39
1, 57417, Note_on_c, 0, 88, 74
1, 57424, Note_on_c, 0, 69, 36
1, 57424, Note_on_c, 0, 71, 42
1, 57426, Control_c, 0, 64, 108
1, 57426, Control_c, 0, 67, 54
1, 57427, Note_on_c, 0, 57, 44
1, 57440, Control_c, 0, 64, 83
1, 57440, Control_c, 0, 67, 69
1, 57444, Note_on_c, 0, 76, 44
1, 57455, Control_c, 0, 64, 73
1, 57455, Control_c, 0, 67, 83
1, 57470, Control_c, 0, 64, 68
1, 57470, Control_c, 0, 67, 93
1, 57485, Control_c, 0, 64, 62
1, 57485, Control_c, 0, 67, 100
1, 57500, Control_c, 0, 64, 52
1, 57500, Control_c, 0, 67, 106
1, 57514, Control_c, 0, 64, 44
1, 57514, Control_c, 0, 67, 112
1, 57517, Note_off_c, 0, 76, 0
1, 57529, Control_c, 0, 64, 48
1, 57529, Control_c, 0, 67, 116
1, 57544, Control_c, 0, 64, 58
1, 57544, Control_c, 0, 67, 120
1, 57554, Poly_aftertouch_c, 0, 76, 127
1, 57558, Control_c, 0, 64, 66
1, 57558, Control_c, 0, 67, 124
1, 57564, Note_off_c, 0, 71, 38
1, 57566, Note_off_c, 0, 69, 44
1, 57573, Control_c, 0, 64, 75
1, 57573, Control_c, 0, 67, 127
1, 57588, Control_c, 0, 64, 91
1, 57596, Note_on_c, 0, 61, 58
1, 57603, Control_c, 0, 64, 127
1, 57604, Note_off_c, 0, 57, 33
1, 57636, Note_off_c, 0, 88, 54
1, 57640, Note_on_c, 0, 85, 64
1, 57642, Note_off_c, 0, 61, 56
1, 57693, Poly_aftertouch_c, 0, 76, 0
1, 57707, Note_on_c, 0, 64, 45
1, 57720, Note_off_c, 0, 85, 64
1, 57724, Note_on_c, 0, 83, 76
1, 57733, Note_off_c, 0, 64, 58
1, 57751, Note_off_c, 0, 83, 67
1, 57832, Note_on_c, 0, 81, 75
1, 57841, Note_on_c, 0, 80, 81
1, 57842, Note_on_c, 0, 76, 54
1, 57847, Note_on_c, 0, 73, 56
1, 57856, Note_off_c, 0, 81, 69
1, 57868, Note_on_c, 0, 69, 48
1, 57870, Note_off_c, 0, 76, 66
1, 57875, Note_off_c, 0, 73, 68
1, 57884, Control_c, 0, 67, 124
1, 57891, Note_off_c, 0, 69, 59
1, 57895, Note_off_c, 0, 80, 59
1, 57899, Control_c, 0, 67, 123
1, 57914, Control_c, 0, 67, 120
1, 57922, Note_on_c, 0, 78, 85
1, 57929, Control_c, 0, 67, 118
1, 57944, Control_c, 0, 67, 112
1, 57955, Note_off_c, 0, 78, 60
1, 57958, Control_c, 0, 67, 106
1, 57973, Control_c, 0, 67, 101
1, 57988, Control_c, 0, 67, 96
1, 58003, Control_c, 0, 67, 89
1, 58018, Control_c, 0, 67, 78
1, 58021, Note_on_c, 0, 64, 64
1, 58022, Note_on_c, 0, 85, 92
1, 58032, Control_c, 0, 67, 65
1, 58047, Control_c, 0, 67, 51
1, 58070, Control_c, 0, 67, 37
1, 58084, Control_c, 0, 67, 19
1, 58099, Control_c, 0, 67, 0
1, 58107, Note_off_c, 0, 64, 54
1, 58148, Note_on_c, 0, 61, 54
1, 58198, Note_off_c, 0, 61, 62
1, 58234, Control_c, 0, 67, 15
1, 58249, Control_c, 0, 67, 26
1, 58263, Control_c, 0, 64, 95
1, 58263, Control_c, 0, 67, 42
1, 58278, Control_c, 0, 64, 71
1, 58278, Control_c, 0, 67, 72
1, 58287, Note_on_c, 0, 81, 61
1, 58290, Note_on_c, 0, 69, 48
1, 58293, Control_c, 0, 64, 55
1, 58293, Control_c, 0, 67, 106
1, 58294, Note_on_c, 0, 71, 45
1, 58301, Note_off_c, 0, 85, 47
1, 58307, Control_c, 0, 64, 25
1, 58307, Control_c, 0, 67, 127
1, 58309, Note_on_c, 0, 57, 45
1, 58322, Control_c, 0, 64, 9
1, 58337, Control_c, 0, 64, 26
1, 58352, Control_c, 0, 64, 49
1, 58367, Control_c, 0, 64, 64
1, 58381, Control_c, 0, 64, 77
1, 58396, Control_c, 0, 64, 97
1, 58401, Note_off_c, 0, 57, 44
1, 58411, Control_c, 0, 64, 127
1, 58452, Note_off_c, 0, 69, 41
1, 58455, Note_on_c, 0, 62, 56
1, 58458, Note_off_c, 0, 71, 30
1, 58476, Note_off_c, 0, 81, 45
1, 58508, Note_on_c, 0, 86, 76
1, 58526, Note_on_c, 0, 83, 71
1, 58527, Note_off_c, 0, 62, 57
1, 58559, Note_off_c, 0, 83, 63
1, 58575, Note_off_c, 0, 86, 62
1, 58577, Note_on_c, 0, 66, 46
1, 58601, Note_off_c, 0, 66, 58
1, 58603, Note_on_c, 0, 81, 64
1, 58651, Note_off_c, 0, 81, 61
1, 58707, Note_on_c, 0, 85, 75
1, 58730, Note_on_c, 0, 74, 51
1, 58734, Note_on_c, 0, 76, 59
1, 58738, Note_on_c, 0, 80, 59
1, 58764, Note_off_c, 0, 76, 60
1, 58770, Note_off_c, 0, 85, 62
1, 58772, Note_off_c, 0, 74, 61
1, 58780, Note_off_c, 0, 80, 41
1, 58798, Note_on_c, 0, 83, 79
1, 58876, Note_on_c, 0, 66, 49
1, 58894, Note_off_c, 0, 83, 63
1, 58912, Note_on_c, 0, 81, 80
1, 58919, Note_off_c, 0, 66, 43
1, 58942, Note_on_c, 0, 78, 47
1, 58973, Note_off_c, 0, 78, 52
1, 58994, Note_on_c, 0, 62, 63
1, 59039, Note_off_c, 0, 62, 60
1, 59072, Control_c, 0, 64, 93
1, 59083, Note_off_c, 0, 81, 57
1, 59086, Control_c, 0, 64, 69
1, 59101, Control_c, 0, 64, 47
1, 59116, Control_c, 0, 64, 0
1, 59130, Note_on_c, 0, 86, 80
1, 59143, Note_on_c, 0, 69, 54
1, 59145, Note_on_c, 0, 76, 61
1, 59146, Control_c, 0, 64, 25
1, 59152, Note_on_c, 0, 57, 58
1, 59154, Note_on_c, 0, 71, 59
1, 59161, Control_c, 0, 64, 55
1, 59176, Control_c, 0, 64, 70
1, 59179, Note_off_c, 0, 71, 52
1, 59189, Note_off_c, 0, 76, 56
1, 59191, Control_c, 0, 64, 89
1, 59191, Control_c, 0, 67, 124
1, 59194, Note_off_c, 0, 57, 57
1, 59205, Control_c, 0, 64, 127
1, 59205, Control_c, 0, 67, 122
1, 59207, Note_off_c, 0, 69, 40
1, 59235, Control_c, 0, 67, 122
1, 59250, Control_c, 0, 67, 120
1, 59265, Note_off_c, 0, 86, 57
1, 59265, Control_c, 0, 67, 119
1, 59273, Note_on_c, 0, 62, 58
1, 59279, Control_c, 0, 67, 117
1, 59309, Control_c, 0, 67, 118
1, 59328, Note_off_c, 0, 62, 58
1, 59338, Control_c, 0, 67, 117
1, 59347, Note_on_c, 0, 88, 76
1, 59353, Control_c, 0, 67, 117
1, 59368, Control_c, 0, 67, 116
1, 59381, Note_on_c, 0, 66, 57
1, 59398, Control_c, 0, 67, 116
1, 59401, Note_off_c, 0, 88, 64
1, 59401, Note_off_c, 0, 66, 62
1, 59405, Note_on_c, 0, 83, 21
1, 59427, Control_c, 0, 67, 116
1, 59444, Note_on_c, 0, 86, 79
1, 59445, Note_off_c, 0, 83, 39
1, 59471, Control_c, 0, 67, 116
1, 59486, Control_c, 0, 67, 117
1, 59509, Note_off_c, 0, 86, 56
1, 59523, Note_on_c, 0, 74, 57
1, 59528, Note_on_c, 0, 76, 46
1, 59531, Control_c, 0, 67, 117
1, 59539, Note_on_c, 0, 85, 87
1, 59546, Control_c, 0, 67, 118
1, 59549, Note_on_c, 0, 81, 64
1, 59568, Control_c, 0, 67, 120
1, 59570, Note_off_c, 0, 76, 57
1, 59575, Note_off_c, 0, 81, 63
1, 59583, Control_c, 0, 67, 120
1, 59590, Note_off_c, 0, 74, 50
1, 59597, Note_off_c, 0, 85, 64
1, 59642, Control_c, 0, 67, 121
1, 59656, Control_c, 0, 67, 122
1, 59671, Control_c, 0, 67, 121
1, 59686, Control_c, 0, 67, 121
1, 59701, Control_c, 0, 67, 120
1, 59757, Note_on_c, 0, 62, 59
1, 59760, Note_on_c, 0, 83, 56
1, 59771, Note_on_c, 0, 84, 54
1, 59773, Note_on_c, 0, 80, 70
1, 59785, Note_off_c, 0, 62, 67
1, 59795, Note_off_c, 0, 84, 60
1, 59799, Note_off_c, 0, 83, 54
1, 59806, Control_c, 0, 67, 121
1, 59821, Control_c, 0, 67, 121
1, 59845, Note_on_c, 0, 78, 68
1, 59852, Note_off_c, 0, 80, 62
1, 59865, Control_c, 0, 67, 122
1, 59873, Note_off_c, 0, 78, 67
1, 59880, Control_c, 0, 67, 125
1, 59895, Control_c, 0, 67, 127
1, 59924, Control_c, 0, 64, 82
1, 59939, Control_c, 0, 64, 60
1, 59953, Control_c, 0, 64, 0
1, 60011, Note_on_c, 0, 45, 40
1, 60035, Note_on_c, 0, 81, 45
1, 60045, Note_on_c, 0, 77, 45
1, 60050, Note_on_c, 0, 47, 56
1, 60059, Note_off_c, 0, 45, 59
1, 60059, Note_off_c, 0, 81, 59
1, 60070, Note_off_c, 0, 77, 55
1, 60072, Control_c, 0, 64, 65
1, 60086, Control_c, 0, 64, 93
1, 60100, Note_off_c, 0, 47, 64
1, 60101, Control_c, 0, 64, 127
1, 60101, Control_c, 0, 67, 126
1, 60115, Note_on_c, 0, 48, 64
1, 60116, Control_c, 0, 67, 125
1, 60131, Control_c, 0, 67, 124
1, 60144, Note_off_c, 0, 48, 65
1, 60148, Note_on_c, 0, 50, 63
1, 60175, Control_c, 0, 67, 123
1, 60180, Note_off_c, 0, 50, 66
1, 60187, Note_on_c, 0, 52, 61
1, 60190, Control_c, 0, 67, 123
1, 60205, Control_c, 0, 67, 122
1, 60216, Note_off_c, 0, 52, 65
1, 60233, Note_on_c, 0, 86, 79
1, 60234, Control_c, 0, 67, 121
1, 60240, Note_on_c, 0, 77, 25
1, 60249, Control_c, 0, 67, 120
1, 60255, Note_on_c, 0, 74, 49
1, 60264, Control_c, 0, 67, 118
1, 60273, Note_on_c, 0, 57, 72
1, 60279, Control_c, 0, 67, 116
1, 60286, Note_off_c, 0, 77, 50
1, 60294, Control_c, 0, 67, 115
1, 60316, Control_c, 0, 67, 113
1, 60318, Note_off_c, 0, 57, 61
1, 60327, Note_on_c, 0, 60, 63
1, 60331, Control_c, 0, 67, 111
1, 60336, Poly_aftertouch_c, 0, 81, 0
1, 60346, Control_c, 0, 67, 110
1, 60360, Control_c, 0, 67, 109
1, 60382, Note_on_c, 0, 64, 60
1, 60382, Note_off_c, 0, 74, 36
1, 60383, Note_off_c, 0, 60, 62
1, 60405, Control_c, 0, 67, 108
1, 60411, Note_off_c, 0, 64, 64
1, 60416, Note_on_c, 0, 65, 71
1, 60420, Control_c, 0, 67, 108
1, 60434, Control_c, 0, 67, 107
1, 60443, Note_on_c, 0, 84, 78
1, 60448, Note_off_c, 0, 86, 59
1, 60464, Control_c, 0, 67, 107
1, 60468, Note_off_c, 0, 65, 63
1, 60482, Note_on_c, 0, 64, 75
1, 60504, Note_off_c, 0, 84, 65
1, 60512, Note_off_c, 0, 64, 63
1, 60536, Note_on_c, 0, 83, 80
1, 60553, Control_c, 0, 67, 108
1, 60565, Note_on_c, 0, 60, 64
1, 60583, Note_off_c, 0, 60, 63
1, 60583, Note_off_c, 0, 83, 65
1, 60613, Control_c, 0, 67, 108
1, 60628, Control_c, 0, 67, 109
1, 60635, Note_on_c, 0, 59, 56
1, 60636, Note_on_c, 0, 86, 86
1, 60640, Note_on_c, 0, 77, 77
1, 60646, Note_on_c, 0, 74, 61
1, 60655, Note_on_c, 0, 81, 59
1, 60662, Note_off_c, 0, 77, 71
1, 60664, Note_off_c, 0, 74, 66
1, 60664, Note_off_c, 0, 86, 61
1, 60667, Note_off_c, 0, 59, 66
1, 60672, Control_c, 0, 67, 109
1, 60674, Note_off_c, 0, 81, 63
1, 60687, Control_c, 0, 67, 110
1, 60693, Note_on_c, 0, 53, 65
1, 60736, Note_off_c, 0, 53, 61
1, 60746, Control_c, 0, 67, 111
1, 60761, Control_c, 0, 67, 112
1, 60768, Note_on_c, 0, 50, 62
1, 60775, Control_c, 0, 64, 101
1, 60775, Control_c, 0, 67, 113
1, 60790, Control_c, 0, 64, 70
1, 60790, Control_c, 0, 67, 114
1, 60805, Control_c, 0, 64, 42
1, 60805, Control_c, 0, 67, 115
1, 60813, Note_off_c, 0, 50, 65
1, 60820, Control_c, 0, 64, 0
1, 60820, Control_c, 0, 67, 116
1, 60835, Control_c, 0, 67, 117
1, 60854, Note_on_c, 0, 45, 64
1, 60872, Note_on_c, 0, 81, 97
1, 60879, Control_c, 0, 64, 47
1, 60879, Control_c, 0, 67, 117
1, 60894, Control_c, 0, 64, 67
1, 60894, Control_c, 0, 67, 116
1, 60908, Control_c, 0, 64, 88
1, 60917, Note_on_c, 0, 47, 36
1, 60923, Control_c, 0, 64, 127
1, 60938, Control_c, 0, 67, 116
1, 60944, Note_off_c, 0, 45, 64
1, 60953, Control_c, 0, 67, 115
1, 60965, Note_on_c, 0, 48, 68
1, 60968, Control_c, 0, 67, 113
1, 60981, Note_off_c, 0, 47, 65
1, 60983, Control_c, 0, 67, 113
1, 60997, Control_c, 0, 67, 112
1, 61015, Note_on_c, 0, 50, 72
1, 61023, Note_off_c, 0, 48, 63
1, 61060, Note_on_c, 0, 52, 63
1, 61063, Note_off_c, 0, 50, 65
1, 61064, Control_c, 0, 67, 112
1, 61079, Control_c, 0, 67, 111
1, 61086, Note_off_c, 0, 52, 66
1, 61087, Note_on_c, 0, 86, 91
1, 61094, Control_c, 0, 67, 110
1, 61102, Note_on_c, 0, 74, 71
1, 61108, Note_on_c, 0, 77, 50
1, 61108, Control_c, 0, 67, 109
1, 61123, Control_c, 0, 67, 108
1, 61135, Note_off_c, 0, 77, 54
1, 61155, Note_on_c, 0, 57, 71
1, 61168, Control_c, 0, 67, 108
1, 61182, Control_c, 0, 67, 107
1, 61192, Note_off_c, 0, 57, 62
1, 61207, Note_on_c, 0, 60, 62
1, 61212, Control_c, 0, 67, 108
1, 61266, Note_off_c, 0, 60, 62
1, 61269, Note_on_c, 0, 84, 82
1, 61270, Note_on_c, 0, 64, 54
1, 61272, Control_c, 0, 67, 109
1, 61274, Note_off_c, 0, 86, 57
1, 61287, Control_c, 0, 67, 110
1, 61295, Note_off_c, 0, 81, 20
1, 61297, Note_on_c, 0, 65, 71
1, 61299, Note_off_c, 0, 84, 65
1, 61301, Control_c, 0, 67, 111
1, 61302, Note_off_c, 0, 74, 44
1, 61304, Note_off_c, 0, 64, 64
1, 61316, Control_c, 0, 67, 112
1, 61331, Control_c, 0, 67, 113
1, 61336, Note_off_c, 0, 65, 57
1, 61346, Control_c, 0, 67, 113
1, 61361, Control_c, 0, 67, 114
1, 61370, Note_on_c, 0, 64, 71
1, 61376, Control_c, 0, 67, 115
1, 61397, Note_off_c, 0, 64, 68
1, 61406, Control_c, 0, 67, 116
1, 61421, Control_c, 0, 67, 115
1, 61465, Control_c, 0, 67, 115
1, 61469, Note_on_c, 0, 59, 27
1, 61473, Note_on_c, 0, 83, 86
1, 61480, Control_c, 0, 67, 114
1, 61495, Control_c, 0, 67, 112
1, 61510, Control_c, 0, 67, 111
1, 61516, Note_on_c, 0, 69, 23
1, 61519, Note_on_c, 0, 74, 8
1, 61524, Control_c, 0, 67, 110
1, 61525, Note_off_c, 0, 59, 66
1, 61539, Control_c, 0, 67, 108
1, 61554, Control_c, 0, 67, 107
1, 61567, Note_on_c, 0, 53, 68
1, 61569, Control_c, 0, 67, 105
1, 61579, Note_off_c, 0, 74, 34
1, 61584, Control_c, 0, 67, 101
1, 61593, Note_off_c, 0, 53, 64
1, 61593, Poly_aftertouch_c, 0, 77, 127
1, 61598, Control_c, 0, 67, 97
1, 61613, Control_c, 0, 67, 94
1, 61628, Control_c, 0, 67, 90
1, 61632, Note_off_c, 0, 69, 44
1, 61636, Note_on_c, 0, 50, 58
1, 61641, Note_off_c, 0, 83, 63
1, 61643, Control_c, 0, 64, 93
1, 61643, Control_c, 0, 67, 82
1, 61658, Control_c, 0, 64, 65
1, 61658, Control_c, 0, 67, 69
1, 61671, Poly_aftertouch_c, 0, 77, 0
1, 61672, Control_c, 0, 64, 30
1, 61672, Control_c, 0, 67, 55
1, 61683, Note_off_c, 0, 50, 62
1, 61687, Control_c, 0, 64, 0
1, 61687, Control_c, 0, 67, 46
1, 61704, Note_on_c, 0, 81, 89
1, 61717, Control_c, 0, 64, 50
1, 61717, Control_c, 0, 67, 53
1, 61719, Note_on_c, 0, 45, 70
1, 61731, Control_c, 0, 64, 70
1, 61731, Control_c, 0, 67, 58
1, 61746, Control_c, 0, 64, 91
1, 61746, Control_c, 0, 67, 66
1, 61761, Control_c, 0, 64, 127
1, 61761, Control_c, 0, 67, 82
1, 61776, Control_c, 0, 67, 102
1, 61790, Note_on_c, 0, 47, 54
1, 61791, Control_c, 0, 67, 113
1, 61806, Note_off_c, 0, 45, 65
1, 61813, Control_c, 0, 67, 118
1, 61828, Control_c, 0, 67, 120
1, 61843, Note_on_c, 0, 48, 64
1, 61843, Control_c, 0, 67, 125
1, 61857, Control_c, 0, 67, 127
1, 61862, Note_off_c, 0, 47, 65
1, 61893, Note_on_c, 0, 50, 74
1, 61898, Note_off_c, 0, 48, 64
1, 61925, Note_on_c, 0, 52, 64
1, 61928, Note_off_c, 0, 50, 68
1, 61929, Note_on_c, 0, 86, 92
1, 61943, Note_on_c, 0, 74, 68
1, 61944, Note_on_c, 0, 77, 55
1, 61951, Note_off_c, 0, 52, 65
1, 62005, Control_c, 0, 67, 127
1, 62008, Note_off_c, 0, 77, 34
1, 62014, Note_on_c, 0, 57, 74
1, 62020, Control_c, 0, 67, 126
1, 62035, Control_c, 0, 67, 123
1, 62050, Control_c, 0, 67, 117
1, 62065, Control_c, 0, 67, 113
1, 62068, Note_on_c, 0, 60, 67
1, 62077, Note_off_c, 0, 57, 57
1, 62080, Control_c, 0, 67, 112
1, 62091, Note_off_c, 0, 81, 34
1, 62109, Control_c, 0, 67, 113
1, 62123, Control_c, 0, 67, 112
1, 62124, Note_on_c, 0, 84, 85
1, 62128, Note_on_c, 0, 64, 63
1, 62128, Note_off_c, 0, 86, 59
1, 62138, Control_c, 0, 67, 111
1, 62139, Note_off_c, 0, 60, 61
1, 62153, Note_off_c, 0, 74, 49
1, 62153, Control_c, 0, 67, 110
1, 62161, Note_off_c, 0, 84, 63
1, 62166, Note_off_c, 0, 64, 66
1, 62168, Control_c, 0, 67, 111
1, 62169, Note_on_c, 0, 65, 69
1, 62184, Control_c, 0, 67, 113
1, 62199, Control_c, 0, 67, 115
1, 62214, Control_c, 0, 67, 116
1, 62232, Note_off_c, 0, 65, 62
1, 62239, Note_on_c, 0, 64, 73
1, 62243, Control_c, 0, 67, 115
1, 62267, Note_off_c, 0, 64, 66
1, 62273, Control_c, 0, 67, 116
1, 62288, Control_c, 0, 67, 117
1, 62302, Control_c, 0, 67, 118
1, 62321, Note_on_c, 0, 83, 90
1, 62332, Control_c, 0, 67, 117
1, 62341, Note_on_c, 0, 59, 37
1, 62346, Control_c, 0, 67, 117
1, 62361, Control_c, 0, 67, 118
1, 62376, Control_c, 0, 67, 119
1, 62391, Control_c, 0, 67, 122
1, 62406, Control_c, 0, 67, 124
1, 62420, Control_c, 0, 67, 126
1, 62435, Control_c, 0, 64, 107
1, 62435, Control_c, 0, 67, 127
1, 62450, Note_off_c, 0, 59, 36
1, 62450, Control_c, 0, 64, 74
1, 62450, Control_c, 0, 67, 127
1, 62452, Note_on_c, 0, 53, 63
1, 62465, Control_c, 0, 64, 51
1, 62479, Control_c, 0, 64, 0
1, 62482, Note_off_c, 0, 53, 64
1, 62496, Note_off_c, 0, 83, 57
1, 62527, Note_on_c, 0, 50, 46
1, 62539, Control_c, 0, 64, 49
1, 62561, Control_c, 0, 64, 66
1, 62564, Note_on_c, 0, 81, 76
1, 62572, Note_off_c, 0, 50, 63
1, 62576, Control_c, 0, 64, 79
1, 62591, Control_c, 0, 64, 106
1, 62602, Note_on_c, 0, 45, 64
1, 62606, Control_c, 0, 64, 127
1, 62606, Control_c, 0, 67, 126
1, 62613, Note_off_c, 0, 81, 65
1, 62621, Control_c, 0, 67, 125
1, 62650, Control_c, 0, 67, 124
1, 62655, Poly_aftertouch_c, 0, 47, 127
1, 62665, Control_c, 0, 67, 125
1, 62679, Control_c, 0, 67, 126
1, 62685, Note_off_c, 0, 45, 64
1, 62724, Control_c, 0, 67, 125
1, 62726, Note_on_c, 0, 48, 59
1, 62726, Poly_aftertouch_c, 0, 47, 0
1, 62756, Note_off_c, 0, 48, 65
1, 62758, Note_on_c, 0, 50, 57
1, 62774, Note_on_c, 0, 86, 79
1, 62783, Control_c, 0, 67, 124
1, 62789, Note_off_c, 0, 50, 66
1, 62792, Note_on_c, 0, 81, 51
1, 62795, Note_on_c, 0, 74, 53
1, 62798, Control_c, 0, 67, 122
1, 62803, Note_on_c, 0, 52, 55
1, 62813, Control_c, 0, 67, 120
1, 62821, Note_on_c, 0, 77, 19
1, 62828, Note_off_c, 0, 52, 57
1, 62828, Control_c, 0, 67, 120
1, 62843, Control_c, 0, 67, 119
1, 62858, Control_c, 0, 67, 118
1, 62863, Note_off_c, 0, 77, 40
1, 62872, Note_off_c, 0, 81, 53
1, 62872, Control_c, 0, 67, 116
1, 62875, Note_on_c, 0, 57, 75
1, 62887, Control_c, 0, 67, 114
1, 62902, Control_c, 0, 67, 113
1, 62910, Note_off_c, 0, 57, 62
1, 62917, Control_c, 0, 67, 112
1, 62920, Note_on_c, 0, 60, 64
1, 62932, Control_c, 0, 67, 111
1, 62947, Control_c, 0, 67, 109
1, 62962, Control_c, 0, 67, 107
1, 62977, Control_c, 0, 67, 107
1, 62980, Note_on_c, 0, 64, 61
1, 62982, Note_off_c, 0, 60, 63
1, 62983, Note_on_c, 0, 84, 82
1, 62992, Control_c, 0, 67, 108
1, 63001, Note_off_c, 0, 86, 61
1, 63007, Note_on_c, 0, 65, 74
1, 63007, Control_c, 0, 67, 108
1, 63021, Note_off_c, 0, 64, 63
1, 63022, Control_c, 0, 67, 109
1, 63028, Note_off_c, 0, 74, 42
1, 63054, Note_off_c, 0, 65, 61
1, 63066, Note_on_c, 0, 83, 86
1, 63066, Control_c, 0, 67, 109
1, 63069, Note_on_c, 0, 64, 61
1, 63075, Note_off_c, 0, 84, 62
1, 63081, Control_c, 0, 67, 110
1, 63096, Control_c, 0, 67, 111
1, 63099, Note_off_c, 0, 64, 65
1, 63110, Note_off_c, 0, 83, 65
1, 63111, Control_c, 0, 67, 110
1, 63126, Control_c, 0, 67, 109
1, 63141, Control_c, 0, 67, 109
1, 63154, Note_on_c, 0, 58, 9
1, 63156, Control_c, 0, 67, 109
1, 63159, Note_on_c, 0, 59, 47
1, 63168, Note_on_c, 0, 86, 83
1, 63170, Control_c, 0, 67, 110
1, 63177, Note_on_c, 0, 77, 64
1, 63182, Note_on_c, 0, 81, 64
1, 63182, Note_on_c, 0, 74, 55
1, 63185, Control_c, 0, 67, 108
1, 63194, Note_off_c, 0, 77, 67
1, 63194, Note_off_c, 0, 59, 0
1, 63194, Note_on_c, 0, 59, 19
1, 63200, Note_off_c, 0, 86, 57
1, 63200, Control_c, 0, 67, 106
1, 63200, Note_off_c, 0, 58, 45
1, 63203, Note_off_c, 0, 74, 64
1, 63203, Note_off_c, 0, 81, 66
1, 63215, Control_c, 0, 67, 105
1, 63227, Note_off_c, 0, 59, 60
1, 63259, Control_c, 0, 67, 105
1, 63263, Note_on_c, 0, 52, 68
1, 63274, Control_c, 0, 67, 102
1, 63289, Control_c, 0, 67, 98
1, 63311, Control_c, 0, 67, 94
1, 63313, Note_off_c, 0, 52, 63
1, 63326, Control_c, 0, 67, 90
1, 63340, Control_c, 0, 64, 79
1, 63340, Control_c, 0, 67, 85
1, 63349, Note_on_c, 0, 48, 44
1, 63355, Control_c, 0, 64, 52
1, 63355, Control_c, 0, 67, 73
1, 63370, Control_c, 0, 64, 0
1, 63370, Control_c, 0, 67, 60
1, 63378, Note_off_c, 0, 48, 57
1, 63385, Control_c, 0, 67, 45
1, 63395, Note_on_c, 0, 81, 103
1, 63400, Note_on_c, 0, 45, 66
1, 63400, Control_c, 0, 64, 28
1, 63400, Control_c, 0, 67, 30
1, 63415, Control_c, 0, 64, 63
1, 63415, Control_c, 0, 67, 11
1, 63430, Control_c, 0, 64, 127
1, 63430, Control_c, 0, 67, 0
1, 63472, Note_on_c, 0, 47, 75
1, 63500, Note_on_c, 0, 48, 66
1, 63502, Note_off_c, 0, 45, 64
1, 63534, Note_off_c, 0, 47, 65
1, 63550, Note_on_c, 0, 50, 69
1, 63553, Note_off_c, 0, 81, 62
1, 63561, Note_off_c, 0, 48, 64
1, 63579, Note_off_c, 0, 50, 67
1, 63581, Note_on_c, 0, 52, 72
1, 63588, Note_on_c, 0, 86, 87
1, 63594, Note_on_c, 0, 74, 79
1, 63596, Note_on_c, 0, 77, 80
1, 63606, Note_off_c, 0, 52, 65
1, 63623, Note_off_c, 0, 77, 66
1, 63636, Note_on_c, 0, 81, 7
1, 63638, Note_off_c, 0, 74, 59
1, 63641, Note_off_c, 0, 86, 65
1, 63667, Note_on_c, 0, 57, 80
1, 63693, Note_off_c, 0, 81, 25
1, 63701, Note_on_c, 0, 60, 64
1, 63722, Note_off_c, 0, 57, 64
1, 63758, Note_off_c, 0, 60, 58
1, 63761, Poly_aftertouch_c, 0, 59, 0
1, 63770, Control_c, 0, 64, 98
1, 63773, Note_on_c, 0, 64, 59
1, 63781, Poly_aftertouch_c, 0, 59, 0
1, 63786, Control_c, 0, 64, 65
1, 63797, Note_off_c, 0, 64, 64
1, 63800, Control_c, 0, 64, 17
1, 63805, Note_on_c, 0, 84, 82
1, 63814, Note_on_c, 0, 53, 76
1, 63815, Control_c, 0, 64, 0
1, 63830, Control_c, 0, 64, 13
1, 63845, Control_c, 0, 64, 60
1, 63860, Control_c, 0, 64, 90
1, 63874, Note_off_c, 0, 84, 54
1, 63874, Control_c, 0, 64, 127
1, 63877, Note_on_c, 0, 55, 71
1, 63888, Note_on_c, 0, 83, 85
1, 63901, Note_on_c, 0, 79, 82
1, 63908, Note_off_c, 0, 53, 64
1, 63914, Note_on_c, 0, 57, 74
1, 63924, Note_off_c, 0, 79, 67
1, 63931, Note_on_c, 0, 59, 62
1, 63932, Note_off_c, 0, 55, 64
1, 63948, Note_off_c, 0, 83, 66
1, 63961, Note_off_c, 0, 59, 66
1, 63963, Note_off_c, 0, 57, 63
1, 63978, Control_c, 0, 67, 14
1, 63981, Note_on_c, 0, 86, 95
1, 63989, Note_on_c, 0, 74, 83
1, 63993, Control_c, 0, 67, 28
1, 63999, Note_on_c, 0, 79, 37
1, 64006, Note_on_c, 0, 60, 34
1, 64008, Control_c, 0, 67, 59
1, 64008, Note_on_c, 0, 83, 19
1, 64011, Note_off_c, 0, 74, 68
1, 64018, Note_off_c, 0, 86, 66
1, 64023, Control_c, 0, 67, 89
1, 64028, Note_off_c, 0, 79, 57
1, 64038, Control_c, 0, 67, 112
1, 64050, Note_off_c, 0, 60, 48
1, 64056, Note_off_c, 0, 83, 27
1, 64060, Control_c, 0, 67, 118
1, 64074, Control_c, 0, 67, 119
1, 64089, Control_c, 0, 67, 122
1, 64092, Note_on_c, 0, 69, 70
1, 64104, Control_c, 0, 67, 124
1, 64118, Note_off_c, 0, 69, 68
1, 64119, Control_c, 0, 67, 127
1, 64124, Note_on_c, 0, 72, 70
1, 64133, Control_c, 0, 67, 127
1, 64141, Note_off_c, 0, 72, 66
1, 64193, Control_c, 0, 64, 120
1, 64208, Control_c, 0, 64, 80
1, 64223, Control_c, 0, 64, 59
1, 64238, Control_c, 0, 64, 0
1, 64256, Note_on_c, 0, 81, 65
1, 64268, Note_on_c, 0, 45, 63
1, 64268, Note_on_c, 0, 77, 55
1, 64270, Note_on_c, 0, 74, 45
1, 64277, Note_on_c, 0, 69, 12
1, 64282, Control_c, 0, 67, 126
1, 64290, Note_off_c, 0, 81, 65
1, 64294, Note_off_c, 0, 74, 58
1, 64296, Note_off_c, 0, 77, 67
1, 64297, Control_c, 0, 64, 26
1, 64297, Control_c, 0, 67, 123
1, 64312, Control_c, 0, 64, 63
1, 64312, Control_c, 0, 67, 121
1, 64312, Note_off_c, 0, 69, 44
1, 64326, Note_on_c, 0, 47, 66
1, 64326, Control_c, 0, 64, 90
1, 64326, Control_c, 0, 67, 119
1, 64341, Note_off_c, 0, 45, 63
1, 64341, Control_c, 0, 64, 127
1, 64356, Control_c, 0, 67, 118
1, 64367, Note_on_c, 0, 48, 65
1, 64371, Control_c, 0, 67, 118
1, 64383, Note_off_c, 0, 47, 64
1, 64386, Control_c, 0, 67, 117
1, 64400, Control_c, 0, 67, 117
1, 64412, Note_on_c, 0, 50, 60
1, 64417, Note_off_c, 0, 48, 64
1, 64430, Control_c, 0, 67, 117
1, 64443, Note_off_c, 0, 50, 66
1, 64458, Note_on_c, 0, 52, 57
1, 64459, Control_c, 0, 67, 117
1, 64467, Note_on_c, 0, 86, 77
1, 64473, Note_on_c, 0, 81, 52
1, 64474, Control_c, 0, 67, 116
1, 64482, Note_off_c, 0, 52, 59
1, 64485, Note_on_c, 0, 74, 41
1, 64489, Control_c, 0, 67, 114
1, 64498, Note_on_c, 0, 77, 26
1, 64504, Control_c, 0, 67, 113
1, 64518, Control_c, 0, 67, 113
1, 64533, Control_c, 0, 67, 112
1, 64536, Note_off_c, 0, 77, 49
1, 64541, Note_on_c, 0, 57, 71
1, 64548, Control_c, 0, 67, 110
1, 64564, Control_c, 0, 67, 108
1, 64579, Control_c, 0, 67, 107
1, 64582, Note_off_c, 0, 57, 60
1, 64587, Note_on_c, 0, 60, 66
1, 64594, Control_c, 0, 67, 106
1, 64604, Note_off_c, 0, 86, 62
1, 64645, Note_off_c, 0, 60, 62
1, 64650, Note_on_c, 0, 84, 80
1, 64652, Note_on_c, 0, 64, 65
1, 64668, Control_c, 0, 67, 106
1, 64669, Note_on_c, 0, 65, 69
1, 64676, Note_off_c, 0, 84, 69
1, 64679, Note_off_c, 0, 81, 40
1, 64682, Note_off_c, 0, 64, 66
1, 64683, Control_c, 0, 67, 107
1, 64697, Control_c, 0, 67, 108
1, 64704, Note_off_c, 0, 74, 21
1, 64708, Note_off_c, 0, 65, 60
1, 64727, Control_c, 0, 67, 107
1, 64741, Note_on_c, 0, 64, 73
1, 64742, Control_c, 0, 67, 106
1, 64767, Note_off_c, 0, 64, 69
1, 64786, Control_c, 0, 67, 107
1, 64824, Control_c, 0, 67, 106
1, 64828, Note_on_c, 0, 59, 57
1, 64852, Note_off_c, 0, 59, 59
1, 64853, Control_c, 0, 67, 106
1, 64860, Note_on_c, 0, 83, 84
1, 64868, Control_c, 0, 67, 106
1, 64876, Note_on_c, 0, 74, 50
1, 64881, Note_on_c, 0, 69, 49
1, 64891, Note_on_c, 0, 59, 55
1, 64899, Note_on_c, 0, 77, 31
1, 64902, Note_off_c, 0, 74, 56
1, 64913, Note_off_c, 0, 59, 64
1, 64932, Note_off_c, 0, 69, 42
1, 64932, Note_off_c, 0, 77, 50
1, 64962, Note_on_c, 0, 53, 58
1, 64971, Control_c, 0, 67, 107
1, 64986, Control_c, 0, 64, 90
1, 64997, Note_off_c, 0, 53, 63
1, 65001, Control_c, 0, 64, 59
1, 65001, Control_c, 0, 67, 106
1, 65016, Control_c, 0, 64, 0
1, 65016, Control_c, 0, 67, 105
1, 65020, Note_off_c, 0, 83, 59
1, 65028, Poly_aftertouch_c, 0, 52, 0
1, 65031, Control_c, 0, 67, 103
1, 65046, Control_c, 0, 67, 100
1, 65056, Note_on_c, 0, 48, 10
1, 65060, Control_c, 0, 64, 50
1, 65060, Control_c, 0, 67, 97
1, 65069, Note_on_c, 0, 81, 93
1, 65075, Control_c, 0, 64, 75
1, 65075, Control_c, 0, 67, 92
1, 65078, Note_on_c, 0, 45, 68
1, 65090, Control_c, 0, 64, 127
1, 65090, Control_c, 0, 67, 86
1, 65105, Control_c, 0, 67, 79
1, 65107, Note_off_c, 0, 48, 32
1, 65120, Control_c, 0, 67, 73
1, 65125, Note_off_c, 0, 81, 67
1, 65135, Control_c, 0, 67, 68
1, 65149, Control_c, 0, 67, 66
1, 65153, Note_on_c, 0, 47, 74
1, 65164, Control_c, 0, 67, 62
1, 65179, Control_c, 0, 67, 59
1, 65189, Note_off_c, 0, 45, 63
1, 65190, Note_on_c, 0, 48, 73
1, 65194, Control_c, 0, 67, 55
1, 65195, Note_off_c, 0, 47, 0
1, 65209, Control_c, 0, 67, 52
1, 65216, Note_on_c, 0, 50, 69
1, 65222, Poly_aftertouch_c, 0, 47, 0
1, 65223, Control_c, 0, 67, 46
1, 65227, Note_off_c, 0, 48, 65
1, 65238, Control_c, 0, 67, 38
1, 65245, Note_off_c, 0, 50, 67
1, 65253, Control_c, 0, 67, 27
1, 65263, Note_on_c, 0, 52, 56
1, 65267, Control_c, 0, 67, 13
1, 65274, Note_on_c, 0, 86, 91
1, 65282, Control_c, 0, 67, 8
1, 65288, Note_off_c, 0, 52, 57
1, 65289, Note_on_c, 0, 74, 65
1, 65290, Note_on_c, 0, 77, 62
1, 65308, Note_off_c, 0, 77, 66
1, 65312, Control_c, 0, 67, 9
1, 65314, Note_off_c, 0, 74, 65
1, 65320, Note_off_c, 0, 86, 64
1, 65335, Note_on_c, 0, 57, 68
1, 65356, Control_c, 0, 67, 9
1, 65372, Control_c, 0, 67, 11
1, 65385, Note_on_c, 0, 60, 58
1, 65387, Control_c, 0, 67, 11
1, 65388, Note_off_c, 0, 57, 64
1, 65402, Control_c, 0, 67, 12
1, 65425, Note_off_c, 0, 60, 63
1, 65432, Control_c, 0, 64, 106
1, 65445, Note_on_c, 0, 64, 48
1, 65446, Control_c, 0, 64, 71
1, 65461, Control_c, 0, 64, 51
1, 65473, Note_off_c, 0, 64, 52
1, 65476, Control_c, 0, 64, 17
1, 65476, Control_c, 0, 67, 10
1, 65480, Note_on_c, 0, 84, 75
1, 65481, Note_on_c, 0, 53, 77
1, 65490, Control_c, 0, 64, 26
1, 65490, Control_c, 0, 67, 8
1, 65505, Control_c, 0, 64, 53
1, 65505, Control_c, 0, 67, 0
1, 65520, Control_c, 0, 64, 74
1, 65533, Note_off_c, 0, 84, 63
1, 65535, Control_c, 0, 64, 127
1, 65553, Note_on_c, 0, 55, 74
1, 65574, Note_on_c, 0, 83, 81
1, 65581, Note_off_c, 0, 53, 63
1, 65588, Note_on_c, 0, 57, 73
1, 65591, Note_on_c, 0, 79, 64
1, 65609, Note_off_c, 0, 79, 65
1, 65611, Note_off_c, 0, 55, 64
1, 65621, Note_on_c, 0, 59, 65
1, 65623, Note_off_c, 0, 83, 65
1, 65643, Note_off_c, 0, 57, 63
1, 65658, Note_off_c, 0, 59, 66
1, 65665, Note_on_c, 0, 86, 92
1, 65667, Note_on_c, 0, 60, 63
1, 65680, Note_on_c, 0, 74, 63
1, 65694, Note_off_c, 0, 60, 65
1, 65698, Note_off_c, 0, 74, 66
1, 65700, Note_off_c, 0, 86, 64
1, 65705, Control_c, 0, 64, 96
1, 65720, Control_c, 0, 64, 61
1, 65735, Control_c, 0, 64, 0
1, 65759, Note_on_c, 0, 65, 55
1, 65783, Note_on_c, 0, 69, 69
1, 65796, Note_off_c, 0, 65, 65
1, 65827, Note_off_c, 0, 69, 66
1, 65857, Note_on_c, 0, 72, 55
1, 65884, Note_off_c, 0, 72, 62
1, 65892, Note_on_c, 0, 84, 102
1, 65913, Note_on_c, 0, 62, 75
1, 65913, Control_c, 0, 64, 60
1, 65928, Control_c, 0, 64, 98
1, 65943, Control_c, 0, 64, 127
1, 65943, Control_c, 0, 67, 25
1, 65958, Control_c, 0, 67, 26
1, 65972, Control_c, 0, 67, 32
1, 65987, Control_c, 0, 67, 34
1, 65987, Note_on_c, 0, 64, 75
1, 66002, Control_c, 0, 67, 33
1, 66017, Control_c, 0, 67, 32
1, 66017, Note_off_c, 0, 62, 64
1, 66032, Control_c, 0, 67, 30
1, 66032, Note_on_c, 0, 65, 72
1, 66046, Control_c, 0, 64, 107
1, 66046, Control_c, 0, 67, 31
1, 66061, Control_c, 0, 64, 66
1, 66061, Control_c, 0, 67, 34
1, 66062, Note_off_c, 0, 64, 64
1, 66076, Control_c, 0, 64, 0
1, 66076, Control_c, 0, 67, 37
1, 66078, Note_on_c, 0, 67, 64
1, 66090, Note_off_c, 0, 65, 63
1, 66090, Control_c, 0, 67, 41
1, 66098, Note_on_c, 0, 86, 82
1, 66100, Note_off_c, 0, 84, 63
1, 66105, Control_c, 0, 67, 48
1, 66116, Note_off_c, 0, 67, 66
1, 66120, Control_c, 0, 67, 58
1, 66126, Note_on_c, 0, 69, 66
1, 66135, Control_c, 0, 67, 63
1, 66150, Control_c, 0, 67, 65
1, 66151, Note_off_c, 0, 69, 67
1, 66152, Note_off_c, 0, 86, 61
1, 66166, Note_on_c, 0, 74, 73
1, 66166, Control_c, 0, 67, 66
1, 66181, Control_c, 0, 67, 68
1, 66195, Control_c, 0, 67, 69
1, 66204, Note_on_c, 0, 77, 73
1, 66204, Note_off_c, 0, 74, 63
1, 66210, Control_c, 0, 67, 71
1, 66225, Control_c, 0, 67, 74
1, 66238, Note_off_c, 0, 77, 67
1, 66240, Control_c, 0, 67, 74
1, 66255, Note_on_c, 0, 81, 64
1, 66269, Control_c, 0, 67, 74
1, 66284, Control_c, 0, 67, 73
1, 66300, Note_on_c, 0, 84, 86
1, 66303, Note_off_c, 0, 81, 66
1, 66306, Note_on_c, 0, 53, 67
1, 66306, Control_c, 0, 67, 72
1, 66321, Control_c, 0, 67, 71
1, 66336, Control_c, 0, 67, 70
1, 66351, Control_c, 0, 64, 51
1, 66351, Control_c, 0, 67, 68
1, 66356, Note_on_c, 0, 55, 46
1, 66366, Control_c, 0, 64, 73
1, 66366, Control_c, 0, 67, 67
1, 66381, Control_c, 0, 64, 75
1, 66381, Control_c, 0, 67, 65
1, 66387, Note_off_c, 0, 53, 63
1, 66395, Control_c, 0, 64, 79
1, 66396, Note_on_c, 0, 57, 76
1, 66401, Note_off_c, 0, 55, 64
1, 66410, Control_c, 0, 64, 90
1, 66410, Control_c, 0, 67, 64
1, 66425, Control_c, 0, 64, 127
1, 66426, Note_on_c, 0, 59, 61
1, 66431, Note_off_c, 0, 57, 65
1, 66440, Control_c, 0, 67, 64
1, 66452, Note_off_c, 0, 59, 67
1, 66464, Note_on_c, 0, 60, 64
1, 66469, Control_c, 0, 67, 65
1, 66479, Note_off_c, 0, 84, 51
1, 66484, Control_c, 0, 67, 66
1, 66490, Note_off_c, 0, 60, 65
1, 66499, Control_c, 0, 67, 67
1, 66504, Note_on_c, 0, 83, 86
1, 66514, Control_c, 0, 67, 68
1, 66528, Control_c, 0, 67, 70
1, 66535, Note_off_c, 0, 83, 64
1, 66543, Control_c, 0, 67, 72
1, 66548, Note_on_c, 0, 65, 57
1, 66558, Control_c, 0, 64, 91
1, 66558, Control_c, 0, 67, 74
1, 66563, Note_on_c, 0, 64, 53
1, 66573, Control_c, 0, 64, 62
1, 66573, Control_c, 0, 67, 75
1, 66580, Note_off_c, 0, 65, 63
1, 66581, Note_on_c, 0, 69, 61
1, 66585, Note_off_c, 0, 64, 60
1, 66588, Control_c, 0, 64, 0
1, 66588, Control_c, 0, 67, 75
1, 66602, Control_c, 0, 67, 76
1, 66609, Note_off_c, 0, 69, 67
1, 66622, Note_on_c, 0, 72, 72
1, 66632, Control_c, 0, 67, 76
1, 66651, Note_off_c, 0, 72, 66
1, 66662, Control_c, 0, 67, 75
1, 66676, Control_c, 0, 67, 73
1, 66691, Control_c, 0, 67, 71
1, 66706, Control_c, 0, 64, 23
1, 66706, Control_c, 0, 67, 69
1, 66721, Control_c, 0, 64, 67
1, 66724, Note_on_c, 0, 81, 83
1, 66729, Note_on_c, 0, 69, 56
1, 66736, Control_c, 0, 64, 78
1, 66736, Control_c, 0, 67, 67
1, 66738, Note_on_c, 0, 77, 58
1, 66744, Note_on_c, 0, 74, 49
1, 66746, Note_on_c, 0, 45, 57
1, 66751, Control_c, 0, 64, 86
1, 66751, Control_c, 0, 67, 67
1, 66751, Note_off_c, 0, 69, 63
1, 66762, Note_off_c, 0, 77, 66
1, 66764, Note_on_c, 0, 47, 65
1, 66766, Control_c, 0, 64, 88
1, 66766, Control_c, 0, 67, 66
1, 66770, Note_off_c, 0, 74, 57
1, 66772, Note_off_c, 0, 81, 64
1, 66780, Control_c, 0, 67, 67
1, 66795, Control_c, 0, 64, 84
1, 66795, Control_c, 0, 67, 69
1, 66810, Control_c, 0, 64, 69
1, 66810, Control_c, 0, 67, 70
1, 66814, Note_off_c, 0, 45, 65
1, 66825, Control_c, 0, 64, 45
1, 66825, Control_c, 0, 67, 70
1, 66828, Note_on_c, 0, 48, 64
1, 66839, Control_c, 0, 64, 0
1, 66839, Control_c, 0, 67, 70
1, 66858, Note_off_c, 0, 47, 65
1, 66869, Control_c, 0, 67, 69
1, 66880, Note_on_c, 0, 50, 76
1, 66884, Control_c, 0, 67, 68
1, 66889, Note_off_c, 0, 48, 63
1, 66899, Control_c, 0, 67, 66
1, 66913, Control_c, 0, 67, 64
1, 66915, Note_on_c, 0, 52, 71
1, 66916, Note_off_c, 0, 50, 66
1, 66928, Control_c, 0, 64, 58
1, 66928, Control_c, 0, 67, 62
1, 66932, Note_on_c, 0, 86, 88
1, 66940, Note_off_c, 0, 52, 66
1, 66941, Note_on_c, 0, 77, 30
1, 66943, Note_on_c, 0, 74, 63
1, 66943, Control_c, 0, 64, 75
1, 66943, Control_c, 0, 67, 61
1, 66958, Control_c, 0, 64, 92
1, 66958, Control_c, 0, 67, 61
1, 66970, Note_off_c, 0, 74, 66
1, 66971, Note_on_c, 0, 81, 19
1, 66974, Control_c, 0, 64, 127
1, 66974, Control_c, 0, 67, 60
1, 66974, Note_off_c, 0, 77, 51
1, 66980, Note_off_c, 0, 86, 64
1, 66989, Control_c, 0, 67, 59
1, 67004, Control_c, 0, 67, 59
1, 67004, Note_on_c, 0, 57, 73
1, 67016, Note_off_c, 0, 81, 37
1, 67053, Note_on_c, 0, 60, 63
1, 67055, Control_c, 0, 67, 59
1, 67057, Note_off_c, 0, 57, 63
1, 67070, Control_c, 0, 64, 115
1, 67084, Control_c, 0, 64, 83
1, 67084, Control_c, 0, 67, 61
1, 67096, Note_off_c, 0, 60, 63
1, 67099, Control_c, 0, 64, 63
1, 67099, Control_c, 0, 67, 61
1, 67106, Note_on_c, 0, 64, 62
1, 67114, Control_c, 0, 64, 24
1, 67126, Note_off_c, 0, 64, 64
1, 67129, Control_c, 0, 64, 0
1, 67129, Control_c, 0, 67, 60
1, 67139, Note_on_c, 0, 84, 87
1, 67144, Control_c, 0, 64, 15
1, 67144, Control_c, 0, 67, 59
1, 67153, Note_on_c, 0, 53, 84
1, 67159, Control_c, 0, 64, 53
1, 67159, Control_c, 0, 67, 58
1, 67174, Control_c, 0, 64, 70
1, 67189, Control_c, 0, 64, 88
1, 67204, Control_c, 0, 64, 127
1, 67219, Note_on_c, 0, 55, 75
1, 67248, Control_c, 0, 67, 59
1, 67253, Note_off_c, 0, 53, 58
1, 67263, Control_c, 0, 67, 59
1, 67267, Note_on_c, 0, 57, 75
1, 67277, Control_c, 0, 67, 60
1, 67283, Note_off_c, 0, 55, 58
1, 67292, Control_c, 0, 67, 61
1, 67294, Note_on_c, 0, 59, 71
1, 67307, Control_c, 0, 67, 61
1, 67317, Note_off_c, 0, 57, 64
1, 67322, Control_c, 0, 67, 63
1, 67329, Note_off_c, 0, 84, 61
1, 67329, Note_off_c, 0, 59, 68
1, 67337, Control_c, 0, 67, 64
1, 67338, Note_on_c, 0, 60, 71
1, 67338, Note_on_c, 0, 83, 90
1, 67351, Control_c, 0, 67, 64
1, 67357, Note_on_c, 0, 74, 54
1, 67360, Note_off_c, 0, 83, 70
1, 67368, Note_off_c, 0, 60, 64
1, 67378, Note_off_c, 0, 74, 64
1, 67379, Note_on_c, 0, 79, 23
1, 67381, Control_c, 0, 67, 64
1, 67396, Control_c, 0, 67, 62
1, 67411, Control_c, 0, 67, 61
1, 67417, Note_on_c, 0, 65, 84
1, 67418, Note_off_c, 0, 79, 53
1, 67425, Control_c, 0, 67, 59
1, 67469, Note_on_c, 0, 69, 67
1, 67469, Control_c, 0, 67, 60
1, 67478, Note_off_c, 0, 65, 63
1, 67484, Control_c, 0, 67, 59
1, 67499, Control_c, 0, 67, 59
1, 67514, Note_off_c, 0, 69, 63
1, 67514, Control_c, 0, 67, 59
1, 67526, Note_on_c, 0, 72, 73
1, 67529, Control_c, 0, 67, 63
1, 67544, Control_c, 0, 64, 97
1, 67544, Control_c, 0, 67, 67
1, 67553, Note_off_c, 0, 72, 66
1, 67558, Control_c, 0, 64, 64
1, 67558, Control_c, 0, 67, 73
1, 67561, Note_on_c, 0, 84, 102
1, 67573, Control_c, 0, 64, 0
1, 67573, Control_c, 0, 67, 77
1, 67578, Note_on_c, 0, 62, 83
1, 67588, Control_c, 0, 67, 82
1, 67603, Control_c, 0, 67, 88
1, 67618, Control_c, 0, 67, 95
1, 67633, Control_c, 0, 67, 101
1, 67648, Control_c, 0, 67, 106
1, 67660, Note_on_c, 0, 64, 72
1, 67663, Control_c, 0, 67, 110
1, 67677, Control_c, 0, 67, 111
1, 67681, Note_off_c, 0, 62, 64
1, 67710, Note_on_c, 0, 65, 71
1, 67722, Control_c, 0, 67, 111
1, 67723, Note_off_c, 0, 64, 64
1, 67736, Control_c, 0, 67, 113
1, 67751, Control_c, 0, 67, 115
1, 67755, Note_on_c, 0, 67, 63
1, 67767, Control_c, 0, 67, 116
1, 67767, Note_off_c, 0, 65, 63
1, 67770, Note_off_c, 0, 84, 65
1, 67777, Note_on_c, 0, 86, 77
1, 67782, Control_c, 0, 67, 116
1, 67803, Note_off_c, 0, 67, 65
1, 67808, Note_on_c, 0, 69, 71
1, 67827, Note_off_c, 0, 86, 57
1, 67837, Note_off_c, 0, 69, 67
1, 67847, Note_on_c, 0, 74, 65
1, 67888, Note_off_c, 0, 74, 63
1, 67890, Note_on_c, 0, 77, 67
1, 67928, Note_off_c, 0, 77, 65
1, 67938, Note_on_c, 0, 81, 62
1, 67971, Note_on_c, 0, 84, 88
1, 67972, Note_off_c, 0, 81, 66
1, 67990, Note_on_c, 0, 65, 59
1, 67997, Control_c, 0, 67, 116
1, 67998, Note_off_c, 0, 84, 68
1, 68053, Note_on_c, 0, 67, 65
1, 68056, Control_c, 0, 67, 115
1, 68062, Note_off_c, 0, 65, 61
1, 68071, Control_c, 0, 67, 114
1, 68086, Control_c, 0, 67, 114
1, 68096, Note_off_c, 0, 67, 63
1, 68100, Control_c, 0, 67, 113
1, 68106, Note_on_c, 0, 69, 54
1, 68124, Note_on_c, 0, 71, 63
1, 68130, Control_c, 0, 64, 26
1, 68130, Control_c, 0, 67, 112
1, 68134, Note_off_c, 0, 69, 63
1, 68145, Control_c, 0, 64, 49
1, 68145, Control_c, 0, 67, 111
1, 68156, Note_off_c, 0, 71, 65
1, 68160, Control_c, 0, 64, 51
1, 68160, Control_c, 0, 67, 110
1, 68166, Note_on_c, 0, 72, 69
1, 68174, Control_c, 0, 64, 50
1, 68175, Note_on_c, 0, 83, 75
1, 68189, Control_c, 0, 64, 39
1, 68189, Control_c, 0, 67, 110
1, 68191, Note_off_c, 0, 72, 67
1, 68204, Control_c, 0, 64, 0
1, 68204, Control_c, 0, 67, 111
1, 68208, Note_off_c, 0, 83, 62
1, 68244, Note_on_c, 0, 77, 58
1, 68263, Control_c, 0, 67, 112
1, 68271, Note_on_c, 0, 81, 74
1, 68276, Note_off_c, 0, 77, 66
1, 68278, Control_c, 0, 67, 112
1, 68302, Note_off_c, 0, 81, 62
1, 68307, Control_c, 0, 67, 112
1, 68337, Control_c, 0, 67, 111
1, 68352, Control_c, 0, 67, 110
1, 68366, Control_c, 0, 67, 108
1, 68376, Note_on_c, 0, 45, 72
1, 68381, Control_c, 0, 67, 106
1, 68384, Note_on_c, 0, 81, 90
1, 68394, Note_on_c, 0, 74, 78
1, 68395, Note_on_c, 0, 69, 84
1, 68396, Control_c, 0, 64, 59
1, 68396, Control_c, 0, 67, 103
1, 68399, Note_on_c, 0, 77, 65
1, 68411, Control_c, 0, 64, 93
1, 68411, Control_c, 0, 67, 101
1, 68417, Note_off_c, 0, 74, 69
1, 68420, Note_off_c, 0, 69, 70
1, 68424, Note_on_c, 0, 79, 36
1, 68426, Control_c, 0, 64, 127
1, 68426, Control_c, 0, 67, 100
1, 68429, Note_off_c, 0, 77, 68
1, 68434, Note_on_c, 0, 47, 68
1, 68434, Note_off_c, 0, 81, 65
1, 68441, Control_c, 0, 67, 98
1, 68456, Control_c, 0, 67, 96
1, 68456, Note_off_c, 0, 79, 48
1, 68465, Note_off_c, 0, 45, 64
1, 68471, Note_on_c, 0, 48, 75
1, 68471, Control_c, 0, 67, 93
1, 68481, Note_off_c, 0, 47, 65
1, 68485, Control_c, 0, 67, 91
1, 68499, Note_on_c, 0, 50, 72
1, 68506, Note_off_c, 0, 48, 66
1, 68530, Control_c, 0, 67, 91
1, 68530, Note_off_c, 0, 50, 67
1, 68542, Note_on_c, 0, 52, 58
1, 68552, Control_c, 0, 67, 90
1, 68560, Poly_aftertouch_c, 0, 74, 0
1, 68568, Note_off_c, 0, 52, 57
1, 68568, Control_c, 0, 67, 90
1, 68597, Control_c, 0, 67, 89
1, 68607, Note_on_c, 0, 86, 81
1, 68611, Note_on_c, 0, 77, 53
1, 68612, Control_c, 0, 67, 88
1, 68614, Note_on_c, 0, 74, 61
1, 68621, Note_on_c, 0, 81, 57
1, 68626, Note_on_c, 0, 57, 80
1, 68627, Control_c, 0, 67, 85
1, 68634, Note_off_c, 0, 77, 62
1, 68642, Note_off_c, 0, 81, 62
1, 68642, Control_c, 0, 67, 81
1, 68646, Note_off_c, 0, 74, 65
1, 68653, Note_off_c, 0, 86, 63
1, 68657, Control_c, 0, 67, 78
1, 68671, Control_c, 0, 67, 77
1, 68675, Note_off_c, 0, 57, 60
1, 68679, Note_on_c, 0, 60, 67
1, 68686, Control_c, 0, 67, 77
1, 68701, Control_c, 0, 67, 76
1, 68715, Control_c, 0, 67, 75
1, 68726, Poly_aftertouch_c, 0, 59, 127
1, 68728, Note_on_c, 0, 64, 65
1, 68730, Control_c, 0, 67, 73
1, 68732, Note_off_c, 0, 60, 62
1, 68745, Control_c, 0, 67, 71
1, 68760, Poly_aftertouch_c, 0, 59, 0
1, 68760, Control_c, 0, 67, 70
1, 68773, Note_off_c, 0, 64, 64
1, 68775, Control_c, 0, 67, 68
1, 68781, Note_on_c, 0, 65, 67
1, 68790, Control_c, 0, 67, 65
1, 68798, Note_on_c, 0, 84, 84
1, 68804, Control_c, 0, 67, 60
1, 68819, Control_c, 0, 67, 53
1, 68834, Control_c, 0, 67, 47
1, 68837, Note_off_c, 0, 65, 62
1, 68845, Note_on_c, 0, 64, 70
1, 68845, Note_off_c, 0, 84, 61
1, 68849, Control_c, 0, 67, 44
1, 68864, Control_c, 0, 67, 41
1, 68879, Note_off_c, 0, 64, 67
1, 68879, Control_c, 0, 67, 38
1, 68879, Note_on_c, 0, 83, 88
1, 68883, Note_on_c, 0, 60, 67
1, 68894, Control_c, 0, 67, 33
1, 68898, Note_on_c, 0, 79, 60
1, 68908, Note_off_c, 0, 60, 65
1, 68909, Control_c, 0, 67, 26
1, 68916, Note_off_c, 0, 79, 63
1, 68923, Note_off_c, 0, 83, 66
1, 68923, Control_c, 0, 67, 24
1, 68938, Control_c, 0, 67, 22
1, 68953, Control_c, 0, 67, 19
1, 68968, Control_c, 0, 67, 12
1, 68973, Note_on_c, 0, 86, 101
1, 68979, Note_on_c, 0, 59, 58
1, 68983, Control_c, 0, 67, 0
1, 68987, Note_on_c, 0, 74, 72
1, 69004, Note_off_c, 0, 74, 69
1, 69013, Note_off_c, 0, 86, 66
1, 69019, Note_off_c, 0, 59, 67
1, 69022, Note_on_c, 0, 53, 66
1, 69051, Note_off_c, 0, 53, 64
1, 69060, Note_on_c, 0, 47, 60
1, 69071, Control_c, 0, 64, 102
1, 69086, Control_c, 0, 64, 73
1, 69091, Note_on_c, 0, 50, 9
1, 69091, Note_off_c, 0, 47, 65
1, 69101, Control_c, 0, 64, 50
1, 69108, Note_off_c, 0, 50, 51
1, 69115, Control_c, 0, 64, 0
1, 69214, Note_on_c, 0, 57, 78
1, 69215, Note_on_c, 0, 84, 107
1, 69234, Control_c, 0, 64, 86
1, 69249, Control_c, 0, 64, 127
1, 69296, Note_on_c, 0, 59, 81
1, 69323, Note_off_c, 0, 57, 64
1, 69350, Note_on_c, 0, 60, 64
1, 69369, Note_off_c, 0, 59, 64
1, 69380, Note_on_c, 0, 62, 79
1, 69391, Note_off_c, 0, 60, 62
1, 69422, Note_off_c, 0, 62, 65
1, 69438, Note_on_c, 0, 64, 59
1, 69457, Note_off_c, 0, 84, 63
1, 69458, Note_on_c, 0, 86, 98
1, 69464, Note_off_c, 0, 64, 66
1, 69511, Note_on_c, 0, 69, 85
1, 69571, Note_on_c, 0, 72, 79
1, 69572, Note_off_c, 0, 69, 65
1, 69619, Note_on_c, 0, 76, 87
1, 69620, Note_off_c, 0, 72, 65
1, 69647, Note_off_c, 0, 86, 59
1, 69658, Control_c, 0, 64, 113
1, 69662, Note_off_c, 0, 76, 66
1, 69666, Note_on_c, 0, 84, 99
1, 69672, Control_c, 0, 64, 84
1, 69673, Note_on_c, 0, 77, 99
1, 69687, Control_c, 0, 64, 127
1, 69774, Note_on_c, 0, 76, 94
1, 69783, Note_off_c, 0, 77, 63
1, 69818, Note_off_c, 0, 76, 65
1, 69862, Note_off_c, 0, 84, 67
1, 69863, Note_on_c, 0, 83, 91
1, 69864, Note_on_c, 0, 74, 94
1, 69902, Note_off_c, 0, 83, 67
1, 69921, Note_off_c, 0, 74, 63
1, 69958, Note_on_c, 0, 72, 94
1, 69989, Note_off_c, 0, 72, 62
1, 70050, Control_c, 0, 64, 83
1, 70065, Control_c, 0, 64, 50
1, 70080, Control_c, 0, 64, 0
1, 70088, Note_on_c, 0, 59, 99
1, 70089, Note_on_c, 0, 95, 90
1, 70095, Control_c, 0, 64, 43
1, 70101, Note_on_c, 0, 93, 69
1, 70110, Control_c, 0, 64, 66
1, 70118, Note_off_c, 0, 93, 65
1, 70125, Control_c, 0, 64, 91
1, 70126, Note_off_c, 0, 59, 69
1, 70129, Note_off_c, 0, 95, 68
1, 70139, Control_c, 0, 64, 127
1, 70170, Control_c, 0, 64, 66
1, 70183, Note_on_c, 0, 60, 89
1, 70183, Note_on_c, 0, 96, 95
1, 70185, Control_c, 0, 64, 0
1, 70188, Note_on_c, 0, 62, 92
1, 70191, Note_on_c, 0, 95, 88
1, 70200, Control_c, 0, 64, 17
1, 70214, Control_c, 0, 64, 0
1, 70221, Note_off_c, 0, 95, 63
1, 70225, Note_off_c, 0, 96, 67
1, 70226, Note_off_c, 0, 62, 60
1, 70229, Note_off_c, 0, 60, 63
1, 70280, Note_on_c, 0, 98, 102
1, 70282, Note_on_c, 0, 62, 97
1, 70288, Note_on_c, 0, 86, 92
1, 70289, Control_c, 0, 64, 36
1, 70303, Control_c, 0, 64, 60
1, 70318, Control_c, 0, 64, 73
1, 70324, Note_off_c, 0, 62, 67
1, 70333, Control_c, 0, 64, 95
1, 70348, Control_c, 0, 64, 127
1, 70359, Note_off_c, 0, 98, 61
1, 70372, Note_off_c, 0, 86, 62
1, 70486, Note_on_c, 0, 64, 96
1, 70486, Note_on_c, 0, 100, 95
1, 70505, Note_on_c, 0, 84, 54
1, 70525, Note_off_c, 0, 84, 63
1, 70527, Note_on_c, 0, 86, 32
1, 70530, Note_off_c, 0, 64, 67
1, 70544, Note_off_c, 0, 100, 67
1, 70557, Note_off_c, 0, 86, 50
1, 70569, Note_on_c, 0, 62, 96
1, 70579, Note_on_c, 0, 98, 88
1, 70621, Note_off_c, 0, 62, 67
1, 70656, Note_off_c, 0, 98, 49
1, 70668, Note_on_c, 0, 96, 93
1, 70673, Note_on_c, 0, 60, 88
1, 70677, Note_on_c, 0, 93, 73
1, 70702, Note_off_c, 0, 93, 66
1, 70732, Control_c, 0, 64, 110
1, 70734, Note_off_c, 0, 96, 52
1, 70747, Control_c, 0, 64, 88
1, 70754, Note_on_c, 0, 95, 94
1, 70761, Note_on_c, 0, 59, 85
1, 70761, Control_c, 0, 64, 65
1, 70765, Note_off_c, 0, 60, 62
1, 70776, Control_c, 0, 64, 31
1, 70799, Control_c, 0, 64, 0
1, 70800, Note_off_c, 0, 95, 68
1, 70825, Note_off_c, 0, 59, 66
1, 70855, Note_on_c, 0, 93, 104
1, 70858, Note_on_c, 0, 62, 87
1, 70858, Note_on_c, 0, 65, 92
1, 70858, Note_on_c, 0, 86, 103
1, 70868, Note_on_c, 0, 57, 78
1, 70873, Control_c, 0, 64, 42
1, 70882, Note_off_c, 0, 62, 71
1, 70887, Control_c, 0, 64, 63
1, 70891, Note_off_c, 0, 57, 67
1, 70900, Note_off_c, 0, 65, 65
1, 70902, Control_c, 0, 64, 56
1, 70917, Control_c, 0, 64, 0
1, 70944, Note_off_c, 0, 93, 62
1, 71079, Note_on_c, 0, 93, 98
1, 71084, Note_on_c, 0, 69, 85
1, 71085, Note_on_c, 0, 77, 86
1, 71097, Note_on_c, 0, 74, 63
1, 71098, Note_off_c, 0, 86, 65
1, 71114, Note_off_c, 0, 69, 61
1, 71114, Note_off_c, 0, 74, 66
1, 71135, Note_off_c, 0, 77, 66
1, 71289, Note_off_c, 0, 93, 63
1, 71326, Note_on_c, 0, 95, 103
1, 71327, Note_on_c, 0, 83, 101
1, 71338, Note_on_c, 0, 74, 78
1, 71338, Note_on_c, 0, 71, 85
1, 71338, Note_on_c, 0, 79, 97
1, 71347, Control_c, 0, 64, 67
1, 71362, Control_c, 0, 64, 115
1, 71377, Control_c, 0, 64, 127
1, 71384, Note_off_c, 0, 79, 69
1, 71389, Note_on_c, 0, 70, 28
1, 71390, Note_off_c, 0, 70, 127
1, 71391, Note_off_c, 0, 74, 65
1, 71395, Note_off_c, 0, 71, 65
1, 71564, Note_on_c, 0, 88, 90
1, 71569, Note_off_c, 0, 95, 66
1, 71600, Note_off_c, 0, 88, 66
1, 71603, Note_off_c, 0, 83, 65
1, 71670, Poly_aftertouch_c, 0, 90, 0
1, 71681, Control_c, 0, 67, 10
1, 71696, Control_c, 0, 67, 14
1, 71710, Control_c, 0, 67, 21
1, 71725, Control_c, 0, 67, 28
1, 71740, Control_c, 0, 67, 35
1, 71755, Control_c, 0, 67, 42
1, 71770, Control_c, 0, 67, 47
1, 71785, Control_c, 0, 67, 52
1, 71800, Control_c, 0, 67, 56
1, 71804, Note_on_c, 0, 81, 66
1, 71810, Note_on_c, 0, 57, 71
1, 71815, Control_c, 0, 67, 60
1, 71816, Note_on_c, 0, 77, 70
1, 71818, Note_on_c, 0, 74, 59
1, 71823, Note_on_c, 0, 69, 43
1, 71830, Control_c, 0, 67, 64
1, 71837, Note_off_c, 0, 74, 65
1, 71843, Note_off_c, 0, 77, 68
1, 71845, Control_c, 0, 67, 66
1, 71850, Note_off_c, 0, 69, 57
1, 71851, Note_off_c, 0, 81, 63
1, 71888, Note_off_c, 0, 57, 60
1, 71889, Control_c, 0, 67, 65
1, 71904, Control_c, 0, 67, 64
1, 71910, Note_on_c, 0, 59, 67
1, 71932, Note_on_c, 0, 83, 71
1, 71933, Control_c, 0, 67, 64
1, 71948, Control_c, 0, 67, 63
1, 71949, Note_off_c, 0, 83, 66
1, 71963, Control_c, 0, 67, 61
1, 71978, Control_c, 0, 67, 61
1, 71981, Note_off_c, 0, 59, 64
1, 72006, Note_on_c, 0, 60, 68
1, 72018, Note_on_c, 0, 84, 75
1, 72037, Control_c, 0, 67, 60
1, 72060, Note_off_c, 0, 60, 61
1, 72066, Control_c, 0, 64, 104
1, 72066, Control_c, 0, 67, 60
1, 72069, Note_on_c, 0, 62, 70
1, 72081, Control_c, 0, 64, 65
1, 72081, Control_c, 0, 67, 59
1, 72084, Note_on_c, 0, 81, 77
1, 72084, Note_off_c, 0, 84, 66
1, 72096, Control_c, 0, 64, 0
1, 72111, Control_c, 0, 67, 58
1, 72122, Note_off_c, 0, 62, 62
1, 72123, Note_off_c, 0, 81, 63
1, 72126, Control_c, 0, 67, 58
1, 72127, Note_on_c, 0, 64, 78
1, 72140, Control_c, 0, 67, 56
1, 72155, Control_c, 0, 67, 54
1, 72170, Control_c, 0, 64, 18
1, 72170, Control_c, 0, 67, 51
1, 72176, Note_off_c, 0, 64, 66
1, 72185, Note_on_c, 0, 86, 91
1, 72185, Control_c, 0, 64, 64
1, 72185, Control_c, 0, 67, 47
1, 72190, Note_on_c, 0, 79, 84
1, 72197, Note_on_c, 0, 74, 72
1, 72200, Note_on_c, 0, 83, 71
1, 72200, Control_c, 0, 64, 86
1, 72200, Control_c, 0, 67, 41
1, 72214, Note_on_c, 0, 62, 97
1, 72215, Control_c, 0, 64, 127
1, 72215, Control_c, 0, 67, 33
1, 72229, Control_c, 0, 67, 24
1, 72244, Control_c, 0, 67, 10
1, 72259, Control_c, 0, 67, 0
1, 72286, Note_off_c, 0, 62, 65
1, 72290, Note_off_c, 0, 79, 55
1, 72299, Note_off_c, 0, 74, 57
1, 72307, Note_off_c, 0, 83, 59
1, 72327, Note_on_c, 0, 60, 90
1, 72398, Note_off_c, 0, 60, 0
1, 72419, Note_on_c, 0, 59, 91
1, 72421, Note_on_c, 0, 84, 71
1, 72426, Note_off_c, 0, 86, 66
1, 72432, Poly_aftertouch_c, 0, 60, 0
1, 72483, Note_off_c, 0, 59, 66
1, 72492, Note_on_c, 0, 83, 86
1, 72504, Note_off_c, 0, 84, 64
1, 72520, Note_on_c, 0, 57, 88
1, 72537, Note_off_c, 0, 83, 65
1, 72573, Note_off_c, 0, 57, 64
1, 72614, Note_on_c, 0, 95, 87
1, 72622, Note_on_c, 0, 86, 68
1, 72626, Note_on_c, 0, 59, 89
1, 72631, Note_off_c, 0, 95, 72
1, 72637, Note_off_c, 0, 86, 67
1, 72645, Note_on_c, 0, 83, 46
1, 72669, Note_off_c, 0, 83, 60
1, 72678, Note_off_c, 0, 59, 63
1, 72717, Note_on_c, 0, 96, 91
1, 72721, Note_on_c, 0, 60, 83
1, 72748, Note_off_c, 0, 96, 59
1, 72790, Note_off_c, 0, 60, 60
1, 72804, Note_on_c, 0, 98, 97
1, 72814, Note_on_c, 0, 62, 83
1, 72820, Note_on_c, 0, 86, 70
1, 72846, Note_off_c, 0, 86, 67
1, 72862, Note_on_c, 0, 64, 76
1, 72862, Note_off_c, 0, 98, 65
1, 72867, Note_off_c, 0, 62, 65
1, 72888, Control_c, 0, 64, 86
1, 72893, Note_on_c, 0, 100, 98
1, 72897, Note_off_c, 0, 64, 65
1, 72903, Control_c, 0, 64, 62
1, 72918, Control_c, 0, 64, 0
1, 72952, Note_off_c, 0, 100, 66
1, 72977, Control_c, 0, 64, 50
1, 72985, Note_on_c, 0, 71, 88
1, 72985, Note_on_c, 0, 98, 106
1, 72986, Note_on_c, 0, 67, 83
1, 72991, Note_on_c, 0, 95, 100
1, 72992, Control_c, 0, 64, 68
1, 72993, Note_on_c, 0, 62, 71
1, 73007, Control_c, 0, 64, 88
1, 73022, Control_c, 0, 64, 127
1, 73022, Note_off_c, 0, 67, 63
1, 73050, Note_off_c, 0, 62, 62
1, 73052, Note_off_c, 0, 71, 63
1, 73073, Note_off_c, 0, 95, 65
1, 73093, Note_off_c, 0, 98, 65
1, 73099, Note_on_c, 0, 93, 81
1, 73121, Note_off_c, 0, 93, 69
1, 73202, Note_on_c, 0, 96, 88
1, 73212, Note_on_c, 0, 60, 81
1, 73213, Note_on_c, 0, 62, 84
1, 73247, Note_off_c, 0, 96, 65
1, 73264, Note_off_c, 0, 60, 55
1, 73264, Note_off_c, 0, 62, 58
1, 73285, Note_on_c, 0, 95, 97
1, 73290, Note_on_c, 0, 59, 81
1, 73302, Note_on_c, 0, 60, 59
1, 73331, Note_off_c, 0, 60, 52
1, 73332, Note_off_c, 0, 95, 67
1, 73340, Control_c, 0, 64, 93
1, 73348, Note_off_c, 0, 59, 66
1, 73356, Control_c, 0, 64, 58
1, 73371, Control_c, 0, 64, 0
1, 73389, Note_on_c, 0, 84, 102
1, 73391, Note_on_c, 0, 93, 99
1, 73397, Note_on_c, 0, 57, 87
1, 73398, Note_on_c, 0, 67, 78
1, 73408, Note_on_c, 0, 65, 76
1, 73410, Note_on_c, 0, 62, 62
1, 73411, Note_on_c, 0, 64, 61
1, 73416, Control_c, 0, 64, 52
1, 73422, Note_off_c, 0, 57, 69
1, 73430, Note_off_c, 0, 62, 65
1, 73430, Note_off_c, 0, 67, 66
1, 73430, Note_off_c, 0, 65, 65
1, 73431, Control_c, 0, 64, 75
1, 73431, Note_off_c, 0, 64, 64
1, 73446, Control_c, 0, 64, 119
1, 73450, Note_on_c, 0, 91, 9
1, 73454, Note_off_c, 0, 84, 61
1, 73460, Control_c, 0, 64, 127
1, 73465, Note_off_c, 0, 93, 0
1, 73477, Note_off_c, 0, 91, 0
1, 73478, Note_on_c, 0, 83, 92
1, 73495, Poly_aftertouch_c, 0, 91, 0
1, 73498, Poly_aftertouch_c, 0, 93, 0
1, 73519, Note_off_c, 0, 83, 65
1, 73549, Control_c, 0, 64, 79
1, 73564, Control_c, 0, 64, 53
1, 73568, Poly_aftertouch_c, 0, 57, 0
1, 73578, Control_c, 0, 64, 0
1, 73585, Note_on_c, 0, 93, 102
1, 73586, Note_on_c, 0, 81, 101
1, 73595, Note_on_c, 0, 89, 92
1, 73600, Note_on_c, 0, 69, 85
1, 73600, Note_on_c, 0, 77, 89
1, 73606, Note_on_c, 0, 74, 79
1, 73628, Note_off_c, 0, 74, 69
1, 73636, Note_off_c, 0, 69, 67
1, 73646, Note_off_c, 0, 77, 64
1, 73649, Note_off_c, 0, 81, 65
1, 73651, Note_off_c, 0, 89, 55
1, 73686, Note_on_c, 0, 88, 91
1, 73690, Note_off_c, 0, 93, 62
1, 73733, Note_off_c, 0, 88, 69
1, 73823, Control_c, 0, 64, 46
1, 73836, Note_on_c, 0, 95, 99
1, 73838, Control_c, 0, 64, 55
1, 73839, Note_on_c, 0, 86, 98
1, 73842, Note_on_c, 0, 74, 60
1, 73848, Note_on_c, 0, 79, 65
1, 73853, Control_c, 0, 64, 64
1, 73854, Note_on_c, 0, 71, 57
1, 73865, Note_off_c, 0, 86, 66
1, 73867, Control_c, 0, 64, 74
1, 73868, Note_on_c, 0, 91, 32
1, 73869, Note_off_c, 0, 95, 68
1, 73880, Note_on_c, 0, 93, 32
1, 73881, Note_off_c, 0, 93, 127
1, 73882, Control_c, 0, 64, 99
1, 73890, Note_off_c, 0, 71, 60
1, 73896, Note_off_c, 0, 74, 62
1, 73896, Note_off_c, 0, 91, 38
1, 73897, Control_c, 0, 64, 127
1, 73912, Note_off_c, 0, 79, 58
1, 74077, Note_on_c, 0, 79, 68
1, 74082, Note_on_c, 0, 84, 84
1, 74084, Note_on_c, 0, 71, 68
1, 74090, Note_on_c, 0, 86, 84
1, 74096, Note_on_c, 0, 74, 56
1, 74104, Note_off_c, 0, 79, 68
1, 74115, Note_off_c, 0, 74, 63
1, 74116, Note_off_c, 0, 71, 65
1, 74117, Note_off_c, 0, 86, 58
1, 74144, Note_off_c, 0, 84, 64
1, 74177, Note_on_c, 0, 83, 88
1, 74224, Note_off_c, 0, 83, 63
1, 74313, Control_c, 0, 64, 83
1, 74328, Control_c, 0, 64, 60
1, 74331, Note_on_c, 0, 81, 91
1, 74336, Note_on_c, 0, 65, 72
1, 74341, Note_on_c, 0, 62, 66
1, 74342, Note_on_c, 0, 69, 77
1, 74342, Control_c, 0, 64, 19
1, 74346, Note_on_c, 0, 57, 65
1, 74349, Note_on_c, 0, 74, 59
1, 74357, Control_c, 0, 64, 0
1, 74369, Note_off_c, 0, 74, 64
1, 74370, Note_on_c, 0, 77, 36
1, 74370, Note_off_c, 0, 69, 59
1, 74373, Note_off_c, 0, 62, 66
1, 74377, Note_off_c, 0, 65, 61
1, 74379, Note_on_c, 0, 76, 24
1, 74385, Note_off_c, 0, 57, 66
1, 74387, Control_c, 0, 64, 45
1, 74400, Note_off_c, 0, 77, 46
1, 74401, Control_c, 0, 64, 56
1, 74416, Control_c, 0, 64, 56
1, 74421, Note_off_c, 0, 76, 29
1, 74431, Control_c, 0, 64, 43
1, 74446, Control_c, 0, 64, 0
1, 74498, Note_off_c, 0, 81, 21
1, 74660, Control_c, 0, 64, 36
1, 74671, Note_on_c, 0, 81, 79
1, 74675, Control_c, 0, 64, 51
1, 74686, Note_on_c, 0, 69, 62
1, 74687, Note_on_c, 0, 65, 58
1, 74687, Note_on_c, 0, 77, 48
1, 74690, Control_c, 0, 64, 61
1, 74701, Note_on_c, 0, 57, 56
1, 74702, Note_on_c, 0, 62, 49
1, 74705, Control_c, 0, 64, 66
1, 74714, Note_on_c, 0, 74, 24
1, 74716, Note_off_c, 0, 69, 65
1, 74717, Note_off_c, 0, 77, 56
1, 74720, Control_c, 0, 64, 70
1, 74731, Note_off_c, 0, 81, 65
1, 74732, Note_off_c, 0, 62, 61
1, 74733, Note_off_c, 0, 57, 64
1, 74734, Control_c, 0, 64, 73
1, 74737, Note_off_c, 0, 65, 59
1, 74749, Control_c, 0, 64, 76
1, 74751, Note_off_c, 0, 74, 55
1, 74764, Control_c, 0, 64, 78
1, 74779, Control_c, 0, 64, 81
1, 74794, Control_c, 0, 64, 85
1, 74808, Control_c, 0, 64, 87
1, 74823, Control_c, 0, 64, 88
1, 74838, Control_c, 0, 64, 89
1, 74853, Control_c, 0, 64, 90
1, 74868, Control_c, 0, 64, 91
1, 74883, Control_c, 0, 64, 92
1, 74897, Control_c, 0, 64, 92
1, 74927, Control_c, 0, 67, 8
1, 74942, Control_c, 0, 64, 93
1, 74942, Control_c, 0, 67, 9
1, 74987, Control_c, 0, 67, 10
1, 75002, Control_c, 0, 67, 11
1, 75017, Control_c, 0, 67, 11
1, 75032, Control_c, 0, 67, 12
1, 75061, Control_c, 0, 67, 13
1, 75076, Control_c, 0, 67, 14
1, 75091, Control_c, 0, 67, 16
1, 75106, Control_c, 0, 64, 92
1, 75106, Control_c, 0, 67, 18
1, 75121, Control_c, 0, 67, 20
1, 75136, Control_c, 0, 67, 21
1, 75150, Control_c, 0, 67, 22
1, 75165, Control_c, 0, 67, 24
1, 75180, Control_c, 0, 64, 90
1, 75180, Control_c, 0, 67, 25
1, 75195, Control_c, 0, 64, 85
1, 75195, Control_c, 0, 67, 26
1, 75210, Control_c, 0, 64, 78
1, 75210, Control_c, 0, 67, 29
1, 75224, Control_c, 0, 64, 67
1, 75224, Control_c, 0, 67, 33
1, 75239, Control_c, 0, 64, 51
1, 75239, Control_c, 0, 67, 36
1, 75243, Note_on_c, 0, 83, 65
1, 75246, Note_on_c, 0, 69, 46
1, 75254, Control_c, 0, 64, 0
1, 75254, Control_c, 0, 67, 38
1, 75258, Note_on_c, 0, 78, 52
1, 75262, Note_on_c, 0, 75, 52
1, 75269, Control_c, 0, 67, 40
1, 75272, Note_on_c, 0, 57, 14
1, 75290, Note_on_c, 0, 66, 41
1, 75291, Control_c, 0, 67, 40
1, 75296, Note_on_c, 0, 63, 37
1, 75306, Control_c, 0, 67, 41
1, 75321, Control_c, 0, 67, 43
1, 75336, Control_c, 0, 67, 46
1, 75351, Control_c, 0, 67, 50
1, 75365, Control_c, 0, 67, 52
1, 75380, Control_c, 0, 67, 52
1, 75395, Control_c, 0, 67, 53
1, 75425, Control_c, 0, 67, 53
1, 75454, Control_c, 0, 67, 54
1, 75469, Control_c, 0, 67, 54
1, 75483, Control_c, 0, 67, 54
1, 75498, Control_c, 0, 67, 53
1, 75557, Control_c, 0, 67, 54
1, 75572, Control_c, 0, 67, 53
1, 75587, Control_c, 0, 67, 51
1, 75602, Control_c, 0, 67, 50
1, 75617, Control_c, 0, 64, 18
1, 75617, Control_c, 0, 67, 49
1, 75631, Control_c, 0, 64, 33
1, 75631, Control_c, 0, 67, 48
1, 75646, Control_c, 0, 64, 42
1, 75646, Control_c, 0, 67, 47
1, 75661, Control_c, 0, 64, 50
1, 75661, Control_c, 0, 67, 46
1, 75675, Control_c, 0, 64, 58
1, 75675, Control_c, 0, 67, 45
1, 75690, Control_c, 0, 64, 63
1, 75705, Control_c, 0, 64, 66
1, 75705, Control_c, 0, 67, 44
1, 75720, Control_c, 0, 64, 70
1, 75720, Control_c, 0, 67, 44
1, 75735, Control_c, 0, 64, 75
1, 75735, Control_c, 0, 67, 43
1, 75751, Control_c, 0, 64, 80
1, 75751, Control_c, 0, 67, 42
1, 75766, Control_c, 0, 64, 85
1, 75780, Control_c, 0, 64, 92
1, 75795, Control_c, 0, 64, 102
1, 75810, Control_c, 0, 64, 122
1, 75810, Control_c, 0, 67, 42
1, 75816, Note_off_c, 0, 83, 39
1, 75825, Control_c, 0, 64, 127
1, 75825, Control_c, 0, 67, 41
1, 75967, Note_off_c, 0, 69, 33
1, 76069, Control_c, 0, 67, 42
1, 76074, Note_off_c, 0, 66, 40
1, 76084, Control_c, 0, 67, 42
1, 76099, Control_c, 0, 67, 43
1, 76114, Control_c, 0, 67, 43
1, 76122, Note_off_c, 0, 78, 53
1, 76123, Note_off_c, 0, 75, 36
1, 76129, Note_off_c, 0, 57, 34
1, 76129, Control_c, 0, 67, 44
1, 76143, Control_c, 0, 67, 44
1, 76173, Control_c, 0, 67, 45
1, 76188, Control_c, 0, 67, 46
1, 76203, Control_c, 0, 67, 47
1, 76218, Control_c, 0, 67, 48
1, 76248, Control_c, 0, 67, 48
1, 76275, Note_off_c, 0, 63, 38
1, 76277, Control_c, 0, 67, 49
1, 76292, Control_c, 0, 67, 50
1, 76306, Control_c, 0, 67, 50
1, 76321, Control_c, 0, 67, 51
1, 76336, Control_c, 0, 67, 51
1, 76366, Control_c, 0, 67, 51
1, 76395, Control_c, 0, 67, 51
1, 76454, Control_c, 0, 67, 53
1, 76469, Control_c, 0, 67, 54
1, 76559, Control_c, 0, 67, 54
1, 76574, Control_c, 0, 67, 55
1, 76589, Control_c, 0, 67, 56
1, 76603, Control_c, 0, 67, 57
1, 76618, Control_c, 0, 67, 58
1, 76633, Control_c, 0, 67, 61
1, 76648, Control_c, 0, 67, 66
1, 76663, Control_c, 0, 67, 71
1, 76677, Control_c, 0, 67, 74
1, 76692, Control_c, 0, 67, 75
1, 76707, Control_c, 0, 67, 77
1, 76722, Control_c, 0, 67, 80
1, 76737, Control_c, 0, 67, 85
1, 76752, Control_c, 0, 67, 89
1, 76766, Control_c, 0, 67, 91
1, 76789, Control_c, 0, 67, 92
1, 76803, Control_c, 0, 67, 93
1, 76818, Control_c, 0, 67, 94
1, 76833, Control_c, 0, 67, 95
1, 76848, Control_c, 0, 67, 96
1, 76862, Control_c, 0, 67, 97
1, 76892, Control_c, 0, 67, 97
1, 76907, Control_c, 0, 67, 98
1, 76922, Control_c, 0, 67, 100
1, 76966, Control_c, 0, 67, 100
1, 76981, Control_c, 0, 67, 101
1, 77041, Control_c, 0, 67, 101
1, 77055, Control_c, 0, 67, 103
1, 77070, Control_c, 0, 64, 118
1, 77070, Control_c, 0, 67, 105
1, 77085, Control_c, 0, 64, 110
1, 77100, Control_c, 0, 64, 107
1, 77115, Control_c, 0, 64, 104
1, 77129, Control_c, 0, 64, 101
1, 77129, Control_c, 0, 67, 105
1, 77144, Control_c, 0, 64, 98
1, 77144, Control_c, 0, 67, 106
1, 77159, Control_c, 0, 64, 96
1, 77159, Control_c, 0, 67, 107
1, 77174, Control_c, 0, 64, 93
1, 77189, Control_c, 0, 64, 91
1, 77203, Control_c, 0, 64, 88
1, 77218, Control_c, 0, 64, 86
1, 77233, Control_c, 0, 64, 85
1, 77233, Control_c, 0, 67, 107
1, 77247, Control_c, 0, 64, 84
1, 77262, Control_c, 0, 64, 83
1, 77277, Control_c, 0, 64, 81
1, 77292, Control_c, 0, 64, 79
1, 77307, Control_c, 0, 64, 77
1, 77321, Control_c, 0, 64, 76
1, 77336, Control_c, 0, 64, 73
1, 77352, Control_c, 0, 64, 70
1, 77367, Control_c, 0, 64, 64
1, 77382, Control_c, 0, 64, 57
1, 77386, Note_on_c, 0, 71, 56
1, 77397, Control_c, 0, 64, 42
1, 77397, Control_c, 0, 67, 108
1, 77402, Note_on_c, 0, 69, 45
1, 77406, Note_on_c, 0, 65, 38
1, 77412, Control_c, 0, 64, 20
1, 77413, Note_on_c, 0, 55, 37
1, 77426, Control_c, 0, 64, 0
1, 77426, Control_c, 0, 67, 108
1, 77441, Control_c, 0, 67, 109
1, 77533, Note_on_c, 0, 72, 63
1, 77589, Note_off_c, 0, 71, 57
1, 77656, Control_c, 0, 67, 108
1, 77662, Note_off_c, 0, 72, 60
1, 77667, Note_on_c, 0, 74, 71
1, 77730, Control_c, 0, 67, 108
1, 77745, Control_c, 0, 67, 107
1, 77759, Control_c, 0, 64, 29
1, 77759, Control_c, 0, 67, 106
1, 77774, Control_c, 0, 64, 46
1, 77789, Control_c, 0, 64, 55
1, 77804, Control_c, 0, 64, 60
1, 77804, Control_c, 0, 67, 105
1, 77819, Control_c, 0, 64, 63
1, 77819, Control_c, 0, 67, 104
1, 77834, Control_c, 0, 64, 65
1, 77834, Control_c, 0, 67, 103
1, 77835, Note_off_c, 0, 69, 48
1, 77849, Control_c, 0, 64, 67
1, 77849, Control_c, 0, 67, 103
1, 77863, Control_c, 0, 64, 70
1, 77863, Control_c, 0, 67, 102
1, 77878, Control_c, 0, 64, 73
1, 77893, Control_c, 0, 64, 75
1, 77908, Control_c, 0, 64, 78
1, 77923, Control_c, 0, 64, 80
1, 77923, Control_c, 0, 67, 102
1, 77938, Control_c, 0, 64, 82
1, 77953, Control_c, 0, 64, 84
1, 77967, Control_c, 0, 64, 84
1, 77967, Control_c, 0, 67, 103
1, 77968, Note_off_c, 0, 65, 40
1, 77982, Control_c, 0, 64, 85
1, 77982, Control_c, 0, 67, 103
1, 77997, Control_c, 0, 67, 104
1, 78012, Control_c, 0, 67, 104
1, 78026, Control_c, 0, 64, 84
1, 78026, Control_c, 0, 67, 105
1, 78033, Note_on_c, 0, 76, 79
1, 78041, Control_c, 0, 64, 78
1, 78041, Control_c, 0, 67, 106
1, 78048, Note_on_c, 0, 64, 47
1, 78054, Note_off_c, 0, 74, 51
1, 78056, Control_c, 0, 64, 69
1, 78056, Control_c, 0, 67, 107
1, 78062, Note_on_c, 0, 67, 48
1, 78071, Control_c, 0, 64, 60
1, 78071, Control_c, 0, 67, 108
1, 78085, Control_c, 0, 64, 41
1, 78100, Control_c, 0, 64, 0
1, 78130, Control_c, 0, 67, 108
1, 78146, Control_c, 0, 64, 31
1, 78146, Control_c, 0, 67, 109
1, 78161, Control_c, 0, 64, 43
1, 78175, Control_c, 0, 64, 49
1, 78190, Control_c, 0, 64, 52
1, 78190, Control_c, 0, 67, 109
1, 78194, Note_on_c, 0, 74, 74
1, 78205, Control_c, 0, 64, 56
1, 78205, Control_c, 0, 67, 110
1, 78220, Control_c, 0, 64, 58
1, 78220, Control_c, 0, 67, 110
1, 78235, Control_c, 0, 64, 58
1, 78235, Control_c, 0, 67, 111
1, 78264, Control_c, 0, 64, 58
1, 78264, Control_c, 0, 67, 112
1, 78287, Control_c, 0, 64, 56
1, 78287, Control_c, 0, 67, 113
1, 78301, Control_c, 0, 64, 53
1, 78301, Control_c, 0, 67, 114
1, 78316, Control_c, 0, 64, 45
1, 78316, Control_c, 0, 67, 114
1, 78325, Note_on_c, 0, 72, 80
1, 78331, Control_c, 0, 64, 32
1, 78331, Control_c, 0, 67, 115
1, 78343, Note_off_c, 0, 76, 49
1, 78346, Control_c, 0, 64, 0
1, 78346, Control_c, 0, 67, 116
1, 78361, Control_c, 0, 67, 117
1, 78365, Note_off_c, 0, 74, 60
1, 78375, Control_c, 0, 67, 117
1, 78376, Note_off_c, 0, 67, 44
1, 78432, Note_on_c, 0, 71, 74
1, 78435, Control_c, 0, 67, 118
1, 78442, Note_off_c, 0, 72, 60
1, 78449, Control_c, 0, 67, 118
1, 78464, Control_c, 0, 67, 119
1, 78476, Note_off_c, 0, 64, 60
1, 78502, Note_off_c, 0, 71, 63
1, 78538, Control_c, 0, 67, 120
1, 78560, Note_on_c, 0, 69, 71
1, 78567, Note_on_c, 0, 63, 53
1, 78570, Note_on_c, 0, 66, 46
1, 78612, Control_c, 0, 67, 120
1, 78621, Note_off_c, 0, 69, 60
1, 78701, Control_c, 0, 67, 121
1, 78775, Control_c, 0, 67, 121
1, 78790, Control_c, 0, 67, 122
1, 78919, Note_on_c, 0, 69, 54
1, 78923, Control_c, 0, 67, 121
1, 78938, Control_c, 0, 67, 120
1, 78954, Control_c, 0, 64, 25
1, 78954, Control_c, 0, 67, 119
1, 78969, Control_c, 0, 64, 38
1, 78969, Control_c, 0, 67, 119
1, 78984, Control_c, 0, 64, 49
1, 78984, Control_c, 0, 67, 118
1, 78998, Control_c, 0, 64, 58
1, 78998, Control_c, 0, 67, 117
1, 79013, Control_c, 0, 64, 62
1, 79013, Control_c, 0, 67, 116
1, 79035, Control_c, 0, 64, 64
1, 79035, Control_c, 0, 67, 115
1, 79050, Control_c, 0, 64, 66
1, 79065, Control_c, 0, 64, 67
1, 79080, Control_c, 0, 64, 70
1, 79080, Control_c, 0, 67, 115
1, 79095, Control_c, 0, 64, 74
1, 79095, Control_c, 0, 67, 114
1, 79109, Control_c, 0, 64, 79
1, 79109, Control_c, 0, 67, 114
1, 79124, Control_c, 0, 64, 81
1, 79139, Control_c, 0, 64, 84
1, 79147, Note_off_c, 0, 69, 26
1, 79154, Control_c, 0, 64, 87
1, 79163, Note_off_c, 0, 66, 33
1, 79169, Control_c, 0, 64, 89
1, 79184, Control_c, 0, 64, 91
1, 79198, Control_c, 0, 64, 92
1, 79213, Control_c, 0, 64, 93
1, 79228, Control_c, 0, 64, 95
1, 79243, Control_c, 0, 64, 96
1, 79243, Control_c, 0, 67, 114
1, 79272, Control_c, 0, 64, 96
1, 79285, Note_off_c, 0, 63, 34
1, 79317, Control_c, 0, 64, 97
1, 79331, Control_c, 0, 67, 115
1, 79346, Control_c, 0, 67, 115
1, 79361, Control_c, 0, 67, 115
1, 79391, Control_c, 0, 64, 96
1, 79405, Control_c, 0, 64, 96
1, 79405, Control_c, 0, 67, 115
1, 79420, Control_c, 0, 64, 92
1, 79420, Control_c, 0, 67, 116
1, 79435, Control_c, 0, 64, 84
1, 79435, Control_c, 0, 67, 117
1, 79449, Control_c, 0, 64, 74
1, 79464, Control_c, 0, 64, 63
1, 79464, Control_c, 0, 67, 118
1, 79479, Control_c, 0, 64, 47
1, 79480, Note_on_c, 0, 71, 47
1, 79492, Note_on_c, 0, 65, 36
1, 79494, Control_c, 0, 64, 0
1, 79494, Control_c, 0, 67, 118
1, 79503, Note_on_c, 0, 62, 20
1, 79509, Control_c, 0, 67, 119
1, 79524, Control_c, 0, 67, 120
1, 79687, Control_c, 0, 67, 120
1, 79717, Control_c, 0, 64, 13
1, 79717, Control_c, 0, 67, 119
1, 79731, Control_c, 0, 64, 34
1, 79731, Control_c, 0, 67, 118
1, 79747, Control_c, 0, 64, 45
1, 79747, Control_c, 0, 67, 116
1, 79762, Control_c, 0, 64, 53
1, 79762, Control_c, 0, 67, 116
1, 79784, Control_c, 0, 64, 58
1, 79784, Control_c, 0, 67, 115
1, 79799, Control_c, 0, 64, 61
1, 79799, Control_c, 0, 67, 115
1, 79814, Control_c, 0, 64, 64
1, 79814, Control_c, 0, 67, 113
1, 79825, Note_off_c, 0, 71, 52
1, 79828, Control_c, 0, 64, 65
1, 79828, Control_c, 0, 67, 112
1, 79843, Control_c, 0, 64, 68
1, 79843, Control_c, 0, 67, 110
1, 79858, Control_c, 0, 64, 71
1, 79873, Control_c, 0, 64, 75
1, 79887, Control_c, 0, 64, 79
1, 79887, Control_c, 0, 67, 110
1, 79902, Control_c, 0, 64, 82
1, 79902, Control_c, 0, 67, 108
1, 79917, Control_c, 0, 64, 85
1, 79917, Control_c, 0, 67, 105
1, 79932, Control_c, 0, 64, 87
1, 79932, Control_c, 0, 67, 103
1, 79947, Control_c, 0, 64, 89
1, 79947, Control_c, 0, 67, 104
1, 79950, Note_off_c, 0, 55, 26
1, 79962, Control_c, 0, 64, 92
1, 79962, Control_c, 0, 67, 105
1, 79970, Note_off_c, 0, 62, 40
1, 79977, Control_c, 0, 64, 96
1, 79990, Note_off_c, 0, 65, 39
1, 79992, Control_c, 0, 64, 98
1, 79992, Control_c, 0, 67, 105
1, 80007, Control_c, 0, 64, 100
1, 80007, Control_c, 0, 67, 104
1, 80021, Control_c, 0, 64, 101
1, 80051, Control_c, 0, 64, 101
1, 80066, Control_c, 0, 64, 102
1, 80095, Control_c, 0, 67, 104
1, 80125, Control_c, 0, 67, 103
1, 80199, Control_c, 0, 67, 103
1, 80214, Control_c, 0, 67, 102
1, 80228, Control_c, 0, 67, 101
1, 80287, Control_c, 0, 67, 100
1, 80302, Control_c, 0, 67, 100
1, 80317, Control_c, 0, 67, 99
1, 80376, Control_c, 0, 67, 99
1, 80391, Control_c, 0, 67, 98
1, 80436, Control_c, 0, 64, 101
1, 80465, Control_c, 0, 64, 101
1, 80480, Control_c, 0, 64, 99
1, 80495, Control_c, 0, 64, 97
1, 80510, Control_c, 0, 64, 93
1, 80532, Control_c, 0, 64, 87
1, 80547, Control_c, 0, 64, 81
1, 80556, Note_on_c, 0, 55, 38
1, 80556, Note_on_c, 0, 71, 65
1, 80563, Control_c, 0, 64, 73
1, 80565, Note_on_c, 0, 65, 41
1, 80574, Note_on_c, 0, 62, 45
1, 80577, Control_c, 0, 64, 64
1, 80592, Control_c, 0, 64, 54
1, 80607, Control_c, 0, 64, 39
1, 80622, Control_c, 0, 64, 26
1, 80637, Control_c, 0, 64, 25
1, 80651, Control_c, 0, 64, 32
1, 80666, Control_c, 0, 64, 40
1, 80666, Control_c, 0, 67, 98
1, 80681, Control_c, 0, 64, 47
1, 80695, Control_c, 0, 64, 52
1, 80710, Control_c, 0, 64, 57
1, 80725, Control_c, 0, 64, 61
1, 80725, Control_c, 0, 67, 97
1, 80740, Control_c, 0, 64, 63
1, 80740, Control_c, 0, 67, 97
1, 80755, Control_c, 0, 64, 64
1, 80761, Note_on_c, 0, 72, 78
1, 80770, Control_c, 0, 64, 66
1, 80770, Control_c, 0, 67, 95
1, 80785, Control_c, 0, 64, 68
1, 80785, Control_c, 0, 67, 95
1, 80800, Control_c, 0, 64, 70
1, 80802, Note_off_c, 0, 71, 59
1, 80815, Control_c, 0, 64, 71
1, 80829, Control_c, 0, 64, 72
1, 80844, Control_c, 0, 64, 73
1, 80859, Control_c, 0, 64, 73
1, 80859, Control_c, 0, 67, 95
1, 80874, Control_c, 0, 64, 74
1, 80901, Note_on_c, 0, 74, 78
1, 80903, Control_c, 0, 64, 74
1, 80918, Control_c, 0, 64, 75
1, 80937, Note_off_c, 0, 72, 62
1, 80948, Control_c, 0, 64, 75
1, 80948, Control_c, 0, 67, 96
1, 80963, Control_c, 0, 67, 97
1, 80977, Control_c, 0, 67, 97
1, 80992, Control_c, 0, 67, 98
1, 81007, Control_c, 0, 67, 99
1, 81022, Control_c, 0, 67, 100
1, 81026, Note_on_c, 0, 76, 81
1, 81051, Control_c, 0, 64, 75
1, 81051, Control_c, 0, 67, 101
1, 81058, Note_off_c, 0, 74, 63
1, 81066, Control_c, 0, 64, 74
1, 81066, Control_c, 0, 67, 104
1, 81081, Control_c, 0, 64, 70
1, 81081, Control_c, 0, 67, 106
1, 81095, Control_c, 0, 64, 65
1, 81095, Control_c, 0, 67, 108
1, 81110, Control_c, 0, 64, 52
1, 81110, Control_c, 0, 67, 109
1, 81125, Control_c, 0, 64, 16
1, 81125, Control_c, 0, 67, 110
1, 81140, Control_c, 0, 64, 0
1, 81140, Control_c, 0, 67, 112
1, 81155, Control_c, 0, 67, 114
1, 81169, Control_c, 0, 67, 116
1, 81172, Note_on_c, 0, 74, 71
1, 81181, Note_off_c, 0, 62, 57
1, 81184, Control_c, 0, 67, 119
1, 81187, Note_on_c, 0, 63, 57
1, 81188, Note_on_c, 0, 66, 55
1, 81199, Control_c, 0, 67, 121
1, 81205, Note_off_c, 0, 65, 38
1, 81214, Control_c, 0, 67, 121
1, 81223, Note_off_c, 0, 76, 48
1, 81295, Control_c, 0, 64, 17
1, 81310, Control_c, 0, 64, 36
1, 81325, Control_c, 0, 64, 51
1, 81325, Control_c, 0, 67, 121
1, 81340, Control_c, 0, 64, 59
1, 81340, Control_c, 0, 67, 120
1, 81356, Control_c, 0, 64, 63
1, 81356, Control_c, 0, 67, 120
1, 81371, Control_c, 0, 64, 64
1, 81386, Control_c, 0, 64, 66
1, 81400, Control_c, 0, 64, 69
1, 81400, Control_c, 0, 67, 120
1, 81415, Control_c, 0, 64, 72
1, 81430, Control_c, 0, 64, 74
1, 81445, Control_c, 0, 64, 75
1, 81445, Control_c, 0, 67, 121
1, 81460, Control_c, 0, 64, 75
1, 81460, Control_c, 0, 67, 122
1, 81472, Note_off_c, 0, 66, 58
1, 81474, Control_c, 0, 64, 76
1, 81474, Control_c, 0, 67, 123
1, 81485, Note_on_c, 0, 72, 64
1, 81489, Control_c, 0, 67, 125
1, 81504, Control_c, 0, 67, 126
1, 81519, Control_c, 0, 64, 75
1, 81519, Control_c, 0, 67, 126
1, 81533, Control_c, 0, 67, 127
1, 81540, Note_off_c, 0, 74, 34
1, 81548, Control_c, 0, 64, 73
1, 81563, Control_c, 0, 64, 67
1, 81578, Control_c, 0, 64, 58
1, 81593, Control_c, 0, 64, 36
1, 81598, Note_on_c, 0, 71, 65
1, 81599, Note_off_c, 0, 72, 60
1, 81607, Control_c, 0, 64, 0
1, 81700, Note_off_c, 0, 71, 37
1, 81726, Note_off_c, 0, 63, 55
1, 81733, Note_on_c, 0, 69, 63
1, 81752, Note_on_c, 0, 64, 45
1, 81754, Note_on_c, 0, 67, 43
1, 81772, Note_off_c, 0, 69, 57
1, 81800, Control_c, 0, 64, 20
1, 81815, Control_c, 0, 64, 34
1, 81830, Control_c, 0, 64, 43
1, 81844, Control_c, 0, 64, 50
1, 81859, Control_c, 0, 64, 54
1, 81874, Control_c, 0, 64, 56
1, 81889, Control_c, 0, 64, 56
1, 81904, Control_c, 0, 64, 57
1, 81918, Control_c, 0, 64, 57
1, 81978, Control_c, 0, 64, 57
1, 81992, Control_c, 0, 64, 54
1, 82007, Control_c, 0, 64, 46
1, 82030, Control_c, 0, 64, 25
1, 82044, Control_c, 0, 64, 0
1, 82064, Note_on_c, 0, 69, 57
1, 82133, Control_c, 0, 64, 28
1, 82138, Note_off_c, 0, 69, 57
1, 82149, Control_c, 0, 64, 41
1, 82164, Control_c, 0, 64, 48
1, 82179, Control_c, 0, 64, 51
1, 82194, Control_c, 0, 64, 53
1, 82209, Control_c, 0, 64, 56
1, 82223, Control_c, 0, 64, 59
1, 82238, Control_c, 0, 64, 62
1, 82253, Control_c, 0, 64, 63
1, 82267, Control_c, 0, 64, 64
1, 82282, Control_c, 0, 64, 65
1, 82297, Control_c, 0, 64, 66
1, 82312, Control_c, 0, 64, 68
1, 82327, Control_c, 0, 64, 70
1, 82342, Control_c, 0, 64, 71
1, 82356, Control_c, 0, 64, 71
1, 82475, Control_c, 0, 64, 71
1, 82490, Control_c, 0, 64, 69
1, 82505, Control_c, 0, 64, 65
1, 82520, Control_c, 0, 64, 59
1, 82520, Note_off_c, 0, 67, 57
1, 82534, Control_c, 0, 64, 47
1, 82537, Note_on_c, 0, 71, 34
1, 82540, Note_on_c, 0, 65, 20
1, 82549, Control_c, 0, 64, 34
1, 82552, Note_on_c, 0, 68, 32
1, 82564, Control_c, 0, 64, 19
1, 82568, Note_off_c, 0, 64, 29
1, 82579, Control_c, 0, 64, 0
1, 82741, Control_c, 0, 64, 11
1, 82756, Control_c, 0, 64, 30
1, 82779, Control_c, 0, 64, 43
1, 82794, Control_c, 0, 64, 53
1, 82809, Control_c, 0, 64, 59
1, 82823, Control_c, 0, 64, 62
1, 82838, Control_c, 0, 64, 63
1, 82853, Control_c, 0, 64, 66
1, 82867, Control_c, 0, 64, 69
1, 82882, Control_c, 0, 64, 75
1, 82897, Control_c, 0, 64, 80
1, 82912, Control_c, 0, 64, 84
1, 82912, Control_c, 0, 67, 126
1, 82915, Note_off_c, 0, 68, 39
1, 82917, Note_off_c, 0, 65, 41
1, 82927, Control_c, 0, 64, 89
1, 82927, Control_c, 0, 67, 122
1, 82928, Note_off_c, 0, 71, 39
1, 82943, Control_c, 0, 64, 96
1, 82943, Control_c, 0, 67, 120
1, 82958, Control_c, 0, 64, 107
1, 82958, Control_c, 0, 67, 119
1, 82972, Control_c, 0, 64, 127
1, 82972, Control_c, 0, 67, 117
1, 82977, Note_off_c, 0, 55, 36
1, 82987, Control_c, 0, 67, 115
1, 83002, Control_c, 0, 67, 114
1, 83017, Control_c, 0, 67, 114
1, 83046, Control_c, 0, 67, 113
1, 83076, Control_c, 0, 67, 112
1, 83090, Control_c, 0, 67, 110
1, 83105, Control_c, 0, 67, 110
1, 83120, Control_c, 0, 67, 109
1, 83164, Control_c, 0, 67, 109
1, 83179, Control_c, 0, 67, 107
1, 83194, Control_c, 0, 67, 106
1, 83238, Control_c, 0, 67, 106
1, 83253, Control_c, 0, 67, 103
1, 83268, Control_c, 0, 67, 100
1, 83283, Control_c, 0, 67, 99
1, 83327, Control_c, 0, 67, 99
1, 83342, Control_c, 0, 67, 97
1, 83357, Control_c, 0, 67, 96
1, 83417, Control_c, 0, 67, 96
1, 83432, Control_c, 0, 67, 95
1, 83461, Control_c, 0, 67, 96
1, 83505, Control_c, 0, 67, 95
1, 83527, Control_c, 0, 67, 95
1, 83557, Control_c, 0, 64, 101
1, 83572, Control_c, 0, 64, 82
1, 83572, Control_c, 0, 67, 94
1, 83587, Control_c, 0, 64, 68
1, 83587, Control_c, 0, 67, 93
1, 83601, Note_on_c, 0, 71, 56
1, 83602, Control_c, 0, 64, 58
1, 83602, Control_c, 0, 67, 90
1, 83612, Note_on_c, 0, 69, 37
1, 83617, Control_c, 0, 64, 47
1, 83617, Control_c, 0, 67, 88
1, 83618, Note_on_c, 0, 55, 38
1, 83625, Note_on_c, 0, 65, 39
1, 83631, Control_c, 0, 64, 38
1, 83631, Control_c, 0, 67, 87
1, 83646, Control_c, 0, 64, 28
1, 83646, Control_c, 0, 67, 86
1, 83661, Control_c, 0, 64, 0
1, 83661, Control_c, 0, 67, 82
1, 83676, Control_c, 0, 67, 77
1, 83691, Control_c, 0, 67, 70
1, 83701, Note_on_c, 0, 72, 68
1, 83705, Control_c, 0, 67, 63
1, 83720, Note_off_c, 0, 71, 61
1, 83720, Control_c, 0, 67, 57
1, 83735, Control_c, 0, 64, 34
1, 83735, Control_c, 0, 67, 48
1, 83751, Control_c, 0, 64, 48
1, 83751, Control_c, 0, 67, 33
1, 83766, Control_c, 0, 64, 56
1, 83766, Control_c, 0, 67, 18
1, 83780, Control_c, 0, 64, 62
1, 83780, Control_c, 0, 67, 0
1, 83795, Control_c, 0, 64, 65
1, 83801, Note_off_c, 0, 72, 64
1, 83805, Note_on_c, 0, 74, 78
1, 83810, Control_c, 0, 64, 69
1, 83825, Control_c, 0, 64, 73
1, 83840, Control_c, 0, 64, 79
1, 83855, Control_c, 0, 64, 85
1, 83870, Control_c, 0, 64, 93
1, 83885, Control_c, 0, 64, 104
1, 83900, Control_c, 0, 64, 127
1, 83912, Note_off_c, 0, 74, 52
1, 83983, Note_off_c, 0, 69, 46
1, 84018, Control_c, 0, 64, 110
1, 84033, Control_c, 0, 64, 76
1, 84047, Note_off_c, 0, 65, 52
1, 84048, Control_c, 0, 64, 59
1, 84058, Note_on_c, 0, 76, 77
1, 84063, Control_c, 0, 64, 30
1, 84074, Note_on_c, 0, 64, 46
1, 84077, Control_c, 0, 64, 0
1, 84082, Note_on_c, 0, 68, 53
1, 84151, Control_c, 0, 64, 13
1, 84162, Note_on_c, 0, 74, 80
1, 84166, Control_c, 0, 64, 44
1, 84181, Control_c, 0, 64, 60
1, 84192, Note_off_c, 0, 76, 63
1, 84195, Note_off_c, 0, 68, 27
1, 84195, Control_c, 0, 64, 65
1, 84205, Note_off_c, 0, 64, 55
1, 84210, Control_c, 0, 67, 12
1, 84225, Control_c, 0, 64, 61
1, 84225, Control_c, 0, 67, 20
1, 84240, Control_c, 0, 64, 43
1, 84240, Control_c, 0, 67, 29
1, 84254, Control_c, 0, 64, 0
1, 84254, Control_c, 0, 67, 40
1, 84272, Note_on_c, 0, 72, 74
1, 84277, Control_c, 0, 67, 54
1, 84292, Note_off_c, 0, 74, 63
1, 84292, Control_c, 0, 67, 70
1, 84307, Control_c, 0, 67, 82
1, 84321, Control_c, 0, 67, 88
1, 84336, Control_c, 0, 67, 91
1, 84351, Control_c, 0, 67, 97
1, 84366, Control_c, 0, 67, 102
1, 84380, Note_off_c, 0, 55, 35
1, 84381, Control_c, 0, 67, 107
1, 84382, Note_on_c, 0, 71, 64
1, 84386, Note_off_c, 0, 72, 61
1, 84395, Control_c, 0, 67, 111
1, 84410, Control_c, 0, 67, 114
1, 84425, Control_c, 0, 67, 119
1, 84440, Control_c, 0, 64, 31
1, 84440, Control_c, 0, 67, 123
1, 84454, Control_c, 0, 64, 44
1, 84454, Control_c, 0, 67, 126
1, 84469, Control_c, 0, 64, 53
1, 84469, Control_c, 0, 67, 127
1, 84484, Control_c, 0, 64, 60
1, 84493, Note_off_c, 0, 71, 63
1, 84499, Control_c, 0, 64, 62
1, 84514, Control_c, 0, 64, 63
1, 84544, Control_c, 0, 64, 64
1, 84559, Control_c, 0, 64, 65
1, 84574, Control_c, 0, 64, 66
1, 84588, Control_c, 0, 64, 67
1, 84603, Control_c, 0, 64, 68
1, 84617, Control_c, 0, 64, 70
1, 84632, Control_c, 0, 64, 71
1, 84647, Control_c, 0, 64, 72
1, 84661, Control_c, 0, 64, 73
1, 84809, Control_c, 0, 64, 72
1, 84824, Control_c, 0, 64, 71
1, 84839, Control_c, 0, 64, 70
1, 84854, Control_c, 0, 64, 68
1, 84869, Control_c, 0, 64, 67
1, 84883, Control_c, 0, 64, 66
1, 84898, Control_c, 0, 64, 64
1, 84913, Control_c, 0, 64, 62
1, 84928, Control_c, 0, 64, 60
1, 84943, Control_c, 0, 64, 59
1, 84958, Control_c, 0, 64, 58
1, 84973, Control_c, 0, 64, 57
1, 84986, Note_on_c, 0, 71, 50
1, 84988, Control_c, 0, 64, 54
1, 85003, Control_c, 0, 64, 51
1, 85006, Note_on_c, 0, 69, 32
1, 85006, Note_on_c, 0, 55, 32
1, 85020, Note_on_c, 0, 65, 37
1, 85024, Control_c, 0, 64, 47
1, 85039, Control_c, 0, 64, 41
1, 85054, Control_c, 0, 64, 35
1, 85068, Control_c, 0, 64, 30
1, 85083, Control_c, 0, 64, 28
1, 85128, Control_c, 0, 64, 29
1, 85143, Control_c, 0, 64, 34
1, 85158, Control_c, 0, 64, 41
1, 85173, Control_c, 0, 64, 48
1, 85187, Control_c, 0, 64, 51
1, 85202, Control_c, 0, 64, 53
1, 85217, Control_c, 0, 64, 55
1, 85232, Control_c, 0, 64, 58
1, 85244, Note_on_c, 0, 72, 71
1, 85247, Control_c, 0, 64, 61
1, 85262, Control_c, 0, 64, 62
1, 85276, Control_c, 0, 64, 63
1, 85291, Control_c, 0, 64, 64
1, 85306, Control_c, 0, 64, 65
1, 85321, Control_c, 0, 64, 66
1, 85337, Control_c, 0, 64, 66
1, 85351, Control_c, 0, 64, 67
1, 85400, Note_on_c, 0, 74, 71
1, 85444, Note_off_c, 0, 72, 59
1, 85524, Note_off_c, 0, 71, 24
1, 85539, Note_on_c, 0, 76, 72
1, 85544, Control_c, 0, 64, 65
1, 85558, Control_c, 0, 64, 64
1, 85573, Control_c, 0, 64, 61
1, 85579, Note_off_c, 0, 74, 61
1, 85588, Control_c, 0, 64, 58
1, 85603, Control_c, 0, 64, 53
1, 85618, Control_c, 0, 64, 48
1, 85632, Control_c, 0, 64, 39
1, 85647, Control_c, 0, 64, 8
1, 85662, Control_c, 0, 64, 0
1, 85688, Note_off_c, 0, 69, 42
1, 85705, Note_on_c, 0, 74, 68
1, 85706, Note_off_c, 0, 65, 57
1, 85709, Note_off_c, 0, 76, 62
1, 85723, Note_on_c, 0, 64, 42
1, 85733, Note_on_c, 0, 68, 42
1, 85877, Control_c, 0, 64, 14
1, 85891, Control_c, 0, 64, 41
1, 85906, Control_c, 0, 64, 53
1, 85921, Control_c, 0, 64, 57
1, 85921, Control_c, 0, 67, 127
1, 85936, Control_c, 0, 64, 58
1, 85936, Control_c, 0, 67, 125
1, 85951, Control_c, 0, 64, 60
1, 85951, Control_c, 0, 67, 123
1, 85966, Control_c, 0, 64, 63
1, 85966, Control_c, 0, 67, 123
1, 85980, Control_c, 0, 64, 64
1, 85995, Control_c, 0, 64, 66
1, 85995, Control_c, 0, 67, 122
1, 86010, Control_c, 0, 64, 67
1, 86010, Control_c, 0, 67, 121
1, 86025, Control_c, 0, 64, 68
1, 86025, Control_c, 0, 67, 119
1, 86040, Control_c, 0, 64, 68
1, 86040, Control_c, 0, 67, 118
1, 86053, Note_on_c, 0, 72, 55
1, 86055, Control_c, 0, 64, 69
1, 86055, Control_c, 0, 67, 117
1, 86059, Note_off_c, 0, 68, 41
1, 86070, Control_c, 0, 64, 69
1, 86070, Control_c, 0, 67, 117
1, 86085, Control_c, 0, 64, 70
1, 86091, Note_off_c, 0, 74, 35
1, 86099, Control_c, 0, 67, 116
1, 86114, Control_c, 0, 67, 114
1, 86129, Control_c, 0, 67, 113
1, 86144, Control_c, 0, 67, 112
1, 86159, Control_c, 0, 67, 112
1, 86174, Note_off_c, 0, 72, 55
1, 86177, Note_on_c, 0, 71, 55
1, 86189, Control_c, 0, 67, 111
1, 86197, Note_off_c, 0, 64, 48
1, 86204, Control_c, 0, 67, 111
1, 86219, Control_c, 0, 67, 110
1, 86234, Control_c, 0, 64, 69
1, 86234, Control_c, 0, 67, 109
1, 86249, Control_c, 0, 64, 67
1, 86263, Control_c, 0, 64, 64
1, 86278, Control_c, 0, 64, 58
1, 86293, Control_c, 0, 64, 48
1, 86293, Control_c, 0, 67, 109
1, 86296, Note_off_c, 0, 71, 52
1, 86307, Control_c, 0, 64, 30
1, 86322, Control_c, 0, 64, 0
1, 86332, Note_on_c, 0, 69, 53
1, 86347, Note_on_c, 0, 63, 42
1, 86352, Note_on_c, 0, 67, 38
1, 86424, Note_off_c, 0, 69, 62
1, 86426, Control_c, 0, 64, 22
1, 86440, Control_c, 0, 64, 44
1, 86440, Control_c, 0, 67, 108
1, 86455, Control_c, 0, 64, 54
1, 86455, Control_c, 0, 67, 108
1, 86470, Control_c, 0, 64, 59
1, 86470, Control_c, 0, 67, 107
1, 86485, Control_c, 0, 64, 61
1, 86500, Control_c, 0, 64, 63
1, 86522, Control_c, 0, 64, 64
1, 86537, Control_c, 0, 64, 65
1, 86552, Control_c, 0, 64, 67
1, 86552, Control_c, 0, 67, 107
1, 86567, Control_c, 0, 64, 68
1, 86567, Control_c, 0, 67, 106
1, 86582, Control_c, 0, 64, 69
1, 86596, Control_c, 0, 64, 70
1, 86596, Control_c, 0, 67, 106
1, 86611, Control_c, 0, 64, 71
1, 86626, Control_c, 0, 64, 72
1, 86640, Control_c, 0, 64, 72
1, 86655, Control_c, 0, 64, 73
1, 86685, Control_c, 0, 64, 73
1, 86700, Control_c, 0, 67, 105
1, 86863, Control_c, 0, 64, 73
1, 86878, Control_c, 0, 64, 70
1, 86893, Control_c, 0, 64, 66
1, 86901, Note_on_c, 0, 69, 47
1, 86907, Control_c, 0, 64, 59
1, 86922, Control_c, 0, 64, 50
1, 86937, Control_c, 0, 64, 41
1, 86952, Control_c, 0, 64, 33
1, 86967, Control_c, 0, 64, 32
1, 86982, Control_c, 0, 64, 37
1, 86997, Control_c, 0, 64, 45
1, 87012, Control_c, 0, 64, 53
1, 87012, Control_c, 0, 67, 105
1, 87027, Control_c, 0, 64, 59
1, 87042, Control_c, 0, 64, 62
1, 87057, Control_c, 0, 64, 64
1, 87071, Control_c, 0, 64, 65
1, 87071, Control_c, 0, 67, 104
1, 87080, Note_off_c, 0, 69, 51
1, 87086, Control_c, 0, 64, 66
1, 87101, Control_c, 0, 64, 67
1, 87101, Control_c, 0, 67, 104
1, 87116, Control_c, 0, 64, 69
1, 87131, Control_c, 0, 64, 72
1, 87131, Control_c, 0, 67, 103
1, 87145, Control_c, 0, 64, 73
1, 87160, Control_c, 0, 64, 74
1, 87175, Control_c, 0, 64, 75
1, 87175, Control_c, 0, 67, 102
1, 87190, Control_c, 0, 64, 76
1, 87205, Control_c, 0, 64, 77
1, 87219, Control_c, 0, 64, 77
1, 87234, Control_c, 0, 64, 78
1, 87286, Control_c, 0, 64, 79
1, 87312, Note_off_c, 0, 67, 40
1, 87316, Control_c, 0, 64, 79
1, 87316, Control_c, 0, 67, 103
1, 87331, Control_c, 0, 64, 80
1, 87375, Control_c, 0, 64, 80
1, 87405, Control_c, 0, 67, 103
1, 87405, Note_off_c, 0, 63, 40
1, 87835, Control_c, 0, 67, 104
1, 87909, Control_c, 0, 64, 79
1, 87924, Control_c, 0, 64, 77
1, 87924, Control_c, 0, 67, 104
1, 87939, Control_c, 0, 64, 73
1, 87954, Control_c, 0, 64, 67
1, 87954, Control_c, 0, 67, 105
1, 87963, Note_on_c, 0, 71, 37
1, 87968, Control_c, 0, 64, 61
1, 87981, Note_on_c, 0, 66, 25
1, 87983, Control_c, 0, 64, 53
1, 87998, Control_c, 0, 64, 42
1, 87998, Note_on_c, 0, 62, 26
1, 88020, Control_c, 0, 64, 20
1, 88035, Control_c, 0, 64, 0
1, 88035, Control_c, 0, 67, 105
1, 88079, Control_c, 0, 67, 106
1, 88183, Control_c, 0, 67, 106
1, 88449, Control_c, 0, 67, 106
1, 88478, Control_c, 0, 64, 12
1, 88493, Control_c, 0, 64, 23
1, 88508, Control_c, 0, 64, 30
1, 88523, Control_c, 0, 64, 35
1, 88539, Control_c, 0, 64, 40
1, 88554, Control_c, 0, 64, 44
1, 88569, Control_c, 0, 64, 47
1, 88583, Control_c, 0, 64, 50
1, 88598, Control_c, 0, 64, 53
1, 88613, Control_c, 0, 64, 56
1, 88628, Control_c, 0, 64, 58
1, 88643, Control_c, 0, 64, 59
1, 88657, Control_c, 0, 64, 60
1, 88672, Control_c, 0, 64, 61
1, 88687, Control_c, 0, 64, 62
1, 88702, Control_c, 0, 64, 63
1, 88717, Control_c, 0, 64, 64
1, 88732, Control_c, 0, 64, 65
1, 88747, Control_c, 0, 64, 67
1, 88747, Control_c, 0, 67, 105
1, 88769, Control_c, 0, 64, 69
1, 88783, Control_c, 0, 64, 71
1, 88798, Control_c, 0, 64, 73
1, 88813, Control_c, 0, 64, 75
1, 88828, Control_c, 0, 64, 77
1, 88843, Control_c, 0, 64, 79
1, 88854, Note_off_c, 0, 66, 35
1, 88858, Control_c, 0, 64, 80
1, 88872, Control_c, 0, 64, 82
1, 88887, Control_c, 0, 64, 84
1, 88902, Control_c, 0, 64, 86
1, 88917, Control_c, 0, 64, 88
1, 88932, Control_c, 0, 64, 90
1, 88946, Control_c, 0, 64, 92
1, 88961, Control_c, 0, 64, 95
1, 88976, Control_c, 0, 64, 97
1, 88991, Control_c, 0, 64, 100
1, 88991, Control_c, 0, 67, 105
1, 89006, Control_c, 0, 64, 104
1, 89021, Control_c, 0, 64, 108
1, 89035, Control_c, 0, 64, 113
1, 89050, Control_c, 0, 64, 122
1, 89065, Control_c, 0, 64, 127
1, 89065, Control_c, 0, 67, 104
1, 89068, Note_off_c, 0, 62, 39
1, 89109, Control_c, 0, 67, 104
1, 89273, Note_off_c, 0, 71, 16
1, 89370, Note_off_c, 0, 55, 32
1, 89532, Control_c, 0, 67, 103
1, 89680, Control_c, 0, 67, 103
1, 89754, Control_c, 0, 67, 102
1, 89844, Control_c, 0, 67, 102
1, 89858, Control_c, 0, 67, 101
1, 89873, Control_c, 0, 67, 101
1, 89888, Control_c, 0, 67, 100
1, 89903, Control_c, 0, 67, 97
1, 89918, Control_c, 0, 67, 94
1, 89932, Control_c, 0, 67, 89
1, 89947, Control_c, 0, 67, 82
1, 89962, Control_c, 0, 67, 73
1, 89977, Control_c, 0, 67, 58
1, 89992, Control_c, 0, 67, 40
1, 90006, Control_c, 0, 67, 16
1, 90021, Control_c, 0, 67, 0
1, 90244, Control_c, 0, 64, 84
1, 90267, Control_c, 0, 64, 61
1, 90281, Control_c, 0, 64, 26
1, 90296, Control_c, 0, 64, 0
1, 90444, Control_c, 0, 64, 58
1, 90459, Control_c, 0, 64, 68
1, 90474, Control_c, 0, 64, 79
1, 90488, Control_c, 0, 64, 99
1, 90503, Control_c, 0, 64, 127
1, 90636, Note_on_c, 0, 55, 71
1, 90636, Note_on_c, 0, 62, 75
1, 90640, Note_on_c, 0, 83, 94
1, 90642, Note_on_c, 0, 71, 93
1, 90643, Note_on_c, 0, 81, 85
1, 90644, Note_on_c, 0, 77, 89
1, 90663, Note_off_c, 0, 71, 66
1, 90666, Note_off_c, 0, 62, 68
1, 90667, Note_off_c, 0, 77, 67
1, 90674, Note_off_c, 0, 55, 65
1, 90677, Note_off_c, 0, 83, 65
1, 90684, Note_off_c, 0, 81, 62
1, 90711, Control_c, 0, 64, 83
1, 90723, Note_on_c, 0, 57, 76
1, 90726, Control_c, 0, 64, 64
1, 90730, Note_on_c, 0, 64, 66
1, 90736, Note_on_c, 0, 83, 89
1, 90738, Note_on_c, 0, 84, 89
1, 90738, Note_on_c, 0, 72, 87
1, 90739, Note_on_c, 0, 79, 86
1, 90741, Control_c, 0, 64, 40
1, 90753, Note_off_c, 0, 57, 67
1, 90755, Control_c, 0, 64, 0
1, 90760, Note_off_c, 0, 64, 67
1, 90761, Note_off_c, 0, 79, 70
1, 90764, Note_off_c, 0, 72, 62
1, 90781, Note_off_c, 0, 84, 64
1, 90786, Note_off_c, 0, 83, 66
1, 90821, Note_on_c, 0, 59, 77
1, 90821, Note_on_c, 0, 65, 83
1, 90822, Note_on_c, 0, 86, 92
1, 90824, Note_on_c, 0, 84, 83
1, 90825, Note_on_c, 0, 74, 85
1, 90835, Note_on_c, 0, 81, 80
1, 90854, Note_off_c, 0, 59, 68
1, 90857, Note_off_c, 0, 81, 70
1, 90860, Note_off_c, 0, 65, 60
1, 90866, Note_off_c, 0, 74, 64
1, 90869, Note_off_c, 0, 86, 66
1, 90878, Note_off_c, 0, 84, 67
1, 91015, Control_c, 0, 64, 40
1, 91030, Control_c, 0, 64, 113
1, 91039, Note_on_c, 0, 57, 81
1, 91042, Note_on_c, 0, 67, 78
1, 91045, Control_c, 0, 64, 127
1, 91048, Note_on_c, 0, 88, 96
1, 91051, Note_on_c, 0, 76, 95
1, 91052, Note_on_c, 0, 83, 89
1, 91055, Note_on_c, 0, 84, 82
1, 91060, Note_off_c, 0, 57, 68
1, 91066, Note_off_c, 0, 88, 69
1, 91067, Note_off_c, 0, 67, 68
1, 91070, Note_off_c, 0, 76, 69
1, 91072, Note_off_c, 0, 83, 70
1, 91078, Note_off_c, 0, 84, 69
1, 91134, Note_on_c, 0, 65, 83
1, 91135, Note_on_c, 0, 55, 86
1, 91137, Note_on_c, 0, 86, 90
1, 91142, Note_on_c, 0, 74, 87
1, 91146, Note_on_c, 0, 81, 71
1, 91148, Note_on_c, 0, 83, 64
1, 91149, Note_on_c, 0, 84, 47
1, 91155, Note_off_c, 0, 65, 68
1, 91158, Note_off_c, 0, 55, 67
1, 91159, Note_off_c, 0, 84, 47
1, 91165, Note_off_c, 0, 74, 70
1, 91165, Note_off_c, 0, 83, 66
1, 91170, Note_off_c, 0, 81, 69
1, 91171, Note_off_c, 0, 86, 58
1, 91179, Poly_aftertouch_c, 0, 57, 0
1, 91206, Poly_aftertouch_c, 0, 57, 0
1, 91224, Note_on_c, 0, 64, 85
1, 91226, Note_on_c, 0, 84, 98
1, 91228, Note_on_c, 0, 53, 81
1, 91228, Note_on_c, 0, 72, 85
1, 91230, Note_on_c, 0, 79, 83
1, 91235, Note_on_c, 0, 65, 17
1, 91239, Note_on_c, 0, 81, 55
1, 91248, Note_off_c, 0, 64, 68
1, 91254, Note_off_c, 0, 53, 67
1, 91254, Note_off_c, 0, 79, 67
1, 91256, Note_off_c, 0, 72, 61
1, 91260, Note_off_c, 0, 84, 62
1, 91262, Note_off_c, 0, 81, 66
1, 91269, Note_off_c, 0, 65, 40
1, 91282, Control_c, 0, 64, 79
1, 91297, Control_c, 0, 64, 57
1, 91310, Note_on_c, 0, 62, 87
1, 91311, Control_c, 0, 64, 0
1, 91313, Note_on_c, 0, 52, 83
1, 91313, Note_on_c, 0, 83, 58
1, 91320, Note_on_c, 0, 71, 91
1, 91320, Note_on_c, 0, 77, 87
1, 91333, Note_on_c, 0, 79, 59
1, 91337, Note_off_c, 0, 62, 65
1, 91340, Note_off_c, 0, 52, 65
1, 91344, Note_on_c, 0, 81, 45
1, 91348, Note_off_c, 0, 77, 64
1, 91349, Note_off_c, 0, 71, 57
1, 91353, Note_off_c, 0, 79, 63
1, 91358, Note_off_c, 0, 83, 66
1, 91370, Note_off_c, 0, 81, 36
1, 91408, Note_on_c, 0, 60, 87
1, 91409, Note_on_c, 0, 50, 83
1, 91411, Note_on_c, 0, 81, 103
1, 91415, Note_on_c, 0, 69, 93
1, 91420, Note_on_c, 0, 76, 80
1, 91431, Note_off_c, 0, 60, 66
1, 91432, Note_off_c, 0, 50, 66
1, 91435, Note_off_c, 0, 69, 72
1, 91441, Note_on_c, 0, 77, 39
1, 91441, Note_off_c, 0, 76, 69
1, 91444, Note_off_c, 0, 81, 66
1, 91466, Note_off_c, 0, 77, 49
1, 91623, Note_on_c, 0, 81, 104
1, 91625, Note_on_c, 0, 69, 100
1, 91632, Note_on_c, 0, 60, 88
1, 91632, Note_on_c, 0, 76, 85
1, 91637, Note_on_c, 0, 50, 77
1, 91637, Note_on_c, 0, 77, 69
1, 91647, Note_off_c, 0, 69, 68
1, 91654, Note_off_c, 0, 76, 70
1, 91656, Note_off_c, 0, 60, 67
1, 91656, Note_off_c, 0, 50, 68
1, 91662, Note_off_c, 0, 77, 68
1, 91663, Note_off_c, 0, 81, 64
1, 91871, Note_on_c, 0, 71, 105
1, 91871, Note_on_c, 0, 83, 108
1, 91874, Note_on_c, 0, 77, 97
1, 91878, Note_on_c, 0, 81, 94
1, 91883, Control_c, 0, 64, 21
1, 91896, Note_on_c, 0, 62, 76
1, 91898, Control_c, 0, 64, 127
1, 91902, Note_on_c, 0, 55, 70
1, 91993, Note_off_c, 0, 55, 58
1, 92045, Note_off_c, 0, 62, 30
1, 92115, Note_off_c, 0, 71, 62
1, 92121, Note_off_c, 0, 81, 64
1, 92121, Note_off_c, 0, 83, 65
1, 92121, Note_off_c, 0, 77, 66
1, 92273, Note_on_c, 0, 55, 64
1, 92277, Note_on_c, 0, 62, 70
1, 92277, Note_on_c, 0, 83, 97
1, 92279, Note_on_c, 0, 71, 99
1, 92282, Note_on_c, 0, 77, 91
1, 92284, Note_on_c, 0, 81, 88
1, 92299, Note_off_c, 0, 71, 69
1, 92302, Note_off_c, 0, 77, 71
1, 92304, Note_off_c, 0, 62, 67
1, 92304, Note_off_c, 0, 55, 63
1, 92307, Note_off_c, 0, 81, 68
1, 92310, Note_off_c, 0, 83, 64
1, 92354, Note_on_c, 0, 64, 75
1, 92357, Note_on_c, 0, 57, 78
1, 92373, Note_on_c, 0, 72, 89
1, 92374, Note_on_c, 0, 84, 88
1, 92377, Note_on_c, 0, 83, 90
1, 92382, Note_on_c, 0, 79, 76
1, 92384, Note_off_c, 0, 57, 66
1, 92390, Note_off_c, 0, 64, 64
1, 92398, Note_off_c, 0, 72, 63
1, 92398, Note_off_c, 0, 79, 69
1, 92405, Note_off_c, 0, 83, 63
1, 92406, Note_off_c, 0, 84, 63
1, 92460, Note_on_c, 0, 65, 79
1, 92460, Control_c, 0, 64, 109
1, 92461, Note_on_c, 0, 59, 80
1, 92467, Note_on_c, 0, 86, 98
1, 92468, Note_on_c, 0, 74, 92
1, 92475, Control_c, 0, 64, 80
1, 92476, Note_on_c, 0, 84, 78
1, 92487, Note_off_c, 0, 59, 66
1, 92487, Note_off_c, 0, 65, 66
1, 92490, Control_c, 0, 64, 63
1, 92493, Note_off_c, 0, 74, 64
1, 92496, Note_off_c, 0, 84, 67
1, 92511, Note_off_c, 0, 86, 63
1, 92512, Control_c, 0, 64, 38
1, 92527, Control_c, 0, 64, 0
1, 92534, Poly_aftertouch_c, 0, 57, 0
1, 92562, Note_on_c, 0, 60, 84
1, 92569, Note_on_c, 0, 88, 100
1, 92571, Note_on_c, 0, 76, 97
1, 92583, Note_on_c, 0, 67, 57
1, 92589, Note_off_c, 0, 60, 67
1, 92595, Note_off_c, 0, 76, 64
1, 92606, Note_off_c, 0, 67, 60
1, 92609, Note_off_c, 0, 88, 63
1, 92631, Control_c, 0, 64, 66
1, 92646, Control_c, 0, 64, 108
1, 92650, Note_on_c, 0, 57, 76
1, 92658, Note_on_c, 0, 88, 96
1, 92661, Control_c, 0, 64, 127
1, 92662, Note_on_c, 0, 76, 101
1, 92664, Note_on_c, 0, 67, 77
1, 92670, Note_on_c, 0, 83, 84
1, 92680, Note_off_c, 0, 67, 68
1, 92682, Note_off_c, 0, 57, 67
1, 92684, Note_on_c, 0, 84, 46
1, 92690, Note_off_c, 0, 83, 71
1, 92690, Note_off_c, 0, 88, 63
1, 92693, Note_off_c, 0, 76, 59
1, 92710, Note_off_c, 0, 84, 53
1, 92750, Note_on_c, 0, 65, 82
1, 92751, Note_on_c, 0, 86, 94
1, 92753, Note_on_c, 0, 55, 82
1, 92754, Note_on_c, 0, 74, 91
1, 92756, Note_on_c, 0, 83, 69
1, 92756, Note_on_c, 0, 81, 86
1, 92772, Note_off_c, 0, 65, 68
1, 92777, Note_off_c, 0, 55, 67
1, 92778, Note_off_c, 0, 81, 68
1, 92783, Note_off_c, 0, 74, 61
1, 92784, Note_off_c, 0, 86, 58
1, 92785, Note_off_c, 0, 83, 68
1, 92810, Control_c, 0, 64, 92
1, 92825, Control_c, 0, 64, 63
1, 92838, Note_on_c, 0, 64, 85
1, 92839, Note_on_c, 0, 84, 45
1, 92839, Control_c, 0, 64, 0
1, 92841, Note_on_c, 0, 72, 91
1, 92842, Note_on_c, 0, 53, 82
1, 92843, Note_on_c, 0, 79, 87
1, 92849, Note_on_c, 0, 81, 52
1, 92860, Note_off_c, 0, 64, 70
1, 92866, Note_off_c, 0, 53, 67
1, 92866, Note_off_c, 0, 79, 68
1, 92868, Note_off_c, 0, 81, 65
1, 92870, Note_off_c, 0, 72, 58
1, 92876, Note_off_c, 0, 84, 66
1, 92880, Note_on_c, 0, 83, 21
1, 92905, Note_off_c, 0, 83, 36
1, 92927, Note_on_c, 0, 83, 74
1, 92928, Note_on_c, 0, 62, 89
1, 92932, Note_on_c, 0, 71, 92
1, 92933, Note_on_c, 0, 77, 87
1, 92935, Note_on_c, 0, 52, 80
1, 92935, Note_on_c, 0, 79, 61
1, 92949, Note_off_c, 0, 62, 71
1, 92955, Note_off_c, 0, 77, 70
1, 92957, Note_off_c, 0, 79, 64
1, 92960, Note_off_c, 0, 71, 58
1, 92962, Note_off_c, 0, 52, 66
1, 92965, Note_on_c, 0, 81, 28
1, 92966, Note_off_c, 0, 81, 127
1, 92968, Note_off_c, 0, 83, 66
1, 93018, Note_on_c, 0, 60, 91
1, 93019, Note_on_c, 0, 81, 83
1, 93021, Note_on_c, 0, 69, 101
1, 93022, Note_on_c, 0, 50, 83
1, 93024, Note_on_c, 0, 76, 85
1, 93029, Note_on_c, 0, 77, 62
1, 93039, Note_off_c, 0, 60, 67
1, 93044, Note_off_c, 0, 69, 63
1, 93045, Note_off_c, 0, 76, 69
1, 93047, Note_off_c, 0, 50, 69
1, 93051, Note_on_c, 0, 79, 29
1, 93056, Note_off_c, 0, 81, 67
1, 93056, Note_off_c, 0, 77, 67
1, 93081, Note_off_c, 0, 79, 44
1, 93113, Note_on_c, 0, 76, 19
1, 93145, Note_off_c, 0, 76, 47
1, 93222, Note_on_c, 0, 81, 104
1, 93227, Note_on_c, 0, 69, 90
1, 93227, Note_on_c, 0, 76, 82
1, 93239, Note_on_c, 0, 77, 66
1, 93240, Note_on_c, 0, 50, 75
1, 93243, Note_off_c, 0, 69, 70
1, 93258, Note_off_c, 0, 76, 69
1, 93260, Note_off_c, 0, 81, 63
1, 93262, Note_on_c, 0, 60, 53
1, 93264, Note_off_c, 0, 77, 69
1, 93265, Note_on_c, 0, 62, 53
1, 93268, Note_off_c, 0, 50, 66
1, 93281, Note_off_c, 0, 62, 41
1, 93285, Note_off_c, 0, 60, 37
1, 93328, Note_on_c, 0, 69, 20
1, 93364, Note_off_c, 0, 69, 31
1, 93441, Control_c, 0, 64, 49
1, 93447, Note_on_c, 0, 71, 118
1, 93447, Note_on_c, 0, 83, 92
1, 93450, Note_on_c, 0, 62, 113
1, 93450, Note_on_c, 0, 77, 100
1, 93451, Note_on_c, 0, 81, 99
1, 93453, Note_on_c, 0, 55, 97
1, 93455, Control_c, 0, 64, 127
1, 93475, Note_off_c, 0, 71, 62
1, 93477, Note_off_c, 0, 77, 61
1, 93479, Note_off_c, 0, 83, 66
1, 93480, Note_off_c, 0, 55, 67
1, 93483, Note_off_c, 0, 62, 70
1, 93489, Note_off_c, 0, 81, 67
1, 93514, Control_c, 0, 64, 78
1, 93529, Control_c, 0, 64, 0
1, 93662, Note_on_c, 0, 62, 97
1, 93664, Note_on_c, 0, 71, 109
1, 93664, Note_on_c, 0, 83, 102
1, 93667, Note_on_c, 0, 55, 91
1, 93667, Note_on_c, 0, 81, 99
1, 93668, Note_on_c, 0, 77, 101
1, 93696, Note_on_c, 0, 72, 44
1, 93697, Note_off_c, 0, 72, 127
1, 93697, Note_off_c, 0, 71, 62
1, 93697, Note_off_c, 0, 55, 64
1, 93700, Note_off_c, 0, 62, 67
1, 93704, Note_off_c, 0, 77, 61
1, 93704, Note_off_c, 0, 83, 64
1, 93718, Note_off_c, 0, 81, 64
1, 93841, Control_c, 0, 64, 127
1, 93875, Note_on_c, 0, 62, 85
1, 93877, Note_on_c, 0, 55, 85
1, 93877, Note_on_c, 0, 83, 109
1, 93878, Note_on_c, 0, 71, 108
1, 93881, Note_on_c, 0, 77, 90
1, 93883, Note_on_c, 0, 81, 95
1, 93897, Note_off_c, 0, 71, 69
1, 93899, Note_off_c, 0, 77, 72
1, 93901, Note_off_c, 0, 62, 68
1, 93906, Note_off_c, 0, 81, 66
1, 93907, Note_off_c, 0, 83, 69
1, 93913, Note_off_c, 0, 55, 65
1, 93959, Control_c, 0, 64, 76
1, 93964, Note_on_c, 0, 64, 72
1, 93969, Note_on_c, 0, 84, 102
1, 93971, Note_on_c, 0, 57, 80
1, 93971, Note_on_c, 0, 72, 101
1, 93972, Note_on_c, 0, 83, 96
1, 93973, Control_c, 0, 64, 0
1, 93979, Note_on_c, 0, 79, 72
1, 93987, Note_off_c, 0, 72, 61
1, 93990, Note_off_c, 0, 57, 66
1, 94002, Note_off_c, 0, 79, 70
1, 94005, Note_off_c, 0, 64, 64
1, 94015, Note_off_c, 0, 84, 64
1, 94017, Note_off_c, 0, 83, 62
1, 94062, Note_on_c, 0, 59, 80
1, 94063, Note_on_c, 0, 86, 104
1, 94067, Note_on_c, 0, 84, 91
1, 94068, Note_on_c, 0, 74, 100
1, 94068, Note_on_c, 0, 65, 75
1, 94086, Note_on_c, 0, 81, 61
1, 94090, Note_off_c, 0, 59, 70
1, 94094, Note_off_c, 0, 74, 67
1, 94097, Note_off_c, 0, 65, 67
1, 94102, Note_off_c, 0, 84, 67
1, 94103, Note_off_c, 0, 86, 67
1, 94106, Note_off_c, 0, 81, 39
1, 94263, Control_c, 0, 64, 44
1, 94269, Note_on_c, 0, 57, 68
1, 94277, Note_on_c, 0, 76, 95
1, 94278, Control_c, 0, 64, 80
1, 94279, Note_on_c, 0, 88, 92
1, 94280, Note_on_c, 0, 67, 57
1, 94282, Note_on_c, 0, 83, 79
1, 94290, Note_on_c, 0, 84, 53
1, 94291, Note_off_c, 0, 76, 71
1, 94291, Note_off_c, 0, 88, 73
1, 94293, Control_c, 0, 64, 100
1, 94296, Note_off_c, 0, 57, 65
1, 94299, Note_off_c, 0, 83, 71
1, 94303, Note_off_c, 0, 67, 59
1, 94308, Note_off_c, 0, 84, 67
1, 94308, Control_c, 0, 64, 101
1, 94323, Control_c, 0, 64, 85
1, 94337, Control_c, 0, 64, 63
1, 94352, Control_c, 0, 64, 19
1, 94363, Note_on_c, 0, 86, 79
1, 94364, Note_on_c, 0, 55, 77
1, 94364, Note_on_c, 0, 65, 75
1, 94367, Control_c, 0, 64, 0
1, 94368, Note_on_c, 0, 74, 77
1, 94375, Note_on_c, 0, 83, 50
1, 94376, Note_off_c, 0, 83, 127
1, 94379, Note_off_c, 0, 86, 66
1, 94380, Note_on_c, 0, 81, 58
1, 94384, Note_off_c, 0, 74, 71
1, 94390, Note_off_c, 0, 55, 66
1, 94390, Note_on_c, 0, 88, 16
1, 94391, Note_off_c, 0, 65, 68
1, 94402, Note_off_c, 0, 81, 43
1, 94428, Note_off_c, 0, 88, 27
1, 94444, Note_on_c, 0, 84, 46
1, 94449, Note_on_c, 0, 72, 90
1, 94450, Note_on_c, 0, 64, 82
1, 94455, Note_on_c, 0, 79, 72
1, 94456, Note_on_c, 0, 53, 78
1, 94461, Note_on_c, 0, 83, 63
1, 94470, Note_off_c, 0, 79, 70
1, 94473, Note_off_c, 0, 64, 68
1, 94475, Note_off_c, 0, 84, 67
1, 94476, Note_off_c, 0, 72, 64
1, 94481, Note_off_c, 0, 83, 42
1, 94485, Note_off_c, 0, 53, 64
1, 94532, Note_on_c, 0, 83, 96
1, 94539, Note_on_c, 0, 62, 86
1, 94540, Note_on_c, 0, 71, 85
1, 94542, Note_on_c, 0, 77, 80
1, 94547, Note_on_c, 0, 52, 82
1, 94556, Note_on_c, 0, 79, 46
1, 94560, Note_on_c, 0, 81, 27
1, 94563, Note_off_c, 0, 83, 62
1, 94565, Note_off_c, 0, 62, 69
1, 94565, Note_off_c, 0, 71, 65
1, 94565, Note_off_c, 0, 77, 71
1, 94566, Note_off_c, 0, 81, 41
1, 94574, Note_off_c, 0, 52, 67
1, 94582, Note_off_c, 0, 79, 52
1, 94624, Note_on_c, 0, 81, 83
1, 94629, Note_on_c, 0, 69, 82
1, 94632, Note_on_c, 0, 76, 75
1, 94634, Note_on_c, 0, 60, 89
1, 94638, Note_on_c, 0, 50, 80
1, 94644, Note_off_c, 0, 69, 72
1, 94644, Note_off_c, 0, 81, 69
1, 94645, Note_on_c, 0, 77, 57
1, 94648, Note_off_c, 0, 76, 68
1, 94655, Note_off_c, 0, 60, 67
1, 94664, Note_off_c, 0, 50, 67
1, 94666, Note_off_c, 0, 77, 62
1, 94832, Note_on_c, 0, 81, 97
1, 94837, Note_on_c, 0, 69, 89
1, 94843, Note_on_c, 0, 60, 74
1, 94846, Note_on_c, 0, 77, 59
1, 94847, Note_on_c, 0, 76, 67
1, 94849, Note_off_c, 0, 69, 75
1, 94852, Note_on_c, 0, 50, 62
1, 94853, Note_off_c, 0, 81, 63
1, 94864, Note_off_c, 0, 76, 66
1, 94868, Note_off_c, 0, 77, 66
1, 94869, Note_off_c, 0, 60, 64
1, 94877, Note_off_c, 0, 50, 36
1, 95041, Note_on_c, 0, 83, 112
1, 95042, Note_on_c, 0, 71, 113
1, 95046, Note_on_c, 0, 81, 95
1, 95048, Note_on_c, 0, 77, 93
1, 95051, Note_on_c, 0, 62, 93
1, 95055, Note_on_c, 0, 55, 83
1, 95057, Control_c, 0, 64, 38
1, 95066, Note_off_c, 0, 77, 72
1, 95069, Note_off_c, 0, 71, 66
1, 95072, Control_c, 0, 64, 69
1, 95073, Note_on_c, 0, 57, 52
1, 95075, Note_off_c, 0, 83, 68
1, 95077, Note_off_c, 0, 62, 71
1, 95087, Note_off_c, 0, 55, 66
1, 95087, Note_off_c, 0, 81, 61
1, 95087, Control_c, 0, 64, 72
1, 95096, Note_off_c, 0, 57, 58
1, 95102, Control_c, 0, 64, 66
1, 95117, Control_c, 0, 64, 30
1, 95132, Control_c, 0, 64, 0
1, 95143, Note_on_c, 0, 77, 18
1, 95182, Note_off_c, 0, 77, 33
1, 95249, Note_on_c, 0, 83, 102
1, 95251, Note_on_c, 0, 71, 106
1, 95254, Note_on_c, 0, 77, 94
1, 95254, Note_on_c, 0, 81, 90
1, 95257, Note_on_c, 0, 62, 87
1, 95260, Note_on_c, 0, 55, 83
1, 95273, Note_off_c, 0, 77, 72
1, 95275, Note_off_c, 0, 71, 63
1, 95281, Note_off_c, 0, 62, 69
1, 95283, Note_off_c, 0, 83, 69
1, 95288, Note_off_c, 0, 55, 66
1, 95292, Note_off_c, 0, 81, 64
1, 95294, Control_c, 0, 64, 52
1, 95309, Control_c, 0, 64, 64
1, 95324, Control_c, 0, 64, 71
1, 95339, Control_c, 0, 64, 81
1, 95353, Control_c, 0, 64, 96
1, 95368, Control_c, 0, 64, 127
1, 95448, Note_on_c, 0, 55, 79
1, 95451, Note_on_c, 0, 83, 97
1, 95453, Note_on_c, 0, 62, 75
1, 95453, Note_on_c, 0, 71, 96
1, 95456, Note_on_c, 0, 77, 76
1, 95457, Note_on_c, 0, 81, 85
1, 95466, Note_off_c, 0, 71, 75
1, 95474, Note_off_c, 0, 83, 58
1, 95478, Note_off_c, 0, 62, 70
1, 95478, Note_off_c, 0, 81, 67
1, 95480, Note_off_c, 0, 55, 64
1, 95481, Note_off_c, 0, 77, 69
1, 95546, Note_on_c, 0, 64, 71
1, 95547, Note_on_c, 0, 57, 75
1, 95548, Note_on_c, 0, 84, 96
1, 95553, Note_on_c, 0, 72, 80
1, 95555, Note_on_c, 0, 83, 61
1, 95559, Note_on_c, 0, 79, 74
1, 95570, Note_off_c, 0, 57, 66
1, 95573, Note_off_c, 0, 64, 66
1, 95575, Note_off_c, 0, 79, 69
1, 95578, Note_off_c, 0, 72, 63
1, 95579, Note_off_c, 0, 83, 68
1, 95579, Note_off_c, 0, 84, 61
1, 95642, Note_on_c, 0, 59, 82
1, 95642, Note_on_c, 0, 65, 81
1, 95644, Note_on_c, 0, 86, 107
1, 95649, Note_on_c, 0, 74, 84
1, 95663, Note_on_c, 0, 81, 47
1, 95664, Note_off_c, 0, 59, 69
1, 95665, Note_on_c, 0, 84, 51
1, 95667, Note_off_c, 0, 65, 68
1, 95670, Note_off_c, 0, 74, 71
1, 95677, Note_off_c, 0, 86, 62
1, 95686, Note_off_c, 0, 81, 59
1, 95688, Note_off_c, 0, 84, 59
1, 95701, Control_c, 0, 64, 91
1, 95716, Control_c, 0, 64, 64
1, 95723, Poly_aftertouch_c, 0, 57, 0
1, 95732, Control_c, 0, 64, 0
1, 95734, Note_on_c, 0, 88, 99
1, 95740, Note_on_c, 0, 76, 95
1, 95740, Note_on_c, 0, 60, 80
1, 95741, Note_on_c, 0, 59, 23
1, 95744, Note_on_c, 0, 67, 76
1, 95761, Note_off_c, 0, 60, 67
1, 95767, Note_off_c, 0, 76, 63
1, 95771, Note_on_c, 0, 83, 37
1, 95773, Note_off_c, 0, 67, 66
1, 95773, Note_off_c, 0, 59, 31
1, 95776, Note_off_c, 0, 88, 67
1, 95799, Note_off_c, 0, 83, 35
1, 95823, Note_on_c, 0, 86, 94
1, 95825, Note_on_c, 0, 65, 91
1, 95826, Note_on_c, 0, 74, 91
1, 95830, Note_on_c, 0, 55, 88
1, 95830, Note_on_c, 0, 81, 81
1, 95835, Control_c, 0, 64, 66
1, 95843, Note_on_c, 0, 83, 74
1, 95848, Note_on_c, 0, 60, 3
1, 95849, Control_c, 0, 64, 96
1, 95850, Note_off_c, 0, 65, 66
1, 95850, Note_off_c, 0, 74, 65
1, 95852, Note_off_c, 0, 81, 69
1, 95853, Note_off_c, 0, 55, 66
1, 95856, Note_off_c, 0, 86, 63
1, 95857, Note_off_c, 0, 83, 69
1, 95864, Control_c, 0, 64, 127
1, 95886, Note_off_c, 0, 60, 54
1, 96032, Note_on_c, 0, 64, 82
1, 96033, Note_on_c, 0, 84, 91
1, 96037, Note_on_c, 0, 53, 79
1, 96041, Note_on_c, 0, 72, 77
1, 96047, Note_on_c, 0, 79, 64
1, 96047, Note_on_c, 0, 81, 61
1, 96048, Note_off_c, 0, 81, 127
1, 96050, Note_off_c, 0, 84, 73
1, 96053, Note_off_c, 0, 64, 69
1, 96056, Note_off_c, 0, 72, 68
1, 96065, Note_off_c, 0, 53, 66
1, 96065, Note_off_c, 0, 79, 68
1, 96101, Control_c, 0, 64, 77
1, 96112, Note_on_c, 0, 83, 96
1, 96112, Note_on_c, 0, 71, 92
1, 96115, Control_c, 0, 64, 34
1, 96121, Note_on_c, 0, 62, 87
1, 96123, Note_on_c, 0, 77, 73
1, 96130, Note_on_c, 0, 52, 75
1, 96130, Control_c, 0, 64, 0
1, 96132, Note_on_c, 0, 64, 20
1, 96133, Note_off_c, 0, 83, 65
1, 96135, Note_off_c, 0, 71, 66
1, 96139, Note_off_c, 0, 77, 70
1, 96142, Note_off_c, 0, 62, 71
1, 96150, Note_off_c, 0, 52, 64
1, 96164, Note_off_c, 0, 64, 33
1, 96184, Note_on_c, 0, 79, 7
1, 96190, Note_on_c, 0, 81, 79
1, 96196, Note_on_c, 0, 69, 94
1, 96196, Note_on_c, 0, 76, 92
1, 96203, Note_on_c, 0, 60, 93
1, 96207, Note_on_c, 0, 77, 63
1, 96208, Note_on_c, 0, 50, 88
1, 96216, Note_off_c, 0, 69, 70
1, 96221, Note_off_c, 0, 76, 66
1, 96222, Note_off_c, 0, 79, 52
1, 96226, Note_off_c, 0, 81, 66
1, 96227, Note_off_c, 0, 60, 65
1, 96229, Note_off_c, 0, 50, 70
1, 96232, Note_off_c, 0, 77, 67
1, 96266, Note_on_c, 0, 71, 3
1, 96303, Note_off_c, 0, 71, 34
1, 96405, Control_c, 0, 64, 36
1, 96411, Note_on_c, 0, 81, 99
1, 96411, Note_on_c, 0, 69, 109
1, 96417, Note_on_c, 0, 76, 92
1, 96420, Note_on_c, 0, 60, 88
1, 96420, Note_on_c, 0, 77, 90
1, 96420, Control_c, 0, 64, 88
1, 96423, Note_on_c, 0, 50, 90
1, 96434, Control_c, 0, 64, 127
1, 96449, Note_off_c, 0, 50, 69
1, 96453, Note_on_c, 0, 79, 23
1, 96467, Note_off_c, 0, 60, 58
1, 96481, Note_off_c, 0, 79, 49
1, 96497, Note_off_c, 0, 69, 63
1, 96500, Note_off_c, 0, 76, 61
1, 96501, Note_off_c, 0, 81, 61
1, 96509, Note_off_c, 0, 77, 62
1, 96569, Control_c, 0, 64, 101
1, 96583, Control_c, 0, 64, 54
1, 96598, Control_c, 0, 64, 0
1, 96602, Note_on_c, 0, 83, 105
1, 96603, Note_on_c, 0, 71, 103
1, 96608, Note_on_c, 0, 81, 90
1, 96609, Note_on_c, 0, 77, 88
1, 96610, Note_on_c, 0, 55, 74
1, 96610, Note_on_c, 0, 62, 80
1, 96623, Note_off_c, 0, 71, 68
1, 96628, Note_off_c, 0, 77, 71
1, 96631, Note_off_c, 0, 83, 63
1, 96633, Note_off_c, 0, 81, 67
1, 96637, Note_off_c, 0, 62, 69
1, 96658, Note_off_c, 0, 55, 61
1, 96761, Control_c, 0, 64, 41
1, 96776, Control_c, 0, 64, 82
1, 96787, Note_on_c, 0, 55, 67
1, 96790, Control_c, 0, 64, 127
1, 96794, Note_on_c, 0, 62, 5
1, 96801, Note_on_c, 0, 83, 103
1, 96803, Note_on_c, 0, 71, 94
1, 96807, Note_on_c, 0, 77, 90
1, 96807, Note_on_c, 0, 81, 87
1, 96811, Note_off_c, 0, 55, 66
1, 96826, Note_off_c, 0, 71, 66
1, 96828, Note_off_c, 0, 77, 71
1, 96836, Note_off_c, 0, 81, 61
1, 96844, Note_off_c, 0, 83, 67
1, 96852, Note_off_c, 0, 62, 53
1, 97016, Note_on_c, 0, 55, 91
1, 97021, Note_on_c, 0, 91, 55
1, 97024, Note_on_c, 0, 43, 66
1, 97045, Note_on_c, 0, 93, 86
1, 97050, Note_off_c, 0, 55, 64
1, 97051, Note_off_c, 0, 43, 59
1, 97074, Note_off_c, 0, 91, 66
1, 97081, Note_on_c, 0, 95, 26
1, 97082, Note_off_c, 0, 95, 127
1, 97096, Note_off_c, 0, 93, 66
1, 97120, Note_on_c, 0, 81, 90
1, 97124, Note_on_c, 0, 71, 91
1, 97125, Note_on_c, 0, 67, 85
1, 97128, Note_on_c, 0, 64, 78
1, 97129, Note_on_c, 0, 72, 87
1, 97138, Control_c, 0, 64, 73
1, 97147, Note_off_c, 0, 71, 68
1, 97150, Note_off_c, 0, 67, 68
1, 97150, Note_off_c, 0, 64, 66
1, 97150, Note_off_c, 0, 72, 69
1, 97153, Note_off_c, 0, 81, 68
1, 97153, Control_c, 0, 64, 46
1, 97168, Control_c, 0, 64, 0
1, 97171, Note_on_c, 0, 65, 14
1, 97172, Note_off_c, 0, 65, 127
1, 97200, Note_on_c, 0, 72, 86
1, 97203, Note_on_c, 0, 81, 102
1, 97204, Note_on_c, 0, 74, 95
1, 97205, Note_on_c, 0, 65, 17
1, 97207, Note_on_c, 0, 69, 88
1, 97219, Note_on_c, 0, 67, 44
1, 97221, Note_on_c, 0, 64, 47
1, 97228, Note_off_c, 0, 69, 71
1, 97233, Note_off_c, 0, 72, 62
1, 97234, Note_off_c, 0, 81, 69
1, 97235, Note_off_c, 0, 74, 62
1, 97240, Note_off_c, 0, 65, 62
1, 97243, Note_off_c, 0, 67, 57
1, 97248, Note_off_c, 0, 64, 40
1, 97341, Poly_aftertouch_c, 0, 69, 0
1, 97411, Note_on_c, 0, 81, 104
1, 97414, Note_on_c, 0, 76, 88
1, 97415, Note_on_c, 0, 72, 87
1, 97418, Note_on_c, 0, 71, 79
1, 97421, Note_on_c, 0, 67, 76
1, 97437, Note_off_c, 0, 72, 67
1, 97440, Note_off_c, 0, 71, 68
1, 97440, Note_off_c, 0, 76, 64
1, 97445, Note_off_c, 0, 67, 67
1, 97450, Note_off_c, 0, 81, 68
1, 97499, Note_on_c, 0, 71, 77
1, 97504, Note_on_c, 0, 74, 87
1, 97507, Note_on_c, 0, 65, 87
1, 97508, Note_on_c, 0, 69, 78
1, 97528, Note_off_c, 0, 69, 70
1, 97529, Note_off_c, 0, 71, 65
1, 97531, Note_off_c, 0, 65, 67
1, 97535, Note_off_c, 0, 74, 63
1, 97591, Note_on_c, 0, 69, 70
1, 97593, Note_on_c, 0, 72, 82
1, 97597, Note_on_c, 0, 64, 88
1, 97600, Note_on_c, 0, 67, 75
1, 97606, Note_on_c, 0, 81, 97
1, 97621, Note_off_c, 0, 64, 67
1, 97623, Note_off_c, 0, 67, 67
1, 97624, Note_off_c, 0, 69, 67
1, 97633, Note_off_c, 0, 72, 62
1, 97650, Note_off_c, 0, 81, 67
1, 97683, Note_on_c, 0, 67, 82
1, 97689, Note_on_c, 0, 62, 84
1, 97689, Note_on_c, 0, 71, 82
1, 97690, Note_on_c, 0, 65, 83
1, 97712, Note_off_c, 0, 62, 69
1, 97713, Note_off_c, 0, 65, 68
1, 97717, Control_c, 0, 64, 67
1, 97719, Note_off_c, 0, 67, 63
1, 97728, Note_off_c, 0, 71, 66
1, 97730, Note_on_c, 0, 69, 33
1, 97732, Control_c, 0, 64, 86
1, 97754, Control_c, 0, 64, 96
1, 97767, Note_off_c, 0, 69, 60
1, 97769, Control_c, 0, 64, 102
1, 97784, Control_c, 0, 64, 105
1, 97791, Note_on_c, 0, 86, 97
1, 97793, Note_on_c, 0, 65, 45
1, 97799, Note_on_c, 0, 69, 78
1, 97799, Control_c, 0, 64, 115
1, 97801, Note_on_c, 0, 60, 83
1, 97807, Note_on_c, 0, 64, 70
1, 97814, Control_c, 0, 64, 127
1, 97832, Note_off_c, 0, 64, 67
1, 97840, Note_off_c, 0, 86, 66
1, 97841, Note_off_c, 0, 65, 64
1, 97844, Note_off_c, 0, 60, 59
1, 97846, Note_off_c, 0, 69, 65
1, 97882, Note_on_c, 0, 88, 93
1, 97918, Note_on_c, 0, 65, 74
1, 97920, Note_on_c, 0, 69, 72
1, 97928, Note_off_c, 0, 88, 67
1, 97935, Note_off_c, 0, 65, 67
1, 97939, Note_on_c, 0, 60, 56
1, 97940, Note_off_c, 0, 69, 68
1, 97961, Note_on_c, 0, 81, 85
1, 97971, Note_off_c, 0, 60, 50
1, 98009, Note_off_c, 0, 81, 66
1, 98020, Control_c, 0, 64, 84
1, 98023, Note_on_c, 0, 69, 12
1, 98026, Note_on_c, 0, 93, 89
1, 98035, Control_c, 0, 64, 57
1, 98038, Note_on_c, 0, 55, 88
1, 98042, Note_on_c, 0, 43, 80
1, 98050, Note_off_c, 0, 93, 64
1, 98050, Control_c, 0, 64, 0
1, 98055, Note_off_c, 0, 69, 48
1, 98062, Note_off_c, 0, 55, 67
1, 98065, Note_off_c, 0, 43, 63
1, 98110, Note_on_c, 0, 93, 99
1, 98140, Control_c, 0, 64, 52
1, 98155, Note_on_c, 0, 79, 95
1, 98155, Control_c, 0, 64, 84
1, 98163, Note_on_c, 0, 65, 92
1, 98163, Note_on_c, 0, 71, 98
1, 98164, Note_on_c, 0, 69, 97
1, 98168, Note_on_c, 0, 62, 89
1, 98169, Control_c, 0, 64, 127
1, 98173, Note_off_c, 0, 93, 59
1, 98203, Note_on_c, 0, 91, 18
1, 98206, Note_off_c, 0, 62, 56
1, 98257, Note_off_c, 0, 91, 37
1, 98279, Note_off_c, 0, 69, 61
1, 98280, Note_off_c, 0, 71, 61
1, 98303, Note_off_c, 0, 65, 62
1, 98315, Note_off_c, 0, 79, 61
1, 98372, Note_on_c, 0, 77, 89
1, 98415, Note_off_c, 0, 77, 65
1, 98453, Note_on_c, 0, 79, 99
1, 98500, Note_off_c, 0, 79, 68
1, 98503, Control_c, 0, 64, 111
1, 98518, Control_c, 0, 64, 65
1, 98533, Control_c, 0, 64, 0
1, 98557, Note_on_c, 0, 65, 82
1, 98557, Note_on_c, 0, 71, 88
1, 98558, Note_on_c, 0, 69, 86
1, 98559, Note_on_c, 0, 81, 107
1, 98561, Note_on_c, 0, 62, 85
1, 98577, Note_on_c, 0, 64, 51
1, 98581, Note_off_c, 0, 69, 69
1, 98581, Note_off_c, 0, 65, 68
1, 98584, Note_off_c, 0, 71, 65
1, 98585, Note_off_c, 0, 62, 70
1, 98592, Control_c, 0, 64, 41
1, 98599, Note_off_c, 0, 81, 69
1, 98600, Note_off_c, 0, 64, 37
1, 98607, Control_c, 0, 64, 66
1, 98621, Control_c, 0, 64, 65
1, 98636, Control_c, 0, 64, 45
1, 98651, Control_c, 0, 64, 0
1, 98652, Note_on_c, 0, 67, 85
1, 98653, Note_on_c, 0, 64, 88
1, 98653, Note_on_c, 0, 71, 86
1, 98653, Note_on_c, 0, 72, 83
1, 98677, Note_off_c, 0, 71, 64
1, 98677, Note_off_c, 0, 72, 65
1, 98680, Note_off_c, 0, 67, 66
1, 98683, Note_off_c, 0, 64, 66
1, 98745, Note_on_c, 0, 81, 98
1, 98748, Note_on_c, 0, 74, 85
1, 98748, Note_on_c, 0, 69, 74
1, 98748, Note_on_c, 0, 72, 66
1, 98749, Note_on_c, 0, 65, 83
1, 98773, Note_on_c, 0, 67, 54
1, 98773, Note_off_c, 0, 65, 67
1, 98775, Note_off_c, 0, 69, 70
1, 98777, Note_off_c, 0, 72, 63
1, 98783, Note_off_c, 0, 74, 63
1, 98786, Note_off_c, 0, 81, 67
1, 98798, Note_off_c, 0, 67, 39
1, 98840, Note_on_c, 0, 76, 95
1, 98842, Note_on_c, 0, 71, 87
1, 98855, Note_on_c, 0, 67, 74
1, 98870, Note_off_c, 0, 71, 63
1, 98872, Note_off_c, 0, 67, 68
1, 98880, Note_off_c, 0, 76, 63
1, 98889, Note_on_c, 0, 69, 25
1, 98903, Control_c, 0, 64, 58
1, 98918, Control_c, 0, 64, 93
1, 98921, Note_on_c, 0, 83, 99
1, 98930, Note_on_c, 0, 76, 88
1, 98932, Note_off_c, 0, 69, 33
1, 98932, Note_on_c, 0, 67, 89
1, 98933, Control_c, 0, 64, 127
1, 98936, Note_on_c, 0, 71, 83
1, 98945, Note_on_c, 0, 72, 80
1, 98960, Note_off_c, 0, 71, 67
1, 98965, Note_off_c, 0, 67, 64
1, 98969, Note_off_c, 0, 72, 67
1, 98978, Note_off_c, 0, 76, 65
1, 99010, Note_on_c, 0, 95, 94
1, 99020, Note_on_c, 0, 71, 86
1, 99024, Note_on_c, 0, 74, 88
1, 99025, Note_on_c, 0, 69, 75
1, 99036, Note_on_c, 0, 65, 56
1, 99044, Note_on_c, 0, 67, 61
1, 99051, Note_off_c, 0, 69, 67
1, 99053, Note_off_c, 0, 95, 67
1, 99058, Note_off_c, 0, 71, 63
1, 99058, Note_off_c, 0, 65, 63
1, 99062, Note_off_c, 0, 67, 64
1, 99068, Note_off_c, 0, 74, 65
1, 99111, Note_on_c, 0, 93, 83
1, 99113, Note_on_c, 0, 69, 76
1, 99114, Note_on_c, 0, 72, 62
1, 99119, Note_on_c, 0, 67, 80
1, 99126, Note_on_c, 0, 65, 65
1, 99135, Note_off_c, 0, 93, 67
1, 99138, Note_on_c, 0, 64, 58
1, 99142, Note_off_c, 0, 67, 67
1, 99147, Note_off_c, 0, 65, 63
1, 99150, Note_off_c, 0, 69, 66
1, 99159, Note_off_c, 0, 64, 63
1, 99161, Note_off_c, 0, 72, 63
1, 99164, Note_off_c, 0, 83, 21
1, 99171, Control_c, 0, 64, 81
1, 99186, Control_c, 0, 64, 57
1, 99198, Note_on_c, 0, 88, 91
1, 99200, Control_c, 0, 64, 0
1, 99210, Note_on_c, 0, 67, 78
1, 99210, Note_on_c, 0, 71, 73
1, 99213, Note_on_c, 0, 65, 85
1, 99214, Note_on_c, 0, 62, 81
1, 99241, Note_off_c, 0, 65, 68
1, 99245, Note_off_c, 0, 62, 68
1, 99245, Note_off_c, 0, 88, 67
1, 99245, Note_off_c, 0, 67, 67
1, 99257, Note_off_c, 0, 71, 64
1, 99296, Control_c, 0, 64, 62
1, 99308, Note_on_c, 0, 86, 101
1, 99311, Control_c, 0, 64, 87
1, 99317, Note_on_c, 0, 65, 20
1, 99326, Control_c, 0, 64, 127
1, 99326, Note_on_c, 0, 69, 90
1, 99331, Note_on_c, 0, 60, 76
1, 99331, Note_on_c, 0, 64, 68
1, 99359, Note_off_c, 0, 86, 65
1, 99362, Note_off_c, 0, 64, 65
1, 99367, Note_off_c, 0, 60, 61
1, 99368, Note_off_c, 0, 65, 64
1, 99371, Note_on_c, 0, 88, 77
1, 99375, Note_off_c, 0, 69, 65
1, 99389, Poly_aftertouch_c, 0, 62, 0
1, 99422, Note_on_c, 0, 93, 93
1, 99431, Note_off_c, 0, 88, 67
1, 99441, Note_on_c, 0, 65, 83
1, 99466, Note_off_c, 0, 65, 68
1, 99469, Note_on_c, 0, 69, 39
1, 99479, Note_on_c, 0, 60, 39
1, 99480, Note_on_c, 0, 81, 91
1, 99488, Note_off_c, 0, 69, 67
1, 99502, Note_off_c, 0, 60, 58
1, 99541, Note_off_c, 0, 81, 64
1, 99561, Note_on_c, 0, 55, 97
1, 99566, Note_on_c, 0, 43, 88
1, 99582, Note_off_c, 0, 55, 69
1, 99584, Note_off_c, 0, 43, 66
1, 99709, Poly_aftertouch_c, 0, 43, 127
1, 99727, Control_c, 0, 64, 87
1, 99729, Note_on_c, 0, 81, 102
1, 99734, Note_on_c, 0, 65, 97
1, 99734, Note_on_c, 0, 69, 98
1, 99734, Note_on_c, 0, 71, 97
1, 99737, Note_on_c, 0, 62, 88
1, 99741, Control_c, 0, 64, 71
1, 99743, Poly_aftertouch_c, 0, 43, 0
1, 99756, Control_c, 0, 64, 69
1, 99771, Control_c, 0, 64, 82
1, 99774, Note_off_c, 0, 71, 61
1, 99786, Control_c, 0, 64, 127
1, 99791, Note_off_c, 0, 69, 67
1, 99796, Note_off_c, 0, 62, 58
1, 99803, Note_off_c, 0, 65, 63
1, 99835, Note_off_c, 0, 81, 63
1, 99934, Control_c, 0, 64, 90
1, 99943, Note_on_c, 0, 81, 89
1, 99949, Control_c, 0, 64, 74
1, 99964, Control_c, 0, 64, 66
1, 99979, Control_c, 0, 64, 62
1, 100001, Control_c, 0, 64, 60
1, 100015, Note_off_c, 0, 81, 64
1, 100015, Control_c, 0, 64, 52
1, 100029, Note_off_c, 0, 93, 53
1, 100030, Control_c, 0, 64, 0
1, 100119, Control_c, 0, 64, 25
1, 100134, Control_c, 0, 64, 67
1, 100140, Note_on_c, 0, 65, 93
1, 100142, Note_on_c, 0, 86, 97
1, 100144, Note_on_c, 0, 71, 93
1, 100145, Note_on_c, 0, 62, 83
1, 100145, Note_on_c, 0, 69, 92
1, 100149, Control_c, 0, 64, 85
1, 100164, Control_c, 0, 64, 110
1, 100167, Note_off_c, 0, 69, 69
1, 100170, Note_off_c, 0, 71, 67
1, 100176, Note_off_c, 0, 65, 64
1, 100178, Control_c, 0, 64, 127
1, 100179, Note_off_c, 0, 62, 63
1, 100187, Note_off_c, 0, 86, 66
1, 100193, Control_c, 0, 64, 122
1, 100208, Control_c, 0, 64, 85
1, 100223, Control_c, 0, 64, 55
1, 100233, Note_on_c, 0, 71, 96
1, 100237, Note_on_c, 0, 67, 84
1, 100238, Note_on_c, 0, 64, 83
1, 100238, Note_on_c, 0, 88, 97
1, 100238, Control_c, 0, 64, 0
1, 100246, Note_on_c, 0, 72, 86
1, 100260, Note_off_c, 0, 72, 69
1, 100264, Note_off_c, 0, 64, 68
1, 100264, Note_off_c, 0, 67, 68
1, 100270, Note_off_c, 0, 71, 63
1, 100279, Note_off_c, 0, 88, 66
1, 100322, Note_on_c, 0, 81, 90
1, 100323, Note_on_c, 0, 69, 76
1, 100327, Note_on_c, 0, 72, 77
1, 100327, Note_on_c, 0, 74, 92
1, 100330, Note_on_c, 0, 65, 73
1, 100353, Note_off_c, 0, 72, 67
1, 100355, Note_off_c, 0, 74, 64
1, 100357, Note_off_c, 0, 65, 67
1, 100363, Note_off_c, 0, 69, 67
1, 100373, Note_off_c, 0, 81, 66
1, 100403, Note_on_c, 0, 93, 90
1, 100426, Note_on_c, 0, 76, 98
1, 100432, Note_off_c, 0, 93, 64
1, 100433, Note_on_c, 0, 71, 84
1, 100436, Note_on_c, 0, 67, 82
1, 100452, Note_off_c, 0, 71, 69
1, 100459, Note_off_c, 0, 67, 68
1, 100462, Note_off_c, 0, 76, 63
1, 100489, Control_c, 0, 64, 61
1, 100491, Note_on_c, 0, 93, 98
1, 100504, Note_on_c, 0, 79, 98
1, 100504, Control_c, 0, 64, 85
1, 100509, Note_on_c, 0, 74, 98
1, 100511, Note_on_c, 0, 71, 56
1, 100514, Note_on_c, 0, 69, 92
1, 100515, Note_on_c, 0, 65, 95
1, 100520, Control_c, 0, 64, 127
1, 100539, Note_on_c, 0, 67, 15
1, 100548, Note_off_c, 0, 69, 65
1, 100548, Note_off_c, 0, 71, 64
1, 100548, Note_off_c, 0, 93, 65
1, 100549, Note_off_c, 0, 65, 63
1, 100561, Note_off_c, 0, 74, 67
1, 100584, Note_off_c, 0, 67, 37
1, 100707, Note_on_c, 0, 69, 79
1, 100709, Note_on_c, 0, 72, 76
1, 100712, Note_on_c, 0, 67, 63
1, 100714, Note_on_c, 0, 64, 67
1, 100718, Note_off_c, 0, 79, 61
1, 100723, Note_on_c, 0, 77, 80
1, 100727, Note_off_c, 0, 69, 71
1, 100741, Note_off_c, 0, 67, 65
1, 100742, Note_off_c, 0, 72, 67
1, 100749, Note_off_c, 0, 64, 67
1, 100759, Note_off_c, 0, 77, 64
1, 100764, Control_c, 0, 64, 110
1, 100779, Control_c, 0, 64, 75
1, 100794, Control_c, 0, 64, 52
1, 100804, Note_on_c, 0, 71, 93
1, 100806, Note_on_c, 0, 67, 81
1, 100806, Note_on_c, 0, 79, 98
1, 100807, Note_on_c, 0, 62, 83
1, 100808, Note_on_c, 0, 65, 82
1, 100809, Control_c, 0, 64, 0
1, 100831, Note_off_c, 0, 67, 67
1, 100832, Note_off_c, 0, 65, 67
1, 100835, Note_off_c, 0, 62, 67
1, 100842, Note_off_c, 0, 79, 67
1, 100843, Note_off_c, 0, 71, 63
1, 100893, Note_on_c, 0, 81, 110
1, 100895, Note_on_c, 0, 65, 88
1, 100897, Note_on_c, 0, 69, 84
1, 100897, Control_c, 0, 64, 62
1, 100898, Note_on_c, 0, 60, 83
1, 100898, Note_on_c, 0, 64, 70
1, 100912, Control_c, 0, 64, 89
1, 100927, Control_c, 0, 64, 127
1, 100938, Note_off_c, 0, 81, 68
1, 100940, Note_off_c, 0, 65, 62
1, 100942, Note_off_c, 0, 64, 61
1, 100945, Note_off_c, 0, 60, 58
1, 100956, Note_off_c, 0, 69, 63
1, 101049, Note_on_c, 0, 65, 74
1, 101058, Note_on_c, 0, 60, 74
1, 101070, Note_on_c, 0, 69, 50
1, 101074, Note_off_c, 0, 65, 67
1, 101082, Note_off_c, 0, 60, 66
1, 101085, Note_on_c, 0, 81, 93
1, 101088, Note_off_c, 0, 69, 67
1, 101147, Note_off_c, 0, 81, 64
1, 101150, Control_c, 0, 64, 90
1, 101164, Control_c, 0, 64, 58
1, 101173, Note_on_c, 0, 55, 97
1, 101177, Note_on_c, 0, 43, 91
1, 101179, Control_c, 0, 64, 0
1, 101196, Note_off_c, 0, 43, 69
1, 101209, Control_c, 0, 64, 32
1, 101211, Note_off_c, 0, 55, 67
1, 101223, Control_c, 0, 64, 74
1, 101238, Control_c, 0, 64, 127
1, 101270, Note_on_c, 0, 43, 26
1, 101292, Note_off_c, 0, 43, 58
1, 101330, Note_on_c, 0, 83, 100
1, 101341, Note_on_c, 0, 71, 99
1, 101342, Note_on_c, 0, 69, 99
1, 101343, Note_on_c, 0, 65, 98
1, 101345, Note_on_c, 0, 62, 88
1, 101374, Note_off_c, 0, 62, 66
1, 101374, Note_off_c, 0, 65, 62
1, 101383, Note_off_c, 0, 71, 64
1, 101384, Note_off_c, 0, 69, 66
1, 101428, Note_on_c, 0, 95, 91
1, 101476, Control_c, 0, 64, 110
1, 101491, Note_off_c, 0, 95, 67
1, 101499, Control_c, 0, 64, 63
1, 101513, Control_c, 0, 64, 0
1, 101534, Note_on_c, 0, 93, 90
1, 101536, Note_on_c, 0, 62, 83
1, 101536, Note_on_c, 0, 65, 82
1, 101538, Note_on_c, 0, 71, 80
1, 101539, Note_on_c, 0, 69, 85
1, 101558, Note_off_c, 0, 69, 67
1, 101558, Note_off_c, 0, 65, 69
1, 101562, Note_off_c, 0, 62, 69
1, 101565, Note_off_c, 0, 71, 67
1, 101585, Note_off_c, 0, 93, 65
1, 101626, Note_on_c, 0, 88, 88
1, 101666, Note_off_c, 0, 88, 65
1, 101666, Note_off_c, 0, 83, 64
1, 101688, Poly_aftertouch_c, 0, 69, 0
1, 101718, Note_on_c, 0, 71, 84
1, 101720, Control_c, 0, 64, 42
1, 101721, Note_on_c, 0, 86, 100
1, 101732, Note_on_c, 0, 65, 67
1, 101732, Note_on_c, 0, 62, 74
1, 101734, Note_on_c, 0, 64, 77
1, 101735, Note_on_c, 0, 69, 76
1, 101735, Control_c, 0, 64, 101
1, 101738, Note_on_c, 0, 67, 64
1, 101746, Note_off_c, 0, 71, 66
1, 101749, Note_off_c, 0, 65, 66
1, 101750, Control_c, 0, 64, 127
1, 101752, Note_off_c, 0, 62, 68
1, 101752, Note_off_c, 0, 69, 67
1, 101760, Note_off_c, 0, 67, 63
1, 101761, Note_off_c, 0, 64, 66
1, 101773, Note_off_c, 0, 86, 65
1, 101816, Note_on_c, 0, 64, 91
1, 101816, Note_on_c, 0, 71, 95
1, 101817, Note_on_c, 0, 67, 91
1, 101818, Note_on_c, 0, 88, 98
1, 101821, Note_on_c, 0, 72, 83
1, 101846, Note_off_c, 0, 67, 64
1, 101846, Note_off_c, 0, 72, 63
1, 101848, Note_off_c, 0, 71, 63
1, 101853, Note_off_c, 0, 64, 61
1, 101870, Note_off_c, 0, 88, 66
1, 101884, Control_c, 0, 64, 97
1, 101898, Control_c, 0, 64, 72
1, 101903, Note_on_c, 0, 81, 91
1, 101904, Note_on_c, 0, 69, 81
1, 101907, Note_on_c, 0, 74, 95
1, 101907, Note_on_c, 0, 65, 78
1, 101910, Note_on_c, 0, 72, 74
1, 101913, Control_c, 0, 64, 51
1, 101928, Control_c, 0, 64, 0
1, 101931, Note_off_c, 0, 72, 67
1, 101934, Note_off_c, 0, 74, 66
1, 101937, Note_off_c, 0, 65, 68
1, 101940, Note_off_c, 0, 69, 67
1, 101956, Note_off_c, 0, 81, 66
1, 101986, Note_on_c, 0, 93, 89
1, 102001, Note_on_c, 0, 76, 96
1, 102005, Note_on_c, 0, 71, 87
1, 102005, Note_on_c, 0, 72, 15
1, 102006, Note_on_c, 0, 67, 84
1, 102022, Note_off_c, 0, 93, 65
1, 102027, Note_off_c, 0, 71, 69
1, 102030, Note_off_c, 0, 72, 61
1, 102033, Note_off_c, 0, 67, 67
1, 102033, Note_off_c, 0, 76, 62
1, 102061, Control_c, 0, 64, 48
1, 102073, Note_on_c, 0, 93, 98
1, 102076, Control_c, 0, 64, 97
1, 102087, Note_on_c, 0, 71, 84
1, 102087, Note_on_c, 0, 79, 98
1, 102088, Note_on_c, 0, 74, 98
1, 102091, Note_on_c, 0, 65, 90
1, 102091, Control_c, 0, 64, 127
1, 102092, Note_on_c, 0, 69, 94
1, 102125, Note_off_c, 0, 71, 67
1, 102126, Note_off_c, 0, 69, 65
1, 102130, Note_off_c, 0, 65, 64
1, 102130, Note_off_c, 0, 93, 65
1, 102135, Note_off_c, 0, 74, 65
1, 102166, Control_c, 0, 64, 84
1, 102181, Control_c, 0, 64, 67
1, 102183, Note_on_c, 0, 69, 83
1, 102185, Note_on_c, 0, 64, 82
1, 102187, Note_on_c, 0, 72, 79
1, 102188, Note_on_c, 0, 67, 84
1, 102196, Control_c, 0, 64, 52
1, 102210, Control_c, 0, 64, 21
1, 102213, Note_off_c, 0, 67, 66
1, 102214, Note_off_c, 0, 69, 68
1, 102214, Note_off_c, 0, 64, 63
1, 102218, Note_off_c, 0, 72, 64
1, 102225, Control_c, 0, 64, 0
1, 102271, Note_off_c, 0, 79, 53
1, 102283, Note_on_c, 0, 67, 73
1, 102284, Note_on_c, 0, 62, 92
1, 102286, Note_on_c, 0, 65, 86
1, 102286, Note_on_c, 0, 71, 86
1, 102301, Note_on_c, 0, 77, 82
1, 102315, Note_off_c, 0, 67, 67
1, 102317, Note_off_c, 0, 65, 64
1, 102322, Note_off_c, 0, 71, 63
1, 102324, Note_off_c, 0, 62, 63
1, 102340, Note_off_c, 0, 77, 63
1, 102383, Note_on_c, 0, 79, 96
1, 102385, Note_on_c, 0, 60, 86
1, 102386, Note_on_c, 0, 64, 86
1, 102386, Note_on_c, 0, 69, 95
1, 102390, Note_on_c, 0, 65, 90
1, 102411, Note_off_c, 0, 65, 68
1, 102418, Note_off_c, 0, 64, 66
1, 102420, Note_off_c, 0, 60, 61
1, 102423, Note_off_c, 0, 79, 67
1, 102429, Note_off_c, 0, 69, 65
1, 102477, Note_on_c, 0, 69, 89
1, 102478, Note_on_c, 0, 81, 102
1, 102479, Note_on_c, 0, 65, 67
1, 102480, Note_on_c, 0, 60, 81
1, 102480, Note_on_c, 0, 64, 85
1, 102511, Note_off_c, 0, 65, 67
1, 102521, Note_off_c, 0, 60, 60
1, 102523, Note_off_c, 0, 64, 61
1, 102527, Note_off_c, 0, 69, 64
1, 102534, Note_off_c, 0, 81, 66
1, 102579, Note_on_c, 0, 88, 94
1, 102626, Note_off_c, 0, 88, 67
1, 102673, Note_on_c, 0, 60, 71
1, 102678, Note_on_c, 0, 69, 70
1, 102679, Note_on_c, 0, 65, 67
1, 102679, Note_on_c, 0, 81, 96
1, 102697, Note_off_c, 0, 65, 66
1, 102700, Note_on_c, 0, 64, 40
1, 102707, Note_off_c, 0, 69, 67
1, 102709, Note_off_c, 0, 60, 63
1, 102730, Note_off_c, 0, 64, 35
1, 102739, Note_off_c, 0, 81, 66
1, 102763, Note_on_c, 0, 93, 93
1, 102807, Note_off_c, 0, 93, 65
1, 102869, Note_on_c, 0, 79, 93
1, 102870, Note_on_c, 0, 62, 80
1, 102873, Note_on_c, 0, 69, 80
1, 102874, Note_on_c, 0, 71, 69
1, 102880, Note_on_c, 0, 65, 63
1, 102884, Control_c, 0, 64, 43
1, 102894, Note_off_c, 0, 71, 65
1, 102894, Note_off_c, 0, 69, 60
1, 102899, Control_c, 0, 64, 69
1, 102900, Note_off_c, 0, 65, 63
1, 102909, Note_off_c, 0, 62, 64
1, 102915, Control_c, 0, 64, 69
1, 102925, Note_off_c, 0, 79, 66
1, 102930, Control_c, 0, 64, 67
1, 102945, Control_c, 0, 64, 55
1, 102959, Control_c, 0, 64, 0
1, 102966, Note_on_c, 0, 95, 87
1, 103019, Note_off_c, 0, 95, 66
1, 103064, Note_on_c, 0, 93, 78
1, 103087, Note_on_c, 0, 62, 67
1, 103087, Note_on_c, 0, 65, 53
1, 103094, Note_on_c, 0, 71, 56
1, 103094, Note_on_c, 0, 69, 52
1, 103112, Note_off_c, 0, 62, 66
1, 103112, Note_off_c, 0, 65, 57
1, 103115, Note_off_c, 0, 71, 60
1, 103116, Note_off_c, 0, 93, 65
1, 103119, Note_off_c, 0, 69, 61
1, 103159, Note_on_c, 0, 88, 95
1, 103196, Note_off_c, 0, 88, 69
1, 103252, Note_on_c, 0, 86, 86
1, 103291, Note_off_c, 0, 86, 65
1, 103342, Note_on_c, 0, 88, 74
1, 103367, Note_off_c, 0, 88, 70
1, 103396, Control_c, 0, 67, 10
1, 103410, Control_c, 0, 67, 15
1, 103425, Control_c, 0, 67, 23
1, 103440, Control_c, 0, 67, 35
1, 103443, Note_on_c, 0, 81, 75
1, 103454, Note_on_c, 0, 62, 52
1, 103455, Control_c, 0, 67, 47
1, 103457, Note_on_c, 0, 64, 51
1, 103457, Note_on_c, 0, 55, 65
1, 103460, Note_on_c, 0, 65, 56
1, 103470, Control_c, 0, 67, 60
1, 103478, Note_off_c, 0, 62, 61
1, 103480, Note_off_c, 0, 64, 60
1, 103481, Note_off_c, 0, 65, 61
1, 103484, Note_on_c, 0, 59, 26
1, 103484, Control_c, 0, 67, 75
1, 103498, Note_off_c, 0, 55, 65
1, 103499, Control_c, 0, 67, 85
1, 103502, Note_off_c, 0, 81, 65
1, 103514, Control_c, 0, 67, 91
1, 103524, Note_off_c, 0, 59, 30
1, 103529, Control_c, 0, 67, 93
1, 103532, Note_on_c, 0, 93, 65
1, 103544, Control_c, 0, 67, 93
1, 103561, Note_off_c, 0, 93, 50
1, 103603, Control_c, 0, 67, 92
1, 103618, Control_c, 0, 67, 92
1, 103633, Control_c, 0, 67, 90
1, 103648, Control_c, 0, 67, 89
1, 103654, Note_on_c, 0, 79, 64
1, 103660, Note_on_c, 0, 43, 67
1, 103663, Control_c, 0, 67, 89
1, 103678, Control_c, 0, 64, 53
1, 103690, Note_off_c, 0, 79, 60
1, 103692, Control_c, 0, 64, 52
1, 103692, Control_c, 0, 67, 89
1, 103708, Control_c, 0, 64, 0
1, 103708, Control_c, 0, 67, 90
1, 103710, Note_off_c, 0, 43, 64
1, 103729, Note_on_c, 0, 55, 67
1, 103747, Note_on_c, 0, 95, 73
1, 103759, Note_off_c, 0, 55, 63
1, 103760, Control_c, 0, 67, 90
1, 103775, Control_c, 0, 67, 90
1, 103790, Note_off_c, 0, 95, 62
1, 103842, Note_on_c, 0, 67, 88
1, 103842, Note_on_c, 0, 93, 87
1, 103843, Note_on_c, 0, 60, 83
1, 103846, Note_on_c, 0, 69, 89
1, 103851, Note_on_c, 0, 64, 70
1, 103863, Control_c, 0, 67, 90
1, 103866, Note_off_c, 0, 69, 71
1, 103867, Note_off_c, 0, 67, 67
1, 103868, Note_off_c, 0, 64, 67
1, 103873, Note_off_c, 0, 60, 64
1, 103908, Control_c, 0, 67, 89
1, 103922, Control_c, 0, 67, 88
1, 103937, Control_c, 0, 64, 46
1, 103937, Control_c, 0, 67, 86
1, 103940, Note_on_c, 0, 88, 79
1, 103949, Note_off_c, 0, 93, 62
1, 103952, Control_c, 0, 64, 59
1, 103952, Control_c, 0, 67, 84
1, 103967, Control_c, 0, 64, 67
1, 103967, Control_c, 0, 67, 82
1, 103974, Poly_aftertouch_c, 0, 69, 0
1, 103982, Control_c, 0, 64, 77
1, 103982, Control_c, 0, 67, 80
1, 103985, Note_off_c, 0, 88, 65
1, 103997, Control_c, 0, 64, 90
1, 103997, Control_c, 0, 67, 77
1, 104012, Control_c, 0, 64, 92
1, 104012, Control_c, 0, 67, 75
1, 104027, Control_c, 0, 64, 81
1, 104027, Control_c, 0, 67, 73
1, 104041, Control_c, 0, 64, 55
1, 104041, Control_c, 0, 67, 73
1, 104043, Note_on_c, 0, 86, 78
1, 104056, Control_c, 0, 64, 0
1, 104060, Note_on_c, 0, 43, 66
1, 104086, Control_c, 0, 67, 72
1, 104100, Note_off_c, 0, 86, 64
1, 104101, Control_c, 0, 67, 72
1, 104104, Note_off_c, 0, 43, 65
1, 104115, Control_c, 0, 67, 71
1, 104124, Note_on_c, 0, 55, 64
1, 104125, Note_on_c, 0, 88, 77
1, 104130, Control_c, 0, 67, 71
1, 104145, Control_c, 0, 67, 69
1, 104146, Note_off_c, 0, 55, 62
1, 104152, Note_off_c, 0, 88, 69
1, 104160, Control_c, 0, 67, 68
1, 104175, Control_c, 0, 67, 63
1, 104189, Control_c, 0, 67, 54
1, 104204, Control_c, 0, 67, 40
1, 104219, Control_c, 0, 67, 27
1, 104224, Note_on_c, 0, 81, 79
1, 104224, Note_on_c, 0, 69, 81
1, 104229, Note_on_c, 0, 65, 69
1, 104229, Note_on_c, 0, 59, 69
1, 104234, Control_c, 0, 67, 17
1, 104237, Note_on_c, 0, 64, 56
1, 104246, Note_off_c, 0, 65, 66
1, 104248, Control_c, 0, 67, 8
1, 104249, Note_off_c, 0, 69, 69
1, 104256, Note_off_c, 0, 59, 68
1, 104261, Note_off_c, 0, 64, 60
1, 104263, Control_c, 0, 67, 0
1, 104285, Note_on_c, 0, 93, 82
1, 104290, Note_off_c, 0, 81, 64
1, 104316, Note_off_c, 0, 93, 64
1, 104390, Note_on_c, 0, 93, 82
1, 104421, Note_on_c, 0, 79, 98
1, 104426, Control_c, 0, 64, 43
1, 104441, Control_c, 0, 64, 127
1, 104444, Note_on_c, 0, 43, 80
1, 104457, Note_off_c, 0, 93, 64
1, 104506, Note_off_c, 0, 43, 63
1, 104545, Note_on_c, 0, 55, 48
1, 104570, Note_off_c, 0, 55, 58
1, 104611, Note_off_c, 0, 79, 61
1, 104627, Control_c, 0, 64, 93
1, 104642, Control_c, 0, 64, 68
1, 104657, Note_on_c, 0, 77, 73
1, 104657, Control_c, 0, 64, 50
1, 104661, Note_on_c, 0, 64, 74
1, 104662, Note_on_c, 0, 60, 73
1, 104668, Note_on_c, 0, 67, 66
1, 104671, Control_c, 0, 64, 0
1, 104681, Note_on_c, 0, 69, 55
1, 104686, Note_off_c, 0, 67, 65
1, 104687, Note_off_c, 0, 60, 64
1, 104688, Note_off_c, 0, 64, 68
1, 104700, Note_off_c, 0, 77, 59
1, 104705, Note_off_c, 0, 69, 37
1, 104733, Note_on_c, 0, 79, 80
1, 104767, Note_off_c, 0, 79, 64
1, 104820, Control_c, 0, 64, 56
1, 104835, Control_c, 0, 64, 75
1, 104838, Note_on_c, 0, 81, 79
1, 104850, Control_c, 0, 64, 75
1, 104851, Note_on_c, 0, 43, 70
1, 104864, Control_c, 0, 64, 66
1, 104879, Control_c, 0, 64, 22
1, 104891, Note_off_c, 0, 81, 64
1, 104894, Control_c, 0, 64, 0
1, 104902, Note_off_c, 0, 43, 63
1, 104920, Note_on_c, 0, 95, 76
1, 104927, Note_on_c, 0, 55, 56
1, 104952, Note_off_c, 0, 55, 58
1, 104968, Note_off_c, 0, 95, 67
1, 105014, Note_on_c, 0, 93, 83
1, 105023, Note_on_c, 0, 59, 74
1, 105024, Note_on_c, 0, 69, 84
1, 105037, Note_on_c, 0, 65, 61
1, 105037, Note_on_c, 0, 64, 56
1, 105046, Note_off_c, 0, 69, 69
1, 105058, Note_off_c, 0, 59, 68
1, 105058, Note_off_c, 0, 65, 59
1, 105061, Note_off_c, 0, 64, 59
1, 105067, Note_off_c, 0, 93, 65
1, 105105, Note_on_c, 0, 88, 88
1, 105150, Note_off_c, 0, 88, 66
1, 105159, Poly_aftertouch_c, 0, 69, 0
1, 105201, Note_on_c, 0, 86, 82
1, 105204, Control_c, 0, 64, 35
1, 105219, Control_c, 0, 64, 63
1, 105221, Note_on_c, 0, 43, 69
1, 105256, Control_c, 0, 64, 49
1, 105264, Note_off_c, 0, 86, 65
1, 105271, Control_c, 0, 64, 0
1, 105274, Note_off_c, 0, 43, 64
1, 105291, Note_on_c, 0, 88, 83
1, 105298, Note_on_c, 0, 55, 66
1, 105321, Note_off_c, 0, 55, 63
1, 105323, Note_off_c, 0, 88, 65
1, 105393, Note_on_c, 0, 81, 88
1, 105396, Note_on_c, 0, 69, 75
1, 105397, Note_on_c, 0, 67, 76
1, 105398, Note_on_c, 0, 60, 73
1, 105404, Note_on_c, 0, 64, 59
1, 105412, Note_off_c, 0, 69, 70
1, 105413, Note_off_c, 0, 67, 69
1, 105415, Note_off_c, 0, 60, 65
1, 105426, Note_off_c, 0, 64, 39
1, 105452, Note_off_c, 0, 81, 65
1, 105469, Note_on_c, 0, 93, 75
1, 105494, Note_off_c, 0, 93, 64
1, 105552, Note_on_c, 0, 93, 90
1, 105580, Note_on_c, 0, 79, 97
1, 105584, Control_c, 0, 64, 53
1, 105599, Control_c, 0, 64, 127
1, 105601, Note_on_c, 0, 43, 81
1, 105622, Note_on_c, 0, 92, 40
1, 105623, Note_off_c, 0, 92, 127
1, 105623, Note_off_c, 0, 93, 67
1, 105655, Note_off_c, 0, 43, 65
1, 105669, Note_on_c, 0, 55, 78
1, 105697, Note_off_c, 0, 55, 65
1, 105733, Control_c, 0, 64, 96
1, 105742, Note_off_c, 0, 79, 53
1, 105748, Control_c, 0, 64, 57
1, 105748, Control_c, 0, 67, 9
1, 105763, Control_c, 0, 64, 0
1, 105763, Control_c, 0, 67, 12
1, 105778, Control_c, 0, 67, 15
1, 105792, Control_c, 0, 67, 19
1, 105798, Note_on_c, 0, 69, 77
1, 105799, Note_on_c, 0, 77, 82
1, 105804, Note_on_c, 0, 64, 61
1, 105807, Control_c, 0, 67, 22
1, 105810, Note_on_c, 0, 59, 50
1, 105816, Note_on_c, 0, 65, 45
1, 105822, Control_c, 0, 67, 26
1, 105823, Note_off_c, 0, 69, 69
1, 105824, Note_off_c, 0, 64, 64
1, 105834, Note_off_c, 0, 59, 59
1, 105837, Control_c, 0, 67, 32
1, 105846, Note_off_c, 0, 65, 35
1, 105852, Control_c, 0, 67, 38
1, 105853, Note_off_c, 0, 77, 61
1, 105867, Control_c, 0, 67, 46
1, 105877, Note_on_c, 0, 79, 83
1, 105881, Control_c, 0, 67, 53
1, 105896, Control_c, 0, 67, 54
1, 105911, Control_c, 0, 67, 54
1, 105915, Note_off_c, 0, 79, 65
1, 105926, Control_c, 0, 67, 53
1, 105941, Control_c, 0, 67, 55
1, 105955, Control_c, 0, 64, 17
1, 105955, Control_c, 0, 67, 57
1, 105970, Control_c, 0, 64, 43
1, 105970, Control_c, 0, 67, 62
1, 105992, Control_c, 0, 64, 0
1, 105992, Control_c, 0, 67, 64
1, 105995, Note_on_c, 0, 81, 68
1, 105995, Note_on_c, 0, 79, 71
1, 105996, Note_on_c, 0, 43, 68
1, 106007, Control_c, 0, 67, 66
1, 106022, Control_c, 0, 67, 66
1, 106024, Note_off_c, 0, 79, 65
1, 106036, Note_off_c, 0, 81, 62
1, 106037, Control_c, 0, 67, 67
1, 106047, Note_off_c, 0, 43, 63
1, 106067, Note_on_c, 0, 95, 80
1, 106072, Note_on_c, 0, 55, 60
1, 106093, Note_off_c, 0, 55, 62
1, 106096, Control_c, 0, 67, 68
1, 106126, Control_c, 0, 67, 69
1, 106141, Control_c, 0, 67, 69
1, 106146, Note_off_c, 0, 95, 47
1, 106156, Control_c, 0, 67, 70
1, 106168, Note_on_c, 0, 93, 76
1, 106171, Control_c, 0, 67, 72
1, 106176, Note_on_c, 0, 60, 72
1, 106177, Note_on_c, 0, 67, 68
1, 106183, Note_on_c, 0, 64, 55
1, 106183, Note_on_c, 0, 69, 61
1, 106186, Control_c, 0, 67, 74
1, 106195, Note_off_c, 0, 67, 63
1, 106201, Control_c, 0, 67, 75
1, 106202, Note_off_c, 0, 60, 64
1, 106203, Note_off_c, 0, 69, 66
1, 106207, Note_off_c, 0, 64, 38
1, 106216, Control_c, 0, 67, 77
1, 106245, Control_c, 0, 67, 76
1, 106249, Note_off_c, 0, 93, 55
1, 106252, Note_on_c, 0, 88, 77
1, 106260, Control_c, 0, 67, 75
1, 106290, Control_c, 0, 67, 75
1, 106304, Control_c, 0, 67, 74
1, 106304, Note_off_c, 0, 88, 66
1, 106318, Control_c, 0, 67, 73
1, 106333, Control_c, 0, 67, 72
1, 106355, Note_on_c, 0, 86, 79
1, 106363, Control_c, 0, 67, 72
1, 106365, Note_on_c, 0, 43, 71
1, 106377, Control_c, 0, 64, 31
1, 106377, Control_c, 0, 67, 72
1, 106392, Control_c, 0, 64, 65
1, 106392, Control_c, 0, 67, 72
1, 106407, Control_c, 0, 64, 57
1, 106408, Note_off_c, 0, 43, 64
1, 106413, Note_off_c, 0, 86, 64
1, 106422, Control_c, 0, 64, 0
1, 106424, Note_on_c, 0, 55, 71
1, 106437, Control_c, 0, 67, 73
1, 106442, Note_on_c, 0, 88, 69
1, 106447, Note_off_c, 0, 55, 66
1, 106451, Control_c, 0, 67, 74
1, 106478, Note_off_c, 0, 88, 65
1, 106496, Control_c, 0, 67, 73
1, 106511, Control_c, 0, 67, 73
1, 106526, Control_c, 0, 67, 73
1, 106536, Note_on_c, 0, 81, 95
1, 106539, Note_on_c, 0, 59, 74
1, 106539, Note_on_c, 0, 69, 76
1, 106541, Control_c, 0, 67, 74
1, 106541, Note_on_c, 0, 64, 70
1, 106546, Note_on_c, 0, 65, 65
1, 106556, Note_off_c, 0, 69, 71
1, 106556, Control_c, 0, 67, 75
1, 106559, Note_off_c, 0, 64, 68
1, 106565, Note_off_c, 0, 65, 63
1, 106571, Note_off_c, 0, 59, 68
1, 106600, Control_c, 0, 67, 74
1, 106608, Note_off_c, 0, 81, 66
1, 106615, Control_c, 0, 67, 73
1, 106629, Control_c, 0, 67, 73
1, 106640, Note_on_c, 0, 93, 49
1, 106659, Control_c, 0, 67, 72
1, 106663, Note_off_c, 0, 93, 58
1, 106674, Control_c, 0, 67, 72
1, 106689, Control_c, 0, 67, 69
1, 106703, Control_c, 0, 67, 66
1, 106718, Control_c, 0, 67, 66
1, 106749, Note_on_c, 0, 79, 91
1, 106755, Control_c, 0, 64, 61
1, 106755, Control_c, 0, 67, 64
1, 106768, Note_on_c, 0, 43, 72
1, 106770, Control_c, 0, 64, 65
1, 106770, Control_c, 0, 67, 61
1, 106785, Control_c, 0, 64, 67
1, 106785, Control_c, 0, 67, 59
1, 106800, Control_c, 0, 64, 72
1, 106800, Control_c, 0, 67, 56
1, 106815, Control_c, 0, 64, 82
1, 106815, Control_c, 0, 67, 55
1, 106815, Note_off_c, 0, 43, 63
1, 106817, Note_off_c, 0, 79, 65
1, 106830, Control_c, 0, 64, 100
1, 106830, Control_c, 0, 67, 54
1, 106843, Note_on_c, 0, 55, 54
1, 106844, Control_c, 0, 64, 127
1, 106844, Control_c, 0, 67, 52
1, 106856, Note_on_c, 0, 95, 70
1, 106859, Control_c, 0, 67, 48
1, 106869, Note_off_c, 0, 55, 57
1, 106874, Control_c, 0, 67, 42
1, 106889, Control_c, 0, 67, 37
1, 106889, Note_off_c, 0, 95, 61
1, 106904, Control_c, 0, 67, 37
1, 106919, Control_c, 0, 64, 96
1, 106919, Control_c, 0, 67, 38
1, 106934, Control_c, 0, 64, 70
1, 106934, Control_c, 0, 67, 39
1, 106949, Control_c, 0, 64, 31
1, 106952, Note_on_c, 0, 93, 71
1, 106962, Note_on_c, 0, 60, 69
1, 106964, Control_c, 0, 64, 0
1, 106969, Note_on_c, 0, 64, 55
1, 106975, Note_on_c, 0, 67, 47
1, 106985, Note_on_c, 0, 69, 34
1, 106989, Note_off_c, 0, 93, 58
1, 106990, Note_off_c, 0, 60, 64
1, 106993, Note_off_c, 0, 64, 38
1, 107003, Note_off_c, 0, 67, 37
1, 107008, Control_c, 0, 67, 39
1, 107019, Note_off_c, 0, 69, 33
1, 107033, Note_on_c, 0, 88, 81
1, 107052, Control_c, 0, 67, 38
1, 107067, Control_c, 0, 67, 36
1, 107077, Note_off_c, 0, 88, 67
1, 107082, Control_c, 0, 67, 31
1, 107097, Control_c, 0, 67, 19
1, 107112, Control_c, 0, 67, 0
1, 107125, Note_on_c, 0, 86, 82
1, 107149, Note_on_c, 0, 43, 72
1, 107178, Note_off_c, 0, 86, 66
1, 107200, Note_off_c, 0, 43, 65
1, 107212, Note_on_c, 0, 88, 77
1, 107226, Note_on_c, 0, 55, 64
1, 107236, Note_off_c, 0, 88, 71
1, 107247, Note_off_c, 0, 55, 62
1, 107310, Note_on_c, 0, 81, 86
1, 107318, Note_on_c, 0, 69, 85
1, 107322, Note_on_c, 0, 59, 76
1, 107325, Note_on_c, 0, 64, 67
1, 107334, Note_on_c, 0, 65, 57
1, 107339, Note_off_c, 0, 69, 71
1, 107342, Note_off_c, 0, 64, 67
1, 107354, Note_off_c, 0, 59, 69
1, 107357, Note_off_c, 0, 65, 37
1, 107372, Note_off_c, 0, 81, 65
1, 107389, Note_on_c, 0, 93, 84
1, 107426, Note_off_c, 0, 93, 62
1, 107492, Note_on_c, 0, 93, 95
1, 107515, Note_on_c, 0, 79, 96
1, 107529, Note_on_c, 0, 43, 81
1, 107533, Control_c, 0, 64, 66
1, 107548, Control_c, 0, 64, 127
1, 107559, Note_off_c, 0, 93, 65
1, 107582, Note_off_c, 0, 43, 65
1, 107624, Note_on_c, 0, 57, 39
1, 107635, Note_on_c, 0, 55, 35
1, 107652, Note_off_c, 0, 57, 56
1, 107656, Note_off_c, 0, 79, 63
1, 107672, Note_off_c, 0, 55, 43
1, 107682, Control_c, 0, 64, 91
1, 107697, Control_c, 0, 64, 62
1, 107712, Control_c, 0, 64, 0
1, 107726, Note_on_c, 0, 60, 71
1, 107726, Note_on_c, 0, 77, 80
1, 107732, Note_on_c, 0, 69, 64
1, 107735, Note_on_c, 0, 67, 65
1, 107737, Note_on_c, 0, 64, 51
1, 107751, Note_off_c, 0, 69, 66
1, 107754, Note_off_c, 0, 67, 64
1, 107754, Note_off_c, 0, 60, 64
1, 107762, Note_off_c, 0, 64, 37
1, 107769, Note_off_c, 0, 77, 57
1, 107808, Note_on_c, 0, 79, 79
1, 107840, Note_off_c, 0, 79, 65
1, 107889, Control_c, 0, 64, 53
1, 107895, Note_on_c, 0, 81, 58
1, 107904, Control_c, 0, 64, 82
1, 107911, Note_on_c, 0, 43, 79
1, 107919, Control_c, 0, 64, 110
1, 107934, Control_c, 0, 64, 116
1, 107948, Control_c, 0, 64, 99
1, 107963, Control_c, 0, 64, 71
1, 107964, Note_off_c, 0, 43, 64
1, 107965, Note_off_c, 0, 81, 65
1, 107978, Control_c, 0, 64, 51
1, 107980, Note_on_c, 0, 55, 73
1, 107992, Note_on_c, 0, 95, 74
1, 107993, Control_c, 0, 64, 0
1, 108010, Note_off_c, 0, 55, 66
1, 108031, Note_off_c, 0, 95, 54
1, 108076, Note_on_c, 0, 93, 81
1, 108085, Note_on_c, 0, 59, 74
1, 108088, Note_on_c, 0, 69, 79
1, 108095, Note_on_c, 0, 64, 57
1, 108100, Note_on_c, 0, 65, 59
1, 108110, Note_off_c, 0, 69, 70
1, 108115, Note_off_c, 0, 64, 62
1, 108119, Note_off_c, 0, 59, 66
1, 108121, Note_off_c, 0, 65, 60
1, 108130, Note_off_c, 0, 93, 64
1, 108168, Note_on_c, 0, 88, 89
1, 108212, Note_off_c, 0, 88, 67
1, 108267, Control_c, 0, 64, 16
1, 108273, Note_on_c, 0, 86, 90
1, 108282, Control_c, 0, 64, 82
1, 108284, Note_on_c, 0, 43, 75
1, 108296, Control_c, 0, 64, 127
1, 108331, Note_off_c, 0, 86, 66
1, 108338, Note_off_c, 0, 43, 64
1, 108349, Poly_aftertouch_c, 0, 48, 0
1, 108353, Note_on_c, 0, 55, 77
1, 108356, Note_on_c, 0, 88, 86
1, 108371, Control_c, 0, 64, 100
1, 108378, Note_off_c, 0, 55, 67
1, 108386, Control_c, 0, 64, 67
1, 108395, Note_off_c, 0, 88, 65
1, 108401, Control_c, 0, 64, 30
1, 108415, Control_c, 0, 64, 0
1, 108453, Note_on_c, 0, 67, 88
1, 108454, Note_on_c, 0, 81, 92
1, 108456, Note_on_c, 0, 69, 80
1, 108458, Note_on_c, 0, 60, 75
1, 108460, Note_on_c, 0, 64, 69
1, 108475, Note_off_c, 0, 67, 68
1, 108476, Note_off_c, 0, 64, 67
1, 108478, Note_off_c, 0, 69, 70
1, 108487, Note_off_c, 0, 60, 65
1, 108518, Note_off_c, 0, 81, 66
1, 108538, Note_on_c, 0, 93, 81
1, 108563, Note_off_c, 0, 93, 64
1, 108622, Note_on_c, 0, 93, 83
1, 108650, Note_on_c, 0, 79, 98
1, 108653, Control_c, 0, 64, 102
1, 108654, Note_on_c, 0, 43, 82
1, 108668, Control_c, 0, 64, 127
1, 108687, Note_off_c, 0, 93, 66
1, 108703, Note_off_c, 0, 43, 64
1, 108721, Note_on_c, 0, 55, 75
1, 108749, Note_off_c, 0, 55, 66
1, 108778, Note_off_c, 0, 79, 62
1, 108851, Note_on_c, 0, 77, 75
1, 108855, Note_on_c, 0, 69, 73
1, 108864, Note_on_c, 0, 65, 56
1, 108871, Note_on_c, 0, 60, 42
1, 108872, Note_on_c, 0, 64, 38
1, 108881, Note_off_c, 0, 69, 68
1, 108882, Note_on_c, 0, 59, 34
1, 108887, Note_off_c, 0, 65, 59
1, 108890, Control_c, 0, 64, 113
1, 108895, Note_off_c, 0, 77, 56
1, 108899, Note_off_c, 0, 60, 52
1, 108899, Note_off_c, 0, 64, 56
1, 108905, Control_c, 0, 64, 66
1, 108913, Note_off_c, 0, 59, 49
1, 108919, Control_c, 0, 64, 0
1, 108927, Note_on_c, 0, 79, 83
1, 108979, Note_off_c, 0, 79, 63
1, 109232, Note_on_c, 0, 72, 99
1, 109232, Note_on_c, 0, 84, 104
1, 109235, Note_on_c, 0, 81, 88
1, 109235, Note_on_c, 0, 76, 89
1, 109238, Control_c, 0, 64, 68
1, 109239, Note_on_c, 0, 40, 82
1, 109239, Note_on_c, 0, 79, 85
1, 109241, Note_on_c, 0, 43, 104
1, 109243, Note_on_c, 0, 31, 92
1, 109245, Note_on_c, 0, 36, 85
1, 109252, Note_on_c, 0, 33, 87
1, 109253, Control_c, 0, 64, 127
1, 109257, Note_on_c, 0, 39, 77
1, 109286, Note_off_c, 0, 39, 0
1, 109286, Note_on_c, 0, 39, 41
1, 109320, Note_off_c, 0, 72, 63
1, 109327, Note_off_c, 0, 31, 64
1, 109328, Note_off_c, 0, 84, 66
1, 109337, Note_off_c, 0, 76, 64
1, 109343, Note_off_c, 0, 39, 64
1, 109343, Note_off_c, 0, 43, 66
1, 109343, Note_off_c, 0, 33, 63
1, 109344, Note_off_c, 0, 79, 64
1, 109345, Note_off_c, 0, 81, 66
1, 109357, Note_off_c, 0, 40, 63
1, 109358, Note_off_c, 0, 36, 64
1, 109358, Control_c, 0, 64, 82
1, 109373, Control_c, 0, 64, 0
1, 109387, Control_c, 0, 64, 9
1, 109402, Control_c, 0, 64, 0
1, 109624, Control_c, 0, 64, 40
1, 109639, Control_c, 0, 64, 127
1, 109640, Note_on_c, 0, 72, 106
1, 109640, Note_on_c, 0, 84, 94
1, 109641, Note_on_c, 0, 76, 96
1, 109643, Note_on_c, 0, 40, 71
1, 109643, Note_on_c, 0, 43, 109
1, 109643, Note_on_c, 0, 81, 92
1, 109645, Note_on_c, 0, 31, 96
1, 109647, Note_on_c, 0, 79, 84
1, 109650, Note_on_c, 0, 36, 88
1, 109656, Note_on_c, 0, 33, 87
1, 109717, Note_off_c, 0, 84, 63
1, 109726, Note_off_c, 0, 31, 64
1, 109727, Note_off_c, 0, 72, 62
1, 109730, Note_off_c, 0, 43, 67
1, 109737, Note_off_c, 0, 33, 63
1, 109744, Note_off_c, 0, 76, 65
1, 109750, Note_off_c, 0, 79, 65
1, 109751, Note_off_c, 0, 36, 63
1, 109754, Note_off_c, 0, 40, 64
1, 109755, Note_off_c, 0, 81, 63
1, 109765, Control_c, 0, 64, 78
1, 109780, Control_c, 0, 64, 26
1, 109795, Control_c, 0, 64, 0
1, 110067, Note_on_c, 0, 84, 94
1, 110069, Note_on_c, 0, 72, 101
1, 110070, Note_on_c, 0, 76, 98
1, 110070, Note_on_c, 0, 36, 67
1, 110072, Note_on_c, 0, 81, 93
1, 110073, Note_on_c, 0, 40, 80
1, 110074, Note_on_c, 0, 43, 99
1, 110075, Note_on_c, 0, 79, 90
1, 110076, Note_on_c, 0, 31, 85
1, 110076, Control_c, 0, 64, 105
1, 110088, Note_on_c, 0, 33, 79
1, 110091, Control_c, 0, 64, 127
1, 110115, Note_off_c, 0, 33, 65
1, 110121, Note_off_c, 0, 31, 63
1, 110129, Note_off_c, 0, 72, 68
1, 110136, Note_off_c, 0, 36, 62
1, 110138, Note_off_c, 0, 84, 66
1, 110142, Note_off_c, 0, 76, 68
1, 110145, Note_off_c, 0, 40, 63
1, 110148, Note_off_c, 0, 43, 66
1, 110152, Note_off_c, 0, 79, 67
1, 110154, Note_off_c, 0, 81, 68
1, 110270, Note_on_c, 0, 43, 32
1, 110291, Note_off_c, 0, 43, 61
1, 110358, Control_c, 0, 64, 72
1, 110366, Note_on_c, 0, 43, 67
1, 110373, Control_c, 0, 64, 24
1, 110377, Note_on_c, 0, 86, 80
1, 110388, Control_c, 0, 64, 0
1, 110408, Note_off_c, 0, 43, 64
1, 110419, Note_on_c, 0, 55, 61
1, 110427, Note_off_c, 0, 86, 60
1, 110445, Note_off_c, 0, 55, 66
1, 110453, Note_on_c, 0, 88, 78
1, 110496, Note_off_c, 0, 88, 65
1, 110549, Note_on_c, 0, 60, 78
1, 110553, Note_on_c, 0, 69, 68
1, 110553, Note_on_c, 0, 84, 75
1, 110555, Note_on_c, 0, 67, 70
1, 110564, Note_on_c, 0, 64, 50
1, 110572, Note_off_c, 0, 67, 66
1, 110572, Note_off_c, 0, 69, 67
1, 110575, Note_off_c, 0, 60, 63
1, 110590, Note_off_c, 0, 64, 39
1, 110607, Note_off_c, 0, 84, 66
1, 110625, Note_on_c, 0, 96, 89
1, 110658, Note_off_c, 0, 96, 59
1, 110725, Note_on_c, 0, 96, 94
1, 110742, Note_on_c, 0, 83, 101
1, 110750, Control_c, 0, 64, 57
1, 110751, Note_on_c, 0, 43, 87
1, 110765, Control_c, 0, 64, 127
1, 110775, Note_on_c, 0, 94, 56
1, 110787, Note_on_c, 0, 50, 55
1, 110787, Note_off_c, 0, 96, 66
1, 110797, Note_off_c, 0, 94, 38
1, 110801, Note_off_c, 0, 43, 65
1, 110806, Note_on_c, 0, 55, 88
1, 110821, Note_off_c, 0, 50, 47
1, 110833, Note_off_c, 0, 55, 68
1, 110866, Note_off_c, 0, 83, 63
1, 110926, Note_on_c, 0, 81, 91
1, 110931, Note_on_c, 0, 64, 83
1, 110934, Note_on_c, 0, 59, 81
1, 110935, Note_on_c, 0, 65, 73
1, 110935, Note_on_c, 0, 69, 76
1, 110937, Note_on_c, 0, 67, 77
1, 110951, Note_off_c, 0, 69, 72
1, 110951, Note_off_c, 0, 65, 67
1, 110953, Note_off_c, 0, 67, 70
1, 110956, Note_off_c, 0, 64, 70
1, 110959, Control_c, 0, 64, 96
1, 110961, Note_off_c, 0, 59, 68
1, 110972, Note_off_c, 0, 81, 62
1, 110973, Control_c, 0, 64, 64
1, 110988, Control_c, 0, 64, 12
1, 111003, Control_c, 0, 64, 0
1, 111009, Note_on_c, 0, 83, 85
1, 111027, Note_on_c, 0, 84, 62
1, 111028, Note_off_c, 0, 84, 127
1, 111038, Note_off_c, 0, 83, 67
1, 111271, Note_on_c, 0, 84, 97
1, 111271, Note_on_c, 0, 81, 88
1, 111274, Note_on_c, 0, 77, 100
1, 111274, Note_on_c, 0, 74, 102
1, 111277, Note_on_c, 0, 72, 92
1, 111277, Control_c, 0, 64, 127
1, 111279, Note_on_c, 0, 43, 108
1, 111280, Note_on_c, 0, 31, 87
1, 111280, Note_on_c, 0, 35, 85
1, 111280, Note_on_c, 0, 38, 87
1, 111280, Note_on_c, 0, 41, 98
1, 111302, Note_on_c, 0, 33, 76
1, 111303, Note_on_c, 0, 80, 44
1, 111307, Note_on_c, 0, 76, 62
1, 111308, Note_off_c, 0, 76, 127
1, 111322, Note_off_c, 0, 80, 61
1, 111337, Poly_aftertouch_c, 0, 76, 0
1, 111338, Note_off_c, 0, 33, 63
1, 111339, Note_off_c, 0, 31, 64
1, 111341, Note_off_c, 0, 72, 67
1, 111352, Note_off_c, 0, 74, 69
1, 111352, Note_off_c, 0, 84, 67
1, 111361, Note_off_c, 0, 77, 69
1, 111367, Note_off_c, 0, 35, 64
1, 111369, Note_off_c, 0, 81, 67
1, 111371, Note_off_c, 0, 38, 63
1, 111373, Note_off_c, 0, 43, 66
1, 111381, Note_off_c, 0, 41, 64
1, 111653, Note_on_c, 0, 84, 94
1, 111662, Note_on_c, 0, 45, 72
1, 111681, Note_on_c, 0, 51, 55
1, 111693, Control_c, 0, 64, 95
1, 111701, Note_off_c, 0, 45, 65
1, 111708, Control_c, 0, 64, 74
1, 111719, Note_off_c, 0, 51, 63
1, 111721, Note_off_c, 0, 84, 65
1, 111722, Control_c, 0, 64, 56
1, 111737, Control_c, 0, 64, 0
1, 111738, Note_on_c, 0, 57, 46
1, 111742, Note_on_c, 0, 98, 90
1, 111772, Note_off_c, 0, 57, 50
1, 111793, Note_off_c, 0, 98, 62
1, 111827, Note_on_c, 0, 96, 93
1, 111838, Note_on_c, 0, 64, 78
1, 111841, Control_c, 0, 64, 17
1, 111849, Note_on_c, 0, 67, 82
1, 111852, Note_on_c, 0, 69, 79
1, 111855, Note_on_c, 0, 60, 65
1, 111856, Control_c, 0, 64, 41
1, 111857, Note_on_c, 0, 59, 59
1, 111871, Control_c, 0, 64, 64
1, 111871, Note_off_c, 0, 64, 67
1, 111876, Note_off_c, 0, 67, 67
1, 111876, Note_off_c, 0, 69, 69
1, 111879, Note_off_c, 0, 59, 64
1, 111885, Control_c, 0, 64, 83
1, 111886, Note_off_c, 0, 60, 64
1, 111900, Control_c, 0, 64, 108
1, 111915, Control_c, 0, 64, 107
1, 111920, Note_off_c, 0, 96, 44
1, 111924, Note_on_c, 0, 91, 90
1, 111930, Control_c, 0, 64, 84
1, 111945, Control_c, 0, 64, 62
1, 111960, Control_c, 0, 64, 0
1, 111987, Note_off_c, 0, 91, 64
1, 112032, Note_on_c, 0, 86, 85
1, 112055, Control_c, 0, 64, 39
1, 112059, Note_on_c, 0, 43, 76
1, 112070, Control_c, 0, 64, 61
1, 112085, Control_c, 0, 64, 64
1, 112100, Control_c, 0, 64, 62
1, 112108, Note_off_c, 0, 43, 64
1, 112111, Note_off_c, 0, 86, 60
1, 112112, Note_on_c, 0, 88, 92
1, 112115, Note_on_c, 0, 55, 83
1, 112115, Control_c, 0, 64, 51
1, 112130, Control_c, 0, 64, 0
1, 112140, Note_off_c, 0, 55, 67
1, 112161, Note_off_c, 0, 88, 67
1, 112206, Note_on_c, 0, 84, 88
1, 112218, Note_on_c, 0, 69, 103
1, 112219, Control_c, 0, 64, 43
1, 112219, Note_on_c, 0, 64, 93
1, 112220, Note_on_c, 0, 59, 90
1, 112227, Note_on_c, 0, 65, 79
1, 112234, Control_c, 0, 64, 80
1, 112241, Note_off_c, 0, 69, 70
1, 112243, Note_off_c, 0, 64, 68
1, 112248, Control_c, 0, 64, 127
1, 112250, Note_off_c, 0, 65, 68
1, 112251, Note_off_c, 0, 59, 67
1, 112296, Note_on_c, 0, 96, 99
1, 112329, Note_off_c, 0, 84, 67
1, 112330, Note_off_c, 0, 96, 66
1, 112352, Control_c, 0, 64, 117
1, 112367, Control_c, 0, 64, 69
1, 112382, Control_c, 0, 64, 23
1, 112389, Poly_aftertouch_c, 0, 65, 0
1, 112396, Control_c, 0, 64, 0
1, 112617, Note_on_c, 0, 84, 93
1, 112618, Note_on_c, 0, 77, 96
1, 112619, Note_on_c, 0, 72, 95
1, 112619, Note_on_c, 0, 81, 94
1, 112619, Control_c, 0, 64, 75
1, 112621, Note_on_c, 0, 74, 96
1, 112622, Note_on_c, 0, 40, 83
1, 112626, Note_on_c, 0, 36, 82
1, 112626, Note_on_c, 0, 43, 101
1, 112627, Note_on_c, 0, 31, 90
1, 112634, Control_c, 0, 64, 127
1, 112637, Note_on_c, 0, 33, 86
1, 112652, Note_on_c, 0, 80, 34
1, 112653, Note_off_c, 0, 80, 127
1, 112673, Note_on_c, 0, 39, 76
1, 112711, Note_off_c, 0, 84, 66
1, 112725, Note_off_c, 0, 72, 64
1, 112726, Note_off_c, 0, 31, 64
1, 112727, Note_off_c, 0, 39, 63
1, 112729, Note_off_c, 0, 33, 64
1, 112732, Note_off_c, 0, 74, 63
1, 112735, Note_off_c, 0, 77, 67
1, 112738, Note_off_c, 0, 81, 66
1, 112738, Note_off_c, 0, 43, 64
1, 112750, Note_off_c, 0, 36, 64
1, 112759, Note_off_c, 0, 40, 63
1, 112775, Control_c, 0, 64, 94
1, 112790, Control_c, 0, 64, 66
1, 112805, Control_c, 0, 64, 42
1, 112819, Control_c, 0, 64, 0
1, 112877, Note_on_c, 0, 31, 28
1, 112910, Note_off_c, 0, 31, 45
1, 113028, Note_on_c, 0, 39, 43
1, 113042, Control_c, 0, 64, 47
1, 113054, Note_on_c, 0, 77, 98
1, 113054, Note_on_c, 0, 84, 93
1, 113057, Note_on_c, 0, 72, 105
1, 113057, Control_c, 0, 64, 127
1, 113057, Note_on_c, 0, 81, 99
1, 113058, Note_on_c, 0, 74, 105
1, 113060, Note_on_c, 0, 40, 96
1, 113062, Note_on_c, 0, 43, 114
1, 113063, Note_on_c, 0, 31, 92
1, 113063, Note_on_c, 0, 36, 73
1, 113069, Note_on_c, 0, 33, 85
1, 113071, Note_off_c, 0, 39, 42
1, 113082, Note_on_c, 0, 80, 52
1, 113092, Note_off_c, 0, 80, 45
1, 113109, Note_on_c, 0, 39, 41
1, 113115, Note_off_c, 0, 72, 66
1, 113116, Note_off_c, 0, 31, 65
1, 113119, Note_off_c, 0, 33, 63
1, 113119, Note_off_c, 0, 74, 68
1, 113127, Note_off_c, 0, 77, 68
1, 113132, Note_off_c, 0, 36, 64
1, 113138, Note_off_c, 0, 84, 63
1, 113142, Note_off_c, 0, 43, 66
1, 113143, Note_off_c, 0, 40, 64
1, 113146, Note_off_c, 0, 81, 66
1, 113147, Note_off_c, 0, 39, 54
1, 113309, Control_c, 0, 64, 86
1, 113324, Control_c, 0, 64, 58
1, 113339, Control_c, 0, 64, 0
1, 113372, Note_on_c, 0, 86, 78
1, 113382, Note_on_c, 0, 43, 74
1, 113432, Note_off_c, 0, 43, 63
1, 113433, Note_off_c, 0, 86, 62
1, 113434, Note_on_c, 0, 55, 80
1, 113456, Note_on_c, 0, 88, 83
1, 113471, Note_off_c, 0, 55, 68
1, 113495, Control_c, 0, 64, 58
1, 113509, Control_c, 0, 64, 70
1, 113513, Note_off_c, 0, 88, 66
1, 113524, Control_c, 0, 64, 84
1, 113539, Control_c, 0, 64, 107
1, 113554, Control_c, 0, 64, 127
1, 113558, Note_on_c, 0, 84, 80
1, 113561, Note_on_c, 0, 64, 80
1, 113561, Note_on_c, 0, 59, 78
1, 113564, Note_on_c, 0, 69, 78
1, 113565, Note_on_c, 0, 65, 73
1, 113576, Note_on_c, 0, 67, 65
1, 113586, Note_off_c, 0, 64, 68
1, 113587, Note_off_c, 0, 69, 69
1, 113590, Note_off_c, 0, 65, 65
1, 113596, Note_off_c, 0, 67, 64
1, 113596, Note_off_c, 0, 59, 66
1, 113632, Note_off_c, 0, 84, 65
1, 113649, Note_on_c, 0, 96, 84
1, 113698, Note_off_c, 0, 96, 65
1, 113701, Control_c, 0, 64, 91
1, 113703, Poly_aftertouch_c, 0, 69, 127
1, 113716, Control_c, 0, 64, 64
1, 113725, Poly_aftertouch_c, 0, 69, 0
1, 113731, Control_c, 0, 64, 0
1, 113760, Note_on_c, 0, 86, 78
1, 113777, Note_on_c, 0, 43, 75
1, 113805, Control_c, 0, 64, 20
1, 113817, Note_off_c, 0, 86, 63
1, 113820, Control_c, 0, 64, 0
1, 113827, Note_off_c, 0, 43, 63
1, 113836, Note_on_c, 0, 55, 72
1, 113839, Note_on_c, 0, 88, 87
1, 113862, Note_off_c, 0, 55, 67
1, 113889, Note_off_c, 0, 88, 67
1, 113924, Control_c, 0, 64, 21
1, 113931, Note_on_c, 0, 84, 92
1, 113937, Note_on_c, 0, 69, 89
1, 113939, Note_on_c, 0, 67, 94
1, 113939, Control_c, 0, 64, 62
1, 113940, Note_on_c, 0, 60, 87
1, 113940, Note_on_c, 0, 64, 80
1, 113954, Control_c, 0, 64, 77
1, 113963, Note_off_c, 0, 64, 69
1, 113968, Control_c, 0, 64, 105
1, 113973, Note_off_c, 0, 60, 63
1, 113973, Note_off_c, 0, 67, 60
1, 113973, Note_off_c, 0, 69, 63
1, 113983, Control_c, 0, 64, 127
1, 114015, Note_off_c, 0, 84, 63
1, 114025, Note_on_c, 0, 96, 94
1, 114041, Note_on_c, 0, 64, 17
1, 114072, Note_off_c, 0, 64, 57
1, 114078, Note_off_c, 0, 96, 65
1, 114103, Control_c, 0, 64, 73
1, 114117, Control_c, 0, 64, 19
1, 114130, Note_on_c, 0, 86, 93
1, 114132, Control_c, 0, 64, 0
1, 114151, Note_on_c, 0, 43, 71
1, 114200, Note_off_c, 0, 43, 65
1, 114220, Note_on_c, 0, 55, 81
1, 114224, Note_on_c, 0, 98, 92
1, 114243, Note_off_c, 0, 55, 67
1, 114277, Note_off_c, 0, 98, 65
1, 114288, Control_c, 0, 64, 43
1, 114303, Control_c, 0, 64, 69
1, 114318, Control_c, 0, 64, 82
1, 114321, Note_on_c, 0, 96, 99
1, 114321, Note_on_c, 0, 64, 82
1, 114322, Note_on_c, 0, 67, 88
1, 114329, Note_on_c, 0, 60, 66
1, 114330, Note_on_c, 0, 69, 83
1, 114332, Control_c, 0, 64, 105
1, 114339, Note_on_c, 0, 59, 59
1, 114347, Note_off_c, 0, 64, 68
1, 114347, Control_c, 0, 64, 127
1, 114348, Note_off_c, 0, 69, 70
1, 114348, Note_off_c, 0, 67, 64
1, 114357, Note_off_c, 0, 60, 65
1, 114360, Note_off_c, 0, 59, 63
1, 114386, Note_off_c, 0, 96, 65
1, 114416, Note_on_c, 0, 91, 88
1, 114428, Note_off_c, 0, 86, 64
1, 114464, Note_off_c, 0, 91, 64
1, 114465, Control_c, 0, 64, 78
1, 114480, Control_c, 0, 64, 48
1, 114488, Poly_aftertouch_c, 0, 69, 0
1, 114495, Control_c, 0, 64, 0
1, 114513, Note_on_c, 0, 86, 86
1, 114521, Note_on_c, 0, 43, 72
1, 114575, Note_off_c, 0, 43, 64
1, 114584, Note_on_c, 0, 55, 80
1, 114589, Note_off_c, 0, 86, 63
1, 114589, Note_on_c, 0, 88, 90
1, 114609, Note_off_c, 0, 55, 67
1, 114636, Note_off_c, 0, 88, 67
1, 114687, Note_on_c, 0, 84, 93
1, 114688, Note_on_c, 0, 59, 89
1, 114688, Note_on_c, 0, 69, 94
1, 114690, Note_on_c, 0, 64, 80
1, 114695, Note_on_c, 0, 65, 75
1, 114702, Control_c, 0, 64, 48
1, 114714, Note_off_c, 0, 69, 68
1, 114716, Note_off_c, 0, 64, 70
1, 114717, Note_off_c, 0, 65, 68
1, 114717, Control_c, 0, 64, 127
1, 114717, Note_off_c, 0, 59, 70
1, 114777, Note_on_c, 0, 96, 96
1, 114792, Note_off_c, 0, 96, 76
1, 114798, Note_off_c, 0, 84, 65
1, 114850, Control_c, 0, 64, 91
1, 114865, Control_c, 0, 64, 61
1, 114880, Control_c, 0, 64, 0
1, 115105, Note_on_c, 0, 72, 108
1, 115107, Note_on_c, 0, 84, 90
1, 115108, Note_on_c, 0, 76, 100
1, 115110, Note_on_c, 0, 40, 61
1, 115111, Control_c, 0, 64, 127
1, 115111, Note_on_c, 0, 79, 84
1, 115111, Note_on_c, 0, 81, 88
1, 115114, Note_on_c, 0, 36, 80
1, 115116, Note_on_c, 0, 43, 107
1, 115118, Note_on_c, 0, 31, 95
1, 115126, Note_on_c, 0, 33, 83
1, 115150, Note_on_c, 0, 45, 31
1, 115151, Note_off_c, 0, 45, 127
1, 115174, Note_off_c, 0, 72, 67
1, 115176, Note_off_c, 0, 84, 68
1, 115179, Note_on_c, 0, 39, 59
1, 115185, Note_off_c, 0, 31, 64
1, 115188, Poly_aftertouch_c, 0, 45, 0
1, 115191, Note_off_c, 0, 43, 66
1, 115192, Note_off_c, 0, 76, 68
1, 115196, Note_off_c, 0, 81, 68
1, 115197, Note_off_c, 0, 33, 64
1, 115198, Note_off_c, 0, 79, 66
1, 115200, Control_c, 0, 64, 118
1, 115209, Note_off_c, 0, 39, 57
1, 115209, Note_off_c, 0, 36, 64
1, 115209, Note_off_c, 0, 40, 63
1, 115215, Control_c, 0, 64, 67
1, 115229, Control_c, 0, 64, 0
1, 115313, Note_on_c, 0, 39, 30
1, 115357, Note_off_c, 0, 39, 33
1, 115517, Note_on_c, 0, 72, 108
1, 115517, Note_on_c, 0, 77, 106
1, 115519, Note_on_c, 0, 84, 94
1, 115520, Note_on_c, 0, 81, 94
1, 115521, Note_on_c, 0, 31, 82
1, 115525, Note_on_c, 0, 38, 85
1, 115525, Control_c, 0, 64, 70
1, 115526, Note_on_c, 0, 35, 78
1, 115528, Note_on_c, 0, 41, 93
1, 115528, Note_on_c, 0, 43, 91
1, 115539, Note_on_c, 0, 74, 64
1, 115540, Control_c, 0, 64, 127
1, 115550, Note_off_c, 0, 31, 67
1, 115558, Note_off_c, 0, 35, 66
1, 115561, Note_off_c, 0, 74, 68
1, 115564, Note_off_c, 0, 72, 65
1, 115569, Note_off_c, 0, 41, 59
1, 115570, Note_off_c, 0, 38, 60
1, 115570, Note_off_c, 0, 77, 70
1, 115570, Note_off_c, 0, 84, 67
1, 115578, Note_off_c, 0, 81, 70
1, 115582, Note_off_c, 0, 43, 64
1, 115635, Poly_aftertouch_c, 0, 33, 0
1, 115741, Control_c, 0, 64, 90
1, 115741, Control_c, 0, 67, 8
1, 115753, Poly_aftertouch_c, 0, 49, 127
1, 115756, Control_c, 0, 64, 63
1, 115756, Control_c, 0, 67, 0
1, 115770, Control_c, 0, 64, 0
1, 115784, Poly_aftertouch_c, 0, 49, 0
1, 115815, Control_c, 0, 67, 9
1, 115830, Control_c, 0, 67, 11
1, 115844, Note_on_c, 0, 86, 72
1, 115844, Control_c, 0, 67, 13
1, 115853, Note_on_c, 0, 43, 61
1, 115859, Control_c, 0, 67, 15
1, 115874, Control_c, 0, 64, 25
1, 115874, Control_c, 0, 67, 17
1, 115889, Control_c, 0, 64, 57
1, 115889, Control_c, 0, 67, 20
1, 115894, Note_off_c, 0, 86, 62
1, 115896, Note_off_c, 0, 43, 65
1, 115904, Control_c, 0, 64, 63
1, 115904, Control_c, 0, 67, 25
1, 115908, Note_on_c, 0, 55, 71
1, 115919, Control_c, 0, 64, 64
1, 115919, Control_c, 0, 67, 29
1, 115934, Control_c, 0, 64, 66
1, 115934, Control_c, 0, 67, 30
1, 115935, Note_on_c, 0, 98, 56
1, 115937, Note_off_c, 0, 55, 66
1, 115948, Control_c, 0, 64, 69
1, 115948, Control_c, 0, 67, 29
1, 115963, Control_c, 0, 64, 73
1, 115963, Control_c, 0, 67, 29
1, 115978, Control_c, 0, 64, 77
1, 115984, Note_off_c, 0, 98, 50
1, 115993, Control_c, 0, 64, 81
1, 115993, Control_c, 0, 67, 28
1, 116008, Control_c, 0, 64, 83
1, 116008, Control_c, 0, 67, 29
1, 116030, Note_on_c, 0, 60, 76
1, 116035, Note_on_c, 0, 96, 59
1, 116037, Note_on_c, 0, 69, 63
1, 116041, Note_on_c, 0, 64, 50
1, 116043, Note_on_c, 0, 67, 55
1, 116053, Control_c, 0, 64, 82
1, 116055, Note_off_c, 0, 69, 66
1, 116056, Note_off_c, 0, 60, 64
1, 116065, Note_off_c, 0, 64, 61
1, 116067, Note_off_c, 0, 67, 58
1, 116068, Control_c, 0, 64, 75
1, 116083, Control_c, 0, 64, 60
1, 116083, Control_c, 0, 67, 29
1, 116096, Note_off_c, 0, 96, 60
1, 116097, Control_c, 0, 64, 0
1, 116112, Control_c, 0, 67, 29
1, 116117, Note_on_c, 0, 91, 71
1, 116127, Control_c, 0, 67, 28
1, 116142, Control_c, 0, 67, 28
1, 116157, Control_c, 0, 67, 27
1, 116162, Note_off_c, 0, 91, 63
1, 116186, Control_c, 0, 67, 27
1, 116215, Control_c, 0, 67, 26
1, 116222, Note_on_c, 0, 86, 72
1, 116226, Note_on_c, 0, 43, 72
1, 116230, Control_c, 0, 64, 32
1, 116230, Control_c, 0, 67, 25
1, 116245, Control_c, 0, 64, 54
1, 116260, Control_c, 0, 64, 62
1, 116260, Control_c, 0, 67, 25
1, 116267, Note_off_c, 0, 43, 65
1, 116275, Control_c, 0, 64, 68
1, 116287, Note_on_c, 0, 55, 71
1, 116289, Control_c, 0, 64, 81
1, 116289, Control_c, 0, 67, 24
1, 116290, Note_off_c, 0, 86, 64
1, 116303, Note_on_c, 0, 88, 72
1, 116304, Control_c, 0, 64, 104
1, 116304, Control_c, 0, 67, 24
1, 116313, Note_off_c, 0, 55, 66
1, 116319, Control_c, 0, 64, 127
1, 116345, Note_off_c, 0, 88, 62
1, 116363, Control_c, 0, 67, 23
1, 116378, Control_c, 0, 67, 23
1, 116404, Note_on_c, 0, 84, 85
1, 116407, Note_on_c, 0, 69, 82
1, 116409, Note_on_c, 0, 59, 77
1, 116416, Note_on_c, 0, 64, 64
1, 116422, Note_on_c, 0, 65, 59
1, 116430, Note_off_c, 0, 69, 70
1, 116434, Note_off_c, 0, 64, 66
1, 116443, Note_off_c, 0, 59, 66
1, 116443, Note_off_c, 0, 65, 60
1, 116452, Control_c, 0, 64, 114
1, 116473, Note_off_c, 0, 84, 64
1, 116475, Control_c, 0, 64, 81
1, 116490, Control_c, 0, 64, 62
1, 116490, Control_c, 0, 67, 23
1, 116495, Note_on_c, 0, 96, 88
1, 116506, Control_c, 0, 64, 0
1, 116535, Control_c, 0, 67, 23
1, 116540, Note_off_c, 0, 96, 66
1, 116565, Control_c, 0, 67, 22
1, 116580, Control_c, 0, 67, 22
1, 116594, Control_c, 0, 67, 20
1, 116604, Note_on_c, 0, 86, 90
1, 116609, Control_c, 0, 67, 19
1, 116624, Control_c, 0, 64, 31
1, 116624, Control_c, 0, 67, 17
1, 116626, Note_on_c, 0, 43, 76
1, 116638, Control_c, 0, 64, 68
1, 116638, Control_c, 0, 67, 14
1, 116653, Control_c, 0, 64, 84
1, 116653, Control_c, 0, 67, 10
1, 116668, Control_c, 0, 64, 120
1, 116668, Control_c, 0, 67, 0
1, 116674, Note_off_c, 0, 43, 64
1, 116683, Control_c, 0, 64, 127
1, 116688, Note_on_c, 0, 55, 75
1, 116694, Note_on_c, 0, 98, 89
1, 116711, Note_off_c, 0, 55, 68
1, 116750, Note_off_c, 0, 98, 65
1, 116795, Note_on_c, 0, 60, 84
1, 116795, Note_on_c, 0, 67, 89
1, 116795, Note_on_c, 0, 96, 97
1, 116796, Note_on_c, 0, 69, 85
1, 116803, Note_on_c, 0, 64, 70
1, 116819, Note_off_c, 0, 69, 71
1, 116821, Note_off_c, 0, 64, 66
1, 116825, Note_off_c, 0, 67, 62
1, 116826, Note_off_c, 0, 60, 62
1, 116857, Note_off_c, 0, 96, 66
1, 116885, Note_off_c, 0, 86, 55
1, 116894, Note_on_c, 0, 91, 88
1, 116905, Control_c, 0, 64, 88
1, 116919, Control_c, 0, 64, 57
1, 116934, Control_c, 0, 64, 0
1, 116939, Poly_aftertouch_c, 0, 69, 0
1, 116944, Note_off_c, 0, 91, 64
1, 116990, Note_on_c, 0, 86, 90
1, 116995, Note_on_c, 0, 43, 75
1, 117008, Control_c, 0, 64, 60
1, 117023, Control_c, 0, 64, 107
1, 117037, Control_c, 0, 64, 127
1, 117048, Note_off_c, 0, 43, 65
1, 117060, Note_on_c, 0, 55, 83
1, 117064, Note_off_c, 0, 86, 55
1, 117074, Note_on_c, 0, 88, 93
1, 117083, Note_off_c, 0, 55, 67
1, 117123, Note_off_c, 0, 88, 68
1, 117169, Note_on_c, 0, 84, 100
1, 117173, Note_on_c, 0, 69, 86
1, 117174, Note_on_c, 0, 59, 84
1, 117177, Note_on_c, 0, 64, 73
1, 117180, Note_on_c, 0, 65, 73
1, 117194, Note_off_c, 0, 64, 68
1, 117194, Note_off_c, 0, 69, 69
1, 117196, Note_off_c, 0, 65, 66
1, 117201, Note_off_c, 0, 59, 68
1, 117250, Note_off_c, 0, 84, 66
1, 117266, Note_on_c, 0, 96, 93
1, 117281, Note_on_c, 0, 69, 17
1, 117312, Note_on_c, 0, 95, 19
1, 117313, Note_off_c, 0, 95, 127
1, 117314, Note_off_c, 0, 96, 66
1, 117323, Note_off_c, 0, 69, 55
1, 117328, Control_c, 0, 64, 92
1, 117342, Control_c, 0, 64, 53
1, 117357, Control_c, 0, 64, 0
1, 117362, Note_on_c, 0, 86, 100
1, 117388, Note_on_c, 0, 43, 77
1, 117402, Control_c, 0, 64, 61
1, 117416, Control_c, 0, 64, 83
1, 117431, Control_c, 0, 64, 127
1, 117442, Note_off_c, 0, 43, 65
1, 117451, Note_on_c, 0, 55, 80
1, 117454, Note_on_c, 0, 98, 97
1, 117473, Note_off_c, 0, 55, 67
1, 117515, Note_off_c, 0, 98, 64
1, 117552, Note_on_c, 0, 96, 104
1, 117554, Note_on_c, 0, 60, 81
1, 117554, Note_on_c, 0, 64, 76
1, 117554, Note_on_c, 0, 67, 86
1, 117555, Note_on_c, 0, 69, 82
1, 117578, Note_off_c, 0, 69, 70
1, 117580, Note_off_c, 0, 67, 67
1, 117582, Note_off_c, 0, 64, 67
1, 117588, Note_off_c, 0, 60, 61
1, 117611, Note_off_c, 0, 86, 61
1, 117621, Note_off_c, 0, 96, 65
1, 117648, Note_on_c, 0, 91, 99
1, 117698, Control_c, 0, 64, 109
1, 117699, Note_off_c, 0, 91, 66
1, 117713, Control_c, 0, 64, 60
1, 117728, Control_c, 0, 64, 0
1, 117739, Note_on_c, 0, 86, 95
1, 117742, Control_c, 0, 64, 12
1, 117754, Note_on_c, 0, 43, 81
1, 117757, Control_c, 0, 64, 54
1, 117762, Note_on_c, 0, 49, 2
1, 117772, Control_c, 0, 64, 81
1, 117787, Control_c, 0, 64, 127
1, 117801, Note_off_c, 0, 49, 49
1, 117807, Note_off_c, 0, 86, 55
1, 117810, Note_off_c, 0, 43, 65
1, 117820, Note_on_c, 0, 55, 76
1, 117825, Note_on_c, 0, 88, 95
1, 117844, Note_off_c, 0, 55, 67
1, 117877, Note_off_c, 0, 88, 68
1, 117919, Note_on_c, 0, 69, 94
1, 117921, Note_on_c, 0, 84, 100
1, 117923, Note_on_c, 0, 59, 82
1, 117925, Note_on_c, 0, 64, 76
1, 117929, Note_on_c, 0, 65, 79
1, 117943, Note_off_c, 0, 69, 65
1, 117946, Note_off_c, 0, 65, 67
1, 117946, Note_off_c, 0, 64, 68
1, 117969, Note_off_c, 0, 59, 65
1, 117998, Note_off_c, 0, 84, 66
1, 118016, Note_on_c, 0, 96, 99
1, 118036, Note_on_c, 0, 64, 17
1, 118070, Note_off_c, 0, 96, 66
1, 118079, Note_off_c, 0, 64, 53
1, 118113, Note_on_c, 0, 86, 103
1, 118129, Note_on_c, 0, 43, 82
1, 118176, Note_off_c, 0, 86, 62
1, 118188, Note_off_c, 0, 43, 64
1, 118197, Note_on_c, 0, 55, 80
1, 118201, Note_on_c, 0, 88, 97
1, 118218, Note_off_c, 0, 55, 69
1, 118243, Poly_aftertouch_c, 0, 50, 0
1, 118256, Note_off_c, 0, 88, 68
1, 118296, Note_on_c, 0, 84, 104
1, 118299, Note_on_c, 0, 69, 91
1, 118300, Note_on_c, 0, 65, 81
1, 118305, Note_on_c, 0, 64, 74
1, 118306, Note_on_c, 0, 59, 66
1, 118318, Note_off_c, 0, 69, 71
1, 118322, Note_off_c, 0, 65, 67
1, 118327, Note_off_c, 0, 64, 68
1, 118334, Note_on_c, 0, 60, 46
1, 118336, Note_off_c, 0, 59, 67
1, 118360, Note_off_c, 0, 60, 56
1, 118367, Note_off_c, 0, 84, 66
1, 118384, Note_on_c, 0, 96, 106
1, 118442, Note_off_c, 0, 96, 67
1, 118463, Poly_aftertouch_c, 0, 65, 0
1, 118476, Note_on_c, 0, 86, 108
1, 118500, Note_on_c, 0, 41, 73
1, 118504, Note_on_c, 0, 43, 71
1, 118506, Note_on_c, 0, 49, 43
1, 118533, Note_off_c, 0, 41, 64
1, 118541, Note_off_c, 0, 49, 46
1, 118548, Note_off_c, 0, 43, 62
1, 118560, Note_on_c, 0, 55, 81
1, 118561, Note_on_c, 0, 88, 98
1, 118573, Note_off_c, 0, 86, 62
1, 118581, Note_off_c, 0, 55, 68
1, 118625, Note_off_c, 0, 88, 67
1, 118656, Note_on_c, 0, 84, 98
1, 118659, Note_on_c, 0, 69, 98
1, 118661, Note_on_c, 0, 64, 85
1, 118664, Note_on_c, 0, 59, 82
1, 118665, Note_on_c, 0, 65, 80
1, 118682, Note_off_c, 0, 69, 66
1, 118685, Note_off_c, 0, 64, 69
1, 118688, Note_off_c, 0, 65, 69
1, 118689, Note_off_c, 0, 59, 70
1, 118691, Note_on_c, 0, 62, 48
1, 118726, Note_off_c, 0, 62, 59
1, 118749, Note_on_c, 0, 96, 106
1, 118778, Note_off_c, 0, 84, 68
1, 118782, Note_off_c, 0, 96, 69
1, 118795, Control_c, 0, 64, 75
1, 118810, Control_c, 0, 64, 0
1, 118819, Poly_aftertouch_c, 0, 59, 0
1, 118824, Control_c, 0, 64, 23
1, 118839, Control_c, 0, 64, 0
1, 119052, Note_on_c, 0, 72, 109
1, 119052, Note_on_c, 0, 76, 97
1, 119054, Note_on_c, 0, 84, 97
1, 119056, Note_on_c, 0, 45, 96
1, 119056, Note_on_c, 0, 48, 104
1, 119056, Note_on_c, 0, 50, 100
1, 119056, Note_on_c, 0, 79, 90
1, 119057, Note_on_c, 0, 81, 92
1, 119060, Note_on_c, 0, 38, 86
1, 119060, Note_on_c, 0, 40, 85
1, 119062, Control_c, 0, 64, 127
1, 119099, Note_on_c, 0, 41, 39
1, 119126, Note_off_c, 0, 50, 65
1, 119130, Note_off_c, 0, 84, 65
1, 119135, Note_off_c, 0, 48, 66
1, 119138, Note_off_c, 0, 41, 49
1, 119139, Note_off_c, 0, 72, 63
1, 119144, Note_off_c, 0, 45, 67
1, 119147, Note_off_c, 0, 76, 66
1, 119147, Note_off_c, 0, 79, 64
1, 119152, Note_off_c, 0, 81, 65
1, 119153, Note_off_c, 0, 38, 63
1, 119162, Note_off_c, 0, 40, 64
1, 119359, Control_c, 0, 64, 67
1, 119373, Control_c, 0, 64, 0
1, 119388, Control_c, 0, 64, 21
1, 119390, Note_on_c, 0, 74, 84
1, 119391, Note_on_c, 0, 43, 94
1, 119392, Note_on_c, 0, 35, 91
1, 119394, Note_on_c, 0, 71, 94
1, 119394, Note_on_c, 0, 84, 94
1, 119394, Note_on_c, 0, 81, 86
1, 119399, Note_on_c, 0, 31, 87
1, 119400, Note_on_c, 0, 36, 73
1, 119400, Note_on_c, 0, 79, 80
1, 119403, Control_c, 0, 64, 0
1, 119406, Note_on_c, 0, 38, 83
1, 119409, Note_on_c, 0, 80, 70
1, 119424, Note_on_c, 0, 83, 53
1, 119428, Note_on_c, 0, 78, 38
1, 119428, Note_off_c, 0, 31, 65
1, 119428, Note_off_c, 0, 80, 60
1, 119429, Note_off_c, 0, 36, 66
1, 119430, Note_off_c, 0, 38, 66
1, 119433, Note_off_c, 0, 78, 41
1, 119439, Note_off_c, 0, 74, 66
1, 119439, Note_off_c, 0, 79, 63
1, 119440, Note_off_c, 0, 35, 63
1, 119443, Note_off_c, 0, 43, 66
1, 119444, Note_off_c, 0, 81, 62
1, 119449, Note_off_c, 0, 71, 63
1, 119449, Note_off_c, 0, 83, 37
1, 119466, Note_off_c, 0, 84, 65
1, 119524, Note_on_c, 0, 80, 54
1, 119553, Note_off_c, 0, 80, 53
1, 119639, Note_on_c, 0, 48, 105
1, 119641, Note_on_c, 0, 76, 97
1, 119645, Note_on_c, 0, 40, 95
1, 119645, Note_on_c, 0, 72, 102
1, 119645, Note_on_c, 0, 84, 99
1, 119645, Note_on_c, 0, 81, 87
1, 119646, Note_on_c, 0, 43, 93
1, 119647, Note_on_c, 0, 36, 97
1, 119647, Control_c, 0, 64, 82
1, 119651, Note_on_c, 0, 79, 85
1, 119662, Control_c, 0, 64, 127
1, 119684, Note_on_c, 0, 78, 43
1, 119685, Note_off_c, 0, 78, 127
1, 119706, Note_off_c, 0, 36, 65
1, 119711, Note_off_c, 0, 43, 63
1, 119713, Note_off_c, 0, 84, 67
1, 119716, Note_off_c, 0, 48, 68
1, 119717, Note_off_c, 0, 72, 65
1, 119718, Note_off_c, 0, 40, 64
1, 119719, Note_off_c, 0, 79, 65
1, 119719, Note_off_c, 0, 76, 65
1, 119722, Note_off_c, 0, 81, 67
1, 119742, Poly_aftertouch_c, 0, 78, 0
1, 120047, Control_c, 0, 64, 87
1, 120062, Control_c, 0, 64, 43
1, 120077, Control_c, 0, 64, 0
1, 120451, Note_on_c, 0, 42, 107
1, 120453, Note_on_c, 0, 30, 90
1, 120469, Control_c, 0, 64, 127
1, 120481, Note_off_c, 0, 30, 68
1, 120491, Note_on_c, 0, 32, 37
1, 120492, Note_off_c, 0, 32, 127
1, 120509, Note_off_c, 0, 42, 66
1, 120533, Poly_aftertouch_c, 0, 32, 0
1, 120535, Note_on_c, 0, 36, 1
1, 120542, Note_off_c, 0, 36, 0
1, 120576, Poly_aftertouch_c, 0, 36, 0
1, 120766, Note_on_c, 0, 96, 110
1, 120766, Note_on_c, 0, 103, 101
1, 120770, Note_on_c, 0, 91, 103
1, 120772, Note_on_c, 0, 60, 87
1, 120813, Note_off_c, 0, 60, 62
1, 120846, Note_off_c, 0, 103, 67
1, 120861, Note_off_c, 0, 96, 67
1, 120868, Note_off_c, 0, 91, 64
1, 121029, Note_on_c, 0, 96, 108
1, 121032, Note_on_c, 0, 84, 106
1, 121034, Note_on_c, 0, 67, 87
1, 121043, Note_on_c, 0, 60, 79
1, 121070, Note_off_c, 0, 84, 68
1, 121079, Note_off_c, 0, 96, 64
1, 121099, Note_off_c, 0, 67, 62
1, 121116, Note_off_c, 0, 60, 57
1, 121193, Note_on_c, 0, 67, 74
1, 121200, Note_on_c, 0, 103, 106
1, 121201, Note_on_c, 0, 91, 106
1, 121202, Note_on_c, 0, 60, 49
1, 121204, Note_on_c, 0, 72, 77
1, 121230, Note_off_c, 0, 91, 69
1, 121233, Note_off_c, 0, 103, 68
1, 121236, Note_off_c, 0, 60, 47
1, 121237, Note_off_c, 0, 67, 64
1, 121245, Note_off_c, 0, 72, 61
1, 121349, Note_on_c, 0, 102, 91
1, 121350, Note_on_c, 0, 66, 84
1, 121351, Note_on_c, 0, 90, 92
1, 121359, Note_on_c, 0, 78, 62
1, 121369, Note_off_c, 0, 90, 72
1, 121375, Note_off_c, 0, 102, 66
1, 121377, Note_off_c, 0, 78, 64
1, 121377, Note_off_c, 0, 66, 65
1, 121435, Note_on_c, 0, 100, 95
1, 121437, Note_on_c, 0, 76, 86
1, 121437, Note_on_c, 0, 88, 93
1, 121445, Note_on_c, 0, 99, 68
1, 121451, Note_on_c, 0, 64, 61
1, 121454, Note_off_c, 0, 100, 73
1, 121457, Note_off_c, 0, 88, 74
1, 121458, Note_off_c, 0, 76, 70
1, 121461, Note_off_c, 0, 99, 68
1, 121472, Note_off_c, 0, 64, 63
1, 121515, Note_on_c, 0, 99, 104
1, 121517, Note_on_c, 0, 87, 104
1, 121522, Note_on_c, 0, 75, 87
1, 121529, Note_on_c, 0, 63, 81
1, 121534, Note_off_c, 0, 87, 74
1, 121538, Note_on_c, 0, 76, 8
1, 121552, Note_off_c, 0, 99, 66
1, 121582, Note_off_c, 0, 75, 61
1, 121588, Note_off_c, 0, 76, 34
1, 121907, Control_c, 0, 64, 89
1, 121922, Control_c, 0, 64, 73
1, 121937, Control_c, 0, 64, 63
1, 121952, Control_c, 0, 64, 56
1, 121967, Control_c, 0, 64, 48
1, 121982, Control_c, 0, 64, 34
1, 121997, Control_c, 0, 64, 12
1, 122012, Control_c, 0, 64, 0
1, 122538, Control_c, 0, 64, 25
1, 122553, Control_c, 0, 64, 31
1, 122568, Control_c, 0, 64, 36
1, 122583, Control_c, 0, 64, 43
1, 122598, Control_c, 0, 64, 52
1, 122612, Control_c, 0, 64, 57
1, 122627, Control_c, 0, 64, 59
1, 122642, Control_c, 0, 64, 63
1, 122656, Control_c, 0, 64, 66
1, 122671, Control_c, 0, 64, 71
1, 122686, Control_c, 0, 64, 76
1, 122701, Control_c, 0, 64, 79
1, 122716, Control_c, 0, 64, 82
1, 122730, Control_c, 0, 64, 88
1, 122745, Control_c, 0, 64, 94
1, 122760, Control_c, 0, 64, 97
1, 122775, Control_c, 0, 64, 101
1, 122790, Control_c, 0, 64, 113
1, 122805, Control_c, 0, 64, 127
1, 125170, Control_c, 0, 67, 8
1, 125185, Control_c, 0, 67, 8
1, 125214, Control_c, 0, 67, 9
1, 125229, Control_c, 0, 67, 9
1, 125244, Control_c, 0, 67, 11
1, 125319, Control_c, 0, 67, 12
1, 125334, Control_c, 0, 67, 13
1, 125348, Control_c, 0, 67, 15
1, 125363, Control_c, 0, 67, 15
1, 125373, Note_off_c, 0, 63, 40
1, 125378, Control_c, 0, 67, 16
1, 125393, Control_c, 0, 67, 17
1, 125422, Control_c, 0, 67, 17
1, 125437, Control_c, 0, 67, 18
1, 125460, Control_c, 0, 67, 19
1, 125475, Control_c, 0, 67, 22
1, 125489, Control_c, 0, 67, 25
1, 125504, Control_c, 0, 67, 27
1, 125519, Control_c, 0, 67, 29
1, 125534, Control_c, 0, 67, 32
1, 125549, Control_c, 0, 67, 34
1, 125563, Control_c, 0, 67, 35
1, 125578, Control_c, 0, 67, 37
1, 125593, Control_c, 0, 67, 39
1, 125608, Control_c, 0, 67, 41
1, 125623, Control_c, 0, 67, 44
1, 125637, Control_c, 0, 67, 46
1, 125652, Control_c, 0, 67, 47
1, 125667, Control_c, 0, 67, 48
1, 125681, Control_c, 0, 67, 48
1, 125696, Control_c, 0, 67, 50
1, 125711, Control_c, 0, 67, 52
1, 125726, Control_c, 0, 67, 53
1, 125741, Control_c, 0, 67, 54
1, 125756, Control_c, 0, 67, 54
1, 125771, Control_c, 0, 67, 55
1, 125785, Control_c, 0, 64, 114
1, 125785, Control_c, 0, 67, 55
1, 125800, Control_c, 0, 64, 109
1, 125815, Control_c, 0, 64, 107
1, 125815, Control_c, 0, 67, 57
1, 125830, Control_c, 0, 64, 105
1, 125830, Control_c, 0, 67, 59
1, 125845, Control_c, 0, 64, 101
1, 125845, Control_c, 0, 67, 61
1, 125860, Control_c, 0, 64, 96
1, 125860, Control_c, 0, 67, 63
1, 125874, Control_c, 0, 64, 89
1, 125874, Control_c, 0, 67, 64
1, 125889, Control_c, 0, 64, 81
1, 125889, Control_c, 0, 67, 65
1, 125904, Control_c, 0, 64, 73
1, 125904, Control_c, 0, 67, 66
1, 125919, Control_c, 0, 64, 64
1, 125919, Control_c, 0, 67, 67
1, 125934, Control_c, 0, 64, 51
1, 125934, Control_c, 0, 67, 69
1, 125949, Control_c, 0, 64, 26
1, 125949, Control_c, 0, 67, 71
1, 125949, Note_on_c, 0, 78, 63
1, 125963, Control_c, 0, 64, 0
1, 125963, Control_c, 0, 67, 72
1, 125973, Note_on_c, 0, 68, 35
1, 125974, Note_on_c, 0, 71, 36
1, 125978, Control_c, 0, 67, 73
1, 125979, Note_on_c, 0, 62, 41
1, 125993, Control_c, 0, 64, 17
1, 125993, Control_c, 0, 67, 75
1, 126007, Control_c, 0, 64, 34
1, 126007, Control_c, 0, 67, 78
1, 126022, Control_c, 0, 64, 47
1, 126022, Control_c, 0, 67, 81
1, 126037, Control_c, 0, 64, 56
1, 126037, Control_c, 0, 67, 83
1, 126052, Control_c, 0, 64, 62
1, 126052, Control_c, 0, 67, 85
1, 126067, Control_c, 0, 64, 64
1, 126067, Control_c, 0, 67, 87
1, 126083, Control_c, 0, 64, 65
1, 126083, Control_c, 0, 67, 89
1, 126097, Control_c, 0, 64, 67
1, 126097, Control_c, 0, 67, 91
1, 126101, Note_off_c, 0, 68, 44
1, 126112, Note_off_c, 0, 71, 45
1, 126112, Control_c, 0, 64, 69
1, 126112, Control_c, 0, 67, 93
1, 126124, Note_off_c, 0, 62, 58
1, 126126, Note_on_c, 0, 77, 73
1, 126127, Control_c, 0, 64, 71
1, 126127, Control_c, 0, 67, 94
1, 126142, Control_c, 0, 64, 72
1, 126142, Control_c, 0, 67, 95
1, 126157, Control_c, 0, 64, 73
1, 126157, Control_c, 0, 67, 97
1, 126171, Control_c, 0, 64, 73
1, 126171, Control_c, 0, 67, 99
1, 126186, Control_c, 0, 67, 101
1, 126209, Control_c, 0, 67, 103
1, 126222, Note_off_c, 0, 77, 65
1, 126224, Control_c, 0, 67, 104
1, 126226, Note_on_c, 0, 76, 72
1, 126239, Control_c, 0, 67, 106
1, 126251, Note_off_c, 0, 78, 33
1, 126253, Control_c, 0, 64, 72
1, 126253, Control_c, 0, 67, 108
1, 126268, Control_c, 0, 64, 69
1, 126268, Control_c, 0, 67, 110
1, 126283, Control_c, 0, 64, 64
1, 126283, Control_c, 0, 67, 112
1, 126298, Note_off_c, 0, 76, 62
1, 126298, Control_c, 0, 64, 55
1, 126298, Control_c, 0, 67, 113
1, 126312, Control_c, 0, 64, 40
1, 126312, Control_c, 0, 67, 114
1, 126327, Control_c, 0, 64, 9
1, 126327, Control_c, 0, 67, 114
1, 126336, Note_on_c, 0, 75, 59
1, 126342, Control_c, 0, 64, 0
1, 126342, Control_c, 0, 67, 116
1, 126346, Note_on_c, 0, 73, 48
1, 126357, Control_c, 0, 67, 117
1, 126360, Note_on_c, 0, 63, 39
1, 126360, Note_on_c, 0, 69, 40
1, 126372, Control_c, 0, 67, 117
1, 126386, Control_c, 0, 67, 118
1, 126401, Control_c, 0, 67, 118
1, 126416, Control_c, 0, 67, 119
1, 126430, Control_c, 0, 67, 120
1, 126445, Control_c, 0, 67, 120
1, 126504, Control_c, 0, 67, 121
1, 126520, Control_c, 0, 67, 121
1, 126535, Control_c, 0, 67, 122
1, 126609, Control_c, 0, 67, 122
1, 126623, Control_c, 0, 67, 123
1, 126712, Control_c, 0, 67, 122
1, 126727, Control_c, 0, 67, 122
1, 126742, Control_c, 0, 67, 121
1, 126772, Control_c, 0, 67, 120
1, 126787, Control_c, 0, 64, 21
1, 126787, Control_c, 0, 67, 119
1, 126802, Control_c, 0, 64, 33
1, 126802, Control_c, 0, 67, 118
1, 126817, Control_c, 0, 64, 42
1, 126817, Control_c, 0, 67, 118
1, 126831, Control_c, 0, 64, 46
1, 126846, Control_c, 0, 64, 49
1, 126861, Control_c, 0, 64, 52
1, 126876, Control_c, 0, 64, 56
1, 126876, Control_c, 0, 67, 117
1, 126891, Control_c, 0, 64, 58
1, 126891, Control_c, 0, 67, 116
1, 126906, Control_c, 0, 64, 60
1, 126921, Control_c, 0, 64, 61
1, 126936, Control_c, 0, 64, 62
1, 126958, Control_c, 0, 64, 63
1, 126958, Control_c, 0, 67, 116
1, 126973, Control_c, 0, 64, 63
1, 126988, Control_c, 0, 64, 64
1, 126988, Control_c, 0, 67, 115
1, 127002, Control_c, 0, 64, 65
1, 127017, Control_c, 0, 67, 116
1, 127032, Control_c, 0, 64, 65
1, 127046, Note_off_c, 0, 75, 42
1, 127076, Control_c, 0, 67, 116
1, 127091, Control_c, 0, 67, 117
1, 127106, Control_c, 0, 64, 65
1, 127106, Control_c, 0, 67, 117
1, 127121, Control_c, 0, 64, 64
1, 127136, Control_c, 0, 64, 64
1, 127151, Control_c, 0, 64, 62
1, 127166, Control_c, 0, 64, 59
1, 127180, Control_c, 0, 64, 57
1, 127195, Control_c, 0, 64, 56
1, 127210, Control_c, 0, 64, 55
1, 127225, Control_c, 0, 64, 53
1, 127240, Control_c, 0, 64, 48
1, 127254, Control_c, 0, 64, 39
1, 127254, Control_c, 0, 67, 118
1, 127268, Control_c, 0, 64, 32
1, 127283, Control_c, 0, 64, 25
1, 127298, Control_c, 0, 64, 19
1, 127313, Control_c, 0, 64, 0
1, 127313, Control_c, 0, 67, 118
1, 127579, Control_c, 0, 67, 119
1, 127624, Control_c, 0, 67, 118
1, 127958, Control_c, 0, 67, 118
1, 128032, Control_c, 0, 67, 117
1, 128047, Control_c, 0, 67, 117
1, 128062, Control_c, 0, 64, 14
1, 128076, Control_c, 0, 64, 30
1, 128091, Control_c, 0, 64, 40
1, 128106, Control_c, 0, 64, 45
1, 128106, Control_c, 0, 67, 116
1, 128121, Control_c, 0, 64, 49
1, 128136, Control_c, 0, 64, 53
1, 128150, Control_c, 0, 64, 56
1, 128165, Control_c, 0, 64, 58
1, 128180, Control_c, 0, 64, 60
1, 128180, Control_c, 0, 67, 116
1, 128194, Control_c, 0, 64, 62
1, 128209, Control_c, 0, 64, 63
1, 128224, Note_off_c, 0, 63, 34
1, 128224, Control_c, 0, 64, 64
1, 128232, Note_off_c, 0, 69, 44
1, 128239, Control_c, 0, 64, 65
1, 128254, Control_c, 0, 64, 66
1, 128269, Note_off_c, 0, 73, 41
1, 128269, Control_c, 0, 64, 67
1, 128328, Control_c, 0, 67, 116
1, 128402, Control_c, 0, 67, 117
1, 128417, Control_c, 0, 64, 66
1, 128432, Control_c, 0, 64, 65
1, 128454, Control_c, 0, 64, 64
1, 128470, Control_c, 0, 64, 63
1, 128485, Control_c, 0, 64, 61
1, 128485, Control_c, 0, 67, 117
1, 128499, Control_c, 0, 64, 58
1, 128499, Control_c, 0, 67, 118
1, 128514, Control_c, 0, 64, 54
1, 128529, Control_c, 0, 64, 51
1, 128544, Control_c, 0, 64, 49
1, 128559, Control_c, 0, 64, 48
1, 128573, Control_c, 0, 64, 48
1, 128588, Control_c, 0, 64, 47
1, 128588, Control_c, 0, 67, 118
1, 128603, Control_c, 0, 64, 46
1, 128632, Control_c, 0, 64, 45
1, 128662, Control_c, 0, 64, 44
1, 128677, Control_c, 0, 64, 42
1, 128692, Control_c, 0, 64, 41
1, 128707, Control_c, 0, 64, 40
1, 128722, Control_c, 0, 64, 39
1, 128737, Control_c, 0, 64, 37
1, 128751, Control_c, 0, 64, 35
1, 128766, Control_c, 0, 64, 31
1, 128781, Control_c, 0, 64, 29
1, 128796, Control_c, 0, 64, 27
1, 128811, Control_c, 0, 64, 27
1, 128825, Control_c, 0, 64, 26
1, 128840, Control_c, 0, 64, 25
1, 128855, Control_c, 0, 64, 24
1, 128870, Control_c, 0, 64, 23
1, 128870, Control_c, 0, 67, 118
1, 128885, Control_c, 0, 64, 21
1, 128885, Control_c, 0, 67, 119
1, 128899, Control_c, 0, 64, 17
1, 128899, Control_c, 0, 67, 120
1, 128914, Control_c, 0, 64, 9
1, 128914, Control_c, 0, 67, 120
1, 128929, Control_c, 0, 64, 0
1, 128973, Control_c, 0, 67, 121
1, 129018, Control_c, 0, 67, 120
1, 129032, Control_c, 0, 67, 117
1, 129047, Control_c, 0, 67, 112
1, 129061, Note_on_c, 0, 75, 84
1, 129062, Control_c, 0, 67, 108
1, 129070, Note_on_c, 0, 70, 74
1, 129073, Note_on_c, 0, 52, 66
1, 129076, Note_on_c, 0, 64, 63
1, 129077, Control_c, 0, 67, 104
1, 129080, Note_on_c, 0, 61, 59
1, 129086, Note_on_c, 0, 58, 53
1, 129091, Control_c, 0, 64, 49
1, 129091, Control_c, 0, 67, 100
1, 129106, Control_c, 0, 64, 67
1, 129106, Control_c, 0, 67, 95
1, 129113, Note_off_c, 0, 61, 63
1, 129113, Note_off_c, 0, 52, 64
1, 129115, Note_off_c, 0, 58, 65
1, 129115, Note_off_c, 0, 64, 63
1, 129121, Control_c, 0, 64, 69
1, 129121, Control_c, 0, 67, 87
1, 129127, Note_off_c, 0, 70, 63
1, 129136, Control_c, 0, 67, 75
1, 129151, Control_c, 0, 64, 67
1, 129151, Control_c, 0, 67, 59
1, 129156, Note_on_c, 0, 74, 72
1, 129158, Note_off_c, 0, 75, 65
1, 129166, Control_c, 0, 64, 61
1, 129166, Control_c, 0, 67, 43
1, 129181, Control_c, 0, 64, 35
1, 129181, Control_c, 0, 67, 23
1, 129203, Control_c, 0, 64, 0
1, 129203, Control_c, 0, 67, 0
1, 129224, Note_on_c, 0, 73, 91
1, 129225, Note_off_c, 0, 74, 66
1, 129235, Note_on_c, 0, 62, 69
1, 129239, Note_on_c, 0, 53, 52
1, 129263, Note_off_c, 0, 53, 59
1, 129271, Note_off_c, 0, 62, 67
1, 129279, Note_off_c, 0, 73, 70
1, 129285, Note_on_c, 0, 72, 93
1, 129308, Control_c, 0, 64, 27
1, 129322, Control_c, 0, 64, 67
1, 129337, Control_c, 0, 64, 127
1, 129350, Note_on_c, 0, 71, 95
1, 129356, Note_off_c, 0, 72, 66
1, 129368, Note_on_c, 0, 66, 76
1, 129379, Note_on_c, 0, 54, 58
1, 129395, Poly_aftertouch_c, 0, 60, 127
1, 129398, Note_on_c, 0, 63, 37
1, 129401, Note_off_c, 0, 71, 67
1, 129412, Note_off_c, 0, 54, 65
1, 129418, Note_off_c, 0, 66, 63
1, 129431, Note_off_c, 0, 63, 53
1, 129437, Poly_aftertouch_c, 0, 60, 0
1, 129500, Control_c, 0, 64, 87
1, 129515, Control_c, 0, 64, 62
1, 129529, Control_c, 0, 64, 0
1, 129591, Note_on_c, 0, 70, 78
1, 129616, Note_off_c, 0, 70, 69
1, 129645, Note_on_c, 0, 69, 89
1, 129685, Note_off_c, 0, 69, 69
1, 129705, Note_on_c, 0, 68, 88
1, 129749, Note_off_c, 0, 68, 67
1, 129752, Control_c, 0, 64, 62
1, 129753, Note_on_c, 0, 67, 98
1, 129761, Note_on_c, 0, 55, 87
1, 129762, Note_on_c, 0, 60, 77
1, 129763, Note_on_c, 0, 64, 80
1, 129767, Control_c, 0, 64, 99
1, 129782, Control_c, 0, 64, 127
1, 129784, Note_off_c, 0, 67, 71
1, 129784, Note_off_c, 0, 60, 66
1, 129786, Note_off_c, 0, 64, 71
1, 129790, Note_off_c, 0, 55, 69
1, 129855, Control_c, 0, 64, 85
1, 129870, Control_c, 0, 64, 19
1, 129885, Control_c, 0, 64, 0
1, 129888, Poly_aftertouch_c, 0, 60, 0
1, 130116, Control_c, 0, 64, 39
1, 130128, Note_on_c, 0, 30, 91
1, 130129, Note_on_c, 0, 42, 89
1, 130131, Control_c, 0, 64, 79
1, 130145, Control_c, 0, 64, 104
1, 130153, Note_off_c, 0, 42, 67
1, 130156, Note_off_c, 0, 30, 67
1, 130160, Control_c, 0, 64, 127
1, 130249, Control_c, 0, 67, 11
1, 130265, Control_c, 0, 67, 24
1, 130279, Control_c, 0, 67, 46
1, 130294, Control_c, 0, 67, 70
1, 130309, Control_c, 0, 64, 91
1, 130309, Control_c, 0, 67, 88
1, 130324, Control_c, 0, 64, 63
1, 130324, Control_c, 0, 67, 92
1, 130339, Control_c, 0, 64, 0
1, 130339, Control_c, 0, 67, 98
1, 130353, Control_c, 0, 67, 108
1, 130368, Control_c, 0, 67, 120
1, 130383, Control_c, 0, 67, 124
1, 130398, Control_c, 0, 67, 124
1, 130412, Control_c, 0, 67, 125
1, 130427, Control_c, 0, 67, 126
1, 130442, Control_c, 0, 67, 127
1, 130501, Control_c, 0, 67, 126
1, 130516, Control_c, 0, 67, 125
1, 130531, Control_c, 0, 67, 124
1, 130546, Control_c, 0, 67, 122
1, 130561, Control_c, 0, 67, 121
1, 130576, Control_c, 0, 67, 118
1, 130590, Control_c, 0, 67, 115
1, 130605, Control_c, 0, 67, 111
1, 130620, Control_c, 0, 67, 109
1, 130635, Control_c, 0, 67, 107
1, 130650, Control_c, 0, 67, 105
1, 130664, Control_c, 0, 67, 102
1, 130679, Control_c, 0, 67, 100
1, 130701, Control_c, 0, 67, 98
1, 130716, Control_c, 0, 67, 96
1, 130731, Control_c, 0, 67, 93
1, 130746, Control_c, 0, 67, 90
1, 130761, Control_c, 0, 67, 88
1, 130775, Control_c, 0, 67, 85
1, 130790, Control_c, 0, 67, 82
1, 130805, Control_c, 0, 67, 79
1, 130820, Control_c, 0, 67, 75
1, 130835, Control_c, 0, 67, 73
1, 130850, Control_c, 0, 67, 71
1, 130865, Control_c, 0, 67, 66
1, 130880, Control_c, 0, 67, 60
1, 130895, Control_c, 0, 67, 50
1, 130910, Control_c, 0, 67, 41
1, 130924, Control_c, 0, 67, 32
1, 130939, Control_c, 0, 67, 23
1, 130944, Note_on_c, 0, 91, 85
1, 130954, Control_c, 0, 67, 10
1, 130957, Note_on_c, 0, 79, 72
1, 130964, Note_on_c, 0, 75, 46
1, 130966, Note_on_c, 0, 63, 49
1, 130966, Note_on_c, 0, 73, 48
1, 130969, Control_c, 0, 67, 0
1, 130971, Note_on_c, 0, 87, 62
1, 130984, Control_c, 0, 64, 36
1, 130998, Note_on_c, 0, 85, 21
1, 130999, Control_c, 0, 64, 53
1, 131013, Control_c, 0, 64, 59
1, 131027, Control_c, 0, 64, 62
1, 131042, Control_c, 0, 64, 65
1, 131057, Control_c, 0, 64, 69
1, 131072, Control_c, 0, 64, 78
1, 131087, Control_c, 0, 64, 86
1, 131090, Note_off_c, 0, 75, 56
1, 131101, Control_c, 0, 64, 90
1, 131113, Note_off_c, 0, 63, 61
1, 131116, Control_c, 0, 64, 93
1, 131131, Control_c, 0, 64, 96
1, 131139, Note_off_c, 0, 73, 24
1, 131140, Note_off_c, 0, 85, 22
1, 131146, Control_c, 0, 64, 99
1, 131161, Control_c, 0, 64, 100
1, 131163, Note_off_c, 0, 87, 54
1, 131235, Control_c, 0, 64, 99
1, 131249, Control_c, 0, 64, 96
1, 131264, Control_c, 0, 64, 91
1, 131264, Control_c, 0, 67, 8
1, 131279, Control_c, 0, 64, 82
1, 131279, Control_c, 0, 67, 10
1, 131294, Control_c, 0, 64, 73
1, 131294, Control_c, 0, 67, 14
1, 131309, Control_c, 0, 64, 63
1, 131309, Control_c, 0, 67, 20
1, 131311, Note_on_c, 0, 84, 50
1, 131311, Note_on_c, 0, 88, 54
1, 131312, Note_on_c, 0, 72, 38
1, 131319, Note_on_c, 0, 76, 37
1, 131324, Control_c, 0, 64, 50
1, 131324, Control_c, 0, 67, 26
1, 131325, Note_on_c, 0, 64, 34
1, 131339, Control_c, 0, 64, 27
1, 131339, Control_c, 0, 67, 29
1, 131354, Control_c, 0, 64, 0
1, 131354, Control_c, 0, 67, 31
1, 131368, Control_c, 0, 67, 33
1, 131383, Control_c, 0, 67, 36
1, 131398, Control_c, 0, 67, 40
1, 131412, Control_c, 0, 67, 46
1, 131427, Control_c, 0, 67, 51
1, 131449, Control_c, 0, 67, 56
1, 131464, Control_c, 0, 67, 61
1, 131479, Control_c, 0, 67, 63
1, 131494, Control_c, 0, 67, 66
1, 131509, Control_c, 0, 67, 68
1, 131524, Control_c, 0, 67, 71
1, 131539, Control_c, 0, 67, 74
1, 131553, Control_c, 0, 67, 76
1, 131568, Control_c, 0, 67, 78
1, 131583, Control_c, 0, 67, 80
1, 131598, Control_c, 0, 67, 82
1, 131613, Control_c, 0, 67, 83
1, 131627, Control_c, 0, 67, 84
1, 131688, Control_c, 0, 67, 84
1, 131732, Control_c, 0, 67, 84
1, 131761, Control_c, 0, 67, 84
1, 131790, Control_c, 0, 67, 84
1, 131820, Control_c, 0, 64, 19
1, 131820, Control_c, 0, 67, 83
1, 131835, Control_c, 0, 64, 30
1, 131849, Control_c, 0, 64, 37
1, 131849, Control_c, 0, 67, 84
1, 131864, Control_c, 0, 64, 44
1, 131879, Control_c, 0, 64, 48
1, 131879, Control_c, 0, 67, 83
1, 131894, Control_c, 0, 64, 51
1, 131894, Control_c, 0, 67, 83
1, 131909, Control_c, 0, 64, 54
1, 131923, Control_c, 0, 64, 57
1, 131938, Control_c, 0, 64, 59
1, 131953, Control_c, 0, 64, 61
1, 131968, Control_c, 0, 64, 63
1, 131968, Control_c, 0, 67, 82
1, 131983, Control_c, 0, 64, 65
1, 131983, Control_c, 0, 67, 82
1, 131998, Control_c, 0, 64, 67
1, 132013, Control_c, 0, 64, 71
1, 132027, Control_c, 0, 64, 77
1, 132042, Control_c, 0, 64, 83
1, 132042, Control_c, 0, 67, 81
1, 132057, Control_c, 0, 64, 89
1, 132057, Control_c, 0, 67, 81
1, 132072, Control_c, 0, 64, 98
1, 132072, Control_c, 0, 67, 80
1, 132087, Control_c, 0, 64, 109
1, 132102, Control_c, 0, 64, 127
1, 132161, Control_c, 0, 67, 80
1, 132242, Control_c, 0, 67, 79
1, 132287, Control_c, 0, 67, 79
1, 132331, Control_c, 0, 67, 78
1, 132405, Control_c, 0, 67, 78
1, 132495, Control_c, 0, 67, 77
1, 132599, Control_c, 0, 67, 78
1, 132776, Control_c, 0, 67, 77
1, 132880, Control_c, 0, 67, 77
1, 133198, Control_c, 0, 67, 77
1, 133347, Control_c, 0, 67, 78
1, 133421, Control_c, 0, 67, 78
1, 133509, Control_c, 0, 67, 79
1, 133583, Control_c, 0, 67, 79
1, 133613, Control_c, 0, 67, 80
1, 133695, Note_off_c, 0, 76, 27
1, 133836, Note_off_c, 0, 72, 26
1, 133858, Control_c, 0, 67, 79
1, 133885, Note_off_c, 0, 64, 34
1, 133959, Note_off_c, 0, 79, 27
1, 134046, Note_off_c, 0, 91, 42
1, 134048, Note_off_c, 0, 84, 29
1, 134099, Note_off_c, 0, 88, 39
1, 134333, Control_c, 0, 64, 124
1, 134348, Control_c, 0, 64, 120
1, 134363, Control_c, 0, 64, 115
1, 134378, Control_c, 0, 64, 110
1, 134392, Control_c, 0, 64, 105
1, 134407, Control_c, 0, 64, 102
1, 134422, Control_c, 0, 64, 100
1, 134444, Control_c, 0, 64, 98
1, 134459, Control_c, 0, 64, 96
1, 134474, Control_c, 0, 64, 94
1, 134489, Control_c, 0, 64, 92
1, 134504, Control_c, 0, 64, 89
1, 134518, Control_c, 0, 64, 86
1, 134533, Control_c, 0, 64, 84
1, 134548, Control_c, 0, 64, 82
1, 134563, Control_c, 0, 64, 79
1, 134578, Control_c, 0, 64, 76
1, 134592, Control_c, 0, 64, 73
1, 134607, Control_c, 0, 64, 70
1, 134622, Control_c, 0, 64, 67
1, 134636, Control_c, 0, 64, 65
1, 134651, Control_c, 0, 64, 62
1, 134666, Control_c, 0, 64, 59
1, 134681, Control_c, 0, 64, 57
1, 134696, Control_c, 0, 64, 55
1, 134710, Control_c, 0, 64, 54
1, 134710, Control_c, 0, 67, 80
1, 134725, Control_c, 0, 64, 53
1, 134740, Control_c, 0, 64, 52
1, 134755, Control_c, 0, 64, 52
1, 134829, Control_c, 0, 64, 52
1, 134859, Control_c, 0, 64, 53
1, 134874, Control_c, 0, 64, 53
1, 134889, Control_c, 0, 64, 54
1, 134904, Control_c, 0, 64, 55
1, 134919, Control_c, 0, 64, 55
1, 134934, Control_c, 0, 64, 56
1, 134949, Control_c, 0, 64, 57
1, 134964, Control_c, 0, 64, 58
1, 134979, Control_c, 0, 64, 59
1, 134993, Control_c, 0, 64, 60
1, 135008, Control_c, 0, 64, 61
1, 135023, Control_c, 0, 64, 62
1, 135038, Control_c, 0, 64, 62
1, 135052, Control_c, 0, 64, 63
1, 135067, Control_c, 0, 64, 64
1, 135082, Control_c, 0, 64, 65
1, 135097, Control_c, 0, 64, 66
1, 135112, Control_c, 0, 64, 67
1, 135127, Control_c, 0, 64, 69
1, 135141, Control_c, 0, 64, 71
1, 135156, Control_c, 0, 64, 73
1, 135171, Control_c, 0, 64, 75
1, 135193, Control_c, 0, 64, 76
1, 135208, Control_c, 0, 64, 78
1, 135223, Control_c, 0, 64, 79
1, 135238, Control_c, 0, 64, 81
1, 135253, Control_c, 0, 64, 83
1, 135267, Control_c, 0, 64, 85
1, 135282, Control_c, 0, 64, 87
1, 135297, Control_c, 0, 64, 89
1, 135312, Control_c, 0, 64, 90
1, 135327, Control_c, 0, 64, 92
1, 135341, Control_c, 0, 64, 94
1, 135356, Control_c, 0, 64, 95
1, 135371, Control_c, 0, 64, 97
1, 135386, Control_c, 0, 64, 99
1, 135401, Control_c, 0, 64, 101
1, 135415, Control_c, 0, 64, 103
1, 135430, Control_c, 0, 64, 104
1, 135445, Control_c, 0, 64, 104
1, 135459, Control_c, 0, 64, 106
1, 135459, Control_c, 0, 67, 79
1, 135474, Control_c, 0, 64, 108
1, 135489, Control_c, 0, 64, 109
1, 135504, Control_c, 0, 64, 110
1, 135533, Control_c, 0, 64, 111
1, 135548, Control_c, 0, 64, 111
1, 135548, Control_c, 0, 67, 79
1, 135563, Control_c, 0, 64, 112
1, 135578, Control_c, 0, 64, 113
1, 135593, Control_c, 0, 64, 114
1, 135607, Control_c, 0, 64, 115
1, 135607, Control_c, 0, 67, 78
1, 135622, Control_c, 0, 64, 116
1, 135637, Control_c, 0, 64, 118
1, 135652, Control_c, 0, 64, 124
1, 135652, Control_c, 0, 67, 78
1, 135668, Control_c, 0, 64, 127
1, 135682, Control_c, 0, 67, 77
1, 135697, Control_c, 0, 67, 77
1, 135742, Control_c, 0, 67, 76
1, 135771, Control_c, 0, 67, 76
1, 135786, Control_c, 0, 67, 75
1, 135846, Control_c, 0, 67, 75
1, 135876, Control_c, 0, 67, 74
1, 135942, Control_c, 0, 67, 74
1, 135971, Control_c, 0, 67, 73
1, 136031, Control_c, 0, 67, 73
1, 136046, Control_c, 0, 67, 72
1, 136090, Control_c, 0, 67, 72
1, 136217, Note_on_c, 0, 60, 38
1, 136223, Note_on_c, 0, 58, 35
1, 136238, Control_c, 0, 64, 124
1, 136253, Control_c, 0, 64, 122
1, 136268, Control_c, 0, 64, 120
1, 136282, Control_c, 0, 64, 117
1, 136297, Control_c, 0, 64, 115
1, 136312, Control_c, 0, 64, 113
1, 136312, Control_c, 0, 67, 72
1, 136327, Control_c, 0, 64, 112
1, 136327, Control_c, 0, 67, 73
1, 136342, Control_c, 0, 64, 111
1, 136342, Control_c, 0, 67, 73
1, 136356, Control_c, 0, 64, 110
1, 136371, Control_c, 0, 64, 108
1, 136371, Control_c, 0, 67, 74
1, 136386, Control_c, 0, 64, 105
1, 136386, Control_c, 0, 67, 74
1, 136397, Note_on_c, 0, 61, 47
1, 136398, Note_on_c, 0, 64, 49
1, 136401, Control_c, 0, 64, 102
1, 136401, Control_c, 0, 67, 75
1, 136415, Control_c, 0, 64, 99
1, 136415, Control_c, 0, 67, 76
1, 136430, Control_c, 0, 64, 95
1, 136430, Control_c, 0, 67, 77
1, 136432, Note_off_c, 0, 60, 38
1, 136445, Control_c, 0, 64, 89
1, 136445, Control_c, 0, 67, 77
1, 136461, Control_c, 0, 64, 82
1, 136461, Control_c, 0, 67, 78
1, 136464, Note_off_c, 0, 58, 40
1, 136476, Control_c, 0, 64, 76
1, 136476, Control_c, 0, 67, 79
1, 136487, Note_on_c, 0, 67, 60
1, 136490, Note_off_c, 0, 64, 57
1, 136491, Control_c, 0, 64, 70
1, 136491, Control_c, 0, 67, 80
1, 136501, Note_on_c, 0, 66, 52
1, 136505, Control_c, 0, 64, 63
1, 136505, Control_c, 0, 67, 80
1, 136514, Note_off_c, 0, 61, 0
1, 136520, Control_c, 0, 64, 56
1, 136520, Control_c, 0, 67, 81
1, 136535, Control_c, 0, 64, 45
1, 136535, Control_c, 0, 67, 82
1, 136550, Control_c, 0, 64, 28
1, 136550, Control_c, 0, 67, 83
1, 136565, Control_c, 0, 64, 0
1, 136565, Control_c, 0, 67, 84
1, 136579, Control_c, 0, 67, 85
1, 136581, Note_on_c, 0, 72, 64
1, 136585, Note_off_c, 0, 66, 51
1, 136588, Poly_aftertouch_c, 0, 61, 0
1, 136588, Note_off_c, 0, 67, 55
1, 136594, Note_on_c, 0, 70, 34
1, 136594, Control_c, 0, 67, 85
1, 136609, Control_c, 0, 67, 87
1, 136624, Control_c, 0, 67, 91
1, 136639, Control_c, 0, 67, 94
1, 136654, Control_c, 0, 67, 95
1, 136691, Control_c, 0, 67, 96
1, 136720, Control_c, 0, 67, 97
1, 136735, Control_c, 0, 67, 98
1, 136750, Control_c, 0, 67, 99
1, 136765, Control_c, 0, 67, 100
1, 136824, Control_c, 0, 67, 100
1, 136839, Control_c, 0, 67, 101
1, 136854, Control_c, 0, 67, 102
1, 136928, Control_c, 0, 67, 103
1, 136987, Control_c, 0, 64, 8
1, 137003, Control_c, 0, 64, 18
1, 137017, Control_c, 0, 64, 27
1, 137032, Control_c, 0, 64, 37
1, 137047, Control_c, 0, 64, 45
1, 137062, Control_c, 0, 64, 50
1, 137062, Control_c, 0, 67, 102
1, 137077, Control_c, 0, 64, 52
1, 137077, Control_c, 0, 67, 101
1, 137092, Control_c, 0, 64, 53
1, 137106, Control_c, 0, 64, 55
1, 137106, Control_c, 0, 67, 101
1, 137121, Control_c, 0, 64, 57
1, 137136, Control_c, 0, 64, 59
1, 137136, Control_c, 0, 67, 100
1, 137151, Control_c, 0, 64, 61
1, 137151, Control_c, 0, 67, 98
1, 137166, Control_c, 0, 64, 62
1, 137166, Control_c, 0, 67, 97
1, 137181, Control_c, 0, 64, 63
1, 137181, Control_c, 0, 67, 96
1, 137195, Control_c, 0, 64, 64
1, 137195, Control_c, 0, 67, 96
1, 137210, Control_c, 0, 64, 65
1, 137210, Control_c, 0, 67, 95
1, 137225, Control_c, 0, 64, 66
1, 137225, Control_c, 0, 67, 94
1, 137239, Control_c, 0, 64, 68
1, 137239, Control_c, 0, 67, 93
1, 137255, Control_c, 0, 64, 70
1, 137255, Control_c, 0, 67, 91
1, 137270, Control_c, 0, 64, 72
1, 137270, Control_c, 0, 67, 91
1, 137285, Control_c, 0, 64, 75
1, 137300, Control_c, 0, 64, 77
1, 137315, Control_c, 0, 64, 79
1, 137315, Control_c, 0, 67, 90
1, 137329, Control_c, 0, 64, 82
1, 137329, Control_c, 0, 67, 90
1, 137344, Control_c, 0, 64, 85
1, 137344, Control_c, 0, 67, 89
1, 137359, Control_c, 0, 64, 88
1, 137359, Control_c, 0, 67, 88
1, 137374, Control_c, 0, 64, 91
1, 137389, Control_c, 0, 64, 95
1, 137389, Control_c, 0, 67, 88
1, 137403, Control_c, 0, 64, 100
1, 137403, Control_c, 0, 67, 87
1, 137418, Control_c, 0, 64, 105
1, 137441, Control_c, 0, 64, 111
1, 137441, Control_c, 0, 67, 86
1, 137456, Control_c, 0, 64, 120
1, 137456, Control_c, 0, 67, 85
1, 137470, Control_c, 0, 64, 127
1, 137558, Note_off_c, 0, 70, 42
1, 137559, Control_c, 0, 67, 85
1, 137574, Control_c, 0, 67, 86
1, 137589, Control_c, 0, 67, 87
1, 137604, Control_c, 0, 67, 89
1, 137618, Control_c, 0, 67, 90
1, 137633, Control_c, 0, 67, 92
1, 137648, Control_c, 0, 67, 93
1, 137662, Control_c, 0, 67, 94
1, 137677, Control_c, 0, 67, 95
1, 137692, Control_c, 0, 67, 97
1, 137707, Control_c, 0, 67, 98
1, 137722, Control_c, 0, 67, 99
1, 137736, Control_c, 0, 67, 100
1, 137751, Control_c, 0, 67, 103
1, 137766, Control_c, 0, 67, 104
1, 137781, Control_c, 0, 67, 106
1, 137795, Control_c, 0, 67, 107
1, 137806, Note_off_c, 0, 72, 15
1, 137810, Control_c, 0, 67, 107
1, 137825, Control_c, 0, 67, 108
1, 137840, Control_c, 0, 67, 108
1, 137854, Control_c, 0, 67, 109
1, 137928, Control_c, 0, 67, 108
1, 137973, Control_c, 0, 67, 108
1, 137987, Control_c, 0, 67, 107
1, 138002, Control_c, 0, 67, 106
1, 138063, Control_c, 0, 67, 106
1, 138077, Control_c, 0, 67, 105
1, 138092, Control_c, 0, 67, 105
1, 138137, Control_c, 0, 67, 104
1, 138151, Control_c, 0, 67, 104
1, 138166, Control_c, 0, 67, 103
1, 138189, Control_c, 0, 67, 103
1, 138203, Note_on_c, 0, 66, 45
1, 138210, Note_on_c, 0, 67, 45
1, 138263, Control_c, 0, 67, 102
1, 138278, Note_off_c, 0, 67, 0
1, 138278, Note_on_c, 0, 67, 13
1, 138455, Control_c, 0, 67, 103
1, 138499, Control_c, 0, 67, 103
1, 138521, Note_off_c, 0, 66, 43
1, 138525, Note_on_c, 0, 72, 66
1, 138525, Note_off_c, 0, 67, 41
1, 138544, Control_c, 0, 67, 104
1, 138545, Note_on_c, 0, 70, 45
1, 138573, Control_c, 0, 67, 104
1, 138603, Control_c, 0, 67, 105
1, 138633, Control_c, 0, 67, 106
1, 138648, Control_c, 0, 67, 106
1, 138692, Control_c, 0, 67, 107
1, 138707, Control_c, 0, 67, 108
1, 138737, Control_c, 0, 67, 108
1, 138740, Note_on_c, 0, 67, 63
1, 138762, Note_off_c, 0, 72, 61
1, 138764, Note_on_c, 0, 66, 46
1, 138766, Control_c, 0, 67, 109
1, 138767, Note_off_c, 0, 70, 41
1, 138796, Control_c, 0, 67, 109
1, 139115, Control_c, 0, 64, 107
1, 139125, Note_off_c, 0, 67, 43
1, 139130, Control_c, 0, 64, 94
1, 139145, Note_on_c, 0, 72, 41
1, 139145, Control_c, 0, 64, 82
1, 139148, Note_on_c, 0, 68, 55
1, 139156, Note_off_c, 0, 66, 39
1, 139160, Control_c, 0, 64, 71
1, 139160, Control_c, 0, 67, 110
1, 139175, Control_c, 0, 64, 64
1, 139176, Note_on_c, 0, 70, 45
1, 139189, Control_c, 0, 64, 57
1, 139198, Note_off_c, 0, 72, 0
1, 139198, Note_on_c, 0, 72, 12
1, 139204, Control_c, 0, 64, 51
1, 139204, Control_c, 0, 67, 110
1, 139219, Control_c, 0, 64, 45
1, 139233, Control_c, 0, 64, 39
1, 139233, Control_c, 0, 67, 111
1, 139248, Control_c, 0, 64, 30
1, 139248, Control_c, 0, 67, 111
1, 139263, Control_c, 0, 64, 16
1, 139263, Control_c, 0, 67, 112
1, 139278, Control_c, 0, 64, 0
1, 139278, Control_c, 0, 67, 113
1, 139377, Note_on_c, 0, 66, 36
1, 139396, Note_off_c, 0, 68, 40
1, 139438, Note_off_c, 0, 66, 0
1, 139438, Note_on_c, 0, 66, 3
1, 139574, Control_c, 0, 64, 19
1, 139589, Control_c, 0, 64, 32
1, 139604, Control_c, 0, 64, 42
1, 139619, Control_c, 0, 64, 49
1, 139633, Control_c, 0, 64, 52
1, 139649, Control_c, 0, 64, 54
1, 139664, Control_c, 0, 64, 56
1, 139686, Control_c, 0, 64, 58
1, 139686, Control_c, 0, 67, 112
1, 139701, Control_c, 0, 64, 60
1, 139716, Control_c, 0, 64, 62
1, 139730, Control_c, 0, 64, 63
1, 139745, Control_c, 0, 64, 64
1, 139760, Control_c, 0, 64, 65
1, 139760, Control_c, 0, 67, 112
1, 139775, Control_c, 0, 64, 66
1, 139790, Control_c, 0, 64, 67
1, 139805, Control_c, 0, 64, 69
1, 139820, Control_c, 0, 64, 70
1, 139834, Control_c, 0, 64, 72
1, 139849, Control_c, 0, 64, 74
1, 139849, Control_c, 0, 67, 111
1, 139864, Control_c, 0, 64, 75
1, 139879, Control_c, 0, 64, 76
1, 139879, Control_c, 0, 67, 112
1, 139894, Control_c, 0, 64, 78
1, 139909, Control_c, 0, 64, 79
1, 139924, Control_c, 0, 64, 80
1, 139924, Control_c, 0, 67, 111
1, 139938, Control_c, 0, 64, 82
1, 139953, Control_c, 0, 64, 83
1, 139968, Control_c, 0, 64, 84
1, 139983, Control_c, 0, 64, 85
1, 139988, Note_off_c, 0, 66, 38
1, 139998, Control_c, 0, 64, 86
1, 140012, Control_c, 0, 64, 88
1, 140027, Control_c, 0, 64, 89
1, 140042, Control_c, 0, 64, 90
1, 140056, Control_c, 0, 64, 90
1, 140086, Control_c, 0, 64, 91
1, 140101, Control_c, 0, 64, 91
1, 140116, Control_c, 0, 67, 112
1, 140657, Control_c, 0, 64, 90
1, 140672, Control_c, 0, 64, 88
1, 140687, Control_c, 0, 64, 85
1, 140702, Control_c, 0, 64, 81
1, 140702, Control_c, 0, 67, 112
1, 140717, Control_c, 0, 64, 75
1, 140732, Control_c, 0, 64, 68
1, 140741, Note_on_c, 0, 68, 39
1, 140747, Control_c, 0, 64, 61
1, 140747, Control_c, 0, 67, 113
1, 140761, Control_c, 0, 64, 54
1, 140776, Control_c, 0, 64, 46
1, 140776, Control_c, 0, 67, 114
1, 140791, Control_c, 0, 64, 39
1, 140806, Control_c, 0, 64, 29
1, 140812, Note_off_c, 0, 68, 0
1, 140812, Note_on_c, 0, 68, 4
1, 140821, Control_c, 0, 64, 0
1, 140866, Control_c, 0, 67, 115
1, 140880, Control_c, 0, 67, 116
1, 140895, Control_c, 0, 67, 117
1, 140910, Control_c, 0, 67, 118
1, 140958, Note_on_c, 0, 66, 37
1, 140996, Note_off_c, 0, 68, 34
1, 141058, Control_c, 0, 67, 118
1, 141161, Control_c, 0, 64, 15
1, 141184, Control_c, 0, 64, 30
1, 141199, Control_c, 0, 64, 38
1, 141199, Control_c, 0, 67, 118
1, 141213, Control_c, 0, 64, 42
1, 141228, Control_c, 0, 64, 47
1, 141243, Control_c, 0, 64, 51
1, 141259, Control_c, 0, 64, 55
1, 141274, Control_c, 0, 64, 57
1, 141274, Control_c, 0, 67, 117
1, 141289, Control_c, 0, 64, 59
1, 141289, Control_c, 0, 67, 117
1, 141303, Control_c, 0, 64, 61
1, 141303, Control_c, 0, 67, 116
1, 141318, Control_c, 0, 64, 62
1, 141318, Control_c, 0, 67, 116
1, 141333, Control_c, 0, 64, 63
1, 141333, Control_c, 0, 67, 115
1, 141348, Control_c, 0, 64, 65
1, 141348, Control_c, 0, 67, 115
1, 141363, Control_c, 0, 64, 67
1, 141363, Control_c, 0, 67, 114
1, 141377, Control_c, 0, 64, 69
1, 141377, Control_c, 0, 67, 113
1, 141392, Control_c, 0, 64, 71
1, 141407, Control_c, 0, 64, 73
1, 141407, Control_c, 0, 67, 113
1, 141422, Control_c, 0, 64, 75
1, 141422, Control_c, 0, 67, 112
1, 141436, Control_c, 0, 64, 77
1, 141436, Control_c, 0, 67, 112
1, 141451, Control_c, 0, 64, 79
1, 141451, Control_c, 0, 67, 111
1, 141466, Control_c, 0, 64, 81
1, 141467, Note_off_c, 0, 70, 42
1, 141481, Control_c, 0, 64, 83
1, 141495, Control_c, 0, 64, 85
1, 141499, Note_off_c, 0, 72, 33
1, 141510, Control_c, 0, 64, 86
1, 141510, Control_c, 0, 67, 110
1, 141513, Note_off_c, 0, 66, 35
1, 141525, Control_c, 0, 64, 88
1, 141539, Control_c, 0, 64, 90
1, 141539, Control_c, 0, 67, 110
1, 141554, Control_c, 0, 64, 90
1, 141569, Control_c, 0, 64, 91
1, 141584, Control_c, 0, 64, 92
1, 141599, Control_c, 0, 64, 93
1, 141614, Control_c, 0, 64, 94
1, 141628, Control_c, 0, 64, 95
1, 141643, Control_c, 0, 64, 95
1, 141673, Control_c, 0, 64, 96
1, 141688, Control_c, 0, 64, 97
1, 141702, Control_c, 0, 64, 98
1, 141702, Control_c, 0, 67, 109
1, 141732, Control_c, 0, 64, 98
1, 141776, Control_c, 0, 64, 99
1, 141791, Control_c, 0, 64, 99
1, 141791, Control_c, 0, 67, 109
1, 141821, Control_c, 0, 64, 100
1, 141835, Control_c, 0, 67, 109
1, 141850, Control_c, 0, 64, 100
1, 141865, Control_c, 0, 64, 101
1, 141895, Control_c, 0, 64, 101
1, 141932, Control_c, 0, 64, 102
1, 141991, Control_c, 0, 64, 102
1, 142199, Control_c, 0, 67, 110
1, 142342, Note_on_c, 0, 72, 54
1, 142378, Note_on_c, 0, 70, 37
1, 142466, Control_c, 0, 67, 110
1, 142572, Note_on_c, 0, 67, 58
1, 142585, Control_c, 0, 67, 111
1, 142587, Note_off_c, 0, 70, 43
1, 142595, Note_on_c, 0, 66, 33
1, 142616, Note_off_c, 0, 72, 51
1, 142643, Control_c, 0, 67, 111
1, 142725, Control_c, 0, 67, 112
1, 142740, Control_c, 0, 64, 101
1, 142740, Control_c, 0, 67, 112
1, 142755, Control_c, 0, 64, 98
1, 142755, Control_c, 0, 67, 113
1, 142770, Control_c, 0, 64, 93
1, 142783, Note_off_c, 0, 66, 43
1, 142784, Control_c, 0, 64, 89
1, 142799, Control_c, 0, 64, 83
1, 142801, Note_on_c, 0, 72, 60
1, 142814, Control_c, 0, 64, 76
1, 142814, Control_c, 0, 67, 113
1, 142819, Note_on_c, 0, 70, 36
1, 142821, Note_off_c, 0, 67, 44
1, 142829, Control_c, 0, 64, 69
1, 142844, Control_c, 0, 64, 61
1, 142860, Control_c, 0, 64, 55
1, 142874, Control_c, 0, 64, 49
1, 142889, Control_c, 0, 64, 45
1, 142904, Control_c, 0, 64, 43
1, 142919, Control_c, 0, 64, 40
1, 142934, Control_c, 0, 64, 31
1, 142948, Control_c, 0, 64, 15
1, 142963, Control_c, 0, 64, 0
1, 143008, Control_c, 0, 64, 15
1, 143022, Control_c, 0, 64, 25
1, 143037, Control_c, 0, 64, 36
1, 143037, Control_c, 0, 67, 113
1, 143052, Control_c, 0, 64, 44
1, 143067, Control_c, 0, 64, 50
1, 143081, Control_c, 0, 64, 55
1, 143096, Control_c, 0, 64, 58
1, 143096, Control_c, 0, 67, 112
1, 143111, Control_c, 0, 64, 59
1, 143111, Control_c, 0, 67, 112
1, 143126, Control_c, 0, 64, 60
1, 143126, Control_c, 0, 67, 111
1, 143141, Control_c, 0, 64, 62
1, 143141, Control_c, 0, 67, 111
1, 143155, Control_c, 0, 64, 63
1, 143155, Control_c, 0, 67, 110
1, 143170, Control_c, 0, 64, 65
1, 143170, Control_c, 0, 67, 110
1, 143185, Control_c, 0, 64, 67
1, 143200, Control_c, 0, 64, 68
1, 143215, Control_c, 0, 64, 69
1, 143230, Control_c, 0, 64, 72
1, 143230, Control_c, 0, 67, 109
1, 143245, Control_c, 0, 64, 74
1, 143245, Control_c, 0, 67, 109
1, 143259, Control_c, 0, 64, 75
1, 143259, Control_c, 0, 67, 108
1, 143274, Control_c, 0, 64, 77
1, 143289, Control_c, 0, 64, 79
1, 143304, Control_c, 0, 64, 80
1, 143319, Control_c, 0, 64, 82
1, 143334, Control_c, 0, 64, 84
1, 143348, Control_c, 0, 64, 86
1, 143363, Control_c, 0, 64, 87
1, 143378, Control_c, 0, 64, 88
1, 143393, Control_c, 0, 64, 90
1, 143407, Control_c, 0, 64, 91
1, 143407, Control_c, 0, 67, 108
1, 143429, Control_c, 0, 64, 92
1, 143459, Control_c, 0, 64, 92
1, 143489, Control_c, 0, 64, 93
1, 143504, Control_c, 0, 64, 93
1, 143519, Control_c, 0, 67, 107
1, 143563, Control_c, 0, 64, 94
1, 143712, Control_c, 0, 67, 107
1, 143829, Control_c, 0, 67, 107
1, 143844, Control_c, 0, 64, 93
1, 143862, Note_on_c, 0, 68, 45
1, 143874, Control_c, 0, 64, 92
1, 143888, Control_c, 0, 64, 90
1, 143903, Control_c, 0, 64, 88
1, 143903, Control_c, 0, 67, 108
1, 143918, Control_c, 0, 64, 86
1, 143933, Control_c, 0, 64, 82
1, 143948, Control_c, 0, 64, 78
1, 143963, Control_c, 0, 64, 73
1, 143977, Control_c, 0, 64, 68
1, 143992, Control_c, 0, 64, 65
1, 143992, Control_c, 0, 67, 108
1, 144007, Control_c, 0, 64, 61
1, 144021, Control_c, 0, 64, 58
1, 144036, Control_c, 0, 64, 55
1, 144051, Control_c, 0, 64, 52
1, 144066, Control_c, 0, 64, 49
1, 144066, Control_c, 0, 67, 109
1, 144076, Note_on_c, 0, 66, 40
1, 144081, Control_c, 0, 64, 44
1, 144095, Control_c, 0, 64, 34
1, 144106, Note_off_c, 0, 68, 39
1, 144110, Control_c, 0, 64, 16
1, 144110, Control_c, 0, 67, 109
1, 144125, Control_c, 0, 64, 0
1, 144140, Control_c, 0, 67, 110
1, 144177, Control_c, 0, 67, 110
1, 144251, Control_c, 0, 67, 111
1, 144355, Control_c, 0, 67, 110
1, 144459, Control_c, 0, 67, 110
1, 144490, Control_c, 0, 67, 109
1, 144505, Control_c, 0, 67, 109
1, 144534, Control_c, 0, 64, 12
1, 144534, Control_c, 0, 67, 108
1, 144549, Control_c, 0, 64, 24
1, 144549, Control_c, 0, 67, 108
1, 144564, Control_c, 0, 64, 30
1, 144564, Control_c, 0, 67, 107
1, 144579, Control_c, 0, 64, 35
1, 144579, Control_c, 0, 67, 107
1, 144593, Control_c, 0, 64, 41
1, 144593, Control_c, 0, 67, 106
1, 144608, Control_c, 0, 64, 47
1, 144608, Control_c, 0, 67, 106
1, 144623, Control_c, 0, 64, 51
1, 144623, Control_c, 0, 67, 105
1, 144638, Control_c, 0, 64, 55
1, 144638, Control_c, 0, 67, 104
1, 144652, Control_c, 0, 64, 56
1, 144652, Control_c, 0, 67, 103
1, 144667, Control_c, 0, 64, 58
1, 144667, Control_c, 0, 67, 103
1, 144682, Control_c, 0, 64, 59
1, 144682, Control_c, 0, 67, 102
1, 144697, Control_c, 0, 64, 61
1, 144697, Control_c, 0, 67, 101
1, 144712, Control_c, 0, 64, 62
1, 144712, Control_c, 0, 67, 101
1, 144726, Control_c, 0, 64, 64
1, 144726, Control_c, 0, 67, 100
1, 144741, Control_c, 0, 64, 65
1, 144741, Control_c, 0, 67, 98
1, 144756, Control_c, 0, 64, 67
1, 144756, Control_c, 0, 67, 97
1, 144771, Control_c, 0, 64, 68
1, 144771, Control_c, 0, 67, 96
1, 144786, Control_c, 0, 64, 70
1, 144786, Control_c, 0, 67, 95
1, 144791, Note_off_c, 0, 66, 34
1, 144801, Control_c, 0, 64, 72
1, 144801, Control_c, 0, 67, 94
1, 144816, Control_c, 0, 64, 75
1, 144816, Control_c, 0, 67, 93
1, 144830, Control_c, 0, 64, 77
1, 144830, Control_c, 0, 67, 91
1, 144845, Control_c, 0, 64, 80
1, 144845, Control_c, 0, 67, 90
1, 144860, Control_c, 0, 64, 83
1, 144860, Control_c, 0, 67, 88
1, 144875, Control_c, 0, 64, 86
1, 144875, Control_c, 0, 67, 87
1, 144890, Control_c, 0, 64, 89
1, 144890, Control_c, 0, 67, 85
1, 144905, Control_c, 0, 64, 91
1, 144905, Control_c, 0, 67, 83
1, 144926, Control_c, 0, 64, 94
1, 144926, Control_c, 0, 67, 82
1, 144941, Control_c, 0, 64, 98
1, 144941, Control_c, 0, 67, 80
1, 144956, Control_c, 0, 64, 103
1, 144956, Control_c, 0, 67, 79
1, 144971, Control_c, 0, 64, 110
1, 144971, Control_c, 0, 67, 78
1, 144986, Control_c, 0, 64, 122
1, 144986, Control_c, 0, 67, 77
1, 145001, Control_c, 0, 64, 127
1, 145001, Control_c, 0, 67, 76
1, 145015, Control_c, 0, 67, 75
1, 145030, Control_c, 0, 67, 75
1, 145045, Control_c, 0, 67, 74
1, 145060, Control_c, 0, 67, 73
1, 145075, Control_c, 0, 67, 72
1, 145090, Control_c, 0, 67, 71
1, 145134, Control_c, 0, 67, 71
1, 145298, Control_c, 0, 67, 70
1, 145372, Control_c, 0, 67, 71
1, 145535, Control_c, 0, 67, 71
1, 145608, Control_c, 0, 67, 72
1, 145638, Control_c, 0, 67, 72
1, 145690, Control_c, 0, 67, 73
1, 145705, Control_c, 0, 67, 73
1, 145720, Control_c, 0, 67, 74
1, 145735, Control_c, 0, 67, 74
1, 145749, Control_c, 0, 67, 75
1, 145779, Control_c, 0, 67, 75
1, 145808, Control_c, 0, 67, 76
1, 145853, Control_c, 0, 67, 76
1, 145912, Control_c, 0, 67, 77
1, 145972, Control_c, 0, 67, 77
1, 146016, Control_c, 0, 67, 78
1, 146047, Control_c, 0, 67, 78
1, 146062, Control_c, 0, 67, 79
1, 146076, Control_c, 0, 67, 79
1, 146091, Control_c, 0, 67, 80
1, 146121, Control_c, 0, 67, 80
1, 146136, Control_c, 0, 67, 81
1, 146151, Control_c, 0, 67, 81
1, 146165, Control_c, 0, 67, 82
1, 146195, Control_c, 0, 67, 82
1, 146210, Control_c, 0, 67, 83
1, 146224, Control_c, 0, 67, 83
1, 146239, Control_c, 0, 67, 84
1, 146269, Control_c, 0, 67, 84
1, 146284, Control_c, 0, 67, 85
1, 146298, Control_c, 0, 67, 85
1, 146313, Control_c, 0, 67, 86
1, 146328, Control_c, 0, 67, 86
1, 146358, Control_c, 0, 67, 88
1, 146372, Control_c, 0, 67, 91
1, 146387, Control_c, 0, 67, 94
1, 146402, Control_c, 0, 67, 94
1, 146424, Control_c, 0, 67, 95
1, 146469, Control_c, 0, 67, 95
1, 146484, Control_c, 0, 67, 96
1, 146498, Control_c, 0, 67, 97
1, 146513, Control_c, 0, 67, 97
1, 146528, Control_c, 0, 67, 98
1, 146543, Control_c, 0, 67, 98
1, 146558, Control_c, 0, 67, 99
1, 146572, Control_c, 0, 67, 100
1, 146602, Control_c, 0, 67, 100
1, 146676, Control_c, 0, 67, 101
1, 146705, Control_c, 0, 67, 102
1, 146720, Control_c, 0, 67, 102
1, 146750, Control_c, 0, 67, 103
1, 146765, Control_c, 0, 67, 103
1, 146780, Control_c, 0, 67, 104
1, 146812, Note_on_c, 0, 68, 36
1, 146899, Control_c, 0, 64, 114
1, 146914, Control_c, 0, 64, 103
1, 146929, Control_c, 0, 64, 96
1, 146944, Control_c, 0, 64, 90
1, 146944, Control_c, 0, 67, 104
1, 146959, Control_c, 0, 64, 83
1, 146974, Control_c, 0, 64, 77
1, 146974, Control_c, 0, 67, 105
1, 146988, Control_c, 0, 64, 71
1, 147003, Control_c, 0, 64, 65
1, 147018, Control_c, 0, 64, 59
1, 147019, Note_on_c, 0, 66, 33
1, 147028, Note_off_c, 0, 68, 40
1, 147033, Control_c, 0, 64, 52
1, 147047, Control_c, 0, 64, 45
1, 147047, Control_c, 0, 67, 105
1, 147062, Control_c, 0, 64, 41
1, 147062, Control_c, 0, 67, 106
1, 147077, Control_c, 0, 64, 37
1, 147092, Control_c, 0, 64, 30
1, 147107, Control_c, 0, 64, 13
1, 147107, Control_c, 0, 67, 107
1, 147121, Control_c, 0, 64, 0
1, 147307, Control_c, 0, 67, 106
1, 147454, Control_c, 0, 67, 106
1, 147469, Control_c, 0, 67, 105
1, 147558, Control_c, 0, 67, 105
1, 147781, Control_c, 0, 67, 104
1, 147826, Control_c, 0, 67, 104
1, 147856, Control_c, 0, 67, 103
1, 147900, Control_c, 0, 67, 103
1, 147937, Control_c, 0, 67, 102
1, 147951, Control_c, 0, 67, 101
1, 147981, Control_c, 0, 64, 22
1, 147996, Control_c, 0, 64, 33
1, 147996, Control_c, 0, 67, 101
1, 148011, Control_c, 0, 64, 42
1, 148011, Control_c, 0, 67, 100
1, 148026, Control_c, 0, 64, 48
1, 148041, Control_c, 0, 64, 52
1, 148056, Control_c, 0, 64, 55
1, 148070, Control_c, 0, 64, 57
1, 148070, Control_c, 0, 67, 99
1, 148085, Control_c, 0, 64, 60
1, 148085, Control_c, 0, 67, 99
1, 148100, Control_c, 0, 64, 63
1, 148100, Control_c, 0, 67, 98
1, 148115, Control_c, 0, 64, 65
1, 148130, Control_c, 0, 64, 67
1, 148130, Control_c, 0, 67, 98
1, 148144, Control_c, 0, 64, 68
1, 148144, Control_c, 0, 67, 97
1, 148159, Control_c, 0, 64, 71
1, 148159, Control_c, 0, 67, 97
1, 148174, Control_c, 0, 64, 74
1, 148174, Control_c, 0, 67, 96
1, 148182, Note_off_c, 0, 70, 41
1, 148188, Control_c, 0, 64, 76
1, 148188, Control_c, 0, 67, 96
1, 148203, Control_c, 0, 64, 79
1, 148203, Control_c, 0, 67, 95
1, 148214, Note_off_c, 0, 66, 42
1, 148218, Control_c, 0, 64, 81
1, 148218, Control_c, 0, 67, 95
1, 148233, Control_c, 0, 64, 83
1, 148233, Control_c, 0, 67, 94
1, 148248, Control_c, 0, 64, 85
1, 148248, Control_c, 0, 67, 94
1, 148262, Control_c, 0, 64, 88
1, 148262, Control_c, 0, 67, 93
1, 148277, Control_c, 0, 64, 90
1, 148277, Control_c, 0, 67, 92
1, 148292, Control_c, 0, 64, 92
1, 148292, Control_c, 0, 67, 91
1, 148307, Control_c, 0, 64, 94
1, 148307, Control_c, 0, 67, 90
1, 148322, Control_c, 0, 64, 95
1, 148322, Control_c, 0, 67, 89
1, 148337, Control_c, 0, 64, 96
1, 148337, Control_c, 0, 67, 88
1, 148351, Control_c, 0, 64, 97
1, 148351, Control_c, 0, 67, 87
1, 148366, Control_c, 0, 64, 98
1, 148366, Control_c, 0, 67, 85
1, 148369, Note_off_c, 0, 72, 32
1, 148381, Control_c, 0, 64, 99
1, 148381, Control_c, 0, 67, 82
1, 148396, Control_c, 0, 64, 99
1, 148396, Control_c, 0, 67, 80
1, 148410, Control_c, 0, 67, 77
1, 148425, Control_c, 0, 67, 74
1, 148441, Control_c, 0, 67, 71
1, 148456, Control_c, 0, 67, 69
1, 148471, Control_c, 0, 67, 67
1, 148485, Control_c, 0, 67, 64
1, 148500, Control_c, 0, 67, 61
1, 148515, Control_c, 0, 67, 60
1, 148589, Control_c, 0, 64, 98
1, 148604, Control_c, 0, 64, 97
1, 148619, Control_c, 0, 64, 94
1, 148619, Control_c, 0, 67, 61
1, 148634, Control_c, 0, 64, 90
1, 148634, Control_c, 0, 67, 62
1, 148649, Control_c, 0, 64, 87
1, 148649, Control_c, 0, 67, 62
1, 148671, Control_c, 0, 64, 81
1, 148686, Control_c, 0, 64, 75
1, 148700, Control_c, 0, 64, 67
1, 148715, Control_c, 0, 64, 59
1, 148715, Control_c, 0, 67, 63
1, 148730, Control_c, 0, 64, 51
1, 148730, Control_c, 0, 67, 63
1, 148745, Control_c, 0, 64, 46
1, 148745, Control_c, 0, 67, 64
1, 148760, Control_c, 0, 64, 44
1, 148760, Control_c, 0, 67, 64
1, 148774, Control_c, 0, 64, 42
1, 148774, Control_c, 0, 67, 65
1, 148789, Control_c, 0, 64, 40
1, 148789, Control_c, 0, 67, 65
1, 148804, Control_c, 0, 64, 37
1, 148804, Control_c, 0, 67, 66
1, 148819, Control_c, 0, 64, 36
1, 148819, Control_c, 0, 67, 67
1, 148834, Control_c, 0, 67, 67
1, 148864, Control_c, 0, 64, 36
1, 148878, Control_c, 0, 64, 34
1, 148893, Control_c, 0, 64, 32
1, 148893, Control_c, 0, 67, 68
1, 148908, Control_c, 0, 64, 32
1, 148908, Control_c, 0, 67, 68
1, 148938, Control_c, 0, 64, 31
1, 148953, Control_c, 0, 64, 30
1, 148967, Control_c, 0, 64, 27
1, 148982, Control_c, 0, 64, 23
1, 148997, Control_c, 0, 64, 15
1, 149011, Control_c, 0, 64, 0
1, 149041, Control_c, 0, 67, 67
1, 149071, Control_c, 0, 67, 66
1, 149083, Note_on_c, 0, 68, 80
1, 149086, Control_c, 0, 67, 65
1, 149100, Control_c, 0, 67, 64
1, 149115, Control_c, 0, 67, 63
1, 149130, Control_c, 0, 67, 61
1, 149145, Control_c, 0, 67, 59
1, 149159, Control_c, 0, 64, 30
1, 149159, Control_c, 0, 67, 57
1, 149174, Control_c, 0, 64, 52
1, 149174, Control_c, 0, 67, 50
1, 149189, Control_c, 0, 64, 61
1, 149189, Control_c, 0, 67, 32
1, 149204, Control_c, 0, 64, 64
1, 149204, Control_c, 0, 67, 14
1, 149218, Control_c, 0, 64, 66
1, 149218, Control_c, 0, 67, 0
1, 149234, Control_c, 0, 64, 71
1, 149249, Control_c, 0, 64, 80
1, 149264, Control_c, 0, 64, 94
1, 149279, Control_c, 0, 64, 104
1, 149294, Control_c, 0, 64, 109
1, 149308, Control_c, 0, 64, 116
1, 149323, Control_c, 0, 64, 127
1, 149597, Control_c, 0, 67, 8
1, 149656, Control_c, 0, 67, 8
1, 149671, Control_c, 0, 67, 9
1, 149716, Control_c, 0, 67, 9
1, 149725, Note_off_c, 0, 68, 28
1, 149731, Control_c, 0, 67, 13
1, 149746, Control_c, 0, 67, 22
1, 149752, Note_on_c, 0, 66, 61
1, 149761, Control_c, 0, 64, 118
1, 149761, Control_c, 0, 67, 36
1, 149776, Control_c, 0, 64, 70
1, 149776, Control_c, 0, 67, 60
1, 149790, Control_c, 0, 64, 42
1, 149790, Control_c, 0, 67, 90
1, 149793, Note_on_c, 0, 63, 60
1, 149805, Control_c, 0, 64, 0
1, 149805, Control_c, 0, 67, 127
1, 149824, Note_off_c, 0, 66, 60
1, 149842, Note_on_c, 0, 60, 66
1, 149849, Note_off_c, 0, 63, 63
1, 149890, Note_on_c, 0, 57, 63
1, 149890, Note_off_c, 0, 60, 61
1, 149917, Note_off_c, 0, 57, 66
1, 150664, Note_on_c, 0, 61, 25
1, 150746, Control_c, 0, 67, 126
1, 150761, Control_c, 0, 64, 26
1, 150761, Control_c, 0, 67, 126
1, 150776, Control_c, 0, 64, 41
1, 150776, Control_c, 0, 67, 125
1, 150790, Control_c, 0, 64, 48
1, 150790, Control_c, 0, 67, 124
1, 150805, Control_c, 0, 64, 52
1, 150805, Control_c, 0, 67, 123
1, 150820, Control_c, 0, 64, 55
1, 150820, Control_c, 0, 67, 122
1, 150836, Control_c, 0, 64, 58
1, 150836, Control_c, 0, 67, 122
1, 150851, Control_c, 0, 64, 61
1, 150851, Control_c, 0, 67, 121
1, 150866, Control_c, 0, 64, 63
1, 150866, Control_c, 0, 67, 120
1, 150880, Control_c, 0, 64, 64
1, 150880, Control_c, 0, 67, 120
1, 150895, Control_c, 0, 64, 65
1, 150895, Control_c, 0, 67, 119
1, 150917, Control_c, 0, 64, 67
1, 150932, Control_c, 0, 64, 69
1, 150947, Control_c, 0, 64, 71
1, 150947, Control_c, 0, 67, 119
1, 150962, Control_c, 0, 64, 73
1, 150962, Control_c, 0, 67, 118
1, 150977, Control_c, 0, 64, 75
1, 150977, Control_c, 0, 67, 118
1, 150992, Control_c, 0, 64, 76
1, 150992, Control_c, 0, 67, 117
1, 151007, Control_c, 0, 64, 77
1, 151021, Control_c, 0, 64, 79
1, 151036, Control_c, 0, 64, 79
1, 151051, Control_c, 0, 64, 80
1, 151051, Control_c, 0, 67, 117
1, 151066, Control_c, 0, 64, 80
1, 151081, Control_c, 0, 64, 81
1, 151095, Control_c, 0, 64, 82
1, 151110, Control_c, 0, 64, 82
1, 151244, Control_c, 0, 67, 116
1, 151288, Control_c, 0, 64, 83
1, 151348, Control_c, 0, 64, 83
1, 151362, Control_c, 0, 64, 84
1, 151406, Control_c, 0, 67, 117
1, 151614, Control_c, 0, 64, 84
1, 151785, Control_c, 0, 64, 85
1, 151844, Control_c, 0, 67, 117
1, 151990, Note_on_c, 0, 68, 46
1, 152022, Control_c, 0, 64, 84
1, 152036, Control_c, 0, 64, 84
1, 152051, Control_c, 0, 64, 83
1, 152066, Control_c, 0, 64, 82
1, 152081, Control_c, 0, 64, 81
1, 152096, Control_c, 0, 64, 80
1, 152110, Control_c, 0, 64, 77
1, 152125, Control_c, 0, 64, 73
1, 152140, Control_c, 0, 64, 67
1, 152155, Control_c, 0, 64, 61
1, 152170, Control_c, 0, 64, 54
1, 152176, Note_on_c, 0, 67, 40
1, 152184, Note_off_c, 0, 68, 34
1, 152184, Control_c, 0, 64, 45
1, 152199, Control_c, 0, 64, 35
1, 152214, Control_c, 0, 64, 23
1, 152229, Control_c, 0, 64, 9
1, 152244, Control_c, 0, 64, 0
1, 152318, Control_c, 0, 64, 23
1, 152333, Control_c, 0, 64, 37
1, 152333, Control_c, 0, 67, 117
1, 152348, Control_c, 0, 64, 47
1, 152362, Control_c, 0, 64, 54
1, 152377, Control_c, 0, 64, 58
1, 152392, Control_c, 0, 64, 61
1, 152414, Control_c, 0, 64, 63
1, 152414, Control_c, 0, 67, 116
1, 152429, Control_c, 0, 64, 65
1, 152445, Control_c, 0, 64, 66
1, 152445, Control_c, 0, 67, 116
1, 152459, Control_c, 0, 64, 68
1, 152459, Control_c, 0, 67, 115
1, 152474, Control_c, 0, 64, 70
1, 152489, Control_c, 0, 64, 72
1, 152489, Control_c, 0, 67, 115
1, 152504, Control_c, 0, 64, 74
1, 152519, Control_c, 0, 64, 76
1, 152519, Control_c, 0, 67, 114
1, 152533, Control_c, 0, 64, 78
1, 152533, Control_c, 0, 67, 114
1, 152535, Note_off_c, 0, 67, 41
1, 152548, Control_c, 0, 64, 80
1, 152548, Control_c, 0, 67, 113
1, 152563, Control_c, 0, 64, 81
1, 152578, Control_c, 0, 64, 83
1, 152578, Control_c, 0, 67, 113
1, 152593, Control_c, 0, 64, 84
1, 152593, Control_c, 0, 67, 112
1, 152608, Control_c, 0, 64, 85
1, 152608, Control_c, 0, 67, 112
1, 152622, Control_c, 0, 64, 85
1, 152637, Control_c, 0, 64, 86
1, 152637, Control_c, 0, 67, 111
1, 152667, Control_c, 0, 64, 87
1, 152682, Control_c, 0, 64, 87
1, 152727, Control_c, 0, 67, 111
1, 152741, Control_c, 0, 64, 88
1, 152786, Control_c, 0, 67, 110
1, 152830, Control_c, 0, 67, 110
1, 152859, Control_c, 0, 67, 109
1, 152874, Control_c, 0, 67, 109
1, 152933, Control_c, 0, 67, 108
1, 153052, Control_c, 0, 67, 109
1, 153126, Control_c, 0, 67, 109
1, 153141, Control_c, 0, 67, 110
1, 153192, Control_c, 0, 67, 110
1, 153207, Control_c, 0, 67, 111
1, 153221, Note_on_c, 0, 68, 48
1, 153222, Control_c, 0, 67, 111
1, 153253, Control_c, 0, 67, 112
1, 153268, Control_c, 0, 64, 87
1, 153282, Control_c, 0, 67, 112
1, 153297, Control_c, 0, 64, 87
1, 153297, Control_c, 0, 67, 113
1, 153312, Control_c, 0, 64, 85
1, 153312, Control_c, 0, 67, 113
1, 153327, Control_c, 0, 64, 83
1, 153342, Control_c, 0, 64, 80
1, 153342, Control_c, 0, 67, 114
1, 153356, Control_c, 0, 64, 77
1, 153356, Control_c, 0, 67, 115
1, 153371, Control_c, 0, 64, 72
1, 153371, Control_c, 0, 67, 116
1, 153386, Control_c, 0, 64, 65
1, 153386, Control_c, 0, 67, 116
1, 153401, Control_c, 0, 64, 59
1, 153401, Control_c, 0, 67, 117
1, 153405, Note_off_c, 0, 68, 39
1, 153409, Note_on_c, 0, 67, 40
1, 153415, Control_c, 0, 64, 52
1, 153430, Control_c, 0, 64, 45
1, 153430, Control_c, 0, 67, 118
1, 153445, Control_c, 0, 64, 39
1, 153445, Control_c, 0, 67, 119
1, 153460, Control_c, 0, 64, 33
1, 153460, Control_c, 0, 67, 119
1, 153475, Control_c, 0, 64, 19
1, 153475, Control_c, 0, 67, 120
1, 153490, Control_c, 0, 64, 0
1, 153550, Control_c, 0, 67, 120
1, 153579, Control_c, 0, 64, 14
1, 153579, Control_c, 0, 67, 119
1, 153594, Control_c, 0, 64, 37
1, 153594, Control_c, 0, 67, 118
1, 153608, Control_c, 0, 64, 49
1, 153608, Control_c, 0, 67, 117
1, 153623, Control_c, 0, 64, 56
1, 153623, Control_c, 0, 67, 116
1, 153638, Control_c, 0, 64, 60
1, 153638, Control_c, 0, 67, 115
1, 153653, Control_c, 0, 64, 62
1, 153653, Control_c, 0, 67, 114
1, 153668, Control_c, 0, 64, 64
1, 153668, Control_c, 0, 67, 113
1, 153682, Control_c, 0, 64, 66
1, 153682, Control_c, 0, 67, 112
1, 153697, Control_c, 0, 64, 68
1, 153697, Control_c, 0, 67, 111
1, 153712, Control_c, 0, 64, 72
1, 153712, Control_c, 0, 67, 110
1, 153716, Note_off_c, 0, 67, 51
1, 153727, Control_c, 0, 64, 75
1, 153727, Control_c, 0, 67, 109
1, 153742, Control_c, 0, 64, 78
1, 153742, Control_c, 0, 67, 108
1, 153756, Control_c, 0, 64, 83
1, 153756, Control_c, 0, 67, 108
1, 153771, Control_c, 0, 64, 89
1, 153771, Control_c, 0, 67, 107
1, 153786, Control_c, 0, 64, 96
1, 153786, Control_c, 0, 67, 106
1, 153801, Control_c, 0, 64, 104
1, 153801, Control_c, 0, 67, 104
1, 153809, Note_off_c, 0, 61, 50
1, 153815, Control_c, 0, 64, 118
1, 153815, Control_c, 0, 67, 103
1, 153830, Control_c, 0, 64, 127
1, 153830, Control_c, 0, 67, 102
1, 153845, Control_c, 0, 67, 101
1, 153860, Control_c, 0, 67, 100
1, 153874, Control_c, 0, 67, 100
1, 153889, Control_c, 0, 67, 99
1, 153912, Control_c, 0, 67, 98
1, 153927, Control_c, 0, 67, 97
1, 153942, Control_c, 0, 67, 97
1, 153956, Control_c, 0, 67, 96
1, 153971, Control_c, 0, 67, 95
1, 153986, Control_c, 0, 67, 93
1, 154001, Control_c, 0, 67, 91
1, 154015, Control_c, 0, 67, 90
1, 154031, Control_c, 0, 67, 89
1, 154046, Control_c, 0, 67, 88
1, 154061, Control_c, 0, 67, 87
1, 154076, Control_c, 0, 67, 85
1, 154091, Control_c, 0, 67, 83
1, 154105, Control_c, 0, 67, 81
1, 154120, Control_c, 0, 67, 80
1, 154135, Control_c, 0, 67, 78
1, 154150, Control_c, 0, 67, 77
1, 154165, Control_c, 0, 67, 76
1, 154179, Control_c, 0, 67, 74
1, 154194, Control_c, 0, 67, 71
1, 154209, Control_c, 0, 67, 67
1, 154224, Control_c, 0, 67, 59
1, 154238, Control_c, 0, 67, 52
1, 154253, Control_c, 0, 67, 46
1, 154268, Control_c, 0, 67, 42
1, 154283, Control_c, 0, 67, 39
1, 154298, Control_c, 0, 67, 37
1, 154313, Control_c, 0, 67, 33
1, 154328, Control_c, 0, 67, 28
1, 154342, Control_c, 0, 67, 21
1, 154357, Control_c, 0, 67, 14
1, 154372, Control_c, 0, 67, 0
1, 154407, Note_on_c, 0, 68, 41
1, 154536, Note_off_c, 0, 68, 57
1, 154697, Note_on_c, 0, 67, 79
1, 154700, Note_on_c, 0, 61, 69
1, 154748, Note_on_c, 0, 71, 80
1, 154750, Control_c, 0, 64, 105
1, 154764, Control_c, 0, 64, 67
1, 154765, Note_off_c, 0, 67, 65
1, 154778, Note_on_c, 0, 66, 67
1, 154779, Control_c, 0, 64, 29
1, 154794, Control_c, 0, 64, 0
1, 154797, Note_on_c, 0, 74, 81
1, 154799, Note_off_c, 0, 61, 59
1, 154811, Note_off_c, 0, 71, 65
1, 154815, Note_on_c, 0, 70, 74
1, 154852, Note_on_c, 0, 79, 97
1, 154852, Note_off_c, 0, 66, 64
1, 154871, Note_off_c, 0, 74, 67
1, 154873, Note_on_c, 0, 73, 87
1, 154909, Note_off_c, 0, 70, 64
1, 155225, Control_c, 0, 64, 9
1, 155240, Control_c, 0, 64, 36
1, 155255, Control_c, 0, 64, 42
1, 155270, Control_c, 0, 64, 50
1, 155284, Control_c, 0, 64, 60
1, 155299, Control_c, 0, 64, 72
1, 155314, Control_c, 0, 64, 78
1, 155329, Control_c, 0, 64, 85
1, 155344, Control_c, 0, 64, 97
1, 155359, Control_c, 0, 64, 127
1, 155468, Note_off_c, 0, 73, 58
1, 155764, Note_on_c, 0, 76, 92
1, 155783, Note_on_c, 0, 70, 66
1, 155836, Note_off_c, 0, 79, 48
1, 155870, Note_off_c, 0, 70, 62
1, 155871, Note_on_c, 0, 72, 92
1, 155889, Note_on_c, 0, 66, 66
1, 155896, Note_off_c, 0, 76, 64
1, 155937, Note_off_c, 0, 72, 66
1, 155940, Note_off_c, 0, 66, 60
1, 155961, Note_on_c, 0, 67, 90
1, 155967, Note_on_c, 0, 61, 62
1, 156026, Note_off_c, 0, 67, 66
1, 156030, Note_on_c, 0, 71, 84
1, 156032, Note_off_c, 0, 61, 63
1, 156051, Note_on_c, 0, 66, 70
1, 156083, Note_off_c, 0, 71, 67
1, 156090, Note_on_c, 0, 74, 77
1, 156098, Note_off_c, 0, 66, 57
1, 156134, Note_on_c, 0, 70, 48
1, 156134, Note_on_c, 0, 79, 88
1, 156140, Note_off_c, 0, 74, 65
1, 156146, Note_on_c, 0, 73, 67
1, 156173, Note_off_c, 0, 70, 49
1, 156200, Note_on_c, 0, 76, 87
1, 156207, Note_off_c, 0, 73, 60
1, 156222, Note_off_c, 0, 79, 65
1, 156247, Control_c, 0, 64, 77
1, 156257, Note_on_c, 0, 70, 9
1, 156259, Note_on_c, 0, 72, 93
1, 156260, Note_off_c, 0, 76, 65
1, 156262, Control_c, 0, 64, 54
1, 156274, Note_on_c, 0, 66, 66
1, 156276, Control_c, 0, 64, 0
1, 156285, Note_off_c, 0, 70, 43
1, 156316, Note_off_c, 0, 72, 55
1, 156330, Note_on_c, 0, 67, 100
1, 156341, Note_off_c, 0, 66, 63
1, 156343, Note_on_c, 0, 61, 76
1, 156514, Control_c, 0, 64, 19
1, 156529, Control_c, 0, 64, 38
1, 156544, Control_c, 0, 64, 53
1, 156559, Control_c, 0, 64, 64
1, 156573, Control_c, 0, 64, 76
1, 156588, Control_c, 0, 64, 93
1, 156603, Control_c, 0, 64, 127
1, 156612, Note_off_c, 0, 67, 56
1, 157263, Control_c, 0, 64, 85
1, 157278, Control_c, 0, 64, 57
1, 157293, Control_c, 0, 64, 0
1, 157574, Control_c, 0, 64, 26
1, 157589, Control_c, 0, 64, 39
1, 157604, Control_c, 0, 64, 46
1, 157618, Control_c, 0, 64, 53
1, 157633, Control_c, 0, 64, 62
1, 157655, Control_c, 0, 64, 65
1, 157685, Control_c, 0, 64, 66
1, 157685, Control_c, 0, 67, 9
1, 157700, Control_c, 0, 64, 68
1, 157700, Control_c, 0, 67, 12
1, 157715, Control_c, 0, 64, 75
1, 157715, Control_c, 0, 67, 14
1, 157729, Control_c, 0, 64, 83
1, 157729, Control_c, 0, 67, 16
1, 157744, Control_c, 0, 64, 89
1, 157744, Control_c, 0, 67, 19
1, 157759, Control_c, 0, 64, 91
1, 157759, Control_c, 0, 67, 24
1, 157773, Control_c, 0, 64, 95
1, 157773, Control_c, 0, 67, 31
1, 157788, Control_c, 0, 64, 104
1, 157788, Control_c, 0, 67, 37
1, 157803, Control_c, 0, 64, 127
1, 157803, Control_c, 0, 67, 42
1, 157818, Control_c, 0, 67, 48
1, 157833, Control_c, 0, 67, 54
1, 157848, Control_c, 0, 67, 58
1, 157863, Control_c, 0, 67, 62
1, 157878, Control_c, 0, 67, 65
1, 157893, Control_c, 0, 67, 69
1, 157908, Control_c, 0, 67, 73
1, 157922, Control_c, 0, 67, 78
1, 157937, Control_c, 0, 67, 79
1, 157952, Control_c, 0, 67, 80
1, 157967, Control_c, 0, 67, 81
1, 157981, Control_c, 0, 64, 103
1, 157981, Control_c, 0, 67, 82
1, 157996, Control_c, 0, 64, 90
1, 157996, Control_c, 0, 67, 83
1, 158011, Control_c, 0, 64, 76
1, 158011, Control_c, 0, 67, 84
1, 158027, Control_c, 0, 64, 67
1, 158027, Control_c, 0, 67, 84
1, 158036, Note_on_c, 0, 69, 43
1, 158042, Control_c, 0, 64, 58
1, 158042, Control_c, 0, 67, 85
1, 158057, Control_c, 0, 64, 48
1, 158057, Control_c, 0, 67, 87
1, 158071, Control_c, 0, 64, 31
1, 158071, Control_c, 0, 67, 87
1, 158086, Control_c, 0, 64, 0
1, 158086, Control_c, 0, 67, 88
1, 158116, Control_c, 0, 67, 87
1, 158131, Control_c, 0, 67, 87
1, 158145, Control_c, 0, 67, 86
1, 158160, Control_c, 0, 64, 34
1, 158160, Control_c, 0, 67, 86
1, 158164, Note_on_c, 0, 74, 61
1, 158175, Control_c, 0, 64, 51
1, 158175, Control_c, 0, 67, 84
1, 158190, Control_c, 0, 64, 60
1, 158190, Control_c, 0, 67, 81
1, 158200, Note_off_c, 0, 69, 51
1, 158204, Control_c, 0, 64, 64
1, 158204, Control_c, 0, 67, 77
1, 158219, Control_c, 0, 64, 67
1, 158219, Control_c, 0, 67, 74
1, 158229, Note_on_c, 0, 70, 68
1, 158234, Control_c, 0, 64, 72
1, 158234, Control_c, 0, 67, 69
1, 158249, Control_c, 0, 64, 81
1, 158249, Control_c, 0, 67, 63
1, 158256, Note_off_c, 0, 74, 57
1, 158264, Control_c, 0, 64, 93
1, 158264, Control_c, 0, 67, 53
1, 158278, Control_c, 0, 64, 111
1, 158278, Control_c, 0, 67, 37
1, 158293, Control_c, 0, 64, 127
1, 158293, Control_c, 0, 67, 13
1, 158302, Note_on_c, 0, 75, 83
1, 158308, Control_c, 0, 67, 0
1, 158310, Note_off_c, 0, 70, 64
1, 158349, Note_on_c, 0, 63, 73
1, 158405, Note_off_c, 0, 75, 66
1, 158427, Note_on_c, 0, 69, 72
1, 158434, Control_c, 0, 67, 8
1, 158449, Control_c, 0, 67, 11
1, 158450, Note_off_c, 0, 63, 61
1, 158464, Control_c, 0, 67, 15
1, 158478, Control_c, 0, 64, 92
1, 158478, Control_c, 0, 67, 22
1, 158488, Note_on_c, 0, 71, 79
1, 158493, Note_off_c, 0, 69, 66
1, 158493, Control_c, 0, 64, 77
1, 158493, Control_c, 0, 67, 30
1, 158508, Control_c, 0, 64, 68
1, 158508, Control_c, 0, 67, 38
1, 158523, Control_c, 0, 64, 59
1, 158523, Control_c, 0, 67, 45
1, 158538, Control_c, 0, 64, 52
1, 158538, Control_c, 0, 67, 52
1, 158552, Control_c, 0, 64, 45
1, 158552, Control_c, 0, 67, 59
1, 158557, Note_on_c, 0, 68, 66
1, 158567, Control_c, 0, 64, 39
1, 158567, Control_c, 0, 67, 68
1, 158582, Control_c, 0, 64, 31
1, 158582, Control_c, 0, 67, 78
1, 158587, Note_off_c, 0, 71, 59
1, 158596, Control_c, 0, 64, 18
1, 158596, Control_c, 0, 67, 87
1, 158611, Control_c, 0, 64, 0
1, 158611, Control_c, 0, 67, 96
1, 158618, Note_on_c, 0, 73, 70
1, 158626, Control_c, 0, 67, 105
1, 158627, Note_off_c, 0, 68, 65
1, 158641, Control_c, 0, 67, 110
1, 158656, Control_c, 0, 67, 111
1, 158671, Control_c, 0, 67, 112
1, 158686, Control_c, 0, 67, 114
1, 158701, Control_c, 0, 67, 116
1, 158704, Note_on_c, 0, 67, 73
1, 158712, Note_off_c, 0, 73, 65
1, 158715, Control_c, 0, 67, 118
1, 158730, Control_c, 0, 67, 119
1, 158745, Control_c, 0, 67, 121
1, 158760, Control_c, 0, 67, 123
1, 158775, Control_c, 0, 67, 124
1, 158790, Control_c, 0, 67, 125
1, 158804, Control_c, 0, 67, 126
1, 158820, Control_c, 0, 67, 127
1, 158983, Control_c, 0, 64, 25
1, 158998, Control_c, 0, 64, 42
1, 159013, Control_c, 0, 64, 56
1, 159027, Control_c, 0, 64, 62
1, 159042, Control_c, 0, 64, 66
1, 159056, Note_off_c, 0, 67, 58
1, 159057, Control_c, 0, 64, 69
1, 159072, Control_c, 0, 64, 74
1, 159087, Control_c, 0, 64, 81
1, 159101, Control_c, 0, 64, 92
1, 159116, Control_c, 0, 64, 106
1, 159131, Control_c, 0, 64, 114
1, 159154, Control_c, 0, 64, 117
1, 159169, Control_c, 0, 64, 119
1, 159183, Control_c, 0, 64, 124
1, 159198, Control_c, 0, 64, 127
1, 159494, Control_c, 0, 64, 109
1, 159508, Control_c, 0, 64, 98
1, 159523, Control_c, 0, 64, 90
1, 159532, Note_on_c, 0, 69, 45
1, 159538, Control_c, 0, 64, 82
1, 159553, Control_c, 0, 64, 74
1, 159568, Control_c, 0, 64, 67
1, 159583, Control_c, 0, 64, 61
1, 159598, Control_c, 0, 64, 56
1, 159613, Control_c, 0, 64, 52
1, 159628, Control_c, 0, 64, 50
1, 159643, Control_c, 0, 64, 49
1, 159657, Control_c, 0, 64, 45
1, 159672, Control_c, 0, 64, 37
1, 159687, Control_c, 0, 64, 19
1, 159702, Control_c, 0, 64, 0
1, 159719, Note_on_c, 0, 71, 52
1, 159851, Note_off_c, 0, 69, 34
1, 159855, Note_on_c, 0, 68, 56
1, 159997, Note_on_c, 0, 73, 53
1, 160097, Note_off_c, 0, 68, 35
1, 160136, Note_off_c, 0, 71, 29
1, 160171, Note_on_c, 0, 67, 41
1, 160306, Note_off_c, 0, 73, 35
1, 160584, Control_c, 0, 64, 12
1, 160590, Note_off_c, 0, 61, 55
1, 160599, Control_c, 0, 64, 30
1, 160614, Control_c, 0, 64, 44
1, 160629, Control_c, 0, 64, 49
1, 160651, Control_c, 0, 64, 52
1, 160666, Control_c, 0, 64, 54
1, 160680, Control_c, 0, 64, 57
1, 160695, Control_c, 0, 64, 61
1, 160710, Control_c, 0, 64, 62
1, 160725, Control_c, 0, 64, 63
1, 160740, Control_c, 0, 64, 64
1, 160754, Control_c, 0, 64, 65
1, 160769, Control_c, 0, 64, 66
1, 160784, Control_c, 0, 64, 67
1, 160799, Control_c, 0, 64, 67
1, 160933, Control_c, 0, 64, 68
1, 160947, Control_c, 0, 64, 69
1, 160962, Control_c, 0, 64, 70
1, 160977, Control_c, 0, 64, 72
1, 160991, Control_c, 0, 64, 73
1, 161006, Control_c, 0, 64, 74
1, 161021, Control_c, 0, 64, 76
1, 161036, Control_c, 0, 64, 78
1, 161051, Control_c, 0, 64, 84
1, 161065, Control_c, 0, 64, 92
1, 161080, Control_c, 0, 64, 100
1, 161095, Control_c, 0, 64, 108
1, 161095, Control_c, 0, 67, 126
1, 161110, Control_c, 0, 64, 116
1, 161110, Control_c, 0, 67, 125
1, 161125, Control_c, 0, 64, 127
1, 161125, Control_c, 0, 67, 124
1, 161139, Control_c, 0, 67, 123
1, 161169, Control_c, 0, 67, 122
1, 161178, Note_off_c, 0, 67, 40
1, 161184, Control_c, 0, 67, 121
1, 161199, Control_c, 0, 67, 120
1, 161214, Control_c, 0, 67, 119
1, 161229, Control_c, 0, 67, 119
1, 161244, Control_c, 0, 67, 118
1, 161274, Control_c, 0, 67, 117
1, 161288, Control_c, 0, 67, 116
1, 161303, Control_c, 0, 67, 115
1, 161318, Control_c, 0, 67, 115
1, 161333, Control_c, 0, 67, 114
1, 161377, Control_c, 0, 67, 114
1, 161400, Control_c, 0, 67, 113
1, 161415, Control_c, 0, 67, 112
1, 161459, Control_c, 0, 67, 112
1, 161489, Control_c, 0, 67, 111
1, 161503, Control_c, 0, 67, 111
1, 161548, Control_c, 0, 67, 110
1, 161726, Control_c, 0, 67, 111
1, 161829, Control_c, 0, 67, 111
1, 162023, Control_c, 0, 67, 112
1, 162191, Note_on_c, 0, 67, 47
1, 162212, Note_on_c, 0, 61, 41
1, 162360, Note_off_c, 0, 67, 57
1, 162441, Note_on_c, 0, 71, 55
1, 162457, Note_on_c, 0, 66, 43
1, 162465, Note_off_c, 0, 61, 36
1, 162504, Note_off_c, 0, 71, 48
1, 162593, Note_on_c, 0, 74, 55
1, 162593, Control_c, 0, 67, 111
1, 162600, Note_on_c, 0, 70, 46
1, 162600, Note_off_c, 0, 66, 35
1, 162707, Note_off_c, 0, 74, 55
1, 162711, Control_c, 0, 67, 112
1, 162726, Control_c, 0, 67, 112
1, 162739, Note_on_c, 0, 79, 64
1, 162741, Control_c, 0, 64, 101
1, 162741, Control_c, 0, 67, 113
1, 162746, Note_off_c, 0, 70, 33
1, 162756, Note_on_c, 0, 73, 47
1, 162756, Control_c, 0, 64, 80
1, 162756, Control_c, 0, 67, 113
1, 162770, Control_c, 0, 64, 68
1, 162770, Control_c, 0, 67, 114
1, 162785, Control_c, 0, 64, 62
1, 162800, Control_c, 0, 64, 60
1, 162816, Control_c, 0, 64, 61
1, 162831, Control_c, 0, 64, 65
1, 162846, Control_c, 0, 64, 71
1, 162860, Control_c, 0, 64, 79
1, 162875, Control_c, 0, 64, 90
1, 162879, Note_on_c, 0, 70, 45
1, 162881, Note_on_c, 0, 76, 70
1, 162897, Note_off_c, 0, 73, 44
1, 162898, Control_c, 0, 64, 100
1, 162904, Note_off_c, 0, 79, 58
1, 162913, Control_c, 0, 64, 106
1, 162927, Control_c, 0, 64, 109
1, 162942, Control_c, 0, 64, 114
1, 162957, Control_c, 0, 64, 119
1, 162957, Control_c, 0, 67, 114
1, 162972, Control_c, 0, 64, 127
1, 162972, Control_c, 0, 67, 115
1, 162987, Control_c, 0, 67, 116
1, 162990, Note_off_c, 0, 70, 59
1, 163001, Note_off_c, 0, 76, 63
1, 163001, Control_c, 0, 67, 118
1, 163005, Note_on_c, 0, 72, 69
1, 163016, Control_c, 0, 67, 119
1, 163021, Note_on_c, 0, 66, 55
1, 163031, Control_c, 0, 67, 121
1, 163046, Control_c, 0, 67, 122
1, 163061, Control_c, 0, 67, 124
1, 163075, Control_c, 0, 67, 126
1, 163081, Note_off_c, 0, 72, 62
1, 163087, Note_off_c, 0, 66, 51
1, 163090, Control_c, 0, 67, 127
1, 163127, Note_on_c, 0, 67, 69
1, 163147, Note_on_c, 0, 61, 48
1, 163164, Control_c, 0, 64, 124
1, 163179, Control_c, 0, 64, 118
1, 163193, Control_c, 0, 64, 117
1, 163235, Note_on_c, 0, 71, 70
1, 163236, Note_off_c, 0, 67, 57
1, 163249, Note_on_c, 0, 66, 55
1, 163285, Note_off_c, 0, 61, 33
1, 163327, Control_c, 0, 67, 125
1, 163339, Note_on_c, 0, 74, 71
1, 163342, Control_c, 0, 67, 122
1, 163349, Note_off_c, 0, 71, 56
1, 163357, Control_c, 0, 67, 119
1, 163367, Note_on_c, 0, 70, 59
1, 163367, Note_off_c, 0, 66, 53
1, 163372, Control_c, 0, 67, 117
1, 163387, Control_c, 0, 67, 115
1, 163401, Control_c, 0, 67, 113
1, 163416, Control_c, 0, 67, 110
1, 163431, Control_c, 0, 67, 108
1, 163439, Note_on_c, 0, 79, 76
1, 163443, Note_off_c, 0, 74, 65
1, 163446, Control_c, 0, 67, 107
1, 163454, Note_off_c, 0, 70, 59
1, 163461, Control_c, 0, 67, 106
1, 163468, Note_on_c, 0, 73, 56
1, 163475, Control_c, 0, 64, 118
1, 163475, Control_c, 0, 67, 105
1, 163505, Control_c, 0, 67, 104
1, 163520, Control_c, 0, 64, 119
1, 163520, Control_c, 0, 67, 103
1, 163534, Note_off_c, 0, 73, 63
1, 163534, Control_c, 0, 64, 122
1, 163534, Control_c, 0, 67, 103
1, 163546, Note_on_c, 0, 76, 77
1, 163549, Control_c, 0, 64, 127
1, 163565, Note_off_c, 0, 79, 61
1, 163571, Note_on_c, 0, 70, 52
1, 163649, Note_on_c, 0, 72, 85
1, 163654, Note_off_c, 0, 76, 65
1, 163655, Note_off_c, 0, 70, 59
1, 163661, Control_c, 0, 67, 103
1, 163675, Note_on_c, 0, 66, 62
1, 163676, Control_c, 0, 67, 105
1, 163691, Control_c, 0, 67, 105
1, 163705, Control_c, 0, 67, 106
1, 163720, Control_c, 0, 67, 107
1, 163723, Note_off_c, 0, 72, 63
1, 163735, Note_off_c, 0, 66, 55
1, 163735, Control_c, 0, 67, 109
1, 163750, Control_c, 0, 67, 110
1, 163756, Note_on_c, 0, 67, 76
1, 163765, Control_c, 0, 67, 112
1, 163780, Control_c, 0, 67, 113
1, 163783, Note_on_c, 0, 61, 57
1, 163795, Control_c, 0, 67, 114
1, 163810, Control_c, 0, 67, 115
1, 163824, Control_c, 0, 64, 107
1, 163824, Control_c, 0, 67, 116
1, 163839, Control_c, 0, 64, 85
1, 163839, Control_c, 0, 67, 116
1, 163844, Note_on_c, 0, 71, 74
1, 163853, Note_off_c, 0, 67, 64
1, 163854, Control_c, 0, 64, 75
1, 163854, Control_c, 0, 67, 117
1, 163864, Note_on_c, 0, 66, 65
1, 163869, Control_c, 0, 64, 68
1, 163869, Control_c, 0, 67, 116
1, 163884, Control_c, 0, 64, 65
1, 163913, Control_c, 0, 64, 68
1, 163913, Control_c, 0, 67, 115
1, 163920, Note_off_c, 0, 61, 33
1, 163928, Control_c, 0, 64, 72
1, 163928, Control_c, 0, 67, 114
1, 163941, Note_on_c, 0, 74, 77
1, 163943, Control_c, 0, 64, 82
1, 163943, Control_c, 0, 67, 112
1, 163951, Note_on_c, 0, 70, 62
1, 163952, Note_off_c, 0, 71, 59
1, 163958, Control_c, 0, 64, 95
1, 163958, Control_c, 0, 67, 110
1, 163972, Control_c, 0, 64, 115
1, 163972, Control_c, 0, 67, 108
1, 163977, Note_off_c, 0, 66, 38
1, 163987, Control_c, 0, 64, 127
1, 163987, Control_c, 0, 67, 106
1, 164002, Control_c, 0, 67, 104
1, 164016, Control_c, 0, 67, 103
1, 164021, Note_on_c, 0, 79, 76
1, 164021, Note_off_c, 0, 70, 59
1, 164024, Note_off_c, 0, 74, 65
1, 164031, Control_c, 0, 67, 101
1, 164035, Note_on_c, 0, 73, 51
1, 164046, Control_c, 0, 67, 100
1, 164061, Control_c, 0, 67, 98
1, 164076, Control_c, 0, 67, 98
1, 164095, Note_off_c, 0, 73, 59
1, 164107, Note_on_c, 0, 76, 78
1, 164111, Note_off_c, 0, 79, 59
1, 164131, Note_on_c, 0, 70, 55
1, 164165, Control_c, 0, 67, 98
1, 164177, Note_off_c, 0, 70, 59
1, 164194, Note_off_c, 0, 76, 63
1, 164194, Control_c, 0, 67, 100
1, 164196, Note_on_c, 0, 72, 75
1, 164208, Note_on_c, 0, 66, 62
1, 164209, Control_c, 0, 67, 100
1, 164224, Control_c, 0, 67, 101
1, 164239, Control_c, 0, 67, 101
1, 164254, Control_c, 0, 67, 102
1, 164269, Control_c, 0, 64, 86
1, 164284, Control_c, 0, 64, 67
1, 164285, Note_off_c, 0, 66, 50
1, 164287, Note_off_c, 0, 72, 62
1, 164296, Note_on_c, 0, 73, 56
1, 164296, Note_on_c, 0, 79, 69
1, 164298, Control_c, 0, 64, 52
1, 164313, Control_c, 0, 64, 27
1, 164328, Control_c, 0, 64, 0
1, 164358, Control_c, 0, 64, 22
1, 164362, Note_off_c, 0, 73, 57
1, 164367, Note_off_c, 0, 79, 61
1, 164372, Control_c, 0, 64, 39
1, 164372, Control_c, 0, 67, 101
1, 164379, Note_on_c, 0, 74, 68
1, 164381, Note_on_c, 0, 70, 50
1, 164394, Control_c, 0, 64, 53
1, 164394, Control_c, 0, 67, 100
1, 164409, Control_c, 0, 64, 62
1, 164409, Control_c, 0, 67, 100
1, 164425, Control_c, 0, 64, 67
1, 164425, Control_c, 0, 67, 99
1, 164439, Control_c, 0, 64, 72
1, 164439, Control_c, 0, 67, 98
1, 164452, Note_off_c, 0, 74, 63
1, 164454, Note_off_c, 0, 70, 59
1, 164454, Control_c, 0, 64, 76
1, 164454, Control_c, 0, 67, 97
1, 164467, Note_on_c, 0, 71, 71
1, 164469, Control_c, 0, 64, 79
1, 164469, Control_c, 0, 67, 95
1, 164474, Note_on_c, 0, 66, 54
1, 164484, Control_c, 0, 64, 82
1, 164484, Control_c, 0, 67, 92
1, 164499, Control_c, 0, 64, 85
1, 164499, Control_c, 0, 67, 87
1, 164513, Control_c, 0, 64, 87
1, 164513, Control_c, 0, 67, 81
1, 164528, Control_c, 0, 64, 88
1, 164528, Control_c, 0, 67, 74
1, 164534, Note_off_c, 0, 71, 59
1, 164543, Note_off_c, 0, 66, 52
1, 164543, Control_c, 0, 67, 66
1, 164557, Note_on_c, 0, 79, 72
1, 164558, Control_c, 0, 67, 58
1, 164566, Note_on_c, 0, 73, 53
1, 164573, Control_c, 0, 64, 86
1, 164573, Control_c, 0, 67, 49
1, 164588, Control_c, 0, 64, 75
1, 164588, Control_c, 0, 67, 41
1, 164603, Control_c, 0, 64, 61
1, 164603, Control_c, 0, 67, 32
1, 164618, Control_c, 0, 64, 35
1, 164618, Control_c, 0, 67, 23
1, 164633, Control_c, 0, 64, 0
1, 164633, Control_c, 0, 67, 17
1, 164646, Note_off_c, 0, 73, 53
1, 164647, Control_c, 0, 67, 12
1, 164650, Note_on_c, 0, 76, 71
1, 164653, Note_off_c, 0, 79, 63
1, 164662, Control_c, 0, 64, 26
1, 164662, Control_c, 0, 67, 9
1, 164666, Note_on_c, 0, 70, 34
1, 164677, Control_c, 0, 64, 52
1, 164677, Control_c, 0, 67, 0
1, 164692, Control_c, 0, 64, 66
1, 164707, Control_c, 0, 64, 77
1, 164721, Control_c, 0, 64, 94
1, 164733, Note_on_c, 0, 72, 70
1, 164736, Control_c, 0, 64, 127
1, 164739, Note_off_c, 0, 76, 62
1, 164741, Note_off_c, 0, 70, 47
1, 164747, Note_on_c, 0, 66, 57
1, 164802, Note_off_c, 0, 66, 54
1, 164820, Note_off_c, 0, 72, 60
1, 164825, Control_c, 0, 64, 79
1, 164832, Note_on_c, 0, 79, 71
1, 164839, Control_c, 0, 64, 58
1, 164844, Note_on_c, 0, 73, 37
1, 164854, Control_c, 0, 64, 0
1, 164884, Note_off_c, 0, 73, 49
1, 164904, Note_on_c, 0, 70, 39
1, 164905, Note_on_c, 0, 74, 63
1, 164919, Note_off_c, 0, 79, 49
1, 164969, Note_off_c, 0, 70, 45
1, 164987, Note_on_c, 0, 71, 71
1, 164989, Note_off_c, 0, 74, 64
1, 165003, Note_on_c, 0, 66, 52
1, 165032, Control_c, 0, 64, 23
1, 165047, Control_c, 0, 64, 56
1, 165058, Note_on_c, 0, 79, 77
1, 165062, Control_c, 0, 64, 66
1, 165069, Note_off_c, 0, 71, 63
1, 165077, Control_c, 0, 64, 74
1, 165080, Note_on_c, 0, 73, 57
1, 165092, Control_c, 0, 64, 92
1, 165107, Control_c, 0, 64, 127
1, 165111, Note_off_c, 0, 66, 31
1, 165148, Note_on_c, 0, 76, 87
1, 165151, Note_on_c, 0, 70, 55
1, 165154, Note_off_c, 0, 73, 58
1, 165174, Note_off_c, 0, 79, 65
1, 165220, Note_on_c, 0, 72, 82
1, 165233, Note_off_c, 0, 76, 64
1, 165237, Note_off_c, 0, 70, 62
1, 165239, Note_on_c, 0, 66, 68
1, 165297, Note_on_c, 0, 79, 90
1, 165307, Note_off_c, 0, 72, 63
1, 165316, Note_on_c, 0, 73, 63
1, 165317, Note_off_c, 0, 66, 58
1, 165377, Note_on_c, 0, 74, 82
1, 165380, Note_on_c, 0, 70, 67
1, 165381, Note_off_c, 0, 73, 64
1, 165396, Note_off_c, 0, 79, 65
1, 165438, Note_on_c, 0, 71, 84
1, 165446, Note_off_c, 0, 74, 64
1, 165452, Note_off_c, 0, 70, 63
1, 165457, Note_on_c, 0, 66, 69
1, 165470, Control_c, 0, 64, 111
1, 165485, Control_c, 0, 64, 80
1, 165500, Control_c, 0, 64, 63
1, 165501, Note_off_c, 0, 71, 64
1, 165515, Note_on_c, 0, 79, 94
1, 165515, Control_c, 0, 64, 45
1, 165530, Control_c, 0, 64, 28
1, 165534, Note_off_c, 0, 66, 63
1, 165539, Note_on_c, 0, 73, 66
1, 165545, Control_c, 0, 64, 39
1, 165560, Control_c, 0, 64, 57
1, 165575, Control_c, 0, 64, 70
1, 165589, Control_c, 0, 64, 90
1, 165594, Note_on_c, 0, 76, 93
1, 165604, Control_c, 0, 64, 127
1, 165607, Note_off_c, 0, 73, 64
1, 165612, Note_on_c, 0, 70, 65
1, 165617, Note_off_c, 0, 79, 66
1, 165665, Note_on_c, 0, 72, 88
1, 165672, Note_off_c, 0, 76, 65
1, 165676, Note_on_c, 0, 66, 71
1, 165679, Note_off_c, 0, 70, 64
1, 165739, Note_on_c, 0, 79, 95
1, 165741, Note_off_c, 0, 72, 51
1, 165749, Note_on_c, 0, 73, 69
1, 165755, Note_off_c, 0, 66, 63
1, 165810, Note_on_c, 0, 76, 92
1, 165814, Note_off_c, 0, 73, 64
1, 165820, Note_on_c, 0, 70, 72
1, 165836, Note_off_c, 0, 79, 65
1, 165870, Note_on_c, 0, 66, 66
1, 165889, Note_on_c, 0, 72, 89
1, 165890, Note_off_c, 0, 70, 61
1, 165890, Note_off_c, 0, 76, 64
1, 165935, Note_on_c, 0, 73, 68
1, 165951, Note_off_c, 0, 72, 61
1, 165964, Note_on_c, 0, 79, 91
1, 165989, Note_off_c, 0, 66, 61
1, 165995, Note_off_c, 0, 73, 62
1, 166016, Note_on_c, 0, 70, 71
1, 166028, Note_on_c, 0, 76, 87
1, 166034, Note_off_c, 0, 79, 68
1, 166091, Note_off_c, 0, 70, 61
1, 166097, Note_off_c, 0, 76, 64
1, 166105, Note_on_c, 0, 72, 87
1, 166150, Note_off_c, 0, 72, 63
1, 166188, Note_on_c, 0, 66, 81
1, 166246, Note_off_c, 0, 66, 63
1, 166275, Note_on_c, 0, 67, 76
1, 166303, Note_off_c, 0, 67, 68
1, 166315, Note_on_c, 0, 70, 76
1, 166357, Note_off_c, 0, 70, 62
1, 166367, Note_on_c, 0, 71, 85
1, 166409, Note_off_c, 0, 71, 61
1, 166422, Note_on_c, 0, 73, 73
1, 166462, Note_off_c, 0, 73, 63
1, 166489, Note_on_c, 0, 74, 68
1, 166527, Note_off_c, 0, 74, 62
1, 166539, Note_on_c, 0, 78, 72
1, 166546, Control_c, 0, 64, 96
1, 166560, Control_c, 0, 64, 76
1, 166575, Control_c, 0, 64, 59
1, 166577, Note_on_c, 0, 79, 87
1, 166580, Note_off_c, 0, 78, 62
1, 166590, Control_c, 0, 64, 0
1, 166623, Note_off_c, 0, 79, 66
1, 166654, Note_on_c, 0, 70, 81
1, 166701, Control_c, 0, 64, 54
1, 166707, Note_off_c, 0, 70, 64
1, 166710, Note_on_c, 0, 72, 69
1, 166716, Control_c, 0, 64, 73
1, 166731, Control_c, 0, 64, 84
1, 166742, Note_off_c, 0, 72, 66
1, 166746, Control_c, 0, 64, 92
1, 166761, Control_c, 0, 64, 99
1, 166763, Note_on_c, 0, 73, 85
1, 166775, Control_c, 0, 64, 101
1, 166790, Control_c, 0, 64, 102
1, 166805, Control_c, 0, 64, 103
1, 166810, Note_on_c, 0, 76, 90
1, 166812, Note_off_c, 0, 73, 65
1, 166821, Control_c, 0, 64, 104
1, 166835, Control_c, 0, 64, 105
1, 166850, Control_c, 0, 64, 106
1, 166850, Note_off_c, 0, 76, 63
1, 166865, Control_c, 0, 64, 107
1, 166871, Note_on_c, 0, 78, 89
1, 166880, Control_c, 0, 64, 108
1, 166895, Control_c, 0, 64, 109
1, 166910, Control_c, 0, 64, 113
1, 166917, Note_on_c, 0, 79, 91
1, 166920, Note_off_c, 0, 78, 63
1, 166924, Control_c, 0, 64, 119
1, 166939, Control_c, 0, 64, 127
1, 166958, Note_off_c, 0, 79, 66
1, 166975, Note_on_c, 0, 82, 89
1, 167020, Note_off_c, 0, 82, 65
1, 167021, Note_on_c, 0, 84, 91
1, 167064, Note_off_c, 0, 84, 66
1, 167075, Note_on_c, 0, 73, 85
1, 167122, Note_on_c, 0, 76, 90
1, 167135, Note_off_c, 0, 73, 64
1, 167163, Note_off_c, 0, 76, 66
1, 167182, Note_on_c, 0, 78, 90
1, 167219, Note_on_c, 0, 79, 96
1, 167229, Note_off_c, 0, 78, 63
1, 167258, Note_off_c, 0, 79, 66
1, 167280, Note_on_c, 0, 82, 97
1, 167321, Note_on_c, 0, 84, 91
1, 167334, Note_off_c, 0, 82, 65
1, 167364, Note_off_c, 0, 84, 67
1, 167390, Note_on_c, 0, 85, 97
1, 167433, Control_c, 0, 64, 90
1, 167437, Note_on_c, 0, 88, 94
1, 167440, Note_off_c, 0, 85, 66
1, 167448, Control_c, 0, 64, 65
1, 167463, Control_c, 0, 64, 0
1, 167479, Note_off_c, 0, 88, 68
1, 167505, Note_on_c, 0, 78, 88
1, 167557, Note_off_c, 0, 78, 62
1, 167566, Control_c, 0, 64, 60
1, 167571, Note_on_c, 0, 79, 82
1, 167581, Control_c, 0, 64, 84
1, 167596, Control_c, 0, 64, 100
1, 167608, Note_off_c, 0, 79, 64
1, 167612, Note_on_c, 0, 82, 90
1, 167612, Control_c, 0, 64, 105
1, 167627, Control_c, 0, 64, 106
1, 167642, Control_c, 0, 64, 107
1, 167657, Control_c, 0, 64, 116
1, 167659, Note_off_c, 0, 82, 65
1, 167660, Note_on_c, 0, 83, 95
1, 167671, Control_c, 0, 64, 127
1, 167705, Note_off_c, 0, 83, 67
1, 167727, Note_on_c, 0, 85, 94
1, 167779, Note_off_c, 0, 85, 62
1, 167795, Note_on_c, 0, 86, 87
1, 167839, Note_on_c, 0, 90, 96
1, 167846, Note_off_c, 0, 86, 63
1, 167889, Note_off_c, 0, 90, 66
1, 167901, Note_on_c, 0, 91, 92
1, 168058, Note_on_c, 0, 90, 71
1, 168071, Control_c, 0, 64, 106
1, 168086, Control_c, 0, 64, 79
1, 168101, Control_c, 0, 64, 63
1, 168116, Control_c, 0, 64, 43
1, 168138, Control_c, 0, 64, 0
1, 168186, Note_off_c, 0, 90, 57
1, 168195, Note_on_c, 0, 94, 75
1, 168252, Note_off_c, 0, 91, 30
1, 168256, Control_c, 0, 64, 50
1, 168271, Control_c, 0, 64, 59
1, 168275, Note_on_c, 0, 86, 68
1, 168286, Control_c, 0, 64, 63
1, 168301, Control_c, 0, 64, 68
1, 168316, Control_c, 0, 64, 76
1, 168320, Note_off_c, 0, 94, 56
1, 168330, Control_c, 0, 64, 89
1, 168341, Note_off_c, 0, 86, 64
1, 168345, Control_c, 0, 64, 103
1, 168346, Note_on_c, 0, 91, 76
1, 168360, Control_c, 0, 64, 118
1, 168375, Control_c, 0, 64, 127
1, 168393, Note_on_c, 0, 79, 67
1, 168415, Note_off_c, 0, 91, 65
1, 168435, Control_c, 0, 64, 84
1, 168450, Control_c, 0, 64, 63
1, 168451, Note_off_c, 0, 79, 54
1, 168460, Note_on_c, 0, 85, 61
1, 168465, Control_c, 0, 64, 0
1, 168526, Note_on_c, 0, 87, 74
1, 168533, Note_off_c, 0, 85, 61
1, 168553, Control_c, 0, 64, 43
1, 168568, Control_c, 0, 64, 54
1, 168583, Control_c, 0, 64, 56
1, 168594, Note_off_c, 0, 87, 65
1, 168598, Control_c, 0, 64, 59
1, 168601, Note_on_c, 0, 84, 67
1, 168612, Control_c, 0, 64, 65
1, 168627, Control_c, 0, 64, 77
1, 168642, Control_c, 0, 64, 96
1, 168647, Note_on_c, 0, 89, 78
1, 168651, Note_off_c, 0, 84, 64
1, 168657, Control_c, 0, 64, 127
1, 168697, Note_on_c, 0, 83, 74
1, 168707, Note_off_c, 0, 89, 65
1, 168724, Note_on_c, 0, 90, 72
1, 168734, Note_off_c, 0, 83, 60
1, 168761, Control_c, 0, 64, 82
1, 168776, Control_c, 0, 64, 65
1, 168788, Note_on_c, 0, 94, 83
1, 168791, Control_c, 0, 64, 50
1, 168805, Control_c, 0, 64, 32
1, 168820, Control_c, 0, 64, 23
1, 168821, Note_off_c, 0, 90, 66
1, 168832, Note_on_c, 0, 86, 77
1, 168835, Control_c, 0, 64, 32
1, 168850, Control_c, 0, 64, 52
1, 168865, Control_c, 0, 64, 68
1, 168886, Control_c, 0, 64, 78
1, 168895, Note_on_c, 0, 91, 89
1, 168895, Note_off_c, 0, 94, 63
1, 168901, Control_c, 0, 64, 88
1, 168903, Note_off_c, 0, 86, 65
1, 168916, Control_c, 0, 64, 96
1, 168931, Control_c, 0, 64, 101
1, 168937, Note_on_c, 0, 79, 76
1, 168946, Control_c, 0, 64, 113
1, 168961, Control_c, 0, 64, 127
1, 169009, Note_off_c, 0, 91, 63
1, 169035, Control_c, 0, 64, 82
1, 169036, Note_on_c, 0, 85, 89
1, 169038, Note_off_c, 0, 79, 63
1, 169050, Control_c, 0, 64, 63
1, 169065, Control_c, 0, 64, 35
1, 169080, Control_c, 0, 64, 0
1, 169124, Control_c, 0, 64, 25
1, 169137, Note_on_c, 0, 87, 85
1, 169139, Control_c, 0, 64, 50
1, 169153, Control_c, 0, 64, 63
1, 169168, Control_c, 0, 64, 73
1, 169183, Control_c, 0, 64, 79
1, 169198, Control_c, 0, 64, 86
1, 169214, Control_c, 0, 64, 93
1, 169216, Note_on_c, 0, 84, 77
1, 169228, Control_c, 0, 64, 110
1, 169243, Control_c, 0, 64, 127
1, 169247, Note_off_c, 0, 87, 64
1, 169278, Note_on_c, 0, 89, 79
1, 169283, Note_off_c, 0, 85, 29
1, 169294, Note_off_c, 0, 84, 65
1, 169321, Note_on_c, 0, 83, 79
1, 169346, Note_off_c, 0, 89, 64
1, 169348, Note_on_c, 0, 90, 77
1, 169376, Control_c, 0, 64, 92
1, 169378, Note_off_c, 0, 83, 63
1, 169391, Control_c, 0, 64, 79
1, 169405, Note_on_c, 0, 94, 89
1, 169406, Control_c, 0, 64, 76
1, 169421, Control_c, 0, 64, 78
1, 169435, Control_c, 0, 64, 88
1, 169437, Note_off_c, 0, 90, 66
1, 169450, Control_c, 0, 64, 127
1, 169454, Note_on_c, 0, 86, 78
1, 169484, Note_on_c, 0, 91, 81
1, 169494, Note_off_c, 0, 94, 62
1, 169503, Note_off_c, 0, 86, 64
1, 169531, Note_on_c, 0, 79, 83
1, 169572, Note_off_c, 0, 91, 65
1, 169599, Control_c, 0, 64, 78
1, 169599, Note_on_c, 0, 85, 84
1, 169604, Note_off_c, 0, 79, 65
1, 169614, Control_c, 0, 64, 60
1, 169635, Control_c, 0, 64, 42
1, 169650, Control_c, 0, 64, 35
1, 169658, Note_on_c, 0, 87, 71
1, 169665, Control_c, 0, 64, 47
1, 169680, Control_c, 0, 64, 64
1, 169695, Control_c, 0, 64, 78
1, 169696, Note_off_c, 0, 85, 64
1, 169709, Note_on_c, 0, 84, 76
1, 169709, Control_c, 0, 64, 127
1, 169749, Note_on_c, 0, 89, 81
1, 169757, Note_off_c, 0, 87, 62
1, 169770, Note_off_c, 0, 84, 64
1, 169784, Note_on_c, 0, 83, 84
1, 169812, Note_off_c, 0, 89, 64
1, 169825, Note_off_c, 0, 83, 68
1, 169851, Note_on_c, 0, 90, 80
1, 169895, Note_on_c, 0, 94, 89
1, 169921, Note_off_c, 0, 90, 66
1, 169942, Note_on_c, 0, 86, 76
1, 169969, Note_off_c, 0, 94, 64
1, 169984, Note_on_c, 0, 91, 73
1, 170010, Note_off_c, 0, 86, 64
1, 170034, Note_on_c, 0, 79, 74
1, 170049, Note_off_c, 0, 91, 66
1, 170063, Note_off_c, 0, 79, 69
1, 170076, Note_on_c, 0, 85, 78
1, 170133, Note_on_c, 0, 87, 85
1, 170158, Note_off_c, 0, 85, 64
1, 170165, Note_on_c, 0, 84, 77
1, 170191, Note_off_c, 0, 87, 65
1, 170206, Note_off_c, 0, 84, 64
1, 170207, Note_on_c, 0, 89, 76
1, 170251, Note_on_c, 0, 83, 74
1, 170263, Note_off_c, 0, 89, 65
1, 170266, Note_off_c, 0, 83, 70
1, 170288, Control_c, 0, 64, 100
1, 170303, Control_c, 0, 64, 73
1, 170308, Note_on_c, 0, 90, 89
1, 170318, Control_c, 0, 64, 60
1, 170332, Control_c, 0, 64, 49
1, 170347, Note_off_c, 0, 90, 67
1, 170347, Control_c, 0, 64, 46
1, 170361, Note_on_c, 0, 91, 94
1, 170362, Control_c, 0, 64, 41
1, 170384, Control_c, 0, 64, 0
1, 170404, Note_off_c, 0, 91, 66
1, 170408, Note_on_c, 0, 85, 91
1, 170450, Note_off_c, 0, 85, 64
1, 170451, Note_on_c, 0, 86, 95
1, 170490, Note_off_c, 0, 86, 67
1, 170509, Note_on_c, 0, 87, 92
1, 170538, Note_on_c, 0, 89, 93
1, 170549, Note_off_c, 0, 87, 67
1, 170578, Note_off_c, 0, 89, 65
1, 170593, Note_on_c, 0, 85, 97
1, 170627, Note_off_c, 0, 85, 66
1, 170639, Note_on_c, 0, 83, 107
1, 170874, Control_c, 0, 64, 37
1, 170889, Control_c, 0, 64, 61
1, 170904, Control_c, 0, 64, 66
1, 170919, Control_c, 0, 64, 72
1, 170934, Control_c, 0, 64, 89
1, 170948, Control_c, 0, 64, 127
1, 171059, Note_off_c, 0, 83, 65
1, 171142, Note_on_c, 0, 85, 88
1, 171185, Note_off_c, 0, 85, 65
1, 171196, Note_on_c, 0, 81, 89
1, 171234, Note_off_c, 0, 81, 64
1, 171253, Note_on_c, 0, 80, 81
1, 171282, Note_off_c, 0, 80, 63
1, 171284, Note_on_c, 0, 89, 81
1, 171323, Note_off_c, 0, 89, 63
1, 171352, Note_on_c, 0, 82, 89
1, 171376, Note_on_c, 0, 86, 87
1, 171392, Note_off_c, 0, 82, 63
1, 171417, Note_off_c, 0, 86, 65
1, 171429, Control_c, 0, 64, 71
1, 171436, Note_on_c, 0, 80, 94
1, 171444, Control_c, 0, 64, 0
1, 171473, Note_off_c, 0, 80, 65
1, 171484, Note_on_c, 0, 77, 106
1, 171608, Control_c, 0, 64, 22
1, 171623, Control_c, 0, 64, 61
1, 171638, Control_c, 0, 64, 71
1, 171653, Control_c, 0, 64, 85
1, 171667, Control_c, 0, 64, 127
1, 171698, Note_off_c, 0, 77, 66
1, 171763, Note_on_c, 0, 80, 85
1, 171784, Note_off_c, 0, 80, 68
1, 171813, Note_on_c, 0, 81, 78
1, 171843, Note_off_c, 0, 81, 63
1, 171878, Note_on_c, 0, 75, 82
1, 171889, Note_on_c, 0, 74, 68
1, 171900, Note_off_c, 0, 75, 70
1, 171919, Note_off_c, 0, 74, 68
1, 171975, Note_on_c, 0, 75, 10
1, 171980, Note_on_c, 0, 78, 89
1, 171995, Note_on_c, 0, 71, 83
1, 172006, Note_off_c, 0, 78, 66
1, 172015, Note_off_c, 0, 75, 46
1, 172018, Note_off_c, 0, 71, 68
1, 172061, Note_on_c, 0, 75, 96
1, 172075, Control_c, 0, 64, 78
1, 172090, Control_c, 0, 64, 40
1, 172091, Note_off_c, 0, 75, 64
1, 172104, Control_c, 0, 64, 0
1, 172115, Note_on_c, 0, 77, 106
1, 172237, Control_c, 0, 64, 47
1, 172252, Control_c, 0, 64, 64
1, 172267, Control_c, 0, 64, 71
1, 172282, Control_c, 0, 64, 79
1, 172296, Control_c, 0, 64, 92
1, 172306, Note_off_c, 0, 77, 67
1, 172311, Control_c, 0, 64, 127
1, 172383, Note_on_c, 0, 78, 96
1, 172444, Note_off_c, 0, 78, 64
1, 172470, Note_on_c, 0, 79, 96
1, 172519, Note_off_c, 0, 79, 66
1, 172545, Note_on_c, 0, 73, 87
1, 172585, Note_on_c, 0, 74, 99
1, 172587, Note_off_c, 0, 73, 66
1, 172627, Note_off_c, 0, 74, 67
1, 172654, Note_on_c, 0, 75, 97
1, 172697, Note_off_c, 0, 75, 66
1, 172698, Note_on_c, 0, 77, 90
1, 172738, Note_off_c, 0, 77, 66
1, 172751, Note_on_c, 0, 73, 90
1, 172791, Note_off_c, 0, 73, 63
1, 172803, Note_on_c, 0, 71, 92
1, 172827, Note_off_c, 0, 71, 67
1, 172857, Note_on_c, 0, 73, 88
1, 172894, Note_off_c, 0, 73, 64
1, 172908, Note_on_c, 0, 69, 85
1, 172940, Note_off_c, 0, 69, 66
1, 172958, Note_on_c, 0, 68, 88
1, 172994, Note_off_c, 0, 68, 63
1, 173006, Note_on_c, 0, 77, 92
1, 173045, Note_off_c, 0, 77, 66
1, 173051, Note_on_c, 0, 70, 95
1, 173086, Note_off_c, 0, 70, 66
1, 173103, Note_on_c, 0, 74, 97
1, 173137, Note_off_c, 0, 74, 66
1, 173138, Note_on_c, 0, 68, 93
1, 173150, Note_on_c, 0, 76, 12
1, 173151, Note_off_c, 0, 76, 127
1, 173174, Note_off_c, 0, 68, 64
1, 173202, Note_on_c, 0, 65, 100
1, 173240, Note_on_c, 0, 68, 91
1, 173241, Note_off_c, 0, 65, 66
1, 173267, Note_off_c, 0, 68, 64
1, 173304, Note_on_c, 0, 69, 94
1, 173334, Note_on_c, 0, 63, 96
1, 173343, Note_off_c, 0, 69, 68
1, 173380, Note_off_c, 0, 63, 64
1, 173417, Note_on_c, 0, 62, 89
1, 173420, Note_on_c, 0, 64, 87
1, 173441, Note_off_c, 0, 64, 70
1, 173441, Note_off_c, 0, 62, 68
1, 173449, Note_on_c, 0, 66, 87
1, 173488, Note_off_c, 0, 66, 66
1, 173507, Note_on_c, 0, 59, 90
1, 173516, Note_on_c, 0, 64, 23
1, 173532, Note_on_c, 0, 60, 46
1, 173542, Note_off_c, 0, 64, 58
1, 173546, Note_off_c, 0, 59, 68
1, 173557, Note_off_c, 0, 60, 56
1, 173568, Note_on_c, 0, 63, 91
1, 173596, Note_off_c, 0, 63, 67
1, 173609, Note_on_c, 0, 65, 101
1, 173634, Note_off_c, 0, 65, 66
1, 173839, Control_c, 0, 64, 70
1, 173854, Control_c, 0, 64, 0
1, 173864, Note_on_c, 0, 67, 106
1, 173864, Note_on_c, 0, 79, 102
1, 173868, Control_c, 0, 64, 14
1, 173876, Note_on_c, 0, 58, 87
1, 173876, Note_on_c, 0, 64, 85
1, 173876, Note_on_c, 0, 66, 103
1, 173878, Note_on_c, 0, 61, 81
1, 173883, Control_c, 0, 64, 0
1, 173893, Note_on_c, 0, 60, 66
1, 173987, Control_c, 0, 64, 52
1, 173997, Note_off_c, 0, 67, 63
1, 174003, Control_c, 0, 64, 64
1, 174017, Control_c, 0, 64, 79
1, 174032, Control_c, 0, 64, 127
1, 174066, Note_on_c, 0, 67, 89
1, 174068, Note_off_c, 0, 66, 61
1, 174076, Note_off_c, 0, 64, 62
1, 174088, Note_off_c, 0, 58, 60
1, 174089, Note_off_c, 0, 61, 63
1, 174096, Note_off_c, 0, 60, 53
1, 174108, Note_off_c, 0, 67, 65
1, 174154, Note_on_c, 0, 66, 92
1, 174161, Note_on_c, 0, 64, 68
1, 174163, Note_on_c, 0, 61, 54
1, 174169, Note_on_c, 0, 58, 62
1, 174171, Note_on_c, 0, 60, 54
1, 174195, Note_off_c, 0, 64, 64
1, 174196, Note_off_c, 0, 61, 63
1, 174199, Note_off_c, 0, 66, 64
1, 174200, Note_off_c, 0, 60, 62
1, 174206, Note_off_c, 0, 58, 61
1, 174214, Note_on_c, 0, 67, 93
1, 174250, Note_off_c, 0, 67, 66
1, 174264, Note_on_c, 0, 64, 66
1, 174264, Note_on_c, 0, 60, 65
1, 174264, Note_on_c, 0, 66, 78
1, 174274, Note_on_c, 0, 58, 60
1, 174279, Note_on_c, 0, 61, 65
1, 174297, Note_off_c, 0, 64, 64
1, 174300, Note_off_c, 0, 60, 63
1, 174300, Note_off_c, 0, 66, 61
1, 174302, Note_off_c, 0, 58, 67
1, 174302, Note_off_c, 0, 61, 66
1, 174315, Note_on_c, 0, 67, 101
1, 174356, Note_off_c, 0, 67, 66
1, 174369, Note_on_c, 0, 58, 67
1, 174369, Note_on_c, 0, 66, 77
1, 174373, Note_on_c, 0, 64, 74
1, 174374, Note_on_c, 0, 61, 56
1, 174375, Note_on_c, 0, 60, 66
1, 174406, Note_off_c, 0, 64, 67
1, 174407, Note_on_c, 0, 67, 89
1, 174408, Note_off_c, 0, 61, 63
1, 174409, Note_off_c, 0, 60, 62
1, 174410, Note_off_c, 0, 66, 63
1, 174416, Note_off_c, 0, 58, 65
1, 174450, Note_off_c, 0, 79, 65
1, 174466, Note_off_c, 0, 67, 60
1, 174501, Note_on_c, 0, 76, 100
1, 174513, Note_on_c, 0, 66, 84
1, 174516, Note_on_c, 0, 64, 71
1, 174517, Note_on_c, 0, 60, 42
1, 174517, Note_on_c, 0, 61, 54
1, 174527, Note_on_c, 0, 58, 63
1, 174533, Note_on_c, 0, 63, 35
1, 174535, Note_on_c, 0, 59, 49
1, 174555, Note_off_c, 0, 61, 62
1, 174560, Note_off_c, 0, 66, 63
1, 174562, Note_off_c, 0, 59, 59
1, 174564, Note_off_c, 0, 76, 65
1, 174565, Note_off_c, 0, 58, 60
1, 174566, Note_off_c, 0, 63, 54
1, 174569, Note_off_c, 0, 60, 61
1, 174569, Note_off_c, 0, 64, 61
1, 174612, Note_on_c, 0, 72, 105
1, 174657, Note_off_c, 0, 72, 66
1, 174713, Poly_aftertouch_c, 0, 61, 127
1, 174717, Note_on_c, 0, 61, 2
1, 174726, Note_on_c, 0, 66, 99
1, 174727, Note_on_c, 0, 67, 116
1, 174731, Note_on_c, 0, 60, 78
1, 174732, Note_on_c, 0, 58, 87
1, 174800, Note_on_c, 0, 59, 8
1, 174832, Note_off_c, 0, 59, 44
1, 174866, Note_off_c, 0, 60, 61
1, 174887, Note_off_c, 0, 58, 59
1, 174887, Note_off_c, 0, 67, 62
1, 174891, Note_off_c, 0, 66, 61
1, 174919, Note_on_c, 0, 64, 90
1, 174923, Note_off_c, 0, 61, 52
1, 174949, Note_off_c, 0, 64, 64
1, 174988, Note_on_c, 0, 61, 68
1, 174988, Note_on_c, 0, 66, 84
1, 174997, Note_on_c, 0, 58, 60
1, 175000, Note_on_c, 0, 60, 63
1, 175019, Note_off_c, 0, 66, 63
1, 175023, Note_off_c, 0, 61, 67
1, 175027, Note_off_c, 0, 58, 66
1, 175027, Note_off_c, 0, 60, 65
1, 175044, Note_on_c, 0, 64, 92
1, 175076, Note_off_c, 0, 64, 66
1, 175084, Note_on_c, 0, 58, 78
1, 175084, Note_on_c, 0, 66, 95
1, 175089, Note_on_c, 0, 60, 76
1, 175098, Note_on_c, 0, 61, 71
1, 175111, Note_off_c, 0, 58, 67
1, 175116, Note_off_c, 0, 60, 65
1, 175122, Note_off_c, 0, 61, 66
1, 175124, Note_off_c, 0, 66, 62
1, 175136, Note_on_c, 0, 64, 102
1, 175169, Note_on_c, 0, 66, 95
1, 175170, Note_off_c, 0, 64, 67
1, 175171, Note_on_c, 0, 61, 88
1, 175173, Note_on_c, 0, 60, 75
1, 175173, Note_on_c, 0, 58, 81
1, 175203, Note_off_c, 0, 58, 68
1, 175206, Note_off_c, 0, 60, 64
1, 175209, Note_off_c, 0, 61, 63
1, 175212, Note_off_c, 0, 66, 65
1, 175230, Note_on_c, 0, 64, 101
1, 175258, Note_on_c, 0, 66, 98
1, 175262, Note_off_c, 0, 64, 69
1, 175266, Note_on_c, 0, 61, 75
1, 175267, Note_on_c, 0, 60, 83
1, 175269, Note_on_c, 0, 58, 78
1, 175292, Note_off_c, 0, 58, 69
1, 175292, Note_off_c, 0, 60, 66
1, 175295, Note_off_c, 0, 61, 65
1, 175298, Note_off_c, 0, 66, 64
1, 175321, Note_on_c, 0, 64, 109
1, 175347, Note_on_c, 0, 66, 104
1, 175348, Note_on_c, 0, 58, 69
1, 175353, Note_on_c, 0, 60, 77
1, 175356, Note_off_c, 0, 64, 69
1, 175358, Note_on_c, 0, 61, 83
1, 175380, Note_off_c, 0, 61, 67
1, 175383, Note_off_c, 0, 60, 64
1, 175388, Note_off_c, 0, 58, 65
1, 175390, Note_off_c, 0, 66, 63
1, 175412, Note_on_c, 0, 64, 110
1, 175447, Note_on_c, 0, 66, 96
1, 175447, Note_off_c, 0, 64, 67
1, 175448, Note_on_c, 0, 61, 57
1, 175458, Note_on_c, 0, 58, 70
1, 175463, Note_on_c, 0, 60, 74
1, 175488, Note_off_c, 0, 60, 63
1, 175495, Note_off_c, 0, 61, 66
1, 175497, Note_off_c, 0, 58, 66
1, 175501, Note_off_c, 0, 66, 63
1, 175506, Note_on_c, 0, 64, 101
1, 175545, Note_off_c, 0, 64, 67
1, 175581, Note_on_c, 0, 64, 89
1, 175629, Note_off_c, 0, 64, 67
1, 175769, Note_on_c, 0, 67, 111
1, 175770, Note_on_c, 0, 79, 98
1, 175775, Note_on_c, 0, 66, 105
1, 175778, Note_on_c, 0, 64, 84
1, 175780, Note_on_c, 0, 60, 86
1, 175780, Note_on_c, 0, 61, 86
1, 175783, Note_on_c, 0, 58, 81
1, 175849, Control_c, 0, 64, 97
1, 175854, Note_off_c, 0, 67, 63
1, 175864, Control_c, 0, 64, 70
1, 175873, Note_off_c, 0, 58, 64
1, 175878, Control_c, 0, 64, 61
1, 175882, Note_off_c, 0, 64, 63
1, 175893, Control_c, 0, 64, 63
1, 175896, Note_off_c, 0, 66, 63
1, 175897, Note_off_c, 0, 61, 57
1, 175903, Note_off_c, 0, 60, 55
1, 175906, Note_on_c, 0, 67, 93
1, 175908, Control_c, 0, 64, 73
1, 175923, Control_c, 0, 64, 100
1, 175939, Control_c, 0, 64, 127
1, 175946, Note_off_c, 0, 67, 66
1, 175982, Note_on_c, 0, 66, 94
1, 175983, Note_on_c, 0, 60, 68
1, 175986, Note_on_c, 0, 61, 64
1, 175986, Note_on_c, 0, 64, 84
1, 175997, Note_on_c, 0, 58, 58
1, 176020, Note_off_c, 0, 61, 64
1, 176022, Note_off_c, 0, 64, 62
1, 176023, Note_off_c, 0, 58, 66
1, 176023, Note_off_c, 0, 66, 65
1, 176029, Note_off_c, 0, 60, 61
1, 176030, Note_on_c, 0, 67, 98
1, 176063, Note_off_c, 0, 67, 67
1, 176079, Note_on_c, 0, 66, 87
1, 176086, Note_on_c, 0, 60, 67
1, 176091, Note_on_c, 0, 58, 74
1, 176093, Note_on_c, 0, 64, 66
1, 176094, Note_on_c, 0, 61, 71
1, 176120, Note_off_c, 0, 58, 64
1, 176121, Note_off_c, 0, 61, 65
1, 176121, Note_off_c, 0, 64, 66
1, 176124, Note_off_c, 0, 66, 65
1, 176127, Note_off_c, 0, 60, 63
1, 176131, Note_on_c, 0, 67, 103
1, 176169, Note_off_c, 0, 67, 66
1, 176180, Note_on_c, 0, 58, 68
1, 176181, Note_on_c, 0, 61, 60
1, 176181, Note_on_c, 0, 66, 84
1, 176190, Note_on_c, 0, 64, 78
1, 176190, Note_on_c, 0, 60, 75
1, 176217, Note_off_c, 0, 58, 63
1, 176217, Note_off_c, 0, 64, 65
1, 176220, Note_off_c, 0, 60, 63
1, 176220, Note_off_c, 0, 66, 63
1, 176220, Note_off_c, 0, 61, 65
1, 176225, Note_on_c, 0, 67, 104
1, 176267, Note_off_c, 0, 79, 63
1, 176281, Note_off_c, 0, 67, 63
1, 176285, Note_on_c, 0, 66, 83
1, 176294, Note_on_c, 0, 60, 70
1, 176294, Note_on_c, 0, 64, 45
1, 176304, Note_on_c, 0, 61, 64
1, 176306, Note_on_c, 0, 58, 59
1, 176315, Note_on_c, 0, 65, 50
1, 176323, Note_on_c, 0, 76, 97
1, 176339, Note_on_c, 0, 67, 66
1, 176339, Note_off_c, 0, 61, 62
1, 176340, Note_off_c, 0, 58, 63
1, 176341, Note_off_c, 0, 65, 58
1, 176341, Note_off_c, 0, 66, 64
1, 176345, Note_off_c, 0, 64, 64
1, 176350, Note_off_c, 0, 60, 62
1, 176361, Note_off_c, 0, 67, 66
1, 176380, Note_off_c, 0, 76, 65
1, 176440, Note_on_c, 0, 72, 104
1, 176442, Note_on_c, 0, 66, 89
1, 176447, Note_on_c, 0, 58, 50
1, 176453, Note_on_c, 0, 60, 72
1, 176455, Note_on_c, 0, 64, 74
1, 176458, Note_on_c, 0, 61, 54
1, 176481, Note_off_c, 0, 72, 66
1, 176492, Note_off_c, 0, 61, 61
1, 176495, Note_off_c, 0, 66, 64
1, 176499, Note_off_c, 0, 64, 55
1, 176510, Note_off_c, 0, 58, 64
1, 176510, Note_off_c, 0, 60, 61
1, 176556, Note_on_c, 0, 67, 115
1, 176560, Note_on_c, 0, 66, 109
1, 176562, Poly_aftertouch_c, 0, 58, 0
1, 176563, Note_on_c, 0, 61, 92
1, 176565, Note_on_c, 0, 60, 81
1, 176568, Note_on_c, 0, 58, 75
1, 176681, Note_off_c, 0, 67, 67
1, 176693, Note_off_c, 0, 58, 64
1, 176693, Note_off_c, 0, 60, 60
1, 176696, Note_off_c, 0, 66, 60
1, 176696, Note_off_c, 0, 61, 64
1, 176713, Note_on_c, 0, 64, 92
1, 176754, Note_off_c, 0, 64, 64
1, 176781, Note_on_c, 0, 61, 86
1, 176786, Note_on_c, 0, 66, 89
1, 176798, Note_on_c, 0, 58, 75
1, 176809, Note_off_c, 0, 66, 63
1, 176818, Note_off_c, 0, 61, 59
1, 176822, Note_off_c, 0, 58, 68
1, 176838, Note_on_c, 0, 64, 92
1, 176859, Note_on_c, 0, 60, 3
1, 176866, Note_off_c, 0, 60, 0
1, 176875, Note_off_c, 0, 64, 66
1, 176881, Note_on_c, 0, 66, 90
1, 176882, Note_on_c, 0, 58, 79
1, 176887, Note_on_c, 0, 61, 71
1, 176902, Poly_aftertouch_c, 0, 60, 127
1, 176905, Note_off_c, 0, 66, 64
1, 176908, Note_off_c, 0, 61, 68
1, 176911, Note_off_c, 0, 58, 65
1, 176923, Poly_aftertouch_c, 0, 60, 0
1, 176935, Note_on_c, 0, 64, 103
1, 176965, Note_on_c, 0, 61, 74
1, 176966, Note_on_c, 0, 66, 104
1, 176968, Note_on_c, 0, 58, 80
1, 176970, Note_off_c, 0, 64, 70
1, 176973, Note_on_c, 0, 60, 64
1, 176999, Note_off_c, 0, 58, 63
1, 177001, Note_off_c, 0, 61, 65
1, 177003, Note_off_c, 0, 60, 64
1, 177004, Note_off_c, 0, 66, 66
1, 177028, Note_on_c, 0, 64, 105
1, 177060, Note_on_c, 0, 66, 98
1, 177069, Note_on_c, 0, 60, 71
1, 177070, Note_on_c, 0, 58, 86
1, 177071, Note_off_c, 0, 64, 66
1, 177072, Note_on_c, 0, 61, 78
1, 177093, Note_off_c, 0, 58, 69
1, 177094, Note_off_c, 0, 61, 67
1, 177096, Note_off_c, 0, 60, 65
1, 177097, Note_off_c, 0, 66, 66
1, 177133, Note_on_c, 0, 64, 104
1, 177163, Note_off_c, 0, 64, 72
1, 177167, Note_on_c, 0, 61, 60
1, 177170, Note_on_c, 0, 58, 51
1, 177172, Note_on_c, 0, 66, 102
1, 177181, Note_on_c, 0, 60, 65
1, 177205, Note_off_c, 0, 58, 67
1, 177208, Note_off_c, 0, 60, 59
1, 177209, Note_off_c, 0, 61, 62
1, 177210, Note_off_c, 0, 66, 59
1, 177226, Note_on_c, 0, 64, 102
1, 177263, Note_off_c, 0, 64, 68
1, 177272, Note_on_c, 0, 66, 102
1, 177285, Note_on_c, 0, 58, 76
1, 177290, Note_on_c, 0, 61, 66
1, 177293, Note_on_c, 0, 60, 58
1, 177303, Note_off_c, 0, 66, 59
1, 177307, Note_off_c, 0, 58, 69
1, 177313, Note_off_c, 0, 60, 61
1, 177315, Note_on_c, 0, 64, 103
1, 177316, Note_off_c, 0, 61, 65
1, 177349, Note_off_c, 0, 64, 69
1, 177373, Note_on_c, 0, 58, 70
1, 177377, Note_on_c, 0, 66, 79
1, 177391, Note_on_c, 0, 61, 52
1, 177396, Note_on_c, 0, 60, 38
1, 177398, Note_on_c, 0, 64, 94
1, 177402, Note_off_c, 0, 58, 67
1, 177406, Note_off_c, 0, 66, 57
1, 177412, Note_off_c, 0, 61, 56
1, 177427, Note_off_c, 0, 64, 65
1, 177435, Note_off_c, 0, 60, 42
1, 177489, Note_on_c, 0, 58, 31
1, 177513, Note_off_c, 0, 58, 59
1, 177594, Note_on_c, 0, 79, 102
1, 177594, Note_on_c, 0, 67, 106
1, 177596, Note_on_c, 0, 58, 70
1, 177596, Note_on_c, 0, 61, 53
1, 177599, Note_on_c, 0, 60, 64
1, 177609, Note_on_c, 0, 64, 79
1, 177675, Note_off_c, 0, 58, 64
1, 177687, Note_off_c, 0, 60, 61
1, 177695, Note_on_c, 0, 66, 79
1, 177696, Note_off_c, 0, 61, 63
1, 177702, Note_off_c, 0, 64, 61
1, 177733, Note_off_c, 0, 66, 58
1, 177791, Note_on_c, 0, 60, 58
1, 177793, Note_on_c, 0, 61, 42
1, 177817, Note_on_c, 0, 58, 38
1, 177820, Note_on_c, 0, 64, 39
1, 177835, Note_off_c, 0, 60, 59
1, 177840, Note_off_c, 0, 61, 58
1, 177842, Note_on_c, 0, 66, 76
1, 177850, Note_off_c, 0, 64, 64
1, 177852, Note_off_c, 0, 58, 46
1, 177880, Note_off_c, 0, 66, 63
1, 177924, Note_on_c, 0, 60, 61
1, 177938, Note_on_c, 0, 61, 54
1, 177951, Note_on_c, 0, 64, 49
1, 177953, Note_on_c, 0, 58, 41
1, 177972, Note_off_c, 0, 58, 61
1, 177975, Note_off_c, 0, 61, 60
1, 177976, Note_off_c, 0, 60, 58
1, 177982, Note_on_c, 0, 66, 64
1, 177995, Note_off_c, 0, 64, 63
1, 178005, Note_off_c, 0, 79, 61
1, 178012, Note_off_c, 0, 66, 66
1, 178057, Note_on_c, 0, 58, 44
1, 178069, Note_on_c, 0, 76, 105
1, 178074, Note_on_c, 0, 60, 61
1, 178079, Note_on_c, 0, 61, 56
1, 178090, Note_on_c, 0, 64, 61
1, 178128, Note_off_c, 0, 58, 60
1, 178135, Note_off_c, 0, 61, 59
1, 178144, Note_off_c, 0, 60, 60
1, 178150, Note_off_c, 0, 64, 54
1, 178152, Note_on_c, 0, 66, 55
1, 178173, Note_off_c, 0, 67, 61
1, 178192, Note_off_c, 0, 66, 60
1, 178203, Note_off_c, 0, 76, 52
1, 178234, Note_on_c, 0, 72, 103
1, 178234, Note_on_c, 0, 60, 67
1, 178240, Note_on_c, 0, 58, 62
1, 178241, Note_on_c, 0, 61, 59
1, 178249, Note_on_c, 0, 64, 59
1, 178287, Note_off_c, 0, 58, 64
1, 178291, Note_off_c, 0, 72, 65
1, 178296, Note_off_c, 0, 61, 55
1, 178300, Note_off_c, 0, 60, 60
1, 178310, Note_off_c, 0, 64, 60
1, 178314, Note_on_c, 0, 66, 73
1, 178345, Note_on_c, 0, 67, 97
1, 178379, Note_off_c, 0, 66, 58
1, 178389, Note_off_c, 0, 67, 67
1, 178413, Note_on_c, 0, 60, 58
1, 178418, Note_on_c, 0, 58, 38
1, 178432, Note_on_c, 0, 61, 59
1, 178437, Note_on_c, 0, 64, 62
1, 178443, Note_on_c, 0, 70, 104
1, 178491, Note_off_c, 0, 58, 63
1, 178494, Note_off_c, 0, 70, 63
1, 178497, Note_off_c, 0, 61, 60
1, 178497, Note_on_c, 0, 66, 79
1, 178503, Note_off_c, 0, 60, 62
1, 178521, Note_off_c, 0, 64, 63
1, 178546, Note_off_c, 0, 66, 64
1, 178591, Note_on_c, 0, 60, 67
1, 178604, Note_on_c, 0, 58, 54
1, 178604, Note_on_c, 0, 61, 60
1, 178640, Note_off_c, 0, 58, 60
1, 178643, Note_off_c, 0, 61, 62
1, 178650, Note_off_c, 0, 60, 57
1, 178651, Note_on_c, 0, 64, 40
1, 178660, Note_on_c, 0, 66, 78
1, 178672, Note_off_c, 0, 64, 61
1, 178697, Note_off_c, 0, 66, 52
1, 178740, Note_on_c, 0, 61, 53
1, 178745, Note_on_c, 0, 60, 66
1, 178746, Note_on_c, 0, 58, 47
1, 178753, Note_on_c, 0, 64, 49
1, 178798, Note_on_c, 0, 72, 107
1, 178808, Note_on_c, 0, 66, 71
1, 178812, Note_off_c, 0, 58, 45
1, 178815, Note_off_c, 0, 61, 58
1, 178820, Note_off_c, 0, 64, 57
1, 178827, Note_off_c, 0, 60, 60
1, 178871, Note_off_c, 0, 66, 61
1, 178920, Note_off_c, 0, 72, 63
1, 178923, Note_on_c, 0, 60, 60
1, 178933, Note_on_c, 0, 58, 55
1, 178935, Note_on_c, 0, 61, 58
1, 178947, Note_on_c, 0, 64, 54
1, 178965, Note_on_c, 0, 73, 103
1, 178978, Note_off_c, 0, 64, 62
1, 178982, Note_off_c, 0, 61, 61
1, 178983, Note_off_c, 0, 58, 60
1, 178992, Note_off_c, 0, 60, 61
1, 178993, Note_on_c, 0, 66, 69
1, 179027, Note_off_c, 0, 73, 65
1, 179051, Note_off_c, 0, 66, 62
1, 179063, Poly_aftertouch_c, 0, 72, 0
1, 179081, Note_on_c, 0, 78, 93
1, 179081, Note_on_c, 0, 60, 54
1, 179093, Note_on_c, 0, 61, 54
1, 179102, Note_on_c, 0, 58, 49
1, 179105, Note_on_c, 0, 64, 39
1, 179130, Note_off_c, 0, 78, 65
1, 179151, Note_off_c, 0, 58, 56
1, 179169, Note_on_c, 0, 76, 98
1, 179173, Note_off_c, 0, 64, 54
1, 179206, Note_on_c, 0, 66, 45
1, 179219, Note_off_c, 0, 76, 65
1, 179226, Note_off_c, 0, 61, 0
1, 179237, Note_off_c, 0, 66, 52
1, 179260, Note_on_c, 0, 72, 98
1, 179263, Poly_aftertouch_c, 0, 61, 127
1, 179287, Note_off_c, 0, 60, 60
1, 179303, Poly_aftertouch_c, 0, 64, 0
1, 179303, Note_off_c, 0, 72, 65
1, 179313, Poly_aftertouch_c, 0, 61, 0
1, 179315, Note_on_c, 0, 66, 55
1, 179343, Note_off_c, 0, 66, 60
1, 179347, Note_on_c, 0, 67, 91
1, 179403, Note_off_c, 0, 67, 66
1, 179445, Note_on_c, 0, 70, 105
1, 179462, Note_on_c, 0, 60, 72
1, 179466, Note_on_c, 0, 61, 66
1, 179468, Note_on_c, 0, 58, 71
1, 179507, Note_off_c, 0, 70, 65
1, 179558, Note_off_c, 0, 60, 59
1, 179565, Note_off_c, 0, 58, 56
1, 179566, Note_off_c, 0, 61, 58
1, 179570, Note_on_c, 0, 64, 67
1, 179623, Note_off_c, 0, 64, 51
1, 179640, Note_on_c, 0, 66, 110
1, 179687, Note_on_c, 0, 58, 59
1, 179692, Note_on_c, 0, 60, 47
1, 179701, Note_on_c, 0, 61, 48
1, 179738, Note_off_c, 0, 66, 65
1, 179755, Note_off_c, 0, 61, 49
1, 179755, Note_off_c, 0, 60, 57
1, 179767, Note_off_c, 0, 58, 52
1, 179807, Note_on_c, 0, 64, 45
1, 179825, Note_on_c, 0, 67, 103
1, 179846, Note_off_c, 0, 64, 51
1, 179866, Note_on_c, 0, 58, 56
1, 179868, Note_on_c, 0, 61, 62
1, 179868, Note_on_c, 0, 60, 69
1, 179897, Note_off_c, 0, 67, 62
1, 179908, Note_off_c, 0, 61, 57
1, 179917, Note_off_c, 0, 60, 52
1, 179948, Note_on_c, 0, 72, 92
1, 179962, Note_off_c, 0, 58, 0
1, 179966, Note_on_c, 0, 64, 63
1, 179988, Note_off_c, 0, 72, 65
1, 179999, Poly_aftertouch_c, 0, 58, 127
1, 180026, Note_off_c, 0, 64, 61
1, 180032, Poly_aftertouch_c, 0, 58, 0
1, 180035, Note_on_c, 0, 70, 85
1, 180082, Note_off_c, 0, 70, 62
1, 180118, Note_on_c, 0, 66, 91
1, 180175, Note_off_c, 0, 66, 62
1, 180199, Note_on_c, 0, 61, 90
1, 180211, Poly_aftertouch_c, 0, 58, 0
1, 180240, Note_off_c, 0, 61, 63
1, 180249, Poly_aftertouch_c, 0, 58, 0
1, 180267, Control_c, 0, 64, 67
1, 180275, Note_on_c, 0, 61, 75
1, 180282, Control_c, 0, 64, 0
1, 180282, Note_on_c, 0, 64, 103
1, 180292, Note_on_c, 0, 58, 62
1, 180356, Control_c, 0, 64, 61
1, 180370, Control_c, 0, 64, 124
1, 180386, Control_c, 0, 64, 127
1, 180458, Note_off_c, 0, 61, 62
1, 180459, Note_off_c, 0, 58, 55
1, 180487, Note_off_c, 0, 64, 60
1, 180504, Note_on_c, 0, 67, 79
1, 180524, Note_on_c, 0, 60, 51
1, 180534, Note_off_c, 0, 67, 66
1, 180548, Note_off_c, 0, 60, 60
1, 180624, Note_on_c, 0, 66, 60
1, 180645, Note_on_c, 0, 58, 30
1, 180648, Note_on_c, 0, 61, 29
1, 180670, Note_off_c, 0, 66, 61
1, 180674, Note_off_c, 0, 58, 49
1, 180674, Note_off_c, 0, 61, 55
1, 180719, Note_on_c, 0, 67, 67
1, 180739, Note_off_c, 0, 67, 62
1, 180771, Note_on_c, 0, 58, 55
1, 180776, Note_on_c, 0, 61, 53
1, 180777, Note_on_c, 0, 66, 61
1, 180779, Poly_aftertouch_c, 0, 60, 0
1, 180813, Poly_aftertouch_c, 0, 60, 0
1, 180815, Note_off_c, 0, 58, 62
1, 180815, Note_off_c, 0, 61, 64
1, 180815, Note_off_c, 0, 66, 61
1, 180835, Note_on_c, 0, 67, 69
1, 180852, Note_on_c, 0, 60, 39
1, 180869, Note_off_c, 0, 67, 66
1, 180888, Note_off_c, 0, 60, 51
1, 180906, Note_on_c, 0, 58, 57
1, 180914, Note_on_c, 0, 61, 60
1, 180914, Note_on_c, 0, 66, 59
1, 180936, Note_off_c, 0, 58, 56
1, 180938, Note_off_c, 0, 61, 64
1, 180941, Note_off_c, 0, 66, 62
1, 180953, Note_on_c, 0, 67, 73
1, 180958, Note_on_c, 0, 60, 68
1, 180978, Note_off_c, 0, 60, 62
1, 180981, Note_off_c, 0, 67, 65
1, 181013, Note_on_c, 0, 58, 65
1, 181016, Note_on_c, 0, 66, 62
1, 181018, Note_on_c, 0, 61, 61
1, 181042, Note_off_c, 0, 58, 61
1, 181045, Note_off_c, 0, 66, 61
1, 181047, Note_off_c, 0, 61, 64
1, 181056, Note_on_c, 0, 60, 65
1, 181062, Note_on_c, 0, 67, 51
1, 181072, Note_on_c, 0, 65, 52
1, 181075, Note_off_c, 0, 60, 63
1, 181083, Note_off_c, 0, 67, 63
1, 181096, Note_off_c, 0, 65, 58
1, 181120, Note_on_c, 0, 58, 58
1, 181120, Note_on_c, 0, 66, 60
1, 181132, Note_on_c, 0, 61, 54
1, 181138, Note_off_c, 0, 58, 67
1, 181139, Note_off_c, 0, 66, 65
1, 181156, Note_off_c, 0, 61, 59
1, 181158, Note_on_c, 0, 60, 68
1, 181159, Note_on_c, 0, 67, 79
1, 181190, Note_off_c, 0, 67, 62
1, 181191, Note_off_c, 0, 60, 62
1, 181207, Note_on_c, 0, 66, 83
1, 181216, Note_on_c, 0, 61, 77
1, 181218, Note_on_c, 0, 58, 49
1, 181245, Note_off_c, 0, 61, 65
1, 181245, Note_off_c, 0, 58, 61
1, 181251, Note_off_c, 0, 66, 62
1, 181264, Note_on_c, 0, 67, 74
1, 181266, Note_on_c, 0, 60, 75
1, 181287, Note_on_c, 0, 64, 49
1, 181290, Note_off_c, 0, 67, 67
1, 181295, Note_off_c, 0, 60, 63
1, 181307, Note_on_c, 0, 61, 66
1, 181310, Note_on_c, 0, 66, 72
1, 181310, Note_off_c, 0, 64, 61
1, 181311, Note_on_c, 0, 58, 78
1, 181341, Note_off_c, 0, 58, 67
1, 181342, Note_off_c, 0, 61, 64
1, 181344, Note_off_c, 0, 66, 65
1, 181355, Note_on_c, 0, 67, 76
1, 181360, Note_on_c, 0, 60, 80
1, 181370, Note_on_c, 0, 64, 79
1, 181386, Note_off_c, 0, 60, 59
1, 181391, Note_off_c, 0, 67, 63
1, 181395, Note_off_c, 0, 64, 68
1, 181409, Note_on_c, 0, 66, 86
1, 181411, Note_on_c, 0, 61, 74
1, 181414, Note_on_c, 0, 58, 69
1, 181441, Note_off_c, 0, 58, 69
1, 181442, Note_off_c, 0, 61, 66
1, 181448, Note_off_c, 0, 66, 62
1, 181453, Note_on_c, 0, 60, 87
1, 181455, Note_on_c, 0, 64, 79
1, 181455, Note_on_c, 0, 67, 100
1, 181490, Note_off_c, 0, 64, 66
1, 181490, Note_off_c, 0, 60, 58
1, 181490, Note_off_c, 0, 67, 62
1, 181507, Note_on_c, 0, 58, 64
1, 181507, Note_on_c, 0, 61, 80
1, 181510, Note_on_c, 0, 66, 78
1, 181536, Note_off_c, 0, 58, 64
1, 181537, Note_off_c, 0, 61, 64
1, 181540, Note_off_c, 0, 66, 61
1, 181554, Note_on_c, 0, 60, 83
1, 181554, Note_on_c, 0, 67, 90
1, 181555, Note_on_c, 0, 64, 86
1, 181580, Note_off_c, 0, 67, 65
1, 181585, Note_off_c, 0, 60, 61
1, 181590, Note_off_c, 0, 64, 63
1, 181603, Note_on_c, 0, 66, 92
1, 181619, Note_on_c, 0, 58, 66
1, 181620, Note_on_c, 0, 61, 83
1, 181637, Note_off_c, 0, 58, 68
1, 181645, Note_off_c, 0, 61, 67
1, 181654, Note_off_c, 0, 66, 64
1, 181657, Note_on_c, 0, 60, 91
1, 181657, Note_on_c, 0, 67, 94
1, 181662, Note_on_c, 0, 64, 87
1, 181688, Note_off_c, 0, 67, 62
1, 181689, Note_off_c, 0, 64, 64
1, 181692, Note_off_c, 0, 60, 63
1, 181706, Note_on_c, 0, 61, 79
1, 181710, Note_on_c, 0, 58, 78
1, 181710, Note_on_c, 0, 66, 88
1, 181740, Note_off_c, 0, 58, 67
1, 181746, Note_off_c, 0, 61, 64
1, 181752, Note_off_c, 0, 66, 61
1, 181756, Note_on_c, 0, 60, 93
1, 181756, Note_on_c, 0, 67, 103
1, 181757, Note_on_c, 0, 64, 86
1, 181780, Note_off_c, 0, 67, 64
1, 181785, Note_off_c, 0, 60, 64
1, 181788, Note_off_c, 0, 64, 67
1, 181803, Note_on_c, 0, 66, 89
1, 181804, Note_on_c, 0, 58, 82
1, 181807, Note_on_c, 0, 61, 86
1, 181833, Note_off_c, 0, 58, 63
1, 181840, Note_off_c, 0, 61, 66
1, 181846, Note_off_c, 0, 66, 62
1, 181848, Note_on_c, 0, 67, 98
1, 181849, Note_on_c, 0, 60, 99
1, 181854, Note_on_c, 0, 64, 92
1, 181875, Note_off_c, 0, 64, 70
1, 181878, Note_off_c, 0, 60, 61
1, 181878, Note_off_c, 0, 67, 66
1, 181898, Note_on_c, 0, 66, 90
1, 181906, Note_on_c, 0, 58, 82
1, 181906, Note_on_c, 0, 61, 93
1, 181931, Note_off_c, 0, 58, 68
1, 181934, Note_off_c, 0, 61, 67
1, 181940, Note_off_c, 0, 66, 61
1, 181943, Note_on_c, 0, 64, 40
1, 181946, Note_on_c, 0, 60, 103
1, 181946, Note_on_c, 0, 67, 107
1, 181976, Note_off_c, 0, 64, 66
1, 181976, Note_off_c, 0, 67, 62
1, 181978, Note_off_c, 0, 60, 58
1, 181993, Note_on_c, 0, 58, 80
1, 181993, Note_on_c, 0, 66, 96
1, 181997, Note_on_c, 0, 61, 94
1, 182027, Note_off_c, 0, 58, 64
1, 182035, Note_off_c, 0, 61, 64
1, 182035, Note_off_c, 0, 66, 63
1, 182043, Note_on_c, 0, 60, 108
1, 182044, Note_on_c, 0, 67, 110
1, 182049, Note_on_c, 0, 64, 94
1, 182070, Note_off_c, 0, 64, 65
1, 182073, Note_off_c, 0, 67, 65
1, 182076, Note_off_c, 0, 60, 60
1, 182089, Note_on_c, 0, 66, 97
1, 182096, Note_on_c, 0, 61, 90
1, 182097, Note_on_c, 0, 58, 82
1, 182122, Note_off_c, 0, 61, 69
1, 182123, Note_off_c, 0, 58, 67
1, 182131, Note_off_c, 0, 66, 61
1, 182136, Note_on_c, 0, 64, 83
1, 182138, Note_on_c, 0, 60, 106
1, 182138, Note_on_c, 0, 67, 113
1, 182159, Poly_aftertouch_c, 0, 62, 0
1, 182167, Note_off_c, 0, 60, 64
1, 182168, Note_off_c, 0, 64, 60
1, 182171, Note_off_c, 0, 67, 65
1, 182185, Note_on_c, 0, 58, 75
1, 182185, Note_on_c, 0, 66, 94
1, 182193, Note_on_c, 0, 61, 93
1, 182213, Note_off_c, 0, 61, 69
1, 182223, Note_off_c, 0, 66, 62
1, 182229, Note_off_c, 0, 58, 64
1, 182231, Note_on_c, 0, 60, 103
1, 182231, Note_on_c, 0, 67, 113
1, 182234, Note_on_c, 0, 64, 97
1, 182256, Note_off_c, 0, 64, 67
1, 182260, Note_off_c, 0, 60, 63
1, 182260, Note_off_c, 0, 67, 65
1, 182285, Note_on_c, 0, 66, 93
1, 182289, Note_on_c, 0, 61, 88
1, 182292, Note_on_c, 0, 58, 88
1, 182310, Note_off_c, 0, 66, 65
1, 182315, Note_off_c, 0, 61, 68
1, 182318, Note_off_c, 0, 58, 65
1, 182324, Note_on_c, 0, 67, 104
1, 182325, Note_on_c, 0, 60, 103
1, 182330, Note_on_c, 0, 64, 71
1, 182363, Note_off_c, 0, 60, 65
1, 182364, Note_off_c, 0, 64, 56
1, 182365, Note_off_c, 0, 67, 67
1, 182388, Note_on_c, 0, 66, 97
1, 182390, Note_on_c, 0, 58, 90
1, 182391, Note_on_c, 0, 61, 91
1, 182410, Note_off_c, 0, 66, 64
1, 182417, Note_off_c, 0, 61, 63
1, 182427, Note_off_c, 0, 58, 63
1, 182429, Note_on_c, 0, 60, 100
1, 182429, Note_on_c, 0, 67, 111
1, 182433, Note_on_c, 0, 64, 79
1, 182450, Note_on_c, 0, 62, 59
1, 182453, Note_off_c, 0, 67, 61
1, 182461, Note_off_c, 0, 60, 63
1, 182461, Note_off_c, 0, 64, 63
1, 182473, Note_off_c, 0, 62, 64
1, 182480, Note_on_c, 0, 66, 93
1, 182492, Note_on_c, 0, 58, 89
1, 182497, Note_on_c, 0, 61, 79
1, 182515, Note_off_c, 0, 61, 71
1, 182522, Note_on_c, 0, 60, 111
1, 182524, Note_on_c, 0, 64, 81
1, 182524, Note_on_c, 0, 67, 101
1, 182527, Note_off_c, 0, 58, 67
1, 182528, Note_off_c, 0, 66, 64
1, 182533, Note_on_c, 0, 69, 84
1, 182548, Note_off_c, 0, 69, 69
1, 182557, Note_off_c, 0, 60, 66
1, 182563, Note_off_c, 0, 67, 63
1, 182565, Note_off_c, 0, 64, 58
1, 182567, Note_on_c, 0, 66, 89
1, 182575, Note_on_c, 0, 61, 53
1, 182578, Note_on_c, 0, 58, 91
1, 182618, Note_on_c, 0, 60, 104
1, 182618, Note_on_c, 0, 67, 105
1, 182619, Note_off_c, 0, 61, 65
1, 182619, Note_off_c, 0, 66, 65
1, 182621, Note_off_c, 0, 58, 64
1, 182624, Note_on_c, 0, 64, 82
1, 182646, Note_off_c, 0, 60, 65
1, 182648, Note_off_c, 0, 64, 65
1, 182649, Note_off_c, 0, 67, 66
1, 182657, Poly_aftertouch_c, 0, 69, 127
1, 182668, Note_on_c, 0, 66, 100
1, 182673, Note_on_c, 0, 58, 89
1, 182676, Note_on_c, 0, 61, 89
1, 182700, Poly_aftertouch_c, 0, 69, 0
1, 182711, Note_on_c, 0, 64, 86
1, 182714, Note_on_c, 0, 60, 100
1, 182714, Note_on_c, 0, 67, 101
1, 182728, Note_off_c, 0, 61, 64
1, 182729, Note_off_c, 0, 66, 65
1, 182735, Note_off_c, 0, 67, 62
1, 182736, Note_off_c, 0, 60, 61
1, 182753, Note_off_c, 0, 64, 66
1, 182758, Note_on_c, 0, 66, 87
1, 182767, Note_on_c, 0, 61, 73
1, 182803, Note_on_c, 0, 67, 101
1, 182803, Note_off_c, 0, 66, 66
1, 182805, Note_on_c, 0, 60, 103
1, 182808, Note_on_c, 0, 64, 88
1, 182813, Note_off_c, 0, 61, 65
1, 182820, Note_off_c, 0, 58, 70
1, 182858, Note_off_c, 0, 64, 64
1, 182861, Note_off_c, 0, 60, 62
1, 182866, Note_off_c, 0, 67, 63
1, 183062, Control_c, 0, 64, 85
1, 183077, Control_c, 0, 64, 50
1, 183092, Control_c, 0, 64, 0
1, 183120, Note_on_c, 0, 66, 101
1, 183122, Note_on_c, 0, 57, 92
1, 183123, Note_on_c, 0, 62, 92
1, 183129, Note_on_c, 0, 38, 102
1, 183129, Note_on_c, 0, 26, 93
1, 183129, Control_c, 0, 64, 21
1, 183131, Note_on_c, 0, 33, 90
1, 183132, Note_on_c, 0, 30, 66
1, 183144, Control_c, 0, 64, 75
1, 183151, Note_on_c, 0, 36, 58
1, 183159, Note_on_c, 0, 29, 61
1, 183159, Control_c, 0, 64, 127
1, 183165, Note_on_c, 0, 28, 57
1, 183177, Note_off_c, 0, 36, 60
1, 183188, Note_off_c, 0, 57, 65
1, 183200, Note_off_c, 0, 28, 34
1, 183200, Note_off_c, 0, 62, 66
1, 183205, Note_off_c, 0, 29, 44
1, 183213, Note_off_c, 0, 66, 66
1, 183232, Note_off_c, 0, 33, 63
1, 183239, Note_off_c, 0, 30, 62
1, 183241, Note_off_c, 0, 26, 67
1, 183246, Note_off_c, 0, 38, 64
1, 183395, Control_c, 0, 67, 17
1, 183410, Control_c, 0, 67, 50
1, 183425, Control_c, 0, 64, 53
1, 183425, Control_c, 0, 67, 87
1, 183440, Control_c, 0, 64, 0
1, 183440, Control_c, 0, 67, 101
1, 183454, Control_c, 0, 67, 103
1, 183469, Control_c, 0, 67, 112
1, 183484, Control_c, 0, 67, 127
1, 183499, Control_c, 0, 67, 127
1, 184834, Control_c, 0, 64, 19
1, 184849, Control_c, 0, 64, 33
1, 184864, Control_c, 0, 64, 41
1, 184879, Control_c, 0, 64, 46
1, 184894, Control_c, 0, 64, 50
1, 184908, Control_c, 0, 64, 53
1, 184923, Control_c, 0, 64, 55
1, 184938, Control_c, 0, 64, 57
1, 184953, Control_c, 0, 64, 59
1, 184967, Control_c, 0, 64, 61
1, 184982, Control_c, 0, 64, 62
1, 184997, Control_c, 0, 64, 63
1, 185012, Control_c, 0, 64, 64
1, 185026, Control_c, 0, 64, 66
1, 185041, Control_c, 0, 64, 67
1, 185056, Control_c, 0, 64, 69
1, 185071, Control_c, 0, 64, 70
1, 185086, Control_c, 0, 64, 73
1, 185100, Control_c, 0, 64, 76
1, 185115, Control_c, 0, 64, 80
1, 185130, Control_c, 0, 64, 83
1, 185145, Control_c, 0, 64, 86
1, 185159, Control_c, 0, 64, 88
1, 185176, Control_c, 0, 64, 92
1, 185191, Control_c, 0, 64, 95
1, 185205, Control_c, 0, 64, 99
1, 185220, Control_c, 0, 64, 102
1, 185235, Control_c, 0, 64, 105
1, 185249, Control_c, 0, 64, 109
1, 185264, Control_c, 0, 64, 115
1, 185279, Control_c, 0, 64, 127
1, 185405, Note_on_c, 0, 62, 49
1, 185586, Note_off_c, 0, 62, 48
1, 185609, Note_on_c, 0, 66, 42
1, 185652, Note_off_c, 0, 66, 59
1, 185696, Note_on_c, 0, 68, 38
1, 185725, Note_off_c, 0, 68, 52
1, 185748, Note_on_c, 0, 69, 54
1, 185788, Note_on_c, 0, 73, 49
1, 185789, Note_off_c, 0, 69, 67
1, 185860, Note_off_c, 0, 73, 63
1, 185862, Note_on_c, 0, 74, 63
1, 185910, Note_off_c, 0, 74, 57
1, 185937, Note_on_c, 0, 78, 56
1, 185965, Note_off_c, 0, 78, 64
1, 185966, Note_on_c, 0, 80, 67
1, 186002, Note_off_c, 0, 80, 59
1, 186018, Note_on_c, 0, 81, 66
1, 186028, Control_c, 0, 64, 119
1, 186043, Control_c, 0, 64, 106
1, 186058, Control_c, 0, 64, 99
1, 186061, Note_on_c, 0, 85, 71
1, 186072, Control_c, 0, 64, 93
1, 186081, Note_off_c, 0, 81, 62
1, 186087, Control_c, 0, 64, 90
1, 186110, Control_c, 0, 64, 87
1, 186125, Control_c, 0, 64, 84
1, 186128, Note_on_c, 0, 86, 57
1, 186140, Control_c, 0, 64, 82
1, 186153, Note_off_c, 0, 86, 62
1, 186155, Control_c, 0, 64, 79
1, 186161, Note_off_c, 0, 85, 64
1, 186169, Note_on_c, 0, 90, 73
1, 186169, Control_c, 0, 64, 77
1, 186184, Control_c, 0, 64, 74
1, 186199, Control_c, 0, 64, 68
1, 186213, Control_c, 0, 64, 60
1, 186228, Control_c, 0, 64, 45
1, 186237, Note_off_c, 0, 90, 64
1, 186243, Control_c, 0, 64, 0
1, 186245, Note_on_c, 0, 92, 68
1, 186262, Note_on_c, 0, 80, 44
1, 186269, Note_on_c, 0, 69, 42
1, 186280, Note_on_c, 0, 62, 45
1, 186332, Control_c, 0, 64, 16
1, 186347, Control_c, 0, 64, 43
1, 186354, Note_off_c, 0, 80, 0
1, 186361, Control_c, 0, 64, 55
1, 186376, Control_c, 0, 64, 60
1, 186382, Note_on_c, 0, 80, 13
1, 186391, Control_c, 0, 64, 62
1, 186405, Control_c, 0, 64, 65
1, 186420, Control_c, 0, 64, 70
1, 186435, Control_c, 0, 64, 79
1, 186443, Note_off_c, 0, 62, 53
1, 186447, Note_off_c, 0, 69, 46
1, 186450, Control_c, 0, 64, 92
1, 186453, Note_off_c, 0, 80, 38
1, 186465, Control_c, 0, 64, 104
1, 186480, Control_c, 0, 64, 127
1, 187158, Note_on_c, 0, 76, 41
1, 187219, Note_on_c, 0, 78, 39
1, 187224, Note_on_c, 0, 74, 39
1, 187296, Note_off_c, 0, 76, 40
1, 187362, Note_off_c, 0, 74, 45
1, 187444, Note_off_c, 0, 78, 28
1, 187536, Note_off_c, 0, 92, 59
1, 188091, Note_on_c, 0, 90, 56
1, 188123, Note_on_c, 0, 92, 64
1, 188140, Note_on_c, 0, 80, 33
1, 188140, Note_off_c, 0, 90, 52
1, 188149, Note_on_c, 0, 62, 43
1, 188167, Note_on_c, 0, 69, 33
1, 188204, Note_off_c, 0, 80, 36
1, 188295, Note_off_c, 0, 69, 44
1, 188311, Note_off_c, 0, 62, 50
1, 188984, Note_on_c, 0, 76, 25
1, 189030, Note_on_c, 0, 78, 43
1, 189046, Note_on_c, 0, 74, 39
1, 189086, Note_off_c, 0, 76, 31
1, 189114, Note_off_c, 0, 74, 38
1, 189197, Note_off_c, 0, 78, 40
1, 189253, Note_off_c, 0, 92, 60
1, 189877, Note_on_c, 0, 92, 41
1, 189902, Note_on_c, 0, 97, 62
1, 189930, Note_on_c, 0, 62, 42
1, 189930, Note_on_c, 0, 69, 36
1, 189934, Note_on_c, 0, 85, 21
1, 189985, Note_off_c, 0, 92, 35
1, 190024, Note_off_c, 0, 85, 31
1, 190045, Note_off_c, 0, 62, 35
1, 190059, Note_off_c, 0, 69, 42
1, 190253, Note_on_c, 0, 90, 49
1, 190268, Note_off_c, 0, 97, 35
1, 190277, Note_on_c, 0, 92, 66
1, 190304, Note_off_c, 0, 90, 53
1, 190345, Note_off_c, 0, 92, 64
1, 190572, Note_on_c, 0, 76, 41
1, 190625, Note_on_c, 0, 92, 65
1, 190628, Note_on_c, 0, 74, 45
1, 190657, Note_on_c, 0, 78, 29
1, 190669, Note_off_c, 0, 76, 47
1, 190694, Note_off_c, 0, 78, 44
1, 190700, Note_off_c, 0, 74, 50
1, 190706, Note_off_c, 0, 92, 58
1, 190841, Control_c, 0, 67, 127
1, 190856, Control_c, 0, 67, 127
1, 190870, Control_c, 0, 67, 126
1, 190885, Control_c, 0, 67, 123
1, 190900, Control_c, 0, 67, 119
1, 190915, Control_c, 0, 67, 113
1, 190928, Control_c, 0, 67, 109
1, 190943, Control_c, 0, 67, 107
1, 190957, Control_c, 0, 67, 107
1, 190963, Note_on_c, 0, 92, 48
1, 190972, Control_c, 0, 67, 103
1, 190987, Control_c, 0, 67, 98
1, 190996, Note_on_c, 0, 95, 67
1, 190996, Note_off_c, 0, 92, 55
1, 191002, Control_c, 0, 67, 91
1, 191017, Control_c, 0, 67, 84
1, 191028, Note_on_c, 0, 83, 9
1, 191031, Control_c, 0, 67, 79
1, 191046, Control_c, 0, 67, 75
1, 191055, Note_off_c, 0, 95, 62
1, 191061, Control_c, 0, 67, 68
1, 191076, Control_c, 0, 67, 61
1, 191076, Note_off_c, 0, 83, 33
1, 191091, Control_c, 0, 67, 53
1, 191106, Control_c, 0, 67, 46
1, 191121, Control_c, 0, 67, 41
1, 191136, Control_c, 0, 67, 39
1, 191150, Control_c, 0, 67, 34
1, 191165, Control_c, 0, 67, 29
1, 191180, Control_c, 0, 67, 24
1, 191194, Control_c, 0, 67, 20
1, 191209, Control_c, 0, 67, 17
1, 191224, Control_c, 0, 67, 15
1, 191239, Control_c, 0, 67, 13
1, 191254, Control_c, 0, 67, 11
1, 191283, Control_c, 0, 67, 12
1, 191313, Control_c, 0, 67, 12
1, 191328, Control_c, 0, 67, 13
1, 191350, Control_c, 0, 67, 16
1, 191365, Control_c, 0, 67, 19
1, 191380, Control_c, 0, 67, 19
1, 191409, Control_c, 0, 67, 20
1, 191424, Control_c, 0, 67, 23
1, 191439, Control_c, 0, 67, 26
1, 191454, Control_c, 0, 67, 29
1, 191468, Note_on_c, 0, 62, 31
1, 191469, Control_c, 0, 67, 31
1, 191483, Control_c, 0, 67, 34
1, 191484, Note_on_c, 0, 69, 19
1, 191498, Control_c, 0, 67, 42
1, 191513, Control_c, 0, 67, 50
1, 191527, Control_c, 0, 67, 57
1, 191540, Note_on_c, 0, 95, 49
1, 191542, Control_c, 0, 67, 61
1, 191557, Control_c, 0, 67, 66
1, 191573, Control_c, 0, 67, 76
1, 191588, Control_c, 0, 67, 92
1, 191594, Note_on_c, 0, 90, 62
1, 191603, Control_c, 0, 67, 112
1, 191617, Control_c, 0, 67, 125
1, 191632, Control_c, 0, 67, 127
1, 191666, Note_off_c, 0, 69, 42
1, 191666, Note_off_c, 0, 62, 41
1, 191668, Note_off_c, 0, 95, 40
1, 192322, Note_on_c, 0, 76, 22
1, 192388, Note_on_c, 0, 78, 41
1, 192412, Note_on_c, 0, 74, 40
1, 192424, Note_off_c, 0, 76, 35
1, 192540, Note_off_c, 0, 74, 23
1, 192670, Note_off_c, 0, 90, 43
1, 192672, Note_off_c, 0, 78, 39
1, 192862, Control_c, 0, 67, 127
1, 192877, Control_c, 0, 67, 126
1, 192892, Control_c, 0, 67, 125
1, 192907, Control_c, 0, 67, 124
1, 192951, Control_c, 0, 67, 124
1, 192966, Control_c, 0, 67, 123
1, 192981, Control_c, 0, 67, 123
1, 193026, Control_c, 0, 67, 122
1, 193041, Control_c, 0, 67, 122
1, 193055, Control_c, 0, 67, 121
1, 193070, Control_c, 0, 67, 120
1, 193264, Control_c, 0, 67, 121
1, 193294, Note_on_c, 0, 85, 62
1, 193313, Note_on_c, 0, 62, 42
1, 193324, Note_on_c, 0, 69, 32
1, 193372, Note_off_c, 0, 62, 41
1, 193447, Note_off_c, 0, 69, 34
1, 193485, Control_c, 0, 67, 120
1, 193500, Control_c, 0, 67, 120
1, 193559, Control_c, 0, 67, 119
1, 193574, Control_c, 0, 67, 119
1, 193596, Control_c, 0, 67, 118
1, 193611, Control_c, 0, 67, 118
1, 193626, Control_c, 0, 67, 117
1, 193670, Control_c, 0, 67, 116
1, 193685, Control_c, 0, 67, 115
1, 193686, Note_on_c, 0, 90, 60
1, 193700, Control_c, 0, 67, 113
1, 193715, Control_c, 0, 67, 111
1, 193730, Control_c, 0, 67, 110
1, 193744, Control_c, 0, 67, 110
1, 193785, Note_off_c, 0, 85, 29
1, 193792, Note_off_c, 0, 90, 36
1, 193819, Control_c, 0, 67, 111
1, 193833, Control_c, 0, 67, 111
1, 193848, Control_c, 0, 67, 112
1, 193863, Control_c, 0, 67, 112
1, 193878, Control_c, 0, 67, 113
1, 193908, Control_c, 0, 67, 113
1, 193983, Control_c, 0, 67, 114
1, 194074, Note_on_c, 0, 76, 41
1, 194087, Note_on_c, 0, 90, 48
1, 194135, Note_on_c, 0, 83, 53
1, 194161, Note_on_c, 0, 74, 40
1, 194164, Note_on_c, 0, 78, 41
1, 194164, Note_off_c, 0, 76, 52
1, 194169, Note_off_c, 0, 90, 42
1, 194201, Note_off_c, 0, 74, 49
1, 194220, Note_off_c, 0, 78, 43
1, 194279, Control_c, 0, 67, 113
1, 194293, Control_c, 0, 67, 114
1, 194348, Note_off_c, 0, 83, 35
1, 194641, Control_c, 0, 67, 113
1, 194776, Control_c, 0, 67, 114
1, 194939, Control_c, 0, 67, 114
1, 194957, Note_on_c, 0, 85, 43
1, 195008, Note_on_c, 0, 90, 53
1, 195016, Note_on_c, 0, 69, 31
1, 195042, Control_c, 0, 67, 115
1, 195055, Poly_aftertouch_c, 0, 62, 127
1, 195115, Poly_aftertouch_c, 0, 62, 0
1, 195124, Control_c, 0, 67, 115
1, 195127, Note_off_c, 0, 69, 33
1, 195139, Control_c, 0, 67, 116
1, 195143, Note_off_c, 0, 85, 20
1, 195154, Control_c, 0, 67, 116
1, 195183, Control_c, 0, 67, 117
1, 195198, Control_c, 0, 67, 118
1, 195213, Control_c, 0, 67, 119
1, 195228, Control_c, 0, 67, 120
1, 195242, Control_c, 0, 67, 121
1, 195257, Control_c, 0, 67, 121
1, 195272, Control_c, 0, 67, 122
1, 195287, Control_c, 0, 67, 123
1, 195302, Control_c, 0, 67, 124
1, 195316, Control_c, 0, 67, 125
1, 195331, Control_c, 0, 67, 125
1, 195360, Control_c, 0, 67, 126
1, 195375, Control_c, 0, 67, 126
1, 195390, Control_c, 0, 67, 127
1, 195405, Control_c, 0, 67, 127
1, 195436, Note_on_c, 0, 83, 40
1, 195530, Note_off_c, 0, 90, 39
1, 195545, Note_off_c, 0, 83, 48
1, 195936, Note_on_c, 0, 90, 49
1, 195944, Note_on_c, 0, 76, 31
1, 196018, Note_off_c, 0, 76, 36
1, 196039, Note_off_c, 0, 90, 48
1, 196062, Note_on_c, 0, 83, 47
1, 196079, Note_on_c, 0, 74, 38
1, 196085, Note_on_c, 0, 78, 28
1, 196125, Note_off_c, 0, 74, 46
1, 196135, Note_off_c, 0, 78, 44
1, 196160, Note_off_c, 0, 83, 52
1, 196346, Control_c, 0, 67, 127
1, 196362, Control_c, 0, 67, 126
1, 196377, Control_c, 0, 67, 124
1, 196392, Control_c, 0, 67, 122
1, 196406, Control_c, 0, 67, 121
1, 196421, Control_c, 0, 67, 120
1, 196436, Control_c, 0, 67, 118
1, 196451, Control_c, 0, 67, 114
1, 196466, Control_c, 0, 67, 110
1, 196481, Control_c, 0, 67, 107
1, 196495, Control_c, 0, 67, 105
1, 196510, Control_c, 0, 67, 103
1, 196525, Control_c, 0, 67, 101
1, 196540, Control_c, 0, 67, 98
1, 196555, Control_c, 0, 67, 93
1, 196570, Control_c, 0, 67, 85
1, 196592, Control_c, 0, 67, 76
1, 196607, Control_c, 0, 67, 64
1, 196621, Control_c, 0, 67, 51
1, 196636, Control_c, 0, 67, 41
1, 196651, Control_c, 0, 67, 34
1, 196666, Control_c, 0, 67, 28
1, 196681, Control_c, 0, 67, 24
1, 196695, Control_c, 0, 67, 19
1, 196710, Control_c, 0, 67, 13
1, 196725, Control_c, 0, 67, 0
1, 197139, Control_c, 0, 64, 124
1, 197156, Control_c, 0, 64, 103
1, 197171, Control_c, 0, 64, 90
1, 197185, Control_c, 0, 64, 78
1, 197200, Control_c, 0, 64, 66
1, 197215, Control_c, 0, 64, 53
1, 197229, Control_c, 0, 64, 0
1, 197318, Note_on_c, 0, 92, 100
1, 197430, Control_c, 0, 64, 55
1, 197444, Control_c, 0, 64, 79
1, 197459, Control_c, 0, 64, 118
1, 197474, Control_c, 0, 64, 127
1, 197559, Note_off_c, 0, 92, 65
1, 197884, Note_on_c, 0, 95, 103
1, 197958, Note_off_c, 0, 95, 65
1, 198009, Note_on_c, 0, 97, 81
1, 198049, Note_off_c, 0, 97, 66
1, 198068, Note_on_c, 0, 95, 78
1, 198123, Note_on_c, 0, 92, 79
1, 198129, Note_off_c, 0, 95, 66
1, 198163, Note_on_c, 0, 88, 78
1, 198169, Note_off_c, 0, 92, 67
1, 198189, Note_off_c, 0, 88, 70
1, 198207, Note_on_c, 0, 86, 69
1, 198248, Note_on_c, 0, 83, 62
1, 198251, Note_off_c, 0, 86, 62
1, 198301, Note_on_c, 0, 80, 63
1, 198306, Note_off_c, 0, 83, 66
1, 198324, Note_off_c, 0, 80, 67
1, 198354, Note_on_c, 0, 85, 75
1, 198411, Note_on_c, 0, 83, 79
1, 198415, Note_off_c, 0, 85, 62
1, 198448, Note_on_c, 0, 80, 75
1, 198457, Note_off_c, 0, 83, 65
1, 198490, Control_c, 0, 64, 96
1, 198496, Note_on_c, 0, 76, 78
1, 198501, Note_off_c, 0, 80, 64
1, 198505, Control_c, 0, 64, 76
1, 198510, Note_off_c, 0, 76, 69
1, 198519, Control_c, 0, 64, 58
1, 198523, Note_on_c, 0, 74, 59
1, 198534, Control_c, 0, 64, 24
1, 198549, Control_c, 0, 64, 0
1, 198563, Note_on_c, 0, 71, 68
1, 198584, Note_off_c, 0, 74, 62
1, 198614, Note_on_c, 0, 68, 71
1, 198624, Note_off_c, 0, 71, 63
1, 198671, Note_off_c, 0, 68, 66
1, 198676, Note_on_c, 0, 66, 84
1, 198883, Control_c, 0, 64, 22
1, 198898, Control_c, 0, 64, 28
1, 198913, Control_c, 0, 64, 39
1, 198928, Control_c, 0, 64, 54
1, 198943, Control_c, 0, 64, 62
1, 198957, Control_c, 0, 64, 65
1, 198972, Control_c, 0, 64, 68
1, 198987, Control_c, 0, 64, 73
1, 199002, Control_c, 0, 64, 82
1, 199016, Control_c, 0, 64, 98
1, 199031, Control_c, 0, 64, 127
1, 199041, Note_off_c, 0, 66, 62
1, 199602, Control_c, 0, 67, 8
1, 199617, Control_c, 0, 67, 9
1, 199632, Control_c, 0, 67, 9
1, 199646, Control_c, 0, 67, 10
1, 199661, Control_c, 0, 67, 11
1, 199676, Control_c, 0, 67, 13
1, 199691, Control_c, 0, 67, 15
1, 199706, Control_c, 0, 67, 17
1, 199721, Control_c, 0, 67, 19
1, 199736, Control_c, 0, 67, 22
1, 199751, Control_c, 0, 67, 27
1, 199765, Control_c, 0, 67, 32
1, 199780, Control_c, 0, 67, 37
1, 199795, Control_c, 0, 67, 40
1, 199810, Control_c, 0, 67, 41
1, 199825, Control_c, 0, 67, 42
1, 199839, Control_c, 0, 67, 43
1, 199854, Control_c, 0, 67, 45
1, 199869, Control_c, 0, 67, 47
1, 199884, Control_c, 0, 67, 49
1, 199899, Control_c, 0, 64, 99
1, 199913, Control_c, 0, 64, 84
1, 199913, Control_c, 0, 67, 49
1, 199928, Control_c, 0, 64, 71
1, 199928, Control_c, 0, 67, 50
1, 199943, Control_c, 0, 64, 63
1, 199957, Control_c, 0, 64, 53
1, 199972, Control_c, 0, 64, 39
1, 199972, Control_c, 0, 67, 49
1, 199987, Control_c, 0, 64, 0
1, 199987, Control_c, 0, 67, 49
1, 200030, Note_on_c, 0, 80, 45
1, 200031, Control_c, 0, 67, 48
1, 200046, Control_c, 0, 67, 48
1, 200061, Control_c, 0, 67, 47
1, 200076, Control_c, 0, 67, 46
1, 200091, Control_c, 0, 67, 45
1, 200105, Control_c, 0, 67, 44
1, 200120, Control_c, 0, 67, 43
1, 200135, Control_c, 0, 64, 33
1, 200135, Control_c, 0, 67, 41
1, 200150, Control_c, 0, 64, 48
1, 200150, Control_c, 0, 67, 39
1, 200151, Note_on_c, 0, 85, 49
1, 200165, Control_c, 0, 64, 58
1, 200165, Control_c, 0, 67, 36
1, 200180, Control_c, 0, 64, 65
1, 200180, Control_c, 0, 67, 33
1, 200195, Control_c, 0, 64, 74
1, 200195, Control_c, 0, 67, 27
1, 200210, Control_c, 0, 64, 87
1, 200210, Control_c, 0, 67, 12
1, 200215, Note_off_c, 0, 80, 51
1, 200225, Control_c, 0, 64, 127
1, 200225, Control_c, 0, 67, 0
1, 200230, Note_on_c, 0, 81, 75
1, 200268, Note_off_c, 0, 85, 58
1, 200290, Note_on_c, 0, 86, 85
1, 200299, Note_off_c, 0, 81, 65
1, 200347, Note_on_c, 0, 74, 68
1, 200383, Note_off_c, 0, 74, 65
1, 200394, Note_on_c, 0, 80, 62
1, 200394, Note_off_c, 0, 86, 64
1, 200395, Control_c, 0, 64, 96
1, 200410, Control_c, 0, 64, 66
1, 200410, Control_c, 0, 67, 14
1, 200425, Control_c, 0, 64, 0
1, 200425, Control_c, 0, 67, 23
1, 200440, Control_c, 0, 67, 41
1, 200449, Note_on_c, 0, 82, 74
1, 200455, Control_c, 0, 67, 68
1, 200463, Note_off_c, 0, 80, 63
1, 200469, Control_c, 0, 67, 93
1, 200484, Control_c, 0, 67, 112
1, 200488, Note_on_c, 0, 79, 75
1, 200499, Control_c, 0, 67, 119
1, 200514, Control_c, 0, 67, 124
1, 200529, Control_c, 0, 67, 127
1, 200530, Note_off_c, 0, 82, 63
1, 200535, Note_off_c, 0, 79, 63
1, 200551, Note_on_c, 0, 84, 76
1, 200607, Note_on_c, 0, 78, 70
1, 200636, Note_off_c, 0, 84, 64
1, 200722, Note_off_c, 0, 78, 47
1, 200988, Control_c, 0, 64, 25
1, 201003, Control_c, 0, 64, 35
1, 201017, Control_c, 0, 64, 42
1, 201032, Control_c, 0, 64, 47
1, 201047, Control_c, 0, 64, 49
1, 201062, Control_c, 0, 64, 51
1, 201084, Control_c, 0, 64, 54
1, 201099, Control_c, 0, 64, 57
1, 201114, Control_c, 0, 64, 59
1, 201129, Control_c, 0, 64, 61
1, 201143, Control_c, 0, 64, 62
1, 201159, Control_c, 0, 64, 63
1, 201174, Control_c, 0, 64, 64
1, 201189, Control_c, 0, 64, 65
1, 201204, Control_c, 0, 64, 66
1, 201218, Control_c, 0, 64, 67
1, 201233, Control_c, 0, 64, 68
1, 201248, Control_c, 0, 64, 69
1, 201263, Control_c, 0, 64, 69
1, 201278, Control_c, 0, 64, 70
1, 201307, Control_c, 0, 64, 70
1, 201322, Control_c, 0, 64, 71
1, 201352, Control_c, 0, 64, 71
1, 201411, Control_c, 0, 64, 72
1, 201441, Control_c, 0, 64, 72
1, 201500, Control_c, 0, 64, 73
1, 201530, Control_c, 0, 64, 73
1, 201590, Control_c, 0, 64, 74
1, 201608, Note_on_c, 0, 70, 44
1, 201619, Control_c, 0, 64, 74
1, 201760, Note_on_c, 0, 72, 55
1, 201767, Control_c, 0, 64, 74
1, 201782, Control_c, 0, 64, 73
1, 201797, Control_c, 0, 64, 70
1, 201811, Control_c, 0, 64, 66
1, 201834, Control_c, 0, 64, 58
1, 201849, Control_c, 0, 64, 45
1, 201864, Control_c, 0, 64, 23
1, 201864, Note_off_c, 0, 70, 45
1, 201878, Control_c, 0, 64, 0
1, 201900, Note_on_c, 0, 69, 47
1, 201940, Note_off_c, 0, 72, 31
1, 202024, Note_on_c, 0, 74, 51
1, 202222, Note_on_c, 0, 68, 37
1, 202225, Note_off_c, 0, 69, 43
1, 202317, Note_off_c, 0, 74, 31
1, 202597, Control_c, 0, 64, 12
1, 202612, Control_c, 0, 64, 32
1, 202627, Control_c, 0, 64, 44
1, 202641, Control_c, 0, 64, 52
1, 202656, Control_c, 0, 64, 56
1, 202671, Control_c, 0, 64, 59
1, 202686, Control_c, 0, 64, 60
1, 202701, Control_c, 0, 64, 63
1, 202715, Control_c, 0, 64, 65
1, 202730, Control_c, 0, 64, 68
1, 202745, Control_c, 0, 64, 73
1, 202761, Control_c, 0, 64, 79
1, 202773, Note_off_c, 0, 68, 40
1, 202776, Control_c, 0, 64, 85
1, 202790, Control_c, 0, 64, 92
1, 202805, Control_c, 0, 64, 100
1, 202820, Control_c, 0, 64, 110
1, 202835, Control_c, 0, 64, 127
1, 203766, Note_on_c, 0, 68, 24
1, 203805, Control_c, 0, 64, 114
1, 203820, Control_c, 0, 64, 110
1, 203834, Control_c, 0, 64, 109
1, 203837, Note_off_c, 0, 68, 0
1, 203837, Note_on_c, 0, 68, 3
1, 203879, Control_c, 0, 64, 108
1, 203894, Control_c, 0, 64, 106
1, 203909, Control_c, 0, 64, 104
1, 203924, Control_c, 0, 64, 101
1, 203939, Control_c, 0, 64, 96
1, 203953, Control_c, 0, 64, 90
1, 203968, Control_c, 0, 64, 82
1, 203983, Control_c, 0, 64, 74
1, 203997, Control_c, 0, 64, 69
1, 204008, Note_on_c, 0, 71, 37
1, 204012, Control_c, 0, 64, 65
1, 204027, Control_c, 0, 64, 64
1, 204042, Control_c, 0, 64, 64
1, 204057, Control_c, 0, 64, 65
1, 204079, Control_c, 0, 64, 66
1, 204094, Control_c, 0, 64, 68
1, 204109, Control_c, 0, 64, 71
1, 204124, Control_c, 0, 64, 74
1, 204132, Note_on_c, 0, 76, 47
1, 204138, Control_c, 0, 64, 77
1, 204153, Control_c, 0, 64, 80
1, 204168, Control_c, 0, 64, 82
1, 204183, Control_c, 0, 64, 85
1, 204198, Control_c, 0, 64, 90
1, 204212, Control_c, 0, 64, 96
1, 204227, Control_c, 0, 64, 101
1, 204242, Control_c, 0, 64, 103
1, 204244, Note_on_c, 0, 74, 40
1, 204257, Control_c, 0, 64, 104
1, 204272, Control_c, 0, 64, 104
1, 204286, Control_c, 0, 64, 105
1, 204303, Note_off_c, 0, 74, 51
1, 204305, Note_off_c, 0, 76, 47
1, 204305, Note_on_c, 0, 78, 47
1, 204307, Note_off_c, 0, 71, 35
1, 204337, Note_off_c, 0, 78, 53
1, 204347, Note_off_c, 0, 68, 40
1, 204355, Note_on_c, 0, 83, 52
1, 204376, Control_c, 0, 64, 104
1, 204410, Note_off_c, 0, 83, 59
1, 204416, Note_on_c, 0, 80, 62
1, 204450, Control_c, 0, 64, 104
1, 204457, Note_on_c, 0, 78, 54
1, 204465, Control_c, 0, 64, 103
1, 204480, Control_c, 0, 64, 103
1, 204488, Note_off_c, 0, 80, 55
1, 204511, Note_on_c, 0, 76, 65
1, 204511, Note_off_c, 0, 78, 62
1, 204548, Note_off_c, 0, 76, 64
1, 204559, Note_on_c, 0, 74, 47
1, 204581, Note_off_c, 0, 74, 60
1, 204600, Note_on_c, 0, 71, 54
1, 204639, Note_off_c, 0, 71, 58
1, 204663, Note_on_c, 0, 69, 53
1, 204731, Note_on_c, 0, 68, 58
1, 204742, Note_off_c, 0, 69, 39
1, 204761, Note_on_c, 0, 71, 61
1, 204807, Note_off_c, 0, 71, 59
1, 204834, Note_on_c, 0, 76, 64
1, 204874, Note_off_c, 0, 76, 65
1, 204881, Note_off_c, 0, 68, 0
1, 204898, Note_on_c, 0, 74, 64
1, 204918, Poly_aftertouch_c, 0, 68, 127
1, 204945, Note_on_c, 0, 78, 69
1, 204946, Note_off_c, 0, 74, 60
1, 204949, Poly_aftertouch_c, 0, 68, 0
1, 204996, Note_on_c, 0, 83, 72
1, 204999, Note_off_c, 0, 78, 63
1, 205041, Note_on_c, 0, 80, 73
1, 205057, Note_off_c, 0, 83, 62
1, 205086, Note_on_c, 0, 78, 67
1, 205095, Control_c, 0, 64, 103
1, 205095, Control_c, 0, 67, 126
1, 205109, Control_c, 0, 64, 104
1, 205109, Control_c, 0, 67, 126
1, 205121, Note_off_c, 0, 80, 63
1, 205124, Control_c, 0, 64, 104
1, 205126, Note_on_c, 0, 76, 73
1, 205139, Control_c, 0, 64, 106
1, 205141, Note_off_c, 0, 78, 63
1, 205155, Control_c, 0, 64, 111
1, 205155, Control_c, 0, 67, 125
1, 205165, Note_on_c, 0, 74, 72
1, 205170, Control_c, 0, 64, 118
1, 205170, Control_c, 0, 67, 123
1, 205174, Note_off_c, 0, 76, 63
1, 205184, Control_c, 0, 64, 127
1, 205184, Control_c, 0, 67, 121
1, 205190, Note_off_c, 0, 74, 67
1, 205199, Control_c, 0, 67, 120
1, 205226, Note_on_c, 0, 71, 58
1, 205244, Control_c, 0, 67, 120
1, 205258, Control_c, 0, 67, 119
1, 205268, Note_off_c, 0, 71, 56
1, 205273, Control_c, 0, 67, 119
1, 205288, Control_c, 0, 67, 118
1, 205303, Control_c, 0, 67, 117
1, 205316, Note_on_c, 0, 69, 34
1, 205317, Control_c, 0, 67, 117
1, 205332, Control_c, 0, 67, 116
1, 205347, Control_c, 0, 67, 115
1, 205349, Note_off_c, 0, 69, 54
1, 205362, Control_c, 0, 67, 115
1, 205370, Note_on_c, 0, 68, 59
1, 205376, Control_c, 0, 67, 114
1, 205388, Note_on_c, 0, 74, 51
1, 205391, Control_c, 0, 67, 113
1, 205405, Note_off_c, 0, 68, 64
1, 205406, Control_c, 0, 67, 112
1, 205411, Note_off_c, 0, 74, 61
1, 205421, Control_c, 0, 67, 111
1, 205434, Note_on_c, 0, 76, 60
1, 205436, Control_c, 0, 67, 111
1, 205440, Note_on_c, 0, 69, 63
1, 205465, Control_c, 0, 67, 110
1, 205471, Note_off_c, 0, 69, 66
1, 205474, Note_off_c, 0, 76, 58
1, 205480, Control_c, 0, 67, 110
1, 205495, Control_c, 0, 67, 109
1, 205498, Note_on_c, 0, 78, 58
1, 205510, Control_c, 0, 67, 108
1, 205518, Note_on_c, 0, 71, 55
1, 205525, Control_c, 0, 67, 107
1, 205539, Control_c, 0, 67, 107
1, 205549, Note_off_c, 0, 71, 66
1, 205550, Note_off_c, 0, 78, 63
1, 205554, Control_c, 0, 67, 106
1, 205560, Note_on_c, 0, 80, 61
1, 205585, Note_off_c, 0, 80, 65
1, 205596, Note_on_c, 0, 73, 61
1, 205609, Note_on_c, 0, 81, 79
1, 205621, Control_c, 0, 67, 106
1, 205632, Note_off_c, 0, 73, 64
1, 205636, Control_c, 0, 67, 105
1, 205649, Note_off_c, 0, 81, 63
1, 205656, Note_on_c, 0, 83, 75
1, 205671, Note_on_c, 0, 74, 55
1, 205692, Note_off_c, 0, 74, 62
1, 205695, Control_c, 0, 67, 105
1, 205712, Note_off_c, 0, 83, 64
1, 205718, Note_on_c, 0, 85, 82
1, 205730, Note_on_c, 0, 76, 68
1, 205738, Note_off_c, 0, 85, 70
1, 205739, Control_c, 0, 67, 104
1, 205769, Note_off_c, 0, 76, 56
1, 205776, Note_on_c, 0, 86, 77
1, 205823, Note_off_c, 0, 86, 66
1, 205830, Note_on_c, 0, 88, 69
1, 205862, Note_on_c, 0, 90, 81
1, 205871, Note_off_c, 0, 88, 58
1, 205873, Control_c, 0, 64, 96
1, 205873, Control_c, 0, 67, 105
1, 205888, Control_c, 0, 64, 72
1, 205888, Control_c, 0, 67, 106
1, 205903, Control_c, 0, 64, 54
1, 205903, Control_c, 0, 67, 107
1, 205907, Note_off_c, 0, 90, 67
1, 205918, Control_c, 0, 64, 18
1, 205918, Control_c, 0, 67, 108
1, 205932, Control_c, 0, 64, 0
1, 205932, Control_c, 0, 67, 109
1, 205934, Note_on_c, 0, 92, 83
1, 205948, Control_c, 0, 64, 28
1, 205948, Note_on_c, 0, 69, 47
1, 205960, Note_on_c, 0, 62, 48
1, 205963, Note_on_c, 0, 78, 63
1, 205963, Control_c, 0, 64, 53
1, 205978, Control_c, 0, 64, 67
1, 205983, Note_off_c, 0, 78, 61
1, 205993, Note_off_c, 0, 92, 65
1, 205993, Control_c, 0, 64, 80
1, 205993, Control_c, 0, 67, 110
1, 206007, Control_c, 0, 64, 98
1, 206007, Control_c, 0, 67, 111
1, 206022, Control_c, 0, 64, 127
1, 206022, Control_c, 0, 67, 112
1, 206037, Control_c, 0, 67, 112
1, 206039, Note_off_c, 0, 62, 62
1, 206045, Note_off_c, 0, 69, 56
1, 206081, Control_c, 0, 67, 114
1, 206096, Control_c, 0, 67, 117
1, 206111, Control_c, 0, 67, 118
1, 206126, Control_c, 0, 67, 120
1, 206141, Control_c, 0, 67, 122
1, 206155, Control_c, 0, 67, 124
1, 206170, Control_c, 0, 67, 126
1, 206185, Control_c, 0, 67, 127
1, 206421, Note_on_c, 0, 80, 49
1, 206454, Note_on_c, 0, 90, 62
1, 206470, Note_on_c, 0, 71, 46
1, 206477, Note_on_c, 0, 76, 40
1, 206478, Note_on_c, 0, 74, 37
1, 206480, Note_on_c, 0, 92, 78
1, 206485, Note_off_c, 0, 90, 66
1, 206515, Note_off_c, 0, 80, 37
1, 206524, Note_off_c, 0, 92, 66
1, 206532, Note_off_c, 0, 76, 56
1, 206536, Note_off_c, 0, 74, 60
1, 206541, Note_off_c, 0, 71, 61
1, 206891, Note_on_c, 0, 76, 44
1, 206891, Note_on_c, 0, 78, 54
1, 206922, Note_off_c, 0, 78, 64
1, 206931, Note_off_c, 0, 76, 47
1, 206932, Note_on_c, 0, 90, 65
1, 206964, Note_on_c, 0, 74, 50
1, 206964, Note_off_c, 0, 90, 62
1, 206973, Note_on_c, 0, 85, 59
1, 206978, Note_on_c, 0, 92, 72
1, 206988, Note_off_c, 0, 74, 63
1, 206996, Note_on_c, 0, 80, 74
1, 207222, Control_c, 0, 67, 124
1, 207237, Control_c, 0, 67, 120
1, 207252, Control_c, 0, 67, 117
1, 207267, Control_c, 0, 67, 112
1, 207282, Control_c, 0, 67, 105
1, 207296, Control_c, 0, 67, 98
1, 207311, Control_c, 0, 67, 90
1, 207326, Control_c, 0, 67, 77
1, 207341, Control_c, 0, 67, 55
1, 207355, Control_c, 0, 67, 22
1, 207370, Control_c, 0, 67, 0
1, 207403, Note_on_c, 0, 73, 56
1, 207429, Control_c, 0, 67, 9
1, 207444, Note_off_c, 0, 73, 57
1, 207444, Control_c, 0, 67, 36
1, 207450, Note_on_c, 0, 74, 57
1, 207459, Control_c, 0, 67, 75
1, 207474, Control_c, 0, 67, 117
1, 207479, Note_on_c, 0, 71, 41
1, 207489, Control_c, 0, 67, 127
1, 207507, Note_on_c, 0, 76, 72
1, 207507, Note_off_c, 0, 71, 49
1, 207511, Note_off_c, 0, 74, 63
1, 207539, Note_off_c, 0, 76, 64
1, 207577, Note_off_c, 0, 85, 63
1, 207582, Note_off_c, 0, 80, 61
1, 207617, Note_off_c, 0, 92, 64
1, 207746, Note_on_c, 0, 74, 47
1, 207778, Note_off_c, 0, 74, 66
1, 207789, Note_on_c, 0, 76, 57
1, 207809, Note_off_c, 0, 76, 61
1, 207859, Note_on_c, 0, 78, 54
1, 207880, Note_off_c, 0, 78, 60
1, 207882, Note_on_c, 0, 92, 62
1, 207904, Note_off_c, 0, 92, 66
1, 207939, Note_on_c, 0, 92, 75
1, 207972, Note_off_c, 0, 92, 65
1, 207986, Control_c, 0, 64, 98
1, 207992, Note_on_c, 0, 97, 79
1, 208001, Control_c, 0, 64, 78
1, 208015, Note_on_c, 0, 85, 54
1, 208016, Control_c, 0, 64, 67
1, 208031, Control_c, 0, 64, 63
1, 208033, Note_on_c, 0, 69, 54
1, 208035, Note_off_c, 0, 85, 62
1, 208040, Note_on_c, 0, 62, 56
1, 208045, Control_c, 0, 64, 65
1, 208052, Note_off_c, 0, 97, 67
1, 208060, Control_c, 0, 64, 72
1, 208075, Control_c, 0, 64, 85
1, 208090, Control_c, 0, 64, 113
1, 208105, Control_c, 0, 64, 127
1, 208129, Note_off_c, 0, 62, 61
1, 208134, Control_c, 0, 67, 123
1, 208149, Note_off_c, 0, 69, 39
1, 208150, Control_c, 0, 67, 121
1, 208165, Control_c, 0, 67, 119
1, 208179, Control_c, 0, 67, 117
1, 208194, Control_c, 0, 67, 115
1, 208209, Control_c, 0, 67, 114
1, 208224, Control_c, 0, 67, 113
1, 208239, Control_c, 0, 67, 113
1, 208243, Note_on_c, 0, 90, 31
1, 208253, Control_c, 0, 67, 112
1, 208256, Note_on_c, 0, 92, 71
1, 208267, Note_on_c, 0, 80, 47
1, 208268, Control_c, 0, 67, 112
1, 208276, Note_off_c, 0, 90, 45
1, 208283, Control_c, 0, 67, 110
1, 208286, Note_off_c, 0, 92, 66
1, 208290, Note_off_c, 0, 80, 58
1, 208298, Control_c, 0, 67, 108
1, 208313, Control_c, 0, 67, 105
1, 208327, Control_c, 0, 67, 102
1, 208343, Control_c, 0, 67, 98
1, 208358, Control_c, 0, 67, 94
1, 208373, Control_c, 0, 67, 88
1, 208387, Control_c, 0, 67, 78
1, 208402, Control_c, 0, 67, 61
1, 208417, Control_c, 0, 67, 42
1, 208432, Control_c, 0, 67, 19
1, 208447, Control_c, 0, 67, 0
1, 208469, Note_on_c, 0, 80, 38
1, 208494, Note_on_c, 0, 78, 52
1, 208496, Note_off_c, 0, 80, 56
1, 208500, Note_on_c, 0, 71, 48
1, 208511, Note_on_c, 0, 74, 49
1, 208514, Note_on_c, 0, 76, 60
1, 208527, Note_on_c, 0, 92, 81
1, 208550, Control_c, 0, 67, 21
1, 208573, Note_off_c, 0, 92, 64
1, 208573, Control_c, 0, 67, 47
1, 208588, Control_c, 0, 67, 82
1, 208602, Control_c, 0, 67, 113
1, 208617, Control_c, 0, 67, 116
1, 208632, Control_c, 0, 67, 117
1, 208640, Note_off_c, 0, 78, 22
1, 208647, Control_c, 0, 67, 120
1, 208662, Control_c, 0, 67, 124
1, 208676, Control_c, 0, 67, 126
1, 208678, Note_off_c, 0, 74, 58
1, 208687, Note_off_c, 0, 76, 53
1, 208691, Control_c, 0, 67, 127
1, 208700, Note_off_c, 0, 71, 57
1, 208750, Note_on_c, 0, 92, 77
1, 208793, Note_off_c, 0, 92, 63
1, 208795, Note_on_c, 0, 95, 87
1, 208807, Note_on_c, 0, 83, 66
1, 208834, Note_off_c, 0, 83, 68
1, 208845, Note_off_c, 0, 95, 67
1, 208983, Note_on_c, 0, 78, 51
1, 209035, Note_off_c, 0, 78, 43
1, 209049, Note_on_c, 0, 76, 50
1, 209064, Note_on_c, 0, 95, 68
1, 209086, Note_off_c, 0, 95, 59
1, 209130, Note_off_c, 0, 76, 57
1, 209137, Note_on_c, 0, 90, 84
1, 209164, Note_on_c, 0, 74, 56
1, 209226, Note_off_c, 0, 74, 64
1, 209550, Poly_aftertouch_c, 0, 85, 127
1, 209558, Control_c, 0, 64, 113
1, 209573, Control_c, 0, 64, 93
1, 209588, Control_c, 0, 64, 70
1, 209602, Control_c, 0, 64, 51
1, 209608, Note_on_c, 0, 73, 51
1, 209617, Control_c, 0, 64, 0
1, 209655, Note_on_c, 0, 74, 55
1, 209667, Note_off_c, 0, 73, 52
1, 209707, Note_on_c, 0, 76, 66
1, 209725, Poly_aftertouch_c, 0, 85, 0
1, 209731, Poly_aftertouch_c, 0, 71, 127
1, 209733, Note_off_c, 0, 90, 65
1, 209736, Control_c, 0, 64, 45
1, 209750, Control_c, 0, 64, 57
1, 209765, Control_c, 0, 64, 63
1, 209780, Control_c, 0, 64, 70
1, 209784, Poly_aftertouch_c, 0, 71, 0
1, 209795, Control_c, 0, 64, 78
1, 209810, Control_c, 0, 64, 90
1, 209820, Poly_aftertouch_c, 0, 71, 127
1, 209824, Control_c, 0, 64, 107
1, 209839, Control_c, 0, 64, 127
1, 209847, Note_off_c, 0, 74, 23
1, 209898, Note_off_c, 0, 76, 59
1, 209916, Poly_aftertouch_c, 0, 71, 0
1, 210081, Note_on_c, 0, 74, 63
1, 210124, Note_off_c, 0, 74, 61
1, 210143, Note_on_c, 0, 76, 61
1, 210190, Note_off_c, 0, 76, 61
1, 210205, Note_on_c, 0, 78, 64
1, 210233, Control_c, 0, 67, 125
1, 210234, Note_off_c, 0, 78, 63
1, 210247, Control_c, 0, 67, 121
1, 210262, Note_on_c, 0, 79, 77
1, 210262, Control_c, 0, 67, 119
1, 210277, Control_c, 0, 67, 119
1, 210284, Note_off_c, 0, 79, 69
1, 210292, Control_c, 0, 67, 117
1, 210307, Control_c, 0, 67, 115
1, 210321, Control_c, 0, 67, 110
1, 210336, Control_c, 0, 67, 106
1, 210342, Poly_aftertouch_c, 0, 79, 127
1, 210351, Control_c, 0, 67, 101
1, 210366, Control_c, 0, 67, 98
1, 210380, Control_c, 0, 67, 94
1, 210393, Note_on_c, 0, 85, 81
1, 210395, Control_c, 0, 64, 108
1, 210395, Control_c, 0, 67, 89
1, 210406, Note_on_c, 0, 69, 52
1, 210410, Control_c, 0, 64, 79
1, 210410, Control_c, 0, 67, 83
1, 210422, Note_on_c, 0, 62, 47
1, 210425, Control_c, 0, 64, 61
1, 210425, Control_c, 0, 67, 77
1, 210440, Control_c, 0, 64, 31
1, 210440, Control_c, 0, 67, 67
1, 210455, Control_c, 0, 64, 0
1, 210455, Control_c, 0, 67, 54
1, 210470, Control_c, 0, 67, 38
1, 210482, Note_off_c, 0, 62, 0
1, 210482, Note_on_c, 0, 62, 16
1, 210485, Control_c, 0, 67, 21
1, 210500, Control_c, 0, 67, 0
1, 210514, Control_c, 0, 64, 35
1, 210529, Control_c, 0, 64, 57
1, 210544, Control_c, 0, 64, 68
1, 210559, Control_c, 0, 64, 76
1, 210573, Control_c, 0, 64, 85
1, 210588, Control_c, 0, 64, 97
1, 210603, Control_c, 0, 64, 110
1, 210613, Note_off_c, 0, 62, 56
1, 210618, Control_c, 0, 64, 127
1, 210633, Note_off_c, 0, 85, 57
1, 210652, Poly_aftertouch_c, 0, 79, 0
1, 210657, Note_off_c, 0, 69, 62
1, 210679, Note_on_c, 0, 90, 72
1, 210707, Note_off_c, 0, 90, 68
1, 210796, Control_c, 0, 67, 8
1, 210834, Control_c, 0, 67, 9
1, 210845, Note_on_c, 0, 81, 72
1, 210848, Control_c, 0, 67, 10
1, 210863, Control_c, 0, 67, 12
1, 210873, Note_off_c, 0, 81, 67
1, 210878, Control_c, 0, 67, 15
1, 210893, Control_c, 0, 67, 17
1, 210908, Control_c, 0, 67, 18
1, 210908, Note_on_c, 0, 79, 59
1, 210923, Control_c, 0, 67, 19
1, 210932, Note_on_c, 0, 90, 80
1, 210938, Control_c, 0, 67, 22
1, 210952, Control_c, 0, 67, 28
1, 210962, Note_off_c, 0, 79, 56
1, 210967, Control_c, 0, 67, 37
1, 210977, Note_off_c, 0, 90, 66
1, 210982, Control_c, 0, 67, 42
1, 210987, Note_on_c, 0, 74, 43
1, 210996, Control_c, 0, 67, 43
1, 210997, Note_on_c, 0, 78, 52
1, 210998, Note_on_c, 0, 83, 87
1, 210999, Note_on_c, 0, 67, 54
1, 211026, Control_c, 0, 67, 44
1, 211041, Control_c, 0, 67, 48
1, 211048, Note_off_c, 0, 83, 68
1, 211056, Control_c, 0, 67, 54
1, 211070, Control_c, 0, 67, 61
1, 211085, Control_c, 0, 67, 63
1, 211113, Note_off_c, 0, 67, 61
1, 211115, Control_c, 0, 67, 64
1, 211130, Note_off_c, 0, 78, 52
1, 211130, Control_c, 0, 67, 66
1, 211141, Note_off_c, 0, 74, 31
1, 211144, Control_c, 0, 67, 70
1, 211159, Control_c, 0, 67, 76
1, 211174, Control_c, 0, 67, 79
1, 211188, Control_c, 0, 67, 80
1, 211203, Control_c, 0, 67, 83
1, 211218, Control_c, 0, 67, 87
1, 211233, Control_c, 0, 67, 91
1, 211248, Control_c, 0, 67, 93
1, 211263, Control_c, 0, 67, 95
1, 211278, Control_c, 0, 67, 98
1, 211293, Control_c, 0, 67, 101
1, 211308, Control_c, 0, 67, 104
1, 211322, Control_c, 0, 67, 107
1, 211337, Control_c, 0, 67, 110
1, 211352, Control_c, 0, 67, 113
1, 211367, Control_c, 0, 67, 116
1, 211382, Control_c, 0, 67, 118
1, 211396, Control_c, 0, 67, 119
1, 211411, Control_c, 0, 67, 121
1, 211426, Control_c, 0, 67, 122
1, 211439, Note_on_c, 0, 79, 51
1, 211441, Control_c, 0, 67, 123
1, 211456, Control_c, 0, 67, 125
1, 211470, Control_c, 0, 67, 126
1, 211485, Note_on_c, 0, 78, 59
1, 211485, Control_c, 0, 67, 127
1, 211490, Note_off_c, 0, 79, 56
1, 211541, Note_on_c, 0, 85, 71
1, 211554, Note_off_c, 0, 78, 63
1, 211575, Note_off_c, 0, 85, 67
1, 211581, Note_on_c, 0, 90, 81
1, 211591, Note_on_c, 0, 74, 43
1, 211597, Note_on_c, 0, 76, 52
1, 211623, Note_on_c, 0, 81, 19
1, 211653, Note_off_c, 0, 76, 54
1, 211670, Note_off_c, 0, 81, 35
1, 211671, Note_off_c, 0, 74, 60
1, 211871, Note_on_c, 0, 83, 64
1, 211903, Note_off_c, 0, 90, 60
1, 211970, Note_off_c, 0, 83, 39
1, 212087, Note_on_c, 0, 74, 40
1, 212118, Note_off_c, 0, 74, 53
1, 212146, Note_on_c, 0, 76, 48
1, 212150, Note_on_c, 0, 90, 60
1, 212191, Note_off_c, 0, 76, 41
1, 212235, Note_on_c, 0, 83, 59
1, 212250, Control_c, 0, 64, 99
1, 212260, Note_on_c, 0, 74, 39
1, 212264, Control_c, 0, 64, 84
1, 212267, Note_on_c, 0, 67, 39
1, 212276, Note_on_c, 0, 78, 28
1, 212279, Note_off_c, 0, 90, 53
1, 212279, Control_c, 0, 64, 75
1, 212294, Control_c, 0, 64, 70
1, 212309, Control_c, 0, 64, 68
1, 212347, Control_c, 0, 64, 70
1, 212362, Control_c, 0, 64, 74
1, 212369, Note_off_c, 0, 78, 0
1, 212376, Control_c, 0, 64, 82
1, 212391, Control_c, 0, 64, 90
1, 212406, Control_c, 0, 64, 98
1, 212418, Note_off_c, 0, 83, 63
1, 212421, Control_c, 0, 64, 102
1, 212434, Poly_aftertouch_c, 0, 78, 0
1, 212436, Control_c, 0, 64, 107
1, 212450, Control_c, 0, 64, 119
1, 212465, Control_c, 0, 64, 127
1, 212470, Note_off_c, 0, 67, 40
1, 212472, Note_off_c, 0, 74, 41
1, 212583, Control_c, 0, 67, 126
1, 212598, Control_c, 0, 67, 124
1, 212613, Control_c, 0, 67, 121
1, 212628, Control_c, 0, 67, 120
1, 212646, Note_on_c, 0, 76, 62
1, 212657, Control_c, 0, 67, 120
1, 212672, Control_c, 0, 67, 118
1, 212681, Note_off_c, 0, 76, 63
1, 212687, Control_c, 0, 67, 115
1, 212698, Note_on_c, 0, 78, 77
1, 212702, Control_c, 0, 67, 111
1, 212716, Control_c, 0, 67, 110
1, 212720, Note_off_c, 0, 78, 67
1, 212775, Control_c, 0, 67, 109
1, 212790, Control_c, 0, 67, 108
1, 212792, Note_on_c, 0, 79, 64
1, 212805, Control_c, 0, 67, 106
1, 212834, Control_c, 0, 64, 119
1, 212840, Note_on_c, 0, 85, 75
1, 212849, Control_c, 0, 64, 93
1, 212849, Control_c, 0, 67, 105
1, 212857, Note_on_c, 0, 69, 52
1, 212864, Control_c, 0, 64, 79
1, 212864, Control_c, 0, 67, 104
1, 212867, Note_on_c, 0, 62, 34
1, 212879, Control_c, 0, 64, 68
1, 212879, Control_c, 0, 67, 103
1, 212894, Control_c, 0, 64, 62
1, 212894, Control_c, 0, 67, 101
1, 212908, Control_c, 0, 64, 61
1, 212908, Control_c, 0, 67, 98
1, 212913, Note_off_c, 0, 62, 0
1, 212913, Note_on_c, 0, 62, 7
1, 212923, Control_c, 0, 64, 65
1, 212923, Control_c, 0, 67, 96
1, 212938, Control_c, 0, 64, 71
1, 212938, Control_c, 0, 67, 93
1, 212953, Control_c, 0, 64, 81
1, 212953, Control_c, 0, 67, 90
1, 212968, Control_c, 0, 64, 96
1, 212968, Control_c, 0, 67, 85
1, 212983, Control_c, 0, 64, 119
1, 212983, Control_c, 0, 67, 81
1, 212998, Control_c, 0, 64, 127
1, 212998, Control_c, 0, 67, 75
1, 212999, Note_off_c, 0, 62, 44
1, 213013, Control_c, 0, 67, 70
1, 213028, Control_c, 0, 67, 64
1, 213030, Note_off_c, 0, 69, 58
1, 213042, Control_c, 0, 67, 57
1, 213064, Control_c, 0, 67, 49
1, 213070, Note_off_c, 0, 79, 40
1, 213079, Control_c, 0, 67, 40
1, 213094, Control_c, 0, 67, 31
1, 213108, Control_c, 0, 67, 24
1, 213123, Control_c, 0, 67, 17
1, 213132, Note_off_c, 0, 85, 58
1, 213138, Note_on_c, 0, 90, 82
1, 213138, Control_c, 0, 67, 13
1, 213154, Control_c, 0, 67, 10
1, 213169, Control_c, 0, 67, 0
1, 213228, Control_c, 0, 67, 10
1, 213243, Control_c, 0, 67, 11
1, 213251, Note_off_c, 0, 90, 63
1, 213258, Control_c, 0, 67, 11
1, 213305, Note_on_c, 0, 81, 61
1, 213327, Note_off_c, 0, 81, 59
1, 213352, Note_on_c, 0, 79, 53
1, 213375, Note_on_c, 0, 67, 52
1, 213391, Note_on_c, 0, 78, 55
1, 213406, Note_on_c, 0, 74, 51
1, 213426, Note_on_c, 0, 90, 79
1, 213436, Control_c, 0, 67, 9
1, 213439, Note_off_c, 0, 79, 30
1, 213451, Control_c, 0, 67, 9
1, 213465, Control_c, 0, 67, 8
1, 213480, Control_c, 0, 67, 0
1, 213496, Note_off_c, 0, 90, 62
1, 213585, Note_off_c, 0, 74, 58
1, 213608, Note_on_c, 0, 95, 83
1, 213611, Note_off_c, 0, 67, 34
1, 213621, Note_off_c, 0, 78, 60
1, 213643, Control_c, 0, 67, 8
1, 213657, Control_c, 0, 67, 8
1, 213672, Control_c, 0, 67, 9
1, 213687, Control_c, 0, 67, 10
1, 213702, Control_c, 0, 67, 11
1, 213717, Control_c, 0, 67, 12
1, 213731, Control_c, 0, 67, 12
1, 213738, Note_off_c, 0, 95, 66
1, 213746, Control_c, 0, 67, 14
1, 213751, Note_on_c, 0, 90, 86
1, 213761, Control_c, 0, 67, 17
1, 213776, Control_c, 0, 67, 19
1, 213791, Control_c, 0, 67, 22
1, 213813, Control_c, 0, 67, 24
1, 213825, Note_off_c, 0, 90, 63
1, 213828, Control_c, 0, 67, 27
1, 213843, Control_c, 0, 67, 33
1, 213858, Control_c, 0, 67, 40
1, 213859, Note_on_c, 0, 85, 68
1, 213872, Control_c, 0, 67, 49
1, 213883, Note_on_c, 0, 79, 39
1, 213887, Control_c, 0, 67, 57
1, 213902, Control_c, 0, 67, 66
1, 213907, Note_off_c, 0, 85, 62
1, 213914, Note_on_c, 0, 78, 60
1, 213914, Note_off_c, 0, 79, 53
1, 213916, Control_c, 0, 67, 75
1, 213933, Control_c, 0, 67, 83
1, 213948, Control_c, 0, 67, 91
1, 213959, Note_off_c, 0, 78, 61
1, 213962, Control_c, 0, 67, 98
1, 213977, Note_on_c, 0, 74, 27
1, 213977, Control_c, 0, 67, 102
1, 213992, Control_c, 0, 67, 105
1, 213994, Note_on_c, 0, 76, 49
1, 214006, Control_c, 0, 67, 109
1, 214016, Note_on_c, 0, 90, 78
1, 214021, Control_c, 0, 67, 113
1, 214036, Control_c, 0, 67, 114
1, 214051, Control_c, 0, 67, 115
1, 214061, Note_off_c, 0, 76, 64
1, 214066, Control_c, 0, 67, 115
1, 214081, Control_c, 0, 67, 116
1, 214085, Note_off_c, 0, 74, 45
1, 214095, Control_c, 0, 67, 117
1, 214110, Control_c, 0, 67, 118
1, 214125, Control_c, 0, 67, 119
1, 214140, Control_c, 0, 67, 119
1, 214155, Control_c, 0, 67, 120
1, 214184, Control_c, 0, 67, 121
1, 214199, Control_c, 0, 67, 121
1, 214265, Note_on_c, 0, 83, 68
1, 214265, Note_off_c, 0, 90, 65
1, 214303, Control_c, 0, 67, 121
1, 214311, Note_off_c, 0, 83, 59
1, 214332, Control_c, 0, 67, 120
1, 214406, Control_c, 0, 67, 120
1, 214449, Note_on_c, 0, 74, 33
1, 214480, Control_c, 0, 67, 120
1, 214481, Note_off_c, 0, 74, 46
1, 214485, Note_on_c, 0, 76, 60
1, 214496, Note_on_c, 0, 90, 59
1, 214510, Control_c, 0, 67, 121
1, 214525, Control_c, 0, 67, 121
1, 214528, Note_off_c, 0, 76, 53
1, 214536, Note_on_c, 0, 67, 20
1, 214544, Note_on_c, 0, 83, 70
1, 214562, Control_c, 0, 64, 106
1, 214576, Note_on_c, 0, 78, 57
1, 214577, Control_c, 0, 64, 81
1, 214586, Note_on_c, 0, 74, 49
1, 214592, Control_c, 0, 64, 67
1, 214607, Control_c, 0, 64, 57
1, 214607, Control_c, 0, 67, 122
1, 214621, Control_c, 0, 64, 50
1, 214636, Control_c, 0, 64, 55
1, 214651, Control_c, 0, 64, 64
1, 214651, Control_c, 0, 67, 121
1, 214661, Note_off_c, 0, 78, 0
1, 214666, Control_c, 0, 64, 73
1, 214681, Control_c, 0, 64, 88
1, 214685, Note_on_c, 0, 78, 17
1, 214695, Control_c, 0, 64, 127
1, 214695, Control_c, 0, 67, 121
1, 214710, Control_c, 0, 67, 120
1, 214725, Control_c, 0, 67, 120
1, 214786, Note_off_c, 0, 67, 56
1, 214804, Note_off_c, 0, 74, 58
1, 214815, Control_c, 0, 67, 119
1, 214888, Control_c, 0, 67, 119
1, 214911, Note_off_c, 0, 78, 38
1, 214927, Note_off_c, 0, 83, 63
1, 214955, Note_on_c, 0, 76, 54
1, 214955, Note_off_c, 0, 90, 65
1, 215001, Note_off_c, 0, 76, 63
1, 215009, Note_on_c, 0, 78, 68
1, 215034, Note_off_c, 0, 78, 66
1, 215063, Note_on_c, 0, 79, 68
1, 215081, Control_c, 0, 67, 118
1, 215088, Note_off_c, 0, 79, 68
1, 215110, Control_c, 0, 67, 116
1, 215136, Poly_aftertouch_c, 0, 92, 127
1, 215154, Control_c, 0, 67, 115
1, 215169, Control_c, 0, 67, 114
1, 215172, Note_on_c, 0, 90, 71
1, 215174, Poly_aftertouch_c, 0, 92, 0
1, 215176, Note_on_c, 0, 71, 42
1, 215177, Note_on_c, 0, 64, 64
1, 215184, Control_c, 0, 67, 114
1, 215204, Note_off_c, 0, 71, 52
1, 215204, Note_off_c, 0, 64, 67
1, 215243, Control_c, 0, 67, 113
1, 215245, Poly_aftertouch_c, 0, 81, 127
1, 215287, Poly_aftertouch_c, 0, 81, 0
1, 215324, Note_off_c, 0, 90, 53
1, 215356, Note_on_c, 0, 93, 76
1, 215384, Control_c, 0, 67, 113
1, 215399, Control_c, 0, 67, 112
1, 215414, Control_c, 0, 67, 112
1, 215443, Control_c, 0, 67, 111
1, 215446, Note_off_c, 0, 93, 65
1, 215449, Note_on_c, 0, 95, 83
1, 215458, Control_c, 0, 67, 111
1, 215473, Control_c, 0, 67, 110
1, 215488, Control_c, 0, 67, 109
1, 215548, Control_c, 0, 67, 108
1, 215550, Note_off_c, 0, 95, 66
1, 215551, Note_on_c, 0, 93, 56
1, 215563, Control_c, 0, 67, 107
1, 215569, Note_off_c, 0, 93, 62
1, 215578, Control_c, 0, 67, 106
1, 215622, Control_c, 0, 67, 105
1, 215637, Control_c, 0, 67, 105
1, 215646, Note_on_c, 0, 83, 63
1, 215651, Control_c, 0, 67, 103
1, 215663, Note_off_c, 0, 83, 65
1, 215666, Control_c, 0, 67, 101
1, 215681, Control_c, 0, 67, 101
1, 215696, Control_c, 0, 67, 100
1, 215701, Note_on_c, 0, 81, 69
1, 215711, Control_c, 0, 67, 99
1, 215726, Control_c, 0, 67, 97
1, 215740, Control_c, 0, 67, 94
1, 215754, Note_on_c, 0, 90, 79
1, 215755, Note_off_c, 0, 81, 61
1, 215755, Control_c, 0, 67, 93
1, 215763, Note_on_c, 0, 79, 55
1, 215770, Control_c, 0, 67, 91
1, 215779, Note_on_c, 0, 74, 46
1, 215782, Note_on_c, 0, 67, 49
1, 215785, Control_c, 0, 67, 89
1, 215794, Note_off_c, 0, 79, 66
1, 215800, Control_c, 0, 67, 87
1, 215803, Note_off_c, 0, 74, 58
1, 215807, Note_off_c, 0, 67, 57
1, 215815, Control_c, 0, 67, 83
1, 215830, Control_c, 0, 67, 80
1, 215844, Control_c, 0, 67, 75
1, 215859, Control_c, 0, 67, 72
1, 215867, Note_on_c, 0, 85, 81
1, 215874, Control_c, 0, 67, 67
1, 215876, Note_off_c, 0, 90, 66
1, 215889, Control_c, 0, 67, 62
1, 215904, Control_c, 0, 67, 57
1, 215919, Control_c, 0, 67, 50
1, 215931, Note_off_c, 0, 85, 64
1, 215933, Control_c, 0, 67, 42
1, 215941, Note_on_c, 0, 83, 84
1, 215948, Control_c, 0, 67, 32
1, 215963, Control_c, 0, 67, 21
1, 215977, Control_c, 0, 67, 13
1, 215992, Control_c, 0, 67, 0
1, 216017, Note_on_c, 0, 85, 91
1, 216017, Note_off_c, 0, 83, 64
1, 216082, Note_off_c, 0, 85, 65
1, 216089, Note_on_c, 0, 90, 75
1, 216144, Note_off_c, 0, 90, 67
1, 216146, Note_on_c, 0, 95, 81
1, 216149, Note_on_c, 0, 81, 68
1, 216179, Note_off_c, 0, 81, 66
1, 216196, Note_on_c, 0, 79, 71
1, 216229, Note_off_c, 0, 79, 63
1, 216248, Note_on_c, 0, 78, 60
1, 216251, Note_on_c, 0, 71, 42
1, 216265, Note_on_c, 0, 90, 71
1, 216276, Note_off_c, 0, 78, 65
1, 216280, Note_off_c, 0, 71, 55
1, 216445, Control_c, 0, 67, 8
1, 216460, Control_c, 0, 67, 12
1, 216475, Control_c, 0, 67, 16
1, 216489, Control_c, 0, 67, 22
1, 216504, Control_c, 0, 67, 30
1, 216506, Note_off_c, 0, 90, 64
1, 216519, Control_c, 0, 67, 38
1, 216534, Control_c, 0, 67, 51
1, 216542, Note_on_c, 0, 83, 62
1, 216549, Control_c, 0, 67, 65
1, 216551, Note_off_c, 0, 95, 60
1, 216563, Control_c, 0, 67, 79
1, 216578, Control_c, 0, 67, 91
1, 216593, Control_c, 0, 67, 100
1, 216608, Control_c, 0, 67, 105
1, 216622, Control_c, 0, 67, 108
1, 216637, Control_c, 0, 67, 113
1, 216652, Control_c, 0, 67, 116
1, 216667, Control_c, 0, 67, 119
1, 216682, Control_c, 0, 67, 122
1, 216697, Control_c, 0, 67, 123
1, 216712, Control_c, 0, 67, 125
1, 216726, Control_c, 0, 67, 127
1, 216741, Control_c, 0, 67, 127
1, 216748, Note_off_c, 0, 83, 44
1, 216861, Note_on_c, 0, 90, 48
1, 216912, Control_c, 0, 64, 97
1, 216923, Note_on_c, 0, 81, 51
1, 216926, Note_on_c, 0, 83, 54
1, 216927, Control_c, 0, 64, 76
1, 216941, Control_c, 0, 64, 66
1, 216941, Note_on_c, 0, 79, 15
1, 216942, Note_on_c, 0, 74, 43
1, 216956, Control_c, 0, 64, 58
1, 216971, Control_c, 0, 64, 52
1, 216986, Control_c, 0, 64, 51
1, 217001, Control_c, 0, 64, 55
1, 217015, Control_c, 0, 64, 61
1, 217030, Control_c, 0, 64, 69
1, 217045, Control_c, 0, 64, 80
1, 217045, Control_c, 0, 67, 125
1, 217060, Control_c, 0, 64, 97
1, 217060, Control_c, 0, 67, 123
1, 217070, Note_off_c, 0, 79, 39
1, 217075, Control_c, 0, 64, 127
1, 217075, Control_c, 0, 67, 120
1, 217079, Note_off_c, 0, 74, 33
1, 217089, Control_c, 0, 67, 118
1, 217099, Note_off_c, 0, 83, 41
1, 217104, Note_off_c, 0, 81, 39
1, 217104, Control_c, 0, 67, 117
1, 217119, Control_c, 0, 67, 115
1, 217135, Note_off_c, 0, 90, 63
1, 217135, Control_c, 0, 67, 112
1, 217150, Control_c, 0, 67, 109
1, 217165, Control_c, 0, 67, 107
1, 217179, Control_c, 0, 67, 106
1, 217194, Control_c, 0, 67, 106
1, 217224, Control_c, 0, 67, 105
1, 217253, Control_c, 0, 67, 106
1, 217268, Control_c, 0, 67, 108
1, 217283, Control_c, 0, 67, 112
1, 217298, Control_c, 0, 67, 115
1, 217312, Control_c, 0, 67, 120
1, 217327, Control_c, 0, 67, 127
1, 217334, Note_on_c, 0, 78, 56
1, 217342, Control_c, 0, 67, 127
1, 217368, Note_off_c, 0, 78, 63
1, 217386, Note_on_c, 0, 79, 38
1, 217416, Note_off_c, 0, 79, 50
1, 217439, Note_on_c, 0, 81, 57
1, 217466, Note_off_c, 0, 81, 66
1, 217546, Note_on_c, 0, 73, 55
1, 217547, Note_on_c, 0, 66, 59
1, 217574, Note_on_c, 0, 90, 65
1, 217599, Note_off_c, 0, 66, 60
1, 217603, Note_off_c, 0, 90, 67
1, 217606, Note_off_c, 0, 73, 59
1, 217682, Note_on_c, 0, 93, 58
1, 217739, Note_off_c, 0, 93, 60
1, 217769, Note_on_c, 0, 95, 67
1, 217821, Note_off_c, 0, 95, 66
1, 217824, Note_on_c, 0, 102, 79
1, 217853, Control_c, 0, 67, 126
1, 217868, Control_c, 0, 67, 124
1, 217883, Control_c, 0, 67, 121
1, 217887, Note_off_c, 0, 102, 64
1, 217898, Note_on_c, 0, 95, 72
1, 217925, Note_off_c, 0, 95, 69
1, 217928, Control_c, 0, 67, 120
1, 217943, Control_c, 0, 67, 118
1, 217958, Control_c, 0, 67, 116
1, 217969, Note_on_c, 0, 93, 38
1, 217987, Control_c, 0, 67, 119
1, 217998, Note_off_c, 0, 93, 47
1, 218002, Control_c, 0, 67, 124
1, 218017, Control_c, 0, 67, 127
1, 218053, Note_on_c, 0, 85, 66
1, 218070, Note_off_c, 0, 85, 67
1, 218121, Note_on_c, 0, 83, 50
1, 218146, Note_off_c, 0, 83, 56
1, 218167, Note_on_c, 0, 90, 65
1, 218172, Note_on_c, 0, 81, 36
1, 218175, Note_on_c, 0, 76, 41
1, 218176, Note_on_c, 0, 69, 37
1, 218225, Note_off_c, 0, 81, 0
1, 218225, Note_on_c, 0, 81, 5
1, 218265, Note_off_c, 0, 76, 58
1, 218283, Note_off_c, 0, 81, 56
1, 218286, Note_off_c, 0, 69, 53
1, 218307, Note_on_c, 0, 85, 54
1, 218326, Note_off_c, 0, 90, 47
1, 218349, Note_off_c, 0, 85, 64
1, 218371, Note_on_c, 0, 83, 68
1, 218421, Note_off_c, 0, 83, 56
1, 218444, Note_on_c, 0, 85, 71
1, 218487, Note_off_c, 0, 85, 61
1, 218506, Note_on_c, 0, 90, 66
1, 218527, Control_c, 0, 67, 118
1, 218536, Note_on_c, 0, 83, 45
1, 218542, Control_c, 0, 67, 108
1, 218557, Control_c, 0, 67, 93
1, 218563, Note_off_c, 0, 90, 66
1, 218572, Control_c, 0, 67, 78
1, 218575, Note_off_c, 0, 83, 56
1, 218581, Note_on_c, 0, 95, 69
1, 218587, Control_c, 0, 67, 60
1, 218598, Note_on_c, 0, 81, 56
1, 218602, Control_c, 0, 67, 39
1, 218617, Control_c, 0, 67, 16
1, 218630, Note_off_c, 0, 95, 65
1, 218632, Control_c, 0, 67, 0
1, 218664, Note_off_c, 0, 81, 60
1, 218690, Note_on_c, 0, 73, 40
1, 218714, Note_on_c, 0, 79, 22
1, 218721, Control_c, 0, 67, 15
1, 218737, Control_c, 0, 67, 35
1, 218751, Note_on_c, 0, 90, 76
1, 218751, Control_c, 0, 67, 69
1, 218766, Control_c, 0, 67, 99
1, 218775, Note_off_c, 0, 90, 67
1, 218781, Control_c, 0, 67, 114
1, 218796, Control_c, 0, 67, 116
1, 218810, Control_c, 0, 67, 122
1, 218825, Control_c, 0, 67, 127
1, 218871, Note_off_c, 0, 73, 61
1, 218913, Note_off_c, 0, 79, 48
1, 219070, Control_c, 0, 64, 120
1, 219085, Control_c, 0, 64, 117
1, 219100, Control_c, 0, 64, 116
1, 219109, Note_on_c, 0, 83, 62
1, 219115, Control_c, 0, 64, 115
1, 219129, Control_c, 0, 64, 115
1, 219144, Control_c, 0, 64, 113
1, 219159, Control_c, 0, 64, 109
1, 219174, Control_c, 0, 64, 107
1, 219189, Control_c, 0, 64, 106
1, 219203, Control_c, 0, 64, 106
1, 219218, Control_c, 0, 64, 105
1, 219233, Control_c, 0, 64, 104
1, 219248, Control_c, 0, 64, 103
1, 219263, Control_c, 0, 64, 101
1, 219277, Control_c, 0, 64, 100
1, 219304, Note_off_c, 0, 83, 43
1, 219307, Control_c, 0, 64, 100
1, 219340, Note_on_c, 0, 79, 34
1, 219351, Control_c, 0, 64, 99
1, 219366, Control_c, 0, 64, 97
1, 219367, Note_on_c, 0, 90, 45
1, 219380, Control_c, 0, 64, 96
1, 219384, Note_off_c, 0, 79, 50
1, 219395, Control_c, 0, 64, 95
1, 219410, Control_c, 0, 64, 95
1, 219425, Note_on_c, 0, 78, 45
1, 219425, Control_c, 0, 64, 94
1, 219439, Control_c, 0, 64, 93
1, 219454, Control_c, 0, 64, 91
1, 219469, Control_c, 0, 64, 85
1, 219484, Control_c, 0, 64, 78
1, 219499, Control_c, 0, 64, 70
1, 219502, Note_off_c, 0, 78, 56
1, 219514, Control_c, 0, 64, 63
1, 219529, Control_c, 0, 64, 51
1, 219544, Control_c, 0, 64, 40
1, 219549, Note_on_c, 0, 81, 16
1, 219559, Control_c, 0, 64, 30
1, 219569, Note_on_c, 0, 83, 60
1, 219574, Note_on_c, 0, 76, 44
1, 219574, Control_c, 0, 64, 29
1, 219588, Control_c, 0, 64, 32
1, 219603, Note_off_c, 0, 90, 53
1, 219603, Control_c, 0, 64, 41
1, 219618, Control_c, 0, 64, 51
1, 219633, Control_c, 0, 64, 61
1, 219648, Control_c, 0, 64, 65
1, 219663, Control_c, 0, 64, 68
1, 219678, Control_c, 0, 64, 71
1, 219693, Control_c, 0, 64, 75
1, 219707, Control_c, 0, 64, 80
1, 219722, Control_c, 0, 64, 87
1, 219732, Note_off_c, 0, 81, 58
1, 219737, Control_c, 0, 64, 94
1, 219751, Control_c, 0, 64, 99
1, 219766, Control_c, 0, 64, 102
1, 219781, Control_c, 0, 64, 105
1, 219785, Note_off_c, 0, 83, 59
1, 219803, Control_c, 0, 64, 110
1, 219818, Control_c, 0, 64, 119
1, 219830, Note_off_c, 0, 76, 42
1, 219833, Control_c, 0, 64, 127
1, 219989, Note_on_c, 0, 79, 50
1, 220018, Note_off_c, 0, 79, 55
1, 220045, Note_on_c, 0, 81, 57
1, 220075, Note_off_c, 0, 81, 66
1, 220096, Note_on_c, 0, 83, 57
1, 220116, Note_off_c, 0, 83, 65
1, 220125, Note_on_c, 0, 88, 65
1, 220160, Note_off_c, 0, 88, 67
1, 220228, Note_on_c, 0, 90, 70
1, 220232, Note_on_c, 0, 45, 47
1, 220241, Note_on_c, 0, 40, 48
1, 220243, Note_off_c, 0, 90, 70
1, 220330, Note_off_c, 0, 45, 48
1, 220396, Control_c, 0, 67, 125
1, 220411, Control_c, 0, 67, 122
1, 220426, Control_c, 0, 67, 120
1, 220428, Note_off_c, 0, 40, 23
1, 220441, Control_c, 0, 67, 118
1, 220456, Control_c, 0, 67, 116
1, 220471, Control_c, 0, 67, 113
1, 220486, Control_c, 0, 67, 111
1, 220501, Control_c, 0, 67, 109
1, 220507, Note_on_c, 0, 43, 58
1, 220516, Control_c, 0, 67, 106
1, 220530, Control_c, 0, 67, 101
1, 220536, Note_off_c, 0, 43, 64
1, 220552, Control_c, 0, 67, 97
1, 220553, Note_on_c, 0, 45, 44
1, 220567, Control_c, 0, 67, 93
1, 220581, Control_c, 0, 67, 88
1, 220583, Note_off_c, 0, 45, 48
1, 220596, Control_c, 0, 67, 81
1, 220611, Control_c, 0, 67, 74
1, 220626, Control_c, 0, 67, 66
1, 220641, Control_c, 0, 67, 59
1, 220656, Control_c, 0, 67, 52
1, 220671, Control_c, 0, 67, 42
1, 220685, Control_c, 0, 67, 34
1, 220700, Control_c, 0, 67, 26
1, 220715, Control_c, 0, 67, 20
1, 220730, Control_c, 0, 67, 14
1, 220745, Control_c, 0, 67, 11
1, 220760, Control_c, 0, 67, 8
1, 220774, Control_c, 0, 67, 0
1, 220796, Note_on_c, 0, 90, 66
1, 220808, Note_on_c, 0, 69, 59
1, 220816, Note_on_c, 0, 60, 42
1, 220842, Note_off_c, 0, 69, 65
1, 220849, Note_off_c, 0, 60, 50
1, 220898, Poly_aftertouch_c, 0, 78, 127
1, 220937, Control_c, 0, 67, 9
1, 220952, Control_c, 0, 67, 13
1, 220967, Control_c, 0, 67, 15
1, 220981, Control_c, 0, 67, 15
1, 220996, Control_c, 0, 67, 17
1, 221011, Control_c, 0, 67, 21
1, 221026, Control_c, 0, 67, 30
1, 221038, Poly_aftertouch_c, 0, 78, 0
1, 221041, Control_c, 0, 67, 41
1, 221045, Note_off_c, 0, 90, 58
1, 221055, Control_c, 0, 67, 47
1, 221070, Control_c, 0, 67, 48
1, 221100, Control_c, 0, 67, 48
1, 221101, Note_on_c, 0, 52, 58
1, 221145, Control_c, 0, 67, 48
1, 221160, Control_c, 0, 67, 46
1, 221197, Note_on_c, 0, 90, 66
1, 221204, Control_c, 0, 67, 46
1, 221219, Control_c, 0, 67, 44
1, 221226, Note_off_c, 0, 90, 69
1, 221234, Control_c, 0, 67, 42
1, 221249, Control_c, 0, 67, 40
1, 221256, Note_off_c, 0, 52, 58
1, 221264, Control_c, 0, 67, 37
1, 221279, Control_c, 0, 67, 33
1, 221301, Control_c, 0, 67, 31
1, 221316, Control_c, 0, 67, 29
1, 221375, Control_c, 0, 67, 28
1, 221390, Control_c, 0, 67, 27
1, 221404, Control_c, 0, 64, 112
1, 221404, Control_c, 0, 67, 25
1, 221419, Control_c, 0, 64, 81
1, 221419, Control_c, 0, 67, 23
1, 221425, Note_on_c, 0, 67, 60
1, 221431, Note_on_c, 0, 47, 56
1, 221434, Control_c, 0, 64, 63
1, 221434, Control_c, 0, 67, 21
1, 221439, Note_on_c, 0, 40, 46
1, 221449, Control_c, 0, 64, 40
1, 221449, Control_c, 0, 67, 20
1, 221464, Control_c, 0, 64, 20
1, 221464, Control_c, 0, 67, 18
1, 221478, Control_c, 0, 64, 29
1, 221478, Control_c, 0, 67, 16
1, 221493, Control_c, 0, 64, 49
1, 221493, Control_c, 0, 67, 15
1, 221508, Control_c, 0, 64, 63
1, 221508, Control_c, 0, 67, 14
1, 221523, Control_c, 0, 64, 73
1, 221523, Control_c, 0, 67, 13
1, 221538, Control_c, 0, 64, 86
1, 221538, Control_c, 0, 67, 12
1, 221540, Note_off_c, 0, 47, 54
1, 221553, Control_c, 0, 64, 118
1, 221553, Control_c, 0, 67, 12
1, 221568, Control_c, 0, 64, 127
1, 221583, Control_c, 0, 67, 14
1, 221597, Control_c, 0, 67, 15
1, 221612, Control_c, 0, 67, 16
1, 221627, Control_c, 0, 67, 17
1, 221642, Control_c, 0, 67, 18
1, 221657, Control_c, 0, 67, 19
1, 221660, Note_off_c, 0, 40, 49
1, 221663, Note_on_c, 0, 45, 60
1, 221671, Control_c, 0, 67, 19
1, 221700, Note_on_c, 0, 47, 60
1, 221701, Note_off_c, 0, 67, 49
1, 221710, Note_off_c, 0, 45, 65
1, 221738, Note_off_c, 0, 47, 63
1, 221760, Control_c, 0, 67, 20
1, 221775, Control_c, 0, 67, 21
1, 221790, Control_c, 0, 67, 23
1, 221804, Control_c, 0, 67, 25
1, 221819, Control_c, 0, 67, 28
1, 221834, Control_c, 0, 67, 33
1, 221849, Control_c, 0, 67, 39
1, 221864, Control_c, 0, 67, 45
1, 221878, Control_c, 0, 67, 51
1, 221893, Control_c, 0, 67, 58
1, 221908, Control_c, 0, 67, 69
1, 221924, Control_c, 0, 67, 78
1, 221939, Control_c, 0, 67, 85
1, 221954, Control_c, 0, 67, 89
1, 221968, Control_c, 0, 67, 91
1, 221983, Control_c, 0, 67, 93
1, 221998, Control_c, 0, 64, 101
1, 221998, Control_c, 0, 67, 97
1, 222005, Note_on_c, 0, 62, 52
1, 222006, Note_on_c, 0, 67, 55
1, 222013, Control_c, 0, 64, 90
1, 222013, Control_c, 0, 67, 100
1, 222027, Control_c, 0, 64, 88
1, 222027, Control_c, 0, 67, 103
1, 222050, Control_c, 0, 67, 105
1, 222065, Control_c, 0, 64, 89
1, 222065, Control_c, 0, 67, 107
1, 222070, Note_off_c, 0, 62, 63
1, 222080, Control_c, 0, 64, 95
1, 222080, Control_c, 0, 67, 111
1, 222088, Note_off_c, 0, 67, 64
1, 222095, Control_c, 0, 64, 103
1, 222095, Control_c, 0, 67, 114
1, 222109, Control_c, 0, 64, 113
1, 222109, Control_c, 0, 67, 115
1, 222124, Control_c, 0, 64, 124
1, 222124, Control_c, 0, 67, 116
1, 222139, Control_c, 0, 64, 127
1, 222139, Control_c, 0, 67, 116
1, 222153, Control_c, 0, 67, 117
1, 222168, Control_c, 0, 67, 119
1, 222183, Control_c, 0, 67, 120
1, 222198, Control_c, 0, 67, 120
1, 222213, Control_c, 0, 67, 121
1, 222227, Control_c, 0, 67, 122
1, 222242, Control_c, 0, 67, 124
1, 222257, Control_c, 0, 67, 125
1, 222272, Control_c, 0, 64, 104
1, 222272, Control_c, 0, 67, 125
1, 222278, Note_on_c, 0, 52, 59
1, 222287, Control_c, 0, 64, 88
1, 222287, Control_c, 0, 67, 126
1, 222301, Control_c, 0, 64, 72
1, 222301, Control_c, 0, 67, 126
1, 222316, Control_c, 0, 64, 58
1, 222316, Control_c, 0, 67, 127
1, 222331, Control_c, 0, 64, 38
1, 222346, Control_c, 0, 64, 35
1, 222361, Control_c, 0, 64, 49
1, 222361, Control_c, 0, 67, 126
1, 222376, Control_c, 0, 64, 61
1, 222376, Control_c, 0, 67, 125
1, 222391, Control_c, 0, 64, 68
1, 222391, Control_c, 0, 67, 124
1, 222406, Control_c, 0, 64, 77
1, 222406, Control_c, 0, 67, 123
1, 222420, Control_c, 0, 64, 92
1, 222420, Control_c, 0, 67, 121
1, 222435, Control_c, 0, 64, 114
1, 222435, Control_c, 0, 67, 119
1, 222450, Control_c, 0, 64, 127
1, 222450, Control_c, 0, 67, 117
1, 222465, Control_c, 0, 67, 113
1, 222480, Control_c, 0, 67, 108
1, 222495, Control_c, 0, 67, 105
1, 222510, Control_c, 0, 67, 104
1, 222510, Note_off_c, 0, 52, 62
1, 222525, Control_c, 0, 67, 102
1, 222525, Note_on_c, 0, 86, 41
1, 222540, Control_c, 0, 64, 94
1, 222540, Control_c, 0, 67, 99
1, 222549, Note_off_c, 0, 86, 56
1, 222553, Note_on_c, 0, 88, 73
1, 222554, Control_c, 0, 64, 65
1, 222554, Control_c, 0, 67, 97
1, 222561, Note_on_c, 0, 48, 51
1, 222566, Note_on_c, 0, 76, 56
1, 222569, Control_c, 0, 64, 39
1, 222569, Control_c, 0, 67, 96
1, 222583, Note_on_c, 0, 40, 53
1, 222584, Control_c, 0, 64, 0
1, 222584, Control_c, 0, 67, 94
1, 222599, Control_c, 0, 67, 92
1, 222614, Control_c, 0, 64, 10
1, 222614, Control_c, 0, 67, 90
1, 222628, Control_c, 0, 64, 42
1, 222628, Control_c, 0, 67, 87
1, 222635, Note_off_c, 0, 76, 0
1, 222635, Note_on_c, 0, 76, 12
1, 222643, Control_c, 0, 64, 62
1, 222643, Control_c, 0, 67, 84
1, 222658, Control_c, 0, 64, 72
1, 222658, Control_c, 0, 67, 82
1, 222673, Control_c, 0, 64, 83
1, 222673, Control_c, 0, 67, 81
1, 222688, Control_c, 0, 64, 102
1, 222688, Control_c, 0, 67, 80
1, 222702, Control_c, 0, 64, 127
1, 222702, Control_c, 0, 67, 76
1, 222718, Control_c, 0, 67, 70
1, 222733, Control_c, 0, 67, 61
1, 222748, Control_c, 0, 67, 51
1, 222750, Note_off_c, 0, 48, 31
1, 222763, Control_c, 0, 67, 38
1, 222763, Note_off_c, 0, 40, 50
1, 222777, Control_c, 0, 67, 17
1, 222799, Control_c, 0, 67, 0
1, 222829, Note_on_c, 0, 47, 44
1, 222856, Note_on_c, 0, 48, 63
1, 222858, Note_off_c, 0, 47, 51
1, 222907, Note_off_c, 0, 48, 62
1, 222910, Note_off_c, 0, 76, 37
1, 222963, Note_off_c, 0, 88, 37
1, 223124, Note_on_c, 0, 88, 55
1, 223124, Control_c, 0, 67, 9
1, 223139, Control_c, 0, 67, 12
1, 223154, Control_c, 0, 64, 113
1, 223154, Control_c, 0, 67, 16
1, 223169, Control_c, 0, 64, 78
1, 223169, Control_c, 0, 67, 19
1, 223180, Note_on_c, 0, 76, 55
1, 223183, Control_c, 0, 64, 60
1, 223183, Control_c, 0, 67, 22
1, 223198, Control_c, 0, 64, 35
1, 223198, Control_c, 0, 67, 26
1, 223202, Note_on_c, 0, 66, 49
1, 223211, Note_on_c, 0, 64, 43
1, 223213, Control_c, 0, 64, 0
1, 223213, Control_c, 0, 67, 32
1, 223228, Control_c, 0, 67, 37
1, 223243, Control_c, 0, 67, 42
1, 223258, Control_c, 0, 64, 19
1, 223258, Control_c, 0, 67, 48
1, 223273, Control_c, 0, 64, 44
1, 223273, Control_c, 0, 67, 54
1, 223285, Note_off_c, 0, 66, 58
1, 223285, Note_off_c, 0, 64, 63
1, 223288, Control_c, 0, 64, 58
1, 223288, Control_c, 0, 67, 61
1, 223303, Control_c, 0, 64, 65
1, 223303, Control_c, 0, 67, 68
1, 223317, Control_c, 0, 64, 71
1, 223317, Control_c, 0, 67, 75
1, 223332, Control_c, 0, 64, 77
1, 223332, Control_c, 0, 67, 82
1, 223347, Control_c, 0, 64, 85
1, 223347, Control_c, 0, 67, 91
1, 223362, Control_c, 0, 64, 93
1, 223362, Control_c, 0, 67, 95
1, 223376, Control_c, 0, 64, 111
1, 223376, Control_c, 0, 67, 96
1, 223391, Control_c, 0, 64, 127
1, 223391, Control_c, 0, 67, 98
1, 223406, Control_c, 0, 67, 99
1, 223421, Control_c, 0, 67, 100
1, 223436, Control_c, 0, 67, 99
1, 223455, Note_off_c, 0, 76, 35
1, 223485, Note_on_c, 0, 52, 55
1, 223490, Note_off_c, 0, 88, 33
1, 223509, Control_c, 0, 67, 98
1, 223526, Control_c, 0, 67, 97
1, 223547, Control_c, 0, 67, 96
1, 223580, Note_off_c, 0, 52, 0
1, 223592, Control_c, 0, 67, 96
1, 223607, Control_c, 0, 67, 95
1, 223614, Note_on_c, 0, 88, 72
1, 223616, Poly_aftertouch_c, 0, 52, 127
1, 223622, Control_c, 0, 67, 93
1, 223637, Control_c, 0, 67, 93
1, 223651, Note_off_c, 0, 88, 66
1, 223651, Control_c, 0, 67, 93
1, 223681, Poly_aftertouch_c, 0, 52, 0
1, 223696, Control_c, 0, 67, 93
1, 223711, Control_c, 0, 67, 92
1, 223726, Control_c, 0, 67, 92
1, 223741, Control_c, 0, 67, 91
1, 223755, Control_c, 0, 67, 90
1, 223770, Control_c, 0, 64, 106
1, 223770, Control_c, 0, 67, 89
1, 223783, Note_on_c, 0, 66, 73
1, 223785, Control_c, 0, 64, 81
1, 223785, Control_c, 0, 67, 88
1, 223799, Control_c, 0, 64, 67
1, 223799, Control_c, 0, 67, 86
1, 223802, Note_on_c, 0, 47, 52
1, 223814, Note_on_c, 0, 40, 49
1, 223814, Control_c, 0, 64, 60
1, 223814, Control_c, 0, 67, 84
1, 223829, Control_c, 0, 64, 58
1, 223829, Control_c, 0, 67, 80
1, 223844, Control_c, 0, 64, 61
1, 223844, Control_c, 0, 67, 78
1, 223859, Control_c, 0, 64, 67
1, 223859, Control_c, 0, 67, 77
1, 223873, Control_c, 0, 64, 75
1, 223873, Control_c, 0, 67, 75
1, 223888, Control_c, 0, 64, 95
1, 223888, Control_c, 0, 67, 71
1, 223903, Control_c, 0, 64, 127
1, 223903, Control_c, 0, 67, 67
1, 223918, Control_c, 0, 67, 62
1, 223933, Control_c, 0, 67, 57
1, 223947, Control_c, 0, 67, 51
1, 223961, Note_off_c, 0, 66, 33
1, 223962, Control_c, 0, 67, 42
1, 223964, Note_off_c, 0, 47, 39
1, 223977, Control_c, 0, 67, 32
1, 223991, Control_c, 0, 67, 21
1, 223999, Note_off_c, 0, 40, 61
1, 224006, Control_c, 0, 67, 10
1, 224015, Note_on_c, 0, 45, 56
1, 224021, Control_c, 0, 67, 0
1, 224062, Note_off_c, 0, 45, 65
1, 224067, Note_on_c, 0, 47, 65
1, 224091, Note_off_c, 0, 47, 61
1, 224295, Control_c, 0, 67, 10
1, 224310, Control_c, 0, 67, 13
1, 224326, Control_c, 0, 64, 92
1, 224326, Control_c, 0, 67, 15
1, 224341, Note_on_c, 0, 67, 66
1, 224341, Control_c, 0, 64, 76
1, 224341, Control_c, 0, 67, 18
1, 224351, Note_on_c, 0, 62, 57
1, 224356, Control_c, 0, 64, 71
1, 224356, Control_c, 0, 67, 22
1, 224370, Control_c, 0, 64, 72
1, 224370, Control_c, 0, 67, 28
1, 224385, Control_c, 0, 64, 79
1, 224385, Control_c, 0, 67, 34
1, 224386, Note_off_c, 0, 62, 50
1, 224400, Control_c, 0, 64, 91
1, 224400, Control_c, 0, 67, 42
1, 224415, Control_c, 0, 64, 111
1, 224415, Control_c, 0, 67, 47
1, 224418, Note_off_c, 0, 67, 61
1, 224429, Control_c, 0, 64, 127
1, 224429, Control_c, 0, 67, 52
1, 224444, Control_c, 0, 67, 56
1, 224459, Control_c, 0, 67, 60
1, 224474, Control_c, 0, 67, 63
1, 224489, Control_c, 0, 67, 67
1, 224504, Control_c, 0, 67, 74
1, 224519, Control_c, 0, 67, 79
1, 224534, Control_c, 0, 67, 83
1, 224548, Control_c, 0, 67, 87
1, 224563, Control_c, 0, 67, 88
1, 224593, Control_c, 0, 67, 88
1, 224608, Note_on_c, 0, 52, 65
1, 224608, Control_c, 0, 67, 87
1, 224622, Control_c, 0, 67, 87
1, 224637, Control_c, 0, 67, 86
1, 224652, Control_c, 0, 67, 84
1, 224667, Control_c, 0, 67, 83
1, 224682, Control_c, 0, 67, 81
1, 224696, Control_c, 0, 67, 80
1, 224711, Control_c, 0, 67, 80
1, 224726, Control_c, 0, 67, 77
1, 224740, Control_c, 0, 67, 74
1, 224755, Control_c, 0, 67, 69
1, 224770, Control_c, 0, 67, 63
1, 224785, Control_c, 0, 67, 55
1, 224800, Control_c, 0, 67, 46
1, 224814, Control_c, 0, 67, 33
1, 224829, Control_c, 0, 67, 20
1, 224844, Control_c, 0, 67, 0
1, 224889, Note_off_c, 0, 52, 29
1, 224918, Control_c, 0, 64, 100
1, 224933, Control_c, 0, 64, 75
1, 224942, Note_on_c, 0, 40, 46
1, 224948, Control_c, 0, 64, 60
1, 224950, Note_on_c, 0, 45, 37
1, 224963, Control_c, 0, 64, 37
1, 224978, Control_c, 0, 64, 22
1, 224978, Control_c, 0, 67, 9
1, 224989, Note_on_c, 0, 90, 81
1, 224993, Control_c, 0, 64, 31
1, 224993, Control_c, 0, 67, 15
1, 225008, Control_c, 0, 64, 50
1, 225008, Control_c, 0, 67, 25
1, 225016, Note_on_c, 0, 78, 48
1, 225022, Control_c, 0, 64, 63
1, 225022, Control_c, 0, 67, 39
1, 225044, Control_c, 0, 64, 72
1, 225044, Control_c, 0, 67, 52
1, 225059, Control_c, 0, 64, 85
1, 225059, Control_c, 0, 67, 65
1, 225074, Control_c, 0, 64, 104
1, 225074, Control_c, 0, 67, 76
1, 225089, Control_c, 0, 64, 120
1, 225089, Control_c, 0, 67, 83
1, 225103, Control_c, 0, 64, 127
1, 225103, Control_c, 0, 67, 89
1, 225119, Control_c, 0, 67, 95
1, 225134, Control_c, 0, 67, 100
1, 225149, Control_c, 0, 67, 104
1, 225159, Note_off_c, 0, 78, 23
1, 225164, Control_c, 0, 67, 108
1, 225173, Note_off_c, 0, 45, 36
1, 225178, Control_c, 0, 67, 110
1, 225191, Note_off_c, 0, 90, 60
1, 225193, Control_c, 0, 67, 112
1, 225208, Control_c, 0, 67, 115
1, 225223, Control_c, 0, 67, 118
1, 225238, Control_c, 0, 67, 120
1, 225252, Note_on_c, 0, 43, 41
1, 225252, Control_c, 0, 67, 121
1, 225259, Note_off_c, 0, 40, 29
1, 225267, Control_c, 0, 67, 122
1, 225273, Note_on_c, 0, 93, 67
1, 225282, Note_on_c, 0, 91, 73
1, 225282, Control_c, 0, 67, 124
1, 225288, Note_on_c, 0, 79, 53
1, 225290, Note_off_c, 0, 43, 63
1, 225291, Note_on_c, 0, 45, 58
1, 225297, Control_c, 0, 67, 125
1, 225312, Control_c, 0, 67, 126
1, 225316, Note_off_c, 0, 45, 61
1, 225321, Note_off_c, 0, 93, 60
1, 225323, Note_off_c, 0, 79, 66
1, 225327, Control_c, 0, 67, 127
1, 225353, Note_off_c, 0, 91, 64
1, 225501, Note_on_c, 0, 79, 66
1, 225521, Note_off_c, 0, 79, 66
1, 225567, Note_on_c, 0, 90, 76
1, 225582, Note_on_c, 0, 60, 54
1, 225583, Note_on_c, 0, 69, 49
1, 225586, Note_on_c, 0, 78, 60
1, 225605, Note_off_c, 0, 78, 63
1, 225615, Note_off_c, 0, 90, 62
1, 225628, Note_off_c, 0, 69, 63
1, 225655, Note_off_c, 0, 60, 51
1, 225858, Note_on_c, 0, 52, 46
1, 225927, Note_off_c, 0, 52, 44
1, 226015, Note_on_c, 0, 90, 66
1, 226060, Note_off_c, 0, 90, 66
1, 226246, Note_on_c, 0, 40, 38
1, 226254, Note_on_c, 0, 47, 33
1, 226297, Control_c, 0, 64, 104
1, 226312, Control_c, 0, 64, 82
1, 226327, Control_c, 0, 64, 67
1, 226341, Control_c, 0, 64, 55
1, 226342, Note_on_c, 0, 71, 51
1, 226356, Control_c, 0, 64, 38
1, 226371, Control_c, 0, 64, 25
1, 226385, Control_c, 0, 64, 27
1, 226400, Control_c, 0, 64, 39
1, 226415, Control_c, 0, 64, 50
1, 226430, Control_c, 0, 64, 60
1, 226445, Control_c, 0, 64, 68
1, 226459, Control_c, 0, 64, 76
1, 226474, Control_c, 0, 64, 86
1, 226489, Control_c, 0, 64, 93
1, 226504, Note_off_c, 0, 47, 38
1, 226504, Control_c, 0, 64, 103
1, 226519, Control_c, 0, 64, 127
1, 226595, Note_on_c, 0, 45, 46
1, 226600, Control_c, 0, 67, 127
1, 226625, Note_off_c, 0, 40, 52
1, 226630, Note_on_c, 0, 47, 57
1, 226644, Note_off_c, 0, 45, 63
1, 226645, Control_c, 0, 67, 126
1, 226660, Note_off_c, 0, 71, 26
1, 226673, Note_off_c, 0, 47, 61
1, 226674, Control_c, 0, 67, 125
1, 226689, Control_c, 0, 67, 125
1, 226750, Control_c, 0, 67, 124
1, 226764, Control_c, 0, 67, 123
1, 226779, Control_c, 0, 67, 123
1, 226823, Control_c, 0, 67, 122
1, 226838, Control_c, 0, 67, 121
1, 226853, Control_c, 0, 67, 119
1, 226868, Control_c, 0, 67, 118
1, 226883, Control_c, 0, 67, 117
1, 226897, Note_on_c, 0, 71, 68
1, 226898, Control_c, 0, 67, 115
1, 226913, Control_c, 0, 67, 113
1, 226925, Note_on_c, 0, 67, 52
1, 226927, Control_c, 0, 67, 110
1, 226939, Note_on_c, 0, 62, 27
1, 226942, Control_c, 0, 67, 107
1, 226948, Note_off_c, 0, 67, 60
1, 226957, Control_c, 0, 67, 105
1, 226972, Control_c, 0, 67, 102
1, 226977, Note_off_c, 0, 62, 47
1, 226987, Control_c, 0, 67, 97
1, 227002, Control_c, 0, 67, 90
1, 227016, Control_c, 0, 67, 81
1, 227031, Control_c, 0, 67, 72
1, 227046, Control_c, 0, 67, 64
1, 227061, Control_c, 0, 67, 53
1, 227076, Control_c, 0, 67, 36
1, 227090, Control_c, 0, 67, 16
1, 227094, Note_off_c, 0, 71, 60
1, 227105, Control_c, 0, 67, 0
1, 227149, Note_on_c, 0, 52, 65
1, 227397, Note_off_c, 0, 52, 55
1, 227458, Note_on_c, 0, 48, 55
1, 227488, Note_on_c, 0, 40, 36
1, 227503, Note_on_c, 0, 83, 77
1, 227528, Control_c, 0, 64, 105
1, 227540, Note_on_c, 0, 71, 34
1, 227543, Control_c, 0, 64, 73
1, 227558, Control_c, 0, 64, 56
1, 227572, Control_c, 0, 64, 39
1, 227587, Control_c, 0, 64, 39
1, 227602, Control_c, 0, 64, 44
1, 227617, Control_c, 0, 64, 51
1, 227632, Control_c, 0, 64, 60
1, 227646, Control_c, 0, 64, 69
1, 227661, Control_c, 0, 64, 81
1, 227676, Control_c, 0, 64, 102
1, 227680, Note_off_c, 0, 71, 20
1, 227691, Control_c, 0, 64, 127
1, 227745, Note_off_c, 0, 48, 29
1, 227771, Note_on_c, 0, 47, 47
1, 227787, Note_off_c, 0, 40, 42
1, 227799, Note_on_c, 0, 48, 49
1, 227807, Note_on_c, 0, 84, 84
1, 227817, Note_on_c, 0, 72, 59
1, 227822, Note_off_c, 0, 47, 57
1, 227858, Note_off_c, 0, 83, 65
1, 227858, Note_off_c, 0, 48, 58
1, 227965, Note_off_c, 0, 72, 53
1, 228053, Note_off_c, 0, 84, 63
1, 228070, Note_on_c, 0, 74, 79
1, 228090, Note_on_c, 0, 66, 57
1, 228098, Note_on_c, 0, 64, 46
1, 228116, Note_off_c, 0, 66, 64
1, 228129, Note_off_c, 0, 64, 53
1, 228266, Note_off_c, 0, 74, 55
1, 228349, Note_on_c, 0, 88, 83
1, 228349, Note_on_c, 0, 52, 49
1, 228364, Note_on_c, 0, 76, 64
1, 228505, Note_off_c, 0, 76, 29
1, 228572, Note_off_c, 0, 52, 16
1, 228614, Note_off_c, 0, 88, 66
1, 228777, Note_on_c, 0, 90, 71
1, 228798, Note_on_c, 0, 47, 45
1, 228802, Control_c, 0, 67, 8
1, 228805, Note_on_c, 0, 40, 38
1, 228817, Note_on_c, 0, 78, 49
1, 228817, Control_c, 0, 64, 113
1, 228832, Control_c, 0, 64, 84
1, 228847, Control_c, 0, 64, 68
1, 228847, Control_c, 0, 67, 10
1, 228862, Control_c, 0, 64, 54
1, 228862, Control_c, 0, 67, 14
1, 228877, Control_c, 0, 64, 36
1, 228877, Control_c, 0, 67, 20
1, 228882, Note_off_c, 0, 78, 0
1, 228892, Control_c, 0, 64, 29
1, 228892, Control_c, 0, 67, 26
1, 228907, Control_c, 0, 64, 37
1, 228907, Control_c, 0, 67, 33
1, 228919, Poly_aftertouch_c, 0, 78, 127
1, 228921, Control_c, 0, 64, 48
1, 228921, Control_c, 0, 67, 39
1, 228936, Control_c, 0, 64, 56
1, 228936, Control_c, 0, 67, 46
1, 228951, Control_c, 0, 64, 61
1, 228951, Control_c, 0, 67, 52
1, 228966, Control_c, 0, 64, 65
1, 228966, Control_c, 0, 67, 58
1, 228981, Control_c, 0, 64, 71
1, 228981, Control_c, 0, 67, 65
1, 228995, Control_c, 0, 64, 78
1, 228995, Control_c, 0, 67, 74
1, 229007, Note_off_c, 0, 47, 61
1, 229010, Control_c, 0, 64, 82
1, 229010, Control_c, 0, 67, 78
1, 229025, Control_c, 0, 64, 87
1, 229025, Control_c, 0, 67, 79
1, 229040, Control_c, 0, 64, 96
1, 229040, Control_c, 0, 67, 80
1, 229055, Control_c, 0, 64, 110
1, 229055, Control_c, 0, 67, 81
1, 229069, Control_c, 0, 64, 127
1, 229069, Control_c, 0, 67, 85
1, 229084, Control_c, 0, 67, 86
1, 229092, Note_off_c, 0, 40, 40
1, 229098, Note_on_c, 0, 45, 37
1, 229115, Control_c, 0, 67, 87
1, 229130, Control_c, 0, 67, 87
1, 229142, Note_on_c, 0, 47, 66
1, 229143, Note_off_c, 0, 45, 64
1, 229159, Control_c, 0, 67, 87
1, 229167, Note_off_c, 0, 47, 67
1, 229174, Control_c, 0, 67, 86
1, 229218, Control_c, 0, 67, 86
1, 229263, Control_c, 0, 67, 86
1, 229298, Poly_aftertouch_c, 0, 78, 0
1, 229306, Note_off_c, 0, 90, 44
1, 229351, Control_c, 0, 67, 86
1, 229396, Control_c, 0, 67, 85
1, 229411, Control_c, 0, 67, 85
1, 229416, Note_on_c, 0, 90, 69
1, 229440, Control_c, 0, 67, 85
1, 229468, Note_on_c, 0, 78, 71
1, 229476, Note_on_c, 0, 67, 61
1, 229479, Note_on_c, 0, 76, 59
1, 229506, Note_off_c, 0, 67, 61
1, 229509, Note_off_c, 0, 76, 64
1, 229515, Control_c, 0, 67, 86
1, 229536, Control_c, 0, 67, 86
1, 229596, Control_c, 0, 67, 87
1, 229610, Control_c, 0, 67, 89
1, 229625, Control_c, 0, 67, 90
1, 229640, Control_c, 0, 67, 92
1, 229670, Control_c, 0, 67, 91
1, 229714, Note_off_c, 0, 78, 61
1, 229715, Control_c, 0, 67, 92
1, 229728, Note_off_c, 0, 90, 65
1, 229759, Note_on_c, 0, 52, 54
1, 229759, Control_c, 0, 67, 91
1, 229774, Control_c, 0, 67, 92
1, 229817, Note_off_c, 0, 52, 49
1, 229818, Control_c, 0, 67, 91
1, 229833, Control_c, 0, 67, 91
1, 229878, Control_c, 0, 67, 90
1, 229892, Control_c, 0, 67, 89
1, 229907, Control_c, 0, 67, 88
1, 229923, Control_c, 0, 67, 87
1, 229938, Control_c, 0, 67, 86
1, 229967, Control_c, 0, 67, 87
1, 230027, Control_c, 0, 67, 87
1, 230053, Note_on_c, 0, 90, 75
1, 230056, Control_c, 0, 64, 109
1, 230056, Control_c, 0, 67, 88
1, 230066, Note_on_c, 0, 45, 50
1, 230070, Note_on_c, 0, 78, 53
1, 230071, Note_on_c, 0, 40, 43
1, 230071, Control_c, 0, 64, 77
1, 230071, Control_c, 0, 67, 88
1, 230086, Control_c, 0, 64, 57
1, 230101, Control_c, 0, 64, 34
1, 230115, Control_c, 0, 64, 21
1, 230130, Control_c, 0, 64, 30
1, 230145, Control_c, 0, 64, 44
1, 230159, Control_c, 0, 64, 56
1, 230174, Control_c, 0, 64, 65
1, 230189, Control_c, 0, 64, 75
1, 230189, Control_c, 0, 67, 89
1, 230191, Note_off_c, 0, 78, 60
1, 230204, Control_c, 0, 64, 86
1, 230219, Control_c, 0, 64, 97
1, 230219, Control_c, 0, 67, 88
1, 230233, Control_c, 0, 64, 104
1, 230248, Control_c, 0, 64, 112
1, 230248, Control_c, 0, 67, 89
1, 230263, Note_off_c, 0, 45, 42
1, 230263, Control_c, 0, 64, 127
1, 230301, Control_c, 0, 67, 90
1, 230315, Control_c, 0, 67, 90
1, 230330, Control_c, 0, 67, 91
1, 230337, Note_off_c, 0, 90, 61
1, 230345, Control_c, 0, 67, 92
1, 230357, Note_on_c, 0, 43, 47
1, 230359, Note_on_c, 0, 93, 65
1, 230359, Control_c, 0, 67, 93
1, 230369, Note_off_c, 0, 40, 39
1, 230374, Control_c, 0, 67, 93
1, 230389, Control_c, 0, 67, 96
1, 230400, Note_off_c, 0, 43, 62
1, 230400, Note_on_c, 0, 91, 61
1, 230401, Note_on_c, 0, 45, 42
1, 230404, Control_c, 0, 67, 100
1, 230414, Note_off_c, 0, 93, 63
1, 230419, Control_c, 0, 67, 103
1, 230430, Note_off_c, 0, 45, 58
1, 230432, Note_on_c, 0, 79, 11
1, 230433, Control_c, 0, 67, 105
1, 230448, Control_c, 0, 67, 108
1, 230463, Control_c, 0, 67, 109
1, 230478, Control_c, 0, 67, 110
1, 230479, Note_off_c, 0, 79, 50
1, 230493, Control_c, 0, 67, 111
1, 230508, Control_c, 0, 67, 113
1, 230537, Control_c, 0, 67, 113
1, 230552, Control_c, 0, 67, 114
1, 230597, Control_c, 0, 67, 113
1, 230643, Note_on_c, 0, 78, 64
1, 230656, Control_c, 0, 67, 112
1, 230667, Note_on_c, 0, 74, 50
1, 230670, Note_on_c, 0, 69, 54
1, 230671, Control_c, 0, 67, 110
1, 230687, Note_off_c, 0, 91, 41
1, 230691, Note_off_c, 0, 69, 62
1, 230697, Note_off_c, 0, 74, 65
1, 230705, Note_off_c, 0, 78, 60
1, 230731, Control_c, 0, 67, 109
1, 230746, Control_c, 0, 67, 107
1, 230761, Control_c, 0, 67, 105
1, 230805, Control_c, 0, 67, 104
1, 230820, Control_c, 0, 67, 102
1, 230835, Control_c, 0, 67, 99
1, 230850, Control_c, 0, 67, 95
1, 230864, Control_c, 0, 67, 92
1, 230879, Control_c, 0, 67, 91
1, 230894, Control_c, 0, 67, 90
1, 230909, Control_c, 0, 67, 88
1, 230924, Control_c, 0, 67, 84
1, 230925, Note_on_c, 0, 52, 50
1, 230938, Control_c, 0, 67, 80
1, 230953, Control_c, 0, 67, 78
1, 230997, Control_c, 0, 67, 77
1, 231012, Control_c, 0, 67, 76
1, 231035, Control_c, 0, 67, 73
1, 231050, Control_c, 0, 67, 71
1, 231059, Note_off_c, 0, 52, 52
1, 231079, Control_c, 0, 67, 72
1, 231124, Control_c, 0, 67, 73
1, 231138, Control_c, 0, 67, 74
1, 231153, Control_c, 0, 67, 74
1, 231168, Control_c, 0, 67, 75
1, 231197, Control_c, 0, 67, 75
1, 231212, Control_c, 0, 64, 116
1, 231212, Control_c, 0, 67, 76
1, 231223, Note_on_c, 0, 86, 59
1, 231227, Control_c, 0, 64, 88
1, 231227, Control_c, 0, 67, 77
1, 231242, Control_c, 0, 64, 71
1, 231242, Control_c, 0, 67, 77
1, 231250, Note_off_c, 0, 86, 67
1, 231254, Note_on_c, 0, 88, 77
1, 231256, Control_c, 0, 64, 59
1, 231258, Note_on_c, 0, 40, 40
1, 231271, Control_c, 0, 64, 42
1, 231271, Control_c, 0, 67, 77
1, 231275, Note_on_c, 0, 43, 15
1, 231275, Note_on_c, 0, 76, 53
1, 231286, Control_c, 0, 64, 28
1, 231301, Control_c, 0, 67, 77
1, 231315, Control_c, 0, 64, 40
1, 231330, Control_c, 0, 64, 53
1, 231330, Control_c, 0, 67, 78
1, 231345, Control_c, 0, 64, 64
1, 231360, Control_c, 0, 64, 72
1, 231360, Control_c, 0, 67, 77
1, 231375, Control_c, 0, 64, 82
1, 231375, Control_c, 0, 67, 78
1, 231390, Control_c, 0, 64, 91
1, 231390, Control_c, 0, 67, 78
1, 231390, Note_off_c, 0, 43, 39
1, 231405, Control_c, 0, 64, 98
1, 231405, Control_c, 0, 67, 79
1, 231420, Control_c, 0, 64, 103
1, 231427, Note_off_c, 0, 88, 62
1, 231429, Note_off_c, 0, 76, 46
1, 231435, Control_c, 0, 64, 110
1, 231435, Control_c, 0, 67, 79
1, 231450, Control_c, 0, 64, 127
1, 231467, Note_off_c, 0, 40, 34
1, 231479, Control_c, 0, 67, 81
1, 231494, Control_c, 0, 67, 81
1, 231509, Control_c, 0, 67, 80
1, 231521, Note_on_c, 0, 42, 50
1, 231524, Control_c, 0, 67, 80
1, 231539, Control_c, 0, 67, 80
1, 231549, Note_on_c, 0, 43, 61
1, 231551, Note_off_c, 0, 42, 57
1, 231554, Control_c, 0, 67, 81
1, 231569, Control_c, 0, 67, 82
1, 231584, Control_c, 0, 67, 81
1, 231594, Note_off_c, 0, 43, 62
1, 231628, Control_c, 0, 67, 82
1, 231658, Control_c, 0, 67, 82
1, 231702, Control_c, 0, 67, 83
1, 231717, Control_c, 0, 67, 83
1, 231731, Control_c, 0, 67, 84
1, 231841, Note_on_c, 0, 88, 63
1, 231858, Control_c, 0, 67, 84
1, 231873, Control_c, 0, 67, 85
1, 231885, Note_on_c, 0, 76, 73
1, 231891, Note_on_c, 0, 71, 64
1, 231902, Control_c, 0, 67, 85
1, 231903, Note_on_c, 0, 72, 50
1, 231925, Note_off_c, 0, 72, 60
1, 231931, Note_off_c, 0, 71, 56
1, 231976, Control_c, 0, 67, 85
1, 232094, Control_c, 0, 67, 85
1, 232109, Control_c, 0, 67, 87
1, 232112, Note_off_c, 0, 88, 58
1, 232124, Control_c, 0, 67, 87
1, 232138, Control_c, 0, 67, 90
1, 232139, Note_off_c, 0, 76, 60
1, 232153, Control_c, 0, 67, 91
1, 232162, Note_on_c, 0, 52, 50
1, 232168, Control_c, 0, 67, 92
1, 232183, Control_c, 0, 67, 93
1, 232198, Control_c, 0, 67, 96
1, 232213, Control_c, 0, 67, 97
1, 232266, Note_off_c, 0, 52, 59
1, 232272, Control_c, 0, 67, 98
1, 232292, Note_on_c, 0, 88, 65
1, 232313, Note_on_c, 0, 76, 39
1, 232332, Note_off_c, 0, 88, 64
1, 232332, Control_c, 0, 67, 97
1, 232342, Note_off_c, 0, 76, 54
1, 232347, Control_c, 0, 67, 98
1, 232377, Control_c, 0, 67, 97
1, 232391, Control_c, 0, 67, 96
1, 232406, Control_c, 0, 67, 95
1, 232436, Control_c, 0, 67, 93
1, 232451, Control_c, 0, 67, 90
1, 232466, Control_c, 0, 67, 87
1, 232481, Control_c, 0, 67, 85
1, 232510, Control_c, 0, 67, 85
1, 232532, Control_c, 0, 67, 84
1, 232547, Control_c, 0, 64, 124
1, 232547, Control_c, 0, 67, 81
1, 232561, Control_c, 0, 64, 115
1, 232561, Control_c, 0, 67, 77
1, 232576, Control_c, 0, 64, 106
1, 232576, Control_c, 0, 67, 74
1, 232591, Control_c, 0, 64, 98
1, 232606, Control_c, 0, 64, 90
1, 232606, Control_c, 0, 67, 73
1, 232607, Note_on_c, 0, 45, 48
1, 232621, Control_c, 0, 64, 82
1, 232621, Control_c, 0, 67, 72
1, 232633, Note_on_c, 0, 40, 41
1, 232636, Control_c, 0, 64, 73
1, 232636, Control_c, 0, 67, 71
1, 232651, Control_c, 0, 64, 63
1, 232651, Control_c, 0, 67, 70
1, 232666, Control_c, 0, 64, 50
1, 232678, Note_on_c, 0, 66, 75
1, 232681, Control_c, 0, 64, 32
1, 232696, Control_c, 0, 64, 18
1, 232710, Control_c, 0, 64, 23
1, 232725, Control_c, 0, 64, 38
1, 232725, Control_c, 0, 67, 71
1, 232740, Control_c, 0, 64, 51
1, 232740, Control_c, 0, 67, 74
1, 232755, Control_c, 0, 64, 62
1, 232755, Control_c, 0, 67, 75
1, 232769, Control_c, 0, 64, 69
1, 232769, Control_c, 0, 67, 75
1, 232784, Control_c, 0, 64, 78
1, 232784, Control_c, 0, 67, 77
1, 232797, Note_off_c, 0, 66, 53
1, 232799, Control_c, 0, 64, 87
1, 232799, Control_c, 0, 67, 79
1, 232814, Control_c, 0, 64, 91
1, 232814, Control_c, 0, 67, 82
1, 232821, Note_off_c, 0, 45, 39
1, 232829, Control_c, 0, 64, 94
1, 232829, Control_c, 0, 67, 84
1, 232843, Control_c, 0, 64, 98
1, 232843, Control_c, 0, 67, 87
1, 232859, Control_c, 0, 64, 101
1, 232859, Control_c, 0, 67, 90
1, 232874, Control_c, 0, 64, 104
1, 232874, Control_c, 0, 67, 93
1, 232889, Control_c, 0, 64, 108
1, 232889, Control_c, 0, 67, 99
1, 232903, Control_c, 0, 64, 113
1, 232903, Control_c, 0, 67, 108
1, 232911, Note_off_c, 0, 40, 38
1, 232918, Control_c, 0, 64, 119
1, 232918, Control_c, 0, 67, 113
1, 232933, Control_c, 0, 64, 127
1, 232933, Control_c, 0, 67, 115
1, 232948, Control_c, 0, 67, 116
1, 232959, Note_on_c, 0, 43, 44
1, 232962, Control_c, 0, 67, 119
1, 232977, Control_c, 0, 67, 121
1, 232992, Control_c, 0, 67, 122
1, 232996, Note_on_c, 0, 45, 56
1, 232997, Note_off_c, 0, 43, 61
1, 233025, Note_off_c, 0, 45, 65
1, 233112, Control_c, 0, 67, 121
1, 233126, Control_c, 0, 67, 120
1, 233171, Control_c, 0, 67, 119
1, 233185, Control_c, 0, 67, 118
1, 233200, Control_c, 0, 67, 117
1, 233230, Control_c, 0, 67, 116
1, 233245, Control_c, 0, 67, 115
1, 233259, Control_c, 0, 67, 114
1, 233268, Note_on_c, 0, 74, 55
1, 233284, Note_on_c, 0, 69, 39
1, 233297, Control_c, 0, 67, 115
1, 233309, Note_off_c, 0, 74, 62
1, 233315, Note_off_c, 0, 69, 55
1, 233327, Control_c, 0, 67, 114
1, 233341, Control_c, 0, 67, 113
1, 233356, Control_c, 0, 67, 113
1, 233400, Control_c, 0, 67, 112
1, 233415, Control_c, 0, 67, 111
1, 233430, Control_c, 0, 67, 110
1, 233445, Control_c, 0, 67, 108
1, 233459, Control_c, 0, 67, 107
1, 233474, Control_c, 0, 67, 106
1, 233489, Control_c, 0, 67, 106
1, 233504, Control_c, 0, 67, 104
1, 233519, Control_c, 0, 67, 103
1, 233533, Control_c, 0, 67, 101
1, 233539, Note_on_c, 0, 52, 55
1, 233563, Control_c, 0, 67, 101
1, 233578, Control_c, 0, 67, 100
1, 233593, Control_c, 0, 67, 98
1, 233607, Control_c, 0, 67, 97
1, 233651, Note_off_c, 0, 52, 0
1, 233652, Control_c, 0, 67, 96
1, 233666, Control_c, 0, 67, 95
1, 233681, Control_c, 0, 67, 94
1, 233688, Poly_aftertouch_c, 0, 52, 127
1, 233696, Control_c, 0, 67, 91
1, 233710, Control_c, 0, 67, 90
1, 233740, Control_c, 0, 67, 89
1, 233755, Control_c, 0, 67, 87
1, 233758, Poly_aftertouch_c, 0, 52, 0
1, 233770, Control_c, 0, 67, 84
1, 233784, Control_c, 0, 67, 83
1, 233799, Control_c, 0, 67, 84
1, 233814, Control_c, 0, 64, 103
1, 233814, Control_c, 0, 67, 86
1, 233829, Control_c, 0, 64, 85
1, 233829, Control_c, 0, 67, 89
1, 233843, Note_on_c, 0, 90, 65
1, 233844, Control_c, 0, 64, 70
1, 233844, Control_c, 0, 67, 93
1, 233858, Note_on_c, 0, 78, 51
1, 233858, Control_c, 0, 64, 58
1, 233858, Control_c, 0, 67, 97
1, 233868, Note_on_c, 0, 40, 47
1, 233873, Control_c, 0, 64, 45
1, 233873, Control_c, 0, 67, 103
1, 233878, Note_on_c, 0, 47, 40
1, 233888, Control_c, 0, 64, 37
1, 233888, Control_c, 0, 67, 110
1, 233904, Control_c, 0, 64, 40
1, 233904, Control_c, 0, 67, 112
1, 233919, Control_c, 0, 64, 50
1, 233919, Control_c, 0, 67, 115
1, 233934, Control_c, 0, 64, 60
1, 233934, Control_c, 0, 67, 120
1, 233948, Control_c, 0, 64, 67
1, 233948, Control_c, 0, 67, 122
1, 233963, Control_c, 0, 64, 76
1, 233978, Control_c, 0, 64, 89
1, 233978, Control_c, 0, 67, 123
1, 233993, Control_c, 0, 64, 103
1, 233993, Control_c, 0, 67, 124
1, 234007, Note_off_c, 0, 78, 53
1, 234007, Control_c, 0, 64, 109
1, 234007, Control_c, 0, 67, 126
1, 234030, Control_c, 0, 64, 110
1, 234030, Control_c, 0, 67, 127
1, 234045, Control_c, 0, 64, 113
1, 234060, Control_c, 0, 64, 119
1, 234064, Note_off_c, 0, 47, 42
1, 234075, Control_c, 0, 64, 127
1, 234117, Note_off_c, 0, 40, 37
1, 234144, Note_off_c, 0, 90, 42
1, 234155, Note_on_c, 0, 93, 55
1, 234156, Note_on_c, 0, 45, 47
1, 234183, Note_on_c, 0, 91, 63
1, 234184, Note_off_c, 0, 45, 60
1, 234197, Note_on_c, 0, 47, 37
1, 234203, Note_on_c, 0, 79, 38
1, 234213, Note_off_c, 0, 93, 57
1, 234232, Note_off_c, 0, 79, 55
1, 234236, Note_off_c, 0, 47, 42
1, 234266, Note_off_c, 0, 91, 64
1, 234406, Note_on_c, 0, 79, 37
1, 234438, Note_off_c, 0, 79, 49
1, 234472, Note_on_c, 0, 90, 66
1, 234475, Note_on_c, 0, 78, 63
1, 234481, Note_on_c, 0, 76, 51
1, 234490, Note_on_c, 0, 67, 48
1, 234495, Note_off_c, 0, 78, 64
1, 234502, Note_off_c, 0, 90, 68
1, 234509, Note_off_c, 0, 76, 65
1, 234562, Note_off_c, 0, 67, 63
1, 234756, Control_c, 0, 64, 122
1, 234779, Control_c, 0, 64, 119
1, 234786, Note_on_c, 0, 52, 45
1, 234794, Control_c, 0, 64, 117
1, 234809, Control_c, 0, 64, 115
1, 234824, Control_c, 0, 64, 113
1, 234838, Control_c, 0, 64, 111
1, 234853, Control_c, 0, 64, 109
1, 234868, Control_c, 0, 64, 108
1, 234883, Control_c, 0, 64, 106
1, 234898, Control_c, 0, 64, 105
1, 234901, Note_off_c, 0, 52, 48
1, 234912, Control_c, 0, 64, 103
1, 234927, Control_c, 0, 64, 103
1, 234956, Control_c, 0, 64, 102
1, 234971, Control_c, 0, 64, 102
1, 235001, Control_c, 0, 64, 101
1, 235016, Control_c, 0, 64, 101
1, 235030, Control_c, 0, 64, 100
1, 235045, Control_c, 0, 64, 99
1, 235060, Control_c, 0, 64, 96
1, 235075, Control_c, 0, 64, 91
1, 235090, Control_c, 0, 64, 84
1, 235091, Note_on_c, 0, 90, 38
1, 235104, Control_c, 0, 64, 77
1, 235118, Note_on_c, 0, 45, 35
1, 235119, Control_c, 0, 64, 67
1, 235125, Note_on_c, 0, 83, 61
1, 235131, Note_on_c, 0, 40, 37
1, 235134, Control_c, 0, 64, 58
1, 235149, Control_c, 0, 64, 41
1, 235164, Control_c, 0, 64, 9
1, 235179, Control_c, 0, 64, 0
1, 235194, Control_c, 0, 64, 21
1, 235208, Control_c, 0, 64, 47
1, 235223, Control_c, 0, 64, 60
1, 235238, Control_c, 0, 64, 67
1, 235248, Note_off_c, 0, 90, 22
1, 235253, Control_c, 0, 64, 72
1, 235268, Control_c, 0, 64, 78
1, 235283, Control_c, 0, 64, 84
1, 235297, Control_c, 0, 64, 90
1, 235312, Note_off_c, 0, 83, 63
1, 235312, Control_c, 0, 64, 97
1, 235324, Note_off_c, 0, 45, 37
1, 235327, Control_c, 0, 64, 101
1, 235342, Control_c, 0, 64, 106
1, 235356, Control_c, 0, 64, 111
1, 235364, Note_off_c, 0, 40, 30
1, 235371, Control_c, 0, 64, 115
1, 235386, Control_c, 0, 64, 116
1, 235387, Note_on_c, 0, 43, 41
1, 235401, Control_c, 0, 64, 117
1, 235416, Control_c, 0, 64, 118
1, 235436, Note_on_c, 0, 45, 44
1, 235445, Control_c, 0, 64, 119
1, 235448, Note_off_c, 0, 43, 43
1, 235468, Note_off_c, 0, 45, 61
1, 235506, Control_c, 0, 64, 120
1, 235587, Control_c, 0, 64, 122
1, 235713, Note_on_c, 0, 83, 67
1, 235721, Control_c, 0, 64, 124
1, 235733, Note_on_c, 0, 69, 49
1, 235742, Note_on_c, 0, 71, 41
1, 235752, Note_on_c, 0, 74, 27
1, 235762, Note_off_c, 0, 69, 56
1, 235786, Note_off_c, 0, 74, 44
1, 235876, Note_off_c, 0, 83, 49
1, 235986, Note_off_c, 0, 71, 36
1, 236037, Note_on_c, 0, 52, 50
1, 236046, Control_c, 0, 64, 122
1, 236061, Control_c, 0, 64, 120
1, 236076, Control_c, 0, 64, 112
1, 236091, Control_c, 0, 64, 104
1, 236097, Note_on_c, 0, 72, 54
1, 236105, Control_c, 0, 64, 97
1, 236120, Control_c, 0, 64, 90
1, 236121, Note_off_c, 0, 52, 62
1, 236135, Control_c, 0, 64, 86
1, 236150, Control_c, 0, 64, 85
1, 236152, Note_on_c, 0, 83, 71
1, 236165, Control_c, 0, 64, 84
1, 236172, Note_off_c, 0, 72, 61
1, 236198, Note_off_c, 0, 83, 63
1, 236207, Note_on_c, 0, 71, 52
1, 236228, Note_off_c, 0, 71, 60
1, 236336, Control_c, 0, 64, 85
1, 236350, Control_c, 0, 64, 86
1, 236365, Control_c, 0, 64, 86
1, 236380, Control_c, 0, 64, 87
1, 236395, Control_c, 0, 64, 87
1, 236425, Control_c, 0, 64, 88
1, 236454, Control_c, 0, 64, 87
1, 236466, Note_on_c, 0, 59, 59
1, 236484, Control_c, 0, 64, 84
1, 236499, Control_c, 0, 64, 76
1, 236499, Note_on_c, 0, 40, 47
1, 236508, Note_on_c, 0, 43, 40
1, 236514, Control_c, 0, 64, 65
1, 236529, Control_c, 0, 64, 54
1, 236544, Control_c, 0, 64, 40
1, 236558, Control_c, 0, 64, 33
1, 236573, Control_c, 0, 64, 38
1, 236588, Control_c, 0, 64, 51
1, 236603, Control_c, 0, 64, 62
1, 236618, Control_c, 0, 64, 69
1, 236633, Control_c, 0, 64, 76
1, 236648, Control_c, 0, 64, 81
1, 236663, Control_c, 0, 64, 85
1, 236672, Note_off_c, 0, 43, 42
1, 236677, Control_c, 0, 64, 87
1, 236692, Control_c, 0, 64, 90
1, 236707, Control_c, 0, 64, 92
1, 236721, Control_c, 0, 64, 93
1, 236722, Note_off_c, 0, 40, 35
1, 236736, Control_c, 0, 64, 95
1, 236751, Control_c, 0, 64, 97
1, 236766, Control_c, 0, 64, 99
1, 236781, Control_c, 0, 64, 100
1, 236795, Control_c, 0, 64, 101
1, 236804, Note_on_c, 0, 42, 49
1, 236810, Control_c, 0, 64, 101
1, 236825, Control_c, 0, 64, 102
1, 236840, Control_c, 0, 64, 104
1, 236847, Note_off_c, 0, 42, 60
1, 236855, Control_c, 0, 64, 106
1, 236858, Note_on_c, 0, 43, 58
1, 236869, Control_c, 0, 64, 109
1, 236884, Control_c, 0, 64, 111
1, 236885, Note_off_c, 0, 43, 64
1, 236899, Control_c, 0, 64, 111
1, 236914, Control_c, 0, 64, 112
1, 236919, Note_off_c, 0, 59, 67
1, 236928, Control_c, 0, 64, 113
1, 236943, Control_c, 0, 64, 115
1, 236958, Control_c, 0, 64, 118
1, 236973, Control_c, 0, 64, 120
1, 236988, Control_c, 0, 64, 122
1, 237154, Note_on_c, 0, 72, 49
1, 237155, Note_on_c, 0, 71, 50
1, 237190, Note_off_c, 0, 71, 64
1, 237191, Note_off_c, 0, 72, 63
1, 237352, Control_c, 0, 67, 126
1, 237367, Control_c, 0, 67, 125
1, 237381, Control_c, 0, 67, 123
1, 237396, Control_c, 0, 67, 121
1, 237411, Control_c, 0, 67, 119
1, 237426, Control_c, 0, 67, 117
1, 237441, Control_c, 0, 67, 116
1, 237456, Control_c, 0, 67, 116
1, 237471, Control_c, 0, 67, 114
1, 237486, Control_c, 0, 67, 112
1, 237498, Note_on_c, 0, 52, 53
1, 237500, Control_c, 0, 67, 111
1, 237515, Control_c, 0, 67, 109
1, 237530, Control_c, 0, 67, 109
1, 237544, Control_c, 0, 67, 108
1, 237559, Control_c, 0, 67, 107
1, 237574, Control_c, 0, 67, 105
1, 237589, Control_c, 0, 67, 103
1, 237604, Control_c, 0, 67, 101
1, 237608, Note_off_c, 0, 52, 57
1, 237618, Control_c, 0, 67, 99
1, 237633, Control_c, 0, 67, 96
1, 237648, Control_c, 0, 67, 94
1, 237663, Control_c, 0, 67, 93
1, 237678, Control_c, 0, 67, 91
1, 237692, Control_c, 0, 67, 89
1, 237707, Control_c, 0, 67, 85
1, 237722, Control_c, 0, 67, 78
1, 237737, Control_c, 0, 67, 69
1, 237751, Control_c, 0, 67, 59
1, 237774, Control_c, 0, 67, 50
1, 237789, Control_c, 0, 67, 42
1, 237804, Control_c, 0, 67, 34
1, 237819, Control_c, 0, 67, 25
1, 237833, Control_c, 0, 67, 20
1, 237848, Control_c, 0, 67, 19
1, 237863, Control_c, 0, 67, 18
1, 237909, Control_c, 0, 67, 19
1, 237923, Control_c, 0, 64, 117
1, 237923, Control_c, 0, 67, 21
1, 237938, Control_c, 0, 64, 106
1, 237938, Control_c, 0, 67, 24
1, 237953, Control_c, 0, 64, 97
1, 237953, Control_c, 0, 67, 26
1, 237968, Control_c, 0, 64, 87
1, 237968, Control_c, 0, 67, 27
1, 237981, Note_on_c, 0, 66, 63
1, 237982, Control_c, 0, 64, 74
1, 237990, Note_on_c, 0, 51, 55
1, 237997, Control_c, 0, 64, 61
1, 238012, Control_c, 0, 64, 38
1, 238012, Control_c, 0, 67, 27
1, 238027, Control_c, 0, 64, 0
1, 238086, Control_c, 0, 67, 27
1, 238130, Control_c, 0, 67, 26
1, 238145, Control_c, 0, 67, 26
1, 238160, Control_c, 0, 64, 39
1, 238160, Control_c, 0, 67, 25
1, 238174, Control_c, 0, 64, 49
1, 238174, Control_c, 0, 67, 24
1, 238189, Control_c, 0, 64, 56
1, 238189, Control_c, 0, 67, 23
1, 238204, Control_c, 0, 64, 64
1, 238204, Control_c, 0, 67, 22
1, 238219, Control_c, 0, 64, 70
1, 238219, Control_c, 0, 67, 21
1, 238234, Control_c, 0, 64, 81
1, 238234, Control_c, 0, 67, 19
1, 238248, Control_c, 0, 64, 94
1, 238248, Control_c, 0, 67, 17
1, 238263, Control_c, 0, 64, 111
1, 238263, Control_c, 0, 67, 13
1, 238274, Note_on_c, 0, 57, 66
1, 238278, Control_c, 0, 64, 127
1, 238278, Control_c, 0, 67, 0
1, 238420, Note_off_c, 0, 66, 60
1, 238425, Note_on_c, 0, 92, 58
1, 238442, Note_off_c, 0, 57, 62
1, 238465, Note_off_c, 0, 92, 65
1, 238484, Note_on_c, 0, 93, 66
1, 238484, Note_on_c, 0, 81, 63
1, 238499, Control_c, 0, 64, 94
1, 238521, Note_off_c, 0, 81, 52
1, 238522, Control_c, 0, 64, 65
1, 238537, Control_c, 0, 64, 0
1, 238546, Note_on_c, 0, 58, 66
1, 238553, Note_on_c, 0, 66, 70
1, 238559, Note_on_c, 0, 94, 88
1, 238572, Note_off_c, 0, 93, 59
1, 238588, Note_off_c, 0, 58, 63
1, 238878, Control_c, 0, 64, 28
1, 238893, Control_c, 0, 64, 40
1, 238908, Control_c, 0, 64, 52
1, 238923, Control_c, 0, 64, 60
1, 238938, Control_c, 0, 64, 65
1, 238952, Control_c, 0, 64, 67
1, 238967, Control_c, 0, 64, 72
1, 238982, Control_c, 0, 64, 78
1, 238996, Control_c, 0, 64, 85
1, 239002, Note_off_c, 0, 66, 58
1, 239005, Note_on_c, 0, 58, 40
1, 239011, Control_c, 0, 64, 88
1, 239026, Control_c, 0, 64, 90
1, 239041, Control_c, 0, 64, 92
1, 239056, Control_c, 0, 64, 96
1, 239069, Note_off_c, 0, 94, 64
1, 239070, Control_c, 0, 64, 103
1, 239085, Control_c, 0, 64, 110
1, 239100, Control_c, 0, 64, 115
1, 239114, Control_c, 0, 64, 116
1, 239129, Control_c, 0, 64, 118
1, 239137, Note_off_c, 0, 51, 39
1, 239144, Control_c, 0, 64, 120
1, 239159, Control_c, 0, 64, 124
1, 239233, Control_c, 0, 64, 122
1, 239248, Control_c, 0, 64, 115
1, 239263, Control_c, 0, 64, 96
1, 239285, Control_c, 0, 64, 77
1, 239296, Note_on_c, 0, 50, 65
1, 239300, Control_c, 0, 64, 60
1, 239315, Control_c, 0, 64, 0
1, 239330, Note_off_c, 0, 58, 40
1, 239477, Control_c, 0, 66, 127
1, 239701, Control_c, 0, 64, 26
1, 239707, Note_on_c, 0, 69, 66
1, 239716, Control_c, 0, 64, 53
1, 239730, Control_c, 0, 64, 60
1, 239744, Note_off_c, 0, 50, 66
1, 239745, Control_c, 0, 64, 63
1, 239760, Control_c, 0, 64, 68
1, 239775, Control_c, 0, 64, 77
1, 239790, Control_c, 0, 64, 98
1, 239805, Control_c, 0, 64, 127
1, 239873, Note_off_c, 0, 69, 67
1, 240103, Note_on_c, 0, 67, 57
1, 240112, Note_on_c, 0, 58, 56
1, 240241, Control_c, 0, 64, 85
1, 240256, Control_c, 0, 64, 69
1, 240271, Control_c, 0, 64, 54
1, 240277, Note_on_c, 0, 93, 55
1, 240286, Control_c, 0, 64, 0
1, 240296, Note_off_c, 0, 58, 66
1, 240318, Note_off_c, 0, 93, 67
1, 240323, Note_on_c, 0, 94, 72
1, 240339, Note_off_c, 0, 67, 53
1, 240353, Note_on_c, 0, 82, 63
1, 240368, Poly_aftertouch_c, 0, 92, 0
1, 240371, Note_on_c, 0, 59, 13
1, 240391, Note_off_c, 0, 82, 62
1, 240392, Note_on_c, 0, 95, 81
1, 240404, Note_on_c, 0, 66, 63
1, 240414, Note_off_c, 0, 94, 57
1, 240494, Control_c, 0, 64, 30
1, 240509, Control_c, 0, 64, 62
1, 240523, Control_c, 0, 64, 69
1, 240538, Control_c, 0, 64, 80
1, 240553, Control_c, 0, 64, 108
1, 240568, Control_c, 0, 64, 127
1, 240591, Note_off_c, 0, 66, 55
1, 240628, Note_off_c, 0, 59, 41
1, 240702, Note_on_c, 0, 64, 66
1, 240704, Note_on_c, 0, 59, 62
1, 240905, Note_off_c, 0, 64, 61
1, 240920, Note_off_c, 0, 59, 48
1, 241017, Note_on_c, 0, 64, 69
1, 241035, Control_c, 0, 64, 101
1, 241049, Control_c, 0, 64, 64
1, 241064, Control_c, 0, 64, 39
1, 241079, Control_c, 0, 64, 0
1, 241110, Control_c, 0, 64, 39
1, 241125, Control_c, 0, 64, 58
1, 241140, Control_c, 0, 64, 71
1, 241154, Control_c, 0, 64, 87
1, 241169, Control_c, 0, 64, 127
1, 241292, Note_on_c, 0, 59, 76
1, 241415, Note_off_c, 0, 95, 43
1, 241435, Note_off_c, 0, 59, 64
1, 241449, Note_on_c, 0, 94, 67
1, 241501, Note_off_c, 0, 94, 64
1, 241506, Note_on_c, 0, 95, 67
1, 241523, Note_on_c, 0, 83, 74
1, 241546, Control_c, 0, 64, 82
1, 241561, Control_c, 0, 64, 60
1, 241567, Note_off_c, 0, 95, 64
1, 241571, Note_off_c, 0, 83, 67
1, 241576, Control_c, 0, 64, 0
1, 241587, Note_off_c, 0, 64, 0
1, 241588, Note_on_c, 0, 96, 88
1, 241591, Note_on_c, 0, 60, 63
1, 241602, Note_on_c, 0, 64, 44
1, 241665, Note_off_c, 0, 60, 61
1, 241813, Control_c, 0, 64, 38
1, 241828, Control_c, 0, 64, 47
1, 241843, Control_c, 0, 64, 54
1, 241858, Control_c, 0, 64, 58
1, 241872, Control_c, 0, 64, 62
1, 241888, Control_c, 0, 64, 66
1, 241903, Control_c, 0, 64, 68
1, 241918, Control_c, 0, 64, 70
1, 241933, Control_c, 0, 64, 73
1, 241948, Control_c, 0, 64, 76
1, 241962, Control_c, 0, 64, 80
1, 241977, Control_c, 0, 64, 84
1, 241990, Note_on_c, 0, 60, 50
1, 241992, Control_c, 0, 64, 89
1, 242007, Control_c, 0, 64, 95
1, 242021, Control_c, 0, 64, 104
1, 242036, Control_c, 0, 64, 113
1, 242050, Note_off_c, 0, 60, 0
1, 242050, Note_on_c, 0, 60, 17
1, 242051, Control_c, 0, 64, 127
1, 242214, Note_off_c, 0, 60, 36
1, 242339, Control_c, 0, 64, 93
1, 242354, Control_c, 0, 64, 74
1, 242368, Note_on_c, 0, 66, 60
1, 242369, Control_c, 0, 64, 63
1, 242372, Note_off_c, 0, 64, 61
1, 242384, Control_c, 0, 64, 52
1, 242399, Control_c, 0, 64, 36
1, 242414, Control_c, 0, 64, 26
1, 242428, Control_c, 0, 64, 33
1, 242443, Control_c, 0, 64, 48
1, 242458, Control_c, 0, 64, 60
1, 242473, Control_c, 0, 64, 65
1, 242488, Control_c, 0, 64, 69
1, 242503, Control_c, 0, 64, 73
1, 242518, Control_c, 0, 64, 79
1, 242533, Control_c, 0, 64, 84
1, 242547, Control_c, 0, 64, 89
1, 242562, Control_c, 0, 64, 91
1, 242577, Control_c, 0, 64, 94
1, 242592, Control_c, 0, 64, 99
1, 242607, Control_c, 0, 64, 105
1, 242621, Control_c, 0, 64, 107
1, 242636, Control_c, 0, 64, 108
1, 242666, Control_c, 0, 64, 108
1, 242696, Control_c, 0, 64, 108
1, 242704, Note_off_c, 0, 66, 50
1, 242731, Note_on_c, 0, 67, 50
1, 242735, Note_on_c, 0, 60, 45
1, 242747, Note_off_c, 0, 96, 31
1, 242800, Control_c, 0, 64, 108
1, 242815, Control_c, 0, 64, 110
1, 242830, Control_c, 0, 64, 114
1, 242844, Control_c, 0, 64, 115
1, 242889, Control_c, 0, 64, 113
1, 242904, Control_c, 0, 64, 104
1, 242905, Note_on_c, 0, 95, 55
1, 242918, Control_c, 0, 64, 93
1, 242933, Control_c, 0, 64, 83
1, 242944, Note_off_c, 0, 95, 67
1, 242948, Control_c, 0, 64, 72
1, 242950, Note_on_c, 0, 96, 68
1, 242962, Control_c, 0, 64, 62
1, 242977, Control_c, 0, 64, 48
1, 242992, Control_c, 0, 64, 24
1, 243001, Note_on_c, 0, 84, 54
1, 243007, Note_off_c, 0, 96, 65
1, 243007, Control_c, 0, 64, 0
1, 243021, Note_off_c, 0, 60, 33
1, 243051, Note_off_c, 0, 84, 63
1, 243059, Note_on_c, 0, 61, 47
1, 243059, Note_on_c, 0, 97, 72
1, 243075, Note_on_c, 0, 66, 47
1, 243078, Note_off_c, 0, 67, 44
1, 243087, Note_off_c, 0, 61, 63
1, 243400, Control_c, 0, 64, 22
1, 243415, Control_c, 0, 64, 37
1, 243430, Control_c, 0, 64, 49
1, 243445, Control_c, 0, 64, 56
1, 243460, Control_c, 0, 64, 60
1, 243474, Control_c, 0, 64, 62
1, 243490, Control_c, 0, 64, 64
1, 243496, Note_off_c, 0, 97, 52
1, 243505, Control_c, 0, 64, 69
1, 243520, Control_c, 0, 64, 74
1, 243534, Control_c, 0, 64, 79
1, 243549, Control_c, 0, 64, 82
1, 243564, Control_c, 0, 64, 86
1, 243579, Control_c, 0, 64, 95
1, 243594, Control_c, 0, 64, 106
1, 243609, Note_on_c, 0, 61, 27
1, 243609, Control_c, 0, 64, 127
1, 243619, Note_off_c, 0, 66, 36
1, 243734, Note_off_c, 0, 61, 35
1, 243868, Control_c, 0, 66, 0
1, 244148, Control_c, 0, 64, 91
1, 244151, Note_on_c, 0, 66, 38
1, 244163, Control_c, 0, 64, 69
1, 244172, Note_on_c, 0, 51, 33
1, 244178, Control_c, 0, 64, 55
1, 244193, Control_c, 0, 64, 32
1, 244208, Control_c, 0, 64, 0
1, 244267, Control_c, 0, 64, 26
1, 244282, Control_c, 0, 64, 48
1, 244290, Note_on_c, 0, 95, 39
1, 244297, Control_c, 0, 64, 62
1, 244312, Control_c, 0, 64, 69
1, 244327, Control_c, 0, 64, 73
1, 244342, Control_c, 0, 64, 77
1, 244357, Control_c, 0, 64, 86
1, 244363, Note_off_c, 0, 51, 37
1, 244372, Control_c, 0, 64, 109
1, 244387, Control_c, 0, 64, 127
1, 244458, Note_on_c, 0, 96, 63
1, 244463, Note_off_c, 0, 95, 41
1, 244499, Note_off_c, 0, 96, 63
1, 244502, Note_off_c, 0, 66, 42
1, 244552, Note_on_c, 0, 84, 56
1, 244597, Note_off_c, 0, 84, 0
1, 244634, Poly_aftertouch_c, 0, 84, 127
1, 244646, Note_on_c, 0, 67, 42
1, 244650, Poly_aftertouch_c, 0, 84, 0
1, 244658, Note_on_c, 0, 60, 44
1, 244701, Note_off_c, 0, 67, 0
1, 244701, Note_on_c, 0, 67, 5
1, 244708, Note_on_c, 0, 83, 68
1, 244750, Note_off_c, 0, 83, 61
1, 244767, Note_on_c, 0, 94, 67
1, 244823, Control_c, 0, 64, 102
1, 244829, Note_off_c, 0, 94, 64
1, 244835, Note_on_c, 0, 95, 69
1, 244838, Control_c, 0, 64, 83
1, 244853, Control_c, 0, 64, 72
1, 244868, Control_c, 0, 64, 65
1, 244883, Control_c, 0, 64, 65
1, 244897, Control_c, 0, 64, 69
1, 244899, Note_on_c, 0, 83, 67
1, 244912, Control_c, 0, 64, 78
1, 244912, Control_c, 0, 67, 8
1, 244926, Note_on_c, 0, 66, 40
1, 244927, Control_c, 0, 64, 101
1, 244927, Control_c, 0, 67, 10
1, 244941, Note_off_c, 0, 95, 61
1, 244941, Control_c, 0, 64, 127
1, 244941, Control_c, 0, 67, 11
1, 244955, Note_off_c, 0, 67, 42
1, 244956, Control_c, 0, 67, 12
1, 244974, Note_off_c, 0, 60, 52
1, 244986, Note_off_c, 0, 66, 0
1, 244986, Note_on_c, 0, 66, 9
1, 245045, Control_c, 0, 67, 11
1, 245060, Control_c, 0, 67, 10
1, 245091, Control_c, 0, 67, 10
1, 245135, Control_c, 0, 67, 10
1, 245150, Control_c, 0, 67, 8
1, 245165, Control_c, 0, 67, 0
1, 245180, Note_off_c, 0, 83, 55
1, 245194, Control_c, 0, 67, 8
1, 245212, Note_on_c, 0, 59, 53
1, 245261, Control_c, 0, 67, 0
1, 245574, Note_on_c, 0, 81, 73
1, 245589, Note_on_c, 0, 71, 66
1, 245730, Note_off_c, 0, 66, 41
1, 245758, Note_on_c, 0, 82, 79
1, 245761, Note_off_c, 0, 81, 61
1, 245849, Note_on_c, 0, 70, 63
1, 245871, Note_off_c, 0, 82, 59
1, 245894, Note_off_c, 0, 71, 55
1, 245913, Note_off_c, 0, 70, 61
1, 245925, Note_off_c, 0, 59, 61
1, 245981, Note_on_c, 0, 82, 73
1, 245991, Note_on_c, 0, 66, 71
1, 245996, Note_on_c, 0, 58, 60
1, 246022, Note_off_c, 0, 82, 61
1, 246093, Note_on_c, 0, 81, 72
1, 246176, Note_on_c, 0, 92, 78
1, 246236, Note_off_c, 0, 81, 64
1, 246264, Note_on_c, 0, 93, 87
1, 246287, Note_off_c, 0, 92, 65
1, 246336, Control_c, 0, 64, 84
1, 246342, Note_on_c, 0, 81, 84
1, 246350, Note_on_c, 0, 71, 68
1, 246351, Control_c, 0, 64, 64
1, 246366, Control_c, 0, 64, 41
1, 246380, Control_c, 0, 64, 16
1, 246395, Control_c, 0, 64, 13
1, 246410, Control_c, 0, 64, 34
1, 246425, Control_c, 0, 64, 54
1, 246440, Control_c, 0, 64, 69
1, 246447, Note_off_c, 0, 66, 33
1, 246454, Control_c, 0, 64, 89
1, 246469, Control_c, 0, 64, 127
1, 246563, Note_off_c, 0, 71, 34
1, 246581, Note_off_c, 0, 58, 33
1, 246621, Note_on_c, 0, 57, 60
1, 246652, Note_on_c, 0, 66, 43
1, 246884, Note_off_c, 0, 66, 42
1, 246965, Note_off_c, 0, 93, 52
1, 247018, Note_on_c, 0, 59, 58
1, 247030, Note_on_c, 0, 71, 42
1, 247050, Note_on_c, 0, 91, 61
1, 247055, Control_c, 0, 64, 119
1, 247069, Note_off_c, 0, 57, 62
1, 247070, Control_c, 0, 64, 82
1, 247082, Note_off_c, 0, 81, 34
1, 247085, Control_c, 0, 64, 68
1, 247100, Control_c, 0, 64, 59
1, 247115, Control_c, 0, 64, 54
1, 247129, Control_c, 0, 64, 55
1, 247144, Control_c, 0, 64, 60
1, 247159, Control_c, 0, 64, 69
1, 247174, Control_c, 0, 64, 89
1, 247189, Control_c, 0, 64, 127
1, 247248, Note_off_c, 0, 91, 62
1, 247258, Note_on_c, 0, 92, 71
1, 247311, Note_off_c, 0, 92, 65
1, 247348, Note_on_c, 0, 80, 58
1, 247396, Note_off_c, 0, 80, 61
1, 247397, Note_off_c, 0, 59, 38
1, 247404, Note_off_c, 0, 71, 33
1, 247439, Note_on_c, 0, 56, 38
1, 247447, Note_on_c, 0, 80, 53
1, 247457, Note_on_c, 0, 66, 47
1, 247481, Note_off_c, 0, 80, 63
1, 247546, Note_on_c, 0, 79, 65
1, 247604, Note_off_c, 0, 79, 49
1, 247642, Note_on_c, 0, 90, 64
1, 247746, Control_c, 0, 64, 98
1, 247755, Note_off_c, 0, 66, 20
1, 247760, Control_c, 0, 64, 83
1, 247773, Note_off_c, 0, 90, 66
1, 247775, Note_on_c, 0, 91, 71
1, 247775, Control_c, 0, 64, 71
1, 247790, Control_c, 0, 64, 64
1, 247805, Control_c, 0, 64, 58
1, 247820, Control_c, 0, 64, 53
1, 247834, Control_c, 0, 64, 49
1, 247849, Control_c, 0, 64, 45
1, 247864, Control_c, 0, 64, 42
1, 247879, Control_c, 0, 64, 44
1, 247894, Control_c, 0, 64, 50
1, 247906, Note_on_c, 0, 71, 26
1, 247908, Control_c, 0, 64, 60
1, 247923, Control_c, 0, 64, 69
1, 247934, Note_on_c, 0, 79, 56
1, 247938, Control_c, 0, 64, 81
1, 247952, Control_c, 0, 64, 102
1, 247967, Control_c, 0, 64, 127
1, 248045, Note_off_c, 0, 71, 59
1, 248109, Note_off_c, 0, 56, 34
1, 248152, Note_off_c, 0, 79, 37
1, 248241, Note_off_c, 0, 91, 36
1, 248307, Note_on_c, 0, 55, 41
1, 248331, Note_on_c, 0, 66, 37
1, 248398, Note_off_c, 0, 66, 40
1, 248435, Note_off_c, 0, 55, 33
1, 248968, Control_c, 0, 64, 94
1, 248982, Control_c, 0, 64, 73
1, 248994, Note_on_c, 0, 89, 42
1, 249004, Control_c, 0, 64, 61
1, 249010, Note_on_c, 0, 50, 28
1, 249019, Control_c, 0, 64, 48
1, 249028, Note_on_c, 0, 59, 13
1, 249034, Control_c, 0, 64, 33
1, 249049, Control_c, 0, 64, 25
1, 249079, Control_c, 0, 64, 30
1, 249079, Control_c, 0, 67, 9
1, 249094, Control_c, 0, 64, 42
1, 249094, Control_c, 0, 67, 11
1, 249109, Control_c, 0, 64, 52
1, 249109, Control_c, 0, 67, 14
1, 249124, Control_c, 0, 64, 59
1, 249124, Control_c, 0, 67, 19
1, 249138, Control_c, 0, 64, 62
1, 249138, Control_c, 0, 67, 26
1, 249153, Control_c, 0, 64, 64
1, 249153, Control_c, 0, 67, 34
1, 249168, Control_c, 0, 64, 66
1, 249168, Control_c, 0, 67, 41
1, 249183, Control_c, 0, 64, 70
1, 249183, Control_c, 0, 67, 47
1, 249198, Control_c, 0, 64, 75
1, 249198, Control_c, 0, 67, 52
1, 249213, Control_c, 0, 64, 80
1, 249213, Control_c, 0, 67, 57
1, 249228, Control_c, 0, 64, 83
1, 249228, Control_c, 0, 67, 60
1, 249243, Control_c, 0, 64, 87
1, 249243, Control_c, 0, 67, 64
1, 249248, Note_on_c, 0, 90, 67
1, 249257, Note_off_c, 0, 89, 44
1, 249257, Control_c, 0, 64, 91
1, 249257, Control_c, 0, 67, 67
1, 249272, Control_c, 0, 64, 97
1, 249272, Control_c, 0, 67, 71
1, 249287, Control_c, 0, 64, 103
1, 249287, Control_c, 0, 67, 76
1, 249302, Control_c, 0, 64, 107
1, 249302, Control_c, 0, 67, 80
1, 249314, Note_off_c, 0, 90, 63
1, 249317, Control_c, 0, 64, 111
1, 249317, Control_c, 0, 67, 85
1, 249331, Control_c, 0, 64, 116
1, 249331, Control_c, 0, 67, 87
1, 249346, Control_c, 0, 64, 122
1, 249346, Control_c, 0, 67, 88
1, 249361, Control_c, 0, 64, 127
1, 249361, Control_c, 0, 67, 90
1, 249374, Note_on_c, 0, 78, 52
1, 249376, Control_c, 0, 67, 93
1, 249391, Control_c, 0, 67, 95
1, 249405, Control_c, 0, 67, 95
1, 249422, Note_off_c, 0, 78, 51
1, 249435, Control_c, 0, 67, 96
1, 249450, Control_c, 0, 67, 97
1, 249465, Control_c, 0, 67, 99
1, 249479, Control_c, 0, 67, 100
1, 249524, Control_c, 0, 67, 100
1, 249526, Note_on_c, 0, 78, 54
1, 249538, Control_c, 0, 67, 101
1, 249539, Note_off_c, 0, 59, 38
1, 249541, Note_on_c, 0, 54, 42
1, 249553, Control_c, 0, 67, 102
1, 249558, Note_off_c, 0, 78, 55
1, 249598, Control_c, 0, 67, 103
1, 249612, Control_c, 0, 67, 105
1, 249627, Control_c, 0, 67, 107
1, 249630, Note_on_c, 0, 77, 54
1, 249642, Control_c, 0, 67, 108
1, 249657, Control_c, 0, 67, 109
1, 249672, Control_c, 0, 67, 110
1, 249687, Control_c, 0, 67, 113
1, 249702, Control_c, 0, 67, 116
1, 249716, Control_c, 0, 67, 117
1, 249731, Control_c, 0, 67, 117
1, 249753, Control_c, 0, 67, 118
1, 249768, Control_c, 0, 64, 124
1, 249768, Control_c, 0, 67, 119
1, 249772, Note_on_c, 0, 88, 64
1, 249774, Note_off_c, 0, 77, 30
1, 249783, Control_c, 0, 64, 122
1, 249783, Control_c, 0, 67, 121
1, 249798, Control_c, 0, 64, 120
1, 249798, Control_c, 0, 67, 123
1, 249812, Control_c, 0, 64, 117
1, 249812, Control_c, 0, 67, 124
1, 249827, Control_c, 0, 64, 113
1, 249842, Control_c, 0, 64, 110
1, 249857, Control_c, 0, 67, 124
1, 249872, Control_c, 0, 67, 125
1, 249888, Control_c, 0, 67, 126
1, 249902, Control_c, 0, 64, 109
1, 249907, Note_off_c, 0, 88, 66
1, 249914, Note_on_c, 0, 89, 62
1, 249917, Control_c, 0, 64, 107
1, 249932, Control_c, 0, 64, 102
1, 249932, Control_c, 0, 67, 126
1, 249947, Control_c, 0, 64, 97
1, 249947, Control_c, 0, 67, 127
1, 249961, Control_c, 0, 64, 91
1, 249976, Control_c, 0, 64, 83
1, 249991, Control_c, 0, 64, 72
1, 250006, Control_c, 0, 64, 62
1, 250021, Control_c, 0, 64, 52
1, 250035, Control_c, 0, 64, 41
1, 250050, Control_c, 0, 64, 38
1, 250061, Note_on_c, 0, 77, 52
1, 250065, Control_c, 0, 64, 47
1, 250077, Note_on_c, 0, 59, 35
1, 250080, Control_c, 0, 64, 59
1, 250095, Control_c, 0, 64, 69
1, 250103, Note_off_c, 0, 54, 38
1, 250109, Control_c, 0, 64, 77
1, 250124, Control_c, 0, 64, 87
1, 250139, Control_c, 0, 64, 96
1, 250153, Control_c, 0, 64, 103
1, 250168, Control_c, 0, 64, 114
1, 250183, Control_c, 0, 64, 127
1, 250258, Note_off_c, 0, 89, 55
1, 250267, Note_off_c, 0, 77, 59
1, 250405, Control_c, 0, 67, 127
1, 250428, Note_on_c, 0, 53, 42
1, 250515, Note_off_c, 0, 50, 42
1, 250541, Note_off_c, 0, 59, 39
1, 250605, Control_c, 0, 67, 127
1, 250736, Note_off_c, 0, 53, 29
1, 251046, Note_on_c, 0, 49, 38
1, 251083, Note_on_c, 0, 54, 42
1, 251109, Control_c, 0, 64, 97
1, 251124, Control_c, 0, 64, 81
1, 251139, Control_c, 0, 64, 69
1, 251143, Note_on_c, 0, 59, 42
1, 251154, Control_c, 0, 64, 62
1, 251168, Control_c, 0, 64, 57
1, 251181, Note_on_c, 0, 64, 67
1, 251183, Control_c, 0, 64, 58
1, 251198, Control_c, 0, 64, 62
1, 251213, Control_c, 0, 64, 68
1, 251228, Control_c, 0, 64, 76
1, 251250, Control_c, 0, 64, 89
1, 251265, Control_c, 0, 64, 110
1, 251280, Control_c, 0, 64, 127
1, 251295, Control_c, 0, 67, 126
1, 251303, Note_off_c, 0, 49, 41
1, 251309, Control_c, 0, 67, 126
1, 251343, Note_off_c, 0, 59, 41
1, 251353, Note_off_c, 0, 54, 51
1, 251354, Control_c, 0, 67, 125
1, 251369, Control_c, 0, 67, 123
1, 251383, Control_c, 0, 67, 121
1, 251398, Control_c, 0, 67, 120
1, 251420, Note_on_c, 0, 66, 59
1, 251455, Note_off_c, 0, 64, 53
1, 251457, Control_c, 0, 67, 119
1, 251473, Control_c, 0, 67, 115
1, 251488, Control_c, 0, 67, 114
1, 251501, Note_off_c, 0, 66, 61
1, 251535, Note_on_c, 0, 76, 54
1, 251547, Control_c, 0, 67, 113
1, 251562, Control_c, 0, 67, 111
1, 251577, Control_c, 0, 67, 108
1, 251592, Control_c, 0, 67, 106
1, 251606, Control_c, 0, 67, 106
1, 251624, Note_off_c, 0, 76, 62
1, 251636, Control_c, 0, 67, 105
1, 251645, Note_on_c, 0, 75, 64
1, 251651, Control_c, 0, 67, 103
1, 251666, Control_c, 0, 67, 100
1, 251681, Control_c, 0, 67, 97
1, 251696, Control_c, 0, 67, 95
1, 251711, Control_c, 0, 67, 94
1, 251725, Control_c, 0, 67, 92
1, 251727, Note_off_c, 0, 75, 64
1, 251740, Control_c, 0, 67, 90
1, 251743, Note_on_c, 0, 76, 63
1, 251755, Control_c, 0, 67, 87
1, 251770, Control_c, 0, 67, 83
1, 251772, Note_off_c, 0, 76, 63
1, 251785, Control_c, 0, 67, 81
1, 251799, Control_c, 0, 67, 80
1, 251814, Control_c, 0, 67, 78
1, 251829, Control_c, 0, 67, 76
1, 251844, Control_c, 0, 67, 73
1, 251845, Note_on_c, 0, 76, 68
1, 251859, Control_c, 0, 67, 69
1, 251862, Note_on_c, 0, 55, 54
1, 251864, Note_on_c, 0, 64, 48
1, 251873, Control_c, 0, 67, 67
1, 251888, Control_c, 0, 67, 65
1, 251903, Control_c, 0, 67, 63
1, 251917, Control_c, 0, 67, 61
1, 251932, Note_off_c, 0, 55, 57
1, 251932, Control_c, 0, 67, 59
1, 251947, Control_c, 0, 67, 56
1, 251952, Note_off_c, 0, 76, 51
1, 251962, Control_c, 0, 67, 53
1, 251973, Note_on_c, 0, 78, 73
1, 251977, Control_c, 0, 67, 49
1, 251982, Note_off_c, 0, 64, 58
1, 251999, Control_c, 0, 67, 46
1, 252014, Control_c, 0, 67, 42
1, 252029, Control_c, 0, 67, 37
1, 252037, Note_off_c, 0, 78, 62
1, 252044, Control_c, 0, 67, 31
1, 252059, Control_c, 0, 67, 25
1, 252073, Control_c, 0, 67, 18
1, 252083, Note_on_c, 0, 88, 69
1, 252088, Control_c, 0, 67, 8
1, 252103, Control_c, 0, 67, 0
1, 252150, Note_off_c, 0, 88, 66
1, 252178, Note_on_c, 0, 87, 81
1, 252224, Note_off_c, 0, 87, 65
1, 252277, Note_on_c, 0, 88, 88
1, 252462, Note_on_c, 0, 64, 77
1, 252465, Note_on_c, 0, 59, 59
1, 252487, Note_on_c, 0, 90, 58
1, 252544, Note_off_c, 0, 90, 50
1, 252558, Note_off_c, 0, 88, 33
1, 252593, Control_c, 0, 67, 8
1, 252608, Control_c, 0, 67, 9
1, 252622, Control_c, 0, 67, 11
1, 252627, Note_on_c, 0, 100, 69
1, 252637, Control_c, 0, 67, 12
1, 252682, Control_c, 0, 67, 13
1, 252695, Note_off_c, 0, 100, 64
1, 252696, Control_c, 0, 67, 15
1, 252711, Control_c, 0, 67, 19
1, 252726, Control_c, 0, 67, 23
1, 252748, Control_c, 0, 67, 25
1, 252763, Control_c, 0, 67, 29
1, 252774, Note_on_c, 0, 88, 59
1, 252778, Control_c, 0, 67, 33
1, 252779, Note_on_c, 0, 67, 84
1, 252793, Control_c, 0, 67, 37
1, 252808, Control_c, 0, 67, 42
1, 252822, Control_c, 0, 67, 47
1, 252827, Note_off_c, 0, 88, 63
1, 252837, Control_c, 0, 67, 53
1, 252842, Note_off_c, 0, 64, 58
1, 252852, Control_c, 0, 67, 58
1, 252867, Control_c, 0, 67, 63
1, 252882, Control_c, 0, 67, 68
1, 252896, Control_c, 0, 67, 76
1, 252909, Note_off_c, 0, 59, 63
1, 252911, Control_c, 0, 67, 86
1, 252912, Note_on_c, 0, 87, 67
1, 252926, Control_c, 0, 67, 98
1, 252941, Control_c, 0, 67, 109
1, 252955, Control_c, 0, 67, 117
1, 252956, Note_off_c, 0, 87, 54
1, 252970, Control_c, 0, 67, 122
1, 252985, Control_c, 0, 67, 125
1, 253000, Control_c, 0, 67, 127
1, 253032, Note_on_c, 0, 88, 65
1, 253056, Note_off_c, 0, 67, 61
1, 253178, Control_c, 0, 64, 98
1, 253192, Note_off_c, 0, 88, 31
1, 253192, Note_on_c, 0, 78, 63
1, 253193, Control_c, 0, 64, 78
1, 253204, Note_on_c, 0, 66, 46
1, 253208, Control_c, 0, 64, 62
1, 253213, Note_on_c, 0, 57, 56
1, 253223, Control_c, 0, 64, 48
1, 253238, Control_c, 0, 64, 36
1, 253252, Control_c, 0, 64, 38
1, 253262, Note_off_c, 0, 66, 0
1, 253262, Note_on_c, 0, 66, 3
1, 253267, Control_c, 0, 64, 49
1, 253282, Control_c, 0, 64, 60
1, 253297, Control_c, 0, 64, 68
1, 253312, Control_c, 0, 64, 80
1, 253326, Control_c, 0, 64, 94
1, 253333, Note_on_c, 0, 88, 62
1, 253341, Control_c, 0, 64, 106
1, 253356, Note_off_c, 0, 78, 32
1, 253356, Control_c, 0, 64, 114
1, 253369, Note_off_c, 0, 57, 56
1, 253371, Control_c, 0, 64, 124
1, 253386, Control_c, 0, 64, 127
1, 253400, Note_off_c, 0, 88, 65
1, 253406, Note_off_c, 0, 66, 50
1, 253452, Note_on_c, 0, 76, 58
1, 253529, Note_off_c, 0, 76, 56
1, 253578, Note_on_c, 0, 75, 57
1, 253635, Note_off_c, 0, 75, 64
1, 253690, Note_on_c, 0, 76, 59
1, 253797, Note_off_c, 0, 76, 44
1, 253852, Control_c, 0, 64, 116
1, 253856, Note_on_c, 0, 58, 46
1, 253867, Control_c, 0, 64, 89
1, 253877, Note_on_c, 0, 48, 45
1, 253883, Control_c, 0, 64, 73
1, 253898, Control_c, 0, 64, 62
1, 253913, Control_c, 0, 64, 49
1, 253921, Note_on_c, 0, 66, 57
1, 253928, Control_c, 0, 64, 47
1, 253942, Control_c, 0, 64, 54
1, 253957, Control_c, 0, 64, 63
1, 253972, Control_c, 0, 64, 71
1, 253987, Control_c, 0, 64, 81
1, 254001, Control_c, 0, 64, 94
1, 254016, Control_c, 0, 64, 106
1, 254024, Note_off_c, 0, 66, 52
1, 254031, Control_c, 0, 64, 115
1, 254046, Control_c, 0, 64, 127
1, 254056, Note_on_c, 0, 64, 63
1, 254089, Note_off_c, 0, 48, 37
1, 254119, Control_c, 0, 67, 126
1, 254122, Note_off_c, 0, 64, 63
1, 254134, Control_c, 0, 67, 124
1, 254146, Note_on_c, 0, 66, 61
1, 254149, Control_c, 0, 67, 122
1, 254164, Control_c, 0, 67, 120
1, 254179, Control_c, 0, 67, 119
1, 254181, Note_off_c, 0, 66, 63
1, 254194, Control_c, 0, 67, 118
1, 254209, Control_c, 0, 67, 118
1, 254224, Note_on_c, 0, 76, 61
1, 254224, Control_c, 0, 67, 117
1, 254246, Control_c, 0, 67, 116
1, 254257, Note_on_c, 0, 64, 50
1, 254261, Control_c, 0, 67, 115
1, 254275, Control_c, 0, 67, 114
1, 254290, Control_c, 0, 67, 113
1, 254298, Note_off_c, 0, 64, 53
1, 254301, Note_off_c, 0, 76, 64
1, 254305, Control_c, 0, 67, 113
1, 254316, Note_on_c, 0, 75, 62
1, 254320, Control_c, 0, 67, 111
1, 254334, Control_c, 0, 67, 110
1, 254349, Control_c, 0, 67, 109
1, 254352, Note_off_c, 0, 75, 64
1, 254364, Control_c, 0, 67, 108
1, 254394, Control_c, 0, 67, 108
1, 254396, Note_off_c, 0, 58, 36
1, 254407, Note_on_c, 0, 76, 73
1, 254408, Control_c, 0, 67, 106
1, 254423, Control_c, 0, 67, 106
1, 254438, Control_c, 0, 67, 105
1, 254453, Control_c, 0, 67, 101
1, 254468, Control_c, 0, 67, 96
1, 254471, Note_off_c, 0, 76, 60
1, 254483, Control_c, 0, 67, 93
1, 254490, Note_on_c, 0, 58, 28
1, 254498, Control_c, 0, 67, 94
1, 254498, Note_on_c, 0, 78, 70
1, 254510, Note_on_c, 0, 49, 39
1, 254513, Control_c, 0, 67, 100
1, 254517, Note_on_c, 0, 66, 67
1, 254527, Control_c, 0, 67, 106
1, 254542, Control_c, 0, 67, 110
1, 254557, Control_c, 0, 67, 119
1, 254572, Note_off_c, 0, 78, 59
1, 254572, Control_c, 0, 67, 127
1, 254591, Note_on_c, 0, 76, 72
1, 254619, Note_off_c, 0, 49, 56
1, 254671, Note_off_c, 0, 76, 62
1, 254673, Note_off_c, 0, 66, 62
1, 254683, Note_on_c, 0, 78, 71
1, 254736, Note_off_c, 0, 78, 63
1, 254768, Note_on_c, 0, 88, 67
1, 254780, Note_on_c, 0, 67, 52
1, 254829, Note_off_c, 0, 67, 54
1, 254859, Note_on_c, 0, 87, 71
1, 254866, Note_off_c, 0, 88, 58
1, 254906, Note_off_c, 0, 87, 63
1, 254967, Note_on_c, 0, 88, 68
1, 254987, Control_c, 0, 64, 119
1, 255010, Control_c, 0, 64, 106
1, 255024, Control_c, 0, 64, 90
1, 255039, Control_c, 0, 64, 78
1, 255052, Note_off_c, 0, 88, 62
1, 255054, Control_c, 0, 64, 66
1, 255069, Control_c, 0, 64, 52
1, 255084, Control_c, 0, 64, 28
1, 255098, Control_c, 0, 64, 0
1, 255122, Note_on_c, 0, 100, 66
1, 255128, Control_c, 0, 64, 22
1, 255133, Note_on_c, 0, 64, 42
1, 255135, Note_on_c, 0, 54, 40
1, 255143, Control_c, 0, 64, 40
1, 255153, Note_off_c, 0, 100, 67
1, 255157, Control_c, 0, 64, 55
1, 255172, Control_c, 0, 64, 65
1, 255187, Control_c, 0, 64, 71
1, 255202, Control_c, 0, 64, 76
1, 255217, Control_c, 0, 64, 81
1, 255231, Control_c, 0, 64, 84
1, 255246, Control_c, 0, 64, 88
1, 255261, Control_c, 0, 64, 95
1, 255276, Control_c, 0, 64, 105
1, 255291, Control_c, 0, 64, 119
1, 255306, Control_c, 0, 64, 127
1, 255720, Note_on_c, 0, 76, 50
1, 255744, Control_c, 0, 64, 104
1, 255759, Control_c, 0, 64, 89
1, 255773, Control_c, 0, 64, 77
1, 255788, Control_c, 0, 64, 67
1, 255803, Control_c, 0, 64, 61
1, 255818, Control_c, 0, 64, 58
1, 255833, Control_c, 0, 64, 61
1, 255847, Control_c, 0, 64, 67
1, 255862, Control_c, 0, 64, 74
1, 255877, Control_c, 0, 64, 82
1, 255892, Control_c, 0, 64, 89
1, 255898, Note_off_c, 0, 76, 61
1, 255907, Control_c, 0, 64, 93
1, 255921, Control_c, 0, 64, 96
1, 255936, Control_c, 0, 64, 100
1, 255951, Control_c, 0, 64, 102
1, 255966, Control_c, 0, 64, 104
1, 255980, Control_c, 0, 64, 105
1, 255995, Control_c, 0, 64, 107
1, 256010, Control_c, 0, 64, 108
1, 256025, Control_c, 0, 64, 109
1, 256069, Control_c, 0, 64, 109
1, 256322, Control_c, 0, 64, 109
1, 256352, Control_c, 0, 64, 106
1, 256367, Control_c, 0, 64, 100
1, 256375, Note_on_c, 0, 76, 49
1, 256382, Control_c, 0, 64, 92
1, 256396, Control_c, 0, 64, 80
1, 256411, Control_c, 0, 64, 69
1, 256426, Control_c, 0, 64, 58
1, 256441, Control_c, 0, 64, 46
1, 256456, Control_c, 0, 64, 29
1, 256462, Note_off_c, 0, 76, 50
1, 256470, Control_c, 0, 64, 0
1, 256495, Note_on_c, 0, 67, 44
1, 256534, Note_on_c, 0, 51, 4
1, 256656, Control_c, 0, 64, 30
1, 256670, Control_c, 0, 64, 46
1, 256685, Control_c, 0, 64, 56
1, 256700, Control_c, 0, 64, 62
1, 256714, Control_c, 0, 64, 65
1, 256729, Control_c, 0, 64, 70
1, 256744, Control_c, 0, 64, 76
1, 256759, Control_c, 0, 64, 84
1, 256774, Control_c, 0, 64, 95
1, 256788, Control_c, 0, 64, 115
1, 256803, Control_c, 0, 64, 127
1, 256831, Note_off_c, 0, 51, 42
1, 256859, Note_off_c, 0, 67, 41
1, 256878, Note_off_c, 0, 64, 43
1, 256883, Note_off_c, 0, 54, 41
1, 256883, Note_off_c, 0, 58, 41
1, 257300, Control_c, 0, 67, 127
1, 257315, Control_c, 0, 67, 126
1, 257330, Control_c, 0, 67, 126
1, 257360, Control_c, 0, 67, 125
1, 257389, Control_c, 0, 67, 125
1, 257434, Control_c, 0, 67, 124
1, 257449, Control_c, 0, 67, 124
1, 257537, Control_c, 0, 67, 123
1, 257583, Control_c, 0, 67, 123
1, 257642, Control_c, 0, 67, 122
1, 257672, Control_c, 0, 67, 122
1, 257716, Control_c, 0, 67, 121
1, 257954, Control_c, 0, 67, 121
1, 258006, Control_c, 0, 67, 120
1, 258110, Control_c, 0, 64, 97
1, 258124, Control_c, 0, 64, 79
1, 258139, Note_on_c, 0, 76, 48
1, 258139, Control_c, 0, 64, 65
1, 258152, Note_on_c, 0, 71, 33
1, 258154, Control_c, 0, 64, 55
1, 258168, Control_c, 0, 64, 42
1, 258183, Control_c, 0, 64, 31
1, 258185, Note_on_c, 0, 64, 19
1, 258198, Control_c, 0, 64, 23
1, 258213, Control_c, 0, 64, 18
1, 258228, Control_c, 0, 64, 16
1, 258242, Control_c, 0, 64, 18
1, 258257, Control_c, 0, 64, 33
1, 258257, Control_c, 0, 67, 120
1, 258272, Control_c, 0, 64, 48
1, 258272, Control_c, 0, 67, 119
1, 258287, Control_c, 0, 64, 57
1, 258302, Control_c, 0, 64, 61
1, 258302, Control_c, 0, 67, 119
1, 258316, Control_c, 0, 64, 64
1, 258316, Control_c, 0, 67, 118
1, 258331, Control_c, 0, 64, 68
1, 258346, Control_c, 0, 64, 72
1, 258346, Control_c, 0, 67, 117
1, 258361, Control_c, 0, 64, 77
1, 258361, Control_c, 0, 67, 116
1, 258375, Note_off_c, 0, 76, 41
1, 258376, Control_c, 0, 64, 83
1, 258376, Control_c, 0, 67, 115
1, 258391, Control_c, 0, 64, 88
1, 258391, Control_c, 0, 67, 115
1, 258406, Control_c, 0, 64, 92
1, 258406, Control_c, 0, 67, 114
1, 258421, Control_c, 0, 64, 97
1, 258421, Control_c, 0, 67, 114
1, 258435, Control_c, 0, 64, 103
1, 258435, Control_c, 0, 67, 113
1, 258450, Control_c, 0, 64, 110
1, 258450, Control_c, 0, 67, 113
1, 258465, Control_c, 0, 64, 127
1, 258465, Control_c, 0, 67, 112
1, 258480, Control_c, 0, 67, 112
1, 258494, Control_c, 0, 67, 111
1, 258583, Control_c, 0, 67, 111
1, 258613, Control_c, 0, 67, 110
1, 258642, Control_c, 0, 67, 110
1, 258703, Control_c, 0, 67, 109
1, 258733, Control_c, 0, 67, 109
1, 258755, Control_c, 0, 67, 108
1, 258834, Note_on_c, 0, 76, 63
1, 258844, Control_c, 0, 64, 103
1, 258859, Control_c, 0, 64, 88
1, 258873, Control_c, 0, 64, 77
1, 258879, Note_on_c, 0, 63, 34
1, 258888, Control_c, 0, 64, 69
1, 258903, Control_c, 0, 64, 62
1, 258903, Control_c, 0, 67, 108
1, 258917, Control_c, 0, 64, 55
1, 258932, Control_c, 0, 64, 51
1, 258932, Control_c, 0, 67, 107
1, 258947, Control_c, 0, 67, 106
1, 258962, Control_c, 0, 64, 53
1, 258962, Control_c, 0, 67, 106
1, 258977, Control_c, 0, 64, 58
1, 258977, Control_c, 0, 67, 105
1, 258981, Note_off_c, 0, 64, 36
1, 258991, Control_c, 0, 64, 62
1, 258991, Control_c, 0, 67, 105
1, 259006, Control_c, 0, 64, 65
1, 259006, Control_c, 0, 67, 104
1, 259021, Control_c, 0, 64, 70
1, 259021, Control_c, 0, 67, 103
1, 259036, Control_c, 0, 64, 77
1, 259036, Control_c, 0, 67, 103
1, 259051, Control_c, 0, 64, 83
1, 259051, Control_c, 0, 67, 101
1, 259065, Control_c, 0, 64, 87
1, 259065, Control_c, 0, 67, 100
1, 259079, Control_c, 0, 64, 92
1, 259079, Control_c, 0, 67, 100
1, 259094, Control_c, 0, 64, 97
1, 259094, Control_c, 0, 67, 98
1, 259109, Note_off_c, 0, 76, 56
1, 259109, Control_c, 0, 64, 105
1, 259109, Control_c, 0, 67, 97
1, 259124, Control_c, 0, 64, 115
1, 259124, Control_c, 0, 67, 96
1, 259139, Control_c, 0, 64, 127
1, 259139, Control_c, 0, 67, 95
1, 259154, Control_c, 0, 67, 94
1, 259272, Control_c, 0, 67, 95
1, 259287, Control_c, 0, 67, 95
1, 259331, Control_c, 0, 67, 96
1, 259390, Control_c, 0, 67, 96
1, 259420, Control_c, 0, 67, 97
1, 259435, Control_c, 0, 67, 97
1, 259450, Control_c, 0, 64, 114
1, 259466, Control_c, 0, 64, 97
1, 259475, Note_off_c, 0, 63, 41
1, 259488, Control_c, 0, 64, 85
1, 259488, Control_c, 0, 67, 98
1, 259503, Control_c, 0, 64, 73
1, 259506, Note_on_c, 0, 62, 45
1, 259509, Note_on_c, 0, 76, 47
1, 259518, Control_c, 0, 64, 64
1, 259533, Control_c, 0, 64, 51
1, 259547, Control_c, 0, 64, 40
1, 259562, Control_c, 0, 64, 29
1, 259577, Control_c, 0, 64, 14
1, 259592, Control_c, 0, 64, 0
1, 259593, Note_off_c, 0, 62, 0
1, 259593, Note_on_c, 0, 62, 4
1, 259666, Control_c, 0, 64, 33
1, 259681, Control_c, 0, 64, 46
1, 259681, Control_c, 0, 67, 97
1, 259695, Control_c, 0, 64, 54
1, 259710, Control_c, 0, 64, 59
1, 259725, Control_c, 0, 64, 63
1, 259739, Control_c, 0, 64, 65
1, 259754, Control_c, 0, 64, 68
1, 259769, Control_c, 0, 64, 72
1, 259784, Control_c, 0, 64, 77
1, 259784, Control_c, 0, 67, 97
1, 259799, Control_c, 0, 64, 81
1, 259813, Control_c, 0, 64, 83
1, 259828, Control_c, 0, 64, 85
1, 259843, Control_c, 0, 64, 87
1, 259858, Control_c, 0, 64, 89
1, 259873, Control_c, 0, 64, 92
1, 259887, Control_c, 0, 64, 95
1, 259902, Control_c, 0, 64, 97
1, 259917, Control_c, 0, 64, 99
1, 259932, Control_c, 0, 64, 101
1, 259947, Control_c, 0, 64, 102
1, 259962, Control_c, 0, 64, 102
1, 259977, Control_c, 0, 67, 97
1, 259992, Control_c, 0, 64, 103
1, 260007, Control_c, 0, 64, 103
1, 260021, Control_c, 0, 64, 104
1, 260021, Control_c, 0, 67, 98
1, 260036, Control_c, 0, 67, 98
1, 260051, Control_c, 0, 67, 99
1, 260066, Control_c, 0, 67, 99
1, 260081, Control_c, 0, 64, 103
1, 260081, Control_c, 0, 67, 100
1, 260095, Control_c, 0, 64, 100
1, 260095, Control_c, 0, 67, 101
1, 260110, Control_c, 0, 64, 94
1, 260110, Control_c, 0, 67, 102
1, 260125, Control_c, 0, 64, 85
1, 260125, Control_c, 0, 67, 103
1, 260139, Control_c, 0, 64, 73
1, 260139, Control_c, 0, 67, 103
1, 260154, Control_c, 0, 64, 64
1, 260169, Control_c, 0, 64, 55
1, 260184, Control_c, 0, 64, 49
1, 260197, Note_on_c, 0, 61, 37
1, 260199, Control_c, 0, 64, 50
1, 260213, Control_c, 0, 64, 57
1, 260236, Control_c, 0, 64, 63
1, 260242, Note_off_c, 0, 62, 42
1, 260251, Control_c, 0, 64, 67
1, 260266, Control_c, 0, 64, 71
1, 260281, Control_c, 0, 64, 75
1, 260296, Control_c, 0, 64, 80
1, 260311, Control_c, 0, 64, 83
1, 260326, Control_c, 0, 64, 85
1, 260340, Control_c, 0, 64, 88
1, 260355, Control_c, 0, 64, 91
1, 260370, Control_c, 0, 64, 94
1, 260370, Control_c, 0, 67, 104
1, 260385, Control_c, 0, 64, 96
1, 260385, Control_c, 0, 67, 105
1, 260400, Control_c, 0, 64, 98
1, 260400, Control_c, 0, 67, 105
1, 260415, Control_c, 0, 64, 99
1, 260430, Control_c, 0, 64, 100
1, 260430, Control_c, 0, 67, 106
1, 260444, Control_c, 0, 64, 103
1, 260444, Control_c, 0, 67, 106
1, 260459, Control_c, 0, 64, 105
1, 260474, Control_c, 0, 64, 105
1, 260474, Control_c, 0, 67, 107
1, 260485, Note_off_c, 0, 71, 30
1, 260489, Control_c, 0, 67, 107
1, 260518, Control_c, 0, 67, 108
1, 260524, Note_on_c, 0, 80, 71
1, 260533, Control_c, 0, 64, 106
1, 260533, Control_c, 0, 67, 108
1, 260562, Control_c, 0, 64, 107
1, 260577, Control_c, 0, 67, 109
1, 260607, Control_c, 0, 64, 108
1, 260622, Control_c, 0, 64, 110
1, 260622, Control_c, 0, 67, 109
1, 260636, Control_c, 0, 64, 114
1, 260651, Control_c, 0, 64, 117
1, 260651, Control_c, 0, 67, 110
1, 260666, Control_c, 0, 64, 118
1, 260696, Control_c, 0, 64, 119
1, 260710, Control_c, 0, 64, 120
1, 260710, Control_c, 0, 67, 110
1, 260719, Note_off_c, 0, 80, 36
1, 260725, Control_c, 0, 64, 127
1, 260728, Note_off_c, 0, 61, 35
1, 260749, Note_off_c, 0, 76, 36
1, 260755, Control_c, 0, 67, 111
1, 260770, Control_c, 0, 67, 112
1, 260785, Control_c, 0, 67, 113
1, 260799, Control_c, 0, 67, 114
1, 260814, Control_c, 0, 67, 114
1, 260859, Control_c, 0, 64, 122
1, 260871, Note_on_c, 0, 72, 32
1, 260874, Control_c, 0, 64, 107
1, 260874, Control_c, 0, 67, 115
1, 260877, Note_on_c, 0, 60, 29
1, 260888, Control_c, 0, 64, 95
1, 260888, Control_c, 0, 67, 116
1, 260894, Note_on_c, 0, 78, 56
1, 260903, Control_c, 0, 64, 84
1, 260903, Control_c, 0, 67, 117
1, 260918, Control_c, 0, 64, 74
1, 260918, Control_c, 0, 67, 117
1, 260930, Note_off_c, 0, 78, 64
1, 260933, Control_c, 0, 64, 65
1, 260933, Control_c, 0, 67, 118
1, 260943, Note_on_c, 0, 80, 65
1, 260948, Control_c, 0, 64, 52
1, 260948, Control_c, 0, 67, 119
1, 260962, Control_c, 0, 64, 36
1, 260962, Control_c, 0, 67, 119
1, 260977, Control_c, 0, 64, 0
1, 260977, Control_c, 0, 67, 120
1, 260999, Note_on_c, 0, 78, 76
1, 261009, Note_off_c, 0, 80, 59
1, 261208, Control_c, 0, 67, 120
1, 261223, Control_c, 0, 67, 120
1, 261285, Note_on_c, 0, 76, 65
1, 261285, Note_off_c, 0, 78, 63
1, 261327, Control_c, 0, 64, 10
1, 261327, Control_c, 0, 67, 121
1, 261342, Control_c, 0, 64, 32
1, 261342, Control_c, 0, 67, 121
1, 261357, Control_c, 0, 64, 42
1, 261357, Control_c, 0, 67, 122
1, 261372, Control_c, 0, 64, 46
1, 261372, Control_c, 0, 67, 122
1, 261386, Control_c, 0, 64, 47
1, 261386, Control_c, 0, 67, 123
1, 261401, Control_c, 0, 64, 50
1, 261401, Control_c, 0, 67, 123
1, 261416, Control_c, 0, 64, 53
1, 261416, Control_c, 0, 67, 124
1, 261431, Control_c, 0, 64, 56
1, 261431, Control_c, 0, 67, 125
1, 261446, Control_c, 0, 64, 57
1, 261446, Control_c, 0, 67, 125
1, 261460, Control_c, 0, 67, 127
1, 261475, Control_c, 0, 67, 127
1, 261505, Control_c, 0, 64, 55
1, 261519, Control_c, 0, 64, 46
1, 261534, Control_c, 0, 64, 26
1, 261549, Control_c, 0, 64, 0
1, 261572, Note_off_c, 0, 72, 56
1, 261577, Note_on_c, 0, 71, 39
1, 261586, Note_on_c, 0, 78, 57
1, 261600, Note_off_c, 0, 76, 54
1, 261793, Control_c, 0, 64, 12
1, 261808, Control_c, 0, 64, 31
1, 261823, Control_c, 0, 64, 39
1, 261838, Control_c, 0, 64, 43
1, 261872, Note_off_c, 0, 78, 60
1, 261882, Note_on_c, 0, 80, 61
1, 261883, Control_c, 0, 64, 43
1, 261898, Control_c, 0, 64, 44
1, 261913, Control_c, 0, 64, 45
1, 261928, Control_c, 0, 64, 46
1, 261942, Control_c, 0, 64, 45
1, 261957, Control_c, 0, 64, 42
1, 261972, Control_c, 0, 64, 36
1, 261987, Control_c, 0, 64, 28
1, 262002, Control_c, 0, 64, 15
1, 262016, Control_c, 0, 64, 0
1, 262192, Note_off_c, 0, 80, 60
1, 262230, Note_on_c, 0, 76, 50
1, 262246, Note_off_c, 0, 71, 39
1, 262248, Note_on_c, 0, 70, 29
1, 262356, Control_c, 0, 64, 8
1, 262370, Control_c, 0, 64, 33
1, 262385, Control_c, 0, 64, 45
1, 262400, Control_c, 0, 64, 52
1, 262415, Control_c, 0, 64, 55
1, 262430, Control_c, 0, 64, 59
1, 262445, Control_c, 0, 64, 62
1, 262460, Control_c, 0, 64, 65
1, 262475, Control_c, 0, 64, 69
1, 262496, Control_c, 0, 64, 72
1, 262511, Control_c, 0, 64, 76
1, 262525, Note_off_c, 0, 76, 43
1, 262526, Control_c, 0, 64, 80
1, 262540, Control_c, 0, 64, 85
1, 262555, Control_c, 0, 64, 90
1, 262570, Control_c, 0, 64, 94
1, 262585, Control_c, 0, 64, 99
1, 262600, Control_c, 0, 64, 105
1, 262615, Control_c, 0, 64, 111
1, 262630, Control_c, 0, 64, 115
1, 262645, Control_c, 0, 64, 118
1, 262660, Control_c, 0, 64, 119
1, 262675, Control_c, 0, 64, 120
1, 262942, Control_c, 0, 64, 118
1, 262956, Control_c, 0, 64, 101
1, 262971, Control_c, 0, 64, 83
1, 262981, Note_on_c, 0, 76, 51
1, 262986, Control_c, 0, 64, 68
1, 263001, Control_c, 0, 64, 55
1, 263005, Note_off_c, 0, 70, 42
1, 263014, Note_on_c, 0, 69, 20
1, 263016, Control_c, 0, 64, 35
1, 263030, Control_c, 0, 64, 0
1, 263104, Control_c, 0, 64, 27
1, 263119, Control_c, 0, 64, 43
1, 263134, Control_c, 0, 64, 52
1, 263148, Control_c, 0, 64, 57
1, 263163, Control_c, 0, 64, 60
1, 263178, Control_c, 0, 64, 63
1, 263193, Control_c, 0, 64, 66
1, 263208, Control_c, 0, 64, 69
1, 263208, Control_c, 0, 67, 127
1, 263230, Control_c, 0, 64, 72
1, 263243, Note_off_c, 0, 76, 50
1, 263245, Control_c, 0, 64, 76
1, 263260, Control_c, 0, 64, 83
1, 263275, Control_c, 0, 64, 88
1, 263289, Control_c, 0, 64, 91
1, 263304, Control_c, 0, 64, 94
1, 263304, Control_c, 0, 67, 126
1, 263319, Control_c, 0, 64, 96
1, 263334, Control_c, 0, 64, 100
1, 263349, Control_c, 0, 64, 104
1, 263349, Control_c, 0, 67, 127
1, 263363, Control_c, 0, 64, 108
1, 263378, Control_c, 0, 64, 109
1, 263408, Control_c, 0, 64, 110
1, 263423, Control_c, 0, 64, 111
1, 263438, Control_c, 0, 64, 112
1, 263438, Control_c, 0, 67, 127
1, 263498, Control_c, 0, 67, 127
1, 263572, Control_c, 0, 67, 126
1, 263587, Control_c, 0, 64, 113
1, 263676, Control_c, 0, 67, 126
1, 263691, Control_c, 0, 64, 113
1, 263779, Control_c, 0, 67, 126
1, 263839, Control_c, 0, 67, 127
1, 263853, Control_c, 0, 67, 127
1, 263942, Control_c, 0, 64, 113
1, 263979, Control_c, 0, 64, 110
1, 263994, Control_c, 0, 64, 104
1, 264009, Control_c, 0, 64, 94
1, 264024, Control_c, 0, 64, 84
1, 264039, Control_c, 0, 64, 74
1, 264049, Note_on_c, 0, 76, 43
1, 264054, Control_c, 0, 64, 65
1, 264069, Control_c, 0, 64, 56
1, 264072, Note_off_c, 0, 69, 45
1, 264084, Control_c, 0, 64, 47
1, 264099, Control_c, 0, 64, 39
1, 264099, Note_on_c, 0, 68, 25
1, 264113, Control_c, 0, 64, 30
1, 264128, Control_c, 0, 64, 17
1, 264143, Control_c, 0, 64, 0
1, 264336, Control_c, 0, 64, 20
1, 264351, Control_c, 0, 64, 36
1, 264366, Control_c, 0, 64, 48
1, 264381, Control_c, 0, 64, 53
1, 264396, Control_c, 0, 64, 56
1, 264410, Control_c, 0, 64, 59
1, 264425, Control_c, 0, 64, 62
1, 264440, Control_c, 0, 64, 65
1, 264455, Control_c, 0, 64, 67
1, 264470, Control_c, 0, 64, 70
1, 264484, Control_c, 0, 64, 74
1, 264499, Control_c, 0, 64, 77
1, 264514, Control_c, 0, 64, 80
1, 264529, Control_c, 0, 64, 83
1, 264543, Control_c, 0, 64, 85
1, 264558, Control_c, 0, 64, 88
1, 264573, Control_c, 0, 64, 91
1, 264588, Control_c, 0, 64, 94
1, 264603, Control_c, 0, 64, 99
1, 264618, Control_c, 0, 64, 104
1, 264618, Control_c, 0, 67, 127
1, 264633, Control_c, 0, 64, 110
1, 264633, Control_c, 0, 67, 126
1, 264648, Control_c, 0, 64, 120
1, 264648, Control_c, 0, 67, 126
1, 264663, Control_c, 0, 64, 127
1, 264677, Control_c, 0, 67, 125
1, 264692, Control_c, 0, 67, 125
1, 264707, Control_c, 0, 67, 124
1, 264723, Note_off_c, 0, 68, 43
1, 264833, Control_c, 0, 67, 125
1, 264848, Control_c, 0, 67, 126
1, 264877, Control_c, 0, 67, 127
1, 264892, Control_c, 0, 67, 127
1, 265159, Control_c, 0, 64, 106
1, 265174, Control_c, 0, 64, 84
1, 265182, Note_on_c, 0, 67, 31
1, 265189, Control_c, 0, 64, 71
1, 265204, Control_c, 0, 64, 63
1, 265219, Control_c, 0, 64, 55
1, 265233, Control_c, 0, 64, 48
1, 265248, Control_c, 0, 64, 42
1, 265263, Control_c, 0, 64, 31
1, 265278, Control_c, 0, 64, 0
1, 265745, Control_c, 0, 67, 127
1, 265759, Control_c, 0, 67, 126
1, 265774, Control_c, 0, 64, 17
1, 265774, Control_c, 0, 67, 125
1, 265789, Control_c, 0, 64, 23
1, 265789, Control_c, 0, 67, 125
1, 265804, Control_c, 0, 64, 33
1, 265819, Control_c, 0, 64, 45
1, 265819, Control_c, 0, 67, 124
1, 265833, Control_c, 0, 64, 52
1, 265833, Control_c, 0, 67, 123
1, 265849, Control_c, 0, 64, 56
1, 265849, Control_c, 0, 67, 122
1, 265864, Control_c, 0, 64, 57
1, 265879, Control_c, 0, 64, 60
1, 265879, Control_c, 0, 67, 121
1, 265894, Control_c, 0, 64, 63
1, 265894, Control_c, 0, 67, 120
1, 265909, Control_c, 0, 64, 67
1, 265909, Control_c, 0, 67, 119
1, 265923, Control_c, 0, 64, 71
1, 265923, Control_c, 0, 67, 118
1, 265938, Control_c, 0, 64, 74
1, 265938, Control_c, 0, 67, 117
1, 265953, Control_c, 0, 64, 78
1, 265953, Control_c, 0, 67, 116
1, 265968, Control_c, 0, 64, 83
1, 265968, Control_c, 0, 67, 115
1, 265982, Control_c, 0, 64, 89
1, 265982, Control_c, 0, 67, 114
1, 265997, Control_c, 0, 64, 95
1, 265997, Control_c, 0, 67, 114
1, 266012, Control_c, 0, 64, 103
1, 266012, Control_c, 0, 67, 113
1, 266027, Note_off_c, 0, 60, 38
1, 266027, Control_c, 0, 64, 115
1, 266027, Control_c, 0, 67, 113
1, 266028, Note_off_c, 0, 67, 39
1, 266042, Control_c, 0, 64, 127
1, 266042, Control_c, 0, 67, 112
1, 266056, Control_c, 0, 67, 112
1, 266071, Control_c, 0, 67, 111
1, 266086, Control_c, 0, 67, 110
1, 266100, Control_c, 0, 67, 110
1, 266115, Control_c, 0, 67, 109
1, 266119, Note_off_c, 0, 76, 40
1, 266130, Control_c, 0, 67, 108
1, 266145, Control_c, 0, 67, 107
1, 266160, Control_c, 0, 67, 106
1, 266174, Control_c, 0, 67, 106
1, 266189, Control_c, 0, 67, 105
1, 266204, Control_c, 0, 67, 104
1, 266219, Control_c, 0, 67, 102
1, 266242, Control_c, 0, 67, 100
1, 266256, Control_c, 0, 67, 98
1, 266271, Control_c, 0, 67, 97
1, 266286, Control_c, 0, 67, 96
1, 266301, Control_c, 0, 67, 94
1, 266315, Control_c, 0, 67, 93
1, 266330, Control_c, 0, 67, 91
1, 266345, Control_c, 0, 67, 89
1, 266360, Control_c, 0, 67, 87
1, 266375, Control_c, 0, 67, 84
1, 266389, Control_c, 0, 67, 81
1, 266404, Control_c, 0, 67, 76
1, 266419, Control_c, 0, 67, 71
1, 266434, Control_c, 0, 67, 64
1, 266449, Control_c, 0, 67, 58
1, 266463, Control_c, 0, 67, 51
1, 266478, Control_c, 0, 67, 46
1, 266493, Control_c, 0, 67, 42
1, 266508, Control_c, 0, 67, 39
1, 266523, Control_c, 0, 67, 37
1, 266538, Control_c, 0, 67, 34
1, 266553, Control_c, 0, 67, 32
1, 266568, Control_c, 0, 67, 28
1, 266582, Control_c, 0, 67, 19
1, 266597, Control_c, 0, 67, 0
1, 266657, Control_c, 0, 64, 112
1, 266672, Control_c, 0, 64, 67
1, 266687, Control_c, 0, 64, 27
1, 266702, Control_c, 0, 64, 0
1, 266946, Note_on_c, 0, 76, 93
1, 266949, Note_on_c, 0, 72, 83
1, 266956, Note_on_c, 0, 43, 94
1, 266956, Note_on_c, 0, 64, 86
1, 266957, Note_on_c, 0, 36, 86
1, 266957, Note_on_c, 0, 74, 86
1, 266976, Control_c, 0, 64, 53
1, 266991, Control_c, 0, 64, 127
1, 267000, Note_off_c, 0, 36, 66
1, 267001, Note_off_c, 0, 64, 65
1, 267020, Note_off_c, 0, 43, 65
1, 267023, Note_off_c, 0, 72, 65
1, 267028, Note_off_c, 0, 74, 67
1, 267035, Note_off_c, 0, 76, 64
1, 267092, Note_on_c, 0, 74, 85
1, 267095, Note_on_c, 0, 71, 83
1, 267117, Note_off_c, 0, 71, 67
1, 267122, Note_off_c, 0, 74, 65
1, 267124, Control_c, 0, 64, 100
1, 267138, Control_c, 0, 64, 65
1, 267153, Control_c, 0, 64, 0
1, 267188, Note_on_c, 0, 69, 94
1, 267192, Note_on_c, 0, 72, 78
1, 267195, Note_on_c, 0, 67, 78
1, 267199, Note_on_c, 0, 60, 71
1, 267201, Note_on_c, 0, 74, 75
1, 267201, Note_on_c, 0, 76, 70
1, 267216, Note_off_c, 0, 60, 64
1, 267220, Note_off_c, 0, 67, 66
1, 267220, Note_off_c, 0, 74, 56
1, 267226, Note_off_c, 0, 76, 67
1, 267232, Note_off_c, 0, 69, 66
1, 267235, Note_off_c, 0, 72, 61
1, 267281, Note_on_c, 0, 67, 72
1, 267311, Note_on_c, 0, 71, 45
1, 267321, Note_off_c, 0, 67, 61
1, 267333, Note_on_c, 0, 72, 20
1, 267341, Note_off_c, 0, 71, 51
1, 267372, Note_off_c, 0, 72, 30
1, 267425, Note_on_c, 0, 74, 80
1, 267426, Note_on_c, 0, 76, 99
1, 267429, Note_on_c, 0, 69, 99
1, 267434, Note_on_c, 0, 66, 99
1, 267438, Note_on_c, 0, 55, 88
1, 267444, Note_on_c, 0, 48, 85
1, 267450, Control_c, 0, 64, 52
1, 267456, Note_on_c, 0, 53, 61
1, 267465, Note_off_c, 0, 48, 68
1, 267465, Control_c, 0, 64, 127
1, 267466, Note_off_c, 0, 55, 68
1, 267477, Note_off_c, 0, 53, 62
1, 267492, Note_off_c, 0, 66, 68
1, 267500, Note_off_c, 0, 69, 66
1, 267502, Note_off_c, 0, 74, 65
1, 267507, Note_off_c, 0, 76, 62
1, 267548, Poly_aftertouch_c, 0, 47, 0
1, 267567, Note_on_c, 0, 71, 70
1, 267575, Note_on_c, 0, 67, 68
1, 267600, Note_off_c, 0, 67, 65
1, 267633, Note_off_c, 0, 71, 58
1, 267640, Note_on_c, 0, 72, 82
1, 267662, Note_on_c, 0, 69, 60
1, 267673, Control_c, 0, 64, 95
1, 267678, Note_off_c, 0, 69, 71
1, 267678, Note_off_c, 0, 72, 63
1, 267688, Control_c, 0, 64, 70
1, 267702, Control_c, 0, 64, 49
1, 267724, Control_c, 0, 64, 0
1, 267759, Note_on_c, 0, 79, 97
1, 267763, Note_on_c, 0, 71, 88
1, 267767, Note_on_c, 0, 74, 79
1, 267791, Note_off_c, 0, 74, 66
1, 267793, Note_off_c, 0, 71, 59
1, 267803, Note_off_c, 0, 79, 66
1, 267855, Note_on_c, 0, 36, 69
1, 267871, Note_on_c, 0, 76, 99
1, 267873, Control_c, 0, 64, 19
1, 267876, Note_on_c, 0, 78, 94
1, 267888, Control_c, 0, 64, 85
1, 267902, Control_c, 0, 64, 127
1, 267908, Note_off_c, 0, 76, 64
1, 267919, Note_off_c, 0, 36, 61
1, 267924, Note_off_c, 0, 78, 64
1, 267928, Note_on_c, 0, 43, 72
1, 267964, Note_off_c, 0, 43, 63
1, 267969, Note_on_c, 0, 79, 64
1, 267977, Note_on_c, 0, 74, 100
1, 267996, Note_on_c, 0, 48, 56
1, 267999, Note_off_c, 0, 74, 68
1, 268019, Note_off_c, 0, 79, 66
1, 268021, Note_off_c, 0, 48, 58
1, 268078, Note_on_c, 0, 78, 90
1, 268079, Control_c, 0, 64, 96
1, 268083, Note_on_c, 0, 72, 80
1, 268086, Note_on_c, 0, 48, 60
1, 268092, Note_on_c, 0, 50, 66
1, 268094, Control_c, 0, 64, 70
1, 268106, Note_off_c, 0, 72, 68
1, 268109, Control_c, 0, 64, 46
1, 268115, Note_off_c, 0, 48, 59
1, 268115, Note_off_c, 0, 50, 64
1, 268124, Control_c, 0, 64, 0
1, 268127, Note_off_c, 0, 78, 63
1, 268138, Note_on_c, 0, 55, 69
1, 268165, Note_off_c, 0, 55, 66
1, 268171, Note_on_c, 0, 83, 96
1, 268186, Note_on_c, 0, 71, 82
1, 268207, Note_on_c, 0, 60, 57
1, 268210, Note_off_c, 0, 71, 66
1, 268212, Note_off_c, 0, 83, 67
1, 268231, Note_off_c, 0, 60, 63
1, 268270, Note_on_c, 0, 66, 82
1, 268273, Control_c, 0, 64, 59
1, 268281, Note_on_c, 0, 78, 96
1, 268282, Note_on_c, 0, 69, 95
1, 268288, Control_c, 0, 64, 103
1, 268291, Note_on_c, 0, 71, 72
1, 268296, Note_off_c, 0, 66, 69
1, 268303, Control_c, 0, 64, 127
1, 268311, Note_off_c, 0, 71, 61
1, 268320, Note_off_c, 0, 69, 66
1, 268335, Note_off_c, 0, 78, 62
1, 268371, Note_on_c, 0, 62, 82
1, 268379, Note_on_c, 0, 76, 90
1, 268382, Note_on_c, 0, 67, 91
1, 268400, Note_off_c, 0, 62, 69
1, 268421, Note_off_c, 0, 67, 61
1, 268423, Note_off_c, 0, 76, 64
1, 268480, Note_on_c, 0, 78, 95
1, 268483, Note_on_c, 0, 57, 73
1, 268499, Note_on_c, 0, 69, 67
1, 268507, Note_off_c, 0, 57, 67
1, 268515, Note_off_c, 0, 69, 70
1, 268532, Note_off_c, 0, 78, 62
1, 268573, Note_on_c, 0, 81, 95
1, 268575, Note_on_c, 0, 71, 91
1, 268583, Note_on_c, 0, 50, 65
1, 268602, Note_off_c, 0, 81, 58
1, 268615, Note_off_c, 0, 71, 63
1, 268624, Note_off_c, 0, 50, 66
1, 268636, Control_c, 0, 64, 82
1, 268651, Control_c, 0, 64, 45
1, 268666, Control_c, 0, 64, 0
1, 268674, Note_on_c, 0, 40, 80
1, 268674, Note_on_c, 0, 76, 101
1, 268725, Control_c, 0, 64, 98
1, 268727, Note_on_c, 0, 71, 82
1, 268734, Note_on_c, 0, 47, 76
1, 268736, Note_off_c, 0, 40, 63
1, 268740, Control_c, 0, 64, 127
1, 268764, Note_off_c, 0, 47, 69
1, 268769, Note_off_c, 0, 76, 62
1, 268785, Note_on_c, 0, 69, 70
1, 268793, Note_off_c, 0, 71, 66
1, 268793, Poly_aftertouch_c, 0, 72, 0
1, 268799, Note_on_c, 0, 52, 54
1, 268824, Note_off_c, 0, 52, 58
1, 268825, Note_on_c, 0, 67, 91
1, 268849, Note_off_c, 0, 69, 67
1, 268866, Note_off_c, 0, 67, 66
1, 268898, Note_on_c, 0, 69, 93
1, 268899, Note_on_c, 0, 76, 100
1, 268906, Note_on_c, 0, 62, 84
1, 268911, Note_on_c, 0, 66, 110
1, 268916, Note_on_c, 0, 64, 78
1, 268936, Note_off_c, 0, 69, 68
1, 268937, Note_off_c, 0, 64, 68
1, 268950, Note_off_c, 0, 66, 68
1, 268953, Note_off_c, 0, 62, 67
1, 268955, Note_off_c, 0, 76, 65
1, 269010, Note_on_c, 0, 64, 26
1, 269038, Note_on_c, 0, 75, 42
1, 269039, Note_off_c, 0, 64, 57
1, 269066, Note_off_c, 0, 75, 52
1, 269097, Control_c, 0, 64, 115
1, 269112, Control_c, 0, 64, 64
1, 269126, Control_c, 0, 64, 0
1, 269131, Note_on_c, 0, 76, 87
1, 269134, Note_on_c, 0, 64, 56
1, 269138, Note_on_c, 0, 72, 79
1, 269143, Note_on_c, 0, 43, 98
1, 269150, Note_on_c, 0, 40, 85
1, 269155, Note_off_c, 0, 64, 64
1, 269158, Note_on_c, 0, 74, 55
1, 269162, Note_on_c, 0, 38, 63
1, 269170, Note_off_c, 0, 43, 68
1, 269171, Control_c, 0, 64, 48
1, 269176, Note_off_c, 0, 40, 67
1, 269176, Note_off_c, 0, 72, 62
1, 269178, Note_off_c, 0, 74, 65
1, 269186, Control_c, 0, 64, 64
1, 269189, Note_off_c, 0, 38, 40
1, 269193, Note_off_c, 0, 76, 65
1, 269200, Control_c, 0, 64, 54
1, 269215, Control_c, 0, 64, 0
1, 269243, Note_on_c, 0, 74, 92
1, 269260, Note_on_c, 0, 71, 69
1, 269275, Note_off_c, 0, 71, 66
1, 269283, Note_off_c, 0, 74, 65
1, 269352, Note_on_c, 0, 76, 90
1, 269355, Note_on_c, 0, 72, 83
1, 269355, Note_on_c, 0, 69, 90
1, 269361, Note_on_c, 0, 67, 96
1, 269364, Note_on_c, 0, 60, 91
1, 269379, Note_off_c, 0, 67, 72
1, 269385, Note_off_c, 0, 60, 67
1, 269387, Note_off_c, 0, 69, 64
1, 269393, Note_off_c, 0, 76, 62
1, 269394, Note_off_c, 0, 72, 61
1, 269438, Note_on_c, 0, 67, 33
1, 269454, Note_on_c, 0, 71, 73
1, 269478, Note_off_c, 0, 67, 65
1, 269483, Note_off_c, 0, 71, 64
1, 269573, Note_on_c, 0, 74, 63
1, 269601, Note_on_c, 0, 76, 88
1, 269603, Note_on_c, 0, 55, 94
1, 269605, Note_on_c, 0, 48, 95
1, 269605, Note_on_c, 0, 69, 64
1, 269607, Control_c, 0, 64, 91
1, 269620, Note_on_c, 0, 66, 90
1, 269620, Note_off_c, 0, 55, 74
1, 269622, Control_c, 0, 64, 127
1, 269626, Note_off_c, 0, 48, 71
1, 269660, Note_off_c, 0, 66, 65
1, 269670, Note_off_c, 0, 69, 66
1, 269673, Note_off_c, 0, 74, 65
1, 269682, Note_off_c, 0, 76, 64
1, 269727, Note_on_c, 0, 71, 81
1, 269729, Note_on_c, 0, 67, 65
1, 269754, Note_off_c, 0, 67, 65
1, 269769, Poly_aftertouch_c, 0, 48, 0
1, 269774, Note_off_c, 0, 71, 48
1, 269801, Note_on_c, 0, 72, 85
1, 269811, Note_on_c, 0, 69, 86
1, 269829, Control_c, 0, 64, 90
1, 269832, Note_off_c, 0, 69, 71
1, 269844, Note_off_c, 0, 72, 63
1, 269845, Control_c, 0, 64, 64
1, 269860, Control_c, 0, 64, 12
1, 269875, Control_c, 0, 64, 0
1, 269898, Note_on_c, 0, 69, 24
1, 269918, Note_on_c, 0, 79, 99
1, 269924, Note_on_c, 0, 71, 90
1, 269928, Note_on_c, 0, 74, 82
1, 269935, Note_off_c, 0, 69, 47
1, 269948, Note_off_c, 0, 71, 61
1, 269951, Note_off_c, 0, 74, 69
1, 269961, Note_off_c, 0, 79, 66
1, 270030, Control_c, 0, 64, 106
1, 270032, Note_on_c, 0, 36, 61
1, 270033, Note_on_c, 0, 76, 97
1, 270037, Note_on_c, 0, 78, 95
1, 270038, Note_on_c, 0, 74, 49
1, 270045, Control_c, 0, 64, 127
1, 270056, Note_on_c, 0, 38, 51
1, 270062, Note_off_c, 0, 74, 67
1, 270068, Note_off_c, 0, 76, 64
1, 270079, Note_off_c, 0, 78, 65
1, 270086, Note_off_c, 0, 36, 64
1, 270089, Note_off_c, 0, 38, 55
1, 270095, Note_on_c, 0, 43, 69
1, 270133, Note_on_c, 0, 79, 99
1, 270135, Note_off_c, 0, 43, 66
1, 270142, Note_on_c, 0, 74, 88
1, 270168, Note_off_c, 0, 74, 63
1, 270172, Note_on_c, 0, 48, 49
1, 270172, Note_off_c, 0, 79, 66
1, 270193, Control_c, 0, 64, 98
1, 270208, Control_c, 0, 64, 68
1, 270217, Note_off_c, 0, 48, 0
1, 270222, Control_c, 0, 64, 40
1, 270229, Note_on_c, 0, 48, 58
1, 270237, Control_c, 0, 64, 0
1, 270242, Note_on_c, 0, 78, 92
1, 270246, Note_on_c, 0, 72, 85
1, 270269, Note_off_c, 0, 72, 68
1, 270291, Note_off_c, 0, 78, 63
1, 270296, Note_off_c, 0, 48, 60
1, 270301, Note_on_c, 0, 55, 76
1, 270332, Note_off_c, 0, 55, 66
1, 270340, Note_on_c, 0, 83, 100
1, 270344, Note_on_c, 0, 71, 90
1, 270365, Note_on_c, 0, 60, 69
1, 270369, Note_off_c, 0, 71, 67
1, 270379, Note_off_c, 0, 83, 64
1, 270400, Note_off_c, 0, 60, 63
1, 270415, Control_c, 0, 64, 48
1, 270430, Control_c, 0, 64, 69
1, 270440, Note_on_c, 0, 66, 74
1, 270443, Note_on_c, 0, 78, 100
1, 270444, Note_on_c, 0, 69, 99
1, 270445, Control_c, 0, 64, 76
1, 270460, Control_c, 0, 64, 89
1, 270464, Note_off_c, 0, 66, 68
1, 270474, Control_c, 0, 64, 127
1, 270484, Note_off_c, 0, 69, 64
1, 270496, Note_off_c, 0, 78, 62
1, 270538, Note_on_c, 0, 76, 96
1, 270541, Note_on_c, 0, 64, 47
1, 270544, Note_on_c, 0, 67, 86
1, 270558, Note_on_c, 0, 62, 56
1, 270567, Note_off_c, 0, 64, 59
1, 270575, Note_off_c, 0, 67, 61
1, 270582, Note_off_c, 0, 62, 59
1, 270583, Note_off_c, 0, 76, 63
1, 270637, Note_on_c, 0, 78, 96
1, 270651, Note_on_c, 0, 57, 60
1, 270676, Note_off_c, 0, 57, 59
1, 270680, Note_on_c, 0, 69, 31
1, 270683, Note_off_c, 0, 78, 63
1, 270709, Note_off_c, 0, 69, 55
1, 270735, Note_on_c, 0, 50, 80
1, 270741, Note_on_c, 0, 81, 97
1, 270742, Note_on_c, 0, 71, 94
1, 270766, Note_off_c, 0, 81, 57
1, 270776, Note_on_c, 0, 79, 44
1, 270777, Note_off_c, 0, 50, 65
1, 270779, Note_off_c, 0, 71, 62
1, 270779, Control_c, 0, 64, 85
1, 270794, Control_c, 0, 64, 52
1, 270802, Note_off_c, 0, 79, 60
1, 270809, Control_c, 0, 64, 0
1, 270824, Note_on_c, 0, 40, 74
1, 270840, Note_on_c, 0, 76, 101
1, 270868, Control_c, 0, 64, 58
1, 270878, Note_on_c, 0, 47, 78
1, 270883, Control_c, 0, 64, 98
1, 270889, Note_off_c, 0, 40, 63
1, 270890, Note_off_c, 0, 76, 65
1, 270898, Control_c, 0, 64, 127
1, 270903, Note_on_c, 0, 71, 66
1, 270913, Note_off_c, 0, 47, 67
1, 270928, Note_on_c, 0, 52, 77
1, 270946, Note_on_c, 0, 69, 65
1, 270953, Note_off_c, 0, 52, 66
1, 270972, Note_off_c, 0, 71, 63
1, 271003, Note_off_c, 0, 69, 66
1, 271005, Note_on_c, 0, 67, 83
1, 271032, Note_off_c, 0, 67, 66
1, 271062, Note_on_c, 0, 76, 99
1, 271068, Note_on_c, 0, 69, 96
1, 271071, Note_on_c, 0, 64, 63
1, 271072, Note_on_c, 0, 66, 103
1, 271074, Note_on_c, 0, 62, 78
1, 271088, Note_off_c, 0, 69, 71
1, 271097, Note_off_c, 0, 64, 68
1, 271100, Note_off_c, 0, 76, 66
1, 271112, Note_off_c, 0, 62, 65
1, 271116, Note_off_c, 0, 66, 67
1, 271159, Note_on_c, 0, 69, 26
1, 271182, Note_off_c, 0, 69, 62
1, 271285, Note_on_c, 0, 69, 83
1, 271289, Note_on_c, 0, 78, 91
1, 271289, Note_on_c, 0, 66, 96
1, 271312, Control_c, 0, 64, 113
1, 271320, Note_off_c, 0, 78, 60
1, 271327, Control_c, 0, 64, 82
1, 271329, Note_off_c, 0, 69, 64
1, 271342, Control_c, 0, 64, 67
1, 271343, Note_off_c, 0, 66, 60
1, 271357, Control_c, 0, 64, 56
1, 271371, Control_c, 0, 64, 50
1, 271380, Note_on_c, 0, 76, 89
1, 271386, Control_c, 0, 64, 56
1, 271394, Note_on_c, 0, 67, 79
1, 271401, Control_c, 0, 64, 61
1, 271426, Note_off_c, 0, 76, 64
1, 271431, Control_c, 0, 64, 53
1, 271435, Note_off_c, 0, 67, 62
1, 271447, Control_c, 0, 64, 35
1, 271468, Control_c, 0, 64, 0
1, 271484, Note_on_c, 0, 78, 66
1, 271488, Note_on_c, 0, 69, 65
1, 271495, Note_on_c, 0, 72, 77
1, 271507, Note_off_c, 0, 69, 65
1, 271521, Note_off_c, 0, 72, 67
1, 271524, Note_off_c, 0, 78, 61
1, 271588, Note_on_c, 0, 81, 80
1, 271594, Note_on_c, 0, 79, 75
1, 271598, Note_on_c, 0, 71, 59
1, 271606, Note_on_c, 0, 74, 57
1, 271610, Note_off_c, 0, 81, 71
1, 271617, Note_off_c, 0, 79, 69
1, 271618, Note_off_c, 0, 71, 61
1, 271626, Note_off_c, 0, 74, 64
1, 271705, Note_on_c, 0, 74, 81
1, 271706, Note_on_c, 0, 36, 80
1, 271706, Control_c, 0, 64, 56
1, 271713, Note_on_c, 0, 43, 81
1, 271713, Note_on_c, 0, 64, 97
1, 271713, Note_on_c, 0, 76, 98
1, 271720, Control_c, 0, 64, 74
1, 271734, Note_off_c, 0, 36, 67
1, 271734, Note_off_c, 0, 43, 67
1, 271735, Control_c, 0, 64, 89
1, 271750, Control_c, 0, 64, 115
1, 271752, Note_off_c, 0, 76, 65
1, 271755, Note_off_c, 0, 64, 65
1, 271764, Note_off_c, 0, 74, 65
1, 271765, Control_c, 0, 64, 127
1, 271900, Poly_aftertouch_c, 0, 43, 0
1, 271921, Note_on_c, 0, 74, 90
1, 271924, Note_on_c, 0, 76, 98
1, 271925, Note_on_c, 0, 67, 94
1, 271929, Note_on_c, 0, 60, 77
1, 271939, Note_on_c, 0, 64, 56
1, 271940, Note_off_c, 0, 64, 127
1, 271943, Control_c, 0, 64, 73
1, 271955, Note_off_c, 0, 60, 65
1, 271955, Note_off_c, 0, 67, 63
1, 271958, Note_off_c, 0, 76, 68
1, 271958, Control_c, 0, 64, 49
1, 271962, Note_off_c, 0, 74, 65
1, 271973, Control_c, 0, 64, 0
1, 272126, Note_on_c, 0, 74, 68
1, 272145, Note_on_c, 0, 64, 90
1, 272146, Note_on_c, 0, 49, 81
1, 272147, Note_on_c, 0, 76, 97
1, 272148, Note_on_c, 0, 56, 85
1, 272166, Control_c, 0, 64, 48
1, 272173, Note_off_c, 0, 49, 66
1, 272181, Control_c, 0, 64, 73
1, 272185, Note_off_c, 0, 56, 65
1, 272195, Control_c, 0, 64, 84
1, 272208, Note_off_c, 0, 74, 60
1, 272210, Control_c, 0, 64, 95
1, 272232, Control_c, 0, 64, 103
1, 272248, Control_c, 0, 64, 107
1, 272263, Control_c, 0, 64, 110
1, 272278, Control_c, 0, 64, 117
1, 272292, Control_c, 0, 64, 127
1, 272394, Note_on_c, 0, 85, 75
1, 272421, Note_on_c, 0, 88, 102
1, 272424, Note_off_c, 0, 85, 61
1, 272449, Note_off_c, 0, 88, 73
1, 272483, Note_off_c, 0, 76, 62
1, 272530, Note_on_c, 0, 68, 84
1, 272547, Note_off_c, 0, 64, 63
1, 272596, Note_off_c, 0, 68, 63
1, 272632, Note_on_c, 0, 49, 62
1, 272643, Note_on_c, 0, 66, 79
1, 272672, Note_off_c, 0, 66, 64
1, 272702, Note_off_c, 0, 49, 61
1, 272711, Note_on_c, 0, 56, 67
1, 272740, Note_off_c, 0, 56, 65
1, 272756, Note_on_c, 0, 64, 33
1, 272771, Note_on_c, 0, 76, 20
1, 272777, Note_on_c, 0, 60, 32
1, 272793, Note_off_c, 0, 64, 53
1, 272813, Note_off_c, 0, 60, 45
1, 272813, Note_off_c, 0, 76, 39
1, 272844, Note_on_c, 0, 66, 72
1, 272845, Note_on_c, 0, 78, 89
1, 272869, Note_off_c, 0, 66, 68
1, 272869, Control_c, 0, 64, 95
1, 272884, Control_c, 0, 64, 63
1, 272887, Note_off_c, 0, 78, 63
1, 272899, Control_c, 0, 64, 0
1, 272936, Note_on_c, 0, 92, 86
1, 272940, Note_on_c, 0, 68, 68
1, 272944, Control_c, 0, 64, 45
1, 272959, Control_c, 0, 64, 74
1, 272960, Note_off_c, 0, 92, 68
1, 272962, Note_on_c, 0, 56, 57
1, 272962, Note_on_c, 0, 80, 58
1, 272970, Note_off_c, 0, 68, 67
1, 272981, Control_c, 0, 64, 127
1, 272989, Note_off_c, 0, 80, 62
1, 272995, Note_off_c, 0, 56, 60
1, 273071, Note_on_c, 0, 50, 74
1, 273099, Note_on_c, 0, 65, 50
1, 273122, Note_off_c, 0, 65, 57
1, 273137, Note_off_c, 0, 50, 64
1, 273153, Note_on_c, 0, 57, 54
1, 273157, Note_on_c, 0, 76, 76
1, 273174, Note_on_c, 0, 64, 24
1, 273177, Note_off_c, 0, 57, 58
1, 273186, Note_off_c, 0, 76, 65
1, 273197, Note_on_c, 0, 62, 68
1, 273220, Note_off_c, 0, 64, 47
1, 273224, Note_off_c, 0, 62, 67
1, 273275, Note_on_c, 0, 77, 79
1, 273290, Note_on_c, 0, 65, 53
1, 273296, Note_off_c, 0, 77, 70
1, 273312, Note_off_c, 0, 65, 60
1, 273338, Note_on_c, 0, 57, 28
1, 273347, Note_on_c, 0, 68, 75
1, 273354, Note_on_c, 0, 80, 93
1, 273354, Note_on_c, 0, 92, 99
1, 273370, Note_off_c, 0, 68, 69
1, 273374, Note_off_c, 0, 80, 66
1, 273379, Note_off_c, 0, 92, 65
1, 273379, Note_off_c, 0, 57, 64
1, 273470, Control_c, 0, 64, 72
1, 273485, Control_c, 0, 64, 21
1, 273486, Note_on_c, 0, 76, 98
1, 273491, Note_on_c, 0, 71, 87
1, 273495, Note_on_c, 0, 52, 65
1, 273496, Note_on_c, 0, 59, 68
1, 273498, Poly_aftertouch_c, 0, 68, 0
1, 273499, Control_c, 0, 64, 0
1, 273504, Note_on_c, 0, 57, 58
1, 273529, Control_c, 0, 64, 42
1, 273534, Note_off_c, 0, 52, 66
1, 273535, Note_off_c, 0, 59, 65
1, 273538, Note_off_c, 0, 57, 64
1, 273544, Control_c, 0, 64, 74
1, 273555, Note_off_c, 0, 71, 37
1, 273559, Control_c, 0, 64, 127
1, 273579, Note_off_c, 0, 76, 63
1, 273686, Note_on_c, 0, 66, 73
1, 273701, Note_on_c, 0, 60, 62
1, 273716, Note_off_c, 0, 66, 67
1, 273737, Note_on_c, 0, 72, 59
1, 273738, Note_off_c, 0, 60, 65
1, 273751, Note_on_c, 0, 54, 66
1, 273752, Note_on_c, 0, 49, 45
1, 273769, Note_on_c, 0, 76, 78
1, 273775, Note_off_c, 0, 72, 65
1, 273776, Note_off_c, 0, 54, 67
1, 273782, Note_off_c, 0, 49, 55
1, 273792, Note_off_c, 0, 76, 69
1, 273799, Note_on_c, 0, 50, 61
1, 273823, Note_off_c, 0, 50, 68
1, 273831, Note_on_c, 0, 74, 68
1, 273843, Note_on_c, 0, 53, 2
1, 273844, Note_on_c, 0, 45, 41
1, 273851, Note_on_c, 0, 43, 39
1, 273864, Control_c, 0, 64, 88
1, 273872, Note_on_c, 0, 81, 75
1, 273878, Note_off_c, 0, 45, 46
1, 273878, Control_c, 0, 64, 59
1, 273880, Note_off_c, 0, 53, 33
1, 273886, Note_off_c, 0, 43, 54
1, 273893, Control_c, 0, 64, 0
1, 273901, Poly_aftertouch_c, 0, 76, 0
1, 273907, Note_on_c, 0, 86, 89
1, 273917, Note_off_c, 0, 74, 65
1, 273938, Note_on_c, 0, 88, 99
1, 273939, Note_off_c, 0, 81, 62
1, 273950, Note_on_c, 0, 43, 94
1, 273953, Note_on_c, 0, 36, 87
1, 273967, Control_c, 0, 64, 64
1, 273982, Control_c, 0, 64, 127
1, 273987, Note_off_c, 0, 88, 70
1, 273990, Note_off_c, 0, 36, 63
1, 273999, Note_off_c, 0, 86, 65
1, 273999, Note_off_c, 0, 43, 64
1, 274129, Control_c, 0, 64, 84
1, 274144, Note_on_c, 0, 74, 80
1, 274144, Control_c, 0, 64, 57
1, 274154, Note_on_c, 0, 76, 96
1, 274159, Control_c, 0, 64, 0
1, 274162, Note_on_c, 0, 69, 72
1, 274170, Note_off_c, 0, 74, 69
1, 274175, Note_on_c, 0, 60, 63
1, 274178, Note_on_c, 0, 64, 65
1, 274185, Note_off_c, 0, 69, 69
1, 274194, Note_off_c, 0, 76, 66
1, 274202, Note_off_c, 0, 60, 64
1, 274207, Note_off_c, 0, 64, 66
1, 274381, Note_on_c, 0, 74, 71
1, 274387, Note_on_c, 0, 56, 95
1, 274387, Note_on_c, 0, 76, 99
1, 274388, Note_on_c, 0, 49, 86
1, 274388, Note_on_c, 0, 64, 96
1, 274410, Control_c, 0, 64, 76
1, 274414, Note_off_c, 0, 49, 69
1, 274425, Control_c, 0, 64, 115
1, 274426, Note_off_c, 0, 56, 67
1, 274440, Control_c, 0, 64, 127
1, 274463, Note_off_c, 0, 74, 61
1, 274477, Control_c, 0, 64, 88
1, 274492, Control_c, 0, 64, 66
1, 274507, Control_c, 0, 64, 33
1, 274521, Control_c, 0, 64, 0
1, 274656, Control_c, 0, 64, 54
1, 274667, Note_on_c, 0, 85, 75
1, 274671, Control_c, 0, 64, 69
1, 274686, Control_c, 0, 64, 81
1, 274688, Note_on_c, 0, 88, 99
1, 274700, Control_c, 0, 64, 101
1, 274712, Note_off_c, 0, 85, 64
1, 274715, Control_c, 0, 64, 127
1, 274726, Note_off_c, 0, 88, 70
1, 274729, Note_off_c, 0, 76, 60
1, 274810, Note_on_c, 0, 68, 88
1, 274819, Note_off_c, 0, 64, 62
1, 274863, Note_off_c, 0, 68, 59
1, 274939, Note_on_c, 0, 49, 54
1, 274964, Note_on_c, 0, 66, 63
1, 274992, Note_off_c, 0, 66, 66
1, 275012, Note_on_c, 0, 56, 63
1, 275019, Note_off_c, 0, 49, 62
1, 275041, Note_off_c, 0, 56, 65
1, 275055, Note_on_c, 0, 76, 75
1, 275068, Note_on_c, 0, 61, 65
1, 275081, Note_off_c, 0, 76, 67
1, 275092, Note_on_c, 0, 64, 12
1, 275095, Note_off_c, 0, 61, 66
1, 275142, Note_off_c, 0, 64, 39
1, 275159, Control_c, 0, 64, 78
1, 275161, Note_on_c, 0, 66, 76
1, 275173, Note_on_c, 0, 78, 77
1, 275174, Control_c, 0, 64, 49
1, 275189, Control_c, 0, 64, 0
1, 275197, Note_off_c, 0, 66, 60
1, 275210, Note_off_c, 0, 78, 66
1, 275256, Control_c, 0, 64, 63
1, 275271, Note_on_c, 0, 68, 68
1, 275271, Note_on_c, 0, 80, 90
1, 275271, Note_on_c, 0, 92, 77
1, 275271, Control_c, 0, 64, 127
1, 275280, Note_on_c, 0, 56, 75
1, 275285, Note_on_c, 0, 94, 54
1, 275286, Note_off_c, 0, 94, 127
1, 275289, Note_off_c, 0, 80, 70
1, 275292, Note_off_c, 0, 92, 71
1, 275299, Note_off_c, 0, 68, 67
1, 275304, Note_off_c, 0, 56, 66
1, 275389, Note_on_c, 0, 65, 82
1, 275398, Note_on_c, 0, 50, 72
1, 275415, Note_off_c, 0, 65, 66
1, 275446, Note_off_c, 0, 50, 60
1, 275463, Note_on_c, 0, 57, 75
1, 275476, Note_on_c, 0, 76, 72
1, 275487, Note_on_c, 0, 64, 51
1, 275495, Note_off_c, 0, 57, 66
1, 275504, Note_off_c, 0, 76, 66
1, 275510, Note_off_c, 0, 64, 61
1, 275516, Note_on_c, 0, 62, 60
1, 275539, Note_off_c, 0, 62, 64
1, 275555, Poly_aftertouch_c, 0, 65, 0
1, 275594, Note_on_c, 0, 79, 72
1, 275595, Note_on_c, 0, 77, 72
1, 275603, Note_on_c, 0, 64, 42
1, 275609, Note_on_c, 0, 65, 59
1, 275620, Note_off_c, 0, 79, 68
1, 275621, Note_off_c, 0, 77, 68
1, 275635, Note_off_c, 0, 65, 65
1, 275641, Note_off_c, 0, 64, 52
1, 275650, Note_on_c, 0, 57, 45
1, 275668, Note_on_c, 0, 68, 69
1, 275680, Note_on_c, 0, 94, 92
1, 275688, Note_on_c, 0, 82, 75
1, 275693, Note_off_c, 0, 68, 68
1, 275698, Note_off_c, 0, 94, 69
1, 275702, Note_off_c, 0, 82, 70
1, 275707, Note_off_c, 0, 57, 63
1, 275708, Note_on_c, 0, 80, 49
1, 275709, Note_off_c, 0, 80, 127
1, 275731, Control_c, 0, 64, 80
1, 275746, Control_c, 0, 64, 48
1, 275760, Control_c, 0, 64, 0
1, 275803, Note_on_c, 0, 59, 78
1, 275804, Note_on_c, 0, 52, 74
1, 275805, Control_c, 0, 64, 34
1, 275808, Note_on_c, 0, 76, 97
1, 275809, Note_on_c, 0, 71, 97
1, 275820, Control_c, 0, 64, 80
1, 275828, Note_off_c, 0, 59, 67
1, 275830, Note_off_c, 0, 71, 69
1, 275834, Note_off_c, 0, 52, 66
1, 275834, Control_c, 0, 64, 127
1, 275845, Note_off_c, 0, 76, 61
1, 276008, Note_on_c, 0, 66, 75
1, 276011, Note_on_c, 0, 60, 78
1, 276047, Note_off_c, 0, 60, 62
1, 276047, Note_off_c, 0, 66, 65
1, 276057, Note_on_c, 0, 72, 73
1, 276061, Note_on_c, 0, 54, 69
1, 276084, Note_off_c, 0, 54, 68
1, 276089, Note_off_c, 0, 72, 65
1, 276094, Note_on_c, 0, 76, 83
1, 276098, Note_on_c, 0, 50, 56
1, 276110, Note_on_c, 0, 45, 77
1, 276115, Note_off_c, 0, 76, 70
1, 276126, Note_off_c, 0, 50, 53
1, 276133, Note_off_c, 0, 45, 68
1, 276148, Note_on_c, 0, 74, 85
1, 276197, Control_c, 0, 64, 81
1, 276200, Note_on_c, 0, 81, 82
1, 276212, Control_c, 0, 64, 48
1, 276224, Note_on_c, 0, 86, 88
1, 276227, Control_c, 0, 64, 0
1, 276229, Note_off_c, 0, 74, 64
1, 276251, Note_on_c, 0, 88, 101
1, 276256, Note_off_c, 0, 81, 65
1, 276265, Note_on_c, 0, 43, 64
1, 276270, Note_on_c, 0, 36, 76
1, 276272, Control_c, 0, 64, 59
1, 276283, Note_on_c, 0, 38, 43
1, 276287, Control_c, 0, 64, 127
1, 276291, Note_off_c, 0, 36, 67
1, 276301, Note_off_c, 0, 88, 68
1, 276306, Note_off_c, 0, 43, 65
1, 276311, Note_off_c, 0, 86, 60
1, 276317, Note_off_c, 0, 38, 54
1, 276420, Control_c, 0, 64, 95
1, 276435, Control_c, 0, 64, 63
1, 276442, Note_on_c, 0, 74, 92
1, 276450, Control_c, 0, 64, 0
1, 276453, Note_on_c, 0, 67, 83
1, 276464, Note_on_c, 0, 60, 77
1, 276464, Note_on_c, 0, 64, 75
1, 276464, Note_on_c, 0, 76, 94
1, 276476, Note_off_c, 0, 67, 70
1, 276487, Note_off_c, 0, 64, 68
1, 276490, Note_off_c, 0, 60, 66
1, 276490, Note_off_c, 0, 74, 66
1, 276494, Note_off_c, 0, 76, 61
1, 276676, Note_on_c, 0, 74, 86
1, 276694, Note_on_c, 0, 49, 93
1, 276694, Note_on_c, 0, 56, 96
1, 276694, Note_on_c, 0, 64, 94
1, 276697, Note_on_c, 0, 76, 95
1, 276723, Control_c, 0, 64, 53
1, 276738, Note_off_c, 0, 49, 65
1, 276738, Control_c, 0, 64, 73
1, 276747, Note_off_c, 0, 56, 65
1, 276753, Control_c, 0, 64, 73
1, 276768, Control_c, 0, 64, 67
1, 276774, Note_off_c, 0, 74, 65
1, 276783, Control_c, 0, 64, 46
1, 276798, Control_c, 0, 64, 0
1, 276931, Control_c, 0, 64, 38
1, 276946, Control_c, 0, 64, 59
1, 276961, Control_c, 0, 64, 69
1, 276976, Control_c, 0, 64, 79
1, 276977, Note_on_c, 0, 88, 102
1, 276981, Note_on_c, 0, 85, 50
1, 276990, Control_c, 0, 64, 97
1, 277004, Note_off_c, 0, 85, 59
1, 277005, Control_c, 0, 64, 127
1, 277010, Note_off_c, 0, 76, 57
1, 277016, Note_off_c, 0, 88, 69
1, 277080, Control_c, 0, 67, 12
1, 277095, Control_c, 0, 67, 21
1, 277097, Note_on_c, 0, 68, 96
1, 277110, Control_c, 0, 67, 31
1, 277115, Note_off_c, 0, 64, 61
1, 277125, Control_c, 0, 67, 38
1, 277139, Control_c, 0, 67, 44
1, 277154, Control_c, 0, 67, 52
1, 277169, Control_c, 0, 67, 62
1, 277184, Control_c, 0, 67, 72
1, 277196, Note_off_c, 0, 68, 61
1, 277199, Control_c, 0, 64, 117
1, 277199, Control_c, 0, 67, 80
1, 277213, Control_c, 0, 64, 96
1, 277213, Control_c, 0, 67, 88
1, 277228, Control_c, 0, 64, 75
1, 277228, Control_c, 0, 67, 93
1, 277243, Control_c, 0, 64, 59
1, 277243, Control_c, 0, 67, 98
1, 277258, Control_c, 0, 64, 18
1, 277258, Control_c, 0, 67, 105
1, 277273, Control_c, 0, 64, 0
1, 277273, Control_c, 0, 67, 111
1, 277274, Note_on_c, 0, 49, 33
1, 277280, Note_on_c, 0, 66, 75
1, 277287, Control_c, 0, 67, 117
1, 277302, Control_c, 0, 67, 119
1, 277315, Note_off_c, 0, 66, 60
1, 277317, Control_c, 0, 67, 120
1, 277332, Control_c, 0, 64, 31
1, 277342, Note_on_c, 0, 56, 55
1, 277346, Control_c, 0, 64, 55
1, 277346, Control_c, 0, 67, 118
1, 277361, Control_c, 0, 64, 68
1, 277361, Control_c, 0, 67, 116
1, 277372, Note_off_c, 0, 56, 64
1, 277375, Note_off_c, 0, 49, 36
1, 277376, Control_c, 0, 64, 79
1, 277376, Control_c, 0, 67, 113
1, 277391, Control_c, 0, 64, 95
1, 277391, Control_c, 0, 67, 111
1, 277399, Note_on_c, 0, 76, 73
1, 277400, Note_on_c, 0, 61, 63
1, 277406, Control_c, 0, 64, 113
1, 277406, Control_c, 0, 67, 110
1, 277407, Note_on_c, 0, 64, 53
1, 277421, Control_c, 0, 64, 127
1, 277421, Control_c, 0, 67, 111
1, 277428, Note_off_c, 0, 61, 66
1, 277429, Note_off_c, 0, 64, 60
1, 277434, Note_off_c, 0, 76, 63
1, 277436, Control_c, 0, 67, 110
1, 277451, Control_c, 0, 67, 110
1, 277473, Control_c, 0, 67, 108
1, 277487, Control_c, 0, 67, 109
1, 277502, Control_c, 0, 67, 110
1, 277516, Note_on_c, 0, 66, 71
1, 277517, Control_c, 0, 67, 111
1, 277528, Note_on_c, 0, 78, 72
1, 277546, Control_c, 0, 67, 112
1, 277547, Note_off_c, 0, 66, 66
1, 277555, Note_off_c, 0, 78, 66
1, 277561, Control_c, 0, 67, 115
1, 277576, Control_c, 0, 67, 118
1, 277591, Control_c, 0, 64, 71
1, 277591, Control_c, 0, 67, 118
1, 277606, Control_c, 0, 64, 43
1, 277621, Control_c, 0, 64, 26
1, 277621, Control_c, 0, 67, 117
1, 277627, Note_on_c, 0, 68, 45
1, 277627, Note_on_c, 0, 92, 64
1, 277634, Note_on_c, 0, 80, 66
1, 277636, Control_c, 0, 64, 60
1, 277636, Control_c, 0, 67, 114
1, 277651, Control_c, 0, 64, 83
1, 277651, Control_c, 0, 67, 111
1, 277651, Note_off_c, 0, 80, 65
1, 277651, Note_off_c, 0, 92, 68
1, 277654, Note_off_c, 0, 68, 39
1, 277665, Control_c, 0, 64, 127
1, 277665, Control_c, 0, 67, 107
1, 277680, Control_c, 0, 67, 104
1, 277695, Control_c, 0, 67, 100
1, 277710, Control_c, 0, 67, 94
1, 277725, Control_c, 0, 67, 88
1, 277736, Note_on_c, 0, 50, 68
1, 277739, Control_c, 0, 67, 82
1, 277743, Poly_aftertouch_c, 0, 54, 0
1, 277748, Note_on_c, 0, 65, 80
1, 277754, Control_c, 0, 67, 74
1, 277769, Control_c, 0, 67, 66
1, 277770, Note_off_c, 0, 50, 61
1, 277772, Note_off_c, 0, 65, 67
1, 277784, Control_c, 0, 67, 61
1, 277799, Control_c, 0, 67, 57
1, 277813, Control_c, 0, 67, 51
1, 277820, Note_on_c, 0, 57, 67
1, 277829, Note_on_c, 0, 76, 81
1, 277829, Control_c, 0, 67, 41
1, 277840, Note_on_c, 0, 64, 58
1, 277844, Control_c, 0, 67, 26
1, 277850, Note_off_c, 0, 57, 65
1, 277859, Control_c, 0, 67, 0
1, 277861, Note_off_c, 0, 64, 62
1, 277866, Note_off_c, 0, 76, 60
1, 277882, Note_on_c, 0, 62, 56
1, 277903, Note_off_c, 0, 62, 62
1, 277913, Poly_aftertouch_c, 0, 65, 0
1, 277946, Note_on_c, 0, 77, 86
1, 277962, Note_on_c, 0, 65, 67
1, 277983, Note_off_c, 0, 77, 65
1, 277990, Note_off_c, 0, 65, 65
1, 278043, Note_on_c, 0, 92, 91
1, 278047, Note_on_c, 0, 80, 88
1, 278053, Note_on_c, 0, 57, 56
1, 278060, Note_off_c, 0, 92, 73
1, 278063, Note_on_c, 0, 68, 50
1, 278066, Note_off_c, 0, 80, 68
1, 278084, Note_off_c, 0, 57, 65
1, 278086, Note_off_c, 0, 68, 60
1, 278147, Note_on_c, 0, 80, 11
1, 278194, Note_off_c, 0, 80, 34
1, 278199, Note_on_c, 0, 66, 80
1, 278199, Control_c, 0, 64, 79
1, 278212, Note_on_c, 0, 49, 70
1, 278222, Control_c, 0, 64, 55
1, 278234, Note_off_c, 0, 66, 63
1, 278236, Control_c, 0, 64, 39
1, 278251, Control_c, 0, 64, 55
1, 278266, Control_c, 0, 64, 71
1, 278279, Note_off_c, 0, 49, 63
1, 278281, Note_on_c, 0, 56, 64
1, 278281, Control_c, 0, 64, 109
1, 278295, Control_c, 0, 64, 127
1, 278301, Note_on_c, 0, 76, 79
1, 278309, Note_off_c, 0, 56, 65
1, 278318, Note_on_c, 0, 64, 43
1, 278330, Note_on_c, 0, 61, 69
1, 278330, Note_off_c, 0, 76, 63
1, 278346, Note_off_c, 0, 64, 57
1, 278357, Note_off_c, 0, 61, 65
1, 278399, Control_c, 0, 64, 103
1, 278414, Control_c, 0, 64, 64
1, 278417, Note_on_c, 0, 66, 76
1, 278418, Note_on_c, 0, 78, 89
1, 278429, Control_c, 0, 64, 30
1, 278443, Control_c, 0, 64, 38
1, 278458, Control_c, 0, 64, 70
1, 278459, Note_off_c, 0, 66, 63
1, 278461, Note_off_c, 0, 78, 62
1, 278473, Control_c, 0, 64, 127
1, 278507, Note_on_c, 0, 92, 84
1, 278508, Note_on_c, 0, 68, 69
1, 278515, Note_on_c, 0, 80, 92
1, 278523, Note_off_c, 0, 92, 74
1, 278524, Note_on_c, 0, 56, 69
1, 278530, Note_off_c, 0, 68, 69
1, 278534, Note_off_c, 0, 80, 70
1, 278552, Note_off_c, 0, 56, 65
1, 278600, Note_on_c, 0, 80, 35
1, 278632, Note_off_c, 0, 80, 43
1, 278637, Note_on_c, 0, 65, 85
1, 278640, Note_on_c, 0, 50, 68
1, 278658, Note_off_c, 0, 65, 69
1, 278691, Note_off_c, 0, 50, 62
1, 278715, Note_on_c, 0, 57, 63
1, 278723, Note_on_c, 0, 76, 80
1, 278729, Note_on_c, 0, 65, 22
1, 278736, Note_off_c, 0, 57, 62
1, 278738, Note_on_c, 0, 64, 50
1, 278746, Note_off_c, 0, 76, 68
1, 278762, Note_off_c, 0, 64, 60
1, 278767, Note_off_c, 0, 65, 36
1, 278784, Note_on_c, 0, 62, 36
1, 278822, Note_off_c, 0, 62, 51
1, 278844, Note_on_c, 0, 65, 75
1, 278845, Note_on_c, 0, 77, 76
1, 278850, Note_on_c, 0, 79, 84
1, 278869, Note_off_c, 0, 77, 70
1, 278871, Note_off_c, 0, 79, 70
1, 278879, Note_off_c, 0, 65, 63
1, 278923, Note_on_c, 0, 57, 55
1, 278932, Note_on_c, 0, 68, 60
1, 278938, Note_on_c, 0, 92, 88
1, 278943, Note_on_c, 0, 79, 16
1, 278944, Note_on_c, 0, 80, 83
1, 278962, Note_off_c, 0, 92, 74
1, 278970, Note_off_c, 0, 68, 67
1, 278973, Note_off_c, 0, 80, 69
1, 278983, Note_off_c, 0, 57, 63
1, 278989, Note_off_c, 0, 79, 33
1, 279073, Note_on_c, 0, 66, 93
1, 279086, Note_on_c, 0, 49, 64
1, 279116, Note_off_c, 0, 66, 64
1, 279144, Note_on_c, 0, 56, 75
1, 279159, Note_off_c, 0, 49, 63
1, 279172, Note_on_c, 0, 76, 89
1, 279176, Note_on_c, 0, 64, 77
1, 279178, Note_off_c, 0, 56, 64
1, 279189, Note_on_c, 0, 61, 80
1, 279199, Note_off_c, 0, 64, 69
1, 279203, Note_off_c, 0, 76, 59
1, 279214, Note_off_c, 0, 61, 67
1, 279252, Control_c, 0, 64, 103
1, 279266, Control_c, 0, 64, 65
1, 279278, Note_on_c, 0, 66, 81
1, 279282, Control_c, 0, 64, 9
1, 279285, Note_on_c, 0, 78, 90
1, 279297, Control_c, 0, 64, 0
1, 279311, Control_c, 0, 64, 17
1, 279317, Note_off_c, 0, 66, 62
1, 279326, Control_c, 0, 64, 65
1, 279332, Note_off_c, 0, 78, 64
1, 279341, Control_c, 0, 64, 127
1, 279375, Note_on_c, 0, 92, 94
1, 279376, Note_on_c, 0, 68, 79
1, 279379, Note_on_c, 0, 80, 92
1, 279384, Note_on_c, 0, 56, 81
1, 279391, Note_off_c, 0, 92, 75
1, 279397, Note_off_c, 0, 80, 68
1, 279398, Note_off_c, 0, 68, 70
1, 279414, Note_off_c, 0, 56, 65
1, 279502, Note_on_c, 0, 50, 76
1, 279504, Note_on_c, 0, 65, 87
1, 279524, Note_off_c, 0, 65, 69
1, 279564, Note_off_c, 0, 50, 61
1, 279577, Note_on_c, 0, 57, 77
1, 279593, Note_on_c, 0, 76, 73
1, 279594, Note_on_c, 0, 64, 67
1, 279595, Note_on_c, 0, 65, 23
1, 279606, Note_off_c, 0, 57, 65
1, 279612, Note_off_c, 0, 64, 64
1, 279616, Note_off_c, 0, 76, 68
1, 279624, Note_off_c, 0, 65, 39
1, 279706, Note_on_c, 0, 77, 93
1, 279724, Note_on_c, 0, 65, 70
1, 279740, Note_off_c, 0, 77, 68
1, 279756, Poly_aftertouch_c, 0, 62, 0
1, 279778, Poly_aftertouch_c, 0, 57, 0
1, 279780, Note_off_c, 0, 65, 62
1, 279812, Note_on_c, 0, 80, 100
1, 279812, Note_on_c, 0, 92, 100
1, 279818, Note_on_c, 0, 68, 88
1, 279829, Note_on_c, 0, 57, 54
1, 279839, Note_off_c, 0, 80, 62
1, 279844, Note_off_c, 0, 92, 64
1, 279861, Note_off_c, 0, 68, 67
1, 279862, Note_off_c, 0, 57, 58
1, 279972, Control_c, 0, 64, 83
1, 279987, Control_c, 0, 64, 58
1, 280002, Control_c, 0, 64, 0
1, 280019, Note_on_c, 0, 88, 83
1, 280027, Note_on_c, 0, 76, 69
1, 280036, Note_on_c, 0, 60, 58
1, 280041, Note_on_c, 0, 67, 63
1, 280044, Note_on_c, 0, 71, 60
1, 280045, Control_c, 0, 64, 22
1, 280060, Control_c, 0, 64, 55
1, 280065, Note_off_c, 0, 76, 57
1, 280075, Control_c, 0, 64, 71
1, 280077, Note_off_c, 0, 88, 65
1, 280088, Note_off_c, 0, 71, 57
1, 280089, Control_c, 0, 64, 96
1, 280092, Note_off_c, 0, 60, 55
1, 280092, Note_off_c, 0, 67, 58
1, 280104, Control_c, 0, 64, 127
1, 280175, Note_on_c, 0, 89, 96
1, 280180, Note_on_c, 0, 77, 88
1, 280188, Note_on_c, 0, 69, 72
1, 280213, Note_off_c, 0, 77, 64
1, 280220, Note_off_c, 0, 89, 66
1, 280233, Note_off_c, 0, 69, 60
1, 280282, Note_on_c, 0, 67, 76
1, 280286, Note_on_c, 0, 91, 106
1, 280292, Note_on_c, 0, 79, 97
1, 280321, Note_off_c, 0, 79, 64
1, 280327, Note_off_c, 0, 91, 68
1, 280330, Note_off_c, 0, 67, 64
1, 280372, Note_on_c, 0, 65, 82
1, 280386, Note_on_c, 0, 93, 107
1, 280388, Note_on_c, 0, 81, 101
1, 280413, Note_off_c, 0, 65, 61
1, 280423, Note_off_c, 0, 81, 66
1, 280424, Note_off_c, 0, 93, 65
1, 280446, Control_c, 0, 64, 106
1, 280468, Control_c, 0, 64, 67
1, 280483, Control_c, 0, 64, 50
1, 280498, Note_on_c, 0, 67, 72
1, 280498, Note_on_c, 0, 95, 99
1, 280498, Control_c, 0, 64, 54
1, 280502, Note_on_c, 0, 64, 70
1, 280503, Note_on_c, 0, 83, 100
1, 280512, Note_on_c, 0, 57, 56
1, 280512, Control_c, 0, 64, 70
1, 280524, Note_on_c, 0, 60, 44
1, 280527, Control_c, 0, 64, 118
1, 280531, Note_off_c, 0, 95, 69
1, 280533, Note_off_c, 0, 83, 65
1, 280534, Note_off_c, 0, 64, 61
1, 280542, Note_off_c, 0, 57, 64
1, 280542, Note_off_c, 0, 67, 57
1, 280542, Control_c, 0, 64, 127
1, 280552, Note_off_c, 0, 60, 54
1, 280605, Note_on_c, 0, 93, 97
1, 280608, Note_on_c, 0, 81, 88
1, 280622, Note_on_c, 0, 65, 77
1, 280630, Note_off_c, 0, 81, 68
1, 280637, Note_off_c, 0, 93, 63
1, 280673, Note_off_c, 0, 65, 64
1, 280712, Note_on_c, 0, 91, 95
1, 280713, Note_on_c, 0, 79, 89
1, 280721, Note_on_c, 0, 67, 78
1, 280736, Note_off_c, 0, 79, 68
1, 280747, Note_off_c, 0, 91, 63
1, 280770, Note_off_c, 0, 67, 63
1, 280819, Note_on_c, 0, 89, 94
1, 280822, Note_on_c, 0, 69, 78
1, 280822, Note_on_c, 0, 77, 87
1, 280844, Note_off_c, 0, 77, 70
1, 280846, Note_off_c, 0, 89, 55
1, 280853, Note_off_c, 0, 69, 65
1, 280853, Control_c, 0, 64, 99
1, 280868, Control_c, 0, 64, 69
1, 280882, Control_c, 0, 64, 52
1, 280897, Control_c, 0, 64, 45
1, 280912, Control_c, 0, 64, 56
1, 280927, Control_c, 0, 64, 69
1, 280940, Note_on_c, 0, 88, 92
1, 280942, Control_c, 0, 64, 95
1, 280943, Note_on_c, 0, 76, 80
1, 280950, Note_on_c, 0, 67, 71
1, 280950, Note_on_c, 0, 71, 63
1, 280956, Control_c, 0, 64, 127
1, 280966, Note_off_c, 0, 76, 67
1, 280975, Note_on_c, 0, 60, 31
1, 280977, Note_off_c, 0, 67, 67
1, 280977, Note_off_c, 0, 88, 64
1, 280982, Note_off_c, 0, 71, 66
1, 281012, Note_off_c, 0, 60, 45
1, 281043, Note_on_c, 0, 89, 100
1, 281048, Note_on_c, 0, 69, 84
1, 281048, Note_on_c, 0, 77, 93
1, 281078, Note_off_c, 0, 77, 64
1, 281083, Note_off_c, 0, 89, 68
1, 281094, Note_off_c, 0, 69, 66
1, 281141, Note_on_c, 0, 67, 85
1, 281141, Note_on_c, 0, 91, 97
1, 281141, Note_on_c, 0, 79, 102
1, 281173, Note_on_c, 0, 90, 50
1, 281177, Note_off_c, 0, 79, 66
1, 281180, Note_off_c, 0, 91, 66
1, 281196, Note_off_c, 0, 90, 61
1, 281223, Note_off_c, 0, 67, 49
1, 281239, Note_on_c, 0, 65, 90
1, 281244, Note_on_c, 0, 93, 103
1, 281246, Note_on_c, 0, 81, 99
1, 281269, Note_off_c, 0, 65, 62
1, 281272, Note_on_c, 0, 91, 47
1, 281275, Note_on_c, 0, 92, 51
1, 281276, Control_c, 0, 64, 109
1, 281281, Note_off_c, 0, 81, 67
1, 281284, Note_off_c, 0, 93, 67
1, 281289, Note_off_c, 0, 91, 42
1, 281291, Control_c, 0, 64, 67
1, 281296, Note_off_c, 0, 92, 62
1, 281305, Control_c, 0, 64, 43
1, 281320, Control_c, 0, 64, 41
1, 281335, Control_c, 0, 64, 64
1, 281344, Note_on_c, 0, 95, 101
1, 281347, Note_on_c, 0, 64, 80
1, 281347, Note_on_c, 0, 83, 105
1, 281349, Note_on_c, 0, 53, 77
1, 281350, Note_on_c, 0, 60, 79
1, 281350, Control_c, 0, 64, 127
1, 281365, Note_on_c, 0, 94, 76
1, 281365, Note_on_c, 0, 57, 52
1, 281370, Note_off_c, 0, 64, 69
1, 281377, Note_off_c, 0, 60, 66
1, 281378, Note_off_c, 0, 53, 64
1, 281378, Note_off_c, 0, 83, 68
1, 281379, Note_off_c, 0, 94, 68
1, 281386, Note_off_c, 0, 95, 67
1, 281388, Note_off_c, 0, 57, 59
1, 281456, Note_on_c, 0, 81, 89
1, 281457, Note_on_c, 0, 95, 86
1, 281458, Note_on_c, 0, 93, 83
1, 281466, Note_on_c, 0, 65, 84
1, 281469, Note_on_c, 0, 83, 68
1, 281469, Note_off_c, 0, 95, 74
1, 281476, Note_off_c, 0, 81, 72
1, 281478, Note_off_c, 0, 93, 71
1, 281486, Note_off_c, 0, 83, 66
1, 281487, Poly_aftertouch_c, 0, 64, 0
1, 281510, Poly_aftertouch_c, 0, 64, 0
1, 281510, Note_off_c, 0, 65, 62
1, 281552, Note_on_c, 0, 91, 99
1, 281556, Note_on_c, 0, 79, 87
1, 281563, Note_on_c, 0, 67, 77
1, 281576, Note_off_c, 0, 79, 72
1, 281590, Note_off_c, 0, 91, 62
1, 281612, Note_off_c, 0, 67, 64
1, 281656, Note_on_c, 0, 89, 95
1, 281660, Note_on_c, 0, 77, 87
1, 281662, Note_on_c, 0, 69, 85
1, 281681, Note_off_c, 0, 77, 72
1, 281690, Note_off_c, 0, 69, 67
1, 281697, Note_off_c, 0, 89, 64
1, 281705, Control_c, 0, 64, 79
1, 281720, Control_c, 0, 64, 56
1, 281735, Control_c, 0, 64, 41
1, 281750, Control_c, 0, 64, 59
1, 281755, Note_on_c, 0, 76, 96
1, 281755, Note_on_c, 0, 88, 100
1, 281761, Note_on_c, 0, 71, 81
1, 281765, Note_on_c, 0, 60, 70
1, 281765, Note_on_c, 0, 67, 78
1, 281765, Control_c, 0, 64, 82
1, 281779, Control_c, 0, 64, 127
1, 281787, Note_off_c, 0, 76, 63
1, 281791, Note_off_c, 0, 67, 66
1, 281791, Note_off_c, 0, 71, 59
1, 281795, Note_off_c, 0, 88, 67
1, 281801, Note_off_c, 0, 60, 62
1, 281857, Note_on_c, 0, 89, 106
1, 281860, Note_on_c, 0, 69, 91
1, 281860, Note_on_c, 0, 77, 102
1, 281883, Note_off_c, 0, 77, 66
1, 281892, Note_off_c, 0, 89, 65
1, 281908, Note_off_c, 0, 69, 65
1, 281957, Note_on_c, 0, 67, 76
1, 281959, Note_on_c, 0, 91, 102
1, 281962, Note_on_c, 0, 79, 101
1, 281994, Note_on_c, 0, 90, 43
1, 281994, Note_off_c, 0, 79, 65
1, 281997, Note_off_c, 0, 91, 67
1, 282016, Note_off_c, 0, 90, 60
1, 282047, Note_off_c, 0, 67, 43
1, 282057, Note_on_c, 0, 93, 107
1, 282058, Note_on_c, 0, 81, 108
1, 282059, Note_on_c, 0, 65, 91
1, 282078, Note_on_c, 0, 91, 62
1, 282080, Note_off_c, 0, 65, 70
1, 282085, Note_on_c, 0, 92, 59
1, 282094, Note_off_c, 0, 81, 67
1, 282095, Note_off_c, 0, 91, 45
1, 282101, Note_off_c, 0, 93, 66
1, 282106, Note_off_c, 0, 92, 63
1, 282167, Note_on_c, 0, 60, 85
1, 282170, Note_on_c, 0, 95, 110
1, 282172, Note_on_c, 0, 83, 105
1, 282173, Note_on_c, 0, 57, 77
1, 282178, Note_on_c, 0, 50, 65
1, 282189, Note_off_c, 0, 60, 67
1, 282190, Note_off_c, 0, 57, 68
1, 282199, Note_off_c, 0, 50, 62
1, 282205, Note_off_c, 0, 83, 69
1, 282211, Note_off_c, 0, 95, 66
1, 282302, Note_on_c, 0, 64, 88
1, 282304, Note_on_c, 0, 96, 106
1, 282308, Note_on_c, 0, 84, 97
1, 282328, Note_off_c, 0, 84, 69
1, 282331, Poly_aftertouch_c, 0, 60, 0
1, 282335, Note_off_c, 0, 96, 69
1, 282344, Note_off_c, 0, 64, 66
1, 282396, Note_on_c, 0, 65, 91
1, 282405, Note_on_c, 0, 98, 101
1, 282408, Note_on_c, 0, 86, 98
1, 282421, Note_on_c, 0, 96, 72
1, 282426, Note_off_c, 0, 86, 70
1, 282439, Note_off_c, 0, 98, 66
1, 282440, Note_off_c, 0, 96, 43
1, 282443, Note_off_c, 0, 65, 65
1, 282486, Note_on_c, 0, 67, 90
1, 282494, Note_on_c, 0, 100, 107
1, 282499, Note_on_c, 0, 88, 95
1, 282514, Control_c, 0, 64, 83
1, 282525, Note_off_c, 0, 88, 66
1, 282527, Note_off_c, 0, 67, 66
1, 282528, Control_c, 0, 64, 45
1, 282533, Note_off_c, 0, 100, 67
1, 282543, Control_c, 0, 64, 0
1, 282581, Note_on_c, 0, 71, 104
1, 282587, Note_on_c, 0, 101, 104
1, 282588, Note_on_c, 0, 89, 100
1, 282588, Control_c, 0, 64, 42
1, 282589, Note_on_c, 0, 68, 93
1, 282589, Note_on_c, 0, 94, 99
1, 282590, Note_on_c, 0, 62, 78
1, 282595, Note_on_c, 0, 65, 71
1, 282602, Control_c, 0, 64, 127
1, 282611, Note_off_c, 0, 89, 66
1, 282611, Note_off_c, 0, 101, 61
1, 282614, Note_off_c, 0, 62, 70
1, 282620, Note_off_c, 0, 94, 62
1, 282622, Note_off_c, 0, 65, 67
1, 282626, Note_off_c, 0, 71, 66
1, 282631, Note_off_c, 0, 68, 67
1, 283144, Note_on_c, 0, 70, 104
1, 283144, Note_on_c, 0, 71, 93
1, 283145, Note_on_c, 0, 56, 92
1, 283147, Note_on_c, 0, 50, 90
1, 283147, Note_on_c, 0, 53, 74
1, 283148, Note_on_c, 0, 77, 80
1, 283149, Note_on_c, 0, 59, 105
1, 283156, Note_on_c, 0, 80, 73
1, 283166, Note_on_c, 0, 76, 68
1, 283173, Note_on_c, 0, 82, 56
1, 283192, Note_off_c, 0, 50, 67
1, 283196, Note_off_c, 0, 82, 59
1, 283206, Note_off_c, 0, 80, 59
1, 283207, Note_off_c, 0, 59, 66
1, 283215, Note_off_c, 0, 53, 64
1, 283218, Note_off_c, 0, 56, 64
1, 283219, Note_off_c, 0, 70, 63
1, 283253, Note_off_c, 0, 76, 0
1, 283290, Poly_aftertouch_c, 0, 76, 127
1, 283344, Poly_aftertouch_c, 0, 70, 127
1, 283373, Poly_aftertouch_c, 0, 70, 0
1, 283389, Poly_aftertouch_c, 0, 76, 0
1, 283430, Note_off_c, 0, 77, 30
1, 283460, Note_on_c, 0, 70, 109
1, 283463, Note_on_c, 0, 68, 96
1, 283466, Note_on_c, 0, 65, 87
1, 283468, Note_on_c, 0, 62, 84
1, 283514, Note_off_c, 0, 68, 66
1, 283519, Note_off_c, 0, 62, 66
1, 283520, Note_off_c, 0, 65, 65
1, 283536, Note_off_c, 0, 71, 14
1, 283548, Poly_aftertouch_c, 0, 77, 0
1, 283636, Note_off_c, 0, 70, 54
1, 283770, Note_on_c, 0, 71, 88
1, 283772, Note_on_c, 0, 70, 94
1, 283777, Note_on_c, 0, 56, 99
1, 283778, Note_on_c, 0, 59, 98
1, 283781, Note_on_c, 0, 77, 84
1, 283782, Note_on_c, 0, 50, 88
1, 283783, Note_on_c, 0, 53, 89
1, 283803, Note_on_c, 0, 82, 54
1, 283806, Note_on_c, 0, 80, 53
1, 283812, Note_off_c, 0, 50, 67
1, 283824, Note_off_c, 0, 82, 61
1, 283827, Note_off_c, 0, 53, 64
1, 283829, Note_off_c, 0, 80, 58
1, 283830, Note_off_c, 0, 59, 67
1, 283836, Note_off_c, 0, 56, 64
1, 283867, Note_off_c, 0, 70, 62
1, 283869, Note_off_c, 0, 77, 64
1, 283873, Note_off_c, 0, 71, 63
1, 283940, Note_on_c, 0, 68, 94
1, 283943, Note_on_c, 0, 70, 112
1, 283944, Note_on_c, 0, 65, 87
1, 283949, Note_on_c, 0, 62, 81
1, 283973, Note_on_c, 0, 80, 48
1, 283974, Note_off_c, 0, 62, 69
1, 283976, Note_off_c, 0, 68, 68
1, 283984, Note_off_c, 0, 65, 64
1, 283991, Note_on_c, 0, 78, 46
1, 283994, Note_on_c, 0, 77, 36
1, 283997, Note_off_c, 0, 80, 61
1, 284016, Note_off_c, 0, 78, 55
1, 284022, Note_off_c, 0, 77, 52
1, 284058, Poly_aftertouch_c, 0, 71, 0
1, 284098, Note_off_c, 0, 70, 57
1, 284191, Note_on_c, 0, 70, 104
1, 284194, Note_on_c, 0, 71, 87
1, 284204, Note_on_c, 0, 56, 93
1, 284205, Note_on_c, 0, 50, 85
1, 284205, Note_on_c, 0, 59, 100
1, 284205, Note_on_c, 0, 77, 75
1, 284211, Note_on_c, 0, 53, 81
1, 284226, Note_off_c, 0, 50, 69
1, 284231, Note_on_c, 0, 82, 49
1, 284235, Note_off_c, 0, 53, 66
1, 284239, Note_on_c, 0, 80, 37
1, 284241, Note_off_c, 0, 56, 66
1, 284244, Note_off_c, 0, 59, 66
1, 284256, Note_off_c, 0, 82, 58
1, 284267, Note_off_c, 0, 80, 49
1, 284277, Note_off_c, 0, 77, 64
1, 284280, Note_off_c, 0, 70, 64
1, 284281, Note_off_c, 0, 71, 63
1, 284318, Note_on_c, 0, 68, 97
1, 284319, Note_on_c, 0, 65, 96
1, 284322, Note_on_c, 0, 70, 97
1, 284324, Note_on_c, 0, 62, 86
1, 284346, Note_off_c, 0, 68, 66
1, 284352, Note_off_c, 0, 62, 67
1, 284352, Note_off_c, 0, 65, 64
1, 284359, Note_on_c, 0, 80, 41
1, 284389, Note_off_c, 0, 80, 48
1, 284417, Poly_aftertouch_c, 0, 71, 0
1, 284439, Poly_aftertouch_c, 0, 77, 0
1, 284450, Poly_aftertouch_c, 0, 78, 0
1, 284471, Note_off_c, 0, 70, 58
1, 284550, Note_on_c, 0, 59, 94
1, 284551, Note_on_c, 0, 53, 49
1, 284552, Note_on_c, 0, 56, 88
1, 284553, Note_on_c, 0, 50, 80
1, 284555, Note_on_c, 0, 70, 101
1, 284557, Note_on_c, 0, 71, 91
1, 284559, Note_on_c, 0, 77, 82
1, 284574, Note_on_c, 0, 82, 58
1, 284575, Note_off_c, 0, 50, 66
1, 284578, Note_off_c, 0, 56, 68
1, 284581, Note_off_c, 0, 53, 64
1, 284587, Note_off_c, 0, 59, 65
1, 284592, Note_off_c, 0, 82, 62
1, 284614, Note_off_c, 0, 77, 64
1, 284619, Note_off_c, 0, 70, 65
1, 284621, Note_off_c, 0, 71, 63
1, 284653, Note_on_c, 0, 68, 98
1, 284657, Note_on_c, 0, 70, 100
1, 284658, Note_on_c, 0, 65, 89
1, 284659, Note_on_c, 0, 62, 83
1, 284676, Note_on_c, 0, 71, 57
1, 284681, Note_off_c, 0, 68, 69
1, 284683, Note_off_c, 0, 62, 69
1, 284686, Note_off_c, 0, 65, 63
1, 284689, Note_on_c, 0, 76, 46
1, 284706, Note_off_c, 0, 71, 65
1, 284715, Note_on_c, 0, 80, 20
1, 284719, Note_off_c, 0, 76, 53
1, 284721, Note_on_c, 0, 78, 15
1, 284751, Note_off_c, 0, 80, 43
1, 284767, Note_off_c, 0, 78, 34
1, 284774, Poly_aftertouch_c, 0, 77, 0
1, 284803, Note_on_c, 0, 54, 64
1, 284805, Note_off_c, 0, 70, 58
1, 284832, Note_off_c, 0, 54, 67
1, 284890, Note_on_c, 0, 59, 92
1, 284891, Note_on_c, 0, 56, 90
1, 284894, Note_on_c, 0, 50, 74
1, 284897, Note_on_c, 0, 77, 79
1, 284898, Note_on_c, 0, 70, 102
1, 284898, Note_on_c, 0, 71, 82
1, 284903, Note_on_c, 0, 53, 72
1, 284910, Note_off_c, 0, 50, 71
1, 284917, Note_off_c, 0, 59, 68
1, 284922, Note_on_c, 0, 82, 46
1, 284924, Note_off_c, 0, 56, 63
1, 284931, Note_off_c, 0, 53, 66
1, 284954, Note_off_c, 0, 82, 57
1, 284963, Note_off_c, 0, 77, 65
1, 284969, Note_off_c, 0, 70, 64
1, 284970, Note_off_c, 0, 71, 63
1, 285001, Note_on_c, 0, 68, 100
1, 285002, Note_on_c, 0, 70, 94
1, 285004, Note_on_c, 0, 65, 94
1, 285010, Note_on_c, 0, 62, 84
1, 285028, Note_on_c, 0, 71, 48
1, 285031, Note_off_c, 0, 68, 69
1, 285033, Note_off_c, 0, 62, 71
1, 285038, Note_off_c, 0, 65, 64
1, 285050, Note_off_c, 0, 71, 60
1, 285119, Poly_aftertouch_c, 0, 64, 0
1, 285204, Note_off_c, 0, 70, 53
1, 285332, Control_c, 0, 64, 92
1, 285346, Control_c, 0, 64, 57
1, 285352, Note_on_c, 0, 77, 73
1, 285354, Note_on_c, 0, 70, 90
1, 285355, Note_on_c, 0, 82, 82
1, 285357, Note_on_c, 0, 50, 89
1, 285357, Note_on_c, 0, 56, 91
1, 285358, Note_on_c, 0, 59, 100
1, 285360, Note_on_c, 0, 71, 64
1, 285361, Control_c, 0, 64, 0
1, 285362, Note_on_c, 0, 53, 82
1, 285385, Note_on_c, 0, 72, 59
1, 285406, Control_c, 0, 64, 28
1, 285407, Note_off_c, 0, 72, 39
1, 285420, Control_c, 0, 64, 67
1, 285435, Control_c, 0, 64, 116
1, 285450, Control_c, 0, 64, 127
1, 285459, Note_off_c, 0, 71, 47
1, 285464, Poly_aftertouch_c, 0, 80, 0
1, 285466, Note_off_c, 0, 77, 63
1, 285469, Note_off_c, 0, 50, 66
1, 285472, Note_off_c, 0, 82, 62
1, 285476, Note_off_c, 0, 70, 60
1, 285493, Note_off_c, 0, 53, 63
1, 285513, Note_off_c, 0, 59, 66
1, 285520, Note_off_c, 0, 56, 62
1, 285829, Control_c, 0, 64, 77
1, 285844, Control_c, 0, 64, 44
1, 285858, Control_c, 0, 64, 0
1, 285869, Note_on_c, 0, 85, 105
1, 285947, Control_c, 0, 64, 61
1, 285962, Control_c, 0, 64, 90
1, 285976, Control_c, 0, 64, 127
1, 285979, Note_off_c, 0, 85, 64
1, 286041, Note_on_c, 0, 97, 102
1, 286046, Note_on_c, 0, 85, 92
1, 286096, Note_off_c, 0, 85, 63
1, 286117, Note_off_c, 0, 97, 64
1, 286163, Note_on_c, 0, 82, 88
1, 286232, Note_off_c, 0, 82, 0
1, 286241, Note_on_c, 0, 94, 93
1, 286241, Note_on_c, 0, 82, 77
1, 286277, Note_off_c, 0, 82, 62
1, 286288, Note_off_c, 0, 94, 63
1, 286322, Note_on_c, 0, 79, 82
1, 286381, Note_on_c, 0, 91, 91
1, 286405, Note_off_c, 0, 91, 64
1, 286411, Note_off_c, 0, 79, 65
1, 286464, Note_on_c, 0, 76, 82
1, 286512, Note_on_c, 0, 88, 89
1, 286542, Note_off_c, 0, 76, 64
1, 286549, Note_off_c, 0, 88, 65
1, 286593, Note_on_c, 0, 82, 95
1, 286644, Note_off_c, 0, 82, 65
1, 286667, Note_on_c, 0, 94, 96
1, 286669, Note_on_c, 0, 82, 89
1, 286689, Note_off_c, 0, 82, 69
1, 286704, Note_off_c, 0, 94, 62
1, 286745, Note_on_c, 0, 73, 84
1, 286782, Note_off_c, 0, 73, 66
1, 286849, Note_on_c, 0, 85, 96
1, 286854, Note_on_c, 0, 73, 93
1, 286871, Note_off_c, 0, 73, 70
1, 286897, Note_off_c, 0, 85, 64
1, 287021, Control_c, 0, 64, 76
1, 287036, Note_on_c, 0, 71, 100
1, 287036, Control_c, 0, 64, 19
1, 287051, Control_c, 0, 64, 0
1, 287280, Control_c, 0, 64, 53
1, 287295, Control_c, 0, 64, 59
1, 287310, Control_c, 0, 64, 61
1, 287324, Control_c, 0, 64, 68
1, 287339, Control_c, 0, 64, 89
1, 287348, Note_off_c, 0, 71, 68
1, 287354, Control_c, 0, 64, 127
1, 288000, Control_c, 0, 64, 74
1, 288015, Control_c, 0, 64, 0
1, 288088, Control_c, 0, 64, 42
1, 288097, Note_on_c, 0, 61, 74
1, 288103, Control_c, 0, 64, 88
1, 288118, Control_c, 0, 64, 127
1, 288131, Note_off_c, 0, 61, 64
1, 288161, Note_on_c, 0, 61, 68
1, 288164, Note_on_c, 0, 73, 75
1, 288187, Note_off_c, 0, 61, 67
1, 288190, Note_off_c, 0, 73, 70
1, 288209, Note_on_c, 0, 64, 82
1, 288247, Note_off_c, 0, 64, 67
1, 288271, Note_on_c, 0, 64, 80
1, 288271, Note_on_c, 0, 76, 94
1, 288282, Control_c, 0, 64, 106
1, 288295, Note_off_c, 0, 76, 68
1, 288297, Control_c, 0, 64, 74
1, 288302, Note_off_c, 0, 64, 67
1, 288308, Note_on_c, 0, 62, 94
1, 288312, Control_c, 0, 64, 52
1, 288326, Control_c, 0, 64, 0
1, 288346, Note_off_c, 0, 62, 0
1, 288364, Note_on_c, 0, 74, 92
1, 288382, Note_off_c, 0, 74, 72
1, 288387, Poly_aftertouch_c, 0, 62, 0
1, 288404, Note_on_c, 0, 59, 92
1, 288653, Control_c, 0, 64, 27
1, 288668, Control_c, 0, 64, 54
1, 288683, Control_c, 0, 64, 63
1, 288704, Control_c, 0, 64, 65
1, 288719, Control_c, 0, 64, 69
1, 288734, Control_c, 0, 64, 80
1, 288749, Control_c, 0, 64, 115
1, 288764, Control_c, 0, 64, 127
1, 288865, Note_off_c, 0, 59, 64
1, 289123, Note_on_c, 0, 61, 59
1, 289127, Note_on_c, 0, 73, 52
1, 289143, Note_off_c, 0, 61, 62
1, 289148, Note_off_c, 0, 73, 62
1, 289250, Note_on_c, 0, 76, 82
1, 289252, Note_on_c, 0, 64, 72
1, 289273, Note_off_c, 0, 76, 68
1, 289278, Note_off_c, 0, 64, 68
1, 289327, Poly_aftertouch_c, 0, 64, 0
1, 289361, Note_on_c, 0, 79, 94
1, 289365, Note_on_c, 0, 67, 85
1, 289383, Note_off_c, 0, 79, 67
1, 289387, Note_off_c, 0, 67, 68
1, 289446, Poly_aftertouch_c, 0, 67, 127
1, 289467, Note_on_c, 0, 65, 99
1, 289467, Note_on_c, 0, 77, 95
1, 289491, Poly_aftertouch_c, 0, 67, 0
1, 289496, Note_off_c, 0, 77, 64
1, 289560, Note_on_c, 0, 62, 97
1, 289560, Note_on_c, 0, 74, 96
1, 289583, Note_off_c, 0, 65, 41
1, 289601, Control_c, 0, 64, 83
1, 289610, Note_off_c, 0, 74, 62
1, 289616, Control_c, 0, 64, 38
1, 289631, Control_c, 0, 64, 0
1, 289644, Note_off_c, 0, 62, 64
1, 289670, Note_on_c, 0, 59, 84
1, 289765, Control_c, 0, 64, 47
1, 289780, Control_c, 0, 64, 60
1, 289795, Control_c, 0, 64, 71
1, 289810, Control_c, 0, 64, 84
1, 289825, Control_c, 0, 64, 116
1, 289838, Note_on_c, 0, 61, 56
1, 289840, Control_c, 0, 64, 127
1, 289878, Note_off_c, 0, 59, 65
1, 289893, Note_on_c, 0, 64, 60
1, 289923, Note_off_c, 0, 61, 60
1, 289929, Note_off_c, 0, 64, 64
1, 289950, Note_on_c, 0, 67, 55
1, 289971, Note_on_c, 0, 71, 65
1, 289971, Note_off_c, 0, 67, 61
1, 290010, Note_off_c, 0, 71, 60
1, 290045, Note_on_c, 0, 79, 68
1, 290076, Note_off_c, 0, 79, 66
1, 290087, Note_on_c, 0, 73, 70
1, 290141, Note_off_c, 0, 73, 65
1, 290146, Note_on_c, 0, 70, 69
1, 290169, Note_off_c, 0, 70, 67
1, 290179, Note_on_c, 0, 65, 73
1, 290206, Note_off_c, 0, 65, 65
1, 290248, Note_on_c, 0, 65, 69
1, 290260, Note_on_c, 0, 70, 45
1, 290275, Note_on_c, 0, 71, 83
1, 290286, Note_off_c, 0, 70, 57
1, 290325, Note_on_c, 0, 74, 79
1, 290363, Note_on_c, 0, 79, 87
1, 290385, Note_on_c, 0, 82, 83
1, 290390, Note_off_c, 0, 74, 65
1, 290397, Note_off_c, 0, 71, 63
1, 290412, Note_off_c, 0, 79, 67
1, 290429, Note_on_c, 0, 80, 77
1, 290432, Note_off_c, 0, 82, 65
1, 290463, Note_off_c, 0, 65, 65
1, 290477, Note_on_c, 0, 77, 75
1, 290477, Note_off_c, 0, 80, 63
1, 290510, Note_on_c, 0, 74, 86
1, 290510, Note_off_c, 0, 77, 66
1, 290532, Note_off_c, 0, 74, 71
1, 290576, Note_on_c, 0, 71, 77
1, 290597, Note_on_c, 0, 69, 49
1, 290599, Note_off_c, 0, 71, 69
1, 290617, Note_on_c, 0, 70, 80
1, 290623, Note_off_c, 0, 69, 63
1, 290627, Poly_aftertouch_c, 0, 63, 127
1, 290646, Note_on_c, 0, 68, 78
1, 290652, Poly_aftertouch_c, 0, 63, 0
1, 290674, Note_off_c, 0, 70, 65
1, 290675, Note_on_c, 0, 65, 65
1, 290728, Note_on_c, 0, 62, 77
1, 290731, Note_off_c, 0, 68, 65
1, 290761, Note_off_c, 0, 62, 69
1, 290769, Note_off_c, 0, 65, 66
1, 290792, Note_on_c, 0, 59, 98
1, 290796, Control_c, 0, 64, 93
1, 290811, Control_c, 0, 64, 50
1, 290826, Control_c, 0, 64, 0
1, 291099, Control_c, 0, 64, 36
1, 291114, Control_c, 0, 64, 53
1, 291129, Control_c, 0, 64, 64
1, 291144, Control_c, 0, 64, 74
1, 291159, Control_c, 0, 64, 92
1, 291173, Control_c, 0, 64, 127
1, 291256, Note_off_c, 0, 59, 58
1, 292114, Control_c, 0, 64, 91
1, 292129, Control_c, 0, 64, 69
1, 292144, Control_c, 0, 64, 50
1, 292159, Control_c, 0, 64, 0
1, 292250, Note_on_c, 0, 73, 56
1, 292308, Control_c, 0, 64, 23
1, 292323, Control_c, 0, 64, 55
1, 292337, Control_c, 0, 64, 62
1, 292352, Control_c, 0, 64, 71
1, 292361, Poly_aftertouch_c, 0, 61, 0
1, 292367, Control_c, 0, 64, 92
1, 292382, Control_c, 0, 64, 127
1, 292412, Note_off_c, 0, 73, 63
1, 292466, Note_on_c, 0, 61, 54
1, 292519, Note_off_c, 0, 61, 60
1, 292570, Note_on_c, 0, 76, 77
1, 292581, Note_on_c, 0, 64, 62
1, 292609, Note_off_c, 0, 64, 65
1, 292617, Note_off_c, 0, 76, 59
1, 292665, Note_on_c, 0, 64, 74
1, 292699, Note_off_c, 0, 64, 59
1, 292731, Note_on_c, 0, 79, 94
1, 292733, Note_on_c, 0, 67, 92
1, 292769, Note_off_c, 0, 67, 64
1, 292773, Note_off_c, 0, 79, 66
1, 292803, Note_on_c, 0, 67, 76
1, 292852, Note_on_c, 0, 77, 95
1, 292853, Note_on_c, 0, 65, 95
1, 292861, Note_off_c, 0, 67, 63
1, 292888, Note_off_c, 0, 65, 62
1, 292892, Note_off_c, 0, 77, 66
1, 292925, Note_on_c, 0, 65, 74
1, 292983, Note_on_c, 0, 71, 100
1, 292984, Note_on_c, 0, 83, 102
1, 292987, Note_off_c, 0, 65, 64
1, 293062, Note_off_c, 0, 71, 0
1, 293069, Note_off_c, 0, 83, 65
1, 293085, Note_on_c, 0, 69, 68
1, 293099, Poly_aftertouch_c, 0, 71, 127
1, 293104, Note_off_c, 0, 69, 67
1, 293173, Poly_aftertouch_c, 0, 71, 0
1, 293233, Note_on_c, 0, 88, 107
1, 293234, Note_on_c, 0, 76, 103
1, 293420, Control_c, 0, 64, 68
1, 293434, Control_c, 0, 64, 0
1, 293470, Note_on_c, 0, 85, 100
1, 293479, Note_off_c, 0, 88, 63
1, 293569, Control_c, 0, 64, 50
1, 293583, Control_c, 0, 64, 66
1, 293598, Control_c, 0, 64, 80
1, 293613, Note_off_c, 0, 76, 60
1, 293613, Control_c, 0, 64, 127
1, 293633, Note_off_c, 0, 85, 64
1, 293721, Note_on_c, 0, 85, 102
1, 293831, Note_off_c, 0, 85, 63
1, 293983, Note_on_c, 0, 85, 97
1, 294015, Note_on_c, 0, 76, 101
1, 294015, Note_on_c, 0, 88, 100
1, 294018, Note_off_c, 0, 85, 67
1, 294070, Note_on_c, 0, 86, 27
1, 294107, Note_off_c, 0, 86, 43
1, 294541, Note_off_c, 0, 88, 64
1, 294546, Note_on_c, 0, 85, 99
1, 294571, Note_off_c, 0, 76, 67
1, 294582, Note_off_c, 0, 85, 69
1, 294659, Control_c, 0, 64, 91
1, 294680, Control_c, 0, 64, 73
1, 294695, Control_c, 0, 64, 67
1, 294710, Control_c, 0, 64, 65
1, 294725, Control_c, 0, 64, 61
1, 294740, Control_c, 0, 64, 52
1, 294755, Control_c, 0, 64, 35
1, 294770, Control_c, 0, 64, 0
1, 294888, Control_c, 0, 64, 11
1, 294903, Control_c, 0, 64, 31
1, 294918, Control_c, 0, 64, 45
1, 294932, Control_c, 0, 64, 55
1, 294947, Control_c, 0, 64, 62
1, 294962, Control_c, 0, 64, 67
1, 294977, Control_c, 0, 64, 72
1, 294992, Control_c, 0, 64, 79
1, 295006, Control_c, 0, 64, 88
1, 295021, Control_c, 0, 64, 103
1, 295036, Control_c, 0, 64, 127
1, 295254, Note_on_c, 0, 46, 73
1, 295256, Note_on_c, 0, 47, 88
1, 295257, Note_on_c, 0, 38, 92
1, 295259, Note_on_c, 0, 41, 81
1, 295259, Note_on_c, 0, 44, 87
1, 295265, Note_on_c, 0, 35, 94
1, 295267, Note_on_c, 0, 32, 88
1, 295269, Note_on_c, 0, 26, 90
1, 295269, Note_on_c, 0, 34, 97
1, 295283, Note_on_c, 0, 29, 73
1, 295371, Note_off_c, 0, 29, 51
1, 295391, Note_off_c, 0, 26, 62
1, 295418, Note_off_c, 0, 32, 62
1, 295434, Note_off_c, 0, 38, 53
1, 295442, Note_off_c, 0, 47, 59
1, 295446, Note_off_c, 0, 35, 63
1, 295447, Note_off_c, 0, 34, 63
1, 295475, Note_off_c, 0, 41, 62
1, 295497, Note_off_c, 0, 44, 61
1, 295506, Note_off_c, 0, 46, 64
1, 295741, Note_on_c, 0, 37, 53
1, 295810, Note_on_c, 0, 50, 76
1, 295863, Note_off_c, 0, 37, 34
1, 295918, Note_on_c, 0, 41, 45
1, 295923, Note_off_c, 0, 50, 55
1, 295951, Note_off_c, 0, 41, 49
1, 295968, Note_on_c, 0, 53, 73
1, 296054, Note_on_c, 0, 56, 84
1, 296064, Note_off_c, 0, 53, 62
1, 296102, Note_off_c, 0, 56, 63
1, 296103, Note_on_c, 0, 46, 44
1, 296155, Note_on_c, 0, 59, 80
1, 296170, Note_on_c, 0, 49, 60
1, 296210, Note_off_c, 0, 46, 59
1, 296229, Note_on_c, 0, 62, 85
1, 296233, Note_off_c, 0, 59, 65
1, 296245, Note_on_c, 0, 53, 57
1, 296252, Note_off_c, 0, 49, 63
1, 296280, Note_off_c, 0, 53, 63
1, 296287, Note_on_c, 0, 65, 80
1, 296288, Note_on_c, 0, 58, 71
1, 296319, Note_off_c, 0, 62, 63
1, 296321, Note_off_c, 0, 58, 65
1, 296366, Note_on_c, 0, 68, 86
1, 296376, Note_off_c, 0, 65, 65
1, 296386, Note_off_c, 0, 68, 72
1, 296416, Note_on_c, 0, 58, 66
1, 296435, Note_on_c, 0, 71, 84
1, 296468, Note_off_c, 0, 71, 67
1, 296477, Note_on_c, 0, 74, 84
1, 296490, Note_on_c, 0, 61, 58
1, 296503, Note_off_c, 0, 58, 63
1, 296526, Note_on_c, 0, 77, 79
1, 296527, Note_on_c, 0, 65, 61
1, 296550, Note_off_c, 0, 61, 64
1, 296564, Note_off_c, 0, 74, 66
1, 296584, Note_on_c, 0, 70, 78
1, 296584, Note_on_c, 0, 80, 84
1, 296585, Note_off_c, 0, 65, 64
1, 296606, Note_off_c, 0, 70, 68
1, 296615, Note_off_c, 0, 77, 66
1, 296632, Note_on_c, 0, 83, 95
1, 296642, Note_off_c, 0, 80, 61
1, 296721, Note_off_c, 0, 83, 64
1, 296791, Note_on_c, 0, 85, 86
1, 296814, Note_off_c, 0, 85, 68
1, 296872, Note_on_c, 0, 85, 73
1, 296876, Note_on_c, 0, 73, 60
1, 296889, Note_off_c, 0, 85, 67
1, 296894, Note_off_c, 0, 73, 65
1, 296931, Note_on_c, 0, 85, 78
1, 296950, Note_off_c, 0, 85, 67
1, 296991, Note_on_c, 0, 73, 72
1, 297003, Note_on_c, 0, 85, 71
1, 297017, Note_off_c, 0, 73, 69
1, 297020, Note_off_c, 0, 85, 69
1, 297049, Note_on_c, 0, 85, 82
1, 297071, Note_off_c, 0, 85, 66
1, 297101, Note_on_c, 0, 73, 72
1, 297104, Note_on_c, 0, 85, 88
1, 297125, Note_off_c, 0, 85, 71
1, 297125, Note_off_c, 0, 73, 67
1, 297155, Note_on_c, 0, 85, 101
1, 297171, Note_off_c, 0, 85, 72
1, 297206, Note_on_c, 0, 73, 82
1, 297207, Note_on_c, 0, 85, 94
1, 297227, Note_off_c, 0, 85, 69
1, 297229, Note_off_c, 0, 73, 68
1, 297259, Note_on_c, 0, 85, 113
1, 297291, Note_off_c, 0, 85, 63
1, 297307, Note_on_c, 0, 85, 97
1, 297310, Note_on_c, 0, 73, 75
1, 297331, Note_off_c, 0, 73, 68
1, 297351, Note_off_c, 0, 85, 63
1, 297363, Note_on_c, 0, 85, 100
1, 297394, Note_off_c, 0, 85, 65
1, 297411, Note_on_c, 0, 85, 102
1, 297412, Note_on_c, 0, 73, 33
1, 297443, Note_off_c, 0, 73, 63
1, 297450, Note_on_c, 0, 82, 35
1, 297451, Note_off_c, 0, 82, 127
1, 297452, Note_off_c, 0, 85, 64
1, 297476, Note_on_c, 0, 85, 101
1, 297480, Poly_aftertouch_c, 0, 82, 0
1, 297511, Note_off_c, 0, 85, 0
1, 297523, Note_on_c, 0, 73, 100
1, 297542, Note_off_c, 0, 73, 70
1, 297548, Poly_aftertouch_c, 0, 85, 127
1, 297560, Poly_aftertouch_c, 0, 85, 0
1, 297614, Poly_aftertouch_c, 0, 82, 0
1, 298632, Control_c, 0, 64, 86
1, 298634, Note_on_c, 0, 46, 86
1, 298636, Note_on_c, 0, 47, 86
1, 298637, Note_on_c, 0, 44, 76
1, 298638, Note_on_c, 0, 38, 81
1, 298643, Note_on_c, 0, 41, 93
1, 298645, Note_on_c, 0, 36, 96
1, 298647, Control_c, 0, 64, 41
1, 298648, Note_on_c, 0, 34, 90
1, 298651, Note_on_c, 0, 26, 88
1, 298651, Note_on_c, 0, 35, 89
1, 298651, Note_on_c, 0, 32, 87
1, 298657, Note_on_c, 0, 30, 62
1, 298661, Control_c, 0, 64, 0
1, 298675, Note_on_c, 0, 28, 48
1, 298717, Note_off_c, 0, 28, 32
1, 298720, Control_c, 0, 64, 69
1, 298735, Control_c, 0, 64, 127
1, 298755, Note_off_c, 0, 30, 54
1, 298776, Note_off_c, 0, 36, 63
1, 298788, Note_off_c, 0, 26, 60
1, 298801, Note_off_c, 0, 38, 55
1, 298809, Note_off_c, 0, 35, 59
1, 298818, Note_off_c, 0, 41, 61
1, 298852, Note_off_c, 0, 47, 62
1, 298861, Note_off_c, 0, 44, 58
1, 298863, Note_off_c, 0, 32, 61
1, 298865, Note_off_c, 0, 34, 63
1, 298878, Note_off_c, 0, 46, 59
1, 299065, Note_on_c, 0, 37, 58
1, 299113, Note_on_c, 0, 50, 96
1, 299149, Note_off_c, 0, 37, 55
1, 299255, Note_on_c, 0, 41, 71
1, 299256, Note_on_c, 0, 29, 66
1, 299264, Note_off_c, 0, 50, 60
1, 299283, Note_off_c, 0, 41, 64
1, 299286, Note_off_c, 0, 29, 65
1, 299292, Note_on_c, 0, 53, 92
1, 299343, Note_on_c, 0, 56, 12
1, 299388, Note_off_c, 0, 56, 38
1, 299414, Note_on_c, 0, 56, 79
1, 299416, Note_on_c, 0, 46, 70
1, 299427, Note_on_c, 0, 34, 55
1, 299444, Note_off_c, 0, 53, 63
1, 299446, Note_off_c, 0, 46, 65
1, 299454, Note_off_c, 0, 34, 57
1, 299486, Note_off_c, 0, 56, 65
1, 299548, Note_on_c, 0, 49, 72
1, 299552, Note_on_c, 0, 59, 88
1, 299562, Note_on_c, 0, 37, 49
1, 299579, Note_off_c, 0, 49, 64
1, 299595, Note_off_c, 0, 37, 55
1, 299634, Note_off_c, 0, 59, 64
1, 299653, Note_on_c, 0, 62, 83
1, 299675, Note_on_c, 0, 53, 72
1, 299683, Note_on_c, 0, 41, 70
1, 299700, Note_off_c, 0, 53, 67
1, 299711, Note_off_c, 0, 41, 65
1, 299739, Note_off_c, 0, 62, 65
1, 299740, Note_on_c, 0, 65, 86
1, 299816, Note_on_c, 0, 58, 78
1, 299823, Note_on_c, 0, 46, 57
1, 299823, Note_on_c, 0, 68, 85
1, 299826, Note_off_c, 0, 65, 66
1, 299842, Note_off_c, 0, 58, 68
1, 299849, Note_off_c, 0, 46, 59
1, 299858, Note_off_c, 0, 68, 67
1, 299914, Note_on_c, 0, 71, 79
1, 299929, Note_on_c, 0, 61, 83
1, 299938, Note_on_c, 0, 49, 68
1, 299958, Note_off_c, 0, 61, 62
1, 299966, Note_off_c, 0, 49, 66
1, 299991, Note_on_c, 0, 74, 79
1, 299996, Note_off_c, 0, 71, 61
1, 300041, Note_on_c, 0, 77, 76
1, 300049, Note_on_c, 0, 65, 80
1, 300055, Note_on_c, 0, 53, 68
1, 300070, Note_off_c, 0, 74, 64
1, 300073, Note_off_c, 0, 65, 68
1, 300079, Note_off_c, 0, 53, 63
1, 300116, Note_on_c, 0, 80, 70
1, 300121, Note_off_c, 0, 77, 67
1, 300133, Note_off_c, 0, 80, 41
1, 300158, Note_on_c, 0, 70, 89
1, 300163, Note_on_c, 0, 58, 79
1, 300184, Note_off_c, 0, 70, 65
1, 300188, Note_on_c, 0, 83, 80
1, 300191, Note_off_c, 0, 58, 69
1, 300215, Poly_aftertouch_c, 0, 65, 0
1, 300226, Poly_aftertouch_c, 0, 79, 0
1, 300231, Note_on_c, 0, 86, 78
1, 300264, Note_on_c, 0, 73, 90
1, 300267, Note_on_c, 0, 61, 84
1, 300276, Note_on_c, 0, 89, 84
1, 300301, Note_off_c, 0, 86, 66
1, 300307, Note_off_c, 0, 61, 62
1, 300308, Note_off_c, 0, 73, 65
1, 300328, Note_on_c, 0, 92, 81
1, 300357, Note_off_c, 0, 89, 66
1, 300365, Note_on_c, 0, 95, 91
1, 300375, Note_on_c, 0, 77, 96
1, 300381, Note_on_c, 0, 65, 81
1, 300390, Note_off_c, 0, 92, 67
1, 300395, Note_off_c, 0, 77, 72
1, 300397, Note_off_c, 0, 65, 69
1, 300401, Note_off_c, 0, 83, 66
1, 300408, Note_off_c, 0, 95, 68
1, 300472, Note_on_c, 0, 82, 106
1, 300475, Note_on_c, 0, 70, 96
1, 300511, Note_off_c, 0, 82, 67
1, 300518, Note_off_c, 0, 70, 61
1, 300700, Control_c, 0, 64, 94
1, 300711, Note_on_c, 0, 97, 101
1, 300715, Control_c, 0, 64, 47
1, 300717, Note_on_c, 0, 85, 93
1, 300730, Control_c, 0, 64, 0
1, 300860, Note_off_c, 0, 85, 61
1, 300894, Note_off_c, 0, 97, 63
1, 300936, Note_on_c, 0, 85, 97
1, 300952, Control_c, 0, 64, 52
1, 300967, Control_c, 0, 64, 72
1, 300982, Control_c, 0, 64, 82
1, 300996, Control_c, 0, 64, 109
1, 301012, Control_c, 0, 64, 127
1, 301036, Note_off_c, 0, 85, 63
1, 301152, Note_on_c, 0, 97, 103
1, 301158, Note_on_c, 0, 85, 92
1, 301239, Note_off_c, 0, 85, 62
1, 301272, Note_off_c, 0, 97, 65
1, 301329, Note_on_c, 0, 85, 106
1, 301373, Note_off_c, 0, 85, 58
1, 301502, Note_on_c, 0, 97, 103
1, 301507, Note_on_c, 0, 85, 96
1, 301573, Note_off_c, 0, 85, 51
1, 301619, Note_off_c, 0, 97, 62
1, 301634, Note_on_c, 0, 85, 97
1, 301670, Note_off_c, 0, 85, 65
1, 301741, Note_on_c, 0, 97, 96
1, 301757, Note_on_c, 0, 85, 62
1, 301775, Note_off_c, 0, 85, 65
1, 301798, Note_off_c, 0, 97, 65
1, 301854, Note_on_c, 0, 92, 74
1, 301891, Note_on_c, 0, 97, 84
1, 301894, Note_off_c, 0, 92, 66
1, 301918, Note_on_c, 0, 94, 71
1, 301938, Note_on_c, 0, 89, 53
1, 301940, Note_off_c, 0, 97, 63
1, 301947, Note_on_c, 0, 86, 52
1, 301961, Note_off_c, 0, 89, 60
1, 301969, Note_off_c, 0, 86, 60
1, 301974, Note_on_c, 0, 91, 73
1, 301999, Note_off_c, 0, 94, 63
1, 302022, Note_off_c, 0, 91, 65
1, 302027, Note_on_c, 0, 88, 63
1, 302040, Note_on_c, 0, 83, 79
1, 302045, Note_off_c, 0, 88, 67
1, 302085, Note_off_c, 0, 83, 65
1, 302096, Note_on_c, 0, 80, 77
1, 302106, Note_on_c, 0, 93, 68
1, 302113, Note_on_c, 0, 92, 47
1, 302132, Note_off_c, 0, 93, 57
1, 302134, Poly_aftertouch_c, 0, 73, 127
1, 302139, Note_off_c, 0, 80, 65
1, 302149, Note_on_c, 0, 85, 82
1, 302155, Note_on_c, 0, 77, 66
1, 302156, Note_on_c, 0, 76, 59
1, 302171, Poly_aftertouch_c, 0, 73, 0
1, 302177, Note_off_c, 0, 92, 43
1, 302181, Note_off_c, 0, 85, 67
1, 302184, Note_on_c, 0, 82, 84
1, 302190, Note_off_c, 0, 77, 68
1, 302192, Note_on_c, 0, 74, 66
1, 302197, Note_off_c, 0, 76, 52
1, 302219, Note_off_c, 0, 74, 67
1, 302223, Note_off_c, 0, 82, 64
1, 302270, Note_on_c, 0, 71, 86
1, 302272, Note_on_c, 0, 79, 62
1, 302289, Note_on_c, 0, 78, 49
1, 302318, Note_on_c, 0, 76, 85
1, 302322, Note_off_c, 0, 78, 34
1, 302324, Note_off_c, 0, 79, 61
1, 302326, Note_on_c, 0, 68, 79
1, 302327, Note_off_c, 0, 71, 60
1, 302346, Note_on_c, 0, 82, 86
1, 302350, Note_on_c, 0, 77, 23
1, 302359, Note_on_c, 0, 65, 72
1, 302371, Note_off_c, 0, 76, 64
1, 302375, Control_c, 0, 64, 82
1, 302389, Note_off_c, 0, 77, 43
1, 302390, Control_c, 0, 64, 41
1, 302395, Note_on_c, 0, 83, 39
1, 302397, Note_on_c, 0, 73, 85
1, 302400, Note_on_c, 0, 62, 59
1, 302402, Note_off_c, 0, 68, 66
1, 302404, Control_c, 0, 64, 0
1, 302417, Note_off_c, 0, 82, 64
1, 302427, Note_off_c, 0, 83, 33
1, 302428, Note_off_c, 0, 73, 63
1, 302455, Note_on_c, 0, 71, 98
1, 302456, Note_on_c, 0, 59, 81
1, 302459, Note_off_c, 0, 65, 60
1, 302508, Note_off_c, 0, 62, 63
1, 302672, Control_c, 0, 64, 27
1, 302687, Control_c, 0, 64, 44
1, 302702, Control_c, 0, 64, 53
1, 302717, Control_c, 0, 64, 59
1, 302732, Control_c, 0, 64, 65
1, 302746, Control_c, 0, 64, 72
1, 302761, Control_c, 0, 64, 82
1, 302767, Note_off_c, 0, 71, 55
1, 302776, Control_c, 0, 64, 89
1, 302791, Control_c, 0, 64, 97
1, 302806, Control_c, 0, 64, 127
1, 303057, Note_on_c, 0, 71, 69
1, 303319, Note_off_c, 0, 71, 55
1, 303530, Note_on_c, 0, 71, 71
1, 303584, Control_c, 0, 64, 97
1, 303599, Control_c, 0, 64, 84
1, 303614, Control_c, 0, 64, 75
1, 303629, Control_c, 0, 64, 69
1, 303643, Control_c, 0, 64, 65
1, 303680, Control_c, 0, 64, 68
1, 303695, Control_c, 0, 64, 76
1, 303710, Control_c, 0, 64, 90
1, 303724, Control_c, 0, 64, 127
1, 303865, Note_off_c, 0, 71, 58
1, 303996, Note_on_c, 0, 71, 56
1, 304395, Note_off_c, 0, 71, 29
1, 304782, Note_on_c, 0, 71, 29
1, 304838, Note_off_c, 0, 71, 0
1, 304838, Note_on_c, 0, 71, 10
1, 304888, Control_c, 0, 67, 8
1, 304903, Control_c, 0, 67, 8
1, 304932, Control_c, 0, 67, 9
1, 304943, Note_off_c, 0, 59, 41
1, 304945, Note_off_c, 0, 71, 50
1, 304947, Control_c, 0, 67, 10
1, 304962, Control_c, 0, 67, 12
1, 304977, Control_c, 0, 67, 13
1, 304993, Control_c, 0, 67, 13
1, 305008, Control_c, 0, 67, 14
1, 305022, Control_c, 0, 67, 15
1, 305037, Control_c, 0, 67, 19
1, 305052, Control_c, 0, 67, 21
1, 305067, Control_c, 0, 67, 24
1, 305082, Control_c, 0, 67, 29
1, 305096, Control_c, 0, 67, 35
1, 305111, Control_c, 0, 67, 41
1, 305126, Control_c, 0, 67, 44
1, 305140, Control_c, 0, 67, 47
1, 305155, Control_c, 0, 67, 49
1, 305178, Control_c, 0, 67, 50
1, 305237, Control_c, 0, 67, 50
1, 305267, Control_c, 0, 67, 51
1, 305282, Control_c, 0, 67, 51
1, 305296, Control_c, 0, 67, 53
1, 305311, Control_c, 0, 67, 55
1, 305326, Control_c, 0, 67, 56
1, 305340, Control_c, 0, 67, 57
1, 305355, Control_c, 0, 67, 58
1, 305370, Control_c, 0, 67, 58
1, 305400, Control_c, 0, 67, 59
1, 305415, Control_c, 0, 67, 59
1, 305430, Control_c, 0, 67, 60
1, 305444, Control_c, 0, 67, 61
1, 305459, Control_c, 0, 67, 61
1, 305474, Control_c, 0, 67, 62
1, 305534, Control_c, 0, 67, 62
1, 305548, Control_c, 0, 67, 63
1, 305563, Control_c, 0, 67, 66
1, 305578, Control_c, 0, 67, 67
1, 305593, Control_c, 0, 67, 69
1, 305608, Control_c, 0, 67, 70
1, 305622, Control_c, 0, 67, 71
1, 305637, Control_c, 0, 67, 72
1, 305652, Control_c, 0, 67, 73
1, 305666, Control_c, 0, 67, 74
1, 305681, Control_c, 0, 67, 75
1, 305755, Control_c, 0, 67, 75
1, 305786, Control_c, 0, 67, 76
1, 305801, Control_c, 0, 67, 77
1, 305816, Control_c, 0, 67, 77
1, 305831, Control_c, 0, 67, 78
1, 305845, Control_c, 0, 67, 79
1, 305860, Control_c, 0, 67, 80
1, 305875, Control_c, 0, 64, 113
1, 305875, Control_c, 0, 67, 81
1, 305889, Control_c, 0, 64, 89
1, 305889, Control_c, 0, 67, 83
1, 305904, Control_c, 0, 64, 73
1, 305904, Control_c, 0, 67, 85
1, 305927, Control_c, 0, 64, 61
1, 305927, Control_c, 0, 67, 89
1, 305942, Control_c, 0, 64, 44
1, 305942, Control_c, 0, 67, 92
1, 305957, Control_c, 0, 64, 0
1, 305957, Control_c, 0, 67, 96
1, 305971, Control_c, 0, 67, 99
1, 305986, Control_c, 0, 67, 101
1, 306001, Control_c, 0, 67, 103
1, 306016, Control_c, 0, 67, 104
1, 306031, Control_c, 0, 67, 106
1, 306045, Control_c, 0, 67, 107
1, 306060, Control_c, 0, 67, 108
1, 306075, Control_c, 0, 67, 108
1, 306119, Control_c, 0, 67, 109
1, 306132, Note_on_c, 0, 61, 44
1, 306164, Control_c, 0, 67, 108
1, 306178, Control_c, 0, 64, 36
1, 306193, Control_c, 0, 64, 43
1, 306193, Control_c, 0, 67, 108
1, 306208, Control_c, 0, 64, 54
1, 306211, Note_off_c, 0, 61, 0
1, 306211, Note_on_c, 0, 61, 16
1, 306223, Control_c, 0, 64, 62
1, 306223, Control_c, 0, 67, 107
1, 306237, Control_c, 0, 64, 69
1, 306237, Control_c, 0, 67, 106
1, 306252, Control_c, 0, 64, 77
1, 306252, Control_c, 0, 67, 106
1, 306267, Control_c, 0, 64, 87
1, 306267, Control_c, 0, 67, 105
1, 306282, Control_c, 0, 64, 93
1, 306297, Control_c, 0, 64, 98
1, 306297, Control_c, 0, 67, 105
1, 306312, Control_c, 0, 64, 109
1, 306312, Control_c, 0, 67, 103
1, 306327, Control_c, 0, 64, 127
1, 306327, Control_c, 0, 67, 103
1, 306357, Control_c, 0, 67, 102
1, 306359, Note_on_c, 0, 66, 55
1, 306371, Control_c, 0, 67, 101
1, 306386, Control_c, 0, 67, 101
1, 306431, Control_c, 0, 67, 100
1, 306445, Control_c, 0, 67, 100
1, 306449, Note_off_c, 0, 61, 41
1, 306456, Note_off_c, 0, 66, 62
1, 306460, Control_c, 0, 67, 99
1, 306475, Control_c, 0, 67, 97
1, 306479, Note_on_c, 0, 73, 68
1, 306489, Control_c, 0, 67, 95
1, 306504, Control_c, 0, 67, 95
1, 306509, Note_off_c, 0, 73, 65
1, 306519, Control_c, 0, 67, 93
1, 306534, Control_c, 0, 67, 90
1, 306549, Control_c, 0, 67, 85
1, 306554, Note_on_c, 0, 78, 72
1, 306563, Control_c, 0, 67, 77
1, 306578, Control_c, 0, 67, 67
1, 306594, Control_c, 0, 67, 53
1, 306609, Control_c, 0, 67, 40
1, 306624, Note_on_c, 0, 86, 70
1, 306624, Control_c, 0, 67, 31
1, 306625, Note_off_c, 0, 78, 64
1, 306639, Control_c, 0, 67, 25
1, 306654, Control_c, 0, 67, 22
1, 306676, Control_c, 0, 67, 20
1, 306690, Note_on_c, 0, 91, 83
1, 306690, Control_c, 0, 67, 19
1, 306709, Note_off_c, 0, 86, 64
1, 306720, Control_c, 0, 67, 19
1, 306747, Note_on_c, 0, 79, 68
1, 306747, Note_off_c, 0, 91, 66
1, 306765, Control_c, 0, 67, 20
1, 306780, Control_c, 0, 67, 24
1, 306794, Control_c, 0, 67, 29
1, 306809, Control_c, 0, 67, 33
1, 306824, Control_c, 0, 67, 40
1, 306837, Note_off_c, 0, 79, 65
1, 306839, Control_c, 0, 67, 51
1, 306849, Note_on_c, 0, 67, 76
1, 306854, Control_c, 0, 67, 64
1, 306868, Control_c, 0, 67, 77
1, 306883, Control_c, 0, 67, 90
1, 306898, Control_c, 0, 67, 103
1, 306912, Control_c, 0, 64, 119
1, 306912, Control_c, 0, 67, 108
1, 306927, Control_c, 0, 64, 101
1, 306927, Control_c, 0, 67, 111
1, 306942, Control_c, 0, 64, 92
1, 306942, Control_c, 0, 67, 113
1, 306957, Control_c, 0, 64, 85
1, 306957, Control_c, 0, 67, 115
1, 306972, Control_c, 0, 64, 77
1, 306972, Control_c, 0, 67, 118
1, 306987, Control_c, 0, 64, 70
1, 306987, Control_c, 0, 67, 121
1, 307001, Note_on_c, 0, 73, 78
1, 307001, Control_c, 0, 64, 62
1, 307001, Control_c, 0, 67, 123
1, 307016, Control_c, 0, 64, 52
1, 307016, Control_c, 0, 67, 125
1, 307031, Control_c, 0, 64, 30
1, 307031, Control_c, 0, 67, 126
1, 307046, Control_c, 0, 64, 0
1, 307046, Control_c, 0, 67, 127
1, 307060, Control_c, 0, 67, 127
1, 307119, Note_on_c, 0, 75, 83
1, 307120, Control_c, 0, 64, 10
1, 307135, Control_c, 0, 64, 43
1, 307150, Control_c, 0, 64, 56
1, 307150, Note_off_c, 0, 73, 63
1, 307164, Control_c, 0, 64, 59
1, 307194, Control_c, 0, 64, 55
1, 307209, Control_c, 0, 64, 41
1, 307224, Control_c, 0, 64, 0
1, 307235, Note_on_c, 0, 72, 68
1, 307257, Note_off_c, 0, 67, 28
1, 307294, Note_off_c, 0, 75, 64
1, 307326, Note_on_c, 0, 77, 62
1, 307362, Note_off_c, 0, 72, 63
1, 307461, Note_on_c, 0, 71, 60
1, 307516, Note_off_c, 0, 77, 65
1, 307558, Control_c, 0, 64, 25
1, 307573, Control_c, 0, 64, 42
1, 307588, Control_c, 0, 64, 53
1, 307603, Control_c, 0, 64, 57
1, 307617, Control_c, 0, 64, 59
1, 307632, Control_c, 0, 64, 60
1, 307647, Control_c, 0, 64, 62
1, 307647, Note_off_c, 0, 71, 34
1, 307662, Control_c, 0, 64, 63
1, 307677, Control_c, 0, 64, 64
1, 307691, Control_c, 0, 64, 64
1, 307721, Control_c, 0, 64, 65
1, 307736, Control_c, 0, 64, 65
1, 307751, Control_c, 0, 64, 66
1, 307884, Control_c, 0, 64, 65
1, 307914, Control_c, 0, 64, 64
1, 307929, Control_c, 0, 64, 63
1, 307943, Control_c, 0, 64, 60
1, 307958, Control_c, 0, 64, 56
1, 307971, Note_on_c, 0, 69, 40
1, 307973, Control_c, 0, 64, 49
1, 307988, Control_c, 0, 64, 38
1, 308003, Control_c, 0, 64, 12
1, 308017, Control_c, 0, 64, 0
1, 308058, Note_on_c, 0, 71, 39
1, 308096, Note_off_c, 0, 69, 49
1, 308278, Control_c, 0, 64, 25
1, 308292, Control_c, 0, 64, 41
1, 308307, Control_c, 0, 64, 49
1, 308322, Control_c, 0, 64, 53
1, 308337, Control_c, 0, 64, 55
1, 308352, Control_c, 0, 64, 57
1, 308366, Control_c, 0, 64, 60
1, 308381, Control_c, 0, 64, 62
1, 308396, Control_c, 0, 64, 63
1, 308411, Control_c, 0, 64, 65
1, 308426, Control_c, 0, 64, 66
1, 308440, Control_c, 0, 64, 67
1, 308455, Control_c, 0, 64, 69
1, 308470, Control_c, 0, 64, 70
1, 308485, Control_c, 0, 64, 72
1, 308500, Control_c, 0, 64, 74
1, 308515, Control_c, 0, 64, 76
1, 308522, Note_off_c, 0, 71, 35
1, 308530, Control_c, 0, 64, 78
1, 308545, Control_c, 0, 64, 79
1, 308559, Control_c, 0, 64, 80
1, 308574, Control_c, 0, 64, 81
1, 308589, Control_c, 0, 64, 81
1, 308604, Control_c, 0, 64, 82
1, 308619, Control_c, 0, 64, 82
1, 308633, Control_c, 0, 64, 83
1, 308648, Control_c, 0, 64, 84
1, 308663, Control_c, 0, 64, 84
1, 308678, Control_c, 0, 64, 85
1, 308722, Control_c, 0, 64, 85
1, 308737, Control_c, 0, 64, 86
1, 308796, Control_c, 0, 64, 86
1, 309042, Control_c, 0, 64, 85
1, 309057, Control_c, 0, 64, 82
1, 309071, Control_c, 0, 64, 79
1, 309086, Control_c, 0, 64, 75
1, 309101, Control_c, 0, 64, 69
1, 309111, Note_on_c, 0, 71, 22
1, 309115, Control_c, 0, 64, 64
1, 309130, Control_c, 0, 64, 57
1, 309145, Control_c, 0, 64, 48
1, 309160, Control_c, 0, 64, 41
1, 309175, Control_c, 0, 64, 38
1, 309189, Control_c, 0, 64, 39
1, 309204, Control_c, 0, 64, 40
1, 309219, Control_c, 0, 64, 41
1, 309233, Control_c, 0, 64, 44
1, 309248, Control_c, 0, 64, 50
1, 309262, Control_c, 0, 64, 55
1, 309277, Control_c, 0, 64, 58
1, 309292, Control_c, 0, 64, 61
1, 309306, Control_c, 0, 64, 62
1, 309321, Control_c, 0, 64, 64
1, 309336, Control_c, 0, 64, 66
1, 309351, Control_c, 0, 64, 69
1, 309366, Control_c, 0, 64, 71
1, 309378, Note_off_c, 0, 71, 34
1, 309380, Control_c, 0, 64, 74
1, 309395, Control_c, 0, 64, 76
1, 309410, Control_c, 0, 64, 79
1, 309425, Control_c, 0, 64, 81
1, 309440, Control_c, 0, 64, 82
1, 309454, Control_c, 0, 64, 84
1, 309469, Control_c, 0, 64, 85
1, 309484, Control_c, 0, 64, 87
1, 309499, Control_c, 0, 64, 88
1, 309513, Control_c, 0, 64, 89
1, 309528, Control_c, 0, 64, 90
1, 309543, Control_c, 0, 64, 92
1, 309558, Control_c, 0, 64, 94
1, 309573, Control_c, 0, 64, 95
1, 309603, Control_c, 0, 64, 96
1, 309648, Control_c, 0, 64, 96
1, 310115, Control_c, 0, 64, 96
1, 310129, Control_c, 0, 64, 95
1, 310144, Control_c, 0, 64, 95
1, 310159, Control_c, 0, 64, 94
1, 310174, Control_c, 0, 64, 94
1, 310189, Control_c, 0, 64, 93
1, 310203, Control_c, 0, 64, 93
1, 310218, Control_c, 0, 64, 92
1, 310233, Control_c, 0, 64, 91
1, 310248, Control_c, 0, 64, 90
1, 310262, Control_c, 0, 64, 90
1, 310277, Control_c, 0, 64, 88
1, 310292, Control_c, 0, 64, 86
1, 310307, Control_c, 0, 64, 84
1, 310322, Control_c, 0, 64, 80
1, 310336, Control_c, 0, 64, 75
1, 310351, Control_c, 0, 64, 69
1, 310366, Control_c, 0, 64, 64
1, 310381, Control_c, 0, 64, 60
1, 310396, Control_c, 0, 64, 53
1, 310418, Control_c, 0, 64, 45
1, 310433, Control_c, 0, 64, 35
1, 310448, Control_c, 0, 64, 22
1, 310462, Control_c, 0, 64, 0
1, 310521, Note_on_c, 0, 73, 36
1, 310612, Control_c, 0, 64, 19
1, 310612, Control_c, 0, 67, 126
1, 310627, Control_c, 0, 64, 30
1, 310627, Control_c, 0, 67, 124
1, 310641, Control_c, 0, 64, 43
1, 310641, Control_c, 0, 67, 121
1, 310656, Control_c, 0, 64, 54
1, 310656, Control_c, 0, 67, 119
1, 310671, Control_c, 0, 64, 60
1, 310671, Control_c, 0, 67, 117
1, 310686, Control_c, 0, 64, 63
1, 310686, Control_c, 0, 67, 114
1, 310701, Control_c, 0, 64, 64
1, 310701, Control_c, 0, 67, 111
1, 310715, Control_c, 0, 64, 67
1, 310715, Control_c, 0, 67, 105
1, 310731, Control_c, 0, 64, 71
1, 310731, Control_c, 0, 67, 100
1, 310737, Note_on_c, 0, 78, 58
1, 310746, Control_c, 0, 64, 77
1, 310746, Control_c, 0, 67, 95
1, 310760, Control_c, 0, 64, 84
1, 310760, Control_c, 0, 67, 93
1, 310775, Control_c, 0, 64, 89
1, 310775, Control_c, 0, 67, 90
1, 310790, Control_c, 0, 64, 92
1, 310790, Control_c, 0, 67, 88
1, 310805, Control_c, 0, 64, 98
1, 310805, Control_c, 0, 67, 84
1, 310820, Control_c, 0, 64, 107
1, 310820, Control_c, 0, 67, 77
1, 310834, Control_c, 0, 64, 127
1, 310834, Control_c, 0, 67, 70
1, 310849, Control_c, 0, 67, 63
1, 310858, Note_on_c, 0, 74, 67
1, 310864, Control_c, 0, 67, 58
1, 310879, Control_c, 0, 67, 51
1, 310894, Control_c, 0, 67, 44
1, 310902, Note_off_c, 0, 78, 60
1, 310908, Control_c, 0, 67, 35
1, 310923, Control_c, 0, 67, 31
1, 310938, Control_c, 0, 67, 30
1, 310950, Note_on_c, 0, 79, 75
1, 310961, Note_off_c, 0, 73, 39
1, 310968, Control_c, 0, 67, 31
1, 310983, Control_c, 0, 64, 94
1, 310983, Control_c, 0, 67, 32
1, 310987, Note_off_c, 0, 74, 65
1, 310998, Control_c, 0, 64, 69
1, 310998, Control_c, 0, 67, 32
1, 311013, Control_c, 0, 64, 47
1, 311013, Control_c, 0, 67, 33
1, 311027, Control_c, 0, 64, 0
1, 311033, Note_on_c, 0, 67, 77
1, 311042, Control_c, 0, 67, 33
1, 311057, Control_c, 0, 67, 32
1, 311072, Control_c, 0, 67, 31
1, 311076, Note_off_c, 0, 79, 58
1, 311086, Control_c, 0, 67, 29
1, 311101, Control_c, 0, 67, 24
1, 311105, Note_on_c, 0, 78, 74
1, 311116, Control_c, 0, 67, 12
1, 311126, Note_off_c, 0, 67, 60
1, 311131, Control_c, 0, 67, 0
1, 311146, Control_c, 0, 64, 35
1, 311168, Control_c, 0, 64, 43
1, 311183, Control_c, 0, 64, 50
1, 311198, Control_c, 0, 64, 61
1, 311212, Note_on_c, 0, 80, 85
1, 311213, Control_c, 0, 64, 68
1, 311227, Control_c, 0, 64, 73
1, 311242, Control_c, 0, 64, 78
1, 311257, Note_off_c, 0, 78, 60
1, 311257, Control_c, 0, 64, 85
1, 311272, Control_c, 0, 64, 98
1, 311286, Control_c, 0, 64, 127
1, 311293, Note_on_c, 0, 74, 81
1, 311329, Note_off_c, 0, 80, 63
1, 311346, Control_c, 0, 64, 102
1, 311360, Control_c, 0, 64, 78
1, 311375, Control_c, 0, 64, 61
1, 311375, Control_c, 0, 67, 13
1, 311377, Note_on_c, 0, 81, 90
1, 311391, Control_c, 0, 64, 31
1, 311391, Control_c, 0, 67, 26
1, 311403, Note_off_c, 0, 74, 66
1, 311406, Control_c, 0, 64, 0
1, 311406, Control_c, 0, 67, 44
1, 311421, Control_c, 0, 67, 64
1, 311436, Control_c, 0, 67, 80
1, 311451, Control_c, 0, 67, 95
1, 311460, Note_on_c, 0, 69, 75
1, 311465, Control_c, 0, 67, 108
1, 311479, Control_c, 0, 67, 116
1, 311494, Control_c, 0, 67, 122
1, 311508, Control_c, 0, 67, 126
1, 311523, Control_c, 0, 67, 127
1, 311564, Note_on_c, 0, 73, 67
1, 311565, Note_off_c, 0, 81, 57
1, 311627, Note_off_c, 0, 69, 55
1, 311710, Note_on_c, 0, 75, 67
1, 311854, Note_on_c, 0, 72, 57
1, 311858, Note_off_c, 0, 73, 51
1, 311892, Note_off_c, 0, 75, 58
1, 311983, Note_on_c, 0, 77, 56
1, 312058, Note_off_c, 0, 72, 34
1, 312100, Note_off_c, 0, 77, 61
1, 312110, Note_on_c, 0, 71, 49
1, 312199, Control_c, 0, 64, 9
1, 312213, Control_c, 0, 64, 29
1, 312228, Control_c, 0, 64, 36
1, 312243, Control_c, 0, 64, 41
1, 312258, Control_c, 0, 64, 48
1, 312273, Control_c, 0, 64, 54
1, 312287, Control_c, 0, 64, 57
1, 312302, Control_c, 0, 64, 61
1, 312317, Control_c, 0, 64, 64
1, 312331, Control_c, 0, 64, 65
1, 312341, Note_off_c, 0, 71, 42
1, 312346, Control_c, 0, 64, 67
1, 312361, Control_c, 0, 64, 68
1, 312376, Control_c, 0, 64, 70
1, 312391, Control_c, 0, 64, 72
1, 312405, Control_c, 0, 64, 74
1, 312420, Control_c, 0, 64, 74
1, 312465, Control_c, 0, 64, 72
1, 312479, Control_c, 0, 64, 68
1, 312494, Control_c, 0, 64, 62
1, 312509, Control_c, 0, 64, 46
1, 312512, Note_on_c, 0, 69, 43
1, 312524, Control_c, 0, 64, 0
1, 312572, Note_off_c, 0, 69, 47
1, 312587, Note_on_c, 0, 71, 39
1, 312739, Control_c, 0, 64, 23
1, 312754, Control_c, 0, 64, 39
1, 312769, Control_c, 0, 64, 48
1, 312783, Control_c, 0, 64, 52
1, 312798, Control_c, 0, 64, 55
1, 312813, Control_c, 0, 64, 59
1, 312828, Control_c, 0, 64, 62
1, 312843, Control_c, 0, 64, 64
1, 312857, Control_c, 0, 64, 66
1, 312872, Control_c, 0, 64, 68
1, 312887, Control_c, 0, 64, 70
1, 312902, Control_c, 0, 64, 73
1, 312917, Control_c, 0, 64, 76
1, 312931, Control_c, 0, 64, 78
1, 312946, Control_c, 0, 64, 81
1, 312961, Control_c, 0, 64, 83
1, 312977, Control_c, 0, 64, 86
1, 312992, Control_c, 0, 64, 89
1, 313004, Note_off_c, 0, 71, 30
1, 313007, Control_c, 0, 64, 92
1, 313022, Control_c, 0, 64, 94
1, 313036, Control_c, 0, 64, 96
1, 313051, Control_c, 0, 64, 99
1, 313066, Control_c, 0, 64, 101
1, 313081, Control_c, 0, 64, 102
1, 313125, Control_c, 0, 64, 103
1, 313140, Control_c, 0, 64, 104
1, 313154, Control_c, 0, 64, 104
1, 313193, Note_on_c, 0, 71, 48
1, 313228, Control_c, 0, 64, 105
1, 313258, Control_c, 0, 64, 104
1, 313540, Note_off_c, 0, 71, 27
1, 313970, Note_on_c, 0, 71, 30
1, 314266, Control_c, 0, 67, 125
1, 314281, Control_c, 0, 67, 122
1, 314296, Control_c, 0, 67, 118
1, 314310, Control_c, 0, 67, 114
1, 314325, Control_c, 0, 64, 105
1, 314325, Control_c, 0, 67, 110
1, 314340, Control_c, 0, 67, 106
1, 314355, Control_c, 0, 64, 105
1, 314355, Control_c, 0, 67, 102
1, 314370, Control_c, 0, 64, 106
1, 314370, Control_c, 0, 67, 101
1, 314384, Control_c, 0, 64, 106
1, 314384, Control_c, 0, 67, 101
1, 314396, Note_off_c, 0, 71, 27
1, 314399, Control_c, 0, 67, 100
1, 314414, Control_c, 0, 67, 101
1, 314429, Control_c, 0, 67, 104
1, 314444, Control_c, 0, 67, 106
1, 314459, Control_c, 0, 67, 108
1, 314489, Control_c, 0, 67, 109
1, 314503, Control_c, 0, 67, 110
1, 314518, Control_c, 0, 67, 111
1, 314533, Control_c, 0, 67, 112
1, 314548, Control_c, 0, 67, 113
1, 314563, Control_c, 0, 67, 114
1, 314579, Control_c, 0, 67, 116
1, 314594, Control_c, 0, 67, 119
1, 314608, Control_c, 0, 67, 120
1, 314623, Control_c, 0, 64, 106
1, 314623, Control_c, 0, 67, 121
1, 314638, Control_c, 0, 64, 105
1, 314653, Control_c, 0, 64, 103
1, 314653, Control_c, 0, 67, 121
1, 314668, Control_c, 0, 64, 101
1, 314668, Control_c, 0, 67, 123
1, 314682, Control_c, 0, 64, 99
1, 314682, Control_c, 0, 67, 124
1, 314697, Control_c, 0, 64, 97
1, 314712, Control_c, 0, 64, 94
1, 314727, Control_c, 0, 64, 90
1, 314727, Control_c, 0, 67, 125
1, 314742, Control_c, 0, 64, 86
1, 314742, Control_c, 0, 67, 126
1, 314757, Control_c, 0, 64, 81
1, 314757, Control_c, 0, 67, 127
1, 314772, Control_c, 0, 64, 74
1, 314787, Control_c, 0, 64, 67
1, 314801, Control_c, 0, 64, 61
1, 314816, Control_c, 0, 64, 51
1, 314831, Control_c, 0, 64, 38
1, 314846, Control_c, 0, 64, 0
1, 314855, Note_on_c, 0, 78, 49
1, 314986, Control_c, 0, 67, 125
1, 315001, Control_c, 0, 67, 123
1, 315016, Control_c, 0, 64, 36
1, 315016, Control_c, 0, 67, 122
1, 315031, Control_c, 0, 64, 50
1, 315031, Control_c, 0, 67, 119
1, 315046, Control_c, 0, 64, 59
1, 315046, Control_c, 0, 67, 117
1, 315052, Note_on_c, 0, 80, 63
1, 315060, Control_c, 0, 64, 65
1, 315060, Control_c, 0, 67, 115
1, 315075, Control_c, 0, 64, 68
1, 315075, Control_c, 0, 67, 114
1, 315090, Control_c, 0, 64, 72
1, 315105, Control_c, 0, 64, 78
1, 315105, Control_c, 0, 67, 113
1, 315120, Note_off_c, 0, 78, 31
1, 315120, Control_c, 0, 64, 86
1, 315120, Control_c, 0, 67, 113
1, 315134, Control_c, 0, 64, 91
1, 315134, Control_c, 0, 67, 112
1, 315149, Control_c, 0, 64, 94
1, 315162, Note_on_c, 0, 74, 57
1, 315163, Note_off_c, 0, 80, 55
1, 315164, Control_c, 0, 64, 96
1, 315164, Control_c, 0, 67, 113
1, 315179, Control_c, 0, 64, 98
1, 315179, Control_c, 0, 67, 113
1, 315194, Control_c, 0, 64, 98
1, 315194, Control_c, 0, 67, 114
1, 315208, Control_c, 0, 67, 115
1, 315222, Control_c, 0, 67, 117
1, 315237, Control_c, 0, 67, 119
1, 315252, Control_c, 0, 67, 122
1, 315253, Note_on_c, 0, 81, 57
1, 315267, Control_c, 0, 64, 97
1, 315267, Control_c, 0, 67, 123
1, 315270, Note_off_c, 0, 74, 60
1, 315281, Control_c, 0, 64, 92
1, 315281, Control_c, 0, 67, 124
1, 315296, Control_c, 0, 64, 84
1, 315296, Control_c, 0, 67, 126
1, 315311, Control_c, 0, 64, 73
1, 315311, Control_c, 0, 67, 127
1, 315323, Note_on_c, 0, 69, 57
1, 315326, Control_c, 0, 64, 60
1, 315341, Control_c, 0, 64, 38
1, 315356, Control_c, 0, 64, 0
1, 315358, Note_off_c, 0, 81, 56
1, 315418, Note_on_c, 0, 73, 61
1, 315494, Note_off_c, 0, 69, 19
1, 315508, Note_on_c, 0, 75, 65
1, 315535, Control_c, 0, 64, 45
1, 315541, Note_off_c, 0, 73, 61
1, 315549, Control_c, 0, 64, 57
1, 315564, Control_c, 0, 64, 60
1, 315579, Control_c, 0, 64, 63
1, 315586, Note_on_c, 0, 72, 68
1, 315594, Control_c, 0, 64, 67
1, 315609, Control_c, 0, 64, 75
1, 315618, Note_off_c, 0, 75, 63
1, 315623, Control_c, 0, 64, 89
1, 315638, Control_c, 0, 64, 100
1, 315660, Control_c, 0, 64, 103
1, 315666, Note_on_c, 0, 77, 68
1, 315684, Note_off_c, 0, 72, 62
1, 315720, Control_c, 0, 64, 98
1, 315735, Control_c, 0, 64, 83
1, 315736, Note_on_c, 0, 71, 60
1, 315745, Note_off_c, 0, 77, 64
1, 315749, Control_c, 0, 64, 67
1, 315764, Control_c, 0, 64, 43
1, 315779, Control_c, 0, 64, 0
1, 315798, Note_on_c, 0, 78, 74
1, 315809, Note_off_c, 0, 71, 58
1, 315868, Control_c, 0, 64, 44
1, 315878, Note_on_c, 0, 80, 80
1, 315882, Control_c, 0, 64, 64
1, 315882, Control_c, 0, 67, 120
1, 315897, Control_c, 0, 64, 69
1, 315897, Control_c, 0, 67, 110
1, 315912, Control_c, 0, 64, 73
1, 315912, Control_c, 0, 67, 106
1, 315919, Note_off_c, 0, 78, 58
1, 315927, Control_c, 0, 64, 76
1, 315927, Control_c, 0, 67, 102
1, 315942, Control_c, 0, 64, 79
1, 315942, Control_c, 0, 67, 97
1, 315946, Note_on_c, 0, 74, 67
1, 315956, Control_c, 0, 64, 83
1, 315956, Control_c, 0, 67, 92
1, 315967, Note_off_c, 0, 80, 62
1, 315971, Control_c, 0, 64, 89
1, 315971, Control_c, 0, 67, 86
1, 315986, Control_c, 0, 64, 95
1, 315986, Control_c, 0, 67, 78
1, 316001, Control_c, 0, 64, 99
1, 316001, Control_c, 0, 67, 73
1, 316015, Note_on_c, 0, 81, 74
1, 316016, Control_c, 0, 64, 100
1, 316016, Control_c, 0, 67, 69
1, 316030, Control_c, 0, 67, 67
1, 316045, Control_c, 0, 64, 100
1, 316052, Note_off_c, 0, 74, 64
1, 316060, Control_c, 0, 64, 99
1, 316074, Note_on_c, 0, 69, 77
1, 316074, Control_c, 0, 64, 91
1, 316089, Control_c, 0, 64, 78
1, 316104, Control_c, 0, 64, 61
1, 316119, Control_c, 0, 64, 0
1, 316119, Control_c, 0, 67, 68
1, 316134, Control_c, 0, 67, 69
1, 316148, Note_on_c, 0, 73, 75
1, 316164, Control_c, 0, 67, 69
1, 316174, Note_off_c, 0, 69, 60
1, 316194, Note_off_c, 0, 81, 55
1, 316194, Control_c, 0, 67, 70
1, 316209, Control_c, 0, 64, 23
1, 316209, Control_c, 0, 67, 70
1, 316224, Control_c, 0, 64, 67
1, 316224, Control_c, 0, 67, 71
1, 316234, Note_on_c, 0, 75, 83
1, 316239, Control_c, 0, 64, 79
1, 316239, Control_c, 0, 67, 70
1, 316245, Note_off_c, 0, 73, 65
1, 316253, Control_c, 0, 64, 89
1, 316268, Control_c, 0, 64, 97
1, 316268, Control_c, 0, 67, 71
1, 316283, Control_c, 0, 64, 102
1, 316283, Control_c, 0, 67, 71
1, 316297, Note_on_c, 0, 72, 64
1, 316298, Control_c, 0, 64, 108
1, 316298, Control_c, 0, 67, 72
1, 316313, Control_c, 0, 64, 119
1, 316328, Control_c, 0, 64, 127
1, 316331, Note_off_c, 0, 75, 63
1, 316366, Note_on_c, 0, 77, 62
1, 316372, Note_off_c, 0, 72, 62
1, 316372, Control_c, 0, 67, 71
1, 316387, Control_c, 0, 67, 71
1, 316409, Control_c, 0, 67, 70
1, 316424, Control_c, 0, 67, 69
1, 316425, Note_on_c, 0, 71, 69
1, 316429, Note_off_c, 0, 77, 64
1, 316439, Control_c, 0, 67, 67
1, 316453, Control_c, 0, 67, 65
1, 316465, Note_off_c, 0, 71, 60
1, 316468, Control_c, 0, 67, 63
1, 316483, Control_c, 0, 67, 56
1, 316498, Control_c, 0, 67, 46
1, 316503, Note_on_c, 0, 73, 85
1, 316513, Control_c, 0, 67, 36
1, 316527, Control_c, 0, 67, 26
1, 316542, Control_c, 0, 67, 16
1, 316557, Control_c, 0, 67, 0
1, 316567, Note_on_c, 0, 83, 88
1, 316569, Note_on_c, 0, 71, 79
1, 316575, Note_off_c, 0, 73, 65
1, 316589, Note_off_c, 0, 83, 68
1, 316589, Note_off_c, 0, 71, 69
1, 316620, Note_on_c, 0, 75, 98
1, 316682, Note_off_c, 0, 75, 66
1, 316688, Note_on_c, 0, 86, 95
1, 316691, Note_on_c, 0, 74, 88
1, 316716, Note_off_c, 0, 74, 66
1, 316724, Note_off_c, 0, 86, 67
1, 316749, Note_on_c, 0, 78, 102
1, 316810, Note_on_c, 0, 89, 98
1, 316812, Note_on_c, 0, 77, 93
1, 316815, Note_off_c, 0, 78, 64
1, 316839, Note_off_c, 0, 77, 65
1, 316845, Note_off_c, 0, 89, 67
1, 316868, Control_c, 0, 64, 110
1, 316872, Note_on_c, 0, 80, 101
1, 316883, Control_c, 0, 64, 72
1, 316897, Control_c, 0, 64, 45
1, 316912, Control_c, 0, 64, 0
1, 316935, Note_on_c, 0, 93, 98
1, 316939, Note_on_c, 0, 81, 93
1, 316950, Note_off_c, 0, 80, 57
1, 316966, Note_off_c, 0, 81, 67
1, 316969, Note_off_c, 0, 93, 66
1, 316973, Control_c, 0, 64, 34
1, 316987, Note_on_c, 0, 78, 103
1, 316988, Control_c, 0, 64, 63
1, 317002, Control_c, 0, 64, 73
1, 317017, Control_c, 0, 64, 84
1, 317032, Control_c, 0, 64, 93
1, 317032, Control_c, 0, 67, 10
1, 317043, Note_off_c, 0, 78, 62
1, 317047, Control_c, 0, 64, 96
1, 317047, Control_c, 0, 67, 12
1, 317053, Note_on_c, 0, 89, 93
1, 317055, Note_on_c, 0, 77, 86
1, 317062, Control_c, 0, 64, 97
1, 317062, Control_c, 0, 67, 15
1, 317076, Note_off_c, 0, 77, 70
1, 317076, Control_c, 0, 64, 98
1, 317076, Control_c, 0, 67, 19
1, 317078, Note_off_c, 0, 89, 63
1, 317091, Control_c, 0, 67, 27
1, 317106, Control_c, 0, 64, 97
1, 317106, Control_c, 0, 67, 37
1, 317112, Note_on_c, 0, 75, 86
1, 317121, Control_c, 0, 64, 82
1, 317121, Control_c, 0, 67, 47
1, 317136, Control_c, 0, 64, 65
1, 317136, Control_c, 0, 67, 59
1, 317158, Control_c, 0, 64, 33
1, 317158, Control_c, 0, 67, 69
1, 317173, Control_c, 0, 64, 0
1, 317173, Control_c, 0, 67, 79
1, 317180, Note_on_c, 0, 74, 68
1, 317180, Note_off_c, 0, 75, 63
1, 317183, Note_on_c, 0, 86, 61
1, 317188, Control_c, 0, 67, 87
1, 317189, Note_on_c, 0, 88, 53
1, 317196, Note_off_c, 0, 74, 66
1, 317201, Note_off_c, 0, 86, 63
1, 317202, Control_c, 0, 67, 96
1, 317212, Note_off_c, 0, 88, 39
1, 317217, Control_c, 0, 67, 101
1, 317232, Control_c, 0, 67, 105
1, 317247, Control_c, 0, 67, 106
1, 317258, Note_on_c, 0, 78, 73
1, 317261, Control_c, 0, 67, 107
1, 317276, Control_c, 0, 67, 108
1, 317291, Control_c, 0, 67, 108
1, 317321, Control_c, 0, 64, 27
1, 317335, Note_off_c, 0, 78, 62
1, 317335, Control_c, 0, 64, 57
1, 317338, Note_on_c, 0, 80, 69
1, 317350, Control_c, 0, 64, 62
1, 317365, Control_c, 0, 64, 64
1, 317380, Control_c, 0, 64, 65
1, 317391, Note_on_c, 0, 74, 61
1, 317395, Control_c, 0, 64, 66
1, 317407, Note_off_c, 0, 80, 62
1, 317450, Note_off_c, 0, 74, 65
1, 317454, Control_c, 0, 64, 64
1, 317462, Note_on_c, 0, 81, 60
1, 317469, Control_c, 0, 64, 59
1, 317469, Control_c, 0, 67, 109
1, 317484, Control_c, 0, 64, 46
1, 317499, Control_c, 0, 64, 0
1, 317520, Note_on_c, 0, 69, 67
1, 317559, Note_off_c, 0, 81, 54
1, 317571, Note_off_c, 0, 69, 60
1, 317573, Control_c, 0, 67, 108
1, 317588, Control_c, 0, 67, 108
1, 317593, Note_on_c, 0, 73, 69
1, 317602, Control_c, 0, 67, 107
1, 317617, Control_c, 0, 67, 106
1, 317632, Control_c, 0, 64, 46
1, 317632, Control_c, 0, 67, 105
1, 317646, Note_off_c, 0, 73, 64
1, 317646, Control_c, 0, 64, 64
1, 317646, Control_c, 0, 67, 105
1, 317651, Note_on_c, 0, 75, 70
1, 317661, Control_c, 0, 64, 66
1, 317661, Control_c, 0, 67, 103
1, 317676, Control_c, 0, 67, 103
1, 317690, Note_on_c, 0, 72, 61
1, 317691, Control_c, 0, 64, 66
1, 317691, Control_c, 0, 67, 101
1, 317706, Control_c, 0, 64, 68
1, 317706, Control_c, 0, 67, 100
1, 317714, Note_off_c, 0, 75, 64
1, 317720, Control_c, 0, 64, 70
1, 317720, Control_c, 0, 67, 98
1, 317735, Control_c, 0, 64, 74
1, 317735, Control_c, 0, 67, 97
1, 317750, Control_c, 0, 64, 75
1, 317750, Control_c, 0, 67, 95
1, 317752, Note_off_c, 0, 72, 63
1, 317760, Note_on_c, 0, 77, 63
1, 317766, Control_c, 0, 67, 93
1, 317781, Control_c, 0, 64, 71
1, 317781, Control_c, 0, 67, 89
1, 317796, Control_c, 0, 64, 60
1, 317796, Control_c, 0, 67, 83
1, 317804, Note_on_c, 0, 71, 72
1, 317807, Note_off_c, 0, 77, 65
1, 317811, Control_c, 0, 64, 0
1, 317811, Control_c, 0, 67, 77
1, 317825, Control_c, 0, 67, 66
1, 317840, Control_c, 0, 67, 50
1, 317844, Note_off_c, 0, 71, 62
1, 317855, Control_c, 0, 67, 31
1, 317870, Control_c, 0, 64, 50
1, 317870, Control_c, 0, 67, 9
1, 317877, Note_on_c, 0, 73, 87
1, 317885, Control_c, 0, 64, 65
1, 317885, Control_c, 0, 67, 0
1, 317907, Control_c, 0, 64, 74
1, 317922, Control_c, 0, 64, 81
1, 317937, Control_c, 0, 64, 86
1, 317946, Note_on_c, 0, 83, 91
1, 317946, Note_off_c, 0, 73, 65
1, 317948, Note_on_c, 0, 71, 84
1, 317951, Control_c, 0, 64, 89
1, 317966, Control_c, 0, 64, 91
1, 317969, Note_off_c, 0, 71, 71
1, 317975, Note_off_c, 0, 83, 64
1, 317981, Control_c, 0, 64, 92
1, 317996, Control_c, 0, 64, 92
1, 318004, Note_on_c, 0, 75, 97
1, 318025, Control_c, 0, 64, 93
1, 318040, Control_c, 0, 64, 95
1, 318054, Note_off_c, 0, 75, 69
1, 318055, Control_c, 0, 64, 97
1, 318063, Note_on_c, 0, 86, 97
1, 318065, Note_on_c, 0, 74, 88
1, 318070, Control_c, 0, 64, 99
1, 318084, Control_c, 0, 64, 101
1, 318085, Note_off_c, 0, 74, 71
1, 318099, Control_c, 0, 64, 101
1, 318101, Note_off_c, 0, 86, 63
1, 318114, Control_c, 0, 64, 102
1, 318122, Note_on_c, 0, 78, 100
1, 318144, Control_c, 0, 64, 101
1, 318158, Control_c, 0, 64, 86
1, 318173, Control_c, 0, 64, 64
1, 318176, Note_off_c, 0, 78, 63
1, 318180, Note_on_c, 0, 89, 97
1, 318182, Note_on_c, 0, 77, 95
1, 318188, Control_c, 0, 64, 32
1, 318203, Control_c, 0, 64, 0
1, 318207, Note_off_c, 0, 77, 68
1, 318221, Note_off_c, 0, 89, 64
1, 318233, Note_on_c, 0, 80, 95
1, 318233, Control_c, 0, 64, 45
1, 318248, Control_c, 0, 64, 66
1, 318263, Control_c, 0, 64, 81
1, 318277, Control_c, 0, 64, 92
1, 318289, Note_off_c, 0, 80, 65
1, 318292, Control_c, 0, 64, 101
1, 318294, Note_on_c, 0, 93, 106
1, 318297, Note_on_c, 0, 81, 95
1, 318307, Control_c, 0, 64, 107
1, 318320, Note_off_c, 0, 81, 68
1, 318322, Control_c, 0, 64, 112
1, 318327, Note_off_c, 0, 93, 65
1, 318337, Control_c, 0, 64, 117
1, 318344, Note_on_c, 0, 78, 100
1, 318352, Control_c, 0, 64, 119
1, 318383, Note_off_c, 0, 78, 65
1, 318400, Note_on_c, 0, 89, 95
1, 318401, Note_on_c, 0, 77, 92
1, 318411, Control_c, 0, 64, 120
1, 318425, Note_off_c, 0, 77, 67
1, 318426, Control_c, 0, 64, 124
1, 318439, Note_off_c, 0, 89, 63
1, 318441, Control_c, 0, 64, 127
1, 318456, Note_on_c, 0, 75, 94
1, 318500, Control_c, 0, 64, 119
1, 318504, Note_off_c, 0, 75, 65
1, 318515, Control_c, 0, 64, 99
1, 318516, Note_on_c, 0, 74, 82
1, 318517, Note_on_c, 0, 86, 89
1, 318530, Control_c, 0, 64, 78
1, 318537, Note_off_c, 0, 74, 70
1, 318541, Note_off_c, 0, 86, 66
1, 318544, Control_c, 0, 64, 66
1, 318559, Control_c, 0, 64, 60
1, 318569, Note_on_c, 0, 80, 97
1, 318575, Control_c, 0, 64, 63
1, 318590, Control_c, 0, 64, 69
1, 318605, Control_c, 0, 64, 76
1, 318608, Note_on_c, 0, 74, 19
1, 318609, Note_off_c, 0, 74, 127
1, 318620, Control_c, 0, 64, 83
1, 318624, Note_off_c, 0, 80, 66
1, 318626, Note_on_c, 0, 93, 101
1, 318630, Note_on_c, 0, 81, 93
1, 318635, Control_c, 0, 64, 87
1, 318656, Control_c, 0, 64, 88
1, 318657, Note_off_c, 0, 93, 64
1, 318658, Note_off_c, 0, 81, 70
1, 318671, Control_c, 0, 64, 89
1, 318686, Control_c, 0, 64, 90
1, 318689, Note_on_c, 0, 78, 101
1, 318701, Control_c, 0, 64, 90
1, 318715, Control_c, 0, 64, 92
1, 318730, Control_c, 0, 64, 92
1, 318733, Note_off_c, 0, 78, 63
1, 318738, Note_on_c, 0, 77, 94
1, 318739, Note_on_c, 0, 89, 97
1, 318745, Control_c, 0, 64, 93
1, 318760, Control_c, 0, 64, 93
1, 318766, Note_off_c, 0, 77, 65
1, 318772, Note_off_c, 0, 89, 63
1, 318775, Control_c, 0, 64, 94
1, 318790, Control_c, 0, 64, 95
1, 318797, Note_on_c, 0, 75, 93
1, 318805, Control_c, 0, 64, 96
1, 318849, Note_on_c, 0, 74, 86
1, 318851, Note_on_c, 0, 86, 95
1, 318851, Note_off_c, 0, 75, 66
1, 318870, Note_off_c, 0, 74, 72
1, 318884, Note_off_c, 0, 86, 60
1, 318907, Note_on_c, 0, 80, 96
1, 318908, Control_c, 0, 64, 96
1, 318923, Control_c, 0, 64, 99
1, 318938, Control_c, 0, 64, 101
1, 318953, Control_c, 0, 64, 102
1, 318963, Note_on_c, 0, 93, 98
1, 318963, Note_off_c, 0, 80, 65
1, 318966, Note_on_c, 0, 81, 90
1, 318968, Control_c, 0, 64, 102
1, 318980, Note_off_c, 0, 93, 70
1, 318982, Control_c, 0, 64, 103
1, 318986, Note_off_c, 0, 81, 71
1, 318997, Control_c, 0, 64, 104
1, 319012, Control_c, 0, 64, 105
1, 319014, Note_on_c, 0, 78, 95
1, 319027, Control_c, 0, 64, 106
1, 319042, Control_c, 0, 64, 107
1, 319056, Control_c, 0, 64, 107
1, 319057, Note_off_c, 0, 78, 64
1, 319070, Note_on_c, 0, 89, 89
1, 319070, Note_on_c, 0, 77, 87
1, 319071, Control_c, 0, 64, 110
1, 319086, Control_c, 0, 64, 115
1, 319091, Note_off_c, 0, 77, 70
1, 319095, Note_off_c, 0, 89, 61
1, 319100, Control_c, 0, 64, 127
1, 319121, Note_on_c, 0, 75, 86
1, 319174, Note_off_c, 0, 75, 65
1, 319183, Note_on_c, 0, 74, 81
1, 319189, Control_c, 0, 64, 113
1, 319192, Note_on_c, 0, 86, 64
1, 319198, Note_on_c, 0, 84, 69
1, 319204, Control_c, 0, 64, 83
1, 319205, Note_off_c, 0, 74, 69
1, 319210, Note_off_c, 0, 86, 66
1, 319214, Note_off_c, 0, 84, 67
1, 319219, Control_c, 0, 64, 58
1, 319234, Control_c, 0, 64, 0
1, 319247, Note_on_c, 0, 73, 83
1, 319299, Note_off_c, 0, 73, 66
1, 319307, Note_on_c, 0, 71, 75
1, 319307, Note_on_c, 0, 83, 79
1, 319308, Control_c, 0, 64, 52
1, 319323, Control_c, 0, 64, 68
1, 319329, Note_off_c, 0, 71, 65
1, 319330, Note_off_c, 0, 83, 70
1, 319338, Control_c, 0, 64, 77
1, 319353, Control_c, 0, 64, 80
1, 319359, Note_on_c, 0, 75, 97
1, 319368, Control_c, 0, 64, 81
1, 319420, Control_c, 0, 64, 76
1, 319422, Note_off_c, 0, 75, 67
1, 319425, Note_on_c, 0, 86, 91
1, 319428, Note_on_c, 0, 74, 83
1, 319435, Control_c, 0, 64, 65
1, 319450, Note_off_c, 0, 74, 71
1, 319450, Control_c, 0, 64, 36
1, 319455, Note_off_c, 0, 86, 64
1, 319465, Control_c, 0, 64, 0
1, 319479, Note_on_c, 0, 78, 104
1, 319533, Note_off_c, 0, 78, 64
1, 319538, Note_on_c, 0, 89, 92
1, 319541, Note_on_c, 0, 77, 92
1, 319562, Note_off_c, 0, 77, 71
1, 319574, Note_off_c, 0, 89, 64
1, 319589, Note_on_c, 0, 80, 99
1, 319628, Control_c, 0, 64, 51
1, 319643, Control_c, 0, 64, 79
1, 319646, Note_on_c, 0, 93, 101
1, 319648, Note_on_c, 0, 81, 92
1, 319648, Note_off_c, 0, 80, 66
1, 319657, Control_c, 0, 64, 99
1, 319672, Control_c, 0, 64, 127
1, 319672, Note_off_c, 0, 81, 66
1, 319681, Note_off_c, 0, 93, 64
1, 319693, Note_on_c, 0, 78, 97
1, 319736, Note_off_c, 0, 78, 65
1, 319746, Note_on_c, 0, 77, 94
1, 319746, Note_on_c, 0, 89, 93
1, 319769, Note_off_c, 0, 77, 69
1, 319775, Control_c, 0, 64, 108
1, 319778, Note_off_c, 0, 89, 63
1, 319789, Control_c, 0, 64, 73
1, 319803, Note_on_c, 0, 75, 88
1, 319804, Control_c, 0, 64, 53
1, 319819, Control_c, 0, 64, 0
1, 319851, Note_off_c, 0, 75, 65
1, 319851, Note_on_c, 0, 74, 88
1, 319854, Note_on_c, 0, 86, 90
1, 319872, Note_off_c, 0, 74, 70
1, 319875, Note_off_c, 0, 86, 69
1, 319914, Note_on_c, 0, 73, 85
1, 319962, Note_off_c, 0, 73, 66
1, 319964, Note_on_c, 0, 71, 80
1, 319964, Note_on_c, 0, 83, 88
1, 319986, Note_off_c, 0, 71, 69
1, 319990, Note_off_c, 0, 83, 67
1, 320022, Note_on_c, 0, 75, 91
1, 320076, Note_off_c, 0, 75, 66
1, 320078, Note_on_c, 0, 74, 90
1, 320080, Note_on_c, 0, 86, 88
1, 320102, Note_off_c, 0, 74, 69
1, 320108, Note_off_c, 0, 86, 65
1, 320132, Note_on_c, 0, 78, 104
1, 320199, Note_on_c, 0, 89, 96
1, 320200, Note_on_c, 0, 77, 93
1, 320200, Note_off_c, 0, 78, 64
1, 320225, Note_off_c, 0, 77, 67
1, 320235, Note_off_c, 0, 89, 66
1, 320249, Note_on_c, 0, 80, 97
1, 320272, Control_c, 0, 64, 41
1, 320287, Control_c, 0, 64, 63
1, 320301, Control_c, 0, 64, 65
1, 320308, Note_on_c, 0, 93, 101
1, 320310, Note_off_c, 0, 80, 66
1, 320313, Note_on_c, 0, 81, 90
1, 320316, Control_c, 0, 64, 65
1, 320331, Control_c, 0, 64, 65
1, 320335, Note_off_c, 0, 81, 68
1, 320342, Note_off_c, 0, 93, 65
1, 320346, Control_c, 0, 64, 62
1, 320357, Note_on_c, 0, 78, 100
1, 320361, Control_c, 0, 64, 49
1, 320376, Control_c, 0, 64, 0
1, 320401, Note_off_c, 0, 78, 64
1, 320408, Note_on_c, 0, 77, 91
1, 320412, Note_on_c, 0, 89, 89
1, 320434, Note_off_c, 0, 77, 66
1, 320443, Note_off_c, 0, 89, 63
1, 320469, Note_on_c, 0, 75, 88
1, 320517, Note_on_c, 0, 74, 88
1, 320517, Note_off_c, 0, 75, 65
1, 320522, Note_on_c, 0, 86, 88
1, 320537, Note_off_c, 0, 74, 71
1, 320549, Note_off_c, 0, 86, 65
1, 320587, Note_on_c, 0, 80, 76
1, 320599, Control_c, 0, 64, 36
1, 320613, Control_c, 0, 64, 0
1, 320631, Note_off_c, 0, 80, 62
1, 320644, Note_on_c, 0, 93, 84
1, 320649, Note_on_c, 0, 81, 76
1, 320663, Note_off_c, 0, 93, 71
1, 320665, Note_off_c, 0, 81, 70
1, 320701, Note_on_c, 0, 78, 80
1, 320734, Note_off_c, 0, 78, 62
1, 320751, Note_on_c, 0, 89, 82
1, 320753, Note_on_c, 0, 77, 72
1, 320778, Note_off_c, 0, 89, 63
1, 320780, Note_off_c, 0, 77, 69
1, 320812, Note_on_c, 0, 75, 70
1, 320849, Note_off_c, 0, 75, 64
1, 320860, Note_on_c, 0, 74, 77
1, 320864, Note_on_c, 0, 86, 78
1, 320884, Note_off_c, 0, 74, 69
1, 320899, Note_off_c, 0, 86, 65
1, 320928, Note_on_c, 0, 80, 84
1, 320978, Note_off_c, 0, 80, 64
1, 320988, Note_on_c, 0, 93, 102
1, 320991, Note_on_c, 0, 81, 88
1, 321007, Control_c, 0, 64, 41
1, 321018, Note_off_c, 0, 81, 67
1, 321022, Note_off_c, 0, 93, 67
1, 321022, Control_c, 0, 64, 12
1, 321032, Note_on_c, 0, 78, 103
1, 321037, Control_c, 0, 64, 0
1, 321079, Note_off_c, 0, 78, 65
1, 321095, Note_on_c, 0, 77, 90
1, 321096, Note_on_c, 0, 89, 94
1, 321121, Note_off_c, 0, 77, 67
1, 321123, Note_off_c, 0, 89, 63
1, 321136, Note_on_c, 0, 88, 31
1, 321137, Note_off_c, 0, 88, 127
1, 321144, Note_on_c, 0, 75, 91
1, 321193, Note_off_c, 0, 75, 66
1, 321200, Note_on_c, 0, 74, 92
1, 321204, Note_on_c, 0, 86, 95
1, 321222, Note_off_c, 0, 74, 70
1, 321245, Note_off_c, 0, 86, 64
1, 321252, Note_on_c, 0, 80, 92
1, 321307, Note_off_c, 0, 80, 64
1, 321314, Note_on_c, 0, 81, 93
1, 321315, Note_on_c, 0, 93, 92
1, 321330, Note_on_c, 0, 95, 64
1, 321338, Note_off_c, 0, 81, 69
1, 321340, Note_off_c, 0, 93, 65
1, 321350, Note_off_c, 0, 95, 44
1, 321357, Note_on_c, 0, 78, 97
1, 321401, Note_off_c, 0, 78, 65
1, 321414, Note_on_c, 0, 89, 94
1, 321415, Note_on_c, 0, 77, 91
1, 321443, Note_off_c, 0, 77, 65
1, 321453, Note_off_c, 0, 89, 64
1, 321463, Note_on_c, 0, 75, 87
1, 321515, Note_off_c, 0, 75, 66
1, 321518, Note_on_c, 0, 74, 88
1, 321521, Note_on_c, 0, 86, 90
1, 321540, Note_off_c, 0, 74, 69
1, 321565, Note_off_c, 0, 86, 64
1, 321580, Note_on_c, 0, 80, 95
1, 321613, Control_c, 0, 64, 40
1, 321628, Control_c, 0, 64, 68
1, 321643, Note_on_c, 0, 93, 93
1, 321646, Note_on_c, 0, 81, 89
1, 321648, Note_off_c, 0, 80, 64
1, 321650, Control_c, 0, 64, 74
1, 321663, Note_off_c, 0, 93, 65
1, 321665, Control_c, 0, 64, 77
1, 321666, Note_off_c, 0, 81, 71
1, 321680, Control_c, 0, 64, 82
1, 321694, Note_on_c, 0, 78, 91
1, 321694, Control_c, 0, 64, 88
1, 321709, Control_c, 0, 64, 101
1, 321724, Control_c, 0, 64, 127
1, 321747, Note_on_c, 0, 89, 88
1, 321754, Note_on_c, 0, 77, 76
1, 321759, Note_off_c, 0, 78, 61
1, 321772, Note_off_c, 0, 89, 66
1, 321778, Note_off_c, 0, 77, 66
1, 321796, Note_on_c, 0, 75, 82
1, 321854, Note_off_c, 0, 75, 65
1, 321866, Note_on_c, 0, 86, 83
1, 321866, Note_on_c, 0, 74, 74
1, 321889, Note_off_c, 0, 86, 69
1, 321890, Note_off_c, 0, 74, 66
1, 321929, Note_on_c, 0, 75, 91
1, 321981, Note_on_c, 0, 89, 85
1, 321984, Note_on_c, 0, 77, 78
1, 322001, Note_off_c, 0, 89, 69
1, 322007, Note_off_c, 0, 77, 70
1, 322017, Poly_aftertouch_c, 0, 86, 0
1, 322036, Note_on_c, 0, 78, 87
1, 322072, Note_off_c, 0, 75, 64
1, 322089, Note_on_c, 0, 93, 95
1, 322095, Note_on_c, 0, 81, 78
1, 322118, Note_off_c, 0, 81, 69
1, 322120, Note_off_c, 0, 93, 64
1, 322123, Note_off_c, 0, 78, 62
1, 322146, Note_on_c, 0, 80, 89
1, 322198, Note_on_c, 0, 95, 95
1, 322201, Note_on_c, 0, 83, 93
1, 322205, Note_off_c, 0, 80, 64
1, 322225, Note_off_c, 0, 83, 67
1, 322236, Note_off_c, 0, 95, 68
1, 322268, Note_on_c, 0, 82, 90
1, 322313, Note_off_c, 0, 82, 65
1, 322319, Note_on_c, 0, 98, 97
1, 322323, Note_on_c, 0, 86, 90
1, 322347, Note_off_c, 0, 86, 66
1, 322360, Note_off_c, 0, 98, 65
1, 322390, Note_on_c, 0, 85, 90
1, 322446, Note_off_c, 0, 85, 63
1, 322448, Note_on_c, 0, 101, 99
1, 322451, Note_on_c, 0, 89, 98
1, 322489, Note_off_c, 0, 89, 66
1, 322498, Note_off_c, 0, 101, 66
1, 322517, Note_on_c, 0, 87, 96
1, 322583, Note_off_c, 0, 87, 64
1, 322585, Note_on_c, 0, 105, 103
1, 322588, Note_on_c, 0, 93, 105
1, 322632, Note_off_c, 0, 93, 64
1, 322650, Note_off_c, 0, 105, 64
1, 322668, Note_on_c, 0, 90, 97
1, 322737, Note_off_c, 0, 90, 66
1, 322746, Note_on_c, 0, 107, 103
1, 322747, Note_on_c, 0, 95, 100
1, 322792, Note_off_c, 0, 95, 67
1, 322797, Note_off_c, 0, 107, 64
1, 322802, Note_on_c, 0, 87, 84
1, 322861, Note_off_c, 0, 87, 66
1, 322871, Note_on_c, 0, 105, 95
1, 322873, Note_on_c, 0, 93, 92
1, 322889, Note_on_c, 0, 103, 72
1, 322901, Note_off_c, 0, 105, 65
1, 322903, Note_off_c, 0, 93, 64
1, 322906, Note_off_c, 0, 103, 42
1, 322920, Note_on_c, 0, 85, 86
1, 322961, Note_off_c, 0, 85, 61
1, 322977, Note_on_c, 0, 101, 96
1, 322978, Note_on_c, 0, 89, 95
1, 323000, Note_off_c, 0, 89, 67
1, 323001, Note_off_c, 0, 101, 64
1, 323029, Note_on_c, 0, 82, 90
1, 323068, Note_off_c, 0, 82, 65
1, 323079, Note_on_c, 0, 98, 102
1, 323080, Note_on_c, 0, 86, 94
1, 323104, Note_off_c, 0, 86, 66
1, 323104, Note_off_c, 0, 98, 61
1, 323121, Note_on_c, 0, 80, 89
1, 323169, Note_off_c, 0, 80, 65
1, 323187, Note_on_c, 0, 95, 98
1, 323188, Note_on_c, 0, 83, 97
1, 323212, Note_off_c, 0, 83, 66
1, 323219, Note_off_c, 0, 95, 69
1, 323232, Note_on_c, 0, 78, 88
1, 323288, Note_on_c, 0, 79, 97
1, 323289, Note_off_c, 0, 78, 63
1, 323292, Note_on_c, 0, 93, 84
1, 323294, Note_on_c, 0, 91, 86
1, 323308, Note_on_c, 0, 81, 60
1, 323309, Note_off_c, 0, 81, 127
1, 323310, Note_off_c, 0, 93, 72
1, 323318, Note_off_c, 0, 79, 65
1, 323318, Note_off_c, 0, 91, 68
1, 323330, Note_on_c, 0, 75, 79
1, 323355, Note_off_c, 0, 75, 69
1, 323392, Note_on_c, 0, 76, 89
1, 323392, Note_on_c, 0, 89, 84
1, 323396, Note_on_c, 0, 77, 84
1, 323403, Note_on_c, 0, 88, 76
1, 323411, Note_off_c, 0, 89, 72
1, 323414, Note_off_c, 0, 76, 67
1, 323417, Note_off_c, 0, 77, 71
1, 323418, Note_off_c, 0, 88, 71
1, 323447, Note_on_c, 0, 73, 82
1, 323487, Note_off_c, 0, 73, 64
1, 323488, Note_on_c, 0, 72, 92
1, 323497, Note_on_c, 0, 84, 81
1, 323497, Note_on_c, 0, 86, 81
1, 323500, Note_on_c, 0, 74, 74
1, 323510, Note_off_c, 0, 72, 69
1, 323515, Note_off_c, 0, 74, 68
1, 323518, Note_off_c, 0, 86, 69
1, 323519, Note_off_c, 0, 84, 69
1, 323536, Note_on_c, 0, 70, 95
1, 323571, Note_off_c, 0, 70, 66
1, 323588, Note_on_c, 0, 83, 94
1, 323604, Note_on_c, 0, 71, 65
1, 323607, Note_on_c, 0, 86, 5
1, 323610, Note_on_c, 0, 69, 67
1, 323624, Note_off_c, 0, 71, 65
1, 323628, Note_off_c, 0, 69, 67
1, 323631, Note_off_c, 0, 83, 65
1, 323657, Poly_aftertouch_c, 0, 84, 0
1, 323660, Note_off_c, 0, 86, 31
1, 323694, Note_on_c, 0, 61, 29
1, 323711, Control_c, 0, 64, 68
1, 323726, Note_off_c, 0, 61, 48
1, 323726, Control_c, 0, 64, 0
1, 323771, Control_c, 0, 64, 46
1, 323786, Control_c, 0, 64, 75
1, 323789, Note_on_c, 0, 66, 80
1, 323791, Note_on_c, 0, 65, 84
1, 323792, Note_on_c, 0, 61, 77
1, 323795, Note_on_c, 0, 81, 100
1, 323797, Note_on_c, 0, 74, 98
1, 323798, Note_on_c, 0, 77, 98
1, 323801, Control_c, 0, 64, 127
1, 323810, Note_on_c, 0, 62, 78
1, 323821, Note_off_c, 0, 77, 67
1, 323827, Note_off_c, 0, 74, 63
1, 323840, Note_off_c, 0, 81, 66
1, 323848, Note_on_c, 0, 63, 9
1, 323901, Note_off_c, 0, 63, 27
1, 323911, Note_on_c, 0, 69, 75
1, 323916, Note_off_c, 0, 62, 61
1, 323918, Note_off_c, 0, 65, 63
1, 323926, Note_off_c, 0, 61, 62
1, 323934, Note_off_c, 0, 66, 64
1, 323947, Note_on_c, 0, 74, 71
1, 323949, Note_on_c, 0, 86, 81
1, 323954, Note_off_c, 0, 69, 63
1, 323962, Note_off_c, 0, 86, 71
1, 323963, Note_off_c, 0, 74, 67
1, 324011, Note_on_c, 0, 61, 58
1, 324017, Note_on_c, 0, 65, 70
1, 324038, Note_on_c, 0, 66, 54
1, 324045, Note_on_c, 0, 88, 80
1, 324049, Note_on_c, 0, 62, 45
1, 324051, Note_on_c, 0, 76, 71
1, 324055, Note_on_c, 0, 89, 69
1, 324068, Note_off_c, 0, 66, 50
1, 324068, Note_off_c, 0, 76, 67
1, 324069, Note_on_c, 0, 77, 40
1, 324071, Note_off_c, 0, 88, 68
1, 324074, Note_off_c, 0, 89, 41
1, 324075, Note_off_c, 0, 62, 57
1, 324083, Note_off_c, 0, 61, 62
1, 324083, Note_off_c, 0, 65, 60
1, 324094, Note_off_c, 0, 77, 60
1, 324100, Note_on_c, 0, 69, 82
1, 324127, Note_on_c, 0, 93, 111
1, 324130, Note_on_c, 0, 81, 103
1, 324140, Note_off_c, 0, 93, 77
1, 324144, Note_off_c, 0, 81, 77
1, 324151, Note_on_c, 0, 92, 58
1, 324152, Note_off_c, 0, 92, 127
1, 324159, Note_off_c, 0, 69, 63
1, 324176, Note_on_c, 0, 61, 79
1, 324204, Note_on_c, 0, 65, 60
1, 324229, Note_on_c, 0, 62, 26
1, 324248, Note_on_c, 0, 66, 68
1, 324260, Note_off_c, 0, 62, 57
1, 324264, Note_off_c, 0, 65, 60
1, 324265, Note_off_c, 0, 61, 61
1, 324278, Note_on_c, 0, 69, 76
1, 324303, Note_off_c, 0, 66, 63
1, 324305, Note_off_c, 0, 69, 67
1, 324405, Note_on_c, 0, 69, 72
1, 324409, Note_on_c, 0, 65, 75
1, 324419, Note_on_c, 0, 62, 55
1, 324420, Note_off_c, 0, 62, 127
1, 324429, Note_off_c, 0, 69, 68
1, 324433, Note_off_c, 0, 65, 64
1, 324478, Note_on_c, 0, 61, 56
1, 324482, Note_on_c, 0, 70, 67
1, 324484, Note_on_c, 0, 66, 46
1, 324501, Note_off_c, 0, 61, 59
1, 324507, Note_off_c, 0, 66, 59
1, 324508, Note_off_c, 0, 70, 65
1, 324511, Note_on_c, 0, 69, 65
1, 324519, Note_on_c, 0, 62, 74
1, 324521, Note_on_c, 0, 65, 53
1, 324541, Note_off_c, 0, 69, 67
1, 324547, Note_off_c, 0, 65, 57
1, 324549, Note_off_c, 0, 62, 68
1, 324567, Note_on_c, 0, 61, 80
1, 324569, Note_on_c, 0, 70, 86
1, 324573, Note_on_c, 0, 66, 74
1, 324591, Note_off_c, 0, 70, 65
1, 324593, Note_off_c, 0, 61, 67
1, 324598, Note_off_c, 0, 66, 67
1, 324616, Note_on_c, 0, 69, 77
1, 324618, Note_on_c, 0, 62, 78
1, 324622, Note_on_c, 0, 65, 70
1, 324650, Note_off_c, 0, 69, 68
1, 324651, Note_off_c, 0, 62, 68
1, 324656, Note_off_c, 0, 65, 67
1, 324666, Note_on_c, 0, 61, 80
1, 324667, Note_on_c, 0, 70, 90
1, 324671, Note_on_c, 0, 66, 71
1, 324695, Note_off_c, 0, 61, 61
1, 324698, Note_off_c, 0, 66, 66
1, 324701, Note_off_c, 0, 70, 63
1, 324710, Note_on_c, 0, 62, 90
1, 324713, Note_on_c, 0, 69, 87
1, 324714, Note_on_c, 0, 65, 90
1, 324739, Note_off_c, 0, 65, 67
1, 324743, Note_off_c, 0, 62, 63
1, 324751, Note_off_c, 0, 69, 66
1, 324756, Poly_aftertouch_c, 0, 63, 0
1, 324761, Note_on_c, 0, 66, 83
1, 324761, Note_on_c, 0, 70, 90
1, 324766, Note_on_c, 0, 61, 80
1, 324777, Poly_aftertouch_c, 0, 63, 0
1, 324791, Note_off_c, 0, 61, 66
1, 324792, Note_off_c, 0, 66, 66
1, 324797, Note_off_c, 0, 70, 60
1, 324805, Note_on_c, 0, 65, 80
1, 324808, Note_on_c, 0, 62, 95
1, 324808, Note_on_c, 0, 69, 93
1, 324831, Note_off_c, 0, 62, 69
1, 324832, Note_off_c, 0, 65, 68
1, 324844, Note_off_c, 0, 69, 62
1, 324850, Note_on_c, 0, 70, 96
1, 324850, Note_on_c, 0, 61, 83
1, 324858, Note_on_c, 0, 66, 81
1, 324880, Note_off_c, 0, 61, 65
1, 324885, Note_off_c, 0, 66, 66
1, 324894, Note_off_c, 0, 70, 63
1, 324897, Note_on_c, 0, 62, 96
1, 324899, Note_on_c, 0, 65, 101
1, 324899, Note_on_c, 0, 69, 93
1, 324923, Note_off_c, 0, 65, 63
1, 324930, Note_off_c, 0, 62, 61
1, 324937, Note_off_c, 0, 69, 67
1, 324941, Note_on_c, 0, 66, 92
1, 324942, Note_on_c, 0, 70, 92
1, 324947, Note_on_c, 0, 61, 82
1, 324970, Note_off_c, 0, 61, 69
1, 324986, Note_off_c, 0, 66, 64
1, 324989, Note_off_c, 0, 70, 64
1, 324995, Note_on_c, 0, 69, 100
1, 324998, Note_on_c, 0, 62, 89
1, 324999, Note_on_c, 0, 65, 95
1, 325005, Note_on_c, 0, 64, 77
1, 325019, Note_off_c, 0, 65, 65
1, 325022, Note_off_c, 0, 62, 70
1, 325029, Note_off_c, 0, 64, 69
1, 325030, Note_on_c, 0, 61, 79
1, 325032, Note_off_c, 0, 69, 67
1, 325035, Note_on_c, 0, 70, 90
1, 325036, Note_on_c, 0, 66, 81
1, 325066, Note_off_c, 0, 61, 64
1, 325072, Note_off_c, 0, 66, 66
1, 325077, Note_off_c, 0, 70, 64
1, 325092, Note_on_c, 0, 62, 100
1, 325093, Note_on_c, 0, 69, 98
1, 325094, Note_on_c, 0, 65, 77
1, 325113, Note_on_c, 0, 63, 12
1, 325116, Note_off_c, 0, 65, 68
1, 325118, Note_off_c, 0, 62, 68
1, 325130, Note_off_c, 0, 63, 0
1, 325132, Note_off_c, 0, 69, 67
1, 325133, Note_on_c, 0, 70, 96
1, 325139, Note_on_c, 0, 66, 90
1, 325157, Note_on_c, 0, 61, 57
1, 325165, Poly_aftertouch_c, 0, 63, 0
1, 325167, Note_off_c, 0, 66, 67
1, 325180, Note_off_c, 0, 70, 64
1, 325181, Note_on_c, 0, 65, 84
1, 325183, Note_on_c, 0, 62, 101
1, 325183, Note_on_c, 0, 69, 98
1, 325186, Note_off_c, 0, 61, 54
1, 325205, Note_off_c, 0, 62, 68
1, 325215, Note_off_c, 0, 65, 65
1, 325223, Note_off_c, 0, 69, 68
1, 325226, Note_on_c, 0, 70, 95
1, 325229, Note_on_c, 0, 61, 88
1, 325233, Note_on_c, 0, 66, 82
1, 325261, Note_off_c, 0, 61, 62
1, 325262, Note_off_c, 0, 66, 63
1, 325268, Note_on_c, 0, 62, 87
1, 325273, Note_on_c, 0, 69, 90
1, 325275, Note_off_c, 0, 70, 64
1, 325277, Note_on_c, 0, 65, 90
1, 325295, Note_off_c, 0, 65, 70
1, 325306, Note_off_c, 0, 62, 62
1, 325315, Note_off_c, 0, 69, 65
1, 325325, Note_on_c, 0, 61, 86
1, 325330, Note_on_c, 0, 66, 84
1, 325330, Note_on_c, 0, 70, 74
1, 325361, Note_on_c, 0, 69, 94
1, 325362, Note_on_c, 0, 65, 75
1, 325366, Note_on_c, 0, 62, 77
1, 325375, Note_off_c, 0, 66, 63
1, 325377, Note_off_c, 0, 61, 55
1, 325396, Note_off_c, 0, 62, 63
1, 325409, Note_off_c, 0, 70, 55
1, 325414, Note_off_c, 0, 65, 65
1, 325428, Note_off_c, 0, 69, 67
1, 325438, Note_on_c, 0, 61, 61
1, 325467, Note_off_c, 0, 61, 63
1, 325570, Note_on_c, 0, 66, 78
1, 325572, Note_on_c, 0, 64, 75
1, 325580, Note_on_c, 0, 70, 84
1, 325587, Note_on_c, 0, 91, 99
1, 325589, Note_on_c, 0, 79, 95
1, 325600, Note_on_c, 0, 84, 68
1, 325601, Note_off_c, 0, 84, 127
1, 325604, Note_off_c, 0, 91, 71
1, 325607, Note_off_c, 0, 79, 71
1, 325618, Poly_aftertouch_c, 0, 84, 0
1, 325629, Note_off_c, 0, 66, 63
1, 325640, Note_off_c, 0, 70, 60
1, 325666, Note_off_c, 0, 64, 63
1, 325674, Note_on_c, 0, 60, 78
1, 325688, Note_on_c, 0, 76, 91
1, 325689, Note_on_c, 0, 88, 86
1, 325706, Note_off_c, 0, 76, 70
1, 325710, Note_off_c, 0, 88, 73
1, 325718, Note_on_c, 0, 86, 49
1, 325741, Note_off_c, 0, 86, 42
1, 325761, Note_on_c, 0, 70, 61
1, 325779, Note_on_c, 0, 66, 68
1, 325780, Note_on_c, 0, 72, 94
1, 325780, Note_on_c, 0, 84, 90
1, 325800, Note_off_c, 0, 84, 73
1, 325801, Note_off_c, 0, 72, 68
1, 325809, Note_off_c, 0, 60, 61
1, 325828, Note_off_c, 0, 70, 60
1, 325840, Control_c, 0, 64, 63
1, 325855, Control_c, 0, 64, 0
1, 325858, Note_off_c, 0, 66, 58
1, 325868, Poly_aftertouch_c, 0, 64, 127
1, 325873, Note_on_c, 0, 67, 110
1, 325874, Note_on_c, 0, 79, 94
1, 325882, Note_on_c, 0, 60, 73
1, 325885, Control_c, 0, 64, 52
1, 325891, Note_off_c, 0, 79, 72
1, 325891, Note_off_c, 0, 67, 71
1, 325896, Note_on_c, 0, 77, 67
1, 325897, Note_off_c, 0, 77, 127
1, 325899, Control_c, 0, 64, 84
1, 325910, Poly_aftertouch_c, 0, 64, 0
1, 325914, Control_c, 0, 64, 127
1, 325953, Note_on_c, 0, 79, 34
1, 325965, Note_on_c, 0, 70, 40
1, 325965, Note_off_c, 0, 60, 62
1, 325971, Note_off_c, 0, 79, 41
1, 325986, Poly_aftertouch_c, 0, 62, 0
1, 326018, Note_on_c, 0, 60, 70
1, 326028, Note_on_c, 0, 66, 47
1, 326028, Note_off_c, 0, 70, 54
1, 326053, Note_off_c, 0, 66, 57
1, 326076, Note_off_c, 0, 60, 62
1, 326175, Note_on_c, 0, 67, 61
1, 326177, Note_on_c, 0, 64, 51
1, 326182, Note_on_c, 0, 72, 57
1, 326200, Note_off_c, 0, 64, 63
1, 326203, Note_off_c, 0, 67, 65
1, 326203, Note_off_c, 0, 72, 60
1, 326239, Note_on_c, 0, 70, 22
1, 326284, Note_off_c, 0, 70, 61
1, 326305, Note_on_c, 0, 72, 51
1, 326311, Note_on_c, 0, 67, 54
1, 326312, Note_on_c, 0, 64, 52
1, 326331, Note_off_c, 0, 67, 64
1, 326337, Note_off_c, 0, 72, 64
1, 326339, Note_off_c, 0, 64, 58
1, 326368, Note_on_c, 0, 70, 54
1, 326373, Note_on_c, 0, 61, 64
1, 326390, Note_off_c, 0, 70, 61
1, 326402, Note_off_c, 0, 61, 65
1, 326418, Note_on_c, 0, 67, 57
1, 326418, Note_on_c, 0, 72, 75
1, 326421, Note_on_c, 0, 64, 66
1, 326441, Note_off_c, 0, 67, 64
1, 326443, Note_off_c, 0, 72, 66
1, 326450, Note_off_c, 0, 64, 65
1, 326472, Note_on_c, 0, 61, 66
1, 326474, Note_on_c, 0, 70, 65
1, 326496, Note_off_c, 0, 70, 64
1, 326499, Note_off_c, 0, 61, 66
1, 326511, Note_on_c, 0, 72, 78
1, 326515, Note_on_c, 0, 67, 75
1, 326516, Note_on_c, 0, 64, 76
1, 326533, Poly_aftertouch_c, 0, 66, 127
1, 326541, Note_off_c, 0, 67, 67
1, 326542, Note_off_c, 0, 64, 69
1, 326543, Note_off_c, 0, 72, 64
1, 326572, Note_on_c, 0, 70, 75
1, 326574, Note_on_c, 0, 61, 74
1, 326597, Note_off_c, 0, 61, 68
1, 326597, Note_off_c, 0, 70, 67
1, 326606, Note_on_c, 0, 64, 78
1, 326608, Note_on_c, 0, 67, 78
1, 326612, Note_on_c, 0, 72, 88
1, 326638, Note_off_c, 0, 72, 65
1, 326638, Poly_aftertouch_c, 0, 66, 0
1, 326641, Note_off_c, 0, 67, 66
1, 326645, Note_off_c, 0, 64, 59
1, 326659, Note_on_c, 0, 61, 81
1, 326659, Poly_aftertouch_c, 0, 66, 0
1, 326660, Note_on_c, 0, 70, 90
1, 326668, Note_on_c, 0, 66, 61
1, 326694, Note_off_c, 0, 66, 67
1, 326697, Note_off_c, 0, 61, 62
1, 326704, Note_off_c, 0, 70, 61
1, 326706, Note_on_c, 0, 67, 91
1, 326707, Note_on_c, 0, 64, 95
1, 326708, Note_on_c, 0, 72, 92
1, 326730, Note_off_c, 0, 72, 65
1, 326735, Note_off_c, 0, 64, 62
1, 326738, Note_off_c, 0, 67, 63
1, 326754, Note_on_c, 0, 70, 93
1, 326756, Note_on_c, 0, 66, 88
1, 326758, Note_on_c, 0, 61, 93
1, 326785, Note_off_c, 0, 61, 63
1, 326787, Note_off_c, 0, 66, 64
1, 326800, Note_on_c, 0, 72, 90
1, 326802, Note_off_c, 0, 70, 64
1, 326803, Note_on_c, 0, 64, 97
1, 326803, Note_on_c, 0, 67, 101
1, 326826, Note_off_c, 0, 64, 68
1, 326829, Note_off_c, 0, 67, 63
1, 326838, Note_off_c, 0, 72, 61
1, 326845, Note_on_c, 0, 70, 93
1, 326851, Note_on_c, 0, 61, 89
1, 326853, Note_on_c, 0, 66, 89
1, 326885, Note_off_c, 0, 61, 67
1, 326886, Note_off_c, 0, 66, 62
1, 326898, Note_off_c, 0, 70, 65
1, 326906, Note_on_c, 0, 64, 102
1, 326906, Note_on_c, 0, 72, 102
1, 326908, Note_on_c, 0, 67, 109
1, 326931, Note_off_c, 0, 67, 67
1, 326937, Note_off_c, 0, 72, 66
1, 326941, Note_off_c, 0, 64, 66
1, 326945, Note_on_c, 0, 70, 105
1, 326946, Note_on_c, 0, 61, 94
1, 326951, Note_on_c, 0, 66, 87
1, 326979, Note_off_c, 0, 61, 66
1, 326981, Note_off_c, 0, 66, 62
1, 326993, Note_off_c, 0, 70, 65
1, 327003, Note_on_c, 0, 72, 106
1, 327004, Note_on_c, 0, 67, 85
1, 327005, Note_on_c, 0, 64, 101
1, 327029, Note_off_c, 0, 67, 67
1, 327031, Note_off_c, 0, 64, 63
1, 327037, Note_off_c, 0, 72, 61
1, 327038, Note_on_c, 0, 70, 102
1, 327039, Note_on_c, 0, 71, 6
1, 327044, Note_on_c, 0, 61, 92
1, 327046, Note_on_c, 0, 66, 93
1, 327071, Note_off_c, 0, 66, 66
1, 327075, Note_off_c, 0, 61, 67
1, 327085, Note_off_c, 0, 70, 64
1, 327086, Note_off_c, 0, 71, 27
1, 327089, Note_on_c, 0, 72, 100
1, 327093, Note_on_c, 0, 64, 94
1, 327097, Note_on_c, 0, 67, 89
1, 327121, Note_off_c, 0, 67, 62
1, 327124, Note_off_c, 0, 64, 65
1, 327127, Note_on_c, 0, 70, 97
1, 327130, Note_off_c, 0, 72, 65
1, 327132, Note_on_c, 0, 61, 88
1, 327134, Note_on_c, 0, 66, 90
1, 327169, Note_off_c, 0, 66, 63
1, 327170, Note_off_c, 0, 61, 63
1, 327177, Note_on_c, 0, 72, 95
1, 327178, Note_off_c, 0, 70, 65
1, 327181, Note_on_c, 0, 64, 89
1, 327184, Note_on_c, 0, 67, 87
1, 327209, Note_off_c, 0, 67, 65
1, 327215, Note_off_c, 0, 64, 57
1, 327219, Note_on_c, 0, 61, 85
1, 327220, Note_off_c, 0, 72, 61
1, 327222, Note_on_c, 0, 70, 90
1, 327226, Note_on_c, 0, 66, 87
1, 327265, Note_on_c, 0, 67, 86
1, 327272, Note_on_c, 0, 72, 79
1, 327287, Note_off_c, 0, 61, 63
1, 327289, Note_off_c, 0, 67, 67
1, 327292, Note_off_c, 0, 66, 62
1, 327304, Note_off_c, 0, 72, 64
1, 327312, Note_off_c, 0, 70, 57
1, 327455, Note_on_c, 0, 61, 84
1, 327458, Note_on_c, 0, 66, 89
1, 327461, Note_on_c, 0, 77, 97
1, 327461, Note_on_c, 0, 81, 95
1, 327466, Note_on_c, 0, 65, 88
1, 327466, Note_on_c, 0, 74, 84
1, 327480, Note_on_c, 0, 62, 67
1, 327491, Note_on_c, 0, 63, 43
1, 327496, Note_off_c, 0, 74, 62
1, 327499, Note_off_c, 0, 77, 67
1, 327506, Note_off_c, 0, 81, 67
1, 327523, Note_off_c, 0, 63, 53
1, 327530, Note_off_c, 0, 62, 43
1, 327546, Note_off_c, 0, 61, 62
1, 327557, Note_off_c, 0, 65, 62
1, 327558, Note_on_c, 0, 69, 84
1, 327560, Note_off_c, 0, 66, 60
1, 327583, Note_on_c, 0, 74, 87
1, 327587, Note_on_c, 0, 86, 91
1, 327607, Note_off_c, 0, 86, 70
1, 327607, Note_off_c, 0, 74, 69
1, 327608, Note_off_c, 0, 69, 61
1, 327611, Note_on_c, 0, 84, 58
1, 327640, Note_off_c, 0, 84, 64
1, 327649, Note_on_c, 0, 61, 74
1, 327660, Note_on_c, 0, 65, 74
1, 327670, Note_on_c, 0, 66, 72
1, 327671, Note_on_c, 0, 62, 68
1, 327687, Note_on_c, 0, 88, 92
1, 327688, Note_on_c, 0, 76, 88
1, 327702, Note_on_c, 0, 89, 68
1, 327703, Note_off_c, 0, 89, 127
1, 327707, Note_off_c, 0, 88, 71
1, 327708, Note_off_c, 0, 76, 72
1, 327722, Note_off_c, 0, 62, 59
1, 327732, Note_off_c, 0, 61, 64
1, 327739, Note_on_c, 0, 69, 70
1, 327742, Note_off_c, 0, 65, 62
1, 327742, Note_off_c, 0, 66, 62
1, 327778, Note_on_c, 0, 93, 105
1, 327784, Note_on_c, 0, 79, 87
1, 327784, Note_off_c, 0, 69, 60
1, 327786, Note_on_c, 0, 91, 88
1, 327787, Note_on_c, 0, 81, 80
1, 327795, Note_off_c, 0, 93, 71
1, 327796, Note_on_c, 0, 61, 75
1, 327798, Note_off_c, 0, 91, 72
1, 327804, Note_off_c, 0, 79, 70
1, 327805, Note_off_c, 0, 81, 67
1, 327808, Note_on_c, 0, 65, 75
1, 327812, Note_on_c, 0, 62, 75
1, 327831, Note_on_c, 0, 66, 40
1, 327846, Poly_aftertouch_c, 0, 76, 0
1, 327869, Note_on_c, 0, 79, 27
1, 327870, Note_off_c, 0, 79, 127
1, 327872, Note_on_c, 0, 91, 19
1, 327873, Note_off_c, 0, 62, 62
1, 327878, Note_on_c, 0, 69, 80
1, 327879, Note_off_c, 0, 61, 64
1, 327879, Note_off_c, 0, 65, 63
1, 327889, Note_off_c, 0, 66, 0
1, 327889, Note_on_c, 0, 66, 3
1, 327909, Note_off_c, 0, 91, 43
1, 327915, Note_off_c, 0, 66, 0
1, 327917, Note_off_c, 0, 69, 61
1, 327929, Note_on_c, 0, 61, 73
1, 327942, Note_on_c, 0, 62, 69
1, 327943, Poly_aftertouch_c, 0, 66, 0
1, 327944, Note_on_c, 0, 65, 70
1, 327970, Note_on_c, 0, 66, 13
1, 327988, Note_off_c, 0, 62, 64
1, 328005, Note_on_c, 0, 69, 80
1, 328007, Note_off_c, 0, 65, 63
1, 328007, Note_off_c, 0, 61, 64
1, 328050, Note_off_c, 0, 69, 64
1, 328052, Note_off_c, 0, 66, 0
1, 328052, Note_on_c, 0, 66, 19
1, 328057, Note_on_c, 0, 65, 72
1, 328064, Note_on_c, 0, 61, 70
1, 328082, Note_on_c, 0, 62, 72
1, 328095, Note_off_c, 0, 66, 58
1, 328112, Note_off_c, 0, 62, 66
1, 328121, Note_off_c, 0, 65, 62
1, 328144, Note_on_c, 0, 69, 68
1, 328145, Note_off_c, 0, 61, 63
1, 328163, Note_off_c, 0, 69, 69
1, 328222, Control_c, 0, 64, 94
1, 328236, Control_c, 0, 64, 93
1, 328239, Note_on_c, 0, 62, 34
1, 328241, Note_on_c, 0, 66, 83
1, 328242, Note_on_c, 0, 64, 76
1, 328248, Note_on_c, 0, 70, 88
1, 328251, Control_c, 0, 64, 95
1, 328252, Note_on_c, 0, 81, 98
1, 328252, Note_on_c, 0, 91, 94
1, 328256, Note_on_c, 0, 93, 95
1, 328263, Note_on_c, 0, 86, 70
1, 328266, Control_c, 0, 64, 107
1, 328271, Note_off_c, 0, 93, 66
1, 328272, Note_off_c, 0, 81, 67
1, 328275, Note_on_c, 0, 84, 59
1, 328276, Note_off_c, 0, 62, 52
1, 328278, Note_off_c, 0, 86, 69
1, 328280, Control_c, 0, 64, 127
1, 328287, Note_off_c, 0, 91, 64
1, 328299, Note_off_c, 0, 84, 62
1, 328308, Note_off_c, 0, 66, 63
1, 328316, Note_off_c, 0, 70, 63
1, 328320, Note_on_c, 0, 93, 41
1, 328321, Note_off_c, 0, 93, 127
1, 328341, Note_on_c, 0, 60, 80
1, 328368, Note_on_c, 0, 77, 86
1, 328370, Note_on_c, 0, 89, 82
1, 328388, Note_on_c, 0, 91, 64
1, 328389, Note_off_c, 0, 91, 127
1, 328395, Note_off_c, 0, 77, 72
1, 328398, Note_off_c, 0, 89, 69
1, 328431, Note_on_c, 0, 70, 74
1, 328443, Note_on_c, 0, 66, 76
1, 328443, Poly_aftertouch_c, 0, 62, 127
1, 328444, Note_off_c, 0, 60, 62
1, 328461, Note_on_c, 0, 86, 97
1, 328462, Note_off_c, 0, 64, 24
1, 328464, Note_on_c, 0, 74, 94
1, 328469, Note_on_c, 0, 89, 15
1, 328473, Poly_aftertouch_c, 0, 62, 0
1, 328481, Note_off_c, 0, 86, 65
1, 328484, Note_off_c, 0, 74, 69
1, 328484, Note_off_c, 0, 70, 61
1, 328502, Note_off_c, 0, 89, 51
1, 328523, Note_on_c, 0, 60, 60
1, 328529, Note_off_c, 0, 66, 57
1, 328551, Note_on_c, 0, 70, 104
1, 328552, Note_on_c, 0, 82, 103
1, 328571, Poly_aftertouch_c, 0, 84, 0
1, 328579, Note_off_c, 0, 70, 63
1, 328579, Note_off_c, 0, 82, 61
1, 328606, Note_off_c, 0, 60, 62
1, 328657, Note_on_c, 0, 66, 55
1, 328661, Note_on_c, 0, 60, 76
1, 328699, Note_off_c, 0, 66, 59
1, 328723, Note_off_c, 0, 60, 63
1, 328815, Note_on_c, 0, 72, 58
1, 328817, Note_on_c, 0, 64, 56
1, 328835, Note_off_c, 0, 72, 63
1, 328838, Note_on_c, 0, 67, 31
1, 328838, Note_off_c, 0, 64, 64
1, 328875, Note_off_c, 0, 67, 47
1, 328891, Note_on_c, 0, 61, 66
1, 328894, Note_on_c, 0, 70, 71
1, 328911, Note_on_c, 0, 66, 37
1, 328919, Note_off_c, 0, 70, 65
1, 328921, Note_off_c, 0, 61, 63
1, 328940, Control_c, 0, 64, 81
1, 328946, Note_off_c, 0, 66, 51
1, 328947, Note_on_c, 0, 72, 55
1, 328956, Control_c, 0, 64, 65
1, 328965, Note_on_c, 0, 67, 45
1, 328971, Control_c, 0, 64, 59
1, 328973, Note_off_c, 0, 72, 60
1, 328985, Note_on_c, 0, 61, 68
1, 328987, Note_on_c, 0, 70, 66
1, 328992, Note_off_c, 0, 67, 57
1, 329000, Control_c, 0, 64, 63
1, 329015, Control_c, 0, 64, 69
1, 329016, Note_off_c, 0, 61, 64
1, 329019, Note_off_c, 0, 70, 65
1, 329030, Control_c, 0, 64, 82
1, 329035, Poly_aftertouch_c, 0, 64, 0
1, 329045, Control_c, 0, 64, 127
1, 329049, Note_on_c, 0, 72, 79
1, 329059, Note_on_c, 0, 64, 34
1, 329060, Note_on_c, 0, 67, 67
1, 329074, Note_off_c, 0, 72, 66
1, 329079, Note_off_c, 0, 67, 65
1, 329085, Poly_aftertouch_c, 0, 66, 0
1, 329087, Note_on_c, 0, 61, 73
1, 329091, Note_on_c, 0, 70, 75
1, 329095, Note_off_c, 0, 64, 53
1, 329097, Note_on_c, 0, 66, 33
1, 329116, Note_off_c, 0, 70, 63
1, 329134, Note_off_c, 0, 66, 56
1, 329135, Note_off_c, 0, 61, 62
1, 329150, Note_on_c, 0, 72, 78
1, 329154, Note_on_c, 0, 67, 81
1, 329159, Note_on_c, 0, 64, 84
1, 329178, Note_off_c, 0, 67, 67
1, 329183, Note_off_c, 0, 64, 68
1, 329190, Note_off_c, 0, 72, 64
1, 329199, Note_on_c, 0, 71, 6
1, 329200, Note_off_c, 0, 71, 127
1, 329200, Note_on_c, 0, 70, 73
1, 329205, Note_on_c, 0, 61, 67
1, 329209, Note_on_c, 0, 66, 68
1, 329231, Note_off_c, 0, 70, 63
1, 329236, Note_off_c, 0, 61, 64
1, 329239, Note_off_c, 0, 66, 66
1, 329245, Note_on_c, 0, 67, 78
1, 329245, Poly_aftertouch_c, 0, 71, 0
1, 329246, Note_on_c, 0, 64, 81
1, 329252, Note_on_c, 0, 72, 96
1, 329281, Note_off_c, 0, 72, 62
1, 329286, Note_off_c, 0, 67, 66
1, 329290, Note_off_c, 0, 64, 64
1, 329293, Poly_aftertouch_c, 0, 71, 0
1, 329296, Note_on_c, 0, 61, 85
1, 329298, Note_on_c, 0, 70, 92
1, 329302, Note_on_c, 0, 66, 85
1, 329340, Note_off_c, 0, 70, 65
1, 329345, Note_off_c, 0, 61, 64
1, 329346, Note_off_c, 0, 66, 64
1, 329349, Note_on_c, 0, 72, 100
1, 329351, Note_on_c, 0, 64, 93
1, 329352, Note_on_c, 0, 67, 96
1, 329380, Note_off_c, 0, 67, 57
1, 329383, Note_off_c, 0, 72, 66
1, 329391, Note_off_c, 0, 64, 64
1, 329395, Note_on_c, 0, 70, 95
1, 329396, Note_on_c, 0, 61, 88
1, 329402, Note_on_c, 0, 66, 79
1, 329433, Note_off_c, 0, 61, 66
1, 329441, Note_off_c, 0, 66, 62
1, 329441, Note_off_c, 0, 70, 63
1, 329444, Note_on_c, 0, 72, 99
1, 329446, Note_on_c, 0, 67, 92
1, 329448, Note_on_c, 0, 64, 82
1, 329481, Note_off_c, 0, 72, 65
1, 329489, Note_on_c, 0, 61, 95
1, 329489, Note_on_c, 0, 70, 96
1, 329489, Note_off_c, 0, 64, 64
1, 329490, Note_off_c, 0, 67, 62
1, 329495, Note_on_c, 0, 66, 80
1, 329528, Note_off_c, 0, 61, 65
1, 329531, Note_off_c, 0, 66, 63
1, 329534, Note_off_c, 0, 70, 62
1, 329535, Note_on_c, 0, 72, 100
1, 329537, Note_on_c, 0, 67, 89
1, 329539, Note_on_c, 0, 64, 84
1, 329573, Note_off_c, 0, 72, 64
1, 329576, Note_off_c, 0, 67, 66
1, 329579, Note_on_c, 0, 61, 99
1, 329579, Note_on_c, 0, 70, 93
1, 329579, Note_off_c, 0, 64, 65
1, 329585, Note_on_c, 0, 66, 82
1, 329614, Note_off_c, 0, 61, 63
1, 329622, Note_off_c, 0, 70, 63
1, 329624, Note_off_c, 0, 66, 62
1, 329634, Note_on_c, 0, 64, 94
1, 329635, Note_on_c, 0, 72, 95
1, 329638, Note_on_c, 0, 67, 93
1, 329670, Note_off_c, 0, 67, 64
1, 329673, Note_off_c, 0, 72, 63
1, 329674, Note_off_c, 0, 64, 65
1, 329677, Note_on_c, 0, 70, 105
1, 329691, Note_on_c, 0, 65, 80
1, 329696, Note_on_c, 0, 60, 75
1, 329704, Note_on_c, 0, 68, 57
1, 329705, Note_off_c, 0, 68, 127
1, 329707, Note_on_c, 0, 61, 38
1, 329708, Note_off_c, 0, 61, 127
1, 329713, Note_off_c, 0, 60, 66
1, 329715, Note_off_c, 0, 65, 68
1, 329728, Note_off_c, 0, 70, 65
1, 329728, Note_on_c, 0, 72, 101
1, 329731, Note_on_c, 0, 64, 85
1, 329732, Note_on_c, 0, 67, 89
1, 329773, Poly_aftertouch_c, 0, 65, 0
1, 329773, Note_off_c, 0, 67, 62
1, 329773, Note_off_c, 0, 72, 61
1, 329780, Note_off_c, 0, 64, 62
1, 329781, Note_on_c, 0, 61, 95
1, 329783, Note_on_c, 0, 70, 94
1, 329793, Note_on_c, 0, 66, 82
1, 329816, Note_off_c, 0, 66, 68
1, 329819, Note_off_c, 0, 61, 64
1, 329824, Note_on_c, 0, 72, 92
1, 329827, Note_on_c, 0, 67, 94
1, 329829, Note_off_c, 0, 70, 64
1, 329850, Note_off_c, 0, 67, 70
1, 329859, Note_off_c, 0, 72, 63
1, 329872, Note_on_c, 0, 70, 94
1, 329873, Note_on_c, 0, 66, 90
1, 329875, Note_on_c, 0, 61, 94
1, 329946, Note_off_c, 0, 66, 62
1, 329977, Note_off_c, 0, 70, 59
1, 329987, Note_off_c, 0, 61, 26
1, 330192, Note_on_c, 0, 60, 57
1, 330228, Note_on_c, 0, 66, 59
1, 330229, Note_on_c, 0, 64, 56
1, 330257, Note_on_c, 0, 67, 62
1, 330260, Control_c, 0, 64, 117
1, 330275, Control_c, 0, 64, 79
1, 330290, Control_c, 0, 64, 59
1, 330294, Note_on_c, 0, 70, 98
1, 330305, Control_c, 0, 64, 36
1, 330320, Control_c, 0, 64, 22
1, 330334, Control_c, 0, 64, 34
1, 330349, Control_c, 0, 64, 55
1, 330364, Control_c, 0, 64, 69
1, 330379, Control_c, 0, 64, 89
1, 330391, Note_off_c, 0, 60, 59
1, 330394, Control_c, 0, 64, 127
1, 330396, Note_off_c, 0, 64, 62
1, 330406, Note_off_c, 0, 67, 52
1, 330471, Note_on_c, 0, 60, 53
1, 330503, Note_on_c, 0, 61, 39
1, 330530, Note_off_c, 0, 60, 60
1, 330533, Note_off_c, 0, 61, 52
1, 330539, Note_on_c, 0, 67, 64
1, 330543, Note_off_c, 0, 70, 62
1, 330577, Note_on_c, 0, 72, 99
1, 330577, Note_off_c, 0, 67, 65
1, 330590, Note_off_c, 0, 66, 43
1, 330612, Note_on_c, 0, 61, 67
1, 330619, Note_on_c, 0, 60, 60
1, 330656, Note_on_c, 0, 64, 37
1, 330657, Note_off_c, 0, 60, 63
1, 330668, Note_off_c, 0, 61, 62
1, 330672, Note_off_c, 0, 72, 63
1, 330682, Note_on_c, 0, 67, 68
1, 330686, Note_off_c, 0, 64, 53
1, 330712, Note_on_c, 0, 66, 8
1, 330718, Note_off_c, 0, 67, 64
1, 330721, Note_on_c, 0, 73, 98
1, 330750, Note_on_c, 0, 61, 68
1, 330750, Note_on_c, 0, 60, 53
1, 330766, Note_on_c, 0, 64, 64
1, 330783, Note_off_c, 0, 73, 64
1, 330790, Note_off_c, 0, 64, 60
1, 330794, Note_off_c, 0, 60, 61
1, 330804, Note_off_c, 0, 61, 63
1, 330816, Note_on_c, 0, 67, 75
1, 330822, Note_on_c, 0, 78, 95
1, 330846, Note_off_c, 0, 67, 66
1, 330861, Note_off_c, 0, 66, 42
1, 330882, Note_off_c, 0, 78, 63
1, 330893, Note_on_c, 0, 60, 62
1, 330894, Note_on_c, 0, 61, 67
1, 330902, Note_on_c, 0, 76, 84
1, 330916, Note_on_c, 0, 64, 30
1, 330926, Note_on_c, 0, 66, 64
1, 330928, Note_off_c, 0, 60, 62
1, 330935, Note_off_c, 0, 61, 55
1, 330946, Note_on_c, 0, 67, 60
1, 330951, Note_off_c, 0, 64, 53
1, 330961, Note_off_c, 0, 76, 65
1, 330983, Note_on_c, 0, 72, 94
1, 330992, Note_off_c, 0, 67, 55
1, 331004, Poly_aftertouch_c, 0, 77, 0
1, 331028, Note_off_c, 0, 72, 65
1, 331038, Note_off_c, 0, 66, 30
1, 331057, Note_on_c, 0, 67, 85
1, 331074, Note_on_c, 0, 61, 15
1, 331087, Note_on_c, 0, 60, 44
1, 331116, Note_on_c, 0, 70, 101
1, 331126, Note_off_c, 0, 67, 66
1, 331144, Note_off_c, 0, 70, 64
1, 331151, Note_off_c, 0, 61, 0
1, 331151, Note_on_c, 0, 61, 2
1, 331192, Poly_aftertouch_c, 0, 64, 0
1, 331227, Note_on_c, 0, 67, 67
1, 331230, Note_on_c, 0, 66, 67
1, 331243, Note_off_c, 0, 60, 61
1, 331254, Note_off_c, 0, 66, 67
1, 331254, Note_off_c, 0, 67, 67
1, 331271, Note_off_c, 0, 61, 57
1, 331339, Note_on_c, 0, 67, 61
1, 331350, Note_on_c, 0, 72, 73
1, 331355, Note_on_c, 0, 66, 44
1, 331356, Note_off_c, 0, 66, 127
1, 331356, Note_on_c, 0, 64, 65
1, 331364, Note_on_c, 0, 70, 49
1, 331369, Note_off_c, 0, 67, 55
1, 331380, Note_off_c, 0, 72, 64
1, 331385, Note_off_c, 0, 64, 66
1, 331390, Note_off_c, 0, 70, 63
1, 331396, Poly_aftertouch_c, 0, 66, 0
1, 331461, Note_on_c, 0, 72, 56
1, 331462, Note_on_c, 0, 70, 60
1, 331473, Note_on_c, 0, 66, 64
1, 331479, Note_on_c, 0, 67, 46
1, 331481, Note_on_c, 0, 64, 33
1, 331493, Note_off_c, 0, 66, 65
1, 331493, Note_off_c, 0, 72, 65
1, 331497, Note_off_c, 0, 70, 62
1, 331502, Note_off_c, 0, 67, 59
1, 331510, Note_off_c, 0, 64, 53
1, 331521, Control_c, 0, 64, 106
1, 331536, Control_c, 0, 64, 74
1, 331551, Control_c, 0, 64, 58
1, 331563, Note_on_c, 0, 72, 70
1, 331566, Control_c, 0, 64, 42
1, 331575, Note_on_c, 0, 54, 71
1, 331581, Control_c, 0, 64, 44
1, 331582, Note_on_c, 0, 64, 59
1, 331585, Note_on_c, 0, 70, 54
1, 331588, Note_on_c, 0, 67, 44
1, 331591, Note_on_c, 0, 66, 38
1, 331594, Note_off_c, 0, 72, 61
1, 331596, Control_c, 0, 64, 59
1, 331602, Note_off_c, 0, 64, 64
1, 331608, Note_off_c, 0, 70, 60
1, 331611, Control_c, 0, 64, 80
1, 331613, Note_off_c, 0, 67, 57
1, 331626, Control_c, 0, 64, 127
1, 331627, Note_off_c, 0, 66, 49
1, 331672, Note_on_c, 0, 72, 69
1, 331681, Note_on_c, 0, 70, 62
1, 331682, Note_on_c, 0, 64, 55
1, 331696, Note_on_c, 0, 67, 47
1, 331698, Note_on_c, 0, 66, 61
1, 331707, Note_off_c, 0, 64, 56
1, 331710, Note_off_c, 0, 72, 60
1, 331713, Note_off_c, 0, 70, 64
1, 331716, Note_off_c, 0, 66, 65
1, 331725, Note_off_c, 0, 67, 55
1, 331735, Note_off_c, 0, 54, 64
1, 331766, Note_on_c, 0, 55, 94
1, 331776, Note_on_c, 0, 64, 84
1, 331777, Note_on_c, 0, 72, 80
1, 331782, Note_on_c, 0, 66, 76
1, 331789, Note_on_c, 0, 70, 77
1, 331794, Note_on_c, 0, 67, 74
1, 331815, Note_off_c, 0, 70, 63
1, 331815, Note_off_c, 0, 66, 64
1, 331818, Note_off_c, 0, 72, 62
1, 331822, Note_off_c, 0, 67, 67
1, 331823, Note_off_c, 0, 64, 62
1, 331879, Note_on_c, 0, 64, 80
1, 331880, Note_on_c, 0, 66, 85
1, 331881, Note_on_c, 0, 72, 83
1, 331883, Note_on_c, 0, 70, 69
1, 331887, Note_on_c, 0, 67, 76
1, 331920, Note_off_c, 0, 72, 59
1, 331922, Note_off_c, 0, 67, 65
1, 331924, Note_off_c, 0, 66, 64
1, 331927, Note_off_c, 0, 64, 63
1, 331935, Note_off_c, 0, 70, 62
1, 331971, Note_on_c, 0, 60, 100
1, 331974, Note_on_c, 0, 64, 85
1, 331977, Note_on_c, 0, 66, 85
1, 331978, Note_on_c, 0, 72, 85
1, 331979, Poly_aftertouch_c, 0, 70, 0
1, 331985, Note_on_c, 0, 70, 59
1, 331989, Note_on_c, 0, 67, 83
1, 331989, Note_off_c, 0, 55, 66
1, 332019, Note_off_c, 0, 60, 66
1, 332020, Note_off_c, 0, 72, 59
1, 332021, Note_off_c, 0, 67, 61
1, 332027, Note_off_c, 0, 66, 65
1, 332034, Note_off_c, 0, 70, 61
1, 332035, Note_off_c, 0, 64, 64
1, 332078, Note_on_c, 0, 64, 76
1, 332080, Note_on_c, 0, 72, 83
1, 332083, Note_on_c, 0, 66, 79
1, 332087, Note_on_c, 0, 70, 61
1, 332092, Note_on_c, 0, 67, 78
1, 332117, Note_off_c, 0, 67, 66
1, 332122, Note_off_c, 0, 64, 65
1, 332131, Note_off_c, 0, 66, 65
1, 332133, Note_off_c, 0, 72, 61
1, 332142, Note_off_c, 0, 70, 63
1, 332175, Note_on_c, 0, 58, 97
1, 332200, Note_on_c, 0, 67, 93
1, 332205, Note_on_c, 0, 76, 98
1, 332211, Note_on_c, 0, 70, 78
1, 332220, Note_on_c, 0, 73, 70
1, 332235, Note_off_c, 0, 70, 67
1, 332237, Note_off_c, 0, 73, 68
1, 332239, Note_off_c, 0, 76, 55
1, 332243, Note_off_c, 0, 67, 64
1, 332260, Note_on_c, 0, 54, 85
1, 332260, Note_off_c, 0, 58, 64
1, 332300, Note_on_c, 0, 76, 91
1, 332302, Note_on_c, 0, 67, 97
1, 332305, Note_on_c, 0, 70, 77
1, 332306, Note_on_c, 0, 73, 76
1, 332320, Note_on_c, 0, 49, 75
1, 332326, Note_off_c, 0, 54, 64
1, 332336, Note_off_c, 0, 67, 61
1, 332336, Note_off_c, 0, 70, 61
1, 332337, Note_off_c, 0, 76, 63
1, 332342, Note_off_c, 0, 73, 60
1, 332345, Note_on_c, 0, 72, 33
1, 332366, Note_off_c, 0, 49, 66
1, 332376, Note_off_c, 0, 72, 55
1, 332392, Note_on_c, 0, 52, 91
1, 332399, Note_on_c, 0, 67, 88
1, 332401, Note_on_c, 0, 70, 87
1, 332401, Note_on_c, 0, 76, 80
1, 332402, Note_on_c, 0, 48, 32
1, 332405, Note_on_c, 0, 73, 80
1, 332425, Note_off_c, 0, 52, 68
1, 332426, Note_on_c, 0, 72, 59
1, 332426, Note_off_c, 0, 76, 62
1, 332435, Note_off_c, 0, 67, 60
1, 332436, Note_off_c, 0, 48, 46
1, 332441, Note_off_c, 0, 70, 62
1, 332446, Note_off_c, 0, 72, 60
1, 332447, Note_off_c, 0, 73, 63
1, 332491, Note_on_c, 0, 76, 91
1, 332497, Note_on_c, 0, 67, 84
1, 332500, Note_on_c, 0, 73, 65
1, 332505, Note_on_c, 0, 70, 71
1, 332505, Note_on_c, 0, 72, 81
1, 332513, Note_off_c, 0, 67, 70
1, 332523, Note_off_c, 0, 76, 59
1, 332527, Note_off_c, 0, 72, 69
1, 332528, Note_off_c, 0, 73, 67
1, 332529, Note_off_c, 0, 70, 67
1, 332596, Note_on_c, 0, 72, 90
1, 332599, Note_on_c, 0, 79, 101
1, 332599, Note_on_c, 0, 73, 94
1, 332606, Note_on_c, 0, 78, 80
1, 332623, Note_on_c, 0, 76, 59
1, 332625, Note_off_c, 0, 72, 64
1, 332625, Note_off_c, 0, 73, 62
1, 332631, Note_off_c, 0, 79, 60
1, 332634, Note_off_c, 0, 78, 62
1, 332641, Note_off_c, 0, 76, 63
1, 332691, Note_on_c, 0, 73, 93
1, 332692, Note_on_c, 0, 78, 82
1, 332694, Note_on_c, 0, 72, 96
1, 332694, Note_on_c, 0, 79, 94
1, 332703, Note_on_c, 0, 76, 75
1, 332718, Note_off_c, 0, 72, 60
1, 332721, Note_off_c, 0, 79, 56
1, 332727, Note_off_c, 0, 76, 67
1, 332728, Note_off_c, 0, 73, 67
1, 332739, Note_off_c, 0, 78, 64
1, 332783, Note_on_c, 0, 72, 92
1, 332784, Note_on_c, 0, 79, 85
1, 332786, Note_on_c, 0, 73, 90
1, 332789, Note_on_c, 0, 78, 77
1, 332797, Note_on_c, 0, 76, 57
1, 332814, Note_off_c, 0, 79, 59
1, 332818, Note_off_c, 0, 72, 59
1, 332822, Note_off_c, 0, 76, 60
1, 332828, Note_off_c, 0, 73, 65
1, 332840, Note_off_c, 0, 78, 62
1, 332889, Note_on_c, 0, 72, 86
1, 332889, Note_on_c, 0, 78, 73
1, 332889, Note_on_c, 0, 79, 94
1, 332890, Note_on_c, 0, 73, 81
1, 332908, Note_on_c, 0, 76, 65
1, 332913, Note_off_c, 0, 79, 63
1, 332920, Note_off_c, 0, 72, 60
1, 332931, Note_off_c, 0, 73, 65
1, 332931, Note_off_c, 0, 76, 66
1, 332939, Note_off_c, 0, 78, 64
1, 332945, Control_c, 0, 64, 82
1, 332961, Control_c, 0, 64, 23
1, 332976, Control_c, 0, 64, 0
1, 333019, Note_on_c, 0, 81, 98
1, 333020, Note_on_c, 0, 74, 93
1, 333021, Note_on_c, 0, 71, 100
1, 333021, Control_c, 0, 64, 59
1, 333030, Note_on_c, 0, 77, 77
1, 333035, Control_c, 0, 64, 114
1, 333043, Note_off_c, 0, 71, 65
1, 333044, Note_off_c, 0, 74, 67
1, 333050, Control_c, 0, 64, 127
1, 333056, Note_off_c, 0, 77, 69
1, 333058, Note_off_c, 0, 81, 66
1, 333075, Note_on_c, 0, 73, 71
1, 333075, Note_on_c, 0, 78, 83
1, 333078, Note_on_c, 0, 70, 73
1, 333094, Control_c, 0, 64, 87
1, 333104, Note_off_c, 0, 70, 66
1, 333106, Note_off_c, 0, 73, 68
1, 333109, Control_c, 0, 64, 55
1, 333120, Note_off_c, 0, 78, 64
1, 333123, Note_on_c, 0, 81, 96
1, 333124, Note_on_c, 0, 71, 92
1, 333124, Control_c, 0, 64, 0
1, 333125, Note_on_c, 0, 74, 87
1, 333129, Note_on_c, 0, 77, 69
1, 333144, Note_off_c, 0, 71, 70
1, 333147, Note_off_c, 0, 74, 69
1, 333155, Note_off_c, 0, 77, 67
1, 333156, Note_off_c, 0, 81, 59
1, 333167, Note_on_c, 0, 73, 91
1, 333168, Note_on_c, 0, 78, 85
1, 333169, Note_on_c, 0, 70, 71
1, 333200, Note_off_c, 0, 70, 63
1, 333207, Note_off_c, 0, 73, 64
1, 333212, Note_off_c, 0, 78, 63
1, 333220, Note_on_c, 0, 79, 96
1, 333222, Note_on_c, 0, 76, 101
1, 333225, Note_on_c, 0, 72, 92
1, 333245, Note_off_c, 0, 72, 69
1, 333245, Note_off_c, 0, 76, 67
1, 333254, Note_on_c, 0, 78, 85
1, 333255, Note_on_c, 0, 70, 92
1, 333257, Note_on_c, 0, 73, 79
1, 333261, Note_off_c, 0, 79, 68
1, 333284, Note_off_c, 0, 70, 61
1, 333294, Note_off_c, 0, 73, 63
1, 333296, Note_off_c, 0, 78, 64
1, 333306, Note_on_c, 0, 72, 83
1, 333307, Note_on_c, 0, 79, 93
1, 333311, Note_on_c, 0, 76, 97
1, 333335, Note_off_c, 0, 76, 66
1, 333339, Note_off_c, 0, 72, 61
1, 333345, Note_on_c, 0, 78, 94
1, 333347, Note_on_c, 0, 73, 92
1, 333347, Note_on_c, 0, 70, 91
1, 333349, Note_off_c, 0, 79, 68
1, 333374, Note_off_c, 0, 70, 63
1, 333387, Note_off_c, 0, 73, 67
1, 333392, Note_off_c, 0, 78, 64
1, 333403, Note_on_c, 0, 71, 102
1, 333404, Note_on_c, 0, 81, 94
1, 333404, Control_c, 0, 64, 66
1, 333407, Note_on_c, 0, 74, 84
1, 333418, Control_c, 0, 64, 127
1, 333425, Note_on_c, 0, 77, 66
1, 333427, Note_on_c, 0, 79, 59
1, 333435, Note_on_c, 0, 76, 59
1, 333445, Note_off_c, 0, 74, 67
1, 333446, Note_on_c, 0, 78, 104
1, 333446, Note_off_c, 0, 71, 64
1, 333448, Note_on_c, 0, 73, 95
1, 333448, Note_off_c, 0, 79, 63
1, 333452, Note_on_c, 0, 70, 78
1, 333453, Note_off_c, 0, 81, 65
1, 333454, Note_off_c, 0, 77, 67
1, 333456, Note_off_c, 0, 76, 62
1, 333474, Note_off_c, 0, 70, 66
1, 333484, Note_off_c, 0, 73, 65
1, 333489, Note_off_c, 0, 78, 63
1, 333505, Note_on_c, 0, 71, 99
1, 333505, Note_on_c, 0, 74, 96
1, 333505, Note_on_c, 0, 81, 86
1, 333511, Note_on_c, 0, 77, 82
1, 333539, Note_on_c, 0, 70, 67
1, 333540, Note_on_c, 0, 79, 36
1, 333543, Note_on_c, 0, 78, 97
1, 333543, Note_off_c, 0, 74, 67
1, 333543, Note_on_c, 0, 73, 94
1, 333545, Note_off_c, 0, 71, 66
1, 333546, Note_off_c, 0, 81, 65
1, 333547, Note_off_c, 0, 77, 64
1, 333576, Note_off_c, 0, 79, 44
1, 333577, Note_off_c, 0, 70, 64
1, 333578, Note_off_c, 0, 73, 64
1, 333579, Note_off_c, 0, 78, 64
1, 333582, Control_c, 0, 64, 110
1, 333597, Control_c, 0, 64, 61
1, 333600, Note_on_c, 0, 72, 104
1, 333602, Note_on_c, 0, 79, 93
1, 333607, Note_on_c, 0, 76, 78
1, 333612, Control_c, 0, 64, 0
1, 333638, Note_off_c, 0, 76, 68
1, 333645, Note_off_c, 0, 72, 63
1, 333648, Note_on_c, 0, 78, 103
1, 333651, Note_off_c, 0, 79, 67
1, 333654, Note_on_c, 0, 70, 78
1, 333654, Note_on_c, 0, 73, 83
1, 333663, Control_c, 0, 64, 27
1, 333675, Note_off_c, 0, 70, 67
1, 333678, Control_c, 0, 64, 52
1, 333678, Note_off_c, 0, 73, 70
1, 333687, Note_off_c, 0, 78, 64
1, 333693, Control_c, 0, 64, 63
1, 333699, Note_on_c, 0, 76, 89
1, 333701, Note_on_c, 0, 72, 95
1, 333702, Note_on_c, 0, 79, 90
1, 333707, Control_c, 0, 64, 70
1, 333722, Control_c, 0, 64, 81
1, 333731, Note_off_c, 0, 72, 60
1, 333731, Note_off_c, 0, 76, 65
1, 333737, Control_c, 0, 64, 109
1, 333743, Note_on_c, 0, 78, 104
1, 333743, Note_off_c, 0, 79, 67
1, 333745, Note_on_c, 0, 70, 78
1, 333745, Note_on_c, 0, 73, 96
1, 333753, Control_c, 0, 64, 127
1, 333774, Note_off_c, 0, 70, 65
1, 333785, Note_off_c, 0, 73, 65
1, 333793, Note_off_c, 0, 78, 64
1, 333799, Note_on_c, 0, 71, 108
1, 333804, Note_on_c, 0, 74, 89
1, 333804, Note_on_c, 0, 81, 91
1, 333822, Note_on_c, 0, 79, 71
1, 333833, Note_off_c, 0, 74, 62
1, 333836, Note_off_c, 0, 71, 64
1, 333836, Note_on_c, 0, 76, 51
1, 333839, Note_off_c, 0, 79, 64
1, 333845, Note_on_c, 0, 78, 100
1, 333845, Note_off_c, 0, 81, 66
1, 333848, Note_on_c, 0, 70, 86
1, 333850, Note_on_c, 0, 73, 94
1, 333859, Note_off_c, 0, 76, 61
1, 333871, Note_off_c, 0, 70, 65
1, 333883, Note_off_c, 0, 73, 60
1, 333895, Note_off_c, 0, 78, 62
1, 333898, Note_on_c, 0, 74, 90
1, 333899, Note_on_c, 0, 81, 89
1, 333902, Note_on_c, 0, 71, 88
1, 333906, Note_on_c, 0, 69, 85
1, 333919, Note_off_c, 0, 69, 72
1, 333929, Note_off_c, 0, 71, 67
1, 333931, Note_on_c, 0, 79, 24
1, 333932, Note_on_c, 0, 76, 60
1, 333936, Note_off_c, 0, 74, 68
1, 333937, Note_off_c, 0, 81, 68
1, 333938, Note_on_c, 0, 77, 51
1, 333942, Note_on_c, 0, 78, 97
1, 333945, Note_on_c, 0, 70, 85
1, 333946, Note_on_c, 0, 73, 93
1, 333951, Note_off_c, 0, 76, 66
1, 333960, Note_off_c, 0, 77, 61
1, 333970, Note_off_c, 0, 79, 54
1, 333971, Note_off_c, 0, 70, 66
1, 333983, Note_off_c, 0, 73, 64
1, 333989, Note_off_c, 0, 78, 64
1, 333999, Note_on_c, 0, 72, 98
1, 334001, Note_on_c, 0, 76, 98
1, 334002, Note_on_c, 0, 79, 92
1, 334027, Note_on_c, 0, 69, 2
1, 334030, Note_off_c, 0, 76, 61
1, 334033, Note_off_c, 0, 72, 57
1, 334035, Note_on_c, 0, 81, 43
1, 334036, Note_off_c, 0, 81, 127
1, 334041, Note_on_c, 0, 70, 84
1, 334041, Note_off_c, 0, 79, 66
1, 334043, Note_on_c, 0, 78, 98
1, 334045, Note_on_c, 0, 73, 93
1, 334070, Poly_aftertouch_c, 0, 81, 0
1, 334071, Note_off_c, 0, 69, 50
1, 334081, Note_off_c, 0, 70, 65
1, 334086, Note_off_c, 0, 73, 64
1, 334087, Note_off_c, 0, 78, 62
1, 334092, Note_on_c, 0, 72, 92
1, 334093, Note_on_c, 0, 76, 95
1, 334094, Note_on_c, 0, 79, 88
1, 334110, Note_off_c, 0, 72, 70
1, 334128, Note_off_c, 0, 79, 69
1, 334133, Note_off_c, 0, 76, 68
1, 334139, Note_on_c, 0, 78, 101
1, 334141, Note_on_c, 0, 70, 97
1, 334142, Note_on_c, 0, 73, 92
1, 334168, Control_c, 0, 64, 61
1, 334175, Note_off_c, 0, 70, 66
1, 334182, Control_c, 0, 64, 0
1, 334183, Note_off_c, 0, 73, 68
1, 334203, Note_off_c, 0, 78, 65
1, 334271, Control_c, 0, 67, 13
1, 334286, Control_c, 0, 67, 25
1, 334301, Control_c, 0, 67, 39
1, 334316, Control_c, 0, 67, 54
1, 334330, Control_c, 0, 67, 69
1, 334345, Control_c, 0, 67, 81
1, 334360, Control_c, 0, 67, 92
1, 334382, Control_c, 0, 67, 102
1, 334397, Control_c, 0, 67, 106
1, 334412, Control_c, 0, 67, 111
1, 334426, Control_c, 0, 67, 115
1, 334441, Control_c, 0, 67, 118
1, 334456, Control_c, 0, 67, 120
1, 334471, Control_c, 0, 67, 122
1, 334486, Control_c, 0, 67, 124
1, 334500, Control_c, 0, 67, 126
1, 334515, Control_c, 0, 67, 127
1, 334857, Control_c, 0, 64, 17
1, 334872, Control_c, 0, 64, 35
1, 334887, Control_c, 0, 64, 45
1, 334902, Control_c, 0, 64, 51
1, 334917, Control_c, 0, 64, 55
1, 334931, Control_c, 0, 64, 58
1, 334946, Control_c, 0, 64, 60
1, 334961, Control_c, 0, 64, 63
1, 334976, Control_c, 0, 64, 64
1, 334991, Control_c, 0, 64, 66
1, 335005, Control_c, 0, 64, 68
1, 335020, Control_c, 0, 64, 71
1, 335035, Control_c, 0, 64, 76
1, 335049, Control_c, 0, 64, 80
1, 335064, Control_c, 0, 64, 83
1, 335079, Control_c, 0, 64, 87
1, 335094, Control_c, 0, 64, 93
1, 335109, Control_c, 0, 64, 99
1, 335131, Control_c, 0, 64, 107
1, 335146, Control_c, 0, 64, 116
1, 335161, Control_c, 0, 64, 127
1, 335428, Control_c, 0, 64, 119
1, 335443, Control_c, 0, 64, 94
1, 335458, Control_c, 0, 64, 78
1, 335472, Control_c, 0, 64, 66
1, 335481, Note_on_c, 0, 69, 47
1, 335487, Control_c, 0, 64, 56
1, 335495, Note_on_c, 0, 59, 33
1, 335502, Note_on_c, 0, 62, 32
1, 335502, Control_c, 0, 64, 49
1, 335503, Note_on_c, 0, 65, 43
1, 335509, Note_on_c, 0, 55, 38
1, 335532, Control_c, 0, 64, 56
1, 335547, Control_c, 0, 64, 62
1, 335562, Control_c, 0, 64, 67
1, 335576, Control_c, 0, 64, 71
1, 335579, Note_off_c, 0, 65, 49
1, 335591, Control_c, 0, 64, 76
1, 335606, Control_c, 0, 64, 82
1, 335621, Control_c, 0, 64, 88
1, 335636, Control_c, 0, 64, 94
1, 335648, Note_off_c, 0, 62, 39
1, 335651, Control_c, 0, 64, 100
1, 335662, Note_off_c, 0, 69, 30
1, 335666, Control_c, 0, 64, 105
1, 335680, Control_c, 0, 64, 110
1, 335687, Note_off_c, 0, 59, 40
1, 335695, Control_c, 0, 64, 114
1, 335697, Note_off_c, 0, 55, 45
1, 335710, Control_c, 0, 64, 118
1, 335725, Control_c, 0, 64, 122
1, 336014, Control_c, 0, 64, 120
1, 336028, Control_c, 0, 64, 112
1, 336043, Control_c, 0, 64, 99
1, 336058, Control_c, 0, 64, 86
1, 336072, Control_c, 0, 64, 73
1, 336079, Note_on_c, 0, 69, 59
1, 336087, Control_c, 0, 64, 62
1, 336089, Note_on_c, 0, 62, 42
1, 336089, Note_on_c, 0, 65, 53
1, 336094, Note_on_c, 0, 59, 39
1, 336102, Control_c, 0, 64, 51
1, 336104, Note_on_c, 0, 55, 37
1, 336117, Control_c, 0, 64, 40
1, 336148, Control_c, 0, 64, 48
1, 336163, Control_c, 0, 64, 55
1, 336177, Control_c, 0, 64, 60
1, 336192, Control_c, 0, 64, 63
1, 336207, Control_c, 0, 64, 65
1, 336222, Control_c, 0, 64, 68
1, 336237, Control_c, 0, 64, 72
1, 336251, Control_c, 0, 64, 76
1, 336266, Control_c, 0, 64, 78
1, 336281, Control_c, 0, 64, 80
1, 336295, Control_c, 0, 64, 81
1, 336310, Control_c, 0, 64, 82
1, 336325, Control_c, 0, 64, 83
1, 336340, Control_c, 0, 64, 85
1, 336344, Note_off_c, 0, 59, 40
1, 336355, Control_c, 0, 64, 86
1, 336358, Note_off_c, 0, 55, 34
1, 336518, Control_c, 0, 64, 84
1, 336533, Control_c, 0, 64, 78
1, 336548, Control_c, 0, 64, 70
1, 336558, Note_off_c, 0, 65, 39
1, 336560, Note_off_c, 0, 62, 62
1, 336563, Control_c, 0, 64, 61
1, 336566, Note_off_c, 0, 69, 56
1, 336575, Note_on_c, 0, 64, 50
1, 336577, Control_c, 0, 64, 48
1, 336581, Note_on_c, 0, 67, 58
1, 336592, Control_c, 0, 64, 27
1, 336599, Note_on_c, 0, 60, 40
1, 336606, Note_on_c, 0, 55, 36
1, 336607, Control_c, 0, 64, 0
1, 336673, Control_c, 0, 64, 30
1, 336688, Control_c, 0, 64, 51
1, 336703, Control_c, 0, 64, 62
1, 336718, Control_c, 0, 64, 67
1, 336733, Control_c, 0, 64, 70
1, 336748, Control_c, 0, 64, 74
1, 336754, Note_off_c, 0, 64, 64
1, 336763, Control_c, 0, 64, 77
1, 336770, Note_off_c, 0, 67, 64
1, 336777, Control_c, 0, 64, 81
1, 336787, Note_off_c, 0, 60, 55
1, 336789, Note_off_c, 0, 55, 42
1, 336792, Control_c, 0, 64, 83
1, 336807, Control_c, 0, 64, 86
1, 336821, Control_c, 0, 64, 88
1, 336836, Control_c, 0, 64, 91
1, 336851, Control_c, 0, 64, 92
1, 336866, Control_c, 0, 64, 93
1, 336881, Control_c, 0, 64, 94
1, 336910, Control_c, 0, 64, 95
1, 337060, Control_c, 0, 64, 94
1, 337074, Control_c, 0, 64, 88
1, 337089, Control_c, 0, 64, 79
1, 337094, Note_on_c, 0, 67, 63
1, 337104, Control_c, 0, 64, 67
1, 337110, Note_on_c, 0, 60, 47
1, 337115, Note_on_c, 0, 64, 54
1, 337118, Control_c, 0, 64, 55
1, 337125, Note_on_c, 0, 55, 29
1, 337133, Control_c, 0, 64, 32
1, 337148, Control_c, 0, 64, 19
1, 337163, Control_c, 0, 64, 23
1, 337178, Control_c, 0, 64, 36
1, 337192, Control_c, 0, 64, 48
1, 337207, Control_c, 0, 64, 59
1, 337222, Control_c, 0, 64, 65
1, 337237, Control_c, 0, 64, 70
1, 337252, Control_c, 0, 64, 76
1, 337267, Control_c, 0, 64, 80
1, 337282, Control_c, 0, 64, 83
1, 337296, Control_c, 0, 64, 87
1, 337311, Control_c, 0, 64, 92
1, 337326, Control_c, 0, 64, 101
1, 337341, Control_c, 0, 64, 111
1, 337356, Control_c, 0, 64, 124
1, 337378, Control_c, 0, 64, 127
1, 337424, Note_off_c, 0, 60, 62
1, 337437, Control_c, 0, 67, 127
1, 337451, Control_c, 0, 67, 127
1, 337501, Note_off_c, 0, 55, 36
1, 337541, Control_c, 0, 64, 101
1, 337556, Control_c, 0, 64, 83
1, 337562, Note_on_c, 0, 69, 64
1, 337571, Control_c, 0, 64, 66
1, 337586, Control_c, 0, 64, 46
1, 337586, Note_on_c, 0, 62, 52
1, 337586, Note_off_c, 0, 64, 57
1, 337588, Note_on_c, 0, 65, 49
1, 337589, Note_on_c, 0, 59, 49
1, 337594, Note_on_c, 0, 55, 50
1, 337600, Control_c, 0, 64, 0
1, 337658, Note_off_c, 0, 67, 34
1, 337704, Control_c, 0, 64, 17
1, 337718, Control_c, 0, 64, 44
1, 337733, Control_c, 0, 64, 59
1, 337749, Control_c, 0, 64, 64
1, 337764, Control_c, 0, 64, 66
1, 337779, Control_c, 0, 64, 70
1, 337794, Control_c, 0, 64, 76
1, 337809, Control_c, 0, 64, 83
1, 337809, Note_off_c, 0, 62, 43
1, 337812, Note_off_c, 0, 65, 50
1, 337813, Note_off_c, 0, 69, 62
1, 337823, Control_c, 0, 64, 90
1, 337838, Control_c, 0, 64, 95
1, 337853, Control_c, 0, 64, 96
1, 337867, Control_c, 0, 64, 97
1, 337882, Control_c, 0, 64, 98
1, 337897, Control_c, 0, 64, 99
1, 337910, Note_off_c, 0, 55, 29
1, 337912, Control_c, 0, 64, 100
1, 337927, Control_c, 0, 64, 101
1, 337932, Note_off_c, 0, 59, 26
1, 338030, Control_c, 0, 64, 100
1, 338045, Control_c, 0, 64, 93
1, 338060, Control_c, 0, 64, 81
1, 338074, Control_c, 0, 64, 67
1, 338083, Note_on_c, 0, 69, 60
1, 338089, Control_c, 0, 64, 51
1, 338091, Note_on_c, 0, 65, 46
1, 338093, Note_on_c, 0, 59, 39
1, 338099, Note_on_c, 0, 55, 41
1, 338102, Note_on_c, 0, 62, 43
1, 338104, Control_c, 0, 64, 0
1, 338171, Control_c, 0, 64, 31
1, 338186, Control_c, 0, 64, 48
1, 338201, Control_c, 0, 64, 58
1, 338215, Control_c, 0, 64, 64
1, 338215, Control_c, 0, 67, 127
1, 338230, Control_c, 0, 64, 68
1, 338230, Control_c, 0, 67, 126
1, 338245, Control_c, 0, 64, 73
1, 338245, Control_c, 0, 67, 123
1, 338260, Control_c, 0, 64, 78
1, 338260, Control_c, 0, 67, 120
1, 338274, Control_c, 0, 64, 83
1, 338274, Control_c, 0, 67, 119
1, 338289, Control_c, 0, 64, 89
1, 338289, Control_c, 0, 67, 118
1, 338304, Control_c, 0, 64, 96
1, 338304, Control_c, 0, 67, 115
1, 338318, Note_off_c, 0, 59, 48
1, 338319, Control_c, 0, 64, 105
1, 338319, Control_c, 0, 67, 112
1, 338334, Control_c, 0, 64, 124
1, 338334, Control_c, 0, 67, 110
1, 338345, Note_off_c, 0, 55, 40
1, 338349, Control_c, 0, 64, 127
1, 338364, Control_c, 0, 67, 108
1, 338378, Control_c, 0, 67, 105
1, 338393, Control_c, 0, 67, 101
1, 338408, Control_c, 0, 67, 97
1, 338423, Control_c, 0, 67, 96
1, 338438, Control_c, 0, 67, 95
1, 338453, Control_c, 0, 67, 95
1, 338467, Control_c, 0, 67, 94
1, 338482, Control_c, 0, 67, 91
1, 338497, Control_c, 0, 67, 87
1, 338512, Control_c, 0, 67, 83
1, 338527, Control_c, 0, 67, 81
1, 338542, Note_off_c, 0, 65, 36
1, 338557, Control_c, 0, 64, 90
1, 338557, Control_c, 0, 67, 82
1, 338569, Note_on_c, 0, 67, 68
1, 338569, Note_off_c, 0, 62, 56
1, 338570, Note_off_c, 0, 69, 61
1, 338572, Control_c, 0, 64, 70
1, 338572, Control_c, 0, 67, 85
1, 338578, Note_on_c, 0, 60, 54
1, 338578, Note_on_c, 0, 64, 51
1, 338584, Note_on_c, 0, 55, 39
1, 338587, Control_c, 0, 64, 49
1, 338587, Control_c, 0, 67, 88
1, 338602, Control_c, 0, 64, 0
1, 338602, Control_c, 0, 67, 92
1, 338617, Control_c, 0, 67, 92
1, 338632, Control_c, 0, 67, 91
1, 338690, Control_c, 0, 64, 40
1, 338705, Control_c, 0, 64, 56
1, 338720, Control_c, 0, 64, 64
1, 338720, Control_c, 0, 67, 91
1, 338735, Control_c, 0, 64, 70
1, 338735, Control_c, 0, 67, 92
1, 338750, Control_c, 0, 64, 76
1, 338764, Control_c, 0, 64, 83
1, 338779, Control_c, 0, 64, 87
1, 338794, Control_c, 0, 64, 90
1, 338794, Control_c, 0, 67, 92
1, 338807, Note_off_c, 0, 64, 43
1, 338809, Control_c, 0, 64, 94
1, 338822, Note_off_c, 0, 67, 58
1, 338824, Control_c, 0, 64, 98
1, 338832, Note_off_c, 0, 55, 38
1, 338838, Control_c, 0, 64, 105
1, 338844, Note_off_c, 0, 60, 36
1, 338853, Control_c, 0, 64, 115
1, 338853, Control_c, 0, 67, 92
1, 338876, Control_c, 0, 64, 127
1, 338891, Control_c, 0, 67, 92
1, 338920, Control_c, 0, 67, 91
1, 338935, Control_c, 0, 67, 90
1, 338950, Control_c, 0, 67, 90
1, 339009, Control_c, 0, 67, 89
1, 339024, Control_c, 0, 67, 88
1, 339068, Control_c, 0, 67, 87
1, 339083, Control_c, 0, 67, 85
1, 339097, Control_c, 0, 67, 84
1, 339112, Control_c, 0, 64, 109
1, 339112, Control_c, 0, 67, 83
1, 339127, Control_c, 0, 64, 92
1, 339127, Control_c, 0, 67, 83
1, 339142, Control_c, 0, 64, 72
1, 339147, Note_on_c, 0, 67, 65
1, 339151, Note_on_c, 0, 60, 32
1, 339156, Note_on_c, 0, 64, 54
1, 339157, Control_c, 0, 64, 58
1, 339159, Note_on_c, 0, 55, 25
1, 339171, Control_c, 0, 64, 36
1, 339187, Control_c, 0, 64, 0
1, 339187, Control_c, 0, 67, 82
1, 339202, Control_c, 0, 67, 80
1, 339216, Control_c, 0, 67, 80
1, 339231, Control_c, 0, 64, 19
1, 339231, Control_c, 0, 67, 79
1, 339246, Control_c, 0, 64, 44
1, 339246, Control_c, 0, 67, 75
1, 339261, Control_c, 0, 64, 58
1, 339261, Control_c, 0, 67, 65
1, 339276, Control_c, 0, 64, 64
1, 339276, Control_c, 0, 67, 43
1, 339291, Control_c, 0, 64, 66
1, 339291, Control_c, 0, 67, 19
1, 339306, Control_c, 0, 64, 67
1, 339306, Control_c, 0, 67, 0
1, 339320, Control_c, 0, 64, 68
1, 339336, Control_c, 0, 64, 70
1, 339351, Control_c, 0, 64, 72
1, 339366, Control_c, 0, 64, 73
1, 339372, Note_off_c, 0, 60, 56
1, 339381, Control_c, 0, 64, 74
1, 339395, Control_c, 0, 64, 74
1, 339410, Control_c, 0, 64, 75
1, 339425, Control_c, 0, 64, 75
1, 339440, Control_c, 0, 64, 76
1, 339475, Note_off_c, 0, 55, 36
1, 339574, Control_c, 0, 64, 74
1, 339588, Control_c, 0, 64, 70
1, 339603, Control_c, 0, 64, 63
1, 339625, Control_c, 0, 64, 46
1, 339639, Control_c, 0, 64, 0
1, 339646, Note_on_c, 0, 69, 63
1, 339653, Note_on_c, 0, 65, 53
1, 339654, Control_c, 0, 67, 9
1, 339656, Note_off_c, 0, 67, 53
1, 339661, Note_on_c, 0, 59, 42
1, 339661, Note_off_c, 0, 64, 43
1, 339667, Note_on_c, 0, 62, 51
1, 339669, Control_c, 0, 67, 10
1, 339675, Poly_aftertouch_c, 0, 55, 127
1, 339684, Control_c, 0, 67, 11
1, 339714, Control_c, 0, 67, 12
1, 339774, Control_c, 0, 64, 24
1, 339788, Control_c, 0, 64, 38
1, 339803, Control_c, 0, 64, 51
1, 339818, Control_c, 0, 64, 60
1, 339833, Control_c, 0, 64, 65
1, 339847, Control_c, 0, 64, 68
1, 339862, Control_c, 0, 64, 71
1, 339877, Control_c, 0, 64, 74
1, 339892, Control_c, 0, 64, 77
1, 339907, Control_c, 0, 64, 80
1, 339907, Control_c, 0, 67, 12
1, 339921, Control_c, 0, 64, 83
1, 339922, Note_off_c, 0, 65, 29
1, 339929, Note_off_c, 0, 69, 50
1, 339929, Poly_aftertouch_c, 0, 55, 0
1, 339936, Control_c, 0, 64, 85
1, 339936, Control_c, 0, 67, 13
1, 339946, Note_off_c, 0, 59, 42
1, 339949, Note_off_c, 0, 62, 37
1, 339951, Control_c, 0, 64, 88
1, 339951, Control_c, 0, 67, 14
1, 339966, Control_c, 0, 64, 91
1, 339966, Control_c, 0, 67, 14
1, 339981, Control_c, 0, 64, 92
1, 339981, Control_c, 0, 67, 18
1, 339995, Control_c, 0, 64, 93
1, 339995, Control_c, 0, 67, 23
1, 340010, Control_c, 0, 64, 93
1, 340010, Control_c, 0, 67, 27
1, 340025, Control_c, 0, 67, 31
1, 340039, Control_c, 0, 67, 34
1, 340054, Control_c, 0, 67, 36
1, 340069, Control_c, 0, 67, 37
1, 340084, Control_c, 0, 67, 38
1, 340099, Control_c, 0, 67, 39
1, 340113, Control_c, 0, 67, 41
1, 340128, Control_c, 0, 67, 45
1, 340144, Control_c, 0, 67, 49
1, 340159, Control_c, 0, 67, 53
1, 340174, Control_c, 0, 67, 59
1, 340189, Control_c, 0, 67, 65
1, 340204, Control_c, 0, 64, 90
1, 340204, Control_c, 0, 67, 71
1, 340218, Control_c, 0, 64, 82
1, 340218, Control_c, 0, 67, 78
1, 340233, Control_c, 0, 64, 71
1, 340233, Control_c, 0, 67, 88
1, 340248, Control_c, 0, 64, 57
1, 340248, Control_c, 0, 67, 95
1, 340257, Note_on_c, 0, 69, 47
1, 340262, Control_c, 0, 64, 37
1, 340262, Control_c, 0, 67, 99
1, 340271, Note_on_c, 0, 62, 34
1, 340274, Note_on_c, 0, 59, 30
1, 340274, Note_on_c, 0, 65, 39
1, 340277, Control_c, 0, 64, 0
1, 340277, Control_c, 0, 67, 101
1, 340278, Note_on_c, 0, 55, 23
1, 340292, Control_c, 0, 67, 104
1, 340307, Control_c, 0, 67, 106
1, 340322, Control_c, 0, 67, 109
1, 340337, Control_c, 0, 67, 111
1, 340352, Control_c, 0, 64, 27
1, 340352, Control_c, 0, 67, 111
1, 340374, Control_c, 0, 64, 46
1, 340389, Control_c, 0, 64, 58
1, 340404, Control_c, 0, 64, 64
1, 340418, Control_c, 0, 64, 68
1, 340433, Control_c, 0, 64, 70
1, 340448, Control_c, 0, 64, 74
1, 340448, Control_c, 0, 67, 111
1, 340463, Control_c, 0, 64, 77
1, 340463, Control_c, 0, 67, 110
1, 340477, Control_c, 0, 64, 80
1, 340492, Control_c, 0, 64, 82
1, 340498, Note_off_c, 0, 59, 41
1, 340507, Control_c, 0, 64, 84
1, 340508, Note_off_c, 0, 55, 39
1, 340522, Control_c, 0, 64, 86
1, 340522, Control_c, 0, 67, 110
1, 340537, Control_c, 0, 64, 88
1, 340537, Control_c, 0, 67, 109
1, 340552, Control_c, 0, 64, 89
1, 340552, Control_c, 0, 67, 109
1, 340566, Control_c, 0, 64, 90
1, 340581, Control_c, 0, 64, 91
1, 340596, Control_c, 0, 64, 91
1, 340611, Control_c, 0, 64, 92
1, 340611, Control_c, 0, 67, 108
1, 340626, Control_c, 0, 67, 108
1, 340641, Control_c, 0, 67, 107
1, 340656, Control_c, 0, 67, 107
1, 340670, Control_c, 0, 67, 106
1, 340684, Control_c, 0, 67, 106
1, 340710, Note_off_c, 0, 65, 27
1, 340729, Control_c, 0, 67, 105
1, 340743, Control_c, 0, 67, 104
1, 340773, Control_c, 0, 67, 105
1, 340847, Control_c, 0, 67, 106
1, 340876, Control_c, 0, 64, 89
1, 340891, Control_c, 0, 64, 84
1, 340891, Control_c, 0, 67, 106
1, 340906, Control_c, 0, 64, 76
1, 340906, Control_c, 0, 67, 107
1, 340916, Note_off_c, 0, 69, 46
1, 340921, Control_c, 0, 64, 67
1, 340921, Control_c, 0, 67, 108
1, 340936, Note_off_c, 0, 62, 29
1, 340937, Control_c, 0, 64, 55
1, 340937, Control_c, 0, 67, 109
1, 340952, Control_c, 0, 64, 25
1, 340952, Control_c, 0, 67, 109
1, 340954, Note_on_c, 0, 67, 46
1, 340966, Control_c, 0, 64, 0
1, 340966, Control_c, 0, 67, 110
1, 340981, Control_c, 0, 67, 110
1, 340985, Note_on_c, 0, 60, 36
1, 340987, Note_on_c, 0, 55, 25
1, 340987, Note_on_c, 0, 64, 32
1, 340996, Control_c, 0, 67, 112
1, 341011, Control_c, 0, 67, 112
1, 341026, Control_c, 0, 67, 113
1, 341040, Control_c, 0, 67, 113
1, 341055, Control_c, 0, 67, 114
1, 341085, Control_c, 0, 67, 115
1, 341152, Control_c, 0, 67, 114
1, 341166, Control_c, 0, 64, 28
1, 341181, Control_c, 0, 64, 48
1, 341181, Control_c, 0, 67, 114
1, 341196, Control_c, 0, 64, 59
1, 341196, Control_c, 0, 67, 113
1, 341211, Control_c, 0, 64, 63
1, 341211, Control_c, 0, 67, 112
1, 341226, Control_c, 0, 64, 65
1, 341226, Control_c, 0, 67, 111
1, 341240, Control_c, 0, 64, 66
1, 341255, Control_c, 0, 64, 69
1, 341255, Control_c, 0, 67, 110
1, 341270, Control_c, 0, 64, 72
1, 341270, Control_c, 0, 67, 110
1, 341276, Note_off_c, 0, 60, 40
1, 341285, Control_c, 0, 64, 76
1, 341285, Control_c, 0, 67, 108
1, 341290, Note_off_c, 0, 55, 38
1, 341300, Control_c, 0, 64, 78
1, 341315, Control_c, 0, 64, 80
1, 341330, Control_c, 0, 64, 81
1, 341344, Note_off_c, 0, 64, 42
1, 341344, Control_c, 0, 64, 82
1, 341359, Control_c, 0, 64, 83
1, 341359, Control_c, 0, 67, 108
1, 341374, Control_c, 0, 64, 84
1, 341383, Note_off_c, 0, 67, 46
1, 341389, Control_c, 0, 64, 85
1, 341389, Control_c, 0, 67, 108
1, 341419, Control_c, 0, 64, 85
1, 341434, Control_c, 0, 64, 86
1, 341434, Control_c, 0, 67, 108
1, 341478, Control_c, 0, 67, 108
1, 341507, Control_c, 0, 67, 108
1, 341625, Control_c, 0, 67, 108
1, 341699, Control_c, 0, 67, 109
1, 341714, Control_c, 0, 67, 110
1, 341775, Control_c, 0, 67, 110
1, 341789, Control_c, 0, 67, 111
1, 341871, Control_c, 0, 67, 111
1, 341901, Control_c, 0, 64, 85
1, 341945, Control_c, 0, 64, 85
1, 341960, Control_c, 0, 64, 84
1, 341989, Control_c, 0, 64, 84
1, 342004, Control_c, 0, 64, 83
1, 342004, Control_c, 0, 67, 111
1, 342019, Control_c, 0, 64, 81
1, 342033, Control_c, 0, 64, 79
1, 342048, Control_c, 0, 64, 78
1, 342063, Control_c, 0, 64, 76
1, 342078, Control_c, 0, 64, 74
1, 342093, Control_c, 0, 64, 71
1, 342108, Control_c, 0, 64, 67
1, 342123, Control_c, 0, 64, 64
1, 342137, Control_c, 0, 64, 60
1, 342152, Control_c, 0, 64, 58
1, 342197, Control_c, 0, 64, 58
1, 342212, Control_c, 0, 64, 57
1, 342227, Control_c, 0, 64, 56
1, 342241, Control_c, 0, 64, 56
1, 342256, Control_c, 0, 64, 55
1, 342271, Control_c, 0, 64, 55
1, 342330, Control_c, 0, 67, 110
1, 342404, Control_c, 0, 64, 55
1, 342404, Control_c, 0, 67, 110
1, 342419, Control_c, 0, 64, 56
1, 342433, Control_c, 0, 64, 57
1, 342448, Control_c, 0, 64, 59
1, 342448, Control_c, 0, 67, 109
1, 342463, Control_c, 0, 64, 60
1, 342463, Control_c, 0, 67, 109
1, 342478, Control_c, 0, 64, 61
1, 342478, Control_c, 0, 67, 108
1, 342493, Control_c, 0, 64, 62
1, 342507, Control_c, 0, 64, 63
1, 342522, Note_on_c, 0, 72, 40
1, 342522, Control_c, 0, 64, 64
1, 342522, Control_c, 0, 67, 108
1, 342538, Control_c, 0, 64, 65
1, 342542, Note_on_c, 0, 70, 35
1, 342553, Control_c, 0, 64, 66
1, 342553, Control_c, 0, 67, 107
1, 342568, Control_c, 0, 64, 67
1, 342583, Control_c, 0, 64, 68
1, 342598, Control_c, 0, 64, 69
1, 342598, Control_c, 0, 67, 107
1, 342620, Control_c, 0, 64, 70
1, 342635, Control_c, 0, 64, 70
1, 342635, Control_c, 0, 67, 106
1, 342705, Note_off_c, 0, 70, 39
1, 342707, Note_on_c, 0, 76, 55
1, 342709, Control_c, 0, 64, 70
1, 342713, Note_on_c, 0, 73, 45
1, 342724, Control_c, 0, 64, 68
1, 342724, Control_c, 0, 67, 107
1, 342738, Control_c, 0, 64, 65
1, 342738, Control_c, 0, 67, 107
1, 342753, Control_c, 0, 64, 61
1, 342753, Control_c, 0, 67, 108
1, 342768, Control_c, 0, 64, 53
1, 342776, Note_off_c, 0, 72, 29
1, 342783, Control_c, 0, 64, 42
1, 342798, Control_c, 0, 64, 10
1, 342802, Note_on_c, 0, 79, 71
1, 342809, Note_on_c, 0, 78, 60
1, 342812, Note_off_c, 0, 73, 57
1, 342812, Control_c, 0, 64, 0
1, 342825, Note_off_c, 0, 76, 58
1, 342827, Control_c, 0, 67, 108
1, 342906, Note_off_c, 0, 79, 61
1, 342907, Note_off_c, 0, 78, 59
1, 342911, Note_on_c, 0, 84, 76
1, 342922, Note_on_c, 0, 82, 61
1, 342932, Control_c, 0, 67, 108
1, 342991, Control_c, 0, 67, 107
1, 343005, Control_c, 0, 67, 107
1, 343020, Control_c, 0, 67, 106
1, 343035, Control_c, 0, 67, 106
1, 343079, Control_c, 0, 67, 105
1, 343094, Control_c, 0, 67, 105
1, 343124, Control_c, 0, 64, 9
1, 343139, Control_c, 0, 64, 19
1, 343154, Control_c, 0, 64, 27
1, 343169, Control_c, 0, 64, 37
1, 343169, Control_c, 0, 67, 104
1, 343184, Control_c, 0, 64, 48
1, 343184, Control_c, 0, 67, 104
1, 343199, Control_c, 0, 64, 54
1, 343199, Control_c, 0, 67, 103
1, 343213, Control_c, 0, 64, 56
1, 343228, Control_c, 0, 64, 57
1, 343243, Control_c, 0, 64, 59
1, 343257, Control_c, 0, 64, 62
1, 343257, Control_c, 0, 67, 103
1, 343272, Control_c, 0, 64, 64
1, 343287, Control_c, 0, 64, 66
1, 343287, Control_c, 0, 67, 102
1, 343302, Control_c, 0, 64, 69
1, 343317, Control_c, 0, 64, 72
1, 343333, Control_c, 0, 64, 74
1, 343333, Control_c, 0, 67, 102
1, 343348, Control_c, 0, 64, 77
1, 343369, Control_c, 0, 64, 83
1, 343369, Control_c, 0, 67, 101
1, 343384, Control_c, 0, 64, 89
1, 343399, Control_c, 0, 64, 96
1, 343414, Control_c, 0, 64, 104
1, 343429, Control_c, 0, 64, 113
1, 343443, Control_c, 0, 64, 127
1, 343458, Control_c, 0, 67, 101
1, 343503, Control_c, 0, 67, 101
1, 343547, Control_c, 0, 67, 101
1, 343577, Control_c, 0, 67, 101
1, 343651, Control_c, 0, 67, 102
1, 343666, Control_c, 0, 67, 102
1, 343740, Control_c, 0, 67, 103
1, 343828, Control_c, 0, 67, 103
1, 343917, Control_c, 0, 67, 104
1, 343977, Control_c, 0, 67, 105
1, 344207, Control_c, 0, 67, 104
1, 344237, Control_c, 0, 67, 105
1, 344296, Control_c, 0, 67, 105
1, 344325, Control_c, 0, 67, 106
1, 344340, Control_c, 0, 67, 106
1, 344370, Control_c, 0, 67, 107
1, 344385, Control_c, 0, 67, 108
1, 344400, Control_c, 0, 67, 108
1, 344429, Control_c, 0, 67, 109
1, 344458, Control_c, 0, 67, 110
1, 344532, Control_c, 0, 67, 110
1, 344907, Note_off_c, 0, 84, 39
1, 344955, Control_c, 0, 67, 111
1, 345026, Note_off_c, 0, 82, 21
1, 345059, Control_c, 0, 67, 111
1, 345236, Control_c, 0, 67, 112
1, 345384, Control_c, 0, 67, 112
1, 345488, Control_c, 0, 67, 113
1, 345532, Control_c, 0, 67, 113
1, 345547, Control_c, 0, 67, 114
1, 345643, Control_c, 0, 67, 114
1, 345733, Control_c, 0, 67, 115
1, 345807, Control_c, 0, 67, 115
1, 345822, Control_c, 0, 67, 116
1, 346162, Control_c, 0, 67, 115
1, 346192, Control_c, 0, 67, 115
1, 346207, Control_c, 0, 67, 114
1, 346236, Control_c, 0, 67, 114
1, 346281, Control_c, 0, 67, 113
1, 346296, Control_c, 0, 67, 112
1, 346377, Control_c, 0, 67, 112
1, 346392, Control_c, 0, 67, 111
1, 346451, Control_c, 0, 67, 111
1, 346466, Control_c, 0, 67, 110
1, 346495, Control_c, 0, 67, 110
1, 346556, Control_c, 0, 67, 109
1, 346585, Control_c, 0, 67, 109
1, 346721, Note_on_c, 0, 79, 52
1, 346725, Note_on_c, 0, 78, 41
1, 346844, Note_off_c, 0, 78, 0
1, 346844, Note_on_c, 0, 78, 7
1, 346852, Control_c, 0, 67, 108
1, 346926, Control_c, 0, 67, 108
1, 346941, Control_c, 0, 67, 107
1, 346985, Control_c, 0, 67, 107
1, 347000, Control_c, 0, 67, 106
1, 347015, Control_c, 0, 67, 106
1, 347029, Control_c, 0, 67, 105
1, 347074, Control_c, 0, 67, 105
1, 347111, Control_c, 0, 67, 104
1, 347126, Control_c, 0, 67, 103
1, 347141, Control_c, 0, 67, 103
1, 347156, Control_c, 0, 67, 103
1, 347200, Control_c, 0, 67, 103
1, 347229, Control_c, 0, 67, 102
1, 347244, Control_c, 0, 67, 103
1, 347253, Note_on_c, 0, 84, 63
1, 347266, Note_on_c, 0, 82, 43
1, 347276, Note_off_c, 0, 78, 32
1, 347411, Note_off_c, 0, 79, 27
1, 347423, Control_c, 0, 67, 103
1, 347453, Control_c, 0, 67, 104
1, 347601, Control_c, 0, 67, 104
1, 347616, Control_c, 0, 67, 105
1, 347691, Note_off_c, 0, 82, 17
1, 347705, Control_c, 0, 67, 105
1, 347779, Control_c, 0, 67, 106
1, 347794, Control_c, 0, 67, 106
1, 347890, Control_c, 0, 67, 107
1, 348040, Note_off_c, 0, 84, 53
1, 348052, Note_on_c, 0, 79, 47
1, 348063, Note_on_c, 0, 78, 37
1, 348067, Control_c, 0, 67, 107
1, 348082, Control_c, 0, 67, 107
1, 348112, Control_c, 0, 67, 107
1, 348202, Control_c, 0, 67, 108
1, 348231, Control_c, 0, 67, 108
1, 348468, Control_c, 0, 67, 109
1, 348542, Control_c, 0, 67, 109
1, 348557, Control_c, 0, 67, 110
1, 348654, Control_c, 0, 67, 110
1, 348875, Control_c, 0, 67, 111
1, 349069, Control_c, 0, 64, 124
1, 349113, Control_c, 0, 64, 122
1, 349172, Control_c, 0, 64, 120
1, 349232, Control_c, 0, 64, 119
1, 349235, Note_on_c, 0, 84, 53
1, 349255, Note_on_c, 0, 82, 36
1, 349277, Control_c, 0, 64, 118
1, 349306, Control_c, 0, 67, 111
1, 349309, Note_off_c, 0, 78, 32
1, 349321, Control_c, 0, 64, 117
1, 349372, Control_c, 0, 64, 116
1, 349417, Control_c, 0, 64, 115
1, 349417, Control_c, 0, 67, 112
1, 349453, Note_off_c, 0, 79, 40
1, 349476, Control_c, 0, 64, 115
1, 349506, Control_c, 0, 64, 114
1, 349551, Control_c, 0, 64, 113
1, 349551, Control_c, 0, 67, 112
1, 349595, Control_c, 0, 64, 113
1, 349624, Control_c, 0, 64, 112
1, 349639, Control_c, 0, 64, 111
1, 349654, Control_c, 0, 64, 111
1, 349669, Control_c, 0, 64, 110
1, 349684, Control_c, 0, 64, 109
1, 349698, Control_c, 0, 64, 109
1, 349729, Control_c, 0, 64, 108
1, 349729, Control_c, 0, 67, 113
1, 349744, Control_c, 0, 64, 107
1, 349759, Control_c, 0, 64, 106
1, 349774, Control_c, 0, 64, 105
1, 349789, Control_c, 0, 64, 104
1, 349803, Control_c, 0, 64, 103
1, 349818, Control_c, 0, 64, 103
1, 349833, Control_c, 0, 64, 102
1, 349848, Control_c, 0, 64, 102
1, 349863, Control_c, 0, 67, 113
1, 349877, Control_c, 0, 64, 101
1, 349892, Control_c, 0, 64, 101
1, 349921, Control_c, 0, 64, 100
1, 349936, Control_c, 0, 64, 99
1, 349951, Control_c, 0, 64, 98
1, 349966, Control_c, 0, 64, 97
1, 349981, Control_c, 0, 64, 96
1, 349995, Control_c, 0, 64, 94
1, 350010, Control_c, 0, 64, 92
1, 350010, Control_c, 0, 67, 114
1, 350025, Control_c, 0, 64, 90
1, 350040, Control_c, 0, 64, 88
1, 350055, Control_c, 0, 64, 85
1, 350070, Control_c, 0, 64, 83
1, 350085, Control_c, 0, 64, 81
1, 350107, Control_c, 0, 64, 78
1, 350122, Control_c, 0, 64, 76
1, 350136, Control_c, 0, 64, 74
1, 350136, Control_c, 0, 67, 114
1, 350151, Control_c, 0, 64, 73
1, 350166, Control_c, 0, 64, 72
1, 350181, Control_c, 0, 64, 71
1, 350181, Control_c, 0, 67, 115
1, 350195, Control_c, 0, 64, 71
1, 350195, Control_c, 0, 67, 115
1, 350210, Control_c, 0, 64, 70
1, 350225, Control_c, 0, 64, 69
1, 350240, Control_c, 0, 64, 69
1, 350254, Control_c, 0, 64, 68
1, 350299, Control_c, 0, 64, 68
1, 350359, Control_c, 0, 64, 67
1, 350374, Control_c, 0, 64, 67
1, 350418, Control_c, 0, 64, 66
1, 350448, Control_c, 0, 64, 66
1, 350463, Control_c, 0, 64, 65
1, 350463, Control_c, 0, 67, 116
1, 350478, Control_c, 0, 64, 65
1, 350493, Control_c, 0, 64, 64
1, 350553, Control_c, 0, 64, 64
1, 350553, Control_c, 0, 67, 116
1, 350567, Control_c, 0, 64, 63
1, 350582, Control_c, 0, 64, 63
1, 350597, Control_c, 0, 64, 62
1, 350657, Control_c, 0, 64, 62
1, 350686, Control_c, 0, 64, 61
1, 350686, Control_c, 0, 67, 117
1, 350716, Control_c, 0, 64, 61
1, 350716, Control_c, 0, 67, 117
1, 350731, Control_c, 0, 67, 118
1, 350775, Control_c, 0, 64, 60
1, 350805, Control_c, 0, 64, 59
1, 350834, Control_c, 0, 64, 59
1, 350901, Control_c, 0, 64, 58
1, 350916, Control_c, 0, 64, 58
1, 350931, Control_c, 0, 67, 119
1, 350960, Control_c, 0, 64, 57
1, 351093, Control_c, 0, 67, 119
1, 351152, Note_off_c, 0, 82, 53
1, 351153, Note_off_c, 0, 84, 55
1, 351256, Control_c, 0, 64, 57
1, 351331, Control_c, 0, 64, 56
1, 351405, Control_c, 0, 64, 56
1, 351420, Control_c, 0, 64, 55
1, 351435, Control_c, 0, 64, 55
1, 351435, Control_c, 0, 67, 120
1, 351449, Control_c, 0, 67, 120
1, 351464, Control_c, 0, 67, 121
1, 351523, Control_c, 0, 64, 54
1, 351523, Control_c, 0, 67, 122
1, 351538, Control_c, 0, 67, 122
1, 351553, Control_c, 0, 67, 123
1, 351694, Control_c, 0, 67, 122
1, 351753, Control_c, 0, 64, 55
1, 351753, Control_c, 0, 67, 121
1, 351768, Control_c, 0, 64, 55
1, 351768, Control_c, 0, 67, 120
1, 351782, Control_c, 0, 67, 119
1, 351797, Control_c, 0, 64, 56
1, 351797, Control_c, 0, 67, 117
1, 351812, Control_c, 0, 64, 56
1, 351812, Control_c, 0, 67, 115
1, 351827, Control_c, 0, 64, 57
1, 351827, Control_c, 0, 67, 112
1, 351842, Control_c, 0, 64, 58
1, 351842, Control_c, 0, 67, 109
1, 351856, Control_c, 0, 64, 60
1, 351856, Control_c, 0, 67, 106
1, 351871, Control_c, 0, 64, 61
1, 351871, Control_c, 0, 67, 103
1, 351886, Control_c, 0, 64, 61
1, 351886, Control_c, 0, 67, 99
1, 351900, Control_c, 0, 64, 62
1, 351900, Control_c, 0, 67, 95
1, 351915, Control_c, 0, 64, 64
1, 351915, Control_c, 0, 67, 89
1, 351930, Control_c, 0, 64, 65
1, 351930, Control_c, 0, 67, 82
1, 351945, Control_c, 0, 64, 68
1, 351945, Control_c, 0, 67, 73
1, 351960, Control_c, 0, 64, 71
1, 351960, Control_c, 0, 67, 62
1, 351974, Control_c, 0, 64, 74
1, 351974, Control_c, 0, 67, 48
1, 351989, Control_c, 0, 64, 77
1, 351989, Control_c, 0, 67, 32
1, 352004, Control_c, 0, 64, 81
1, 352004, Control_c, 0, 67, 11
1, 352019, Control_c, 0, 64, 85
1, 352019, Control_c, 0, 67, 0
1, 352034, Control_c, 0, 64, 89
1, 352049, Control_c, 0, 64, 93
1, 352064, Control_c, 0, 64, 99
1, 352079, Control_c, 0, 64, 106
1, 352093, Control_c, 0, 64, 118
1, 352108, Control_c, 0, 64, 127
1, 352605, Control_c, 0, 64, 68
1, 352614, Note_on_c, 0, 75, 76
1, 352620, Note_on_c, 0, 68, 92
1, 352620, Control_c, 0, 64, 0
1, 352621, Note_on_c, 0, 72, 85
1, 352622, Note_on_c, 0, 44, 104
1, 352622, Note_on_c, 0, 80, 87
1, 352626, Note_on_c, 0, 32, 85
1, 352627, Note_on_c, 0, 39, 87
1, 352649, Control_c, 0, 64, 18
1, 352664, Control_c, 0, 64, 75
1, 352679, Control_c, 0, 64, 127
1, 352744, Note_off_c, 0, 68, 60
1, 352749, Note_off_c, 0, 80, 62
1, 352758, Note_off_c, 0, 32, 62
1, 352783, Note_off_c, 0, 39, 62
1, 352788, Note_off_c, 0, 44, 63
1, 352818, Note_off_c, 0, 72, 56
1, 352858, Note_on_c, 0, 68, 104
1, 352858, Note_on_c, 0, 80, 99
1, 352877, Note_off_c, 0, 75, 62
1, 352890, Note_off_c, 0, 68, 68
1, 352899, Note_off_c, 0, 80, 66
1, 353125, Note_on_c, 0, 68, 101
1, 353130, Note_on_c, 0, 56, 89
1, 353170, Note_off_c, 0, 68, 68
1, 353176, Note_off_c, 0, 56, 64
1, 353354, Control_c, 0, 64, 94
1, 353369, Control_c, 0, 64, 78
1, 353384, Control_c, 0, 64, 65
1, 353399, Control_c, 0, 64, 54
1, 353414, Control_c, 0, 64, 44
1, 353429, Control_c, 0, 64, 43
1, 353459, Control_c, 0, 64, 43
1, 353473, Control_c, 0, 64, 44
1, 353488, Control_c, 0, 64, 45
1, 353503, Control_c, 0, 64, 47
1, 353518, Control_c, 0, 64, 51
1, 353533, Control_c, 0, 64, 54
1, 353562, Control_c, 0, 64, 54
1, 353577, Control_c, 0, 64, 54
1, 353592, Control_c, 0, 64, 57
1, 353607, Control_c, 0, 64, 60
1, 353621, Control_c, 0, 64, 63
1, 353636, Control_c, 0, 64, 65
1, 353651, Control_c, 0, 64, 65
1, 353665, Control_c, 0, 64, 66
1, 353680, Control_c, 0, 64, 67
1, 353695, Control_c, 0, 64, 70
1, 353711, Control_c, 0, 64, 74
1, 353726, Control_c, 0, 64, 75
1, 353741, Control_c, 0, 64, 76
1, 353756, Control_c, 0, 64, 77
1, 353770, Control_c, 0, 64, 79
1, 353785, Control_c, 0, 64, 85
1, 353797, Note_on_c, 0, 80, 50
1, 353800, Control_c, 0, 64, 99
1, 353815, Control_c, 0, 64, 127
1, 353830, Note_on_c, 0, 68, 38
1, 353910, Note_off_c, 0, 80, 57
1, 353933, Note_off_c, 0, 68, 43
1, 354044, Control_c, 0, 64, 124
1, 354059, Control_c, 0, 64, 86
1, 354074, Control_c, 0, 64, 73
1, 354088, Control_c, 0, 64, 65
1, 354103, Control_c, 0, 64, 61
1, 354118, Control_c, 0, 64, 59
1, 354132, Note_on_c, 0, 68, 66
1, 354148, Control_c, 0, 64, 60
1, 354156, Note_on_c, 0, 56, 44
1, 354163, Control_c, 0, 64, 66
1, 354177, Control_c, 0, 64, 84
1, 354192, Control_c, 0, 64, 127
1, 354267, Control_c, 0, 64, 100
1, 354282, Control_c, 0, 64, 79
1, 354282, Note_off_c, 0, 68, 38
1, 354291, Note_off_c, 0, 56, 37
1, 354296, Control_c, 0, 64, 66
1, 354311, Control_c, 0, 64, 59
1, 354326, Control_c, 0, 64, 58
1, 354341, Control_c, 0, 64, 64
1, 354348, Note_on_c, 0, 80, 82
1, 354356, Control_c, 0, 64, 81
1, 354365, Note_on_c, 0, 68, 68
1, 354370, Control_c, 0, 64, 127
1, 354420, Note_off_c, 0, 68, 63
1, 354438, Note_off_c, 0, 80, 61
1, 354512, Note_on_c, 0, 68, 101
1, 354517, Note_on_c, 0, 56, 88
1, 354574, Note_off_c, 0, 56, 61
1, 354577, Note_off_c, 0, 68, 63
1, 354659, Note_on_c, 0, 80, 101
1, 354664, Note_on_c, 0, 68, 100
1, 354711, Note_off_c, 0, 68, 65
1, 354733, Note_off_c, 0, 80, 61
1, 354776, Note_on_c, 0, 68, 98
1, 354781, Note_on_c, 0, 56, 89
1, 354824, Note_off_c, 0, 68, 65
1, 354833, Note_off_c, 0, 56, 59
1, 354861, Note_on_c, 0, 80, 105
1, 354863, Note_on_c, 0, 68, 106
1, 354895, Note_off_c, 0, 68, 63
1, 354909, Note_off_c, 0, 80, 62
1, 354961, Note_on_c, 0, 68, 98
1, 354966, Note_on_c, 0, 56, 91
1, 354980, Note_off_c, 0, 68, 72
1, 354988, Note_off_c, 0, 56, 67
1, 355148, Control_c, 0, 64, 87
1, 355163, Control_c, 0, 64, 66
1, 355178, Control_c, 0, 64, 42
1, 355192, Control_c, 0, 64, 0
1, 355265, Note_on_c, 0, 85, 101
1, 355266, Note_on_c, 0, 90, 97
1, 355268, Note_on_c, 0, 82, 105
1, 355271, Note_on_c, 0, 94, 97
1, 355274, Note_on_c, 0, 37, 90
1, 355274, Note_on_c, 0, 42, 87
1, 355275, Note_on_c, 0, 30, 84
1, 355281, Control_c, 0, 64, 75
1, 355296, Control_c, 0, 64, 127
1, 355322, Note_off_c, 0, 30, 66
1, 355323, Note_off_c, 0, 94, 65
1, 355328, Note_off_c, 0, 90, 68
1, 355338, Note_off_c, 0, 82, 66
1, 355340, Note_off_c, 0, 37, 65
1, 355342, Note_off_c, 0, 85, 65
1, 355344, Note_off_c, 0, 42, 63
1, 355568, Note_on_c, 0, 66, 116
1, 355595, Note_off_c, 0, 66, 66
1, 355734, Control_c, 0, 67, 17
1, 355748, Control_c, 0, 67, 16
1, 355763, Control_c, 0, 64, 70
1, 355763, Control_c, 0, 67, 20
1, 355778, Control_c, 0, 64, 0
1, 355808, Control_c, 0, 67, 22
1, 355823, Control_c, 0, 67, 26
1, 355838, Control_c, 0, 67, 33
1, 355853, Control_c, 0, 67, 41
1, 355867, Control_c, 0, 67, 45
1, 355882, Control_c, 0, 67, 48
1, 355897, Control_c, 0, 67, 51
1, 355912, Control_c, 0, 67, 55
1, 355927, Control_c, 0, 67, 55
1, 355941, Control_c, 0, 67, 54
1, 355956, Control_c, 0, 67, 54
1, 355971, Control_c, 0, 67, 53
1, 355985, Control_c, 0, 67, 53
1, 356030, Control_c, 0, 67, 53
1, 356045, Control_c, 0, 67, 53
1, 356059, Control_c, 0, 67, 52
1, 356112, Control_c, 0, 67, 51
1, 356127, Control_c, 0, 67, 50
1, 356142, Control_c, 0, 67, 49
1, 356157, Control_c, 0, 67, 49
1, 356261, Control_c, 0, 67, 48
1, 356335, Control_c, 0, 67, 49
1, 356468, Control_c, 0, 67, 48
1, 356557, Control_c, 0, 67, 48
1, 356690, Control_c, 0, 67, 47
1, 356794, Control_c, 0, 67, 47
1, 356905, Control_c, 0, 67, 46
1, 358113, Control_c, 0, 64, 8
1, 358128, Control_c, 0, 64, 11
1, 358142, Control_c, 0, 64, 16
1, 358157, Control_c, 0, 64, 21
1, 358172, Control_c, 0, 64, 25
1, 358187, Control_c, 0, 64, 27
1, 358246, Control_c, 0, 64, 28
1, 358246, Control_c, 0, 67, 47
1, 358261, Control_c, 0, 64, 29
1, 358261, Control_c, 0, 67, 47
1, 358276, Control_c, 0, 64, 30
1, 358291, Control_c, 0, 64, 31
1, 358306, Control_c, 0, 64, 30
1, 358321, Control_c, 0, 67, 48
1, 358357, Control_c, 0, 67, 48
1, 358387, Control_c, 0, 64, 30
1, 358387, Control_c, 0, 67, 49
1, 358402, Control_c, 0, 64, 29
1, 358431, Control_c, 0, 67, 49
1, 358446, Control_c, 0, 64, 28
1, 358461, Control_c, 0, 64, 27
1, 358461, Control_c, 0, 67, 50
1, 358476, Control_c, 0, 64, 26
1, 358506, Control_c, 0, 67, 50
1, 358536, Control_c, 0, 64, 25
1, 358551, Control_c, 0, 64, 24
1, 358565, Control_c, 0, 64, 23
1, 358580, Control_c, 0, 67, 51
1, 358595, Control_c, 0, 64, 25
1, 358610, Control_c, 0, 64, 26
1, 358655, Control_c, 0, 64, 26
1, 358655, Control_c, 0, 67, 51
1, 358670, Control_c, 0, 64, 29
1, 358684, Control_c, 0, 64, 32
1, 358699, Control_c, 0, 64, 34
1, 358744, Control_c, 0, 64, 35
1, 358788, Control_c, 0, 64, 35
1, 358803, Control_c, 0, 64, 36
1, 358818, Control_c, 0, 64, 37
1, 358832, Control_c, 0, 64, 37
1, 358877, Control_c, 0, 67, 51
1, 358936, Control_c, 0, 67, 50
1, 358980, Control_c, 0, 67, 51
1, 359010, Control_c, 0, 64, 39
1, 359025, Control_c, 0, 64, 40
1, 359039, Control_c, 0, 64, 41
1, 359039, Control_c, 0, 67, 51
1, 359054, Control_c, 0, 64, 42
1, 359054, Control_c, 0, 67, 52
1, 359069, Control_c, 0, 64, 43
1, 359091, Control_c, 0, 64, 44
1, 359106, Control_c, 0, 64, 44
1, 359151, Control_c, 0, 64, 45
1, 359165, Control_c, 0, 64, 45
1, 359165, Control_c, 0, 67, 52
1, 359195, Control_c, 0, 67, 53
1, 359269, Control_c, 0, 64, 45
1, 359284, Control_c, 0, 67, 53
1, 359329, Control_c, 0, 67, 54
1, 359403, Control_c, 0, 67, 54
1, 359448, Control_c, 0, 64, 44
1, 359462, Control_c, 0, 67, 54
1, 359507, Control_c, 0, 67, 54
1, 359522, Control_c, 0, 64, 44
1, 359537, Control_c, 0, 64, 43
1, 359552, Control_c, 0, 64, 43
1, 359567, Control_c, 0, 64, 42
1, 359581, Control_c, 0, 64, 42
1, 359596, Control_c, 0, 64, 41
1, 359625, Control_c, 0, 67, 55
1, 359685, Control_c, 0, 64, 40
1, 359685, Control_c, 0, 67, 55
1, 359714, Control_c, 0, 64, 39
1, 359729, Control_c, 0, 64, 38
1, 359744, Control_c, 0, 64, 37
1, 359759, Control_c, 0, 64, 35
1, 359774, Control_c, 0, 64, 34
1, 359788, Control_c, 0, 64, 33
1, 359788, Control_c, 0, 67, 56
1, 359803, Control_c, 0, 64, 32
1, 359818, Control_c, 0, 64, 31
1, 359840, Control_c, 0, 64, 29
1, 359855, Control_c, 0, 64, 28
1, 359870, Control_c, 0, 64, 26
1, 359885, Control_c, 0, 64, 25
1, 359900, Control_c, 0, 64, 24
1, 360032, Control_c, 0, 64, 25
1, 360047, Control_c, 0, 64, 26
1, 360062, Control_c, 0, 64, 26
1, 360137, Control_c, 0, 64, 27
1, 360152, Control_c, 0, 67, 55
1, 360182, Control_c, 0, 64, 27
1, 360197, Control_c, 0, 64, 28
1, 360211, Control_c, 0, 64, 28
1, 360270, Control_c, 0, 64, 29
1, 360285, Control_c, 0, 64, 29
1, 360315, Control_c, 0, 64, 30
1, 360330, Control_c, 0, 64, 31
1, 360330, Control_c, 0, 67, 55
1, 360345, Control_c, 0, 64, 33
1, 360360, Control_c, 0, 64, 34
1, 360389, Control_c, 0, 67, 54
1, 360404, Control_c, 0, 64, 35
1, 360419, Control_c, 0, 64, 35
1, 360434, Control_c, 0, 64, 36
1, 360434, Control_c, 0, 67, 54
1, 360478, Control_c, 0, 64, 37
1, 360493, Control_c, 0, 64, 37
1, 360493, Control_c, 0, 67, 53
1, 360508, Control_c, 0, 64, 38
1, 360522, Control_c, 0, 67, 53
1, 360552, Control_c, 0, 67, 52
1, 360589, Control_c, 0, 67, 52
1, 360634, Control_c, 0, 64, 37
1, 360634, Control_c, 0, 67, 51
1, 360649, Control_c, 0, 64, 36
1, 360649, Control_c, 0, 67, 51
1, 360663, Control_c, 0, 64, 35
1, 360678, Control_c, 0, 64, 34
1, 360693, Control_c, 0, 64, 33
1, 360708, Control_c, 0, 64, 31
1, 360723, Control_c, 0, 64, 30
1, 360737, Control_c, 0, 64, 29
1, 360752, Control_c, 0, 64, 28
1, 360767, Control_c, 0, 64, 28
1, 360797, Control_c, 0, 67, 50
1, 360885, Control_c, 0, 64, 26
1, 360901, Control_c, 0, 64, 23
1, 360917, Control_c, 0, 64, 18
1, 360932, Control_c, 0, 64, 10
1, 360932, Control_c, 0, 67, 50
1, 360947, Control_c, 0, 64, 0
1, 360947, Control_c, 0, 67, 49
1, 360991, Control_c, 0, 67, 49
1, 361065, Control_c, 0, 67, 48
1, 361094, Control_c, 0, 67, 48
1, 361183, Control_c, 0, 67, 47
1, 361242, Control_c, 0, 67, 47
1, 361272, Control_c, 0, 67, 46
1, 361317, Control_c, 0, 67, 46
1, 361620, Control_c, 0, 67, 45
1, 361635, Control_c, 0, 67, 45
1, 361649, Control_c, 0, 67, 44
1, 361664, Control_c, 0, 67, 43
1, 361678, Control_c, 0, 67, 43
1, 361693, Control_c, 0, 67, 42
1, 361709, Control_c, 0, 67, 41
1, 361724, Control_c, 0, 67, 40
1, 361739, Control_c, 0, 67, 37
1, 361754, Control_c, 0, 67, 32
1, 361769, Control_c, 0, 67, 26
1, 361783, Control_c, 0, 67, 15
1, 361798, Control_c, 0, 67, 0
1, 361857, Control_c, 0, 64, 13
1, 361872, Control_c, 0, 64, 30
1, 361887, Control_c, 0, 64, 41
1, 361901, Control_c, 0, 64, 47
1, 361916, Control_c, 0, 64, 51
1, 361931, Control_c, 0, 64, 53
1, 361946, Control_c, 0, 64, 56
1, 361961, Control_c, 0, 64, 59
1, 361975, Control_c, 0, 64, 61
1, 361990, Control_c, 0, 64, 63
1, 362005, Control_c, 0, 64, 64
1, 362020, Control_c, 0, 64, 65
1, 362035, Control_c, 0, 64, 67
1, 362050, Control_c, 0, 64, 68
1, 362065, Control_c, 0, 64, 70
1, 362087, Control_c, 0, 64, 71
1, 362102, Control_c, 0, 64, 72
1, 362116, Control_c, 0, 64, 73
1, 362131, Control_c, 0, 64, 74
1, 362146, Control_c, 0, 64, 74
1, 362161, Control_c, 0, 64, 76
1, 362176, Control_c, 0, 64, 77
1, 362190, Control_c, 0, 64, 78
1, 362205, Control_c, 0, 64, 80
1, 362220, Control_c, 0, 64, 82
1, 362235, Control_c, 0, 64, 85
1, 362250, Control_c, 0, 64, 88
1, 362264, Control_c, 0, 64, 92
1, 362279, Control_c, 0, 64, 95
1, 362294, Control_c, 0, 64, 99
1, 362309, Control_c, 0, 64, 102
1, 362324, Control_c, 0, 64, 104
1, 362339, Control_c, 0, 64, 104
1, 362518, Control_c, 0, 64, 101
1, 362532, Control_c, 0, 64, 90
1, 362547, Control_c, 0, 64, 75
1, 362562, Control_c, 0, 64, 57
1, 362577, Control_c, 0, 64, 21
1, 362592, Control_c, 0, 64, 0
1, 362621, Control_c, 0, 64, 17
1, 362636, Control_c, 0, 64, 51
1, 362644, Note_on_c, 0, 50, 93
1, 362649, Note_on_c, 0, 38, 80
1, 362650, Control_c, 0, 64, 68
1, 362651, Note_on_c, 0, 42, 82
1, 362653, Note_on_c, 0, 45, 79
1, 362665, Control_c, 0, 64, 88
1, 362674, Note_off_c, 0, 45, 69
1, 362675, Note_off_c, 0, 38, 65
1, 362679, Note_off_c, 0, 42, 68
1, 362680, Control_c, 0, 64, 127
1, 362689, Note_off_c, 0, 50, 66
1, 362875, Note_on_c, 0, 81, 83
1, 362881, Note_on_c, 0, 74, 79
1, 362883, Note_on_c, 0, 66, 77
1, 362886, Note_on_c, 0, 69, 74
1, 362890, Note_on_c, 0, 62, 75
1, 362890, Note_on_c, 0, 78, 72
1, 362917, Note_off_c, 0, 66, 61
1, 362923, Note_off_c, 0, 62, 64
1, 362934, Note_off_c, 0, 69, 66
1, 362935, Note_on_c, 0, 67, 12
1, 362949, Note_off_c, 0, 74, 55
1, 362971, Note_off_c, 0, 81, 63
1, 362983, Note_off_c, 0, 67, 50
1, 363010, Note_on_c, 0, 76, 51
1, 363011, Note_off_c, 0, 78, 57
1, 363029, Note_on_c, 0, 73, 35
1, 363048, Note_off_c, 0, 76, 59
1, 363060, Note_off_c, 0, 73, 48
1, 363099, Note_on_c, 0, 67, 52
1, 363103, Note_on_c, 0, 81, 65
1, 363109, Note_on_c, 0, 71, 53
1, 363113, Note_on_c, 0, 64, 57
1, 363115, Note_on_c, 0, 74, 49
1, 363132, Note_on_c, 0, 78, 45
1, 363141, Note_off_c, 0, 67, 60
1, 363150, Note_off_c, 0, 64, 59
1, 363150, Note_off_c, 0, 71, 60
1, 363152, Note_off_c, 0, 81, 60
1, 363168, Note_off_c, 0, 74, 47
1, 363179, Note_off_c, 0, 78, 55
1, 363189, Note_on_c, 0, 76, 41
1, 363202, Note_on_c, 0, 73, 35
1, 363236, Control_c, 0, 67, 8
1, 363238, Note_off_c, 0, 73, 57
1, 363244, Note_off_c, 0, 76, 55
1, 363250, Control_c, 0, 67, 9
1, 363291, Note_on_c, 0, 81, 77
1, 363292, Note_on_c, 0, 69, 81
1, 363293, Note_on_c, 0, 62, 80
1, 363296, Note_on_c, 0, 66, 75
1, 363296, Note_on_c, 0, 74, 65
1, 363305, Note_on_c, 0, 78, 56
1, 363311, Control_c, 0, 67, 9
1, 363355, Control_c, 0, 67, 10
1, 363360, Note_off_c, 0, 81, 63
1, 363361, Note_off_c, 0, 74, 58
1, 363361, Note_off_c, 0, 69, 63
1, 363370, Control_c, 0, 67, 10
1, 363376, Note_off_c, 0, 66, 51
1, 363379, Note_on_c, 0, 76, 52
1, 363385, Note_off_c, 0, 62, 61
1, 363385, Control_c, 0, 67, 11
1, 363400, Control_c, 0, 67, 11
1, 363400, Note_off_c, 0, 78, 59
1, 363404, Note_on_c, 0, 73, 39
1, 363431, Note_off_c, 0, 76, 58
1, 363431, Note_off_c, 0, 73, 54
1, 363444, Control_c, 0, 67, 12
1, 363459, Control_c, 0, 67, 12
1, 363473, Control_c, 0, 67, 13
1, 363488, Control_c, 0, 67, 14
1, 363495, Note_on_c, 0, 81, 57
1, 363503, Control_c, 0, 67, 14
1, 363505, Note_on_c, 0, 74, 36
1, 363505, Note_on_c, 0, 71, 55
1, 363510, Note_on_c, 0, 67, 38
1, 363511, Note_on_c, 0, 64, 55
1, 363517, Note_on_c, 0, 78, 51
1, 363545, Note_off_c, 0, 81, 63
1, 363547, Control_c, 0, 67, 15
1, 363551, Note_off_c, 0, 67, 48
1, 363557, Note_off_c, 0, 64, 60
1, 363560, Note_off_c, 0, 71, 58
1, 363562, Control_c, 0, 67, 15
1, 363563, Note_off_c, 0, 74, 43
1, 363569, Note_on_c, 0, 76, 53
1, 363583, Note_off_c, 0, 78, 57
1, 363585, Control_c, 0, 67, 17
1, 363591, Note_on_c, 0, 73, 43
1, 363600, Control_c, 0, 67, 19
1, 363615, Control_c, 0, 67, 19
1, 363626, Note_off_c, 0, 73, 64
1, 363626, Note_off_c, 0, 76, 57
1, 363629, Control_c, 0, 67, 21
1, 363644, Control_c, 0, 67, 24
1, 363659, Control_c, 0, 67, 28
1, 363674, Control_c, 0, 67, 31
1, 363686, Note_on_c, 0, 81, 76
1, 363688, Control_c, 0, 67, 33
1, 363692, Note_on_c, 0, 74, 68
1, 363701, Note_on_c, 0, 78, 62
1, 363702, Note_on_c, 0, 69, 72
1, 363703, Control_c, 0, 67, 34
1, 363707, Note_on_c, 0, 62, 64
1, 363710, Note_on_c, 0, 66, 60
1, 363718, Control_c, 0, 67, 36
1, 363733, Control_c, 0, 67, 38
1, 363747, Note_off_c, 0, 66, 61
1, 363748, Control_c, 0, 67, 41
1, 363749, Note_off_c, 0, 69, 61
1, 363753, Note_off_c, 0, 62, 62
1, 363758, Note_off_c, 0, 81, 63
1, 363758, Note_off_c, 0, 74, 55
1, 363762, Control_c, 0, 67, 45
1, 363777, Control_c, 0, 67, 47
1, 363792, Control_c, 0, 67, 49
1, 363801, Note_off_c, 0, 78, 55
1, 363803, Note_on_c, 0, 76, 42
1, 363807, Control_c, 0, 67, 51
1, 363810, Note_on_c, 0, 73, 37
1, 363822, Control_c, 0, 67, 52
1, 363835, Note_off_c, 0, 76, 52
1, 363836, Control_c, 0, 67, 53
1, 363838, Note_off_c, 0, 73, 51
1, 363851, Control_c, 0, 67, 54
1, 363866, Control_c, 0, 67, 54
1, 363880, Control_c, 0, 67, 55
1, 363884, Note_on_c, 0, 71, 56
1, 363889, Note_on_c, 0, 74, 52
1, 363894, Note_on_c, 0, 81, 57
1, 363896, Control_c, 0, 67, 57
1, 363899, Note_on_c, 0, 64, 53
1, 363905, Note_on_c, 0, 67, 45
1, 363909, Note_on_c, 0, 78, 57
1, 363911, Control_c, 0, 67, 58
1, 363926, Control_c, 0, 67, 59
1, 363937, Note_off_c, 0, 64, 63
1, 363937, Note_off_c, 0, 81, 62
1, 363939, Note_off_c, 0, 71, 56
1, 363941, Note_off_c, 0, 67, 50
1, 363941, Control_c, 0, 67, 60
1, 363952, Note_off_c, 0, 74, 63
1, 363955, Control_c, 0, 67, 61
1, 363961, Note_on_c, 0, 76, 44
1, 363970, Control_c, 0, 67, 61
1, 363976, Note_off_c, 0, 78, 56
1, 363976, Note_on_c, 0, 73, 40
1, 363985, Control_c, 0, 67, 63
1, 363999, Control_c, 0, 67, 64
1, 364012, Note_off_c, 0, 73, 62
1, 364014, Note_off_c, 0, 76, 58
1, 364014, Control_c, 0, 67, 65
1, 364029, Control_c, 0, 67, 67
1, 364044, Control_c, 0, 67, 69
1, 364059, Control_c, 0, 67, 72
1, 364074, Control_c, 0, 67, 76
1, 364081, Note_on_c, 0, 81, 72
1, 364084, Note_on_c, 0, 74, 59
1, 364089, Control_c, 0, 67, 82
1, 364090, Note_on_c, 0, 62, 60
1, 364093, Note_on_c, 0, 69, 57
1, 364094, Note_on_c, 0, 66, 56
1, 364099, Note_on_c, 0, 78, 63
1, 364104, Control_c, 0, 67, 86
1, 364119, Control_c, 0, 67, 89
1, 364134, Control_c, 0, 67, 92
1, 364135, Note_off_c, 0, 66, 60
1, 364136, Note_off_c, 0, 69, 64
1, 364138, Note_off_c, 0, 81, 64
1, 364139, Note_off_c, 0, 62, 61
1, 364146, Note_off_c, 0, 74, 65
1, 364149, Control_c, 0, 67, 95
1, 364164, Control_c, 0, 67, 98
1, 364166, Note_on_c, 0, 76, 55
1, 364173, Note_off_c, 0, 78, 57
1, 364178, Control_c, 0, 67, 100
1, 364181, Note_on_c, 0, 73, 46
1, 364206, Note_off_c, 0, 73, 60
1, 364208, Note_off_c, 0, 76, 59
1, 364223, Control_c, 0, 67, 101
1, 364253, Control_c, 0, 67, 101
1, 364267, Note_on_c, 0, 74, 63
1, 364268, Note_on_c, 0, 81, 67
1, 364268, Control_c, 0, 67, 102
1, 364277, Note_on_c, 0, 71, 54
1, 364283, Control_c, 0, 67, 102
1, 364289, Note_on_c, 0, 64, 51
1, 364297, Control_c, 0, 67, 103
1, 364305, Note_on_c, 0, 78, 53
1, 364306, Note_on_c, 0, 67, 22
1, 364312, Control_c, 0, 67, 103
1, 364331, Note_off_c, 0, 81, 64
1, 364334, Control_c, 0, 67, 105
1, 364336, Note_off_c, 0, 71, 55
1, 364338, Note_off_c, 0, 74, 61
1, 364339, Note_off_c, 0, 64, 60
1, 364349, Control_c, 0, 67, 106
1, 364355, Note_off_c, 0, 67, 49
1, 364356, Note_on_c, 0, 76, 58
1, 364359, Note_off_c, 0, 78, 57
1, 364360, Note_on_c, 0, 73, 45
1, 364364, Control_c, 0, 67, 107
1, 364378, Control_c, 0, 67, 109
1, 364393, Control_c, 0, 67, 111
1, 364399, Note_off_c, 0, 73, 62
1, 364403, Note_off_c, 0, 76, 58
1, 364408, Control_c, 0, 67, 115
1, 364423, Control_c, 0, 67, 119
1, 364438, Control_c, 0, 67, 122
1, 364452, Control_c, 0, 67, 124
1, 364463, Note_on_c, 0, 81, 74
1, 364467, Note_on_c, 0, 74, 71
1, 364467, Control_c, 0, 67, 127
1, 364478, Note_on_c, 0, 69, 66
1, 364482, Control_c, 0, 67, 127
1, 364483, Note_on_c, 0, 66, 64
1, 364491, Note_on_c, 0, 62, 58
1, 364493, Note_on_c, 0, 78, 52
1, 364525, Note_off_c, 0, 66, 59
1, 364527, Note_off_c, 0, 69, 59
1, 364528, Note_off_c, 0, 81, 64
1, 364528, Note_off_c, 0, 62, 61
1, 364535, Note_off_c, 0, 74, 63
1, 364557, Note_on_c, 0, 76, 58
1, 364563, Note_on_c, 0, 73, 56
1, 364578, Note_off_c, 0, 78, 58
1, 364595, Note_off_c, 0, 73, 63
1, 364602, Note_off_c, 0, 76, 59
1, 364654, Note_on_c, 0, 74, 68
1, 364657, Note_on_c, 0, 81, 68
1, 364666, Note_on_c, 0, 71, 53
1, 364673, Note_on_c, 0, 64, 51
1, 364675, Note_on_c, 0, 67, 50
1, 364692, Note_on_c, 0, 78, 51
1, 364703, Note_off_c, 0, 67, 56
1, 364703, Note_off_c, 0, 71, 61
1, 364715, Note_off_c, 0, 81, 64
1, 364718, Note_off_c, 0, 74, 63
1, 364719, Note_off_c, 0, 64, 58
1, 364741, Note_on_c, 0, 76, 55
1, 364745, Note_off_c, 0, 78, 58
1, 364748, Note_on_c, 0, 73, 50
1, 364764, Control_c, 0, 67, 127
1, 364778, Control_c, 0, 67, 124
1, 364782, Note_off_c, 0, 73, 61
1, 364784, Note_off_c, 0, 76, 60
1, 364793, Control_c, 0, 67, 121
1, 364808, Control_c, 0, 67, 120
1, 364822, Control_c, 0, 67, 119
1, 364837, Note_on_c, 0, 81, 80
1, 364837, Control_c, 0, 67, 118
1, 364838, Note_on_c, 0, 74, 78
1, 364846, Note_on_c, 0, 62, 59
1, 364848, Note_on_c, 0, 69, 61
1, 364852, Note_on_c, 0, 66, 62
1, 364852, Control_c, 0, 67, 115
1, 364856, Note_on_c, 0, 78, 61
1, 364867, Control_c, 0, 67, 111
1, 364882, Control_c, 0, 67, 107
1, 364891, Note_off_c, 0, 69, 64
1, 364898, Control_c, 0, 67, 105
1, 364900, Note_off_c, 0, 66, 58
1, 364905, Note_off_c, 0, 81, 65
1, 364909, Note_off_c, 0, 74, 62
1, 364909, Note_off_c, 0, 62, 57
1, 364913, Control_c, 0, 67, 105
1, 364925, Note_on_c, 0, 76, 61
1, 364933, Note_on_c, 0, 73, 59
1, 364942, Control_c, 0, 67, 104
1, 364948, Note_off_c, 0, 78, 58
1, 364957, Control_c, 0, 67, 103
1, 364970, Note_off_c, 0, 73, 62
1, 364972, Control_c, 0, 67, 102
1, 364987, Control_c, 0, 67, 101
1, 365005, Note_off_c, 0, 76, 59
1, 365009, Note_on_c, 0, 78, 48
1, 365016, Note_on_c, 0, 71, 55
1, 365018, Note_on_c, 0, 74, 64
1, 365022, Note_on_c, 0, 67, 56
1, 365025, Note_on_c, 0, 64, 62
1, 365028, Note_on_c, 0, 81, 58
1, 365046, Control_c, 0, 67, 102
1, 365055, Note_off_c, 0, 71, 62
1, 365055, Note_off_c, 0, 67, 63
1, 365061, Control_c, 0, 67, 102
1, 365062, Note_off_c, 0, 81, 67
1, 365063, Note_off_c, 0, 64, 62
1, 365081, Note_off_c, 0, 74, 65
1, 365083, Control_c, 0, 67, 103
1, 365096, Note_on_c, 0, 73, 56
1, 365098, Control_c, 0, 67, 104
1, 365106, Note_off_c, 0, 78, 63
1, 365113, Note_on_c, 0, 76, 31
1, 365113, Control_c, 0, 67, 104
1, 365115, Note_off_c, 0, 73, 63
1, 365127, Control_c, 0, 67, 105
1, 365142, Control_c, 0, 67, 106
1, 365148, Note_off_c, 0, 76, 43
1, 365216, Control_c, 0, 67, 106
1, 365222, Note_on_c, 0, 81, 95
1, 365225, Note_on_c, 0, 78, 83
1, 365229, Note_on_c, 0, 74, 58
1, 365240, Note_on_c, 0, 69, 54
1, 365241, Note_on_c, 0, 62, 57
1, 365243, Note_on_c, 0, 66, 64
1, 365246, Control_c, 0, 67, 106
1, 365260, Control_c, 0, 67, 106
1, 365269, Note_off_c, 0, 69, 56
1, 365272, Note_off_c, 0, 74, 59
1, 365275, Note_off_c, 0, 78, 61
1, 365275, Control_c, 0, 67, 107
1, 365278, Note_off_c, 0, 66, 62
1, 365300, Note_off_c, 0, 62, 59
1, 365324, Note_on_c, 0, 79, 83
1, 365335, Control_c, 0, 67, 106
1, 365343, Note_on_c, 0, 83, 66
1, 365377, Note_off_c, 0, 83, 62
1, 365394, Note_off_c, 0, 81, 0
1, 365406, Note_off_c, 0, 79, 45
1, 365407, Note_on_c, 0, 81, 54
1, 365409, Note_on_c, 0, 64, 58
1, 365415, Note_on_c, 0, 71, 61
1, 365417, Note_on_c, 0, 67, 56
1, 365423, Control_c, 0, 67, 107
1, 365425, Note_on_c, 0, 78, 75
1, 365438, Control_c, 0, 67, 108
1, 365448, Note_off_c, 0, 67, 60
1, 365452, Control_c, 0, 67, 109
1, 365457, Note_off_c, 0, 71, 63
1, 365466, Note_off_c, 0, 64, 63
1, 365466, Note_off_c, 0, 81, 64
1, 365482, Control_c, 0, 67, 108
1, 365483, Note_off_c, 0, 78, 53
1, 365508, Note_on_c, 0, 83, 61
1, 365509, Note_on_c, 0, 79, 84
1, 365512, Control_c, 0, 67, 109
1, 365526, Control_c, 0, 67, 109
1, 365527, Note_off_c, 0, 83, 64
1, 365541, Control_c, 0, 67, 110
1, 365563, Note_off_c, 0, 79, 65
1, 365592, Note_on_c, 0, 85, 85
1, 365601, Note_on_c, 0, 66, 63
1, 365603, Note_on_c, 0, 62, 66
1, 365603, Note_on_c, 0, 69, 64
1, 365611, Note_on_c, 0, 81, 70
1, 365615, Control_c, 0, 67, 110
1, 365636, Note_off_c, 0, 69, 64
1, 365637, Note_off_c, 0, 66, 63
1, 365642, Note_off_c, 0, 62, 61
1, 365649, Note_off_c, 0, 85, 63
1, 365660, Control_c, 0, 67, 109
1, 365675, Note_on_c, 0, 83, 75
1, 365675, Control_c, 0, 67, 109
1, 365676, Note_off_c, 0, 81, 61
1, 365685, Note_on_c, 0, 79, 80
1, 365690, Control_c, 0, 67, 108
1, 365705, Control_c, 0, 67, 107
1, 365715, Note_off_c, 0, 83, 64
1, 365720, Control_c, 0, 67, 105
1, 365728, Note_off_c, 0, 79, 66
1, 365735, Control_c, 0, 67, 104
1, 365749, Control_c, 0, 67, 103
1, 365764, Control_c, 0, 67, 103
1, 365774, Note_on_c, 0, 81, 86
1, 365779, Note_on_c, 0, 71, 61
1, 365779, Control_c, 0, 67, 102
1, 365782, Note_on_c, 0, 64, 58
1, 365791, Note_on_c, 0, 67, 50
1, 365792, Note_on_c, 0, 78, 73
1, 365794, Control_c, 0, 67, 101
1, 365809, Control_c, 0, 67, 100
1, 365822, Note_off_c, 0, 71, 61
1, 365824, Note_off_c, 0, 67, 57
1, 365826, Note_off_c, 0, 64, 62
1, 365830, Note_off_c, 0, 81, 63
1, 365831, Control_c, 0, 67, 99
1, 365846, Control_c, 0, 67, 98
1, 365861, Control_c, 0, 67, 97
1, 365862, Note_off_c, 0, 78, 59
1, 365866, Note_on_c, 0, 79, 82
1, 365874, Note_on_c, 0, 76, 72
1, 365875, Control_c, 0, 67, 95
1, 365890, Control_c, 0, 67, 93
1, 365905, Control_c, 0, 67, 91
1, 365913, Note_off_c, 0, 76, 59
1, 365913, Note_off_c, 0, 79, 64
1, 365920, Control_c, 0, 67, 90
1, 365935, Control_c, 0, 67, 89
1, 365949, Note_on_c, 0, 81, 87
1, 365949, Control_c, 0, 67, 89
1, 365958, Note_on_c, 0, 78, 86
1, 365961, Note_on_c, 0, 62, 57
1, 365962, Note_on_c, 0, 69, 59
1, 365964, Control_c, 0, 67, 88
1, 365966, Note_on_c, 0, 66, 56
1, 365979, Control_c, 0, 67, 87
1, 365994, Control_c, 0, 67, 85
1, 365995, Note_off_c, 0, 66, 64
1, 366000, Note_off_c, 0, 69, 64
1, 366000, Note_off_c, 0, 81, 64
1, 366006, Note_off_c, 0, 78, 63
1, 366014, Note_off_c, 0, 62, 64
1, 366039, Note_on_c, 0, 79, 85
1, 366040, Note_on_c, 0, 76, 76
1, 366053, Control_c, 0, 67, 85
1, 366068, Control_c, 0, 67, 84
1, 366080, Note_off_c, 0, 76, 61
1, 366082, Note_on_c, 0, 71, 59
1, 366085, Note_on_c, 0, 64, 66
1, 366089, Note_on_c, 0, 67, 52
1, 366098, Control_c, 0, 67, 84
1, 366101, Note_off_c, 0, 71, 61
1, 366112, Note_off_c, 0, 64, 66
1, 366117, Note_off_c, 0, 67, 56
1, 366123, Note_on_c, 0, 78, 84
1, 366132, Note_off_c, 0, 79, 62
1, 366134, Note_on_c, 0, 74, 81
1, 366219, Note_off_c, 0, 74, 65
1, 366220, Note_on_c, 0, 79, 87
1, 366227, Note_on_c, 0, 76, 72
1, 366231, Control_c, 0, 67, 83
1, 366243, Note_on_c, 0, 50, 92
1, 366246, Control_c, 0, 67, 82
1, 366250, Note_off_c, 0, 78, 64
1, 366256, Note_on_c, 0, 38, 65
1, 366268, Note_off_c, 0, 50, 70
1, 366275, Control_c, 0, 67, 81
1, 366277, Note_off_c, 0, 38, 63
1, 366290, Control_c, 0, 67, 79
1, 366305, Control_c, 0, 67, 74
1, 366320, Control_c, 0, 67, 64
1, 366331, Note_off_c, 0, 76, 58
1, 366334, Poly_aftertouch_c, 0, 43, 127
1, 366335, Control_c, 0, 67, 51
1, 366346, Poly_aftertouch_c, 0, 47, 0
1, 366349, Control_c, 0, 67, 38
1, 366360, Note_off_c, 0, 79, 60
1, 366364, Control_c, 0, 67, 27
1, 366369, Poly_aftertouch_c, 0, 43, 0
1, 366379, Control_c, 0, 67, 11
1, 366393, Control_c, 0, 67, 0
1, 366476, Note_on_c, 0, 81, 82
1, 366483, Note_on_c, 0, 74, 76
1, 366494, Note_on_c, 0, 69, 78
1, 366495, Note_on_c, 0, 66, 73
1, 366501, Note_on_c, 0, 78, 70
1, 366510, Note_on_c, 0, 62, 49
1, 366530, Note_off_c, 0, 66, 63
1, 366534, Note_off_c, 0, 62, 60
1, 366545, Note_off_c, 0, 69, 60
1, 366589, Note_off_c, 0, 74, 56
1, 366589, Note_off_c, 0, 81, 63
1, 366607, Note_on_c, 0, 76, 61
1, 366634, Note_off_c, 0, 78, 60
1, 366672, Note_off_c, 0, 76, 61
1, 366711, Poly_aftertouch_c, 0, 73, 0
1, 366748, Note_on_c, 0, 81, 60
1, 366751, Note_on_c, 0, 71, 63
1, 366758, Note_on_c, 0, 67, 48
1, 366764, Note_on_c, 0, 74, 31
1, 366766, Note_on_c, 0, 64, 28
1, 366767, Note_on_c, 0, 78, 56
1, 366806, Note_off_c, 0, 67, 45
1, 366807, Note_off_c, 0, 81, 63
1, 366817, Control_c, 0, 67, 8
1, 366819, Note_off_c, 0, 71, 56
1, 366828, Note_off_c, 0, 64, 40
1, 366831, Note_off_c, 0, 74, 41
1, 366835, Note_on_c, 0, 76, 53
1, 366846, Note_on_c, 0, 73, 42
1, 366846, Control_c, 0, 67, 8
1, 366858, Note_off_c, 0, 78, 53
1, 366861, Control_c, 0, 67, 9
1, 366889, Note_off_c, 0, 73, 49
1, 366891, Control_c, 0, 67, 10
1, 366896, Note_off_c, 0, 76, 55
1, 366906, Control_c, 0, 67, 12
1, 366921, Control_c, 0, 67, 14
1, 366950, Control_c, 0, 67, 14
1, 366955, Note_on_c, 0, 69, 74
1, 366956, Note_on_c, 0, 81, 68
1, 366959, Note_on_c, 0, 66, 67
1, 366959, Note_on_c, 0, 74, 53
1, 366962, Note_on_c, 0, 62, 68
1, 366965, Control_c, 0, 67, 15
1, 366980, Control_c, 0, 67, 17
1, 366981, Note_on_c, 0, 78, 57
1, 366995, Control_c, 0, 67, 21
1, 367010, Control_c, 0, 67, 24
1, 367024, Control_c, 0, 67, 26
1, 367037, Note_off_c, 0, 69, 61
1, 367037, Note_off_c, 0, 74, 48
1, 367046, Note_off_c, 0, 81, 58
1, 367064, Note_on_c, 0, 76, 51
1, 367065, Note_off_c, 0, 62, 57
1, 367070, Note_off_c, 0, 66, 54
1, 367075, Note_off_c, 0, 78, 53
1, 367084, Control_c, 0, 67, 27
1, 367094, Note_on_c, 0, 73, 36
1, 367098, Control_c, 0, 67, 30
1, 367113, Control_c, 0, 67, 35
1, 367123, Note_off_c, 0, 76, 59
1, 367125, Note_off_c, 0, 73, 48
1, 367128, Control_c, 0, 67, 38
1, 367143, Control_c, 0, 67, 41
1, 367158, Control_c, 0, 67, 45
1, 367160, Note_on_c, 0, 71, 66
1, 367166, Note_on_c, 0, 67, 60
1, 367170, Note_on_c, 0, 81, 63
1, 367172, Control_c, 0, 67, 49
1, 367174, Note_on_c, 0, 74, 55
1, 367177, Note_on_c, 0, 64, 59
1, 367187, Note_on_c, 0, 78, 60
1, 367187, Control_c, 0, 67, 55
1, 367202, Control_c, 0, 67, 61
1, 367216, Note_off_c, 0, 67, 56
1, 367216, Control_c, 0, 67, 67
1, 367222, Note_off_c, 0, 71, 62
1, 367223, Note_off_c, 0, 81, 65
1, 367228, Note_off_c, 0, 74, 58
1, 367231, Control_c, 0, 67, 73
1, 367241, Note_off_c, 0, 64, 51
1, 367246, Control_c, 0, 67, 80
1, 367255, Note_on_c, 0, 76, 56
1, 367261, Control_c, 0, 67, 87
1, 367270, Note_off_c, 0, 78, 52
1, 367276, Control_c, 0, 67, 93
1, 367278, Note_on_c, 0, 73, 36
1, 367292, Control_c, 0, 67, 97
1, 367305, Note_off_c, 0, 76, 59
1, 367307, Control_c, 0, 67, 98
1, 367308, Note_off_c, 0, 73, 58
1, 367344, Control_c, 0, 67, 98
1, 367359, Note_on_c, 0, 69, 70
1, 367359, Control_c, 0, 67, 97
1, 367369, Note_on_c, 0, 81, 74
1, 367372, Note_on_c, 0, 62, 65
1, 367373, Note_on_c, 0, 66, 65
1, 367374, Note_on_c, 0, 74, 65
1, 367389, Control_c, 0, 67, 97
1, 367394, Note_on_c, 0, 78, 64
1, 367403, Control_c, 0, 67, 96
1, 367418, Control_c, 0, 67, 94
1, 367418, Note_off_c, 0, 69, 66
1, 367424, Note_off_c, 0, 66, 54
1, 367433, Control_c, 0, 67, 92
1, 367433, Note_off_c, 0, 81, 65
1, 367436, Note_off_c, 0, 74, 63
1, 367444, Note_off_c, 0, 62, 62
1, 367447, Control_c, 0, 67, 91
1, 367451, Note_on_c, 0, 73, 53
1, 367454, Note_on_c, 0, 76, 59
1, 367462, Control_c, 0, 67, 90
1, 367477, Note_off_c, 0, 78, 59
1, 367477, Control_c, 0, 67, 89
1, 367492, Control_c, 0, 67, 88
1, 367500, Note_off_c, 0, 73, 60
1, 367504, Note_off_c, 0, 76, 56
1, 367507, Control_c, 0, 67, 87
1, 367521, Control_c, 0, 67, 85
1, 367536, Control_c, 0, 67, 84
1, 367546, Note_on_c, 0, 71, 70
1, 367547, Note_on_c, 0, 74, 63
1, 367548, Note_on_c, 0, 67, 70
1, 367551, Control_c, 0, 67, 81
1, 367552, Note_on_c, 0, 81, 63
1, 367553, Note_on_c, 0, 64, 64
1, 367566, Control_c, 0, 67, 78
1, 367567, Note_on_c, 0, 78, 53
1, 367579, Note_off_c, 0, 67, 65
1, 367581, Control_c, 0, 67, 75
1, 367584, Note_off_c, 0, 71, 60
1, 367594, Note_off_c, 0, 64, 64
1, 367595, Control_c, 0, 67, 71
1, 367602, Note_off_c, 0, 74, 64
1, 367607, Note_off_c, 0, 81, 65
1, 367610, Control_c, 0, 67, 67
1, 367617, Note_on_c, 0, 76, 62
1, 367625, Control_c, 0, 67, 63
1, 367630, Note_on_c, 0, 73, 55
1, 367635, Note_off_c, 0, 78, 62
1, 367641, Control_c, 0, 67, 57
1, 367645, Note_off_c, 0, 76, 66
1, 367651, Note_off_c, 0, 73, 62
1, 367655, Control_c, 0, 67, 52
1, 367670, Control_c, 0, 67, 46
1, 367685, Control_c, 0, 67, 39
1, 367700, Control_c, 0, 67, 31
1, 367715, Control_c, 0, 67, 21
1, 367729, Control_c, 0, 67, 9
1, 367744, Control_c, 0, 67, 0
1, 367749, Note_on_c, 0, 81, 86
1, 367750, Note_on_c, 0, 62, 73
1, 367750, Note_on_c, 0, 78, 89
1, 367752, Note_on_c, 0, 74, 72
1, 367755, Note_on_c, 0, 66, 70
1, 367759, Note_on_c, 0, 69, 65
1, 367790, Note_off_c, 0, 69, 64
1, 367796, Note_off_c, 0, 78, 63
1, 367801, Note_off_c, 0, 62, 62
1, 367805, Note_off_c, 0, 66, 62
1, 367806, Note_off_c, 0, 74, 62
1, 367848, Note_off_c, 0, 81, 64
1, 367851, Note_on_c, 0, 83, 80
1, 367853, Note_on_c, 0, 79, 74
1, 367913, Note_off_c, 0, 83, 62
1, 367921, Note_off_c, 0, 79, 63
1, 367930, Note_on_c, 0, 81, 71
1, 367934, Note_on_c, 0, 74, 64
1, 367937, Note_on_c, 0, 71, 58
1, 367937, Note_on_c, 0, 78, 74
1, 367940, Note_on_c, 0, 64, 55
1, 367944, Note_on_c, 0, 67, 65
1, 367962, Note_off_c, 0, 71, 61
1, 367972, Note_off_c, 0, 67, 66
1, 367973, Note_off_c, 0, 74, 61
1, 367979, Note_off_c, 0, 64, 63
1, 367986, Note_off_c, 0, 78, 56
1, 368000, Note_off_c, 0, 81, 51
1, 368015, Note_on_c, 0, 83, 86
1, 368020, Note_on_c, 0, 79, 80
1, 368074, Note_off_c, 0, 79, 61
1, 368100, Note_off_c, 0, 83, 64
1, 368104, Note_on_c, 0, 81, 74
1, 368119, Note_on_c, 0, 78, 79
1, 368123, Note_on_c, 0, 74, 64
1, 368125, Note_on_c, 0, 66, 71
1, 368126, Note_on_c, 0, 62, 65
1, 368131, Note_on_c, 0, 69, 60
1, 368156, Note_off_c, 0, 69, 67
1, 368159, Note_off_c, 0, 62, 65
1, 368170, Note_off_c, 0, 74, 61
1, 368173, Note_off_c, 0, 66, 63
1, 368187, Note_off_c, 0, 81, 55
1, 368197, Note_on_c, 0, 79, 79
1, 368198, Note_off_c, 0, 78, 63
1, 368201, Note_on_c, 0, 83, 86
1, 368245, Note_off_c, 0, 79, 65
1, 368258, Note_off_c, 0, 83, 58
1, 368289, Note_on_c, 0, 81, 82
1, 368298, Note_on_c, 0, 74, 66
1, 368298, Note_on_c, 0, 78, 86
1, 368302, Note_on_c, 0, 64, 62
1, 368303, Note_on_c, 0, 71, 63
1, 368309, Note_on_c, 0, 67, 68
1, 368331, Note_off_c, 0, 71, 66
1, 368337, Note_off_c, 0, 67, 65
1, 368342, Note_off_c, 0, 81, 64
1, 368344, Note_off_c, 0, 74, 63
1, 368347, Note_off_c, 0, 64, 63
1, 368380, Note_on_c, 0, 76, 80
1, 368382, Note_off_c, 0, 78, 54
1, 368383, Note_on_c, 0, 79, 87
1, 368426, Note_off_c, 0, 76, 63
1, 368456, Note_on_c, 0, 81, 53
1, 368470, Note_on_c, 0, 74, 62
1, 368470, Note_off_c, 0, 79, 61
1, 368474, Note_on_c, 0, 66, 68
1, 368475, Note_on_c, 0, 78, 87
1, 368480, Note_on_c, 0, 62, 62
1, 368490, Note_on_c, 0, 69, 45
1, 368509, Note_off_c, 0, 62, 67
1, 368510, Note_off_c, 0, 66, 62
1, 368510, Note_off_c, 0, 74, 58
1, 368518, Note_off_c, 0, 69, 56
1, 368521, Note_off_c, 0, 81, 65
1, 368551, Note_off_c, 0, 78, 57
1, 368554, Note_on_c, 0, 76, 84
1, 368560, Note_on_c, 0, 79, 92
1, 368609, Note_off_c, 0, 76, 62
1, 368616, Note_off_c, 0, 79, 61
1, 368620, Poly_aftertouch_c, 0, 81, 0
1, 368626, Note_on_c, 0, 64, 59
1, 368628, Note_on_c, 0, 71, 42
1, 368634, Note_on_c, 0, 67, 51
1, 368637, Note_on_c, 0, 81, 54
1, 368653, Note_on_c, 0, 78, 78
1, 368653, Note_off_c, 0, 71, 53
1, 368655, Note_off_c, 0, 64, 66
1, 368663, Note_off_c, 0, 67, 54
1, 368698, Poly_aftertouch_c, 0, 74, 0
1, 368727, Note_on_c, 0, 79, 84
1, 368732, Note_off_c, 0, 81, 62
1, 368734, Note_off_c, 0, 78, 62
1, 368735, Note_on_c, 0, 76, 73
1, 368772, Note_on_c, 0, 50, 87
1, 368781, Note_on_c, 0, 38, 65
1, 368788, Note_on_c, 0, 42, 55
1, 368793, Note_off_c, 0, 50, 69
1, 368817, Note_off_c, 0, 38, 57
1, 368824, Note_off_c, 0, 42, 56
1, 368851, Note_off_c, 0, 79, 63
1, 368906, Note_off_c, 0, 76, 35
1, 369013, Note_on_c, 0, 81, 85
1, 369023, Note_on_c, 0, 69, 86
1, 369024, Note_on_c, 0, 74, 75
1, 369027, Note_on_c, 0, 66, 78
1, 369035, Note_on_c, 0, 62, 72
1, 369044, Note_on_c, 0, 78, 63
1, 369114, Note_off_c, 0, 74, 45
1, 369124, Note_off_c, 0, 81, 62
1, 369140, Note_off_c, 0, 69, 60
1, 369151, Note_on_c, 0, 76, 50
1, 369157, Note_off_c, 0, 78, 59
1, 369168, Note_off_c, 0, 62, 58
1, 369175, Note_off_c, 0, 66, 61
1, 369197, Note_off_c, 0, 76, 57
1, 369230, Poly_aftertouch_c, 0, 73, 0
1, 369246, Poly_aftertouch_c, 0, 73, 0
1, 369277, Note_on_c, 0, 81, 56
1, 369294, Note_on_c, 0, 71, 56
1, 369298, Note_on_c, 0, 64, 45
1, 369300, Note_on_c, 0, 67, 49
1, 369300, Note_on_c, 0, 78, 45
1, 369343, Note_off_c, 0, 81, 62
1, 369349, Note_off_c, 0, 67, 56
1, 369357, Note_off_c, 0, 71, 61
1, 369358, Note_on_c, 0, 76, 59
1, 369380, Note_on_c, 0, 73, 31
1, 369382, Note_off_c, 0, 78, 50
1, 369407, Note_off_c, 0, 64, 44
1, 369413, Note_off_c, 0, 73, 52
1, 369433, Note_off_c, 0, 76, 57
1, 369480, Note_on_c, 0, 81, 61
1, 369489, Note_on_c, 0, 69, 61
1, 369490, Note_on_c, 0, 74, 49
1, 369495, Note_on_c, 0, 62, 57
1, 369503, Note_on_c, 0, 78, 64
1, 369505, Note_on_c, 0, 66, 52
1, 369534, Note_off_c, 0, 69, 51
1, 369545, Note_off_c, 0, 74, 54
1, 369546, Note_off_c, 0, 66, 51
1, 369564, Note_off_c, 0, 62, 52
1, 369568, Note_off_c, 0, 81, 61
1, 369577, Note_on_c, 0, 76, 55
1, 369595, Note_off_c, 0, 78, 58
1, 369627, Note_on_c, 0, 73, 4
1, 369631, Note_off_c, 0, 76, 55
1, 369664, Note_off_c, 0, 73, 0
1, 369679, Poly_aftertouch_c, 0, 73, 0
1, 369687, Note_on_c, 0, 81, 66
1, 369690, Note_on_c, 0, 74, 47
1, 369696, Note_on_c, 0, 71, 56
1, 369698, Note_on_c, 0, 78, 52
1, 369699, Note_on_c, 0, 64, 56
1, 369711, Note_on_c, 0, 67, 35
1, 369740, Note_off_c, 0, 81, 64
1, 369742, Note_off_c, 0, 71, 55
1, 369745, Note_off_c, 0, 64, 57
1, 369750, Note_off_c, 0, 67, 49
1, 369764, Note_on_c, 0, 76, 57
1, 369764, Note_off_c, 0, 74, 37
1, 369783, Note_on_c, 0, 73, 48
1, 369787, Note_off_c, 0, 78, 47
1, 369805, Note_off_c, 0, 73, 59
1, 369809, Note_off_c, 0, 76, 57
1, 369858, Note_on_c, 0, 81, 73
1, 369865, Note_on_c, 0, 74, 57
1, 369879, Note_on_c, 0, 78, 52
1, 369893, Note_on_c, 0, 66, 50
1, 369894, Note_on_c, 0, 69, 46
1, 369899, Note_on_c, 0, 62, 51
1, 369921, Note_off_c, 0, 69, 56
1, 369926, Note_off_c, 0, 74, 53
1, 369926, Note_off_c, 0, 81, 62
1, 369935, Note_off_c, 0, 66, 47
1, 369944, Note_off_c, 0, 62, 59
1, 369970, Note_off_c, 0, 78, 60
1, 369973, Note_on_c, 0, 76, 50
1, 369988, Note_on_c, 0, 73, 30
1, 370022, Note_off_c, 0, 76, 50
1, 370023, Note_off_c, 0, 73, 44
1, 370061, Note_on_c, 0, 81, 67
1, 370074, Note_on_c, 0, 71, 55
1, 370074, Note_on_c, 0, 74, 47
1, 370080, Note_on_c, 0, 78, 57
1, 370085, Note_on_c, 0, 64, 49
1, 370088, Note_on_c, 0, 67, 44
1, 370122, Note_off_c, 0, 81, 64
1, 370129, Note_off_c, 0, 67, 57
1, 370131, Note_off_c, 0, 64, 59
1, 370132, Note_off_c, 0, 71, 54
1, 370144, Note_on_c, 0, 76, 59
1, 370157, Note_off_c, 0, 74, 37
1, 370162, Note_off_c, 0, 78, 54
1, 370167, Note_on_c, 0, 73, 40
1, 370191, Note_off_c, 0, 73, 58
1, 370206, Note_off_c, 0, 76, 54
1, 370256, Note_on_c, 0, 81, 73
1, 370263, Note_on_c, 0, 74, 60
1, 370272, Note_on_c, 0, 69, 64
1, 370282, Note_on_c, 0, 78, 59
1, 370289, Note_on_c, 0, 62, 46
1, 370289, Note_on_c, 0, 66, 51
1, 370308, Note_off_c, 0, 69, 63
1, 370326, Note_off_c, 0, 66, 59
1, 370331, Note_off_c, 0, 62, 58
1, 370336, Note_off_c, 0, 74, 57
1, 370341, Note_off_c, 0, 81, 61
1, 370354, Note_on_c, 0, 76, 61
1, 370373, Note_on_c, 0, 73, 52
1, 370378, Note_off_c, 0, 78, 60
1, 370402, Note_off_c, 0, 73, 67
1, 370417, Note_off_c, 0, 76, 61
1, 370452, Note_on_c, 0, 74, 77
1, 370453, Note_on_c, 0, 71, 70
1, 370454, Note_on_c, 0, 81, 80
1, 370460, Note_on_c, 0, 67, 62
1, 370467, Note_on_c, 0, 64, 60
1, 370479, Note_on_c, 0, 78, 49
1, 370498, Note_off_c, 0, 67, 61
1, 370507, Note_off_c, 0, 64, 62
1, 370507, Note_off_c, 0, 71, 57
1, 370522, Note_off_c, 0, 81, 63
1, 370527, Note_off_c, 0, 74, 49
1, 370541, Note_off_c, 0, 78, 0
1, 370541, Note_on_c, 0, 78, 15
1, 370547, Note_on_c, 0, 76, 65
1, 370555, Note_on_c, 0, 73, 60
1, 370587, Note_off_c, 0, 78, 45
1, 370593, Note_off_c, 0, 73, 65
1, 370603, Note_off_c, 0, 76, 60
1, 370636, Note_on_c, 0, 74, 75
1, 370639, Note_on_c, 0, 81, 75
1, 370643, Note_on_c, 0, 69, 70
1, 370644, Note_on_c, 0, 62, 69
1, 370648, Note_on_c, 0, 78, 55
1, 370658, Note_on_c, 0, 66, 54
1, 370686, Note_off_c, 0, 69, 59
1, 370697, Note_off_c, 0, 66, 59
1, 370706, Note_off_c, 0, 81, 64
1, 370715, Note_on_c, 0, 76, 76
1, 370715, Note_off_c, 0, 62, 60
1, 370718, Note_off_c, 0, 74, 63
1, 370730, Note_on_c, 0, 73, 74
1, 370751, Note_off_c, 0, 78, 62
1, 370803, Note_off_c, 0, 76, 63
1, 370814, Note_on_c, 0, 81, 80
1, 370817, Note_on_c, 0, 71, 73
1, 370817, Note_off_c, 0, 73, 65
1, 370819, Note_on_c, 0, 64, 78
1, 370819, Note_on_c, 0, 67, 70
1, 370819, Note_on_c, 0, 74, 75
1, 370835, Note_on_c, 0, 78, 28
1, 370845, Note_off_c, 0, 74, 66
1, 370848, Note_off_c, 0, 67, 65
1, 370852, Note_off_c, 0, 71, 60
1, 370852, Note_off_c, 0, 81, 61
1, 370867, Note_off_c, 0, 64, 64
1, 370873, Note_off_c, 0, 78, 41
1, 370913, Note_on_c, 0, 83, 87
1, 370985, Note_off_c, 0, 83, 43
1, 370996, Note_on_c, 0, 85, 90
1, 371002, Note_on_c, 0, 62, 62
1, 371007, Note_on_c, 0, 81, 86
1, 371007, Note_on_c, 0, 69, 61
1, 371010, Note_on_c, 0, 66, 63
1, 371044, Note_off_c, 0, 66, 62
1, 371050, Note_off_c, 0, 69, 62
1, 371052, Note_off_c, 0, 85, 64
1, 371075, Note_off_c, 0, 62, 63
1, 371092, Note_on_c, 0, 83, 94
1, 371095, Note_on_c, 0, 79, 80
1, 371103, Note_off_c, 0, 81, 62
1, 371141, Note_off_c, 0, 79, 65
1, 371144, Note_on_c, 0, 71, 59
1, 371145, Note_off_c, 0, 83, 65
1, 371147, Note_on_c, 0, 64, 70
1, 371151, Note_on_c, 0, 67, 57
1, 371160, Note_off_c, 0, 71, 66
1, 371171, Note_off_c, 0, 64, 68
1, 371172, Note_off_c, 0, 67, 61
1, 371184, Note_on_c, 0, 81, 94
1, 371266, Note_off_c, 0, 81, 41
1, 371269, Note_on_c, 0, 83, 91
1, 371273, Note_on_c, 0, 79, 84
1, 371280, Note_on_c, 0, 50, 90
1, 371282, Poly_aftertouch_c, 0, 64, 127
1, 371289, Note_on_c, 0, 38, 68
1, 371294, Note_on_c, 0, 42, 63
1, 371304, Note_off_c, 0, 50, 69
1, 371313, Note_off_c, 0, 79, 62
1, 371314, Note_off_c, 0, 38, 60
1, 371315, Poly_aftertouch_c, 0, 64, 0
1, 371317, Note_off_c, 0, 83, 66
1, 371318, Note_off_c, 0, 42, 61
1, 371383, Poly_aftertouch_c, 0, 45, 0
1, 371487, Note_on_c, 0, 81, 91
1, 371493, Note_on_c, 0, 69, 80
1, 371496, Note_on_c, 0, 66, 78
1, 371498, Note_on_c, 0, 74, 70
1, 371504, Note_on_c, 0, 62, 75
1, 371515, Note_on_c, 0, 78, 54
1, 371571, Note_off_c, 0, 81, 59
1, 371617, Note_on_c, 0, 76, 62
1, 371632, Note_off_c, 0, 74, 20
1, 371633, Note_off_c, 0, 78, 60
1, 371636, Note_off_c, 0, 69, 64
1, 371650, Note_on_c, 0, 73, 36
1, 371661, Note_off_c, 0, 66, 62
1, 371666, Note_off_c, 0, 62, 61
1, 371678, Note_off_c, 0, 76, 56
1, 371681, Note_off_c, 0, 73, 48
1, 371741, Note_on_c, 0, 74, 62
1, 371746, Note_on_c, 0, 71, 61
1, 371747, Note_on_c, 0, 81, 69
1, 371750, Note_on_c, 0, 64, 62
1, 371762, Note_on_c, 0, 67, 49
1, 371765, Note_on_c, 0, 78, 57
1, 371796, Note_off_c, 0, 67, 51
1, 371801, Note_off_c, 0, 71, 61
1, 371801, Note_off_c, 0, 74, 58
1, 371801, Note_off_c, 0, 81, 64
1, 371819, Note_off_c, 0, 64, 62
1, 371836, Note_on_c, 0, 76, 57
1, 371844, Note_off_c, 0, 78, 54
1, 371852, Note_on_c, 0, 73, 44
1, 371876, Note_off_c, 0, 73, 60
1, 371880, Note_off_c, 0, 76, 60
1, 371944, Note_on_c, 0, 74, 69
1, 371944, Note_on_c, 0, 81, 74
1, 371947, Note_on_c, 0, 69, 69
1, 371956, Note_on_c, 0, 66, 62
1, 371961, Note_on_c, 0, 62, 64
1, 371964, Note_on_c, 0, 78, 59
1, 371992, Note_off_c, 0, 66, 61
1, 371994, Note_off_c, 0, 69, 56
1, 372005, Note_off_c, 0, 62, 60
1, 372009, Note_off_c, 0, 74, 59
1, 372011, Note_off_c, 0, 81, 64
1, 372044, Note_off_c, 0, 78, 56
1, 372045, Note_on_c, 0, 76, 52
1, 372060, Note_on_c, 0, 73, 31
1, 372087, Note_off_c, 0, 76, 60
1, 372090, Note_off_c, 0, 73, 53
1, 372138, Note_on_c, 0, 81, 70
1, 372141, Note_on_c, 0, 71, 59
1, 372143, Note_on_c, 0, 64, 61
1, 372143, Note_on_c, 0, 67, 57
1, 372144, Note_on_c, 0, 74, 60
1, 372165, Note_on_c, 0, 78, 58
1, 372181, Note_off_c, 0, 67, 63
1, 372182, Note_off_c, 0, 71, 59
1, 372188, Note_off_c, 0, 64, 63
1, 372194, Note_off_c, 0, 74, 57
1, 372200, Note_off_c, 0, 81, 64
1, 372224, Note_off_c, 0, 78, 55
1, 372230, Note_on_c, 0, 76, 52
1, 372245, Note_on_c, 0, 73, 34
1, 372273, Note_off_c, 0, 73, 58
1, 372277, Note_off_c, 0, 76, 58
1, 372325, Control_c, 0, 67, 8
1, 372326, Note_on_c, 0, 81, 73
1, 372334, Note_on_c, 0, 62, 58
1, 372335, Note_on_c, 0, 69, 66
1, 372337, Note_on_c, 0, 74, 56
1, 372340, Control_c, 0, 67, 9
1, 372343, Note_on_c, 0, 66, 61
1, 372346, Note_on_c, 0, 78, 55
1, 372355, Control_c, 0, 67, 10
1, 372370, Control_c, 0, 67, 12
1, 372379, Note_off_c, 0, 62, 57
1, 372380, Note_off_c, 0, 69, 60
1, 372385, Note_off_c, 0, 66, 59
1, 372385, Control_c, 0, 67, 14
1, 372394, Note_off_c, 0, 81, 64
1, 372396, Note_off_c, 0, 74, 58
1, 372400, Control_c, 0, 67, 16
1, 372414, Control_c, 0, 67, 16
1, 372420, Note_on_c, 0, 76, 53
1, 372423, Note_on_c, 0, 73, 44
1, 372429, Control_c, 0, 67, 17
1, 372433, Note_off_c, 0, 78, 57
1, 372459, Control_c, 0, 67, 17
1, 372464, Note_off_c, 0, 73, 58
1, 372471, Note_off_c, 0, 76, 56
1, 372474, Control_c, 0, 67, 18
1, 372489, Control_c, 0, 67, 20
1, 372504, Control_c, 0, 67, 23
1, 372511, Note_on_c, 0, 74, 59
1, 372513, Note_on_c, 0, 71, 57
1, 372515, Note_on_c, 0, 67, 60
1, 372515, Note_on_c, 0, 81, 59
1, 372516, Note_on_c, 0, 64, 59
1, 372518, Control_c, 0, 67, 25
1, 372533, Control_c, 0, 67, 26
1, 372537, Note_on_c, 0, 78, 57
1, 372547, Note_off_c, 0, 67, 65
1, 372548, Control_c, 0, 67, 27
1, 372550, Note_off_c, 0, 71, 62
1, 372568, Note_off_c, 0, 74, 63
1, 372571, Note_off_c, 0, 81, 64
1, 372574, Note_off_c, 0, 64, 59
1, 372587, Note_off_c, 0, 78, 61
1, 372599, Control_c, 0, 67, 27
1, 372629, Control_c, 0, 67, 27
1, 372662, Poly_aftertouch_c, 0, 76, 0
1, 372671, Poly_aftertouch_c, 0, 73, 0
1, 372689, Control_c, 0, 67, 26
1, 372704, Control_c, 0, 67, 26
1, 372718, Control_c, 0, 67, 25
1, 372719, Note_on_c, 0, 81, 88
1, 372733, Note_on_c, 0, 78, 71
1, 372734, Note_on_c, 0, 74, 57
1, 372741, Note_on_c, 0, 69, 48
1, 372742, Note_on_c, 0, 62, 56
1, 372747, Note_on_c, 0, 66, 58
1, 372762, Note_off_c, 0, 78, 65
1, 372763, Control_c, 0, 67, 25
1, 372765, Note_off_c, 0, 69, 61
1, 372765, Note_off_c, 0, 74, 66
1, 372778, Control_c, 0, 67, 24
1, 372781, Note_off_c, 0, 66, 63
1, 372792, Control_c, 0, 67, 23
1, 372793, Note_off_c, 0, 62, 56
1, 372807, Control_c, 0, 67, 22
1, 372822, Control_c, 0, 67, 21
1, 372825, Note_on_c, 0, 79, 76
1, 372836, Control_c, 0, 67, 21
1, 372838, Note_off_c, 0, 81, 63
1, 372844, Note_on_c, 0, 83, 59
1, 372851, Control_c, 0, 67, 20
1, 372866, Control_c, 0, 67, 20
1, 372867, Note_off_c, 0, 83, 59
1, 372881, Control_c, 0, 67, 19
1, 372897, Control_c, 0, 67, 18
1, 372909, Note_off_c, 0, 79, 56
1, 372912, Note_on_c, 0, 81, 77
1, 372915, Note_on_c, 0, 71, 62
1, 372917, Note_on_c, 0, 64, 61
1, 372923, Note_on_c, 0, 67, 56
1, 372936, Note_on_c, 0, 78, 65
1, 372941, Control_c, 0, 67, 19
1, 372955, Note_off_c, 0, 67, 59
1, 372956, Control_c, 0, 67, 19
1, 372966, Note_off_c, 0, 71, 59
1, 372971, Control_c, 0, 67, 20
1, 372978, Note_off_c, 0, 64, 58
1, 372978, Note_off_c, 0, 81, 50
1, 372986, Note_off_c, 0, 78, 42
1, 372986, Control_c, 0, 67, 21
1, 372995, Note_on_c, 0, 83, 75
1, 373001, Control_c, 0, 67, 23
1, 373005, Note_on_c, 0, 79, 81
1, 373010, Poly_aftertouch_c, 0, 80, 0
1, 373015, Control_c, 0, 67, 26
1, 373029, Note_off_c, 0, 83, 64
1, 373030, Control_c, 0, 67, 27
1, 373040, Note_off_c, 0, 79, 62
1, 373089, Control_c, 0, 67, 27
1, 373091, Note_on_c, 0, 85, 86
1, 373096, Note_on_c, 0, 66, 68
1, 373097, Note_on_c, 0, 69, 66
1, 373098, Note_on_c, 0, 81, 74
1, 373108, Note_on_c, 0, 62, 62
1, 373133, Control_c, 0, 67, 26
1, 373141, Note_off_c, 0, 69, 59
1, 373145, Note_off_c, 0, 66, 57
1, 373148, Control_c, 0, 67, 25
1, 373157, Note_off_c, 0, 85, 63
1, 373163, Control_c, 0, 67, 24
1, 373166, Note_off_c, 0, 62, 58
1, 373172, Note_on_c, 0, 83, 80
1, 373173, Note_off_c, 0, 81, 65
1, 373175, Note_on_c, 0, 79, 74
1, 373178, Control_c, 0, 67, 23
1, 373193, Control_c, 0, 67, 21
1, 373204, Note_off_c, 0, 83, 63
1, 373207, Control_c, 0, 67, 20
1, 373213, Note_off_c, 0, 79, 63
1, 373222, Control_c, 0, 67, 19
1, 373237, Control_c, 0, 67, 17
1, 373252, Control_c, 0, 67, 11
1, 373265, Note_on_c, 0, 81, 86
1, 373267, Control_c, 0, 67, 0
1, 373276, Note_on_c, 0, 71, 65
1, 373276, Note_on_c, 0, 78, 81
1, 373282, Note_on_c, 0, 64, 58
1, 373291, Note_on_c, 0, 67, 57
1, 373318, Note_off_c, 0, 81, 64
1, 373326, Note_off_c, 0, 67, 59
1, 373343, Note_off_c, 0, 71, 61
1, 373353, Note_off_c, 0, 64, 53
1, 373356, Note_off_c, 0, 78, 44
1, 373362, Note_on_c, 0, 76, 82
1, 373362, Note_on_c, 0, 79, 87
1, 373401, Note_off_c, 0, 76, 60
1, 373414, Note_off_c, 0, 79, 60
1, 373453, Note_on_c, 0, 81, 77
1, 373463, Note_on_c, 0, 78, 78
1, 373467, Note_on_c, 0, 69, 66
1, 373470, Note_on_c, 0, 62, 63
1, 373473, Note_on_c, 0, 66, 60
1, 373499, Note_off_c, 0, 78, 60
1, 373508, Note_off_c, 0, 66, 61
1, 373509, Note_off_c, 0, 69, 62
1, 373530, Note_off_c, 0, 81, 49
1, 373531, Note_off_c, 0, 62, 58
1, 373534, Note_on_c, 0, 76, 76
1, 373549, Note_on_c, 0, 79, 79
1, 373619, Note_off_c, 0, 76, 38
1, 373629, Note_off_c, 0, 79, 63
1, 373631, Note_on_c, 0, 78, 72
1, 373637, Note_on_c, 0, 74, 68
1, 373643, Note_on_c, 0, 64, 60
1, 373644, Note_on_c, 0, 71, 59
1, 373650, Note_on_c, 0, 67, 53
1, 373676, Note_off_c, 0, 74, 58
1, 373687, Note_off_c, 0, 71, 57
1, 373690, Note_off_c, 0, 67, 57
1, 373696, Note_off_c, 0, 78, 52
1, 373698, Note_off_c, 0, 64, 58
1, 373716, Note_on_c, 0, 79, 77
1, 373729, Note_on_c, 0, 76, 67
1, 373748, Note_off_c, 0, 79, 63
1, 373755, Note_off_c, 0, 76, 66
1, 373815, Note_on_c, 0, 81, 75
1, 373821, Note_on_c, 0, 78, 78
1, 373830, Note_on_c, 0, 69, 59
1, 373833, Note_on_c, 0, 62, 63
1, 373836, Note_on_c, 0, 66, 61
1, 373866, Note_off_c, 0, 81, 64
1, 373869, Note_off_c, 0, 69, 59
1, 373893, Note_off_c, 0, 78, 60
1, 373905, Note_off_c, 0, 66, 59
1, 373906, Note_on_c, 0, 83, 78
1, 373908, Note_off_c, 0, 62, 63
1, 373910, Note_on_c, 0, 79, 77
1, 373953, Note_off_c, 0, 83, 66
1, 373988, Note_off_c, 0, 79, 59
1, 373990, Note_on_c, 0, 81, 76
1, 374005, Note_on_c, 0, 71, 69
1, 374009, Note_on_c, 0, 67, 63
1, 374009, Note_on_c, 0, 78, 73
1, 374011, Note_on_c, 0, 64, 61
1, 374063, Note_off_c, 0, 67, 60
1, 374068, Note_off_c, 0, 71, 58
1, 374074, Note_off_c, 0, 81, 59
1, 374081, Note_on_c, 0, 83, 88
1, 374095, Note_off_c, 0, 78, 64
1, 374096, Note_off_c, 0, 64, 57
1, 374099, Note_on_c, 0, 79, 80
1, 374128, Note_off_c, 0, 83, 65
1, 374160, Note_off_c, 0, 79, 54
1, 374181, Note_on_c, 0, 85, 89
1, 374191, Note_on_c, 0, 81, 74
1, 374192, Note_on_c, 0, 62, 73
1, 374199, Note_on_c, 0, 69, 72
1, 374209, Note_on_c, 0, 66, 58
1, 374242, Note_off_c, 0, 85, 64
1, 374245, Note_off_c, 0, 69, 63
1, 374248, Note_off_c, 0, 66, 58
1, 374260, Note_off_c, 0, 62, 63
1, 374265, Note_on_c, 0, 83, 82
1, 374268, Note_off_c, 0, 81, 60
1, 374270, Note_on_c, 0, 79, 80
1, 374297, Note_off_c, 0, 83, 63
1, 374305, Note_off_c, 0, 79, 63
1, 374364, Note_on_c, 0, 81, 83
1, 374364, Control_c, 0, 67, 9
1, 374367, Note_on_c, 0, 71, 60
1, 374371, Note_on_c, 0, 78, 78
1, 374376, Note_on_c, 0, 64, 54
1, 374376, Note_on_c, 0, 67, 46
1, 374379, Control_c, 0, 67, 10
1, 374394, Control_c, 0, 67, 11
1, 374403, Note_off_c, 0, 81, 62
1, 374408, Control_c, 0, 67, 13
1, 374414, Note_off_c, 0, 71, 58
1, 374421, Note_off_c, 0, 67, 59
1, 374423, Control_c, 0, 67, 15
1, 374427, Note_off_c, 0, 64, 61
1, 374438, Control_c, 0, 67, 15
1, 374446, Note_off_c, 0, 78, 57
1, 374449, Note_on_c, 0, 76, 76
1, 374452, Note_on_c, 0, 79, 79
1, 374453, Control_c, 0, 67, 16
1, 374468, Control_c, 0, 67, 17
1, 374483, Control_c, 0, 67, 18
1, 374498, Control_c, 0, 67, 19
1, 374500, Note_off_c, 0, 79, 59
1, 374513, Note_off_c, 0, 76, 48
1, 374537, Note_on_c, 0, 81, 80
1, 374552, Note_on_c, 0, 69, 61
1, 374555, Note_on_c, 0, 62, 57
1, 374555, Note_on_c, 0, 78, 73
1, 374572, Note_on_c, 0, 66, 52
1, 374583, Note_off_c, 0, 69, 61
1, 374589, Note_off_c, 0, 78, 58
1, 374596, Note_off_c, 0, 66, 58
1, 374602, Control_c, 0, 67, 19
1, 374605, Note_off_c, 0, 62, 56
1, 374632, Note_on_c, 0, 76, 77
1, 374632, Note_on_c, 0, 79, 75
1, 374634, Note_off_c, 0, 81, 61
1, 374661, Control_c, 0, 67, 20
1, 374675, Note_off_c, 0, 76, 55
1, 374719, Note_off_c, 0, 79, 59
1, 374720, Control_c, 0, 67, 22
1, 374725, Note_on_c, 0, 78, 74
1, 374732, Note_on_c, 0, 71, 53
1, 374735, Control_c, 0, 67, 26
1, 374739, Note_on_c, 0, 67, 45
1, 374742, Note_on_c, 0, 64, 56
1, 374750, Control_c, 0, 67, 30
1, 374753, Note_on_c, 0, 74, 47
1, 374764, Note_off_c, 0, 71, 60
1, 374765, Control_c, 0, 67, 32
1, 374769, Note_off_c, 0, 67, 55
1, 374779, Control_c, 0, 67, 34
1, 374781, Note_off_c, 0, 64, 59
1, 374781, Note_off_c, 0, 78, 57
1, 374782, Note_off_c, 0, 74, 52
1, 374794, Control_c, 0, 67, 37
1, 374815, Note_on_c, 0, 76, 70
1, 374817, Control_c, 0, 67, 40
1, 374827, Note_on_c, 0, 79, 72
1, 374832, Control_c, 0, 67, 43
1, 374846, Control_c, 0, 67, 45
1, 374861, Control_c, 0, 67, 46
1, 374876, Control_c, 0, 67, 47
1, 374891, Control_c, 0, 67, 47
1, 374901, Note_off_c, 0, 79, 41
1, 374903, Note_off_c, 0, 76, 39
1, 374906, Note_on_c, 0, 78, 74
1, 374906, Control_c, 0, 67, 47
1, 374912, Note_on_c, 0, 69, 53
1, 374915, Note_on_c, 0, 62, 56
1, 374915, Note_on_c, 0, 74, 61
1, 374920, Control_c, 0, 67, 46
1, 374923, Note_on_c, 0, 66, 50
1, 374942, Note_off_c, 0, 69, 53
1, 374950, Control_c, 0, 67, 45
1, 374959, Note_off_c, 0, 74, 54
1, 374963, Note_off_c, 0, 66, 52
1, 374965, Control_c, 0, 67, 45
1, 374969, Note_off_c, 0, 62, 59
1, 374969, Note_off_c, 0, 78, 61
1, 374980, Control_c, 0, 67, 43
1, 374994, Control_c, 0, 67, 42
1, 374998, Note_on_c, 0, 79, 77
1, 375005, Note_on_c, 0, 76, 79
1, 375009, Control_c, 0, 67, 40
1, 375024, Control_c, 0, 67, 39
1, 375038, Control_c, 0, 67, 38
1, 375053, Control_c, 0, 67, 37
1, 375068, Control_c, 0, 67, 36
1, 375075, Note_on_c, 0, 64, 62
1, 375078, Note_off_c, 0, 76, 49
1, 375078, Note_off_c, 0, 79, 55
1, 375080, Note_on_c, 0, 71, 59
1, 375082, Note_on_c, 0, 78, 75
1, 375082, Note_on_c, 0, 67, 56
1, 375083, Control_c, 0, 67, 35
1, 375097, Note_on_c, 0, 74, 72
1, 375098, Control_c, 0, 67, 32
1, 375112, Control_c, 0, 67, 29
1, 375126, Note_off_c, 0, 67, 58
1, 375128, Control_c, 0, 67, 24
1, 375130, Note_off_c, 0, 71, 58
1, 375143, Control_c, 0, 67, 20
1, 375149, Note_off_c, 0, 64, 55
1, 375156, Note_off_c, 0, 78, 54
1, 375158, Control_c, 0, 67, 16
1, 375162, Note_off_c, 0, 74, 61
1, 375169, Note_on_c, 0, 79, 87
1, 375173, Control_c, 0, 67, 13
1, 375175, Note_on_c, 0, 76, 81
1, 375187, Control_c, 0, 67, 8
1, 375202, Control_c, 0, 67, 0
1, 375204, Note_off_c, 0, 79, 63
1, 375205, Note_off_c, 0, 76, 60
1, 375258, Note_on_c, 0, 62, 65
1, 375261, Note_on_c, 0, 81, 88
1, 375263, Note_on_c, 0, 69, 62
1, 375264, Note_on_c, 0, 78, 84
1, 375273, Note_on_c, 0, 66, 61
1, 375306, Note_off_c, 0, 69, 60
1, 375315, Note_off_c, 0, 62, 59
1, 375321, Note_off_c, 0, 66, 55
1, 375324, Note_off_c, 0, 81, 59
1, 375324, Note_off_c, 0, 78, 62
1, 375354, Note_on_c, 0, 79, 91
1, 375354, Note_on_c, 0, 83, 86
1, 375420, Note_off_c, 0, 83, 60
1, 375433, Note_on_c, 0, 71, 64
1, 375437, Note_on_c, 0, 64, 63
1, 375441, Note_on_c, 0, 81, 79
1, 375442, Note_off_c, 0, 79, 62
1, 375448, Note_on_c, 0, 67, 59
1, 375448, Note_on_c, 0, 78, 80
1, 375486, Note_off_c, 0, 67, 59
1, 375497, Note_off_c, 0, 71, 61
1, 375509, Note_off_c, 0, 64, 60
1, 375512, Note_off_c, 0, 81, 64
1, 375515, Note_on_c, 0, 83, 94
1, 375518, Note_off_c, 0, 78, 62
1, 375535, Note_on_c, 0, 79, 79
1, 375563, Note_off_c, 0, 83, 66
1, 375610, Note_off_c, 0, 79, 39
1, 375625, Note_on_c, 0, 85, 84
1, 375628, Note_on_c, 0, 81, 83
1, 375637, Note_on_c, 0, 62, 70
1, 375643, Note_on_c, 0, 69, 61
1, 375646, Note_on_c, 0, 66, 58
1, 375682, Note_off_c, 0, 69, 64
1, 375693, Note_off_c, 0, 66, 53
1, 375713, Note_on_c, 0, 79, 82
1, 375713, Note_on_c, 0, 83, 80
1, 375714, Note_off_c, 0, 81, 65
1, 375716, Note_off_c, 0, 85, 65
1, 375717, Note_off_c, 0, 62, 63
1, 375791, Note_off_c, 0, 79, 53
1, 375798, Note_on_c, 0, 81, 88
1, 375798, Note_off_c, 0, 83, 43
1, 375805, Note_on_c, 0, 64, 69
1, 375805, Note_on_c, 0, 71, 69
1, 375813, Note_on_c, 0, 67, 58
1, 375849, Note_off_c, 0, 67, 60
1, 375857, Note_off_c, 0, 71, 62
1, 375862, Note_off_c, 0, 64, 64
1, 375879, Note_off_c, 0, 81, 64
1, 375890, Note_on_c, 0, 79, 79
1, 375891, Note_on_c, 0, 83, 74
1, 375918, Note_off_c, 0, 83, 67
1, 375922, Note_off_c, 0, 79, 65
1, 375994, Note_on_c, 0, 81, 78
1, 376006, Note_on_c, 0, 62, 60
1, 376009, Note_on_c, 0, 78, 78
1, 376016, Note_on_c, 0, 69, 53
1, 376018, Note_on_c, 0, 66, 58
1, 376021, Note_off_c, 0, 81, 64
1, 376048, Note_off_c, 0, 69, 54
1, 376059, Note_off_c, 0, 66, 57
1, 376076, Note_off_c, 0, 62, 59
1, 376086, Note_off_c, 0, 78, 62
1, 376087, Note_on_c, 0, 79, 80
1, 376093, Note_on_c, 0, 76, 76
1, 376135, Note_off_c, 0, 79, 63
1, 376172, Note_off_c, 0, 76, 34
1, 376173, Note_on_c, 0, 78, 86
1, 376191, Note_on_c, 0, 64, 58
1, 376191, Note_on_c, 0, 71, 65
1, 376195, Note_on_c, 0, 67, 60
1, 376211, Note_on_c, 0, 74, 43
1, 376233, Note_off_c, 0, 67, 61
1, 376238, Note_off_c, 0, 74, 54
1, 376241, Note_off_c, 0, 71, 56
1, 376244, Note_off_c, 0, 78, 47
1, 376257, Note_off_c, 0, 64, 59
1, 376257, Note_on_c, 0, 79, 80
1, 376269, Note_on_c, 0, 76, 75
1, 376355, Note_off_c, 0, 76, 63
1, 376358, Note_on_c, 0, 78, 83
1, 376364, Note_off_c, 0, 79, 65
1, 376365, Note_on_c, 0, 74, 44
1, 376368, Note_on_c, 0, 69, 69
1, 376369, Note_on_c, 0, 62, 67
1, 376370, Note_on_c, 0, 66, 64
1, 376391, Note_off_c, 0, 74, 61
1, 376417, Note_off_c, 0, 78, 56
1, 376424, Note_off_c, 0, 69, 66
1, 376428, Note_off_c, 0, 66, 52
1, 376445, Note_off_c, 0, 62, 62
1, 376449, Note_on_c, 0, 76, 85
1, 376459, Note_on_c, 0, 73, 72
1, 376492, Note_off_c, 0, 73, 64
1, 376507, Note_off_c, 0, 76, 58
1, 376546, Note_on_c, 0, 78, 81
1, 376548, Note_on_c, 0, 64, 67
1, 376552, Note_on_c, 0, 71, 75
1, 376559, Note_on_c, 0, 67, 66
1, 376596, Note_off_c, 0, 67, 61
1, 376601, Note_on_c, 0, 74, 13
1, 376604, Note_off_c, 0, 78, 65
1, 376607, Note_off_c, 0, 71, 62
1, 376623, Note_off_c, 0, 64, 60
1, 376632, Note_on_c, 0, 79, 84
1, 376632, Note_off_c, 0, 74, 0
1, 376648, Poly_aftertouch_c, 0, 74, 0
1, 376674, Note_off_c, 0, 79, 66
1, 376721, Note_on_c, 0, 69, 73
1, 376728, Note_on_c, 0, 66, 64
1, 376728, Note_on_c, 0, 81, 82
1, 376734, Note_on_c, 0, 62, 66
1, 376734, Note_on_c, 0, 78, 74
1, 376766, Note_off_c, 0, 69, 56
1, 376768, Note_off_c, 0, 66, 58
1, 376787, Note_off_c, 0, 62, 50
1, 376796, Note_off_c, 0, 81, 53
1, 376817, Note_on_c, 0, 83, 85
1, 376821, Note_off_c, 0, 78, 60
1, 376836, Note_on_c, 0, 79, 74
1, 376910, Note_on_c, 0, 81, 82
1, 376911, Note_on_c, 0, 71, 72
1, 376915, Note_on_c, 0, 64, 61
1, 376915, Note_off_c, 0, 83, 61
1, 376920, Note_on_c, 0, 67, 66
1, 376925, Note_off_c, 0, 79, 57
1, 376960, Note_off_c, 0, 67, 60
1, 376966, Note_on_c, 0, 78, 23
1, 376968, Note_off_c, 0, 71, 62
1, 376998, Note_off_c, 0, 64, 61
1, 377004, Note_off_c, 0, 78, 41
1, 377005, Note_off_c, 0, 81, 62
1, 377012, Note_on_c, 0, 83, 80
1, 377034, Note_off_c, 0, 83, 70
1, 377162, Note_on_c, 0, 62, 60
1, 377165, Note_on_c, 0, 69, 68
1, 377166, Note_on_c, 0, 66, 65
1, 377193, Note_on_c, 0, 93, 89
1, 377218, Note_on_c, 0, 91, 58
1, 377219, Note_on_c, 0, 79, 54
1, 377224, Note_on_c, 0, 81, 46
1, 377239, Note_off_c, 0, 91, 40
1, 377240, Note_off_c, 0, 79, 61
1, 377248, Note_off_c, 0, 81, 60
1, 377263, Note_off_c, 0, 93, 66
1, 377264, Note_off_c, 0, 66, 54
1, 377279, Note_off_c, 0, 69, 38
1, 377289, Note_off_c, 0, 62, 62
1, 377336, Note_on_c, 0, 95, 102
1, 377342, Note_on_c, 0, 83, 91
1, 377378, Note_off_c, 0, 83, 61
1, 377393, Note_off_c, 0, 95, 67
1, 377398, Note_on_c, 0, 64, 61
1, 377403, Note_on_c, 0, 71, 67
1, 377408, Note_on_c, 0, 67, 63
1, 377473, Note_on_c, 0, 98, 100
1, 377476, Note_off_c, 0, 67, 63
1, 377476, Note_off_c, 0, 71, 62
1, 377480, Note_on_c, 0, 86, 90
1, 377499, Note_off_c, 0, 64, 64
1, 377506, Note_off_c, 0, 86, 66
1, 377521, Note_off_c, 0, 98, 64
1, 377579, Note_on_c, 0, 97, 100
1, 377589, Note_on_c, 0, 85, 88
1, 377591, Note_on_c, 0, 98, 66
1, 377598, Note_on_c, 0, 69, 77
1, 377600, Note_on_c, 0, 62, 77
1, 377601, Note_on_c, 0, 66, 72
1, 377610, Note_off_c, 0, 98, 61
1, 377638, Note_off_c, 0, 69, 60
1, 377642, Note_off_c, 0, 85, 65
1, 377646, Note_off_c, 0, 97, 66
1, 377656, Note_off_c, 0, 66, 55
1, 377686, Note_off_c, 0, 62, 63
1, 377699, Note_on_c, 0, 95, 95
1, 377705, Note_on_c, 0, 83, 90
1, 377726, Note_off_c, 0, 83, 68
1, 377738, Note_off_c, 0, 95, 68
1, 377807, Note_on_c, 0, 93, 90
1, 377818, Note_on_c, 0, 81, 95
1, 377820, Note_on_c, 0, 64, 70
1, 377822, Note_on_c, 0, 71, 73
1, 377825, Note_on_c, 0, 67, 68
1, 377840, Note_off_c, 0, 81, 68
1, 377853, Note_off_c, 0, 67, 66
1, 377855, Note_off_c, 0, 71, 61
1, 377863, Note_off_c, 0, 64, 59
1, 377864, Note_off_c, 0, 93, 65
1, 377922, Note_on_c, 0, 95, 97
1, 377932, Note_on_c, 0, 83, 89
1, 377953, Note_off_c, 0, 83, 70
1, 377963, Note_off_c, 0, 95, 66
1, 378015, Note_on_c, 0, 69, 71
1, 378019, Note_on_c, 0, 66, 63
1, 378021, Note_on_c, 0, 62, 67
1, 378043, Note_on_c, 0, 78, 81
1, 378043, Note_on_c, 0, 90, 84
1, 378045, Note_off_c, 0, 69, 65
1, 378047, Note_off_c, 0, 66, 66
1, 378051, Note_off_c, 0, 62, 65
1, 378067, Note_off_c, 0, 78, 68
1, 378084, Note_off_c, 0, 90, 64
1, 378145, Note_on_c, 0, 93, 94
1, 378159, Note_on_c, 0, 81, 63
1, 378177, Note_off_c, 0, 81, 67
1, 378183, Note_off_c, 0, 93, 65
1, 378220, Note_on_c, 0, 64, 69
1, 378224, Note_on_c, 0, 71, 76
1, 378226, Note_on_c, 0, 67, 74
1, 378251, Note_on_c, 0, 97, 97
1, 378251, Note_off_c, 0, 67, 66
1, 378254, Note_on_c, 0, 85, 91
1, 378260, Note_off_c, 0, 71, 58
1, 378262, Note_off_c, 0, 64, 63
1, 378277, Note_off_c, 0, 85, 67
1, 378292, Note_off_c, 0, 97, 65
1, 378335, Note_on_c, 0, 97, 92
1, 378342, Note_on_c, 0, 85, 89
1, 378385, Note_off_c, 0, 97, 67
1, 378388, Note_off_c, 0, 85, 63
1, 378439, Note_on_c, 0, 95, 93
1, 378443, Note_on_c, 0, 69, 82
1, 378445, Note_on_c, 0, 66, 79
1, 378446, Note_on_c, 0, 83, 86
1, 378449, Note_on_c, 0, 62, 73
1, 378450, Note_on_c, 0, 96, 76
1, 378466, Note_off_c, 0, 96, 44
1, 378478, Note_off_c, 0, 83, 62
1, 378482, Note_on_c, 0, 94, 33
1, 378485, Note_off_c, 0, 95, 67
1, 378500, Note_off_c, 0, 66, 59
1, 378505, Note_off_c, 0, 69, 57
1, 378515, Note_off_c, 0, 94, 36
1, 378537, Note_off_c, 0, 62, 65
1, 378546, Note_on_c, 0, 93, 100
1, 378564, Note_on_c, 0, 81, 85
1, 378583, Note_off_c, 0, 81, 70
1, 378588, Note_off_c, 0, 93, 68
1, 378659, Note_on_c, 0, 90, 95
1, 378660, Note_on_c, 0, 78, 92
1, 378660, Note_on_c, 0, 81, 12
1, 378662, Note_on_c, 0, 71, 71
1, 378665, Note_on_c, 0, 64, 60
1, 378665, Control_c, 0, 67, 8
1, 378668, Note_on_c, 0, 67, 62
1, 378680, Control_c, 0, 67, 11
1, 378695, Control_c, 0, 67, 12
1, 378701, Note_off_c, 0, 78, 58
1, 378704, Note_off_c, 0, 67, 60
1, 378706, Note_off_c, 0, 81, 34
1, 378708, Note_off_c, 0, 90, 66
1, 378710, Control_c, 0, 67, 14
1, 378724, Note_off_c, 0, 71, 61
1, 378725, Control_c, 0, 67, 14
1, 378729, Note_off_c, 0, 64, 49
1, 378740, Control_c, 0, 67, 15
1, 378754, Control_c, 0, 67, 16
1, 378769, Control_c, 0, 67, 17
1, 378784, Control_c, 0, 67, 17
1, 378789, Note_on_c, 0, 79, 62
1, 378814, Control_c, 0, 67, 18
1, 378820, Note_off_c, 0, 79, 59
1, 378828, Control_c, 0, 67, 18
1, 378843, Control_c, 0, 67, 19
1, 378858, Control_c, 0, 67, 20
1, 378873, Control_c, 0, 67, 21
1, 378880, Note_on_c, 0, 81, 64
1, 378887, Control_c, 0, 67, 22
1, 378899, Note_on_c, 0, 69, 52
1, 378902, Note_on_c, 0, 66, 42
1, 378902, Control_c, 0, 67, 24
1, 378908, Note_on_c, 0, 62, 43
1, 378917, Control_c, 0, 67, 26
1, 378930, Note_off_c, 0, 66, 55
1, 378932, Note_off_c, 0, 69, 50
1, 378932, Control_c, 0, 67, 27
1, 378937, Note_off_c, 0, 81, 63
1, 378947, Control_c, 0, 67, 28
1, 378953, Note_off_c, 0, 62, 56
1, 378961, Control_c, 0, 67, 29
1, 378976, Control_c, 0, 67, 30
1, 378983, Note_on_c, 0, 83, 78
1, 378991, Control_c, 0, 67, 32
1, 379005, Control_c, 0, 67, 33
1, 379020, Control_c, 0, 67, 33
1, 379050, Control_c, 0, 67, 34
1, 379062, Note_off_c, 0, 83, 63
1, 379073, Note_on_c, 0, 81, 73
1, 379080, Note_on_c, 0, 78, 68
1, 379080, Control_c, 0, 67, 34
1, 379083, Note_on_c, 0, 71, 48
1, 379089, Note_on_c, 0, 64, 49
1, 379092, Note_on_c, 0, 67, 39
1, 379113, Note_off_c, 0, 78, 62
1, 379122, Note_off_c, 0, 81, 58
1, 379124, Note_off_c, 0, 67, 54
1, 379127, Note_off_c, 0, 71, 62
1, 379136, Note_off_c, 0, 64, 61
1, 379154, Control_c, 0, 67, 34
1, 379169, Note_on_c, 0, 83, 82
1, 379213, Control_c, 0, 67, 33
1, 379228, Control_c, 0, 67, 32
1, 379247, Note_off_c, 0, 83, 43
1, 379256, Note_on_c, 0, 85, 82
1, 379258, Control_c, 0, 67, 32
1, 379268, Note_on_c, 0, 69, 63
1, 379268, Note_on_c, 0, 81, 72
1, 379274, Note_on_c, 0, 66, 53
1, 379274, Control_c, 0, 67, 31
1, 379279, Note_on_c, 0, 62, 53
1, 379293, Note_off_c, 0, 69, 64
1, 379305, Note_off_c, 0, 66, 58
1, 379310, Control_c, 0, 67, 31
1, 379314, Note_off_c, 0, 62, 61
1, 379322, Note_off_c, 0, 85, 63
1, 379325, Control_c, 0, 67, 29
1, 379340, Control_c, 0, 67, 29
1, 379341, Note_off_c, 0, 81, 41
1, 379353, Note_on_c, 0, 83, 85
1, 379368, Note_on_c, 0, 79, 74
1, 379384, Control_c, 0, 67, 28
1, 379393, Note_off_c, 0, 79, 68
1, 379393, Note_off_c, 0, 83, 64
1, 379399, Control_c, 0, 67, 28
1, 379414, Control_c, 0, 67, 26
1, 379429, Control_c, 0, 67, 26
1, 379444, Control_c, 0, 67, 24
1, 379452, Note_on_c, 0, 81, 85
1, 379458, Note_on_c, 0, 64, 58
1, 379458, Note_on_c, 0, 71, 56
1, 379458, Control_c, 0, 67, 22
1, 379473, Note_on_c, 0, 78, 67
1, 379473, Control_c, 0, 67, 19
1, 379482, Note_off_c, 0, 71, 57
1, 379487, Note_off_c, 0, 64, 63
1, 379488, Control_c, 0, 67, 14
1, 379498, Note_off_c, 0, 78, 67
1, 379498, Note_off_c, 0, 81, 63
1, 379503, Control_c, 0, 67, 9
1, 379518, Control_c, 0, 67, 0
1, 379527, Poly_aftertouch_c, 0, 67, 0
1, 379547, Note_on_c, 0, 79, 79
1, 379548, Poly_aftertouch_c, 0, 67, 0
1, 379572, Note_off_c, 0, 79, 68
1, 379592, Note_on_c, 0, 76, 10
1, 379643, Note_off_c, 0, 76, 36
1, 379679, Note_on_c, 0, 69, 55
1, 379682, Note_on_c, 0, 66, 51
1, 379691, Note_on_c, 0, 62, 63
1, 379725, Note_off_c, 0, 66, 58
1, 379730, Note_off_c, 0, 69, 53
1, 379744, Note_off_c, 0, 62, 61
1, 379751, Note_on_c, 0, 93, 90
1, 379759, Note_on_c, 0, 81, 77
1, 379792, Note_off_c, 0, 81, 57
1, 379812, Note_off_c, 0, 93, 64
1, 379879, Note_on_c, 0, 95, 96
1, 379889, Note_on_c, 0, 83, 84
1, 379903, Note_on_c, 0, 64, 61
1, 379915, Note_off_c, 0, 83, 67
1, 379916, Note_on_c, 0, 71, 63
1, 379917, Note_on_c, 0, 67, 57
1, 379923, Note_off_c, 0, 95, 68
1, 379942, Note_off_c, 0, 67, 58
1, 379961, Note_off_c, 0, 71, 57
1, 379967, Note_off_c, 0, 64, 61
1, 380004, Note_on_c, 0, 90, 91
1, 380005, Note_on_c, 0, 78, 84
1, 380024, Note_off_c, 0, 78, 70
1, 380058, Note_off_c, 0, 90, 65
1, 380107, Note_on_c, 0, 93, 88
1, 380108, Note_on_c, 0, 62, 72
1, 380114, Note_on_c, 0, 69, 70
1, 380116, Note_on_c, 0, 66, 64
1, 380118, Note_on_c, 0, 81, 68
1, 380120, Note_on_c, 0, 95, 67
1, 380121, Note_off_c, 0, 95, 55
1, 380133, Note_off_c, 0, 81, 69
1, 380141, Note_off_c, 0, 93, 66
1, 380144, Note_off_c, 0, 66, 65
1, 380147, Note_off_c, 0, 69, 64
1, 380162, Note_off_c, 0, 62, 65
1, 380200, Note_on_c, 0, 97, 100
1, 380208, Note_on_c, 0, 85, 88
1, 380227, Note_off_c, 0, 85, 70
1, 380240, Note_off_c, 0, 97, 66
1, 380284, Note_on_c, 0, 97, 87
1, 380288, Note_on_c, 0, 85, 84
1, 380325, Note_off_c, 0, 85, 61
1, 380329, Note_off_c, 0, 97, 66
1, 380384, Note_on_c, 0, 95, 98
1, 380390, Note_on_c, 0, 71, 78
1, 380392, Note_on_c, 0, 64, 73
1, 380393, Note_on_c, 0, 67, 76
1, 380399, Note_on_c, 0, 83, 77
1, 380418, Note_off_c, 0, 67, 66
1, 380421, Note_off_c, 0, 83, 67
1, 380423, Note_off_c, 0, 71, 55
1, 380424, Note_off_c, 0, 95, 67
1, 380427, Note_off_c, 0, 64, 59
1, 380485, Note_on_c, 0, 93, 99
1, 380497, Note_on_c, 0, 81, 77
1, 380519, Note_off_c, 0, 93, 65
1, 380521, Note_off_c, 0, 81, 69
1, 380594, Note_on_c, 0, 90, 100
1, 380603, Note_on_c, 0, 78, 76
1, 380612, Note_on_c, 0, 69, 70
1, 380612, Note_on_c, 0, 66, 58
1, 380619, Note_off_c, 0, 78, 69
1, 380621, Control_c, 0, 67, 8
1, 380627, Note_on_c, 0, 62, 64
1, 380636, Control_c, 0, 67, 10
1, 380637, Note_off_c, 0, 90, 65
1, 380639, Note_off_c, 0, 66, 59
1, 380650, Control_c, 0, 67, 11
1, 380660, Note_off_c, 0, 69, 58
1, 380665, Control_c, 0, 67, 10
1, 380675, Note_off_c, 0, 62, 62
1, 380739, Control_c, 0, 67, 11
1, 380821, Control_c, 0, 67, 11
1, 380836, Note_on_c, 0, 71, 51
1, 380836, Control_c, 0, 67, 12
1, 380839, Note_on_c, 0, 81, 60
1, 380841, Note_on_c, 0, 64, 49
1, 380850, Control_c, 0, 67, 13
1, 380865, Control_c, 0, 67, 17
1, 380867, Note_on_c, 0, 67, 19
1, 380880, Control_c, 0, 67, 20
1, 380883, Note_off_c, 0, 81, 58
1, 380892, Note_off_c, 0, 64, 63
1, 380893, Note_off_c, 0, 71, 58
1, 380895, Control_c, 0, 67, 23
1, 380910, Control_c, 0, 67, 25
1, 380913, Note_off_c, 0, 67, 40
1, 380925, Control_c, 0, 67, 27
1, 380931, Note_on_c, 0, 83, 69
1, 380940, Control_c, 0, 67, 30
1, 380955, Control_c, 0, 67, 33
1, 380970, Control_c, 0, 67, 36
1, 380985, Control_c, 0, 67, 38
1, 380999, Control_c, 0, 67, 39
1, 381000, Note_off_c, 0, 83, 63
1, 381014, Control_c, 0, 67, 40
1, 381015, Note_on_c, 0, 85, 72
1, 381028, Note_on_c, 0, 81, 72
1, 381029, Note_on_c, 0, 66, 55
1, 381029, Control_c, 0, 67, 42
1, 381029, Note_on_c, 0, 69, 64
1, 381039, Note_on_c, 0, 62, 58
1, 381044, Control_c, 0, 67, 45
1, 381050, Note_off_c, 0, 85, 63
1, 381059, Control_c, 0, 67, 48
1, 381062, Note_off_c, 0, 69, 64
1, 381067, Note_off_c, 0, 66, 62
1, 381072, Note_off_c, 0, 81, 58
1, 381074, Control_c, 0, 67, 49
1, 381077, Note_off_c, 0, 62, 61
1, 381088, Control_c, 0, 67, 48
1, 381103, Control_c, 0, 67, 48
1, 381104, Note_on_c, 0, 83, 82
1, 381115, Note_on_c, 0, 79, 71
1, 381118, Control_c, 0, 67, 50
1, 381132, Note_off_c, 0, 83, 63
1, 381133, Control_c, 0, 67, 51
1, 381139, Note_off_c, 0, 79, 68
1, 381147, Control_c, 0, 67, 55
1, 381162, Control_c, 0, 67, 58
1, 381177, Control_c, 0, 67, 58
1, 381192, Control_c, 0, 67, 58
1, 381196, Note_on_c, 0, 81, 77
1, 381207, Control_c, 0, 67, 57
1, 381209, Note_on_c, 0, 71, 64
1, 381214, Note_on_c, 0, 78, 74
1, 381217, Note_on_c, 0, 64, 55
1, 381217, Note_on_c, 0, 67, 56
1, 381221, Control_c, 0, 67, 56
1, 381236, Control_c, 0, 67, 57
1, 381243, Note_off_c, 0, 81, 63
1, 381244, Note_off_c, 0, 71, 61
1, 381251, Note_off_c, 0, 67, 63
1, 381251, Control_c, 0, 67, 56
1, 381253, Note_off_c, 0, 78, 52
1, 381257, Note_off_c, 0, 64, 59
1, 381266, Control_c, 0, 67, 54
1, 381277, Note_on_c, 0, 79, 69
1, 381280, Control_c, 0, 67, 53
1, 381294, Note_on_c, 0, 76, 73
1, 381295, Control_c, 0, 67, 53
1, 381320, Note_off_c, 0, 79, 64
1, 381325, Control_c, 0, 67, 52
1, 381327, Note_off_c, 0, 76, 63
1, 381340, Control_c, 0, 67, 51
1, 381354, Control_c, 0, 67, 51
1, 381369, Control_c, 0, 67, 50
1, 381375, Note_on_c, 0, 81, 83
1, 381384, Control_c, 0, 67, 49
1, 381389, Note_on_c, 0, 78, 84
1, 381390, Note_on_c, 0, 69, 60
1, 381391, Note_on_c, 0, 66, 61
1, 381394, Note_on_c, 0, 62, 62
1, 381399, Control_c, 0, 67, 48
1, 381414, Control_c, 0, 67, 46
1, 381417, Note_off_c, 0, 81, 63
1, 381428, Note_off_c, 0, 66, 60
1, 381428, Note_off_c, 0, 69, 61
1, 381429, Control_c, 0, 67, 44
1, 381444, Control_c, 0, 67, 41
1, 381448, Note_off_c, 0, 62, 59
1, 381459, Control_c, 0, 67, 37
1, 381467, Note_on_c, 0, 79, 83
1, 381470, Note_on_c, 0, 76, 81
1, 381470, Note_off_c, 0, 78, 61
1, 381473, Control_c, 0, 67, 33
1, 381488, Control_c, 0, 67, 28
1, 381503, Control_c, 0, 67, 22
1, 381518, Control_c, 0, 67, 13
1, 381533, Control_c, 0, 67, 0
1, 381565, Note_off_c, 0, 79, 36
1, 381569, Note_on_c, 0, 71, 66
1, 381569, Note_on_c, 0, 78, 87
1, 381573, Note_on_c, 0, 64, 67
1, 381575, Note_on_c, 0, 67, 57
1, 381584, Note_on_c, 0, 74, 65
1, 381613, Note_off_c, 0, 74, 62
1, 381616, Note_off_c, 0, 67, 56
1, 381622, Note_off_c, 0, 64, 62
1, 381622, Note_off_c, 0, 71, 57
1, 381628, Note_off_c, 0, 76, 22
1, 381644, Note_off_c, 0, 78, 44
1, 381656, Note_on_c, 0, 79, 83
1, 381659, Note_on_c, 0, 76, 66
1, 381747, Note_on_c, 0, 78, 89
1, 381751, Note_off_c, 0, 76, 60
1, 381752, Note_on_c, 0, 69, 76
1, 381755, Note_off_c, 0, 79, 63
1, 381757, Note_on_c, 0, 66, 68
1, 381759, Note_on_c, 0, 74, 63
1, 381762, Note_on_c, 0, 62, 66
1, 381784, Note_off_c, 0, 74, 66
1, 381795, Note_off_c, 0, 78, 63
1, 381807, Note_off_c, 0, 69, 62
1, 381809, Note_off_c, 0, 66, 58
1, 381833, Note_off_c, 0, 62, 62
1, 381837, Note_on_c, 0, 76, 84
1, 381849, Note_on_c, 0, 73, 74
1, 381877, Note_off_c, 0, 73, 69
1, 381888, Note_off_c, 0, 76, 60
1, 381924, Note_on_c, 0, 71, 75
1, 381927, Note_on_c, 0, 64, 68
1, 381932, Note_on_c, 0, 78, 84
1, 381935, Note_on_c, 0, 67, 58
1, 381943, Note_on_c, 0, 76, 39
1, 381957, Note_off_c, 0, 64, 66
1, 381957, Note_off_c, 0, 67, 63
1, 381966, Note_off_c, 0, 71, 54
1, 381969, Note_off_c, 0, 76, 56
1, 382010, Note_off_c, 0, 78, 59
1, 382017, Note_on_c, 0, 79, 85
1, 382070, Note_off_c, 0, 79, 66
1, 382127, Note_on_c, 0, 66, 43
1, 382131, Note_on_c, 0, 69, 98
1, 382140, Note_on_c, 0, 62, 77
1, 382141, Note_on_c, 0, 81, 76
1, 382142, Note_on_c, 0, 78, 81
1, 382149, Note_on_c, 0, 57, 66
1, 382176, Note_off_c, 0, 57, 66
1, 382197, Note_off_c, 0, 81, 64
1, 382209, Note_off_c, 0, 69, 65
1, 382222, Note_off_c, 0, 62, 64
1, 382231, Note_off_c, 0, 66, 64
1, 382241, Note_on_c, 0, 83, 81
1, 382254, Note_on_c, 0, 79, 78
1, 382273, Note_on_c, 0, 59, 88
1, 382277, Note_off_c, 0, 78, 34
1, 382308, Note_off_c, 0, 79, 63
1, 382313, Note_off_c, 0, 83, 59
1, 382341, Note_off_c, 0, 59, 66
1, 382354, Note_on_c, 0, 81, 80
1, 382393, Note_on_c, 0, 62, 99
1, 382444, Note_off_c, 0, 81, 62
1, 382445, Note_on_c, 0, 83, 86
1, 382454, Note_on_c, 0, 79, 81
1, 382457, Note_off_c, 0, 62, 56
1, 382496, Note_on_c, 0, 61, 93
1, 382514, Note_off_c, 0, 83, 66
1, 382539, Note_off_c, 0, 79, 40
1, 382549, Note_on_c, 0, 81, 78
1, 382551, Note_on_c, 0, 85, 81
1, 382570, Note_off_c, 0, 61, 66
1, 382610, Note_on_c, 0, 59, 92
1, 382628, Note_on_c, 0, 83, 83
1, 382630, Note_off_c, 0, 85, 66
1, 382639, Note_off_c, 0, 81, 65
1, 382642, Note_on_c, 0, 79, 85
1, 382665, Note_off_c, 0, 79, 69
1, 382672, Note_off_c, 0, 83, 66
1, 382688, Note_off_c, 0, 59, 61
1, 382723, Note_on_c, 0, 57, 91
1, 382737, Note_on_c, 0, 81, 83
1, 382740, Note_on_c, 0, 78, 85
1, 382778, Note_off_c, 0, 81, 62
1, 382804, Note_off_c, 0, 57, 63
1, 382809, Poly_aftertouch_c, 0, 79, 0
1, 382823, Note_on_c, 0, 79, 51
1, 382830, Note_on_c, 0, 59, 92
1, 382833, Note_on_c, 0, 76, 89
1, 382851, Note_off_c, 0, 78, 60
1, 382877, Note_off_c, 0, 76, 63
1, 382886, Note_off_c, 0, 79, 66
1, 382922, Note_off_c, 0, 59, 65
1, 382922, Note_on_c, 0, 81, 91
1, 382940, Note_on_c, 0, 78, 83
1, 382946, Note_on_c, 0, 54, 84
1, 382977, Note_off_c, 0, 81, 65
1, 383018, Note_on_c, 0, 79, 87
1, 383018, Note_off_c, 0, 54, 60
1, 383021, Note_on_c, 0, 76, 86
1, 383056, Note_on_c, 0, 57, 75
1, 383072, Note_off_c, 0, 76, 64
1, 383086, Note_off_c, 0, 79, 64
1, 383096, Note_off_c, 0, 78, 23
1, 383121, Note_on_c, 0, 78, 81
1, 383123, Note_on_c, 0, 74, 81
1, 383143, Note_off_c, 0, 57, 63
1, 383158, Note_on_c, 0, 61, 88
1, 383168, Note_off_c, 0, 74, 62
1, 383187, Poly_aftertouch_c, 0, 79, 0
1, 383192, Note_off_c, 0, 61, 63
1, 383202, Note_on_c, 0, 79, 46
1, 383215, Note_on_c, 0, 76, 90
1, 383224, Note_off_c, 0, 78, 61
1, 383314, Note_off_c, 0, 76, 57
1, 383342, Note_on_c, 0, 74, 67
1, 383342, Note_on_c, 0, 69, 96
1, 383345, Note_on_c, 0, 62, 88
1, 383348, Note_on_c, 0, 66, 85
1, 383348, Note_on_c, 0, 78, 77
1, 383349, Control_c, 0, 64, 81
1, 383352, Note_off_c, 0, 79, 65
1, 383364, Control_c, 0, 64, 58
1, 383375, Note_off_c, 0, 74, 66
1, 383379, Control_c, 0, 64, 44
1, 383394, Control_c, 0, 64, 49
1, 383409, Control_c, 0, 64, 64
1, 383423, Control_c, 0, 64, 94
1, 383438, Control_c, 0, 64, 127
1, 383450, Note_on_c, 0, 73, 78
1, 383453, Note_on_c, 0, 76, 65
1, 383489, Note_off_c, 0, 78, 34
1, 383489, Note_off_c, 0, 69, 65
1, 383491, Note_off_c, 0, 73, 68
1, 383507, Note_off_c, 0, 62, 64
1, 383512, Note_off_c, 0, 66, 64
1, 383545, Note_on_c, 0, 78, 69
1, 383556, Note_on_c, 0, 71, 95
1, 383560, Note_on_c, 0, 64, 77
1, 383560, Note_on_c, 0, 67, 88
1, 383575, Note_off_c, 0, 78, 66
1, 383593, Note_off_c, 0, 76, 56
1, 383614, Note_off_c, 0, 67, 54
1, 383630, Note_on_c, 0, 79, 80
1, 383633, Note_off_c, 0, 71, 61
1, 383644, Note_off_c, 0, 64, 59
1, 383670, Note_off_c, 0, 79, 66
1, 383729, Note_on_c, 0, 81, 86
1, 383732, Note_on_c, 0, 69, 75
1, 383738, Note_on_c, 0, 78, 73
1, 383739, Note_on_c, 0, 66, 65
1, 383745, Note_on_c, 0, 62, 70
1, 383764, Note_off_c, 0, 78, 66
1, 383781, Note_off_c, 0, 81, 64
1, 383782, Note_off_c, 0, 69, 66
1, 383786, Note_off_c, 0, 66, 56
1, 383825, Note_off_c, 0, 62, 54
1, 383829, Note_on_c, 0, 83, 90
1, 383891, Note_off_c, 0, 83, 66
1, 383959, Note_on_c, 0, 64, 68
1, 383959, Note_on_c, 0, 71, 74
1, 383967, Note_on_c, 0, 67, 71
1, 384031, Note_on_c, 0, 81, 103
1, 384038, Control_c, 0, 64, 86
1, 384053, Control_c, 0, 64, 66
1, 384069, Control_c, 0, 64, 50
1, 384084, Control_c, 0, 64, 44
1, 384098, Control_c, 0, 64, 48
1, 384113, Control_c, 0, 64, 58
1, 384128, Control_c, 0, 64, 71
1, 384143, Control_c, 0, 64, 109
1, 384147, Note_off_c, 0, 71, 61
1, 384157, Note_off_c, 0, 81, 64
1, 384158, Control_c, 0, 64, 127
1, 384169, Note_off_c, 0, 67, 58
1, 384190, Note_off_c, 0, 64, 62
1, 384197, Note_on_c, 0, 83, 104
1, 384267, Note_on_c, 0, 69, 79
1, 384268, Note_on_c, 0, 66, 65
1, 384272, Note_on_c, 0, 62, 72
1, 384273, Note_off_c, 0, 83, 65
1, 384350, Note_on_c, 0, 86, 101
1, 384359, Note_off_c, 0, 69, 54
1, 384385, Note_off_c, 0, 66, 0
1, 384396, Note_off_c, 0, 62, 61
1, 384421, Poly_aftertouch_c, 0, 66, 0
1, 384421, Note_off_c, 0, 86, 65
1, 384478, Note_on_c, 0, 85, 103
1, 384489, Note_on_c, 0, 71, 78
1, 384491, Note_on_c, 0, 67, 76
1, 384493, Note_on_c, 0, 64, 71
1, 384556, Note_off_c, 0, 85, 65
1, 384571, Note_off_c, 0, 67, 55
1, 384584, Note_off_c, 0, 71, 56
1, 384593, Note_off_c, 0, 64, 60
1, 384608, Note_on_c, 0, 83, 97
1, 384652, Note_off_c, 0, 83, 67
1, 384773, Note_on_c, 0, 66, 61
1, 384776, Note_on_c, 0, 62, 67
1, 384833, Note_on_c, 0, 81, 99
1, 384835, Note_on_c, 0, 69, 101
1, 384886, Note_off_c, 0, 66, 57
1, 384924, Note_off_c, 0, 69, 65
1, 384928, Note_off_c, 0, 81, 64
1, 384930, Note_off_c, 0, 62, 59
1, 385025, Note_on_c, 0, 83, 102
1, 385026, Note_on_c, 0, 71, 106
1, 385082, Note_off_c, 0, 71, 57
1, 385095, Note_off_c, 0, 83, 65
1, 385135, Note_on_c, 0, 64, 69
1, 385135, Note_on_c, 0, 71, 71
1, 385140, Note_on_c, 0, 67, 68
1, 385181, Note_off_c, 0, 67, 63
1, 385189, Note_off_c, 0, 64, 63
1, 385191, Note_off_c, 0, 71, 62
1, 385199, Note_on_c, 0, 86, 98
1, 385203, Note_on_c, 0, 74, 97
1, 385232, Note_off_c, 0, 74, 67
1, 385235, Note_off_c, 0, 86, 66
1, 385321, Poly_aftertouch_c, 0, 76, 0
1, 385339, Note_on_c, 0, 73, 96
1, 385339, Note_on_c, 0, 85, 98
1, 385347, Note_on_c, 0, 69, 81
1, 385352, Note_on_c, 0, 66, 65
1, 385363, Note_on_c, 0, 62, 68
1, 385381, Note_off_c, 0, 73, 65
1, 385391, Note_off_c, 0, 66, 59
1, 385391, Note_off_c, 0, 85, 64
1, 385401, Note_off_c, 0, 69, 64
1, 385429, Note_off_c, 0, 62, 56
1, 385461, Note_on_c, 0, 83, 100
1, 385463, Note_on_c, 0, 71, 93
1, 385499, Note_off_c, 0, 71, 65
1, 385501, Note_off_c, 0, 83, 67
1, 385569, Note_on_c, 0, 64, 69
1, 385575, Note_on_c, 0, 67, 69
1, 385586, Note_on_c, 0, 71, 73
1, 385587, Note_on_c, 0, 69, 101
1, 385588, Note_on_c, 0, 81, 86
1, 385611, Note_on_c, 0, 79, 54
1, 385612, Note_off_c, 0, 67, 65
1, 385620, Note_off_c, 0, 64, 62
1, 385626, Note_off_c, 0, 69, 67
1, 385633, Note_off_c, 0, 71, 61
1, 385633, Note_off_c, 0, 81, 66
1, 385636, Note_off_c, 0, 79, 37
1, 385712, Note_on_c, 0, 83, 101
1, 385716, Note_on_c, 0, 71, 95
1, 385741, Note_off_c, 0, 71, 66
1, 385742, Note_off_c, 0, 83, 69
1, 385748, Note_on_c, 0, 81, 41
1, 385769, Note_on_c, 0, 69, 83
1, 385770, Note_on_c, 0, 66, 60
1, 385778, Note_on_c, 0, 62, 70
1, 385778, Note_off_c, 0, 81, 50
1, 385793, Note_off_c, 0, 66, 60
1, 385800, Note_off_c, 0, 69, 69
1, 385814, Note_off_c, 0, 62, 60
1, 385837, Note_on_c, 0, 78, 95
1, 385843, Note_on_c, 0, 66, 90
1, 385861, Note_off_c, 0, 66, 72
1, 385882, Note_off_c, 0, 78, 63
1, 385947, Note_on_c, 0, 81, 100
1, 385951, Note_on_c, 0, 69, 93
1, 385970, Note_off_c, 0, 69, 72
1, 385979, Note_off_c, 0, 81, 70
1, 386004, Poly_aftertouch_c, 0, 66, 0
1, 386009, Note_on_c, 0, 64, 70
1, 386010, Note_on_c, 0, 71, 61
1, 386013, Note_on_c, 0, 67, 78
1, 386047, Note_on_c, 0, 69, 33
1, 386050, Note_off_c, 0, 67, 67
1, 386063, Note_off_c, 0, 64, 64
1, 386069, Note_off_c, 0, 71, 64
1, 386070, Note_on_c, 0, 73, 99
1, 386072, Note_on_c, 0, 85, 102
1, 386075, Note_off_c, 0, 69, 59
1, 386110, Note_off_c, 0, 73, 66
1, 386119, Note_off_c, 0, 85, 65
1, 386180, Note_on_c, 0, 83, 102
1, 386181, Note_on_c, 0, 71, 94
1, 386194, Note_on_c, 0, 69, 70
1, 386202, Note_on_c, 0, 66, 77
1, 386208, Note_on_c, 0, 62, 71
1, 386218, Note_off_c, 0, 71, 66
1, 386218, Note_off_c, 0, 83, 68
1, 386237, Note_off_c, 0, 66, 66
1, 386252, Note_off_c, 0, 69, 63
1, 386274, Note_off_c, 0, 62, 63
1, 386298, Note_on_c, 0, 81, 97
1, 386302, Note_on_c, 0, 69, 92
1, 386335, Note_off_c, 0, 69, 66
1, 386340, Note_off_c, 0, 81, 65
1, 386397, Note_on_c, 0, 71, 75
1, 386401, Note_on_c, 0, 64, 63
1, 386402, Note_on_c, 0, 67, 71
1, 386432, Note_off_c, 0, 67, 64
1, 386437, Note_on_c, 0, 85, 95
1, 386440, Note_on_c, 0, 73, 91
1, 386441, Note_off_c, 0, 64, 65
1, 386449, Note_off_c, 0, 71, 63
1, 386480, Note_off_c, 0, 85, 66
1, 386481, Note_off_c, 0, 73, 62
1, 386556, Note_on_c, 0, 83, 99
1, 386563, Note_on_c, 0, 71, 86
1, 386586, Note_off_c, 0, 71, 67
1, 386595, Note_off_c, 0, 83, 67
1, 386609, Note_on_c, 0, 69, 68
1, 386621, Note_on_c, 0, 66, 61
1, 386623, Note_on_c, 0, 62, 66
1, 386648, Note_off_c, 0, 66, 64
1, 386669, Note_off_c, 0, 69, 66
1, 386681, Note_off_c, 0, 62, 62
1, 386682, Note_on_c, 0, 78, 94
1, 386684, Note_on_c, 0, 66, 89
1, 386723, Note_off_c, 0, 66, 66
1, 386732, Note_off_c, 0, 78, 64
1, 386802, Note_on_c, 0, 81, 102
1, 386804, Note_on_c, 0, 69, 93
1, 386836, Note_off_c, 0, 69, 66
1, 386836, Note_off_c, 0, 81, 68
1, 386884, Note_on_c, 0, 64, 74
1, 386884, Note_on_c, 0, 71, 79
1, 386888, Note_on_c, 0, 67, 78
1, 386940, Note_off_c, 0, 67, 59
1, 386958, Note_off_c, 0, 64, 54
1, 386960, Note_on_c, 0, 85, 101
1, 386962, Note_on_c, 0, 73, 100
1, 386962, Note_off_c, 0, 71, 59
1, 387006, Note_off_c, 0, 73, 66
1, 387008, Note_off_c, 0, 85, 67
1, 387101, Note_on_c, 0, 83, 101
1, 387105, Note_on_c, 0, 71, 94
1, 387107, Note_on_c, 0, 66, 66
1, 387112, Note_on_c, 0, 69, 66
1, 387129, Note_on_c, 0, 62, 61
1, 387137, Note_off_c, 0, 66, 66
1, 387139, Note_off_c, 0, 71, 67
1, 387143, Note_off_c, 0, 83, 67
1, 387148, Note_off_c, 0, 69, 66
1, 387187, Note_off_c, 0, 62, 61
1, 387248, Note_on_c, 0, 78, 89
1, 387256, Note_on_c, 0, 66, 77
1, 387274, Note_off_c, 0, 66, 68
1, 387288, Note_off_c, 0, 78, 59
1, 387406, Note_on_c, 0, 71, 57
1, 387408, Note_on_c, 0, 64, 47
1, 387413, Note_on_c, 0, 67, 51
1, 387442, Note_off_c, 0, 67, 57
1, 387444, Note_off_c, 0, 71, 58
1, 387445, Note_off_c, 0, 64, 63
1, 387575, Control_c, 0, 64, 88
1, 387590, Control_c, 0, 64, 60
1, 387594, Note_on_c, 0, 69, 65
1, 387597, Note_on_c, 0, 62, 63
1, 387605, Control_c, 0, 64, 30
1, 387605, Note_on_c, 0, 66, 48
1, 387620, Control_c, 0, 64, 12
1, 387635, Control_c, 0, 64, 38
1, 387638, Note_off_c, 0, 69, 47
1, 387641, Note_off_c, 0, 66, 60
1, 387649, Control_c, 0, 64, 59
1, 387653, Note_off_c, 0, 62, 60
1, 387664, Control_c, 0, 64, 79
1, 387677, Note_on_c, 0, 81, 102
1, 387679, Control_c, 0, 64, 127
1, 387681, Note_on_c, 0, 74, 90
1, 387686, Note_on_c, 0, 78, 87
1, 387732, Note_off_c, 0, 74, 57
1, 387738, Control_c, 0, 64, 80
1, 387747, Note_off_c, 0, 81, 64
1, 387749, Note_off_c, 0, 78, 60
1, 387753, Control_c, 0, 64, 57
1, 387760, Note_on_c, 0, 69, 81
1, 387766, Note_on_c, 0, 66, 68
1, 387768, Note_on_c, 0, 62, 75
1, 387768, Control_c, 0, 64, 0
1, 387809, Note_off_c, 0, 62, 64
1, 387809, Note_off_c, 0, 69, 67
1, 387811, Note_off_c, 0, 66, 63
1, 387817, Note_on_c, 0, 76, 96
1, 387820, Note_on_c, 0, 81, 94
1, 387873, Note_off_c, 0, 81, 65
1, 387881, Note_off_c, 0, 76, 66
1, 387888, Note_on_c, 0, 66, 71
1, 387888, Note_on_c, 0, 69, 79
1, 387895, Note_on_c, 0, 62, 67
1, 387923, Note_off_c, 0, 62, 67
1, 387925, Note_off_c, 0, 66, 63
1, 387927, Note_off_c, 0, 69, 65
1, 387945, Note_on_c, 0, 79, 96
1, 387951, Note_on_c, 0, 81, 87
1, 387984, Note_off_c, 0, 81, 63
1, 388000, Note_on_c, 0, 62, 64
1, 388005, Note_off_c, 0, 79, 66
1, 388007, Note_on_c, 0, 69, 73
1, 388009, Note_on_c, 0, 66, 69
1, 388036, Note_off_c, 0, 62, 66
1, 388039, Note_off_c, 0, 66, 65
1, 388043, Note_off_c, 0, 69, 65
1, 388064, Note_on_c, 0, 78, 94
1, 388080, Note_on_c, 0, 81, 70
1, 388097, Note_off_c, 0, 81, 66
1, 388116, Note_off_c, 0, 78, 65
1, 388119, Note_on_c, 0, 66, 61
1, 388120, Note_on_c, 0, 62, 61
1, 388121, Note_on_c, 0, 69, 73
1, 388148, Note_off_c, 0, 62, 62
1, 388154, Note_off_c, 0, 66, 65
1, 388157, Note_off_c, 0, 69, 65
1, 388170, Note_on_c, 0, 81, 69
1, 388174, Note_on_c, 0, 76, 86
1, 388206, Note_off_c, 0, 81, 65
1, 388219, Note_off_c, 0, 76, 66
1, 388239, Note_on_c, 0, 69, 73
1, 388240, Note_on_c, 0, 62, 51
1, 388242, Note_on_c, 0, 66, 56
1, 388243, Control_c, 0, 64, 24
1, 388257, Control_c, 0, 64, 16
1, 388266, Note_off_c, 0, 62, 58
1, 388271, Note_off_c, 0, 66, 64
1, 388272, Note_off_c, 0, 69, 64
1, 388272, Control_c, 0, 64, 0
1, 388294, Note_on_c, 0, 74, 89
1, 388317, Note_on_c, 0, 81, 63
1, 388335, Note_off_c, 0, 81, 64
1, 388347, Note_off_c, 0, 74, 66
1, 388355, Note_on_c, 0, 66, 69
1, 388355, Note_on_c, 0, 69, 60
1, 388356, Note_on_c, 0, 62, 56
1, 388389, Note_off_c, 0, 66, 64
1, 388390, Note_off_c, 0, 62, 66
1, 388392, Note_off_c, 0, 69, 67
1, 388405, Note_on_c, 0, 76, 99
1, 388419, Note_on_c, 0, 81, 54
1, 388428, Control_c, 0, 64, 26
1, 388440, Note_off_c, 0, 81, 62
1, 388443, Control_c, 0, 64, 40
1, 388458, Control_c, 0, 64, 0
1, 388461, Note_off_c, 0, 76, 65
1, 388467, Note_on_c, 0, 66, 76
1, 388467, Note_on_c, 0, 69, 81
1, 388468, Note_on_c, 0, 62, 68
1, 388499, Note_off_c, 0, 66, 64
1, 388501, Note_off_c, 0, 62, 66
1, 388506, Note_off_c, 0, 69, 65
1, 388518, Note_on_c, 0, 79, 97
1, 388525, Note_on_c, 0, 81, 84
1, 388571, Note_off_c, 0, 81, 66
1, 388575, Note_on_c, 0, 66, 83
1, 388578, Note_on_c, 0, 62, 66
1, 388581, Note_off_c, 0, 79, 67
1, 388586, Note_on_c, 0, 69, 77
1, 388605, Control_c, 0, 64, 40
1, 388606, Note_off_c, 0, 62, 66
1, 388615, Note_off_c, 0, 69, 67
1, 388616, Note_off_c, 0, 66, 61
1, 388620, Control_c, 0, 64, 21
1, 388632, Note_on_c, 0, 78, 96
1, 388635, Control_c, 0, 64, 0
1, 388669, Note_on_c, 0, 81, 45
1, 388684, Note_on_c, 0, 62, 64
1, 388685, Note_on_c, 0, 66, 75
1, 388687, Note_on_c, 0, 69, 78
1, 388693, Note_off_c, 0, 78, 64
1, 388696, Note_off_c, 0, 81, 40
1, 388709, Control_c, 0, 64, 13
1, 388720, Note_off_c, 0, 62, 66
1, 388720, Note_off_c, 0, 66, 64
1, 388723, Note_off_c, 0, 69, 67
1, 388724, Control_c, 0, 64, 0
1, 388737, Note_on_c, 0, 76, 90
1, 388750, Note_on_c, 0, 81, 78
1, 388776, Note_off_c, 0, 81, 67
1, 388786, Note_off_c, 0, 76, 66
1, 388798, Note_on_c, 0, 62, 63
1, 388803, Note_on_c, 0, 66, 68
1, 388803, Note_on_c, 0, 69, 70
1, 388824, Note_off_c, 0, 62, 59
1, 388833, Note_off_c, 0, 66, 66
1, 388837, Note_off_c, 0, 69, 67
1, 388853, Note_on_c, 0, 74, 85
1, 388858, Note_on_c, 0, 81, 71
1, 388899, Note_off_c, 0, 81, 64
1, 388905, Note_off_c, 0, 74, 65
1, 388910, Note_on_c, 0, 69, 73
1, 388913, Note_on_c, 0, 66, 67
1, 388914, Note_on_c, 0, 62, 59
1, 388944, Note_off_c, 0, 62, 64
1, 388950, Note_off_c, 0, 66, 66
1, 388955, Note_off_c, 0, 69, 66
1, 388973, Note_on_c, 0, 76, 86
1, 388973, Note_on_c, 0, 81, 67
1, 388991, Control_c, 0, 64, 34
1, 389006, Control_c, 0, 64, 55
1, 389012, Note_off_c, 0, 81, 64
1, 389019, Note_off_c, 0, 76, 65
1, 389021, Control_c, 0, 64, 60
1, 389040, Note_on_c, 0, 69, 74
1, 389042, Note_on_c, 0, 62, 58
1, 389042, Note_on_c, 0, 66, 75
1, 389043, Control_c, 0, 64, 62
1, 389058, Control_c, 0, 64, 64
1, 389069, Note_off_c, 0, 62, 62
1, 389072, Note_off_c, 0, 66, 67
1, 389073, Control_c, 0, 64, 69
1, 389080, Note_off_c, 0, 69, 67
1, 389086, Note_on_c, 0, 71, 97
1, 389087, Control_c, 0, 64, 77
1, 389092, Note_on_c, 0, 81, 93
1, 389102, Control_c, 0, 64, 90
1, 389117, Control_c, 0, 64, 98
1, 389132, Control_c, 0, 64, 101
1, 389136, Note_off_c, 0, 81, 64
1, 389141, Note_off_c, 0, 71, 64
1, 389146, Note_on_c, 0, 69, 90
1, 389147, Note_on_c, 0, 62, 79
1, 389147, Note_on_c, 0, 66, 89
1, 389147, Control_c, 0, 64, 104
1, 389161, Control_c, 0, 64, 107
1, 389176, Control_c, 0, 64, 108
1, 389188, Note_off_c, 0, 62, 62
1, 389192, Note_off_c, 0, 66, 64
1, 389194, Note_off_c, 0, 69, 66
1, 389208, Note_on_c, 0, 74, 98
1, 389212, Note_on_c, 0, 81, 101
1, 389248, Note_off_c, 0, 81, 67
1, 389254, Note_on_c, 0, 69, 89
1, 389256, Note_on_c, 0, 66, 86
1, 389257, Note_off_c, 0, 74, 66
1, 389264, Note_on_c, 0, 62, 69
1, 389265, Control_c, 0, 64, 107
1, 389280, Control_c, 0, 64, 100
1, 389295, Note_off_c, 0, 62, 64
1, 389295, Control_c, 0, 64, 76
1, 389304, Note_off_c, 0, 66, 64
1, 389306, Note_off_c, 0, 69, 66
1, 389310, Control_c, 0, 64, 57
1, 389317, Note_on_c, 0, 78, 102
1, 389325, Control_c, 0, 64, 0
1, 389335, Note_on_c, 0, 81, 74
1, 389350, Note_off_c, 0, 81, 71
1, 389369, Note_on_c, 0, 66, 85
1, 389370, Control_c, 0, 64, 33
1, 389373, Note_on_c, 0, 69, 83
1, 389377, Note_on_c, 0, 62, 57
1, 389378, Note_off_c, 0, 78, 64
1, 389385, Control_c, 0, 64, 43
1, 389400, Control_c, 0, 64, 0
1, 389407, Note_off_c, 0, 62, 66
1, 389412, Note_off_c, 0, 69, 66
1, 389415, Note_off_c, 0, 66, 65
1, 389426, Note_on_c, 0, 76, 111
1, 389438, Note_on_c, 0, 81, 66
1, 389462, Note_off_c, 0, 81, 60
1, 389474, Control_c, 0, 64, 12
1, 389482, Note_off_c, 0, 76, 66
1, 389483, Note_on_c, 0, 66, 84
1, 389483, Note_on_c, 0, 69, 82
1, 389486, Note_on_c, 0, 62, 71
1, 389488, Control_c, 0, 64, 0
1, 389520, Note_off_c, 0, 62, 66
1, 389522, Note_off_c, 0, 69, 66
1, 389527, Note_off_c, 0, 66, 64
1, 389534, Note_on_c, 0, 74, 98
1, 389549, Note_on_c, 0, 83, 81
1, 389555, Note_on_c, 0, 81, 57
1, 389562, Control_c, 0, 64, 32
1, 389563, Note_off_c, 0, 83, 71
1, 389575, Note_off_c, 0, 81, 63
1, 389577, Control_c, 0, 64, 0
1, 389589, Note_off_c, 0, 74, 65
1, 389590, Note_on_c, 0, 69, 85
1, 389590, Note_on_c, 0, 66, 84
1, 389593, Note_on_c, 0, 62, 77
1, 389623, Note_off_c, 0, 62, 68
1, 389632, Note_off_c, 0, 69, 66
1, 389634, Note_off_c, 0, 66, 65
1, 389647, Note_on_c, 0, 81, 81
1, 389651, Control_c, 0, 64, 58
1, 389659, Note_on_c, 0, 71, 92
1, 389667, Control_c, 0, 64, 68
1, 389697, Control_c, 0, 64, 64
1, 389703, Note_off_c, 0, 81, 65
1, 389704, Note_off_c, 0, 71, 64
1, 389705, Note_on_c, 0, 69, 83
1, 389709, Note_on_c, 0, 66, 78
1, 389711, Note_on_c, 0, 62, 65
1, 389711, Control_c, 0, 64, 56
1, 389726, Control_c, 0, 64, 46
1, 389741, Control_c, 0, 64, 25
1, 389745, Note_off_c, 0, 62, 67
1, 389750, Note_off_c, 0, 66, 62
1, 389754, Note_off_c, 0, 69, 65
1, 389756, Control_c, 0, 64, 0
1, 389770, Note_on_c, 0, 81, 99
1, 389771, Note_on_c, 0, 74, 96
1, 389771, Control_c, 0, 67, 8
1, 389793, Control_c, 0, 67, 0
1, 389822, Note_off_c, 0, 81, 62
1, 389823, Control_c, 0, 64, 19
1, 389825, Note_on_c, 0, 62, 77
1, 389827, Note_on_c, 0, 69, 72
1, 389829, Note_off_c, 0, 74, 65
1, 389833, Note_on_c, 0, 66, 80
1, 389837, Control_c, 0, 64, 26
1, 389837, Control_c, 0, 67, 9
1, 389852, Control_c, 0, 64, 0
1, 389852, Control_c, 0, 67, 9
1, 389863, Note_off_c, 0, 62, 66
1, 389867, Note_off_c, 0, 66, 62
1, 389867, Control_c, 0, 67, 10
1, 389874, Note_off_c, 0, 69, 65
1, 389882, Control_c, 0, 67, 12
1, 389894, Note_on_c, 0, 74, 86
1, 389895, Note_on_c, 0, 81, 83
1, 389897, Control_c, 0, 67, 13
1, 389903, Note_on_c, 0, 78, 75
1, 389911, Control_c, 0, 67, 14
1, 389926, Control_c, 0, 67, 15
1, 389931, Note_off_c, 0, 81, 64
1, 389940, Note_off_c, 0, 78, 61
1, 389941, Note_off_c, 0, 74, 64
1, 389941, Control_c, 0, 67, 15
1, 389943, Note_on_c, 0, 69, 69
1, 389946, Note_on_c, 0, 66, 77
1, 389954, Note_on_c, 0, 62, 58
1, 389971, Control_c, 0, 67, 17
1, 389978, Note_off_c, 0, 62, 65
1, 389985, Control_c, 0, 67, 19
1, 389987, Note_off_c, 0, 66, 63
1, 389988, Note_off_c, 0, 69, 66
1, 390000, Control_c, 0, 67, 23
1, 390010, Note_on_c, 0, 74, 81
1, 390015, Control_c, 0, 67, 26
1, 390023, Note_on_c, 0, 81, 66
1, 390030, Control_c, 0, 67, 29
1, 390044, Control_c, 0, 67, 28
1, 390048, Note_off_c, 0, 81, 67
1, 390054, Note_on_c, 0, 62, 70
1, 390055, Note_on_c, 0, 69, 66
1, 390061, Note_off_c, 0, 74, 65
1, 390061, Note_on_c, 0, 66, 69
1, 390074, Control_c, 0, 67, 28
1, 390093, Note_off_c, 0, 62, 65
1, 390094, Note_off_c, 0, 66, 66
1, 390101, Note_off_c, 0, 69, 66
1, 390121, Note_on_c, 0, 74, 80
1, 390124, Note_on_c, 0, 81, 71
1, 390163, Control_c, 0, 67, 26
1, 390164, Note_off_c, 0, 81, 64
1, 390172, Note_off_c, 0, 74, 65
1, 390178, Control_c, 0, 67, 25
1, 390181, Note_on_c, 0, 66, 71
1, 390181, Note_on_c, 0, 69, 68
1, 390189, Note_on_c, 0, 62, 60
1, 390193, Control_c, 0, 67, 25
1, 390207, Control_c, 0, 64, 19
1, 390207, Control_c, 0, 67, 24
1, 390214, Note_off_c, 0, 62, 65
1, 390217, Note_off_c, 0, 66, 66
1, 390221, Note_off_c, 0, 69, 65
1, 390222, Control_c, 0, 64, 38
1, 390222, Control_c, 0, 67, 24
1, 390235, Note_on_c, 0, 74, 80
1, 390237, Control_c, 0, 64, 52
1, 390237, Control_c, 0, 67, 23
1, 390239, Note_on_c, 0, 81, 81
1, 390252, Control_c, 0, 64, 57
1, 390252, Control_c, 0, 67, 22
1, 390267, Control_c, 0, 67, 21
1, 390277, Note_off_c, 0, 81, 63
1, 390281, Note_off_c, 0, 74, 67
1, 390282, Control_c, 0, 67, 20
1, 390293, Note_on_c, 0, 69, 77
1, 390294, Note_on_c, 0, 62, 67
1, 390297, Control_c, 0, 64, 59
1, 390297, Control_c, 0, 67, 19
1, 390300, Note_on_c, 0, 66, 78
1, 390311, Control_c, 0, 64, 62
1, 390311, Control_c, 0, 67, 18
1, 390326, Control_c, 0, 64, 66
1, 390326, Control_c, 0, 67, 17
1, 390331, Note_off_c, 0, 62, 67
1, 390332, Note_off_c, 0, 66, 64
1, 390336, Note_off_c, 0, 69, 67
1, 390341, Control_c, 0, 64, 70
1, 390341, Control_c, 0, 67, 14
1, 390355, Note_on_c, 0, 81, 94
1, 390356, Control_c, 0, 64, 74
1, 390356, Control_c, 0, 67, 12
1, 390357, Note_on_c, 0, 74, 94
1, 390371, Control_c, 0, 64, 78
1, 390371, Control_c, 0, 67, 8
1, 390385, Control_c, 0, 64, 85
1, 390385, Control_c, 0, 67, 0
1, 390396, Note_off_c, 0, 81, 66
1, 390400, Control_c, 0, 64, 99
1, 390409, Note_off_c, 0, 74, 65
1, 390411, Note_on_c, 0, 69, 91
1, 390413, Note_on_c, 0, 62, 81
1, 390415, Note_on_c, 0, 66, 93
1, 390415, Control_c, 0, 64, 127
1, 390461, Note_off_c, 0, 62, 63
1, 390461, Note_off_c, 0, 69, 64
1, 390464, Note_off_c, 0, 66, 64
1, 390467, Note_on_c, 0, 76, 104
1, 390482, Note_on_c, 0, 81, 83
1, 390497, Note_off_c, 0, 81, 68
1, 390517, Note_off_c, 0, 76, 66
1, 390539, Note_on_c, 0, 69, 94
1, 390544, Note_on_c, 0, 66, 88
1, 390545, Note_on_c, 0, 62, 81
1, 390583, Note_off_c, 0, 62, 61
1, 390583, Note_on_c, 0, 81, 85
1, 390586, Note_off_c, 0, 69, 67
1, 390587, Note_on_c, 0, 71, 95
1, 390589, Note_off_c, 0, 66, 65
1, 390622, Note_off_c, 0, 81, 65
1, 390632, Note_off_c, 0, 71, 64
1, 390653, Note_on_c, 0, 69, 99
1, 390659, Note_on_c, 0, 66, 87
1, 390661, Note_on_c, 0, 62, 87
1, 390698, Note_off_c, 0, 66, 65
1, 390699, Note_off_c, 0, 62, 61
1, 390703, Note_on_c, 0, 74, 96
1, 390705, Note_off_c, 0, 69, 66
1, 390706, Note_on_c, 0, 81, 104
1, 390738, Note_off_c, 0, 81, 62
1, 390740, Note_off_c, 0, 74, 66
1, 390768, Note_on_c, 0, 69, 89
1, 390772, Note_on_c, 0, 62, 85
1, 390773, Note_on_c, 0, 66, 86
1, 390819, Note_on_c, 0, 78, 103
1, 390819, Note_on_c, 0, 81, 101
1, 390823, Note_off_c, 0, 62, 63
1, 390831, Note_off_c, 0, 66, 63
1, 390852, Note_off_c, 0, 69, 61
1, 390853, Note_off_c, 0, 81, 66
1, 390869, Note_off_c, 0, 78, 65
1, 390941, Note_on_c, 0, 64, 86
1, 390941, Note_on_c, 0, 76, 104
1, 390941, Note_on_c, 0, 81, 101
1, 391012, Note_off_c, 0, 64, 64
1, 391029, Note_off_c, 0, 81, 61
1, 391042, Note_off_c, 0, 76, 64
1, 391078, Note_on_c, 0, 66, 101
1, 391124, Note_on_c, 0, 81, 90
1, 391128, Note_on_c, 0, 74, 85
1, 391164, Note_off_c, 0, 74, 63
1, 391167, Note_off_c, 0, 81, 65
1, 391212, Note_off_c, 0, 66, 64
1, 391248, Note_on_c, 0, 69, 109
1, 391268, Control_c, 0, 64, 98
1, 391290, Control_c, 0, 64, 61
1, 391296, Note_on_c, 0, 68, 47
1, 391297, Note_off_c, 0, 68, 127
1, 391304, Control_c, 0, 64, 0
1, 391305, Note_on_c, 0, 81, 72
1, 391313, Note_on_c, 0, 70, 81
1, 391319, Control_c, 0, 64, 19
1, 391334, Control_c, 0, 64, 60
1, 391349, Control_c, 0, 64, 97
1, 391364, Control_c, 0, 64, 127
1, 391376, Note_off_c, 0, 81, 58
1, 391405, Note_off_c, 0, 70, 61
1, 391415, Note_on_c, 0, 67, 95
1, 391437, Note_off_c, 0, 69, 67
1, 391525, Note_off_c, 0, 67, 61
1, 391539, Note_on_c, 0, 66, 96
1, 391546, Note_on_c, 0, 81, 72
1, 391547, Note_on_c, 0, 78, 64
1, 391548, Note_on_c, 0, 74, 62
1, 391582, Note_off_c, 0, 74, 62
1, 391584, Note_off_c, 0, 81, 60
1, 391586, Note_off_c, 0, 78, 59
1, 391626, Note_off_c, 0, 66, 61
1, 391656, Note_on_c, 0, 64, 92
1, 391770, Note_off_c, 0, 64, 63
1, 391771, Note_on_c, 0, 66, 93
1, 391781, Note_on_c, 0, 81, 81
1, 391794, Note_on_c, 0, 74, 52
1, 391797, Note_on_c, 0, 78, 60
1, 391829, Note_off_c, 0, 74, 49
1, 391846, Note_off_c, 0, 78, 54
1, 391847, Note_off_c, 0, 81, 51
1, 391868, Control_c, 0, 64, 94
1, 391882, Control_c, 0, 64, 67
1, 391897, Control_c, 0, 64, 46
1, 391901, Note_off_c, 0, 66, 65
1, 391906, Note_on_c, 0, 60, 96
1, 391912, Control_c, 0, 64, 34
1, 391927, Control_c, 0, 64, 53
1, 391933, Note_on_c, 0, 74, 52
1, 391942, Control_c, 0, 64, 73
1, 391946, Note_on_c, 0, 78, 58
1, 391953, Note_on_c, 0, 81, 36
1, 391956, Control_c, 0, 64, 127
1, 391957, Note_off_c, 0, 60, 66
1, 391971, Note_on_c, 0, 62, 26
1, 392010, Note_off_c, 0, 62, 52
1, 392010, Note_off_c, 0, 81, 46
1, 392106, Note_on_c, 0, 70, 83
1, 392110, Note_on_c, 0, 81, 30
1, 392128, Note_off_c, 0, 74, 51
1, 392144, Note_off_c, 0, 78, 53
1, 392165, Note_off_c, 0, 81, 43
1, 392216, Note_off_c, 0, 70, 48
1, 392261, Note_on_c, 0, 74, 61
1, 392267, Note_on_c, 0, 78, 63
1, 392271, Note_on_c, 0, 81, 54
1, 392318, Note_off_c, 0, 74, 57
1, 392327, Note_off_c, 0, 78, 51
1, 392329, Note_off_c, 0, 81, 38
1, 392383, Note_on_c, 0, 70, 64
1, 392465, Note_off_c, 0, 70, 45
1, 392507, Note_on_c, 0, 81, 58
1, 392512, Note_on_c, 0, 78, 62
1, 392533, Note_on_c, 0, 74, 17
1, 392550, Note_off_c, 0, 78, 59
1, 392553, Note_off_c, 0, 81, 57
1, 392576, Note_off_c, 0, 74, 39
1, 392604, Note_on_c, 0, 70, 55
1, 392629, Note_on_c, 0, 48, 99
1, 392666, Note_off_c, 0, 70, 53
1, 392700, Note_off_c, 0, 48, 65
1, 392840, Note_on_c, 0, 74, 38
1, 392850, Note_on_c, 0, 81, 26
1, 392856, Note_on_c, 0, 78, 36
1, 392861, Note_on_c, 0, 60, 46
1, 392872, Note_off_c, 0, 74, 51
1, 392878, Note_on_c, 0, 70, 56
1, 392884, Note_on_c, 0, 64, 13
1, 392890, Note_off_c, 0, 60, 57
1, 392890, Note_off_c, 0, 78, 45
1, 392890, Note_off_c, 0, 81, 39
1, 392908, Note_off_c, 0, 70, 65
1, 392925, Note_on_c, 0, 67, 60
1, 392931, Note_off_c, 0, 64, 54
1, 392945, Note_off_c, 0, 67, 63
1, 392946, Note_on_c, 0, 74, 26
1, 392982, Note_on_c, 0, 70, 71
1, 392985, Note_off_c, 0, 74, 45
1, 392986, Note_on_c, 0, 60, 52
1, 393012, Note_off_c, 0, 60, 63
1, 393015, Note_off_c, 0, 70, 60
1, 393038, Poly_aftertouch_c, 0, 81, 127
1, 393040, Note_on_c, 0, 74, 25
1, 393046, Note_on_c, 0, 67, 54
1, 393046, Note_on_c, 0, 78, 32
1, 393072, Note_off_c, 0, 67, 57
1, 393075, Note_off_c, 0, 74, 56
1, 393075, Note_off_c, 0, 78, 49
1, 393084, Note_on_c, 0, 70, 64
1, 393100, Note_on_c, 0, 60, 60
1, 393105, Poly_aftertouch_c, 0, 81, 0
1, 393117, Note_off_c, 0, 70, 61
1, 393129, Note_off_c, 0, 60, 64
1, 393147, Note_on_c, 0, 74, 33
1, 393154, Note_on_c, 0, 67, 70
1, 393156, Note_on_c, 0, 78, 58
1, 393176, Note_off_c, 0, 78, 61
1, 393182, Note_off_c, 0, 74, 52
1, 393188, Note_on_c, 0, 70, 70
1, 393190, Note_off_c, 0, 67, 63
1, 393224, Note_on_c, 0, 60, 61
1, 393224, Note_off_c, 0, 70, 63
1, 393239, Note_on_c, 0, 74, 49
1, 393241, Note_on_c, 0, 78, 74
1, 393255, Note_off_c, 0, 60, 62
1, 393267, Note_on_c, 0, 64, 33
1, 393267, Note_off_c, 0, 74, 53
1, 393267, Note_off_c, 0, 78, 66
1, 393278, Note_on_c, 0, 67, 71
1, 393282, Note_on_c, 0, 81, 7
1, 393287, Note_on_c, 0, 70, 73
1, 393305, Note_off_c, 0, 64, 53
1, 393317, Note_off_c, 0, 67, 66
1, 393325, Note_off_c, 0, 70, 60
1, 393326, Note_on_c, 0, 60, 62
1, 393334, Note_on_c, 0, 78, 68
1, 393337, Note_on_c, 0, 74, 69
1, 393352, Note_off_c, 0, 60, 65
1, 393364, Note_off_c, 0, 74, 51
1, 393370, Note_off_c, 0, 78, 59
1, 393391, Note_on_c, 0, 70, 73
1, 393394, Note_off_c, 0, 81, 23
1, 393427, Note_off_c, 0, 70, 62
1, 393445, Note_on_c, 0, 78, 74
1, 393445, Note_on_c, 0, 74, 55
1, 393466, Note_off_c, 0, 74, 63
1, 393478, Note_off_c, 0, 78, 60
1, 393486, Note_on_c, 0, 81, 19
1, 393503, Note_on_c, 0, 70, 72
1, 393522, Note_on_c, 0, 47, 102
1, 393537, Note_off_c, 0, 70, 65
1, 393540, Note_off_c, 0, 81, 0
1, 393549, Note_on_c, 0, 78, 77
1, 393550, Note_on_c, 0, 74, 70
1, 393555, Note_on_c, 0, 81, 50
1, 393574, Note_off_c, 0, 47, 67
1, 393588, Note_off_c, 0, 81, 64
1, 393606, Note_on_c, 0, 70, 75
1, 393606, Note_off_c, 0, 78, 62
1, 393621, Note_off_c, 0, 74, 55
1, 393661, Note_off_c, 0, 70, 63
1, 393713, Note_on_c, 0, 64, 57
1, 393715, Note_on_c, 0, 74, 81
1, 393719, Note_on_c, 0, 78, 77
1, 393719, Note_on_c, 0, 81, 79
1, 393722, Note_on_c, 0, 55, 75
1, 393732, Note_on_c, 0, 59, 73
1, 393767, Note_off_c, 0, 74, 63
1, 393771, Note_off_c, 0, 78, 63
1, 393772, Note_off_c, 0, 59, 63
1, 393773, Note_on_c, 0, 71, 78
1, 393780, Note_off_c, 0, 81, 64
1, 393786, Note_off_c, 0, 55, 62
1, 393793, Note_on_c, 0, 67, 85
1, 393805, Note_off_c, 0, 64, 58
1, 393820, Note_off_c, 0, 71, 65
1, 393835, Note_off_c, 0, 67, 64
1, 393844, Note_on_c, 0, 81, 66
1, 393851, Note_on_c, 0, 78, 58
1, 393875, Note_off_c, 0, 81, 67
1, 393881, Note_off_c, 0, 78, 65
1, 393883, Note_on_c, 0, 59, 65
1, 393894, Note_on_c, 0, 71, 81
1, 393909, Note_on_c, 0, 64, 58
1, 393913, Note_on_c, 0, 55, 28
1, 393913, Note_off_c, 0, 59, 66
1, 393928, Poly_aftertouch_c, 0, 74, 0
1, 393933, Note_on_c, 0, 67, 79
1, 393936, Note_off_c, 0, 64, 65
1, 393936, Note_off_c, 0, 71, 51
1, 393947, Note_off_c, 0, 55, 50
1, 393950, Note_on_c, 0, 74, 46
1, 393950, Note_on_c, 0, 81, 74
1, 393952, Note_on_c, 0, 78, 72
1, 393956, Note_off_c, 0, 67, 68
1, 393990, Note_off_c, 0, 78, 56
1, 393991, Note_on_c, 0, 59, 64
1, 393991, Note_off_c, 0, 81, 59
1, 394001, Note_off_c, 0, 74, 63
1, 394002, Note_on_c, 0, 71, 75
1, 394014, Note_on_c, 0, 64, 58
1, 394021, Note_on_c, 0, 55, 55
1, 394035, Note_off_c, 0, 64, 61
1, 394041, Note_off_c, 0, 55, 65
1, 394044, Note_off_c, 0, 59, 64
1, 394044, Note_off_c, 0, 71, 56
1, 394056, Note_on_c, 0, 74, 66
1, 394056, Note_on_c, 0, 67, 62
1, 394063, Note_on_c, 0, 81, 75
1, 394065, Note_on_c, 0, 78, 79
1, 394092, Note_off_c, 0, 81, 68
1, 394095, Note_off_c, 0, 78, 59
1, 394104, Note_off_c, 0, 74, 58
1, 394107, Note_off_c, 0, 67, 54
1, 394116, Note_on_c, 0, 71, 71
1, 394140, Note_on_c, 0, 59, 62
1, 394140, Note_on_c, 0, 64, 56
1, 394163, Note_on_c, 0, 74, 77
1, 394166, Note_on_c, 0, 78, 79
1, 394170, Note_on_c, 0, 81, 69
1, 394172, Note_off_c, 0, 71, 64
1, 394176, Poly_aftertouch_c, 0, 55, 127
1, 394193, Note_on_c, 0, 67, 87
1, 394196, Note_off_c, 0, 64, 60
1, 394202, Note_off_c, 0, 81, 62
1, 394205, Note_off_c, 0, 74, 51
1, 394211, Note_off_c, 0, 59, 62
1, 394211, Note_on_c, 0, 55, 8
1, 394214, Note_off_c, 0, 67, 70
1, 394214, Note_off_c, 0, 78, 61
1, 394222, Note_on_c, 0, 71, 70
1, 394241, Note_off_c, 0, 55, 59
1, 394284, Note_on_c, 0, 78, 70
1, 394284, Note_off_c, 0, 71, 64
1, 394285, Note_on_c, 0, 74, 71
1, 394288, Note_on_c, 0, 81, 61
1, 394318, Note_off_c, 0, 74, 53
1, 394323, Note_off_c, 0, 81, 61
1, 394341, Note_off_c, 0, 78, 60
1, 394355, Note_on_c, 0, 71, 72
1, 394376, Note_on_c, 0, 47, 105
1, 394385, Note_on_c, 0, 35, 87
1, 394410, Note_on_c, 0, 36, 53
1, 394411, Note_off_c, 0, 35, 67
1, 394411, Note_off_c, 0, 47, 69
1, 394431, Note_on_c, 0, 78, 49
1, 394442, Note_off_c, 0, 36, 57
1, 394445, Note_off_c, 0, 71, 0
1, 394461, Note_on_c, 0, 81, 17
1, 394480, Note_on_c, 0, 71, 18
1, 394506, Note_off_c, 0, 78, 60
1, 394506, Note_off_c, 0, 81, 50
1, 394653, Note_on_c, 0, 74, 93
1, 394656, Note_on_c, 0, 81, 96
1, 394658, Note_on_c, 0, 78, 93
1, 394663, Note_on_c, 0, 61, 104
1, 394668, Note_on_c, 0, 55, 83
1, 394673, Note_on_c, 0, 57, 69
1, 394674, Note_on_c, 0, 52, 80
1, 394679, Note_on_c, 0, 59, 79
1, 394685, Note_off_c, 0, 71, 44
1, 394726, Note_off_c, 0, 61, 66
1, 394733, Note_off_c, 0, 59, 65
1, 394735, Note_off_c, 0, 57, 53
1, 394739, Note_off_c, 0, 74, 64
1, 394741, Note_off_c, 0, 81, 62
1, 394742, Note_off_c, 0, 52, 64
1, 394748, Note_off_c, 0, 78, 64
1, 394752, Note_off_c, 0, 55, 65
1, 394754, Note_on_c, 0, 71, 73
1, 394805, Note_off_c, 0, 71, 64
1, 394818, Note_on_c, 0, 81, 79
1, 394819, Note_on_c, 0, 74, 61
1, 394824, Note_on_c, 0, 78, 70
1, 394853, Note_off_c, 0, 74, 45
1, 394860, Note_off_c, 0, 78, 52
1, 394861, Note_off_c, 0, 81, 56
1, 394872, Note_on_c, 0, 71, 74
1, 394917, Note_off_c, 0, 71, 62
1, 394926, Note_on_c, 0, 74, 71
1, 394932, Note_on_c, 0, 81, 74
1, 394938, Note_on_c, 0, 78, 70
1, 394963, Note_off_c, 0, 81, 62
1, 394964, Note_off_c, 0, 74, 47
1, 394965, Note_off_c, 0, 78, 67
1, 394982, Note_on_c, 0, 71, 74
1, 395040, Note_on_c, 0, 78, 73
1, 395043, Note_on_c, 0, 74, 67
1, 395045, Note_off_c, 0, 71, 60
1, 395050, Note_on_c, 0, 81, 83
1, 395059, Note_off_c, 0, 74, 70
1, 395075, Note_off_c, 0, 81, 67
1, 395088, Note_off_c, 0, 78, 64
1, 395108, Note_on_c, 0, 71, 75
1, 395149, Note_on_c, 0, 74, 67
1, 395156, Note_on_c, 0, 81, 72
1, 395158, Note_off_c, 0, 71, 63
1, 395159, Note_on_c, 0, 78, 75
1, 395187, Note_off_c, 0, 81, 65
1, 395191, Note_off_c, 0, 74, 52
1, 395195, Note_off_c, 0, 78, 59
1, 395204, Note_on_c, 0, 45, 108
1, 395206, Note_on_c, 0, 33, 89
1, 395211, Note_on_c, 0, 71, 78
1, 395238, Note_off_c, 0, 33, 66
1, 395259, Note_on_c, 0, 74, 73
1, 395260, Note_off_c, 0, 71, 65
1, 395264, Note_off_c, 0, 45, 68
1, 395266, Note_on_c, 0, 78, 79
1, 395272, Note_on_c, 0, 81, 84
1, 395311, Note_off_c, 0, 81, 58
1, 395317, Note_off_c, 0, 74, 38
1, 395323, Note_on_c, 0, 71, 84
1, 395327, Note_off_c, 0, 78, 62
1, 395380, Note_on_c, 0, 54, 53
1, 395381, Note_off_c, 0, 71, 63
1, 395388, Note_on_c, 0, 74, 55
1, 395388, Note_on_c, 0, 78, 56
1, 395405, Note_on_c, 0, 81, 56
1, 395406, Note_off_c, 0, 54, 58
1, 395412, Note_off_c, 0, 74, 54
1, 395427, Note_off_c, 0, 81, 61
1, 395444, Note_off_c, 0, 78, 59
1, 395465, Note_on_c, 0, 71, 66
1, 395498, Note_on_c, 0, 49, 95
1, 395501, Note_on_c, 0, 75, 89
1, 395502, Note_on_c, 0, 59, 105
1, 395502, Note_on_c, 0, 52, 66
1, 395504, Note_on_c, 0, 57, 106
1, 395505, Note_on_c, 0, 55, 86
1, 395509, Note_on_c, 0, 81, 87
1, 395510, Note_on_c, 0, 74, 99
1, 395515, Note_on_c, 0, 78, 89
1, 395515, Note_off_c, 0, 75, 71
1, 395543, Note_off_c, 0, 71, 64
1, 395563, Note_on_c, 0, 50, 32
1, 395580, Note_off_c, 0, 59, 69
1, 395591, Note_off_c, 0, 55, 63
1, 395591, Note_off_c, 0, 57, 67
1, 395595, Note_off_c, 0, 49, 64
1, 395602, Note_off_c, 0, 50, 43
1, 395603, Note_off_c, 0, 81, 63
1, 395607, Note_off_c, 0, 74, 55
1, 395609, Note_off_c, 0, 78, 65
1, 395609, Note_off_c, 0, 52, 65
1, 395622, Note_on_c, 0, 71, 81
1, 395681, Note_on_c, 0, 81, 85
1, 395686, Note_off_c, 0, 71, 64
1, 395689, Note_on_c, 0, 78, 80
1, 395691, Note_on_c, 0, 74, 66
1, 395728, Note_off_c, 0, 74, 0
1, 395733, Note_off_c, 0, 81, 66
1, 395734, Note_off_c, 0, 78, 62
1, 395743, Note_on_c, 0, 71, 81
1, 395745, Poly_aftertouch_c, 0, 74, 0
1, 395805, Note_on_c, 0, 81, 81
1, 395806, Note_off_c, 0, 71, 59
1, 395811, Note_on_c, 0, 78, 72
1, 395821, Poly_aftertouch_c, 0, 74, 127
1, 395845, Note_off_c, 0, 81, 66
1, 395849, Poly_aftertouch_c, 0, 74, 0
1, 395849, Note_off_c, 0, 78, 61
1, 395862, Note_on_c, 0, 71, 75
1, 395916, Note_on_c, 0, 74, 80
1, 395923, Note_off_c, 0, 71, 61
1, 395923, Note_on_c, 0, 78, 77
1, 395925, Note_on_c, 0, 81, 82
1, 395949, Note_off_c, 0, 81, 67
1, 395961, Note_off_c, 0, 74, 43
1, 395970, Note_off_c, 0, 78, 62
1, 395976, Note_on_c, 0, 71, 72
1, 396028, Note_on_c, 0, 74, 72
1, 396029, Note_on_c, 0, 78, 72
1, 396035, Note_on_c, 0, 81, 79
1, 396036, Note_off_c, 0, 71, 64
1, 396064, Note_off_c, 0, 74, 62
1, 396081, Note_off_c, 0, 81, 62
1, 396088, Note_off_c, 0, 78, 63
1, 396104, Note_on_c, 0, 71, 81
1, 396153, Control_c, 0, 64, 74
1, 396165, Note_on_c, 0, 74, 58
1, 396165, Note_on_c, 0, 78, 65
1, 396165, Note_off_c, 0, 71, 64
1, 396168, Control_c, 0, 64, 0
1, 396175, Note_on_c, 0, 38, 117
1, 396181, Note_on_c, 0, 26, 103
1, 396181, Note_on_c, 0, 30, 92
1, 396181, Note_on_c, 0, 33, 87
1, 396184, Note_on_c, 0, 81, 62
1, 396197, Control_c, 0, 64, 40
1, 396212, Control_c, 0, 64, 127
1, 396217, Note_on_c, 0, 28, 55
1, 396217, Note_on_c, 0, 71, 77
1, 396247, Note_off_c, 0, 26, 66
1, 396256, Note_off_c, 0, 28, 53
1, 396256, Note_off_c, 0, 74, 65
1, 396258, Note_off_c, 0, 81, 60
1, 396284, Note_off_c, 0, 33, 62
1, 396285, Note_off_c, 0, 30, 65
1, 396302, Note_off_c, 0, 38, 65
1, 396306, Note_off_c, 0, 71, 57
1, 396326, Note_off_c, 0, 78, 42
1, 396506, Note_on_c, 0, 78, 78
1, 396508, Note_on_c, 0, 69, 111
1, 396508, Note_on_c, 0, 74, 94
1, 396508, Note_on_c, 0, 81, 100
1, 396509, Note_on_c, 0, 50, 103
1, 396513, Note_on_c, 0, 45, 89
1, 396515, Note_on_c, 0, 42, 90
1, 396525, Note_on_c, 0, 38, 95
1, 396601, Note_off_c, 0, 38, 63
1, 396619, Note_off_c, 0, 81, 62
1, 396625, Note_off_c, 0, 45, 63
1, 396629, Note_off_c, 0, 42, 63
1, 396633, Note_off_c, 0, 74, 56
1, 396659, Note_off_c, 0, 50, 63
1, 396685, Note_off_c, 0, 69, 0
1, 396690, Note_off_c, 0, 78, 64
1, 396723, Poly_aftertouch_c, 0, 69, 127
1, 396790, Poly_aftertouch_c, 0, 69, 0
1, 396877, Note_on_c, 0, 79, 99
1, 396878, Note_on_c, 0, 67, 100
1, 396878, Note_on_c, 0, 76, 90
1, 396879, Note_on_c, 0, 73, 87
1, 396888, Note_on_c, 0, 52, 95
1, 396894, Note_on_c, 0, 43, 86
1, 396901, Note_on_c, 0, 47, 70
1, 396912, Note_on_c, 0, 46, 66
1, 396936, Note_off_c, 0, 46, 58
1, 397007, Note_off_c, 0, 47, 64
1, 397007, Note_off_c, 0, 52, 60
1, 397029, Note_off_c, 0, 79, 63
1, 397039, Note_off_c, 0, 67, 51
1, 397045, Note_off_c, 0, 73, 62
1, 397055, Note_off_c, 0, 76, 62
1, 397096, Note_off_c, 0, 43, 64
1, 397177, Note_on_c, 0, 74, 94
1, 397177, Note_on_c, 0, 81, 96
1, 397181, Note_on_c, 0, 69, 103
1, 397181, Note_on_c, 0, 78, 93
1, 397188, Note_on_c, 0, 54, 101
1, 397189, Note_on_c, 0, 50, 90
1, 397190, Note_on_c, 0, 45, 83
1, 397266, Note_off_c, 0, 45, 65
1, 397282, Note_off_c, 0, 50, 64
1, 397297, Note_off_c, 0, 81, 57
1, 397304, Note_off_c, 0, 54, 60
1, 397332, Note_off_c, 0, 74, 60
1, 397374, Note_off_c, 0, 78, 63
1, 397394, Note_off_c, 0, 69, 26
1, 397476, Poly_aftertouch_c, 0, 51, 0
1, 397479, Note_on_c, 0, 79, 93
1, 397482, Note_on_c, 0, 67, 107
1, 397482, Note_on_c, 0, 76, 91
1, 397485, Note_on_c, 0, 73, 90
1, 397490, Note_on_c, 0, 47, 88
1, 397492, Note_on_c, 0, 55, 95
1, 397496, Note_on_c, 0, 52, 87
1, 397497, Poly_aftertouch_c, 0, 51, 0
1, 397596, Note_off_c, 0, 67, 49
1, 397597, Note_off_c, 0, 79, 53
1, 397636, Note_off_c, 0, 52, 60
1, 397638, Note_off_c, 0, 73, 49
1, 397669, Note_off_c, 0, 55, 60
1, 397688, Note_off_c, 0, 76, 57
1, 397700, Note_off_c, 0, 47, 61
1, 397744, Note_on_c, 0, 81, 98
1, 397745, Note_on_c, 0, 74, 90
1, 397746, Note_on_c, 0, 69, 103
1, 397747, Note_on_c, 0, 57, 100
1, 397748, Note_on_c, 0, 50, 82
1, 397748, Note_on_c, 0, 78, 89
1, 397750, Note_on_c, 0, 54, 87
1, 397857, Note_off_c, 0, 81, 52
1, 397883, Note_off_c, 0, 54, 60
1, 397889, Note_off_c, 0, 69, 55
1, 397900, Note_off_c, 0, 74, 61
1, 397919, Note_off_c, 0, 57, 63
1, 397944, Note_off_c, 0, 78, 62
1, 397957, Note_off_c, 0, 50, 65
1, 397997, Note_on_c, 0, 79, 92
1, 398000, Note_on_c, 0, 67, 102
1, 398001, Note_on_c, 0, 76, 87
1, 398003, Note_on_c, 0, 59, 100
1, 398005, Note_on_c, 0, 73, 84
1, 398007, Note_on_c, 0, 55, 87
1, 398008, Note_on_c, 0, 52, 87
1, 398062, Note_on_c, 0, 56, 7
1, 398063, Note_off_c, 0, 56, 127
1, 398118, Note_off_c, 0, 67, 58
1, 398130, Note_off_c, 0, 79, 58
1, 398142, Note_off_c, 0, 55, 61
1, 398151, Note_off_c, 0, 73, 58
1, 398159, Note_off_c, 0, 59, 59
1, 398167, Note_off_c, 0, 76, 60
1, 398193, Note_off_c, 0, 52, 61
1, 398250, Note_on_c, 0, 69, 108
1, 398250, Note_on_c, 0, 81, 98
1, 398252, Note_on_c, 0, 74, 93
1, 398254, Note_on_c, 0, 78, 89
1, 398255, Note_on_c, 0, 54, 88
1, 398255, Note_on_c, 0, 57, 101
1, 398256, Note_on_c, 0, 50, 88
1, 398374, Note_off_c, 0, 57, 60
1, 398378, Note_off_c, 0, 54, 60
1, 398393, Note_off_c, 0, 81, 59
1, 398398, Note_off_c, 0, 50, 61
1, 398408, Note_off_c, 0, 74, 62
1, 398410, Note_off_c, 0, 69, 61
1, 398449, Note_off_c, 0, 78, 63
1, 398497, Note_on_c, 0, 79, 89
1, 398500, Note_on_c, 0, 67, 104
1, 398500, Note_on_c, 0, 76, 88
1, 398503, Note_on_c, 0, 73, 88
1, 398507, Note_on_c, 0, 47, 83
1, 398509, Note_on_c, 0, 52, 82
1, 398509, Note_on_c, 0, 55, 85
1, 398560, Note_off_c, 0, 52, 63
1, 398586, Note_off_c, 0, 55, 62
1, 398598, Note_off_c, 0, 47, 66
1, 398614, Note_off_c, 0, 67, 57
1, 398617, Note_off_c, 0, 79, 62
1, 398648, Note_off_c, 0, 73, 58
1, 398666, Note_off_c, 0, 76, 60
1, 398739, Note_on_c, 0, 45, 79
1, 398739, Note_on_c, 0, 54, 85
1, 398740, Note_on_c, 0, 69, 102
1, 398740, Note_on_c, 0, 81, 99
1, 398741, Note_on_c, 0, 74, 89
1, 398746, Note_on_c, 0, 78, 85
1, 398747, Note_on_c, 0, 50, 77
1, 398817, Note_off_c, 0, 54, 64
1, 398822, Note_off_c, 0, 50, 60
1, 398837, Note_off_c, 0, 45, 64
1, 398875, Note_off_c, 0, 81, 58
1, 398876, Note_off_c, 0, 69, 58
1, 398890, Note_off_c, 0, 74, 58
1, 398934, Note_off_c, 0, 78, 62
1, 398972, Note_on_c, 0, 79, 90
1, 398974, Note_on_c, 0, 67, 100
1, 398975, Note_on_c, 0, 52, 93
1, 398975, Note_on_c, 0, 76, 87
1, 398977, Note_on_c, 0, 43, 83
1, 398982, Note_on_c, 0, 73, 84
1, 398984, Note_on_c, 0, 47, 83
1, 399029, Note_off_c, 0, 52, 64
1, 399039, Note_off_c, 0, 47, 65
1, 399051, Note_off_c, 0, 43, 63
1, 399073, Note_off_c, 0, 67, 56
1, 399084, Note_off_c, 0, 79, 61
1, 399129, Note_off_c, 0, 73, 56
1, 399148, Note_off_c, 0, 76, 57
1, 399221, Control_c, 0, 64, 96
1, 399231, Note_on_c, 0, 50, 103
1, 399234, Note_on_c, 0, 45, 92
1, 399237, Note_on_c, 0, 38, 91
1, 399237, Control_c, 0, 64, 65
1, 399240, Note_on_c, 0, 69, 108
1, 399240, Note_on_c, 0, 74, 94
1, 399240, Note_on_c, 0, 81, 96
1, 399243, Note_on_c, 0, 42, 87
1, 399243, Note_on_c, 0, 78, 84
1, 399252, Control_c, 0, 64, 48
1, 399266, Control_c, 0, 64, 47
1, 399281, Control_c, 0, 64, 63
1, 399296, Control_c, 0, 64, 93
1, 399311, Control_c, 0, 64, 127
1, 399353, Note_off_c, 0, 81, 58
1, 399356, Note_off_c, 0, 38, 59
1, 399379, Note_off_c, 0, 69, 56
1, 399387, Note_off_c, 0, 74, 58
1, 399407, Note_off_c, 0, 42, 61
1, 399418, Note_off_c, 0, 45, 63
1, 399426, Note_off_c, 0, 50, 61
1, 399427, Note_off_c, 0, 78, 64
1, 399509, Note_on_c, 0, 79, 90
1, 399520, Note_on_c, 0, 67, 104
1, 399522, Note_on_c, 0, 76, 87
1, 399524, Note_on_c, 0, 73, 85
1, 399530, Note_on_c, 0, 52, 89
1, 399531, Note_on_c, 0, 43, 85
1, 399533, Note_on_c, 0, 47, 78
1, 399597, Note_off_c, 0, 47, 62
1, 399616, Note_off_c, 0, 67, 58
1, 399621, Note_off_c, 0, 52, 63
1, 399622, Note_off_c, 0, 79, 59
1, 399658, Note_off_c, 0, 73, 58
1, 399691, Note_off_c, 0, 76, 53
1, 399723, Note_off_c, 0, 43, 63
1, 399780, Note_on_c, 0, 74, 87
1, 399780, Note_on_c, 0, 81, 98
1, 399782, Note_on_c, 0, 69, 105
1, 399785, Note_on_c, 0, 54, 95
1, 399785, Note_on_c, 0, 78, 88
1, 399787, Note_on_c, 0, 45, 77
1, 399790, Note_on_c, 0, 50, 81
1, 399883, Note_off_c, 0, 45, 63
1, 399903, Note_off_c, 0, 54, 62
1, 399904, Note_off_c, 0, 50, 63
1, 399941, Note_off_c, 0, 74, 62
1, 399946, Note_off_c, 0, 81, 54
1, 399987, Note_off_c, 0, 69, 62
1, 400001, Note_off_c, 0, 78, 61
1, 400044, Note_on_c, 0, 79, 90
1, 400049, Note_on_c, 0, 67, 99
1, 400051, Note_on_c, 0, 73, 85
1, 400051, Note_on_c, 0, 76, 85
1, 400054, Note_on_c, 0, 52, 70
1, 400055, Note_on_c, 0, 55, 84
1, 400057, Note_on_c, 0, 47, 76
1, 400171, Note_off_c, 0, 67, 59
1, 400175, Note_off_c, 0, 79, 63
1, 400203, Note_off_c, 0, 52, 63
1, 400203, Note_off_c, 0, 73, 57
1, 400211, Note_off_c, 0, 76, 60
1, 400220, Note_off_c, 0, 55, 62
1, 400250, Note_off_c, 0, 47, 62
1, 400298, Note_on_c, 0, 81, 97
1, 400298, Note_on_c, 0, 74, 92
1, 400300, Note_on_c, 0, 57, 92
1, 400300, Note_on_c, 0, 69, 98
1, 400301, Note_on_c, 0, 50, 84
1, 400302, Note_on_c, 0, 78, 90
1, 400304, Note_on_c, 0, 54, 86
1, 400467, Note_off_c, 0, 81, 58
1, 400473, Note_off_c, 0, 74, 61
1, 400473, Note_off_c, 0, 54, 61
1, 400474, Note_off_c, 0, 57, 62
1, 400487, Note_off_c, 0, 69, 61
1, 400509, Note_off_c, 0, 78, 62
1, 400520, Note_off_c, 0, 50, 65
1, 400555, Note_on_c, 0, 67, 95
1, 400555, Note_on_c, 0, 79, 92
1, 400557, Note_on_c, 0, 76, 92
1, 400559, Note_on_c, 0, 59, 92
1, 400562, Note_on_c, 0, 73, 82
1, 400565, Note_on_c, 0, 55, 83
1, 400568, Note_on_c, 0, 52, 84
1, 400674, Note_off_c, 0, 67, 61
1, 400686, Note_off_c, 0, 79, 62
1, 400697, Note_off_c, 0, 55, 62
1, 400701, Note_off_c, 0, 73, 60
1, 400710, Note_off_c, 0, 59, 63
1, 400712, Note_off_c, 0, 76, 61
1, 400729, Note_off_c, 0, 52, 60
1, 400796, Note_on_c, 0, 81, 97
1, 400796, Note_on_c, 0, 69, 103
1, 400799, Note_on_c, 0, 78, 89
1, 400800, Note_on_c, 0, 54, 91
1, 400800, Note_on_c, 0, 74, 88
1, 400801, Note_on_c, 0, 50, 91
1, 400802, Note_on_c, 0, 57, 93
1, 400931, Note_off_c, 0, 81, 58
1, 400952, Note_off_c, 0, 74, 60
1, 400958, Note_off_c, 0, 69, 59
1, 400961, Note_off_c, 0, 54, 61
1, 400969, Note_off_c, 0, 57, 54
1, 400983, Note_off_c, 0, 78, 63
1, 400986, Note_off_c, 0, 50, 62
1, 401048, Note_on_c, 0, 79, 90
1, 401049, Note_on_c, 0, 67, 94
1, 401052, Note_on_c, 0, 76, 86
1, 401054, Note_on_c, 0, 73, 79
1, 401057, Note_on_c, 0, 55, 84
1, 401060, Note_on_c, 0, 47, 87
1, 401061, Note_on_c, 0, 52, 80
1, 401119, Note_off_c, 0, 52, 56
1, 401140, Note_off_c, 0, 55, 64
1, 401152, Note_off_c, 0, 47, 66
1, 401152, Note_off_c, 0, 67, 57
1, 401161, Note_off_c, 0, 79, 61
1, 401189, Note_off_c, 0, 73, 57
1, 401207, Note_off_c, 0, 76, 58
1, 401287, Note_on_c, 0, 81, 97
1, 401288, Note_on_c, 0, 69, 100
1, 401290, Note_on_c, 0, 74, 90
1, 401291, Note_on_c, 0, 45, 75
1, 401291, Note_on_c, 0, 78, 91
1, 401294, Note_on_c, 0, 54, 86
1, 401297, Note_on_c, 0, 50, 79
1, 401380, Note_off_c, 0, 50, 55
1, 401389, Note_off_c, 0, 45, 63
1, 401392, Note_off_c, 0, 81, 55
1, 401396, Note_off_c, 0, 54, 62
1, 401428, Note_off_c, 0, 69, 56
1, 401442, Note_off_c, 0, 74, 61
1, 401477, Note_off_c, 0, 78, 63
1, 401528, Note_on_c, 0, 79, 90
1, 401529, Note_on_c, 0, 67, 95
1, 401532, Note_on_c, 0, 76, 85
1, 401535, Note_on_c, 0, 52, 89
1, 401536, Note_on_c, 0, 43, 80
1, 401538, Note_on_c, 0, 73, 79
1, 401544, Note_on_c, 0, 47, 80
1, 401591, Note_off_c, 0, 52, 65
1, 401606, Note_off_c, 0, 47, 64
1, 401610, Note_off_c, 0, 43, 56
1, 401642, Note_off_c, 0, 67, 58
1, 401644, Note_off_c, 0, 79, 58
1, 401677, Note_off_c, 0, 73, 58
1, 401701, Note_off_c, 0, 76, 57
1, 401802, Control_c, 0, 64, 77
1, 401809, Note_on_c, 0, 50, 105
1, 401811, Note_on_c, 0, 69, 95
1, 401811, Note_on_c, 0, 81, 91
1, 401812, Note_on_c, 0, 45, 93
1, 401812, Note_on_c, 0, 74, 84
1, 401814, Note_on_c, 0, 38, 88
1, 401816, Note_on_c, 0, 78, 84
1, 401816, Control_c, 0, 64, 49
1, 401817, Note_on_c, 0, 42, 85
1, 401831, Control_c, 0, 64, 0
1, 401861, Control_c, 0, 64, 46
1, 401876, Control_c, 0, 64, 75
1, 401890, Control_c, 0, 64, 127
1, 401923, Note_off_c, 0, 81, 59
1, 401936, Note_off_c, 0, 38, 56
1, 401962, Note_off_c, 0, 74, 58
1, 401972, Note_off_c, 0, 69, 45
1, 401980, Note_off_c, 0, 42, 62
1, 401985, Note_off_c, 0, 45, 63
1, 402002, Note_off_c, 0, 50, 61
1, 402013, Note_off_c, 0, 78, 63
1, 402077, Note_on_c, 0, 79, 97
1, 402079, Note_on_c, 0, 67, 100
1, 402081, Note_on_c, 0, 76, 85
1, 402086, Note_on_c, 0, 73, 82
1, 402087, Note_on_c, 0, 52, 89
1, 402091, Note_on_c, 0, 43, 79
1, 402093, Note_on_c, 0, 47, 77
1, 402152, Note_off_c, 0, 47, 57
1, 402176, Note_off_c, 0, 52, 61
1, 402185, Note_off_c, 0, 67, 56
1, 402200, Note_off_c, 0, 79, 57
1, 402227, Note_off_c, 0, 73, 58
1, 402247, Note_off_c, 0, 76, 59
1, 402248, Note_off_c, 0, 43, 63
1, 402324, Note_on_c, 0, 69, 101
1, 402324, Note_on_c, 0, 81, 96
1, 402325, Note_on_c, 0, 74, 90
1, 402329, Note_on_c, 0, 78, 87
1, 402331, Note_on_c, 0, 54, 93
1, 402331, Note_on_c, 0, 45, 80
1, 402332, Note_on_c, 0, 50, 79
1, 402408, Note_off_c, 0, 45, 63
1, 402415, Note_off_c, 0, 54, 63
1, 402423, Note_off_c, 0, 50, 64
1, 402425, Note_off_c, 0, 81, 59
1, 402461, Note_off_c, 0, 74, 58
1, 402475, Note_off_c, 0, 69, 53
1, 402501, Note_off_c, 0, 78, 63
1, 402573, Note_on_c, 0, 79, 91
1, 402574, Note_on_c, 0, 55, 92
1, 402574, Note_on_c, 0, 67, 95
1, 402577, Note_on_c, 0, 47, 85
1, 402578, Note_on_c, 0, 76, 84
1, 402580, Note_on_c, 0, 73, 82
1, 402583, Note_on_c, 0, 52, 80
1, 402689, Note_off_c, 0, 67, 57
1, 402700, Note_off_c, 0, 79, 56
1, 402724, Note_off_c, 0, 52, 58
1, 402727, Note_off_c, 0, 73, 57
1, 402744, Note_off_c, 0, 55, 62
1, 402745, Note_off_c, 0, 76, 59
1, 402820, Note_on_c, 0, 81, 94
1, 402822, Note_on_c, 0, 69, 97
1, 402823, Note_on_c, 0, 57, 92
1, 402823, Note_on_c, 0, 74, 89
1, 402825, Note_on_c, 0, 54, 83
1, 402829, Note_on_c, 0, 78, 87
1, 402830, Note_on_c, 0, 50, 76
1, 402920, Note_off_c, 0, 81, 60
1, 402942, Note_off_c, 0, 69, 57
1, 402945, Note_off_c, 0, 57, 58
1, 402946, Note_off_c, 0, 54, 64
1, 402957, Note_off_c, 0, 74, 56
1, 402968, Note_off_c, 0, 47, 30
1, 402984, Note_off_c, 0, 78, 64
1, 403070, Note_on_c, 0, 79, 92
1, 403070, Note_on_c, 0, 59, 90
1, 403073, Note_on_c, 0, 67, 98
1, 403076, Note_on_c, 0, 76, 84
1, 403076, Note_off_c, 0, 50, 0
1, 403078, Note_on_c, 0, 55, 81
1, 403082, Note_on_c, 0, 52, 80
1, 403082, Note_on_c, 0, 73, 79
1, 403084, Control_c, 0, 64, 96
1, 403099, Control_c, 0, 64, 77
1, 403113, Control_c, 0, 64, 73
1, 403128, Control_c, 0, 64, 79
1, 403141, Poly_aftertouch_c, 0, 50, 0
1, 403143, Control_c, 0, 64, 111
1, 403157, Control_c, 0, 64, 127
1, 403158, Poly_aftertouch_c, 0, 50, 0
1, 403168, Note_off_c, 0, 67, 58
1, 403183, Note_off_c, 0, 79, 58
1, 403189, Note_off_c, 0, 59, 59
1, 403197, Note_off_c, 0, 55, 61
1, 403210, Note_off_c, 0, 73, 59
1, 403222, Note_off_c, 0, 76, 58
1, 403225, Note_off_c, 0, 52, 59
1, 403300, Control_c, 0, 64, 109
1, 403314, Control_c, 0, 64, 80
1, 403317, Note_on_c, 0, 81, 90
1, 403320, Note_on_c, 0, 69, 97
1, 403320, Note_on_c, 0, 50, 80
1, 403321, Note_on_c, 0, 57, 86
1, 403322, Note_on_c, 0, 54, 79
1, 403322, Note_on_c, 0, 74, 83
1, 403322, Note_on_c, 0, 78, 85
1, 403329, Control_c, 0, 64, 66
1, 403344, Control_c, 0, 64, 61
1, 403359, Control_c, 0, 64, 63
1, 403374, Control_c, 0, 64, 78
1, 403389, Control_c, 0, 64, 127
1, 403430, Note_off_c, 0, 81, 54
1, 403448, Note_off_c, 0, 57, 55
1, 403449, Note_off_c, 0, 54, 61
1, 403462, Note_off_c, 0, 74, 58
1, 403468, Note_off_c, 0, 69, 55
1, 403476, Note_off_c, 0, 50, 61
1, 403497, Note_off_c, 0, 78, 63
1, 403551, Control_c, 0, 64, 93
1, 403564, Note_on_c, 0, 79, 86
1, 403565, Note_on_c, 0, 47, 85
1, 403565, Note_on_c, 0, 67, 87
1, 403566, Control_c, 0, 64, 70
1, 403569, Note_on_c, 0, 55, 81
1, 403569, Note_on_c, 0, 73, 75
1, 403570, Note_on_c, 0, 76, 81
1, 403573, Note_on_c, 0, 52, 74
1, 403582, Control_c, 0, 64, 63
1, 403596, Control_c, 0, 64, 65
1, 403611, Control_c, 0, 64, 75
1, 403621, Note_off_c, 0, 52, 55
1, 403626, Control_c, 0, 64, 107
1, 403641, Control_c, 0, 64, 127
1, 403648, Note_off_c, 0, 55, 62
1, 403658, Note_off_c, 0, 67, 59
1, 403660, Note_off_c, 0, 47, 65
1, 403672, Note_off_c, 0, 79, 61
1, 403696, Note_off_c, 0, 73, 58
1, 403711, Note_off_c, 0, 76, 59
1, 403774, Control_c, 0, 64, 86
1, 403788, Control_c, 0, 64, 66
1, 403803, Control_c, 0, 64, 59
1, 403805, Note_on_c, 0, 45, 75
1, 403805, Note_on_c, 0, 69, 88
1, 403805, Note_on_c, 0, 81, 89
1, 403806, Note_on_c, 0, 74, 78
1, 403806, Note_on_c, 0, 78, 82
1, 403807, Note_on_c, 0, 54, 74
1, 403809, Note_on_c, 0, 50, 72
1, 403818, Control_c, 0, 64, 63
1, 403833, Control_c, 0, 64, 74
1, 403848, Control_c, 0, 64, 116
1, 403863, Control_c, 0, 64, 127
1, 403879, Note_off_c, 0, 54, 64
1, 403886, Note_off_c, 0, 45, 63
1, 403891, Note_off_c, 0, 50, 56
1, 403911, Note_off_c, 0, 81, 59
1, 403920, Note_off_c, 0, 74, 56
1, 403930, Note_off_c, 0, 69, 59
1, 403970, Note_off_c, 0, 78, 63
1, 404039, Note_on_c, 0, 79, 87
1, 404040, Note_on_c, 0, 67, 86
1, 404041, Note_on_c, 0, 52, 80
1, 404042, Note_on_c, 0, 43, 77
1, 404043, Note_on_c, 0, 76, 82
1, 404048, Note_on_c, 0, 73, 76
1, 404054, Note_on_c, 0, 47, 72
1, 404084, Note_off_c, 0, 47, 66
1, 404092, Note_off_c, 0, 52, 61
1, 404101, Note_off_c, 0, 43, 64
1, 404149, Note_off_c, 0, 67, 57
1, 404166, Note_off_c, 0, 79, 63
1, 404170, Note_off_c, 0, 73, 57
1, 404201, Note_off_c, 0, 76, 53
1, 404256, Control_c, 0, 64, 76
1, 404271, Control_c, 0, 64, 41
1, 404286, Control_c, 0, 64, 0
1, 404300, Note_on_c, 0, 50, 100
1, 404305, Note_on_c, 0, 81, 88
1, 404306, Note_on_c, 0, 45, 86
1, 404306, Note_on_c, 0, 74, 77
1, 404307, Note_on_c, 0, 38, 90
1, 404308, Note_on_c, 0, 69, 87
1, 404309, Note_on_c, 0, 42, 85
1, 404310, Note_on_c, 0, 78, 80
1, 404316, Control_c, 0, 64, 33
1, 404331, Control_c, 0, 64, 63
1, 404344, Control_c, 0, 64, 85
1, 404359, Control_c, 0, 64, 127
1, 404363, Note_off_c, 0, 38, 62
1, 404366, Note_off_c, 0, 45, 61
1, 404385, Note_off_c, 0, 50, 65
1, 404385, Note_off_c, 0, 42, 63
1, 404385, Note_off_c, 0, 69, 54
1, 404387, Note_off_c, 0, 81, 60
1, 404401, Note_off_c, 0, 74, 53
1, 404450, Note_off_c, 0, 78, 63
1, 404522, Control_c, 0, 64, 82
1, 404537, Control_c, 0, 64, 58
1, 404552, Control_c, 0, 64, 0
1, 404555, Note_on_c, 0, 79, 77
1, 404558, Note_on_c, 0, 59, 73
1, 404563, Note_on_c, 0, 71, 72
1, 404564, Note_on_c, 0, 55, 65
1, 404565, Note_on_c, 0, 76, 62
1, 404566, Note_on_c, 0, 52, 65
1, 404572, Note_on_c, 0, 73, 60
1, 404596, Control_c, 0, 64, 47
1, 404610, Control_c, 0, 64, 66
1, 404625, Control_c, 0, 64, 81
1, 404640, Control_c, 0, 64, 119
1, 404644, Note_off_c, 0, 73, 47
1, 404655, Control_c, 0, 64, 127
1, 404677, Note_off_c, 0, 79, 58
1, 404700, Note_off_c, 0, 71, 33
1, 404713, Note_off_c, 0, 76, 47
1, 404725, Note_off_c, 0, 59, 62
1, 404730, Note_off_c, 0, 55, 59
1, 404740, Note_off_c, 0, 52, 62
1, 404766, Control_c, 0, 64, 77
1, 404781, Control_c, 0, 64, 45
1, 404796, Control_c, 0, 64, 0
1, 404808, Note_on_c, 0, 81, 74
1, 404809, Note_on_c, 0, 57, 77
1, 404812, Note_on_c, 0, 69, 70
1, 404814, Note_on_c, 0, 74, 66
1, 404814, Note_on_c, 0, 50, 72
1, 404815, Note_on_c, 0, 78, 71
1, 404821, Note_on_c, 0, 54, 61
1, 404841, Control_c, 0, 64, 54
1, 404856, Control_c, 0, 64, 71
1, 404871, Control_c, 0, 64, 94
1, 404885, Control_c, 0, 64, 127
1, 404886, Note_off_c, 0, 69, 51
1, 404889, Note_off_c, 0, 81, 58
1, 404901, Note_off_c, 0, 74, 58
1, 404902, Note_off_c, 0, 57, 58
1, 404924, Note_off_c, 0, 50, 58
1, 404941, Note_off_c, 0, 54, 56
1, 404946, Note_off_c, 0, 78, 63
1, 405034, Note_on_c, 0, 59, 78
1, 405039, Note_on_c, 0, 79, 74
1, 405042, Note_on_c, 0, 71, 71
1, 405043, Note_on_c, 0, 55, 71
1, 405045, Note_on_c, 0, 52, 77
1, 405052, Note_on_c, 0, 76, 63
1, 405052, Note_on_c, 0, 73, 54
1, 405067, Note_off_c, 0, 59, 67
1, 405070, Note_off_c, 0, 55, 66
1, 405080, Note_off_c, 0, 52, 66
1, 405095, Note_off_c, 0, 71, 60
1, 405100, Note_off_c, 0, 73, 57
1, 405114, Note_off_c, 0, 79, 59
1, 405119, Note_off_c, 0, 76, 57
1, 405240, Control_c, 0, 64, 81
1, 405255, Control_c, 0, 64, 59
1, 405270, Control_c, 0, 64, 0
1, 405306, Note_on_c, 0, 50, 99
1, 405306, Note_on_c, 0, 81, 85
1, 405309, Note_on_c, 0, 78, 77
1, 405312, Note_on_c, 0, 38, 88
1, 405313, Note_on_c, 0, 69, 74
1, 405314, Note_on_c, 0, 42, 78
1, 405315, Control_c, 0, 64, 46
1, 405318, Note_on_c, 0, 45, 70
1, 405323, Note_on_c, 0, 74, 63
1, 405330, Control_c, 0, 64, 67
1, 405342, Note_off_c, 0, 45, 65
1, 405344, Note_off_c, 0, 38, 67
1, 405344, Control_c, 0, 64, 86
1, 405359, Note_off_c, 0, 69, 53
1, 405359, Note_off_c, 0, 74, 59
1, 405359, Control_c, 0, 64, 127
1, 405362, Note_off_c, 0, 42, 60
1, 405378, Note_off_c, 0, 50, 62
1, 405380, Note_off_c, 0, 81, 57
1, 405420, Note_off_c, 0, 78, 62
1, 405547, Note_on_c, 0, 79, 72
1, 405553, Note_on_c, 0, 71, 65
1, 405559, Control_c, 0, 64, 100
1, 405563, Note_on_c, 0, 76, 57
1, 405567, Note_on_c, 0, 55, 63
1, 405567, Note_on_c, 0, 59, 64
1, 405571, Note_on_c, 0, 52, 61
1, 405574, Control_c, 0, 64, 91
1, 405574, Note_on_c, 0, 73, 52
1, 405604, Control_c, 0, 64, 94
1, 405618, Note_off_c, 0, 71, 55
1, 405619, Control_c, 0, 64, 103
1, 405619, Note_off_c, 0, 73, 55
1, 405634, Control_c, 0, 64, 127
1, 405641, Note_off_c, 0, 79, 58
1, 405681, Note_off_c, 0, 76, 34
1, 405688, Note_off_c, 0, 55, 29
1, 405693, Note_off_c, 0, 59, 54
1, 405707, Note_off_c, 0, 52, 57
1, 405738, Control_c, 0, 64, 102
1, 405753, Control_c, 0, 64, 71
1, 405768, Control_c, 0, 64, 47
1, 405783, Control_c, 0, 64, 0
1, 405794, Note_on_c, 0, 81, 73
1, 405798, Note_on_c, 0, 78, 68
1, 405801, Note_on_c, 0, 57, 71
1, 405803, Note_on_c, 0, 50, 66
1, 405804, Note_on_c, 0, 69, 62
1, 405808, Note_on_c, 0, 74, 52
1, 405812, Control_c, 0, 64, 38
1, 405814, Note_on_c, 0, 54, 55
1, 405827, Control_c, 0, 64, 62
1, 405842, Control_c, 0, 64, 76
1, 405856, Note_off_c, 0, 69, 55
1, 405856, Control_c, 0, 64, 104
1, 405858, Note_off_c, 0, 81, 61
1, 405866, Note_off_c, 0, 74, 55
1, 405871, Control_c, 0, 64, 127
1, 405879, Note_off_c, 0, 57, 59
1, 405892, Note_off_c, 0, 50, 61
1, 405903, Note_off_c, 0, 78, 62
1, 405914, Note_off_c, 0, 54, 60
1, 406012, Note_on_c, 0, 59, 65
1, 406013, Note_on_c, 0, 79, 75
1, 406018, Note_on_c, 0, 71, 67
1, 406021, Note_on_c, 0, 52, 70
1, 406024, Note_on_c, 0, 55, 58
1, 406030, Note_on_c, 0, 76, 57
1, 406036, Note_on_c, 0, 73, 51
1, 406042, Note_off_c, 0, 59, 66
1, 406048, Note_off_c, 0, 55, 62
1, 406052, Note_off_c, 0, 52, 64
1, 406057, Note_off_c, 0, 71, 59
1, 406069, Note_off_c, 0, 73, 64
1, 406073, Note_off_c, 0, 79, 62
1, 406074, Note_off_c, 0, 76, 55
1, 406227, Control_c, 0, 64, 81
1, 406242, Control_c, 0, 64, 58
1, 406263, Control_c, 0, 64, 0
1, 406283, Note_on_c, 0, 81, 70
1, 406293, Control_c, 0, 64, 14
1, 406297, Note_on_c, 0, 50, 80
1, 406298, Note_on_c, 0, 74, 53
1, 406302, Note_on_c, 0, 78, 59
1, 406304, Note_on_c, 0, 38, 68
1, 406305, Note_on_c, 0, 69, 48
1, 406308, Control_c, 0, 64, 52
1, 406309, Note_on_c, 0, 42, 63
1, 406313, Note_on_c, 0, 45, 52
1, 406323, Control_c, 0, 64, 68
1, 406330, Note_off_c, 0, 38, 59
1, 406337, Control_c, 0, 64, 84
1, 406337, Control_c, 0, 67, 8
1, 406340, Note_off_c, 0, 45, 54
1, 406345, Note_off_c, 0, 42, 64
1, 406345, Note_off_c, 0, 69, 49
1, 406346, Note_off_c, 0, 74, 61
1, 406346, Note_off_c, 0, 81, 63
1, 406352, Control_c, 0, 64, 127
1, 406352, Control_c, 0, 67, 8
1, 406354, Note_off_c, 0, 50, 65
1, 406358, Note_off_c, 0, 78, 55
1, 406367, Control_c, 0, 67, 9
1, 406427, Control_c, 0, 67, 9
1, 406457, Control_c, 0, 67, 10
1, 406472, Control_c, 0, 67, 11
1, 406486, Control_c, 0, 67, 12
1, 406501, Control_c, 0, 67, 14
1, 406516, Control_c, 0, 67, 15
1, 406531, Control_c, 0, 64, 81
1, 406531, Control_c, 0, 67, 16
1, 406533, Note_on_c, 0, 79, 68
1, 406536, Note_on_c, 0, 76, 58
1, 406543, Note_on_c, 0, 59, 55
1, 406543, Note_on_c, 0, 71, 55
1, 406546, Control_c, 0, 64, 62
1, 406546, Control_c, 0, 67, 17
1, 406555, Note_on_c, 0, 73, 45
1, 406556, Note_on_c, 0, 52, 48
1, 406561, Note_on_c, 0, 55, 38
1, 406561, Control_c, 0, 64, 45
1, 406561, Control_c, 0, 67, 18
1, 406576, Control_c, 0, 64, 46
1, 406576, Control_c, 0, 67, 18
1, 406591, Control_c, 0, 64, 61
1, 406603, Note_off_c, 0, 59, 0
1, 406603, Note_on_c, 0, 59, 3
1, 406603, Note_off_c, 0, 71, 53
1, 406604, Note_off_c, 0, 55, 49
1, 406605, Note_off_c, 0, 73, 45
1, 406605, Control_c, 0, 64, 74
1, 406620, Control_c, 0, 64, 94
1, 406621, Note_off_c, 0, 79, 56
1, 406627, Note_off_c, 0, 76, 51
1, 406629, Note_off_c, 0, 52, 49
1, 406635, Control_c, 0, 64, 127
1, 406635, Control_c, 0, 67, 19
1, 406647, Note_off_c, 0, 59, 49
1, 406680, Control_c, 0, 67, 18
1, 406695, Control_c, 0, 67, 18
1, 406740, Control_c, 0, 64, 82
1, 406754, Control_c, 0, 64, 61
1, 406754, Control_c, 0, 67, 18
1, 406769, Control_c, 0, 64, 29
1, 406769, Control_c, 0, 67, 19
1, 406772, Note_on_c, 0, 81, 68
1, 406775, Note_on_c, 0, 78, 59
1, 406781, Note_on_c, 0, 57, 57
1, 406783, Note_on_c, 0, 69, 53
1, 406784, Control_c, 0, 64, 0
1, 406787, Note_on_c, 0, 50, 49
1, 406787, Note_on_c, 0, 74, 51
1, 406790, Note_on_c, 0, 54, 52
1, 406799, Control_c, 0, 64, 34
1, 406813, Control_c, 0, 64, 60
1, 406828, Control_c, 0, 64, 75
1, 406831, Note_off_c, 0, 81, 62
1, 406832, Note_off_c, 0, 74, 59
1, 406843, Control_c, 0, 64, 96
1, 406843, Control_c, 0, 67, 19
1, 406847, Note_off_c, 0, 57, 54
1, 406856, Note_off_c, 0, 54, 49
1, 406858, Control_c, 0, 64, 127
1, 406859, Note_off_c, 0, 78, 54
1, 406859, Note_off_c, 0, 69, 41
1, 406885, Note_off_c, 0, 50, 56
1, 406902, Control_c, 0, 67, 19
1, 406961, Control_c, 0, 67, 19
1, 406976, Control_c, 0, 67, 20
1, 406999, Note_on_c, 0, 59, 59
1, 407008, Note_on_c, 0, 76, 61
1, 407009, Note_on_c, 0, 79, 64
1, 407013, Note_on_c, 0, 71, 54
1, 407019, Note_on_c, 0, 52, 58
1, 407022, Note_on_c, 0, 55, 46
1, 407028, Control_c, 0, 67, 19
1, 407035, Note_on_c, 0, 73, 43
1, 407041, Note_off_c, 0, 59, 65
1, 407043, Control_c, 0, 67, 17
1, 407051, Note_off_c, 0, 52, 64
1, 407051, Note_off_c, 0, 71, 49
1, 407053, Note_off_c, 0, 55, 52
1, 407057, Note_off_c, 0, 76, 61
1, 407058, Control_c, 0, 67, 14
1, 407059, Note_off_c, 0, 79, 59
1, 407061, Note_off_c, 0, 73, 56
1, 407073, Control_c, 0, 67, 12
1, 407087, Control_c, 0, 67, 10
1, 407102, Control_c, 0, 67, 8
1, 407132, Control_c, 0, 67, 9
1, 407147, Control_c, 0, 67, 12
1, 407161, Control_c, 0, 67, 15
1, 407176, Control_c, 0, 67, 17
1, 407206, Control_c, 0, 67, 17
1, 407220, Control_c, 0, 64, 95
1, 407220, Control_c, 0, 67, 20
1, 407236, Control_c, 0, 64, 67
1, 407236, Control_c, 0, 67, 23
1, 407251, Control_c, 0, 64, 39
1, 407251, Control_c, 0, 67, 30
1, 407266, Control_c, 0, 64, 0
1, 407266, Control_c, 0, 67, 37
1, 407271, Note_on_c, 0, 81, 62
1, 407278, Note_on_c, 0, 50, 62
1, 407279, Note_on_c, 0, 69, 53
1, 407281, Note_on_c, 0, 74, 55
1, 407281, Note_on_c, 0, 78, 57
1, 407281, Control_c, 0, 67, 44
1, 407293, Note_on_c, 0, 42, 50
1, 407293, Note_on_c, 0, 45, 38
1, 407296, Note_on_c, 0, 38, 43
1, 407296, Control_c, 0, 64, 35
1, 407296, Control_c, 0, 67, 49
1, 407310, Control_c, 0, 64, 57
1, 407310, Control_c, 0, 67, 52
1, 407315, Note_off_c, 0, 69, 55
1, 407315, Note_off_c, 0, 74, 63
1, 407318, Note_off_c, 0, 50, 61
1, 407320, Note_off_c, 0, 81, 62
1, 407321, Note_off_c, 0, 42, 58
1, 407321, Note_off_c, 0, 45, 48
1, 407325, Control_c, 0, 64, 68
1, 407325, Control_c, 0, 67, 54
1, 407327, Note_off_c, 0, 38, 49
1, 407327, Note_off_c, 0, 78, 58
1, 407339, Control_c, 0, 64, 76
1, 407354, Control_c, 0, 64, 83
1, 407354, Control_c, 0, 67, 53
1, 407369, Control_c, 0, 64, 87
1, 407369, Control_c, 0, 67, 53
1, 407383, Control_c, 0, 64, 88
1, 407413, Control_c, 0, 67, 53
1, 407428, Control_c, 0, 67, 54
1, 407458, Control_c, 0, 64, 84
1, 407473, Control_c, 0, 64, 74
1, 407473, Control_c, 0, 67, 54
1, 407488, Control_c, 0, 64, 57
1, 407488, Control_c, 0, 67, 55
1, 407502, Control_c, 0, 64, 12
1, 407502, Control_c, 0, 67, 55
1, 407517, Control_c, 0, 64, 0
1, 407522, Note_on_c, 0, 79, 62
1, 407532, Control_c, 0, 67, 56
1, 407535, Note_on_c, 0, 76, 56
1, 407538, Note_on_c, 0, 71, 47
1, 407543, Note_on_c, 0, 59, 47
1, 407547, Control_c, 0, 67, 57
1, 407547, Note_on_c, 0, 73, 49
1, 407562, Control_c, 0, 64, 35
1, 407562, Control_c, 0, 67, 60
1, 407566, Note_on_c, 0, 55, 30
1, 407569, Note_on_c, 0, 52, 42
1, 407576, Control_c, 0, 64, 55
1, 407576, Control_c, 0, 67, 64
1, 407591, Control_c, 0, 64, 68
1, 407591, Control_c, 0, 67, 67
1, 407601, Note_off_c, 0, 71, 52
1, 407606, Control_c, 0, 64, 78
1, 407606, Control_c, 0, 67, 70
1, 407614, Note_off_c, 0, 73, 49
1, 407621, Control_c, 0, 64, 93
1, 407621, Control_c, 0, 67, 72
1, 407624, Note_off_c, 0, 79, 59
1, 407625, Note_off_c, 0, 76, 53
1, 407635, Control_c, 0, 64, 113
1, 407649, Note_off_c, 0, 59, 54
1, 407650, Control_c, 0, 64, 127
1, 407658, Note_off_c, 0, 52, 46
1, 407667, Note_off_c, 0, 55, 35
1, 407695, Control_c, 0, 67, 72
1, 407724, Control_c, 0, 64, 120
1, 407739, Control_c, 0, 64, 79
1, 407739, Control_c, 0, 67, 72
1, 407762, Control_c, 0, 64, 59
1, 407775, Note_on_c, 0, 81, 54
1, 407777, Control_c, 0, 64, 15
1, 407788, Note_on_c, 0, 78, 51
1, 407791, Note_on_c, 0, 74, 45
1, 407791, Control_c, 0, 64, 0
1, 407791, Control_c, 0, 67, 73
1, 407793, Note_on_c, 0, 69, 43
1, 407796, Note_on_c, 0, 57, 46
1, 407797, Note_on_c, 0, 54, 47
1, 407800, Note_on_c, 0, 50, 44
1, 407806, Control_c, 0, 64, 30
1, 407806, Control_c, 0, 67, 73
1, 407821, Control_c, 0, 64, 58
1, 407835, Note_off_c, 0, 69, 51
1, 407835, Control_c, 0, 64, 73
1, 407835, Control_c, 0, 67, 74
1, 407837, Note_off_c, 0, 81, 63
1, 407839, Note_off_c, 0, 74, 63
1, 407841, Note_off_c, 0, 57, 51
1, 407843, Note_off_c, 0, 54, 59
1, 407849, Note_off_c, 0, 50, 60
1, 407850, Note_off_c, 0, 78, 59
1, 407850, Control_c, 0, 64, 85
1, 407865, Control_c, 0, 64, 90
1, 407865, Control_c, 0, 67, 75
1, 407880, Control_c, 0, 64, 89
1, 407880, Control_c, 0, 67, 75
1, 407895, Control_c, 0, 64, 80
1, 407909, Control_c, 0, 64, 69
1, 407924, Control_c, 0, 64, 57
1, 407939, Control_c, 0, 64, 38
1, 407953, Control_c, 0, 64, 0
1, 407998, Control_c, 0, 67, 75
1, 408017, Note_on_c, 0, 79, 56
1, 408021, Note_on_c, 0, 59, 51
1, 408028, Control_c, 0, 64, 30
1, 408031, Note_on_c, 0, 55, 44
1, 408034, Note_on_c, 0, 76, 56
1, 408036, Note_on_c, 0, 71, 57
1, 408041, Note_on_c, 0, 52, 49
1, 408044, Control_c, 0, 64, 56
1, 408045, Note_on_c, 0, 73, 47
1, 408058, Control_c, 0, 64, 70
1, 408073, Control_c, 0, 64, 88
1, 408088, Control_c, 0, 64, 127
1, 408097, Note_off_c, 0, 73, 44
1, 408102, Note_off_c, 0, 71, 50
1, 408114, Note_off_c, 0, 55, 51
1, 408126, Note_off_c, 0, 79, 64
1, 408134, Note_off_c, 0, 52, 51
1, 408156, Note_off_c, 0, 59, 35
1, 408160, Note_off_c, 0, 76, 33
1, 408162, Control_c, 0, 67, 75
1, 408192, Control_c, 0, 67, 76
1, 408206, Control_c, 0, 67, 76
1, 408221, Control_c, 0, 67, 77
1, 408236, Control_c, 0, 67, 80
1, 408251, Control_c, 0, 64, 80
1, 408251, Control_c, 0, 67, 83
1, 408265, Note_on_c, 0, 81, 67
1, 408266, Control_c, 0, 64, 58
1, 408266, Control_c, 0, 67, 84
1, 408281, Control_c, 0, 64, 20
1, 408281, Control_c, 0, 67, 85
1, 408293, Note_on_c, 0, 74, 43
1, 408293, Note_on_c, 0, 78, 54
1, 408295, Note_on_c, 0, 69, 36
1, 408296, Control_c, 0, 64, 0
1, 408296, Control_c, 0, 67, 86
1, 408298, Note_on_c, 0, 57, 35
1, 408299, Note_on_c, 0, 50, 37
1, 408308, Note_on_c, 0, 54, 30
1, 408310, Control_c, 0, 64, 40
1, 408310, Control_c, 0, 67, 86
1, 408325, Control_c, 0, 64, 62
1, 408325, Control_c, 0, 67, 87
1, 408340, Control_c, 0, 64, 78
1, 408353, Note_off_c, 0, 74, 41
1, 408355, Control_c, 0, 64, 120
1, 408370, Control_c, 0, 64, 127
1, 408376, Note_off_c, 0, 69, 33
1, 408401, Note_off_c, 0, 81, 61
1, 408403, Note_off_c, 0, 78, 0
1, 408403, Note_on_c, 0, 78, 9
1, 408404, Note_off_c, 0, 57, 36
1, 408405, Note_off_c, 0, 50, 35
1, 408427, Note_off_c, 0, 54, 33
1, 408427, Note_off_c, 0, 78, 51
1, 408429, Control_c, 0, 67, 87
1, 408444, Control_c, 0, 67, 88
1, 408458, Control_c, 0, 67, 88
1, 408473, Control_c, 0, 67, 89
1, 408488, Control_c, 0, 64, 83
1, 408488, Control_c, 0, 67, 89
1, 408510, Control_c, 0, 64, 61
1, 408510, Control_c, 0, 67, 90
1, 408525, Control_c, 0, 64, 33
1, 408525, Control_c, 0, 67, 92
1, 408526, Note_on_c, 0, 79, 64
1, 408533, Note_on_c, 0, 71, 44
1, 408536, Note_on_c, 0, 59, 39
1, 408540, Control_c, 0, 64, 0
1, 408540, Control_c, 0, 67, 93
1, 408544, Note_on_c, 0, 76, 58
1, 408546, Note_on_c, 0, 55, 34
1, 408549, Note_on_c, 0, 52, 40
1, 408551, Note_on_c, 0, 73, 47
1, 408555, Control_c, 0, 64, 22
1, 408555, Control_c, 0, 67, 95
1, 408570, Control_c, 0, 64, 51
1, 408570, Control_c, 0, 67, 95
1, 408581, Note_off_c, 0, 71, 54
1, 408584, Note_off_c, 0, 73, 52
1, 408584, Control_c, 0, 64, 66
1, 408584, Control_c, 0, 67, 97
1, 408599, Control_c, 0, 64, 84
1, 408599, Control_c, 0, 67, 97
1, 408610, Note_off_c, 0, 55, 44
1, 408614, Control_c, 0, 64, 120
1, 408614, Control_c, 0, 67, 98
1, 408615, Note_off_c, 0, 76, 41
1, 408623, Note_off_c, 0, 52, 47
1, 408626, Note_off_c, 0, 59, 48
1, 408629, Control_c, 0, 64, 127
1, 408632, Note_off_c, 0, 79, 60
1, 408673, Control_c, 0, 67, 99
1, 408703, Control_c, 0, 67, 99
1, 408732, Control_c, 0, 67, 100
1, 408747, Control_c, 0, 64, 92
1, 408747, Control_c, 0, 67, 100
1, 408762, Control_c, 0, 64, 68
1, 408762, Control_c, 0, 67, 101
1, 408776, Control_c, 0, 64, 47
1, 408776, Control_c, 0, 67, 102
1, 408791, Control_c, 0, 64, 0
1, 408791, Control_c, 0, 67, 103
1, 408806, Control_c, 0, 67, 104
1, 408808, Note_on_c, 0, 81, 63
1, 408813, Note_on_c, 0, 78, 55
1, 408821, Control_c, 0, 64, 30
1, 408821, Control_c, 0, 67, 105
1, 408828, Note_on_c, 0, 54, 33
1, 408831, Note_on_c, 0, 57, 32
1, 408832, Note_on_c, 0, 74, 47
1, 408837, Control_c, 0, 64, 55
1, 408837, Control_c, 0, 67, 106
1, 408838, Note_on_c, 0, 69, 40
1, 408843, Note_on_c, 0, 50, 37
1, 408852, Control_c, 0, 64, 68
1, 408852, Control_c, 0, 67, 106
1, 408867, Control_c, 0, 64, 80
1, 408867, Control_c, 0, 67, 107
1, 408875, Note_off_c, 0, 74, 47
1, 408880, Note_off_c, 0, 69, 47
1, 408881, Control_c, 0, 64, 100
1, 408896, Control_c, 0, 64, 127
1, 408909, Note_off_c, 0, 57, 40
1, 408914, Note_off_c, 0, 54, 39
1, 408921, Note_off_c, 0, 81, 54
1, 408928, Note_off_c, 0, 50, 40
1, 408942, Note_off_c, 0, 78, 51
1, 408985, Control_c, 0, 67, 108
1, 409029, Control_c, 0, 67, 108
1, 409074, Control_c, 0, 64, 78
1, 409074, Control_c, 0, 67, 109
1, 409089, Control_c, 0, 64, 60
1, 409089, Control_c, 0, 67, 110
1, 409089, Note_on_c, 0, 76, 50
1, 409093, Note_on_c, 0, 79, 53
1, 409103, Note_on_c, 0, 71, 35
1, 409103, Control_c, 0, 64, 31
1, 409103, Control_c, 0, 67, 111
1, 409111, Note_on_c, 0, 59, 35
1, 409115, Note_on_c, 0, 55, 33
1, 409117, Note_on_c, 0, 52, 38
1, 409117, Note_on_c, 0, 73, 40
1, 409118, Control_c, 0, 64, 25
1, 409118, Control_c, 0, 67, 112
1, 409133, Control_c, 0, 64, 45
1, 409133, Control_c, 0, 67, 113
1, 409148, Control_c, 0, 64, 62
1, 409148, Control_c, 0, 67, 114
1, 409157, Note_off_c, 0, 73, 46
1, 409160, Note_off_c, 0, 71, 41
1, 409163, Control_c, 0, 64, 74
1, 409175, Note_off_c, 0, 76, 52
1, 409178, Control_c, 0, 64, 89
1, 409178, Control_c, 0, 67, 114
1, 409193, Control_c, 0, 64, 112
1, 409197, Note_off_c, 0, 79, 53
1, 409207, Control_c, 0, 64, 127
1, 409214, Note_off_c, 0, 55, 36
1, 409243, Note_off_c, 0, 52, 34
1, 409258, Note_off_c, 0, 59, 34
1, 409274, Control_c, 0, 67, 114
1, 409393, Control_c, 0, 67, 114
1, 409437, Control_c, 0, 64, 108
1, 409437, Control_c, 0, 67, 115
1, 409452, Control_c, 0, 64, 84
1, 409467, Control_c, 0, 64, 64
1, 409467, Control_c, 0, 67, 115
1, 409481, Control_c, 0, 64, 33
1, 409496, Control_c, 0, 64, 0
1, 409496, Control_c, 0, 67, 116
1, 409511, Control_c, 0, 67, 116
1, 409526, Control_c, 0, 67, 117
1, 409530, Note_on_c, 0, 81, 48
1, 409541, Control_c, 0, 67, 118
1, 409542, Note_on_c, 0, 78, 45
1, 409554, Note_on_c, 0, 54, 27
1, 409554, Note_on_c, 0, 57, 20
1, 409555, Control_c, 0, 67, 118
1, 409557, Note_on_c, 0, 69, 28
1, 409557, Note_on_c, 0, 74, 39
1, 409559, Note_on_c, 0, 50, 23
1, 409585, Control_c, 0, 64, 35
1, 409585, Control_c, 0, 67, 119
1, 409599, Control_c, 0, 64, 58
1, 409599, Control_c, 0, 67, 119
1, 409614, Control_c, 0, 64, 65
1, 409614, Control_c, 0, 67, 120
1, 409630, Control_c, 0, 64, 74
1, 409636, Note_off_c, 0, 50, 55
1, 409645, Note_off_c, 0, 81, 62
1, 409645, Control_c, 0, 64, 94
1, 409649, Note_off_c, 0, 69, 44
1, 409652, Note_off_c, 0, 74, 36
1, 409652, Note_off_c, 0, 78, 54
1, 409656, Note_off_c, 0, 57, 36
1, 409660, Control_c, 0, 64, 127
1, 409665, Note_off_c, 0, 54, 36
1, 409675, Control_c, 0, 67, 119
1, 409719, Control_c, 0, 67, 119
1, 409764, Control_c, 0, 67, 118
1, 409778, Control_c, 0, 67, 117
1, 409793, Control_c, 0, 67, 115
1, 409808, Control_c, 0, 67, 114
1, 409822, Control_c, 0, 67, 112
1, 409837, Control_c, 0, 67, 111
1, 409852, Control_c, 0, 67, 110
1, 409867, Control_c, 0, 67, 108
1, 409882, Control_c, 0, 67, 107
1, 409896, Control_c, 0, 67, 104
1, 409911, Control_c, 0, 67, 102
1, 409926, Control_c, 0, 67, 100
1, 409941, Control_c, 0, 67, 98
1, 409956, Control_c, 0, 67, 96
1, 409971, Control_c, 0, 67, 93
1, 409986, Control_c, 0, 67, 89
1, 410008, Control_c, 0, 67, 86
1, 410023, Control_c, 0, 67, 85
1, 410052, Control_c, 0, 67, 86
1, 410067, Control_c, 0, 67, 88
1, 410082, Control_c, 0, 67, 91
1, 410097, Control_c, 0, 67, 93
1, 410111, Control_c, 0, 67, 95
1, 410126, Control_c, 0, 67, 97
1, 410141, Control_c, 0, 67, 98
1, 410185, Control_c, 0, 67, 99
1, 410200, Control_c, 0, 67, 101
1, 410215, Control_c, 0, 67, 103
1, 410230, Control_c, 0, 67, 104
1, 410245, Control_c, 0, 67, 104
1, 410260, Control_c, 0, 67, 105
1, 410275, Control_c, 0, 67, 107
1, 410290, Control_c, 0, 67, 109
1, 410349, Control_c, 0, 67, 109
1, 410364, Control_c, 0, 67, 111
1, 410379, Control_c, 0, 64, 102
1, 410379, Control_c, 0, 67, 112
1, 410394, Control_c, 0, 64, 86
1, 410409, Control_c, 0, 64, 71
1, 410424, Control_c, 0, 64, 59
1, 410424, Control_c, 0, 67, 112
1, 410439, Control_c, 0, 64, 31
1, 410439, Control_c, 0, 67, 113
1, 410454, Control_c, 0, 64, 0
1, 410454, Control_c, 0, 67, 113
1, 410469, Control_c, 0, 67, 114
1, 410528, Control_c, 0, 67, 113
1, 410558, Control_c, 0, 67, 112
1, 410573, Control_c, 0, 67, 110
1, 410588, Control_c, 0, 64, 44
1, 410588, Control_c, 0, 67, 108
1, 410602, Control_c, 0, 64, 69
1, 410602, Control_c, 0, 67, 106
1, 410617, Control_c, 0, 64, 89
1, 410617, Control_c, 0, 67, 104
1, 410632, Control_c, 0, 64, 127
1, 410632, Control_c, 0, 67, 103
1, 410643, Note_on_c, 0, 62, 60
1, 410646, Control_c, 0, 67, 103
1, 410648, Note_on_c, 0, 57, 60
1, 410656, Note_on_c, 0, 60, 33
1, 410667, Note_off_c, 0, 62, 66
1, 410676, Control_c, 0, 67, 104
1, 410677, Note_off_c, 0, 57, 65
1, 410690, Note_off_c, 0, 60, 47
1, 410691, Control_c, 0, 64, 103
1, 410691, Control_c, 0, 67, 105
1, 410706, Control_c, 0, 64, 65
1, 410706, Control_c, 0, 67, 107
1, 410720, Control_c, 0, 64, 21
1, 410720, Control_c, 0, 67, 109
1, 410729, Note_on_c, 0, 58, 55
1, 410735, Control_c, 0, 64, 0
1, 410735, Control_c, 0, 67, 112
1, 410743, Note_on_c, 0, 55, 41
1, 410754, Note_on_c, 0, 62, 55
1, 410758, Control_c, 0, 67, 114
1, 410773, Control_c, 0, 67, 116
1, 410780, Note_off_c, 0, 58, 64
1, 410784, Note_off_c, 0, 55, 55
1, 410788, Control_c, 0, 67, 119
1, 410802, Control_c, 0, 67, 121
1, 410803, Note_on_c, 0, 60, 57
1, 410803, Note_off_c, 0, 62, 0
1, 410814, Note_on_c, 0, 57, 43
1, 410816, Note_on_c, 0, 62, 50
1, 410817, Control_c, 0, 67, 122
1, 410826, Note_off_c, 0, 60, 60
1, 410842, Note_off_c, 0, 57, 55
1, 410842, Note_off_c, 0, 62, 59
1, 410892, Note_on_c, 0, 58, 50
1, 410902, Note_on_c, 0, 55, 30
1, 410910, Note_on_c, 0, 62, 49
1, 410928, Note_off_c, 0, 58, 64
1, 410935, Control_c, 0, 67, 122
1, 410936, Note_off_c, 0, 62, 58
1, 410937, Note_off_c, 0, 55, 52
1, 410972, Note_on_c, 0, 57, 60
1, 410974, Note_on_c, 0, 60, 51
1, 410975, Note_on_c, 0, 64, 69
1, 410978, Note_on_c, 0, 67, 66
1, 410997, Note_off_c, 0, 67, 66
1, 410999, Note_off_c, 0, 60, 57
1, 411000, Note_off_c, 0, 57, 65
1, 411004, Note_off_c, 0, 64, 66
1, 411063, Note_on_c, 0, 58, 40
1, 411071, Note_on_c, 0, 55, 29
1, 411098, Note_off_c, 0, 58, 57
1, 411107, Note_off_c, 0, 55, 55
1, 411145, Note_on_c, 0, 60, 55
1, 411145, Note_on_c, 0, 67, 61
1, 411146, Poly_aftertouch_c, 0, 62, 0
1, 411147, Note_on_c, 0, 57, 63
1, 411156, Note_on_c, 0, 64, 47
1, 411157, Control_c, 0, 67, 122
1, 411168, Note_off_c, 0, 60, 60
1, 411172, Note_off_c, 0, 57, 64
1, 411175, Note_off_c, 0, 67, 64
1, 411181, Note_off_c, 0, 64, 58
1, 411232, Note_on_c, 0, 62, 63
1, 411244, Note_on_c, 0, 58, 38
1, 411254, Note_on_c, 0, 55, 23
1, 411262, Control_c, 0, 67, 122
1, 411268, Note_off_c, 0, 62, 58
1, 411272, Note_off_c, 0, 58, 60
1, 411294, Note_off_c, 0, 55, 44
1, 411324, Note_on_c, 0, 62, 78
1, 411325, Note_on_c, 0, 57, 60
1, 411325, Note_on_c, 0, 60, 50
1, 411336, Control_c, 0, 67, 121
1, 411349, Note_off_c, 0, 60, 57
1, 411350, Note_off_c, 0, 62, 67
1, 411354, Note_off_c, 0, 57, 65
1, 411366, Control_c, 0, 67, 121
1, 411389, Note_on_c, 0, 55, 54
1, 411391, Note_on_c, 0, 58, 43
1, 411399, Note_on_c, 0, 62, 68
1, 411425, Control_c, 0, 67, 119
1, 411436, Note_off_c, 0, 62, 63
1, 411437, Note_off_c, 0, 58, 66
1, 411440, Control_c, 0, 67, 117
1, 411440, Note_off_c, 0, 55, 61
1, 411455, Control_c, 0, 67, 115
1, 411469, Control_c, 0, 67, 114
1, 411476, Note_on_c, 0, 60, 49
1, 411479, Note_on_c, 0, 62, 83
1, 411480, Note_on_c, 0, 57, 51
1, 411506, Control_c, 0, 67, 113
1, 411508, Note_off_c, 0, 60, 56
1, 411510, Note_off_c, 0, 62, 69
1, 411515, Note_off_c, 0, 57, 58
1, 411521, Control_c, 0, 67, 110
1, 411536, Control_c, 0, 67, 108
1, 411551, Control_c, 0, 67, 104
1, 411552, Note_on_c, 0, 58, 55
1, 411553, Note_on_c, 0, 62, 71
1, 411559, Note_on_c, 0, 55, 52
1, 411566, Control_c, 0, 67, 102
1, 411581, Control_c, 0, 67, 103
1, 411590, Note_off_c, 0, 62, 62
1, 411595, Note_off_c, 0, 58, 67
1, 411595, Note_off_c, 0, 55, 62
1, 411610, Control_c, 0, 67, 103
1, 411625, Control_c, 0, 67, 104
1, 411630, Note_on_c, 0, 60, 70
1, 411632, Note_on_c, 0, 57, 70
1, 411636, Note_on_c, 0, 65, 78
1, 411637, Note_on_c, 0, 69, 82
1, 411640, Control_c, 0, 67, 105
1, 411655, Control_c, 0, 67, 108
1, 411655, Note_off_c, 0, 57, 67
1, 411659, Note_off_c, 0, 60, 63
1, 411663, Note_off_c, 0, 65, 67
1, 411667, Note_off_c, 0, 69, 66
1, 411670, Control_c, 0, 67, 110
1, 411684, Control_c, 0, 67, 112
1, 411699, Control_c, 0, 67, 113
1, 411714, Control_c, 0, 67, 114
1, 411715, Note_on_c, 0, 58, 57
1, 411716, Note_on_c, 0, 62, 65
1, 411724, Note_on_c, 0, 55, 47
1, 411729, Control_c, 0, 67, 114
1, 411748, Note_off_c, 0, 62, 52
1, 411755, Note_off_c, 0, 58, 66
1, 411758, Note_off_c, 0, 55, 64
1, 411758, Control_c, 0, 67, 115
1, 411788, Control_c, 0, 67, 115
1, 411802, Control_c, 0, 67, 116
1, 411806, Note_on_c, 0, 69, 76
1, 411809, Note_on_c, 0, 60, 64
1, 411812, Note_on_c, 0, 57, 60
1, 411817, Control_c, 0, 67, 117
1, 411831, Control_c, 0, 67, 118
1, 411836, Note_off_c, 0, 60, 64
1, 411838, Note_off_c, 0, 69, 63
1, 411839, Note_off_c, 0, 57, 65
1, 411846, Control_c, 0, 67, 118
1, 411885, Note_on_c, 0, 58, 54
1, 411890, Note_on_c, 0, 62, 58
1, 411891, Control_c, 0, 67, 118
1, 411893, Note_on_c, 0, 55, 40
1, 411923, Note_off_c, 0, 62, 57
1, 411927, Note_off_c, 0, 58, 66
1, 411929, Note_off_c, 0, 55, 62
1, 411935, Control_c, 0, 67, 117
1, 411950, Control_c, 0, 67, 117
1, 411965, Control_c, 0, 67, 116
1, 411978, Note_on_c, 0, 60, 63
1, 411983, Note_on_c, 0, 57, 54
1, 411992, Note_on_c, 0, 62, 75
1, 411995, Control_c, 0, 67, 115
1, 412006, Note_off_c, 0, 60, 64
1, 412009, Control_c, 0, 67, 115
1, 412010, Note_off_c, 0, 57, 64
1, 412010, Note_off_c, 0, 62, 68
1, 412040, Control_c, 0, 67, 114
1, 412053, Note_on_c, 0, 58, 52
1, 412056, Note_on_c, 0, 55, 51
1, 412062, Note_on_c, 0, 62, 64
1, 412069, Control_c, 0, 67, 112
1, 412084, Control_c, 0, 67, 109
1, 412093, Note_off_c, 0, 62, 64
1, 412096, Note_off_c, 0, 58, 65
1, 412099, Control_c, 0, 67, 107
1, 412099, Note_off_c, 0, 55, 64
1, 412114, Control_c, 0, 67, 105
1, 412129, Control_c, 0, 67, 101
1, 412134, Note_on_c, 0, 62, 80
1, 412135, Note_on_c, 0, 60, 54
1, 412136, Note_on_c, 0, 57, 52
1, 412144, Control_c, 0, 67, 95
1, 412157, Note_off_c, 0, 62, 68
1, 412159, Control_c, 0, 67, 86
1, 412160, Note_off_c, 0, 60, 57
1, 412163, Note_off_c, 0, 57, 58
1, 412173, Control_c, 0, 67, 68
1, 412188, Control_c, 0, 67, 44
1, 412201, Note_on_c, 0, 62, 79
1, 412203, Control_c, 0, 67, 9
1, 412206, Note_on_c, 0, 58, 61
1, 412208, Note_on_c, 0, 55, 59
1, 412217, Control_c, 0, 67, 0
1, 412257, Note_off_c, 0, 55, 61
1, 412259, Note_off_c, 0, 58, 63
1, 412259, Note_off_c, 0, 62, 63
1, 412285, Note_on_c, 0, 57, 74
1, 412287, Note_on_c, 0, 60, 67
1, 412290, Note_on_c, 0, 64, 79
1, 412293, Note_on_c, 0, 67, 78
1, 412309, Note_off_c, 0, 57, 66
1, 412310, Note_off_c, 0, 60, 65
1, 412314, Note_off_c, 0, 64, 69
1, 412314, Control_c, 0, 67, 10
1, 412317, Note_off_c, 0, 67, 67
1, 412329, Control_c, 0, 67, 22
1, 412344, Control_c, 0, 67, 37
1, 412359, Control_c, 0, 67, 54
1, 412373, Control_c, 0, 67, 75
1, 412379, Note_on_c, 0, 62, 63
1, 412380, Note_on_c, 0, 58, 55
1, 412388, Control_c, 0, 67, 94
1, 412388, Note_on_c, 0, 55, 49
1, 412403, Control_c, 0, 67, 108
1, 412412, Note_off_c, 0, 62, 54
1, 412418, Control_c, 0, 67, 113
1, 412420, Note_off_c, 0, 58, 66
1, 412424, Note_off_c, 0, 55, 63
1, 412432, Control_c, 0, 67, 115
1, 412447, Control_c, 0, 67, 119
1, 412462, Control_c, 0, 67, 123
1, 412463, Note_on_c, 0, 67, 70
1, 412470, Note_on_c, 0, 57, 68
1, 412477, Control_c, 0, 67, 127
1, 412478, Note_on_c, 0, 60, 51
1, 412487, Note_on_c, 0, 64, 34
1, 412492, Control_c, 0, 67, 127
1, 412498, Note_off_c, 0, 57, 65
1, 412503, Note_off_c, 0, 60, 55
1, 412503, Note_off_c, 0, 67, 63
1, 412522, Note_off_c, 0, 64, 48
1, 412545, Note_on_c, 0, 55, 47
1, 412545, Note_on_c, 0, 58, 49
1, 412549, Note_on_c, 0, 62, 51
1, 412577, Note_off_c, 0, 62, 57
1, 412582, Note_off_c, 0, 58, 65
1, 412585, Note_off_c, 0, 55, 64
1, 412636, Note_on_c, 0, 57, 55
1, 412639, Note_on_c, 0, 62, 80
1, 412639, Note_on_c, 0, 60, 45
1, 412662, Note_off_c, 0, 57, 63
1, 412665, Note_off_c, 0, 62, 68
1, 412668, Note_off_c, 0, 60, 51
1, 412703, Note_on_c, 0, 55, 56
1, 412705, Note_on_c, 0, 58, 51
1, 412713, Control_c, 0, 67, 126
1, 412715, Note_on_c, 0, 62, 65
1, 412740, Note_off_c, 0, 62, 60
1, 412743, Control_c, 0, 67, 126
1, 412747, Note_off_c, 0, 58, 64
1, 412752, Note_off_c, 0, 55, 63
1, 412758, Control_c, 0, 67, 124
1, 412773, Control_c, 0, 67, 122
1, 412788, Control_c, 0, 67, 119
1, 412800, Note_on_c, 0, 62, 78
1, 412800, Note_on_c, 0, 57, 51
1, 412800, Note_on_c, 0, 60, 42
1, 412803, Control_c, 0, 67, 115
1, 412818, Control_c, 0, 67, 111
1, 412827, Note_off_c, 0, 57, 59
1, 412829, Note_off_c, 0, 62, 67
1, 412833, Note_off_c, 0, 60, 48
1, 412833, Control_c, 0, 67, 106
1, 412847, Control_c, 0, 67, 97
1, 412859, Note_on_c, 0, 58, 57
1, 412862, Note_on_c, 0, 55, 58
1, 412862, Control_c, 0, 67, 84
1, 412877, Control_c, 0, 67, 62
1, 412886, Poly_aftertouch_c, 0, 62, 127
1, 412892, Control_c, 0, 64, 35
1, 412892, Control_c, 0, 67, 23
1, 412898, Poly_aftertouch_c, 0, 62, 0
1, 412901, Note_off_c, 0, 58, 63
1, 412907, Note_off_c, 0, 55, 63
1, 412907, Control_c, 0, 64, 34
1, 412907, Control_c, 0, 67, 0
1, 412922, Control_c, 0, 64, 0
1, 412939, Note_on_c, 0, 57, 70
1, 412941, Note_on_c, 0, 60, 70
1, 412944, Note_on_c, 0, 65, 80
1, 412945, Note_on_c, 0, 69, 78
1, 412967, Note_off_c, 0, 57, 66
1, 412967, Note_off_c, 0, 60, 63
1, 412972, Note_off_c, 0, 65, 68
1, 412973, Note_off_c, 0, 69, 67
1, 413003, Control_c, 0, 67, 16
1, 413018, Control_c, 0, 67, 26
1, 413028, Note_on_c, 0, 58, 57
1, 413033, Control_c, 0, 67, 33
1, 413035, Note_on_c, 0, 55, 41
1, 413038, Note_on_c, 0, 62, 57
1, 413047, Control_c, 0, 67, 38
1, 413062, Control_c, 0, 67, 45
1, 413065, Note_off_c, 0, 62, 56
1, 413071, Note_off_c, 0, 58, 65
1, 413073, Note_off_c, 0, 55, 62
1, 413077, Control_c, 0, 67, 52
1, 413092, Control_c, 0, 67, 59
1, 413107, Control_c, 0, 67, 64
1, 413122, Control_c, 0, 67, 67
1, 413122, Note_on_c, 0, 69, 65
1, 413127, Note_on_c, 0, 60, 43
1, 413137, Control_c, 0, 67, 72
1, 413141, Note_on_c, 0, 65, 45
1, 413143, Note_on_c, 0, 57, 12
1, 413151, Control_c, 0, 67, 76
1, 413153, Note_off_c, 0, 69, 67
1, 413157, Note_off_c, 0, 60, 47
1, 413166, Control_c, 0, 67, 78
1, 413169, Note_off_c, 0, 65, 52
1, 413191, Note_off_c, 0, 57, 34
1, 413194, Note_on_c, 0, 58, 50
1, 413199, Note_on_c, 0, 55, 40
1, 413211, Note_on_c, 0, 62, 37
1, 413226, Control_c, 0, 67, 77
1, 413241, Control_c, 0, 67, 77
1, 413242, Note_off_c, 0, 58, 62
1, 413244, Note_off_c, 0, 62, 54
1, 413245, Note_off_c, 0, 55, 60
1, 413255, Control_c, 0, 67, 76
1, 413270, Control_c, 0, 67, 74
1, 413285, Control_c, 0, 67, 73
1, 413300, Control_c, 0, 64, 29
1, 413300, Control_c, 0, 67, 71
1, 413301, Note_on_c, 0, 72, 65
1, 413302, Note_on_c, 0, 70, 79
1, 413304, Note_on_c, 0, 67, 76
1, 413311, Note_on_c, 0, 62, 59
1, 413315, Control_c, 0, 64, 69
1, 413320, Note_off_c, 0, 72, 64
1, 413324, Note_on_c, 0, 60, 49
1, 413329, Control_c, 0, 64, 81
1, 413334, Note_off_c, 0, 67, 66
1, 413336, Note_off_c, 0, 62, 58
1, 413344, Control_c, 0, 64, 86
1, 413344, Control_c, 0, 67, 72
1, 413351, Note_off_c, 0, 70, 64
1, 413356, Note_off_c, 0, 60, 52
1, 413359, Control_c, 0, 64, 89
1, 413359, Control_c, 0, 67, 72
1, 413371, Note_on_c, 0, 58, 50
1, 413373, Control_c, 0, 64, 91
1, 413377, Note_on_c, 0, 55, 46
1, 413387, Note_on_c, 0, 62, 40
1, 413388, Control_c, 0, 64, 93
1, 413388, Control_c, 0, 67, 73
1, 413403, Control_c, 0, 67, 75
1, 413417, Note_off_c, 0, 62, 55
1, 413418, Control_c, 0, 64, 91
1, 413418, Control_c, 0, 67, 77
1, 413420, Note_off_c, 0, 58, 60
1, 413427, Note_off_c, 0, 55, 57
1, 413433, Control_c, 0, 64, 80
1, 413433, Control_c, 0, 67, 78
1, 413447, Control_c, 0, 64, 65
1, 413447, Control_c, 0, 67, 81
1, 413462, Control_c, 0, 64, 40
1, 413462, Control_c, 0, 67, 85
1, 413464, Note_on_c, 0, 69, 72
1, 413471, Note_on_c, 0, 70, 56
1, 413477, Control_c, 0, 64, 0
1, 413477, Control_c, 0, 67, 92
1, 413484, Note_on_c, 0, 65, 55
1, 413492, Control_c, 0, 67, 96
1, 413496, Note_off_c, 0, 70, 59
1, 413507, Note_off_c, 0, 69, 65
1, 413507, Control_c, 0, 67, 98
1, 413509, Note_off_c, 0, 65, 64
1, 413552, Note_on_c, 0, 58, 42
1, 413554, Note_on_c, 0, 55, 42
1, 413583, Note_off_c, 0, 58, 57
1, 413585, Note_off_c, 0, 55, 58
1, 413626, Control_c, 0, 67, 98
1, 413636, Note_on_c, 0, 69, 67
1, 413638, Note_on_c, 0, 67, 69
1, 413645, Note_on_c, 0, 64, 71
1, 413646, Note_on_c, 0, 60, 53
1, 413664, Note_off_c, 0, 69, 68
1, 413670, Note_off_c, 0, 60, 59
1, 413670, Note_off_c, 0, 64, 67
1, 413673, Note_off_c, 0, 67, 65
1, 413700, Control_c, 0, 67, 97
1, 413715, Control_c, 0, 67, 96
1, 413722, Note_on_c, 0, 55, 46
1, 413726, Note_on_c, 0, 58, 39
1, 413729, Note_on_c, 0, 62, 50
1, 413730, Control_c, 0, 64, 24
1, 413752, Control_c, 0, 64, 9
1, 413767, Control_c, 0, 64, 0
1, 413767, Control_c, 0, 67, 96
1, 413770, Note_off_c, 0, 62, 54
1, 413775, Note_off_c, 0, 58, 63
1, 413783, Note_off_c, 0, 55, 61
1, 413810, Note_on_c, 0, 67, 72
1, 413811, Control_c, 0, 67, 96
1, 413815, Note_on_c, 0, 65, 72
1, 413821, Note_on_c, 0, 62, 76
1, 413840, Note_on_c, 0, 60, 15
1, 413843, Note_off_c, 0, 62, 68
1, 413849, Note_off_c, 0, 65, 66
1, 413852, Note_off_c, 0, 67, 63
1, 413871, Control_c, 0, 67, 97
1, 413889, Note_off_c, 0, 60, 34
1, 413897, Note_on_c, 0, 55, 58
1, 413899, Note_on_c, 0, 58, 49
1, 413899, Note_on_c, 0, 62, 65
1, 413935, Note_off_c, 0, 62, 60
1, 413941, Note_off_c, 0, 58, 63
1, 413944, Control_c, 0, 67, 96
1, 413946, Note_off_c, 0, 55, 61
1, 413974, Control_c, 0, 67, 96
1, 413986, Note_on_c, 0, 65, 79
1, 413997, Note_on_c, 0, 62, 84
1, 414000, Note_on_c, 0, 64, 87
1, 414004, Control_c, 0, 67, 95
1, 414007, Note_on_c, 0, 60, 61
1, 414012, Note_off_c, 0, 65, 67
1, 414015, Note_off_c, 0, 62, 65
1, 414027, Note_off_c, 0, 60, 62
1, 414034, Control_c, 0, 64, 39
1, 414034, Control_c, 0, 67, 96
1, 414040, Note_off_c, 0, 64, 63
1, 414049, Control_c, 0, 64, 25
1, 414064, Control_c, 0, 64, 0
1, 414064, Control_c, 0, 67, 96
1, 414066, Note_on_c, 0, 55, 51
1, 414070, Note_on_c, 0, 58, 46
1, 414079, Control_c, 0, 67, 97
1, 414086, Note_on_c, 0, 62, 58
1, 414108, Control_c, 0, 67, 97
1, 414112, Note_off_c, 0, 62, 56
1, 414118, Note_off_c, 0, 58, 61
1, 414123, Control_c, 0, 67, 98
1, 414124, Note_off_c, 0, 55, 60
1, 414138, Control_c, 0, 67, 99
1, 414153, Control_c, 0, 67, 100
1, 414159, Note_on_c, 0, 62, 78
1, 414161, Note_on_c, 0, 65, 64
1, 414167, Note_on_c, 0, 64, 73
1, 414168, Control_c, 0, 67, 102
1, 414177, Note_off_c, 0, 62, 68
1, 414180, Note_off_c, 0, 65, 62
1, 414183, Control_c, 0, 67, 103
1, 414194, Note_off_c, 0, 64, 67
1, 414197, Control_c, 0, 67, 105
1, 414212, Control_c, 0, 67, 106
1, 414227, Control_c, 0, 67, 106
1, 414243, Note_on_c, 0, 58, 45
1, 414245, Note_on_c, 0, 55, 51
1, 414246, Note_on_c, 0, 62, 60
1, 414257, Control_c, 0, 67, 107
1, 414284, Note_off_c, 0, 62, 57
1, 414289, Note_off_c, 0, 58, 64
1, 414291, Note_off_c, 0, 55, 62
1, 414329, Note_on_c, 0, 60, 77
1, 414332, Note_on_c, 0, 65, 57
1, 414333, Note_on_c, 0, 64, 59
1, 414353, Note_off_c, 0, 65, 60
1, 414362, Note_off_c, 0, 60, 64
1, 414368, Note_off_c, 0, 64, 67
1, 414375, Control_c, 0, 67, 106
1, 414390, Control_c, 0, 67, 107
1, 414407, Note_on_c, 0, 58, 53
1, 414411, Note_on_c, 0, 62, 54
1, 414414, Note_on_c, 0, 55, 54
1, 414453, Note_off_c, 0, 62, 61
1, 414459, Note_off_c, 0, 55, 63
1, 414459, Note_off_c, 0, 58, 63
1, 414499, Note_on_c, 0, 65, 63
1, 414506, Note_on_c, 0, 60, 71
1, 414508, Note_on_c, 0, 64, 74
1, 414532, Note_off_c, 0, 60, 64
1, 414535, Note_off_c, 0, 64, 66
1, 414536, Note_off_c, 0, 65, 65
1, 414576, Control_c, 0, 67, 106
1, 414587, Note_on_c, 0, 58, 54
1, 414588, Note_on_c, 0, 62, 57
1, 414597, Note_on_c, 0, 55, 45
1, 414621, Control_c, 0, 67, 106
1, 414630, Note_off_c, 0, 62, 54
1, 414632, Note_off_c, 0, 58, 63
1, 414635, Note_off_c, 0, 55, 63
1, 414635, Control_c, 0, 67, 105
1, 414650, Control_c, 0, 67, 105
1, 414665, Control_c, 0, 64, 38
1, 414665, Control_c, 0, 67, 102
1, 414669, Note_on_c, 0, 65, 85
1, 414672, Note_on_c, 0, 67, 81
1, 414673, Note_on_c, 0, 62, 71
1, 414680, Control_c, 0, 64, 47
1, 414680, Control_c, 0, 67, 101
1, 414681, Note_on_c, 0, 60, 60
1, 414695, Control_c, 0, 64, 46
1, 414695, Control_c, 0, 67, 100
1, 414700, Note_off_c, 0, 62, 62
1, 414703, Note_off_c, 0, 60, 60
1, 414708, Note_off_c, 0, 67, 60
1, 414709, Control_c, 0, 64, 47
1, 414709, Control_c, 0, 67, 100
1, 414719, Note_off_c, 0, 65, 65
1, 414724, Control_c, 0, 64, 51
1, 414739, Control_c, 0, 64, 56
1, 414754, Control_c, 0, 64, 60
1, 414755, Note_on_c, 0, 58, 50
1, 414763, Note_on_c, 0, 55, 42
1, 414770, Note_on_c, 0, 62, 54
1, 414783, Control_c, 0, 64, 59
1, 414783, Control_c, 0, 67, 100
1, 414797, Note_off_c, 0, 62, 57
1, 414798, Control_c, 0, 64, 55
1, 414798, Control_c, 0, 67, 101
1, 414800, Note_off_c, 0, 58, 63
1, 414803, Note_off_c, 0, 55, 62
1, 414813, Control_c, 0, 64, 37
1, 414813, Control_c, 0, 67, 102
1, 414827, Control_c, 0, 64, 0
1, 414827, Control_c, 0, 67, 104
1, 414830, Note_on_c, 0, 65, 83
1, 414842, Note_on_c, 0, 67, 64
1, 414842, Control_c, 0, 67, 105
1, 414843, Note_on_c, 0, 62, 63
1, 414857, Control_c, 0, 67, 106
1, 414862, Note_off_c, 0, 67, 65
1, 414865, Note_off_c, 0, 62, 63
1, 414872, Note_off_c, 0, 65, 62
1, 414872, Control_c, 0, 67, 107
1, 414887, Control_c, 0, 67, 107
1, 414923, Note_on_c, 0, 58, 49
1, 414929, Note_on_c, 0, 55, 43
1, 414933, Note_on_c, 0, 62, 62
1, 414960, Note_off_c, 0, 62, 58
1, 414967, Note_off_c, 0, 58, 64
1, 414971, Note_off_c, 0, 55, 62
1, 414999, Note_on_c, 0, 67, 67
1, 415006, Control_c, 0, 67, 108
1, 415010, Note_on_c, 0, 64, 67
1, 415015, Note_on_c, 0, 60, 61
1, 415035, Control_c, 0, 67, 109
1, 415035, Note_off_c, 0, 64, 67
1, 415041, Note_off_c, 0, 67, 64
1, 415046, Note_off_c, 0, 60, 63
1, 415050, Control_c, 0, 67, 111
1, 415065, Control_c, 0, 67, 113
1, 415080, Control_c, 0, 67, 115
1, 415086, Note_on_c, 0, 62, 49
1, 415089, Note_on_c, 0, 55, 45
1, 415089, Note_on_c, 0, 58, 43
1, 415094, Control_c, 0, 67, 117
1, 415109, Control_c, 0, 67, 118
1, 415124, Control_c, 0, 67, 118
1, 415130, Note_off_c, 0, 62, 58
1, 415131, Note_off_c, 0, 58, 63
1, 415134, Note_off_c, 0, 55, 61
1, 415139, Control_c, 0, 67, 119
1, 415154, Control_c, 0, 67, 121
1, 415160, Note_on_c, 0, 70, 73
1, 415170, Note_on_c, 0, 60, 34
1, 415170, Note_on_c, 0, 69, 77
1, 415176, Note_on_c, 0, 65, 54
1, 415181, Note_off_c, 0, 70, 68
1, 415183, Control_c, 0, 67, 121
1, 415203, Note_off_c, 0, 69, 66
1, 415204, Note_off_c, 0, 65, 66
1, 415206, Note_off_c, 0, 60, 53
1, 415254, Note_on_c, 0, 62, 62
1, 415259, Note_on_c, 0, 58, 50
1, 415263, Note_on_c, 0, 55, 50
1, 415280, Control_c, 0, 67, 121
1, 415295, Control_c, 0, 67, 120
1, 415304, Note_off_c, 0, 62, 61
1, 415305, Note_off_c, 0, 58, 63
1, 415307, Note_off_c, 0, 55, 64
1, 415310, Control_c, 0, 67, 119
1, 415325, Control_c, 0, 67, 116
1, 415334, Note_on_c, 0, 70, 67
1, 415334, Note_on_c, 0, 72, 83
1, 415334, Poly_aftertouch_c, 0, 62, 0
1, 415336, Note_on_c, 0, 67, 82
1, 415339, Control_c, 0, 67, 114
1, 415342, Note_on_c, 0, 60, 62
1, 415345, Note_on_c, 0, 62, 58
1, 415354, Control_c, 0, 67, 112
1, 415369, Control_c, 0, 64, 48
1, 415369, Control_c, 0, 67, 111
1, 415381, Note_off_c, 0, 60, 61
1, 415381, Note_off_c, 0, 62, 62
1, 415382, Note_on_c, 0, 71, 9
1, 415382, Note_off_c, 0, 72, 59
1, 415384, Control_c, 0, 64, 59
1, 415389, Note_off_c, 0, 67, 63
1, 415399, Control_c, 0, 64, 62
1, 415400, Note_off_c, 0, 70, 64
1, 415414, Control_c, 0, 64, 63
1, 415426, Note_off_c, 0, 71, 33
1, 415429, Control_c, 0, 67, 111
1, 415435, Note_on_c, 0, 62, 70
1, 415444, Control_c, 0, 67, 112
1, 415447, Note_on_c, 0, 58, 42
1, 415449, Note_on_c, 0, 55, 39
1, 415458, Control_c, 0, 64, 60
1, 415458, Control_c, 0, 67, 113
1, 415465, Note_off_c, 0, 62, 52
1, 415473, Control_c, 0, 64, 47
1, 415473, Control_c, 0, 67, 114
1, 415477, Note_off_c, 0, 58, 60
1, 415480, Note_off_c, 0, 55, 58
1, 415488, Control_c, 0, 64, 0
1, 415488, Control_c, 0, 67, 115
1, 415499, Note_on_c, 0, 70, 80
1, 415502, Note_on_c, 0, 72, 61
1, 415503, Control_c, 0, 67, 116
1, 415503, Note_on_c, 0, 67, 69
1, 415518, Control_c, 0, 67, 118
1, 415518, Note_on_c, 0, 60, 24
1, 415521, Note_off_c, 0, 72, 61
1, 415532, Control_c, 0, 67, 119
1, 415538, Note_off_c, 0, 67, 66
1, 415547, Control_c, 0, 67, 121
1, 415548, Note_off_c, 0, 70, 64
1, 415562, Note_off_c, 0, 60, 29
1, 415562, Control_c, 0, 67, 122
1, 415576, Control_c, 0, 67, 123
1, 415588, Note_on_c, 0, 62, 63
1, 415590, Note_on_c, 0, 58, 42
1, 415591, Note_on_c, 0, 55, 45
1, 415591, Control_c, 0, 67, 124
1, 415605, Control_c, 0, 67, 124
1, 415620, Control_c, 0, 67, 125
1, 415627, Note_off_c, 0, 62, 57
1, 415632, Note_off_c, 0, 58, 63
1, 415634, Note_off_c, 0, 55, 62
1, 415649, Note_on_c, 0, 70, 76
1, 415649, Control_c, 0, 67, 125
1, 415655, Note_on_c, 0, 60, 53
1, 415656, Note_on_c, 0, 69, 78
1, 415676, Note_on_c, 0, 65, 67
1, 415676, Note_off_c, 0, 70, 67
1, 415696, Note_off_c, 0, 60, 59
1, 415703, Note_off_c, 0, 65, 65
1, 415705, Note_off_c, 0, 69, 63
1, 415739, Control_c, 0, 67, 125
1, 415754, Control_c, 0, 67, 124
1, 415755, Note_on_c, 0, 55, 52
1, 415755, Note_on_c, 0, 58, 50
1, 415757, Note_on_c, 0, 62, 53
1, 415783, Control_c, 0, 67, 124
1, 415790, Note_off_c, 0, 62, 55
1, 415795, Note_off_c, 0, 55, 63
1, 415795, Note_off_c, 0, 58, 64
1, 415813, Control_c, 0, 67, 123
1, 415823, Note_on_c, 0, 69, 71
1, 415826, Note_on_c, 0, 67, 76
1, 415837, Note_on_c, 0, 60, 55
1, 415846, Note_off_c, 0, 69, 69
1, 415860, Note_off_c, 0, 60, 58
1, 415864, Note_off_c, 0, 67, 63
1, 415865, Note_on_c, 0, 64, 38
1, 415872, Control_c, 0, 67, 123
1, 415899, Note_off_c, 0, 64, 33
1, 415914, Note_on_c, 0, 62, 57
1, 415915, Note_on_c, 0, 58, 51
1, 415916, Control_c, 0, 67, 122
1, 415918, Note_on_c, 0, 55, 49
1, 415931, Control_c, 0, 67, 120
1, 415946, Control_c, 0, 67, 119
1, 415953, Note_off_c, 0, 62, 51
1, 415955, Note_off_c, 0, 58, 64
1, 415957, Note_off_c, 0, 55, 62
1, 415960, Control_c, 0, 67, 119
1, 415977, Note_on_c, 0, 67, 80
1, 415997, Note_on_c, 0, 62, 65
1, 415998, Control_c, 0, 67, 118
1, 416000, Note_on_c, 0, 65, 85
1, 416004, Note_on_c, 0, 60, 51
1, 416013, Control_c, 0, 64, 46
1, 416013, Control_c, 0, 67, 118
1, 416016, Note_off_c, 0, 67, 66
1, 416028, Control_c, 0, 64, 58
1, 416030, Note_off_c, 0, 60, 60
1, 416031, Note_off_c, 0, 62, 65
1, 416043, Control_c, 0, 64, 57
1, 416043, Control_c, 0, 67, 118
1, 416044, Note_off_c, 0, 65, 65
1, 416058, Control_c, 0, 64, 48
1, 416058, Control_c, 0, 67, 119
1, 416073, Control_c, 0, 64, 12
1, 416073, Control_c, 0, 67, 120
1, 416088, Note_on_c, 0, 55, 50
1, 416088, Control_c, 0, 64, 0
1, 416088, Control_c, 0, 67, 121
1, 416088, Note_on_c, 0, 58, 48
1, 416090, Note_on_c, 0, 62, 67
1, 416103, Control_c, 0, 67, 122
1, 416117, Control_c, 0, 67, 123
1, 416122, Note_off_c, 0, 62, 54
1, 416129, Note_off_c, 0, 55, 64
1, 416129, Note_off_c, 0, 58, 64
1, 416132, Control_c, 0, 67, 124
1, 416147, Control_c, 0, 67, 125
1, 416150, Note_on_c, 0, 65, 79
1, 416162, Control_c, 0, 67, 126
1, 416164, Note_on_c, 0, 60, 44
1, 416173, Note_on_c, 0, 64, 78
1, 416176, Note_off_c, 0, 65, 67
1, 416177, Control_c, 0, 67, 127
1, 416183, Note_on_c, 0, 62, 37
1, 416191, Control_c, 0, 67, 127
1, 416192, Note_off_c, 0, 60, 50
1, 416192, Note_off_c, 0, 62, 37
1, 416199, Note_off_c, 0, 64, 67
1, 416243, Note_on_c, 0, 58, 52
1, 416248, Note_on_c, 0, 55, 53
1, 416248, Note_on_c, 0, 62, 54
1, 416289, Note_off_c, 0, 62, 63
1, 416290, Note_off_c, 0, 55, 61
1, 416290, Note_off_c, 0, 58, 63
1, 416311, Note_on_c, 0, 65, 63
1, 416314, Note_on_c, 0, 60, 60
1, 416324, Note_on_c, 0, 64, 59
1, 416345, Note_off_c, 0, 65, 66
1, 416357, Note_off_c, 0, 60, 61
1, 416362, Note_off_c, 0, 64, 66
1, 416402, Note_on_c, 0, 62, 60
1, 416407, Note_on_c, 0, 58, 55
1, 416407, Note_on_c, 0, 55, 54
1, 416442, Control_c, 0, 67, 127
1, 416451, Note_off_c, 0, 55, 62
1, 416451, Note_off_c, 0, 62, 62
1, 416454, Note_off_c, 0, 58, 62
1, 416457, Control_c, 0, 67, 126
1, 416472, Control_c, 0, 67, 123
1, 416478, Note_on_c, 0, 65, 77
1, 416480, Note_on_c, 0, 60, 74
1, 416484, Note_on_c, 0, 64, 78
1, 416487, Control_c, 0, 64, 45
1, 416487, Control_c, 0, 67, 122
1, 416502, Control_c, 0, 64, 53
1, 416502, Control_c, 0, 67, 121
1, 416508, Note_off_c, 0, 60, 63
1, 416509, Note_off_c, 0, 65, 65
1, 416515, Note_off_c, 0, 64, 66
1, 416517, Control_c, 0, 64, 55
1, 416517, Control_c, 0, 67, 119
1, 416532, Control_c, 0, 67, 117
1, 416546, Control_c, 0, 64, 56
1, 416546, Control_c, 0, 67, 115
1, 416561, Control_c, 0, 64, 57
1, 416561, Control_c, 0, 67, 113
1, 416566, Note_on_c, 0, 62, 70
1, 416568, Note_on_c, 0, 58, 56
1, 416573, Note_on_c, 0, 55, 57
1, 416576, Control_c, 0, 64, 58
1, 416590, Control_c, 0, 64, 61
1, 416605, Control_c, 0, 64, 64
1, 416612, Note_off_c, 0, 62, 62
1, 416617, Note_off_c, 0, 55, 62
1, 416617, Note_off_c, 0, 58, 62
1, 416620, Control_c, 0, 64, 66
1, 416620, Control_c, 0, 67, 112
1, 416633, Note_on_c, 0, 65, 88
1, 416633, Note_on_c, 0, 67, 82
1, 416635, Control_c, 0, 64, 67
1, 416635, Control_c, 0, 67, 111
1, 416636, Note_on_c, 0, 60, 62
1, 416647, Note_on_c, 0, 62, 44
1, 416650, Control_c, 0, 64, 68
1, 416650, Control_c, 0, 67, 109
1, 416659, Note_off_c, 0, 60, 62
1, 416664, Control_c, 0, 64, 68
1, 416664, Control_c, 0, 67, 107
1, 416665, Note_off_c, 0, 67, 61
1, 416669, Note_off_c, 0, 62, 61
1, 416679, Control_c, 0, 67, 106
1, 416680, Note_off_c, 0, 65, 65
1, 416694, Control_c, 0, 67, 103
1, 416709, Control_c, 0, 67, 98
1, 416722, Note_on_c, 0, 55, 53
1, 416724, Control_c, 0, 67, 93
1, 416726, Note_on_c, 0, 58, 65
1, 416732, Note_on_c, 0, 62, 67
1, 416746, Control_c, 0, 67, 87
1, 416761, Control_c, 0, 67, 82
1, 416772, Note_off_c, 0, 62, 60
1, 416776, Control_c, 0, 67, 78
1, 416779, Note_off_c, 0, 58, 62
1, 416783, Note_off_c, 0, 55, 60
1, 416791, Control_c, 0, 64, 66
1, 416791, Control_c, 0, 67, 74
1, 416805, Note_on_c, 0, 67, 86
1, 416805, Control_c, 0, 64, 63
1, 416805, Control_c, 0, 67, 72
1, 416815, Note_on_c, 0, 64, 72
1, 416821, Control_c, 0, 64, 59
1, 416821, Control_c, 0, 67, 69
1, 416824, Note_on_c, 0, 60, 36
1, 416830, Note_on_c, 0, 69, 47
1, 416836, Control_c, 0, 64, 49
1, 416836, Control_c, 0, 67, 68
1, 416842, Note_off_c, 0, 64, 67
1, 416851, Note_off_c, 0, 67, 64
1, 416851, Control_c, 0, 64, 39
1, 416851, Control_c, 0, 67, 68
1, 416855, Note_off_c, 0, 60, 54
1, 416857, Note_off_c, 0, 69, 58
1, 416866, Control_c, 0, 64, 27
1, 416866, Control_c, 0, 67, 68
1, 416881, Control_c, 0, 64, 13
1, 416881, Control_c, 0, 67, 69
1, 416888, Note_on_c, 0, 62, 58
1, 416892, Note_on_c, 0, 55, 61
1, 416892, Note_on_c, 0, 58, 55
1, 416895, Control_c, 0, 64, 0
1, 416895, Control_c, 0, 67, 70
1, 416910, Control_c, 0, 67, 71
1, 416925, Control_c, 0, 67, 71
1, 416931, Note_off_c, 0, 62, 63
1, 416939, Note_off_c, 0, 58, 62
1, 416940, Control_c, 0, 67, 72
1, 416941, Note_off_c, 0, 55, 59
1, 416955, Control_c, 0, 67, 73
1, 416967, Note_on_c, 0, 70, 81
1, 416969, Control_c, 0, 67, 73
1, 416973, Note_on_c, 0, 69, 70
1, 416979, Note_on_c, 0, 65, 60
1, 416988, Note_off_c, 0, 70, 67
1, 416999, Control_c, 0, 67, 73
1, 417013, Control_c, 0, 67, 72
1, 417020, Note_off_c, 0, 65, 64
1, 417027, Note_off_c, 0, 69, 66
1, 417052, Note_on_c, 0, 58, 53
1, 417053, Note_on_c, 0, 55, 56
1, 417060, Note_on_c, 0, 62, 56
1, 417102, Note_off_c, 0, 62, 57
1, 417107, Note_off_c, 0, 55, 58
1, 417107, Note_off_c, 0, 58, 61
1, 417118, Control_c, 0, 67, 72
1, 417120, Poly_aftertouch_c, 0, 70, 0
1, 417137, Note_on_c, 0, 72, 77
1, 417140, Note_on_c, 0, 70, 65
1, 417142, Note_on_c, 0, 67, 74
1, 417146, Note_on_c, 0, 60, 60
1, 417161, Note_on_c, 0, 71, 45
1, 417162, Note_off_c, 0, 72, 66
1, 417173, Note_off_c, 0, 67, 66
1, 417176, Note_off_c, 0, 60, 49
1, 417185, Note_off_c, 0, 71, 47
1, 417193, Note_off_c, 0, 70, 65
1, 417205, Note_on_c, 0, 62, 62
1, 417207, Control_c, 0, 67, 71
1, 417214, Note_on_c, 0, 58, 61
1, 417221, Control_c, 0, 67, 71
1, 417222, Note_on_c, 0, 55, 55
1, 417251, Control_c, 0, 67, 70
1, 417265, Note_off_c, 0, 55, 56
1, 417266, Control_c, 0, 67, 69
1, 417271, Note_off_c, 0, 58, 54
1, 417274, Note_off_c, 0, 62, 55
1, 417281, Control_c, 0, 67, 68
1, 417295, Control_c, 0, 67, 67
1, 417310, Control_c, 0, 67, 65
1, 417325, Control_c, 0, 67, 60
1, 417336, Note_on_c, 0, 74, 73
1, 417337, Note_on_c, 0, 72, 90
1, 417340, Control_c, 0, 67, 51
1, 417353, Note_on_c, 0, 69, 79
1, 417355, Control_c, 0, 64, 32
1, 417355, Control_c, 0, 67, 35
1, 417369, Control_c, 0, 64, 56
1, 417369, Control_c, 0, 67, 18
1, 417377, Note_off_c, 0, 74, 62
1, 417381, Note_on_c, 0, 60, 36
1, 417384, Control_c, 0, 64, 63
1, 417384, Control_c, 0, 67, 0
1, 417386, Note_on_c, 0, 62, 50
1, 417399, Control_c, 0, 64, 67
1, 417408, Note_off_c, 0, 62, 0
1, 417410, Note_off_c, 0, 69, 64
1, 417414, Control_c, 0, 64, 72
1, 417426, Note_off_c, 0, 60, 45
1, 417429, Control_c, 0, 64, 83
1, 417431, Note_on_c, 0, 62, 49
1, 417435, Note_on_c, 0, 58, 61
1, 417442, Note_on_c, 0, 55, 60
1, 417444, Control_c, 0, 64, 127
1, 417477, Note_off_c, 0, 55, 61
1, 417482, Note_off_c, 0, 62, 62
1, 417492, Note_off_c, 0, 58, 62
1, 417526, Note_on_c, 0, 69, 65
1, 417536, Note_off_c, 0, 72, 50
1, 417549, Note_off_c, 0, 69, 61
1, 417594, Note_on_c, 0, 62, 63
1, 417610, Note_on_c, 0, 58, 57
1, 417626, Note_on_c, 0, 55, 36
1, 417641, Note_off_c, 0, 62, 55
1, 417641, Note_off_c, 0, 58, 56
1, 417655, Note_off_c, 0, 55, 52
1, 417676, Note_on_c, 0, 72, 93
1, 417703, Note_on_c, 0, 60, 55
1, 417731, Note_off_c, 0, 60, 51
1, 417791, Note_on_c, 0, 62, 65
1, 417798, Note_on_c, 0, 55, 46
1, 417798, Note_on_c, 0, 58, 54
1, 417835, Note_off_c, 0, 62, 60
1, 417842, Note_off_c, 0, 55, 57
1, 417842, Note_off_c, 0, 58, 60
1, 417855, Note_on_c, 0, 69, 92
1, 417892, Note_off_c, 0, 72, 62
1, 417982, Note_on_c, 0, 55, 47
1, 417982, Note_on_c, 0, 62, 50
1, 417985, Note_on_c, 0, 58, 57
1, 418016, Note_off_c, 0, 69, 64
1, 418022, Note_off_c, 0, 62, 50
1, 418043, Note_off_c, 0, 58, 52
1, 418045, Note_off_c, 0, 55, 50
1, 418058, Control_c, 0, 64, 110
1, 418070, Note_on_c, 0, 70, 85
1, 418073, Control_c, 0, 64, 76
1, 418088, Control_c, 0, 64, 58
1, 418103, Control_c, 0, 64, 34
1, 418118, Control_c, 0, 64, 0
1, 418127, Note_on_c, 0, 62, 23
1, 418133, Control_c, 0, 64, 12
1, 418147, Control_c, 0, 64, 39
1, 418162, Control_c, 0, 64, 57
1, 418177, Control_c, 0, 64, 68
1, 418181, Note_on_c, 0, 55, 48
1, 418185, Note_on_c, 0, 58, 52
1, 418192, Control_c, 0, 64, 77
1, 418196, Note_off_c, 0, 62, 0
1, 418196, Note_on_c, 0, 62, 39
1, 418207, Control_c, 0, 64, 85
1, 418222, Control_c, 0, 64, 93
1, 418238, Note_off_c, 0, 62, 54
1, 418243, Note_off_c, 0, 55, 58
1, 418243, Note_off_c, 0, 58, 61
1, 418243, Control_c, 0, 64, 119
1, 418258, Control_c, 0, 64, 127
1, 418262, Note_on_c, 0, 60, 63
1, 418291, Note_off_c, 0, 60, 49
1, 418347, Poly_aftertouch_c, 0, 62, 127
1, 418350, Note_on_c, 0, 58, 59
1, 418353, Note_on_c, 0, 55, 58
1, 418386, Note_off_c, 0, 55, 62
1, 418392, Note_off_c, 0, 58, 60
1, 418408, Poly_aftertouch_c, 0, 62, 0
1, 418422, Control_c, 0, 64, 99
1, 418429, Note_on_c, 0, 69, 82
1, 418437, Control_c, 0, 64, 74
1, 418437, Control_c, 0, 67, 8
1, 418439, Note_off_c, 0, 70, 63
1, 418452, Control_c, 0, 64, 58
1, 418461, Note_on_c, 0, 60, 44
1, 418466, Control_c, 0, 64, 40
1, 418466, Control_c, 0, 67, 8
1, 418481, Control_c, 0, 64, 22
1, 418481, Control_c, 0, 67, 9
1, 418496, Control_c, 0, 64, 19
1, 418496, Control_c, 0, 67, 0
1, 418499, Note_off_c, 0, 60, 47
1, 418511, Control_c, 0, 64, 35
1, 418517, Note_on_c, 0, 62, 58
1, 418526, Control_c, 0, 64, 52
1, 418528, Note_on_c, 0, 58, 46
1, 418538, Note_on_c, 0, 55, 41
1, 418541, Control_c, 0, 64, 66
1, 418556, Control_c, 0, 64, 79
1, 418571, Control_c, 0, 64, 117
1, 418575, Note_off_c, 0, 55, 58
1, 418575, Note_off_c, 0, 58, 61
1, 418575, Note_off_c, 0, 62, 59
1, 418586, Control_c, 0, 64, 127
1, 418599, Note_on_c, 0, 67, 83
1, 418615, Note_on_c, 0, 60, 70
1, 418622, Note_off_c, 0, 69, 65
1, 418639, Note_off_c, 0, 60, 66
1, 418645, Note_off_c, 0, 67, 64
1, 418690, Note_on_c, 0, 62, 69
1, 418699, Note_on_c, 0, 55, 51
1, 418699, Note_on_c, 0, 58, 55
1, 418733, Control_c, 0, 64, 85
1, 418742, Note_off_c, 0, 55, 57
1, 418744, Note_off_c, 0, 62, 60
1, 418744, Note_off_c, 0, 58, 58
1, 418748, Control_c, 0, 64, 59
1, 418763, Control_c, 0, 64, 40
1, 418777, Note_on_c, 0, 65, 81
1, 418790, Note_on_c, 0, 57, 62
1, 418792, Control_c, 0, 64, 58
1, 418800, Note_on_c, 0, 62, 45
1, 418800, Note_on_c, 0, 60, 24
1, 418807, Control_c, 0, 64, 79
1, 418818, Note_off_c, 0, 57, 55
1, 418822, Control_c, 0, 64, 127
1, 418828, Note_off_c, 0, 62, 57
1, 418833, Note_off_c, 0, 65, 58
1, 418841, Note_off_c, 0, 60, 40
1, 418870, Note_on_c, 0, 55, 48
1, 418871, Note_on_c, 0, 58, 53
1, 418871, Note_on_c, 0, 62, 61
1, 418920, Note_off_c, 0, 62, 59
1, 418926, Note_off_c, 0, 55, 58
1, 418931, Note_off_c, 0, 58, 59
1, 418956, Note_on_c, 0, 60, 56
1, 418961, Note_on_c, 0, 57, 57
1, 418962, Note_on_c, 0, 62, 62
1, 418970, Control_c, 0, 67, 8
1, 418988, Note_off_c, 0, 60, 60
1, 418992, Control_c, 0, 67, 9
1, 418996, Note_off_c, 0, 57, 65
1, 418996, Note_off_c, 0, 62, 67
1, 419007, Control_c, 0, 67, 10
1, 419022, Control_c, 0, 67, 11
1, 419037, Control_c, 0, 67, 16
1, 419052, Control_c, 0, 64, 80
1, 419052, Control_c, 0, 67, 22
1, 419058, Note_on_c, 0, 55, 47
1, 419060, Note_on_c, 0, 58, 56
1, 419060, Note_on_c, 0, 62, 58
1, 419066, Control_c, 0, 64, 63
1, 419066, Control_c, 0, 67, 30
1, 419081, Control_c, 0, 64, 44
1, 419081, Control_c, 0, 67, 37
1, 419089, Note_off_c, 0, 62, 56
1, 419091, Note_off_c, 0, 55, 55
1, 419094, Note_off_c, 0, 58, 54
1, 419096, Control_c, 0, 64, 0
1, 419096, Control_c, 0, 67, 43
1, 419111, Control_c, 0, 67, 49
1, 419126, Control_c, 0, 67, 54
1, 419134, Note_on_c, 0, 57, 53
1, 419134, Note_on_c, 0, 60, 49
1, 419139, Note_on_c, 0, 67, 66
1, 419140, Note_on_c, 0, 64, 59
1, 419140, Control_c, 0, 67, 60
1, 419155, Control_c, 0, 67, 64
1, 419159, Note_off_c, 0, 57, 58
1, 419159, Note_off_c, 0, 60, 57
1, 419164, Note_off_c, 0, 67, 62
1, 419167, Note_off_c, 0, 64, 66
1, 419170, Control_c, 0, 67, 68
1, 419185, Control_c, 0, 67, 72
1, 419200, Control_c, 0, 67, 74
1, 419215, Control_c, 0, 67, 77
1, 419228, Note_on_c, 0, 58, 45
1, 419228, Note_on_c, 0, 62, 54
1, 419229, Note_on_c, 0, 55, 48
1, 419230, Control_c, 0, 67, 82
1, 419245, Control_c, 0, 67, 87
1, 419260, Control_c, 0, 67, 92
1, 419270, Note_off_c, 0, 62, 57
1, 419274, Note_off_c, 0, 55, 60
1, 419275, Control_c, 0, 67, 97
1, 419276, Note_off_c, 0, 58, 62
1, 419289, Control_c, 0, 67, 100
1, 419291, Note_on_c, 0, 67, 70
1, 419293, Note_on_c, 0, 60, 54
1, 419294, Note_on_c, 0, 57, 59
1, 419304, Control_c, 0, 67, 101
1, 419310, Note_on_c, 0, 64, 27
1, 419322, Note_off_c, 0, 60, 56
1, 419328, Note_off_c, 0, 57, 63
1, 419328, Note_off_c, 0, 67, 63
1, 419349, Note_off_c, 0, 64, 43
1, 419349, Control_c, 0, 67, 101
1, 419364, Control_c, 0, 67, 102
1, 419379, Note_on_c, 0, 62, 57
1, 419388, Note_on_c, 0, 58, 49
1, 419391, Note_on_c, 0, 55, 45
1, 419426, Note_off_c, 0, 62, 49
1, 419428, Note_off_c, 0, 55, 62
1, 419429, Note_off_c, 0, 58, 62
1, 419466, Note_on_c, 0, 60, 65
1, 419468, Control_c, 0, 67, 101
1, 419470, Note_on_c, 0, 62, 66
1, 419475, Note_on_c, 0, 57, 55
1, 419483, Control_c, 0, 67, 100
1, 419495, Note_off_c, 0, 60, 62
1, 419497, Control_c, 0, 67, 99
1, 419507, Note_off_c, 0, 62, 66
1, 419507, Note_off_c, 0, 57, 61
1, 419512, Control_c, 0, 64, 46
1, 419512, Control_c, 0, 67, 97
1, 419527, Control_c, 0, 64, 62
1, 419527, Control_c, 0, 67, 94
1, 419542, Control_c, 0, 64, 70
1, 419542, Control_c, 0, 67, 91
1, 419544, Note_on_c, 0, 58, 45
1, 419547, Note_on_c, 0, 62, 61
1, 419552, Note_on_c, 0, 55, 46
1, 419556, Control_c, 0, 64, 91
1, 419556, Control_c, 0, 67, 88
1, 419571, Control_c, 0, 64, 127
1, 419571, Control_c, 0, 67, 84
1, 419586, Control_c, 0, 67, 77
1, 419590, Note_off_c, 0, 55, 63
1, 419590, Note_off_c, 0, 62, 53
1, 419593, Note_off_c, 0, 58, 65
1, 419601, Control_c, 0, 67, 67
1, 419615, Control_c, 0, 67, 51
1, 419626, Note_on_c, 0, 62, 69
1, 419630, Control_c, 0, 67, 33
1, 419632, Note_on_c, 0, 57, 48
1, 419634, Note_on_c, 0, 60, 44
1, 419645, Control_c, 0, 67, 15
1, 419650, Note_off_c, 0, 62, 68
1, 419660, Control_c, 0, 67, 0
1, 419662, Note_off_c, 0, 57, 53
1, 419662, Note_off_c, 0, 60, 53
1, 419702, Note_on_c, 0, 55, 43
1, 419704, Note_on_c, 0, 58, 53
1, 419720, Poly_aftertouch_c, 0, 62, 127
1, 419743, Poly_aftertouch_c, 0, 62, 0
1, 419750, Note_off_c, 0, 55, 61
1, 419751, Note_off_c, 0, 58, 61
1, 419814, Note_on_c, 0, 72, 89
1, 419861, Note_on_c, 0, 60, 40
1, 419907, Note_off_c, 0, 60, 44
1, 419929, Note_on_c, 0, 62, 47
1, 419937, Note_on_c, 0, 55, 46
1, 419943, Note_on_c, 0, 58, 51
1, 419975, Note_off_c, 0, 62, 46
1, 419982, Note_off_c, 0, 55, 57
1, 419984, Note_on_c, 0, 69, 86
1, 419985, Note_off_c, 0, 58, 57
1, 420015, Note_off_c, 0, 72, 63
1, 420106, Note_on_c, 0, 62, 60
1, 420121, Note_on_c, 0, 58, 53
1, 420123, Note_on_c, 0, 55, 40
1, 420165, Note_off_c, 0, 62, 57
1, 420168, Note_off_c, 0, 55, 59
1, 420169, Note_off_c, 0, 58, 61
1, 420178, Note_off_c, 0, 69, 66
1, 420180, Note_on_c, 0, 74, 90
1, 420207, Note_on_c, 0, 60, 63
1, 420216, Note_on_c, 0, 62, 52
1, 420216, Control_c, 0, 64, 90
1, 420231, Control_c, 0, 64, 79
1, 420246, Control_c, 0, 64, 75
1, 420261, Note_off_c, 0, 62, 0
1, 420261, Control_c, 0, 64, 76
1, 420276, Control_c, 0, 64, 82
1, 420281, Note_on_c, 0, 62, 47
1, 420289, Note_on_c, 0, 55, 55
1, 420291, Control_c, 0, 64, 102
1, 420292, Note_on_c, 0, 58, 53
1, 420294, Note_off_c, 0, 60, 30
1, 420306, Control_c, 0, 64, 127
1, 420347, Note_off_c, 0, 58, 63
1, 420350, Note_off_c, 0, 55, 58
1, 420353, Note_on_c, 0, 60, 46
1, 420361, Note_off_c, 0, 62, 0
1, 420361, Note_on_c, 0, 62, 49
1, 420390, Note_off_c, 0, 62, 65
1, 420393, Note_off_c, 0, 60, 64
1, 420409, Control_c, 0, 67, 8
1, 420410, Note_off_c, 0, 74, 63
1, 420424, Control_c, 0, 67, 8
1, 420438, Control_c, 0, 67, 9
1, 420453, Control_c, 0, 67, 9
1, 420462, Note_on_c, 0, 62, 47
1, 420468, Control_c, 0, 67, 11
1, 420475, Note_on_c, 0, 55, 40
1, 420476, Note_on_c, 0, 58, 44
1, 420490, Control_c, 0, 67, 13
1, 420496, Note_off_c, 0, 62, 54
1, 420505, Control_c, 0, 67, 16
1, 420510, Note_off_c, 0, 58, 58
1, 420511, Note_off_c, 0, 55, 57
1, 420520, Control_c, 0, 64, 83
1, 420520, Control_c, 0, 67, 19
1, 420532, Note_on_c, 0, 74, 81
1, 420535, Control_c, 0, 64, 65
1, 420535, Control_c, 0, 67, 23
1, 420550, Control_c, 0, 64, 48
1, 420550, Control_c, 0, 67, 26
1, 420551, Note_on_c, 0, 60, 61
1, 420564, Control_c, 0, 64, 0
1, 420564, Control_c, 0, 67, 28
1, 420579, Control_c, 0, 67, 29
1, 420583, Note_off_c, 0, 60, 61
1, 420625, Note_on_c, 0, 62, 55
1, 420632, Note_on_c, 0, 55, 46
1, 420633, Note_on_c, 0, 58, 40
1, 420653, Control_c, 0, 67, 29
1, 420668, Control_c, 0, 67, 28
1, 420683, Control_c, 0, 64, 23
1, 420684, Note_off_c, 0, 62, 57
1, 420688, Note_off_c, 0, 58, 59
1, 420689, Note_off_c, 0, 55, 56
1, 420698, Control_c, 0, 64, 48
1, 420712, Control_c, 0, 64, 50
1, 420721, Note_on_c, 0, 60, 41
1, 420727, Control_c, 0, 67, 28
1, 420742, Control_c, 0, 64, 49
1, 420742, Control_c, 0, 67, 27
1, 420752, Note_off_c, 0, 60, 52
1, 420756, Control_c, 0, 64, 40
1, 420771, Control_c, 0, 64, 0
1, 420786, Control_c, 0, 67, 28
1, 420796, Note_on_c, 0, 62, 53
1, 420806, Note_on_c, 0, 55, 48
1, 420811, Note_on_c, 0, 58, 48
1, 420818, Control_c, 0, 67, 27
1, 420842, Note_off_c, 0, 62, 47
1, 420842, Note_off_c, 0, 58, 61
1, 420845, Note_off_c, 0, 55, 59
1, 420862, Control_c, 0, 67, 27
1, 420877, Control_c, 0, 67, 26
1, 420881, Note_on_c, 0, 72, 85
1, 420895, Note_on_c, 0, 62, 65
1, 420903, Note_on_c, 0, 60, 55
1, 420905, Note_off_c, 0, 74, 57
1, 420907, Control_c, 0, 67, 25
1, 420936, Control_c, 0, 64, 46
1, 420936, Control_c, 0, 67, 25
1, 420951, Control_c, 0, 64, 53
1, 420957, Note_off_c, 0, 60, 50
1, 420964, Note_on_c, 0, 55, 53
1, 420966, Control_c, 0, 64, 57
1, 420966, Control_c, 0, 67, 24
1, 420970, Note_on_c, 0, 58, 50
1, 420981, Control_c, 0, 64, 61
1, 420981, Control_c, 0, 67, 24
1, 420996, Control_c, 0, 64, 66
1, 421009, Note_off_c, 0, 55, 61
1, 421010, Control_c, 0, 64, 71
1, 421010, Control_c, 0, 67, 23
1, 421013, Note_off_c, 0, 58, 62
1, 421024, Note_off_c, 0, 62, 61
1, 421025, Control_c, 0, 64, 76
1, 421025, Control_c, 0, 67, 23
1, 421040, Control_c, 0, 64, 83
1, 421054, Control_c, 0, 64, 97
1, 421069, Control_c, 0, 64, 127
1, 421075, Note_on_c, 0, 60, 53
1, 421099, Note_off_c, 0, 60, 58
1, 421103, Note_off_c, 0, 72, 61
1, 421114, Control_c, 0, 67, 23
1, 421129, Control_c, 0, 67, 24
1, 421130, Note_on_c, 0, 62, 4
1, 421143, Note_on_c, 0, 55, 47
1, 421143, Note_on_c, 0, 58, 50
1, 421143, Control_c, 0, 67, 25
1, 421158, Control_c, 0, 67, 25
1, 421173, Control_c, 0, 67, 27
1, 421183, Note_off_c, 0, 58, 61
1, 421185, Note_off_c, 0, 55, 58
1, 421188, Control_c, 0, 67, 28
1, 421196, Note_off_c, 0, 62, 53
1, 421203, Control_c, 0, 67, 29
1, 421218, Control_c, 0, 67, 29
1, 421240, Control_c, 0, 64, 100
1, 421244, Note_on_c, 0, 72, 73
1, 421255, Control_c, 0, 64, 81
1, 421260, Note_on_c, 0, 60, 44
1, 421269, Control_c, 0, 64, 66
1, 421269, Control_c, 0, 67, 30
1, 421284, Control_c, 0, 64, 57
1, 421299, Control_c, 0, 64, 51
1, 421314, Control_c, 0, 64, 47
1, 421314, Control_c, 0, 67, 29
1, 421328, Note_on_c, 0, 62, 56
1, 421329, Control_c, 0, 64, 45
1, 421343, Note_on_c, 0, 58, 43
1, 421343, Control_c, 0, 64, 44
1, 421350, Note_on_c, 0, 55, 31
1, 421358, Control_c, 0, 64, 51
1, 421358, Control_c, 0, 67, 28
1, 421373, Control_c, 0, 64, 62
1, 421373, Control_c, 0, 67, 28
1, 421379, Note_off_c, 0, 60, 0
1, 421385, Note_off_c, 0, 58, 58
1, 421388, Control_c, 0, 64, 70
1, 421388, Control_c, 0, 67, 27
1, 421389, Note_off_c, 0, 55, 52
1, 421403, Control_c, 0, 64, 77
1, 421403, Control_c, 0, 67, 26
1, 421403, Note_on_c, 0, 60, 4
1, 421409, Note_on_c, 0, 69, 73
1, 421414, Note_off_c, 0, 62, 37
1, 421418, Control_c, 0, 64, 81
1, 421422, Note_off_c, 0, 72, 53
1, 421432, Control_c, 0, 64, 87
1, 421432, Control_c, 0, 67, 26
1, 421447, Control_c, 0, 64, 100
1, 421457, Note_off_c, 0, 60, 53
1, 421462, Control_c, 0, 64, 127
1, 421482, Note_off_c, 0, 69, 64
1, 421496, Note_on_c, 0, 62, 46
1, 421499, Note_on_c, 0, 58, 49
1, 421500, Note_on_c, 0, 55, 41
1, 421537, Note_off_c, 0, 58, 63
1, 421537, Note_off_c, 0, 62, 49
1, 421538, Note_off_c, 0, 55, 61
1, 421551, Control_c, 0, 67, 27
1, 421566, Control_c, 0, 67, 28
1, 421581, Control_c, 0, 64, 97
1, 421588, Note_on_c, 0, 74, 76
1, 421595, Control_c, 0, 64, 77
1, 421605, Note_on_c, 0, 62, 49
1, 421611, Control_c, 0, 64, 65
1, 421620, Note_on_c, 0, 60, 40
1, 421626, Control_c, 0, 64, 58
1, 421626, Control_c, 0, 67, 28
1, 421641, Control_c, 0, 64, 57
1, 421656, Control_c, 0, 64, 63
1, 421660, Note_off_c, 0, 62, 0
1, 421660, Note_on_c, 0, 62, 30
1, 421661, Note_off_c, 0, 60, 46
1, 421669, Note_on_c, 0, 55, 43
1, 421670, Note_on_c, 0, 58, 45
1, 421671, Control_c, 0, 64, 71
1, 421685, Control_c, 0, 64, 86
1, 421700, Control_c, 0, 64, 127
1, 421700, Control_c, 0, 67, 28
1, 421724, Note_off_c, 0, 58, 57
1, 421726, Note_off_c, 0, 55, 52
1, 421730, Control_c, 0, 67, 27
1, 421736, Note_off_c, 0, 62, 52
1, 421745, Control_c, 0, 67, 27
1, 421762, Note_on_c, 0, 60, 63
1, 421787, Note_off_c, 0, 74, 63
1, 421790, Note_off_c, 0, 60, 53
1, 421790, Note_on_c, 0, 62, 19
1, 421833, Control_c, 0, 67, 27
1, 421841, Note_on_c, 0, 58, 49
1, 421844, Note_on_c, 0, 55, 56
1, 421848, Control_c, 0, 67, 28
1, 421863, Control_c, 0, 67, 29
1, 421882, Note_off_c, 0, 55, 61
1, 421884, Note_off_c, 0, 58, 62
1, 421909, Note_off_c, 0, 62, 48
1, 421922, Control_c, 0, 67, 30
1, 421935, Note_on_c, 0, 74, 76
1, 421937, Control_c, 0, 64, 90
1, 421937, Control_c, 0, 67, 30
1, 421952, Control_c, 0, 64, 75
1, 421954, Note_on_c, 0, 60, 48
1, 421966, Control_c, 0, 64, 65
1, 421986, Note_off_c, 0, 60, 57
1, 421989, Control_c, 0, 64, 61
1, 422004, Control_c, 0, 64, 60
1, 422011, Note_on_c, 0, 62, 56
1, 422018, Control_c, 0, 64, 61
1, 422018, Control_c, 0, 67, 30
1, 422029, Note_on_c, 0, 58, 38
1, 422033, Control_c, 0, 67, 29
1, 422036, Note_on_c, 0, 55, 34
1, 422048, Control_c, 0, 64, 59
1, 422058, Note_off_c, 0, 62, 46
1, 422061, Note_off_c, 0, 58, 58
1, 422063, Control_c, 0, 64, 54
1, 422069, Note_off_c, 0, 55, 54
1, 422078, Control_c, 0, 64, 47
1, 422078, Control_c, 0, 67, 29
1, 422092, Control_c, 0, 64, 37
1, 422092, Control_c, 0, 67, 28
1, 422097, Note_on_c, 0, 60, 56
1, 422107, Control_c, 0, 64, 0
1, 422107, Control_c, 0, 67, 27
1, 422141, Note_off_c, 0, 60, 64
1, 422166, Note_on_c, 0, 62, 55
1, 422166, Control_c, 0, 67, 26
1, 422169, Note_on_c, 0, 55, 46
1, 422173, Note_on_c, 0, 58, 43
1, 422181, Control_c, 0, 67, 25
1, 422196, Control_c, 0, 67, 23
1, 422210, Control_c, 0, 67, 23
1, 422214, Note_off_c, 0, 55, 60
1, 422214, Note_off_c, 0, 58, 60
1, 422234, Note_off_c, 0, 62, 44
1, 422255, Control_c, 0, 67, 22
1, 422270, Control_c, 0, 67, 22
1, 422285, Control_c, 0, 64, 29
1, 422285, Control_c, 0, 67, 20
1, 422287, Note_on_c, 0, 72, 77
1, 422289, Note_on_c, 0, 60, 53
1, 422294, Note_on_c, 0, 62, 70
1, 422300, Note_off_c, 0, 74, 62
1, 422300, Control_c, 0, 64, 34
1, 422314, Control_c, 0, 64, 20
1, 422329, Control_c, 0, 64, 0
1, 422330, Note_off_c, 0, 62, 64
1, 422331, Note_off_c, 0, 60, 62
1, 422372, Note_on_c, 0, 58, 49
1, 422379, Poly_aftertouch_c, 0, 62, 127
1, 422380, Note_on_c, 0, 55, 38
1, 422408, Poly_aftertouch_c, 0, 62, 0
1, 422409, Note_off_c, 0, 58, 60
1, 422411, Note_off_c, 0, 55, 57
1, 422433, Control_c, 0, 64, 12
1, 422448, Control_c, 0, 64, 23
1, 422463, Control_c, 0, 64, 16
1, 422466, Note_on_c, 0, 62, 56
1, 422467, Note_on_c, 0, 60, 54
1, 422478, Control_c, 0, 64, 0
1, 422491, Note_off_c, 0, 62, 59
1, 422494, Note_off_c, 0, 60, 56
1, 422551, Note_on_c, 0, 62, 47
1, 422562, Note_on_c, 0, 55, 15
1, 422563, Note_on_c, 0, 58, 17
1, 422567, Control_c, 0, 67, 21
1, 422579, Note_off_c, 0, 62, 57
1, 422581, Control_c, 0, 67, 22
1, 422592, Note_off_c, 0, 58, 50
1, 422609, Note_off_c, 0, 55, 41
1, 422621, Note_on_c, 0, 60, 64
1, 422640, Control_c, 0, 67, 22
1, 422656, Note_off_c, 0, 60, 64
1, 422690, Note_off_c, 0, 72, 60
1, 422703, Note_on_c, 0, 62, 43
1, 422707, Note_on_c, 0, 55, 45
1, 422708, Note_on_c, 0, 58, 42
1, 422751, Note_off_c, 0, 58, 63
1, 422751, Note_off_c, 0, 62, 54
1, 422752, Control_c, 0, 67, 23
1, 422753, Note_off_c, 0, 55, 61
1, 422787, Note_on_c, 0, 60, 66
1, 422796, Control_c, 0, 67, 22
1, 422811, Control_c, 0, 67, 22
1, 422822, Note_off_c, 0, 60, 60
1, 422826, Control_c, 0, 67, 21
1, 422840, Control_c, 0, 67, 19
1, 422855, Control_c, 0, 67, 17
1, 422866, Note_on_c, 0, 62, 45
1, 422870, Control_c, 0, 67, 11
1, 422885, Control_c, 0, 67, 0
1, 422903, Note_off_c, 0, 62, 52
1, 422908, Note_on_c, 0, 58, 3
1, 422947, Note_off_c, 0, 58, 33
1, 422954, Poly_aftertouch_c, 0, 55, 0
1, 422958, Note_on_c, 0, 70, 80
1, 422959, Control_c, 0, 64, 47
1, 422959, Note_on_c, 0, 72, 67
1, 422960, Note_on_c, 0, 67, 75
1, 422974, Control_c, 0, 64, 69
1, 422981, Note_on_c, 0, 62, 60
1, 422984, Note_on_c, 0, 60, 54
1, 422988, Control_c, 0, 64, 73
1, 422989, Note_off_c, 0, 72, 65
1, 422991, Note_off_c, 0, 67, 67
1, 423003, Control_c, 0, 64, 74
1, 423004, Note_off_c, 0, 62, 61
1, 423006, Note_off_c, 0, 70, 64
1, 423006, Note_off_c, 0, 60, 58
1, 423018, Control_c, 0, 64, 75
1, 423043, Note_on_c, 0, 55, 50
1, 423045, Note_on_c, 0, 62, 41
1, 423045, Note_on_c, 0, 58, 47
1, 423078, Note_off_c, 0, 58, 59
1, 423078, Control_c, 0, 64, 74
1, 423080, Note_off_c, 0, 55, 52
1, 423081, Note_off_c, 0, 62, 54
1, 423093, Control_c, 0, 64, 72
1, 423107, Control_c, 0, 64, 67
1, 423113, Note_on_c, 0, 70, 68
1, 423122, Control_c, 0, 64, 58
1, 423122, Control_c, 0, 67, 8
1, 423124, Note_on_c, 0, 69, 72
1, 423133, Note_off_c, 0, 70, 64
1, 423137, Note_on_c, 0, 65, 66
1, 423137, Control_c, 0, 64, 42
1, 423137, Control_c, 0, 67, 9
1, 423152, Control_c, 0, 64, 0
1, 423152, Control_c, 0, 67, 10
1, 423165, Note_off_c, 0, 69, 65
1, 423166, Control_c, 0, 67, 11
1, 423168, Note_off_c, 0, 65, 65
1, 423181, Control_c, 0, 67, 12
1, 423196, Control_c, 0, 67, 14
1, 423209, Note_on_c, 0, 55, 39
1, 423212, Note_on_c, 0, 62, 36
1, 423212, Control_c, 0, 67, 15
1, 423218, Note_on_c, 0, 58, 31
1, 423227, Control_c, 0, 67, 17
1, 423242, Control_c, 0, 67, 19
1, 423248, Note_off_c, 0, 62, 55
1, 423249, Note_off_c, 0, 58, 57
1, 423250, Note_off_c, 0, 55, 58
1, 423256, Control_c, 0, 67, 23
1, 423271, Control_c, 0, 67, 28
1, 423282, Note_on_c, 0, 69, 72
1, 423286, Note_on_c, 0, 67, 71
1, 423286, Control_c, 0, 67, 32
1, 423301, Note_on_c, 0, 60, 36
1, 423301, Control_c, 0, 67, 33
1, 423302, Note_on_c, 0, 64, 57
1, 423314, Note_off_c, 0, 69, 67
1, 423323, Note_off_c, 0, 67, 63
1, 423324, Note_off_c, 0, 64, 62
1, 423331, Note_off_c, 0, 60, 53
1, 423357, Note_on_c, 0, 62, 62
1, 423358, Note_on_c, 0, 55, 59
1, 423360, Control_c, 0, 67, 33
1, 423370, Note_on_c, 0, 58, 44
1, 423406, Note_off_c, 0, 58, 63
1, 423408, Note_off_c, 0, 62, 59
1, 423417, Note_off_c, 0, 55, 60
1, 423434, Control_c, 0, 67, 34
1, 423448, Note_on_c, 0, 67, 66
1, 423450, Note_on_c, 0, 62, 63
1, 423456, Note_on_c, 0, 65, 62
1, 423484, Note_off_c, 0, 62, 67
1, 423491, Note_off_c, 0, 67, 64
1, 423495, Note_off_c, 0, 65, 65
1, 423516, Control_c, 0, 67, 35
1, 423536, Note_on_c, 0, 55, 53
1, 423537, Note_on_c, 0, 62, 39
1, 423552, Note_on_c, 0, 58, 30
1, 423560, Control_c, 0, 67, 35
1, 423573, Note_off_c, 0, 62, 54
1, 423575, Control_c, 0, 67, 37
1, 423579, Note_off_c, 0, 55, 61
1, 423582, Note_off_c, 0, 58, 55
1, 423589, Control_c, 0, 67, 39
1, 423604, Control_c, 0, 67, 39
1, 423617, Note_on_c, 0, 65, 80
1, 423619, Control_c, 0, 64, 35
1, 423619, Control_c, 0, 67, 40
1, 423630, Note_on_c, 0, 64, 81
1, 423634, Control_c, 0, 64, 50
1, 423634, Control_c, 0, 67, 42
1, 423636, Note_on_c, 0, 62, 72
1, 423639, Note_on_c, 0, 60, 54
1, 423649, Control_c, 0, 64, 51
1, 423649, Control_c, 0, 67, 45
1, 423653, Note_off_c, 0, 65, 63
1, 423655, Note_off_c, 0, 62, 67
1, 423663, Note_off_c, 0, 60, 55
1, 423663, Control_c, 0, 64, 46
1, 423663, Control_c, 0, 67, 47
1, 423668, Note_off_c, 0, 64, 64
1, 423678, Control_c, 0, 64, 35
1, 423678, Control_c, 0, 67, 50
1, 423693, Note_on_c, 0, 55, 62
1, 423693, Control_c, 0, 64, 0
1, 423693, Control_c, 0, 67, 52
1, 423706, Note_on_c, 0, 58, 31
1, 423707, Note_on_c, 0, 62, 54
1, 423708, Control_c, 0, 67, 53
1, 423723, Control_c, 0, 67, 54
1, 423737, Control_c, 0, 67, 56
1, 423749, Note_off_c, 0, 58, 59
1, 423750, Note_off_c, 0, 62, 47
1, 423752, Control_c, 0, 67, 58
1, 423757, Note_off_c, 0, 55, 61
1, 423767, Control_c, 0, 67, 61
1, 423781, Control_c, 0, 67, 64
1, 423791, Note_on_c, 0, 65, 70
1, 423794, Note_on_c, 0, 64, 75
1, 423796, Note_on_c, 0, 62, 57
1, 423796, Control_c, 0, 67, 66
1, 423811, Note_off_c, 0, 65, 65
1, 423811, Control_c, 0, 67, 68
1, 423814, Note_on_c, 0, 60, 21
1, 423826, Note_off_c, 0, 62, 55
1, 423826, Control_c, 0, 67, 70
1, 423833, Note_off_c, 0, 64, 65
1, 423841, Control_c, 0, 67, 72
1, 423853, Note_off_c, 0, 60, 40
1, 423856, Control_c, 0, 67, 73
1, 423874, Note_on_c, 0, 58, 42
1, 423874, Note_on_c, 0, 62, 48
1, 423877, Note_on_c, 0, 55, 56
1, 423886, Control_c, 0, 67, 73
1, 423916, Note_off_c, 0, 62, 50
1, 423918, Note_off_c, 0, 58, 63
1, 423919, Note_off_c, 0, 55, 63
1, 423956, Note_on_c, 0, 60, 69
1, 423957, Note_on_c, 0, 65, 57
1, 423958, Note_on_c, 0, 64, 77
1, 423985, Note_off_c, 0, 65, 64
1, 423989, Control_c, 0, 67, 74
1, 423990, Note_off_c, 0, 60, 63
1, 423990, Note_off_c, 0, 64, 65
1, 424005, Control_c, 0, 67, 74
1, 424020, Control_c, 0, 67, 75
1, 424024, Note_on_c, 0, 62, 70
1, 424032, Note_on_c, 0, 55, 59
1, 424032, Note_on_c, 0, 58, 56
1, 424035, Control_c, 0, 67, 76
1, 424050, Control_c, 0, 67, 78
1, 424065, Control_c, 0, 67, 81
1, 424077, Note_off_c, 0, 62, 60
1, 424079, Control_c, 0, 67, 83
1, 424079, Note_off_c, 0, 58, 62
1, 424080, Note_off_c, 0, 55, 60
1, 424094, Control_c, 0, 67, 84
1, 424123, Note_on_c, 0, 60, 77
1, 424124, Note_on_c, 0, 65, 68
1, 424127, Note_on_c, 0, 64, 74
1, 424151, Note_off_c, 0, 60, 62
1, 424153, Control_c, 0, 67, 84
1, 424157, Note_off_c, 0, 65, 64
1, 424160, Note_off_c, 0, 64, 64
1, 424185, Note_on_c, 0, 62, 67
1, 424193, Note_on_c, 0, 55, 60
1, 424199, Note_on_c, 0, 58, 58
1, 424234, Control_c, 0, 67, 83
1, 424246, Note_off_c, 0, 58, 63
1, 424247, Note_off_c, 0, 62, 60
1, 424253, Note_off_c, 0, 55, 59
1, 424264, Control_c, 0, 67, 83
1, 424279, Control_c, 0, 64, 20
1, 424279, Control_c, 0, 67, 82
1, 424292, Note_on_c, 0, 62, 70
1, 424294, Control_c, 0, 64, 41
1, 424295, Note_on_c, 0, 60, 62
1, 424296, Note_on_c, 0, 65, 74
1, 424298, Note_on_c, 0, 67, 77
1, 424309, Control_c, 0, 64, 48
1, 424309, Control_c, 0, 67, 83
1, 424324, Control_c, 0, 64, 57
1, 424324, Control_c, 0, 67, 83
1, 424331, Note_off_c, 0, 67, 61
1, 424333, Note_off_c, 0, 60, 61
1, 424333, Note_off_c, 0, 62, 64
1, 424339, Control_c, 0, 64, 65
1, 424339, Control_c, 0, 67, 84
1, 424351, Note_off_c, 0, 65, 63
1, 424353, Control_c, 0, 64, 66
1, 424365, Note_on_c, 0, 55, 66
1, 424368, Control_c, 0, 64, 64
1, 424371, Note_on_c, 0, 58, 56
1, 424376, Note_on_c, 0, 62, 46
1, 424383, Control_c, 0, 64, 53
1, 424383, Control_c, 0, 67, 84
1, 424398, Control_c, 0, 64, 18
1, 424412, Note_off_c, 0, 58, 63
1, 424412, Note_off_c, 0, 62, 61
1, 424412, Control_c, 0, 64, 0
1, 424417, Note_off_c, 0, 55, 60
1, 424442, Control_c, 0, 67, 85
1, 424454, Note_on_c, 0, 65, 80
1, 424457, Control_c, 0, 67, 85
1, 424467, Note_on_c, 0, 62, 65
1, 424467, Note_on_c, 0, 60, 52
1, 424472, Control_c, 0, 67, 86
1, 424480, Note_on_c, 0, 67, 44
1, 424487, Note_off_c, 0, 62, 65
1, 424491, Note_off_c, 0, 60, 58
1, 424501, Control_c, 0, 67, 85
1, 424506, Note_off_c, 0, 65, 64
1, 424510, Note_off_c, 0, 67, 52
1, 424524, Note_on_c, 0, 62, 53
1, 424529, Note_on_c, 0, 55, 60
1, 424533, Note_on_c, 0, 58, 45
1, 424546, Control_c, 0, 67, 85
1, 424561, Control_c, 0, 67, 84
1, 424573, Note_off_c, 0, 55, 64
1, 424574, Note_off_c, 0, 58, 62
1, 424576, Note_off_c, 0, 62, 62
1, 424576, Control_c, 0, 67, 83
1, 424591, Control_c, 0, 67, 82
1, 424616, Note_on_c, 0, 67, 71
1, 424620, Control_c, 0, 64, 25
1, 424620, Control_c, 0, 67, 82
1, 424627, Note_on_c, 0, 60, 44
1, 424631, Note_on_c, 0, 69, 67
1, 424632, Note_on_c, 0, 64, 63
1, 424635, Control_c, 0, 64, 36
1, 424635, Control_c, 0, 67, 82
1, 424650, Control_c, 0, 64, 24
1, 424655, Note_off_c, 0, 64, 66
1, 424659, Note_off_c, 0, 69, 68
1, 424663, Note_off_c, 0, 60, 62
1, 424665, Control_c, 0, 64, 0
1, 424665, Control_c, 0, 67, 83
1, 424670, Note_off_c, 0, 67, 64
1, 424679, Control_c, 0, 67, 84
1, 424682, Note_on_c, 0, 62, 70
1, 424694, Note_on_c, 0, 55, 52
1, 424695, Note_on_c, 0, 58, 50
1, 424709, Control_c, 0, 67, 84
1, 424724, Control_c, 0, 67, 85
1, 424736, Note_off_c, 0, 58, 64
1, 424736, Note_off_c, 0, 62, 61
1, 424739, Control_c, 0, 67, 86
1, 424741, Note_off_c, 0, 55, 62
1, 424753, Control_c, 0, 67, 88
1, 424768, Control_c, 0, 67, 90
1, 424783, Control_c, 0, 67, 91
1, 424786, Note_on_c, 0, 70, 74
1, 424789, Note_on_c, 0, 69, 70
1, 424797, Note_on_c, 0, 60, 49
1, 424798, Control_c, 0, 67, 91
1, 424811, Note_on_c, 0, 65, 49
1, 424814, Control_c, 0, 67, 92
1, 424824, Note_off_c, 0, 60, 56
1, 424828, Control_c, 0, 67, 93
1, 424837, Note_off_c, 0, 65, 56
1, 424842, Note_off_c, 0, 70, 64
1, 424846, Note_off_c, 0, 69, 65
1, 424857, Note_on_c, 0, 55, 57
1, 424857, Note_on_c, 0, 62, 64
1, 424871, Note_on_c, 0, 58, 47
1, 424888, Control_c, 0, 67, 92
1, 424902, Control_c, 0, 67, 92
1, 424908, Note_off_c, 0, 62, 59
1, 424909, Note_off_c, 0, 58, 62
1, 424917, Control_c, 0, 67, 91
1, 424921, Note_off_c, 0, 55, 62
1, 424932, Control_c, 0, 67, 89
1, 424947, Control_c, 0, 67, 88
1, 424951, Note_on_c, 0, 72, 87
1, 424953, Note_on_c, 0, 67, 82
1, 424953, Note_on_c, 0, 70, 81
1, 424957, Note_on_c, 0, 62, 70
1, 424962, Control_c, 0, 67, 87
1, 424964, Note_on_c, 0, 60, 63
1, 424984, Control_c, 0, 64, 31
1, 424984, Control_c, 0, 67, 85
1, 424999, Control_c, 0, 64, 54
1, 425012, Note_off_c, 0, 62, 0
1, 425013, Note_off_c, 0, 60, 57
1, 425014, Note_off_c, 0, 72, 61
1, 425014, Control_c, 0, 64, 62
1, 425014, Control_c, 0, 67, 85
1, 425021, Note_off_c, 0, 67, 62
1, 425029, Control_c, 0, 64, 65
1, 425032, Note_off_c, 0, 70, 64
1, 425041, Note_on_c, 0, 55, 69
1, 425043, Control_c, 0, 64, 70
1, 425045, Note_on_c, 0, 58, 47
1, 425048, Poly_aftertouch_c, 0, 62, 127
1, 425058, Control_c, 0, 64, 78
1, 425073, Control_c, 0, 64, 92
1, 425073, Control_c, 0, 67, 86
1, 425088, Control_c, 0, 64, 116
1, 425088, Control_c, 0, 67, 86
1, 425090, Poly_aftertouch_c, 0, 62, 0
1, 425090, Note_off_c, 0, 58, 61
1, 425093, Note_off_c, 0, 55, 61
1, 425103, Control_c, 0, 64, 127
1, 425103, Control_c, 0, 67, 87
1, 425117, Control_c, 0, 67, 88
1, 425122, Note_on_c, 0, 70, 82
1, 425123, Note_on_c, 0, 67, 75
1, 425128, Note_on_c, 0, 72, 65
1, 425129, Note_on_c, 0, 60, 58
1, 425132, Control_c, 0, 67, 90
1, 425147, Control_c, 0, 64, 114
1, 425147, Control_c, 0, 67, 90
1, 425153, Note_off_c, 0, 60, 58
1, 425153, Note_off_c, 0, 72, 63
1, 425161, Note_off_c, 0, 67, 64
1, 425162, Control_c, 0, 64, 102
1, 425175, Note_off_c, 0, 70, 64
1, 425177, Control_c, 0, 64, 89
1, 425177, Control_c, 0, 67, 91
1, 425185, Note_on_c, 0, 62, 55
1, 425191, Control_c, 0, 64, 76
1, 425191, Control_c, 0, 67, 92
1, 425201, Note_on_c, 0, 55, 61
1, 425201, Note_on_c, 0, 58, 56
1, 425206, Control_c, 0, 64, 64
1, 425206, Control_c, 0, 67, 93
1, 425221, Control_c, 0, 64, 49
1, 425221, Control_c, 0, 67, 94
1, 425236, Control_c, 0, 64, 30
1, 425236, Control_c, 0, 67, 94
1, 425244, Note_off_c, 0, 55, 61
1, 425245, Note_off_c, 0, 58, 63
1, 425247, Note_off_c, 0, 62, 62
1, 425251, Control_c, 0, 64, 0
1, 425251, Control_c, 0, 67, 95
1, 425266, Control_c, 0, 67, 98
1, 425281, Control_c, 0, 67, 100
1, 425281, Note_on_c, 0, 70, 75
1, 425295, Note_on_c, 0, 60, 20
1, 425296, Control_c, 0, 67, 102
1, 425296, Note_on_c, 0, 69, 74
1, 425306, Note_on_c, 0, 65, 61
1, 425310, Control_c, 0, 67, 102
1, 425314, Note_off_c, 0, 70, 65
1, 425332, Note_off_c, 0, 69, 66
1, 425335, Note_off_c, 0, 65, 65
1, 425337, Note_off_c, 0, 60, 45
1, 425354, Control_c, 0, 67, 103
1, 425358, Note_on_c, 0, 62, 64
1, 425361, Note_on_c, 0, 55, 52
1, 425362, Note_on_c, 0, 58, 52
1, 425369, Control_c, 0, 67, 103
1, 425384, Control_c, 0, 67, 104
1, 425410, Note_off_c, 0, 55, 62
1, 425410, Note_off_c, 0, 62, 61
1, 425412, Note_off_c, 0, 58, 62
1, 425448, Note_on_c, 0, 69, 72
1, 425454, Note_on_c, 0, 67, 77
1, 425460, Note_on_c, 0, 60, 49
1, 425466, Note_on_c, 0, 64, 57
1, 425480, Note_off_c, 0, 69, 67
1, 425486, Note_off_c, 0, 60, 58
1, 425488, Note_off_c, 0, 64, 65
1, 425500, Note_off_c, 0, 67, 62
1, 425517, Control_c, 0, 67, 103
1, 425522, Note_on_c, 0, 62, 67
1, 425526, Note_on_c, 0, 58, 56
1, 425531, Note_on_c, 0, 55, 56
1, 425532, Control_c, 0, 67, 103
1, 425546, Control_c, 0, 67, 102
1, 425561, Control_c, 0, 67, 101
1, 425573, Note_off_c, 0, 62, 60
1, 425576, Control_c, 0, 67, 100
1, 425579, Note_off_c, 0, 58, 62
1, 425579, Note_off_c, 0, 55, 60
1, 425591, Control_c, 0, 67, 99
1, 425607, Control_c, 0, 67, 98
1, 425615, Note_on_c, 0, 67, 79
1, 425620, Note_on_c, 0, 62, 72
1, 425621, Note_on_c, 0, 60, 65
1, 425621, Note_on_c, 0, 65, 91
1, 425622, Control_c, 0, 64, 36
1, 425622, Control_c, 0, 67, 96
1, 425637, Control_c, 0, 64, 56
1, 425644, Note_off_c, 0, 67, 66
1, 425651, Note_off_c, 0, 62, 68
1, 425651, Control_c, 0, 64, 63
1, 425653, Note_off_c, 0, 60, 64
1, 425666, Control_c, 0, 64, 68
1, 425666, Control_c, 0, 67, 97
1, 425668, Note_off_c, 0, 65, 65
1, 425681, Control_c, 0, 64, 76
1, 425681, Control_c, 0, 67, 99
1, 425696, Control_c, 0, 64, 82
1, 425696, Control_c, 0, 67, 101
1, 425701, Note_on_c, 0, 58, 64
1, 425701, Note_on_c, 0, 62, 71
1, 425707, Note_on_c, 0, 55, 59
1, 425711, Control_c, 0, 64, 83
1, 425711, Control_c, 0, 67, 102
1, 425733, Control_c, 0, 67, 103
1, 425745, Note_off_c, 0, 62, 49
1, 425748, Control_c, 0, 64, 80
1, 425748, Control_c, 0, 67, 103
1, 425749, Note_off_c, 0, 58, 64
1, 425752, Note_off_c, 0, 55, 63
1, 425763, Control_c, 0, 64, 71
1, 425763, Control_c, 0, 67, 105
1, 425778, Control_c, 0, 64, 63
1, 425778, Control_c, 0, 67, 106
1, 425793, Note_on_c, 0, 65, 68
1, 425793, Control_c, 0, 64, 53
1, 425793, Control_c, 0, 67, 109
1, 425797, Note_on_c, 0, 64, 83
1, 425805, Note_on_c, 0, 60, 49
1, 425807, Control_c, 0, 64, 44
1, 425807, Control_c, 0, 67, 111
1, 425819, Note_off_c, 0, 65, 65
1, 425822, Control_c, 0, 64, 27
1, 425822, Control_c, 0, 67, 112
1, 425825, Note_off_c, 0, 64, 67
1, 425829, Note_off_c, 0, 60, 56
1, 425837, Control_c, 0, 64, 0
1, 425837, Control_c, 0, 67, 112
1, 425852, Control_c, 0, 67, 113
1, 425860, Note_on_c, 0, 62, 58
1, 425864, Note_on_c, 0, 58, 58
1, 425866, Control_c, 0, 67, 115
1, 425874, Note_on_c, 0, 55, 47
1, 425881, Control_c, 0, 67, 117
1, 425896, Control_c, 0, 67, 119
1, 425916, Note_off_c, 0, 55, 62
1, 425917, Note_off_c, 0, 62, 61
1, 425918, Note_off_c, 0, 58, 61
1, 425954, Note_on_c, 0, 65, 54
1, 425955, Control_c, 0, 67, 119
1, 425957, Note_on_c, 0, 60, 62
1, 425966, Note_on_c, 0, 64, 79
1, 425983, Note_off_c, 0, 65, 65
1, 425993, Note_off_c, 0, 64, 68
1, 425995, Note_off_c, 0, 60, 64
1, 425999, Control_c, 0, 67, 118
1, 426014, Control_c, 0, 67, 118
1, 426029, Control_c, 0, 67, 117
1, 426036, Note_on_c, 0, 62, 64
1, 426039, Note_on_c, 0, 58, 58
1, 426044, Control_c, 0, 67, 116
1, 426046, Note_on_c, 0, 55, 48
1, 426058, Control_c, 0, 67, 116
1, 426073, Control_c, 0, 67, 115
1, 426083, Note_off_c, 0, 58, 63
1, 426086, Note_off_c, 0, 55, 63
1, 426086, Note_off_c, 0, 62, 60
1, 426103, Control_c, 0, 67, 116
1, 426115, Note_on_c, 0, 64, 78
1, 426118, Control_c, 0, 67, 116
1, 426120, Note_on_c, 0, 60, 72
1, 426121, Note_on_c, 0, 65, 71
1, 426132, Control_c, 0, 67, 117
1, 426145, Note_off_c, 0, 60, 64
1, 426146, Note_off_c, 0, 65, 67
1, 426147, Control_c, 0, 67, 116
1, 426151, Note_off_c, 0, 64, 65
1, 426162, Control_c, 0, 67, 116
1, 426176, Control_c, 0, 67, 115
1, 426191, Control_c, 0, 67, 114
1, 426200, Note_on_c, 0, 62, 70
1, 426206, Control_c, 0, 67, 112
1, 426208, Note_on_c, 0, 55, 55
1, 426208, Note_on_c, 0, 58, 58
1, 426221, Control_c, 0, 67, 110
1, 426236, Control_c, 0, 67, 107
1, 426250, Control_c, 0, 64, 49
1, 426250, Control_c, 0, 67, 104
1, 426261, Note_off_c, 0, 58, 61
1, 426262, Note_off_c, 0, 62, 61
1, 426265, Control_c, 0, 64, 63
1, 426265, Control_c, 0, 67, 101
1, 426267, Note_off_c, 0, 55, 57
1, 426280, Control_c, 0, 64, 72
1, 426280, Control_c, 0, 67, 98
1, 426288, Note_on_c, 0, 67, 88
1, 426290, Note_on_c, 0, 65, 75
1, 426292, Note_on_c, 0, 60, 71
1, 426294, Note_on_c, 0, 62, 61
1, 426295, Control_c, 0, 64, 85
1, 426295, Control_c, 0, 67, 95
1, 426310, Control_c, 0, 64, 107
1, 426310, Control_c, 0, 67, 93
1, 426321, Note_off_c, 0, 60, 65
1, 426323, Note_off_c, 0, 62, 67
1, 426324, Control_c, 0, 64, 127
1, 426324, Control_c, 0, 67, 91
1, 426331, Note_off_c, 0, 67, 59
1, 426339, Control_c, 0, 67, 91
1, 426341, Note_off_c, 0, 65, 64
1, 426354, Control_c, 0, 67, 89
1, 426369, Control_c, 0, 67, 85
1, 426378, Note_on_c, 0, 62, 72
1, 426381, Note_on_c, 0, 58, 57
1, 426383, Note_on_c, 0, 55, 64
1, 426384, Control_c, 0, 67, 79
1, 426399, Control_c, 0, 67, 73
1, 426414, Control_c, 0, 67, 67
1, 426429, Control_c, 0, 67, 63
1, 426437, Note_off_c, 0, 58, 60
1, 426437, Note_off_c, 0, 62, 62
1, 426444, Control_c, 0, 67, 57
1, 426450, Note_on_c, 0, 67, 90
1, 426450, Note_off_c, 0, 55, 58
1, 426452, Note_on_c, 0, 60, 78
1, 426454, Note_on_c, 0, 65, 85
1, 426459, Control_c, 0, 67, 50
1, 426465, Note_on_c, 0, 62, 48
1, 426481, Control_c, 0, 67, 42
1, 426491, Note_off_c, 0, 60, 64
1, 426496, Control_c, 0, 67, 33
1, 426497, Note_off_c, 0, 62, 60
1, 426501, Note_off_c, 0, 67, 62
1, 426507, Note_off_c, 0, 65, 60
1, 426511, Control_c, 0, 67, 21
1, 426526, Control_c, 0, 67, 9
1, 426541, Control_c, 0, 67, 0
1, 426615, Note_on_c, 0, 55, 45
1, 426619, Note_on_c, 0, 67, 96
1, 426620, Note_on_c, 0, 60, 85
1, 426623, Note_on_c, 0, 58, 74
1, 426623, Note_on_c, 0, 65, 84
1, 426625, Note_on_c, 0, 57, 76
1, 426649, Note_off_c, 0, 65, 67
1, 426657, Note_off_c, 0, 67, 62
1, 426674, Note_off_c, 0, 55, 60
1, 426709, Note_off_c, 0, 60, 54
1, 426749, Note_off_c, 0, 57, 0
1, 426754, Note_off_c, 0, 58, 0
1, 426776, Note_on_c, 0, 57, 9
1, 426780, Note_on_c, 0, 55, 67
1, 426788, Note_on_c, 0, 58, 6
1, 426802, Note_on_c, 0, 76, 74
1, 426803, Note_on_c, 0, 79, 78
1, 426830, Note_off_c, 0, 57, 51
1, 426836, Note_off_c, 0, 58, 61
1, 426851, Note_off_c, 0, 55, 63
1, 426853, Note_off_c, 0, 76, 53
1, 426860, Note_on_c, 0, 81, 75
1, 426875, Note_off_c, 0, 79, 48
1, 426905, Note_off_c, 0, 81, 65
1, 426957, Note_on_c, 0, 60, 84
1, 426962, Note_on_c, 0, 62, 92
1, 426966, Note_on_c, 0, 57, 71
1, 426970, Control_c, 0, 64, 83
1, 426973, Note_on_c, 0, 59, 77
1, 426974, Note_on_c, 0, 79, 82
1, 426974, Note_on_c, 0, 82, 77
1, 426977, Note_on_c, 0, 70, 87
1, 426980, Note_on_c, 0, 84, 71
1, 426985, Control_c, 0, 64, 49
1, 426999, Control_c, 0, 64, 0
1, 427003, Note_off_c, 0, 84, 57
1, 427014, Control_c, 0, 67, 9
1, 427029, Note_off_c, 0, 82, 65
1, 427029, Control_c, 0, 67, 15
1, 427031, Note_off_c, 0, 57, 62
1, 427033, Note_off_c, 0, 60, 61
1, 427034, Note_off_c, 0, 59, 65
1, 427037, Note_off_c, 0, 79, 64
1, 427038, Note_off_c, 0, 62, 64
1, 427044, Control_c, 0, 67, 20
1, 427059, Control_c, 0, 67, 20
1, 427072, Note_on_c, 0, 55, 77
1, 427073, Control_c, 0, 67, 21
1, 427088, Control_c, 0, 67, 21
1, 427103, Control_c, 0, 67, 23
1, 427118, Control_c, 0, 67, 27
1, 427129, Note_on_c, 0, 82, 74
1, 427133, Control_c, 0, 67, 31
1, 427141, Note_on_c, 0, 60, 56
1, 427143, Note_on_c, 0, 58, 82
1, 427144, Note_on_c, 0, 81, 65
1, 427147, Control_c, 0, 67, 33
1, 427148, Note_on_c, 0, 62, 70
1, 427154, Note_on_c, 0, 77, 64
1, 427157, Note_off_c, 0, 82, 63
1, 427162, Control_c, 0, 67, 35
1, 427177, Control_c, 0, 67, 37
1, 427180, Note_off_c, 0, 81, 64
1, 427184, Note_off_c, 0, 55, 60
1, 427184, Note_off_c, 0, 70, 17
1, 427186, Note_off_c, 0, 77, 66
1, 427193, Control_c, 0, 67, 41
1, 427203, Note_off_c, 0, 62, 64
1, 427206, Note_off_c, 0, 60, 62
1, 427208, Control_c, 0, 67, 43
1, 427214, Poly_aftertouch_c, 0, 57, 127
1, 427230, Control_c, 0, 67, 46
1, 427231, Note_on_c, 0, 55, 51
1, 427231, Note_off_c, 0, 58, 65
1, 427245, Poly_aftertouch_c, 0, 57, 0
1, 427245, Control_c, 0, 67, 48
1, 427304, Control_c, 0, 67, 49
1, 427313, Note_on_c, 0, 79, 85
1, 427319, Control_c, 0, 67, 49
1, 427320, Note_on_c, 0, 67, 80
1, 427324, Note_off_c, 0, 55, 64
1, 427325, Note_on_c, 0, 58, 78
1, 427325, Note_on_c, 0, 64, 70
1, 427326, Note_on_c, 0, 60, 69
1, 427326, Note_on_c, 0, 81, 72
1, 427334, Control_c, 0, 67, 50
1, 427335, Note_on_c, 0, 76, 67
1, 427341, Note_off_c, 0, 81, 68
1, 427343, Note_on_c, 0, 57, 52
1, 427345, Note_off_c, 0, 67, 67
1, 427360, Note_off_c, 0, 76, 67
1, 427364, Control_c, 0, 67, 49
1, 427364, Note_off_c, 0, 79, 66
1, 427369, Note_off_c, 0, 57, 58
1, 427372, Note_off_c, 0, 64, 63
1, 427375, Note_off_c, 0, 60, 59
1, 427378, Control_c, 0, 67, 50
1, 427393, Control_c, 0, 67, 51
1, 427394, Note_off_c, 0, 58, 59
1, 427422, Control_c, 0, 67, 52
1, 427423, Note_on_c, 0, 55, 72
1, 427437, Control_c, 0, 67, 52
1, 427467, Control_c, 0, 67, 53
1, 427482, Control_c, 0, 67, 55
1, 427492, Note_on_c, 0, 64, 67
1, 427492, Note_on_c, 0, 79, 66
1, 427493, Poly_aftertouch_c, 0, 57, 127
1, 427496, Note_off_c, 0, 55, 63
1, 427497, Control_c, 0, 67, 59
1, 427499, Note_on_c, 0, 77, 67
1, 427510, Note_on_c, 0, 58, 65
1, 427511, Control_c, 0, 67, 65
1, 427512, Note_on_c, 0, 74, 57
1, 427513, Note_on_c, 0, 60, 57
1, 427514, Note_off_c, 0, 79, 61
1, 427526, Control_c, 0, 67, 72
1, 427531, Note_off_c, 0, 77, 64
1, 427532, Note_off_c, 0, 74, 63
1, 427541, Note_off_c, 0, 64, 62
1, 427541, Control_c, 0, 67, 76
1, 427550, Note_off_c, 0, 60, 61
1, 427556, Control_c, 0, 67, 79
1, 427567, Note_off_c, 0, 58, 61
1, 427571, Control_c, 0, 67, 80
1, 427572, Poly_aftertouch_c, 0, 57, 0
1, 427585, Control_c, 0, 67, 81
1, 427599, Note_on_c, 0, 55, 65
1, 427630, Control_c, 0, 67, 81
1, 427645, Control_c, 0, 67, 80
1, 427657, Note_on_c, 0, 76, 76
1, 427658, Note_on_c, 0, 60, 71
1, 427659, Note_on_c, 0, 77, 74
1, 427660, Control_c, 0, 64, 45
1, 427660, Control_c, 0, 67, 81
1, 427661, Note_on_c, 0, 64, 76
1, 427665, Note_off_c, 0, 55, 63
1, 427667, Note_on_c, 0, 72, 73
1, 427670, Note_on_c, 0, 62, 73
1, 427671, Note_on_c, 0, 58, 76
1, 427674, Control_c, 0, 64, 43
1, 427674, Control_c, 0, 67, 82
1, 427689, Control_c, 0, 64, 25
1, 427689, Control_c, 0, 67, 85
1, 427697, Note_off_c, 0, 64, 64
1, 427700, Note_off_c, 0, 77, 60
1, 427701, Note_off_c, 0, 72, 63
1, 427704, Control_c, 0, 64, 0
1, 427704, Control_c, 0, 67, 89
1, 427714, Note_off_c, 0, 76, 64
1, 427715, Note_off_c, 0, 62, 63
1, 427719, Control_c, 0, 67, 90
1, 427725, Note_off_c, 0, 60, 62
1, 427734, Control_c, 0, 67, 91
1, 427742, Note_off_c, 0, 58, 64
1, 427749, Control_c, 0, 67, 90
1, 427755, Note_on_c, 0, 55, 71
1, 427764, Control_c, 0, 67, 90
1, 427793, Control_c, 0, 67, 90
1, 427800, Poly_aftertouch_c, 0, 57, 127
1, 427808, Control_c, 0, 67, 91
1, 427830, Note_on_c, 0, 62, 66
1, 427832, Note_off_c, 0, 55, 64
1, 427833, Note_on_c, 0, 76, 70
1, 427837, Control_c, 0, 67, 90
1, 427838, Note_on_c, 0, 60, 70
1, 427842, Note_on_c, 0, 58, 68
1, 427842, Note_on_c, 0, 77, 63
1, 427842, Poly_aftertouch_c, 0, 57, 0
1, 427850, Note_on_c, 0, 72, 62
1, 427867, Note_off_c, 0, 62, 65
1, 427867, Control_c, 0, 67, 91
1, 427871, Note_off_c, 0, 77, 67
1, 427875, Note_off_c, 0, 72, 64
1, 427879, Note_off_c, 0, 60, 62
1, 427879, Note_off_c, 0, 76, 63
1, 427906, Note_off_c, 0, 58, 64
1, 427911, Control_c, 0, 67, 90
1, 427921, Note_on_c, 0, 55, 63
1, 427926, Control_c, 0, 67, 88
1, 427941, Control_c, 0, 67, 87
1, 427955, Control_c, 0, 67, 87
1, 427978, Control_c, 0, 67, 86
1, 427993, Control_c, 0, 67, 84
1, 428004, Note_on_c, 0, 76, 82
1, 428005, Note_off_c, 0, 55, 64
1, 428008, Control_c, 0, 67, 81
1, 428011, Note_on_c, 0, 77, 71
1, 428011, Note_on_c, 0, 60, 65
1, 428012, Note_on_c, 0, 58, 75
1, 428014, Note_on_c, 0, 72, 65
1, 428021, Note_on_c, 0, 65, 65
1, 428023, Control_c, 0, 67, 78
1, 428038, Control_c, 0, 67, 77
1, 428041, Poly_aftertouch_c, 0, 57, 0
1, 428044, Note_off_c, 0, 77, 62
1, 428047, Note_off_c, 0, 72, 65
1, 428053, Control_c, 0, 67, 76
1, 428058, Note_off_c, 0, 76, 64
1, 428060, Note_off_c, 0, 60, 57
1, 428064, Note_off_c, 0, 65, 62
1, 428068, Control_c, 0, 67, 75
1, 428083, Control_c, 0, 67, 74
1, 428084, Note_off_c, 0, 58, 63
1, 428098, Control_c, 0, 67, 71
1, 428104, Note_on_c, 0, 55, 72
1, 428113, Control_c, 0, 67, 69
1, 428127, Control_c, 0, 67, 68
1, 428150, Note_on_c, 0, 57, 38
1, 428181, Note_on_c, 0, 76, 74
1, 428183, Note_on_c, 0, 65, 74
1, 428187, Note_on_c, 0, 77, 70
1, 428191, Note_off_c, 0, 55, 61
1, 428194, Note_on_c, 0, 60, 64
1, 428195, Note_on_c, 0, 72, 58
1, 428200, Note_on_c, 0, 58, 60
1, 428214, Note_off_c, 0, 72, 62
1, 428214, Note_off_c, 0, 77, 67
1, 428216, Note_off_c, 0, 57, 54
1, 428216, Control_c, 0, 67, 67
1, 428219, Note_off_c, 0, 76, 64
1, 428234, Note_off_c, 0, 65, 58
1, 428241, Note_off_c, 0, 60, 58
1, 428260, Control_c, 0, 67, 67
1, 428273, Note_off_c, 0, 58, 64
1, 428275, Control_c, 0, 67, 66
1, 428290, Control_c, 0, 67, 64
1, 428291, Note_on_c, 0, 55, 73
1, 428304, Control_c, 0, 67, 61
1, 428318, Control_c, 0, 64, 30
1, 428318, Control_c, 0, 67, 55
1, 428333, Control_c, 0, 64, 51
1, 428333, Control_c, 0, 67, 49
1, 428348, Control_c, 0, 64, 56
1, 428348, Control_c, 0, 67, 43
1, 428349, Note_on_c, 0, 79, 90
1, 428351, Note_on_c, 0, 77, 80
1, 428353, Note_on_c, 0, 74, 82
1, 428354, Note_on_c, 0, 65, 81
1, 428357, Note_on_c, 0, 60, 74
1, 428363, Control_c, 0, 64, 60
1, 428363, Control_c, 0, 67, 37
1, 428366, Note_on_c, 0, 58, 70
1, 428368, Note_on_c, 0, 62, 64
1, 428373, Note_off_c, 0, 55, 63
1, 428378, Control_c, 0, 64, 62
1, 428378, Control_c, 0, 67, 30
1, 428381, Note_off_c, 0, 65, 64
1, 428393, Control_c, 0, 67, 20
1, 428395, Note_off_c, 0, 79, 64
1, 428399, Note_off_c, 0, 74, 64
1, 428401, Note_off_c, 0, 62, 64
1, 428408, Note_off_c, 0, 77, 65
1, 428408, Control_c, 0, 64, 60
1, 428408, Control_c, 0, 67, 9
1, 428416, Note_off_c, 0, 60, 62
1, 428423, Control_c, 0, 64, 51
1, 428423, Control_c, 0, 67, 0
1, 428438, Control_c, 0, 64, 36
1, 428441, Note_off_c, 0, 58, 64
1, 428451, Note_on_c, 0, 55, 68
1, 428452, Control_c, 0, 64, 0
1, 428478, Poly_aftertouch_c, 0, 57, 127
1, 428515, Note_on_c, 0, 77, 78
1, 428520, Note_on_c, 0, 74, 69
1, 428520, Poly_aftertouch_c, 0, 57, 0
1, 428521, Note_on_c, 0, 65, 71
1, 428523, Note_on_c, 0, 60, 66
1, 428524, Note_on_c, 0, 62, 62
1, 428524, Note_on_c, 0, 79, 63
1, 428536, Note_off_c, 0, 55, 63
1, 428537, Note_on_c, 0, 58, 68
1, 428541, Note_off_c, 0, 65, 63
1, 428543, Note_off_c, 0, 79, 67
1, 428547, Note_off_c, 0, 74, 66
1, 428554, Note_off_c, 0, 62, 66
1, 428560, Note_off_c, 0, 77, 63
1, 428569, Note_off_c, 0, 60, 60
1, 428602, Note_off_c, 0, 58, 64
1, 428616, Note_on_c, 0, 55, 67
1, 428630, Control_c, 0, 64, 39
1, 428632, Note_on_c, 0, 57, 14
1, 428644, Control_c, 0, 64, 50
1, 428659, Control_c, 0, 64, 61
1, 428674, Control_c, 0, 64, 68
1, 428681, Note_on_c, 0, 64, 63
1, 428681, Note_on_c, 0, 81, 70
1, 428682, Note_on_c, 0, 79, 57
1, 428685, Note_on_c, 0, 67, 67
1, 428689, Note_on_c, 0, 76, 66
1, 428689, Control_c, 0, 64, 73
1, 428690, Note_on_c, 0, 60, 60
1, 428691, Note_off_c, 0, 55, 64
1, 428694, Note_on_c, 0, 58, 76
1, 428699, Note_off_c, 0, 81, 64
1, 428704, Control_c, 0, 64, 74
1, 428708, Note_off_c, 0, 67, 59
1, 428726, Control_c, 0, 64, 74
1, 428727, Note_off_c, 0, 64, 64
1, 428730, Note_off_c, 0, 76, 64
1, 428736, Note_off_c, 0, 79, 65
1, 428741, Control_c, 0, 64, 68
1, 428742, Note_off_c, 0, 60, 62
1, 428756, Control_c, 0, 64, 53
1, 428768, Note_off_c, 0, 58, 65
1, 428771, Control_c, 0, 64, 0
1, 428780, Note_on_c, 0, 55, 72
1, 428786, Note_off_c, 0, 57, 0
1, 428825, Poly_aftertouch_c, 0, 57, 127
1, 428849, Note_on_c, 0, 64, 66
1, 428852, Note_on_c, 0, 60, 70
1, 428854, Note_on_c, 0, 82, 70
1, 428855, Note_off_c, 0, 55, 64
1, 428855, Note_on_c, 0, 77, 61
1, 428858, Note_on_c, 0, 69, 55
1, 428863, Note_on_c, 0, 81, 52
1, 428864, Note_on_c, 0, 58, 71
1, 428882, Note_off_c, 0, 69, 58
1, 428884, Poly_aftertouch_c, 0, 57, 0
1, 428893, Note_off_c, 0, 64, 65
1, 428897, Note_off_c, 0, 77, 66
1, 428904, Note_off_c, 0, 82, 63
1, 428906, Note_off_c, 0, 81, 66
1, 428910, Note_off_c, 0, 60, 62
1, 428920, Control_c, 0, 67, 8
1, 428934, Note_off_c, 0, 58, 65
1, 428935, Control_c, 0, 67, 9
1, 428944, Note_on_c, 0, 55, 72
1, 428979, Control_c, 0, 67, 8
1, 429008, Control_c, 0, 67, 0
1, 429019, Note_on_c, 0, 60, 78
1, 429022, Note_on_c, 0, 84, 86
1, 429023, Note_on_c, 0, 70, 85
1, 429023, Note_off_c, 0, 55, 64
1, 429025, Note_on_c, 0, 58, 76
1, 429025, Note_on_c, 0, 82, 80
1, 429031, Note_on_c, 0, 79, 80
1, 429031, Note_on_c, 0, 62, 69
1, 429038, Control_c, 0, 64, 48
1, 429053, Control_c, 0, 64, 65
1, 429067, Control_c, 0, 64, 77
1, 429072, Note_off_c, 0, 62, 64
1, 429081, Note_off_c, 0, 70, 64
1, 429082, Control_c, 0, 64, 111
1, 429087, Note_off_c, 0, 60, 62
1, 429093, Note_off_c, 0, 84, 64
1, 429097, Control_c, 0, 64, 127
1, 429105, Note_off_c, 0, 58, 64
1, 429107, Note_off_c, 0, 79, 65
1, 429111, Note_off_c, 0, 82, 64
1, 429118, Note_on_c, 0, 55, 75
1, 429125, Note_on_c, 0, 57, 39
1, 429186, Note_off_c, 0, 57, 57
1, 429187, Note_on_c, 0, 84, 75
1, 429190, Note_on_c, 0, 62, 66
1, 429192, Note_on_c, 0, 70, 62
1, 429192, Note_on_c, 0, 82, 71
1, 429192, Note_off_c, 0, 55, 64
1, 429199, Note_on_c, 0, 60, 70
1, 429201, Control_c, 0, 64, 77
1, 429201, Control_c, 0, 67, 8
1, 429206, Note_on_c, 0, 79, 73
1, 429213, Note_on_c, 0, 58, 65
1, 429216, Control_c, 0, 64, 54
1, 429216, Control_c, 0, 67, 10
1, 429221, Note_off_c, 0, 62, 64
1, 429227, Note_off_c, 0, 70, 65
1, 429230, Control_c, 0, 64, 0
1, 429230, Control_c, 0, 67, 12
1, 429231, Note_off_c, 0, 84, 63
1, 429240, Note_off_c, 0, 60, 63
1, 429241, Note_off_c, 0, 79, 64
1, 429245, Control_c, 0, 67, 12
1, 429257, Note_off_c, 0, 82, 64
1, 429269, Note_off_c, 0, 58, 61
1, 429291, Note_on_c, 0, 55, 68
1, 429305, Control_c, 0, 67, 13
1, 429349, Control_c, 0, 67, 13
1, 429353, Note_on_c, 0, 82, 79
1, 429357, Note_off_c, 0, 55, 63
1, 429364, Control_c, 0, 67, 12
1, 429365, Note_on_c, 0, 81, 80
1, 429379, Note_on_c, 0, 58, 64
1, 429379, Note_on_c, 0, 60, 53
1, 429379, Control_c, 0, 67, 12
1, 429382, Note_on_c, 0, 65, 62
1, 429386, Note_on_c, 0, 77, 64
1, 429393, Control_c, 0, 67, 11
1, 429400, Note_off_c, 0, 82, 65
1, 429408, Control_c, 0, 67, 10
1, 429413, Note_off_c, 0, 60, 63
1, 429413, Note_off_c, 0, 65, 65
1, 429415, Note_off_c, 0, 58, 64
1, 429415, Note_off_c, 0, 77, 68
1, 429418, Note_off_c, 0, 81, 66
1, 429423, Control_c, 0, 67, 9
1, 429478, Note_on_c, 0, 55, 72
1, 429490, Control_c, 0, 67, 8
1, 429505, Control_c, 0, 67, 8
1, 429520, Control_c, 0, 67, 0
1, 429535, Note_on_c, 0, 65, 58
1, 429538, Note_on_c, 0, 79, 80
1, 429540, Note_off_c, 0, 55, 63
1, 429543, Note_on_c, 0, 60, 50
1, 429543, Note_on_c, 0, 76, 78
1, 429545, Note_on_c, 0, 81, 63
1, 429554, Note_on_c, 0, 58, 45
1, 429572, Note_off_c, 0, 81, 67
1, 429575, Note_off_c, 0, 76, 64
1, 429576, Note_off_c, 0, 65, 62
1, 429588, Note_off_c, 0, 79, 66
1, 429592, Note_off_c, 0, 60, 60
1, 429618, Note_off_c, 0, 58, 63
1, 429632, Note_on_c, 0, 55, 68
1, 429698, Control_c, 0, 64, 25
1, 429704, Note_off_c, 0, 55, 59
1, 429712, Note_on_c, 0, 60, 64
1, 429713, Control_c, 0, 64, 59
1, 429713, Note_on_c, 0, 77, 87
1, 429714, Note_on_c, 0, 62, 64
1, 429716, Note_on_c, 0, 79, 82
1, 429720, Note_on_c, 0, 65, 84
1, 429723, Note_on_c, 0, 74, 76
1, 429728, Control_c, 0, 64, 66
1, 429733, Note_on_c, 0, 58, 64
1, 429743, Control_c, 0, 64, 70
1, 429750, Note_off_c, 0, 62, 66
1, 429754, Note_off_c, 0, 65, 61
1, 429756, Note_off_c, 0, 79, 63
1, 429758, Control_c, 0, 64, 76
1, 429766, Note_off_c, 0, 60, 59
1, 429772, Control_c, 0, 64, 87
1, 429778, Note_off_c, 0, 74, 64
1, 429779, Poly_aftertouch_c, 0, 57, 127
1, 429781, Note_off_c, 0, 77, 65
1, 429787, Control_c, 0, 64, 113
1, 429798, Note_off_c, 0, 58, 59
1, 429802, Control_c, 0, 64, 127
1, 429814, Note_on_c, 0, 55, 73
1, 429861, Control_c, 0, 64, 100
1, 429876, Control_c, 0, 64, 71
1, 429878, Note_on_c, 0, 62, 67
1, 429887, Note_off_c, 0, 55, 63
1, 429888, Note_on_c, 0, 60, 66
1, 429888, Note_on_c, 0, 76, 77
1, 429890, Control_c, 0, 64, 36
1, 429892, Note_on_c, 0, 64, 68
1, 429895, Note_on_c, 0, 77, 68
1, 429900, Note_on_c, 0, 72, 67
1, 429905, Control_c, 0, 64, 0
1, 429906, Note_on_c, 0, 58, 63
1, 429912, Note_off_c, 0, 64, 67
1, 429918, Note_off_c, 0, 62, 64
1, 429922, Poly_aftertouch_c, 0, 57, 0
1, 429926, Note_off_c, 0, 77, 67
1, 429927, Note_off_c, 0, 72, 65
1, 429937, Note_off_c, 0, 60, 60
1, 429942, Note_off_c, 0, 76, 64
1, 429952, Note_off_c, 0, 58, 62
1, 429987, Note_on_c, 0, 55, 71
1, 430057, Note_off_c, 0, 55, 63
1, 430062, Note_on_c, 0, 76, 80
1, 430062, Note_on_c, 0, 60, 62
1, 430063, Note_on_c, 0, 64, 45
1, 430065, Note_on_c, 0, 58, 62
1, 430069, Note_on_c, 0, 72, 69
1, 430070, Note_on_c, 0, 77, 70
1, 430101, Note_off_c, 0, 77, 64
1, 430103, Note_off_c, 0, 60, 64
1, 430106, Note_off_c, 0, 64, 65
1, 430106, Note_off_c, 0, 72, 64
1, 430115, Note_off_c, 0, 76, 64
1, 430131, Note_off_c, 0, 58, 63
1, 430156, Note_on_c, 0, 55, 63
1, 430229, Note_on_c, 0, 64, 57
1, 430229, Note_off_c, 0, 55, 62
1, 430232, Note_on_c, 0, 60, 64
1, 430237, Note_on_c, 0, 76, 77
1, 430244, Note_on_c, 0, 72, 72
1, 430244, Note_on_c, 0, 77, 73
1, 430249, Note_on_c, 0, 58, 58
1, 430273, Note_off_c, 0, 77, 65
1, 430275, Note_off_c, 0, 64, 65
1, 430277, Note_off_c, 0, 72, 65
1, 430277, Note_off_c, 0, 60, 62
1, 430288, Note_off_c, 0, 76, 64
1, 430309, Note_off_c, 0, 58, 63
1, 430324, Note_on_c, 0, 55, 68
1, 430357, Control_c, 0, 64, 42
1, 430372, Control_c, 0, 64, 62
1, 430387, Control_c, 0, 64, 66
1, 430399, Note_off_c, 0, 55, 62
1, 430401, Note_on_c, 0, 60, 72
1, 430402, Control_c, 0, 64, 70
1, 430405, Note_on_c, 0, 77, 80
1, 430411, Note_on_c, 0, 62, 72
1, 430411, Note_on_c, 0, 79, 83
1, 430413, Note_on_c, 0, 65, 85
1, 430414, Note_on_c, 0, 74, 80
1, 430417, Note_on_c, 0, 58, 67
1, 430417, Control_c, 0, 64, 77
1, 430432, Control_c, 0, 64, 86
1, 430446, Note_off_c, 0, 65, 59
1, 430447, Control_c, 0, 64, 99
1, 430452, Note_off_c, 0, 62, 64
1, 430454, Note_off_c, 0, 79, 61
1, 430460, Note_off_c, 0, 60, 62
1, 430462, Control_c, 0, 64, 114
1, 430465, Note_off_c, 0, 74, 63
1, 430476, Note_off_c, 0, 77, 66
1, 430476, Control_c, 0, 64, 127
1, 430481, Note_off_c, 0, 58, 63
1, 430500, Note_on_c, 0, 55, 75
1, 430569, Note_on_c, 0, 62, 75
1, 430573, Note_on_c, 0, 77, 89
1, 430576, Note_on_c, 0, 60, 71
1, 430579, Note_on_c, 0, 65, 83
1, 430581, Note_on_c, 0, 74, 74
1, 430583, Note_off_c, 0, 55, 62
1, 430584, Note_on_c, 0, 79, 78
1, 430593, Note_on_c, 0, 58, 69
1, 430606, Note_off_c, 0, 65, 61
1, 430614, Note_off_c, 0, 74, 61
1, 430615, Note_off_c, 0, 79, 64
1, 430618, Note_off_c, 0, 62, 64
1, 430632, Note_off_c, 0, 60, 61
1, 430637, Note_off_c, 0, 77, 62
1, 430657, Note_off_c, 0, 58, 63
1, 430676, Note_on_c, 0, 55, 76
1, 430750, Note_off_c, 0, 55, 63
1, 430752, Note_on_c, 0, 74, 83
1, 430753, Note_on_c, 0, 77, 82
1, 430753, Note_on_c, 0, 79, 80
1, 430755, Note_on_c, 0, 60, 74
1, 430758, Note_on_c, 0, 58, 77
1, 430762, Note_on_c, 0, 65, 80
1, 430776, Note_off_c, 0, 74, 69
1, 430793, Note_off_c, 0, 77, 64
1, 430794, Note_off_c, 0, 79, 66
1, 430803, Note_off_c, 0, 60, 60
1, 430808, Note_off_c, 0, 65, 60
1, 430826, Note_off_c, 0, 58, 62
1, 430842, Note_on_c, 0, 55, 78
1, 430915, Note_on_c, 0, 57, 22
1, 430918, Note_on_c, 0, 76, 65
1, 430921, Note_on_c, 0, 79, 59
1, 430934, Note_off_c, 0, 55, 63
1, 430939, Note_on_c, 0, 60, 67
1, 430944, Note_on_c, 0, 58, 67
1, 430960, Note_off_c, 0, 57, 46
1, 430972, Note_on_c, 0, 65, 39
1, 430983, Note_off_c, 0, 79, 43
1, 430983, Note_off_c, 0, 76, 52
1, 430988, Note_on_c, 0, 81, 80
1, 430992, Note_off_c, 0, 60, 60
1, 430995, Note_off_c, 0, 58, 64
1, 431001, Note_off_c, 0, 65, 54
1, 431018, Note_off_c, 0, 81, 64
1, 431041, Note_on_c, 0, 55, 65
1, 431091, Control_c, 0, 64, 113
1, 431092, Note_on_c, 0, 60, 90
1, 431094, Note_on_c, 0, 58, 78
1, 431095, Note_on_c, 0, 72, 99
1, 431096, Note_on_c, 0, 79, 88
1, 431101, Note_on_c, 0, 62, 85
1, 431105, Note_on_c, 0, 82, 85
1, 431105, Note_off_c, 0, 55, 60
1, 431106, Control_c, 0, 64, 66
1, 431108, Note_on_c, 0, 57, 63
1, 431113, Note_on_c, 0, 84, 63
1, 431117, Note_on_c, 0, 83, 66
1, 431120, Control_c, 0, 64, 24
1, 431131, Note_off_c, 0, 84, 63
1, 431135, Control_c, 0, 64, 0
1, 431137, Note_off_c, 0, 83, 60
1, 431156, Note_off_c, 0, 57, 60
1, 431165, Note_off_c, 0, 82, 65
1, 431165, Control_c, 0, 67, 10
1, 431166, Note_off_c, 0, 79, 66
1, 431167, Note_off_c, 0, 62, 64
1, 431172, Note_off_c, 0, 60, 61
1, 431180, Control_c, 0, 67, 13
1, 431196, Control_c, 0, 67, 16
1, 431207, Note_on_c, 0, 55, 86
1, 431210, Note_off_c, 0, 58, 65
1, 431211, Control_c, 0, 67, 17
1, 431240, Control_c, 0, 67, 18
1, 431255, Control_c, 0, 67, 18
1, 431256, Note_on_c, 0, 57, 5
1, 431269, Control_c, 0, 67, 19
1, 431276, Note_on_c, 0, 82, 60
1, 431284, Control_c, 0, 67, 19
1, 431287, Note_on_c, 0, 62, 69
1, 431293, Note_on_c, 0, 60, 60
1, 431296, Note_off_c, 0, 55, 64
1, 431297, Note_on_c, 0, 81, 55
1, 431304, Note_on_c, 0, 77, 61
1, 431305, Note_on_c, 0, 58, 67
1, 431316, Note_off_c, 0, 82, 59
1, 431324, Note_off_c, 0, 62, 65
1, 431329, Note_off_c, 0, 81, 67
1, 431330, Control_c, 0, 67, 19
1, 431335, Note_off_c, 0, 60, 62
1, 431335, Note_off_c, 0, 77, 66
1, 431344, Control_c, 0, 67, 18
1, 431359, Control_c, 0, 67, 16
1, 431361, Note_on_c, 0, 55, 66
1, 431372, Note_off_c, 0, 58, 62
1, 431374, Control_c, 0, 64, 32
1, 431374, Control_c, 0, 67, 14
1, 431389, Control_c, 0, 64, 52
1, 431389, Control_c, 0, 67, 12
1, 431401, Note_off_c, 0, 57, 47
1, 431404, Control_c, 0, 64, 60
1, 431404, Control_c, 0, 67, 10
1, 431418, Control_c, 0, 64, 66
1, 431418, Control_c, 0, 67, 0
1, 431433, Control_c, 0, 64, 72
1, 431443, Note_on_c, 0, 62, 59
1, 431448, Control_c, 0, 64, 83
1, 431449, Note_on_c, 0, 60, 56
1, 431449, Note_off_c, 0, 55, 63
1, 431452, Note_on_c, 0, 79, 72
1, 431460, Note_on_c, 0, 58, 64
1, 431460, Note_on_c, 0, 76, 67
1, 431463, Control_c, 0, 64, 122
1, 431478, Control_c, 0, 64, 127
1, 431483, Note_off_c, 0, 62, 58
1, 431484, Note_on_c, 0, 81, 41
1, 431487, Note_off_c, 0, 76, 67
1, 431487, Note_off_c, 0, 72, 60
1, 431491, Note_off_c, 0, 60, 60
1, 431493, Note_off_c, 0, 79, 62
1, 431504, Note_off_c, 0, 58, 61
1, 431516, Note_off_c, 0, 81, 47
1, 431540, Note_on_c, 0, 55, 61
1, 431614, Note_off_c, 0, 55, 60
1, 431634, Note_on_c, 0, 69, 95
1, 431640, Note_on_c, 0, 60, 54
1, 431642, Note_on_c, 0, 77, 77
1, 431647, Note_on_c, 0, 79, 73
1, 431651, Note_on_c, 0, 74, 65
1, 431652, Note_on_c, 0, 58, 55
1, 431657, Note_on_c, 0, 62, 40
1, 431669, Note_off_c, 0, 74, 67
1, 431671, Note_off_c, 0, 79, 68
1, 431684, Note_off_c, 0, 60, 59
1, 431684, Note_off_c, 0, 62, 57
1, 431687, Note_off_c, 0, 77, 64
1, 431704, Note_off_c, 0, 69, 65
1, 431719, Note_off_c, 0, 58, 57
1, 431744, Note_on_c, 0, 55, 64
1, 431841, Note_off_c, 0, 55, 40
1, 431857, Note_on_c, 0, 70, 100
1, 431869, Note_on_c, 0, 62, 45
1, 431869, Note_on_c, 0, 58, 48
1, 431869, Note_on_c, 0, 60, 59
1, 431869, Note_on_c, 0, 76, 75
1, 431872, Note_on_c, 0, 77, 76
1, 431904, Note_off_c, 0, 62, 53
1, 431906, Note_off_c, 0, 77, 58
1, 431907, Note_off_c, 0, 60, 59
1, 431927, Note_off_c, 0, 58, 54
1, 431949, Note_off_c, 0, 76, 51
1, 431970, Note_on_c, 0, 55, 65
1, 432033, Note_off_c, 0, 55, 62
1, 432051, Note_on_c, 0, 58, 55
1, 432051, Note_on_c, 0, 60, 56
1, 432055, Note_on_c, 0, 62, 45
1, 432057, Note_on_c, 0, 76, 56
1, 432087, Note_off_c, 0, 60, 62
1, 432088, Note_off_c, 0, 62, 56
1, 432093, Note_on_c, 0, 72, 38
1, 432101, Note_off_c, 0, 58, 59
1, 432112, Note_off_c, 0, 76, 52
1, 432124, Note_off_c, 0, 72, 45
1, 432144, Note_on_c, 0, 55, 63
1, 432152, Poly_aftertouch_c, 0, 77, 0
1, 432189, Note_off_c, 0, 70, 61
1, 432202, Note_off_c, 0, 55, 63
1, 432215, Note_on_c, 0, 60, 64
1, 432218, Note_on_c, 0, 58, 65
1, 432223, Note_on_c, 0, 69, 88
1, 432225, Note_on_c, 0, 62, 50
1, 432226, Note_on_c, 0, 77, 84
1, 432229, Note_on_c, 0, 76, 67
1, 432232, Note_on_c, 0, 72, 63
1, 432265, Note_off_c, 0, 60, 60
1, 432269, Note_off_c, 0, 62, 61
1, 432269, Note_off_c, 0, 72, 56
1, 432281, Note_off_c, 0, 77, 64
1, 432286, Note_off_c, 0, 58, 60
1, 432290, Note_off_c, 0, 76, 60
1, 432307, Note_off_c, 0, 69, 61
1, 432313, Note_on_c, 0, 55, 70
1, 432387, Note_on_c, 0, 60, 69
1, 432389, Note_off_c, 0, 55, 62
1, 432392, Note_on_c, 0, 58, 73
1, 432393, Note_on_c, 0, 62, 65
1, 432398, Note_on_c, 0, 77, 77
1, 432399, Note_on_c, 0, 67, 84
1, 432402, Note_on_c, 0, 76, 75
1, 432405, Note_on_c, 0, 72, 75
1, 432429, Note_on_c, 0, 69, 47
1, 432430, Note_off_c, 0, 69, 127
1, 432440, Note_off_c, 0, 72, 61
1, 432444, Note_off_c, 0, 77, 66
1, 432447, Note_off_c, 0, 62, 64
1, 432450, Note_off_c, 0, 67, 64
1, 432453, Note_off_c, 0, 76, 64
1, 432456, Note_off_c, 0, 60, 61
1, 432489, Note_off_c, 0, 58, 63
1, 432513, Note_on_c, 0, 55, 72
1, 432573, Note_on_c, 0, 79, 99
1, 432575, Note_on_c, 0, 65, 99
1, 432584, Note_on_c, 0, 60, 79
1, 432588, Note_on_c, 0, 62, 74
1, 432590, Note_on_c, 0, 58, 78
1, 432596, Note_off_c, 0, 55, 63
1, 432611, Note_off_c, 0, 65, 58
1, 432611, Note_off_c, 0, 79, 65
1, 432615, Note_on_c, 0, 77, 31
1, 432616, Note_off_c, 0, 77, 127
1, 432644, Note_off_c, 0, 62, 63
1, 432647, Poly_aftertouch_c, 0, 77, 0
1, 432655, Note_off_c, 0, 60, 61
1, 432679, Note_on_c, 0, 55, 80
1, 432679, Note_off_c, 0, 58, 65
1, 432680, Note_on_c, 0, 67, 89
1, 432706, Note_on_c, 0, 57, 30
1, 432738, Note_off_c, 0, 67, 61
1, 432752, Control_c, 0, 64, 98
1, 432757, Note_on_c, 0, 69, 87
1, 432757, Note_on_c, 0, 60, 76
1, 432760, Note_off_c, 0, 55, 64
1, 432760, Note_off_c, 0, 57, 44
1, 432761, Note_on_c, 0, 62, 69
1, 432766, Note_on_c, 0, 58, 77
1, 432767, Control_c, 0, 64, 70
1, 432782, Control_c, 0, 64, 47
1, 432797, Control_c, 0, 64, 0
1, 432811, Note_off_c, 0, 62, 62
1, 432817, Note_off_c, 0, 60, 61
1, 432819, Note_off_c, 0, 69, 65
1, 432822, Note_on_c, 0, 70, 76
1, 432840, Note_off_c, 0, 58, 64
1, 432852, Note_on_c, 0, 55, 73
1, 432855, Note_off_c, 0, 70, 61
1, 432871, Control_c, 0, 64, 43
1, 432886, Control_c, 0, 64, 65
1, 432901, Control_c, 0, 64, 82
1, 432915, Control_c, 0, 64, 127
1, 432918, Note_on_c, 0, 72, 82
1, 432926, Note_on_c, 0, 62, 76
1, 432930, Note_off_c, 0, 55, 63
1, 432931, Note_on_c, 0, 60, 69
1, 432936, Note_on_c, 0, 58, 71
1, 432957, Note_off_c, 0, 72, 61
1, 432963, Note_on_c, 0, 74, 74
1, 432969, Note_off_c, 0, 62, 60
1, 432975, Note_off_c, 0, 60, 58
1, 432992, Note_off_c, 0, 74, 65
1, 432997, Note_off_c, 0, 58, 58
1, 433010, Note_on_c, 0, 76, 62
1, 433031, Note_on_c, 0, 55, 74
1, 433046, Note_off_c, 0, 76, 65
1, 433052, Note_on_c, 0, 77, 70
1, 433068, Note_off_c, 0, 77, 67
1, 433103, Note_on_c, 0, 79, 90
1, 433107, Note_on_c, 0, 60, 69
1, 433107, Note_on_c, 0, 62, 68
1, 433108, Note_off_c, 0, 55, 63
1, 433115, Note_on_c, 0, 58, 72
1, 433150, Note_off_c, 0, 79, 67
1, 433162, Note_off_c, 0, 62, 64
1, 433165, Note_on_c, 0, 81, 75
1, 433183, Note_off_c, 0, 60, 60
1, 433195, Note_off_c, 0, 58, 64
1, 433201, Note_on_c, 0, 82, 81
1, 433218, Note_on_c, 0, 55, 85
1, 433233, Note_off_c, 0, 81, 65
1, 433255, Note_on_c, 0, 84, 103
1, 433258, Note_on_c, 0, 72, 96
1, 433264, Note_on_c, 0, 57, 58
1, 433264, Control_c, 0, 64, 63
1, 433277, Note_off_c, 0, 82, 66
1, 433279, Control_c, 0, 64, 0
1, 433283, Note_on_c, 0, 60, 82
1, 433285, Note_on_c, 0, 62, 65
1, 433287, Note_on_c, 0, 58, 80
1, 433302, Note_off_c, 0, 55, 64
1, 433302, Note_off_c, 0, 57, 53
1, 433318, Note_on_c, 0, 83, 11
1, 433345, Note_off_c, 0, 62, 65
1, 433350, Note_off_c, 0, 60, 63
1, 433370, Note_off_c, 0, 58, 64
1, 433378, Note_off_c, 0, 83, 27
1, 433386, Note_on_c, 0, 55, 79
1, 433436, Note_on_c, 0, 81, 69
1, 433451, Note_off_c, 0, 55, 64
1, 433453, Note_on_c, 0, 77, 72
1, 433454, Note_on_c, 0, 60, 71
1, 433454, Note_on_c, 0, 62, 70
1, 433473, Note_off_c, 0, 72, 59
1, 433477, Note_on_c, 0, 58, 56
1, 433481, Note_off_c, 0, 77, 68
1, 433490, Note_off_c, 0, 81, 64
1, 433495, Note_off_c, 0, 62, 64
1, 433500, Note_off_c, 0, 60, 60
1, 433519, Note_off_c, 0, 58, 58
1, 433549, Note_on_c, 0, 55, 76
1, 433613, Note_on_c, 0, 79, 74
1, 433614, Note_on_c, 0, 76, 69
1, 433617, Note_off_c, 0, 55, 63
1, 433624, Note_on_c, 0, 60, 55
1, 433624, Note_on_c, 0, 62, 50
1, 433628, Note_on_c, 0, 58, 55
1, 433640, Note_off_c, 0, 76, 66
1, 433651, Note_off_c, 0, 62, 58
1, 433653, Note_off_c, 0, 79, 63
1, 433659, Note_off_c, 0, 60, 61
1, 433676, Note_off_c, 0, 58, 61
1, 433715, Note_on_c, 0, 55, 69
1, 433775, Note_on_c, 0, 77, 79
1, 433779, Note_on_c, 0, 74, 73
1, 433779, Note_off_c, 0, 55, 62
1, 433782, Note_on_c, 0, 62, 57
1, 433786, Note_on_c, 0, 60, 60
1, 433791, Note_on_c, 0, 58, 59
1, 433804, Note_off_c, 0, 74, 67
1, 433812, Control_c, 0, 64, 20
1, 433823, Note_off_c, 0, 77, 64
1, 433824, Note_off_c, 0, 62, 64
1, 433826, Note_off_c, 0, 60, 62
1, 433827, Control_c, 0, 64, 17
1, 433842, Control_c, 0, 64, 0
1, 433845, Note_off_c, 0, 58, 62
1, 433883, Note_on_c, 0, 55, 71
1, 433946, Note_off_c, 0, 55, 62
1, 433950, Note_on_c, 0, 72, 90
1, 433950, Note_on_c, 0, 76, 88
1, 433964, Note_on_c, 0, 62, 61
1, 433969, Note_on_c, 0, 60, 62
1, 433976, Note_on_c, 0, 58, 57
1, 433983, Control_c, 0, 64, 17
1, 433994, Note_on_c, 0, 57, 48
1, 433997, Control_c, 0, 64, 48
1, 434003, Note_off_c, 0, 72, 61
1, 434005, Note_off_c, 0, 62, 65
1, 434008, Note_off_c, 0, 60, 63
1, 434010, Note_off_c, 0, 76, 65
1, 434012, Control_c, 0, 64, 62
1, 434021, Note_off_c, 0, 58, 63
1, 434024, Note_off_c, 0, 57, 55
1, 434027, Control_c, 0, 64, 69
1, 434042, Control_c, 0, 64, 73
1, 434057, Control_c, 0, 64, 80
1, 434066, Note_on_c, 0, 55, 70
1, 434071, Control_c, 0, 64, 93
1, 434086, Control_c, 0, 64, 127
1, 434128, Note_off_c, 0, 55, 62
1, 434135, Note_on_c, 0, 76, 80
1, 434140, Note_on_c, 0, 72, 71
1, 434141, Note_on_c, 0, 62, 61
1, 434142, Note_on_c, 0, 60, 60
1, 434149, Note_on_c, 0, 58, 55
1, 434155, Note_on_c, 0, 57, 25
1, 434160, Note_off_c, 0, 76, 65
1, 434167, Note_off_c, 0, 72, 64
1, 434173, Note_off_c, 0, 60, 63
1, 434173, Note_off_c, 0, 62, 66
1, 434185, Note_off_c, 0, 58, 64
1, 434194, Note_off_c, 0, 57, 51
1, 434232, Note_on_c, 0, 55, 62
1, 434235, Control_c, 0, 64, 87
1, 434250, Control_c, 0, 64, 63
1, 434264, Control_c, 0, 64, 25
1, 434279, Control_c, 0, 64, 0
1, 434292, Note_off_c, 0, 55, 61
1, 434300, Note_on_c, 0, 60, 58
1, 434301, Note_on_c, 0, 62, 56
1, 434304, Note_on_c, 0, 58, 54
1, 434304, Note_on_c, 0, 76, 82
1, 434306, Note_on_c, 0, 57, 42
1, 434308, Note_on_c, 0, 72, 69
1, 434329, Note_off_c, 0, 76, 66
1, 434332, Note_off_c, 0, 62, 66
1, 434335, Note_off_c, 0, 72, 64
1, 434338, Control_c, 0, 64, 40
1, 434339, Note_off_c, 0, 60, 63
1, 434347, Note_off_c, 0, 57, 62
1, 434353, Note_off_c, 0, 58, 63
1, 434353, Control_c, 0, 64, 59
1, 434368, Control_c, 0, 64, 69
1, 434383, Control_c, 0, 64, 74
1, 434394, Note_on_c, 0, 55, 72
1, 434399, Control_c, 0, 64, 75
1, 434428, Control_c, 0, 64, 70
1, 434443, Control_c, 0, 64, 59
1, 434458, Note_off_c, 0, 55, 63
1, 434458, Control_c, 0, 64, 27
1, 434465, Note_on_c, 0, 60, 64
1, 434467, Note_on_c, 0, 76, 83
1, 434468, Note_on_c, 0, 58, 65
1, 434470, Note_on_c, 0, 62, 56
1, 434472, Note_on_c, 0, 72, 77
1, 434473, Control_c, 0, 64, 0
1, 434487, Note_on_c, 0, 57, 24
1, 434493, Note_off_c, 0, 72, 67
1, 434502, Note_off_c, 0, 76, 64
1, 434504, Note_off_c, 0, 62, 66
1, 434505, Note_off_c, 0, 60, 63
1, 434534, Note_off_c, 0, 58, 63
1, 434537, Note_off_c, 0, 57, 48
1, 434558, Note_on_c, 0, 55, 66
1, 434626, Note_off_c, 0, 55, 60
1, 434645, Note_on_c, 0, 62, 63
1, 434649, Note_on_c, 0, 60, 59
1, 434650, Control_c, 0, 64, 61
1, 434652, Note_on_c, 0, 77, 97
1, 434653, Note_on_c, 0, 74, 98
1, 434653, Note_on_c, 0, 58, 60
1, 434656, Note_on_c, 0, 57, 46
1, 434665, Control_c, 0, 64, 85
1, 434680, Control_c, 0, 64, 127
1, 434685, Note_off_c, 0, 62, 63
1, 434691, Note_off_c, 0, 60, 61
1, 434694, Note_off_c, 0, 74, 66
1, 434706, Note_off_c, 0, 58, 63
1, 434718, Note_off_c, 0, 57, 56
1, 434730, Note_off_c, 0, 77, 65
1, 434746, Note_on_c, 0, 55, 71
1, 434819, Note_off_c, 0, 55, 63
1, 434821, Note_on_c, 0, 60, 72
1, 434823, Note_on_c, 0, 58, 73
1, 434831, Note_on_c, 0, 57, 50
1, 434831, Note_on_c, 0, 62, 57
1, 434831, Note_on_c, 0, 77, 77
1, 434853, Note_off_c, 0, 77, 71
1, 434855, Note_on_c, 0, 74, 24
1, 434858, Note_off_c, 0, 57, 55
1, 434865, Note_off_c, 0, 62, 61
1, 434870, Note_off_c, 0, 60, 61
1, 434872, Note_off_c, 0, 84, 64
1, 434892, Note_off_c, 0, 74, 45
1, 434896, Note_off_c, 0, 58, 63
1, 434916, Note_on_c, 0, 55, 69
1, 434993, Note_off_c, 0, 55, 61
1, 435010, Note_on_c, 0, 58, 73
1, 435013, Note_on_c, 0, 60, 67
1, 435026, Note_on_c, 0, 98, 98
1, 435043, Note_on_c, 0, 96, 89
1, 435057, Note_off_c, 0, 98, 69
1, 435065, Note_on_c, 0, 95, 90
1, 435081, Note_off_c, 0, 96, 65
1, 435085, Note_on_c, 0, 93, 89
1, 435088, Note_off_c, 0, 60, 58
1, 435094, Note_off_c, 0, 58, 64
1, 435099, Note_off_c, 0, 95, 64
1, 435100, Note_on_c, 0, 55, 77
1, 435105, Note_on_c, 0, 91, 92
1, 435108, Note_off_c, 0, 93, 62
1, 435124, Note_on_c, 0, 89, 93
1, 435124, Note_off_c, 0, 91, 68
1, 435140, Note_on_c, 0, 57, 23
1, 435142, Note_on_c, 0, 88, 94
1, 435145, Note_off_c, 0, 89, 67
1, 435162, Note_on_c, 0, 86, 93
1, 435167, Note_off_c, 0, 88, 61
1, 435180, Note_off_c, 0, 86, 72
1, 435183, Note_on_c, 0, 84, 92
1, 435201, Note_off_c, 0, 84, 72
1, 435203, Note_on_c, 0, 83, 87
1, 435205, Note_off_c, 0, 57, 0
1, 435205, Note_on_c, 0, 57, 2
1, 435220, Note_on_c, 0, 60, 69
1, 435221, Note_off_c, 0, 83, 71
1, 435222, Note_on_c, 0, 58, 70
1, 435222, Note_on_c, 0, 81, 92
1, 435228, Note_off_c, 0, 55, 61
1, 435239, Note_off_c, 0, 81, 72
1, 435240, Note_on_c, 0, 79, 89
1, 435249, Note_off_c, 0, 57, 60
1, 435258, Note_off_c, 0, 79, 71
1, 435261, Note_on_c, 0, 77, 86
1, 435275, Note_on_c, 0, 84, 29
1, 435278, Note_on_c, 0, 83, 39
1, 435279, Note_off_c, 0, 83, 127
1, 435279, Note_off_c, 0, 77, 73
1, 435280, Note_off_c, 0, 60, 61
1, 435282, Note_on_c, 0, 76, 85
1, 435295, Note_on_c, 0, 81, 41
1, 435296, Note_off_c, 0, 81, 127
1, 435302, Note_off_c, 0, 76, 71
1, 435303, Note_on_c, 0, 55, 75
1, 435305, Note_off_c, 0, 58, 65
1, 435314, Note_off_c, 0, 84, 38
1, 435323, Note_on_c, 0, 79, 35
1, 435323, Poly_aftertouch_c, 0, 86, 0
1, 435350, Note_off_c, 0, 79, 46
1, 435370, Control_c, 0, 64, 76
1, 435382, Poly_aftertouch_c, 0, 57, 0
1, 435385, Control_c, 0, 64, 30
1, 435388, Poly_aftertouch_c, 0, 74, 0
1, 435397, Note_on_c, 0, 84, 97
1, 435400, Note_on_c, 0, 72, 98
1, 435400, Control_c, 0, 64, 0
1, 435401, Note_on_c, 0, 58, 78
1, 435405, Note_on_c, 0, 60, 78
1, 435406, Note_off_c, 0, 55, 64
1, 435410, Note_on_c, 0, 62, 74
1, 435422, Poly_aftertouch_c, 0, 57, 0
1, 435467, Control_c, 0, 64, 47
1, 435475, Note_off_c, 0, 62, 63
1, 435481, Control_c, 0, 64, 70
1, 435482, Note_off_c, 0, 60, 59
1, 435496, Control_c, 0, 64, 96
1, 435505, Note_off_c, 0, 58, 65
1, 435511, Control_c, 0, 64, 127
1, 435520, Note_on_c, 0, 55, 83
1, 435575, Note_on_c, 0, 81, 80
1, 435582, Note_on_c, 0, 77, 65
1, 435592, Note_on_c, 0, 60, 74
1, 435595, Note_off_c, 0, 55, 64
1, 435597, Note_off_c, 0, 84, 61
1, 435601, Note_on_c, 0, 58, 72
1, 435601, Note_on_c, 0, 62, 67
1, 435607, Note_off_c, 0, 72, 60
1, 435610, Note_off_c, 0, 77, 69
1, 435626, Note_off_c, 0, 81, 64
1, 435630, Note_off_c, 0, 62, 66
1, 435642, Note_off_c, 0, 60, 62
1, 435648, Note_off_c, 0, 58, 65
1, 435692, Note_on_c, 0, 55, 76
1, 435717, Note_on_c, 0, 57, 54
1, 435749, Note_on_c, 0, 84, 97
1, 435751, Note_on_c, 0, 72, 101
1, 435754, Note_on_c, 0, 76, 90
1, 435760, Note_off_c, 0, 55, 61
1, 435762, Note_on_c, 0, 62, 69
1, 435765, Note_on_c, 0, 60, 74
1, 435766, Note_on_c, 0, 79, 68
1, 435770, Note_on_c, 0, 58, 70
1, 435778, Note_off_c, 0, 57, 52
1, 435808, Note_off_c, 0, 62, 64
1, 435808, Note_off_c, 0, 79, 58
1, 435810, Note_off_c, 0, 84, 64
1, 435812, Note_off_c, 0, 72, 62
1, 435812, Note_off_c, 0, 76, 62
1, 435812, Note_off_c, 0, 60, 61
1, 435845, Note_off_c, 0, 58, 60
1, 435868, Note_on_c, 0, 55, 79
1, 435927, Note_on_c, 0, 81, 98
1, 435933, Note_on_c, 0, 69, 91
1, 435937, Note_on_c, 0, 74, 85
1, 435938, Note_on_c, 0, 60, 74
1, 435946, Note_off_c, 0, 55, 63
1, 435946, Note_on_c, 0, 62, 66
1, 435952, Note_on_c, 0, 58, 76
1, 435958, Note_off_c, 0, 74, 68
1, 435959, Note_off_c, 0, 69, 64
1, 435980, Note_off_c, 0, 81, 65
1, 436002, Note_off_c, 0, 62, 64
1, 436004, Note_off_c, 0, 60, 61
1, 436027, Note_off_c, 0, 58, 63
1, 436045, Note_on_c, 0, 55, 72
1, 436090, Control_c, 0, 64, 91
1, 436104, Control_c, 0, 64, 65
1, 436112, Note_on_c, 0, 86, 102
1, 436116, Note_on_c, 0, 76, 91
1, 436117, Note_on_c, 0, 62, 78
1, 436117, Note_on_c, 0, 74, 83
1, 436119, Control_c, 0, 64, 47
1, 436120, Note_on_c, 0, 60, 71
1, 436122, Note_off_c, 0, 55, 62
1, 436129, Note_on_c, 0, 58, 70
1, 436130, Note_on_c, 0, 77, 75
1, 436134, Control_c, 0, 64, 50
1, 436134, Note_on_c, 0, 72, 68
1, 436137, Note_on_c, 0, 57, 40
1, 436146, Note_off_c, 0, 77, 42
1, 436149, Control_c, 0, 64, 68
1, 436159, Note_off_c, 0, 62, 62
1, 436161, Note_off_c, 0, 72, 37
1, 436164, Control_c, 0, 64, 127
1, 436165, Note_off_c, 0, 60, 60
1, 436170, Note_off_c, 0, 57, 50
1, 436174, Note_off_c, 0, 74, 64
1, 436179, Note_off_c, 0, 76, 54
1, 436186, Note_off_c, 0, 58, 64
1, 436227, Note_off_c, 0, 86, 60
1, 436233, Note_on_c, 0, 55, 80
1, 436259, Note_on_c, 0, 57, 61
1, 436287, Note_on_c, 0, 76, 81
1, 436287, Note_off_c, 0, 57, 64
1, 436293, Note_on_c, 0, 72, 64
1, 436293, Note_off_c, 0, 55, 64
1, 436298, Note_on_c, 0, 60, 64
1, 436305, Note_on_c, 0, 58, 70
1, 436305, Note_on_c, 0, 62, 58
1, 436310, Note_off_c, 0, 72, 65
1, 436311, Note_off_c, 0, 76, 67
1, 436346, Note_off_c, 0, 62, 64
1, 436346, Note_off_c, 0, 60, 59
1, 436370, Note_off_c, 0, 58, 63
1, 436372, Note_on_c, 0, 57, 54
1, 436373, Note_on_c, 0, 55, 70
1, 436413, Note_off_c, 0, 57, 58
1, 436443, Note_off_c, 0, 55, 60
1, 436463, Note_on_c, 0, 62, 66
1, 436471, Note_on_c, 0, 60, 62
1, 436473, Note_on_c, 0, 58, 70
1, 436478, Note_on_c, 0, 76, 92
1, 436480, Note_on_c, 0, 86, 103
1, 436480, Note_on_c, 0, 74, 103
1, 436492, Note_on_c, 0, 72, 79
1, 436504, Note_on_c, 0, 80, 63
1, 436507, Note_off_c, 0, 72, 65
1, 436507, Note_off_c, 0, 62, 63
1, 436517, Note_off_c, 0, 60, 60
1, 436524, Note_off_c, 0, 80, 63
1, 436526, Note_on_c, 0, 77, 27
1, 436527, Note_off_c, 0, 77, 127
1, 436531, Note_off_c, 0, 74, 56
1, 436545, Note_off_c, 0, 58, 64
1, 436545, Note_off_c, 0, 76, 53
1, 436558, Note_off_c, 0, 86, 55
1, 436563, Poly_aftertouch_c, 0, 57, 127
1, 436568, Note_on_c, 0, 55, 76
1, 436580, Poly_aftertouch_c, 0, 57, 0
1, 436600, Poly_aftertouch_c, 0, 57, 0
1, 436647, Note_on_c, 0, 76, 74
1, 436651, Note_on_c, 0, 62, 66
1, 436654, Note_off_c, 0, 55, 63
1, 436658, Note_on_c, 0, 58, 76
1, 436658, Note_on_c, 0, 60, 66
1, 436662, Note_off_c, 0, 76, 68
1, 436683, Note_on_c, 0, 57, 35
1, 436692, Note_off_c, 0, 62, 62
1, 436710, Note_off_c, 0, 60, 54
1, 436732, Note_off_c, 0, 58, 65
1, 436741, Note_on_c, 0, 55, 73
1, 436853, Control_c, 0, 64, 90
1, 436868, Control_c, 0, 64, 62
1, 436872, Note_off_c, 0, 55, 63
1, 436879, Note_on_c, 0, 58, 62
1, 436882, Control_c, 0, 64, 40
1, 436882, Note_on_c, 0, 60, 65
1, 436885, Note_on_c, 0, 84, 110
1, 436888, Note_off_c, 0, 57, 46
1, 436894, Note_on_c, 0, 77, 101
1, 436897, Control_c, 0, 64, 46
1, 436903, Note_on_c, 0, 74, 83
1, 436910, Note_on_c, 0, 62, 43
1, 436912, Control_c, 0, 64, 69
1, 436916, Note_off_c, 0, 74, 74
1, 436922, Note_off_c, 0, 77, 60
1, 436927, Control_c, 0, 64, 127
1, 436930, Note_on_c, 0, 72, 42
1, 436931, Note_off_c, 0, 72, 127
1, 436951, Note_off_c, 0, 84, 67
1, 436960, Note_off_c, 0, 62, 46
1, 436970, Note_off_c, 0, 60, 57
1, 436996, Note_off_c, 0, 58, 64
1, 437005, Note_on_c, 0, 55, 75
1, 437058, Note_on_c, 0, 67, 80
1, 437067, Poly_aftertouch_c, 0, 74, 0
1, 437085, Note_off_c, 0, 55, 64
1, 437097, Note_on_c, 0, 62, 51
1, 437098, Note_on_c, 0, 58, 67
1, 437099, Note_on_c, 0, 60, 52
1, 437104, Note_off_c, 0, 67, 61
1, 437123, Note_on_c, 0, 69, 73
1, 437130, Note_off_c, 0, 62, 62
1, 437134, Note_off_c, 0, 60, 62
1, 437149, Note_off_c, 0, 58, 57
1, 437170, Note_off_c, 0, 69, 64
1, 437173, Note_on_c, 0, 55, 73
1, 437184, Note_on_c, 0, 70, 73
1, 437200, Note_off_c, 0, 70, 68
1, 437243, Note_on_c, 0, 62, 67
1, 437244, Note_on_c, 0, 60, 66
1, 437245, Note_off_c, 0, 55, 64
1, 437254, Note_on_c, 0, 58, 74
1, 437255, Note_on_c, 0, 72, 79
1, 437285, Note_off_c, 0, 62, 64
1, 437288, Note_off_c, 0, 60, 60
1, 437296, Note_on_c, 0, 74, 71
1, 437306, Note_off_c, 0, 72, 63
1, 437319, Note_off_c, 0, 58, 59
1, 437335, Note_on_c, 0, 55, 82
1, 437339, Note_off_c, 0, 74, 66
1, 437351, Note_on_c, 0, 76, 69
1, 437394, Note_off_c, 0, 76, 66
1, 437404, Note_on_c, 0, 77, 58
1, 437406, Note_off_c, 0, 55, 64
1, 437409, Note_on_c, 0, 62, 72
1, 437412, Poly_aftertouch_c, 0, 57, 127
1, 437413, Note_on_c, 0, 60, 67
1, 437423, Note_off_c, 0, 77, 64
1, 437424, Note_on_c, 0, 58, 73
1, 437443, Note_on_c, 0, 79, 67
1, 437452, Poly_aftertouch_c, 0, 57, 0
1, 437455, Note_on_c, 0, 81, 75
1, 437464, Note_off_c, 0, 62, 64
1, 437475, Note_off_c, 0, 81, 58
1, 437479, Note_off_c, 0, 60, 61
1, 437490, Note_off_c, 0, 58, 64
1, 437497, Note_off_c, 0, 79, 63
1, 437498, Note_on_c, 0, 55, 78
1, 437508, Note_on_c, 0, 81, 78
1, 437537, Note_on_c, 0, 82, 79
1, 437560, Poly_aftertouch_c, 0, 57, 127
1, 437563, Note_off_c, 0, 81, 65
1, 437571, Control_c, 0, 64, 77
1, 437576, Note_on_c, 0, 62, 77
1, 437581, Note_off_c, 0, 82, 61
1, 437583, Note_off_c, 0, 55, 63
1, 437585, Note_on_c, 0, 60, 84
1, 437586, Control_c, 0, 64, 0
1, 437587, Note_on_c, 0, 58, 79
1, 437595, Note_on_c, 0, 84, 97
1, 437601, Note_on_c, 0, 72, 95
1, 437628, Poly_aftertouch_c, 0, 57, 0
1, 437636, Note_on_c, 0, 83, 37
1, 437639, Note_off_c, 0, 62, 64
1, 437646, Control_c, 0, 64, 52
1, 437656, Note_off_c, 0, 60, 61
1, 437660, Control_c, 0, 64, 104
1, 437666, Note_off_c, 0, 83, 44
1, 437674, Note_on_c, 0, 55, 83
1, 437675, Control_c, 0, 64, 127
1, 437678, Note_off_c, 0, 58, 65
1, 437767, Note_on_c, 0, 62, 67
1, 437771, Note_on_c, 0, 60, 73
1, 437773, Note_off_c, 0, 55, 64
1, 437776, Note_on_c, 0, 81, 77
1, 437781, Note_on_c, 0, 58, 77
1, 437783, Note_on_c, 0, 77, 83
1, 437796, Note_off_c, 0, 72, 62
1, 437805, Note_off_c, 0, 62, 64
1, 437812, Note_off_c, 0, 77, 63
1, 437826, Note_off_c, 0, 60, 61
1, 437846, Note_off_c, 0, 81, 64
1, 437848, Note_off_c, 0, 58, 65
1, 437866, Note_on_c, 0, 55, 76
1, 437934, Note_off_c, 0, 55, 62
1, 437935, Poly_aftertouch_c, 0, 57, 127
1, 437946, Note_on_c, 0, 62, 58
1, 437947, Note_on_c, 0, 60, 63
1, 437956, Note_on_c, 0, 58, 67
1, 437959, Note_on_c, 0, 79, 89
1, 437960, Note_on_c, 0, 76, 93
1, 437984, Note_off_c, 0, 62, 65
1, 438000, Note_off_c, 0, 76, 66
1, 438003, Note_off_c, 0, 60, 61
1, 438014, Poly_aftertouch_c, 0, 57, 0
1, 438022, Note_off_c, 0, 58, 63
1, 438026, Note_off_c, 0, 79, 64
1, 438039, Note_on_c, 0, 55, 72
1, 438057, Poly_aftertouch_c, 0, 81, 0
1, 438108, Note_off_c, 0, 55, 61
1, 438123, Note_on_c, 0, 60, 69
1, 438123, Note_on_c, 0, 62, 68
1, 438128, Note_on_c, 0, 74, 88
1, 438129, Note_on_c, 0, 77, 84
1, 438131, Note_on_c, 0, 58, 63
1, 438140, Note_on_c, 0, 57, 36
1, 438158, Note_off_c, 0, 62, 65
1, 438169, Note_off_c, 0, 74, 65
1, 438170, Note_off_c, 0, 60, 58
1, 438184, Note_off_c, 0, 58, 57
1, 438191, Note_off_c, 0, 77, 65
1, 438194, Note_off_c, 0, 57, 51
1, 438225, Note_on_c, 0, 55, 68
1, 438294, Note_off_c, 0, 55, 43
1, 438307, Note_on_c, 0, 57, 58
1, 438321, Note_on_c, 0, 76, 86
1, 438325, Note_on_c, 0, 62, 47
1, 438332, Note_on_c, 0, 58, 52
1, 438334, Note_on_c, 0, 72, 74
1, 438338, Note_on_c, 0, 60, 52
1, 438352, Note_off_c, 0, 62, 56
1, 438354, Note_off_c, 0, 58, 60
1, 438367, Note_off_c, 0, 60, 64
1, 438369, Note_off_c, 0, 57, 53
1, 438369, Note_off_c, 0, 72, 61
1, 438378, Note_off_c, 0, 76, 64
1, 438410, Note_on_c, 0, 55, 66
1, 438466, Note_off_c, 0, 55, 57
1, 438488, Note_on_c, 0, 60, 55
1, 438489, Note_on_c, 0, 58, 63
1, 438498, Note_on_c, 0, 76, 96
1, 438504, Note_on_c, 0, 57, 37
1, 438504, Note_on_c, 0, 72, 89
1, 438507, Note_on_c, 0, 62, 53
1, 438529, Note_off_c, 0, 60, 60
1, 438537, Note_off_c, 0, 62, 61
1, 438540, Note_off_c, 0, 57, 46
1, 438550, Note_off_c, 0, 58, 63
1, 438564, Note_off_c, 0, 72, 59
1, 438575, Note_off_c, 0, 76, 62
1, 438579, Note_on_c, 0, 55, 71
1, 438663, Note_on_c, 0, 62, 60
1, 438667, Note_on_c, 0, 57, 33
1, 438668, Note_off_c, 0, 55, 63
1, 438674, Note_on_c, 0, 58, 67
1, 438674, Note_on_c, 0, 76, 106
1, 438679, Note_on_c, 0, 72, 96
1, 438681, Note_on_c, 0, 60, 64
1, 438729, Note_off_c, 0, 60, 57
1, 438729, Note_off_c, 0, 62, 65
1, 438754, Note_off_c, 0, 58, 64
1, 438760, Note_on_c, 0, 55, 78
1, 438763, Note_off_c, 0, 72, 61
1, 438768, Note_off_c, 0, 57, 0
1, 438772, Note_off_c, 0, 76, 61
1, 438820, Poly_aftertouch_c, 0, 57, 0
1, 438841, Note_on_c, 0, 62, 77
1, 438847, Note_on_c, 0, 57, 36
1, 438847, Note_on_c, 0, 60, 73
1, 438848, Note_on_c, 0, 76, 110
1, 438852, Note_on_c, 0, 72, 100
1, 438853, Note_off_c, 0, 55, 63
1, 438857, Note_on_c, 0, 58, 73
1, 438898, Note_off_c, 0, 62, 64
1, 438912, Note_off_c, 0, 60, 61
1, 438936, Note_off_c, 0, 58, 65
1, 438944, Note_on_c, 0, 55, 76
1, 438944, Note_off_c, 0, 72, 60
1, 438945, Note_off_c, 0, 57, 59
1, 438955, Note_off_c, 0, 76, 62
1, 439020, Note_on_c, 0, 77, 85
1, 439026, Note_on_c, 0, 74, 71
1, 439027, Note_on_c, 0, 62, 75
1, 439029, Note_on_c, 0, 60, 74
1, 439030, Note_off_c, 0, 84, 36
1, 439031, Note_off_c, 0, 55, 63
1, 439035, Note_on_c, 0, 58, 73
1, 439045, Note_off_c, 0, 77, 68
1, 439052, Note_off_c, 0, 74, 68
1, 439065, Note_off_c, 0, 60, 62
1, 439065, Note_off_c, 0, 62, 64
1, 439073, Note_off_c, 0, 58, 62
1, 439121, Note_on_c, 0, 55, 80
1, 439126, Note_on_c, 0, 72, 75
1, 439130, Note_on_c, 0, 84, 78
1, 439147, Note_off_c, 0, 84, 69
1, 439154, Note_off_c, 0, 72, 65
1, 439197, Note_off_c, 0, 55, 62
1, 439214, Note_on_c, 0, 60, 65
1, 439218, Note_on_c, 0, 74, 72
1, 439220, Note_on_c, 0, 86, 89
1, 439222, Note_on_c, 0, 58, 58
1, 439231, Note_on_c, 0, 62, 50
1, 439241, Note_off_c, 0, 86, 70
1, 439243, Note_off_c, 0, 74, 67
1, 439265, Note_off_c, 0, 60, 56
1, 439266, Note_off_c, 0, 62, 53
1, 439291, Note_on_c, 0, 55, 84
1, 439297, Note_off_c, 0, 58, 65
1, 439310, Note_on_c, 0, 76, 93
1, 439310, Note_on_c, 0, 88, 94
1, 439341, Note_off_c, 0, 76, 63
1, 439345, Note_off_c, 0, 88, 63
1, 439372, Poly_aftertouch_c, 0, 86, 0
1, 439374, Note_off_c, 0, 55, 61
1, 439378, Note_on_c, 0, 62, 75
1, 439384, Note_on_c, 0, 60, 76
1, 439395, Note_on_c, 0, 89, 97
1, 439397, Note_on_c, 0, 77, 87
1, 439402, Poly_aftertouch_c, 0, 57, 0
1, 439428, Note_on_c, 0, 88, 46
1, 439432, Note_off_c, 0, 62, 65
1, 439436, Note_off_c, 0, 89, 67
1, 439437, Note_off_c, 0, 77, 67
1, 439454, Note_off_c, 0, 88, 61
1, 439474, Note_on_c, 0, 55, 82
1, 439474, Note_off_c, 0, 60, 61
1, 439493, Note_on_c, 0, 91, 107
1, 439497, Note_on_c, 0, 79, 91
1, 439523, Note_on_c, 0, 62, 71
1, 439535, Note_off_c, 0, 91, 64
1, 439536, Note_off_c, 0, 79, 65
1, 439553, Note_off_c, 0, 55, 63
1, 439570, Note_off_c, 0, 62, 67
1, 439580, Note_on_c, 0, 60, 64
1, 439587, Note_on_c, 0, 93, 75
1, 439596, Note_on_c, 0, 81, 87
1, 439597, Note_off_c, 0, 60, 65
1, 439628, Note_off_c, 0, 81, 64
1, 439631, Note_off_c, 0, 93, 67
1, 439690, Note_on_c, 0, 41, 83
1, 439691, Note_on_c, 0, 48, 84
1, 439694, Note_on_c, 0, 82, 106
1, 439694, Note_on_c, 0, 94, 104
1, 439698, Note_on_c, 0, 50, 77
1, 439717, Note_off_c, 0, 50, 66
1, 439717, Note_off_c, 0, 48, 65
1, 439718, Note_off_c, 0, 41, 65
1, 439766, Note_off_c, 0, 94, 58
1, 439783, Note_off_c, 0, 82, 61
1, 439890, Note_on_c, 0, 66, 46
1, 439918, Note_off_c, 0, 66, 55
1, 439978, Note_on_c, 0, 96, 103
1, 439980, Note_on_c, 0, 84, 103
1, 439986, Note_on_c, 0, 65, 88
1, 439990, Note_on_c, 0, 69, 87
1, 439992, Note_on_c, 0, 62, 84
1, 439998, Note_on_c, 0, 58, 81
1, 440005, Note_on_c, 0, 94, 71
1, 440021, Note_off_c, 0, 94, 69
1, 440033, Control_c, 0, 64, 99
1, 440048, Control_c, 0, 64, 98
1, 440063, Control_c, 0, 64, 105
1, 440078, Control_c, 0, 64, 127
1, 440085, Note_off_c, 0, 65, 58
1, 440088, Note_off_c, 0, 62, 63
1, 440093, Note_off_c, 0, 58, 63
1, 440096, Note_off_c, 0, 69, 63
1, 440175, Note_on_c, 0, 93, 75
1, 440189, Note_on_c, 0, 65, 69
1, 440189, Note_on_c, 0, 89, 68
1, 440194, Note_on_c, 0, 62, 75
1, 440194, Note_on_c, 0, 69, 73
1, 440196, Note_on_c, 0, 58, 64
1, 440222, Note_off_c, 0, 89, 63
1, 440267, Note_off_c, 0, 62, 63
1, 440273, Note_off_c, 0, 58, 61
1, 440274, Note_off_c, 0, 65, 43
1, 440284, Note_off_c, 0, 69, 38
1, 440296, Note_off_c, 0, 93, 55
1, 440307, Note_off_c, 0, 96, 49
1, 440355, Note_on_c, 0, 91, 83
1, 440364, Note_on_c, 0, 65, 64
1, 440364, Note_on_c, 0, 88, 75
1, 440369, Note_on_c, 0, 69, 72
1, 440373, Note_on_c, 0, 62, 70
1, 440379, Note_on_c, 0, 58, 58
1, 440397, Note_off_c, 0, 88, 64
1, 440399, Note_off_c, 0, 84, 65
1, 440407, Note_off_c, 0, 91, 66
1, 440436, Note_off_c, 0, 62, 61
1, 440439, Note_off_c, 0, 65, 52
1, 440445, Note_off_c, 0, 58, 52
1, 440450, Note_off_c, 0, 69, 55
1, 440535, Note_on_c, 0, 93, 97
1, 440537, Note_on_c, 0, 81, 98
1, 440540, Note_on_c, 0, 69, 84
1, 440544, Note_on_c, 0, 65, 80
1, 440544, Note_on_c, 0, 86, 75
1, 440547, Note_on_c, 0, 62, 78
1, 440552, Note_on_c, 0, 58, 71
1, 440559, Note_off_c, 0, 86, 71
1, 440584, Note_off_c, 0, 81, 61
1, 440594, Note_off_c, 0, 93, 64
1, 440651, Note_off_c, 0, 62, 60
1, 440653, Note_off_c, 0, 69, 62
1, 440655, Note_off_c, 0, 58, 62
1, 440656, Note_off_c, 0, 65, 58
1, 440755, Note_on_c, 0, 94, 94
1, 440755, Note_on_c, 0, 82, 93
1, 440758, Note_on_c, 0, 69, 91
1, 440758, Note_on_c, 0, 84, 75
1, 440761, Note_on_c, 0, 65, 86
1, 440761, Note_on_c, 0, 88, 70
1, 440767, Note_on_c, 0, 62, 81
1, 440768, Note_on_c, 0, 58, 79
1, 440787, Note_on_c, 0, 85, 49
1, 440788, Note_off_c, 0, 85, 127
1, 440814, Note_on_c, 0, 92, 30
1, 440827, Note_off_c, 0, 88, 62
1, 440837, Note_off_c, 0, 84, 66
1, 440844, Note_off_c, 0, 65, 61
1, 440844, Note_off_c, 0, 94, 65
1, 440849, Note_off_c, 0, 69, 62
1, 440850, Note_off_c, 0, 62, 62
1, 440851, Note_off_c, 0, 92, 46
1, 440858, Note_off_c, 0, 82, 56
1, 440862, Note_off_c, 0, 58, 61
1, 440939, Note_on_c, 0, 88, 69
1, 440945, Note_on_c, 0, 69, 73
1, 440946, Note_on_c, 0, 84, 82
1, 440949, Note_on_c, 0, 65, 71
1, 440954, Note_on_c, 0, 58, 64
1, 440954, Note_on_c, 0, 62, 72
1, 441002, Note_off_c, 0, 69, 58
1, 441002, Note_off_c, 0, 65, 61
1, 441004, Note_off_c, 0, 62, 60
1, 441005, Note_off_c, 0, 84, 59
1, 441015, Note_off_c, 0, 58, 59
1, 441032, Note_off_c, 0, 88, 57
1, 441119, Note_on_c, 0, 69, 75
1, 441122, Note_on_c, 0, 93, 94
1, 441124, Note_on_c, 0, 65, 70
1, 441124, Note_on_c, 0, 81, 97
1, 441125, Note_on_c, 0, 84, 85
1, 441129, Note_on_c, 0, 88, 76
1, 441130, Note_on_c, 0, 62, 67
1, 441133, Note_on_c, 0, 58, 68
1, 441190, Note_off_c, 0, 62, 62
1, 441190, Note_off_c, 0, 65, 58
1, 441202, Note_off_c, 0, 58, 61
1, 441202, Note_off_c, 0, 69, 58
1, 441204, Note_off_c, 0, 88, 61
1, 441205, Note_off_c, 0, 93, 64
1, 441216, Note_off_c, 0, 84, 64
1, 441217, Note_off_c, 0, 81, 62
1, 441302, Note_on_c, 0, 65, 74
1, 441302, Note_on_c, 0, 91, 92
1, 441303, Note_on_c, 0, 79, 88
1, 441303, Note_on_c, 0, 84, 86
1, 441306, Note_on_c, 0, 69, 80
1, 441307, Note_on_c, 0, 58, 66
1, 441309, Note_on_c, 0, 88, 76
1, 441315, Note_on_c, 0, 62, 67
1, 441347, Note_off_c, 0, 58, 63
1, 441348, Note_off_c, 0, 62, 65
1, 441351, Note_off_c, 0, 65, 63
1, 441368, Note_off_c, 0, 69, 65
1, 441369, Note_off_c, 0, 88, 64
1, 441372, Note_off_c, 0, 91, 64
1, 441379, Note_off_c, 0, 79, 65
1, 441381, Note_off_c, 0, 84, 64
1, 441470, Control_c, 0, 64, 96
1, 441485, Control_c, 0, 64, 66
1, 441489, Note_on_c, 0, 62, 82
1, 441493, Note_on_c, 0, 72, 87
1, 441494, Note_on_c, 0, 77, 105
1, 441496, Note_on_c, 0, 89, 98
1, 441497, Note_on_c, 0, 69, 79
1, 441500, Control_c, 0, 64, 46
1, 441500, Note_on_c, 0, 65, 70
1, 441504, Note_on_c, 0, 86, 78
1, 441515, Control_c, 0, 64, 37
1, 441529, Control_c, 0, 64, 51
1, 441544, Control_c, 0, 64, 66
1, 441559, Control_c, 0, 64, 94
1, 441574, Note_off_c, 0, 86, 61
1, 441574, Control_c, 0, 64, 127
1, 441601, Note_off_c, 0, 77, 60
1, 441607, Note_off_c, 0, 72, 62
1, 441618, Note_off_c, 0, 89, 55
1, 441676, Note_on_c, 0, 77, 80
1, 441676, Note_on_c, 0, 74, 89
1, 441702, Note_off_c, 0, 69, 66
1, 441714, Note_off_c, 0, 65, 62
1, 441714, Note_off_c, 0, 74, 67
1, 441741, Note_off_c, 0, 62, 66
1, 441744, Note_off_c, 0, 77, 66
1, 441855, Note_on_c, 0, 79, 95
1, 441862, Note_on_c, 0, 76, 92
1, 441974, Control_c, 0, 64, 86
1, 441989, Control_c, 0, 64, 59
1, 442004, Control_c, 0, 64, 26
1, 442019, Control_c, 0, 64, 32
1, 442022, Note_on_c, 0, 77, 83
1, 442024, Note_on_c, 0, 81, 86
1, 442033, Control_c, 0, 64, 61
1, 442034, Note_off_c, 0, 76, 59
1, 442039, Note_off_c, 0, 79, 63
1, 442047, Note_on_c, 0, 41, 96
1, 442047, Note_on_c, 0, 48, 97
1, 442047, Note_off_c, 0, 77, 70
1, 442048, Control_c, 0, 64, 98
1, 442063, Control_c, 0, 64, 127
1, 442066, Note_off_c, 0, 81, 67
1, 442098, Note_off_c, 0, 41, 64
1, 442107, Note_off_c, 0, 48, 66
1, 442215, Note_on_c, 0, 92, 26
1, 442251, Note_off_c, 0, 92, 42
1, 442345, Note_on_c, 0, 96, 100
1, 442347, Note_on_c, 0, 76, 104
1, 442348, Note_on_c, 0, 65, 95
1, 442348, Note_on_c, 0, 91, 89
1, 442349, Note_on_c, 0, 84, 97
1, 442353, Note_on_c, 0, 72, 96
1, 442358, Note_on_c, 0, 69, 87
1, 442358, Note_on_c, 0, 94, 81
1, 442420, Note_on_c, 0, 86, 7
1, 442421, Note_off_c, 0, 86, 127
1, 442433, Note_off_c, 0, 94, 59
1, 442446, Note_off_c, 0, 91, 58
1, 442476, Note_off_c, 0, 96, 57
1, 442537, Note_off_c, 0, 65, 62
1, 442538, Note_off_c, 0, 76, 62
1, 442553, Note_off_c, 0, 72, 62
1, 442554, Note_off_c, 0, 69, 64
1, 442571, Note_on_c, 0, 93, 72
1, 442609, Note_on_c, 0, 76, 78
1, 442610, Note_off_c, 0, 84, 61
1, 442612, Note_on_c, 0, 69, 69
1, 442613, Note_on_c, 0, 65, 81
1, 442613, Note_on_c, 0, 72, 61
1, 442620, Note_on_c, 0, 89, 26
1, 442636, Note_on_c, 0, 74, 50
1, 442653, Note_off_c, 0, 93, 54
1, 442656, Note_off_c, 0, 72, 50
1, 442656, Note_off_c, 0, 89, 43
1, 442661, Note_off_c, 0, 74, 59
1, 442680, Note_off_c, 0, 65, 56
1, 442683, Note_off_c, 0, 76, 51
1, 442692, Note_off_c, 0, 69, 54
1, 442761, Note_on_c, 0, 96, 95
1, 442762, Note_on_c, 0, 91, 79
1, 442764, Note_on_c, 0, 88, 88
1, 442766, Note_on_c, 0, 84, 95
1, 442773, Note_on_c, 0, 76, 93
1, 442777, Note_on_c, 0, 65, 87
1, 442782, Note_on_c, 0, 72, 81
1, 442785, Note_on_c, 0, 69, 79
1, 442803, Note_on_c, 0, 94, 46
1, 442829, Note_off_c, 0, 94, 50
1, 442832, Note_off_c, 0, 96, 65
1, 442841, Note_off_c, 0, 91, 64
1, 442846, Note_off_c, 0, 88, 66
1, 442850, Note_off_c, 0, 84, 64
1, 442853, Note_off_c, 0, 72, 56
1, 442862, Note_off_c, 0, 76, 59
1, 442864, Note_off_c, 0, 65, 57
1, 442877, Note_off_c, 0, 69, 63
1, 442942, Note_on_c, 0, 93, 99
1, 442943, Note_on_c, 0, 86, 88
1, 442952, Note_on_c, 0, 81, 93
1, 442957, Note_on_c, 0, 76, 80
1, 442961, Note_on_c, 0, 89, 70
1, 442963, Note_on_c, 0, 72, 74
1, 442964, Note_on_c, 0, 69, 69
1, 442966, Note_on_c, 0, 65, 72
1, 442988, Note_off_c, 0, 89, 64
1, 443004, Note_off_c, 0, 86, 63
1, 443007, Note_off_c, 0, 81, 63
1, 443021, Note_off_c, 0, 65, 57
1, 443025, Note_off_c, 0, 93, 66
1, 443026, Note_off_c, 0, 76, 54
1, 443028, Note_off_c, 0, 72, 55
1, 443040, Note_off_c, 0, 69, 63
1, 443137, Note_on_c, 0, 76, 88
1, 443138, Note_on_c, 0, 88, 101
1, 443138, Note_on_c, 0, 98, 99
1, 443140, Note_on_c, 0, 65, 75
1, 443141, Note_on_c, 0, 72, 83
1, 443145, Note_on_c, 0, 84, 92
1, 443145, Note_on_c, 0, 69, 83
1, 443215, Note_off_c, 0, 72, 57
1, 443220, Note_off_c, 0, 76, 59
1, 443220, Note_off_c, 0, 84, 60
1, 443222, Note_off_c, 0, 65, 60
1, 443235, Note_off_c, 0, 69, 62
1, 443238, Note_off_c, 0, 88, 55
1, 443262, Note_off_c, 0, 98, 55
1, 443318, Note_on_c, 0, 76, 78
1, 443318, Note_on_c, 0, 72, 76
1, 443319, Note_on_c, 0, 88, 68
1, 443322, Note_on_c, 0, 65, 73
1, 443323, Note_on_c, 0, 69, 70
1, 443325, Note_on_c, 0, 84, 81
1, 443366, Note_off_c, 0, 84, 62
1, 443369, Note_off_c, 0, 88, 67
1, 443371, Note_off_c, 0, 72, 56
1, 443372, Note_off_c, 0, 76, 59
1, 443379, Note_off_c, 0, 65, 55
1, 443392, Note_off_c, 0, 69, 63
1, 443491, Note_on_c, 0, 76, 72
1, 443493, Note_on_c, 0, 88, 102
1, 443494, Note_on_c, 0, 98, 101
1, 443494, Note_on_c, 0, 65, 72
1, 443497, Note_on_c, 0, 72, 67
1, 443497, Note_on_c, 0, 84, 95
1, 443501, Note_on_c, 0, 69, 75
1, 443546, Note_on_c, 0, 96, 13
1, 443547, Note_off_c, 0, 96, 127
1, 443559, Note_off_c, 0, 72, 53
1, 443569, Note_off_c, 0, 76, 51
1, 443588, Note_off_c, 0, 69, 52
1, 443590, Note_off_c, 0, 65, 51
1, 443590, Note_off_c, 0, 84, 63
1, 443608, Note_off_c, 0, 88, 62
1, 443614, Note_off_c, 0, 98, 54
1, 443657, Note_on_c, 0, 76, 62
1, 443658, Note_on_c, 0, 65, 49
1, 443666, Note_on_c, 0, 69, 44
1, 443674, Note_on_c, 0, 88, 84
1, 443675, Note_on_c, 0, 72, 55
1, 443679, Note_on_c, 0, 84, 89
1, 443688, Note_off_c, 0, 76, 64
1, 443701, Note_off_c, 0, 65, 64
1, 443703, Note_off_c, 0, 69, 67
1, 443703, Note_off_c, 0, 72, 59
1, 443732, Note_off_c, 0, 88, 66
1, 443740, Note_off_c, 0, 84, 65
1, 443867, Note_on_c, 0, 89, 99
1, 443867, Note_on_c, 0, 96, 101
1, 443873, Note_on_c, 0, 72, 77
1, 443874, Note_on_c, 0, 84, 92
1, 443874, Note_on_c, 0, 86, 91
1, 443876, Note_on_c, 0, 69, 78
1, 443878, Note_on_c, 0, 65, 64
1, 443881, Note_on_c, 0, 62, 77
1, 443946, Note_off_c, 0, 69, 64
1, 443951, Note_off_c, 0, 84, 59
1, 443952, Note_off_c, 0, 86, 56
1, 443955, Note_off_c, 0, 62, 64
1, 443956, Note_off_c, 0, 72, 62
1, 443958, Note_off_c, 0, 65, 63
1, 443982, Note_off_c, 0, 89, 60
1, 443996, Note_off_c, 0, 96, 61
1, 444044, Note_on_c, 0, 72, 83
1, 444052, Note_on_c, 0, 69, 74
1, 444057, Note_on_c, 0, 62, 70
1, 444062, Note_on_c, 0, 65, 71
1, 444062, Note_on_c, 0, 89, 67
1, 444065, Note_on_c, 0, 86, 58
1, 444076, Note_off_c, 0, 89, 68
1, 444083, Note_off_c, 0, 86, 63
1, 444108, Note_off_c, 0, 69, 60
1, 444117, Note_off_c, 0, 72, 56
1, 444123, Note_off_c, 0, 65, 49
1, 444129, Note_off_c, 0, 62, 56
1, 444236, Note_on_c, 0, 96, 101
1, 444238, Note_on_c, 0, 84, 103
1, 444238, Note_on_c, 0, 88, 102
1, 444243, Note_on_c, 0, 69, 71
1, 444243, Note_on_c, 0, 72, 79
1, 444250, Note_on_c, 0, 65, 69
1, 444254, Note_on_c, 0, 62, 70
1, 444274, Note_off_c, 0, 88, 67
1, 444284, Note_off_c, 0, 84, 63
1, 444293, Note_off_c, 0, 96, 63
1, 444296, Note_off_c, 0, 69, 65
1, 444306, Note_off_c, 0, 72, 60
1, 444309, Note_off_c, 0, 65, 62
1, 444311, Note_off_c, 0, 62, 62
1, 444404, Note_on_c, 0, 69, 37
1, 444421, Note_on_c, 0, 62, 41
1, 444427, Note_on_c, 0, 93, 102
1, 444428, Note_on_c, 0, 81, 98
1, 444433, Note_off_c, 0, 69, 57
1, 444463, Note_off_c, 0, 62, 51
1, 444481, Note_off_c, 0, 93, 60
1, 444487, Note_off_c, 0, 81, 59
1, 444530, Note_on_c, 0, 48, 94
1, 444531, Note_on_c, 0, 41, 83
1, 444549, Note_off_c, 0, 48, 68
1, 444556, Note_off_c, 0, 41, 65
1, 444790, Note_on_c, 0, 91, 96
1, 444791, Note_on_c, 0, 82, 101
1, 444792, Note_on_c, 0, 79, 101
1, 444793, Note_on_c, 0, 65, 78
1, 444797, Note_on_c, 0, 69, 88
1, 444805, Note_on_c, 0, 62, 74
1, 444806, Note_on_c, 0, 58, 73
1, 444893, Note_off_c, 0, 65, 60
1, 444895, Note_off_c, 0, 58, 62
1, 444899, Note_off_c, 0, 62, 63
1, 444925, Note_off_c, 0, 69, 61
1, 444967, Note_off_c, 0, 79, 45
1, 444996, Note_off_c, 0, 82, 46
1, 445027, Note_on_c, 0, 65, 59
1, 445036, Note_on_c, 0, 69, 48
1, 445043, Note_on_c, 0, 58, 45
1, 445044, Note_on_c, 0, 62, 52
1, 445071, Note_off_c, 0, 91, 50
1, 445077, Note_on_c, 0, 89, 50
1, 445084, Note_on_c, 0, 81, 43
1, 445092, Note_off_c, 0, 62, 59
1, 445096, Note_off_c, 0, 58, 58
1, 445099, Note_off_c, 0, 65, 61
1, 445108, Note_off_c, 0, 69, 56
1, 445113, Note_off_c, 0, 81, 54
1, 445132, Note_off_c, 0, 89, 54
1, 445228, Note_on_c, 0, 65, 71
1, 445228, Note_on_c, 0, 69, 79
1, 445230, Note_on_c, 0, 79, 98
1, 445230, Note_on_c, 0, 91, 91
1, 445232, Note_on_c, 0, 88, 85
1, 445235, Note_on_c, 0, 62, 72
1, 445238, Note_on_c, 0, 58, 62
1, 445315, Note_off_c, 0, 88, 64
1, 445321, Note_off_c, 0, 79, 61
1, 445324, Note_off_c, 0, 62, 64
1, 445327, Note_off_c, 0, 91, 64
1, 445328, Note_off_c, 0, 58, 62
1, 445329, Note_off_c, 0, 65, 62
1, 445334, Note_off_c, 0, 69, 59
1, 445425, Note_on_c, 0, 93, 98
1, 445427, Note_on_c, 0, 81, 95
1, 445428, Note_on_c, 0, 69, 84
1, 445429, Note_on_c, 0, 89, 78
1, 445431, Note_on_c, 0, 65, 80
1, 445432, Note_on_c, 0, 86, 83
1, 445438, Note_on_c, 0, 62, 74
1, 445441, Note_on_c, 0, 58, 69
1, 445487, Note_off_c, 0, 89, 64
1, 445505, Note_off_c, 0, 86, 62
1, 445518, Note_off_c, 0, 93, 64
1, 445524, Note_off_c, 0, 81, 61
1, 445526, Note_off_c, 0, 62, 60
1, 445527, Note_off_c, 0, 65, 60
1, 445529, Note_off_c, 0, 58, 60
1, 445533, Note_off_c, 0, 69, 57
1, 445614, Note_on_c, 0, 91, 100
1, 445617, Note_on_c, 0, 79, 93
1, 445619, Note_on_c, 0, 69, 89
1, 445627, Note_on_c, 0, 84, 82
1, 445628, Note_on_c, 0, 65, 80
1, 445633, Note_on_c, 0, 62, 77
1, 445636, Note_on_c, 0, 58, 69
1, 445695, Note_off_c, 0, 84, 62
1, 445712, Note_off_c, 0, 58, 60
1, 445721, Note_off_c, 0, 69, 60
1, 445722, Note_off_c, 0, 62, 61
1, 445727, Note_off_c, 0, 65, 58
1, 445748, Note_off_c, 0, 79, 49
1, 445792, Note_on_c, 0, 79, 42
1, 445795, Note_on_c, 0, 69, 85
1, 445795, Note_on_c, 0, 88, 71
1, 445801, Note_on_c, 0, 84, 77
1, 445806, Note_on_c, 0, 65, 73
1, 445807, Note_on_c, 0, 58, 68
1, 445810, Note_on_c, 0, 62, 69
1, 445825, Note_off_c, 0, 91, 59
1, 445868, Note_off_c, 0, 84, 53
1, 445878, Note_off_c, 0, 58, 59
1, 445878, Note_off_c, 0, 65, 54
1, 445878, Note_off_c, 0, 79, 58
1, 445882, Note_off_c, 0, 62, 59
1, 445891, Note_off_c, 0, 69, 57
1, 445912, Note_off_c, 0, 88, 62
1, 445986, Note_on_c, 0, 89, 95
1, 445989, Note_on_c, 0, 69, 88
1, 445990, Note_on_c, 0, 77, 97
1, 445995, Note_on_c, 0, 65, 79
1, 445998, Note_on_c, 0, 62, 76
1, 445999, Note_on_c, 0, 58, 74
1, 446005, Note_on_c, 0, 84, 72
1, 446032, Note_off_c, 0, 84, 61
1, 446067, Note_off_c, 0, 58, 59
1, 446070, Note_off_c, 0, 69, 55
1, 446073, Note_off_c, 0, 62, 61
1, 446076, Note_off_c, 0, 65, 52
1, 446083, Note_off_c, 0, 77, 59
1, 446093, Note_off_c, 0, 89, 60
1, 446159, Note_on_c, 0, 69, 87
1, 446160, Note_on_c, 0, 58, 70
1, 446164, Note_on_c, 0, 88, 96
1, 446168, Note_on_c, 0, 76, 98
1, 446169, Note_on_c, 0, 65, 66
1, 446184, Note_on_c, 0, 62, 51
1, 446196, Note_off_c, 0, 65, 66
1, 446206, Note_off_c, 0, 62, 62
1, 446211, Note_off_c, 0, 58, 63
1, 446214, Note_off_c, 0, 69, 65
1, 446240, Note_off_c, 0, 76, 60
1, 446248, Note_off_c, 0, 88, 65
1, 446272, Poly_aftertouch_c, 0, 77, 0
1, 446341, Note_on_c, 0, 62, 70
1, 446344, Note_on_c, 0, 72, 90
1, 446349, Note_on_c, 0, 74, 89
1, 446351, Note_on_c, 0, 86, 89
1, 446352, Note_on_c, 0, 65, 52
1, 446353, Note_on_c, 0, 69, 77
1, 446357, Note_on_c, 0, 88, 82
1, 446369, Note_on_c, 0, 77, 63
1, 446379, Note_off_c, 0, 88, 71
1, 446389, Note_off_c, 0, 77, 62
1, 446448, Note_off_c, 0, 69, 60
1, 446463, Note_off_c, 0, 72, 61
1, 446476, Note_off_c, 0, 65, 62
1, 446478, Note_off_c, 0, 62, 62
1, 446487, Note_off_c, 0, 74, 53
1, 446508, Note_off_c, 0, 86, 63
1, 446547, Note_on_c, 0, 65, 75
1, 446550, Note_on_c, 0, 69, 78
1, 446550, Note_on_c, 0, 72, 86
1, 446551, Note_on_c, 0, 77, 89
1, 446555, Note_on_c, 0, 62, 72
1, 446555, Note_on_c, 0, 74, 80
1, 446618, Note_off_c, 0, 74, 61
1, 446627, Note_off_c, 0, 69, 57
1, 446629, Note_off_c, 0, 77, 61
1, 446637, Note_off_c, 0, 62, 60
1, 446642, Note_off_c, 0, 72, 56
1, 446653, Note_off_c, 0, 65, 59
1, 446730, Note_on_c, 0, 84, 98
1, 446731, Note_on_c, 0, 76, 105
1, 446740, Note_on_c, 0, 69, 76
1, 446740, Note_on_c, 0, 79, 86
1, 446743, Note_on_c, 0, 65, 69
1, 446744, Note_on_c, 0, 72, 74
1, 446746, Note_on_c, 0, 62, 70
1, 446780, Note_off_c, 0, 62, 61
1, 446782, Note_off_c, 0, 69, 64
1, 446792, Note_off_c, 0, 65, 62
1, 446797, Note_off_c, 0, 72, 52
1, 446875, Note_off_c, 0, 79, 56
1, 446880, Note_on_c, 0, 62, 52
1, 446883, Note_off_c, 0, 76, 0
1, 446898, Note_on_c, 0, 69, 25
1, 446901, Note_on_c, 0, 81, 84
1, 446906, Note_on_c, 0, 76, 36
1, 446906, Note_off_c, 0, 62, 58
1, 446908, Note_on_c, 0, 77, 79
1, 446926, Note_off_c, 0, 69, 57
1, 446937, Note_off_c, 0, 77, 64
1, 446938, Note_off_c, 0, 76, 52
1, 446948, Note_off_c, 0, 84, 62
1, 446961, Note_off_c, 0, 81, 64
1, 446992, Note_on_c, 0, 48, 92
1, 446998, Note_on_c, 0, 41, 76
1, 447010, Note_off_c, 0, 48, 69
1, 447011, Note_on_c, 0, 40, 55
1, 447023, Note_off_c, 0, 41, 63
1, 447039, Note_off_c, 0, 40, 60
1, 447155, Poly_aftertouch_c, 0, 48, 0
1, 447250, Note_on_c, 0, 89, 102
1, 447253, Note_on_c, 0, 77, 95
1, 447253, Note_on_c, 0, 82, 94
1, 447265, Note_on_c, 0, 76, 83
1, 447266, Note_on_c, 0, 72, 77
1, 447268, Note_on_c, 0, 65, 73
1, 447279, Note_on_c, 0, 69, 73
1, 447383, Note_off_c, 0, 77, 60
1, 447392, Note_off_c, 0, 76, 59
1, 447399, Note_off_c, 0, 82, 59
1, 447402, Note_off_c, 0, 69, 60
1, 447407, Note_off_c, 0, 65, 57
1, 447407, Note_off_c, 0, 72, 57
1, 447477, Note_on_c, 0, 81, 75
1, 447486, Note_on_c, 0, 77, 74
1, 447498, Note_on_c, 0, 72, 59
1, 447500, Note_on_c, 0, 76, 70
1, 447507, Note_off_c, 0, 89, 57
1, 447512, Note_on_c, 0, 65, 55
1, 447512, Note_off_c, 0, 77, 67
1, 447512, Note_on_c, 0, 69, 54
1, 447518, Note_off_c, 0, 81, 64
1, 447546, Note_off_c, 0, 72, 56
1, 447548, Note_off_c, 0, 69, 63
1, 447551, Note_off_c, 0, 76, 53
1, 447554, Note_off_c, 0, 65, 57
1, 447665, Note_on_c, 0, 89, 103
1, 447669, Control_c, 0, 64, 124
1, 447673, Note_on_c, 0, 77, 92
1, 447677, Note_on_c, 0, 79, 88
1, 447679, Note_on_c, 0, 76, 66
1, 447684, Note_on_c, 0, 69, 56
1, 447684, Control_c, 0, 64, 86
1, 447688, Note_on_c, 0, 72, 63
1, 447689, Note_on_c, 0, 65, 58
1, 447698, Control_c, 0, 64, 72
1, 447713, Control_c, 0, 64, 70
1, 447728, Control_c, 0, 64, 76
1, 447742, Control_c, 0, 64, 104
1, 447755, Note_off_c, 0, 79, 50
1, 447757, Control_c, 0, 64, 127
1, 447766, Note_off_c, 0, 65, 58
1, 447770, Note_off_c, 0, 72, 50
1, 447772, Note_off_c, 0, 76, 54
1, 447778, Note_off_c, 0, 69, 55
1, 447778, Note_off_c, 0, 77, 47
1, 447865, Note_on_c, 0, 76, 72
1, 447866, Note_on_c, 0, 77, 66
1, 447874, Note_on_c, 0, 69, 51
1, 447875, Note_on_c, 0, 72, 58
1, 447887, Note_on_c, 0, 65, 49
1, 447904, Note_off_c, 0, 89, 53
1, 447909, Note_off_c, 0, 77, 62
1, 447912, Note_off_c, 0, 72, 57
1, 447924, Note_off_c, 0, 65, 54
1, 447927, Note_off_c, 0, 76, 57
1, 447928, Note_off_c, 0, 69, 59
1, 448043, Note_on_c, 0, 88, 96
1, 448046, Note_on_c, 0, 76, 86
1, 448056, Note_on_c, 0, 69, 61
1, 448058, Note_on_c, 0, 72, 69
1, 448061, Note_on_c, 0, 65, 58
1, 448112, Note_off_c, 0, 72, 49
1, 448123, Note_off_c, 0, 65, 44
1, 448133, Note_off_c, 0, 69, 54
1, 448218, Note_off_c, 0, 88, 60
1, 448246, Note_on_c, 0, 72, 61
1, 448246, Note_on_c, 0, 65, 55
1, 448246, Note_on_c, 0, 69, 65
1, 448299, Note_off_c, 0, 72, 51
1, 448300, Note_off_c, 0, 65, 51
1, 448315, Note_off_c, 0, 69, 63
1, 448318, Note_off_c, 0, 76, 57
1, 448421, Note_on_c, 0, 86, 90
1, 448432, Note_on_c, 0, 74, 73
1, 448434, Note_on_c, 0, 76, 64
1, 448439, Note_on_c, 0, 65, 45
1, 448442, Note_on_c, 0, 69, 59
1, 448445, Note_on_c, 0, 72, 58
1, 448478, Note_off_c, 0, 72, 62
1, 448484, Note_off_c, 0, 65, 57
1, 448487, Note_off_c, 0, 69, 63
1, 448494, Note_off_c, 0, 76, 57
1, 448497, Note_off_c, 0, 74, 60
1, 448505, Note_off_c, 0, 86, 61
1, 448603, Note_on_c, 0, 65, 58
1, 448606, Note_on_c, 0, 72, 61
1, 448609, Note_on_c, 0, 69, 55
1, 448636, Note_off_c, 0, 72, 64
1, 448638, Note_off_c, 0, 69, 63
1, 448665, Note_off_c, 0, 65, 63
1, 448788, Control_c, 0, 64, 116
1, 448803, Control_c, 0, 64, 68
1, 448811, Note_on_c, 0, 84, 94
1, 448817, Note_on_c, 0, 74, 78
1, 448817, Note_on_c, 0, 77, 86
1, 448818, Control_c, 0, 64, 51
1, 448824, Note_on_c, 0, 72, 72
1, 448831, Note_on_c, 0, 69, 74
1, 448833, Control_c, 0, 64, 41
1, 448834, Note_on_c, 0, 62, 66
1, 448843, Note_on_c, 0, 65, 70
1, 448848, Control_c, 0, 64, 53
1, 448863, Control_c, 0, 64, 70
1, 448878, Control_c, 0, 64, 127
1, 448907, Note_off_c, 0, 77, 56
1, 448910, Note_off_c, 0, 74, 59
1, 448926, Note_off_c, 0, 72, 49
1, 448931, Note_off_c, 0, 65, 52
1, 448941, Note_off_c, 0, 69, 58
1, 448945, Note_off_c, 0, 62, 60
1, 449015, Note_on_c, 0, 77, 89
1, 449017, Note_on_c, 0, 74, 87
1, 449021, Note_on_c, 0, 72, 81
1, 449022, Note_on_c, 0, 69, 77
1, 449029, Note_on_c, 0, 62, 71
1, 449030, Note_on_c, 0, 65, 73
1, 449099, Note_off_c, 0, 62, 60
1, 449100, Note_off_c, 0, 74, 61
1, 449101, Note_off_c, 0, 69, 61
1, 449106, Note_off_c, 0, 72, 58
1, 449107, Note_off_c, 0, 65, 60
1, 449134, Note_off_c, 0, 77, 57
1, 449207, Note_on_c, 0, 76, 92
1, 449207, Note_on_c, 0, 79, 93
1, 449213, Note_on_c, 0, 62, 75
1, 449213, Note_on_c, 0, 72, 81
1, 449214, Note_on_c, 0, 69, 75
1, 449223, Note_on_c, 0, 65, 72
1, 449280, Note_off_c, 0, 69, 60
1, 449284, Note_off_c, 0, 72, 55
1, 449286, Note_off_c, 0, 62, 60
1, 449295, Note_off_c, 0, 65, 56
1, 449334, Note_off_c, 0, 76, 57
1, 449373, Note_off_c, 0, 79, 59
1, 449402, Note_on_c, 0, 62, 50
1, 449404, Note_on_c, 0, 77, 91
1, 449405, Note_on_c, 0, 81, 86
1, 449426, Note_off_c, 0, 62, 62
1, 449448, Note_off_c, 0, 77, 66
1, 449468, Note_off_c, 0, 81, 66
1, 449477, Note_off_c, 0, 84, 20
1, 449611, Note_on_c, 0, 43, 96
1, 449614, Note_on_c, 0, 36, 96
1, 449621, Poly_aftertouch_c, 0, 44, 0
1, 449666, Note_off_c, 0, 36, 66
1, 449676, Note_off_c, 0, 43, 66
1, 449916, Note_on_c, 0, 96, 100
1, 449919, Note_on_c, 0, 84, 93
1, 449924, Note_on_c, 0, 91, 95
1, 449924, Note_on_c, 0, 58, 94
1, 449924, Note_on_c, 0, 69, 98
1, 449927, Note_on_c, 0, 65, 88
1, 449929, Note_on_c, 0, 62, 83
1, 449931, Poly_aftertouch_c, 0, 66, 127
1, 449943, Note_on_c, 0, 94, 75
1, 449965, Poly_aftertouch_c, 0, 66, 0
1, 449975, Note_off_c, 0, 94, 48
1, 449986, Note_off_c, 0, 91, 65
1, 450069, Note_off_c, 0, 58, 62
1, 450073, Note_off_c, 0, 62, 62
1, 450075, Note_off_c, 0, 69, 61
1, 450076, Note_off_c, 0, 65, 61
1, 450140, Note_on_c, 0, 93, 84
1, 450146, Note_on_c, 0, 69, 79
1, 450150, Note_on_c, 0, 89, 77
1, 450156, Note_on_c, 0, 58, 64
1, 450156, Note_on_c, 0, 65, 66
1, 450163, Note_on_c, 0, 62, 66
1, 450207, Note_off_c, 0, 65, 58
1, 450209, Note_off_c, 0, 62, 53
1, 450211, Note_off_c, 0, 69, 58
1, 450216, Note_off_c, 0, 89, 63
1, 450223, Note_off_c, 0, 58, 59
1, 450320, Note_off_c, 0, 93, 0
1, 450322, Note_on_c, 0, 91, 84
1, 450326, Note_on_c, 0, 69, 75
1, 450332, Note_on_c, 0, 88, 66
1, 450332, Note_off_c, 0, 96, 33
1, 450337, Note_on_c, 0, 65, 68
1, 450341, Note_on_c, 0, 62, 63
1, 450347, Note_on_c, 0, 58, 61
1, 450355, Note_on_c, 0, 89, 47
1, 450356, Poly_aftertouch_c, 0, 93, 127
1, 450371, Note_off_c, 0, 89, 39
1, 450375, Poly_aftertouch_c, 0, 93, 0
1, 450380, Note_off_c, 0, 65, 61
1, 450382, Note_off_c, 0, 88, 67
1, 450383, Note_off_c, 0, 84, 64
1, 450385, Note_off_c, 0, 91, 65
1, 450386, Note_off_c, 0, 69, 60
1, 450391, Note_off_c, 0, 58, 58
1, 450393, Note_off_c, 0, 62, 61
1, 450517, Note_on_c, 0, 93, 91
1, 450519, Note_on_c, 0, 86, 87
1, 450520, Note_on_c, 0, 69, 80
1, 450521, Note_on_c, 0, 81, 92
1, 450525, Note_on_c, 0, 89, 76
1, 450528, Note_on_c, 0, 62, 67
1, 450530, Note_on_c, 0, 58, 65
1, 450530, Note_on_c, 0, 65, 69
1, 450580, Note_off_c, 0, 86, 61
1, 450589, Note_off_c, 0, 81, 63
1, 450589, Note_off_c, 0, 69, 57
1, 450592, Note_off_c, 0, 93, 65
1, 450593, Note_off_c, 0, 65, 57
1, 450593, Note_off_c, 0, 89, 64
1, 450598, Note_off_c, 0, 58, 60
1, 450605, Note_off_c, 0, 62, 59
1, 450708, Note_on_c, 0, 69, 79
1, 450715, Note_on_c, 0, 65, 71
1, 450717, Note_on_c, 0, 58, 74
1, 450717, Note_on_c, 0, 82, 97
1, 450719, Note_on_c, 0, 94, 98
1, 450721, Note_on_c, 0, 62, 69
1, 450722, Note_on_c, 0, 84, 86
1, 450727, Note_on_c, 0, 88, 80
1, 450763, Note_off_c, 0, 65, 59
1, 450765, Note_off_c, 0, 62, 61
1, 450765, Note_off_c, 0, 69, 63
1, 450775, Note_off_c, 0, 58, 63
1, 450792, Note_off_c, 0, 94, 64
1, 450798, Note_off_c, 0, 84, 64
1, 450802, Note_off_c, 0, 88, 64
1, 450816, Note_off_c, 0, 82, 62
1, 450851, Note_on_c, 0, 69, 59
1, 450854, Note_on_c, 0, 58, 71
1, 450858, Note_on_c, 0, 65, 52
1, 450871, Note_off_c, 0, 69, 64
1, 450878, Note_off_c, 0, 58, 69
1, 450878, Note_on_c, 0, 84, 56
1, 450881, Note_on_c, 0, 88, 67
1, 450882, Note_off_c, 0, 65, 58
1, 450961, Note_on_c, 0, 41, 92
1, 450965, Note_on_c, 0, 48, 88
1, 450982, Note_off_c, 0, 41, 67
1, 450989, Note_off_c, 0, 48, 67
1, 451017, Note_off_c, 0, 84, 0
1, 451018, Poly_aftertouch_c, 0, 58, 0
1, 451069, Poly_aftertouch_c, 0, 84, 0
1, 451086, Note_off_c, 0, 88, 42
1, 451113, Poly_aftertouch_c, 0, 41, 0
1, 451134, Poly_aftertouch_c, 0, 41, 0
1, 451174, Note_on_c, 0, 93, 95
1, 451175, Note_on_c, 0, 84, 81
1, 451180, Note_on_c, 0, 81, 90
1, 451180, Note_on_c, 0, 88, 79
1, 451197, Note_on_c, 0, 58, 73
1, 451200, Note_on_c, 0, 65, 82
1, 451200, Note_on_c, 0, 69, 85
1, 451206, Note_on_c, 0, 62, 74
1, 451225, Note_on_c, 0, 85, 29
1, 451226, Note_off_c, 0, 85, 127
1, 451251, Note_off_c, 0, 65, 61
1, 451255, Note_off_c, 0, 69, 59
1, 451263, Note_off_c, 0, 58, 58
1, 451266, Note_off_c, 0, 62, 61
1, 451267, Note_off_c, 0, 88, 60
1, 451271, Note_off_c, 0, 84, 61
1, 451271, Note_off_c, 0, 93, 63
1, 451280, Note_off_c, 0, 81, 60
1, 451373, Note_on_c, 0, 69, 77
1, 451374, Note_on_c, 0, 91, 89
1, 451375, Note_on_c, 0, 58, 74
1, 451376, Note_on_c, 0, 88, 75
1, 451377, Note_on_c, 0, 65, 67
1, 451377, Note_on_c, 0, 79, 85
1, 451377, Note_on_c, 0, 84, 76
1, 451383, Note_on_c, 0, 62, 72
1, 451405, Note_off_c, 0, 58, 65
1, 451409, Note_off_c, 0, 62, 64
1, 451416, Note_off_c, 0, 65, 63
1, 451423, Note_off_c, 0, 69, 65
1, 451435, Note_off_c, 0, 88, 64
1, 451453, Note_off_c, 0, 84, 64
1, 451453, Note_off_c, 0, 91, 65
1, 451459, Note_off_c, 0, 79, 63
1, 451531, Control_c, 0, 64, 72
1, 451546, Control_c, 0, 64, 53
1, 451558, Note_on_c, 0, 89, 93
1, 451559, Note_on_c, 0, 72, 90
1, 451560, Control_c, 0, 64, 43
1, 451563, Note_on_c, 0, 77, 93
1, 451564, Note_on_c, 0, 69, 75
1, 451568, Note_on_c, 0, 62, 69
1, 451570, Note_on_c, 0, 86, 79
1, 451572, Note_on_c, 0, 65, 73
1, 451575, Control_c, 0, 64, 55
1, 451590, Control_c, 0, 64, 71
1, 451605, Control_c, 0, 64, 127
1, 451607, Note_off_c, 0, 69, 56
1, 451647, Note_off_c, 0, 62, 58
1, 451653, Note_off_c, 0, 72, 61
1, 451668, Note_off_c, 0, 65, 62
1, 451668, Note_off_c, 0, 86, 0
1, 451680, Note_off_c, 0, 77, 57
1, 451706, Poly_aftertouch_c, 0, 86, 0
1, 451708, Note_off_c, 0, 89, 57
1, 451747, Note_on_c, 0, 77, 72
1, 451759, Note_on_c, 0, 62, 65
1, 451760, Note_on_c, 0, 69, 52
1, 451760, Note_on_c, 0, 74, 60
1, 451762, Note_on_c, 0, 72, 63
1, 451768, Note_on_c, 0, 65, 57
1, 451787, Note_off_c, 0, 72, 52
1, 451790, Note_off_c, 0, 74, 53
1, 451790, Note_off_c, 0, 69, 54
1, 451793, Note_off_c, 0, 65, 62
1, 451799, Note_off_c, 0, 62, 63
1, 451801, Note_off_c, 0, 77, 65
1, 451937, Note_on_c, 0, 72, 67
1, 451937, Note_on_c, 0, 79, 91
1, 451943, Note_on_c, 0, 76, 78
1, 451946, Note_on_c, 0, 62, 63
1, 451947, Note_on_c, 0, 65, 55
1, 451953, Note_on_c, 0, 69, 50
1, 451992, Note_off_c, 0, 72, 50
1, 451993, Note_off_c, 0, 62, 61
1, 451993, Note_off_c, 0, 69, 48
1, 451994, Note_off_c, 0, 65, 56
1, 451999, Note_off_c, 0, 79, 59
1, 452019, Note_off_c, 0, 76, 45
1, 452118, Note_on_c, 0, 81, 85
1, 452122, Note_on_c, 0, 62, 62
1, 452122, Note_on_c, 0, 69, 60
1, 452126, Note_on_c, 0, 72, 61
1, 452136, Note_on_c, 0, 77, 61
1, 452139, Note_on_c, 0, 65, 48
1, 452146, Note_off_c, 0, 69, 64
1, 452150, Note_off_c, 0, 62, 68
1, 452155, Note_off_c, 0, 77, 66
1, 452158, Note_off_c, 0, 81, 65
1, 452160, Note_off_c, 0, 72, 64
1, 452166, Note_off_c, 0, 65, 55
1, 452324, Control_c, 0, 64, 78
1, 452339, Control_c, 0, 64, 61
1, 452349, Note_on_c, 0, 96, 103
1, 452353, Note_on_c, 0, 65, 50
1, 452353, Note_on_c, 0, 84, 94
1, 452353, Control_c, 0, 64, 47
1, 452358, Note_on_c, 0, 76, 66
1, 452362, Note_on_c, 0, 72, 56
1, 452364, Note_on_c, 0, 69, 62
1, 452365, Note_on_c, 0, 91, 69
1, 452368, Control_c, 0, 64, 45
1, 452379, Note_on_c, 0, 94, 54
1, 452383, Control_c, 0, 64, 56
1, 452398, Control_c, 0, 64, 69
1, 452402, Note_off_c, 0, 94, 53
1, 452413, Control_c, 0, 64, 110
1, 452413, Note_off_c, 0, 72, 54
1, 452422, Note_off_c, 0, 91, 34
1, 452428, Control_c, 0, 64, 127
1, 452429, Note_off_c, 0, 76, 53
1, 452448, Note_off_c, 0, 65, 54
1, 452449, Note_off_c, 0, 69, 54
1, 452485, Note_off_c, 0, 96, 62
1, 452545, Note_off_c, 0, 84, 0
1, 452549, Note_on_c, 0, 76, 59
1, 452550, Note_on_c, 0, 93, 77
1, 452555, Note_on_c, 0, 72, 51
1, 452558, Note_on_c, 0, 69, 63
1, 452558, Note_on_c, 0, 89, 65
1, 452562, Note_on_c, 0, 65, 54
1, 452583, Poly_aftertouch_c, 0, 84, 127
1, 452586, Note_off_c, 0, 89, 65
1, 452589, Note_off_c, 0, 76, 47
1, 452592, Note_off_c, 0, 72, 54
1, 452598, Note_off_c, 0, 65, 62
1, 452601, Note_off_c, 0, 69, 61
1, 452605, Note_off_c, 0, 93, 64
1, 452625, Poly_aftertouch_c, 0, 84, 0
1, 452729, Note_on_c, 0, 96, 99
1, 452731, Note_on_c, 0, 88, 91
1, 452732, Note_on_c, 0, 84, 93
1, 452738, Note_on_c, 0, 91, 80
1, 452739, Note_on_c, 0, 76, 71
1, 452750, Note_on_c, 0, 72, 52
1, 452753, Note_on_c, 0, 69, 58
1, 452755, Note_on_c, 0, 65, 50
1, 452789, Note_off_c, 0, 72, 57
1, 452794, Note_off_c, 0, 65, 61
1, 452800, Note_off_c, 0, 69, 61
1, 452800, Note_off_c, 0, 96, 65
1, 452802, Note_off_c, 0, 76, 60
1, 452804, Note_off_c, 0, 91, 62
1, 452805, Note_off_c, 0, 84, 65
1, 452806, Note_off_c, 0, 88, 65
1, 452911, Note_on_c, 0, 93, 101
1, 452917, Note_on_c, 0, 81, 92
1, 452917, Note_on_c, 0, 86, 91
1, 452923, Note_on_c, 0, 76, 77
1, 452924, Note_on_c, 0, 65, 65
1, 452926, Note_on_c, 0, 72, 70
1, 452930, Note_on_c, 0, 69, 66
1, 452963, Note_off_c, 0, 81, 64
1, 452967, Note_off_c, 0, 72, 58
1, 452969, Note_off_c, 0, 86, 65
1, 452972, Note_off_c, 0, 69, 61
1, 452982, Note_off_c, 0, 76, 59
1, 452983, Note_off_c, 0, 93, 67
1, 452985, Note_off_c, 0, 65, 63
1, 453105, Note_on_c, 0, 88, 100
1, 453105, Note_on_c, 0, 98, 102
1, 453110, Note_on_c, 0, 84, 99
1, 453111, Note_on_c, 0, 76, 77
1, 453113, Note_on_c, 0, 65, 76
1, 453117, Note_on_c, 0, 72, 75
1, 453125, Note_on_c, 0, 69, 67
1, 453131, Note_on_c, 0, 96, 61
1, 453140, Note_on_c, 0, 92, 43
1, 453147, Note_off_c, 0, 72, 63
1, 453153, Note_off_c, 0, 69, 66
1, 453162, Note_off_c, 0, 96, 47
1, 453163, Note_off_c, 0, 92, 61
1, 453170, Note_off_c, 0, 65, 62
1, 453170, Note_off_c, 0, 76, 60
1, 453171, Note_off_c, 0, 84, 63
1, 453183, Note_off_c, 0, 88, 65
1, 453230, Note_off_c, 0, 98, 57
1, 453259, Note_on_c, 0, 72, 52
1, 453262, Note_on_c, 0, 69, 50
1, 453278, Note_on_c, 0, 88, 87
1, 453283, Note_on_c, 0, 84, 79
1, 453289, Note_off_c, 0, 72, 65
1, 453292, Note_on_c, 0, 65, 48
1, 453303, Note_off_c, 0, 69, 66
1, 453320, Note_off_c, 0, 65, 54
1, 453360, Note_off_c, 0, 88, 57
1, 453361, Note_off_c, 0, 84, 59
1, 453407, Note_on_c, 0, 36, 90
1, 453413, Note_on_c, 0, 43, 86
1, 453435, Note_off_c, 0, 36, 68
1, 453441, Note_off_c, 0, 43, 68
1, 453560, Poly_aftertouch_c, 0, 36, 0
1, 453566, Poly_aftertouch_c, 0, 43, 0
1, 453590, Poly_aftertouch_c, 0, 36, 0
1, 453596, Poly_aftertouch_c, 0, 43, 0
1, 453613, Note_on_c, 0, 88, 94
1, 453616, Note_on_c, 0, 98, 97
1, 453620, Note_on_c, 0, 84, 96
1, 453626, Note_on_c, 0, 72, 88
1, 453626, Note_on_c, 0, 76, 92
1, 453632, Note_on_c, 0, 65, 77
1, 453632, Note_on_c, 0, 69, 77
1, 453653, Note_off_c, 0, 72, 63
1, 453655, Note_on_c, 0, 92, 32
1, 453659, Note_off_c, 0, 65, 65
1, 453662, Note_off_c, 0, 69, 65
1, 453662, Note_off_c, 0, 76, 51
1, 453683, Note_off_c, 0, 92, 57
1, 453714, Note_off_c, 0, 98, 60
1, 453731, Note_off_c, 0, 84, 58
1, 453736, Note_off_c, 0, 88, 64
1, 453804, Note_on_c, 0, 88, 79
1, 453808, Note_on_c, 0, 76, 78
1, 453809, Note_on_c, 0, 84, 84
1, 453811, Note_on_c, 0, 72, 77
1, 453827, Note_on_c, 0, 69, 63
1, 453835, Note_off_c, 0, 72, 67
1, 453839, Note_off_c, 0, 76, 65
1, 453844, Note_off_c, 0, 69, 69
1, 453847, Note_on_c, 0, 65, 41
1, 453847, Note_off_c, 0, 88, 67
1, 453850, Note_off_c, 0, 84, 63
1, 453873, Note_off_c, 0, 65, 53
1, 453998, Note_on_c, 0, 96, 101
1, 453999, Note_on_c, 0, 72, 62
1, 454000, Note_on_c, 0, 89, 94
1, 454005, Note_on_c, 0, 69, 59
1, 454005, Note_on_c, 0, 84, 92
1, 454007, Note_on_c, 0, 65, 50
1, 454007, Note_on_c, 0, 86, 92
1, 454019, Note_on_c, 0, 62, 70
1, 454029, Control_c, 0, 64, 113
1, 454044, Control_c, 0, 64, 98
1, 454058, Control_c, 0, 64, 97
1, 454073, Control_c, 0, 64, 98
1, 454080, Note_off_c, 0, 72, 55
1, 454088, Control_c, 0, 64, 102
1, 454092, Note_off_c, 0, 84, 62
1, 454094, Note_off_c, 0, 86, 59
1, 454097, Note_off_c, 0, 62, 62
1, 454101, Note_off_c, 0, 69, 60
1, 454103, Control_c, 0, 64, 114
1, 454109, Note_off_c, 0, 65, 61
1, 454110, Note_off_c, 0, 89, 62
1, 454118, Control_c, 0, 64, 127
1, 454138, Note_off_c, 0, 96, 50
1, 454201, Note_on_c, 0, 89, 44
1, 454210, Note_on_c, 0, 65, 51
1, 454212, Note_on_c, 0, 72, 47
1, 454214, Note_on_c, 0, 62, 54
1, 454228, Note_off_c, 0, 89, 56
1, 454235, Note_off_c, 0, 72, 57
1, 454241, Note_off_c, 0, 65, 60
1, 454243, Note_off_c, 0, 62, 57
1, 454274, Poly_aftertouch_c, 0, 86, 0
1, 454292, Poly_aftertouch_c, 0, 69, 0
1, 454391, Note_on_c, 0, 96, 105
1, 454392, Note_on_c, 0, 84, 97
1, 454393, Note_on_c, 0, 88, 93
1, 454395, Note_on_c, 0, 69, 66
1, 454396, Note_on_c, 0, 62, 60
1, 454398, Note_on_c, 0, 72, 64
1, 454403, Note_on_c, 0, 65, 68
1, 454416, Note_off_c, 0, 88, 68
1, 454425, Note_off_c, 0, 84, 64
1, 454432, Note_off_c, 0, 96, 64
1, 454451, Note_off_c, 0, 72, 58
1, 454452, Note_off_c, 0, 69, 61
1, 454458, Note_off_c, 0, 62, 60
1, 454467, Note_off_c, 0, 65, 60
1, 454575, Note_on_c, 0, 69, 59
1, 454577, Note_on_c, 0, 93, 97
1, 454580, Note_on_c, 0, 81, 92
1, 454590, Note_on_c, 0, 62, 51
1, 454591, Note_on_c, 0, 65, 55
1, 454596, Note_off_c, 0, 69, 63
1, 454610, Note_off_c, 0, 62, 63
1, 454613, Note_off_c, 0, 93, 66
1, 454615, Note_off_c, 0, 65, 57
1, 454616, Note_off_c, 0, 81, 64
1, 454734, Control_c, 0, 64, 68
1, 454749, Control_c, 0, 64, 29
1, 454763, Control_c, 0, 64, 0
1, 454767, Note_on_c, 0, 91, 91
1, 454768, Note_on_c, 0, 79, 88
1, 454772, Note_on_c, 0, 82, 82
1, 454776, Note_on_c, 0, 69, 65
1, 454777, Note_on_c, 0, 62, 52
1, 454780, Note_on_c, 0, 65, 53
1, 454781, Note_on_c, 0, 58, 58
1, 454793, Control_c, 0, 64, 42
1, 454807, Control_c, 0, 64, 66
1, 454822, Control_c, 0, 64, 119
1, 454837, Control_c, 0, 64, 127
1, 454854, Note_off_c, 0, 79, 59
1, 454856, Note_off_c, 0, 82, 51
1, 454857, Note_off_c, 0, 58, 59
1, 454866, Note_off_c, 0, 62, 64
1, 454867, Note_off_c, 0, 69, 60
1, 454872, Note_off_c, 0, 65, 62
1, 454916, Note_off_c, 0, 91, 58
1, 454968, Note_on_c, 0, 89, 75
1, 454974, Note_on_c, 0, 81, 59
1, 454979, Note_on_c, 0, 69, 62
1, 454991, Note_on_c, 0, 65, 51
1, 454999, Note_off_c, 0, 81, 56
1, 455000, Note_on_c, 0, 58, 46
1, 455021, Note_on_c, 0, 62, 32
1, 455024, Note_off_c, 0, 65, 52
1, 455024, Note_off_c, 0, 69, 52
1, 455034, Note_off_c, 0, 89, 55
1, 455041, Note_off_c, 0, 58, 50
1, 455053, Note_off_c, 0, 62, 53
1, 455159, Note_on_c, 0, 79, 94
1, 455160, Note_on_c, 0, 91, 93
1, 455161, Note_on_c, 0, 88, 87
1, 455162, Note_on_c, 0, 62, 54
1, 455167, Note_on_c, 0, 58, 48
1, 455167, Note_on_c, 0, 69, 62
1, 455176, Note_on_c, 0, 65, 58
1, 455201, Note_on_c, 0, 89, 27
1, 455202, Note_off_c, 0, 89, 127
1, 455220, Note_off_c, 0, 58, 56
1, 455237, Note_off_c, 0, 79, 64
1, 455245, Note_off_c, 0, 62, 58
1, 455245, Note_off_c, 0, 69, 51
1, 455248, Note_off_c, 0, 88, 65
1, 455254, Note_off_c, 0, 65, 58
1, 455258, Note_off_c, 0, 91, 66
1, 455347, Note_on_c, 0, 93, 100
1, 455352, Note_on_c, 0, 81, 90
1, 455352, Note_on_c, 0, 89, 75
1, 455361, Note_on_c, 0, 86, 84
1, 455361, Note_on_c, 0, 69, 76
1, 455370, Note_on_c, 0, 65, 69
1, 455373, Note_on_c, 0, 62, 63
1, 455378, Note_on_c, 0, 58, 63
1, 455415, Note_off_c, 0, 86, 60
1, 455419, Note_off_c, 0, 89, 64
1, 455421, Note_off_c, 0, 58, 57
1, 455421, Note_off_c, 0, 69, 60
1, 455425, Note_off_c, 0, 65, 59
1, 455433, Note_off_c, 0, 81, 64
1, 455434, Note_off_c, 0, 93, 65
1, 455435, Note_off_c, 0, 62, 56
1, 455541, Note_on_c, 0, 91, 97
1, 455543, Note_on_c, 0, 79, 98
1, 455549, Note_on_c, 0, 69, 70
1, 455554, Note_on_c, 0, 65, 57
1, 455554, Note_on_c, 0, 84, 80
1, 455555, Note_on_c, 0, 58, 59
1, 455558, Note_on_c, 0, 62, 57
1, 455578, Note_off_c, 0, 84, 67
1, 455592, Note_off_c, 0, 65, 63
1, 455593, Note_off_c, 0, 58, 63
1, 455597, Note_off_c, 0, 62, 62
1, 455600, Note_off_c, 0, 69, 52
1, 455682, Note_on_c, 0, 65, 67
1, 455694, Note_on_c, 0, 58, 67
1, 455695, Poly_aftertouch_c, 0, 69, 0
1, 455699, Note_off_c, 0, 65, 65
1, 455704, Note_on_c, 0, 88, 68
1, 455714, Poly_aftertouch_c, 0, 84, 127
1, 455719, Note_off_c, 0, 58, 68
1, 455778, Poly_aftertouch_c, 0, 84, 0
1, 455795, Note_on_c, 0, 41, 89
1, 455799, Note_on_c, 0, 48, 87
1, 455800, Note_off_c, 0, 88, 62
1, 455815, Note_off_c, 0, 79, 60
1, 455816, Note_off_c, 0, 41, 67
1, 455824, Note_off_c, 0, 48, 67
1, 455845, Note_off_c, 0, 91, 54
1, 455863, Poly_aftertouch_c, 0, 58, 0
1, 455970, Poly_aftertouch_c, 0, 41, 0
1, 456012, Note_on_c, 0, 89, 94
1, 456013, Note_on_c, 0, 58, 47
1, 456017, Note_on_c, 0, 77, 85
1, 456029, Note_on_c, 0, 65, 62
1, 456032, Note_on_c, 0, 69, 66
1, 456033, Note_on_c, 0, 84, 62
1, 456036, Note_on_c, 0, 62, 65
1, 456050, Note_off_c, 0, 84, 66
1, 456073, Note_off_c, 0, 69, 62
1, 456082, Note_off_c, 0, 65, 56
1, 456086, Note_off_c, 0, 58, 62
1, 456097, Note_off_c, 0, 77, 62
1, 456100, Note_off_c, 0, 62, 56
1, 456123, Note_off_c, 0, 89, 61
1, 456193, Note_on_c, 0, 88, 94
1, 456199, Note_on_c, 0, 65, 56
1, 456201, Note_on_c, 0, 76, 90
1, 456202, Note_on_c, 0, 58, 75
1, 456208, Note_on_c, 0, 69, 78
1, 456215, Note_on_c, 0, 62, 61
1, 456237, Note_off_c, 0, 58, 65
1, 456238, Note_off_c, 0, 76, 62
1, 456241, Note_off_c, 0, 65, 63
1, 456243, Note_off_c, 0, 62, 67
1, 456246, Note_off_c, 0, 69, 59
1, 456248, Note_off_c, 0, 88, 66
1, 456394, Control_c, 0, 64, 90
1, 456403, Note_on_c, 0, 86, 92
1, 456409, Control_c, 0, 64, 76
1, 456412, Note_on_c, 0, 72, 69
1, 456413, Note_on_c, 0, 69, 66
1, 456413, Note_on_c, 0, 74, 75
1, 456414, Note_on_c, 0, 77, 78
1, 456416, Note_on_c, 0, 62, 60
1, 456428, Note_on_c, 0, 65, 63
1, 456431, Control_c, 0, 64, 68
1, 456446, Control_c, 0, 64, 67
1, 456461, Control_c, 0, 64, 71
1, 456476, Control_c, 0, 64, 81
1, 456479, Note_off_c, 0, 77, 37
1, 456491, Control_c, 0, 64, 127
1, 456512, Note_off_c, 0, 72, 39
1, 456520, Note_off_c, 0, 74, 48
1, 456529, Note_off_c, 0, 65, 55
1, 456534, Note_off_c, 0, 62, 60
1, 456564, Note_off_c, 0, 86, 52
1, 456570, Note_off_c, 0, 69, 45
1, 456599, Note_on_c, 0, 77, 92
1, 456604, Note_on_c, 0, 65, 58
1, 456611, Note_on_c, 0, 74, 79
1, 456616, Note_on_c, 0, 72, 67
1, 456619, Note_on_c, 0, 69, 57
1, 456629, Note_on_c, 0, 62, 46
1, 456639, Note_off_c, 0, 74, 66
1, 456646, Note_off_c, 0, 77, 67
1, 456658, Note_off_c, 0, 72, 55
1, 456660, Note_off_c, 0, 69, 61
1, 456667, Note_off_c, 0, 65, 63
1, 456670, Note_off_c, 0, 62, 49
1, 456789, Note_on_c, 0, 84, 98
1, 456793, Note_on_c, 0, 76, 91
1, 456795, Note_on_c, 0, 62, 63
1, 456798, Note_on_c, 0, 72, 67
1, 456801, Note_on_c, 0, 69, 63
1, 456801, Note_on_c, 0, 79, 81
1, 456806, Note_on_c, 0, 65, 60
1, 456871, Note_off_c, 0, 65, 55
1, 456871, Note_off_c, 0, 69, 58
1, 456874, Note_off_c, 0, 62, 58
1, 456882, Note_off_c, 0, 72, 50
1, 456900, Note_off_c, 0, 76, 63
1, 456930, Note_off_c, 0, 79, 61
1, 456939, Note_off_c, 0, 84, 61
1, 456974, Note_on_c, 0, 81, 96
1, 456977, Note_on_c, 0, 77, 91
1, 456985, Note_on_c, 0, 72, 75
1, 456986, Note_on_c, 0, 69, 75
1, 456988, Note_on_c, 0, 62, 70
1, 456989, Note_on_c, 0, 65, 66
1, 456999, Note_off_c, 0, 77, 70
1, 457011, Note_off_c, 0, 69, 68
1, 457015, Note_off_c, 0, 62, 67
1, 457016, Note_off_c, 0, 81, 68
1, 457018, Note_off_c, 0, 65, 65
1, 457020, Note_off_c, 0, 72, 55
1, 457144, Control_c, 0, 64, 77
1, 457159, Control_c, 0, 64, 57
1, 457170, Note_on_c, 0, 89, 97
1, 457173, Control_c, 0, 64, 36
1, 457183, Note_on_c, 0, 77, 87
1, 457185, Note_on_c, 0, 82, 91
1, 457185, Note_on_c, 0, 76, 74
1, 457196, Control_c, 0, 64, 39
1, 457198, Note_on_c, 0, 72, 57
1, 457199, Note_on_c, 0, 69, 56
1, 457203, Note_on_c, 0, 65, 49
1, 457210, Control_c, 0, 64, 60
1, 457225, Control_c, 0, 64, 84
1, 457240, Control_c, 0, 64, 127
1, 457263, Note_off_c, 0, 76, 56
1, 457274, Note_off_c, 0, 65, 62
1, 457274, Note_off_c, 0, 72, 61
1, 457281, Note_off_c, 0, 69, 65
1, 457281, Note_off_c, 0, 77, 54
1, 457299, Note_off_c, 0, 82, 62
1, 457364, Note_on_c, 0, 81, 84
1, 457369, Note_on_c, 0, 76, 72
1, 457371, Note_on_c, 0, 77, 73
1, 457373, Note_on_c, 0, 69, 57
1, 457377, Note_off_c, 0, 89, 64
1, 457385, Note_on_c, 0, 72, 51
1, 457388, Note_off_c, 0, 81, 69
1, 457390, Note_on_c, 0, 65, 48
1, 457398, Note_off_c, 0, 77, 68
1, 457421, Note_off_c, 0, 72, 60
1, 457424, Note_off_c, 0, 69, 63
1, 457430, Note_off_c, 0, 65, 58
1, 457432, Note_off_c, 0, 76, 57
1, 457555, Note_on_c, 0, 89, 96
1, 457560, Note_on_c, 0, 76, 77
1, 457564, Note_on_c, 0, 72, 70
1, 457564, Note_on_c, 0, 77, 91
1, 457565, Note_on_c, 0, 65, 62
1, 457566, Note_on_c, 0, 79, 89
1, 457571, Note_on_c, 0, 69, 68
1, 457592, Note_off_c, 0, 79, 56
1, 457607, Note_off_c, 0, 72, 55
1, 457624, Note_off_c, 0, 76, 58
1, 457624, Note_off_c, 0, 77, 38
1, 457632, Note_off_c, 0, 65, 54
1, 457644, Note_off_c, 0, 69, 54
1, 457725, Note_on_c, 0, 77, 79
1, 457733, Note_on_c, 0, 76, 78
1, 457740, Note_on_c, 0, 72, 69
1, 457743, Note_off_c, 0, 89, 63
1, 457749, Note_on_c, 0, 69, 69
1, 457749, Note_off_c, 0, 77, 69
1, 457749, Note_on_c, 0, 65, 70
1, 457776, Note_off_c, 0, 72, 57
1, 457778, Note_off_c, 0, 69, 66
1, 457787, Note_off_c, 0, 65, 61
1, 457788, Note_off_c, 0, 76, 59
1, 457937, Note_on_c, 0, 88, 102
1, 457940, Note_on_c, 0, 76, 91
1, 457951, Note_on_c, 0, 65, 69
1, 457955, Note_on_c, 0, 72, 60
1, 457956, Note_on_c, 0, 69, 62
1, 457986, Note_off_c, 0, 72, 64
1, 457987, Note_off_c, 0, 69, 65
1, 457990, Note_off_c, 0, 65, 55
1, 458000, Note_off_c, 0, 76, 54
1, 458066, Note_on_c, 0, 72, 69
1, 458070, Note_on_c, 0, 69, 62
1, 458085, Note_off_c, 0, 72, 65
1, 458095, Note_on_c, 0, 65, 47
1, 458097, Note_off_c, 0, 69, 67
1, 458119, Note_off_c, 0, 65, 59
1, 458206, Note_on_c, 0, 36, 88
1, 458208, Note_on_c, 0, 43, 91
1, 458228, Note_off_c, 0, 36, 67
1, 458235, Note_off_c, 0, 43, 66
1, 458354, Poly_aftertouch_c, 0, 36, 127
1, 458383, Poly_aftertouch_c, 0, 36, 0
1, 458422, Note_on_c, 0, 86, 94
1, 458428, Note_on_c, 0, 72, 75
1, 458428, Note_on_c, 0, 76, 80
1, 458433, Note_on_c, 0, 65, 71
1, 458434, Note_off_c, 0, 88, 60
1, 458436, Note_on_c, 0, 69, 68
1, 458461, Note_off_c, 0, 72, 63
1, 458466, Note_off_c, 0, 65, 62
1, 458466, Note_off_c, 0, 69, 67
1, 458467, Note_off_c, 0, 76, 52
1, 458470, Note_off_c, 0, 86, 65
1, 458589, Note_on_c, 0, 76, 73
1, 458600, Note_on_c, 0, 65, 64
1, 458606, Note_on_c, 0, 72, 53
1, 458618, Note_off_c, 0, 76, 65
1, 458625, Note_off_c, 0, 72, 60
1, 458633, Note_off_c, 0, 65, 65
1, 458752, Control_c, 0, 64, 83
1, 458767, Control_c, 0, 64, 48
1, 458781, Control_c, 0, 64, 0
1, 458815, Note_on_c, 0, 84, 97
1, 458819, Note_on_c, 0, 77, 88
1, 458828, Note_on_c, 0, 74, 66
1, 458835, Note_on_c, 0, 72, 57
1, 458839, Note_off_c, 0, 77, 72
1, 458840, Note_on_c, 0, 62, 57
1, 458840, Note_on_c, 0, 69, 58
1, 458847, Note_on_c, 0, 65, 49
1, 458849, Note_off_c, 0, 74, 67
1, 458865, Note_off_c, 0, 69, 63
1, 458870, Note_off_c, 0, 72, 62
1, 458876, Note_off_c, 0, 62, 64
1, 458876, Note_off_c, 0, 65, 63
1, 459004, Control_c, 0, 64, 66
1, 459008, Note_on_c, 0, 77, 82
1, 459010, Note_on_c, 0, 74, 81
1, 459019, Control_c, 0, 64, 102
1, 459020, Note_on_c, 0, 65, 57
1, 459022, Note_on_c, 0, 62, 64
1, 459028, Note_on_c, 0, 72, 62
1, 459031, Note_on_c, 0, 69, 62
1, 459034, Control_c, 0, 64, 127
1, 459078, Note_off_c, 0, 72, 57
1, 459093, Note_off_c, 0, 62, 56
1, 459094, Note_off_c, 0, 69, 58
1, 459095, Note_off_c, 0, 74, 54
1, 459107, Note_off_c, 0, 65, 60
1, 459144, Note_off_c, 0, 77, 63
1, 459153, Control_c, 0, 64, 114
1, 459168, Control_c, 0, 64, 75
1, 459183, Control_c, 0, 64, 48
1, 459192, Note_on_c, 0, 79, 77
1, 459195, Note_on_c, 0, 76, 68
1, 459197, Control_c, 0, 64, 0
1, 459197, Note_on_c, 0, 72, 65
1, 459206, Note_on_c, 0, 69, 61
1, 459212, Note_on_c, 0, 62, 57
1, 459220, Note_off_c, 0, 76, 67
1, 459221, Note_on_c, 0, 65, 46
1, 459224, Note_off_c, 0, 79, 64
1, 459231, Note_off_c, 0, 69, 60
1, 459233, Note_off_c, 0, 72, 60
1, 459244, Note_off_c, 0, 62, 61
1, 459249, Note_off_c, 0, 65, 56
1, 459360, Control_c, 0, 64, 51
1, 459370, Note_on_c, 0, 79, 84
1, 459372, Note_on_c, 0, 62, 64
1, 459372, Note_on_c, 0, 69, 57
1, 459375, Control_c, 0, 64, 73
1, 459379, Note_on_c, 0, 76, 56
1, 459381, Note_off_c, 0, 84, 65
1, 459388, Note_on_c, 0, 65, 30
1, 459390, Control_c, 0, 64, 75
1, 459391, Note_off_c, 0, 79, 70
1, 459395, Note_off_c, 0, 69, 65
1, 459401, Note_off_c, 0, 76, 59
1, 459404, Control_c, 0, 64, 67
1, 459405, Note_off_c, 0, 62, 66
1, 459427, Control_c, 0, 64, 0
1, 459428, Note_off_c, 0, 65, 46
1, 459578, Note_on_c, 0, 65, 71
1, 459580, Note_on_c, 0, 72, 103
1, 459582, Note_on_c, 0, 57, 78
1, 459583, Note_on_c, 0, 77, 86
1, 459585, Note_on_c, 0, 60, 67
1, 459589, Note_on_c, 0, 81, 81
1, 459606, Note_off_c, 0, 72, 63
1, 459611, Note_off_c, 0, 60, 65
1, 459612, Note_off_c, 0, 81, 71
1, 459614, Note_off_c, 0, 65, 62
1, 459620, Note_off_c, 0, 57, 63
1, 459630, Note_off_c, 0, 77, 63
1, 459668, Note_on_c, 0, 74, 93
1, 459673, Note_on_c, 0, 55, 76
1, 459679, Note_on_c, 0, 58, 75
1, 459704, Note_off_c, 0, 74, 63
1, 459714, Note_off_c, 0, 58, 64
1, 459726, Note_off_c, 0, 55, 62
1, 459763, Note_on_c, 0, 65, 84
1, 459764, Note_on_c, 0, 72, 88
1, 459776, Note_on_c, 0, 81, 61
1, 459778, Note_on_c, 0, 77, 73
1, 459782, Note_on_c, 0, 60, 53
1, 459783, Control_c, 0, 64, 43
1, 459784, Note_on_c, 0, 57, 72
1, 459797, Control_c, 0, 64, 76
1, 459806, Note_off_c, 0, 81, 61
1, 459812, Control_c, 0, 64, 127
1, 459813, Note_on_c, 0, 58, 18
1, 459817, Note_off_c, 0, 57, 60
1, 459826, Note_off_c, 0, 72, 60
1, 459827, Note_off_c, 0, 65, 60
1, 459832, Note_off_c, 0, 58, 0
1, 459841, Note_on_c, 0, 74, 64
1, 459841, Note_off_c, 0, 77, 64
1, 459858, Note_off_c, 0, 60, 60
1, 459859, Note_on_c, 0, 58, 11
1, 459862, Note_on_c, 0, 55, 74
1, 459868, Note_off_c, 0, 74, 67
1, 459888, Note_off_c, 0, 58, 62
1, 459893, Note_off_c, 0, 55, 66
1, 459931, Control_c, 0, 64, 68
1, 459947, Control_c, 0, 64, 0
1, 459960, Note_on_c, 0, 57, 80
1, 459962, Control_c, 0, 67, 12
1, 459964, Note_on_c, 0, 74, 69
1, 459965, Note_on_c, 0, 69, 92
1, 459967, Note_on_c, 0, 72, 78
1, 459970, Note_on_c, 0, 60, 73
1, 459976, Control_c, 0, 67, 20
1, 459989, Note_off_c, 0, 69, 69
1, 459990, Note_off_c, 0, 74, 67
1, 459991, Control_c, 0, 67, 37
1, 459992, Note_off_c, 0, 72, 66
1, 459996, Note_off_c, 0, 57, 62
1, 459996, Note_off_c, 0, 60, 65
1, 460006, Control_c, 0, 67, 53
1, 460020, Control_c, 0, 67, 68
1, 460035, Control_c, 0, 64, 42
1, 460035, Control_c, 0, 67, 81
1, 460038, Note_on_c, 0, 67, 94
1, 460045, Note_on_c, 0, 72, 85
1, 460048, Note_on_c, 0, 55, 79
1, 460049, Note_on_c, 0, 74, 67
1, 460050, Control_c, 0, 64, 0
1, 460050, Control_c, 0, 67, 94
1, 460053, Note_on_c, 0, 70, 77
1, 460057, Note_on_c, 0, 58, 67
1, 460065, Note_off_c, 0, 74, 70
1, 460065, Control_c, 0, 67, 100
1, 460075, Note_off_c, 0, 72, 63
1, 460080, Control_c, 0, 67, 101
1, 460081, Note_off_c, 0, 55, 66
1, 460081, Note_off_c, 0, 70, 65
1, 460086, Note_off_c, 0, 67, 63
1, 460089, Note_off_c, 0, 58, 67
1, 460110, Control_c, 0, 67, 101
1, 460125, Control_c, 0, 67, 103
1, 460125, Poly_aftertouch_c, 0, 69, 0
1, 460133, Note_on_c, 0, 72, 85
1, 460134, Note_on_c, 0, 60, 61
1, 460139, Control_c, 0, 67, 105
1, 460140, Note_on_c, 0, 74, 68
1, 460141, Note_on_c, 0, 57, 72
1, 460146, Note_on_c, 0, 69, 40
1, 460153, Note_on_c, 0, 70, 51
1, 460154, Control_c, 0, 67, 107
1, 460173, Note_off_c, 0, 74, 67
1, 460176, Control_c, 0, 67, 109
1, 460179, Note_off_c, 0, 69, 65
1, 460181, Note_off_c, 0, 70, 39
1, 460184, Note_off_c, 0, 60, 61
1, 460184, Note_off_c, 0, 57, 63
1, 460189, Note_off_c, 0, 72, 62
1, 460191, Control_c, 0, 67, 110
1, 460206, Control_c, 0, 67, 112
1, 460221, Control_c, 0, 67, 114
1, 460231, Note_on_c, 0, 58, 62
1, 460231, Note_on_c, 0, 67, 73
1, 460233, Note_on_c, 0, 70, 87
1, 460235, Control_c, 0, 67, 116
1, 460245, Note_on_c, 0, 72, 39
1, 460249, Note_on_c, 0, 55, 55
1, 460250, Control_c, 0, 67, 116
1, 460256, Note_off_c, 0, 70, 68
1, 460261, Note_off_c, 0, 67, 65
1, 460268, Note_off_c, 0, 58, 67
1, 460268, Note_off_c, 0, 72, 56
1, 460274, Note_off_c, 0, 55, 59
1, 460319, Note_on_c, 0, 64, 80
1, 460323, Note_on_c, 0, 76, 90
1, 460323, Note_on_c, 0, 79, 90
1, 460324, Note_on_c, 0, 57, 81
1, 460326, Note_on_c, 0, 72, 90
1, 460330, Note_on_c, 0, 69, 78
1, 460336, Note_on_c, 0, 60, 70
1, 460339, Control_c, 0, 67, 118
1, 460350, Note_off_c, 0, 64, 61
1, 460354, Control_c, 0, 67, 120
1, 460361, Note_off_c, 0, 60, 63
1, 460366, Note_off_c, 0, 72, 61
1, 460367, Note_off_c, 0, 79, 60
1, 460368, Note_off_c, 0, 69, 57
1, 460369, Control_c, 0, 67, 123
1, 460373, Note_off_c, 0, 57, 62
1, 460374, Note_off_c, 0, 76, 64
1, 460384, Control_c, 0, 67, 124
1, 460399, Control_c, 0, 67, 125
1, 460414, Note_on_c, 0, 74, 80
1, 460414, Control_c, 0, 67, 125
1, 460420, Note_on_c, 0, 58, 77
1, 460428, Control_c, 0, 67, 126
1, 460435, Note_on_c, 0, 55, 66
1, 460447, Note_off_c, 0, 74, 65
1, 460458, Note_off_c, 0, 58, 62
1, 460464, Note_off_c, 0, 55, 63
1, 460488, Control_c, 0, 67, 125
1, 460501, Note_on_c, 0, 69, 85
1, 460502, Note_on_c, 0, 64, 79
1, 460502, Note_on_c, 0, 76, 83
1, 460502, Control_c, 0, 67, 124
1, 460509, Note_on_c, 0, 79, 72
1, 460517, Control_c, 0, 67, 121
1, 460522, Note_on_c, 0, 60, 50
1, 460525, Note_on_c, 0, 57, 71
1, 460530, Note_on_c, 0, 72, 63
1, 460532, Control_c, 0, 67, 117
1, 460536, Note_on_c, 0, 55, 44
1, 460545, Note_off_c, 0, 79, 57
1, 460546, Control_c, 0, 67, 114
1, 460549, Note_on_c, 0, 58, 22
1, 460549, Note_off_c, 0, 64, 54
1, 460554, Note_off_c, 0, 57, 64
1, 460561, Control_c, 0, 64, 51
1, 460561, Control_c, 0, 67, 111
1, 460569, Note_off_c, 0, 55, 33
1, 460570, Note_off_c, 0, 69, 56
1, 460576, Control_c, 0, 64, 68
1, 460576, Control_c, 0, 67, 107
1, 460591, Control_c, 0, 64, 92
1, 460591, Control_c, 0, 67, 102
1, 460593, Note_on_c, 0, 74, 81
1, 460606, Note_off_c, 0, 60, 60
1, 460606, Control_c, 0, 64, 127
1, 460606, Control_c, 0, 67, 98
1, 460608, Note_off_c, 0, 72, 59
1, 460609, Note_off_c, 0, 58, 0
1, 460609, Note_on_c, 0, 58, 43
1, 460610, Note_off_c, 0, 76, 59
1, 460611, Note_on_c, 0, 55, 71
1, 460620, Control_c, 0, 67, 95
1, 460626, Note_off_c, 0, 74, 65
1, 460635, Control_c, 0, 67, 96
1, 460637, Note_off_c, 0, 58, 66
1, 460640, Note_on_c, 0, 57, 27
1, 460642, Note_off_c, 0, 55, 66
1, 460650, Control_c, 0, 67, 98
1, 460665, Control_c, 0, 67, 103
1, 460676, Note_off_c, 0, 57, 0
1, 460680, Control_c, 0, 64, 120
1, 460680, Control_c, 0, 67, 106
1, 460691, Note_on_c, 0, 57, 67
1, 460694, Control_c, 0, 64, 67
1, 460694, Control_c, 0, 67, 109
1, 460695, Note_on_c, 0, 60, 85
1, 460698, Note_on_c, 0, 69, 95
1, 460703, Note_on_c, 0, 74, 82
1, 460706, Note_on_c, 0, 72, 75
1, 460709, Control_c, 0, 64, 0
1, 460709, Control_c, 0, 67, 112
1, 460724, Note_off_c, 0, 60, 66
1, 460724, Note_off_c, 0, 69, 70
1, 460724, Control_c, 0, 67, 115
1, 460725, Note_off_c, 0, 74, 70
1, 460728, Note_off_c, 0, 57, 65
1, 460731, Note_off_c, 0, 72, 68
1, 460740, Control_c, 0, 67, 119
1, 460755, Control_c, 0, 67, 121
1, 460769, Control_c, 0, 67, 123
1, 460784, Control_c, 0, 67, 124
1, 460786, Note_on_c, 0, 72, 81
1, 460787, Note_on_c, 0, 67, 84
1, 460788, Note_on_c, 0, 70, 83
1, 460789, Note_on_c, 0, 55, 67
1, 460790, Note_on_c, 0, 74, 53
1, 460796, Note_on_c, 0, 58, 64
1, 460799, Control_c, 0, 67, 125
1, 460807, Note_on_c, 0, 57, 34
1, 460809, Note_off_c, 0, 72, 68
1, 460812, Note_off_c, 0, 74, 64
1, 460814, Control_c, 0, 67, 127
1, 460815, Note_off_c, 0, 67, 55
1, 460816, Note_off_c, 0, 70, 66
1, 460819, Note_off_c, 0, 55, 65
1, 460828, Note_off_c, 0, 58, 64
1, 460829, Control_c, 0, 67, 127
1, 460842, Note_off_c, 0, 57, 31
1, 460870, Note_on_c, 0, 72, 79
1, 460871, Note_on_c, 0, 60, 70
1, 460875, Note_on_c, 0, 69, 18
1, 460882, Note_on_c, 0, 74, 65
1, 460889, Note_on_c, 0, 57, 64
1, 460900, Note_off_c, 0, 74, 66
1, 460901, Note_on_c, 0, 67, 40
1, 460902, Note_off_c, 0, 67, 127
1, 460906, Note_off_c, 0, 60, 57
1, 460909, Note_off_c, 0, 69, 62
1, 460914, Note_on_c, 0, 70, 26
1, 460915, Note_off_c, 0, 57, 58
1, 460931, Note_off_c, 0, 72, 63
1, 460961, Note_off_c, 0, 70, 0
1, 460961, Note_on_c, 0, 70, 59
1, 460968, Note_on_c, 0, 55, 43
1, 460971, Note_on_c, 0, 67, 60
1, 460973, Note_on_c, 0, 58, 55
1, 460992, Note_off_c, 0, 67, 63
1, 460993, Note_off_c, 0, 70, 67
1, 460998, Note_off_c, 0, 55, 64
1, 461004, Note_off_c, 0, 58, 66
1, 461058, Control_c, 0, 67, 127
1, 461059, Note_on_c, 0, 81, 87
1, 461061, Note_on_c, 0, 65, 77
1, 461061, Note_on_c, 0, 69, 92
1, 461061, Note_on_c, 0, 57, 77
1, 461061, Note_on_c, 0, 72, 85
1, 461063, Note_on_c, 0, 60, 78
1, 461064, Note_on_c, 0, 77, 81
1, 461073, Control_c, 0, 64, 28
1, 461073, Control_c, 0, 67, 123
1, 461088, Control_c, 0, 64, 65
1, 461088, Control_c, 0, 67, 119
1, 461093, Note_on_c, 0, 79, 48
1, 461098, Note_off_c, 0, 69, 60
1, 461099, Note_off_c, 0, 60, 58
1, 461100, Note_off_c, 0, 77, 62
1, 461101, Note_off_c, 0, 65, 58
1, 461103, Note_off_c, 0, 72, 62
1, 461103, Control_c, 0, 64, 76
1, 461103, Control_c, 0, 67, 116
1, 461104, Note_off_c, 0, 57, 60
1, 461108, Note_off_c, 0, 81, 63
1, 461118, Note_on_c, 0, 76, 13
1, 461119, Note_off_c, 0, 76, 127
1, 461119, Control_c, 0, 64, 89
1, 461119, Control_c, 0, 67, 114
1, 461120, Note_off_c, 0, 79, 60
1, 461132, Control_c, 0, 64, 97
1, 461147, Control_c, 0, 67, 116
1, 461152, Note_on_c, 0, 74, 87
1, 461162, Control_c, 0, 64, 82
1, 461162, Control_c, 0, 67, 118
1, 461165, Note_on_c, 0, 58, 73
1, 461169, Poly_aftertouch_c, 0, 76, 0
1, 461172, Note_on_c, 0, 77, 48
1, 461175, Note_on_c, 0, 55, 68
1, 461177, Control_c, 0, 64, 61
1, 461177, Control_c, 0, 67, 120
1, 461190, Note_off_c, 0, 74, 62
1, 461192, Control_c, 0, 64, 0
1, 461192, Control_c, 0, 67, 120
1, 461195, Note_off_c, 0, 77, 57
1, 461198, Note_on_c, 0, 57, 31
1, 461207, Control_c, 0, 67, 120
1, 461208, Note_off_c, 0, 55, 57
1, 461213, Note_off_c, 0, 58, 55
1, 461222, Control_c, 0, 67, 118
1, 461236, Control_c, 0, 67, 116
1, 461241, Note_off_c, 0, 57, 29
1, 461244, Note_on_c, 0, 65, 73
1, 461251, Note_on_c, 0, 81, 71
1, 461251, Control_c, 0, 67, 111
1, 461251, Note_on_c, 0, 69, 73
1, 461257, Note_on_c, 0, 77, 75
1, 461266, Control_c, 0, 64, 62
1, 461266, Control_c, 0, 67, 103
1, 461266, Note_on_c, 0, 60, 66
1, 461270, Note_on_c, 0, 72, 73
1, 461279, Note_on_c, 0, 57, 62
1, 461279, Note_on_c, 0, 58, 25
1, 461280, Note_on_c, 0, 55, 62
1, 461281, Control_c, 0, 64, 85
1, 461281, Control_c, 0, 67, 92
1, 461294, Note_off_c, 0, 65, 61
1, 461296, Control_c, 0, 64, 127
1, 461296, Control_c, 0, 67, 74
1, 461299, Note_off_c, 0, 81, 58
1, 461311, Control_c, 0, 67, 41
1, 461316, Note_off_c, 0, 60, 59
1, 461320, Note_off_c, 0, 58, 41
1, 461324, Note_off_c, 0, 69, 65
1, 461325, Control_c, 0, 67, 0
1, 461326, Note_on_c, 0, 74, 74
1, 461329, Note_off_c, 0, 57, 60
1, 461330, Note_off_c, 0, 77, 61
1, 461342, Note_off_c, 0, 72, 61
1, 461359, Note_off_c, 0, 74, 65
1, 461381, Note_off_c, 0, 55, 64
1, 461414, Control_c, 0, 64, 85
1, 461429, Control_c, 0, 64, 51
1, 461429, Control_c, 0, 67, 12
1, 461433, Note_on_c, 0, 57, 81
1, 461441, Note_on_c, 0, 74, 90
1, 461443, Control_c, 0, 64, 0
1, 461443, Control_c, 0, 67, 22
1, 461445, Note_on_c, 0, 69, 86
1, 461446, Note_on_c, 0, 72, 73
1, 461451, Note_on_c, 0, 60, 71
1, 461458, Control_c, 0, 67, 37
1, 461467, Note_off_c, 0, 69, 70
1, 461472, Note_off_c, 0, 72, 66
1, 461472, Note_off_c, 0, 74, 64
1, 461473, Control_c, 0, 67, 57
1, 461481, Note_off_c, 0, 57, 64
1, 461484, Note_off_c, 0, 60, 63
1, 461488, Control_c, 0, 67, 79
1, 461503, Control_c, 0, 67, 101
1, 461517, Control_c, 0, 67, 117
1, 461522, Note_on_c, 0, 67, 93
1, 461523, Note_on_c, 0, 72, 82
1, 461529, Note_on_c, 0, 70, 82
1, 461530, Note_on_c, 0, 55, 78
1, 461532, Control_c, 0, 67, 121
1, 461535, Note_on_c, 0, 58, 75
1, 461548, Control_c, 0, 67, 122
1, 461554, Note_off_c, 0, 67, 62
1, 461556, Note_off_c, 0, 70, 66
1, 461557, Note_off_c, 0, 72, 56
1, 461563, Control_c, 0, 67, 124
1, 461567, Note_off_c, 0, 58, 67
1, 461568, Note_off_c, 0, 55, 62
1, 461578, Control_c, 0, 67, 126
1, 461592, Control_c, 0, 67, 127
1, 461621, Note_on_c, 0, 60, 72
1, 461621, Note_on_c, 0, 72, 86
1, 461626, Note_on_c, 0, 69, 61
1, 461635, Note_on_c, 0, 57, 66
1, 461637, Note_on_c, 0, 70, 46
1, 461652, Note_off_c, 0, 69, 67
1, 461654, Note_on_c, 0, 58, 20
1, 461654, Note_on_c, 0, 74, 8
1, 461655, Note_off_c, 0, 58, 56
1, 461660, Note_off_c, 0, 70, 59
1, 461662, Note_off_c, 0, 72, 58
1, 461665, Note_off_c, 0, 60, 58
1, 461710, Note_off_c, 0, 74, 33
1, 461717, Note_off_c, 0, 57, 58
1, 461719, Note_on_c, 0, 67, 70
1, 461720, Note_on_c, 0, 70, 87
1, 461726, Note_on_c, 0, 58, 60
1, 461733, Note_on_c, 0, 55, 51
1, 461740, Note_off_c, 0, 70, 70
1, 461743, Note_off_c, 0, 67, 65
1, 461754, Note_off_c, 0, 58, 67
1, 461760, Note_off_c, 0, 55, 58
1, 461793, Control_c, 0, 67, 124
1, 461801, Note_on_c, 0, 64, 84
1, 461802, Note_on_c, 0, 70, 35
1, 461805, Note_on_c, 0, 79, 89
1, 461806, Note_on_c, 0, 72, 66
1, 461806, Note_on_c, 0, 76, 87
1, 461807, Control_c, 0, 67, 116
1, 461811, Note_on_c, 0, 57, 81
1, 461811, Note_on_c, 0, 69, 83
1, 461817, Note_on_c, 0, 60, 72
1, 461822, Control_c, 0, 64, 58
1, 461822, Control_c, 0, 67, 108
1, 461834, Note_off_c, 0, 70, 33
1, 461837, Control_c, 0, 64, 77
1, 461837, Control_c, 0, 67, 105
1, 461845, Note_off_c, 0, 69, 58
1, 461852, Note_off_c, 0, 60, 55
1, 461852, Control_c, 0, 64, 93
1, 461852, Control_c, 0, 67, 105
1, 461853, Note_off_c, 0, 72, 64
1, 461856, Note_off_c, 0, 79, 64
1, 461858, Note_off_c, 0, 76, 63
1, 461859, Note_off_c, 0, 64, 63
1, 461860, Note_off_c, 0, 57, 58
1, 461867, Control_c, 0, 64, 127
1, 461881, Control_c, 0, 67, 107
1, 461896, Control_c, 0, 67, 110
1, 461899, Note_on_c, 0, 74, 91
1, 461907, Note_on_c, 0, 58, 73
1, 461911, Control_c, 0, 67, 115
1, 461917, Note_on_c, 0, 55, 70
1, 461926, Control_c, 0, 64, 104
1, 461926, Control_c, 0, 67, 120
1, 461941, Control_c, 0, 64, 67
1, 461941, Control_c, 0, 67, 123
1, 461945, Note_off_c, 0, 74, 64
1, 461955, Control_c, 0, 64, 15
1, 461955, Control_c, 0, 67, 124
1, 461960, Note_off_c, 0, 55, 53
1, 461970, Control_c, 0, 64, 0
1, 461970, Control_c, 0, 67, 123
1, 461985, Control_c, 0, 67, 121
1, 461988, Note_on_c, 0, 64, 71
1, 461993, Note_on_c, 0, 69, 78
1, 461994, Note_on_c, 0, 76, 61
1, 461998, Note_on_c, 0, 79, 71
1, 461999, Control_c, 0, 64, 46
1, 461999, Control_c, 0, 67, 116
1, 462006, Note_on_c, 0, 72, 72
1, 462007, Note_on_c, 0, 60, 55
1, 462014, Control_c, 0, 64, 74
1, 462014, Control_c, 0, 67, 114
1, 462029, Control_c, 0, 64, 127
1, 462029, Control_c, 0, 67, 112
1, 462044, Control_c, 0, 67, 111
1, 462053, Note_off_c, 0, 79, 56
1, 462059, Control_c, 0, 67, 109
1, 462060, Note_off_c, 0, 64, 63
1, 462067, Note_on_c, 0, 74, 73
1, 462067, Note_off_c, 0, 69, 65
1, 462073, Control_c, 0, 67, 108
1, 462081, Note_off_c, 0, 76, 63
1, 462081, Poly_aftertouch_c, 0, 57, 127
1, 462082, Note_on_c, 0, 55, 48
1, 462086, Note_off_c, 0, 72, 61
1, 462086, Note_off_c, 0, 60, 62
1, 462088, Control_c, 0, 67, 109
1, 462101, Note_off_c, 0, 74, 64
1, 462103, Control_c, 0, 67, 112
1, 462104, Note_off_c, 0, 58, 38
1, 462118, Control_c, 0, 67, 115
1, 462128, Note_off_c, 0, 55, 65
1, 462133, Poly_aftertouch_c, 0, 57, 0
1, 462133, Control_c, 0, 67, 119
1, 462147, Control_c, 0, 64, 78
1, 462147, Control_c, 0, 67, 123
1, 462162, Control_c, 0, 64, 37
1, 462162, Control_c, 0, 67, 127
1, 462177, Control_c, 0, 64, 0
1, 462187, Note_on_c, 0, 57, 75
1, 462187, Note_on_c, 0, 74, 73
1, 462188, Note_on_c, 0, 69, 75
1, 462191, Note_on_c, 0, 60, 70
1, 462193, Note_on_c, 0, 72, 61
1, 462203, Note_off_c, 0, 69, 70
1, 462205, Note_off_c, 0, 74, 61
1, 462213, Note_off_c, 0, 72, 61
1, 462223, Note_off_c, 0, 60, 62
1, 462235, Note_off_c, 0, 57, 55
1, 462264, Note_on_c, 0, 69, 70
1, 462268, Note_on_c, 0, 67, 76
1, 462274, Note_on_c, 0, 72, 75
1, 462274, Note_on_c, 0, 70, 69
1, 462283, Note_on_c, 0, 55, 66
1, 462285, Note_off_c, 0, 69, 41
1, 462289, Note_on_c, 0, 58, 63
1, 462301, Note_off_c, 0, 70, 67
1, 462301, Note_off_c, 0, 72, 66
1, 462303, Note_off_c, 0, 67, 60
1, 462310, Control_c, 0, 64, 17
1, 462314, Note_off_c, 0, 55, 63
1, 462319, Note_off_c, 0, 58, 64
1, 462321, Note_on_c, 0, 74, 2
1, 462324, Control_c, 0, 64, 43
1, 462341, Control_c, 0, 64, 59
1, 462348, Note_off_c, 0, 74, 0
1, 462355, Note_on_c, 0, 72, 75
1, 462356, Control_c, 0, 64, 64
1, 462359, Note_on_c, 0, 60, 58
1, 462370, Control_c, 0, 64, 65
1, 462373, Note_on_c, 0, 74, 29
1, 462378, Note_on_c, 0, 69, 38
1, 462381, Note_on_c, 0, 57, 70
1, 462388, Note_on_c, 0, 55, 46
1, 462400, Control_c, 0, 64, 60
1, 462401, Note_off_c, 0, 60, 57
1, 462408, Note_off_c, 0, 74, 52
1, 462409, Note_off_c, 0, 57, 66
1, 462411, Note_off_c, 0, 69, 54
1, 462422, Control_c, 0, 64, 34
1, 462424, Note_off_c, 0, 55, 55
1, 462437, Control_c, 0, 64, 0
1, 462442, Note_on_c, 0, 70, 20
1, 462447, Note_off_c, 0, 72, 0
1, 462452, Note_on_c, 0, 67, 60
1, 462466, Note_on_c, 0, 72, 13
1, 462472, Note_off_c, 0, 67, 63
1, 462480, Note_off_c, 0, 70, 65
1, 462484, Note_off_c, 0, 72, 47
1, 462486, Note_on_c, 0, 58, 52
1, 462509, Note_off_c, 0, 58, 58
1, 462549, Note_on_c, 0, 81, 86
1, 462554, Note_on_c, 0, 69, 81
1, 462556, Control_c, 0, 64, 48
1, 462557, Note_on_c, 0, 57, 66
1, 462561, Note_on_c, 0, 72, 77
1, 462562, Note_on_c, 0, 77, 63
1, 462564, Note_on_c, 0, 65, 75
1, 462570, Control_c, 0, 64, 69
1, 462585, Note_on_c, 0, 60, 54
1, 462585, Control_c, 0, 64, 91
1, 462591, Note_off_c, 0, 77, 66
1, 462593, Note_off_c, 0, 72, 61
1, 462598, Note_off_c, 0, 81, 62
1, 462600, Note_off_c, 0, 69, 59
1, 462600, Control_c, 0, 64, 127
1, 462600, Control_c, 0, 67, 122
1, 462615, Control_c, 0, 67, 120
1, 462617, Note_off_c, 0, 65, 50
1, 462629, Control_c, 0, 67, 123
1, 462644, Control_c, 0, 67, 124
1, 462652, Note_on_c, 0, 74, 75
1, 462652, Note_off_c, 0, 60, 0
1, 462659, Control_c, 0, 67, 126
1, 462664, Note_on_c, 0, 77, 44
1, 462673, Note_on_c, 0, 60, 5
1, 462674, Control_c, 0, 67, 125
1, 462679, Note_off_c, 0, 74, 66
1, 462687, Note_off_c, 0, 77, 60
1, 462689, Control_c, 0, 67, 125
1, 462707, Note_off_c, 0, 57, 63
1, 462718, Control_c, 0, 67, 124
1, 462722, Note_on_c, 0, 58, 25
1, 462733, Control_c, 0, 67, 124
1, 462740, Note_on_c, 0, 69, 82
1, 462742, Note_on_c, 0, 65, 61
1, 462748, Control_c, 0, 67, 123
1, 462755, Note_on_c, 0, 77, 75
1, 462757, Note_on_c, 0, 81, 47
1, 462763, Control_c, 0, 67, 122
1, 462778, Control_c, 0, 67, 121
1, 462785, Note_off_c, 0, 81, 54
1, 462787, Note_on_c, 0, 55, 53
1, 462792, Note_off_c, 0, 65, 59
1, 462799, Note_off_c, 0, 69, 63
1, 462813, Note_on_c, 0, 72, 60
1, 462818, Note_on_c, 0, 74, 60
1, 462822, Control_c, 0, 67, 122
1, 462825, Note_off_c, 0, 58, 59
1, 462825, Note_off_c, 0, 77, 61
1, 462834, Note_off_c, 0, 72, 64
1, 462835, Note_off_c, 0, 60, 21
1, 462837, Control_c, 0, 67, 122
1, 462848, Note_off_c, 0, 74, 66
1, 462852, Control_c, 0, 67, 124
1, 462859, Note_off_c, 0, 55, 63
1, 462867, Control_c, 0, 67, 126
1, 462882, Control_c, 0, 67, 127
1, 462896, Control_c, 0, 64, 110
1, 462911, Control_c, 0, 64, 66
1, 462914, Note_on_c, 0, 57, 84
1, 462921, Note_on_c, 0, 72, 71
1, 462924, Note_on_c, 0, 74, 81
1, 462926, Control_c, 0, 64, 9
1, 462927, Note_on_c, 0, 69, 84
1, 462930, Note_on_c, 0, 60, 72
1, 462940, Control_c, 0, 64, 0
1, 462943, Note_off_c, 0, 72, 58
1, 462947, Note_off_c, 0, 69, 71
1, 462947, Note_off_c, 0, 74, 66
1, 462961, Note_off_c, 0, 57, 63
1, 462965, Note_off_c, 0, 60, 63
1, 463005, Note_on_c, 0, 55, 76
1, 463005, Note_on_c, 0, 67, 89
1, 463010, Note_on_c, 0, 72, 82
1, 463016, Note_on_c, 0, 58, 73
1, 463017, Note_on_c, 0, 69, 23
1, 463017, Note_on_c, 0, 70, 75
1, 463022, Note_on_c, 0, 74, 43
1, 463037, Note_off_c, 0, 72, 65
1, 463041, Note_off_c, 0, 70, 67
1, 463043, Note_off_c, 0, 67, 64
1, 463044, Note_off_c, 0, 69, 52
1, 463049, Note_off_c, 0, 55, 58
1, 463050, Note_off_c, 0, 74, 53
1, 463061, Note_off_c, 0, 58, 51
1, 463094, Note_on_c, 0, 60, 72
1, 463098, Note_on_c, 0, 72, 76
1, 463102, Note_on_c, 0, 69, 78
1, 463108, Note_on_c, 0, 70, 46
1, 463114, Note_on_c, 0, 57, 73
1, 463117, Note_on_c, 0, 74, 69
1, 463132, Note_off_c, 0, 69, 63
1, 463132, Note_off_c, 0, 70, 60
1, 463134, Note_off_c, 0, 74, 67
1, 463136, Note_off_c, 0, 72, 63
1, 463139, Note_off_c, 0, 60, 60
1, 463192, Note_off_c, 0, 57, 54
1, 463195, Note_on_c, 0, 70, 84
1, 463198, Note_on_c, 0, 67, 55
1, 463207, Note_on_c, 0, 55, 50
1, 463207, Note_on_c, 0, 58, 69
1, 463216, Note_off_c, 0, 70, 70
1, 463219, Note_off_c, 0, 67, 62
1, 463233, Note_off_c, 0, 58, 68
1, 463234, Note_off_c, 0, 55, 59
1, 463275, Control_c, 0, 64, 59
1, 463282, Note_on_c, 0, 64, 83
1, 463282, Note_on_c, 0, 72, 80
1, 463282, Note_on_c, 0, 76, 90
1, 463282, Note_on_c, 0, 79, 92
1, 463284, Note_on_c, 0, 69, 79
1, 463287, Note_on_c, 0, 57, 89
1, 463290, Note_on_c, 0, 60, 77
1, 463290, Control_c, 0, 64, 73
1, 463305, Control_c, 0, 64, 88
1, 463305, Control_c, 0, 67, 124
1, 463314, Note_off_c, 0, 69, 64
1, 463319, Note_off_c, 0, 79, 59
1, 463319, Control_c, 0, 64, 119
1, 463319, Control_c, 0, 67, 123
1, 463320, Note_off_c, 0, 72, 62
1, 463322, Note_off_c, 0, 64, 58
1, 463325, Note_off_c, 0, 60, 58
1, 463328, Note_off_c, 0, 76, 63
1, 463334, Control_c, 0, 64, 127
1, 463339, Note_off_c, 0, 57, 63
1, 463349, Control_c, 0, 67, 123
1, 463364, Control_c, 0, 67, 124
1, 463374, Note_on_c, 0, 74, 86
1, 463376, Note_on_c, 0, 58, 50
1, 463386, Note_on_c, 0, 76, 59
1, 463401, Note_on_c, 0, 57, 41
1, 463403, Note_off_c, 0, 76, 67
1, 463408, Control_c, 0, 67, 124
1, 463412, Note_on_c, 0, 55, 52
1, 463422, Note_off_c, 0, 74, 64
1, 463424, Note_off_c, 0, 57, 61
1, 463438, Control_c, 0, 67, 123
1, 463441, Note_off_c, 0, 55, 55
1, 463452, Control_c, 0, 67, 120
1, 463465, Note_on_c, 0, 76, 80
1, 463467, Control_c, 0, 67, 118
1, 463470, Note_on_c, 0, 64, 77
1, 463475, Note_on_c, 0, 79, 76
1, 463476, Note_on_c, 0, 69, 73
1, 463482, Control_c, 0, 67, 117
1, 463483, Note_on_c, 0, 60, 71
1, 463493, Note_on_c, 0, 72, 52
1, 463519, Note_off_c, 0, 79, 49
1, 463520, Note_on_c, 0, 57, 15
1, 463529, Note_off_c, 0, 69, 53
1, 463541, Note_off_c, 0, 64, 63
1, 463541, Control_c, 0, 67, 117
1, 463547, Note_on_c, 0, 74, 79
1, 463556, Control_c, 0, 67, 118
1, 463565, Note_off_c, 0, 60, 58
1, 463570, Control_c, 0, 67, 121
1, 463573, Note_on_c, 0, 55, 59
1, 463573, Note_off_c, 0, 72, 61
1, 463573, Note_off_c, 0, 76, 63
1, 463585, Control_c, 0, 67, 124
1, 463588, Note_off_c, 0, 74, 66
1, 463591, Note_off_c, 0, 58, 60
1, 463600, Control_c, 0, 67, 126
1, 463609, Note_off_c, 0, 55, 66
1, 463615, Control_c, 0, 67, 127
1, 463645, Note_off_c, 0, 57, 22
1, 463645, Control_c, 0, 64, 100
1, 463660, Control_c, 0, 64, 70
1, 463664, Note_on_c, 0, 57, 70
1, 463668, Note_on_c, 0, 69, 85
1, 463669, Note_on_c, 0, 60, 82
1, 463670, Note_on_c, 0, 74, 77
1, 463675, Control_c, 0, 64, 43
1, 463678, Note_on_c, 0, 72, 58
1, 463690, Control_c, 0, 64, 0
1, 463690, Note_off_c, 0, 69, 62
1, 463691, Note_off_c, 0, 74, 61
1, 463697, Note_off_c, 0, 72, 64
1, 463711, Note_off_c, 0, 60, 55
1, 463714, Note_off_c, 0, 57, 60
1, 463738, Poly_aftertouch_c, 0, 70, 0
1, 463760, Note_on_c, 0, 67, 70
1, 463761, Note_on_c, 0, 58, 76
1, 463764, Note_on_c, 0, 69, 57
1, 463772, Note_on_c, 0, 72, 57
1, 463775, Note_on_c, 0, 55, 53
1, 463775, Poly_aftertouch_c, 0, 70, 127
1, 463782, Note_on_c, 0, 74, 12
1, 463784, Note_off_c, 0, 69, 65
1, 463793, Note_off_c, 0, 72, 59
1, 463794, Poly_aftertouch_c, 0, 70, 0
1, 463801, Note_off_c, 0, 55, 58
1, 463812, Note_off_c, 0, 67, 55
1, 463821, Note_off_c, 0, 74, 41
1, 463823, Control_c, 0, 64, 16
1, 463838, Control_c, 0, 64, 52
1, 463838, Control_c, 0, 67, 124
1, 463852, Note_on_c, 0, 60, 29
1, 463852, Control_c, 0, 64, 66
1, 463852, Control_c, 0, 67, 113
1, 463863, Note_off_c, 0, 58, 59
1, 463866, Note_on_c, 0, 70, 40
1, 463867, Control_c, 0, 64, 89
1, 463867, Control_c, 0, 67, 101
1, 463870, Note_on_c, 0, 74, 50
1, 463872, Note_on_c, 0, 72, 49
1, 463873, Note_on_c, 0, 55, 71
1, 463880, Note_on_c, 0, 57, 58
1, 463882, Control_c, 0, 64, 127
1, 463882, Control_c, 0, 67, 87
1, 463893, Note_off_c, 0, 60, 43
1, 463895, Note_off_c, 0, 72, 57
1, 463897, Control_c, 0, 67, 72
1, 463915, Note_off_c, 0, 57, 65
1, 463915, Note_off_c, 0, 70, 53
1, 463919, Control_c, 0, 67, 52
1, 463924, Note_on_c, 0, 67, 75
1, 463925, Note_off_c, 0, 74, 65
1, 463934, Control_c, 0, 67, 19
1, 463946, Note_off_c, 0, 55, 64
1, 463949, Control_c, 0, 67, 0
1, 463950, Note_off_c, 0, 67, 67
1, 464068, Control_c, 0, 64, 68
1, 464077, Note_on_c, 0, 79, 106
1, 464083, Control_c, 0, 64, 0
1, 464086, Note_on_c, 0, 78, 83
1, 464094, Note_on_c, 0, 69, 77
1, 464102, Note_on_c, 0, 72, 73
1, 464120, Note_off_c, 0, 79, 65
1, 464122, Note_off_c, 0, 78, 53
1, 464131, Note_off_c, 0, 72, 66
1, 464146, Note_off_c, 0, 69, 61
1, 464172, Note_on_c, 0, 71, 67
1, 464180, Note_on_c, 0, 67, 70
1, 464198, Note_off_c, 0, 71, 66
1, 464244, Note_off_c, 0, 67, 63
1, 464259, Note_on_c, 0, 79, 93
1, 464264, Note_on_c, 0, 72, 51
1, 464265, Note_on_c, 0, 69, 69
1, 464267, Note_on_c, 0, 78, 83
1, 464307, Note_off_c, 0, 79, 63
1, 464308, Note_off_c, 0, 72, 60
1, 464314, Note_off_c, 0, 78, 60
1, 464339, Note_off_c, 0, 69, 62
1, 464354, Note_on_c, 0, 67, 63
1, 464355, Note_on_c, 0, 71, 55
1, 464376, Note_off_c, 0, 71, 63
1, 464404, Note_off_c, 0, 67, 58
1, 464447, Note_on_c, 0, 72, 69
1, 464453, Note_on_c, 0, 74, 89
1, 464456, Note_on_c, 0, 69, 68
1, 464488, Note_off_c, 0, 74, 65
1, 464490, Note_off_c, 0, 72, 59
1, 464519, Note_off_c, 0, 69, 62
1, 464524, Note_on_c, 0, 74, 87
1, 464530, Note_on_c, 0, 67, 71
1, 464569, Note_off_c, 0, 74, 65
1, 464604, Note_off_c, 0, 67, 63
1, 464620, Note_on_c, 0, 74, 79
1, 464623, Note_on_c, 0, 72, 53
1, 464629, Note_on_c, 0, 69, 61
1, 464645, Note_off_c, 0, 74, 67
1, 464649, Note_off_c, 0, 72, 53
1, 464688, Note_off_c, 0, 69, 49
1, 464700, Note_on_c, 0, 74, 79
1, 464722, Note_on_c, 0, 67, 63
1, 464740, Note_off_c, 0, 74, 63
1, 464770, Note_off_c, 0, 67, 61
1, 464796, Note_on_c, 0, 78, 86
1, 464796, Note_on_c, 0, 72, 57
1, 464799, Note_on_c, 0, 69, 71
1, 464802, Note_on_c, 0, 76, 77
1, 464826, Note_off_c, 0, 72, 61
1, 464827, Note_off_c, 0, 76, 67
1, 464839, Note_off_c, 0, 78, 63
1, 464840, Note_off_c, 0, 69, 58
1, 464892, Note_on_c, 0, 67, 59
1, 464900, Note_on_c, 0, 71, 54
1, 464924, Note_off_c, 0, 71, 63
1, 464954, Note_off_c, 0, 67, 58
1, 464983, Note_on_c, 0, 69, 65
1, 464986, Note_on_c, 0, 72, 41
1, 464989, Note_on_c, 0, 78, 92
1, 465001, Note_on_c, 0, 76, 73
1, 465013, Note_off_c, 0, 72, 54
1, 465023, Control_c, 0, 64, 48
1, 465030, Note_off_c, 0, 76, 65
1, 465038, Control_c, 0, 64, 54
1, 465046, Note_off_c, 0, 69, 60
1, 465053, Control_c, 0, 64, 38
1, 465055, Note_off_c, 0, 78, 64
1, 465068, Control_c, 0, 64, 0
1, 465071, Note_on_c, 0, 67, 64
1, 465105, Note_on_c, 0, 71, 34
1, 465138, Note_off_c, 0, 71, 32
1, 465139, Note_off_c, 0, 67, 62
1, 465159, Note_on_c, 0, 72, 57
1, 465173, Note_on_c, 0, 69, 61
1, 465183, Note_on_c, 0, 74, 90
1, 465200, Note_off_c, 0, 72, 55
1, 465223, Note_off_c, 0, 74, 67
1, 465238, Note_off_c, 0, 69, 61
1, 465253, Note_on_c, 0, 67, 72
1, 465260, Note_on_c, 0, 74, 84
1, 465302, Note_off_c, 0, 74, 66
1, 465329, Note_off_c, 0, 67, 63
1, 465342, Note_on_c, 0, 72, 57
1, 465343, Note_on_c, 0, 74, 93
1, 465347, Note_on_c, 0, 69, 72
1, 465375, Note_off_c, 0, 74, 64
1, 465383, Note_off_c, 0, 72, 52
1, 465404, Note_off_c, 0, 69, 59
1, 465431, Note_on_c, 0, 74, 83
1, 465444, Note_on_c, 0, 67, 67
1, 465469, Note_off_c, 0, 74, 68
1, 465505, Note_off_c, 0, 67, 60
1, 465514, Note_on_c, 0, 79, 94
1, 465517, Note_on_c, 0, 72, 73
1, 465518, Note_on_c, 0, 78, 93
1, 465521, Note_on_c, 0, 69, 74
1, 465526, Note_on_c, 0, 77, 73
1, 465551, Note_off_c, 0, 72, 61
1, 465553, Note_off_c, 0, 77, 67
1, 465559, Note_off_c, 0, 79, 65
1, 465568, Note_off_c, 0, 78, 63
1, 465594, Note_off_c, 0, 69, 42
1, 465614, Note_on_c, 0, 67, 70
1, 465621, Note_on_c, 0, 71, 65
1, 465651, Note_off_c, 0, 71, 65
1, 465684, Note_off_c, 0, 67, 60
1, 465702, Note_on_c, 0, 79, 95
1, 465703, Note_on_c, 0, 72, 57
1, 465708, Note_on_c, 0, 78, 83
1, 465709, Note_on_c, 0, 69, 64
1, 465728, Control_c, 0, 64, 44
1, 465743, Note_off_c, 0, 72, 61
1, 465743, Control_c, 0, 64, 60
1, 465755, Note_off_c, 0, 79, 63
1, 465758, Note_off_c, 0, 78, 63
1, 465758, Control_c, 0, 64, 69
1, 465772, Control_c, 0, 64, 77
1, 465776, Note_off_c, 0, 69, 65
1, 465787, Control_c, 0, 64, 89
1, 465791, Note_on_c, 0, 71, 67
1, 465796, Note_on_c, 0, 67, 66
1, 465802, Control_c, 0, 64, 94
1, 465815, Note_off_c, 0, 71, 67
1, 465832, Control_c, 0, 64, 92
1, 465846, Control_c, 0, 64, 76
1, 465850, Note_off_c, 0, 67, 58
1, 465861, Control_c, 0, 64, 58
1, 465876, Control_c, 0, 64, 0
1, 465887, Note_on_c, 0, 72, 65
1, 465891, Note_on_c, 0, 74, 86
1, 465899, Note_on_c, 0, 69, 62
1, 465928, Note_off_c, 0, 72, 59
1, 465931, Note_off_c, 0, 74, 67
1, 465951, Note_off_c, 0, 69, 63
1, 465967, Note_on_c, 0, 74, 82
1, 465968, Note_on_c, 0, 67, 66
1, 466012, Note_off_c, 0, 74, 67
1, 466042, Note_off_c, 0, 67, 64
1, 466048, Note_on_c, 0, 72, 58
1, 466057, Note_on_c, 0, 74, 88
1, 466064, Note_on_c, 0, 69, 65
1, 466084, Note_off_c, 0, 72, 64
1, 466087, Note_off_c, 0, 74, 65
1, 466117, Note_off_c, 0, 69, 61
1, 466131, Note_on_c, 0, 74, 83
1, 466143, Note_on_c, 0, 67, 66
1, 466165, Note_off_c, 0, 74, 70
1, 466194, Control_c, 0, 67, 12
1, 466209, Control_c, 0, 67, 16
1, 466218, Note_off_c, 0, 67, 63
1, 466223, Note_on_c, 0, 78, 91
1, 466223, Note_on_c, 0, 72, 70
1, 466224, Control_c, 0, 67, 25
1, 466228, Note_on_c, 0, 76, 85
1, 466235, Note_on_c, 0, 69, 71
1, 466238, Control_c, 0, 67, 35
1, 466253, Control_c, 0, 67, 48
1, 466256, Note_off_c, 0, 76, 63
1, 466260, Note_off_c, 0, 72, 62
1, 466268, Control_c, 0, 67, 59
1, 466274, Note_off_c, 0, 78, 64
1, 466283, Control_c, 0, 67, 67
1, 466298, Control_c, 0, 67, 70
1, 466301, Note_off_c, 0, 69, 59
1, 466313, Control_c, 0, 67, 69
1, 466328, Control_c, 0, 67, 69
1, 466330, Note_on_c, 0, 71, 54
1, 466334, Note_on_c, 0, 67, 58
1, 466343, Control_c, 0, 67, 68
1, 466361, Note_off_c, 0, 71, 64
1, 466373, Control_c, 0, 67, 69
1, 466394, Note_off_c, 0, 67, 58
1, 466402, Control_c, 0, 67, 68
1, 466407, Note_on_c, 0, 78, 82
1, 466415, Note_on_c, 0, 69, 70
1, 466416, Note_on_c, 0, 76, 72
1, 466417, Note_on_c, 0, 72, 56
1, 466417, Control_c, 0, 67, 67
1, 466432, Control_c, 0, 67, 66
1, 466444, Note_off_c, 0, 76, 64
1, 466447, Note_off_c, 0, 72, 59
1, 466447, Control_c, 0, 64, 41
1, 466447, Control_c, 0, 67, 66
1, 466462, Control_c, 0, 64, 52
1, 466467, Note_off_c, 0, 78, 64
1, 466477, Control_c, 0, 64, 56
1, 466491, Note_off_c, 0, 69, 63
1, 466492, Control_c, 0, 64, 58
1, 466492, Control_c, 0, 67, 65
1, 466507, Control_c, 0, 64, 60
1, 466507, Control_c, 0, 67, 64
1, 466510, Note_on_c, 0, 67, 61
1, 466513, Note_on_c, 0, 71, 40
1, 466536, Note_off_c, 0, 71, 52
1, 466536, Control_c, 0, 64, 59
1, 466536, Control_c, 0, 67, 64
1, 466551, Control_c, 0, 64, 52
1, 466551, Control_c, 0, 67, 63
1, 466566, Control_c, 0, 64, 24
1, 466581, Control_c, 0, 64, 0
1, 466581, Control_c, 0, 67, 62
1, 466590, Note_off_c, 0, 67, 62
1, 466601, Note_on_c, 0, 72, 52
1, 466607, Note_on_c, 0, 69, 68
1, 466607, Note_on_c, 0, 74, 82
1, 466638, Note_off_c, 0, 72, 60
1, 466640, Control_c, 0, 67, 62
1, 466652, Note_off_c, 0, 74, 64
1, 466655, Control_c, 0, 67, 61
1, 466664, Note_off_c, 0, 69, 53
1, 466669, Control_c, 0, 67, 61
1, 466683, Note_on_c, 0, 74, 69
1, 466695, Note_on_c, 0, 67, 68
1, 466729, Control_c, 0, 67, 61
1, 466731, Note_off_c, 0, 74, 66
1, 466743, Control_c, 0, 67, 62
1, 466758, Control_c, 0, 67, 62
1, 466767, Note_off_c, 0, 67, 62
1, 466773, Note_on_c, 0, 74, 76
1, 466773, Control_c, 0, 67, 64
1, 466779, Note_on_c, 0, 72, 49
1, 466781, Note_on_c, 0, 69, 65
1, 466787, Control_c, 0, 67, 65
1, 466800, Note_off_c, 0, 74, 66
1, 466802, Control_c, 0, 67, 66
1, 466806, Note_off_c, 0, 72, 56
1, 466817, Control_c, 0, 67, 67
1, 466832, Control_c, 0, 67, 68
1, 466846, Note_off_c, 0, 69, 52
1, 466852, Note_on_c, 0, 74, 81
1, 466874, Note_on_c, 0, 67, 58
1, 466879, Note_off_c, 0, 74, 67
1, 466891, Control_c, 0, 67, 68
1, 466936, Note_off_c, 0, 67, 59
1, 466937, Note_on_c, 0, 76, 87
1, 466942, Note_on_c, 0, 74, 88
1, 466948, Note_on_c, 0, 72, 52
1, 466954, Note_on_c, 0, 69, 72
1, 466970, Note_off_c, 0, 74, 65
1, 466978, Note_off_c, 0, 76, 64
1, 466979, Note_off_c, 0, 72, 56
1, 466991, Note_off_c, 0, 69, 59
1, 467032, Control_c, 0, 67, 69
1, 467046, Note_on_c, 0, 67, 61
1, 467076, Control_c, 0, 67, 68
1, 467106, Control_c, 0, 67, 69
1, 467118, Note_off_c, 0, 67, 59
1, 467129, Note_on_c, 0, 76, 84
1, 467132, Note_on_c, 0, 72, 58
1, 467139, Note_on_c, 0, 74, 66
1, 467145, Note_on_c, 0, 69, 65
1, 467166, Control_c, 0, 67, 68
1, 467169, Note_off_c, 0, 74, 64
1, 467173, Note_off_c, 0, 72, 62
1, 467176, Note_off_c, 0, 76, 61
1, 467196, Control_c, 0, 67, 68
1, 467211, Control_c, 0, 67, 67
1, 467213, Note_off_c, 0, 69, 57
1, 467225, Control_c, 0, 67, 66
1, 467237, Note_on_c, 0, 71, 50
1, 467241, Control_c, 0, 67, 63
1, 467242, Note_on_c, 0, 67, 60
1, 467256, Control_c, 0, 67, 60
1, 467259, Note_off_c, 0, 71, 60
1, 467271, Control_c, 0, 67, 56
1, 467285, Control_c, 0, 67, 51
1, 467300, Note_off_c, 0, 67, 58
1, 467300, Control_c, 0, 67, 41
1, 467315, Control_c, 0, 67, 26
1, 467323, Note_on_c, 0, 74, 81
1, 467324, Note_on_c, 0, 69, 68
1, 467326, Note_on_c, 0, 72, 60
1, 467330, Control_c, 0, 67, 0
1, 467356, Note_off_c, 0, 72, 63
1, 467364, Note_off_c, 0, 74, 65
1, 467394, Note_on_c, 0, 74, 79
1, 467395, Note_off_c, 0, 69, 57
1, 467402, Note_on_c, 0, 67, 74
1, 467440, Note_off_c, 0, 74, 67
1, 467480, Note_on_c, 0, 74, 92
1, 467481, Note_off_c, 0, 67, 63
1, 467482, Note_on_c, 0, 72, 59
1, 467500, Note_on_c, 0, 69, 69
1, 467514, Note_off_c, 0, 72, 65
1, 467520, Note_off_c, 0, 74, 65
1, 467556, Note_on_c, 0, 74, 85
1, 467567, Note_off_c, 0, 69, 64
1, 467571, Note_on_c, 0, 67, 78
1, 467617, Note_off_c, 0, 74, 61
1, 467641, Control_c, 0, 64, 15
1, 467642, Note_on_c, 0, 72, 72
1, 467642, Note_on_c, 0, 78, 95
1, 467645, Note_off_c, 0, 67, 62
1, 467646, Note_on_c, 0, 76, 93
1, 467663, Control_c, 0, 64, 68
1, 467666, Note_on_c, 0, 69, 73
1, 467678, Control_c, 0, 64, 77
1, 467693, Control_c, 0, 64, 78
1, 467695, Note_off_c, 0, 72, 59
1, 467695, Note_off_c, 0, 76, 63
1, 467704, Note_off_c, 0, 78, 64
1, 467708, Control_c, 0, 64, 77
1, 467723, Control_c, 0, 64, 68
1, 467737, Control_c, 0, 64, 52
1, 467740, Note_off_c, 0, 69, 61
1, 467752, Control_c, 0, 64, 0
1, 467765, Note_on_c, 0, 67, 70
1, 467788, Note_on_c, 0, 71, 66
1, 467818, Note_off_c, 0, 71, 65
1, 467844, Note_off_c, 0, 67, 62
1, 467847, Note_on_c, 0, 78, 79
1, 467853, Note_on_c, 0, 69, 73
1, 467857, Note_on_c, 0, 72, 53
1, 467874, Note_on_c, 0, 76, 57
1, 467886, Note_off_c, 0, 72, 53
1, 467926, Note_off_c, 0, 78, 58
1, 467930, Control_c, 0, 67, 8
1, 467934, Note_off_c, 0, 76, 62
1, 467938, Note_off_c, 0, 69, 65
1, 467952, Note_on_c, 0, 67, 67
1, 467961, Control_c, 0, 67, 8
1, 467969, Note_on_c, 0, 71, 34
1, 467976, Control_c, 0, 67, 9
1, 467991, Note_off_c, 0, 71, 53
1, 468019, Control_c, 0, 67, 9
1, 468033, Note_off_c, 0, 67, 60
1, 468039, Note_on_c, 0, 72, 49
1, 468054, Note_on_c, 0, 69, 65
1, 468057, Note_on_c, 0, 76, 64
1, 468060, Note_on_c, 0, 74, 63
1, 468075, Note_off_c, 0, 72, 57
1, 468084, Note_off_c, 0, 76, 67
1, 468086, Note_off_c, 0, 74, 66
1, 468107, Control_c, 0, 67, 10
1, 468122, Control_c, 0, 67, 13
1, 468125, Note_on_c, 0, 74, 77
1, 468132, Note_off_c, 0, 69, 64
1, 468137, Control_c, 0, 67, 15
1, 468138, Note_on_c, 0, 67, 65
1, 468152, Control_c, 0, 67, 16
1, 468157, Note_off_c, 0, 74, 63
1, 468182, Control_c, 0, 67, 16
1, 468197, Control_c, 0, 67, 15
1, 468206, Note_on_c, 0, 74, 90
1, 468207, Note_on_c, 0, 72, 65
1, 468212, Control_c, 0, 67, 14
1, 468219, Note_off_c, 0, 67, 63
1, 468226, Control_c, 0, 67, 14
1, 468233, Note_off_c, 0, 74, 63
1, 468241, Control_c, 0, 67, 13
1, 468245, Note_off_c, 0, 72, 62
1, 468247, Note_on_c, 0, 69, 58
1, 468274, Note_on_c, 0, 74, 81
1, 468301, Control_c, 0, 67, 12
1, 468302, Note_off_c, 0, 69, 65
1, 468303, Note_on_c, 0, 67, 76
1, 468315, Control_c, 0, 67, 12
1, 468319, Note_off_c, 0, 74, 66
1, 468345, Control_c, 0, 64, 44
1, 468345, Control_c, 0, 67, 12
1, 468358, Note_on_c, 0, 76, 95
1, 468359, Control_c, 0, 64, 55
1, 468359, Control_c, 0, 67, 13
1, 468365, Note_on_c, 0, 74, 75
1, 468374, Control_c, 0, 64, 45
1, 468374, Control_c, 0, 67, 15
1, 468377, Note_on_c, 0, 72, 64
1, 468387, Note_off_c, 0, 67, 64
1, 468389, Control_c, 0, 64, 0
1, 468389, Control_c, 0, 67, 18
1, 468393, Note_on_c, 0, 69, 80
1, 468403, Note_off_c, 0, 74, 63
1, 468404, Control_c, 0, 67, 22
1, 468415, Note_off_c, 0, 76, 64
1, 468420, Note_off_c, 0, 72, 62
1, 468426, Control_c, 0, 67, 29
1, 468441, Control_c, 0, 67, 38
1, 468456, Control_c, 0, 67, 43
1, 468471, Control_c, 0, 67, 44
1, 468486, Note_off_c, 0, 69, 62
1, 468486, Control_c, 0, 67, 43
1, 468492, Note_on_c, 0, 67, 75
1, 468515, Control_c, 0, 67, 44
1, 468522, Note_on_c, 0, 71, 5
1, 468530, Control_c, 0, 67, 43
1, 468545, Control_c, 0, 67, 41
1, 468559, Control_c, 0, 67, 39
1, 468560, Note_off_c, 0, 71, 28
1, 468563, Note_on_c, 0, 76, 85
1, 468566, Note_on_c, 0, 72, 64
1, 468572, Note_on_c, 0, 74, 69
1, 468574, Control_c, 0, 64, 35
1, 468574, Control_c, 0, 67, 37
1, 468575, Note_off_c, 0, 67, 64
1, 468583, Note_on_c, 0, 69, 75
1, 468589, Control_c, 0, 64, 55
1, 468589, Control_c, 0, 67, 37
1, 468598, Note_off_c, 0, 72, 64
1, 468602, Note_off_c, 0, 74, 65
1, 468604, Control_c, 0, 64, 62
1, 468604, Control_c, 0, 67, 36
1, 468614, Note_off_c, 0, 76, 64
1, 468619, Control_c, 0, 64, 65
1, 468619, Control_c, 0, 67, 35
1, 468633, Control_c, 0, 64, 69
1, 468648, Control_c, 0, 64, 72
1, 468662, Note_off_c, 0, 69, 65
1, 468663, Control_c, 0, 64, 73
1, 468671, Note_on_c, 0, 67, 73
1, 468678, Control_c, 0, 64, 72
1, 468686, Note_on_c, 0, 71, 10
1, 468693, Control_c, 0, 64, 66
1, 468707, Control_c, 0, 64, 47
1, 468722, Control_c, 0, 64, 0
1, 468723, Note_off_c, 0, 71, 37
1, 468750, Note_off_c, 0, 67, 57
1, 468751, Note_on_c, 0, 74, 83
1, 468752, Note_on_c, 0, 72, 69
1, 468761, Note_on_c, 0, 69, 78
1, 468768, Control_c, 0, 67, 35
1, 468782, Control_c, 0, 67, 34
1, 468789, Note_off_c, 0, 72, 57
1, 468790, Note_off_c, 0, 74, 67
1, 468797, Control_c, 0, 67, 33
1, 468812, Control_c, 0, 67, 31
1, 468827, Control_c, 0, 67, 30
1, 468829, Note_on_c, 0, 74, 82
1, 468840, Note_on_c, 0, 67, 79
1, 468841, Note_off_c, 0, 69, 65
1, 468842, Control_c, 0, 67, 30
1, 468856, Control_c, 0, 67, 29
1, 468871, Control_c, 0, 67, 27
1, 468872, Note_off_c, 0, 74, 66
1, 468886, Control_c, 0, 67, 24
1, 468901, Control_c, 0, 67, 19
1, 468914, Note_on_c, 0, 72, 72
1, 468914, Note_on_c, 0, 74, 91
1, 468916, Control_c, 0, 67, 14
1, 468921, Note_off_c, 0, 67, 63
1, 468930, Control_c, 0, 67, 10
1, 468938, Note_on_c, 0, 69, 66
1, 468945, Control_c, 0, 67, 0
1, 468949, Note_off_c, 0, 72, 61
1, 468954, Note_off_c, 0, 74, 63
1, 468990, Note_on_c, 0, 74, 84
1, 469008, Note_on_c, 0, 67, 79
1, 469008, Note_off_c, 0, 69, 65
1, 469039, Note_off_c, 0, 74, 66
1, 469073, Note_on_c, 0, 78, 96
1, 469076, Note_on_c, 0, 72, 80
1, 469076, Note_on_c, 0, 76, 92
1, 469079, Control_c, 0, 64, 34
1, 469092, Note_off_c, 0, 67, 63
1, 469094, Control_c, 0, 64, 23
1, 469109, Control_c, 0, 64, 0
1, 469111, Note_on_c, 0, 69, 69
1, 469121, Note_off_c, 0, 76, 63
1, 469130, Note_off_c, 0, 72, 61
1, 469133, Note_off_c, 0, 78, 64
1, 469166, Note_on_c, 0, 71, 79
1, 469189, Note_on_c, 0, 67, 82
1, 469194, Note_off_c, 0, 71, 62
1, 469201, Note_off_c, 0, 69, 65
1, 469247, Note_on_c, 0, 75, 92
1, 469255, Note_on_c, 0, 78, 83
1, 469263, Note_on_c, 0, 72, 80
1, 469279, Note_off_c, 0, 75, 63
1, 469282, Note_off_c, 0, 67, 63
1, 469291, Note_on_c, 0, 69, 76
1, 469318, Note_off_c, 0, 78, 63
1, 469331, Note_off_c, 0, 72, 58
1, 469336, Note_on_c, 0, 71, 76
1, 469362, Note_off_c, 0, 71, 69
1, 469364, Note_on_c, 0, 67, 71
1, 469365, Note_off_c, 0, 69, 66
1, 469422, Note_on_c, 0, 74, 98
1, 469435, Note_on_c, 0, 68, 95
1, 469446, Note_off_c, 0, 67, 57
1, 469464, Note_off_c, 0, 74, 66
1, 469470, Note_off_c, 0, 68, 68
1, 469644, Note_on_c, 0, 74, 96
1, 469650, Control_c, 0, 64, 32
1, 469653, Note_on_c, 0, 68, 94
1, 469665, Control_c, 0, 64, 61
1, 469679, Control_c, 0, 64, 71
1, 469694, Control_c, 0, 64, 83
1, 469709, Control_c, 0, 64, 115
1, 469724, Control_c, 0, 64, 127
1, 469775, Note_off_c, 0, 68, 64
1, 469791, Note_off_c, 0, 74, 60
1, 469827, Control_c, 0, 64, 89
1, 469833, Note_on_c, 0, 79, 86
1, 469836, Note_on_c, 0, 73, 80
1, 469842, Control_c, 0, 64, 58
1, 469844, Note_on_c, 0, 62, 80
1, 469848, Note_on_c, 0, 67, 65
1, 469857, Control_c, 0, 64, 0
1, 469863, Note_off_c, 0, 73, 65
1, 469868, Note_off_c, 0, 67, 63
1, 469869, Note_off_c, 0, 62, 68
1, 469879, Note_off_c, 0, 79, 64
1, 470043, Note_on_c, 0, 79, 70
1, 470054, Note_on_c, 0, 73, 53
1, 470079, Note_off_c, 0, 73, 66
1, 470088, Note_off_c, 0, 79, 61
1, 470215, Note_on_c, 0, 85, 89
1, 470220, Control_c, 0, 64, 38
1, 470222, Note_on_c, 0, 79, 72
1, 470226, Note_on_c, 0, 86, 108
1, 470234, Note_on_c, 0, 73, 47
1, 470236, Control_c, 0, 64, 71
1, 470251, Control_c, 0, 64, 104
1, 470261, Note_off_c, 0, 85, 67
1, 470266, Control_c, 0, 64, 127
1, 470287, Note_off_c, 0, 86, 69
1, 470320, Note_off_c, 0, 79, 59
1, 470358, Note_off_c, 0, 73, 32
1, 470409, Note_on_c, 0, 73, 84
1, 470409, Note_on_c, 0, 79, 95
1, 470418, Note_on_c, 0, 67, 90
1, 470484, Note_off_c, 0, 79, 61
1, 470489, Note_off_c, 0, 67, 61
1, 470493, Note_off_c, 0, 73, 61
1, 470577, Control_c, 0, 64, 105
1, 470592, Control_c, 0, 64, 61
1, 470601, Note_on_c, 0, 78, 80
1, 470602, Note_on_c, 0, 62, 81
1, 470602, Note_on_c, 0, 66, 87
1, 470603, Note_on_c, 0, 72, 75
1, 470607, Control_c, 0, 64, 0
1, 470625, Note_off_c, 0, 62, 71
1, 470633, Note_off_c, 0, 72, 63
1, 470635, Note_off_c, 0, 66, 60
1, 470662, Note_off_c, 0, 78, 63
1, 470794, Note_on_c, 0, 74, 74
1, 470802, Note_on_c, 0, 68, 80
1, 470845, Note_off_c, 0, 68, 53
1, 470848, Note_off_c, 0, 74, 65
1, 470990, Note_on_c, 0, 74, 81
1, 470990, Note_on_c, 0, 97, 90
1, 470994, Note_on_c, 0, 98, 107
1, 470997, Note_on_c, 0, 68, 90
1, 470999, Control_c, 0, 64, 58
1, 471014, Control_c, 0, 64, 127
1, 471025, Note_off_c, 0, 97, 67
1, 471036, Note_off_c, 0, 98, 68
1, 471071, Note_off_c, 0, 68, 64
1, 471102, Poly_aftertouch_c, 0, 77, 127
1, 471124, Poly_aftertouch_c, 0, 77, 0
1, 471129, Note_off_c, 0, 74, 58
1, 471163, Note_on_c, 0, 74, 76
1, 471169, Note_on_c, 0, 68, 105
1, 471264, Note_off_c, 0, 68, 64
1, 471277, Poly_aftertouch_c, 0, 76, 0
1, 471297, Control_c, 0, 64, 87
1, 471302, Note_off_c, 0, 74, 60
1, 471312, Control_c, 0, 64, 54
1, 471326, Control_c, 0, 64, 0
1, 471360, Note_on_c, 0, 79, 82
1, 471362, Note_on_c, 0, 62, 88
1, 471366, Note_on_c, 0, 67, 71
1, 471366, Note_on_c, 0, 73, 68
1, 471384, Note_off_c, 0, 62, 70
1, 471386, Note_off_c, 0, 67, 66
1, 471390, Note_off_c, 0, 73, 68
1, 471390, Note_off_c, 0, 79, 65
1, 471540, Note_on_c, 0, 79, 76
1, 471543, Note_on_c, 0, 73, 58
1, 471580, Note_off_c, 0, 73, 65
1, 471596, Note_off_c, 0, 79, 62
1, 471719, Control_c, 0, 64, 64
1, 471725, Note_on_c, 0, 79, 80
1, 471726, Note_on_c, 0, 86, 116
1, 471728, Note_on_c, 0, 73, 84
1, 471733, Control_c, 0, 64, 93
1, 471735, Note_on_c, 0, 85, 74
1, 471748, Control_c, 0, 64, 127
1, 471752, Note_off_c, 0, 85, 68
1, 471765, Note_off_c, 0, 86, 68
1, 471790, Note_off_c, 0, 73, 63
1, 471795, Note_off_c, 0, 79, 64
1, 471822, Control_c, 0, 64, 111
1, 471837, Control_c, 0, 64, 67
1, 471851, Control_c, 0, 64, 0
1, 471899, Note_on_c, 0, 79, 97
1, 471902, Note_on_c, 0, 67, 100
1, 471902, Note_on_c, 0, 73, 94
1, 471942, Control_c, 0, 64, 50
1, 471956, Control_c, 0, 64, 78
1, 471971, Control_c, 0, 64, 81
1, 471986, Control_c, 0, 64, 82
1, 472000, Control_c, 0, 64, 80
1, 472006, Note_off_c, 0, 67, 59
1, 472006, Note_off_c, 0, 79, 64
1, 472015, Control_c, 0, 64, 70
1, 472030, Control_c, 0, 64, 51
1, 472037, Note_off_c, 0, 73, 61
1, 472045, Control_c, 0, 64, 0
1, 472100, Note_on_c, 0, 78, 85
1, 472106, Note_on_c, 0, 72, 74
1, 472107, Note_on_c, 0, 66, 86
1, 472108, Note_on_c, 0, 62, 85
1, 472120, Control_c, 0, 64, 37
1, 472131, Note_off_c, 0, 62, 69
1, 472134, Control_c, 0, 64, 69
1, 472149, Control_c, 0, 64, 96
1, 472170, Note_off_c, 0, 66, 60
1, 472171, Control_c, 0, 64, 127
1, 472176, Note_off_c, 0, 72, 59
1, 472278, Poly_aftertouch_c, 0, 62, 0
1, 472415, Note_off_c, 0, 78, 40
1, 472471, Note_on_c, 0, 97, 95
1, 472474, Note_on_c, 0, 98, 108
1, 472477, Note_on_c, 0, 75, 81
1, 472477, Note_on_c, 0, 81, 87
1, 472482, Note_on_c, 0, 69, 88
1, 472504, Note_off_c, 0, 97, 67
1, 472512, Note_on_c, 0, 78, 57
1, 472515, Note_off_c, 0, 98, 68
1, 472534, Note_off_c, 0, 78, 61
1, 472542, Note_off_c, 0, 81, 64
1, 472546, Note_off_c, 0, 69, 64
1, 472585, Note_off_c, 0, 75, 63
1, 472646, Note_on_c, 0, 72, 6
1, 472646, Note_on_c, 0, 78, 79
1, 472659, Note_on_c, 0, 66, 94
1, 472749, Control_c, 0, 64, 102
1, 472761, Note_off_c, 0, 66, 62
1, 472764, Control_c, 0, 64, 70
1, 472767, Note_off_c, 0, 72, 31
1, 472778, Control_c, 0, 64, 38
1, 472793, Control_c, 0, 64, 0
1, 472835, Note_on_c, 0, 76, 90
1, 472839, Note_on_c, 0, 70, 99
1, 472840, Note_on_c, 0, 64, 92
1, 472844, Note_on_c, 0, 62, 88
1, 472853, Control_c, 0, 64, 31
1, 472868, Note_off_c, 0, 62, 70
1, 472868, Control_c, 0, 64, 0
1, 472870, Note_off_c, 0, 78, 63
1, 472875, Note_off_c, 0, 64, 67
1, 472881, Note_off_c, 0, 76, 65
1, 472884, Note_off_c, 0, 70, 64
1, 473026, Note_on_c, 0, 76, 74
1, 473035, Note_on_c, 0, 70, 63
1, 473073, Note_off_c, 0, 70, 63
1, 473091, Note_off_c, 0, 76, 62
1, 473186, Control_c, 0, 64, 47
1, 473199, Note_on_c, 0, 85, 89
1, 473201, Control_c, 0, 64, 70
1, 473208, Note_on_c, 0, 86, 103
1, 473210, Note_on_c, 0, 76, 73
1, 473216, Control_c, 0, 64, 90
1, 473222, Note_on_c, 0, 70, 74
1, 473230, Control_c, 0, 64, 127
1, 473238, Note_off_c, 0, 85, 64
1, 473249, Note_off_c, 0, 86, 67
1, 473272, Note_off_c, 0, 76, 61
1, 473276, Note_off_c, 0, 70, 61
1, 473382, Note_on_c, 0, 76, 97
1, 473389, Note_on_c, 0, 70, 95
1, 473393, Note_on_c, 0, 64, 89
1, 473446, Note_off_c, 0, 64, 64
1, 473471, Note_off_c, 0, 76, 61
1, 473475, Note_off_c, 0, 70, 62
1, 473527, Control_c, 0, 64, 88
1, 473542, Control_c, 0, 64, 58
1, 473557, Control_c, 0, 64, 0
1, 473588, Note_on_c, 0, 78, 69
1, 473589, Note_on_c, 0, 62, 65
1, 473598, Note_on_c, 0, 66, 53
1, 473603, Note_on_c, 0, 72, 54
1, 473609, Note_off_c, 0, 62, 66
1, 473632, Note_off_c, 0, 72, 63
1, 473634, Note_off_c, 0, 66, 55
1, 473658, Note_off_c, 0, 78, 59
1, 473762, Note_on_c, 0, 72, 69
1, 473765, Note_on_c, 0, 66, 95
1, 473767, Note_on_c, 0, 78, 92
1, 473786, Control_c, 0, 64, 56
1, 473797, Note_on_c, 0, 75, 57
1, 473801, Control_c, 0, 64, 127
1, 473823, Note_off_c, 0, 66, 66
1, 473826, Note_off_c, 0, 75, 67
1, 473906, Note_off_c, 0, 78, 60
1, 473922, Note_on_c, 0, 75, 44
1, 473930, Note_off_c, 0, 72, 24
1, 473953, Note_on_c, 0, 81, 85
1, 473962, Note_on_c, 0, 100, 99
1, 473964, Note_on_c, 0, 98, 84
1, 473973, Note_on_c, 0, 69, 60
1, 473980, Note_off_c, 0, 75, 0
1, 473980, Note_on_c, 0, 75, 12
1, 474000, Note_off_c, 0, 69, 59
1, 474001, Note_on_c, 0, 72, 16
1, 474002, Note_off_c, 0, 98, 66
1, 474002, Note_off_c, 0, 100, 67
1, 474008, Note_off_c, 0, 81, 64
1, 474022, Note_off_c, 0, 72, 0
1, 474029, Note_off_c, 0, 75, 62
1, 474059, Poly_aftertouch_c, 0, 72, 127
1, 474108, Poly_aftertouch_c, 0, 72, 0
1, 474114, Control_c, 0, 64, 120
1, 474128, Control_c, 0, 64, 104
1, 474134, Note_on_c, 0, 78, 96
1, 474141, Note_on_c, 0, 66, 93
1, 474143, Control_c, 0, 64, 92
1, 474147, Note_on_c, 0, 72, 60
1, 474158, Control_c, 0, 64, 81
1, 474171, Note_on_c, 0, 68, 55
1, 474172, Control_c, 0, 64, 69
1, 474187, Control_c, 0, 64, 55
1, 474199, Note_off_c, 0, 68, 52
1, 474202, Control_c, 0, 64, 0
1, 474216, Note_off_c, 0, 66, 63
1, 474299, Note_off_c, 0, 72, 33
1, 474317, Note_on_c, 0, 70, 82
1, 474320, Note_on_c, 0, 76, 84
1, 474329, Note_on_c, 0, 62, 87
1, 474331, Note_on_c, 0, 64, 93
1, 474337, Control_c, 0, 64, 79
1, 474346, Note_on_c, 0, 75, 50
1, 474351, Control_c, 0, 64, 127
1, 474354, Note_off_c, 0, 78, 62
1, 474367, Note_off_c, 0, 76, 65
1, 474368, Note_off_c, 0, 62, 66
1, 474369, Note_off_c, 0, 64, 69
1, 474373, Note_off_c, 0, 70, 62
1, 474380, Note_off_c, 0, 75, 50
1, 474510, Note_on_c, 0, 76, 78
1, 474522, Note_on_c, 0, 64, 67
1, 474528, Note_on_c, 0, 70, 80
1, 474594, Note_off_c, 0, 70, 63
1, 474597, Note_off_c, 0, 64, 61
1, 474599, Note_off_c, 0, 76, 62
1, 474687, Note_on_c, 0, 85, 90
1, 474699, Note_on_c, 0, 86, 107
1, 474702, Note_on_c, 0, 76, 94
1, 474703, Note_on_c, 0, 70, 93
1, 474707, Note_on_c, 0, 64, 90
1, 474728, Note_off_c, 0, 85, 67
1, 474740, Note_off_c, 0, 86, 66
1, 474790, Note_off_c, 0, 64, 62
1, 474804, Note_off_c, 0, 70, 64
1, 474808, Note_off_c, 0, 76, 60
1, 474878, Note_on_c, 0, 70, 83
1, 474884, Note_on_c, 0, 76, 84
1, 474920, Note_off_c, 0, 70, 64
1, 474932, Note_off_c, 0, 76, 65
1, 475062, Note_on_c, 0, 62, 78
1, 475062, Note_on_c, 0, 78, 88
1, 475071, Note_on_c, 0, 66, 85
1, 475077, Note_on_c, 0, 74, 62
1, 475090, Note_off_c, 0, 78, 62
1, 475098, Note_off_c, 0, 74, 67
1, 475133, Note_off_c, 0, 62, 65
1, 475160, Note_off_c, 0, 66, 65
1, 475166, Note_on_c, 0, 73, 90
1, 475176, Note_on_c, 0, 85, 78
1, 475182, Note_on_c, 0, 79, 68
1, 475182, Note_off_c, 0, 73, 72
1, 475199, Note_off_c, 0, 79, 67
1, 475202, Note_off_c, 0, 85, 66
1, 475268, Note_on_c, 0, 86, 87
1, 475274, Note_on_c, 0, 74, 59
1, 475281, Note_on_c, 0, 85, 58
1, 475292, Note_off_c, 0, 74, 65
1, 475297, Note_on_c, 0, 81, 41
1, 475297, Note_off_c, 0, 86, 60
1, 475298, Note_off_c, 0, 85, 65
1, 475303, Note_on_c, 0, 80, 10
1, 475304, Note_off_c, 0, 80, 127
1, 475320, Poly_aftertouch_c, 0, 73, 0
1, 475324, Note_off_c, 0, 81, 52
1, 475351, Note_on_c, 0, 76, 74
1, 475351, Note_on_c, 0, 88, 98
1, 475351, Poly_aftertouch_c, 0, 80, 0
1, 475359, Note_on_c, 0, 83, 91
1, 475379, Note_off_c, 0, 83, 68
1, 475387, Note_off_c, 0, 76, 64
1, 475394, Note_off_c, 0, 88, 66
1, 475434, Note_on_c, 0, 97, 88
1, 475441, Note_on_c, 0, 89, 91
1, 475442, Note_on_c, 0, 98, 81
1, 475446, Note_on_c, 0, 77, 91
1, 475447, Note_on_c, 0, 84, 92
1, 475455, Note_off_c, 0, 97, 69
1, 475456, Note_off_c, 0, 98, 69
1, 475459, Note_on_c, 0, 83, 54
1, 475463, Control_c, 0, 64, 93
1, 475464, Note_on_c, 0, 88, 59
1, 475475, Note_off_c, 0, 83, 64
1, 475476, Control_c, 0, 64, 70
1, 475478, Note_off_c, 0, 84, 62
1, 475485, Note_off_c, 0, 77, 60
1, 475485, Note_off_c, 0, 88, 62
1, 475486, Note_off_c, 0, 89, 65
1, 475491, Control_c, 0, 64, 50
1, 475506, Control_c, 0, 64, 0
1, 475537, Note_on_c, 0, 91, 96
1, 475543, Note_on_c, 0, 86, 90
1, 475545, Note_on_c, 0, 79, 83
1, 475568, Note_off_c, 0, 86, 64
1, 475571, Note_off_c, 0, 79, 66
1, 475578, Note_off_c, 0, 91, 64
1, 475630, Note_on_c, 0, 93, 101
1, 475636, Note_on_c, 0, 81, 85
1, 475639, Note_on_c, 0, 88, 79
1, 475659, Note_off_c, 0, 81, 64
1, 475662, Note_off_c, 0, 88, 72
1, 475664, Note_off_c, 0, 93, 65
1, 475719, Note_on_c, 0, 90, 102
1, 475722, Note_on_c, 0, 95, 93
1, 475739, Note_on_c, 0, 94, 72
1, 475751, Note_on_c, 0, 83, 40
1, 475752, Note_off_c, 0, 83, 127
1, 475753, Note_off_c, 0, 95, 61
1, 475754, Note_off_c, 0, 94, 65
1, 475761, Note_off_c, 0, 90, 66
1, 475864, Note_on_c, 0, 96, 104
1, 475867, Note_on_c, 0, 91, 102
1, 475876, Control_c, 0, 64, 12
1, 475891, Control_c, 0, 64, 64
1, 475913, Control_c, 0, 64, 74
1, 475918, Note_off_c, 0, 96, 65
1, 475923, Note_off_c, 0, 91, 66
1, 475929, Control_c, 0, 64, 86
1, 475944, Control_c, 0, 64, 127
1, 475959, Note_on_c, 0, 84, 73
1, 475981, Note_off_c, 0, 84, 69
1, 476043, Note_on_c, 0, 60, 67
1, 476049, Note_on_c, 0, 83, 71
1, 476067, Note_on_c, 0, 79, 55
1, 476069, Note_off_c, 0, 60, 63
1, 476078, Note_off_c, 0, 83, 67
1, 476088, Note_off_c, 0, 79, 62
1, 476152, Note_on_c, 0, 72, 61
1, 476185, Note_off_c, 0, 72, 64
1, 476230, Note_on_c, 0, 86, 74
1, 476234, Note_on_c, 0, 85, 71
1, 476245, Note_on_c, 0, 72, 81
1, 476245, Note_off_c, 0, 86, 68
1, 476250, Note_off_c, 0, 85, 69
1, 476284, Note_off_c, 0, 72, 62
1, 476310, Note_on_c, 0, 79, 76
1, 476332, Note_on_c, 0, 83, 63
1, 476338, Note_off_c, 0, 79, 66
1, 476358, Note_off_c, 0, 83, 68
1, 476416, Note_on_c, 0, 61, 68
1, 476439, Note_on_c, 0, 84, 65
1, 476461, Note_on_c, 0, 86, 45
1, 476477, Note_off_c, 0, 84, 66
1, 476487, Note_off_c, 0, 86, 57
1, 476502, Note_on_c, 0, 96, 88
1, 476521, Note_on_c, 0, 92, 60
1, 476523, Note_off_c, 0, 96, 69
1, 476536, Control_c, 0, 64, 72
1, 476540, Note_off_c, 0, 92, 65
1, 476551, Control_c, 0, 64, 34
1, 476565, Control_c, 0, 64, 0
1, 476588, Note_on_c, 0, 95, 85
1, 476606, Note_on_c, 0, 91, 82
1, 476610, Control_c, 0, 64, 50
1, 476615, Note_on_c, 0, 90, 58
1, 476625, Control_c, 0, 64, 79
1, 476647, Control_c, 0, 64, 127
1, 476648, Note_off_c, 0, 91, 58
1, 476656, Note_off_c, 0, 90, 48
1, 476657, Note_off_c, 0, 95, 67
1, 476666, Note_on_c, 0, 93, 6
1, 476667, Note_off_c, 0, 93, 127
1, 476679, Note_on_c, 0, 83, 75
1, 476700, Note_off_c, 0, 61, 55
1, 476704, Note_off_c, 0, 83, 70
1, 476767, Note_on_c, 0, 62, 75
1, 476778, Note_on_c, 0, 79, 82
1, 476781, Note_on_c, 0, 74, 83
1, 476791, Note_off_c, 0, 62, 68
1, 476804, Note_off_c, 0, 79, 66
1, 476818, Note_off_c, 0, 74, 62
1, 476874, Note_on_c, 0, 67, 81
1, 476920, Note_off_c, 0, 67, 63
1, 476966, Note_on_c, 0, 67, 75
1, 476973, Note_on_c, 0, 97, 62
1, 476975, Note_on_c, 0, 98, 50
1, 476985, Note_off_c, 0, 67, 69
1, 476987, Note_on_c, 0, 96, 39
1, 476992, Note_off_c, 0, 97, 63
1, 476999, Note_off_c, 0, 98, 56
1, 477019, Note_off_c, 0, 96, 49
1, 477034, Note_on_c, 0, 74, 73
1, 477044, Note_on_c, 0, 78, 60
1, 477048, Note_on_c, 0, 67, 27
1, 477049, Note_off_c, 0, 67, 127
1, 477050, Note_on_c, 0, 79, 76
1, 477058, Note_off_c, 0, 74, 68
1, 477070, Note_off_c, 0, 78, 66
1, 477074, Note_off_c, 0, 79, 68
1, 477137, Note_on_c, 0, 79, 86
1, 477150, Note_on_c, 0, 63, 76
1, 477192, Note_off_c, 0, 79, 65
1, 477225, Note_on_c, 0, 91, 69
1, 477229, Note_on_c, 0, 89, 72
1, 477233, Note_on_c, 0, 93, 72
1, 477241, Control_c, 0, 64, 112
1, 477249, Note_off_c, 0, 93, 69
1, 477250, Note_off_c, 0, 91, 69
1, 477256, Note_off_c, 0, 89, 67
1, 477256, Control_c, 0, 64, 66
1, 477270, Control_c, 0, 64, 0
1, 477283, Poly_aftertouch_c, 0, 86, 0
1, 477313, Note_on_c, 0, 96, 101
1, 477314, Note_on_c, 0, 91, 98
1, 477315, Note_on_c, 0, 95, 103
1, 477358, Note_off_c, 0, 96, 64
1, 477362, Note_off_c, 0, 91, 65
1, 477365, Note_off_c, 0, 95, 66
1, 477402, Note_on_c, 0, 86, 88
1, 477426, Note_off_c, 0, 86, 70
1, 477491, Note_on_c, 0, 83, 91
1, 477494, Note_on_c, 0, 79, 89
1, 477494, Note_off_c, 0, 63, 0
1, 477497, Note_on_c, 0, 64, 80
1, 477515, Control_c, 0, 64, 63
1, 477522, Note_off_c, 0, 64, 69
1, 477530, Control_c, 0, 64, 68
1, 477534, Poly_aftertouch_c, 0, 63, 0
1, 477539, Note_off_c, 0, 79, 63
1, 477539, Note_off_c, 0, 83, 67
1, 477560, Control_c, 0, 64, 69
1, 477575, Control_c, 0, 64, 73
1, 477583, Note_on_c, 0, 72, 86
1, 477590, Control_c, 0, 64, 81
1, 477605, Control_c, 0, 64, 95
1, 477614, Note_on_c, 0, 64, 16
1, 477619, Control_c, 0, 64, 127
1, 477631, Note_off_c, 0, 72, 64
1, 477649, Note_off_c, 0, 64, 54
1, 477671, Note_on_c, 0, 85, 92
1, 477673, Note_on_c, 0, 86, 87
1, 477679, Note_on_c, 0, 72, 88
1, 477687, Note_off_c, 0, 86, 72
1, 477690, Note_off_c, 0, 85, 72
1, 477742, Note_off_c, 0, 72, 64
1, 477763, Note_on_c, 0, 79, 72
1, 477768, Note_on_c, 0, 83, 76
1, 477789, Note_off_c, 0, 79, 67
1, 477791, Note_off_c, 0, 83, 69
1, 477842, Control_c, 0, 64, 76
1, 477852, Note_on_c, 0, 63, 78
1, 477857, Control_c, 0, 64, 54
1, 477861, Note_on_c, 0, 84, 85
1, 477872, Control_c, 0, 64, 0
1, 477912, Note_off_c, 0, 84, 66
1, 477934, Note_on_c, 0, 95, 88
1, 477938, Note_on_c, 0, 93, 88
1, 477968, Note_on_c, 0, 91, 48
1, 477979, Note_off_c, 0, 93, 64
1, 477980, Note_off_c, 0, 95, 67
1, 477994, Note_off_c, 0, 91, 61
1, 478023, Note_on_c, 0, 95, 98
1, 478026, Note_on_c, 0, 83, 101
1, 478027, Note_on_c, 0, 93, 95
1, 478033, Note_on_c, 0, 90, 94
1, 478088, Note_off_c, 0, 63, 59
1, 478093, Control_c, 0, 64, 31
1, 478098, Note_off_c, 0, 90, 66
1, 478108, Control_c, 0, 64, 46
1, 478123, Control_c, 0, 64, 49
1, 478145, Control_c, 0, 64, 55
1, 478160, Control_c, 0, 64, 64
1, 478175, Control_c, 0, 64, 70
1, 478190, Control_c, 0, 64, 80
1, 478203, Note_off_c, 0, 95, 60
1, 478205, Control_c, 0, 64, 95
1, 478210, Note_on_c, 0, 62, 75
1, 478210, Note_off_c, 0, 93, 57
1, 478219, Control_c, 0, 64, 117
1, 478234, Note_off_c, 0, 62, 67
1, 478234, Control_c, 0, 64, 127
1, 478308, Note_off_c, 0, 83, 53
1, 478410, Note_on_c, 0, 97, 84
1, 478410, Note_on_c, 0, 98, 78
1, 478411, Note_on_c, 0, 86, 67
1, 478412, Note_on_c, 0, 95, 71
1, 478425, Note_off_c, 0, 98, 70
1, 478430, Note_off_c, 0, 97, 71
1, 478441, Note_on_c, 0, 93, 21
1, 478442, Note_off_c, 0, 86, 66
1, 478458, Note_off_c, 0, 95, 58
1, 478480, Note_off_c, 0, 93, 38
1, 478496, Note_on_c, 0, 83, 79
1, 478530, Note_off_c, 0, 83, 64
1, 478588, Note_on_c, 0, 95, 79
1, 478595, Note_on_c, 0, 83, 84
1, 478599, Note_on_c, 0, 61, 75
1, 478614, Note_off_c, 0, 95, 65
1, 478632, Note_off_c, 0, 83, 63
1, 478673, Note_on_c, 0, 93, 95
1, 478678, Note_on_c, 0, 88, 88
1, 478684, Note_on_c, 0, 90, 75
1, 478690, Note_on_c, 0, 95, 46
1, 478694, Control_c, 0, 64, 80
1, 478705, Note_off_c, 0, 95, 37
1, 478708, Note_on_c, 0, 91, 57
1, 478709, Control_c, 0, 64, 56
1, 478710, Note_off_c, 0, 88, 63
1, 478713, Note_off_c, 0, 90, 66
1, 478722, Note_off_c, 0, 93, 66
1, 478723, Control_c, 0, 64, 0
1, 478730, Note_off_c, 0, 91, 63
1, 478773, Note_on_c, 0, 88, 95
1, 478773, Note_on_c, 0, 93, 81
1, 478777, Note_on_c, 0, 90, 87
1, 478811, Note_on_c, 0, 91, 53
1, 478812, Note_off_c, 0, 91, 127
1, 478812, Note_off_c, 0, 93, 63
1, 478824, Note_off_c, 0, 61, 64
1, 478826, Note_off_c, 0, 88, 67
1, 478827, Note_off_c, 0, 90, 65
1, 478827, Control_c, 0, 64, 67
1, 478842, Control_c, 0, 64, 96
1, 478845, Note_on_c, 0, 81, 76
1, 478857, Control_c, 0, 64, 118
1, 478870, Note_off_c, 0, 81, 69
1, 478871, Control_c, 0, 64, 120
1, 478923, Control_c, 0, 64, 122
1, 478938, Control_c, 0, 64, 124
1, 478944, Note_on_c, 0, 81, 80
1, 478946, Note_on_c, 0, 76, 75
1, 478948, Note_on_c, 0, 78, 78
1, 478952, Note_on_c, 0, 60, 72
1, 478953, Control_c, 0, 64, 127
1, 478970, Note_off_c, 0, 81, 65
1, 478973, Note_off_c, 0, 76, 67
1, 478973, Note_off_c, 0, 60, 66
1, 478981, Note_off_c, 0, 78, 60
1, 479035, Note_on_c, 0, 69, 84
1, 479076, Note_off_c, 0, 69, 65
1, 479122, Poly_aftertouch_c, 0, 60, 0
1, 479123, Note_on_c, 0, 69, 81
1, 479129, Note_on_c, 0, 86, 89
1, 479132, Note_on_c, 0, 85, 86
1, 479141, Note_off_c, 0, 86, 73
1, 479152, Note_off_c, 0, 85, 70
1, 479194, Note_off_c, 0, 69, 66
1, 479210, Note_on_c, 0, 78, 77
1, 479216, Note_on_c, 0, 75, 32
1, 479216, Note_on_c, 0, 76, 69
1, 479225, Note_on_c, 0, 81, 61
1, 479232, Note_off_c, 0, 76, 67
1, 479235, Note_off_c, 0, 78, 68
1, 479248, Note_off_c, 0, 81, 67
1, 479249, Note_off_c, 0, 75, 55
1, 479289, Poly_aftertouch_c, 0, 85, 0
1, 479307, Note_on_c, 0, 61, 72
1, 479309, Note_on_c, 0, 81, 89
1, 479309, Poly_aftertouch_c, 0, 79, 0
1, 479359, Note_off_c, 0, 81, 63
1, 479380, Note_on_c, 0, 93, 99
1, 479408, Note_on_c, 0, 90, 56
1, 479423, Note_off_c, 0, 93, 66
1, 479428, Note_off_c, 0, 90, 63
1, 479443, Control_c, 0, 64, 111
1, 479458, Control_c, 0, 64, 64
1, 479471, Note_on_c, 0, 95, 99
1, 479472, Control_c, 0, 64, 0
1, 479475, Note_on_c, 0, 90, 105
1, 479475, Note_on_c, 0, 93, 81
1, 479519, Note_off_c, 0, 90, 66
1, 479523, Note_off_c, 0, 93, 62
1, 479533, Note_off_c, 0, 95, 66
1, 479534, Note_off_c, 0, 61, 56
1, 479557, Note_on_c, 0, 83, 90
1, 479576, Control_c, 0, 64, 57
1, 479590, Control_c, 0, 64, 70
1, 479606, Note_off_c, 0, 83, 67
1, 479635, Control_c, 0, 64, 70
1, 479655, Note_on_c, 0, 83, 90
1, 479658, Control_c, 0, 64, 73
1, 479662, Note_on_c, 0, 62, 67
1, 479672, Control_c, 0, 64, 78
1, 479682, Note_off_c, 0, 62, 67
1, 479687, Control_c, 0, 64, 87
1, 479702, Control_c, 0, 64, 104
1, 479706, Note_off_c, 0, 83, 67
1, 479717, Control_c, 0, 64, 127
1, 479737, Note_on_c, 0, 95, 81
1, 479752, Note_on_c, 0, 93, 70
1, 479772, Note_off_c, 0, 93, 58
1, 479780, Note_off_c, 0, 95, 66
1, 479829, Note_on_c, 0, 95, 88
1, 479834, Note_on_c, 0, 100, 89
1, 479839, Note_on_c, 0, 86, 91
1, 479841, Note_on_c, 0, 93, 74
1, 479847, Note_on_c, 0, 98, 68
1, 479853, Note_off_c, 0, 100, 72
1, 479862, Note_on_c, 0, 84, 49
1, 479863, Note_off_c, 0, 84, 127
1, 479863, Note_off_c, 0, 98, 41
1, 479866, Note_off_c, 0, 86, 66
1, 479866, Note_off_c, 0, 93, 65
1, 479886, Note_off_c, 0, 95, 66
1, 479933, Note_on_c, 0, 83, 93
1, 479977, Note_off_c, 0, 83, 66
1, 480019, Note_on_c, 0, 95, 96
1, 480020, Note_on_c, 0, 83, 91
1, 480036, Note_on_c, 0, 64, 56
1, 480048, Note_on_c, 0, 65, 58
1, 480055, Note_off_c, 0, 95, 68
1, 480064, Note_on_c, 0, 63, 27
1, 480066, Note_off_c, 0, 83, 66
1, 480070, Note_off_c, 0, 65, 62
1, 480097, Note_off_c, 0, 64, 64
1, 480109, Note_on_c, 0, 95, 89
1, 480109, Note_on_c, 0, 88, 97
1, 480112, Note_on_c, 0, 93, 80
1, 480132, Control_c, 0, 64, 73
1, 480137, Note_on_c, 0, 91, 59
1, 480138, Note_on_c, 0, 90, 39
1, 480147, Note_off_c, 0, 88, 66
1, 480147, Control_c, 0, 64, 27
1, 480147, Note_off_c, 0, 95, 66
1, 480150, Note_off_c, 0, 93, 64
1, 480152, Note_off_c, 0, 63, 52
1, 480156, Note_off_c, 0, 91, 63
1, 480162, Control_c, 0, 64, 0
1, 480167, Note_off_c, 0, 90, 34
1, 480198, Note_on_c, 0, 87, 86
1, 480207, Control_c, 0, 64, 59
1, 480207, Note_on_c, 0, 90, 89
1, 480210, Note_on_c, 0, 93, 75
1, 480219, Note_on_c, 0, 88, 75
1, 480221, Control_c, 0, 64, 88
1, 480233, Note_off_c, 0, 87, 65
1, 480236, Control_c, 0, 64, 127
1, 480238, Note_on_c, 0, 91, 43
1, 480239, Note_off_c, 0, 91, 127
1, 480244, Note_off_c, 0, 88, 70
1, 480252, Note_off_c, 0, 93, 63
1, 480254, Note_off_c, 0, 90, 67
1, 480284, Note_on_c, 0, 81, 83
1, 480320, Note_off_c, 0, 81, 64
1, 480339, Control_c, 0, 64, 124
1, 480354, Control_c, 0, 64, 66
1, 480369, Control_c, 0, 64, 0
1, 480376, Note_on_c, 0, 76, 77
1, 480378, Note_on_c, 0, 62, 93
1, 480379, Note_on_c, 0, 78, 75
1, 480383, Note_on_c, 0, 83, 65
1, 480393, Note_on_c, 0, 81, 51
1, 480407, Note_off_c, 0, 83, 67
1, 480410, Note_off_c, 0, 62, 71
1, 480410, Note_off_c, 0, 76, 66
1, 480422, Note_off_c, 0, 81, 54
1, 480427, Note_off_c, 0, 78, 53
1, 480468, Note_on_c, 0, 69, 89
1, 480511, Note_off_c, 0, 69, 65
1, 480525, Control_c, 0, 64, 16
1, 480540, Control_c, 0, 64, 63
1, 480551, Note_on_c, 0, 69, 85
1, 480554, Control_c, 0, 64, 65
1, 480556, Note_on_c, 0, 61, 90
1, 480569, Control_c, 0, 64, 52
1, 480584, Control_c, 0, 64, 0
1, 480598, Note_off_c, 0, 61, 62
1, 480621, Note_off_c, 0, 69, 66
1, 480644, Note_on_c, 0, 76, 71
1, 480644, Note_on_c, 0, 78, 79
1, 480658, Note_on_c, 0, 81, 56
1, 480660, Note_off_c, 0, 76, 69
1, 480667, Note_off_c, 0, 78, 69
1, 480678, Note_off_c, 0, 81, 65
1, 480723, Note_on_c, 0, 60, 84
1, 480734, Note_on_c, 0, 81, 95
1, 480746, Note_on_c, 0, 83, 79
1, 480763, Note_off_c, 0, 83, 60
1, 480767, Note_off_c, 0, 60, 64
1, 480778, Note_off_c, 0, 81, 67
1, 480814, Note_on_c, 0, 90, 83
1, 480814, Note_on_c, 0, 93, 64
1, 480821, Note_on_c, 0, 95, 69
1, 480826, Note_on_c, 0, 91, 72
1, 480836, Note_off_c, 0, 95, 67
1, 480839, Note_off_c, 0, 91, 69
1, 480842, Note_off_c, 0, 93, 68
1, 480851, Note_off_c, 0, 90, 63
1, 480890, Note_on_c, 0, 95, 105
1, 480896, Note_on_c, 0, 91, 88
1, 480897, Note_on_c, 0, 90, 87
1, 480899, Note_on_c, 0, 83, 100
1, 480901, Note_on_c, 0, 93, 91
1, 480908, Note_on_c, 0, 59, 78
1, 480916, Note_off_c, 0, 83, 72
1, 480922, Note_off_c, 0, 93, 66
1, 480925, Control_c, 0, 64, 53
1, 480926, Note_off_c, 0, 95, 68
1, 480933, Note_off_c, 0, 90, 67
1, 480933, Note_off_c, 0, 91, 64
1, 480940, Control_c, 0, 64, 66
1, 480955, Control_c, 0, 64, 72
1, 480970, Control_c, 0, 64, 73
1, 481000, Control_c, 0, 64, 73
1, 481015, Control_c, 0, 64, 69
1, 481030, Control_c, 0, 64, 64
1, 481044, Control_c, 0, 64, 60
1, 481059, Control_c, 0, 64, 59
1, 481089, Control_c, 0, 64, 59
1, 481104, Control_c, 0, 64, 57
1, 481118, Control_c, 0, 64, 55
1, 481140, Control_c, 0, 64, 53
1, 481155, Control_c, 0, 64, 51
1, 481185, Control_c, 0, 64, 50
1, 481200, Control_c, 0, 64, 48
1, 481214, Control_c, 0, 64, 44
1, 481229, Control_c, 0, 64, 38
1, 481244, Control_c, 0, 64, 27
1, 481244, Control_c, 0, 67, 10
1, 481259, Control_c, 0, 64, 0
1, 481259, Control_c, 0, 67, 15
1, 481274, Control_c, 0, 67, 24
1, 481289, Control_c, 0, 67, 32
1, 481304, Control_c, 0, 67, 38
1, 481318, Control_c, 0, 67, 45
1, 481333, Control_c, 0, 67, 50
1, 481348, Control_c, 0, 67, 55
1, 481361, Note_off_c, 0, 59, 59
1, 481363, Control_c, 0, 67, 61
1, 481377, Control_c, 0, 67, 67
1, 481392, Control_c, 0, 67, 75
1, 481407, Control_c, 0, 67, 82
1, 481413, Note_on_c, 0, 77, 55
1, 481422, Control_c, 0, 67, 87
1, 481426, Note_on_c, 0, 65, 47
1, 481437, Control_c, 0, 67, 91
1, 481451, Control_c, 0, 67, 95
1, 481467, Control_c, 0, 67, 100
1, 481482, Control_c, 0, 67, 103
1, 481497, Control_c, 0, 64, 21
1, 481497, Control_c, 0, 67, 106
1, 481513, Control_c, 0, 64, 40
1, 481513, Control_c, 0, 67, 107
1, 481527, Control_c, 0, 64, 52
1, 481531, Note_off_c, 0, 77, 64
1, 481542, Control_c, 0, 64, 59
1, 481542, Control_c, 0, 67, 107
1, 481557, Control_c, 0, 64, 61
1, 481557, Control_c, 0, 67, 109
1, 481572, Control_c, 0, 64, 62
1, 481572, Control_c, 0, 67, 112
1, 481586, Control_c, 0, 64, 65
1, 481586, Control_c, 0, 67, 114
1, 481587, Note_off_c, 0, 65, 57
1, 481601, Control_c, 0, 64, 68
1, 481601, Control_c, 0, 67, 116
1, 481616, Control_c, 0, 64, 72
1, 481631, Control_c, 0, 64, 77
1, 481631, Control_c, 0, 67, 117
1, 481646, Control_c, 0, 64, 80
1, 481646, Control_c, 0, 67, 118
1, 481660, Control_c, 0, 64, 84
1, 481675, Control_c, 0, 64, 87
1, 481690, Control_c, 0, 64, 89
1, 481690, Control_c, 0, 67, 117
1, 481705, Control_c, 0, 64, 91
1, 481705, Control_c, 0, 67, 116
1, 481720, Control_c, 0, 64, 94
1, 481720, Control_c, 0, 67, 117
1, 481734, Control_c, 0, 64, 96
1, 481734, Control_c, 0, 67, 118
1, 481749, Control_c, 0, 64, 98
1, 481749, Control_c, 0, 67, 117
1, 481764, Control_c, 0, 67, 115
1, 481793, Control_c, 0, 64, 98
1, 481793, Control_c, 0, 67, 114
1, 481808, Note_on_c, 0, 65, 42
1, 481808, Control_c, 0, 64, 99
1, 481808, Control_c, 0, 67, 114
1, 481809, Note_on_c, 0, 77, 57
1, 481823, Control_c, 0, 64, 101
1, 481823, Control_c, 0, 67, 114
1, 481838, Control_c, 0, 64, 101
1, 481838, Control_c, 0, 67, 113
1, 481853, Control_c, 0, 67, 111
1, 481867, Control_c, 0, 64, 102
1, 481867, Control_c, 0, 67, 112
1, 481905, Control_c, 0, 64, 103
1, 481920, Control_c, 0, 64, 104
1, 481920, Control_c, 0, 67, 111
1, 481935, Control_c, 0, 64, 104
1, 481935, Control_c, 0, 67, 110
1, 481949, Control_c, 0, 64, 105
1, 481949, Control_c, 0, 67, 110
1, 481964, Control_c, 0, 64, 105
1, 481964, Control_c, 0, 67, 111
1, 481979, Control_c, 0, 64, 108
1, 481979, Control_c, 0, 67, 112
1, 481993, Control_c, 0, 64, 114
1, 482008, Note_off_c, 0, 77, 56
1, 482008, Control_c, 0, 64, 120
1, 482008, Control_c, 0, 67, 111
1, 482022, Note_off_c, 0, 65, 38
1, 482023, Control_c, 0, 64, 124
1, 482038, Control_c, 0, 64, 127
1, 482038, Control_c, 0, 67, 112
1, 482053, Control_c, 0, 67, 112
1, 482067, Control_c, 0, 67, 112
1, 482082, Control_c, 0, 67, 111
1, 482112, Control_c, 0, 67, 111
1, 482142, Control_c, 0, 67, 110
1, 482171, Control_c, 0, 67, 110
1, 482204, Note_on_c, 0, 77, 72
1, 482216, Control_c, 0, 64, 119
1, 482227, Note_on_c, 0, 65, 53
1, 482231, Control_c, 0, 64, 89
1, 482231, Control_c, 0, 67, 109
1, 482246, Control_c, 0, 64, 74
1, 482246, Control_c, 0, 67, 108
1, 482260, Control_c, 0, 64, 65
1, 482275, Control_c, 0, 64, 60
1, 482290, Control_c, 0, 67, 108
1, 482305, Control_c, 0, 64, 61
1, 482305, Control_c, 0, 67, 107
1, 482320, Control_c, 0, 64, 64
1, 482320, Control_c, 0, 67, 106
1, 482335, Control_c, 0, 64, 67
1, 482335, Control_c, 0, 67, 104
1, 482350, Control_c, 0, 64, 72
1, 482350, Control_c, 0, 67, 103
1, 482365, Control_c, 0, 64, 80
1, 482365, Control_c, 0, 67, 101
1, 482380, Control_c, 0, 64, 85
1, 482380, Control_c, 0, 67, 99
1, 482395, Control_c, 0, 64, 86
1, 482395, Control_c, 0, 67, 97
1, 482410, Control_c, 0, 64, 88
1, 482410, Control_c, 0, 67, 95
1, 482424, Control_c, 0, 64, 92
1, 482424, Control_c, 0, 67, 92
1, 482439, Control_c, 0, 64, 97
1, 482439, Control_c, 0, 67, 90
1, 482454, Control_c, 0, 64, 100
1, 482454, Control_c, 0, 67, 87
1, 482457, Note_off_c, 0, 65, 47
1, 482469, Control_c, 0, 64, 101
1, 482469, Control_c, 0, 67, 84
1, 482470, Note_off_c, 0, 77, 58
1, 482483, Control_c, 0, 67, 81
1, 482498, Control_c, 0, 67, 80
1, 482513, Control_c, 0, 67, 79
1, 482558, Control_c, 0, 64, 99
1, 482558, Control_c, 0, 67, 80
1, 482572, Control_c, 0, 64, 92
1, 482572, Control_c, 0, 67, 80
1, 482587, Control_c, 0, 64, 83
1, 482587, Control_c, 0, 67, 81
1, 482601, Note_on_c, 0, 77, 62
1, 482602, Control_c, 0, 64, 74
1, 482602, Control_c, 0, 67, 82
1, 482616, Control_c, 0, 64, 64
1, 482616, Control_c, 0, 67, 83
1, 482618, Note_on_c, 0, 65, 41
1, 482639, Control_c, 0, 64, 50
1, 482639, Control_c, 0, 67, 84
1, 482654, Control_c, 0, 64, 24
1, 482654, Control_c, 0, 67, 85
1, 482669, Control_c, 0, 64, 0
1, 482669, Control_c, 0, 67, 85
1, 482698, Control_c, 0, 64, 18
1, 482698, Control_c, 0, 67, 86
1, 482713, Control_c, 0, 64, 31
1, 482728, Control_c, 0, 64, 43
1, 482743, Control_c, 0, 64, 51
1, 482743, Control_c, 0, 67, 86
1, 482757, Control_c, 0, 64, 57
1, 482757, Control_c, 0, 67, 87
1, 482772, Control_c, 0, 64, 61
1, 482772, Control_c, 0, 67, 87
1, 482787, Control_c, 0, 64, 63
1, 482787, Control_c, 0, 67, 88
1, 482802, Control_c, 0, 64, 64
1, 482816, Control_c, 0, 64, 65
1, 482816, Control_c, 0, 67, 88
1, 482831, Control_c, 0, 64, 67
1, 482846, Control_c, 0, 64, 69
1, 482859, Note_off_c, 0, 65, 32
1, 482861, Control_c, 0, 64, 71
1, 482876, Control_c, 0, 64, 73
1, 482890, Control_c, 0, 64, 74
1, 482890, Control_c, 0, 67, 89
1, 482892, Note_off_c, 0, 77, 35
1, 482905, Control_c, 0, 64, 75
1, 482905, Control_c, 0, 67, 89
1, 482920, Control_c, 0, 64, 76
1, 482934, Control_c, 0, 64, 76
1, 482934, Control_c, 0, 67, 90
1, 482949, Control_c, 0, 64, 77
1, 482964, Control_c, 0, 67, 90
1, 482979, Control_c, 0, 67, 91
1, 482994, Control_c, 0, 67, 92
1, 483008, Control_c, 0, 64, 76
1, 483023, Control_c, 0, 64, 73
1, 483023, Control_c, 0, 67, 92
1, 483033, Note_on_c, 0, 77, 47
1, 483038, Control_c, 0, 64, 67
1, 483038, Control_c, 0, 67, 93
1, 483053, Control_c, 0, 64, 59
1, 483068, Control_c, 0, 64, 49
1, 483068, Control_c, 0, 67, 92
1, 483082, Control_c, 0, 64, 50
1, 483082, Control_c, 0, 67, 91
1, 483097, Control_c, 0, 64, 57
1, 483097, Control_c, 0, 67, 91
1, 483101, Poly_aftertouch_c, 0, 65, 127
1, 483113, Control_c, 0, 64, 63
1, 483113, Control_c, 0, 67, 90
1, 483128, Control_c, 0, 64, 70
1, 483128, Control_c, 0, 67, 89
1, 483143, Control_c, 0, 64, 80
1, 483143, Control_c, 0, 67, 87
1, 483157, Control_c, 0, 64, 94
1, 483157, Control_c, 0, 67, 85
1, 483172, Control_c, 0, 64, 120
1, 483172, Control_c, 0, 67, 84
1, 483187, Control_c, 0, 64, 127
1, 483187, Control_c, 0, 67, 83
1, 483202, Control_c, 0, 67, 82
1, 483217, Note_off_c, 0, 77, 63
1, 483217, Control_c, 0, 67, 80
1, 483218, Poly_aftertouch_c, 0, 65, 0
1, 483231, Control_c, 0, 67, 79
1, 483246, Control_c, 0, 67, 79
1, 483261, Control_c, 0, 67, 78
1, 483276, Control_c, 0, 67, 78
1, 483291, Control_c, 0, 67, 77
1, 483417, Control_c, 0, 67, 77
1, 483432, Control_c, 0, 64, 80
1, 483441, Note_on_c, 0, 77, 59
1, 483446, Control_c, 0, 64, 59
1, 483461, Control_c, 0, 64, 0
1, 483461, Control_c, 0, 67, 78
1, 483465, Note_on_c, 0, 65, 33
1, 483476, Control_c, 0, 67, 78
1, 483550, Control_c, 0, 67, 78
1, 483594, Control_c, 0, 67, 77
1, 483609, Control_c, 0, 67, 76
1, 483624, Control_c, 0, 67, 73
1, 483632, Note_on_c, 0, 55, 62
1, 483638, Control_c, 0, 64, 39
1, 483638, Control_c, 0, 67, 63
1, 483653, Control_c, 0, 64, 49
1, 483653, Control_c, 0, 67, 48
1, 483659, Note_off_c, 0, 65, 17
1, 483661, Note_off_c, 0, 77, 59
1, 483668, Control_c, 0, 64, 55
1, 483668, Control_c, 0, 67, 27
1, 483683, Control_c, 0, 64, 60
1, 483683, Control_c, 0, 67, 0
1, 483698, Control_c, 0, 64, 63
1, 483712, Control_c, 0, 64, 66
1, 483727, Control_c, 0, 64, 67
1, 483757, Control_c, 0, 64, 64
1, 483772, Control_c, 0, 64, 52
1, 483787, Control_c, 0, 64, 0
1, 483802, Control_c, 0, 67, 12
1, 483810, Note_on_c, 0, 77, 60
1, 483817, Control_c, 0, 67, 16
1, 483819, Note_off_c, 0, 55, 52
1, 483825, Note_on_c, 0, 57, 55
1, 483831, Control_c, 0, 67, 17
1, 483846, Control_c, 0, 67, 18
1, 483863, Note_off_c, 0, 57, 59
1, 483879, Poly_aftertouch_c, 0, 65, 127
1, 483951, Control_c, 0, 67, 17
1, 483994, Poly_aftertouch_c, 0, 65, 0
1, 483995, Control_c, 0, 67, 16
1, 483996, Note_on_c, 0, 55, 63
1, 484010, Control_c, 0, 67, 15
1, 484019, Note_off_c, 0, 77, 57
1, 484025, Control_c, 0, 67, 14
1, 484040, Control_c, 0, 67, 13
1, 484054, Control_c, 0, 64, 31
1, 484054, Control_c, 0, 67, 13
1, 484069, Control_c, 0, 64, 53
1, 484084, Control_c, 0, 64, 55
1, 484099, Control_c, 0, 64, 55
1, 484099, Control_c, 0, 67, 12
1, 484114, Control_c, 0, 64, 56
1, 484151, Control_c, 0, 64, 51
1, 484151, Control_c, 0, 67, 13
1, 484166, Control_c, 0, 64, 8
1, 484166, Control_c, 0, 67, 15
1, 484180, Control_c, 0, 64, 0
1, 484180, Control_c, 0, 67, 17
1, 484195, Control_c, 0, 67, 19
1, 484204, Note_on_c, 0, 77, 59
1, 484208, Note_on_c, 0, 57, 50
1, 484210, Control_c, 0, 67, 21
1, 484220, Note_off_c, 0, 55, 53
1, 484223, Note_on_c, 0, 65, 44
1, 484225, Control_c, 0, 67, 26
1, 484240, Control_c, 0, 67, 33
1, 484240, Note_off_c, 0, 57, 64
1, 484255, Control_c, 0, 67, 38
1, 484263, Note_off_c, 0, 65, 46
1, 484269, Control_c, 0, 67, 40
1, 484284, Control_c, 0, 67, 40
1, 484329, Control_c, 0, 67, 40
1, 484343, Control_c, 0, 67, 39
1, 484358, Control_c, 0, 67, 37
1, 484373, Control_c, 0, 67, 36
1, 484387, Control_c, 0, 67, 36
1, 484397, Note_on_c, 0, 55, 77
1, 484402, Control_c, 0, 67, 35
1, 484417, Control_c, 0, 67, 34
1, 484432, Control_c, 0, 64, 45
1, 484432, Control_c, 0, 67, 33
1, 484436, Note_off_c, 0, 77, 56
1, 484447, Control_c, 0, 64, 56
1, 484447, Control_c, 0, 67, 32
1, 484462, Control_c, 0, 64, 57
1, 484477, Control_c, 0, 64, 59
1, 484492, Control_c, 0, 64, 61
1, 484506, Control_c, 0, 67, 32
1, 484521, Control_c, 0, 64, 55
1, 484521, Control_c, 0, 67, 33
1, 484536, Control_c, 0, 64, 0
1, 484536, Control_c, 0, 67, 34
1, 484551, Control_c, 0, 67, 36
1, 484566, Control_c, 0, 67, 38
1, 484579, Note_on_c, 0, 77, 66
1, 484580, Control_c, 0, 67, 39
1, 484583, Note_on_c, 0, 57, 58
1, 484587, Note_off_c, 0, 55, 63
1, 484595, Control_c, 0, 67, 40
1, 484613, Note_off_c, 0, 57, 65
1, 484625, Control_c, 0, 67, 40
1, 484627, Note_on_c, 0, 65, 26
1, 484654, Control_c, 0, 67, 40
1, 484669, Control_c, 0, 67, 39
1, 484684, Control_c, 0, 67, 38
1, 484699, Control_c, 0, 67, 37
1, 484715, Control_c, 0, 67, 36
1, 484730, Control_c, 0, 67, 35
1, 484734, Note_off_c, 0, 77, 63
1, 484745, Control_c, 0, 67, 34
1, 484748, Note_off_c, 0, 65, 43
1, 484759, Control_c, 0, 64, 45
1, 484759, Control_c, 0, 67, 33
1, 484774, Control_c, 0, 64, 63
1, 484774, Control_c, 0, 67, 33
1, 484778, Note_on_c, 0, 55, 74
1, 484789, Control_c, 0, 64, 64
1, 484833, Control_c, 0, 67, 33
1, 484848, Control_c, 0, 67, 34
1, 484863, Control_c, 0, 67, 34
1, 484885, Control_c, 0, 64, 60
1, 484885, Control_c, 0, 67, 35
1, 484900, Control_c, 0, 64, 44
1, 484900, Control_c, 0, 67, 36
1, 484915, Control_c, 0, 64, 0
1, 484915, Control_c, 0, 67, 38
1, 484930, Control_c, 0, 67, 38
1, 484944, Control_c, 0, 67, 39
1, 484958, Note_off_c, 0, 55, 63
1, 484959, Note_on_c, 0, 78, 71
1, 484959, Control_c, 0, 67, 40
1, 484964, Note_on_c, 0, 57, 62
1, 484976, Note_on_c, 0, 77, 65
1, 484986, Note_off_c, 0, 57, 64
1, 484989, Control_c, 0, 67, 40
1, 484991, Note_on_c, 0, 65, 33
1, 485018, Control_c, 0, 67, 41
1, 485057, Note_off_c, 0, 65, 0
1, 485063, Control_c, 0, 67, 40
1, 485078, Control_c, 0, 67, 40
1, 485093, Control_c, 0, 67, 38
1, 485093, Poly_aftertouch_c, 0, 65, 127
1, 485108, Control_c, 0, 67, 37
1, 485122, Control_c, 0, 67, 35
1, 485137, Control_c, 0, 67, 33
1, 485146, Note_on_c, 0, 55, 80
1, 485152, Note_on_c, 0, 50, 75
1, 485152, Control_c, 0, 64, 55
1, 485152, Control_c, 0, 67, 30
1, 485164, Note_off_c, 0, 77, 35
1, 485167, Control_c, 0, 64, 64
1, 485167, Control_c, 0, 67, 26
1, 485178, Poly_aftertouch_c, 0, 65, 0
1, 485182, Control_c, 0, 64, 71
1, 485182, Control_c, 0, 67, 20
1, 485196, Note_off_c, 0, 78, 54
1, 485197, Control_c, 0, 64, 81
1, 485197, Control_c, 0, 67, 0
1, 485211, Control_c, 0, 64, 104
1, 485226, Control_c, 0, 64, 127
1, 485285, Control_c, 0, 64, 93
1, 485300, Control_c, 0, 64, 63
1, 485300, Control_c, 0, 67, 12
1, 485315, Control_c, 0, 64, 0
1, 485315, Control_c, 0, 67, 19
1, 485316, Note_off_c, 0, 50, 60
1, 485321, Note_off_c, 0, 55, 61
1, 485325, Note_on_c, 0, 78, 74
1, 485330, Control_c, 0, 67, 24
1, 485334, Note_on_c, 0, 76, 64
1, 485337, Note_on_c, 0, 57, 57
1, 485344, Control_c, 0, 67, 26
1, 485352, Note_on_c, 0, 65, 42
1, 485359, Control_c, 0, 67, 28
1, 485361, Note_off_c, 0, 57, 59
1, 485374, Control_c, 0, 67, 30
1, 485389, Control_c, 0, 67, 31
1, 485403, Control_c, 0, 67, 33
1, 485418, Control_c, 0, 67, 34
1, 485433, Control_c, 0, 67, 35
1, 485448, Control_c, 0, 67, 34
1, 485463, Control_c, 0, 67, 33
1, 485477, Control_c, 0, 67, 32
1, 485489, Note_off_c, 0, 65, 22
1, 485492, Control_c, 0, 67, 31
1, 485508, Control_c, 0, 64, 17
1, 485508, Control_c, 0, 67, 30
1, 485518, Note_on_c, 0, 55, 72
1, 485523, Control_c, 0, 64, 59
1, 485523, Control_c, 0, 67, 29
1, 485527, Note_on_c, 0, 50, 63
1, 485538, Control_c, 0, 64, 63
1, 485538, Control_c, 0, 67, 27
1, 485552, Note_off_c, 0, 76, 40
1, 485552, Control_c, 0, 64, 64
1, 485552, Control_c, 0, 67, 27
1, 485565, Note_off_c, 0, 78, 62
1, 485567, Control_c, 0, 64, 66
1, 485567, Control_c, 0, 67, 26
1, 485582, Control_c, 0, 64, 70
1, 485585, Note_off_c, 0, 55, 57
1, 485597, Control_c, 0, 64, 75
1, 485597, Control_c, 0, 67, 28
1, 485612, Control_c, 0, 67, 28
1, 485634, Control_c, 0, 64, 73
1, 485634, Control_c, 0, 67, 30
1, 485649, Control_c, 0, 64, 63
1, 485649, Control_c, 0, 67, 32
1, 485664, Control_c, 0, 64, 29
1, 485664, Control_c, 0, 67, 34
1, 485679, Control_c, 0, 64, 0
1, 485679, Control_c, 0, 67, 37
1, 485694, Control_c, 0, 67, 40
1, 485704, Note_off_c, 0, 50, 46
1, 485708, Control_c, 0, 67, 47
1, 485709, Note_on_c, 0, 79, 69
1, 485710, Note_on_c, 0, 57, 59
1, 485723, Control_c, 0, 67, 56
1, 485725, Note_on_c, 0, 74, 59
1, 485733, Note_off_c, 0, 57, 63
1, 485734, Note_on_c, 0, 65, 43
1, 485738, Control_c, 0, 67, 67
1, 485753, Control_c, 0, 67, 78
1, 485767, Control_c, 0, 67, 88
1, 485778, Note_off_c, 0, 74, 50
1, 485782, Control_c, 0, 67, 93
1, 485797, Control_c, 0, 67, 96
1, 485812, Control_c, 0, 67, 98
1, 485827, Control_c, 0, 67, 99
1, 485841, Control_c, 0, 67, 98
1, 485856, Control_c, 0, 67, 96
1, 485860, Note_off_c, 0, 65, 25
1, 485871, Control_c, 0, 67, 92
1, 485886, Control_c, 0, 64, 35
1, 485886, Control_c, 0, 67, 89
1, 485889, Note_off_c, 0, 79, 59
1, 485900, Note_on_c, 0, 55, 81
1, 485901, Control_c, 0, 64, 65
1, 485901, Control_c, 0, 67, 87
1, 485903, Note_on_c, 0, 50, 71
1, 485915, Control_c, 0, 64, 69
1, 485915, Control_c, 0, 67, 83
1, 485930, Control_c, 0, 67, 79
1, 485945, Control_c, 0, 67, 72
1, 485960, Control_c, 0, 64, 69
1, 485960, Control_c, 0, 67, 61
1, 485975, Control_c, 0, 64, 71
1, 485975, Control_c, 0, 67, 48
1, 485990, Control_c, 0, 64, 75
1, 485990, Control_c, 0, 67, 32
1, 486005, Control_c, 0, 64, 78
1, 486005, Control_c, 0, 67, 9
1, 486020, Control_c, 0, 64, 79
1, 486020, Control_c, 0, 67, 0
1, 486034, Control_c, 0, 64, 74
1, 486049, Control_c, 0, 64, 57
1, 486064, Control_c, 0, 64, 0
1, 486076, Note_on_c, 0, 79, 72
1, 486078, Note_on_c, 0, 57, 67
1, 486079, Note_on_c, 0, 65, 66
1, 486080, Note_on_c, 0, 72, 64
1, 486085, Note_off_c, 0, 50, 62
1, 486085, Note_off_c, 0, 55, 63
1, 486103, Note_off_c, 0, 57, 66
1, 486121, Note_off_c, 0, 65, 59
1, 486254, Note_on_c, 0, 67, 92
1, 486263, Note_on_c, 0, 55, 82
1, 486270, Note_on_c, 0, 50, 74
1, 486276, Note_off_c, 0, 79, 62
1, 486293, Note_off_c, 0, 67, 62
1, 486298, Note_off_c, 0, 72, 17
1, 486404, Note_off_c, 0, 50, 0
1, 486404, Note_on_c, 0, 50, 3
1, 486427, Note_off_c, 0, 50, 55
1, 486454, Note_off_c, 0, 55, 38
1, 486459, Note_on_c, 0, 79, 90
1, 486461, Note_on_c, 0, 74, 74
1, 486469, Note_on_c, 0, 65, 74
1, 486470, Note_on_c, 0, 67, 75
1, 486473, Note_on_c, 0, 57, 68
1, 486506, Note_off_c, 0, 57, 58
1, 486589, Note_off_c, 0, 67, 51
1, 486595, Note_off_c, 0, 65, 53
1, 486604, Note_off_c, 0, 74, 61
1, 486608, Note_off_c, 0, 79, 61
1, 486640, Note_on_c, 0, 72, 88
1, 486649, Note_on_c, 0, 50, 68
1, 486650, Control_c, 0, 67, 14
1, 486651, Note_on_c, 0, 55, 69
1, 486653, Note_on_c, 0, 43, 63
1, 486664, Note_off_c, 0, 72, 68
1, 486664, Control_c, 0, 67, 0
1, 486703, Note_off_c, 0, 55, 59
1, 486711, Note_off_c, 0, 50, 47
1, 486813, Note_on_c, 0, 78, 84
1, 486818, Note_on_c, 0, 72, 77
1, 486821, Note_on_c, 0, 57, 62
1, 486825, Note_on_c, 0, 66, 66
1, 486845, Note_off_c, 0, 66, 64
1, 486848, Note_off_c, 0, 72, 65
1, 486849, Poly_aftertouch_c, 0, 50, 0
1, 486851, Note_off_c, 0, 57, 65
1, 486860, Note_off_c, 0, 43, 28
1, 486864, Note_off_c, 0, 78, 61
1, 486986, Note_on_c, 0, 72, 98
1, 486990, Note_on_c, 0, 50, 57
1, 486993, Note_on_c, 0, 77, 87
1, 486999, Note_on_c, 0, 55, 61
1, 487002, Note_on_c, 0, 43, 54
1, 487005, Note_on_c, 0, 65, 65
1, 487019, Note_off_c, 0, 77, 63
1, 487025, Note_off_c, 0, 65, 63
1, 487028, Note_off_c, 0, 72, 66
1, 487038, Note_off_c, 0, 55, 57
1, 487054, Note_off_c, 0, 50, 51
1, 487099, Note_off_c, 0, 43, 54
1, 487163, Note_on_c, 0, 50, 49
1, 487167, Note_on_c, 0, 72, 87
1, 487173, Note_on_c, 0, 76, 78
1, 487176, Note_on_c, 0, 57, 66
1, 487183, Note_on_c, 0, 64, 63
1, 487198, Note_off_c, 0, 76, 68
1, 487203, Note_off_c, 0, 64, 65
1, 487204, Note_off_c, 0, 57, 63
1, 487205, Note_off_c, 0, 50, 60
1, 487212, Note_off_c, 0, 72, 65
1, 487350, Note_on_c, 0, 75, 88
1, 487351, Note_on_c, 0, 71, 88
1, 487355, Note_on_c, 0, 63, 82
1, 487358, Note_on_c, 0, 50, 55
1, 487364, Note_on_c, 0, 55, 66
1, 487364, Note_on_c, 0, 43, 53
1, 487368, Control_c, 0, 67, 8
1, 487382, Note_off_c, 0, 63, 69
1, 487383, Control_c, 0, 64, 35
1, 487389, Note_off_c, 0, 71, 61
1, 487398, Note_off_c, 0, 75, 64
1, 487398, Control_c, 0, 64, 0
1, 487398, Control_c, 0, 67, 0
1, 487415, Note_off_c, 0, 55, 58
1, 487525, Note_on_c, 0, 67, 89
1, 487535, Note_on_c, 0, 74, 72
1, 487537, Note_on_c, 0, 57, 59
1, 487546, Note_on_c, 0, 62, 55
1, 487552, Note_off_c, 0, 74, 69
1, 487561, Note_off_c, 0, 67, 61
1, 487564, Note_off_c, 0, 50, 59
1, 487564, Note_off_c, 0, 57, 57
1, 487573, Note_off_c, 0, 62, 36
1, 487575, Note_off_c, 0, 43, 40
1, 487702, Note_on_c, 0, 67, 83
1, 487704, Note_on_c, 0, 50, 52
1, 487705, Note_on_c, 0, 75, 83
1, 487706, Note_on_c, 0, 63, 78
1, 487708, Control_c, 0, 64, 17
1, 487715, Note_on_c, 0, 43, 47
1, 487718, Note_on_c, 0, 55, 64
1, 487723, Control_c, 0, 64, 37
1, 487732, Note_off_c, 0, 63, 68
1, 487737, Control_c, 0, 64, 0
1, 487738, Note_off_c, 0, 67, 63
1, 487757, Note_off_c, 0, 75, 62
1, 487758, Note_off_c, 0, 55, 61
1, 487821, Note_off_c, 0, 50, 0
1, 487859, Poly_aftertouch_c, 0, 50, 127
1, 487888, Note_on_c, 0, 67, 93
1, 487894, Note_on_c, 0, 76, 82
1, 487895, Note_on_c, 0, 57, 58
1, 487898, Note_on_c, 0, 64, 67
1, 487917, Note_off_c, 0, 67, 66
1, 487917, Note_off_c, 0, 76, 70
1, 487918, Note_off_c, 0, 64, 67
1, 487921, Note_off_c, 0, 57, 58
1, 487936, Poly_aftertouch_c, 0, 50, 0
1, 487938, Note_off_c, 0, 43, 29
1, 488065, Note_on_c, 0, 72, 96
1, 488082, Note_on_c, 0, 50, 62
1, 488083, Note_on_c, 0, 65, 64
1, 488084, Note_on_c, 0, 55, 67
1, 488085, Note_on_c, 0, 77, 66
1, 488086, Note_on_c, 0, 43, 60
1, 488087, Control_c, 0, 64, 25
1, 488101, Note_off_c, 0, 72, 63
1, 488101, Control_c, 0, 64, 19
1, 488103, Note_off_c, 0, 65, 63
1, 488103, Note_off_c, 0, 77, 41
1, 488116, Control_c, 0, 64, 0
1, 488130, Note_off_c, 0, 55, 61
1, 488237, Note_on_c, 0, 72, 87
1, 488249, Note_on_c, 0, 66, 69
1, 488250, Note_on_c, 0, 78, 71
1, 488251, Note_on_c, 0, 57, 61
1, 488267, Note_off_c, 0, 66, 67
1, 488276, Note_off_c, 0, 72, 62
1, 488276, Note_off_c, 0, 57, 59
1, 488288, Note_off_c, 0, 78, 61
1, 488294, Note_off_c, 0, 50, 60
1, 488297, Note_off_c, 0, 43, 44
1, 488413, Note_on_c, 0, 72, 96
1, 488416, Note_on_c, 0, 50, 63
1, 488424, Note_on_c, 0, 43, 54
1, 488428, Note_on_c, 0, 79, 72
1, 488428, Note_on_c, 0, 55, 56
1, 488433, Note_on_c, 0, 67, 58
1, 488444, Note_off_c, 0, 79, 67
1, 488453, Note_off_c, 0, 72, 62
1, 488455, Note_off_c, 0, 67, 61
1, 488469, Note_off_c, 0, 55, 61
1, 488521, Note_off_c, 0, 43, 53
1, 488558, Note_off_c, 0, 50, 0
1, 488576, Note_on_c, 0, 50, 34
1, 488582, Note_on_c, 0, 72, 98
1, 488589, Note_on_c, 0, 78, 85
1, 488589, Note_on_c, 0, 57, 58
1, 488593, Note_on_c, 0, 66, 77
1, 488610, Note_off_c, 0, 66, 68
1, 488612, Note_off_c, 0, 78, 65
1, 488613, Note_off_c, 0, 57, 61
1, 488619, Note_off_c, 0, 72, 60
1, 488628, Note_off_c, 0, 50, 62
1, 488762, Control_c, 0, 64, 45
1, 488773, Note_on_c, 0, 71, 102
1, 488777, Control_c, 0, 64, 67
1, 488786, Note_on_c, 0, 50, 65
1, 488786, Note_on_c, 0, 55, 69
1, 488787, Note_on_c, 0, 77, 77
1, 488792, Control_c, 0, 64, 70
1, 488795, Note_on_c, 0, 43, 57
1, 488801, Note_on_c, 0, 65, 48
1, 488802, Note_off_c, 0, 77, 71
1, 488807, Control_c, 0, 64, 76
1, 488816, Note_off_c, 0, 71, 65
1, 488822, Control_c, 0, 64, 94
1, 488823, Note_off_c, 0, 50, 63
1, 488823, Note_off_c, 0, 55, 60
1, 488825, Note_off_c, 0, 65, 60
1, 488836, Note_off_c, 0, 43, 60
1, 488837, Control_c, 0, 64, 127
1, 488949, Note_on_c, 0, 76, 61
1, 488960, Note_on_c, 0, 64, 42
1, 488963, Note_on_c, 0, 57, 53
1, 488968, Note_off_c, 0, 76, 64
1, 488969, Control_c, 0, 64, 93
1, 488983, Control_c, 0, 64, 70
1, 488987, Note_off_c, 0, 64, 57
1, 488988, Note_off_c, 0, 57, 58
1, 488998, Control_c, 0, 64, 43
1, 489013, Control_c, 0, 64, 0
1, 489129, Note_on_c, 0, 75, 75
1, 489129, Note_on_c, 0, 74, 77
1, 489131, Note_on_c, 0, 63, 78
1, 489132, Control_c, 0, 64, 20
1, 489134, Note_on_c, 0, 50, 52
1, 489136, Note_on_c, 0, 43, 50
1, 489137, Note_on_c, 0, 55, 54
1, 489147, Control_c, 0, 64, 0
1, 489153, Note_on_c, 0, 73, 40
1, 489159, Note_off_c, 0, 63, 67
1, 489161, Note_off_c, 0, 75, 61
1, 489167, Note_off_c, 0, 74, 60
1, 489176, Note_off_c, 0, 55, 63
1, 489179, Note_off_c, 0, 73, 50
1, 489189, Note_off_c, 0, 50, 56
1, 489296, Note_on_c, 0, 71, 90
1, 489297, Note_on_c, 0, 50, 42
1, 489308, Note_on_c, 0, 62, 77
1, 489311, Note_on_c, 0, 57, 58
1, 489332, Note_on_c, 0, 74, 42
1, 489336, Note_off_c, 0, 62, 67
1, 489337, Note_off_c, 0, 50, 62
1, 489337, Note_off_c, 0, 57, 64
1, 489354, Note_off_c, 0, 71, 64
1, 489361, Note_off_c, 0, 74, 35
1, 489362, Note_off_c, 0, 43, 42
1, 489480, Control_c, 0, 64, 34
1, 489481, Note_on_c, 0, 69, 84
1, 489484, Note_on_c, 0, 75, 84
1, 489489, Note_on_c, 0, 63, 76
1, 489494, Note_on_c, 0, 55, 61
1, 489495, Control_c, 0, 64, 44
1, 489496, Note_on_c, 0, 43, 55
1, 489496, Note_on_c, 0, 50, 55
1, 489510, Control_c, 0, 64, 33
1, 489519, Note_off_c, 0, 69, 66
1, 489519, Note_off_c, 0, 75, 59
1, 489520, Note_off_c, 0, 63, 67
1, 489525, Control_c, 0, 64, 0
1, 489539, Note_off_c, 0, 55, 62
1, 489558, Note_off_c, 0, 50, 51
1, 489641, Note_on_c, 0, 50, 41
1, 489656, Note_on_c, 0, 69, 94
1, 489661, Note_on_c, 0, 76, 87
1, 489665, Note_on_c, 0, 64, 77
1, 489668, Note_on_c, 0, 57, 58
1, 489683, Note_off_c, 0, 64, 68
1, 489687, Note_off_c, 0, 76, 61
1, 489690, Note_off_c, 0, 57, 62
1, 489693, Note_off_c, 0, 50, 61
1, 489700, Note_off_c, 0, 69, 65
1, 489711, Note_off_c, 0, 43, 43
1, 489821, Control_c, 0, 64, 43
1, 489824, Note_on_c, 0, 69, 102
1, 489835, Note_on_c, 0, 43, 58
1, 489835, Note_on_c, 0, 65, 82
1, 489836, Control_c, 0, 64, 48
1, 489837, Note_on_c, 0, 77, 78
1, 489838, Note_on_c, 0, 50, 62
1, 489838, Note_on_c, 0, 55, 67
1, 489851, Control_c, 0, 64, 38
1, 489861, Note_off_c, 0, 65, 66
1, 489863, Note_off_c, 0, 77, 69
1, 489866, Control_c, 0, 64, 0
1, 489874, Note_off_c, 0, 69, 66
1, 489881, Note_off_c, 0, 55, 63
1, 489896, Note_off_c, 0, 50, 55
1, 489986, Note_on_c, 0, 50, 51
1, 489998, Note_on_c, 0, 69, 87
1, 490002, Note_on_c, 0, 78, 83
1, 490005, Note_on_c, 0, 57, 63
1, 490006, Note_on_c, 0, 66, 77
1, 490026, Note_on_c, 0, 70, 45
1, 490034, Note_off_c, 0, 66, 67
1, 490035, Note_off_c, 0, 57, 65
1, 490037, Note_off_c, 0, 50, 63
1, 490039, Note_off_c, 0, 69, 65
1, 490042, Note_off_c, 0, 78, 59
1, 490048, Note_off_c, 0, 43, 19
1, 490053, Note_off_c, 0, 70, 37
1, 490184, Control_c, 0, 64, 28
1, 490186, Note_on_c, 0, 71, 95
1, 490191, Note_on_c, 0, 55, 61
1, 490193, Note_on_c, 0, 50, 57
1, 490194, Note_on_c, 0, 43, 55
1, 490196, Note_on_c, 0, 79, 80
1, 490199, Control_c, 0, 64, 43
1, 490208, Note_on_c, 0, 67, 56
1, 490209, Note_off_c, 0, 79, 71
1, 490210, Note_off_c, 0, 71, 66
1, 490214, Control_c, 0, 64, 36
1, 490229, Control_c, 0, 64, 0
1, 490232, Note_off_c, 0, 67, 37
1, 490234, Note_off_c, 0, 55, 60
1, 490237, Note_off_c, 0, 50, 56
1, 490330, Note_off_c, 0, 43, 0
1, 490345, Note_on_c, 0, 50, 46
1, 490356, Note_on_c, 0, 71, 84
1, 490357, Note_on_c, 0, 57, 60
1, 490358, Note_on_c, 0, 78, 85
1, 490364, Note_on_c, 0, 66, 70
1, 490367, Poly_aftertouch_c, 0, 43, 127
1, 490387, Note_off_c, 0, 66, 63
1, 490389, Note_off_c, 0, 57, 63
1, 490390, Note_off_c, 0, 50, 61
1, 490392, Note_off_c, 0, 71, 66
1, 490404, Note_off_c, 0, 78, 61
1, 490422, Poly_aftertouch_c, 0, 43, 0
1, 490530, Note_on_c, 0, 74, 94
1, 490537, Note_on_c, 0, 65, 91
1, 490539, Note_on_c, 0, 43, 63
1, 490540, Note_on_c, 0, 55, 69
1, 490541, Note_on_c, 0, 77, 80
1, 490541, Control_c, 0, 64, 52
1, 490545, Note_on_c, 0, 50, 68
1, 490555, Control_c, 0, 64, 61
1, 490559, Note_off_c, 0, 65, 70
1, 490563, Note_off_c, 0, 77, 72
1, 490570, Control_c, 0, 64, 60
1, 490576, Note_off_c, 0, 74, 65
1, 490585, Control_c, 0, 64, 56
1, 490587, Note_off_c, 0, 55, 58
1, 490600, Control_c, 0, 64, 42
1, 490615, Control_c, 0, 64, 0
1, 490673, Note_off_c, 0, 50, 0
1, 490681, Note_off_c, 0, 43, 0
1, 490695, Note_on_c, 0, 50, 19
1, 490697, Note_on_c, 0, 71, 83
1, 490701, Note_on_c, 0, 76, 78
1, 490706, Note_on_c, 0, 57, 62
1, 490718, Poly_aftertouch_c, 0, 43, 127
1, 490722, Note_off_c, 0, 76, 61
1, 490731, Note_off_c, 0, 50, 56
1, 490734, Note_off_c, 0, 57, 66
1, 490735, Note_off_c, 0, 71, 65
1, 490738, Note_on_c, 0, 64, 17
1, 490759, Poly_aftertouch_c, 0, 43, 0
1, 490782, Note_off_c, 0, 64, 33
1, 490852, Control_c, 0, 64, 70
1, 490864, Note_on_c, 0, 75, 91
1, 490866, Note_on_c, 0, 69, 82
1, 490867, Control_c, 0, 64, 76
1, 490868, Note_on_c, 0, 63, 82
1, 490883, Note_on_c, 0, 55, 83
1, 490884, Note_on_c, 0, 43, 71
1, 490888, Note_on_c, 0, 50, 65
1, 490889, Control_c, 0, 64, 74
1, 490902, Note_off_c, 0, 63, 67
1, 490903, Control_c, 0, 64, 62
1, 490913, Note_off_c, 0, 69, 67
1, 490914, Note_off_c, 0, 75, 61
1, 490918, Control_c, 0, 64, 0
1, 490947, Note_off_c, 0, 55, 59
1, 490982, Note_off_c, 0, 50, 0
1, 491019, Note_on_c, 0, 50, 16
1, 491048, Note_on_c, 0, 69, 84
1, 491049, Note_on_c, 0, 57, 70
1, 491051, Note_on_c, 0, 74, 84
1, 491057, Note_on_c, 0, 62, 71
1, 491077, Note_off_c, 0, 74, 68
1, 491078, Note_off_c, 0, 62, 67
1, 491081, Note_off_c, 0, 50, 63
1, 491086, Note_off_c, 0, 57, 66
1, 491090, Note_off_c, 0, 43, 46
1, 491091, Note_off_c, 0, 69, 66
1, 491186, Control_c, 0, 64, 43
1, 491200, Control_c, 0, 64, 39
1, 491215, Note_on_c, 0, 75, 90
1, 491215, Control_c, 0, 64, 0
1, 491218, Note_on_c, 0, 69, 85
1, 491220, Note_on_c, 0, 63, 84
1, 491224, Note_on_c, 0, 55, 85
1, 491228, Note_on_c, 0, 50, 66
1, 491230, Note_on_c, 0, 43, 62
1, 491245, Note_off_c, 0, 63, 69
1, 491262, Note_off_c, 0, 69, 64
1, 491265, Note_off_c, 0, 75, 65
1, 491271, Note_off_c, 0, 50, 60
1, 491280, Note_off_c, 0, 55, 62
1, 491293, Note_off_c, 0, 43, 56
1, 491393, Note_on_c, 0, 57, 75
1, 491395, Note_on_c, 0, 76, 89
1, 491397, Note_on_c, 0, 69, 86
1, 491400, Note_on_c, 0, 64, 78
1, 491423, Note_off_c, 0, 76, 63
1, 491426, Note_off_c, 0, 57, 65
1, 491426, Note_off_c, 0, 64, 68
1, 491430, Note_off_c, 0, 69, 67
1, 491556, Control_c, 0, 64, 105
1, 491570, Control_c, 0, 64, 127
1, 491571, Note_on_c, 0, 71, 106
1, 491573, Note_on_c, 0, 55, 89
1, 491574, Note_on_c, 0, 65, 90
1, 491574, Note_on_c, 0, 77, 91
1, 491575, Note_on_c, 0, 43, 82
1, 491579, Note_on_c, 0, 50, 72
1, 491624, Note_off_c, 0, 50, 61
1, 491629, Note_off_c, 0, 77, 58
1, 491636, Note_off_c, 0, 65, 50
1, 491643, Note_off_c, 0, 55, 61
1, 491701, Note_off_c, 0, 43, 33
1, 491702, Note_off_c, 0, 71, 57
1, 491734, Note_on_c, 0, 57, 75
1, 491743, Note_on_c, 0, 76, 93
1, 491749, Note_on_c, 0, 64, 88
1, 491758, Note_off_c, 0, 57, 67
1, 491798, Note_off_c, 0, 64, 65
1, 491817, Note_off_c, 0, 76, 61
1, 491916, Note_on_c, 0, 31, 91
1, 491916, Note_on_c, 0, 38, 90
1, 491932, Note_on_c, 0, 65, 106
1, 491932, Note_on_c, 0, 79, 96
1, 491937, Note_on_c, 0, 77, 86
1, 491961, Note_off_c, 0, 77, 66
1, 491970, Note_off_c, 0, 31, 65
1, 491970, Note_off_c, 0, 79, 66
1, 491976, Note_off_c, 0, 65, 64
1, 491983, Note_on_c, 0, 43, 91
1, 491990, Note_off_c, 0, 38, 63
1, 492012, Note_off_c, 0, 43, 67
1, 492081, Note_on_c, 0, 57, 104
1, 492091, Note_on_c, 0, 43, 84
1, 492091, Note_on_c, 0, 66, 87
1, 492095, Note_on_c, 0, 78, 85
1, 492101, Note_on_c, 0, 45, 76
1, 492107, Note_on_c, 0, 80, 62
1, 492113, Note_off_c, 0, 66, 69
1, 492116, Note_off_c, 0, 57, 67
1, 492119, Note_off_c, 0, 78, 65
1, 492119, Note_off_c, 0, 43, 66
1, 492122, Note_off_c, 0, 45, 63
1, 492125, Note_off_c, 0, 80, 65
1, 492163, Poly_aftertouch_c, 0, 55, 0
1, 492311, Note_on_c, 0, 38, 96
1, 492314, Note_on_c, 0, 31, 91
1, 492314, Note_on_c, 0, 79, 75
1, 492318, Note_on_c, 0, 75, 93
1, 492321, Note_on_c, 0, 72, 104
1, 492322, Note_on_c, 0, 84, 101
1, 492363, Note_off_c, 0, 31, 64
1, 492365, Note_on_c, 0, 82, 27
1, 492366, Note_off_c, 0, 82, 127
1, 492377, Note_on_c, 0, 43, 89
1, 492383, Note_off_c, 0, 38, 63
1, 492408, Note_off_c, 0, 79, 65
1, 492409, Note_off_c, 0, 84, 65
1, 492411, Note_off_c, 0, 43, 66
1, 492413, Note_off_c, 0, 72, 62
1, 492421, Note_off_c, 0, 75, 65
1, 492481, Note_on_c, 0, 72, 107
1, 492484, Note_on_c, 0, 78, 94
1, 492487, Note_on_c, 0, 57, 106
1, 492487, Note_on_c, 0, 84, 93
1, 492488, Note_on_c, 0, 74, 91
1, 492494, Note_on_c, 0, 45, 82
1, 492503, Note_on_c, 0, 43, 84
1, 492508, Note_on_c, 0, 83, 65
1, 492517, Note_off_c, 0, 43, 70
1, 492518, Note_off_c, 0, 57, 69
1, 492521, Note_off_c, 0, 45, 69
1, 492527, Note_off_c, 0, 83, 61
1, 492531, Note_on_c, 0, 46, 38
1, 492548, Note_off_c, 0, 74, 63
1, 492548, Note_off_c, 0, 84, 64
1, 492557, Note_off_c, 0, 72, 63
1, 492561, Note_off_c, 0, 46, 55
1, 492563, Note_off_c, 0, 78, 63
1, 492593, Note_on_c, 0, 43, 28
1, 492609, Control_c, 0, 64, 77
1, 492624, Control_c, 0, 64, 22
1, 492625, Note_off_c, 0, 43, 49
1, 492639, Control_c, 0, 64, 0
1, 492683, Control_c, 0, 64, 48
1, 492691, Note_on_c, 0, 40, 85
1, 492692, Note_on_c, 0, 72, 97
1, 492692, Note_on_c, 0, 77, 85
1, 492697, Note_on_c, 0, 31, 78
1, 492697, Note_on_c, 0, 38, 80
1, 492697, Note_on_c, 0, 33, 76
1, 492699, Control_c, 0, 64, 127
1, 492700, Note_on_c, 0, 73, 84
1, 492703, Note_on_c, 0, 78, 69
1, 492709, Note_on_c, 0, 84, 77
1, 492716, Note_on_c, 0, 83, 84
1, 492726, Note_off_c, 0, 31, 63
1, 492732, Note_off_c, 0, 33, 64
1, 492733, Note_off_c, 0, 38, 55
1, 492734, Note_on_c, 0, 80, 45
1, 492738, Note_on_c, 0, 39, 21
1, 492739, Note_on_c, 0, 43, 88
1, 492750, Note_off_c, 0, 40, 63
1, 492754, Note_off_c, 0, 83, 51
1, 492760, Note_off_c, 0, 80, 55
1, 492761, Note_off_c, 0, 84, 64
1, 492763, Note_off_c, 0, 73, 64
1, 492771, Note_off_c, 0, 39, 59
1, 492771, Note_off_c, 0, 43, 66
1, 492772, Note_off_c, 0, 72, 63
1, 492772, Note_off_c, 0, 77, 65
1, 492786, Note_off_c, 0, 78, 30
1, 492839, Note_on_c, 0, 76, 102
1, 492844, Note_on_c, 0, 84, 104
1, 492846, Note_on_c, 0, 57, 125
1, 492846, Note_on_c, 0, 72, 90
1, 492849, Note_on_c, 0, 43, 93
1, 492853, Note_on_c, 0, 74, 92
1, 492877, Note_off_c, 0, 43, 69
1, 492877, Note_off_c, 0, 57, 69
1, 492880, Note_on_c, 0, 45, 46
1, 492906, Note_off_c, 0, 74, 58
1, 492909, Note_off_c, 0, 45, 55
1, 492920, Note_off_c, 0, 84, 64
1, 492923, Note_off_c, 0, 72, 62
1, 492927, Note_off_c, 0, 76, 61
1, 492964, Poly_aftertouch_c, 0, 46, 0
1, 492980, Control_c, 0, 64, 87
1, 492995, Control_c, 0, 64, 45
1, 493010, Control_c, 0, 64, 0
1, 493029, Note_on_c, 0, 75, 105
1, 493030, Note_on_c, 0, 83, 95
1, 493031, Note_on_c, 0, 38, 99
1, 493032, Note_on_c, 0, 71, 102
1, 493033, Note_on_c, 0, 31, 94
1, 493040, Control_c, 0, 64, 50
1, 493055, Control_c, 0, 64, 127
1, 493068, Note_off_c, 0, 31, 67
1, 493079, Note_off_c, 0, 38, 62
1, 493084, Note_off_c, 0, 83, 61
1, 493101, Note_off_c, 0, 71, 61
1, 493106, Note_on_c, 0, 45, 59
1, 493111, Note_on_c, 0, 43, 58
1, 493111, Note_off_c, 0, 75, 62
1, 493137, Note_off_c, 0, 45, 60
1, 493138, Note_off_c, 0, 43, 64
1, 493199, Note_on_c, 0, 79, 97
1, 493201, Note_on_c, 0, 67, 106
1, 493201, Note_on_c, 0, 76, 90
1, 493207, Note_on_c, 0, 57, 102
1, 493210, Note_on_c, 0, 43, 86
1, 493230, Note_on_c, 0, 45, 40
1, 493236, Note_off_c, 0, 57, 65
1, 493239, Note_off_c, 0, 43, 68
1, 493239, Note_off_c, 0, 79, 63
1, 493252, Note_off_c, 0, 67, 60
1, 493254, Note_off_c, 0, 45, 63
1, 493257, Note_off_c, 0, 76, 61
1, 493314, Control_c, 0, 64, 81
1, 493329, Control_c, 0, 64, 26
1, 493343, Control_c, 0, 64, 0
1, 493385, Note_on_c, 0, 67, 107
1, 493385, Note_on_c, 0, 79, 107
1, 493387, Note_on_c, 0, 31, 92
1, 493388, Note_on_c, 0, 38, 90
1, 493388, Note_on_c, 0, 75, 98
1, 493403, Control_c, 0, 64, 60
1, 493409, Note_on_c, 0, 40, 55
1, 493410, Note_off_c, 0, 40, 127
1, 493418, Control_c, 0, 64, 127
1, 493428, Note_off_c, 0, 31, 64
1, 493445, Note_off_c, 0, 38, 46
1, 493453, Note_on_c, 0, 43, 91
1, 493456, Note_off_c, 0, 79, 58
1, 493457, Note_off_c, 0, 67, 61
1, 493480, Note_off_c, 0, 43, 67
1, 493488, Note_off_c, 0, 75, 64
1, 493549, Note_on_c, 0, 67, 102
1, 493551, Note_on_c, 0, 76, 89
1, 493552, Note_on_c, 0, 79, 88
1, 493553, Note_on_c, 0, 43, 78
1, 493558, Note_on_c, 0, 57, 100
1, 493560, Note_on_c, 0, 55, 96
1, 493564, Note_on_c, 0, 78, 77
1, 493566, Note_on_c, 0, 74, 71
1, 493583, Note_off_c, 0, 74, 65
1, 493585, Note_off_c, 0, 57, 67
1, 493586, Note_off_c, 0, 55, 69
1, 493591, Note_off_c, 0, 67, 64
1, 493595, Note_off_c, 0, 43, 64
1, 493596, Note_off_c, 0, 79, 65
1, 493609, Note_off_c, 0, 78, 54
1, 493620, Note_off_c, 0, 76, 62
1, 493669, Control_c, 0, 64, 83
1, 493684, Control_c, 0, 64, 44
1, 493699, Control_c, 0, 64, 0
1, 493728, Note_on_c, 0, 72, 99
1, 493728, Control_c, 0, 64, 11
1, 493729, Note_on_c, 0, 73, 88
1, 493730, Note_on_c, 0, 77, 87
1, 493735, Note_on_c, 0, 38, 107
1, 493737, Note_on_c, 0, 31, 93
1, 493743, Control_c, 0, 64, 81
1, 493746, Note_on_c, 0, 83, 70
1, 493747, Note_on_c, 0, 78, 72
1, 493749, Note_on_c, 0, 84, 85
1, 493758, Control_c, 0, 64, 127
1, 493764, Note_on_c, 0, 80, 43
1, 493766, Note_off_c, 0, 78, 40
1, 493767, Note_off_c, 0, 31, 68
1, 493790, Note_off_c, 0, 80, 57
1, 493794, Note_off_c, 0, 84, 63
1, 493799, Note_off_c, 0, 83, 66
1, 493800, Note_off_c, 0, 77, 65
1, 493800, Note_on_c, 0, 43, 81
1, 493802, Note_off_c, 0, 72, 64
1, 493806, Note_off_c, 0, 38, 60
1, 493809, Note_off_c, 0, 73, 63
1, 493830, Note_off_c, 0, 43, 66
1, 493910, Note_on_c, 0, 72, 103
1, 493910, Note_on_c, 0, 43, 86
1, 493910, Note_on_c, 0, 57, 103
1, 493910, Note_on_c, 0, 74, 88
1, 493914, Note_on_c, 0, 84, 91
1, 493917, Note_on_c, 0, 78, 84
1, 493932, Note_on_c, 0, 82, 61
1, 493941, Note_off_c, 0, 57, 69
1, 493949, Note_off_c, 0, 43, 65
1, 493954, Note_off_c, 0, 82, 59
1, 493958, Note_on_c, 0, 75, 33
1, 493973, Note_off_c, 0, 74, 66
1, 493988, Note_off_c, 0, 84, 64
1, 493991, Note_off_c, 0, 75, 59
1, 493994, Note_off_c, 0, 72, 61
1, 493996, Note_off_c, 0, 78, 63
1, 494017, Control_c, 0, 64, 113
1, 494026, Poly_aftertouch_c, 0, 46, 0
1, 494032, Control_c, 0, 64, 61
1, 494047, Control_c, 0, 64, 0
1, 494091, Note_on_c, 0, 79, 82
1, 494092, Note_on_c, 0, 75, 94
1, 494094, Note_on_c, 0, 72, 105
1, 494096, Note_on_c, 0, 38, 97
1, 494097, Note_on_c, 0, 84, 90
1, 494098, Note_on_c, 0, 29, 95
1, 494106, Control_c, 0, 64, 69
1, 494114, Note_on_c, 0, 34, 61
1, 494121, Control_c, 0, 64, 127
1, 494122, Note_off_c, 0, 29, 65
1, 494137, Note_on_c, 0, 36, 19
1, 494140, Note_off_c, 0, 34, 60
1, 494149, Note_on_c, 0, 80, 15
1, 494154, Note_off_c, 0, 38, 54
1, 494156, Note_on_c, 0, 31, 27
1, 494166, Note_on_c, 0, 43, 78
1, 494172, Note_on_c, 0, 41, 70
1, 494176, Note_off_c, 0, 79, 65
1, 494179, Note_off_c, 0, 72, 63
1, 494181, Note_off_c, 0, 84, 66
1, 494182, Note_off_c, 0, 75, 65
1, 494184, Note_off_c, 0, 36, 47
1, 494191, Note_off_c, 0, 43, 67
1, 494194, Note_off_c, 0, 31, 42
1, 494199, Note_off_c, 0, 41, 61
1, 494200, Note_off_c, 0, 80, 36
1, 494254, Note_on_c, 0, 72, 111
1, 494257, Note_on_c, 0, 84, 105
1, 494259, Note_on_c, 0, 77, 96
1, 494259, Note_on_c, 0, 43, 82
1, 494259, Note_on_c, 0, 57, 102
1, 494260, Note_on_c, 0, 76, 92
1, 494293, Note_off_c, 0, 57, 68
1, 494296, Note_off_c, 0, 43, 64
1, 494332, Note_off_c, 0, 76, 56
1, 494339, Note_off_c, 0, 84, 62
1, 494342, Note_off_c, 0, 72, 57
1, 494342, Note_off_c, 0, 77, 63
1, 494389, Control_c, 0, 64, 78
1, 494403, Control_c, 0, 64, 39
1, 494418, Control_c, 0, 64, 0
1, 494438, Note_on_c, 0, 83, 100
1, 494439, Note_on_c, 0, 71, 103
1, 494440, Note_on_c, 0, 31, 87
1, 494440, Note_on_c, 0, 38, 102
1, 494444, Note_on_c, 0, 77, 87
1, 494446, Note_on_c, 0, 76, 90
1, 494448, Control_c, 0, 64, 38
1, 494450, Note_on_c, 0, 78, 84
1, 494463, Control_c, 0, 64, 88
1, 494466, Note_on_c, 0, 80, 61
1, 494477, Control_c, 0, 64, 127
1, 494483, Note_off_c, 0, 31, 65
1, 494496, Note_off_c, 0, 80, 49
1, 494501, Note_on_c, 0, 43, 85
1, 494505, Note_off_c, 0, 38, 62
1, 494520, Note_off_c, 0, 77, 60
1, 494520, Note_off_c, 0, 71, 63
1, 494520, Note_off_c, 0, 76, 61
1, 494535, Note_off_c, 0, 43, 65
1, 494535, Note_off_c, 0, 83, 61
1, 494555, Note_off_c, 0, 78, 60
1, 494605, Note_on_c, 0, 57, 110
1, 494607, Note_on_c, 0, 79, 87
1, 494608, Note_on_c, 0, 43, 89
1, 494613, Note_on_c, 0, 75, 91
1, 494636, Note_on_c, 0, 80, 65
1, 494643, Note_off_c, 0, 57, 68
1, 494644, Note_off_c, 0, 43, 68
1, 494648, Note_on_c, 0, 82, 47
1, 494656, Note_off_c, 0, 80, 40
1, 494664, Note_off_c, 0, 75, 65
1, 494670, Note_off_c, 0, 82, 59
1, 494673, Note_off_c, 0, 79, 67
1, 494720, Poly_aftertouch_c, 0, 84, 0
1, 494721, Control_c, 0, 64, 84
1, 494736, Control_c, 0, 64, 41
1, 494751, Control_c, 0, 64, 0
1, 494795, Note_on_c, 0, 74, 105
1, 494795, Control_c, 0, 64, 21
1, 494798, Note_on_c, 0, 86, 98
1, 494798, Note_on_c, 0, 38, 104
1, 494799, Note_on_c, 0, 76, 97
1, 494810, Note_on_c, 0, 31, 82
1, 494810, Control_c, 0, 64, 90
1, 494818, Note_on_c, 0, 29, 68
1, 494820, Note_on_c, 0, 84, 67
1, 494825, Control_c, 0, 64, 127
1, 494830, Note_on_c, 0, 80, 20
1, 494831, Note_off_c, 0, 80, 127
1, 494843, Note_off_c, 0, 31, 64
1, 494846, Note_off_c, 0, 84, 40
1, 494854, Note_off_c, 0, 29, 48
1, 494856, Note_off_c, 0, 86, 65
1, 494856, Note_off_c, 0, 38, 61
1, 494864, Note_on_c, 0, 43, 81
1, 494864, Note_off_c, 0, 76, 63
1, 494867, Note_off_c, 0, 74, 69
1, 494890, Note_off_c, 0, 43, 66
1, 494961, Note_on_c, 0, 83, 100
1, 494962, Note_on_c, 0, 71, 101
1, 494968, Note_on_c, 0, 75, 84
1, 494971, Note_on_c, 0, 57, 102
1, 494971, Note_on_c, 0, 76, 81
1, 494975, Note_on_c, 0, 43, 74
1, 494977, Note_on_c, 0, 74, 69
1, 494987, Note_on_c, 0, 45, 61
1, 495004, Note_off_c, 0, 57, 65
1, 495008, Note_off_c, 0, 43, 66
1, 495011, Note_off_c, 0, 45, 55
1, 495011, Note_off_c, 0, 74, 51
1, 495019, Note_off_c, 0, 76, 55
1, 495026, Note_off_c, 0, 71, 63
1, 495034, Note_off_c, 0, 83, 65
1, 495041, Note_off_c, 0, 75, 61
1, 495055, Note_on_c, 0, 46, 2
1, 495077, Control_c, 0, 64, 74
1, 495092, Note_off_c, 0, 46, 32
1, 495093, Control_c, 0, 64, 29
1, 495108, Control_c, 0, 64, 0
1, 495146, Note_on_c, 0, 75, 101
1, 495148, Note_on_c, 0, 69, 107
1, 495148, Note_on_c, 0, 81, 97
1, 495149, Note_on_c, 0, 38, 94
1, 495150, Note_on_c, 0, 31, 91
1, 495156, Note_on_c, 0, 79, 82
1, 495160, Note_on_c, 0, 78, 86
1, 495167, Control_c, 0, 64, 71
1, 495182, Control_c, 0, 64, 127
1, 495184, Note_on_c, 0, 77, 51
1, 495188, Note_off_c, 0, 31, 66
1, 495208, Note_off_c, 0, 77, 39
1, 495213, Note_on_c, 0, 43, 82
1, 495214, Note_off_c, 0, 38, 64
1, 495219, Note_off_c, 0, 81, 64
1, 495225, Note_off_c, 0, 69, 63
1, 495225, Note_off_c, 0, 75, 65
1, 495233, Note_off_c, 0, 79, 65
1, 495234, Note_off_c, 0, 78, 58
1, 495240, Note_off_c, 0, 43, 66
1, 495313, Note_on_c, 0, 69, 96
1, 495314, Note_on_c, 0, 75, 97
1, 495314, Note_on_c, 0, 81, 89
1, 495320, Note_on_c, 0, 78, 93
1, 495323, Note_on_c, 0, 43, 57
1, 495324, Note_on_c, 0, 57, 99
1, 495341, Note_on_c, 0, 45, 55
1, 495352, Note_off_c, 0, 57, 66
1, 495370, Note_off_c, 0, 43, 65
1, 495375, Note_off_c, 0, 45, 59
1, 495384, Note_off_c, 0, 75, 65
1, 495384, Note_off_c, 0, 81, 63
1, 495384, Note_off_c, 0, 69, 63
1, 495398, Note_off_c, 0, 78, 64
1, 495427, Poly_aftertouch_c, 0, 79, 0
1, 495456, Control_c, 0, 64, 87
1, 495471, Control_c, 0, 64, 52
1, 495486, Control_c, 0, 64, 0
1, 495496, Note_on_c, 0, 81, 96
1, 495497, Note_on_c, 0, 76, 99
1, 495498, Note_on_c, 0, 69, 108
1, 495501, Note_on_c, 0, 38, 94
1, 495505, Note_on_c, 0, 77, 91
1, 495505, Note_on_c, 0, 31, 84
1, 495530, Control_c, 0, 64, 64
1, 495544, Control_c, 0, 64, 127
1, 495546, Note_off_c, 0, 31, 64
1, 495565, Note_on_c, 0, 43, 83
1, 495569, Note_off_c, 0, 81, 65
1, 495572, Note_off_c, 0, 38, 63
1, 495575, Note_off_c, 0, 76, 62
1, 495576, Note_off_c, 0, 69, 66
1, 495591, Note_off_c, 0, 77, 65
1, 495597, Note_off_c, 0, 43, 66
1, 495666, Note_on_c, 0, 69, 106
1, 495668, Note_on_c, 0, 78, 94
1, 495668, Note_on_c, 0, 81, 101
1, 495673, Note_on_c, 0, 43, 82
1, 495673, Note_on_c, 0, 57, 97
1, 495673, Note_on_c, 0, 76, 88
1, 495705, Note_off_c, 0, 57, 65
1, 495718, Note_off_c, 0, 43, 65
1, 495723, Note_off_c, 0, 76, 60
1, 495728, Note_off_c, 0, 69, 63
1, 495731, Note_off_c, 0, 81, 64
1, 495744, Note_off_c, 0, 78, 64
1, 495782, Control_c, 0, 64, 65
1, 495797, Control_c, 0, 64, 0
1, 495842, Note_on_c, 0, 71, 102
1, 495843, Note_on_c, 0, 83, 99
1, 495845, Note_on_c, 0, 38, 98
1, 495845, Note_on_c, 0, 79, 92
1, 495845, Note_on_c, 0, 31, 88
1, 495845, Note_on_c, 0, 75, 92
1, 495857, Control_c, 0, 64, 67
1, 495872, Control_c, 0, 64, 127
1, 495891, Note_off_c, 0, 31, 64
1, 495911, Note_on_c, 0, 43, 81
1, 495912, Note_off_c, 0, 38, 62
1, 495919, Note_off_c, 0, 71, 61
1, 495919, Note_off_c, 0, 83, 62
1, 495927, Note_off_c, 0, 75, 62
1, 495928, Note_off_c, 0, 79, 61
1, 495937, Note_off_c, 0, 43, 66
1, 496007, Note_on_c, 0, 43, 73
1, 496008, Note_on_c, 0, 71, 96
1, 496008, Note_on_c, 0, 78, 97
1, 496008, Note_on_c, 0, 83, 97
1, 496009, Note_on_c, 0, 76, 91
1, 496012, Note_on_c, 0, 57, 99
1, 496038, Note_off_c, 0, 57, 67
1, 496050, Note_off_c, 0, 43, 65
1, 496054, Note_off_c, 0, 71, 61
1, 496065, Note_off_c, 0, 76, 63
1, 496070, Note_off_c, 0, 83, 65
1, 496071, Note_off_c, 0, 78, 64
1, 496116, Control_c, 0, 64, 82
1, 496131, Control_c, 0, 64, 45
1, 496146, Control_c, 0, 64, 0
1, 496191, Control_c, 0, 64, 47
1, 496195, Note_on_c, 0, 38, 89
1, 496195, Note_on_c, 0, 74, 115
1, 496195, Note_on_c, 0, 77, 104
1, 496195, Note_on_c, 0, 86, 96
1, 496196, Note_on_c, 0, 31, 88
1, 496205, Control_c, 0, 64, 127
1, 496226, Note_off_c, 0, 31, 67
1, 496235, Note_off_c, 0, 86, 59
1, 496253, Note_on_c, 0, 43, 81
1, 496261, Note_off_c, 0, 38, 62
1, 496262, Note_off_c, 0, 74, 61
1, 496262, Note_off_c, 0, 77, 64
1, 496279, Note_off_c, 0, 43, 67
1, 496353, Note_on_c, 0, 77, 98
1, 496354, Note_on_c, 0, 71, 101
1, 496357, Note_on_c, 0, 76, 89
1, 496359, Note_on_c, 0, 83, 89
1, 496360, Note_on_c, 0, 57, 100
1, 496362, Note_on_c, 0, 43, 71
1, 496369, Note_on_c, 0, 79, 81
1, 496374, Note_on_c, 0, 45, 57
1, 496394, Note_off_c, 0, 57, 65
1, 496399, Note_off_c, 0, 43, 66
1, 496405, Note_off_c, 0, 45, 54
1, 496410, Note_off_c, 0, 76, 61
1, 496411, Note_on_c, 0, 81, 22
1, 496412, Note_off_c, 0, 81, 127
1, 496414, Note_off_c, 0, 83, 66
1, 496416, Note_off_c, 0, 79, 51
1, 496422, Note_off_c, 0, 71, 63
1, 496429, Note_off_c, 0, 77, 67
1, 496472, Control_c, 0, 64, 72
1, 496487, Control_c, 0, 64, 23
1, 496502, Control_c, 0, 64, 0
1, 496526, Note_on_c, 0, 31, 94
1, 496527, Note_on_c, 0, 69, 105
1, 496528, Note_on_c, 0, 38, 94
1, 496529, Note_on_c, 0, 75, 98
1, 496530, Note_on_c, 0, 81, 103
1, 496546, Control_c, 0, 64, 71
1, 496551, Note_on_c, 0, 79, 67
1, 496561, Control_c, 0, 64, 127
1, 496575, Note_off_c, 0, 31, 64
1, 496581, Note_on_c, 0, 78, 25
1, 496587, Note_off_c, 0, 81, 64
1, 496588, Note_off_c, 0, 78, 39
1, 496593, Note_off_c, 0, 69, 64
1, 496594, Note_on_c, 0, 43, 88
1, 496598, Note_off_c, 0, 79, 46
1, 496600, Note_off_c, 0, 38, 63
1, 496606, Note_off_c, 0, 75, 64
1, 496628, Note_off_c, 0, 43, 66
1, 496697, Note_on_c, 0, 69, 101
1, 496697, Note_on_c, 0, 74, 102
1, 496697, Note_on_c, 0, 81, 100
1, 496700, Note_on_c, 0, 43, 83
1, 496703, Note_on_c, 0, 57, 99
1, 496709, Note_on_c, 0, 78, 62
1, 496733, Note_off_c, 0, 78, 63
1, 496738, Note_off_c, 0, 57, 65
1, 496745, Note_off_c, 0, 43, 66
1, 496763, Note_off_c, 0, 69, 62
1, 496766, Note_off_c, 0, 74, 64
1, 496772, Note_off_c, 0, 81, 63
1, 496784, Control_c, 0, 64, 74
1, 496799, Control_c, 0, 64, 30
1, 496814, Control_c, 0, 64, 0
1, 496880, Control_c, 0, 64, 32
1, 496881, Note_on_c, 0, 31, 88
1, 496882, Note_on_c, 0, 38, 92
1, 496885, Note_on_c, 0, 81, 98
1, 496885, Note_on_c, 0, 69, 102
1, 496887, Note_on_c, 0, 75, 103
1, 496895, Control_c, 0, 64, 119
1, 496910, Control_c, 0, 64, 127
1, 496924, Note_off_c, 0, 31, 66
1, 496927, Note_on_c, 0, 73, 22
1, 496928, Note_off_c, 0, 73, 127
1, 496952, Note_off_c, 0, 81, 62
1, 496953, Note_on_c, 0, 43, 80
1, 496954, Note_off_c, 0, 38, 62
1, 496954, Note_off_c, 0, 69, 63
1, 496966, Note_off_c, 0, 75, 65
1, 496979, Note_off_c, 0, 43, 67
1, 497048, Note_on_c, 0, 69, 112
1, 497050, Note_on_c, 0, 81, 102
1, 497052, Note_on_c, 0, 76, 97
1, 497061, Note_on_c, 0, 57, 103
1, 497064, Note_on_c, 0, 43, 49
1, 497073, Note_on_c, 0, 45, 61
1, 497082, Note_off_c, 0, 69, 68
1, 497084, Note_off_c, 0, 57, 68
1, 497088, Note_off_c, 0, 81, 64
1, 497090, Note_off_c, 0, 76, 64
1, 497091, Note_off_c, 0, 43, 68
1, 497099, Note_off_c, 0, 45, 58
1, 497177, Control_c, 0, 64, 84
1, 497190, Control_c, 0, 64, 59
1, 497205, Control_c, 0, 64, 0
1, 497244, Note_on_c, 0, 39, 38
1, 497250, Control_c, 0, 64, 43
1, 497264, Control_c, 0, 64, 68
1, 497272, Note_on_c, 0, 71, 113
1, 497272, Note_on_c, 0, 83, 95
1, 497279, Control_c, 0, 64, 108
1, 497280, Note_on_c, 0, 77, 82
1, 497282, Note_on_c, 0, 75, 79
1, 497285, Note_off_c, 0, 39, 44
1, 497289, Note_on_c, 0, 76, 77
1, 497294, Control_c, 0, 64, 127
1, 497295, Note_on_c, 0, 72, 67
1, 497296, Note_off_c, 0, 72, 127
1, 497296, Note_on_c, 0, 79, 72
1, 497297, Note_on_c, 0, 38, 96
1, 497299, Note_off_c, 0, 75, 69
1, 497301, Note_on_c, 0, 31, 97
1, 497302, Note_off_c, 0, 77, 71
1, 497303, Note_off_c, 0, 83, 70
1, 497304, Note_off_c, 0, 76, 70
1, 497306, Note_off_c, 0, 71, 66
1, 497307, Note_on_c, 0, 81, 38
1, 497313, Note_off_c, 0, 79, 66
1, 497324, Note_on_c, 0, 36, 54
1, 497335, Note_off_c, 0, 81, 57
1, 497354, Note_off_c, 0, 36, 57
1, 497538, Note_on_c, 0, 43, 103
1, 497564, Note_off_c, 0, 31, 59
1, 497565, Note_off_c, 0, 38, 60
1, 497591, Note_off_c, 0, 43, 70
1, 497688, Note_on_c, 0, 45, 72
1, 497707, Note_on_c, 0, 47, 68
1, 497709, Note_off_c, 0, 45, 64
1, 497731, Note_on_c, 0, 48, 75
1, 497735, Note_off_c, 0, 47, 67
1, 497752, Note_on_c, 0, 50, 76
1, 497753, Note_off_c, 0, 48, 64
1, 497773, Note_on_c, 0, 52, 76
1, 497773, Note_off_c, 0, 50, 68
1, 497791, Note_on_c, 0, 53, 76
1, 497794, Note_off_c, 0, 52, 67
1, 497809, Note_on_c, 0, 55, 77
1, 497813, Note_off_c, 0, 53, 67
1, 497826, Note_on_c, 0, 57, 78
1, 497829, Note_off_c, 0, 55, 67
1, 497842, Note_on_c, 0, 59, 83
1, 497846, Note_off_c, 0, 57, 68
1, 497857, Note_on_c, 0, 60, 84
1, 497863, Note_off_c, 0, 59, 68
1, 497873, Note_on_c, 0, 62, 83
1, 497882, Note_off_c, 0, 60, 63
1, 497888, Note_on_c, 0, 64, 78
1, 497898, Note_off_c, 0, 62, 66
1, 497904, Note_on_c, 0, 65, 80
1, 497917, Note_off_c, 0, 64, 64
1, 497919, Note_on_c, 0, 67, 81
1, 497930, Note_off_c, 0, 65, 66
1, 497934, Note_on_c, 0, 57, 6
1, 497934, Note_on_c, 0, 69, 82
1, 497946, Note_off_c, 0, 67, 67
1, 497949, Note_on_c, 0, 71, 83
1, 497961, Note_off_c, 0, 69, 68
1, 497964, Note_on_c, 0, 59, 3
1, 497965, Note_on_c, 0, 72, 83
1, 497977, Note_off_c, 0, 71, 65
1, 497981, Note_on_c, 0, 74, 82
1, 497987, Note_off_c, 0, 57, 52
1, 497992, Note_off_c, 0, 72, 64
1, 497997, Note_on_c, 0, 76, 84
1, 498001, Note_off_c, 0, 59, 33
1, 498007, Note_off_c, 0, 74, 66
1, 498011, Note_on_c, 0, 77, 85
1, 498018, Note_off_c, 0, 76, 67
1, 498025, Note_on_c, 0, 79, 87
1, 498033, Note_off_c, 0, 77, 69
1, 498041, Note_on_c, 0, 81, 87
1, 498050, Note_off_c, 0, 79, 66
1, 498055, Note_on_c, 0, 83, 92
1, 498065, Note_off_c, 0, 81, 67
1, 498070, Note_on_c, 0, 84, 92
1, 498080, Note_off_c, 0, 83, 67
1, 498083, Note_on_c, 0, 86, 94
1, 498096, Note_off_c, 0, 84, 66
1, 498100, Note_on_c, 0, 88, 93
1, 498111, Note_off_c, 0, 86, 65
1, 498117, Poly_aftertouch_c, 0, 76, 0
1, 498118, Note_on_c, 0, 89, 90
1, 498122, Note_off_c, 0, 88, 64
1, 498134, Note_on_c, 0, 91, 88
1, 498135, Note_off_c, 0, 89, 72
1, 498146, Note_off_c, 0, 91, 75
1, 498152, Note_on_c, 0, 93, 80
1, 498166, Note_off_c, 0, 93, 69
1, 498195, Note_on_c, 0, 96, 95
1, 498217, Note_off_c, 0, 96, 68
1, 498228, Note_on_c, 0, 98, 14
1, 498274, Note_off_c, 0, 98, 31
1, 498310, Control_c, 0, 64, 61
1, 498325, Control_c, 0, 64, 0
1, 498340, Control_c, 0, 64, 13
1, 498362, Control_c, 0, 64, 0
1, 498602, Note_on_c, 0, 60, 96
1, 498881, Control_c, 0, 64, 33
1, 498896, Control_c, 0, 64, 39
1, 498910, Control_c, 0, 64, 40
1, 498925, Control_c, 0, 64, 46
1, 498940, Control_c, 0, 64, 57
1, 498954, Control_c, 0, 64, 65
1, 498969, Control_c, 0, 64, 68
1, 498972, Note_on_c, 0, 65, 62
1, 498975, Note_on_c, 0, 84, 73
1, 498982, Note_on_c, 0, 72, 76
1, 498982, Note_on_c, 0, 77, 60
1, 498984, Note_on_c, 0, 81, 67
1, 498984, Control_c, 0, 64, 72
1, 498985, Note_on_c, 0, 69, 56
1, 498999, Control_c, 0, 64, 76
1, 499010, Note_off_c, 0, 69, 61
1, 499010, Note_off_c, 0, 72, 66
1, 499014, Control_c, 0, 64, 79
1, 499023, Note_off_c, 0, 77, 63
1, 499029, Control_c, 0, 64, 82
1, 499043, Control_c, 0, 64, 83
1, 499046, Note_off_c, 0, 81, 59
1, 499058, Note_on_c, 0, 72, 73
1, 499064, Note_off_c, 0, 65, 63
1, 499064, Note_off_c, 0, 84, 64
1, 499085, Note_off_c, 0, 72, 66
1, 499104, Control_c, 0, 64, 83
1, 499127, Control_c, 0, 64, 73
1, 499136, Note_on_c, 0, 79, 75
1, 499141, Control_c, 0, 64, 57
1, 499149, Note_on_c, 0, 74, 74
1, 499152, Note_on_c, 0, 76, 52
1, 499156, Control_c, 0, 64, 0
1, 499157, Note_on_c, 0, 70, 62
1, 499162, Note_off_c, 0, 79, 67
1, 499177, Note_off_c, 0, 74, 68
1, 499177, Note_off_c, 0, 76, 37
1, 499182, Note_off_c, 0, 70, 65
1, 499367, Note_on_c, 0, 84, 55
1, 499374, Note_on_c, 0, 70, 88
1, 499374, Note_on_c, 0, 74, 98
1, 499407, Control_c, 0, 64, 52
1, 499422, Control_c, 0, 64, 66
1, 499424, Note_off_c, 0, 74, 65
1, 499431, Note_off_c, 0, 84, 0
1, 499437, Note_off_c, 0, 70, 63
1, 499437, Control_c, 0, 64, 78
1, 499452, Control_c, 0, 64, 113
1, 499466, Control_c, 0, 64, 127
1, 499468, Poly_aftertouch_c, 0, 84, 127
1, 499469, Note_on_c, 0, 72, 57
1, 499491, Note_off_c, 0, 72, 57
1, 499495, Poly_aftertouch_c, 0, 84, 0
1, 499526, Note_on_c, 0, 81, 60
1, 499546, Note_off_c, 0, 81, 68
1, 499547, Note_on_c, 0, 69, 71
1, 499549, Note_on_c, 0, 65, 57
1, 499549, Note_on_c, 0, 72, 86
1, 499583, Note_off_c, 0, 72, 60
1, 499584, Control_c, 0, 64, 85
1, 499587, Note_off_c, 0, 69, 64
1, 499599, Control_c, 0, 64, 61
1, 499612, Note_off_c, 0, 65, 56
1, 499614, Control_c, 0, 64, 0
1, 499726, Note_on_c, 0, 65, 67
1, 499735, Note_on_c, 0, 84, 86
1, 499735, Note_on_c, 0, 72, 96
1, 499739, Note_on_c, 0, 69, 79
1, 499744, Note_on_c, 0, 77, 71
1, 499747, Note_on_c, 0, 81, 70
1, 499747, Control_c, 0, 64, 61
1, 499762, Control_c, 0, 64, 81
1, 499772, Note_off_c, 0, 77, 68
1, 499777, Control_c, 0, 64, 127
1, 499782, Note_off_c, 0, 81, 61
1, 499794, Note_off_c, 0, 69, 66
1, 499860, Note_off_c, 0, 65, 58
1, 499860, Note_off_c, 0, 72, 63
1, 499870, Note_off_c, 0, 84, 55
1, 499914, Note_on_c, 0, 74, 79
1, 499915, Note_on_c, 0, 79, 67
1, 499925, Note_on_c, 0, 67, 58
1, 499926, Note_on_c, 0, 70, 67
1, 499929, Note_on_c, 0, 76, 53
1, 499939, Note_off_c, 0, 74, 67
1, 499940, Note_off_c, 0, 79, 68
1, 499949, Control_c, 0, 64, 87
1, 499952, Note_off_c, 0, 70, 65
1, 499952, Note_off_c, 0, 76, 59
1, 499956, Note_off_c, 0, 67, 62
1, 499963, Control_c, 0, 64, 48
1, 499978, Control_c, 0, 64, 0
1, 500104, Note_on_c, 0, 70, 73
1, 500106, Note_on_c, 0, 74, 86
1, 500106, Note_on_c, 0, 84, 91
1, 500118, Note_on_c, 0, 76, 62
1, 500123, Note_on_c, 0, 79, 63
1, 500148, Note_off_c, 0, 79, 65
1, 500153, Note_off_c, 0, 74, 64
1, 500155, Control_c, 0, 64, 61
1, 500167, Note_off_c, 0, 76, 57
1, 500170, Note_off_c, 0, 70, 63
1, 500170, Control_c, 0, 64, 66
1, 500185, Control_c, 0, 64, 67
1, 500200, Control_c, 0, 64, 69
1, 500215, Control_c, 0, 64, 74
1, 500215, Note_on_c, 0, 72, 56
1, 500230, Control_c, 0, 64, 84
1, 500245, Control_c, 0, 64, 99
1, 500248, Note_off_c, 0, 72, 64
1, 500259, Control_c, 0, 64, 110
1, 500274, Control_c, 0, 64, 109
1, 500280, Note_on_c, 0, 81, 75
1, 500286, Note_on_c, 0, 72, 81
1, 500287, Note_on_c, 0, 65, 63
1, 500288, Note_on_c, 0, 69, 75
1, 500289, Control_c, 0, 64, 100
1, 500300, Note_off_c, 0, 84, 30
1, 500303, Note_off_c, 0, 81, 69
1, 500304, Control_c, 0, 64, 79
1, 500307, Note_on_c, 0, 77, 41
1, 500319, Control_c, 0, 64, 60
1, 500323, Note_off_c, 0, 72, 63
1, 500332, Note_off_c, 0, 69, 64
1, 500333, Control_c, 0, 64, 0
1, 500334, Note_off_c, 0, 77, 55
1, 500358, Note_off_c, 0, 65, 63
1, 500452, Control_c, 0, 64, 52
1, 500467, Control_c, 0, 64, 64
1, 500471, Note_on_c, 0, 65, 63
1, 500478, Note_on_c, 0, 84, 78
1, 500480, Note_on_c, 0, 69, 60
1, 500480, Note_on_c, 0, 72, 71
1, 500481, Control_c, 0, 64, 71
1, 500486, Note_on_c, 0, 77, 70
1, 500490, Note_on_c, 0, 81, 67
1, 500496, Control_c, 0, 64, 86
1, 500511, Control_c, 0, 64, 127
1, 500513, Note_off_c, 0, 72, 64
1, 500515, Note_off_c, 0, 69, 65
1, 500525, Note_off_c, 0, 77, 64
1, 500527, Note_off_c, 0, 81, 62
1, 500551, Note_off_c, 0, 65, 58
1, 500569, Note_on_c, 0, 72, 62
1, 500573, Note_off_c, 0, 84, 62
1, 500589, Note_off_c, 0, 72, 64
1, 500616, Poly_aftertouch_c, 0, 62, 127
1, 500645, Note_on_c, 0, 74, 72
1, 500649, Note_on_c, 0, 79, 67
1, 500654, Note_on_c, 0, 76, 60
1, 500662, Note_on_c, 0, 70, 61
1, 500663, Note_on_c, 0, 67, 53
1, 500666, Note_off_c, 0, 79, 67
1, 500673, Note_off_c, 0, 76, 62
1, 500683, Note_off_c, 0, 74, 63
1, 500683, Control_c, 0, 64, 103
1, 500693, Note_off_c, 0, 70, 65
1, 500698, Control_c, 0, 64, 70
1, 500701, Note_off_c, 0, 67, 61
1, 500712, Control_c, 0, 64, 47
1, 500727, Control_c, 0, 64, 0
1, 500801, Control_c, 0, 64, 26
1, 500816, Control_c, 0, 64, 49
1, 500830, Control_c, 0, 64, 63
1, 500843, Note_on_c, 0, 84, 89
1, 500845, Control_c, 0, 64, 71
1, 500847, Note_on_c, 0, 70, 60
1, 500848, Note_on_c, 0, 74, 68
1, 500858, Note_on_c, 0, 76, 73
1, 500860, Note_on_c, 0, 79, 65
1, 500860, Control_c, 0, 64, 83
1, 500875, Control_c, 0, 64, 99
1, 500879, Note_off_c, 0, 74, 66
1, 500879, Note_off_c, 0, 79, 65
1, 500887, Note_off_c, 0, 76, 53
1, 500890, Control_c, 0, 64, 127
1, 500891, Note_off_c, 0, 70, 61
1, 500921, Note_on_c, 0, 72, 75
1, 500933, Note_off_c, 0, 84, 60
1, 500945, Note_off_c, 0, 72, 66
1, 500999, Note_on_c, 0, 81, 77
1, 501003, Note_on_c, 0, 72, 79
1, 501017, Note_on_c, 0, 69, 69
1, 501022, Note_off_c, 0, 81, 69
1, 501029, Note_on_c, 0, 77, 33
1, 501030, Note_on_c, 0, 65, 55
1, 501055, Note_off_c, 0, 69, 62
1, 501056, Note_off_c, 0, 72, 63
1, 501058, Note_off_c, 0, 77, 56
1, 501067, Control_c, 0, 64, 115
1, 501081, Note_off_c, 0, 65, 57
1, 501082, Control_c, 0, 64, 84
1, 501097, Control_c, 0, 64, 67
1, 501112, Control_c, 0, 64, 55
1, 501127, Control_c, 0, 64, 50
1, 501142, Control_c, 0, 64, 57
1, 501156, Control_c, 0, 64, 67
1, 501171, Control_c, 0, 64, 81
1, 501186, Control_c, 0, 64, 105
1, 501201, Control_c, 0, 64, 127
1, 501204, Note_on_c, 0, 65, 53
1, 501208, Note_on_c, 0, 72, 72
1, 501213, Note_on_c, 0, 84, 85
1, 501227, Note_on_c, 0, 77, 73
1, 501227, Note_on_c, 0, 81, 76
1, 501234, Note_on_c, 0, 69, 32
1, 501243, Note_off_c, 0, 72, 61
1, 501253, Note_off_c, 0, 81, 68
1, 501255, Note_off_c, 0, 77, 67
1, 501273, Note_off_c, 0, 69, 51
1, 501282, Note_off_c, 0, 65, 61
1, 501282, Poly_aftertouch_c, 0, 62, 0
1, 501285, Note_on_c, 0, 72, 76
1, 501294, Note_off_c, 0, 84, 64
1, 501307, Note_off_c, 0, 72, 66
1, 501319, Poly_aftertouch_c, 0, 62, 127
1, 501370, Note_on_c, 0, 79, 82
1, 501371, Note_on_c, 0, 74, 76
1, 501377, Note_on_c, 0, 76, 78
1, 501383, Note_on_c, 0, 67, 57
1, 501390, Note_on_c, 0, 70, 60
1, 501399, Note_off_c, 0, 79, 65
1, 501400, Note_off_c, 0, 76, 68
1, 501415, Note_off_c, 0, 74, 61
1, 501420, Note_off_c, 0, 70, 65
1, 501434, Note_off_c, 0, 67, 60
1, 501540, Poly_aftertouch_c, 0, 76, 0
1, 501557, Note_on_c, 0, 74, 64
1, 501567, Note_on_c, 0, 70, 47
1, 501568, Note_off_c, 0, 60, 60
1, 501574, Note_on_c, 0, 84, 78
1, 501584, Note_off_c, 0, 74, 68
1, 501586, Note_on_c, 0, 76, 51
1, 501591, Poly_aftertouch_c, 0, 62, 0
1, 501594, Note_off_c, 0, 70, 63
1, 501607, Note_off_c, 0, 76, 60
1, 501621, Note_off_c, 0, 84, 50
1, 501644, Note_on_c, 0, 72, 70
1, 501666, Note_off_c, 0, 72, 67
1, 501668, Control_c, 0, 64, 93
1, 501683, Control_c, 0, 64, 64
1, 501698, Control_c, 0, 64, 31
1, 501713, Control_c, 0, 64, 0
1, 501727, Control_c, 0, 64, 16
1, 501733, Note_on_c, 0, 65, 92
1, 501734, Note_on_c, 0, 69, 95
1, 501734, Note_on_c, 0, 72, 94
1, 501735, Note_on_c, 0, 84, 93
1, 501742, Control_c, 0, 64, 57
1, 501757, Control_c, 0, 64, 82
1, 501772, Control_c, 0, 64, 127
1, 501801, Note_off_c, 0, 69, 64
1, 501813, Note_off_c, 0, 72, 62
1, 501818, Note_off_c, 0, 65, 64
1, 501831, Note_off_c, 0, 84, 57
1, 501857, Note_on_c, 0, 74, 54
1, 501916, Note_off_c, 0, 74, 60
1, 501917, Note_on_c, 0, 65, 78
1, 501920, Note_on_c, 0, 69, 72
1, 501921, Note_on_c, 0, 72, 71
1, 501943, Note_on_c, 0, 70, 70
1, 501960, Note_off_c, 0, 69, 62
1, 501965, Note_off_c, 0, 72, 54
1, 501973, Note_off_c, 0, 65, 61
1, 502008, Note_off_c, 0, 70, 60
1, 502030, Note_on_c, 0, 74, 59
1, 502087, Note_off_c, 0, 74, 46
1, 502092, Note_on_c, 0, 69, 78
1, 502093, Note_on_c, 0, 65, 76
1, 502093, Note_on_c, 0, 72, 81
1, 502111, Note_on_c, 0, 70, 82
1, 502150, Note_off_c, 0, 69, 65
1, 502155, Note_off_c, 0, 72, 59
1, 502158, Note_off_c, 0, 65, 62
1, 502194, Note_off_c, 0, 70, 60
1, 502197, Note_on_c, 0, 74, 72
1, 502276, Note_on_c, 0, 65, 73
1, 502279, Note_on_c, 0, 69, 71
1, 502283, Note_on_c, 0, 72, 72
1, 502283, Note_on_c, 0, 81, 89
1, 502290, Note_on_c, 0, 70, 100
1, 502304, Note_off_c, 0, 74, 66
1, 502331, Note_off_c, 0, 69, 66
1, 502346, Note_off_c, 0, 65, 63
1, 502352, Note_off_c, 0, 72, 62
1, 502380, Note_off_c, 0, 81, 63
1, 502381, Note_off_c, 0, 70, 64
1, 502394, Note_on_c, 0, 74, 72
1, 502429, Note_off_c, 0, 74, 66
1, 502433, Control_c, 0, 64, 96
1, 502447, Control_c, 0, 64, 64
1, 502462, Control_c, 0, 64, 14
1, 502477, Control_c, 0, 64, 0
1, 502482, Note_on_c, 0, 82, 98
1, 502483, Note_on_c, 0, 64, 78
1, 502486, Note_on_c, 0, 74, 87
1, 502488, Note_on_c, 0, 70, 78
1, 502492, Control_c, 0, 64, 61
1, 502492, Note_on_c, 0, 67, 81
1, 502507, Control_c, 0, 64, 106
1, 502522, Control_c, 0, 64, 127
1, 502558, Note_off_c, 0, 64, 63
1, 502559, Note_off_c, 0, 70, 62
1, 502561, Note_off_c, 0, 74, 64
1, 502572, Note_on_c, 0, 76, 75
1, 502575, Note_off_c, 0, 67, 63
1, 502634, Note_off_c, 0, 76, 57
1, 502653, Note_on_c, 0, 72, 76
1, 502664, Note_on_c, 0, 74, 83
1, 502665, Note_on_c, 0, 70, 76
1, 502680, Note_on_c, 0, 60, 63
1, 502686, Note_off_c, 0, 82, 63
1, 502687, Note_on_c, 0, 67, 59
1, 502712, Note_off_c, 0, 67, 58
1, 502717, Note_off_c, 0, 70, 61
1, 502722, Note_off_c, 0, 74, 59
1, 502723, Note_off_c, 0, 60, 57
1, 502725, Note_off_c, 0, 72, 62
1, 502732, Note_on_c, 0, 76, 75
1, 502765, Note_off_c, 0, 76, 58
1, 502826, Note_on_c, 0, 81, 100
1, 502827, Note_on_c, 0, 72, 101
1, 502835, Note_on_c, 0, 74, 86
1, 502839, Note_on_c, 0, 70, 81
1, 502841, Note_on_c, 0, 60, 73
1, 502842, Note_on_c, 0, 67, 62
1, 502909, Note_off_c, 0, 72, 62
1, 502911, Note_off_c, 0, 81, 64
1, 502917, Note_on_c, 0, 76, 73
1, 502923, Note_off_c, 0, 70, 58
1, 502923, Note_off_c, 0, 74, 60
1, 502930, Note_off_c, 0, 67, 59
1, 502939, Note_off_c, 0, 60, 51
1, 502965, Note_off_c, 0, 76, 61
1, 503006, Note_on_c, 0, 72, 101
1, 503008, Note_on_c, 0, 79, 93
1, 503013, Note_on_c, 0, 74, 83
1, 503014, Note_on_c, 0, 60, 42
1, 503016, Note_on_c, 0, 70, 78
1, 503033, Note_on_c, 0, 67, 56
1, 503053, Note_off_c, 0, 60, 47
1, 503057, Note_off_c, 0, 67, 58
1, 503068, Note_off_c, 0, 70, 63
1, 503082, Note_off_c, 0, 74, 63
1, 503085, Note_on_c, 0, 76, 71
1, 503095, Note_off_c, 0, 72, 62
1, 503135, Note_off_c, 0, 79, 57
1, 503137, Note_off_c, 0, 76, 63
1, 503183, Note_on_c, 0, 67, 71
1, 503184, Note_on_c, 0, 65, 73
1, 503186, Note_on_c, 0, 77, 98
1, 503202, Note_on_c, 0, 72, 80
1, 503230, Note_off_c, 0, 72, 65
1, 503243, Note_off_c, 0, 77, 65
1, 503250, Note_off_c, 0, 65, 63
1, 503276, Note_on_c, 0, 72, 93
1, 503290, Note_on_c, 0, 69, 85
1, 503297, Note_off_c, 0, 67, 64
1, 503338, Note_off_c, 0, 72, 62
1, 503361, Note_off_c, 0, 69, 65
1, 503363, Note_on_c, 0, 74, 88
1, 503369, Note_on_c, 0, 70, 81
1, 503413, Note_off_c, 0, 74, 66
1, 503425, Note_off_c, 0, 70, 65
1, 503428, Note_on_c, 0, 72, 75
1, 503440, Note_on_c, 0, 76, 95
1, 503459, Note_off_c, 0, 72, 64
1, 503494, Note_off_c, 0, 76, 65
1, 503532, Note_on_c, 0, 77, 94
1, 503534, Note_on_c, 0, 72, 90
1, 503541, Note_on_c, 0, 70, 88
1, 503570, Note_off_c, 0, 72, 66
1, 503582, Note_on_c, 0, 71, 61
1, 503587, Note_off_c, 0, 70, 62
1, 503607, Note_off_c, 0, 71, 64
1, 503624, Note_on_c, 0, 79, 87
1, 503640, Note_on_c, 0, 69, 73
1, 503642, Note_off_c, 0, 77, 69
1, 503658, Note_off_c, 0, 69, 67
1, 503664, Note_off_c, 0, 79, 67
1, 503681, Note_on_c, 0, 67, 81
1, 503702, Note_on_c, 0, 77, 94
1, 503702, Note_on_c, 0, 81, 93
1, 503737, Note_off_c, 0, 67, 64
1, 503750, Note_on_c, 0, 65, 91
1, 503753, Note_off_c, 0, 77, 62
1, 503794, Note_on_c, 0, 82, 86
1, 503795, Note_on_c, 0, 64, 75
1, 503799, Note_on_c, 0, 79, 79
1, 503809, Note_off_c, 0, 65, 65
1, 503811, Control_c, 0, 64, 70
1, 503812, Note_off_c, 0, 81, 65
1, 503819, Note_on_c, 0, 62, 72
1, 503826, Control_c, 0, 64, 0
1, 503840, Control_c, 0, 64, 21
1, 503842, Note_off_c, 0, 79, 65
1, 503845, Note_off_c, 0, 62, 62
1, 503855, Control_c, 0, 64, 0
1, 503857, Note_off_c, 0, 64, 66
1, 503857, Note_off_c, 0, 82, 66
1, 503862, Note_on_c, 0, 60, 78
1, 503878, Note_on_c, 0, 84, 103
1, 503881, Note_on_c, 0, 77, 99
1, 503905, Note_off_c, 0, 77, 69
1, 503916, Note_off_c, 0, 84, 68
1, 504114, Note_on_c, 0, 84, 72
1, 504121, Note_on_c, 0, 77, 65
1, 504121, Note_on_c, 0, 81, 59
1, 504122, Note_on_c, 0, 72, 71
1, 504123, Note_on_c, 0, 65, 62
1, 504132, Note_on_c, 0, 69, 60
1, 504137, Control_c, 0, 64, 38
1, 504152, Control_c, 0, 64, 55
1, 504153, Note_off_c, 0, 77, 56
1, 504155, Note_off_c, 0, 72, 65
1, 504156, Note_off_c, 0, 81, 62
1, 504161, Note_off_c, 0, 69, 67
1, 504167, Control_c, 0, 64, 58
1, 504185, Note_off_c, 0, 65, 55
1, 504196, Control_c, 0, 64, 57
1, 504211, Control_c, 0, 64, 46
1, 504214, Note_on_c, 0, 72, 67
1, 504226, Note_off_c, 0, 84, 61
1, 504226, Control_c, 0, 64, 0
1, 504226, Control_c, 0, 67, 8
1, 504241, Control_c, 0, 67, 11
1, 504242, Note_off_c, 0, 72, 66
1, 504255, Control_c, 0, 67, 17
1, 504270, Control_c, 0, 67, 24
1, 504277, Note_on_c, 0, 79, 70
1, 504285, Control_c, 0, 67, 33
1, 504289, Note_on_c, 0, 70, 65
1, 504294, Note_on_c, 0, 74, 57
1, 504297, Note_on_c, 0, 76, 48
1, 504299, Note_off_c, 0, 79, 68
1, 504299, Control_c, 0, 67, 38
1, 504300, Note_on_c, 0, 67, 43
1, 504314, Note_off_c, 0, 74, 64
1, 504314, Control_c, 0, 67, 43
1, 504317, Note_off_c, 0, 70, 65
1, 504323, Note_off_c, 0, 76, 35
1, 504328, Note_off_c, 0, 67, 56
1, 504329, Control_c, 0, 67, 47
1, 504352, Control_c, 0, 67, 52
1, 504367, Control_c, 0, 67, 55
1, 504381, Control_c, 0, 67, 56
1, 504396, Control_c, 0, 67, 55
1, 504411, Control_c, 0, 67, 55
1, 504470, Control_c, 0, 67, 54
1, 504483, Note_on_c, 0, 84, 87
1, 504485, Control_c, 0, 67, 52
1, 504497, Note_on_c, 0, 79, 65
1, 504498, Note_on_c, 0, 76, 61
1, 504500, Control_c, 0, 67, 51
1, 504502, Note_on_c, 0, 70, 66
1, 504514, Control_c, 0, 67, 50
1, 504518, Note_off_c, 0, 79, 61
1, 504518, Note_off_c, 0, 76, 61
1, 504519, Note_on_c, 0, 74, 48
1, 504529, Control_c, 0, 64, 49
1, 504529, Control_c, 0, 67, 49
1, 504544, Note_off_c, 0, 74, 59
1, 504544, Control_c, 0, 64, 60
1, 504550, Note_off_c, 0, 70, 56
1, 504559, Control_c, 0, 64, 62
1, 504574, Control_c, 0, 64, 63
1, 504574, Control_c, 0, 67, 48
1, 504586, Note_on_c, 0, 72, 51
1, 504588, Control_c, 0, 64, 66
1, 504603, Control_c, 0, 64, 69
1, 504603, Control_c, 0, 67, 49
1, 504618, Control_c, 0, 64, 68
1, 504618, Control_c, 0, 67, 50
1, 504621, Note_off_c, 0, 72, 48
1, 504623, Note_off_c, 0, 84, 56
1, 504633, Control_c, 0, 64, 59
1, 504633, Control_c, 0, 67, 51
1, 504648, Control_c, 0, 64, 0
1, 504648, Control_c, 0, 67, 52
1, 504656, Note_on_c, 0, 81, 72
1, 504662, Control_c, 0, 67, 53
1, 504671, Note_on_c, 0, 72, 69
1, 504674, Note_on_c, 0, 77, 55
1, 504678, Control_c, 0, 67, 54
1, 504680, Note_on_c, 0, 69, 59
1, 504682, Note_off_c, 0, 81, 68
1, 504683, Note_on_c, 0, 65, 49
1, 504693, Control_c, 0, 67, 55
1, 504694, Note_off_c, 0, 77, 62
1, 504708, Control_c, 0, 67, 56
1, 504712, Note_off_c, 0, 72, 57
1, 504718, Note_off_c, 0, 69, 64
1, 504738, Control_c, 0, 67, 56
1, 504740, Note_off_c, 0, 65, 51
1, 504767, Control_c, 0, 67, 57
1, 504782, Control_c, 0, 67, 59
1, 504797, Control_c, 0, 67, 61
1, 504811, Control_c, 0, 67, 64
1, 504826, Control_c, 0, 67, 64
1, 504853, Note_on_c, 0, 72, 74
1, 504854, Note_on_c, 0, 81, 72
1, 504856, Control_c, 0, 67, 65
1, 504859, Note_on_c, 0, 77, 58
1, 504865, Note_on_c, 0, 69, 60
1, 504880, Note_off_c, 0, 77, 66
1, 504881, Note_on_c, 0, 65, 35
1, 504886, Control_c, 0, 67, 65
1, 504891, Note_off_c, 0, 60, 45
1, 504898, Note_off_c, 0, 72, 61
1, 504901, Control_c, 0, 67, 65
1, 504902, Note_off_c, 0, 69, 66
1, 504916, Control_c, 0, 67, 63
1, 504916, Note_off_c, 0, 65, 53
1, 504925, Note_on_c, 0, 72, 62
1, 504930, Control_c, 0, 67, 58
1, 504945, Control_c, 0, 67, 53
1, 504960, Control_c, 0, 67, 45
1, 504963, Note_off_c, 0, 81, 63
1, 504975, Note_off_c, 0, 72, 62
1, 504975, Control_c, 0, 67, 23
1, 504990, Control_c, 0, 67, 0
1, 505004, Control_c, 0, 64, 61
1, 505016, Note_on_c, 0, 84, 105
1, 505019, Control_c, 0, 64, 84
1, 505022, Note_on_c, 0, 74, 101
1, 505023, Note_on_c, 0, 70, 89
1, 505026, Note_on_c, 0, 67, 90
1, 505034, Control_c, 0, 64, 118
1, 505049, Control_c, 0, 64, 127
1, 505087, Note_off_c, 0, 74, 63
1, 505109, Note_off_c, 0, 70, 60
1, 505121, Note_off_c, 0, 67, 60
1, 505124, Note_on_c, 0, 76, 77
1, 505157, Note_off_c, 0, 76, 56
1, 505181, Note_off_c, 0, 84, 54
1, 505201, Note_on_c, 0, 81, 92
1, 505205, Note_on_c, 0, 74, 79
1, 505207, Note_on_c, 0, 72, 88
1, 505209, Note_on_c, 0, 64, 71
1, 505214, Note_on_c, 0, 70, 75
1, 505220, Note_on_c, 0, 67, 72
1, 505252, Note_off_c, 0, 74, 65
1, 505256, Note_off_c, 0, 70, 55
1, 505258, Note_off_c, 0, 72, 64
1, 505260, Note_off_c, 0, 64, 61
1, 505264, Note_off_c, 0, 67, 60
1, 505288, Note_on_c, 0, 76, 77
1, 505288, Note_off_c, 0, 81, 64
1, 505293, Control_c, 0, 64, 91
1, 505308, Control_c, 0, 64, 61
1, 505319, Note_off_c, 0, 76, 65
1, 505323, Control_c, 0, 64, 0
1, 505381, Note_on_c, 0, 86, 101
1, 505390, Note_on_c, 0, 74, 103
1, 505394, Note_on_c, 0, 70, 86
1, 505397, Note_on_c, 0, 62, 82
1, 505397, Note_on_c, 0, 67, 81
1, 505397, Control_c, 0, 64, 51
1, 505399, Note_on_c, 0, 72, 82
1, 505411, Control_c, 0, 64, 83
1, 505426, Control_c, 0, 64, 127
1, 505440, Note_off_c, 0, 62, 59
1, 505446, Note_off_c, 0, 72, 55
1, 505447, Note_off_c, 0, 74, 63
1, 505452, Note_off_c, 0, 70, 63
1, 505462, Note_off_c, 0, 67, 64
1, 505497, Note_on_c, 0, 76, 72
1, 505559, Note_on_c, 0, 74, 79
1, 505560, Note_on_c, 0, 72, 80
1, 505561, Note_off_c, 0, 76, 65
1, 505563, Note_on_c, 0, 62, 71
1, 505564, Note_on_c, 0, 70, 73
1, 505575, Note_on_c, 0, 67, 71
1, 505613, Note_off_c, 0, 74, 61
1, 505621, Note_off_c, 0, 70, 61
1, 505622, Note_off_c, 0, 67, 55
1, 505622, Note_off_c, 0, 62, 64
1, 505629, Note_off_c, 0, 72, 63
1, 505631, Note_off_c, 0, 86, 62
1, 505644, Note_on_c, 0, 76, 70
1, 505671, Note_off_c, 0, 76, 67
1, 505737, Note_on_c, 0, 86, 101
1, 505739, Note_on_c, 0, 72, 96
1, 505742, Note_on_c, 0, 62, 84
1, 505744, Note_on_c, 0, 74, 90
1, 505744, Note_on_c, 0, 70, 78
1, 505754, Note_on_c, 0, 67, 72
1, 505771, Note_on_c, 0, 78, 41
1, 505798, Note_off_c, 0, 78, 57
1, 505813, Note_off_c, 0, 74, 61
1, 505814, Note_off_c, 0, 70, 61
1, 505816, Note_off_c, 0, 62, 61
1, 505818, Note_off_c, 0, 86, 56
1, 505821, Note_off_c, 0, 67, 59
1, 505822, Note_off_c, 0, 72, 60
1, 505837, Poly_aftertouch_c, 0, 84, 127
1, 505844, Note_on_c, 0, 76, 72
1, 505870, Poly_aftertouch_c, 0, 84, 0
1, 505887, Note_off_c, 0, 76, 60
1, 505924, Note_on_c, 0, 62, 74
1, 505924, Note_on_c, 0, 74, 76
1, 505931, Note_on_c, 0, 72, 84
1, 505932, Note_on_c, 0, 70, 71
1, 505945, Note_on_c, 0, 67, 66
1, 505978, Note_off_c, 0, 67, 58
1, 505978, Note_off_c, 0, 74, 61
1, 505980, Note_off_c, 0, 62, 63
1, 505984, Note_on_c, 0, 76, 77
1, 505992, Note_off_c, 0, 70, 60
1, 505996, Note_off_c, 0, 72, 63
1, 506020, Note_off_c, 0, 76, 62
1, 506088, Note_on_c, 0, 64, 80
1, 506091, Note_on_c, 0, 74, 86
1, 506092, Note_on_c, 0, 84, 106
1, 506093, Note_on_c, 0, 72, 102
1, 506096, Note_on_c, 0, 67, 64
1, 506117, Note_on_c, 0, 66, 51
1, 506128, Note_off_c, 0, 74, 63
1, 506130, Note_off_c, 0, 84, 65
1, 506133, Note_off_c, 0, 64, 64
1, 506135, Note_off_c, 0, 67, 64
1, 506143, Note_off_c, 0, 66, 60
1, 506144, Note_off_c, 0, 72, 63
1, 506183, Poly_aftertouch_c, 0, 70, 0
1, 506203, Note_on_c, 0, 72, 94
1, 506203, Poly_aftertouch_c, 0, 65, 0
1, 506206, Poly_aftertouch_c, 0, 70, 0
1, 506212, Note_on_c, 0, 69, 72
1, 506259, Note_off_c, 0, 72, 63
1, 506281, Note_off_c, 0, 69, 64
1, 506283, Note_on_c, 0, 70, 89
1, 506284, Note_on_c, 0, 74, 88
1, 506352, Note_off_c, 0, 70, 64
1, 506360, Note_on_c, 0, 72, 87
1, 506363, Note_on_c, 0, 76, 93
1, 506369, Note_off_c, 0, 74, 60
1, 506388, Note_off_c, 0, 72, 63
1, 506414, Note_off_c, 0, 76, 65
1, 506445, Note_on_c, 0, 77, 95
1, 506454, Note_on_c, 0, 72, 101
1, 506520, Note_off_c, 0, 72, 60
1, 506531, Note_on_c, 0, 79, 92
1, 506532, Note_on_c, 0, 70, 86
1, 506552, Note_off_c, 0, 77, 67
1, 506573, Note_off_c, 0, 79, 69
1, 506606, Note_off_c, 0, 70, 64
1, 506609, Note_on_c, 0, 69, 71
1, 506628, Note_on_c, 0, 77, 86
1, 506628, Note_on_c, 0, 81, 85
1, 506633, Note_off_c, 0, 69, 68
1, 506660, Note_on_c, 0, 67, 89
1, 506682, Note_off_c, 0, 77, 58
1, 506716, Note_on_c, 0, 82, 85
1, 506718, Note_on_c, 0, 79, 78
1, 506724, Note_off_c, 0, 81, 66
1, 506726, Note_on_c, 0, 65, 97
1, 506731, Note_off_c, 0, 67, 60
1, 506772, Note_on_c, 0, 64, 70
1, 506773, Note_off_c, 0, 65, 64
1, 506773, Note_off_c, 0, 79, 62
1, 506775, Note_on_c, 0, 62, 73
1, 506785, Note_off_c, 0, 82, 64
1, 506791, Control_c, 0, 64, 63
1, 506803, Note_on_c, 0, 84, 99
1, 506805, Note_on_c, 0, 77, 99
1, 506806, Control_c, 0, 64, 0
1, 506829, Note_on_c, 0, 60, 85
1, 506830, Note_off_c, 0, 64, 59
1, 506832, Note_off_c, 0, 77, 67
1, 506841, Note_off_c, 0, 84, 69
1, 506844, Note_off_c, 0, 62, 64
1, 507014, Control_c, 0, 67, 9
1, 507029, Control_c, 0, 67, 14
1, 507038, Note_on_c, 0, 84, 80
1, 507041, Note_on_c, 0, 81, 60
1, 507041, Note_on_c, 0, 65, 58
1, 507041, Note_on_c, 0, 77, 73
1, 507043, Control_c, 0, 67, 22
1, 507051, Note_on_c, 0, 69, 56
1, 507056, Note_on_c, 0, 72, 63
1, 507058, Control_c, 0, 64, 36
1, 507058, Control_c, 0, 67, 27
1, 507071, Note_off_c, 0, 77, 63
1, 507074, Control_c, 0, 64, 40
1, 507074, Control_c, 0, 67, 33
1, 507076, Note_off_c, 0, 72, 63
1, 507081, Note_off_c, 0, 81, 59
1, 507083, Note_off_c, 0, 69, 65
1, 507089, Control_c, 0, 64, 46
1, 507089, Control_c, 0, 67, 38
1, 507104, Control_c, 0, 64, 51
1, 507104, Control_c, 0, 67, 42
1, 507106, Note_off_c, 0, 65, 58
1, 507119, Control_c, 0, 64, 44
1, 507119, Control_c, 0, 67, 44
1, 507133, Note_on_c, 0, 72, 59
1, 507133, Control_c, 0, 64, 0
1, 507133, Control_c, 0, 67, 52
1, 507137, Note_off_c, 0, 84, 60
1, 507148, Control_c, 0, 67, 61
1, 507154, Note_off_c, 0, 72, 61
1, 507163, Control_c, 0, 67, 72
1, 507178, Control_c, 0, 67, 82
1, 507192, Note_on_c, 0, 79, 69
1, 507192, Control_c, 0, 67, 89
1, 507200, Note_on_c, 0, 76, 61
1, 507207, Control_c, 0, 67, 92
1, 507208, Note_on_c, 0, 70, 66
1, 507212, Note_on_c, 0, 74, 59
1, 507218, Note_off_c, 0, 79, 67
1, 507220, Note_off_c, 0, 76, 62
1, 507236, Note_off_c, 0, 74, 62
1, 507247, Note_off_c, 0, 70, 60
1, 507252, Control_c, 0, 67, 91
1, 507266, Control_c, 0, 67, 90
1, 507288, Poly_aftertouch_c, 0, 67, 0
1, 507296, Control_c, 0, 67, 90
1, 507311, Control_c, 0, 67, 89
1, 507325, Control_c, 0, 67, 88
1, 507378, Control_c, 0, 67, 87
1, 507393, Control_c, 0, 67, 86
1, 507406, Note_on_c, 0, 84, 79
1, 507407, Control_c, 0, 67, 85
1, 507415, Note_on_c, 0, 79, 60
1, 507416, Note_on_c, 0, 70, 58
1, 507422, Control_c, 0, 67, 84
1, 507424, Note_on_c, 0, 74, 42
1, 507434, Note_off_c, 0, 79, 63
1, 507436, Note_on_c, 0, 76, 45
1, 507437, Control_c, 0, 64, 42
1, 507437, Control_c, 0, 67, 85
1, 507449, Note_off_c, 0, 70, 64
1, 507452, Note_off_c, 0, 74, 53
1, 507452, Control_c, 0, 64, 50
1, 507452, Control_c, 0, 67, 84
1, 507463, Note_off_c, 0, 76, 55
1, 507467, Control_c, 0, 64, 48
1, 507467, Control_c, 0, 67, 85
1, 507481, Control_c, 0, 64, 38
1, 507492, Note_on_c, 0, 72, 70
1, 507496, Control_c, 0, 64, 0
1, 507496, Control_c, 0, 67, 85
1, 507511, Control_c, 0, 67, 86
1, 507523, Note_off_c, 0, 72, 66
1, 507524, Note_off_c, 0, 84, 58
1, 507526, Control_c, 0, 67, 87
1, 507540, Control_c, 0, 67, 87
1, 507555, Control_c, 0, 67, 88
1, 507564, Note_on_c, 0, 81, 68
1, 507570, Control_c, 0, 67, 90
1, 507582, Note_on_c, 0, 72, 72
1, 507584, Note_on_c, 0, 69, 61
1, 507585, Note_on_c, 0, 77, 51
1, 507585, Control_c, 0, 67, 91
1, 507589, Note_off_c, 0, 81, 67
1, 507595, Note_on_c, 0, 65, 46
1, 507599, Control_c, 0, 67, 92
1, 507607, Note_off_c, 0, 77, 59
1, 507610, Note_off_c, 0, 72, 64
1, 507613, Note_off_c, 0, 69, 52
1, 507614, Control_c, 0, 67, 92
1, 507634, Note_off_c, 0, 65, 51
1, 507688, Control_c, 0, 67, 92
1, 507703, Control_c, 0, 67, 91
1, 507718, Control_c, 0, 67, 90
1, 507732, Control_c, 0, 67, 89
1, 507747, Control_c, 0, 67, 88
1, 507761, Note_on_c, 0, 81, 81
1, 507762, Control_c, 0, 67, 86
1, 507764, Note_on_c, 0, 65, 47
1, 507768, Note_on_c, 0, 84, 80
1, 507768, Note_on_c, 0, 72, 66
1, 507771, Note_on_c, 0, 77, 57
1, 507777, Note_on_c, 0, 69, 56
1, 507777, Control_c, 0, 64, 55
1, 507777, Control_c, 0, 67, 84
1, 507792, Control_c, 0, 64, 60
1, 507792, Control_c, 0, 67, 83
1, 507799, Note_off_c, 0, 72, 65
1, 507801, Note_off_c, 0, 69, 60
1, 507803, Note_off_c, 0, 77, 66
1, 507806, Control_c, 0, 64, 64
1, 507806, Control_c, 0, 67, 81
1, 507809, Note_off_c, 0, 81, 63
1, 507821, Control_c, 0, 64, 71
1, 507821, Control_c, 0, 67, 79
1, 507836, Control_c, 0, 64, 85
1, 507836, Control_c, 0, 67, 77
1, 507848, Note_on_c, 0, 72, 83
1, 507851, Control_c, 0, 64, 127
1, 507851, Control_c, 0, 67, 77
1, 507861, Note_off_c, 0, 65, 39
1, 507867, Control_c, 0, 67, 75
1, 507882, Control_c, 0, 67, 74
1, 507887, Note_off_c, 0, 84, 50
1, 507894, Note_off_c, 0, 72, 63
1, 507911, Control_c, 0, 67, 74
1, 507917, Note_on_c, 0, 74, 69
1, 507917, Note_on_c, 0, 79, 72
1, 507920, Note_on_c, 0, 70, 66
1, 507920, Note_on_c, 0, 76, 71
1, 507931, Note_on_c, 0, 67, 57
1, 507940, Control_c, 0, 67, 74
1, 507941, Note_off_c, 0, 79, 68
1, 507946, Note_off_c, 0, 76, 67
1, 507952, Note_off_c, 0, 74, 63
1, 507955, Control_c, 0, 67, 76
1, 507956, Note_off_c, 0, 70, 63
1, 507970, Note_off_c, 0, 67, 60
1, 507970, Control_c, 0, 67, 77
1, 507985, Control_c, 0, 67, 79
1, 508000, Control_c, 0, 67, 79
1, 508014, Control_c, 0, 67, 80
1, 508044, Control_c, 0, 64, 81
1, 508044, Control_c, 0, 67, 80
1, 508059, Control_c, 0, 64, 58
1, 508059, Control_c, 0, 67, 81
1, 508074, Control_c, 0, 64, 0
1, 508074, Control_c, 0, 67, 81
1, 508111, Control_c, 0, 67, 81
1, 508117, Note_on_c, 0, 84, 91
1, 508123, Note_on_c, 0, 79, 72
1, 508126, Control_c, 0, 64, 41
1, 508126, Control_c, 0, 67, 80
1, 508126, Note_on_c, 0, 74, 72
1, 508132, Note_on_c, 0, 70, 63
1, 508141, Control_c, 0, 64, 61
1, 508141, Control_c, 0, 67, 80
1, 508143, Poly_aftertouch_c, 0, 62, 127
1, 508144, Note_on_c, 0, 76, 53
1, 508153, Note_off_c, 0, 79, 64
1, 508155, Control_c, 0, 64, 72
1, 508155, Control_c, 0, 67, 79
1, 508162, Note_off_c, 0, 74, 63
1, 508170, Control_c, 0, 64, 86
1, 508170, Control_c, 0, 67, 78
1, 508171, Note_off_c, 0, 76, 53
1, 508174, Note_off_c, 0, 70, 61
1, 508185, Control_c, 0, 64, 122
1, 508185, Control_c, 0, 67, 77
1, 508189, Note_on_c, 0, 72, 78
1, 508200, Control_c, 0, 64, 127
1, 508200, Control_c, 0, 67, 76
1, 508215, Control_c, 0, 67, 76
1, 508250, Note_off_c, 0, 72, 56
1, 508259, Control_c, 0, 67, 76
1, 508274, Control_c, 0, 67, 77
1, 508281, Note_on_c, 0, 81, 82
1, 508282, Note_on_c, 0, 72, 68
1, 508282, Note_off_c, 0, 84, 53
1, 508289, Control_c, 0, 64, 103
1, 508289, Control_c, 0, 67, 79
1, 508290, Note_on_c, 0, 77, 73
1, 508301, Note_on_c, 0, 69, 64
1, 508303, Control_c, 0, 64, 67
1, 508303, Control_c, 0, 67, 80
1, 508315, Note_off_c, 0, 77, 69
1, 508317, Note_on_c, 0, 65, 43
1, 508318, Control_c, 0, 64, 34
1, 508318, Control_c, 0, 67, 81
1, 508331, Note_off_c, 0, 81, 62
1, 508333, Control_c, 0, 64, 0
1, 508344, Note_off_c, 0, 69, 51
1, 508347, Control_c, 0, 67, 80
1, 508349, Note_off_c, 0, 72, 60
1, 508362, Control_c, 0, 67, 79
1, 508374, Note_off_c, 0, 65, 38
1, 508377, Control_c, 0, 64, 47
1, 508377, Control_c, 0, 67, 78
1, 508392, Control_c, 0, 64, 65
1, 508392, Control_c, 0, 67, 76
1, 508407, Control_c, 0, 64, 86
1, 508407, Control_c, 0, 67, 75
1, 508421, Control_c, 0, 64, 127
1, 508421, Control_c, 0, 67, 74
1, 508436, Control_c, 0, 67, 73
1, 508451, Control_c, 0, 67, 72
1, 508466, Control_c, 0, 67, 67
1, 508471, Note_on_c, 0, 72, 74
1, 508476, Note_on_c, 0, 69, 64
1, 508480, Note_on_c, 0, 81, 70
1, 508481, Control_c, 0, 67, 59
1, 508487, Note_on_c, 0, 77, 51
1, 508489, Note_on_c, 0, 65, 40
1, 508489, Poly_aftertouch_c, 0, 62, 0
1, 508496, Control_c, 0, 67, 47
1, 508508, Note_off_c, 0, 77, 64
1, 508509, Note_off_c, 0, 60, 40
1, 508511, Control_c, 0, 67, 31
1, 508516, Note_off_c, 0, 72, 60
1, 508525, Control_c, 0, 67, 14
1, 508526, Note_off_c, 0, 69, 64
1, 508534, Note_off_c, 0, 65, 57
1, 508540, Control_c, 0, 67, 0
1, 508557, Note_on_c, 0, 72, 56
1, 508577, Note_off_c, 0, 81, 28
1, 508584, Poly_aftertouch_c, 0, 83, 0
1, 508600, Control_c, 0, 64, 103
1, 508614, Note_off_c, 0, 72, 62
1, 508615, Control_c, 0, 64, 66
1, 508629, Control_c, 0, 64, 29
1, 508644, Control_c, 0, 64, 0
1, 508647, Note_on_c, 0, 84, 96
1, 508654, Note_on_c, 0, 74, 99
1, 508655, Note_on_c, 0, 70, 90
1, 508657, Note_on_c, 0, 67, 88
1, 508659, Control_c, 0, 64, 21
1, 508675, Control_c, 0, 64, 62
1, 508689, Control_c, 0, 64, 97
1, 508704, Control_c, 0, 64, 127
1, 508726, Note_off_c, 0, 74, 62
1, 508737, Note_off_c, 0, 70, 61
1, 508744, Note_on_c, 0, 76, 79
1, 508793, Note_off_c, 0, 76, 61
1, 508820, Note_off_c, 0, 67, 0
1, 508827, Note_on_c, 0, 81, 85
1, 508832, Note_on_c, 0, 72, 84
1, 508833, Note_on_c, 0, 67, 50
1, 508833, Note_on_c, 0, 74, 83
1, 508849, Note_on_c, 0, 64, 76
1, 508851, Note_on_c, 0, 70, 78
1, 508868, Note_off_c, 0, 84, 0
1, 508868, Note_on_c, 0, 84, 16
1, 508892, Note_off_c, 0, 84, 51
1, 508893, Note_off_c, 0, 72, 64
1, 508895, Note_off_c, 0, 74, 63
1, 508903, Note_off_c, 0, 70, 56
1, 508909, Note_off_c, 0, 64, 61
1, 508931, Note_on_c, 0, 76, 76
1, 508964, Note_off_c, 0, 67, 36
1, 508977, Note_off_c, 0, 81, 60
1, 508982, Note_off_c, 0, 76, 63
1, 509008, Control_c, 0, 64, 84
1, 509023, Note_on_c, 0, 79, 91
1, 509023, Control_c, 0, 64, 66
1, 509029, Note_on_c, 0, 74, 101
1, 509029, Note_on_c, 0, 72, 92
1, 509030, Note_on_c, 0, 70, 86
1, 509032, Note_on_c, 0, 62, 90
1, 509037, Note_on_c, 0, 67, 81
1, 509038, Control_c, 0, 64, 62
1, 509052, Control_c, 0, 64, 71
1, 509067, Control_c, 0, 64, 108
1, 509082, Control_c, 0, 64, 127
1, 509108, Note_off_c, 0, 62, 61
1, 509112, Note_off_c, 0, 74, 61
1, 509113, Note_off_c, 0, 70, 62
1, 509128, Note_on_c, 0, 76, 85
1, 509129, Note_off_c, 0, 67, 58
1, 509138, Poly_aftertouch_c, 0, 81, 0
1, 509140, Note_off_c, 0, 72, 59
1, 509160, Note_off_c, 0, 79, 63
1, 509181, Note_off_c, 0, 76, 64
1, 509214, Note_on_c, 0, 72, 81
1, 509214, Note_on_c, 0, 74, 89
1, 509217, Note_on_c, 0, 62, 86
1, 509223, Note_on_c, 0, 70, 79
1, 509234, Note_on_c, 0, 67, 73
1, 509273, Note_off_c, 0, 70, 59
1, 509273, Note_off_c, 0, 74, 60
1, 509274, Note_off_c, 0, 62, 60
1, 509279, Note_off_c, 0, 67, 59
1, 509289, Note_off_c, 0, 72, 63
1, 509290, Note_on_c, 0, 76, 79
1, 509324, Note_off_c, 0, 76, 60
1, 509384, Note_on_c, 0, 79, 108
1, 509387, Note_on_c, 0, 74, 88
1, 509387, Note_on_c, 0, 62, 85
1, 509387, Note_on_c, 0, 72, 98
1, 509393, Note_on_c, 0, 70, 81
1, 509398, Note_on_c, 0, 67, 76
1, 509414, Note_on_c, 0, 78, 52
1, 509438, Note_off_c, 0, 78, 61
1, 509453, Note_off_c, 0, 74, 62
1, 509456, Note_off_c, 0, 70, 62
1, 509459, Note_off_c, 0, 62, 62
1, 509464, Note_off_c, 0, 67, 63
1, 509484, Note_on_c, 0, 76, 86
1, 509485, Note_off_c, 0, 72, 61
1, 509512, Note_off_c, 0, 79, 62
1, 509532, Note_off_c, 0, 76, 62
1, 509557, Note_on_c, 0, 74, 79
1, 509559, Note_on_c, 0, 62, 68
1, 509564, Note_on_c, 0, 72, 98
1, 509564, Note_on_c, 0, 81, 98
1, 509566, Note_on_c, 0, 70, 78
1, 509581, Note_on_c, 0, 67, 65
1, 509596, Note_off_c, 0, 62, 50
1, 509631, Note_off_c, 0, 74, 56
1, 509637, Note_off_c, 0, 70, 60
1, 509640, Note_off_c, 0, 67, 58
1, 509660, Note_on_c, 0, 76, 89
1, 509680, Note_off_c, 0, 72, 60
1, 509700, Note_off_c, 0, 81, 63
1, 509703, Note_off_c, 0, 76, 64
1, 509727, Control_c, 0, 64, 104
1, 509742, Control_c, 0, 64, 67
1, 509747, Note_on_c, 0, 79, 102
1, 509751, Note_on_c, 0, 64, 87
1, 509751, Note_on_c, 0, 72, 107
1, 509752, Note_on_c, 0, 74, 98
1, 509757, Control_c, 0, 64, 54
1, 509760, Note_on_c, 0, 70, 78
1, 509762, Note_on_c, 0, 67, 71
1, 509772, Control_c, 0, 64, 58
1, 509786, Control_c, 0, 64, 72
1, 509792, Note_on_c, 0, 65, 42
1, 509801, Control_c, 0, 64, 127
1, 509822, Note_off_c, 0, 65, 56
1, 509836, Note_off_c, 0, 64, 59
1, 509838, Note_off_c, 0, 70, 61
1, 509840, Note_off_c, 0, 74, 55
1, 509850, Note_off_c, 0, 67, 54
1, 509865, Note_off_c, 0, 72, 58
1, 509912, Note_on_c, 0, 67, 53
1, 509921, Note_on_c, 0, 77, 93
1, 509927, Note_off_c, 0, 79, 66
1, 509927, Note_on_c, 0, 72, 85
1, 509949, Note_off_c, 0, 67, 66
1, 509986, Note_off_c, 0, 77, 64
1, 510001, Note_off_c, 0, 72, 62
1, 510092, Note_on_c, 0, 75, 45
1, 510129, Note_off_c, 0, 75, 50
1, 510138, Note_on_c, 0, 32, 56
1, 510171, Note_off_c, 0, 32, 57
1, 510189, Note_on_c, 0, 76, 104
1, 510193, Note_on_c, 0, 67, 107
1, 510200, Note_on_c, 0, 72, 86
1, 510203, Note_on_c, 0, 70, 87
1, 510204, Note_on_c, 0, 36, 99
1, 510207, Poly_aftertouch_c, 0, 30, 127
1, 510210, Note_on_c, 0, 24, 80
1, 510218, Note_on_c, 0, 32, 61
1, 510219, Note_on_c, 0, 27, 39
1, 510227, Note_on_c, 0, 26, 70
1, 510230, Note_on_c, 0, 74, 55
1, 510239, Poly_aftertouch_c, 0, 30, 0
1, 510253, Note_off_c, 0, 32, 62
1, 510257, Note_off_c, 0, 27, 56
1, 510261, Note_off_c, 0, 26, 34
1, 510267, Note_off_c, 0, 74, 54
1, 510280, Note_off_c, 0, 24, 64
1, 510300, Note_off_c, 0, 36, 60
1, 510312, Note_off_c, 0, 67, 61
1, 510321, Note_off_c, 0, 70, 56
1, 510335, Note_off_c, 0, 76, 59
1, 510365, Note_on_c, 0, 29, 37
1, 510389, Note_off_c, 0, 72, 0
1, 510392, Note_on_c, 0, 36, 92
1, 510392, Note_on_c, 0, 74, 94
1, 510403, Note_on_c, 0, 67, 87
1, 510403, Note_on_c, 0, 70, 84
1, 510404, Note_off_c, 0, 29, 44
1, 510407, Note_on_c, 0, 24, 67
1, 510421, Note_off_c, 0, 67, 69
1, 510423, Note_off_c, 0, 70, 69
1, 510427, Poly_aftertouch_c, 0, 72, 0
1, 510438, Note_off_c, 0, 24, 53
1, 510438, Note_off_c, 0, 74, 69
1, 510446, Note_off_c, 0, 36, 62
1, 510492, Poly_aftertouch_c, 0, 65, 0
1, 510507, Note_on_c, 0, 70, 12
1, 510555, Note_off_c, 0, 70, 38
1, 510558, Note_on_c, 0, 90, 53
1, 510561, Poly_aftertouch_c, 0, 67, 0
1, 510581, Note_off_c, 0, 90, 63
1, 510598, Poly_aftertouch_c, 0, 32, 127
1, 510624, Control_c, 0, 64, 76
1, 510631, Note_on_c, 0, 29, 86
1, 510634, Note_on_c, 0, 41, 95
1, 510639, Note_on_c, 0, 36, 65
1, 510639, Control_c, 0, 64, 52
1, 510641, Poly_aftertouch_c, 0, 32, 0
1, 510654, Control_c, 0, 64, 48
1, 510662, Note_off_c, 0, 29, 66
1, 510663, Note_off_c, 0, 36, 58
1, 510666, Note_on_c, 0, 96, 105
1, 510667, Note_on_c, 0, 84, 110
1, 510668, Control_c, 0, 64, 68
1, 510669, Note_on_c, 0, 89, 103
1, 510669, Note_on_c, 0, 93, 87
1, 510681, Note_on_c, 0, 92, 68
1, 510683, Control_c, 0, 64, 127
1, 510684, Note_off_c, 0, 41, 65
1, 510686, Note_on_c, 0, 90, 61
1, 510705, Note_off_c, 0, 90, 38
1, 510719, Note_off_c, 0, 96, 69
1, 510719, Note_on_c, 0, 91, 30
1, 510734, Note_off_c, 0, 93, 65
1, 510735, Note_off_c, 0, 89, 67
1, 510745, Note_off_c, 0, 84, 68
1, 510759, Note_off_c, 0, 91, 46
1, 510762, Poly_aftertouch_c, 0, 40, 0
1, 510779, Note_off_c, 0, 92, 25
1, 510782, Note_on_c, 0, 46, 57
1, 510787, Note_on_c, 0, 49, 56
1, 510816, Note_off_c, 0, 46, 64
1, 510827, Note_off_c, 0, 49, 64
1, 510900, Note_on_c, 0, 55, 74
1, 510901, Note_on_c, 0, 84, 92
1, 510910, Note_on_c, 0, 81, 93
1, 510916, Note_on_c, 0, 77, 82
1, 510928, Note_off_c, 0, 55, 65
1, 510947, Poly_aftertouch_c, 0, 43, 127
1, 510991, Note_off_c, 0, 77, 62
1, 510995, Poly_aftertouch_c, 0, 43, 0
1, 511044, Note_off_c, 0, 84, 50
1, 511100, Note_on_c, 0, 79, 87
1, 511103, Note_on_c, 0, 76, 99
1, 511107, Note_on_c, 0, 72, 96
1, 511114, Note_on_c, 0, 70, 65
1, 511118, Note_on_c, 0, 64, 63
1, 511125, Note_off_c, 0, 81, 65
1, 511128, Note_on_c, 0, 68, 30
1, 511131, Note_off_c, 0, 70, 65
1, 511145, Note_on_c, 0, 63, 43
1, 511146, Note_off_c, 0, 64, 67
1, 511149, Note_off_c, 0, 76, 65
1, 511152, Note_off_c, 0, 79, 66
1, 511153, Note_off_c, 0, 72, 63
1, 511154, Note_on_c, 0, 74, 10
1, 511156, Note_on_c, 0, 71, 16
1, 511163, Note_off_c, 0, 68, 55
1, 511174, Note_off_c, 0, 63, 57
1, 511198, Note_off_c, 0, 71, 38
1, 511199, Note_off_c, 0, 74, 50
1, 511272, Note_on_c, 0, 53, 91
1, 511277, Note_on_c, 0, 41, 94
1, 511278, Note_on_c, 0, 79, 97
1, 511283, Note_on_c, 0, 69, 99
1, 511292, Note_on_c, 0, 78, 75
1, 511295, Note_off_c, 0, 53, 68
1, 511305, Note_off_c, 0, 69, 70
1, 511306, Note_off_c, 0, 41, 67
1, 511309, Note_off_c, 0, 78, 68
1, 511311, Note_on_c, 0, 81, 35
1, 511312, Note_off_c, 0, 81, 127
1, 511325, Note_off_c, 0, 79, 66
1, 511409, Note_on_c, 0, 80, 37
1, 511438, Note_off_c, 0, 80, 50
1, 511446, Control_c, 0, 64, 99
1, 511461, Control_c, 0, 64, 54
1, 511476, Control_c, 0, 64, 0
1, 511480, Note_on_c, 0, 28, 91
1, 511480, Note_on_c, 0, 40, 95
1, 511491, Note_on_c, 0, 82, 97
1, 511495, Note_on_c, 0, 72, 106
1, 511496, Note_on_c, 0, 77, 94
1, 511503, Note_on_c, 0, 81, 89
1, 511506, Control_c, 0, 64, 43
1, 511520, Control_c, 0, 64, 96
1, 511525, Note_off_c, 0, 28, 65
1, 511531, Note_on_c, 0, 80, 48
1, 511532, Note_off_c, 0, 80, 127
1, 511535, Control_c, 0, 64, 127
1, 511542, Note_off_c, 0, 40, 63
1, 511606, Note_off_c, 0, 81, 56
1, 511615, Note_off_c, 0, 77, 62
1, 511626, Note_off_c, 0, 72, 56
1, 511644, Note_off_c, 0, 82, 63
1, 511670, Note_on_c, 0, 81, 78
1, 511670, Note_on_c, 0, 72, 76
1, 511672, Note_on_c, 0, 50, 71
1, 511673, Note_on_c, 0, 77, 77
1, 511677, Note_on_c, 0, 48, 64
1, 511684, Note_on_c, 0, 38, 46
1, 511691, Note_off_c, 0, 50, 65
1, 511695, Note_off_c, 0, 77, 70
1, 511697, Note_off_c, 0, 72, 66
1, 511701, Note_off_c, 0, 48, 58
1, 511712, Note_off_c, 0, 81, 67
1, 511718, Note_off_c, 0, 38, 54
1, 511775, Poly_aftertouch_c, 0, 36, 0
1, 511859, Note_on_c, 0, 60, 86
1, 511859, Note_on_c, 0, 93, 107
1, 511860, Note_on_c, 0, 72, 88
1, 511864, Note_on_c, 0, 81, 108
1, 511879, Note_on_c, 0, 71, 60
1, 511884, Note_off_c, 0, 72, 69
1, 511891, Note_off_c, 0, 60, 62
1, 511898, Note_off_c, 0, 71, 63
1, 511900, Note_on_c, 0, 69, 25
1, 511909, Note_off_c, 0, 81, 60
1, 511920, Note_off_c, 0, 93, 55
1, 511935, Note_off_c, 0, 69, 56
1, 512041, Note_on_c, 0, 35, 94
1, 512046, Note_on_c, 0, 48, 80
1, 512046, Note_on_c, 0, 91, 98
1, 512046, Note_on_c, 0, 47, 81
1, 512046, Note_on_c, 0, 79, 104
1, 512062, Control_c, 0, 64, 98
1, 512064, Note_off_c, 0, 35, 65
1, 512067, Note_off_c, 0, 47, 68
1, 512068, Note_off_c, 0, 48, 68
1, 512076, Control_c, 0, 64, 77
1, 512086, Note_off_c, 0, 91, 62
1, 512091, Control_c, 0, 64, 64
1, 512106, Control_c, 0, 64, 52
1, 512112, Note_off_c, 0, 79, 50
1, 512121, Control_c, 0, 64, 13
1, 512136, Control_c, 0, 64, 0
1, 512148, Poly_aftertouch_c, 0, 36, 0
1, 512225, Control_c, 0, 64, 52
1, 512236, Note_on_c, 0, 53, 105
1, 512239, Note_on_c, 0, 89, 98
1, 512240, Note_on_c, 0, 41, 95
1, 512240, Control_c, 0, 64, 127
1, 512240, Note_on_c, 0, 77, 105
1, 512242, Note_on_c, 0, 81, 96
1, 512252, Note_on_c, 0, 84, 68
1, 512264, Note_on_c, 0, 86, 59
1, 512266, Note_off_c, 0, 41, 68
1, 512267, Note_off_c, 0, 84, 66
1, 512274, Note_off_c, 0, 53, 65
1, 512279, Note_off_c, 0, 81, 66
1, 512281, Note_off_c, 0, 89, 67
1, 512282, Note_off_c, 0, 86, 64
1, 512291, Note_off_c, 0, 77, 64
1, 512419, Note_on_c, 0, 69, 82
1, 512419, Note_on_c, 0, 72, 93
1, 512420, Note_on_c, 0, 84, 80
1, 512422, Note_on_c, 0, 60, 66
1, 512429, Note_on_c, 0, 83, 55
1, 512430, Note_on_c, 0, 65, 64
1, 512433, Note_on_c, 0, 81, 62
1, 512435, Note_on_c, 0, 76, 59
1, 512443, Note_on_c, 0, 77, 54
1, 512452, Note_off_c, 0, 83, 54
1, 512456, Note_off_c, 0, 76, 60
1, 512459, Note_off_c, 0, 77, 67
1, 512460, Note_on_c, 0, 79, 38
1, 512463, Note_off_c, 0, 65, 61
1, 512465, Note_off_c, 0, 81, 48
1, 512469, Note_off_c, 0, 84, 57
1, 512476, Note_off_c, 0, 60, 62
1, 512480, Note_off_c, 0, 69, 66
1, 512490, Note_off_c, 0, 79, 56
1, 512502, Note_off_c, 0, 72, 60
1, 512594, Note_on_c, 0, 79, 88
1, 512599, Note_on_c, 0, 70, 100
1, 512600, Note_on_c, 0, 76, 87
1, 512601, Note_on_c, 0, 72, 97
1, 512607, Note_on_c, 0, 67, 77
1, 512610, Note_on_c, 0, 62, 87
1, 512622, Note_on_c, 0, 68, 55
1, 512622, Note_off_c, 0, 70, 67
1, 512627, Note_off_c, 0, 67, 68
1, 512640, Note_off_c, 0, 76, 63
1, 512640, Note_off_c, 0, 79, 65
1, 512643, Note_off_c, 0, 68, 63
1, 512645, Note_off_c, 0, 62, 66
1, 512646, Note_off_c, 0, 72, 61
1, 512678, Control_c, 0, 64, 71
1, 512692, Control_c, 0, 64, 0
1, 512796, Control_c, 0, 64, 53
1, 512798, Note_on_c, 0, 41, 93
1, 512799, Note_on_c, 0, 72, 87
1, 512800, Note_on_c, 0, 79, 98
1, 512801, Note_on_c, 0, 70, 94
1, 512803, Note_on_c, 0, 29, 91
1, 512803, Note_on_c, 0, 76, 87
1, 512810, Control_c, 0, 64, 56
1, 512825, Control_c, 0, 64, 48
1, 512836, Note_off_c, 0, 29, 65
1, 512838, Note_on_c, 0, 30, 30
1, 512840, Control_c, 0, 64, 34
1, 512845, Note_off_c, 0, 72, 65
1, 512853, Note_off_c, 0, 70, 64
1, 512855, Note_off_c, 0, 41, 61
1, 512855, Control_c, 0, 64, 0
1, 512857, Note_off_c, 0, 79, 64
1, 512858, Note_off_c, 0, 76, 65
1, 512881, Note_off_c, 0, 30, 31
1, 512893, Poly_aftertouch_c, 0, 78, 0
1, 513023, Note_on_c, 0, 28, 90
1, 513024, Note_on_c, 0, 40, 102
1, 513027, Note_on_c, 0, 33, 45
1, 513033, Control_c, 0, 64, 43
1, 513045, Note_on_c, 0, 84, 88
1, 513046, Note_off_c, 0, 28, 69
1, 513048, Note_on_c, 0, 77, 88
1, 513048, Control_c, 0, 64, 127
1, 513051, Note_on_c, 0, 72, 101
1, 513052, Note_on_c, 0, 81, 91
1, 513058, Note_on_c, 0, 31, 31
1, 513059, Note_on_c, 0, 29, 39
1, 513059, Note_off_c, 0, 33, 61
1, 513071, Note_off_c, 0, 40, 67
1, 513073, Note_on_c, 0, 80, 70
1, 513087, Note_on_c, 0, 78, 37
1, 513098, Note_off_c, 0, 29, 51
1, 513104, Note_off_c, 0, 31, 52
1, 513107, Note_off_c, 0, 80, 47
1, 513119, Note_off_c, 0, 78, 38
1, 513145, Note_off_c, 0, 84, 66
1, 513148, Note_off_c, 0, 81, 64
1, 513152, Note_off_c, 0, 77, 65
1, 513157, Note_off_c, 0, 72, 59
1, 513215, Note_on_c, 0, 72, 83
1, 513217, Note_on_c, 0, 67, 76
1, 513218, Note_on_c, 0, 62, 78
1, 513219, Note_on_c, 0, 84, 85
1, 513220, Note_on_c, 0, 77, 74
1, 513225, Note_on_c, 0, 69, 74
1, 513233, Note_on_c, 0, 60, 65
1, 513244, Note_off_c, 0, 67, 66
1, 513246, Note_off_c, 0, 77, 69
1, 513249, Note_off_c, 0, 62, 69
1, 513250, Note_off_c, 0, 69, 68
1, 513252, Note_off_c, 0, 84, 58
1, 513255, Note_off_c, 0, 60, 59
1, 513262, Note_off_c, 0, 72, 62
1, 513280, Note_on_c, 0, 81, 12
1, 513346, Note_off_c, 0, 81, 34
1, 513366, Control_c, 0, 64, 71
1, 513381, Control_c, 0, 64, 30
1, 513396, Control_c, 0, 64, 0
1, 513412, Note_on_c, 0, 82, 76
1, 513414, Note_on_c, 0, 43, 100
1, 513415, Note_on_c, 0, 84, 90
1, 513416, Note_on_c, 0, 31, 94
1, 513420, Note_on_c, 0, 72, 91
1, 513422, Note_on_c, 0, 79, 91
1, 513423, Note_on_c, 0, 83, 81
1, 513426, Note_on_c, 0, 74, 77
1, 513426, Control_c, 0, 64, 63
1, 513441, Control_c, 0, 64, 127
1, 513441, Note_on_c, 0, 80, 56
1, 513443, Note_off_c, 0, 31, 69
1, 513447, Note_off_c, 0, 43, 66
1, 513453, Note_off_c, 0, 74, 57
1, 513462, Note_off_c, 0, 84, 65
1, 513465, Note_off_c, 0, 80, 60
1, 513466, Note_off_c, 0, 72, 63
1, 513466, Note_off_c, 0, 79, 67
1, 513478, Note_off_c, 0, 82, 66
1, 513492, Note_off_c, 0, 83, 32
1, 513501, Control_c, 0, 64, 73
1, 513516, Control_c, 0, 64, 33
1, 513522, Poly_aftertouch_c, 0, 33, 0
1, 513530, Control_c, 0, 64, 0
1, 513593, Note_on_c, 0, 79, 74
1, 513596, Note_on_c, 0, 52, 109
1, 513601, Note_on_c, 0, 40, 96
1, 513604, Note_on_c, 0, 70, 95
1, 513604, Note_on_c, 0, 74, 82
1, 513613, Note_on_c, 0, 81, 76
1, 513621, Note_on_c, 0, 42, 65
1, 513623, Note_on_c, 0, 80, 44
1, 513623, Note_on_c, 0, 77, 62
1, 513644, Note_off_c, 0, 40, 64
1, 513647, Note_off_c, 0, 42, 61
1, 513647, Note_off_c, 0, 52, 63
1, 513649, Note_off_c, 0, 81, 59
1, 513651, Note_off_c, 0, 70, 64
1, 513651, Note_off_c, 0, 77, 67
1, 513651, Note_off_c, 0, 74, 64
1, 513654, Note_off_c, 0, 80, 61
1, 513667, Note_off_c, 0, 79, 66
1, 513794, Note_on_c, 0, 50, 109
1, 513799, Note_on_c, 0, 38, 94
1, 513805, Note_on_c, 0, 77, 98
1, 513805, Note_on_c, 0, 86, 91
1, 513807, Note_on_c, 0, 72, 94
1, 513811, Note_on_c, 0, 84, 83
1, 513812, Control_c, 0, 64, 77
1, 513814, Note_on_c, 0, 81, 83
1, 513827, Control_c, 0, 64, 127
1, 513840, Note_on_c, 0, 80, 44
1, 513840, Note_off_c, 0, 38, 62
1, 513849, Note_off_c, 0, 50, 67
1, 513851, Note_on_c, 0, 83, 34
1, 513852, Note_off_c, 0, 83, 127
1, 513876, Note_off_c, 0, 80, 32
1, 513894, Note_off_c, 0, 72, 63
1, 513905, Note_off_c, 0, 81, 57
1, 513906, Note_off_c, 0, 84, 63
1, 513912, Note_off_c, 0, 77, 57
1, 513917, Note_off_c, 0, 86, 64
1, 513973, Note_on_c, 0, 65, 80
1, 513974, Note_on_c, 0, 62, 80
1, 513975, Note_on_c, 0, 77, 83
1, 513976, Note_on_c, 0, 72, 83
1, 513980, Note_on_c, 0, 69, 64
1, 513980, Note_on_c, 0, 86, 68
1, 513989, Note_on_c, 0, 81, 70
1, 513991, Note_on_c, 0, 84, 75
1, 513994, Note_on_c, 0, 67, 54
1, 513998, Note_on_c, 0, 85, 48
1, 514006, Note_off_c, 0, 65, 62
1, 514012, Note_off_c, 0, 69, 67
1, 514018, Note_off_c, 0, 67, 58
1, 514018, Note_off_c, 0, 81, 69
1, 514028, Note_off_c, 0, 62, 64
1, 514029, Note_off_c, 0, 72, 61
1, 514031, Note_off_c, 0, 77, 65
1, 514060, Note_off_c, 0, 84, 64
1, 514070, Poly_aftertouch_c, 0, 71, 0
1, 514091, Note_off_c, 0, 86, 37
1, 514097, Note_off_c, 0, 85, 39
1, 514101, Note_on_c, 0, 68, 60
1, 514156, Note_on_c, 0, 62, 87
1, 514159, Note_on_c, 0, 72, 99
1, 514162, Note_on_c, 0, 70, 92
1, 514162, Note_on_c, 0, 86, 88
1, 514166, Note_on_c, 0, 74, 102
1, 514166, Note_on_c, 0, 84, 85
1, 514169, Note_on_c, 0, 67, 74
1, 514174, Note_on_c, 0, 79, 87
1, 514178, Note_on_c, 0, 82, 85
1, 514187, Note_on_c, 0, 80, 65
1, 514189, Note_off_c, 0, 72, 64
1, 514193, Note_off_c, 0, 67, 67
1, 514193, Note_off_c, 0, 68, 56
1, 514195, Note_off_c, 0, 70, 67
1, 514210, Note_on_c, 0, 65, 20
1, 514210, Note_off_c, 0, 62, 67
1, 514248, Note_off_c, 0, 82, 64
1, 514250, Note_off_c, 0, 80, 28
1, 514251, Note_off_c, 0, 65, 41
1, 514258, Note_off_c, 0, 79, 65
1, 514260, Note_off_c, 0, 74, 61
1, 514316, Note_off_c, 0, 84, 0
1, 514337, Note_on_c, 0, 84, 38
1, 514344, Note_on_c, 0, 82, 78
1, 514344, Note_on_c, 0, 26, 86
1, 514344, Note_on_c, 0, 38, 82
1, 514347, Note_on_c, 0, 74, 70
1, 514348, Note_on_c, 0, 36, 80
1, 514355, Note_on_c, 0, 79, 66
1, 514357, Note_off_c, 0, 86, 59
1, 514366, Note_on_c, 0, 27, 47
1, 514367, Note_off_c, 0, 84, 55
1, 514374, Note_off_c, 0, 79, 65
1, 514379, Note_on_c, 0, 24, 28
1, 514382, Note_off_c, 0, 82, 56
1, 514392, Note_off_c, 0, 36, 48
1, 514396, Note_off_c, 0, 74, 52
1, 514409, Note_off_c, 0, 27, 42
1, 514409, Note_off_c, 0, 38, 40
1, 514418, Note_off_c, 0, 26, 59
1, 514422, Note_off_c, 0, 24, 46
1, 514486, Control_c, 0, 64, 103
1, 514501, Control_c, 0, 64, 63
1, 514515, Control_c, 0, 64, 0
1, 514535, Poly_aftertouch_c, 0, 32, 0
1, 514537, Note_on_c, 0, 84, 97
1, 514539, Note_on_c, 0, 72, 104
1, 514539, Note_on_c, 0, 81, 93
1, 514541, Note_on_c, 0, 28, 87
1, 514543, Note_on_c, 0, 77, 93
1, 514544, Note_on_c, 0, 40, 99
1, 514545, Note_on_c, 0, 26, 93
1, 514545, Control_c, 0, 64, 38
1, 514550, Note_on_c, 0, 38, 82
1, 514560, Control_c, 0, 64, 68
1, 514562, Poly_aftertouch_c, 0, 30, 0
1, 514568, Note_off_c, 0, 26, 66
1, 514575, Control_c, 0, 64, 127
1, 514583, Note_off_c, 0, 84, 67
1, 514590, Note_off_c, 0, 81, 65
1, 514595, Note_off_c, 0, 28, 64
1, 514597, Note_off_c, 0, 38, 54
1, 514600, Note_off_c, 0, 77, 67
1, 514611, Note_off_c, 0, 40, 64
1, 514611, Note_off_c, 0, 72, 63
1, 514630, Poly_aftertouch_c, 0, 31, 127
1, 514654, Note_on_c, 0, 26, 14
1, 514665, Poly_aftertouch_c, 0, 31, 0
1, 514696, Note_off_c, 0, 26, 36
1, 514709, Note_on_c, 0, 72, 83
1, 514710, Note_on_c, 0, 69, 84
1, 514712, Note_on_c, 0, 38, 78
1, 514714, Note_on_c, 0, 50, 77
1, 514717, Note_on_c, 0, 48, 76
1, 514721, Note_on_c, 0, 65, 61
1, 514731, Note_off_c, 0, 69, 70
1, 514738, Note_off_c, 0, 72, 66
1, 514740, Note_off_c, 0, 50, 68
1, 514741, Note_off_c, 0, 65, 65
1, 514741, Note_off_c, 0, 38, 64
1, 514744, Note_off_c, 0, 48, 67
1, 514800, Note_on_c, 0, 69, 26
1, 514839, Note_off_c, 0, 69, 51
1, 514888, Note_on_c, 0, 45, 81
1, 514893, Note_on_c, 0, 33, 69
1, 514898, Note_on_c, 0, 96, 109
1, 514902, Note_on_c, 0, 84, 99
1, 514925, Note_off_c, 0, 84, 68
1, 514929, Note_off_c, 0, 96, 68
1, 514931, Note_off_c, 0, 33, 64
1, 514937, Note_off_c, 0, 45, 64
1, 515027, Control_c, 0, 64, 83
1, 515042, Control_c, 0, 64, 39
1, 515057, Control_c, 0, 64, 0
1, 515084, Note_on_c, 0, 28, 78
1, 515085, Note_on_c, 0, 40, 96
1, 515085, Note_on_c, 0, 93, 101
1, 515088, Note_on_c, 0, 81, 103
1, 515101, Control_c, 0, 64, 50
1, 515116, Control_c, 0, 64, 74
1, 515119, Note_off_c, 0, 28, 66
1, 515123, Note_off_c, 0, 93, 67
1, 515126, Note_off_c, 0, 81, 66
1, 515131, Control_c, 0, 64, 127
1, 515140, Note_off_c, 0, 40, 64
1, 515191, Control_c, 0, 64, 122
1, 515205, Control_c, 0, 64, 74
1, 515220, Control_c, 0, 64, 47
1, 515235, Control_c, 0, 64, 0
1, 515292, Note_on_c, 0, 50, 104
1, 515293, Note_on_c, 0, 91, 96
1, 515294, Note_on_c, 0, 81, 94
1, 515296, Note_on_c, 0, 77, 94
1, 515298, Note_on_c, 0, 38, 96
1, 515309, Control_c, 0, 64, 87
1, 515310, Note_on_c, 0, 89, 56
1, 515313, Note_on_c, 0, 84, 64
1, 515324, Control_c, 0, 64, 127
1, 515335, Note_on_c, 0, 83, 52
1, 515337, Note_off_c, 0, 50, 69
1, 515343, Note_off_c, 0, 38, 65
1, 515352, Note_off_c, 0, 89, 0
1, 515364, Note_off_c, 0, 83, 56
1, 515366, Note_on_c, 0, 87, 5
1, 515379, Note_off_c, 0, 77, 63
1, 515388, Note_off_c, 0, 81, 62
1, 515390, Poly_aftertouch_c, 0, 89, 127
1, 515398, Note_off_c, 0, 87, 0
1, 515399, Note_off_c, 0, 84, 0
1, 515401, Note_off_c, 0, 91, 63
1, 515416, Poly_aftertouch_c, 0, 87, 0
1, 515420, Poly_aftertouch_c, 0, 84, 0
1, 515425, Poly_aftertouch_c, 0, 89, 0
1, 515471, Note_on_c, 0, 85, 51
1, 515496, Note_off_c, 0, 85, 57
1, 515519, Note_on_c, 0, 38, 100
1, 515521, Note_on_c, 0, 36, 93
1, 515522, Note_on_c, 0, 26, 92
1, 515529, Note_on_c, 0, 24, 75
1, 515543, Note_off_c, 0, 36, 67
1, 515546, Note_off_c, 0, 26, 65
1, 515555, Note_off_c, 0, 38, 65
1, 515566, Note_off_c, 0, 24, 53
1, 515596, Note_on_c, 0, 27, 1
1, 515641, Note_off_c, 0, 27, 37
1, 515661, Note_on_c, 0, 36, 2
1, 515678, Note_off_c, 0, 36, 0
1, 515700, Poly_aftertouch_c, 0, 36, 0
1, 515739, Note_on_c, 0, 82, 99
1, 515739, Note_on_c, 0, 91, 98
1, 515740, Note_on_c, 0, 79, 104
1, 515741, Note_on_c, 0, 86, 95
1, 515742, Note_on_c, 0, 62, 97
1, 515742, Note_on_c, 0, 72, 96
1, 515743, Note_on_c, 0, 74, 87
1, 515744, Note_on_c, 0, 70, 89
1, 515763, Note_off_c, 0, 74, 72
1, 515763, Note_off_c, 0, 70, 70
1, 515765, Note_off_c, 0, 72, 68
1, 515775, Note_on_c, 0, 88, 43
1, 515778, Note_off_c, 0, 62, 65
1, 515799, Note_off_c, 0, 88, 60
1, 515888, Note_off_c, 0, 82, 61
1, 515897, Poly_aftertouch_c, 0, 74, 0
1, 515897, Note_off_c, 0, 91, 53
1, 515912, Note_off_c, 0, 79, 61
1, 515913, Note_off_c, 0, 86, 57
1, 515924, Control_c, 0, 64, 87
1, 515939, Control_c, 0, 64, 27
1, 515954, Control_c, 0, 64, 0
1, 515969, Note_on_c, 0, 50, 100
1, 515969, Note_on_c, 0, 93, 105
1, 515972, Note_on_c, 0, 38, 87
1, 515973, Note_on_c, 0, 79, 99
1, 515983, Note_on_c, 0, 90, 93
1, 515984, Control_c, 0, 64, 31
1, 515986, Note_on_c, 0, 81, 82
1, 515999, Control_c, 0, 64, 74
1, 516001, Note_off_c, 0, 90, 73
1, 516004, Note_off_c, 0, 81, 41
1, 516013, Note_off_c, 0, 50, 67
1, 516014, Note_off_c, 0, 38, 64
1, 516014, Control_c, 0, 64, 127
1, 516049, Note_off_c, 0, 93, 60
1, 516176, Control_c, 0, 64, 100
1, 516191, Note_off_c, 0, 79, 58
1, 516191, Control_c, 0, 64, 51
1, 516194, Poly_aftertouch_c, 0, 91, 127
1, 516206, Control_c, 0, 64, 0
1, 516218, Poly_aftertouch_c, 0, 91, 0
1, 516229, Note_on_c, 0, 40, 101
1, 516234, Note_on_c, 0, 28, 95
1, 516265, Control_c, 0, 64, 81
1, 516268, Note_on_c, 0, 91, 102
1, 516270, Note_on_c, 0, 79, 107
1, 516273, Note_on_c, 0, 82, 96
1, 516275, Note_on_c, 0, 86, 96
1, 516277, Note_on_c, 0, 84, 85
1, 516280, Control_c, 0, 64, 127
1, 516290, Note_on_c, 0, 85, 70
1, 516292, Note_off_c, 0, 28, 66
1, 516299, Note_off_c, 0, 79, 68
1, 516299, Note_off_c, 0, 91, 69
1, 516300, Note_off_c, 0, 84, 70
1, 516303, Note_off_c, 0, 85, 70
1, 516310, Note_off_c, 0, 82, 65
1, 516311, Note_off_c, 0, 86, 67
1, 516332, Note_off_c, 0, 40, 64
1, 516541, Note_on_c, 0, 61, 93
1, 516547, Note_on_c, 0, 49, 81
1, 516616, Note_off_c, 0, 61, 63
1, 516625, Note_off_c, 0, 49, 61
1, 516631, Poly_aftertouch_c, 0, 53, 0
1, 516702, Note_on_c, 0, 48, 83
1, 516703, Note_on_c, 0, 60, 84
1, 516750, Note_off_c, 0, 60, 62
1, 516751, Note_off_c, 0, 48, 65
1, 516800, Note_on_c, 0, 69, 90
1, 516803, Note_on_c, 0, 71, 92
1, 516821, Note_on_c, 0, 72, 76
1, 516825, Note_on_c, 0, 47, 87
1, 516826, Note_on_c, 0, 59, 88
1, 516831, Note_off_c, 0, 69, 67
1, 516855, Note_off_c, 0, 71, 65
1, 516859, Note_off_c, 0, 59, 65
1, 516869, Note_on_c, 0, 74, 78
1, 516870, Note_off_c, 0, 47, 65
1, 516884, Note_off_c, 0, 72, 65
1, 516890, Note_on_c, 0, 76, 87
1, 516904, Note_off_c, 0, 74, 64
1, 516910, Note_on_c, 0, 77, 82
1, 516917, Note_off_c, 0, 76, 62
1, 516928, Note_on_c, 0, 79, 87
1, 516929, Note_off_c, 0, 77, 71
1, 516944, Note_on_c, 0, 81, 87
1, 516947, Note_off_c, 0, 79, 71
1, 516960, Note_on_c, 0, 58, 77
1, 516960, Note_on_c, 0, 83, 97
1, 516962, Note_on_c, 0, 46, 76
1, 516964, Note_off_c, 0, 81, 69
1, 516976, Note_on_c, 0, 84, 94
1, 516979, Note_off_c, 0, 83, 67
1, 516991, Note_on_c, 0, 86, 98
1, 516994, Note_off_c, 0, 58, 64
1, 516994, Note_off_c, 0, 84, 72
1, 517004, Note_on_c, 0, 77, 11
1, 517006, Note_on_c, 0, 88, 95
1, 517009, Note_on_c, 0, 79, 32
1, 517010, Note_off_c, 0, 79, 127
1, 517014, Note_off_c, 0, 86, 64
1, 517016, Note_off_c, 0, 77, 43
1, 517022, Note_on_c, 0, 89, 95
1, 517024, Note_on_c, 0, 81, 25
1, 517025, Note_off_c, 0, 81, 127
1, 517025, Note_off_c, 0, 46, 62
1, 517033, Note_off_c, 0, 88, 66
1, 517039, Note_on_c, 0, 91, 96
1, 517042, Note_on_c, 0, 83, 25
1, 517043, Note_off_c, 0, 83, 127
1, 517051, Note_off_c, 0, 89, 63
1, 517056, Note_on_c, 0, 93, 92
1, 517064, Note_on_c, 0, 84, 25
1, 517073, Note_off_c, 0, 91, 66
1, 517074, Note_on_c, 0, 95, 93
1, 517096, Note_off_c, 0, 84, 51
1, 517098, Note_off_c, 0, 93, 68
1, 517101, Note_on_c, 0, 96, 94
1, 517116, Note_off_c, 0, 95, 65
1, 517118, Note_on_c, 0, 98, 95
1, 517131, Note_off_c, 0, 96, 61
1, 517136, Note_on_c, 0, 100, 95
1, 517151, Note_off_c, 0, 98, 62
1, 517157, Note_on_c, 0, 101, 90
1, 517158, Note_off_c, 0, 100, 67
1, 517175, Note_off_c, 0, 101, 73
1, 517178, Note_on_c, 0, 103, 88
1, 517198, Note_off_c, 0, 103, 72
1, 517212, Note_on_c, 0, 105, 59
1, 517233, Note_off_c, 0, 105, 62
1, 517240, Poly_aftertouch_c, 0, 34, 127
1, 517279, Poly_aftertouch_c, 0, 34, 0
1, 517289, Control_c, 0, 64, 75
1, 517303, Control_c, 0, 64, 0
1, 517355, Note_on_c, 0, 34, 95
1, 517356, Note_on_c, 0, 42, 106
1, 517358, Note_on_c, 0, 30, 91
1, 517358, Note_on_c, 0, 98, 100
1, 517360, Note_on_c, 0, 91, 101
1, 517363, Control_c, 0, 64, 33
1, 517364, Note_on_c, 0, 100, 92
1, 517367, Note_on_c, 0, 103, 86
1, 517372, Note_on_c, 0, 105, 83
1, 517377, Control_c, 0, 64, 116
1, 517384, Note_on_c, 0, 33, 59
1, 517392, Control_c, 0, 64, 127
1, 517393, Note_off_c, 0, 105, 70
1, 517423, Note_off_c, 0, 33, 46
1, 517457, Poly_aftertouch_c, 0, 32, 127
1, 517487, Poly_aftertouch_c, 0, 32, 0
1, 517513, Note_off_c, 0, 91, 58
1, 517513, Note_off_c, 0, 30, 63
1, 517518, Note_off_c, 0, 103, 55
1, 517546, Note_off_c, 0, 34, 62
1, 517553, Note_off_c, 0, 42, 60
1, 517567, Note_on_c, 0, 97, 101
1, 517567, Note_off_c, 0, 100, 0
1, 517596, Note_off_c, 0, 98, 65
1, 517607, Poly_aftertouch_c, 0, 100, 0
1, 517674, Note_off_c, 0, 97, 65
1, 517701, Note_on_c, 0, 96, 107
1, 517728, Note_on_c, 0, 98, 47
1, 517729, Note_off_c, 0, 98, 127
1, 517767, Note_off_c, 0, 96, 67
1, 517818, Note_on_c, 0, 95, 99
1, 517902, Note_off_c, 0, 95, 65
1, 517929, Note_on_c, 0, 94, 102
1, 517975, Note_off_c, 0, 94, 66
1, 518058, Note_on_c, 0, 79, 110
1, 518059, Note_on_c, 0, 91, 97
1, 518061, Note_on_c, 0, 86, 93
1, 518066, Note_on_c, 0, 66, 91
1, 518068, Note_on_c, 0, 78, 102
1, 518068, Note_on_c, 0, 88, 81
1, 518073, Note_on_c, 0, 70, 97
1, 518111, Note_on_c, 0, 89, 13
1, 518112, Note_off_c, 0, 89, 127
1, 518123, Note_off_c, 0, 78, 67
1, 518133, Note_off_c, 0, 66, 64
1, 518147, Note_off_c, 0, 70, 64
1, 518181, Note_off_c, 0, 91, 52
1, 518196, Note_off_c, 0, 79, 56
1, 518232, Note_on_c, 0, 85, 94
1, 518255, Note_off_c, 0, 88, 29
1, 518259, Note_off_c, 0, 86, 64
1, 518337, Note_off_c, 0, 85, 64
1, 518354, Note_on_c, 0, 84, 98
1, 518417, Note_off_c, 0, 84, 67
1, 518465, Note_on_c, 0, 83, 84
1, 518480, Note_on_c, 0, 81, 67
1, 518563, Note_off_c, 0, 83, 63
1, 518568, Note_on_c, 0, 82, 96
1, 518586, Note_off_c, 0, 81, 23
1, 518619, Note_off_c, 0, 82, 68
1, 518625, Poly_aftertouch_c, 0, 30, 0
1, 518637, Control_c, 0, 64, 124
1, 518652, Poly_aftertouch_c, 0, 30, 0
1, 518652, Control_c, 0, 64, 57
1, 518667, Control_c, 0, 64, 0
1, 518703, Note_on_c, 0, 40, 104
1, 518703, Note_on_c, 0, 79, 95
1, 518705, Note_on_c, 0, 67, 102
1, 518706, Note_on_c, 0, 74, 89
1, 518706, Note_on_c, 0, 28, 98
1, 518708, Note_on_c, 0, 31, 88
1, 518711, Control_c, 0, 64, 59
1, 518714, Note_on_c, 0, 76, 85
1, 518726, Control_c, 0, 64, 103
1, 518741, Control_c, 0, 64, 127
1, 518753, Note_on_c, 0, 29, 37
1, 518797, Note_off_c, 0, 29, 39
1, 518816, Note_off_c, 0, 67, 55
1, 518822, Poly_aftertouch_c, 0, 77, 0
1, 518825, Poly_aftertouch_c, 0, 33, 0
1, 518866, Note_on_c, 0, 73, 95
1, 518878, Note_off_c, 0, 76, 58
1, 518893, Note_off_c, 0, 74, 65
1, 518900, Note_off_c, 0, 79, 21
1, 518918, Note_off_c, 0, 28, 50
1, 518962, Note_off_c, 0, 73, 63
1, 518982, Note_on_c, 0, 72, 99
1, 519030, Note_off_c, 0, 40, 51
1, 519036, Note_off_c, 0, 31, 62
1, 519039, Note_off_c, 0, 72, 65
1, 519092, Note_on_c, 0, 71, 91
1, 519182, Note_off_c, 0, 71, 61
1, 519203, Note_on_c, 0, 70, 100
1, 519245, Note_off_c, 0, 70, 68
1, 519341, Note_on_c, 0, 55, 104
1, 519343, Note_on_c, 0, 67, 93
1, 519345, Note_on_c, 0, 62, 90
1, 519348, Note_on_c, 0, 54, 105
1, 519352, Note_on_c, 0, 42, 91
1, 519354, Note_on_c, 0, 46, 96
1, 519354, Note_on_c, 0, 64, 78
1, 519383, Note_on_c, 0, 47, 60
1, 519403, Note_off_c, 0, 42, 62
1, 519412, Note_off_c, 0, 47, 67
1, 519414, Note_off_c, 0, 54, 65
1, 519421, Note_off_c, 0, 46, 62
1, 519451, Note_off_c, 0, 55, 61
1, 519453, Note_off_c, 0, 67, 58
1, 519483, Note_off_c, 0, 64, 50
1, 519501, Note_on_c, 0, 61, 85
1, 519516, Note_off_c, 0, 62, 60
1, 519597, Note_off_c, 0, 61, 64
1, 519618, Note_on_c, 0, 60, 96
1, 519674, Note_off_c, 0, 60, 64
1, 519721, Note_on_c, 0, 59, 92
1, 519796, Note_off_c, 0, 59, 64
1, 519833, Note_on_c, 0, 58, 95
1, 519898, Note_off_c, 0, 58, 67
1, 519921, Control_c, 0, 64, 115
1, 519936, Control_c, 0, 64, 67
1, 519951, Control_c, 0, 64, 0
1, 519990, Note_on_c, 0, 40, 110
1, 519995, Note_on_c, 0, 28, 88
1, 519995, Control_c, 0, 64, 32
1, 519996, Note_on_c, 0, 31, 89
1, 519996, Note_on_c, 0, 55, 99
1, 519996, Note_on_c, 0, 62, 91
1, 519999, Note_on_c, 0, 67, 92
1, 520000, Note_on_c, 0, 64, 80
1, 520005, Note_on_c, 0, 29, 71
1, 520010, Control_c, 0, 64, 76
1, 520017, Note_on_c, 0, 33, 66
1, 520025, Control_c, 0, 64, 127
1, 520059, Note_off_c, 0, 33, 33
1, 520106, Note_off_c, 0, 55, 60
1, 520108, Note_off_c, 0, 67, 55
1, 520114, Note_off_c, 0, 28, 46
1, 520125, Note_off_c, 0, 64, 58
1, 520128, Note_off_c, 0, 29, 32
1, 520136, Note_off_c, 0, 31, 59
1, 520147, Note_off_c, 0, 40, 60
1, 520169, Note_on_c, 0, 61, 96
1, 520193, Note_off_c, 0, 62, 62
1, 520249, Note_off_c, 0, 61, 67
1, 520288, Note_on_c, 0, 60, 98
1, 520346, Note_off_c, 0, 60, 64
1, 520398, Note_on_c, 0, 59, 96
1, 520464, Note_off_c, 0, 59, 66
1, 520506, Note_on_c, 0, 58, 100
1, 520559, Note_off_c, 0, 58, 68
1, 520656, Control_c, 0, 64, 109
1, 520671, Control_c, 0, 64, 60
1, 520684, Note_on_c, 0, 62, 87
1, 520686, Note_on_c, 0, 67, 89
1, 520686, Control_c, 0, 64, 0
1, 520687, Note_on_c, 0, 54, 103
1, 520687, Note_on_c, 0, 55, 93
1, 520691, Note_on_c, 0, 42, 88
1, 520693, Note_on_c, 0, 64, 79
1, 520696, Note_on_c, 0, 46, 97
1, 520700, Control_c, 0, 64, 15
1, 520715, Control_c, 0, 64, 57
1, 520730, Control_c, 0, 64, 84
1, 520745, Control_c, 0, 64, 127
1, 520773, Note_off_c, 0, 42, 62
1, 520797, Note_off_c, 0, 46, 61
1, 520804, Note_off_c, 0, 55, 62
1, 520806, Note_off_c, 0, 54, 62
1, 520862, Note_on_c, 0, 61, 92
1, 520878, Note_off_c, 0, 64, 62
1, 520884, Note_off_c, 0, 67, 62
1, 520887, Note_off_c, 0, 62, 65
1, 520947, Note_off_c, 0, 61, 65
1, 520977, Note_on_c, 0, 60, 100
1, 521036, Note_off_c, 0, 60, 64
1, 521084, Note_on_c, 0, 59, 93
1, 521149, Note_off_c, 0, 59, 66
1, 521192, Note_on_c, 0, 58, 95
1, 521239, Note_off_c, 0, 58, 67
1, 521300, Control_c, 0, 64, 82
1, 521313, Poly_aftertouch_c, 0, 59, 0
1, 521315, Control_c, 0, 64, 60
1, 521320, Note_on_c, 0, 55, 95
1, 521323, Note_on_c, 0, 62, 85
1, 521323, Note_on_c, 0, 67, 91
1, 521324, Note_on_c, 0, 64, 83
1, 521330, Control_c, 0, 64, 44
1, 521339, Poly_aftertouch_c, 0, 59, 0
1, 521345, Control_c, 0, 64, 49
1, 521359, Control_c, 0, 64, 64
1, 521374, Control_c, 0, 64, 103
1, 521389, Control_c, 0, 64, 127
1, 521424, Note_off_c, 0, 67, 50
1, 521427, Note_off_c, 0, 55, 55
1, 521451, Note_off_c, 0, 64, 61
1, 521452, Note_on_c, 0, 61, 85
1, 521478, Note_off_c, 0, 62, 65
1, 521531, Note_off_c, 0, 61, 64
1, 521552, Note_on_c, 0, 60, 94
1, 521616, Note_off_c, 0, 60, 64
1, 521667, Note_on_c, 0, 59, 91
1, 521726, Note_off_c, 0, 59, 66
1, 521776, Note_on_c, 0, 58, 99
1, 521843, Note_off_c, 0, 58, 68
1, 521886, Control_c, 0, 64, 85
1, 521901, Control_c, 0, 64, 58
1, 521916, Control_c, 0, 64, 0
1, 521945, Note_on_c, 0, 52, 109
1, 521948, Note_on_c, 0, 55, 97
1, 521950, Note_on_c, 0, 67, 93
1, 521951, Note_on_c, 0, 40, 87
1, 521954, Note_on_c, 0, 41, 79
1, 521955, Note_on_c, 0, 43, 85
1, 521955, Note_on_c, 0, 62, 83
1, 521958, Note_on_c, 0, 64, 78
1, 521960, Control_c, 0, 64, 58
1, 521961, Note_on_c, 0, 45, 78
1, 521966, Note_on_c, 0, 63, 71
1, 521975, Control_c, 0, 64, 88
1, 521984, Note_off_c, 0, 63, 66
1, 521990, Control_c, 0, 64, 127
1, 521998, Note_off_c, 0, 45, 53
1, 522017, Note_off_c, 0, 41, 62
1, 522046, Note_off_c, 0, 55, 59
1, 522051, Note_off_c, 0, 67, 58
1, 522059, Note_off_c, 0, 43, 64
1, 522068, Note_off_c, 0, 64, 58
1, 522072, Note_off_c, 0, 40, 53
1, 522078, Note_off_c, 0, 52, 62
1, 522106, Note_on_c, 0, 61, 93
1, 522128, Note_off_c, 0, 62, 62
1, 522180, Note_off_c, 0, 61, 64
1, 522226, Note_on_c, 0, 60, 95
1, 522283, Note_off_c, 0, 60, 64
1, 522340, Note_on_c, 0, 59, 88
1, 522402, Note_off_c, 0, 59, 66
1, 522455, Note_on_c, 0, 58, 92
1, 522506, Note_off_c, 0, 58, 67
1, 522546, Control_c, 0, 64, 85
1, 522561, Control_c, 0, 64, 57
1, 522576, Control_c, 0, 64, 0
1, 522597, Note_on_c, 0, 67, 84
1, 522601, Note_on_c, 0, 55, 78
1, 522601, Note_on_c, 0, 64, 74
1, 522604, Note_on_c, 0, 62, 73
1, 522635, Control_c, 0, 64, 50
1, 522649, Control_c, 0, 64, 66
1, 522664, Control_c, 0, 64, 77
1, 522678, Control_c, 0, 64, 93
1, 522679, Note_off_c, 0, 55, 53
1, 522693, Control_c, 0, 64, 111
1, 522708, Control_c, 0, 64, 127
1, 522712, Note_off_c, 0, 67, 0
1, 522733, Note_on_c, 0, 61, 84
1, 522738, Note_off_c, 0, 64, 52
1, 522762, Note_off_c, 0, 62, 64
1, 522771, Poly_aftertouch_c, 0, 67, 0
1, 522814, Note_off_c, 0, 61, 64
1, 522843, Note_on_c, 0, 60, 86
1, 522904, Note_off_c, 0, 60, 64
1, 522948, Note_on_c, 0, 59, 89
1, 523028, Note_off_c, 0, 59, 54
1, 523051, Note_on_c, 0, 58, 94
1, 523114, Note_off_c, 0, 58, 67
1, 523205, Control_c, 0, 64, 77
1, 523220, Control_c, 0, 64, 50
1, 523230, Note_on_c, 0, 65, 94
1, 523231, Note_on_c, 0, 42, 111
1, 523234, Note_on_c, 0, 62, 93
1, 523234, Control_c, 0, 64, 0
1, 523235, Note_on_c, 0, 30, 92
1, 523237, Note_on_c, 0, 34, 93
1, 523264, Control_c, 0, 64, 30
1, 523279, Control_c, 0, 64, 59
1, 523293, Control_c, 0, 64, 72
1, 523308, Control_c, 0, 64, 92
1, 523320, Note_off_c, 0, 65, 54
1, 523323, Control_c, 0, 64, 127
1, 523327, Note_off_c, 0, 62, 44
1, 523338, Note_on_c, 0, 64, 73
1, 523346, Note_off_c, 0, 30, 62
1, 523353, Note_on_c, 0, 60, 71
1, 523404, Note_off_c, 0, 34, 61
1, 523406, Note_off_c, 0, 60, 49
1, 523412, Note_off_c, 0, 64, 60
1, 523415, Note_off_c, 0, 42, 58
1, 523442, Note_on_c, 0, 65, 73
1, 523443, Note_on_c, 0, 62, 79
1, 523500, Note_off_c, 0, 65, 61
1, 523517, Note_on_c, 0, 64, 74
1, 523525, Note_off_c, 0, 62, 51
1, 523571, Note_on_c, 0, 60, 29
1, 523606, Note_off_c, 0, 64, 64
1, 523615, Note_off_c, 0, 60, 41
1, 523621, Note_on_c, 0, 62, 66
1, 523621, Note_on_c, 0, 65, 64
1, 523674, Note_off_c, 0, 62, 64
1, 523696, Note_on_c, 0, 64, 64
1, 523702, Note_off_c, 0, 65, 59
1, 523704, Note_on_c, 0, 60, 60
1, 523725, Note_off_c, 0, 64, 66
1, 523728, Note_off_c, 0, 60, 59
1, 523767, Control_c, 0, 64, 117
1, 523782, Control_c, 0, 64, 66
1, 523797, Control_c, 0, 64, 24
1, 523808, Note_on_c, 0, 69, 94
1, 523819, Control_c, 0, 64, 0
1, 523822, Note_on_c, 0, 62, 86
1, 523824, Note_on_c, 0, 65, 79
1, 523851, Note_off_c, 0, 62, 69
1, 523865, Control_c, 0, 64, 43
1, 523880, Control_c, 0, 64, 65
1, 523892, Note_off_c, 0, 65, 63
1, 523893, Note_off_c, 0, 69, 62
1, 523895, Control_c, 0, 64, 80
1, 523910, Control_c, 0, 64, 119
1, 523916, Note_on_c, 0, 67, 94
1, 523921, Note_on_c, 0, 60, 67
1, 523924, Control_c, 0, 64, 127
1, 523925, Note_on_c, 0, 64, 71
1, 523987, Note_on_c, 0, 69, 93
1, 523987, Note_off_c, 0, 67, 56
1, 523989, Note_on_c, 0, 62, 76
1, 523991, Note_off_c, 0, 60, 55
1, 523992, Note_on_c, 0, 65, 82
1, 524002, Note_off_c, 0, 64, 63
1, 524023, Note_off_c, 0, 62, 64
1, 524032, Note_off_c, 0, 65, 58
1, 524035, Note_off_c, 0, 69, 66
1, 524083, Note_on_c, 0, 67, 91
1, 524096, Note_on_c, 0, 60, 75
1, 524098, Note_on_c, 0, 64, 73
1, 524131, Note_off_c, 0, 67, 65
1, 524133, Note_off_c, 0, 64, 63
1, 524156, Note_off_c, 0, 60, 63
1, 524166, Note_on_c, 0, 69, 76
1, 524172, Note_on_c, 0, 65, 68
1, 524185, Note_on_c, 0, 62, 42
1, 524193, Note_off_c, 0, 69, 68
1, 524205, Note_off_c, 0, 65, 65
1, 524214, Note_off_c, 0, 62, 58
1, 524253, Note_on_c, 0, 67, 84
1, 524268, Note_on_c, 0, 64, 73
1, 524269, Note_on_c, 0, 60, 72
1, 524294, Note_off_c, 0, 64, 67
1, 524297, Note_off_c, 0, 60, 64
1, 524313, Note_off_c, 0, 67, 63
1, 524354, Control_c, 0, 64, 81
1, 524369, Control_c, 0, 64, 56
1, 524369, Control_c, 0, 67, 9
1, 524374, Note_on_c, 0, 69, 96
1, 524375, Note_on_c, 0, 62, 93
1, 524379, Note_on_c, 0, 42, 89
1, 524379, Note_on_c, 0, 65, 92
1, 524382, Note_on_c, 0, 30, 84
1, 524384, Control_c, 0, 64, 29
1, 524384, Control_c, 0, 67, 13
1, 524399, Control_c, 0, 64, 50
1, 524399, Control_c, 0, 67, 18
1, 524414, Control_c, 0, 64, 69
1, 524414, Control_c, 0, 67, 24
1, 524429, Control_c, 0, 64, 127
1, 524429, Control_c, 0, 67, 28
1, 524437, Note_off_c, 0, 30, 64
1, 524439, Note_off_c, 0, 69, 62
1, 524440, Note_off_c, 0, 62, 62
1, 524443, Control_c, 0, 67, 30
1, 524453, Note_off_c, 0, 42, 62
1, 524458, Control_c, 0, 67, 32
1, 524465, Note_off_c, 0, 65, 57
1, 524473, Control_c, 0, 67, 35
1, 524488, Note_on_c, 0, 67, 76
1, 524488, Control_c, 0, 67, 36
1, 524491, Note_on_c, 0, 64, 79
1, 524517, Control_c, 0, 67, 35
1, 524527, Note_off_c, 0, 64, 61
1, 524532, Control_c, 0, 67, 37
1, 524536, Note_off_c, 0, 67, 65
1, 524547, Control_c, 0, 67, 38
1, 524562, Control_c, 0, 67, 41
1, 524584, Control_c, 0, 67, 45
1, 524596, Note_on_c, 0, 69, 80
1, 524599, Control_c, 0, 67, 49
1, 524601, Note_on_c, 0, 62, 72
1, 524607, Note_on_c, 0, 65, 64
1, 524613, Control_c, 0, 67, 52
1, 524627, Note_off_c, 0, 62, 67
1, 524628, Control_c, 0, 67, 54
1, 524631, Note_off_c, 0, 69, 54
1, 524638, Note_off_c, 0, 65, 65
1, 524644, Control_c, 0, 67, 55
1, 524659, Control_c, 0, 67, 58
1, 524673, Control_c, 0, 67, 66
1, 524686, Note_on_c, 0, 67, 76
1, 524688, Control_c, 0, 67, 77
1, 524694, Note_on_c, 0, 60, 59
1, 524703, Control_c, 0, 67, 89
1, 524718, Control_c, 0, 67, 99
1, 524719, Note_on_c, 0, 64, 19
1, 524724, Note_off_c, 0, 67, 60
1, 524730, Note_off_c, 0, 60, 60
1, 524733, Control_c, 0, 67, 105
1, 524748, Control_c, 0, 67, 108
1, 524762, Note_off_c, 0, 64, 52
1, 524762, Control_c, 0, 67, 113
1, 524767, Note_on_c, 0, 65, 18
1, 524770, Note_on_c, 0, 69, 76
1, 524777, Control_c, 0, 67, 118
1, 524788, Note_on_c, 0, 62, 36
1, 524792, Control_c, 0, 67, 121
1, 524798, Note_off_c, 0, 69, 68
1, 524805, Note_off_c, 0, 65, 63
1, 524807, Control_c, 0, 67, 124
1, 524812, Note_off_c, 0, 62, 62
1, 524822, Control_c, 0, 67, 126
1, 524837, Control_c, 0, 67, 127
1, 524866, Control_c, 0, 64, 113
1, 524881, Control_c, 0, 64, 102
1, 524884, Note_on_c, 0, 64, 54
1, 524891, Note_on_c, 0, 67, 69
1, 524895, Control_c, 0, 64, 95
1, 524910, Control_c, 0, 64, 92
1, 524922, Note_on_c, 0, 60, 43
1, 524924, Control_c, 0, 64, 90
1, 524939, Control_c, 0, 64, 89
1, 524954, Control_c, 0, 64, 88
1, 524956, Note_off_c, 0, 67, 58
1, 524957, Note_off_c, 0, 64, 44
1, 524990, Note_off_c, 0, 60, 34
1, 525043, Control_c, 0, 64, 88
1, 525058, Control_c, 0, 64, 87
1, 525072, Control_c, 0, 64, 86
1, 525087, Control_c, 0, 64, 82
1, 525102, Control_c, 0, 64, 76
1, 525111, Note_on_c, 0, 62, 35
1, 525117, Control_c, 0, 64, 69
1, 525132, Control_c, 0, 64, 62
1, 525132, Note_on_c, 0, 65, 38
1, 525135, Note_on_c, 0, 69, 49
1, 525147, Control_c, 0, 64, 55
1, 525162, Control_c, 0, 64, 49
1, 525177, Control_c, 0, 64, 49
1, 525182, Note_on_c, 0, 74, 53
1, 525191, Control_c, 0, 64, 53
1, 525206, Control_c, 0, 64, 58
1, 525213, Note_on_c, 0, 71, 27
1, 525221, Control_c, 0, 64, 62
1, 525236, Control_c, 0, 64, 64
1, 525248, Note_off_c, 0, 69, 57
1, 525251, Control_c, 0, 64, 65
1, 525252, Note_off_c, 0, 71, 47
1, 525253, Note_off_c, 0, 74, 48
1, 525265, Control_c, 0, 64, 65
1, 525292, Note_off_c, 0, 65, 34
1, 525293, Note_on_c, 0, 76, 46
1, 525295, Control_c, 0, 64, 66
1, 525297, Note_off_c, 0, 62, 35
1, 525308, Note_on_c, 0, 72, 43
1, 525310, Control_c, 0, 64, 66
1, 525332, Control_c, 0, 64, 67
1, 525346, Note_off_c, 0, 76, 43
1, 525347, Control_c, 0, 64, 67
1, 525359, Note_off_c, 0, 72, 45
1, 525391, Note_on_c, 0, 74, 61
1, 525397, Note_on_c, 0, 60, 26
1, 525399, Note_on_c, 0, 67, 33
1, 525403, Note_on_c, 0, 71, 44
1, 525403, Note_on_c, 0, 64, 33
1, 525430, Note_off_c, 0, 71, 55
1, 525443, Note_off_c, 0, 67, 48
1, 525461, Note_off_c, 0, 74, 39
1, 525473, Note_on_c, 0, 76, 66
1, 525496, Control_c, 0, 64, 67
1, 525499, Note_on_c, 0, 72, 55
1, 525510, Note_off_c, 0, 64, 28
1, 525515, Note_off_c, 0, 60, 34
1, 525516, Note_off_c, 0, 76, 56
1, 525550, Note_off_c, 0, 72, 41
1, 525570, Note_on_c, 0, 74, 65
1, 525577, Note_on_c, 0, 69, 47
1, 525578, Note_on_c, 0, 65, 45
1, 525579, Note_on_c, 0, 62, 51
1, 525588, Note_on_c, 0, 71, 42
1, 525600, Control_c, 0, 64, 66
1, 525614, Control_c, 0, 64, 66
1, 525615, Note_off_c, 0, 71, 49
1, 525625, Note_off_c, 0, 69, 60
1, 525630, Note_off_c, 0, 65, 56
1, 525631, Note_off_c, 0, 74, 41
1, 525644, Control_c, 0, 64, 65
1, 525658, Note_on_c, 0, 76, 59
1, 525659, Control_c, 0, 64, 65
1, 525674, Note_on_c, 0, 72, 51
1, 525674, Control_c, 0, 64, 64
1, 525688, Control_c, 0, 64, 63
1, 525691, Note_off_c, 0, 76, 59
1, 525701, Note_off_c, 0, 62, 29
1, 525703, Control_c, 0, 64, 63
1, 525710, Note_off_c, 0, 72, 45
1, 525718, Control_c, 0, 64, 62
1, 525733, Control_c, 0, 64, 62
1, 525743, Note_on_c, 0, 67, 49
1, 525746, Note_on_c, 0, 74, 61
1, 525747, Control_c, 0, 64, 61
1, 525751, Note_on_c, 0, 71, 40
1, 525758, Note_on_c, 0, 60, 44
1, 525760, Note_on_c, 0, 64, 42
1, 525780, Note_off_c, 0, 71, 54
1, 525799, Note_off_c, 0, 74, 50
1, 525802, Note_off_c, 0, 67, 57
1, 525826, Note_off_c, 0, 64, 41
1, 525827, Note_on_c, 0, 76, 62
1, 525842, Note_on_c, 0, 72, 52
1, 525851, Control_c, 0, 64, 62
1, 525866, Control_c, 0, 64, 62
1, 525868, Note_off_c, 0, 76, 60
1, 525881, Note_off_c, 0, 72, 50
1, 525881, Control_c, 0, 64, 63
1, 525895, Note_off_c, 0, 60, 32
1, 525923, Note_on_c, 0, 74, 65
1, 525928, Note_on_c, 0, 71, 44
1, 525936, Note_on_c, 0, 69, 55
1, 525940, Control_c, 0, 64, 63
1, 525942, Note_on_c, 0, 65, 44
1, 525951, Note_on_c, 0, 62, 48
1, 525955, Note_off_c, 0, 71, 56
1, 525955, Control_c, 0, 64, 64
1, 525962, Note_off_c, 0, 74, 57
1, 525970, Control_c, 0, 64, 65
1, 525981, Note_off_c, 0, 69, 61
1, 525984, Note_off_c, 0, 65, 50
1, 525985, Control_c, 0, 64, 65
1, 526000, Control_c, 0, 64, 66
1, 526006, Note_on_c, 0, 76, 64
1, 526014, Note_on_c, 0, 72, 61
1, 526014, Note_off_c, 0, 62, 47
1, 526014, Control_c, 0, 64, 67
1, 526029, Control_c, 0, 64, 69
1, 526041, Note_off_c, 0, 76, 62
1, 526044, Control_c, 0, 64, 71
1, 526059, Control_c, 0, 64, 73
1, 526059, Control_c, 0, 67, 126
1, 526078, Note_off_c, 0, 72, 50
1, 526080, Control_c, 0, 64, 75
1, 526080, Control_c, 0, 67, 125
1, 526095, Control_c, 0, 64, 77
1, 526095, Control_c, 0, 67, 124
1, 526107, Note_on_c, 0, 74, 63
1, 526110, Control_c, 0, 64, 79
1, 526110, Control_c, 0, 67, 124
1, 526116, Note_on_c, 0, 67, 54
1, 526118, Note_on_c, 0, 71, 36
1, 526125, Control_c, 0, 64, 81
1, 526131, Note_on_c, 0, 60, 48
1, 526131, Note_on_c, 0, 64, 45
1, 526140, Control_c, 0, 64, 82
1, 526140, Control_c, 0, 67, 123
1, 526150, Note_off_c, 0, 71, 49
1, 526155, Control_c, 0, 64, 83
1, 526158, Note_off_c, 0, 67, 56
1, 526165, Note_off_c, 0, 74, 57
1, 526169, Control_c, 0, 64, 84
1, 526169, Control_c, 0, 67, 123
1, 526174, Note_off_c, 0, 64, 49
1, 526182, Note_on_c, 0, 76, 69
1, 526184, Control_c, 0, 64, 84
1, 526205, Note_off_c, 0, 60, 46
1, 526208, Note_on_c, 0, 72, 40
1, 526213, Note_off_c, 0, 76, 63
1, 526214, Control_c, 0, 64, 85
1, 526214, Control_c, 0, 67, 123
1, 526235, Note_off_c, 0, 72, 48
1, 526244, Control_c, 0, 67, 124
1, 526259, Control_c, 0, 67, 126
1, 526274, Control_c, 0, 67, 127
1, 526289, Control_c, 0, 67, 127
1, 526293, Note_on_c, 0, 77, 76
1, 526300, Note_on_c, 0, 69, 58
1, 526303, Note_on_c, 0, 74, 59
1, 526310, Note_on_c, 0, 62, 54
1, 526314, Note_on_c, 0, 65, 43
1, 526339, Note_off_c, 0, 74, 57
1, 526341, Note_off_c, 0, 77, 55
1, 526348, Note_off_c, 0, 69, 61
1, 526351, Note_off_c, 0, 65, 49
1, 526382, Note_on_c, 0, 79, 69
1, 526393, Note_on_c, 0, 76, 59
1, 526411, Note_off_c, 0, 62, 53
1, 526419, Note_off_c, 0, 79, 61
1, 526453, Note_off_c, 0, 76, 49
1, 526471, Note_on_c, 0, 77, 70
1, 526472, Note_on_c, 0, 67, 56
1, 526475, Note_on_c, 0, 60, 54
1, 526476, Note_on_c, 0, 64, 45
1, 526482, Note_on_c, 0, 74, 56
1, 526504, Note_off_c, 0, 74, 61
1, 526509, Note_off_c, 0, 77, 58
1, 526510, Note_off_c, 0, 67, 46
1, 526522, Note_off_c, 0, 64, 53
1, 526556, Note_on_c, 0, 79, 73
1, 526558, Note_on_c, 0, 76, 71
1, 526564, Note_off_c, 0, 60, 37
1, 526570, Control_c, 0, 67, 125
1, 526585, Control_c, 0, 64, 86
1, 526585, Control_c, 0, 67, 122
1, 526600, Control_c, 0, 64, 87
1, 526600, Control_c, 0, 67, 121
1, 526603, Note_off_c, 0, 79, 61
1, 526615, Control_c, 0, 64, 89
1, 526630, Control_c, 0, 64, 92
1, 526630, Control_c, 0, 67, 120
1, 526640, Note_off_c, 0, 76, 36
1, 526644, Control_c, 0, 64, 94
1, 526644, Control_c, 0, 67, 117
1, 526645, Note_on_c, 0, 77, 77
1, 526649, Note_on_c, 0, 74, 47
1, 526658, Note_on_c, 0, 69, 55
1, 526659, Note_on_c, 0, 62, 55
1, 526659, Control_c, 0, 64, 96
1, 526659, Control_c, 0, 67, 112
1, 526661, Note_on_c, 0, 65, 46
1, 526674, Control_c, 0, 64, 100
1, 526674, Control_c, 0, 67, 109
1, 526682, Note_off_c, 0, 74, 55
1, 526688, Control_c, 0, 64, 104
1, 526688, Control_c, 0, 67, 108
1, 526700, Note_off_c, 0, 65, 57
1, 526703, Control_c, 0, 64, 106
1, 526707, Note_off_c, 0, 69, 61
1, 526718, Control_c, 0, 64, 107
1, 526728, Note_on_c, 0, 79, 80
1, 526730, Note_off_c, 0, 77, 60
1, 526733, Control_c, 0, 64, 108
1, 526733, Control_c, 0, 67, 109
1, 526748, Control_c, 0, 64, 109
1, 526748, Control_c, 0, 67, 111
1, 526752, Note_off_c, 0, 62, 62
1, 526763, Control_c, 0, 67, 115
1, 526778, Control_c, 0, 67, 120
1, 526781, Note_off_c, 0, 79, 64
1, 526792, Control_c, 0, 67, 126
1, 526807, Control_c, 0, 67, 127
1, 526835, Note_on_c, 0, 81, 81
1, 526843, Note_on_c, 0, 77, 79
1, 526844, Control_c, 0, 64, 108
1, 526847, Poly_aftertouch_c, 0, 76, 0
1, 526852, Note_on_c, 0, 67, 63
1, 526856, Note_on_c, 0, 64, 50
1, 526859, Control_c, 0, 64, 108
1, 526860, Note_on_c, 0, 60, 53
1, 526874, Control_c, 0, 64, 105
1, 526889, Control_c, 0, 64, 103
1, 526890, Note_off_c, 0, 67, 59
1, 526899, Note_off_c, 0, 77, 62
1, 526900, Note_off_c, 0, 64, 60
1, 526903, Control_c, 0, 64, 101
1, 526915, Note_off_c, 0, 60, 54
1, 526918, Control_c, 0, 64, 99
1, 526921, Note_off_c, 0, 81, 51
1, 526922, Note_on_c, 0, 79, 73
1, 526926, Note_on_c, 0, 76, 77
1, 526933, Control_c, 0, 64, 99
1, 526948, Control_c, 0, 64, 98
1, 526950, Note_off_c, 0, 76, 67
1, 526950, Note_off_c, 0, 79, 65
1, 526963, Control_c, 0, 64, 98
1, 526977, Control_c, 0, 64, 97
1, 527003, Note_on_c, 0, 77, 84
1, 527007, Control_c, 0, 64, 96
1, 527010, Note_on_c, 0, 74, 74
1, 527018, Note_on_c, 0, 69, 61
1, 527023, Note_on_c, 0, 65, 48
1, 527028, Note_on_c, 0, 62, 55
1, 527052, Note_off_c, 0, 77, 66
1, 527052, Note_off_c, 0, 74, 50
1, 527053, Note_off_c, 0, 65, 55
1, 527053, Control_c, 0, 64, 97
1, 527058, Note_off_c, 0, 69, 64
1, 527068, Note_off_c, 0, 62, 60
1, 527095, Poly_aftertouch_c, 0, 74, 0
1, 527097, Control_c, 0, 64, 97
1, 527101, Note_on_c, 0, 76, 69
1, 527112, Control_c, 0, 64, 99
1, 527121, Note_on_c, 0, 77, 30
1, 527127, Control_c, 0, 64, 100
1, 527129, Note_on_c, 0, 72, 38
1, 527141, Note_off_c, 0, 76, 63
1, 527142, Control_c, 0, 64, 101
1, 527142, Control_c, 0, 67, 126
1, 527151, Note_off_c, 0, 77, 49
1, 527157, Control_c, 0, 64, 102
1, 527157, Control_c, 0, 67, 119
1, 527159, Note_off_c, 0, 72, 46
1, 527172, Control_c, 0, 64, 106
1, 527172, Control_c, 0, 67, 113
1, 527177, Note_on_c, 0, 67, 64
1, 527183, Note_on_c, 0, 77, 70
1, 527186, Note_on_c, 0, 60, 59
1, 527187, Control_c, 0, 64, 117
1, 527187, Control_c, 0, 67, 105
1, 527192, Note_on_c, 0, 64, 49
1, 527194, Note_on_c, 0, 74, 69
1, 527201, Control_c, 0, 64, 127
1, 527201, Control_c, 0, 67, 95
1, 527216, Control_c, 0, 67, 84
1, 527225, Note_off_c, 0, 67, 59
1, 527231, Control_c, 0, 67, 75
1, 527237, Note_off_c, 0, 77, 63
1, 527243, Note_off_c, 0, 64, 51
1, 527246, Control_c, 0, 67, 65
1, 527258, Note_off_c, 0, 60, 55
1, 527261, Control_c, 0, 67, 57
1, 527267, Note_off_c, 0, 74, 63
1, 527270, Note_on_c, 0, 76, 75
1, 527275, Control_c, 0, 67, 51
1, 527282, Note_on_c, 0, 72, 46
1, 527290, Control_c, 0, 67, 49
1, 527305, Control_c, 0, 67, 51
1, 527307, Note_off_c, 0, 72, 59
1, 527310, Note_off_c, 0, 76, 58
1, 527320, Control_c, 0, 64, 91
1, 527320, Control_c, 0, 67, 56
1, 527335, Control_c, 0, 64, 70
1, 527335, Control_c, 0, 67, 60
1, 527350, Control_c, 0, 64, 57
1, 527350, Control_c, 0, 67, 66
1, 527360, Note_on_c, 0, 69, 85
1, 527364, Note_on_c, 0, 71, 82
1, 527365, Control_c, 0, 64, 43
1, 527365, Control_c, 0, 67, 76
1, 527365, Note_on_c, 0, 77, 76
1, 527368, Note_on_c, 0, 62, 73
1, 527371, Note_on_c, 0, 65, 69
1, 527379, Note_on_c, 0, 74, 63
1, 527380, Control_c, 0, 64, 41
1, 527380, Control_c, 0, 67, 91
1, 527394, Control_c, 0, 64, 54
1, 527394, Control_c, 0, 67, 103
1, 527407, Note_off_c, 0, 74, 61
1, 527409, Control_c, 0, 64, 64
1, 527409, Control_c, 0, 67, 112
1, 527424, Control_c, 0, 64, 71
1, 527424, Control_c, 0, 67, 118
1, 527428, Note_off_c, 0, 65, 48
1, 527439, Control_c, 0, 64, 75
1, 527439, Control_c, 0, 67, 122
1, 527454, Control_c, 0, 64, 76
1, 527454, Control_c, 0, 67, 126
1, 527466, Note_off_c, 0, 77, 50
1, 527468, Control_c, 0, 67, 127
1, 527474, Note_off_c, 0, 71, 58
1, 527478, Note_off_c, 0, 69, 61
1, 527481, Note_on_c, 0, 79, 68
1, 527504, Note_on_c, 0, 76, 52
1, 527506, Note_off_c, 0, 62, 61
1, 527512, Control_c, 0, 64, 75
1, 527527, Note_off_c, 0, 76, 58
1, 527527, Note_off_c, 0, 79, 59
1, 527527, Control_c, 0, 64, 73
1, 527542, Control_c, 0, 64, 71
1, 527565, Control_c, 0, 64, 68
1, 527579, Control_c, 0, 64, 67
1, 527582, Note_on_c, 0, 77, 64
1, 527594, Control_c, 0, 64, 66
1, 527598, Note_on_c, 0, 67, 56
1, 527601, Note_on_c, 0, 60, 45
1, 527617, Note_on_c, 0, 74, 27
1, 527627, Note_on_c, 0, 64, 43
1, 527642, Note_off_c, 0, 67, 63
1, 527651, Note_off_c, 0, 77, 59
1, 527654, Note_off_c, 0, 74, 41
1, 527655, Note_off_c, 0, 64, 55
1, 527659, Note_on_c, 0, 79, 67
1, 527681, Note_on_c, 0, 76, 21
1, 527698, Control_c, 0, 64, 67
1, 527704, Note_off_c, 0, 60, 35
1, 527713, Control_c, 0, 64, 67
1, 527725, Note_off_c, 0, 79, 63
1, 527742, Note_off_c, 0, 76, 50
1, 527742, Control_c, 0, 64, 68
1, 527751, Note_on_c, 0, 77, 63
1, 527761, Note_on_c, 0, 74, 43
1, 527764, Note_on_c, 0, 69, 59
1, 527773, Note_on_c, 0, 65, 44
1, 527788, Note_on_c, 0, 62, 51
1, 527801, Control_c, 0, 64, 68
1, 527813, Note_off_c, 0, 69, 59
1, 527815, Note_off_c, 0, 65, 48
1, 527821, Note_off_c, 0, 74, 44
1, 527833, Note_off_c, 0, 77, 58
1, 527834, Note_off_c, 0, 62, 56
1, 527842, Note_on_c, 0, 79, 67
1, 527848, Note_on_c, 0, 76, 57
1, 527862, Control_c, 0, 64, 68
1, 527877, Control_c, 0, 64, 67
1, 527886, Note_off_c, 0, 76, 50
1, 527887, Note_off_c, 0, 79, 58
1, 527930, Note_on_c, 0, 77, 57
1, 527937, Note_on_c, 0, 67, 60
1, 527937, Note_on_c, 0, 60, 48
1, 527955, Note_on_c, 0, 74, 42
1, 527957, Note_on_c, 0, 64, 43
1, 527965, Control_c, 0, 64, 67
1, 527976, Note_off_c, 0, 67, 59
1, 527985, Note_off_c, 0, 64, 57
1, 527991, Note_off_c, 0, 74, 51
1, 527993, Note_off_c, 0, 60, 55
1, 527995, Control_c, 0, 64, 67
1, 527997, Note_off_c, 0, 77, 50
1, 528007, Note_on_c, 0, 79, 67
1, 528010, Control_c, 0, 64, 68
1, 528019, Note_on_c, 0, 76, 53
1, 528039, Control_c, 0, 64, 68
1, 528056, Note_off_c, 0, 79, 55
1, 528071, Note_off_c, 0, 76, 54
1, 528084, Control_c, 0, 64, 69
1, 528098, Control_c, 0, 64, 71
1, 528100, Note_on_c, 0, 77, 71
1, 528105, Note_on_c, 0, 69, 56
1, 528113, Note_on_c, 0, 65, 50
1, 528113, Note_on_c, 0, 74, 45
1, 528113, Control_c, 0, 64, 73
1, 528113, Control_c, 0, 67, 125
1, 528126, Note_on_c, 0, 62, 50
1, 528128, Control_c, 0, 64, 74
1, 528128, Control_c, 0, 67, 125
1, 528143, Control_c, 0, 64, 75
1, 528148, Note_off_c, 0, 77, 55
1, 528152, Note_off_c, 0, 69, 60
1, 528153, Note_off_c, 0, 74, 44
1, 528155, Note_off_c, 0, 65, 53
1, 528169, Note_off_c, 0, 62, 48
1, 528173, Control_c, 0, 67, 124
1, 528187, Note_on_c, 0, 76, 58
1, 528191, Note_on_c, 0, 79, 66
1, 528202, Control_c, 0, 64, 76
1, 528202, Control_c, 0, 67, 124
1, 528212, Note_off_c, 0, 76, 53
1, 528217, Control_c, 0, 64, 76
1, 528217, Control_c, 0, 67, 125
1, 528232, Control_c, 0, 67, 127
1, 528243, Note_off_c, 0, 79, 56
1, 528268, Note_on_c, 0, 77, 69
1, 528282, Note_on_c, 0, 74, 55
1, 528286, Note_on_c, 0, 60, 47
1, 528290, Note_on_c, 0, 67, 41
1, 528298, Note_on_c, 0, 64, 43
1, 528329, Note_off_c, 0, 74, 44
1, 528330, Note_off_c, 0, 67, 53
1, 528340, Note_off_c, 0, 64, 52
1, 528343, Control_c, 0, 64, 76
1, 528351, Note_off_c, 0, 60, 43
1, 528360, Note_off_c, 0, 77, 58
1, 528363, Note_on_c, 0, 79, 70
1, 528372, Control_c, 0, 64, 75
1, 528374, Note_on_c, 0, 76, 56
1, 528405, Note_off_c, 0, 76, 50
1, 528415, Note_off_c, 0, 79, 57
1, 528456, Note_on_c, 0, 77, 63
1, 528456, Note_on_c, 0, 69, 54
1, 528461, Note_on_c, 0, 74, 56
1, 528461, Note_on_c, 0, 65, 48
1, 528475, Note_on_c, 0, 62, 51
1, 528476, Control_c, 0, 64, 76
1, 528491, Control_c, 0, 64, 78
1, 528506, Note_off_c, 0, 69, 63
1, 528506, Control_c, 0, 64, 82
1, 528507, Note_off_c, 0, 65, 54
1, 528521, Note_off_c, 0, 62, 58
1, 528521, Control_c, 0, 64, 87
1, 528522, Note_off_c, 0, 74, 58
1, 528536, Control_c, 0, 64, 94
1, 528537, Note_on_c, 0, 79, 66
1, 528548, Note_on_c, 0, 76, 58
1, 528550, Control_c, 0, 64, 101
1, 528551, Note_off_c, 0, 77, 57
1, 528565, Control_c, 0, 64, 108
1, 528580, Control_c, 0, 64, 115
1, 528590, Note_off_c, 0, 79, 49
1, 528595, Control_c, 0, 64, 127
1, 528606, Note_off_c, 0, 76, 53
1, 528617, Note_on_c, 0, 77, 64
1, 528634, Note_on_c, 0, 67, 52
1, 528637, Note_on_c, 0, 74, 59
1, 528641, Note_on_c, 0, 60, 47
1, 528660, Note_off_c, 0, 67, 55
1, 528663, Note_off_c, 0, 74, 55
1, 528668, Note_on_c, 0, 64, 22
1, 528692, Note_off_c, 0, 60, 52
1, 528705, Note_off_c, 0, 77, 53
1, 528710, Note_off_c, 0, 64, 52
1, 528716, Note_on_c, 0, 76, 68
1, 528722, Note_on_c, 0, 79, 68
1, 528772, Control_c, 0, 67, 127
1, 528778, Note_off_c, 0, 76, 51
1, 528787, Control_c, 0, 67, 126
1, 528789, Note_off_c, 0, 79, 63
1, 528796, Note_on_c, 0, 69, 52
1, 528799, Note_on_c, 0, 77, 73
1, 528802, Control_c, 0, 67, 126
1, 528809, Note_on_c, 0, 74, 58
1, 528811, Note_on_c, 0, 65, 40
1, 528814, Note_on_c, 0, 62, 52
1, 528844, Note_off_c, 0, 69, 58
1, 528849, Note_off_c, 0, 65, 51
1, 528858, Note_off_c, 0, 62, 61
1, 528869, Note_off_c, 0, 74, 57
1, 528876, Control_c, 0, 67, 126
1, 528883, Note_on_c, 0, 76, 77
1, 528888, Note_off_c, 0, 77, 65
1, 528891, Control_c, 0, 67, 127
1, 528898, Note_on_c, 0, 79, 71
1, 528906, Control_c, 0, 67, 127
1, 528924, Note_off_c, 0, 76, 58
1, 528927, Note_off_c, 0, 79, 64
1, 528971, Note_on_c, 0, 77, 73
1, 528983, Note_on_c, 0, 74, 61
1, 528986, Note_on_c, 0, 60, 51
1, 528990, Note_on_c, 0, 67, 52
1, 528996, Note_on_c, 0, 64, 43
1, 529015, Note_off_c, 0, 67, 58
1, 529025, Note_off_c, 0, 64, 57
1, 529025, Note_off_c, 0, 77, 61
1, 529033, Note_off_c, 0, 60, 56
1, 529043, Note_off_c, 0, 74, 49
1, 529057, Note_on_c, 0, 76, 75
1, 529077, Note_on_c, 0, 72, 58
1, 529100, Note_off_c, 0, 72, 61
1, 529118, Note_off_c, 0, 76, 53
1, 529150, Note_on_c, 0, 77, 74
1, 529151, Note_on_c, 0, 69, 53
1, 529161, Note_on_c, 0, 74, 66
1, 529162, Note_on_c, 0, 65, 41
1, 529169, Note_on_c, 0, 62, 51
1, 529195, Note_off_c, 0, 77, 61
1, 529200, Note_off_c, 0, 69, 62
1, 529204, Note_off_c, 0, 65, 55
1, 529226, Note_off_c, 0, 62, 53
1, 529233, Note_off_c, 0, 74, 62
1, 529234, Note_on_c, 0, 76, 79
1, 529245, Note_on_c, 0, 72, 50
1, 529269, Control_c, 0, 67, 126
1, 529276, Note_off_c, 0, 72, 54
1, 529284, Control_c, 0, 67, 125
1, 529287, Note_off_c, 0, 76, 57
1, 529298, Control_c, 0, 67, 125
1, 529313, Control_c, 0, 67, 125
1, 529320, Note_on_c, 0, 77, 70
1, 529325, Note_on_c, 0, 74, 74
1, 529328, Control_c, 0, 67, 126
1, 529331, Note_on_c, 0, 67, 56
1, 529332, Note_on_c, 0, 60, 46
1, 529343, Control_c, 0, 67, 127
1, 529345, Note_on_c, 0, 64, 47
1, 529358, Control_c, 0, 67, 127
1, 529359, Note_off_c, 0, 67, 62
1, 529372, Note_off_c, 0, 64, 58
1, 529381, Note_off_c, 0, 60, 59
1, 529382, Note_off_c, 0, 77, 53
1, 529394, Note_off_c, 0, 74, 62
1, 529404, Note_on_c, 0, 72, 60
1, 529408, Note_on_c, 0, 76, 68
1, 529445, Note_off_c, 0, 72, 60
1, 529448, Note_off_c, 0, 76, 61
1, 529497, Note_on_c, 0, 69, 57
1, 529499, Note_on_c, 0, 65, 50
1, 529500, Note_on_c, 0, 77, 70
1, 529511, Note_on_c, 0, 74, 71
1, 529512, Note_on_c, 0, 62, 54
1, 529539, Note_off_c, 0, 69, 64
1, 529540, Note_off_c, 0, 65, 61
1, 529550, Note_off_c, 0, 62, 60
1, 529568, Note_off_c, 0, 77, 59
1, 529577, Note_off_c, 0, 74, 63
1, 529596, Note_on_c, 0, 79, 66
1, 529597, Note_on_c, 0, 76, 61
1, 529627, Note_off_c, 0, 76, 49
1, 529640, Control_c, 0, 67, 127
1, 529655, Note_off_c, 0, 79, 57
1, 529655, Control_c, 0, 67, 125
1, 529669, Control_c, 0, 67, 124
1, 529675, Note_on_c, 0, 77, 71
1, 529678, Note_on_c, 0, 60, 52
1, 529678, Note_on_c, 0, 67, 56
1, 529684, Control_c, 0, 67, 123
1, 529696, Note_on_c, 0, 64, 45
1, 529697, Note_on_c, 0, 74, 53
1, 529699, Control_c, 0, 67, 120
1, 529714, Control_c, 0, 67, 115
1, 529720, Note_off_c, 0, 67, 62
1, 529725, Note_off_c, 0, 74, 50
1, 529727, Note_off_c, 0, 64, 54
1, 529728, Note_off_c, 0, 60, 56
1, 529729, Control_c, 0, 67, 109
1, 529744, Control_c, 0, 67, 105
1, 529757, Note_off_c, 0, 77, 55
1, 529758, Control_c, 0, 67, 103
1, 529762, Note_on_c, 0, 76, 70
1, 529772, Note_on_c, 0, 72, 70
1, 529773, Control_c, 0, 67, 100
1, 529788, Control_c, 0, 67, 98
1, 529801, Note_off_c, 0, 76, 55
1, 529803, Control_c, 0, 67, 93
1, 529820, Note_off_c, 0, 72, 50
1, 529825, Control_c, 0, 67, 87
1, 529840, Control_c, 0, 67, 79
1, 529847, Note_on_c, 0, 65, 59
1, 529848, Note_on_c, 0, 69, 58
1, 529855, Control_c, 0, 67, 74
1, 529857, Note_on_c, 0, 62, 62
1, 529859, Note_on_c, 0, 77, 69
1, 529869, Control_c, 0, 67, 70
1, 529877, Note_on_c, 0, 74, 57
1, 529884, Note_off_c, 0, 65, 61
1, 529884, Control_c, 0, 67, 69
1, 529886, Note_off_c, 0, 69, 62
1, 529888, Note_off_c, 0, 77, 65
1, 529892, Note_off_c, 0, 62, 61
1, 529913, Control_c, 0, 67, 70
1, 529928, Control_c, 0, 67, 72
1, 529929, Note_off_c, 0, 74, 37
1, 529943, Control_c, 0, 67, 74
1, 529948, Note_on_c, 0, 76, 74
1, 529952, Note_on_c, 0, 72, 58
1, 529958, Control_c, 0, 67, 76
1, 529973, Control_c, 0, 67, 79
1, 529977, Note_off_c, 0, 72, 58
1, 529983, Note_off_c, 0, 76, 57
1, 529988, Control_c, 0, 67, 82
1, 530003, Control_c, 0, 67, 86
1, 530018, Control_c, 0, 67, 95
1, 530030, Note_on_c, 0, 71, 75
1, 530031, Note_on_c, 0, 74, 78
1, 530033, Control_c, 0, 67, 104
1, 530036, Note_on_c, 0, 67, 67
1, 530041, Note_on_c, 0, 64, 62
1, 530048, Control_c, 0, 67, 111
1, 530062, Control_c, 0, 67, 116
1, 530068, Note_off_c, 0, 67, 64
1, 530077, Control_c, 0, 67, 120
1, 530083, Note_off_c, 0, 71, 62
1, 530092, Control_c, 0, 67, 123
1, 530094, Note_off_c, 0, 64, 59
1, 530106, Note_on_c, 0, 72, 59
1, 530107, Control_c, 0, 67, 125
1, 530107, Note_off_c, 0, 74, 60
1, 530117, Note_on_c, 0, 76, 78
1, 530121, Control_c, 0, 67, 127
1, 530149, Note_off_c, 0, 72, 61
1, 530162, Note_off_c, 0, 76, 60
1, 530197, Note_on_c, 0, 77, 77
1, 530212, Note_on_c, 0, 62, 64
1, 530214, Note_on_c, 0, 65, 53
1, 530223, Note_on_c, 0, 69, 44
1, 530224, Note_on_c, 0, 74, 58
1, 530244, Note_off_c, 0, 65, 62
1, 530252, Note_off_c, 0, 69, 57
1, 530253, Note_off_c, 0, 62, 61
1, 530256, Control_c, 0, 67, 127
1, 530271, Control_c, 0, 67, 125
1, 530275, Note_off_c, 0, 74, 41
1, 530285, Control_c, 0, 67, 124
1, 530287, Note_off_c, 0, 77, 47
1, 530291, Note_on_c, 0, 79, 77
1, 530297, Note_on_c, 0, 76, 61
1, 530315, Control_c, 0, 67, 123
1, 530324, Note_off_c, 0, 76, 53
1, 530329, Control_c, 0, 67, 121
1, 530344, Control_c, 0, 67, 119
1, 530349, Note_off_c, 0, 79, 59
1, 530359, Control_c, 0, 67, 118
1, 530369, Note_on_c, 0, 77, 67
1, 530375, Note_on_c, 0, 67, 53
1, 530380, Note_on_c, 0, 60, 49
1, 530388, Note_on_c, 0, 74, 61
1, 530398, Note_off_c, 0, 67, 60
1, 530399, Note_on_c, 0, 64, 27
1, 530419, Note_off_c, 0, 60, 61
1, 530433, Control_c, 0, 67, 118
1, 530438, Note_off_c, 0, 74, 44
1, 530441, Note_off_c, 0, 64, 45
1, 530448, Control_c, 0, 67, 119
1, 530455, Note_on_c, 0, 79, 78
1, 530458, Note_off_c, 0, 77, 61
1, 530463, Control_c, 0, 67, 120
1, 530477, Control_c, 0, 67, 121
1, 530503, Note_off_c, 0, 79, 63
1, 530507, Control_c, 0, 64, 109
1, 530522, Control_c, 0, 64, 83
1, 530522, Control_c, 0, 67, 122
1, 530536, Control_c, 0, 64, 71
1, 530551, Control_c, 0, 64, 64
1, 530551, Control_c, 0, 67, 122
1, 530563, Note_on_c, 0, 69, 60
1, 530567, Note_on_c, 0, 65, 47
1, 530567, Note_on_c, 0, 77, 68
1, 530572, Note_on_c, 0, 62, 49
1, 530574, Control_c, 0, 64, 62
1, 530574, Control_c, 0, 67, 122
1, 530589, Control_c, 0, 64, 64
1, 530589, Control_c, 0, 67, 121
1, 530590, Note_on_c, 0, 74, 29
1, 530604, Control_c, 0, 64, 70
1, 530604, Control_c, 0, 67, 120
1, 530612, Note_off_c, 0, 69, 59
1, 530614, Note_off_c, 0, 65, 44
1, 530618, Control_c, 0, 64, 82
1, 530618, Control_c, 0, 67, 120
1, 530626, Note_off_c, 0, 74, 53
1, 530633, Control_c, 0, 64, 97
1, 530633, Control_c, 0, 67, 119
1, 530637, Note_off_c, 0, 77, 54
1, 530645, Note_on_c, 0, 79, 68
1, 530648, Control_c, 0, 64, 119
1, 530648, Control_c, 0, 67, 118
1, 530650, Note_off_c, 0, 62, 52
1, 530663, Control_c, 0, 64, 127
1, 530663, Control_c, 0, 67, 116
1, 530666, Note_on_c, 0, 76, 54
1, 530678, Control_c, 0, 67, 115
1, 530684, Note_off_c, 0, 79, 58
1, 530692, Control_c, 0, 67, 111
1, 530707, Control_c, 0, 67, 107
1, 530722, Control_c, 0, 67, 104
1, 530728, Note_off_c, 0, 76, 36
1, 530736, Control_c, 0, 67, 101
1, 530739, Note_on_c, 0, 67, 56
1, 530740, Note_on_c, 0, 77, 71
1, 530749, Note_on_c, 0, 64, 44
1, 530750, Note_on_c, 0, 60, 51
1, 530751, Control_c, 0, 67, 98
1, 530766, Control_c, 0, 67, 95
1, 530773, Note_on_c, 0, 74, 11
1, 530776, Note_off_c, 0, 67, 58
1, 530781, Control_c, 0, 67, 89
1, 530789, Note_off_c, 0, 64, 49
1, 530796, Control_c, 0, 67, 79
1, 530804, Note_off_c, 0, 77, 38
1, 530805, Note_off_c, 0, 74, 0
1, 530811, Control_c, 0, 67, 67
1, 530816, Note_on_c, 0, 79, 72
1, 530820, Poly_aftertouch_c, 0, 74, 0
1, 530823, Note_off_c, 0, 60, 41
1, 530826, Control_c, 0, 67, 53
1, 530831, Note_on_c, 0, 76, 66
1, 530841, Control_c, 0, 67, 38
1, 530849, Note_off_c, 0, 79, 61
1, 530855, Control_c, 0, 67, 24
1, 530856, Note_off_c, 0, 76, 55
1, 530870, Control_c, 0, 67, 10
1, 530885, Control_c, 0, 67, 0
1, 530910, Note_on_c, 0, 74, 61
1, 530912, Note_on_c, 0, 69, 60
1, 530913, Note_on_c, 0, 77, 74
1, 530927, Note_on_c, 0, 65, 44
1, 530930, Note_on_c, 0, 62, 51
1, 530945, Note_off_c, 0, 74, 59
1, 530963, Note_off_c, 0, 65, 51
1, 530967, Note_off_c, 0, 69, 58
1, 530989, Note_off_c, 0, 77, 41
1, 530996, Note_on_c, 0, 79, 73
1, 531013, Note_off_c, 0, 62, 48
1, 531028, Note_on_c, 0, 76, 47
1, 531046, Note_off_c, 0, 79, 61
1, 531055, Note_off_c, 0, 76, 57
1, 531100, Note_on_c, 0, 81, 85
1, 531109, Control_c, 0, 67, 12
1, 531112, Note_on_c, 0, 77, 76
1, 531115, Note_on_c, 0, 67, 65
1, 531119, Note_on_c, 0, 64, 59
1, 531120, Note_on_c, 0, 60, 57
1, 531124, Control_c, 0, 67, 22
1, 531139, Control_c, 0, 67, 41
1, 531150, Note_off_c, 0, 67, 60
1, 531154, Control_c, 0, 67, 66
1, 531159, Note_off_c, 0, 64, 60
1, 531168, Note_off_c, 0, 77, 63
1, 531168, Control_c, 0, 67, 92
1, 531169, Note_off_c, 0, 60, 55
1, 531183, Control_c, 0, 67, 113
1, 531198, Control_c, 0, 67, 114
1, 531202, Note_off_c, 0, 81, 63
1, 531205, Note_on_c, 0, 79, 69
1, 531213, Control_c, 0, 67, 115
1, 531222, Note_on_c, 0, 76, 35
1, 531228, Control_c, 0, 67, 116
1, 531232, Note_off_c, 0, 79, 65
1, 531242, Control_c, 0, 67, 118
1, 531255, Note_off_c, 0, 76, 45
1, 531257, Control_c, 0, 67, 118
1, 531272, Control_c, 0, 67, 119
1, 531289, Note_on_c, 0, 77, 70
1, 531310, Note_on_c, 0, 62, 59
1, 531313, Note_on_c, 0, 69, 53
1, 531317, Note_on_c, 0, 65, 45
1, 531320, Note_on_c, 0, 74, 60
1, 531346, Note_off_c, 0, 69, 55
1, 531347, Note_off_c, 0, 65, 55
1, 531360, Note_off_c, 0, 62, 57
1, 531368, Control_c, 0, 67, 118
1, 531379, Note_off_c, 0, 74, 33
1, 531383, Control_c, 0, 67, 117
1, 531395, Note_off_c, 0, 77, 31
1, 531398, Control_c, 0, 67, 115
1, 531399, Note_on_c, 0, 76, 52
1, 531413, Control_c, 0, 67, 114
1, 531428, Control_c, 0, 67, 113
1, 531442, Control_c, 0, 67, 113
1, 531457, Control_c, 0, 67, 111
1, 531461, Note_off_c, 0, 76, 38
1, 531467, Note_on_c, 0, 77, 54
1, 531471, Note_on_c, 0, 67, 62
1, 531472, Control_c, 0, 67, 109
1, 531475, Note_on_c, 0, 60, 55
1, 531482, Note_on_c, 0, 74, 59
1, 531486, Control_c, 0, 67, 108
1, 531491, Note_on_c, 0, 64, 48
1, 531505, Note_off_c, 0, 67, 62
1, 531516, Control_c, 0, 67, 108
1, 531522, Note_off_c, 0, 64, 56
1, 531529, Note_off_c, 0, 60, 56
1, 531531, Control_c, 0, 67, 107
1, 531536, Note_off_c, 0, 77, 58
1, 531548, Note_off_c, 0, 74, 65
1, 531553, Note_on_c, 0, 76, 75
1, 531575, Control_c, 0, 67, 108
1, 531579, Note_on_c, 0, 72, 46
1, 531589, Note_off_c, 0, 76, 55
1, 531590, Control_c, 0, 67, 109
1, 531604, Note_off_c, 0, 72, 51
1, 531605, Control_c, 0, 67, 110
1, 531620, Control_c, 0, 67, 111
1, 531641, Note_on_c, 0, 77, 79
1, 531645, Note_on_c, 0, 69, 60
1, 531646, Note_on_c, 0, 65, 59
1, 531649, Control_c, 0, 67, 112
1, 531656, Note_on_c, 0, 74, 60
1, 531660, Note_on_c, 0, 62, 58
1, 531664, Control_c, 0, 67, 114
1, 531679, Control_c, 0, 67, 116
1, 531690, Note_off_c, 0, 65, 59
1, 531690, Note_off_c, 0, 69, 60
1, 531699, Note_off_c, 0, 77, 64
1, 531706, Note_off_c, 0, 62, 59
1, 531712, Note_off_c, 0, 74, 52
1, 531723, Control_c, 0, 67, 115
1, 531729, Note_on_c, 0, 79, 76
1, 531738, Note_on_c, 0, 76, 61
1, 531738, Control_c, 0, 67, 115
1, 531760, Note_off_c, 0, 76, 57
1, 531768, Control_c, 0, 67, 114
1, 531782, Control_c, 0, 67, 113
1, 531791, Note_off_c, 0, 79, 55
1, 531797, Control_c, 0, 67, 112
1, 531810, Note_on_c, 0, 77, 75
1, 531812, Control_c, 0, 67, 110
1, 531815, Note_on_c, 0, 60, 60
1, 531821, Note_on_c, 0, 74, 65
1, 531824, Note_on_c, 0, 67, 58
1, 531827, Control_c, 0, 67, 110
1, 531837, Note_on_c, 0, 64, 48
1, 531843, Control_c, 0, 67, 109
1, 531857, Control_c, 0, 67, 109
1, 531861, Note_off_c, 0, 67, 60
1, 531872, Note_off_c, 0, 64, 53
1, 531872, Control_c, 0, 67, 107
1, 531876, Note_off_c, 0, 60, 55
1, 531887, Control_c, 0, 67, 106
1, 531896, Note_off_c, 0, 74, 63
1, 531897, Note_on_c, 0, 76, 69
1, 531899, Note_off_c, 0, 77, 52
1, 531901, Note_on_c, 0, 72, 66
1, 531902, Control_c, 0, 67, 105
1, 531937, Note_off_c, 0, 72, 59
1, 531946, Control_c, 0, 67, 105
1, 531958, Note_off_c, 0, 76, 46
1, 531961, Control_c, 0, 67, 104
1, 531976, Control_c, 0, 67, 104
1, 531981, Note_on_c, 0, 77, 67
1, 531982, Note_on_c, 0, 65, 65
1, 531987, Note_on_c, 0, 62, 63
1, 531988, Note_on_c, 0, 69, 62
1, 531995, Note_on_c, 0, 74, 67
1, 532023, Note_off_c, 0, 62, 61
1, 532025, Note_off_c, 0, 65, 62
1, 532027, Note_off_c, 0, 77, 60
1, 532039, Note_off_c, 0, 69, 64
1, 532057, Control_c, 0, 67, 104
1, 532067, Note_off_c, 0, 74, 60
1, 532074, Note_on_c, 0, 76, 78
1, 532087, Note_on_c, 0, 72, 56
1, 532087, Control_c, 0, 67, 105
1, 532102, Control_c, 0, 67, 105
1, 532108, Note_off_c, 0, 72, 63
1, 532116, Control_c, 0, 67, 106
1, 532125, Note_off_c, 0, 76, 58
1, 532146, Control_c, 0, 64, 87
1, 532158, Note_on_c, 0, 74, 78
1, 532161, Control_c, 0, 64, 65
1, 532167, Note_on_c, 0, 71, 78
1, 532171, Note_on_c, 0, 67, 69
1, 532176, Control_c, 0, 64, 53
1, 532181, Note_on_c, 0, 64, 69
1, 532191, Control_c, 0, 64, 53
1, 532206, Control_c, 0, 64, 60
1, 532212, Note_off_c, 0, 67, 62
1, 532221, Control_c, 0, 64, 70
1, 532221, Control_c, 0, 67, 106
1, 532225, Note_off_c, 0, 71, 62
1, 532225, Note_off_c, 0, 74, 59
1, 532236, Control_c, 0, 64, 89
1, 532238, Note_off_c, 0, 64, 63
1, 532242, Note_on_c, 0, 72, 37
1, 532251, Control_c, 0, 64, 127
1, 532251, Control_c, 0, 67, 105
1, 532255, Note_on_c, 0, 76, 70
1, 532283, Note_off_c, 0, 72, 55
1, 532309, Control_c, 0, 67, 105
1, 532310, Note_off_c, 0, 76, 60
1, 532329, Note_on_c, 0, 77, 72
1, 532343, Note_on_c, 0, 62, 62
1, 532344, Note_on_c, 0, 69, 64
1, 532352, Note_on_c, 0, 65, 45
1, 532354, Control_c, 0, 67, 105
1, 532379, Note_off_c, 0, 65, 56
1, 532384, Control_c, 0, 67, 106
1, 532385, Note_off_c, 0, 69, 63
1, 532396, Note_off_c, 0, 62, 59
1, 532419, Poly_aftertouch_c, 0, 74, 127
1, 532422, Note_off_c, 0, 77, 61
1, 532428, Control_c, 0, 67, 106
1, 532429, Note_on_c, 0, 79, 69
1, 532432, Note_on_c, 0, 76, 65
1, 532443, Control_c, 0, 67, 107
1, 532444, Poly_aftertouch_c, 0, 74, 0
1, 532486, Note_off_c, 0, 76, 55
1, 532489, Note_off_c, 0, 79, 54
1, 532502, Control_c, 0, 67, 107
1, 532515, Note_on_c, 0, 60, 57
1, 532515, Note_on_c, 0, 67, 59
1, 532516, Note_on_c, 0, 77, 64
1, 532516, Control_c, 0, 64, 86
1, 532525, Note_on_c, 0, 64, 47
1, 532531, Control_c, 0, 64, 65
1, 532543, Note_on_c, 0, 74, 43
1, 532546, Control_c, 0, 64, 45
1, 532552, Note_off_c, 0, 64, 60
1, 532561, Note_off_c, 0, 67, 64
1, 532561, Control_c, 0, 64, 0
1, 532571, Note_off_c, 0, 74, 53
1, 532583, Note_off_c, 0, 60, 58
1, 532590, Control_c, 0, 67, 108
1, 532593, Note_off_c, 0, 77, 61
1, 532599, Note_on_c, 0, 79, 69
1, 532605, Note_on_c, 0, 76, 61
1, 532605, Control_c, 0, 64, 24
1, 532620, Control_c, 0, 64, 27
1, 532636, Control_c, 0, 64, 0
1, 532651, Note_off_c, 0, 79, 57
1, 532651, Control_c, 0, 67, 108
1, 532656, Note_off_c, 0, 76, 52
1, 532666, Control_c, 0, 67, 109
1, 532689, Note_on_c, 0, 77, 67
1, 532695, Note_on_c, 0, 69, 64
1, 532698, Note_on_c, 0, 62, 60
1, 532709, Note_on_c, 0, 65, 45
1, 532718, Note_on_c, 0, 74, 14
1, 532725, Control_c, 0, 67, 108
1, 532729, Note_off_c, 0, 69, 66
1, 532733, Note_off_c, 0, 65, 59
1, 532737, Note_off_c, 0, 62, 67
1, 532739, Control_c, 0, 67, 108
1, 532746, Note_off_c, 0, 77, 52
1, 532754, Control_c, 0, 67, 107
1, 532764, Note_off_c, 0, 74, 35
1, 532769, Control_c, 0, 67, 106
1, 532774, Note_on_c, 0, 79, 66
1, 532781, Note_on_c, 0, 76, 59
1, 532784, Control_c, 0, 64, 73
1, 532784, Control_c, 0, 67, 103
1, 532799, Control_c, 0, 64, 127
1, 532799, Control_c, 0, 67, 101
1, 532821, Control_c, 0, 67, 99
1, 532823, Note_off_c, 0, 76, 50
1, 532825, Note_off_c, 0, 79, 58
1, 532836, Control_c, 0, 67, 96
1, 532851, Control_c, 0, 67, 92
1, 532866, Control_c, 0, 67, 88
1, 532879, Note_on_c, 0, 77, 69
1, 532881, Control_c, 0, 67, 85
1, 532895, Control_c, 0, 67, 81
1, 532910, Control_c, 0, 67, 75
1, 532925, Control_c, 0, 67, 69
1, 532939, Note_off_c, 0, 77, 52
1, 532939, Control_c, 0, 67, 61
1, 532954, Control_c, 0, 67, 53
1, 532961, Note_on_c, 0, 79, 73
1, 532965, Note_on_c, 0, 43, 77
1, 532969, Control_c, 0, 67, 43
1, 532970, Poly_aftertouch_c, 0, 74, 0
1, 532979, Note_on_c, 0, 76, 45
1, 532984, Control_c, 0, 67, 31
1, 532999, Control_c, 0, 67, 11
1, 533008, Note_on_c, 0, 45, 76
1, 533014, Control_c, 0, 67, 0
1, 533017, Note_off_c, 0, 43, 64
1, 533026, Note_off_c, 0, 76, 39
1, 533029, Note_off_c, 0, 45, 68
1, 533031, Note_off_c, 0, 79, 62
1, 533044, Note_on_c, 0, 47, 74
1, 533053, Note_on_c, 0, 77, 72
1, 533064, Note_off_c, 0, 47, 66
1, 533067, Note_on_c, 0, 48, 75
1, 533084, Note_on_c, 0, 50, 74
1, 533088, Note_off_c, 0, 48, 63
1, 533095, Note_on_c, 0, 52, 85
1, 533106, Note_off_c, 0, 50, 67
1, 533107, Note_on_c, 0, 53, 91
1, 533108, Note_on_c, 0, 74, 4
1, 533113, Note_off_c, 0, 52, 67
1, 533121, Note_on_c, 0, 55, 96
1, 533131, Note_off_c, 0, 53, 67
1, 533136, Note_on_c, 0, 79, 82
1, 533137, Note_on_c, 0, 57, 93
1, 533139, Note_off_c, 0, 55, 69
1, 533147, Note_off_c, 0, 77, 59
1, 533157, Note_on_c, 0, 59, 91
1, 533157, Note_off_c, 0, 57, 68
1, 533159, Note_off_c, 0, 74, 45
1, 533161, Note_on_c, 0, 76, 68
1, 533178, Note_off_c, 0, 59, 70
1, 533181, Note_on_c, 0, 60, 85
1, 533200, Note_on_c, 0, 62, 88
1, 533204, Note_off_c, 0, 60, 66
1, 533222, Note_on_c, 0, 64, 80
1, 533222, Note_off_c, 0, 62, 69
1, 533234, Note_off_c, 0, 76, 52
1, 533240, Note_off_c, 0, 64, 69
1, 533258, Note_on_c, 0, 59, 12
1, 533271, Note_off_c, 0, 79, 64
1, 533294, Note_off_c, 0, 59, 55
1, 533302, Poly_aftertouch_c, 0, 57, 0
1, 533318, Note_on_c, 0, 67, 99
1, 533333, Note_on_c, 0, 81, 99
1, 533340, Poly_aftertouch_c, 0, 62, 127
1, 533343, Note_on_c, 0, 77, 94
1, 533365, Poly_aftertouch_c, 0, 62, 0
1, 533371, Note_off_c, 0, 67, 68
1, 533389, Note_off_c, 0, 77, 64
1, 533408, Note_off_c, 0, 81, 60
1, 533443, Control_c, 0, 64, 68
1, 533446, Note_on_c, 0, 83, 87
1, 533458, Control_c, 0, 64, 0
1, 533469, Note_on_c, 0, 79, 68
1, 533473, Control_c, 0, 64, 13
1, 533488, Control_c, 0, 64, 0
1, 533532, Note_off_c, 0, 79, 35
1, 533544, Note_off_c, 0, 83, 64
1, 533556, Note_on_c, 0, 81, 69
1, 533565, Note_on_c, 0, 77, 71
1, 533607, Note_off_c, 0, 77, 60
1, 533621, Note_off_c, 0, 81, 62
1, 533646, Note_on_c, 0, 64, 106
1, 533646, Note_on_c, 0, 83, 84
1, 533651, Note_on_c, 0, 52, 95
1, 533658, Control_c, 0, 64, 59
1, 533663, Note_on_c, 0, 79, 70
1, 533673, Control_c, 0, 64, 105
1, 533688, Control_c, 0, 64, 127
1, 533712, Note_off_c, 0, 52, 62
1, 533720, Note_off_c, 0, 64, 65
1, 533721, Note_off_c, 0, 79, 44
1, 533732, Control_c, 0, 64, 93
1, 533741, Note_off_c, 0, 83, 58
1, 533747, Control_c, 0, 64, 52
1, 533762, Note_on_c, 0, 81, 64
1, 533762, Control_c, 0, 64, 0
1, 533768, Note_on_c, 0, 77, 53
1, 533801, Note_off_c, 0, 77, 63
1, 533816, Note_off_c, 0, 81, 60
1, 533842, Note_on_c, 0, 83, 80
1, 533921, Note_off_c, 0, 83, 62
1, 533942, Note_on_c, 0, 81, 66
1, 533956, Note_on_c, 0, 62, 108
1, 533959, Note_on_c, 0, 50, 100
1, 533969, Control_c, 0, 64, 42
1, 533984, Control_c, 0, 64, 127
1, 533997, Note_off_c, 0, 81, 66
1, 533999, Note_off_c, 0, 50, 70
1, 534000, Note_off_c, 0, 62, 67
1, 534004, Note_on_c, 0, 83, 73
1, 534058, Control_c, 0, 64, 107
1, 534062, Note_on_c, 0, 84, 86
1, 534063, Note_off_c, 0, 83, 65
1, 534072, Control_c, 0, 64, 68
1, 534087, Control_c, 0, 64, 0
1, 534122, Note_on_c, 0, 83, 75
1, 534126, Note_off_c, 0, 84, 67
1, 534173, Note_on_c, 0, 81, 69
1, 534181, Note_off_c, 0, 83, 65
1, 534231, Note_off_c, 0, 81, 65
1, 534238, Note_on_c, 0, 79, 56
1, 534269, Note_off_c, 0, 79, 67
1, 534272, Note_on_c, 0, 47, 110
1, 534272, Note_on_c, 0, 77, 80
1, 534280, Note_on_c, 0, 35, 96
1, 534296, Note_off_c, 0, 77, 70
1, 534296, Control_c, 0, 64, 57
1, 534319, Control_c, 0, 64, 59
1, 534328, Note_on_c, 0, 76, 51
1, 534333, Control_c, 0, 64, 0
1, 534347, Note_off_c, 0, 35, 60
1, 534358, Note_off_c, 0, 47, 63
1, 534385, Note_off_c, 0, 76, 62
1, 534388, Note_on_c, 0, 74, 68
1, 534445, Note_off_c, 0, 74, 65
1, 534450, Note_on_c, 0, 72, 70
1, 534488, Note_off_c, 0, 72, 61
1, 534500, Note_on_c, 0, 71, 70
1, 534526, Note_off_c, 0, 71, 64
1, 534564, Note_on_c, 0, 69, 75
1, 534586, Note_on_c, 0, 45, 108
1, 534593, Note_on_c, 0, 33, 87
1, 534599, Control_c, 0, 64, 76
1, 534614, Control_c, 0, 64, 127
1, 534616, Note_off_c, 0, 33, 67
1, 534620, Note_on_c, 0, 67, 79
1, 534622, Note_off_c, 0, 69, 64
1, 534650, Note_off_c, 0, 45, 67
1, 534664, Note_off_c, 0, 67, 64
1, 534686, Note_on_c, 0, 65, 71
1, 534714, Poly_aftertouch_c, 0, 35, 0
1, 534725, Note_off_c, 0, 65, 58
1, 534759, Note_on_c, 0, 67, 67
1, 534787, Note_off_c, 0, 67, 66
1, 534792, Note_on_c, 0, 69, 65
1, 534852, Note_on_c, 0, 71, 77
1, 534852, Note_off_c, 0, 69, 66
1, 534874, Note_off_c, 0, 71, 68
1, 534885, Note_on_c, 0, 50, 88
1, 534886, Note_on_c, 0, 62, 107
1, 534924, Note_on_c, 0, 72, 74
1, 534930, Note_off_c, 0, 62, 69
1, 534938, Note_off_c, 0, 50, 66
1, 534978, Note_on_c, 0, 74, 77
1, 534981, Note_off_c, 0, 72, 63
1, 534999, Control_c, 0, 64, 87
1, 535009, Poly_aftertouch_c, 0, 71, 0
1, 535013, Note_off_c, 0, 74, 66
1, 535014, Control_c, 0, 64, 39
1, 535019, Note_on_c, 0, 76, 73
1, 535030, Control_c, 0, 64, 0
1, 535053, Note_off_c, 0, 76, 69
1, 535064, Note_on_c, 0, 77, 76
1, 535118, Note_on_c, 0, 79, 75
1, 535141, Note_off_c, 0, 77, 65
1, 535169, Note_off_c, 0, 79, 67
1, 535200, Note_on_c, 0, 43, 104
1, 535205, Note_on_c, 0, 31, 98
1, 535206, Note_on_c, 0, 81, 94
1, 535208, Note_on_c, 0, 77, 97
1, 535230, Control_c, 0, 64, 53
1, 535245, Control_c, 0, 64, 127
1, 535264, Note_on_c, 0, 34, 19
1, 535307, Note_off_c, 0, 34, 41
1, 535327, Note_off_c, 0, 77, 65
1, 535327, Note_off_c, 0, 81, 65
1, 535336, Note_on_c, 0, 79, 69
1, 535339, Note_on_c, 0, 76, 57
1, 535380, Note_off_c, 0, 76, 57
1, 535395, Note_off_c, 0, 31, 55
1, 535401, Note_off_c, 0, 43, 40
1, 535401, Note_off_c, 0, 79, 44
1, 535420, Note_on_c, 0, 81, 75
1, 535425, Note_on_c, 0, 77, 71
1, 535454, Note_on_c, 0, 45, 64
1, 535474, Note_off_c, 0, 81, 61
1, 535477, Note_on_c, 0, 47, 85
1, 535481, Note_off_c, 0, 45, 61
1, 535504, Note_off_c, 0, 47, 68
1, 535506, Note_off_c, 0, 77, 63
1, 535507, Note_on_c, 0, 79, 78
1, 535509, Note_on_c, 0, 76, 72
1, 535513, Note_on_c, 0, 48, 79
1, 535537, Note_off_c, 0, 48, 67
1, 535538, Note_on_c, 0, 50, 80
1, 535543, Note_off_c, 0, 76, 62
1, 535558, Note_off_c, 0, 50, 65
1, 535562, Note_on_c, 0, 52, 72
1, 535576, Note_off_c, 0, 79, 58
1, 535580, Note_on_c, 0, 53, 70
1, 535582, Note_off_c, 0, 52, 63
1, 535586, Note_on_c, 0, 81, 78
1, 535592, Note_on_c, 0, 55, 79
1, 535595, Note_on_c, 0, 77, 64
1, 535601, Note_off_c, 0, 53, 39
1, 535604, Note_on_c, 0, 57, 92
1, 535609, Note_off_c, 0, 55, 66
1, 535616, Note_on_c, 0, 59, 94
1, 535619, Note_off_c, 0, 57, 68
1, 535632, Note_on_c, 0, 60, 93
1, 535640, Note_off_c, 0, 59, 69
1, 535652, Note_off_c, 0, 60, 67
1, 535653, Note_on_c, 0, 62, 94
1, 535668, Note_on_c, 0, 76, 78
1, 535668, Note_on_c, 0, 79, 91
1, 535671, Note_off_c, 0, 77, 63
1, 535673, Control_c, 0, 64, 89
1, 535677, Note_off_c, 0, 81, 58
1, 535678, Note_on_c, 0, 64, 88
1, 535683, Note_off_c, 0, 62, 63
1, 535688, Control_c, 0, 64, 58
1, 535703, Control_c, 0, 64, 0
1, 535717, Note_off_c, 0, 64, 64
1, 535723, Note_on_c, 0, 65, 61
1, 535726, Note_off_c, 0, 76, 64
1, 535744, Note_off_c, 0, 79, 65
1, 535745, Note_off_c, 0, 65, 38
1, 535790, Note_on_c, 0, 77, 93
1, 535791, Note_on_c, 0, 81, 92
1, 535795, Note_on_c, 0, 67, 105
1, 535814, Control_c, 0, 64, 69
1, 535830, Control_c, 0, 64, 127
1, 535849, Note_off_c, 0, 67, 68
1, 535865, Note_off_c, 0, 77, 65
1, 535904, Control_c, 0, 64, 102
1, 535914, Note_on_c, 0, 83, 89
1, 535915, Note_on_c, 0, 79, 82
1, 535919, Note_off_c, 0, 81, 66
1, 535919, Control_c, 0, 64, 61
1, 535934, Control_c, 0, 64, 0
1, 535959, Note_off_c, 0, 79, 59
1, 535994, Note_off_c, 0, 83, 62
1, 535998, Note_on_c, 0, 81, 76
1, 536004, Note_on_c, 0, 77, 78
1, 536051, Note_off_c, 0, 77, 63
1, 536087, Note_on_c, 0, 64, 105
1, 536089, Note_off_c, 0, 81, 56
1, 536093, Note_on_c, 0, 83, 91
1, 536094, Note_on_c, 0, 52, 95
1, 536096, Note_on_c, 0, 79, 73
1, 536111, Control_c, 0, 64, 39
1, 536126, Control_c, 0, 64, 0
1, 536130, Note_off_c, 0, 52, 64
1, 536137, Note_off_c, 0, 64, 66
1, 536153, Note_off_c, 0, 79, 55
1, 536168, Note_off_c, 0, 83, 60
1, 536183, Note_on_c, 0, 81, 76
1, 536198, Note_on_c, 0, 77, 68
1, 536269, Note_off_c, 0, 77, 61
1, 536274, Note_on_c, 0, 83, 77
1, 536275, Note_off_c, 0, 81, 64
1, 536278, Note_on_c, 0, 79, 71
1, 536327, Note_off_c, 0, 79, 62
1, 536330, Note_off_c, 0, 83, 61
1, 536367, Note_on_c, 0, 81, 77
1, 536379, Note_on_c, 0, 62, 112
1, 536379, Note_on_c, 0, 77, 81
1, 536383, Note_on_c, 0, 50, 97
1, 536393, Control_c, 0, 64, 69
1, 536408, Control_c, 0, 64, 127
1, 536430, Note_off_c, 0, 62, 68
1, 536452, Note_off_c, 0, 50, 64
1, 536459, Note_on_c, 0, 83, 84
1, 536459, Note_off_c, 0, 77, 62
1, 536465, Note_off_c, 0, 81, 65
1, 536466, Note_on_c, 0, 79, 74
1, 536531, Note_off_c, 0, 83, 60
1, 536540, Note_off_c, 0, 79, 63
1, 536554, Note_on_c, 0, 81, 72
1, 536568, Note_on_c, 0, 77, 69
1, 536571, Note_on_c, 0, 42, 58
1, 536615, Note_off_c, 0, 77, 54
1, 536647, Note_off_c, 0, 42, 59
1, 536650, Note_on_c, 0, 83, 79
1, 536650, Poly_aftertouch_c, 0, 39, 127
1, 536655, Note_off_c, 0, 81, 60
1, 536656, Note_on_c, 0, 35, 84
1, 536659, Note_on_c, 0, 79, 76
1, 536664, Note_on_c, 0, 47, 90
1, 536684, Poly_aftertouch_c, 0, 39, 0
1, 536686, Note_off_c, 0, 35, 65
1, 536700, Note_off_c, 0, 47, 66
1, 536713, Note_off_c, 0, 83, 58
1, 536735, Note_off_c, 0, 79, 62
1, 536738, Note_on_c, 0, 81, 71
1, 536755, Note_on_c, 0, 77, 70
1, 536796, Note_on_c, 0, 59, 91
1, 536820, Note_off_c, 0, 59, 71
1, 536826, Note_off_c, 0, 77, 64
1, 536828, Note_on_c, 0, 83, 78
1, 536832, Note_on_c, 0, 79, 79
1, 536835, Note_off_c, 0, 81, 63
1, 536845, Control_c, 0, 64, 87
1, 536860, Control_c, 0, 64, 53
1, 536865, Note_off_c, 0, 79, 63
1, 536875, Control_c, 0, 64, 0
1, 536881, Note_off_c, 0, 83, 65
1, 536919, Note_on_c, 0, 81, 83
1, 536924, Note_on_c, 0, 48, 104
1, 536928, Note_on_c, 0, 77, 89
1, 536931, Note_on_c, 0, 36, 92
1, 536934, Control_c, 0, 64, 73
1, 536949, Control_c, 0, 64, 127
1, 536951, Note_off_c, 0, 36, 67
1, 536963, Note_off_c, 0, 48, 68
1, 537012, Note_on_c, 0, 76, 84
1, 537023, Note_on_c, 0, 79, 85
1, 537023, Note_off_c, 0, 77, 65
1, 537028, Note_off_c, 0, 81, 63
1, 537044, Note_on_c, 0, 36, 4
1, 537056, Note_off_c, 0, 76, 62
1, 537059, Note_on_c, 0, 60, 90
1, 537078, Note_off_c, 0, 60, 68
1, 537086, Note_off_c, 0, 36, 38
1, 537106, Note_on_c, 0, 81, 89
1, 537112, Note_off_c, 0, 79, 63
1, 537119, Note_on_c, 0, 77, 84
1, 537142, Control_c, 0, 64, 64
1, 537157, Control_c, 0, 64, 0
1, 537163, Note_off_c, 0, 81, 64
1, 537171, Note_off_c, 0, 77, 0
1, 537181, Note_on_c, 0, 60, 3
1, 537182, Note_off_c, 0, 60, 127
1, 537190, Note_on_c, 0, 45, 101
1, 537196, Note_on_c, 0, 33, 93
1, 537196, Note_on_c, 0, 79, 93
1, 537199, Note_on_c, 0, 76, 83
1, 537201, Control_c, 0, 64, 49
1, 537212, Poly_aftertouch_c, 0, 77, 0
1, 537216, Control_c, 0, 64, 80
1, 537218, Note_off_c, 0, 33, 65
1, 537226, Note_off_c, 0, 45, 68
1, 537231, Control_c, 0, 64, 127
1, 537251, Note_off_c, 0, 76, 62
1, 537266, Note_off_c, 0, 79, 64
1, 537271, Note_on_c, 0, 81, 61
1, 537317, Note_on_c, 0, 77, 67
1, 537330, Note_on_c, 0, 57, 96
1, 537357, Note_off_c, 0, 57, 67
1, 537387, Note_on_c, 0, 79, 84
1, 537398, Note_off_c, 0, 81, 60
1, 537406, Note_off_c, 0, 77, 59
1, 537428, Note_on_c, 0, 76, 53
1, 537475, Note_off_c, 0, 76, 49
1, 537489, Note_off_c, 0, 79, 62
1, 537550, Control_c, 0, 64, 84
1, 537562, Note_on_c, 0, 43, 111
1, 537563, Note_on_c, 0, 31, 100
1, 537565, Note_on_c, 0, 81, 106
1, 537565, Control_c, 0, 64, 30
1, 537569, Note_on_c, 0, 77, 90
1, 537580, Control_c, 0, 64, 0
1, 537650, Note_off_c, 0, 77, 48
1, 537686, Note_off_c, 0, 81, 66
1, 537688, Note_on_c, 0, 83, 85
1, 537755, Note_off_c, 0, 83, 60
1, 537758, Control_c, 0, 64, 8
1, 537767, Note_on_c, 0, 84, 82
1, 537773, Control_c, 0, 64, 77
1, 537788, Control_c, 0, 64, 127
1, 537810, Note_off_c, 0, 84, 69
1, 537812, Note_on_c, 0, 83, 81
1, 537825, Note_off_c, 0, 31, 63
1, 537858, Note_on_c, 0, 81, 68
1, 537870, Poly_aftertouch_c, 0, 32, 0
1, 537870, Note_off_c, 0, 83, 66
1, 537886, Note_off_c, 0, 43, 64
1, 537898, Poly_aftertouch_c, 0, 32, 0
1, 537906, Control_c, 0, 64, 78
1, 537910, Note_off_c, 0, 81, 65
1, 537914, Note_on_c, 0, 79, 73
1, 537920, Control_c, 0, 64, 24
1, 537935, Control_c, 0, 64, 0
1, 537942, Note_off_c, 0, 79, 68
1, 537946, Note_on_c, 0, 77, 77
1, 537971, Note_off_c, 0, 77, 69
1, 538004, Note_on_c, 0, 76, 75
1, 538032, Note_off_c, 0, 76, 65
1, 538049, Note_on_c, 0, 74, 65
1, 538102, Note_on_c, 0, 72, 82
1, 538107, Note_off_c, 0, 74, 65
1, 538147, Note_on_c, 0, 55, 117
1, 538149, Note_on_c, 0, 43, 91
1, 538149, Note_on_c, 0, 71, 76
1, 538149, Note_off_c, 0, 72, 63
1, 538150, Control_c, 0, 64, 46
1, 538165, Control_c, 0, 64, 64
1, 538180, Control_c, 0, 64, 59
1, 538186, Note_off_c, 0, 71, 60
1, 538193, Note_off_c, 0, 55, 68
1, 538195, Control_c, 0, 64, 0
1, 538205, Note_on_c, 0, 69, 83
1, 538212, Note_off_c, 0, 43, 62
1, 538260, Note_off_c, 0, 69, 67
1, 538269, Note_on_c, 0, 67, 67
1, 538311, Note_off_c, 0, 67, 45
1, 538326, Note_on_c, 0, 65, 76
1, 538361, Note_off_c, 0, 65, 62
1, 538375, Note_on_c, 0, 67, 71
1, 538397, Note_off_c, 0, 67, 68
1, 538414, Note_on_c, 0, 69, 73
1, 538448, Control_c, 0, 64, 49
1, 538449, Note_on_c, 0, 31, 84
1, 538450, Note_on_c, 0, 43, 105
1, 538463, Control_c, 0, 64, 96
1, 538469, Note_off_c, 0, 69, 69
1, 538474, Note_on_c, 0, 38, 51
1, 538474, Note_on_c, 0, 71, 72
1, 538478, Control_c, 0, 64, 127
1, 538478, Note_off_c, 0, 31, 67
1, 538493, Note_on_c, 0, 32, 35
1, 538494, Note_off_c, 0, 32, 127
1, 538497, Note_off_c, 0, 71, 66
1, 538498, Note_off_c, 0, 43, 66
1, 538508, Note_off_c, 0, 38, 51
1, 538528, Note_on_c, 0, 72, 80
1, 538533, Poly_aftertouch_c, 0, 32, 0
1, 538579, Note_on_c, 0, 74, 80
1, 538579, Note_off_c, 0, 72, 64
1, 538606, Note_off_c, 0, 74, 70
1, 538612, Note_on_c, 0, 76, 79
1, 538654, Note_off_c, 0, 76, 68
1, 538662, Note_on_c, 0, 77, 87
1, 538687, Note_on_c, 0, 79, 74
1, 538707, Note_off_c, 0, 77, 64
1, 538707, Note_off_c, 0, 79, 69
1, 538762, Note_on_c, 0, 62, 110
1, 538765, Note_on_c, 0, 50, 99
1, 538769, Note_on_c, 0, 81, 101
1, 538770, Note_on_c, 0, 77, 99
1, 538812, Note_off_c, 0, 62, 68
1, 538814, Note_off_c, 0, 50, 66
1, 538890, Note_on_c, 0, 76, 81
1, 538890, Note_on_c, 0, 79, 78
1, 538895, Note_off_c, 0, 77, 65
1, 538895, Note_off_c, 0, 81, 64
1, 538933, Note_off_c, 0, 76, 57
1, 538980, Note_on_c, 0, 81, 84
1, 538980, Note_off_c, 0, 79, 65
1, 538990, Note_on_c, 0, 77, 72
1, 539023, Note_off_c, 0, 77, 60
1, 539036, Note_off_c, 0, 81, 62
1, 539048, Control_c, 0, 64, 101
1, 539063, Control_c, 0, 64, 57
1, 539074, Note_on_c, 0, 79, 94
1, 539078, Control_c, 0, 64, 0
1, 539081, Note_on_c, 0, 47, 103
1, 539084, Note_on_c, 0, 76, 73
1, 539089, Note_on_c, 0, 35, 94
1, 539101, Note_on_c, 0, 77, 50
1, 539121, Note_off_c, 0, 77, 57
1, 539121, Control_c, 0, 64, 46
1, 539126, Note_off_c, 0, 76, 59
1, 539133, Note_off_c, 0, 79, 61
1, 539136, Control_c, 0, 64, 66
1, 539151, Control_c, 0, 64, 85
1, 539164, Note_on_c, 0, 81, 28
1, 539166, Control_c, 0, 64, 127
1, 539173, Note_on_c, 0, 77, 84
1, 539202, Note_off_c, 0, 47, 58
1, 539205, Note_off_c, 0, 35, 50
1, 539219, Note_off_c, 0, 77, 55
1, 539247, Note_off_c, 0, 81, 0
1, 539259, Note_on_c, 0, 79, 89
1, 539263, Note_on_c, 0, 76, 76
1, 539285, Control_c, 0, 64, 83
1, 539292, Note_off_c, 0, 76, 63
1, 539299, Poly_aftertouch_c, 0, 81, 0
1, 539300, Control_c, 0, 64, 56
1, 539306, Note_off_c, 0, 79, 65
1, 539314, Control_c, 0, 64, 0
1, 539372, Note_on_c, 0, 77, 100
1, 539375, Note_on_c, 0, 81, 95
1, 539385, Note_on_c, 0, 33, 91
1, 539385, Note_on_c, 0, 45, 107
1, 539387, Note_on_c, 0, 74, 85
1, 539418, Control_c, 0, 64, 96
1, 539425, Note_off_c, 0, 33, 63
1, 539428, Note_on_c, 0, 36, 11
1, 539430, Note_on_c, 0, 35, 25
1, 539431, Note_off_c, 0, 35, 127
1, 539433, Control_c, 0, 64, 127
1, 539448, Note_off_c, 0, 45, 68
1, 539448, Note_off_c, 0, 77, 64
1, 539464, Poly_aftertouch_c, 0, 35, 0
1, 539471, Note_on_c, 0, 79, 82
1, 539473, Note_off_c, 0, 36, 47
1, 539476, Note_off_c, 0, 74, 63
1, 539481, Note_off_c, 0, 81, 63
1, 539529, Note_off_c, 0, 79, 66
1, 539539, Note_on_c, 0, 77, 78
1, 539604, Note_on_c, 0, 79, 72
1, 539605, Note_off_c, 0, 77, 66
1, 539651, Note_off_c, 0, 79, 67
1, 539659, Note_on_c, 0, 81, 79
1, 539682, Note_off_c, 0, 81, 68
1, 539699, Note_on_c, 0, 67, 118
1, 539700, Note_on_c, 0, 55, 89
1, 539740, Note_off_c, 0, 67, 69
1, 539741, Note_on_c, 0, 83, 83
1, 539765, Note_off_c, 0, 55, 64
1, 539777, Note_on_c, 0, 84, 73
1, 539779, Note_off_c, 0, 83, 66
1, 539791, Poly_aftertouch_c, 0, 57, 127
1, 539804, Note_off_c, 0, 84, 69
1, 539823, Note_on_c, 0, 86, 71
1, 539823, Poly_aftertouch_c, 0, 57, 0
1, 539864, Note_off_c, 0, 86, 67
1, 539879, Note_on_c, 0, 88, 68
1, 539888, Note_on_c, 0, 89, 59
1, 539895, Note_off_c, 0, 88, 68
1, 539907, Note_off_c, 0, 89, 62
1, 539940, Note_on_c, 0, 91, 77
1, 539982, Note_off_c, 0, 91, 63
1, 539987, Note_on_c, 0, 93, 77
1, 539989, Control_c, 0, 64, 94
1, 540004, Control_c, 0, 64, 58
1, 540019, Control_c, 0, 64, 0
1, 540028, Note_off_c, 0, 93, 65
1, 540031, Note_on_c, 0, 95, 57
1, 540049, Note_on_c, 0, 43, 107
1, 540052, Note_on_c, 0, 31, 95
1, 540060, Note_on_c, 0, 96, 95
1, 540069, Note_on_c, 0, 38, 69
1, 540078, Note_off_c, 0, 95, 67
1, 540093, Control_c, 0, 64, 102
1, 540108, Control_c, 0, 64, 127
1, 540132, Note_on_c, 0, 95, 71
1, 540138, Note_off_c, 0, 96, 66
1, 540146, Note_on_c, 0, 33, 2
1, 540162, Note_off_c, 0, 38, 53
1, 540173, Note_on_c, 0, 93, 67
1, 540192, Note_off_c, 0, 95, 67
1, 540197, Note_off_c, 0, 33, 29
1, 540219, Note_off_c, 0, 93, 63
1, 540220, Note_on_c, 0, 91, 75
1, 540245, Note_off_c, 0, 91, 68
1, 540246, Note_off_c, 0, 43, 59
1, 540257, Note_off_c, 0, 31, 56
1, 540284, Note_on_c, 0, 89, 76
1, 540302, Note_on_c, 0, 45, 57
1, 540320, Note_on_c, 0, 88, 64
1, 540335, Note_on_c, 0, 47, 79
1, 540338, Note_off_c, 0, 89, 64
1, 540357, Note_off_c, 0, 45, 65
1, 540374, Note_on_c, 0, 86, 77
1, 540376, Note_off_c, 0, 88, 66
1, 540376, Note_off_c, 0, 47, 59
1, 540378, Note_on_c, 0, 48, 75
1, 540398, Note_off_c, 0, 48, 67
1, 540406, Note_on_c, 0, 50, 87
1, 540424, Note_off_c, 0, 86, 65
1, 540428, Note_off_c, 0, 50, 67
1, 540430, Note_on_c, 0, 52, 80
1, 540442, Note_on_c, 0, 84, 51
1, 540450, Note_off_c, 0, 52, 67
1, 540453, Note_on_c, 0, 53, 82
1, 540469, Note_off_c, 0, 53, 67
1, 540470, Note_on_c, 0, 55, 87
1, 540475, Note_off_c, 0, 84, 66
1, 540479, Note_on_c, 0, 83, 72
1, 540490, Note_on_c, 0, 57, 88
1, 540497, Note_off_c, 0, 55, 67
1, 540508, Note_off_c, 0, 83, 66
1, 540511, Note_on_c, 0, 59, 89
1, 540511, Note_off_c, 0, 57, 67
1, 540530, Note_off_c, 0, 59, 70
1, 540535, Note_on_c, 0, 60, 90
1, 540556, Note_off_c, 0, 60, 67
1, 540560, Note_on_c, 0, 81, 68
1, 540561, Note_on_c, 0, 62, 88
1, 540582, Note_off_c, 0, 62, 69
1, 540598, Note_on_c, 0, 64, 59
1, 540606, Note_on_c, 0, 59, 7
1, 540607, Note_off_c, 0, 81, 44
1, 540621, Note_off_c, 0, 64, 64
1, 540622, Note_on_c, 0, 79, 79
1, 540630, Poly_aftertouch_c, 0, 57, 0
1, 540650, Note_off_c, 0, 79, 64
1, 540656, Poly_aftertouch_c, 0, 57, 0
1, 540656, Note_off_c, 0, 59, 35
1, 540675, Note_on_c, 0, 67, 104
1, 540685, Note_on_c, 0, 81, 81
1, 540685, Poly_aftertouch_c, 0, 62, 127
1, 540690, Note_on_c, 0, 62, 3
1, 540698, Poly_aftertouch_c, 0, 60, 0
1, 540728, Note_off_c, 0, 67, 68
1, 540729, Note_off_c, 0, 62, 52
1, 540738, Note_off_c, 0, 81, 66
1, 540740, Note_on_c, 0, 83, 81
1, 540815, Note_off_c, 0, 83, 66
1, 540818, Note_on_c, 0, 81, 72
1, 540856, Note_off_c, 0, 81, 60
1, 540866, Note_on_c, 0, 79, 78
1, 540901, Control_c, 0, 64, 72
1, 540903, Note_off_c, 0, 79, 57
1, 540916, Control_c, 0, 64, 35
1, 540929, Note_on_c, 0, 81, 63
1, 540931, Control_c, 0, 64, 0
1, 540934, Poly_aftertouch_c, 0, 42, 0
1, 540954, Note_off_c, 0, 81, 68
1, 540956, Note_on_c, 0, 83, 77
1, 540967, Note_on_c, 0, 52, 98
1, 540970, Note_on_c, 0, 40, 85
1, 540975, Control_c, 0, 64, 43
1, 540977, Note_off_c, 0, 83, 70
1, 540990, Control_c, 0, 64, 68
1, 540992, Note_off_c, 0, 40, 67
1, 541005, Control_c, 0, 64, 90
1, 541015, Note_off_c, 0, 52, 67
1, 541019, Control_c, 0, 64, 127
1, 541021, Note_on_c, 0, 84, 77
1, 541077, Note_off_c, 0, 84, 65
1, 541083, Note_on_c, 0, 86, 62
1, 541125, Note_on_c, 0, 88, 73
1, 541130, Note_off_c, 0, 86, 65
1, 541132, Note_on_c, 0, 64, 52
1, 541152, Note_off_c, 0, 64, 64
1, 541155, Note_off_c, 0, 88, 65
1, 541157, Poly_aftertouch_c, 0, 40, 0
1, 541163, Note_on_c, 0, 62, 12
1, 541210, Note_off_c, 0, 62, 44
1, 541215, Note_on_c, 0, 91, 68
1, 541234, Control_c, 0, 64, 89
1, 541249, Control_c, 0, 64, 57
1, 541252, Note_on_c, 0, 93, 82
1, 541259, Note_off_c, 0, 91, 65
1, 541264, Control_c, 0, 64, 0
1, 541285, Note_on_c, 0, 50, 101
1, 541290, Note_on_c, 0, 38, 93
1, 541293, Control_c, 0, 64, 35
1, 541295, Note_on_c, 0, 95, 77
1, 541308, Control_c, 0, 64, 74
1, 541315, Note_off_c, 0, 38, 70
1, 541316, Note_off_c, 0, 93, 65
1, 541320, Note_on_c, 0, 96, 90
1, 541323, Control_c, 0, 64, 127
1, 541342, Note_off_c, 0, 95, 68
1, 541344, Note_off_c, 0, 50, 65
1, 541390, Note_on_c, 0, 95, 78
1, 541406, Note_off_c, 0, 96, 66
1, 541456, Note_on_c, 0, 93, 60
1, 541456, Note_on_c, 0, 62, 76
1, 541457, Note_off_c, 0, 95, 66
1, 541459, Note_on_c, 0, 64, 64
1, 541473, Note_off_c, 0, 62, 69
1, 541478, Note_off_c, 0, 64, 65
1, 541479, Note_on_c, 0, 91, 77
1, 541487, Note_off_c, 0, 93, 65
1, 541501, Note_off_c, 0, 91, 70
1, 541548, Note_on_c, 0, 89, 78
1, 541584, Note_on_c, 0, 47, 104
1, 541589, Note_on_c, 0, 35, 93
1, 541592, Note_on_c, 0, 88, 65
1, 541598, Note_off_c, 0, 89, 64
1, 541610, Note_off_c, 0, 35, 67
1, 541623, Note_off_c, 0, 47, 66
1, 541631, Note_on_c, 0, 86, 78
1, 541632, Poly_aftertouch_c, 0, 91, 0
1, 541645, Note_off_c, 0, 88, 68
1, 541686, Note_on_c, 0, 84, 70
1, 541690, Note_off_c, 0, 86, 65
1, 541719, Note_off_c, 0, 84, 66
1, 541733, Note_on_c, 0, 59, 82
1, 541742, Note_on_c, 0, 83, 49
1, 541756, Note_off_c, 0, 59, 69
1, 541762, Poly_aftertouch_c, 0, 35, 0
1, 541766, Note_off_c, 0, 83, 60
1, 541800, Note_on_c, 0, 81, 78
1, 541829, Note_off_c, 0, 81, 65
1, 541836, Control_c, 0, 64, 79
1, 541848, Note_on_c, 0, 59, 7
1, 541850, Control_c, 0, 64, 0
1, 541859, Note_off_c, 0, 59, 55
1, 541869, Note_on_c, 0, 79, 87
1, 541881, Note_on_c, 0, 47, 94
1, 541884, Note_on_c, 0, 45, 91
1, 541889, Note_on_c, 0, 35, 76
1, 541891, Note_on_c, 0, 33, 70
1, 541894, Control_c, 0, 64, 19
1, 541897, Note_on_c, 0, 81, 75
1, 541903, Note_off_c, 0, 79, 63
1, 541909, Control_c, 0, 64, 84
1, 541911, Note_off_c, 0, 45, 62
1, 541912, Note_off_c, 0, 35, 64
1, 541915, Note_off_c, 0, 33, 61
1, 541924, Note_off_c, 0, 47, 66
1, 541924, Control_c, 0, 64, 127
1, 541958, Note_on_c, 0, 83, 87
1, 541958, Note_off_c, 0, 81, 65
1, 542016, Note_on_c, 0, 57, 92
1, 542027, Note_off_c, 0, 83, 66
1, 542029, Note_on_c, 0, 81, 80
1, 542043, Note_off_c, 0, 57, 68
1, 542070, Note_on_c, 0, 79, 81
1, 542070, Note_off_c, 0, 81, 65
1, 542116, Note_on_c, 0, 81, 73
1, 542117, Note_off_c, 0, 79, 58
1, 542143, Note_on_c, 0, 83, 81
1, 542153, Note_off_c, 0, 81, 65
1, 542154, Note_on_c, 0, 55, 98
1, 542159, Note_on_c, 0, 43, 88
1, 542164, Note_off_c, 0, 83, 72
1, 542181, Note_off_c, 0, 43, 68
1, 542193, Note_off_c, 0, 55, 67
1, 542217, Note_on_c, 0, 84, 81
1, 542263, Note_on_c, 0, 86, 61
1, 542265, Note_off_c, 0, 84, 66
1, 542289, Note_on_c, 0, 67, 93
1, 542295, Poly_aftertouch_c, 0, 43, 127
1, 542301, Note_off_c, 0, 86, 66
1, 542309, Note_off_c, 0, 67, 70
1, 542322, Note_on_c, 0, 88, 53
1, 542328, Note_on_c, 0, 89, 46
1, 542338, Poly_aftertouch_c, 0, 43, 0
1, 542344, Note_off_c, 0, 88, 62
1, 542354, Note_off_c, 0, 89, 57
1, 542382, Note_on_c, 0, 91, 75
1, 542419, Note_on_c, 0, 93, 86
1, 542426, Note_off_c, 0, 91, 64
1, 542444, Control_c, 0, 64, 65
1, 542458, Control_c, 0, 64, 0
1, 542469, Note_on_c, 0, 95, 76
1, 542493, Note_on_c, 0, 96, 94
1, 542494, Note_on_c, 0, 43, 100
1, 542499, Note_on_c, 0, 31, 97
1, 542502, Note_off_c, 0, 93, 64
1, 542523, Note_off_c, 0, 95, 68
1, 542545, Note_on_c, 0, 32, 34
1, 542555, Control_c, 0, 64, 80
1, 542570, Control_c, 0, 64, 127
1, 542582, Note_on_c, 0, 95, 84
1, 542587, Note_off_c, 0, 32, 48
1, 542609, Note_off_c, 0, 96, 66
1, 542634, Note_on_c, 0, 93, 67
1, 542651, Note_off_c, 0, 95, 65
1, 542671, Note_on_c, 0, 91, 78
1, 542676, Note_off_c, 0, 93, 63
1, 542690, Note_on_c, 0, 33, 46
1, 542695, Note_off_c, 0, 91, 70
1, 542698, Note_off_c, 0, 43, 64
1, 542709, Note_off_c, 0, 31, 61
1, 542715, Note_on_c, 0, 45, 63
1, 542724, Note_on_c, 0, 35, 66
1, 542734, Note_off_c, 0, 33, 56
1, 542737, Note_on_c, 0, 89, 77
1, 542742, Note_on_c, 0, 47, 84
1, 542743, Note_off_c, 0, 45, 66
1, 542754, Note_on_c, 0, 36, 69
1, 542764, Note_off_c, 0, 47, 68
1, 542769, Note_off_c, 0, 35, 59
1, 542772, Note_on_c, 0, 88, 72
1, 542775, Note_on_c, 0, 48, 81
1, 542785, Note_off_c, 0, 36, 62
1, 542786, Note_off_c, 0, 89, 66
1, 542788, Note_on_c, 0, 38, 65
1, 542797, Note_off_c, 0, 48, 68
1, 542801, Note_on_c, 0, 50, 83
1, 542818, Note_on_c, 0, 86, 77
1, 542818, Note_off_c, 0, 38, 62
1, 542820, Note_off_c, 0, 50, 68
1, 542821, Note_on_c, 0, 40, 59
1, 542823, Note_on_c, 0, 52, 83
1, 542839, Note_off_c, 0, 88, 67
1, 542840, Note_on_c, 0, 53, 87
1, 542841, Note_off_c, 0, 52, 66
1, 542851, Note_on_c, 0, 41, 51
1, 542851, Note_off_c, 0, 40, 56
1, 542858, Note_on_c, 0, 55, 83
1, 542864, Note_off_c, 0, 53, 64
1, 542866, Note_on_c, 0, 84, 66
1, 542869, Note_on_c, 0, 43, 53
1, 542872, Note_off_c, 0, 86, 63
1, 542877, Note_off_c, 0, 55, 66
1, 542878, Note_on_c, 0, 57, 78
1, 542882, Note_off_c, 0, 41, 53
1, 542888, Note_on_c, 0, 45, 48
1, 542893, Note_on_c, 0, 59, 83
1, 542895, Note_off_c, 0, 43, 61
1, 542897, Note_off_c, 0, 57, 64
1, 542905, Note_on_c, 0, 47, 32
1, 542906, Note_on_c, 0, 83, 78
1, 542908, Note_on_c, 0, 60, 83
1, 542911, Note_on_c, 0, 48, 29
1, 542911, Note_off_c, 0, 59, 67
1, 542916, Note_off_c, 0, 84, 65
1, 542923, Note_on_c, 0, 62, 84
1, 542923, Note_off_c, 0, 60, 67
1, 542925, Note_on_c, 0, 50, 49
1, 542930, Note_off_c, 0, 45, 47
1, 542931, Note_off_c, 0, 47, 62
1, 542939, Note_off_c, 0, 62, 72
1, 542941, Note_on_c, 0, 64, 87
1, 542943, Note_off_c, 0, 48, 48
1, 542943, Note_off_c, 0, 83, 63
1, 542944, Note_on_c, 0, 52, 46
1, 542950, Note_off_c, 0, 50, 56
1, 542970, Note_off_c, 0, 52, 56
1, 542971, Note_on_c, 0, 65, 76
1, 542972, Note_on_c, 0, 53, 22
1, 542973, Note_off_c, 0, 64, 62
1, 542982, Note_on_c, 0, 81, 81
1, 542992, Note_off_c, 0, 65, 65
1, 542994, Note_off_c, 0, 53, 54
1, 543013, Note_off_c, 0, 81, 64
1, 543059, Note_on_c, 0, 79, 82
1, 543059, Poly_aftertouch_c, 0, 62, 127
1, 543074, Poly_aftertouch_c, 0, 60, 0
1, 543085, Note_on_c, 0, 67, 120
1, 543091, Note_on_c, 0, 55, 97
1, 543092, Poly_aftertouch_c, 0, 62, 0
1, 543101, Note_on_c, 0, 81, 85
1, 543111, Note_off_c, 0, 79, 65
1, 543113, Note_off_c, 0, 55, 68
1, 543128, Note_off_c, 0, 67, 66
1, 543165, Note_on_c, 0, 83, 85
1, 543165, Note_off_c, 0, 81, 64
1, 543239, Note_off_c, 0, 83, 67
1, 543249, Note_on_c, 0, 81, 67
1, 543275, Note_on_c, 0, 79, 89
1, 543275, Note_off_c, 0, 81, 68
1, 543328, Note_off_c, 0, 79, 63
1, 543336, Note_on_c, 0, 81, 77
1, 543380, Note_on_c, 0, 83, 81
1, 543387, Note_off_c, 0, 81, 67
1, 543411, Note_off_c, 0, 83, 67
1, 543456, Note_on_c, 0, 84, 79
1, 543506, Note_on_c, 0, 86, 79
1, 543506, Note_off_c, 0, 84, 66
1, 543545, Note_on_c, 0, 88, 78
1, 543551, Note_off_c, 0, 86, 65
1, 543569, Note_on_c, 0, 89, 83
1, 543570, Control_c, 0, 64, 99
1, 543585, Control_c, 0, 64, 71
1, 543597, Note_off_c, 0, 88, 67
1, 543600, Control_c, 0, 64, 42
1, 543608, Note_on_c, 0, 91, 76
1, 543614, Control_c, 0, 64, 0
1, 543630, Note_off_c, 0, 91, 66
1, 543638, Note_off_c, 0, 89, 67
1, 543673, Note_on_c, 0, 93, 99
1, 543676, Note_on_c, 0, 89, 89
1, 543676, Note_on_c, 0, 50, 104
1, 543679, Note_on_c, 0, 81, 101
1, 543680, Note_on_c, 0, 45, 93
1, 543680, Note_on_c, 0, 86, 95
1, 543681, Note_on_c, 0, 38, 86
1, 543688, Control_c, 0, 64, 35
1, 543695, Note_off_c, 0, 81, 74
1, 543698, Note_off_c, 0, 86, 72
1, 543703, Control_c, 0, 64, 127
1, 543704, Note_off_c, 0, 38, 67
1, 543709, Note_off_c, 0, 93, 65
1, 543710, Note_off_c, 0, 89, 64
1, 543719, Note_off_c, 0, 45, 68
1, 543719, Note_off_c, 0, 50, 71
1, 543754, Note_on_c, 0, 43, 3
1, 543804, Note_off_c, 0, 43, 48
1, 543837, Control_c, 0, 64, 60
1, 543851, Poly_aftertouch_c, 0, 38, 0
1, 543852, Control_c, 0, 64, 0
1, 543897, Control_c, 0, 67, 38
1, 543911, Control_c, 0, 67, 69
1, 543926, Control_c, 0, 67, 100
1, 543941, Control_c, 0, 67, 123
1, 543956, Control_c, 0, 67, 127
1, 544096, Note_on_c, 0, 69, 53
1, 544097, Note_on_c, 0, 62, 47
1, 544120, Note_off_c, 0, 69, 61
1, 544139, Note_off_c, 0, 62, 62
1, 544166, Note_on_c, 0, 69, 51
1, 544172, Note_on_c, 0, 74, 56
1, 544189, Note_off_c, 0, 69, 63
1, 544214, Note_off_c, 0, 74, 64
1, 544246, Note_on_c, 0, 77, 66
1, 544249, Note_on_c, 0, 62, 55
1, 544264, Note_on_c, 0, 69, 60
1, 544281, Note_off_c, 0, 77, 60
1, 544285, Note_off_c, 0, 69, 0
1, 544287, Note_off_c, 0, 62, 65
1, 544309, Note_on_c, 0, 69, 58
1, 544320, Note_on_c, 0, 74, 61
1, 544340, Note_off_c, 0, 69, 68
1, 544362, Note_off_c, 0, 74, 60
1, 544389, Note_on_c, 0, 77, 72
1, 544392, Note_on_c, 0, 62, 61
1, 544400, Note_on_c, 0, 69, 61
1, 544420, Note_off_c, 0, 69, 65
1, 544425, Note_off_c, 0, 62, 64
1, 544439, Note_off_c, 0, 77, 60
1, 544453, Note_on_c, 0, 69, 64
1, 544455, Note_on_c, 0, 81, 71
1, 544481, Note_off_c, 0, 69, 67
1, 544484, Note_off_c, 0, 81, 64
1, 544539, Note_on_c, 0, 69, 80
1, 544546, Note_on_c, 0, 76, 92
1, 544567, Note_off_c, 0, 76, 67
1, 544573, Note_on_c, 0, 62, 19
1, 544581, Note_off_c, 0, 69, 65
1, 544617, Note_on_c, 0, 69, 65
1, 544618, Note_off_c, 0, 62, 37
1, 544647, Note_off_c, 0, 69, 67
1, 544712, Note_on_c, 0, 69, 72
1, 544718, Note_on_c, 0, 72, 84
1, 544720, Note_on_c, 0, 62, 51
1, 544743, Note_off_c, 0, 72, 67
1, 544751, Note_off_c, 0, 62, 58
1, 544751, Note_off_c, 0, 69, 62
1, 544806, Note_on_c, 0, 69, 64
1, 544826, Note_off_c, 0, 69, 66
1, 544876, Note_on_c, 0, 76, 95
1, 544884, Note_on_c, 0, 69, 77
1, 544908, Note_off_c, 0, 69, 68
1, 544910, Note_off_c, 0, 76, 64
1, 544951, Note_on_c, 0, 69, 77
1, 544973, Poly_aftertouch_c, 0, 62, 0
1, 544987, Note_off_c, 0, 69, 63
1, 545031, Note_on_c, 0, 79, 94
1, 545048, Note_on_c, 0, 69, 64
1, 545067, Note_off_c, 0, 79, 68
1, 545068, Note_off_c, 0, 69, 64
1, 545071, Note_on_c, 0, 62, 38
1, 545104, Note_off_c, 0, 62, 49
1, 545138, Note_on_c, 0, 69, 53
1, 545164, Note_off_c, 0, 69, 61
1, 545206, Note_on_c, 0, 77, 99
1, 545216, Control_c, 0, 64, 45
1, 545217, Note_on_c, 0, 62, 57
1, 545225, Note_on_c, 0, 69, 66
1, 545231, Control_c, 0, 64, 64
1, 545245, Note_off_c, 0, 69, 63
1, 545245, Control_c, 0, 64, 71
1, 545259, Note_off_c, 0, 62, 66
1, 545260, Control_c, 0, 64, 83
1, 545275, Control_c, 0, 64, 106
1, 545290, Control_c, 0, 64, 127
1, 545310, Note_on_c, 0, 69, 67
1, 545319, Note_off_c, 0, 77, 65
1, 545328, Note_off_c, 0, 69, 69
1, 545379, Control_c, 0, 64, 93
1, 545392, Note_on_c, 0, 69, 66
1, 545393, Control_c, 0, 64, 60
1, 545400, Note_on_c, 0, 62, 45
1, 545401, Note_on_c, 0, 77, 78
1, 545409, Control_c, 0, 64, 0
1, 545415, Note_off_c, 0, 69, 61
1, 545432, Note_off_c, 0, 62, 56
1, 545450, Note_off_c, 0, 77, 57
1, 545462, Note_on_c, 0, 69, 66
1, 545468, Note_on_c, 0, 74, 78
1, 545477, Note_off_c, 0, 69, 71
1, 545536, Note_on_c, 0, 69, 73
1, 545538, Note_off_c, 0, 74, 64
1, 545540, Note_on_c, 0, 62, 56
1, 545544, Note_on_c, 0, 77, 83
1, 545561, Note_off_c, 0, 69, 65
1, 545565, Control_c, 0, 67, 126
1, 545580, Control_c, 0, 67, 112
1, 545586, Note_off_c, 0, 62, 65
1, 545595, Control_c, 0, 67, 100
1, 545599, Note_off_c, 0, 77, 63
1, 545606, Note_on_c, 0, 69, 78
1, 545610, Control_c, 0, 67, 85
1, 545617, Note_on_c, 0, 74, 80
1, 545624, Control_c, 0, 67, 63
1, 545630, Note_off_c, 0, 69, 69
1, 545639, Control_c, 0, 67, 28
1, 545654, Control_c, 0, 67, 0
1, 545676, Note_on_c, 0, 69, 79
1, 545680, Note_on_c, 0, 62, 70
1, 545680, Note_off_c, 0, 74, 57
1, 545694, Note_on_c, 0, 77, 86
1, 545711, Note_off_c, 0, 69, 61
1, 545716, Note_off_c, 0, 62, 67
1, 545754, Note_off_c, 0, 77, 65
1, 545759, Note_on_c, 0, 81, 79
1, 545767, Poly_aftertouch_c, 0, 69, 127
1, 545774, Poly_aftertouch_c, 0, 69, 0
1, 545822, Note_off_c, 0, 81, 63
1, 545828, Note_on_c, 0, 76, 101
1, 545832, Note_on_c, 0, 69, 85
1, 545855, Note_on_c, 0, 62, 44
1, 545862, Note_off_c, 0, 76, 67
1, 545879, Note_off_c, 0, 69, 64
1, 545884, Note_off_c, 0, 62, 54
1, 545906, Note_on_c, 0, 69, 70
1, 545906, Control_c, 0, 67, 8
1, 545921, Control_c, 0, 67, 10
1, 545935, Control_c, 0, 67, 11
1, 545943, Note_off_c, 0, 69, 67
1, 545950, Control_c, 0, 67, 12
1, 545965, Control_c, 0, 67, 14
1, 545980, Control_c, 0, 67, 17
1, 545995, Control_c, 0, 67, 21
1, 546001, Note_on_c, 0, 69, 73
1, 546002, Note_on_c, 0, 72, 84
1, 546009, Note_on_c, 0, 62, 41
1, 546009, Control_c, 0, 67, 24
1, 546024, Control_c, 0, 67, 25
1, 546025, Note_off_c, 0, 72, 67
1, 546034, Note_off_c, 0, 69, 62
1, 546043, Note_off_c, 0, 62, 65
1, 546054, Control_c, 0, 67, 27
1, 546068, Control_c, 0, 67, 30
1, 546069, Note_on_c, 0, 69, 75
1, 546083, Control_c, 0, 67, 37
1, 546098, Control_c, 0, 67, 42
1, 546104, Note_off_c, 0, 69, 63
1, 546113, Control_c, 0, 67, 45
1, 546128, Control_c, 0, 67, 49
1, 546142, Control_c, 0, 67, 54
1, 546147, Note_on_c, 0, 76, 94
1, 546150, Note_on_c, 0, 69, 78
1, 546157, Control_c, 0, 67, 56
1, 546165, Note_on_c, 0, 62, 45
1, 546170, Note_off_c, 0, 76, 66
1, 546172, Control_c, 0, 67, 57
1, 546192, Note_off_c, 0, 62, 59
1, 546195, Note_off_c, 0, 69, 57
1, 546228, Note_on_c, 0, 69, 71
1, 546233, Control_c, 0, 67, 57
1, 546247, Control_c, 0, 67, 56
1, 546262, Control_c, 0, 67, 53
1, 546274, Note_off_c, 0, 69, 60
1, 546277, Control_c, 0, 67, 50
1, 546300, Control_c, 0, 67, 48
1, 546302, Note_on_c, 0, 79, 91
1, 546314, Control_c, 0, 67, 47
1, 546320, Note_on_c, 0, 69, 75
1, 546320, Note_on_c, 0, 62, 60
1, 546320, Note_off_c, 0, 79, 71
1, 546329, Control_c, 0, 67, 44
1, 546344, Control_c, 0, 67, 39
1, 546359, Control_c, 0, 67, 26
1, 546363, Note_off_c, 0, 62, 65
1, 546366, Note_off_c, 0, 69, 64
1, 546373, Control_c, 0, 67, 8
1, 546388, Control_c, 0, 67, 0
1, 546401, Note_on_c, 0, 69, 75
1, 546436, Note_off_c, 0, 69, 66
1, 546472, Note_on_c, 0, 69, 92
1, 546483, Note_on_c, 0, 65, 87
1, 546653, Control_c, 0, 64, 19
1, 546668, Control_c, 0, 64, 31
1, 546672, Note_off_c, 0, 69, 61
1, 546682, Control_c, 0, 64, 41
1, 546684, Note_on_c, 0, 67, 106
1, 546697, Control_c, 0, 64, 53
1, 546712, Control_c, 0, 64, 60
1, 546716, Note_off_c, 0, 65, 30
1, 546727, Control_c, 0, 64, 63
1, 546742, Control_c, 0, 64, 66
1, 546756, Control_c, 0, 64, 69
1, 546771, Control_c, 0, 64, 75
1, 546786, Control_c, 0, 64, 83
1, 546801, Control_c, 0, 64, 96
1, 546815, Note_off_c, 0, 67, 66
1, 546816, Control_c, 0, 64, 107
1, 546830, Control_c, 0, 64, 120
1, 546845, Control_c, 0, 64, 127
1, 546904, Note_on_c, 0, 69, 56
1, 546911, Note_on_c, 0, 65, 37
1, 547059, Note_off_c, 0, 65, 55
1, 547064, Note_on_c, 0, 67, 105
1, 547076, Note_off_c, 0, 69, 55
1, 547189, Note_off_c, 0, 67, 66
1, 547253, Note_on_c, 0, 69, 62
1, 547259, Note_on_c, 0, 65, 63
1, 547417, Note_on_c, 0, 67, 108
1, 547522, Note_off_c, 0, 67, 60
1, 547532, Note_off_c, 0, 69, 26
1, 547542, Note_off_c, 0, 65, 21
1, 547584, Note_on_c, 0, 69, 63
1, 547586, Note_on_c, 0, 65, 54
1, 547608, Note_off_c, 0, 69, 68
1, 547623, Note_off_c, 0, 65, 64
1, 547760, Note_on_c, 0, 67, 97
1, 547794, Note_off_c, 0, 67, 70
1, 547870, Control_c, 0, 64, 89
1, 547884, Control_c, 0, 64, 73
1, 547899, Control_c, 0, 64, 62
1, 547914, Control_c, 0, 64, 44
1, 547929, Control_c, 0, 64, 9
1, 547943, Control_c, 0, 64, 0
1, 548014, Note_on_c, 0, 93, 98
1, 548016, Note_on_c, 0, 86, 94
1, 548017, Note_on_c, 0, 89, 91
1, 548018, Note_on_c, 0, 81, 93
1, 548020, Note_on_c, 0, 50, 109
1, 548024, Note_on_c, 0, 45, 92
1, 548027, Note_on_c, 0, 38, 88
1, 548032, Control_c, 0, 64, 60
1, 548035, Note_off_c, 0, 81, 71
1, 548037, Note_off_c, 0, 86, 69
1, 548037, Note_off_c, 0, 89, 69
1, 548043, Note_off_c, 0, 93, 65
1, 548047, Note_on_c, 0, 43, 58
1, 548047, Control_c, 0, 64, 127
1, 548049, Note_off_c, 0, 38, 66
1, 548062, Note_off_c, 0, 45, 67
1, 548067, Note_off_c, 0, 50, 69
1, 548073, Note_off_c, 0, 43, 59
1, 548173, Poly_aftertouch_c, 0, 38, 127
1, 548204, Poly_aftertouch_c, 0, 38, 0
1, 548210, Control_c, 0, 67, 17
1, 548225, Control_c, 0, 67, 33
1, 548240, Control_c, 0, 67, 62
1, 548255, Control_c, 0, 67, 82
1, 548270, Control_c, 0, 67, 92
1, 548284, Control_c, 0, 67, 93
1, 548299, Control_c, 0, 67, 97
1, 548314, Control_c, 0, 67, 108
1, 548328, Control_c, 0, 64, 91
1, 548328, Control_c, 0, 67, 124
1, 548339, Note_on_c, 0, 62, 56
1, 548343, Control_c, 0, 64, 53
1, 548343, Control_c, 0, 67, 127
1, 548344, Note_on_c, 0, 69, 63
1, 548358, Control_c, 0, 64, 0
1, 548367, Note_off_c, 0, 69, 60
1, 548380, Note_off_c, 0, 62, 65
1, 548408, Note_on_c, 0, 69, 62
1, 548414, Note_on_c, 0, 74, 66
1, 548434, Note_off_c, 0, 69, 66
1, 548465, Note_off_c, 0, 74, 63
1, 548494, Note_on_c, 0, 77, 70
1, 548495, Note_on_c, 0, 62, 57
1, 548509, Note_on_c, 0, 69, 59
1, 548544, Note_off_c, 0, 62, 63
1, 548556, Note_off_c, 0, 69, 0
1, 548559, Note_off_c, 0, 77, 60
1, 548570, Note_on_c, 0, 69, 60
1, 548575, Note_on_c, 0, 74, 71
1, 548598, Note_off_c, 0, 69, 68
1, 548613, Note_off_c, 0, 74, 58
1, 548649, Note_on_c, 0, 77, 76
1, 548652, Note_on_c, 0, 62, 63
1, 548654, Note_on_c, 0, 69, 70
1, 548671, Note_off_c, 0, 69, 65
1, 548691, Note_off_c, 0, 62, 65
1, 548707, Note_off_c, 0, 77, 65
1, 548708, Note_on_c, 0, 81, 76
1, 548719, Note_on_c, 0, 69, 75
1, 548741, Note_off_c, 0, 81, 66
1, 548743, Note_off_c, 0, 69, 69
1, 548791, Note_on_c, 0, 69, 85
1, 548792, Note_on_c, 0, 76, 104
1, 548824, Note_off_c, 0, 76, 66
1, 548851, Note_off_c, 0, 69, 0
1, 548864, Note_on_c, 0, 69, 69
1, 548902, Note_off_c, 0, 69, 67
1, 548961, Note_on_c, 0, 72, 81
1, 548973, Note_on_c, 0, 69, 57
1, 548985, Note_off_c, 0, 72, 67
1, 548993, Note_off_c, 0, 69, 65
1, 549008, Note_on_c, 0, 62, 17
1, 549009, Note_off_c, 0, 62, 127
1, 549033, Note_on_c, 0, 69, 63
1, 549057, Note_off_c, 0, 69, 67
1, 549116, Note_on_c, 0, 69, 80
1, 549116, Note_on_c, 0, 76, 94
1, 549140, Note_off_c, 0, 76, 67
1, 549148, Note_on_c, 0, 62, 38
1, 549148, Note_off_c, 0, 69, 64
1, 549180, Note_off_c, 0, 62, 33
1, 549192, Note_on_c, 0, 69, 75
1, 549224, Note_off_c, 0, 69, 63
1, 549268, Note_on_c, 0, 79, 98
1, 549280, Note_on_c, 0, 69, 73
1, 549289, Note_on_c, 0, 62, 49
1, 549299, Note_off_c, 0, 69, 68
1, 549311, Note_off_c, 0, 79, 67
1, 549315, Note_off_c, 0, 62, 60
1, 549360, Note_on_c, 0, 69, 74
1, 549383, Note_off_c, 0, 69, 68
1, 549412, Control_c, 0, 67, 125
1, 549427, Control_c, 0, 64, 38
1, 549427, Control_c, 0, 67, 119
1, 549442, Control_c, 0, 64, 52
1, 549442, Control_c, 0, 67, 112
1, 549443, Note_on_c, 0, 69, 67
1, 549443, Note_on_c, 0, 77, 100
1, 549456, Control_c, 0, 64, 56
1, 549456, Control_c, 0, 67, 103
1, 549468, Note_on_c, 0, 62, 36
1, 549471, Control_c, 0, 64, 62
1, 549471, Control_c, 0, 67, 98
1, 549486, Note_off_c, 0, 69, 67
1, 549486, Control_c, 0, 64, 68
1, 549486, Control_c, 0, 67, 90
1, 549501, Note_off_c, 0, 62, 53
1, 549501, Control_c, 0, 64, 76
1, 549501, Control_c, 0, 67, 81
1, 549516, Control_c, 0, 64, 91
1, 549516, Control_c, 0, 67, 67
1, 549522, Note_on_c, 0, 69, 62
1, 549531, Control_c, 0, 64, 106
1, 549531, Control_c, 0, 67, 52
1, 549546, Control_c, 0, 64, 120
1, 549546, Control_c, 0, 67, 42
1, 549553, Note_off_c, 0, 69, 68
1, 549553, Note_off_c, 0, 77, 63
1, 549561, Control_c, 0, 64, 127
1, 549561, Control_c, 0, 67, 40
1, 549576, Control_c, 0, 67, 41
1, 549590, Control_c, 0, 67, 43
1, 549604, Control_c, 0, 64, 109
1, 549604, Control_c, 0, 67, 44
1, 549617, Note_on_c, 0, 69, 74
1, 549619, Control_c, 0, 64, 79
1, 549619, Control_c, 0, 67, 46
1, 549621, Note_on_c, 0, 62, 51
1, 549625, Note_on_c, 0, 77, 75
1, 549634, Control_c, 0, 64, 59
1, 549634, Control_c, 0, 67, 47
1, 549646, Note_off_c, 0, 69, 67
1, 549649, Control_c, 0, 64, 0
1, 549649, Control_c, 0, 67, 48
1, 549652, Note_off_c, 0, 62, 58
1, 549663, Control_c, 0, 67, 49
1, 549678, Control_c, 0, 67, 50
1, 549687, Note_off_c, 0, 77, 64
1, 549690, Note_on_c, 0, 69, 70
1, 549693, Control_c, 0, 67, 50
1, 549701, Note_on_c, 0, 74, 73
1, 549707, Control_c, 0, 67, 51
1, 549712, Note_off_c, 0, 69, 66
1, 549722, Control_c, 0, 67, 51
1, 549737, Control_c, 0, 67, 51
1, 549764, Note_off_c, 0, 74, 55
1, 549766, Note_on_c, 0, 62, 51
1, 549767, Control_c, 0, 67, 51
1, 549771, Note_on_c, 0, 69, 70
1, 549772, Note_on_c, 0, 77, 82
1, 549790, Note_off_c, 0, 69, 64
1, 549802, Note_off_c, 0, 62, 61
1, 549811, Control_c, 0, 67, 51
1, 549826, Note_off_c, 0, 77, 64
1, 549835, Note_on_c, 0, 69, 73
1, 549841, Control_c, 0, 67, 51
1, 549850, Note_on_c, 0, 74, 75
1, 549865, Note_off_c, 0, 69, 64
1, 549871, Control_c, 0, 67, 51
1, 549886, Control_c, 0, 67, 50
1, 549900, Control_c, 0, 67, 50
1, 549909, Note_off_c, 0, 74, 63
1, 549912, Note_on_c, 0, 62, 58
1, 549913, Note_on_c, 0, 77, 79
1, 549917, Note_on_c, 0, 69, 71
1, 549930, Control_c, 0, 67, 49
1, 549935, Note_off_c, 0, 69, 70
1, 549945, Control_c, 0, 67, 48
1, 549951, Note_off_c, 0, 62, 65
1, 549969, Note_off_c, 0, 77, 64
1, 549978, Note_on_c, 0, 81, 80
1, 549987, Note_on_c, 0, 69, 72
1, 549989, Control_c, 0, 67, 49
1, 550004, Control_c, 0, 67, 50
1, 550008, Note_off_c, 0, 69, 67
1, 550019, Control_c, 0, 67, 51
1, 550041, Control_c, 0, 67, 53
1, 550044, Note_off_c, 0, 81, 64
1, 550055, Control_c, 0, 67, 54
1, 550064, Note_on_c, 0, 69, 86
1, 550066, Note_on_c, 0, 76, 98
1, 550070, Control_c, 0, 67, 56
1, 550085, Control_c, 0, 67, 60
1, 550097, Note_off_c, 0, 76, 64
1, 550100, Control_c, 0, 67, 66
1, 550111, Note_off_c, 0, 69, 64
1, 550115, Control_c, 0, 67, 74
1, 550130, Control_c, 0, 67, 80
1, 550139, Note_on_c, 0, 69, 70
1, 550145, Control_c, 0, 67, 85
1, 550160, Control_c, 0, 67, 89
1, 550175, Control_c, 0, 67, 92
1, 550179, Note_off_c, 0, 69, 67
1, 550189, Control_c, 0, 67, 94
1, 550204, Control_c, 0, 67, 96
1, 550219, Control_c, 0, 67, 97
1, 550234, Control_c, 0, 67, 98
1, 550236, Note_on_c, 0, 72, 82
1, 550237, Note_on_c, 0, 69, 65
1, 550249, Control_c, 0, 67, 99
1, 550262, Note_off_c, 0, 72, 66
1, 550264, Control_c, 0, 67, 99
1, 550268, Note_off_c, 0, 69, 67
1, 550275, Note_on_c, 0, 62, 28
1, 550280, Note_off_c, 0, 62, 40
1, 550309, Control_c, 0, 67, 98
1, 550318, Poly_aftertouch_c, 0, 69, 127
1, 550324, Control_c, 0, 67, 98
1, 550327, Poly_aftertouch_c, 0, 69, 0
1, 550382, Note_on_c, 0, 69, 79
1, 550383, Control_c, 0, 67, 97
1, 550387, Note_on_c, 0, 76, 88
1, 550398, Control_c, 0, 67, 96
1, 550405, Note_off_c, 0, 76, 70
1, 550408, Note_on_c, 0, 62, 40
1, 550412, Control_c, 0, 67, 95
1, 550422, Note_off_c, 0, 69, 62
1, 550438, Note_off_c, 0, 62, 51
1, 550446, Note_on_c, 0, 69, 73
1, 550457, Control_c, 0, 67, 94
1, 550472, Control_c, 0, 67, 93
1, 550482, Note_on_c, 0, 76, 17
1, 550486, Control_c, 0, 67, 90
1, 550491, Note_off_c, 0, 69, 65
1, 550501, Control_c, 0, 67, 88
1, 550516, Control_c, 0, 67, 88
1, 550527, Note_off_c, 0, 76, 28
1, 550528, Note_on_c, 0, 79, 91
1, 550530, Control_c, 0, 67, 86
1, 550532, Note_on_c, 0, 62, 61
1, 550541, Note_on_c, 0, 69, 65
1, 550545, Control_c, 0, 67, 83
1, 550556, Note_off_c, 0, 79, 66
1, 550560, Control_c, 0, 67, 76
1, 550565, Note_off_c, 0, 69, 67
1, 550575, Control_c, 0, 67, 66
1, 550576, Note_off_c, 0, 62, 64
1, 550590, Control_c, 0, 67, 49
1, 550604, Control_c, 0, 67, 26
1, 550609, Note_on_c, 0, 69, 90
1, 550619, Control_c, 0, 67, 0
1, 550635, Note_off_c, 0, 69, 69
1, 550687, Note_on_c, 0, 69, 92
1, 550696, Note_on_c, 0, 65, 72
1, 550698, Note_on_c, 0, 71, 70
1, 550711, Note_off_c, 0, 69, 69
1, 550715, Note_off_c, 0, 71, 42
1, 550723, Note_off_c, 0, 65, 66
1, 550896, Note_on_c, 0, 71, 53
1, 550924, Note_off_c, 0, 71, 66
1, 550932, Note_on_c, 0, 72, 73
1, 550968, Note_off_c, 0, 72, 66
1, 550988, Note_on_c, 0, 74, 59
1, 551018, Note_on_c, 0, 76, 87
1, 551020, Note_on_c, 0, 69, 65
1, 551023, Note_on_c, 0, 65, 63
1, 551037, Note_off_c, 0, 74, 66
1, 551037, Note_off_c, 0, 69, 67
1, 551049, Note_off_c, 0, 65, 64
1, 551146, Control_c, 0, 64, 14
1, 551161, Control_c, 0, 64, 27
1, 551176, Control_c, 0, 64, 32
1, 551191, Control_c, 0, 64, 33
1, 551206, Control_c, 0, 64, 33
1, 551209, Note_on_c, 0, 74, 71
1, 551209, Note_off_c, 0, 76, 64
1, 551221, Control_c, 0, 64, 29
1, 551235, Control_c, 0, 64, 18
1, 551250, Note_off_c, 0, 74, 65
1, 551250, Control_c, 0, 64, 0
1, 551263, Note_on_c, 0, 72, 65
1, 551296, Note_on_c, 0, 71, 76
1, 551312, Note_off_c, 0, 71, 68
1, 551313, Note_off_c, 0, 72, 63
1, 551342, Note_on_c, 0, 69, 81
1, 551347, Note_on_c, 0, 65, 71
1, 551411, Note_off_c, 0, 65, 59
1, 551412, Note_off_c, 0, 69, 64
1, 551442, Control_c, 0, 64, 15
1, 551457, Control_c, 0, 64, 28
1, 551471, Control_c, 0, 64, 36
1, 551486, Control_c, 0, 64, 41
1, 551501, Control_c, 0, 64, 44
1, 551516, Control_c, 0, 64, 48
1, 551539, Control_c, 0, 64, 54
1, 551553, Control_c, 0, 64, 58
1, 551568, Control_c, 0, 64, 60
1, 551570, Note_on_c, 0, 67, 105
1, 551583, Control_c, 0, 64, 62
1, 551598, Control_c, 0, 64, 64
1, 551613, Control_c, 0, 64, 68
1, 551627, Control_c, 0, 64, 76
1, 551642, Control_c, 0, 64, 87
1, 551657, Control_c, 0, 64, 103
1, 551672, Control_c, 0, 64, 127
1, 551674, Note_off_c, 0, 67, 65
1, 551756, Note_on_c, 0, 65, 37
1, 551758, Note_on_c, 0, 69, 59
1, 551828, Note_off_c, 0, 65, 56
1, 551869, Note_off_c, 0, 69, 55
1, 551939, Note_on_c, 0, 67, 104
1, 551972, Note_off_c, 0, 67, 69
1, 552112, Note_on_c, 0, 69, 62
1, 552123, Note_on_c, 0, 65, 55
1, 552297, Note_on_c, 0, 67, 101
1, 552299, Note_off_c, 0, 65, 21
1, 552310, Note_off_c, 0, 69, 34
1, 552341, Note_off_c, 0, 67, 66
1, 552465, Note_on_c, 0, 69, 69
1, 552476, Note_on_c, 0, 65, 54
1, 552506, Note_off_c, 0, 65, 64
1, 552522, Note_off_c, 0, 69, 64
1, 552647, Note_on_c, 0, 67, 101
1, 552679, Note_off_c, 0, 67, 68
1, 552808, Note_on_c, 0, 69, 77
1, 552812, Note_on_c, 0, 65, 72
1, 552822, Control_c, 0, 64, 110
1, 552831, Note_off_c, 0, 69, 69
1, 552837, Note_off_c, 0, 65, 67
1, 552837, Control_c, 0, 64, 72
1, 552852, Control_c, 0, 64, 49
1, 552867, Control_c, 0, 64, 0
1, 552999, Note_on_c, 0, 71, 60
1, 553043, Note_off_c, 0, 71, 62
1, 553047, Note_on_c, 0, 72, 63
1, 553072, Note_off_c, 0, 72, 67
1, 553084, Note_on_c, 0, 74, 75
1, 553129, Note_on_c, 0, 69, 70
1, 553133, Note_on_c, 0, 76, 76
1, 553141, Note_on_c, 0, 65, 43
1, 553147, Note_off_c, 0, 74, 65
1, 553154, Note_off_c, 0, 69, 68
1, 553156, Control_c, 0, 64, 29
1, 553170, Note_off_c, 0, 65, 52
1, 553170, Control_c, 0, 64, 56
1, 553185, Control_c, 0, 64, 61
1, 553200, Control_c, 0, 64, 62
1, 553215, Control_c, 0, 64, 63
1, 553230, Control_c, 0, 64, 66
1, 553245, Control_c, 0, 64, 68
1, 553259, Control_c, 0, 64, 72
1, 553274, Control_c, 0, 64, 76
1, 553289, Control_c, 0, 64, 79
1, 553304, Control_c, 0, 64, 81
1, 553319, Control_c, 0, 64, 82
1, 553322, Note_off_c, 0, 76, 64
1, 553323, Note_on_c, 0, 74, 73
1, 553348, Control_c, 0, 64, 81
1, 553363, Control_c, 0, 64, 73
1, 553367, Note_on_c, 0, 72, 72
1, 553368, Note_off_c, 0, 74, 66
1, 553378, Control_c, 0, 64, 57
1, 553393, Control_c, 0, 64, 0
1, 553408, Note_on_c, 0, 71, 77
1, 553409, Note_off_c, 0, 72, 65
1, 553431, Note_off_c, 0, 71, 69
1, 553466, Note_on_c, 0, 65, 68
1, 553466, Note_on_c, 0, 69, 72
1, 553616, Control_c, 0, 64, 47
1, 553630, Control_c, 0, 64, 59
1, 553645, Control_c, 0, 64, 62
1, 553660, Control_c, 0, 64, 64
1, 553662, Note_on_c, 0, 67, 107
1, 553675, Control_c, 0, 64, 68
1, 553680, Note_off_c, 0, 65, 60
1, 553690, Control_c, 0, 64, 73
1, 553692, Note_off_c, 0, 69, 62
1, 553704, Control_c, 0, 64, 82
1, 553719, Control_c, 0, 64, 93
1, 553734, Control_c, 0, 64, 110
1, 553749, Control_c, 0, 64, 127
1, 553776, Note_off_c, 0, 67, 65
1, 553832, Note_on_c, 0, 69, 81
1, 553842, Note_on_c, 0, 65, 73
1, 553938, Note_off_c, 0, 69, 55
1, 553940, Note_off_c, 0, 65, 52
1, 554016, Note_on_c, 0, 67, 107
1, 554071, Note_off_c, 0, 67, 60
1, 554174, Note_on_c, 0, 65, 70
1, 554175, Note_on_c, 0, 69, 66
1, 554200, Note_off_c, 0, 65, 67
1, 554204, Note_off_c, 0, 69, 67
1, 554361, Note_on_c, 0, 76, 72
1, 554368, Note_on_c, 0, 72, 61
1, 554401, Note_off_c, 0, 72, 63
1, 554416, Note_on_c, 0, 77, 66
1, 554420, Note_off_c, 0, 76, 64
1, 554423, Control_c, 0, 64, 88
1, 554438, Control_c, 0, 64, 61
1, 554444, Note_on_c, 0, 79, 78
1, 554452, Control_c, 0, 64, 0
1, 554455, Note_off_c, 0, 77, 61
1, 554458, Note_on_c, 0, 76, 45
1, 554492, Note_off_c, 0, 76, 58
1, 554495, Note_on_c, 0, 81, 94
1, 554502, Note_on_c, 0, 77, 92
1, 554523, Note_on_c, 0, 65, 74
1, 554533, Note_on_c, 0, 69, 74
1, 554534, Control_c, 0, 64, 23
1, 554542, Note_off_c, 0, 79, 65
1, 554549, Control_c, 0, 64, 70
1, 554564, Control_c, 0, 64, 105
1, 554573, Note_off_c, 0, 69, 64
1, 554574, Note_off_c, 0, 81, 68
1, 554576, Note_off_c, 0, 65, 63
1, 554576, Note_off_c, 0, 77, 67
1, 554578, Control_c, 0, 64, 127
1, 554697, Note_on_c, 0, 76, 71
1, 554712, Note_on_c, 0, 79, 93
1, 554751, Note_off_c, 0, 76, 63
1, 554757, Note_off_c, 0, 79, 68
1, 554763, Note_on_c, 0, 77, 87
1, 554775, Note_on_c, 0, 74, 79
1, 554802, Note_off_c, 0, 74, 67
1, 554812, Note_on_c, 0, 76, 84
1, 554820, Note_off_c, 0, 77, 67
1, 554831, Control_c, 0, 64, 90
1, 554845, Control_c, 0, 64, 45
1, 554860, Control_c, 0, 64, 0
1, 554863, Note_on_c, 0, 74, 99
1, 554864, Note_on_c, 0, 71, 84
1, 554867, Note_on_c, 0, 72, 87
1, 554879, Note_on_c, 0, 69, 69
1, 554882, Note_off_c, 0, 76, 67
1, 554885, Note_off_c, 0, 71, 70
1, 554886, Note_off_c, 0, 72, 69
1, 554896, Note_off_c, 0, 69, 68
1, 554902, Note_off_c, 0, 74, 70
1, 554945, Note_on_c, 0, 72, 35
1, 554946, Note_off_c, 0, 72, 127
1, 555074, Note_on_c, 0, 74, 94
1, 555080, Note_on_c, 0, 71, 101
1, 555081, Note_on_c, 0, 67, 92
1, 555216, Control_c, 0, 64, 22
1, 555231, Control_c, 0, 64, 63
1, 555239, Note_on_c, 0, 69, 73
1, 555246, Control_c, 0, 64, 71
1, 555248, Note_on_c, 0, 65, 69
1, 555261, Control_c, 0, 64, 80
1, 555263, Note_off_c, 0, 69, 69
1, 555274, Note_off_c, 0, 65, 65
1, 555283, Control_c, 0, 64, 89
1, 555298, Control_c, 0, 64, 95
1, 555313, Control_c, 0, 64, 99
1, 555318, Note_off_c, 0, 71, 63
1, 555323, Note_off_c, 0, 67, 61
1, 555327, Control_c, 0, 64, 104
1, 555335, Note_off_c, 0, 74, 66
1, 555342, Control_c, 0, 64, 110
1, 555357, Control_c, 0, 64, 114
1, 555372, Control_c, 0, 64, 115
1, 555387, Control_c, 0, 64, 114
1, 555401, Control_c, 0, 64, 101
1, 555416, Control_c, 0, 64, 74
1, 555431, Note_on_c, 0, 74, 94
1, 555431, Control_c, 0, 64, 46
1, 555434, Note_on_c, 0, 71, 87
1, 555437, Note_on_c, 0, 67, 87
1, 555446, Control_c, 0, 64, 0
1, 555606, Note_on_c, 0, 69, 75
1, 555612, Note_on_c, 0, 65, 65
1, 555624, Control_c, 0, 64, 43
1, 555628, Note_off_c, 0, 69, 69
1, 555639, Note_off_c, 0, 65, 64
1, 555639, Control_c, 0, 64, 58
1, 555654, Control_c, 0, 64, 60
1, 555664, Note_off_c, 0, 67, 61
1, 555664, Note_off_c, 0, 71, 63
1, 555668, Control_c, 0, 64, 65
1, 555683, Control_c, 0, 64, 72
1, 555684, Note_off_c, 0, 74, 64
1, 555698, Control_c, 0, 64, 81
1, 555713, Control_c, 0, 64, 91
1, 555728, Control_c, 0, 64, 93
1, 555746, Poly_aftertouch_c, 0, 69, 127
1, 555758, Control_c, 0, 64, 86
1, 555773, Control_c, 0, 64, 68
1, 555776, Poly_aftertouch_c, 0, 69, 0
1, 555788, Control_c, 0, 64, 34
1, 555790, Note_on_c, 0, 74, 89
1, 555803, Note_on_c, 0, 71, 78
1, 555803, Control_c, 0, 64, 0
1, 555809, Note_on_c, 0, 67, 63
1, 555937, Control_c, 0, 64, 56
1, 555937, Note_off_c, 0, 67, 0
1, 555937, Note_on_c, 0, 67, 24
1, 555951, Control_c, 0, 64, 68
1, 555963, Note_on_c, 0, 69, 68
1, 555966, Control_c, 0, 64, 69
1, 555970, Note_on_c, 0, 65, 61
1, 555980, Note_off_c, 0, 69, 67
1, 555981, Control_c, 0, 64, 72
1, 555990, Note_off_c, 0, 71, 63
1, 555991, Note_off_c, 0, 65, 60
1, 555993, Note_off_c, 0, 67, 61
1, 555996, Control_c, 0, 64, 78
1, 556011, Control_c, 0, 64, 88
1, 556013, Note_off_c, 0, 74, 62
1, 556032, Control_c, 0, 64, 99
1, 556047, Control_c, 0, 64, 109
1, 556062, Control_c, 0, 64, 114
1, 556077, Control_c, 0, 64, 117
1, 556107, Control_c, 0, 64, 113
1, 556122, Control_c, 0, 64, 89
1, 556136, Note_on_c, 0, 74, 85
1, 556136, Control_c, 0, 64, 66
1, 556146, Note_on_c, 0, 71, 78
1, 556151, Note_on_c, 0, 67, 73
1, 556151, Control_c, 0, 64, 0
1, 556240, Control_c, 0, 64, 59
1, 556255, Control_c, 0, 64, 86
1, 556256, Note_off_c, 0, 67, 64
1, 556269, Control_c, 0, 64, 127
1, 556285, Note_off_c, 0, 71, 60
1, 556303, Note_on_c, 0, 69, 80
1, 556306, Note_on_c, 0, 65, 76
1, 556312, Note_off_c, 0, 74, 65
1, 556326, Note_off_c, 0, 69, 69
1, 556330, Note_off_c, 0, 65, 67
1, 556412, Note_on_c, 0, 69, 9
1, 556464, Note_off_c, 0, 69, 52
1, 556489, Note_on_c, 0, 76, 77
1, 556492, Note_on_c, 0, 72, 61
1, 556539, Note_on_c, 0, 77, 69
1, 556541, Note_off_c, 0, 72, 61
1, 556545, Note_off_c, 0, 76, 64
1, 556555, Note_on_c, 0, 74, 47
1, 556570, Note_on_c, 0, 79, 84
1, 556581, Note_off_c, 0, 74, 56
1, 556594, Note_on_c, 0, 76, 55
1, 556596, Note_off_c, 0, 77, 65
1, 556596, Control_c, 0, 64, 82
1, 556611, Control_c, 0, 64, 54
1, 556615, Note_off_c, 0, 76, 61
1, 556626, Control_c, 0, 64, 0
1, 556637, Note_on_c, 0, 81, 97
1, 556641, Note_on_c, 0, 77, 92
1, 556649, Note_on_c, 0, 65, 73
1, 556658, Note_on_c, 0, 69, 77
1, 556679, Note_off_c, 0, 79, 65
1, 556685, Control_c, 0, 64, 56
1, 556699, Note_off_c, 0, 69, 64
1, 556700, Control_c, 0, 64, 99
1, 556701, Note_off_c, 0, 65, 63
1, 556715, Control_c, 0, 64, 127
1, 556722, Note_off_c, 0, 77, 67
1, 556730, Note_off_c, 0, 81, 66
1, 556834, Note_on_c, 0, 79, 91
1, 556839, Note_on_c, 0, 76, 71
1, 556863, Note_off_c, 0, 76, 67
1, 556882, Note_on_c, 0, 77, 85
1, 556883, Note_off_c, 0, 79, 67
1, 556925, Note_on_c, 0, 76, 85
1, 556929, Control_c, 0, 64, 76
1, 556932, Note_off_c, 0, 77, 68
1, 556944, Control_c, 0, 64, 45
1, 556959, Control_c, 0, 64, 0
1, 556971, Poly_aftertouch_c, 0, 74, 0
1, 556981, Note_on_c, 0, 74, 25
1, 556990, Note_on_c, 0, 71, 91
1, 557000, Note_on_c, 0, 69, 71
1, 557001, Note_off_c, 0, 76, 65
1, 557009, Note_off_c, 0, 71, 71
1, 557018, Note_off_c, 0, 69, 67
1, 557022, Note_on_c, 0, 65, 35
1, 557025, Note_off_c, 0, 74, 67
1, 557058, Note_off_c, 0, 65, 32
1, 557075, Note_on_c, 0, 71, 35
1, 557101, Note_off_c, 0, 71, 35
1, 557183, Note_on_c, 0, 74, 98
1, 557183, Note_on_c, 0, 71, 92
1, 557190, Note_on_c, 0, 67, 89
1, 557211, Control_c, 0, 64, 22
1, 557226, Control_c, 0, 64, 61
1, 557240, Control_c, 0, 64, 67
1, 557255, Control_c, 0, 64, 69
1, 557270, Control_c, 0, 64, 72
1, 557285, Control_c, 0, 64, 80
1, 557299, Control_c, 0, 64, 95
1, 557314, Control_c, 0, 64, 127
1, 557354, Note_on_c, 0, 69, 85
1, 557361, Note_on_c, 0, 65, 80
1, 557380, Note_off_c, 0, 69, 69
1, 557386, Note_off_c, 0, 65, 67
1, 557413, Note_off_c, 0, 67, 61
1, 557413, Note_off_c, 0, 71, 59
1, 557432, Note_off_c, 0, 74, 59
1, 557533, Note_on_c, 0, 71, 89
1, 557533, Note_on_c, 0, 74, 89
1, 557535, Note_on_c, 0, 67, 88
1, 557627, Note_off_c, 0, 67, 64
1, 557647, Note_off_c, 0, 71, 61
1, 557672, Note_off_c, 0, 74, 64
1, 557710, Note_on_c, 0, 65, 86
1, 557710, Note_on_c, 0, 69, 85
1, 557729, Note_off_c, 0, 69, 72
1, 557743, Note_off_c, 0, 65, 64
1, 557801, Poly_aftertouch_c, 0, 64, 127
1, 557827, Control_c, 0, 64, 93
1, 557831, Poly_aftertouch_c, 0, 64, 0
1, 557840, Control_c, 0, 64, 62
1, 557855, Control_c, 0, 64, 0
1, 557859, Poly_aftertouch_c, 0, 69, 0
1, 557897, Note_on_c, 0, 76, 54
1, 557907, Note_on_c, 0, 60, 66
1, 557933, Note_on_c, 0, 77, 67
1, 557942, Note_off_c, 0, 60, 64
1, 557942, Note_off_c, 0, 76, 65
1, 557969, Note_on_c, 0, 59, 58
1, 557970, Note_off_c, 0, 77, 68
1, 557991, Note_on_c, 0, 79, 66
1, 558011, Note_off_c, 0, 59, 63
1, 558022, Note_on_c, 0, 57, 58
1, 558034, Note_off_c, 0, 79, 66
1, 558037, Note_on_c, 0, 81, 84
1, 558055, Note_on_c, 0, 55, 75
1, 558055, Note_on_c, 0, 74, 59
1, 558061, Note_off_c, 0, 57, 66
1, 558062, Control_c, 0, 64, 29
1, 558077, Control_c, 0, 64, 71
1, 558081, Note_off_c, 0, 74, 66
1, 558082, Note_off_c, 0, 81, 64
1, 558092, Control_c, 0, 64, 86
1, 558096, Note_off_c, 0, 55, 62
1, 558107, Control_c, 0, 64, 98
1, 558121, Control_c, 0, 64, 117
1, 558136, Control_c, 0, 64, 127
1, 558220, Note_on_c, 0, 57, 67
1, 558235, Note_on_c, 0, 79, 82
1, 558256, Control_c, 0, 64, 105
1, 558259, Note_off_c, 0, 79, 69
1, 558261, Note_on_c, 0, 77, 79
1, 558278, Control_c, 0, 64, 60
1, 558284, Note_on_c, 0, 59, 73
1, 558292, Control_c, 0, 64, 0
1, 558304, Note_off_c, 0, 57, 62
1, 558309, Note_on_c, 0, 76, 81
1, 558321, Note_off_c, 0, 77, 65
1, 558338, Note_off_c, 0, 59, 65
1, 558347, Note_on_c, 0, 60, 62
1, 558351, Note_on_c, 0, 74, 96
1, 558363, Note_on_c, 0, 62, 79
1, 558367, Note_off_c, 0, 76, 65
1, 558373, Note_on_c, 0, 71, 67
1, 558374, Note_off_c, 0, 60, 64
1, 558377, Note_on_c, 0, 67, 71
1, 558384, Note_on_c, 0, 69, 68
1, 558387, Note_off_c, 0, 62, 68
1, 558389, Note_off_c, 0, 74, 68
1, 558393, Note_on_c, 0, 65, 44
1, 558393, Note_off_c, 0, 71, 65
1, 558394, Note_off_c, 0, 67, 67
1, 558402, Note_off_c, 0, 69, 67
1, 558421, Note_off_c, 0, 65, 35
1, 558569, Note_on_c, 0, 74, 98
1, 558571, Note_on_c, 0, 71, 97
1, 558572, Note_on_c, 0, 67, 98
1, 558604, Control_c, 0, 64, 84
1, 558618, Control_c, 0, 64, 127
1, 558649, Note_off_c, 0, 67, 64
1, 558668, Note_off_c, 0, 71, 61
1, 558686, Note_off_c, 0, 74, 65
1, 558711, Note_on_c, 0, 69, 80
1, 558729, Note_on_c, 0, 65, 70
1, 558734, Note_off_c, 0, 69, 70
1, 558746, Note_off_c, 0, 65, 65
1, 558889, Note_on_c, 0, 60, 67
1, 558893, Note_on_c, 0, 76, 76
1, 558922, Note_off_c, 0, 60, 64
1, 558939, Note_on_c, 0, 55, 69
1, 558942, Note_on_c, 0, 77, 72
1, 558968, Note_off_c, 0, 76, 66
1, 558974, Control_c, 0, 64, 91
1, 558974, Note_off_c, 0, 55, 65
1, 558980, Note_on_c, 0, 50, 71
1, 558989, Control_c, 0, 64, 57
1, 558995, Note_off_c, 0, 77, 69
1, 558997, Note_on_c, 0, 79, 77
1, 559012, Control_c, 0, 64, 0
1, 559033, Note_on_c, 0, 81, 106
1, 559038, Note_on_c, 0, 74, 89
1, 559043, Note_off_c, 0, 50, 65
1, 559056, Control_c, 0, 64, 56
1, 559067, Note_on_c, 0, 41, 74
1, 559070, Note_off_c, 0, 79, 53
1, 559071, Control_c, 0, 64, 98
1, 559085, Note_on_c, 0, 72, 23
1, 559086, Note_off_c, 0, 72, 127
1, 559086, Control_c, 0, 64, 127
1, 559097, Note_off_c, 0, 41, 65
1, 559097, Note_off_c, 0, 81, 64
1, 559098, Note_off_c, 0, 74, 66
1, 559208, Note_on_c, 0, 47, 74
1, 559228, Note_on_c, 0, 79, 81
1, 559254, Note_on_c, 0, 52, 64
1, 559258, Note_on_c, 0, 77, 76
1, 559259, Note_off_c, 0, 47, 64
1, 559271, Note_on_c, 0, 50, 35
1, 559274, Note_off_c, 0, 79, 66
1, 559278, Note_on_c, 0, 53, 70
1, 559282, Note_off_c, 0, 52, 65
1, 559296, Note_on_c, 0, 76, 83
1, 559302, Note_off_c, 0, 50, 55
1, 559304, Note_off_c, 0, 53, 65
1, 559313, Note_off_c, 0, 77, 67
1, 559326, Note_on_c, 0, 59, 38
1, 559338, Control_c, 0, 64, 103
1, 559353, Control_c, 0, 64, 60
1, 559356, Note_off_c, 0, 59, 56
1, 559363, Note_off_c, 0, 76, 64
1, 559368, Control_c, 0, 64, 0
1, 559377, Note_on_c, 0, 74, 103
1, 559389, Note_on_c, 0, 71, 95
1, 559391, Note_on_c, 0, 67, 94
1, 559412, Control_c, 0, 64, 38
1, 559419, Note_on_c, 0, 63, 45
1, 559427, Control_c, 0, 64, 79
1, 559440, Note_off_c, 0, 67, 66
1, 559442, Control_c, 0, 64, 127
1, 559447, Note_off_c, 0, 63, 36
1, 559451, Note_off_c, 0, 71, 65
1, 559473, Note_off_c, 0, 74, 63
1, 559571, Note_on_c, 0, 76, 45
1, 559584, Note_on_c, 0, 77, 63
1, 559599, Note_off_c, 0, 76, 55
1, 559600, Note_on_c, 0, 79, 75
1, 559601, Note_off_c, 0, 77, 67
1, 559603, Note_on_c, 0, 60, 76
1, 559616, Note_off_c, 0, 79, 69
1, 559620, Note_on_c, 0, 81, 78
1, 559635, Note_on_c, 0, 83, 87
1, 559638, Note_off_c, 0, 81, 68
1, 559651, Note_on_c, 0, 84, 85
1, 559657, Note_off_c, 0, 83, 68
1, 559666, Note_on_c, 0, 86, 81
1, 559671, Note_off_c, 0, 60, 62
1, 559672, Note_off_c, 0, 84, 67
1, 559680, Note_off_c, 0, 86, 71
1, 559681, Note_on_c, 0, 88, 84
1, 559682, Note_on_c, 0, 59, 69
1, 559693, Note_off_c, 0, 88, 73
1, 559697, Note_on_c, 0, 89, 79
1, 559711, Note_off_c, 0, 89, 69
1, 559724, Note_on_c, 0, 91, 52
1, 559745, Note_on_c, 0, 55, 90
1, 559746, Note_off_c, 0, 59, 65
1, 559746, Note_off_c, 0, 91, 62
1, 559751, Note_on_c, 0, 93, 96
1, 559771, Note_on_c, 0, 95, 69
1, 559790, Note_off_c, 0, 95, 65
1, 559798, Note_on_c, 0, 57, 30
1, 559813, Note_on_c, 0, 91, 80
1, 559827, Poly_aftertouch_c, 0, 86, 0
1, 559833, Note_off_c, 0, 93, 68
1, 559838, Poly_aftertouch_c, 0, 88, 0
1, 559841, Note_off_c, 0, 57, 51
1, 559849, Note_on_c, 0, 89, 69
1, 559856, Note_off_c, 0, 91, 66
1, 559870, Note_on_c, 0, 88, 80
1, 559870, Note_off_c, 0, 89, 68
1, 559892, Note_on_c, 0, 86, 83
1, 559894, Note_off_c, 0, 88, 71
1, 559905, Note_off_c, 0, 86, 77
1, 559907, Note_on_c, 0, 84, 84
1, 559919, Note_off_c, 0, 84, 74
1, 559920, Note_on_c, 0, 83, 80
1, 559922, Note_on_c, 0, 57, 75
1, 559934, Note_off_c, 0, 83, 71
1, 559935, Note_on_c, 0, 81, 85
1, 559943, Note_off_c, 0, 55, 63
1, 559946, Note_on_c, 0, 79, 86
1, 559948, Note_off_c, 0, 81, 72
1, 559958, Note_on_c, 0, 77, 93
1, 559958, Note_off_c, 0, 79, 74
1, 559971, Note_on_c, 0, 76, 96
1, 559978, Note_off_c, 0, 77, 72
1, 559985, Note_on_c, 0, 74, 89
1, 559988, Note_off_c, 0, 76, 66
1, 559989, Note_on_c, 0, 59, 70
1, 560000, Note_off_c, 0, 57, 64
1, 560008, Note_on_c, 0, 72, 72
1, 560009, Note_off_c, 0, 72, 127
1, 560009, Note_off_c, 0, 74, 66
1, 560021, Note_on_c, 0, 60, 74
1, 560021, Poly_aftertouch_c, 0, 88, 0
1, 560035, Note_on_c, 0, 79, 26
1, 560035, Note_off_c, 0, 59, 65
1, 560045, Note_on_c, 0, 76, 35
1, 560046, Note_off_c, 0, 76, 127
1, 560065, Note_on_c, 0, 74, 74
1, 560065, Note_off_c, 0, 79, 42
1, 560074, Note_off_c, 0, 60, 60
1, 560076, Note_on_c, 0, 67, 94
1, 560079, Poly_aftertouch_c, 0, 76, 0
1, 560086, Control_c, 0, 64, 117
1, 560087, Note_on_c, 0, 62, 87
1, 560098, Note_off_c, 0, 67, 67
1, 560101, Control_c, 0, 64, 83
1, 560113, Note_off_c, 0, 74, 67
1, 560116, Control_c, 0, 64, 64
1, 560128, Note_off_c, 0, 62, 64
1, 560131, Control_c, 0, 64, 33
1, 560146, Control_c, 0, 64, 0
1, 560230, Note_on_c, 0, 60, 65
1, 560256, Note_on_c, 0, 76, 81
1, 560268, Note_off_c, 0, 60, 62
1, 560291, Note_on_c, 0, 55, 62
1, 560302, Note_off_c, 0, 76, 67
1, 560305, Note_on_c, 0, 77, 83
1, 560323, Note_off_c, 0, 55, 63
1, 560331, Note_on_c, 0, 50, 68
1, 560334, Note_off_c, 0, 77, 69
1, 560345, Note_on_c, 0, 79, 81
1, 560366, Note_off_c, 0, 50, 69
1, 560374, Note_on_c, 0, 81, 106
1, 560381, Note_on_c, 0, 74, 91
1, 560383, Control_c, 0, 64, 23
1, 560388, Note_off_c, 0, 79, 70
1, 560390, Note_on_c, 0, 41, 74
1, 560397, Control_c, 0, 64, 127
1, 560399, Note_off_c, 0, 74, 73
1, 560404, Note_off_c, 0, 81, 67
1, 560416, Note_off_c, 0, 41, 63
1, 560454, Note_on_c, 0, 74, 35
1, 560455, Note_off_c, 0, 74, 127
1, 560476, Poly_aftertouch_c, 0, 43, 0
1, 560502, Poly_aftertouch_c, 0, 43, 0
1, 560622, Note_on_c, 0, 69, 105
1, 560626, Note_on_c, 0, 62, 102
1, 560629, Note_on_c, 0, 55, 57
1, 560640, Note_on_c, 0, 65, 71
1, 560641, Note_off_c, 0, 69, 73
1, 560644, Note_off_c, 0, 62, 72
1, 560658, Note_off_c, 0, 65, 67
1, 560715, Note_on_c, 0, 62, 29
1, 560715, Note_off_c, 0, 55, 63
1, 560747, Note_off_c, 0, 62, 57
1, 560755, Note_on_c, 0, 57, 67
1, 560793, Note_off_c, 0, 57, 61
1, 560819, Note_on_c, 0, 55, 64
1, 560867, Note_off_c, 0, 55, 62
1, 560885, Note_on_c, 0, 57, 63
1, 560915, Note_off_c, 0, 57, 65
1, 560950, Note_on_c, 0, 55, 65
1, 560980, Note_off_c, 0, 55, 64
1, 560989, Note_on_c, 0, 81, 110
1, 560992, Note_on_c, 0, 74, 103
1, 560994, Note_on_c, 0, 77, 93
1, 560998, Note_on_c, 0, 57, 70
1, 561007, Note_off_c, 0, 81, 71
1, 561007, Note_off_c, 0, 74, 74
1, 561011, Note_off_c, 0, 77, 73
1, 561037, Note_off_c, 0, 57, 65
1, 561056, Note_on_c, 0, 55, 62
1, 561091, Note_on_c, 0, 77, 4
1, 561100, Note_off_c, 0, 77, 43
1, 561112, Note_off_c, 0, 55, 63
1, 561127, Note_on_c, 0, 57, 69
1, 561156, Note_off_c, 0, 57, 66
1, 561183, Note_on_c, 0, 55, 71
1, 561242, Note_off_c, 0, 55, 62
1, 561244, Note_on_c, 0, 57, 51
1, 561300, Note_off_c, 0, 57, 65
1, 561333, Note_on_c, 0, 55, 62
1, 561374, Note_on_c, 0, 69, 106
1, 561376, Note_on_c, 0, 62, 103
1, 561377, Note_on_c, 0, 65, 97
1, 561395, Note_on_c, 0, 64, 59
1, 561395, Note_off_c, 0, 62, 72
1, 561397, Note_off_c, 0, 55, 63
1, 561400, Note_off_c, 0, 65, 68
1, 561404, Note_on_c, 0, 57, 69
1, 561413, Note_off_c, 0, 69, 67
1, 561416, Note_off_c, 0, 64, 67
1, 561450, Note_off_c, 0, 57, 64
1, 561471, Poly_aftertouch_c, 0, 67, 0
1, 561481, Note_on_c, 0, 62, 9
1, 561490, Note_on_c, 0, 55, 72
1, 561529, Note_off_c, 0, 55, 63
1, 561529, Note_off_c, 0, 62, 53
1, 561559, Note_on_c, 0, 57, 53
1, 561578, Note_off_c, 0, 57, 65
1, 561673, Control_c, 0, 64, 64
1, 561687, Control_c, 0, 64, 0
1, 561695, Note_on_c, 0, 81, 85
1, 561707, Note_on_c, 0, 74, 84
1, 561708, Note_on_c, 0, 77, 85
1, 561722, Note_on_c, 0, 78, 75
1, 561731, Note_on_c, 0, 45, 72
1, 561732, Note_off_c, 0, 74, 69
1, 561732, Note_off_c, 0, 81, 66
1, 561732, Control_c, 0, 64, 56
1, 561737, Note_off_c, 0, 77, 67
1, 561738, Note_off_c, 0, 78, 42
1, 561747, Control_c, 0, 64, 80
1, 561761, Control_c, 0, 64, 127
1, 561773, Note_on_c, 0, 50, 78
1, 561797, Note_off_c, 0, 45, 64
1, 561822, Note_on_c, 0, 55, 78
1, 561827, Note_off_c, 0, 50, 67
1, 561837, Note_on_c, 0, 57, 83
1, 561851, Note_off_c, 0, 55, 65
1, 561864, Note_off_c, 0, 57, 68
1, 561866, Control_c, 0, 64, 86
1, 561875, Note_on_c, 0, 59, 84
1, 561880, Control_c, 0, 64, 0
1, 561899, Note_on_c, 0, 60, 73
1, 561914, Note_off_c, 0, 59, 69
1, 561922, Note_on_c, 0, 62, 98
1, 561927, Note_off_c, 0, 60, 67
1, 561940, Control_c, 0, 64, 61
1, 561954, Control_c, 0, 64, 127
1, 561968, Note_off_c, 0, 62, 71
1, 562065, Control_c, 0, 64, 88
1, 562080, Control_c, 0, 64, 45
1, 562095, Control_c, 0, 64, 0
1, 562104, Note_on_c, 0, 69, 102
1, 562110, Note_on_c, 0, 60, 89
1, 562116, Note_on_c, 0, 65, 83
1, 562131, Note_on_c, 0, 62, 68
1, 562140, Note_on_c, 0, 55, 67
1, 562158, Note_off_c, 0, 62, 49
1, 562186, Note_on_c, 0, 50, 81
1, 562199, Note_off_c, 0, 55, 64
1, 562219, Note_on_c, 0, 45, 50
1, 562227, Note_off_c, 0, 60, 54
1, 562260, Note_off_c, 0, 50, 66
1, 562268, Note_off_c, 0, 65, 63
1, 562279, Note_on_c, 0, 43, 87
1, 562285, Note_off_c, 0, 69, 66
1, 562304, Control_c, 0, 64, 60
1, 562318, Control_c, 0, 64, 86
1, 562321, Note_off_c, 0, 45, 62
1, 562333, Control_c, 0, 64, 127
1, 562352, Note_off_c, 0, 43, 65
1, 562510, Note_on_c, 0, 81, 97
1, 562516, Note_on_c, 0, 77, 98
1, 562516, Note_on_c, 0, 74, 98
1, 562531, Note_on_c, 0, 55, 51
1, 562534, Note_off_c, 0, 74, 73
1, 562545, Note_off_c, 0, 81, 68
1, 562545, Note_on_c, 0, 53, 58
1, 562545, Note_off_c, 0, 77, 69
1, 562569, Note_off_c, 0, 53, 58
1, 562594, Note_off_c, 0, 55, 62
1, 562635, Note_on_c, 0, 57, 65
1, 562658, Note_off_c, 0, 57, 64
1, 562715, Note_on_c, 0, 55, 59
1, 562748, Note_off_c, 0, 55, 64
1, 562766, Note_on_c, 0, 57, 61
1, 562793, Note_off_c, 0, 57, 66
1, 562833, Note_on_c, 0, 55, 67
1, 562855, Note_off_c, 0, 55, 64
1, 562873, Note_on_c, 0, 57, 66
1, 562903, Note_on_c, 0, 69, 105
1, 562909, Note_off_c, 0, 57, 65
1, 562910, Note_on_c, 0, 65, 91
1, 562912, Note_on_c, 0, 62, 89
1, 562923, Note_on_c, 0, 55, 79
1, 562927, Note_off_c, 0, 62, 41
1, 562933, Note_off_c, 0, 69, 71
1, 562936, Note_off_c, 0, 65, 65
1, 562980, Note_off_c, 0, 55, 63
1, 562992, Note_on_c, 0, 57, 75
1, 563018, Note_on_c, 0, 62, 9
1, 563025, Note_off_c, 0, 57, 61
1, 563043, Note_on_c, 0, 55, 83
1, 563069, Note_off_c, 0, 62, 53
1, 563078, Poly_aftertouch_c, 0, 59, 0
1, 563100, Note_off_c, 0, 55, 64
1, 563108, Note_on_c, 0, 57, 71
1, 563154, Note_on_c, 0, 55, 89
1, 563183, Note_off_c, 0, 57, 63
1, 563207, Poly_aftertouch_c, 0, 59, 0
1, 563209, Note_off_c, 0, 55, 67
1, 563318, Note_on_c, 0, 81, 96
1, 563321, Note_on_c, 0, 49, 39
1, 563325, Note_on_c, 0, 74, 87
1, 563330, Note_on_c, 0, 77, 73
1, 563345, Note_on_c, 0, 45, 54
1, 563346, Note_off_c, 0, 81, 64
1, 563355, Note_off_c, 0, 49, 47
1, 563356, Note_off_c, 0, 77, 67
1, 563364, Note_off_c, 0, 74, 65
1, 563365, Note_on_c, 0, 47, 59
1, 563392, Note_off_c, 0, 47, 36
1, 563395, Note_on_c, 0, 50, 79
1, 563409, Note_off_c, 0, 45, 65
1, 563427, Note_on_c, 0, 55, 81
1, 563452, Note_off_c, 0, 55, 70
1, 563454, Note_off_c, 0, 50, 66
1, 563458, Note_on_c, 0, 57, 83
1, 563491, Note_off_c, 0, 57, 66
1, 563496, Note_on_c, 0, 59, 75
1, 563520, Note_on_c, 0, 60, 69
1, 563529, Note_off_c, 0, 59, 71
1, 563544, Note_on_c, 0, 62, 97
1, 563545, Note_off_c, 0, 60, 70
1, 563577, Poly_aftertouch_c, 0, 61, 0
1, 563589, Note_off_c, 0, 62, 71
1, 563682, Control_c, 0, 64, 72
1, 563696, Note_on_c, 0, 44, 4
1, 563697, Control_c, 0, 64, 38
1, 563712, Control_c, 0, 64, 0
1, 563730, Note_on_c, 0, 69, 103
1, 563733, Note_on_c, 0, 60, 103
1, 563735, Note_on_c, 0, 65, 90
1, 563741, Note_on_c, 0, 55, 79
1, 563750, Note_on_c, 0, 62, 74
1, 563751, Note_off_c, 0, 44, 32
1, 563756, Control_c, 0, 64, 39
1, 563771, Control_c, 0, 64, 66
1, 563775, Note_off_c, 0, 62, 54
1, 563787, Control_c, 0, 64, 95
1, 563802, Control_c, 0, 64, 127
1, 563815, Note_on_c, 0, 50, 73
1, 563816, Note_on_c, 0, 45, 27
1, 563818, Note_off_c, 0, 55, 64
1, 563825, Note_off_c, 0, 60, 57
1, 563863, Note_off_c, 0, 65, 64
1, 563871, Note_off_c, 0, 69, 65
1, 563883, Note_off_c, 0, 50, 65
1, 563899, Note_on_c, 0, 43, 76
1, 563917, Note_off_c, 0, 45, 60
1, 563935, Note_off_c, 0, 43, 66
1, 564015, Note_on_c, 0, 82, 27
1, 564042, Note_off_c, 0, 82, 48
1, 564054, Control_c, 0, 64, 78
1, 564069, Control_c, 0, 64, 61
1, 564083, Control_c, 0, 64, 53
1, 564090, Note_on_c, 0, 45, 69
1, 564098, Control_c, 0, 64, 60
1, 564101, Note_on_c, 0, 81, 97
1, 564102, Note_on_c, 0, 77, 105
1, 564104, Note_on_c, 0, 74, 93
1, 564110, Note_on_c, 0, 50, 47
1, 564113, Control_c, 0, 64, 71
1, 564128, Control_c, 0, 64, 91
1, 564143, Control_c, 0, 64, 127
1, 564155, Note_off_c, 0, 45, 64
1, 564171, Note_off_c, 0, 74, 64
1, 564171, Note_off_c, 0, 77, 63
1, 564176, Note_on_c, 0, 55, 59
1, 564176, Note_off_c, 0, 50, 65
1, 564177, Note_on_c, 0, 53, 52
1, 564190, Note_off_c, 0, 81, 63
1, 564206, Note_off_c, 0, 53, 65
1, 564207, Note_off_c, 0, 55, 65
1, 564215, Poly_aftertouch_c, 0, 48, 0
1, 564245, Note_on_c, 0, 79, 99
1, 564249, Note_on_c, 0, 76, 92
1, 564250, Note_on_c, 0, 60, 65
1, 564266, Note_on_c, 0, 59, 58
1, 564288, Note_off_c, 0, 59, 65
1, 564302, Note_off_c, 0, 76, 65
1, 564310, Note_off_c, 0, 79, 65
1, 564319, Note_off_c, 0, 60, 56
1, 564325, Note_on_c, 0, 62, 78
1, 564359, Note_on_c, 0, 81, 98
1, 564364, Note_on_c, 0, 77, 98
1, 564372, Control_c, 0, 64, 100
1, 564387, Control_c, 0, 64, 76
1, 564397, Note_on_c, 0, 55, 77
1, 564397, Note_off_c, 0, 62, 65
1, 564398, Note_on_c, 0, 60, 86
1, 564402, Note_off_c, 0, 77, 66
1, 564402, Control_c, 0, 64, 62
1, 564407, Note_on_c, 0, 59, 47
1, 564417, Control_c, 0, 64, 39
1, 564420, Note_off_c, 0, 81, 64
1, 564424, Note_off_c, 0, 55, 67
1, 564431, Control_c, 0, 64, 0
1, 564434, Note_off_c, 0, 59, 66
1, 564458, Note_on_c, 0, 76, 99
1, 564458, Note_on_c, 0, 79, 99
1, 564470, Note_on_c, 0, 81, 57
1, 564475, Note_on_c, 0, 65, 88
1, 564484, Note_off_c, 0, 60, 61
1, 564488, Note_off_c, 0, 81, 66
1, 564501, Note_off_c, 0, 76, 64
1, 564520, Note_off_c, 0, 79, 64
1, 564533, Note_off_c, 0, 65, 65
1, 564534, Note_on_c, 0, 67, 72
1, 564565, Note_on_c, 0, 81, 97
1, 564569, Note_on_c, 0, 77, 103
1, 564594, Control_c, 0, 64, 102
1, 564601, Note_off_c, 0, 67, 69
1, 564609, Control_c, 0, 64, 127
1, 564647, Note_off_c, 0, 77, 64
1, 564668, Control_c, 0, 64, 104
1, 564678, Note_on_c, 0, 79, 97
1, 564678, Note_on_c, 0, 83, 99
1, 564683, Control_c, 0, 64, 63
1, 564691, Note_off_c, 0, 81, 63
1, 564698, Control_c, 0, 64, 18
1, 564713, Control_c, 0, 64, 0
1, 564720, Note_off_c, 0, 79, 61
1, 564765, Note_on_c, 0, 81, 85
1, 564770, Note_on_c, 0, 77, 85
1, 564771, Note_off_c, 0, 83, 57
1, 564820, Note_off_c, 0, 77, 64
1, 564858, Note_on_c, 0, 83, 102
1, 564859, Note_on_c, 0, 64, 97
1, 564861, Note_on_c, 0, 52, 86
1, 564865, Note_on_c, 0, 79, 82
1, 564871, Note_off_c, 0, 81, 62
1, 564876, Control_c, 0, 64, 61
1, 564891, Control_c, 0, 64, 96
1, 564894, Note_off_c, 0, 52, 66
1, 564900, Note_off_c, 0, 64, 67
1, 564905, Control_c, 0, 64, 127
1, 564907, Note_off_c, 0, 79, 54
1, 564929, Note_off_c, 0, 83, 53
1, 564935, Control_c, 0, 64, 86
1, 564950, Control_c, 0, 64, 52
1, 564951, Note_on_c, 0, 81, 79
1, 564957, Note_on_c, 0, 77, 82
1, 564965, Control_c, 0, 64, 0
1, 565051, Note_on_c, 0, 83, 85
1, 565065, Note_off_c, 0, 77, 65
1, 565082, Note_off_c, 0, 81, 55
1, 565115, Note_off_c, 0, 83, 66
1, 565171, Note_on_c, 0, 81, 80
1, 565175, Note_on_c, 0, 62, 102
1, 565177, Note_on_c, 0, 50, 99
1, 565194, Control_c, 0, 64, 79
1, 565209, Control_c, 0, 64, 127
1, 565213, Note_off_c, 0, 50, 67
1, 565217, Note_off_c, 0, 81, 66
1, 565220, Note_off_c, 0, 62, 66
1, 565224, Control_c, 0, 64, 108
1, 565239, Control_c, 0, 64, 58
1, 565243, Note_on_c, 0, 83, 73
1, 565253, Control_c, 0, 64, 0
1, 565281, Note_off_c, 0, 83, 63
1, 565298, Note_on_c, 0, 84, 70
1, 565342, Note_on_c, 0, 83, 81
1, 565350, Note_off_c, 0, 84, 67
1, 565390, Note_on_c, 0, 81, 74
1, 565397, Note_off_c, 0, 83, 66
1, 565445, Note_on_c, 0, 79, 76
1, 565446, Note_off_c, 0, 81, 65
1, 565479, Note_on_c, 0, 47, 107
1, 565485, Note_on_c, 0, 35, 94
1, 565491, Note_on_c, 0, 77, 83
1, 565497, Note_off_c, 0, 79, 64
1, 565521, Note_off_c, 0, 77, 66
1, 565535, Note_off_c, 0, 35, 62
1, 565551, Note_on_c, 0, 76, 77
1, 565551, Note_off_c, 0, 47, 65
1, 565592, Note_off_c, 0, 76, 59
1, 565597, Note_on_c, 0, 74, 74
1, 565660, Note_off_c, 0, 74, 65
1, 565664, Note_on_c, 0, 72, 74
1, 565714, Note_on_c, 0, 71, 75
1, 565714, Note_off_c, 0, 72, 61
1, 565747, Note_off_c, 0, 71, 62
1, 565780, Control_c, 0, 64, 12
1, 565783, Note_on_c, 0, 45, 103
1, 565789, Note_on_c, 0, 33, 87
1, 565795, Note_on_c, 0, 69, 85
1, 565795, Control_c, 0, 64, 127
1, 565819, Note_off_c, 0, 33, 66
1, 565840, Note_off_c, 0, 45, 67
1, 565845, Note_on_c, 0, 67, 78
1, 565850, Note_off_c, 0, 69, 66
1, 565869, Note_on_c, 0, 38, 19
1, 565900, Note_on_c, 0, 65, 79
1, 565902, Poly_aftertouch_c, 0, 36, 0
1, 565905, Note_off_c, 0, 67, 63
1, 565906, Note_off_c, 0, 38, 44
1, 565957, Note_off_c, 0, 65, 61
1, 565965, Note_on_c, 0, 67, 68
1, 566006, Note_on_c, 0, 69, 69
1, 566015, Note_off_c, 0, 67, 64
1, 566058, Note_off_c, 0, 69, 67
1, 566074, Note_on_c, 0, 71, 65
1, 566078, Note_on_c, 0, 50, 86
1, 566079, Note_on_c, 0, 62, 112
1, 566091, Note_off_c, 0, 71, 66
1, 566119, Note_off_c, 0, 62, 68
1, 566128, Note_off_c, 0, 50, 67
1, 566137, Note_on_c, 0, 72, 76
1, 566184, Note_off_c, 0, 72, 62
1, 566190, Note_on_c, 0, 74, 73
1, 566203, Poly_aftertouch_c, 0, 52, 0
1, 566213, Note_off_c, 0, 74, 68
1, 566218, Note_on_c, 0, 76, 76
1, 566272, Note_on_c, 0, 77, 74
1, 566274, Note_off_c, 0, 76, 66
1, 566299, Note_on_c, 0, 79, 67
1, 566323, Note_off_c, 0, 77, 60
1, 566325, Note_off_c, 0, 79, 69
1, 566389, Control_c, 0, 64, 81
1, 566404, Control_c, 0, 64, 25
1, 566415, Note_on_c, 0, 43, 108
1, 566417, Note_on_c, 0, 81, 95
1, 566418, Note_on_c, 0, 31, 95
1, 566419, Control_c, 0, 64, 0
1, 566420, Note_on_c, 0, 77, 96
1, 566492, Control_c, 0, 64, 62
1, 566515, Control_c, 0, 64, 90
1, 566530, Control_c, 0, 64, 127
1, 566551, Note_off_c, 0, 81, 63
1, 566553, Note_off_c, 0, 77, 63
1, 566555, Note_on_c, 0, 76, 67
1, 566555, Note_on_c, 0, 79, 74
1, 566591, Note_off_c, 0, 31, 58
1, 566600, Note_off_c, 0, 76, 52
1, 566610, Note_off_c, 0, 43, 59
1, 566626, Note_off_c, 0, 79, 60
1, 566646, Note_on_c, 0, 81, 71
1, 566656, Note_on_c, 0, 45, 57
1, 566658, Note_on_c, 0, 77, 67
1, 566680, Note_on_c, 0, 47, 78
1, 566681, Note_off_c, 0, 45, 56
1, 566701, Note_off_c, 0, 47, 69
1, 566710, Note_on_c, 0, 48, 82
1, 566726, Note_off_c, 0, 81, 58
1, 566728, Note_on_c, 0, 79, 84
1, 566732, Note_off_c, 0, 48, 67
1, 566732, Note_off_c, 0, 77, 65
1, 566737, Note_on_c, 0, 50, 83
1, 566753, Note_on_c, 0, 76, 57
1, 566755, Note_off_c, 0, 50, 68
1, 566759, Note_on_c, 0, 52, 80
1, 566772, Note_off_c, 0, 76, 62
1, 566778, Note_off_c, 0, 52, 65
1, 566781, Note_on_c, 0, 53, 70
1, 566798, Note_on_c, 0, 55, 72
1, 566802, Note_off_c, 0, 53, 62
1, 566809, Note_off_c, 0, 79, 64
1, 566812, Note_on_c, 0, 57, 78
1, 566820, Note_off_c, 0, 55, 64
1, 566821, Note_on_c, 0, 81, 71
1, 566826, Note_on_c, 0, 59, 83
1, 566829, Note_off_c, 0, 57, 66
1, 566832, Note_on_c, 0, 77, 63
1, 566839, Note_on_c, 0, 60, 90
1, 566840, Note_off_c, 0, 59, 69
1, 566856, Note_off_c, 0, 60, 67
1, 566856, Note_on_c, 0, 62, 94
1, 566876, Note_on_c, 0, 64, 94
1, 566876, Note_off_c, 0, 62, 70
1, 566890, Note_on_c, 0, 76, 70
1, 566897, Note_on_c, 0, 79, 90
1, 566904, Note_off_c, 0, 81, 60
1, 566907, Note_off_c, 0, 77, 61
1, 566908, Note_on_c, 0, 65, 79
1, 566910, Note_off_c, 0, 64, 62
1, 566927, Note_on_c, 0, 60, 34
1, 566934, Note_off_c, 0, 65, 67
1, 566946, Note_off_c, 0, 76, 64
1, 566950, Note_off_c, 0, 60, 57
1, 566960, Note_off_c, 0, 79, 64
1, 566990, Control_c, 0, 64, 117
1, 566990, Poly_aftertouch_c, 0, 59, 0
1, 567005, Note_on_c, 0, 67, 106
1, 567005, Control_c, 0, 64, 62
1, 567006, Note_on_c, 0, 77, 100
1, 567007, Note_on_c, 0, 81, 98
1, 567020, Control_c, 0, 64, 0
1, 567055, Note_off_c, 0, 67, 66
1, 567081, Note_off_c, 0, 77, 65
1, 567121, Note_on_c, 0, 83, 87
1, 567122, Note_on_c, 0, 79, 85
1, 567127, Note_off_c, 0, 81, 65
1, 567162, Note_off_c, 0, 79, 63
1, 567192, Note_off_c, 0, 83, 54
1, 567208, Note_on_c, 0, 81, 79
1, 567214, Note_on_c, 0, 77, 76
1, 567270, Note_off_c, 0, 77, 60
1, 567297, Note_on_c, 0, 64, 104
1, 567300, Note_on_c, 0, 83, 86
1, 567303, Note_on_c, 0, 52, 96
1, 567306, Note_on_c, 0, 79, 78
1, 567306, Note_off_c, 0, 81, 64
1, 567341, Note_off_c, 0, 52, 65
1, 567351, Note_off_c, 0, 64, 64
1, 567360, Note_off_c, 0, 79, 52
1, 567383, Note_off_c, 0, 83, 62
1, 567394, Note_on_c, 0, 81, 74
1, 567401, Note_on_c, 0, 77, 71
1, 567458, Note_off_c, 0, 77, 61
1, 567488, Note_off_c, 0, 81, 63
1, 567489, Note_on_c, 0, 83, 82
1, 567490, Note_on_c, 0, 79, 74
1, 567540, Note_off_c, 0, 79, 61
1, 567553, Note_off_c, 0, 83, 60
1, 567577, Note_on_c, 0, 62, 114
1, 567581, Note_on_c, 0, 81, 73
1, 567583, Note_on_c, 0, 50, 98
1, 567585, Note_on_c, 0, 77, 68
1, 567589, Control_c, 0, 64, 62
1, 567604, Control_c, 0, 64, 127
1, 567622, Note_off_c, 0, 62, 69
1, 567622, Note_off_c, 0, 50, 67
1, 567662, Note_off_c, 0, 77, 44
1, 567669, Note_on_c, 0, 83, 82
1, 567674, Note_off_c, 0, 81, 62
1, 567679, Note_on_c, 0, 79, 74
1, 567741, Note_off_c, 0, 79, 47
1, 567749, Note_off_c, 0, 83, 59
1, 567766, Note_on_c, 0, 81, 74
1, 567780, Note_on_c, 0, 77, 67
1, 567822, Note_off_c, 0, 77, 58
1, 567859, Note_on_c, 0, 35, 71
1, 567862, Note_on_c, 0, 47, 83
1, 567862, Note_on_c, 0, 83, 79
1, 567863, Note_off_c, 0, 81, 64
1, 567863, Note_on_c, 0, 79, 73
1, 567884, Note_off_c, 0, 35, 59
1, 567891, Note_off_c, 0, 47, 69
1, 567902, Control_c, 0, 64, 70
1, 567916, Note_off_c, 0, 83, 59
1, 567917, Control_c, 0, 64, 34
1, 567931, Control_c, 0, 64, 0
1, 567934, Note_off_c, 0, 79, 59
1, 567944, Note_on_c, 0, 81, 67
1, 567954, Note_on_c, 0, 77, 61
1, 567984, Note_on_c, 0, 59, 80
1, 568013, Note_off_c, 0, 59, 69
1, 568027, Note_off_c, 0, 77, 59
1, 568041, Note_on_c, 0, 83, 71
1, 568042, Note_on_c, 0, 79, 75
1, 568042, Note_off_c, 0, 81, 63
1, 568079, Note_off_c, 0, 79, 61
1, 568080, Note_off_c, 0, 83, 61
1, 568114, Note_on_c, 0, 48, 106
1, 568117, Control_c, 0, 64, 85
1, 568120, Note_on_c, 0, 36, 90
1, 568128, Note_on_c, 0, 81, 85
1, 568131, Control_c, 0, 64, 127
1, 568138, Note_on_c, 0, 77, 91
1, 568141, Note_off_c, 0, 36, 67
1, 568151, Poly_aftertouch_c, 0, 59, 0
1, 568152, Note_off_c, 0, 48, 66
1, 568218, Note_off_c, 0, 77, 54
1, 568220, Control_c, 0, 64, 83
1, 568227, Note_on_c, 0, 76, 73
1, 568235, Note_on_c, 0, 79, 80
1, 568235, Control_c, 0, 64, 64
1, 568236, Note_off_c, 0, 81, 50
1, 568250, Note_on_c, 0, 60, 86
1, 568250, Control_c, 0, 64, 42
1, 568265, Control_c, 0, 64, 0
1, 568269, Note_off_c, 0, 76, 56
1, 568271, Note_off_c, 0, 60, 70
1, 568293, Poly_aftertouch_c, 0, 36, 0
1, 568316, Note_on_c, 0, 81, 78
1, 568322, Note_off_c, 0, 79, 63
1, 568339, Note_on_c, 0, 77, 66
1, 568382, Note_off_c, 0, 81, 55
1, 568385, Note_on_c, 0, 45, 95
1, 568392, Note_on_c, 0, 33, 82
1, 568397, Control_c, 0, 64, 21
1, 568405, Note_on_c, 0, 79, 89
1, 568406, Note_off_c, 0, 77, 61
1, 568412, Control_c, 0, 64, 84
1, 568413, Note_on_c, 0, 76, 72
1, 568419, Note_off_c, 0, 45, 66
1, 568420, Note_off_c, 0, 33, 65
1, 568427, Control_c, 0, 64, 127
1, 568485, Note_on_c, 0, 81, 57
1, 568489, Note_off_c, 0, 79, 62
1, 568492, Note_off_c, 0, 76, 43
1, 568517, Note_on_c, 0, 77, 68
1, 568518, Note_on_c, 0, 57, 96
1, 568540, Note_off_c, 0, 57, 69
1, 568587, Note_off_c, 0, 81, 64
1, 568591, Note_on_c, 0, 79, 80
1, 568603, Note_off_c, 0, 77, 62
1, 568624, Note_on_c, 0, 76, 40
1, 568649, Note_off_c, 0, 79, 63
1, 568656, Note_off_c, 0, 76, 48
1, 568709, Control_c, 0, 64, 100
1, 568724, Control_c, 0, 64, 57
1, 568731, Note_on_c, 0, 43, 109
1, 568731, Note_on_c, 0, 81, 97
1, 568736, Note_on_c, 0, 31, 96
1, 568739, Control_c, 0, 64, 0
1, 568740, Note_on_c, 0, 77, 82
1, 568776, Control_c, 0, 64, 61
1, 568790, Note_off_c, 0, 77, 54
1, 568790, Control_c, 0, 64, 124
1, 568805, Control_c, 0, 64, 127
1, 568818, Note_off_c, 0, 31, 64
1, 568830, Note_off_c, 0, 81, 64
1, 568847, Note_off_c, 0, 43, 65
1, 568852, Note_on_c, 0, 83, 79
1, 568899, Note_off_c, 0, 83, 66
1, 568923, Note_on_c, 0, 84, 73
1, 568961, Note_on_c, 0, 83, 78
1, 568967, Note_off_c, 0, 84, 68
1, 569005, Note_on_c, 0, 81, 75
1, 569018, Note_off_c, 0, 83, 66
1, 569053, Note_on_c, 0, 79, 76
1, 569056, Note_off_c, 0, 81, 64
1, 569057, Control_c, 0, 64, 98
1, 569071, Control_c, 0, 64, 44
1, 569086, Control_c, 0, 64, 0
1, 569087, Note_off_c, 0, 79, 65
1, 569091, Note_on_c, 0, 77, 75
1, 569118, Note_off_c, 0, 77, 68
1, 569148, Note_on_c, 0, 76, 79
1, 569182, Note_off_c, 0, 76, 62
1, 569184, Note_on_c, 0, 74, 74
1, 569241, Note_on_c, 0, 72, 80
1, 569249, Note_off_c, 0, 74, 66
1, 569291, Note_off_c, 0, 72, 61
1, 569295, Note_on_c, 0, 71, 81
1, 569298, Note_on_c, 0, 55, 121
1, 569300, Note_on_c, 0, 43, 85
1, 569309, Control_c, 0, 64, 84
1, 569324, Control_c, 0, 64, 76
1, 569329, Note_off_c, 0, 71, 62
1, 569339, Control_c, 0, 64, 44
1, 569341, Note_off_c, 0, 55, 68
1, 569353, Control_c, 0, 64, 0
1, 569354, Note_on_c, 0, 69, 80
1, 569355, Note_off_c, 0, 43, 64
1, 569374, Poly_aftertouch_c, 0, 50, 0
1, 569402, Note_on_c, 0, 67, 86
1, 569407, Note_off_c, 0, 69, 66
1, 569443, Note_off_c, 0, 67, 59
1, 569469, Note_on_c, 0, 65, 72
1, 569518, Note_off_c, 0, 65, 63
1, 569526, Note_on_c, 0, 67, 77
1, 569555, Note_off_c, 0, 67, 68
1, 569561, Note_on_c, 0, 69, 66
1, 569598, Control_c, 0, 64, 83
1, 569612, Note_on_c, 0, 43, 111
1, 569613, Note_on_c, 0, 31, 87
1, 569613, Control_c, 0, 64, 127
1, 569620, Note_off_c, 0, 69, 66
1, 569628, Note_on_c, 0, 71, 67
1, 569636, Note_on_c, 0, 38, 59
1, 569640, Note_off_c, 0, 31, 66
1, 569645, Note_off_c, 0, 71, 62
1, 569652, Note_off_c, 0, 43, 66
1, 569669, Note_off_c, 0, 38, 53
1, 569678, Note_on_c, 0, 72, 78
1, 569727, Note_on_c, 0, 74, 83
1, 569735, Note_off_c, 0, 72, 63
1, 569760, Note_on_c, 0, 76, 79
1, 569768, Note_off_c, 0, 74, 66
1, 569808, Note_off_c, 0, 76, 68
1, 569818, Note_on_c, 0, 77, 85
1, 569836, Note_on_c, 0, 79, 80
1, 569868, Note_off_c, 0, 77, 63
1, 569880, Note_off_c, 0, 79, 67
1, 569921, Note_on_c, 0, 62, 115
1, 569924, Control_c, 0, 64, 87
1, 569925, Note_on_c, 0, 50, 98
1, 569934, Note_on_c, 0, 81, 99
1, 569937, Note_on_c, 0, 77, 101
1, 569939, Control_c, 0, 64, 62
1, 569954, Control_c, 0, 64, 56
1, 569968, Note_off_c, 0, 50, 65
1, 569968, Control_c, 0, 64, 72
1, 569970, Note_off_c, 0, 62, 64
1, 569983, Control_c, 0, 64, 127
1, 570042, Note_on_c, 0, 79, 87
1, 570043, Note_on_c, 0, 76, 81
1, 570048, Note_off_c, 0, 77, 62
1, 570048, Note_off_c, 0, 81, 65
1, 570081, Note_off_c, 0, 76, 58
1, 570104, Note_off_c, 0, 79, 0
1, 570129, Note_on_c, 0, 81, 86
1, 570129, Poly_aftertouch_c, 0, 79, 0
1, 570132, Control_c, 0, 64, 95
1, 570134, Note_on_c, 0, 77, 81
1, 570147, Control_c, 0, 64, 55
1, 570162, Control_c, 0, 64, 0
1, 570182, Note_off_c, 0, 81, 63
1, 570189, Note_off_c, 0, 77, 57
1, 570220, Note_on_c, 0, 79, 93
1, 570221, Note_on_c, 0, 76, 78
1, 570221, Control_c, 0, 64, 71
1, 570222, Note_on_c, 0, 47, 97
1, 570227, Note_on_c, 0, 35, 88
1, 570236, Control_c, 0, 64, 127
1, 570261, Note_off_c, 0, 76, 59
1, 570273, Note_off_c, 0, 35, 63
1, 570278, Note_off_c, 0, 47, 67
1, 570279, Note_off_c, 0, 79, 63
1, 570318, Note_on_c, 0, 81, 65
1, 570324, Note_on_c, 0, 77, 85
1, 570338, Note_on_c, 0, 79, 51
1, 570362, Note_off_c, 0, 79, 60
1, 570366, Note_off_c, 0, 77, 60
1, 570373, Note_off_c, 0, 81, 64
1, 570415, Note_on_c, 0, 79, 95
1, 570420, Note_on_c, 0, 76, 75
1, 570447, Note_off_c, 0, 76, 65
1, 570458, Note_off_c, 0, 79, 65
1, 570481, Control_c, 0, 64, 73
1, 570495, Control_c, 0, 64, 35
1, 570510, Control_c, 0, 64, 0
1, 570523, Note_on_c, 0, 77, 95
1, 570524, Note_on_c, 0, 81, 92
1, 570528, Note_on_c, 0, 45, 118
1, 570528, Note_on_c, 0, 33, 88
1, 570531, Note_on_c, 0, 74, 96
1, 570540, Control_c, 0, 64, 56
1, 570555, Control_c, 0, 64, 92
1, 570558, Note_on_c, 0, 36, 56
1, 570569, Note_off_c, 0, 33, 63
1, 570569, Control_c, 0, 64, 127
1, 570588, Note_off_c, 0, 36, 58
1, 570593, Note_off_c, 0, 45, 67
1, 570598, Note_off_c, 0, 77, 64
1, 570618, Note_off_c, 0, 74, 64
1, 570628, Note_on_c, 0, 79, 79
1, 570630, Note_off_c, 0, 81, 61
1, 570694, Note_off_c, 0, 79, 65
1, 570695, Note_on_c, 0, 77, 76
1, 570743, Note_on_c, 0, 79, 68
1, 570751, Note_off_c, 0, 77, 64
1, 570808, Note_off_c, 0, 79, 66
1, 570814, Note_on_c, 0, 81, 73
1, 570835, Note_on_c, 0, 55, 91
1, 570835, Note_on_c, 0, 67, 112
1, 570835, Note_off_c, 0, 81, 68
1, 570877, Note_off_c, 0, 67, 70
1, 570886, Note_on_c, 0, 83, 81
1, 570901, Note_off_c, 0, 55, 65
1, 570931, Note_on_c, 0, 84, 74
1, 570932, Note_off_c, 0, 83, 66
1, 570960, Note_off_c, 0, 84, 64
1, 570963, Note_on_c, 0, 86, 73
1, 571020, Note_off_c, 0, 86, 68
1, 571028, Note_on_c, 0, 88, 65
1, 571038, Note_on_c, 0, 89, 65
1, 571046, Note_off_c, 0, 88, 67
1, 571056, Note_off_c, 0, 89, 65
1, 571086, Note_on_c, 0, 91, 79
1, 571121, Note_on_c, 0, 93, 78
1, 571127, Note_off_c, 0, 91, 65
1, 571142, Note_off_c, 0, 93, 70
1, 571154, Control_c, 0, 64, 77
1, 571163, Note_on_c, 0, 95, 77
1, 571169, Control_c, 0, 64, 0
1, 571190, Note_on_c, 0, 43, 112
1, 571192, Note_on_c, 0, 31, 90
1, 571198, Note_on_c, 0, 96, 99
1, 571220, Note_on_c, 0, 38, 55
1, 571224, Note_off_c, 0, 95, 68
1, 571244, Control_c, 0, 64, 70
1, 571259, Control_c, 0, 64, 127
1, 571269, Note_on_c, 0, 95, 89
1, 571287, Note_off_c, 0, 38, 0
1, 571323, Note_off_c, 0, 96, 64
1, 571324, Poly_aftertouch_c, 0, 38, 127
1, 571333, Note_on_c, 0, 93, 63
1, 571340, Note_off_c, 0, 95, 52
1, 571363, Note_on_c, 0, 91, 85
1, 571377, Note_off_c, 0, 93, 66
1, 571381, Poly_aftertouch_c, 0, 38, 0
1, 571393, Note_off_c, 0, 31, 56
1, 571394, Note_off_c, 0, 43, 62
1, 571401, Note_off_c, 0, 91, 64
1, 571435, Note_on_c, 0, 89, 74
1, 571439, Note_on_c, 0, 91, 61
1, 571465, Note_off_c, 0, 91, 67
1, 571467, Note_on_c, 0, 47, 71
1, 571470, Note_on_c, 0, 88, 50
1, 571487, Note_off_c, 0, 47, 65
1, 571488, Note_on_c, 0, 48, 78
1, 571507, Note_off_c, 0, 89, 63
1, 571515, Note_off_c, 0, 48, 67
1, 571517, Note_on_c, 0, 86, 73
1, 571518, Note_on_c, 0, 50, 80
1, 571541, Note_on_c, 0, 52, 83
1, 571541, Note_off_c, 0, 50, 67
1, 571552, Note_off_c, 0, 88, 62
1, 571558, Note_off_c, 0, 52, 68
1, 571562, Note_on_c, 0, 53, 78
1, 571569, Note_off_c, 0, 86, 66
1, 571573, Note_on_c, 0, 84, 67
1, 571580, Note_off_c, 0, 53, 64
1, 571581, Note_on_c, 0, 55, 72
1, 571598, Note_on_c, 0, 57, 75
1, 571601, Note_off_c, 0, 55, 66
1, 571607, Note_off_c, 0, 84, 68
1, 571607, Note_on_c, 0, 83, 72
1, 571611, Note_on_c, 0, 59, 80
1, 571617, Note_off_c, 0, 57, 64
1, 571626, Note_on_c, 0, 60, 76
1, 571627, Note_off_c, 0, 59, 67
1, 571643, Note_on_c, 0, 62, 78
1, 571643, Note_off_c, 0, 60, 66
1, 571643, Note_off_c, 0, 83, 64
1, 571661, Note_off_c, 0, 62, 68
1, 571661, Note_on_c, 0, 64, 83
1, 571680, Note_on_c, 0, 81, 75
1, 571684, Note_off_c, 0, 64, 71
1, 571688, Note_on_c, 0, 65, 78
1, 571712, Note_off_c, 0, 65, 65
1, 571721, Note_off_c, 0, 81, 63
1, 571761, Note_on_c, 0, 79, 78
1, 571780, Poly_aftertouch_c, 0, 59, 0
1, 571789, Note_on_c, 0, 67, 108
1, 571799, Poly_aftertouch_c, 0, 60, 0
1, 571808, Note_on_c, 0, 81, 79
1, 571812, Note_off_c, 0, 79, 64
1, 571842, Note_off_c, 0, 67, 66
1, 571864, Note_on_c, 0, 83, 88
1, 571866, Note_off_c, 0, 81, 64
1, 571934, Note_off_c, 0, 83, 66
1, 571950, Note_on_c, 0, 81, 60
1, 571970, Note_off_c, 0, 81, 62
1, 571974, Note_on_c, 0, 79, 77
1, 572015, Note_off_c, 0, 79, 63
1, 572032, Note_on_c, 0, 81, 74
1, 572058, Note_on_c, 0, 83, 80
1, 572058, Note_off_c, 0, 81, 68
1, 572067, Note_on_c, 0, 52, 103
1, 572072, Note_on_c, 0, 40, 80
1, 572078, Note_off_c, 0, 83, 70
1, 572098, Note_off_c, 0, 40, 65
1, 572111, Note_off_c, 0, 52, 66
1, 572125, Note_on_c, 0, 84, 75
1, 572138, Note_on_c, 0, 83, 46
1, 572163, Note_off_c, 0, 83, 62
1, 572174, Note_off_c, 0, 84, 67
1, 572181, Note_on_c, 0, 86, 73
1, 572196, Note_on_c, 0, 64, 83
1, 572212, Note_off_c, 0, 86, 66
1, 572215, Note_on_c, 0, 88, 83
1, 572218, Note_off_c, 0, 64, 68
1, 572219, Poly_aftertouch_c, 0, 40, 127
1, 572241, Note_off_c, 0, 88, 68
1, 572251, Poly_aftertouch_c, 0, 40, 0
1, 572299, Note_on_c, 0, 91, 63
1, 572333, Control_c, 0, 64, 59
1, 572345, Note_off_c, 0, 91, 66
1, 572348, Control_c, 0, 64, 0
1, 572349, Note_on_c, 0, 93, 76
1, 572350, Note_on_c, 0, 95, 66
1, 572363, Note_on_c, 0, 50, 108
1, 572363, Poly_aftertouch_c, 0, 64, 0
1, 572368, Note_on_c, 0, 38, 93
1, 572377, Control_c, 0, 64, 49
1, 572392, Control_c, 0, 64, 101
1, 572397, Note_off_c, 0, 93, 64
1, 572404, Note_off_c, 0, 38, 63
1, 572407, Control_c, 0, 64, 127
1, 572411, Note_on_c, 0, 98, 77
1, 572423, Note_on_c, 0, 96, 84
1, 572427, Note_off_c, 0, 95, 67
1, 572427, Note_off_c, 0, 50, 66
1, 572442, Note_off_c, 0, 98, 66
1, 572475, Note_on_c, 0, 95, 88
1, 572506, Note_off_c, 0, 96, 65
1, 572525, Note_on_c, 0, 93, 70
1, 572532, Note_on_c, 0, 62, 82
1, 572548, Note_on_c, 0, 64, 55
1, 572549, Note_off_c, 0, 64, 127
1, 572555, Note_off_c, 0, 95, 67
1, 572556, Note_off_c, 0, 62, 68
1, 572583, Note_off_c, 0, 93, 66
1, 572586, Note_on_c, 0, 91, 74
1, 572603, Note_off_c, 0, 91, 67
1, 572646, Note_on_c, 0, 89, 79
1, 572664, Note_on_c, 0, 47, 103
1, 572666, Note_on_c, 0, 35, 89
1, 572678, Note_on_c, 0, 88, 71
1, 572691, Note_off_c, 0, 35, 66
1, 572692, Note_off_c, 0, 89, 66
1, 572696, Poly_aftertouch_c, 0, 62, 0
1, 572698, Note_off_c, 0, 47, 66
1, 572723, Note_on_c, 0, 86, 79
1, 572751, Note_off_c, 0, 88, 67
1, 572764, Note_on_c, 0, 84, 67
1, 572776, Note_off_c, 0, 86, 64
1, 572802, Note_on_c, 0, 59, 85
1, 572815, Note_off_c, 0, 84, 65
1, 572827, Note_off_c, 0, 59, 69
1, 572828, Note_on_c, 0, 83, 63
1, 572844, Poly_aftertouch_c, 0, 35, 0
1, 572845, Note_off_c, 0, 83, 65
1, 572892, Note_on_c, 0, 81, 75
1, 572904, Control_c, 0, 64, 83
1, 572917, Note_off_c, 0, 81, 66
1, 572919, Control_c, 0, 64, 45
1, 572934, Control_c, 0, 64, 0
1, 572946, Note_on_c, 0, 45, 106
1, 572949, Control_c, 0, 64, 33
1, 572952, Note_on_c, 0, 33, 93
1, 572952, Note_on_c, 0, 79, 76
1, 572964, Control_c, 0, 64, 75
1, 572978, Note_off_c, 0, 33, 66
1, 572979, Control_c, 0, 64, 127
1, 572985, Note_on_c, 0, 81, 71
1, 572991, Note_off_c, 0, 79, 61
1, 572992, Note_off_c, 0, 45, 66
1, 573047, Note_on_c, 0, 83, 85
1, 573053, Note_off_c, 0, 81, 65
1, 573097, Note_on_c, 0, 57, 94
1, 573116, Note_off_c, 0, 83, 66
1, 573118, Note_on_c, 0, 81, 79
1, 573122, Note_off_c, 0, 57, 69
1, 573148, Note_off_c, 0, 81, 66
1, 573161, Note_on_c, 0, 79, 72
1, 573205, Note_off_c, 0, 79, 60
1, 573213, Note_on_c, 0, 81, 70
1, 573229, Note_on_c, 0, 55, 110
1, 573234, Note_on_c, 0, 83, 82
1, 573237, Note_off_c, 0, 81, 68
1, 573255, Note_on_c, 0, 45, 74
1, 573262, Note_on_c, 0, 43, 52
1, 573262, Note_off_c, 0, 83, 70
1, 573274, Note_off_c, 0, 55, 68
1, 573279, Note_off_c, 0, 45, 60
1, 573295, Note_off_c, 0, 43, 58
1, 573312, Note_on_c, 0, 84, 86
1, 573356, Note_off_c, 0, 84, 65
1, 573375, Note_on_c, 0, 88, 46
1, 573375, Note_on_c, 0, 67, 82
1, 573384, Note_on_c, 0, 69, 71
1, 573397, Note_off_c, 0, 67, 68
1, 573402, Note_off_c, 0, 69, 69
1, 573405, Note_on_c, 0, 89, 87
1, 573405, Note_off_c, 0, 88, 57
1, 573426, Note_off_c, 0, 89, 69
1, 573446, Poly_aftertouch_c, 0, 86, 0
1, 573476, Note_on_c, 0, 67, 10
1, 573477, Note_off_c, 0, 67, 127
1, 573485, Note_on_c, 0, 91, 80
1, 573526, Note_on_c, 0, 93, 77
1, 573528, Note_off_c, 0, 91, 66
1, 573549, Control_c, 0, 64, 80
1, 573554, Note_on_c, 0, 95, 31
1, 573565, Control_c, 0, 64, 0
1, 573574, Note_on_c, 0, 43, 113
1, 573580, Note_on_c, 0, 31, 95
1, 573583, Note_off_c, 0, 93, 64
1, 573597, Note_on_c, 0, 32, 72
1, 573602, Note_on_c, 0, 96, 90
1, 573602, Note_on_c, 0, 98, 75
1, 573610, Control_c, 0, 64, 47
1, 573619, Note_off_c, 0, 95, 67
1, 573624, Control_c, 0, 64, 89
1, 573626, Note_off_c, 0, 32, 61
1, 573626, Note_off_c, 0, 98, 66
1, 573639, Control_c, 0, 64, 127
1, 573667, Note_on_c, 0, 95, 66
1, 573676, Poly_aftertouch_c, 0, 34, 0
1, 573677, Poly_aftertouch_c, 0, 37, 0
1, 573696, Note_off_c, 0, 96, 64
1, 573715, Poly_aftertouch_c, 0, 37, 0
1, 573721, Note_on_c, 0, 93, 77
1, 573742, Note_off_c, 0, 95, 67
1, 573762, Note_on_c, 0, 91, 72
1, 573766, Note_off_c, 0, 93, 66
1, 573768, Note_on_c, 0, 33, 58
1, 573774, Note_off_c, 0, 43, 61
1, 573777, Note_off_c, 0, 91, 69
1, 573781, Note_off_c, 0, 31, 54
1, 573790, Note_on_c, 0, 45, 65
1, 573795, Note_on_c, 0, 35, 74
1, 573810, Note_off_c, 0, 45, 65
1, 573811, Note_off_c, 0, 33, 59
1, 573815, Note_on_c, 0, 89, 74
1, 573822, Note_off_c, 0, 35, 62
1, 573824, Note_on_c, 0, 47, 76
1, 573828, Note_on_c, 0, 36, 67
1, 573843, Note_on_c, 0, 48, 83
1, 573843, Note_off_c, 0, 47, 64
1, 573855, Note_on_c, 0, 38, 67
1, 573857, Note_on_c, 0, 88, 71
1, 573858, Note_off_c, 0, 36, 65
1, 573866, Note_on_c, 0, 50, 86
1, 573867, Note_off_c, 0, 48, 66
1, 573874, Note_off_c, 0, 89, 65
1, 573884, Note_on_c, 0, 40, 66
1, 573885, Note_off_c, 0, 38, 64
1, 573889, Note_on_c, 0, 52, 85
1, 573890, Note_off_c, 0, 50, 69
1, 573904, Note_on_c, 0, 86, 73
1, 573909, Note_off_c, 0, 40, 59
1, 573910, Note_on_c, 0, 53, 81
1, 573912, Note_off_c, 0, 52, 65
1, 573915, Note_on_c, 0, 41, 53
1, 573924, Note_off_c, 0, 88, 66
1, 573927, Note_off_c, 0, 53, 68
1, 573932, Note_on_c, 0, 55, 72
1, 573941, Note_on_c, 0, 43, 45
1, 573944, Note_off_c, 0, 41, 54
1, 573947, Note_on_c, 0, 57, 71
1, 573952, Note_on_c, 0, 84, 68
1, 573956, Note_off_c, 0, 55, 61
1, 573958, Note_on_c, 0, 59, 80
1, 573960, Note_off_c, 0, 86, 64
1, 573962, Note_off_c, 0, 43, 64
1, 573969, Note_off_c, 0, 57, 43
1, 573971, Note_on_c, 0, 60, 82
1, 573976, Note_off_c, 0, 59, 66
1, 573977, Note_on_c, 0, 47, 33
1, 573983, Note_on_c, 0, 48, 26
1, 573986, Note_off_c, 0, 60, 68
1, 573987, Note_on_c, 0, 62, 82
1, 573995, Note_on_c, 0, 50, 40
1, 574007, Note_on_c, 0, 83, 82
1, 574007, Note_off_c, 0, 47, 63
1, 574011, Note_off_c, 0, 62, 70
1, 574012, Note_off_c, 0, 84, 66
1, 574013, Note_on_c, 0, 52, 38
1, 574016, Note_on_c, 0, 64, 75
1, 574023, Note_off_c, 0, 48, 56
1, 574025, Note_off_c, 0, 50, 52
1, 574031, Note_off_c, 0, 83, 69
1, 574032, Poly_aftertouch_c, 0, 45, 0
1, 574034, Note_off_c, 0, 64, 68
1, 574040, Note_off_c, 0, 52, 53
1, 574070, Note_on_c, 0, 65, 23
1, 574076, Note_on_c, 0, 81, 83
1, 574108, Note_off_c, 0, 65, 48
1, 574116, Note_off_c, 0, 81, 62
1, 574138, Note_on_c, 0, 67, 105
1, 574145, Note_on_c, 0, 55, 98
1, 574146, Note_on_c, 0, 79, 87
1, 574147, Poly_aftertouch_c, 0, 60, 0
1, 574171, Note_off_c, 0, 55, 69
1, 574185, Note_off_c, 0, 79, 63
1, 574187, Note_on_c, 0, 81, 76
1, 574187, Note_off_c, 0, 67, 69
1, 574244, Note_on_c, 0, 83, 87
1, 574249, Note_off_c, 0, 81, 65
1, 574317, Note_on_c, 0, 81, 84
1, 574317, Note_off_c, 0, 83, 67
1, 574354, Note_off_c, 0, 81, 64
1, 574356, Note_on_c, 0, 79, 77
1, 574403, Note_off_c, 0, 79, 59
1, 574418, Note_on_c, 0, 81, 69
1, 574448, Note_on_c, 0, 83, 76
1, 574448, Note_off_c, 0, 81, 66
1, 574474, Note_off_c, 0, 83, 69
1, 574517, Note_on_c, 0, 84, 84
1, 574567, Note_off_c, 0, 84, 66
1, 574574, Note_on_c, 0, 86, 75
1, 574608, Note_on_c, 0, 88, 75
1, 574625, Control_c, 0, 64, 106
1, 574627, Note_off_c, 0, 86, 56
1, 574630, Note_on_c, 0, 89, 80
1, 574639, Control_c, 0, 64, 70
1, 574648, Note_off_c, 0, 88, 62
1, 574654, Control_c, 0, 64, 39
1, 574669, Control_c, 0, 64, 0
1, 574677, Note_on_c, 0, 91, 86
1, 574708, Note_off_c, 0, 89, 66
1, 574717, Note_off_c, 0, 91, 66
1, 574746, Note_on_c, 0, 45, 76
1, 574748, Note_on_c, 0, 50, 106
1, 574752, Note_on_c, 0, 38, 83
1, 574755, Note_on_c, 0, 93, 100
1, 574758, Note_on_c, 0, 86, 95
1, 574760, Note_on_c, 0, 81, 94
1, 574762, Note_on_c, 0, 89, 87
1, 574765, Control_c, 0, 64, 85
1, 574773, Note_off_c, 0, 38, 66
1, 574774, Note_off_c, 0, 86, 74
1, 574776, Note_off_c, 0, 81, 73
1, 574780, Control_c, 0, 64, 127
1, 574783, Note_off_c, 0, 89, 69
1, 574785, Note_off_c, 0, 93, 67
1, 574788, Note_off_c, 0, 50, 69
1, 574790, Note_off_c, 0, 45, 66
1, 574804, Note_on_c, 0, 43, 8
1, 574848, Note_on_c, 0, 81, 10
1, 574850, Note_off_c, 0, 43, 55
1, 574864, Note_off_c, 0, 81, 48
1, 574874, Note_on_c, 0, 86, 24
1, 574904, Note_off_c, 0, 86, 41
1, 574974, Control_c, 0, 67, 32
1, 574988, Control_c, 0, 64, 84
1, 574988, Control_c, 0, 67, 52
1, 575003, Control_c, 0, 64, 55
1, 575003, Control_c, 0, 67, 74
1, 575018, Control_c, 0, 64, 0
1, 575018, Control_c, 0, 67, 104
1, 575033, Control_c, 0, 67, 124
1, 575048, Control_c, 0, 67, 127
1, 575117, Note_on_c, 0, 69, 69
1, 575152, Note_off_c, 0, 69, 63
1, 575152, Note_on_c, 0, 62, 33
1, 575184, Note_off_c, 0, 62, 51
1, 575195, Note_on_c, 0, 74, 61
1, 575214, Poly_aftertouch_c, 0, 69, 0
1, 575238, Note_off_c, 0, 74, 60
1, 575264, Note_on_c, 0, 77, 63
1, 575274, Note_on_c, 0, 62, 61
1, 575275, Note_on_c, 0, 69, 64
1, 575295, Note_off_c, 0, 69, 66
1, 575316, Note_off_c, 0, 62, 62
1, 575324, Note_off_c, 0, 77, 60
1, 575345, Note_on_c, 0, 74, 60
1, 575361, Note_on_c, 0, 69, 66
1, 575378, Note_off_c, 0, 69, 69
1, 575386, Note_off_c, 0, 74, 61
1, 575408, Note_on_c, 0, 77, 66
1, 575436, Note_on_c, 0, 69, 62
1, 575453, Note_off_c, 0, 69, 67
1, 575463, Note_off_c, 0, 77, 59
1, 575471, Note_on_c, 0, 81, 63
1, 575517, Note_on_c, 0, 69, 70
1, 575533, Note_off_c, 0, 69, 69
1, 575538, Note_off_c, 0, 81, 64
1, 575580, Note_on_c, 0, 76, 101
1, 575588, Note_on_c, 0, 69, 86
1, 575611, Note_off_c, 0, 76, 69
1, 575632, Note_off_c, 0, 69, 65
1, 575677, Note_on_c, 0, 69, 59
1, 575704, Note_off_c, 0, 69, 68
1, 575756, Note_on_c, 0, 69, 73
1, 575760, Note_on_c, 0, 72, 83
1, 575784, Note_off_c, 0, 69, 67
1, 575787, Note_off_c, 0, 72, 65
1, 575802, Note_on_c, 0, 62, 22
1, 575834, Note_on_c, 0, 69, 74
1, 575845, Note_off_c, 0, 62, 28
1, 575859, Note_off_c, 0, 69, 70
1, 575904, Note_on_c, 0, 69, 79
1, 575910, Note_on_c, 0, 76, 87
1, 575930, Note_on_c, 0, 62, 52
1, 575934, Note_off_c, 0, 69, 66
1, 575935, Note_off_c, 0, 76, 66
1, 575954, Note_off_c, 0, 62, 60
1, 575986, Note_on_c, 0, 69, 71
1, 576006, Note_off_c, 0, 69, 61
1, 576058, Note_on_c, 0, 79, 92
1, 576064, Note_on_c, 0, 62, 39
1, 576065, Note_on_c, 0, 69, 72
1, 576091, Note_off_c, 0, 69, 69
1, 576095, Note_off_c, 0, 62, 59
1, 576096, Note_off_c, 0, 79, 67
1, 576138, Note_on_c, 0, 69, 73
1, 576175, Note_off_c, 0, 69, 63
1, 576225, Control_c, 0, 64, 41
1, 576245, Note_on_c, 0, 77, 97
1, 576248, Control_c, 0, 64, 55
1, 576251, Note_on_c, 0, 69, 67
1, 576252, Note_on_c, 0, 62, 53
1, 576263, Control_c, 0, 64, 63
1, 576263, Control_c, 0, 67, 124
1, 576277, Control_c, 0, 64, 70
1, 576277, Control_c, 0, 67, 118
1, 576281, Note_off_c, 0, 69, 67
1, 576292, Control_c, 0, 64, 84
1, 576292, Control_c, 0, 67, 110
1, 576296, Note_off_c, 0, 62, 66
1, 576307, Control_c, 0, 64, 127
1, 576307, Control_c, 0, 67, 98
1, 576322, Control_c, 0, 67, 86
1, 576337, Note_on_c, 0, 69, 71
1, 576337, Control_c, 0, 67, 79
1, 576343, Note_off_c, 0, 77, 63
1, 576351, Control_c, 0, 67, 80
1, 576355, Note_off_c, 0, 69, 68
1, 576366, Control_c, 0, 67, 84
1, 576381, Control_c, 0, 67, 84
1, 576396, Control_c, 0, 67, 86
1, 576410, Control_c, 0, 64, 80
1, 576410, Control_c, 0, 67, 88
1, 576413, Note_on_c, 0, 69, 78
1, 576425, Control_c, 0, 64, 58
1, 576425, Control_c, 0, 67, 90
1, 576432, Note_on_c, 0, 62, 52
1, 576439, Note_on_c, 0, 77, 74
1, 576440, Note_off_c, 0, 69, 68
1, 576440, Control_c, 0, 64, 0
1, 576440, Control_c, 0, 67, 95
1, 576455, Control_c, 0, 67, 100
1, 576456, Note_off_c, 0, 62, 61
1, 576469, Control_c, 0, 67, 103
1, 576484, Note_off_c, 0, 77, 62
1, 576485, Note_on_c, 0, 69, 80
1, 576499, Control_c, 0, 67, 103
1, 576514, Control_c, 0, 67, 104
1, 576515, Note_on_c, 0, 74, 63
1, 576517, Note_off_c, 0, 69, 65
1, 576529, Control_c, 0, 67, 106
1, 576562, Note_on_c, 0, 62, 57
1, 576564, Note_on_c, 0, 69, 71
1, 576568, Note_off_c, 0, 74, 62
1, 576573, Note_on_c, 0, 77, 80
1, 576574, Control_c, 0, 67, 105
1, 576587, Note_off_c, 0, 69, 70
1, 576611, Note_off_c, 0, 62, 63
1, 576617, Note_off_c, 0, 77, 59
1, 576633, Control_c, 0, 67, 104
1, 576638, Note_on_c, 0, 69, 74
1, 576648, Control_c, 0, 67, 103
1, 576664, Note_on_c, 0, 74, 69
1, 576666, Note_off_c, 0, 69, 66
1, 576693, Control_c, 0, 67, 102
1, 576708, Control_c, 0, 67, 103
1, 576712, Note_off_c, 0, 74, 61
1, 576721, Note_on_c, 0, 77, 75
1, 576723, Control_c, 0, 67, 104
1, 576725, Note_on_c, 0, 62, 60
1, 576729, Poly_aftertouch_c, 0, 69, 0
1, 576738, Control_c, 0, 67, 106
1, 576749, Note_off_c, 0, 62, 65
1, 576752, Control_c, 0, 67, 108
1, 576767, Control_c, 0, 67, 110
1, 576773, Note_off_c, 0, 77, 65
1, 576782, Control_c, 0, 67, 114
1, 576788, Note_on_c, 0, 69, 74
1, 576797, Note_on_c, 0, 81, 77
1, 576797, Control_c, 0, 67, 116
1, 576812, Control_c, 0, 67, 118
1, 576813, Note_off_c, 0, 69, 67
1, 576827, Control_c, 0, 67, 119
1, 576839, Note_off_c, 0, 81, 63
1, 576856, Control_c, 0, 67, 119
1, 576863, Note_on_c, 0, 69, 76
1, 576871, Control_c, 0, 67, 121
1, 576872, Note_on_c, 0, 76, 99
1, 576885, Control_c, 0, 67, 123
1, 576895, Note_on_c, 0, 62, 26
1, 576900, Control_c, 0, 67, 123
1, 576907, Note_off_c, 0, 76, 67
1, 576914, Note_off_c, 0, 69, 65
1, 576915, Control_c, 0, 67, 124
1, 576925, Note_off_c, 0, 62, 47
1, 576930, Control_c, 0, 67, 125
1, 576945, Control_c, 0, 67, 127
1, 576953, Note_on_c, 0, 69, 62
1, 577002, Note_off_c, 0, 69, 64
1, 577049, Note_on_c, 0, 69, 63
1, 577051, Note_on_c, 0, 72, 83
1, 577063, Note_on_c, 0, 62, 39
1, 577079, Note_off_c, 0, 72, 63
1, 577083, Note_off_c, 0, 69, 65
1, 577092, Note_off_c, 0, 62, 55
1, 577140, Note_on_c, 0, 69, 66
1, 577158, Note_off_c, 0, 69, 67
1, 577205, Note_on_c, 0, 76, 85
1, 577217, Note_on_c, 0, 69, 72
1, 577226, Note_off_c, 0, 76, 67
1, 577234, Note_off_c, 0, 69, 69
1, 577295, Note_on_c, 0, 69, 70
1, 577313, Note_off_c, 0, 69, 69
1, 577353, Note_on_c, 0, 79, 88
1, 577375, Note_off_c, 0, 79, 70
1, 577376, Note_on_c, 0, 69, 72
1, 577384, Note_on_c, 0, 62, 48
1, 577392, Note_off_c, 0, 69, 69
1, 577412, Note_off_c, 0, 62, 56
1, 577456, Note_on_c, 0, 69, 71
1, 577457, Control_c, 0, 64, 50
1, 577457, Control_c, 0, 67, 125
1, 577472, Note_off_c, 0, 69, 70
1, 577472, Control_c, 0, 64, 60
1, 577472, Control_c, 0, 67, 120
1, 577487, Control_c, 0, 64, 64
1, 577487, Control_c, 0, 67, 118
1, 577502, Control_c, 0, 64, 68
1, 577516, Control_c, 0, 64, 73
1, 577516, Control_c, 0, 67, 116
1, 577530, Note_on_c, 0, 88, 99
1, 577531, Note_on_c, 0, 69, 79
1, 577531, Control_c, 0, 64, 82
1, 577531, Control_c, 0, 67, 114
1, 577540, Note_on_c, 0, 62, 54
1, 577542, Note_on_c, 0, 77, 81
1, 577546, Control_c, 0, 64, 99
1, 577546, Control_c, 0, 67, 110
1, 577557, Note_off_c, 0, 88, 65
1, 577561, Control_c, 0, 64, 127
1, 577561, Control_c, 0, 67, 105
1, 577563, Note_off_c, 0, 77, 67
1, 577576, Control_c, 0, 67, 102
1, 577580, Note_off_c, 0, 69, 64
1, 577587, Note_off_c, 0, 62, 63
1, 577605, Control_c, 0, 67, 102
1, 577626, Note_on_c, 0, 69, 59
1, 577635, Control_c, 0, 67, 102
1, 577650, Control_c, 0, 67, 100
1, 577656, Note_off_c, 0, 69, 67
1, 577665, Control_c, 0, 67, 96
1, 577679, Control_c, 0, 67, 93
1, 577694, Control_c, 0, 67, 90
1, 577709, Control_c, 0, 67, 88
1, 577716, Note_on_c, 0, 62, 54
1, 577719, Note_on_c, 0, 69, 62
1, 577724, Control_c, 0, 67, 86
1, 577742, Note_off_c, 0, 69, 70
1, 577746, Control_c, 0, 67, 81
1, 577761, Control_c, 0, 67, 75
1, 577763, Note_off_c, 0, 62, 62
1, 577776, Control_c, 0, 67, 70
1, 577790, Control_c, 0, 67, 64
1, 577802, Note_on_c, 0, 69, 74
1, 577805, Note_on_c, 0, 74, 68
1, 577805, Control_c, 0, 67, 58
1, 577820, Control_c, 0, 67, 51
1, 577826, Note_off_c, 0, 69, 67
1, 577835, Control_c, 0, 67, 39
1, 577836, Note_off_c, 0, 74, 66
1, 577850, Control_c, 0, 67, 30
1, 577864, Control_c, 0, 67, 23
1, 577877, Note_on_c, 0, 62, 54
1, 577879, Control_c, 0, 67, 14
1, 577880, Note_on_c, 0, 77, 69
1, 577882, Note_on_c, 0, 69, 64
1, 577894, Control_c, 0, 67, 0
1, 577897, Note_off_c, 0, 69, 69
1, 577908, Note_off_c, 0, 77, 68
1, 577924, Note_off_c, 0, 62, 43
1, 577942, Note_on_c, 0, 74, 68
1, 577945, Note_on_c, 0, 69, 66
1, 577962, Note_off_c, 0, 69, 68
1, 577973, Note_off_c, 0, 74, 67
1, 578014, Note_on_c, 0, 77, 63
1, 578022, Note_on_c, 0, 69, 75
1, 578041, Note_off_c, 0, 77, 68
1, 578049, Note_off_c, 0, 69, 67
1, 578070, Note_on_c, 0, 81, 68
1, 578086, Note_off_c, 0, 81, 68
1, 578093, Note_on_c, 0, 69, 81
1, 578144, Note_off_c, 0, 69, 65
1, 578146, Control_c, 0, 64, 106
1, 578162, Control_c, 0, 64, 61
1, 578168, Note_on_c, 0, 76, 82
1, 578174, Note_on_c, 0, 93, 100
1, 578177, Control_c, 0, 64, 0
1, 578177, Control_c, 0, 67, 11
1, 578180, Note_on_c, 0, 81, 80
1, 578192, Control_c, 0, 67, 15
1, 578197, Note_off_c, 0, 93, 67
1, 578201, Note_off_c, 0, 81, 69
1, 578205, Note_off_c, 0, 76, 63
1, 578206, Control_c, 0, 67, 22
1, 578221, Control_c, 0, 67, 34
1, 578236, Control_c, 0, 67, 50
1, 578249, Note_on_c, 0, 69, 80
1, 578251, Control_c, 0, 67, 71
1, 578266, Control_c, 0, 67, 88
1, 578280, Control_c, 0, 67, 96
1, 578292, Note_on_c, 0, 81, 3
1, 578293, Note_off_c, 0, 81, 127
1, 578294, Note_off_c, 0, 69, 62
1, 578295, Control_c, 0, 67, 98
1, 578325, Control_c, 0, 67, 98
1, 578339, Note_on_c, 0, 72, 87
1, 578339, Control_c, 0, 67, 102
1, 578354, Control_c, 0, 67, 106
1, 578360, Note_on_c, 0, 64, 35
1, 578363, Note_off_c, 0, 72, 67
1, 578369, Control_c, 0, 67, 107
1, 578372, Note_on_c, 0, 62, 20
1, 578388, Poly_aftertouch_c, 0, 69, 127
1, 578392, Note_on_c, 0, 69, 3
1, 578394, Note_off_c, 0, 64, 51
1, 578399, Control_c, 0, 67, 108
1, 578400, Note_off_c, 0, 69, 0
1, 578413, Control_c, 0, 67, 109
1, 578417, Note_off_c, 0, 62, 39
1, 578420, Note_on_c, 0, 69, 22
1, 578428, Control_c, 0, 67, 110
1, 578443, Control_c, 0, 67, 111
1, 578457, Control_c, 0, 67, 114
1, 578464, Note_off_c, 0, 69, 66
1, 578472, Control_c, 0, 67, 117
1, 578495, Control_c, 0, 67, 119
1, 578496, Note_on_c, 0, 76, 84
1, 578503, Poly_aftertouch_c, 0, 69, 0
1, 578510, Control_c, 0, 67, 119
1, 578511, Note_on_c, 0, 62, 64
1, 578514, Note_on_c, 0, 69, 62
1, 578516, Note_off_c, 0, 76, 70
1, 578549, Note_off_c, 0, 69, 67
1, 578552, Note_off_c, 0, 62, 65
1, 578554, Control_c, 0, 67, 120
1, 578569, Control_c, 0, 67, 121
1, 578584, Control_c, 0, 67, 121
1, 578585, Note_on_c, 0, 76, 19
1, 578599, Control_c, 0, 67, 122
1, 578605, Poly_aftertouch_c, 0, 69, 127
1, 578612, Poly_aftertouch_c, 0, 69, 0
1, 578613, Control_c, 0, 67, 122
1, 578614, Note_off_c, 0, 76, 47
1, 578643, Control_c, 0, 67, 123
1, 578654, Note_on_c, 0, 79, 88
1, 578657, Control_c, 0, 67, 124
1, 578659, Note_on_c, 0, 69, 71
1, 578671, Note_on_c, 0, 62, 56
1, 578672, Control_c, 0, 67, 125
1, 578674, Note_off_c, 0, 79, 70
1, 578696, Note_off_c, 0, 69, 63
1, 578700, Note_off_c, 0, 62, 66
1, 578702, Control_c, 0, 67, 124
1, 578717, Control_c, 0, 67, 124
1, 578747, Control_c, 0, 67, 122
1, 578750, Note_on_c, 0, 69, 59
1, 578762, Control_c, 0, 64, 28
1, 578762, Control_c, 0, 67, 120
1, 578774, Note_off_c, 0, 69, 60
1, 578776, Control_c, 0, 64, 42
1, 578776, Control_c, 0, 67, 117
1, 578791, Control_c, 0, 64, 50
1, 578791, Control_c, 0, 67, 115
1, 578806, Control_c, 0, 64, 58
1, 578806, Control_c, 0, 67, 114
1, 578820, Control_c, 0, 64, 65
1, 578820, Control_c, 0, 67, 113
1, 578825, Note_on_c, 0, 88, 88
1, 578835, Control_c, 0, 64, 72
1, 578835, Control_c, 0, 67, 112
1, 578836, Note_on_c, 0, 77, 68
1, 578843, Note_on_c, 0, 69, 65
1, 578843, Note_off_c, 0, 88, 73
1, 578845, Note_on_c, 0, 62, 47
1, 578850, Control_c, 0, 64, 81
1, 578850, Control_c, 0, 67, 110
1, 578852, Note_off_c, 0, 77, 68
1, 578860, Note_off_c, 0, 69, 67
1, 578864, Control_c, 0, 64, 97
1, 578864, Control_c, 0, 67, 108
1, 578875, Note_off_c, 0, 62, 57
1, 578879, Control_c, 0, 64, 117
1, 578879, Control_c, 0, 67, 105
1, 578894, Control_c, 0, 64, 127
1, 578909, Control_c, 0, 67, 105
1, 578925, Note_on_c, 0, 69, 72
1, 578938, Control_c, 0, 67, 104
1, 578951, Note_off_c, 0, 69, 68
1, 578953, Control_c, 0, 67, 103
1, 578969, Control_c, 0, 67, 102
1, 578984, Control_c, 0, 67, 102
1, 578999, Control_c, 0, 67, 101
1, 579009, Note_on_c, 0, 62, 53
1, 579014, Control_c, 0, 67, 100
1, 579018, Note_on_c, 0, 69, 54
1, 579029, Control_c, 0, 67, 99
1, 579033, Note_off_c, 0, 69, 70
1, 579040, Note_off_c, 0, 62, 58
1, 579043, Control_c, 0, 67, 96
1, 579058, Control_c, 0, 67, 93
1, 579073, Control_c, 0, 67, 92
1, 579075, Note_on_c, 0, 74, 74
1, 579081, Note_on_c, 0, 69, 70
1, 579087, Control_c, 0, 67, 91
1, 579102, Control_c, 0, 67, 90
1, 579103, Note_off_c, 0, 69, 67
1, 579110, Note_off_c, 0, 74, 62
1, 579117, Control_c, 0, 67, 87
1, 579132, Control_c, 0, 67, 84
1, 579145, Note_on_c, 0, 69, 77
1, 579147, Note_on_c, 0, 62, 64
1, 579147, Control_c, 0, 67, 80
1, 579157, Note_on_c, 0, 77, 65
1, 579161, Control_c, 0, 67, 76
1, 579174, Note_off_c, 0, 69, 60
1, 579176, Control_c, 0, 67, 68
1, 579183, Note_off_c, 0, 62, 66
1, 579186, Note_off_c, 0, 77, 67
1, 579191, Control_c, 0, 67, 58
1, 579206, Control_c, 0, 67, 45
1, 579221, Control_c, 0, 67, 29
1, 579223, Note_on_c, 0, 74, 72
1, 579243, Control_c, 0, 67, 9
1, 579248, Poly_aftertouch_c, 0, 69, 0
1, 579258, Control_c, 0, 67, 0
1, 579260, Note_off_c, 0, 74, 66
1, 579298, Note_on_c, 0, 69, 78
1, 579298, Note_on_c, 0, 77, 67
1, 579331, Note_off_c, 0, 77, 67
1, 579349, Note_off_c, 0, 69, 66
1, 579358, Note_on_c, 0, 81, 67
1, 579372, Note_on_c, 0, 69, 69
1, 579375, Note_off_c, 0, 81, 67
1, 579421, Control_c, 0, 64, 90
1, 579424, Note_off_c, 0, 69, 64
1, 579435, Control_c, 0, 64, 57
1, 579450, Control_c, 0, 64, 0
1, 579450, Control_c, 0, 67, 8
1, 579452, Note_on_c, 0, 93, 91
1, 579456, Note_on_c, 0, 76, 81
1, 579465, Control_c, 0, 67, 11
1, 579468, Note_on_c, 0, 81, 52
1, 579469, Note_off_c, 0, 81, 127
1, 579469, Note_off_c, 0, 93, 75
1, 579479, Note_off_c, 0, 76, 70
1, 579480, Control_c, 0, 67, 17
1, 579484, Note_on_c, 0, 83, 42
1, 579485, Note_off_c, 0, 83, 127
1, 579495, Control_c, 0, 67, 27
1, 579510, Control_c, 0, 67, 43
1, 579525, Control_c, 0, 67, 59
1, 579531, Note_on_c, 0, 69, 78
1, 579540, Control_c, 0, 67, 71
1, 579554, Control_c, 0, 67, 76
1, 579569, Control_c, 0, 67, 77
1, 579572, Note_off_c, 0, 69, 63
1, 579584, Control_c, 0, 67, 78
1, 579599, Control_c, 0, 67, 82
1, 579614, Control_c, 0, 67, 87
1, 579620, Note_on_c, 0, 72, 80
1, 579620, Note_on_c, 0, 62, 69
1, 579628, Control_c, 0, 67, 91
1, 579632, Note_on_c, 0, 69, 42
1, 579643, Control_c, 0, 67, 92
1, 579644, Note_off_c, 0, 72, 67
1, 579656, Note_off_c, 0, 69, 62
1, 579658, Control_c, 0, 67, 91
1, 579659, Note_off_c, 0, 62, 65
1, 579687, Control_c, 0, 67, 91
1, 579702, Control_c, 0, 67, 92
1, 579705, Note_on_c, 0, 69, 78
1, 579728, Note_off_c, 0, 69, 69
1, 579770, Note_on_c, 0, 76, 80
1, 579771, Note_on_c, 0, 69, 83
1, 579784, Note_on_c, 0, 62, 65
1, 579792, Control_c, 0, 67, 91
1, 579795, Note_off_c, 0, 76, 67
1, 579807, Control_c, 0, 67, 90
1, 579814, Note_off_c, 0, 62, 66
1, 579822, Note_off_c, 0, 69, 65
1, 579846, Note_on_c, 0, 69, 72
1, 579852, Control_c, 0, 67, 90
1, 579866, Control_c, 0, 67, 89
1, 579881, Control_c, 0, 67, 88
1, 579887, Note_off_c, 0, 69, 65
1, 579922, Note_on_c, 0, 69, 71
1, 579924, Note_on_c, 0, 79, 89
1, 579925, Note_on_c, 0, 62, 61
1, 579925, Control_c, 0, 67, 87
1, 579940, Control_c, 0, 67, 86
1, 579942, Note_off_c, 0, 79, 71
1, 579956, Note_off_c, 0, 69, 67
1, 579965, Note_off_c, 0, 62, 67
1, 579970, Control_c, 0, 67, 86
1, 579992, Control_c, 0, 67, 87
1, 580011, Note_on_c, 0, 69, 77
1, 580016, Note_on_c, 0, 79, 26
1, 580029, Note_off_c, 0, 79, 47
1, 580037, Control_c, 0, 67, 87
1, 580052, Control_c, 0, 67, 88
1, 580061, Note_off_c, 0, 69, 52
1, 580066, Control_c, 0, 67, 90
1, 580096, Control_c, 0, 64, 46
1, 580096, Control_c, 0, 67, 91
1, 580100, Note_on_c, 0, 67, 72
1, 580102, Note_on_c, 0, 65, 72
1, 580110, Control_c, 0, 64, 61
1, 580110, Control_c, 0, 67, 93
1, 580111, Note_on_c, 0, 60, 57
1, 580125, Control_c, 0, 64, 66
1, 580125, Control_c, 0, 67, 95
1, 580140, Control_c, 0, 64, 72
1, 580140, Control_c, 0, 67, 99
1, 580155, Note_off_c, 0, 60, 58
1, 580155, Control_c, 0, 64, 79
1, 580155, Control_c, 0, 67, 102
1, 580163, Note_off_c, 0, 67, 63
1, 580166, Note_off_c, 0, 65, 63
1, 580170, Control_c, 0, 64, 90
1, 580170, Control_c, 0, 67, 105
1, 580184, Control_c, 0, 64, 99
1, 580184, Control_c, 0, 67, 107
1, 580199, Control_c, 0, 64, 104
1, 580199, Control_c, 0, 67, 109
1, 580214, Control_c, 0, 64, 105
1, 580214, Control_c, 0, 67, 110
1, 580229, Control_c, 0, 67, 113
1, 580244, Control_c, 0, 67, 116
1, 580258, Control_c, 0, 67, 119
1, 580273, Control_c, 0, 64, 104
1, 580273, Control_c, 0, 67, 123
1, 580288, Control_c, 0, 64, 97
1, 580288, Control_c, 0, 67, 125
1, 580292, Note_on_c, 0, 67, 61
1, 580303, Control_c, 0, 64, 88
1, 580303, Control_c, 0, 67, 127
1, 580309, Note_on_c, 0, 60, 36
1, 580318, Control_c, 0, 64, 77
1, 580318, Control_c, 0, 67, 127
1, 580321, Note_off_c, 0, 67, 62
1, 580333, Control_c, 0, 64, 65
1, 580345, Note_off_c, 0, 60, 46
1, 580348, Control_c, 0, 64, 48
1, 580362, Poly_aftertouch_c, 0, 65, 0
1, 580363, Control_c, 0, 64, 0
1, 580368, Note_on_c, 0, 62, 65
1, 580437, Note_on_c, 0, 60, 47
1, 580437, Note_off_c, 0, 62, 65
1, 580443, Note_on_c, 0, 65, 67
1, 580474, Note_on_c, 0, 67, 16
1, 580480, Note_off_c, 0, 60, 60
1, 580506, Note_off_c, 0, 67, 45
1, 580510, Note_off_c, 0, 65, 59
1, 580521, Note_on_c, 0, 62, 62
1, 580582, Note_on_c, 0, 65, 63
1, 580584, Note_off_c, 0, 62, 65
1, 580602, Note_on_c, 0, 60, 39
1, 580617, Note_on_c, 0, 67, 46
1, 580643, Note_off_c, 0, 60, 59
1, 580644, Note_off_c, 0, 67, 55
1, 580657, Note_off_c, 0, 65, 50
1, 580663, Note_on_c, 0, 69, 61
1, 580707, Note_off_c, 0, 69, 66
1, 580760, Note_on_c, 0, 64, 82
1, 580771, Note_on_c, 0, 67, 48
1, 580776, Note_on_c, 0, 60, 42
1, 580790, Note_off_c, 0, 64, 67
1, 580800, Note_off_c, 0, 67, 56
1, 580805, Note_off_c, 0, 60, 56
1, 580931, Note_on_c, 0, 60, 69
1, 580955, Note_on_c, 0, 67, 36
1, 580970, Note_off_c, 0, 60, 61
1, 580987, Note_off_c, 0, 67, 50
1, 581097, Note_on_c, 0, 64, 74
1, 581110, Note_on_c, 0, 67, 36
1, 581124, Note_on_c, 0, 60, 44
1, 581137, Note_off_c, 0, 64, 64
1, 581143, Note_off_c, 0, 67, 53
1, 581155, Note_off_c, 0, 60, 56
1, 581260, Note_on_c, 0, 67, 70
1, 581265, Note_on_c, 0, 60, 38
1, 581304, Note_off_c, 0, 60, 54
1, 581313, Note_off_c, 0, 67, 63
1, 581438, Control_c, 0, 64, 34
1, 581453, Control_c, 0, 64, 55
1, 581454, Note_on_c, 0, 65, 80
1, 581461, Note_on_c, 0, 67, 48
1, 581468, Control_c, 0, 64, 67
1, 581473, Note_on_c, 0, 60, 29
1, 581490, Control_c, 0, 64, 76
1, 581501, Note_off_c, 0, 67, 52
1, 581505, Control_c, 0, 64, 95
1, 581519, Note_off_c, 0, 60, 49
1, 581520, Control_c, 0, 64, 127
1, 581656, Note_on_c, 0, 60, 27
1, 581697, Note_off_c, 0, 60, 49
1, 581713, Control_c, 0, 64, 113
1, 581723, Poly_aftertouch_c, 0, 67, 0
1, 581728, Control_c, 0, 64, 80
1, 581733, Note_off_c, 0, 65, 56
1, 581742, Control_c, 0, 64, 62
1, 581748, Poly_aftertouch_c, 0, 67, 0
1, 581750, Note_on_c, 0, 62, 59
1, 581757, Control_c, 0, 64, 32
1, 581772, Control_c, 0, 64, 0
1, 581800, Note_off_c, 0, 62, 60
1, 581814, Note_on_c, 0, 65, 60
1, 581815, Note_on_c, 0, 60, 37
1, 581817, Note_on_c, 0, 67, 47
1, 581850, Note_off_c, 0, 67, 57
1, 581860, Note_off_c, 0, 60, 60
1, 581880, Note_off_c, 0, 65, 63
1, 581913, Note_on_c, 0, 62, 48
1, 581950, Note_off_c, 0, 62, 58
1, 581960, Note_on_c, 0, 65, 58
1, 581978, Note_on_c, 0, 67, 47
1, 581985, Note_on_c, 0, 60, 44
1, 582009, Note_off_c, 0, 67, 54
1, 582020, Note_off_c, 0, 60, 62
1, 582029, Note_off_c, 0, 65, 62
1, 582033, Note_on_c, 0, 69, 67
1, 582090, Note_off_c, 0, 69, 64
1, 582121, Note_on_c, 0, 64, 73
1, 582139, Note_on_c, 0, 60, 36
1, 582142, Note_on_c, 0, 67, 37
1, 582150, Note_off_c, 0, 64, 67
1, 582171, Note_off_c, 0, 60, 53
1, 582175, Note_off_c, 0, 67, 45
1, 582291, Note_on_c, 0, 60, 66
1, 582303, Note_on_c, 0, 67, 56
1, 582338, Note_off_c, 0, 67, 61
1, 582348, Note_off_c, 0, 60, 61
1, 582461, Note_on_c, 0, 64, 74
1, 582473, Note_on_c, 0, 67, 43
1, 582476, Note_on_c, 0, 60, 52
1, 582497, Note_off_c, 0, 64, 64
1, 582502, Note_off_c, 0, 67, 55
1, 582510, Note_off_c, 0, 60, 62
1, 582626, Note_on_c, 0, 67, 61
1, 582634, Note_on_c, 0, 60, 46
1, 582675, Note_off_c, 0, 67, 62
1, 582680, Note_off_c, 0, 60, 63
1, 582827, Note_on_c, 0, 65, 70
1, 582830, Control_c, 0, 64, 30
1, 582845, Control_c, 0, 64, 43
1, 582850, Note_on_c, 0, 58, 38
1, 582860, Control_c, 0, 64, 54
1, 582875, Control_c, 0, 64, 62
1, 582887, Note_off_c, 0, 65, 57
1, 582890, Control_c, 0, 64, 67
1, 582903, Note_off_c, 0, 58, 60
1, 582904, Control_c, 0, 64, 72
1, 582919, Control_c, 0, 64, 79
1, 582934, Control_c, 0, 64, 85
1, 582950, Control_c, 0, 64, 90
1, 582965, Control_c, 0, 64, 95
1, 582987, Control_c, 0, 64, 97
1, 583031, Control_c, 0, 64, 96
1, 583046, Control_c, 0, 64, 93
1, 583061, Control_c, 0, 64, 84
1, 583066, Note_on_c, 0, 65, 74
1, 583075, Control_c, 0, 64, 73
1, 583083, Note_on_c, 0, 58, 41
1, 583090, Control_c, 0, 64, 57
1, 583105, Control_c, 0, 64, 15
1, 583120, Control_c, 0, 64, 0
1, 583123, Note_off_c, 0, 65, 61
1, 583126, Note_off_c, 0, 58, 51
1, 583148, Note_on_c, 0, 62, 76
1, 583221, Note_off_c, 0, 62, 63
1, 583225, Note_on_c, 0, 65, 75
1, 583236, Note_on_c, 0, 58, 55
1, 583277, Note_off_c, 0, 58, 64
1, 583289, Note_off_c, 0, 65, 61
1, 583306, Note_on_c, 0, 62, 71
1, 583313, Control_c, 0, 67, 125
1, 583327, Control_c, 0, 67, 124
1, 583342, Control_c, 0, 67, 123
1, 583369, Note_off_c, 0, 62, 63
1, 583371, Note_on_c, 0, 65, 71
1, 583387, Control_c, 0, 67, 124
1, 583397, Note_on_c, 0, 58, 53
1, 583401, Control_c, 0, 67, 126
1, 583416, Control_c, 0, 67, 126
1, 583430, Note_off_c, 0, 65, 62
1, 583436, Note_off_c, 0, 58, 63
1, 583444, Note_on_c, 0, 69, 74
1, 583446, Control_c, 0, 67, 126
1, 583475, Control_c, 0, 67, 127
1, 583490, Control_c, 0, 67, 127
1, 583496, Note_off_c, 0, 69, 63
1, 583538, Note_on_c, 0, 64, 78
1, 583546, Note_on_c, 0, 58, 58
1, 583563, Note_on_c, 0, 65, 47
1, 583570, Note_off_c, 0, 64, 64
1, 583585, Note_off_c, 0, 58, 63
1, 583590, Note_off_c, 0, 65, 55
1, 583729, Note_on_c, 0, 60, 71
1, 583733, Note_on_c, 0, 58, 56
1, 583749, Note_on_c, 0, 65, 19
1, 583772, Note_off_c, 0, 58, 63
1, 583774, Note_off_c, 0, 60, 61
1, 583790, Note_off_c, 0, 65, 46
1, 583910, Note_on_c, 0, 64, 72
1, 583921, Note_on_c, 0, 65, 36
1, 583927, Note_on_c, 0, 58, 50
1, 583948, Note_off_c, 0, 64, 63
1, 583954, Note_off_c, 0, 65, 54
1, 583958, Note_off_c, 0, 58, 64
1, 584088, Note_on_c, 0, 67, 72
1, 584094, Note_on_c, 0, 58, 51
1, 584111, Note_on_c, 0, 65, 32
1, 584131, Note_off_c, 0, 67, 61
1, 584134, Note_off_c, 0, 58, 64
1, 584143, Note_off_c, 0, 65, 48
1, 584276, Note_on_c, 0, 65, 58
1, 584282, Note_on_c, 0, 58, 54
1, 584308, Note_on_c, 0, 64, 34
1, 584309, Note_off_c, 0, 64, 127
1, 584321, Note_off_c, 0, 58, 63
1, 584332, Note_off_c, 0, 65, 63
1, 584479, Note_on_c, 0, 62, 58
1, 584494, Note_on_c, 0, 58, 42
1, 584499, Note_on_c, 0, 65, 31
1, 584523, Note_off_c, 0, 58, 57
1, 584524, Note_off_c, 0, 62, 58
1, 584532, Note_off_c, 0, 65, 50
1, 584665, Note_on_c, 0, 65, 62
1, 584691, Note_on_c, 0, 58, 28
1, 584724, Note_off_c, 0, 58, 56
1, 584729, Note_off_c, 0, 65, 61
1, 584871, Note_on_c, 0, 69, 71
1, 584879, Note_on_c, 0, 58, 33
1, 584887, Note_on_c, 0, 65, 36
1, 584911, Note_off_c, 0, 58, 57
1, 584917, Note_off_c, 0, 65, 53
1, 584917, Note_off_c, 0, 69, 62
1, 585066, Note_on_c, 0, 64, 69
1, 585077, Note_on_c, 0, 58, 42
1, 585091, Note_on_c, 0, 65, 27
1, 585111, Note_off_c, 0, 58, 61
1, 585113, Note_off_c, 0, 64, 61
1, 585125, Note_off_c, 0, 65, 46
1, 585284, Note_on_c, 0, 60, 64
1, 585298, Note_on_c, 0, 58, 42
1, 585316, Note_on_c, 0, 65, 13
1, 585328, Note_off_c, 0, 58, 58
1, 585340, Note_off_c, 0, 60, 60
1, 585363, Note_off_c, 0, 65, 38
1, 585442, Control_c, 0, 67, 127
1, 585457, Control_c, 0, 67, 126
1, 585472, Control_c, 0, 67, 125
1, 585510, Note_on_c, 0, 64, 65
1, 585516, Control_c, 0, 67, 124
1, 585519, Note_on_c, 0, 58, 44
1, 585528, Note_on_c, 0, 65, 25
1, 585530, Control_c, 0, 67, 123
1, 585550, Note_off_c, 0, 58, 57
1, 585561, Note_off_c, 0, 64, 63
1, 585566, Note_off_c, 0, 65, 45
1, 585603, Control_c, 0, 67, 123
1, 585618, Control_c, 0, 67, 122
1, 585633, Control_c, 0, 67, 121
1, 585648, Control_c, 0, 67, 120
1, 585663, Control_c, 0, 67, 118
1, 585677, Control_c, 0, 67, 116
1, 585692, Control_c, 0, 67, 113
1, 585707, Control_c, 0, 67, 110
1, 585722, Control_c, 0, 67, 106
1, 585737, Control_c, 0, 67, 102
1, 585752, Control_c, 0, 67, 98
1, 585767, Control_c, 0, 67, 95
1, 585767, Note_on_c, 0, 67, 65
1, 585782, Control_c, 0, 67, 92
1, 585791, Note_on_c, 0, 58, 41
1, 585793, Note_on_c, 0, 65, 44
1, 585796, Control_c, 0, 67, 88
1, 585809, Note_off_c, 0, 67, 61
1, 585811, Control_c, 0, 67, 84
1, 585819, Note_off_c, 0, 65, 60
1, 585822, Note_off_c, 0, 58, 59
1, 585826, Control_c, 0, 67, 80
1, 585840, Control_c, 0, 67, 76
1, 585855, Control_c, 0, 67, 72
1, 585870, Control_c, 0, 67, 66
1, 585885, Control_c, 0, 67, 59
1, 585900, Control_c, 0, 67, 51
1, 585914, Control_c, 0, 67, 44
1, 585929, Control_c, 0, 67, 37
1, 585944, Control_c, 0, 67, 27
1, 585959, Control_c, 0, 67, 15
1, 585981, Control_c, 0, 67, 0
1, 586205, Note_on_c, 0, 64, 84
1, 586207, Note_on_c, 0, 62, 80
1, 586208, Note_on_c, 0, 54, 88
1, 586208, Note_on_c, 0, 57, 75
1, 586213, Note_on_c, 0, 40, 98
1, 586216, Note_on_c, 0, 28, 89
1, 586220, Control_c, 0, 64, 43
1, 586234, Control_c, 0, 64, 87
1, 586249, Control_c, 0, 64, 127
1, 586256, Note_off_c, 0, 28, 64
1, 586259, Note_off_c, 0, 40, 64
1, 586300, Note_off_c, 0, 54, 62
1, 586305, Note_off_c, 0, 57, 63
1, 586326, Note_off_c, 0, 64, 51
1, 586387, Note_off_c, 0, 62, 59
1, 586397, Control_c, 0, 67, 23
1, 586412, Control_c, 0, 67, 54
1, 586426, Control_c, 0, 67, 90
1, 586441, Control_c, 0, 67, 108
1, 586456, Control_c, 0, 67, 104
1, 586470, Control_c, 0, 67, 103
1, 586485, Control_c, 0, 67, 104
1, 586500, Control_c, 0, 67, 105
1, 586515, Control_c, 0, 67, 106
1, 586530, Control_c, 0, 67, 109
1, 586545, Control_c, 0, 67, 113
1, 586560, Control_c, 0, 67, 114
1, 586589, Control_c, 0, 67, 114
1, 586619, Control_c, 0, 67, 114
1, 586634, Control_c, 0, 64, 118
1, 586649, Control_c, 0, 64, 78
1, 586655, Note_on_c, 0, 64, 66
1, 586663, Note_on_c, 0, 57, 64
1, 586664, Control_c, 0, 64, 57
1, 586664, Control_c, 0, 67, 115
1, 586671, Note_on_c, 0, 62, 54
1, 586678, Control_c, 0, 64, 0
1, 586678, Control_c, 0, 67, 117
1, 586693, Control_c, 0, 67, 119
1, 586708, Control_c, 0, 67, 120
1, 586728, Note_off_c, 0, 62, 54
1, 586735, Note_off_c, 0, 57, 58
1, 586750, Note_on_c, 0, 54, 67
1, 586754, Note_off_c, 0, 64, 35
1, 586774, Control_c, 0, 67, 122
1, 586780, Note_off_c, 0, 54, 65
1, 586789, Control_c, 0, 67, 123
1, 586804, Control_c, 0, 67, 124
1, 586819, Control_c, 0, 67, 127
1, 586831, Note_on_c, 0, 52, 69
1, 586834, Control_c, 0, 67, 127
1, 586839, Note_on_c, 0, 40, 60
1, 586858, Note_off_c, 0, 52, 66
1, 586868, Note_off_c, 0, 40, 63
1, 587042, Note_on_c, 0, 64, 53
1, 587045, Note_on_c, 0, 57, 57
1, 587054, Note_on_c, 0, 62, 51
1, 587096, Note_off_c, 0, 64, 55
1, 587098, Note_off_c, 0, 62, 61
1, 587108, Note_off_c, 0, 57, 61
1, 587115, Note_on_c, 0, 54, 56
1, 587150, Note_off_c, 0, 54, 64
1, 587190, Control_c, 0, 64, 8
1, 587201, Note_on_c, 0, 52, 60
1, 587205, Control_c, 0, 64, 35
1, 587206, Note_on_c, 0, 40, 59
1, 587220, Control_c, 0, 64, 22
1, 587232, Note_off_c, 0, 52, 65
1, 587235, Control_c, 0, 64, 0
1, 587237, Note_off_c, 0, 40, 64
1, 587408, Note_on_c, 0, 64, 53
1, 587409, Note_on_c, 0, 57, 59
1, 587415, Note_on_c, 0, 62, 51
1, 587485, Note_off_c, 0, 62, 55
1, 587489, Note_off_c, 0, 57, 61
1, 587496, Note_off_c, 0, 64, 56
1, 587498, Note_on_c, 0, 54, 59
1, 587530, Note_off_c, 0, 54, 65
1, 587538, Control_c, 0, 64, 20
1, 587553, Control_c, 0, 64, 0
1, 587582, Note_on_c, 0, 52, 67
1, 587582, Control_c, 0, 64, 25
1, 587585, Note_on_c, 0, 40, 66
1, 587597, Control_c, 0, 64, 42
1, 587612, Note_off_c, 0, 52, 66
1, 587612, Control_c, 0, 64, 47
1, 587615, Note_off_c, 0, 40, 64
1, 587627, Control_c, 0, 64, 34
1, 587642, Control_c, 0, 64, 0
1, 587787, Note_on_c, 0, 64, 54
1, 587791, Note_on_c, 0, 57, 58
1, 587793, Note_on_c, 0, 62, 51
1, 587846, Note_off_c, 0, 62, 55
1, 587858, Note_off_c, 0, 57, 61
1, 587864, Note_on_c, 0, 54, 60
1, 587878, Note_off_c, 0, 64, 57
1, 587880, Control_c, 0, 67, 126
1, 587895, Note_off_c, 0, 54, 65
1, 587895, Control_c, 0, 67, 125
1, 587910, Control_c, 0, 67, 126
1, 587925, Control_c, 0, 67, 126
1, 587934, Note_on_c, 0, 52, 64
1, 587951, Note_on_c, 0, 40, 57
1, 587955, Control_c, 0, 67, 127
1, 587966, Note_off_c, 0, 52, 64
1, 587970, Control_c, 0, 67, 127
1, 587979, Note_off_c, 0, 40, 56
1, 588142, Note_on_c, 0, 64, 54
1, 588144, Note_on_c, 0, 57, 57
1, 588150, Note_on_c, 0, 62, 49
1, 588214, Note_off_c, 0, 57, 59
1, 588225, Note_on_c, 0, 54, 61
1, 588228, Note_off_c, 0, 62, 57
1, 588244, Control_c, 0, 67, 127
1, 588247, Note_off_c, 0, 64, 61
1, 588258, Control_c, 0, 67, 126
1, 588262, Note_off_c, 0, 54, 65
1, 588273, Control_c, 0, 67, 126
1, 588303, Control_c, 0, 67, 127
1, 588307, Note_on_c, 0, 52, 65
1, 588318, Control_c, 0, 67, 127
1, 588318, Note_on_c, 0, 40, 56
1, 588339, Note_off_c, 0, 52, 64
1, 588346, Note_off_c, 0, 40, 62
1, 588507, Note_on_c, 0, 57, 58
1, 588507, Note_on_c, 0, 64, 63
1, 588512, Note_on_c, 0, 62, 58
1, 588570, Control_c, 0, 67, 124
1, 588578, Note_off_c, 0, 57, 63
1, 588584, Note_off_c, 0, 62, 61
1, 588585, Control_c, 0, 67, 115
1, 588590, Note_off_c, 0, 64, 62
1, 588600, Control_c, 0, 67, 109
1, 588601, Note_on_c, 0, 54, 45
1, 588614, Control_c, 0, 67, 105
1, 588629, Control_c, 0, 64, 32
1, 588629, Control_c, 0, 67, 99
1, 588641, Note_off_c, 0, 54, 65
1, 588644, Control_c, 0, 64, 43
1, 588644, Control_c, 0, 67, 93
1, 588659, Control_c, 0, 64, 43
1, 588659, Control_c, 0, 67, 85
1, 588672, Note_on_c, 0, 52, 66
1, 588673, Control_c, 0, 64, 49
1, 588673, Control_c, 0, 67, 81
1, 588680, Note_on_c, 0, 40, 65
1, 588688, Control_c, 0, 64, 55
1, 588688, Control_c, 0, 67, 79
1, 588706, Note_off_c, 0, 52, 65
1, 588712, Note_off_c, 0, 40, 64
1, 588718, Control_c, 0, 64, 31
1, 588733, Control_c, 0, 64, 0
1, 588733, Control_c, 0, 67, 80
1, 588748, Control_c, 0, 67, 81
1, 588762, Control_c, 0, 67, 82
1, 588822, Control_c, 0, 67, 81
1, 588837, Control_c, 0, 67, 81
1, 588852, Control_c, 0, 67, 80
1, 588866, Control_c, 0, 67, 79
1, 588868, Note_on_c, 0, 57, 57
1, 588873, Note_on_c, 0, 64, 57
1, 588881, Control_c, 0, 67, 77
1, 588882, Note_on_c, 0, 62, 49
1, 588896, Control_c, 0, 67, 72
1, 588911, Control_c, 0, 67, 63
1, 588926, Control_c, 0, 67, 49
1, 588939, Note_off_c, 0, 62, 53
1, 588940, Control_c, 0, 67, 32
1, 588943, Note_on_c, 0, 54, 62
1, 588948, Note_off_c, 0, 57, 61
1, 588955, Control_c, 0, 67, 9
1, 588971, Note_off_c, 0, 64, 55
1, 588977, Control_c, 0, 67, 0
1, 588986, Note_off_c, 0, 54, 67
1, 589052, Control_c, 0, 64, 48
1, 589059, Note_on_c, 0, 50, 95
1, 589061, Note_on_c, 0, 62, 89
1, 589062, Note_on_c, 0, 64, 85
1, 589063, Note_on_c, 0, 52, 93
1, 589064, Note_on_c, 0, 40, 98
1, 589067, Control_c, 0, 64, 108
1, 589070, Note_on_c, 0, 28, 92
1, 589081, Control_c, 0, 64, 127
1, 589097, Note_off_c, 0, 28, 66
1, 589105, Note_off_c, 0, 40, 65
1, 589121, Note_off_c, 0, 64, 62
1, 589139, Note_off_c, 0, 50, 64
1, 589141, Note_off_c, 0, 52, 62
1, 589178, Poly_aftertouch_c, 0, 57, 0
1, 589230, Note_off_c, 0, 62, 63
1, 589241, Poly_aftertouch_c, 0, 28, 0
1, 589244, Control_c, 0, 64, 104
1, 589247, Note_on_c, 0, 57, 54
1, 589259, Control_c, 0, 64, 87
1, 589273, Control_c, 0, 64, 74
1, 589287, Control_c, 0, 64, 63
1, 589302, Control_c, 0, 64, 45
1, 589314, Note_off_c, 0, 57, 61
1, 589316, Note_on_c, 0, 54, 63
1, 589317, Control_c, 0, 64, 0
1, 589356, Note_off_c, 0, 54, 67
1, 589431, Note_on_c, 0, 50, 92
1, 589433, Note_on_c, 0, 64, 78
1, 589436, Note_on_c, 0, 52, 95
1, 589436, Control_c, 0, 64, 26
1, 589438, Note_on_c, 0, 40, 99
1, 589439, Note_on_c, 0, 62, 88
1, 589446, Note_on_c, 0, 28, 90
1, 589451, Control_c, 0, 64, 73
1, 589466, Control_c, 0, 64, 127
1, 589472, Note_off_c, 0, 28, 66
1, 589475, Note_off_c, 0, 40, 63
1, 589494, Note_off_c, 0, 64, 59
1, 589511, Note_off_c, 0, 50, 63
1, 589517, Note_off_c, 0, 52, 60
1, 589570, Control_c, 0, 64, 84
1, 589585, Note_off_c, 0, 62, 64
1, 589585, Control_c, 0, 64, 61
1, 589594, Note_on_c, 0, 57, 63
1, 589600, Control_c, 0, 64, 0
1, 589687, Note_on_c, 0, 54, 66
1, 589689, Note_off_c, 0, 57, 62
1, 589740, Note_off_c, 0, 54, 64
1, 589809, Note_on_c, 0, 50, 95
1, 589810, Note_on_c, 0, 64, 81
1, 589811, Note_on_c, 0, 40, 96
1, 589813, Note_on_c, 0, 52, 90
1, 589815, Control_c, 0, 64, 42
1, 589815, Note_on_c, 0, 62, 90
1, 589818, Note_on_c, 0, 28, 95
1, 589830, Control_c, 0, 64, 127
1, 589839, Note_off_c, 0, 28, 67
1, 589853, Note_off_c, 0, 40, 65
1, 589881, Note_off_c, 0, 64, 63
1, 589901, Note_off_c, 0, 50, 64
1, 589906, Note_off_c, 0, 52, 61
1, 589977, Control_c, 0, 64, 72
1, 589980, Note_off_c, 0, 62, 64
1, 589992, Control_c, 0, 64, 46
1, 589994, Note_on_c, 0, 57, 65
1, 590007, Control_c, 0, 64, 0
1, 590068, Note_off_c, 0, 57, 62
1, 590079, Note_on_c, 0, 54, 74
1, 590109, Note_off_c, 0, 54, 68
1, 590199, Note_on_c, 0, 40, 104
1, 590199, Note_on_c, 0, 64, 78
1, 590202, Note_on_c, 0, 62, 84
1, 590203, Note_on_c, 0, 50, 90
1, 590204, Note_on_c, 0, 28, 97
1, 590205, Note_on_c, 0, 52, 88
1, 590215, Control_c, 0, 64, 51
1, 590230, Control_c, 0, 64, 127
1, 590232, Note_on_c, 0, 58, 48
1, 590241, Note_off_c, 0, 28, 65
1, 590266, Note_off_c, 0, 58, 53
1, 590268, Note_off_c, 0, 40, 63
1, 590274, Note_off_c, 0, 64, 62
1, 590282, Note_off_c, 0, 50, 64
1, 590291, Note_off_c, 0, 52, 60
1, 590345, Note_off_c, 0, 62, 56
1, 590387, Note_on_c, 0, 57, 55
1, 590444, Note_off_c, 0, 57, 61
1, 590479, Note_on_c, 0, 54, 62
1, 590489, Control_c, 0, 67, 8
1, 590504, Control_c, 0, 64, 99
1, 590504, Control_c, 0, 67, 12
1, 590513, Note_off_c, 0, 54, 65
1, 590518, Control_c, 0, 64, 62
1, 590518, Control_c, 0, 67, 16
1, 590533, Control_c, 0, 64, 0
1, 590533, Control_c, 0, 67, 21
1, 590548, Control_c, 0, 67, 27
1, 590563, Control_c, 0, 67, 34
1, 590571, Note_on_c, 0, 52, 74
1, 590578, Control_c, 0, 67, 43
1, 590583, Note_on_c, 0, 40, 60
1, 590593, Control_c, 0, 67, 49
1, 590597, Note_off_c, 0, 52, 66
1, 590602, Note_off_c, 0, 40, 66
1, 590608, Control_c, 0, 67, 53
1, 590623, Control_c, 0, 67, 55
1, 590637, Control_c, 0, 67, 56
1, 590667, Control_c, 0, 67, 56
1, 590726, Control_c, 0, 67, 57
1, 590741, Control_c, 0, 67, 58
1, 590756, Control_c, 0, 67, 59
1, 590768, Note_on_c, 0, 57, 57
1, 590771, Note_on_c, 0, 64, 53
1, 590771, Control_c, 0, 67, 64
1, 590773, Note_on_c, 0, 62, 53
1, 590786, Control_c, 0, 67, 65
1, 590800, Control_c, 0, 67, 65
1, 590815, Control_c, 0, 67, 64
1, 590822, Note_off_c, 0, 62, 58
1, 590830, Note_off_c, 0, 57, 60
1, 590830, Note_off_c, 0, 64, 49
1, 590837, Note_on_c, 0, 54, 62
1, 590874, Note_off_c, 0, 54, 63
1, 590889, Control_c, 0, 67, 64
1, 590904, Control_c, 0, 64, 31
1, 590918, Control_c, 0, 64, 13
1, 590918, Control_c, 0, 67, 64
1, 590924, Note_on_c, 0, 52, 67
1, 590933, Control_c, 0, 64, 0
1, 590933, Control_c, 0, 67, 65
1, 590939, Note_on_c, 0, 40, 46
1, 590949, Control_c, 0, 67, 66
1, 590953, Note_off_c, 0, 52, 66
1, 590970, Note_off_c, 0, 40, 51
1, 590994, Control_c, 0, 67, 67
1, 591009, Control_c, 0, 67, 67
1, 591023, Control_c, 0, 67, 69
1, 591038, Control_c, 0, 67, 72
1, 591053, Control_c, 0, 67, 72
1, 591083, Control_c, 0, 67, 73
1, 591097, Control_c, 0, 67, 73
1, 591112, Control_c, 0, 67, 74
1, 591126, Note_on_c, 0, 64, 58
1, 591127, Control_c, 0, 67, 74
1, 591131, Note_on_c, 0, 62, 53
1, 591131, Note_on_c, 0, 57, 56
1, 591141, Control_c, 0, 67, 75
1, 591171, Control_c, 0, 67, 74
1, 591186, Control_c, 0, 67, 74
1, 591194, Note_off_c, 0, 57, 61
1, 591195, Note_off_c, 0, 62, 61
1, 591198, Note_on_c, 0, 54, 60
1, 591201, Control_c, 0, 67, 73
1, 591202, Note_off_c, 0, 64, 59
1, 591223, Control_c, 0, 67, 72
1, 591238, Control_c, 0, 67, 71
1, 591249, Note_off_c, 0, 54, 64
1, 591253, Control_c, 0, 67, 71
1, 591267, Control_c, 0, 64, 26
1, 591282, Control_c, 0, 64, 35
1, 591282, Control_c, 0, 67, 72
1, 591296, Note_on_c, 0, 52, 65
1, 591297, Control_c, 0, 64, 0
1, 591297, Control_c, 0, 67, 73
1, 591309, Note_on_c, 0, 40, 53
1, 591312, Control_c, 0, 67, 75
1, 591327, Control_c, 0, 67, 77
1, 591332, Note_off_c, 0, 52, 63
1, 591338, Note_off_c, 0, 40, 59
1, 591341, Control_c, 0, 67, 80
1, 591356, Control_c, 0, 67, 87
1, 591371, Control_c, 0, 67, 91
1, 591386, Control_c, 0, 67, 92
1, 591491, Note_on_c, 0, 64, 53
1, 591493, Note_on_c, 0, 57, 56
1, 591495, Note_on_c, 0, 62, 57
1, 591520, Control_c, 0, 67, 92
1, 591535, Control_c, 0, 67, 90
1, 591550, Control_c, 0, 67, 88
1, 591552, Note_off_c, 0, 57, 62
1, 591565, Note_on_c, 0, 54, 55
1, 591565, Control_c, 0, 67, 86
1, 591568, Note_off_c, 0, 62, 62
1, 591579, Control_c, 0, 67, 85
1, 591580, Note_off_c, 0, 64, 58
1, 591594, Control_c, 0, 67, 84
1, 591603, Note_off_c, 0, 54, 61
1, 591609, Control_c, 0, 67, 84
1, 591639, Control_c, 0, 67, 84
1, 591654, Control_c, 0, 67, 86
1, 591657, Note_on_c, 0, 52, 75
1, 591668, Control_c, 0, 67, 87
1, 591669, Note_on_c, 0, 40, 62
1, 591683, Control_c, 0, 67, 87
1, 591689, Note_off_c, 0, 52, 67
1, 591698, Control_c, 0, 67, 88
1, 591701, Note_off_c, 0, 40, 64
1, 591713, Control_c, 0, 67, 89
1, 591728, Control_c, 0, 67, 89
1, 591758, Control_c, 0, 67, 88
1, 591818, Control_c, 0, 67, 87
1, 591833, Control_c, 0, 67, 87
1, 591847, Control_c, 0, 67, 86
1, 591861, Note_on_c, 0, 57, 53
1, 591862, Control_c, 0, 67, 85
1, 591867, Note_on_c, 0, 64, 57
1, 591877, Control_c, 0, 67, 84
1, 591891, Control_c, 0, 67, 82
1, 591897, Note_on_c, 0, 62, 14
1, 591906, Control_c, 0, 67, 79
1, 591917, Note_off_c, 0, 57, 63
1, 591921, Control_c, 0, 67, 74
1, 591935, Note_on_c, 0, 54, 41
1, 591936, Control_c, 0, 67, 65
1, 591942, Note_off_c, 0, 62, 46
1, 591944, Note_off_c, 0, 64, 54
1, 591951, Control_c, 0, 67, 50
1, 591973, Control_c, 0, 67, 26
1, 591976, Note_off_c, 0, 54, 33
1, 591988, Control_c, 0, 67, 0
1, 592018, Control_c, 0, 64, 42
1, 592025, Note_on_c, 0, 50, 111
1, 592033, Control_c, 0, 64, 69
1, 592033, Note_on_c, 0, 40, 95
1, 592033, Note_on_c, 0, 62, 83
1, 592033, Note_on_c, 0, 64, 70
1, 592036, Note_on_c, 0, 52, 84
1, 592047, Control_c, 0, 64, 85
1, 592062, Control_c, 0, 64, 127
1, 592076, Note_off_c, 0, 64, 63
1, 592079, Note_off_c, 0, 52, 58
1, 592125, Note_off_c, 0, 40, 57
1, 592144, Note_off_c, 0, 62, 57
1, 592149, Note_off_c, 0, 50, 62
1, 592210, Note_on_c, 0, 57, 61
1, 592273, Note_off_c, 0, 57, 63
1, 592285, Note_on_c, 0, 54, 51
1, 592310, Note_off_c, 0, 54, 59
1, 592387, Control_c, 0, 64, 72
1, 592400, Note_on_c, 0, 61, 90
1, 592401, Note_on_c, 0, 49, 97
1, 592402, Control_c, 0, 64, 44
1, 592405, Note_on_c, 0, 52, 88
1, 592411, Note_on_c, 0, 64, 69
1, 592417, Control_c, 0, 64, 0
1, 592423, Note_on_c, 0, 40, 67
1, 592427, Note_on_c, 0, 62, 61
1, 592431, Note_off_c, 0, 64, 65
1, 592432, Control_c, 0, 64, 23
1, 592447, Control_c, 0, 64, 58
1, 592451, Note_off_c, 0, 62, 64
1, 592462, Control_c, 0, 64, 82
1, 592463, Note_off_c, 0, 52, 61
1, 592477, Control_c, 0, 64, 127
1, 592513, Note_off_c, 0, 40, 46
1, 592539, Note_off_c, 0, 61, 64
1, 592591, Note_on_c, 0, 57, 63
1, 592595, Note_off_c, 0, 49, 64
1, 592656, Note_off_c, 0, 57, 61
1, 592658, Note_on_c, 0, 54, 68
1, 592691, Note_off_c, 0, 54, 66
1, 592751, Control_c, 0, 64, 102
1, 592766, Control_c, 0, 64, 67
1, 592776, Note_on_c, 0, 59, 89
1, 592779, Note_on_c, 0, 47, 99
1, 592781, Control_c, 0, 64, 29
1, 592783, Note_on_c, 0, 40, 91
1, 592786, Note_on_c, 0, 52, 83
1, 592796, Control_c, 0, 64, 0
1, 592803, Note_on_c, 0, 62, 61
1, 592825, Control_c, 0, 64, 30
1, 592838, Note_off_c, 0, 52, 56
1, 592840, Control_c, 0, 64, 64
1, 592855, Control_c, 0, 64, 89
1, 592870, Control_c, 0, 64, 127
1, 592899, Note_off_c, 0, 62, 35
1, 592948, Note_off_c, 0, 59, 64
1, 592966, Note_off_c, 0, 40, 58
1, 592972, Note_on_c, 0, 57, 61
1, 592983, Note_off_c, 0, 47, 60
1, 593014, Note_off_c, 0, 57, 61
1, 593041, Note_on_c, 0, 54, 46
1, 593069, Note_off_c, 0, 54, 58
1, 593195, Control_c, 0, 64, 84
1, 593206, Note_on_c, 0, 57, 95
1, 593209, Note_on_c, 0, 45, 93
1, 593210, Control_c, 0, 64, 57
1, 593221, Note_on_c, 0, 52, 77
1, 593223, Note_on_c, 0, 40, 75
1, 593225, Control_c, 0, 64, 0
1, 593270, Control_c, 0, 64, 19
1, 593285, Control_c, 0, 64, 58
1, 593290, Note_off_c, 0, 52, 59
1, 593299, Control_c, 0, 64, 75
1, 593314, Control_c, 0, 64, 103
1, 593329, Control_c, 0, 64, 127
1, 593346, Note_off_c, 0, 57, 63
1, 593430, Note_on_c, 0, 57, 66
1, 593434, Control_c, 0, 67, 8
1, 593448, Control_c, 0, 67, 9
1, 593470, Control_c, 0, 67, 10
1, 593485, Control_c, 0, 67, 11
1, 593490, Note_off_c, 0, 57, 62
1, 593500, Control_c, 0, 67, 12
1, 593509, Note_on_c, 0, 54, 59
1, 593515, Control_c, 0, 67, 14
1, 593528, Note_off_c, 0, 45, 63
1, 593530, Control_c, 0, 67, 16
1, 593540, Note_off_c, 0, 54, 66
1, 593544, Control_c, 0, 67, 20
1, 593559, Control_c, 0, 67, 27
1, 593574, Control_c, 0, 64, 76
1, 593574, Control_c, 0, 67, 35
1, 593589, Control_c, 0, 64, 50
1, 593589, Control_c, 0, 67, 45
1, 593604, Control_c, 0, 64, 0
1, 593604, Control_c, 0, 67, 55
1, 593608, Note_off_c, 0, 40, 0
1, 593612, Note_on_c, 0, 52, 68
1, 593618, Control_c, 0, 67, 64
1, 593624, Note_on_c, 0, 40, 23
1, 593633, Control_c, 0, 67, 70
1, 593636, Note_off_c, 0, 52, 64
1, 593648, Control_c, 0, 67, 72
1, 593658, Note_off_c, 0, 40, 42
1, 593663, Control_c, 0, 67, 73
1, 593678, Control_c, 0, 67, 73
1, 593708, Control_c, 0, 67, 74
1, 593737, Control_c, 0, 67, 74
1, 593793, Note_on_c, 0, 57, 62
1, 593802, Note_on_c, 0, 64, 54
1, 593805, Note_on_c, 0, 62, 51
1, 593810, Control_c, 0, 67, 74
1, 593825, Control_c, 0, 67, 73
1, 593840, Control_c, 0, 67, 72
1, 593848, Note_off_c, 0, 57, 61
1, 593853, Note_off_c, 0, 62, 60
1, 593855, Control_c, 0, 67, 71
1, 593857, Note_off_c, 0, 64, 51
1, 593869, Control_c, 0, 67, 69
1, 593878, Note_on_c, 0, 54, 51
1, 593884, Control_c, 0, 67, 68
1, 593899, Control_c, 0, 67, 67
1, 593908, Note_off_c, 0, 54, 59
1, 593914, Control_c, 0, 67, 65
1, 593929, Control_c, 0, 67, 63
1, 593943, Control_c, 0, 64, 41
1, 593943, Control_c, 0, 67, 61
1, 593947, Note_on_c, 0, 52, 73
1, 593957, Note_on_c, 0, 40, 64
1, 593958, Control_c, 0, 64, 55
1, 593958, Control_c, 0, 67, 61
1, 593973, Control_c, 0, 64, 54
1, 593973, Control_c, 0, 67, 60
1, 593976, Note_off_c, 0, 52, 65
1, 593987, Note_off_c, 0, 40, 64
1, 593988, Control_c, 0, 64, 40
1, 593988, Control_c, 0, 67, 60
1, 594003, Control_c, 0, 64, 0
1, 594003, Control_c, 0, 67, 59
1, 594018, Control_c, 0, 67, 59
1, 594033, Control_c, 0, 67, 58
1, 594062, Control_c, 0, 67, 58
1, 594122, Control_c, 0, 67, 58
1, 594137, Control_c, 0, 67, 57
1, 594145, Note_on_c, 0, 57, 61
1, 594146, Note_on_c, 0, 64, 59
1, 594152, Control_c, 0, 67, 56
1, 594167, Control_c, 0, 67, 51
1, 594182, Control_c, 0, 67, 41
1, 594197, Control_c, 0, 67, 29
1, 594214, Note_on_c, 0, 54, 70
1, 594218, Poly_aftertouch_c, 0, 62, 127
1, 594219, Control_c, 0, 67, 14
1, 594224, Note_off_c, 0, 57, 60
1, 594229, Note_off_c, 0, 64, 41
1, 594233, Control_c, 0, 67, 0
1, 594240, Note_off_c, 0, 54, 67
1, 594250, Poly_aftertouch_c, 0, 62, 0
1, 594307, Control_c, 0, 64, 51
1, 594316, Note_on_c, 0, 50, 92
1, 594317, Note_on_c, 0, 40, 102
1, 594320, Note_on_c, 0, 64, 78
1, 594322, Note_on_c, 0, 28, 91
1, 594322, Control_c, 0, 64, 72
1, 594323, Note_on_c, 0, 52, 83
1, 594323, Note_on_c, 0, 62, 85
1, 594337, Control_c, 0, 64, 117
1, 594352, Note_off_c, 0, 28, 66
1, 594352, Control_c, 0, 64, 127
1, 594358, Note_off_c, 0, 40, 64
1, 594378, Note_off_c, 0, 50, 62
1, 594378, Note_off_c, 0, 64, 60
1, 594382, Note_off_c, 0, 52, 54
1, 594429, Note_off_c, 0, 62, 60
1, 594441, Control_c, 0, 64, 92
1, 594456, Control_c, 0, 64, 67
1, 594471, Control_c, 0, 64, 40
1, 594485, Control_c, 0, 64, 0
1, 594498, Note_on_c, 0, 57, 60
1, 594515, Control_c, 0, 67, 8
1, 594531, Control_c, 0, 67, 9
1, 594545, Control_c, 0, 67, 9
1, 594564, Note_off_c, 0, 57, 56
1, 594574, Note_on_c, 0, 54, 67
1, 594605, Note_off_c, 0, 54, 68
1, 594605, Control_c, 0, 67, 8
1, 594620, Control_c, 0, 67, 0
1, 594678, Note_on_c, 0, 50, 97
1, 594683, Note_on_c, 0, 64, 79
1, 594683, Note_on_c, 0, 52, 86
1, 594684, Note_on_c, 0, 40, 88
1, 594686, Note_on_c, 0, 62, 80
1, 594690, Note_on_c, 0, 28, 77
1, 594693, Control_c, 0, 64, 42
1, 594708, Control_c, 0, 64, 73
1, 594713, Note_off_c, 0, 40, 67
1, 594721, Note_off_c, 0, 28, 64
1, 594723, Control_c, 0, 64, 127
1, 594735, Note_off_c, 0, 64, 54
1, 594739, Note_off_c, 0, 50, 63
1, 594755, Note_off_c, 0, 52, 58
1, 594853, Note_off_c, 0, 62, 63
1, 594864, Note_on_c, 0, 57, 62
1, 594871, Control_c, 0, 64, 88
1, 594885, Control_c, 0, 64, 68
1, 594900, Control_c, 0, 64, 49
1, 594915, Control_c, 0, 64, 0
1, 594924, Note_off_c, 0, 57, 59
1, 594931, Control_c, 0, 67, 8
1, 594962, Note_on_c, 0, 54, 62
1, 595008, Note_off_c, 0, 54, 61
1, 595028, Control_c, 0, 67, 0
1, 595052, Note_on_c, 0, 52, 66
1, 595061, Note_on_c, 0, 40, 60
1, 595072, Control_c, 0, 64, 46
1, 595076, Note_off_c, 0, 52, 64
1, 595087, Control_c, 0, 64, 52
1, 595087, Control_c, 0, 67, 8
1, 595088, Note_off_c, 0, 40, 58
1, 595102, Control_c, 0, 64, 43
1, 595102, Control_c, 0, 67, 8
1, 595116, Control_c, 0, 64, 0
1, 595246, Note_on_c, 0, 57, 62
1, 595249, Note_on_c, 0, 62, 56
1, 595262, Note_on_c, 0, 64, 54
1, 595296, Note_off_c, 0, 64, 54
1, 595307, Note_off_c, 0, 62, 58
1, 595309, Control_c, 0, 67, 8
1, 595310, Note_off_c, 0, 57, 61
1, 595323, Control_c, 0, 67, 0
1, 595326, Note_on_c, 0, 54, 63
1, 595362, Note_off_c, 0, 54, 65
1, 595413, Control_c, 0, 64, 45
1, 595420, Note_on_c, 0, 52, 67
1, 595425, Note_on_c, 0, 40, 56
1, 595428, Control_c, 0, 64, 60
1, 595442, Control_c, 0, 64, 62
1, 595443, Note_off_c, 0, 52, 64
1, 595452, Note_off_c, 0, 40, 57
1, 595487, Control_c, 0, 64, 59
1, 595501, Control_c, 0, 64, 47
1, 595516, Control_c, 0, 64, 0
1, 595607, Note_on_c, 0, 57, 62
1, 595619, Note_on_c, 0, 64, 43
1, 595657, Note_off_c, 0, 64, 47
1, 595660, Poly_aftertouch_c, 0, 62, 127
1, 595663, Note_off_c, 0, 57, 61
1, 595669, Note_on_c, 0, 54, 69
1, 595693, Note_off_c, 0, 54, 67
1, 595696, Poly_aftertouch_c, 0, 62, 0
1, 595791, Control_c, 0, 64, 38
1, 595794, Note_on_c, 0, 45, 96
1, 595794, Note_on_c, 0, 57, 95
1, 595806, Control_c, 0, 64, 77
1, 595809, Note_on_c, 0, 40, 80
1, 595819, Note_on_c, 0, 62, 54
1, 595821, Control_c, 0, 64, 127
1, 595827, Note_on_c, 0, 52, 54
1, 595828, Note_off_c, 0, 52, 127
1, 595854, Note_off_c, 0, 40, 56
1, 595857, Poly_aftertouch_c, 0, 52, 0
1, 595857, Note_off_c, 0, 62, 60
1, 595867, Note_off_c, 0, 57, 64
1, 595943, Note_on_c, 0, 62, 53
1, 595946, Note_off_c, 0, 45, 62
1, 595973, Note_off_c, 0, 62, 61
1, 595988, Note_on_c, 0, 57, 62
1, 596042, Note_off_c, 0, 57, 53
1, 596082, Note_on_c, 0, 52, 40
1, 596113, Note_off_c, 0, 52, 49
1, 596131, Control_c, 0, 64, 96
1, 596146, Control_c, 0, 64, 63
1, 596155, Note_on_c, 0, 50, 114
1, 596159, Note_on_c, 0, 40, 92
1, 596161, Note_on_c, 0, 64, 76
1, 596161, Control_c, 0, 64, 40
1, 596164, Note_on_c, 0, 62, 95
1, 596169, Note_on_c, 0, 52, 87
1, 596176, Control_c, 0, 64, 45
1, 596191, Control_c, 0, 64, 66
1, 596197, Note_on_c, 0, 41, 43
1, 596205, Control_c, 0, 64, 110
1, 596208, Note_off_c, 0, 52, 55
1, 596219, Note_off_c, 0, 64, 65
1, 596220, Control_c, 0, 64, 127
1, 596233, Note_off_c, 0, 41, 53
1, 596259, Note_off_c, 0, 40, 56
1, 596269, Note_off_c, 0, 50, 60
1, 596316, Note_off_c, 0, 62, 62
1, 596358, Note_on_c, 0, 57, 63
1, 596386, Note_off_c, 0, 57, 61
1, 596411, Note_on_c, 0, 54, 59
1, 596441, Note_off_c, 0, 54, 66
1, 596494, Control_c, 0, 64, 92
1, 596509, Control_c, 0, 64, 62
1, 596524, Control_c, 0, 64, 0
1, 596529, Note_on_c, 0, 61, 91
1, 596531, Note_on_c, 0, 49, 101
1, 596534, Note_on_c, 0, 52, 95
1, 596543, Note_on_c, 0, 64, 70
1, 596554, Note_on_c, 0, 62, 64
1, 596555, Control_c, 0, 64, 30
1, 596558, Note_on_c, 0, 40, 49
1, 596561, Note_off_c, 0, 64, 66
1, 596569, Control_c, 0, 64, 65
1, 596582, Note_off_c, 0, 62, 67
1, 596584, Control_c, 0, 64, 127
1, 596584, Note_off_c, 0, 40, 57
1, 596594, Note_off_c, 0, 52, 59
1, 596598, Note_on_c, 0, 43, 37
1, 596638, Note_off_c, 0, 43, 50
1, 596668, Note_off_c, 0, 49, 56
1, 596688, Note_off_c, 0, 61, 64
1, 596729, Note_on_c, 0, 57, 63
1, 596784, Note_off_c, 0, 57, 58
1, 596802, Note_on_c, 0, 54, 51
1, 596827, Note_off_c, 0, 54, 61
1, 596909, Control_c, 0, 64, 76
1, 596924, Control_c, 0, 64, 49
1, 596939, Control_c, 0, 64, 0
1, 596944, Note_on_c, 0, 47, 98
1, 596944, Note_on_c, 0, 59, 89
1, 596948, Note_on_c, 0, 40, 94
1, 596965, Note_on_c, 0, 52, 73
1, 596984, Note_off_c, 0, 52, 66
1, 597014, Control_c, 0, 64, 49
1, 597028, Control_c, 0, 64, 65
1, 597043, Control_c, 0, 64, 72
1, 597058, Control_c, 0, 64, 83
1, 597072, Control_c, 0, 64, 94
1, 597087, Control_c, 0, 64, 104
1, 597102, Control_c, 0, 64, 112
1, 597117, Control_c, 0, 64, 115
1, 597130, Note_off_c, 0, 59, 64
1, 597130, Note_on_c, 0, 57, 69
1, 597175, Note_off_c, 0, 57, 62
1, 597191, Control_c, 0, 64, 115
1, 597210, Note_on_c, 0, 54, 62
1, 597212, Note_off_c, 0, 40, 59
1, 597217, Note_off_c, 0, 47, 63
1, 597228, Control_c, 0, 64, 114
1, 597242, Note_off_c, 0, 54, 65
1, 597243, Control_c, 0, 64, 104
1, 597258, Control_c, 0, 64, 82
1, 597273, Control_c, 0, 64, 65
1, 597287, Control_c, 0, 64, 34
1, 597300, Note_on_c, 0, 52, 74
1, 597302, Control_c, 0, 64, 0
1, 597324, Note_off_c, 0, 52, 67
1, 597403, Poly_aftertouch_c, 0, 40, 0
1, 597491, Note_on_c, 0, 57, 64
1, 597502, Note_on_c, 0, 62, 56
1, 597505, Note_on_c, 0, 64, 57
1, 597551, Note_off_c, 0, 64, 56
1, 597553, Note_off_c, 0, 57, 60
1, 597565, Note_off_c, 0, 62, 58
1, 597572, Note_on_c, 0, 54, 60
1, 597616, Note_off_c, 0, 54, 61
1, 597645, Note_on_c, 0, 52, 67
1, 597660, Note_on_c, 0, 40, 56
1, 597672, Note_off_c, 0, 52, 65
1, 597690, Note_off_c, 0, 40, 55
1, 597717, Control_c, 0, 64, 18
1, 597732, Control_c, 0, 64, 16
1, 597747, Control_c, 0, 64, 0
1, 597837, Note_on_c, 0, 57, 60
1, 597878, Note_on_c, 0, 64, 41
1, 597890, Note_off_c, 0, 57, 62
1, 597897, Note_on_c, 0, 54, 51
1, 597921, Note_off_c, 0, 64, 53
1, 597924, Note_off_c, 0, 54, 36
1, 598012, Note_on_c, 0, 52, 79
1, 598014, Note_on_c, 0, 50, 95
1, 598015, Note_on_c, 0, 56, 81
1, 598018, Note_on_c, 0, 44, 92
1, 598021, Note_on_c, 0, 40, 80
1, 598021, Control_c, 0, 64, 21
1, 598036, Control_c, 0, 64, 52
1, 598045, Note_off_c, 0, 40, 66
1, 598050, Note_off_c, 0, 52, 63
1, 598051, Control_c, 0, 64, 68
1, 598054, Note_on_c, 0, 64, 7
1, 598060, Note_off_c, 0, 50, 66
1, 598065, Note_off_c, 0, 44, 63
1, 598066, Control_c, 0, 64, 101
1, 598072, Note_off_c, 0, 56, 62
1, 598081, Control_c, 0, 64, 127
1, 598104, Note_off_c, 0, 64, 52
1, 598196, Note_on_c, 0, 57, 66
1, 598260, Note_off_c, 0, 57, 62
1, 598269, Note_on_c, 0, 54, 69
1, 598292, Note_on_c, 0, 50, 39
1, 598298, Note_off_c, 0, 54, 66
1, 598322, Note_off_c, 0, 50, 52
1, 598349, Control_c, 0, 64, 80
1, 598364, Control_c, 0, 64, 49
1, 598379, Control_c, 0, 64, 0
1, 598386, Note_on_c, 0, 47, 106
1, 598386, Note_on_c, 0, 59, 87
1, 598388, Note_on_c, 0, 52, 93
1, 598393, Note_on_c, 0, 40, 85
1, 598400, Note_on_c, 0, 64, 66
1, 598405, Note_on_c, 0, 62, 67
1, 598418, Note_off_c, 0, 64, 68
1, 598423, Control_c, 0, 64, 51
1, 598438, Control_c, 0, 64, 72
1, 598447, Note_off_c, 0, 52, 55
1, 598452, Control_c, 0, 64, 115
1, 598461, Note_off_c, 0, 40, 58
1, 598467, Control_c, 0, 64, 127
1, 598483, Note_off_c, 0, 62, 56
1, 598561, Note_off_c, 0, 59, 64
1, 598563, Note_on_c, 0, 56, 56
1, 598588, Note_on_c, 0, 57, 62
1, 598588, Note_off_c, 0, 56, 59
1, 598602, Note_off_c, 0, 47, 62
1, 598609, Note_off_c, 0, 57, 62
1, 598634, Note_on_c, 0, 54, 59
1, 598663, Note_off_c, 0, 54, 66
1, 598727, Control_c, 0, 64, 106
1, 598741, Control_c, 0, 64, 70
1, 598750, Note_on_c, 0, 52, 107
1, 598751, Note_on_c, 0, 64, 76
1, 598755, Note_on_c, 0, 50, 107
1, 598756, Control_c, 0, 64, 47
1, 598757, Note_on_c, 0, 62, 87
1, 598763, Note_on_c, 0, 40, 91
1, 598771, Control_c, 0, 64, 12
1, 598786, Control_c, 0, 64, 46
1, 598801, Control_c, 0, 64, 73
1, 598815, Control_c, 0, 64, 127
1, 598829, Note_off_c, 0, 64, 64
1, 598835, Note_off_c, 0, 40, 62
1, 598840, Note_off_c, 0, 52, 60
1, 598844, Note_off_c, 0, 50, 64
1, 598888, Poly_aftertouch_c, 0, 41, 0
1, 598929, Note_off_c, 0, 62, 64
1, 598948, Note_on_c, 0, 57, 62
1, 599008, Note_off_c, 0, 57, 58
1, 599026, Note_on_c, 0, 54, 53
1, 599056, Note_off_c, 0, 54, 65
1, 599127, Control_c, 0, 64, 71
1, 599142, Control_c, 0, 64, 38
1, 599157, Note_on_c, 0, 52, 94
1, 599157, Control_c, 0, 64, 0
1, 599157, Note_on_c, 0, 50, 104
1, 599160, Note_on_c, 0, 64, 90
1, 599161, Note_on_c, 0, 40, 88
1, 599162, Note_on_c, 0, 62, 84
1, 599172, Control_c, 0, 64, 42
1, 599187, Control_c, 0, 64, 76
1, 599202, Control_c, 0, 64, 127
1, 599234, Note_off_c, 0, 40, 64
1, 599236, Note_off_c, 0, 64, 62
1, 599237, Note_off_c, 0, 50, 67
1, 599251, Note_off_c, 0, 52, 58
1, 599251, Poly_aftertouch_c, 0, 41, 127
1, 599287, Poly_aftertouch_c, 0, 41, 0
1, 599348, Note_off_c, 0, 62, 60
1, 599359, Note_on_c, 0, 57, 58
1, 599398, Note_off_c, 0, 57, 57
1, 599429, Note_on_c, 0, 54, 63
1, 599461, Control_c, 0, 64, 98
1, 599468, Note_off_c, 0, 54, 66
1, 599476, Control_c, 0, 64, 62
1, 599490, Control_c, 0, 64, 46
1, 599490, Control_c, 0, 67, 11
1, 599505, Control_c, 0, 64, 0
1, 599505, Control_c, 0, 67, 9
1, 599520, Control_c, 0, 67, 11
1, 599525, Note_on_c, 0, 52, 75
1, 599532, Note_on_c, 0, 40, 68
1, 599535, Control_c, 0, 67, 12
1, 599550, Control_c, 0, 67, 13
1, 599551, Note_off_c, 0, 52, 66
1, 599560, Note_off_c, 0, 40, 65
1, 599564, Control_c, 0, 67, 14
1, 599579, Control_c, 0, 67, 17
1, 599594, Control_c, 0, 67, 21
1, 599609, Control_c, 0, 67, 26
1, 599624, Control_c, 0, 67, 33
1, 599638, Control_c, 0, 67, 42
1, 599653, Control_c, 0, 67, 50
1, 599668, Control_c, 0, 67, 56
1, 599682, Control_c, 0, 67, 60
1, 599697, Control_c, 0, 67, 61
1, 599712, Control_c, 0, 67, 63
1, 599725, Note_on_c, 0, 57, 61
1, 599728, Control_c, 0, 67, 65
1, 599730, Note_on_c, 0, 64, 56
1, 599737, Note_on_c, 0, 62, 55
1, 599743, Control_c, 0, 67, 68
1, 599758, Control_c, 0, 67, 71
1, 599771, Control_c, 0, 67, 73
1, 599780, Note_off_c, 0, 57, 59
1, 599786, Control_c, 0, 67, 74
1, 599788, Note_off_c, 0, 64, 57
1, 599792, Note_off_c, 0, 62, 56
1, 599801, Note_on_c, 0, 54, 63
1, 599801, Control_c, 0, 67, 74
1, 599842, Note_off_c, 0, 54, 64
1, 599845, Control_c, 0, 64, 38
1, 599845, Control_c, 0, 67, 75
1, 599860, Control_c, 0, 64, 56
1, 599860, Control_c, 0, 67, 77
1, 599875, Control_c, 0, 64, 59
1, 599875, Control_c, 0, 67, 78
1, 599884, Note_on_c, 0, 52, 68
1, 599890, Control_c, 0, 64, 62
1, 599890, Control_c, 0, 67, 80
1, 599902, Note_on_c, 0, 40, 49
1, 599905, Control_c, 0, 64, 65
1, 599905, Control_c, 0, 67, 82
1, 599911, Note_off_c, 0, 52, 66
1, 599920, Control_c, 0, 64, 69
1, 599920, Control_c, 0, 67, 85
1, 599934, Note_off_c, 0, 40, 51
1, 599935, Control_c, 0, 64, 73
1, 599935, Control_c, 0, 67, 89
1, 599950, Control_c, 0, 64, 77
1, 599950, Control_c, 0, 67, 93
1, 599965, Control_c, 0, 64, 78
1, 599965, Control_c, 0, 67, 96
1, 599979, Control_c, 0, 67, 97
1, 599994, Control_c, 0, 67, 98
1, 600009, Control_c, 0, 67, 100
1, 600024, Control_c, 0, 67, 102
1, 600039, Control_c, 0, 67, 103
1, 600053, Control_c, 0, 67, 104
1, 600068, Control_c, 0, 64, 74
1, 600083, Control_c, 0, 64, 63
1, 600083, Control_c, 0, 67, 104
1, 600087, Note_on_c, 0, 57, 62
1, 600096, Note_on_c, 0, 64, 50
1, 600097, Control_c, 0, 64, 34
1, 600101, Note_on_c, 0, 62, 49
1, 600112, Control_c, 0, 64, 0
1, 600128, Note_off_c, 0, 64, 54
1, 600136, Note_off_c, 0, 62, 65
1, 600144, Note_off_c, 0, 57, 59
1, 600157, Control_c, 0, 67, 104
1, 600161, Note_on_c, 0, 54, 69
1, 600186, Control_c, 0, 67, 103
1, 600194, Note_off_c, 0, 54, 65
1, 600238, Control_c, 0, 67, 103
1, 600251, Note_on_c, 0, 52, 78
1, 600263, Note_on_c, 0, 40, 66
1, 600268, Control_c, 0, 67, 102
1, 600275, Note_off_c, 0, 52, 67
1, 600283, Control_c, 0, 64, 59
1, 600283, Control_c, 0, 67, 103
1, 600291, Note_off_c, 0, 40, 62
1, 600298, Control_c, 0, 64, 65
1, 600312, Control_c, 0, 64, 67
1, 600327, Control_c, 0, 64, 70
1, 600342, Control_c, 0, 64, 76
1, 600342, Control_c, 0, 67, 103
1, 600357, Control_c, 0, 64, 87
1, 600372, Control_c, 0, 64, 103
1, 600386, Control_c, 0, 64, 113
1, 600386, Control_c, 0, 67, 103
1, 600401, Control_c, 0, 64, 119
1, 600416, Control_c, 0, 64, 124
1, 600430, Control_c, 0, 64, 127
1, 600450, Note_on_c, 0, 57, 62
1, 600458, Note_on_c, 0, 64, 50
1, 600462, Note_on_c, 0, 62, 54
1, 600475, Control_c, 0, 67, 103
1, 600490, Control_c, 0, 64, 124
1, 600491, Note_off_c, 0, 64, 65
1, 600494, Note_off_c, 0, 62, 66
1, 600501, Note_off_c, 0, 57, 61
1, 600504, Control_c, 0, 64, 96
1, 600519, Note_on_c, 0, 54, 73
1, 600519, Control_c, 0, 64, 71
1, 600535, Control_c, 0, 64, 41
1, 600535, Control_c, 0, 67, 104
1, 600550, Control_c, 0, 64, 0
1, 600550, Control_c, 0, 67, 105
1, 600556, Note_off_c, 0, 54, 65
1, 600565, Control_c, 0, 67, 105
1, 600614, Note_on_c, 0, 52, 76
1, 600627, Note_on_c, 0, 40, 63
1, 600639, Control_c, 0, 67, 105
1, 600654, Control_c, 0, 64, 67
1, 600669, Control_c, 0, 64, 104
1, 600669, Control_c, 0, 67, 104
1, 600670, Note_off_c, 0, 52, 58
1, 600671, Note_off_c, 0, 40, 61
1, 600683, Control_c, 0, 64, 127
1, 600683, Control_c, 0, 67, 103
1, 600698, Control_c, 0, 67, 102
1, 600713, Control_c, 0, 67, 101
1, 600728, Control_c, 0, 67, 100
1, 600743, Control_c, 0, 67, 98
1, 600758, Control_c, 0, 67, 96
1, 600773, Control_c, 0, 67, 94
1, 600787, Control_c, 0, 67, 93
1, 600790, Note_on_c, 0, 57, 55
1, 600801, Note_on_c, 0, 64, 54
1, 600802, Control_c, 0, 67, 92
1, 600817, Control_c, 0, 67, 90
1, 600823, Note_off_c, 0, 57, 64
1, 600825, Note_off_c, 0, 64, 61
1, 600832, Control_c, 0, 67, 89
1, 600846, Control_c, 0, 67, 88
1, 600861, Control_c, 0, 67, 86
1, 600876, Control_c, 0, 67, 85
1, 600891, Control_c, 0, 67, 83
1, 600906, Poly_aftertouch_c, 0, 54, 127
1, 600906, Control_c, 0, 67, 81
1, 600920, Control_c, 0, 67, 78
1, 600935, Control_c, 0, 67, 75
1, 600949, Poly_aftertouch_c, 0, 54, 0
1, 600957, Control_c, 0, 67, 70
1, 600972, Control_c, 0, 67, 65
1, 600987, Control_c, 0, 67, 60
1, 601002, Control_c, 0, 67, 56
1, 601017, Control_c, 0, 67, 53
1, 601032, Control_c, 0, 67, 50
1, 601047, Control_c, 0, 67, 47
1, 601061, Control_c, 0, 67, 43
1, 601063, Note_on_c, 0, 76, 98
1, 601069, Note_on_c, 0, 64, 87
1, 601076, Control_c, 0, 67, 38
1, 601077, Note_on_c, 0, 40, 67
1, 601079, Note_on_c, 0, 52, 69
1, 601091, Control_c, 0, 67, 32
1, 601103, Note_off_c, 0, 64, 60
1, 601104, Note_off_c, 0, 40, 60
1, 601106, Control_c, 0, 67, 24
1, 601115, Note_off_c, 0, 52, 65
1, 601121, Control_c, 0, 67, 12
1, 601135, Control_c, 0, 67, 0
1, 601190, Note_off_c, 0, 76, 61
1, 601286, Note_on_c, 0, 54, 54
1, 601288, Note_on_c, 0, 57, 46
1, 601291, Note_on_c, 0, 62, 41
1, 601315, Note_on_c, 0, 74, 54
1, 601318, Note_off_c, 0, 57, 54
1, 601322, Note_off_c, 0, 54, 64
1, 601323, Note_off_c, 0, 62, 52
1, 601336, Note_off_c, 0, 74, 63
1, 601464, Note_on_c, 0, 52, 78
1, 601464, Note_on_c, 0, 76, 98
1, 601465, Note_on_c, 0, 40, 77
1, 601467, Note_on_c, 0, 64, 96
1, 601491, Note_off_c, 0, 52, 65
1, 601495, Note_off_c, 0, 40, 64
1, 601554, Note_off_c, 0, 64, 63
1, 601564, Note_off_c, 0, 76, 62
1, 601640, Note_on_c, 0, 54, 68
1, 601641, Note_on_c, 0, 62, 72
1, 601646, Note_on_c, 0, 57, 64
1, 601665, Note_off_c, 0, 62, 66
1, 601670, Note_off_c, 0, 57, 64
1, 601675, Note_off_c, 0, 54, 65
1, 601680, Note_on_c, 0, 74, 52
1, 601712, Note_off_c, 0, 74, 64
1, 601724, Poly_aftertouch_c, 0, 69, 127
1, 601748, Poly_aftertouch_c, 0, 69, 0
1, 601836, Note_on_c, 0, 76, 96
1, 601840, Note_on_c, 0, 52, 88
1, 601841, Note_on_c, 0, 64, 94
1, 601844, Note_on_c, 0, 40, 80
1, 601870, Note_off_c, 0, 40, 65
1, 601873, Note_off_c, 0, 52, 64
1, 601931, Note_off_c, 0, 64, 64
1, 601941, Note_off_c, 0, 76, 62
1, 602009, Note_on_c, 0, 69, 22
1, 602017, Note_on_c, 0, 62, 74
1, 602020, Note_on_c, 0, 54, 66
1, 602023, Note_on_c, 0, 57, 63
1, 602042, Note_off_c, 0, 62, 68
1, 602048, Note_off_c, 0, 54, 67
1, 602048, Note_off_c, 0, 69, 50
1, 602049, Note_off_c, 0, 57, 58
1, 602148, Poly_aftertouch_c, 0, 74, 0
1, 602160, Poly_aftertouch_c, 0, 66, 0
1, 602199, Note_on_c, 0, 76, 96
1, 602203, Note_on_c, 0, 64, 93
1, 602205, Note_on_c, 0, 52, 87
1, 602209, Note_on_c, 0, 40, 80
1, 602239, Note_off_c, 0, 40, 64
1, 602242, Note_on_c, 0, 74, 50
1, 602245, Note_off_c, 0, 52, 66
1, 602266, Note_off_c, 0, 74, 63
1, 602298, Note_off_c, 0, 64, 65
1, 602315, Note_off_c, 0, 76, 62
1, 602388, Note_on_c, 0, 54, 65
1, 602390, Note_on_c, 0, 62, 62
1, 602403, Note_on_c, 0, 57, 34
1, 602408, Note_off_c, 0, 62, 68
1, 602416, Note_off_c, 0, 54, 66
1, 602438, Note_off_c, 0, 57, 49
1, 602450, Poly_aftertouch_c, 0, 74, 127
1, 602485, Poly_aftertouch_c, 0, 74, 0
1, 602530, Control_c, 0, 64, 85
1, 602545, Control_c, 0, 64, 69
1, 602560, Control_c, 0, 64, 65
1, 602567, Note_on_c, 0, 52, 75
1, 602568, Note_on_c, 0, 40, 73
1, 602574, Control_c, 0, 64, 70
1, 602589, Control_c, 0, 64, 105
1, 602594, Note_off_c, 0, 52, 67
1, 602595, Note_off_c, 0, 40, 65
1, 602604, Control_c, 0, 64, 127
1, 602747, Note_on_c, 0, 54, 67
1, 602750, Note_on_c, 0, 62, 65
1, 602766, Note_on_c, 0, 69, 43
1, 602773, Note_on_c, 0, 76, 45
1, 602773, Note_off_c, 0, 54, 67
1, 602779, Note_off_c, 0, 62, 67
1, 602781, Note_on_c, 0, 57, 18
1, 602797, Note_off_c, 0, 69, 55
1, 602803, Note_off_c, 0, 76, 51
1, 602825, Note_off_c, 0, 57, 41
1, 602829, Note_on_c, 0, 66, 53
1, 602856, Note_off_c, 0, 66, 57
1, 602919, Note_on_c, 0, 52, 82
1, 602923, Note_on_c, 0, 40, 72
1, 602944, Note_off_c, 0, 52, 67
1, 602945, Note_off_c, 0, 40, 63
1, 603095, Note_on_c, 0, 62, 76
1, 603099, Note_on_c, 0, 54, 69
1, 603113, Note_on_c, 0, 57, 52
1, 603120, Note_off_c, 0, 62, 68
1, 603125, Note_off_c, 0, 54, 67
1, 603140, Note_off_c, 0, 57, 56
1, 603178, Poly_aftertouch_c, 0, 66, 127
1, 603214, Poly_aftertouch_c, 0, 66, 0
1, 603235, Control_c, 0, 64, 71
1, 603249, Control_c, 0, 64, 31
1, 603264, Control_c, 0, 64, 0
1, 603288, Note_on_c, 0, 71, 100
1, 603289, Note_on_c, 0, 52, 83
1, 603289, Note_on_c, 0, 59, 94
1, 603294, Control_c, 0, 64, 46
1, 603302, Note_on_c, 0, 40, 70
1, 603309, Control_c, 0, 64, 66
1, 603314, Note_off_c, 0, 59, 70
1, 603318, Note_off_c, 0, 52, 67
1, 603323, Control_c, 0, 64, 82
1, 603324, Note_off_c, 0, 40, 61
1, 603325, Note_off_c, 0, 71, 62
1, 603338, Control_c, 0, 64, 110
1, 603353, Control_c, 0, 64, 127
1, 603455, Note_on_c, 0, 62, 94
1, 603462, Note_on_c, 0, 76, 83
1, 603467, Note_on_c, 0, 69, 78
1, 603499, Note_off_c, 0, 69, 63
1, 603499, Note_off_c, 0, 76, 61
1, 603503, Note_off_c, 0, 62, 67
1, 603522, Note_on_c, 0, 66, 59
1, 603543, Note_off_c, 0, 66, 61
1, 603590, Control_c, 0, 64, 94
1, 603604, Control_c, 0, 64, 65
1, 603619, Control_c, 0, 64, 43
1, 603634, Control_c, 0, 64, 39
1, 603646, Note_on_c, 0, 73, 96
1, 603647, Note_on_c, 0, 61, 98
1, 603649, Control_c, 0, 64, 58
1, 603651, Note_on_c, 0, 52, 83
1, 603660, Note_on_c, 0, 40, 71
1, 603664, Control_c, 0, 64, 78
1, 603679, Note_off_c, 0, 52, 66
1, 603679, Control_c, 0, 64, 127
1, 603684, Note_off_c, 0, 40, 61
1, 603689, Note_off_c, 0, 61, 63
1, 603697, Note_off_c, 0, 73, 64
1, 603817, Note_on_c, 0, 69, 67
1, 603822, Note_on_c, 0, 54, 63
1, 603828, Note_on_c, 0, 62, 56
1, 603830, Note_on_c, 0, 57, 52
1, 603836, Note_off_c, 0, 69, 67
1, 603841, Note_on_c, 0, 76, 46
1, 603851, Note_off_c, 0, 54, 66
1, 603852, Note_off_c, 0, 62, 61
1, 603856, Note_off_c, 0, 57, 57
1, 603866, Note_off_c, 0, 76, 56
1, 603891, Note_on_c, 0, 66, 42
1, 603919, Note_off_c, 0, 66, 54
1, 604014, Note_on_c, 0, 71, 98
1, 604016, Note_on_c, 0, 52, 78
1, 604016, Note_on_c, 0, 59, 100
1, 604028, Note_on_c, 0, 40, 59
1, 604048, Note_off_c, 0, 52, 66
1, 604049, Note_off_c, 0, 59, 65
1, 604051, Note_off_c, 0, 40, 61
1, 604053, Note_off_c, 0, 71, 65
1, 604186, Note_on_c, 0, 54, 66
1, 604189, Note_on_c, 0, 62, 58
1, 604194, Note_on_c, 0, 69, 45
1, 604204, Note_on_c, 0, 57, 37
1, 604210, Note_off_c, 0, 62, 63
1, 604215, Note_off_c, 0, 54, 66
1, 604223, Note_off_c, 0, 69, 55
1, 604233, Note_off_c, 0, 57, 55
1, 604275, Poly_aftertouch_c, 0, 66, 127
1, 604313, Poly_aftertouch_c, 0, 66, 0
1, 604338, Control_c, 0, 64, 72
1, 604353, Control_c, 0, 64, 36
1, 604368, Control_c, 0, 64, 0
1, 604374, Note_on_c, 0, 69, 96
1, 604376, Note_on_c, 0, 57, 104
1, 604386, Note_on_c, 0, 52, 81
1, 604389, Note_on_c, 0, 40, 80
1, 604397, Control_c, 0, 64, 60
1, 604412, Note_off_c, 0, 52, 66
1, 604412, Note_off_c, 0, 57, 66
1, 604412, Control_c, 0, 64, 92
1, 604413, Note_off_c, 0, 40, 66
1, 604414, Note_off_c, 0, 69, 68
1, 604427, Control_c, 0, 64, 127
1, 604498, Poly_aftertouch_c, 0, 50, 0
1, 604573, Note_on_c, 0, 54, 69
1, 604584, Note_on_c, 0, 62, 52
1, 604592, Note_on_c, 0, 57, 44
1, 604600, Note_off_c, 0, 54, 67
1, 604611, Note_off_c, 0, 62, 58
1, 604613, Note_off_c, 0, 57, 64
1, 604648, Poly_aftertouch_c, 0, 69, 127
1, 604678, Poly_aftertouch_c, 0, 69, 0
1, 604698, Poly_aftertouch_c, 0, 74, 0
1, 604701, Control_c, 0, 64, 76
1, 604716, Control_c, 0, 64, 40
1, 604731, Control_c, 0, 64, 0
1, 604760, Note_on_c, 0, 52, 81
1, 604764, Note_on_c, 0, 40, 80
1, 604781, Note_off_c, 0, 52, 67
1, 604794, Note_off_c, 0, 40, 65
1, 604931, Note_on_c, 0, 64, 93
1, 604934, Note_on_c, 0, 69, 58
1, 604936, Note_on_c, 0, 52, 76
1, 604944, Note_on_c, 0, 76, 47
1, 604956, Note_off_c, 0, 64, 68
1, 604958, Note_off_c, 0, 52, 67
1, 604969, Note_on_c, 0, 74, 31
1, 604971, Note_off_c, 0, 69, 65
1, 604982, Note_off_c, 0, 76, 47
1, 604983, Note_on_c, 0, 66, 67
1, 605015, Note_off_c, 0, 74, 46
1, 605023, Note_off_c, 0, 66, 61
1, 605088, Control_c, 0, 64, 49
1, 605102, Control_c, 0, 64, 83
1, 605103, Note_on_c, 0, 57, 105
1, 605110, Note_on_c, 0, 45, 92
1, 605117, Control_c, 0, 64, 127
1, 605130, Note_off_c, 0, 45, 69
1, 605137, Note_off_c, 0, 57, 69
1, 605274, Note_on_c, 0, 69, 102
1, 605283, Note_on_c, 0, 57, 89
1, 605302, Note_off_c, 0, 57, 70
1, 605304, Note_off_c, 0, 69, 64
1, 605414, Control_c, 0, 64, 78
1, 605429, Control_c, 0, 64, 58
1, 605452, Control_c, 0, 64, 46
1, 605455, Poly_aftertouch_c, 0, 57, 0
1, 605466, Note_on_c, 0, 56, 105
1, 605467, Control_c, 0, 64, 58
1, 605469, Note_on_c, 0, 44, 93
1, 605481, Control_c, 0, 64, 77
1, 605492, Note_off_c, 0, 44, 66
1, 605494, Note_off_c, 0, 56, 62
1, 605496, Control_c, 0, 64, 127
1, 605626, Note_on_c, 0, 68, 98
1, 605641, Note_on_c, 0, 56, 89
1, 605664, Note_off_c, 0, 56, 66
1, 605670, Note_off_c, 0, 68, 67
1, 605777, Control_c, 0, 64, 94
1, 605791, Control_c, 0, 64, 57
1, 605806, Control_c, 0, 64, 0
1, 605840, Note_on_c, 0, 66, 114
1, 605880, Control_c, 0, 64, 51
1, 605895, Control_c, 0, 64, 75
1, 605910, Control_c, 0, 64, 97
1, 605924, Control_c, 0, 64, 127
1, 606000, Note_off_c, 0, 66, 58
1, 606043, Note_on_c, 0, 54, 79
1, 606043, Note_on_c, 0, 69, 66
1, 606049, Note_on_c, 0, 76, 64
1, 606050, Note_on_c, 0, 62, 66
1, 606062, Note_on_c, 0, 57, 39
1, 606070, Note_off_c, 0, 54, 69
1, 606070, Note_off_c, 0, 62, 66
1, 606081, Note_off_c, 0, 76, 62
1, 606094, Note_off_c, 0, 57, 54
1, 606108, Note_off_c, 0, 69, 65
1, 606126, Poly_aftertouch_c, 0, 74, 127
1, 606129, Note_on_c, 0, 66, 62
1, 606145, Poly_aftertouch_c, 0, 74, 0
1, 606160, Note_off_c, 0, 66, 64
1, 606231, Note_on_c, 0, 52, 75
1, 606234, Note_on_c, 0, 40, 70
1, 606253, Note_off_c, 0, 52, 65
1, 606258, Note_off_c, 0, 40, 60
1, 606397, Note_on_c, 0, 69, 67
1, 606403, Note_on_c, 0, 54, 79
1, 606406, Note_on_c, 0, 62, 71
1, 606407, Note_on_c, 0, 57, 69
1, 606409, Note_on_c, 0, 76, 59
1, 606426, Note_on_c, 0, 74, 38
1, 606427, Note_off_c, 0, 54, 67
1, 606427, Note_off_c, 0, 57, 63
1, 606431, Note_off_c, 0, 62, 67
1, 606439, Note_off_c, 0, 76, 61
1, 606457, Note_off_c, 0, 69, 64
1, 606460, Note_on_c, 0, 66, 74
1, 606465, Note_off_c, 0, 74, 48
1, 606495, Note_off_c, 0, 66, 61
1, 606525, Control_c, 0, 64, 81
1, 606539, Control_c, 0, 64, 59
1, 606554, Control_c, 0, 64, 36
1, 606569, Note_on_c, 0, 52, 83
1, 606569, Control_c, 0, 64, 33
1, 606577, Note_on_c, 0, 40, 67
1, 606584, Control_c, 0, 64, 53
1, 606592, Note_off_c, 0, 52, 68
1, 606599, Control_c, 0, 64, 76
1, 606603, Note_off_c, 0, 40, 59
1, 606613, Control_c, 0, 64, 127
1, 606734, Note_on_c, 0, 62, 78
1, 606734, Note_on_c, 0, 69, 71
1, 606740, Note_on_c, 0, 57, 63
1, 606742, Note_on_c, 0, 54, 62
1, 606755, Note_on_c, 0, 76, 61
1, 606758, Note_off_c, 0, 62, 68
1, 606762, Note_off_c, 0, 57, 62
1, 606768, Note_off_c, 0, 54, 65
1, 606774, Note_off_c, 0, 76, 61
1, 606794, Note_off_c, 0, 69, 63
1, 606808, Note_on_c, 0, 66, 60
1, 606836, Control_c, 0, 64, 95
1, 606841, Note_off_c, 0, 66, 64
1, 606851, Control_c, 0, 64, 64
1, 606865, Control_c, 0, 64, 22
1, 606880, Control_c, 0, 64, 0
1, 606895, Control_c, 0, 64, 30
1, 606905, Note_on_c, 0, 52, 90
1, 606910, Control_c, 0, 64, 61
1, 606911, Note_on_c, 0, 40, 79
1, 606925, Control_c, 0, 64, 88
1, 606929, Note_off_c, 0, 52, 69
1, 606941, Note_off_c, 0, 40, 64
1, 606948, Control_c, 0, 64, 127
1, 607088, Note_on_c, 0, 68, 95
1, 607096, Note_on_c, 0, 56, 89
1, 607121, Note_off_c, 0, 56, 67
1, 607121, Note_off_c, 0, 68, 66
1, 607256, Note_on_c, 0, 59, 98
1, 607262, Note_on_c, 0, 47, 95
1, 607283, Note_off_c, 0, 47, 70
1, 607287, Note_off_c, 0, 59, 67
1, 607431, Note_on_c, 0, 71, 93
1, 607437, Note_on_c, 0, 59, 86
1, 607458, Note_off_c, 0, 59, 71
1, 607461, Note_off_c, 0, 71, 61
1, 607584, Control_c, 0, 64, 93
1, 607596, Poly_aftertouch_c, 0, 59, 0
1, 607599, Control_c, 0, 64, 59
1, 607611, Note_on_c, 0, 52, 89
1, 607614, Control_c, 0, 64, 0
1, 607615, Note_on_c, 0, 76, 95
1, 607644, Control_c, 0, 64, 8
1, 607658, Control_c, 0, 64, 55
1, 607673, Control_c, 0, 64, 73
1, 607695, Control_c, 0, 64, 91
1, 607710, Control_c, 0, 64, 127
1, 607794, Note_on_c, 0, 57, 68
1, 607795, Note_on_c, 0, 64, 70
1, 607802, Note_on_c, 0, 54, 73
1, 607807, Note_on_c, 0, 74, 52
1, 607815, Note_on_c, 0, 69, 61
1, 607855, Note_off_c, 0, 76, 42
1, 607861, Note_off_c, 0, 57, 61
1, 607864, Note_off_c, 0, 64, 57
1, 607867, Note_off_c, 0, 74, 55
1, 607878, Note_off_c, 0, 69, 62
1, 607891, Note_on_c, 0, 66, 58
1, 607901, Note_off_c, 0, 52, 58
1, 607904, Control_c, 0, 64, 105
1, 607918, Control_c, 0, 64, 71
1, 607933, Note_off_c, 0, 66, 63
1, 607933, Control_c, 0, 64, 46
1, 607939, Note_off_c, 0, 54, 60
1, 607948, Control_c, 0, 64, 0
1, 607972, Note_on_c, 0, 64, 108
1, 607976, Note_on_c, 0, 76, 93
1, 607978, Control_c, 0, 64, 34
1, 607992, Control_c, 0, 64, 62
1, 608007, Note_off_c, 0, 64, 70
1, 608007, Control_c, 0, 64, 86
1, 608022, Control_c, 0, 64, 127
1, 608078, Poly_aftertouch_c, 0, 74, 0
1, 608141, Poly_aftertouch_c, 0, 74, 0
1, 608155, Note_on_c, 0, 74, 38
1, 608162, Note_on_c, 0, 69, 65
1, 608217, Note_off_c, 0, 69, 51
1, 608222, Note_on_c, 0, 90, 25
1, 608239, Note_on_c, 0, 66, 59
1, 608260, Note_off_c, 0, 90, 52
1, 608272, Note_off_c, 0, 66, 64
1, 608273, Note_off_c, 0, 76, 29
1, 608282, Note_off_c, 0, 74, 62
1, 608331, Note_on_c, 0, 66, 104
1, 608335, Note_on_c, 0, 100, 113
1, 608338, Note_on_c, 0, 93, 106
1, 608338, Note_on_c, 0, 98, 106
1, 608340, Note_on_c, 0, 76, 94
1, 608340, Note_on_c, 0, 90, 80
1, 608344, Note_on_c, 0, 69, 81
1, 608344, Note_on_c, 0, 91, 101
1, 608349, Note_on_c, 0, 74, 71
1, 608373, Note_off_c, 0, 98, 66
1, 608373, Note_off_c, 0, 100, 67
1, 608375, Note_off_c, 0, 91, 58
1, 608380, Note_off_c, 0, 93, 68
1, 608394, Note_off_c, 0, 90, 68
1, 608398, Note_off_c, 0, 69, 64
1, 608400, Note_off_c, 0, 66, 62
1, 608401, Note_off_c, 0, 76, 60
1, 608407, Control_c, 0, 64, 87
1, 608422, Control_c, 0, 64, 43
1, 608444, Control_c, 0, 64, 0
1, 608448, Poly_aftertouch_c, 0, 96, 0
1, 608503, Note_off_c, 0, 74, 29
1, 608727, Control_c, 0, 64, 33
1, 608729, Note_on_c, 0, 66, 103
1, 608729, Note_on_c, 0, 76, 95
1, 608731, Note_on_c, 0, 45, 85
1, 608732, Note_on_c, 0, 52, 91
1, 608732, Note_on_c, 0, 69, 94
1, 608734, Note_on_c, 0, 50, 94
1, 608739, Note_on_c, 0, 42, 85
1, 608741, Control_c, 0, 64, 127
1, 608745, Note_on_c, 0, 74, 75
1, 608773, Note_on_c, 0, 41, 59
1, 608788, Note_off_c, 0, 52, 65
1, 608794, Note_off_c, 0, 50, 66
1, 608800, Note_off_c, 0, 45, 66
1, 608803, Note_off_c, 0, 41, 56
1, 608803, Note_off_c, 0, 42, 62
1, 608846, Control_c, 0, 64, 66
1, 608857, Note_off_c, 0, 69, 58
1, 608859, Note_off_c, 0, 76, 58
1, 608860, Control_c, 0, 64, 0
1, 608875, Note_off_c, 0, 74, 57
1, 608916, Note_off_c, 0, 66, 31
1, 609098, Control_c, 0, 64, 56
1, 609100, Note_on_c, 0, 35, 89
1, 609101, Note_on_c, 0, 47, 111
1, 609113, Control_c, 0, 64, 127
1, 609121, Note_on_c, 0, 41, 62
1, 609132, Note_off_c, 0, 35, 64
1, 609144, Note_off_c, 0, 47, 69
1, 609146, Note_off_c, 0, 41, 60
1, 609241, Poly_aftertouch_c, 0, 36, 0
1, 609316, Note_on_c, 0, 62, 106
1, 609319, Note_on_c, 0, 50, 98
1, 609343, Note_off_c, 0, 50, 72
1, 609346, Note_off_c, 0, 62, 70
1, 609358, Note_on_c, 0, 66, 52
1, 609399, Note_off_c, 0, 66, 60
1, 609477, Control_c, 0, 64, 63
1, 609491, Control_c, 0, 64, 0
1, 609538, Note_on_c, 0, 61, 102
1, 609539, Note_on_c, 0, 49, 104
1, 609542, Note_on_c, 0, 37, 93
1, 609551, Control_c, 0, 64, 60
1, 609565, Control_c, 0, 64, 127
1, 609569, Note_off_c, 0, 37, 67
1, 609578, Note_off_c, 0, 49, 65
1, 609580, Note_on_c, 0, 73, 30
1, 609610, Note_off_c, 0, 61, 65
1, 609613, Note_off_c, 0, 73, 51
1, 609718, Note_on_c, 0, 54, 77
1, 609720, Note_on_c, 0, 62, 73
1, 609722, Note_on_c, 0, 69, 67
1, 609723, Note_on_c, 0, 57, 62
1, 609739, Note_on_c, 0, 76, 63
1, 609742, Note_on_c, 0, 75, 22
1, 609744, Note_off_c, 0, 54, 67
1, 609745, Note_off_c, 0, 62, 66
1, 609745, Note_off_c, 0, 57, 62
1, 609758, Note_off_c, 0, 76, 63
1, 609761, Note_off_c, 0, 69, 64
1, 609781, Note_off_c, 0, 75, 50
1, 609876, Control_c, 0, 64, 120
1, 609878, Poly_aftertouch_c, 0, 66, 0
1, 609888, Note_on_c, 0, 59, 105
1, 609890, Note_on_c, 0, 47, 94
1, 609891, Control_c, 0, 64, 127
1, 609897, Note_on_c, 0, 35, 86
1, 609901, Poly_aftertouch_c, 0, 54, 0
1, 609921, Note_off_c, 0, 35, 66
1, 609923, Note_off_c, 0, 47, 66
1, 609945, Note_off_c, 0, 59, 66
1, 610061, Note_on_c, 0, 54, 74
1, 610062, Note_on_c, 0, 62, 76
1, 610073, Note_on_c, 0, 69, 63
1, 610074, Note_on_c, 0, 57, 56
1, 610080, Poly_aftertouch_c, 0, 35, 0
1, 610088, Note_off_c, 0, 62, 68
1, 610095, Note_off_c, 0, 69, 62
1, 610097, Note_off_c, 0, 54, 66
1, 610100, Note_off_c, 0, 57, 57
1, 610134, Note_on_c, 0, 66, 61
1, 610154, Note_off_c, 0, 66, 63
1, 610155, Poly_aftertouch_c, 0, 68, 0
1, 610195, Control_c, 0, 64, 83
1, 610210, Control_c, 0, 64, 55
1, 610225, Control_c, 0, 64, 0
1, 610240, Control_c, 0, 64, 24
1, 610252, Note_on_c, 0, 45, 82
1, 610255, Control_c, 0, 64, 62
1, 610255, Note_on_c, 0, 57, 95
1, 610261, Note_on_c, 0, 40, 68
1, 610264, Note_on_c, 0, 59, 71
1, 610269, Control_c, 0, 64, 105
1, 610273, Note_off_c, 0, 45, 67
1, 610284, Control_c, 0, 64, 127
1, 610288, Note_off_c, 0, 40, 62
1, 610289, Note_off_c, 0, 59, 65
1, 610296, Note_off_c, 0, 57, 67
1, 610417, Note_on_c, 0, 69, 85
1, 610419, Note_on_c, 0, 54, 82
1, 610425, Note_on_c, 0, 62, 71
1, 610426, Note_on_c, 0, 76, 68
1, 610443, Note_off_c, 0, 62, 66
1, 610446, Note_off_c, 0, 54, 67
1, 610451, Note_off_c, 0, 76, 66
1, 610455, Note_off_c, 0, 69, 62
1, 610490, Note_on_c, 0, 66, 74
1, 610509, Note_off_c, 0, 66, 67
1, 610535, Control_c, 0, 64, 79
1, 610550, Control_c, 0, 64, 48
1, 610565, Control_c, 0, 64, 0
1, 610595, Note_on_c, 0, 38, 78
1, 610595, Poly_aftertouch_c, 0, 54, 0
1, 610595, Control_c, 0, 64, 51
1, 610600, Note_on_c, 0, 56, 95
1, 610600, Note_on_c, 0, 68, 93
1, 610610, Control_c, 0, 64, 81
1, 610621, Note_off_c, 0, 56, 67
1, 610623, Note_off_c, 0, 38, 63
1, 610624, Control_c, 0, 64, 127
1, 610640, Note_off_c, 0, 68, 61
1, 610768, Note_on_c, 0, 66, 85
1, 610770, Note_on_c, 0, 54, 85
1, 610770, Note_on_c, 0, 69, 92
1, 610772, Note_on_c, 0, 76, 93
1, 610789, Note_off_c, 0, 66, 70
1, 610798, Note_off_c, 0, 54, 66
1, 610812, Note_off_c, 0, 76, 65
1, 610813, Note_off_c, 0, 69, 65
1, 610840, Note_on_c, 0, 66, 83
1, 610860, Note_off_c, 0, 66, 71
1, 610899, Control_c, 0, 64, 92
1, 610914, Control_c, 0, 64, 60
1, 610929, Control_c, 0, 64, 0
1, 610946, Note_on_c, 0, 41, 87
1, 610946, Note_on_c, 0, 59, 102
1, 610949, Note_on_c, 0, 71, 96
1, 610958, Note_on_c, 0, 69, 78
1, 610958, Control_c, 0, 64, 38
1, 610972, Note_off_c, 0, 59, 67
1, 610973, Note_off_c, 0, 41, 66
1, 610973, Note_off_c, 0, 69, 71
1, 610973, Control_c, 0, 64, 71
1, 610975, Note_off_c, 0, 71, 67
1, 610988, Control_c, 0, 64, 127
1, 611060, Poly_aftertouch_c, 0, 68, 0
1, 611122, Control_c, 0, 64, 74
1, 611128, Note_on_c, 0, 54, 71
1, 611129, Note_on_c, 0, 57, 69
1, 611129, Note_on_c, 0, 69, 59
1, 611132, Note_on_c, 0, 62, 83
1, 611136, Control_c, 0, 64, 42
1, 611149, Note_on_c, 0, 71, 39
1, 611151, Control_c, 0, 64, 0
1, 611158, Note_off_c, 0, 69, 66
1, 611170, Note_on_c, 0, 76, 21
1, 611179, Note_off_c, 0, 71, 35
1, 611186, Note_off_c, 0, 57, 62
1, 611202, Note_off_c, 0, 62, 62
1, 611207, Note_on_c, 0, 66, 81
1, 611216, Note_off_c, 0, 76, 30
1, 611221, Note_off_c, 0, 54, 63
1, 611259, Note_off_c, 0, 66, 63
1, 611280, Note_on_c, 0, 52, 90
1, 611290, Note_on_c, 0, 76, 98
1, 611305, Note_on_c, 0, 75, 50
1, 611314, Control_c, 0, 64, 41
1, 611328, Control_c, 0, 64, 72
1, 611329, Note_off_c, 0, 75, 57
1, 611343, Control_c, 0, 64, 94
1, 611358, Control_c, 0, 64, 127
1, 611382, Poly_aftertouch_c, 0, 74, 127
1, 611383, Poly_aftertouch_c, 0, 54, 127
1, 611399, Poly_aftertouch_c, 0, 74, 0
1, 611420, Poly_aftertouch_c, 0, 54, 0
1, 611464, Note_off_c, 0, 76, 0
1, 611464, Note_on_c, 0, 76, 12
1, 611474, Note_on_c, 0, 57, 78
1, 611477, Note_on_c, 0, 54, 73
1, 611477, Note_on_c, 0, 64, 81
1, 611483, Note_on_c, 0, 69, 73
1, 611488, Note_on_c, 0, 74, 78
1, 611516, Note_off_c, 0, 76, 63
1, 611537, Note_off_c, 0, 69, 65
1, 611540, Note_on_c, 0, 66, 73
1, 611561, Note_off_c, 0, 64, 62
1, 611573, Control_c, 0, 64, 87
1, 611588, Control_c, 0, 64, 60
1, 611596, Note_off_c, 0, 74, 53
1, 611600, Note_off_c, 0, 66, 61
1, 611603, Control_c, 0, 64, 0
1, 611646, Note_on_c, 0, 76, 94
1, 611647, Note_off_c, 0, 52, 37
1, 611647, Control_c, 0, 64, 55
1, 611649, Note_on_c, 0, 64, 118
1, 611662, Control_c, 0, 64, 96
1, 611677, Note_on_c, 0, 74, 66
1, 611677, Control_c, 0, 64, 127
1, 611680, Note_off_c, 0, 54, 61
1, 611698, Note_off_c, 0, 64, 72
1, 611699, Note_off_c, 0, 57, 42
1, 611700, Poly_aftertouch_c, 0, 75, 0
1, 611745, Note_off_c, 0, 76, 51
1, 611745, Poly_aftertouch_c, 0, 69, 127
1, 611748, Poly_aftertouch_c, 0, 75, 0
1, 611766, Note_off_c, 0, 74, 60
1, 611782, Poly_aftertouch_c, 0, 69, 0
1, 611989, Control_c, 0, 64, 71
1, 612004, Control_c, 0, 64, 34
1, 612010, Note_on_c, 0, 100, 101
1, 612014, Note_on_c, 0, 93, 105
1, 612018, Note_on_c, 0, 71, 92
1, 612018, Note_on_c, 0, 90, 108
1, 612019, Note_on_c, 0, 83, 105
1, 612019, Control_c, 0, 64, 24
1, 612020, Note_on_c, 0, 98, 88
1, 612033, Control_c, 0, 64, 65
1, 612047, Note_on_c, 0, 89, 61
1, 612048, Control_c, 0, 64, 127
1, 612056, Note_off_c, 0, 83, 70
1, 612067, Note_off_c, 0, 71, 66
1, 612068, Note_off_c, 0, 100, 68
1, 612070, Note_off_c, 0, 89, 63
1, 612076, Note_off_c, 0, 90, 65
1, 612077, Note_off_c, 0, 98, 65
1, 612080, Note_off_c, 0, 93, 66
1, 612083, Note_on_c, 0, 77, 3
1, 612107, Control_c, 0, 64, 103
1, 612117, Note_off_c, 0, 77, 39
1, 612122, Control_c, 0, 64, 57
1, 612137, Control_c, 0, 64, 0
1, 612366, Control_c, 0, 64, 23
1, 612381, Control_c, 0, 64, 68
1, 612394, Note_on_c, 0, 78, 102
1, 612394, Note_on_c, 0, 81, 94
1, 612394, Note_on_c, 0, 86, 91
1, 612396, Control_c, 0, 64, 99
1, 612398, Note_on_c, 0, 73, 93
1, 612400, Note_on_c, 0, 88, 93
1, 612401, Note_on_c, 0, 61, 96
1, 612408, Note_on_c, 0, 87, 65
1, 612410, Control_c, 0, 64, 127
1, 612416, Note_off_c, 0, 88, 73
1, 612434, Note_off_c, 0, 87, 55
1, 612437, Note_off_c, 0, 73, 69
1, 612449, Note_off_c, 0, 86, 67
1, 612459, Note_off_c, 0, 81, 67
1, 612461, Note_off_c, 0, 61, 64
1, 612463, Note_off_c, 0, 78, 61
1, 612487, Note_on_c, 0, 88, 24
1, 612500, Control_c, 0, 64, 110
1, 612516, Control_c, 0, 64, 58
1, 612517, Note_off_c, 0, 88, 52
1, 612531, Control_c, 0, 64, 0
1, 612738, Control_c, 0, 64, 22
1, 612753, Control_c, 0, 64, 66
1, 612768, Control_c, 0, 64, 96
1, 612774, Note_on_c, 0, 69, 109
1, 612774, Note_on_c, 0, 50, 99
1, 612774, Note_on_c, 0, 66, 114
1, 612775, Note_on_c, 0, 62, 106
1, 612776, Note_on_c, 0, 76, 99
1, 612781, Note_on_c, 0, 74, 90
1, 612783, Control_c, 0, 64, 127
1, 612806, Note_on_c, 0, 52, 61
1, 612807, Note_off_c, 0, 62, 69
1, 612809, Note_off_c, 0, 76, 66
1, 612819, Note_off_c, 0, 50, 67
1, 612824, Note_off_c, 0, 74, 67
1, 612827, Note_off_c, 0, 52, 62
1, 612830, Note_off_c, 0, 66, 66
1, 612833, Note_off_c, 0, 69, 69
1, 612938, Control_c, 0, 64, 93
1, 612953, Control_c, 0, 64, 67
1, 612968, Control_c, 0, 64, 40
1, 612982, Control_c, 0, 64, 0
1, 613279, Control_c, 0, 64, 29
1, 613282, Note_on_c, 0, 54, 99
1, 613282, Note_on_c, 0, 57, 93
1, 613284, Note_on_c, 0, 40, 109
1, 613284, Note_on_c, 0, 62, 88
1, 613284, Note_on_c, 0, 64, 82
1, 613286, Note_on_c, 0, 28, 97
1, 613294, Control_c, 0, 64, 127
1, 613307, Note_off_c, 0, 64, 71
1, 613311, Note_off_c, 0, 62, 69
1, 613316, Note_on_c, 0, 63, 42
1, 613317, Note_off_c, 0, 63, 127
1, 613324, Note_off_c, 0, 28, 66
1, 613324, Note_off_c, 0, 54, 63
1, 613325, Note_off_c, 0, 57, 64
1, 613336, Note_off_c, 0, 40, 63
1, 613428, Control_c, 0, 64, 109
1, 613443, Control_c, 0, 64, 82
1, 613457, Control_c, 0, 64, 73
1, 613472, Control_c, 0, 64, 72
1, 613502, Control_c, 0, 64, 71
1, 613517, Control_c, 0, 64, 69
1, 613531, Control_c, 0, 64, 65
1, 613546, Control_c, 0, 64, 64
1, 613561, Control_c, 0, 64, 65
1, 613576, Control_c, 0, 64, 69
1, 613591, Control_c, 0, 64, 81
1, 613591, Control_c, 0, 67, 17
1, 613605, Control_c, 0, 64, 93
1, 613605, Control_c, 0, 67, 40
1, 613620, Control_c, 0, 64, 87
1, 613620, Control_c, 0, 67, 71
1, 613635, Control_c, 0, 64, 66
1, 613635, Control_c, 0, 67, 85
1, 613650, Control_c, 0, 64, 40
1, 613665, Control_c, 0, 64, 0
1, 613665, Control_c, 0, 67, 86
1, 613687, Control_c, 0, 67, 85
1, 613717, Control_c, 0, 67, 86
1, 613731, Control_c, 0, 67, 87
1, 613746, Control_c, 0, 67, 87
1, 613761, Control_c, 0, 67, 88
1, 613805, Control_c, 0, 67, 88
1, 613835, Control_c, 0, 67, 89
1, 613850, Control_c, 0, 67, 90
1, 613865, Control_c, 0, 67, 90
1, 613880, Control_c, 0, 67, 91
1, 613909, Control_c, 0, 67, 92
1, 613924, Control_c, 0, 67, 94
1, 613939, Control_c, 0, 67, 96
1, 613954, Control_c, 0, 67, 96
1, 613958, Note_on_c, 0, 78, 63
1, 613960, Note_on_c, 0, 88, 61
1, 613966, Note_on_c, 0, 76, 48
1, 613969, Note_on_c, 0, 62, 67
1, 613969, Control_c, 0, 67, 97
1, 613972, Note_on_c, 0, 86, 53
1, 613977, Note_on_c, 0, 52, 49
1, 613978, Note_on_c, 0, 54, 51
1, 613983, Note_off_c, 0, 88, 65
1, 613984, Control_c, 0, 67, 98
1, 613988, Note_off_c, 0, 78, 66
1, 613991, Note_off_c, 0, 86, 65
1, 613992, Note_off_c, 0, 76, 57
1, 613996, Note_off_c, 0, 62, 67
1, 613999, Control_c, 0, 67, 98
1, 614003, Note_off_c, 0, 52, 57
1, 614004, Note_off_c, 0, 54, 59
1, 614013, Control_c, 0, 67, 99
1, 614043, Control_c, 0, 67, 99
1, 614177, Control_c, 0, 67, 100
1, 614251, Control_c, 0, 67, 99
1, 614339, Note_on_c, 0, 78, 65
1, 614339, Note_on_c, 0, 88, 67
1, 614339, Note_on_c, 0, 85, 65
1, 614343, Note_on_c, 0, 86, 65
1, 614345, Note_on_c, 0, 62, 60
1, 614345, Note_on_c, 0, 76, 53
1, 614351, Note_on_c, 0, 52, 49
1, 614351, Note_on_c, 0, 54, 50
1, 614368, Note_off_c, 0, 76, 60
1, 614371, Note_off_c, 0, 88, 66
1, 614372, Note_off_c, 0, 62, 67
1, 614377, Note_off_c, 0, 85, 63
1, 614377, Note_off_c, 0, 52, 61
1, 614377, Note_off_c, 0, 78, 64
1, 614377, Note_off_c, 0, 86, 65
1, 614381, Note_off_c, 0, 54, 65
1, 614384, Control_c, 0, 67, 100
1, 614510, Control_c, 0, 67, 99
1, 614643, Control_c, 0, 67, 99
1, 614658, Control_c, 0, 67, 98
1, 614673, Control_c, 0, 67, 98
1, 614687, Control_c, 0, 67, 97
1, 614722, Note_on_c, 0, 88, 75
1, 614724, Note_on_c, 0, 78, 66
1, 614728, Note_on_c, 0, 62, 67
1, 614732, Note_on_c, 0, 54, 62
1, 614733, Note_on_c, 0, 76, 59
1, 614737, Note_on_c, 0, 56, 60
1, 614737, Note_on_c, 0, 83, 64
1, 614742, Note_on_c, 0, 86, 60
1, 614743, Note_on_c, 0, 52, 46
1, 614757, Note_off_c, 0, 76, 64
1, 614760, Note_off_c, 0, 62, 67
1, 614763, Note_off_c, 0, 56, 65
1, 614765, Note_off_c, 0, 54, 67
1, 614769, Note_off_c, 0, 52, 60
1, 614770, Note_off_c, 0, 83, 64
1, 614771, Note_off_c, 0, 86, 63
1, 614774, Note_off_c, 0, 88, 67
1, 614776, Control_c, 0, 67, 98
1, 614777, Note_off_c, 0, 78, 64
1, 614865, Control_c, 0, 67, 97
1, 614895, Control_c, 0, 67, 97
1, 614910, Control_c, 0, 67, 96
1, 614925, Control_c, 0, 67, 96
1, 614955, Control_c, 0, 67, 95
1, 614984, Control_c, 0, 67, 94
1, 614999, Control_c, 0, 67, 93
1, 615014, Control_c, 0, 67, 91
1, 615029, Control_c, 0, 67, 90
1, 615044, Control_c, 0, 67, 87
1, 615058, Control_c, 0, 67, 86
1, 615073, Control_c, 0, 67, 83
1, 615088, Control_c, 0, 67, 80
1, 615106, Note_on_c, 0, 88, 81
1, 615109, Note_on_c, 0, 78, 80
1, 615111, Note_on_c, 0, 62, 84
1, 615111, Note_on_c, 0, 81, 77
1, 615113, Note_on_c, 0, 76, 76
1, 615114, Note_on_c, 0, 54, 67
1, 615114, Note_on_c, 0, 57, 78
1, 615121, Note_on_c, 0, 86, 71
1, 615123, Note_on_c, 0, 52, 62
1, 615141, Note_off_c, 0, 76, 65
1, 615144, Note_off_c, 0, 62, 65
1, 615145, Note_off_c, 0, 57, 67
1, 615149, Note_off_c, 0, 52, 66
1, 615150, Note_off_c, 0, 54, 66
1, 615156, Note_off_c, 0, 86, 61
1, 615157, Note_off_c, 0, 88, 68
1, 615160, Note_off_c, 0, 78, 64
1, 615160, Note_off_c, 0, 81, 66
1, 615199, Control_c, 0, 67, 80
1, 615273, Control_c, 0, 67, 79
1, 615288, Control_c, 0, 67, 78
1, 615302, Control_c, 0, 67, 74
1, 615317, Control_c, 0, 67, 69
1, 615332, Control_c, 0, 67, 64
1, 615347, Control_c, 0, 67, 57
1, 615362, Control_c, 0, 67, 48
1, 615376, Control_c, 0, 67, 37
1, 615391, Control_c, 0, 67, 23
1, 615406, Control_c, 0, 67, 0
1, 615506, Note_on_c, 0, 81, 84
1, 615512, Note_on_c, 0, 78, 80
1, 615520, Note_on_c, 0, 62, 102
1, 615521, Note_on_c, 0, 76, 78
1, 615524, Note_on_c, 0, 54, 73
1, 615524, Note_on_c, 0, 57, 83
1, 615526, Note_on_c, 0, 52, 83
1, 615537, Note_on_c, 0, 88, 47
1, 615555, Control_c, 0, 64, 36
1, 615563, Note_off_c, 0, 88, 57
1, 615564, Note_off_c, 0, 76, 60
1, 615570, Control_c, 0, 64, 25
1, 615572, Note_on_c, 0, 53, 13
1, 615573, Note_off_c, 0, 78, 62
1, 615576, Note_off_c, 0, 57, 64
1, 615582, Note_off_c, 0, 54, 65
1, 615584, Control_c, 0, 64, 18
1, 615599, Control_c, 0, 64, 30
1, 615600, Note_off_c, 0, 52, 62
1, 615613, Note_off_c, 0, 62, 54
1, 615614, Control_c, 0, 64, 48
1, 615617, Note_off_c, 0, 53, 29
1, 615628, Control_c, 0, 64, 53
1, 615632, Note_off_c, 0, 81, 64
1, 615643, Control_c, 0, 64, 54
1, 615688, Control_c, 0, 64, 49
1, 615704, Control_c, 0, 64, 26
1, 615718, Control_c, 0, 64, 0
1, 615905, Note_on_c, 0, 88, 73
1, 615909, Note_on_c, 0, 78, 74
1, 615913, Note_on_c, 0, 86, 69
1, 615916, Note_on_c, 0, 76, 52
1, 615919, Note_on_c, 0, 54, 68
1, 615921, Note_on_c, 0, 62, 73
1, 615933, Note_on_c, 0, 52, 55
1, 615944, Note_off_c, 0, 76, 60
1, 615945, Note_off_c, 0, 78, 64
1, 615945, Note_off_c, 0, 88, 66
1, 615950, Note_off_c, 0, 54, 68
1, 615951, Note_off_c, 0, 86, 66
1, 615956, Note_off_c, 0, 62, 67
1, 615959, Note_off_c, 0, 52, 60
1, 616300, Note_on_c, 0, 85, 70
1, 616301, Note_on_c, 0, 78, 65
1, 616303, Note_on_c, 0, 88, 68
1, 616306, Note_on_c, 0, 54, 68
1, 616308, Note_on_c, 0, 76, 61
1, 616309, Note_on_c, 0, 62, 73
1, 616311, Note_on_c, 0, 86, 71
1, 616319, Note_on_c, 0, 52, 57
1, 616337, Note_off_c, 0, 62, 66
1, 616341, Note_off_c, 0, 54, 67
1, 616341, Note_off_c, 0, 76, 65
1, 616345, Note_off_c, 0, 52, 63
1, 616350, Note_off_c, 0, 78, 63
1, 616354, Note_off_c, 0, 86, 61
1, 616355, Note_off_c, 0, 88, 67
1, 616360, Note_off_c, 0, 85, 65
1, 616482, Control_c, 0, 64, 14
1, 616497, Control_c, 0, 64, 24
1, 616512, Control_c, 0, 64, 0
1, 616688, Note_on_c, 0, 76, 87
1, 616690, Note_on_c, 0, 78, 80
1, 616690, Note_on_c, 0, 83, 79
1, 616691, Note_on_c, 0, 62, 88
1, 616691, Note_on_c, 0, 88, 79
1, 616694, Note_on_c, 0, 52, 63
1, 616694, Note_on_c, 0, 54, 73
1, 616697, Control_c, 0, 64, 17
1, 616700, Note_on_c, 0, 56, 81
1, 616705, Note_on_c, 0, 86, 64
1, 616712, Control_c, 0, 64, 17
1, 616726, Note_off_c, 0, 56, 67
1, 616727, Control_c, 0, 64, 13
1, 616729, Note_off_c, 0, 52, 67
1, 616730, Note_off_c, 0, 54, 66
1, 616731, Note_off_c, 0, 62, 63
1, 616732, Note_off_c, 0, 76, 64
1, 616741, Note_off_c, 0, 86, 65
1, 616742, Control_c, 0, 64, 0
1, 616744, Note_off_c, 0, 78, 65
1, 616747, Note_off_c, 0, 83, 65
1, 616747, Note_off_c, 0, 88, 66
1, 616860, Control_c, 0, 64, 19
1, 616875, Control_c, 0, 64, 21
1, 616890, Control_c, 0, 64, 23
1, 616905, Control_c, 0, 64, 27
1, 616920, Control_c, 0, 64, 33
1, 616935, Control_c, 0, 64, 37
1, 616949, Control_c, 0, 64, 39
1, 616964, Control_c, 0, 64, 39
1, 616979, Control_c, 0, 64, 40
1, 616994, Control_c, 0, 64, 39
1, 617009, Control_c, 0, 64, 28
1, 617023, Control_c, 0, 64, 0
1, 617068, Note_on_c, 0, 78, 91
1, 617069, Note_on_c, 0, 76, 95
1, 617072, Note_on_c, 0, 88, 89
1, 617072, Note_on_c, 0, 57, 90
1, 617074, Note_on_c, 0, 62, 94
1, 617074, Note_on_c, 0, 86, 82
1, 617075, Note_on_c, 0, 54, 84
1, 617078, Note_on_c, 0, 52, 82
1, 617106, Note_off_c, 0, 57, 64
1, 617108, Note_off_c, 0, 52, 66
1, 617113, Control_c, 0, 64, 51
1, 617120, Note_off_c, 0, 62, 64
1, 617120, Note_off_c, 0, 76, 61
1, 617126, Note_off_c, 0, 54, 65
1, 617128, Control_c, 0, 64, 59
1, 617132, Note_off_c, 0, 88, 66
1, 617136, Note_off_c, 0, 78, 64
1, 617143, Control_c, 0, 64, 55
1, 617144, Note_off_c, 0, 86, 65
1, 617157, Control_c, 0, 64, 15
1, 617172, Control_c, 0, 64, 0
1, 617444, Note_on_c, 0, 78, 92
1, 617446, Note_on_c, 0, 62, 103
1, 617447, Note_on_c, 0, 88, 96
1, 617448, Note_on_c, 0, 76, 96
1, 617448, Control_c, 0, 64, 39
1, 617449, Note_on_c, 0, 59, 94
1, 617451, Note_on_c, 0, 86, 88
1, 617452, Note_on_c, 0, 54, 87
1, 617453, Note_on_c, 0, 52, 87
1, 617463, Control_c, 0, 64, 69
1, 617478, Control_c, 0, 64, 70
1, 617497, Note_off_c, 0, 52, 60
1, 617498, Note_off_c, 0, 59, 67
1, 617501, Note_off_c, 0, 62, 66
1, 617501, Note_off_c, 0, 76, 62
1, 617507, Control_c, 0, 64, 71
1, 617510, Note_off_c, 0, 88, 67
1, 617513, Note_off_c, 0, 54, 65
1, 617516, Note_off_c, 0, 78, 64
1, 617519, Note_off_c, 0, 86, 64
1, 617522, Control_c, 0, 64, 72
1, 617537, Control_c, 0, 64, 70
1, 617552, Control_c, 0, 64, 53
1, 617567, Control_c, 0, 64, 0
1, 617822, Note_on_c, 0, 61, 99
1, 617823, Note_on_c, 0, 76, 101
1, 617825, Note_on_c, 0, 62, 101
1, 617826, Note_on_c, 0, 88, 87
1, 617827, Note_on_c, 0, 86, 89
1, 617828, Note_on_c, 0, 78, 89
1, 617829, Note_on_c, 0, 54, 84
1, 617832, Note_on_c, 0, 85, 79
1, 617833, Note_on_c, 0, 52, 83
1, 617865, Note_off_c, 0, 52, 64
1, 617871, Note_off_c, 0, 61, 66
1, 617881, Note_off_c, 0, 62, 65
1, 617884, Note_off_c, 0, 88, 66
1, 617886, Note_off_c, 0, 54, 64
1, 617887, Note_off_c, 0, 78, 62
1, 617891, Note_off_c, 0, 76, 59
1, 617892, Note_off_c, 0, 85, 43
1, 617893, Note_off_c, 0, 86, 63
1, 618015, Note_on_c, 0, 76, 105
1, 618018, Note_on_c, 0, 62, 97
1, 618018, Note_on_c, 0, 88, 96
1, 618019, Note_on_c, 0, 54, 87
1, 618020, Note_on_c, 0, 78, 92
1, 618023, Note_on_c, 0, 83, 85
1, 618023, Note_on_c, 0, 86, 83
1, 618038, Control_c, 0, 64, 82
1, 618051, Note_off_c, 0, 54, 66
1, 618052, Note_on_c, 0, 85, 44
1, 618053, Note_off_c, 0, 62, 66
1, 618053, Control_c, 0, 64, 127
1, 618062, Note_on_c, 0, 52, 15
1, 618071, Note_off_c, 0, 76, 66
1, 618080, Note_off_c, 0, 78, 65
1, 618083, Note_off_c, 0, 85, 34
1, 618089, Note_off_c, 0, 83, 66
1, 618096, Note_off_c, 0, 88, 66
1, 618099, Note_off_c, 0, 86, 63
1, 618110, Note_off_c, 0, 52, 48
1, 618328, Control_c, 0, 64, 100
1, 618343, Control_c, 0, 64, 53
1, 618358, Control_c, 0, 64, 0
1, 618388, Note_on_c, 0, 100, 98
1, 618390, Note_on_c, 0, 93, 92
1, 618390, Note_on_c, 0, 90, 104
1, 618391, Note_on_c, 0, 98, 96
1, 618398, Note_on_c, 0, 71, 84
1, 618398, Note_on_c, 0, 83, 93
1, 618417, Control_c, 0, 64, 46
1, 618431, Note_off_c, 0, 71, 67
1, 618432, Control_c, 0, 64, 127
1, 618437, Note_off_c, 0, 83, 66
1, 618441, Note_off_c, 0, 100, 68
1, 618455, Note_off_c, 0, 98, 65
1, 618459, Note_off_c, 0, 93, 66
1, 618466, Note_off_c, 0, 90, 66
1, 618654, Control_c, 0, 64, 65
1, 618669, Control_c, 0, 64, 0
1, 618753, Note_on_c, 0, 78, 105
1, 618753, Note_on_c, 0, 81, 93
1, 618757, Note_on_c, 0, 88, 93
1, 618758, Note_on_c, 0, 86, 91
1, 618762, Note_on_c, 0, 73, 92
1, 618763, Note_on_c, 0, 61, 90
1, 618773, Control_c, 0, 64, 57
1, 618788, Control_c, 0, 64, 71
1, 618794, Note_off_c, 0, 61, 63
1, 618795, Note_off_c, 0, 88, 67
1, 618798, Note_off_c, 0, 73, 63
1, 618802, Control_c, 0, 64, 74
1, 618817, Note_off_c, 0, 86, 66
1, 618817, Control_c, 0, 64, 89
1, 618823, Note_off_c, 0, 81, 67
1, 618826, Note_off_c, 0, 78, 62
1, 618832, Control_c, 0, 64, 127
1, 619019, Control_c, 0, 64, 118
1, 619033, Control_c, 0, 64, 69
1, 619048, Control_c, 0, 64, 0
1, 619138, Note_on_c, 0, 66, 102
1, 619139, Note_on_c, 0, 69, 95
1, 619140, Note_on_c, 0, 50, 87
1, 619141, Note_on_c, 0, 74, 89
1, 619142, Note_on_c, 0, 62, 95
1, 619143, Note_on_c, 0, 76, 101
1, 619166, Control_c, 0, 64, 94
1, 619168, Note_off_c, 0, 62, 70
1, 619180, Note_off_c, 0, 76, 66
1, 619181, Control_c, 0, 64, 127
1, 619182, Note_off_c, 0, 50, 66
1, 619205, Note_off_c, 0, 74, 66
1, 619212, Note_off_c, 0, 69, 66
1, 619215, Note_off_c, 0, 66, 61
1, 619586, Note_on_c, 0, 54, 103
1, 619591, Note_on_c, 0, 40, 105
1, 619592, Note_on_c, 0, 57, 91
1, 619592, Note_on_c, 0, 62, 92
1, 619592, Note_on_c, 0, 64, 93
1, 619595, Note_on_c, 0, 28, 101
1, 619617, Note_off_c, 0, 28, 67
1, 619631, Note_off_c, 0, 40, 65
1, 619633, Note_on_c, 0, 63, 33
1, 619639, Note_off_c, 0, 64, 62
1, 619646, Note_off_c, 0, 54, 66
1, 619650, Note_off_c, 0, 57, 65
1, 619662, Note_off_c, 0, 62, 65
1, 619675, Note_off_c, 0, 63, 33
1, 619716, Note_on_c, 0, 28, 22
1, 619744, Note_off_c, 0, 28, 43
1, 619970, Note_on_c, 0, 88, 98
1, 619973, Note_on_c, 0, 71, 96
1, 620004, Note_off_c, 0, 88, 70
1, 620065, Note_off_c, 0, 71, 61
1, 620170, Note_on_c, 0, 74, 78
1, 620171, Note_on_c, 0, 81, 91
1, 620182, Note_on_c, 0, 62, 70
1, 620189, Note_on_c, 0, 78, 68
1, 620204, Poly_aftertouch_c, 0, 68, 0
1, 620206, Note_off_c, 0, 78, 66
1, 620225, Note_off_c, 0, 81, 59
1, 620229, Note_off_c, 0, 74, 66
1, 620236, Note_off_c, 0, 62, 66
1, 620244, Note_on_c, 0, 71, 67
1, 620271, Control_c, 0, 64, 84
1, 620277, Note_on_c, 0, 81, 37
1, 620286, Control_c, 0, 64, 66
1, 620291, Note_off_c, 0, 71, 63
1, 620300, Control_c, 0, 64, 58
1, 620301, Note_off_c, 0, 81, 59
1, 620315, Control_c, 0, 64, 61
1, 620328, Note_on_c, 0, 73, 111
1, 620330, Note_on_c, 0, 88, 101
1, 620330, Control_c, 0, 64, 73
1, 620336, Note_on_c, 0, 61, 87
1, 620345, Control_c, 0, 64, 111
1, 620360, Control_c, 0, 64, 127
1, 620368, Note_off_c, 0, 61, 62
1, 620369, Note_off_c, 0, 73, 68
1, 620371, Note_on_c, 0, 70, 26
1, 620372, Note_off_c, 0, 70, 127
1, 620400, Note_off_c, 0, 88, 56
1, 620408, Poly_aftertouch_c, 0, 70, 0
1, 620537, Note_on_c, 0, 81, 70
1, 620553, Note_on_c, 0, 78, 73
1, 620595, Note_off_c, 0, 81, 64
1, 620604, Note_off_c, 0, 78, 62
1, 620617, Note_on_c, 0, 74, 69
1, 620648, Note_off_c, 0, 74, 68
1, 620649, Control_c, 0, 64, 90
1, 620664, Control_c, 0, 64, 71
1, 620679, Control_c, 0, 64, 59
1, 620684, Note_on_c, 0, 88, 95
1, 620691, Note_on_c, 0, 71, 91
1, 620694, Note_on_c, 0, 59, 84
1, 620694, Control_c, 0, 64, 56
1, 620709, Control_c, 0, 64, 60
1, 620724, Control_c, 0, 64, 70
1, 620736, Note_off_c, 0, 59, 63
1, 620738, Control_c, 0, 64, 90
1, 620739, Note_off_c, 0, 71, 64
1, 620753, Control_c, 0, 64, 127
1, 620780, Note_off_c, 0, 88, 60
1, 620888, Note_on_c, 0, 83, 71
1, 620897, Note_on_c, 0, 80, 67
1, 620935, Note_off_c, 0, 80, 56
1, 620940, Note_off_c, 0, 83, 66
1, 620960, Control_c, 0, 64, 83
1, 620967, Note_on_c, 0, 73, 66
1, 620975, Control_c, 0, 64, 0
1, 620985, Note_off_c, 0, 73, 66
1, 621038, Note_on_c, 0, 88, 97
1, 621043, Note_on_c, 0, 69, 106
1, 621046, Note_on_c, 0, 57, 89
1, 621090, Note_off_c, 0, 57, 65
1, 621090, Note_off_c, 0, 69, 68
1, 621093, Control_c, 0, 64, 59
1, 621108, Control_c, 0, 64, 69
1, 621123, Control_c, 0, 64, 73
1, 621138, Control_c, 0, 64, 81
1, 621153, Control_c, 0, 64, 101
1, 621175, Control_c, 0, 64, 127
1, 621199, Note_off_c, 0, 88, 37
1, 621235, Note_on_c, 0, 85, 63
1, 621260, Note_on_c, 0, 78, 57
1, 621282, Note_off_c, 0, 78, 60
1, 621317, Note_on_c, 0, 74, 49
1, 621317, Note_off_c, 0, 85, 59
1, 621351, Note_off_c, 0, 74, 58
1, 621383, Control_c, 0, 64, 59
1, 621398, Control_c, 0, 64, 0
1, 621404, Note_on_c, 0, 64, 95
1, 621406, Note_on_c, 0, 88, 85
1, 621408, Note_on_c, 0, 52, 87
1, 621433, Note_off_c, 0, 52, 68
1, 621446, Note_off_c, 0, 64, 65
1, 621475, Note_off_c, 0, 88, 64
1, 621589, Note_on_c, 0, 86, 52
1, 621591, Note_on_c, 0, 64, 87
1, 621596, Note_on_c, 0, 83, 56
1, 621601, Note_on_c, 0, 80, 60
1, 621622, Note_off_c, 0, 64, 66
1, 621623, Note_off_c, 0, 83, 65
1, 621641, Note_off_c, 0, 86, 64
1, 621645, Note_off_c, 0, 80, 56
1, 621684, Note_on_c, 0, 76, 40
1, 621710, Note_off_c, 0, 76, 51
1, 621765, Note_on_c, 0, 69, 105
1, 621775, Note_on_c, 0, 57, 92
1, 621781, Note_on_c, 0, 88, 81
1, 621798, Control_c, 0, 64, 72
1, 621800, Note_off_c, 0, 57, 70
1, 621812, Control_c, 0, 64, 109
1, 621827, Control_c, 0, 64, 127
1, 621829, Note_off_c, 0, 69, 63
1, 621844, Note_off_c, 0, 88, 67
1, 621944, Note_on_c, 0, 69, 87
1, 621953, Note_on_c, 0, 88, 72
1, 621965, Note_on_c, 0, 81, 50
1, 621985, Note_off_c, 0, 69, 66
1, 621988, Note_off_c, 0, 81, 58
1, 622000, Note_off_c, 0, 88, 58
1, 622048, Note_on_c, 0, 78, 40
1, 622071, Control_c, 0, 64, 82
1, 622077, Note_off_c, 0, 78, 53
1, 622087, Control_c, 0, 64, 49
1, 622102, Control_c, 0, 64, 0
1, 622131, Note_on_c, 0, 88, 88
1, 622134, Note_on_c, 0, 68, 101
1, 622145, Note_on_c, 0, 56, 79
1, 622162, Control_c, 0, 64, 53
1, 622167, Note_off_c, 0, 56, 66
1, 622176, Control_c, 0, 64, 72
1, 622182, Note_off_c, 0, 68, 65
1, 622191, Control_c, 0, 64, 92
1, 622206, Control_c, 0, 64, 115
1, 622217, Note_off_c, 0, 88, 66
1, 622221, Control_c, 0, 64, 127
1, 622235, Control_c, 0, 64, 118
1, 622250, Control_c, 0, 64, 86
1, 622265, Control_c, 0, 64, 63
1, 622280, Control_c, 0, 64, 0
1, 622290, Poly_aftertouch_c, 0, 56, 0
1, 622301, Note_on_c, 0, 82, 63
1, 622304, Note_on_c, 0, 68, 76
1, 622305, Note_on_c, 0, 90, 75
1, 622333, Note_on_c, 0, 83, 63
1, 622333, Note_off_c, 0, 82, 63
1, 622347, Note_off_c, 0, 68, 65
1, 622351, Note_off_c, 0, 83, 67
1, 622361, Note_off_c, 0, 90, 65
1, 622408, Note_on_c, 0, 80, 37
1, 622437, Note_off_c, 0, 80, 46
1, 622479, Note_on_c, 0, 88, 96
1, 622483, Note_on_c, 0, 66, 99
1, 622495, Note_on_c, 0, 54, 69
1, 622502, Control_c, 0, 64, 60
1, 622517, Control_c, 0, 64, 85
1, 622525, Note_off_c, 0, 54, 66
1, 622525, Note_off_c, 0, 66, 65
1, 622532, Control_c, 0, 64, 103
1, 622536, Note_on_c, 0, 56, 25
1, 622547, Control_c, 0, 64, 127
1, 622562, Note_off_c, 0, 88, 61
1, 622585, Note_off_c, 0, 56, 38
1, 622673, Note_on_c, 0, 92, 54
1, 622676, Note_on_c, 0, 85, 74
1, 622721, Note_off_c, 0, 92, 62
1, 622724, Note_off_c, 0, 85, 61
1, 622762, Control_c, 0, 64, 89
1, 622763, Note_on_c, 0, 81, 58
1, 622776, Control_c, 0, 64, 59
1, 622787, Note_off_c, 0, 81, 65
1, 622791, Control_c, 0, 64, 0
1, 622838, Note_on_c, 0, 88, 90
1, 622842, Note_on_c, 0, 64, 90
1, 622843, Note_on_c, 0, 52, 85
1, 622865, Control_c, 0, 64, 52
1, 622870, Note_off_c, 0, 52, 69
1, 622880, Control_c, 0, 64, 63
1, 622882, Note_off_c, 0, 64, 67
1, 622887, Note_off_c, 0, 88, 69
1, 622896, Control_c, 0, 64, 47
1, 622911, Control_c, 0, 64, 0
1, 623016, Note_on_c, 0, 86, 75
1, 623017, Note_on_c, 0, 68, 90
1, 623022, Note_on_c, 0, 56, 91
1, 623022, Note_on_c, 0, 93, 65
1, 623039, Note_off_c, 0, 68, 69
1, 623043, Note_on_c, 0, 90, 41
1, 623045, Note_off_c, 0, 93, 64
1, 623046, Note_off_c, 0, 56, 67
1, 623048, Note_off_c, 0, 86, 63
1, 623073, Note_off_c, 0, 90, 50
1, 623088, Note_on_c, 0, 83, 59
1, 623107, Note_off_c, 0, 83, 65
1, 623178, Control_c, 0, 64, 64
1, 623189, Note_on_c, 0, 59, 94
1, 623192, Note_on_c, 0, 47, 91
1, 623192, Control_c, 0, 64, 127
1, 623199, Note_on_c, 0, 88, 77
1, 623211, Note_off_c, 0, 59, 71
1, 623218, Note_off_c, 0, 47, 69
1, 623242, Note_off_c, 0, 88, 61
1, 623386, Note_on_c, 0, 95, 68
1, 623389, Note_on_c, 0, 71, 115
1, 623390, Note_on_c, 0, 92, 79
1, 623395, Note_on_c, 0, 59, 98
1, 623426, Note_off_c, 0, 59, 69
1, 623426, Note_off_c, 0, 95, 63
1, 623435, Note_off_c, 0, 71, 69
1, 623457, Note_off_c, 0, 92, 66
1, 623500, Note_on_c, 0, 85, 58
1, 623535, Note_off_c, 0, 85, 62
1, 623600, Control_c, 0, 64, 86
1, 623615, Control_c, 0, 64, 51
1, 623630, Control_c, 0, 64, 0
1, 623639, Note_on_c, 0, 88, 96
1, 623642, Note_on_c, 0, 76, 109
1, 623650, Note_on_c, 0, 64, 94
1, 623659, Control_c, 0, 64, 42
1, 623672, Note_on_c, 0, 97, 71
1, 623674, Control_c, 0, 64, 67
1, 623688, Note_off_c, 0, 64, 68
1, 623688, Note_off_c, 0, 97, 67
1, 623690, Control_c, 0, 64, 127
1, 623699, Note_off_c, 0, 76, 61
1, 623764, Note_off_c, 0, 88, 61
1, 623825, Note_on_c, 0, 97, 59
1, 623832, Note_on_c, 0, 95, 69
1, 623842, Note_on_c, 0, 92, 70
1, 623894, Note_off_c, 0, 95, 64
1, 623896, Note_on_c, 0, 86, 82
1, 623897, Control_c, 0, 64, 79
1, 623907, Note_off_c, 0, 92, 64
1, 623909, Note_off_c, 0, 97, 65
1, 623912, Control_c, 0, 64, 25
1, 623927, Control_c, 0, 64, 0
1, 623940, Note_off_c, 0, 86, 64
1, 623974, Note_on_c, 0, 88, 103
1, 623982, Note_on_c, 0, 64, 96
1, 623985, Note_on_c, 0, 52, 85
1, 624012, Note_off_c, 0, 52, 68
1, 624015, Control_c, 0, 64, 70
1, 624030, Control_c, 0, 64, 97
1, 624036, Note_off_c, 0, 64, 66
1, 624045, Control_c, 0, 64, 124
1, 624059, Control_c, 0, 64, 127
1, 624074, Note_off_c, 0, 88, 58
1, 624173, Note_on_c, 0, 95, 58
1, 624174, Note_on_c, 0, 98, 66
1, 624180, Note_on_c, 0, 96, 67
1, 624186, Note_on_c, 0, 92, 57
1, 624220, Note_off_c, 0, 98, 64
1, 624221, Note_off_c, 0, 92, 65
1, 624222, Note_off_c, 0, 96, 59
1, 624226, Note_off_c, 0, 95, 66
1, 624251, Note_on_c, 0, 88, 67
1, 624268, Note_off_c, 0, 88, 68
1, 624347, Note_on_c, 0, 90, 108
1, 624347, Note_on_c, 0, 98, 91
1, 624348, Note_on_c, 0, 100, 102
1, 624351, Note_on_c, 0, 93, 101
1, 624351, Note_on_c, 0, 74, 100
1, 624352, Note_on_c, 0, 62, 93
1, 624384, Note_off_c, 0, 74, 70
1, 624385, Note_off_c, 0, 100, 67
1, 624393, Note_off_c, 0, 90, 67
1, 624400, Note_off_c, 0, 62, 68
1, 624402, Note_off_c, 0, 93, 68
1, 624402, Note_off_c, 0, 98, 65
1, 624720, Control_c, 0, 64, 107
1, 624735, Control_c, 0, 64, 78
1, 624750, Control_c, 0, 64, 61
1, 624764, Control_c, 0, 64, 35
1, 624779, Control_c, 0, 64, 19
1, 624794, Control_c, 0, 64, 61
1, 624805, Note_on_c, 0, 54, 95
1, 624805, Note_on_c, 0, 64, 93
1, 624809, Note_on_c, 0, 40, 102
1, 624809, Note_on_c, 0, 57, 81
1, 624809, Note_on_c, 0, 62, 84
1, 624809, Control_c, 0, 64, 127
1, 624811, Note_on_c, 0, 28, 96
1, 624842, Note_on_c, 0, 29, 57
1, 624843, Note_on_c, 0, 56, 44
1, 624848, Note_on_c, 0, 31, 42
1, 624857, Note_off_c, 0, 64, 65
1, 624864, Note_off_c, 0, 28, 64
1, 624864, Note_off_c, 0, 54, 67
1, 624871, Note_on_c, 0, 33, 6
1, 624875, Note_off_c, 0, 29, 51
1, 624876, Note_off_c, 0, 56, 57
1, 624879, Note_off_c, 0, 57, 66
1, 624885, Note_off_c, 0, 40, 65
1, 624888, Note_off_c, 0, 62, 67
1, 624889, Note_off_c, 0, 31, 48
1, 624934, Note_off_c, 0, 33, 33
1, 625174, Note_on_c, 0, 59, 107
1, 625178, Note_on_c, 0, 47, 92
1, 625183, Poly_aftertouch_c, 0, 85, 127
1, 625203, Note_on_c, 0, 53, 45
1, 625204, Note_off_c, 0, 47, 69
1, 625219, Note_off_c, 0, 59, 69
1, 625227, Note_off_c, 0, 53, 58
1, 625315, Poly_aftertouch_c, 0, 85, 0
1, 625364, Note_on_c, 0, 74, 88
1, 625368, Note_on_c, 0, 86, 84
1, 625369, Note_on_c, 0, 62, 92
1, 625370, Note_on_c, 0, 80, 87
1, 625374, Note_on_c, 0, 76, 84
1, 625380, Note_on_c, 0, 83, 74
1, 625385, Note_off_c, 0, 74, 71
1, 625389, Note_off_c, 0, 62, 72
1, 625399, Note_off_c, 0, 76, 63
1, 625402, Note_off_c, 0, 80, 62
1, 625402, Note_off_c, 0, 83, 70
1, 625413, Note_off_c, 0, 86, 64
1, 625443, Note_on_c, 0, 86, 77
1, 625444, Note_on_c, 0, 80, 86
1, 625447, Note_on_c, 0, 83, 91
1, 625468, Control_c, 0, 64, 89
1, 625469, Poly_aftertouch_c, 0, 76, 0
1, 625479, Note_off_c, 0, 80, 66
1, 625482, Note_off_c, 0, 86, 66
1, 625483, Control_c, 0, 64, 59
1, 625487, Note_off_c, 0, 83, 66
1, 625498, Control_c, 0, 64, 0
1, 625535, Note_on_c, 0, 61, 100
1, 625536, Note_on_c, 0, 49, 92
1, 625557, Control_c, 0, 64, 53
1, 625572, Control_c, 0, 64, 69
1, 625586, Control_c, 0, 64, 87
1, 625601, Control_c, 0, 64, 127
1, 625652, Note_off_c, 0, 49, 61
1, 625687, Note_off_c, 0, 61, 60
1, 625749, Note_on_c, 0, 76, 108
1, 625756, Note_on_c, 0, 88, 80
1, 625758, Note_on_c, 0, 82, 60
1, 625762, Note_on_c, 0, 78, 68
1, 625765, Note_on_c, 0, 81, 62
1, 625767, Note_off_c, 0, 76, 70
1, 625772, Note_off_c, 0, 88, 71
1, 625779, Note_off_c, 0, 82, 40
1, 625779, Note_off_c, 0, 78, 67
1, 625782, Note_off_c, 0, 81, 67
1, 625810, Note_on_c, 0, 76, 92
1, 625813, Note_on_c, 0, 88, 97
1, 625817, Note_on_c, 0, 78, 95
1, 625821, Note_on_c, 0, 85, 55
1, 625836, Note_on_c, 0, 81, 64
1, 625841, Note_off_c, 0, 76, 62
1, 625850, Note_off_c, 0, 88, 68
1, 625852, Note_off_c, 0, 78, 63
1, 625854, Note_off_c, 0, 81, 66
1, 625863, Note_off_c, 0, 85, 65
1, 625882, Note_on_c, 0, 59, 92
1, 625882, Note_on_c, 0, 71, 108
1, 625946, Note_off_c, 0, 71, 63
1, 625980, Note_off_c, 0, 59, 65
1, 626092, Note_on_c, 0, 85, 75
1, 626095, Note_on_c, 0, 80, 69
1, 626097, Note_on_c, 0, 78, 73
1, 626112, Note_off_c, 0, 80, 67
1, 626113, Note_off_c, 0, 78, 68
1, 626116, Note_on_c, 0, 90, 36
1, 626117, Note_off_c, 0, 85, 68
1, 626128, Control_c, 0, 64, 86
1, 626143, Control_c, 0, 64, 34
1, 626146, Note_off_c, 0, 90, 0
1, 626146, Note_on_c, 0, 90, 49
1, 626153, Note_on_c, 0, 78, 84
1, 626154, Note_on_c, 0, 80, 86
1, 626158, Control_c, 0, 64, 0
1, 626165, Note_on_c, 0, 86, 79
1, 626199, Note_off_c, 0, 78, 64
1, 626204, Note_on_c, 0, 83, 31
1, 626204, Note_off_c, 0, 80, 64
1, 626214, Note_off_c, 0, 86, 63
1, 626215, Note_off_c, 0, 90, 66
1, 626218, Note_on_c, 0, 45, 87
1, 626218, Note_on_c, 0, 57, 117
1, 626221, Note_off_c, 0, 83, 37
1, 626257, Note_on_c, 0, 51, 37
1, 626261, Control_c, 0, 64, 49
1, 626269, Note_off_c, 0, 45, 64
1, 626276, Control_c, 0, 64, 80
1, 626291, Control_c, 0, 64, 101
1, 626293, Note_off_c, 0, 51, 35
1, 626299, Note_off_c, 0, 57, 67
1, 626306, Control_c, 0, 64, 127
1, 626334, Poly_aftertouch_c, 0, 47, 0
1, 626429, Note_on_c, 0, 80, 93
1, 626433, Note_on_c, 0, 92, 80
1, 626434, Note_on_c, 0, 82, 74
1, 626438, Note_on_c, 0, 85, 70
1, 626443, Note_off_c, 0, 80, 70
1, 626450, Note_off_c, 0, 82, 66
1, 626453, Note_on_c, 0, 81, 53
1, 626455, Note_off_c, 0, 85, 67
1, 626456, Note_off_c, 0, 92, 69
1, 626477, Note_off_c, 0, 81, 59
1, 626486, Note_on_c, 0, 80, 88
1, 626498, Note_on_c, 0, 88, 49
1, 626501, Note_on_c, 0, 81, 73
1, 626501, Note_on_c, 0, 92, 87
1, 626503, Note_on_c, 0, 85, 86
1, 626513, Note_on_c, 0, 82, 60
1, 626522, Note_on_c, 0, 90, 55
1, 626539, Note_off_c, 0, 82, 51
1, 626543, Note_off_c, 0, 90, 63
1, 626544, Note_off_c, 0, 81, 66
1, 626545, Note_off_c, 0, 80, 63
1, 626551, Note_on_c, 0, 68, 107
1, 626552, Note_off_c, 0, 92, 66
1, 626553, Note_on_c, 0, 56, 89
1, 626559, Note_off_c, 0, 85, 63
1, 626560, Note_off_c, 0, 88, 65
1, 626588, Note_off_c, 0, 68, 68
1, 626603, Note_off_c, 0, 56, 62
1, 626738, Note_on_c, 0, 42, 73
1, 626738, Note_on_c, 0, 54, 82
1, 626759, Note_on_c, 0, 81, 92
1, 626761, Note_on_c, 0, 90, 78
1, 626763, Note_on_c, 0, 83, 75
1, 626763, Note_off_c, 0, 54, 68
1, 626765, Note_on_c, 0, 93, 73
1, 626766, Note_off_c, 0, 42, 66
1, 626769, Note_on_c, 0, 84, 66
1, 626772, Note_off_c, 0, 81, 74
1, 626777, Note_off_c, 0, 90, 70
1, 626779, Note_off_c, 0, 83, 70
1, 626780, Note_off_c, 0, 93, 69
1, 626786, Note_off_c, 0, 84, 69
1, 626819, Note_on_c, 0, 81, 84
1, 626826, Note_on_c, 0, 93, 94
1, 626830, Note_on_c, 0, 90, 82
1, 626832, Note_on_c, 0, 83, 80
1, 626832, Note_on_c, 0, 84, 81
1, 626843, Note_on_c, 0, 86, 61
1, 626847, Control_c, 0, 64, 93
1, 626852, Note_off_c, 0, 81, 62
1, 626855, Note_off_c, 0, 83, 69
1, 626855, Note_off_c, 0, 84, 70
1, 626861, Note_off_c, 0, 86, 64
1, 626861, Control_c, 0, 64, 63
1, 626865, Note_off_c, 0, 93, 66
1, 626876, Note_off_c, 0, 90, 66
1, 626876, Control_c, 0, 64, 18
1, 626881, Note_on_c, 0, 71, 96
1, 626886, Note_on_c, 0, 59, 91
1, 626892, Control_c, 0, 64, 0
1, 626907, Control_c, 0, 64, 20
1, 626909, Poly_aftertouch_c, 0, 54, 0
1, 626922, Control_c, 0, 64, 52
1, 626937, Control_c, 0, 64, 67
1, 626951, Control_c, 0, 64, 81
1, 626966, Control_c, 0, 64, 107
1, 626981, Control_c, 0, 64, 127
1, 627004, Note_off_c, 0, 71, 61
1, 627034, Note_off_c, 0, 59, 64
1, 627089, Note_on_c, 0, 83, 100
1, 627091, Note_on_c, 0, 92, 88
1, 627096, Note_on_c, 0, 85, 82
1, 627097, Note_on_c, 0, 95, 77
1, 627106, Note_off_c, 0, 83, 67
1, 627110, Note_on_c, 0, 88, 53
1, 627110, Note_off_c, 0, 85, 72
1, 627111, Note_off_c, 0, 95, 70
1, 627112, Note_off_c, 0, 92, 69
1, 627134, Note_off_c, 0, 88, 61
1, 627150, Note_on_c, 0, 83, 61
1, 627163, Note_on_c, 0, 95, 94
1, 627165, Note_on_c, 0, 92, 90
1, 627165, Note_on_c, 0, 85, 99
1, 627181, Note_on_c, 0, 88, 72
1, 627213, Note_off_c, 0, 88, 64
1, 627216, Note_off_c, 0, 83, 66
1, 627222, Note_on_c, 0, 64, 106
1, 627226, Note_on_c, 0, 52, 87
1, 627228, Note_off_c, 0, 85, 65
1, 627228, Note_off_c, 0, 95, 66
1, 627236, Note_off_c, 0, 92, 66
1, 627252, Note_off_c, 0, 52, 67
1, 627261, Note_off_c, 0, 64, 67
1, 627409, Note_on_c, 0, 87, 98
1, 627426, Note_on_c, 0, 97, 69
1, 627428, Note_on_c, 0, 85, 74
1, 627442, Note_off_c, 0, 97, 67
1, 627444, Note_off_c, 0, 87, 69
1, 627446, Note_off_c, 0, 85, 45
1, 627481, Note_on_c, 0, 87, 89
1, 627493, Note_on_c, 0, 97, 93
1, 627494, Note_on_c, 0, 85, 86
1, 627506, Note_on_c, 0, 90, 66
1, 627509, Note_on_c, 0, 93, 68
1, 627512, Note_off_c, 0, 85, 59
1, 627522, Note_on_c, 0, 94, 48
1, 627535, Note_off_c, 0, 90, 67
1, 627542, Note_off_c, 0, 93, 65
1, 627544, Note_off_c, 0, 94, 57
1, 627545, Note_on_c, 0, 76, 107
1, 627545, Note_off_c, 0, 87, 67
1, 627550, Note_on_c, 0, 64, 99
1, 627554, Note_off_c, 0, 97, 65
1, 627584, Note_off_c, 0, 64, 68
1, 627586, Note_off_c, 0, 76, 68
1, 627753, Note_on_c, 0, 98, 89
1, 627754, Note_on_c, 0, 95, 87
1, 627755, Note_on_c, 0, 86, 86
1, 627762, Note_on_c, 0, 92, 67
1, 627768, Note_off_c, 0, 86, 73
1, 627772, Note_off_c, 0, 98, 71
1, 627774, Note_off_c, 0, 95, 72
1, 627776, Note_off_c, 0, 92, 69
1, 627789, Note_on_c, 0, 88, 28
1, 627817, Note_on_c, 0, 95, 95
1, 627818, Note_on_c, 0, 98, 97
1, 627819, Note_on_c, 0, 86, 91
1, 627825, Note_on_c, 0, 92, 95
1, 627830, Note_off_c, 0, 88, 0
1, 627830, Note_on_c, 0, 88, 48
1, 627871, Note_on_c, 0, 93, 33
1, 627879, Note_off_c, 0, 88, 66
1, 627880, Note_off_c, 0, 86, 64
1, 627887, Note_off_c, 0, 92, 65
1, 627893, Note_on_c, 0, 64, 106
1, 627893, Note_off_c, 0, 95, 67
1, 627893, Note_off_c, 0, 98, 64
1, 627897, Note_on_c, 0, 52, 96
1, 627911, Note_off_c, 0, 93, 45
1, 627932, Note_off_c, 0, 52, 67
1, 627936, Note_on_c, 0, 62, 37
1, 627937, Note_off_c, 0, 62, 127
1, 627938, Note_off_c, 0, 64, 68
1, 628127, Note_on_c, 0, 88, 99
1, 628129, Note_on_c, 0, 97, 89
1, 628130, Note_on_c, 0, 100, 88
1, 628131, Note_on_c, 0, 90, 84
1, 628146, Note_on_c, 0, 93, 70
1, 628154, Note_off_c, 0, 90, 67
1, 628157, Note_off_c, 0, 88, 59
1, 628162, Note_off_c, 0, 93, 66
1, 628164, Note_off_c, 0, 100, 62
1, 628174, Note_on_c, 0, 98, 21
1, 628175, Note_off_c, 0, 98, 127
1, 628175, Note_off_c, 0, 97, 65
1, 628210, Note_on_c, 0, 90, 93
1, 628210, Note_on_c, 0, 97, 80
1, 628211, Note_on_c, 0, 100, 97
1, 628215, Note_on_c, 0, 88, 94
1, 628218, Note_on_c, 0, 93, 84
1, 628266, Note_off_c, 0, 88, 62
1, 628274, Note_off_c, 0, 93, 62
1, 628277, Note_off_c, 0, 100, 65
1, 628283, Note_off_c, 0, 90, 67
1, 628294, Note_off_c, 0, 97, 66
1, 628303, Note_on_c, 0, 76, 105
1, 628304, Note_on_c, 0, 64, 93
1, 628343, Note_off_c, 0, 76, 68
1, 628369, Note_off_c, 0, 64, 66
1, 628519, Note_on_c, 0, 92, 82
1, 628524, Note_on_c, 0, 98, 72
1, 628536, Note_on_c, 0, 102, 64
1, 628540, Note_on_c, 0, 90, 56
1, 628548, Note_off_c, 0, 92, 61
1, 628555, Note_off_c, 0, 102, 65
1, 628556, Note_off_c, 0, 98, 61
1, 628560, Note_off_c, 0, 90, 63
1, 628608, Note_on_c, 0, 102, 91
1, 628608, Note_on_c, 0, 92, 85
1, 628618, Note_on_c, 0, 90, 75
1, 628626, Note_on_c, 0, 98, 69
1, 628642, Control_c, 0, 64, 115
1, 628643, Note_off_c, 0, 90, 65
1, 628658, Note_off_c, 0, 92, 66
1, 628662, Note_off_c, 0, 98, 66
1, 628664, Control_c, 0, 64, 57
1, 628668, Note_off_c, 0, 102, 65
1, 628679, Control_c, 0, 64, 0
1, 628711, Note_on_c, 0, 43, 102
1, 628713, Note_on_c, 0, 31, 88
1, 628715, Note_on_c, 0, 103, 108
1, 628717, Note_on_c, 0, 96, 100
1, 628718, Note_on_c, 0, 91, 94
1, 628724, Control_c, 0, 64, 70
1, 628730, Note_off_c, 0, 103, 77
1, 628731, Note_on_c, 0, 38, 60
1, 628735, Note_off_c, 0, 91, 66
1, 628736, Note_off_c, 0, 31, 67
1, 628738, Control_c, 0, 64, 127
1, 628739, Note_on_c, 0, 100, 71
1, 628754, Note_off_c, 0, 96, 69
1, 628757, Note_off_c, 0, 38, 59
1, 628757, Note_off_c, 0, 100, 66
1, 628763, Note_off_c, 0, 43, 66
1, 628783, Note_on_c, 0, 91, 38
1, 628784, Note_off_c, 0, 91, 127
1, 628952, Note_on_c, 0, 47, 69
1, 628957, Note_on_c, 0, 55, 59
1, 628969, Note_on_c, 0, 50, 37
1, 628981, Note_off_c, 0, 47, 67
1, 628993, Note_off_c, 0, 55, 64
1, 629002, Note_off_c, 0, 50, 47
1, 629136, Note_on_c, 0, 51, 17
1, 629136, Control_c, 0, 64, 106
1, 629151, Control_c, 0, 64, 63
1, 629166, Control_c, 0, 64, 0
1, 629172, Note_off_c, 0, 51, 44
1, 629178, Poly_aftertouch_c, 0, 75, 127
1, 629225, Poly_aftertouch_c, 0, 75, 0
1, 629327, Note_on_c, 0, 76, 95
1, 629339, Note_on_c, 0, 57, 73
1, 629341, Note_on_c, 0, 48, 69
1, 629348, Note_on_c, 0, 52, 66
1, 629389, Control_c, 0, 64, 66
1, 629412, Control_c, 0, 64, 73
1, 629427, Control_c, 0, 64, 76
1, 629440, Note_off_c, 0, 48, 56
1, 629441, Control_c, 0, 64, 80
1, 629456, Note_off_c, 0, 52, 60
1, 629456, Control_c, 0, 64, 86
1, 629471, Control_c, 0, 64, 94
1, 629481, Note_off_c, 0, 57, 59
1, 629485, Control_c, 0, 64, 95
1, 629500, Control_c, 0, 64, 92
1, 629515, Control_c, 0, 64, 73
1, 629530, Control_c, 0, 64, 0
1, 629580, Note_on_c, 0, 77, 81
1, 629582, Note_off_c, 0, 76, 63
1, 629620, Note_on_c, 0, 65, 42
1, 629723, Control_c, 0, 64, 56
1, 629738, Control_c, 0, 64, 63
1, 629752, Control_c, 0, 64, 68
1, 629765, Note_off_c, 0, 77, 63
1, 629767, Control_c, 0, 64, 79
1, 629771, Note_on_c, 0, 59, 68
1, 629771, Note_off_c, 0, 65, 53
1, 629777, Note_on_c, 0, 53, 59
1, 629782, Note_on_c, 0, 50, 59
1, 629782, Control_c, 0, 64, 115
1, 629797, Control_c, 0, 64, 127
1, 629812, Note_off_c, 0, 59, 63
1, 629814, Note_off_c, 0, 50, 65
1, 629817, Note_off_c, 0, 53, 61
1, 629942, Note_on_c, 0, 76, 90
1, 629955, Note_on_c, 0, 64, 65
1, 630021, Note_off_c, 0, 64, 62
1, 630024, Note_off_c, 0, 76, 62
1, 630119, Note_on_c, 0, 59, 72
1, 630120, Note_on_c, 0, 74, 88
1, 630120, Note_on_c, 0, 53, 68
1, 630124, Note_on_c, 0, 50, 62
1, 630126, Note_on_c, 0, 62, 82
1, 630158, Note_off_c, 0, 53, 63
1, 630165, Note_off_c, 0, 59, 64
1, 630170, Note_off_c, 0, 50, 66
1, 630224, Note_off_c, 0, 74, 62
1, 630238, Note_off_c, 0, 62, 58
1, 630264, Control_c, 0, 64, 63
1, 630279, Control_c, 0, 64, 0
1, 630310, Note_on_c, 0, 72, 84
1, 630338, Control_c, 0, 64, 80
1, 630353, Control_c, 0, 64, 127
1, 630360, Note_off_c, 0, 72, 64
1, 630403, Note_on_c, 0, 65, 100
1, 630409, Note_on_c, 0, 57, 90
1, 630411, Note_on_c, 0, 60, 86
1, 630427, Control_c, 0, 64, 64
1, 630436, Note_off_c, 0, 60, 67
1, 630438, Note_off_c, 0, 57, 67
1, 630440, Note_off_c, 0, 65, 66
1, 630441, Control_c, 0, 64, 0
1, 630456, Control_c, 0, 64, 17
1, 630472, Control_c, 0, 64, 0
1, 630484, Note_on_c, 0, 64, 97
1, 630489, Note_on_c, 0, 59, 87
1, 630492, Note_on_c, 0, 55, 87
1, 630516, Note_off_c, 0, 59, 69
1, 630519, Note_off_c, 0, 55, 69
1, 630524, Note_off_c, 0, 64, 68
1, 630531, Note_on_c, 0, 57, 13
1, 630561, Control_c, 0, 67, 8
1, 630564, Note_on_c, 0, 62, 99
1, 630573, Note_off_c, 0, 57, 0
1, 630573, Note_on_c, 0, 57, 54
1, 630576, Control_c, 0, 67, 10
1, 630577, Note_on_c, 0, 55, 69
1, 630580, Note_on_c, 0, 53, 73
1, 630591, Control_c, 0, 67, 13
1, 630597, Note_off_c, 0, 55, 64
1, 630602, Note_off_c, 0, 62, 67
1, 630604, Note_off_c, 0, 53, 66
1, 630605, Note_off_c, 0, 57, 66
1, 630605, Control_c, 0, 67, 18
1, 630620, Control_c, 0, 67, 26
1, 630635, Control_c, 0, 67, 41
1, 630644, Note_on_c, 0, 60, 101
1, 630650, Control_c, 0, 67, 54
1, 630656, Note_on_c, 0, 53, 72
1, 630661, Note_on_c, 0, 52, 71
1, 630661, Note_on_c, 0, 55, 74
1, 630665, Control_c, 0, 67, 67
1, 630675, Note_off_c, 0, 53, 66
1, 630679, Note_off_c, 0, 60, 66
1, 630680, Control_c, 0, 67, 80
1, 630685, Note_off_c, 0, 55, 67
1, 630686, Note_off_c, 0, 52, 67
1, 630694, Control_c, 0, 67, 91
1, 630709, Control_c, 0, 67, 97
1, 630724, Control_c, 0, 67, 98
1, 630739, Control_c, 0, 67, 99
1, 630754, Control_c, 0, 67, 101
1, 630769, Control_c, 0, 67, 104
1, 630783, Control_c, 0, 67, 108
1, 630798, Control_c, 0, 67, 110
1, 630813, Control_c, 0, 67, 113
1, 630827, Control_c, 0, 67, 114
1, 630842, Control_c, 0, 67, 116
1, 630857, Control_c, 0, 67, 118
1, 630873, Control_c, 0, 67, 120
1, 630887, Note_on_c, 0, 60, 92
1, 630888, Control_c, 0, 64, 32
1, 630888, Control_c, 0, 67, 123
1, 630898, Note_on_c, 0, 55, 75
1, 630910, Control_c, 0, 64, 65
1, 630910, Control_c, 0, 67, 126
1, 630912, Note_on_c, 0, 52, 68
1, 630920, Note_off_c, 0, 60, 67
1, 630925, Control_c, 0, 64, 66
1, 630925, Control_c, 0, 67, 127
1, 630930, Note_off_c, 0, 55, 64
1, 630932, Note_off_c, 0, 52, 62
1, 630939, Control_c, 0, 67, 127
1, 630954, Control_c, 0, 64, 67
1, 630969, Control_c, 0, 64, 72
1, 630984, Control_c, 0, 64, 77
1, 630999, Control_c, 0, 64, 79
1, 631088, Control_c, 0, 64, 77
1, 631103, Control_c, 0, 64, 69
1, 631118, Control_c, 0, 64, 50
1, 631132, Control_c, 0, 64, 0
1, 631173, Note_on_c, 0, 79, 66
1, 631189, Note_on_c, 0, 67, 43
1, 631339, Control_c, 0, 64, 23
1, 631354, Control_c, 0, 64, 51
1, 631361, Note_on_c, 0, 59, 52
1, 631364, Note_on_c, 0, 55, 46
1, 631367, Note_off_c, 0, 67, 51
1, 631368, Note_on_c, 0, 62, 53
1, 631369, Control_c, 0, 64, 55
1, 631377, Note_off_c, 0, 79, 60
1, 631383, Control_c, 0, 64, 57
1, 631398, Control_c, 0, 64, 61
1, 631410, Note_off_c, 0, 59, 58
1, 631413, Control_c, 0, 64, 65
1, 631421, Note_off_c, 0, 62, 60
1, 631422, Note_off_c, 0, 55, 59
1, 631428, Control_c, 0, 64, 67
1, 631443, Control_c, 0, 64, 67
1, 631502, Control_c, 0, 64, 66
1, 631517, Control_c, 0, 64, 58
1, 631531, Control_c, 0, 64, 0
1, 631532, Note_on_c, 0, 79, 79
1, 631564, Note_on_c, 0, 67, 52
1, 631639, Note_off_c, 0, 67, 0
1, 631684, Poly_aftertouch_c, 0, 67, 127
1, 631717, Note_on_c, 0, 76, 81
1, 631732, Note_on_c, 0, 64, 51
1, 631732, Note_on_c, 0, 60, 50
1, 631735, Note_on_c, 0, 57, 52
1, 631741, Note_off_c, 0, 79, 65
1, 631744, Poly_aftertouch_c, 0, 67, 0
1, 631792, Control_c, 0, 64, 27
1, 631807, Control_c, 0, 64, 39
1, 631822, Control_c, 0, 64, 46
1, 631828, Note_off_c, 0, 60, 57
1, 631836, Control_c, 0, 64, 54
1, 631842, Note_off_c, 0, 57, 59
1, 631851, Control_c, 0, 64, 57
1, 631866, Control_c, 0, 64, 55
1, 631866, Control_c, 0, 67, 126
1, 631872, Note_off_c, 0, 64, 57
1, 631880, Control_c, 0, 64, 35
1, 631880, Control_c, 0, 67, 123
1, 631895, Control_c, 0, 64, 0
1, 631895, Control_c, 0, 67, 124
1, 631910, Note_off_c, 0, 76, 65
1, 631912, Note_on_c, 0, 81, 85
1, 631940, Control_c, 0, 67, 122
1, 631943, Note_on_c, 0, 69, 52
1, 631954, Control_c, 0, 67, 117
1, 631969, Control_c, 0, 67, 113
1, 631984, Control_c, 0, 67, 111
1, 631991, Note_off_c, 0, 69, 0
1, 631991, Note_on_c, 0, 69, 23
1, 631999, Control_c, 0, 67, 110
1, 632014, Control_c, 0, 64, 41
1, 632014, Control_c, 0, 67, 106
1, 632028, Control_c, 0, 64, 59
1, 632028, Control_c, 0, 67, 100
1, 632043, Control_c, 0, 64, 66
1, 632043, Control_c, 0, 67, 92
1, 632058, Control_c, 0, 64, 74
1, 632058, Control_c, 0, 67, 79
1, 632072, Control_c, 0, 64, 88
1, 632072, Control_c, 0, 67, 67
1, 632087, Control_c, 0, 64, 127
1, 632087, Control_c, 0, 67, 58
1, 632102, Control_c, 0, 67, 51
1, 632105, Note_on_c, 0, 65, 56
1, 632114, Note_on_c, 0, 62, 45
1, 632117, Control_c, 0, 67, 44
1, 632121, Note_off_c, 0, 81, 61
1, 632129, Note_on_c, 0, 59, 44
1, 632132, Control_c, 0, 67, 35
1, 632135, Note_off_c, 0, 69, 35
1, 632147, Control_c, 0, 67, 26
1, 632151, Note_off_c, 0, 65, 58
1, 632158, Note_off_c, 0, 62, 53
1, 632161, Control_c, 0, 67, 24
1, 632173, Note_off_c, 0, 59, 48
1, 632176, Control_c, 0, 67, 25
1, 632221, Control_c, 0, 67, 24
1, 632251, Control_c, 0, 64, 78
1, 632266, Control_c, 0, 64, 53
1, 632280, Control_c, 0, 64, 0
1, 632284, Note_on_c, 0, 81, 82
1, 632295, Control_c, 0, 67, 24
1, 632310, Control_c, 0, 67, 20
1, 632325, Control_c, 0, 64, 41
1, 632325, Control_c, 0, 67, 14
1, 632340, Control_c, 0, 64, 63
1, 632340, Control_c, 0, 67, 0
1, 632354, Control_c, 0, 64, 75
1, 632355, Note_on_c, 0, 69, 12
1, 632369, Control_c, 0, 64, 94
1, 632384, Control_c, 0, 64, 127
1, 632412, Note_off_c, 0, 69, 49
1, 632462, Note_on_c, 0, 59, 62
1, 632466, Note_on_c, 0, 65, 61
1, 632468, Note_on_c, 0, 62, 66
1, 632491, Note_off_c, 0, 62, 66
1, 632492, Note_off_c, 0, 59, 66
1, 632495, Note_off_c, 0, 65, 65
1, 632525, Control_c, 0, 64, 85
1, 632540, Control_c, 0, 64, 62
1, 632555, Control_c, 0, 64, 16
1, 632570, Control_c, 0, 64, 0
1, 632617, Note_off_c, 0, 81, 61
1, 632642, Note_on_c, 0, 79, 84
1, 632651, Note_on_c, 0, 67, 73
1, 632689, Control_c, 0, 64, 52
1, 632703, Control_c, 0, 64, 127
1, 632730, Note_on_c, 0, 50, 81
1, 632731, Note_on_c, 0, 43, 85
1, 632733, Note_on_c, 0, 47, 88
1, 632752, Note_off_c, 0, 50, 72
1, 632752, Note_off_c, 0, 43, 69
1, 632760, Note_off_c, 0, 47, 68
1, 632807, Control_c, 0, 64, 102
1, 632808, Note_on_c, 0, 52, 92
1, 632811, Note_on_c, 0, 45, 89
1, 632811, Note_on_c, 0, 48, 88
1, 632821, Control_c, 0, 64, 48
1, 632831, Note_off_c, 0, 48, 68
1, 632834, Note_off_c, 0, 52, 68
1, 632836, Note_off_c, 0, 45, 67
1, 632836, Control_c, 0, 64, 0
1, 632881, Control_c, 0, 67, 9
1, 632882, Note_off_c, 0, 79, 31
1, 632886, Note_on_c, 0, 53, 94
1, 632889, Note_on_c, 0, 47, 80
1, 632890, Note_on_c, 0, 50, 72
1, 632891, Note_off_c, 0, 67, 37
1, 632895, Control_c, 0, 67, 12
1, 632910, Control_c, 0, 67, 16
1, 632916, Note_off_c, 0, 50, 68
1, 632919, Note_off_c, 0, 47, 69
1, 632919, Note_off_c, 0, 53, 62
1, 632924, Note_on_c, 0, 48, 7
1, 632925, Control_c, 0, 67, 24
1, 632940, Control_c, 0, 67, 35
1, 632955, Control_c, 0, 67, 51
1, 632960, Note_on_c, 0, 79, 95
1, 632967, Note_off_c, 0, 48, 0
1, 632967, Note_on_c, 0, 48, 59
1, 632967, Note_on_c, 0, 55, 95
1, 632969, Note_on_c, 0, 52, 85
1, 632969, Control_c, 0, 67, 66
1, 632970, Note_on_c, 0, 67, 76
1, 632984, Control_c, 0, 67, 79
1, 632999, Note_off_c, 0, 52, 66
1, 632999, Control_c, 0, 67, 87
1, 633008, Note_off_c, 0, 48, 66
1, 633012, Note_off_c, 0, 67, 49
1, 633014, Note_off_c, 0, 55, 63
1, 633014, Control_c, 0, 67, 91
1, 633044, Control_c, 0, 67, 91
1, 633074, Control_c, 0, 67, 92
1, 633103, Control_c, 0, 67, 92
1, 633118, Control_c, 0, 67, 93
1, 633128, Note_off_c, 0, 79, 57
1, 633133, Control_c, 0, 67, 95
1, 633155, Control_c, 0, 67, 96
1, 633170, Control_c, 0, 67, 97
1, 633174, Note_on_c, 0, 76, 78
1, 633184, Control_c, 0, 67, 98
1, 633187, Note_on_c, 0, 55, 78
1, 633193, Note_on_c, 0, 52, 66
1, 633193, Note_on_c, 0, 64, 66
1, 633199, Control_c, 0, 67, 100
1, 633202, Note_on_c, 0, 48, 58
1, 633213, Note_off_c, 0, 52, 62
1, 633213, Note_off_c, 0, 55, 66
1, 633214, Control_c, 0, 67, 100
1, 633227, Note_off_c, 0, 48, 56
1, 633258, Note_off_c, 0, 64, 59
1, 633274, Control_c, 0, 67, 101
1, 633289, Control_c, 0, 67, 101
1, 633348, Control_c, 0, 67, 103
1, 633363, Note_off_c, 0, 76, 52
1, 633363, Control_c, 0, 67, 104
1, 633376, Note_on_c, 0, 74, 75
1, 633378, Control_c, 0, 67, 104
1, 633389, Note_on_c, 0, 62, 62
1, 633407, Control_c, 0, 67, 105
1, 633467, Control_c, 0, 67, 104
1, 633482, Control_c, 0, 67, 104
1, 633497, Control_c, 0, 67, 103
1, 633512, Control_c, 0, 67, 102
1, 633527, Control_c, 0, 67, 101
1, 633542, Control_c, 0, 67, 98
1, 633557, Control_c, 0, 67, 97
1, 633571, Control_c, 0, 67, 95
1, 633586, Control_c, 0, 64, 24
1, 633586, Control_c, 0, 67, 92
1, 633587, Note_on_c, 0, 69, 66
1, 633593, Note_on_c, 0, 65, 61
1, 633601, Control_c, 0, 64, 41
1, 633601, Control_c, 0, 67, 88
1, 633616, Control_c, 0, 64, 52
1, 633616, Control_c, 0, 67, 82
1, 633631, Control_c, 0, 64, 60
1, 633631, Control_c, 0, 67, 76
1, 633640, Note_off_c, 0, 65, 60
1, 633646, Control_c, 0, 64, 68
1, 633646, Control_c, 0, 67, 71
1, 633655, Note_off_c, 0, 69, 57
1, 633660, Control_c, 0, 64, 76
1, 633660, Control_c, 0, 67, 67
1, 633666, Note_off_c, 0, 74, 56
1, 633675, Control_c, 0, 64, 86
1, 633675, Control_c, 0, 67, 64
1, 633679, Note_off_c, 0, 62, 54
1, 633690, Control_c, 0, 64, 107
1, 633690, Control_c, 0, 67, 62
1, 633705, Control_c, 0, 64, 127
1, 633719, Control_c, 0, 67, 63
1, 633734, Control_c, 0, 67, 63
1, 633749, Control_c, 0, 67, 65
1, 633764, Control_c, 0, 67, 67
1, 633774, Note_on_c, 0, 74, 82
1, 633779, Control_c, 0, 64, 79
1, 633779, Control_c, 0, 67, 69
1, 633789, Note_on_c, 0, 62, 61
1, 633793, Control_c, 0, 64, 57
1, 633793, Control_c, 0, 67, 70
1, 633808, Control_c, 0, 64, 0
1, 633867, Control_c, 0, 67, 70
1, 633882, Control_c, 0, 67, 69
1, 633920, Control_c, 0, 67, 69
1, 633934, Control_c, 0, 67, 67
1, 633949, Control_c, 0, 67, 66
1, 633955, Note_on_c, 0, 76, 89
1, 633959, Note_on_c, 0, 67, 70
1, 633964, Control_c, 0, 67, 65
1, 633977, Note_on_c, 0, 64, 60
1, 633979, Control_c, 0, 67, 66
1, 633983, Note_on_c, 0, 60, 55
1, 633994, Control_c, 0, 67, 65
1, 633998, Note_off_c, 0, 74, 63
1, 634008, Control_c, 0, 67, 64
1, 634023, Control_c, 0, 67, 63
1, 634032, Note_off_c, 0, 62, 40
1, 634038, Control_c, 0, 67, 63
1, 634053, Note_off_c, 0, 64, 57
1, 634067, Note_off_c, 0, 67, 49
1, 634083, Control_c, 0, 67, 63
1, 634100, Note_off_c, 0, 60, 62
1, 634143, Control_c, 0, 67, 64
1, 634149, Note_on_c, 0, 74, 81
1, 634157, Control_c, 0, 67, 65
1, 634161, Note_on_c, 0, 62, 57
1, 634172, Control_c, 0, 67, 67
1, 634178, Note_off_c, 0, 76, 65
1, 634187, Control_c, 0, 67, 67
1, 634202, Control_c, 0, 64, 20
1, 634202, Control_c, 0, 67, 67
1, 634217, Control_c, 0, 64, 46
1, 634231, Control_c, 0, 64, 52
1, 634231, Control_c, 0, 67, 66
1, 634243, Note_off_c, 0, 62, 0
1, 634243, Note_on_c, 0, 62, 20
1, 634246, Control_c, 0, 64, 58
1, 634246, Control_c, 0, 67, 65
1, 634261, Control_c, 0, 64, 63
1, 634275, Control_c, 0, 64, 68
1, 634290, Control_c, 0, 64, 77
1, 634290, Control_c, 0, 67, 64
1, 634305, Control_c, 0, 64, 91
1, 634305, Control_c, 0, 67, 63
1, 634312, Note_off_c, 0, 62, 0
1, 634320, Control_c, 0, 64, 120
1, 634332, Note_on_c, 0, 62, 52
1, 634335, Note_on_c, 0, 65, 76
1, 634335, Control_c, 0, 64, 127
1, 634339, Note_on_c, 0, 59, 67
1, 634343, Note_off_c, 0, 74, 61
1, 634349, Control_c, 0, 67, 64
1, 634364, Control_c, 0, 67, 64
1, 634379, Note_off_c, 0, 62, 65
1, 634379, Control_c, 0, 67, 65
1, 634385, Note_off_c, 0, 59, 61
1, 634385, Note_off_c, 0, 65, 54
1, 634409, Control_c, 0, 67, 67
1, 634424, Control_c, 0, 67, 69
1, 634439, Control_c, 0, 67, 70
1, 634468, Control_c, 0, 67, 70
1, 634483, Control_c, 0, 64, 95
1, 634483, Control_c, 0, 67, 71
1, 634498, Control_c, 0, 64, 65
1, 634498, Control_c, 0, 67, 72
1, 634513, Note_on_c, 0, 72, 71
1, 634513, Control_c, 0, 64, 25
1, 634528, Control_c, 0, 64, 0
1, 634542, Control_c, 0, 67, 72
1, 634544, Note_on_c, 0, 60, 39
1, 634557, Control_c, 0, 67, 71
1, 634572, Control_c, 0, 64, 39
1, 634582, Note_off_c, 0, 60, 49
1, 634587, Control_c, 0, 64, 59
1, 634602, Control_c, 0, 64, 68
1, 634617, Control_c, 0, 64, 77
1, 634631, Control_c, 0, 64, 84
1, 634653, Control_c, 0, 64, 87
1, 634653, Control_c, 0, 67, 72
1, 634674, Note_on_c, 0, 59, 60
1, 634677, Note_on_c, 0, 71, 78
1, 634698, Control_c, 0, 64, 86
1, 634698, Control_c, 0, 67, 72
1, 634698, Note_on_c, 0, 62, 58
1, 634704, Note_off_c, 0, 72, 59
1, 634713, Control_c, 0, 64, 84
1, 634721, Note_off_c, 0, 62, 62
1, 634728, Control_c, 0, 64, 74
1, 634728, Control_c, 0, 67, 73
1, 634743, Control_c, 0, 64, 59
1, 634743, Control_c, 0, 67, 73
1, 634743, Note_off_c, 0, 59, 59
1, 634757, Control_c, 0, 64, 0
1, 634787, Control_c, 0, 67, 71
1, 634801, Control_c, 0, 67, 70
1, 634816, Control_c, 0, 67, 67
1, 634831, Control_c, 0, 67, 64
1, 634846, Control_c, 0, 67, 58
1, 634861, Control_c, 0, 67, 46
1, 634877, Control_c, 0, 64, 80
1, 634877, Control_c, 0, 67, 17
1, 634879, Note_on_c, 0, 69, 80
1, 634886, Note_off_c, 0, 71, 64
1, 634892, Control_c, 0, 64, 127
1, 634892, Control_c, 0, 67, 0
1, 634950, Note_on_c, 0, 47, 92
1, 634953, Note_on_c, 0, 52, 86
1, 634954, Note_on_c, 0, 55, 76
1, 634970, Note_off_c, 0, 47, 69
1, 634979, Note_off_c, 0, 52, 68
1, 634981, Note_off_c, 0, 55, 65
1, 634995, Control_c, 0, 64, 83
1, 635010, Control_c, 0, 64, 0
1, 635025, Control_c, 0, 64, 13
1, 635029, Note_on_c, 0, 53, 88
1, 635032, Note_on_c, 0, 45, 81
1, 635035, Note_on_c, 0, 50, 78
1, 635040, Control_c, 0, 64, 0
1, 635049, Note_off_c, 0, 53, 67
1, 635053, Note_off_c, 0, 50, 66
1, 635055, Note_off_c, 0, 45, 65
1, 635100, Note_on_c, 0, 52, 79
1, 635104, Note_on_c, 0, 43, 93
1, 635105, Note_on_c, 0, 48, 91
1, 635113, Control_c, 0, 67, 11
1, 635128, Control_c, 0, 67, 16
1, 635131, Note_off_c, 0, 48, 68
1, 635133, Note_off_c, 0, 43, 68
1, 635138, Note_off_c, 0, 52, 64
1, 635143, Control_c, 0, 67, 20
1, 635158, Control_c, 0, 67, 20
1, 635172, Control_c, 0, 67, 22
1, 635185, Note_on_c, 0, 50, 93
1, 635185, Note_on_c, 0, 67, 87
1, 635187, Control_c, 0, 67, 26
1, 635190, Note_on_c, 0, 47, 86
1, 635191, Note_off_c, 0, 69, 66
1, 635192, Note_on_c, 0, 41, 86
1, 635202, Control_c, 0, 67, 33
1, 635214, Note_off_c, 0, 41, 67
1, 635215, Note_off_c, 0, 47, 70
1, 635215, Note_off_c, 0, 50, 67
1, 635217, Control_c, 0, 67, 43
1, 635232, Control_c, 0, 67, 55
1, 635247, Control_c, 0, 67, 63
1, 635262, Control_c, 0, 67, 69
1, 635276, Control_c, 0, 67, 73
1, 635291, Control_c, 0, 67, 76
1, 635306, Control_c, 0, 67, 78
1, 635321, Control_c, 0, 67, 79
1, 635336, Control_c, 0, 67, 82
1, 635351, Control_c, 0, 67, 85
1, 635365, Control_c, 0, 67, 89
1, 635380, Control_c, 0, 67, 91
1, 635402, Control_c, 0, 67, 92
1, 635431, Control_c, 0, 67, 92
1, 635446, Control_c, 0, 67, 93
1, 635448, Note_on_c, 0, 50, 87
1, 635456, Note_on_c, 0, 41, 72
1, 635461, Control_c, 0, 67, 94
1, 635462, Note_on_c, 0, 47, 56
1, 635470, Note_off_c, 0, 50, 69
1, 635476, Control_c, 0, 67, 94
1, 635479, Note_off_c, 0, 41, 62
1, 635491, Note_off_c, 0, 47, 36
1, 635506, Control_c, 0, 67, 94
1, 635521, Control_c, 0, 67, 93
1, 635551, Control_c, 0, 67, 94
1, 635566, Control_c, 0, 67, 95
1, 635610, Control_c, 0, 67, 95
1, 635624, Control_c, 0, 67, 96
1, 635639, Control_c, 0, 67, 97
1, 635644, Note_off_c, 0, 67, 63
1, 635654, Control_c, 0, 67, 98
1, 635655, Note_on_c, 0, 72, 82
1, 635670, Control_c, 0, 67, 99
1, 635673, Note_on_c, 0, 60, 57
1, 635685, Control_c, 0, 67, 102
1, 635700, Control_c, 0, 67, 104
1, 635714, Control_c, 0, 67, 105
1, 635728, Control_c, 0, 67, 105
1, 635743, Control_c, 0, 67, 106
1, 635817, Control_c, 0, 67, 105
1, 635832, Control_c, 0, 67, 104
1, 635846, Control_c, 0, 67, 102
1, 635861, Control_c, 0, 64, 43
1, 635861, Control_c, 0, 67, 101
1, 635864, Note_off_c, 0, 60, 0
1, 635867, Note_on_c, 0, 65, 65
1, 635874, Note_on_c, 0, 57, 66
1, 635876, Control_c, 0, 64, 49
1, 635876, Control_c, 0, 67, 100
1, 635885, Note_on_c, 0, 60, 22
1, 635891, Control_c, 0, 64, 53
1, 635891, Control_c, 0, 67, 98
1, 635903, Note_off_c, 0, 65, 62
1, 635906, Control_c, 0, 64, 58
1, 635906, Control_c, 0, 67, 97
1, 635913, Note_off_c, 0, 57, 66
1, 635920, Poly_aftertouch_c, 0, 61, 0
1, 635920, Control_c, 0, 64, 64
1, 635920, Control_c, 0, 67, 96
1, 635921, Note_off_c, 0, 60, 48
1, 635935, Control_c, 0, 64, 68
1, 635935, Control_c, 0, 67, 97
1, 635950, Note_off_c, 0, 72, 58
1, 635950, Control_c, 0, 64, 71
1, 635950, Control_c, 0, 67, 99
1, 635965, Control_c, 0, 64, 72
1, 635965, Control_c, 0, 67, 99
1, 635980, Control_c, 0, 67, 100
1, 635995, Control_c, 0, 64, 71
1, 635995, Control_c, 0, 67, 103
1, 636010, Control_c, 0, 64, 64
1, 636010, Control_c, 0, 67, 104
1, 636025, Control_c, 0, 64, 44
1, 636025, Control_c, 0, 67, 105
1, 636039, Control_c, 0, 64, 0
1, 636039, Control_c, 0, 67, 106
1, 636049, Note_on_c, 0, 72, 80
1, 636054, Control_c, 0, 67, 107
1, 636069, Note_on_c, 0, 60, 38
1, 636069, Control_c, 0, 67, 108
1, 636084, Control_c, 0, 67, 109
1, 636099, Control_c, 0, 67, 109
1, 636128, Control_c, 0, 67, 109
1, 636143, Note_off_c, 0, 60, 38
1, 636150, Control_c, 0, 67, 108
1, 636165, Control_c, 0, 67, 107
1, 636195, Control_c, 0, 67, 106
1, 636210, Control_c, 0, 67, 104
1, 636224, Note_on_c, 0, 64, 69
1, 636224, Control_c, 0, 67, 102
1, 636226, Note_on_c, 0, 55, 67
1, 636239, Control_c, 0, 67, 101
1, 636245, Note_on_c, 0, 59, 49
1, 636257, Note_off_c, 0, 64, 65
1, 636261, Note_off_c, 0, 55, 63
1, 636269, Control_c, 0, 67, 101
1, 636270, Note_off_c, 0, 59, 58
1, 636299, Control_c, 0, 64, 23
1, 636299, Control_c, 0, 67, 102
1, 636314, Control_c, 0, 64, 0
1, 636328, Control_c, 0, 67, 104
1, 636343, Control_c, 0, 67, 106
1, 636358, Control_c, 0, 67, 106
1, 636373, Control_c, 0, 67, 107
1, 636388, Control_c, 0, 67, 107
1, 636397, Note_off_c, 0, 72, 61
1, 636414, Note_on_c, 0, 71, 77
1, 636417, Control_c, 0, 67, 108
1, 636421, Note_on_c, 0, 59, 42
1, 636461, Control_c, 0, 67, 106
1, 636477, Control_c, 0, 67, 103
1, 636492, Control_c, 0, 67, 103
1, 636522, Control_c, 0, 67, 102
1, 636537, Control_c, 0, 67, 100
1, 636551, Control_c, 0, 67, 98
1, 636566, Control_c, 0, 67, 96
1, 636581, Control_c, 0, 67, 97
1, 636598, Note_on_c, 0, 62, 73
1, 636608, Note_on_c, 0, 53, 62
1, 636609, Note_on_c, 0, 57, 63
1, 636611, Control_c, 0, 64, 15
1, 636621, Note_off_c, 0, 59, 17
1, 636624, Note_off_c, 0, 62, 67
1, 636625, Control_c, 0, 64, 24
1, 636630, Note_off_c, 0, 57, 64
1, 636636, Note_off_c, 0, 53, 64
1, 636640, Control_c, 0, 64, 25
1, 636640, Control_c, 0, 67, 98
1, 636655, Control_c, 0, 64, 22
1, 636655, Control_c, 0, 67, 100
1, 636669, Control_c, 0, 64, 0
1, 636669, Control_c, 0, 67, 101
1, 636684, Control_c, 0, 67, 103
1, 636699, Control_c, 0, 67, 104
1, 636714, Control_c, 0, 67, 105
1, 636743, Control_c, 0, 67, 104
1, 636758, Control_c, 0, 67, 102
1, 636773, Control_c, 0, 67, 102
1, 636777, Note_on_c, 0, 69, 76
1, 636780, Note_on_c, 0, 57, 48
1, 636788, Control_c, 0, 67, 101
1, 636797, Note_off_c, 0, 71, 60
1, 636803, Control_c, 0, 64, 34
1, 636803, Control_c, 0, 67, 100
1, 636818, Control_c, 0, 64, 35
1, 636818, Control_c, 0, 67, 98
1, 636824, Note_off_c, 0, 57, 66
1, 636833, Control_c, 0, 64, 30
1, 636833, Control_c, 0, 67, 96
1, 636847, Control_c, 0, 64, 17
1, 636847, Control_c, 0, 67, 93
1, 636862, Control_c, 0, 64, 0
1, 636862, Control_c, 0, 67, 91
1, 636877, Control_c, 0, 67, 91
1, 636899, Control_c, 0, 67, 90
1, 636914, Control_c, 0, 67, 89
1, 636929, Control_c, 0, 67, 85
1, 636943, Control_c, 0, 67, 80
1, 636958, Control_c, 0, 67, 76
1, 636961, Note_on_c, 0, 62, 80
1, 636967, Note_on_c, 0, 53, 68
1, 636967, Note_on_c, 0, 57, 66
1, 636973, Control_c, 0, 67, 73
1, 636987, Note_off_c, 0, 62, 67
1, 636988, Control_c, 0, 67, 72
1, 636993, Note_off_c, 0, 57, 65
1, 636994, Note_off_c, 0, 53, 65
1, 637003, Control_c, 0, 67, 71
1, 637017, Control_c, 0, 67, 69
1, 637032, Control_c, 0, 67, 65
1, 637047, Control_c, 0, 67, 58
1, 637062, Control_c, 0, 67, 54
1, 637077, Control_c, 0, 67, 50
1, 637092, Control_c, 0, 67, 47
1, 637107, Control_c, 0, 67, 43
1, 637122, Control_c, 0, 67, 38
1, 637131, Note_off_c, 0, 69, 63
1, 637137, Control_c, 0, 67, 28
1, 637140, Note_on_c, 0, 67, 81
1, 637151, Control_c, 0, 64, 35
1, 637151, Control_c, 0, 67, 16
1, 637166, Control_c, 0, 64, 56
1, 637166, Control_c, 0, 67, 0
1, 637181, Control_c, 0, 64, 61
1, 637195, Control_c, 0, 64, 63
1, 637211, Control_c, 0, 64, 64
1, 637236, Note_on_c, 0, 52, 85
1, 637237, Note_on_c, 0, 55, 80
1, 637237, Note_on_c, 0, 60, 76
1, 637244, Note_off_c, 0, 67, 52
1, 637256, Control_c, 0, 64, 61
1, 637259, Note_on_c, 0, 69, 51
1, 637259, Note_off_c, 0, 60, 66
1, 637260, Note_off_c, 0, 52, 68
1, 637262, Note_off_c, 0, 55, 65
1, 637271, Control_c, 0, 64, 51
1, 637285, Note_on_c, 0, 71, 60
1, 637286, Control_c, 0, 64, 22
1, 637301, Control_c, 0, 64, 0
1, 637307, Note_off_c, 0, 69, 64
1, 637316, Note_on_c, 0, 62, 91
1, 637318, Note_on_c, 0, 72, 55
1, 637321, Note_on_c, 0, 53, 81
1, 637321, Note_on_c, 0, 57, 81
1, 637339, Note_off_c, 0, 62, 70
1, 637348, Note_off_c, 0, 57, 67
1, 637349, Note_off_c, 0, 53, 67
1, 637357, Note_off_c, 0, 71, 61
1, 637368, Note_on_c, 0, 74, 66
1, 637398, Note_off_c, 0, 72, 63
1, 637399, Note_on_c, 0, 64, 97
1, 637403, Note_on_c, 0, 55, 74
1, 637405, Note_on_c, 0, 59, 80
1, 637416, Note_on_c, 0, 76, 59
1, 637420, Note_off_c, 0, 64, 69
1, 637420, Note_off_c, 0, 59, 71
1, 637429, Note_off_c, 0, 55, 66
1, 637438, Note_off_c, 0, 74, 65
1, 637453, Note_on_c, 0, 77, 74
1, 637476, Note_off_c, 0, 76, 65
1, 637485, Note_on_c, 0, 79, 74
1, 637487, Note_on_c, 0, 65, 103
1, 637489, Note_on_c, 0, 57, 74
1, 637490, Note_on_c, 0, 60, 80
1, 637504, Note_off_c, 0, 77, 67
1, 637514, Note_off_c, 0, 60, 66
1, 637517, Note_off_c, 0, 65, 60
1, 637518, Note_on_c, 0, 81, 71
1, 637522, Note_off_c, 0, 57, 66
1, 637533, Note_off_c, 0, 79, 63
1, 637546, Note_on_c, 0, 83, 72
1, 637562, Note_off_c, 0, 81, 64
1, 637568, Note_on_c, 0, 84, 79
1, 637581, Note_off_c, 0, 83, 66
1, 637590, Note_on_c, 0, 86, 79
1, 637605, Note_off_c, 0, 84, 66
1, 637612, Note_on_c, 0, 88, 78
1, 637628, Note_off_c, 0, 86, 65
1, 637634, Note_on_c, 0, 89, 83
1, 637666, Note_off_c, 0, 88, 66
1, 637667, Note_on_c, 0, 91, 76
1, 637677, Note_on_c, 0, 57, 69
1, 637681, Note_on_c, 0, 65, 74
1, 637683, Note_on_c, 0, 60, 54
1, 637691, Note_off_c, 0, 89, 65
1, 637693, Note_on_c, 0, 93, 77
1, 637715, Note_off_c, 0, 91, 66
1, 637720, Note_on_c, 0, 95, 76
1, 637722, Note_off_c, 0, 60, 55
1, 637738, Note_off_c, 0, 93, 67
1, 637747, Note_on_c, 0, 96, 80
1, 637760, Note_off_c, 0, 65, 48
1, 637760, Note_off_c, 0, 95, 65
1, 637769, Note_on_c, 0, 98, 86
1, 637776, Note_off_c, 0, 96, 59
1, 637791, Note_on_c, 0, 100, 87
1, 637793, Note_off_c, 0, 98, 67
1, 637807, Note_off_c, 0, 57, 26
1, 637813, Note_on_c, 0, 101, 86
1, 637825, Note_off_c, 0, 100, 59
1, 637834, Note_off_c, 0, 101, 69
1, 637885, Note_on_c, 0, 103, 101
1, 637891, Note_on_c, 0, 67, 83
1, 637915, Control_c, 0, 64, 18
1, 637923, Note_off_c, 0, 103, 68
1, 637930, Control_c, 0, 64, 72
1, 637936, Note_off_c, 0, 67, 65
1, 637945, Control_c, 0, 64, 122
1, 637960, Control_c, 0, 64, 127
1, 638190, Note_on_c, 0, 55, 63
1, 638194, Note_on_c, 0, 47, 63
1, 638198, Note_on_c, 0, 50, 57
1, 638235, Note_off_c, 0, 55, 59
1, 638237, Note_off_c, 0, 50, 61
1, 638240, Note_off_c, 0, 47, 59
1, 638563, Note_on_c, 0, 100, 103
1, 638569, Note_on_c, 0, 88, 91
1, 638573, Note_on_c, 0, 64, 69
1, 638576, Note_on_c, 0, 57, 58
1, 638585, Note_on_c, 0, 52, 61
1, 638594, Note_on_c, 0, 48, 57
1, 638657, Note_off_c, 0, 57, 63
1, 638673, Note_off_c, 0, 48, 53
1, 638676, Note_off_c, 0, 64, 62
1, 638703, Note_off_c, 0, 52, 58
1, 638710, Note_off_c, 0, 88, 63
1, 638768, Control_c, 0, 64, 94
1, 638770, Note_on_c, 0, 101, 100
1, 638777, Note_on_c, 0, 89, 84
1, 638783, Control_c, 0, 64, 50
1, 638788, Note_on_c, 0, 65, 80
1, 638797, Control_c, 0, 64, 0
1, 638800, Note_off_c, 0, 100, 59
1, 638887, Control_c, 0, 64, 31
1, 638902, Control_c, 0, 64, 75
1, 638917, Control_c, 0, 64, 114
1, 638928, Note_off_c, 0, 89, 64
1, 638932, Control_c, 0, 64, 127
1, 638934, Note_off_c, 0, 101, 66
1, 638961, Note_on_c, 0, 53, 56
1, 638966, Note_on_c, 0, 59, 54
1, 638967, Note_on_c, 0, 50, 64
1, 639011, Note_off_c, 0, 59, 61
1, 639024, Note_off_c, 0, 50, 57
1, 639028, Note_off_c, 0, 65, 58
1, 639042, Note_off_c, 0, 53, 57
1, 639146, Note_on_c, 0, 100, 97
1, 639153, Note_on_c, 0, 64, 70
1, 639157, Note_on_c, 0, 88, 86
1, 639218, Note_off_c, 0, 64, 60
1, 639231, Note_off_c, 0, 88, 52
1, 639292, Note_off_c, 0, 100, 66
1, 639317, Note_on_c, 0, 98, 97
1, 639320, Note_on_c, 0, 62, 77
1, 639322, Note_on_c, 0, 59, 69
1, 639328, Note_on_c, 0, 86, 86
1, 639344, Note_on_c, 0, 53, 35
1, 639357, Note_on_c, 0, 50, 44
1, 639357, Note_off_c, 0, 59, 61
1, 639382, Note_off_c, 0, 53, 44
1, 639387, Note_off_c, 0, 62, 61
1, 639393, Note_off_c, 0, 50, 52
1, 639398, Note_off_c, 0, 86, 55
1, 639487, Note_on_c, 0, 60, 73
1, 639491, Note_on_c, 0, 84, 93
1, 639492, Note_on_c, 0, 96, 86
1, 639506, Note_on_c, 0, 50, 56
1, 639507, Note_off_c, 0, 98, 55
1, 639512, Note_off_c, 0, 96, 71
1, 639513, Note_off_c, 0, 60, 64
1, 639515, Note_off_c, 0, 84, 68
1, 639531, Note_off_c, 0, 50, 59
1, 639677, Note_on_c, 0, 53, 87
1, 639681, Note_on_c, 0, 45, 79
1, 639682, Note_on_c, 0, 48, 82
1, 639685, Note_on_c, 0, 65, 98
1, 639688, Note_on_c, 0, 57, 98
1, 639690, Note_on_c, 0, 60, 84
1, 639701, Note_off_c, 0, 57, 74
1, 639701, Note_off_c, 0, 65, 74
1, 639703, Note_off_c, 0, 48, 68
1, 639704, Note_off_c, 0, 45, 68
1, 639704, Note_off_c, 0, 53, 66
1, 639709, Note_off_c, 0, 60, 65
1, 639751, Note_on_c, 0, 65, 50
1, 639752, Note_off_c, 0, 65, 127
1, 639765, Note_on_c, 0, 52, 86
1, 639766, Note_on_c, 0, 53, 73
1, 639766, Note_on_c, 0, 57, 37
1, 639767, Note_on_c, 0, 47, 83
1, 639767, Note_on_c, 0, 48, 70
1, 639771, Note_on_c, 0, 43, 78
1, 639772, Note_on_c, 0, 45, 70
1, 639782, Note_on_c, 0, 60, 30
1, 639785, Note_off_c, 0, 57, 61
1, 639788, Note_off_c, 0, 47, 69
1, 639791, Note_off_c, 0, 52, 67
1, 639791, Note_off_c, 0, 53, 66
1, 639793, Note_off_c, 0, 48, 67
1, 639795, Note_off_c, 0, 43, 66
1, 639796, Note_off_c, 0, 45, 65
1, 639810, Note_off_c, 0, 60, 55
1, 639852, Note_on_c, 0, 45, 84
1, 639857, Note_on_c, 0, 50, 86
1, 639864, Note_on_c, 0, 41, 73
1, 639867, Note_on_c, 0, 48, 64
1, 639889, Note_off_c, 0, 45, 68
1, 639893, Note_off_c, 0, 50, 69
1, 639899, Note_off_c, 0, 41, 65
1, 639899, Note_off_c, 0, 48, 66
1, 639921, Note_on_c, 0, 60, 85
1, 639927, Note_on_c, 0, 52, 70
1, 639928, Note_on_c, 0, 55, 85
1, 639942, Note_on_c, 0, 45, 84
1, 639944, Note_on_c, 0, 50, 89
1, 639945, Note_off_c, 0, 52, 67
1, 639947, Note_off_c, 0, 60, 68
1, 639952, Note_off_c, 0, 55, 69
1, 639956, Note_on_c, 0, 41, 70
1, 639957, Note_on_c, 0, 43, 63
1, 639958, Note_on_c, 0, 40, 72
1, 639962, Note_on_c, 0, 48, 63
1, 639968, Control_c, 0, 64, 73
1, 639971, Note_off_c, 0, 45, 68
1, 639976, Note_off_c, 0, 50, 63
1, 639977, Note_off_c, 0, 43, 64
1, 639980, Note_off_c, 0, 40, 62
1, 639981, Note_off_c, 0, 48, 39
1, 639983, Control_c, 0, 64, 34
1, 639984, Note_off_c, 0, 41, 64
1, 639998, Control_c, 0, 64, 0
1, 640126, Note_on_c, 0, 48, 75
1, 640129, Note_on_c, 0, 43, 66
1, 640133, Note_on_c, 0, 40, 65
1, 640151, Note_off_c, 0, 48, 67
1, 640152, Note_off_c, 0, 43, 66
1, 640161, Note_off_c, 0, 40, 62
1, 640365, Note_on_c, 0, 103, 79
1, 640368, Control_c, 0, 64, 29
1, 640375, Note_on_c, 0, 67, 70
1, 640383, Note_on_c, 0, 91, 67
1, 640383, Control_c, 0, 64, 44
1, 640398, Control_c, 0, 64, 53
1, 640413, Control_c, 0, 64, 59
1, 640426, Note_off_c, 0, 91, 56
1, 640427, Control_c, 0, 64, 63
1, 640438, Note_off_c, 0, 103, 66
1, 640442, Control_c, 0, 64, 65
1, 640458, Control_c, 0, 64, 68
1, 640473, Control_c, 0, 64, 74
1, 640474, Note_off_c, 0, 67, 51
1, 640488, Control_c, 0, 64, 81
1, 640503, Control_c, 0, 64, 88
1, 640517, Control_c, 0, 64, 93
1, 640532, Control_c, 0, 64, 97
1, 640547, Control_c, 0, 64, 102
1, 640560, Note_on_c, 0, 62, 58
1, 640562, Control_c, 0, 64, 110
1, 640574, Note_on_c, 0, 59, 53
1, 640575, Note_on_c, 0, 55, 54
1, 640577, Control_c, 0, 64, 127
1, 640623, Note_off_c, 0, 59, 52
1, 640624, Note_off_c, 0, 55, 54
1, 640646, Note_off_c, 0, 62, 42
1, 640767, Note_on_c, 0, 103, 90
1, 640772, Note_on_c, 0, 67, 55
1, 640797, Note_on_c, 0, 91, 50
1, 640821, Note_off_c, 0, 91, 59
1, 640864, Note_off_c, 0, 67, 57
1, 640868, Note_off_c, 0, 103, 67
1, 640940, Control_c, 0, 64, 100
1, 640943, Note_on_c, 0, 100, 99
1, 640950, Note_on_c, 0, 64, 62
1, 640955, Control_c, 0, 64, 74
1, 640958, Note_on_c, 0, 60, 59
1, 640960, Note_on_c, 0, 57, 59
1, 640967, Note_on_c, 0, 88, 65
1, 640970, Control_c, 0, 64, 51
1, 640984, Control_c, 0, 64, 0
1, 641000, Note_off_c, 0, 88, 61
1, 641072, Note_off_c, 0, 57, 48
1, 641080, Note_off_c, 0, 100, 66
1, 641104, Note_off_c, 0, 60, 56
1, 641113, Note_off_c, 0, 64, 50
1, 641120, Note_on_c, 0, 105, 102
1, 641125, Note_on_c, 0, 69, 78
1, 641127, Note_on_c, 0, 93, 88
1, 641191, Control_c, 0, 64, 44
1, 641206, Control_c, 0, 64, 66
1, 641221, Control_c, 0, 64, 79
1, 641235, Control_c, 0, 64, 127
1, 641240, Note_off_c, 0, 93, 53
1, 641244, Note_off_c, 0, 105, 64
1, 641315, Note_on_c, 0, 59, 60
1, 641316, Note_on_c, 0, 65, 61
1, 641319, Note_on_c, 0, 62, 61
1, 641390, Note_off_c, 0, 69, 29
1, 641406, Note_off_c, 0, 59, 61
1, 641411, Note_off_c, 0, 62, 61
1, 641417, Note_off_c, 0, 65, 45
1, 641489, Note_on_c, 0, 105, 94
1, 641499, Note_on_c, 0, 93, 83
1, 641501, Note_on_c, 0, 69, 77
1, 641575, Note_off_c, 0, 69, 58
1, 641627, Note_off_c, 0, 93, 54
1, 641677, Note_on_c, 0, 59, 63
1, 641680, Note_on_c, 0, 65, 59
1, 641691, Note_on_c, 0, 62, 55
1, 641731, Note_off_c, 0, 62, 58
1, 641742, Note_off_c, 0, 65, 51
1, 641773, Note_off_c, 0, 105, 56
1, 641783, Note_off_c, 0, 59, 56
1, 641861, Note_on_c, 0, 103, 93
1, 641862, Note_on_c, 0, 91, 94
1, 641863, Note_on_c, 0, 67, 69
1, 641882, Note_off_c, 0, 103, 70
1, 641888, Note_off_c, 0, 67, 67
1, 641901, Note_off_c, 0, 91, 66
1, 642049, Note_on_c, 0, 47, 84
1, 642053, Note_on_c, 0, 50, 76
1, 642060, Note_on_c, 0, 62, 96
1, 642061, Note_on_c, 0, 43, 60
1, 642067, Note_on_c, 0, 59, 79
1, 642076, Note_off_c, 0, 47, 67
1, 642081, Note_off_c, 0, 50, 67
1, 642081, Note_off_c, 0, 62, 69
1, 642084, Note_off_c, 0, 59, 67
1, 642087, Note_off_c, 0, 43, 58
1, 642144, Note_on_c, 0, 45, 58
1, 642146, Note_on_c, 0, 48, 92
1, 642147, Note_on_c, 0, 52, 88
1, 642171, Note_off_c, 0, 48, 68
1, 642176, Note_off_c, 0, 52, 67
1, 642183, Note_off_c, 0, 45, 66
1, 642232, Poly_aftertouch_c, 0, 62, 0
1, 642239, Note_on_c, 0, 53, 86
1, 642241, Note_on_c, 0, 47, 79
1, 642267, Note_off_c, 0, 47, 68
1, 642268, Note_off_c, 0, 53, 64
1, 642303, Control_c, 0, 64, 79
1, 642318, Control_c, 0, 64, 51
1, 642327, Note_on_c, 0, 55, 96
1, 642330, Note_on_c, 0, 103, 98
1, 642333, Control_c, 0, 64, 0
1, 642336, Note_on_c, 0, 91, 90
1, 642352, Note_on_c, 0, 48, 42
1, 642353, Note_off_c, 0, 55, 67
1, 642356, Note_on_c, 0, 50, 42
1, 642368, Note_on_c, 0, 101, 42
1, 642369, Note_off_c, 0, 101, 127
1, 642376, Note_off_c, 0, 48, 34
1, 642379, Note_off_c, 0, 91, 63
1, 642389, Note_off_c, 0, 50, 34
1, 642487, Note_off_c, 0, 103, 60
1, 642523, Note_on_c, 0, 100, 90
1, 642532, Note_on_c, 0, 88, 78
1, 642543, Note_on_c, 0, 64, 53
1, 642574, Note_off_c, 0, 88, 60
1, 642576, Note_on_c, 0, 65, 19
1, 642618, Note_off_c, 0, 65, 29
1, 642721, Note_on_c, 0, 98, 87
1, 642725, Note_off_c, 0, 64, 28
1, 642736, Note_on_c, 0, 86, 61
1, 642742, Note_on_c, 0, 74, 53
1, 642750, Note_off_c, 0, 100, 66
1, 642792, Control_c, 0, 64, 30
1, 642806, Control_c, 0, 64, 38
1, 642821, Control_c, 0, 64, 46
1, 642824, Note_off_c, 0, 86, 0
1, 642836, Control_c, 0, 64, 55
1, 642852, Control_c, 0, 64, 62
1, 642863, Poly_aftertouch_c, 0, 86, 127
1, 642867, Control_c, 0, 64, 66
1, 642872, Note_off_c, 0, 74, 54
1, 642890, Control_c, 0, 64, 68
1, 642899, Poly_aftertouch_c, 0, 86, 0
1, 642905, Control_c, 0, 64, 72
1, 642912, Note_off_c, 0, 98, 63
1, 642919, Control_c, 0, 64, 81
1, 642923, Note_on_c, 0, 69, 54
1, 642927, Note_on_c, 0, 65, 60
1, 642934, Control_c, 0, 64, 96
1, 642942, Note_on_c, 0, 60, 46
1, 642949, Control_c, 0, 64, 127
1, 643000, Note_off_c, 0, 60, 45
1, 643004, Note_off_c, 0, 69, 39
1, 643015, Note_off_c, 0, 65, 53
1, 643104, Note_on_c, 0, 98, 66
1, 643119, Note_on_c, 0, 74, 61
1, 643119, Note_on_c, 0, 86, 82
1, 643159, Note_off_c, 0, 74, 64
1, 643183, Note_off_c, 0, 86, 60
1, 643241, Note_off_c, 0, 98, 59
1, 643274, Control_c, 0, 64, 83
1, 643286, Note_on_c, 0, 100, 93
1, 643289, Control_c, 0, 64, 60
1, 643301, Note_on_c, 0, 67, 51
1, 643304, Control_c, 0, 64, 32
1, 643304, Note_on_c, 0, 59, 37
1, 643310, Note_on_c, 0, 64, 48
1, 643310, Note_on_c, 0, 88, 60
1, 643313, Note_on_c, 0, 76, 48
1, 643319, Control_c, 0, 64, 0
1, 643332, Note_on_c, 0, 74, 48
1, 643349, Control_c, 0, 64, 42
1, 643358, Note_off_c, 0, 88, 46
1, 643362, Note_off_c, 0, 74, 52
1, 643364, Control_c, 0, 64, 59
1, 643377, Note_off_c, 0, 76, 60
1, 643378, Control_c, 0, 64, 71
1, 643382, Note_off_c, 0, 67, 61
1, 643390, Note_off_c, 0, 64, 63
1, 643393, Control_c, 0, 64, 88
1, 643401, Note_off_c, 0, 100, 62
1, 643408, Control_c, 0, 64, 103
1, 643423, Control_c, 0, 64, 109
1, 643431, Note_off_c, 0, 59, 53
1, 643452, Control_c, 0, 64, 97
1, 643467, Control_c, 0, 64, 76
1, 643477, Note_on_c, 0, 74, 56
1, 643481, Note_on_c, 0, 98, 87
1, 643482, Control_c, 0, 64, 60
1, 643493, Note_on_c, 0, 86, 70
1, 643497, Control_c, 0, 64, 27
1, 643511, Control_c, 0, 64, 0
1, 643526, Control_c, 0, 64, 24
1, 643541, Control_c, 0, 64, 53
1, 643556, Control_c, 0, 64, 66
1, 643571, Control_c, 0, 64, 80
1, 643585, Control_c, 0, 64, 109
1, 643600, Control_c, 0, 64, 127
1, 643610, Note_off_c, 0, 98, 63
1, 643662, Note_on_c, 0, 62, 58
1, 643662, Note_on_c, 0, 65, 55
1, 643668, Note_on_c, 0, 57, 58
1, 643677, Note_off_c, 0, 86, 60
1, 643744, Note_off_c, 0, 65, 59
1, 643756, Note_off_c, 0, 62, 61
1, 643765, Note_off_c, 0, 57, 55
1, 643772, Note_off_c, 0, 74, 33
1, 643839, Note_on_c, 0, 96, 90
1, 643854, Note_on_c, 0, 84, 82
1, 643855, Note_on_c, 0, 72, 75
1, 643906, Note_off_c, 0, 72, 53
1, 643919, Note_off_c, 0, 84, 57
1, 644015, Note_on_c, 0, 95, 94
1, 644021, Note_on_c, 0, 71, 70
1, 644025, Poly_aftertouch_c, 0, 57, 127
1, 644027, Note_on_c, 0, 83, 82
1, 644035, Note_on_c, 0, 57, 3
1, 644040, Note_on_c, 0, 65, 49
1, 644042, Note_off_c, 0, 96, 40
1, 644073, Note_off_c, 0, 65, 50
1, 644081, Note_off_c, 0, 71, 61
1, 644082, Note_off_c, 0, 83, 62
1, 644192, Note_on_c, 0, 69, 52
1, 644198, Note_on_c, 0, 93, 86
1, 644199, Note_on_c, 0, 81, 89
1, 644204, Note_off_c, 0, 95, 60
1, 644215, Note_off_c, 0, 69, 61
1, 644216, Note_off_c, 0, 93, 72
1, 644228, Note_off_c, 0, 81, 65
1, 644240, Note_off_c, 0, 57, 39
1, 644345, Note_on_c, 0, 52, 83
1, 644345, Note_on_c, 0, 55, 79
1, 644347, Note_on_c, 0, 67, 90
1, 644351, Note_on_c, 0, 47, 72
1, 644351, Note_on_c, 0, 64, 82
1, 644368, Note_off_c, 0, 55, 67
1, 644371, Note_off_c, 0, 67, 69
1, 644371, Note_off_c, 0, 47, 66
1, 644374, Note_off_c, 0, 52, 66
1, 644374, Note_off_c, 0, 64, 70
1, 644437, Note_on_c, 0, 53, 90
1, 644439, Note_on_c, 0, 50, 89
1, 644441, Note_on_c, 0, 45, 83
1, 644462, Note_off_c, 0, 50, 69
1, 644467, Note_off_c, 0, 45, 66
1, 644467, Note_off_c, 0, 53, 63
1, 644523, Note_on_c, 0, 52, 77
1, 644528, Note_on_c, 0, 48, 91
1, 644529, Note_on_c, 0, 43, 87
1, 644556, Note_off_c, 0, 48, 66
1, 644559, Note_off_c, 0, 43, 68
1, 644570, Note_off_c, 0, 52, 65
1, 644580, Control_c, 0, 64, 78
1, 644586, Note_on_c, 0, 91, 96
1, 644592, Note_on_c, 0, 79, 89
1, 644595, Control_c, 0, 64, 54
1, 644610, Control_c, 0, 64, 0
1, 644613, Note_off_c, 0, 79, 71
1, 644624, Note_on_c, 0, 50, 81
1, 644628, Note_on_c, 0, 41, 78
1, 644628, Note_on_c, 0, 47, 85
1, 644630, Note_off_c, 0, 91, 64
1, 644656, Note_off_c, 0, 47, 67
1, 644660, Note_off_c, 0, 41, 66
1, 644662, Note_off_c, 0, 50, 64
1, 644775, Note_on_c, 0, 50, 85
1, 644783, Note_on_c, 0, 41, 59
1, 644800, Note_off_c, 0, 50, 70
1, 644810, Note_off_c, 0, 41, 58
1, 644951, Control_c, 0, 64, 43
1, 644965, Control_c, 0, 64, 54
1, 644966, Note_on_c, 0, 96, 92
1, 644973, Note_on_c, 0, 72, 79
1, 644976, Note_on_c, 0, 84, 81
1, 644980, Control_c, 0, 64, 59
1, 644995, Control_c, 0, 64, 65
1, 645009, Control_c, 0, 64, 72
1, 645012, Note_on_c, 0, 86, 43
1, 645013, Note_off_c, 0, 86, 127
1, 645024, Control_c, 0, 64, 87
1, 645034, Note_off_c, 0, 72, 57
1, 645039, Control_c, 0, 64, 127
1, 645049, Note_off_c, 0, 84, 57
1, 645073, Note_off_c, 0, 96, 63
1, 645155, Note_on_c, 0, 65, 53
1, 645170, Note_on_c, 0, 60, 55
1, 645178, Note_on_c, 0, 57, 53
1, 645218, Note_off_c, 0, 57, 56
1, 645268, Note_off_c, 0, 60, 38
1, 645269, Note_off_c, 0, 65, 57
1, 645353, Note_on_c, 0, 96, 90
1, 645358, Note_on_c, 0, 72, 69
1, 645368, Note_on_c, 0, 84, 78
1, 645412, Note_off_c, 0, 72, 58
1, 645504, Note_off_c, 0, 84, 0
1, 645504, Note_on_c, 0, 84, 7
1, 645543, Note_on_c, 0, 59, 56
1, 645546, Note_on_c, 0, 64, 57
1, 645549, Note_on_c, 0, 55, 53
1, 645552, Control_c, 0, 64, 111
1, 645567, Control_c, 0, 64, 99
1, 645596, Control_c, 0, 64, 105
1, 645611, Control_c, 0, 64, 127
1, 645623, Note_off_c, 0, 84, 36
1, 645677, Note_off_c, 0, 64, 62
1, 645679, Note_off_c, 0, 59, 59
1, 645700, Control_c, 0, 64, 98
1, 645709, Note_off_c, 0, 55, 31
1, 645710, Note_off_c, 0, 96, 64
1, 645714, Control_c, 0, 64, 69
1, 645724, Note_on_c, 0, 95, 89
1, 645729, Control_c, 0, 64, 50
1, 645733, Note_on_c, 0, 71, 49
1, 645737, Note_on_c, 0, 83, 64
1, 645744, Control_c, 0, 64, 35
1, 645759, Control_c, 0, 64, 45
1, 645774, Control_c, 0, 64, 62
1, 645788, Control_c, 0, 64, 78
1, 645803, Control_c, 0, 64, 127
1, 645849, Note_off_c, 0, 71, 32
1, 645921, Note_on_c, 0, 57, 52
1, 645925, Note_on_c, 0, 62, 50
1, 645925, Note_off_c, 0, 83, 64
1, 645950, Note_on_c, 0, 53, 27
1, 645984, Note_off_c, 0, 62, 54
1, 645990, Note_off_c, 0, 53, 50
1, 646013, Note_off_c, 0, 57, 53
1, 646109, Note_on_c, 0, 93, 85
1, 646119, Note_on_c, 0, 69, 62
1, 646122, Note_on_c, 0, 81, 62
1, 646144, Note_off_c, 0, 95, 66
1, 646166, Note_off_c, 0, 81, 58
1, 646174, Note_off_c, 0, 69, 63
1, 646305, Note_on_c, 0, 62, 49
1, 646306, Note_on_c, 0, 53, 41
1, 646315, Note_on_c, 0, 57, 35
1, 646367, Note_off_c, 0, 57, 41
1, 646447, Note_off_c, 0, 62, 32
1, 646466, Note_off_c, 0, 53, 26
1, 646480, Note_on_c, 0, 91, 81
1, 646484, Note_on_c, 0, 67, 60
1, 646489, Note_off_c, 0, 93, 60
1, 646500, Note_off_c, 0, 91, 70
1, 646503, Note_on_c, 0, 79, 55
1, 646504, Note_off_c, 0, 67, 62
1, 646523, Note_off_c, 0, 79, 62
1, 646655, Note_on_c, 0, 43, 82
1, 646656, Note_on_c, 0, 48, 81
1, 646657, Note_on_c, 0, 40, 78
1, 646677, Note_on_c, 0, 57, 62
1, 646680, Note_off_c, 0, 48, 67
1, 646681, Note_off_c, 0, 43, 67
1, 646685, Note_off_c, 0, 40, 66
1, 646702, Note_on_c, 0, 59, 69
1, 646716, Note_off_c, 0, 57, 53
1, 646732, Note_on_c, 0, 60, 70
1, 646736, Note_on_c, 0, 50, 92
1, 646741, Note_on_c, 0, 45, 83
1, 646741, Note_on_c, 0, 41, 85
1, 646745, Poly_aftertouch_c, 0, 55, 127
1, 646764, Note_on_c, 0, 62, 70
1, 646767, Note_off_c, 0, 45, 67
1, 646771, Note_off_c, 0, 50, 64
1, 646774, Note_off_c, 0, 41, 64
1, 646777, Poly_aftertouch_c, 0, 55, 0
1, 646780, Note_off_c, 0, 60, 50
1, 646780, Control_c, 0, 64, 87
1, 646782, Note_off_c, 0, 59, 0
1, 646790, Note_on_c, 0, 64, 77
1, 646795, Control_c, 0, 64, 50
1, 646802, Note_off_c, 0, 62, 62
1, 646810, Poly_aftertouch_c, 0, 59, 0
1, 646810, Control_c, 0, 64, 0
1, 646813, Note_on_c, 0, 65, 79
1, 646823, Note_on_c, 0, 52, 98
1, 646825, Poly_aftertouch_c, 0, 43, 127
1, 646826, Note_on_c, 0, 47, 89
1, 646827, Note_on_c, 0, 43, 29
1, 646838, Note_off_c, 0, 64, 66
1, 646839, Note_on_c, 0, 67, 75
1, 646845, Note_on_c, 0, 45, 40
1, 646856, Control_c, 0, 64, 52
1, 646857, Note_off_c, 0, 65, 65
1, 646859, Note_off_c, 0, 47, 65
1, 646866, Note_on_c, 0, 69, 79
1, 646866, Note_off_c, 0, 52, 65
1, 646867, Note_off_c, 0, 45, 37
1, 646869, Note_off_c, 0, 43, 64
1, 646871, Control_c, 0, 64, 71
1, 646885, Control_c, 0, 64, 109
1, 646887, Note_off_c, 0, 67, 64
1, 646890, Note_on_c, 0, 71, 84
1, 646900, Control_c, 0, 64, 127
1, 646908, Note_off_c, 0, 69, 67
1, 646913, Note_on_c, 0, 72, 83
1, 646929, Note_off_c, 0, 71, 62
1, 646934, Note_on_c, 0, 74, 85
1, 646935, Note_on_c, 0, 45, 98
1, 646937, Note_on_c, 0, 48, 98
1, 646938, Note_on_c, 0, 53, 92
1, 646945, Note_off_c, 0, 72, 62
1, 646948, Note_on_c, 0, 52, 85
1, 646951, Note_on_c, 0, 76, 90
1, 646962, Note_off_c, 0, 52, 68
1, 646962, Note_off_c, 0, 74, 63
1, 646966, Note_on_c, 0, 43, 54
1, 646970, Note_on_c, 0, 77, 89
1, 646974, Note_off_c, 0, 76, 62
1, 646977, Note_off_c, 0, 53, 65
1, 646978, Note_off_c, 0, 48, 64
1, 646980, Note_off_c, 0, 45, 64
1, 646987, Note_on_c, 0, 47, 11
1, 646988, Note_off_c, 0, 47, 127
1, 646988, Note_on_c, 0, 79, 93
1, 646990, Note_off_c, 0, 77, 73
1, 646994, Note_off_c, 0, 43, 61
1, 647003, Note_on_c, 0, 81, 92
1, 647009, Note_off_c, 0, 79, 66
1, 647020, Note_on_c, 0, 83, 91
1, 647030, Poly_aftertouch_c, 0, 47, 0
1, 647032, Note_off_c, 0, 81, 62
1, 647039, Note_on_c, 0, 84, 89
1, 647047, Note_off_c, 0, 83, 69
1, 647057, Note_on_c, 0, 86, 90
1, 647064, Note_off_c, 0, 84, 63
1, 647068, Note_on_c, 0, 48, 62
1, 647074, Note_on_c, 0, 88, 90
1, 647078, Note_on_c, 0, 45, 79
1, 647081, Note_on_c, 0, 53, 73
1, 647087, Note_off_c, 0, 86, 61
1, 647093, Note_on_c, 0, 89, 88
1, 647099, Note_off_c, 0, 48, 65
1, 647102, Note_off_c, 0, 88, 61
1, 647107, Note_off_c, 0, 53, 66
1, 647112, Note_on_c, 0, 91, 90
1, 647123, Note_off_c, 0, 89, 61
1, 647127, Note_off_c, 0, 45, 66
1, 647132, Note_on_c, 0, 93, 87
1, 647143, Note_off_c, 0, 91, 62
1, 647152, Note_on_c, 0, 95, 87
1, 647158, Note_off_c, 0, 93, 59
1, 647176, Note_on_c, 0, 96, 84
1, 647183, Note_off_c, 0, 95, 67
1, 647209, Note_on_c, 0, 98, 73
1, 647225, Note_off_c, 0, 96, 64
1, 647272, Note_off_c, 0, 98, 63
1, 647300, Control_c, 0, 64, 93
1, 647315, Control_c, 0, 64, 0
1, 647330, Control_c, 0, 64, 15
1, 647344, Control_c, 0, 64, 0
1, 647361, Note_on_c, 0, 100, 109
1, 647366, Note_on_c, 0, 28, 92
1, 647376, Note_on_c, 0, 40, 97
1, 647397, Control_c, 0, 64, 127
1, 647397, Note_off_c, 0, 100, 70
1, 647412, Note_off_c, 0, 28, 64
1, 647416, Note_off_c, 0, 40, 65
1, 647594, Note_on_c, 0, 68, 41
1, 647623, Note_off_c, 0, 68, 57
1, 647682, Note_on_c, 0, 69, 87
1, 647683, Note_on_c, 0, 64, 101
1, 647684, Note_on_c, 0, 76, 93
1, 647685, Note_on_c, 0, 73, 87
1, 647697, Note_on_c, 0, 57, 85
1, 647718, Note_on_c, 0, 54, 69
1, 647725, Note_off_c, 0, 57, 68
1, 647739, Note_off_c, 0, 54, 62
1, 647780, Poly_aftertouch_c, 0, 55, 127
1, 647787, Note_on_c, 0, 66, 83
1, 647812, Poly_aftertouch_c, 0, 55, 0
1, 647890, Note_off_c, 0, 69, 65
1, 647904, Note_off_c, 0, 76, 60
1, 647907, Note_off_c, 0, 64, 60
1, 647911, Note_off_c, 0, 66, 63
1, 647924, Note_off_c, 0, 73, 63
1, 647927, Note_on_c, 0, 40, 95
1, 647932, Note_on_c, 0, 28, 99
1, 647963, Note_off_c, 0, 28, 65
1, 647965, Note_off_c, 0, 40, 64
1, 648145, Note_on_c, 0, 69, 88
1, 648147, Note_on_c, 0, 73, 78
1, 648148, Note_on_c, 0, 76, 91
1, 648153, Note_on_c, 0, 54, 88
1, 648157, Note_on_c, 0, 57, 83
1, 648176, Note_off_c, 0, 54, 71
1, 648180, Note_off_c, 0, 57, 67
1, 648211, Note_off_c, 0, 73, 65
1, 648218, Note_off_c, 0, 76, 65
1, 648222, Note_on_c, 0, 66, 92
1, 648231, Note_off_c, 0, 69, 66
1, 648264, Note_off_c, 0, 66, 66
1, 648296, Poly_aftertouch_c, 0, 57, 127
1, 648314, Note_on_c, 0, 40, 106
1, 648318, Note_on_c, 0, 28, 90
1, 648328, Poly_aftertouch_c, 0, 57, 0
1, 648343, Note_off_c, 0, 28, 63
1, 648344, Note_off_c, 0, 40, 65
1, 648497, Note_on_c, 0, 73, 62
1, 648502, Note_on_c, 0, 54, 88
1, 648502, Note_on_c, 0, 69, 86
1, 648502, Note_on_c, 0, 76, 88
1, 648505, Note_on_c, 0, 64, 96
1, 648511, Note_on_c, 0, 57, 78
1, 648528, Note_off_c, 0, 54, 68
1, 648533, Note_off_c, 0, 57, 66
1, 648575, Note_on_c, 0, 66, 91
1, 648586, Note_off_c, 0, 76, 63
1, 648599, Note_off_c, 0, 64, 63
1, 648607, Note_off_c, 0, 69, 65
1, 648615, Note_off_c, 0, 73, 65
1, 648645, Note_off_c, 0, 66, 65
1, 648666, Note_on_c, 0, 40, 110
1, 648672, Note_on_c, 0, 28, 86
1, 648694, Note_off_c, 0, 40, 67
1, 648697, Note_off_c, 0, 28, 64
1, 648860, Note_on_c, 0, 54, 89
1, 648862, Note_on_c, 0, 69, 88
1, 648865, Note_on_c, 0, 73, 80
1, 648866, Note_on_c, 0, 57, 71
1, 648869, Note_on_c, 0, 76, 88
1, 648890, Note_off_c, 0, 54, 69
1, 648896, Note_off_c, 0, 57, 66
1, 648939, Note_off_c, 0, 73, 63
1, 648945, Note_on_c, 0, 66, 91
1, 648950, Note_off_c, 0, 69, 67
1, 648950, Note_off_c, 0, 76, 65
1, 648989, Note_off_c, 0, 66, 66
1, 649032, Note_on_c, 0, 40, 110
1, 649039, Note_on_c, 0, 28, 88
1, 649061, Note_off_c, 0, 40, 64
1, 649066, Note_off_c, 0, 28, 64
1, 649215, Note_on_c, 0, 73, 68
1, 649217, Note_on_c, 0, 54, 92
1, 649221, Note_on_c, 0, 76, 86
1, 649222, Note_on_c, 0, 64, 92
1, 649224, Note_on_c, 0, 69, 83
1, 649227, Note_on_c, 0, 57, 65
1, 649242, Note_off_c, 0, 54, 69
1, 649255, Note_off_c, 0, 57, 65
1, 649273, Note_on_c, 0, 66, 79
1, 649298, Note_off_c, 0, 76, 64
1, 649314, Note_off_c, 0, 64, 64
1, 649314, Note_off_c, 0, 69, 64
1, 649325, Control_c, 0, 64, 103
1, 649326, Note_off_c, 0, 73, 65
1, 649340, Control_c, 0, 64, 64
1, 649347, Note_off_c, 0, 66, 64
1, 649355, Control_c, 0, 64, 10
1, 649370, Control_c, 0, 64, 0
1, 649384, Note_on_c, 0, 40, 112
1, 649385, Control_c, 0, 64, 48
1, 649391, Note_on_c, 0, 28, 92
1, 649400, Control_c, 0, 64, 83
1, 649412, Note_off_c, 0, 28, 68
1, 649415, Control_c, 0, 64, 127
1, 649416, Note_off_c, 0, 40, 64
1, 649571, Note_on_c, 0, 74, 93
1, 649573, Note_on_c, 0, 54, 92
1, 649576, Note_on_c, 0, 69, 101
1, 649576, Note_on_c, 0, 57, 84
1, 649579, Note_on_c, 0, 76, 100
1, 649600, Note_off_c, 0, 54, 68
1, 649600, Note_off_c, 0, 57, 68
1, 649668, Note_on_c, 0, 66, 88
1, 649669, Note_off_c, 0, 76, 65
1, 649683, Note_off_c, 0, 74, 67
1, 649689, Note_off_c, 0, 69, 67
1, 649710, Note_off_c, 0, 66, 66
1, 649749, Poly_aftertouch_c, 0, 57, 0
1, 649764, Note_on_c, 0, 40, 94
1, 649773, Note_on_c, 0, 28, 88
1, 649786, Note_off_c, 0, 40, 68
1, 649796, Note_off_c, 0, 28, 62
1, 649858, Note_on_c, 0, 40, 22
1, 649886, Note_off_c, 0, 40, 49
1, 649925, Control_c, 0, 64, 83
1, 649934, Note_on_c, 0, 73, 78
1, 649938, Note_on_c, 0, 69, 86
1, 649940, Note_on_c, 0, 76, 88
1, 649940, Control_c, 0, 64, 69
1, 649943, Note_on_c, 0, 64, 93
1, 649948, Note_on_c, 0, 54, 88
1, 649948, Note_on_c, 0, 57, 85
1, 649954, Control_c, 0, 64, 67
1, 649969, Control_c, 0, 64, 76
1, 649970, Note_off_c, 0, 54, 72
1, 649976, Note_off_c, 0, 57, 68
1, 649984, Control_c, 0, 64, 115
1, 649998, Control_c, 0, 64, 127
1, 650019, Note_on_c, 0, 66, 87
1, 650023, Note_off_c, 0, 76, 63
1, 650034, Note_off_c, 0, 64, 64
1, 650047, Note_off_c, 0, 69, 65
1, 650050, Note_off_c, 0, 73, 65
1, 650069, Note_off_c, 0, 66, 65
1, 650110, Note_on_c, 0, 40, 97
1, 650118, Note_on_c, 0, 28, 83
1, 650135, Note_off_c, 0, 28, 68
1, 650139, Note_off_c, 0, 40, 66
1, 650204, Note_on_c, 0, 28, 39
1, 650228, Note_off_c, 0, 28, 50
1, 650289, Note_on_c, 0, 73, 83
1, 650289, Note_on_c, 0, 76, 91
1, 650290, Note_on_c, 0, 69, 87
1, 650294, Note_on_c, 0, 54, 82
1, 650295, Note_on_c, 0, 57, 76
1, 650316, Note_off_c, 0, 54, 68
1, 650318, Note_off_c, 0, 57, 67
1, 650357, Note_off_c, 0, 76, 66
1, 650358, Note_off_c, 0, 73, 65
1, 650381, Note_on_c, 0, 66, 79
1, 650381, Note_off_c, 0, 69, 65
1, 650411, Note_off_c, 0, 66, 67
1, 650417, Note_on_c, 0, 54, 3
1, 650452, Note_off_c, 0, 54, 38
1, 650462, Note_on_c, 0, 40, 93
1, 650475, Note_on_c, 0, 28, 74
1, 650476, Poly_aftertouch_c, 0, 57, 0
1, 650490, Note_off_c, 0, 40, 67
1, 650494, Note_off_c, 0, 28, 39
1, 650642, Note_on_c, 0, 57, 69
1, 650642, Note_on_c, 0, 76, 84
1, 650642, Poly_aftertouch_c, 0, 28, 0
1, 650644, Note_on_c, 0, 69, 73
1, 650645, Note_on_c, 0, 73, 77
1, 650646, Note_on_c, 0, 64, 76
1, 650655, Note_on_c, 0, 62, 81
1, 650665, Note_on_c, 0, 54, 39
1, 650671, Note_off_c, 0, 57, 64
1, 650675, Note_off_c, 0, 62, 56
1, 650696, Note_off_c, 0, 54, 54
1, 650721, Note_on_c, 0, 66, 88
1, 650742, Note_off_c, 0, 64, 65
1, 650744, Note_off_c, 0, 69, 65
1, 650749, Note_off_c, 0, 76, 63
1, 650750, Poly_aftertouch_c, 0, 53, 0
1, 650757, Note_off_c, 0, 73, 65
1, 650762, Note_off_c, 0, 66, 65
1, 650777, Control_c, 0, 64, 79
1, 650792, Control_c, 0, 64, 67
1, 650798, Note_on_c, 0, 40, 101
1, 650804, Note_on_c, 0, 28, 88
1, 650807, Control_c, 0, 64, 67
1, 650821, Control_c, 0, 64, 74
1, 650825, Note_off_c, 0, 28, 66
1, 650827, Note_off_c, 0, 40, 67
1, 650836, Control_c, 0, 64, 92
1, 650852, Control_c, 0, 64, 127
1, 651010, Note_on_c, 0, 74, 110
1, 651016, Note_on_c, 0, 76, 97
1, 651019, Note_on_c, 0, 54, 81
1, 651019, Note_on_c, 0, 69, 96
1, 651025, Note_on_c, 0, 57, 67
1, 651031, Note_off_c, 0, 76, 76
1, 651036, Note_off_c, 0, 69, 73
1, 651039, Note_on_c, 0, 71, 59
1, 651040, Note_off_c, 0, 71, 127
1, 651041, Note_off_c, 0, 54, 68
1, 651042, Note_off_c, 0, 57, 67
1, 651051, Note_off_c, 0, 74, 70
1, 651101, Note_on_c, 0, 69, 37
1, 651124, Note_on_c, 0, 66, 78
1, 651134, Note_off_c, 0, 69, 59
1, 651149, Note_off_c, 0, 66, 69
1, 651168, Poly_aftertouch_c, 0, 54, 127
1, 651179, Poly_aftertouch_c, 0, 76, 0
1, 651199, Note_on_c, 0, 40, 87
1, 651200, Note_on_c, 0, 28, 87
1, 651203, Poly_aftertouch_c, 0, 54, 0
1, 651224, Note_off_c, 0, 40, 64
1, 651230, Note_off_c, 0, 28, 65
1, 651234, Note_on_c, 0, 38, 19
1, 651276, Note_off_c, 0, 38, 42
1, 651348, Control_c, 0, 64, 106
1, 651363, Control_c, 0, 64, 77
1, 651370, Note_on_c, 0, 73, 83
1, 651373, Note_on_c, 0, 69, 85
1, 651374, Note_on_c, 0, 76, 90
1, 651378, Control_c, 0, 64, 71
1, 651379, Note_on_c, 0, 64, 92
1, 651382, Note_on_c, 0, 54, 82
1, 651383, Note_on_c, 0, 57, 76
1, 651393, Control_c, 0, 64, 75
1, 651400, Note_off_c, 0, 57, 67
1, 651407, Note_off_c, 0, 54, 67
1, 651407, Control_c, 0, 64, 98
1, 651422, Control_c, 0, 64, 127
1, 651484, Note_on_c, 0, 66, 82
1, 651484, Note_off_c, 0, 64, 62
1, 651489, Note_off_c, 0, 76, 52
1, 651491, Note_off_c, 0, 69, 63
1, 651512, Note_off_c, 0, 66, 67
1, 651517, Note_off_c, 0, 73, 65
1, 651518, Poly_aftertouch_c, 0, 54, 127
1, 651535, Note_on_c, 0, 40, 98
1, 651542, Note_on_c, 0, 28, 87
1, 651558, Poly_aftertouch_c, 0, 54, 0
1, 651559, Note_off_c, 0, 40, 69
1, 651565, Note_off_c, 0, 28, 64
1, 651732, Note_on_c, 0, 74, 113
1, 651740, Note_on_c, 0, 76, 100
1, 651740, Note_on_c, 0, 54, 77
1, 651742, Note_on_c, 0, 69, 103
1, 651751, Note_on_c, 0, 57, 54
1, 651752, Note_on_c, 0, 59, 49
1, 651755, Note_off_c, 0, 76, 76
1, 651760, Note_off_c, 0, 69, 72
1, 651767, Note_off_c, 0, 54, 68
1, 651772, Note_off_c, 0, 57, 63
1, 651773, Note_off_c, 0, 74, 69
1, 651773, Note_off_c, 0, 59, 63
1, 651819, Note_on_c, 0, 76, 34
1, 651834, Note_on_c, 0, 66, 85
1, 651841, Note_off_c, 0, 76, 55
1, 651857, Note_off_c, 0, 66, 69
1, 651895, Poly_aftertouch_c, 0, 54, 127
1, 651923, Poly_aftertouch_c, 0, 54, 0
1, 651928, Note_on_c, 0, 40, 89
1, 651931, Note_on_c, 0, 28, 83
1, 651949, Note_off_c, 0, 40, 67
1, 651955, Note_off_c, 0, 28, 64
1, 652044, Note_on_c, 0, 40, 3
1, 652064, Note_off_c, 0, 40, 55
1, 652101, Note_on_c, 0, 73, 86
1, 652104, Note_on_c, 0, 76, 89
1, 652104, Note_on_c, 0, 64, 92
1, 652105, Note_on_c, 0, 69, 84
1, 652115, Note_on_c, 0, 57, 71
1, 652117, Note_on_c, 0, 54, 73
1, 652141, Note_off_c, 0, 57, 66
1, 652144, Note_off_c, 0, 54, 65
1, 652189, Note_off_c, 0, 76, 64
1, 652205, Note_off_c, 0, 64, 64
1, 652213, Note_off_c, 0, 69, 64
1, 652214, Note_off_c, 0, 73, 64
1, 652215, Note_on_c, 0, 66, 63
1, 652244, Note_off_c, 0, 66, 66
1, 652268, Note_on_c, 0, 40, 96
1, 652272, Note_on_c, 0, 28, 80
1, 652290, Note_off_c, 0, 40, 70
1, 652300, Note_off_c, 0, 28, 53
1, 652387, Note_on_c, 0, 40, 3
1, 652411, Note_off_c, 0, 40, 51
1, 652454, Note_on_c, 0, 73, 84
1, 652455, Note_on_c, 0, 69, 90
1, 652456, Note_on_c, 0, 57, 85
1, 652457, Note_on_c, 0, 76, 89
1, 652461, Note_on_c, 0, 54, 79
1, 652480, Note_off_c, 0, 57, 67
1, 652482, Note_off_c, 0, 54, 69
1, 652519, Note_off_c, 0, 73, 65
1, 652524, Note_off_c, 0, 76, 67
1, 652545, Note_on_c, 0, 66, 81
1, 652545, Note_off_c, 0, 69, 66
1, 652581, Note_off_c, 0, 66, 64
1, 652603, Poly_aftertouch_c, 0, 54, 0
1, 652630, Note_on_c, 0, 40, 102
1, 652637, Note_on_c, 0, 28, 80
1, 652640, Poly_aftertouch_c, 0, 54, 0
1, 652661, Note_off_c, 0, 40, 66
1, 652673, Note_off_c, 0, 28, 48
1, 652812, Note_on_c, 0, 57, 87
1, 652813, Note_on_c, 0, 54, 86
1, 652813, Note_on_c, 0, 76, 83
1, 652813, Note_on_c, 0, 73, 71
1, 652814, Note_on_c, 0, 64, 81
1, 652823, Note_on_c, 0, 69, 55
1, 652835, Note_off_c, 0, 54, 70
1, 652835, Note_off_c, 0, 57, 69
1, 652868, Note_off_c, 0, 69, 51
1, 652886, Note_on_c, 0, 66, 75
1, 652897, Note_off_c, 0, 76, 62
1, 652900, Note_off_c, 0, 64, 64
1, 652906, Note_off_c, 0, 73, 63
1, 652926, Note_off_c, 0, 66, 64
1, 652979, Control_c, 0, 64, 80
1, 652994, Control_c, 0, 64, 59
1, 653009, Control_c, 0, 64, 46
1, 653011, Note_on_c, 0, 64, 103
1, 653013, Note_on_c, 0, 76, 102
1, 653016, Note_on_c, 0, 40, 87
1, 653022, Note_on_c, 0, 28, 84
1, 653023, Control_c, 0, 64, 63
1, 653038, Control_c, 0, 64, 127
1, 653042, Note_off_c, 0, 28, 64
1, 653045, Note_off_c, 0, 40, 66
1, 653168, Note_off_c, 0, 64, 60
1, 653171, Note_off_c, 0, 76, 57
1, 653190, Poly_aftertouch_c, 0, 28, 0
1, 653205, Note_on_c, 0, 69, 87
1, 653207, Note_on_c, 0, 54, 77
1, 653209, Note_on_c, 0, 74, 82
1, 653211, Note_on_c, 0, 57, 69
1, 653233, Note_off_c, 0, 54, 67
1, 653236, Note_off_c, 0, 57, 66
1, 653245, Note_off_c, 0, 69, 67
1, 653256, Note_off_c, 0, 74, 65
1, 653373, Control_c, 0, 64, 96
1, 653388, Control_c, 0, 64, 75
1, 653392, Poly_aftertouch_c, 0, 54, 0
1, 653402, Control_c, 0, 64, 71
1, 653409, Note_on_c, 0, 64, 105
1, 653409, Note_on_c, 0, 76, 102
1, 653411, Note_on_c, 0, 40, 91
1, 653417, Note_on_c, 0, 28, 77
1, 653417, Control_c, 0, 64, 87
1, 653432, Control_c, 0, 64, 127
1, 653437, Note_off_c, 0, 40, 67
1, 653446, Note_off_c, 0, 28, 53
1, 653508, Note_off_c, 0, 64, 61
1, 653521, Note_off_c, 0, 76, 58
1, 653591, Note_on_c, 0, 73, 84
1, 653592, Note_on_c, 0, 69, 85
1, 653593, Note_on_c, 0, 54, 80
1, 653594, Note_on_c, 0, 57, 73
1, 653596, Note_on_c, 0, 64, 82
1, 653615, Note_off_c, 0, 54, 67
1, 653618, Note_off_c, 0, 57, 67
1, 653624, Note_off_c, 0, 69, 65
1, 653630, Note_off_c, 0, 64, 64
1, 653653, Note_off_c, 0, 73, 65
1, 653737, Poly_aftertouch_c, 0, 57, 0
1, 653743, Control_c, 0, 64, 85
1, 653758, Control_c, 0, 64, 72
1, 653760, Poly_aftertouch_c, 0, 57, 0
1, 653773, Control_c, 0, 64, 73
1, 653783, Note_on_c, 0, 64, 103
1, 653783, Note_on_c, 0, 76, 103
1, 653785, Note_on_c, 0, 40, 82
1, 653788, Control_c, 0, 64, 107
1, 653797, Note_on_c, 0, 28, 56
1, 653802, Control_c, 0, 64, 127
1, 653807, Note_off_c, 0, 40, 67
1, 653830, Note_off_c, 0, 28, 56
1, 653908, Note_off_c, 0, 76, 57
1, 653935, Poly_aftertouch_c, 0, 40, 0
1, 653957, Note_on_c, 0, 74, 85
1, 653958, Note_on_c, 0, 57, 70
1, 653958, Note_on_c, 0, 69, 90
1, 653958, Poly_aftertouch_c, 0, 40, 0
1, 653967, Note_on_c, 0, 54, 70
1, 653983, Note_off_c, 0, 57, 66
1, 653989, Note_off_c, 0, 64, 64
1, 653989, Note_off_c, 0, 54, 68
1, 654010, Note_off_c, 0, 69, 66
1, 654025, Note_off_c, 0, 74, 64
1, 654075, Note_on_c, 0, 54, 4
1, 654119, Note_off_c, 0, 54, 0
1, 654138, Poly_aftertouch_c, 0, 54, 0
1, 654151, Note_on_c, 0, 76, 103
1, 654152, Note_on_c, 0, 40, 70
1, 654152, Note_on_c, 0, 64, 104
1, 654156, Note_on_c, 0, 28, 59
1, 654170, Note_off_c, 0, 40, 68
1, 654181, Note_off_c, 0, 28, 60
1, 654250, Note_off_c, 0, 64, 60
1, 654275, Note_off_c, 0, 76, 57
1, 654327, Poly_aftertouch_c, 0, 40, 0
1, 654333, Note_on_c, 0, 73, 86
1, 654336, Note_on_c, 0, 64, 79
1, 654341, Note_on_c, 0, 69, 67
1, 654355, Note_off_c, 0, 64, 71
1, 654356, Note_on_c, 0, 55, 25
1, 654359, Note_off_c, 0, 69, 66
1, 654363, Note_off_c, 0, 73, 62
1, 654398, Note_off_c, 0, 55, 42
1, 654431, Note_on_c, 0, 64, 18
1, 654468, Note_off_c, 0, 64, 50
1, 654476, Control_c, 0, 64, 84
1, 654491, Control_c, 0, 64, 61
1, 654506, Control_c, 0, 64, 36
1, 654521, Control_c, 0, 64, 19
1, 654536, Control_c, 0, 64, 32
1, 654542, Note_on_c, 0, 71, 84
1, 654543, Note_on_c, 0, 59, 80
1, 654544, Note_on_c, 0, 76, 101
1, 654544, Note_on_c, 0, 88, 104
1, 654551, Control_c, 0, 64, 55
1, 654566, Control_c, 0, 64, 67
1, 654581, Control_c, 0, 64, 78
1, 654586, Note_off_c, 0, 76, 65
1, 654595, Control_c, 0, 64, 93
1, 654598, Note_off_c, 0, 71, 64
1, 654610, Control_c, 0, 64, 111
1, 654622, Note_off_c, 0, 59, 56
1, 654625, Control_c, 0, 64, 127
1, 654721, Note_on_c, 0, 74, 87
1, 654728, Note_on_c, 0, 62, 87
1, 654773, Note_off_c, 0, 74, 63
1, 654786, Note_off_c, 0, 88, 27
1, 654791, Note_off_c, 0, 62, 65
1, 654848, Control_c, 0, 64, 105
1, 654870, Control_c, 0, 64, 71
1, 654885, Control_c, 0, 64, 53
1, 654900, Control_c, 0, 64, 45
1, 654914, Note_on_c, 0, 61, 92
1, 654915, Control_c, 0, 64, 59
1, 654919, Note_on_c, 0, 73, 92
1, 654919, Note_on_c, 0, 85, 92
1, 654919, Note_on_c, 0, 88, 89
1, 654930, Control_c, 0, 64, 80
1, 654944, Control_c, 0, 64, 127
1, 654950, Note_off_c, 0, 61, 67
1, 655039, Note_off_c, 0, 73, 62
1, 655098, Note_on_c, 0, 40, 85
1, 655100, Note_on_c, 0, 28, 85
1, 655117, Note_off_c, 0, 88, 56
1, 655119, Note_off_c, 0, 85, 54
1, 655123, Note_off_c, 0, 40, 66
1, 655126, Note_off_c, 0, 28, 66
1, 655281, Poly_aftertouch_c, 0, 40, 0
1, 655290, Note_on_c, 0, 83, 96
1, 655292, Note_on_c, 0, 88, 97
1, 655293, Note_on_c, 0, 59, 98
1, 655293, Note_on_c, 0, 76, 97
1, 655325, Note_off_c, 0, 59, 69
1, 655349, Note_off_c, 0, 83, 65
1, 655380, Note_off_c, 0, 76, 61
1, 655398, Note_off_c, 0, 88, 55
1, 655479, Note_on_c, 0, 40, 73
1, 655492, Note_on_c, 0, 28, 52
1, 655505, Note_off_c, 0, 40, 62
1, 655519, Note_off_c, 0, 28, 61
1, 655649, Control_c, 0, 64, 93
1, 655664, Control_c, 0, 64, 73
1, 655679, Control_c, 0, 64, 69
1, 655690, Note_on_c, 0, 69, 103
1, 655690, Note_on_c, 0, 76, 98
1, 655691, Note_on_c, 0, 88, 106
1, 655692, Note_on_c, 0, 81, 93
1, 655693, Note_on_c, 0, 57, 98
1, 655694, Control_c, 0, 64, 72
1, 655709, Control_c, 0, 64, 85
1, 655717, Note_off_c, 0, 57, 69
1, 655720, Note_off_c, 0, 69, 63
1, 655723, Control_c, 0, 64, 127
1, 655809, Note_off_c, 0, 81, 0
1, 655845, Poly_aftertouch_c, 0, 81, 127
1, 655872, Note_off_c, 0, 76, 33
1, 655875, Note_on_c, 0, 40, 83
1, 655878, Note_on_c, 0, 28, 78
1, 655900, Note_off_c, 0, 40, 67
1, 655904, Note_off_c, 0, 28, 58
1, 655928, Poly_aftertouch_c, 0, 81, 0
1, 655929, Note_off_c, 0, 88, 57
1, 655980, Note_on_c, 0, 40, 19
1, 656014, Note_off_c, 0, 40, 54
1, 656055, Note_on_c, 0, 83, 99
1, 656056, Note_on_c, 0, 76, 94
1, 656068, Note_on_c, 0, 64, 77
1, 656071, Note_on_c, 0, 52, 86
1, 656092, Note_off_c, 0, 64, 69
1, 656092, Note_off_c, 0, 52, 68
1, 656102, Note_off_c, 0, 76, 64
1, 656102, Note_off_c, 0, 83, 65
1, 656168, Control_c, 0, 64, 119
1, 656183, Control_c, 0, 64, 71
1, 656197, Control_c, 0, 64, 32
1, 656208, Poly_aftertouch_c, 0, 64, 0
1, 656212, Control_c, 0, 64, 0
1, 656233, Note_on_c, 0, 86, 98
1, 656235, Note_on_c, 0, 52, 65
1, 656238, Note_on_c, 0, 74, 85
1, 656241, Note_on_c, 0, 40, 82
1, 656241, Note_on_c, 0, 76, 88
1, 656262, Note_off_c, 0, 76, 66
1, 656265, Note_off_c, 0, 40, 66
1, 656265, Note_off_c, 0, 52, 67
1, 656272, Note_off_c, 0, 74, 65
1, 656304, Note_off_c, 0, 86, 61
1, 656397, Control_c, 0, 64, 69
1, 656412, Control_c, 0, 64, 127
1, 656422, Note_on_c, 0, 69, 103
1, 656423, Note_on_c, 0, 73, 106
1, 656424, Note_on_c, 0, 85, 98
1, 656425, Note_on_c, 0, 57, 101
1, 656429, Note_on_c, 0, 81, 99
1, 656456, Note_off_c, 0, 69, 70
1, 656459, Note_off_c, 0, 57, 64
1, 656462, Note_off_c, 0, 81, 59
1, 656477, Note_off_c, 0, 73, 63
1, 656486, Note_off_c, 0, 85, 68
1, 656614, Note_on_c, 0, 52, 70
1, 656614, Note_on_c, 0, 69, 63
1, 656618, Note_on_c, 0, 40, 58
1, 656634, Note_off_c, 0, 52, 64
1, 656644, Note_off_c, 0, 69, 68
1, 656645, Note_off_c, 0, 40, 60
1, 656773, Note_on_c, 0, 83, 98
1, 656775, Note_on_c, 0, 71, 100
1, 656780, Note_on_c, 0, 80, 89
1, 656781, Note_on_c, 0, 68, 92
1, 656782, Note_on_c, 0, 56, 94
1, 656801, Note_off_c, 0, 68, 72
1, 656808, Note_off_c, 0, 56, 67
1, 656812, Note_off_c, 0, 83, 65
1, 656821, Note_off_c, 0, 71, 63
1, 656841, Note_off_c, 0, 80, 60
1, 656865, Note_on_c, 0, 68, 31
1, 656887, Note_off_c, 0, 68, 61
1, 656951, Note_on_c, 0, 68, 76
1, 656961, Note_on_c, 0, 40, 73
1, 656963, Note_on_c, 0, 52, 71
1, 656980, Note_off_c, 0, 40, 64
1, 656983, Note_off_c, 0, 52, 64
1, 657004, Note_off_c, 0, 68, 62
1, 657136, Note_on_c, 0, 81, 85
1, 657138, Note_on_c, 0, 78, 88
1, 657140, Note_on_c, 0, 54, 87
1, 657140, Note_on_c, 0, 66, 103
1, 657144, Note_on_c, 0, 69, 87
1, 657150, Note_on_c, 0, 71, 80
1, 657156, Note_off_c, 0, 81, 70
1, 657160, Note_off_c, 0, 66, 70
1, 657165, Note_off_c, 0, 71, 70
1, 657168, Note_off_c, 0, 54, 66
1, 657177, Note_on_c, 0, 53, 39
1, 657178, Note_off_c, 0, 78, 61
1, 657179, Note_off_c, 0, 69, 67
1, 657207, Note_off_c, 0, 53, 49
1, 657309, Control_c, 0, 64, 100
1, 657311, Poly_aftertouch_c, 0, 71, 0
1, 657324, Control_c, 0, 64, 72
1, 657339, Control_c, 0, 64, 50
1, 657354, Control_c, 0, 64, 0
1, 657358, Note_on_c, 0, 64, 65
1, 657365, Note_on_c, 0, 61, 66
1, 657369, Note_on_c, 0, 57, 65
1, 657419, Note_on_c, 0, 54, 79
1, 657422, Note_off_c, 0, 64, 64
1, 657428, Note_off_c, 0, 57, 61
1, 657434, Note_off_c, 0, 61, 64
1, 657450, Note_off_c, 0, 54, 67
1, 657485, Note_on_c, 0, 40, 106
1, 657486, Note_on_c, 0, 28, 93
1, 657502, Control_c, 0, 64, 70
1, 657514, Note_off_c, 0, 28, 67
1, 657517, Control_c, 0, 64, 127
1, 657531, Note_off_c, 0, 40, 65
1, 657547, Control_c, 0, 64, 64
1, 657547, Note_on_c, 0, 29, 21
1, 657561, Control_c, 0, 64, 0
1, 657582, Note_off_c, 0, 29, 43
1, 657602, Poly_aftertouch_c, 0, 31, 0
1, 657665, Note_on_c, 0, 76, 90
1, 657669, Note_on_c, 0, 66, 92
1, 657671, Note_on_c, 0, 56, 90
1, 657671, Note_on_c, 0, 69, 83
1, 657672, Note_on_c, 0, 44, 89
1, 657681, Note_on_c, 0, 74, 66
1, 657696, Note_off_c, 0, 69, 68
1, 657708, Note_off_c, 0, 74, 67
1, 657711, Note_off_c, 0, 66, 63
1, 657718, Note_off_c, 0, 56, 60
1, 657719, Note_off_c, 0, 76, 63
1, 657726, Note_off_c, 0, 44, 62
1, 657869, Note_on_c, 0, 69, 103
1, 657869, Note_on_c, 0, 81, 97
1, 657870, Note_on_c, 0, 47, 88
1, 657872, Note_on_c, 0, 59, 109
1, 657880, Control_c, 0, 64, 52
1, 657894, Control_c, 0, 64, 127
1, 657908, Note_off_c, 0, 59, 68
1, 657914, Note_on_c, 0, 48, 31
1, 657916, Note_on_c, 0, 53, 41
1, 657925, Note_off_c, 0, 47, 68
1, 657947, Note_off_c, 0, 48, 46
1, 657958, Note_off_c, 0, 81, 56
1, 657959, Note_off_c, 0, 53, 40
1, 657967, Note_off_c, 0, 69, 61
1, 658054, Note_on_c, 0, 40, 96
1, 658057, Note_on_c, 0, 78, 84
1, 658059, Note_on_c, 0, 28, 90
1, 658062, Note_on_c, 0, 69, 76
1, 658063, Note_on_c, 0, 76, 63
1, 658071, Note_on_c, 0, 73, 38
1, 658082, Note_off_c, 0, 28, 66
1, 658083, Note_off_c, 0, 40, 67
1, 658087, Note_off_c, 0, 76, 65
1, 658089, Note_off_c, 0, 69, 66
1, 658097, Note_off_c, 0, 73, 54
1, 658107, Note_off_c, 0, 78, 64
1, 658226, Note_on_c, 0, 64, 96
1, 658229, Note_on_c, 0, 52, 97
1, 658230, Note_on_c, 0, 80, 91
1, 658232, Note_on_c, 0, 68, 98
1, 658260, Note_off_c, 0, 64, 65
1, 658265, Note_off_c, 0, 52, 65
1, 658273, Note_off_c, 0, 80, 62
1, 658277, Note_off_c, 0, 68, 61
1, 658410, Note_on_c, 0, 76, 92
1, 658418, Note_on_c, 0, 66, 82
1, 658419, Note_on_c, 0, 28, 78
1, 658423, Note_on_c, 0, 40, 79
1, 658441, Note_off_c, 0, 28, 61
1, 658447, Note_off_c, 0, 40, 68
1, 658447, Note_off_c, 0, 66, 61
1, 658459, Note_off_c, 0, 76, 65
1, 658473, Poly_aftertouch_c, 0, 69, 127
1, 658514, Poly_aftertouch_c, 0, 69, 0
1, 658595, Note_on_c, 0, 66, 111
1, 658596, Note_on_c, 0, 78, 100
1, 658596, Note_on_c, 0, 64, 99
1, 658608, Note_on_c, 0, 52, 91
1, 658632, Note_off_c, 0, 66, 68
1, 658638, Note_off_c, 0, 78, 63
1, 658643, Note_off_c, 0, 52, 63
1, 658644, Note_on_c, 0, 53, 41
1, 658644, Note_off_c, 0, 64, 65
1, 658675, Note_off_c, 0, 53, 35
1, 658786, Note_on_c, 0, 54, 65
1, 658786, Note_on_c, 0, 64, 74
1, 658787, Note_on_c, 0, 61, 69
1, 658812, Note_off_c, 0, 64, 67
1, 658820, Note_off_c, 0, 61, 59
1, 658822, Note_off_c, 0, 54, 66
1, 658948, Note_on_c, 0, 59, 91
1, 658960, Note_on_c, 0, 40, 75
1, 658974, Note_on_c, 0, 28, 47
1, 658977, Note_off_c, 0, 59, 69
1, 658990, Note_off_c, 0, 40, 64
1, 658996, Note_off_c, 0, 28, 63
1, 659139, Note_on_c, 0, 80, 101
1, 659142, Note_on_c, 0, 68, 102
1, 659145, Note_on_c, 0, 74, 87
1, 659154, Note_on_c, 0, 64, 72
1, 659156, Note_on_c, 0, 62, 71
1, 659166, Note_off_c, 0, 74, 71
1, 659167, Note_off_c, 0, 68, 65
1, 659183, Note_off_c, 0, 80, 64
1, 659187, Note_off_c, 0, 62, 65
1, 659187, Note_off_c, 0, 64, 63
1, 659300, Poly_aftertouch_c, 0, 74, 0
1, 659326, Note_on_c, 0, 71, 101
1, 659326, Note_on_c, 0, 83, 101
1, 659327, Note_on_c, 0, 61, 95
1, 659328, Note_on_c, 0, 73, 98
1, 659347, Note_off_c, 0, 71, 67
1, 659347, Note_off_c, 0, 73, 72
1, 659367, Note_off_c, 0, 83, 66
1, 659436, Note_off_c, 0, 61, 57
1, 659508, Note_on_c, 0, 64, 81
1, 659510, Note_on_c, 0, 54, 81
1, 659512, Note_on_c, 0, 61, 65
1, 659520, Note_on_c, 0, 57, 49
1, 659532, Note_off_c, 0, 61, 66
1, 659541, Note_off_c, 0, 64, 65
1, 659542, Note_off_c, 0, 54, 65
1, 659545, Note_off_c, 0, 57, 57
1, 659687, Note_on_c, 0, 71, 99
1, 659688, Note_on_c, 0, 88, 101
1, 659690, Note_on_c, 0, 76, 109
1, 659692, Note_on_c, 0, 59, 90
1, 659722, Note_off_c, 0, 59, 69
1, 659729, Note_off_c, 0, 71, 65
1, 659785, Note_off_c, 0, 76, 63
1, 659819, Note_off_c, 0, 88, 53
1, 659852, Note_on_c, 0, 69, 83
1, 659867, Note_on_c, 0, 88, 55
1, 659868, Note_on_c, 0, 74, 63
1, 659872, Note_on_c, 0, 76, 67
1, 659876, Note_off_c, 0, 69, 69
1, 659886, Note_off_c, 0, 74, 65
1, 659887, Note_off_c, 0, 88, 63
1, 659887, Note_off_c, 0, 76, 66
1, 659986, Control_c, 0, 64, 96
1, 660000, Control_c, 0, 64, 62
1, 660015, Control_c, 0, 64, 0
1, 660045, Control_c, 0, 64, 19
1, 660051, Note_on_c, 0, 76, 106
1, 660051, Note_on_c, 0, 88, 102
1, 660054, Note_on_c, 0, 69, 102
1, 660054, Note_on_c, 0, 81, 100
1, 660055, Note_on_c, 0, 57, 79
1, 660060, Control_c, 0, 64, 59
1, 660075, Control_c, 0, 64, 93
1, 660087, Note_off_c, 0, 69, 68
1, 660090, Control_c, 0, 64, 127
1, 660099, Note_off_c, 0, 57, 65
1, 660153, Note_off_c, 0, 81, 62
1, 660166, Note_off_c, 0, 76, 60
1, 660168, Note_off_c, 0, 88, 58
1, 660236, Note_on_c, 0, 40, 89
1, 660239, Note_on_c, 0, 28, 77
1, 660258, Note_off_c, 0, 40, 67
1, 660275, Note_off_c, 0, 28, 49
1, 660415, Poly_aftertouch_c, 0, 40, 0
1, 660428, Note_on_c, 0, 83, 99
1, 660432, Note_on_c, 0, 71, 97
1, 660438, Note_on_c, 0, 68, 93
1, 660444, Note_on_c, 0, 56, 79
1, 660459, Note_off_c, 0, 68, 71
1, 660474, Note_off_c, 0, 56, 65
1, 660476, Note_off_c, 0, 71, 65
1, 660495, Note_off_c, 0, 83, 65
1, 660606, Note_on_c, 0, 86, 102
1, 660608, Note_on_c, 0, 74, 97
1, 660614, Note_on_c, 0, 66, 87
1, 660616, Note_on_c, 0, 54, 83
1, 660644, Note_off_c, 0, 74, 67
1, 660652, Note_off_c, 0, 86, 60
1, 660654, Note_off_c, 0, 54, 61
1, 660655, Note_off_c, 0, 66, 62
1, 660749, Control_c, 0, 64, 100
1, 660764, Control_c, 0, 64, 69
1, 660778, Control_c, 0, 64, 48
1, 660785, Note_on_c, 0, 85, 101
1, 660787, Note_on_c, 0, 73, 99
1, 660793, Control_c, 0, 64, 52
1, 660795, Note_on_c, 0, 52, 89
1, 660796, Note_on_c, 0, 64, 89
1, 660806, Note_on_c, 0, 62, 83
1, 660808, Control_c, 0, 64, 69
1, 660823, Control_c, 0, 64, 127
1, 660829, Note_off_c, 0, 62, 55
1, 660867, Note_off_c, 0, 52, 64
1, 660871, Note_off_c, 0, 64, 62
1, 660898, Note_off_c, 0, 73, 62
1, 660900, Note_off_c, 0, 85, 63
1, 660968, Note_on_c, 0, 64, 95
1, 660970, Note_on_c, 0, 54, 80
1, 660972, Note_on_c, 0, 61, 79
1, 660999, Note_off_c, 0, 61, 67
1, 661005, Note_off_c, 0, 64, 68
1, 661029, Note_off_c, 0, 54, 65
1, 661151, Note_on_c, 0, 28, 87
1, 661151, Note_on_c, 0, 83, 96
1, 661153, Note_on_c, 0, 71, 102
1, 661158, Note_on_c, 0, 40, 81
1, 661166, Note_on_c, 0, 38, 63
1, 661175, Note_off_c, 0, 28, 66
1, 661181, Note_off_c, 0, 40, 65
1, 661191, Note_off_c, 0, 38, 57
1, 661306, Note_off_c, 0, 83, 58
1, 661314, Note_off_c, 0, 71, 53
1, 661322, Note_on_c, 0, 54, 92
1, 661327, Note_on_c, 0, 57, 86
1, 661328, Note_on_c, 0, 64, 88
1, 661330, Note_on_c, 0, 62, 87
1, 661350, Note_off_c, 0, 57, 67
1, 661356, Note_off_c, 0, 64, 65
1, 661357, Note_off_c, 0, 62, 65
1, 661361, Note_off_c, 0, 54, 66
1, 661483, Control_c, 0, 64, 80
1, 661498, Control_c, 0, 64, 57
1, 661508, Note_on_c, 0, 64, 82
1, 661513, Control_c, 0, 64, 35
1, 661514, Note_on_c, 0, 81, 101
1, 661515, Note_on_c, 0, 69, 102
1, 661515, Note_on_c, 0, 76, 101
1, 661527, Control_c, 0, 64, 43
1, 661542, Control_c, 0, 64, 61
1, 661550, Note_off_c, 0, 64, 66
1, 661557, Control_c, 0, 64, 80
1, 661572, Control_c, 0, 64, 127
1, 661607, Note_off_c, 0, 81, 62
1, 661613, Note_off_c, 0, 69, 63
1, 661614, Note_off_c, 0, 76, 58
1, 661697, Note_on_c, 0, 40, 88
1, 661703, Note_on_c, 0, 28, 77
1, 661721, Note_off_c, 0, 40, 66
1, 661729, Note_off_c, 0, 28, 57
1, 661877, Poly_aftertouch_c, 0, 40, 0
1, 661887, Note_on_c, 0, 80, 94
1, 661887, Note_on_c, 0, 64, 86
1, 661888, Note_on_c, 0, 68, 95
1, 661913, Note_off_c, 0, 64, 68
1, 661944, Note_off_c, 0, 68, 64
1, 661962, Note_off_c, 0, 80, 57
1, 662068, Note_on_c, 0, 78, 96
1, 662074, Note_on_c, 0, 66, 98
1, 662078, Note_on_c, 0, 74, 78
1, 662078, Note_on_c, 0, 69, 85
1, 662106, Note_off_c, 0, 74, 64
1, 662118, Note_off_c, 0, 66, 67
1, 662137, Note_off_c, 0, 69, 61
1, 662213, Note_off_c, 0, 78, 59
1, 662246, Note_on_c, 0, 64, 97
1, 662251, Note_on_c, 0, 76, 91
1, 662304, Note_off_c, 0, 64, 63
1, 662383, Note_off_c, 0, 76, 62
1, 662417, Note_on_c, 0, 66, 69
1, 662444, Note_on_c, 0, 73, 38
1, 662444, Note_off_c, 0, 66, 66
1, 662472, Note_off_c, 0, 73, 57
1, 662623, Note_on_c, 0, 64, 103
1, 662625, Note_on_c, 0, 52, 94
1, 662625, Note_on_c, 0, 100, 102
1, 662629, Note_on_c, 0, 88, 101
1, 662650, Note_off_c, 0, 100, 66
1, 662653, Note_on_c, 0, 53, 59
1, 662663, Note_off_c, 0, 88, 67
1, 662665, Note_off_c, 0, 64, 68
1, 662674, Note_off_c, 0, 52, 65
1, 662676, Note_off_c, 0, 53, 60
1, 662838, Note_on_c, 0, 88, 88
1, 662843, Note_on_c, 0, 78, 83
1, 662843, Note_on_c, 0, 81, 78
1, 662848, Note_on_c, 0, 86, 59
1, 662870, Note_off_c, 0, 81, 69
1, 662875, Note_off_c, 0, 78, 62
1, 662877, Note_off_c, 0, 86, 67
1, 662898, Note_off_c, 0, 88, 68
1, 663011, Control_c, 0, 64, 86
1, 663026, Control_c, 0, 64, 70
1, 663033, Note_on_c, 0, 28, 90
1, 663035, Note_on_c, 0, 40, 105
1, 663038, Note_on_c, 0, 100, 107
1, 663041, Control_c, 0, 64, 69
1, 663041, Note_on_c, 0, 88, 93
1, 663053, Note_off_c, 0, 100, 73
1, 663055, Note_off_c, 0, 28, 67
1, 663056, Control_c, 0, 64, 94
1, 663059, Note_on_c, 0, 34, 49
1, 663059, Note_on_c, 0, 89, 68
1, 663061, Note_on_c, 0, 99, 58
1, 663064, Note_off_c, 0, 88, 69
1, 663070, Control_c, 0, 64, 127
1, 663071, Note_on_c, 0, 38, 31
1, 663078, Note_off_c, 0, 40, 66
1, 663080, Note_off_c, 0, 89, 41
1, 663082, Note_off_c, 0, 99, 62
1, 663092, Note_off_c, 0, 34, 54
1, 663115, Note_off_c, 0, 38, 51
1, 663235, Note_on_c, 0, 58, 33
1, 663267, Note_on_c, 0, 88, 81
1, 663275, Note_on_c, 0, 78, 78
1, 663276, Note_on_c, 0, 81, 63
1, 663289, Note_on_c, 0, 56, 47
1, 663289, Note_on_c, 0, 65, 63
1, 663295, Note_on_c, 0, 85, 45
1, 663297, Note_on_c, 0, 64, 61
1, 663298, Note_off_c, 0, 78, 68
1, 663301, Note_off_c, 0, 81, 67
1, 663309, Note_off_c, 0, 65, 64
1, 663315, Note_off_c, 0, 64, 66
1, 663316, Note_off_c, 0, 88, 66
1, 663316, Note_off_c, 0, 85, 60
1, 663318, Note_off_c, 0, 56, 55
1, 663321, Note_off_c, 0, 58, 44
1, 663354, Poly_aftertouch_c, 0, 55, 0
1, 663388, Poly_aftertouch_c, 0, 55, 0
1, 663434, Note_on_c, 0, 100, 99
1, 663435, Note_on_c, 0, 71, 105
1, 663439, Note_on_c, 0, 88, 94
1, 663443, Note_on_c, 0, 59, 86
1, 663451, Note_off_c, 0, 100, 74
1, 663458, Note_on_c, 0, 98, 63
1, 663459, Note_off_c, 0, 98, 127
1, 663464, Note_on_c, 0, 60, 57
1, 663464, Note_off_c, 0, 88, 68
1, 663467, Note_off_c, 0, 59, 71
1, 663473, Note_off_c, 0, 71, 66
1, 663488, Note_off_c, 0, 60, 59
1, 663613, Note_on_c, 0, 74, 93
1, 663614, Note_on_c, 0, 62, 95
1, 663620, Note_on_c, 0, 88, 88
1, 663625, Note_on_c, 0, 78, 84
1, 663628, Note_on_c, 0, 86, 62
1, 663645, Note_off_c, 0, 78, 70
1, 663652, Note_on_c, 0, 81, 41
1, 663656, Note_off_c, 0, 62, 66
1, 663656, Note_off_c, 0, 74, 66
1, 663656, Note_off_c, 0, 86, 67
1, 663670, Note_off_c, 0, 88, 67
1, 663679, Note_off_c, 0, 81, 54
1, 663795, Note_on_c, 0, 73, 104
1, 663797, Note_on_c, 0, 100, 97
1, 663798, Note_on_c, 0, 61, 95
1, 663806, Note_on_c, 0, 88, 84
1, 663814, Note_off_c, 0, 100, 74
1, 663828, Note_off_c, 0, 88, 73
1, 663834, Note_off_c, 0, 73, 69
1, 663854, Note_off_c, 0, 61, 65
1, 663989, Note_on_c, 0, 85, 81
1, 663992, Note_on_c, 0, 78, 73
1, 663995, Note_on_c, 0, 81, 65
1, 664011, Note_on_c, 0, 40, 53
1, 664012, Note_off_c, 0, 81, 68
1, 664015, Note_on_c, 0, 52, 53
1, 664015, Note_off_c, 0, 78, 68
1, 664030, Note_off_c, 0, 85, 63
1, 664036, Note_off_c, 0, 40, 62
1, 664036, Note_off_c, 0, 52, 64
1, 664090, Poly_aftertouch_c, 0, 50, 0
1, 664158, Note_on_c, 0, 71, 109
1, 664162, Note_on_c, 0, 98, 77
1, 664164, Note_on_c, 0, 59, 94
1, 664166, Note_on_c, 0, 100, 73
1, 664173, Note_on_c, 0, 86, 73
1, 664173, Note_on_c, 0, 88, 63
1, 664182, Note_off_c, 0, 100, 65
1, 664185, Note_off_c, 0, 98, 68
1, 664188, Note_off_c, 0, 86, 70
1, 664190, Note_off_c, 0, 88, 68
1, 664193, Note_off_c, 0, 71, 69
1, 664195, Note_off_c, 0, 59, 67
1, 664336, Note_on_c, 0, 86, 74
1, 664342, Note_on_c, 0, 81, 77
1, 664346, Note_on_c, 0, 52, 86
1, 664351, Note_on_c, 0, 78, 71
1, 664352, Note_on_c, 0, 40, 78
1, 664364, Note_off_c, 0, 81, 69
1, 664371, Note_off_c, 0, 52, 67
1, 664373, Note_off_c, 0, 40, 62
1, 664373, Note_off_c, 0, 78, 65
1, 664387, Note_off_c, 0, 86, 65
1, 664539, Control_c, 0, 64, 87
1, 664553, Control_c, 0, 64, 63
1, 664561, Note_on_c, 0, 69, 111
1, 664564, Note_on_c, 0, 93, 100
1, 664564, Note_on_c, 0, 100, 107
1, 664565, Note_on_c, 0, 57, 95
1, 664567, Note_on_c, 0, 88, 103
1, 664568, Control_c, 0, 64, 47
1, 664583, Control_c, 0, 64, 50
1, 664605, Note_off_c, 0, 69, 69
1, 664606, Control_c, 0, 64, 67
1, 664614, Note_off_c, 0, 57, 64
1, 664621, Control_c, 0, 64, 96
1, 664635, Control_c, 0, 64, 127
1, 664691, Note_off_c, 0, 100, 60
1, 664702, Note_off_c, 0, 93, 63
1, 664712, Note_off_c, 0, 88, 66
1, 664770, Note_on_c, 0, 40, 77
1, 664779, Note_on_c, 0, 28, 68
1, 664796, Note_off_c, 0, 40, 66
1, 664815, Note_off_c, 0, 28, 49
1, 664965, Note_on_c, 0, 95, 99
1, 664969, Note_on_c, 0, 64, 86
1, 664969, Note_on_c, 0, 83, 107
1, 664971, Note_on_c, 0, 76, 85
1, 664993, Note_off_c, 0, 76, 69
1, 664995, Note_off_c, 0, 64, 68
1, 665028, Note_off_c, 0, 83, 66
1, 665048, Note_off_c, 0, 95, 66
1, 665145, Note_on_c, 0, 98, 104
1, 665151, Note_on_c, 0, 64, 86
1, 665151, Note_on_c, 0, 86, 95
1, 665153, Note_on_c, 0, 52, 82
1, 665176, Note_off_c, 0, 52, 67
1, 665177, Note_off_c, 0, 64, 66
1, 665189, Note_off_c, 0, 86, 64
1, 665193, Note_off_c, 0, 98, 63
1, 665324, Note_on_c, 0, 97, 104
1, 665326, Note_on_c, 0, 69, 97
1, 665329, Note_on_c, 0, 85, 103
1, 665330, Note_on_c, 0, 57, 93
1, 665366, Note_off_c, 0, 97, 68
1, 665369, Note_off_c, 0, 69, 68
1, 665371, Note_off_c, 0, 57, 64
1, 665371, Note_off_c, 0, 85, 66
1, 665503, Note_on_c, 0, 73, 90
1, 665503, Note_on_c, 0, 81, 93
1, 665508, Note_on_c, 0, 69, 74
1, 665524, Note_off_c, 0, 73, 69
1, 665530, Note_off_c, 0, 69, 70
1, 665531, Note_on_c, 0, 43, 55
1, 665539, Note_off_c, 0, 81, 62
1, 665545, Note_on_c, 0, 55, 37
1, 665562, Note_off_c, 0, 43, 58
1, 665579, Note_off_c, 0, 55, 51
1, 665684, Note_on_c, 0, 83, 103
1, 665685, Note_on_c, 0, 95, 100
1, 665689, Note_on_c, 0, 56, 88
1, 665690, Note_on_c, 0, 68, 79
1, 665696, Note_on_c, 0, 94, 75
1, 665700, Note_off_c, 0, 95, 76
1, 665710, Note_off_c, 0, 68, 69
1, 665712, Note_off_c, 0, 94, 42
1, 665712, Note_off_c, 0, 56, 66
1, 665715, Note_off_c, 0, 83, 69
1, 665774, Note_on_c, 0, 68, 34
1, 665798, Note_off_c, 0, 68, 59
1, 665854, Note_on_c, 0, 69, 89
1, 665854, Note_on_c, 0, 80, 85
1, 665864, Note_on_c, 0, 53, 67
1, 665872, Note_on_c, 0, 74, 55
1, 665873, Note_off_c, 0, 69, 71
1, 665874, Note_on_c, 0, 41, 52
1, 665884, Note_off_c, 0, 53, 61
1, 665893, Note_off_c, 0, 74, 61
1, 665899, Note_on_c, 0, 76, 27
1, 665899, Note_off_c, 0, 80, 61
1, 665903, Note_off_c, 0, 41, 56
1, 665935, Note_off_c, 0, 76, 44
1, 665943, Note_on_c, 0, 69, 26
1, 665981, Note_off_c, 0, 69, 45
1, 665990, Control_c, 0, 64, 92
1, 666005, Control_c, 0, 64, 70
1, 666021, Control_c, 0, 64, 63
1, 666034, Note_on_c, 0, 66, 101
1, 666036, Control_c, 0, 64, 66
1, 666036, Note_on_c, 0, 54, 91
1, 666038, Note_on_c, 0, 93, 97
1, 666043, Note_on_c, 0, 81, 93
1, 666050, Control_c, 0, 64, 84
1, 666051, Note_on_c, 0, 83, 71
1, 666056, Note_off_c, 0, 93, 69
1, 666063, Note_off_c, 0, 81, 69
1, 666065, Control_c, 0, 64, 127
1, 666066, Note_off_c, 0, 83, 70
1, 666074, Note_off_c, 0, 66, 63
1, 666081, Note_off_c, 0, 54, 61
1, 666154, Poly_aftertouch_c, 0, 92, 0
1, 666251, Note_on_c, 0, 76, 87
1, 666261, Note_on_c, 0, 66, 85
1, 666263, Note_on_c, 0, 73, 72
1, 666272, Note_on_c, 0, 69, 78
1, 666281, Note_on_c, 0, 30, 4
1, 666328, Note_off_c, 0, 69, 64
1, 666335, Note_off_c, 0, 66, 62
1, 666339, Control_c, 0, 64, 73
1, 666340, Note_off_c, 0, 30, 34
1, 666353, Note_off_c, 0, 73, 64
1, 666354, Control_c, 0, 64, 0
1, 666355, Note_off_c, 0, 76, 64
1, 666415, Note_on_c, 0, 28, 91
1, 666415, Note_on_c, 0, 40, 113
1, 666428, Control_c, 0, 64, 79
1, 666443, Control_c, 0, 64, 127
1, 666445, Note_on_c, 0, 29, 50
1, 666462, Note_off_c, 0, 28, 64
1, 666476, Note_off_c, 0, 40, 65
1, 666477, Note_on_c, 0, 80, 46
1, 666477, Note_off_c, 0, 29, 36
1, 666479, Note_on_c, 0, 31, 9
1, 666514, Note_off_c, 0, 31, 0
1, 666518, Note_off_c, 0, 80, 62
1, 666534, Poly_aftertouch_c, 0, 31, 0
1, 666594, Note_on_c, 0, 88, 94
1, 666596, Note_on_c, 0, 78, 99
1, 666598, Note_on_c, 0, 56, 82
1, 666600, Note_on_c, 0, 81, 87
1, 666603, Note_on_c, 0, 86, 74
1, 666610, Note_on_c, 0, 44, 75
1, 666624, Note_on_c, 0, 42, 31
1, 666640, Note_off_c, 0, 78, 65
1, 666641, Note_off_c, 0, 81, 66
1, 666648, Note_off_c, 0, 86, 60
1, 666650, Note_off_c, 0, 44, 64
1, 666651, Note_off_c, 0, 56, 62
1, 666656, Note_on_c, 0, 54, 9
1, 666664, Note_off_c, 0, 42, 51
1, 666664, Note_off_c, 0, 88, 65
1, 666686, Note_off_c, 0, 54, 0
1, 666713, Poly_aftertouch_c, 0, 54, 0
1, 666778, Note_on_c, 0, 59, 117
1, 666779, Note_on_c, 0, 47, 91
1, 666779, Note_on_c, 0, 93, 105
1, 666784, Note_on_c, 0, 83, 97
1, 666795, Note_off_c, 0, 93, 72
1, 666807, Note_off_c, 0, 83, 69
1, 666808, Note_on_c, 0, 48, 60
1, 666816, Note_off_c, 0, 59, 69
1, 666835, Note_off_c, 0, 48, 56
1, 666835, Note_off_c, 0, 47, 66
1, 666907, Poly_aftertouch_c, 0, 53, 0
1, 666965, Note_on_c, 0, 78, 80
1, 666975, Note_on_c, 0, 40, 72
1, 666978, Note_on_c, 0, 76, 59
1, 666979, Note_on_c, 0, 69, 54
1, 666984, Note_on_c, 0, 28, 51
1, 666986, Note_on_c, 0, 73, 53
1, 666992, Note_off_c, 0, 40, 69
1, 666999, Note_off_c, 0, 76, 64
1, 667002, Note_off_c, 0, 69, 62
1, 667007, Note_off_c, 0, 73, 61
1, 667014, Note_off_c, 0, 78, 62
1, 667018, Note_off_c, 0, 28, 55
1, 667081, Note_on_c, 0, 40, 11
1, 667120, Note_off_c, 0, 40, 43
1, 667136, Note_on_c, 0, 92, 99
1, 667138, Note_on_c, 0, 64, 100
1, 667141, Note_on_c, 0, 52, 99
1, 667141, Note_on_c, 0, 80, 94
1, 667150, Note_off_c, 0, 92, 77
1, 667159, Note_off_c, 0, 80, 68
1, 667166, Note_on_c, 0, 90, 48
1, 667169, Note_off_c, 0, 64, 68
1, 667172, Note_off_c, 0, 52, 66
1, 667183, Note_on_c, 0, 79, 38
1, 667184, Note_off_c, 0, 79, 127
1, 667189, Note_off_c, 0, 90, 59
1, 667226, Poly_aftertouch_c, 0, 54, 0
1, 667268, Poly_aftertouch_c, 0, 54, 0
1, 667324, Note_on_c, 0, 76, 86
1, 667328, Note_on_c, 0, 40, 79
1, 667329, Note_on_c, 0, 28, 68
1, 667330, Poly_aftertouch_c, 0, 68, 127
1, 667333, Note_on_c, 0, 66, 64
1, 667345, Note_off_c, 0, 76, 70
1, 667352, Note_off_c, 0, 28, 59
1, 667352, Note_off_c, 0, 66, 65
1, 667357, Note_off_c, 0, 40, 65
1, 667372, Poly_aftertouch_c, 0, 68, 0
1, 667536, Note_on_c, 0, 76, 107
1, 667536, Note_on_c, 0, 78, 99
1, 667538, Note_on_c, 0, 64, 91
1, 667542, Note_on_c, 0, 90, 76
1, 667550, Note_on_c, 0, 89, 65
1, 667551, Note_off_c, 0, 78, 74
1, 667554, Note_on_c, 0, 77, 68
1, 667555, Note_off_c, 0, 77, 127
1, 667557, Note_off_c, 0, 90, 69
1, 667567, Note_off_c, 0, 64, 61
1, 667568, Note_off_c, 0, 89, 67
1, 667570, Note_off_c, 0, 76, 66
1, 667640, Poly_aftertouch_c, 0, 88, 0
1, 667714, Poly_aftertouch_c, 0, 68, 127
1, 667724, Note_on_c, 0, 76, 38
1, 667727, Note_on_c, 0, 66, 76
1, 667742, Note_on_c, 0, 73, 49
1, 667752, Note_off_c, 0, 76, 44
1, 667771, Note_off_c, 0, 66, 63
1, 667772, Note_off_c, 0, 73, 49
1, 667811, Poly_aftertouch_c, 0, 68, 0
1, 667908, Note_on_c, 0, 72, 77
1, 667920, Note_on_c, 0, 40, 62
1, 667920, Note_on_c, 0, 71, 67
1, 667924, Note_on_c, 0, 59, 52
1, 667934, Note_off_c, 0, 72, 67
1, 667938, Note_off_c, 0, 71, 65
1, 667939, Note_off_c, 0, 40, 66
1, 667947, Note_on_c, 0, 70, 24
1, 667951, Note_off_c, 0, 59, 59
1, 667983, Note_off_c, 0, 70, 51
1, 668081, Note_on_c, 0, 74, 95
1, 668082, Note_on_c, 0, 62, 93
1, 668082, Note_on_c, 0, 80, 105
1, 668082, Note_on_c, 0, 92, 104
1, 668089, Note_on_c, 0, 86, 84
1, 668105, Note_off_c, 0, 62, 71
1, 668111, Note_off_c, 0, 86, 69
1, 668111, Note_off_c, 0, 74, 63
1, 668116, Note_off_c, 0, 80, 66
1, 668131, Note_on_c, 0, 93, 15
1, 668147, Note_off_c, 0, 92, 63
1, 668168, Note_off_c, 0, 93, 34
1, 668254, Note_on_c, 0, 73, 107
1, 668259, Note_on_c, 0, 61, 100
1, 668261, Note_on_c, 0, 83, 105
1, 668263, Note_on_c, 0, 95, 96
1, 668276, Note_on_c, 0, 93, 68
1, 668281, Note_on_c, 0, 85, 67
1, 668281, Note_off_c, 0, 95, 73
1, 668287, Note_on_c, 0, 92, 54
1, 668290, Note_off_c, 0, 93, 67
1, 668295, Note_off_c, 0, 73, 66
1, 668295, Note_off_c, 0, 83, 69
1, 668297, Note_off_c, 0, 85, 68
1, 668307, Note_off_c, 0, 61, 60
1, 668311, Note_off_c, 0, 92, 61
1, 668443, Note_on_c, 0, 69, 87
1, 668445, Note_on_c, 0, 88, 84
1, 668448, Note_on_c, 0, 66, 87
1, 668464, Note_on_c, 0, 78, 58
1, 668481, Note_off_c, 0, 69, 66
1, 668487, Note_off_c, 0, 78, 62
1, 668490, Note_off_c, 0, 88, 67
1, 668492, Note_off_c, 0, 66, 65
1, 668504, Note_on_c, 0, 81, 3
1, 668541, Note_off_c, 0, 81, 34
1, 668613, Note_on_c, 0, 100, 99
1, 668616, Note_on_c, 0, 71, 103
1, 668619, Note_on_c, 0, 59, 91
1, 668620, Note_on_c, 0, 88, 97
1, 668636, Note_off_c, 0, 100, 68
1, 668648, Note_on_c, 0, 89, 32
1, 668649, Note_off_c, 0, 89, 127
1, 668651, Note_on_c, 0, 69, 40
1, 668652, Note_off_c, 0, 69, 127
1, 668654, Note_off_c, 0, 88, 65
1, 668656, Note_off_c, 0, 59, 66
1, 668660, Note_off_c, 0, 71, 65
1, 668791, Note_on_c, 0, 88, 84
1, 668800, Note_on_c, 0, 78, 81
1, 668800, Note_on_c, 0, 81, 65
1, 668800, Note_on_c, 0, 69, 62
1, 668805, Note_on_c, 0, 66, 73
1, 668805, Note_on_c, 0, 86, 67
1, 668812, Note_on_c, 0, 67, 62
1, 668821, Note_off_c, 0, 78, 69
1, 668822, Note_off_c, 0, 86, 65
1, 668826, Note_off_c, 0, 81, 68
1, 668828, Note_off_c, 0, 69, 67
1, 668832, Note_off_c, 0, 67, 61
1, 668833, Note_off_c, 0, 66, 66
1, 668838, Note_off_c, 0, 88, 67
1, 668955, Control_c, 0, 64, 82
1, 668970, Control_c, 0, 64, 65
1, 668985, Control_c, 0, 64, 55
1, 668993, Note_on_c, 0, 100, 103
1, 668998, Note_on_c, 0, 88, 103
1, 668999, Control_c, 0, 64, 54
1, 669000, Note_on_c, 0, 69, 100
1, 669001, Note_on_c, 0, 93, 97
1, 669004, Note_on_c, 0, 57, 86
1, 669014, Control_c, 0, 64, 63
1, 669029, Control_c, 0, 64, 72
1, 669036, Note_off_c, 0, 69, 68
1, 669044, Control_c, 0, 64, 85
1, 669053, Note_off_c, 0, 57, 65
1, 669059, Control_c, 0, 64, 99
1, 669074, Control_c, 0, 64, 106
1, 669096, Control_c, 0, 64, 106
1, 669111, Control_c, 0, 64, 107
1, 669125, Control_c, 0, 64, 107
1, 669127, Note_off_c, 0, 100, 57
1, 669157, Note_off_c, 0, 93, 62
1, 669181, Note_off_c, 0, 88, 65
1, 669214, Control_c, 0, 64, 108
1, 669217, Note_on_c, 0, 40, 105
1, 669220, Note_on_c, 0, 28, 96
1, 669230, Control_c, 0, 64, 127
1, 669245, Note_off_c, 0, 28, 68
1, 669256, Note_off_c, 0, 40, 64
1, 669389, Poly_aftertouch_c, 0, 28, 0
1, 669423, Note_on_c, 0, 92, 90
1, 669425, Note_on_c, 0, 95, 94
1, 669426, Note_on_c, 0, 83, 99
1, 669437, Note_on_c, 0, 56, 95
1, 669438, Note_on_c, 0, 68, 97
1, 669473, Note_off_c, 0, 56, 60
1, 669474, Note_off_c, 0, 68, 66
1, 669485, Note_off_c, 0, 83, 66
1, 669505, Note_off_c, 0, 95, 67
1, 669509, Note_off_c, 0, 92, 66
1, 669591, Note_on_c, 0, 98, 97
1, 669598, Note_on_c, 0, 66, 100
1, 669599, Note_on_c, 0, 90, 89
1, 669603, Note_on_c, 0, 54, 94
1, 669603, Note_on_c, 0, 86, 88
1, 669603, Note_on_c, 0, 88, 79
1, 669628, Note_off_c, 0, 88, 63
1, 669631, Note_off_c, 0, 86, 59
1, 669641, Note_off_c, 0, 90, 63
1, 669643, Note_off_c, 0, 66, 66
1, 669646, Note_off_c, 0, 54, 65
1, 669659, Note_off_c, 0, 98, 64
1, 669764, Note_on_c, 0, 97, 101
1, 669776, Note_on_c, 0, 64, 101
1, 669777, Note_on_c, 0, 52, 89
1, 669777, Note_on_c, 0, 85, 90
1, 669794, Note_off_c, 0, 85, 71
1, 669798, Note_off_c, 0, 97, 68
1, 669864, Note_on_c, 0, 85, 34
1, 669870, Note_off_c, 0, 52, 63
1, 669883, Note_off_c, 0, 64, 61
1, 669894, Note_off_c, 0, 85, 47
1, 669947, Note_on_c, 0, 61, 83
1, 669949, Note_on_c, 0, 88, 97
1, 669953, Note_on_c, 0, 64, 89
1, 669953, Note_on_c, 0, 78, 90
1, 669957, Note_on_c, 0, 54, 75
1, 669964, Note_on_c, 0, 81, 60
1, 669974, Note_off_c, 0, 78, 69
1, 669981, Note_off_c, 0, 81, 67
1, 669984, Note_off_c, 0, 64, 66
1, 669986, Note_off_c, 0, 61, 65
1, 669996, Note_off_c, 0, 88, 64
1, 670013, Note_off_c, 0, 54, 64
1, 670126, Note_on_c, 0, 40, 98
1, 670129, Note_on_c, 0, 28, 93
1, 670129, Note_on_c, 0, 95, 102
1, 670133, Note_on_c, 0, 83, 103
1, 670150, Note_off_c, 0, 28, 66
1, 670156, Note_off_c, 0, 40, 66
1, 670174, Note_off_c, 0, 83, 63
1, 670225, Note_on_c, 0, 83, 41
1, 670231, Note_on_c, 0, 28, 16
1, 670254, Note_off_c, 0, 28, 54
1, 670263, Note_off_c, 0, 83, 50
1, 670292, Note_off_c, 0, 95, 42
1, 670302, Note_on_c, 0, 54, 85
1, 670302, Note_on_c, 0, 64, 95
1, 670311, Note_on_c, 0, 62, 83
1, 670312, Note_on_c, 0, 57, 69
1, 670315, Note_on_c, 0, 59, 71
1, 670326, Note_off_c, 0, 64, 68
1, 670327, Note_off_c, 0, 62, 70
1, 670331, Note_off_c, 0, 54, 68
1, 670332, Note_off_c, 0, 59, 68
1, 670333, Note_off_c, 0, 57, 65
1, 670392, Poly_aftertouch_c, 0, 55, 127
1, 670409, Poly_aftertouch_c, 0, 56, 0
1, 670421, Poly_aftertouch_c, 0, 55, 0
1, 670478, Poly_aftertouch_c, 0, 62, 0
1, 670488, Note_on_c, 0, 93, 100
1, 670489, Note_on_c, 0, 88, 101
1, 670490, Note_on_c, 0, 76, 112
1, 670490, Note_on_c, 0, 81, 95
1, 670499, Note_on_c, 0, 64, 91
1, 670506, Note_on_c, 0, 62, 78
1, 670520, Note_off_c, 0, 76, 69
1, 670520, Note_off_c, 0, 64, 69
1, 670529, Note_off_c, 0, 62, 69
1, 670549, Note_on_c, 0, 66, 13
1, 670600, Note_off_c, 0, 93, 62
1, 670604, Note_off_c, 0, 81, 60
1, 670609, Note_off_c, 0, 66, 46
1, 670612, Note_off_c, 0, 88, 64
1, 670678, Poly_aftertouch_c, 0, 62, 0
1, 670701, Note_on_c, 0, 29, 86
1, 670706, Note_on_c, 0, 40, 76
1, 670724, Note_off_c, 0, 29, 64
1, 670733, Note_off_c, 0, 40, 63
1, 670785, Poly_aftertouch_c, 0, 41, 0
1, 670824, Poly_aftertouch_c, 0, 41, 0
1, 670882, Note_on_c, 0, 92, 99
1, 670883, Note_on_c, 0, 80, 100
1, 670889, Note_on_c, 0, 64, 94
1, 670897, Note_on_c, 0, 52, 87
1, 670919, Note_off_c, 0, 52, 67
1, 670921, Note_off_c, 0, 64, 65
1, 670976, Note_off_c, 0, 80, 56
1, 671026, Note_off_c, 0, 92, 60
1, 671101, Poly_aftertouch_c, 0, 68, 127
1, 671117, Note_on_c, 0, 78, 102
1, 671117, Note_on_c, 0, 90, 106
1, 671118, Note_on_c, 0, 66, 96
1, 671122, Note_on_c, 0, 76, 87
1, 671122, Note_on_c, 0, 69, 92
1, 671129, Note_on_c, 0, 74, 80
1, 671133, Note_on_c, 0, 68, 33
1, 671143, Note_off_c, 0, 76, 70
1, 671149, Note_off_c, 0, 69, 68
1, 671149, Note_off_c, 0, 78, 67
1, 671150, Note_off_c, 0, 74, 70
1, 671163, Note_off_c, 0, 68, 54
1, 671168, Note_off_c, 0, 66, 66
1, 671173, Note_off_c, 0, 90, 67
1, 671225, Note_on_c, 0, 74, 18
1, 671226, Note_off_c, 0, 74, 127
1, 671372, Control_c, 0, 64, 114
1, 671387, Control_c, 0, 64, 71
1, 671402, Control_c, 0, 64, 41
1, 671417, Control_c, 0, 64, 0
1, 671432, Control_c, 0, 64, 11
1, 671438, Note_on_c, 0, 100, 101
1, 671441, Note_on_c, 0, 88, 99
1, 671446, Control_c, 0, 64, 58
1, 671449, Note_on_c, 0, 28, 83
1, 671449, Note_on_c, 0, 40, 98
1, 671461, Control_c, 0, 64, 101
1, 671469, Note_off_c, 0, 100, 70
1, 671473, Note_off_c, 0, 28, 63
1, 671476, Control_c, 0, 64, 127
1, 671481, Note_off_c, 0, 88, 71
1, 671487, Note_off_c, 0, 40, 65
1, 671655, Note_on_c, 0, 76, 88
1, 671660, Note_on_c, 0, 73, 82
1, 671663, Note_on_c, 0, 66, 81
1, 671666, Note_on_c, 0, 69, 73
1, 671668, Note_on_c, 0, 54, 69
1, 671676, Note_on_c, 0, 57, 64
1, 671679, Note_off_c, 0, 73, 70
1, 671688, Note_off_c, 0, 66, 68
1, 671693, Note_off_c, 0, 69, 68
1, 671694, Note_off_c, 0, 76, 64
1, 671702, Note_off_c, 0, 57, 66
1, 671711, Note_off_c, 0, 54, 64
1, 671819, Poly_aftertouch_c, 0, 73, 0
1, 671840, Note_on_c, 0, 100, 98
1, 671843, Note_on_c, 0, 88, 92
1, 671849, Note_on_c, 0, 40, 71
1, 671856, Note_off_c, 0, 100, 74
1, 671857, Note_on_c, 0, 29, 51
1, 671860, Note_off_c, 0, 88, 73
1, 671864, Note_on_c, 0, 98, 60
1, 671865, Note_off_c, 0, 98, 127
1, 671871, Note_off_c, 0, 40, 65
1, 671882, Note_off_c, 0, 29, 35
1, 672015, Note_on_c, 0, 76, 96
1, 672016, Note_on_c, 0, 74, 92
1, 672022, Note_on_c, 0, 69, 80
1, 672028, Note_on_c, 0, 66, 70
1, 672031, Note_on_c, 0, 54, 68
1, 672034, Note_on_c, 0, 57, 65
1, 672037, Note_off_c, 0, 74, 70
1, 672044, Note_off_c, 0, 69, 70
1, 672048, Note_off_c, 0, 76, 62
1, 672055, Note_off_c, 0, 66, 67
1, 672059, Note_off_c, 0, 57, 67
1, 672068, Note_off_c, 0, 54, 66
1, 672209, Note_on_c, 0, 100, 100
1, 672210, Note_on_c, 0, 28, 82
1, 672212, Note_on_c, 0, 88, 99
1, 672213, Note_on_c, 0, 40, 87
1, 672225, Note_off_c, 0, 100, 76
1, 672234, Note_on_c, 0, 98, 62
1, 672235, Note_off_c, 0, 98, 127
1, 672240, Note_off_c, 0, 28, 58
1, 672240, Note_off_c, 0, 40, 65
1, 672240, Note_off_c, 0, 88, 67
1, 672386, Note_on_c, 0, 76, 98
1, 672389, Note_on_c, 0, 73, 90
1, 672390, Note_on_c, 0, 69, 83
1, 672397, Note_on_c, 0, 54, 73
1, 672401, Note_on_c, 0, 66, 73
1, 672410, Note_off_c, 0, 73, 71
1, 672413, Note_off_c, 0, 69, 72
1, 672417, Note_on_c, 0, 57, 64
1, 672422, Note_off_c, 0, 76, 66
1, 672430, Note_off_c, 0, 66, 66
1, 672438, Note_off_c, 0, 57, 63
1, 672443, Note_off_c, 0, 54, 63
1, 672485, Note_on_c, 0, 73, 12
1, 672495, Note_on_c, 0, 69, 9
1, 672528, Note_off_c, 0, 73, 38
1, 672544, Note_off_c, 0, 69, 53
1, 672571, Note_on_c, 0, 100, 104
1, 672577, Note_on_c, 0, 28, 82
1, 672582, Note_on_c, 0, 86, 81
1, 672582, Note_on_c, 0, 88, 75
1, 672583, Note_on_c, 0, 40, 76
1, 672586, Note_off_c, 0, 100, 76
1, 672588, Note_on_c, 0, 98, 73
1, 672589, Note_off_c, 0, 98, 127
1, 672603, Note_off_c, 0, 86, 71
1, 672605, Note_off_c, 0, 28, 57
1, 672607, Note_off_c, 0, 88, 69
1, 672610, Note_off_c, 0, 40, 65
1, 672743, Note_on_c, 0, 56, 59
1, 672743, Note_on_c, 0, 76, 95
1, 672745, Note_on_c, 0, 74, 93
1, 672750, Note_on_c, 0, 69, 78
1, 672769, Note_off_c, 0, 74, 69
1, 672775, Note_on_c, 0, 66, 47
1, 672775, Note_off_c, 0, 69, 68
1, 672782, Note_off_c, 0, 76, 63
1, 672786, Note_on_c, 0, 54, 35
1, 672791, Note_off_c, 0, 56, 63
1, 672800, Note_off_c, 0, 66, 41
1, 672815, Note_off_c, 0, 54, 58
1, 672935, Note_on_c, 0, 100, 102
1, 672940, Note_on_c, 0, 88, 96
1, 672946, Note_on_c, 0, 28, 67
1, 672951, Note_off_c, 0, 100, 76
1, 672958, Note_on_c, 0, 38, 47
1, 672960, Note_off_c, 0, 88, 72
1, 672973, Note_off_c, 0, 28, 57
1, 672989, Note_off_c, 0, 38, 53
1, 673036, Poly_aftertouch_c, 0, 26, 0
1, 673112, Note_on_c, 0, 76, 91
1, 673116, Note_on_c, 0, 73, 88
1, 673116, Note_on_c, 0, 54, 75
1, 673121, Note_on_c, 0, 69, 75
1, 673123, Note_on_c, 0, 66, 77
1, 673128, Note_on_c, 0, 57, 62
1, 673135, Note_off_c, 0, 73, 70
1, 673146, Note_off_c, 0, 69, 69
1, 673149, Note_off_c, 0, 66, 68
1, 673152, Note_off_c, 0, 76, 64
1, 673157, Note_off_c, 0, 57, 65
1, 673170, Note_off_c, 0, 54, 65
1, 673271, Poly_aftertouch_c, 0, 73, 0
1, 673294, Note_on_c, 0, 100, 103
1, 673295, Note_on_c, 0, 88, 96
1, 673303, Note_on_c, 0, 40, 76
1, 673312, Note_on_c, 0, 28, 52
1, 673313, Note_off_c, 0, 100, 68
1, 673313, Note_off_c, 0, 88, 71
1, 673325, Note_on_c, 0, 29, 37
1, 673328, Note_off_c, 0, 40, 64
1, 673336, Note_off_c, 0, 28, 61
1, 673363, Note_off_c, 0, 29, 48
1, 673447, Poly_aftertouch_c, 0, 40, 127
1, 673462, Note_on_c, 0, 76, 97
1, 673466, Note_on_c, 0, 73, 87
1, 673469, Note_on_c, 0, 69, 86
1, 673470, Note_on_c, 0, 54, 77
1, 673472, Note_on_c, 0, 66, 79
1, 673479, Note_on_c, 0, 57, 70
1, 673480, Poly_aftertouch_c, 0, 40, 0
1, 673486, Note_off_c, 0, 73, 70
1, 673491, Note_off_c, 0, 69, 70
1, 673493, Note_off_c, 0, 66, 70
1, 673502, Note_off_c, 0, 76, 66
1, 673503, Note_off_c, 0, 57, 66
1, 673519, Note_off_c, 0, 54, 65
1, 673563, Note_on_c, 0, 69, 18
1, 673566, Note_on_c, 0, 73, 12
1, 673602, Note_off_c, 0, 69, 46
1, 673619, Note_off_c, 0, 73, 36
1, 673650, Note_on_c, 0, 100, 103
1, 673652, Note_on_c, 0, 88, 98
1, 673665, Note_on_c, 0, 28, 61
1, 673665, Note_on_c, 0, 40, 73
1, 673671, Note_off_c, 0, 100, 68
1, 673672, Note_on_c, 0, 29, 58
1, 673679, Note_off_c, 0, 88, 67
1, 673685, Note_off_c, 0, 28, 63
1, 673689, Note_off_c, 0, 40, 64
1, 673706, Note_off_c, 0, 29, 53
1, 673822, Note_on_c, 0, 76, 99
1, 673826, Note_on_c, 0, 73, 95
1, 673830, Note_on_c, 0, 69, 83
1, 673834, Note_on_c, 0, 66, 79
1, 673836, Note_on_c, 0, 54, 76
1, 673846, Note_on_c, 0, 57, 69
1, 673846, Note_off_c, 0, 73, 69
1, 673852, Note_off_c, 0, 69, 70
1, 673858, Note_off_c, 0, 66, 69
1, 673859, Note_off_c, 0, 76, 67
1, 673873, Note_off_c, 0, 57, 65
1, 673877, Note_off_c, 0, 54, 65
1, 673931, Note_on_c, 0, 69, 14
1, 673971, Note_off_c, 0, 69, 54
1, 673998, Poly_aftertouch_c, 0, 66, 0
1, 674001, Note_on_c, 0, 100, 102
1, 674005, Note_on_c, 0, 88, 101
1, 674013, Note_on_c, 0, 28, 60
1, 674015, Note_on_c, 0, 40, 69
1, 674019, Note_off_c, 0, 100, 73
1, 674025, Note_off_c, 0, 88, 71
1, 674028, Note_on_c, 0, 29, 43
1, 674034, Note_off_c, 0, 40, 66
1, 674048, Note_off_c, 0, 28, 54
1, 674065, Note_off_c, 0, 29, 46
1, 674165, Note_on_c, 0, 76, 99
1, 674168, Note_on_c, 0, 69, 91
1, 674170, Note_on_c, 0, 73, 88
1, 674177, Note_on_c, 0, 54, 80
1, 674180, Note_on_c, 0, 66, 84
1, 674182, Note_on_c, 0, 58, 42
1, 674189, Note_off_c, 0, 73, 72
1, 674190, Note_off_c, 0, 69, 71
1, 674199, Note_on_c, 0, 57, 63
1, 674203, Note_off_c, 0, 66, 69
1, 674203, Note_off_c, 0, 76, 68
1, 674210, Note_off_c, 0, 58, 57
1, 674221, Note_off_c, 0, 54, 61
1, 674223, Note_off_c, 0, 57, 59
1, 674258, Note_on_c, 0, 73, 22
1, 674291, Note_off_c, 0, 73, 49
1, 674351, Note_on_c, 0, 100, 101
1, 674352, Note_on_c, 0, 88, 108
1, 674360, Note_on_c, 0, 28, 73
1, 674362, Note_on_c, 0, 40, 86
1, 674380, Note_off_c, 0, 88, 70
1, 674380, Note_off_c, 0, 100, 68
1, 674381, Note_on_c, 0, 29, 53
1, 674385, Note_off_c, 0, 40, 65
1, 674407, Note_off_c, 0, 28, 42
1, 674416, Note_off_c, 0, 29, 52
1, 674520, Note_on_c, 0, 76, 103
1, 674520, Note_on_c, 0, 58, 73
1, 674524, Note_on_c, 0, 69, 95
1, 674526, Note_on_c, 0, 66, 90
1, 674526, Note_on_c, 0, 73, 91
1, 674526, Note_on_c, 0, 54, 80
1, 674543, Note_off_c, 0, 69, 71
1, 674543, Note_off_c, 0, 73, 72
1, 674550, Note_off_c, 0, 66, 68
1, 674552, Note_on_c, 0, 57, 64
1, 674552, Note_off_c, 0, 58, 67
1, 674557, Note_off_c, 0, 76, 68
1, 674573, Note_off_c, 0, 54, 65
1, 674574, Note_off_c, 0, 57, 61
1, 674702, Note_on_c, 0, 28, 88
1, 674703, Note_on_c, 0, 88, 103
1, 674703, Note_on_c, 0, 100, 105
1, 674708, Note_on_c, 0, 40, 88
1, 674729, Note_off_c, 0, 88, 71
1, 674730, Note_off_c, 0, 28, 61
1, 674730, Note_off_c, 0, 100, 69
1, 674734, Note_off_c, 0, 40, 66
1, 674803, Poly_aftertouch_c, 0, 29, 0
1, 674856, Poly_aftertouch_c, 0, 40, 127
1, 674873, Note_on_c, 0, 76, 107
1, 674875, Note_on_c, 0, 69, 103
1, 674875, Note_on_c, 0, 73, 96
1, 674879, Note_on_c, 0, 66, 85
1, 674884, Note_on_c, 0, 54, 84
1, 674887, Poly_aftertouch_c, 0, 40, 0
1, 674889, Note_on_c, 0, 57, 72
1, 674895, Note_off_c, 0, 69, 70
1, 674905, Note_off_c, 0, 66, 68
1, 674906, Note_off_c, 0, 73, 62
1, 674910, Note_off_c, 0, 76, 67
1, 674914, Note_off_c, 0, 57, 66
1, 674927, Note_off_c, 0, 54, 62
1, 675051, Note_on_c, 0, 88, 100
1, 675051, Note_on_c, 0, 100, 100
1, 675057, Note_on_c, 0, 29, 81
1, 675058, Note_on_c, 0, 40, 82
1, 675064, Note_on_c, 0, 98, 70
1, 675070, Note_off_c, 0, 100, 70
1, 675073, Note_off_c, 0, 88, 71
1, 675088, Note_off_c, 0, 29, 58
1, 675088, Note_off_c, 0, 98, 42
1, 675089, Note_off_c, 0, 40, 62
1, 675229, Note_on_c, 0, 66, 90
1, 675229, Note_on_c, 0, 76, 97
1, 675230, Note_on_c, 0, 54, 76
1, 675231, Note_on_c, 0, 69, 90
1, 675233, Note_on_c, 0, 73, 88
1, 675235, Note_on_c, 0, 74, 88
1, 675239, Note_on_c, 0, 57, 72
1, 675243, Poly_aftertouch_c, 0, 40, 0
1, 675250, Note_off_c, 0, 69, 70
1, 675251, Note_off_c, 0, 66, 67
1, 675252, Note_off_c, 0, 73, 71
1, 675258, Note_off_c, 0, 74, 68
1, 675259, Note_off_c, 0, 76, 63
1, 675262, Note_off_c, 0, 57, 67
1, 675268, Note_off_c, 0, 54, 65
1, 675280, Note_on_c, 0, 53, 31
1, 675314, Note_on_c, 0, 69, 29
1, 675316, Note_on_c, 0, 73, 27
1, 675320, Note_off_c, 0, 53, 40
1, 675342, Note_off_c, 0, 73, 52
1, 675346, Note_off_c, 0, 69, 51
1, 675357, Poly_aftertouch_c, 0, 66, 127
1, 675358, Note_on_c, 0, 66, 2
1, 675374, Poly_aftertouch_c, 0, 57, 127
1, 675396, Note_off_c, 0, 66, 50
1, 675406, Note_on_c, 0, 40, 81
1, 675406, Note_on_c, 0, 88, 108
1, 675407, Note_on_c, 0, 100, 99
1, 675407, Note_on_c, 0, 28, 74
1, 675411, Poly_aftertouch_c, 0, 57, 0
1, 675413, Note_on_c, 0, 98, 90
1, 675420, Note_off_c, 0, 88, 75
1, 675422, Note_off_c, 0, 100, 76
1, 675426, Note_off_c, 0, 98, 71
1, 675430, Note_off_c, 0, 40, 66
1, 675441, Note_off_c, 0, 28, 49
1, 675536, Note_on_c, 0, 40, 3
1, 675569, Note_off_c, 0, 40, 39
1, 675634, Note_on_c, 0, 76, 103
1, 675638, Note_on_c, 0, 73, 100
1, 675639, Note_on_c, 0, 54, 87
1, 675639, Note_on_c, 0, 69, 93
1, 675641, Note_on_c, 0, 66, 95
1, 675644, Note_on_c, 0, 57, 79
1, 675655, Note_off_c, 0, 73, 71
1, 675657, Note_off_c, 0, 69, 72
1, 675662, Note_off_c, 0, 76, 65
1, 675677, Note_off_c, 0, 57, 65
1, 675681, Note_off_c, 0, 66, 67
1, 675687, Note_off_c, 0, 54, 65
1, 675715, Note_on_c, 0, 69, 35
1, 675745, Note_off_c, 0, 69, 57
1, 675939, Control_c, 0, 64, 80
1, 675954, Control_c, 0, 64, 58
1, 675969, Control_c, 0, 64, 0
1, 675969, Control_c, 0, 67, 13
1, 675984, Control_c, 0, 67, 30
1, 675999, Control_c, 0, 67, 60
1, 676014, Control_c, 0, 67, 91
1, 676028, Control_c, 0, 67, 114
1, 676043, Control_c, 0, 67, 123
1, 676058, Control_c, 0, 67, 124
1, 676073, Control_c, 0, 67, 124
1, 676088, Control_c, 0, 67, 127
1, 676615, Control_c, 0, 64, 20
1, 676630, Control_c, 0, 64, 39
1, 676645, Control_c, 0, 64, 51
1, 676659, Control_c, 0, 64, 59
1, 676674, Control_c, 0, 64, 66
1, 676689, Control_c, 0, 64, 71
1, 676697, Note_on_c, 0, 74, 50
1, 676704, Control_c, 0, 64, 77
1, 676708, Note_on_c, 0, 62, 49
1, 676719, Control_c, 0, 64, 82
1, 676733, Control_c, 0, 64, 85
1, 676735, Note_off_c, 0, 74, 62
1, 676748, Note_off_c, 0, 62, 56
1, 676748, Control_c, 0, 64, 85
1, 676792, Note_on_c, 0, 76, 43
1, 676796, Note_on_c, 0, 66, 40
1, 676807, Control_c, 0, 64, 85
1, 676818, Note_off_c, 0, 76, 56
1, 676822, Control_c, 0, 64, 83
1, 676826, Note_off_c, 0, 66, 54
1, 676835, Note_on_c, 0, 74, 54
1, 676837, Control_c, 0, 64, 81
1, 676851, Control_c, 0, 64, 79
1, 676862, Note_on_c, 0, 64, 44
1, 676866, Control_c, 0, 64, 77
1, 676881, Control_c, 0, 64, 76
1, 676885, Note_off_c, 0, 74, 56
1, 676891, Note_off_c, 0, 64, 57
1, 676896, Control_c, 0, 64, 75
1, 676908, Note_on_c, 0, 66, 58
1, 676917, Note_on_c, 0, 78, 54
1, 676940, Control_c, 0, 64, 75
1, 676951, Note_off_c, 0, 66, 60
1, 676955, Control_c, 0, 64, 74
1, 676963, Note_off_c, 0, 78, 48
1, 676970, Control_c, 0, 64, 72
1, 676981, Note_on_c, 0, 74, 56
1, 676984, Control_c, 0, 64, 68
1, 676999, Control_c, 0, 64, 61
1, 677004, Note_on_c, 0, 62, 49
1, 677014, Note_off_c, 0, 74, 59
1, 677014, Control_c, 0, 64, 50
1, 677029, Control_c, 0, 64, 18
1, 677044, Note_off_c, 0, 62, 62
1, 677044, Control_c, 0, 64, 0
1, 677050, Note_on_c, 0, 66, 52
1, 677051, Note_on_c, 0, 76, 61
1, 677088, Note_off_c, 0, 76, 60
1, 677090, Note_off_c, 0, 66, 63
1, 677117, Note_on_c, 0, 74, 58
1, 677120, Note_on_c, 0, 64, 52
1, 677181, Note_off_c, 0, 74, 64
1, 677182, Note_off_c, 0, 64, 61
1, 677189, Note_on_c, 0, 66, 57
1, 677198, Note_on_c, 0, 78, 76
1, 677230, Note_off_c, 0, 66, 62
1, 677235, Note_off_c, 0, 78, 58
1, 677259, Note_on_c, 0, 74, 70
1, 677264, Note_on_c, 0, 62, 60
1, 677320, Note_on_c, 0, 66, 55
1, 677321, Note_off_c, 0, 74, 61
1, 677334, Control_c, 0, 64, 22
1, 677335, Note_off_c, 0, 62, 54
1, 677336, Note_on_c, 0, 76, 83
1, 677349, Control_c, 0, 64, 21
1, 677363, Control_c, 0, 64, 32
1, 677370, Note_off_c, 0, 66, 64
1, 677378, Control_c, 0, 64, 53
1, 677388, Note_off_c, 0, 76, 64
1, 677393, Control_c, 0, 64, 64
1, 677395, Note_on_c, 0, 74, 75
1, 677397, Note_on_c, 0, 64, 58
1, 677407, Control_c, 0, 64, 70
1, 677407, Control_c, 0, 67, 121
1, 677422, Control_c, 0, 64, 75
1, 677422, Control_c, 0, 67, 113
1, 677437, Control_c, 0, 64, 80
1, 677437, Control_c, 0, 67, 105
1, 677451, Note_off_c, 0, 64, 63
1, 677452, Control_c, 0, 64, 88
1, 677452, Control_c, 0, 67, 95
1, 677459, Note_off_c, 0, 74, 62
1, 677465, Note_on_c, 0, 66, 71
1, 677465, Note_on_c, 0, 78, 92
1, 677467, Control_c, 0, 64, 111
1, 677467, Control_c, 0, 67, 81
1, 677481, Control_c, 0, 64, 127
1, 677481, Control_c, 0, 67, 60
1, 677496, Control_c, 0, 67, 40
1, 677510, Note_off_c, 0, 66, 58
1, 677511, Control_c, 0, 67, 20
1, 677526, Control_c, 0, 67, 0
1, 677531, Note_on_c, 0, 74, 84
1, 677535, Note_off_c, 0, 78, 64
1, 677540, Note_on_c, 0, 62, 68
1, 677555, Control_c, 0, 67, 10
1, 677570, Control_c, 0, 64, 82
1, 677570, Control_c, 0, 67, 17
1, 677585, Control_c, 0, 64, 58
1, 677585, Control_c, 0, 67, 23
1, 677592, Note_on_c, 0, 76, 86
1, 677600, Note_off_c, 0, 62, 64
1, 677600, Control_c, 0, 64, 0
1, 677600, Control_c, 0, 67, 32
1, 677602, Note_off_c, 0, 74, 62
1, 677607, Note_on_c, 0, 66, 68
1, 677614, Control_c, 0, 67, 45
1, 677629, Control_c, 0, 67, 66
1, 677644, Control_c, 0, 64, 42
1, 677644, Control_c, 0, 67, 93
1, 677647, Note_off_c, 0, 66, 61
1, 677658, Note_on_c, 0, 74, 81
1, 677659, Note_off_c, 0, 76, 63
1, 677659, Control_c, 0, 64, 58
1, 677659, Control_c, 0, 67, 118
1, 677668, Note_on_c, 0, 64, 66
1, 677673, Control_c, 0, 64, 55
1, 677673, Control_c, 0, 67, 127
1, 677688, Control_c, 0, 64, 17
1, 677703, Control_c, 0, 64, 0
1, 677725, Note_on_c, 0, 78, 92
1, 677730, Note_off_c, 0, 74, 64
1, 677731, Note_off_c, 0, 64, 65
1, 677742, Note_on_c, 0, 66, 67
1, 677784, Note_off_c, 0, 66, 61
1, 677797, Note_on_c, 0, 62, 71
1, 677799, Note_on_c, 0, 74, 81
1, 677801, Note_off_c, 0, 78, 63
1, 677866, Note_off_c, 0, 62, 63
1, 677869, Note_on_c, 0, 76, 83
1, 677871, Note_on_c, 0, 66, 68
1, 677872, Note_off_c, 0, 74, 65
1, 677922, Note_off_c, 0, 66, 61
1, 677933, Note_off_c, 0, 76, 62
1, 677938, Note_on_c, 0, 64, 64
1, 677946, Note_on_c, 0, 74, 75
1, 677999, Note_off_c, 0, 64, 62
1, 678008, Note_off_c, 0, 74, 64
1, 678011, Note_on_c, 0, 78, 74
1, 678013, Note_on_c, 0, 66, 64
1, 678053, Note_off_c, 0, 66, 62
1, 678075, Note_off_c, 0, 78, 60
1, 678087, Note_on_c, 0, 62, 58
1, 678095, Note_on_c, 0, 74, 69
1, 678142, Note_on_c, 0, 66, 68
1, 678142, Note_off_c, 0, 62, 58
1, 678154, Note_off_c, 0, 74, 63
1, 678173, Note_on_c, 0, 76, 64
1, 678194, Note_off_c, 0, 66, 58
1, 678224, Note_on_c, 0, 64, 57
1, 678231, Note_off_c, 0, 76, 64
1, 678240, Note_on_c, 0, 74, 70
1, 678275, Note_off_c, 0, 64, 63
1, 678289, Note_on_c, 0, 66, 68
1, 678299, Note_off_c, 0, 74, 63
1, 678301, Note_on_c, 0, 78, 63
1, 678331, Note_off_c, 0, 66, 61
1, 678356, Note_off_c, 0, 78, 60
1, 678369, Note_on_c, 0, 62, 57
1, 678370, Note_on_c, 0, 74, 65
1, 678422, Note_off_c, 0, 62, 61
1, 678423, Note_on_c, 0, 66, 67
1, 678427, Note_off_c, 0, 74, 62
1, 678444, Note_on_c, 0, 76, 65
1, 678479, Note_off_c, 0, 66, 58
1, 678495, Note_off_c, 0, 76, 61
1, 678503, Note_on_c, 0, 64, 61
1, 678511, Note_on_c, 0, 74, 64
1, 678553, Note_off_c, 0, 64, 63
1, 678564, Note_on_c, 0, 66, 65
1, 678572, Note_on_c, 0, 78, 71
1, 678572, Note_off_c, 0, 74, 63
1, 678613, Note_off_c, 0, 66, 58
1, 678631, Note_off_c, 0, 78, 62
1, 678637, Note_on_c, 0, 62, 69
1, 678646, Note_on_c, 0, 74, 63
1, 678700, Note_off_c, 0, 74, 63
1, 678702, Note_on_c, 0, 66, 69
1, 678705, Note_off_c, 0, 62, 63
1, 678710, Note_on_c, 0, 76, 66
1, 678741, Note_off_c, 0, 66, 63
1, 678768, Note_off_c, 0, 76, 62
1, 678770, Note_on_c, 0, 64, 61
1, 678778, Note_on_c, 0, 74, 65
1, 678828, Note_off_c, 0, 64, 65
1, 678838, Note_on_c, 0, 66, 77
1, 678842, Note_off_c, 0, 74, 64
1, 678856, Note_on_c, 0, 78, 70
1, 678863, Note_off_c, 0, 66, 67
1, 678890, Control_c, 0, 64, 27
1, 678892, Note_off_c, 0, 78, 62
1, 678905, Control_c, 0, 64, 57
1, 678920, Control_c, 0, 64, 42
1, 678934, Control_c, 0, 64, 0
1, 678940, Note_on_c, 0, 64, 89
1, 678947, Note_on_c, 0, 62, 84
1, 678949, Note_on_c, 0, 78, 68
1, 678971, Note_off_c, 0, 62, 69
1, 678980, Note_off_c, 0, 64, 65
1, 679001, Note_off_c, 0, 78, 58
1, 679036, Note_on_c, 0, 80, 57
1, 679075, Note_off_c, 0, 80, 63
1, 679129, Note_on_c, 0, 71, 82
1, 679132, Note_on_c, 0, 69, 77
1, 679151, Note_off_c, 0, 71, 70
1, 679153, Note_off_c, 0, 69, 70
1, 679187, Note_on_c, 0, 66, 54
1, 679221, Note_off_c, 0, 66, 49
1, 679271, Note_on_c, 0, 78, 53
1, 679281, Note_on_c, 0, 64, 86
1, 679283, Note_on_c, 0, 62, 81
1, 679304, Note_off_c, 0, 64, 70
1, 679305, Note_off_c, 0, 62, 69
1, 679320, Note_off_c, 0, 78, 59
1, 679353, Note_on_c, 0, 80, 58
1, 679405, Note_off_c, 0, 80, 59
1, 679422, Note_on_c, 0, 69, 86
1, 679425, Note_on_c, 0, 71, 85
1, 679444, Note_on_c, 0, 77, 42
1, 679456, Note_off_c, 0, 71, 66
1, 679457, Note_off_c, 0, 69, 67
1, 679468, Note_off_c, 0, 77, 58
1, 679490, Note_on_c, 0, 66, 60
1, 679518, Note_off_c, 0, 66, 55
1, 679585, Note_on_c, 0, 62, 85
1, 679586, Note_on_c, 0, 64, 93
1, 679593, Note_on_c, 0, 78, 51
1, 679630, Note_off_c, 0, 64, 64
1, 679632, Note_off_c, 0, 62, 64
1, 679668, Note_off_c, 0, 78, 61
1, 679682, Note_on_c, 0, 80, 60
1, 679720, Note_on_c, 0, 71, 75
1, 679724, Note_on_c, 0, 69, 78
1, 679743, Note_off_c, 0, 71, 68
1, 679748, Note_off_c, 0, 69, 71
1, 679758, Note_off_c, 0, 80, 51
1, 679759, Note_on_c, 0, 66, 61
1, 679796, Note_off_c, 0, 66, 66
1, 679831, Control_c, 0, 67, 116
1, 679846, Control_c, 0, 67, 103
1, 679861, Control_c, 0, 67, 85
1, 679865, Note_on_c, 0, 48, 57
1, 679874, Note_on_c, 0, 80, 43
1, 679875, Control_c, 0, 64, 79
1, 679875, Control_c, 0, 67, 48
1, 679890, Control_c, 0, 64, 127
1, 679890, Control_c, 0, 67, 0
1, 679893, Note_on_c, 0, 81, 75
1, 679904, Note_on_c, 0, 60, 81
1, 679909, Note_on_c, 0, 50, 31
1, 679924, Note_off_c, 0, 48, 62
1, 679944, Note_off_c, 0, 50, 45
1, 679945, Note_off_c, 0, 80, 61
1, 679954, Note_on_c, 0, 63, 102
1, 679960, Note_off_c, 0, 81, 66
1, 679963, Note_off_c, 0, 60, 59
1, 679965, Note_on_c, 0, 77, 85
1, 679980, Note_on_c, 0, 71, 64
1, 679981, Poly_aftertouch_c, 0, 56, 0
1, 679983, Note_on_c, 0, 69, 72
1, 679987, Note_off_c, 0, 63, 69
1, 679995, Control_c, 0, 67, 10
1, 680000, Poly_aftertouch_c, 0, 56, 0
1, 680009, Control_c, 0, 67, 22
1, 680014, Note_off_c, 0, 71, 62
1, 680015, Note_off_c, 0, 69, 64
1, 680015, Note_off_c, 0, 77, 63
1, 680024, Control_c, 0, 64, 71
1, 680024, Control_c, 0, 67, 33
1, 680039, Control_c, 0, 64, 31
1, 680039, Control_c, 0, 67, 42
1, 680054, Control_c, 0, 64, 0
1, 680054, Control_c, 0, 67, 52
1, 680069, Control_c, 0, 67, 66
1, 680077, Note_on_c, 0, 78, 74
1, 680083, Control_c, 0, 67, 79
1, 680098, Control_c, 0, 67, 90
1, 680105, Note_off_c, 0, 78, 65
1, 680113, Control_c, 0, 67, 99
1, 680128, Control_c, 0, 67, 105
1, 680143, Control_c, 0, 67, 107
1, 680157, Control_c, 0, 67, 110
1, 680160, Note_on_c, 0, 64, 87
1, 680163, Note_on_c, 0, 78, 80
1, 680165, Note_on_c, 0, 62, 85
1, 680172, Control_c, 0, 67, 115
1, 680187, Note_off_c, 0, 62, 69
1, 680187, Control_c, 0, 67, 118
1, 680193, Note_off_c, 0, 64, 65
1, 680202, Control_c, 0, 67, 119
1, 680238, Note_off_c, 0, 78, 63
1, 680243, Note_on_c, 0, 80, 76
1, 680261, Control_c, 0, 67, 120
1, 680295, Note_off_c, 0, 80, 62
1, 680299, Note_on_c, 0, 77, 55
1, 680305, Note_on_c, 0, 69, 65
1, 680306, Note_on_c, 0, 71, 62
1, 680326, Note_off_c, 0, 77, 64
1, 680334, Note_off_c, 0, 71, 65
1, 680336, Note_off_c, 0, 69, 67
1, 680357, Control_c, 0, 67, 120
1, 680371, Note_on_c, 0, 66, 70
1, 680372, Control_c, 0, 67, 118
1, 680387, Control_c, 0, 67, 111
1, 680400, Note_off_c, 0, 66, 66
1, 680403, Control_c, 0, 67, 103
1, 680418, Control_c, 0, 67, 95
1, 680432, Control_c, 0, 67, 84
1, 680447, Control_c, 0, 64, 47
1, 680447, Control_c, 0, 67, 61
1, 680452, Note_on_c, 0, 48, 66
1, 680456, Note_on_c, 0, 80, 61
1, 680462, Control_c, 0, 64, 64
1, 680462, Control_c, 0, 67, 30
1, 680477, Control_c, 0, 64, 85
1, 680477, Control_c, 0, 67, 0
1, 680492, Control_c, 0, 64, 127
1, 680497, Note_on_c, 0, 60, 86
1, 680500, Note_on_c, 0, 50, 37
1, 680505, Note_on_c, 0, 81, 73
1, 680506, Note_off_c, 0, 48, 57
1, 680536, Note_off_c, 0, 50, 44
1, 680536, Note_on_c, 0, 63, 96
1, 680547, Note_off_c, 0, 60, 59
1, 680553, Note_off_c, 0, 80, 62
1, 680562, Note_on_c, 0, 77, 70
1, 680566, Note_off_c, 0, 81, 63
1, 680570, Note_off_c, 0, 63, 67
1, 680572, Poly_aftertouch_c, 0, 56, 0
1, 680595, Control_c, 0, 64, 90
1, 680595, Control_c, 0, 67, 12
1, 680610, Note_off_c, 0, 77, 66
1, 680610, Control_c, 0, 64, 48
1, 680610, Control_c, 0, 67, 25
1, 680625, Control_c, 0, 64, 0
1, 680625, Control_c, 0, 67, 46
1, 680640, Control_c, 0, 67, 81
1, 680655, Control_c, 0, 67, 110
1, 680670, Control_c, 0, 67, 121
1, 680680, Note_on_c, 0, 78, 52
1, 680685, Control_c, 0, 67, 121
1, 680699, Control_c, 0, 67, 124
1, 680703, Note_off_c, 0, 78, 57
1, 680714, Control_c, 0, 67, 127
1, 680724, Note_on_c, 0, 64, 88
1, 680727, Note_on_c, 0, 62, 82
1, 680746, Note_on_c, 0, 78, 74
1, 680753, Note_off_c, 0, 62, 69
1, 680764, Note_off_c, 0, 64, 64
1, 680826, Note_off_c, 0, 78, 65
1, 680834, Note_on_c, 0, 80, 69
1, 680871, Note_on_c, 0, 69, 85
1, 680876, Note_on_c, 0, 71, 84
1, 680886, Note_off_c, 0, 80, 64
1, 680899, Note_off_c, 0, 71, 65
1, 680907, Note_on_c, 0, 77, 38
1, 680907, Note_off_c, 0, 69, 68
1, 680935, Note_on_c, 0, 66, 70
1, 680937, Note_off_c, 0, 77, 48
1, 680969, Note_off_c, 0, 66, 65
1, 681023, Note_on_c, 0, 64, 92
1, 681025, Note_on_c, 0, 62, 82
1, 681026, Note_on_c, 0, 78, 64
1, 681039, Control_c, 0, 64, 49
1, 681039, Control_c, 0, 67, 126
1, 681048, Note_off_c, 0, 62, 68
1, 681054, Control_c, 0, 64, 63
1, 681054, Control_c, 0, 67, 121
1, 681055, Note_off_c, 0, 64, 64
1, 681077, Control_c, 0, 64, 72
1, 681077, Control_c, 0, 67, 113
1, 681092, Control_c, 0, 64, 89
1, 681092, Control_c, 0, 67, 103
1, 681093, Note_off_c, 0, 78, 64
1, 681105, Note_on_c, 0, 80, 63
1, 681106, Control_c, 0, 64, 127
1, 681106, Control_c, 0, 67, 95
1, 681121, Control_c, 0, 67, 84
1, 681136, Control_c, 0, 67, 71
1, 681150, Control_c, 0, 67, 53
1, 681165, Control_c, 0, 67, 25
1, 681168, Poly_aftertouch_c, 0, 62, 127
1, 681180, Control_c, 0, 67, 0
1, 681202, Poly_aftertouch_c, 0, 62, 0
1, 681226, Note_on_c, 0, 70, 86
1, 681240, Note_on_c, 0, 77, 75
1, 681247, Note_on_c, 0, 73, 61
1, 681250, Note_off_c, 0, 80, 56
1, 681268, Note_off_c, 0, 70, 64
1, 681285, Control_c, 0, 64, 69
1, 681293, Note_on_c, 0, 66, 93
1, 681295, Note_off_c, 0, 73, 57
1, 681300, Control_c, 0, 64, 0
1, 681315, Control_c, 0, 67, 23
1, 681329, Control_c, 0, 67, 33
1, 681331, Note_on_c, 0, 65, 84
1, 681332, Note_on_c, 0, 78, 78
1, 681334, Note_off_c, 0, 77, 54
1, 681336, Note_off_c, 0, 66, 65
1, 681344, Control_c, 0, 67, 38
1, 681357, Note_off_c, 0, 65, 65
1, 681359, Control_c, 0, 67, 46
1, 681365, Note_on_c, 0, 64, 60
1, 681374, Control_c, 0, 67, 53
1, 681389, Control_c, 0, 67, 58
1, 681397, Note_on_c, 0, 62, 62
1, 681403, Control_c, 0, 67, 63
1, 681418, Control_c, 0, 67, 65
1, 681421, Note_off_c, 0, 78, 64
1, 681426, Note_off_c, 0, 62, 66
1, 681426, Note_off_c, 0, 64, 65
1, 681433, Control_c, 0, 67, 67
1, 681438, Note_on_c, 0, 80, 55
1, 681447, Control_c, 0, 67, 69
1, 681462, Control_c, 0, 67, 71
1, 681477, Control_c, 0, 67, 73
1, 681492, Control_c, 0, 67, 77
1, 681498, Note_off_c, 0, 80, 63
1, 681507, Control_c, 0, 67, 82
1, 681521, Control_c, 0, 67, 87
1, 681526, Note_on_c, 0, 77, 40
1, 681536, Control_c, 0, 67, 91
1, 681537, Note_on_c, 0, 71, 70
1, 681543, Note_on_c, 0, 69, 69
1, 681551, Control_c, 0, 67, 93
1, 681553, Note_off_c, 0, 77, 52
1, 681561, Note_off_c, 0, 71, 68
1, 681566, Control_c, 0, 67, 93
1, 681568, Note_off_c, 0, 69, 69
1, 681577, Note_on_c, 0, 66, 66
1, 681623, Note_off_c, 0, 66, 57
1, 681654, Control_c, 0, 67, 92
1, 681669, Control_c, 0, 67, 91
1, 681671, Note_on_c, 0, 80, 42
1, 681684, Control_c, 0, 67, 91
1, 681688, Note_on_c, 0, 63, 88
1, 681699, Control_c, 0, 67, 91
1, 681706, Note_on_c, 0, 60, 58
1, 681728, Note_off_c, 0, 63, 65
1, 681729, Note_off_c, 0, 60, 58
1, 681748, Note_on_c, 0, 81, 64
1, 681788, Control_c, 0, 67, 92
1, 681802, Note_off_c, 0, 81, 64
1, 681824, Note_off_c, 0, 80, 48
1, 681826, Note_on_c, 0, 77, 55
1, 681847, Note_on_c, 0, 69, 68
1, 681853, Note_on_c, 0, 71, 70
1, 681865, Note_off_c, 0, 77, 65
1, 681877, Note_off_c, 0, 69, 69
1, 681877, Note_off_c, 0, 71, 67
1, 681897, Note_on_c, 0, 66, 70
1, 681914, Control_c, 0, 67, 91
1, 681928, Control_c, 0, 67, 90
1, 681943, Control_c, 0, 67, 90
1, 681958, Control_c, 0, 67, 89
1, 681960, Note_off_c, 0, 66, 63
1, 681970, Note_on_c, 0, 80, 54
1, 681972, Control_c, 0, 67, 88
1, 681982, Note_on_c, 0, 62, 83
1, 681987, Control_c, 0, 67, 88
1, 681999, Note_on_c, 0, 60, 49
1, 682024, Note_off_c, 0, 60, 56
1, 682028, Note_off_c, 0, 62, 62
1, 682033, Control_c, 0, 67, 88
1, 682034, Note_on_c, 0, 81, 69
1, 682048, Control_c, 0, 67, 89
1, 682063, Control_c, 0, 67, 89
1, 682107, Control_c, 0, 67, 90
1, 682108, Note_off_c, 0, 81, 64
1, 682115, Note_off_c, 0, 80, 57
1, 682118, Note_on_c, 0, 77, 67
1, 682137, Control_c, 0, 67, 91
1, 682139, Note_on_c, 0, 71, 65
1, 682140, Note_on_c, 0, 69, 66
1, 682150, Note_off_c, 0, 77, 68
1, 682163, Note_off_c, 0, 71, 67
1, 682166, Note_off_c, 0, 69, 68
1, 682166, Control_c, 0, 67, 90
1, 682181, Note_on_c, 0, 66, 73
1, 682211, Control_c, 0, 67, 90
1, 682211, Note_off_c, 0, 66, 66
1, 682226, Control_c, 0, 67, 88
1, 682241, Control_c, 0, 67, 86
1, 682256, Control_c, 0, 67, 84
1, 682270, Control_c, 0, 67, 82
1, 682278, Note_on_c, 0, 64, 69
1, 682282, Note_on_c, 0, 80, 75
1, 682285, Control_c, 0, 64, 60
1, 682285, Control_c, 0, 67, 80
1, 682300, Control_c, 0, 64, 68
1, 682300, Control_c, 0, 67, 78
1, 682312, Note_off_c, 0, 64, 64
1, 682315, Control_c, 0, 64, 75
1, 682315, Control_c, 0, 67, 74
1, 682330, Control_c, 0, 64, 87
1, 682330, Control_c, 0, 67, 70
1, 682335, Note_on_c, 0, 82, 83
1, 682342, Note_off_c, 0, 80, 63
1, 682344, Control_c, 0, 64, 115
1, 682344, Control_c, 0, 67, 66
1, 682359, Control_c, 0, 64, 127
1, 682359, Control_c, 0, 67, 66
1, 682376, Note_on_c, 0, 79, 90
1, 682387, Note_off_c, 0, 82, 67
1, 682391, Note_on_c, 0, 70, 75
1, 682392, Note_on_c, 0, 73, 77
1, 682417, Note_off_c, 0, 70, 67
1, 682418, Control_c, 0, 67, 65
1, 682419, Note_off_c, 0, 73, 66
1, 682425, Note_off_c, 0, 79, 67
1, 682433, Control_c, 0, 67, 65
1, 682507, Control_c, 0, 67, 64
1, 682508, Note_on_c, 0, 68, 63
1, 682522, Control_c, 0, 67, 63
1, 682536, Note_on_c, 0, 64, 47
1, 682537, Control_c, 0, 67, 60
1, 682551, Control_c, 0, 67, 55
1, 682555, Note_on_c, 0, 80, 91
1, 682555, Note_off_c, 0, 68, 55
1, 682574, Control_c, 0, 67, 53
1, 682589, Control_c, 0, 67, 50
1, 682601, Note_off_c, 0, 64, 49
1, 682603, Control_c, 0, 67, 48
1, 682608, Note_on_c, 0, 66, 71
1, 682608, Note_on_c, 0, 82, 87
1, 682618, Control_c, 0, 67, 44
1, 682631, Note_off_c, 0, 80, 0
1, 682633, Control_c, 0, 67, 41
1, 682648, Control_c, 0, 67, 39
1, 682649, Note_on_c, 0, 71, 62
1, 682663, Control_c, 0, 67, 37
1, 682664, Note_off_c, 0, 66, 64
1, 682669, Poly_aftertouch_c, 0, 80, 127
1, 682682, Note_off_c, 0, 82, 65
1, 682691, Note_on_c, 0, 79, 79
1, 682697, Note_off_c, 0, 71, 63
1, 682706, Note_off_c, 0, 79, 70
1, 682707, Poly_aftertouch_c, 0, 80, 0
1, 682707, Control_c, 0, 67, 37
1, 682716, Note_on_c, 0, 68, 58
1, 682726, Note_on_c, 0, 73, 28
1, 682737, Control_c, 0, 67, 36
1, 682739, Note_off_c, 0, 68, 62
1, 682751, Control_c, 0, 67, 35
1, 682759, Note_off_c, 0, 73, 46
1, 682766, Control_c, 0, 67, 33
1, 682781, Control_c, 0, 67, 30
1, 682797, Control_c, 0, 64, 74
1, 682797, Control_c, 0, 67, 25
1, 682812, Control_c, 0, 64, 53
1, 682812, Control_c, 0, 67, 19
1, 682826, Control_c, 0, 64, 0
1, 682826, Control_c, 0, 67, 13
1, 682841, Control_c, 0, 67, 8
1, 682842, Note_on_c, 0, 50, 49
1, 682856, Control_c, 0, 64, 33
1, 682856, Control_c, 0, 67, 0
1, 682858, Note_on_c, 0, 81, 76
1, 682870, Note_off_c, 0, 50, 54
1, 682871, Control_c, 0, 64, 58
1, 682882, Note_off_c, 0, 81, 68
1, 682883, Note_on_c, 0, 83, 83
1, 682886, Note_on_c, 0, 82, 65
1, 682886, Control_c, 0, 64, 73
1, 682890, Note_on_c, 0, 53, 17
1, 682900, Control_c, 0, 64, 87
1, 682914, Note_on_c, 0, 65, 68
1, 682915, Control_c, 0, 64, 115
1, 682930, Control_c, 0, 64, 127
1, 682932, Note_off_c, 0, 53, 53
1, 682935, Note_off_c, 0, 82, 56
1, 682943, Note_on_c, 0, 79, 70
1, 682957, Note_off_c, 0, 65, 64
1, 682962, Note_off_c, 0, 83, 66
1, 682965, Note_on_c, 0, 73, 89
1, 682989, Note_off_c, 0, 73, 67
1, 682992, Note_off_c, 0, 79, 67
1, 683132, Note_on_c, 0, 68, 70
1, 683141, Note_on_c, 0, 82, 84
1, 683177, Note_on_c, 0, 83, 81
1, 683219, Note_on_c, 0, 79, 89
1, 683227, Note_on_c, 0, 71, 79
1, 683228, Note_off_c, 0, 68, 57
1, 683232, Note_off_c, 0, 82, 38
1, 683257, Note_off_c, 0, 83, 66
1, 683282, Note_off_c, 0, 79, 68
1, 683285, Note_on_c, 0, 73, 64
1, 683293, Note_off_c, 0, 71, 62
1, 683302, Note_off_c, 0, 73, 68
1, 683322, Note_on_c, 0, 66, 66
1, 683353, Control_c, 0, 64, 95
1, 683367, Control_c, 0, 64, 62
1, 683382, Control_c, 0, 64, 0
1, 683393, Note_off_c, 0, 66, 63
1, 683428, Note_on_c, 0, 68, 94
1, 683436, Note_on_c, 0, 82, 90
1, 683437, Note_on_c, 0, 64, 72
1, 683441, Control_c, 0, 64, 57
1, 683456, Control_c, 0, 64, 74
1, 683468, Note_off_c, 0, 64, 66
1, 683471, Control_c, 0, 64, 99
1, 683481, Note_off_c, 0, 68, 65
1, 683486, Control_c, 0, 64, 127
1, 683500, Control_c, 0, 64, 116
1, 683505, Note_on_c, 0, 84, 75
1, 683505, Note_off_c, 0, 82, 64
1, 683515, Control_c, 0, 64, 80
1, 683530, Note_on_c, 0, 80, 47
1, 683530, Control_c, 0, 64, 59
1, 683544, Control_c, 0, 64, 0
1, 683550, Note_on_c, 0, 81, 71
1, 683561, Note_off_c, 0, 84, 60
1, 683564, Note_off_c, 0, 80, 48
1, 683573, Note_on_c, 0, 75, 82
1, 683588, Note_off_c, 0, 81, 66
1, 683592, Note_on_c, 0, 72, 53
1, 683599, Note_off_c, 0, 75, 69
1, 683605, Control_c, 0, 67, 8
1, 683615, Note_off_c, 0, 72, 54
1, 683620, Control_c, 0, 67, 9
1, 683635, Control_c, 0, 67, 9
1, 683648, Note_on_c, 0, 70, 51
1, 683650, Control_c, 0, 67, 10
1, 683665, Control_c, 0, 67, 11
1, 683670, Note_off_c, 0, 70, 62
1, 683724, Note_on_c, 0, 68, 73
1, 683731, Note_on_c, 0, 82, 67
1, 683747, Note_on_c, 0, 66, 40
1, 683769, Note_off_c, 0, 68, 62
1, 683769, Control_c, 0, 67, 11
1, 683776, Note_off_c, 0, 66, 55
1, 683783, Note_off_c, 0, 82, 60
1, 683792, Note_on_c, 0, 84, 66
1, 683851, Note_off_c, 0, 84, 66
1, 683852, Note_on_c, 0, 81, 64
1, 683859, Note_on_c, 0, 75, 63
1, 683867, Note_on_c, 0, 73, 56
1, 683886, Note_off_c, 0, 81, 65
1, 683902, Note_off_c, 0, 75, 62
1, 683905, Note_off_c, 0, 73, 64
1, 683916, Control_c, 0, 67, 12
1, 683932, Note_on_c, 0, 70, 61
1, 683961, Note_off_c, 0, 70, 65
1, 683961, Control_c, 0, 67, 11
1, 683990, Control_c, 0, 67, 11
1, 684017, Note_on_c, 0, 82, 58
1, 684025, Note_on_c, 0, 68, 52
1, 684040, Note_on_c, 0, 66, 11
1, 684050, Note_off_c, 0, 68, 61
1, 684068, Note_off_c, 0, 82, 62
1, 684086, Note_on_c, 0, 84, 72
1, 684092, Note_off_c, 0, 66, 39
1, 684131, Control_c, 0, 67, 10
1, 684145, Note_on_c, 0, 75, 61
1, 684145, Note_off_c, 0, 84, 65
1, 684157, Note_on_c, 0, 81, 58
1, 684163, Note_on_c, 0, 73, 46
1, 684186, Note_off_c, 0, 75, 51
1, 684188, Note_off_c, 0, 81, 60
1, 684192, Note_off_c, 0, 73, 61
1, 684225, Note_on_c, 0, 70, 56
1, 684256, Note_off_c, 0, 70, 65
1, 684280, Control_c, 0, 67, 10
1, 684294, Control_c, 0, 67, 9
1, 684300, Note_on_c, 0, 82, 59
1, 684307, Note_on_c, 0, 68, 56
1, 684319, Note_on_c, 0, 66, 36
1, 684340, Note_off_c, 0, 82, 64
1, 684347, Note_off_c, 0, 68, 64
1, 684350, Note_off_c, 0, 66, 52
1, 684351, Note_on_c, 0, 84, 70
1, 684383, Control_c, 0, 67, 9
1, 684407, Note_off_c, 0, 84, 66
1, 684419, Note_on_c, 0, 81, 55
1, 684431, Note_on_c, 0, 75, 64
1, 684440, Note_off_c, 0, 81, 63
1, 684446, Note_on_c, 0, 73, 54
1, 684471, Note_off_c, 0, 75, 60
1, 684474, Note_on_c, 0, 70, 63
1, 684476, Note_off_c, 0, 73, 66
1, 684499, Note_off_c, 0, 70, 66
1, 684562, Control_c, 0, 67, 8
1, 684567, Note_on_c, 0, 84, 66
1, 684575, Note_on_c, 0, 66, 62
1, 684576, Note_on_c, 0, 68, 65
1, 684577, Control_c, 0, 67, 0
1, 684592, Control_c, 0, 64, 23
1, 684607, Control_c, 0, 64, 0
1, 684617, Note_off_c, 0, 84, 65
1, 684618, Note_off_c, 0, 66, 61
1, 684619, Note_on_c, 0, 86, 74
1, 684628, Note_off_c, 0, 68, 62
1, 684672, Note_on_c, 0, 83, 71
1, 684688, Note_on_c, 0, 74, 75
1, 684688, Note_on_c, 0, 77, 74
1, 684693, Note_off_c, 0, 86, 63
1, 684712, Note_off_c, 0, 83, 65
1, 684721, Note_off_c, 0, 77, 63
1, 684726, Note_off_c, 0, 74, 65
1, 684733, Note_on_c, 0, 72, 74
1, 684771, Note_off_c, 0, 72, 64
1, 684834, Note_on_c, 0, 68, 90
1, 684837, Note_on_c, 0, 70, 87
1, 684837, Note_on_c, 0, 84, 82
1, 684851, Control_c, 0, 64, 13
1, 684866, Control_c, 0, 64, 56
1, 684880, Control_c, 0, 64, 65
1, 684888, Note_on_c, 0, 86, 76
1, 684895, Control_c, 0, 64, 70
1, 684900, Note_off_c, 0, 84, 64
1, 684910, Control_c, 0, 64, 83
1, 684922, Note_off_c, 0, 70, 63
1, 684925, Control_c, 0, 64, 102
1, 684935, Note_off_c, 0, 68, 64
1, 684940, Control_c, 0, 64, 127
1, 684960, Note_on_c, 0, 83, 76
1, 684961, Note_on_c, 0, 75, 75
1, 684962, Note_on_c, 0, 77, 68
1, 684966, Note_off_c, 0, 86, 65
1, 684986, Note_off_c, 0, 75, 69
1, 684986, Note_off_c, 0, 77, 66
1, 684989, Note_off_c, 0, 83, 67
1, 685024, Note_on_c, 0, 72, 63
1, 685049, Note_off_c, 0, 72, 67
1, 685107, Note_on_c, 0, 84, 73
1, 685110, Note_on_c, 0, 54, 70
1, 685120, Note_on_c, 0, 57, 69
1, 685138, Note_off_c, 0, 54, 67
1, 685144, Note_on_c, 0, 69, 67
1, 685145, Note_off_c, 0, 57, 66
1, 685161, Note_off_c, 0, 84, 65
1, 685168, Note_on_c, 0, 86, 73
1, 685168, Note_off_c, 0, 69, 68
1, 685177, Control_c, 0, 64, 78
1, 685192, Control_c, 0, 64, 54
1, 685207, Control_c, 0, 64, 0
1, 685237, Note_on_c, 0, 83, 72
1, 685241, Note_off_c, 0, 86, 65
1, 685263, Note_on_c, 0, 77, 87
1, 685266, Note_on_c, 0, 75, 80
1, 685269, Note_off_c, 0, 83, 67
1, 685296, Control_c, 0, 64, 44
1, 685300, Note_on_c, 0, 70, 28
1, 685300, Note_on_c, 0, 72, 66
1, 685300, Note_off_c, 0, 75, 64
1, 685304, Note_on_c, 0, 76, 36
1, 685305, Note_off_c, 0, 76, 127
1, 685308, Note_off_c, 0, 77, 64
1, 685311, Control_c, 0, 64, 64
1, 685326, Control_c, 0, 64, 62
1, 685334, Note_off_c, 0, 72, 66
1, 685338, Note_off_c, 0, 70, 30
1, 685341, Control_c, 0, 64, 42
1, 685356, Control_c, 0, 64, 0
1, 685395, Note_on_c, 0, 84, 75
1, 685397, Note_on_c, 0, 70, 88
1, 685400, Note_on_c, 0, 68, 85
1, 685460, Note_off_c, 0, 84, 65
1, 685466, Note_on_c, 0, 86, 74
1, 685474, Control_c, 0, 64, 11
1, 685488, Control_c, 0, 64, 21
1, 685498, Note_off_c, 0, 68, 61
1, 685503, Control_c, 0, 64, 14
1, 685518, Control_c, 0, 64, 0
1, 685524, Note_off_c, 0, 70, 64
1, 685532, Note_on_c, 0, 83, 76
1, 685540, Note_on_c, 0, 75, 70
1, 685546, Note_on_c, 0, 77, 74
1, 685547, Note_off_c, 0, 86, 65
1, 685585, Note_off_c, 0, 75, 62
1, 685586, Note_off_c, 0, 83, 67
1, 685597, Note_off_c, 0, 77, 61
1, 685609, Note_on_c, 0, 72, 70
1, 685615, Control_c, 0, 64, 33
1, 685629, Control_c, 0, 64, 61
1, 685644, Control_c, 0, 64, 71
1, 685651, Note_off_c, 0, 72, 64
1, 685659, Control_c, 0, 64, 80
1, 685674, Control_c, 0, 64, 95
1, 685689, Control_c, 0, 64, 119
1, 685702, Note_on_c, 0, 84, 73
1, 685703, Control_c, 0, 64, 127
1, 685706, Note_on_c, 0, 66, 46
1, 685710, Note_on_c, 0, 69, 72
1, 685765, Note_off_c, 0, 84, 66
1, 685767, Note_on_c, 0, 86, 73
1, 685767, Note_off_c, 0, 66, 44
1, 685806, Note_off_c, 0, 69, 66
1, 685812, Note_on_c, 0, 75, 75
1, 685839, Note_on_c, 0, 83, 75
1, 685841, Note_off_c, 0, 86, 66
1, 685853, Note_on_c, 0, 78, 76
1, 685865, Note_off_c, 0, 83, 69
1, 685873, Note_off_c, 0, 75, 62
1, 685885, Note_on_c, 0, 72, 77
1, 685895, Note_off_c, 0, 78, 62
1, 685909, Note_off_c, 0, 72, 69
1, 685961, Note_on_c, 0, 68, 88
1, 685962, Note_on_c, 0, 70, 90
1, 685968, Note_on_c, 0, 84, 89
1, 686028, Note_on_c, 0, 86, 75
1, 686031, Note_off_c, 0, 84, 66
1, 686077, Note_on_c, 0, 75, 84
1, 686081, Note_off_c, 0, 68, 64
1, 686083, Note_off_c, 0, 70, 65
1, 686110, Note_off_c, 0, 86, 65
1, 686119, Note_on_c, 0, 77, 72
1, 686138, Note_on_c, 0, 83, 68
1, 686143, Note_off_c, 0, 75, 66
1, 686151, Note_on_c, 0, 84, 61
1, 686181, Note_off_c, 0, 77, 62
1, 686200, Note_off_c, 0, 83, 65
1, 686210, Note_on_c, 0, 69, 76
1, 686226, Note_on_c, 0, 66, 60
1, 686240, Note_on_c, 0, 86, 87
1, 686250, Note_off_c, 0, 84, 66
1, 686280, Note_off_c, 0, 86, 65
1, 686280, Note_off_c, 0, 66, 54
1, 686295, Note_on_c, 0, 75, 81
1, 686321, Note_off_c, 0, 69, 66
1, 686338, Note_on_c, 0, 78, 87
1, 686348, Note_on_c, 0, 89, 112
1, 686351, Note_on_c, 0, 83, 106
1, 686356, Note_on_c, 0, 87, 100
1, 686370, Note_off_c, 0, 75, 67
1, 686374, Note_off_c, 0, 83, 67
1, 686375, Note_off_c, 0, 89, 70
1, 686379, Note_on_c, 0, 88, 50
1, 686380, Note_off_c, 0, 88, 127
1, 686381, Note_off_c, 0, 87, 67
1, 686385, Note_off_c, 0, 78, 63
1, 686467, Note_on_c, 0, 72, 74
1, 686549, Note_on_c, 0, 84, 86
1, 686560, Note_off_c, 0, 72, 62
1, 686571, Note_on_c, 0, 68, 78
1, 686608, Note_off_c, 0, 84, 66
1, 686611, Note_on_c, 0, 86, 86
1, 686647, Note_on_c, 0, 70, 72
1, 686661, Note_off_c, 0, 68, 57
1, 686691, Note_off_c, 0, 86, 65
1, 686703, Note_on_c, 0, 83, 65
1, 686706, Note_on_c, 0, 84, 79
1, 686709, Note_off_c, 0, 70, 64
1, 686712, Note_on_c, 0, 75, 83
1, 686742, Note_off_c, 0, 83, 63
1, 686757, Note_on_c, 0, 77, 64
1, 686765, Note_off_c, 0, 75, 65
1, 686788, Note_on_c, 0, 86, 91
1, 686795, Note_off_c, 0, 84, 64
1, 686807, Note_off_c, 0, 77, 64
1, 686826, Note_on_c, 0, 69, 71
1, 686835, Note_off_c, 0, 86, 66
1, 686838, Note_on_c, 0, 70, 51
1, 686844, Note_on_c, 0, 66, 63
1, 686867, Note_off_c, 0, 70, 52
1, 686876, Note_on_c, 0, 75, 86
1, 686943, Note_on_c, 0, 78, 109
1, 686949, Note_on_c, 0, 89, 104
1, 686950, Note_on_c, 0, 83, 113
1, 686955, Note_on_c, 0, 87, 94
1, 686977, Note_off_c, 0, 83, 69
1, 686979, Note_off_c, 0, 89, 68
1, 686980, Note_off_c, 0, 75, 65
1, 686986, Note_off_c, 0, 87, 65
1, 686988, Note_off_c, 0, 69, 64
1, 686998, Note_off_c, 0, 66, 0
1, 687018, Note_off_c, 0, 78, 62
1, 687020, Poly_aftertouch_c, 0, 66, 0
1, 687051, Note_on_c, 0, 72, 46
1, 687171, Control_c, 0, 64, 86
1, 687180, Note_off_c, 0, 72, 61
1, 687186, Control_c, 0, 64, 61
1, 687201, Control_c, 0, 64, 0
1, 687235, Note_on_c, 0, 89, 94
1, 687240, Note_on_c, 0, 77, 93
1, 687241, Note_on_c, 0, 78, 82
1, 687246, Note_on_c, 0, 69, 73
1, 687247, Note_on_c, 0, 72, 74
1, 687248, Note_on_c, 0, 84, 70
1, 687251, Note_on_c, 0, 66, 73
1, 687252, Note_on_c, 0, 81, 69
1, 687260, Control_c, 0, 64, 38
1, 687275, Control_c, 0, 64, 64
1, 687284, Note_on_c, 0, 82, 37
1, 687285, Note_off_c, 0, 82, 127
1, 687290, Control_c, 0, 64, 79
1, 687291, Note_off_c, 0, 78, 62
1, 687298, Note_off_c, 0, 81, 64
1, 687299, Note_off_c, 0, 84, 63
1, 687301, Note_off_c, 0, 89, 62
1, 687305, Control_c, 0, 64, 90
1, 687308, Note_off_c, 0, 77, 62
1, 687309, Note_off_c, 0, 66, 61
1, 687315, Note_off_c, 0, 72, 62
1, 687320, Control_c, 0, 64, 92
1, 687321, Note_off_c, 0, 69, 65
1, 687364, Control_c, 0, 64, 94
1, 687379, Control_c, 0, 64, 98
1, 687393, Control_c, 0, 64, 102
1, 687394, Note_on_c, 0, 77, 83
1, 687399, Note_on_c, 0, 89, 76
1, 687403, Note_on_c, 0, 78, 75
1, 687406, Note_on_c, 0, 81, 78
1, 687408, Control_c, 0, 64, 106
1, 687412, Note_on_c, 0, 84, 69
1, 687415, Note_on_c, 0, 69, 59
1, 687421, Note_on_c, 0, 72, 60
1, 687421, Note_on_c, 0, 66, 54
1, 687423, Control_c, 0, 64, 127
1, 687439, Note_off_c, 0, 78, 61
1, 687446, Note_off_c, 0, 84, 64
1, 687446, Note_off_c, 0, 89, 60
1, 687448, Note_off_c, 0, 72, 63
1, 687450, Note_off_c, 0, 66, 56
1, 687450, Note_off_c, 0, 77, 62
1, 687451, Note_off_c, 0, 69, 63
1, 687452, Note_off_c, 0, 81, 64
1, 687525, Note_on_c, 0, 89, 85
1, 687529, Note_on_c, 0, 78, 74
1, 687532, Note_on_c, 0, 81, 70
1, 687535, Note_on_c, 0, 84, 66
1, 687536, Note_on_c, 0, 72, 72
1, 687536, Note_on_c, 0, 77, 91
1, 687538, Note_on_c, 0, 69, 70
1, 687540, Note_on_c, 0, 66, 62
1, 687582, Note_off_c, 0, 66, 58
1, 687592, Note_off_c, 0, 77, 61
1, 687604, Note_off_c, 0, 69, 64
1, 687618, Note_off_c, 0, 72, 56
1, 687621, Note_off_c, 0, 84, 50
1, 687643, Note_off_c, 0, 78, 35
1, 687656, Note_off_c, 0, 89, 29
1, 687661, Note_off_c, 0, 81, 35
1, 687678, Note_on_c, 0, 77, 110
1, 687687, Note_on_c, 0, 69, 89
1, 687687, Note_on_c, 0, 72, 58
1, 687690, Control_c, 0, 64, 113
1, 687693, Note_on_c, 0, 66, 78
1, 687705, Control_c, 0, 64, 81
1, 687720, Control_c, 0, 64, 68
1, 687735, Control_c, 0, 64, 65
1, 687739, Note_off_c, 0, 66, 64
1, 687742, Note_off_c, 0, 77, 67
1, 687746, Note_on_c, 0, 78, 109
1, 687747, Note_on_c, 0, 81, 97
1, 687747, Note_off_c, 0, 69, 67
1, 687749, Note_on_c, 0, 89, 102
1, 687750, Control_c, 0, 64, 70
1, 687752, Note_on_c, 0, 84, 91
1, 687764, Control_c, 0, 64, 127
1, 687770, Note_on_c, 0, 86, 74
1, 687781, Note_off_c, 0, 72, 0
1, 687791, Note_on_c, 0, 72, 55
1, 687795, Note_on_c, 0, 69, 83
1, 687804, Note_on_c, 0, 77, 100
1, 687806, Note_on_c, 0, 66, 80
1, 687806, Note_off_c, 0, 86, 61
1, 687823, Note_off_c, 0, 78, 63
1, 687824, Note_off_c, 0, 81, 65
1, 687851, Note_off_c, 0, 84, 54
1, 687881, Note_off_c, 0, 89, 61
1, 687889, Note_off_c, 0, 66, 64
1, 687900, Note_off_c, 0, 69, 66
1, 687909, Note_off_c, 0, 77, 59
1, 687934, Note_off_c, 0, 72, 0
1, 687935, Control_c, 0, 64, 90
1, 687949, Note_on_c, 0, 72, 34
1, 687950, Control_c, 0, 64, 70
1, 687963, Note_on_c, 0, 77, 74
1, 687964, Control_c, 0, 64, 55
1, 687965, Note_on_c, 0, 69, 65
1, 687966, Note_on_c, 0, 78, 85
1, 687967, Note_on_c, 0, 89, 86
1, 687973, Note_on_c, 0, 81, 73
1, 687973, Note_on_c, 0, 66, 64
1, 687979, Control_c, 0, 64, 27
1, 687982, Note_on_c, 0, 84, 56
1, 687994, Control_c, 0, 64, 0
1, 688001, Note_off_c, 0, 78, 58
1, 688001, Note_off_c, 0, 89, 58
1, 688015, Note_off_c, 0, 84, 64
1, 688016, Note_off_c, 0, 81, 62
1, 688018, Note_off_c, 0, 66, 59
1, 688018, Note_off_c, 0, 77, 65
1, 688024, Note_off_c, 0, 72, 61
1, 688030, Note_off_c, 0, 69, 63
1, 688101, Note_on_c, 0, 77, 88
1, 688104, Note_on_c, 0, 89, 82
1, 688107, Note_on_c, 0, 78, 78
1, 688108, Note_on_c, 0, 66, 65
1, 688113, Control_c, 0, 64, 18
1, 688113, Note_on_c, 0, 84, 63
1, 688114, Note_on_c, 0, 81, 79
1, 688118, Note_on_c, 0, 69, 67
1, 688128, Control_c, 0, 64, 41
1, 688128, Note_on_c, 0, 72, 54
1, 688141, Control_c, 0, 64, 48
1, 688147, Note_off_c, 0, 66, 59
1, 688155, Note_off_c, 0, 77, 64
1, 688156, Control_c, 0, 64, 52
1, 688157, Note_off_c, 0, 69, 63
1, 688159, Note_off_c, 0, 72, 57
1, 688170, Control_c, 0, 64, 54
1, 688185, Control_c, 0, 64, 57
1, 688186, Note_off_c, 0, 81, 59
1, 688187, Note_off_c, 0, 78, 56
1, 688194, Note_off_c, 0, 89, 59
1, 688199, Note_off_c, 0, 84, 61
1, 688200, Control_c, 0, 64, 58
1, 688214, Control_c, 0, 64, 57
1, 688229, Control_c, 0, 64, 52
1, 688230, Note_on_c, 0, 77, 110
1, 688238, Note_on_c, 0, 66, 83
1, 688241, Note_on_c, 0, 69, 86
1, 688241, Note_on_c, 0, 72, 78
1, 688244, Control_c, 0, 64, 24
1, 688259, Control_c, 0, 64, 0
1, 688291, Note_off_c, 0, 66, 64
1, 688292, Note_off_c, 0, 77, 67
1, 688292, Note_on_c, 0, 78, 103
1, 688295, Note_on_c, 0, 81, 91
1, 688295, Note_on_c, 0, 89, 92
1, 688295, Note_off_c, 0, 69, 66
1, 688301, Note_on_c, 0, 84, 78
1, 688302, Note_off_c, 0, 72, 61
1, 688304, Control_c, 0, 64, 42
1, 688319, Control_c, 0, 64, 127
1, 688320, Note_on_c, 0, 86, 56
1, 688345, Note_on_c, 0, 72, 82
1, 688346, Note_on_c, 0, 77, 113
1, 688348, Note_on_c, 0, 66, 82
1, 688348, Note_on_c, 0, 69, 83
1, 688354, Note_off_c, 0, 86, 63
1, 688363, Note_off_c, 0, 78, 62
1, 688368, Note_off_c, 0, 89, 0
1, 688369, Note_off_c, 0, 81, 61
1, 688411, Poly_aftertouch_c, 0, 89, 0
1, 688426, Note_off_c, 0, 66, 63
1, 688428, Note_off_c, 0, 72, 58
1, 688432, Note_off_c, 0, 69, 65
1, 688433, Note_off_c, 0, 77, 58
1, 688450, Note_off_c, 0, 84, 27
1, 688483, Control_c, 0, 64, 79
1, 688498, Control_c, 0, 64, 56
1, 688500, Note_on_c, 0, 81, 9
1, 688504, Note_on_c, 0, 89, 86
1, 688506, Note_on_c, 0, 78, 76
1, 688506, Note_on_c, 0, 77, 87
1, 688507, Note_on_c, 0, 84, 52
1, 688512, Control_c, 0, 64, 0
1, 688519, Note_on_c, 0, 69, 70
1, 688524, Note_on_c, 0, 66, 60
1, 688525, Note_on_c, 0, 72, 60
1, 688550, Note_off_c, 0, 72, 60
1, 688553, Note_off_c, 0, 89, 63
1, 688561, Note_off_c, 0, 66, 66
1, 688564, Note_off_c, 0, 69, 60
1, 688566, Note_off_c, 0, 78, 57
1, 688571, Note_off_c, 0, 77, 64
1, 688571, Note_off_c, 0, 81, 63
1, 688572, Note_off_c, 0, 84, 64
1, 688641, Note_on_c, 0, 77, 89
1, 688646, Note_on_c, 0, 89, 85
1, 688647, Note_on_c, 0, 69, 67
1, 688650, Note_on_c, 0, 72, 54
1, 688651, Note_on_c, 0, 78, 78
1, 688654, Note_on_c, 0, 81, 69
1, 688656, Note_on_c, 0, 66, 58
1, 688659, Note_on_c, 0, 84, 66
1, 688691, Note_off_c, 0, 66, 63
1, 688693, Note_off_c, 0, 72, 58
1, 688695, Note_off_c, 0, 77, 65
1, 688703, Note_off_c, 0, 69, 63
1, 688709, Note_off_c, 0, 78, 53
1, 688711, Note_off_c, 0, 89, 53
1, 688737, Note_off_c, 0, 84, 58
1, 688739, Note_off_c, 0, 81, 50
1, 688771, Note_on_c, 0, 77, 120
1, 688775, Note_on_c, 0, 66, 85
1, 688782, Note_on_c, 0, 69, 86
1, 688784, Note_on_c, 0, 72, 73
1, 688828, Note_off_c, 0, 66, 65
1, 688831, Control_c, 0, 64, 21
1, 688831, Note_on_c, 0, 78, 102
1, 688832, Note_on_c, 0, 89, 93
1, 688833, Note_off_c, 0, 77, 67
1, 688834, Note_on_c, 0, 81, 95
1, 688836, Note_off_c, 0, 69, 66
1, 688840, Note_on_c, 0, 84, 70
1, 688843, Note_off_c, 0, 72, 59
1, 688845, Control_c, 0, 64, 76
1, 688860, Control_c, 0, 64, 127
1, 688864, Note_on_c, 0, 86, 54
1, 688878, Note_on_c, 0, 72, 71
1, 688883, Note_on_c, 0, 77, 91
1, 688886, Note_on_c, 0, 66, 83
1, 688887, Note_on_c, 0, 69, 87
1, 688895, Note_off_c, 0, 86, 64
1, 688900, Note_off_c, 0, 89, 59
1, 688907, Note_off_c, 0, 78, 63
1, 688911, Note_off_c, 0, 81, 62
1, 688923, Note_off_c, 0, 84, 60
1, 688951, Note_off_c, 0, 66, 64
1, 688952, Note_off_c, 0, 72, 60
1, 688957, Note_off_c, 0, 77, 66
1, 688963, Note_off_c, 0, 69, 66
1, 689027, Note_on_c, 0, 81, 32
1, 689030, Note_on_c, 0, 77, 92
1, 689030, Note_on_c, 0, 89, 87
1, 689034, Note_on_c, 0, 78, 89
1, 689039, Note_on_c, 0, 72, 61
1, 689040, Note_on_c, 0, 84, 55
1, 689045, Note_on_c, 0, 69, 68
1, 689049, Note_on_c, 0, 66, 65
1, 689081, Note_off_c, 0, 66, 65
1, 689083, Note_off_c, 0, 89, 61
1, 689084, Note_off_c, 0, 69, 60
1, 689085, Note_off_c, 0, 78, 62
1, 689089, Note_off_c, 0, 72, 55
1, 689089, Note_off_c, 0, 77, 62
1, 689097, Note_off_c, 0, 81, 65
1, 689097, Control_c, 0, 64, 100
1, 689101, Note_off_c, 0, 84, 63
1, 689112, Control_c, 0, 64, 72
1, 689127, Control_c, 0, 64, 43
1, 689141, Control_c, 0, 64, 0
1, 689168, Note_on_c, 0, 77, 93
1, 689173, Note_on_c, 0, 66, 67
1, 689175, Note_on_c, 0, 69, 69
1, 689180, Note_on_c, 0, 72, 69
1, 689184, Note_on_c, 0, 78, 84
1, 689189, Note_on_c, 0, 89, 71
1, 689199, Note_on_c, 0, 81, 67
1, 689202, Control_c, 0, 64, 36
1, 689203, Note_on_c, 0, 88, 62
1, 689203, Note_on_c, 0, 84, 61
1, 689210, Note_off_c, 0, 66, 62
1, 689216, Control_c, 0, 64, 58
1, 689218, Note_off_c, 0, 69, 61
1, 689225, Note_off_c, 0, 77, 62
1, 689227, Note_off_c, 0, 72, 51
1, 689231, Control_c, 0, 64, 73
1, 689236, Note_off_c, 0, 88, 50
1, 689244, Note_off_c, 0, 78, 60
1, 689244, Note_off_c, 0, 81, 53
1, 689246, Note_off_c, 0, 89, 57
1, 689246, Control_c, 0, 64, 92
1, 689249, Note_off_c, 0, 84, 60
1, 689261, Control_c, 0, 64, 127
1, 689295, Note_on_c, 0, 77, 79
1, 689315, Note_on_c, 0, 66, 72
1, 689320, Poly_aftertouch_c, 0, 72, 0
1, 689326, Note_off_c, 0, 77, 68
1, 689348, Note_off_c, 0, 66, 66
1, 689371, Note_on_c, 0, 78, 82
1, 689372, Note_on_c, 0, 89, 59
1, 689378, Note_on_c, 0, 81, 68
1, 689389, Note_on_c, 0, 84, 42
1, 689391, Note_off_c, 0, 89, 63
1, 689392, Note_off_c, 0, 78, 69
1, 689405, Note_off_c, 0, 81, 68
1, 689441, Note_on_c, 0, 75, 110
1, 689443, Note_on_c, 0, 63, 109
1, 689447, Note_on_c, 0, 51, 91
1, 689451, Note_off_c, 0, 84, 0
1, 689466, Note_on_c, 0, 81, 60
1, 689469, Note_on_c, 0, 86, 48
1, 689469, Note_off_c, 0, 51, 70
1, 689471, Note_on_c, 0, 84, 22
1, 689476, Note_off_c, 0, 63, 65
1, 689478, Note_on_c, 0, 87, 35
1, 689488, Note_off_c, 0, 81, 62
1, 689494, Note_off_c, 0, 86, 58
1, 689509, Note_off_c, 0, 87, 56
1, 689512, Note_off_c, 0, 84, 52
1, 689521, Note_off_c, 0, 75, 64
1, 689601, Note_on_c, 0, 81, 55
1, 689612, Note_on_c, 0, 78, 85
1, 689612, Note_on_c, 0, 89, 86
1, 689624, Note_on_c, 0, 84, 63
1, 689674, Note_off_c, 0, 84, 58
1, 689675, Note_off_c, 0, 89, 62
1, 689678, Note_off_c, 0, 81, 57
1, 689679, Note_off_c, 0, 78, 61
1, 689739, Note_on_c, 0, 89, 80
1, 689740, Note_on_c, 0, 81, 60
1, 689743, Note_on_c, 0, 78, 75
1, 689747, Note_on_c, 0, 77, 65
1, 689752, Note_on_c, 0, 66, 60
1, 689752, Note_on_c, 0, 72, 70
1, 689758, Note_on_c, 0, 84, 67
1, 689766, Note_on_c, 0, 69, 56
1, 689785, Note_off_c, 0, 66, 65
1, 689789, Note_off_c, 0, 77, 61
1, 689794, Note_off_c, 0, 69, 55
1, 689800, Note_off_c, 0, 72, 58
1, 689801, Note_off_c, 0, 89, 63
1, 689803, Note_off_c, 0, 84, 60
1, 689804, Note_off_c, 0, 78, 59
1, 689806, Note_off_c, 0, 81, 58
1, 689848, Poly_aftertouch_c, 0, 86, 0
1, 689881, Note_on_c, 0, 66, 60
1, 689881, Note_on_c, 0, 77, 83
1, 689890, Note_on_c, 0, 69, 53
1, 689896, Note_on_c, 0, 72, 50
1, 689915, Note_off_c, 0, 77, 64
1, 689920, Note_off_c, 0, 69, 54
1, 689921, Note_off_c, 0, 66, 64
1, 689926, Note_off_c, 0, 72, 63
1, 689960, Note_on_c, 0, 89, 77
1, 689961, Note_on_c, 0, 78, 64
1, 689964, Note_on_c, 0, 81, 65
1, 689967, Note_on_c, 0, 84, 61
1, 690000, Note_off_c, 0, 81, 63
1, 690000, Note_on_c, 0, 75, 108
1, 690000, Note_off_c, 0, 84, 65
1, 690001, Note_off_c, 0, 78, 57
1, 690006, Note_on_c, 0, 63, 103
1, 690009, Note_off_c, 0, 89, 61
1, 690098, Note_off_c, 0, 63, 63
1, 690150, Note_off_c, 0, 75, 54
1, 690161, Note_on_c, 0, 78, 101
1, 690161, Note_on_c, 0, 89, 89
1, 690163, Note_on_c, 0, 81, 85
1, 690164, Note_on_c, 0, 84, 64
1, 690200, Note_on_c, 0, 86, 51
1, 690235, Note_off_c, 0, 86, 62
1, 690248, Note_off_c, 0, 89, 61
1, 690251, Note_off_c, 0, 78, 61
1, 690258, Note_off_c, 0, 81, 61
1, 690265, Note_off_c, 0, 84, 63
1, 690326, Note_on_c, 0, 75, 102
1, 690327, Note_on_c, 0, 63, 91
1, 690327, Note_on_c, 0, 78, 96
1, 690327, Note_on_c, 0, 81, 84
1, 690327, Note_on_c, 0, 89, 93
1, 690328, Note_on_c, 0, 84, 74
1, 690359, Note_on_c, 0, 86, 41
1, 690379, Note_off_c, 0, 75, 68
1, 690387, Note_off_c, 0, 86, 58
1, 690393, Note_off_c, 0, 63, 64
1, 690396, Note_off_c, 0, 89, 63
1, 690406, Note_off_c, 0, 81, 65
1, 690407, Note_off_c, 0, 78, 60
1, 690413, Note_off_c, 0, 84, 66
1, 690480, Note_on_c, 0, 81, 76
1, 690497, Note_on_c, 0, 84, 47
1, 690497, Note_on_c, 0, 89, 52
1, 690518, Note_off_c, 0, 84, 61
1, 690522, Note_off_c, 0, 89, 55
1, 690530, Note_on_c, 0, 78, 70
1, 690546, Note_off_c, 0, 81, 62
1, 690574, Note_off_c, 0, 78, 65
1, 690670, Control_c, 0, 64, 90
1, 690684, Control_c, 0, 64, 62
1, 690699, Control_c, 0, 64, 11
1, 690714, Control_c, 0, 64, 0
1, 690730, Note_on_c, 0, 62, 97
1, 690733, Note_on_c, 0, 50, 106
1, 690736, Note_on_c, 0, 64, 84
1, 690742, Note_on_c, 0, 38, 84
1, 690744, Control_c, 0, 64, 56
1, 690756, Note_off_c, 0, 64, 58
1, 690758, Control_c, 0, 64, 127
1, 690767, Note_on_c, 0, 41, 44
1, 690771, Note_off_c, 0, 38, 68
1, 690771, Note_off_c, 0, 62, 68
1, 690772, Note_off_c, 0, 50, 69
1, 690793, Note_on_c, 0, 43, 15
1, 690811, Note_off_c, 0, 41, 51
1, 690824, Poly_aftertouch_c, 0, 36, 127
1, 690852, Note_off_c, 0, 43, 51
1, 690864, Poly_aftertouch_c, 0, 36, 0
1, 690877, Poly_aftertouch_c, 0, 40, 0
1, 690990, Note_on_c, 0, 78, 92
1, 690996, Note_on_c, 0, 81, 75
1, 690996, Note_on_c, 0, 84, 73
1, 690997, Note_on_c, 0, 89, 92
1, 691038, Note_on_c, 0, 86, 37
1, 691055, Note_off_c, 0, 78, 62
1, 691058, Note_off_c, 0, 81, 63
1, 691064, Note_off_c, 0, 89, 64
1, 691068, Note_off_c, 0, 86, 49
1, 691077, Note_off_c, 0, 84, 64
1, 691129, Note_on_c, 0, 89, 91
1, 691131, Note_on_c, 0, 81, 84
1, 691132, Note_on_c, 0, 77, 82
1, 691132, Note_on_c, 0, 78, 95
1, 691136, Note_on_c, 0, 66, 69
1, 691141, Note_on_c, 0, 72, 69
1, 691142, Note_on_c, 0, 69, 66
1, 691142, Note_on_c, 0, 84, 66
1, 691181, Note_off_c, 0, 66, 61
1, 691181, Note_off_c, 0, 69, 62
1, 691184, Note_off_c, 0, 72, 54
1, 691184, Note_off_c, 0, 77, 64
1, 691197, Note_off_c, 0, 89, 62
1, 691199, Note_off_c, 0, 78, 58
1, 691202, Note_off_c, 0, 81, 62
1, 691215, Note_off_c, 0, 84, 65
1, 691234, Poly_aftertouch_c, 0, 86, 0
1, 691259, Note_on_c, 0, 77, 53
1, 691265, Note_on_c, 0, 66, 66
1, 691285, Note_off_c, 0, 77, 58
1, 691291, Note_off_c, 0, 66, 63
1, 691327, Note_on_c, 0, 89, 82
1, 691331, Note_on_c, 0, 81, 69
1, 691336, Note_on_c, 0, 78, 67
1, 691340, Note_on_c, 0, 84, 62
1, 691356, Note_off_c, 0, 78, 61
1, 691364, Note_off_c, 0, 81, 65
1, 691371, Note_off_c, 0, 84, 66
1, 691379, Note_off_c, 0, 89, 63
1, 691397, Note_on_c, 0, 62, 106
1, 691403, Note_on_c, 0, 50, 91
1, 691425, Note_off_c, 0, 50, 72
1, 691430, Note_off_c, 0, 62, 69
1, 691535, Note_on_c, 0, 89, 92
1, 691539, Note_on_c, 0, 81, 82
1, 691539, Note_on_c, 0, 84, 51
1, 691544, Note_on_c, 0, 78, 96
1, 691616, Note_off_c, 0, 89, 63
1, 691616, Note_off_c, 0, 78, 62
1, 691626, Note_off_c, 0, 81, 65
1, 691632, Note_off_c, 0, 84, 66
1, 691667, Poly_aftertouch_c, 0, 86, 0
1, 691678, Poly_aftertouch_c, 0, 84, 0
1, 691686, Note_on_c, 0, 81, 87
1, 691686, Note_on_c, 0, 84, 75
1, 691689, Note_on_c, 0, 89, 95
1, 691692, Note_on_c, 0, 62, 118
1, 691692, Note_on_c, 0, 78, 89
1, 691697, Note_on_c, 0, 50, 93
1, 691710, Note_on_c, 0, 52, 73
1, 691730, Note_off_c, 0, 52, 59
1, 691734, Note_off_c, 0, 62, 67
1, 691744, Note_off_c, 0, 50, 65
1, 691750, Note_off_c, 0, 89, 60
1, 691753, Note_off_c, 0, 78, 59
1, 691759, Note_off_c, 0, 81, 65
1, 691762, Note_off_c, 0, 84, 66
1, 691821, Note_on_c, 0, 81, 60
1, 691827, Note_on_c, 0, 89, 47
1, 691836, Note_on_c, 0, 78, 61
1, 691850, Note_off_c, 0, 89, 59
1, 691857, Note_off_c, 0, 81, 60
1, 691878, Note_off_c, 0, 78, 63
1, 691944, Control_c, 0, 64, 70
1, 691959, Control_c, 0, 64, 39
1, 691964, Note_on_c, 0, 72, 108
1, 691973, Note_on_c, 0, 48, 86
1, 691973, Note_on_c, 0, 60, 114
1, 691974, Control_c, 0, 64, 0
1, 691988, Control_c, 0, 64, 46
1, 692003, Control_c, 0, 64, 71
1, 692007, Note_off_c, 0, 72, 66
1, 692008, Note_on_c, 0, 50, 49
1, 692018, Control_c, 0, 64, 127
1, 692019, Note_off_c, 0, 48, 65
1, 692027, Note_on_c, 0, 55, 15
1, 692039, Note_off_c, 0, 60, 66
1, 692039, Note_off_c, 0, 50, 36
1, 692073, Note_off_c, 0, 55, 38
1, 692154, Note_on_c, 0, 78, 88
1, 692158, Note_on_c, 0, 84, 63
1, 692158, Note_on_c, 0, 81, 73
1, 692162, Note_on_c, 0, 89, 67
1, 692175, Note_on_c, 0, 88, 65
1, 692193, Note_off_c, 0, 88, 65
1, 692200, Note_off_c, 0, 89, 64
1, 692203, Note_off_c, 0, 78, 63
1, 692210, Note_off_c, 0, 81, 64
1, 692224, Note_off_c, 0, 84, 66
1, 692280, Note_on_c, 0, 77, 85
1, 692283, Note_on_c, 0, 89, 85
1, 692283, Note_on_c, 0, 81, 73
1, 692284, Note_on_c, 0, 78, 81
1, 692286, Note_on_c, 0, 72, 75
1, 692287, Note_on_c, 0, 84, 64
1, 692292, Note_on_c, 0, 69, 71
1, 692306, Note_on_c, 0, 66, 53
1, 692335, Note_off_c, 0, 66, 65
1, 692338, Note_off_c, 0, 77, 65
1, 692341, Note_off_c, 0, 69, 61
1, 692352, Note_off_c, 0, 72, 63
1, 692355, Note_off_c, 0, 78, 59
1, 692358, Note_off_c, 0, 81, 62
1, 692358, Note_off_c, 0, 89, 60
1, 692373, Note_off_c, 0, 84, 65
1, 692416, Note_on_c, 0, 66, 75
1, 692418, Note_on_c, 0, 77, 81
1, 692426, Note_on_c, 0, 72, 53
1, 692441, Note_off_c, 0, 77, 69
1, 692456, Note_off_c, 0, 72, 65
1, 692459, Note_off_c, 0, 66, 60
1, 692477, Note_on_c, 0, 89, 84
1, 692480, Note_on_c, 0, 81, 81
1, 692481, Note_on_c, 0, 78, 89
1, 692487, Note_on_c, 0, 84, 75
1, 692534, Note_off_c, 0, 78, 62
1, 692534, Note_off_c, 0, 81, 64
1, 692536, Note_off_c, 0, 89, 63
1, 692542, Note_off_c, 0, 84, 62
1, 692543, Note_on_c, 0, 72, 110
1, 692552, Note_on_c, 0, 60, 97
1, 692571, Note_off_c, 0, 60, 70
1, 692576, Note_off_c, 0, 72, 67
1, 692644, Note_on_c, 0, 60, 25
1, 692675, Note_off_c, 0, 60, 55
1, 692687, Note_on_c, 0, 81, 67
1, 692690, Note_on_c, 0, 89, 94
1, 692694, Note_on_c, 0, 78, 99
1, 692694, Note_on_c, 0, 84, 77
1, 692741, Note_on_c, 0, 86, 40
1, 692769, Note_off_c, 0, 86, 57
1, 692772, Note_off_c, 0, 89, 63
1, 692776, Note_off_c, 0, 78, 62
1, 692784, Note_off_c, 0, 81, 65
1, 692790, Note_off_c, 0, 84, 64
1, 692833, Note_on_c, 0, 78, 103
1, 692833, Note_on_c, 0, 81, 89
1, 692834, Note_on_c, 0, 72, 107
1, 692835, Note_on_c, 0, 84, 85
1, 692835, Note_on_c, 0, 89, 96
1, 692838, Note_on_c, 0, 60, 85
1, 692864, Note_on_c, 0, 86, 48
1, 692865, Note_off_c, 0, 60, 66
1, 692870, Note_off_c, 0, 72, 66
1, 692896, Note_off_c, 0, 86, 52
1, 692905, Note_off_c, 0, 89, 64
1, 692908, Note_off_c, 0, 78, 63
1, 692921, Poly_aftertouch_c, 0, 68, 127
1, 692921, Note_on_c, 0, 63, 9
1, 692923, Note_off_c, 0, 81, 65
1, 692933, Note_off_c, 0, 84, 66
1, 692949, Poly_aftertouch_c, 0, 68, 0
1, 692954, Note_off_c, 0, 63, 46
1, 692975, Note_on_c, 0, 81, 82
1, 692990, Note_on_c, 0, 84, 58
1, 692991, Note_on_c, 0, 78, 76
1, 693009, Note_off_c, 0, 84, 63
1, 693020, Note_off_c, 0, 78, 52
1, 693023, Note_off_c, 0, 81, 65
1, 693066, Poly_aftertouch_c, 0, 89, 127
1, 693073, Note_on_c, 0, 78, 81
1, 693121, Poly_aftertouch_c, 0, 89, 0
1, 693124, Note_off_c, 0, 78, 63
1, 693145, Control_c, 0, 64, 89
1, 693160, Control_c, 0, 64, 60
1, 693175, Control_c, 0, 64, 0
1, 693205, Control_c, 0, 64, 10
1, 693220, Control_c, 0, 64, 58
1, 693223, Note_on_c, 0, 75, 77
1, 693225, Note_on_c, 0, 72, 82
1, 693228, Note_on_c, 0, 63, 81
1, 693234, Control_c, 0, 64, 90
1, 693249, Control_c, 0, 64, 127
1, 693256, Note_off_c, 0, 63, 68
1, 693263, Note_off_c, 0, 72, 59
1, 693276, Note_off_c, 0, 75, 65
1, 693303, Poly_aftertouch_c, 0, 60, 0
1, 693326, Poly_aftertouch_c, 0, 60, 0
1, 693351, Note_on_c, 0, 77, 91
1, 693367, Note_on_c, 0, 78, 90
1, 693372, Note_off_c, 0, 77, 72
1, 693386, Note_off_c, 0, 78, 69
1, 693419, Note_on_c, 0, 78, 106
1, 693519, Note_off_c, 0, 78, 65
1, 693523, Poly_aftertouch_c, 0, 82, 0
1, 693580, Note_on_c, 0, 77, 92
1, 693584, Note_on_c, 0, 78, 75
1, 693613, Note_off_c, 0, 78, 67
1, 693642, Note_on_c, 0, 81, 96
1, 693642, Note_on_c, 0, 89, 97
1, 693646, Note_on_c, 0, 84, 90
1, 693649, Note_off_c, 0, 77, 58
1, 693663, Note_on_c, 0, 82, 53
1, 693666, Note_on_c, 0, 86, 69
1, 693693, Note_off_c, 0, 82, 34
1, 693716, Note_off_c, 0, 89, 66
1, 693727, Note_off_c, 0, 86, 62
1, 693745, Note_off_c, 0, 84, 65
1, 693753, Note_off_c, 0, 81, 63
1, 693759, Poly_aftertouch_c, 0, 72, 0
1, 693789, Note_on_c, 0, 75, 95
1, 693789, Note_on_c, 0, 63, 81
1, 693796, Poly_aftertouch_c, 0, 72, 127
1, 693818, Note_off_c, 0, 63, 69
1, 693830, Note_off_c, 0, 75, 68
1, 693836, Poly_aftertouch_c, 0, 72, 0
1, 693884, Poly_aftertouch_c, 0, 78, 0
1, 693885, Note_on_c, 0, 84, 70
1, 693886, Note_on_c, 0, 81, 85
1, 693887, Note_on_c, 0, 63, 32
1, 693890, Note_on_c, 0, 89, 77
1, 693893, Note_on_c, 0, 78, 50
1, 693914, Note_off_c, 0, 89, 68
1, 693917, Note_off_c, 0, 63, 53
1, 693922, Note_off_c, 0, 78, 67
1, 693926, Note_off_c, 0, 81, 65
1, 693933, Note_off_c, 0, 84, 65
1, 693960, Note_on_c, 0, 81, 92
1, 693968, Note_on_c, 0, 89, 69
1, 693971, Note_on_c, 0, 84, 64
1, 693982, Note_on_c, 0, 78, 76
1, 693997, Note_off_c, 0, 89, 65
1, 694000, Note_off_c, 0, 84, 67
1, 694004, Note_off_c, 0, 78, 55
1, 694015, Note_off_c, 0, 81, 67
1, 694049, Note_on_c, 0, 81, 89
1, 694061, Note_on_c, 0, 78, 81
1, 694105, Note_off_c, 0, 81, 65
1, 694108, Note_off_c, 0, 78, 55
1, 694137, Note_on_c, 0, 63, 89
1, 694138, Note_on_c, 0, 72, 95
1, 694140, Note_on_c, 0, 60, 78
1, 694141, Note_on_c, 0, 81, 93
1, 694148, Note_on_c, 0, 78, 82
1, 694172, Note_off_c, 0, 72, 62
1, 694183, Note_off_c, 0, 60, 63
1, 694183, Note_off_c, 0, 63, 66
1, 694201, Note_off_c, 0, 81, 66
1, 694203, Note_off_c, 0, 78, 59
1, 694241, Note_on_c, 0, 81, 88
1, 694269, Note_on_c, 0, 78, 40
1, 694283, Note_off_c, 0, 81, 65
1, 694295, Note_off_c, 0, 78, 56
1, 694327, Note_on_c, 0, 81, 84
1, 694332, Note_on_c, 0, 78, 81
1, 694362, Note_off_c, 0, 81, 65
1, 694370, Note_off_c, 0, 78, 64
1, 694414, Control_c, 0, 64, 116
1, 694429, Control_c, 0, 64, 66
1, 694444, Control_c, 0, 64, 0
1, 694457, Note_on_c, 0, 47, 102
1, 694459, Note_on_c, 0, 35, 88
1, 694466, Note_on_c, 0, 59, 97
1, 694466, Note_on_c, 0, 63, 94
1, 694473, Control_c, 0, 64, 16
1, 694480, Note_on_c, 0, 41, 66
1, 694484, Note_off_c, 0, 63, 73
1, 694485, Note_off_c, 0, 35, 69
1, 694485, Note_off_c, 0, 59, 67
1, 694488, Control_c, 0, 64, 59
1, 694503, Control_c, 0, 64, 80
1, 694507, Note_off_c, 0, 41, 58
1, 694508, Note_off_c, 0, 47, 69
1, 694517, Control_c, 0, 64, 124
1, 694532, Control_c, 0, 64, 127
1, 694570, Note_on_c, 0, 63, 23
1, 694605, Note_off_c, 0, 63, 44
1, 694677, Note_on_c, 0, 77, 92
1, 694697, Note_off_c, 0, 77, 72
1, 694720, Note_on_c, 0, 81, 80
1, 694728, Note_on_c, 0, 84, 85
1, 694737, Note_on_c, 0, 89, 86
1, 694763, Note_on_c, 0, 88, 52
1, 694771, Note_on_c, 0, 78, 21
1, 694783, Note_on_c, 0, 83, 9
1, 694784, Note_off_c, 0, 83, 127
1, 694784, Note_on_c, 0, 86, 34
1, 694790, Note_off_c, 0, 88, 55
1, 694813, Note_off_c, 0, 78, 41
1, 694815, Note_off_c, 0, 89, 63
1, 694817, Note_off_c, 0, 86, 46
1, 694831, Note_off_c, 0, 81, 64
1, 694840, Note_off_c, 0, 84, 66
1, 694875, Note_on_c, 0, 77, 93
1, 694882, Note_on_c, 0, 78, 76
1, 694898, Note_off_c, 0, 78, 68
1, 694913, Note_off_c, 0, 77, 68
1, 694919, Note_on_c, 0, 81, 100
1, 694922, Note_on_c, 0, 89, 90
1, 694924, Note_on_c, 0, 84, 97
1, 694939, Note_on_c, 0, 86, 69
1, 694970, Control_c, 0, 64, 85
1, 694985, Control_c, 0, 64, 61
1, 694999, Control_c, 0, 64, 42
1, 695011, Note_off_c, 0, 89, 65
1, 695014, Control_c, 0, 64, 47
1, 695028, Note_off_c, 0, 86, 65
1, 695029, Control_c, 0, 64, 63
1, 695036, Note_on_c, 0, 59, 94
1, 695039, Note_off_c, 0, 81, 63
1, 695041, Note_on_c, 0, 51, 88
1, 695042, Note_off_c, 0, 84, 63
1, 695044, Control_c, 0, 64, 85
1, 695048, Note_on_c, 0, 47, 78
1, 695059, Control_c, 0, 64, 127
1, 695073, Note_off_c, 0, 59, 61
1, 695074, Note_off_c, 0, 47, 68
1, 695085, Note_off_c, 0, 51, 61
1, 695140, Note_on_c, 0, 78, 86
1, 695141, Note_on_c, 0, 89, 77
1, 695145, Note_on_c, 0, 81, 71
1, 695155, Note_on_c, 0, 84, 54
1, 695156, Note_off_c, 0, 89, 69
1, 695159, Note_off_c, 0, 81, 71
1, 695166, Note_off_c, 0, 78, 65
1, 695177, Note_off_c, 0, 84, 61
1, 695213, Note_on_c, 0, 81, 91
1, 695214, Note_on_c, 0, 78, 81
1, 695215, Note_on_c, 0, 89, 78
1, 695228, Note_on_c, 0, 84, 76
1, 695243, Note_off_c, 0, 89, 64
1, 695253, Note_off_c, 0, 84, 69
1, 695258, Note_off_c, 0, 78, 59
1, 695260, Note_off_c, 0, 81, 64
1, 695281, Control_c, 0, 64, 72
1, 695303, Control_c, 0, 64, 33
1, 695306, Note_on_c, 0, 81, 86
1, 695307, Note_on_c, 0, 84, 79
1, 695309, Note_on_c, 0, 89, 89
1, 695309, Note_on_c, 0, 78, 80
1, 695318, Control_c, 0, 64, 0
1, 695345, Note_off_c, 0, 89, 61
1, 695360, Note_off_c, 0, 78, 62
1, 695362, Note_off_c, 0, 84, 66
1, 695363, Control_c, 0, 64, 49
1, 695363, Note_off_c, 0, 81, 66
1, 695377, Control_c, 0, 64, 70
1, 695392, Note_on_c, 0, 59, 99
1, 695392, Control_c, 0, 64, 95
1, 695395, Note_on_c, 0, 81, 87
1, 695396, Note_on_c, 0, 47, 90
1, 695396, Note_on_c, 0, 78, 81
1, 695398, Note_on_c, 0, 89, 94
1, 695398, Note_on_c, 0, 51, 91
1, 695402, Note_on_c, 0, 84, 78
1, 695407, Control_c, 0, 64, 127
1, 695423, Note_off_c, 0, 47, 70
1, 695436, Note_off_c, 0, 59, 67
1, 695437, Note_off_c, 0, 51, 66
1, 695441, Note_off_c, 0, 89, 63
1, 695451, Note_off_c, 0, 78, 59
1, 695455, Note_off_c, 0, 81, 66
1, 695455, Note_off_c, 0, 84, 66
1, 695491, Note_on_c, 0, 81, 81
1, 695501, Note_on_c, 0, 78, 74
1, 695503, Note_on_c, 0, 89, 74
1, 695520, Note_off_c, 0, 89, 66
1, 695540, Note_off_c, 0, 78, 53
1, 695544, Note_off_c, 0, 81, 64
1, 695574, Note_on_c, 0, 89, 81
1, 695587, Poly_aftertouch_c, 0, 84, 0
1, 695595, Poly_aftertouch_c, 0, 78, 127
1, 695598, Note_off_c, 0, 89, 69
1, 695611, Poly_aftertouch_c, 0, 78, 0
1, 695616, Control_c, 0, 64, 68
1, 695630, Control_c, 0, 64, 0
1, 695666, Note_on_c, 0, 72, 118
1, 695675, Note_on_c, 0, 69, 111
1, 695675, Control_c, 0, 64, 40
1, 695677, Note_on_c, 0, 60, 90
1, 695683, Note_on_c, 0, 57, 78
1, 695690, Control_c, 0, 64, 73
1, 695703, Note_off_c, 0, 60, 66
1, 695704, Control_c, 0, 64, 127
1, 695705, Note_off_c, 0, 72, 67
1, 695707, Note_off_c, 0, 69, 67
1, 695708, Note_off_c, 0, 57, 67
1, 695819, Note_on_c, 0, 57, 7
1, 695855, Note_off_c, 0, 57, 47
1, 695866, Note_on_c, 0, 77, 100
1, 695869, Note_on_c, 0, 78, 108
1, 695894, Note_off_c, 0, 77, 68
1, 695894, Note_off_c, 0, 78, 68
1, 695900, Note_on_c, 0, 88, 42
1, 695926, Note_on_c, 0, 81, 94
1, 695926, Note_off_c, 0, 88, 59
1, 695934, Note_on_c, 0, 84, 85
1, 695940, Note_on_c, 0, 83, 88
1, 695940, Note_on_c, 0, 89, 82
1, 695990, Note_off_c, 0, 89, 62
1, 695992, Note_on_c, 0, 86, 19
1, 696013, Note_off_c, 0, 81, 65
1, 696018, Note_off_c, 0, 83, 61
1, 696019, Note_off_c, 0, 84, 65
1, 696031, Note_off_c, 0, 86, 43
1, 696081, Note_on_c, 0, 77, 82
1, 696088, Note_on_c, 0, 78, 90
1, 696106, Note_off_c, 0, 78, 71
1, 696121, Note_off_c, 0, 77, 69
1, 696127, Note_on_c, 0, 81, 90
1, 696141, Note_on_c, 0, 84, 86
1, 696141, Note_on_c, 0, 83, 84
1, 696141, Note_on_c, 0, 89, 92
1, 696157, Note_on_c, 0, 86, 65
1, 696212, Note_off_c, 0, 86, 65
1, 696222, Note_off_c, 0, 83, 64
1, 696224, Note_off_c, 0, 84, 67
1, 696224, Note_off_c, 0, 89, 65
1, 696245, Poly_aftertouch_c, 0, 78, 0
1, 696260, Control_c, 0, 64, 83
1, 696263, Note_off_c, 0, 81, 54
1, 696275, Control_c, 0, 64, 66
1, 696281, Note_on_c, 0, 69, 98
1, 696285, Note_on_c, 0, 60, 81
1, 696290, Control_c, 0, 64, 62
1, 696290, Note_on_c, 0, 84, 26
1, 696295, Note_on_c, 0, 57, 78
1, 696304, Control_c, 0, 64, 68
1, 696319, Control_c, 0, 64, 84
1, 696319, Note_off_c, 0, 57, 65
1, 696332, Note_off_c, 0, 69, 66
1, 696334, Control_c, 0, 64, 127
1, 696337, Note_on_c, 0, 63, 7
1, 696340, Note_off_c, 0, 84, 0
1, 696348, Note_off_c, 0, 60, 63
1, 696349, Note_on_c, 0, 78, 85
1, 696349, Note_on_c, 0, 81, 80
1, 696349, Note_on_c, 0, 89, 86
1, 696360, Note_on_c, 0, 84, 43
1, 696372, Note_off_c, 0, 89, 68
1, 696375, Note_off_c, 0, 78, 63
1, 696379, Note_off_c, 0, 81, 65
1, 696385, Note_off_c, 0, 63, 40
1, 696386, Note_off_c, 0, 84, 63
1, 696427, Note_on_c, 0, 89, 83
1, 696430, Note_on_c, 0, 81, 86
1, 696436, Note_on_c, 0, 78, 78
1, 696437, Note_on_c, 0, 84, 86
1, 696460, Note_off_c, 0, 78, 64
1, 696468, Note_off_c, 0, 89, 62
1, 696476, Note_off_c, 0, 81, 66
1, 696480, Note_off_c, 0, 84, 66
1, 696516, Poly_aftertouch_c, 0, 84, 0
1, 696516, Note_on_c, 0, 81, 89
1, 696518, Note_on_c, 0, 78, 89
1, 696521, Note_on_c, 0, 84, 76
1, 696521, Note_on_c, 0, 89, 76
1, 696552, Note_on_c, 0, 88, 50
1, 696553, Note_off_c, 0, 88, 127
1, 696564, Note_off_c, 0, 78, 59
1, 696565, Note_off_c, 0, 89, 61
1, 696577, Note_off_c, 0, 81, 65
1, 696580, Note_off_c, 0, 84, 67
1, 696609, Note_on_c, 0, 81, 84
1, 696612, Note_on_c, 0, 89, 89
1, 696613, Note_on_c, 0, 57, 88
1, 696615, Note_on_c, 0, 69, 104
1, 696615, Note_on_c, 0, 78, 88
1, 696616, Note_on_c, 0, 84, 77
1, 696621, Note_on_c, 0, 60, 91
1, 696642, Note_on_c, 0, 63, 61
1, 696649, Note_off_c, 0, 69, 69
1, 696650, Note_on_c, 0, 59, 54
1, 696659, Note_off_c, 0, 89, 64
1, 696664, Note_off_c, 0, 63, 64
1, 696668, Note_off_c, 0, 57, 64
1, 696670, Note_off_c, 0, 60, 65
1, 696674, Note_off_c, 0, 59, 59
1, 696677, Note_off_c, 0, 84, 66
1, 696678, Note_off_c, 0, 81, 67
1, 696680, Note_off_c, 0, 78, 59
1, 696719, Note_on_c, 0, 81, 92
1, 696724, Note_on_c, 0, 89, 88
1, 696743, Note_on_c, 0, 78, 41
1, 696767, Note_off_c, 0, 89, 59
1, 696768, Note_off_c, 0, 81, 66
1, 696769, Note_off_c, 0, 78, 56
1, 696811, Note_on_c, 0, 78, 90
1, 696814, Note_on_c, 0, 81, 81
1, 696817, Note_on_c, 0, 89, 55
1, 696839, Note_off_c, 0, 89, 60
1, 696847, Note_off_c, 0, 81, 65
1, 696856, Note_off_c, 0, 78, 65
1, 696934, Control_c, 0, 64, 73
1, 696948, Control_c, 0, 64, 36
1, 696963, Control_c, 0, 64, 0
1, 696981, Note_on_c, 0, 32, 89
1, 696981, Note_on_c, 0, 44, 111
1, 696982, Note_on_c, 0, 56, 107
1, 696983, Note_on_c, 0, 60, 95
1, 696985, Note_on_c, 0, 36, 90
1, 696993, Control_c, 0, 64, 41
1, 696999, Note_off_c, 0, 56, 72
1, 696999, Note_on_c, 0, 38, 65
1, 697002, Note_off_c, 0, 60, 68
1, 697008, Control_c, 0, 64, 69
1, 697014, Note_off_c, 0, 32, 64
1, 697023, Control_c, 0, 64, 87
1, 697029, Note_off_c, 0, 38, 65
1, 697032, Note_off_c, 0, 36, 66
1, 697034, Note_off_c, 0, 44, 66
1, 697038, Control_c, 0, 64, 109
1, 697052, Control_c, 0, 64, 112
1, 697067, Control_c, 0, 64, 111
1, 697080, Note_on_c, 0, 56, 24
1, 697104, Note_off_c, 0, 56, 57
1, 697156, Control_c, 0, 64, 113
1, 697172, Control_c, 0, 64, 127
1, 697262, Note_on_c, 0, 77, 106
1, 697277, Note_on_c, 0, 78, 106
1, 697297, Note_on_c, 0, 70, 58
1, 697298, Note_off_c, 0, 70, 127
1, 697306, Note_on_c, 0, 75, 50
1, 697306, Note_off_c, 0, 77, 66
1, 697324, Note_on_c, 0, 81, 95
1, 697329, Note_on_c, 0, 73, 10
1, 697330, Note_on_c, 0, 84, 90
1, 697330, Note_on_c, 0, 89, 86
1, 697330, Note_off_c, 0, 75, 62
1, 697339, Note_off_c, 0, 78, 60
1, 697351, Note_on_c, 0, 83, 54
1, 697352, Note_off_c, 0, 83, 127
1, 697367, Note_on_c, 0, 86, 32
1, 697374, Note_off_c, 0, 73, 36
1, 697401, Note_off_c, 0, 86, 57
1, 697421, Note_off_c, 0, 89, 63
1, 697431, Note_off_c, 0, 81, 64
1, 697434, Note_off_c, 0, 84, 65
1, 697441, Note_on_c, 0, 75, 25
1, 697476, Note_on_c, 0, 77, 88
1, 697478, Note_off_c, 0, 75, 51
1, 697480, Note_on_c, 0, 78, 83
1, 697503, Note_off_c, 0, 78, 70
1, 697522, Note_on_c, 0, 81, 94
1, 697525, Note_off_c, 0, 77, 68
1, 697530, Note_on_c, 0, 84, 96
1, 697531, Note_on_c, 0, 89, 92
1, 697539, Note_on_c, 0, 87, 84
1, 697561, Note_on_c, 0, 85, 54
1, 697599, Note_off_c, 0, 87, 66
1, 697620, Note_off_c, 0, 85, 37
1, 697621, Note_off_c, 0, 89, 65
1, 697631, Note_on_c, 0, 86, 20
1, 697671, Note_off_c, 0, 86, 40
1, 697689, Note_on_c, 0, 56, 104
1, 697701, Note_on_c, 0, 44, 86
1, 697701, Note_on_c, 0, 48, 81
1, 697701, Note_off_c, 0, 81, 59
1, 697708, Note_on_c, 0, 51, 75
1, 697720, Note_off_c, 0, 84, 57
1, 697725, Note_on_c, 0, 49, 36
1, 697729, Note_on_c, 0, 46, 51
1, 697736, Note_off_c, 0, 51, 65
1, 697753, Note_on_c, 0, 81, 78
1, 697753, Note_on_c, 0, 89, 83
1, 697756, Note_off_c, 0, 56, 64
1, 697756, Note_on_c, 0, 78, 102
1, 697756, Note_off_c, 0, 46, 53
1, 697759, Note_off_c, 0, 44, 61
1, 697765, Note_off_c, 0, 49, 49
1, 697775, Note_on_c, 0, 84, 51
1, 697776, Note_off_c, 0, 48, 64
1, 697781, Note_off_c, 0, 89, 61
1, 697795, Note_off_c, 0, 84, 64
1, 697796, Note_off_c, 0, 81, 66
1, 697799, Note_off_c, 0, 78, 60
1, 697834, Poly_aftertouch_c, 0, 86, 0
1, 697839, Note_on_c, 0, 89, 93
1, 697840, Note_on_c, 0, 81, 87
1, 697845, Note_on_c, 0, 78, 83
1, 697853, Note_on_c, 0, 84, 89
1, 697867, Note_on_c, 0, 85, 40
1, 697872, Poly_aftertouch_c, 0, 86, 127
1, 697874, Note_off_c, 0, 85, 55
1, 697879, Note_off_c, 0, 89, 63
1, 697882, Note_off_c, 0, 84, 64
1, 697887, Note_off_c, 0, 78, 62
1, 697891, Note_off_c, 0, 81, 66
1, 697894, Poly_aftertouch_c, 0, 86, 0
1, 697914, Poly_aftertouch_c, 0, 46, 0
1, 697925, Note_on_c, 0, 81, 91
1, 697926, Note_on_c, 0, 78, 90
1, 697927, Note_on_c, 0, 89, 89
1, 697935, Note_on_c, 0, 84, 87
1, 697938, Poly_aftertouch_c, 0, 46, 0
1, 697975, Note_off_c, 0, 89, 63
1, 697980, Note_on_c, 0, 86, 32
1, 697996, Note_off_c, 0, 78, 56
1, 698001, Note_off_c, 0, 81, 64
1, 698002, Note_off_c, 0, 84, 65
1, 698015, Note_off_c, 0, 86, 46
1, 698042, Note_on_c, 0, 89, 101
1, 698043, Note_on_c, 0, 81, 87
1, 698046, Note_on_c, 0, 78, 96
1, 698052, Note_on_c, 0, 44, 94
1, 698052, Note_on_c, 0, 56, 121
1, 698054, Note_on_c, 0, 84, 79
1, 698062, Note_on_c, 0, 48, 90
1, 698081, Note_on_c, 0, 50, 58
1, 698094, Note_on_c, 0, 46, 33
1, 698096, Note_off_c, 0, 89, 63
1, 698100, Note_off_c, 0, 44, 63
1, 698106, Note_off_c, 0, 50, 65
1, 698108, Note_off_c, 0, 48, 66
1, 698111, Note_off_c, 0, 56, 67
1, 698114, Note_off_c, 0, 78, 64
1, 698124, Note_off_c, 0, 81, 66
1, 698125, Note_off_c, 0, 84, 65
1, 698127, Note_off_c, 0, 46, 43
1, 698156, Poly_aftertouch_c, 0, 51, 0
1, 698163, Note_on_c, 0, 89, 97
1, 698167, Note_on_c, 0, 81, 88
1, 698175, Note_on_c, 0, 78, 85
1, 698178, Note_on_c, 0, 84, 60
1, 698180, Poly_aftertouch_c, 0, 51, 0
1, 698213, Note_off_c, 0, 84, 63
1, 698213, Note_off_c, 0, 89, 61
1, 698214, Note_off_c, 0, 78, 52
1, 698224, Note_off_c, 0, 81, 66
1, 698240, Poly_aftertouch_c, 0, 86, 0
1, 698263, Note_on_c, 0, 89, 89
1, 698265, Note_on_c, 0, 81, 88
1, 698269, Note_on_c, 0, 78, 94
1, 698308, Note_off_c, 0, 89, 65
1, 698321, Note_off_c, 0, 81, 65
1, 698323, Note_off_c, 0, 78, 63
1, 698481, Note_on_c, 0, 69, 103
1, 698482, Note_on_c, 0, 77, 104
1, 698483, Note_on_c, 0, 72, 103
1, 698488, Note_on_c, 0, 73, 98
1, 698490, Note_on_c, 0, 63, 93
1, 698492, Note_on_c, 0, 67, 95
1, 698492, Control_c, 0, 64, 76
1, 698506, Control_c, 0, 64, 46
1, 698517, Note_off_c, 0, 72, 64
1, 698519, Note_off_c, 0, 69, 67
1, 698519, Note_off_c, 0, 77, 64
1, 698521, Control_c, 0, 64, 0
1, 698531, Note_on_c, 0, 65, 40
1, 698539, Note_off_c, 0, 67, 62
1, 698544, Note_off_c, 0, 73, 64
1, 698547, Note_off_c, 0, 63, 64
1, 698564, Note_off_c, 0, 65, 34
1, 698615, Note_on_c, 0, 77, 55
1, 698633, Note_on_c, 0, 69, 73
1, 698633, Note_on_c, 0, 73, 83
1, 698637, Note_on_c, 0, 72, 62
1, 698641, Note_on_c, 0, 63, 70
1, 698647, Note_on_c, 0, 67, 71
1, 698673, Note_off_c, 0, 69, 57
1, 698677, Note_off_c, 0, 67, 65
1, 698678, Note_off_c, 0, 72, 64
1, 698680, Note_off_c, 0, 77, 65
1, 698683, Note_off_c, 0, 73, 65
1, 698687, Note_off_c, 0, 63, 62
1, 698766, Note_on_c, 0, 67, 48
1, 698771, Note_on_c, 0, 73, 68
1, 698776, Note_on_c, 0, 69, 57
1, 698780, Note_on_c, 0, 63, 60
1, 698785, Note_on_c, 0, 77, 40
1, 698789, Note_on_c, 0, 72, 42
1, 698806, Note_off_c, 0, 73, 61
1, 698807, Note_off_c, 0, 69, 55
1, 698810, Note_off_c, 0, 77, 55
1, 698814, Note_off_c, 0, 63, 63
1, 698814, Note_off_c, 0, 72, 48
1, 698816, Note_off_c, 0, 67, 51
1, 698886, Note_on_c, 0, 77, 75
1, 698895, Note_on_c, 0, 72, 66
1, 698899, Note_on_c, 0, 69, 55
1, 698899, Note_on_c, 0, 73, 68
1, 698903, Note_on_c, 0, 63, 58
1, 698922, Note_on_c, 0, 67, 57
1, 698927, Note_off_c, 0, 72, 65
1, 698931, Note_off_c, 0, 69, 53
1, 698931, Note_off_c, 0, 77, 62
1, 698943, Note_off_c, 0, 67, 63
1, 698947, Note_off_c, 0, 73, 60
1, 698948, Note_off_c, 0, 63, 63
1, 699029, Note_on_c, 0, 69, 54
1, 699034, Note_on_c, 0, 72, 59
1, 699034, Note_on_c, 0, 77, 68
1, 699037, Note_on_c, 0, 67, 53
1, 699047, Note_on_c, 0, 73, 66
1, 699048, Note_on_c, 0, 63, 61
1, 699073, Note_off_c, 0, 77, 63
1, 699076, Note_off_c, 0, 72, 63
1, 699082, Note_off_c, 0, 69, 60
1, 699083, Note_off_c, 0, 67, 65
1, 699083, Note_off_c, 0, 73, 63
1, 699084, Note_off_c, 0, 63, 65
1, 699168, Note_on_c, 0, 77, 69
1, 699169, Note_on_c, 0, 72, 65
1, 699169, Note_on_c, 0, 73, 71
1, 699171, Note_on_c, 0, 69, 68
1, 699175, Note_on_c, 0, 63, 56
1, 699179, Note_on_c, 0, 67, 60
1, 699200, Note_off_c, 0, 77, 63
1, 699205, Note_off_c, 0, 72, 64
1, 699207, Note_off_c, 0, 69, 64
1, 699212, Note_off_c, 0, 67, 64
1, 699214, Note_off_c, 0, 63, 65
1, 699220, Note_off_c, 0, 73, 58
1, 699292, Note_on_c, 0, 77, 74
1, 699297, Note_on_c, 0, 72, 68
1, 699298, Note_on_c, 0, 73, 62
1, 699300, Note_on_c, 0, 63, 64
1, 699300, Note_on_c, 0, 67, 54
1, 699302, Note_on_c, 0, 69, 61
1, 699329, Note_off_c, 0, 77, 62
1, 699333, Note_off_c, 0, 72, 62
1, 699334, Note_off_c, 0, 69, 65
1, 699335, Note_off_c, 0, 67, 64
1, 699337, Note_off_c, 0, 63, 64
1, 699339, Note_off_c, 0, 73, 60
1, 699426, Note_on_c, 0, 73, 72
1, 699427, Note_on_c, 0, 63, 62
1, 699429, Note_on_c, 0, 69, 73
1, 699430, Note_on_c, 0, 77, 82
1, 699431, Note_on_c, 0, 67, 61
1, 699432, Note_on_c, 0, 72, 75
1, 699459, Note_off_c, 0, 69, 66
1, 699463, Note_off_c, 0, 67, 64
1, 699465, Note_off_c, 0, 72, 62
1, 699466, Note_off_c, 0, 73, 59
1, 699472, Note_off_c, 0, 63, 61
1, 699472, Note_off_c, 0, 77, 61
1, 699567, Note_on_c, 0, 71, 90
1, 699577, Note_on_c, 0, 79, 77
1, 699578, Note_on_c, 0, 61, 70
1, 699578, Note_on_c, 0, 74, 75
1, 699595, Note_on_c, 0, 65, 53
1, 699605, Note_off_c, 0, 74, 66
1, 699605, Note_off_c, 0, 79, 65
1, 699610, Note_off_c, 0, 61, 65
1, 699614, Note_off_c, 0, 71, 62
1, 699625, Note_off_c, 0, 65, 63
1, 699696, Note_on_c, 0, 71, 85
1, 699700, Note_on_c, 0, 61, 64
1, 699703, Note_on_c, 0, 74, 64
1, 699705, Note_on_c, 0, 79, 72
1, 699713, Note_on_c, 0, 65, 50
1, 699737, Note_off_c, 0, 61, 63
1, 699737, Note_off_c, 0, 71, 60
1, 699738, Note_off_c, 0, 79, 63
1, 699739, Note_off_c, 0, 74, 66
1, 699746, Note_off_c, 0, 65, 63
1, 699829, Note_on_c, 0, 71, 91
1, 699837, Note_on_c, 0, 79, 82
1, 699838, Note_on_c, 0, 61, 67
1, 699838, Note_on_c, 0, 74, 77
1, 699840, Note_on_c, 0, 65, 66
1, 699867, Note_off_c, 0, 71, 59
1, 699868, Note_off_c, 0, 74, 66
1, 699871, Note_off_c, 0, 79, 66
1, 699871, Note_off_c, 0, 65, 65
1, 699873, Note_off_c, 0, 61, 63
1, 699944, Control_c, 0, 64, 56
1, 699959, Control_c, 0, 64, 127
1, 699960, Note_on_c, 0, 73, 102
1, 699960, Note_on_c, 0, 81, 116
1, 699961, Note_on_c, 0, 76, 107
1, 699963, Note_on_c, 0, 69, 109
1, 699966, Note_on_c, 0, 59, 98
1, 699975, Note_on_c, 0, 63, 102
1, 699982, Note_on_c, 0, 66, 67
1, 699987, Note_off_c, 0, 59, 72
1, 699989, Control_c, 0, 67, 9
1, 699994, Note_off_c, 0, 69, 69
1, 699996, Note_off_c, 0, 63, 70
1, 699999, Note_off_c, 0, 66, 66
1, 700000, Note_off_c, 0, 81, 64
1, 700004, Control_c, 0, 67, 29
1, 700005, Note_off_c, 0, 73, 61
1, 700015, Note_off_c, 0, 76, 63
1, 700019, Control_c, 0, 67, 37
1, 700034, Control_c, 0, 67, 29
1, 700049, Control_c, 0, 67, 22
1, 700063, Control_c, 0, 67, 11
1, 700078, Control_c, 0, 64, 84
1, 700078, Control_c, 0, 67, 0
1, 700093, Control_c, 0, 64, 41
1, 700108, Control_c, 0, 64, 0
1, 700123, Note_on_c, 0, 67, 49
1, 700124, Note_on_c, 0, 77, 86
1, 700126, Note_on_c, 0, 69, 78
1, 700133, Note_on_c, 0, 72, 65
1, 700137, Note_on_c, 0, 73, 67
1, 700138, Note_off_c, 0, 69, 76
1, 700144, Note_on_c, 0, 74, 56
1, 700144, Note_off_c, 0, 77, 69
1, 700150, Note_off_c, 0, 72, 64
1, 700153, Note_on_c, 0, 63, 56
1, 700165, Note_off_c, 0, 73, 67
1, 700168, Note_off_c, 0, 74, 60
1, 700187, Note_off_c, 0, 63, 66
1, 700189, Note_off_c, 0, 67, 63
1, 700203, Note_on_c, 0, 69, 31
1, 700238, Note_off_c, 0, 69, 50
1, 700264, Note_on_c, 0, 71, 123
1, 700264, Note_on_c, 0, 79, 111
1, 700265, Note_on_c, 0, 74, 93
1, 700271, Note_on_c, 0, 61, 98
1, 700275, Note_on_c, 0, 65, 90
1, 700284, Control_c, 0, 64, 127
1, 700324, Note_off_c, 0, 79, 60
1, 700329, Note_on_c, 0, 62, 8
1, 700329, Note_off_c, 0, 61, 62
1, 700330, Note_off_c, 0, 74, 63
1, 700332, Note_off_c, 0, 71, 60
1, 700353, Note_off_c, 0, 65, 60
1, 700370, Note_off_c, 0, 62, 44
1, 700374, Control_c, 0, 64, 111
1, 700389, Control_c, 0, 64, 63
1, 700398, Note_on_c, 0, 79, 89
1, 700400, Note_on_c, 0, 74, 78
1, 700400, Note_on_c, 0, 71, 90
1, 700402, Note_on_c, 0, 65, 59
1, 700404, Control_c, 0, 64, 0
1, 700424, Note_on_c, 0, 61, 68
1, 700432, Note_off_c, 0, 74, 64
1, 700440, Note_off_c, 0, 79, 64
1, 700452, Note_off_c, 0, 71, 58
1, 700454, Note_off_c, 0, 61, 60
1, 700463, Note_off_c, 0, 65, 62
1, 700526, Note_on_c, 0, 71, 79
1, 700529, Note_on_c, 0, 79, 84
1, 700543, Note_on_c, 0, 74, 74
1, 700545, Note_on_c, 0, 61, 56
1, 700561, Note_on_c, 0, 65, 46
1, 700571, Note_off_c, 0, 74, 68
1, 700573, Note_off_c, 0, 79, 65
1, 700578, Note_off_c, 0, 71, 65
1, 700579, Note_off_c, 0, 61, 64
1, 700586, Note_off_c, 0, 65, 60
1, 700655, Note_on_c, 0, 71, 85
1, 700657, Note_on_c, 0, 79, 81
1, 700663, Note_on_c, 0, 74, 53
1, 700664, Note_on_c, 0, 61, 64
1, 700666, Note_on_c, 0, 65, 60
1, 700699, Note_off_c, 0, 61, 64
1, 700702, Note_off_c, 0, 74, 65
1, 700704, Note_off_c, 0, 79, 63
1, 700707, Note_off_c, 0, 71, 63
1, 700710, Note_off_c, 0, 65, 63
1, 700788, Note_on_c, 0, 71, 81
1, 700793, Note_on_c, 0, 79, 81
1, 700794, Note_on_c, 0, 74, 70
1, 700799, Note_on_c, 0, 61, 58
1, 700812, Note_on_c, 0, 65, 59
1, 700833, Note_off_c, 0, 79, 64
1, 700833, Note_off_c, 0, 74, 63
1, 700838, Note_off_c, 0, 61, 63
1, 700840, Note_off_c, 0, 71, 62
1, 700844, Note_off_c, 0, 65, 65
1, 700916, Note_on_c, 0, 71, 83
1, 700921, Note_on_c, 0, 61, 67
1, 700926, Note_on_c, 0, 79, 79
1, 700930, Note_on_c, 0, 65, 58
1, 700930, Note_on_c, 0, 74, 73
1, 700958, Note_off_c, 0, 79, 63
1, 700961, Note_off_c, 0, 61, 61
1, 700961, Note_off_c, 0, 74, 65
1, 700972, Note_off_c, 0, 71, 62
1, 700973, Note_off_c, 0, 65, 63
1, 701044, Note_on_c, 0, 71, 83
1, 701049, Note_on_c, 0, 79, 84
1, 701053, Note_on_c, 0, 74, 74
1, 701059, Note_on_c, 0, 65, 61
1, 701061, Note_on_c, 0, 61, 64
1, 701086, Note_off_c, 0, 74, 63
1, 701089, Note_off_c, 0, 79, 64
1, 701089, Note_off_c, 0, 61, 64
1, 701098, Note_off_c, 0, 71, 61
1, 701103, Note_off_c, 0, 65, 62
1, 701168, Note_on_c, 0, 71, 84
1, 701175, Note_on_c, 0, 61, 66
1, 701176, Note_on_c, 0, 74, 72
1, 701176, Note_on_c, 0, 79, 78
1, 701190, Note_on_c, 0, 65, 64
1, 701215, Note_off_c, 0, 74, 62
1, 701215, Note_off_c, 0, 79, 61
1, 701216, Note_off_c, 0, 61, 60
1, 701221, Note_off_c, 0, 65, 64
1, 701223, Note_off_c, 0, 71, 61
1, 701304, Note_on_c, 0, 71, 87
1, 701309, Note_on_c, 0, 79, 85
1, 701316, Note_on_c, 0, 61, 64
1, 701317, Note_on_c, 0, 74, 69
1, 701319, Note_on_c, 0, 65, 53
1, 701323, Control_c, 0, 64, 11
1, 701338, Control_c, 0, 64, 40
1, 701345, Note_off_c, 0, 65, 61
1, 701346, Note_off_c, 0, 71, 60
1, 701346, Note_off_c, 0, 74, 66
1, 701353, Note_off_c, 0, 61, 62
1, 701353, Control_c, 0, 64, 41
1, 701359, Note_off_c, 0, 79, 64
1, 701368, Control_c, 0, 64, 34
1, 701383, Control_c, 0, 64, 19
1, 701397, Control_c, 0, 64, 0
1, 701443, Note_on_c, 0, 69, 80
1, 701445, Note_on_c, 0, 81, 85
1, 701452, Note_on_c, 0, 73, 79
1, 701456, Note_on_c, 0, 59, 68
1, 701456, Note_on_c, 0, 76, 70
1, 701474, Note_on_c, 0, 63, 33
1, 701482, Note_off_c, 0, 63, 42
1, 701485, Note_off_c, 0, 73, 58
1, 701487, Note_off_c, 0, 69, 62
1, 701488, Note_off_c, 0, 76, 62
1, 701491, Note_off_c, 0, 59, 65
1, 701493, Note_off_c, 0, 81, 63
1, 701563, Note_on_c, 0, 76, 70
1, 701566, Note_on_c, 0, 73, 77
1, 701567, Note_on_c, 0, 59, 69
1, 701567, Note_on_c, 0, 81, 77
1, 701571, Note_on_c, 0, 69, 75
1, 701583, Note_on_c, 0, 63, 66
1, 701605, Note_off_c, 0, 81, 62
1, 701608, Note_off_c, 0, 76, 62
1, 701611, Note_off_c, 0, 59, 64
1, 701611, Note_off_c, 0, 63, 66
1, 701611, Note_off_c, 0, 73, 59
1, 701611, Note_off_c, 0, 69, 62
1, 701687, Note_on_c, 0, 81, 83
1, 701692, Note_on_c, 0, 69, 84
1, 701694, Note_on_c, 0, 73, 74
1, 701695, Note_on_c, 0, 63, 71
1, 701697, Note_on_c, 0, 59, 65
1, 701697, Note_on_c, 0, 76, 74
1, 701731, Note_off_c, 0, 76, 65
1, 701732, Note_off_c, 0, 59, 66
1, 701733, Note_off_c, 0, 69, 61
1, 701733, Note_off_c, 0, 81, 65
1, 701734, Note_off_c, 0, 63, 63
1, 701742, Note_off_c, 0, 73, 63
1, 701797, Control_c, 0, 64, 78
1, 701810, Note_on_c, 0, 75, 102
1, 701812, Note_on_c, 0, 78, 99
1, 701812, Note_on_c, 0, 83, 107
1, 701812, Control_c, 0, 64, 127
1, 701814, Note_on_c, 0, 67, 110
1, 701814, Note_on_c, 0, 82, 91
1, 701818, Note_on_c, 0, 57, 94
1, 701822, Note_on_c, 0, 61, 93
1, 701828, Note_on_c, 0, 81, 76
1, 701844, Note_off_c, 0, 81, 43
1, 701853, Note_off_c, 0, 82, 64
1, 701858, Note_off_c, 0, 78, 66
1, 701859, Note_off_c, 0, 57, 64
1, 701859, Note_off_c, 0, 83, 64
1, 701861, Note_off_c, 0, 61, 62
1, 701861, Note_off_c, 0, 75, 66
1, 701864, Note_off_c, 0, 67, 63
1, 701930, Control_c, 0, 64, 85
1, 701945, Control_c, 0, 64, 60
1, 701953, Note_on_c, 0, 79, 98
1, 701953, Note_on_c, 0, 71, 100
1, 701961, Control_c, 0, 64, 0
1, 701962, Note_on_c, 0, 65, 80
1, 701962, Note_on_c, 0, 74, 73
1, 701968, Note_on_c, 0, 61, 76
1, 701988, Note_off_c, 0, 74, 69
1, 701989, Note_off_c, 0, 71, 58
1, 701992, Note_off_c, 0, 65, 65
1, 701995, Note_off_c, 0, 79, 66
1, 701999, Note_off_c, 0, 61, 65
1, 702072, Control_c, 0, 64, 59
1, 702082, Note_on_c, 0, 81, 108
1, 702083, Note_on_c, 0, 69, 104
1, 702084, Note_on_c, 0, 73, 108
1, 702087, Note_on_c, 0, 76, 96
1, 702087, Control_c, 0, 64, 127
1, 702088, Note_on_c, 0, 63, 99
1, 702091, Note_on_c, 0, 59, 87
1, 702108, Note_on_c, 0, 79, 65
1, 702116, Note_on_c, 0, 61, 35
1, 702132, Note_off_c, 0, 79, 40
1, 702144, Note_off_c, 0, 61, 54
1, 702150, Note_off_c, 0, 81, 65
1, 702152, Note_off_c, 0, 59, 63
1, 702154, Note_off_c, 0, 73, 64
1, 702154, Note_off_c, 0, 76, 63
1, 702158, Note_off_c, 0, 69, 63
1, 702158, Note_off_c, 0, 63, 64
1, 702205, Control_c, 0, 64, 101
1, 702213, Note_on_c, 0, 81, 96
1, 702214, Note_on_c, 0, 73, 83
1, 702216, Note_on_c, 0, 76, 86
1, 702220, Note_on_c, 0, 69, 88
1, 702220, Control_c, 0, 64, 66
1, 702221, Note_on_c, 0, 59, 80
1, 702225, Note_on_c, 0, 63, 79
1, 702235, Control_c, 0, 64, 20
1, 702250, Control_c, 0, 64, 0
1, 702254, Note_off_c, 0, 73, 60
1, 702258, Note_off_c, 0, 76, 63
1, 702266, Note_off_c, 0, 59, 63
1, 702266, Note_off_c, 0, 63, 65
1, 702268, Note_off_c, 0, 81, 64
1, 702269, Note_off_c, 0, 69, 65
1, 702339, Note_on_c, 0, 83, 101
1, 702339, Control_c, 0, 64, 56
1, 702343, Note_on_c, 0, 78, 96
1, 702344, Note_on_c, 0, 67, 104
1, 702344, Note_on_c, 0, 75, 105
1, 702350, Note_on_c, 0, 57, 91
1, 702350, Note_on_c, 0, 61, 92
1, 702353, Control_c, 0, 64, 127
1, 702399, Note_off_c, 0, 83, 65
1, 702409, Note_off_c, 0, 75, 65
1, 702409, Note_off_c, 0, 57, 63
1, 702416, Note_off_c, 0, 78, 64
1, 702418, Note_off_c, 0, 67, 63
1, 702424, Note_off_c, 0, 61, 65
1, 702478, Note_on_c, 0, 83, 103
1, 702481, Note_on_c, 0, 75, 100
1, 702482, Note_on_c, 0, 78, 93
1, 702483, Note_on_c, 0, 67, 96
1, 702484, Note_on_c, 0, 61, 89
1, 702488, Note_on_c, 0, 57, 90
1, 702529, Note_off_c, 0, 83, 61
1, 702532, Note_off_c, 0, 75, 64
1, 702535, Note_off_c, 0, 67, 64
1, 702535, Note_off_c, 0, 57, 62
1, 702538, Note_off_c, 0, 78, 65
1, 702540, Note_off_c, 0, 61, 63
1, 702602, Note_on_c, 0, 83, 107
1, 702609, Note_on_c, 0, 75, 96
1, 702609, Note_on_c, 0, 78, 98
1, 702609, Note_on_c, 0, 67, 99
1, 702615, Note_on_c, 0, 57, 85
1, 702618, Note_on_c, 0, 61, 87
1, 702634, Note_on_c, 0, 81, 56
1, 702651, Note_off_c, 0, 57, 64
1, 702657, Note_off_c, 0, 83, 64
1, 702660, Note_off_c, 0, 81, 37
1, 702661, Note_off_c, 0, 75, 63
1, 702666, Note_off_c, 0, 67, 63
1, 702667, Note_off_c, 0, 61, 64
1, 702669, Note_off_c, 0, 78, 65
1, 702731, Poly_aftertouch_c, 0, 58, 0
1, 702739, Note_on_c, 0, 83, 107
1, 702743, Note_on_c, 0, 75, 105
1, 702744, Note_on_c, 0, 67, 102
1, 702745, Note_on_c, 0, 78, 103
1, 702748, Note_on_c, 0, 61, 92
1, 702750, Note_on_c, 0, 57, 85
1, 702767, Note_on_c, 0, 81, 49
1, 702801, Note_off_c, 0, 81, 36
1, 702803, Note_off_c, 0, 57, 60
1, 702803, Note_off_c, 0, 83, 64
1, 702804, Note_off_c, 0, 67, 63
1, 702806, Note_off_c, 0, 75, 64
1, 702812, Note_off_c, 0, 61, 62
1, 702815, Note_off_c, 0, 78, 64
1, 702884, Note_on_c, 0, 83, 105
1, 702886, Note_on_c, 0, 75, 112
1, 702889, Note_on_c, 0, 78, 99
1, 702889, Note_on_c, 0, 67, 98
1, 702894, Note_on_c, 0, 61, 94
1, 702896, Note_on_c, 0, 57, 86
1, 702934, Note_off_c, 0, 57, 61
1, 702942, Note_off_c, 0, 83, 63
1, 702948, Note_off_c, 0, 67, 62
1, 702950, Note_off_c, 0, 61, 64
1, 702952, Note_off_c, 0, 75, 64
1, 702957, Note_off_c, 0, 78, 64
1, 703031, Note_on_c, 0, 83, 111
1, 703032, Note_on_c, 0, 75, 112
1, 703033, Note_on_c, 0, 78, 97
1, 703036, Note_on_c, 0, 67, 106
1, 703039, Note_on_c, 0, 61, 97
1, 703044, Note_on_c, 0, 57, 91
1, 703074, Note_off_c, 0, 83, 63
1, 703076, Note_off_c, 0, 57, 65
1, 703080, Note_off_c, 0, 75, 62
1, 703092, Note_off_c, 0, 78, 64
1, 703094, Note_off_c, 0, 61, 63
1, 703095, Note_off_c, 0, 67, 61
1, 703190, Note_on_c, 0, 75, 113
1, 703190, Note_on_c, 0, 83, 109
1, 703190, Note_on_c, 0, 78, 103
1, 703200, Note_on_c, 0, 67, 98
1, 703202, Note_on_c, 0, 57, 81
1, 703204, Note_on_c, 0, 61, 98
1, 703208, Note_off_c, 0, 83, 69
1, 703214, Note_off_c, 0, 75, 65
1, 703223, Note_off_c, 0, 78, 67
1, 703227, Note_off_c, 0, 61, 65
1, 703229, Note_off_c, 0, 67, 70
1, 703247, Note_off_c, 0, 57, 56
1, 703354, Control_c, 0, 64, 108
1, 703368, Control_c, 0, 64, 61
1, 703383, Control_c, 0, 64, 0
1, 703698, Note_on_c, 0, 46, 116
1, 703702, Note_on_c, 0, 34, 99
1, 703703, Control_c, 0, 64, 127
1, 703746, Note_on_c, 0, 41, 21
1, 703769, Note_off_c, 0, 34, 64
1, 703781, Note_off_c, 0, 46, 64
1, 703787, Note_off_c, 0, 41, 49
1, 703840, Note_on_c, 0, 48, 97
1, 703842, Note_on_c, 0, 60, 92
1, 703894, Note_off_c, 0, 48, 63
1, 703900, Note_off_c, 0, 60, 48
1, 703965, Note_on_c, 0, 51, 97
1, 703968, Note_on_c, 0, 39, 95
1, 703969, Control_c, 0, 64, 85
1, 703983, Control_c, 0, 64, 65
1, 703998, Control_c, 0, 64, 41
1, 704013, Control_c, 0, 64, 0
1, 704016, Note_off_c, 0, 51, 65
1, 704022, Note_off_c, 0, 39, 63
1, 704058, Note_on_c, 0, 62, 97
1, 704058, Note_on_c, 0, 50, 90
1, 704099, Note_off_c, 0, 62, 66
1, 704109, Note_off_c, 0, 50, 66
1, 704165, Note_on_c, 0, 48, 105
1, 704169, Note_on_c, 0, 36, 97
1, 704220, Note_off_c, 0, 48, 63
1, 704221, Note_off_c, 0, 36, 63
1, 704260, Note_on_c, 0, 46, 106
1, 704263, Note_on_c, 0, 58, 97
1, 704313, Note_off_c, 0, 46, 62
1, 704314, Note_off_c, 0, 58, 65
1, 704317, Control_c, 0, 64, 66
1, 704327, Note_on_c, 0, 56, 16
1, 704332, Control_c, 0, 64, 82
1, 704347, Control_c, 0, 64, 98
1, 704347, Note_on_c, 0, 48, 100
1, 704353, Note_on_c, 0, 36, 96
1, 704362, Control_c, 0, 64, 119
1, 704377, Control_c, 0, 64, 127
1, 704383, Note_off_c, 0, 56, 50
1, 704389, Note_off_c, 0, 48, 66
1, 704394, Note_off_c, 0, 36, 63
1, 704461, Note_on_c, 0, 55, 94
1, 704464, Note_on_c, 0, 43, 90
1, 704495, Note_off_c, 0, 43, 66
1, 704505, Note_off_c, 0, 55, 65
1, 704526, Control_c, 0, 64, 115
1, 704540, Control_c, 0, 64, 85
1, 704555, Control_c, 0, 64, 67
1, 704564, Note_on_c, 0, 46, 104
1, 704570, Note_on_c, 0, 34, 91
1, 704570, Control_c, 0, 64, 49
1, 704584, Control_c, 0, 64, 0
1, 704604, Note_off_c, 0, 46, 64
1, 704609, Note_off_c, 0, 34, 63
1, 704664, Note_on_c, 0, 50, 93
1, 704665, Note_on_c, 0, 62, 93
1, 704702, Note_off_c, 0, 50, 67
1, 704707, Note_off_c, 0, 62, 64
1, 704780, Note_on_c, 0, 48, 114
1, 704786, Note_on_c, 0, 36, 99
1, 704803, Note_on_c, 0, 39, 77
1, 704807, Control_c, 0, 64, 56
1, 704822, Control_c, 0, 64, 73
1, 704825, Note_off_c, 0, 39, 62
1, 704837, Control_c, 0, 64, 101
1, 704839, Note_off_c, 0, 48, 64
1, 704852, Control_c, 0, 64, 127
1, 704853, Note_off_c, 0, 36, 59
1, 704872, Note_on_c, 0, 46, 104
1, 704873, Note_on_c, 0, 58, 101
1, 704910, Note_off_c, 0, 46, 66
1, 704914, Note_off_c, 0, 58, 65
1, 704970, Control_c, 0, 64, 101
1, 704985, Control_c, 0, 64, 66
1, 704996, Note_on_c, 0, 43, 117
1, 705000, Control_c, 0, 64, 0
1, 705001, Note_on_c, 0, 31, 92
1, 705215, Control_c, 0, 64, 64
1, 705230, Control_c, 0, 64, 81
1, 705245, Control_c, 0, 64, 100
1, 705260, Control_c, 0, 64, 127
1, 705279, Note_off_c, 0, 31, 61
1, 705303, Note_off_c, 0, 43, 55
1, 705313, Poly_aftertouch_c, 0, 34, 0
1, 705734, Control_c, 0, 64, 87
1, 705749, Control_c, 0, 64, 62
1, 705763, Control_c, 0, 64, 17
1, 705786, Control_c, 0, 64, 0
1, 705814, Note_on_c, 0, 72, 97
1, 705814, Note_on_c, 0, 77, 94
1, 705815, Control_c, 0, 64, 53
1, 705816, Note_on_c, 0, 65, 101
1, 705817, Note_on_c, 0, 51, 87
1, 705817, Note_on_c, 0, 63, 106
1, 705820, Note_on_c, 0, 58, 93
1, 705830, Control_c, 0, 64, 76
1, 705845, Control_c, 0, 64, 127
1, 705885, Note_off_c, 0, 65, 62
1, 705891, Note_off_c, 0, 63, 64
1, 705893, Note_off_c, 0, 72, 64
1, 705895, Note_off_c, 0, 58, 65
1, 705896, Note_off_c, 0, 77, 65
1, 705900, Note_off_c, 0, 51, 64
1, 705904, Control_c, 0, 64, 76
1, 705919, Control_c, 0, 64, 47
1, 705933, Control_c, 0, 64, 0
1, 705948, Note_on_c, 0, 79, 98
1, 705950, Note_on_c, 0, 74, 86
1, 705951, Note_on_c, 0, 67, 99
1, 705957, Note_on_c, 0, 51, 73
1, 705957, Note_on_c, 0, 63, 99
1, 705960, Note_on_c, 0, 56, 90
1, 705980, Control_c, 0, 64, 17
1, 705994, Control_c, 0, 64, 42
1, 705998, Note_off_c, 0, 67, 64
1, 705998, Note_off_c, 0, 79, 63
1, 706001, Note_off_c, 0, 51, 64
1, 706006, Note_off_c, 0, 74, 65
1, 706009, Note_off_c, 0, 63, 63
1, 706009, Control_c, 0, 64, 45
1, 706012, Note_off_c, 0, 56, 62
1, 706024, Control_c, 0, 64, 34
1, 706038, Control_c, 0, 64, 0
1, 706064, Note_on_c, 0, 74, 92
1, 706065, Note_on_c, 0, 63, 100
1, 706067, Note_on_c, 0, 67, 93
1, 706068, Note_on_c, 0, 79, 97
1, 706070, Note_on_c, 0, 56, 85
1, 706073, Note_on_c, 0, 51, 79
1, 706109, Note_off_c, 0, 67, 61
1, 706111, Note_off_c, 0, 79, 63
1, 706113, Note_off_c, 0, 51, 59
1, 706115, Note_off_c, 0, 74, 66
1, 706119, Note_off_c, 0, 63, 64
1, 706124, Note_off_c, 0, 56, 62
1, 706171, Note_on_c, 0, 63, 94
1, 706174, Note_on_c, 0, 74, 93
1, 706174, Note_on_c, 0, 79, 95
1, 706174, Note_on_c, 0, 51, 85
1, 706174, Note_on_c, 0, 67, 94
1, 706177, Note_on_c, 0, 56, 77
1, 706222, Note_off_c, 0, 79, 62
1, 706225, Note_off_c, 0, 63, 65
1, 706226, Note_off_c, 0, 67, 63
1, 706227, Note_off_c, 0, 51, 61
1, 706227, Note_off_c, 0, 56, 63
1, 706228, Note_off_c, 0, 74, 65
1, 706285, Note_on_c, 0, 63, 96
1, 706285, Note_on_c, 0, 67, 97
1, 706288, Note_on_c, 0, 79, 97
1, 706288, Note_on_c, 0, 74, 93
1, 706289, Note_on_c, 0, 51, 74
1, 706291, Note_on_c, 0, 56, 83
1, 706305, Control_c, 0, 64, 44
1, 706314, Note_off_c, 0, 51, 69
1, 706318, Note_off_c, 0, 56, 68
1, 706320, Control_c, 0, 64, 80
1, 706321, Note_off_c, 0, 67, 65
1, 706326, Note_off_c, 0, 79, 68
1, 706326, Note_off_c, 0, 63, 66
1, 706329, Note_off_c, 0, 74, 66
1, 706335, Control_c, 0, 64, 120
1, 706350, Control_c, 0, 64, 127
1, 706420, Note_on_c, 0, 72, 103
1, 706420, Note_on_c, 0, 84, 103
1, 706422, Note_on_c, 0, 77, 98
1, 706422, Note_on_c, 0, 73, 80
1, 706440, Note_off_c, 0, 84, 64
1, 706441, Note_off_c, 0, 72, 65
1, 706447, Note_on_c, 0, 69, 55
1, 706447, Note_off_c, 0, 73, 69
1, 706447, Note_off_c, 0, 77, 65
1, 706471, Note_off_c, 0, 69, 64
1, 706520, Poly_aftertouch_c, 0, 80, 0
1, 706550, Note_on_c, 0, 79, 100
1, 706552, Note_on_c, 0, 67, 103
1, 706554, Note_on_c, 0, 63, 101
1, 706554, Note_on_c, 0, 74, 91
1, 706560, Note_on_c, 0, 51, 86
1, 706577, Note_off_c, 0, 63, 65
1, 706578, Note_on_c, 0, 55, 49
1, 706586, Note_off_c, 0, 51, 68
1, 706586, Note_off_c, 0, 79, 67
1, 706590, Note_off_c, 0, 67, 60
1, 706594, Note_off_c, 0, 74, 62
1, 706602, Note_off_c, 0, 55, 63
1, 706609, Control_c, 0, 64, 83
1, 706624, Control_c, 0, 64, 63
1, 706638, Control_c, 0, 64, 22
1, 706653, Control_c, 0, 64, 0
1, 706698, Control_c, 0, 64, 25
1, 706700, Note_on_c, 0, 67, 105
1, 706700, Note_on_c, 0, 79, 99
1, 706701, Note_on_c, 0, 74, 103
1, 706712, Control_c, 0, 64, 65
1, 706713, Note_on_c, 0, 51, 72
1, 706714, Note_on_c, 0, 63, 101
1, 706718, Note_on_c, 0, 56, 84
1, 706718, Note_off_c, 0, 79, 69
1, 706720, Note_off_c, 0, 67, 69
1, 706726, Note_off_c, 0, 74, 66
1, 706727, Control_c, 0, 64, 127
1, 706753, Note_off_c, 0, 51, 65
1, 706761, Note_off_c, 0, 63, 66
1, 706762, Note_off_c, 0, 56, 61
1, 707157, Control_c, 0, 64, 97
1, 707172, Control_c, 0, 64, 64
1, 707186, Control_c, 0, 64, 0
1, 707372, Control_c, 0, 64, 46
1, 707387, Control_c, 0, 64, 83
1, 707389, Note_on_c, 0, 46, 120
1, 707391, Note_on_c, 0, 34, 96
1, 707401, Control_c, 0, 64, 127
1, 707433, Note_on_c, 0, 41, 35
1, 707454, Note_on_c, 0, 47, 7
1, 707462, Note_off_c, 0, 46, 67
1, 707464, Note_off_c, 0, 34, 64
1, 707472, Note_off_c, 0, 41, 49
1, 707489, Note_off_c, 0, 47, 0
1, 707510, Poly_aftertouch_c, 0, 47, 0
1, 707527, Note_on_c, 0, 48, 88
1, 707528, Note_on_c, 0, 60, 90
1, 707565, Control_c, 0, 64, 90
1, 707580, Control_c, 0, 64, 66
1, 707595, Control_c, 0, 64, 37
1, 707596, Note_off_c, 0, 48, 58
1, 707608, Note_off_c, 0, 60, 60
1, 707609, Control_c, 0, 64, 0
1, 707641, Note_on_c, 0, 51, 95
1, 707645, Note_on_c, 0, 39, 91
1, 707702, Note_off_c, 0, 39, 62
1, 707703, Note_off_c, 0, 51, 63
1, 707743, Note_on_c, 0, 62, 88
1, 707745, Note_on_c, 0, 50, 84
1, 707772, Note_off_c, 0, 62, 63
1, 707774, Note_off_c, 0, 50, 67
1, 707847, Note_on_c, 0, 48, 99
1, 707853, Note_on_c, 0, 36, 90
1, 707895, Note_off_c, 0, 36, 63
1, 707908, Note_off_c, 0, 48, 56
1, 707936, Control_c, 0, 64, 41
1, 707950, Control_c, 0, 64, 75
1, 707954, Note_on_c, 0, 46, 110
1, 707954, Note_on_c, 0, 58, 96
1, 707965, Control_c, 0, 64, 96
1, 707980, Control_c, 0, 64, 127
1, 707996, Note_on_c, 0, 56, 41
1, 708002, Note_off_c, 0, 58, 68
1, 708034, Note_off_c, 0, 46, 62
1, 708039, Note_off_c, 0, 56, 53
1, 708058, Poly_aftertouch_c, 0, 45, 0
1, 708064, Note_on_c, 0, 48, 95
1, 708070, Note_on_c, 0, 36, 90
1, 708083, Poly_aftertouch_c, 0, 45, 0
1, 708101, Note_off_c, 0, 36, 67
1, 708101, Note_off_c, 0, 48, 65
1, 708168, Note_on_c, 0, 55, 95
1, 708172, Note_on_c, 0, 43, 89
1, 708209, Control_c, 0, 64, 118
1, 708210, Note_off_c, 0, 43, 64
1, 708222, Note_off_c, 0, 55, 62
1, 708224, Control_c, 0, 64, 78
1, 708239, Control_c, 0, 64, 48
1, 708254, Control_c, 0, 64, 0
1, 708276, Note_on_c, 0, 46, 103
1, 708281, Note_on_c, 0, 34, 98
1, 708336, Note_off_c, 0, 34, 62
1, 708338, Note_off_c, 0, 46, 63
1, 708377, Note_on_c, 0, 62, 94
1, 708377, Note_on_c, 0, 50, 100
1, 708413, Note_off_c, 0, 62, 68
1, 708416, Note_off_c, 0, 50, 69
1, 708482, Note_on_c, 0, 48, 109
1, 708487, Note_on_c, 0, 36, 95
1, 708507, Control_c, 0, 64, 28
1, 708520, Note_on_c, 0, 39, 53
1, 708522, Control_c, 0, 64, 69
1, 708537, Control_c, 0, 64, 103
1, 708552, Control_c, 0, 64, 127
1, 708554, Note_off_c, 0, 39, 59
1, 708566, Note_off_c, 0, 36, 63
1, 708576, Note_off_c, 0, 48, 62
1, 708588, Note_on_c, 0, 46, 100
1, 708588, Note_on_c, 0, 58, 99
1, 708639, Note_off_c, 0, 46, 64
1, 708651, Note_off_c, 0, 58, 63
1, 708702, Note_on_c, 0, 50, 92
1, 708702, Note_on_c, 0, 38, 88
1, 708705, Note_on_c, 0, 52, 92
1, 708731, Note_off_c, 0, 52, 67
1, 708740, Note_off_c, 0, 50, 67
1, 708748, Note_off_c, 0, 38, 62
1, 708796, Control_c, 0, 64, 78
1, 708805, Note_on_c, 0, 60, 93
1, 708806, Note_on_c, 0, 48, 95
1, 708811, Control_c, 0, 64, 35
1, 708826, Control_c, 0, 64, 0
1, 708856, Note_off_c, 0, 60, 49
1, 708857, Note_off_c, 0, 48, 63
1, 708914, Note_on_c, 0, 43, 115
1, 708919, Note_on_c, 0, 31, 100
1, 708929, Control_c, 0, 64, 29
1, 708944, Control_c, 0, 64, 74
1, 708955, Note_off_c, 0, 31, 65
1, 708958, Control_c, 0, 64, 93
1, 708967, Note_off_c, 0, 43, 65
1, 708973, Control_c, 0, 64, 127
1, 709020, Note_on_c, 0, 46, 106
1, 709020, Note_on_c, 0, 58, 97
1, 709057, Note_off_c, 0, 46, 67
1, 709092, Note_off_c, 0, 58, 62
1, 709151, Note_on_c, 0, 50, 102
1, 709155, Note_on_c, 0, 38, 92
1, 709182, Note_on_c, 0, 48, 45
1, 709189, Note_off_c, 0, 38, 65
1, 709191, Note_off_c, 0, 50, 69
1, 709209, Note_off_c, 0, 48, 60
1, 709263, Note_on_c, 0, 60, 96
1, 709271, Note_on_c, 0, 48, 91
1, 709277, Note_on_c, 0, 47, 88
1, 709319, Note_off_c, 0, 47, 60
1, 709358, Note_off_c, 0, 48, 60
1, 709358, Note_off_c, 0, 60, 55
1, 709389, Control_c, 0, 64, 77
1, 709404, Control_c, 0, 64, 53
1, 709419, Control_c, 0, 64, 0
1, 709439, Note_on_c, 0, 43, 105
1, 709443, Note_on_c, 0, 31, 90
1, 709619, Control_c, 0, 64, 49
1, 709634, Control_c, 0, 64, 66
1, 709649, Control_c, 0, 64, 104
1, 709663, Control_c, 0, 64, 127
1, 709677, Poly_aftertouch_c, 0, 38, 127
1, 709694, Note_off_c, 0, 31, 62
1, 709712, Poly_aftertouch_c, 0, 38, 0
1, 709793, Note_off_c, 0, 43, 62
1, 710079, Control_c, 0, 64, 64
1, 710094, Control_c, 0, 64, 0
1, 710288, Note_on_c, 0, 72, 92
1, 710288, Note_on_c, 0, 65, 99
1, 710288, Note_on_c, 0, 77, 98
1, 710291, Note_on_c, 0, 63, 101
1, 710293, Note_on_c, 0, 58, 93
1, 710294, Control_c, 0, 64, 61
1, 710295, Note_on_c, 0, 51, 83
1, 710309, Control_c, 0, 64, 85
1, 710324, Control_c, 0, 64, 100
1, 710335, Note_on_c, 0, 59, 37
1, 710336, Note_off_c, 0, 59, 127
1, 710339, Control_c, 0, 64, 107
1, 710353, Control_c, 0, 64, 108
1, 710363, Note_off_c, 0, 65, 64
1, 710369, Note_off_c, 0, 51, 62
1, 710369, Poly_aftertouch_c, 0, 59, 0
1, 710369, Note_off_c, 0, 72, 62
1, 710377, Note_off_c, 0, 63, 61
1, 710380, Note_off_c, 0, 77, 65
1, 710389, Note_off_c, 0, 58, 64
1, 710443, Note_on_c, 0, 63, 97
1, 710445, Note_on_c, 0, 79, 97
1, 710446, Note_on_c, 0, 67, 102
1, 710447, Note_on_c, 0, 74, 93
1, 710449, Note_on_c, 0, 51, 78
1, 710452, Note_on_c, 0, 56, 90
1, 710457, Control_c, 0, 64, 108
1, 710503, Note_off_c, 0, 79, 65
1, 710504, Note_off_c, 0, 63, 64
1, 710506, Note_off_c, 0, 51, 64
1, 710508, Note_off_c, 0, 67, 64
1, 710509, Note_off_c, 0, 56, 62
1, 710511, Note_off_c, 0, 74, 65
1, 710516, Control_c, 0, 64, 107
1, 710531, Control_c, 0, 64, 105
1, 710546, Control_c, 0, 64, 93
1, 710560, Control_c, 0, 64, 71
1, 710568, Note_on_c, 0, 63, 93
1, 710572, Note_on_c, 0, 51, 78
1, 710574, Note_on_c, 0, 67, 101
1, 710574, Note_on_c, 0, 74, 94
1, 710574, Note_on_c, 0, 79, 104
1, 710575, Note_on_c, 0, 56, 78
1, 710575, Control_c, 0, 64, 39
1, 710590, Control_c, 0, 64, 0
1, 710624, Note_off_c, 0, 63, 64
1, 710627, Note_off_c, 0, 56, 60
1, 710630, Note_off_c, 0, 67, 63
1, 710631, Note_off_c, 0, 79, 66
1, 710635, Note_off_c, 0, 74, 65
1, 710637, Note_off_c, 0, 51, 59
1, 710686, Note_on_c, 0, 74, 91
1, 710686, Note_on_c, 0, 79, 92
1, 710688, Note_on_c, 0, 51, 69
1, 710688, Note_on_c, 0, 67, 95
1, 710690, Note_on_c, 0, 63, 87
1, 710696, Note_on_c, 0, 56, 73
1, 710747, Note_off_c, 0, 67, 63
1, 710748, Note_off_c, 0, 63, 63
1, 710749, Note_off_c, 0, 51, 61
1, 710749, Note_off_c, 0, 79, 63
1, 710750, Note_off_c, 0, 56, 60
1, 710752, Note_off_c, 0, 74, 66
1, 710768, Control_c, 0, 64, 56
1, 710783, Control_c, 0, 64, 72
1, 710798, Control_c, 0, 64, 74
1, 710801, Note_on_c, 0, 67, 98
1, 710801, Note_on_c, 0, 63, 85
1, 710801, Note_on_c, 0, 79, 91
1, 710802, Note_on_c, 0, 74, 92
1, 710805, Note_on_c, 0, 51, 59
1, 710806, Note_on_c, 0, 56, 75
1, 710813, Control_c, 0, 64, 76
1, 710827, Control_c, 0, 64, 79
1, 710835, Note_off_c, 0, 51, 66
1, 710839, Note_off_c, 0, 56, 66
1, 710841, Note_off_c, 0, 67, 64
1, 710842, Control_c, 0, 64, 84
1, 710848, Note_off_c, 0, 79, 66
1, 710851, Note_off_c, 0, 74, 67
1, 710857, Control_c, 0, 64, 88
1, 710860, Note_off_c, 0, 63, 63
1, 710872, Control_c, 0, 64, 91
1, 710887, Control_c, 0, 64, 95
1, 710901, Control_c, 0, 64, 99
1, 710916, Control_c, 0, 64, 105
1, 710931, Control_c, 0, 64, 116
1, 710946, Control_c, 0, 64, 127
1, 710962, Note_on_c, 0, 65, 82
1, 710962, Note_on_c, 0, 84, 100
1, 710963, Note_on_c, 0, 72, 106
1, 710963, Note_on_c, 0, 77, 100
1, 710966, Note_on_c, 0, 70, 80
1, 710991, Note_off_c, 0, 72, 62
1, 710992, Note_off_c, 0, 77, 62
1, 710993, Note_off_c, 0, 70, 65
1, 710996, Note_off_c, 0, 84, 67
1, 710997, Note_off_c, 0, 65, 63
1, 711114, Note_on_c, 0, 81, 101
1, 711114, Note_on_c, 0, 69, 98
1, 711114, Note_on_c, 0, 74, 96
1, 711119, Note_on_c, 0, 58, 88
1, 711125, Note_on_c, 0, 63, 84
1, 711147, Note_off_c, 0, 58, 65
1, 711148, Note_on_c, 0, 51, 49
1, 711152, Note_off_c, 0, 69, 65
1, 711155, Note_off_c, 0, 63, 61
1, 711155, Note_off_c, 0, 74, 63
1, 711158, Note_off_c, 0, 81, 60
1, 711178, Note_off_c, 0, 51, 54
1, 711218, Poly_aftertouch_c, 0, 71, 0
1, 711232, Poly_aftertouch_c, 0, 61, 0
1, 711237, Note_on_c, 0, 81, 97
1, 711238, Note_on_c, 0, 69, 96
1, 711239, Note_on_c, 0, 74, 94
1, 711239, Note_on_c, 0, 58, 76
1, 711239, Note_on_c, 0, 63, 90
1, 711244, Note_on_c, 0, 51, 78
1, 711279, Control_c, 0, 64, 95
1, 711282, Note_off_c, 0, 58, 63
1, 711286, Note_off_c, 0, 69, 63
1, 711286, Note_off_c, 0, 81, 62
1, 711289, Note_off_c, 0, 51, 59
1, 711291, Note_off_c, 0, 74, 63
1, 711294, Control_c, 0, 64, 76
1, 711295, Note_off_c, 0, 63, 63
1, 711308, Control_c, 0, 64, 63
1, 711323, Control_c, 0, 64, 47
1, 711338, Control_c, 0, 64, 0
1, 711348, Note_on_c, 0, 63, 89
1, 711349, Note_on_c, 0, 81, 99
1, 711350, Note_on_c, 0, 74, 94
1, 711351, Note_on_c, 0, 69, 93
1, 711357, Note_on_c, 0, 58, 78
1, 711359, Note_on_c, 0, 51, 72
1, 711394, Note_off_c, 0, 58, 63
1, 711400, Note_off_c, 0, 69, 62
1, 711401, Note_off_c, 0, 81, 63
1, 711403, Note_off_c, 0, 51, 60
1, 711406, Note_off_c, 0, 74, 65
1, 711411, Note_off_c, 0, 63, 64
1, 711471, Note_on_c, 0, 81, 96
1, 711471, Note_on_c, 0, 74, 92
1, 711473, Note_on_c, 0, 63, 82
1, 711474, Note_on_c, 0, 69, 95
1, 711479, Note_on_c, 0, 51, 71
1, 711479, Note_on_c, 0, 58, 80
1, 711508, Note_off_c, 0, 58, 67
1, 711513, Note_off_c, 0, 51, 66
1, 711516, Control_c, 0, 64, 49
1, 711521, Note_off_c, 0, 63, 64
1, 711531, Control_c, 0, 64, 65
1, 711547, Control_c, 0, 64, 68
1, 711562, Control_c, 0, 64, 68
1, 711577, Control_c, 0, 64, 69
1, 711579, Note_off_c, 0, 69, 61
1, 711580, Note_off_c, 0, 74, 60
1, 711592, Control_c, 0, 64, 70
1, 711606, Control_c, 0, 64, 70
1, 711621, Control_c, 0, 64, 71
1, 711621, Control_c, 0, 67, 11
1, 711636, Control_c, 0, 64, 72
1, 711636, Control_c, 0, 67, 15
1, 711650, Control_c, 0, 67, 21
1, 711665, Control_c, 0, 67, 31
1, 711680, Control_c, 0, 64, 72
1, 711680, Control_c, 0, 67, 50
1, 711695, Control_c, 0, 67, 70
1, 711710, Control_c, 0, 64, 73
1, 711710, Control_c, 0, 67, 91
1, 711725, Control_c, 0, 64, 72
1, 711725, Control_c, 0, 67, 107
1, 711740, Control_c, 0, 67, 113
1, 711755, Control_c, 0, 64, 72
1, 711755, Control_c, 0, 67, 115
1, 711777, Control_c, 0, 64, 67
1, 711777, Control_c, 0, 67, 121
1, 711792, Control_c, 0, 64, 57
1, 711792, Control_c, 0, 67, 126
1, 711806, Control_c, 0, 64, 33
1, 711806, Control_c, 0, 67, 127
1, 711821, Control_c, 0, 64, 0
1, 711826, Note_off_c, 0, 81, 24
1, 711859, Note_on_c, 0, 77, 59
1, 711860, Note_on_c, 0, 72, 59
1, 711870, Note_on_c, 0, 75, 45
1, 711875, Note_on_c, 0, 70, 54
1, 711901, Note_off_c, 0, 75, 59
1, 711904, Note_off_c, 0, 72, 60
1, 711910, Control_c, 0, 64, 50
1, 711912, Note_off_c, 0, 77, 60
1, 711924, Control_c, 0, 64, 57
1, 711928, Note_off_c, 0, 70, 56
1, 711939, Control_c, 0, 64, 50
1, 711954, Control_c, 0, 64, 0
1, 711997, Note_on_c, 0, 74, 71
1, 711997, Note_on_c, 0, 75, 60
1, 711998, Note_on_c, 0, 79, 71
1, 712012, Note_on_c, 0, 68, 57
1, 712038, Note_off_c, 0, 75, 63
1, 712042, Note_off_c, 0, 74, 61
1, 712046, Note_off_c, 0, 68, 65
1, 712046, Note_off_c, 0, 79, 63
1, 712118, Note_on_c, 0, 79, 68
1, 712120, Note_on_c, 0, 75, 70
1, 712121, Note_on_c, 0, 68, 69
1, 712123, Note_on_c, 0, 74, 65
1, 712154, Note_off_c, 0, 68, 62
1, 712154, Note_off_c, 0, 75, 64
1, 712158, Note_off_c, 0, 74, 61
1, 712160, Note_off_c, 0, 79, 64
1, 712225, Note_on_c, 0, 79, 69
1, 712226, Note_on_c, 0, 74, 65
1, 712234, Note_on_c, 0, 75, 70
1, 712234, Note_on_c, 0, 68, 70
1, 712262, Note_off_c, 0, 75, 67
1, 712264, Note_off_c, 0, 74, 62
1, 712267, Note_off_c, 0, 68, 62
1, 712274, Note_off_c, 0, 79, 65
1, 712337, Note_on_c, 0, 74, 74
1, 712343, Note_on_c, 0, 79, 79
1, 712349, Note_on_c, 0, 68, 70
1, 712369, Note_off_c, 0, 74, 65
1, 712385, Note_off_c, 0, 68, 64
1, 712394, Note_off_c, 0, 79, 64
1, 712443, Control_c, 0, 64, 49
1, 712458, Control_c, 0, 64, 61
1, 712470, Note_on_c, 0, 84, 88
1, 712473, Control_c, 0, 64, 63
1, 712484, Note_on_c, 0, 77, 65
1, 712485, Note_on_c, 0, 70, 69
1, 712488, Control_c, 0, 64, 66
1, 712493, Note_on_c, 0, 79, 57
1, 712500, Note_off_c, 0, 84, 60
1, 712501, Note_off_c, 0, 77, 67
1, 712503, Control_c, 0, 64, 73
1, 712521, Note_off_c, 0, 70, 67
1, 712521, Note_off_c, 0, 79, 62
1, 712525, Control_c, 0, 64, 84
1, 712540, Control_c, 0, 64, 93
1, 712554, Control_c, 0, 64, 94
1, 712584, Control_c, 0, 64, 93
1, 712595, Note_on_c, 0, 75, 80
1, 712597, Note_on_c, 0, 81, 80
1, 712598, Control_c, 0, 64, 86
1, 712600, Note_on_c, 0, 70, 70
1, 712610, Note_on_c, 0, 74, 59
1, 712613, Control_c, 0, 64, 73
1, 712627, Note_off_c, 0, 81, 62
1, 712628, Control_c, 0, 64, 61
1, 712629, Note_off_c, 0, 74, 63
1, 712635, Note_off_c, 0, 70, 67
1, 712643, Control_c, 0, 64, 37
1, 712645, Note_off_c, 0, 75, 61
1, 712658, Control_c, 0, 64, 0
1, 712708, Note_on_c, 0, 74, 70
1, 712708, Note_on_c, 0, 81, 87
1, 712710, Note_on_c, 0, 70, 76
1, 712712, Note_on_c, 0, 75, 78
1, 712742, Note_off_c, 0, 70, 62
1, 712744, Note_off_c, 0, 74, 59
1, 712753, Note_off_c, 0, 81, 63
1, 712755, Note_off_c, 0, 75, 62
1, 712821, Note_on_c, 0, 74, 76
1, 712821, Note_on_c, 0, 81, 80
1, 712822, Note_on_c, 0, 70, 74
1, 712827, Note_on_c, 0, 75, 72
1, 712856, Note_off_c, 0, 70, 61
1, 712859, Note_off_c, 0, 74, 61
1, 712864, Note_off_c, 0, 75, 63
1, 712865, Control_c, 0, 67, 127
1, 712866, Note_off_c, 0, 81, 63
1, 712879, Control_c, 0, 67, 125
1, 712894, Control_c, 0, 67, 124
1, 712909, Control_c, 0, 67, 123
1, 712924, Control_c, 0, 67, 120
1, 712932, Note_on_c, 0, 81, 86
1, 712935, Note_on_c, 0, 70, 76
1, 712935, Note_on_c, 0, 74, 77
1, 712939, Control_c, 0, 67, 118
1, 712945, Note_on_c, 0, 75, 78
1, 712953, Control_c, 0, 67, 115
1, 712968, Control_c, 0, 67, 114
1, 712972, Note_off_c, 0, 81, 66
1, 712974, Note_off_c, 0, 70, 60
1, 712975, Note_off_c, 0, 74, 61
1, 712983, Note_off_c, 0, 75, 59
1, 712983, Control_c, 0, 67, 112
1, 712998, Control_c, 0, 64, 33
1, 712998, Control_c, 0, 67, 108
1, 713012, Control_c, 0, 64, 58
1, 713012, Control_c, 0, 67, 101
1, 713027, Control_c, 0, 64, 62
1, 713027, Control_c, 0, 67, 95
1, 713042, Control_c, 0, 64, 64
1, 713042, Control_c, 0, 67, 90
1, 713057, Control_c, 0, 64, 68
1, 713057, Control_c, 0, 67, 84
1, 713067, Note_on_c, 0, 72, 82
1, 713072, Note_on_c, 0, 79, 91
1, 713072, Control_c, 0, 64, 77
1, 713072, Control_c, 0, 67, 76
1, 713075, Note_on_c, 0, 67, 88
1, 713077, Note_on_c, 0, 74, 80
1, 713081, Note_on_c, 0, 77, 78
1, 713087, Control_c, 0, 64, 94
1, 713087, Control_c, 0, 67, 64
1, 713102, Control_c, 0, 64, 127
1, 713102, Control_c, 0, 67, 48
1, 713115, Note_off_c, 0, 74, 61
1, 713116, Note_off_c, 0, 67, 60
1, 713116, Control_c, 0, 67, 19
1, 713117, Note_off_c, 0, 79, 65
1, 713123, Note_off_c, 0, 72, 62
1, 713131, Control_c, 0, 67, 0
1, 713135, Note_off_c, 0, 77, 64
1, 713202, Note_on_c, 0, 70, 75
1, 713202, Note_on_c, 0, 81, 94
1, 713206, Note_on_c, 0, 69, 88
1, 713218, Note_on_c, 0, 77, 71
1, 713220, Note_on_c, 0, 76, 59
1, 713235, Note_off_c, 0, 70, 60
1, 713236, Note_off_c, 0, 69, 58
1, 713241, Note_off_c, 0, 76, 63
1, 713248, Note_off_c, 0, 81, 64
1, 713250, Note_off_c, 0, 77, 64
1, 713302, Control_c, 0, 64, 92
1, 713317, Control_c, 0, 64, 69
1, 713320, Note_on_c, 0, 76, 81
1, 713320, Note_on_c, 0, 81, 95
1, 713321, Note_on_c, 0, 69, 86
1, 713323, Note_on_c, 0, 70, 82
1, 713327, Note_on_c, 0, 77, 83
1, 713332, Control_c, 0, 64, 51
1, 713347, Control_c, 0, 64, 0
1, 713364, Note_off_c, 0, 70, 60
1, 713367, Note_off_c, 0, 69, 62
1, 713371, Note_off_c, 0, 76, 64
1, 713373, Note_off_c, 0, 81, 64
1, 713379, Note_off_c, 0, 77, 63
1, 713427, Note_on_c, 0, 81, 95
1, 713431, Note_on_c, 0, 69, 90
1, 713433, Note_on_c, 0, 76, 83
1, 713436, Note_on_c, 0, 77, 79
1, 713439, Note_on_c, 0, 70, 81
1, 713468, Note_off_c, 0, 70, 66
1, 713477, Note_off_c, 0, 69, 63
1, 713483, Note_off_c, 0, 76, 61
1, 713483, Note_off_c, 0, 81, 63
1, 713488, Note_off_c, 0, 77, 64
1, 713540, Note_on_c, 0, 81, 93
1, 713546, Note_on_c, 0, 70, 84
1, 713548, Note_on_c, 0, 76, 78
1, 713549, Note_on_c, 0, 69, 81
1, 713551, Note_on_c, 0, 77, 76
1, 713570, Note_off_c, 0, 69, 72
1, 713572, Note_off_c, 0, 76, 68
1, 713580, Note_off_c, 0, 77, 66
1, 713586, Note_off_c, 0, 81, 64
1, 713594, Note_off_c, 0, 70, 63
1, 713614, Control_c, 0, 64, 52
1, 713628, Control_c, 0, 64, 69
1, 713643, Control_c, 0, 64, 89
1, 713658, Control_c, 0, 64, 127
1, 713668, Note_on_c, 0, 72, 83
1, 713668, Note_on_c, 0, 86, 98
1, 713671, Note_on_c, 0, 74, 102
1, 713674, Note_on_c, 0, 79, 91
1, 713691, Note_on_c, 0, 81, 65
1, 713693, Poly_aftertouch_c, 0, 76, 0
1, 713700, Note_off_c, 0, 79, 62
1, 713701, Note_on_c, 0, 76, 7
1, 713702, Note_off_c, 0, 76, 127
1, 713702, Note_off_c, 0, 74, 61
1, 713708, Note_off_c, 0, 86, 64
1, 713710, Note_off_c, 0, 81, 64
1, 713719, Note_off_c, 0, 72, 62
1, 713789, Note_on_c, 0, 83, 101
1, 713793, Note_on_c, 0, 71, 91
1, 713797, Note_on_c, 0, 72, 79
1, 713799, Note_on_c, 0, 76, 79
1, 713804, Note_on_c, 0, 77, 75
1, 713826, Note_off_c, 0, 76, 66
1, 713828, Note_off_c, 0, 77, 70
1, 713829, Note_off_c, 0, 71, 60
1, 713839, Note_off_c, 0, 83, 65
1, 713846, Note_off_c, 0, 72, 61
1, 713903, Note_on_c, 0, 83, 103
1, 713904, Note_on_c, 0, 76, 92
1, 713904, Note_on_c, 0, 77, 77
1, 713905, Note_on_c, 0, 71, 95
1, 713908, Note_on_c, 0, 72, 84
1, 713944, Note_off_c, 0, 71, 58
1, 713951, Note_off_c, 0, 76, 64
1, 713956, Note_off_c, 0, 83, 65
1, 713960, Note_off_c, 0, 77, 65
1, 713965, Note_off_c, 0, 72, 61
1, 714024, Note_on_c, 0, 83, 99
1, 714025, Note_on_c, 0, 72, 77
1, 714028, Note_on_c, 0, 71, 93
1, 714029, Note_on_c, 0, 76, 90
1, 714030, Note_on_c, 0, 77, 86
1, 714073, Note_off_c, 0, 76, 65
1, 714076, Note_off_c, 0, 71, 63
1, 714078, Note_off_c, 0, 83, 63
1, 714080, Note_off_c, 0, 77, 66
1, 714095, Note_off_c, 0, 72, 60
1, 714135, Note_on_c, 0, 71, 90
1, 714135, Note_on_c, 0, 72, 70
1, 714136, Note_on_c, 0, 83, 97
1, 714142, Note_on_c, 0, 77, 88
1, 714145, Note_on_c, 0, 76, 83
1, 714161, Note_off_c, 0, 71, 67
1, 714181, Note_off_c, 0, 76, 64
1, 714187, Note_off_c, 0, 83, 66
1, 714191, Note_off_c, 0, 77, 67
1, 714199, Note_off_c, 0, 72, 61
1, 714303, Control_c, 0, 64, 75
1, 714318, Control_c, 0, 64, 48
1, 714333, Control_c, 0, 64, 0
1, 714345, Note_on_c, 0, 86, 105
1, 714349, Note_on_c, 0, 74, 71
1, 714349, Note_on_c, 0, 79, 110
1, 714350, Note_on_c, 0, 81, 100
1, 714351, Note_on_c, 0, 72, 79
1, 714354, Note_on_c, 0, 67, 68
1, 714377, Control_c, 0, 64, 47
1, 714392, Control_c, 0, 64, 67
1, 714406, Note_off_c, 0, 74, 61
1, 714407, Note_off_c, 0, 72, 60
1, 714407, Control_c, 0, 64, 90
1, 714418, Note_off_c, 0, 79, 59
1, 714422, Control_c, 0, 64, 127
1, 714427, Note_off_c, 0, 67, 60
1, 714432, Note_off_c, 0, 81, 62
1, 714453, Note_off_c, 0, 86, 64
1, 714500, Note_on_c, 0, 71, 75
1, 714505, Note_on_c, 0, 72, 80
1, 714507, Note_on_c, 0, 77, 100
1, 714509, Note_on_c, 0, 88, 97
1, 714509, Note_on_c, 0, 65, 65
1, 714510, Note_on_c, 0, 83, 100
1, 714548, Note_off_c, 0, 71, 64
1, 714548, Note_off_c, 0, 77, 66
1, 714554, Note_off_c, 0, 72, 62
1, 714555, Note_off_c, 0, 65, 62
1, 714563, Note_off_c, 0, 88, 66
1, 714566, Note_off_c, 0, 83, 66
1, 714622, Note_on_c, 0, 71, 81
1, 714628, Note_on_c, 0, 72, 74
1, 714633, Note_on_c, 0, 77, 102
1, 714634, Note_on_c, 0, 88, 100
1, 714634, Note_on_c, 0, 83, 101
1, 714636, Note_on_c, 0, 65, 69
1, 714668, Note_off_c, 0, 65, 62
1, 714668, Note_off_c, 0, 71, 63
1, 714672, Note_off_c, 0, 72, 57
1, 714675, Note_off_c, 0, 77, 65
1, 714686, Note_off_c, 0, 88, 66
1, 714688, Note_off_c, 0, 83, 67
1, 714744, Note_on_c, 0, 71, 80
1, 714745, Note_on_c, 0, 65, 80
1, 714747, Note_on_c, 0, 88, 97
1, 714748, Note_on_c, 0, 72, 80
1, 714748, Note_on_c, 0, 77, 104
1, 714751, Note_on_c, 0, 83, 100
1, 714796, Note_off_c, 0, 77, 65
1, 714798, Note_off_c, 0, 71, 62
1, 714805, Note_off_c, 0, 65, 62
1, 714806, Note_off_c, 0, 72, 61
1, 714806, Note_off_c, 0, 83, 67
1, 714810, Note_off_c, 0, 88, 66
1, 714867, Note_on_c, 0, 72, 74
1, 714870, Note_on_c, 0, 71, 84
1, 714873, Note_on_c, 0, 88, 105
1, 714875, Note_on_c, 0, 65, 76
1, 714876, Note_on_c, 0, 83, 105
1, 714877, Note_on_c, 0, 77, 101
1, 714910, Note_off_c, 0, 77, 58
1, 714913, Note_off_c, 0, 71, 66
1, 714920, Note_off_c, 0, 72, 63
1, 714920, Note_off_c, 0, 65, 61
1, 714934, Control_c, 0, 64, 95
1, 714935, Note_off_c, 0, 83, 66
1, 714935, Note_off_c, 0, 88, 65
1, 714948, Control_c, 0, 64, 62
1, 714963, Control_c, 0, 64, 0
1, 715024, Note_on_c, 0, 86, 99
1, 715025, Note_on_c, 0, 79, 101
1, 715027, Note_on_c, 0, 81, 106
1, 715028, Note_on_c, 0, 67, 92
1, 715029, Note_on_c, 0, 72, 93
1, 715029, Note_on_c, 0, 74, 88
1, 715037, Control_c, 0, 64, 57
1, 715052, Control_c, 0, 64, 89
1, 715066, Control_c, 0, 64, 127
1, 715076, Note_off_c, 0, 79, 61
1, 715081, Note_off_c, 0, 72, 62
1, 715084, Note_off_c, 0, 74, 64
1, 715093, Note_off_c, 0, 67, 63
1, 715095, Note_off_c, 0, 81, 64
1, 715110, Note_off_c, 0, 86, 63
1, 715159, Note_on_c, 0, 71, 90
1, 715166, Note_on_c, 0, 88, 97
1, 715167, Note_on_c, 0, 65, 83
1, 715167, Note_on_c, 0, 77, 104
1, 715168, Note_on_c, 0, 83, 96
1, 715173, Note_on_c, 0, 72, 79
1, 715203, Note_off_c, 0, 71, 65
1, 715209, Note_off_c, 0, 72, 57
1, 715212, Note_off_c, 0, 77, 64
1, 715216, Note_off_c, 0, 65, 63
1, 715220, Note_off_c, 0, 88, 65
1, 715221, Note_off_c, 0, 83, 67
1, 715279, Note_on_c, 0, 72, 86
1, 715281, Note_on_c, 0, 71, 85
1, 715281, Note_on_c, 0, 65, 81
1, 715284, Note_on_c, 0, 88, 103
1, 715285, Note_on_c, 0, 83, 95
1, 715286, Note_on_c, 0, 77, 94
1, 715314, Note_off_c, 0, 71, 56
1, 715324, Note_off_c, 0, 77, 60
1, 715326, Note_off_c, 0, 72, 63
1, 715329, Note_off_c, 0, 65, 63
1, 715333, Note_off_c, 0, 83, 66
1, 715335, Note_off_c, 0, 88, 66
1, 715387, Note_on_c, 0, 71, 84
1, 715388, Note_on_c, 0, 65, 81
1, 715388, Note_on_c, 0, 72, 81
1, 715389, Note_on_c, 0, 88, 93
1, 715391, Note_on_c, 0, 77, 93
1, 715394, Note_on_c, 0, 83, 94
1, 715424, Note_off_c, 0, 71, 60
1, 715439, Note_off_c, 0, 77, 62
1, 715439, Note_off_c, 0, 83, 67
1, 715440, Note_off_c, 0, 72, 62
1, 715445, Note_off_c, 0, 65, 60
1, 715445, Note_off_c, 0, 88, 67
1, 715505, Note_on_c, 0, 88, 92
1, 715517, Note_on_c, 0, 65, 69
1, 715517, Note_on_c, 0, 72, 77
1, 715519, Note_on_c, 0, 71, 76
1, 715519, Note_on_c, 0, 83, 93
1, 715521, Note_on_c, 0, 77, 80
1, 715543, Note_off_c, 0, 71, 67
1, 715544, Note_off_c, 0, 77, 71
1, 715552, Note_off_c, 0, 65, 63
1, 715555, Note_off_c, 0, 72, 59
1, 715560, Note_off_c, 0, 83, 66
1, 715567, Note_off_c, 0, 88, 67
1, 715594, Control_c, 0, 67, 9
1, 715609, Control_c, 0, 67, 12
1, 715624, Control_c, 0, 64, 101
1, 715624, Control_c, 0, 67, 14
1, 715639, Control_c, 0, 64, 70
1, 715639, Control_c, 0, 67, 19
1, 715654, Control_c, 0, 64, 46
1, 715654, Control_c, 0, 67, 28
1, 715668, Control_c, 0, 64, 0
1, 715668, Control_c, 0, 67, 38
1, 715683, Control_c, 0, 67, 51
1, 715698, Control_c, 0, 67, 65
1, 715701, Note_on_c, 0, 77, 70
1, 715709, Note_on_c, 0, 75, 71
1, 715712, Note_on_c, 0, 70, 66
1, 715713, Control_c, 0, 67, 75
1, 715728, Control_c, 0, 67, 83
1, 715734, Note_off_c, 0, 77, 65
1, 715742, Note_off_c, 0, 75, 62
1, 715743, Control_c, 0, 67, 88
1, 715746, Note_off_c, 0, 70, 64
1, 715758, Control_c, 0, 67, 92
1, 715772, Control_c, 0, 67, 94
1, 715787, Control_c, 0, 67, 94
1, 715816, Control_c, 0, 67, 95
1, 715831, Control_c, 0, 67, 95
1, 715836, Note_on_c, 0, 94, 72
1, 715838, Note_on_c, 0, 77, 54
1, 715840, Note_on_c, 0, 70, 57
1, 715842, Note_on_c, 0, 75, 46
1, 715846, Control_c, 0, 67, 96
1, 715855, Note_off_c, 0, 94, 66
1, 715861, Control_c, 0, 67, 97
1, 715866, Note_off_c, 0, 75, 60
1, 715869, Note_off_c, 0, 77, 63
1, 715872, Note_off_c, 0, 70, 64
1, 715876, Control_c, 0, 67, 99
1, 715890, Control_c, 0, 67, 100
1, 715905, Control_c, 0, 67, 101
1, 715919, Note_on_c, 0, 84, 61
1, 715920, Control_c, 0, 67, 102
1, 715935, Control_c, 0, 67, 103
1, 715950, Control_c, 0, 67, 104
1, 715952, Note_off_c, 0, 84, 66
1, 715958, Note_on_c, 0, 82, 62
1, 715962, Note_on_c, 0, 74, 57
1, 715964, Control_c, 0, 67, 105
1, 715969, Note_on_c, 0, 79, 56
1, 715977, Note_on_c, 0, 68, 49
1, 715979, Control_c, 0, 67, 105
1, 715984, Note_off_c, 0, 82, 67
1, 715993, Note_off_c, 0, 79, 58
1, 715994, Control_c, 0, 67, 106
1, 715996, Note_off_c, 0, 74, 63
1, 716003, Note_off_c, 0, 68, 58
1, 716008, Control_c, 0, 67, 107
1, 716026, Note_on_c, 0, 84, 72
1, 716053, Note_off_c, 0, 84, 67
1, 716053, Control_c, 0, 67, 107
1, 716068, Control_c, 0, 67, 108
1, 716080, Note_on_c, 0, 79, 59
1, 716082, Note_on_c, 0, 74, 62
1, 716084, Note_on_c, 0, 96, 92
1, 716089, Note_on_c, 0, 68, 56
1, 716109, Note_off_c, 0, 79, 67
1, 716110, Note_off_c, 0, 74, 67
1, 716113, Control_c, 0, 67, 108
1, 716122, Note_off_c, 0, 96, 64
1, 716128, Note_off_c, 0, 68, 64
1, 716131, Note_on_c, 0, 84, 66
1, 716142, Control_c, 0, 67, 109
1, 716157, Control_c, 0, 67, 110
1, 716202, Note_on_c, 0, 77, 68
1, 716208, Note_off_c, 0, 84, 67
1, 716210, Note_on_c, 0, 75, 61
1, 716215, Note_on_c, 0, 82, 61
1, 716219, Note_on_c, 0, 70, 50
1, 716235, Note_off_c, 0, 77, 62
1, 716235, Note_off_c, 0, 82, 66
1, 716240, Note_off_c, 0, 75, 66
1, 716249, Note_off_c, 0, 70, 63
1, 716268, Control_c, 0, 67, 109
1, 716291, Note_on_c, 0, 84, 62
1, 716297, Control_c, 0, 67, 109
1, 716318, Note_off_c, 0, 84, 67
1, 716340, Note_on_c, 0, 77, 65
1, 716343, Control_c, 0, 64, 50
1, 716343, Control_c, 0, 67, 107
1, 716346, Note_on_c, 0, 70, 60
1, 716346, Note_on_c, 0, 75, 52
1, 716348, Note_on_c, 0, 99, 93
1, 716358, Control_c, 0, 64, 67
1, 716358, Control_c, 0, 67, 108
1, 716372, Note_off_c, 0, 77, 66
1, 716373, Control_c, 0, 64, 69
1, 716373, Control_c, 0, 67, 107
1, 716378, Note_off_c, 0, 75, 66
1, 716380, Note_off_c, 0, 70, 64
1, 716383, Note_off_c, 0, 99, 68
1, 716388, Control_c, 0, 64, 70
1, 716399, Note_on_c, 0, 84, 75
1, 716402, Control_c, 0, 64, 75
1, 716402, Control_c, 0, 67, 107
1, 716417, Control_c, 0, 64, 85
1, 716417, Control_c, 0, 67, 106
1, 716432, Control_c, 0, 64, 103
1, 716432, Control_c, 0, 67, 104
1, 716446, Control_c, 0, 64, 127
1, 716446, Control_c, 0, 67, 103
1, 716461, Note_on_c, 0, 74, 64
1, 716461, Control_c, 0, 67, 103
1, 716467, Note_on_c, 0, 79, 63
1, 716467, Note_on_c, 0, 68, 60
1, 716473, Note_on_c, 0, 82, 77
1, 716476, Note_off_c, 0, 84, 66
1, 716500, Note_off_c, 0, 74, 64
1, 716504, Note_off_c, 0, 79, 61
1, 716505, Note_off_c, 0, 82, 65
1, 716506, Note_off_c, 0, 68, 62
1, 716536, Control_c, 0, 67, 102
1, 716542, Note_on_c, 0, 84, 78
1, 716566, Control_c, 0, 67, 103
1, 716574, Note_off_c, 0, 84, 66
1, 716581, Control_c, 0, 67, 103
1, 716593, Note_on_c, 0, 74, 65
1, 716595, Note_on_c, 0, 79, 61
1, 716596, Note_on_c, 0, 68, 58
1, 716602, Note_on_c, 0, 98, 88
1, 716622, Note_off_c, 0, 79, 65
1, 716622, Note_off_c, 0, 74, 66
1, 716639, Control_c, 0, 67, 104
1, 716640, Note_off_c, 0, 68, 60
1, 716642, Note_off_c, 0, 98, 66
1, 716654, Control_c, 0, 67, 104
1, 716655, Note_on_c, 0, 84, 82
1, 716669, Control_c, 0, 67, 105
1, 716716, Note_on_c, 0, 77, 69
1, 716724, Note_on_c, 0, 75, 68
1, 716728, Control_c, 0, 67, 104
1, 716732, Note_on_c, 0, 82, 76
1, 716732, Note_off_c, 0, 84, 67
1, 716739, Note_on_c, 0, 70, 53
1, 716743, Control_c, 0, 67, 104
1, 716756, Note_off_c, 0, 75, 65
1, 716756, Note_off_c, 0, 77, 58
1, 716757, Note_off_c, 0, 82, 67
1, 716758, Control_c, 0, 67, 104
1, 716766, Note_off_c, 0, 70, 64
1, 716802, Control_c, 0, 67, 104
1, 716807, Note_on_c, 0, 84, 77
1, 716832, Control_c, 0, 67, 103
1, 716834, Note_off_c, 0, 84, 66
1, 716846, Control_c, 0, 67, 103
1, 716852, Note_on_c, 0, 77, 73
1, 716852, Note_on_c, 0, 70, 62
1, 716856, Note_on_c, 0, 96, 95
1, 716857, Note_on_c, 0, 75, 52
1, 716887, Note_off_c, 0, 77, 62
1, 716888, Note_off_c, 0, 70, 63
1, 716888, Note_off_c, 0, 75, 66
1, 716891, Control_c, 0, 67, 102
1, 716896, Note_off_c, 0, 96, 66
1, 716906, Control_c, 0, 67, 102
1, 716908, Note_on_c, 0, 84, 69
1, 716935, Control_c, 0, 67, 101
1, 716950, Control_c, 0, 67, 100
1, 716965, Control_c, 0, 67, 100
1, 716971, Note_on_c, 0, 74, 67
1, 716977, Note_on_c, 0, 82, 79
1, 716978, Note_on_c, 0, 79, 64
1, 716980, Note_on_c, 0, 68, 58
1, 716980, Control_c, 0, 67, 99
1, 716983, Note_off_c, 0, 84, 64
1, 717006, Note_off_c, 0, 74, 66
1, 717007, Note_off_c, 0, 79, 62
1, 717009, Note_off_c, 0, 82, 64
1, 717018, Note_off_c, 0, 68, 64
1, 717032, Control_c, 0, 67, 99
1, 717046, Control_c, 0, 67, 100
1, 717058, Note_on_c, 0, 84, 78
1, 717061, Control_c, 0, 67, 101
1, 717076, Control_c, 0, 67, 102
1, 717091, Control_c, 0, 67, 103
1, 717092, Note_on_c, 0, 79, 66
1, 717098, Note_on_c, 0, 68, 66
1, 717099, Note_off_c, 0, 84, 65
1, 717106, Control_c, 0, 67, 103
1, 717108, Note_on_c, 0, 74, 53
1, 717114, Note_on_c, 0, 94, 96
1, 717119, Note_off_c, 0, 79, 67
1, 717120, Control_c, 0, 67, 104
1, 717127, Note_off_c, 0, 74, 64
1, 717135, Control_c, 0, 67, 105
1, 717141, Note_off_c, 0, 68, 62
1, 717151, Control_c, 0, 67, 106
1, 717166, Control_c, 0, 67, 108
1, 717171, Note_on_c, 0, 84, 84
1, 717171, Note_off_c, 0, 94, 57
1, 717181, Control_c, 0, 67, 109
1, 717195, Control_c, 0, 67, 109
1, 717210, Control_c, 0, 67, 110
1, 717217, Note_on_c, 0, 77, 76
1, 717218, Note_off_c, 0, 84, 67
1, 717222, Note_on_c, 0, 75, 67
1, 717224, Poly_aftertouch_c, 0, 95, 0
1, 717225, Control_c, 0, 64, 77
1, 717225, Control_c, 0, 67, 110
1, 717233, Note_on_c, 0, 96, 91
1, 717240, Note_on_c, 0, 70, 54
1, 717240, Control_c, 0, 64, 50
1, 717240, Control_c, 0, 67, 111
1, 717255, Control_c, 0, 64, 0
1, 717255, Control_c, 0, 67, 113
1, 717256, Note_off_c, 0, 77, 63
1, 717257, Note_off_c, 0, 75, 64
1, 717261, Note_off_c, 0, 70, 62
1, 717269, Control_c, 0, 67, 113
1, 717288, Note_on_c, 0, 84, 86
1, 717299, Control_c, 0, 67, 113
1, 717301, Note_off_c, 0, 96, 65
1, 717314, Control_c, 0, 67, 112
1, 717327, Note_on_c, 0, 91, 67
1, 717329, Control_c, 0, 67, 111
1, 717340, Note_off_c, 0, 84, 66
1, 717342, Note_on_c, 0, 70, 63
1, 717343, Control_c, 0, 64, 26
1, 717343, Control_c, 0, 67, 109
1, 717347, Note_on_c, 0, 77, 71
1, 717350, Note_on_c, 0, 75, 66
1, 717358, Control_c, 0, 64, 56
1, 717358, Control_c, 0, 67, 107
1, 717373, Control_c, 0, 64, 65
1, 717373, Control_c, 0, 67, 105
1, 717374, Note_off_c, 0, 77, 67
1, 717379, Note_off_c, 0, 75, 67
1, 717380, Note_off_c, 0, 70, 63
1, 717387, Control_c, 0, 64, 71
1, 717388, Note_off_c, 0, 91, 65
1, 717402, Note_on_c, 0, 84, 85
1, 717402, Control_c, 0, 64, 79
1, 717402, Control_c, 0, 67, 104
1, 717417, Control_c, 0, 64, 94
1, 717417, Control_c, 0, 67, 103
1, 717432, Control_c, 0, 64, 111
1, 717432, Control_c, 0, 67, 102
1, 717445, Note_off_c, 0, 84, 67
1, 717447, Control_c, 0, 64, 127
1, 717447, Control_c, 0, 67, 101
1, 717463, Note_on_c, 0, 79, 81
1, 717466, Note_on_c, 0, 68, 69
1, 717466, Note_on_c, 0, 74, 70
1, 717511, Note_on_c, 0, 70, 9
1, 717511, Note_off_c, 0, 79, 64
1, 717511, Note_off_c, 0, 74, 63
1, 717520, Note_off_c, 0, 68, 63
1, 717532, Note_on_c, 0, 84, 88
1, 717557, Note_off_c, 0, 70, 51
1, 717580, Control_c, 0, 67, 100
1, 717582, Note_off_c, 0, 84, 66
1, 717594, Note_on_c, 0, 94, 96
1, 717595, Note_on_c, 0, 68, 57
1, 717597, Note_on_c, 0, 74, 66
1, 717601, Note_on_c, 0, 79, 65
1, 717619, Note_off_c, 0, 79, 67
1, 717626, Note_off_c, 0, 74, 66
1, 717640, Note_off_c, 0, 68, 60
1, 717652, Note_off_c, 0, 94, 59
1, 717658, Note_on_c, 0, 84, 89
1, 717684, Control_c, 0, 67, 100
1, 717698, Control_c, 0, 67, 98
1, 717707, Note_off_c, 0, 84, 66
1, 717713, Control_c, 0, 67, 97
1, 717714, Note_on_c, 0, 77, 77
1, 717716, Note_on_c, 0, 75, 76
1, 717729, Note_on_c, 0, 70, 62
1, 717765, Note_off_c, 0, 70, 65
1, 717766, Note_off_c, 0, 75, 65
1, 717767, Note_off_c, 0, 77, 63
1, 717772, Note_on_c, 0, 84, 78
1, 717827, Note_off_c, 0, 84, 66
1, 717839, Note_on_c, 0, 98, 90
1, 717843, Note_on_c, 0, 70, 64
1, 717848, Note_on_c, 0, 77, 72
1, 717862, Note_on_c, 0, 75, 60
1, 717868, Control_c, 0, 67, 98
1, 717880, Note_off_c, 0, 75, 68
1, 717881, Note_off_c, 0, 77, 59
1, 717883, Control_c, 0, 67, 98
1, 717889, Note_off_c, 0, 70, 61
1, 717891, Note_off_c, 0, 98, 61
1, 717896, Note_on_c, 0, 84, 89
1, 717898, Control_c, 0, 67, 99
1, 717913, Control_c, 0, 67, 99
1, 717928, Control_c, 0, 67, 100
1, 717944, Control_c, 0, 67, 101
1, 717951, Note_off_c, 0, 84, 64
1, 717959, Control_c, 0, 67, 102
1, 717960, Note_on_c, 0, 96, 80
1, 717973, Control_c, 0, 67, 104
1, 717974, Note_on_c, 0, 79, 75
1, 717976, Note_on_c, 0, 74, 69
1, 717988, Control_c, 0, 67, 105
1, 717989, Note_on_c, 0, 68, 57
1, 718003, Control_c, 0, 67, 107
1, 718008, Note_off_c, 0, 79, 61
1, 718009, Note_off_c, 0, 96, 66
1, 718013, Note_off_c, 0, 74, 64
1, 718016, Note_off_c, 0, 68, 63
1, 718017, Control_c, 0, 67, 107
1, 718026, Note_on_c, 0, 82, 91
1, 718032, Control_c, 0, 67, 107
1, 718047, Control_c, 0, 67, 106
1, 718071, Note_off_c, 0, 82, 65
1, 718092, Control_c, 0, 64, 104
1, 718092, Control_c, 0, 67, 107
1, 718093, Note_on_c, 0, 94, 89
1, 718095, Note_on_c, 0, 68, 66
1, 718098, Note_on_c, 0, 79, 66
1, 718107, Control_c, 0, 64, 76
1, 718110, Note_on_c, 0, 74, 58
1, 718121, Note_off_c, 0, 79, 66
1, 718122, Control_c, 0, 64, 57
1, 718122, Control_c, 0, 67, 106
1, 718130, Note_off_c, 0, 74, 62
1, 718137, Control_c, 0, 64, 0
1, 718137, Control_c, 0, 67, 106
1, 718142, Note_on_c, 0, 84, 79
1, 718144, Note_off_c, 0, 68, 59
1, 718160, Note_off_c, 0, 94, 64
1, 718166, Control_c, 0, 67, 105
1, 718181, Control_c, 0, 64, 13
1, 718196, Note_on_c, 0, 91, 79
1, 718196, Control_c, 0, 64, 46
1, 718199, Note_off_c, 0, 84, 67
1, 718210, Control_c, 0, 64, 63
1, 718218, Note_on_c, 0, 77, 73
1, 718225, Control_c, 0, 64, 73
1, 718228, Note_on_c, 0, 75, 65
1, 718240, Control_c, 0, 64, 87
1, 718240, Control_c, 0, 67, 105
1, 718245, Note_off_c, 0, 91, 67
1, 718247, Note_on_c, 0, 70, 48
1, 718255, Control_c, 0, 64, 113
1, 718258, Note_off_c, 0, 75, 67
1, 718260, Note_off_c, 0, 77, 62
1, 718270, Control_c, 0, 64, 127
1, 718270, Control_c, 0, 67, 104
1, 718271, Note_on_c, 0, 82, 88
1, 718271, Note_off_c, 0, 70, 59
1, 718284, Control_c, 0, 67, 103
1, 718299, Control_c, 0, 67, 102
1, 718323, Note_off_c, 0, 82, 64
1, 718333, Note_on_c, 0, 94, 85
1, 718342, Note_on_c, 0, 75, 62
1, 718342, Note_on_c, 0, 70, 69
1, 718344, Note_on_c, 0, 77, 72
1, 718358, Control_c, 0, 67, 101
1, 718369, Note_off_c, 0, 75, 66
1, 718369, Note_off_c, 0, 77, 67
1, 718373, Control_c, 0, 67, 102
1, 718375, Note_off_c, 0, 70, 63
1, 718384, Note_off_c, 0, 94, 64
1, 718393, Note_on_c, 0, 84, 86
1, 718432, Control_c, 0, 67, 101
1, 718444, Note_off_c, 0, 84, 65
1, 718447, Control_c, 0, 67, 102
1, 718453, Note_on_c, 0, 74, 72
1, 718453, Note_on_c, 0, 96, 88
1, 718462, Control_c, 0, 67, 103
1, 718463, Note_on_c, 0, 79, 68
1, 718471, Note_on_c, 0, 68, 53
1, 718491, Note_off_c, 0, 79, 66
1, 718491, Control_c, 0, 67, 103
1, 718497, Note_off_c, 0, 68, 57
1, 718498, Note_off_c, 0, 74, 64
1, 718521, Note_on_c, 0, 82, 85
1, 718526, Note_off_c, 0, 96, 44
1, 718573, Note_on_c, 0, 79, 67
1, 718581, Note_off_c, 0, 82, 65
1, 718585, Note_on_c, 0, 74, 63
1, 718587, Note_on_c, 0, 68, 64
1, 718588, Note_on_c, 0, 91, 74
1, 718605, Note_off_c, 0, 79, 65
1, 718613, Note_off_c, 0, 74, 66
1, 718623, Note_off_c, 0, 68, 64
1, 718630, Note_off_c, 0, 91, 64
1, 718646, Note_on_c, 0, 84, 86
1, 718647, Control_c, 0, 67, 104
1, 718694, Note_off_c, 0, 84, 66
1, 718708, Note_on_c, 0, 94, 93
1, 718710, Note_on_c, 0, 77, 67
1, 718721, Control_c, 0, 67, 104
1, 718724, Note_on_c, 0, 70, 59
1, 718729, Note_on_c, 0, 75, 56
1, 718737, Control_c, 0, 67, 105
1, 718744, Note_off_c, 0, 77, 63
1, 718752, Note_off_c, 0, 75, 65
1, 718754, Note_off_c, 0, 94, 64
1, 718756, Note_off_c, 0, 70, 65
1, 718776, Note_on_c, 0, 82, 89
1, 718781, Control_c, 0, 67, 104
1, 718796, Control_c, 0, 67, 104
1, 718811, Control_c, 0, 67, 104
1, 718821, Note_off_c, 0, 82, 64
1, 718842, Note_on_c, 0, 77, 65
1, 718848, Note_on_c, 0, 70, 54
1, 718853, Note_on_c, 0, 98, 85
1, 718856, Control_c, 0, 67, 105
1, 718870, Note_on_c, 0, 75, 20
1, 718870, Note_off_c, 0, 70, 62
1, 718876, Note_off_c, 0, 77, 66
1, 718882, Note_on_c, 0, 96, 52
1, 718894, Note_on_c, 0, 84, 82
1, 718899, Note_off_c, 0, 98, 63
1, 718905, Note_off_c, 0, 96, 60
1, 718910, Note_off_c, 0, 75, 41
1, 718915, Control_c, 0, 67, 104
1, 718922, Note_off_c, 0, 84, 67
1, 718960, Control_c, 0, 67, 105
1, 718961, Note_on_c, 0, 96, 103
1, 718980, Note_on_c, 0, 74, 48
1, 718980, Note_on_c, 0, 79, 48
1, 718988, Note_on_c, 0, 68, 42
1, 718989, Control_c, 0, 67, 104
1, 719002, Note_off_c, 0, 74, 61
1, 719004, Note_off_c, 0, 79, 59
1, 719004, Control_c, 0, 67, 104
1, 719010, Note_off_c, 0, 96, 59
1, 719013, Note_off_c, 0, 68, 59
1, 719026, Note_on_c, 0, 82, 87
1, 719034, Control_c, 0, 67, 104
1, 719064, Control_c, 0, 67, 104
1, 719078, Note_off_c, 0, 82, 63
1, 719079, Control_c, 0, 67, 103
1, 719087, Note_on_c, 0, 68, 61
1, 719094, Control_c, 0, 67, 102
1, 719096, Note_on_c, 0, 94, 93
1, 719105, Note_off_c, 0, 68, 65
1, 719123, Control_c, 0, 67, 101
1, 719138, Control_c, 0, 67, 100
1, 719153, Control_c, 0, 64, 111
1, 719153, Control_c, 0, 67, 99
1, 719167, Control_c, 0, 64, 76
1, 719167, Control_c, 0, 67, 97
1, 719171, Note_on_c, 0, 84, 80
1, 719182, Control_c, 0, 64, 57
1, 719182, Control_c, 0, 67, 97
1, 719197, Control_c, 0, 64, 0
1, 719197, Control_c, 0, 67, 95
1, 719201, Note_off_c, 0, 94, 64
1, 719212, Control_c, 0, 67, 92
1, 719219, Note_off_c, 0, 84, 63
1, 719227, Control_c, 0, 67, 88
1, 719241, Control_c, 0, 67, 84
1, 719263, Control_c, 0, 64, 24
1, 719263, Control_c, 0, 67, 82
1, 719273, Note_on_c, 0, 91, 88
1, 719278, Control_c, 0, 64, 51
1, 719278, Control_c, 0, 67, 81
1, 719293, Note_off_c, 0, 91, 70
1, 719293, Control_c, 0, 64, 67
1, 719293, Control_c, 0, 67, 79
1, 719302, Note_on_c, 0, 44, 50
1, 719308, Control_c, 0, 64, 77
1, 719308, Control_c, 0, 67, 77
1, 719323, Control_c, 0, 64, 93
1, 719323, Control_c, 0, 67, 74
1, 719338, Control_c, 0, 64, 117
1, 719338, Control_c, 0, 67, 71
1, 719353, Control_c, 0, 64, 127
1, 719353, Control_c, 0, 67, 67
1, 719356, Note_off_c, 0, 44, 43
1, 719367, Control_c, 0, 67, 62
1, 719382, Control_c, 0, 67, 54
1, 719397, Control_c, 0, 67, 46
1, 719412, Control_c, 0, 67, 36
1, 719427, Control_c, 0, 67, 27
1, 719441, Control_c, 0, 67, 18
1, 719456, Control_c, 0, 67, 11
1, 719471, Control_c, 0, 67, 0
1, 719579, Poly_aftertouch_c, 0, 44, 0
1, 719764, Note_on_c, 0, 75, 85
1, 719958, Note_on_c, 0, 51, 54
1, 719968, Note_on_c, 0, 44, 51
1, 720000, Note_off_c, 0, 51, 58
1, 720021, Note_off_c, 0, 44, 58
1, 720090, Note_off_c, 0, 75, 58
1, 720115, Note_on_c, 0, 82, 90
1, 720125, Note_on_c, 0, 51, 60
1, 720127, Note_on_c, 0, 74, 72
1, 720132, Note_on_c, 0, 44, 54
1, 720167, Note_off_c, 0, 51, 58
1, 720185, Note_off_c, 0, 44, 57
1, 720266, Note_on_c, 0, 51, 57
1, 720271, Note_off_c, 0, 74, 32
1, 720320, Note_off_c, 0, 51, 55
1, 720410, Note_on_c, 0, 84, 91
1, 720412, Note_off_c, 0, 82, 0
1, 720417, Note_on_c, 0, 72, 78
1, 720441, Poly_aftertouch_c, 0, 82, 0
1, 720441, Note_off_c, 0, 72, 67
1, 720464, Note_off_c, 0, 84, 66
1, 720545, Note_on_c, 0, 51, 63
1, 720551, Note_on_c, 0, 58, 58
1, 720557, Note_on_c, 0, 44, 57
1, 720587, Note_off_c, 0, 58, 64
1, 720591, Control_c, 0, 64, 77
1, 720596, Note_off_c, 0, 51, 55
1, 720605, Control_c, 0, 64, 0
1, 720607, Note_off_c, 0, 44, 55
1, 720673, Note_on_c, 0, 58, 63
1, 720675, Note_on_c, 0, 87, 83
1, 720685, Note_on_c, 0, 82, 75
1, 720686, Note_on_c, 0, 51, 54
1, 720688, Note_on_c, 0, 44, 58
1, 720690, Note_on_c, 0, 75, 72
1, 720724, Control_c, 0, 64, 69
1, 720727, Note_off_c, 0, 58, 59
1, 720733, Note_off_c, 0, 51, 60
1, 720739, Control_c, 0, 64, 90
1, 720745, Note_off_c, 0, 44, 56
1, 720761, Control_c, 0, 64, 101
1, 720776, Control_c, 0, 64, 122
1, 720791, Control_c, 0, 64, 127
1, 720832, Note_on_c, 0, 84, 68
1, 720836, Note_on_c, 0, 51, 63
1, 720837, Note_on_c, 0, 58, 61
1, 720837, Note_off_c, 0, 87, 65
1, 720841, Note_on_c, 0, 44, 47
1, 720841, Note_off_c, 0, 82, 63
1, 720843, Note_off_c, 0, 75, 65
1, 720858, Note_off_c, 0, 84, 68
1, 720868, Note_off_c, 0, 58, 67
1, 720877, Note_off_c, 0, 44, 58
1, 720894, Note_off_c, 0, 51, 55
1, 720962, Note_on_c, 0, 86, 79
1, 720964, Note_on_c, 0, 79, 66
1, 720974, Note_on_c, 0, 74, 74
1, 720997, Note_off_c, 0, 79, 66
1, 721004, Note_off_c, 0, 74, 65
1, 721021, Note_off_c, 0, 86, 65
1, 721063, Poly_aftertouch_c, 0, 82, 0
1, 721094, Note_on_c, 0, 58, 80
1, 721097, Note_on_c, 0, 51, 68
1, 721105, Note_on_c, 0, 44, 61
1, 721117, Note_on_c, 0, 85, 45
1, 721140, Note_off_c, 0, 51, 61
1, 721141, Note_off_c, 0, 58, 60
1, 721144, Note_off_c, 0, 85, 58
1, 721156, Note_off_c, 0, 44, 61
1, 721220, Note_on_c, 0, 84, 85
1, 721225, Note_on_c, 0, 58, 77
1, 721227, Note_on_c, 0, 70, 74
1, 721229, Note_on_c, 0, 51, 69
1, 721231, Note_on_c, 0, 44, 69
1, 721267, Note_off_c, 0, 58, 63
1, 721271, Note_off_c, 0, 44, 58
1, 721271, Note_off_c, 0, 51, 64
1, 721279, Note_off_c, 0, 70, 63
1, 721347, Note_on_c, 0, 58, 85
1, 721351, Note_on_c, 0, 51, 73
1, 721356, Note_on_c, 0, 44, 76
1, 721418, Note_off_c, 0, 84, 63
1, 721433, Note_off_c, 0, 58, 61
1, 721454, Note_off_c, 0, 44, 59
1, 721459, Note_off_c, 0, 51, 51
1, 721472, Note_on_c, 0, 82, 85
1, 721474, Note_on_c, 0, 74, 80
1, 721529, Note_off_c, 0, 74, 65
1, 721552, Note_off_c, 0, 82, 64
1, 721615, Note_on_c, 0, 51, 70
1, 721615, Note_on_c, 0, 84, 93
1, 721616, Note_on_c, 0, 44, 62
1, 721618, Note_on_c, 0, 72, 88
1, 721618, Note_on_c, 0, 58, 71
1, 721642, Note_off_c, 0, 84, 65
1, 721645, Note_off_c, 0, 58, 67
1, 721647, Note_off_c, 0, 51, 63
1, 721648, Note_off_c, 0, 72, 63
1, 721661, Note_off_c, 0, 44, 59
1, 721733, Note_on_c, 0, 58, 68
1, 721734, Note_on_c, 0, 51, 65
1, 721734, Note_on_c, 0, 79, 85
1, 721738, Note_on_c, 0, 70, 84
1, 721750, Note_on_c, 0, 44, 65
1, 721773, Note_off_c, 0, 58, 61
1, 721776, Control_c, 0, 64, 70
1, 721784, Note_off_c, 0, 51, 60
1, 721785, Note_off_c, 0, 44, 63
1, 721791, Control_c, 0, 64, 26
1, 721800, Note_off_c, 0, 70, 56
1, 721806, Control_c, 0, 64, 0
1, 721865, Control_c, 0, 64, 58
1, 721869, Note_on_c, 0, 67, 61
1, 721870, Note_on_c, 0, 44, 60
1, 721870, Note_on_c, 0, 58, 70
1, 721872, Note_off_c, 0, 79, 63
1, 721873, Note_on_c, 0, 51, 62
1, 721880, Control_c, 0, 64, 76
1, 721890, Note_off_c, 0, 67, 64
1, 721895, Control_c, 0, 64, 95
1, 721909, Control_c, 0, 64, 127
1, 721928, Note_off_c, 0, 58, 62
1, 721960, Note_off_c, 0, 44, 57
1, 721972, Note_off_c, 0, 51, 57
1, 722002, Note_on_c, 0, 82, 77
1, 722003, Note_on_c, 0, 70, 76
1, 722051, Note_off_c, 0, 70, 61
1, 722067, Note_off_c, 0, 82, 53
1, 722125, Note_on_c, 0, 72, 79
1, 722138, Note_on_c, 0, 58, 73
1, 722142, Note_on_c, 0, 51, 64
1, 722148, Note_on_c, 0, 44, 53
1, 722171, Note_off_c, 0, 58, 64
1, 722174, Note_off_c, 0, 72, 62
1, 722176, Note_off_c, 0, 51, 63
1, 722184, Note_off_c, 0, 44, 61
1, 722232, Note_on_c, 0, 86, 79
1, 722242, Note_on_c, 0, 79, 69
1, 722259, Note_on_c, 0, 58, 69
1, 722260, Note_on_c, 0, 51, 68
1, 722271, Note_on_c, 0, 44, 71
1, 722283, Note_off_c, 0, 86, 64
1, 722298, Note_off_c, 0, 58, 63
1, 722301, Note_off_c, 0, 79, 66
1, 722307, Note_off_c, 0, 51, 62
1, 722311, Note_off_c, 0, 44, 60
1, 722361, Note_on_c, 0, 84, 84
1, 722381, Note_on_c, 0, 70, 65
1, 722384, Note_on_c, 0, 58, 84
1, 722388, Note_on_c, 0, 44, 67
1, 722395, Note_on_c, 0, 51, 67
1, 722408, Note_off_c, 0, 70, 66
1, 722419, Note_off_c, 0, 84, 63
1, 722420, Note_off_c, 0, 58, 59
1, 722423, Note_off_c, 0, 51, 66
1, 722424, Note_off_c, 0, 44, 62
1, 722494, Note_on_c, 0, 82, 93
1, 722502, Note_on_c, 0, 74, 72
1, 722529, Note_off_c, 0, 74, 68
1, 722539, Note_off_c, 0, 82, 64
1, 722569, Control_c, 0, 64, 115
1, 722584, Control_c, 0, 64, 65
1, 722599, Control_c, 0, 64, 0
1, 722614, Note_on_c, 0, 79, 83
1, 722629, Note_on_c, 0, 58, 85
1, 722633, Note_on_c, 0, 72, 58
1, 722635, Note_on_c, 0, 44, 75
1, 722640, Note_on_c, 0, 51, 69
1, 722655, Note_off_c, 0, 72, 58
1, 722666, Note_off_c, 0, 79, 66
1, 722674, Note_off_c, 0, 51, 64
1, 722674, Note_off_c, 0, 58, 61
1, 722674, Control_c, 0, 64, 54
1, 722687, Note_off_c, 0, 44, 61
1, 722689, Control_c, 0, 64, 104
1, 722703, Control_c, 0, 64, 127
1, 722743, Note_on_c, 0, 82, 89
1, 722751, Note_on_c, 0, 70, 86
1, 722757, Note_on_c, 0, 58, 88
1, 722761, Note_on_c, 0, 51, 64
1, 722769, Note_on_c, 0, 44, 65
1, 722799, Note_off_c, 0, 51, 63
1, 722800, Note_off_c, 0, 70, 64
1, 722801, Note_off_c, 0, 44, 63
1, 722802, Note_off_c, 0, 58, 60
1, 722821, Note_off_c, 0, 82, 59
1, 722868, Note_on_c, 0, 84, 96
1, 722871, Note_on_c, 0, 72, 91
1, 722876, Note_on_c, 0, 79, 82
1, 722882, Note_on_c, 0, 58, 89
1, 722884, Note_on_c, 0, 44, 73
1, 722884, Note_on_c, 0, 51, 69
1, 722934, Note_off_c, 0, 58, 63
1, 722937, Note_off_c, 0, 79, 63
1, 722938, Note_off_c, 0, 44, 62
1, 722951, Note_off_c, 0, 51, 63
1, 722978, Note_off_c, 0, 72, 0
1, 722992, Note_on_c, 0, 79, 73
1, 723022, Note_off_c, 0, 84, 56
1, 723022, Poly_aftertouch_c, 0, 72, 127
1, 723039, Poly_aftertouch_c, 0, 72, 0
1, 723039, Note_off_c, 0, 79, 63
1, 723052, Control_c, 0, 64, 99
1, 723067, Control_c, 0, 64, 57
1, 723082, Control_c, 0, 64, 0
1, 723135, Note_on_c, 0, 70, 85
1, 723138, Note_on_c, 0, 84, 82
1, 723139, Note_on_c, 0, 77, 75
1, 723142, Note_on_c, 0, 58, 85
1, 723142, Note_on_c, 0, 82, 75
1, 723144, Note_on_c, 0, 44, 74
1, 723148, Note_on_c, 0, 51, 80
1, 723154, Note_off_c, 0, 70, 70
1, 723156, Control_c, 0, 64, 61
1, 723161, Note_on_c, 0, 80, 47
1, 723165, Note_off_c, 0, 77, 66
1, 723168, Note_off_c, 0, 58, 66
1, 723171, Control_c, 0, 64, 59
1, 723178, Note_off_c, 0, 51, 64
1, 723179, Note_off_c, 0, 84, 51
1, 723186, Note_off_c, 0, 80, 64
1, 723186, Control_c, 0, 64, 0
1, 723186, Note_off_c, 0, 82, 53
1, 723192, Note_off_c, 0, 44, 62
1, 723258, Note_on_c, 0, 86, 88
1, 723267, Note_on_c, 0, 58, 75
1, 723267, Note_on_c, 0, 82, 86
1, 723269, Note_on_c, 0, 51, 53
1, 723270, Note_on_c, 0, 44, 73
1, 723272, Poly_aftertouch_c, 0, 70, 0
1, 723273, Note_on_c, 0, 84, 77
1, 723276, Note_on_c, 0, 77, 61
1, 723278, Note_on_c, 0, 80, 52
1, 723295, Note_off_c, 0, 58, 64
1, 723299, Note_off_c, 0, 77, 58
1, 723300, Note_off_c, 0, 80, 59
1, 723302, Note_off_c, 0, 86, 63
1, 723303, Note_off_c, 0, 51, 65
1, 723314, Note_off_c, 0, 44, 61
1, 723314, Note_off_c, 0, 82, 63
1, 723320, Note_off_c, 0, 84, 62
1, 723384, Note_on_c, 0, 84, 93
1, 723387, Note_on_c, 0, 77, 90
1, 723398, Note_on_c, 0, 58, 71
1, 723401, Note_on_c, 0, 51, 70
1, 723409, Note_on_c, 0, 44, 66
1, 723422, Note_off_c, 0, 77, 64
1, 723422, Control_c, 0, 64, 57
1, 723431, Note_off_c, 0, 58, 66
1, 723433, Note_off_c, 0, 51, 65
1, 723437, Note_off_c, 0, 84, 65
1, 723437, Control_c, 0, 64, 76
1, 723440, Note_off_c, 0, 44, 63
1, 723452, Control_c, 0, 64, 69
1, 723467, Control_c, 0, 64, 44
1, 723481, Control_c, 0, 64, 0
1, 723518, Note_on_c, 0, 82, 98
1, 723531, Note_on_c, 0, 70, 68
1, 723548, Note_off_c, 0, 70, 65
1, 723574, Note_off_c, 0, 82, 63
1, 723697, Note_on_c, 0, 89, 92
1, 723699, Note_on_c, 0, 79, 90
1, 723699, Note_on_c, 0, 58, 79
1, 723700, Note_on_c, 0, 44, 64
1, 723700, Note_on_c, 0, 87, 95
1, 723702, Note_on_c, 0, 82, 87
1, 723707, Note_on_c, 0, 51, 69
1, 723715, Note_off_c, 0, 89, 71
1, 723720, Control_c, 0, 64, 74
1, 723720, Note_off_c, 0, 79, 70
1, 723733, Note_off_c, 0, 82, 63
1, 723735, Control_c, 0, 64, 127
1, 723736, Note_off_c, 0, 58, 63
1, 723756, Note_off_c, 0, 51, 63
1, 723757, Note_off_c, 0, 44, 62
1, 723759, Note_off_c, 0, 87, 67
1, 723933, Note_on_c, 0, 44, 3
1, 723970, Note_off_c, 0, 44, 34
1, 724000, Note_on_c, 0, 73, 95
1, 724001, Note_on_c, 0, 87, 87
1, 724003, Note_on_c, 0, 85, 90
1, 724006, Note_on_c, 0, 80, 85
1, 724007, Note_on_c, 0, 58, 79
1, 724013, Note_on_c, 0, 51, 63
1, 724018, Note_on_c, 0, 44, 50
1, 724021, Note_off_c, 0, 87, 73
1, 724035, Note_off_c, 0, 58, 69
1, 724037, Note_off_c, 0, 80, 61
1, 724042, Note_off_c, 0, 51, 65
1, 724045, Note_off_c, 0, 73, 63
1, 724045, Note_off_c, 0, 85, 67
1, 724052, Note_off_c, 0, 44, 63
1, 724256, Note_on_c, 0, 44, 73
1, 724289, Note_off_c, 0, 44, 64
1, 724300, Note_on_c, 0, 55, 60
1, 724303, Control_c, 0, 64, 72
1, 724318, Control_c, 0, 64, 0
1, 724322, Note_on_c, 0, 60, 78
1, 724337, Note_on_c, 0, 68, 90
1, 724339, Note_on_c, 0, 82, 81
1, 724340, Note_on_c, 0, 80, 76
1, 724345, Note_on_c, 0, 75, 79
1, 724352, Note_off_c, 0, 60, 61
1, 724364, Note_off_c, 0, 55, 61
1, 724385, Note_off_c, 0, 75, 58
1, 724388, Note_off_c, 0, 68, 65
1, 724403, Note_off_c, 0, 80, 61
1, 724404, Note_off_c, 0, 82, 62
1, 724441, Note_on_c, 0, 44, 77
1, 724460, Note_on_c, 0, 55, 76
1, 724474, Note_off_c, 0, 44, 66
1, 724482, Note_on_c, 0, 54, 9
1, 724487, Note_on_c, 0, 68, 83
1, 724488, Note_on_c, 0, 82, 80
1, 724489, Note_on_c, 0, 75, 76
1, 724493, Note_on_c, 0, 60, 79
1, 724494, Note_on_c, 0, 80, 75
1, 724528, Note_off_c, 0, 60, 65
1, 724537, Note_off_c, 0, 54, 27
1, 724538, Note_off_c, 0, 55, 63
1, 724546, Note_off_c, 0, 75, 60
1, 724550, Note_off_c, 0, 68, 65
1, 724562, Note_off_c, 0, 80, 62
1, 724562, Note_off_c, 0, 82, 62
1, 724605, Note_on_c, 0, 44, 77
1, 724629, Note_on_c, 0, 55, 75
1, 724639, Note_off_c, 0, 44, 65
1, 724653, Control_c, 0, 64, 47
1, 724653, Note_on_c, 0, 75, 82
1, 724654, Note_on_c, 0, 68, 90
1, 724654, Note_on_c, 0, 82, 83
1, 724658, Note_on_c, 0, 60, 80
1, 724667, Control_c, 0, 64, 99
1, 724671, Note_on_c, 0, 80, 71
1, 724682, Control_c, 0, 64, 127
1, 724691, Note_off_c, 0, 82, 63
1, 724697, Note_off_c, 0, 80, 66
1, 724698, Note_off_c, 0, 68, 63
1, 724698, Note_off_c, 0, 75, 63
1, 724704, Note_off_c, 0, 55, 63
1, 724705, Note_off_c, 0, 60, 63
1, 724718, Poly_aftertouch_c, 0, 51, 0
1, 724963, Control_c, 0, 64, 76
1, 724978, Control_c, 0, 64, 41
1, 724984, Note_on_c, 0, 70, 98
1, 724993, Note_on_c, 0, 58, 67
1, 724993, Control_c, 0, 64, 0
1, 724997, Note_on_c, 0, 44, 63
1, 724999, Note_on_c, 0, 51, 58
1, 725023, Control_c, 0, 64, 55
1, 725037, Control_c, 0, 64, 89
1, 725049, Note_off_c, 0, 58, 52
1, 725050, Note_off_c, 0, 44, 55
1, 725052, Control_c, 0, 64, 127
1, 725074, Note_off_c, 0, 51, 55
1, 725109, Note_off_c, 0, 70, 63
1, 725174, Note_on_c, 0, 58, 65
1, 725189, Note_on_c, 0, 44, 40
1, 725205, Note_on_c, 0, 51, 45
1, 725219, Note_off_c, 0, 58, 58
1, 725222, Note_off_c, 0, 44, 53
1, 725231, Note_off_c, 0, 51, 61
1, 725350, Note_on_c, 0, 70, 106
1, 725377, Note_on_c, 0, 58, 65
1, 725384, Note_on_c, 0, 51, 39
1, 725401, Note_on_c, 0, 44, 38
1, 725417, Note_off_c, 0, 58, 61
1, 725426, Note_off_c, 0, 44, 55
1, 725443, Note_off_c, 0, 51, 55
1, 725518, Note_off_c, 0, 70, 59
1, 725681, Note_on_c, 0, 75, 104
1, 725691, Note_on_c, 0, 44, 56
1, 725693, Note_on_c, 0, 58, 74
1, 725697, Note_on_c, 0, 51, 57
1, 725726, Note_off_c, 0, 58, 62
1, 725733, Note_off_c, 0, 51, 63
1, 725741, Note_off_c, 0, 44, 59
1, 725841, Note_on_c, 0, 58, 61
1, 725845, Note_on_c, 0, 51, 49
1, 725851, Note_on_c, 0, 44, 53
1, 725881, Note_off_c, 0, 58, 58
1, 725881, Note_off_c, 0, 51, 61
1, 725888, Note_off_c, 0, 44, 61
1, 725951, Control_c, 0, 64, 94
1, 725966, Control_c, 0, 64, 62
1, 725980, Control_c, 0, 64, 23
1, 725988, Note_off_c, 0, 75, 53
1, 726003, Control_c, 0, 64, 15
1, 726011, Note_on_c, 0, 51, 49
1, 726012, Note_on_c, 0, 73, 107
1, 726013, Note_on_c, 0, 58, 60
1, 726018, Control_c, 0, 64, 54
1, 726032, Control_c, 0, 64, 95
1, 726042, Note_on_c, 0, 75, 24
1, 726047, Control_c, 0, 64, 127
1, 726048, Note_off_c, 0, 58, 63
1, 726057, Note_off_c, 0, 51, 63
1, 726058, Note_off_c, 0, 73, 67
1, 726080, Note_off_c, 0, 75, 56
1, 726120, Note_on_c, 0, 44, 68
1, 726166, Note_on_c, 0, 51, 62
1, 726181, Note_off_c, 0, 44, 63
1, 726195, Note_on_c, 0, 60, 69
1, 726200, Note_off_c, 0, 51, 66
1, 726222, Note_off_c, 0, 60, 64
1, 726304, Note_on_c, 0, 72, 86
1, 726322, Note_on_c, 0, 75, 94
1, 726324, Note_on_c, 0, 82, 88
1, 726326, Note_on_c, 0, 87, 87
1, 726327, Note_off_c, 0, 72, 69
1, 726364, Note_on_c, 0, 85, 42
1, 726389, Note_off_c, 0, 85, 58
1, 726393, Note_off_c, 0, 75, 62
1, 726403, Note_off_c, 0, 87, 64
1, 726411, Note_off_c, 0, 82, 61
1, 726447, Control_c, 0, 64, 81
1, 726462, Control_c, 0, 64, 46
1, 726477, Control_c, 0, 64, 0
1, 726477, Note_on_c, 0, 44, 46
1, 726482, Note_on_c, 0, 70, 88
1, 726506, Control_c, 0, 64, 44
1, 726521, Control_c, 0, 64, 73
1, 726528, Note_on_c, 0, 53, 70
1, 726536, Control_c, 0, 64, 127
1, 726543, Note_off_c, 0, 44, 62
1, 726550, Note_off_c, 0, 70, 62
1, 726570, Note_on_c, 0, 61, 77
1, 726570, Note_off_c, 0, 53, 63
1, 726593, Note_off_c, 0, 61, 67
1, 726642, Note_on_c, 0, 85, 87
1, 726649, Note_on_c, 0, 73, 91
1, 726652, Note_on_c, 0, 68, 91
1, 726653, Note_on_c, 0, 80, 85
1, 726671, Note_off_c, 0, 73, 66
1, 726673, Note_off_c, 0, 68, 71
1, 726676, Note_off_c, 0, 80, 67
1, 726685, Note_off_c, 0, 85, 64
1, 726690, Note_on_c, 0, 69, 45
1, 726691, Note_off_c, 0, 69, 127
1, 726721, Poly_aftertouch_c, 0, 69, 0
1, 726913, Note_on_c, 0, 44, 78
1, 726915, Control_c, 0, 64, 91
1, 726929, Control_c, 0, 64, 60
1, 726944, Control_c, 0, 64, 34
1, 726945, Note_on_c, 0, 55, 75
1, 726953, Note_on_c, 0, 72, 98
1, 726959, Control_c, 0, 64, 37
1, 726962, Note_off_c, 0, 44, 63
1, 726973, Control_c, 0, 64, 62
1, 726984, Note_on_c, 0, 60, 72
1, 726984, Note_on_c, 0, 68, 63
1, 726988, Control_c, 0, 64, 109
1, 726999, Note_off_c, 0, 55, 64
1, 727002, Note_off_c, 0, 68, 65
1, 727003, Control_c, 0, 64, 127
1, 727017, Note_off_c, 0, 60, 63
1, 727023, Note_off_c, 0, 72, 64
1, 727113, Note_on_c, 0, 44, 74
1, 727158, Note_on_c, 0, 51, 70
1, 727175, Note_off_c, 0, 44, 63
1, 727202, Note_off_c, 0, 51, 64
1, 727207, Note_on_c, 0, 60, 62
1, 727231, Note_off_c, 0, 60, 63
1, 727265, Note_on_c, 0, 87, 79
1, 727268, Note_on_c, 0, 82, 83
1, 727269, Note_on_c, 0, 75, 90
1, 727280, Note_on_c, 0, 70, 91
1, 727297, Note_off_c, 0, 75, 61
1, 727298, Note_off_c, 0, 70, 70
1, 727301, Note_off_c, 0, 82, 62
1, 727317, Note_off_c, 0, 87, 66
1, 727415, Poly_aftertouch_c, 0, 70, 127
1, 727440, Poly_aftertouch_c, 0, 70, 0
1, 727530, Note_on_c, 0, 44, 58
1, 727545, Control_c, 0, 64, 86
1, 727559, Control_c, 0, 64, 71
1, 727567, Note_off_c, 0, 44, 61
1, 727574, Note_on_c, 0, 53, 71
1, 727574, Control_c, 0, 64, 70
1, 727589, Note_on_c, 0, 85, 73
1, 727589, Control_c, 0, 64, 84
1, 727597, Note_on_c, 0, 70, 80
1, 727600, Note_on_c, 0, 61, 71
1, 727601, Note_on_c, 0, 80, 72
1, 727604, Control_c, 0, 64, 127
1, 727622, Note_off_c, 0, 70, 65
1, 727629, Note_off_c, 0, 53, 61
1, 727629, Note_off_c, 0, 80, 65
1, 727631, Note_off_c, 0, 61, 67
1, 727640, Note_off_c, 0, 85, 63
1, 727810, Note_on_c, 0, 44, 65
1, 727840, Control_c, 0, 64, 77
1, 727842, Note_on_c, 0, 55, 72
1, 727855, Control_c, 0, 64, 50
1, 727869, Control_c, 0, 64, 0
1, 727884, Control_c, 0, 64, 43
1, 727887, Note_off_c, 0, 44, 62
1, 727899, Control_c, 0, 64, 86
1, 727902, Note_on_c, 0, 60, 75
1, 727902, Note_on_c, 0, 72, 101
1, 727914, Control_c, 0, 64, 127
1, 727920, Note_on_c, 0, 68, 93
1, 727929, Note_off_c, 0, 55, 63
1, 727955, Note_off_c, 0, 60, 60
1, 727962, Note_on_c, 0, 59, 6
1, 727964, Note_off_c, 0, 68, 65
1, 727983, Note_off_c, 0, 72, 65
1, 728017, Note_off_c, 0, 59, 40
1, 728033, Note_on_c, 0, 44, 66
1, 728081, Note_on_c, 0, 51, 70
1, 728099, Note_off_c, 0, 44, 63
1, 728129, Note_on_c, 0, 60, 57
1, 728134, Note_off_c, 0, 51, 65
1, 728164, Note_off_c, 0, 60, 61
1, 728215, Note_on_c, 0, 75, 83
1, 728215, Note_on_c, 0, 82, 81
1, 728218, Note_on_c, 0, 87, 63
1, 728220, Note_on_c, 0, 70, 88
1, 728236, Note_off_c, 0, 75, 70
1, 728236, Note_off_c, 0, 87, 66
1, 728249, Note_off_c, 0, 70, 68
1, 728255, Note_off_c, 0, 82, 62
1, 728373, Note_on_c, 0, 68, 86
1, 728412, Note_on_c, 0, 82, 31
1, 728451, Note_off_c, 0, 82, 51
1, 728467, Note_off_c, 0, 68, 63
1, 728486, Control_c, 0, 64, 79
1, 728488, Note_on_c, 0, 44, 45
1, 728500, Control_c, 0, 64, 56
1, 728514, Note_off_c, 0, 44, 57
1, 728515, Control_c, 0, 64, 38
1, 728516, Note_on_c, 0, 53, 74
1, 728530, Control_c, 0, 64, 53
1, 728539, Note_on_c, 0, 70, 99
1, 728540, Note_on_c, 0, 61, 84
1, 728542, Note_on_c, 0, 80, 88
1, 728543, Note_on_c, 0, 85, 90
1, 728545, Control_c, 0, 64, 86
1, 728560, Control_c, 0, 64, 127
1, 728575, Note_off_c, 0, 53, 62
1, 728586, Note_off_c, 0, 85, 64
1, 728589, Note_off_c, 0, 61, 64
1, 728602, Note_off_c, 0, 80, 63
1, 728603, Note_off_c, 0, 70, 62
1, 728772, Note_on_c, 0, 44, 74
1, 728825, Note_on_c, 0, 55, 77
1, 728829, Note_off_c, 0, 44, 63
1, 728841, Note_on_c, 0, 68, 103
1, 728844, Note_on_c, 0, 80, 94
1, 728850, Note_on_c, 0, 60, 83
1, 728851, Note_on_c, 0, 75, 88
1, 728883, Note_off_c, 0, 55, 63
1, 728885, Note_off_c, 0, 60, 61
1, 728907, Note_off_c, 0, 75, 62
1, 728908, Note_off_c, 0, 80, 63
1, 728916, Note_off_c, 0, 68, 61
1, 729054, Note_on_c, 0, 80, 41
1, 729062, Note_on_c, 0, 44, 64
1, 729093, Note_off_c, 0, 80, 47
1, 729121, Note_on_c, 0, 46, 24
1, 729124, Note_on_c, 0, 55, 68
1, 729130, Control_c, 0, 64, 84
1, 729132, Note_off_c, 0, 44, 63
1, 729145, Control_c, 0, 64, 57
1, 729160, Control_c, 0, 64, 45
1, 729168, Note_on_c, 0, 72, 97
1, 729175, Control_c, 0, 64, 58
1, 729178, Note_on_c, 0, 60, 72
1, 729190, Control_c, 0, 64, 89
1, 729196, Note_off_c, 0, 46, 42
1, 729205, Control_c, 0, 64, 127
1, 729210, Note_on_c, 0, 68, 73
1, 729210, Poly_aftertouch_c, 0, 49, 0
1, 729217, Note_off_c, 0, 55, 63
1, 729222, Note_off_c, 0, 60, 60
1, 729231, Note_off_c, 0, 68, 58
1, 729263, Note_off_c, 0, 72, 64
1, 729354, Note_on_c, 0, 44, 53
1, 729403, Note_on_c, 0, 46, 55
1, 729407, Note_on_c, 0, 53, 70
1, 729422, Note_off_c, 0, 44, 63
1, 729428, Control_c, 0, 64, 109
1, 729443, Control_c, 0, 64, 65
1, 729452, Note_off_c, 0, 46, 58
1, 729457, Control_c, 0, 64, 44
1, 729462, Note_on_c, 0, 61, 74
1, 729472, Control_c, 0, 64, 45
1, 729473, Note_on_c, 0, 77, 87
1, 729473, Note_on_c, 0, 70, 94
1, 729473, Note_on_c, 0, 82, 91
1, 729487, Control_c, 0, 64, 65
1, 729502, Control_c, 0, 64, 127
1, 729503, Note_off_c, 0, 53, 63
1, 729513, Note_on_c, 0, 80, 43
1, 729516, Note_off_c, 0, 61, 64
1, 729541, Note_off_c, 0, 80, 56
1, 729550, Note_off_c, 0, 70, 64
1, 729570, Note_off_c, 0, 82, 62
1, 729603, Note_on_c, 0, 44, 77
1, 729619, Note_on_c, 0, 68, 95
1, 729636, Note_on_c, 0, 51, 71
1, 729659, Note_off_c, 0, 44, 63
1, 729661, Note_off_c, 0, 68, 64
1, 729665, Note_off_c, 0, 77, 65
1, 729687, Note_off_c, 0, 51, 65
1, 729785, Note_on_c, 0, 70, 94
1, 729795, Note_on_c, 0, 75, 98
1, 729798, Note_on_c, 0, 87, 94
1, 729815, Note_on_c, 0, 82, 62
1, 729816, Note_off_c, 0, 75, 68
1, 729821, Note_off_c, 0, 87, 66
1, 729825, Note_off_c, 0, 70, 63
1, 729835, Note_off_c, 0, 82, 63
1, 729883, Poly_aftertouch_c, 0, 71, 0
1, 730043, Control_c, 0, 64, 105
1, 730056, Note_on_c, 0, 44, 60
1, 730058, Control_c, 0, 64, 68
1, 730072, Control_c, 0, 64, 55
1, 730087, Control_c, 0, 64, 58
1, 730098, Note_on_c, 0, 53, 69
1, 730102, Note_on_c, 0, 58, 83
1, 730102, Control_c, 0, 64, 74
1, 730109, Note_on_c, 0, 70, 99
1, 730110, Note_on_c, 0, 85, 93
1, 730114, Note_on_c, 0, 80, 92
1, 730117, Control_c, 0, 64, 127
1, 730128, Note_off_c, 0, 70, 70
1, 730129, Note_off_c, 0, 85, 71
1, 730132, Note_off_c, 0, 44, 61
1, 730132, Note_off_c, 0, 80, 71
1, 730138, Note_off_c, 0, 53, 63
1, 730144, Note_off_c, 0, 58, 62
1, 730305, Note_on_c, 0, 44, 71
1, 730325, Control_c, 0, 64, 76
1, 730339, Control_c, 0, 64, 57
1, 730347, Note_on_c, 0, 53, 68
1, 730354, Control_c, 0, 64, 46
1, 730368, Note_off_c, 0, 44, 63
1, 730369, Control_c, 0, 64, 59
1, 730384, Control_c, 0, 64, 80
1, 730389, Note_on_c, 0, 60, 76
1, 730398, Control_c, 0, 64, 127
1, 730413, Note_off_c, 0, 60, 66
1, 730415, Note_off_c, 0, 53, 63
1, 730433, Poly_aftertouch_c, 0, 73, 0
1, 730436, Note_on_c, 0, 68, 105
1, 730437, Note_on_c, 0, 80, 85
1, 730438, Note_on_c, 0, 72, 95
1, 730442, Note_on_c, 0, 75, 86
1, 730465, Poly_aftertouch_c, 0, 73, 0
1, 730483, Note_off_c, 0, 72, 64
1, 730484, Note_off_c, 0, 68, 63
1, 730512, Note_off_c, 0, 75, 64
1, 730530, Note_off_c, 0, 80, 63
1, 730565, Poly_aftertouch_c, 0, 60, 0
1, 730569, Control_c, 0, 64, 63
1, 730584, Control_c, 0, 64, 0
1, 730634, Note_on_c, 0, 39, 99
1, 730636, Note_on_c, 0, 44, 105
1, 730636, Note_on_c, 0, 31, 79
1, 730658, Control_c, 0, 64, 127
1, 730662, Note_off_c, 0, 31, 64
1, 730684, Note_off_c, 0, 39, 65
1, 730691, Note_off_c, 0, 44, 66
1, 730836, Control_c, 0, 64, 70
1, 730851, Control_c, 0, 64, 25
1, 730856, Note_on_c, 0, 87, 97
1, 730856, Note_on_c, 0, 75, 101
1, 730861, Note_on_c, 0, 82, 94
1, 730862, Note_on_c, 0, 56, 86
1, 730866, Control_c, 0, 64, 0
1, 730879, Note_on_c, 0, 51, 58
1, 730881, Control_c, 0, 64, 57
1, 730895, Control_c, 0, 64, 92
1, 730896, Note_off_c, 0, 56, 63
1, 730904, Note_off_c, 0, 51, 37
1, 730910, Control_c, 0, 64, 127
1, 730963, Note_off_c, 0, 75, 59
1, 731077, Note_off_c, 0, 87, 47
1, 731103, Control_c, 0, 64, 78
1, 731118, Control_c, 0, 64, 50
1, 731128, Note_off_c, 0, 82, 57
1, 731133, Control_c, 0, 64, 0
1, 731162, Control_c, 0, 64, 40
1, 731175, Note_on_c, 0, 58, 82
1, 731175, Note_on_c, 0, 85, 89
1, 731177, Control_c, 0, 64, 66
1, 731180, Note_on_c, 0, 73, 80
1, 731185, Note_on_c, 0, 51, 60
1, 731190, Note_on_c, 0, 80, 66
1, 731190, Note_on_c, 0, 44, 68
1, 731192, Control_c, 0, 64, 108
1, 731203, Note_off_c, 0, 73, 69
1, 731207, Note_off_c, 0, 80, 67
1, 731207, Control_c, 0, 64, 127
1, 731210, Note_off_c, 0, 58, 65
1, 731213, Note_off_c, 0, 51, 67
1, 731223, Note_off_c, 0, 85, 64
1, 731229, Note_off_c, 0, 44, 63
1, 731392, Control_c, 0, 64, 72
1, 731407, Control_c, 0, 64, 52
1, 731408, Note_on_c, 0, 44, 65
1, 731421, Control_c, 0, 64, 45
1, 731436, Control_c, 0, 64, 60
1, 731445, Note_off_c, 0, 44, 64
1, 731451, Control_c, 0, 64, 92
1, 731458, Note_on_c, 0, 55, 79
1, 731466, Control_c, 0, 64, 127
1, 731479, Note_on_c, 0, 60, 84
1, 731487, Note_on_c, 0, 80, 83
1, 731491, Note_on_c, 0, 68, 94
1, 731491, Note_on_c, 0, 75, 90
1, 731497, Poly_aftertouch_c, 0, 49, 0
1, 731500, Note_off_c, 0, 60, 66
1, 731500, Note_off_c, 0, 55, 63
1, 731514, Poly_aftertouch_c, 0, 54, 127
1, 731520, Note_off_c, 0, 68, 62
1, 731530, Poly_aftertouch_c, 0, 49, 0
1, 731537, Note_off_c, 0, 75, 64
1, 731545, Poly_aftertouch_c, 0, 54, 0
1, 731551, Note_off_c, 0, 80, 63
1, 731581, Note_on_c, 0, 60, 17
1, 731585, Control_c, 0, 64, 77
1, 731599, Control_c, 0, 64, 33
1, 731614, Note_off_c, 0, 60, 45
1, 731614, Control_c, 0, 64, 0
1, 731646, Note_on_c, 0, 44, 109
1, 731652, Note_on_c, 0, 39, 91
1, 731658, Control_c, 0, 64, 66
1, 731660, Note_on_c, 0, 31, 76
1, 731673, Control_c, 0, 64, 127
1, 731676, Note_off_c, 0, 39, 68
1, 731682, Note_on_c, 0, 33, 45
1, 731683, Note_off_c, 0, 44, 64
1, 731686, Note_off_c, 0, 31, 59
1, 731717, Note_off_c, 0, 33, 54
1, 731765, Note_on_c, 0, 39, 13
1, 731781, Poly_aftertouch_c, 0, 34, 0
1, 731809, Note_off_c, 0, 39, 51
1, 731855, Note_on_c, 0, 75, 105
1, 731857, Note_on_c, 0, 87, 94
1, 731858, Note_on_c, 0, 82, 92
1, 731861, Note_on_c, 0, 58, 94
1, 731868, Note_on_c, 0, 51, 85
1, 731892, Note_off_c, 0, 58, 64
1, 731893, Note_off_c, 0, 51, 68
1, 731963, Note_off_c, 0, 75, 62
1, 731993, Note_off_c, 0, 87, 64
1, 732118, Note_off_c, 0, 82, 55
1, 732140, Control_c, 0, 64, 108
1, 732155, Control_c, 0, 64, 89
1, 732174, Note_on_c, 0, 85, 94
1, 732176, Note_on_c, 0, 73, 93
1, 732177, Note_on_c, 0, 58, 96
1, 732183, Note_on_c, 0, 53, 79
1, 732184, Note_on_c, 0, 44, 78
1, 732184, Note_on_c, 0, 80, 78
1, 732184, Control_c, 0, 64, 104
1, 732199, Control_c, 0, 64, 127
1, 732204, Note_off_c, 0, 73, 62
1, 732205, Note_off_c, 0, 80, 67
1, 732212, Note_off_c, 0, 53, 65
1, 732213, Note_off_c, 0, 85, 66
1, 732215, Note_off_c, 0, 58, 67
1, 732218, Note_off_c, 0, 44, 59
1, 732326, Poly_aftertouch_c, 0, 80, 0
1, 732363, Poly_aftertouch_c, 0, 80, 127
1, 732378, Control_c, 0, 64, 75
1, 732392, Note_on_c, 0, 44, 49
1, 732392, Control_c, 0, 64, 58
1, 732407, Control_c, 0, 64, 46
1, 732411, Poly_aftertouch_c, 0, 80, 0
1, 732422, Control_c, 0, 64, 55
1, 732437, Control_c, 0, 64, 72
1, 732447, Note_on_c, 0, 53, 81
1, 732448, Note_off_c, 0, 44, 63
1, 732452, Control_c, 0, 64, 127
1, 732466, Note_on_c, 0, 60, 84
1, 732489, Note_on_c, 0, 68, 103
1, 732490, Note_off_c, 0, 60, 66
1, 732492, Note_off_c, 0, 53, 63
1, 732493, Note_on_c, 0, 80, 96
1, 732494, Note_on_c, 0, 75, 94
1, 732530, Note_off_c, 0, 68, 66
1, 732536, Note_off_c, 0, 75, 67
1, 732546, Note_off_c, 0, 80, 63
1, 732555, Control_c, 0, 64, 87
1, 732570, Control_c, 0, 64, 51
1, 732585, Control_c, 0, 64, 0
1, 732591, Poly_aftertouch_c, 0, 60, 0
1, 732593, Note_on_c, 0, 60, 2
1, 732594, Note_off_c, 0, 60, 127
1, 732645, Control_c, 0, 64, 66
1, 732647, Note_on_c, 0, 44, 108
1, 732650, Note_on_c, 0, 39, 103
1, 732655, Note_on_c, 0, 31, 79
1, 732660, Control_c, 0, 64, 127
1, 732672, Note_on_c, 0, 34, 59
1, 732673, Note_off_c, 0, 34, 127
1, 732673, Note_off_c, 0, 44, 66
1, 732674, Note_off_c, 0, 39, 69
1, 732681, Note_off_c, 0, 31, 64
1, 732688, Note_on_c, 0, 33, 30
1, 732704, Poly_aftertouch_c, 0, 34, 0
1, 732729, Note_off_c, 0, 33, 53
1, 732837, Note_on_c, 0, 75, 96
1, 732838, Note_on_c, 0, 87, 95
1, 732841, Note_on_c, 0, 82, 89
1, 732844, Note_on_c, 0, 51, 83
1, 732849, Note_on_c, 0, 56, 77
1, 732873, Note_off_c, 0, 56, 66
1, 732876, Note_off_c, 0, 51, 68
1, 732936, Note_off_c, 0, 75, 61
1, 732946, Poly_aftertouch_c, 0, 53, 0
1, 732948, Control_c, 0, 64, 79
1, 732963, Control_c, 0, 64, 36
1, 732978, Control_c, 0, 64, 0
1, 733009, Note_off_c, 0, 87, 57
1, 733040, Note_on_c, 0, 34, 78
1, 733045, Note_on_c, 0, 46, 99
1, 733050, Note_on_c, 0, 41, 87
1, 733052, Control_c, 0, 64, 69
1, 733065, Note_on_c, 0, 37, 42
1, 733067, Control_c, 0, 64, 127
1, 733077, Note_off_c, 0, 34, 66
1, 733088, Note_off_c, 0, 41, 63
1, 733101, Note_off_c, 0, 46, 64
1, 733101, Note_off_c, 0, 37, 53
1, 733164, Note_off_c, 0, 82, 61
1, 733196, Note_on_c, 0, 85, 98
1, 733197, Note_on_c, 0, 73, 100
1, 733202, Note_on_c, 0, 58, 84
1, 733203, Note_on_c, 0, 53, 74
1, 733203, Note_on_c, 0, 80, 84
1, 733227, Note_off_c, 0, 80, 65
1, 733228, Note_on_c, 0, 51, 46
1, 733243, Note_off_c, 0, 58, 67
1, 733244, Note_off_c, 0, 73, 64
1, 733253, Note_off_c, 0, 53, 63
1, 733253, Note_off_c, 0, 85, 65
1, 733258, Note_off_c, 0, 51, 53
1, 733379, Control_c, 0, 64, 83
1, 733394, Control_c, 0, 64, 54
1, 733408, Control_c, 0, 64, 0
1, 733447, Note_on_c, 0, 48, 108
1, 733450, Note_on_c, 0, 43, 86
1, 733451, Note_on_c, 0, 36, 88
1, 733468, Control_c, 0, 64, 49
1, 733479, Note_off_c, 0, 36, 68
1, 733490, Control_c, 0, 64, 102
1, 733501, Note_on_c, 0, 38, 39
1, 733502, Note_off_c, 0, 38, 127
1, 733505, Control_c, 0, 64, 127
1, 733514, Note_off_c, 0, 43, 64
1, 733518, Note_off_c, 0, 48, 68
1, 733539, Poly_aftertouch_c, 0, 38, 0
1, 733628, Note_on_c, 0, 56, 54
1, 733640, Note_on_c, 0, 51, 46
1, 733653, Note_off_c, 0, 56, 60
1, 733669, Note_off_c, 0, 51, 57
1, 733685, Note_on_c, 0, 80, 91
1, 733687, Note_on_c, 0, 75, 92
1, 733689, Note_on_c, 0, 68, 95
1, 733692, Note_on_c, 0, 60, 57
1, 733699, Note_on_c, 0, 55, 94
1, 733726, Note_off_c, 0, 68, 65
1, 733732, Note_off_c, 0, 60, 66
1, 733732, Note_off_c, 0, 75, 67
1, 733736, Note_off_c, 0, 80, 64
1, 733738, Note_off_c, 0, 55, 67
1, 733935, Control_c, 0, 64, 95
1, 733950, Control_c, 0, 64, 64
1, 733965, Control_c, 0, 64, 0
1, 734025, Control_c, 0, 67, 10
1, 734039, Control_c, 0, 67, 15
1, 734054, Control_c, 0, 67, 21
1, 734069, Control_c, 0, 67, 30
1, 734084, Control_c, 0, 67, 38
1, 734099, Control_c, 0, 67, 47
1, 734113, Control_c, 0, 67, 52
1, 734128, Control_c, 0, 67, 57
1, 734143, Control_c, 0, 67, 63
1, 734157, Control_c, 0, 64, 12
1, 734157, Control_c, 0, 67, 68
1, 734172, Control_c, 0, 64, 22
1, 734172, Control_c, 0, 67, 72
1, 734187, Control_c, 0, 64, 28
1, 734187, Control_c, 0, 67, 78
1, 734202, Control_c, 0, 64, 39
1, 734202, Control_c, 0, 67, 84
1, 734217, Control_c, 0, 64, 52
1, 734217, Control_c, 0, 67, 90
1, 734239, Control_c, 0, 64, 58
1, 734239, Control_c, 0, 67, 94
1, 734254, Control_c, 0, 64, 60
1, 734254, Control_c, 0, 67, 97
1, 734269, Control_c, 0, 67, 100
1, 734284, Control_c, 0, 64, 54
1, 734284, Control_c, 0, 67, 103
1, 734299, Control_c, 0, 64, 26
1, 734299, Control_c, 0, 67, 106
1, 734313, Control_c, 0, 64, 0
1, 734313, Control_c, 0, 67, 107
1, 734328, Control_c, 0, 67, 107
1, 734335, Note_on_c, 0, 79, 64
1, 734342, Note_on_c, 0, 60, 51
1, 734345, Note_on_c, 0, 55, 27
1, 734345, Note_on_c, 0, 74, 63
1, 734348, Note_on_c, 0, 48, 40
1, 734359, Note_on_c, 0, 67, 42
1, 734372, Control_c, 0, 67, 108
1, 734379, Note_off_c, 0, 60, 63
1, 734385, Note_off_c, 0, 74, 65
1, 734386, Note_off_c, 0, 55, 63
1, 734386, Note_off_c, 0, 48, 64
1, 734387, Note_off_c, 0, 67, 56
1, 734398, Note_off_c, 0, 79, 50
1, 734402, Control_c, 0, 67, 108
1, 734432, Control_c, 0, 67, 109
1, 734446, Control_c, 0, 67, 110
1, 734461, Control_c, 0, 67, 110
1, 734476, Control_c, 0, 67, 111
1, 734491, Control_c, 0, 67, 111
1, 734520, Control_c, 0, 67, 112
1, 734609, Control_c, 0, 67, 111
1, 734624, Control_c, 0, 67, 111
1, 734669, Control_c, 0, 67, 110
1, 734669, Note_on_c, 0, 77, 66
1, 734683, Note_on_c, 0, 62, 60
1, 734684, Control_c, 0, 64, 32
1, 734686, Note_on_c, 0, 72, 53
1, 734687, Note_on_c, 0, 50, 57
1, 734693, Note_on_c, 0, 65, 51
1, 734697, Note_on_c, 0, 57, 42
1, 734699, Control_c, 0, 64, 41
1, 734714, Note_off_c, 0, 72, 62
1, 734714, Control_c, 0, 64, 32
1, 734716, Note_off_c, 0, 50, 66
1, 734718, Note_off_c, 0, 62, 66
1, 734722, Note_off_c, 0, 65, 57
1, 734725, Note_off_c, 0, 77, 62
1, 734727, Note_off_c, 0, 57, 53
1, 734729, Control_c, 0, 64, 0
1, 734758, Control_c, 0, 67, 111
1, 734788, Control_c, 0, 67, 111
1, 734818, Control_c, 0, 67, 112
1, 734936, Control_c, 0, 67, 111
1, 734966, Control_c, 0, 67, 111
1, 735003, Control_c, 0, 67, 110
1, 735014, Note_on_c, 0, 72, 62
1, 735018, Control_c, 0, 64, 25
1, 735018, Control_c, 0, 67, 109
1, 735026, Note_on_c, 0, 64, 57
1, 735031, Note_on_c, 0, 67, 53
1, 735032, Control_c, 0, 64, 39
1, 735032, Control_c, 0, 67, 108
1, 735033, Note_on_c, 0, 59, 48
1, 735034, Note_on_c, 0, 52, 52
1, 735041, Note_on_c, 0, 60, 38
1, 735047, Control_c, 0, 64, 49
1, 735062, Control_c, 0, 64, 56
1, 735069, Note_off_c, 0, 60, 54
1, 735070, Note_off_c, 0, 59, 64
1, 735071, Note_off_c, 0, 67, 61
1, 735077, Note_off_c, 0, 72, 62
1, 735077, Control_c, 0, 64, 61
1, 735077, Control_c, 0, 67, 108
1, 735078, Note_off_c, 0, 52, 49
1, 735080, Note_off_c, 0, 64, 61
1, 735092, Control_c, 0, 64, 62
1, 735122, Control_c, 0, 64, 63
1, 735136, Control_c, 0, 64, 63
1, 735151, Control_c, 0, 67, 108
1, 735166, Control_c, 0, 64, 63
1, 735181, Control_c, 0, 64, 56
1, 735181, Control_c, 0, 67, 109
1, 735195, Control_c, 0, 64, 31
1, 735210, Control_c, 0, 64, 0
1, 735225, Control_c, 0, 67, 109
1, 735284, Control_c, 0, 67, 109
1, 735332, Note_on_c, 0, 79, 80
1, 735343, Control_c, 0, 67, 108
1, 735347, Note_on_c, 0, 52, 53
1, 735347, Note_on_c, 0, 62, 56
1, 735348, Note_on_c, 0, 59, 45
1, 735352, Note_on_c, 0, 74, 47
1, 735356, Note_on_c, 0, 67, 50
1, 735376, Note_off_c, 0, 74, 59
1, 735384, Note_off_c, 0, 67, 56
1, 735387, Note_off_c, 0, 59, 63
1, 735394, Note_off_c, 0, 52, 63
1, 735396, Note_off_c, 0, 62, 63
1, 735396, Note_off_c, 0, 79, 60
1, 735522, Control_c, 0, 67, 107
1, 735566, Control_c, 0, 67, 107
1, 735581, Control_c, 0, 67, 106
1, 735596, Control_c, 0, 67, 105
1, 735611, Control_c, 0, 67, 104
1, 735626, Control_c, 0, 67, 104
1, 735641, Control_c, 0, 67, 104
1, 735647, Note_on_c, 0, 77, 77
1, 735659, Note_on_c, 0, 63, 66
1, 735659, Note_on_c, 0, 65, 63
1, 735661, Note_on_c, 0, 72, 65
1, 735670, Note_on_c, 0, 53, 49
1, 735670, Control_c, 0, 64, 33
1, 735670, Control_c, 0, 67, 105
1, 735673, Note_on_c, 0, 60, 45
1, 735685, Control_c, 0, 64, 29
1, 735692, Note_off_c, 0, 63, 66
1, 735696, Note_off_c, 0, 53, 56
1, 735698, Note_off_c, 0, 60, 56
1, 735700, Control_c, 0, 64, 0
1, 735700, Control_c, 0, 67, 105
1, 735702, Note_off_c, 0, 65, 56
1, 735703, Note_off_c, 0, 77, 64
1, 735706, Note_off_c, 0, 72, 61
1, 735715, Control_c, 0, 67, 106
1, 735730, Control_c, 0, 67, 107
1, 735766, Control_c, 0, 67, 107
1, 735796, Control_c, 0, 67, 108
1, 735811, Control_c, 0, 67, 108
1, 735840, Control_c, 0, 67, 109
1, 735855, Control_c, 0, 67, 108
1, 735915, Control_c, 0, 67, 108
1, 735930, Control_c, 0, 67, 106
1, 735945, Control_c, 0, 67, 105
1, 735959, Control_c, 0, 67, 104
1, 735969, Note_on_c, 0, 72, 76
1, 735975, Note_on_c, 0, 64, 71
1, 735980, Note_on_c, 0, 67, 65
1, 735980, Note_on_c, 0, 54, 69
1, 735983, Note_on_c, 0, 60, 58
1, 735989, Note_on_c, 0, 61, 60
1, 735989, Control_c, 0, 64, 31
1, 735989, Control_c, 0, 67, 103
1, 736004, Control_c, 0, 64, 50
1, 736004, Control_c, 0, 67, 102
1, 736010, Note_off_c, 0, 64, 61
1, 736012, Note_off_c, 0, 60, 64
1, 736018, Control_c, 0, 64, 50
1, 736018, Control_c, 0, 67, 98
1, 736019, Note_off_c, 0, 67, 63
1, 736024, Note_off_c, 0, 54, 61
1, 736025, Note_off_c, 0, 61, 64
1, 736032, Note_off_c, 0, 72, 61
1, 736033, Control_c, 0, 67, 93
1, 736048, Control_c, 0, 67, 88
1, 736061, Control_c, 0, 67, 85
1, 736076, Control_c, 0, 64, 46
1, 736076, Control_c, 0, 67, 82
1, 736091, Control_c, 0, 64, 32
1, 736091, Control_c, 0, 67, 77
1, 736106, Control_c, 0, 64, 0
1, 736106, Control_c, 0, 67, 68
1, 736120, Control_c, 0, 67, 58
1, 736135, Control_c, 0, 67, 48
1, 736150, Control_c, 0, 67, 38
1, 736165, Control_c, 0, 67, 30
1, 736180, Control_c, 0, 67, 24
1, 736195, Control_c, 0, 67, 21
1, 736209, Control_c, 0, 67, 20
1, 736283, Control_c, 0, 67, 19
1, 736288, Note_on_c, 0, 62, 66
1, 736288, Note_on_c, 0, 79, 80
1, 736293, Note_on_c, 0, 52, 60
1, 736298, Note_on_c, 0, 74, 63
1, 736298, Control_c, 0, 67, 18
1, 736299, Note_on_c, 0, 67, 65
1, 736300, Note_on_c, 0, 56, 57
1, 736314, Control_c, 0, 67, 17
1, 736325, Note_off_c, 0, 52, 53
1, 736331, Note_off_c, 0, 74, 65
1, 736333, Note_off_c, 0, 67, 57
1, 736335, Note_off_c, 0, 56, 62
1, 736335, Note_off_c, 0, 62, 58
1, 736338, Note_off_c, 0, 79, 56
1, 736344, Control_c, 0, 67, 16
1, 736358, Control_c, 0, 67, 15
1, 736373, Control_c, 0, 67, 13
1, 736388, Control_c, 0, 67, 8
1, 736403, Control_c, 0, 67, 0
1, 736595, Note_on_c, 0, 77, 79
1, 736604, Note_on_c, 0, 53, 56
1, 736604, Note_on_c, 0, 63, 70
1, 736612, Note_on_c, 0, 72, 61
1, 736613, Note_on_c, 0, 65, 65
1, 736619, Note_on_c, 0, 57, 55
1, 736633, Control_c, 0, 64, 30
1, 736647, Control_c, 0, 64, 41
1, 736651, Note_off_c, 0, 72, 63
1, 736654, Note_off_c, 0, 53, 62
1, 736654, Note_off_c, 0, 65, 60
1, 736658, Note_off_c, 0, 57, 63
1, 736662, Control_c, 0, 64, 46
1, 736663, Note_off_c, 0, 77, 64
1, 736663, Note_off_c, 0, 63, 63
1, 736677, Control_c, 0, 64, 49
1, 736707, Control_c, 0, 64, 47
1, 736721, Control_c, 0, 64, 38
1, 736736, Control_c, 0, 64, 22
1, 736751, Control_c, 0, 64, 0
1, 736914, Note_on_c, 0, 72, 80
1, 736920, Note_on_c, 0, 64, 82
1, 736926, Note_on_c, 0, 54, 72
1, 736929, Note_on_c, 0, 67, 54
1, 736929, Control_c, 0, 64, 32
1, 736930, Note_on_c, 0, 60, 61
1, 736933, Note_on_c, 0, 58, 70
1, 736944, Control_c, 0, 64, 43
1, 736955, Note_off_c, 0, 60, 65
1, 736958, Control_c, 0, 64, 50
1, 736964, Note_off_c, 0, 54, 64
1, 736964, Note_off_c, 0, 64, 58
1, 736965, Note_off_c, 0, 67, 62
1, 736968, Note_off_c, 0, 58, 66
1, 736973, Control_c, 0, 64, 57
1, 736988, Control_c, 0, 64, 60
1, 737000, Note_off_c, 0, 72, 61
1, 737003, Control_c, 0, 64, 61
1, 737018, Control_c, 0, 64, 62
1, 737062, Control_c, 0, 64, 62
1, 737137, Control_c, 0, 64, 62
1, 737152, Control_c, 0, 64, 57
1, 737167, Control_c, 0, 64, 32
1, 737182, Control_c, 0, 64, 0
1, 737219, Note_on_c, 0, 79, 83
1, 737224, Note_on_c, 0, 74, 79
1, 737235, Note_on_c, 0, 52, 78
1, 737235, Note_on_c, 0, 62, 90
1, 737236, Note_on_c, 0, 67, 77
1, 737241, Note_on_c, 0, 56, 81
1, 737243, Note_on_c, 0, 59, 72
1, 737265, Note_off_c, 0, 67, 65
1, 737266, Note_off_c, 0, 59, 68
1, 737274, Note_off_c, 0, 74, 62
1, 737277, Note_off_c, 0, 79, 65
1, 737278, Control_c, 0, 64, 32
1, 737285, Note_off_c, 0, 52, 61
1, 737287, Note_off_c, 0, 62, 65
1, 737293, Note_off_c, 0, 56, 62
1, 737293, Control_c, 0, 64, 56
1, 737308, Control_c, 0, 64, 51
1, 737323, Control_c, 0, 64, 21
1, 737337, Control_c, 0, 64, 0
1, 737534, Note_on_c, 0, 77, 85
1, 737536, Note_on_c, 0, 63, 87
1, 737540, Note_on_c, 0, 53, 75
1, 737540, Note_on_c, 0, 72, 80
1, 737541, Note_on_c, 0, 65, 84
1, 737545, Note_on_c, 0, 57, 82
1, 737545, Control_c, 0, 64, 53
1, 737560, Control_c, 0, 64, 57
1, 737589, Control_c, 0, 64, 59
1, 737590, Note_off_c, 0, 77, 65
1, 737593, Note_off_c, 0, 65, 63
1, 737594, Note_off_c, 0, 72, 63
1, 737599, Note_off_c, 0, 57, 64
1, 737600, Note_off_c, 0, 53, 61
1, 737600, Note_off_c, 0, 63, 64
1, 737604, Control_c, 0, 64, 60
1, 737619, Control_c, 0, 64, 59
1, 737634, Control_c, 0, 64, 56
1, 737649, Control_c, 0, 64, 45
1, 737663, Control_c, 0, 64, 17
1, 737678, Control_c, 0, 64, 0
1, 737826, Control_c, 0, 64, 50
1, 737841, Control_c, 0, 64, 66
1, 737848, Note_on_c, 0, 72, 88
1, 737853, Note_on_c, 0, 60, 87
1, 737853, Note_on_c, 0, 67, 80
1, 737853, Note_on_c, 0, 54, 77
1, 737855, Control_c, 0, 64, 80
1, 737856, Note_on_c, 0, 64, 83
1, 737859, Note_on_c, 0, 58, 78
1, 737862, Note_on_c, 0, 61, 80
1, 737870, Control_c, 0, 64, 127
1, 737880, Note_off_c, 0, 60, 65
1, 737888, Note_off_c, 0, 64, 64
1, 737889, Note_off_c, 0, 61, 68
1, 737903, Note_off_c, 0, 67, 64
1, 737906, Note_off_c, 0, 72, 64
1, 737914, Note_off_c, 0, 58, 66
1, 737933, Note_off_c, 0, 54, 64
1, 737998, Control_c, 0, 64, 83
1, 738012, Control_c, 0, 64, 64
1, 738027, Control_c, 0, 64, 42
1, 738042, Control_c, 0, 64, 0
1, 738189, Note_on_c, 0, 91, 96
1, 738190, Control_c, 0, 64, 35
1, 738191, Note_on_c, 0, 53, 99
1, 738192, Note_on_c, 0, 83, 95
1, 738194, Note_on_c, 0, 43, 89
1, 738194, Note_on_c, 0, 79, 94
1, 738195, Note_on_c, 0, 86, 81
1, 738198, Note_on_c, 0, 47, 85
1, 738200, Note_on_c, 0, 50, 87
1, 738205, Control_c, 0, 64, 65
1, 738219, Control_c, 0, 64, 84
1, 738233, Note_off_c, 0, 43, 64
1, 738234, Control_c, 0, 64, 127
1, 738252, Note_off_c, 0, 83, 65
1, 738253, Note_off_c, 0, 86, 61
1, 738253, Note_off_c, 0, 91, 66
1, 738258, Note_off_c, 0, 53, 65
1, 738261, Note_off_c, 0, 47, 67
1, 738262, Note_off_c, 0, 50, 67
1, 738267, Note_off_c, 0, 79, 63
1, 738294, Control_c, 0, 64, 89
1, 738308, Control_c, 0, 64, 64
1, 738323, Control_c, 0, 64, 31
1, 738338, Control_c, 0, 64, 0
1, 738500, Control_c, 0, 64, 49
1, 738514, Note_on_c, 0, 89, 91
1, 738515, Control_c, 0, 64, 65
1, 738519, Note_on_c, 0, 66, 100
1, 738519, Note_on_c, 0, 84, 80
1, 738520, Note_on_c, 0, 81, 88
1, 738521, Note_on_c, 0, 77, 92
1, 738523, Note_on_c, 0, 56, 79
1, 738529, Note_on_c, 0, 63, 88
1, 738529, Control_c, 0, 64, 75
1, 738530, Note_on_c, 0, 60, 78
1, 738544, Control_c, 0, 64, 104
1, 738559, Control_c, 0, 64, 127
1, 738566, Note_off_c, 0, 89, 66
1, 738567, Note_off_c, 0, 66, 66
1, 738578, Note_off_c, 0, 63, 64
1, 738580, Note_off_c, 0, 60, 63
1, 738585, Note_off_c, 0, 84, 66
1, 738586, Note_off_c, 0, 56, 62
1, 738587, Note_off_c, 0, 81, 65
1, 738594, Note_off_c, 0, 77, 64
1, 738648, Control_c, 0, 64, 98
1, 738663, Control_c, 0, 64, 64
1, 738678, Control_c, 0, 64, 0
1, 738849, Note_on_c, 0, 79, 81
1, 738851, Note_on_c, 0, 72, 96
1, 738851, Note_on_c, 0, 84, 94
1, 738854, Note_on_c, 0, 55, 102
1, 738854, Note_on_c, 0, 76, 98
1, 738854, Note_on_c, 0, 45, 86
1, 738860, Note_on_c, 0, 52, 86
1, 738861, Note_on_c, 0, 49, 86
1, 738864, Control_c, 0, 64, 70
1, 738879, Control_c, 0, 64, 127
1, 738896, Note_off_c, 0, 45, 65
1, 738911, Note_off_c, 0, 52, 64
1, 738911, Note_off_c, 0, 55, 65
1, 738912, Note_off_c, 0, 72, 65
1, 738918, Note_off_c, 0, 49, 65
1, 738923, Note_off_c, 0, 76, 65
1, 738925, Note_off_c, 0, 84, 65
1, 738933, Note_off_c, 0, 79, 66
1, 738970, Poly_aftertouch_c, 0, 47, 0
1, 739027, Control_c, 0, 64, 91
1, 739042, Control_c, 0, 64, 67
1, 739057, Control_c, 0, 64, 38
1, 739072, Control_c, 0, 64, 0
1, 739173, Note_on_c, 0, 91, 94
1, 739174, Note_on_c, 0, 79, 97
1, 739176, Note_on_c, 0, 68, 100
1, 739176, Note_on_c, 0, 86, 88
1, 739178, Note_on_c, 0, 83, 96
1, 739182, Note_on_c, 0, 58, 78
1, 739184, Note_on_c, 0, 65, 84
1, 739185, Note_on_c, 0, 62, 82
1, 739190, Control_c, 0, 64, 44
1, 739205, Control_c, 0, 64, 59
1, 739220, Control_c, 0, 64, 60
1, 739233, Note_off_c, 0, 79, 63
1, 739234, Control_c, 0, 64, 60
1, 739235, Note_off_c, 0, 65, 65
1, 739237, Note_off_c, 0, 91, 67
1, 739241, Note_off_c, 0, 62, 65
1, 739244, Note_off_c, 0, 58, 63
1, 739247, Note_off_c, 0, 68, 65
1, 739249, Control_c, 0, 64, 62
1, 739252, Note_off_c, 0, 83, 65
1, 739253, Note_off_c, 0, 86, 64
1, 739279, Control_c, 0, 64, 59
1, 739294, Control_c, 0, 64, 48
1, 739308, Control_c, 0, 64, 17
1, 739323, Control_c, 0, 64, 0
1, 739494, Control_c, 0, 64, 50
1, 739506, Note_on_c, 0, 77, 109
1, 739507, Note_on_c, 0, 66, 72
1, 739507, Note_on_c, 0, 81, 100
1, 739507, Note_on_c, 0, 89, 98
1, 739507, Note_on_c, 0, 69, 96
1, 739507, Note_on_c, 0, 84, 93
1, 739509, Note_on_c, 0, 63, 72
1, 739510, Control_c, 0, 64, 84
1, 739510, Note_on_c, 0, 59, 77
1, 739525, Control_c, 0, 64, 127
1, 739546, Note_off_c, 0, 69, 66
1, 739551, Note_off_c, 0, 66, 65
1, 739556, Note_off_c, 0, 89, 66
1, 739562, Note_off_c, 0, 59, 65
1, 739563, Note_off_c, 0, 63, 65
1, 739566, Note_off_c, 0, 77, 64
1, 739571, Note_off_c, 0, 84, 66
1, 739572, Note_off_c, 0, 81, 67
1, 739643, Control_c, 0, 64, 80
1, 739657, Control_c, 0, 64, 50
1, 739672, Control_c, 0, 64, 0
1, 739821, Control_c, 0, 64, 51
1, 739823, Note_on_c, 0, 72, 106
1, 739824, Note_on_c, 0, 76, 95
1, 739825, Note_on_c, 0, 79, 79
1, 739826, Note_on_c, 0, 84, 92
1, 739826, Note_on_c, 0, 48, 87
1, 739829, Note_on_c, 0, 52, 80
1, 739829, Note_on_c, 0, 58, 83
1, 739832, Note_on_c, 0, 55, 82
1, 739836, Control_c, 0, 64, 72
1, 739841, Note_on_c, 0, 57, 88
1, 739848, Note_off_c, 0, 58, 41
1, 739849, Note_on_c, 0, 56, 73
1, 739850, Control_c, 0, 64, 105
1, 739865, Control_c, 0, 64, 127
1, 739875, Note_off_c, 0, 56, 55
1, 739876, Note_off_c, 0, 72, 64
1, 739877, Note_on_c, 0, 50, 34
1, 739885, Note_off_c, 0, 57, 64
1, 739889, Note_off_c, 0, 76, 64
1, 739891, Note_off_c, 0, 84, 67
1, 739893, Note_off_c, 0, 48, 64
1, 739893, Note_off_c, 0, 55, 64
1, 739896, Note_off_c, 0, 79, 66
1, 739907, Note_off_c, 0, 52, 64
1, 739915, Note_off_c, 0, 50, 45
1, 739999, Control_c, 0, 64, 76
1, 740014, Control_c, 0, 64, 47
1, 740017, Note_on_c, 0, 56, 23
1, 740028, Control_c, 0, 64, 0
1, 740051, Note_off_c, 0, 56, 43
1, 740145, Note_on_c, 0, 59, 100
1, 740146, Note_on_c, 0, 83, 101
1, 740146, Note_on_c, 0, 91, 97
1, 740147, Note_on_c, 0, 56, 89
1, 740148, Note_on_c, 0, 79, 105
1, 740149, Note_on_c, 0, 49, 92
1, 740150, Note_on_c, 0, 53, 83
1, 740150, Note_on_c, 0, 86, 86
1, 740162, Control_c, 0, 64, 58
1, 740176, Control_c, 0, 64, 85
1, 740191, Control_c, 0, 64, 127
1, 740203, Note_off_c, 0, 91, 68
1, 740212, Note_off_c, 0, 86, 61
1, 740214, Note_on_c, 0, 88, 32
1, 740214, Note_off_c, 0, 79, 66
1, 740216, Note_off_c, 0, 53, 63
1, 740221, Note_off_c, 0, 49, 63
1, 740232, Note_off_c, 0, 83, 64
1, 740238, Note_off_c, 0, 56, 62
1, 740247, Note_off_c, 0, 59, 65
1, 740258, Poly_aftertouch_c, 0, 50, 0
1, 740261, Note_off_c, 0, 88, 38
1, 740279, Poly_aftertouch_c, 0, 50, 0
1, 740303, Control_c, 0, 64, 76
1, 740318, Control_c, 0, 64, 54
1, 740333, Control_c, 0, 64, 0
1, 740362, Note_on_c, 0, 50, 8
1, 740418, Note_off_c, 0, 50, 51
1, 740476, Note_on_c, 0, 81, 90
1, 740476, Note_on_c, 0, 60, 105
1, 740477, Note_on_c, 0, 89, 95
1, 740478, Note_on_c, 0, 54, 71
1, 740479, Note_on_c, 0, 77, 102
1, 740479, Note_on_c, 0, 50, 93
1, 740480, Note_on_c, 0, 57, 81
1, 740480, Note_on_c, 0, 84, 92
1, 740481, Control_c, 0, 64, 49
1, 740496, Control_c, 0, 64, 106
1, 740511, Control_c, 0, 64, 127
1, 740514, Note_on_c, 0, 86, 46
1, 740521, Note_off_c, 0, 57, 64
1, 740521, Note_off_c, 0, 89, 67
1, 740533, Note_off_c, 0, 50, 63
1, 740538, Note_off_c, 0, 86, 57
1, 740539, Note_off_c, 0, 84, 65
1, 740541, Note_off_c, 0, 77, 68
1, 740548, Note_off_c, 0, 81, 65
1, 740552, Note_off_c, 0, 54, 65
1, 740552, Note_off_c, 0, 60, 61
1, 740644, Control_c, 0, 64, 85
1, 740659, Control_c, 0, 64, 58
1, 740673, Control_c, 0, 64, 0
1, 740792, Control_c, 0, 64, 57
1, 740801, Note_on_c, 0, 51, 92
1, 740803, Note_on_c, 0, 61, 112
1, 740803, Note_on_c, 0, 76, 102
1, 740804, Note_on_c, 0, 72, 109
1, 740805, Note_on_c, 0, 84, 96
1, 740806, Note_on_c, 0, 58, 89
1, 740806, Control_c, 0, 64, 109
1, 740808, Note_on_c, 0, 79, 88
1, 740810, Note_on_c, 0, 55, 80
1, 740821, Control_c, 0, 64, 127
1, 740843, Note_off_c, 0, 72, 65
1, 740849, Note_off_c, 0, 84, 68
1, 740851, Note_off_c, 0, 76, 68
1, 740854, Note_on_c, 0, 81, 35
1, 740854, Note_off_c, 0, 79, 66
1, 740876, Note_off_c, 0, 58, 67
1, 740878, Note_off_c, 0, 55, 64
1, 740887, Note_off_c, 0, 51, 64
1, 740887, Note_off_c, 0, 81, 43
1, 740890, Note_off_c, 0, 61, 63
1, 741051, Control_c, 0, 64, 111
1, 741066, Control_c, 0, 64, 74
1, 741076, Note_on_c, 0, 82, 38
1, 741081, Control_c, 0, 64, 45
1, 741096, Control_c, 0, 64, 0
1, 741105, Note_off_c, 0, 82, 43
1, 741172, Note_on_c, 0, 83, 101
1, 741173, Note_on_c, 0, 79, 114
1, 741174, Note_on_c, 0, 91, 99
1, 741176, Note_on_c, 0, 86, 86
1, 741176, Note_on_c, 0, 52, 96
1, 741176, Note_on_c, 0, 62, 104
1, 741179, Note_on_c, 0, 56, 82
1, 741185, Note_on_c, 0, 59, 91
1, 741185, Control_c, 0, 64, 61
1, 741197, Note_on_c, 0, 54, 86
1, 741200, Control_c, 0, 64, 127
1, 741205, Note_on_c, 0, 88, 67
1, 741224, Note_off_c, 0, 54, 66
1, 741229, Note_off_c, 0, 88, 61
1, 741235, Note_off_c, 0, 91, 68
1, 741236, Note_off_c, 0, 52, 64
1, 741246, Note_off_c, 0, 79, 65
1, 741251, Note_off_c, 0, 59, 65
1, 741251, Note_off_c, 0, 86, 63
1, 741254, Note_off_c, 0, 83, 67
1, 741256, Note_off_c, 0, 56, 63
1, 741257, Note_off_c, 0, 62, 65
1, 741304, Control_c, 0, 64, 65
1, 741319, Control_c, 0, 64, 0
1, 741398, Poly_aftertouch_c, 0, 54, 127
1, 741454, Poly_aftertouch_c, 0, 54, 0
1, 741476, Note_on_c, 0, 81, 24
1, 741520, Note_off_c, 0, 81, 0
1, 741526, Control_c, 0, 64, 56
1, 741531, Note_on_c, 0, 81, 80
1, 741532, Note_on_c, 0, 84, 81
1, 741533, Note_on_c, 0, 77, 99
1, 741534, Note_on_c, 0, 89, 94
1, 741536, Note_on_c, 0, 63, 117
1, 741539, Note_on_c, 0, 53, 84
1, 741541, Control_c, 0, 64, 127
1, 741544, Note_on_c, 0, 57, 80
1, 741546, Note_on_c, 0, 60, 80
1, 741585, Note_off_c, 0, 89, 65
1, 741593, Note_off_c, 0, 77, 69
1, 741596, Note_off_c, 0, 53, 64
1, 741607, Note_off_c, 0, 63, 66
1, 741608, Note_off_c, 0, 60, 62
1, 741609, Note_off_c, 0, 84, 66
1, 741610, Note_off_c, 0, 57, 63
1, 741610, Note_off_c, 0, 81, 66
1, 741641, Poly_aftertouch_c, 0, 86, 0
1, 741643, Poly_aftertouch_c, 0, 55, 127
1, 741671, Poly_aftertouch_c, 0, 55, 0
1, 741726, Control_c, 0, 64, 108
1, 741741, Control_c, 0, 64, 73
1, 741755, Control_c, 0, 64, 49
1, 741770, Note_on_c, 0, 54, 12
1, 741770, Control_c, 0, 64, 0
1, 741832, Note_off_c, 0, 54, 43
1, 741954, Note_on_c, 0, 54, 76
1, 741955, Note_on_c, 0, 79, 83
1, 741957, Note_on_c, 0, 72, 104
1, 741957, Note_on_c, 0, 76, 96
1, 741957, Note_on_c, 0, 84, 93
1, 741960, Note_on_c, 0, 64, 107
1, 741963, Note_on_c, 0, 61, 90
1, 741964, Note_on_c, 0, 58, 83
1, 741964, Control_c, 0, 64, 103
1, 741978, Control_c, 0, 64, 127
1, 741980, Note_on_c, 0, 56, 71
1, 742002, Note_off_c, 0, 56, 67
1, 742005, Note_off_c, 0, 54, 67
1, 742015, Note_off_c, 0, 64, 66
1, 742017, Note_off_c, 0, 58, 67
1, 742022, Note_off_c, 0, 61, 66
1, 742055, Note_off_c, 0, 84, 63
1, 742067, Control_c, 0, 67, 10
1, 742068, Note_off_c, 0, 79, 66
1, 742085, Note_off_c, 0, 76, 61
1, 742088, Note_off_c, 0, 72, 59
1, 742097, Control_c, 0, 67, 17
1, 742112, Control_c, 0, 67, 36
1, 742126, Control_c, 0, 67, 68
1, 742141, Control_c, 0, 67, 104
1, 742156, Control_c, 0, 67, 118
1, 742158, Note_on_c, 0, 73, 47
1, 742171, Control_c, 0, 67, 119
1, 742185, Control_c, 0, 67, 123
1, 742186, Note_on_c, 0, 78, 59
1, 742192, Note_off_c, 0, 73, 65
1, 742200, Control_c, 0, 67, 127
1, 742206, Note_off_c, 0, 78, 65
1, 742234, Note_on_c, 0, 72, 61
1, 742235, Note_on_c, 0, 79, 56
1, 742249, Note_off_c, 0, 72, 66
1, 742256, Note_off_c, 0, 79, 60
1, 742275, Note_on_c, 0, 78, 77
1, 742276, Note_on_c, 0, 73, 63
1, 742293, Note_off_c, 0, 73, 68
1, 742303, Note_off_c, 0, 78, 66
1, 742327, Note_on_c, 0, 72, 68
1, 742333, Note_on_c, 0, 79, 57
1, 742348, Control_c, 0, 64, 100
1, 742350, Note_off_c, 0, 72, 61
1, 742356, Note_off_c, 0, 79, 60
1, 742363, Control_c, 0, 64, 87
1, 742367, Note_on_c, 0, 78, 68
1, 742368, Note_on_c, 0, 73, 65
1, 742371, Note_on_c, 0, 70, 56
1, 742377, Control_c, 0, 64, 81
1, 742392, Control_c, 0, 64, 77
1, 742397, Poly_aftertouch_c, 0, 76, 0
1, 742398, Note_off_c, 0, 73, 68
1, 742404, Note_off_c, 0, 78, 61
1, 742405, Note_off_c, 0, 70, 66
1, 742407, Control_c, 0, 64, 71
1, 742422, Control_c, 0, 64, 65
1, 742423, Note_on_c, 0, 79, 75
1, 742427, Note_on_c, 0, 72, 72
1, 742437, Control_c, 0, 64, 60
1, 742447, Note_off_c, 0, 72, 61
1, 742447, Note_off_c, 0, 79, 69
1, 742452, Control_c, 0, 64, 58
1, 742455, Note_on_c, 0, 76, 14
1, 742474, Control_c, 0, 64, 57
1, 742476, Note_on_c, 0, 78, 70
1, 742484, Note_on_c, 0, 70, 67
1, 742489, Control_c, 0, 64, 58
1, 742491, Note_on_c, 0, 73, 49
1, 742500, Note_off_c, 0, 78, 54
1, 742509, Note_off_c, 0, 70, 64
1, 742510, Note_off_c, 0, 73, 63
1, 742523, Note_on_c, 0, 79, 67
1, 742525, Note_on_c, 0, 72, 69
1, 742546, Note_off_c, 0, 76, 0
1, 742546, Note_on_c, 0, 76, 35
1, 742553, Note_off_c, 0, 79, 66
1, 742556, Note_off_c, 0, 72, 65
1, 742572, Note_on_c, 0, 78, 72
1, 742574, Note_on_c, 0, 70, 72
1, 742579, Note_on_c, 0, 73, 62
1, 742580, Note_off_c, 0, 76, 42
1, 742607, Note_off_c, 0, 73, 68
1, 742607, Note_off_c, 0, 78, 60
1, 742608, Note_off_c, 0, 70, 62
1, 742617, Note_on_c, 0, 72, 76
1, 742625, Note_on_c, 0, 79, 52
1, 742643, Note_on_c, 0, 76, 47
1, 742648, Note_off_c, 0, 79, 62
1, 742649, Note_off_c, 0, 72, 57
1, 742654, Note_on_c, 0, 77, 27
1, 742670, Note_off_c, 0, 76, 36
1, 742676, Note_on_c, 0, 70, 68
1, 742678, Note_on_c, 0, 73, 55
1, 742687, Note_on_c, 0, 78, 50
1, 742689, Note_off_c, 0, 77, 32
1, 742699, Note_off_c, 0, 70, 62
1, 742708, Note_off_c, 0, 73, 67
1, 742711, Note_off_c, 0, 78, 59
1, 742714, Note_on_c, 0, 79, 75
1, 742718, Note_on_c, 0, 72, 77
1, 742729, Note_on_c, 0, 76, 64
1, 742744, Note_off_c, 0, 79, 53
1, 742749, Note_off_c, 0, 76, 64
1, 742750, Note_off_c, 0, 72, 60
1, 742766, Note_on_c, 0, 70, 68
1, 742777, Note_on_c, 0, 73, 64
1, 742779, Note_on_c, 0, 78, 63
1, 742791, Note_off_c, 0, 70, 57
1, 742798, Note_off_c, 0, 78, 63
1, 742801, Note_off_c, 0, 73, 66
1, 742801, Control_c, 0, 64, 58
1, 742808, Note_on_c, 0, 76, 74
1, 742808, Note_on_c, 0, 79, 80
1, 742815, Note_on_c, 0, 72, 76
1, 742830, Control_c, 0, 64, 59
1, 742833, Note_off_c, 0, 76, 60
1, 742836, Note_off_c, 0, 79, 64
1, 742851, Note_off_c, 0, 72, 57
1, 742860, Note_on_c, 0, 70, 73
1, 742860, Note_on_c, 0, 73, 72
1, 742865, Note_on_c, 0, 78, 64
1, 742887, Note_off_c, 0, 73, 67
1, 742893, Note_off_c, 0, 70, 63
1, 742896, Note_off_c, 0, 78, 66
1, 742900, Note_on_c, 0, 79, 82
1, 742901, Note_on_c, 0, 76, 63
1, 742908, Note_on_c, 0, 72, 72
1, 742928, Note_off_c, 0, 76, 66
1, 742933, Note_off_c, 0, 79, 61
1, 742941, Note_off_c, 0, 72, 58
1, 742952, Note_on_c, 0, 70, 73
1, 742959, Note_on_c, 0, 78, 64
1, 742962, Note_on_c, 0, 73, 64
1, 742987, Note_off_c, 0, 70, 59
1, 742988, Note_off_c, 0, 73, 69
1, 742990, Note_off_c, 0, 78, 66
1, 742998, Note_on_c, 0, 76, 65
1, 743000, Note_on_c, 0, 79, 82
1, 743005, Note_on_c, 0, 72, 74
1, 743027, Note_off_c, 0, 79, 63
1, 743028, Note_off_c, 0, 76, 66
1, 743041, Note_off_c, 0, 72, 58
1, 743050, Note_on_c, 0, 70, 81
1, 743053, Note_on_c, 0, 78, 72
1, 743054, Note_on_c, 0, 73, 60
1, 743082, Note_off_c, 0, 78, 62
1, 743082, Control_c, 0, 64, 59
1, 743083, Note_off_c, 0, 73, 67
1, 743084, Note_off_c, 0, 70, 64
1, 743093, Note_on_c, 0, 76, 76
1, 743094, Note_on_c, 0, 79, 84
1, 743103, Note_on_c, 0, 72, 74
1, 743122, Note_off_c, 0, 76, 66
1, 743124, Note_off_c, 0, 79, 63
1, 743131, Note_off_c, 0, 72, 64
1, 743146, Note_on_c, 0, 78, 77
1, 743149, Note_on_c, 0, 70, 74
1, 743150, Note_on_c, 0, 73, 71
1, 743156, Control_c, 0, 64, 60
1, 743175, Note_off_c, 0, 73, 69
1, 743176, Note_off_c, 0, 70, 65
1, 743179, Note_off_c, 0, 78, 61
1, 743191, Note_on_c, 0, 76, 74
1, 743194, Note_on_c, 0, 79, 87
1, 743194, Note_on_c, 0, 72, 80
1, 743200, Control_c, 0, 64, 60
1, 743227, Note_off_c, 0, 76, 66
1, 743230, Note_off_c, 0, 79, 64
1, 743238, Note_off_c, 0, 72, 63
1, 743238, Control_c, 0, 64, 61
1, 743246, Note_on_c, 0, 70, 83
1, 743251, Note_on_c, 0, 73, 74
1, 743251, Note_on_c, 0, 78, 83
1, 743253, Control_c, 0, 64, 62
1, 743268, Control_c, 0, 64, 63
1, 743281, Note_off_c, 0, 73, 68
1, 743282, Control_c, 0, 64, 65
1, 743283, Note_off_c, 0, 78, 59
1, 743285, Note_off_c, 0, 70, 61
1, 743295, Note_on_c, 0, 76, 82
1, 743296, Note_on_c, 0, 79, 92
1, 743297, Control_c, 0, 64, 66
1, 743302, Note_on_c, 0, 72, 81
1, 743312, Control_c, 0, 64, 67
1, 743325, Note_off_c, 0, 76, 65
1, 743326, Control_c, 0, 64, 68
1, 743331, Note_off_c, 0, 72, 62
1, 743331, Note_off_c, 0, 79, 63
1, 743341, Control_c, 0, 64, 69
1, 743349, Note_on_c, 0, 78, 84
1, 743352, Note_on_c, 0, 70, 76
1, 743355, Note_on_c, 0, 73, 78
1, 743356, Control_c, 0, 64, 69
1, 743380, Note_off_c, 0, 73, 69
1, 743381, Note_off_c, 0, 70, 64
1, 743385, Note_off_c, 0, 78, 57
1, 743397, Note_on_c, 0, 76, 88
1, 743400, Note_on_c, 0, 72, 81
1, 743400, Note_on_c, 0, 79, 85
1, 743421, Note_off_c, 0, 76, 64
1, 743425, Note_off_c, 0, 79, 67
1, 743435, Note_off_c, 0, 72, 63
1, 743449, Note_on_c, 0, 70, 86
1, 743451, Note_on_c, 0, 78, 83
1, 743452, Note_on_c, 0, 73, 78
1, 743474, Control_c, 0, 64, 70
1, 743477, Note_off_c, 0, 73, 67
1, 743480, Note_off_c, 0, 70, 60
1, 743480, Note_off_c, 0, 78, 59
1, 743489, Control_c, 0, 64, 72
1, 743497, Note_on_c, 0, 79, 89
1, 743498, Note_on_c, 0, 76, 82
1, 743500, Note_on_c, 0, 72, 87
1, 743505, Control_c, 0, 64, 78
1, 743520, Control_c, 0, 64, 90
1, 743523, Note_off_c, 0, 76, 67
1, 743528, Note_off_c, 0, 79, 63
1, 743531, Note_off_c, 0, 72, 61
1, 743535, Control_c, 0, 64, 127
1, 743535, Control_c, 0, 67, 117
1, 743548, Note_on_c, 0, 78, 85
1, 743550, Note_on_c, 0, 70, 83
1, 743551, Control_c, 0, 67, 107
1, 743552, Note_on_c, 0, 73, 80
1, 743566, Control_c, 0, 67, 98
1, 743579, Note_off_c, 0, 70, 57
1, 743579, Note_off_c, 0, 73, 67
1, 743580, Control_c, 0, 67, 87
1, 743593, Note_off_c, 0, 78, 61
1, 743594, Note_on_c, 0, 76, 68
1, 743595, Control_c, 0, 67, 65
1, 743597, Note_on_c, 0, 72, 93
1, 743599, Note_on_c, 0, 79, 96
1, 743610, Control_c, 0, 67, 35
1, 743623, Note_off_c, 0, 76, 67
1, 743624, Control_c, 0, 67, 0
1, 743625, Note_off_c, 0, 79, 62
1, 743638, Note_off_c, 0, 72, 60
1, 743650, Note_on_c, 0, 78, 81
1, 743652, Note_on_c, 0, 70, 79
1, 743657, Note_on_c, 0, 73, 81
1, 743683, Note_off_c, 0, 73, 68
1, 743689, Note_off_c, 0, 70, 62
1, 743695, Note_on_c, 0, 76, 83
1, 743695, Note_on_c, 0, 79, 86
1, 743696, Note_on_c, 0, 72, 85
1, 743696, Note_off_c, 0, 78, 61
1, 743721, Note_off_c, 0, 76, 65
1, 743724, Note_off_c, 0, 79, 65
1, 743733, Note_off_c, 0, 72, 60
1, 743751, Note_on_c, 0, 78, 78
1, 743757, Note_on_c, 0, 73, 78
1, 743758, Note_on_c, 0, 70, 79
1, 743786, Note_off_c, 0, 73, 65
1, 743787, Note_off_c, 0, 70, 65
1, 743791, Note_on_c, 0, 76, 90
1, 743792, Note_off_c, 0, 78, 61
1, 743794, Note_on_c, 0, 72, 90
1, 743796, Note_on_c, 0, 79, 89
1, 743819, Note_off_c, 0, 76, 63
1, 743821, Note_off_c, 0, 79, 67
1, 743838, Note_off_c, 0, 72, 60
1, 743849, Note_on_c, 0, 78, 86
1, 743852, Note_on_c, 0, 70, 88
1, 743859, Note_on_c, 0, 73, 82
1, 743885, Note_off_c, 0, 73, 69
1, 743889, Note_off_c, 0, 70, 60
1, 743892, Note_on_c, 0, 72, 83
1, 743892, Note_on_c, 0, 76, 87
1, 743892, Note_on_c, 0, 79, 88
1, 743894, Note_off_c, 0, 78, 64
1, 743915, Note_off_c, 0, 76, 67
1, 743923, Note_off_c, 0, 79, 62
1, 743927, Note_off_c, 0, 72, 59
1, 743945, Note_on_c, 0, 78, 91
1, 743951, Note_on_c, 0, 73, 89
1, 743952, Note_on_c, 0, 70, 86
1, 743989, Note_off_c, 0, 70, 66
1, 743993, Note_off_c, 0, 73, 63
1, 743996, Note_on_c, 0, 76, 61
1, 743996, Note_on_c, 0, 72, 98
1, 743997, Note_off_c, 0, 78, 64
1, 744000, Note_on_c, 0, 79, 94
1, 744023, Note_off_c, 0, 79, 65
1, 744023, Note_off_c, 0, 76, 67
1, 744039, Note_off_c, 0, 72, 61
1, 744048, Note_on_c, 0, 78, 92
1, 744051, Note_on_c, 0, 70, 90
1, 744054, Note_on_c, 0, 73, 85
1, 744082, Note_off_c, 0, 73, 65
1, 744086, Note_off_c, 0, 70, 60
1, 744091, Note_on_c, 0, 72, 91
1, 744091, Note_on_c, 0, 76, 89
1, 744091, Note_off_c, 0, 78, 64
1, 744092, Note_on_c, 0, 79, 91
1, 744112, Note_off_c, 0, 76, 68
1, 744122, Note_off_c, 0, 79, 64
1, 744127, Note_off_c, 0, 72, 59
1, 744142, Note_on_c, 0, 78, 95
1, 744146, Note_on_c, 0, 70, 87
1, 744146, Note_on_c, 0, 73, 88
1, 744171, Note_off_c, 0, 70, 65
1, 744179, Note_off_c, 0, 73, 66
1, 744185, Note_off_c, 0, 78, 63
1, 744187, Note_on_c, 0, 76, 92
1, 744187, Note_on_c, 0, 72, 101
1, 744192, Note_on_c, 0, 79, 96
1, 744211, Note_off_c, 0, 76, 67
1, 744215, Note_off_c, 0, 79, 67
1, 744217, Note_off_c, 0, 72, 61
1, 744237, Note_on_c, 0, 78, 91
1, 744241, Note_on_c, 0, 70, 88
1, 744246, Note_on_c, 0, 73, 85
1, 744264, Note_off_c, 0, 73, 70
1, 744268, Note_off_c, 0, 70, 63
1, 744281, Note_off_c, 0, 78, 63
1, 744282, Note_on_c, 0, 79, 94
1, 744282, Note_on_c, 0, 76, 96
1, 744284, Note_on_c, 0, 72, 96
1, 744306, Note_off_c, 0, 76, 65
1, 744310, Note_off_c, 0, 72, 59
1, 744321, Note_off_c, 0, 79, 65
1, 744330, Note_on_c, 0, 78, 94
1, 744333, Note_on_c, 0, 73, 84
1, 744336, Note_on_c, 0, 70, 92
1, 744363, Note_off_c, 0, 70, 64
1, 744372, Note_off_c, 0, 73, 64
1, 744373, Note_on_c, 0, 72, 95
1, 744374, Note_off_c, 0, 78, 63
1, 744376, Note_on_c, 0, 76, 95
1, 744378, Note_on_c, 0, 79, 93
1, 744397, Note_off_c, 0, 76, 65
1, 744404, Note_off_c, 0, 79, 64
1, 744412, Note_off_c, 0, 72, 63
1, 744421, Note_on_c, 0, 78, 90
1, 744428, Note_on_c, 0, 70, 94
1, 744431, Note_on_c, 0, 73, 81
1, 744454, Note_off_c, 0, 70, 63
1, 744454, Note_off_c, 0, 73, 68
1, 744466, Note_off_c, 0, 78, 64
1, 744467, Note_on_c, 0, 76, 92
1, 744468, Note_on_c, 0, 72, 102
1, 744472, Note_on_c, 0, 79, 100
1, 744494, Note_off_c, 0, 76, 67
1, 744501, Note_off_c, 0, 79, 64
1, 744503, Note_off_c, 0, 72, 59
1, 744519, Note_on_c, 0, 78, 89
1, 744522, Note_on_c, 0, 73, 90
1, 744524, Note_on_c, 0, 70, 87
1, 744547, Note_off_c, 0, 70, 68
1, 744551, Note_off_c, 0, 73, 65
1, 744563, Note_off_c, 0, 78, 61
1, 744564, Note_on_c, 0, 72, 103
1, 744566, Note_on_c, 0, 79, 105
1, 744568, Note_on_c, 0, 76, 88
1, 744585, Note_off_c, 0, 76, 75
1, 744591, Note_off_c, 0, 72, 62
1, 744593, Note_off_c, 0, 79, 61
1, 744607, Note_on_c, 0, 78, 91
1, 744611, Note_on_c, 0, 70, 90
1, 744617, Note_on_c, 0, 73, 87
1, 744637, Note_off_c, 0, 70, 62
1, 744640, Note_off_c, 0, 73, 69
1, 744644, Note_on_c, 0, 76, 35
1, 744651, Poly_aftertouch_c, 0, 74, 0
1, 744651, Note_off_c, 0, 78, 64
1, 744655, Note_on_c, 0, 72, 100
1, 744662, Note_on_c, 0, 79, 101
1, 744686, Note_off_c, 0, 79, 65
1, 744687, Note_off_c, 0, 76, 65
1, 744688, Note_off_c, 0, 72, 59
1, 744700, Note_on_c, 0, 78, 99
1, 744704, Note_on_c, 0, 70, 93
1, 744705, Note_on_c, 0, 73, 95
1, 744747, Note_off_c, 0, 73, 65
1, 744749, Note_off_c, 0, 70, 63
1, 744753, Note_off_c, 0, 78, 64
1, 744756, Note_on_c, 0, 72, 98
1, 744760, Note_on_c, 0, 76, 100
1, 744762, Note_on_c, 0, 79, 89
1, 744783, Note_off_c, 0, 76, 62
1, 744794, Note_off_c, 0, 72, 63
1, 744797, Note_on_c, 0, 78, 103
1, 744800, Note_on_c, 0, 73, 98
1, 744801, Note_off_c, 0, 79, 65
1, 744801, Note_on_c, 0, 70, 94
1, 744909, Note_off_c, 0, 78, 63
1, 744911, Note_on_c, 0, 79, 108
1, 744911, Note_on_c, 0, 84, 104
1, 744913, Note_on_c, 0, 91, 98
1, 744913, Note_off_c, 0, 73, 64
1, 744914, Note_on_c, 0, 88, 99
1, 744919, Note_off_c, 0, 70, 59
1, 744931, Note_off_c, 0, 84, 68
1, 744935, Note_off_c, 0, 91, 65
1, 744937, Note_off_c, 0, 88, 68
1, 744939, Note_off_c, 0, 79, 64
1, 744952, Note_on_c, 0, 81, 26
1, 744968, Note_on_c, 0, 78, 100
1, 744971, Note_on_c, 0, 70, 93
1, 744971, Note_on_c, 0, 73, 91
1, 744990, Note_off_c, 0, 81, 56
1, 745007, Note_off_c, 0, 73, 66
1, 745011, Note_on_c, 0, 79, 102
1, 745012, Note_on_c, 0, 84, 88
1, 745012, Note_on_c, 0, 88, 86
1, 745012, Note_on_c, 0, 91, 94
1, 745012, Note_off_c, 0, 70, 65
1, 745016, Note_off_c, 0, 78, 64
1, 745027, Note_off_c, 0, 79, 72
1, 745030, Note_off_c, 0, 84, 71
1, 745033, Note_off_c, 0, 91, 68
1, 745036, Note_off_c, 0, 88, 70
1, 745052, Note_on_c, 0, 89, 40
1, 745053, Note_off_c, 0, 89, 127
1, 745064, Note_on_c, 0, 78, 95
1, 745068, Note_on_c, 0, 73, 96
1, 745069, Note_on_c, 0, 70, 90
1, 745077, Note_on_c, 0, 86, 2
1, 745078, Note_off_c, 0, 86, 127
1, 745102, Note_off_c, 0, 70, 66
1, 745105, Note_on_c, 0, 79, 88
1, 745105, Note_on_c, 0, 84, 90
1, 745106, Note_off_c, 0, 73, 66
1, 745111, Note_on_c, 0, 91, 85
1, 745111, Note_off_c, 0, 78, 64
1, 745112, Note_on_c, 0, 88, 87
1, 745119, Poly_aftertouch_c, 0, 86, 0
1, 745129, Note_off_c, 0, 91, 72
1, 745130, Note_off_c, 0, 79, 67
1, 745130, Note_off_c, 0, 84, 67
1, 745130, Note_off_c, 0, 88, 73
1, 745158, Note_on_c, 0, 78, 93
1, 745164, Note_on_c, 0, 73, 97
1, 745165, Note_on_c, 0, 70, 94
1, 745193, Note_off_c, 0, 70, 63
1, 745196, Note_on_c, 0, 79, 105
1, 745197, Note_on_c, 0, 91, 97
1, 745199, Note_off_c, 0, 73, 67
1, 745200, Note_on_c, 0, 88, 87
1, 745201, Note_on_c, 0, 84, 99
1, 745206, Note_off_c, 0, 78, 64
1, 745218, Note_off_c, 0, 84, 72
1, 745224, Note_off_c, 0, 88, 67
1, 745224, Note_off_c, 0, 91, 63
1, 745231, Note_off_c, 0, 79, 65
1, 745248, Note_on_c, 0, 78, 94
1, 745255, Note_on_c, 0, 70, 97
1, 745257, Note_on_c, 0, 73, 91
1, 745288, Note_on_c, 0, 84, 93
1, 745291, Note_on_c, 0, 79, 102
1, 745293, Note_off_c, 0, 73, 65
1, 745295, Note_on_c, 0, 91, 98
1, 745296, Note_on_c, 0, 88, 90
1, 745296, Note_off_c, 0, 70, 61
1, 745296, Note_off_c, 0, 78, 64
1, 745312, Note_off_c, 0, 91, 68
1, 745316, Note_off_c, 0, 88, 73
1, 745323, Note_off_c, 0, 84, 66
1, 745329, Note_off_c, 0, 79, 62
1, 745343, Note_on_c, 0, 78, 94
1, 745352, Note_on_c, 0, 73, 94
1, 745366, Note_on_c, 0, 70, 56
1, 745384, Note_off_c, 0, 70, 65
1, 745388, Note_on_c, 0, 88, 78
1, 745389, Note_on_c, 0, 79, 99
1, 745389, Note_off_c, 0, 73, 62
1, 745391, Note_on_c, 0, 84, 98
1, 745391, Note_on_c, 0, 91, 89
1, 745391, Note_off_c, 0, 78, 65
1, 745409, Note_off_c, 0, 84, 71
1, 745409, Note_off_c, 0, 91, 69
1, 745421, Note_off_c, 0, 88, 66
1, 745426, Note_off_c, 0, 79, 64
1, 745444, Note_on_c, 0, 78, 100
1, 745446, Note_on_c, 0, 70, 94
1, 745451, Note_on_c, 0, 73, 86
1, 745478, Note_off_c, 0, 73, 69
1, 745491, Note_off_c, 0, 70, 62
1, 745492, Note_on_c, 0, 84, 84
1, 745492, Note_off_c, 0, 78, 65
1, 745493, Note_on_c, 0, 79, 104
1, 745495, Note_on_c, 0, 91, 82
1, 745504, Note_on_c, 0, 88, 88
1, 745515, Note_off_c, 0, 84, 70
1, 745516, Note_off_c, 0, 91, 69
1, 745522, Note_off_c, 0, 88, 72
1, 745525, Note_off_c, 0, 79, 62
1, 745541, Note_on_c, 0, 78, 99
1, 745543, Note_on_c, 0, 73, 97
1, 745546, Note_on_c, 0, 70, 87
1, 745578, Note_off_c, 0, 73, 67
1, 745583, Note_on_c, 0, 88, 30
1, 745585, Note_off_c, 0, 78, 65
1, 745591, Note_on_c, 0, 79, 98
1, 745591, Note_off_c, 0, 70, 61
1, 745591, Note_on_c, 0, 91, 85
1, 745592, Note_on_c, 0, 84, 94
1, 745609, Note_off_c, 0, 84, 68
1, 745609, Note_off_c, 0, 91, 71
1, 745624, Note_off_c, 0, 79, 66
1, 745624, Note_off_c, 0, 88, 67
1, 745633, Note_on_c, 0, 78, 102
1, 745636, Note_on_c, 0, 70, 85
1, 745641, Note_on_c, 0, 73, 90
1, 745677, Note_off_c, 0, 70, 66
1, 745679, Note_off_c, 0, 73, 65
1, 745680, Note_on_c, 0, 84, 91
1, 745681, Note_on_c, 0, 79, 109
1, 745681, Note_on_c, 0, 91, 87
1, 745684, Note_off_c, 0, 78, 65
1, 745691, Note_on_c, 0, 88, 91
1, 745709, Note_off_c, 0, 88, 73
1, 745710, Note_off_c, 0, 91, 61
1, 745712, Note_off_c, 0, 84, 64
1, 745717, Note_off_c, 0, 79, 63
1, 745722, Note_on_c, 0, 78, 100
1, 745725, Note_on_c, 0, 70, 94
1, 745729, Note_on_c, 0, 73, 86
1, 745773, Note_on_c, 0, 88, 55
1, 745777, Note_on_c, 0, 79, 104
1, 745779, Note_on_c, 0, 91, 94
1, 745779, Note_on_c, 0, 84, 95
1, 745792, Note_off_c, 0, 73, 66
1, 745795, Note_off_c, 0, 91, 70
1, 745803, Note_off_c, 0, 70, 64
1, 745804, Note_off_c, 0, 84, 64
1, 745811, Note_off_c, 0, 78, 63
1, 745813, Note_off_c, 0, 79, 66
1, 745815, Note_off_c, 0, 88, 66
1, 745828, Note_on_c, 0, 81, 6
1, 745859, Note_on_c, 0, 79, 101
1, 745860, Note_on_c, 0, 91, 94
1, 745861, Note_on_c, 0, 84, 105
1, 745865, Note_on_c, 0, 88, 87
1, 745872, Note_off_c, 0, 81, 55
1, 745924, Note_off_c, 0, 79, 64
1, 745925, Note_on_c, 0, 89, 1
1, 745931, Note_on_c, 0, 87, 15
1, 745934, Note_off_c, 0, 91, 65
1, 745938, Note_on_c, 0, 78, 95
1, 745946, Note_on_c, 0, 73, 87
1, 745949, Note_off_c, 0, 84, 65
1, 745950, Note_off_c, 0, 87, 46
1, 745961, Note_off_c, 0, 88, 65
1, 745963, Note_on_c, 0, 70, 51
1, 745965, Note_off_c, 0, 78, 64
1, 745966, Note_off_c, 0, 73, 70
1, 745966, Note_off_c, 0, 89, 33
1, 745979, Note_off_c, 0, 70, 68
1, 746026, Poly_aftertouch_c, 0, 69, 127
1, 746047, Poly_aftertouch_c, 0, 69, 0
1, 746129, Note_on_c, 0, 65, 58
1, 746160, Note_on_c, 0, 67, 42
1, 746181, Note_off_c, 0, 65, 62
1, 746197, Note_on_c, 0, 69, 55
1, 746208, Note_off_c, 0, 67, 60
1, 746232, Note_on_c, 0, 71, 63
1, 746240, Note_off_c, 0, 69, 58
1, 746257, Note_off_c, 0, 71, 66
1, 746259, Note_on_c, 0, 72, 69
1, 746283, Note_on_c, 0, 74, 71
1, 746285, Note_off_c, 0, 72, 64
1, 746301, Note_on_c, 0, 76, 81
1, 746309, Note_off_c, 0, 74, 67
1, 746321, Note_on_c, 0, 77, 76
1, 746324, Note_off_c, 0, 76, 66
1, 746342, Note_on_c, 0, 79, 80
1, 746344, Note_off_c, 0, 77, 69
1, 746363, Note_on_c, 0, 81, 80
1, 746366, Note_off_c, 0, 79, 67
1, 746379, Note_off_c, 0, 81, 70
1, 746381, Note_on_c, 0, 83, 82
1, 746399, Note_on_c, 0, 84, 81
1, 746403, Note_off_c, 0, 83, 67
1, 746408, Note_on_c, 0, 76, 4
1, 746417, Note_on_c, 0, 86, 81
1, 746421, Note_off_c, 0, 84, 67
1, 746433, Note_off_c, 0, 86, 68
1, 746434, Note_on_c, 0, 88, 84
1, 746452, Note_on_c, 0, 89, 83
1, 746458, Note_off_c, 0, 88, 68
1, 746466, Note_off_c, 0, 76, 32
1, 746470, Note_on_c, 0, 91, 82
1, 746476, Note_off_c, 0, 89, 67
1, 746484, Note_off_c, 0, 91, 70
1, 746488, Note_on_c, 0, 93, 85
1, 746499, Note_off_c, 0, 93, 70
1, 746503, Note_on_c, 0, 95, 87
1, 746521, Note_off_c, 0, 95, 68
1, 746523, Note_on_c, 0, 96, 81
1, 746536, Note_off_c, 0, 96, 69
1, 746539, Note_on_c, 0, 98, 80
1, 746551, Note_off_c, 0, 98, 70
1, 746554, Poly_aftertouch_c, 0, 84, 0
1, 746560, Note_on_c, 0, 100, 72
1, 746569, Poly_aftertouch_c, 0, 86, 0
1, 746574, Note_off_c, 0, 100, 68
1, 746583, Poly_aftertouch_c, 0, 88, 0
1, 746586, Poly_aftertouch_c, 0, 89, 0
1, 746599, Note_on_c, 0, 95, 4
1, 746610, Note_on_c, 0, 101, 16
1, 746611, Note_off_c, 0, 101, 127
1, 746626, Poly_aftertouch_c, 0, 91, 0
1, 746630, Note_on_c, 0, 90, 108
1, 746631, Note_on_c, 0, 103, 115
1, 746634, Note_on_c, 0, 78, 85
1, 746635, Note_off_c, 0, 95, 39
1, 746637, Note_on_c, 0, 85, 100
1, 746640, Note_on_c, 0, 82, 86
1, 746656, Note_off_c, 0, 78, 69
1, 746661, Note_off_c, 0, 82, 69
1, 746676, Note_off_c, 0, 85, 66
1, 746680, Note_off_c, 0, 90, 69
1, 746914, Note_on_c, 0, 101, 62
1, 746954, Note_off_c, 0, 103, 65
1, 747000, Note_on_c, 0, 100, 66
1, 747038, Note_off_c, 0, 101, 67
1, 747072, Note_on_c, 0, 98, 71
1, 747102, Note_off_c, 0, 100, 67
1, 747133, Note_on_c, 0, 96, 68
1, 747162, Note_off_c, 0, 98, 66
1, 747187, Note_on_c, 0, 95, 71
1, 747217, Note_off_c, 0, 96, 67
1, 747237, Note_on_c, 0, 93, 77
1, 747262, Note_off_c, 0, 95, 68
1, 747278, Note_on_c, 0, 91, 72
1, 747303, Note_off_c, 0, 93, 66
1, 747319, Note_on_c, 0, 89, 75
1, 747342, Note_off_c, 0, 91, 68
1, 747358, Note_on_c, 0, 88, 75
1, 747384, Note_off_c, 0, 89, 67
1, 747396, Note_on_c, 0, 86, 76
1, 747421, Note_off_c, 0, 88, 69
1, 747431, Note_on_c, 0, 84, 81
1, 747452, Note_off_c, 0, 86, 68
1, 747463, Note_on_c, 0, 83, 78
1, 747484, Note_off_c, 0, 84, 69
1, 747497, Note_on_c, 0, 81, 83
1, 747516, Note_off_c, 0, 83, 69
1, 747527, Note_on_c, 0, 79, 85
1, 747543, Note_off_c, 0, 81, 70
1, 747554, Note_on_c, 0, 77, 88
1, 747570, Note_off_c, 0, 79, 70
1, 747579, Note_on_c, 0, 76, 88
1, 747596, Note_off_c, 0, 77, 71
1, 747602, Note_on_c, 0, 74, 87
1, 747620, Note_off_c, 0, 76, 69
1, 747625, Note_on_c, 0, 72, 92
1, 747643, Note_off_c, 0, 74, 70
1, 747647, Note_on_c, 0, 71, 93
1, 747662, Note_off_c, 0, 72, 68
1, 747668, Note_on_c, 0, 69, 94
1, 747683, Note_off_c, 0, 71, 69
1, 747686, Note_on_c, 0, 67, 97
1, 747701, Note_off_c, 0, 69, 71
1, 747704, Note_on_c, 0, 65, 98
1, 747726, Note_off_c, 0, 67, 69
1, 747728, Note_on_c, 0, 64, 97
1, 747743, Note_on_c, 0, 62, 101
1, 747743, Note_off_c, 0, 65, 66
1, 747756, Note_off_c, 0, 64, 65
1, 747758, Note_on_c, 0, 60, 101
1, 747767, Note_off_c, 0, 62, 68
1, 747773, Note_on_c, 0, 59, 96
1, 747782, Note_off_c, 0, 60, 66
1, 747789, Note_on_c, 0, 57, 100
1, 747797, Note_off_c, 0, 59, 70
1, 747803, Note_on_c, 0, 55, 100
1, 747815, Note_off_c, 0, 57, 70
1, 747819, Note_on_c, 0, 53, 93
1, 747833, Note_off_c, 0, 55, 69
1, 747836, Note_on_c, 0, 52, 96
1, 747852, Note_off_c, 0, 53, 66
1, 747853, Note_on_c, 0, 50, 100
1, 747859, Note_off_c, 0, 52, 67
1, 747868, Note_on_c, 0, 48, 103
1, 747871, Note_off_c, 0, 50, 69
1, 747882, Note_on_c, 0, 47, 100
1, 747887, Note_off_c, 0, 48, 68
1, 747894, Note_on_c, 0, 45, 99
1, 747901, Note_off_c, 0, 47, 69
1, 747909, Note_on_c, 0, 43, 100
1, 747918, Note_off_c, 0, 45, 71
1, 747928, Note_on_c, 0, 41, 92
1, 747934, Note_off_c, 0, 43, 68
1, 747949, Note_off_c, 0, 41, 67
1, 748012, Control_c, 0, 64, 82
1, 748026, Note_on_c, 0, 41, 17
1, 748027, Control_c, 0, 64, 64
1, 748042, Poly_aftertouch_c, 0, 30, 0
1, 748042, Control_c, 0, 64, 43
1, 748050, Note_off_c, 0, 41, 51
1, 748057, Control_c, 0, 64, 0
1, 748077, Poly_aftertouch_c, 0, 43, 0
1, 748110, Poly_aftertouch_c, 0, 30, 0
1, 748146, Poly_aftertouch_c, 0, 30, 127
1, 748193, Poly_aftertouch_c, 0, 30, 0
1, 748196, Poly_aftertouch_c, 0, 42, 0
1, 748205, Control_c, 0, 64, 52
1, 748205, Note_on_c, 0, 30, 74
1, 748207, Note_on_c, 0, 40, 77
1, 748211, Note_on_c, 0, 43, 86
1, 748211, Note_on_c, 0, 36, 89
1, 748213, Note_on_c, 0, 42, 83
1, 748214, Note_on_c, 0, 37, 70
1, 748215, Note_on_c, 0, 34, 66
1, 748220, Control_c, 0, 64, 127
1, 748257, Note_on_c, 0, 41, 35
1, 748277, Note_off_c, 0, 43, 63
1, 748286, Note_off_c, 0, 42, 64
1, 748289, Note_off_c, 0, 37, 64
1, 748294, Note_off_c, 0, 30, 64
1, 748294, Note_off_c, 0, 36, 67
1, 748294, Note_off_c, 0, 41, 59
1, 748306, Note_off_c, 0, 34, 63
1, 748313, Note_off_c, 0, 40, 62
1, 748539, Control_c, 0, 64, 82
1, 748554, Control_c, 0, 64, 57
1, 748569, Control_c, 0, 64, 0
1, 748644, End_track
0, 0, End_of_file
