0, 0, Header, 0, 1, 384
1, 0, Start_track
1, 0, Title_t, "BeethovenOp57_1--Teo            "
1, 0, Text_t, "2011 ePiano Junior Competition"
1, 0, Text_t, "captured in spring and summer 2011"
1, 0, Text_t, "http://www.piano-e-competition.com/"
1, 0, Text_t, "standard-resolution version"
1, 0, Text_t, "File processed for distribution with software designed and coded by Dr. John Q. Walker, founder of Zenph Sound Innovations"
1, 0, Instrument_name_t, "Yamaha Disklavier Pro Mark IV concert grand piano, model DCFIIISM4PRO"
1, 0, Sequencer_specific, 39, 67, 113, 0, 1, 0, 1, 0, 66, 101, 101, 116, 104, 111, 118, 101, 110, 32, 79, 112, 53, 55, 32, 32, 84, 114, 105, 115, 116, 97, 110, 32, 84, 101, 111, 32, 32, 32, 32, 32
1, 0, Sequencer_specific, 6, 67, 113, 0, 0, 0, 69
1, 0, System_exclusive, 21, 67, 113, 126, 21, 0, 2, 2, 2, 5, 12, 8, 4, 14, 1, 0, 15, 10, 8, 11, 5, 247
1, 0, Sequencer_specific, 5, 67, 123, 12, 2, 1
1, 0, Tempo, 512820
1, 0, Time_signature, 4, 2, 24, 8
1, 0, System_exclusive, 5, 126, 127, 9, 1, 247
1, 1, System_exclusive, 8, 67, 16, 76, 0, 0, 126, 0, 247
1, 2, System_exclusive, 8, 67, 16, 76, 8, 9, 7, 1, 247
1, 3, Control_c, 0, 0, 108
1, 3, Control_c, 1, 0, 108
1, 3, Control_c, 2, 0, 0
1, 3, Control_c, 3, 0, 0
1, 3, Control_c, 4, 0, 0
1, 3, Control_c, 5, 0, 0
1, 3, Control_c, 6, 0, 0
1, 3, Control_c, 7, 0, 0
1, 3, Control_c, 8, 0, 0
1, 3, Control_c, 9, 0, 127
1, 3, Control_c, 10, 0, 0
1, 3, Control_c, 11, 0, 0
1, 3, Control_c, 12, 0, 0
1, 3, Control_c, 13, 0, 0
1, 3, Control_c, 14, 0, 0
1, 3, Control_c, 15, 0, 0
1, 4, Control_c, 0, 32, 0
1, 4, Control_c, 1, 32, 0
1, 4, Control_c, 2, 32, 0
1, 4, Control_c, 3, 32, 0
1, 4, Control_c, 4, 32, 0
1, 4, Control_c, 5, 32, 0
1, 4, Control_c, 6, 32, 0
1, 4, Control_c, 7, 32, 0
1, 4, Control_c, 8, 32, 0
1, 4, Control_c, 9, 32, 0
1, 4, Control_c, 10, 32, 0
1, 4, Control_c, 11, 32, 0
1, 4, Control_c, 12, 32, 0
1, 4, Control_c, 13, 32, 0
1, 4, Control_c, 14, 32, 0
1, 4, Control_c, 15, 32, 0
1, 5, Program_c, 0, 0
1, 5, Program_c, 1, 0
1, 5, Program_c, 2, 0
1, 5, Program_c, 3, 0
1, 5, Program_c, 4, 0
1, 5, Program_c, 5, 0
1, 5, Program_c, 6, 0
1, 5, Program_c, 7, 0
1, 5, Program_c, 8, 0
1, 5, Program_c, 9, 0
1, 5, Program_c, 10, 0
1, 5, Program_c, 11, 0
1, 5, Program_c, 12, 0
1, 5, Program_c, 13, 0
1, 5, Program_c, 14, 0
1, 5, Program_c, 15, 0
1, 6, Control_c, 0, 7, 100
1, 6, Control_c, 1, 7, 100
1, 6, Control_c, 2, 7, 100
1, 6, Control_c, 3, 7, 100
1, 6, Control_c, 4, 7, 100
1, 6, Control_c, 5, 7, 100
1, 6, Control_c, 6, 7, 100
1, 6, Control_c, 7, 7, 100
1, 6, Control_c, 8, 7, 100
1, 6, Control_c, 9, 7, 100
1, 6, Control_c, 10, 7, 100
1, 6, Control_c, 11, 7, 100
1, 6, Control_c, 12, 7, 100
1, 6, Control_c, 13, 7, 100
1, 6, Control_c, 14, 7, 100
1, 6, Control_c, 15, 7, 100
1, 42, Control_c, 0, 64, 15
1, 42, Control_c, 0, 67, 15
1, 79, Control_c, 0, 64, 31
1, 79, Control_c, 0, 67, 31
1, 116, Control_c, 0, 64, 46
1, 116, Control_c, 0, 67, 46
1, 153, Control_c, 0, 64, 63
1, 153, Control_c, 0, 67, 63
1, 190, Control_c, 0, 64, 77
1, 190, Control_c, 0, 67, 77
1, 226, Control_c, 0, 64, 94
1, 226, Control_c, 0, 67, 94
1, 263, Control_c, 0, 64, 108
1, 263, Control_c, 0, 67, 108
1, 300, Control_c, 0, 64, 127
1, 300, Control_c, 0, 67, 127
1, 386, Note_on_c, 0, 36, 38
1, 388, Note_on_c, 0, 60, 43
1, 445, Note_off_c, 0, 36, 55
1, 451, Note_off_c, 0, 60, 53
1, 721, Note_on_c, 0, 56, 49
1, 726, Note_on_c, 0, 32, 44
1, 784, Control_c, 0, 64, 104
1, 797, Note_off_c, 0, 56, 49
1, 799, Control_c, 0, 64, 90
1, 801, Note_on_c, 0, 53, 51
1, 814, Control_c, 0, 64, 79
1, 828, Note_on_c, 0, 29, 39
1, 829, Control_c, 0, 64, 69
1, 843, Control_c, 0, 64, 62
1, 858, Control_c, 0, 64, 54
1, 873, Control_c, 0, 64, 50
1, 874, Note_off_c, 0, 32, 35
1, 887, Control_c, 0, 64, 48
1, 917, Control_c, 0, 64, 47
1, 932, Control_c, 0, 64, 44
1, 947, Control_c, 0, 64, 38
1, 961, Control_c, 0, 64, 29
1, 976, Control_c, 0, 64, 19
1, 991, Control_c, 0, 64, 0
1, 1518, Control_c, 0, 64, 17
1, 1533, Control_c, 0, 64, 30
1, 1548, Control_c, 0, 64, 42
1, 1563, Control_c, 0, 64, 51
1, 1577, Control_c, 0, 64, 57
1, 1592, Control_c, 0, 64, 60
1, 1607, Control_c, 0, 64, 61
1, 1622, Control_c, 0, 64, 63
1, 1637, Control_c, 0, 64, 63
1, 1651, Control_c, 0, 64, 64
1, 1666, Control_c, 0, 64, 65
1, 1681, Control_c, 0, 64, 66
1, 1696, Control_c, 0, 64, 68
1, 1710, Control_c, 0, 64, 70
1, 1725, Control_c, 0, 64, 72
1, 1740, Control_c, 0, 64, 74
1, 1755, Control_c, 0, 64, 77
1, 1770, Control_c, 0, 64, 81
1, 1784, Control_c, 0, 64, 84
1, 1799, Control_c, 0, 64, 88
1, 1814, Control_c, 0, 64, 91
1, 1829, Control_c, 0, 64, 94
1, 1844, Control_c, 0, 64, 97
1, 1859, Control_c, 0, 64, 99
1, 1873, Control_c, 0, 64, 101
1, 1888, Control_c, 0, 64, 101
1, 1918, Control_c, 0, 64, 102
1, 1948, Control_c, 0, 64, 102
1, 2067, Control_c, 0, 64, 101
1, 2081, Control_c, 0, 64, 100
1, 2096, Control_c, 0, 64, 99
1, 2103, Note_on_c, 0, 56, 48
1, 2111, Control_c, 0, 64, 98
1, 2125, Control_c, 0, 64, 96
1, 2139, Note_on_c, 0, 32, 39
1, 2140, Control_c, 0, 64, 94
1, 2155, Control_c, 0, 64, 93
1, 2170, Control_c, 0, 64, 90
1, 2185, Control_c, 0, 64, 86
1, 2195, Note_off_c, 0, 53, 35
1, 2207, Control_c, 0, 64, 81
1, 2222, Control_c, 0, 64, 75
1, 2237, Control_c, 0, 64, 69
1, 2252, Control_c, 0, 64, 65
1, 2267, Control_c, 0, 64, 62
1, 2270, Note_off_c, 0, 29, 38
1, 2281, Control_c, 0, 64, 60
1, 2296, Control_c, 0, 64, 59
1, 2311, Control_c, 0, 64, 58
1, 2325, Control_c, 0, 64, 58
1, 2340, Control_c, 0, 64, 57
1, 2355, Control_c, 0, 64, 56
1, 2370, Control_c, 0, 64, 54
1, 2385, Control_c, 0, 64, 53
1, 2399, Control_c, 0, 64, 52
1, 2410, Note_on_c, 0, 36, 48
1, 2414, Control_c, 0, 64, 50
1, 2416, Note_on_c, 0, 60, 57
1, 2429, Control_c, 0, 64, 49
1, 2431, Note_off_c, 0, 56, 54
1, 2440, Note_off_c, 0, 32, 51
1, 2444, Control_c, 0, 64, 47
1, 2459, Control_c, 0, 64, 45
1, 2473, Control_c, 0, 64, 42
1, 2488, Control_c, 0, 64, 39
1, 2503, Control_c, 0, 64, 38
1, 2506, Note_on_c, 0, 65, 60
1, 2509, Note_on_c, 0, 41, 52
1, 2514, Note_off_c, 0, 36, 61
1, 2516, Note_off_c, 0, 60, 58
1, 2518, Control_c, 0, 64, 37
1, 2532, Control_c, 0, 64, 35
1, 2548, Control_c, 0, 64, 33
1, 2563, Control_c, 0, 64, 31
1, 2578, Control_c, 0, 64, 30
1, 2593, Control_c, 0, 64, 30
1, 2609, Control_c, 0, 64, 28
1, 2623, Control_c, 0, 64, 27
1, 2638, Control_c, 0, 64, 26
1, 2653, Control_c, 0, 64, 26
1, 2683, Control_c, 0, 64, 25
1, 2756, Control_c, 0, 64, 25
1, 2801, Control_c, 0, 64, 24
1, 2915, Note_on_c, 0, 68, 67
1, 2926, Note_on_c, 0, 44, 49
1, 2958, Note_off_c, 0, 65, 44
1, 2998, Note_off_c, 0, 41, 54
1, 3235, Note_on_c, 0, 72, 60
1, 3239, Note_on_c, 0, 48, 51
1, 3242, Note_off_c, 0, 44, 57
1, 3258, Note_off_c, 0, 68, 61
1, 3268, Control_c, 0, 64, 24
1, 3282, Control_c, 0, 64, 23
1, 3296, Control_c, 0, 64, 22
1, 3311, Control_c, 0, 64, 21
1, 3320, Note_off_c, 0, 72, 62
1, 3322, Note_on_c, 0, 77, 66
1, 3326, Control_c, 0, 64, 20
1, 3341, Control_c, 0, 64, 18
1, 3343, Note_off_c, 0, 48, 57
1, 3349, Note_on_c, 0, 53, 43
1, 3355, Control_c, 0, 64, 17
1, 3370, Control_c, 0, 64, 16
1, 3385, Control_c, 0, 64, 13
1, 3401, Control_c, 0, 64, 12
1, 3416, Control_c, 0, 64, 9
1, 3431, Control_c, 0, 64, 0
1, 3789, Note_on_c, 0, 56, 35
1, 3799, Note_on_c, 0, 65, 44
1, 3823, Note_off_c, 0, 53, 49
1, 3825, Note_off_c, 0, 77, 55
1, 3912, Control_c, 0, 64, 24
1, 3927, Control_c, 0, 64, 39
1, 3942, Control_c, 0, 64, 50
1, 3957, Control_c, 0, 64, 56
1, 3971, Control_c, 0, 64, 60
1, 3986, Control_c, 0, 64, 63
1, 4001, Control_c, 0, 64, 65
1, 4016, Control_c, 0, 64, 68
1, 4031, Control_c, 0, 64, 71
1, 4044, Control_c, 0, 64, 76
1, 4055, Note_off_c, 0, 56, 41
1, 4059, Control_c, 0, 64, 80
1, 4074, Control_c, 0, 64, 86
1, 4089, Control_c, 0, 64, 93
1, 4103, Control_c, 0, 64, 99
1, 4118, Control_c, 0, 64, 104
1, 4133, Control_c, 0, 64, 107
1, 4208, Control_c, 0, 64, 107
1, 4267, Control_c, 0, 64, 107
1, 4270, Note_on_c, 0, 72, 56
1, 4277, Note_on_c, 0, 52, 34
1, 4279, Note_on_c, 0, 55, 28
1, 4282, Control_c, 0, 64, 104
1, 4288, Note_on_c, 0, 60, 42
1, 4297, Control_c, 0, 64, 102
1, 4312, Control_c, 0, 64, 99
1, 4327, Control_c, 0, 64, 95
1, 4341, Control_c, 0, 64, 89
1, 4356, Control_c, 0, 64, 81
1, 4371, Control_c, 0, 64, 71
1, 4386, Control_c, 0, 64, 63
1, 4401, Control_c, 0, 64, 53
1, 4414, Note_off_c, 0, 65, 40
1, 4416, Control_c, 0, 64, 38
1, 4431, Control_c, 0, 64, 25
1, 4453, Control_c, 0, 64, 18
1, 4468, Control_c, 0, 64, 0
1, 4601, Control_c, 0, 64, 9
1, 4616, Control_c, 0, 64, 36
1, 4631, Control_c, 0, 64, 50
1, 4646, Control_c, 0, 64, 58
1, 4660, Control_c, 0, 64, 62
1, 4675, Control_c, 0, 64, 64
1, 4690, Control_c, 0, 64, 67
1, 4705, Control_c, 0, 64, 69
1, 4719, Control_c, 0, 64, 73
1, 4734, Control_c, 0, 64, 78
1, 4749, Control_c, 0, 64, 85
1, 4764, Control_c, 0, 64, 93
1, 4777, Note_off_c, 0, 52, 39
1, 4777, Note_off_c, 0, 60, 38
1, 4779, Control_c, 0, 64, 104
1, 4794, Control_c, 0, 64, 127
1, 4842, Note_off_c, 0, 55, 43
1, 4964, Note_off_c, 0, 72, 55
1, 4976, Note_on_c, 0, 74, 54
1, 5045, Note_off_c, 0, 74, 56
1, 5223, Note_on_c, 0, 72, 54
1, 5239, Note_on_c, 0, 56, 41
1, 5240, Note_on_c, 0, 59, 44
1, 5246, Control_c, 0, 64, 106
1, 5257, Note_on_c, 0, 53, 43
1, 5261, Control_c, 0, 64, 91
1, 5266, Note_off_c, 0, 72, 62
1, 5274, Note_on_c, 0, 74, 61
1, 5276, Control_c, 0, 64, 79
1, 5291, Control_c, 0, 64, 70
1, 5305, Control_c, 0, 64, 62
1, 5317, Note_off_c, 0, 74, 59
1, 5320, Control_c, 0, 64, 51
1, 5335, Control_c, 0, 64, 43
1, 5346, Note_on_c, 0, 76, 57
1, 5349, Control_c, 0, 64, 41
1, 5379, Note_off_c, 0, 76, 65
1, 5379, Control_c, 0, 64, 40
1, 5394, Control_c, 0, 64, 36
1, 5403, Note_on_c, 0, 74, 61
1, 5409, Control_c, 0, 64, 30
1, 5424, Control_c, 0, 64, 23
1, 5435, Note_off_c, 0, 74, 65
1, 5438, Control_c, 0, 64, 20
1, 5453, Control_c, 0, 64, 19
1, 5455, Note_on_c, 0, 76, 67
1, 5468, Control_c, 0, 64, 18
1, 5483, Control_c, 0, 64, 17
1, 5485, Note_off_c, 0, 76, 66
1, 5498, Control_c, 0, 64, 16
1, 5508, Note_on_c, 0, 74, 65
1, 5538, Note_off_c, 0, 74, 64
1, 5556, Note_on_c, 0, 76, 69
1, 5557, Control_c, 0, 64, 17
1, 5572, Control_c, 0, 64, 24
1, 5587, Control_c, 0, 64, 32
1, 5587, Note_off_c, 0, 76, 64
1, 5602, Control_c, 0, 64, 43
1, 5616, Note_on_c, 0, 74, 69
1, 5617, Control_c, 0, 64, 53
1, 5631, Control_c, 0, 64, 60
1, 5646, Control_c, 0, 64, 63
1, 5647, Note_off_c, 0, 74, 63
1, 5661, Control_c, 0, 64, 66
1, 5668, Note_on_c, 0, 76, 73
1, 5676, Control_c, 0, 64, 69
1, 5690, Control_c, 0, 64, 72
1, 5699, Note_off_c, 0, 76, 62
1, 5705, Control_c, 0, 64, 76
1, 5720, Control_c, 0, 64, 80
1, 5733, Note_on_c, 0, 74, 67
1, 5735, Control_c, 0, 64, 83
1, 5757, Note_off_c, 0, 74, 62
1, 5764, Control_c, 0, 64, 81
1, 5779, Control_c, 0, 64, 78
1, 5787, Note_on_c, 0, 76, 72
1, 5793, Note_off_c, 0, 59, 36
1, 5794, Control_c, 0, 64, 75
1, 5810, Control_c, 0, 64, 69
1, 5812, Note_off_c, 0, 53, 57
1, 5824, Note_off_c, 0, 76, 61
1, 5825, Control_c, 0, 64, 63
1, 5839, Control_c, 0, 64, 52
1, 5843, Note_on_c, 0, 74, 62
1, 5854, Control_c, 0, 64, 36
1, 5869, Control_c, 0, 64, 27
1, 5884, Control_c, 0, 64, 24
1, 5886, Note_off_c, 0, 74, 63
1, 5899, Control_c, 0, 64, 16
1, 5913, Control_c, 0, 64, 0
1, 5923, Note_on_c, 0, 72, 62
1, 5923, Note_off_c, 0, 56, 43
1, 5984, Note_off_c, 0, 72, 62
1, 5993, Note_on_c, 0, 76, 65
1, 6043, Note_off_c, 0, 76, 62
1, 6063, Note_on_c, 0, 74, 56
1, 6130, Note_off_c, 0, 74, 56
1, 6148, Note_on_c, 0, 72, 53
1, 6176, Note_on_c, 0, 55, 24
1, 6180, Note_on_c, 0, 60, 34
1, 6187, Note_on_c, 0, 52, 25
1, 6351, Control_c, 0, 64, 26
1, 6366, Control_c, 0, 64, 45
1, 6380, Control_c, 0, 64, 56
1, 6395, Control_c, 0, 64, 61
1, 6410, Control_c, 0, 64, 64
1, 6425, Control_c, 0, 64, 67
1, 6440, Control_c, 0, 64, 69
1, 6455, Control_c, 0, 64, 72
1, 6470, Control_c, 0, 64, 76
1, 6485, Control_c, 0, 64, 79
1, 6499, Control_c, 0, 64, 81
1, 6512, Note_off_c, 0, 60, 37
1, 6514, Control_c, 0, 64, 82
1, 6517, Note_off_c, 0, 72, 32
1, 6539, Note_off_c, 0, 52, 42
1, 6573, Control_c, 0, 64, 81
1, 6582, Note_off_c, 0, 55, 37
1, 6604, Control_c, 0, 64, 81
1, 6619, Control_c, 0, 64, 80
1, 6634, Control_c, 0, 64, 80
1, 6649, Control_c, 0, 64, 79
1, 6663, Control_c, 0, 64, 78
1, 6678, Control_c, 0, 64, 77
1, 6700, Control_c, 0, 64, 76
1, 6715, Control_c, 0, 64, 74
1, 6730, Control_c, 0, 64, 73
1, 6744, Control_c, 0, 64, 71
1, 6759, Control_c, 0, 64, 70
1, 6774, Control_c, 0, 64, 69
1, 6789, Control_c, 0, 64, 67
1, 6804, Control_c, 0, 64, 66
1, 6819, Control_c, 0, 64, 64
1, 6834, Control_c, 0, 64, 63
1, 6848, Control_c, 0, 64, 62
1, 6863, Control_c, 0, 64, 62
1, 6863, Control_c, 0, 67, 126
1, 6878, Control_c, 0, 64, 61
1, 6878, Control_c, 0, 67, 122
1, 6893, Control_c, 0, 64, 60
1, 6893, Control_c, 0, 67, 119
1, 6908, Control_c, 0, 64, 58
1, 6908, Control_c, 0, 67, 116
1, 6922, Control_c, 0, 64, 56
1, 6922, Control_c, 0, 67, 112
1, 6937, Control_c, 0, 64, 55
1, 6937, Control_c, 0, 67, 109
1, 6952, Control_c, 0, 64, 54
1, 6952, Control_c, 0, 67, 105
1, 6967, Control_c, 0, 64, 53
1, 6967, Control_c, 0, 67, 100
1, 6982, Control_c, 0, 64, 51
1, 6982, Control_c, 0, 67, 98
1, 6996, Control_c, 0, 64, 49
1, 6996, Control_c, 0, 67, 96
1, 7011, Control_c, 0, 64, 46
1, 7011, Control_c, 0, 67, 94
1, 7026, Control_c, 0, 64, 40
1, 7026, Control_c, 0, 67, 92
1, 7041, Control_c, 0, 64, 32
1, 7041, Control_c, 0, 67, 89
1, 7056, Control_c, 0, 64, 23
1, 7056, Control_c, 0, 67, 87
1, 7070, Control_c, 0, 64, 16
1, 7070, Control_c, 0, 67, 84
1, 7085, Control_c, 0, 64, 11
1, 7085, Control_c, 0, 67, 82
1, 7100, Control_c, 0, 64, 0
1, 7100, Control_c, 0, 67, 78
1, 7114, Control_c, 0, 67, 74
1, 7129, Control_c, 0, 67, 70
1, 7144, Control_c, 0, 67, 66
1, 7159, Control_c, 0, 67, 63
1, 7174, Control_c, 0, 67, 60
1, 7188, Control_c, 0, 67, 58
1, 7203, Control_c, 0, 67, 56
1, 7218, Control_c, 0, 67, 55
1, 7233, Control_c, 0, 67, 54
1, 7248, Control_c, 0, 67, 53
1, 7263, Control_c, 0, 67, 53
1, 7412, Control_c, 0, 67, 53
1, 7464, Control_c, 0, 67, 54
1, 7538, Control_c, 0, 67, 55
1, 7879, Control_c, 0, 64, 12
1, 7893, Control_c, 0, 64, 26
1, 7901, Note_on_c, 0, 61, 48
1, 7908, Control_c, 0, 64, 42
1, 7913, Note_on_c, 0, 37, 37
1, 7923, Control_c, 0, 64, 53
1, 7937, Control_c, 0, 64, 60
1, 7952, Control_c, 0, 64, 64
1, 7967, Control_c, 0, 64, 67
1, 7982, Control_c, 0, 64, 72
1, 7997, Control_c, 0, 64, 79
1, 8011, Control_c, 0, 64, 90
1, 8024, Note_off_c, 0, 61, 55
1, 8026, Control_c, 0, 64, 111
1, 8026, Control_c, 0, 67, 54
1, 8041, Control_c, 0, 64, 127
1, 8116, Note_off_c, 0, 37, 35
1, 8130, Control_c, 0, 67, 53
1, 8243, Control_c, 0, 67, 54
1, 8257, Control_c, 0, 67, 55
1, 8259, Note_on_c, 0, 58, 51
1, 8260, Note_on_c, 0, 34, 44
1, 8272, Control_c, 0, 67, 56
1, 8287, Control_c, 0, 67, 58
1, 8302, Control_c, 0, 67, 60
1, 8317, Control_c, 0, 64, 100
1, 8317, Control_c, 0, 67, 61
1, 8331, Control_c, 0, 64, 86
1, 8331, Control_c, 0, 67, 62
1, 8346, Control_c, 0, 64, 76
1, 8346, Control_c, 0, 67, 63
1, 8351, Note_on_c, 0, 54, 55
1, 8355, Note_off_c, 0, 58, 55
1, 8361, Control_c, 0, 64, 67
1, 8361, Control_c, 0, 67, 64
1, 8366, Note_on_c, 0, 30, 43
1, 8375, Control_c, 0, 64, 60
1, 8375, Control_c, 0, 67, 65
1, 8390, Control_c, 0, 64, 54
1, 8390, Control_c, 0, 67, 66
1, 8405, Control_c, 0, 64, 53
1, 8405, Control_c, 0, 67, 68
1, 8420, Control_c, 0, 67, 70
1, 8431, Note_off_c, 0, 34, 41
1, 8435, Control_c, 0, 64, 52
1, 8435, Control_c, 0, 67, 71
1, 8449, Control_c, 0, 64, 51
1, 8449, Control_c, 0, 67, 72
1, 8464, Control_c, 0, 64, 47
1, 8464, Control_c, 0, 67, 73
1, 8479, Control_c, 0, 64, 43
1, 8479, Control_c, 0, 67, 74
1, 8494, Control_c, 0, 64, 39
1, 8494, Control_c, 0, 67, 75
1, 8509, Control_c, 0, 64, 36
1, 8509, Control_c, 0, 67, 76
1, 8524, Control_c, 0, 64, 33
1, 8524, Control_c, 0, 67, 77
1, 8538, Control_c, 0, 64, 30
1, 8538, Control_c, 0, 67, 77
1, 8553, Control_c, 0, 64, 25
1, 8553, Control_c, 0, 67, 78
1, 8567, Control_c, 0, 64, 17
1, 8582, Control_c, 0, 64, 0
1, 8582, Control_c, 0, 67, 79
1, 8597, Control_c, 0, 67, 80
1, 8612, Control_c, 0, 67, 80
1, 8627, Control_c, 0, 67, 82
1, 8641, Control_c, 0, 67, 82
1, 8656, Control_c, 0, 67, 83
1, 8671, Control_c, 0, 67, 84
1, 8686, Control_c, 0, 67, 85
1, 8701, Control_c, 0, 67, 87
1, 8774, Control_c, 0, 67, 87
1, 8789, Control_c, 0, 67, 85
1, 8804, Control_c, 0, 67, 85
1, 8819, Control_c, 0, 67, 84
1, 8834, Control_c, 0, 67, 83
1, 8878, Control_c, 0, 67, 83
1, 8908, Control_c, 0, 67, 82
1, 8945, Control_c, 0, 67, 82
1, 8974, Control_c, 0, 67, 81
1, 9005, Control_c, 0, 67, 80
1, 9035, Control_c, 0, 67, 80
1, 9094, Control_c, 0, 67, 79
1, 9124, Control_c, 0, 64, 13
1, 9124, Control_c, 0, 67, 78
1, 9138, Control_c, 0, 64, 28
1, 9138, Control_c, 0, 67, 78
1, 9153, Control_c, 0, 64, 39
1, 9168, Control_c, 0, 64, 48
1, 9168, Control_c, 0, 67, 77
1, 9183, Control_c, 0, 64, 55
1, 9197, Control_c, 0, 64, 58
1, 9197, Control_c, 0, 67, 77
1, 9212, Control_c, 0, 64, 60
1, 9227, Control_c, 0, 64, 62
1, 9227, Control_c, 0, 67, 76
1, 9242, Control_c, 0, 64, 63
1, 9257, Control_c, 0, 64, 64
1, 9272, Control_c, 0, 64, 65
1, 9287, Control_c, 0, 64, 66
1, 9302, Control_c, 0, 64, 68
1, 9317, Control_c, 0, 64, 70
1, 9331, Control_c, 0, 64, 72
1, 9346, Control_c, 0, 64, 74
1, 9361, Control_c, 0, 64, 77
1, 9376, Control_c, 0, 64, 80
1, 9390, Control_c, 0, 64, 83
1, 9405, Control_c, 0, 64, 86
1, 9420, Control_c, 0, 64, 87
1, 9435, Control_c, 0, 64, 88
1, 9538, Control_c, 0, 64, 87
1, 9553, Control_c, 0, 67, 77
1, 9568, Control_c, 0, 64, 87
1, 9582, Control_c, 0, 64, 86
1, 9597, Control_c, 0, 64, 86
1, 9609, Note_on_c, 0, 58, 49
1, 9612, Control_c, 0, 64, 85
1, 9627, Control_c, 0, 64, 84
1, 9633, Note_on_c, 0, 34, 42
1, 9642, Control_c, 0, 64, 82
1, 9642, Control_c, 0, 67, 77
1, 9656, Control_c, 0, 64, 81
1, 9671, Control_c, 0, 64, 77
1, 9694, Control_c, 0, 64, 74
1, 9709, Control_c, 0, 64, 70
1, 9709, Control_c, 0, 67, 78
1, 9723, Control_c, 0, 64, 66
1, 9731, Note_off_c, 0, 54, 37
1, 9738, Control_c, 0, 64, 64
1, 9753, Control_c, 0, 64, 61
1, 9753, Control_c, 0, 67, 78
1, 9768, Control_c, 0, 64, 60
1, 9783, Control_c, 0, 64, 59
1, 9799, Control_c, 0, 64, 59
1, 9806, Note_off_c, 0, 30, 45
1, 9813, Control_c, 0, 64, 58
1, 9828, Control_c, 0, 64, 57
1, 9843, Control_c, 0, 64, 56
1, 9858, Control_c, 0, 64, 55
1, 9858, Control_c, 0, 67, 79
1, 9873, Control_c, 0, 64, 54
1, 9887, Control_c, 0, 64, 54
1, 9902, Control_c, 0, 64, 53
1, 9917, Control_c, 0, 64, 52
1, 9932, Control_c, 0, 64, 51
1, 9939, Note_on_c, 0, 37, 52
1, 9941, Note_on_c, 0, 61, 63
1, 9957, Note_off_c, 0, 58, 59
1, 9963, Note_off_c, 0, 34, 42
1, 9976, Control_c, 0, 64, 51
1, 9991, Control_c, 0, 64, 50
1, 10006, Control_c, 0, 64, 49
1, 10020, Control_c, 0, 64, 48
1, 10024, Note_on_c, 0, 66, 64
1, 10035, Note_on_c, 0, 42, 50
1, 10036, Control_c, 0, 64, 48
1, 10038, Note_off_c, 0, 37, 60
1, 10039, Note_off_c, 0, 61, 59
1, 10051, Control_c, 0, 64, 47
1, 10066, Control_c, 0, 64, 46
1, 10081, Control_c, 0, 64, 46
1, 10095, Control_c, 0, 64, 45
1, 10110, Control_c, 0, 64, 45
1, 10125, Control_c, 0, 64, 44
1, 10140, Control_c, 0, 64, 44
1, 10155, Control_c, 0, 64, 43
1, 10169, Control_c, 0, 64, 43
1, 10199, Control_c, 0, 64, 42
1, 10214, Control_c, 0, 64, 42
1, 10229, Control_c, 0, 64, 41
1, 10244, Control_c, 0, 64, 40
1, 10259, Control_c, 0, 64, 39
1, 10273, Control_c, 0, 64, 38
1, 10288, Control_c, 0, 64, 37
1, 10303, Control_c, 0, 64, 36
1, 10318, Control_c, 0, 64, 35
1, 10332, Control_c, 0, 64, 34
1, 10347, Control_c, 0, 64, 33
1, 10362, Control_c, 0, 64, 32
1, 10377, Control_c, 0, 64, 31
1, 10392, Control_c, 0, 64, 31
1, 10406, Control_c, 0, 64, 30
1, 10409, Note_on_c, 0, 70, 73
1, 10421, Control_c, 0, 64, 29
1, 10429, Note_on_c, 0, 46, 50
1, 10443, Control_c, 0, 64, 28
1, 10458, Control_c, 0, 64, 27
1, 10459, Note_off_c, 0, 66, 54
1, 10473, Control_c, 0, 64, 27
1, 10473, Control_c, 0, 67, 80
1, 10488, Control_c, 0, 64, 26
1, 10503, Control_c, 0, 64, 26
1, 10503, Control_c, 0, 67, 80
1, 10518, Control_c, 0, 64, 25
1, 10533, Control_c, 0, 64, 24
1, 10547, Control_c, 0, 64, 24
1, 10560, Note_off_c, 0, 42, 42
1, 10562, Control_c, 0, 64, 23
1, 10562, Control_c, 0, 67, 81
1, 10577, Control_c, 0, 64, 23
1, 10592, Control_c, 0, 64, 22
1, 10592, Control_c, 0, 67, 82
1, 10607, Control_c, 0, 64, 21
1, 10622, Control_c, 0, 64, 21
1, 10652, Control_c, 0, 64, 20
1, 10682, Control_c, 0, 64, 19
1, 10711, Control_c, 0, 64, 18
1, 10721, Note_on_c, 0, 73, 73
1, 10722, Note_off_c, 0, 46, 57
1, 10724, Note_on_c, 0, 49, 50
1, 10726, Control_c, 0, 64, 17
1, 10741, Control_c, 0, 64, 16
1, 10756, Control_c, 0, 64, 13
1, 10761, Note_off_c, 0, 70, 60
1, 10770, Control_c, 0, 64, 11
1, 10785, Control_c, 0, 64, 0
1, 10826, Note_on_c, 0, 78, 71
1, 10834, Note_off_c, 0, 49, 59
1, 10837, Note_on_c, 0, 54, 51
1, 10844, Control_c, 0, 67, 82
1, 10859, Control_c, 0, 67, 83
1, 10864, Note_off_c, 0, 73, 57
1, 10874, Control_c, 0, 67, 83
1, 10889, Control_c, 0, 67, 84
1, 10904, Control_c, 0, 67, 85
1, 10918, Control_c, 0, 67, 86
1, 10933, Control_c, 0, 67, 87
1, 10948, Control_c, 0, 67, 88
1, 10962, Control_c, 0, 67, 89
1, 10977, Control_c, 0, 67, 90
1, 10992, Control_c, 0, 67, 91
1, 11007, Control_c, 0, 67, 92
1, 11022, Control_c, 0, 67, 94
1, 11037, Control_c, 0, 67, 103
1, 11051, Control_c, 0, 67, 112
1, 11066, Control_c, 0, 67, 118
1, 11081, Control_c, 0, 67, 125
1, 11096, Control_c, 0, 67, 127
1, 11272, Note_on_c, 0, 66, 55
1, 11283, Note_off_c, 0, 78, 59
1, 11286, Note_on_c, 0, 58, 41
1, 11312, Note_off_c, 0, 54, 35
1, 11430, Control_c, 0, 64, 24
1, 11445, Control_c, 0, 64, 47
1, 11460, Control_c, 0, 64, 57
1, 11475, Control_c, 0, 64, 62
1, 11490, Control_c, 0, 64, 65
1, 11505, Control_c, 0, 64, 69
1, 11519, Control_c, 0, 64, 74
1, 11534, Control_c, 0, 64, 81
1, 11549, Control_c, 0, 64, 93
1, 11557, Note_off_c, 0, 58, 50
1, 11564, Control_c, 0, 64, 105
1, 11579, Control_c, 0, 64, 127
1, 11741, Control_c, 0, 64, 114
1, 11756, Control_c, 0, 64, 105
1, 11761, Note_on_c, 0, 73, 60
1, 11771, Control_c, 0, 64, 94
1, 11785, Control_c, 0, 64, 82
1, 11789, Note_on_c, 0, 56, 39
1, 11791, Note_on_c, 0, 61, 33
1, 11800, Note_on_c, 0, 53, 38
1, 11800, Control_c, 0, 64, 71
1, 11815, Control_c, 0, 64, 62
1, 11829, Note_off_c, 0, 66, 48
1, 11830, Control_c, 0, 64, 52
1, 11845, Control_c, 0, 64, 41
1, 11859, Control_c, 0, 64, 34
1, 11874, Control_c, 0, 64, 28
1, 11889, Control_c, 0, 64, 19
1, 11904, Control_c, 0, 64, 0
1, 12163, Control_c, 0, 64, 20
1, 12178, Control_c, 0, 64, 41
1, 12194, Control_c, 0, 64, 54
1, 12208, Control_c, 0, 64, 59
1, 12223, Control_c, 0, 64, 63
1, 12238, Control_c, 0, 64, 65
1, 12253, Control_c, 0, 64, 66
1, 12268, Control_c, 0, 64, 69
1, 12268, Control_c, 0, 67, 126
1, 12282, Control_c, 0, 64, 73
1, 12282, Control_c, 0, 67, 125
1, 12297, Control_c, 0, 64, 79
1, 12297, Control_c, 0, 67, 124
1, 12312, Control_c, 0, 64, 87
1, 12312, Control_c, 0, 67, 122
1, 12327, Control_c, 0, 64, 99
1, 12327, Control_c, 0, 67, 121
1, 12327, Note_off_c, 0, 53, 41
1, 12342, Control_c, 0, 64, 121
1, 12342, Control_c, 0, 67, 117
1, 12356, Control_c, 0, 64, 127
1, 12356, Control_c, 0, 67, 109
1, 12371, Control_c, 0, 67, 102
1, 12386, Control_c, 0, 67, 94
1, 12401, Control_c, 0, 67, 87
1, 12407, Note_off_c, 0, 56, 42
1, 12414, Note_off_c, 0, 61, 41
1, 12415, Control_c, 0, 67, 79
1, 12430, Control_c, 0, 67, 73
1, 12445, Control_c, 0, 67, 67
1, 12460, Control_c, 0, 67, 63
1, 12474, Note_on_c, 0, 75, 63
1, 12475, Control_c, 0, 67, 60
1, 12479, Note_off_c, 0, 73, 60
1, 12489, Control_c, 0, 67, 60
1, 12524, Note_off_c, 0, 75, 60
1, 12593, Control_c, 0, 67, 60
1, 12608, Control_c, 0, 67, 61
1, 12622, Control_c, 0, 67, 61
1, 12637, Control_c, 0, 67, 62
1, 12652, Control_c, 0, 67, 63
1, 12667, Control_c, 0, 64, 103
1, 12667, Control_c, 0, 67, 65
1, 12689, Control_c, 0, 64, 88
1, 12689, Control_c, 0, 67, 66
1, 12704, Control_c, 0, 64, 76
1, 12704, Control_c, 0, 67, 67
1, 12711, Note_on_c, 0, 73, 60
1, 12719, Control_c, 0, 64, 67
1, 12723, Note_on_c, 0, 54, 40
1, 12725, Note_on_c, 0, 60, 39
1, 12726, Note_on_c, 0, 57, 41
1, 12734, Control_c, 0, 64, 59
1, 12734, Control_c, 0, 67, 68
1, 12749, Control_c, 0, 64, 47
1, 12749, Control_c, 0, 67, 70
1, 12763, Control_c, 0, 64, 38
1, 12763, Control_c, 0, 67, 71
1, 12778, Control_c, 0, 64, 37
1, 12778, Control_c, 0, 67, 72
1, 12780, Note_off_c, 0, 73, 61
1, 12784, Note_on_c, 0, 75, 68
1, 12793, Control_c, 0, 67, 72
1, 12807, Control_c, 0, 64, 37
1, 12822, Control_c, 0, 64, 35
1, 12837, Control_c, 0, 64, 30
1, 12849, Note_off_c, 0, 75, 64
1, 12852, Control_c, 0, 64, 18
1, 12859, Note_on_c, 0, 77, 64
1, 12867, Control_c, 0, 64, 0
1, 12907, Note_off_c, 0, 77, 59
1, 12923, Note_on_c, 0, 75, 64
1, 12926, Control_c, 0, 67, 72
1, 12956, Control_c, 0, 67, 71
1, 12964, Note_off_c, 0, 75, 62
1, 12984, Note_on_c, 0, 77, 64
1, 13020, Note_off_c, 0, 77, 61
1, 13031, Control_c, 0, 67, 70
1, 13046, Note_on_c, 0, 75, 67
1, 13076, Control_c, 0, 67, 70
1, 13078, Note_off_c, 0, 75, 63
1, 13105, Note_on_c, 0, 77, 66
1, 13105, Control_c, 0, 67, 69
1, 13120, Control_c, 0, 67, 68
1, 13137, Note_off_c, 0, 77, 64
1, 13165, Control_c, 0, 67, 68
1, 13168, Note_on_c, 0, 75, 68
1, 13179, Control_c, 0, 67, 66
1, 13194, Control_c, 0, 67, 65
1, 13197, Note_off_c, 0, 75, 64
1, 13209, Control_c, 0, 67, 64
1, 13219, Note_on_c, 0, 77, 68
1, 13224, Control_c, 0, 67, 63
1, 13238, Control_c, 0, 67, 61
1, 13253, Control_c, 0, 67, 60
1, 13268, Control_c, 0, 64, 35
1, 13268, Control_c, 0, 67, 59
1, 13278, Note_off_c, 0, 77, 59
1, 13283, Control_c, 0, 64, 52
1, 13283, Control_c, 0, 67, 58
1, 13298, Control_c, 0, 64, 60
1, 13298, Control_c, 0, 67, 57
1, 13299, Note_on_c, 0, 75, 68
1, 13312, Control_c, 0, 64, 65
1, 13312, Control_c, 0, 67, 56
1, 13327, Control_c, 0, 64, 68
1, 13327, Control_c, 0, 67, 56
1, 13342, Note_off_c, 0, 75, 62
1, 13342, Control_c, 0, 64, 71
1, 13356, Control_c, 0, 64, 72
1, 13359, Note_off_c, 0, 60, 62
1, 13360, Note_on_c, 0, 77, 75
1, 13371, Control_c, 0, 64, 70
1, 13371, Control_c, 0, 67, 58
1, 13374, Note_off_c, 0, 54, 57
1, 13386, Control_c, 0, 64, 69
1, 13386, Control_c, 0, 67, 61
1, 13401, Control_c, 0, 64, 66
1, 13401, Control_c, 0, 67, 65
1, 13416, Control_c, 0, 64, 62
1, 13416, Control_c, 0, 67, 69
1, 13418, Note_off_c, 0, 77, 62
1, 13421, Note_off_c, 0, 57, 60
1, 13436, Note_on_c, 0, 75, 73
1, 13438, Control_c, 0, 64, 55
1, 13438, Control_c, 0, 67, 73
1, 13453, Control_c, 0, 64, 43
1, 13453, Control_c, 0, 67, 78
1, 13468, Control_c, 0, 64, 27
1, 13468, Control_c, 0, 67, 82
1, 13483, Control_c, 0, 64, 9
1, 13483, Control_c, 0, 67, 85
1, 13490, Note_off_c, 0, 75, 58
1, 13498, Control_c, 0, 64, 0
1, 13498, Control_c, 0, 67, 88
1, 13505, Note_on_c, 0, 73, 71
1, 13512, Control_c, 0, 67, 93
1, 13527, Control_c, 0, 67, 105
1, 13542, Control_c, 0, 67, 119
1, 13544, Note_off_c, 0, 73, 64
1, 13556, Control_c, 0, 67, 127
1, 13565, Note_on_c, 0, 77, 69
1, 13631, Note_off_c, 0, 77, 62
1, 13634, Note_on_c, 0, 75, 67
1, 13725, Note_off_c, 0, 75, 56
1, 13735, Note_on_c, 0, 73, 45
1, 13752, Note_on_c, 0, 61, 34
1, 13755, Note_on_c, 0, 56, 35
1, 13757, Note_on_c, 0, 53, 36
1, 13943, Control_c, 0, 64, 30
1, 13958, Control_c, 0, 64, 48
1, 13973, Control_c, 0, 64, 56
1, 13987, Control_c, 0, 64, 60
1, 14002, Control_c, 0, 64, 63
1, 14017, Control_c, 0, 64, 64
1, 14032, Control_c, 0, 64, 65
1, 14047, Control_c, 0, 64, 67
1, 14061, Control_c, 0, 64, 69
1, 14076, Control_c, 0, 64, 72
1, 14091, Control_c, 0, 64, 75
1, 14106, Control_c, 0, 64, 79
1, 14121, Control_c, 0, 64, 82
1, 14127, Note_off_c, 0, 73, 61
1, 14135, Control_c, 0, 64, 85
1, 14135, Control_c, 0, 67, 118
1, 14149, Note_off_c, 0, 53, 34
1, 14150, Control_c, 0, 64, 85
1, 14150, Control_c, 0, 67, 107
1, 14165, Control_c, 0, 67, 95
1, 14166, Note_off_c, 0, 61, 34
1, 14187, Control_c, 0, 67, 84
1, 14199, Note_off_c, 0, 56, 32
1, 14202, Control_c, 0, 67, 75
1, 14217, Control_c, 0, 67, 66
1, 14232, Control_c, 0, 64, 85
1, 14232, Control_c, 0, 67, 61
1, 14247, Control_c, 0, 64, 84
1, 14247, Control_c, 0, 67, 58
1, 14261, Control_c, 0, 64, 84
1, 14261, Control_c, 0, 67, 56
1, 14276, Control_c, 0, 64, 83
1, 14276, Control_c, 0, 67, 55
1, 14291, Control_c, 0, 64, 83
1, 14291, Control_c, 0, 67, 53
1, 14306, Control_c, 0, 64, 82
1, 14306, Control_c, 0, 67, 52
1, 14321, Control_c, 0, 64, 81
1, 14321, Control_c, 0, 67, 51
1, 14335, Control_c, 0, 64, 79
1, 14335, Control_c, 0, 67, 50
1, 14350, Control_c, 0, 64, 76
1, 14350, Control_c, 0, 67, 50
1, 14365, Control_c, 0, 64, 72
1, 14365, Control_c, 0, 67, 48
1, 14379, Control_c, 0, 64, 69
1, 14379, Control_c, 0, 67, 48
1, 14394, Control_c, 0, 64, 66
1, 14394, Control_c, 0, 67, 47
1, 14409, Control_c, 0, 64, 64
1, 14424, Control_c, 0, 64, 63
1, 14424, Control_c, 0, 67, 46
1, 14439, Control_c, 0, 64, 61
1, 14453, Control_c, 0, 64, 60
1, 14468, Control_c, 0, 64, 60
1, 14483, Control_c, 0, 64, 59
1, 14483, Control_c, 0, 67, 46
1, 14498, Control_c, 0, 64, 58
1, 14513, Control_c, 0, 64, 57
1, 14527, Control_c, 0, 64, 55
1, 14542, Control_c, 0, 64, 54
1, 14557, Control_c, 0, 64, 53
1, 14572, Control_c, 0, 64, 52
1, 14587, Control_c, 0, 64, 51
1, 14602, Control_c, 0, 64, 49
1, 14617, Control_c, 0, 64, 46
1, 14632, Control_c, 0, 64, 44
1, 14646, Control_c, 0, 64, 42
1, 14646, Control_c, 0, 67, 45
1, 14661, Control_c, 0, 64, 42
1, 14691, Control_c, 0, 64, 41
1, 14706, Control_c, 0, 64, 40
1, 14721, Control_c, 0, 64, 38
1, 14736, Control_c, 0, 64, 36
1, 14750, Control_c, 0, 64, 34
1, 14765, Control_c, 0, 64, 32
1, 14780, Control_c, 0, 64, 32
1, 14795, Control_c, 0, 64, 30
1, 14809, Control_c, 0, 64, 30
1, 14824, Control_c, 0, 64, 28
1, 14839, Control_c, 0, 64, 27
1, 14854, Control_c, 0, 64, 26
1, 14869, Control_c, 0, 64, 25
1, 14898, Control_c, 0, 64, 25
1, 14913, Control_c, 0, 64, 24
1, 14980, Control_c, 0, 64, 24
1, 15157, Control_c, 0, 67, 46
1, 15305, Control_c, 0, 67, 46
1, 15827, Note_on_c, 0, 72, 47
1, 15841, Note_on_c, 0, 67, 34
1, 15853, Note_on_c, 0, 64, 33
1, 16069, Control_c, 0, 64, 25
1, 16084, Control_c, 0, 64, 29
1, 16098, Control_c, 0, 64, 35
1, 16113, Control_c, 0, 64, 42
1, 16128, Control_c, 0, 64, 49
1, 16143, Control_c, 0, 64, 55
1, 16158, Control_c, 0, 64, 59
1, 16158, Control_c, 0, 67, 46
1, 16174, Control_c, 0, 64, 61
1, 16189, Control_c, 0, 64, 64
1, 16189, Control_c, 0, 67, 45
1, 16203, Control_c, 0, 64, 66
1, 16218, Control_c, 0, 64, 68
1, 16218, Control_c, 0, 67, 45
1, 16233, Control_c, 0, 64, 72
1, 16247, Control_c, 0, 64, 76
1, 16247, Control_c, 0, 67, 44
1, 16262, Control_c, 0, 64, 82
1, 16277, Control_c, 0, 64, 90
1, 16292, Control_c, 0, 64, 104
1, 16307, Control_c, 0, 64, 127
1, 16321, Note_off_c, 0, 64, 38
1, 16322, Control_c, 0, 67, 45
1, 16342, Note_off_c, 0, 67, 47
1, 16352, Control_c, 0, 67, 45
1, 16353, Note_off_c, 0, 72, 31
1, 16426, Note_on_c, 0, 74, 63
1, 16462, Control_c, 0, 67, 46
1, 16471, Note_off_c, 0, 74, 59
1, 16611, Control_c, 0, 67, 46
1, 16636, Note_on_c, 0, 72, 60
1, 16653, Note_on_c, 0, 71, 61
1, 16659, Note_on_c, 0, 65, 54
1, 16668, Note_on_c, 0, 68, 49
1, 16670, Control_c, 0, 64, 100
1, 16681, Note_off_c, 0, 72, 62
1, 16685, Control_c, 0, 64, 86
1, 16686, Note_on_c, 0, 74, 71
1, 16700, Control_c, 0, 64, 74
1, 16715, Control_c, 0, 64, 65
1, 16729, Control_c, 0, 64, 55
1, 16744, Note_off_c, 0, 74, 58
1, 16744, Control_c, 0, 64, 42
1, 16759, Control_c, 0, 64, 35
1, 16769, Note_on_c, 0, 76, 62
1, 16774, Control_c, 0, 64, 34
1, 16788, Control_c, 0, 64, 31
1, 16799, Note_off_c, 0, 76, 64
1, 16803, Control_c, 0, 64, 23
1, 16818, Control_c, 0, 64, 0
1, 16821, Note_on_c, 0, 74, 70
1, 16848, Control_c, 0, 67, 47
1, 16860, Note_off_c, 0, 74, 63
1, 16873, Note_on_c, 0, 76, 68
1, 16906, Note_off_c, 0, 76, 64
1, 16927, Note_on_c, 0, 74, 73
1, 16963, Note_off_c, 0, 74, 64
1, 16966, Control_c, 0, 67, 48
1, 16982, Control_c, 0, 64, 28
1, 16992, Note_on_c, 0, 76, 64
1, 16997, Control_c, 0, 64, 50
1, 16997, Control_c, 0, 67, 48
1, 17012, Control_c, 0, 64, 60
1, 17012, Control_c, 0, 67, 50
1, 17023, Note_off_c, 0, 76, 66
1, 17026, Control_c, 0, 64, 64
1, 17026, Control_c, 0, 67, 50
1, 17041, Control_c, 0, 64, 68
1, 17041, Control_c, 0, 67, 52
1, 17049, Note_on_c, 0, 74, 71
1, 17056, Control_c, 0, 64, 70
1, 17056, Control_c, 0, 67, 54
1, 17070, Control_c, 0, 64, 71
1, 17070, Control_c, 0, 67, 56
1, 17077, Note_off_c, 0, 74, 67
1, 17085, Control_c, 0, 64, 70
1, 17085, Control_c, 0, 67, 58
1, 17096, Note_on_c, 0, 76, 68
1, 17100, Control_c, 0, 64, 69
1, 17100, Control_c, 0, 67, 61
1, 17115, Control_c, 0, 64, 68
1, 17115, Control_c, 0, 67, 66
1, 17122, Note_off_c, 0, 76, 67
1, 17130, Control_c, 0, 64, 65
1, 17130, Control_c, 0, 67, 70
1, 17144, Control_c, 0, 64, 59
1, 17144, Control_c, 0, 67, 74
1, 17158, Note_on_c, 0, 74, 74
1, 17159, Control_c, 0, 64, 47
1, 17159, Control_c, 0, 67, 78
1, 17182, Control_c, 0, 64, 29
1, 17182, Control_c, 0, 67, 89
1, 17190, Note_off_c, 0, 65, 56
1, 17197, Control_c, 0, 64, 0
1, 17197, Control_c, 0, 67, 112
1, 17203, Note_off_c, 0, 74, 63
1, 17210, Note_off_c, 0, 71, 55
1, 17211, Control_c, 0, 67, 127
1, 17216, Note_off_c, 0, 68, 57
1, 17238, Note_on_c, 0, 72, 65
1, 17289, Note_off_c, 0, 72, 63
1, 17305, Note_on_c, 0, 76, 66
1, 17354, Note_off_c, 0, 76, 64
1, 17375, Note_on_c, 0, 74, 60
1, 17412, Note_off_c, 0, 74, 62
1, 17466, Note_on_c, 0, 72, 55
1, 17476, Note_on_c, 0, 67, 35
1, 17477, Note_on_c, 0, 64, 41
1, 17493, Control_c, 0, 64, 31
1, 17507, Note_off_c, 0, 72, 62
1, 17508, Control_c, 0, 64, 56
1, 17523, Control_c, 0, 64, 64
1, 17533, Note_off_c, 0, 67, 61
1, 17538, Control_c, 0, 64, 70
1, 17552, Note_off_c, 0, 64, 60
1, 17553, Control_c, 0, 64, 76
1, 17568, Control_c, 0, 64, 85
1, 17583, Control_c, 0, 64, 94
1, 17598, Control_c, 0, 64, 108
1, 17612, Control_c, 0, 64, 127
1, 17686, Control_c, 0, 64, 117
1, 17701, Control_c, 0, 64, 112
1, 17716, Control_c, 0, 64, 107
1, 17731, Control_c, 0, 64, 103
1, 17746, Control_c, 0, 64, 98
1, 17760, Control_c, 0, 64, 91
1, 17776, Control_c, 0, 64, 82
1, 17791, Control_c, 0, 64, 73
1, 17806, Control_c, 0, 64, 66
1, 17820, Control_c, 0, 64, 60
1, 17835, Control_c, 0, 64, 51
1, 17850, Control_c, 0, 64, 43
1, 17865, Control_c, 0, 64, 41
1, 17880, Control_c, 0, 64, 38
1, 17894, Control_c, 0, 64, 32
1, 17898, Note_on_c, 0, 37, 62
1, 17909, Control_c, 0, 64, 17
1, 17931, Control_c, 0, 64, 0
1, 17939, Note_off_c, 0, 37, 62
1, 18018, Note_on_c, 0, 37, 52
1, 18049, Note_off_c, 0, 37, 61
1, 18142, Note_on_c, 0, 37, 47
1, 18204, Note_off_c, 0, 37, 56
1, 18304, Note_on_c, 0, 36, 41
1, 18450, Control_c, 0, 64, 24
1, 18465, Control_c, 0, 64, 44
1, 18480, Control_c, 0, 64, 57
1, 18495, Control_c, 0, 64, 63
1, 18509, Control_c, 0, 64, 66
1, 18524, Control_c, 0, 64, 69
1, 18531, Note_off_c, 0, 36, 56
1, 18539, Control_c, 0, 64, 73
1, 18554, Control_c, 0, 64, 78
1, 18569, Control_c, 0, 64, 84
1, 18584, Control_c, 0, 64, 92
1, 18599, Control_c, 0, 64, 100
1, 18614, Control_c, 0, 64, 108
1, 18629, Control_c, 0, 64, 110
1, 18658, Control_c, 0, 64, 108
1, 18680, Control_c, 0, 64, 107
1, 18695, Control_c, 0, 64, 106
1, 18710, Control_c, 0, 64, 104
1, 18724, Control_c, 0, 64, 101
1, 18739, Control_c, 0, 64, 99
1, 18754, Control_c, 0, 64, 95
1, 18769, Control_c, 0, 64, 91
1, 18784, Control_c, 0, 64, 85
1, 18799, Control_c, 0, 64, 78
1, 18814, Control_c, 0, 64, 70
1, 18829, Control_c, 0, 64, 65
1, 18844, Control_c, 0, 64, 61
1, 18858, Control_c, 0, 64, 57
1, 18873, Control_c, 0, 64, 55
1, 18888, Control_c, 0, 64, 55
1, 18903, Control_c, 0, 64, 54
1, 18918, Control_c, 0, 64, 52
1, 18932, Control_c, 0, 64, 49
1, 18947, Control_c, 0, 64, 46
1, 18962, Control_c, 0, 64, 42
1, 18977, Control_c, 0, 64, 40
1, 18992, Control_c, 0, 64, 38
1, 19006, Control_c, 0, 64, 37
1, 19020, Control_c, 0, 64, 36
1, 19035, Control_c, 0, 64, 35
1, 19049, Control_c, 0, 64, 34
1, 19064, Control_c, 0, 64, 34
1, 19079, Control_c, 0, 64, 33
1, 19094, Control_c, 0, 64, 33
1, 19109, Control_c, 0, 64, 32
1, 19124, Control_c, 0, 64, 31
1, 19139, Control_c, 0, 64, 31
1, 19168, Control_c, 0, 64, 30
1, 19346, Control_c, 0, 64, 30
1, 19377, Control_c, 0, 64, 29
1, 19382, Note_on_c, 0, 76, 74
1, 19395, Note_on_c, 0, 73, 50
1, 19398, Note_on_c, 0, 70, 46
1, 19403, Note_on_c, 0, 67, 48
1, 19407, Control_c, 0, 64, 29
1, 19428, Control_c, 0, 64, 28
1, 19443, Control_c, 0, 64, 28
1, 19458, Control_c, 0, 64, 27
1, 19473, Control_c, 0, 64, 26
1, 19487, Control_c, 0, 64, 25
1, 19502, Control_c, 0, 64, 23
1, 19517, Control_c, 0, 64, 21
1, 19532, Control_c, 0, 64, 21
1, 19547, Control_c, 0, 64, 20
1, 19607, Control_c, 0, 64, 21
1, 19621, Control_c, 0, 64, 27
1, 19636, Control_c, 0, 64, 36
1, 19651, Control_c, 0, 64, 48
1, 19666, Control_c, 0, 64, 56
1, 19680, Control_c, 0, 64, 61
1, 19695, Control_c, 0, 64, 64
1, 19710, Control_c, 0, 64, 67
1, 19725, Control_c, 0, 64, 70
1, 19740, Control_c, 0, 64, 75
1, 19754, Control_c, 0, 64, 81
1, 19769, Control_c, 0, 64, 89
1, 19769, Control_c, 0, 67, 119
1, 19784, Note_off_c, 0, 76, 55
1, 19784, Control_c, 0, 64, 100
1, 19784, Control_c, 0, 67, 109
1, 19798, Control_c, 0, 64, 123
1, 19798, Control_c, 0, 67, 100
1, 19813, Control_c, 0, 64, 127
1, 19813, Control_c, 0, 67, 93
1, 19828, Control_c, 0, 67, 86
1, 19843, Control_c, 0, 67, 80
1, 19858, Control_c, 0, 67, 74
1, 19869, Note_off_c, 0, 73, 35
1, 19872, Control_c, 0, 67, 69
1, 19887, Control_c, 0, 67, 64
1, 19902, Note_off_c, 0, 70, 38
1, 19902, Control_c, 0, 67, 60
1, 19917, Control_c, 0, 67, 55
1, 19932, Control_c, 0, 67, 48
1, 19946, Control_c, 0, 67, 42
1, 19961, Control_c, 0, 67, 34
1, 19976, Control_c, 0, 67, 25
1, 19991, Control_c, 0, 67, 16
1, 20006, Control_c, 0, 67, 0
1, 20084, Note_on_c, 0, 77, 92
1, 20137, Note_off_c, 0, 77, 64
1, 20355, Control_c, 0, 64, 108
1, 20357, Note_on_c, 0, 79, 81
1, 20359, Note_on_c, 0, 73, 69
1, 20368, Note_on_c, 0, 68, 71
1, 20370, Control_c, 0, 64, 89
1, 20371, Note_on_c, 0, 70, 63
1, 20379, Note_off_c, 0, 67, 61
1, 20385, Control_c, 0, 64, 73
1, 20400, Control_c, 0, 64, 60
1, 20414, Control_c, 0, 64, 35
1, 20429, Control_c, 0, 64, 0
1, 20434, Note_off_c, 0, 79, 63
1, 20451, Note_on_c, 0, 77, 77
1, 20507, Note_off_c, 0, 77, 61
1, 20525, Note_on_c, 0, 79, 73
1, 20548, Control_c, 0, 64, 18
1, 20553, Note_off_c, 0, 79, 65
1, 20563, Control_c, 0, 64, 41
1, 20577, Control_c, 0, 64, 56
1, 20581, Note_on_c, 0, 77, 77
1, 20592, Control_c, 0, 64, 62
1, 20607, Control_c, 0, 64, 64
1, 20621, Control_c, 0, 64, 66
1, 20632, Note_off_c, 0, 77, 60
1, 20636, Control_c, 0, 64, 68
1, 20643, Note_on_c, 0, 79, 72
1, 20651, Control_c, 0, 64, 69
1, 20666, Control_c, 0, 64, 70
1, 20669, Note_off_c, 0, 79, 67
1, 20693, Note_on_c, 0, 77, 78
1, 20725, Control_c, 0, 64, 69
1, 20739, Note_off_c, 0, 77, 62
1, 20749, Note_off_c, 0, 73, 56
1, 20751, Note_on_c, 0, 79, 65
1, 20755, Control_c, 0, 64, 68
1, 20781, Note_off_c, 0, 79, 65
1, 20784, Control_c, 0, 64, 68
1, 20796, Note_off_c, 0, 70, 39
1, 20799, Control_c, 0, 64, 67
1, 20810, Note_on_c, 0, 77, 77
1, 20814, Control_c, 0, 64, 67
1, 20829, Control_c, 0, 64, 66
1, 20838, Note_off_c, 0, 77, 62
1, 20844, Control_c, 0, 64, 64
1, 20859, Note_on_c, 0, 79, 71
1, 20859, Control_c, 0, 64, 62
1, 20874, Control_c, 0, 64, 59
1, 20886, Note_off_c, 0, 79, 70
1, 20888, Control_c, 0, 64, 57
1, 20903, Control_c, 0, 64, 54
1, 20925, Control_c, 0, 64, 51
1, 20929, Note_on_c, 0, 77, 80
1, 20940, Control_c, 0, 64, 44
1, 20955, Control_c, 0, 64, 24
1, 20961, Note_off_c, 0, 77, 62
1, 20971, Control_c, 0, 64, 0
1, 20972, Note_off_c, 0, 68, 57
1, 20986, Control_c, 0, 67, 10
1, 20990, Note_on_c, 0, 76, 68
1, 21000, Control_c, 0, 67, 44
1, 21015, Control_c, 0, 67, 77
1, 21030, Control_c, 0, 67, 110
1, 21041, Note_off_c, 0, 76, 60
1, 21045, Control_c, 0, 67, 127
1, 21051, Note_on_c, 0, 79, 70
1, 21094, Note_off_c, 0, 79, 60
1, 21120, Note_on_c, 0, 77, 65
1, 21152, Note_off_c, 0, 77, 65
1, 21209, Note_on_c, 0, 76, 53
1, 21218, Note_on_c, 0, 73, 39
1, 21220, Note_on_c, 0, 67, 44
1, 21232, Note_on_c, 0, 70, 31
1, 21237, Control_c, 0, 64, 25
1, 21252, Control_c, 0, 64, 49
1, 21267, Control_c, 0, 64, 61
1, 21268, Note_off_c, 0, 67, 61
1, 21274, Note_off_c, 0, 70, 64
1, 21275, Note_off_c, 0, 73, 64
1, 21282, Control_c, 0, 64, 66
1, 21297, Control_c, 0, 64, 70
1, 21301, Note_off_c, 0, 76, 64
1, 21312, Control_c, 0, 64, 76
1, 21327, Control_c, 0, 64, 82
1, 21342, Control_c, 0, 64, 88
1, 21356, Control_c, 0, 64, 93
1, 21371, Control_c, 0, 64, 96
1, 21386, Control_c, 0, 64, 97
1, 21445, Control_c, 0, 64, 96
1, 21460, Control_c, 0, 64, 95
1, 21475, Control_c, 0, 64, 94
1, 21490, Control_c, 0, 64, 91
1, 21505, Control_c, 0, 64, 88
1, 21519, Control_c, 0, 64, 84
1, 21534, Control_c, 0, 64, 78
1, 21549, Control_c, 0, 64, 72
1, 21564, Control_c, 0, 64, 66
1, 21579, Control_c, 0, 64, 62
1, 21593, Control_c, 0, 64, 57
1, 21608, Control_c, 0, 64, 54
1, 21623, Control_c, 0, 64, 53
1, 21638, Control_c, 0, 64, 52
1, 21652, Control_c, 0, 64, 50
1, 21675, Control_c, 0, 64, 46
1, 21687, Note_on_c, 0, 37, 52
1, 21690, Control_c, 0, 64, 38
1, 21705, Control_c, 0, 64, 25
1, 21719, Control_c, 0, 64, 11
1, 21721, Note_off_c, 0, 37, 61
1, 21734, Control_c, 0, 64, 0
1, 21816, Note_on_c, 0, 37, 42
1, 21852, Note_off_c, 0, 37, 51
1, 21938, Note_on_c, 0, 37, 47
1, 21982, Note_off_c, 0, 37, 58
1, 22105, Note_on_c, 0, 36, 39
1, 22239, Control_c, 0, 64, 21
1, 22254, Control_c, 0, 64, 40
1, 22268, Control_c, 0, 64, 52
1, 22283, Control_c, 0, 64, 59
1, 22298, Control_c, 0, 64, 63
1, 22313, Control_c, 0, 64, 65
1, 22328, Control_c, 0, 64, 68
1, 22342, Control_c, 0, 64, 72
1, 22357, Control_c, 0, 64, 75
1, 22372, Control_c, 0, 64, 80
1, 22387, Control_c, 0, 64, 84
1, 22402, Control_c, 0, 64, 87
1, 22424, Control_c, 0, 64, 88
1, 22453, Control_c, 0, 64, 88
1, 22468, Control_c, 0, 64, 87
1, 22474, Note_off_c, 0, 36, 32
1, 22498, Control_c, 0, 64, 87
1, 22513, Control_c, 0, 64, 86
1, 22528, Control_c, 0, 64, 85
1, 22543, Control_c, 0, 64, 84
1, 22557, Control_c, 0, 64, 82
1, 22573, Control_c, 0, 64, 80
1, 22588, Control_c, 0, 64, 77
1, 22602, Control_c, 0, 64, 72
1, 22614, Note_on_c, 0, 79, 52
1, 22616, Note_on_c, 0, 76, 55
1, 22617, Control_c, 0, 64, 67
1, 22632, Control_c, 0, 64, 61
1, 22647, Control_c, 0, 64, 55
1, 22654, Note_off_c, 0, 79, 64
1, 22662, Control_c, 0, 64, 50
1, 22677, Control_c, 0, 64, 48
1, 22681, Note_off_c, 0, 76, 56
1, 22706, Control_c, 0, 64, 48
1, 22721, Control_c, 0, 64, 46
1, 22736, Control_c, 0, 64, 43
1, 22751, Control_c, 0, 64, 38
1, 22763, Note_on_c, 0, 79, 57
1, 22764, Control_c, 0, 64, 34
1, 22778, Note_on_c, 0, 76, 49
1, 22779, Control_c, 0, 64, 31
1, 22794, Control_c, 0, 64, 29
1, 22809, Control_c, 0, 64, 27
1, 22812, Note_off_c, 0, 79, 61
1, 22816, Note_off_c, 0, 76, 63
1, 22824, Control_c, 0, 64, 26
1, 22838, Control_c, 0, 64, 25
1, 22853, Control_c, 0, 64, 24
1, 22868, Control_c, 0, 64, 24
1, 22923, Note_on_c, 0, 76, 46
1, 22939, Note_on_c, 0, 79, 44
1, 22970, Note_off_c, 0, 79, 55
1, 22979, Note_off_c, 0, 76, 60
1, 23135, Note_on_c, 0, 82, 55
1, 23143, Note_on_c, 0, 79, 38
1, 23217, Control_c, 0, 64, 24
1, 23231, Control_c, 0, 64, 26
1, 23246, Control_c, 0, 64, 30
1, 23261, Control_c, 0, 64, 34
1, 23276, Control_c, 0, 64, 42
1, 23291, Control_c, 0, 64, 49
1, 23305, Control_c, 0, 64, 54
1, 23320, Control_c, 0, 64, 58
1, 23335, Control_c, 0, 64, 61
1, 23350, Control_c, 0, 64, 62
1, 23366, Control_c, 0, 64, 64
1, 23366, Note_off_c, 0, 79, 40
1, 23380, Control_c, 0, 64, 65
1, 23381, Note_off_c, 0, 82, 31
1, 23395, Control_c, 0, 64, 67
1, 23410, Control_c, 0, 64, 69
1, 23425, Control_c, 0, 64, 71
1, 23440, Control_c, 0, 64, 74
1, 23455, Control_c, 0, 64, 76
1, 23469, Control_c, 0, 64, 79
1, 23484, Control_c, 0, 64, 81
1, 23499, Control_c, 0, 64, 82
1, 23513, Control_c, 0, 64, 83
1, 23528, Control_c, 0, 64, 83
1, 23543, Control_c, 0, 64, 84
1, 23558, Control_c, 0, 64, 84
1, 23573, Control_c, 0, 64, 85
1, 23587, Control_c, 0, 64, 85
1, 23602, Control_c, 0, 64, 86
1, 23617, Control_c, 0, 64, 86
1, 23661, Control_c, 0, 64, 87
1, 23720, Control_c, 0, 64, 86
1, 23750, Control_c, 0, 64, 86
1, 23765, Control_c, 0, 64, 85
1, 23780, Control_c, 0, 64, 85
1, 23795, Control_c, 0, 64, 83
1, 23810, Control_c, 0, 64, 82
1, 23825, Control_c, 0, 64, 80
1, 23839, Control_c, 0, 64, 76
1, 23846, Note_on_c, 0, 37, 36
1, 23854, Control_c, 0, 64, 72
1, 23869, Control_c, 0, 64, 66
1, 23884, Control_c, 0, 64, 61
1, 23899, Control_c, 0, 64, 52
1, 23920, Control_c, 0, 64, 46
1, 23923, Note_off_c, 0, 37, 52
1, 23935, Control_c, 0, 64, 44
1, 23980, Control_c, 0, 64, 43
1, 23995, Control_c, 0, 64, 40
1, 24009, Control_c, 0, 64, 37
1, 24024, Control_c, 0, 64, 34
1, 24039, Control_c, 0, 64, 34
1, 24046, Note_on_c, 0, 37, 33
1, 24069, Control_c, 0, 64, 33
1, 24098, Note_off_c, 0, 37, 52
1, 24099, Control_c, 0, 64, 33
1, 24114, Control_c, 0, 64, 32
1, 24256, Note_on_c, 0, 37, 37
1, 24336, Note_off_c, 0, 37, 52
1, 24528, Control_c, 0, 64, 33
1, 24573, Control_c, 0, 64, 33
1, 24603, Control_c, 0, 64, 34
1, 24607, Note_on_c, 0, 36, 29
1, 24617, Control_c, 0, 64, 34
1, 24632, Control_c, 0, 64, 35
1, 24647, Control_c, 0, 64, 35
1, 24668, Control_c, 0, 64, 36
1, 24683, Control_c, 0, 64, 37
1, 24698, Control_c, 0, 64, 40
1, 24713, Control_c, 0, 64, 43
1, 24728, Control_c, 0, 64, 47
1, 24743, Control_c, 0, 64, 51
1, 24758, Control_c, 0, 64, 54
1, 24773, Control_c, 0, 64, 57
1, 24787, Control_c, 0, 64, 59
1, 24802, Control_c, 0, 64, 61
1, 24817, Control_c, 0, 64, 63
1, 24832, Control_c, 0, 64, 64
1, 24847, Control_c, 0, 64, 65
1, 24862, Control_c, 0, 64, 66
1, 24876, Control_c, 0, 64, 67
1, 24891, Control_c, 0, 64, 69
1, 24906, Control_c, 0, 64, 70
1, 24921, Control_c, 0, 64, 72
1, 24936, Control_c, 0, 64, 73
1, 24948, Note_off_c, 0, 36, 29
1, 24950, Control_c, 0, 64, 74
1, 24966, Control_c, 0, 64, 75
1, 24981, Control_c, 0, 64, 76
1, 24996, Control_c, 0, 64, 77
1, 25011, Control_c, 0, 64, 78
1, 25040, Control_c, 0, 64, 78
1, 25055, Control_c, 0, 64, 79
1, 25070, Control_c, 0, 64, 80
1, 25085, Control_c, 0, 64, 81
1, 25099, Control_c, 0, 64, 82
1, 25114, Control_c, 0, 64, 83
1, 25129, Control_c, 0, 64, 83
1, 25144, Control_c, 0, 64, 84
1, 25159, Control_c, 0, 64, 84
1, 25173, Control_c, 0, 64, 85
1, 25188, Control_c, 0, 64, 85
1, 25218, Control_c, 0, 64, 86
1, 25232, Control_c, 0, 64, 86
1, 25247, Control_c, 0, 64, 87
1, 25291, Control_c, 0, 64, 87
1, 25306, Control_c, 0, 64, 88
1, 25336, Control_c, 0, 64, 88
1, 25462, Control_c, 0, 64, 86
1, 25477, Control_c, 0, 64, 78
1, 25491, Control_c, 0, 64, 63
1, 25506, Control_c, 0, 64, 0
1, 25506, Control_c, 0, 67, 123
1, 25521, Control_c, 0, 67, 78
1, 25536, Control_c, 0, 67, 0
1, 25555, Note_on_c, 0, 82, 103
1, 25559, Note_on_c, 0, 79, 97
1, 25565, Control_c, 0, 64, 17
1, 25580, Control_c, 0, 64, 65
1, 25595, Control_c, 0, 64, 121
1, 25610, Control_c, 0, 64, 127
1, 25613, Note_off_c, 0, 79, 64
1, 25615, Note_off_c, 0, 82, 64
1, 25670, Note_on_c, 0, 82, 88
1, 25677, Note_on_c, 0, 79, 82
1, 25727, Note_off_c, 0, 79, 63
1, 25727, Note_off_c, 0, 82, 66
1, 25788, Note_on_c, 0, 82, 89
1, 25792, Note_on_c, 0, 79, 75
1, 25840, Note_off_c, 0, 79, 61
1, 25859, Note_off_c, 0, 82, 67
1, 25909, Note_on_c, 0, 88, 85
1, 25968, Note_on_c, 0, 82, 89
1, 25998, Note_off_c, 0, 88, 56
1, 26016, Note_off_c, 0, 82, 67
1, 26019, Note_on_c, 0, 91, 85
1, 26039, Note_off_c, 0, 91, 71
1, 26090, Note_on_c, 0, 88, 82
1, 26149, Note_off_c, 0, 88, 65
1, 26165, Note_on_c, 0, 94, 68
1, 26206, Note_on_c, 0, 91, 78
1, 26229, Note_off_c, 0, 94, 63
1, 26271, Note_off_c, 0, 91, 65
1, 26276, Note_on_c, 0, 88, 80
1, 26296, Note_off_c, 0, 88, 72
1, 26349, Note_on_c, 0, 91, 72
1, 26357, Note_on_c, 0, 93, 38
1, 26385, Note_off_c, 0, 93, 48
1, 26386, Note_off_c, 0, 91, 63
1, 26403, Note_on_c, 0, 82, 79
1, 26442, Note_off_c, 0, 82, 61
1, 26453, Note_on_c, 0, 88, 70
1, 26490, Note_off_c, 0, 88, 63
1, 26511, Note_on_c, 0, 79, 79
1, 26555, Note_off_c, 0, 79, 65
1, 26580, Note_on_c, 0, 82, 75
1, 26608, Note_off_c, 0, 82, 64
1, 26644, Note_on_c, 0, 76, 73
1, 26671, Note_off_c, 0, 76, 68
1, 26699, Note_on_c, 0, 79, 81
1, 26754, Note_off_c, 0, 79, 64
1, 26761, Note_on_c, 0, 70, 69
1, 26803, Note_off_c, 0, 70, 55
1, 26817, Note_on_c, 0, 76, 58
1, 26850, Note_off_c, 0, 76, 67
1, 26886, Note_on_c, 0, 67, 74
1, 26925, Note_off_c, 0, 67, 61
1, 26948, Note_on_c, 0, 70, 80
1, 26995, Note_off_c, 0, 70, 61
1, 27025, Note_on_c, 0, 64, 74
1, 27050, Note_off_c, 0, 64, 67
1, 27082, Note_on_c, 0, 69, 65
1, 27101, Note_on_c, 0, 67, 62
1, 27109, Note_off_c, 0, 69, 57
1, 27114, Note_on_c, 0, 63, 33
1, 27132, Note_off_c, 0, 67, 66
1, 27141, Note_on_c, 0, 58, 76
1, 27149, Note_off_c, 0, 63, 52
1, 27194, Note_off_c, 0, 58, 64
1, 27196, Note_on_c, 0, 64, 63
1, 27241, Note_off_c, 0, 64, 63
1, 27263, Note_on_c, 0, 55, 78
1, 27307, Note_off_c, 0, 55, 59
1, 27325, Note_on_c, 0, 58, 87
1, 27375, Note_off_c, 0, 58, 64
1, 27390, Control_c, 0, 64, 102
1, 27392, Note_on_c, 0, 52, 80
1, 27405, Control_c, 0, 64, 70
1, 27420, Control_c, 0, 64, 48
1, 27430, Note_off_c, 0, 52, 64
1, 27435, Control_c, 0, 64, 0
1, 27461, Note_on_c, 0, 55, 74
1, 27481, Note_on_c, 0, 57, 39
1, 27482, Note_off_c, 0, 57, 127
1, 27506, Note_off_c, 0, 55, 60
1, 27510, Note_on_c, 0, 46, 80
1, 27578, Note_on_c, 0, 52, 85
1, 27584, Note_off_c, 0, 46, 63
1, 27595, Note_on_c, 0, 31, 69
1, 27646, Note_off_c, 0, 52, 63
1, 27664, Note_on_c, 0, 34, 78
1, 27694, Control_c, 0, 64, 47
1, 27709, Control_c, 0, 64, 66
1, 27719, Note_off_c, 0, 31, 62
1, 27724, Control_c, 0, 64, 81
1, 27726, Note_on_c, 0, 40, 92
1, 27739, Control_c, 0, 64, 127
1, 27780, Note_off_c, 0, 40, 64
1, 27781, Note_off_c, 0, 34, 62
1, 27786, Note_on_c, 0, 43, 83
1, 27846, Note_on_c, 0, 46, 78
1, 27858, Note_off_c, 0, 43, 61
1, 27908, Note_on_c, 0, 49, 75
1, 27931, Note_off_c, 0, 46, 63
1, 27948, Note_on_c, 0, 52, 76
1, 27957, Note_off_c, 0, 49, 62
1, 28025, Note_on_c, 0, 55, 82
1, 28046, Note_off_c, 0, 52, 66
1, 28065, Note_off_c, 0, 55, 67
1, 28088, Note_on_c, 0, 58, 112
1, 28149, Note_off_c, 0, 58, 67
1, 28228, Control_c, 0, 64, 98
1, 28243, Control_c, 0, 64, 71
1, 28257, Control_c, 0, 64, 55
1, 28272, Control_c, 0, 64, 13
1, 28287, Control_c, 0, 64, 0
1, 28531, Control_c, 0, 64, 47
1, 28546, Control_c, 0, 64, 69
1, 28561, Control_c, 0, 64, 127
1, 28563, Note_on_c, 0, 49, 101
1, 28564, Note_on_c, 0, 61, 103
1, 28565, Note_on_c, 0, 41, 99
1, 28566, Note_on_c, 0, 56, 86
1, 28571, Note_on_c, 0, 29, 88
1, 28610, Note_off_c, 0, 29, 63
1, 28614, Note_off_c, 0, 49, 63
1, 28633, Note_off_c, 0, 41, 63
1, 28636, Note_off_c, 0, 56, 61
1, 28657, Note_off_c, 0, 61, 62
1, 28829, Control_c, 0, 64, 102
1, 28844, Control_c, 0, 64, 79
1, 28858, Control_c, 0, 64, 65
1, 28873, Control_c, 0, 64, 54
1, 28888, Control_c, 0, 64, 43
1, 28903, Control_c, 0, 64, 38
1, 28917, Control_c, 0, 64, 31
1, 28932, Control_c, 0, 64, 0
1, 29372, Note_on_c, 0, 60, 46
1, 29379, Note_on_c, 0, 55, 32
1, 29387, Note_on_c, 0, 48, 29
1, 29387, Note_on_c, 0, 52, 29
1, 29396, Note_on_c, 0, 40, 28
1, 29770, Control_c, 0, 67, 12
1, 29785, Control_c, 0, 67, 32
1, 29800, Control_c, 0, 67, 54
1, 29815, Control_c, 0, 67, 72
1, 29830, Control_c, 0, 67, 87
1, 29844, Control_c, 0, 67, 100
1, 29859, Control_c, 0, 67, 107
1, 29874, Control_c, 0, 67, 109
1, 29889, Control_c, 0, 67, 109
1, 29926, Control_c, 0, 67, 108
1, 29941, Control_c, 0, 64, 28
1, 29941, Control_c, 0, 67, 107
1, 29956, Control_c, 0, 64, 44
1, 29956, Control_c, 0, 67, 105
1, 29970, Control_c, 0, 64, 54
1, 29970, Control_c, 0, 67, 103
1, 29985, Control_c, 0, 64, 59
1, 29985, Control_c, 0, 67, 102
1, 30000, Control_c, 0, 64, 62
1, 30015, Control_c, 0, 64, 63
1, 30015, Control_c, 0, 67, 102
1, 30029, Control_c, 0, 64, 65
1, 30029, Control_c, 0, 67, 101
1, 30044, Control_c, 0, 64, 66
1, 30044, Control_c, 0, 67, 100
1, 30059, Control_c, 0, 64, 68
1, 30059, Control_c, 0, 67, 99
1, 30074, Control_c, 0, 64, 70
1, 30088, Control_c, 0, 64, 73
1, 30103, Control_c, 0, 64, 76
1, 30118, Control_c, 0, 64, 80
1, 30118, Control_c, 0, 67, 98
1, 30133, Control_c, 0, 64, 85
1, 30133, Control_c, 0, 67, 98
1, 30148, Control_c, 0, 64, 89
1, 30162, Control_c, 0, 64, 93
1, 30177, Control_c, 0, 64, 96
1, 30192, Control_c, 0, 64, 98
1, 30207, Control_c, 0, 64, 101
1, 30222, Control_c, 0, 64, 104
1, 30237, Control_c, 0, 64, 107
1, 30251, Control_c, 0, 64, 112
1, 30266, Control_c, 0, 64, 123
1, 30281, Control_c, 0, 64, 127
1, 30355, Control_c, 0, 67, 97
1, 30359, Note_off_c, 0, 55, 43
1, 30436, Note_off_c, 0, 40, 34
1, 30571, Note_off_c, 0, 48, 31
1, 30660, Control_c, 0, 67, 97
1, 30682, Note_off_c, 0, 52, 37
1, 30690, Control_c, 0, 67, 96
1, 30705, Control_c, 0, 67, 95
1, 30719, Control_c, 0, 67, 95
1, 30749, Control_c, 0, 67, 94
1, 30761, Note_off_c, 0, 60, 32
1, 30764, Control_c, 0, 67, 93
1, 30779, Control_c, 0, 67, 92
1, 30793, Control_c, 0, 67, 92
1, 30808, Control_c, 0, 67, 90
1, 30823, Control_c, 0, 67, 90
1, 30838, Control_c, 0, 67, 89
1, 30853, Control_c, 0, 67, 88
1, 30867, Control_c, 0, 67, 87
1, 30882, Control_c, 0, 67, 87
1, 30897, Control_c, 0, 67, 86
1, 30911, Control_c, 0, 67, 85
1, 30926, Control_c, 0, 67, 85
1, 30941, Control_c, 0, 67, 83
1, 30956, Control_c, 0, 67, 82
1, 30971, Control_c, 0, 67, 82
1, 31030, Control_c, 0, 67, 81
1, 31059, Control_c, 0, 67, 80
1, 31587, Control_c, 0, 64, 117
1, 31602, Control_c, 0, 64, 107
1, 31616, Control_c, 0, 64, 100
1, 31631, Control_c, 0, 64, 92
1, 31646, Control_c, 0, 64, 86
1, 31661, Control_c, 0, 64, 81
1, 31676, Control_c, 0, 64, 76
1, 31690, Control_c, 0, 64, 72
1, 31705, Control_c, 0, 64, 69
1, 31720, Control_c, 0, 64, 66
1, 31734, Control_c, 0, 64, 64
1, 31749, Control_c, 0, 64, 61
1, 31764, Control_c, 0, 64, 60
1, 31779, Control_c, 0, 64, 58
1, 31794, Control_c, 0, 64, 56
1, 31808, Control_c, 0, 64, 54
1, 31808, Control_c, 0, 67, 81
1, 31823, Control_c, 0, 64, 53
1, 31838, Control_c, 0, 64, 50
1, 31853, Control_c, 0, 64, 46
1, 31853, Control_c, 0, 67, 82
1, 31868, Control_c, 0, 64, 40
1, 31882, Control_c, 0, 64, 35
1, 31897, Control_c, 0, 64, 32
1, 31927, Control_c, 0, 64, 31
1, 31986, Control_c, 0, 64, 32
1, 32001, Control_c, 0, 64, 34
1, 32016, Control_c, 0, 64, 38
1, 32031, Control_c, 0, 64, 46
1, 32046, Control_c, 0, 64, 53
1, 32061, Control_c, 0, 64, 59
1, 32076, Control_c, 0, 64, 63
1, 32081, Note_on_c, 0, 60, 42
1, 32090, Control_c, 0, 64, 66
1, 32099, Note_on_c, 0, 36, 29
1, 32105, Control_c, 0, 64, 69
1, 32119, Control_c, 0, 64, 73
1, 32134, Control_c, 0, 64, 78
1, 32157, Control_c, 0, 64, 86
1, 32157, Control_c, 0, 67, 81
1, 32172, Control_c, 0, 64, 96
1, 32174, Note_off_c, 0, 60, 53
1, 32187, Control_c, 0, 64, 123
1, 32202, Control_c, 0, 64, 127
1, 32206, Note_off_c, 0, 36, 51
1, 32246, Control_c, 0, 67, 80
1, 32483, Note_on_c, 0, 32, 55
1, 32489, Note_on_c, 0, 56, 75
1, 32528, Control_c, 0, 67, 78
1, 32543, Control_c, 0, 67, 68
1, 32555, Note_off_c, 0, 56, 62
1, 32557, Control_c, 0, 64, 108
1, 32557, Control_c, 0, 67, 35
1, 32562, Note_on_c, 0, 29, 103
1, 32562, Note_on_c, 0, 53, 99
1, 32572, Control_c, 0, 64, 69
1, 32572, Control_c, 0, 67, 0
1, 32586, Note_off_c, 0, 32, 55
1, 32587, Control_c, 0, 64, 0
1, 32646, Control_c, 0, 64, 32
1, 32661, Control_c, 0, 64, 65
1, 32676, Control_c, 0, 64, 127
1, 32765, Note_off_c, 0, 53, 60
1, 32836, Note_on_c, 0, 53, 94
1, 32836, Note_on_c, 0, 56, 90
1, 32837, Note_on_c, 0, 65, 88
1, 32875, Note_off_c, 0, 29, 56
1, 32878, Note_off_c, 0, 53, 62
1, 32890, Note_off_c, 0, 56, 64
1, 32928, Note_off_c, 0, 65, 60
1, 32956, Poly_aftertouch_c, 0, 62, 0
1, 32997, Note_on_c, 0, 41, 89
1, 33000, Note_on_c, 0, 36, 71
1, 33003, Note_on_c, 0, 29, 75
1, 33015, Note_on_c, 0, 32, 67
1, 33091, Note_off_c, 0, 29, 53
1, 33101, Note_off_c, 0, 41, 59
1, 33117, Note_on_c, 0, 56, 102
1, 33122, Note_on_c, 0, 60, 78
1, 33122, Note_on_c, 0, 68, 93
1, 33131, Note_off_c, 0, 32, 58
1, 33146, Note_off_c, 0, 60, 70
1, 33150, Note_off_c, 0, 56, 66
1, 33187, Note_off_c, 0, 68, 63
1, 33216, Note_off_c, 0, 36, 0
1, 33232, Note_on_c, 0, 36, 43
1, 33232, Note_on_c, 0, 41, 85
1, 33244, Note_on_c, 0, 29, 72
1, 33250, Note_on_c, 0, 32, 55
1, 33292, Note_off_c, 0, 29, 54
1, 33292, Note_off_c, 0, 32, 55
1, 33298, Note_off_c, 0, 41, 56
1, 33341, Note_on_c, 0, 60, 98
1, 33343, Note_on_c, 0, 65, 80
1, 33348, Note_on_c, 0, 72, 92
1, 33370, Note_on_c, 0, 68, 51
1, 33375, Note_off_c, 0, 60, 68
1, 33378, Note_off_c, 0, 65, 64
1, 33398, Note_off_c, 0, 68, 55
1, 33405, Note_off_c, 0, 72, 66
1, 33447, Note_off_c, 0, 36, 0
1, 33459, Note_on_c, 0, 41, 87
1, 33467, Note_on_c, 0, 36, 29
1, 33468, Note_on_c, 0, 29, 75
1, 33490, Note_on_c, 0, 32, 49
1, 33523, Note_off_c, 0, 32, 56
1, 33523, Note_off_c, 0, 41, 55
1, 33524, Note_off_c, 0, 29, 59
1, 33579, Note_on_c, 0, 68, 91
1, 33581, Note_on_c, 0, 77, 96
1, 33582, Note_on_c, 0, 65, 100
1, 33620, Note_off_c, 0, 65, 64
1, 33620, Note_off_c, 0, 68, 65
1, 33658, Note_off_c, 0, 77, 63
1, 33689, Note_off_c, 0, 36, 0
1, 33700, Poly_aftertouch_c, 0, 74, 0
1, 33707, Note_on_c, 0, 36, 32
1, 33709, Note_on_c, 0, 41, 91
1, 33718, Note_on_c, 0, 29, 76
1, 33727, Note_on_c, 0, 32, 63
1, 33781, Note_off_c, 0, 29, 59
1, 33794, Note_off_c, 0, 41, 54
1, 33806, Note_off_c, 0, 32, 35
1, 33823, Note_on_c, 0, 68, 105
1, 33826, Note_on_c, 0, 72, 85
1, 33828, Note_on_c, 0, 80, 95
1, 33855, Note_off_c, 0, 72, 66
1, 33862, Note_off_c, 0, 68, 68
1, 33896, Note_off_c, 0, 80, 66
1, 33931, Note_off_c, 0, 36, 0
1, 33944, Note_on_c, 0, 41, 96
1, 33948, Note_on_c, 0, 36, 48
1, 33954, Note_on_c, 0, 29, 80
1, 33962, Note_on_c, 0, 32, 64
1, 33994, Note_off_c, 0, 29, 58
1, 34002, Note_off_c, 0, 32, 53
1, 34013, Note_off_c, 0, 41, 62
1, 34062, Note_off_c, 0, 36, 36
1, 34065, Note_on_c, 0, 77, 79
1, 34071, Note_on_c, 0, 72, 101
1, 34075, Note_on_c, 0, 84, 96
1, 34106, Note_off_c, 0, 72, 67
1, 34108, Note_off_c, 0, 77, 64
1, 34123, Poly_aftertouch_c, 0, 80, 127
1, 34136, Note_off_c, 0, 84, 64
1, 34149, Poly_aftertouch_c, 0, 80, 0
1, 34221, Note_on_c, 0, 77, 105
1, 34222, Note_on_c, 0, 89, 99
1, 34222, Note_on_c, 0, 80, 97
1, 34225, Note_on_c, 0, 41, 98
1, 34226, Note_on_c, 0, 36, 69
1, 34233, Note_on_c, 0, 32, 82
1, 34236, Note_on_c, 0, 29, 83
1, 34244, Note_on_c, 0, 84, 68
1, 34292, Control_c, 0, 64, 81
1, 34307, Control_c, 0, 64, 63
1, 34321, Control_c, 0, 64, 27
1, 34336, Control_c, 0, 64, 0
1, 34612, Control_c, 0, 64, 27
1, 34626, Control_c, 0, 64, 54
1, 34641, Control_c, 0, 64, 66
1, 34656, Control_c, 0, 64, 77
1, 34671, Control_c, 0, 64, 117
1, 34686, Control_c, 0, 64, 127
1, 34776, Note_off_c, 0, 89, 51
1, 34914, Note_off_c, 0, 84, 28
1, 34924, Note_off_c, 0, 77, 53
1, 34957, Note_off_c, 0, 80, 61
1, 34972, Note_off_c, 0, 41, 59
1, 34985, Note_off_c, 0, 29, 52
1, 35018, Note_off_c, 0, 36, 56
1, 35043, Note_off_c, 0, 32, 53
1, 35241, Control_c, 0, 64, 113
1, 35256, Control_c, 0, 64, 90
1, 35271, Control_c, 0, 64, 76
1, 35286, Control_c, 0, 64, 66
1, 35300, Control_c, 0, 64, 62
1, 35300, Control_c, 0, 67, 21
1, 35315, Control_c, 0, 64, 59
1, 35315, Control_c, 0, 67, 35
1, 35330, Control_c, 0, 64, 58
1, 35330, Control_c, 0, 67, 48
1, 35345, Control_c, 0, 64, 56
1, 35345, Control_c, 0, 67, 65
1, 35361, Control_c, 0, 64, 54
1, 35361, Control_c, 0, 67, 80
1, 35375, Control_c, 0, 64, 50
1, 35375, Control_c, 0, 67, 94
1, 35390, Control_c, 0, 64, 42
1, 35390, Control_c, 0, 67, 108
1, 35405, Control_c, 0, 64, 27
1, 35405, Control_c, 0, 67, 122
1, 35420, Control_c, 0, 64, 0
1, 35420, Control_c, 0, 67, 127
1, 35540, Note_on_c, 0, 56, 44
1, 35541, Note_on_c, 0, 32, 39
1, 35841, Note_on_c, 0, 60, 57
1, 35841, Note_off_c, 0, 56, 64
1, 35843, Note_on_c, 0, 36, 45
1, 35856, Note_off_c, 0, 32, 51
1, 35924, Note_on_c, 0, 65, 58
1, 35937, Note_on_c, 0, 41, 48
1, 35937, Note_off_c, 0, 60, 61
1, 35942, Note_off_c, 0, 36, 60
1, 36326, Note_on_c, 0, 68, 57
1, 36347, Note_on_c, 0, 44, 41
1, 36371, Note_off_c, 0, 65, 48
1, 36475, Note_off_c, 0, 41, 39
1, 36649, Note_on_c, 0, 72, 58
1, 36654, Note_on_c, 0, 48, 43
1, 36680, Note_off_c, 0, 68, 60
1, 36702, Note_off_c, 0, 44, 37
1, 36738, Note_on_c, 0, 77, 63
1, 36752, Note_off_c, 0, 72, 60
1, 36765, Note_off_c, 0, 48, 58
1, 36778, Note_on_c, 0, 53, 39
1, 37155, Note_on_c, 0, 41, 37
1, 37160, Note_on_c, 0, 65, 44
1, 37183, Control_c, 0, 64, 37
1, 37198, Control_c, 0, 64, 52
1, 37213, Control_c, 0, 64, 59
1, 37227, Control_c, 0, 64, 63
1, 37242, Control_c, 0, 64, 67
1, 37257, Control_c, 0, 64, 71
1, 37272, Note_off_c, 0, 77, 30
1, 37272, Control_c, 0, 64, 77
1, 37278, Note_off_c, 0, 41, 58
1, 37287, Control_c, 0, 64, 84
1, 37287, Control_c, 0, 67, 121
1, 37292, Note_off_c, 0, 53, 41
1, 37301, Control_c, 0, 64, 94
1, 37301, Control_c, 0, 67, 114
1, 37316, Control_c, 0, 64, 110
1, 37316, Control_c, 0, 67, 105
1, 37331, Control_c, 0, 64, 127
1, 37331, Control_c, 0, 67, 96
1, 37343, Note_off_c, 0, 65, 26
1, 37346, Control_c, 0, 67, 87
1, 37361, Control_c, 0, 67, 78
1, 37376, Control_c, 0, 67, 70
1, 37398, Control_c, 0, 67, 63
1, 37413, Control_c, 0, 67, 58
1, 37427, Control_c, 0, 67, 55
1, 37442, Control_c, 0, 67, 53
1, 37457, Control_c, 0, 67, 51
1, 37472, Control_c, 0, 67, 48
1, 37487, Control_c, 0, 67, 46
1, 37501, Control_c, 0, 67, 45
1, 37516, Control_c, 0, 64, 81
1, 37516, Control_c, 0, 67, 36
1, 37531, Control_c, 0, 64, 24
1, 37531, Control_c, 0, 67, 8
1, 37546, Control_c, 0, 64, 0
1, 37546, Control_c, 0, 67, 0
1, 37555, Note_on_c, 0, 60, 103
1, 37555, Note_on_c, 0, 55, 98
1, 37561, Note_on_c, 0, 52, 81
1, 37576, Control_c, 0, 64, 64
1, 37590, Control_c, 0, 64, 127
1, 37608, Note_off_c, 0, 60, 63
1, 37621, Note_off_c, 0, 55, 66
1, 37628, Note_off_c, 0, 52, 65
1, 37732, Note_on_c, 0, 64, 84
1, 37739, Note_on_c, 0, 60, 73
1, 37747, Note_on_c, 0, 55, 73
1, 37772, Note_off_c, 0, 55, 68
1, 37797, Note_off_c, 0, 60, 57
1, 37859, Note_on_c, 0, 43, 72
1, 37862, Note_on_c, 0, 40, 68
1, 37862, Note_on_c, 0, 48, 77
1, 37911, Note_off_c, 0, 64, 33
1, 37925, Note_off_c, 0, 48, 61
1, 37930, Note_off_c, 0, 43, 60
1, 37944, Note_off_c, 0, 40, 54
1, 37957, Note_on_c, 0, 60, 69
1, 37976, Note_on_c, 0, 64, 59
1, 37978, Note_on_c, 0, 67, 89
1, 38012, Note_off_c, 0, 60, 65
1, 38014, Note_off_c, 0, 64, 64
1, 38043, Note_off_c, 0, 67, 64
1, 38072, Note_on_c, 0, 48, 81
1, 38076, Note_on_c, 0, 40, 67
1, 38076, Note_on_c, 0, 43, 78
1, 38163, Note_off_c, 0, 40, 58
1, 38166, Note_off_c, 0, 48, 57
1, 38169, Note_off_c, 0, 43, 56
1, 38198, Note_on_c, 0, 72, 100
1, 38200, Note_on_c, 0, 64, 93
1, 38218, Note_on_c, 0, 67, 66
1, 38234, Note_off_c, 0, 67, 69
1, 38269, Note_off_c, 0, 64, 58
1, 38285, Note_on_c, 0, 48, 84
1, 38290, Note_on_c, 0, 40, 71
1, 38292, Note_on_c, 0, 43, 76
1, 38360, Note_off_c, 0, 48, 57
1, 38366, Note_off_c, 0, 72, 56
1, 38370, Note_off_c, 0, 40, 56
1, 38384, Note_off_c, 0, 43, 53
1, 38396, Note_on_c, 0, 67, 65
1, 38405, Note_on_c, 0, 76, 98
1, 38443, Note_off_c, 0, 67, 65
1, 38486, Note_on_c, 0, 48, 83
1, 38490, Note_off_c, 0, 76, 64
1, 38491, Note_on_c, 0, 40, 72
1, 38497, Note_on_c, 0, 43, 73
1, 38564, Note_off_c, 0, 40, 57
1, 38580, Note_off_c, 0, 48, 50
1, 38616, Note_on_c, 0, 72, 95
1, 38620, Note_on_c, 0, 79, 84
1, 38625, Note_on_c, 0, 81, 73
1, 38663, Note_off_c, 0, 81, 48
1, 38693, Note_off_c, 0, 43, 0
1, 38706, Note_on_c, 0, 43, 54
1, 38708, Note_on_c, 0, 48, 83
1, 38708, Note_on_c, 0, 40, 74
1, 38748, Note_off_c, 0, 43, 64
1, 38760, Note_off_c, 0, 40, 64
1, 38762, Note_off_c, 0, 48, 64
1, 38765, Note_off_c, 0, 72, 60
1, 38828, Note_on_c, 0, 84, 97
1, 38831, Note_off_c, 0, 79, 64
1, 38835, Note_on_c, 0, 76, 92
1, 38920, Note_off_c, 0, 84, 63
1, 38924, Note_off_c, 0, 76, 61
1, 38926, Control_c, 0, 64, 80
1, 38941, Control_c, 0, 64, 62
1, 38942, Poly_aftertouch_c, 0, 83, 0
1, 38944, Poly_aftertouch_c, 0, 81, 0
1, 38955, Control_c, 0, 64, 17
1, 38970, Control_c, 0, 64, 0
1, 39103, Control_c, 0, 67, 22
1, 39105, Note_on_c, 0, 72, 57
1, 39118, Control_c, 0, 67, 42
1, 39123, Note_on_c, 0, 67, 43
1, 39130, Note_on_c, 0, 64, 42
1, 39133, Control_c, 0, 67, 61
1, 39147, Control_c, 0, 67, 82
1, 39162, Control_c, 0, 67, 100
1, 39177, Control_c, 0, 67, 120
1, 39191, Control_c, 0, 67, 127
1, 39563, Control_c, 0, 64, 29
1, 39578, Control_c, 0, 64, 50
1, 39593, Control_c, 0, 64, 59
1, 39607, Control_c, 0, 64, 64
1, 39622, Control_c, 0, 64, 67
1, 39644, Control_c, 0, 64, 72
1, 39659, Control_c, 0, 64, 78
1, 39674, Control_c, 0, 64, 88
1, 39685, Note_off_c, 0, 64, 59
1, 39689, Control_c, 0, 64, 102
1, 39704, Control_c, 0, 64, 127
1, 39719, Note_off_c, 0, 67, 59
1, 39787, Note_on_c, 0, 74, 63
1, 39790, Note_off_c, 0, 72, 42
1, 39818, Note_off_c, 0, 74, 64
1, 39985, Control_c, 0, 67, 127
1, 40000, Control_c, 0, 67, 126
1, 40014, Control_c, 0, 67, 125
1, 40029, Control_c, 0, 64, 101
1, 40029, Control_c, 0, 67, 125
1, 40032, Note_on_c, 0, 76, 58
1, 40038, Note_on_c, 0, 71, 50
1, 40044, Control_c, 0, 64, 76
1, 40044, Control_c, 0, 67, 124
1, 40048, Note_on_c, 0, 68, 44
1, 40050, Note_on_c, 0, 65, 43
1, 40055, Note_off_c, 0, 76, 63
1, 40059, Control_c, 0, 64, 60
1, 40059, Control_c, 0, 67, 124
1, 40074, Control_c, 0, 64, 0
1, 40074, Control_c, 0, 67, 122
1, 40077, Note_on_c, 0, 74, 65
1, 40088, Control_c, 0, 67, 121
1, 40103, Control_c, 0, 67, 120
1, 40115, Note_off_c, 0, 74, 58
1, 40118, Control_c, 0, 67, 119
1, 40133, Control_c, 0, 67, 116
1, 40139, Note_on_c, 0, 76, 61
1, 40149, Control_c, 0, 67, 114
1, 40164, Control_c, 0, 67, 109
1, 40174, Note_off_c, 0, 76, 63
1, 40179, Control_c, 0, 64, 44
1, 40179, Control_c, 0, 67, 105
1, 40193, Control_c, 0, 64, 59
1, 40193, Control_c, 0, 67, 100
1, 40208, Note_on_c, 0, 74, 52
1, 40208, Control_c, 0, 64, 65
1, 40208, Control_c, 0, 67, 95
1, 40223, Control_c, 0, 64, 70
1, 40223, Control_c, 0, 67, 89
1, 40232, Note_off_c, 0, 74, 60
1, 40238, Control_c, 0, 64, 77
1, 40238, Control_c, 0, 67, 84
1, 40247, Note_on_c, 0, 76, 65
1, 40252, Control_c, 0, 64, 86
1, 40252, Control_c, 0, 67, 80
1, 40267, Control_c, 0, 64, 97
1, 40267, Control_c, 0, 67, 75
1, 40279, Note_off_c, 0, 76, 66
1, 40282, Control_c, 0, 64, 118
1, 40282, Control_c, 0, 67, 70
1, 40294, Note_off_c, 0, 71, 57
1, 40297, Control_c, 0, 64, 127
1, 40297, Control_c, 0, 67, 64
1, 40303, Note_on_c, 0, 74, 70
1, 40312, Control_c, 0, 67, 58
1, 40327, Control_c, 0, 67, 50
1, 40340, Note_off_c, 0, 74, 59
1, 40342, Control_c, 0, 67, 43
1, 40347, Note_off_c, 0, 68, 55
1, 40354, Note_on_c, 0, 76, 65
1, 40356, Control_c, 0, 67, 35
1, 40371, Control_c, 0, 67, 24
1, 40380, Note_off_c, 0, 65, 35
1, 40393, Control_c, 0, 67, 13
1, 40395, Note_off_c, 0, 76, 64
1, 40408, Control_c, 0, 67, 0
1, 40420, Note_on_c, 0, 74, 66
1, 40452, Note_off_c, 0, 74, 62
1, 40473, Note_on_c, 0, 76, 65
1, 40525, Note_off_c, 0, 76, 59
1, 40552, Note_on_c, 0, 74, 63
1, 40571, Note_off_c, 0, 74, 61
1, 40600, Note_on_c, 0, 76, 78
1, 40634, Note_off_c, 0, 76, 61
1, 40661, Note_on_c, 0, 74, 64
1, 40697, Note_off_c, 0, 74, 65
1, 40708, Note_on_c, 0, 72, 78
1, 40734, Control_c, 0, 64, 121
1, 40749, Control_c, 0, 64, 79
1, 40754, Note_off_c, 0, 72, 63
1, 40763, Control_c, 0, 64, 59
1, 40771, Note_on_c, 0, 76, 78
1, 40778, Control_c, 0, 64, 0
1, 40809, Note_off_c, 0, 76, 54
1, 40816, Note_on_c, 0, 74, 90
1, 40861, Note_off_c, 0, 74, 65
1, 40875, Note_on_c, 0, 55, 93
1, 40875, Note_on_c, 0, 60, 97
1, 40881, Note_on_c, 0, 52, 79
1, 40911, Control_c, 0, 64, 55
1, 40926, Control_c, 0, 64, 71
1, 40941, Note_off_c, 0, 60, 64
1, 40942, Control_c, 0, 64, 127
1, 40957, Note_off_c, 0, 55, 64
1, 40975, Note_off_c, 0, 52, 66
1, 41092, Note_on_c, 0, 60, 84
1, 41092, Note_on_c, 0, 64, 85
1, 41097, Note_on_c, 0, 55, 83
1, 41144, Note_off_c, 0, 55, 58
1, 41171, Note_off_c, 0, 60, 56
1, 41214, Note_on_c, 0, 48, 90
1, 41216, Note_on_c, 0, 43, 72
1, 41221, Note_on_c, 0, 40, 75
1, 41252, Note_off_c, 0, 64, 53
1, 41288, Note_off_c, 0, 48, 60
1, 41294, Note_off_c, 0, 40, 62
1, 41302, Note_off_c, 0, 43, 58
1, 41305, Note_on_c, 0, 60, 79
1, 41316, Note_on_c, 0, 67, 90
1, 41350, Note_off_c, 0, 60, 66
1, 41379, Note_off_c, 0, 67, 64
1, 41391, Poly_aftertouch_c, 0, 64, 127
1, 41421, Note_on_c, 0, 48, 87
1, 41423, Note_on_c, 0, 43, 75
1, 41426, Note_on_c, 0, 40, 71
1, 41430, Poly_aftertouch_c, 0, 64, 0
1, 41495, Note_off_c, 0, 43, 55
1, 41495, Note_off_c, 0, 48, 58
1, 41497, Note_off_c, 0, 40, 59
1, 41533, Note_on_c, 0, 72, 96
1, 41536, Note_on_c, 0, 64, 90
1, 41587, Note_on_c, 0, 67, 12
1, 41610, Note_off_c, 0, 64, 53
1, 41625, Note_off_c, 0, 67, 50
1, 41636, Note_on_c, 0, 48, 84
1, 41638, Note_on_c, 0, 43, 65
1, 41647, Note_on_c, 0, 40, 67
1, 41701, Note_off_c, 0, 72, 57
1, 41704, Note_off_c, 0, 40, 56
1, 41707, Note_off_c, 0, 48, 60
1, 41717, Note_off_c, 0, 43, 52
1, 41727, Note_on_c, 0, 67, 82
1, 41733, Note_on_c, 0, 76, 98
1, 41765, Note_on_c, 0, 72, 27
1, 41768, Note_off_c, 0, 67, 67
1, 41792, Note_off_c, 0, 72, 57
1, 41805, Note_off_c, 0, 76, 66
1, 41836, Note_on_c, 0, 48, 85
1, 41843, Note_on_c, 0, 40, 72
1, 41843, Note_on_c, 0, 43, 71
1, 41939, Note_off_c, 0, 40, 56
1, 41949, Note_off_c, 0, 48, 50
1, 41952, Note_on_c, 0, 79, 97
1, 41956, Note_on_c, 0, 72, 98
1, 42044, Note_off_c, 0, 43, 0
1, 42056, Note_off_c, 0, 72, 61
1, 42058, Note_on_c, 0, 40, 76
1, 42058, Note_on_c, 0, 43, 40
1, 42061, Note_on_c, 0, 48, 87
1, 42089, Note_off_c, 0, 43, 64
1, 42107, Note_off_c, 0, 48, 62
1, 42107, Note_off_c, 0, 40, 63
1, 42159, Note_on_c, 0, 84, 99
1, 42166, Note_on_c, 0, 76, 89
1, 42181, Note_off_c, 0, 79, 59
1, 42243, Note_off_c, 0, 76, 62
1, 42249, Note_off_c, 0, 84, 63
1, 42276, Control_c, 0, 64, 85
1, 42291, Control_c, 0, 64, 67
1, 42306, Control_c, 0, 64, 50
1, 42321, Control_c, 0, 64, 0
1, 42417, Note_on_c, 0, 72, 58
1, 42438, Note_on_c, 0, 67, 46
1, 42439, Control_c, 0, 67, 19
1, 42440, Note_on_c, 0, 64, 49
1, 42454, Control_c, 0, 67, 37
1, 42469, Control_c, 0, 67, 56
1, 42483, Control_c, 0, 67, 81
1, 42498, Control_c, 0, 67, 102
1, 42513, Control_c, 0, 67, 122
1, 42528, Control_c, 0, 67, 127
1, 42892, Control_c, 0, 64, 19
1, 42907, Control_c, 0, 64, 43
1, 42921, Control_c, 0, 64, 55
1, 42936, Control_c, 0, 64, 60
1, 42951, Control_c, 0, 64, 63
1, 42966, Control_c, 0, 64, 64
1, 42981, Control_c, 0, 64, 66
1, 42995, Control_c, 0, 64, 67
1, 43001, Note_off_c, 0, 72, 0
1, 43010, Control_c, 0, 64, 70
1, 43010, Control_c, 0, 67, 127
1, 43025, Control_c, 0, 64, 73
1, 43025, Control_c, 0, 67, 126
1, 43037, Poly_aftertouch_c, 0, 72, 127
1, 43040, Control_c, 0, 64, 79
1, 43040, Control_c, 0, 67, 125
1, 43054, Control_c, 0, 64, 87
1, 43069, Control_c, 0, 64, 96
1, 43084, Control_c, 0, 64, 108
1, 43099, Control_c, 0, 64, 127
1, 43130, Note_on_c, 0, 73, 59
1, 43131, Note_off_c, 0, 67, 38
1, 43144, Control_c, 0, 67, 125
1, 43151, Note_off_c, 0, 64, 50
1, 43163, Poly_aftertouch_c, 0, 72, 0
1, 43169, Note_off_c, 0, 73, 62
1, 43292, Control_c, 0, 67, 125
1, 43347, Note_on_c, 0, 72, 58
1, 43352, Control_c, 0, 64, 108
1, 43360, Note_on_c, 0, 63, 46
1, 43360, Note_on_c, 0, 67, 45
1, 43367, Control_c, 0, 64, 96
1, 43389, Control_c, 0, 64, 83
1, 43404, Control_c, 0, 64, 72
1, 43411, Note_on_c, 0, 73, 63
1, 43411, Note_off_c, 0, 72, 56
1, 43418, Control_c, 0, 64, 64
1, 43433, Control_c, 0, 64, 55
1, 43448, Control_c, 0, 64, 44
1, 43463, Control_c, 0, 64, 40
1, 43468, Note_off_c, 0, 73, 62
1, 43478, Control_c, 0, 64, 39
1, 43478, Control_c, 0, 67, 125
1, 43478, Note_on_c, 0, 75, 68
1, 43493, Control_c, 0, 64, 37
1, 43493, Control_c, 0, 67, 124
1, 43508, Control_c, 0, 64, 31
1, 43522, Note_off_c, 0, 75, 57
1, 43522, Control_c, 0, 64, 15
1, 43537, Control_c, 0, 64, 0
1, 43543, Note_on_c, 0, 73, 60
1, 43582, Note_off_c, 0, 73, 62
1, 43596, Control_c, 0, 67, 124
1, 43605, Note_on_c, 0, 75, 67
1, 43626, Control_c, 0, 67, 123
1, 43639, Note_off_c, 0, 75, 61
1, 43656, Note_on_c, 0, 73, 74
1, 43656, Control_c, 0, 67, 122
1, 43685, Control_c, 0, 67, 122
1, 43693, Note_off_c, 0, 73, 63
1, 43715, Control_c, 0, 67, 120
1, 43722, Note_on_c, 0, 75, 62
1, 43729, Control_c, 0, 67, 120
1, 43743, Control_c, 0, 67, 118
1, 43753, Note_off_c, 0, 75, 63
1, 43758, Control_c, 0, 67, 107
1, 43771, Note_on_c, 0, 73, 71
1, 43773, Control_c, 0, 67, 95
1, 43788, Control_c, 0, 67, 83
1, 43796, Note_off_c, 0, 73, 68
1, 43803, Control_c, 0, 67, 72
1, 43818, Control_c, 0, 67, 63
1, 43818, Note_on_c, 0, 75, 75
1, 43832, Control_c, 0, 67, 56
1, 43847, Control_c, 0, 67, 51
1, 43855, Note_off_c, 0, 75, 53
1, 43862, Control_c, 0, 67, 47
1, 43877, Control_c, 0, 67, 44
1, 43879, Note_on_c, 0, 73, 72
1, 43892, Control_c, 0, 67, 40
1, 43907, Control_c, 0, 67, 37
1, 43911, Note_off_c, 0, 73, 62
1, 43922, Control_c, 0, 67, 33
1, 43930, Note_on_c, 0, 75, 64
1, 43936, Control_c, 0, 67, 28
1, 43948, Note_off_c, 0, 75, 63
1, 43951, Control_c, 0, 67, 23
1, 43966, Control_c, 0, 67, 19
1, 43980, Note_on_c, 0, 73, 68
1, 43980, Control_c, 0, 67, 16
1, 43995, Control_c, 0, 67, 14
1, 44010, Control_c, 0, 67, 12
1, 44023, Note_off_c, 0, 73, 63
1, 44025, Control_c, 0, 67, 9
1, 44040, Control_c, 0, 67, 8
1, 44054, Control_c, 0, 67, 0
1, 44065, Note_on_c, 0, 72, 63
1, 44069, Control_c, 0, 64, 21
1, 44084, Control_c, 0, 64, 46
1, 44099, Control_c, 0, 64, 58
1, 44110, Note_off_c, 0, 72, 61
1, 44114, Control_c, 0, 64, 64
1, 44137, Control_c, 0, 64, 69
1, 44142, Note_on_c, 0, 73, 72
1, 44152, Control_c, 0, 64, 77
1, 44166, Note_off_c, 0, 73, 70
1, 44166, Control_c, 0, 64, 89
1, 44177, Note_off_c, 0, 63, 61
1, 44181, Control_c, 0, 64, 109
1, 44182, Note_off_c, 0, 67, 60
1, 44196, Control_c, 0, 64, 127
1, 44256, Control_c, 0, 67, 8
1, 44271, Control_c, 0, 67, 10
1, 44285, Control_c, 0, 67, 11
1, 44289, Note_on_c, 0, 82, 78
1, 44300, Control_c, 0, 67, 13
1, 44313, Note_on_c, 0, 79, 50
1, 44315, Control_c, 0, 64, 116
1, 44315, Control_c, 0, 67, 14
1, 44330, Control_c, 0, 64, 97
1, 44330, Control_c, 0, 67, 16
1, 44345, Control_c, 0, 64, 85
1, 44345, Control_c, 0, 67, 17
1, 44359, Control_c, 0, 64, 75
1, 44359, Control_c, 0, 67, 19
1, 44374, Control_c, 0, 64, 67
1, 44374, Control_c, 0, 67, 20
1, 44389, Control_c, 0, 64, 60
1, 44389, Control_c, 0, 67, 21
1, 44404, Control_c, 0, 64, 52
1, 44404, Control_c, 0, 67, 23
1, 44406, Note_on_c, 0, 75, 58
1, 44418, Control_c, 0, 64, 44
1, 44418, Control_c, 0, 67, 25
1, 44433, Control_c, 0, 64, 42
1, 44433, Control_c, 0, 67, 27
1, 44438, Note_off_c, 0, 75, 63
1, 44448, Control_c, 0, 64, 40
1, 44448, Control_c, 0, 67, 34
1, 44463, Control_c, 0, 64, 35
1, 44463, Control_c, 0, 67, 50
1, 44479, Control_c, 0, 64, 21
1, 44479, Control_c, 0, 67, 68
1, 44493, Control_c, 0, 64, 0
1, 44493, Control_c, 0, 67, 87
1, 44508, Control_c, 0, 67, 103
1, 44523, Control_c, 0, 67, 117
1, 44528, Note_on_c, 0, 75, 46
1, 44538, Control_c, 0, 67, 127
1, 44553, Note_off_c, 0, 75, 56
1, 44626, Note_on_c, 0, 75, 63
1, 44658, Note_off_c, 0, 75, 66
1, 44746, Note_on_c, 0, 75, 51
1, 44771, Note_off_c, 0, 75, 55
1, 44785, Note_off_c, 0, 82, 56
1, 44792, Note_off_c, 0, 79, 61
1, 44834, Control_c, 0, 67, 127
1, 44849, Control_c, 0, 67, 126
1, 44850, Note_on_c, 0, 75, 62
1, 44864, Control_c, 0, 67, 125
1, 44885, Control_c, 0, 67, 124
1, 44893, Note_off_c, 0, 75, 62
1, 44900, Control_c, 0, 67, 122
1, 44915, Control_c, 0, 67, 121
1, 44931, Control_c, 0, 67, 120
1, 44946, Control_c, 0, 67, 119
1, 44961, Control_c, 0, 67, 118
1, 44974, Note_on_c, 0, 75, 57
1, 44976, Control_c, 0, 67, 117
1, 44990, Control_c, 0, 67, 116
1, 44995, Note_off_c, 0, 75, 62
1, 45070, Note_on_c, 0, 75, 66
1, 45100, Note_off_c, 0, 75, 66
1, 45123, Control_c, 0, 67, 115
1, 45183, Control_c, 0, 67, 115
1, 45185, Note_on_c, 0, 75, 63
1, 45229, Note_off_c, 0, 75, 60
1, 45242, Control_c, 0, 67, 115
1, 45287, Control_c, 0, 67, 116
1, 45308, Note_on_c, 0, 75, 55
1, 45341, Note_off_c, 0, 75, 62
1, 45414, Note_on_c, 0, 75, 69
1, 45442, Note_off_c, 0, 75, 67
1, 45535, Note_on_c, 0, 75, 65
1, 45563, Note_off_c, 0, 75, 63
1, 45634, Control_c, 0, 67, 115
1, 45657, Note_on_c, 0, 83, 72
1, 45659, Note_on_c, 0, 80, 62
1, 45679, Control_c, 0, 67, 115
1, 45708, Control_c, 0, 67, 114
1, 45739, Control_c, 0, 67, 114
1, 45769, Control_c, 0, 67, 112
1, 45770, Note_on_c, 0, 75, 65
1, 45784, Control_c, 0, 67, 112
1, 45799, Control_c, 0, 67, 111
1, 45800, Note_off_c, 0, 75, 66
1, 45813, Control_c, 0, 67, 110
1, 45828, Control_c, 0, 67, 109
1, 45843, Control_c, 0, 67, 108
1, 45857, Control_c, 0, 67, 107
1, 45872, Control_c, 0, 67, 107
1, 45886, Note_on_c, 0, 75, 62
1, 45902, Control_c, 0, 67, 106
1, 45917, Control_c, 0, 67, 105
1, 45921, Note_off_c, 0, 75, 63
1, 45931, Control_c, 0, 67, 105
1, 45946, Note_off_c, 0, 80, 61
1, 45946, Control_c, 0, 67, 104
1, 45953, Note_off_c, 0, 83, 61
1, 45976, Control_c, 0, 67, 103
1, 45988, Note_on_c, 0, 71, 56
1, 45990, Control_c, 0, 67, 100
1, 45994, Note_on_c, 0, 68, 51
1, 46004, Control_c, 0, 67, 97
1, 46019, Control_c, 0, 67, 93
1, 46034, Control_c, 0, 67, 90
1, 46048, Control_c, 0, 67, 88
1, 46063, Control_c, 0, 67, 87
1, 46078, Control_c, 0, 67, 87
1, 46093, Control_c, 0, 67, 86
1, 46099, Note_on_c, 0, 75, 62
1, 46099, Note_off_c, 0, 71, 62
1, 46132, Note_off_c, 0, 75, 64
1, 46135, Note_off_c, 0, 68, 61
1, 46152, Control_c, 0, 67, 85
1, 46225, Note_on_c, 0, 75, 57
1, 46252, Note_off_c, 0, 75, 63
1, 46328, Note_on_c, 0, 75, 67
1, 46360, Control_c, 0, 67, 85
1, 46360, Note_off_c, 0, 75, 64
1, 46455, Note_on_c, 0, 75, 65
1, 46485, Note_off_c, 0, 75, 64
1, 46563, Note_on_c, 0, 75, 61
1, 46601, Note_off_c, 0, 75, 62
1, 46649, Control_c, 0, 67, 84
1, 46679, Note_on_c, 0, 75, 61
1, 46694, Control_c, 0, 67, 83
1, 46709, Control_c, 0, 67, 83
1, 46712, Note_off_c, 0, 75, 64
1, 46724, Control_c, 0, 67, 82
1, 46739, Control_c, 0, 67, 82
1, 46753, Control_c, 0, 67, 80
1, 46768, Control_c, 0, 67, 80
1, 46783, Control_c, 0, 67, 73
1, 46786, Note_on_c, 0, 75, 72
1, 46797, Control_c, 0, 67, 42
1, 46812, Control_c, 0, 67, 0
1, 46818, Note_off_c, 0, 75, 62
1, 46857, Control_c, 0, 64, 44
1, 46871, Control_c, 0, 64, 60
1, 46886, Control_c, 0, 64, 67
1, 46894, Note_on_c, 0, 75, 90
1, 46901, Control_c, 0, 64, 75
1, 46916, Control_c, 0, 64, 91
1, 46931, Control_c, 0, 64, 127
1, 46950, Note_off_c, 0, 75, 60
1, 47015, Note_on_c, 0, 88, 94
1, 47017, Note_on_c, 0, 83, 83
1, 47026, Note_on_c, 0, 80, 81
1, 47094, Control_c, 0, 64, 103
1, 47108, Control_c, 0, 64, 86
1, 47131, Control_c, 0, 64, 75
1, 47142, Note_on_c, 0, 75, 72
1, 47146, Control_c, 0, 64, 67
1, 47160, Control_c, 0, 64, 59
1, 47175, Control_c, 0, 64, 51
1, 47181, Note_off_c, 0, 75, 59
1, 47190, Control_c, 0, 64, 44
1, 47204, Control_c, 0, 64, 41
1, 47219, Control_c, 0, 64, 39
1, 47234, Control_c, 0, 64, 36
1, 47249, Control_c, 0, 64, 31
1, 47257, Note_on_c, 0, 75, 62
1, 47264, Control_c, 0, 64, 22
1, 47278, Control_c, 0, 64, 9
1, 47293, Control_c, 0, 64, 0
1, 47297, Note_off_c, 0, 75, 61
1, 47385, Note_on_c, 0, 71, 56
1, 47399, Note_on_c, 0, 68, 50
1, 47413, Control_c, 0, 67, 12
1, 47427, Control_c, 0, 67, 39
1, 47442, Control_c, 0, 67, 65
1, 47457, Control_c, 0, 67, 95
1, 47472, Control_c, 0, 67, 120
1, 47487, Control_c, 0, 67, 127
1, 47496, Note_off_c, 0, 71, 62
1, 47497, Note_on_c, 0, 75, 67
1, 47503, Note_off_c, 0, 68, 54
1, 47535, Note_off_c, 0, 75, 61
1, 47636, Note_on_c, 0, 75, 57
1, 47657, Note_off_c, 0, 75, 60
1, 47740, Note_on_c, 0, 71, 57
1, 47745, Note_on_c, 0, 68, 51
1, 47841, Note_off_c, 0, 71, 64
1, 47854, Note_off_c, 0, 68, 58
1, 47860, Note_on_c, 0, 75, 47
1, 47892, Note_off_c, 0, 75, 57
1, 47973, Note_on_c, 0, 75, 58
1, 48011, Note_off_c, 0, 75, 61
1, 48102, Note_on_c, 0, 71, 54
1, 48107, Note_on_c, 0, 68, 49
1, 48218, Note_off_c, 0, 71, 63
1, 48227, Note_on_c, 0, 75, 66
1, 48238, Note_off_c, 0, 68, 59
1, 48257, Note_off_c, 0, 75, 66
1, 48264, Note_off_c, 0, 83, 59
1, 48340, Note_off_c, 0, 80, 59
1, 48346, Note_on_c, 0, 75, 61
1, 48387, Note_off_c, 0, 75, 61
1, 48400, Note_off_c, 0, 88, 32
1, 48414, Control_c, 0, 64, 35
1, 48429, Control_c, 0, 64, 55
1, 48444, Control_c, 0, 64, 65
1, 48453, Note_on_c, 0, 70, 59
1, 48459, Control_c, 0, 64, 74
1, 48466, Note_on_c, 0, 87, 67
1, 48469, Note_on_c, 0, 82, 62
1, 48474, Control_c, 0, 64, 94
1, 48480, Note_off_c, 0, 70, 67
1, 48483, Note_on_c, 0, 79, 54
1, 48489, Control_c, 0, 64, 127
1, 48593, Control_c, 0, 64, 117
1, 48607, Control_c, 0, 64, 94
1, 48608, Note_on_c, 0, 63, 20
1, 48629, Control_c, 0, 64, 81
1, 48644, Control_c, 0, 64, 71
1, 48656, Note_off_c, 0, 63, 42
1, 48659, Control_c, 0, 64, 63
1, 48673, Control_c, 0, 64, 54
1, 48688, Control_c, 0, 64, 45
1, 48703, Note_on_c, 0, 63, 47
1, 48703, Control_c, 0, 64, 43
1, 48732, Note_off_c, 0, 63, 62
1, 48733, Control_c, 0, 64, 42
1, 48748, Control_c, 0, 64, 38
1, 48763, Control_c, 0, 64, 31
1, 48778, Control_c, 0, 64, 21
1, 48793, Control_c, 0, 64, 0
1, 48810, Note_on_c, 0, 63, 62
1, 48840, Note_off_c, 0, 63, 65
1, 48856, Note_off_c, 0, 87, 51
1, 48882, Note_off_c, 0, 82, 59
1, 48909, Note_off_c, 0, 79, 55
1, 48915, Note_on_c, 0, 63, 63
1, 48949, Note_off_c, 0, 63, 64
1, 48971, Control_c, 0, 67, 125
1, 48986, Control_c, 0, 67, 124
1, 49001, Control_c, 0, 67, 123
1, 49016, Control_c, 0, 67, 122
1, 49028, Note_on_c, 0, 63, 66
1, 49030, Control_c, 0, 67, 120
1, 49045, Control_c, 0, 67, 116
1, 49060, Control_c, 0, 67, 111
1, 49062, Note_off_c, 0, 63, 64
1, 49074, Control_c, 0, 67, 107
1, 49089, Control_c, 0, 67, 105
1, 49104, Control_c, 0, 67, 103
1, 49119, Control_c, 0, 67, 102
1, 49148, Note_on_c, 0, 63, 62
1, 49180, Note_off_c, 0, 63, 64
1, 49208, Control_c, 0, 67, 101
1, 49222, Control_c, 0, 67, 100
1, 49237, Control_c, 0, 67, 100
1, 49249, Note_on_c, 0, 63, 61
1, 49267, Control_c, 0, 67, 99
1, 49278, Note_off_c, 0, 63, 66
1, 49282, Control_c, 0, 67, 98
1, 49311, Control_c, 0, 67, 98
1, 49326, Control_c, 0, 67, 94
1, 49341, Control_c, 0, 67, 85
1, 49348, Note_on_c, 0, 63, 60
1, 49356, Control_c, 0, 67, 77
1, 49378, Control_c, 0, 67, 68
1, 49392, Note_off_c, 0, 63, 63
1, 49393, Control_c, 0, 67, 59
1, 49408, Control_c, 0, 67, 51
1, 49423, Control_c, 0, 67, 45
1, 49437, Control_c, 0, 67, 38
1, 49452, Control_c, 0, 67, 32
1, 49467, Control_c, 0, 67, 25
1, 49473, Note_on_c, 0, 63, 57
1, 49481, Control_c, 0, 67, 18
1, 49484, Note_on_c, 0, 82, 76
1, 49493, Note_on_c, 0, 79, 64
1, 49496, Control_c, 0, 67, 11
1, 49511, Control_c, 0, 67, 0
1, 49512, Note_off_c, 0, 63, 63
1, 49541, Control_c, 0, 64, 30
1, 49556, Control_c, 0, 64, 49
1, 49571, Control_c, 0, 64, 59
1, 49574, Note_off_c, 0, 79, 57
1, 49586, Control_c, 0, 64, 64
1, 49600, Control_c, 0, 64, 67
1, 49601, Note_on_c, 0, 63, 64
1, 49615, Control_c, 0, 64, 71
1, 49627, Note_off_c, 0, 82, 60
1, 49630, Control_c, 0, 64, 77
1, 49631, Note_off_c, 0, 63, 65
1, 49645, Control_c, 0, 64, 83
1, 49660, Control_c, 0, 64, 91
1, 49674, Control_c, 0, 64, 97
1, 49689, Control_c, 0, 64, 102
1, 49702, Note_on_c, 0, 63, 67
1, 49704, Control_c, 0, 64, 104
1, 49738, Note_on_c, 0, 82, 84
1, 49748, Note_on_c, 0, 79, 73
1, 49750, Control_c, 0, 64, 103
1, 49757, Note_off_c, 0, 63, 62
1, 49764, Control_c, 0, 64, 100
1, 49775, Note_off_c, 0, 79, 67
1, 49779, Control_c, 0, 64, 96
1, 49791, Note_off_c, 0, 82, 57
1, 49794, Control_c, 0, 64, 89
1, 49809, Control_c, 0, 64, 81
1, 49821, Note_on_c, 0, 83, 83
1, 49824, Control_c, 0, 64, 69
1, 49831, Note_on_c, 0, 80, 73
1, 49832, Note_on_c, 0, 63, 58
1, 49839, Control_c, 0, 64, 59
1, 49853, Control_c, 0, 64, 40
1, 49868, Note_off_c, 0, 63, 65
1, 49868, Control_c, 0, 64, 17
1, 49883, Control_c, 0, 64, 13
1, 49912, Control_c, 0, 64, 12
1, 49927, Control_c, 0, 64, 9
1, 49942, Control_c, 0, 64, 0
1, 49946, Note_on_c, 0, 63, 59
1, 49971, Control_c, 0, 67, 10
1, 49979, Note_off_c, 0, 63, 65
1, 49986, Control_c, 0, 67, 38
1, 50001, Control_c, 0, 67, 68
1, 50016, Control_c, 0, 67, 92
1, 50030, Control_c, 0, 67, 112
1, 50045, Control_c, 0, 67, 127
1, 50048, Note_off_c, 0, 83, 56
1, 50059, Note_on_c, 0, 82, 68
1, 50066, Note_on_c, 0, 63, 56
1, 50074, Note_on_c, 0, 79, 62
1, 50078, Note_off_c, 0, 80, 51
1, 50104, Note_off_c, 0, 63, 62
1, 50127, Note_off_c, 0, 82, 66
1, 50132, Note_off_c, 0, 79, 64
1, 50195, Note_on_c, 0, 63, 56
1, 50223, Note_off_c, 0, 63, 63
1, 50299, Note_on_c, 0, 63, 58
1, 50333, Note_off_c, 0, 63, 64
1, 50349, Control_c, 0, 67, 127
1, 50364, Control_c, 0, 67, 126
1, 50379, Control_c, 0, 67, 125
1, 50409, Note_on_c, 0, 63, 61
1, 50418, Note_on_c, 0, 70, 64
1, 50431, Note_on_c, 0, 67, 45
1, 50443, Note_off_c, 0, 63, 65
1, 50447, Note_off_c, 0, 70, 69
1, 50456, Note_off_c, 0, 67, 59
1, 50534, Note_on_c, 0, 63, 59
1, 50566, Note_off_c, 0, 63, 65
1, 50601, Control_c, 0, 67, 126
1, 50616, Control_c, 0, 67, 127
1, 50631, Control_c, 0, 67, 127
1, 50637, Note_on_c, 0, 63, 61
1, 50672, Note_off_c, 0, 63, 64
1, 50751, Note_on_c, 0, 58, 76
1, 50757, Note_on_c, 0, 55, 64
1, 50779, Note_off_c, 0, 58, 68
1, 50779, Control_c, 0, 67, 126
1, 50781, Note_on_c, 0, 63, 41
1, 50788, Note_off_c, 0, 55, 65
1, 50793, Control_c, 0, 67, 124
1, 50808, Control_c, 0, 67, 122
1, 50809, Note_off_c, 0, 63, 55
1, 50823, Control_c, 0, 67, 113
1, 50838, Control_c, 0, 67, 86
1, 50853, Control_c, 0, 67, 53
1, 50875, Control_c, 0, 67, 16
1, 50877, Note_on_c, 0, 61, 64
1, 50887, Note_on_c, 0, 58, 62
1, 50890, Control_c, 0, 67, 0
1, 50905, Control_c, 0, 64, 35
1, 50920, Control_c, 0, 64, 51
1, 50934, Control_c, 0, 64, 62
1, 50936, Note_off_c, 0, 58, 59
1, 50949, Control_c, 0, 64, 67
1, 50964, Control_c, 0, 64, 74
1, 50977, Note_off_c, 0, 61, 38
1, 50979, Control_c, 0, 64, 88
1, 50994, Control_c, 0, 64, 127
1, 51011, Note_on_c, 0, 63, 56
1, 51039, Note_off_c, 0, 63, 62
1, 51110, Note_on_c, 0, 63, 66
1, 51121, Note_on_c, 0, 79, 70
1, 51123, Note_on_c, 0, 82, 80
1, 51141, Note_off_c, 0, 63, 64
1, 51149, Note_off_c, 0, 79, 68
1, 51191, Note_off_c, 0, 82, 0
1, 51209, Note_on_c, 0, 85, 93
1, 51216, Note_on_c, 0, 63, 69
1, 51228, Poly_aftertouch_c, 0, 82, 127
1, 51231, Control_c, 0, 64, 100
1, 51245, Control_c, 0, 64, 81
1, 51255, Note_off_c, 0, 63, 62
1, 51260, Control_c, 0, 64, 67
1, 51275, Control_c, 0, 64, 56
1, 51290, Control_c, 0, 64, 35
1, 51305, Control_c, 0, 64, 21
1, 51336, Note_on_c, 0, 63, 65
1, 51365, Control_c, 0, 64, 20
1, 51374, Note_off_c, 0, 63, 61
1, 51380, Control_c, 0, 64, 18
1, 51395, Control_c, 0, 64, 17
1, 51410, Control_c, 0, 64, 16
1, 51435, Note_on_c, 0, 83, 77
1, 51447, Note_on_c, 0, 80, 64
1, 51447, Note_off_c, 0, 85, 60
1, 51454, Note_on_c, 0, 63, 65
1, 51460, Poly_aftertouch_c, 0, 82, 0
1, 51475, Note_off_c, 0, 83, 65
1, 51483, Control_c, 0, 64, 15
1, 51486, Note_off_c, 0, 63, 64
1, 51498, Control_c, 0, 64, 12
1, 51500, Note_off_c, 0, 80, 61
1, 51513, Control_c, 0, 64, 9
1, 51528, Control_c, 0, 64, 0
1, 51558, Note_on_c, 0, 63, 64
1, 51592, Note_off_c, 0, 63, 64
1, 51694, Note_on_c, 0, 63, 48
1, 51719, Note_off_c, 0, 63, 58
1, 51789, Note_on_c, 0, 63, 66
1, 51794, Note_on_c, 0, 68, 69
1, 51795, Note_on_c, 0, 71, 68
1, 51821, Note_off_c, 0, 63, 64
1, 51833, Note_off_c, 0, 68, 60
1, 51836, Note_off_c, 0, 71, 63
1, 51909, Note_on_c, 0, 63, 60
1, 51943, Note_off_c, 0, 63, 64
1, 52013, Note_on_c, 0, 63, 66
1, 52060, Note_off_c, 0, 63, 62
1, 52129, Note_on_c, 0, 59, 78
1, 52140, Note_on_c, 0, 56, 66
1, 52144, Control_c, 0, 64, 9
1, 52166, Note_on_c, 0, 63, 24
1, 52169, Note_off_c, 0, 56, 66
1, 52169, Note_off_c, 0, 59, 62
1, 52188, Control_c, 0, 64, 0
1, 52202, Note_off_c, 0, 63, 42
1, 52251, Note_on_c, 0, 59, 73
1, 52292, Control_c, 0, 64, 32
1, 52302, Note_off_c, 0, 59, 63
1, 52307, Control_c, 0, 64, 57
1, 52322, Control_c, 0, 64, 69
1, 52337, Control_c, 0, 64, 84
1, 52352, Control_c, 0, 64, 127
1, 52382, Note_on_c, 0, 63, 84
1, 52435, Note_off_c, 0, 63, 59
1, 52459, Note_on_c, 0, 63, 64
1, 52516, Note_off_c, 0, 63, 63
1, 52518, Note_on_c, 0, 83, 89
1, 52520, Note_on_c, 0, 80, 91
1, 52570, Note_off_c, 0, 80, 63
1, 52581, Note_off_c, 0, 83, 64
1, 52659, Note_on_c, 0, 88, 95
1, 52662, Note_on_c, 0, 83, 95
1, 52665, Note_on_c, 0, 80, 96
1, 52714, Control_c, 0, 64, 113
1, 52729, Control_c, 0, 64, 88
1, 52744, Control_c, 0, 64, 73
1, 52759, Control_c, 0, 64, 62
1, 52773, Control_c, 0, 64, 46
1, 52788, Control_c, 0, 64, 30
1, 52798, Note_on_c, 0, 63, 66
1, 52803, Control_c, 0, 64, 30
1, 52817, Control_c, 0, 64, 29
1, 52830, Note_off_c, 0, 63, 63
1, 52832, Control_c, 0, 64, 26
1, 52847, Control_c, 0, 64, 16
1, 52862, Control_c, 0, 64, 0
1, 52916, Note_on_c, 0, 63, 60
1, 52947, Note_off_c, 0, 63, 65
1, 53024, Note_on_c, 0, 59, 57
1, 53035, Note_on_c, 0, 56, 48
1, 53139, Note_off_c, 0, 59, 61
1, 53140, Note_on_c, 0, 63, 59
1, 53160, Note_off_c, 0, 56, 59
1, 53174, Note_off_c, 0, 63, 64
1, 53255, Control_c, 0, 67, 20
1, 53258, Note_on_c, 0, 63, 56
1, 53270, Control_c, 0, 67, 34
1, 53285, Control_c, 0, 67, 50
1, 53300, Note_off_c, 0, 63, 60
1, 53300, Control_c, 0, 67, 66
1, 53315, Control_c, 0, 67, 85
1, 53330, Control_c, 0, 67, 103
1, 53345, Control_c, 0, 67, 120
1, 53359, Control_c, 0, 67, 127
1, 53378, Note_on_c, 0, 59, 51
1, 53380, Note_on_c, 0, 56, 43
1, 53491, Note_off_c, 0, 59, 62
1, 53494, Note_on_c, 0, 63, 58
1, 53506, Note_off_c, 0, 56, 61
1, 53523, Note_off_c, 0, 63, 65
1, 53600, Note_on_c, 0, 63, 57
1, 53641, Note_off_c, 0, 63, 61
1, 53731, Note_on_c, 0, 59, 53
1, 53741, Note_on_c, 0, 56, 46
1, 53849, Note_off_c, 0, 59, 62
1, 53855, Note_on_c, 0, 63, 59
1, 53860, Note_off_c, 0, 83, 51
1, 53875, Note_off_c, 0, 56, 62
1, 53899, Note_off_c, 0, 63, 63
1, 53933, Note_off_c, 0, 80, 50
1, 53984, Note_on_c, 0, 63, 47
1, 54009, Note_off_c, 0, 63, 58
1, 54099, Note_on_c, 0, 87, 67
1, 54105, Note_off_c, 0, 88, 52
1, 54116, Note_on_c, 0, 82, 51
1, 54117, Note_on_c, 0, 79, 48
1, 54227, Note_on_c, 0, 63, 55
1, 54263, Note_off_c, 0, 63, 64
1, 54343, Note_on_c, 0, 63, 57
1, 54376, Note_off_c, 0, 87, 61
1, 54384, Note_off_c, 0, 63, 61
1, 54394, Note_off_c, 0, 82, 63
1, 54402, Note_off_c, 0, 79, 57
1, 54468, Note_on_c, 0, 55, 46
1, 54471, Note_on_c, 0, 58, 58
1, 54538, Control_c, 0, 67, 125
1, 54553, Control_c, 0, 67, 114
1, 54567, Control_c, 0, 67, 100
1, 54582, Control_c, 0, 67, 85
1, 54583, Note_off_c, 0, 58, 62
1, 54588, Note_on_c, 0, 63, 64
1, 54597, Note_off_c, 0, 55, 59
1, 54597, Control_c, 0, 67, 68
1, 54620, Control_c, 0, 67, 56
1, 54629, Note_off_c, 0, 63, 64
1, 54635, Control_c, 0, 67, 46
1, 54649, Control_c, 0, 67, 42
1, 54664, Control_c, 0, 67, 41
1, 54693, Control_c, 0, 67, 42
1, 54697, Note_on_c, 0, 63, 70
1, 54708, Control_c, 0, 67, 43
1, 54723, Control_c, 0, 67, 43
1, 54738, Control_c, 0, 67, 45
1, 54753, Control_c, 0, 67, 45
1, 54763, Note_off_c, 0, 63, 59
1, 54767, Control_c, 0, 67, 46
1, 54782, Control_c, 0, 67, 47
1, 54797, Control_c, 0, 67, 48
1, 54812, Control_c, 0, 67, 48
1, 54841, Control_c, 0, 67, 49
1, 54845, Note_on_c, 0, 69, 60
1, 54845, Note_on_c, 0, 75, 74
1, 54862, Note_on_c, 0, 66, 53
1, 54886, Control_c, 0, 67, 50
1, 54915, Control_c, 0, 67, 50
1, 54945, Control_c, 0, 67, 51
1, 54960, Control_c, 0, 67, 51
1, 54975, Control_c, 0, 67, 52
1, 54985, Note_on_c, 0, 63, 56
1, 54990, Control_c, 0, 67, 54
1, 55005, Control_c, 0, 67, 55
1, 55020, Control_c, 0, 67, 57
1, 55023, Note_off_c, 0, 63, 62
1, 55035, Control_c, 0, 67, 60
1, 55049, Control_c, 0, 67, 61
1, 55064, Control_c, 0, 67, 63
1, 55079, Control_c, 0, 67, 65
1, 55093, Control_c, 0, 67, 67
1, 55106, Note_on_c, 0, 63, 51
1, 55108, Control_c, 0, 67, 69
1, 55123, Control_c, 0, 67, 72
1, 55138, Control_c, 0, 67, 82
1, 55148, Note_off_c, 0, 63, 61
1, 55153, Control_c, 0, 67, 97
1, 55167, Control_c, 0, 67, 117
1, 55182, Control_c, 0, 67, 127
1, 55232, Note_on_c, 0, 54, 43
1, 55241, Note_on_c, 0, 57, 43
1, 55356, Note_on_c, 0, 63, 52
1, 55370, Note_off_c, 0, 57, 63
1, 55399, Note_off_c, 0, 54, 34
1, 55399, Note_off_c, 0, 63, 63
1, 55411, Note_off_c, 0, 69, 50
1, 55450, Note_off_c, 0, 66, 41
1, 55482, Note_on_c, 0, 63, 56
1, 55523, Note_off_c, 0, 63, 60
1, 55601, Note_on_c, 0, 74, 59
1, 55606, Note_on_c, 0, 68, 49
1, 55608, Note_on_c, 0, 65, 46
1, 55633, Note_off_c, 0, 75, 62
1, 55725, Note_on_c, 0, 63, 45
1, 55755, Note_off_c, 0, 63, 57
1, 55834, Note_on_c, 0, 63, 61
1, 55852, Note_off_c, 0, 74, 59
1, 55882, Note_off_c, 0, 63, 55
1, 55911, Note_off_c, 0, 68, 59
1, 55916, Note_off_c, 0, 65, 56
1, 55973, Note_on_c, 0, 56, 49
1, 55974, Note_on_c, 0, 53, 44
1, 56071, Note_off_c, 0, 53, 61
1, 56087, Note_on_c, 0, 63, 54
1, 56104, Note_off_c, 0, 56, 58
1, 56138, Note_off_c, 0, 63, 60
1, 56210, Note_on_c, 0, 63, 61
1, 56263, Note_off_c, 0, 63, 52
1, 56337, Note_on_c, 0, 64, 45
1, 56341, Note_on_c, 0, 67, 46
1, 56343, Note_on_c, 0, 73, 53
1, 56452, Note_on_c, 0, 63, 51
1, 56485, Note_off_c, 0, 63, 61
1, 56519, Note_off_c, 0, 64, 55
1, 56562, Note_off_c, 0, 67, 43
1, 56566, Note_off_c, 0, 73, 56
1, 56572, Note_on_c, 0, 63, 55
1, 56615, Note_off_c, 0, 63, 59
1, 56692, Note_on_c, 0, 52, 43
1, 56695, Note_on_c, 0, 55, 42
1, 56806, Note_off_c, 0, 55, 58
1, 56825, Note_on_c, 0, 63, 53
1, 56827, Note_off_c, 0, 52, 51
1, 56871, Note_off_c, 0, 63, 62
1, 56957, Note_on_c, 0, 63, 52
1, 57021, Note_off_c, 0, 63, 53
1, 57102, Control_c, 0, 64, 25
1, 57117, Control_c, 0, 64, 41
1, 57127, Note_on_c, 0, 73, 56
1, 57132, Control_c, 0, 64, 49
1, 57138, Note_on_c, 0, 67, 47
1, 57147, Control_c, 0, 64, 53
1, 57154, Note_on_c, 0, 63, 45
1, 57161, Control_c, 0, 64, 55
1, 57176, Control_c, 0, 64, 56
1, 57191, Control_c, 0, 64, 56
1, 57206, Control_c, 0, 64, 57
1, 57261, Note_on_c, 0, 51, 57
1, 57297, Note_off_c, 0, 51, 64
1, 57369, Control_c, 0, 64, 56
1, 57387, Note_on_c, 0, 51, 52
1, 57413, Note_off_c, 0, 51, 55
1, 57413, Control_c, 0, 64, 56
1, 57458, Control_c, 0, 64, 55
1, 57483, Note_on_c, 0, 51, 63
1, 57517, Control_c, 0, 64, 55
1, 57520, Note_off_c, 0, 51, 64
1, 57591, Control_c, 0, 64, 54
1, 57619, Note_on_c, 0, 51, 55
1, 57640, Note_off_c, 0, 73, 58
1, 57643, Control_c, 0, 64, 54
1, 57651, Note_off_c, 0, 51, 64
1, 57654, Note_off_c, 0, 67, 54
1, 57686, Note_off_c, 0, 63, 55
1, 57718, Control_c, 0, 64, 53
1, 57733, Note_on_c, 0, 51, 62
1, 57747, Control_c, 0, 64, 53
1, 57762, Control_c, 0, 64, 52
1, 57774, Note_off_c, 0, 51, 64
1, 57792, Control_c, 0, 64, 52
1, 57807, Control_c, 0, 64, 51
1, 57822, Control_c, 0, 64, 50
1, 57837, Control_c, 0, 64, 49
1, 57852, Control_c, 0, 64, 49
1, 57856, Note_on_c, 0, 51, 60
1, 57880, Note_off_c, 0, 51, 62
1, 57881, Control_c, 0, 64, 48
1, 57896, Control_c, 0, 64, 48
1, 57910, Control_c, 0, 64, 47
1, 57925, Control_c, 0, 64, 47
1, 57962, Note_on_c, 0, 51, 56
1, 58001, Note_off_c, 0, 51, 63
1, 58029, Control_c, 0, 64, 47
1, 58044, Control_c, 0, 64, 48
1, 58058, Control_c, 0, 64, 48
1, 58082, Note_on_c, 0, 51, 61
1, 58102, Control_c, 0, 64, 49
1, 58112, Note_off_c, 0, 51, 65
1, 58147, Control_c, 0, 64, 49
1, 58177, Control_c, 0, 64, 50
1, 58192, Note_on_c, 0, 51, 60
1, 58223, Note_off_c, 0, 51, 65
1, 58236, Control_c, 0, 64, 50
1, 58296, Control_c, 0, 64, 51
1, 58304, Note_on_c, 0, 51, 58
1, 58339, Note_off_c, 0, 51, 63
1, 58340, Control_c, 0, 64, 51
1, 58427, Note_on_c, 0, 51, 61
1, 58460, Note_off_c, 0, 51, 64
1, 58554, Note_on_c, 0, 61, 53
1, 58564, Note_on_c, 0, 58, 44
1, 58568, Note_on_c, 0, 55, 49
1, 58570, Control_c, 0, 64, 51
1, 58673, Note_on_c, 0, 39, 43
1, 58674, Control_c, 0, 64, 51
1, 58689, Control_c, 0, 64, 52
1, 58704, Control_c, 0, 64, 52
1, 58706, Note_off_c, 0, 39, 59
1, 58719, Control_c, 0, 64, 53
1, 58748, Control_c, 0, 64, 53
1, 58778, Control_c, 0, 64, 54
1, 58803, Note_on_c, 0, 39, 43
1, 58838, Note_off_c, 0, 39, 49
1, 58914, Note_on_c, 0, 39, 57
1, 58941, Note_off_c, 0, 58, 42
1, 58947, Note_off_c, 0, 39, 63
1, 58949, Note_off_c, 0, 55, 52
1, 58955, Note_off_c, 0, 61, 55
1, 59031, Note_on_c, 0, 39, 54
1, 59068, Note_off_c, 0, 39, 62
1, 59161, Note_on_c, 0, 39, 51
1, 59198, Note_off_c, 0, 39, 63
1, 59229, Control_c, 0, 64, 54
1, 59259, Control_c, 0, 64, 55
1, 59274, Control_c, 0, 64, 55
1, 59297, Note_on_c, 0, 39, 41
1, 59303, Control_c, 0, 64, 56
1, 59319, Control_c, 0, 64, 56
1, 59337, Note_off_c, 0, 39, 47
1, 59349, Control_c, 0, 64, 57
1, 59378, Control_c, 0, 64, 57
1, 59393, Control_c, 0, 64, 58
1, 59422, Note_on_c, 0, 39, 39
1, 59423, Control_c, 0, 64, 58
1, 59438, Control_c, 0, 64, 59
1, 59452, Control_c, 0, 64, 59
1, 59459, Note_off_c, 0, 39, 46
1, 59483, Control_c, 0, 64, 60
1, 59527, Control_c, 0, 64, 60
1, 59543, Note_on_c, 0, 39, 47
1, 59572, Control_c, 0, 64, 61
1, 59575, Note_off_c, 0, 39, 60
1, 59601, Control_c, 0, 64, 61
1, 59646, Control_c, 0, 64, 62
1, 59688, Note_on_c, 0, 39, 28
1, 59690, Control_c, 0, 64, 62
1, 59733, Note_off_c, 0, 39, 41
1, 59735, Control_c, 0, 64, 63
1, 59779, Control_c, 0, 64, 63
1, 59794, Control_c, 0, 64, 64
1, 59824, Control_c, 0, 64, 64
1, 59830, Note_on_c, 0, 39, 26
1, 59838, Control_c, 0, 64, 65
1, 59861, Control_c, 0, 64, 65
1, 59876, Control_c, 0, 64, 66
1, 59883, Note_off_c, 0, 39, 43
1, 59890, Control_c, 0, 64, 66
1, 59905, Control_c, 0, 64, 67
1, 59935, Control_c, 0, 64, 67
1, 59950, Control_c, 0, 64, 68
1, 59964, Control_c, 0, 64, 68
1, 59979, Control_c, 0, 64, 69
1, 59994, Control_c, 0, 64, 69
1, 60156, Note_on_c, 0, 32, 43
1, 60202, Control_c, 0, 64, 69
1, 60261, Control_c, 0, 64, 68
1, 60291, Control_c, 0, 64, 68
1, 60314, Note_on_c, 0, 44, 38
1, 60317, Note_on_c, 0, 36, 39
1, 60319, Note_on_c, 0, 39, 34
1, 60333, Note_off_c, 0, 32, 45
1, 60335, Control_c, 0, 64, 67
1, 60365, Control_c, 0, 64, 67
1, 60379, Control_c, 0, 64, 66
1, 60394, Control_c, 0, 64, 66
1, 60421, Note_off_c, 0, 44, 52
1, 60424, Control_c, 0, 64, 65
1, 60435, Note_off_c, 0, 36, 53
1, 60439, Control_c, 0, 64, 65
1, 60442, Note_on_c, 0, 32, 42
1, 60454, Control_c, 0, 64, 64
1, 60455, Note_off_c, 0, 39, 36
1, 60469, Control_c, 0, 64, 64
1, 60499, Control_c, 0, 64, 64
1, 60543, Control_c, 0, 64, 65
1, 60579, Note_on_c, 0, 39, 39
1, 60581, Note_on_c, 0, 44, 44
1, 60585, Note_off_c, 0, 32, 49
1, 60592, Note_on_c, 0, 36, 40
1, 60639, Control_c, 0, 64, 64
1, 60657, Note_off_c, 0, 44, 49
1, 60672, Note_off_c, 0, 39, 53
1, 60674, Note_off_c, 0, 36, 54
1, 60710, Note_on_c, 0, 32, 45
1, 60805, Note_off_c, 0, 32, 55
1, 60817, Control_c, 0, 64, 65
1, 60821, Note_on_c, 0, 36, 38
1, 60825, Note_on_c, 0, 44, 41
1, 60833, Note_on_c, 0, 39, 42
1, 60891, Control_c, 0, 64, 65
1, 60904, Note_off_c, 0, 44, 50
1, 60905, Note_off_c, 0, 39, 55
1, 60919, Note_off_c, 0, 36, 57
1, 60945, Note_on_c, 0, 32, 49
1, 61038, Note_off_c, 0, 32, 58
1, 61039, Control_c, 0, 64, 66
1, 61057, Note_on_c, 0, 39, 39
1, 61059, Note_on_c, 0, 36, 38
1, 61062, Note_on_c, 0, 44, 46
1, 61098, Control_c, 0, 64, 66
1, 61098, Control_c, 0, 67, 122
1, 61113, Control_c, 0, 67, 118
1, 61125, Note_off_c, 0, 44, 52
1, 61128, Control_c, 0, 67, 114
1, 61131, Note_off_c, 0, 39, 55
1, 61143, Control_c, 0, 67, 112
1, 61150, Note_off_c, 0, 36, 51
1, 61157, Control_c, 0, 67, 110
1, 61172, Note_on_c, 0, 32, 49
1, 61172, Control_c, 0, 67, 107
1, 61187, Control_c, 0, 67, 103
1, 61202, Control_c, 0, 67, 99
1, 61217, Control_c, 0, 67, 93
1, 61232, Control_c, 0, 67, 88
1, 61247, Control_c, 0, 64, 66
1, 61247, Control_c, 0, 67, 85
1, 61259, Note_off_c, 0, 32, 55
1, 61262, Control_c, 0, 64, 64
1, 61262, Control_c, 0, 67, 80
1, 61276, Control_c, 0, 64, 62
1, 61276, Control_c, 0, 67, 77
1, 61287, Note_on_c, 0, 36, 33
1, 61289, Note_on_c, 0, 44, 46
1, 61291, Control_c, 0, 64, 58
1, 61291, Control_c, 0, 67, 73
1, 61292, Note_on_c, 0, 39, 39
1, 61301, Note_on_c, 0, 60, 67
1, 61306, Control_c, 0, 64, 56
1, 61306, Control_c, 0, 67, 69
1, 61308, Note_on_c, 0, 48, 50
1, 61321, Control_c, 0, 64, 57
1, 61321, Control_c, 0, 67, 63
1, 61335, Control_c, 0, 64, 59
1, 61335, Control_c, 0, 67, 57
1, 61350, Control_c, 0, 64, 61
1, 61350, Control_c, 0, 67, 50
1, 61353, Note_off_c, 0, 44, 55
1, 61365, Note_off_c, 0, 48, 61
1, 61372, Control_c, 0, 64, 65
1, 61372, Control_c, 0, 67, 41
1, 61380, Note_off_c, 0, 39, 56
1, 61381, Note_off_c, 0, 36, 54
1, 61382, Note_off_c, 0, 60, 65
1, 61387, Control_c, 0, 64, 69
1, 61387, Control_c, 0, 67, 35
1, 61402, Control_c, 0, 64, 74
1, 61402, Control_c, 0, 67, 28
1, 61407, Note_on_c, 0, 32, 46
1, 61417, Control_c, 0, 64, 82
1, 61417, Control_c, 0, 67, 21
1, 61432, Control_c, 0, 64, 94
1, 61432, Control_c, 0, 67, 14
1, 61447, Control_c, 0, 64, 127
1, 61447, Control_c, 0, 67, 9
1, 61462, Control_c, 0, 67, 0
1, 61521, Note_off_c, 0, 32, 53
1, 61530, Note_on_c, 0, 39, 45
1, 61535, Note_on_c, 0, 44, 52
1, 61545, Note_on_c, 0, 36, 40
1, 61574, Note_on_c, 0, 63, 76
1, 61584, Note_on_c, 0, 51, 65
1, 61603, Note_off_c, 0, 63, 63
1, 61614, Note_off_c, 0, 51, 66
1, 61661, Note_off_c, 0, 36, 56
1, 61673, Note_off_c, 0, 39, 56
1, 61674, Note_off_c, 0, 44, 55
1, 61679, Note_on_c, 0, 32, 52
1, 61691, Note_on_c, 0, 68, 89
1, 61699, Control_c, 0, 64, 117
1, 61714, Control_c, 0, 64, 89
1, 61722, Note_on_c, 0, 56, 58
1, 61729, Control_c, 0, 64, 69
1, 61744, Control_c, 0, 64, 57
1, 61758, Control_c, 0, 64, 32
1, 61773, Control_c, 0, 64, 22
1, 61788, Control_c, 0, 64, 27
1, 61803, Control_c, 0, 64, 38
1, 61818, Control_c, 0, 64, 50
1, 61822, Note_on_c, 0, 39, 44
1, 61825, Note_on_c, 0, 44, 51
1, 61825, Note_off_c, 0, 32, 58
1, 61825, Note_on_c, 0, 36, 43
1, 61832, Control_c, 0, 64, 61
1, 61847, Control_c, 0, 64, 66
1, 61862, Control_c, 0, 64, 72
1, 61866, Note_off_c, 0, 56, 63
1, 61877, Control_c, 0, 64, 83
1, 61892, Control_c, 0, 64, 102
1, 61906, Control_c, 0, 64, 127
1, 61942, Note_off_c, 0, 36, 54
1, 61943, Note_off_c, 0, 39, 59
1, 61945, Note_off_c, 0, 44, 44
1, 61954, Note_on_c, 0, 32, 56
1, 62070, Control_c, 0, 64, 95
1, 62080, Note_off_c, 0, 32, 56
1, 62082, Note_on_c, 0, 72, 85
1, 62085, Control_c, 0, 64, 76
1, 62088, Note_on_c, 0, 39, 47
1, 62091, Note_on_c, 0, 44, 52
1, 62096, Note_on_c, 0, 60, 66
1, 62096, Note_on_c, 0, 36, 37
1, 62106, Control_c, 0, 64, 59
1, 62117, Note_off_c, 0, 68, 59
1, 62121, Control_c, 0, 64, 22
1, 62136, Control_c, 0, 64, 0
1, 62151, Note_off_c, 0, 36, 59
1, 62165, Control_c, 0, 64, 33
1, 62180, Control_c, 0, 64, 53
1, 62185, Note_off_c, 0, 44, 56
1, 62195, Control_c, 0, 64, 64
1, 62198, Note_off_c, 0, 39, 56
1, 62210, Control_c, 0, 64, 74
1, 62214, Note_on_c, 0, 32, 56
1, 62218, Note_off_c, 0, 72, 64
1, 62225, Control_c, 0, 64, 97
1, 62240, Control_c, 0, 64, 127
1, 62254, Note_off_c, 0, 60, 65
1, 62278, Note_on_c, 0, 36, 43
1, 62334, Note_on_c, 0, 39, 53
1, 62338, Note_off_c, 0, 32, 36
1, 62341, Note_on_c, 0, 44, 48
1, 62347, Note_off_c, 0, 36, 57
1, 62398, Note_on_c, 0, 68, 82
1, 62404, Note_on_c, 0, 56, 77
1, 62439, Note_off_c, 0, 44, 54
1, 62443, Note_off_c, 0, 68, 65
1, 62451, Note_off_c, 0, 56, 60
1, 62491, Control_c, 0, 64, 100
1, 62505, Note_on_c, 0, 34, 60
1, 62508, Control_c, 0, 64, 80
1, 62508, Note_on_c, 0, 67, 81
1, 62520, Note_on_c, 0, 55, 65
1, 62523, Control_c, 0, 64, 66
1, 62533, Note_off_c, 0, 39, 44
1, 62537, Control_c, 0, 64, 49
1, 62552, Control_c, 0, 64, 0
1, 62641, Control_c, 0, 64, 27
1, 62645, Note_off_c, 0, 34, 59
1, 62648, Note_on_c, 0, 39, 43
1, 62653, Note_on_c, 0, 46, 52
1, 62655, Control_c, 0, 64, 54
1, 62660, Note_on_c, 0, 37, 42
1, 62670, Control_c, 0, 64, 66
1, 62685, Control_c, 0, 64, 75
1, 62692, Note_off_c, 0, 55, 47
1, 62700, Control_c, 0, 64, 94
1, 62715, Control_c, 0, 64, 127
1, 62761, Note_off_c, 0, 37, 50
1, 62773, Note_off_c, 0, 46, 54
1, 62773, Note_off_c, 0, 39, 57
1, 62775, Note_on_c, 0, 34, 59
1, 62885, Control_c, 0, 64, 88
1, 62895, Note_on_c, 0, 70, 84
1, 62900, Control_c, 0, 64, 68
1, 62904, Note_off_c, 0, 34, 60
1, 62910, Note_on_c, 0, 58, 60
1, 62915, Control_c, 0, 64, 50
1, 62918, Note_on_c, 0, 46, 48
1, 62926, Note_on_c, 0, 39, 46
1, 62928, Note_on_c, 0, 37, 35
1, 62930, Note_off_c, 0, 67, 59
1, 62930, Control_c, 0, 64, 17
1, 62944, Control_c, 0, 64, 24
1, 62959, Control_c, 0, 64, 40
1, 62969, Note_off_c, 0, 37, 53
1, 62974, Control_c, 0, 64, 54
1, 62988, Control_c, 0, 64, 63
1, 62991, Note_off_c, 0, 46, 52
1, 62998, Note_off_c, 0, 39, 58
1, 63003, Control_c, 0, 64, 69
1, 63012, Note_off_c, 0, 70, 62
1, 63018, Control_c, 0, 64, 77
1, 63021, Note_off_c, 0, 58, 62
1, 63022, Note_on_c, 0, 34, 64
1, 63033, Control_c, 0, 64, 95
1, 63048, Control_c, 0, 64, 127
1, 63101, Note_on_c, 0, 37, 21
1, 63125, Note_off_c, 0, 34, 60
1, 63139, Note_on_c, 0, 46, 55
1, 63149, Note_off_c, 0, 37, 51
1, 63164, Note_on_c, 0, 67, 78
1, 63169, Note_on_c, 0, 55, 74
1, 63174, Poly_aftertouch_c, 0, 39, 127
1, 63201, Note_off_c, 0, 55, 65
1, 63223, Poly_aftertouch_c, 0, 39, 0
1, 63226, Note_off_c, 0, 46, 61
1, 63256, Control_c, 0, 64, 102
1, 63271, Control_c, 0, 64, 79
1, 63272, Note_off_c, 0, 67, 62
1, 63279, Note_on_c, 0, 68, 76
1, 63286, Control_c, 0, 64, 64
1, 63287, Note_on_c, 0, 36, 45
1, 63301, Control_c, 0, 64, 37
1, 63307, Note_on_c, 0, 56, 58
1, 63316, Control_c, 0, 64, 0
1, 63399, Note_off_c, 0, 36, 53
1, 63416, Note_on_c, 0, 48, 45
1, 63420, Control_c, 0, 64, 45
1, 63426, Note_on_c, 0, 44, 43
1, 63429, Note_on_c, 0, 39, 23
1, 63435, Control_c, 0, 64, 61
1, 63450, Control_c, 0, 64, 68
1, 63465, Control_c, 0, 64, 79
1, 63466, Note_off_c, 0, 68, 62
1, 63479, Control_c, 0, 64, 105
1, 63494, Control_c, 0, 64, 127
1, 63516, Note_off_c, 0, 56, 61
1, 63527, Note_off_c, 0, 44, 49
1, 63545, Note_off_c, 0, 48, 37
1, 63548, Note_on_c, 0, 36, 45
1, 63557, Note_off_c, 0, 39, 34
1, 63679, Control_c, 0, 64, 107
1, 63694, Control_c, 0, 64, 84
1, 63700, Note_on_c, 0, 63, 64
1, 63705, Note_on_c, 0, 48, 41
1, 63708, Note_on_c, 0, 51, 52
1, 63709, Control_c, 0, 64, 71
1, 63712, Note_on_c, 0, 44, 37
1, 63724, Control_c, 0, 64, 62
1, 63726, Note_on_c, 0, 39, 30
1, 63728, Note_off_c, 0, 36, 35
1, 63738, Control_c, 0, 64, 49
1, 63753, Control_c, 0, 64, 30
1, 63768, Control_c, 0, 64, 15
1, 63783, Control_c, 0, 64, 0
1, 63788, Note_off_c, 0, 48, 51
1, 63800, Note_off_c, 0, 44, 53
1, 63806, Note_off_c, 0, 39, 49
1, 63839, Note_on_c, 0, 36, 45
1, 63939, Note_off_c, 0, 36, 53
1, 63949, Note_on_c, 0, 48, 45
1, 63960, Note_on_c, 0, 44, 47
1, 63972, Note_on_c, 0, 39, 38
1, 64050, Note_off_c, 0, 44, 53
1, 64055, Note_off_c, 0, 48, 45
1, 64082, Note_on_c, 0, 36, 53
1, 64109, Control_c, 0, 64, 47
1, 64119, Note_off_c, 0, 39, 31
1, 64124, Control_c, 0, 64, 61
1, 64139, Control_c, 0, 64, 66
1, 64153, Control_c, 0, 64, 71
1, 64163, Note_off_c, 0, 51, 62
1, 64168, Control_c, 0, 64, 77
1, 64177, Note_off_c, 0, 36, 57
1, 64183, Control_c, 0, 64, 82
1, 64191, Note_on_c, 0, 39, 18
1, 64195, Note_on_c, 0, 48, 47
1, 64198, Control_c, 0, 64, 89
1, 64204, Note_on_c, 0, 44, 48
1, 64213, Control_c, 0, 64, 97
1, 64228, Control_c, 0, 64, 107
1, 64242, Note_off_c, 0, 63, 59
1, 64243, Control_c, 0, 64, 113
1, 64257, Note_off_c, 0, 44, 55
1, 64257, Note_off_c, 0, 48, 52
1, 64293, Note_on_c, 0, 36, 52
1, 64317, Control_c, 0, 64, 112
1, 64332, Control_c, 0, 64, 111
1, 64353, Control_c, 0, 64, 107
1, 64368, Control_c, 0, 64, 101
1, 64372, Note_off_c, 0, 36, 56
1, 64383, Control_c, 0, 64, 92
1, 64398, Control_c, 0, 64, 78
1, 64411, Note_off_c, 0, 39, 22
1, 64413, Control_c, 0, 64, 64
1, 64419, Note_on_c, 0, 44, 51
1, 64422, Note_on_c, 0, 65, 74
1, 64428, Control_c, 0, 64, 36
1, 64437, Note_on_c, 0, 53, 56
1, 64442, Control_c, 0, 64, 0
1, 64487, Control_c, 0, 64, 25
1, 64497, Note_off_c, 0, 44, 63
1, 64502, Control_c, 0, 64, 51
1, 64517, Control_c, 0, 64, 63
1, 64528, Note_off_c, 0, 65, 55
1, 64532, Note_on_c, 0, 37, 51
1, 64532, Control_c, 0, 64, 72
1, 64547, Control_c, 0, 64, 88
1, 64556, Note_off_c, 0, 53, 63
1, 64561, Control_c, 0, 64, 127
1, 64633, Note_on_c, 0, 44, 62
1, 64640, Note_off_c, 0, 37, 58
1, 64714, Note_on_c, 0, 49, 74
1, 64714, Note_on_c, 0, 61, 74
1, 64763, Note_off_c, 0, 44, 57
1, 64765, Note_off_c, 0, 49, 60
1, 64771, Note_off_c, 0, 61, 62
1, 64797, Control_c, 0, 64, 107
1, 64800, Note_on_c, 0, 39, 55
1, 64812, Control_c, 0, 64, 79
1, 64818, Note_on_c, 0, 60, 82
1, 64821, Note_on_c, 0, 48, 59
1, 64827, Control_c, 0, 64, 63
1, 64842, Control_c, 0, 64, 24
1, 64857, Control_c, 0, 64, 0
1, 64931, Control_c, 0, 64, 16
1, 64935, Note_on_c, 0, 44, 55
1, 64938, Note_off_c, 0, 39, 60
1, 64946, Control_c, 0, 64, 50
1, 64961, Control_c, 0, 64, 62
1, 64972, Note_off_c, 0, 48, 58
1, 64976, Control_c, 0, 64, 69
1, 64991, Control_c, 0, 64, 78
1, 65006, Control_c, 0, 64, 91
1, 65021, Control_c, 0, 64, 107
1, 65036, Control_c, 0, 64, 127
1, 65065, Note_off_c, 0, 44, 61
1, 65072, Note_on_c, 0, 39, 54
1, 65161, Control_c, 0, 64, 110
1, 65176, Control_c, 0, 64, 80
1, 65191, Control_c, 0, 64, 63
1, 65197, Note_on_c, 0, 63, 81
1, 65206, Control_c, 0, 64, 19
1, 65208, Note_on_c, 0, 44, 60
1, 65212, Note_off_c, 0, 39, 61
1, 65215, Note_on_c, 0, 51, 62
1, 65220, Control_c, 0, 64, 0
1, 65240, Note_off_c, 0, 60, 58
1, 65265, Control_c, 0, 64, 23
1, 65280, Control_c, 0, 64, 55
1, 65295, Control_c, 0, 64, 65
1, 65308, Note_off_c, 0, 63, 63
1, 65310, Control_c, 0, 64, 75
1, 65312, Note_off_c, 0, 51, 63
1, 65313, Note_off_c, 0, 44, 62
1, 65321, Note_on_c, 0, 39, 68
1, 65324, Control_c, 0, 64, 96
1, 65339, Control_c, 0, 64, 127
1, 65435, Note_on_c, 0, 44, 65
1, 65438, Note_off_c, 0, 39, 57
1, 65468, Note_on_c, 0, 60, 82
1, 65479, Note_on_c, 0, 48, 67
1, 65509, Note_off_c, 0, 48, 65
1, 65566, Note_off_c, 0, 44, 61
1, 65567, Note_off_c, 0, 60, 62
1, 65571, Note_on_c, 0, 58, 84
1, 65573, Note_on_c, 0, 39, 61
1, 65598, Note_on_c, 0, 46, 67
1, 65605, Control_c, 0, 64, 81
1, 65620, Control_c, 0, 64, 62
1, 65635, Control_c, 0, 64, 0
1, 65703, Note_off_c, 0, 39, 60
1, 65709, Note_on_c, 0, 43, 64
1, 65710, Control_c, 0, 64, 36
1, 65725, Control_c, 0, 64, 57
1, 65732, Note_off_c, 0, 46, 62
1, 65740, Control_c, 0, 64, 66
1, 65754, Control_c, 0, 64, 75
1, 65769, Control_c, 0, 64, 90
1, 65774, Note_off_c, 0, 58, 62
1, 65784, Control_c, 0, 64, 127
1, 65811, Note_off_c, 0, 43, 57
1, 65822, Note_on_c, 0, 39, 62
1, 65954, Control_c, 0, 64, 106
1, 65960, Note_on_c, 0, 43, 55
1, 65966, Note_on_c, 0, 63, 74
1, 65969, Control_c, 0, 64, 80
1, 65975, Note_off_c, 0, 39, 57
1, 65984, Control_c, 0, 64, 64
1, 65988, Note_on_c, 0, 51, 59
1, 65998, Control_c, 0, 64, 30
1, 66013, Control_c, 0, 64, 0
1, 66064, Note_off_c, 0, 51, 58
1, 66070, Note_off_c, 0, 43, 58
1, 66073, Control_c, 0, 64, 39
1, 66088, Control_c, 0, 64, 59
1, 66100, Note_on_c, 0, 39, 59
1, 66103, Control_c, 0, 64, 67
1, 66118, Control_c, 0, 64, 79
1, 66132, Control_c, 0, 64, 109
1, 66147, Control_c, 0, 64, 127
1, 66198, Note_on_c, 0, 43, 53
1, 66202, Note_off_c, 0, 39, 57
1, 66231, Note_on_c, 0, 61, 71
1, 66232, Note_off_c, 0, 43, 63
1, 66288, Note_off_c, 0, 63, 50
1, 66310, Control_c, 0, 64, 119
1, 66324, Control_c, 0, 64, 89
1, 66329, Poly_aftertouch_c, 0, 49, 0
1, 66335, Note_on_c, 0, 60, 74
1, 66339, Control_c, 0, 64, 73
1, 66354, Control_c, 0, 64, 63
1, 66362, Note_on_c, 0, 44, 52
1, 66369, Control_c, 0, 64, 50
1, 66377, Note_off_c, 0, 61, 49
1, 66384, Control_c, 0, 64, 35
1, 66398, Control_c, 0, 64, 33
1, 66428, Control_c, 0, 64, 32
1, 66443, Control_c, 0, 64, 25
1, 66458, Control_c, 0, 64, 11
1, 66472, Control_c, 0, 64, 0
1, 66490, Note_off_c, 0, 44, 60
1, 66494, Note_on_c, 0, 48, 43
1, 66494, Note_on_c, 0, 56, 46
1, 66497, Note_on_c, 0, 51, 49
1, 66565, Note_off_c, 0, 56, 55
1, 66602, Note_off_c, 0, 48, 56
1, 66604, Note_off_c, 0, 51, 55
1, 66621, Note_on_c, 0, 44, 53
1, 66741, Note_off_c, 0, 44, 59
1, 66744, Note_on_c, 0, 56, 43
1, 66747, Note_on_c, 0, 48, 37
1, 66747, Note_on_c, 0, 63, 63
1, 66749, Note_on_c, 0, 51, 54
1, 66806, Note_off_c, 0, 60, 45
1, 66830, Note_off_c, 0, 56, 53
1, 66842, Note_off_c, 0, 51, 58
1, 66853, Note_off_c, 0, 48, 54
1, 66868, Note_on_c, 0, 44, 54
1, 66990, Note_on_c, 0, 48, 41
1, 66994, Note_on_c, 0, 56, 49
1, 66995, Note_on_c, 0, 51, 43
1, 66997, Note_off_c, 0, 44, 58
1, 67000, Control_c, 0, 64, 24
1, 67015, Control_c, 0, 64, 38
1, 67030, Control_c, 0, 64, 51
1, 67045, Control_c, 0, 64, 60
1, 67060, Control_c, 0, 64, 64
1, 67075, Control_c, 0, 64, 68
1, 67086, Note_off_c, 0, 56, 49
1, 67089, Control_c, 0, 64, 74
1, 67093, Note_off_c, 0, 51, 59
1, 67104, Control_c, 0, 64, 86
1, 67107, Note_on_c, 0, 44, 58
1, 67119, Control_c, 0, 64, 127
1, 67135, Note_off_c, 0, 48, 35
1, 67137, Note_off_c, 0, 63, 60
1, 67219, Note_off_c, 0, 44, 59
1, 67224, Note_on_c, 0, 51, 58
1, 67226, Note_on_c, 0, 56, 57
1, 67228, Note_on_c, 0, 48, 51
1, 67309, Note_off_c, 0, 56, 57
1, 67322, Note_off_c, 0, 51, 62
1, 67340, Note_off_c, 0, 48, 52
1, 67349, Note_on_c, 0, 44, 68
1, 67408, Control_c, 0, 64, 98
1, 67423, Control_c, 0, 64, 73
1, 67438, Control_c, 0, 64, 58
1, 67453, Control_c, 0, 64, 16
1, 67458, Note_on_c, 0, 48, 44
1, 67458, Note_off_c, 0, 44, 60
1, 67459, Note_on_c, 0, 56, 57
1, 67466, Note_on_c, 0, 51, 58
1, 67468, Control_c, 0, 64, 0
1, 67471, Note_on_c, 0, 72, 85
1, 67472, Note_on_c, 0, 60, 74
1, 67498, Control_c, 0, 64, 17
1, 67513, Control_c, 0, 64, 51
1, 67516, Note_off_c, 0, 60, 62
1, 67527, Control_c, 0, 64, 65
1, 67534, Note_off_c, 0, 56, 61
1, 67536, Note_off_c, 0, 72, 65
1, 67542, Control_c, 0, 64, 76
1, 67554, Note_off_c, 0, 51, 60
1, 67557, Note_off_c, 0, 48, 58
1, 67557, Control_c, 0, 64, 121
1, 67566, Note_on_c, 0, 44, 71
1, 67572, Control_c, 0, 64, 127
1, 67671, Note_on_c, 0, 48, 50
1, 67674, Note_on_c, 0, 56, 62
1, 67677, Note_off_c, 0, 44, 60
1, 67681, Note_on_c, 0, 51, 68
1, 67725, Note_on_c, 0, 75, 92
1, 67727, Note_on_c, 0, 63, 80
1, 67751, Note_off_c, 0, 63, 70
1, 67768, Note_off_c, 0, 75, 60
1, 67821, Note_off_c, 0, 56, 57
1, 67823, Note_off_c, 0, 48, 60
1, 67828, Note_on_c, 0, 44, 74
1, 67835, Note_on_c, 0, 80, 95
1, 67836, Note_off_c, 0, 51, 60
1, 67842, Note_on_c, 0, 68, 90
1, 67866, Control_c, 0, 64, 90
1, 67881, Control_c, 0, 64, 64
1, 67896, Control_c, 0, 64, 0
1, 67954, Note_on_c, 0, 56, 62
1, 67955, Note_on_c, 0, 51, 64
1, 67960, Note_on_c, 0, 48, 61
1, 67966, Note_off_c, 0, 44, 62
1, 67969, Control_c, 0, 64, 42
1, 67976, Note_off_c, 0, 68, 57
1, 67984, Control_c, 0, 64, 62
1, 67999, Control_c, 0, 64, 72
1, 68014, Control_c, 0, 64, 98
1, 68029, Control_c, 0, 64, 127
1, 68084, Note_on_c, 0, 44, 76
1, 68084, Note_off_c, 0, 48, 60
1, 68099, Note_off_c, 0, 51, 62
1, 68100, Note_off_c, 0, 56, 49
1, 68203, Note_off_c, 0, 80, 62
1, 68214, Note_on_c, 0, 56, 76
1, 68217, Note_on_c, 0, 48, 65
1, 68221, Note_on_c, 0, 51, 70
1, 68226, Note_on_c, 0, 72, 92
1, 68227, Note_on_c, 0, 84, 97
1, 68255, Note_off_c, 0, 44, 37
1, 68273, Note_off_c, 0, 72, 64
1, 68276, Note_off_c, 0, 84, 66
1, 68317, Note_off_c, 0, 56, 59
1, 68336, Note_off_c, 0, 51, 60
1, 68339, Note_off_c, 0, 48, 37
1, 68347, Note_on_c, 0, 44, 76
1, 68452, Note_on_c, 0, 48, 43
1, 68454, Note_on_c, 0, 56, 70
1, 68455, Note_on_c, 0, 51, 72
1, 68467, Note_off_c, 0, 44, 58
1, 68479, Note_off_c, 0, 48, 60
1, 68501, Note_on_c, 0, 68, 92
1, 68502, Note_on_c, 0, 80, 85
1, 68531, Note_off_c, 0, 51, 63
1, 68535, Note_off_c, 0, 68, 58
1, 68538, Note_off_c, 0, 56, 63
1, 68541, Control_c, 0, 64, 105
1, 68542, Note_off_c, 0, 80, 63
1, 68556, Control_c, 0, 64, 70
1, 68571, Control_c, 0, 64, 28
1, 68586, Control_c, 0, 64, 0
1, 68593, Note_on_c, 0, 46, 78
1, 68595, Note_on_c, 0, 67, 79
1, 68598, Note_on_c, 0, 79, 94
1, 68718, Note_on_c, 0, 49, 61
1, 68718, Note_on_c, 0, 58, 75
1, 68719, Note_on_c, 0, 51, 73
1, 68735, Control_c, 0, 64, 37
1, 68744, Note_off_c, 0, 46, 60
1, 68749, Control_c, 0, 64, 53
1, 68764, Control_c, 0, 64, 64
1, 68777, Note_off_c, 0, 67, 62
1, 68779, Control_c, 0, 64, 74
1, 68793, Control_c, 0, 64, 110
1, 68808, Control_c, 0, 64, 127
1, 68857, Note_on_c, 0, 46, 80
1, 68863, Note_off_c, 0, 49, 62
1, 68873, Note_off_c, 0, 58, 53
1, 68876, Note_off_c, 0, 51, 60
1, 68960, Note_off_c, 0, 79, 49
1, 68991, Note_on_c, 0, 51, 75
1, 68997, Note_on_c, 0, 49, 54
1, 68997, Note_on_c, 0, 82, 96
1, 69000, Note_on_c, 0, 58, 73
1, 69000, Note_on_c, 0, 70, 98
1, 69016, Note_off_c, 0, 46, 61
1, 69054, Note_off_c, 0, 82, 68
1, 69073, Note_off_c, 0, 70, 54
1, 69078, Note_off_c, 0, 49, 52
1, 69101, Note_off_c, 0, 51, 60
1, 69104, Note_off_c, 0, 58, 47
1, 69115, Note_on_c, 0, 46, 81
1, 69217, Note_on_c, 0, 51, 70
1, 69227, Note_on_c, 0, 49, 38
1, 69233, Note_on_c, 0, 58, 74
1, 69257, Note_off_c, 0, 49, 57
1, 69274, Note_off_c, 0, 46, 57
1, 69280, Note_off_c, 0, 51, 62
1, 69314, Note_on_c, 0, 67, 84
1, 69319, Note_on_c, 0, 79, 87
1, 69333, Note_off_c, 0, 58, 61
1, 69350, Control_c, 0, 64, 103
1, 69365, Control_c, 0, 64, 80
1, 69380, Control_c, 0, 64, 67
1, 69383, Note_off_c, 0, 67, 60
1, 69394, Note_off_c, 0, 79, 63
1, 69395, Control_c, 0, 64, 55
1, 69410, Control_c, 0, 64, 35
1, 69424, Control_c, 0, 64, 26
1, 69454, Control_c, 0, 64, 25
1, 69469, Control_c, 0, 64, 12
1, 69484, Control_c, 0, 64, 0
1, 69528, Control_c, 0, 67, 24
1, 69543, Control_c, 0, 67, 50
1, 69558, Control_c, 0, 67, 69
1, 69573, Control_c, 0, 67, 85
1, 69595, Control_c, 0, 67, 92
1, 69625, Control_c, 0, 67, 91
1, 69627, Note_on_c, 0, 80, 65
1, 69632, Note_on_c, 0, 68, 53
1, 69653, Note_on_c, 0, 48, 34
1, 69654, Note_on_c, 0, 51, 40
1, 69654, Control_c, 0, 67, 90
1, 69659, Note_on_c, 0, 60, 45
1, 69664, Note_on_c, 0, 56, 40
1, 69669, Control_c, 0, 67, 88
1, 69684, Control_c, 0, 67, 86
1, 69700, Control_c, 0, 67, 84
1, 69715, Control_c, 0, 67, 83
1, 69729, Control_c, 0, 67, 82
1, 69744, Control_c, 0, 67, 80
1, 69759, Control_c, 0, 67, 79
1, 69774, Control_c, 0, 64, 21
1, 69774, Control_c, 0, 67, 76
1, 69789, Control_c, 0, 64, 46
1, 69789, Control_c, 0, 67, 73
1, 69803, Control_c, 0, 64, 58
1, 69803, Control_c, 0, 67, 72
1, 69818, Control_c, 0, 64, 63
1, 69818, Control_c, 0, 67, 72
1, 69825, Note_off_c, 0, 80, 62
1, 69833, Control_c, 0, 64, 68
1, 69833, Control_c, 0, 67, 70
1, 69847, Control_c, 0, 64, 73
1, 69847, Control_c, 0, 67, 69
1, 69862, Control_c, 0, 64, 80
1, 69862, Control_c, 0, 67, 67
1, 69867, Note_off_c, 0, 68, 59
1, 69877, Control_c, 0, 64, 88
1, 69877, Control_c, 0, 67, 65
1, 69892, Control_c, 0, 64, 103
1, 69892, Control_c, 0, 67, 65
1, 69907, Control_c, 0, 64, 127
1, 69907, Control_c, 0, 67, 64
1, 69921, Control_c, 0, 67, 63
1, 69936, Control_c, 0, 67, 63
1, 69951, Control_c, 0, 67, 61
1, 69966, Control_c, 0, 67, 60
1, 69981, Control_c, 0, 67, 55
1, 69996, Control_c, 0, 67, 50
1, 70011, Control_c, 0, 67, 45
1, 70026, Control_c, 0, 67, 43
1, 70040, Control_c, 0, 67, 41
1, 70055, Control_c, 0, 67, 38
1, 70070, Control_c, 0, 67, 35
1, 70085, Control_c, 0, 67, 32
1, 70095, Note_on_c, 0, 75, 54
1, 70100, Control_c, 0, 64, 117
1, 70100, Control_c, 0, 67, 30
1, 70114, Control_c, 0, 64, 102
1, 70114, Control_c, 0, 67, 29
1, 70122, Note_on_c, 0, 63, 36
1, 70129, Control_c, 0, 64, 91
1, 70129, Control_c, 0, 67, 29
1, 70144, Control_c, 0, 64, 81
1, 70144, Control_c, 0, 67, 28
1, 70159, Control_c, 0, 64, 72
1, 70159, Control_c, 0, 67, 28
1, 70173, Control_c, 0, 64, 64
1, 70173, Control_c, 0, 67, 27
1, 70188, Control_c, 0, 64, 57
1, 70203, Control_c, 0, 64, 49
1, 70203, Control_c, 0, 67, 26
1, 70218, Control_c, 0, 64, 47
1, 70218, Control_c, 0, 67, 26
1, 70233, Control_c, 0, 64, 47
1, 70247, Control_c, 0, 64, 45
1, 70247, Control_c, 0, 67, 25
1, 70262, Control_c, 0, 64, 36
1, 70262, Control_c, 0, 67, 24
1, 70277, Control_c, 0, 64, 11
1, 70277, Control_c, 0, 67, 21
1, 70292, Control_c, 0, 64, 0
1, 70292, Control_c, 0, 67, 16
1, 70307, Control_c, 0, 67, 11
1, 70321, Control_c, 0, 67, 8
1, 70344, Control_c, 0, 67, 0
1, 70508, Control_c, 0, 64, 30
1, 70523, Control_c, 0, 64, 48
1, 70538, Control_c, 0, 64, 58
1, 70552, Control_c, 0, 64, 63
1, 70567, Control_c, 0, 64, 66
1, 70582, Control_c, 0, 64, 70
1, 70596, Control_c, 0, 64, 73
1, 70611, Control_c, 0, 64, 76
1, 70626, Control_c, 0, 64, 81
1, 70641, Control_c, 0, 64, 86
1, 70656, Control_c, 0, 64, 94
1, 70670, Control_c, 0, 64, 106
1, 70685, Control_c, 0, 64, 127
1, 70713, Note_off_c, 0, 60, 36
1, 70742, Note_off_c, 0, 48, 39
1, 70757, Note_off_c, 0, 63, 39
1, 70758, Note_off_c, 0, 75, 35
1, 70820, Note_off_c, 0, 56, 41
1, 70836, Note_off_c, 0, 51, 40
1, 71346, Note_on_c, 0, 64, 94
1, 71346, Note_on_c, 0, 76, 95
1, 71349, Note_on_c, 0, 56, 85
1, 71350, Note_on_c, 0, 52, 68
1, 71361, Note_on_c, 0, 49, 72
1, 71391, Control_c, 0, 64, 123
1, 71406, Control_c, 0, 64, 82
1, 71420, Control_c, 0, 64, 60
1, 71435, Control_c, 0, 64, 0
1, 71508, Control_c, 0, 64, 13
1, 71523, Control_c, 0, 64, 53
1, 71538, Control_c, 0, 64, 65
1, 71553, Control_c, 0, 64, 78
1, 71556, Note_off_c, 0, 76, 62
1, 71567, Control_c, 0, 64, 127
1, 71593, Note_off_c, 0, 56, 57
1, 71598, Note_off_c, 0, 64, 56
1, 71917, Note_on_c, 0, 73, 102
1, 71922, Note_on_c, 0, 61, 93
1, 71924, Note_on_c, 0, 57, 85
1, 71975, Control_c, 0, 64, 116
1, 71990, Control_c, 0, 64, 87
1, 72005, Control_c, 0, 64, 71
1, 72019, Control_c, 0, 64, 60
1, 72034, Control_c, 0, 64, 40
1, 72049, Control_c, 0, 64, 22
1, 72064, Control_c, 0, 64, 21
1, 72079, Control_c, 0, 64, 21
1, 72094, Control_c, 0, 64, 16
1, 72109, Control_c, 0, 64, 0
1, 72405, Control_c, 0, 64, 25
1, 72420, Control_c, 0, 64, 39
1, 72434, Control_c, 0, 64, 50
1, 72449, Control_c, 0, 64, 57
1, 72464, Control_c, 0, 64, 60
1, 72479, Control_c, 0, 64, 62
1, 72494, Control_c, 0, 64, 63
1, 72509, Control_c, 0, 64, 64
1, 72524, Control_c, 0, 64, 66
1, 72539, Control_c, 0, 64, 68
1, 72553, Control_c, 0, 64, 71
1, 72562, Note_off_c, 0, 57, 51
1, 72568, Control_c, 0, 64, 76
1, 72590, Control_c, 0, 64, 81
1, 72605, Control_c, 0, 64, 88
1, 72620, Control_c, 0, 64, 97
1, 72635, Control_c, 0, 64, 116
1, 72649, Control_c, 0, 64, 127
1, 72747, Note_off_c, 0, 61, 29
1, 72759, Note_off_c, 0, 49, 45
1, 72768, Note_off_c, 0, 73, 47
1, 72770, Note_off_c, 0, 52, 61
1, 72917, Control_c, 0, 67, 14
1, 72932, Control_c, 0, 67, 31
1, 72947, Control_c, 0, 67, 43
1, 72962, Control_c, 0, 67, 52
1, 72977, Control_c, 0, 67, 59
1, 72992, Control_c, 0, 67, 63
1, 73007, Control_c, 0, 67, 64
1, 73021, Control_c, 0, 67, 65
1, 73051, Control_c, 0, 67, 65
1, 73080, Control_c, 0, 67, 66
1, 73095, Control_c, 0, 67, 66
1, 73110, Control_c, 0, 67, 68
1, 73125, Control_c, 0, 67, 69
1, 73139, Control_c, 0, 67, 75
1, 73154, Control_c, 0, 67, 87
1, 73169, Control_c, 0, 64, 104
1, 73169, Control_c, 0, 67, 98
1, 73184, Control_c, 0, 64, 90
1, 73184, Control_c, 0, 67, 107
1, 73198, Control_c, 0, 64, 80
1, 73198, Control_c, 0, 67, 115
1, 73213, Control_c, 0, 64, 72
1, 73213, Control_c, 0, 67, 120
1, 73228, Control_c, 0, 64, 67
1, 73228, Control_c, 0, 67, 124
1, 73243, Control_c, 0, 64, 63
1, 73243, Control_c, 0, 67, 125
1, 73257, Control_c, 0, 64, 61
1, 73257, Control_c, 0, 67, 126
1, 73272, Control_c, 0, 64, 60
1, 73302, Control_c, 0, 64, 60
1, 73317, Control_c, 0, 64, 59
1, 73317, Control_c, 0, 67, 127
1, 73339, Control_c, 0, 64, 56
1, 73354, Control_c, 0, 64, 53
1, 73354, Control_c, 0, 67, 127
1, 73369, Control_c, 0, 64, 49
1, 73384, Control_c, 0, 64, 45
1, 73398, Control_c, 0, 64, 42
1, 73413, Control_c, 0, 64, 38
1, 73428, Control_c, 0, 64, 34
1, 73432, Note_on_c, 0, 71, 55
1, 73443, Control_c, 0, 64, 28
1, 73458, Note_on_c, 0, 51, 37
1, 73458, Control_c, 0, 64, 17
1, 73460, Note_on_c, 0, 56, 33
1, 73462, Note_on_c, 0, 59, 36
1, 73472, Control_c, 0, 64, 0
1, 74512, Note_on_c, 0, 70, 50
1, 74527, Note_off_c, 0, 71, 57
1, 74549, Control_c, 0, 64, 20
1, 74564, Control_c, 0, 64, 39
1, 74579, Control_c, 0, 64, 51
1, 74593, Control_c, 0, 64, 59
1, 74608, Control_c, 0, 64, 63
1, 74621, Note_off_c, 0, 59, 56
1, 74623, Control_c, 0, 64, 66
1, 74637, Control_c, 0, 64, 69
1, 74651, Note_off_c, 0, 70, 37
1, 74652, Control_c, 0, 64, 73
1, 74667, Control_c, 0, 64, 79
1, 74670, Note_off_c, 0, 56, 42
1, 74682, Control_c, 0, 64, 85
1, 74685, Note_off_c, 0, 51, 40
1, 74697, Control_c, 0, 64, 92
1, 74712, Control_c, 0, 64, 102
1, 74727, Control_c, 0, 64, 117
1, 74741, Control_c, 0, 64, 127
1, 74755, Note_on_c, 0, 68, 50
1, 74801, Note_off_c, 0, 68, 56
1, 74873, Note_on_c, 0, 69, 49
1, 74882, Control_c, 0, 64, 117
1, 74897, Control_c, 0, 64, 102
1, 74912, Control_c, 0, 64, 90
1, 74913, Note_on_c, 0, 61, 44
1, 74915, Note_on_c, 0, 55, 45
1, 74917, Note_on_c, 0, 51, 46
1, 74917, Note_off_c, 0, 69, 63
1, 74926, Control_c, 0, 64, 79
1, 74930, Note_on_c, 0, 70, 61
1, 74941, Control_c, 0, 64, 70
1, 74956, Control_c, 0, 64, 62
1, 74968, Note_off_c, 0, 70, 64
1, 74971, Control_c, 0, 64, 53
1, 74986, Control_c, 0, 64, 47
1, 74986, Control_c, 0, 67, 127
1, 75001, Control_c, 0, 64, 46
1, 75009, Note_on_c, 0, 71, 49
1, 75016, Control_c, 0, 64, 46
1, 75031, Control_c, 0, 64, 45
1, 75040, Note_off_c, 0, 71, 65
1, 75045, Control_c, 0, 64, 41
1, 75060, Control_c, 0, 64, 35
1, 75065, Note_on_c, 0, 70, 59
1, 75075, Control_c, 0, 64, 27
1, 75090, Control_c, 0, 64, 24
1, 75100, Note_off_c, 0, 70, 64
1, 75105, Control_c, 0, 64, 23
1, 75119, Control_c, 0, 64, 21
1, 75120, Note_on_c, 0, 71, 59
1, 75147, Note_off_c, 0, 71, 65
1, 75149, Control_c, 0, 64, 21
1, 75164, Control_c, 0, 64, 20
1, 75178, Note_on_c, 0, 70, 64
1, 75209, Note_off_c, 0, 70, 62
1, 75216, Note_on_c, 0, 71, 67
1, 75222, Control_c, 0, 64, 19
1, 75222, Control_c, 0, 67, 127
1, 75251, Control_c, 0, 64, 18
1, 75260, Note_off_c, 0, 71, 62
1, 75291, Note_on_c, 0, 70, 64
1, 75312, Control_c, 0, 64, 17
1, 75323, Note_off_c, 0, 70, 63
1, 75343, Note_on_c, 0, 71, 53
1, 75367, Note_off_c, 0, 71, 59
1, 75371, Control_c, 0, 64, 17
1, 75386, Control_c, 0, 64, 15
1, 75397, Note_on_c, 0, 70, 55
1, 75401, Control_c, 0, 64, 11
1, 75415, Control_c, 0, 64, 0
1, 75432, Note_off_c, 0, 70, 61
1, 75439, Note_on_c, 0, 71, 64
1, 75476, Note_off_c, 0, 71, 60
1, 75505, Note_on_c, 0, 70, 64
1, 75537, Note_off_c, 0, 70, 65
1, 75558, Note_on_c, 0, 71, 50
1, 75588, Note_off_c, 0, 71, 60
1, 75601, Control_c, 0, 64, 13
1, 75611, Note_on_c, 0, 70, 59
1, 75615, Control_c, 0, 64, 37
1, 75630, Control_c, 0, 64, 50
1, 75645, Control_c, 0, 64, 57
1, 75648, Note_off_c, 0, 70, 63
1, 75659, Note_on_c, 0, 71, 64
1, 75660, Control_c, 0, 64, 62
1, 75674, Control_c, 0, 64, 64
1, 75689, Control_c, 0, 64, 66
1, 75690, Note_off_c, 0, 71, 63
1, 75704, Control_c, 0, 64, 69
1, 75719, Control_c, 0, 64, 71
1, 75728, Note_on_c, 0, 70, 61
1, 75733, Note_off_c, 0, 51, 56
1, 75734, Control_c, 0, 64, 74
1, 75749, Control_c, 0, 64, 77
1, 75750, Note_off_c, 0, 70, 60
1, 75763, Note_on_c, 0, 71, 61
1, 75764, Control_c, 0, 64, 82
1, 75779, Control_c, 0, 64, 87
1, 75794, Control_c, 0, 64, 93
1, 75799, Note_off_c, 0, 71, 60
1, 75808, Control_c, 0, 64, 98
1, 75814, Note_off_c, 0, 55, 49
1, 75823, Note_on_c, 0, 70, 67
1, 75823, Control_c, 0, 64, 102
1, 75838, Control_c, 0, 64, 105
1, 75853, Control_c, 0, 64, 110
1, 75853, Control_c, 0, 67, 125
1, 75862, Note_off_c, 0, 70, 59
1, 75867, Control_c, 0, 64, 113
1, 75867, Control_c, 0, 67, 122
1, 75878, Note_on_c, 0, 71, 58
1, 75882, Control_c, 0, 64, 121
1, 75882, Control_c, 0, 67, 117
1, 75897, Control_c, 0, 64, 127
1, 75897, Control_c, 0, 67, 112
1, 75907, Note_off_c, 0, 71, 64
1, 75910, Note_off_c, 0, 61, 34
1, 75912, Control_c, 0, 67, 102
1, 75927, Control_c, 0, 67, 87
1, 75929, Note_on_c, 0, 70, 59
1, 75941, Control_c, 0, 67, 72
1, 75956, Control_c, 0, 67, 57
1, 75968, Note_off_c, 0, 70, 64
1, 75971, Control_c, 0, 67, 41
1, 75976, Note_on_c, 0, 71, 69
1, 75985, Control_c, 0, 67, 20
1, 75998, Note_off_c, 0, 71, 69
1, 76000, Control_c, 0, 67, 0
1, 76034, Note_on_c, 0, 70, 69
1, 76072, Note_off_c, 0, 70, 57
1, 76092, Note_on_c, 0, 71, 69
1, 76124, Note_off_c, 0, 71, 59
1, 76147, Note_on_c, 0, 70, 72
1, 76175, Note_off_c, 0, 70, 62
1, 76205, Note_on_c, 0, 71, 65
1, 76237, Note_off_c, 0, 71, 63
1, 76261, Note_on_c, 0, 70, 77
1, 76290, Note_off_c, 0, 70, 67
1, 76305, Note_on_c, 0, 71, 76
1, 76343, Note_off_c, 0, 71, 63
1, 76374, Note_on_c, 0, 70, 68
1, 76393, Note_off_c, 0, 70, 65
1, 76423, Control_c, 0, 64, 117
1, 76430, Note_on_c, 0, 76, 78
1, 76438, Control_c, 0, 64, 86
1, 76453, Control_c, 0, 64, 66
1, 76468, Control_c, 0, 64, 47
1, 76482, Control_c, 0, 64, 0
1, 76497, Note_off_c, 0, 76, 59
1, 76515, Note_on_c, 0, 75, 62
1, 76563, Note_off_c, 0, 75, 58
1, 76590, Note_on_c, 0, 76, 52
1, 76620, Note_off_c, 0, 76, 64
1, 76640, Note_on_c, 0, 75, 59
1, 76682, Note_off_c, 0, 75, 62
1, 76694, Note_on_c, 0, 76, 73
1, 76705, Control_c, 0, 64, 13
1, 76720, Control_c, 0, 64, 42
1, 76725, Note_off_c, 0, 76, 62
1, 76735, Control_c, 0, 64, 53
1, 76750, Control_c, 0, 64, 58
1, 76754, Note_on_c, 0, 75, 66
1, 76764, Control_c, 0, 64, 61
1, 76779, Control_c, 0, 64, 62
1, 76787, Note_off_c, 0, 75, 63
1, 76794, Control_c, 0, 64, 63
1, 76807, Note_on_c, 0, 76, 62
1, 76808, Control_c, 0, 64, 64
1, 76823, Control_c, 0, 64, 65
1, 76838, Control_c, 0, 64, 67
1, 76840, Note_off_c, 0, 76, 64
1, 76853, Control_c, 0, 64, 68
1, 76868, Control_c, 0, 64, 69
1, 76870, Note_on_c, 0, 75, 69
1, 76884, Control_c, 0, 64, 71
1, 76899, Control_c, 0, 64, 72
1, 76903, Note_off_c, 0, 75, 61
1, 76912, Note_on_c, 0, 76, 67
1, 76913, Control_c, 0, 64, 74
1, 76913, Control_c, 0, 67, 25
1, 76928, Control_c, 0, 64, 76
1, 76928, Control_c, 0, 67, 46
1, 76943, Control_c, 0, 64, 78
1, 76943, Control_c, 0, 67, 65
1, 76948, Note_off_c, 0, 76, 62
1, 76958, Control_c, 0, 64, 80
1, 76958, Control_c, 0, 67, 83
1, 76973, Control_c, 0, 64, 82
1, 76973, Control_c, 0, 67, 95
1, 76977, Note_on_c, 0, 75, 67
1, 76987, Control_c, 0, 64, 83
1, 76987, Control_c, 0, 67, 107
1, 77002, Control_c, 0, 64, 84
1, 77002, Control_c, 0, 67, 117
1, 77010, Note_off_c, 0, 75, 58
1, 77017, Control_c, 0, 64, 84
1, 77017, Control_c, 0, 67, 127
1, 77026, Note_on_c, 0, 76, 62
1, 77031, Control_c, 0, 64, 85
1, 77031, Control_c, 0, 67, 127
1, 77057, Note_off_c, 0, 76, 63
1, 77105, Note_on_c, 0, 75, 64
1, 77127, Note_off_c, 0, 75, 58
1, 77143, Control_c, 0, 64, 85
1, 77148, Note_on_c, 0, 76, 51
1, 77177, Note_off_c, 0, 76, 57
1, 77202, Note_on_c, 0, 75, 61
1, 77232, Note_off_c, 0, 75, 54
1, 77255, Note_on_c, 0, 76, 68
1, 77284, Note_off_c, 0, 76, 64
1, 77315, Note_on_c, 0, 75, 67
1, 77359, Note_off_c, 0, 75, 57
1, 77365, Note_on_c, 0, 76, 62
1, 77380, Control_c, 0, 64, 85
1, 77405, Note_off_c, 0, 76, 62
1, 77439, Note_on_c, 0, 75, 60
1, 77470, Note_off_c, 0, 75, 54
1, 77493, Note_on_c, 0, 76, 57
1, 77532, Note_off_c, 0, 76, 59
1, 77556, Note_on_c, 0, 75, 61
1, 77578, Note_off_c, 0, 75, 59
1, 77617, Control_c, 0, 64, 85
1, 77621, Note_on_c, 0, 76, 45
1, 77631, Control_c, 0, 64, 86
1, 77646, Control_c, 0, 64, 87
1, 77655, Note_off_c, 0, 76, 50
1, 77661, Control_c, 0, 64, 89
1, 77664, Note_on_c, 0, 75, 55
1, 77677, Control_c, 0, 64, 93
1, 77692, Control_c, 0, 64, 99
1, 77707, Control_c, 0, 64, 108
1, 77713, Note_off_c, 0, 75, 55
1, 77719, Note_on_c, 0, 76, 59
1, 77722, Control_c, 0, 64, 127
1, 77752, Note_off_c, 0, 76, 64
1, 77779, Note_on_c, 0, 75, 40
1, 77806, Note_off_c, 0, 75, 53
1, 77836, Note_on_c, 0, 74, 54
1, 77892, Control_c, 0, 64, 111
1, 77906, Note_on_c, 0, 75, 56
1, 77907, Control_c, 0, 64, 99
1, 77922, Control_c, 0, 64, 88
1, 77935, Note_off_c, 0, 74, 60
1, 77936, Control_c, 0, 64, 77
1, 77951, Control_c, 0, 64, 68
1, 77966, Control_c, 0, 64, 61
1, 77981, Control_c, 0, 64, 51
1, 77982, Note_off_c, 0, 75, 61
1, 77992, Note_on_c, 0, 88, 58
1, 77996, Control_c, 0, 64, 38
1, 78010, Control_c, 0, 64, 25
1, 78024, Note_off_c, 0, 88, 66
1, 78025, Control_c, 0, 64, 0
1, 78047, Note_on_c, 0, 87, 58
1, 78090, Note_off_c, 0, 87, 61
1, 78107, Note_on_c, 0, 88, 52
1, 78148, Note_off_c, 0, 88, 62
1, 78179, Note_on_c, 0, 87, 49
1, 78205, Note_off_c, 0, 87, 57
1, 78232, Note_on_c, 0, 88, 52
1, 78258, Note_off_c, 0, 88, 62
1, 78261, Control_c, 0, 64, 27
1, 78276, Control_c, 0, 64, 42
1, 78285, Note_on_c, 0, 87, 60
1, 78291, Control_c, 0, 64, 51
1, 78306, Control_c, 0, 64, 56
1, 78321, Control_c, 0, 64, 59
1, 78322, Note_off_c, 0, 87, 63
1, 78334, Note_on_c, 0, 88, 58
1, 78335, Control_c, 0, 64, 61
1, 78350, Control_c, 0, 64, 63
1, 78365, Control_c, 0, 64, 64
1, 78369, Note_off_c, 0, 88, 62
1, 78380, Control_c, 0, 64, 65
1, 78395, Control_c, 0, 64, 66
1, 78400, Note_on_c, 0, 87, 60
1, 78409, Control_c, 0, 64, 67
1, 78424, Control_c, 0, 64, 68
1, 78438, Note_off_c, 0, 87, 61
1, 78439, Control_c, 0, 64, 70
1, 78447, Note_on_c, 0, 88, 56
1, 78453, Control_c, 0, 64, 71
1, 78468, Control_c, 0, 64, 73
1, 78484, Control_c, 0, 64, 75
1, 78486, Note_off_c, 0, 88, 64
1, 78499, Control_c, 0, 64, 77
1, 78514, Control_c, 0, 64, 79
1, 78527, Note_on_c, 0, 87, 48
1, 78529, Control_c, 0, 64, 81
1, 78544, Control_c, 0, 64, 83
1, 78553, Note_off_c, 0, 87, 56
1, 78558, Control_c, 0, 64, 85
1, 78566, Note_on_c, 0, 88, 51
1, 78581, Control_c, 0, 64, 86
1, 78596, Note_off_c, 0, 88, 58
1, 78596, Control_c, 0, 64, 89
1, 78611, Control_c, 0, 64, 90
1, 78626, Control_c, 0, 64, 92
1, 78631, Note_on_c, 0, 87, 65
1, 78640, Control_c, 0, 64, 93
1, 78652, Note_off_c, 0, 87, 58
1, 78655, Control_c, 0, 64, 95
1, 78668, Note_on_c, 0, 88, 65
1, 78670, Control_c, 0, 64, 97
1, 78684, Control_c, 0, 64, 99
1, 78699, Control_c, 0, 64, 100
1, 78709, Note_off_c, 0, 88, 59
1, 78714, Control_c, 0, 64, 100
1, 78729, Note_on_c, 0, 87, 67
1, 78729, Control_c, 0, 64, 101
1, 78744, Control_c, 0, 64, 102
1, 78758, Control_c, 0, 64, 104
1, 78773, Note_off_c, 0, 87, 62
1, 78773, Control_c, 0, 64, 105
1, 78788, Control_c, 0, 64, 106
1, 78790, Note_on_c, 0, 88, 54
1, 78803, Control_c, 0, 64, 107
1, 78812, Note_off_c, 0, 88, 62
1, 78818, Control_c, 0, 64, 107
1, 78832, Control_c, 0, 64, 108
1, 78844, Note_on_c, 0, 87, 59
1, 78847, Control_c, 0, 64, 109
1, 78862, Control_c, 0, 64, 110
1, 78882, Note_off_c, 0, 87, 63
1, 78883, Note_on_c, 0, 88, 66
1, 78906, Control_c, 0, 64, 110
1, 78921, Note_off_c, 0, 88, 60
1, 78936, Control_c, 0, 64, 111
1, 78950, Note_on_c, 0, 87, 65
1, 78951, Control_c, 0, 64, 111
1, 78989, Note_off_c, 0, 87, 53
1, 79013, Note_on_c, 0, 88, 61
1, 79037, Note_off_c, 0, 88, 61
1, 79067, Note_on_c, 0, 87, 66
1, 79097, Note_off_c, 0, 87, 53
1, 79099, Control_c, 0, 64, 112
1, 79116, Note_on_c, 0, 88, 61
1, 79144, Control_c, 0, 64, 113
1, 79171, Note_off_c, 0, 88, 53
1, 79186, Note_on_c, 0, 87, 58
1, 79202, Control_c, 0, 64, 113
1, 79217, Control_c, 0, 64, 114
1, 79249, Note_off_c, 0, 87, 60
1, 79262, Note_on_c, 0, 88, 64
1, 79262, Control_c, 0, 64, 115
1, 79290, Note_off_c, 0, 88, 68
1, 79293, Control_c, 0, 64, 116
1, 79307, Control_c, 0, 64, 117
1, 79329, Control_c, 0, 64, 118
1, 79332, Note_on_c, 0, 87, 68
1, 79374, Control_c, 0, 64, 113
1, 79376, Note_off_c, 0, 87, 57
1, 79389, Control_c, 0, 64, 111
1, 79404, Control_c, 0, 64, 107
1, 79419, Control_c, 0, 64, 103
1, 79428, Note_on_c, 0, 86, 61
1, 79433, Control_c, 0, 64, 97
1, 79448, Control_c, 0, 64, 91
1, 79463, Control_c, 0, 64, 84
1, 79478, Control_c, 0, 64, 77
1, 79487, Note_off_c, 0, 86, 49
1, 79493, Control_c, 0, 64, 71
1, 79500, Note_on_c, 0, 87, 67
1, 79507, Control_c, 0, 64, 66
1, 79522, Control_c, 0, 64, 61
1, 79537, Control_c, 0, 64, 58
1, 79552, Control_c, 0, 64, 56
1, 79581, Control_c, 0, 64, 55
1, 79596, Control_c, 0, 64, 54
1, 79599, Note_off_c, 0, 87, 60
1, 79606, Note_on_c, 0, 88, 60
1, 79611, Control_c, 0, 64, 51
1, 79626, Control_c, 0, 64, 48
1, 79640, Control_c, 0, 64, 43
1, 79655, Control_c, 0, 64, 39
1, 79670, Control_c, 0, 64, 34
1, 79685, Control_c, 0, 64, 29
1, 79700, Control_c, 0, 64, 21
1, 79714, Control_c, 0, 64, 0
1, 79728, Note_off_c, 0, 88, 59
1, 79733, Note_on_c, 0, 87, 61
1, 79851, Note_off_c, 0, 87, 58
1, 79856, Note_on_c, 0, 85, 59
1, 79963, Note_off_c, 0, 85, 61
1, 79989, Note_on_c, 0, 83, 57
1, 80116, Note_off_c, 0, 83, 61
1, 80119, Note_on_c, 0, 82, 53
1, 80223, Note_off_c, 0, 82, 58
1, 80238, Note_on_c, 0, 80, 49
1, 80365, Note_off_c, 0, 80, 58
1, 80375, Note_on_c, 0, 79, 48
1, 80488, Note_off_c, 0, 79, 60
1, 80510, Note_on_c, 0, 78, 51
1, 80622, Note_off_c, 0, 78, 63
1, 80644, Note_on_c, 0, 76, 55
1, 80762, Note_off_c, 0, 76, 62
1, 80770, Note_on_c, 0, 75, 57
1, 80888, Note_off_c, 0, 75, 57
1, 80902, Note_on_c, 0, 73, 52
1, 81014, Note_off_c, 0, 73, 60
1, 81031, Note_on_c, 0, 71, 52
1, 81159, Note_off_c, 0, 71, 61
1, 81163, Note_on_c, 0, 70, 52
1, 81282, Note_off_c, 0, 70, 55
1, 81287, Note_on_c, 0, 68, 49
1, 81416, Note_off_c, 0, 68, 60
1, 81418, Note_on_c, 0, 67, 46
1, 81532, Note_off_c, 0, 67, 62
1, 81550, Note_on_c, 0, 66, 47
1, 81681, Note_off_c, 0, 66, 61
1, 81688, Note_on_c, 0, 64, 55
1, 81811, Note_on_c, 0, 63, 61
1, 81820, Note_off_c, 0, 64, 61
1, 81937, Note_on_c, 0, 61, 63
1, 81966, Note_off_c, 0, 63, 56
1, 82059, Note_on_c, 0, 59, 62
1, 82068, Note_off_c, 0, 61, 61
1, 82186, Note_on_c, 0, 58, 66
1, 82194, Note_off_c, 0, 59, 61
1, 82313, Note_on_c, 0, 56, 60
1, 82326, Note_off_c, 0, 58, 57
1, 82432, Note_off_c, 0, 56, 60
1, 82447, Note_on_c, 0, 55, 50
1, 82559, Note_off_c, 0, 55, 58
1, 82574, Note_on_c, 0, 54, 54
1, 82708, Note_off_c, 0, 54, 59
1, 82718, Note_on_c, 0, 52, 48
1, 82837, Note_off_c, 0, 52, 62
1, 82847, Note_on_c, 0, 51, 52
1, 82960, Note_off_c, 0, 51, 58
1, 82975, Note_on_c, 0, 49, 48
1, 83105, Note_off_c, 0, 49, 57
1, 83120, Note_on_c, 0, 47, 45
1, 83244, Note_off_c, 0, 47, 59
1, 83251, Note_on_c, 0, 46, 46
1, 83375, Note_off_c, 0, 46, 53
1, 83385, Note_on_c, 0, 44, 49
1, 83493, Note_off_c, 0, 44, 57
1, 83513, Note_on_c, 0, 43, 47
1, 83641, Note_on_c, 0, 42, 56
1, 83646, Note_off_c, 0, 43, 60
1, 83769, Note_on_c, 0, 40, 60
1, 83789, Note_off_c, 0, 42, 51
1, 83908, Note_on_c, 0, 39, 57
1, 83932, Note_off_c, 0, 40, 59
1, 84035, Note_on_c, 0, 37, 58
1, 84057, Note_off_c, 0, 39, 54
1, 84165, Note_on_c, 0, 35, 51
1, 84175, Note_off_c, 0, 37, 55
1, 84307, Note_on_c, 0, 34, 53
1, 84314, Note_off_c, 0, 35, 56
1, 84422, Note_off_c, 0, 34, 58
1, 84441, Note_on_c, 0, 35, 51
1, 84558, Note_off_c, 0, 35, 52
1, 84569, Note_on_c, 0, 37, 53
1, 84710, Note_on_c, 0, 39, 46
1, 84719, Note_off_c, 0, 37, 51
1, 84811, Note_off_c, 0, 39, 59
1, 84838, Note_on_c, 0, 40, 44
1, 84957, Note_on_c, 0, 39, 38
1, 84960, Note_off_c, 0, 40, 52
1, 85091, Note_on_c, 0, 37, 48
1, 85128, Note_off_c, 0, 39, 38
1, 85235, Note_on_c, 0, 35, 37
1, 85259, Note_off_c, 0, 37, 36
1, 85357, Note_on_c, 0, 34, 38
1, 85416, Note_off_c, 0, 35, 38
1, 85505, Note_on_c, 0, 39, 43
1, 85516, Note_off_c, 0, 34, 42
1, 85596, Note_off_c, 0, 39, 56
1, 85622, Note_on_c, 0, 37, 38
1, 85756, Note_on_c, 0, 39, 44
1, 85781, Note_off_c, 0, 37, 44
1, 85810, Control_c, 0, 64, 18
1, 85824, Control_c, 0, 64, 37
1, 85839, Control_c, 0, 64, 56
1, 85839, Control_c, 0, 67, 111
1, 85848, Note_off_c, 0, 39, 62
1, 85854, Control_c, 0, 64, 74
1, 85854, Control_c, 0, 67, 44
1, 85869, Control_c, 0, 64, 127
1, 85869, Control_c, 0, 67, 0
1, 85870, Note_on_c, 0, 32, 78
1, 85875, Note_on_c, 0, 56, 96
1, 85935, Note_on_c, 0, 51, 86
1, 85935, Note_on_c, 0, 39, 73
1, 85957, Note_off_c, 0, 32, 60
1, 85972, Control_c, 0, 64, 107
1, 85987, Control_c, 0, 64, 78
1, 85988, Note_off_c, 0, 39, 61
1, 86002, Control_c, 0, 64, 63
1, 86004, Note_on_c, 0, 44, 58
1, 86006, Note_off_c, 0, 51, 64
1, 86006, Note_off_c, 0, 56, 51
1, 86009, Note_on_c, 0, 47, 73
1, 86016, Control_c, 0, 64, 41
1, 86031, Control_c, 0, 64, 0
1, 86049, Note_off_c, 0, 44, 64
1, 86069, Note_off_c, 0, 47, 61
1, 86075, Note_on_c, 0, 39, 58
1, 86075, Note_on_c, 0, 51, 73
1, 86139, Note_off_c, 0, 39, 62
1, 86140, Note_off_c, 0, 51, 65
1, 86147, Note_on_c, 0, 32, 61
1, 86152, Note_on_c, 0, 56, 68
1, 86191, Note_off_c, 0, 32, 63
1, 86204, Note_off_c, 0, 56, 65
1, 86218, Note_on_c, 0, 51, 76
1, 86279, Note_off_c, 0, 51, 63
1, 86289, Note_on_c, 0, 32, 57
1, 86290, Note_on_c, 0, 59, 86
1, 86328, Note_off_c, 0, 32, 63
1, 86332, Note_on_c, 0, 58, 18
1, 86333, Note_off_c, 0, 58, 47
1, 86355, Note_on_c, 0, 51, 76
1, 86358, Note_off_c, 0, 59, 63
1, 86364, Note_on_c, 0, 39, 50
1, 86396, Note_off_c, 0, 39, 60
1, 86413, Note_off_c, 0, 51, 63
1, 86424, Note_on_c, 0, 58, 78
1, 86441, Note_on_c, 0, 32, 38
1, 86470, Note_on_c, 0, 39, 65
1, 86473, Note_on_c, 0, 51, 72
1, 86474, Poly_aftertouch_c, 0, 55, 0
1, 86478, Note_off_c, 0, 32, 48
1, 86489, Note_off_c, 0, 58, 63
1, 86509, Note_off_c, 0, 39, 64
1, 86540, Note_off_c, 0, 51, 63
1, 86543, Note_on_c, 0, 56, 81
1, 86554, Note_on_c, 0, 32, 58
1, 86585, Note_off_c, 0, 32, 62
1, 86594, Note_off_c, 0, 56, 65
1, 86601, Note_on_c, 0, 51, 74
1, 86607, Note_on_c, 0, 39, 45
1, 86617, Control_c, 0, 64, 40
1, 86632, Control_c, 0, 64, 64
1, 86640, Note_off_c, 0, 39, 54
1, 86643, Note_off_c, 0, 51, 61
1, 86647, Control_c, 0, 64, 83
1, 86662, Control_c, 0, 64, 127
1, 86671, Note_on_c, 0, 56, 104
1, 86672, Note_on_c, 0, 32, 66
1, 86728, Note_on_c, 0, 39, 64
1, 86744, Note_on_c, 0, 51, 79
1, 86746, Note_off_c, 0, 32, 61
1, 86781, Note_off_c, 0, 56, 58
1, 86793, Note_on_c, 0, 44, 65
1, 86796, Note_off_c, 0, 39, 60
1, 86803, Note_off_c, 0, 51, 63
1, 86810, Control_c, 0, 64, 103
1, 86820, Note_on_c, 0, 47, 71
1, 86832, Control_c, 0, 64, 77
1, 86847, Control_c, 0, 64, 63
1, 86858, Note_off_c, 0, 44, 63
1, 86862, Control_c, 0, 64, 43
1, 86869, Note_off_c, 0, 47, 60
1, 86877, Control_c, 0, 64, 0
1, 86882, Note_on_c, 0, 39, 55
1, 86882, Note_on_c, 0, 51, 71
1, 86927, Note_off_c, 0, 39, 64
1, 86933, Note_off_c, 0, 51, 65
1, 86941, Note_on_c, 0, 32, 64
1, 86942, Note_on_c, 0, 56, 77
1, 86975, Note_off_c, 0, 32, 64
1, 86977, Note_off_c, 0, 56, 67
1, 87001, Note_on_c, 0, 51, 76
1, 87005, Note_on_c, 0, 39, 57
1, 87038, Note_off_c, 0, 39, 63
1, 87049, Note_off_c, 0, 51, 62
1, 87059, Note_on_c, 0, 32, 71
1, 87062, Note_on_c, 0, 59, 83
1, 87103, Note_off_c, 0, 32, 59
1, 87117, Note_on_c, 0, 39, 67
1, 87118, Note_off_c, 0, 59, 64
1, 87123, Note_on_c, 0, 51, 79
1, 87148, Note_on_c, 0, 55, 28
1, 87158, Note_off_c, 0, 39, 63
1, 87162, Note_off_c, 0, 51, 62
1, 87188, Note_on_c, 0, 58, 77
1, 87190, Note_off_c, 0, 55, 54
1, 87202, Note_on_c, 0, 32, 52
1, 87228, Note_on_c, 0, 39, 69
1, 87236, Note_off_c, 0, 32, 54
1, 87240, Note_on_c, 0, 51, 76
1, 87251, Note_off_c, 0, 58, 63
1, 87270, Note_off_c, 0, 39, 63
1, 87286, Note_off_c, 0, 51, 62
1, 87301, Note_on_c, 0, 56, 74
1, 87312, Note_on_c, 0, 32, 59
1, 87336, Note_off_c, 0, 56, 67
1, 87343, Note_off_c, 0, 32, 61
1, 87351, Note_on_c, 0, 51, 83
1, 87351, Control_c, 0, 64, 32
1, 87363, Note_on_c, 0, 39, 67
1, 87366, Control_c, 0, 64, 61
1, 87376, Note_off_c, 0, 51, 69
1, 87381, Control_c, 0, 64, 78
1, 87395, Control_c, 0, 64, 127
1, 87404, Note_off_c, 0, 39, 58
1, 87425, Note_on_c, 0, 64, 92
1, 87427, Note_on_c, 0, 32, 58
1, 87470, Note_on_c, 0, 40, 55
1, 87488, Note_on_c, 0, 59, 62
1, 87492, Note_off_c, 0, 32, 59
1, 87494, Note_off_c, 0, 64, 60
1, 87527, Note_on_c, 0, 44, 71
1, 87538, Note_off_c, 0, 40, 61
1, 87550, Note_on_c, 0, 56, 78
1, 87550, Note_off_c, 0, 59, 63
1, 87589, Note_off_c, 0, 56, 65
1, 87596, Note_off_c, 0, 44, 62
1, 87607, Note_on_c, 0, 40, 60
1, 87607, Poly_aftertouch_c, 0, 58, 0
1, 87613, Note_on_c, 0, 60, 5
1, 87622, Note_on_c, 0, 59, 69
1, 87625, Control_c, 0, 64, 95
1, 87640, Control_c, 0, 64, 72
1, 87644, Note_off_c, 0, 60, 43
1, 87655, Control_c, 0, 64, 57
1, 87664, Note_off_c, 0, 40, 62
1, 87670, Control_c, 0, 64, 23
1, 87685, Control_c, 0, 64, 0
1, 87688, Note_on_c, 0, 64, 71
1, 87688, Note_on_c, 0, 32, 66
1, 87688, Note_off_c, 0, 59, 64
1, 87713, Note_off_c, 0, 64, 67
1, 87721, Note_off_c, 0, 32, 65
1, 87751, Note_on_c, 0, 59, 68
1, 87766, Note_on_c, 0, 40, 57
1, 87799, Note_off_c, 0, 40, 64
1, 87818, Note_on_c, 0, 68, 82
1, 87819, Note_off_c, 0, 59, 62
1, 87821, Note_on_c, 0, 32, 69
1, 87867, Note_off_c, 0, 32, 57
1, 87874, Note_on_c, 0, 40, 69
1, 87877, Note_on_c, 0, 59, 71
1, 87886, Note_off_c, 0, 68, 59
1, 87915, Note_off_c, 0, 40, 65
1, 87932, Note_off_c, 0, 59, 64
1, 87939, Note_on_c, 0, 66, 82
1, 87945, Note_on_c, 0, 32, 66
1, 87980, Note_off_c, 0, 32, 65
1, 87998, Note_on_c, 0, 40, 64
1, 88003, Note_off_c, 0, 66, 60
1, 88010, Note_on_c, 0, 59, 74
1, 88033, Note_off_c, 0, 40, 63
1, 88051, Note_off_c, 0, 59, 60
1, 88054, Note_on_c, 0, 32, 68
1, 88066, Note_on_c, 0, 64, 81
1, 88093, Note_off_c, 0, 32, 64
1, 88111, Note_on_c, 0, 40, 66
1, 88111, Note_off_c, 0, 64, 64
1, 88123, Note_on_c, 0, 59, 74
1, 88149, Note_off_c, 0, 40, 67
1, 88153, Note_off_c, 0, 59, 62
1, 88159, Control_c, 0, 64, 39
1, 88174, Control_c, 0, 64, 64
1, 88184, Note_on_c, 0, 32, 68
1, 88188, Note_on_c, 0, 64, 100
1, 88189, Control_c, 0, 64, 80
1, 88204, Control_c, 0, 64, 127
1, 88224, Note_on_c, 0, 40, 64
1, 88256, Note_on_c, 0, 59, 67
1, 88257, Note_off_c, 0, 32, 60
1, 88284, Note_off_c, 0, 64, 61
1, 88286, Note_on_c, 0, 44, 72
1, 88293, Note_off_c, 0, 40, 63
1, 88302, Note_on_c, 0, 56, 82
1, 88317, Note_off_c, 0, 59, 63
1, 88355, Note_off_c, 0, 44, 60
1, 88356, Note_off_c, 0, 56, 65
1, 88367, Note_on_c, 0, 40, 56
1, 88388, Note_on_c, 0, 59, 69
1, 88404, Control_c, 0, 64, 101
1, 88418, Control_c, 0, 64, 72
1, 88422, Note_off_c, 0, 40, 62
1, 88433, Control_c, 0, 64, 51
1, 88439, Note_off_c, 0, 59, 65
1, 88445, Note_on_c, 0, 32, 69
1, 88448, Control_c, 0, 64, 0
1, 88450, Note_on_c, 0, 64, 70
1, 88486, Note_off_c, 0, 64, 64
1, 88492, Note_off_c, 0, 32, 60
1, 88528, Note_on_c, 0, 40, 64
1, 88533, Note_on_c, 0, 59, 81
1, 88570, Note_off_c, 0, 40, 67
1, 88581, Note_off_c, 0, 59, 62
1, 88589, Note_on_c, 0, 32, 81
1, 88594, Note_on_c, 0, 68, 86
1, 88656, Note_on_c, 0, 40, 74
1, 88660, Note_on_c, 0, 59, 80
1, 88667, Note_off_c, 0, 32, 63
1, 88672, Note_off_c, 0, 68, 60
1, 88713, Note_off_c, 0, 59, 63
1, 88718, Note_off_c, 0, 40, 63
1, 88722, Note_on_c, 0, 66, 91
1, 88728, Note_on_c, 0, 32, 70
1, 88783, Note_on_c, 0, 40, 70
1, 88801, Note_off_c, 0, 32, 63
1, 88802, Note_on_c, 0, 59, 79
1, 88804, Note_off_c, 0, 66, 62
1, 88832, Control_c, 0, 64, 53
1, 88845, Note_on_c, 0, 32, 69
1, 88847, Control_c, 0, 64, 68
1, 88857, Note_off_c, 0, 40, 62
1, 88857, Note_off_c, 0, 59, 57
1, 88860, Note_on_c, 0, 64, 94
1, 88862, Control_c, 0, 64, 98
1, 88877, Control_c, 0, 64, 127
1, 88910, Note_off_c, 0, 32, 61
1, 88937, Note_off_c, 0, 64, 63
1, 88945, Note_on_c, 0, 59, 87
1, 88983, Note_off_c, 0, 59, 63
1, 89087, Note_on_c, 0, 45, 97
1, 89094, Note_on_c, 0, 33, 91
1, 89096, Note_on_c, 0, 73, 82
1, 89136, Control_c, 0, 64, 94
1, 89151, Control_c, 0, 64, 69
1, 89166, Control_c, 0, 64, 46
1, 89172, Note_off_c, 0, 73, 65
1, 89174, Note_on_c, 0, 76, 81
1, 89181, Control_c, 0, 64, 0
1, 89239, Note_off_c, 0, 76, 61
1, 89247, Note_on_c, 0, 73, 76
1, 89302, Note_off_c, 0, 73, 66
1, 89306, Note_on_c, 0, 76, 79
1, 89351, Note_off_c, 0, 76, 64
1, 89360, Note_on_c, 0, 73, 78
1, 89419, Note_off_c, 0, 73, 65
1, 89422, Note_on_c, 0, 76, 79
1, 89469, Note_off_c, 0, 76, 62
1, 89471, Note_on_c, 0, 73, 74
1, 89532, Note_off_c, 0, 73, 64
1, 89533, Note_on_c, 0, 76, 77
1, 89588, Note_on_c, 0, 73, 72
1, 89590, Note_off_c, 0, 76, 64
1, 89655, Note_on_c, 0, 76, 76
1, 89655, Note_off_c, 0, 73, 64
1, 89705, Note_off_c, 0, 76, 62
1, 89712, Note_on_c, 0, 73, 69
1, 89759, Note_off_c, 0, 73, 60
1, 89760, Control_c, 0, 64, 34
1, 89774, Note_on_c, 0, 76, 77
1, 89775, Control_c, 0, 64, 54
1, 89789, Control_c, 0, 64, 62
1, 89804, Control_c, 0, 64, 67
1, 89827, Control_c, 0, 64, 74
1, 89831, Note_off_c, 0, 76, 61
1, 89836, Note_on_c, 0, 73, 64
1, 89842, Control_c, 0, 64, 87
1, 89857, Control_c, 0, 64, 127
1, 89879, Note_off_c, 0, 73, 62
1, 89889, Note_on_c, 0, 76, 77
1, 89903, Note_off_c, 0, 45, 62
1, 89929, Note_off_c, 0, 33, 55
1, 89947, Note_off_c, 0, 76, 64
1, 89964, Note_on_c, 0, 73, 57
1, 90008, Note_off_c, 0, 73, 64
1, 90012, Note_on_c, 0, 76, 73
1, 90074, Note_off_c, 0, 76, 61
1, 90083, Note_on_c, 0, 73, 62
1, 90134, Note_off_c, 0, 73, 63
1, 90135, Note_on_c, 0, 76, 75
1, 90162, Note_on_c, 0, 46, 97
1, 90162, Note_on_c, 0, 34, 86
1, 90200, Note_on_c, 0, 70, 81
1, 90218, Note_off_c, 0, 76, 62
1, 90233, Note_off_c, 0, 34, 48
1, 90246, Note_off_c, 0, 46, 37
1, 90273, Note_on_c, 0, 37, 77
1, 90286, Control_c, 0, 64, 93
1, 90287, Note_off_c, 0, 70, 63
1, 90298, Note_on_c, 0, 73, 74
1, 90301, Control_c, 0, 64, 73
1, 90315, Control_c, 0, 64, 62
1, 90325, Note_on_c, 0, 67, 62
1, 90330, Control_c, 0, 64, 48
1, 90343, Note_off_c, 0, 37, 60
1, 90345, Control_c, 0, 64, 45
1, 90360, Control_c, 0, 64, 44
1, 90375, Control_c, 0, 64, 40
1, 90383, Note_off_c, 0, 73, 62
1, 90385, Note_on_c, 0, 39, 67
1, 90386, Note_off_c, 0, 67, 62
1, 90389, Control_c, 0, 64, 30
1, 90391, Note_on_c, 0, 70, 79
1, 90404, Control_c, 0, 64, 0
1, 90428, Note_off_c, 0, 70, 65
1, 90430, Note_off_c, 0, 39, 63
1, 90451, Note_on_c, 0, 40, 49
1, 90472, Note_on_c, 0, 64, 67
1, 90500, Note_off_c, 0, 64, 67
1, 90511, Note_on_c, 0, 43, 72
1, 90517, Note_on_c, 0, 67, 81
1, 90530, Note_off_c, 0, 40, 64
1, 90573, Note_off_c, 0, 43, 62
1, 90609, Note_off_c, 0, 67, 62
1, 90618, Note_on_c, 0, 61, 58
1, 90632, Note_on_c, 0, 46, 83
1, 90636, Note_on_c, 0, 62, 11
1, 90680, Note_off_c, 0, 46, 64
1, 90681, Note_on_c, 0, 64, 54
1, 90683, Note_off_c, 0, 61, 62
1, 90720, Note_on_c, 0, 58, 75
1, 90733, Note_off_c, 0, 62, 41
1, 90743, Note_on_c, 0, 49, 77
1, 90754, Note_off_c, 0, 64, 60
1, 90779, Note_off_c, 0, 58, 64
1, 90785, Note_off_c, 0, 49, 60
1, 90790, Note_on_c, 0, 61, 62
1, 90822, Note_off_c, 0, 61, 65
1, 90850, Note_on_c, 0, 56, 81
1, 90860, Note_on_c, 0, 52, 91
1, 90904, Note_off_c, 0, 52, 65
1, 90910, Note_on_c, 0, 58, 74
1, 90920, Note_off_c, 0, 56, 63
1, 90969, Note_on_c, 0, 61, 85
1, 90971, Note_off_c, 0, 58, 64
1, 90977, Note_on_c, 0, 52, 76
1, 91024, Note_off_c, 0, 52, 65
1, 91039, Note_on_c, 0, 58, 80
1, 91062, Note_off_c, 0, 61, 60
1, 91092, Note_on_c, 0, 52, 94
1, 91104, Note_on_c, 0, 56, 85
1, 91119, Note_off_c, 0, 58, 62
1, 91138, Note_off_c, 0, 52, 67
1, 91174, Note_on_c, 0, 61, 89
1, 91189, Note_off_c, 0, 56, 64
1, 91233, Note_on_c, 0, 52, 103
1, 91274, Note_off_c, 0, 61, 60
1, 91297, Note_on_c, 0, 56, 83
1, 91375, Note_on_c, 0, 61, 79
1, 91397, Note_off_c, 0, 56, 62
1, 91434, Note_on_c, 0, 58, 74
1, 91469, Note_off_c, 0, 61, 61
1, 91502, Note_on_c, 0, 56, 72
1, 91547, Note_off_c, 0, 58, 57
1, 91567, Note_on_c, 0, 61, 74
1, 91577, Note_off_c, 0, 56, 63
1, 91620, Note_on_c, 0, 51, 92
1, 91634, Note_off_c, 0, 52, 64
1, 91635, Note_off_c, 0, 61, 60
1, 91692, Note_on_c, 0, 55, 66
1, 91748, Note_off_c, 0, 55, 62
1, 91749, Note_on_c, 0, 61, 71
1, 91790, Note_off_c, 0, 51, 65
1, 91810, Note_on_c, 0, 58, 72
1, 91810, Note_off_c, 0, 61, 62
1, 91828, Control_c, 0, 64, 28
1, 91843, Control_c, 0, 64, 55
1, 91857, Note_on_c, 0, 55, 65
1, 91858, Control_c, 0, 64, 67
1, 91873, Control_c, 0, 64, 77
1, 91888, Control_c, 0, 64, 92
1, 91890, Note_on_c, 0, 61, 75
1, 91891, Note_off_c, 0, 55, 66
1, 91896, Note_off_c, 0, 58, 63
1, 91903, Control_c, 0, 64, 105
1, 91914, Note_off_c, 0, 61, 68
1, 91917, Control_c, 0, 64, 127
1, 91969, Note_on_c, 0, 44, 82
1, 91985, Note_on_c, 0, 68, 97
1, 92006, Control_c, 0, 64, 119
1, 92021, Control_c, 0, 64, 94
1, 92025, Note_on_c, 0, 51, 79
1, 92035, Control_c, 0, 64, 80
1, 92058, Control_c, 0, 64, 71
1, 92063, Note_off_c, 0, 44, 60
1, 92072, Note_on_c, 0, 63, 68
1, 92073, Control_c, 0, 64, 66
1, 92088, Control_c, 0, 64, 62
1, 92096, Note_off_c, 0, 68, 56
1, 92103, Control_c, 0, 64, 56
1, 92104, Note_off_c, 0, 51, 62
1, 92108, Note_on_c, 0, 56, 76
1, 92118, Control_c, 0, 64, 45
1, 92129, Note_on_c, 0, 59, 74
1, 92133, Note_off_c, 0, 63, 63
1, 92133, Control_c, 0, 64, 30
1, 92147, Control_c, 0, 64, 24
1, 92168, Note_off_c, 0, 56, 64
1, 92175, Note_off_c, 0, 59, 57
1, 92187, Note_on_c, 0, 51, 69
1, 92192, Note_on_c, 0, 63, 65
1, 92221, Control_c, 0, 64, 24
1, 92236, Note_on_c, 0, 44, 72
1, 92236, Control_c, 0, 64, 11
1, 92240, Note_off_c, 0, 51, 62
1, 92246, Note_off_c, 0, 63, 64
1, 92248, Note_on_c, 0, 68, 76
1, 92251, Control_c, 0, 64, 0
1, 92287, Note_off_c, 0, 68, 63
1, 92293, Note_off_c, 0, 44, 63
1, 92308, Note_on_c, 0, 63, 76
1, 92317, Note_on_c, 0, 51, 51
1, 92343, Note_off_c, 0, 51, 60
1, 92362, Note_off_c, 0, 63, 63
1, 92371, Note_on_c, 0, 71, 87
1, 92376, Note_on_c, 0, 44, 63
1, 92422, Note_off_c, 0, 44, 62
1, 92428, Note_on_c, 0, 51, 66
1, 92433, Note_off_c, 0, 71, 62
1, 92435, Note_on_c, 0, 63, 80
1, 92467, Note_off_c, 0, 51, 64
1, 92487, Note_off_c, 0, 63, 63
1, 92500, Note_on_c, 0, 70, 80
1, 92517, Note_on_c, 0, 44, 67
1, 92550, Note_on_c, 0, 63, 72
1, 92553, Note_off_c, 0, 44, 65
1, 92561, Note_off_c, 0, 70, 64
1, 92561, Note_on_c, 0, 51, 68
1, 92596, Note_off_c, 0, 51, 65
1, 92606, Note_off_c, 0, 63, 63
1, 92615, Note_on_c, 0, 68, 80
1, 92636, Note_on_c, 0, 44, 71
1, 92658, Note_off_c, 0, 68, 63
1, 92668, Note_off_c, 0, 44, 66
1, 92674, Note_on_c, 0, 63, 80
1, 92680, Control_c, 0, 64, 48
1, 92686, Note_on_c, 0, 51, 70
1, 92695, Control_c, 0, 64, 71
1, 92709, Control_c, 0, 64, 127
1, 92713, Note_off_c, 0, 63, 63
1, 92716, Note_off_c, 0, 51, 66
1, 92741, Note_on_c, 0, 68, 102
1, 92744, Note_on_c, 0, 44, 81
1, 92795, Note_on_c, 0, 51, 63
1, 92826, Note_on_c, 0, 63, 71
1, 92833, Note_off_c, 0, 44, 62
1, 92860, Note_on_c, 0, 56, 77
1, 92862, Note_off_c, 0, 68, 56
1, 92863, Note_off_c, 0, 51, 64
1, 92883, Note_off_c, 0, 63, 61
1, 92889, Note_on_c, 0, 59, 61
1, 92895, Control_c, 0, 64, 81
1, 92910, Control_c, 0, 64, 63
1, 92922, Note_off_c, 0, 59, 52
1, 92925, Control_c, 0, 64, 31
1, 92931, Note_off_c, 0, 56, 63
1, 92940, Control_c, 0, 64, 0
1, 92946, Note_on_c, 0, 63, 66
1, 92946, Note_on_c, 0, 51, 67
1, 92998, Note_off_c, 0, 63, 64
1, 93000, Note_off_c, 0, 51, 61
1, 93001, Note_on_c, 0, 44, 71
1, 93003, Note_on_c, 0, 68, 74
1, 93033, Note_off_c, 0, 68, 66
1, 93050, Note_off_c, 0, 44, 62
1, 93058, Note_on_c, 0, 63, 76
1, 93060, Note_on_c, 0, 51, 63
1, 93098, Note_off_c, 0, 51, 67
1, 93107, Note_off_c, 0, 63, 63
1, 93125, Note_on_c, 0, 71, 86
1, 93132, Note_on_c, 0, 44, 70
1, 93178, Note_off_c, 0, 44, 62
1, 93190, Note_off_c, 0, 71, 63
1, 93190, Note_on_c, 0, 51, 76
1, 93193, Note_on_c, 0, 63, 80
1, 93208, Note_on_c, 0, 67, 36
1, 93221, Note_off_c, 0, 51, 67
1, 93229, Note_off_c, 0, 63, 60
1, 93244, Note_off_c, 0, 67, 34
1, 93253, Note_on_c, 0, 70, 80
1, 93267, Note_on_c, 0, 44, 68
1, 93301, Note_off_c, 0, 44, 64
1, 93305, Note_on_c, 0, 51, 74
1, 93313, Note_on_c, 0, 63, 77
1, 93316, Note_off_c, 0, 70, 64
1, 93337, Note_off_c, 0, 51, 64
1, 93348, Note_off_c, 0, 63, 60
1, 93366, Note_on_c, 0, 68, 75
1, 93377, Note_on_c, 0, 44, 68
1, 93399, Note_off_c, 0, 68, 66
1, 93403, Note_off_c, 0, 44, 66
1, 93424, Note_on_c, 0, 63, 81
1, 93429, Control_c, 0, 64, 50
1, 93432, Note_on_c, 0, 51, 64
1, 93444, Control_c, 0, 64, 67
1, 93447, Note_off_c, 0, 63, 70
1, 93456, Note_off_c, 0, 51, 63
1, 93459, Control_c, 0, 64, 89
1, 93474, Control_c, 0, 64, 127
1, 93481, Note_on_c, 0, 44, 71
1, 93483, Note_on_c, 0, 76, 102
1, 93497, Note_on_c, 0, 52, 66
1, 93556, Note_off_c, 0, 44, 61
1, 93566, Note_on_c, 0, 71, 64
1, 93573, Note_on_c, 0, 70, 50
1, 93576, Note_off_c, 0, 76, 60
1, 93581, Note_on_c, 0, 56, 79
1, 93585, Note_off_c, 0, 52, 66
1, 93603, Note_off_c, 0, 70, 57
1, 93605, Note_off_c, 0, 71, 63
1, 93616, Note_on_c, 0, 68, 75
1, 93641, Note_off_c, 0, 56, 64
1, 93649, Note_on_c, 0, 52, 66
1, 93652, Note_off_c, 0, 68, 61
1, 93683, Note_on_c, 0, 71, 75
1, 93690, Control_c, 0, 64, 94
1, 93705, Control_c, 0, 64, 70
1, 93706, Note_off_c, 0, 52, 64
1, 93715, Note_on_c, 0, 44, 73
1, 93719, Control_c, 0, 64, 51
1, 93732, Note_off_c, 0, 71, 66
1, 93734, Control_c, 0, 64, 0
1, 93738, Note_on_c, 0, 76, 73
1, 93763, Note_off_c, 0, 76, 68
1, 93771, Note_off_c, 0, 44, 64
1, 93801, Note_on_c, 0, 71, 76
1, 93813, Note_on_c, 0, 52, 37
1, 93843, Note_off_c, 0, 52, 47
1, 93853, Note_on_c, 0, 44, 79
1, 93855, Note_off_c, 0, 71, 63
1, 93861, Note_on_c, 0, 80, 86
1, 93909, Note_on_c, 0, 52, 74
1, 93917, Note_off_c, 0, 44, 62
1, 93926, Note_on_c, 0, 71, 78
1, 93941, Note_off_c, 0, 80, 63
1, 93962, Note_off_c, 0, 52, 62
1, 93966, Note_off_c, 0, 71, 65
1, 93981, Note_on_c, 0, 78, 83
1, 93983, Note_on_c, 0, 44, 63
1, 94031, Note_on_c, 0, 52, 67
1, 94031, Note_off_c, 0, 44, 63
1, 94051, Note_off_c, 0, 78, 62
1, 94052, Note_on_c, 0, 71, 74
1, 94070, Note_off_c, 0, 52, 66
1, 94088, Note_off_c, 0, 71, 60
1, 94097, Note_on_c, 0, 44, 75
1, 94104, Note_on_c, 0, 76, 89
1, 94143, Note_off_c, 0, 44, 63
1, 94153, Note_off_c, 0, 76, 67
1, 94164, Note_on_c, 0, 52, 65
1, 94171, Note_on_c, 0, 71, 83
1, 94192, Note_off_c, 0, 52, 65
1, 94193, Control_c, 0, 64, 39
1, 94205, Note_off_c, 0, 71, 61
1, 94208, Control_c, 0, 64, 59
1, 94223, Control_c, 0, 64, 68
1, 94228, Note_on_c, 0, 44, 69
1, 94233, Note_on_c, 0, 76, 99
1, 94237, Control_c, 0, 64, 83
1, 94246, Note_on_c, 0, 52, 65
1, 94252, Control_c, 0, 64, 127
1, 94296, Note_off_c, 0, 44, 60
1, 94313, Note_on_c, 0, 71, 67
1, 94326, Note_on_c, 0, 56, 79
1, 94330, Note_off_c, 0, 52, 66
1, 94349, Note_off_c, 0, 76, 65
1, 94351, Note_on_c, 0, 68, 84
1, 94353, Note_off_c, 0, 71, 55
1, 94383, Note_off_c, 0, 56, 64
1, 94396, Note_off_c, 0, 68, 64
1, 94402, Note_on_c, 0, 52, 64
1, 94427, Note_on_c, 0, 71, 76
1, 94446, Note_off_c, 0, 52, 63
1, 94458, Note_on_c, 0, 44, 80
1, 94473, Note_off_c, 0, 71, 65
1, 94482, Note_on_c, 0, 76, 72
1, 94483, Control_c, 0, 64, 81
1, 94498, Control_c, 0, 64, 62
1, 94501, Note_off_c, 0, 76, 67
1, 94508, Note_off_c, 0, 44, 64
1, 94513, Control_c, 0, 64, 0
1, 94542, Note_on_c, 0, 52, 67
1, 94542, Note_on_c, 0, 71, 71
1, 94580, Note_off_c, 0, 52, 65
1, 94605, Note_on_c, 0, 44, 89
1, 94609, Note_on_c, 0, 80, 93
1, 94619, Note_off_c, 0, 71, 62
1, 94670, Note_on_c, 0, 52, 78
1, 94675, Note_on_c, 0, 71, 77
1, 94681, Note_off_c, 0, 80, 60
1, 94682, Note_off_c, 0, 44, 64
1, 94726, Note_off_c, 0, 52, 65
1, 94738, Note_off_c, 0, 71, 62
1, 94740, Note_on_c, 0, 44, 74
1, 94743, Note_on_c, 0, 78, 91
1, 94800, Note_on_c, 0, 52, 81
1, 94812, Note_off_c, 0, 44, 65
1, 94814, Note_on_c, 0, 71, 84
1, 94822, Note_off_c, 0, 78, 63
1, 94839, Control_c, 0, 64, 37
1, 94853, Control_c, 0, 64, 58
1, 94854, Note_off_c, 0, 52, 62
1, 94866, Note_on_c, 0, 44, 81
1, 94868, Control_c, 0, 64, 68
1, 94872, Note_off_c, 0, 71, 57
1, 94880, Note_on_c, 0, 76, 104
1, 94883, Control_c, 0, 64, 97
1, 94898, Control_c, 0, 64, 127
1, 94936, Note_off_c, 0, 44, 63
1, 94953, Note_on_c, 0, 52, 46
1, 94957, Note_off_c, 0, 76, 67
1, 94961, Note_on_c, 0, 71, 84
1, 94977, Note_off_c, 0, 52, 59
1, 94996, Note_off_c, 0, 71, 60
1, 95095, Note_on_c, 0, 57, 97
1, 95098, Note_on_c, 0, 45, 90
1, 95115, Note_on_c, 0, 85, 83
1, 95142, Control_c, 0, 64, 90
1, 95157, Control_c, 0, 64, 66
1, 95172, Control_c, 0, 64, 0
1, 95190, Note_off_c, 0, 85, 62
1, 95194, Note_on_c, 0, 88, 82
1, 95216, Poly_aftertouch_c, 0, 48, 0
1, 95265, Note_off_c, 0, 88, 64
1, 95290, Note_on_c, 0, 85, 45
1, 95302, Note_on_c, 0, 86, 29
1, 95315, Note_off_c, 0, 85, 61
1, 95329, Note_off_c, 0, 86, 49
1, 95340, Note_on_c, 0, 87, 44
1, 95344, Note_on_c, 0, 89, 47
1, 95361, Note_on_c, 0, 88, 31
1, 95369, Note_off_c, 0, 87, 49
1, 95369, Note_off_c, 0, 89, 38
1, 95386, Note_on_c, 0, 85, 83
1, 95393, Note_off_c, 0, 88, 33
1, 95444, Note_off_c, 0, 85, 66
1, 95449, Note_on_c, 0, 88, 83
1, 95502, Note_on_c, 0, 85, 75
1, 95506, Note_off_c, 0, 88, 65
1, 95563, Note_off_c, 0, 85, 66
1, 95566, Note_on_c, 0, 88, 73
1, 95620, Note_on_c, 0, 85, 74
1, 95622, Note_off_c, 0, 88, 65
1, 95632, Control_c, 0, 64, 17
1, 95647, Control_c, 0, 64, 46
1, 95661, Control_c, 0, 64, 56
1, 95676, Control_c, 0, 64, 62
1, 95681, Note_off_c, 0, 85, 65
1, 95688, Note_on_c, 0, 88, 77
1, 95691, Control_c, 0, 64, 65
1, 95706, Control_c, 0, 64, 67
1, 95721, Control_c, 0, 64, 70
1, 95736, Control_c, 0, 64, 72
1, 95736, Note_on_c, 0, 85, 71
1, 95739, Note_off_c, 0, 88, 63
1, 95750, Control_c, 0, 64, 75
1, 95765, Control_c, 0, 64, 78
1, 95780, Control_c, 0, 64, 82
1, 95795, Control_c, 0, 64, 87
1, 95798, Note_off_c, 0, 85, 65
1, 95810, Note_on_c, 0, 88, 72
1, 95816, Control_c, 0, 64, 97
1, 95831, Control_c, 0, 64, 111
1, 95846, Control_c, 0, 64, 127
1, 95861, Note_on_c, 0, 85, 79
1, 95867, Note_off_c, 0, 88, 64
1, 95905, Note_off_c, 0, 57, 62
1, 95913, Note_off_c, 0, 45, 59
1, 95925, Note_off_c, 0, 85, 64
1, 95927, Note_on_c, 0, 88, 74
1, 95980, Note_on_c, 0, 85, 77
1, 95985, Note_off_c, 0, 88, 65
1, 96040, Note_off_c, 0, 85, 66
1, 96041, Note_on_c, 0, 88, 74
1, 96097, Note_on_c, 0, 85, 75
1, 96105, Note_off_c, 0, 88, 64
1, 96157, Note_off_c, 0, 85, 66
1, 96161, Note_on_c, 0, 88, 75
1, 96183, Note_on_c, 0, 58, 104
1, 96187, Note_on_c, 0, 46, 88
1, 96187, Control_c, 0, 64, 93
1, 96202, Control_c, 0, 64, 70
1, 96215, Note_off_c, 0, 46, 68
1, 96217, Control_c, 0, 64, 53
1, 96220, Note_off_c, 0, 58, 63
1, 96223, Note_off_c, 0, 88, 65
1, 96224, Note_on_c, 0, 85, 77
1, 96231, Control_c, 0, 64, 0
1, 96282, Note_off_c, 0, 85, 66
1, 96285, Note_on_c, 0, 88, 72
1, 96301, Note_on_c, 0, 61, 102
1, 96305, Note_on_c, 0, 49, 89
1, 96339, Note_off_c, 0, 49, 63
1, 96339, Note_off_c, 0, 61, 65
1, 96349, Note_on_c, 0, 85, 77
1, 96349, Note_off_c, 0, 88, 64
1, 96412, Note_off_c, 0, 85, 65
1, 96413, Note_on_c, 0, 88, 77
1, 96420, Note_on_c, 0, 64, 90
1, 96421, Note_on_c, 0, 52, 80
1, 96450, Note_off_c, 0, 52, 68
1, 96451, Note_off_c, 0, 64, 65
1, 96452, Note_on_c, 0, 86, 32
1, 96471, Note_off_c, 0, 86, 38
1, 96477, Note_off_c, 0, 88, 65
1, 96478, Note_on_c, 0, 85, 73
1, 96536, Note_on_c, 0, 67, 85
1, 96539, Note_on_c, 0, 55, 76
1, 96556, Note_off_c, 0, 85, 66
1, 96561, Note_on_c, 0, 88, 75
1, 96572, Note_off_c, 0, 55, 66
1, 96572, Note_off_c, 0, 67, 63
1, 96583, Note_on_c, 0, 86, 39
1, 96618, Note_on_c, 0, 85, 56
1, 96619, Note_off_c, 0, 86, 49
1, 96645, Note_off_c, 0, 88, 65
1, 96651, Note_on_c, 0, 82, 85
1, 96662, Note_on_c, 0, 70, 93
1, 96668, Note_on_c, 0, 58, 78
1, 96675, Note_off_c, 0, 85, 64
1, 96690, Note_off_c, 0, 70, 66
1, 96693, Note_off_c, 0, 58, 68
1, 96739, Note_off_c, 0, 82, 61
1, 96744, Note_on_c, 0, 80, 82
1, 96767, Note_on_c, 0, 73, 95
1, 96779, Note_on_c, 0, 61, 66
1, 96806, Note_off_c, 0, 73, 64
1, 96809, Note_off_c, 0, 61, 66
1, 96814, Note_off_c, 0, 80, 51
1, 96837, Note_on_c, 0, 82, 76
1, 96893, Note_on_c, 0, 76, 95
1, 96897, Note_off_c, 0, 82, 65
1, 96903, Note_on_c, 0, 80, 80
1, 96906, Note_on_c, 0, 64, 74
1, 96931, Note_off_c, 0, 64, 69
1, 96932, Note_off_c, 0, 76, 65
1, 96965, Note_on_c, 0, 82, 83
1, 96972, Note_off_c, 0, 80, 64
1, 97004, Note_on_c, 0, 76, 92
1, 97008, Note_on_c, 0, 64, 85
1, 97018, Note_off_c, 0, 82, 66
1, 97018, Note_on_c, 0, 85, 77
1, 97045, Note_off_c, 0, 64, 62
1, 97046, Note_off_c, 0, 76, 65
1, 97083, Note_on_c, 0, 82, 84
1, 97103, Note_off_c, 0, 85, 64
1, 97120, Note_on_c, 0, 76, 100
1, 97128, Note_on_c, 0, 64, 81
1, 97137, Note_on_c, 0, 80, 79
1, 97163, Note_off_c, 0, 64, 64
1, 97163, Note_off_c, 0, 82, 63
1, 97164, Note_off_c, 0, 76, 67
1, 97204, Note_on_c, 0, 85, 91
1, 97218, Note_off_c, 0, 80, 65
1, 97246, Note_on_c, 0, 76, 106
1, 97254, Note_on_c, 0, 64, 91
1, 97271, Note_off_c, 0, 85, 62
1, 97319, Note_on_c, 0, 80, 86
1, 97374, Control_c, 0, 64, 45
1, 97378, Note_on_c, 0, 85, 76
1, 97388, Control_c, 0, 64, 62
1, 97403, Control_c, 0, 64, 73
1, 97411, Note_off_c, 0, 80, 63
1, 97418, Control_c, 0, 64, 97
1, 97429, Note_off_c, 0, 64, 63
1, 97433, Control_c, 0, 64, 127
1, 97438, Note_on_c, 0, 82, 71
1, 97466, Note_off_c, 0, 76, 58
1, 97488, Note_off_c, 0, 85, 59
1, 97492, Note_on_c, 0, 80, 62
1, 97580, Note_off_c, 0, 82, 63
1, 97589, Note_off_c, 0, 80, 58
1, 97591, Note_on_c, 0, 85, 71
1, 97641, Control_c, 0, 64, 94
1, 97650, Note_on_c, 0, 75, 81
1, 97656, Control_c, 0, 64, 71
1, 97661, Note_on_c, 0, 63, 64
1, 97671, Control_c, 0, 64, 50
1, 97685, Control_c, 0, 64, 0
1, 97690, Note_off_c, 0, 85, 58
1, 97728, Note_on_c, 0, 79, 66
1, 97760, Control_c, 0, 64, 37
1, 97775, Control_c, 0, 64, 60
1, 97790, Control_c, 0, 64, 68
1, 97799, Note_on_c, 0, 85, 63
1, 97799, Note_off_c, 0, 79, 62
1, 97804, Control_c, 0, 64, 80
1, 97819, Control_c, 0, 64, 123
1, 97834, Control_c, 0, 64, 127
1, 97855, Note_off_c, 0, 75, 61
1, 97866, Note_on_c, 0, 82, 62
1, 97889, Note_off_c, 0, 85, 60
1, 97915, Note_off_c, 0, 63, 56
1, 97933, Note_on_c, 0, 79, 66
1, 97979, Note_off_c, 0, 82, 61
1, 97985, Note_off_c, 0, 79, 64
1, 98001, Note_on_c, 0, 85, 70
1, 98041, Control_c, 0, 64, 99
1, 98042, Note_on_c, 0, 68, 83
1, 98064, Control_c, 0, 64, 71
1, 98078, Control_c, 0, 64, 51
1, 98081, Note_off_c, 0, 85, 60
1, 98093, Control_c, 0, 64, 0
1, 98144, Note_on_c, 0, 76, 58
1, 98179, Note_off_c, 0, 76, 65
1, 98182, Control_c, 0, 64, 25
1, 98195, Note_on_c, 0, 85, 68
1, 98197, Control_c, 0, 64, 51
1, 98211, Control_c, 0, 64, 62
1, 98226, Control_c, 0, 64, 67
1, 98241, Control_c, 0, 64, 76
1, 98243, Note_off_c, 0, 68, 57
1, 98256, Control_c, 0, 64, 87
1, 98260, Note_on_c, 0, 82, 64
1, 98265, Note_off_c, 0, 85, 59
1, 98271, Control_c, 0, 64, 103
1, 98285, Control_c, 0, 64, 127
1, 98323, Note_on_c, 0, 76, 63
1, 98361, Note_off_c, 0, 76, 65
1, 98374, Note_off_c, 0, 82, 59
1, 98379, Note_on_c, 0, 85, 70
1, 98432, Note_on_c, 0, 67, 83
1, 98434, Control_c, 0, 64, 113
1, 98449, Control_c, 0, 64, 83
1, 98464, Control_c, 0, 64, 64
1, 98475, Note_off_c, 0, 85, 62
1, 98479, Control_c, 0, 64, 20
1, 98494, Control_c, 0, 64, 0
1, 98495, Note_on_c, 0, 75, 85
1, 98553, Control_c, 0, 64, 42
1, 98566, Note_off_c, 0, 75, 56
1, 98568, Note_on_c, 0, 85, 85
1, 98568, Control_c, 0, 64, 59
1, 98583, Control_c, 0, 64, 66
1, 98598, Control_c, 0, 64, 73
1, 98610, Note_off_c, 0, 67, 64
1, 98613, Control_c, 0, 64, 87
1, 98627, Control_c, 0, 64, 127
1, 98628, Note_on_c, 0, 82, 80
1, 98661, Note_off_c, 0, 85, 66
1, 98687, Note_on_c, 0, 75, 93
1, 98749, Note_off_c, 0, 75, 63
1, 98756, Note_on_c, 0, 85, 94
1, 98782, Note_off_c, 0, 82, 63
1, 98828, Note_on_c, 0, 76, 102
1, 98857, Control_c, 0, 64, 89
1, 98870, Note_off_c, 0, 85, 66
1, 98872, Control_c, 0, 64, 68
1, 98887, Control_c, 0, 64, 0
1, 98899, Note_on_c, 0, 80, 77
1, 98965, Note_off_c, 0, 80, 63
1, 98967, Note_on_c, 0, 85, 78
1, 98990, Control_c, 0, 64, 24
1, 99005, Control_c, 0, 64, 53
1, 99020, Control_c, 0, 64, 63
1, 99034, Control_c, 0, 64, 70
1, 99036, Note_on_c, 0, 82, 73
1, 99049, Control_c, 0, 64, 82
1, 99064, Note_off_c, 0, 85, 64
1, 99064, Control_c, 0, 64, 108
1, 99069, Note_on_c, 0, 80, 77
1, 99079, Control_c, 0, 64, 127
1, 99127, Note_off_c, 0, 82, 57
1, 99149, Note_off_c, 0, 80, 63
1, 99155, Note_on_c, 0, 85, 79
1, 99180, Note_off_c, 0, 76, 58
1, 99191, Note_on_c, 0, 75, 92
1, 99224, Note_off_c, 0, 85, 61
1, 99227, Control_c, 0, 64, 87
1, 99242, Control_c, 0, 64, 65
1, 99257, Control_c, 0, 64, 0
1, 99265, Note_on_c, 0, 79, 75
1, 99328, Note_off_c, 0, 79, 63
1, 99335, Note_on_c, 0, 85, 74
1, 99361, Control_c, 0, 64, 44
1, 99376, Control_c, 0, 64, 62
1, 99377, Note_off_c, 0, 75, 55
1, 99391, Control_c, 0, 64, 70
1, 99397, Note_on_c, 0, 82, 78
1, 99405, Control_c, 0, 64, 85
1, 99408, Note_off_c, 0, 85, 62
1, 99420, Control_c, 0, 64, 127
1, 99430, Note_on_c, 0, 79, 75
1, 99489, Note_off_c, 0, 79, 63
1, 99493, Note_on_c, 0, 85, 81
1, 99501, Note_off_c, 0, 82, 65
1, 99530, Note_off_c, 0, 85, 66
1, 99547, Note_on_c, 0, 74, 88
1, 99561, Control_c, 0, 64, 83
1, 99575, Control_c, 0, 64, 60
1, 99590, Control_c, 0, 64, 0
1, 99594, Note_on_c, 0, 77, 76
1, 99659, Note_on_c, 0, 80, 83
1, 99706, Note_on_c, 0, 83, 75
1, 99754, Control_c, 0, 64, 44
1, 99769, Control_c, 0, 64, 58
1, 99773, Note_on_c, 0, 86, 76
1, 99783, Control_c, 0, 64, 64
1, 99796, Note_off_c, 0, 83, 61
1, 99798, Control_c, 0, 64, 69
1, 99813, Control_c, 0, 64, 77
1, 99816, Note_on_c, 0, 89, 80
1, 99828, Control_c, 0, 64, 96
1, 99843, Control_c, 0, 64, 127
1, 99859, Note_off_c, 0, 86, 63
1, 99878, Note_on_c, 0, 92, 87
1, 99891, Note_off_c, 0, 89, 64
1, 99921, Note_off_c, 0, 92, 66
1, 99951, Note_on_c, 0, 89, 73
1, 99977, Note_on_c, 0, 86, 78
1, 99993, Note_off_c, 0, 80, 58
1, 100012, Note_off_c, 0, 89, 63
1, 100034, Note_off_c, 0, 86, 65
1, 100036, Note_off_c, 0, 77, 59
1, 100049, Note_on_c, 0, 95, 87
1, 100109, Note_on_c, 0, 94, 81
1, 100160, Note_off_c, 0, 95, 65
1, 100174, Note_on_c, 0, 92, 85
1, 100231, Note_off_c, 0, 94, 64
1, 100238, Note_on_c, 0, 91, 87
1, 100242, Control_c, 0, 64, 91
1, 100245, Note_on_c, 0, 75, 83
1, 100257, Note_off_c, 0, 92, 66
1, 100257, Control_c, 0, 64, 70
1, 100260, Note_off_c, 0, 74, 60
1, 100271, Control_c, 0, 64, 49
1, 100286, Control_c, 0, 64, 0
1, 100310, Note_on_c, 0, 94, 87
1, 100312, Note_off_c, 0, 91, 65
1, 100328, Note_on_c, 0, 79, 82
1, 100366, Note_on_c, 0, 92, 87
1, 100425, Note_off_c, 0, 94, 63
1, 100430, Note_on_c, 0, 91, 78
1, 100450, Note_off_c, 0, 92, 66
1, 100478, Note_off_c, 0, 91, 63
1, 100496, Note_on_c, 0, 88, 71
1, 100516, Control_c, 0, 64, 22
1, 100531, Control_c, 0, 64, 51
1, 100545, Control_c, 0, 64, 63
1, 100559, Note_off_c, 0, 88, 64
1, 100560, Control_c, 0, 64, 73
1, 100563, Note_on_c, 0, 87, 83
1, 100575, Control_c, 0, 64, 94
1, 100589, Control_c, 0, 64, 127
1, 100624, Note_off_c, 0, 79, 63
1, 100628, Note_on_c, 0, 85, 75
1, 100637, Note_off_c, 0, 87, 62
1, 100678, Note_on_c, 0, 88, 69
1, 100679, Note_off_c, 0, 75, 61
1, 100684, Note_off_c, 0, 85, 63
1, 100738, Note_on_c, 0, 87, 80
1, 100757, Note_off_c, 0, 88, 63
1, 100802, Note_on_c, 0, 85, 66
1, 100812, Note_off_c, 0, 87, 64
1, 100837, Note_off_c, 0, 85, 62
1, 100877, Note_on_c, 0, 83, 61
1, 100913, Note_off_c, 0, 83, 61
1, 100917, Control_c, 0, 64, 114
1, 100932, Control_c, 0, 64, 88
1, 100947, Control_c, 0, 64, 74
1, 100950, Note_on_c, 0, 82, 51
1, 100962, Control_c, 0, 64, 65
1, 100976, Control_c, 0, 64, 56
1, 100983, Note_off_c, 0, 82, 66
1, 100991, Control_c, 0, 64, 47
1, 101006, Control_c, 0, 64, 44
1, 101021, Control_c, 0, 64, 42
1, 101035, Note_on_c, 0, 71, 48
1, 101036, Control_c, 0, 64, 32
1, 101051, Note_on_c, 0, 68, 39
1, 101058, Control_c, 0, 64, 0
1, 101126, Note_on_c, 0, 80, 52
1, 101179, Note_off_c, 0, 80, 56
1, 101183, Note_on_c, 0, 83, 55
1, 101221, Control_c, 0, 67, 14
1, 101230, Note_off_c, 0, 83, 59
1, 101236, Control_c, 0, 67, 29
1, 101246, Note_on_c, 0, 87, 50
1, 101251, Control_c, 0, 67, 45
1, 101266, Control_c, 0, 67, 60
1, 101280, Control_c, 0, 67, 75
1, 101284, Note_on_c, 0, 92, 67
1, 101295, Control_c, 0, 67, 95
1, 101297, Note_off_c, 0, 87, 60
1, 101310, Control_c, 0, 67, 112
1, 101325, Control_c, 0, 67, 126
1, 101340, Control_c, 0, 67, 127
1, 101350, Note_on_c, 0, 80, 52
1, 101360, Note_off_c, 0, 92, 64
1, 101373, Note_off_c, 0, 80, 59
1, 101415, Note_off_c, 0, 71, 57
1, 101422, Note_on_c, 0, 73, 51
1, 101427, Note_on_c, 0, 76, 56
1, 101432, Note_off_c, 0, 68, 57
1, 101591, Control_c, 0, 64, 25
1, 101606, Control_c, 0, 64, 47
1, 101606, Control_c, 0, 67, 126
1, 101608, Note_off_c, 0, 76, 62
1, 101620, Control_c, 0, 64, 58
1, 101620, Control_c, 0, 67, 119
1, 101632, Note_on_c, 0, 92, 57
1, 101635, Control_c, 0, 64, 63
1, 101635, Control_c, 0, 67, 110
1, 101651, Control_c, 0, 64, 66
1, 101651, Control_c, 0, 67, 97
1, 101659, Note_off_c, 0, 92, 63
1, 101661, Note_off_c, 0, 73, 60
1, 101666, Control_c, 0, 64, 69
1, 101666, Control_c, 0, 67, 74
1, 101681, Control_c, 0, 64, 74
1, 101681, Control_c, 0, 67, 48
1, 101683, Note_on_c, 0, 80, 56
1, 101696, Control_c, 0, 64, 79
1, 101696, Control_c, 0, 67, 22
1, 101710, Control_c, 0, 64, 83
1, 101710, Control_c, 0, 67, 0
1, 101719, Note_off_c, 0, 80, 64
1, 101725, Control_c, 0, 64, 85
1, 101731, Note_on_c, 0, 92, 73
1, 101755, Control_c, 0, 64, 84
1, 101770, Control_c, 0, 64, 81
1, 101774, Note_off_c, 0, 92, 58
1, 101785, Control_c, 0, 64, 78
1, 101807, Control_c, 0, 64, 74
1, 101815, Note_on_c, 0, 75, 64
1, 101821, Note_on_c, 0, 71, 55
1, 101822, Control_c, 0, 64, 67
1, 101837, Control_c, 0, 64, 58
1, 101851, Control_c, 0, 64, 33
1, 101866, Control_c, 0, 64, 0
1, 101940, Control_c, 0, 64, 17
1, 101955, Control_c, 0, 64, 38
1, 101970, Control_c, 0, 64, 54
1, 101985, Control_c, 0, 64, 61
1, 101999, Control_c, 0, 64, 64
1, 102014, Control_c, 0, 64, 67
1, 102027, Note_off_c, 0, 75, 57
1, 102029, Control_c, 0, 64, 70
1, 102035, Note_off_c, 0, 71, 60
1, 102041, Note_on_c, 0, 92, 72
1, 102044, Control_c, 0, 64, 74
1, 102058, Control_c, 0, 64, 79
1, 102067, Note_off_c, 0, 92, 68
1, 102073, Control_c, 0, 64, 85
1, 102082, Note_on_c, 0, 80, 73
1, 102088, Control_c, 0, 64, 91
1, 102103, Control_c, 0, 64, 97
1, 102118, Control_c, 0, 64, 98
1, 102126, Note_off_c, 0, 80, 60
1, 102133, Control_c, 0, 64, 96
1, 102136, Note_on_c, 0, 92, 84
1, 102148, Control_c, 0, 64, 91
1, 102163, Control_c, 0, 64, 86
1, 102178, Control_c, 0, 64, 79
1, 102192, Control_c, 0, 64, 69
1, 102207, Control_c, 0, 64, 59
1, 102210, Note_off_c, 0, 92, 64
1, 102216, Note_on_c, 0, 75, 65
1, 102222, Note_on_c, 0, 73, 57
1, 102222, Control_c, 0, 64, 29
1, 102222, Note_on_c, 0, 70, 60
1, 102237, Control_c, 0, 64, 0
1, 102325, Control_c, 0, 64, 23
1, 102340, Control_c, 0, 64, 49
1, 102355, Control_c, 0, 64, 60
1, 102369, Control_c, 0, 64, 65
1, 102383, Note_off_c, 0, 70, 58
1, 102384, Control_c, 0, 64, 68
1, 102399, Control_c, 0, 64, 73
1, 102414, Control_c, 0, 64, 77
1, 102419, Note_on_c, 0, 91, 65
1, 102429, Control_c, 0, 64, 83
1, 102445, Control_c, 0, 64, 89
1, 102449, Note_off_c, 0, 73, 59
1, 102459, Control_c, 0, 64, 94
1, 102461, Note_off_c, 0, 91, 60
1, 102474, Control_c, 0, 64, 96
1, 102479, Note_on_c, 0, 79, 60
1, 102504, Control_c, 0, 64, 95
1, 102519, Control_c, 0, 64, 93
1, 102521, Note_off_c, 0, 79, 61
1, 102541, Control_c, 0, 64, 89
1, 102556, Control_c, 0, 64, 84
1, 102556, Control_c, 0, 67, 11
1, 102558, Note_on_c, 0, 91, 55
1, 102571, Control_c, 0, 64, 76
1, 102571, Control_c, 0, 67, 31
1, 102582, Note_off_c, 0, 91, 58
1, 102586, Control_c, 0, 64, 67
1, 102586, Control_c, 0, 67, 53
1, 102601, Control_c, 0, 64, 55
1, 102601, Control_c, 0, 67, 70
1, 102616, Control_c, 0, 64, 0
1, 102616, Control_c, 0, 67, 85
1, 102620, Note_on_c, 0, 71, 50
1, 102627, Note_on_c, 0, 68, 50
1, 102630, Control_c, 0, 67, 90
1, 102645, Control_c, 0, 67, 90
1, 102674, Control_c, 0, 67, 89
1, 102689, Control_c, 0, 67, 87
1, 102693, Note_on_c, 0, 80, 60
1, 102701, Note_off_c, 0, 75, 63
1, 102704, Control_c, 0, 64, 37
1, 102704, Control_c, 0, 67, 85
1, 102710, Note_off_c, 0, 71, 64
1, 102719, Control_c, 0, 64, 56
1, 102719, Control_c, 0, 67, 83
1, 102734, Control_c, 0, 64, 63
1, 102734, Control_c, 0, 67, 82
1, 102744, Note_off_c, 0, 68, 63
1, 102748, Control_c, 0, 64, 66
1, 102748, Control_c, 0, 67, 80
1, 102750, Note_off_c, 0, 80, 55
1, 102754, Note_on_c, 0, 83, 54
1, 102763, Control_c, 0, 64, 69
1, 102763, Control_c, 0, 67, 78
1, 102778, Control_c, 0, 64, 72
1, 102778, Control_c, 0, 67, 76
1, 102792, Control_c, 0, 64, 75
1, 102792, Control_c, 0, 67, 75
1, 102807, Note_off_c, 0, 83, 59
1, 102807, Control_c, 0, 64, 79
1, 102807, Control_c, 0, 67, 73
1, 102822, Control_c, 0, 64, 82
1, 102822, Control_c, 0, 67, 72
1, 102823, Note_on_c, 0, 87, 57
1, 102837, Control_c, 0, 64, 86
1, 102837, Control_c, 0, 67, 70
1, 102852, Control_c, 0, 64, 89
1, 102852, Control_c, 0, 67, 70
1, 102866, Control_c, 0, 64, 90
1, 102871, Note_on_c, 0, 92, 64
1, 102881, Control_c, 0, 64, 90
1, 102881, Control_c, 0, 67, 69
1, 102887, Note_off_c, 0, 87, 57
1, 102896, Control_c, 0, 64, 89
1, 102896, Control_c, 0, 67, 68
1, 102911, Control_c, 0, 64, 87
1, 102911, Control_c, 0, 67, 67
1, 102922, Note_off_c, 0, 92, 64
1, 102926, Control_c, 0, 64, 85
1, 102926, Control_c, 0, 67, 66
1, 102931, Note_on_c, 0, 80, 59
1, 102940, Control_c, 0, 64, 82
1, 102940, Control_c, 0, 67, 65
1, 102955, Control_c, 0, 64, 79
1, 102955, Control_c, 0, 67, 65
1, 102962, Note_off_c, 0, 80, 63
1, 102970, Control_c, 0, 64, 75
1, 102985, Control_c, 0, 64, 67
1, 102998, Note_on_c, 0, 61, 54
1, 102999, Control_c, 0, 64, 60
1, 103003, Note_on_c, 0, 64, 51
1, 103014, Control_c, 0, 64, 47
1, 103029, Control_c, 0, 64, 26
1, 103044, Control_c, 0, 64, 0
1, 103059, Control_c, 0, 67, 64
1, 103073, Control_c, 0, 67, 63
1, 103088, Control_c, 0, 67, 63
1, 103221, Control_c, 0, 67, 63
1, 103229, Note_on_c, 0, 80, 62
1, 103237, Control_c, 0, 67, 64
1, 103260, Note_off_c, 0, 80, 67
1, 103277, Note_on_c, 0, 68, 67
1, 103304, Control_c, 0, 67, 63
1, 103318, Note_off_c, 0, 68, 63
1, 103319, Control_c, 0, 67, 62
1, 103334, Note_on_c, 0, 80, 75
1, 103334, Control_c, 0, 67, 61
1, 103349, Control_c, 0, 67, 60
1, 103363, Control_c, 0, 67, 59
1, 103378, Control_c, 0, 67, 50
1, 103391, Note_off_c, 0, 80, 63
1, 103392, Note_on_c, 0, 63, 65
1, 103393, Control_c, 0, 67, 43
1, 103396, Note_off_c, 0, 64, 54
1, 103402, Note_off_c, 0, 61, 60
1, 103408, Control_c, 0, 67, 36
1, 103410, Note_on_c, 0, 59, 59
1, 103422, Control_c, 0, 67, 27
1, 103437, Control_c, 0, 67, 16
1, 103452, Control_c, 0, 67, 0
1, 103570, Control_c, 0, 64, 36
1, 103585, Control_c, 0, 64, 56
1, 103595, Note_off_c, 0, 63, 63
1, 103600, Control_c, 0, 64, 64
1, 103612, Note_on_c, 0, 80, 74
1, 103614, Control_c, 0, 64, 71
1, 103628, Note_off_c, 0, 59, 62
1, 103629, Control_c, 0, 64, 81
1, 103641, Note_off_c, 0, 80, 64
1, 103644, Control_c, 0, 64, 97
1, 103655, Note_on_c, 0, 68, 77
1, 103659, Control_c, 0, 64, 119
1, 103674, Control_c, 0, 64, 127
1, 103689, Control_c, 0, 64, 121
1, 103704, Control_c, 0, 64, 108
1, 103706, Note_off_c, 0, 68, 60
1, 103719, Control_c, 0, 64, 99
1, 103722, Note_on_c, 0, 80, 84
1, 103734, Control_c, 0, 64, 88
1, 103749, Control_c, 0, 64, 78
1, 103763, Control_c, 0, 64, 67
1, 103778, Control_c, 0, 64, 55
1, 103781, Note_off_c, 0, 80, 62
1, 103793, Control_c, 0, 64, 26
1, 103808, Control_c, 0, 64, 0
1, 103809, Note_on_c, 0, 61, 54
1, 103814, Note_on_c, 0, 63, 61
1, 103816, Note_on_c, 0, 58, 54
1, 103941, Control_c, 0, 64, 34
1, 103956, Control_c, 0, 64, 51
1, 103970, Control_c, 0, 64, 60
1, 103985, Control_c, 0, 64, 64
1, 103993, Note_off_c, 0, 58, 61
1, 104000, Control_c, 0, 64, 68
1, 104014, Control_c, 0, 64, 72
1, 104035, Note_on_c, 0, 79, 59
1, 104038, Control_c, 0, 64, 76
1, 104053, Control_c, 0, 64, 80
1, 104054, Note_off_c, 0, 61, 56
1, 104068, Control_c, 0, 64, 81
1, 104076, Note_off_c, 0, 79, 58
1, 104082, Control_c, 0, 64, 79
1, 104091, Note_on_c, 0, 67, 58
1, 104097, Control_c, 0, 64, 77
1, 104112, Control_c, 0, 64, 74
1, 104125, Note_off_c, 0, 67, 66
1, 104127, Control_c, 0, 64, 69
1, 104142, Control_c, 0, 64, 61
1, 104149, Note_on_c, 0, 79, 68
1, 104157, Control_c, 0, 64, 37
1, 104172, Control_c, 0, 64, 0
1, 104178, Note_off_c, 0, 79, 69
1, 104223, Note_on_c, 0, 59, 52
1, 104235, Note_on_c, 0, 56, 47
1, 104260, Control_c, 0, 64, 28
1, 104275, Control_c, 0, 64, 50
1, 104290, Control_c, 0, 64, 61
1, 104305, Control_c, 0, 64, 65
1, 104312, Note_on_c, 0, 80, 61
1, 104312, Note_off_c, 0, 63, 62
1, 104316, Note_off_c, 0, 59, 63
1, 104319, Control_c, 0, 64, 68
1, 104334, Control_c, 0, 64, 72
1, 104349, Control_c, 0, 64, 76
1, 104354, Note_off_c, 0, 56, 64
1, 104362, Note_off_c, 0, 80, 56
1, 104364, Note_on_c, 0, 83, 66
1, 104364, Control_c, 0, 64, 80
1, 104379, Control_c, 0, 64, 82
1, 104394, Control_c, 0, 64, 83
1, 104409, Control_c, 0, 64, 84
1, 104423, Note_off_c, 0, 83, 61
1, 104424, Control_c, 0, 64, 84
1, 104443, Note_on_c, 0, 87, 60
1, 104468, Control_c, 0, 64, 84
1, 104470, Note_on_c, 0, 92, 73
1, 104483, Control_c, 0, 64, 83
1, 104485, Note_off_c, 0, 87, 63
1, 104498, Control_c, 0, 64, 82
1, 104512, Control_c, 0, 64, 81
1, 104527, Control_c, 0, 64, 80
1, 104534, Note_on_c, 0, 80, 65
1, 104542, Control_c, 0, 64, 79
1, 104542, Control_c, 0, 67, 22
1, 104547, Note_off_c, 0, 92, 64
1, 104557, Control_c, 0, 64, 77
1, 104557, Control_c, 0, 67, 37
1, 104570, Note_off_c, 0, 80, 64
1, 104572, Control_c, 0, 64, 72
1, 104572, Control_c, 0, 67, 50
1, 104586, Control_c, 0, 64, 67
1, 104586, Control_c, 0, 67, 61
1, 104601, Control_c, 0, 64, 62
1, 104601, Control_c, 0, 67, 68
1, 104616, Control_c, 0, 64, 54
1, 104616, Control_c, 0, 67, 72
1, 104619, Note_on_c, 0, 52, 58
1, 104625, Note_on_c, 0, 49, 55
1, 104631, Control_c, 0, 64, 46
1, 104631, Control_c, 0, 67, 73
1, 104646, Control_c, 0, 64, 39
1, 104646, Control_c, 0, 67, 75
1, 104661, Control_c, 0, 64, 32
1, 104661, Control_c, 0, 67, 77
1, 104676, Control_c, 0, 64, 24
1, 104676, Control_c, 0, 67, 78
1, 104691, Control_c, 0, 64, 16
1, 104691, Control_c, 0, 67, 78
1, 104706, Control_c, 0, 64, 0
1, 104765, Control_c, 0, 67, 78
1, 104780, Control_c, 0, 67, 77
1, 104816, Control_c, 0, 67, 77
1, 104831, Control_c, 0, 67, 75
1, 104839, Note_on_c, 0, 92, 64
1, 104847, Control_c, 0, 67, 73
1, 104862, Control_c, 0, 67, 70
1, 104869, Note_off_c, 0, 92, 66
1, 104876, Control_c, 0, 67, 66
1, 104891, Control_c, 0, 67, 65
1, 104892, Note_on_c, 0, 80, 58
1, 104906, Control_c, 0, 67, 63
1, 104921, Control_c, 0, 67, 61
1, 104924, Note_off_c, 0, 80, 67
1, 104936, Control_c, 0, 67, 58
1, 104938, Note_on_c, 0, 92, 81
1, 104950, Control_c, 0, 67, 55
1, 104965, Control_c, 0, 67, 51
1, 104980, Control_c, 0, 67, 48
1, 104995, Control_c, 0, 67, 41
1, 104997, Note_off_c, 0, 92, 61
1, 105010, Control_c, 0, 67, 31
1, 105024, Control_c, 0, 67, 20
1, 105026, Note_on_c, 0, 51, 71
1, 105034, Note_on_c, 0, 47, 59
1, 105037, Note_off_c, 0, 52, 62
1, 105039, Control_c, 0, 67, 9
1, 105045, Note_off_c, 0, 49, 58
1, 105054, Control_c, 0, 67, 0
1, 105232, Control_c, 0, 64, 11
1, 105247, Control_c, 0, 64, 35
1, 105257, Note_on_c, 0, 92, 80
1, 105257, Note_off_c, 0, 51, 63
1, 105261, Control_c, 0, 64, 50
1, 105276, Control_c, 0, 64, 58
1, 105291, Control_c, 0, 64, 63
1, 105302, Note_off_c, 0, 47, 62
1, 105306, Control_c, 0, 64, 66
1, 105311, Note_off_c, 0, 92, 63
1, 105312, Note_on_c, 0, 80, 71
1, 105321, Control_c, 0, 64, 71
1, 105335, Control_c, 0, 64, 77
1, 105350, Control_c, 0, 64, 83
1, 105365, Control_c, 0, 64, 89
1, 105376, Note_on_c, 0, 92, 78
1, 105380, Control_c, 0, 64, 93
1, 105394, Control_c, 0, 64, 94
1, 105403, Note_off_c, 0, 80, 48
1, 105409, Control_c, 0, 64, 94
1, 105424, Control_c, 0, 64, 93
1, 105439, Control_c, 0, 64, 91
1, 105440, Note_off_c, 0, 92, 63
1, 105454, Control_c, 0, 64, 90
1, 105469, Control_c, 0, 64, 88
1, 105484, Control_c, 0, 64, 85
1, 105498, Control_c, 0, 64, 81
1, 105507, Note_on_c, 0, 49, 55
1, 105507, Note_on_c, 0, 51, 65
1, 105510, Note_on_c, 0, 46, 58
1, 105513, Control_c, 0, 64, 75
1, 105528, Control_c, 0, 64, 68
1, 105550, Control_c, 0, 64, 59
1, 105565, Control_c, 0, 64, 40
1, 105580, Control_c, 0, 64, 0
1, 105729, Control_c, 0, 64, 32
1, 105744, Control_c, 0, 64, 46
1, 105759, Control_c, 0, 64, 54
1, 105763, Note_on_c, 0, 91, 57
1, 105773, Control_c, 0, 64, 59
1, 105788, Control_c, 0, 64, 62
1, 105803, Control_c, 0, 64, 64
1, 105808, Note_off_c, 0, 91, 61
1, 105818, Control_c, 0, 64, 65
1, 105829, Note_on_c, 0, 79, 53
1, 105833, Control_c, 0, 64, 67
1, 105847, Control_c, 0, 64, 68
1, 105862, Control_c, 0, 64, 69
1, 105868, Note_off_c, 0, 79, 63
1, 105877, Control_c, 0, 64, 71
1, 105892, Control_c, 0, 64, 72
1, 105896, Note_on_c, 0, 91, 65
1, 105907, Control_c, 0, 64, 72
1, 105932, Note_off_c, 0, 91, 64
1, 105966, Control_c, 0, 64, 72
1, 105992, Note_on_c, 0, 44, 42
1, 105996, Control_c, 0, 64, 71
1, 106010, Control_c, 0, 64, 71
1, 106025, Control_c, 0, 64, 70
1, 106039, Note_off_c, 0, 49, 16
1, 106040, Control_c, 0, 64, 69
1, 106049, Note_off_c, 0, 46, 25
1, 106055, Control_c, 0, 64, 66
1, 106065, Note_on_c, 0, 92, 55
1, 106070, Control_c, 0, 64, 63
1, 106084, Control_c, 0, 64, 58
1, 106094, Note_off_c, 0, 51, 45
1, 106099, Control_c, 0, 64, 49
1, 106106, Note_off_c, 0, 92, 62
1, 106114, Control_c, 0, 64, 38
1, 106124, Note_on_c, 0, 87, 59
1, 106129, Control_c, 0, 64, 26
1, 106144, Control_c, 0, 64, 16
1, 106158, Control_c, 0, 64, 0
1, 106166, Note_off_c, 0, 87, 62
1, 106202, Control_c, 0, 67, 12
1, 106214, Note_on_c, 0, 83, 43
1, 106217, Control_c, 0, 67, 29
1, 106232, Control_c, 0, 67, 46
1, 106245, Note_off_c, 0, 83, 59
1, 106247, Control_c, 0, 67, 61
1, 106262, Control_c, 0, 67, 76
1, 106270, Note_on_c, 0, 87, 62
1, 106284, Control_c, 0, 67, 92
1, 106299, Control_c, 0, 67, 105
1, 106308, Note_off_c, 0, 87, 65
1, 106314, Control_c, 0, 67, 121
1, 106329, Control_c, 0, 67, 127
1, 106334, Note_on_c, 0, 92, 58
1, 106380, Note_off_c, 0, 92, 58
1, 106388, Note_on_c, 0, 87, 63
1, 106440, Note_off_c, 0, 87, 59
1, 106479, Note_on_c, 0, 83, 48
1, 106521, Note_off_c, 0, 83, 63
1, 106547, Note_on_c, 0, 87, 50
1, 106573, Note_off_c, 0, 87, 57
1, 106593, Note_on_c, 0, 92, 62
1, 106642, Note_off_c, 0, 92, 57
1, 106650, Note_on_c, 0, 87, 59
1, 106700, Note_off_c, 0, 87, 61
1, 106744, Note_on_c, 0, 83, 47
1, 106782, Note_off_c, 0, 83, 64
1, 106810, Note_on_c, 0, 87, 59
1, 106837, Note_off_c, 0, 87, 64
1, 106864, Note_on_c, 0, 92, 62
1, 106871, Note_on_c, 0, 39, 42
1, 106905, Note_off_c, 0, 92, 60
1, 106908, Note_off_c, 0, 44, 39
1, 106928, Note_on_c, 0, 87, 55
1, 106964, Note_off_c, 0, 87, 65
1, 107034, Note_on_c, 0, 92, 35
1, 107065, Note_off_c, 0, 92, 46
1, 107069, Note_on_c, 0, 87, 52
1, 107099, Note_off_c, 0, 87, 63
1, 107153, Note_on_c, 0, 92, 48
1, 107177, Note_off_c, 0, 92, 58
1, 107200, Note_on_c, 0, 87, 50
1, 107243, Note_off_c, 0, 87, 63
1, 107266, Note_on_c, 0, 92, 47
1, 107269, Note_on_c, 0, 35, 35
1, 107289, Note_off_c, 0, 39, 30
1, 107314, Note_off_c, 0, 92, 62
1, 107346, Note_on_c, 0, 87, 53
1, 107385, Note_off_c, 0, 87, 64
1, 107421, Note_on_c, 0, 92, 53
1, 107465, Note_off_c, 0, 92, 62
1, 107501, Note_on_c, 0, 87, 43
1, 107531, Note_off_c, 0, 87, 57
1, 107564, Note_on_c, 0, 92, 58
1, 107623, Note_off_c, 0, 92, 59
1, 107641, Note_on_c, 0, 87, 47
1, 107798, Note_on_c, 0, 92, 47
1, 107808, Note_off_c, 0, 87, 50
1, 107812, Note_on_c, 0, 32, 33
1, 107888, Note_off_c, 0, 35, 23
1, 108018, Control_c, 0, 64, 17
1, 108034, Control_c, 0, 64, 34
1, 108049, Control_c, 0, 64, 44
1, 108064, Control_c, 0, 64, 52
1, 108078, Control_c, 0, 64, 56
1, 108093, Control_c, 0, 64, 60
1, 108108, Control_c, 0, 64, 62
1, 108123, Control_c, 0, 64, 63
1, 108139, Control_c, 0, 64, 64
1, 108153, Control_c, 0, 64, 65
1, 108168, Control_c, 0, 64, 66
1, 108175, Note_off_c, 0, 92, 36
1, 108176, Note_off_c, 0, 32, 41
1, 108183, Control_c, 0, 64, 68
1, 108198, Control_c, 0, 64, 71
1, 108213, Control_c, 0, 64, 74
1, 108227, Control_c, 0, 64, 77
1, 108242, Control_c, 0, 64, 80
1, 108257, Control_c, 0, 64, 84
1, 108272, Control_c, 0, 64, 88
1, 108286, Control_c, 0, 64, 93
1, 108301, Control_c, 0, 64, 99
1, 108316, Control_c, 0, 64, 105
1, 108331, Control_c, 0, 64, 112
1, 108346, Control_c, 0, 64, 119
1, 108360, Control_c, 0, 64, 127
1, 108575, Control_c, 0, 64, 123
1, 108605, Control_c, 0, 64, 121
1, 108620, Control_c, 0, 64, 119
1, 108634, Control_c, 0, 64, 118
1, 108649, Control_c, 0, 64, 116
1, 108664, Control_c, 0, 64, 113
1, 108679, Control_c, 0, 64, 111
1, 108694, Control_c, 0, 64, 110
1, 108709, Control_c, 0, 64, 107
1, 108724, Control_c, 0, 64, 106
1, 108739, Control_c, 0, 64, 102
1, 108754, Control_c, 0, 64, 99
1, 108768, Control_c, 0, 64, 93
1, 108783, Control_c, 0, 64, 87
1, 108798, Control_c, 0, 64, 80
1, 108812, Control_c, 0, 64, 74
1, 108828, Control_c, 0, 64, 69
1, 108843, Control_c, 0, 64, 65
1, 108858, Control_c, 0, 64, 62
1, 108873, Control_c, 0, 64, 60
1, 108888, Control_c, 0, 64, 60
1, 108902, Control_c, 0, 64, 59
1, 108932, Control_c, 0, 64, 58
1, 108947, Control_c, 0, 64, 56
1, 108962, Control_c, 0, 64, 54
1, 108976, Control_c, 0, 64, 53
1, 108991, Control_c, 0, 64, 51
1, 109006, Control_c, 0, 64, 50
1, 109021, Control_c, 0, 64, 48
1, 109036, Control_c, 0, 64, 44
1, 109050, Control_c, 0, 64, 41
1, 109065, Control_c, 0, 64, 37
1, 109080, Control_c, 0, 64, 32
1, 109095, Control_c, 0, 64, 26
1, 109109, Control_c, 0, 64, 22
1, 109124, Control_c, 0, 64, 16
1, 109139, Control_c, 0, 64, 0
1, 109442, Control_c, 0, 64, 15
1, 109457, Control_c, 0, 64, 24
1, 109472, Control_c, 0, 64, 36
1, 109487, Control_c, 0, 64, 49
1, 109502, Note_on_c, 0, 59, 46
1, 109502, Control_c, 0, 64, 58
1, 109517, Control_c, 0, 64, 62
1, 109522, Note_on_c, 0, 47, 35
1, 109532, Control_c, 0, 64, 65
1, 109546, Control_c, 0, 64, 67
1, 109561, Control_c, 0, 64, 70
1, 109576, Control_c, 0, 64, 74
1, 109591, Control_c, 0, 64, 80
1, 109606, Control_c, 0, 64, 90
1, 109621, Control_c, 0, 64, 103
1, 109621, Note_off_c, 0, 59, 58
1, 109636, Control_c, 0, 64, 127
1, 109696, Control_c, 0, 67, 122
1, 109710, Control_c, 0, 67, 112
1, 109725, Control_c, 0, 67, 103
1, 109740, Control_c, 0, 67, 99
1, 109755, Control_c, 0, 67, 97
1, 109770, Control_c, 0, 67, 96
1, 109844, Control_c, 0, 67, 97
1, 109855, Note_on_c, 0, 44, 44
1, 109857, Note_on_c, 0, 56, 52
1, 109858, Control_c, 0, 67, 98
1, 109873, Control_c, 0, 67, 99
1, 109888, Control_c, 0, 67, 100
1, 109903, Control_c, 0, 67, 101
1, 109918, Control_c, 0, 67, 102
1, 109932, Control_c, 0, 64, 112
1, 109932, Control_c, 0, 67, 103
1, 109947, Control_c, 0, 64, 95
1, 109947, Control_c, 0, 67, 104
1, 109949, Note_on_c, 0, 51, 53
1, 109962, Control_c, 0, 64, 83
1, 109962, Control_c, 0, 67, 105
1, 109977, Control_c, 0, 64, 72
1, 109977, Control_c, 0, 67, 107
1, 109979, Note_on_c, 0, 39, 38
1, 109985, Note_off_c, 0, 56, 37
1, 109992, Control_c, 0, 64, 65
1, 109992, Control_c, 0, 67, 109
1, 110006, Control_c, 0, 64, 60
1, 110006, Control_c, 0, 67, 110
1, 110021, Control_c, 0, 64, 55
1, 110021, Control_c, 0, 67, 111
1, 110039, Note_off_c, 0, 44, 40
1, 110044, Control_c, 0, 64, 53
1, 110044, Control_c, 0, 67, 112
1, 110058, Control_c, 0, 64, 52
1, 110058, Control_c, 0, 67, 114
1, 110073, Control_c, 0, 64, 51
1, 110073, Control_c, 0, 67, 115
1, 110084, Note_off_c, 0, 47, 26
1, 110088, Control_c, 0, 64, 49
1, 110088, Control_c, 0, 67, 116
1, 110103, Control_c, 0, 64, 43
1, 110103, Control_c, 0, 67, 118
1, 110118, Control_c, 0, 64, 34
1, 110118, Control_c, 0, 67, 119
1, 110132, Control_c, 0, 64, 24
1, 110132, Control_c, 0, 67, 122
1, 110147, Control_c, 0, 64, 12
1, 110147, Control_c, 0, 67, 123
1, 110162, Control_c, 0, 64, 0
1, 110162, Control_c, 0, 67, 124
1, 110177, Control_c, 0, 67, 125
1, 110192, Control_c, 0, 67, 127
1, 110776, Control_c, 0, 64, 9
1, 110791, Control_c, 0, 64, 31
1, 110806, Control_c, 0, 64, 46
1, 110821, Control_c, 0, 64, 54
1, 110835, Control_c, 0, 64, 59
1, 110850, Control_c, 0, 64, 62
1, 110865, Control_c, 0, 64, 63
1, 110879, Control_c, 0, 64, 64
1, 110894, Control_c, 0, 64, 66
1, 110909, Control_c, 0, 64, 68
1, 110909, Control_c, 0, 67, 127
1, 110924, Control_c, 0, 64, 71
1, 110924, Control_c, 0, 67, 126
1, 110939, Control_c, 0, 64, 75
1, 110953, Control_c, 0, 64, 80
1, 110953, Control_c, 0, 67, 125
1, 110968, Control_c, 0, 64, 87
1, 110983, Control_c, 0, 64, 94
1, 110998, Control_c, 0, 64, 106
1, 111010, Note_off_c, 0, 39, 42
1, 111013, Control_c, 0, 64, 127
1, 111013, Control_c, 0, 67, 125
1, 111034, Note_off_c, 0, 51, 52
1, 111340, Control_c, 0, 67, 125
1, 111355, Control_c, 0, 67, 126
1, 111370, Control_c, 0, 67, 127
1, 111384, Control_c, 0, 67, 127
1, 111449, Note_on_c, 0, 59, 58
1, 111458, Control_c, 0, 64, 114
1, 111464, Note_on_c, 0, 47, 43
1, 111473, Control_c, 0, 64, 99
1, 111488, Control_c, 0, 64, 86
1, 111502, Control_c, 0, 64, 75
1, 111517, Control_c, 0, 64, 65
1, 111540, Control_c, 0, 64, 52
1, 111555, Control_c, 0, 64, 26
1, 111570, Control_c, 0, 64, 19
1, 111599, Control_c, 0, 64, 20
1, 111614, Control_c, 0, 64, 25
1, 111629, Control_c, 0, 64, 32
1, 111644, Control_c, 0, 64, 42
1, 111658, Control_c, 0, 64, 55
1, 111673, Control_c, 0, 64, 61
1, 111688, Control_c, 0, 64, 64
1, 111702, Control_c, 0, 64, 66
1, 111717, Control_c, 0, 64, 68
1, 111732, Control_c, 0, 64, 71
1, 111747, Control_c, 0, 64, 74
1, 111762, Control_c, 0, 64, 77
1, 111776, Control_c, 0, 64, 80
1, 111791, Control_c, 0, 64, 84
1, 111806, Control_c, 0, 64, 88
1, 111821, Control_c, 0, 64, 92
1, 111836, Control_c, 0, 64, 95
1, 111851, Control_c, 0, 64, 96
1, 111866, Control_c, 0, 64, 97
1, 111910, Control_c, 0, 64, 97
1, 111925, Control_c, 0, 64, 98
1, 111970, Control_c, 0, 64, 97
1, 111982, Note_on_c, 0, 56, 56
1, 111985, Control_c, 0, 64, 96
1, 111987, Note_off_c, 0, 59, 51
1, 111998, Note_on_c, 0, 44, 38
1, 112000, Control_c, 0, 64, 95
1, 112015, Control_c, 0, 64, 94
1, 112030, Control_c, 0, 64, 94
1, 112045, Control_c, 0, 64, 92
1, 112060, Control_c, 0, 64, 90
1, 112074, Control_c, 0, 64, 88
1, 112089, Control_c, 0, 64, 84
1, 112104, Control_c, 0, 64, 78
1, 112109, Note_on_c, 0, 52, 45
1, 112119, Control_c, 0, 64, 71
1, 112126, Note_on_c, 0, 40, 36
1, 112134, Control_c, 0, 64, 66
1, 112149, Control_c, 0, 64, 62
1, 112149, Note_off_c, 0, 47, 31
1, 112164, Control_c, 0, 64, 57
1, 112164, Note_off_c, 0, 56, 36
1, 112170, Note_off_c, 0, 44, 40
1, 112179, Control_c, 0, 64, 55
1, 112194, Control_c, 0, 64, 54
1, 112208, Control_c, 0, 64, 53
1, 112223, Control_c, 0, 64, 51
1, 112238, Control_c, 0, 64, 48
1, 112253, Control_c, 0, 64, 44
1, 112268, Control_c, 0, 64, 39
1, 112289, Control_c, 0, 64, 34
1, 112304, Control_c, 0, 64, 29
1, 112319, Control_c, 0, 64, 25
1, 112334, Control_c, 0, 64, 21
1, 112349, Control_c, 0, 64, 18
1, 112363, Control_c, 0, 64, 16
1, 112378, Control_c, 0, 64, 15
1, 112393, Control_c, 0, 64, 13
1, 112408, Control_c, 0, 64, 12
1, 112438, Control_c, 0, 64, 11
1, 112452, Control_c, 0, 64, 9
1, 112482, Control_c, 0, 64, 0
1, 112763, Control_c, 0, 64, 13
1, 112778, Control_c, 0, 64, 17
1, 112793, Control_c, 0, 64, 21
1, 112808, Control_c, 0, 64, 26
1, 112823, Control_c, 0, 64, 32
1, 112838, Control_c, 0, 64, 40
1, 112853, Control_c, 0, 64, 49
1, 112868, Control_c, 0, 64, 54
1, 112883, Control_c, 0, 64, 57
1, 112897, Control_c, 0, 64, 59
1, 112912, Control_c, 0, 64, 61
1, 112927, Control_c, 0, 64, 62
1, 112942, Control_c, 0, 64, 64
1, 112957, Control_c, 0, 64, 65
1, 112972, Control_c, 0, 64, 67
1, 112986, Control_c, 0, 64, 69
1, 113001, Control_c, 0, 64, 71
1, 113016, Control_c, 0, 64, 73
1, 113038, Control_c, 0, 64, 76
1, 113053, Control_c, 0, 64, 78
1, 113068, Control_c, 0, 64, 80
1, 113082, Control_c, 0, 64, 82
1, 113097, Control_c, 0, 64, 83
1, 113112, Control_c, 0, 64, 85
1, 113127, Control_c, 0, 64, 86
1, 113142, Control_c, 0, 64, 87
1, 113156, Control_c, 0, 64, 88
1, 113171, Control_c, 0, 64, 88
1, 113305, Control_c, 0, 64, 88
1, 113320, Control_c, 0, 64, 87
1, 113337, Note_on_c, 0, 56, 49
1, 113349, Control_c, 0, 64, 87
1, 113364, Control_c, 0, 64, 86
1, 113375, Note_on_c, 0, 44, 38
1, 113378, Control_c, 0, 64, 85
1, 113393, Control_c, 0, 64, 84
1, 113408, Control_c, 0, 64, 83
1, 113418, Note_off_c, 0, 52, 39
1, 113422, Control_c, 0, 64, 81
1, 113437, Control_c, 0, 64, 79
1, 113452, Control_c, 0, 64, 76
1, 113467, Control_c, 0, 64, 72
1, 113481, Control_c, 0, 64, 68
1, 113496, Control_c, 0, 64, 65
1, 113511, Control_c, 0, 64, 63
1, 113526, Control_c, 0, 64, 62
1, 113541, Control_c, 0, 64, 61
1, 113556, Control_c, 0, 64, 60
1, 113571, Control_c, 0, 64, 60
1, 113580, Note_off_c, 0, 40, 31
1, 113586, Control_c, 0, 64, 59
1, 113601, Control_c, 0, 64, 57
1, 113616, Control_c, 0, 64, 56
1, 113631, Control_c, 0, 64, 54
1, 113645, Control_c, 0, 64, 53
1, 113655, Note_on_c, 0, 47, 50
1, 113660, Control_c, 0, 64, 52
1, 113665, Note_off_c, 0, 56, 62
1, 113669, Note_on_c, 0, 59, 58
1, 113675, Control_c, 0, 64, 51
1, 113690, Control_c, 0, 64, 48
1, 113699, Note_off_c, 0, 44, 43
1, 113705, Control_c, 0, 64, 44
1, 113720, Control_c, 0, 64, 39
1, 113735, Control_c, 0, 64, 34
1, 113748, Note_off_c, 0, 47, 56
1, 113750, Control_c, 0, 64, 31
1, 113752, Note_off_c, 0, 59, 60
1, 113753, Note_on_c, 0, 52, 52
1, 113755, Note_on_c, 0, 64, 58
1, 113764, Control_c, 0, 64, 30
1, 113786, Control_c, 0, 64, 28
1, 113801, Control_c, 0, 64, 25
1, 113816, Control_c, 0, 64, 21
1, 113831, Control_c, 0, 64, 17
1, 113846, Control_c, 0, 64, 17
1, 113860, Control_c, 0, 64, 16
1, 113875, Control_c, 0, 64, 15
1, 113890, Control_c, 0, 64, 13
1, 113905, Control_c, 0, 64, 12
1, 113949, Control_c, 0, 64, 11
1, 114009, Control_c, 0, 64, 9
1, 114157, Note_on_c, 0, 68, 62
1, 114182, Note_on_c, 0, 56, 46
1, 114194, Note_off_c, 0, 64, 53
1, 114216, Control_c, 0, 64, 0
1, 114247, Note_off_c, 0, 52, 51
1, 114463, Note_off_c, 0, 56, 57
1, 114471, Note_on_c, 0, 59, 46
1, 114471, Note_on_c, 0, 71, 63
1, 114501, Note_off_c, 0, 68, 54
1, 114565, Note_off_c, 0, 59, 60
1, 114570, Note_on_c, 0, 76, 61
1, 114578, Note_off_c, 0, 71, 60
1, 114585, Note_on_c, 0, 64, 47
1, 114713, Control_c, 0, 64, 12
1, 114727, Control_c, 0, 64, 33
1, 114742, Control_c, 0, 64, 47
1, 114757, Control_c, 0, 64, 56
1, 114772, Control_c, 0, 64, 61
1, 114772, Control_c, 0, 67, 127
1, 114787, Control_c, 0, 64, 63
1, 114802, Control_c, 0, 64, 66
1, 114802, Control_c, 0, 67, 126
1, 114804, Note_off_c, 0, 64, 46
1, 114817, Control_c, 0, 64, 68
1, 114817, Control_c, 0, 67, 125
1, 114832, Control_c, 0, 64, 71
1, 114847, Control_c, 0, 64, 75
1, 114861, Control_c, 0, 64, 79
1, 114861, Control_c, 0, 67, 125
1, 114876, Control_c, 0, 64, 82
1, 114891, Control_c, 0, 64, 85
1, 114935, Control_c, 0, 64, 84
1, 114950, Control_c, 0, 64, 83
1, 114965, Control_c, 0, 64, 82
1, 114965, Control_c, 0, 67, 124
1, 114980, Control_c, 0, 64, 80
1, 114994, Note_on_c, 0, 64, 51
1, 114994, Control_c, 0, 64, 75
1, 114994, Control_c, 0, 67, 122
1, 115005, Note_on_c, 0, 52, 40
1, 115009, Control_c, 0, 64, 68
1, 115009, Control_c, 0, 67, 115
1, 115024, Control_c, 0, 64, 61
1, 115024, Control_c, 0, 67, 110
1, 115036, Note_off_c, 0, 76, 48
1, 115039, Control_c, 0, 64, 46
1, 115039, Control_c, 0, 67, 107
1, 115054, Control_c, 0, 64, 24
1, 115054, Control_c, 0, 67, 105
1, 115068, Control_c, 0, 64, 16
1, 115068, Control_c, 0, 67, 104
1, 115098, Control_c, 0, 64, 24
1, 115113, Control_c, 0, 64, 33
1, 115127, Control_c, 0, 64, 44
1, 115142, Control_c, 0, 64, 55
1, 115157, Control_c, 0, 64, 61
1, 115163, Note_off_c, 0, 52, 64
1, 115172, Control_c, 0, 64, 65
1, 115187, Control_c, 0, 64, 69
1, 115201, Control_c, 0, 64, 73
1, 115217, Control_c, 0, 64, 79
1, 115232, Control_c, 0, 64, 86
1, 115247, Control_c, 0, 64, 95
1, 115262, Control_c, 0, 64, 104
1, 115262, Control_c, 0, 67, 105
1, 115285, Control_c, 0, 64, 119
1, 115299, Control_c, 0, 64, 127
1, 115314, Control_c, 0, 67, 105
1, 115403, Control_c, 0, 67, 106
1, 115447, Control_c, 0, 64, 119
1, 115462, Control_c, 0, 64, 114
1, 115477, Control_c, 0, 64, 110
1, 115481, Note_on_c, 0, 71, 55
1, 115491, Control_c, 0, 64, 104
1, 115506, Control_c, 0, 64, 99
1, 115514, Note_on_c, 0, 54, 37
1, 115517, Note_on_c, 0, 51, 36
1, 115521, Control_c, 0, 64, 92
1, 115522, Note_on_c, 0, 59, 35
1, 115536, Control_c, 0, 64, 83
1, 115550, Control_c, 0, 64, 74
1, 115565, Control_c, 0, 64, 66
1, 115580, Control_c, 0, 64, 59
1, 115595, Control_c, 0, 64, 48
1, 115610, Control_c, 0, 64, 41
1, 115622, Note_off_c, 0, 64, 37
1, 115625, Control_c, 0, 64, 38
1, 115639, Control_c, 0, 64, 34
1, 115639, Control_c, 0, 67, 105
1, 115654, Control_c, 0, 64, 18
1, 115669, Control_c, 0, 64, 0
1, 115684, Control_c, 0, 67, 105
1, 115758, Control_c, 0, 67, 104
1, 115788, Control_c, 0, 67, 103
1, 115876, Control_c, 0, 64, 17
1, 115891, Control_c, 0, 64, 40
1, 115906, Control_c, 0, 64, 52
1, 115921, Control_c, 0, 64, 60
1, 115921, Control_c, 0, 67, 103
1, 115936, Control_c, 0, 64, 63
1, 115950, Control_c, 0, 64, 65
1, 115950, Control_c, 0, 67, 102
1, 115965, Control_c, 0, 64, 67
1, 115980, Control_c, 0, 64, 69
1, 115991, Note_off_c, 0, 59, 55
1, 115995, Control_c, 0, 64, 72
1, 116010, Control_c, 0, 64, 75
1, 116010, Control_c, 0, 67, 102
1, 116033, Control_c, 0, 64, 80
1, 116048, Control_c, 0, 64, 85
1, 116063, Control_c, 0, 64, 90
1, 116077, Note_off_c, 0, 54, 41
1, 116078, Control_c, 0, 64, 96
1, 116093, Control_c, 0, 64, 103
1, 116107, Control_c, 0, 64, 111
1, 116122, Control_c, 0, 64, 127
1, 116122, Control_c, 0, 67, 101
1, 116151, Note_on_c, 0, 73, 61
1, 116157, Note_off_c, 0, 71, 55
1, 116194, Note_off_c, 0, 73, 55
1, 116196, Note_off_c, 0, 51, 40
1, 116359, Control_c, 0, 67, 100
1, 116381, Note_on_c, 0, 71, 55
1, 116389, Control_c, 0, 64, 113
1, 116401, Note_on_c, 0, 58, 45
1, 116402, Note_on_c, 0, 55, 39
1, 116404, Control_c, 0, 64, 100
1, 116407, Note_on_c, 0, 52, 38
1, 116419, Control_c, 0, 64, 89
1, 116434, Control_c, 0, 64, 78
1, 116438, Note_off_c, 0, 71, 56
1, 116447, Note_on_c, 0, 73, 61
1, 116448, Control_c, 0, 64, 69
1, 116463, Control_c, 0, 64, 62
1, 116478, Control_c, 0, 64, 53
1, 116492, Control_c, 0, 64, 43
1, 116499, Note_off_c, 0, 73, 62
1, 116507, Control_c, 0, 64, 39
1, 116514, Note_on_c, 0, 75, 65
1, 116522, Control_c, 0, 64, 38
1, 116537, Control_c, 0, 64, 37
1, 116552, Control_c, 0, 64, 32
1, 116561, Note_off_c, 0, 75, 58
1, 116567, Control_c, 0, 64, 23
1, 116581, Note_on_c, 0, 73, 67
1, 116581, Control_c, 0, 64, 9
1, 116596, Control_c, 0, 64, 0
1, 116626, Note_off_c, 0, 73, 61
1, 116641, Note_on_c, 0, 75, 72
1, 116675, Note_off_c, 0, 75, 59
1, 116697, Note_on_c, 0, 73, 70
1, 116742, Note_off_c, 0, 73, 62
1, 116771, Note_on_c, 0, 75, 62
1, 116803, Note_off_c, 0, 75, 65
1, 116811, Control_c, 0, 64, 13
1, 116813, Note_on_c, 0, 73, 67
1, 116827, Control_c, 0, 64, 32
1, 116842, Control_c, 0, 64, 46
1, 116857, Control_c, 0, 64, 55
1, 116859, Note_off_c, 0, 73, 63
1, 116871, Control_c, 0, 64, 60
1, 116882, Note_on_c, 0, 75, 66
1, 116886, Control_c, 0, 64, 62
1, 116901, Control_c, 0, 64, 63
1, 116901, Control_c, 0, 67, 101
1, 116916, Control_c, 0, 64, 64
1, 116916, Control_c, 0, 67, 103
1, 116922, Note_off_c, 0, 75, 60
1, 116930, Control_c, 0, 67, 106
1, 116945, Control_c, 0, 67, 110
1, 116951, Note_on_c, 0, 73, 64
1, 116960, Control_c, 0, 64, 63
1, 116960, Control_c, 0, 67, 114
1, 116975, Control_c, 0, 64, 63
1, 116975, Control_c, 0, 67, 117
1, 116988, Note_off_c, 0, 73, 61
1, 116990, Control_c, 0, 64, 62
1, 116990, Control_c, 0, 67, 120
1, 117001, Note_off_c, 0, 52, 50
1, 117005, Control_c, 0, 64, 61
1, 117005, Control_c, 0, 67, 124
1, 117014, Note_on_c, 0, 75, 73
1, 117020, Control_c, 0, 64, 58
1, 117020, Control_c, 0, 67, 127
1, 117035, Control_c, 0, 64, 52
1, 117040, Note_off_c, 0, 75, 68
1, 117049, Control_c, 0, 64, 42
1, 117064, Control_c, 0, 64, 33
1, 117076, Note_off_c, 0, 58, 40
1, 117078, Note_on_c, 0, 73, 67
1, 117079, Control_c, 0, 64, 25
1, 117094, Control_c, 0, 64, 21
1, 117107, Note_off_c, 0, 55, 42
1, 117109, Control_c, 0, 64, 15
1, 117121, Note_off_c, 0, 73, 63
1, 117122, Control_c, 0, 64, 0
1, 117151, Note_on_c, 0, 71, 64
1, 117196, Note_off_c, 0, 71, 63
1, 117210, Note_on_c, 0, 75, 63
1, 117274, Note_on_c, 0, 73, 58
1, 117276, Note_off_c, 0, 75, 61
1, 117340, Note_off_c, 0, 73, 59
1, 117366, Note_on_c, 0, 71, 56
1, 117382, Note_on_c, 0, 54, 28
1, 117391, Note_on_c, 0, 51, 32
1, 117394, Note_on_c, 0, 59, 30
1, 117508, Control_c, 0, 64, 17
1, 117529, Control_c, 0, 64, 37
1, 117544, Control_c, 0, 64, 49
1, 117559, Control_c, 0, 64, 56
1, 117574, Control_c, 0, 64, 60
1, 117589, Control_c, 0, 64, 62
1, 117604, Control_c, 0, 64, 63
1, 117619, Control_c, 0, 64, 64
1, 117634, Note_off_c, 0, 59, 41
1, 117634, Control_c, 0, 64, 66
1, 117639, Note_off_c, 0, 51, 56
1, 117649, Control_c, 0, 64, 67
1, 117664, Note_off_c, 0, 71, 38
1, 117664, Control_c, 0, 64, 69
1, 117679, Control_c, 0, 64, 71
1, 117687, Note_off_c, 0, 54, 36
1, 117693, Control_c, 0, 64, 73
1, 117708, Control_c, 0, 64, 75
1, 117723, Control_c, 0, 64, 77
1, 117738, Control_c, 0, 64, 79
1, 117738, Control_c, 0, 67, 124
1, 117753, Control_c, 0, 64, 80
1, 117753, Control_c, 0, 67, 113
1, 117768, Control_c, 0, 64, 81
1, 117768, Control_c, 0, 67, 100
1, 117783, Control_c, 0, 64, 83
1, 117783, Control_c, 0, 67, 88
1, 117798, Control_c, 0, 64, 84
1, 117798, Control_c, 0, 67, 77
1, 117813, Control_c, 0, 64, 85
1, 117813, Control_c, 0, 67, 68
1, 117827, Control_c, 0, 64, 86
1, 117827, Control_c, 0, 67, 61
1, 117842, Control_c, 0, 67, 55
1, 117857, Control_c, 0, 67, 51
1, 117872, Control_c, 0, 67, 48
1, 117887, Control_c, 0, 67, 45
1, 117901, Control_c, 0, 67, 43
1, 117916, Control_c, 0, 67, 42
1, 117931, Control_c, 0, 67, 41
1, 117945, Control_c, 0, 67, 40
1, 117960, Control_c, 0, 64, 85
1, 117960, Control_c, 0, 67, 40
1, 117975, Control_c, 0, 64, 85
1, 117975, Control_c, 0, 67, 39
1, 117990, Control_c, 0, 64, 84
1, 117990, Control_c, 0, 67, 38
1, 118005, Control_c, 0, 64, 84
1, 118019, Control_c, 0, 64, 83
1, 118019, Control_c, 0, 67, 37
1, 118034, Control_c, 0, 64, 82
1, 118049, Control_c, 0, 64, 82
1, 118064, Control_c, 0, 64, 81
1, 118079, Control_c, 0, 64, 80
1, 118093, Control_c, 0, 64, 78
1, 118108, Control_c, 0, 64, 76
1, 118108, Control_c, 0, 67, 38
1, 118123, Control_c, 0, 64, 74
1, 118137, Control_c, 0, 64, 71
1, 118152, Control_c, 0, 64, 68
1, 118167, Control_c, 0, 64, 65
1, 118182, Control_c, 0, 64, 64
1, 118182, Control_c, 0, 67, 38
1, 118197, Control_c, 0, 64, 62
1, 118212, Control_c, 0, 64, 61
1, 118212, Control_c, 0, 67, 39
1, 118227, Control_c, 0, 64, 60
1, 118242, Control_c, 0, 64, 59
1, 118257, Control_c, 0, 64, 57
1, 118279, Control_c, 0, 64, 55
1, 118293, Control_c, 0, 64, 53
1, 118308, Control_c, 0, 64, 52
1, 118323, Control_c, 0, 64, 49
1, 118337, Control_c, 0, 64, 45
1, 118352, Control_c, 0, 64, 41
1, 118367, Control_c, 0, 64, 38
1, 118382, Control_c, 0, 64, 36
1, 118397, Control_c, 0, 64, 35
1, 118412, Control_c, 0, 64, 34
1, 118428, Control_c, 0, 64, 33
1, 118442, Control_c, 0, 64, 32
1, 118457, Control_c, 0, 64, 31
1, 118472, Control_c, 0, 64, 30
1, 118487, Control_c, 0, 64, 30
1, 118502, Control_c, 0, 64, 29
1, 118516, Control_c, 0, 64, 28
1, 118531, Control_c, 0, 64, 28
1, 118620, Control_c, 0, 67, 38
1, 118724, Control_c, 0, 67, 38
1, 118960, Control_c, 0, 67, 37
1, 119265, Control_c, 0, 67, 36
1, 119286, Note_on_c, 0, 78, 74
1, 119304, Note_on_c, 0, 73, 49
1, 119310, Note_on_c, 0, 69, 46
1, 119310, Control_c, 0, 67, 36
1, 119339, Control_c, 0, 67, 35
1, 119354, Control_c, 0, 67, 35
1, 119369, Control_c, 0, 67, 34
1, 119384, Control_c, 0, 64, 28
1, 119384, Control_c, 0, 67, 33
1, 119398, Control_c, 0, 64, 30
1, 119398, Control_c, 0, 67, 32
1, 119413, Control_c, 0, 64, 31
1, 119413, Control_c, 0, 67, 31
1, 119428, Control_c, 0, 64, 34
1, 119428, Control_c, 0, 67, 19
1, 119443, Control_c, 0, 64, 38
1, 119443, Control_c, 0, 67, 0
1, 119458, Control_c, 0, 64, 44
1, 119473, Control_c, 0, 64, 52
1, 119488, Control_c, 0, 64, 57
1, 119503, Control_c, 0, 64, 61
1, 119517, Control_c, 0, 64, 63
1, 119532, Control_c, 0, 64, 66
1, 119547, Control_c, 0, 64, 71
1, 119562, Control_c, 0, 64, 84
1, 119577, Control_c, 0, 64, 116
1, 119591, Control_c, 0, 64, 127
1, 119622, Note_off_c, 0, 78, 58
1, 119770, Note_off_c, 0, 73, 54
1, 119920, Note_on_c, 0, 80, 88
1, 119992, Note_off_c, 0, 80, 62
1, 120166, Note_on_c, 0, 81, 81
1, 120172, Note_on_c, 0, 77, 84
1, 120176, Note_on_c, 0, 71, 72
1, 120178, Control_c, 0, 64, 90
1, 120181, Note_on_c, 0, 74, 67
1, 120193, Control_c, 0, 64, 72
1, 120207, Control_c, 0, 64, 58
1, 120208, Note_off_c, 0, 69, 47
1, 120222, Control_c, 0, 64, 0
1, 120241, Note_off_c, 0, 81, 63
1, 120263, Note_on_c, 0, 80, 78
1, 120322, Note_off_c, 0, 80, 64
1, 120329, Note_on_c, 0, 81, 67
1, 120355, Control_c, 0, 64, 31
1, 120370, Control_c, 0, 64, 51
1, 120376, Note_off_c, 0, 81, 63
1, 120385, Control_c, 0, 64, 60
1, 120393, Note_on_c, 0, 80, 69
1, 120400, Control_c, 0, 64, 65
1, 120415, Control_c, 0, 64, 69
1, 120430, Control_c, 0, 64, 73
1, 120431, Note_off_c, 0, 80, 61
1, 120445, Control_c, 0, 64, 80
1, 120445, Note_on_c, 0, 81, 61
1, 120454, Note_off_c, 0, 77, 51
1, 120460, Control_c, 0, 64, 90
1, 120474, Control_c, 0, 64, 105
1, 120481, Note_off_c, 0, 81, 61
1, 120489, Control_c, 0, 64, 127
1, 120489, Note_off_c, 0, 74, 59
1, 120504, Note_on_c, 0, 80, 74
1, 120547, Note_off_c, 0, 80, 58
1, 120572, Note_on_c, 0, 81, 68
1, 120600, Note_off_c, 0, 81, 65
1, 120632, Note_on_c, 0, 80, 77
1, 120659, Note_off_c, 0, 80, 65
1, 120683, Note_on_c, 0, 81, 63
1, 120719, Note_off_c, 0, 81, 59
1, 120741, Note_on_c, 0, 80, 68
1, 120743, Note_off_c, 0, 71, 58
1, 120762, Note_off_c, 0, 80, 58
1, 120763, Control_c, 0, 64, 114
1, 120763, Control_c, 0, 67, 36
1, 120778, Control_c, 0, 64, 90
1, 120778, Control_c, 0, 67, 68
1, 120782, Note_on_c, 0, 81, 70
1, 120793, Control_c, 0, 64, 76
1, 120793, Control_c, 0, 67, 102
1, 120808, Control_c, 0, 64, 66
1, 120808, Control_c, 0, 67, 127
1, 120823, Control_c, 0, 64, 56
1, 120825, Note_off_c, 0, 81, 58
1, 120838, Control_c, 0, 64, 44
1, 120841, Note_on_c, 0, 80, 62
1, 120853, Control_c, 0, 64, 37
1, 120866, Control_c, 0, 64, 36
1, 120881, Note_off_c, 0, 80, 64
1, 120881, Control_c, 0, 64, 34
1, 120896, Control_c, 0, 64, 26
1, 120899, Note_on_c, 0, 78, 69
1, 120910, Control_c, 0, 64, 0
1, 120957, Note_off_c, 0, 78, 63
1, 120970, Note_on_c, 0, 81, 57
1, 121011, Note_off_c, 0, 81, 63
1, 121029, Note_on_c, 0, 80, 58
1, 121096, Note_off_c, 0, 80, 63
1, 121106, Note_on_c, 0, 78, 54
1, 121134, Note_on_c, 0, 73, 33
1, 121137, Note_on_c, 0, 69, 35
1, 121207, Control_c, 0, 64, 17
1, 121222, Control_c, 0, 64, 38
1, 121236, Control_c, 0, 64, 52
1, 121251, Control_c, 0, 64, 59
1, 121273, Control_c, 0, 64, 62
1, 121288, Control_c, 0, 64, 64
1, 121303, Control_c, 0, 64, 65
1, 121318, Control_c, 0, 64, 67
1, 121333, Control_c, 0, 64, 69
1, 121339, Note_off_c, 0, 73, 39
1, 121347, Note_off_c, 0, 69, 37
1, 121348, Control_c, 0, 64, 72
1, 121362, Control_c, 0, 64, 76
1, 121363, Note_off_c, 0, 78, 48
1, 121377, Control_c, 0, 64, 80
1, 121392, Control_c, 0, 64, 85
1, 121407, Control_c, 0, 64, 89
1, 121422, Control_c, 0, 64, 93
1, 121436, Control_c, 0, 64, 95
1, 121451, Control_c, 0, 64, 96
1, 121466, Control_c, 0, 64, 97
1, 121481, Control_c, 0, 64, 97
1, 121615, Control_c, 0, 67, 126
1, 121630, Control_c, 0, 64, 97
1, 121630, Control_c, 0, 67, 124
1, 121645, Control_c, 0, 64, 96
1, 121645, Control_c, 0, 67, 122
1, 121659, Control_c, 0, 64, 96
1, 121659, Control_c, 0, 67, 120
1, 121674, Control_c, 0, 64, 95
1, 121674, Control_c, 0, 67, 116
1, 121689, Control_c, 0, 67, 112
1, 121704, Control_c, 0, 64, 94
1, 121704, Control_c, 0, 67, 109
1, 121719, Control_c, 0, 67, 105
1, 121733, Control_c, 0, 64, 93
1, 121733, Control_c, 0, 67, 102
1, 121748, Control_c, 0, 64, 92
1, 121748, Control_c, 0, 67, 99
1, 121763, Control_c, 0, 64, 90
1, 121763, Control_c, 0, 67, 96
1, 121778, Control_c, 0, 64, 89
1, 121778, Control_c, 0, 67, 92
1, 121792, Control_c, 0, 64, 86
1, 121792, Control_c, 0, 67, 90
1, 121807, Control_c, 0, 64, 83
1, 121807, Control_c, 0, 67, 87
1, 121822, Control_c, 0, 64, 79
1, 121822, Control_c, 0, 67, 85
1, 121837, Control_c, 0, 64, 75
1, 121837, Control_c, 0, 67, 82
1, 121852, Control_c, 0, 64, 70
1, 121852, Control_c, 0, 67, 80
1, 121867, Control_c, 0, 64, 66
1, 121867, Control_c, 0, 67, 77
1, 121881, Control_c, 0, 64, 63
1, 121881, Control_c, 0, 67, 75
1, 121896, Control_c, 0, 64, 60
1, 121896, Control_c, 0, 67, 73
1, 121911, Control_c, 0, 64, 59
1, 121911, Control_c, 0, 67, 71
1, 121926, Control_c, 0, 67, 68
1, 121941, Control_c, 0, 67, 66
1, 121956, Control_c, 0, 64, 59
1, 121956, Control_c, 0, 67, 65
1, 121971, Control_c, 0, 64, 57
1, 121971, Control_c, 0, 67, 63
1, 121985, Control_c, 0, 64, 56
1, 121985, Control_c, 0, 67, 61
1, 122007, Control_c, 0, 64, 54
1, 122007, Control_c, 0, 67, 60
1, 122022, Control_c, 0, 64, 53
1, 122022, Control_c, 0, 67, 58
1, 122037, Control_c, 0, 64, 52
1, 122037, Control_c, 0, 67, 57
1, 122052, Control_c, 0, 64, 51
1, 122052, Control_c, 0, 67, 56
1, 122066, Control_c, 0, 64, 50
1, 122066, Control_c, 0, 67, 55
1, 122081, Control_c, 0, 64, 49
1, 122081, Control_c, 0, 67, 53
1, 122096, Control_c, 0, 64, 48
1, 122096, Control_c, 0, 67, 52
1, 122111, Control_c, 0, 64, 48
1, 122111, Control_c, 0, 67, 50
1, 122126, Control_c, 0, 64, 47
1, 122126, Control_c, 0, 67, 49
1, 122141, Control_c, 0, 64, 45
1, 122141, Control_c, 0, 67, 47
1, 122156, Control_c, 0, 64, 41
1, 122156, Control_c, 0, 67, 45
1, 122171, Control_c, 0, 64, 37
1, 122171, Control_c, 0, 67, 43
1, 122185, Control_c, 0, 64, 35
1, 122185, Control_c, 0, 67, 43
1, 122200, Control_c, 0, 67, 42
1, 122215, Control_c, 0, 67, 41
1, 122230, Control_c, 0, 67, 41
1, 122260, Control_c, 0, 67, 40
1, 122304, Control_c, 0, 67, 40
1, 122392, Control_c, 0, 67, 39
1, 122542, Control_c, 0, 67, 38
1, 122830, Control_c, 0, 67, 38
1, 122845, Control_c, 0, 64, 35
1, 123053, Note_on_c, 0, 64, 56
1, 123072, Note_on_c, 0, 59, 37
1, 123073, Note_on_c, 0, 56, 34
1, 123186, Control_c, 0, 64, 36
1, 123201, Control_c, 0, 64, 37
1, 123217, Control_c, 0, 64, 39
1, 123231, Control_c, 0, 64, 42
1, 123246, Control_c, 0, 64, 46
1, 123261, Control_c, 0, 64, 51
1, 123276, Control_c, 0, 64, 56
1, 123291, Control_c, 0, 64, 60
1, 123305, Control_c, 0, 64, 62
1, 123305, Control_c, 0, 67, 37
1, 123320, Control_c, 0, 64, 63
1, 123335, Control_c, 0, 64, 64
1, 123350, Control_c, 0, 64, 66
1, 123364, Control_c, 0, 64, 68
1, 123364, Control_c, 0, 67, 36
1, 123379, Control_c, 0, 64, 70
1, 123394, Control_c, 0, 64, 73
1, 123409, Control_c, 0, 64, 78
1, 123424, Control_c, 0, 64, 84
1, 123438, Control_c, 0, 64, 94
1, 123438, Control_c, 0, 67, 36
1, 123453, Control_c, 0, 64, 116
1, 123453, Control_c, 0, 67, 35
1, 123468, Control_c, 0, 64, 127
1, 123468, Control_c, 0, 67, 35
1, 123483, Control_c, 0, 67, 34
1, 123498, Control_c, 0, 67, 33
1, 123520, Control_c, 0, 67, 24
1, 123531, Note_off_c, 0, 56, 37
1, 123535, Control_c, 0, 67, 0
1, 123539, Note_off_c, 0, 59, 55
1, 123684, Note_on_c, 0, 66, 73
1, 123703, Note_off_c, 0, 64, 42
1, 123742, Note_off_c, 0, 66, 63
1, 123920, Note_on_c, 0, 68, 74
1, 123920, Control_c, 0, 64, 110
1, 123926, Note_on_c, 0, 60, 60
1, 123929, Note_on_c, 0, 63, 63
1, 123935, Control_c, 0, 64, 88
1, 123935, Note_on_c, 0, 57, 55
1, 123950, Control_c, 0, 64, 74
1, 123964, Control_c, 0, 64, 63
1, 123979, Control_c, 0, 64, 45
1, 123993, Note_off_c, 0, 68, 61
1, 123994, Control_c, 0, 64, 0
1, 124004, Note_on_c, 0, 66, 70
1, 124057, Note_off_c, 0, 66, 57
1, 124069, Note_on_c, 0, 68, 66
1, 124109, Note_off_c, 0, 68, 61
1, 124127, Note_on_c, 0, 66, 72
1, 124175, Note_off_c, 0, 66, 60
1, 124186, Note_on_c, 0, 68, 68
1, 124221, Note_off_c, 0, 68, 62
1, 124239, Note_on_c, 0, 66, 70
1, 124291, Note_off_c, 0, 66, 60
1, 124315, Note_on_c, 0, 68, 65
1, 124329, Control_c, 0, 64, 28
1, 124343, Control_c, 0, 64, 49
1, 124347, Note_off_c, 0, 68, 64
1, 124358, Control_c, 0, 64, 59
1, 124373, Control_c, 0, 64, 64
1, 124377, Note_on_c, 0, 66, 67
1, 124387, Control_c, 0, 64, 67
1, 124402, Control_c, 0, 64, 70
1, 124407, Note_off_c, 0, 66, 65
1, 124417, Control_c, 0, 64, 73
1, 124428, Note_on_c, 0, 68, 73
1, 124432, Control_c, 0, 64, 75
1, 124447, Control_c, 0, 64, 77
1, 124453, Note_off_c, 0, 68, 69
1, 124472, Note_off_c, 0, 60, 48
1, 124489, Note_on_c, 0, 66, 73
1, 124491, Control_c, 0, 64, 76
1, 124506, Control_c, 0, 64, 74
1, 124521, Control_c, 0, 64, 72
1, 124535, Control_c, 0, 64, 69
1, 124543, Note_off_c, 0, 66, 63
1, 124550, Control_c, 0, 64, 65
1, 124555, Note_on_c, 0, 64, 71
1, 124565, Control_c, 0, 64, 61
1, 124579, Control_c, 0, 64, 56
1, 124585, Note_off_c, 0, 57, 32
1, 124594, Control_c, 0, 64, 48
1, 124609, Control_c, 0, 64, 43
1, 124615, Note_off_c, 0, 64, 63
1, 124617, Note_on_c, 0, 68, 74
1, 124624, Control_c, 0, 64, 39
1, 124639, Control_c, 0, 64, 30
1, 124654, Control_c, 0, 64, 0
1, 124686, Note_on_c, 0, 66, 77
1, 124698, Note_off_c, 0, 68, 62
1, 124705, Note_off_c, 0, 63, 38
1, 124764, Note_on_c, 0, 64, 69
1, 124764, Note_off_c, 0, 66, 57
1, 124766, Note_on_c, 0, 59, 52
1, 124771, Note_on_c, 0, 56, 49
1, 124907, Control_c, 0, 64, 40
1, 124922, Control_c, 0, 64, 57
1, 124937, Control_c, 0, 64, 64
1, 124951, Control_c, 0, 64, 69
1, 124961, Note_off_c, 0, 59, 63
1, 124966, Control_c, 0, 64, 77
1, 124981, Control_c, 0, 64, 87
1, 124996, Control_c, 0, 64, 111
1, 125008, Note_off_c, 0, 64, 59
1, 125016, Note_off_c, 0, 56, 64
1, 125017, Control_c, 0, 64, 127
1, 125365, Note_on_c, 0, 69, 86
1, 125378, Note_on_c, 0, 57, 65
1, 125379, Note_on_c, 0, 54, 50
1, 125384, Note_on_c, 0, 61, 56
1, 125394, Note_on_c, 0, 42, 50
1, 125417, Control_c, 0, 64, 100
1, 125432, Control_c, 0, 64, 81
1, 125447, Control_c, 0, 64, 69
1, 125462, Control_c, 0, 64, 61
1, 125476, Control_c, 0, 64, 50
1, 125491, Control_c, 0, 64, 44
1, 125506, Control_c, 0, 64, 42
1, 125521, Control_c, 0, 64, 38
1, 125536, Control_c, 0, 64, 27
1, 125551, Control_c, 0, 64, 0
1, 125730, Control_c, 0, 64, 25
1, 125745, Control_c, 0, 64, 48
1, 125767, Control_c, 0, 64, 59
1, 125781, Control_c, 0, 64, 65
1, 125796, Control_c, 0, 64, 69
1, 125811, Control_c, 0, 64, 77
1, 125825, Control_c, 0, 64, 88
1, 125840, Control_c, 0, 64, 110
1, 125855, Control_c, 0, 64, 127
1, 125902, Note_off_c, 0, 54, 57
1, 125915, Note_off_c, 0, 69, 59
1, 125925, Note_off_c, 0, 57, 55
1, 125996, Note_off_c, 0, 61, 55
1, 126035, Note_off_c, 0, 42, 58
1, 126329, Control_c, 0, 64, 110
1, 126344, Control_c, 0, 64, 95
1, 126359, Control_c, 0, 64, 79
1, 126374, Control_c, 0, 64, 66
1, 126389, Control_c, 0, 64, 50
1, 126389, Control_c, 0, 67, 14
1, 126398, Note_on_c, 0, 61, 44
1, 126398, Note_on_c, 0, 66, 54
1, 126404, Control_c, 0, 64, 0
1, 126404, Control_c, 0, 67, 23
1, 126418, Note_on_c, 0, 45, 39
1, 126418, Note_on_c, 0, 57, 42
1, 126419, Control_c, 0, 67, 29
1, 126434, Control_c, 0, 67, 30
1, 126448, Control_c, 0, 67, 29
1, 126463, Control_c, 0, 67, 29
1, 126478, Control_c, 0, 67, 28
1, 126493, Control_c, 0, 64, 21
1, 126493, Control_c, 0, 67, 27
1, 126516, Control_c, 0, 64, 46
1, 126516, Control_c, 0, 67, 26
1, 126530, Control_c, 0, 64, 59
1, 126530, Control_c, 0, 67, 25
1, 126545, Note_off_c, 0, 66, 61
1, 126545, Control_c, 0, 64, 66
1, 126545, Control_c, 0, 67, 24
1, 126548, Note_off_c, 0, 57, 58
1, 126558, Note_off_c, 0, 61, 55
1, 126560, Control_c, 0, 64, 71
1, 126561, Note_off_c, 0, 45, 60
1, 126575, Control_c, 0, 64, 78
1, 126589, Control_c, 0, 64, 86
1, 126604, Control_c, 0, 64, 95
1, 126619, Control_c, 0, 64, 106
1, 126634, Control_c, 0, 64, 117
1, 126648, Control_c, 0, 64, 127
1, 126678, Control_c, 0, 67, 25
1, 126708, Control_c, 0, 67, 26
1, 126723, Control_c, 0, 67, 26
1, 126737, Control_c, 0, 67, 28
1, 126752, Control_c, 0, 64, 119
1, 126752, Control_c, 0, 67, 28
1, 126764, Note_on_c, 0, 68, 59
1, 126767, Control_c, 0, 64, 114
1, 126767, Control_c, 0, 67, 29
1, 126782, Control_c, 0, 64, 110
1, 126782, Control_c, 0, 67, 29
1, 126797, Control_c, 0, 64, 104
1, 126797, Control_c, 0, 67, 30
1, 126812, Control_c, 0, 64, 99
1, 126812, Control_c, 0, 67, 31
1, 126827, Control_c, 0, 64, 91
1, 126827, Control_c, 0, 67, 32
1, 126842, Control_c, 0, 64, 82
1, 126842, Control_c, 0, 67, 33
1, 126842, Note_on_c, 0, 64, 57
1, 126852, Note_on_c, 0, 59, 39
1, 126856, Control_c, 0, 64, 74
1, 126856, Control_c, 0, 67, 34
1, 126861, Note_on_c, 0, 47, 41
1, 126861, Note_on_c, 0, 56, 45
1, 126871, Control_c, 0, 64, 67
1, 126871, Control_c, 0, 67, 40
1, 126877, Note_off_c, 0, 68, 59
1, 126886, Control_c, 0, 64, 59
1, 126886, Control_c, 0, 67, 51
1, 126901, Control_c, 0, 64, 48
1, 126901, Control_c, 0, 67, 63
1, 126916, Control_c, 0, 64, 34
1, 126916, Control_c, 0, 67, 75
1, 126930, Control_c, 0, 64, 22
1, 126930, Control_c, 0, 67, 88
1, 126945, Control_c, 0, 64, 0
1, 126945, Control_c, 0, 67, 100
1, 126960, Control_c, 0, 67, 107
1, 126974, Control_c, 0, 67, 110
1, 126989, Control_c, 0, 67, 111
1, 127048, Control_c, 0, 67, 110
1, 127063, Control_c, 0, 67, 109
1, 127078, Control_c, 0, 67, 107
1, 127093, Control_c, 0, 67, 105
1, 127108, Control_c, 0, 67, 104
1, 127122, Control_c, 0, 67, 102
1, 127137, Control_c, 0, 64, 35
1, 127137, Control_c, 0, 67, 100
1, 127152, Control_c, 0, 64, 53
1, 127152, Control_c, 0, 67, 98
1, 127167, Control_c, 0, 64, 61
1, 127167, Control_c, 0, 67, 98
1, 127182, Control_c, 0, 64, 65
1, 127182, Control_c, 0, 67, 97
1, 127197, Control_c, 0, 64, 68
1, 127211, Note_off_c, 0, 59, 59
1, 127212, Control_c, 0, 64, 70
1, 127212, Control_c, 0, 67, 97
1, 127227, Control_c, 0, 64, 73
1, 127227, Control_c, 0, 67, 96
1, 127242, Control_c, 0, 64, 78
1, 127265, Control_c, 0, 64, 84
1, 127269, Note_off_c, 0, 64, 47
1, 127279, Control_c, 0, 64, 92
1, 127294, Control_c, 0, 64, 105
1, 127309, Note_off_c, 0, 56, 36
1, 127309, Control_c, 0, 64, 127
1, 127427, Control_c, 0, 67, 97
1, 127650, Control_c, 0, 64, 116
1, 127664, Control_c, 0, 64, 100
1, 127679, Control_c, 0, 64, 88
1, 127682, Note_on_c, 0, 63, 47
1, 127694, Control_c, 0, 64, 76
1, 127697, Note_on_c, 0, 54, 38
1, 127701, Note_on_c, 0, 57, 38
1, 127708, Note_on_c, 0, 35, 27
1, 127709, Control_c, 0, 64, 65
1, 127724, Control_c, 0, 64, 47
1, 127739, Control_c, 0, 64, 0
1, 127753, Control_c, 0, 67, 95
1, 127768, Control_c, 0, 67, 95
1, 127783, Control_c, 0, 67, 93
1, 127797, Control_c, 0, 67, 92
1, 127812, Control_c, 0, 67, 90
1, 127827, Control_c, 0, 67, 88
1, 127842, Control_c, 0, 64, 43
1, 127842, Control_c, 0, 67, 85
1, 127857, Control_c, 0, 64, 56
1, 127857, Control_c, 0, 67, 84
1, 127871, Control_c, 0, 64, 63
1, 127871, Control_c, 0, 67, 82
1, 127886, Control_c, 0, 64, 66
1, 127886, Control_c, 0, 67, 80
1, 127900, Note_off_c, 0, 54, 57
1, 127901, Control_c, 0, 64, 70
1, 127901, Control_c, 0, 67, 77
1, 127908, Note_off_c, 0, 35, 53
1, 127916, Control_c, 0, 64, 76
1, 127916, Control_c, 0, 67, 71
1, 127918, Note_off_c, 0, 57, 59
1, 127924, Note_off_c, 0, 47, 45
1, 127931, Control_c, 0, 64, 83
1, 127931, Control_c, 0, 67, 67
1, 127945, Control_c, 0, 64, 92
1, 127945, Control_c, 0, 67, 66
1, 127960, Control_c, 0, 64, 104
1, 127975, Control_c, 0, 64, 127
1, 127980, Note_off_c, 0, 63, 59
1, 128013, Control_c, 0, 67, 66
1, 128028, Control_c, 0, 67, 65
1, 128043, Control_c, 0, 67, 65
1, 128058, Control_c, 0, 67, 63
1, 128073, Control_c, 0, 67, 61
1, 128088, Control_c, 0, 67, 51
1, 128102, Control_c, 0, 67, 37
1, 128117, Control_c, 0, 67, 22
1, 128132, Control_c, 0, 67, 8
1, 128147, Control_c, 0, 64, 121
1, 128147, Control_c, 0, 67, 0
1, 128162, Control_c, 0, 64, 104
1, 128177, Control_c, 0, 64, 93
1, 128191, Control_c, 0, 64, 85
1, 128206, Control_c, 0, 64, 78
1, 128221, Control_c, 0, 64, 72
1, 128235, Control_c, 0, 64, 67
1, 128250, Control_c, 0, 64, 64
1, 128265, Control_c, 0, 64, 61
1, 128280, Control_c, 0, 64, 60
1, 128295, Control_c, 0, 64, 58
1, 128309, Control_c, 0, 64, 58
1, 128324, Control_c, 0, 64, 57
1, 128339, Control_c, 0, 64, 55
1, 128354, Control_c, 0, 64, 54
1, 128369, Control_c, 0, 64, 51
1, 128383, Control_c, 0, 64, 49
1, 128398, Control_c, 0, 64, 47
1, 128413, Control_c, 0, 64, 45
1, 128428, Control_c, 0, 64, 43
1, 128442, Control_c, 0, 64, 40
1, 128457, Control_c, 0, 64, 37
1, 128472, Control_c, 0, 64, 37
1, 128487, Control_c, 0, 64, 36
1, 128547, Note_on_c, 0, 76, 70
1, 128554, Note_on_c, 0, 71, 47
1, 128565, Note_on_c, 0, 68, 49
1, 128635, Control_c, 0, 64, 35
1, 128650, Control_c, 0, 64, 33
1, 128665, Control_c, 0, 64, 29
1, 128680, Control_c, 0, 64, 23
1, 128694, Control_c, 0, 64, 12
1, 128709, Control_c, 0, 64, 0
1, 128791, Control_c, 0, 64, 21
1, 128806, Control_c, 0, 64, 32
1, 128821, Control_c, 0, 64, 46
1, 128836, Control_c, 0, 64, 56
1, 128851, Control_c, 0, 64, 62
1, 128866, Control_c, 0, 64, 65
1, 128881, Control_c, 0, 64, 69
1, 128896, Control_c, 0, 64, 74
1, 128910, Control_c, 0, 64, 80
1, 128925, Control_c, 0, 64, 88
1, 128940, Control_c, 0, 64, 101
1, 128955, Control_c, 0, 64, 127
1, 128961, Note_off_c, 0, 71, 55
1, 128961, Note_off_c, 0, 76, 51
1, 129200, Note_on_c, 0, 78, 86
1, 129225, Note_off_c, 0, 68, 56
1, 129271, Note_off_c, 0, 78, 64
1, 129375, Note_on_c, 0, 69, 53
1, 129398, Note_on_c, 0, 72, 66
1, 129417, Note_on_c, 0, 75, 71
1, 129443, Note_on_c, 0, 80, 82
1, 129458, Control_c, 0, 64, 118
1, 129473, Control_c, 0, 64, 89
1, 129488, Control_c, 0, 64, 70
1, 129510, Control_c, 0, 64, 54
1, 129525, Control_c, 0, 64, 0
1, 129544, Note_on_c, 0, 78, 79
1, 129544, Note_off_c, 0, 80, 64
1, 129620, Note_off_c, 0, 78, 64
1, 129621, Note_on_c, 0, 80, 78
1, 129677, Note_off_c, 0, 80, 64
1, 129685, Note_on_c, 0, 78, 81
1, 129718, Control_c, 0, 64, 33
1, 129733, Control_c, 0, 64, 52
1, 129740, Note_off_c, 0, 78, 63
1, 129745, Note_on_c, 0, 80, 71
1, 129748, Control_c, 0, 64, 61
1, 129763, Control_c, 0, 64, 65
1, 129778, Control_c, 0, 64, 68
1, 129780, Note_off_c, 0, 80, 62
1, 129793, Control_c, 0, 64, 72
1, 129799, Note_on_c, 0, 78, 73
1, 129807, Control_c, 0, 64, 78
1, 129822, Control_c, 0, 64, 84
1, 129837, Control_c, 0, 64, 92
1, 129843, Note_off_c, 0, 78, 62
1, 129852, Control_c, 0, 64, 100
1, 129861, Note_on_c, 0, 80, 76
1, 129863, Note_off_c, 0, 75, 56
1, 129867, Control_c, 0, 64, 110
1, 129871, Note_off_c, 0, 72, 52
1, 129881, Control_c, 0, 64, 118
1, 129894, Note_off_c, 0, 80, 58
1, 129918, Note_on_c, 0, 78, 76
1, 129941, Control_c, 0, 64, 115
1, 129954, Note_off_c, 0, 78, 60
1, 129955, Control_c, 0, 64, 109
1, 129970, Control_c, 0, 64, 102
1, 129972, Note_on_c, 0, 80, 76
1, 129985, Control_c, 0, 64, 93
1, 129995, Note_off_c, 0, 80, 70
1, 129999, Control_c, 0, 64, 82
1, 130014, Control_c, 0, 64, 72
1, 130028, Note_on_c, 0, 78, 78
1, 130029, Control_c, 0, 64, 64
1, 130044, Control_c, 0, 64, 56
1, 130059, Control_c, 0, 64, 47
1, 130065, Note_off_c, 0, 69, 39
1, 130073, Control_c, 0, 64, 46
1, 130090, Note_off_c, 0, 78, 62
1, 130093, Note_on_c, 0, 76, 75
1, 130103, Control_c, 0, 64, 45
1, 130118, Control_c, 0, 64, 39
1, 130133, Control_c, 0, 64, 21
1, 130148, Control_c, 0, 64, 0
1, 130155, Note_on_c, 0, 80, 81
1, 130156, Note_off_c, 0, 76, 64
1, 130218, Note_on_c, 0, 78, 80
1, 130231, Note_off_c, 0, 80, 65
1, 130298, Note_on_c, 0, 76, 75
1, 130299, Note_on_c, 0, 71, 52
1, 130302, Note_on_c, 0, 68, 43
1, 130302, Note_off_c, 0, 78, 63
1, 130408, Control_c, 0, 64, 18
1, 130422, Control_c, 0, 64, 43
1, 130437, Control_c, 0, 64, 56
1, 130452, Control_c, 0, 64, 63
1, 130467, Control_c, 0, 64, 67
1, 130479, Note_off_c, 0, 71, 64
1, 130482, Control_c, 0, 64, 73
1, 130497, Control_c, 0, 64, 81
1, 130511, Control_c, 0, 64, 97
1, 130526, Control_c, 0, 64, 127
1, 130534, Note_off_c, 0, 68, 62
1, 130541, Note_off_c, 0, 76, 59
1, 130875, Note_on_c, 0, 81, 78
1, 130889, Note_on_c, 0, 69, 74
1, 130890, Note_on_c, 0, 73, 63
1, 130896, Control_c, 0, 64, 108
1, 130911, Control_c, 0, 64, 93
1, 130918, Note_on_c, 0, 54, 49
1, 130924, Note_on_c, 0, 66, 37
1, 130926, Control_c, 0, 64, 78
1, 130941, Control_c, 0, 64, 68
1, 130956, Control_c, 0, 64, 60
1, 130970, Control_c, 0, 64, 50
1, 130985, Control_c, 0, 64, 39
1, 131008, Control_c, 0, 64, 29
1, 131022, Control_c, 0, 64, 0
1, 131216, Control_c, 0, 64, 28
1, 131231, Control_c, 0, 64, 46
1, 131245, Control_c, 0, 64, 56
1, 131260, Control_c, 0, 64, 62
1, 131275, Control_c, 0, 64, 64
1, 131290, Control_c, 0, 64, 66
1, 131305, Control_c, 0, 64, 69
1, 131319, Control_c, 0, 64, 72
1, 131329, Note_off_c, 0, 66, 57
1, 131334, Control_c, 0, 64, 75
1, 131349, Control_c, 0, 64, 80
1, 131364, Control_c, 0, 64, 86
1, 131370, Note_off_c, 0, 81, 57
1, 131378, Note_off_c, 0, 69, 53
1, 131379, Control_c, 0, 64, 92
1, 131393, Control_c, 0, 64, 98
1, 131408, Control_c, 0, 64, 103
1, 131423, Control_c, 0, 64, 107
1, 131438, Control_c, 0, 64, 110
1, 131452, Control_c, 0, 64, 111
1, 131458, Note_off_c, 0, 73, 43
1, 131467, Control_c, 0, 64, 113
1, 131482, Control_c, 0, 64, 115
1, 131497, Control_c, 0, 64, 118
1, 131512, Control_c, 0, 64, 121
1, 131526, Control_c, 0, 64, 123
1, 131556, Control_c, 0, 67, 9
1, 131566, Note_off_c, 0, 54, 27
1, 131571, Control_c, 0, 67, 20
1, 131586, Control_c, 0, 67, 30
1, 131600, Control_c, 0, 67, 40
1, 131615, Control_c, 0, 67, 49
1, 131630, Control_c, 0, 67, 58
1, 131644, Control_c, 0, 64, 121
1, 131644, Control_c, 0, 67, 70
1, 131659, Control_c, 0, 64, 118
1, 131659, Control_c, 0, 67, 78
1, 131674, Control_c, 0, 64, 117
1, 131674, Control_c, 0, 67, 85
1, 131689, Control_c, 0, 64, 116
1, 131689, Control_c, 0, 67, 92
1, 131704, Control_c, 0, 64, 115
1, 131704, Control_c, 0, 67, 97
1, 131718, Control_c, 0, 64, 114
1, 131718, Control_c, 0, 67, 100
1, 131733, Control_c, 0, 64, 113
1, 131733, Control_c, 0, 67, 103
1, 131756, Control_c, 0, 67, 107
1, 131771, Control_c, 0, 67, 112
1, 131786, Control_c, 0, 64, 111
1, 131786, Control_c, 0, 67, 117
1, 131800, Control_c, 0, 64, 110
1, 131800, Control_c, 0, 67, 122
1, 131815, Control_c, 0, 64, 108
1, 131815, Control_c, 0, 67, 126
1, 131830, Control_c, 0, 64, 107
1, 131830, Control_c, 0, 67, 127
1, 131844, Control_c, 0, 64, 107
1, 131859, Control_c, 0, 64, 106
1, 131874, Control_c, 0, 64, 104
1, 131889, Control_c, 0, 64, 101
1, 131904, Control_c, 0, 64, 96
1, 131918, Control_c, 0, 64, 86
1, 131933, Control_c, 0, 64, 73
1, 131939, Note_on_c, 0, 78, 55
1, 131940, Note_on_c, 0, 73, 42
1, 131947, Note_on_c, 0, 57, 36
1, 131948, Control_c, 0, 64, 60
1, 131963, Control_c, 0, 64, 32
1, 131964, Note_on_c, 0, 69, 53
1, 131978, Control_c, 0, 64, 0
1, 132038, Control_c, 0, 64, 33
1, 132053, Control_c, 0, 64, 50
1, 132061, Note_off_c, 0, 78, 63
1, 132067, Note_off_c, 0, 69, 52
1, 132067, Control_c, 0, 64, 59
1, 132069, Note_off_c, 0, 73, 56
1, 132082, Control_c, 0, 64, 64
1, 132097, Control_c, 0, 64, 67
1, 132097, Control_c, 0, 67, 127
1, 132105, Note_off_c, 0, 57, 52
1, 132112, Control_c, 0, 64, 71
1, 132112, Control_c, 0, 67, 125
1, 132127, Control_c, 0, 64, 75
1, 132127, Control_c, 0, 67, 123
1, 132142, Control_c, 0, 64, 83
1, 132142, Control_c, 0, 67, 121
1, 132157, Control_c, 0, 64, 93
1, 132157, Control_c, 0, 67, 120
1, 132172, Control_c, 0, 64, 110
1, 132172, Control_c, 0, 67, 119
1, 132186, Control_c, 0, 64, 127
1, 132186, Control_c, 0, 67, 119
1, 132201, Control_c, 0, 67, 117
1, 132216, Control_c, 0, 67, 115
1, 132231, Control_c, 0, 67, 115
1, 132246, Control_c, 0, 67, 114
1, 132296, Note_on_c, 0, 80, 55
1, 132349, Control_c, 0, 67, 115
1, 132379, Control_c, 0, 64, 119
1, 132380, Note_on_c, 0, 76, 60
1, 132383, Note_on_c, 0, 71, 42
1, 132393, Control_c, 0, 64, 101
1, 132396, Note_on_c, 0, 59, 36
1, 132405, Note_on_c, 0, 68, 40
1, 132406, Note_off_c, 0, 80, 39
1, 132408, Control_c, 0, 64, 86
1, 132423, Control_c, 0, 64, 75
1, 132438, Control_c, 0, 64, 65
1, 132438, Control_c, 0, 67, 115
1, 132453, Control_c, 0, 64, 52
1, 132467, Control_c, 0, 64, 26
1, 132482, Control_c, 0, 64, 0
1, 132594, Control_c, 0, 67, 115
1, 132623, Control_c, 0, 67, 114
1, 132638, Control_c, 0, 67, 114
1, 132653, Control_c, 0, 67, 113
1, 132667, Control_c, 0, 64, 18
1, 132667, Control_c, 0, 67, 112
1, 132682, Control_c, 0, 64, 42
1, 132682, Control_c, 0, 67, 112
1, 132697, Control_c, 0, 64, 56
1, 132697, Control_c, 0, 67, 111
1, 132712, Control_c, 0, 64, 62
1, 132712, Control_c, 0, 67, 110
1, 132727, Control_c, 0, 64, 64
1, 132727, Control_c, 0, 67, 109
1, 132736, Note_off_c, 0, 71, 56
1, 132741, Control_c, 0, 64, 66
1, 132741, Control_c, 0, 67, 105
1, 132756, Control_c, 0, 64, 68
1, 132756, Control_c, 0, 67, 92
1, 132771, Control_c, 0, 64, 70
1, 132771, Control_c, 0, 67, 75
1, 132786, Control_c, 0, 64, 74
1, 132786, Control_c, 0, 67, 63
1, 132802, Control_c, 0, 64, 80
1, 132802, Control_c, 0, 67, 52
1, 132817, Control_c, 0, 64, 88
1, 132817, Control_c, 0, 67, 45
1, 132827, Note_off_c, 0, 76, 51
1, 132832, Control_c, 0, 64, 101
1, 132832, Control_c, 0, 67, 40
1, 132846, Control_c, 0, 64, 127
1, 132846, Control_c, 0, 67, 36
1, 132861, Control_c, 0, 67, 33
1, 132869, Note_off_c, 0, 68, 34
1, 132876, Control_c, 0, 67, 29
1, 132890, Control_c, 0, 67, 26
1, 132905, Control_c, 0, 67, 24
1, 132920, Control_c, 0, 67, 21
1, 132935, Control_c, 0, 67, 19
1, 132950, Control_c, 0, 67, 18
1, 132964, Control_c, 0, 67, 18
1, 132979, Control_c, 0, 67, 17
1, 133009, Control_c, 0, 67, 16
1, 133039, Control_c, 0, 67, 16
1, 133216, Control_c, 0, 64, 119
1, 133219, Note_on_c, 0, 75, 52
1, 133231, Control_c, 0, 64, 91
1, 133231, Control_c, 0, 67, 15
1, 133251, Note_on_c, 0, 69, 43
1, 133252, Note_on_c, 0, 47, 40
1, 133254, Note_on_c, 0, 66, 40
1, 133254, Control_c, 0, 64, 69
1, 133269, Control_c, 0, 64, 53
1, 133283, Control_c, 0, 64, 0
1, 133298, Control_c, 0, 67, 14
1, 133328, Control_c, 0, 64, 33
1, 133328, Control_c, 0, 67, 13
1, 133343, Control_c, 0, 64, 52
1, 133343, Control_c, 0, 67, 11
1, 133358, Control_c, 0, 64, 62
1, 133358, Control_c, 0, 67, 0
1, 133362, Note_off_c, 0, 59, 55
1, 133372, Control_c, 0, 64, 68
1, 133387, Control_c, 0, 64, 77
1, 133402, Control_c, 0, 64, 95
1, 133417, Control_c, 0, 64, 127
1, 133427, Note_off_c, 0, 75, 56
1, 133460, Note_off_c, 0, 47, 51
1, 133463, Note_off_c, 0, 66, 35
1, 133489, Note_off_c, 0, 69, 44
1, 133625, Control_c, 0, 64, 78
1, 133639, Control_c, 0, 64, 59
1, 133654, Control_c, 0, 64, 0
1, 133700, Note_on_c, 0, 47, 86
1, 133758, Control_c, 0, 64, 54
1, 133773, Control_c, 0, 64, 68
1, 133787, Control_c, 0, 64, 94
1, 133797, Note_off_c, 0, 47, 57
1, 133802, Control_c, 0, 64, 127
1, 134018, Note_on_c, 0, 43, 87
1, 134074, Note_on_c, 0, 71, 74
1, 134097, Note_on_c, 0, 40, 95
1, 134121, Control_c, 0, 64, 88
1, 134136, Note_off_c, 0, 71, 64
1, 134136, Control_c, 0, 64, 66
1, 134137, Note_off_c, 0, 43, 62
1, 134149, Note_on_c, 0, 67, 73
1, 134151, Control_c, 0, 64, 32
1, 134166, Control_c, 0, 64, 0
1, 134214, Note_off_c, 0, 67, 62
1, 134233, Note_on_c, 0, 71, 67
1, 134267, Note_off_c, 0, 71, 61
1, 134297, Note_on_c, 0, 67, 64
1, 134330, Note_off_c, 0, 67, 64
1, 134363, Note_on_c, 0, 71, 64
1, 134392, Note_off_c, 0, 71, 68
1, 134417, Note_on_c, 0, 67, 62
1, 134450, Note_off_c, 0, 67, 64
1, 134471, Note_on_c, 0, 71, 68
1, 134502, Note_off_c, 0, 71, 65
1, 134536, Note_on_c, 0, 67, 62
1, 134571, Note_off_c, 0, 67, 65
1, 134598, Note_on_c, 0, 71, 63
1, 134619, Note_off_c, 0, 71, 65
1, 134654, Note_on_c, 0, 67, 63
1, 134685, Note_off_c, 0, 67, 66
1, 134694, Note_on_c, 0, 71, 68
1, 134727, Note_off_c, 0, 71, 62
1, 134771, Note_on_c, 0, 67, 64
1, 134803, Note_off_c, 0, 67, 66
1, 134825, Note_on_c, 0, 71, 62
1, 134845, Note_off_c, 0, 71, 65
1, 134854, Control_c, 0, 64, 22
1, 134869, Control_c, 0, 64, 39
1, 134879, Note_on_c, 0, 67, 65
1, 134884, Control_c, 0, 64, 50
1, 134899, Control_c, 0, 64, 54
1, 134908, Note_off_c, 0, 67, 67
1, 134911, Note_on_c, 0, 71, 74
1, 134914, Control_c, 0, 64, 56
1, 134929, Control_c, 0, 64, 56
1, 134943, Control_c, 0, 64, 58
1, 134958, Control_c, 0, 64, 59
1, 134961, Note_off_c, 0, 71, 61
1, 134973, Control_c, 0, 64, 62
1, 134983, Note_on_c, 0, 67, 61
1, 134988, Control_c, 0, 64, 64
1, 135003, Control_c, 0, 64, 66
1, 135017, Control_c, 0, 64, 71
1, 135018, Note_off_c, 0, 67, 64
1, 135032, Note_on_c, 0, 71, 64
1, 135032, Control_c, 0, 64, 79
1, 135047, Control_c, 0, 64, 94
1, 135058, Note_off_c, 0, 71, 69
1, 135061, Control_c, 0, 64, 115
1, 135069, Poly_aftertouch_c, 0, 72, 127
1, 135076, Control_c, 0, 64, 127
1, 135092, Note_on_c, 0, 67, 58
1, 135102, Poly_aftertouch_c, 0, 74, 127
1, 135126, Note_off_c, 0, 67, 63
1, 135139, Note_on_c, 0, 71, 70
1, 135140, Poly_aftertouch_c, 0, 72, 0
1, 135170, Note_off_c, 0, 71, 63
1, 135177, Poly_aftertouch_c, 0, 72, 127
1, 135201, Note_on_c, 0, 67, 72
1, 135212, Control_c, 0, 64, 97
1, 135227, Control_c, 0, 64, 78
1, 135241, Control_c, 0, 64, 65
1, 135243, Note_on_c, 0, 43, 75
1, 135245, Note_off_c, 0, 67, 59
1, 135256, Control_c, 0, 64, 46
1, 135266, Note_off_c, 0, 40, 47
1, 135269, Note_on_c, 0, 71, 66
1, 135271, Control_c, 0, 64, 0
1, 135293, Note_off_c, 0, 71, 68
1, 135315, Poly_aftertouch_c, 0, 72, 0
1, 135317, Poly_aftertouch_c, 0, 74, 0
1, 135333, Note_on_c, 0, 67, 66
1, 135363, Note_off_c, 0, 67, 64
1, 135374, Control_c, 0, 64, 42
1, 135385, Note_on_c, 0, 71, 68
1, 135389, Control_c, 0, 64, 62
1, 135404, Control_c, 0, 64, 69
1, 135419, Note_off_c, 0, 71, 62
1, 135419, Control_c, 0, 64, 79
1, 135433, Control_c, 0, 64, 95
1, 135441, Note_on_c, 0, 67, 68
1, 135448, Control_c, 0, 64, 127
1, 135474, Note_off_c, 0, 67, 62
1, 135519, Note_on_c, 0, 71, 75
1, 135543, Note_on_c, 0, 47, 76
1, 135543, Note_off_c, 0, 71, 70
1, 135555, Note_off_c, 0, 43, 62
1, 135577, Note_on_c, 0, 67, 75
1, 135604, Control_c, 0, 64, 111
1, 135614, Note_off_c, 0, 67, 62
1, 135618, Control_c, 0, 64, 78
1, 135632, Note_on_c, 0, 71, 80
1, 135633, Control_c, 0, 64, 59
1, 135635, Note_on_c, 0, 52, 82
1, 135642, Note_off_c, 0, 47, 61
1, 135648, Control_c, 0, 64, 0
1, 135674, Note_off_c, 0, 71, 61
1, 135711, Note_on_c, 0, 67, 71
1, 135737, Control_c, 0, 64, 38
1, 135743, Note_off_c, 0, 67, 63
1, 135752, Control_c, 0, 64, 59
1, 135767, Control_c, 0, 64, 68
1, 135769, Note_on_c, 0, 71, 79
1, 135781, Control_c, 0, 64, 79
1, 135791, Note_off_c, 0, 71, 67
1, 135796, Control_c, 0, 64, 105
1, 135811, Control_c, 0, 64, 127
1, 135821, Note_off_c, 0, 52, 58
1, 135840, Note_on_c, 0, 67, 69
1, 135872, Note_off_c, 0, 67, 65
1, 135894, Note_on_c, 0, 71, 78
1, 135925, Note_off_c, 0, 71, 66
1, 135950, Note_on_c, 0, 67, 77
1, 136008, Note_off_c, 0, 67, 61
1, 136017, Note_on_c, 0, 55, 89
1, 136017, Note_on_c, 0, 71, 82
1, 136020, Control_c, 0, 64, 89
1, 136035, Control_c, 0, 64, 66
1, 136050, Control_c, 0, 64, 0
1, 136051, Note_off_c, 0, 71, 60
1, 136089, Note_on_c, 0, 67, 68
1, 136121, Note_off_c, 0, 67, 62
1, 136148, Note_on_c, 0, 71, 78
1, 136153, Control_c, 0, 64, 16
1, 136168, Control_c, 0, 64, 49
1, 136174, Note_off_c, 0, 71, 66
1, 136182, Control_c, 0, 64, 60
1, 136197, Control_c, 0, 64, 66
1, 136212, Control_c, 0, 64, 72
1, 136214, Note_on_c, 0, 67, 71
1, 136227, Control_c, 0, 64, 86
1, 136249, Control_c, 0, 64, 111
1, 136252, Note_off_c, 0, 67, 62
1, 136264, Control_c, 0, 64, 127
1, 136276, Note_on_c, 0, 71, 82
1, 136312, Note_off_c, 0, 71, 59
1, 136313, Note_on_c, 0, 59, 82
1, 136322, Note_off_c, 0, 55, 61
1, 136345, Note_on_c, 0, 67, 78
1, 136353, Control_c, 0, 64, 92
1, 136368, Control_c, 0, 64, 68
1, 136376, Note_off_c, 0, 67, 59
1, 136383, Control_c, 0, 64, 31
1, 136397, Control_c, 0, 64, 0
1, 136398, Note_off_c, 0, 59, 63
1, 136404, Note_on_c, 0, 64, 92
1, 136407, Note_on_c, 0, 71, 80
1, 136443, Note_off_c, 0, 71, 63
1, 136474, Note_on_c, 0, 67, 77
1, 136514, Note_off_c, 0, 67, 62
1, 136530, Control_c, 0, 64, 37
1, 136543, Note_on_c, 0, 71, 78
1, 136545, Control_c, 0, 64, 55
1, 136560, Control_c, 0, 64, 62
1, 136569, Note_off_c, 0, 71, 63
1, 136575, Control_c, 0, 64, 67
1, 136589, Control_c, 0, 64, 74
1, 136591, Note_off_c, 0, 64, 59
1, 136604, Control_c, 0, 64, 89
1, 136607, Note_on_c, 0, 67, 73
1, 136619, Control_c, 0, 64, 127
1, 136634, Note_off_c, 0, 67, 65
1, 136664, Note_on_c, 0, 71, 81
1, 136694, Note_off_c, 0, 71, 63
1, 136725, Note_on_c, 0, 67, 78
1, 136760, Note_off_c, 0, 67, 56
1, 136789, Note_on_c, 0, 71, 79
1, 136795, Note_on_c, 0, 64, 89
1, 136822, Note_off_c, 0, 71, 54
1, 136835, Note_off_c, 0, 64, 67
1, 136847, Note_on_c, 0, 67, 82
1, 136889, Note_off_c, 0, 67, 60
1, 136911, Note_on_c, 0, 71, 81
1, 136943, Note_off_c, 0, 71, 56
1, 136975, Note_on_c, 0, 67, 75
1, 137018, Note_off_c, 0, 67, 65
1, 137027, Note_on_c, 0, 71, 88
1, 137067, Note_off_c, 0, 71, 62
1, 137088, Note_on_c, 0, 67, 86
1, 137117, Control_c, 0, 64, 118
1, 137130, Note_off_c, 0, 67, 64
1, 137132, Control_c, 0, 64, 77
1, 137146, Control_c, 0, 64, 56
1, 137161, Note_on_c, 0, 65, 97
1, 137161, Control_c, 0, 64, 0
1, 137255, Note_on_c, 0, 67, 72
1, 137264, Control_c, 0, 64, 47
1, 137277, Note_off_c, 0, 65, 59
1, 137279, Control_c, 0, 64, 62
1, 137294, Control_c, 0, 64, 69
1, 137309, Control_c, 0, 64, 80
1, 137324, Control_c, 0, 64, 98
1, 137325, Note_off_c, 0, 67, 63
1, 137335, Note_on_c, 0, 71, 74
1, 137338, Control_c, 0, 64, 127
1, 137394, Note_off_c, 0, 71, 63
1, 137403, Note_on_c, 0, 67, 68
1, 137472, Note_on_c, 0, 65, 72
1, 137488, Note_off_c, 0, 67, 57
1, 137501, Control_c, 0, 64, 91
1, 137516, Control_c, 0, 64, 69
1, 137524, Note_on_c, 0, 62, 77
1, 137527, Note_off_c, 0, 65, 63
1, 137531, Control_c, 0, 64, 26
1, 137546, Control_c, 0, 64, 0
1, 137612, Note_on_c, 0, 65, 73
1, 137621, Control_c, 0, 64, 25
1, 137624, Note_off_c, 0, 62, 63
1, 137636, Control_c, 0, 64, 52
1, 137650, Control_c, 0, 64, 62
1, 137665, Control_c, 0, 64, 67
1, 137674, Note_off_c, 0, 65, 62
1, 137680, Control_c, 0, 64, 72
1, 137688, Note_on_c, 0, 67, 68
1, 137695, Control_c, 0, 64, 78
1, 137710, Control_c, 0, 64, 84
1, 137725, Control_c, 0, 64, 92
1, 137747, Control_c, 0, 64, 99
1, 137759, Note_off_c, 0, 67, 62
1, 137761, Control_c, 0, 64, 110
1, 137771, Note_on_c, 0, 65, 64
1, 137776, Control_c, 0, 64, 127
1, 137835, Note_off_c, 0, 65, 62
1, 137836, Note_on_c, 0, 62, 64
1, 137895, Control_c, 0, 64, 113
1, 137899, Note_on_c, 0, 59, 79
1, 137902, Note_off_c, 0, 62, 63
1, 137910, Control_c, 0, 64, 73
1, 137925, Control_c, 0, 64, 47
1, 137940, Control_c, 0, 64, 0
1, 137981, Note_on_c, 0, 62, 63
1, 137984, Control_c, 0, 64, 13
1, 137999, Control_c, 0, 64, 56
1, 138009, Note_off_c, 0, 59, 62
1, 138014, Control_c, 0, 64, 66
1, 138029, Control_c, 0, 64, 77
1, 138039, Note_off_c, 0, 62, 63
1, 138043, Control_c, 0, 64, 98
1, 138055, Note_on_c, 0, 65, 66
1, 138058, Control_c, 0, 64, 127
1, 138119, Note_off_c, 0, 65, 61
1, 138121, Note_on_c, 0, 62, 59
1, 138199, Note_on_c, 0, 59, 62
1, 138202, Note_off_c, 0, 62, 63
1, 138250, Control_c, 0, 64, 88
1, 138265, Control_c, 0, 64, 63
1, 138265, Note_off_c, 0, 59, 64
1, 138268, Note_on_c, 0, 55, 71
1, 138272, Note_on_c, 0, 71, 84
1, 138279, Control_c, 0, 64, 0
1, 138355, Note_on_c, 0, 59, 60
1, 138368, Control_c, 0, 64, 52
1, 138384, Control_c, 0, 64, 63
1, 138399, Control_c, 0, 64, 69
1, 138410, Note_off_c, 0, 59, 62
1, 138414, Control_c, 0, 64, 77
1, 138415, Note_off_c, 0, 55, 54
1, 138428, Control_c, 0, 64, 91
1, 138434, Note_on_c, 0, 62, 67
1, 138443, Control_c, 0, 64, 127
1, 138508, Note_off_c, 0, 62, 62
1, 138514, Note_on_c, 0, 59, 69
1, 138568, Note_off_c, 0, 71, 60
1, 138580, Note_on_c, 0, 55, 66
1, 138587, Note_off_c, 0, 59, 61
1, 138589, Note_on_c, 0, 74, 81
1, 138628, Control_c, 0, 64, 115
1, 138643, Control_c, 0, 64, 76
1, 138656, Note_on_c, 0, 53, 70
1, 138658, Control_c, 0, 64, 39
1, 138663, Note_off_c, 0, 74, 57
1, 138668, Note_off_c, 0, 55, 57
1, 138670, Note_on_c, 0, 79, 96
1, 138673, Control_c, 0, 64, 0
1, 138730, Note_on_c, 0, 55, 57
1, 138777, Control_c, 0, 64, 42
1, 138791, Control_c, 0, 64, 58
1, 138806, Control_c, 0, 64, 65
1, 138814, Note_off_c, 0, 55, 64
1, 138820, Note_on_c, 0, 59, 74
1, 138821, Control_c, 0, 64, 73
1, 138831, Note_off_c, 0, 53, 59
1, 138836, Control_c, 0, 64, 92
1, 138851, Control_c, 0, 64, 127
1, 138899, Note_off_c, 0, 59, 63
1, 138908, Note_on_c, 0, 55, 70
1, 138971, Note_on_c, 0, 53, 67
1, 138995, Note_off_c, 0, 55, 60
1, 139053, Note_off_c, 0, 53, 62
1, 139054, Note_on_c, 0, 50, 77
1, 139058, Control_c, 0, 64, 97
1, 139060, Note_on_c, 0, 83, 101
1, 139073, Control_c, 0, 64, 67
1, 139088, Control_c, 0, 64, 0
1, 139140, Note_on_c, 0, 53, 68
1, 139159, Note_off_c, 0, 79, 43
1, 139162, Control_c, 0, 64, 50
1, 139165, Note_off_c, 0, 50, 63
1, 139178, Control_c, 0, 64, 65
1, 139193, Control_c, 0, 64, 76
1, 139205, Note_off_c, 0, 83, 58
1, 139207, Control_c, 0, 64, 127
1, 139209, Note_off_c, 0, 53, 64
1, 139210, Note_on_c, 0, 55, 74
1, 139295, Note_on_c, 0, 53, 74
1, 139296, Note_off_c, 0, 55, 63
1, 139350, Note_on_c, 0, 86, 93
1, 139371, Note_on_c, 0, 50, 63
1, 139379, Note_off_c, 0, 53, 61
1, 139392, Note_off_c, 0, 86, 68
1, 139434, Note_on_c, 0, 47, 75
1, 139437, Note_off_c, 0, 50, 63
1, 139437, Control_c, 0, 64, 99
1, 139452, Control_c, 0, 64, 66
1, 139454, Note_on_c, 0, 91, 103
1, 139456, Note_on_c, 0, 79, 100
1, 139466, Control_c, 0, 64, 0
1, 139519, Note_on_c, 0, 50, 68
1, 139526, Control_c, 0, 64, 47
1, 139540, Control_c, 0, 64, 65
1, 139555, Control_c, 0, 64, 80
1, 139563, Note_off_c, 0, 47, 62
1, 139570, Control_c, 0, 64, 127
1, 139587, Note_on_c, 0, 53, 82
1, 139589, Note_off_c, 0, 50, 64
1, 139642, Note_on_c, 0, 50, 69
1, 139657, Note_off_c, 0, 53, 61
1, 139703, Note_on_c, 0, 47, 65
1, 139716, Note_off_c, 0, 91, 53
1, 139734, Note_off_c, 0, 79, 55
1, 139737, Note_off_c, 0, 50, 62
1, 139737, Note_on_c, 0, 43, 83
1, 139758, Note_off_c, 0, 47, 62
1, 139810, Note_off_c, 0, 43, 62
1, 139850, Note_on_c, 0, 41, 86
1, 139852, Control_c, 0, 64, 77
1, 139857, Note_on_c, 0, 91, 102
1, 139859, Note_on_c, 0, 79, 97
1, 139866, Control_c, 0, 64, 0
1, 139924, Note_on_c, 0, 43, 79
1, 139949, Note_off_c, 0, 41, 64
1, 139970, Control_c, 0, 64, 22
1, 139993, Control_c, 0, 64, 57
1, 140008, Control_c, 0, 64, 68
1, 140012, Note_on_c, 0, 47, 80
1, 140015, Note_off_c, 0, 43, 64
1, 140023, Control_c, 0, 64, 88
1, 140038, Control_c, 0, 64, 127
1, 140071, Note_on_c, 0, 43, 72
1, 140095, Note_off_c, 0, 47, 61
1, 140098, Note_off_c, 0, 91, 58
1, 140105, Note_on_c, 0, 41, 74
1, 140155, Note_off_c, 0, 43, 62
1, 140170, Note_off_c, 0, 79, 50
1, 140180, Note_on_c, 0, 38, 84
1, 140196, Note_off_c, 0, 41, 64
1, 140204, Note_on_c, 0, 40, 37
1, 140244, Note_off_c, 0, 40, 54
1, 140248, Note_off_c, 0, 38, 62
1, 140304, Control_c, 0, 64, 94
1, 140312, Note_on_c, 0, 91, 102
1, 140314, Note_on_c, 0, 79, 97
1, 140319, Control_c, 0, 64, 61
1, 140329, Note_on_c, 0, 36, 95
1, 140334, Control_c, 0, 64, 0
1, 140466, Note_on_c, 0, 87, 88
1, 140483, Note_off_c, 0, 91, 65
1, 140551, Note_off_c, 0, 87, 64
1, 140553, Note_off_c, 0, 79, 55
1, 140557, Note_on_c, 0, 91, 85
1, 140602, Note_on_c, 0, 87, 71
1, 140646, Note_off_c, 0, 91, 63
1, 140661, Note_on_c, 0, 84, 86
1, 140674, Control_c, 0, 64, 44
1, 140689, Control_c, 0, 64, 62
1, 140691, Note_off_c, 0, 87, 64
1, 140704, Control_c, 0, 64, 73
1, 140717, Note_off_c, 0, 84, 65
1, 140719, Control_c, 0, 64, 91
1, 140742, Control_c, 0, 64, 127
1, 140745, Note_on_c, 0, 79, 76
1, 140821, Note_off_c, 0, 79, 64
1, 140837, Note_on_c, 0, 84, 61
1, 140875, Note_off_c, 0, 84, 62
1, 140906, Note_on_c, 0, 87, 76
1, 140974, Note_on_c, 0, 84, 79
1, 140998, Note_off_c, 0, 87, 61
1, 141025, Note_on_c, 0, 79, 80
1, 141026, Note_off_c, 0, 84, 64
1, 141096, Note_on_c, 0, 75, 81
1, 141106, Note_off_c, 0, 79, 49
1, 141144, Note_off_c, 0, 75, 63
1, 141182, Note_on_c, 0, 79, 67
1, 141247, Note_off_c, 0, 79, 64
1, 141255, Note_on_c, 0, 84, 79
1, 141320, Note_on_c, 0, 79, 65
1, 141320, Note_off_c, 0, 84, 59
1, 141379, Note_off_c, 0, 79, 65
1, 141382, Note_on_c, 0, 75, 74
1, 141438, Note_off_c, 0, 75, 58
1, 141439, Control_c, 0, 64, 95
1, 141453, Control_c, 0, 64, 65
1, 141457, Note_on_c, 0, 39, 80
1, 141457, Note_on_c, 0, 72, 70
1, 141468, Control_c, 0, 64, 0
1, 141506, Note_off_c, 0, 36, 60
1, 141552, Note_on_c, 0, 75, 68
1, 141564, Control_c, 0, 64, 28
1, 141580, Control_c, 0, 64, 51
1, 141593, Note_off_c, 0, 72, 57
1, 141595, Control_c, 0, 64, 61
1, 141609, Control_c, 0, 64, 65
1, 141622, Note_off_c, 0, 75, 63
1, 141624, Control_c, 0, 64, 68
1, 141626, Note_on_c, 0, 79, 72
1, 141639, Control_c, 0, 64, 73
1, 141654, Control_c, 0, 64, 79
1, 141669, Control_c, 0, 64, 87
1, 141684, Control_c, 0, 64, 101
1, 141696, Note_on_c, 0, 75, 75
1, 141699, Control_c, 0, 64, 127
1, 141731, Note_off_c, 0, 79, 61
1, 141746, Note_on_c, 0, 43, 78
1, 141754, Note_on_c, 0, 72, 74
1, 141761, Note_off_c, 0, 39, 61
1, 141773, Note_off_c, 0, 75, 64
1, 141803, Control_c, 0, 64, 109
1, 141808, Note_off_c, 0, 72, 64
1, 141817, Control_c, 0, 64, 73
1, 141829, Note_on_c, 0, 48, 88
1, 141832, Control_c, 0, 64, 52
1, 141833, Note_on_c, 0, 67, 76
1, 141847, Control_c, 0, 64, 0
1, 141854, Note_off_c, 0, 43, 57
1, 141934, Note_on_c, 0, 72, 66
1, 141935, Control_c, 0, 64, 30
1, 141950, Control_c, 0, 64, 57
1, 141965, Control_c, 0, 64, 67
1, 141980, Control_c, 0, 64, 78
1, 141995, Control_c, 0, 64, 112
1, 142003, Note_off_c, 0, 72, 64
1, 142006, Note_on_c, 0, 75, 74
1, 142009, Control_c, 0, 64, 127
1, 142035, Note_off_c, 0, 67, 32
1, 142040, Note_off_c, 0, 48, 60
1, 142070, Note_on_c, 0, 72, 66
1, 142096, Note_off_c, 0, 75, 60
1, 142136, Note_off_c, 0, 72, 65
1, 142142, Note_on_c, 0, 67, 79
1, 142158, Control_c, 0, 64, 112
1, 142172, Control_c, 0, 64, 74
1, 142187, Control_c, 0, 64, 39
1, 142193, Note_on_c, 0, 51, 91
1, 142202, Control_c, 0, 64, 0
1, 142202, Note_off_c, 0, 67, 57
1, 142205, Note_on_c, 0, 63, 83
1, 142304, Note_on_c, 0, 67, 69
1, 142351, Note_off_c, 0, 63, 62
1, 142357, Control_c, 0, 64, 25
1, 142369, Note_off_c, 0, 67, 64
1, 142372, Control_c, 0, 64, 46
1, 142373, Note_on_c, 0, 72, 78
1, 142388, Control_c, 0, 64, 60
1, 142403, Control_c, 0, 64, 66
1, 142418, Control_c, 0, 64, 73
1, 142432, Control_c, 0, 64, 87
1, 142441, Note_on_c, 0, 67, 74
1, 142447, Control_c, 0, 64, 127
1, 142473, Note_off_c, 0, 72, 61
1, 142474, Poly_aftertouch_c, 0, 69, 127
1, 142482, Note_on_c, 0, 55, 76
1, 142491, Note_off_c, 0, 51, 63
1, 142502, Note_on_c, 0, 63, 89
1, 142508, Note_off_c, 0, 67, 64
1, 142512, Poly_aftertouch_c, 0, 69, 0
1, 142532, Note_off_c, 0, 63, 65
1, 142536, Control_c, 0, 64, 86
1, 142551, Control_c, 0, 64, 63
1, 142553, Note_off_c, 0, 55, 64
1, 142566, Control_c, 0, 64, 0
1, 142568, Poly_aftertouch_c, 0, 63, 0
1, 142573, Note_on_c, 0, 63, 82
1, 142584, Note_on_c, 0, 60, 87
1, 142661, Note_on_c, 0, 67, 73
1, 142713, Control_c, 0, 64, 33
1, 142721, Note_off_c, 0, 63, 60
1, 142728, Control_c, 0, 64, 52
1, 142739, Note_on_c, 0, 72, 80
1, 142741, Note_off_c, 0, 67, 64
1, 142743, Control_c, 0, 64, 61
1, 142757, Control_c, 0, 64, 66
1, 142766, Note_off_c, 0, 60, 51
1, 142772, Control_c, 0, 64, 71
1, 142787, Control_c, 0, 64, 80
1, 142802, Control_c, 0, 64, 97
1, 142806, Note_on_c, 0, 67, 74
1, 142817, Control_c, 0, 64, 127
1, 142819, Note_off_c, 0, 72, 57
1, 142871, Note_on_c, 0, 63, 86
1, 142875, Note_off_c, 0, 67, 63
1, 142909, Note_off_c, 0, 63, 65
1, 142949, Note_on_c, 0, 63, 75
1, 142951, Note_on_c, 0, 60, 92
1, 142997, Note_off_c, 0, 60, 67
1, 143020, Note_off_c, 0, 63, 61
1, 143045, Note_on_c, 0, 67, 77
1, 143114, Note_off_c, 0, 67, 63
1, 143123, Note_on_c, 0, 72, 70
1, 143195, Note_on_c, 0, 67, 81
1, 143205, Note_off_c, 0, 72, 60
1, 143256, Note_on_c, 0, 63, 91
1, 143284, Control_c, 0, 64, 86
1, 143289, Note_off_c, 0, 67, 63
1, 143299, Control_c, 0, 64, 62
1, 143314, Control_c, 0, 64, 0
1, 143316, Note_on_c, 0, 61, 88
1, 143317, Note_off_c, 0, 63, 66
1, 143418, Control_c, 0, 64, 44
1, 143433, Control_c, 0, 64, 60
1, 143437, Note_on_c, 0, 63, 69
1, 143448, Control_c, 0, 64, 67
1, 143456, Note_off_c, 0, 61, 54
1, 143462, Control_c, 0, 64, 74
1, 143477, Control_c, 0, 64, 84
1, 143492, Control_c, 0, 64, 101
1, 143506, Control_c, 0, 64, 127
1, 143508, Note_off_c, 0, 63, 63
1, 143517, Note_on_c, 0, 67, 68
1, 143579, Note_off_c, 0, 67, 61
1, 143583, Note_on_c, 0, 63, 69
1, 143595, Control_c, 0, 64, 110
1, 143610, Control_c, 0, 64, 80
1, 143625, Control_c, 0, 64, 60
1, 143633, Note_on_c, 0, 61, 65
1, 143640, Control_c, 0, 64, 0
1, 143651, Note_off_c, 0, 63, 61
1, 143691, Note_on_c, 0, 58, 80
1, 143700, Note_off_c, 0, 61, 61
1, 143751, Control_c, 0, 64, 51
1, 143766, Control_c, 0, 64, 64
1, 143780, Control_c, 0, 64, 76
1, 143787, Note_on_c, 0, 61, 65
1, 143794, Note_off_c, 0, 58, 63
1, 143795, Control_c, 0, 64, 95
1, 143810, Control_c, 0, 64, 127
1, 143848, Note_off_c, 0, 61, 61
1, 143857, Note_on_c, 0, 63, 69
1, 143908, Note_off_c, 0, 63, 59
1, 143926, Note_on_c, 0, 61, 66
1, 143943, Control_c, 0, 64, 90
1, 143958, Control_c, 0, 64, 65
1, 143974, Control_c, 0, 64, 17
1, 143989, Control_c, 0, 64, 0
1, 143990, Note_on_c, 0, 58, 67
1, 143996, Note_off_c, 0, 61, 62
1, 144065, Note_on_c, 0, 55, 75
1, 144080, Note_off_c, 0, 58, 63
1, 144092, Control_c, 0, 64, 38
1, 144107, Control_c, 0, 64, 57
1, 144122, Control_c, 0, 64, 64
1, 144137, Control_c, 0, 64, 70
1, 144140, Note_on_c, 0, 58, 64
1, 144152, Control_c, 0, 64, 79
1, 144161, Note_off_c, 0, 55, 61
1, 144167, Control_c, 0, 64, 92
1, 144182, Control_c, 0, 64, 127
1, 144211, Note_off_c, 0, 58, 63
1, 144221, Note_on_c, 0, 61, 67
1, 144285, Note_off_c, 0, 61, 61
1, 144287, Note_on_c, 0, 58, 64
1, 144300, Control_c, 0, 64, 95
1, 144315, Control_c, 0, 64, 68
1, 144329, Control_c, 0, 64, 15
1, 144344, Control_c, 0, 64, 0
1, 144370, Note_on_c, 0, 55, 60
1, 144381, Note_off_c, 0, 58, 60
1, 144414, Note_off_c, 0, 55, 62
1, 144414, Note_on_c, 0, 51, 75
1, 144429, Note_on_c, 0, 67, 86
1, 144515, Control_c, 0, 64, 39
1, 144529, Control_c, 0, 64, 57
1, 144533, Note_on_c, 0, 55, 65
1, 144544, Control_c, 0, 64, 64
1, 144548, Note_off_c, 0, 51, 64
1, 144559, Control_c, 0, 64, 69
1, 144574, Control_c, 0, 64, 77
1, 144589, Control_c, 0, 64, 91
1, 144598, Note_on_c, 0, 58, 63
1, 144598, Note_off_c, 0, 55, 63
1, 144603, Control_c, 0, 64, 127
1, 144658, Note_off_c, 0, 58, 62
1, 144665, Note_on_c, 0, 55, 62
1, 144692, Control_c, 0, 64, 106
1, 144707, Control_c, 0, 64, 68
1, 144721, Control_c, 0, 64, 0
1, 144730, Note_off_c, 0, 55, 64
1, 144731, Note_on_c, 0, 70, 81
1, 144732, Note_on_c, 0, 51, 72
1, 144733, Note_off_c, 0, 67, 59
1, 144793, Note_on_c, 0, 49, 67
1, 144799, Note_off_c, 0, 51, 64
1, 144814, Note_on_c, 0, 75, 95
1, 144820, Note_off_c, 0, 70, 64
1, 144870, Control_c, 0, 64, 40
1, 144885, Control_c, 0, 64, 54
1, 144900, Control_c, 0, 64, 62
1, 144900, Note_off_c, 0, 49, 62
1, 144912, Note_on_c, 0, 51, 58
1, 144915, Control_c, 0, 64, 66
1, 144930, Control_c, 0, 64, 72
1, 144943, Note_off_c, 0, 51, 65
1, 144944, Control_c, 0, 64, 81
1, 144945, Note_on_c, 0, 55, 65
1, 144959, Control_c, 0, 64, 97
1, 144974, Control_c, 0, 64, 127
1, 145016, Note_off_c, 0, 55, 62
1, 145016, Note_on_c, 0, 51, 76
1, 145085, Note_on_c, 0, 49, 73
1, 145094, Note_off_c, 0, 51, 62
1, 145107, Control_c, 0, 64, 107
1, 145122, Control_c, 0, 64, 73
1, 145137, Control_c, 0, 64, 46
1, 145151, Control_c, 0, 64, 0
1, 145156, Note_on_c, 0, 46, 75
1, 145156, Note_off_c, 0, 49, 63
1, 145182, Note_on_c, 0, 79, 93
1, 145229, Note_off_c, 0, 75, 58
1, 145252, Note_on_c, 0, 49, 64
1, 145261, Note_off_c, 0, 46, 63
1, 145277, Control_c, 0, 64, 59
1, 145292, Control_c, 0, 64, 67
1, 145307, Control_c, 0, 64, 76
1, 145316, Note_on_c, 0, 51, 77
1, 145318, Note_off_c, 0, 49, 63
1, 145322, Control_c, 0, 64, 93
1, 145333, Note_off_c, 0, 79, 60
1, 145337, Control_c, 0, 64, 127
1, 145381, Note_off_c, 0, 51, 63
1, 145383, Note_on_c, 0, 49, 69
1, 145448, Note_on_c, 0, 46, 68
1, 145454, Note_on_c, 0, 82, 86
1, 145469, Note_off_c, 0, 49, 62
1, 145498, Note_off_c, 0, 82, 65
1, 145514, Control_c, 0, 64, 72
1, 145529, Control_c, 0, 64, 0
1, 145535, Note_on_c, 0, 43, 67
1, 145545, Note_off_c, 0, 46, 62
1, 145550, Note_on_c, 0, 75, 100
1, 145551, Note_on_c, 0, 87, 106
1, 145624, Note_on_c, 0, 46, 75
1, 145629, Note_off_c, 0, 43, 64
1, 145634, Control_c, 0, 64, 50
1, 145648, Control_c, 0, 64, 64
1, 145663, Control_c, 0, 64, 73
1, 145678, Control_c, 0, 64, 99
1, 145693, Control_c, 0, 64, 127
1, 145696, Note_on_c, 0, 49, 75
1, 145707, Note_off_c, 0, 46, 61
1, 145741, Note_on_c, 0, 46, 51
1, 145761, Note_off_c, 0, 49, 63
1, 145794, Note_on_c, 0, 43, 69
1, 145835, Note_on_c, 0, 39, 80
1, 145840, Note_off_c, 0, 46, 63
1, 145854, Note_off_c, 0, 43, 62
1, 145882, Note_off_c, 0, 87, 59
1, 145884, Note_off_c, 0, 39, 63
1, 145887, Note_off_c, 0, 75, 59
1, 145945, Control_c, 0, 64, 89
1, 145952, Note_on_c, 0, 75, 115
1, 145952, Note_on_c, 0, 87, 103
1, 145960, Control_c, 0, 64, 56
1, 145961, Note_on_c, 0, 37, 80
1, 145982, Control_c, 0, 64, 0
1, 146027, Control_c, 0, 64, 40
1, 146042, Control_c, 0, 64, 66
1, 146056, Control_c, 0, 64, 97
1, 146071, Control_c, 0, 64, 127
1, 146072, Note_on_c, 0, 39, 75
1, 146080, Note_off_c, 0, 75, 60
1, 146098, Note_off_c, 0, 37, 60
1, 146124, Note_off_c, 0, 87, 61
1, 146128, Note_on_c, 0, 43, 72
1, 146139, Note_off_c, 0, 39, 62
1, 146216, Note_on_c, 0, 39, 69
1, 146224, Note_off_c, 0, 43, 62
1, 146261, Note_on_c, 0, 37, 69
1, 146294, Note_off_c, 0, 39, 62
1, 146328, Note_on_c, 0, 34, 78
1, 146346, Note_off_c, 0, 37, 61
1, 146376, Note_on_c, 0, 33, 43
1, 146391, Note_off_c, 0, 34, 62
1, 146414, Note_off_c, 0, 33, 49
1, 146471, Note_on_c, 0, 87, 106
1, 146472, Control_c, 0, 64, 110
1, 146483, Note_on_c, 0, 32, 95
1, 146487, Control_c, 0, 64, 66
1, 146502, Control_c, 0, 64, 0
1, 146621, Note_off_c, 0, 87, 65
1, 146623, Note_on_c, 0, 92, 82
1, 146702, Note_on_c, 0, 96, 79
1, 146705, Note_off_c, 0, 92, 66
1, 146781, Note_on_c, 0, 92, 74
1, 146790, Note_off_c, 0, 96, 58
1, 146832, Note_on_c, 0, 87, 80
1, 146848, Note_off_c, 0, 92, 65
1, 146885, Note_off_c, 0, 87, 62
1, 146924, Control_c, 0, 64, 36
1, 146928, Note_on_c, 0, 84, 58
1, 146939, Control_c, 0, 64, 61
1, 146954, Control_c, 0, 64, 68
1, 146969, Control_c, 0, 64, 78
1, 146981, Note_on_c, 0, 87, 72
1, 146984, Control_c, 0, 64, 94
1, 146986, Note_off_c, 0, 84, 63
1, 146998, Control_c, 0, 64, 127
1, 147036, Note_off_c, 0, 87, 59
1, 147049, Note_on_c, 0, 92, 75
1, 147101, Note_on_c, 0, 87, 71
1, 147132, Note_off_c, 0, 92, 63
1, 147168, Note_on_c, 0, 84, 79
1, 147177, Note_off_c, 0, 87, 64
1, 147222, Note_off_c, 0, 84, 65
1, 147243, Note_on_c, 0, 80, 84
1, 147318, Note_off_c, 0, 80, 62
1, 147327, Note_on_c, 0, 84, 72
1, 147380, Note_off_c, 0, 84, 63
1, 147389, Note_on_c, 0, 87, 73
1, 147481, Note_off_c, 0, 32, 50
1, 147482, Note_on_c, 0, 84, 75
1, 147494, Note_off_c, 0, 87, 62
1, 147539, Note_on_c, 0, 80, 75
1, 147541, Note_off_c, 0, 84, 63
1, 147584, Control_c, 0, 64, 103
1, 147599, Note_on_c, 0, 36, 84
1, 147599, Control_c, 0, 64, 69
1, 147604, Note_off_c, 0, 80, 59
1, 147614, Control_c, 0, 64, 36
1, 147616, Note_on_c, 0, 75, 73
1, 147628, Control_c, 0, 64, 0
1, 147703, Note_off_c, 0, 75, 61
1, 147706, Note_on_c, 0, 80, 63
1, 147732, Control_c, 0, 64, 40
1, 147747, Control_c, 0, 64, 56
1, 147762, Control_c, 0, 64, 63
1, 147773, Note_off_c, 0, 80, 63
1, 147777, Control_c, 0, 64, 66
1, 147780, Note_on_c, 0, 84, 72
1, 147791, Control_c, 0, 64, 68
1, 147806, Control_c, 0, 64, 72
1, 147821, Control_c, 0, 64, 77
1, 147836, Control_c, 0, 64, 85
1, 147851, Control_c, 0, 64, 99
1, 147852, Note_on_c, 0, 80, 69
1, 147856, Note_off_c, 0, 84, 55
1, 147866, Control_c, 0, 64, 127
1, 147893, Note_on_c, 0, 39, 74
1, 147899, Note_off_c, 0, 36, 62
1, 147900, Note_on_c, 0, 75, 76
1, 147913, Note_off_c, 0, 80, 61
1, 147925, Control_c, 0, 64, 88
1, 147939, Control_c, 0, 64, 67
1, 147947, Note_off_c, 0, 75, 59
1, 147954, Control_c, 0, 64, 32
1, 147970, Control_c, 0, 64, 0
1, 147976, Note_on_c, 0, 72, 72
1, 147979, Note_on_c, 0, 44, 83
1, 147992, Note_off_c, 0, 39, 62
1, 148053, Note_on_c, 0, 75, 72
1, 148069, Note_off_c, 0, 72, 57
1, 148074, Control_c, 0, 64, 22
1, 148089, Control_c, 0, 64, 53
1, 148104, Control_c, 0, 64, 64
1, 148115, Note_on_c, 0, 80, 80
1, 148115, Note_off_c, 0, 75, 62
1, 148118, Control_c, 0, 64, 74
1, 148129, Note_off_c, 0, 44, 61
1, 148133, Control_c, 0, 64, 94
1, 148148, Control_c, 0, 64, 127
1, 148182, Note_on_c, 0, 75, 75
1, 148196, Note_off_c, 0, 80, 64
1, 148251, Note_on_c, 0, 72, 78
1, 148268, Note_off_c, 0, 75, 64
1, 148313, Note_off_c, 0, 72, 64
1, 148337, Note_on_c, 0, 68, 83
1, 148346, Note_on_c, 0, 48, 86
1, 148348, Control_c, 0, 64, 111
1, 148363, Control_c, 0, 64, 80
1, 148377, Control_c, 0, 64, 62
1, 148392, Control_c, 0, 64, 0
1, 148429, Note_on_c, 0, 72, 64
1, 148457, Note_off_c, 0, 68, 48
1, 148496, Control_c, 0, 64, 46
1, 148504, Note_off_c, 0, 72, 65
1, 148506, Note_on_c, 0, 75, 74
1, 148511, Control_c, 0, 64, 62
1, 148525, Control_c, 0, 64, 73
1, 148540, Control_c, 0, 64, 92
1, 148555, Control_c, 0, 64, 127
1, 148586, Note_on_c, 0, 72, 73
1, 148602, Note_off_c, 0, 75, 62
1, 148626, Note_on_c, 0, 51, 84
1, 148642, Note_off_c, 0, 48, 63
1, 148643, Note_on_c, 0, 68, 81
1, 148658, Control_c, 0, 64, 111
1, 148660, Note_off_c, 0, 72, 63
1, 148673, Control_c, 0, 64, 76
1, 148687, Control_c, 0, 64, 56
1, 148701, Note_off_c, 0, 68, 62
1, 148702, Control_c, 0, 64, 0
1, 148709, Note_off_c, 0, 51, 64
1, 148717, Note_on_c, 0, 56, 89
1, 148720, Note_on_c, 0, 63, 80
1, 148787, Note_off_c, 0, 63, 64
1, 148810, Note_on_c, 0, 68, 72
1, 148837, Control_c, 0, 64, 40
1, 148852, Control_c, 0, 64, 57
1, 148866, Control_c, 0, 64, 64
1, 148880, Note_off_c, 0, 68, 61
1, 148881, Control_c, 0, 64, 70
1, 148884, Note_on_c, 0, 72, 74
1, 148896, Control_c, 0, 64, 79
1, 148911, Control_c, 0, 64, 92
1, 148926, Control_c, 0, 64, 113
1, 148940, Control_c, 0, 64, 127
1, 148945, Note_on_c, 0, 68, 72
1, 148948, Note_off_c, 0, 56, 57
1, 148986, Note_off_c, 0, 72, 64
1, 149020, Note_on_c, 0, 63, 81
1, 149055, Note_off_c, 0, 68, 58
1, 149067, Control_c, 0, 64, 95
1, 149081, Control_c, 0, 64, 69
1, 149082, Note_on_c, 0, 56, 86
1, 149092, Note_on_c, 0, 60, 83
1, 149096, Control_c, 0, 64, 44
1, 149102, Note_off_c, 0, 63, 63
1, 149111, Control_c, 0, 64, 0
1, 149180, Note_on_c, 0, 63, 85
1, 149185, Control_c, 0, 64, 18
1, 149193, Note_off_c, 0, 60, 57
1, 149199, Control_c, 0, 64, 53
1, 149214, Control_c, 0, 64, 65
1, 149229, Control_c, 0, 64, 74
1, 149244, Control_c, 0, 64, 93
1, 149259, Control_c, 0, 64, 127
1, 149264, Note_on_c, 0, 68, 84
1, 149270, Note_off_c, 0, 63, 63
1, 149333, Note_on_c, 0, 63, 75
1, 149377, Note_off_c, 0, 68, 56
1, 149403, Note_on_c, 0, 60, 83
1, 149422, Control_c, 0, 64, 102
1, 149437, Note_off_c, 0, 63, 63
1, 149437, Control_c, 0, 64, 75
1, 149452, Control_c, 0, 64, 50
1, 149466, Control_c, 0, 64, 0
1, 149494, Note_on_c, 0, 66, 94
1, 149494, Note_on_c, 0, 57, 72
1, 149498, Note_off_c, 0, 60, 64
1, 149519, Note_off_c, 0, 56, 57
1, 149614, Note_on_c, 0, 60, 72
1, 149628, Note_off_c, 0, 57, 62
1, 149660, Control_c, 0, 64, 37
1, 149675, Note_off_c, 0, 60, 63
1, 149675, Control_c, 0, 64, 55
1, 149689, Control_c, 0, 64, 63
1, 149691, Note_on_c, 0, 63, 69
1, 149704, Control_c, 0, 64, 67
1, 149726, Control_c, 0, 64, 71
1, 149741, Control_c, 0, 64, 76
1, 149744, Note_on_c, 0, 60, 62
1, 149747, Note_off_c, 0, 63, 59
1, 149756, Control_c, 0, 64, 80
1, 149771, Control_c, 0, 64, 83
1, 149786, Control_c, 0, 64, 85
1, 149810, Note_off_c, 0, 60, 64
1, 149816, Control_c, 0, 64, 84
1, 149822, Note_on_c, 0, 57, 62
1, 149830, Control_c, 0, 64, 80
1, 149845, Control_c, 0, 64, 73
1, 149860, Control_c, 0, 64, 62
1, 149860, Note_off_c, 0, 57, 66
1, 149866, Note_on_c, 0, 54, 72
1, 149875, Control_c, 0, 64, 29
1, 149889, Control_c, 0, 64, 0
1, 149948, Control_c, 0, 64, 40
1, 149954, Note_off_c, 0, 54, 64
1, 149962, Note_on_c, 0, 57, 68
1, 149963, Control_c, 0, 64, 56
1, 149978, Control_c, 0, 64, 63
1, 149993, Control_c, 0, 64, 66
1, 150008, Control_c, 0, 64, 70
1, 150015, Note_off_c, 0, 57, 62
1, 150022, Control_c, 0, 64, 73
1, 150032, Note_on_c, 0, 60, 66
1, 150037, Control_c, 0, 64, 77
1, 150052, Control_c, 0, 64, 81
1, 150068, Control_c, 0, 64, 84
1, 150080, Note_off_c, 0, 60, 61
1, 150083, Control_c, 0, 64, 86
1, 150088, Note_on_c, 0, 57, 61
1, 150097, Control_c, 0, 64, 85
1, 150112, Control_c, 0, 64, 84
1, 150127, Control_c, 0, 64, 83
1, 150141, Control_c, 0, 64, 82
1, 150149, Note_on_c, 0, 54, 73
1, 150151, Note_off_c, 0, 57, 64
1, 150156, Control_c, 0, 64, 81
1, 150171, Control_c, 0, 64, 77
1, 150186, Control_c, 0, 64, 67
1, 150201, Control_c, 0, 64, 31
1, 150211, Note_off_c, 0, 54, 63
1, 150212, Note_on_c, 0, 51, 79
1, 150215, Control_c, 0, 64, 0
1, 150289, Control_c, 0, 64, 12
1, 150295, Note_on_c, 0, 54, 73
1, 150301, Note_off_c, 0, 51, 64
1, 150304, Control_c, 0, 64, 47
1, 150319, Control_c, 0, 64, 60
1, 150334, Control_c, 0, 64, 64
1, 150349, Control_c, 0, 64, 67
1, 150354, Note_off_c, 0, 54, 63
1, 150364, Control_c, 0, 64, 70
1, 150368, Note_on_c, 0, 57, 66
1, 150379, Control_c, 0, 64, 72
1, 150394, Control_c, 0, 64, 74
1, 150409, Control_c, 0, 64, 75
1, 150422, Note_on_c, 0, 54, 65
1, 150424, Note_off_c, 0, 57, 62
1, 150453, Control_c, 0, 64, 74
1, 150491, Control_c, 0, 64, 73
1, 150506, Control_c, 0, 64, 72
1, 150520, Control_c, 0, 64, 69
1, 150535, Control_c, 0, 64, 60
1, 150542, Note_off_c, 0, 54, 62
1, 150544, Note_on_c, 0, 50, 40
1, 150550, Control_c, 0, 64, 0
1, 150555, Note_on_c, 0, 48, 69
1, 150558, Note_on_c, 0, 72, 92
1, 150576, Note_off_c, 0, 50, 33
1, 150592, Note_off_c, 0, 66, 60
1, 150647, Note_off_c, 0, 48, 56
1, 150653, Control_c, 0, 64, 34
1, 150668, Control_c, 0, 64, 57
1, 150683, Control_c, 0, 64, 64
1, 150684, Note_on_c, 0, 51, 61
1, 150698, Control_c, 0, 64, 69
1, 150713, Control_c, 0, 64, 74
1, 150722, Note_off_c, 0, 51, 67
1, 150728, Control_c, 0, 64, 79
1, 150743, Control_c, 0, 64, 84
1, 150749, Note_on_c, 0, 54, 70
1, 150757, Control_c, 0, 64, 88
1, 150772, Control_c, 0, 64, 91
1, 150787, Control_c, 0, 64, 92
1, 150813, Note_off_c, 0, 54, 64
1, 150824, Note_on_c, 0, 75, 84
1, 150835, Note_on_c, 0, 50, 54
1, 150838, Note_off_c, 0, 72, 61
1, 150855, Note_on_c, 0, 51, 26
1, 150861, Control_c, 0, 64, 91
1, 150876, Control_c, 0, 64, 89
1, 150881, Note_off_c, 0, 50, 64
1, 150883, Note_on_c, 0, 48, 63
1, 150891, Control_c, 0, 64, 85
1, 150893, Note_off_c, 0, 51, 56
1, 150906, Control_c, 0, 64, 73
1, 150913, Note_on_c, 0, 78, 97
1, 150920, Control_c, 0, 64, 54
1, 150930, Note_off_c, 0, 75, 62
1, 150931, Note_on_c, 0, 45, 73
1, 150935, Control_c, 0, 64, 0
1, 150944, Note_off_c, 0, 48, 63
1, 151009, Control_c, 0, 64, 42
1, 151020, Note_off_c, 0, 45, 63
1, 151024, Control_c, 0, 64, 59
1, 151038, Control_c, 0, 64, 67
1, 151053, Control_c, 0, 64, 72
1, 151055, Note_on_c, 0, 48, 58
1, 151068, Control_c, 0, 64, 81
1, 151083, Note_on_c, 0, 51, 70
1, 151083, Control_c, 0, 64, 92
1, 151098, Control_c, 0, 64, 107
1, 151112, Control_c, 0, 64, 127
1, 151142, Note_off_c, 0, 51, 63
1, 151223, Note_on_c, 0, 45, 62
1, 151225, Control_c, 0, 64, 117
1, 151232, Note_off_c, 0, 48, 61
1, 151240, Control_c, 0, 64, 86
1, 151255, Control_c, 0, 64, 64
1, 151255, Note_off_c, 0, 78, 58
1, 151269, Control_c, 0, 64, 0
1, 151283, Note_on_c, 0, 42, 77
1, 151288, Note_on_c, 0, 84, 105
1, 151288, Note_off_c, 0, 45, 64
1, 151369, Note_on_c, 0, 45, 66
1, 151384, Note_off_c, 0, 42, 63
1, 151387, Control_c, 0, 64, 47
1, 151402, Control_c, 0, 64, 59
1, 151417, Control_c, 0, 64, 64
1, 151432, Control_c, 0, 64, 67
1, 151440, Note_off_c, 0, 45, 63
1, 151445, Note_on_c, 0, 48, 68
1, 151446, Note_off_c, 0, 84, 54
1, 151447, Control_c, 0, 64, 71
1, 151461, Control_c, 0, 64, 78
1, 151476, Control_c, 0, 64, 92
1, 151491, Control_c, 0, 64, 127
1, 151509, Note_on_c, 0, 45, 63
1, 151512, Note_off_c, 0, 48, 62
1, 151562, Note_on_c, 0, 87, 86
1, 151565, Note_on_c, 0, 42, 77
1, 151577, Note_off_c, 0, 45, 63
1, 151609, Note_off_c, 0, 87, 63
1, 151625, Control_c, 0, 64, 79
1, 151640, Control_c, 0, 64, 48
1, 151652, Note_on_c, 0, 39, 74
1, 151652, Note_on_c, 0, 78, 106
1, 151652, Note_on_c, 0, 90, 107
1, 151655, Control_c, 0, 64, 0
1, 151663, Note_off_c, 0, 42, 60
1, 151717, Note_on_c, 0, 38, 24
1, 151720, Note_on_c, 0, 42, 70
1, 151748, Note_off_c, 0, 39, 63
1, 151758, Note_off_c, 0, 38, 51
1, 151773, Control_c, 0, 64, 46
1, 151787, Control_c, 0, 64, 61
1, 151798, Note_on_c, 0, 45, 73
1, 151802, Control_c, 0, 64, 67
1, 151805, Note_off_c, 0, 42, 64
1, 151817, Control_c, 0, 64, 75
1, 151832, Control_c, 0, 64, 92
1, 151847, Control_c, 0, 64, 127
1, 151863, Note_on_c, 0, 42, 65
1, 151872, Note_off_c, 0, 45, 61
1, 151873, Note_on_c, 0, 39, 67
1, 151937, Note_off_c, 0, 42, 63
1, 151944, Note_on_c, 0, 36, 75
1, 151976, Note_off_c, 0, 39, 61
1, 151989, Note_off_c, 0, 78, 58
1, 151993, Note_off_c, 0, 90, 55
1, 151995, Note_off_c, 0, 36, 60
1, 152063, Control_c, 0, 64, 109
1, 152066, Note_on_c, 0, 33, 84
1, 152066, Note_on_c, 0, 78, 115
1, 152067, Note_on_c, 0, 90, 106
1, 152078, Control_c, 0, 64, 70
1, 152092, Control_c, 0, 64, 0
1, 152144, Note_on_c, 0, 36, 65
1, 152210, Control_c, 0, 64, 17
1, 152215, Note_off_c, 0, 33, 61
1, 152225, Control_c, 0, 64, 49
1, 152227, Note_on_c, 0, 39, 76
1, 152240, Control_c, 0, 64, 60
1, 152254, Note_off_c, 0, 36, 63
1, 152255, Control_c, 0, 64, 68
1, 152270, Control_c, 0, 64, 80
1, 152284, Control_c, 0, 64, 127
1, 152294, Note_on_c, 0, 42, 76
1, 152310, Note_off_c, 0, 90, 58
1, 152314, Note_off_c, 0, 39, 61
1, 152347, Note_off_c, 0, 78, 54
1, 152361, Note_on_c, 0, 39, 65
1, 152379, Note_off_c, 0, 42, 63
1, 152421, Note_on_c, 0, 36, 57
1, 152451, Note_off_c, 0, 39, 62
1, 152502, Note_on_c, 0, 32, 80
1, 152518, Note_on_c, 0, 78, 113
1, 152518, Note_off_c, 0, 36, 62
1, 152519, Note_on_c, 0, 90, 108
1, 152522, Control_c, 0, 64, 72
1, 152536, Control_c, 0, 64, 41
1, 152551, Control_c, 0, 64, 0
1, 152618, Note_on_c, 0, 36, 71
1, 152684, Control_c, 0, 64, 9
1, 152699, Control_c, 0, 64, 51
1, 152714, Note_on_c, 0, 39, 71
1, 152722, Control_c, 0, 64, 62
1, 152736, Control_c, 0, 64, 71
1, 152751, Control_c, 0, 64, 94
1, 152752, Note_off_c, 0, 36, 59
1, 152767, Control_c, 0, 64, 127
1, 152821, Note_on_c, 0, 42, 78
1, 152844, Note_off_c, 0, 32, 60
1, 152886, Control_c, 0, 64, 109
1, 152889, Note_off_c, 0, 42, 63
1, 152901, Control_c, 0, 64, 72
1, 152912, Note_on_c, 0, 33, 82
1, 152915, Control_c, 0, 64, 50
1, 152928, Note_off_c, 0, 39, 56
1, 152930, Control_c, 0, 64, 0
1, 152964, Note_off_c, 0, 90, 30
1, 153002, Note_on_c, 0, 36, 69
1, 153062, Control_c, 0, 64, 29
1, 153065, Note_off_c, 0, 78, 62
1, 153069, Note_on_c, 0, 90, 90
1, 153077, Control_c, 0, 64, 50
1, 153092, Control_c, 0, 64, 60
1, 153103, Note_on_c, 0, 39, 68
1, 153106, Control_c, 0, 64, 65
1, 153110, Note_on_c, 0, 87, 84
1, 153121, Control_c, 0, 64, 70
1, 153123, Note_off_c, 0, 33, 62
1, 153136, Control_c, 0, 64, 81
1, 153151, Control_c, 0, 64, 111
1, 153165, Control_c, 0, 64, 127
1, 153175, Note_on_c, 0, 84, 77
1, 153201, Note_off_c, 0, 90, 63
1, 153202, Note_on_c, 0, 42, 70
1, 153220, Note_on_c, 0, 78, 89
1, 153223, Note_off_c, 0, 87, 63
1, 153250, Note_off_c, 0, 84, 66
1, 153254, Control_c, 0, 64, 107
1, 153269, Control_c, 0, 64, 69
1, 153276, Note_off_c, 0, 42, 63
1, 153282, Note_on_c, 0, 90, 112
1, 153284, Control_c, 0, 64, 26
1, 153285, Note_off_c, 0, 36, 48
1, 153288, Note_on_c, 0, 32, 83
1, 153299, Control_c, 0, 64, 0
1, 153304, Note_off_c, 0, 39, 38
1, 153385, Note_on_c, 0, 36, 61
1, 153417, Control_c, 0, 64, 17
1, 153431, Control_c, 0, 64, 50
1, 153446, Control_c, 0, 64, 62
1, 153469, Control_c, 0, 64, 70
1, 153484, Control_c, 0, 64, 83
1, 153499, Control_c, 0, 64, 127
1, 153502, Note_on_c, 0, 39, 64
1, 153565, Note_off_c, 0, 32, 59
1, 153567, Note_off_c, 0, 36, 52
1, 153577, Note_on_c, 0, 42, 56
1, 153593, Note_off_c, 0, 90, 60
1, 153622, Note_off_c, 0, 42, 62
1, 153633, Control_c, 0, 64, 113
1, 153640, Note_off_c, 0, 78, 63
1, 153647, Note_on_c, 0, 33, 85
1, 153648, Control_c, 0, 64, 69
1, 153662, Control_c, 0, 64, 9
1, 153667, Note_off_c, 0, 39, 59
1, 153677, Control_c, 0, 64, 0
1, 153736, Control_c, 0, 64, 41
1, 153747, Note_on_c, 0, 36, 69
1, 153751, Control_c, 0, 64, 60
1, 153766, Control_c, 0, 64, 68
1, 153768, Note_on_c, 0, 37, 25
1, 153781, Control_c, 0, 64, 81
1, 153795, Control_c, 0, 64, 127
1, 153826, Note_on_c, 0, 78, 85
1, 153847, Note_off_c, 0, 33, 60
1, 153849, Note_on_c, 0, 39, 71
1, 153877, Note_on_c, 0, 75, 85
1, 153915, Control_c, 0, 64, 105
1, 153925, Note_on_c, 0, 42, 63
1, 153928, Note_on_c, 0, 72, 86
1, 153930, Control_c, 0, 64, 71
1, 153931, Note_off_c, 0, 37, 20
1, 153944, Control_c, 0, 64, 49
1, 153953, Note_off_c, 0, 78, 63
1, 153959, Control_c, 0, 64, 0
1, 153966, Note_on_c, 0, 66, 84
1, 153972, Note_off_c, 0, 75, 63
1, 154004, Note_off_c, 0, 36, 29
1, 154025, Note_off_c, 0, 42, 63
1, 154028, Note_on_c, 0, 78, 101
1, 154032, Note_on_c, 0, 32, 86
1, 154037, Note_off_c, 0, 72, 39
1, 154059, Note_off_c, 0, 39, 48
1, 154108, Control_c, 0, 64, 47
1, 154123, Control_c, 0, 64, 60
1, 154137, Control_c, 0, 64, 67
1, 154141, Note_on_c, 0, 36, 68
1, 154152, Control_c, 0, 64, 78
1, 154167, Control_c, 0, 64, 113
1, 154181, Control_c, 0, 64, 127
1, 154216, Note_off_c, 0, 78, 61
1, 154231, Note_on_c, 0, 39, 62
1, 154248, Note_off_c, 0, 66, 60
1, 154322, Note_on_c, 0, 42, 69
1, 154326, Note_off_c, 0, 32, 56
1, 154352, Control_c, 0, 64, 100
1, 154367, Control_c, 0, 64, 75
1, 154382, Control_c, 0, 64, 59
1, 154384, Note_off_c, 0, 42, 63
1, 154396, Note_on_c, 0, 33, 81
1, 154397, Note_off_c, 0, 36, 34
1, 154397, Control_c, 0, 64, 0
1, 154411, Note_off_c, 0, 39, 61
1, 154509, Note_on_c, 0, 36, 64
1, 154535, Note_on_c, 0, 37, 29
1, 154541, Note_on_c, 0, 66, 71
1, 154546, Control_c, 0, 64, 45
1, 154560, Control_c, 0, 64, 59
1, 154575, Control_c, 0, 64, 65
1, 154588, Note_off_c, 0, 33, 61
1, 154590, Control_c, 0, 64, 71
1, 154597, Note_on_c, 0, 63, 72
1, 154605, Control_c, 0, 64, 79
1, 154607, Note_on_c, 0, 39, 67
1, 154607, Note_off_c, 0, 37, 0
1, 154619, Control_c, 0, 64, 94
1, 154634, Control_c, 0, 64, 127
1, 154645, Poly_aftertouch_c, 0, 37, 127
1, 154665, Note_on_c, 0, 60, 68
1, 154671, Note_off_c, 0, 66, 62
1, 154673, Note_on_c, 0, 42, 61
1, 154683, Note_on_c, 0, 54, 78
1, 154693, Control_c, 0, 64, 110
1, 154694, Poly_aftertouch_c, 0, 37, 0
1, 154696, Note_off_c, 0, 63, 63
1, 154708, Control_c, 0, 64, 76
1, 154710, Note_off_c, 0, 36, 36
1, 154723, Control_c, 0, 64, 56
1, 154738, Control_c, 0, 64, 0
1, 154743, Note_off_c, 0, 60, 57
1, 154746, Note_on_c, 0, 66, 85
1, 154751, Note_off_c, 0, 42, 64
1, 154765, Note_on_c, 0, 32, 80
1, 154770, Note_off_c, 0, 39, 38
1, 154826, Note_off_c, 0, 66, 60
1, 154826, Control_c, 0, 64, 50
1, 154841, Control_c, 0, 64, 64
1, 154856, Control_c, 0, 64, 79
1, 154860, Note_on_c, 0, 36, 63
1, 154871, Control_c, 0, 64, 127
1, 154895, Note_off_c, 0, 54, 62
1, 154900, Note_on_c, 0, 66, 85
1, 154946, Note_on_c, 0, 39, 61
1, 154950, Note_on_c, 0, 63, 77
1, 155010, Note_on_c, 0, 60, 83
1, 155049, Note_off_c, 0, 66, 61
1, 155053, Note_off_c, 0, 63, 61
1, 155063, Note_on_c, 0, 42, 70
1, 155063, Note_off_c, 0, 32, 54
1, 155071, Note_on_c, 0, 54, 92
1, 155101, Control_c, 0, 64, 87
1, 155113, Note_off_c, 0, 36, 35
1, 155114, Note_off_c, 0, 60, 62
1, 155116, Control_c, 0, 64, 60
1, 155128, Note_off_c, 0, 42, 63
1, 155130, Control_c, 0, 64, 0
1, 155138, Note_on_c, 0, 33, 80
1, 155140, Note_on_c, 0, 66, 95
1, 155164, Note_off_c, 0, 39, 60
1, 155220, Control_c, 0, 64, 40
1, 155235, Control_c, 0, 64, 65
1, 155241, Note_off_c, 0, 66, 60
1, 155244, Note_on_c, 0, 36, 59
1, 155250, Control_c, 0, 64, 88
1, 155265, Control_c, 0, 64, 127
1, 155304, Note_on_c, 0, 66, 86
1, 155321, Note_off_c, 0, 33, 59
1, 155327, Note_off_c, 0, 54, 61
1, 155327, Note_on_c, 0, 39, 65
1, 155365, Note_on_c, 0, 63, 79
1, 155398, Note_off_c, 0, 36, 58
1, 155426, Note_on_c, 0, 60, 77
1, 155438, Note_on_c, 0, 42, 69
1, 155450, Note_off_c, 0, 39, 61
1, 155482, Note_off_c, 0, 66, 60
1, 155491, Note_off_c, 0, 63, 61
1, 155498, Note_off_c, 0, 42, 62
1, 155512, Note_on_c, 0, 54, 84
1, 155515, Control_c, 0, 64, 77
1, 155530, Control_c, 0, 64, 47
1, 155545, Control_c, 0, 64, 0
1, 155573, Note_off_c, 0, 60, 63
1, 155607, Note_on_c, 0, 44, 95
1, 155607, Note_on_c, 0, 66, 94
1, 155614, Note_on_c, 0, 32, 81
1, 155619, Control_c, 0, 64, 59
1, 155634, Control_c, 0, 64, 81
1, 155649, Note_off_c, 0, 54, 66
1, 155649, Control_c, 0, 64, 127
1, 155653, Note_off_c, 0, 32, 63
1, 155679, Note_off_c, 0, 44, 63
1, 155683, Note_off_c, 0, 66, 67
1, 155838, Note_on_c, 0, 56, 74
1, 155873, Note_off_c, 0, 56, 65
1, 155968, Note_on_c, 0, 56, 63
1, 155998, Note_off_c, 0, 56, 65
1, 156013, Control_c, 0, 64, 93
1, 156028, Control_c, 0, 64, 72
1, 156043, Control_c, 0, 64, 56
1, 156057, Control_c, 0, 64, 0
1, 156066, Note_on_c, 0, 56, 70
1, 156097, Note_off_c, 0, 56, 66
1, 156117, Control_c, 0, 67, 14
1, 156131, Control_c, 0, 67, 33
1, 156146, Control_c, 0, 67, 52
1, 156161, Control_c, 0, 67, 77
1, 156175, Control_c, 0, 67, 98
1, 156190, Control_c, 0, 67, 120
1, 156195, Note_on_c, 0, 56, 61
1, 156205, Control_c, 0, 67, 127
1, 156216, Note_off_c, 0, 56, 63
1, 156291, Note_on_c, 0, 56, 67
1, 156327, Note_off_c, 0, 56, 66
1, 156415, Note_on_c, 0, 56, 53
1, 156443, Note_off_c, 0, 56, 63
1, 156529, Note_on_c, 0, 56, 65
1, 156562, Note_off_c, 0, 56, 63
1, 156639, Note_on_c, 0, 56, 57
1, 156678, Note_off_c, 0, 56, 64
1, 156758, Note_on_c, 0, 56, 58
1, 156790, Note_off_c, 0, 56, 65
1, 156864, Note_on_c, 0, 56, 65
1, 156895, Note_off_c, 0, 56, 64
1, 156967, Note_on_c, 0, 56, 66
1, 156996, Note_off_c, 0, 56, 66
1, 157083, Note_on_c, 0, 63, 58
1, 157093, Note_on_c, 0, 60, 49
1, 157205, Note_on_c, 0, 56, 57
1, 157241, Note_off_c, 0, 56, 64
1, 157328, Note_on_c, 0, 56, 56
1, 157361, Note_off_c, 0, 56, 65
1, 157375, Note_off_c, 0, 60, 63
1, 157399, Note_off_c, 0, 63, 62
1, 157443, Note_on_c, 0, 56, 59
1, 157475, Note_off_c, 0, 56, 65
1, 157553, Note_on_c, 0, 56, 66
1, 157583, Note_off_c, 0, 56, 66
1, 157659, Note_on_c, 0, 56, 58
1, 157700, Note_off_c, 0, 56, 61
1, 157783, Note_on_c, 0, 75, 61
1, 157788, Note_on_c, 0, 72, 55
1, 157792, Note_on_c, 0, 54, 54
1, 157904, Note_on_c, 0, 56, 61
1, 157909, Note_off_c, 0, 54, 60
1, 157941, Note_off_c, 0, 56, 66
1, 158030, Note_on_c, 0, 56, 58
1, 158069, Note_off_c, 0, 56, 64
1, 158089, Note_off_c, 0, 75, 62
1, 158092, Note_off_c, 0, 72, 60
1, 158145, Note_on_c, 0, 56, 60
1, 158177, Note_off_c, 0, 56, 66
1, 158248, Note_on_c, 0, 56, 67
1, 158284, Note_off_c, 0, 56, 65
1, 158361, Note_on_c, 0, 56, 74
1, 158399, Note_off_c, 0, 56, 65
1, 158474, Note_on_c, 0, 65, 63
1, 158478, Note_on_c, 0, 61, 59
1, 158600, Note_on_c, 0, 56, 54
1, 158635, Note_off_c, 0, 56, 65
1, 158727, Note_on_c, 0, 56, 57
1, 158755, Note_off_c, 0, 56, 64
1, 158764, Note_off_c, 0, 61, 62
1, 158789, Note_off_c, 0, 65, 62
1, 158836, Note_on_c, 0, 56, 59
1, 158868, Note_off_c, 0, 56, 66
1, 158943, Note_on_c, 0, 56, 62
1, 158982, Note_off_c, 0, 56, 61
1, 159059, Note_on_c, 0, 56, 57
1, 159098, Note_off_c, 0, 56, 62
1, 159173, Note_on_c, 0, 77, 64
1, 159176, Note_on_c, 0, 53, 48
1, 159183, Note_on_c, 0, 73, 55
1, 159289, Note_on_c, 0, 56, 63
1, 159295, Note_off_c, 0, 53, 63
1, 159327, Note_off_c, 0, 56, 65
1, 159363, Control_c, 0, 67, 122
1, 159378, Control_c, 0, 67, 110
1, 159393, Control_c, 0, 67, 97
1, 159401, Note_on_c, 0, 56, 66
1, 159408, Control_c, 0, 67, 82
1, 159423, Control_c, 0, 67, 64
1, 159431, Note_off_c, 0, 77, 61
1, 159435, Note_off_c, 0, 73, 61
1, 159435, Note_off_c, 0, 56, 64
1, 159438, Control_c, 0, 67, 41
1, 159460, Control_c, 0, 67, 10
1, 159475, Control_c, 0, 67, 0
1, 159514, Note_on_c, 0, 56, 67
1, 159548, Note_off_c, 0, 56, 63
1, 159620, Note_on_c, 0, 56, 80
1, 159653, Control_c, 0, 64, 15
1, 159666, Note_off_c, 0, 56, 63
1, 159667, Control_c, 0, 64, 45
1, 159682, Control_c, 0, 64, 57
1, 159697, Control_c, 0, 64, 64
1, 159712, Control_c, 0, 64, 67
1, 159727, Control_c, 0, 64, 72
1, 159737, Note_on_c, 0, 56, 84
1, 159742, Control_c, 0, 64, 77
1, 159756, Control_c, 0, 64, 83
1, 159771, Control_c, 0, 64, 91
1, 159786, Control_c, 0, 64, 99
1, 159790, Note_off_c, 0, 56, 63
1, 159800, Control_c, 0, 64, 100
1, 159815, Control_c, 0, 64, 99
1, 159830, Control_c, 0, 64, 97
1, 159845, Control_c, 0, 64, 94
1, 159855, Note_on_c, 0, 70, 91
1, 159859, Note_on_c, 0, 65, 67
1, 159860, Control_c, 0, 64, 90
1, 159868, Note_on_c, 0, 61, 74
1, 159874, Control_c, 0, 64, 84
1, 159889, Control_c, 0, 64, 75
1, 159904, Control_c, 0, 64, 68
1, 159919, Control_c, 0, 64, 62
1, 159934, Control_c, 0, 64, 54
1, 159950, Control_c, 0, 64, 49
1, 159965, Control_c, 0, 64, 46
1, 159979, Control_c, 0, 64, 42
1, 159982, Note_on_c, 0, 56, 67
1, 159994, Control_c, 0, 64, 34
1, 160009, Control_c, 0, 64, 20
1, 160016, Note_off_c, 0, 56, 64
1, 160023, Control_c, 0, 64, 0
1, 160105, Note_on_c, 0, 56, 62
1, 160137, Note_off_c, 0, 56, 66
1, 160225, Note_on_c, 0, 53, 53
1, 160233, Note_on_c, 0, 49, 50
1, 160298, Control_c, 0, 67, 9
1, 160312, Control_c, 0, 67, 23
1, 160327, Control_c, 0, 67, 36
1, 160342, Control_c, 0, 67, 49
1, 160356, Note_on_c, 0, 56, 66
1, 160357, Control_c, 0, 67, 60
1, 160363, Note_off_c, 0, 53, 60
1, 160372, Control_c, 0, 67, 72
1, 160374, Note_off_c, 0, 49, 59
1, 160386, Control_c, 0, 67, 83
1, 160392, Note_off_c, 0, 56, 64
1, 160401, Control_c, 0, 67, 97
1, 160416, Control_c, 0, 67, 110
1, 160431, Control_c, 0, 67, 122
1, 160445, Control_c, 0, 67, 127
1, 160469, Note_on_c, 0, 56, 61
1, 160511, Note_off_c, 0, 56, 62
1, 160581, Note_on_c, 0, 53, 54
1, 160593, Note_on_c, 0, 49, 43
1, 160697, Note_on_c, 0, 56, 64
1, 160704, Note_off_c, 0, 53, 59
1, 160710, Note_off_c, 0, 49, 58
1, 160735, Note_off_c, 0, 56, 64
1, 160819, Note_on_c, 0, 56, 54
1, 160851, Note_off_c, 0, 56, 65
1, 160934, Note_on_c, 0, 53, 56
1, 160936, Note_on_c, 0, 49, 45
1, 161053, Note_off_c, 0, 49, 58
1, 161062, Note_on_c, 0, 56, 62
1, 161071, Note_off_c, 0, 53, 60
1, 161071, Note_off_c, 0, 65, 34
1, 161095, Note_off_c, 0, 56, 65
1, 161110, Note_off_c, 0, 61, 39
1, 161183, Note_on_c, 0, 56, 57
1, 161218, Note_off_c, 0, 56, 63
1, 161308, Note_on_c, 0, 68, 57
1, 161309, Note_on_c, 0, 63, 47
1, 161322, Note_on_c, 0, 60, 41
1, 161325, Note_on_c, 0, 48, 43
1, 161325, Note_on_c, 0, 51, 55
1, 161331, Note_off_c, 0, 70, 46
1, 161425, Note_off_c, 0, 51, 61
1, 161435, Note_on_c, 0, 56, 53
1, 161437, Note_off_c, 0, 48, 61
1, 161470, Note_off_c, 0, 56, 66
1, 161546, Note_on_c, 0, 56, 52
1, 161572, Note_off_c, 0, 56, 59
1, 161611, Control_c, 0, 67, 124
1, 161617, Note_off_c, 0, 68, 56
1, 161626, Control_c, 0, 67, 119
1, 161641, Control_c, 0, 67, 115
1, 161642, Note_off_c, 0, 63, 42
1, 161646, Note_on_c, 0, 56, 68
1, 161656, Control_c, 0, 67, 110
1, 161665, Note_off_c, 0, 60, 37
1, 161670, Control_c, 0, 67, 105
1, 161676, Note_off_c, 0, 56, 66
1, 161685, Control_c, 0, 67, 100
1, 161707, Control_c, 0, 67, 95
1, 161722, Control_c, 0, 67, 92
1, 161737, Control_c, 0, 67, 90
1, 161751, Control_c, 0, 67, 88
1, 161766, Control_c, 0, 67, 88
1, 161768, Note_on_c, 0, 56, 58
1, 161781, Control_c, 0, 67, 87
1, 161796, Control_c, 0, 67, 86
1, 161808, Note_off_c, 0, 56, 62
1, 161811, Control_c, 0, 67, 85
1, 161826, Control_c, 0, 67, 85
1, 161840, Control_c, 0, 67, 84
1, 161855, Control_c, 0, 67, 83
1, 161885, Control_c, 0, 67, 83
1, 161888, Note_on_c, 0, 56, 57
1, 161915, Control_c, 0, 67, 82
1, 161923, Note_off_c, 0, 56, 65
1, 162004, Note_on_c, 0, 56, 56
1, 162004, Control_c, 0, 67, 82
1, 162028, Note_off_c, 0, 56, 62
1, 162108, Note_on_c, 0, 56, 59
1, 162142, Note_off_c, 0, 56, 65
1, 162181, Control_c, 0, 67, 81
1, 162224, Note_on_c, 0, 56, 58
1, 162240, Control_c, 0, 67, 80
1, 162255, Control_c, 0, 67, 80
1, 162256, Note_off_c, 0, 56, 65
1, 162270, Control_c, 0, 67, 78
1, 162285, Control_c, 0, 67, 77
1, 162300, Control_c, 0, 67, 72
1, 162314, Control_c, 0, 67, 51
1, 162329, Note_on_c, 0, 63, 60
1, 162329, Control_c, 0, 67, 25
1, 162337, Note_on_c, 0, 60, 57
1, 162344, Note_on_c, 0, 56, 55
1, 162345, Control_c, 0, 67, 0
1, 162360, Control_c, 0, 64, 40
1, 162374, Control_c, 0, 64, 56
1, 162376, Note_off_c, 0, 56, 64
1, 162389, Control_c, 0, 64, 63
1, 162404, Control_c, 0, 64, 66
1, 162419, Control_c, 0, 64, 69
1, 162434, Note_off_c, 0, 60, 39
1, 162434, Control_c, 0, 64, 71
1, 162456, Control_c, 0, 64, 73
1, 162467, Note_off_c, 0, 63, 56
1, 162469, Note_on_c, 0, 56, 64
1, 162471, Control_c, 0, 64, 76
1, 162486, Control_c, 0, 64, 78
1, 162500, Control_c, 0, 64, 80
1, 162502, Note_off_c, 0, 56, 64
1, 162530, Control_c, 0, 64, 80
1, 162545, Control_c, 0, 64, 81
1, 162560, Control_c, 0, 64, 83
1, 162574, Control_c, 0, 64, 85
1, 162576, Note_on_c, 0, 56, 61
1, 162589, Note_on_c, 0, 63, 74
1, 162589, Control_c, 0, 64, 82
1, 162595, Note_on_c, 0, 60, 73
1, 162604, Control_c, 0, 64, 75
1, 162619, Control_c, 0, 64, 65
1, 162621, Note_off_c, 0, 56, 61
1, 162621, Note_off_c, 0, 60, 69
1, 162634, Control_c, 0, 64, 48
1, 162638, Note_off_c, 0, 63, 60
1, 162648, Control_c, 0, 64, 0
1, 162676, Note_on_c, 0, 65, 74
1, 162685, Note_on_c, 0, 61, 67
1, 162698, Note_on_c, 0, 56, 51
1, 162736, Note_off_c, 0, 56, 64
1, 162782, Control_c, 0, 67, 19
1, 162797, Control_c, 0, 67, 49
1, 162812, Control_c, 0, 67, 77
1, 162826, Control_c, 0, 67, 96
1, 162830, Note_on_c, 0, 56, 50
1, 162841, Control_c, 0, 67, 101
1, 162855, Note_off_c, 0, 56, 58
1, 162856, Control_c, 0, 67, 100
1, 162871, Control_c, 0, 67, 99
1, 162886, Control_c, 0, 67, 98
1, 162900, Control_c, 0, 67, 98
1, 162908, Note_on_c, 0, 63, 63
1, 162911, Note_on_c, 0, 60, 65
1, 162915, Control_c, 0, 67, 97
1, 162918, Note_off_c, 0, 61, 57
1, 162930, Control_c, 0, 67, 94
1, 162931, Note_on_c, 0, 56, 65
1, 162936, Note_off_c, 0, 65, 61
1, 162943, Note_off_c, 0, 60, 66
1, 162945, Control_c, 0, 67, 92
1, 162950, Note_off_c, 0, 63, 63
1, 162960, Control_c, 0, 67, 90
1, 162967, Note_off_c, 0, 56, 65
1, 162974, Control_c, 0, 67, 86
1, 162989, Control_c, 0, 67, 83
1, 163004, Control_c, 0, 67, 81
1, 163018, Control_c, 0, 67, 80
1, 163033, Control_c, 0, 67, 78
1, 163047, Note_on_c, 0, 56, 58
1, 163048, Control_c, 0, 67, 77
1, 163063, Control_c, 0, 67, 75
1, 163078, Note_off_c, 0, 56, 65
1, 163092, Control_c, 0, 67, 74
1, 163107, Control_c, 0, 67, 73
1, 163122, Control_c, 0, 67, 71
1, 163137, Control_c, 0, 67, 65
1, 163153, Control_c, 0, 67, 54
1, 163161, Note_on_c, 0, 56, 57
1, 163168, Control_c, 0, 67, 43
1, 163183, Control_c, 0, 67, 37
1, 163203, Note_off_c, 0, 56, 63
1, 163205, Control_c, 0, 67, 32
1, 163220, Control_c, 0, 67, 25
1, 163235, Control_c, 0, 67, 19
1, 163249, Control_c, 0, 67, 14
1, 163264, Control_c, 0, 67, 13
1, 163265, Note_on_c, 0, 75, 72
1, 163278, Note_on_c, 0, 72, 62
1, 163286, Note_on_c, 0, 56, 58
1, 163301, Note_off_c, 0, 75, 64
1, 163305, Note_off_c, 0, 72, 67
1, 163309, Control_c, 0, 67, 13
1, 163319, Note_off_c, 0, 56, 65
1, 163323, Control_c, 0, 67, 12
1, 163338, Control_c, 0, 67, 11
1, 163353, Control_c, 0, 67, 11
1, 163368, Control_c, 0, 67, 10
1, 163383, Control_c, 0, 67, 8
1, 163397, Control_c, 0, 67, 0
1, 163402, Note_on_c, 0, 56, 54
1, 163431, Note_off_c, 0, 56, 63
1, 163512, Note_on_c, 0, 56, 60
1, 163540, Note_off_c, 0, 56, 65
1, 163604, Note_on_c, 0, 87, 79
1, 163619, Note_on_c, 0, 84, 63
1, 163620, Note_on_c, 0, 56, 62
1, 163647, Note_off_c, 0, 87, 62
1, 163648, Note_off_c, 0, 84, 68
1, 163658, Note_off_c, 0, 56, 62
1, 163728, Note_on_c, 0, 54, 59
1, 163733, Note_on_c, 0, 51, 61
1, 163766, Control_c, 0, 64, 44
1, 163781, Control_c, 0, 64, 59
1, 163796, Control_c, 0, 64, 66
1, 163811, Control_c, 0, 64, 70
1, 163826, Control_c, 0, 64, 76
1, 163840, Control_c, 0, 64, 82
1, 163853, Note_on_c, 0, 56, 67
1, 163855, Control_c, 0, 64, 90
1, 163862, Note_off_c, 0, 51, 60
1, 163866, Note_off_c, 0, 54, 58
1, 163870, Control_c, 0, 64, 98
1, 163885, Control_c, 0, 64, 115
1, 163891, Note_off_c, 0, 56, 64
1, 163900, Control_c, 0, 64, 127
1, 163963, Note_on_c, 0, 56, 65
1, 163989, Note_on_c, 0, 63, 78
1, 163993, Note_on_c, 0, 60, 69
1, 163997, Control_c, 0, 64, 99
1, 163999, Note_off_c, 0, 56, 64
1, 164012, Control_c, 0, 64, 81
1, 164020, Note_off_c, 0, 60, 67
1, 164026, Control_c, 0, 64, 68
1, 164029, Note_off_c, 0, 63, 56
1, 164041, Control_c, 0, 64, 53
1, 164056, Control_c, 0, 64, 0
1, 164068, Note_on_c, 0, 66, 85
1, 164076, Note_on_c, 0, 63, 62
1, 164082, Note_on_c, 0, 56, 61
1, 164124, Note_off_c, 0, 56, 64
1, 164199, Note_on_c, 0, 56, 57
1, 164206, Note_off_c, 0, 63, 61
1, 164231, Note_off_c, 0, 56, 65
1, 164315, Note_on_c, 0, 65, 72
1, 164316, Note_on_c, 0, 56, 63
1, 164318, Note_off_c, 0, 66, 55
1, 164319, Note_on_c, 0, 61, 65
1, 164353, Note_off_c, 0, 56, 63
1, 164365, Note_off_c, 0, 61, 60
1, 164372, Note_off_c, 0, 65, 64
1, 164435, Note_on_c, 0, 56, 60
1, 164473, Note_off_c, 0, 56, 63
1, 164557, Note_on_c, 0, 56, 51
1, 164582, Note_off_c, 0, 56, 58
1, 164652, Note_on_c, 0, 77, 69
1, 164657, Note_on_c, 0, 73, 57
1, 164663, Note_on_c, 0, 56, 58
1, 164682, Note_off_c, 0, 73, 67
1, 164703, Note_off_c, 0, 77, 62
1, 164709, Note_off_c, 0, 56, 63
1, 164790, Note_on_c, 0, 56, 59
1, 164824, Note_off_c, 0, 56, 64
1, 164912, Note_on_c, 0, 56, 39
1, 164945, Note_off_c, 0, 56, 53
1, 165009, Note_on_c, 0, 56, 51
1, 165009, Note_on_c, 0, 89, 75
1, 165014, Note_on_c, 0, 85, 60
1, 165036, Note_off_c, 0, 89, 66
1, 165039, Note_off_c, 0, 56, 63
1, 165044, Note_off_c, 0, 85, 67
1, 165122, Note_on_c, 0, 53, 57
1, 165137, Note_on_c, 0, 49, 47
1, 165146, Control_c, 0, 64, 41
1, 165161, Control_c, 0, 64, 59
1, 165176, Control_c, 0, 64, 66
1, 165191, Control_c, 0, 64, 75
1, 165206, Control_c, 0, 64, 89
1, 165221, Control_c, 0, 64, 118
1, 165236, Control_c, 0, 64, 127
1, 165237, Note_on_c, 0, 56, 69
1, 165238, Note_off_c, 0, 53, 57
1, 165259, Note_off_c, 0, 49, 59
1, 165269, Note_off_c, 0, 56, 65
1, 165329, Note_on_c, 0, 56, 81
1, 165375, Note_off_c, 0, 56, 62
1, 165382, Note_on_c, 0, 65, 82
1, 165388, Note_on_c, 0, 61, 82
1, 165431, Note_off_c, 0, 61, 58
1, 165447, Note_off_c, 0, 65, 62
1, 165450, Control_c, 0, 64, 107
1, 165465, Control_c, 0, 64, 82
1, 165480, Control_c, 0, 64, 65
1, 165494, Control_c, 0, 64, 44
1, 165498, Note_on_c, 0, 70, 93
1, 165504, Note_on_c, 0, 65, 68
1, 165509, Control_c, 0, 64, 0
1, 165520, Note_on_c, 0, 61, 69
1, 165628, Note_on_c, 0, 56, 62
1, 165665, Note_off_c, 0, 56, 64
1, 165745, Note_on_c, 0, 56, 60
1, 165783, Note_off_c, 0, 56, 61
1, 165856, Note_on_c, 0, 53, 53
1, 165859, Note_on_c, 0, 49, 43
1, 165969, Note_on_c, 0, 56, 60
1, 165978, Note_off_c, 0, 53, 62
1, 165978, Note_off_c, 0, 49, 60
1, 166002, Note_off_c, 0, 56, 64
1, 166077, Note_on_c, 0, 56, 67
1, 166102, Control_c, 0, 67, 18
1, 166112, Note_off_c, 0, 56, 64
1, 166116, Control_c, 0, 67, 35
1, 166131, Control_c, 0, 67, 49
1, 166146, Control_c, 0, 67, 61
1, 166161, Control_c, 0, 67, 73
1, 166176, Control_c, 0, 67, 84
1, 166198, Control_c, 0, 67, 95
1, 166211, Note_on_c, 0, 53, 54
1, 166213, Control_c, 0, 67, 107
1, 166223, Note_on_c, 0, 49, 33
1, 166228, Control_c, 0, 67, 120
1, 166242, Control_c, 0, 67, 127
1, 166326, Note_off_c, 0, 49, 60
1, 166330, Note_on_c, 0, 56, 56
1, 166332, Note_off_c, 0, 53, 61
1, 166365, Note_off_c, 0, 56, 65
1, 166450, Note_on_c, 0, 56, 64
1, 166493, Note_off_c, 0, 56, 60
1, 166578, Note_on_c, 0, 53, 55
1, 166591, Note_on_c, 0, 49, 37
1, 166683, Note_off_c, 0, 65, 40
1, 166700, Note_on_c, 0, 56, 63
1, 166704, Note_off_c, 0, 61, 37
1, 166708, Note_off_c, 0, 49, 60
1, 166713, Note_off_c, 0, 53, 58
1, 166736, Note_off_c, 0, 56, 63
1, 166822, Note_on_c, 0, 56, 49
1, 166850, Note_off_c, 0, 56, 57
1, 166926, Note_on_c, 0, 68, 59
1, 166926, Note_off_c, 0, 70, 51
1, 166926, Note_on_c, 0, 63, 45
1, 166953, Note_on_c, 0, 60, 36
1, 167058, Note_on_c, 0, 56, 54
1, 167066, Note_off_c, 0, 60, 0
1, 167066, Note_on_c, 0, 60, 7
1, 167090, Note_off_c, 0, 56, 65
1, 167141, Control_c, 0, 67, 122
1, 167155, Control_c, 0, 67, 111
1, 167170, Control_c, 0, 67, 100
1, 167171, Note_on_c, 0, 56, 68
1, 167185, Control_c, 0, 67, 84
1, 167200, Control_c, 0, 67, 65
1, 167202, Note_off_c, 0, 60, 51
1, 167202, Note_off_c, 0, 68, 55
1, 167203, Note_off_c, 0, 56, 64
1, 167206, Note_off_c, 0, 63, 55
1, 167215, Control_c, 0, 67, 47
1, 167230, Control_c, 0, 67, 34
1, 167244, Control_c, 0, 67, 25
1, 167259, Control_c, 0, 67, 19
1, 167274, Control_c, 0, 67, 14
1, 167288, Control_c, 0, 67, 0
1, 167291, Note_on_c, 0, 51, 66
1, 167296, Note_on_c, 0, 48, 52
1, 167397, Note_off_c, 0, 48, 54
1, 167399, Note_off_c, 0, 51, 62
1, 167403, Note_on_c, 0, 56, 72
1, 167444, Note_off_c, 0, 56, 63
1, 167509, Note_on_c, 0, 56, 72
1, 167570, Note_off_c, 0, 56, 59
1, 167641, Note_on_c, 0, 69, 71
1, 167649, Note_on_c, 0, 64, 54
1, 167655, Note_on_c, 0, 61, 56
1, 167768, Note_on_c, 0, 56, 55
1, 167810, Note_off_c, 0, 56, 64
1, 167902, Note_on_c, 0, 56, 48
1, 167930, Note_off_c, 0, 56, 57
1, 167993, Control_c, 0, 67, 13
1, 168008, Control_c, 0, 67, 31
1, 168009, Note_on_c, 0, 49, 42
1, 168012, Note_on_c, 0, 52, 46
1, 168023, Control_c, 0, 67, 48
1, 168038, Control_c, 0, 67, 64
1, 168053, Control_c, 0, 67, 79
1, 168067, Control_c, 0, 67, 93
1, 168082, Control_c, 0, 67, 105
1, 168097, Control_c, 0, 67, 120
1, 168111, Control_c, 0, 67, 127
1, 168117, Note_off_c, 0, 64, 47
1, 168125, Note_on_c, 0, 56, 61
1, 168137, Note_off_c, 0, 52, 62
1, 168142, Note_off_c, 0, 49, 57
1, 168163, Note_off_c, 0, 56, 66
1, 168169, Note_off_c, 0, 61, 53
1, 168249, Note_on_c, 0, 56, 55
1, 168285, Note_off_c, 0, 56, 64
1, 168377, Note_on_c, 0, 68, 51
1, 168378, Note_off_c, 0, 69, 53
1, 168385, Note_on_c, 0, 60, 42
1, 168390, Note_on_c, 0, 63, 37
1, 168504, Note_on_c, 0, 56, 47
1, 168538, Note_off_c, 0, 56, 64
1, 168599, Note_off_c, 0, 60, 51
1, 168617, Note_off_c, 0, 63, 62
1, 168634, Note_on_c, 0, 56, 30
1, 168645, Note_off_c, 0, 68, 62
1, 168667, Note_off_c, 0, 56, 47
1, 168740, Note_on_c, 0, 51, 51
1, 168745, Note_on_c, 0, 48, 40
1, 168861, Note_on_c, 0, 56, 48
1, 168861, Note_off_c, 0, 51, 61
1, 168862, Note_off_c, 0, 48, 54
1, 168897, Note_off_c, 0, 56, 66
1, 168980, Note_on_c, 0, 56, 53
1, 169013, Note_off_c, 0, 56, 61
1, 169084, Note_on_c, 0, 81, 62
1, 169091, Note_on_c, 0, 76, 49
1, 169102, Note_on_c, 0, 73, 50
1, 169208, Note_on_c, 0, 56, 47
1, 169247, Note_off_c, 0, 56, 63
1, 169344, Note_on_c, 0, 56, 44
1, 169372, Note_off_c, 0, 56, 58
1, 169454, Note_on_c, 0, 49, 43
1, 169462, Note_on_c, 0, 52, 45
1, 169510, Note_off_c, 0, 81, 0
1, 169525, Note_off_c, 0, 76, 36
1, 169547, Poly_aftertouch_c, 0, 81, 127
1, 169576, Note_on_c, 0, 56, 55
1, 169585, Note_off_c, 0, 52, 63
1, 169604, Note_off_c, 0, 49, 61
1, 169624, Note_off_c, 0, 56, 61
1, 169628, Note_off_c, 0, 73, 44
1, 169700, Note_on_c, 0, 56, 47
1, 169744, Note_off_c, 0, 56, 61
1, 169823, Note_on_c, 0, 80, 58
1, 169833, Note_on_c, 0, 75, 48
1, 169839, Note_on_c, 0, 72, 40
1, 169842, Poly_aftertouch_c, 0, 81, 0
1, 169955, Note_on_c, 0, 56, 51
1, 169972, Control_c, 0, 67, 124
1, 169987, Control_c, 0, 67, 117
1, 169993, Note_off_c, 0, 56, 64
1, 170002, Control_c, 0, 67, 110
1, 170017, Control_c, 0, 67, 104
1, 170031, Control_c, 0, 67, 98
1, 170046, Control_c, 0, 67, 93
1, 170055, Note_off_c, 0, 80, 62
1, 170061, Control_c, 0, 67, 89
1, 170076, Note_off_c, 0, 75, 60
1, 170076, Control_c, 0, 67, 85
1, 170078, Note_on_c, 0, 56, 60
1, 170085, Note_off_c, 0, 72, 61
1, 170090, Control_c, 0, 67, 82
1, 170105, Control_c, 0, 67, 78
1, 170115, Note_off_c, 0, 56, 63
1, 170120, Control_c, 0, 67, 75
1, 170135, Control_c, 0, 67, 71
1, 170150, Control_c, 0, 67, 68
1, 170164, Control_c, 0, 67, 64
1, 170179, Control_c, 0, 67, 61
1, 170194, Control_c, 0, 67, 57
1, 170207, Note_on_c, 0, 51, 53
1, 170209, Control_c, 0, 67, 53
1, 170211, Note_on_c, 0, 48, 35
1, 170224, Control_c, 0, 67, 48
1, 170238, Control_c, 0, 67, 43
1, 170253, Control_c, 0, 67, 37
1, 170268, Control_c, 0, 67, 32
1, 170282, Control_c, 0, 67, 26
1, 170297, Control_c, 0, 67, 19
1, 170312, Control_c, 0, 67, 14
1, 170325, Note_on_c, 0, 56, 61
1, 170327, Control_c, 0, 67, 9
1, 170329, Note_off_c, 0, 51, 62
1, 170343, Control_c, 0, 67, 0
1, 170348, Note_off_c, 0, 48, 53
1, 170363, Note_off_c, 0, 56, 64
1, 170433, Note_on_c, 0, 56, 72
1, 170506, Note_off_c, 0, 56, 61
1, 170573, Note_on_c, 0, 68, 63
1, 170584, Note_on_c, 0, 62, 48
1, 170587, Note_on_c, 0, 59, 54
1, 170669, Control_c, 0, 64, 13
1, 170691, Control_c, 0, 64, 38
1, 170706, Control_c, 0, 64, 47
1, 170710, Note_on_c, 0, 56, 53
1, 170721, Control_c, 0, 64, 50
1, 170736, Control_c, 0, 64, 50
1, 170747, Note_off_c, 0, 56, 65
1, 170835, Note_on_c, 0, 56, 56
1, 170840, Control_c, 0, 67, 8
1, 170855, Control_c, 0, 67, 11
1, 170869, Control_c, 0, 67, 13
1, 170876, Note_off_c, 0, 56, 62
1, 170884, Control_c, 0, 64, 50
1, 170884, Control_c, 0, 67, 15
1, 170899, Control_c, 0, 64, 49
1, 170899, Control_c, 0, 67, 17
1, 170913, Control_c, 0, 67, 19
1, 170928, Control_c, 0, 64, 49
1, 170928, Control_c, 0, 67, 21
1, 170943, Control_c, 0, 64, 48
1, 170943, Control_c, 0, 67, 29
1, 170957, Note_on_c, 0, 50, 45
1, 170958, Control_c, 0, 64, 48
1, 170958, Control_c, 0, 67, 42
1, 170973, Control_c, 0, 67, 56
1, 170974, Note_on_c, 0, 47, 40
1, 170974, Note_off_c, 0, 59, 50
1, 170987, Control_c, 0, 64, 47
1, 170987, Control_c, 0, 67, 72
1, 171002, Control_c, 0, 64, 46
1, 171002, Control_c, 0, 67, 92
1, 171017, Control_c, 0, 64, 45
1, 171017, Control_c, 0, 67, 109
1, 171024, Note_off_c, 0, 62, 37
1, 171032, Control_c, 0, 64, 43
1, 171032, Control_c, 0, 67, 126
1, 171047, Control_c, 0, 64, 42
1, 171047, Control_c, 0, 67, 127
1, 171061, Control_c, 0, 64, 41
1, 171067, Note_on_c, 0, 56, 58
1, 171076, Control_c, 0, 64, 40
1, 171081, Note_off_c, 0, 47, 53
1, 171091, Control_c, 0, 64, 39
1, 171099, Note_off_c, 0, 50, 60
1, 171105, Control_c, 0, 64, 38
1, 171120, Control_c, 0, 64, 37
1, 171123, Note_off_c, 0, 56, 57
1, 171136, Control_c, 0, 64, 35
1, 171151, Control_c, 0, 64, 34
1, 171166, Control_c, 0, 64, 33
1, 171181, Control_c, 0, 64, 33
1, 171185, Note_on_c, 0, 56, 50
1, 171196, Control_c, 0, 64, 32
1, 171210, Control_c, 0, 64, 32
1, 171240, Control_c, 0, 64, 31
1, 171246, Note_off_c, 0, 56, 57
1, 171255, Control_c, 0, 64, 30
1, 171270, Control_c, 0, 64, 29
1, 171284, Control_c, 0, 64, 28
1, 171299, Control_c, 0, 64, 27
1, 171311, Note_on_c, 0, 67, 58
1, 171314, Note_on_c, 0, 61, 44
1, 171314, Control_c, 0, 64, 27
1, 171323, Note_on_c, 0, 58, 47
1, 171329, Control_c, 0, 64, 26
1, 171344, Control_c, 0, 64, 26
1, 171347, Note_off_c, 0, 68, 37
1, 171359, Control_c, 0, 64, 25
1, 171373, Control_c, 0, 64, 24
1, 171388, Control_c, 0, 64, 22
1, 171403, Control_c, 0, 64, 20
1, 171418, Control_c, 0, 64, 17
1, 171440, Control_c, 0, 64, 12
1, 171447, Note_on_c, 0, 56, 58
1, 171455, Control_c, 0, 64, 0
1, 171486, Note_off_c, 0, 56, 63
1, 171550, Note_off_c, 0, 67, 52
1, 171575, Note_on_c, 0, 56, 55
1, 171607, Note_off_c, 0, 58, 49
1, 171616, Note_off_c, 0, 61, 36
1, 171619, Note_off_c, 0, 56, 61
1, 171679, Note_on_c, 0, 49, 41
1, 171692, Note_on_c, 0, 46, 41
1, 171786, Note_off_c, 0, 46, 60
1, 171798, Note_on_c, 0, 56, 49
1, 171807, Note_off_c, 0, 49, 59
1, 171835, Note_off_c, 0, 56, 62
1, 171916, Note_on_c, 0, 56, 51
1, 171952, Note_off_c, 0, 56, 61
1, 172045, Note_on_c, 0, 66, 48
1, 172060, Note_on_c, 0, 60, 38
1, 172068, Note_on_c, 0, 57, 36
1, 172170, Note_on_c, 0, 56, 55
1, 172219, Note_off_c, 0, 56, 62
1, 172315, Note_on_c, 0, 56, 55
1, 172346, Note_off_c, 0, 60, 37
1, 172360, Note_off_c, 0, 57, 54
1, 172369, Note_off_c, 0, 56, 56
1, 172397, Note_off_c, 0, 66, 36
1, 172430, Note_on_c, 0, 45, 41
1, 172436, Note_on_c, 0, 48, 42
1, 172542, Note_off_c, 0, 45, 57
1, 172558, Note_on_c, 0, 56, 53
1, 172594, Note_off_c, 0, 56, 64
1, 172600, Note_off_c, 0, 48, 35
1, 172684, Note_on_c, 0, 56, 59
1, 172733, Note_off_c, 0, 56, 59
1, 172873, Note_on_c, 0, 66, 50
1, 172880, Note_on_c, 0, 56, 36
1, 172891, Note_on_c, 0, 60, 41
1, 173052, Note_on_c, 0, 44, 53
1, 173072, Control_c, 0, 64, 11
1, 173087, Control_c, 0, 64, 17
1, 173101, Control_c, 0, 64, 23
1, 173116, Control_c, 0, 64, 29
1, 173131, Control_c, 0, 64, 33
1, 173146, Control_c, 0, 64, 36
1, 173161, Control_c, 0, 64, 38
1, 173176, Control_c, 0, 64, 39
1, 173182, Note_on_c, 0, 43, 57
1, 173186, Note_off_c, 0, 44, 52
1, 173190, Control_c, 0, 64, 39
1, 173197, Note_off_c, 0, 56, 44
1, 173230, Note_off_c, 0, 60, 60
1, 173302, Note_off_c, 0, 66, 61
1, 173317, Note_on_c, 0, 44, 61
1, 173335, Note_off_c, 0, 43, 59
1, 173353, Control_c, 0, 64, 39
1, 173397, Control_c, 0, 64, 38
1, 173434, Note_on_c, 0, 46, 57
1, 173435, Note_off_c, 0, 44, 63
1, 173442, Control_c, 0, 64, 38
1, 173472, Control_c, 0, 64, 37
1, 173516, Control_c, 0, 64, 37
1, 173553, Note_on_c, 0, 44, 63
1, 173569, Note_off_c, 0, 46, 53
1, 173591, Control_c, 0, 64, 36
1, 173666, Control_c, 0, 64, 36
1, 173666, Control_c, 0, 67, 126
1, 173666, Note_on_c, 0, 75, 67
1, 173670, Note_on_c, 0, 42, 63
1, 173687, Control_c, 0, 67, 123
1, 173702, Control_c, 0, 64, 35
1, 173702, Control_c, 0, 67, 120
1, 173704, Note_off_c, 0, 44, 61
1, 173717, Control_c, 0, 67, 119
1, 173731, Control_c, 0, 67, 119
1, 173746, Control_c, 0, 64, 35
1, 173746, Control_c, 0, 67, 118
1, 173761, Control_c, 0, 64, 34
1, 173761, Control_c, 0, 67, 117
1, 173786, Note_off_c, 0, 42, 63
1, 173791, Note_on_c, 0, 77, 75
1, 173791, Control_c, 0, 64, 33
1, 173791, Control_c, 0, 67, 117
1, 173799, Note_on_c, 0, 44, 62
1, 173803, Note_off_c, 0, 75, 58
1, 173806, Control_c, 0, 64, 32
1, 173806, Control_c, 0, 67, 116
1, 173821, Control_c, 0, 64, 32
1, 173821, Control_c, 0, 67, 115
1, 173836, Control_c, 0, 64, 31
1, 173836, Control_c, 0, 67, 114
1, 173851, Control_c, 0, 64, 30
1, 173851, Control_c, 0, 67, 112
1, 173865, Control_c, 0, 67, 109
1, 173880, Control_c, 0, 64, 29
1, 173880, Control_c, 0, 67, 103
1, 173895, Control_c, 0, 64, 29
1, 173895, Control_c, 0, 67, 97
1, 173907, Note_on_c, 0, 75, 79
1, 173910, Note_on_c, 0, 42, 68
1, 173910, Control_c, 0, 64, 28
1, 173910, Control_c, 0, 67, 90
1, 173924, Control_c, 0, 64, 27
1, 173924, Control_c, 0, 67, 81
1, 173939, Control_c, 0, 64, 27
1, 173939, Control_c, 0, 67, 73
1, 173941, Note_off_c, 0, 77, 58
1, 173954, Control_c, 0, 64, 26
1, 173954, Control_c, 0, 67, 65
1, 173969, Control_c, 0, 64, 25
1, 173969, Control_c, 0, 67, 57
1, 173984, Control_c, 0, 64, 25
1, 173984, Control_c, 0, 67, 50
1, 173999, Control_c, 0, 64, 24
1, 173999, Control_c, 0, 67, 43
1, 174013, Control_c, 0, 64, 24
1, 174013, Control_c, 0, 67, 36
1, 174023, Note_on_c, 0, 41, 64
1, 174027, Control_c, 0, 67, 31
1, 174028, Note_on_c, 0, 73, 79
1, 174034, Note_off_c, 0, 42, 58
1, 174042, Control_c, 0, 64, 23
1, 174042, Control_c, 0, 67, 27
1, 174045, Note_off_c, 0, 75, 56
1, 174057, Control_c, 0, 64, 23
1, 174057, Control_c, 0, 67, 23
1, 174072, Control_c, 0, 67, 19
1, 174086, Control_c, 0, 67, 15
1, 174101, Control_c, 0, 64, 22
1, 174101, Control_c, 0, 67, 11
1, 174116, Control_c, 0, 67, 8
1, 174131, Control_c, 0, 67, 0
1, 174142, Note_off_c, 0, 41, 61
1, 174147, Note_on_c, 0, 75, 80
1, 174153, Note_on_c, 0, 42, 69
1, 174161, Control_c, 0, 64, 21
1, 174161, Note_off_c, 0, 73, 61
1, 174190, Control_c, 0, 64, 21
1, 174220, Control_c, 0, 64, 20
1, 174254, Note_on_c, 0, 41, 66
1, 174261, Note_on_c, 0, 73, 80
1, 174272, Note_off_c, 0, 75, 56
1, 174279, Control_c, 0, 64, 19
1, 174325, Control_c, 0, 64, 18
1, 174333, Note_off_c, 0, 42, 25
1, 174352, Note_off_c, 0, 44, 37
1, 174381, Note_off_c, 0, 41, 55
1, 174384, Control_c, 0, 64, 17
1, 174387, Note_on_c, 0, 72, 68
1, 174389, Note_on_c, 0, 39, 52
1, 174395, Note_off_c, 0, 73, 59
1, 174480, Control_c, 0, 64, 17
1, 174526, Note_on_c, 0, 78, 69
1, 174531, Note_on_c, 0, 44, 51
1, 174539, Note_off_c, 0, 72, 59
1, 174554, Control_c, 0, 64, 16
1, 174636, Note_off_c, 0, 39, 40
1, 174641, Note_off_c, 0, 44, 56
1, 174643, Note_on_c, 0, 43, 60
1, 174680, Note_off_c, 0, 78, 63
1, 174717, Control_c, 0, 64, 15
1, 174745, Note_off_c, 0, 43, 62
1, 174764, Note_on_c, 0, 44, 72
1, 174865, Note_on_c, 0, 46, 71
1, 174873, Note_off_c, 0, 44, 61
1, 174980, Note_off_c, 0, 46, 63
1, 174981, Note_on_c, 0, 44, 75
1, 175108, Note_on_c, 0, 78, 74
1, 175131, Note_on_c, 0, 39, 64
1, 175162, Control_c, 0, 64, 13
1, 175228, Note_on_c, 0, 80, 81
1, 175237, Note_on_c, 0, 41, 71
1, 175254, Note_off_c, 0, 78, 61
1, 175262, Note_off_c, 0, 39, 60
1, 175287, Control_c, 0, 64, 12
1, 175302, Control_c, 0, 64, 11
1, 175317, Control_c, 0, 64, 9
1, 175332, Control_c, 0, 64, 0
1, 175349, Note_on_c, 0, 78, 85
1, 175355, Note_on_c, 0, 39, 73
1, 175372, Note_off_c, 0, 41, 60
1, 175398, Note_off_c, 0, 80, 61
1, 175472, Note_on_c, 0, 37, 74
1, 175477, Note_on_c, 0, 77, 87
1, 175478, Note_off_c, 0, 39, 62
1, 175508, Note_off_c, 0, 78, 61
1, 175584, Note_on_c, 0, 39, 74
1, 175589, Note_on_c, 0, 78, 89
1, 175597, Note_off_c, 0, 37, 61
1, 175607, Note_off_c, 0, 77, 63
1, 175708, Note_on_c, 0, 77, 90
1, 175716, Note_on_c, 0, 37, 69
1, 175720, Note_off_c, 0, 39, 61
1, 175726, Note_off_c, 0, 78, 60
1, 175759, Note_off_c, 0, 44, 40
1, 175827, Note_off_c, 0, 77, 61
1, 175842, Note_on_c, 0, 75, 77
1, 175857, Note_on_c, 0, 36, 66
1, 175869, Note_off_c, 0, 37, 56
1, 175988, Note_on_c, 0, 87, 78
1, 175997, Note_off_c, 0, 36, 58
1, 176001, Note_on_c, 0, 44, 64
1, 176042, Note_off_c, 0, 75, 60
1, 176113, Note_on_c, 0, 43, 74
1, 176113, Note_off_c, 0, 87, 57
1, 176119, Note_off_c, 0, 44, 61
1, 176238, Note_on_c, 0, 44, 80
1, 176243, Note_off_c, 0, 43, 64
1, 176343, Note_on_c, 0, 46, 86
1, 176362, Control_c, 0, 64, 19
1, 176364, Note_off_c, 0, 44, 63
1, 176377, Control_c, 0, 64, 21
1, 176392, Control_c, 0, 64, 21
1, 176451, Control_c, 0, 64, 22
1, 176467, Note_off_c, 0, 46, 64
1, 176470, Note_on_c, 0, 44, 87
1, 176480, Control_c, 0, 64, 23
1, 176599, Note_on_c, 0, 87, 89
1, 176639, Note_on_c, 0, 36, 66
1, 176659, Control_c, 0, 64, 22
1, 176680, Control_c, 0, 64, 21
1, 176695, Control_c, 0, 64, 21
1, 176710, Control_c, 0, 64, 20
1, 176743, Note_on_c, 0, 89, 93
1, 176758, Note_on_c, 0, 37, 74
1, 176778, Note_off_c, 0, 36, 60
1, 176781, Note_off_c, 0, 87, 63
1, 176785, Control_c, 0, 64, 19
1, 176800, Control_c, 0, 64, 17
1, 176815, Control_c, 0, 64, 17
1, 176829, Control_c, 0, 64, 16
1, 176859, Control_c, 0, 64, 15
1, 176867, Note_on_c, 0, 36, 76
1, 176870, Note_on_c, 0, 87, 96
1, 176889, Control_c, 0, 64, 13
1, 176896, Note_off_c, 0, 37, 56
1, 176900, Note_off_c, 0, 89, 63
1, 176903, Control_c, 0, 64, 12
1, 176918, Control_c, 0, 64, 11
1, 176933, Control_c, 0, 64, 0
1, 176981, Note_on_c, 0, 34, 75
1, 176992, Note_on_c, 0, 85, 84
1, 176995, Note_off_c, 0, 36, 58
1, 177022, Note_off_c, 0, 87, 61
1, 177043, Note_off_c, 0, 44, 56
1, 177115, Note_on_c, 0, 36, 71
1, 177115, Note_on_c, 0, 87, 93
1, 177138, Note_off_c, 0, 85, 64
1, 177141, Note_off_c, 0, 34, 63
1, 177224, Note_on_c, 0, 85, 85
1, 177225, Note_on_c, 0, 34, 72
1, 177249, Note_off_c, 0, 36, 60
1, 177273, Note_off_c, 0, 87, 61
1, 177347, Note_on_c, 0, 32, 71
1, 177347, Note_on_c, 0, 84, 89
1, 177368, Note_off_c, 0, 34, 62
1, 177377, Note_off_c, 0, 85, 64
1, 177460, Note_on_c, 0, 31, 67
1, 177477, Note_on_c, 0, 85, 81
1, 177490, Note_off_c, 0, 84, 63
1, 177493, Note_off_c, 0, 32, 62
1, 177584, Note_on_c, 0, 32, 68
1, 177589, Note_on_c, 0, 84, 89
1, 177618, Note_off_c, 0, 31, 60
1, 177627, Note_off_c, 0, 85, 66
1, 177705, Note_on_c, 0, 34, 71
1, 177708, Note_on_c, 0, 82, 82
1, 177720, Note_off_c, 0, 84, 60
1, 177742, Note_off_c, 0, 32, 60
1, 177827, Note_on_c, 0, 84, 86
1, 177830, Note_on_c, 0, 32, 67
1, 177841, Note_off_c, 0, 82, 60
1, 177851, Note_off_c, 0, 34, 58
1, 177957, Note_on_c, 0, 82, 75
1, 177961, Note_on_c, 0, 34, 69
1, 177964, Note_off_c, 0, 84, 58
1, 177984, Note_off_c, 0, 32, 54
1, 178086, Note_off_c, 0, 34, 61
1, 178092, Note_on_c, 0, 80, 73
1, 178092, Note_on_c, 0, 35, 55
1, 178112, Note_off_c, 0, 82, 60
1, 178209, Note_off_c, 0, 35, 55
1, 178215, Note_on_c, 0, 34, 57
1, 178220, Note_on_c, 0, 82, 72
1, 178224, Note_off_c, 0, 80, 59
1, 178343, Note_off_c, 0, 34, 58
1, 178351, Note_on_c, 0, 35, 51
1, 178352, Note_on_c, 0, 80, 61
1, 178375, Note_off_c, 0, 82, 58
1, 178465, Note_off_c, 0, 35, 58
1, 178489, Note_on_c, 0, 36, 44
1, 178489, Note_on_c, 0, 78, 61
1, 178490, Control_c, 0, 67, 11
1, 178503, Note_off_c, 0, 80, 56
1, 178505, Control_c, 0, 67, 31
1, 178519, Control_c, 0, 67, 51
1, 178534, Control_c, 0, 67, 67
1, 178549, Control_c, 0, 67, 82
1, 178564, Control_c, 0, 67, 95
1, 178579, Control_c, 0, 67, 106
1, 178593, Control_c, 0, 67, 112
1, 178596, Note_off_c, 0, 36, 52
1, 178608, Control_c, 0, 67, 112
1, 178611, Note_on_c, 0, 35, 41
1, 178617, Note_on_c, 0, 80, 63
1, 178620, Note_off_c, 0, 78, 59
1, 178697, Control_c, 0, 67, 110
1, 178712, Control_c, 0, 67, 109
1, 178727, Control_c, 0, 67, 107
1, 178742, Control_c, 0, 67, 105
1, 178757, Note_off_c, 0, 80, 60
1, 178757, Control_c, 0, 67, 104
1, 178760, Note_on_c, 0, 78, 58
1, 178772, Control_c, 0, 67, 102
1, 178778, Note_on_c, 0, 36, 40
1, 178783, Note_off_c, 0, 35, 46
1, 178787, Control_c, 0, 67, 100
1, 178801, Control_c, 0, 64, 33
1, 178801, Control_c, 0, 67, 99
1, 178816, Control_c, 0, 64, 52
1, 178816, Control_c, 0, 67, 98
1, 178824, Note_off_c, 0, 36, 62
1, 178831, Control_c, 0, 64, 60
1, 178832, Note_off_c, 0, 78, 57
1, 178846, Control_c, 0, 64, 65
1, 178861, Control_c, 0, 64, 68
1, 178875, Control_c, 0, 64, 72
1, 178875, Control_c, 0, 67, 99
1, 178890, Control_c, 0, 64, 75
1, 178890, Control_c, 0, 67, 100
1, 178905, Control_c, 0, 64, 78
1, 178905, Control_c, 0, 67, 102
1, 178927, Control_c, 0, 64, 79
1, 178927, Control_c, 0, 67, 103
1, 178942, Control_c, 0, 67, 105
1, 178957, Control_c, 0, 64, 78
1, 178957, Control_c, 0, 67, 105
1, 178972, Control_c, 0, 64, 78
1, 178972, Control_c, 0, 67, 106
1, 178987, Control_c, 0, 64, 77
1, 178987, Control_c, 0, 67, 107
1, 179001, Control_c, 0, 64, 77
1, 179001, Control_c, 0, 67, 107
1, 179016, Control_c, 0, 64, 76
1, 179016, Control_c, 0, 67, 108
1, 179031, Control_c, 0, 64, 75
1, 179031, Control_c, 0, 67, 109
1, 179046, Control_c, 0, 64, 74
1, 179046, Control_c, 0, 67, 109
1, 179047, Note_on_c, 0, 77, 57
1, 179061, Control_c, 0, 64, 73
1, 179061, Control_c, 0, 67, 110
1, 179075, Control_c, 0, 64, 70
1, 179075, Control_c, 0, 67, 111
1, 179090, Control_c, 0, 64, 67
1, 179090, Control_c, 0, 67, 112
1, 179105, Control_c, 0, 64, 63
1, 179105, Control_c, 0, 67, 113
1, 179121, Control_c, 0, 64, 60
1, 179121, Control_c, 0, 67, 114
1, 179136, Control_c, 0, 64, 55
1, 179136, Control_c, 0, 67, 115
1, 179151, Control_c, 0, 64, 52
1, 179151, Control_c, 0, 67, 117
1, 179165, Control_c, 0, 64, 50
1, 179165, Control_c, 0, 67, 124
1, 179180, Control_c, 0, 64, 48
1, 179180, Control_c, 0, 67, 127
1, 179195, Control_c, 0, 64, 43
1, 179201, Note_on_c, 0, 49, 37
1, 179210, Control_c, 0, 64, 37
1, 179224, Control_c, 0, 64, 27
1, 179239, Control_c, 0, 64, 11
1, 179254, Control_c, 0, 64, 0
1, 179271, Note_off_c, 0, 49, 54
1, 179278, Note_on_c, 0, 41, 34
1, 179282, Poly_aftertouch_c, 0, 44, 127
1, 179319, Poly_aftertouch_c, 0, 44, 0
1, 179322, Note_off_c, 0, 41, 49
1, 179377, Note_on_c, 0, 37, 42
1, 179482, Note_on_c, 0, 41, 27
1, 179482, Note_on_c, 0, 44, 30
1, 179487, Note_on_c, 0, 49, 34
1, 179491, Control_c, 0, 64, 22
1, 179505, Control_c, 0, 64, 35
1, 179507, Note_off_c, 0, 37, 36
1, 179520, Control_c, 0, 64, 44
1, 179535, Control_c, 0, 64, 50
1, 179550, Control_c, 0, 64, 53
1, 179560, Note_off_c, 0, 49, 52
1, 179563, Note_off_c, 0, 44, 49
1, 179565, Control_c, 0, 64, 54
1, 179580, Control_c, 0, 64, 56
1, 179595, Control_c, 0, 64, 57
1, 179598, Note_on_c, 0, 37, 30
1, 179610, Control_c, 0, 64, 58
1, 179613, Note_off_c, 0, 41, 34
1, 179624, Control_c, 0, 64, 59
1, 179639, Control_c, 0, 64, 60
1, 179654, Control_c, 0, 64, 61
1, 179657, Note_off_c, 0, 77, 59
1, 179706, Note_off_c, 0, 37, 50
1, 179718, Note_on_c, 0, 41, 8
1, 179723, Note_on_c, 0, 49, 39
1, 179730, Note_on_c, 0, 44, 42
1, 179782, Note_off_c, 0, 49, 53
1, 179788, Note_off_c, 0, 44, 54
1, 179794, Control_c, 0, 67, 125
1, 179809, Control_c, 0, 67, 123
1, 179824, Control_c, 0, 67, 121
1, 179836, Note_off_c, 0, 41, 37
1, 179839, Control_c, 0, 67, 119
1, 179848, Note_on_c, 0, 37, 44
1, 179854, Control_c, 0, 67, 117
1, 179869, Control_c, 0, 67, 115
1, 179884, Control_c, 0, 67, 112
1, 179898, Control_c, 0, 67, 109
1, 179913, Control_c, 0, 67, 106
1, 179929, Control_c, 0, 67, 103
1, 179943, Note_off_c, 0, 37, 54
1, 179944, Control_c, 0, 64, 61
1, 179944, Control_c, 0, 67, 100
1, 179953, Note_on_c, 0, 41, 20
1, 179955, Note_on_c, 0, 44, 38
1, 179958, Control_c, 0, 67, 96
1, 179961, Note_on_c, 0, 49, 34
1, 179973, Control_c, 0, 64, 62
1, 179973, Control_c, 0, 67, 92
1, 179988, Control_c, 0, 64, 63
1, 179988, Control_c, 0, 67, 89
1, 180003, Control_c, 0, 64, 63
1, 180003, Control_c, 0, 67, 87
1, 180018, Control_c, 0, 64, 64
1, 180018, Control_c, 0, 67, 86
1, 180021, Note_off_c, 0, 49, 48
1, 180023, Note_off_c, 0, 44, 53
1, 180033, Control_c, 0, 64, 64
1, 180033, Control_c, 0, 67, 84
1, 180047, Control_c, 0, 64, 65
1, 180047, Control_c, 0, 67, 82
1, 180062, Control_c, 0, 64, 65
1, 180062, Control_c, 0, 67, 78
1, 180073, Note_on_c, 0, 37, 41
1, 180077, Control_c, 0, 64, 66
1, 180077, Control_c, 0, 67, 73
1, 180081, Note_off_c, 0, 41, 36
1, 180092, Control_c, 0, 64, 68
1, 180092, Control_c, 0, 67, 68
1, 180107, Control_c, 0, 64, 70
1, 180107, Control_c, 0, 67, 64
1, 180121, Control_c, 0, 64, 72
1, 180121, Control_c, 0, 67, 59
1, 180136, Control_c, 0, 64, 74
1, 180136, Control_c, 0, 67, 55
1, 180151, Control_c, 0, 64, 77
1, 180151, Control_c, 0, 67, 50
1, 180161, Note_off_c, 0, 37, 48
1, 180165, Control_c, 0, 64, 80
1, 180165, Control_c, 0, 67, 45
1, 180179, Note_on_c, 0, 65, 58
1, 180180, Control_c, 0, 64, 83
1, 180180, Control_c, 0, 67, 40
1, 180182, Note_on_c, 0, 41, 16
1, 180188, Note_on_c, 0, 49, 34
1, 180194, Note_on_c, 0, 44, 42
1, 180195, Control_c, 0, 64, 87
1, 180195, Control_c, 0, 67, 36
1, 180205, Note_on_c, 0, 53, 38
1, 180210, Control_c, 0, 64, 91
1, 180210, Control_c, 0, 67, 31
1, 180225, Control_c, 0, 64, 96
1, 180225, Control_c, 0, 67, 28
1, 180230, Note_off_c, 0, 65, 60
1, 180239, Note_off_c, 0, 53, 47
1, 180239, Control_c, 0, 64, 100
1, 180239, Control_c, 0, 67, 24
1, 180253, Note_off_c, 0, 44, 55
1, 180254, Control_c, 0, 64, 104
1, 180254, Control_c, 0, 67, 21
1, 180266, Note_off_c, 0, 49, 47
1, 180269, Control_c, 0, 64, 109
1, 180269, Control_c, 0, 67, 18
1, 180284, Control_c, 0, 64, 114
1, 180284, Control_c, 0, 67, 14
1, 180298, Note_off_c, 0, 41, 34
1, 180299, Control_c, 0, 64, 127
1, 180299, Control_c, 0, 67, 10
1, 180313, Control_c, 0, 67, 0
1, 180314, Note_on_c, 0, 37, 41
1, 180409, Note_on_c, 0, 44, 43
1, 180425, Note_on_c, 0, 41, 17
1, 180426, Note_off_c, 0, 37, 37
1, 180428, Note_on_c, 0, 49, 46
1, 180438, Note_on_c, 0, 68, 70
1, 180453, Note_on_c, 0, 56, 49
1, 180469, Note_off_c, 0, 68, 65
1, 180480, Note_off_c, 0, 56, 56
1, 180550, Note_off_c, 0, 49, 49
1, 180556, Note_on_c, 0, 37, 52
1, 180558, Control_c, 0, 64, 104
1, 180559, Note_on_c, 0, 73, 79
1, 180564, Note_off_c, 0, 41, 35
1, 180572, Control_c, 0, 64, 86
1, 180575, Note_off_c, 0, 44, 36
1, 180583, Note_on_c, 0, 61, 53
1, 180587, Control_c, 0, 64, 70
1, 180602, Control_c, 0, 64, 55
1, 180617, Control_c, 0, 64, 0
1, 180677, Control_c, 0, 64, 32
1, 180690, Note_on_c, 0, 49, 46
1, 180692, Control_c, 0, 64, 48
1, 180693, Note_on_c, 0, 44, 53
1, 180697, Note_on_c, 0, 41, 43
1, 180698, Note_off_c, 0, 37, 50
1, 180707, Control_c, 0, 64, 58
1, 180722, Control_c, 0, 64, 63
1, 180725, Note_off_c, 0, 61, 62
1, 180737, Control_c, 0, 64, 67
1, 180751, Control_c, 0, 64, 72
1, 180766, Control_c, 0, 64, 78
1, 180781, Control_c, 0, 64, 86
1, 180790, Note_off_c, 0, 41, 55
1, 180790, Note_off_c, 0, 44, 58
1, 180796, Control_c, 0, 64, 97
1, 180808, Note_on_c, 0, 37, 58
1, 180811, Control_c, 0, 64, 111
1, 180814, Note_off_c, 0, 49, 37
1, 180826, Control_c, 0, 64, 127
1, 180933, Note_off_c, 0, 73, 63
1, 180934, Note_on_c, 0, 77, 82
1, 180938, Note_off_c, 0, 37, 51
1, 180939, Note_on_c, 0, 41, 46
1, 180939, Note_on_c, 0, 49, 47
1, 180943, Note_on_c, 0, 44, 49
1, 180944, Note_on_c, 0, 65, 64
1, 180979, Note_off_c, 0, 41, 57
1, 180989, Note_off_c, 0, 77, 64
1, 181012, Note_off_c, 0, 65, 62
1, 181025, Note_off_c, 0, 44, 58
1, 181029, Note_off_c, 0, 49, 53
1, 181046, Note_on_c, 0, 37, 49
1, 181102, Note_on_c, 0, 41, 37
1, 181166, Note_on_c, 0, 44, 56
1, 181168, Note_off_c, 0, 37, 52
1, 181176, Note_off_c, 0, 41, 59
1, 181181, Note_on_c, 0, 49, 48
1, 181208, Note_on_c, 0, 61, 80
1, 181210, Note_on_c, 0, 73, 81
1, 181246, Note_off_c, 0, 44, 54
1, 181248, Control_c, 0, 64, 119
1, 181257, Note_off_c, 0, 49, 58
1, 181262, Control_c, 0, 64, 110
1, 181267, Note_off_c, 0, 73, 66
1, 181269, Note_off_c, 0, 61, 60
1, 181277, Control_c, 0, 64, 101
1, 181292, Control_c, 0, 64, 91
1, 181307, Control_c, 0, 64, 74
1, 181319, Note_on_c, 0, 72, 78
1, 181321, Note_on_c, 0, 39, 57
1, 181322, Control_c, 0, 64, 60
1, 181334, Note_on_c, 0, 60, 63
1, 181337, Control_c, 0, 64, 0
1, 181448, Note_on_c, 0, 51, 56
1, 181451, Note_off_c, 0, 39, 60
1, 181455, Control_c, 0, 64, 17
1, 181456, Note_on_c, 0, 42, 46
1, 181462, Note_on_c, 0, 44, 44
1, 181470, Control_c, 0, 64, 47
1, 181472, Note_off_c, 0, 60, 57
1, 181485, Control_c, 0, 64, 60
1, 181500, Control_c, 0, 64, 64
1, 181515, Control_c, 0, 64, 68
1, 181520, Note_off_c, 0, 42, 53
1, 181530, Control_c, 0, 64, 72
1, 181545, Control_c, 0, 64, 78
1, 181560, Control_c, 0, 64, 83
1, 181562, Note_off_c, 0, 44, 58
1, 181573, Note_on_c, 0, 39, 57
1, 181574, Control_c, 0, 64, 89
1, 181589, Control_c, 0, 64, 95
1, 181592, Note_off_c, 0, 51, 34
1, 181604, Control_c, 0, 64, 97
1, 181634, Control_c, 0, 64, 96
1, 181649, Control_c, 0, 64, 93
1, 181663, Control_c, 0, 64, 88
1, 181678, Control_c, 0, 64, 77
1, 181693, Control_c, 0, 64, 64
1, 181695, Note_off_c, 0, 39, 59
1, 181699, Note_on_c, 0, 51, 55
1, 181699, Note_on_c, 0, 75, 79
1, 181708, Control_c, 0, 64, 38
1, 181708, Note_on_c, 0, 63, 57
1, 181710, Note_on_c, 0, 44, 47
1, 181723, Control_c, 0, 64, 0
1, 181732, Note_off_c, 0, 72, 62
1, 181762, Poly_aftertouch_c, 0, 42, 127
1, 181782, Note_off_c, 0, 44, 59
1, 181782, Control_c, 0, 64, 32
1, 181783, Note_off_c, 0, 51, 54
1, 181795, Poly_aftertouch_c, 0, 42, 0
1, 181797, Control_c, 0, 64, 53
1, 181804, Note_off_c, 0, 75, 62
1, 181810, Note_on_c, 0, 39, 57
1, 181811, Control_c, 0, 64, 62
1, 181823, Note_off_c, 0, 63, 60
1, 181826, Control_c, 0, 64, 67
1, 181841, Control_c, 0, 64, 71
1, 181856, Control_c, 0, 64, 79
1, 181871, Control_c, 0, 64, 86
1, 181885, Control_c, 0, 64, 94
1, 181900, Control_c, 0, 64, 104
1, 181920, Note_off_c, 0, 39, 49
1, 181921, Note_on_c, 0, 44, 46
1, 181923, Control_c, 0, 64, 119
1, 181938, Control_c, 0, 64, 127
1, 181959, Note_on_c, 0, 51, 50
1, 181959, Note_off_c, 0, 44, 61
1, 181972, Note_on_c, 0, 72, 75
1, 181978, Note_on_c, 0, 60, 62
1, 181982, Control_c, 0, 64, 121
1, 181997, Control_c, 0, 64, 112
1, 182000, Note_off_c, 0, 60, 64
1, 182000, Note_off_c, 0, 51, 63
1, 182012, Control_c, 0, 64, 105
1, 182026, Control_c, 0, 64, 99
1, 182041, Control_c, 0, 64, 90
1, 182056, Control_c, 0, 64, 78
1, 182057, Note_off_c, 0, 72, 61
1, 182069, Note_on_c, 0, 73, 71
1, 182071, Note_on_c, 0, 41, 52
1, 182071, Control_c, 0, 64, 67
1, 182086, Control_c, 0, 64, 52
1, 182090, Note_on_c, 0, 61, 53
1, 182100, Control_c, 0, 64, 0
1, 182165, Note_off_c, 0, 41, 55
1, 182183, Note_on_c, 0, 53, 51
1, 182193, Note_on_c, 0, 49, 42
1, 182218, Control_c, 0, 64, 32
1, 182222, Note_off_c, 0, 73, 64
1, 182229, Poly_aftertouch_c, 0, 44, 127
1, 182233, Control_c, 0, 64, 56
1, 182248, Control_c, 0, 64, 64
1, 182260, Note_off_c, 0, 61, 59
1, 182263, Control_c, 0, 64, 68
1, 182266, Note_off_c, 0, 49, 56
1, 182273, Note_off_c, 0, 53, 53
1, 182278, Control_c, 0, 64, 74
1, 182283, Poly_aftertouch_c, 0, 44, 0
1, 182292, Control_c, 0, 64, 81
1, 182307, Control_c, 0, 64, 88
1, 182313, Note_on_c, 0, 41, 52
1, 182323, Control_c, 0, 64, 97
1, 182338, Control_c, 0, 64, 104
1, 182353, Control_c, 0, 64, 110
1, 182368, Control_c, 0, 64, 111
1, 182383, Control_c, 0, 64, 109
1, 182397, Control_c, 0, 64, 105
1, 182412, Control_c, 0, 64, 100
1, 182427, Control_c, 0, 64, 96
1, 182436, Note_off_c, 0, 41, 52
1, 182442, Control_c, 0, 64, 92
1, 182450, Note_on_c, 0, 53, 38
1, 182451, Note_on_c, 0, 49, 37
1, 182456, Control_c, 0, 64, 86
1, 182464, Note_on_c, 0, 68, 59
1, 182469, Note_on_c, 0, 44, 30
1, 182471, Control_c, 0, 64, 78
1, 182472, Note_on_c, 0, 56, 42
1, 182486, Control_c, 0, 64, 70
1, 182501, Control_c, 0, 64, 62
1, 182516, Control_c, 0, 64, 48
1, 182528, Note_off_c, 0, 49, 53
1, 182531, Control_c, 0, 64, 35
1, 182542, Note_off_c, 0, 53, 42
1, 182546, Control_c, 0, 64, 28
1, 182560, Control_c, 0, 64, 26
1, 182575, Control_c, 0, 64, 21
1, 182579, Note_on_c, 0, 41, 50
1, 182590, Note_off_c, 0, 44, 35
1, 182590, Control_c, 0, 64, 0
1, 182697, Note_off_c, 0, 41, 58
1, 182712, Note_on_c, 0, 49, 34
1, 182716, Note_on_c, 0, 53, 43
1, 182721, Note_on_c, 0, 44, 9
1, 182795, Note_off_c, 0, 53, 57
1, 182798, Note_off_c, 0, 49, 56
1, 182828, Note_on_c, 0, 41, 53
1, 182879, Control_c, 0, 64, 37
1, 182894, Control_c, 0, 64, 54
1, 182909, Control_c, 0, 64, 61
1, 182912, Note_off_c, 0, 41, 60
1, 182923, Control_c, 0, 64, 64
1, 182938, Control_c, 0, 64, 66
1, 182945, Note_on_c, 0, 53, 50
1, 182953, Control_c, 0, 64, 68
1, 182954, Note_on_c, 0, 49, 44
1, 182967, Control_c, 0, 64, 70
1, 182982, Note_off_c, 0, 68, 55
1, 182982, Control_c, 0, 64, 74
1, 182990, Note_off_c, 0, 56, 35
1, 182997, Control_c, 0, 64, 78
1, 183012, Control_c, 0, 64, 84
1, 183027, Control_c, 0, 64, 90
1, 183038, Note_on_c, 0, 41, 54
1, 183041, Note_off_c, 0, 53, 61
1, 183041, Control_c, 0, 64, 97
1, 183052, Note_off_c, 0, 49, 61
1, 183056, Control_c, 0, 64, 102
1, 183071, Control_c, 0, 64, 104
1, 183074, Note_off_c, 0, 44, 40
1, 183079, Note_off_c, 0, 41, 63
1, 183086, Control_c, 0, 64, 104
1, 183101, Control_c, 0, 64, 103
1, 183117, Control_c, 0, 64, 102
1, 183131, Control_c, 0, 64, 99
1, 183146, Control_c, 0, 64, 94
1, 183161, Control_c, 0, 64, 85
1, 183174, Note_on_c, 0, 70, 68
1, 183176, Control_c, 0, 64, 74
1, 183187, Note_on_c, 0, 54, 56
1, 183187, Note_on_c, 0, 49, 44
1, 183190, Control_c, 0, 64, 63
1, 183198, Note_on_c, 0, 58, 48
1, 183205, Control_c, 0, 64, 38
1, 183210, Note_on_c, 0, 51, 34
1, 183220, Control_c, 0, 64, 0
1, 183262, Note_off_c, 0, 51, 46
1, 183276, Note_off_c, 0, 54, 56
1, 183279, Note_off_c, 0, 49, 60
1, 183308, Note_on_c, 0, 42, 54
1, 183309, Control_c, 0, 64, 33
1, 183324, Control_c, 0, 64, 54
1, 183330, Note_off_c, 0, 58, 59
1, 183339, Control_c, 0, 64, 63
1, 183354, Control_c, 0, 64, 68
1, 183369, Control_c, 0, 64, 74
1, 183383, Control_c, 0, 64, 81
1, 183398, Control_c, 0, 64, 90
1, 183402, Note_off_c, 0, 42, 60
1, 183420, Note_on_c, 0, 49, 47
1, 183420, Control_c, 0, 64, 101
1, 183421, Note_on_c, 0, 51, 55
1, 183421, Note_on_c, 0, 54, 56
1, 183435, Control_c, 0, 64, 127
1, 183452, Note_on_c, 0, 66, 71
1, 183460, Note_off_c, 0, 70, 56
1, 183500, Note_off_c, 0, 54, 61
1, 183509, Control_c, 0, 64, 123
1, 183524, Control_c, 0, 64, 106
1, 183533, Note_off_c, 0, 51, 49
1, 183538, Control_c, 0, 64, 92
1, 183545, Note_on_c, 0, 65, 72
1, 183553, Control_c, 0, 64, 81
1, 183556, Note_off_c, 0, 66, 52
1, 183559, Note_on_c, 0, 44, 62
1, 183568, Control_c, 0, 64, 71
1, 183582, Note_off_c, 0, 49, 35
1, 183583, Control_c, 0, 64, 62
1, 183598, Control_c, 0, 64, 44
1, 183613, Control_c, 0, 64, 0
1, 183678, Note_on_c, 0, 53, 56
1, 183687, Note_off_c, 0, 44, 59
1, 183688, Note_on_c, 0, 56, 55
1, 183703, Note_on_c, 0, 49, 40
1, 183762, Control_c, 0, 64, 9
1, 183777, Control_c, 0, 64, 40
1, 183791, Control_c, 0, 64, 53
1, 183799, Note_off_c, 0, 49, 57
1, 183799, Note_off_c, 0, 56, 37
1, 183806, Control_c, 0, 64, 60
1, 183812, Note_on_c, 0, 44, 63
1, 183814, Note_off_c, 0, 53, 59
1, 183821, Control_c, 0, 64, 64
1, 183836, Control_c, 0, 64, 65
1, 183851, Control_c, 0, 64, 66
1, 183865, Control_c, 0, 64, 68
1, 183880, Control_c, 0, 64, 69
1, 183895, Control_c, 0, 64, 71
1, 183911, Control_c, 0, 64, 74
1, 183921, Note_on_c, 0, 68, 86
1, 183926, Control_c, 0, 64, 76
1, 183929, Note_on_c, 0, 56, 56
1, 183931, Note_off_c, 0, 44, 62
1, 183931, Note_off_c, 0, 65, 62
1, 183932, Note_on_c, 0, 53, 61
1, 183941, Control_c, 0, 64, 78
1, 183944, Note_on_c, 0, 49, 48
1, 183955, Control_c, 0, 64, 79
1, 183970, Control_c, 0, 64, 80
1, 183982, Note_off_c, 0, 49, 62
1, 184018, Note_off_c, 0, 53, 55
1, 184026, Note_on_c, 0, 44, 61
1, 184033, Note_off_c, 0, 56, 38
1, 184088, Control_c, 0, 64, 79
1, 184098, Note_on_c, 0, 49, 44
1, 184103, Control_c, 0, 64, 79
1, 184118, Control_c, 0, 64, 78
1, 184133, Control_c, 0, 64, 78
1, 184138, Note_on_c, 0, 53, 66
1, 184148, Control_c, 0, 64, 77
1, 184152, Note_on_c, 0, 56, 67
1, 184165, Note_off_c, 0, 44, 51
1, 184170, Control_c, 0, 64, 77
1, 184182, Note_on_c, 0, 65, 85
1, 184185, Control_c, 0, 64, 76
1, 184200, Control_c, 0, 64, 76
1, 184214, Control_c, 0, 64, 75
1, 184225, Note_off_c, 0, 49, 62
1, 184229, Control_c, 0, 64, 73
1, 184244, Control_c, 0, 64, 71
1, 184255, Note_off_c, 0, 68, 59
1, 184258, Note_off_c, 0, 53, 62
1, 184259, Control_c, 0, 64, 68
1, 184274, Control_c, 0, 64, 64
1, 184279, Note_off_c, 0, 56, 57
1, 184284, Note_on_c, 0, 63, 88
1, 184286, Note_on_c, 0, 44, 59
1, 184288, Control_c, 0, 64, 57
1, 184302, Note_off_c, 0, 65, 62
1, 184303, Control_c, 0, 64, 48
1, 184318, Control_c, 0, 64, 37
1, 184333, Control_c, 0, 64, 20
1, 184348, Control_c, 0, 64, 0
1, 184399, Note_on_c, 0, 51, 61
1, 184403, Note_on_c, 0, 56, 61
1, 184406, Note_off_c, 0, 44, 63
1, 184411, Note_on_c, 0, 48, 47
1, 184507, Note_off_c, 0, 48, 53
1, 184510, Note_on_c, 0, 44, 67
1, 184523, Note_off_c, 0, 51, 58
1, 184524, Note_off_c, 0, 56, 55
1, 184634, Note_on_c, 0, 51, 67
1, 184639, Note_off_c, 0, 44, 62
1, 184643, Note_on_c, 0, 56, 67
1, 184644, Note_on_c, 0, 48, 53
1, 184650, Note_on_c, 0, 66, 86
1, 184683, Note_off_c, 0, 63, 58
1, 184714, Note_off_c, 0, 48, 51
1, 184731, Note_off_c, 0, 56, 61
1, 184733, Control_c, 0, 64, 34
1, 184748, Control_c, 0, 64, 56
1, 184749, Note_off_c, 0, 51, 64
1, 184758, Note_on_c, 0, 44, 74
1, 184763, Control_c, 0, 64, 64
1, 184778, Control_c, 0, 64, 69
1, 184792, Control_c, 0, 64, 76
1, 184807, Control_c, 0, 64, 85
1, 184822, Control_c, 0, 64, 99
1, 184833, Note_on_c, 0, 48, 16
1, 184836, Control_c, 0, 64, 123
1, 184851, Control_c, 0, 64, 127
1, 184855, Note_on_c, 0, 51, 74
1, 184856, Note_on_c, 0, 56, 73
1, 184881, Control_c, 0, 64, 113
1, 184895, Note_off_c, 0, 44, 55
1, 184896, Control_c, 0, 64, 106
1, 184900, Note_on_c, 0, 63, 85
1, 184918, Control_c, 0, 64, 100
1, 184933, Control_c, 0, 64, 92
1, 184948, Note_off_c, 0, 66, 57
1, 184948, Control_c, 0, 64, 83
1, 184963, Control_c, 0, 64, 75
1, 184978, Control_c, 0, 64, 67
1, 184978, Note_off_c, 0, 56, 63
1, 184990, Note_off_c, 0, 51, 64
1, 184992, Control_c, 0, 64, 62
1, 185007, Control_c, 0, 64, 56
1, 185016, Note_off_c, 0, 48, 34
1, 185022, Control_c, 0, 64, 52
1, 185037, Note_on_c, 0, 45, 61
1, 185037, Control_c, 0, 64, 51
1, 185040, Note_on_c, 0, 60, 85
1, 185052, Control_c, 0, 64, 50
1, 185067, Control_c, 0, 64, 45
1, 185082, Control_c, 0, 64, 35
1, 185097, Control_c, 0, 64, 17
1, 185109, Note_off_c, 0, 63, 52
1, 185112, Control_c, 0, 64, 0
1, 185168, Note_off_c, 0, 45, 59
1, 185176, Note_on_c, 0, 53, 49
1, 185177, Note_on_c, 0, 48, 46
1, 185178, Note_on_c, 0, 57, 53
1, 185276, Note_off_c, 0, 48, 56
1, 185279, Note_off_c, 0, 53, 58
1, 185285, Note_off_c, 0, 57, 55
1, 185304, Note_on_c, 0, 45, 50
1, 185377, Control_c, 0, 67, 13
1, 185392, Control_c, 0, 67, 23
1, 185404, Note_off_c, 0, 45, 58
1, 185407, Control_c, 0, 67, 33
1, 185419, Note_on_c, 0, 57, 50
1, 185422, Control_c, 0, 67, 40
1, 185424, Note_on_c, 0, 53, 47
1, 185424, Note_on_c, 0, 65, 70
1, 185432, Note_on_c, 0, 48, 43
1, 185436, Control_c, 0, 67, 46
1, 185451, Control_c, 0, 67, 52
1, 185466, Control_c, 0, 67, 55
1, 185481, Control_c, 0, 67, 57
1, 185494, Note_off_c, 0, 60, 57
1, 185496, Control_c, 0, 67, 58
1, 185503, Note_off_c, 0, 53, 53
1, 185511, Note_off_c, 0, 57, 49
1, 185514, Note_off_c, 0, 48, 54
1, 185542, Note_on_c, 0, 45, 53
1, 185571, Control_c, 0, 67, 57
1, 185586, Control_c, 0, 67, 56
1, 185601, Control_c, 0, 67, 55
1, 185615, Control_c, 0, 67, 55
1, 185630, Control_c, 0, 67, 54
1, 185645, Control_c, 0, 67, 53
1, 185661, Note_off_c, 0, 45, 57
1, 185667, Control_c, 0, 67, 52
1, 185670, Note_on_c, 0, 57, 43
1, 185682, Control_c, 0, 67, 51
1, 185682, Note_on_c, 0, 53, 43
1, 185688, Note_on_c, 0, 48, 36
1, 185697, Control_c, 0, 67, 50
1, 185712, Control_c, 0, 67, 49
1, 185726, Control_c, 0, 67, 48
1, 185741, Control_c, 0, 67, 47
1, 185744, Note_off_c, 0, 53, 54
1, 185755, Note_off_c, 0, 57, 52
1, 185756, Control_c, 0, 67, 45
1, 185771, Control_c, 0, 67, 43
1, 185782, Note_off_c, 0, 48, 52
1, 185785, Control_c, 0, 67, 40
1, 185796, Note_on_c, 0, 45, 54
1, 185800, Control_c, 0, 64, 37
1, 185800, Control_c, 0, 67, 37
1, 185815, Control_c, 0, 64, 51
1, 185815, Control_c, 0, 67, 35
1, 185830, Control_c, 0, 64, 59
1, 185830, Control_c, 0, 67, 32
1, 185845, Control_c, 0, 64, 63
1, 185845, Control_c, 0, 67, 30
1, 185859, Control_c, 0, 64, 65
1, 185859, Control_c, 0, 67, 28
1, 185874, Note_off_c, 0, 65, 62
1, 185874, Control_c, 0, 64, 67
1, 185874, Control_c, 0, 67, 26
1, 185889, Control_c, 0, 64, 68
1, 185889, Control_c, 0, 67, 23
1, 185895, Note_off_c, 0, 45, 60
1, 185904, Control_c, 0, 64, 70
1, 185904, Control_c, 0, 67, 18
1, 185908, Note_on_c, 0, 57, 43
1, 185919, Control_c, 0, 64, 71
1, 185919, Control_c, 0, 67, 16
1, 185929, Note_on_c, 0, 53, 33
1, 185933, Control_c, 0, 64, 72
1, 185933, Control_c, 0, 67, 14
1, 185948, Control_c, 0, 64, 73
1, 185958, Note_on_c, 0, 48, 35
1, 185963, Control_c, 0, 64, 74
1, 185980, Note_off_c, 0, 57, 47
1, 185995, Note_off_c, 0, 48, 53
1, 186013, Note_on_c, 0, 45, 54
1, 186019, Note_off_c, 0, 53, 36
1, 186037, Control_c, 0, 67, 15
1, 186051, Note_off_c, 0, 45, 63
1, 186052, Control_c, 0, 64, 73
1, 186066, Control_c, 0, 64, 72
1, 186081, Control_c, 0, 64, 67
1, 186081, Control_c, 0, 67, 16
1, 186096, Control_c, 0, 64, 58
1, 186111, Control_c, 0, 64, 18
1, 186126, Control_c, 0, 64, 0
1, 186141, Note_on_c, 0, 73, 69
1, 186157, Note_on_c, 0, 53, 38
1, 186157, Note_on_c, 0, 61, 48
1, 186164, Note_on_c, 0, 58, 44
1, 186167, Note_on_c, 0, 49, 39
1, 186171, Control_c, 0, 67, 15
1, 186185, Control_c, 0, 64, 34
1, 186185, Control_c, 0, 67, 14
1, 186200, Control_c, 0, 64, 54
1, 186200, Control_c, 0, 67, 14
1, 186209, Note_off_c, 0, 53, 55
1, 186209, Note_off_c, 0, 58, 61
1, 186213, Note_off_c, 0, 61, 61
1, 186215, Control_c, 0, 64, 63
1, 186215, Control_c, 0, 67, 13
1, 186220, Note_off_c, 0, 49, 58
1, 186230, Control_c, 0, 64, 68
1, 186230, Control_c, 0, 67, 12
1, 186245, Control_c, 0, 64, 73
1, 186245, Control_c, 0, 67, 11
1, 186257, Note_on_c, 0, 46, 47
1, 186259, Control_c, 0, 64, 78
1, 186259, Control_c, 0, 67, 11
1, 186274, Control_c, 0, 64, 84
1, 186274, Control_c, 0, 67, 10
1, 186289, Control_c, 0, 64, 89
1, 186289, Control_c, 0, 67, 9
1, 186305, Control_c, 0, 64, 93
1, 186305, Control_c, 0, 67, 0
1, 186320, Control_c, 0, 64, 94
1, 186350, Note_off_c, 0, 73, 23
1, 186355, Note_off_c, 0, 46, 58
1, 186377, Note_on_c, 0, 49, 30
1, 186379, Note_on_c, 0, 53, 39
1, 186382, Note_on_c, 0, 58, 45
1, 186401, Note_on_c, 0, 77, 66
1, 186403, Note_on_c, 0, 65, 60
1, 186430, Note_off_c, 0, 65, 64
1, 186438, Note_off_c, 0, 77, 66
1, 186445, Control_c, 0, 64, 93
1, 186457, Note_off_c, 0, 58, 53
1, 186458, Note_off_c, 0, 49, 39
1, 186460, Note_off_c, 0, 53, 51
1, 186460, Control_c, 0, 64, 91
1, 186475, Control_c, 0, 64, 88
1, 186490, Control_c, 0, 64, 83
1, 186504, Control_c, 0, 64, 73
1, 186506, Note_on_c, 0, 46, 51
1, 186510, Note_on_c, 0, 82, 77
1, 186519, Control_c, 0, 64, 59
1, 186534, Control_c, 0, 64, 0
1, 186537, Note_on_c, 0, 70, 42
1, 186612, Note_off_c, 0, 46, 59
1, 186623, Control_c, 0, 64, 25
1, 186630, Note_on_c, 0, 49, 36
1, 186630, Note_on_c, 0, 58, 44
1, 186638, Control_c, 0, 64, 49
1, 186642, Note_on_c, 0, 53, 41
1, 186653, Control_c, 0, 64, 60
1, 186668, Control_c, 0, 64, 64
1, 186680, Note_off_c, 0, 70, 63
1, 186682, Control_c, 0, 64, 68
1, 186693, Note_off_c, 0, 58, 57
1, 186697, Note_off_c, 0, 53, 56
1, 186697, Control_c, 0, 64, 71
1, 186709, Note_off_c, 0, 49, 55
1, 186712, Control_c, 0, 64, 76
1, 186727, Control_c, 0, 64, 80
1, 186742, Control_c, 0, 64, 84
1, 186746, Note_on_c, 0, 46, 52
1, 186755, Control_c, 0, 64, 87
1, 186770, Control_c, 0, 64, 89
1, 186785, Control_c, 0, 64, 91
1, 186800, Control_c, 0, 64, 91
1, 186814, Control_c, 0, 64, 92
1, 186829, Control_c, 0, 64, 93
1, 186844, Control_c, 0, 64, 94
1, 186847, Note_off_c, 0, 46, 55
1, 186859, Control_c, 0, 64, 95
1, 186862, Note_on_c, 0, 58, 51
1, 186874, Note_on_c, 0, 49, 31
1, 186874, Control_c, 0, 64, 96
1, 186877, Note_on_c, 0, 53, 36
1, 186877, Note_on_c, 0, 85, 76
1, 186878, Note_off_c, 0, 82, 64
1, 186883, Note_on_c, 0, 73, 69
1, 186889, Control_c, 0, 64, 99
1, 186904, Control_c, 0, 64, 102
1, 186908, Note_off_c, 0, 85, 57
1, 186918, Note_off_c, 0, 73, 65
1, 186919, Control_c, 0, 64, 105
1, 186922, Note_off_c, 0, 53, 51
1, 186928, Note_off_c, 0, 58, 56
1, 186934, Control_c, 0, 64, 109
1, 186943, Note_off_c, 0, 49, 42
1, 186949, Control_c, 0, 64, 113
1, 186963, Control_c, 0, 64, 118
1, 186978, Note_on_c, 0, 46, 59
1, 186978, Control_c, 0, 64, 123
1, 186993, Control_c, 0, 64, 127
1, 187031, Note_on_c, 0, 49, 26
1, 187071, Note_on_c, 0, 53, 50
1, 187079, Note_off_c, 0, 46, 60
1, 187084, Note_on_c, 0, 58, 51
1, 187094, Note_off_c, 0, 49, 54
1, 187164, Note_on_c, 0, 82, 82
1, 187167, Note_on_c, 0, 70, 72
1, 187179, Note_off_c, 0, 58, 61
1, 187179, Control_c, 0, 64, 123
1, 187192, Note_off_c, 0, 53, 52
1, 187193, Control_c, 0, 64, 116
1, 187208, Control_c, 0, 64, 110
1, 187209, Note_off_c, 0, 82, 68
1, 187215, Note_off_c, 0, 70, 61
1, 187223, Control_c, 0, 64, 101
1, 187236, Note_on_c, 0, 48, 58
1, 187238, Control_c, 0, 64, 90
1, 187252, Note_on_c, 0, 81, 71
1, 187253, Control_c, 0, 64, 74
1, 187256, Note_on_c, 0, 69, 68
1, 187268, Control_c, 0, 64, 55
1, 187282, Control_c, 0, 64, 0
1, 187363, Note_off_c, 0, 48, 61
1, 187369, Note_on_c, 0, 53, 43
1, 187370, Note_on_c, 0, 60, 56
1, 187373, Note_on_c, 0, 51, 46
1, 187386, Control_c, 0, 64, 44
1, 187401, Control_c, 0, 64, 60
1, 187403, Note_off_c, 0, 69, 55
1, 187416, Control_c, 0, 64, 68
1, 187430, Control_c, 0, 64, 76
1, 187445, Control_c, 0, 64, 94
1, 187455, Note_off_c, 0, 60, 54
1, 187460, Control_c, 0, 64, 127
1, 187468, Note_off_c, 0, 51, 57
1, 187468, Note_off_c, 0, 53, 57
1, 187490, Note_on_c, 0, 48, 60
1, 187605, Note_on_c, 0, 60, 56
1, 187605, Note_off_c, 0, 48, 59
1, 187609, Note_on_c, 0, 84, 84
1, 187611, Note_on_c, 0, 53, 49
1, 187611, Note_off_c, 0, 81, 64
1, 187620, Note_on_c, 0, 51, 42
1, 187627, Note_on_c, 0, 72, 64
1, 187670, Note_off_c, 0, 84, 64
1, 187670, Note_off_c, 0, 51, 56
1, 187673, Note_off_c, 0, 72, 57
1, 187677, Note_off_c, 0, 60, 54
1, 187688, Note_off_c, 0, 53, 57
1, 187725, Note_on_c, 0, 48, 60
1, 187795, Note_off_c, 0, 48, 60
1, 187807, Note_on_c, 0, 51, 16
1, 187828, Note_on_c, 0, 53, 25
1, 187833, Note_on_c, 0, 60, 55
1, 187837, Note_off_c, 0, 51, 0
1, 187858, Poly_aftertouch_c, 0, 51, 0
1, 187859, Note_off_c, 0, 53, 56
1, 187873, Note_on_c, 0, 81, 74
1, 187875, Note_on_c, 0, 69, 72
1, 187908, Note_off_c, 0, 69, 68
1, 187929, Control_c, 0, 64, 102
1, 187931, Note_off_c, 0, 60, 55
1, 187943, Control_c, 0, 64, 80
1, 187958, Control_c, 0, 64, 63
1, 187973, Control_c, 0, 64, 0
1, 187980, Note_on_c, 0, 82, 78
1, 187980, Note_off_c, 0, 81, 58
1, 187989, Note_on_c, 0, 49, 54
1, 187993, Note_on_c, 0, 70, 62
1, 188087, Note_off_c, 0, 49, 60
1, 188088, Note_on_c, 0, 58, 49
1, 188106, Control_c, 0, 64, 48
1, 188108, Note_on_c, 0, 61, 49
1, 188115, Note_on_c, 0, 53, 27
1, 188118, Note_off_c, 0, 82, 65
1, 188121, Control_c, 0, 64, 60
1, 188135, Control_c, 0, 64, 65
1, 188150, Control_c, 0, 64, 69
1, 188159, Note_off_c, 0, 70, 61
1, 188162, Note_off_c, 0, 61, 55
1, 188165, Control_c, 0, 64, 74
1, 188168, Note_off_c, 0, 53, 47
1, 188174, Note_off_c, 0, 58, 55
1, 188180, Control_c, 0, 64, 79
1, 188195, Control_c, 0, 64, 85
1, 188210, Control_c, 0, 64, 90
1, 188218, Note_on_c, 0, 49, 50
1, 188224, Control_c, 0, 64, 95
1, 188239, Control_c, 0, 64, 98
1, 188269, Control_c, 0, 64, 97
1, 188284, Control_c, 0, 64, 94
1, 188299, Control_c, 0, 64, 92
1, 188314, Control_c, 0, 64, 90
1, 188321, Note_off_c, 0, 49, 60
1, 188328, Control_c, 0, 64, 87
1, 188341, Note_on_c, 0, 58, 44
1, 188343, Control_c, 0, 64, 85
1, 188345, Note_on_c, 0, 61, 45
1, 188346, Note_on_c, 0, 77, 68
1, 188356, Note_on_c, 0, 65, 57
1, 188358, Control_c, 0, 64, 83
1, 188368, Note_on_c, 0, 53, 26
1, 188373, Control_c, 0, 64, 79
1, 188387, Control_c, 0, 64, 76
1, 188402, Control_c, 0, 64, 71
1, 188417, Control_c, 0, 64, 67
1, 188428, Note_off_c, 0, 61, 55
1, 188429, Note_off_c, 0, 58, 52
1, 188432, Control_c, 0, 64, 63
1, 188447, Control_c, 0, 64, 57
1, 188452, Note_off_c, 0, 53, 37
1, 188459, Note_on_c, 0, 49, 50
1, 188461, Control_c, 0, 64, 47
1, 188476, Control_c, 0, 64, 37
1, 188491, Control_c, 0, 64, 29
1, 188506, Control_c, 0, 64, 20
1, 188521, Control_c, 0, 64, 0
1, 188566, Note_on_c, 0, 61, 50
1, 188567, Note_off_c, 0, 49, 60
1, 188573, Note_on_c, 0, 58, 47
1, 188587, Note_on_c, 0, 53, 42
1, 188655, Note_off_c, 0, 61, 55
1, 188656, Note_off_c, 0, 58, 50
1, 188672, Note_off_c, 0, 53, 57
1, 188692, Note_on_c, 0, 49, 59
1, 188751, Control_c, 0, 64, 30
1, 188766, Control_c, 0, 64, 48
1, 188773, Note_off_c, 0, 65, 59
1, 188780, Note_off_c, 0, 77, 62
1, 188781, Control_c, 0, 64, 57
1, 188790, Note_on_c, 0, 61, 53
1, 188796, Control_c, 0, 64, 62
1, 188800, Note_off_c, 0, 49, 63
1, 188811, Control_c, 0, 64, 65
1, 188812, Note_on_c, 0, 58, 53
1, 188826, Control_c, 0, 64, 67
1, 188828, Note_on_c, 0, 53, 36
1, 188840, Control_c, 0, 64, 69
1, 188855, Control_c, 0, 64, 71
1, 188870, Control_c, 0, 64, 73
1, 188875, Note_off_c, 0, 61, 58
1, 188884, Control_c, 0, 64, 76
1, 188898, Note_off_c, 0, 53, 57
1, 188899, Control_c, 0, 64, 79
1, 188904, Note_off_c, 0, 58, 59
1, 188910, Note_on_c, 0, 49, 70
1, 188914, Control_c, 0, 64, 82
1, 188929, Control_c, 0, 64, 84
1, 188944, Control_c, 0, 64, 85
1, 188967, Note_off_c, 0, 49, 53
1, 188973, Control_c, 0, 64, 84
1, 188988, Control_c, 0, 64, 82
1, 189003, Control_c, 0, 64, 78
1, 189018, Control_c, 0, 64, 72
1, 189032, Control_c, 0, 64, 61
1, 189033, Note_on_c, 0, 78, 79
1, 189044, Note_on_c, 0, 63, 62
1, 189044, Note_on_c, 0, 66, 60
1, 189047, Note_on_c, 0, 58, 48
1, 189047, Control_c, 0, 64, 24
1, 189061, Note_on_c, 0, 54, 49
1, 189062, Control_c, 0, 64, 0
1, 189130, Note_off_c, 0, 63, 53
1, 189144, Note_off_c, 0, 58, 61
1, 189145, Note_on_c, 0, 51, 71
1, 189149, Note_off_c, 0, 54, 58
1, 189151, Control_c, 0, 64, 34
1, 189166, Control_c, 0, 64, 55
1, 189174, Note_off_c, 0, 66, 61
1, 189181, Control_c, 0, 64, 64
1, 189196, Control_c, 0, 64, 69
1, 189210, Control_c, 0, 64, 79
1, 189225, Control_c, 0, 64, 89
1, 189240, Control_c, 0, 64, 103
1, 189255, Control_c, 0, 64, 127
1, 189257, Note_on_c, 0, 58, 71
1, 189262, Note_on_c, 0, 63, 62
1, 189266, Note_off_c, 0, 51, 63
1, 189293, Note_off_c, 0, 78, 55
1, 189298, Note_on_c, 0, 75, 83
1, 189318, Note_off_c, 0, 58, 60
1, 189333, Note_off_c, 0, 63, 62
1, 189358, Control_c, 0, 64, 109
1, 189373, Control_c, 0, 64, 93
1, 189381, Note_on_c, 0, 73, 87
1, 189388, Control_c, 0, 64, 75
1, 189402, Note_on_c, 0, 53, 64
1, 189403, Note_off_c, 0, 75, 59
1, 189410, Control_c, 0, 64, 56
1, 189425, Control_c, 0, 64, 0
1, 189518, Note_off_c, 0, 53, 60
1, 189523, Note_on_c, 0, 58, 56
1, 189523, Note_on_c, 0, 65, 59
1, 189524, Note_on_c, 0, 61, 59
1, 189560, Control_c, 0, 64, 21
1, 189574, Control_c, 0, 64, 44
1, 189589, Control_c, 0, 64, 57
1, 189604, Control_c, 0, 64, 63
1, 189619, Control_c, 0, 64, 66
1, 189626, Note_off_c, 0, 65, 60
1, 189633, Control_c, 0, 64, 71
1, 189648, Note_off_c, 0, 61, 61
1, 189648, Control_c, 0, 64, 77
1, 189649, Note_on_c, 0, 53, 70
1, 189651, Note_off_c, 0, 58, 50
1, 189663, Control_c, 0, 64, 85
1, 189678, Control_c, 0, 64, 96
1, 189693, Control_c, 0, 64, 117
1, 189707, Control_c, 0, 64, 127
1, 189753, Note_on_c, 0, 77, 95
1, 189762, Note_on_c, 0, 65, 70
1, 189765, Note_off_c, 0, 73, 64
1, 189767, Note_on_c, 0, 58, 71
1, 189769, Note_on_c, 0, 61, 69
1, 189769, Note_off_c, 0, 53, 62
1, 189830, Note_off_c, 0, 77, 61
1, 189838, Note_off_c, 0, 65, 60
1, 189865, Note_off_c, 0, 61, 60
1, 189875, Note_on_c, 0, 53, 74
1, 189879, Note_off_c, 0, 58, 56
1, 189952, Note_on_c, 0, 58, 56
1, 189970, Note_on_c, 0, 65, 70
1, 189973, Note_on_c, 0, 61, 75
1, 189988, Note_off_c, 0, 53, 60
1, 190016, Note_on_c, 0, 73, 92
1, 190076, Note_off_c, 0, 65, 49
1, 190091, Note_off_c, 0, 61, 52
1, 190093, Control_c, 0, 64, 97
1, 190100, Note_on_c, 0, 72, 98
1, 190107, Control_c, 0, 64, 72
1, 190115, Note_on_c, 0, 53, 71
1, 190115, Note_off_c, 0, 58, 59
1, 190122, Control_c, 0, 64, 54
1, 190137, Control_c, 0, 64, 0
1, 190154, Note_off_c, 0, 73, 61
1, 190213, Note_on_c, 0, 57, 48
1, 190221, Note_on_c, 0, 65, 72
1, 190232, Note_on_c, 0, 60, 60
1, 190232, Note_on_c, 0, 63, 71
1, 190240, Note_off_c, 0, 53, 60
1, 190278, Note_off_c, 0, 57, 56
1, 190312, Note_off_c, 0, 65, 60
1, 190339, Note_on_c, 0, 53, 86
1, 190344, Note_off_c, 0, 60, 59
1, 190347, Note_off_c, 0, 63, 62
1, 190440, Note_on_c, 0, 57, 30
1, 190450, Note_on_c, 0, 65, 72
1, 190456, Note_off_c, 0, 53, 60
1, 190457, Note_on_c, 0, 63, 72
1, 190457, Note_on_c, 0, 75, 94
1, 190458, Note_on_c, 0, 60, 64
1, 190488, Note_off_c, 0, 72, 50
1, 190500, Note_off_c, 0, 57, 59
1, 190515, Control_c, 0, 64, 29
1, 190525, Note_off_c, 0, 65, 61
1, 190529, Control_c, 0, 64, 53
1, 190544, Control_c, 0, 64, 63
1, 190549, Note_off_c, 0, 63, 58
1, 190559, Control_c, 0, 64, 69
1, 190561, Note_on_c, 0, 53, 84
1, 190561, Note_off_c, 0, 60, 59
1, 190574, Control_c, 0, 64, 78
1, 190589, Control_c, 0, 64, 98
1, 190603, Control_c, 0, 64, 127
1, 190618, Note_on_c, 0, 57, 37
1, 190640, Note_on_c, 0, 60, 62
1, 190652, Note_on_c, 0, 63, 76
1, 190658, Note_on_c, 0, 65, 76
1, 190660, Note_off_c, 0, 53, 62
1, 190675, Note_off_c, 0, 57, 59
1, 190708, Note_on_c, 0, 72, 99
1, 190718, Note_off_c, 0, 65, 62
1, 190730, Note_off_c, 0, 75, 56
1, 190758, Note_off_c, 0, 63, 60
1, 190796, Note_off_c, 0, 60, 60
1, 190804, Note_on_c, 0, 54, 76
1, 190811, Control_c, 0, 64, 89
1, 190814, Note_on_c, 0, 70, 96
1, 190826, Control_c, 0, 64, 70
1, 190827, Note_off_c, 0, 72, 62
1, 190841, Control_c, 0, 64, 53
1, 190855, Control_c, 0, 64, 0
1, 190941, Note_on_c, 0, 58, 66
1, 190942, Note_on_c, 0, 61, 67
1, 190943, Note_on_c, 0, 66, 71
1, 190954, Note_off_c, 0, 54, 59
1, 191040, Note_off_c, 0, 58, 56
1, 191055, Note_on_c, 0, 54, 77
1, 191055, Note_off_c, 0, 66, 59
1, 191062, Note_off_c, 0, 61, 61
1, 191172, Note_on_c, 0, 66, 71
1, 191177, Note_on_c, 0, 58, 57
1, 191180, Note_on_c, 0, 61, 67
1, 191188, Note_on_c, 0, 73, 90
1, 191188, Note_off_c, 0, 54, 62
1, 191234, Control_c, 0, 64, 36
1, 191250, Control_c, 0, 64, 56
1, 191263, Note_off_c, 0, 70, 55
1, 191265, Control_c, 0, 64, 65
1, 191278, Note_off_c, 0, 66, 57
1, 191279, Control_c, 0, 64, 70
1, 191294, Control_c, 0, 64, 79
1, 191296, Note_off_c, 0, 61, 61
1, 191298, Note_off_c, 0, 58, 61
1, 191298, Note_on_c, 0, 54, 72
1, 191309, Control_c, 0, 64, 96
1, 191324, Control_c, 0, 64, 127
1, 191390, Note_off_c, 0, 73, 58
1, 191414, Note_off_c, 0, 54, 61
1, 191423, Note_on_c, 0, 66, 64
1, 191426, Note_on_c, 0, 61, 60
1, 191426, Note_on_c, 0, 58, 53
1, 191506, Note_off_c, 0, 66, 55
1, 191530, Note_off_c, 0, 61, 59
1, 191552, Note_on_c, 0, 54, 71
1, 191561, Note_off_c, 0, 58, 35
1, 191664, Note_off_c, 0, 54, 62
1, 191667, Note_on_c, 0, 66, 69
1, 191667, Note_on_c, 0, 61, 62
1, 191684, Note_on_c, 0, 58, 55
1, 191733, Note_off_c, 0, 66, 62
1, 191749, Note_off_c, 0, 61, 60
1, 191760, Note_on_c, 0, 54, 85
1, 191762, Note_off_c, 0, 58, 61
1, 191867, Note_on_c, 0, 82, 99
1, 191868, Note_on_c, 0, 61, 70
1, 191868, Note_on_c, 0, 66, 74
1, 191870, Note_on_c, 0, 70, 91
1, 191881, Note_off_c, 0, 54, 62
1, 191888, Note_on_c, 0, 58, 61
1, 191918, Note_off_c, 0, 70, 65
1, 191944, Note_off_c, 0, 66, 61
1, 191971, Note_off_c, 0, 61, 60
1, 191973, Note_off_c, 0, 58, 62
1, 191975, Note_on_c, 0, 54, 81
1, 192072, Note_off_c, 0, 82, 42
1, 192076, Note_off_c, 0, 54, 60
1, 192079, Note_on_c, 0, 61, 73
1, 192082, Note_on_c, 0, 66, 71
1, 192096, Note_on_c, 0, 58, 56
1, 192109, Note_on_c, 0, 73, 89
1, 192111, Note_on_c, 0, 85, 88
1, 192144, Note_off_c, 0, 85, 62
1, 192146, Note_off_c, 0, 73, 63
1, 192186, Note_off_c, 0, 66, 59
1, 192210, Note_on_c, 0, 90, 104
1, 192214, Note_on_c, 0, 78, 96
1, 192215, Note_on_c, 0, 54, 78
1, 192222, Note_off_c, 0, 61, 60
1, 192247, Note_off_c, 0, 78, 60
1, 192267, Note_off_c, 0, 58, 33
1, 192277, Note_off_c, 0, 90, 61
1, 192323, Note_on_c, 0, 66, 73
1, 192325, Note_on_c, 0, 58, 54
1, 192328, Note_on_c, 0, 61, 73
1, 192336, Note_off_c, 0, 54, 63
1, 192415, Note_off_c, 0, 66, 60
1, 192440, Note_off_c, 0, 61, 58
1, 192447, Note_off_c, 0, 58, 62
1, 192448, Note_on_c, 0, 54, 80
1, 192553, Note_on_c, 0, 61, 72
1, 192556, Note_on_c, 0, 66, 74
1, 192565, Note_on_c, 0, 58, 67
1, 192565, Note_on_c, 0, 82, 100
1, 192568, Note_on_c, 0, 94, 98
1, 192568, Note_off_c, 0, 54, 61
1, 192608, Note_off_c, 0, 82, 66
1, 192610, Note_off_c, 0, 94, 65
1, 192627, Note_off_c, 0, 66, 61
1, 192660, Note_off_c, 0, 61, 58
1, 192668, Note_on_c, 0, 54, 81
1, 192669, Note_off_c, 0, 58, 58
1, 192769, Note_on_c, 0, 61, 71
1, 192773, Note_on_c, 0, 66, 73
1, 192775, Note_on_c, 0, 58, 59
1, 192788, Note_off_c, 0, 54, 62
1, 192818, Note_on_c, 0, 78, 89
1, 192821, Note_on_c, 0, 90, 87
1, 192825, Note_off_c, 0, 58, 55
1, 192851, Note_off_c, 0, 66, 60
1, 192860, Note_off_c, 0, 90, 65
1, 192863, Note_off_c, 0, 78, 64
1, 192866, Control_c, 0, 64, 101
1, 192869, Note_off_c, 0, 61, 52
1, 192881, Control_c, 0, 64, 68
1, 192896, Control_c, 0, 64, 0
1, 192907, Note_on_c, 0, 56, 79
1, 192907, Note_on_c, 0, 77, 101
1, 192910, Note_on_c, 0, 89, 97
1, 193011, Note_on_c, 0, 68, 74
1, 193012, Note_on_c, 0, 61, 64
1, 193017, Note_on_c, 0, 59, 67
1, 193028, Note_off_c, 0, 56, 61
1, 193043, Control_c, 0, 64, 36
1, 193058, Control_c, 0, 64, 56
1, 193073, Control_c, 0, 64, 65
1, 193079, Note_off_c, 0, 77, 62
1, 193088, Control_c, 0, 64, 73
1, 193097, Note_off_c, 0, 68, 61
1, 193103, Control_c, 0, 64, 95
1, 193117, Control_c, 0, 64, 127
1, 193128, Note_off_c, 0, 59, 58
1, 193130, Note_on_c, 0, 56, 83
1, 193147, Note_off_c, 0, 61, 59
1, 193248, Note_off_c, 0, 56, 62
1, 193249, Note_on_c, 0, 68, 78
1, 193249, Note_on_c, 0, 61, 76
1, 193250, Note_on_c, 0, 80, 106
1, 193252, Note_on_c, 0, 92, 97
1, 193256, Note_on_c, 0, 59, 64
1, 193279, Note_off_c, 0, 89, 55
1, 193299, Note_off_c, 0, 59, 53
1, 193307, Note_off_c, 0, 92, 67
1, 193314, Note_off_c, 0, 68, 61
1, 193314, Note_off_c, 0, 80, 63
1, 193350, Note_off_c, 0, 61, 60
1, 193352, Note_on_c, 0, 56, 86
1, 193444, Note_off_c, 0, 56, 62
1, 193450, Note_on_c, 0, 61, 64
1, 193452, Note_on_c, 0, 59, 24
1, 193468, Note_on_c, 0, 68, 79
1, 193474, Note_off_c, 0, 61, 69
1, 193492, Note_off_c, 0, 59, 45
1, 193510, Note_on_c, 0, 77, 94
1, 193510, Note_on_c, 0, 89, 95
1, 193543, Note_off_c, 0, 68, 58
1, 193543, Note_off_c, 0, 77, 63
1, 193545, Note_off_c, 0, 89, 64
1, 193585, Control_c, 0, 64, 94
1, 193599, Note_on_c, 0, 58, 80
1, 193600, Control_c, 0, 64, 65
1, 193602, Note_on_c, 0, 90, 95
1, 193606, Note_on_c, 0, 78, 103
1, 193615, Control_c, 0, 64, 0
1, 193700, Note_on_c, 0, 61, 63
1, 193710, Note_on_c, 0, 66, 70
1, 193712, Note_on_c, 0, 70, 70
1, 193724, Note_off_c, 0, 58, 61
1, 193733, Control_c, 0, 64, 47
1, 193748, Control_c, 0, 64, 62
1, 193759, Note_off_c, 0, 90, 63
1, 193763, Control_c, 0, 64, 70
1, 193778, Control_c, 0, 64, 90
1, 193784, Note_off_c, 0, 78, 61
1, 193793, Control_c, 0, 64, 127
1, 193805, Note_off_c, 0, 70, 60
1, 193835, Note_off_c, 0, 66, 61
1, 193836, Note_on_c, 0, 58, 74
1, 193861, Note_off_c, 0, 61, 28
1, 193948, Note_off_c, 0, 58, 60
1, 193952, Note_on_c, 0, 85, 94
1, 193957, Note_on_c, 0, 73, 91
1, 193961, Note_on_c, 0, 70, 68
1, 193966, Note_on_c, 0, 66, 65
1, 193979, Note_on_c, 0, 61, 53
1, 194012, Note_off_c, 0, 70, 60
1, 194045, Note_off_c, 0, 61, 51
1, 194049, Note_off_c, 0, 66, 60
1, 194071, Note_on_c, 0, 58, 69
1, 194180, Note_on_c, 0, 61, 53
1, 194184, Note_on_c, 0, 70, 68
1, 194190, Note_off_c, 0, 58, 61
1, 194192, Note_on_c, 0, 66, 61
1, 194247, Note_off_c, 0, 70, 60
1, 194273, Note_off_c, 0, 66, 59
1, 194302, Note_on_c, 0, 58, 75
1, 194303, Note_off_c, 0, 61, 35
1, 194338, Note_off_c, 0, 73, 59
1, 194405, Note_off_c, 0, 58, 59
1, 194407, Note_on_c, 0, 70, 68
1, 194412, Note_on_c, 0, 66, 63
1, 194416, Note_on_c, 0, 61, 65
1, 194423, Note_off_c, 0, 85, 35
1, 194456, Note_off_c, 0, 70, 60
1, 194472, Note_off_c, 0, 66, 57
1, 194496, Note_off_c, 0, 61, 56
1, 194504, Note_on_c, 0, 58, 79
1, 194597, Note_on_c, 0, 70, 76
1, 194599, Note_on_c, 0, 61, 67
1, 194603, Note_on_c, 0, 66, 70
1, 194608, Note_off_c, 0, 58, 62
1, 194673, Note_off_c, 0, 70, 63
1, 194698, Note_off_c, 0, 66, 57
1, 194710, Note_on_c, 0, 58, 83
1, 194723, Note_off_c, 0, 61, 0
1, 194746, Note_on_c, 0, 61, 21
1, 194802, Note_on_c, 0, 70, 85
1, 194806, Note_on_c, 0, 66, 78
1, 194824, Note_off_c, 0, 58, 57
1, 194836, Note_off_c, 0, 61, 61
1, 194868, Note_off_c, 0, 70, 64
1, 194875, Control_c, 0, 64, 77
1, 194890, Control_c, 0, 64, 52
1, 194904, Control_c, 0, 64, 0
1, 194918, Note_on_c, 0, 90, 100
1, 194919, Note_on_c, 0, 78, 112
1, 194927, Note_on_c, 0, 59, 78
1, 194928, Note_off_c, 0, 66, 58
1, 194993, Control_c, 0, 64, 50
1, 195008, Control_c, 0, 64, 68
1, 195022, Control_c, 0, 64, 102
1, 195035, Note_on_c, 0, 71, 90
1, 195037, Control_c, 0, 64, 127
1, 195038, Note_on_c, 0, 62, 70
1, 195039, Note_on_c, 0, 66, 79
1, 195045, Note_off_c, 0, 90, 58
1, 195051, Note_off_c, 0, 59, 61
1, 195066, Note_off_c, 0, 78, 60
1, 195122, Note_off_c, 0, 71, 61
1, 195122, Note_off_c, 0, 62, 54
1, 195154, Note_on_c, 0, 59, 87
1, 195160, Note_off_c, 0, 66, 59
1, 195272, Note_on_c, 0, 62, 55
1, 195277, Note_on_c, 0, 66, 76
1, 195277, Note_on_c, 0, 71, 83
1, 195283, Note_on_c, 0, 74, 105
1, 195283, Note_on_c, 0, 86, 103
1, 195291, Note_off_c, 0, 59, 60
1, 195355, Note_off_c, 0, 62, 58
1, 195362, Note_off_c, 0, 71, 59
1, 195408, Note_on_c, 0, 59, 79
1, 195410, Note_off_c, 0, 66, 62
1, 195520, Note_on_c, 0, 71, 76
1, 195526, Note_on_c, 0, 62, 54
1, 195526, Note_on_c, 0, 66, 72
1, 195528, Note_off_c, 0, 59, 59
1, 195587, Note_off_c, 0, 71, 62
1, 195609, Note_off_c, 0, 62, 53
1, 195614, Note_off_c, 0, 74, 58
1, 195624, Note_off_c, 0, 66, 61
1, 195634, Note_on_c, 0, 59, 82
1, 195638, Note_off_c, 0, 86, 58
1, 195739, Note_on_c, 0, 71, 77
1, 195742, Note_on_c, 0, 62, 59
1, 195744, Note_on_c, 0, 66, 72
1, 195750, Note_off_c, 0, 59, 62
1, 195805, Note_off_c, 0, 71, 63
1, 195821, Note_off_c, 0, 62, 55
1, 195836, Note_off_c, 0, 66, 61
1, 195841, Note_on_c, 0, 59, 85
1, 195940, Note_on_c, 0, 71, 84
1, 195944, Note_on_c, 0, 62, 74
1, 195946, Note_on_c, 0, 66, 79
1, 195956, Note_off_c, 0, 59, 60
1, 196014, Note_off_c, 0, 71, 63
1, 196016, Note_off_c, 0, 62, 55
1, 196049, Note_on_c, 0, 59, 89
1, 196052, Note_off_c, 0, 66, 62
1, 196154, Note_on_c, 0, 62, 44
1, 196160, Note_on_c, 0, 66, 87
1, 196161, Note_on_c, 0, 71, 90
1, 196183, Note_off_c, 0, 59, 61
1, 196223, Control_c, 0, 64, 97
1, 196238, Control_c, 0, 64, 68
1, 196243, Note_off_c, 0, 62, 54
1, 196253, Control_c, 0, 64, 12
1, 196267, Control_c, 0, 64, 0
1, 196269, Note_off_c, 0, 71, 54
1, 196279, Note_on_c, 0, 79, 104
1, 196279, Note_on_c, 0, 91, 102
1, 196289, Note_on_c, 0, 59, 78
1, 196298, Note_off_c, 0, 66, 62
1, 196386, Control_c, 0, 64, 52
1, 196401, Control_c, 0, 64, 66
1, 196403, Note_on_c, 0, 67, 88
1, 196413, Note_on_c, 0, 71, 85
1, 196414, Note_on_c, 0, 62, 68
1, 196416, Control_c, 0, 64, 90
1, 196422, Note_off_c, 0, 59, 58
1, 196431, Control_c, 0, 64, 127
1, 196432, Note_off_c, 0, 91, 64
1, 196459, Note_off_c, 0, 79, 61
1, 196508, Note_off_c, 0, 71, 59
1, 196530, Note_on_c, 0, 59, 86
1, 196559, Note_off_c, 0, 67, 61
1, 196621, Note_off_c, 0, 62, 35
1, 196663, Note_on_c, 0, 67, 88
1, 196663, Note_on_c, 0, 71, 88
1, 196666, Note_on_c, 0, 62, 65
1, 196675, Note_on_c, 0, 74, 105
1, 196675, Note_on_c, 0, 86, 99
1, 196688, Note_off_c, 0, 59, 57
1, 196771, Note_off_c, 0, 71, 59
1, 196800, Note_on_c, 0, 59, 79
1, 196810, Note_off_c, 0, 67, 58
1, 196899, Note_off_c, 0, 62, 0
1, 196911, Note_on_c, 0, 62, 49
1, 196915, Note_on_c, 0, 71, 81
1, 196925, Note_on_c, 0, 67, 71
1, 196933, Note_off_c, 0, 59, 63
1, 196993, Note_off_c, 0, 71, 62
1, 197014, Note_off_c, 0, 67, 56
1, 197029, Note_on_c, 0, 59, 84
1, 197054, Note_off_c, 0, 74, 58
1, 197066, Note_off_c, 0, 86, 59
1, 197109, Note_off_c, 0, 62, 0
1, 197122, Note_on_c, 0, 71, 83
1, 197123, Note_on_c, 0, 67, 76
1, 197128, Note_on_c, 0, 62, 31
1, 197137, Note_off_c, 0, 59, 62
1, 197196, Note_off_c, 0, 71, 61
1, 197232, Note_on_c, 0, 59, 88
1, 197247, Note_off_c, 0, 67, 55
1, 197266, Note_off_c, 0, 62, 53
1, 197324, Note_on_c, 0, 71, 81
1, 197327, Note_on_c, 0, 67, 73
1, 197334, Note_on_c, 0, 62, 45
1, 197340, Note_off_c, 0, 59, 56
1, 197382, Note_off_c, 0, 62, 59
1, 197401, Note_off_c, 0, 71, 62
1, 197431, Note_on_c, 0, 59, 90
1, 197442, Note_off_c, 0, 67, 56
1, 197526, Note_on_c, 0, 62, 59
1, 197529, Note_on_c, 0, 67, 73
1, 197529, Note_on_c, 0, 71, 91
1, 197552, Note_off_c, 0, 59, 63
1, 197570, Note_off_c, 0, 62, 60
1, 197609, Control_c, 0, 64, 88
1, 197614, Note_off_c, 0, 71, 60
1, 197624, Control_c, 0, 64, 62
1, 197647, Control_c, 0, 64, 0
1, 197658, Note_on_c, 0, 60, 83
1, 197672, Note_off_c, 0, 67, 53
1, 197673, Note_on_c, 0, 91, 108
1, 197675, Note_on_c, 0, 79, 105
1, 197776, Poly_aftertouch_c, 0, 62, 0
1, 197793, Note_on_c, 0, 67, 82
1, 197794, Control_c, 0, 64, 58
1, 197801, Note_on_c, 0, 72, 95
1, 197804, Note_on_c, 0, 64, 78
1, 197805, Note_off_c, 0, 60, 62
1, 197809, Control_c, 0, 64, 67
1, 197824, Control_c, 0, 64, 85
1, 197839, Control_c, 0, 64, 127
1, 197859, Note_off_c, 0, 91, 61
1, 197886, Note_off_c, 0, 79, 62
1, 197925, Note_on_c, 0, 60, 85
1, 197926, Note_off_c, 0, 72, 61
1, 197945, Note_off_c, 0, 64, 59
1, 197964, Note_off_c, 0, 67, 60
1, 197968, Note_on_c, 0, 62, 46
1, 198001, Note_off_c, 0, 62, 50
1, 198067, Note_on_c, 0, 67, 82
1, 198075, Note_on_c, 0, 72, 93
1, 198076, Note_on_c, 0, 64, 75
1, 198086, Note_on_c, 0, 76, 108
1, 198087, Note_on_c, 0, 88, 104
1, 198088, Note_off_c, 0, 60, 64
1, 198106, Control_c, 0, 64, 85
1, 198120, Control_c, 0, 64, 63
1, 198135, Control_c, 0, 64, 35
1, 198150, Control_c, 0, 64, 25
1, 198165, Control_c, 0, 64, 38
1, 198180, Control_c, 0, 64, 52
1, 198194, Control_c, 0, 64, 62
1, 198208, Note_off_c, 0, 72, 54
1, 198209, Control_c, 0, 64, 69
1, 198220, Note_on_c, 0, 60, 84
1, 198224, Control_c, 0, 64, 82
1, 198237, Note_off_c, 0, 64, 60
1, 198238, Control_c, 0, 64, 127
1, 198251, Note_off_c, 0, 67, 59
1, 198349, Note_on_c, 0, 72, 82
1, 198352, Note_on_c, 0, 64, 69
1, 198352, Note_on_c, 0, 67, 78
1, 198364, Note_off_c, 0, 60, 60
1, 198440, Note_off_c, 0, 72, 59
1, 198460, Note_on_c, 0, 60, 84
1, 198467, Note_off_c, 0, 64, 56
1, 198477, Note_off_c, 0, 67, 60
1, 198560, Note_on_c, 0, 67, 74
1, 198562, Note_on_c, 0, 72, 76
1, 198567, Note_off_c, 0, 60, 60
1, 198571, Note_on_c, 0, 64, 66
1, 198639, Note_off_c, 0, 72, 62
1, 198666, Note_on_c, 0, 60, 84
1, 198670, Note_off_c, 0, 64, 57
1, 198676, Note_off_c, 0, 67, 53
1, 198737, Note_off_c, 0, 88, 36
1, 198740, Note_off_c, 0, 76, 55
1, 198767, Note_on_c, 0, 67, 81
1, 198769, Note_on_c, 0, 72, 81
1, 198776, Note_on_c, 0, 64, 71
1, 198781, Note_off_c, 0, 60, 64
1, 198838, Note_off_c, 0, 72, 60
1, 198855, Note_on_c, 0, 60, 79
1, 198867, Note_off_c, 0, 67, 52
1, 198911, Note_off_c, 0, 64, 0
1, 198944, Note_off_c, 0, 60, 64
1, 198947, Poly_aftertouch_c, 0, 64, 127
1, 198962, Note_on_c, 0, 72, 82
1, 198994, Poly_aftertouch_c, 0, 64, 0
1, 199018, Note_off_c, 0, 72, 61
1, 199118, Note_on_c, 0, 61, 82
1, 199160, Control_c, 0, 64, 76
1, 199167, Note_on_c, 0, 64, 59
1, 199174, Control_c, 0, 64, 47
1, 199189, Control_c, 0, 64, 0
1, 199216, Note_on_c, 0, 67, 79
1, 199269, Note_on_c, 0, 70, 79
1, 199293, Control_c, 0, 64, 30
1, 199307, Control_c, 0, 64, 52
1, 199313, Note_off_c, 0, 64, 60
1, 199322, Control_c, 0, 64, 62
1, 199334, Note_on_c, 0, 73, 96
1, 199337, Control_c, 0, 64, 68
1, 199352, Control_c, 0, 64, 79
1, 199367, Control_c, 0, 64, 127
1, 199458, Note_off_c, 0, 61, 60
1, 199480, Note_off_c, 0, 67, 62
1, 199483, Note_on_c, 0, 79, 94
1, 199489, Note_off_c, 0, 70, 63
1, 199489, Note_off_c, 0, 73, 65
1, 199533, Note_on_c, 0, 82, 87
1, 199551, Note_off_c, 0, 79, 61
1, 199580, Note_on_c, 0, 85, 81
1, 199631, Note_on_c, 0, 88, 66
1, 199638, Note_off_c, 0, 82, 54
1, 199669, Note_off_c, 0, 85, 65
1, 199670, Note_on_c, 0, 91, 87
1, 199725, Note_on_c, 0, 79, 81
1, 199742, Note_off_c, 0, 88, 65
1, 199754, Note_off_c, 0, 91, 66
1, 199778, Note_off_c, 0, 79, 67
1, 199798, Note_on_c, 0, 64, 83
1, 199856, Note_on_c, 0, 67, 65
1, 199898, Note_on_c, 0, 70, 85
1, 199953, Note_on_c, 0, 73, 81
1, 200033, Note_on_c, 0, 76, 97
1, 200090, Note_off_c, 0, 64, 54
1, 200131, Note_off_c, 0, 76, 63
1, 200155, Note_off_c, 0, 70, 63
1, 200156, Note_on_c, 0, 79, 96
1, 200161, Note_off_c, 0, 73, 62
1, 200163, Note_off_c, 0, 67, 38
1, 200220, Note_on_c, 0, 82, 91
1, 200235, Note_off_c, 0, 79, 60
1, 200267, Note_on_c, 0, 85, 80
1, 200304, Note_off_c, 0, 82, 66
1, 200319, Note_on_c, 0, 88, 79
1, 200330, Note_off_c, 0, 85, 68
1, 200345, Note_on_c, 0, 91, 93
1, 200399, Note_off_c, 0, 88, 55
1, 200402, Note_on_c, 0, 79, 87
1, 200425, Note_off_c, 0, 91, 61
1, 200453, Note_off_c, 0, 79, 67
1, 200469, Note_on_c, 0, 67, 78
1, 200521, Note_on_c, 0, 70, 72
1, 200591, Note_on_c, 0, 73, 83
1, 200681, Note_on_c, 0, 76, 92
1, 200819, Note_on_c, 0, 79, 94
1, 200839, Note_off_c, 0, 67, 61
1, 200855, Note_off_c, 0, 76, 61
1, 200876, Note_off_c, 0, 73, 59
1, 200879, Note_off_c, 0, 70, 62
1, 200883, Note_on_c, 0, 82, 84
1, 200898, Note_off_c, 0, 79, 59
1, 200930, Note_on_c, 0, 85, 79
1, 200986, Note_on_c, 0, 88, 69
1, 200988, Note_off_c, 0, 82, 64
1, 201020, Note_on_c, 0, 91, 92
1, 201033, Note_off_c, 0, 85, 62
1, 201065, Note_on_c, 0, 79, 86
1, 201077, Note_off_c, 0, 88, 64
1, 201114, Note_off_c, 0, 91, 63
1, 201119, Note_off_c, 0, 79, 66
1, 201155, Note_on_c, 0, 70, 85
1, 201232, Note_on_c, 0, 73, 85
1, 201313, Note_on_c, 0, 76, 86
1, 201466, Note_on_c, 0, 79, 90
1, 201501, Note_off_c, 0, 76, 63
1, 201527, Note_off_c, 0, 73, 62
1, 201529, Note_on_c, 0, 82, 89
1, 201530, Note_off_c, 0, 70, 61
1, 201550, Note_off_c, 0, 79, 62
1, 201579, Note_on_c, 0, 85, 76
1, 201606, Note_off_c, 0, 82, 67
1, 201634, Note_on_c, 0, 88, 76
1, 201641, Note_off_c, 0, 85, 66
1, 201679, Note_on_c, 0, 91, 86
1, 201708, Note_off_c, 0, 88, 64
1, 201729, Note_on_c, 0, 79, 71
1, 201760, Note_off_c, 0, 79, 63
1, 201761, Note_off_c, 0, 91, 58
1, 201796, Note_on_c, 0, 73, 73
1, 201836, Note_on_c, 0, 76, 75
1, 201872, Note_off_c, 0, 73, 64
1, 201904, Note_off_c, 0, 76, 66
1, 201912, Note_on_c, 0, 79, 72
1, 201924, Note_on_c, 0, 82, 74
1, 201944, Note_off_c, 0, 79, 65
1, 201980, Note_on_c, 0, 85, 71
1, 202002, Note_on_c, 0, 88, 66
1, 202015, Note_off_c, 0, 82, 60
1, 202068, Note_on_c, 0, 91, 82
1, 202074, Note_off_c, 0, 88, 66
1, 202094, Note_off_c, 0, 85, 65
1, 202121, Note_off_c, 0, 91, 65
1, 202124, Note_on_c, 0, 76, 74
1, 202169, Note_on_c, 0, 79, 76
1, 202202, Note_off_c, 0, 76, 64
1, 202238, Note_off_c, 0, 79, 66
1, 202245, Note_on_c, 0, 82, 81
1, 202268, Note_on_c, 0, 85, 78
1, 202285, Note_off_c, 0, 82, 58
1, 202312, Note_on_c, 0, 88, 69
1, 202340, Note_off_c, 0, 85, 64
1, 202343, Note_on_c, 0, 91, 77
1, 202402, Note_off_c, 0, 88, 65
1, 202405, Note_on_c, 0, 94, 87
1, 202429, Note_off_c, 0, 91, 65
1, 202460, Note_on_c, 0, 79, 83
1, 202479, Note_off_c, 0, 94, 64
1, 202521, Note_on_c, 0, 82, 86
1, 202539, Note_off_c, 0, 79, 66
1, 202586, Note_on_c, 0, 85, 79
1, 202601, Note_off_c, 0, 82, 63
1, 202626, Note_on_c, 0, 88, 82
1, 202637, Note_off_c, 0, 85, 65
1, 202672, Note_on_c, 0, 91, 88
1, 202689, Note_off_c, 0, 88, 65
1, 202730, Note_on_c, 0, 94, 94
1, 202740, Note_off_c, 0, 91, 65
1, 202774, Note_off_c, 0, 94, 66
1, 202792, Note_on_c, 0, 82, 89
1, 202843, Note_on_c, 0, 85, 82
1, 202866, Note_off_c, 0, 82, 64
1, 202901, Note_on_c, 0, 88, 82
1, 202917, Note_off_c, 0, 85, 65
1, 202943, Note_off_c, 0, 88, 65
1, 202980, Note_on_c, 0, 88, 76
1, 203024, Note_on_c, 0, 91, 82
1, 203038, Note_off_c, 0, 88, 66
1, 203075, Note_on_c, 0, 94, 102
1, 203080, Note_off_c, 0, 91, 66
1, 203120, Note_off_c, 0, 94, 66
1, 203132, Note_on_c, 0, 85, 97
1, 203192, Note_off_c, 0, 85, 67
1, 203201, Note_on_c, 0, 88, 84
1, 203238, Note_off_c, 0, 88, 65
1, 203289, Note_on_c, 0, 88, 79
1, 203335, Note_on_c, 0, 91, 85
1, 203350, Note_off_c, 0, 88, 65
1, 203397, Note_on_c, 0, 94, 93
1, 203400, Note_off_c, 0, 91, 66
1, 203442, Note_off_c, 0, 94, 65
1, 203466, Note_on_c, 0, 82, 88
1, 203528, Note_on_c, 0, 85, 82
1, 203528, Note_off_c, 0, 82, 67
1, 203570, Note_off_c, 0, 85, 64
1, 203609, Poly_aftertouch_c, 0, 85, 0
1, 203616, Note_on_c, 0, 85, 63
1, 203686, Note_on_c, 0, 88, 78
1, 203689, Note_off_c, 0, 85, 65
1, 203748, Note_on_c, 0, 91, 89
1, 203752, Note_off_c, 0, 88, 67
1, 203798, Note_off_c, 0, 91, 65
1, 203815, Note_on_c, 0, 79, 83
1, 203879, Note_off_c, 0, 79, 66
1, 203886, Note_on_c, 0, 82, 85
1, 203928, Note_off_c, 0, 82, 66
1, 203964, Note_on_c, 0, 82, 71
1, 204031, Note_on_c, 0, 85, 77
1, 204040, Note_off_c, 0, 82, 64
1, 204098, Note_on_c, 0, 88, 84
1, 204111, Note_off_c, 0, 85, 65
1, 204149, Note_off_c, 0, 88, 63
1, 204167, Note_on_c, 0, 76, 82
1, 204226, Note_off_c, 0, 76, 65
1, 204235, Note_on_c, 0, 79, 79
1, 204256, Note_off_c, 0, 79, 71
1, 204327, Note_on_c, 0, 79, 77
1, 204378, Note_on_c, 0, 82, 81
1, 204393, Note_off_c, 0, 79, 65
1, 204440, Note_on_c, 0, 85, 85
1, 204448, Note_off_c, 0, 82, 65
1, 204478, Note_off_c, 0, 85, 68
1, 204508, Note_on_c, 0, 73, 85
1, 204560, Note_off_c, 0, 73, 65
1, 204570, Note_on_c, 0, 76, 85
1, 204606, Note_off_c, 0, 76, 61
1, 204663, Note_on_c, 0, 76, 71
1, 204711, Note_on_c, 0, 79, 82
1, 204714, Note_off_c, 0, 76, 63
1, 204768, Note_off_c, 0, 79, 66
1, 204771, Note_on_c, 0, 82, 89
1, 204802, Note_off_c, 0, 82, 65
1, 204847, Note_on_c, 0, 70, 86
1, 204900, Note_off_c, 0, 70, 64
1, 204910, Note_on_c, 0, 73, 82
1, 204941, Note_off_c, 0, 73, 63
1, 204981, Note_on_c, 0, 73, 71
1, 205030, Note_off_c, 0, 73, 64
1, 205046, Note_on_c, 0, 76, 82
1, 205099, Note_off_c, 0, 76, 65
1, 205103, Note_on_c, 0, 79, 90
1, 205147, Note_off_c, 0, 79, 61
1, 205192, Note_on_c, 0, 67, 86
1, 205250, Note_off_c, 0, 67, 65
1, 205257, Note_on_c, 0, 70, 85
1, 205295, Note_off_c, 0, 70, 65
1, 205332, Note_on_c, 0, 70, 67
1, 205391, Note_on_c, 0, 73, 86
1, 205394, Note_off_c, 0, 70, 65
1, 205461, Note_on_c, 0, 76, 85
1, 205466, Note_off_c, 0, 73, 67
1, 205500, Note_off_c, 0, 76, 68
1, 205541, Note_on_c, 0, 64, 86
1, 205591, Note_off_c, 0, 64, 65
1, 205603, Note_on_c, 0, 67, 81
1, 205622, Note_off_c, 0, 67, 71
1, 205683, Note_on_c, 0, 67, 74
1, 205732, Note_on_c, 0, 70, 79
1, 205741, Note_off_c, 0, 67, 61
1, 205797, Note_on_c, 0, 73, 93
1, 205799, Note_off_c, 0, 70, 67
1, 205839, Note_off_c, 0, 73, 68
1, 205882, Note_on_c, 0, 61, 92
1, 205937, Note_off_c, 0, 61, 64
1, 205953, Note_on_c, 0, 64, 80
1, 205979, Note_off_c, 0, 64, 69
1, 206035, Note_on_c, 0, 64, 75
1, 206086, Note_off_c, 0, 64, 62
1, 206086, Note_on_c, 0, 67, 87
1, 206144, Note_off_c, 0, 67, 63
1, 206146, Note_on_c, 0, 70, 88
1, 206190, Note_off_c, 0, 70, 69
1, 206223, Note_on_c, 0, 58, 89
1, 206223, Control_c, 0, 64, 108
1, 206238, Control_c, 0, 64, 97
1, 206253, Control_c, 0, 64, 108
1, 206268, Control_c, 0, 64, 127
1, 206282, Note_on_c, 0, 61, 78
1, 206282, Note_off_c, 0, 58, 64
1, 206326, Note_off_c, 0, 61, 59
1, 206353, Note_on_c, 0, 61, 64
1, 206422, Note_off_c, 0, 61, 62
1, 206425, Note_on_c, 0, 64, 84
1, 206462, Control_c, 0, 64, 105
1, 206477, Control_c, 0, 64, 77
1, 206485, Note_off_c, 0, 64, 66
1, 206488, Note_on_c, 0, 67, 87
1, 206491, Control_c, 0, 64, 65
1, 206506, Control_c, 0, 64, 61
1, 206521, Control_c, 0, 64, 64
1, 206536, Control_c, 0, 64, 76
1, 206543, Note_off_c, 0, 67, 65
1, 206550, Control_c, 0, 64, 127
1, 206562, Note_on_c, 0, 55, 81
1, 206626, Note_off_c, 0, 55, 64
1, 206632, Control_c, 0, 64, 94
1, 206636, Note_on_c, 0, 58, 85
1, 206646, Control_c, 0, 64, 90
1, 206661, Control_c, 0, 64, 101
1, 206672, Note_off_c, 0, 58, 61
1, 206676, Control_c, 0, 64, 127
1, 206712, Note_on_c, 0, 58, 76
1, 206751, Control_c, 0, 64, 85
1, 206765, Control_c, 0, 64, 73
1, 206775, Note_on_c, 0, 61, 82
1, 206778, Note_off_c, 0, 58, 64
1, 206780, Control_c, 0, 64, 74
1, 206795, Control_c, 0, 64, 91
1, 206810, Control_c, 0, 64, 127
1, 206849, Note_on_c, 0, 64, 85
1, 206856, Note_off_c, 0, 61, 64
1, 206869, Control_c, 0, 64, 96
1, 206884, Control_c, 0, 64, 71
1, 206898, Control_c, 0, 64, 65
1, 206907, Note_off_c, 0, 64, 62
1, 206913, Control_c, 0, 64, 70
1, 206918, Note_on_c, 0, 52, 89
1, 206928, Control_c, 0, 64, 91
1, 206943, Control_c, 0, 64, 127
1, 206972, Control_c, 0, 64, 100
1, 206976, Note_off_c, 0, 52, 65
1, 206987, Control_c, 0, 64, 74
1, 206989, Note_on_c, 0, 55, 82
1, 207002, Control_c, 0, 64, 69
1, 207017, Note_off_c, 0, 55, 69
1, 207017, Control_c, 0, 64, 76
1, 207031, Control_c, 0, 64, 127
1, 207085, Note_on_c, 0, 55, 79
1, 207121, Control_c, 0, 64, 80
1, 207134, Note_off_c, 0, 55, 62
1, 207135, Note_on_c, 0, 58, 83
1, 207136, Control_c, 0, 64, 69
1, 207151, Control_c, 0, 64, 70
1, 207166, Control_c, 0, 64, 77
1, 207180, Control_c, 0, 64, 127
1, 207199, Note_on_c, 0, 61, 79
1, 207217, Note_off_c, 0, 58, 65
1, 207240, Control_c, 0, 64, 97
1, 207243, Note_off_c, 0, 61, 65
1, 207255, Control_c, 0, 64, 71
1, 207255, Note_on_c, 0, 49, 87
1, 207269, Control_c, 0, 64, 64
1, 207284, Control_c, 0, 64, 69
1, 207299, Control_c, 0, 64, 88
1, 207314, Note_off_c, 0, 49, 64
1, 207314, Control_c, 0, 64, 127
1, 207326, Note_on_c, 0, 52, 82
1, 207355, Note_off_c, 0, 52, 66
1, 207380, Control_c, 0, 64, 90
1, 207395, Control_c, 0, 64, 74
1, 207410, Control_c, 0, 64, 75
1, 207421, Note_on_c, 0, 52, 76
1, 207425, Control_c, 0, 64, 92
1, 207440, Control_c, 0, 64, 127
1, 207477, Note_off_c, 0, 52, 64
1, 207478, Note_on_c, 0, 55, 84
1, 207529, Control_c, 0, 64, 116
1, 207536, Note_off_c, 0, 55, 66
1, 207540, Note_on_c, 0, 58, 86
1, 207544, Control_c, 0, 64, 91
1, 207559, Control_c, 0, 64, 90
1, 207574, Control_c, 0, 64, 109
1, 207576, Note_off_c, 0, 58, 65
1, 207588, Control_c, 0, 64, 127
1, 207603, Note_on_c, 0, 46, 86
1, 207659, Note_on_c, 0, 49, 86
1, 207660, Note_off_c, 0, 46, 63
1, 207662, Control_c, 0, 64, 102
1, 207677, Control_c, 0, 64, 80
1, 207692, Control_c, 0, 64, 76
1, 207707, Control_c, 0, 64, 85
1, 207708, Note_off_c, 0, 49, 63
1, 207720, Control_c, 0, 64, 127
1, 207750, Note_on_c, 0, 49, 44
1, 207757, Note_on_c, 0, 51, 41
1, 207785, Note_off_c, 0, 49, 52
1, 207800, Note_on_c, 0, 52, 73
1, 207818, Note_off_c, 0, 51, 40
1, 207854, Control_c, 0, 64, 87
1, 207862, Note_off_c, 0, 52, 66
1, 207869, Control_c, 0, 64, 67
1, 207876, Note_on_c, 0, 55, 87
1, 207884, Control_c, 0, 64, 60
1, 207899, Control_c, 0, 64, 62
1, 207914, Control_c, 0, 64, 69
1, 207929, Control_c, 0, 64, 127
1, 207932, Note_off_c, 0, 55, 65
1, 207949, Note_on_c, 0, 43, 89
1, 208003, Control_c, 0, 64, 92
1, 208015, Note_on_c, 0, 46, 93
1, 208015, Note_off_c, 0, 43, 65
1, 208018, Control_c, 0, 64, 66
1, 208033, Control_c, 0, 64, 59
1, 208047, Control_c, 0, 64, 65
1, 208060, Note_off_c, 0, 46, 64
1, 208062, Control_c, 0, 64, 82
1, 208077, Control_c, 0, 64, 127
1, 208080, Note_on_c, 0, 46, 72
1, 208152, Note_on_c, 0, 49, 80
1, 208172, Note_off_c, 0, 46, 62
1, 208227, Note_on_c, 0, 52, 89
1, 208243, Note_off_c, 0, 49, 64
1, 208279, Note_off_c, 0, 52, 65
1, 208306, Note_on_c, 0, 40, 94
1, 208307, Control_c, 0, 64, 76
1, 208322, Control_c, 0, 64, 66
1, 208337, Control_c, 0, 64, 69
1, 208351, Control_c, 0, 64, 85
1, 208364, Note_on_c, 0, 43, 77
1, 208366, Control_c, 0, 64, 127
1, 208371, Note_off_c, 0, 40, 64
1, 208402, Note_off_c, 0, 43, 66
1, 208442, Note_on_c, 0, 43, 66
1, 208488, Note_on_c, 0, 46, 75
1, 208509, Note_off_c, 0, 43, 62
1, 208560, Note_on_c, 0, 49, 70
1, 208569, Note_off_c, 0, 46, 62
1, 208588, Control_c, 0, 64, 83
1, 208602, Control_c, 0, 64, 52
1, 208617, Control_c, 0, 64, 39
1, 208620, Note_off_c, 0, 49, 65
1, 208632, Control_c, 0, 64, 65
1, 208640, Note_on_c, 0, 37, 109
1, 208647, Control_c, 0, 64, 127
1, 208677, Note_on_c, 0, 43, 66
1, 208677, Note_off_c, 0, 37, 66
1, 208679, Note_on_c, 0, 46, 73
1, 208727, Note_off_c, 0, 43, 61
1, 208755, Note_off_c, 0, 46, 63
1, 208760, Note_on_c, 0, 52, 71
1, 208827, Note_off_c, 0, 52, 63
1, 208833, Note_on_c, 0, 46, 64
1, 208847, Note_on_c, 0, 43, 63
1, 208891, Note_off_c, 0, 43, 62
1, 208900, Note_on_c, 0, 52, 67
1, 208903, Note_off_c, 0, 46, 62
1, 208972, Note_off_c, 0, 52, 64
1, 208982, Note_on_c, 0, 46, 68
1, 208992, Note_on_c, 0, 43, 56
1, 209007, Note_on_c, 0, 73, 109
1, 209036, Note_off_c, 0, 73, 67
1, 209054, Note_off_c, 0, 46, 62
1, 209058, Note_off_c, 0, 43, 60
1, 209063, Note_on_c, 0, 52, 63
1, 209105, Note_on_c, 0, 73, 101
1, 209133, Note_off_c, 0, 52, 65
1, 209139, Note_on_c, 0, 46, 70
1, 209139, Note_off_c, 0, 73, 65
1, 209164, Note_on_c, 0, 45, 35
1, 209200, Note_off_c, 0, 45, 46
1, 209206, Note_on_c, 0, 73, 103
1, 209210, Note_off_c, 0, 46, 63
1, 209221, Note_on_c, 0, 52, 60
1, 209240, Note_off_c, 0, 73, 65
1, 209293, Note_off_c, 0, 52, 61
1, 209313, Note_on_c, 0, 73, 117
1, 209336, Note_on_c, 0, 46, 77
1, 209339, Note_off_c, 0, 73, 71
1, 209413, Note_off_c, 0, 46, 62
1, 209419, Note_on_c, 0, 52, 61
1, 209464, Note_on_c, 0, 50, 9
1, 209485, Note_on_c, 0, 46, 69
1, 209491, Note_on_c, 0, 43, 63
1, 209502, Note_off_c, 0, 52, 59
1, 209512, Note_off_c, 0, 50, 52
1, 209535, Note_off_c, 0, 43, 62
1, 209548, Note_on_c, 0, 52, 51
1, 209562, Note_off_c, 0, 46, 62
1, 209631, Note_on_c, 0, 46, 67
1, 209633, Note_off_c, 0, 52, 64
1, 209645, Note_on_c, 0, 43, 64
1, 209693, Note_on_c, 0, 37, 89
1, 209713, Note_on_c, 0, 52, 69
1, 209713, Note_off_c, 0, 43, 60
1, 209715, Note_off_c, 0, 46, 63
1, 209726, Note_off_c, 0, 37, 62
1, 209792, Note_on_c, 0, 46, 69
1, 209792, Note_off_c, 0, 52, 65
1, 209806, Note_on_c, 0, 37, 91
1, 209846, Note_off_c, 0, 37, 60
1, 209878, Note_off_c, 0, 46, 62
1, 209881, Note_on_c, 0, 52, 71
1, 209905, Note_on_c, 0, 37, 91
1, 209949, Note_off_c, 0, 37, 63
1, 209974, Note_off_c, 0, 52, 63
1, 209982, Control_c, 0, 64, 75
1, 209989, Note_on_c, 0, 46, 68
1, 209997, Control_c, 0, 64, 62
1, 210012, Control_c, 0, 64, 69
1, 210017, Note_on_c, 0, 37, 104
1, 210027, Control_c, 0, 64, 116
1, 210041, Control_c, 0, 64, 127
1, 210054, Note_off_c, 0, 37, 69
1, 210063, Note_off_c, 0, 46, 63
1, 210065, Note_on_c, 0, 52, 72
1, 210140, Poly_aftertouch_c, 0, 50, 127
1, 210149, Note_off_c, 0, 52, 65
1, 210162, Note_on_c, 0, 46, 69
1, 210179, Poly_aftertouch_c, 0, 50, 0
1, 210182, Note_on_c, 0, 43, 64
1, 210229, Note_off_c, 0, 46, 62
1, 210231, Note_on_c, 0, 52, 68
1, 210231, Note_off_c, 0, 43, 62
1, 210307, Note_off_c, 0, 52, 65
1, 210319, Note_on_c, 0, 46, 66
1, 210333, Note_on_c, 0, 43, 62
1, 210402, Note_on_c, 0, 52, 64
1, 210403, Note_off_c, 0, 46, 62
1, 210414, Note_on_c, 0, 73, 106
1, 210447, Note_off_c, 0, 73, 65
1, 210474, Note_off_c, 0, 52, 64
1, 210487, Note_on_c, 0, 46, 62
1, 210501, Note_off_c, 0, 43, 25
1, 210516, Note_on_c, 0, 73, 100
1, 210551, Note_off_c, 0, 73, 65
1, 210560, Note_off_c, 0, 46, 63
1, 210563, Note_on_c, 0, 52, 66
1, 210620, Note_on_c, 0, 73, 100
1, 210657, Note_off_c, 0, 73, 66
1, 210659, Note_off_c, 0, 52, 62
1, 210709, Note_on_c, 0, 46, 50
1, 210730, Note_on_c, 0, 73, 105
1, 210745, Note_off_c, 0, 46, 61
1, 210756, Note_on_c, 0, 52, 65
1, 210760, Note_off_c, 0, 73, 70
1, 210829, Note_off_c, 0, 52, 64
1, 210834, Note_on_c, 0, 46, 68
1, 210873, Note_on_c, 0, 43, 52
1, 210906, Note_off_c, 0, 43, 63
1, 210911, Note_on_c, 0, 52, 71
1, 210916, Note_off_c, 0, 46, 62
1, 210984, Note_off_c, 0, 52, 65
1, 210985, Note_on_c, 0, 46, 67
1, 210993, Note_on_c, 0, 43, 58
1, 211043, Note_off_c, 0, 43, 58
1, 211054, Note_on_c, 0, 52, 68
1, 211059, Note_off_c, 0, 46, 63
1, 211067, Note_on_c, 0, 37, 88
1, 211121, Note_off_c, 0, 37, 61
1, 211149, Note_off_c, 0, 52, 65
1, 211156, Note_on_c, 0, 46, 66
1, 211186, Note_on_c, 0, 43, 41
1, 211187, Note_on_c, 0, 37, 87
1, 211221, Note_off_c, 0, 37, 65
1, 211225, Note_off_c, 0, 43, 49
1, 211244, Note_off_c, 0, 46, 62
1, 211255, Note_on_c, 0, 52, 62
1, 211289, Note_on_c, 0, 37, 94
1, 211335, Note_off_c, 0, 37, 63
1, 211335, Note_off_c, 0, 52, 62
1, 211347, Control_c, 0, 64, 104
1, 211362, Control_c, 0, 64, 63
1, 211369, Note_on_c, 0, 46, 63
1, 211377, Control_c, 0, 64, 23
1, 211389, Note_on_c, 0, 36, 102
1, 211392, Control_c, 0, 64, 54
1, 211407, Control_c, 0, 64, 76
1, 211421, Control_c, 0, 64, 127
1, 211424, Note_off_c, 0, 36, 65
1, 211434, Note_off_c, 0, 46, 63
1, 211439, Note_on_c, 0, 52, 71
1, 211479, Poly_aftertouch_c, 0, 43, 0
1, 211513, Note_off_c, 0, 52, 64
1, 211514, Poly_aftertouch_c, 0, 50, 127
1, 211523, Note_on_c, 0, 46, 69
1, 211541, Note_on_c, 0, 43, 58
1, 211551, Poly_aftertouch_c, 0, 50, 0
1, 211592, Note_off_c, 0, 46, 62
1, 211594, Note_on_c, 0, 52, 65
1, 211594, Note_off_c, 0, 43, 63
1, 211670, Note_off_c, 0, 52, 64
1, 211685, Note_on_c, 0, 46, 65
1, 211706, Note_on_c, 0, 43, 63
1, 211731, Note_on_c, 0, 73, 108
1, 211765, Note_off_c, 0, 73, 66
1, 211765, Note_off_c, 0, 46, 63
1, 211772, Note_on_c, 0, 52, 60
1, 211780, Note_off_c, 0, 43, 57
1, 211837, Note_on_c, 0, 73, 95
1, 211854, Note_off_c, 0, 52, 59
1, 211882, Note_off_c, 0, 73, 66
1, 211897, Note_on_c, 0, 48, 31
1, 211944, Note_on_c, 0, 73, 102
1, 211948, Note_off_c, 0, 48, 40
1, 211989, Note_off_c, 0, 73, 69
1, 211995, Note_on_c, 0, 52, 49
1, 212053, Note_on_c, 0, 72, 112
1, 212080, Note_off_c, 0, 52, 63
1, 212081, Note_on_c, 0, 46, 72
1, 212084, Note_off_c, 0, 72, 69
1, 212120, Note_on_c, 0, 43, 62
1, 212158, Note_off_c, 0, 43, 63
1, 212158, Note_off_c, 0, 46, 62
1, 212164, Note_on_c, 0, 52, 67
1, 212230, Note_off_c, 0, 52, 65
1, 212231, Note_on_c, 0, 46, 68
1, 212251, Note_on_c, 0, 43, 65
1, 212294, Note_off_c, 0, 43, 63
1, 212296, Note_on_c, 0, 52, 72
1, 212305, Note_off_c, 0, 46, 62
1, 212374, Note_on_c, 0, 46, 67
1, 212382, Note_on_c, 0, 37, 96
1, 212387, Note_off_c, 0, 52, 65
1, 212389, Note_on_c, 0, 43, 71
1, 212426, Note_off_c, 0, 37, 63
1, 212453, Note_on_c, 0, 52, 66
1, 212459, Note_off_c, 0, 43, 61
1, 212466, Note_off_c, 0, 46, 62
1, 212496, Note_on_c, 0, 37, 89
1, 212537, Note_off_c, 0, 37, 60
1, 212559, Note_off_c, 0, 52, 65
1, 212564, Note_on_c, 0, 46, 69
1, 212593, Note_on_c, 0, 37, 86
1, 212603, Note_on_c, 0, 43, 33
1, 212638, Note_off_c, 0, 43, 55
1, 212641, Note_off_c, 0, 37, 62
1, 212647, Note_off_c, 0, 46, 62
1, 212648, Note_on_c, 0, 52, 64
1, 212666, Control_c, 0, 64, 73
1, 212681, Control_c, 0, 64, 52
1, 212696, Control_c, 0, 64, 63
1, 212698, Note_on_c, 0, 36, 109
1, 212711, Control_c, 0, 64, 82
1, 212726, Control_c, 0, 64, 127
1, 212733, Note_off_c, 0, 36, 67
1, 212736, Note_off_c, 0, 52, 63
1, 212756, Note_on_c, 0, 46, 75
1, 212776, Note_on_c, 0, 43, 56
1, 212825, Note_off_c, 0, 43, 62
1, 212831, Note_off_c, 0, 46, 62
1, 212835, Note_on_c, 0, 52, 72
1, 212912, Note_off_c, 0, 52, 64
1, 212921, Note_on_c, 0, 46, 63
1, 212945, Note_on_c, 0, 43, 63
1, 212990, Note_on_c, 0, 52, 70
1, 212991, Note_off_c, 0, 46, 63
1, 212992, Note_off_c, 0, 43, 61
1, 213037, Note_on_c, 0, 73, 104
1, 213061, Poly_aftertouch_c, 0, 50, 127
1, 213070, Note_off_c, 0, 73, 67
1, 213070, Note_off_c, 0, 52, 64
1, 213082, Note_on_c, 0, 46, 64
1, 213098, Poly_aftertouch_c, 0, 50, 0
1, 213101, Note_on_c, 0, 43, 50
1, 213137, Note_on_c, 0, 73, 106
1, 213137, Note_off_c, 0, 43, 59
1, 213155, Note_off_c, 0, 46, 62
1, 213160, Note_on_c, 0, 52, 63
1, 213172, Note_off_c, 0, 73, 66
1, 213240, Note_on_c, 0, 73, 104
1, 213274, Note_off_c, 0, 52, 62
1, 213284, Note_off_c, 0, 73, 69
1, 213323, Note_on_c, 0, 46, 44
1, 213350, Note_off_c, 0, 46, 57
1, 213351, Note_on_c, 0, 72, 111
1, 213375, Note_on_c, 0, 52, 57
1, 213389, Note_off_c, 0, 72, 69
1, 213440, Note_on_c, 0, 46, 75
1, 213446, Note_off_c, 0, 52, 64
1, 213455, Note_on_c, 0, 43, 74
1, 213506, Note_off_c, 0, 43, 61
1, 213508, Note_on_c, 0, 52, 64
1, 213513, Note_off_c, 0, 46, 63
1, 213576, Note_off_c, 0, 52, 65
1, 213585, Note_on_c, 0, 46, 71
1, 213607, Note_on_c, 0, 43, 59
1, 213640, Note_off_c, 0, 43, 64
1, 213648, Note_on_c, 0, 52, 75
1, 213653, Note_off_c, 0, 46, 63
1, 213722, Note_on_c, 0, 46, 73
1, 213723, Note_on_c, 0, 37, 93
1, 213727, Note_off_c, 0, 52, 65
1, 213729, Note_on_c, 0, 43, 70
1, 213768, Note_off_c, 0, 37, 59
1, 213797, Note_on_c, 0, 52, 77
1, 213799, Note_off_c, 0, 43, 63
1, 213818, Note_off_c, 0, 46, 61
1, 213839, Note_on_c, 0, 37, 81
1, 213871, Note_off_c, 0, 37, 65
1, 213873, Note_on_c, 0, 46, 71
1, 213883, Note_on_c, 0, 43, 78
1, 213887, Note_off_c, 0, 52, 66
1, 213946, Note_on_c, 0, 37, 82
1, 213965, Note_on_c, 0, 52, 68
1, 213982, Note_off_c, 0, 43, 54
1, 213995, Note_off_c, 0, 46, 60
1, 214001, Note_off_c, 0, 37, 61
1, 214061, Note_off_c, 0, 52, 61
1, 214149, Control_c, 0, 64, 96
1, 214164, Control_c, 0, 64, 75
1, 214178, Control_c, 0, 64, 60
1, 214193, Control_c, 0, 64, 38
1, 214208, Control_c, 0, 64, 0
1, 214237, Control_c, 0, 67, 13
1, 214252, Control_c, 0, 67, 32
1, 214268, Control_c, 0, 67, 47
1, 214283, Control_c, 0, 67, 60
1, 214298, Control_c, 0, 67, 73
1, 214301, Note_on_c, 0, 36, 47
1, 214310, Note_on_c, 0, 52, 49
1, 214312, Control_c, 0, 67, 87
1, 214322, Note_on_c, 0, 43, 35
1, 214326, Note_on_c, 0, 46, 33
1, 214327, Control_c, 0, 67, 106
1, 214334, Note_off_c, 0, 36, 61
1, 214342, Control_c, 0, 67, 127
1, 214434, Note_on_c, 0, 36, 51
1, 214468, Note_off_c, 0, 36, 62
1, 214560, Note_on_c, 0, 36, 51
1, 214590, Note_off_c, 0, 36, 56
1, 214594, Control_c, 0, 64, 17
1, 214609, Control_c, 0, 64, 26
1, 214624, Control_c, 0, 64, 31
1, 214638, Control_c, 0, 64, 36
1, 214653, Control_c, 0, 64, 41
1, 214668, Control_c, 0, 64, 45
1, 214678, Note_on_c, 0, 36, 54
1, 214683, Control_c, 0, 64, 49
1, 214698, Control_c, 0, 64, 51
1, 214707, Note_off_c, 0, 36, 57
1, 214713, Control_c, 0, 64, 53
1, 214728, Control_c, 0, 64, 55
1, 214743, Control_c, 0, 64, 56
1, 214757, Control_c, 0, 64, 57
1, 214772, Control_c, 0, 64, 57
1, 214787, Control_c, 0, 64, 58
1, 214790, Note_on_c, 0, 36, 53
1, 214802, Control_c, 0, 64, 58
1, 214822, Note_off_c, 0, 36, 59
1, 214832, Control_c, 0, 64, 59
1, 214846, Control_c, 0, 64, 59
1, 214883, Control_c, 0, 64, 60
1, 214898, Control_c, 0, 64, 60
1, 214913, Note_on_c, 0, 36, 57
1, 214923, Note_off_c, 0, 43, 41
1, 214936, Note_off_c, 0, 46, 40
1, 214945, Note_off_c, 0, 36, 63
1, 214972, Control_c, 0, 64, 61
1, 214983, Note_off_c, 0, 52, 44
1, 215034, Note_on_c, 0, 36, 52
1, 215065, Note_off_c, 0, 36, 57
1, 215151, Control_c, 0, 64, 60
1, 215155, Note_on_c, 0, 36, 36
1, 215186, Note_off_c, 0, 36, 53
1, 215254, Note_on_c, 0, 36, 50
1, 215285, Note_off_c, 0, 36, 60
1, 215314, Control_c, 0, 64, 61
1, 215343, Control_c, 0, 64, 61
1, 215370, Note_on_c, 0, 36, 58
1, 215387, Control_c, 0, 64, 62
1, 215404, Note_off_c, 0, 36, 63
1, 215447, Control_c, 0, 64, 62
1, 215491, Control_c, 0, 64, 63
1, 215494, Note_on_c, 0, 36, 48
1, 215527, Note_off_c, 0, 36, 58
1, 215550, Control_c, 0, 64, 63
1, 215595, Control_c, 0, 64, 64
1, 215619, Note_on_c, 0, 36, 51
1, 215647, Control_c, 0, 64, 64
1, 215648, Note_off_c, 0, 36, 57
1, 215721, Control_c, 0, 64, 65
1, 215737, Note_on_c, 0, 36, 51
1, 215766, Note_off_c, 0, 36, 57
1, 215871, Note_on_c, 0, 36, 31
1, 215899, Note_off_c, 0, 36, 56
1, 215962, Note_on_c, 0, 36, 49
1, 215997, Note_off_c, 0, 36, 62
1, 216088, Note_on_c, 0, 36, 55
1, 216122, Note_off_c, 0, 36, 64
1, 216214, Note_on_c, 0, 36, 45
1, 216245, Note_off_c, 0, 36, 53
1, 216342, Note_on_c, 0, 36, 38
1, 216383, Note_off_c, 0, 36, 48
1, 216457, Note_on_c, 0, 36, 47
1, 216492, Note_off_c, 0, 36, 61
1, 216615, Note_on_c, 0, 36, 9
1, 216617, Control_c, 0, 64, 65
1, 216647, Note_off_c, 0, 36, 0
1, 216688, Poly_aftertouch_c, 0, 36, 0
1, 216692, Control_c, 0, 64, 66
1, 216710, Note_on_c, 0, 36, 22
1, 216722, Control_c, 0, 64, 66
1, 216752, Control_c, 0, 64, 67
1, 216752, Note_off_c, 0, 36, 59
1, 216767, Control_c, 0, 64, 68
1, 216782, Control_c, 0, 64, 69
1, 216796, Control_c, 0, 64, 70
1, 216811, Control_c, 0, 64, 71
1, 216826, Control_c, 0, 64, 72
1, 216832, Note_on_c, 0, 60, 61
1, 216840, Control_c, 0, 64, 75
1, 216849, Note_on_c, 0, 48, 50
1, 216854, Note_on_c, 0, 36, 41
1, 216855, Control_c, 0, 64, 77
1, 216870, Control_c, 0, 64, 80
1, 216885, Control_c, 0, 64, 82
1, 216889, Note_off_c, 0, 36, 48
1, 216900, Control_c, 0, 64, 85
1, 216914, Control_c, 0, 64, 87
1, 216922, Note_off_c, 0, 60, 64
1, 216929, Control_c, 0, 64, 89
1, 216944, Control_c, 0, 64, 92
1, 216949, Note_off_c, 0, 48, 60
1, 216959, Control_c, 0, 64, 96
1, 216974, Control_c, 0, 64, 100
1, 216984, Note_on_c, 0, 36, 49
1, 216988, Control_c, 0, 64, 104
1, 217003, Control_c, 0, 64, 109
1, 217018, Control_c, 0, 64, 116
1, 217020, Note_off_c, 0, 36, 61
1, 217032, Control_c, 0, 64, 127
1, 217127, Note_on_c, 0, 36, 51
1, 217167, Note_off_c, 0, 36, 60
1, 217196, Note_on_c, 0, 56, 63
1, 217207, Note_on_c, 0, 44, 60
1, 217242, Note_off_c, 0, 44, 64
1, 217253, Note_off_c, 0, 56, 63
1, 217277, Control_c, 0, 64, 119
1, 217292, Control_c, 0, 64, 112
1, 217306, Control_c, 0, 64, 107
1, 217314, Note_on_c, 0, 36, 43
1, 217321, Control_c, 0, 64, 101
1, 217322, Note_on_c, 0, 53, 63
1, 217336, Note_on_c, 0, 41, 51
1, 217336, Control_c, 0, 64, 93
1, 217351, Control_c, 0, 64, 84
1, 217355, Note_off_c, 0, 36, 60
1, 217366, Control_c, 0, 64, 76
1, 217381, Control_c, 0, 64, 68
1, 217396, Control_c, 0, 64, 62
1, 217410, Control_c, 0, 64, 55
1, 217425, Control_c, 0, 64, 49
1, 217440, Control_c, 0, 64, 46
1, 217455, Control_c, 0, 64, 44
1, 217458, Note_on_c, 0, 36, 51
1, 217470, Control_c, 0, 64, 40
1, 217485, Control_c, 0, 64, 30
1, 217488, Note_off_c, 0, 36, 63
1, 217500, Control_c, 0, 64, 0
1, 217572, Note_on_c, 0, 36, 50
1, 217607, Note_off_c, 0, 36, 62
1, 217704, Note_on_c, 0, 36, 47
1, 217735, Note_off_c, 0, 36, 54
1, 217810, Control_c, 0, 64, 12
1, 217821, Note_on_c, 0, 36, 47
1, 217825, Control_c, 0, 64, 17
1, 217840, Control_c, 0, 64, 21
1, 217860, Note_off_c, 0, 36, 52
1, 217862, Control_c, 0, 64, 24
1, 217877, Control_c, 0, 64, 26
1, 217892, Control_c, 0, 64, 29
1, 217907, Control_c, 0, 64, 32
1, 217922, Control_c, 0, 64, 36
1, 217936, Control_c, 0, 64, 39
1, 217945, Note_on_c, 0, 36, 44
1, 217951, Control_c, 0, 64, 42
1, 217966, Control_c, 0, 64, 45
1, 217977, Note_off_c, 0, 36, 53
1, 217981, Control_c, 0, 64, 48
1, 217995, Control_c, 0, 64, 52
1, 218010, Control_c, 0, 64, 54
1, 218025, Control_c, 0, 64, 56
1, 218040, Control_c, 0, 64, 58
1, 218054, Control_c, 0, 64, 59
1, 218058, Note_on_c, 0, 36, 50
1, 218069, Control_c, 0, 64, 60
1, 218084, Control_c, 0, 64, 62
1, 218089, Note_off_c, 0, 36, 58
1, 218099, Control_c, 0, 64, 63
1, 218114, Control_c, 0, 64, 64
1, 218129, Control_c, 0, 64, 66
1, 218144, Control_c, 0, 64, 67
1, 218153, Note_off_c, 0, 41, 43
1, 218159, Control_c, 0, 64, 69
1, 218174, Control_c, 0, 64, 70
1, 218182, Note_off_c, 0, 53, 63
1, 218186, Note_on_c, 0, 36, 45
1, 218188, Control_c, 0, 64, 72
1, 218203, Control_c, 0, 64, 73
1, 218218, Control_c, 0, 64, 75
1, 218218, Note_off_c, 0, 36, 50
1, 218233, Control_c, 0, 64, 76
1, 218248, Control_c, 0, 64, 76
1, 218263, Control_c, 0, 64, 77
1, 218290, Note_on_c, 0, 36, 47
1, 218323, Control_c, 0, 64, 77
1, 218325, Note_off_c, 0, 36, 64
1, 218338, Control_c, 0, 64, 79
1, 218352, Control_c, 0, 64, 84
1, 218367, Control_c, 0, 64, 96
1, 218382, Control_c, 0, 64, 127
1, 218399, Note_on_c, 0, 56, 68
1, 218419, Note_on_c, 0, 36, 48
1, 218421, Note_on_c, 0, 44, 41
1, 218445, Note_off_c, 0, 36, 57
1, 218455, Note_off_c, 0, 44, 62
1, 218528, Note_on_c, 0, 36, 55
1, 218566, Note_off_c, 0, 36, 60
1, 218653, Note_off_c, 0, 56, 62
1, 218660, Note_on_c, 0, 36, 56
1, 218661, Note_on_c, 0, 60, 67
1, 218665, Note_on_c, 0, 48, 61
1, 218687, Note_off_c, 0, 48, 62
1, 218689, Note_off_c, 0, 60, 67
1, 218695, Note_off_c, 0, 36, 63
1, 218759, Control_c, 0, 64, 103
1, 218774, Control_c, 0, 64, 80
1, 218776, Note_on_c, 0, 65, 75
1, 218788, Note_on_c, 0, 36, 54
1, 218789, Control_c, 0, 64, 65
1, 218790, Note_on_c, 0, 53, 61
1, 218804, Control_c, 0, 64, 47
1, 218818, Control_c, 0, 64, 30
1, 218821, Note_off_c, 0, 36, 63
1, 218833, Control_c, 0, 64, 35
1, 218848, Control_c, 0, 64, 46
1, 218863, Control_c, 0, 64, 55
1, 218877, Control_c, 0, 64, 62
1, 218892, Control_c, 0, 64, 65
1, 218907, Control_c, 0, 64, 70
1, 218919, Note_on_c, 0, 36, 45
1, 218922, Control_c, 0, 64, 78
1, 218931, Note_off_c, 0, 53, 56
1, 218937, Control_c, 0, 64, 91
1, 218952, Control_c, 0, 64, 115
1, 218960, Note_off_c, 0, 36, 44
1, 218967, Control_c, 0, 64, 127
1, 218972, Note_off_c, 0, 65, 59
1, 219036, Note_on_c, 0, 36, 50
1, 219071, Note_off_c, 0, 36, 61
1, 219130, Control_c, 0, 64, 92
1, 219145, Control_c, 0, 64, 73
1, 219150, Note_on_c, 0, 68, 77
1, 219160, Control_c, 0, 64, 60
1, 219163, Note_on_c, 0, 36, 57
1, 219166, Note_on_c, 0, 56, 59
1, 219175, Control_c, 0, 64, 43
1, 219196, Note_off_c, 0, 36, 62
1, 219197, Note_off_c, 0, 56, 63
1, 219205, Control_c, 0, 64, 53
1, 219220, Control_c, 0, 64, 61
1, 219234, Control_c, 0, 64, 66
1, 219249, Control_c, 0, 64, 73
1, 219264, Control_c, 0, 64, 83
1, 219277, Note_on_c, 0, 36, 62
1, 219279, Control_c, 0, 64, 98
1, 219294, Control_c, 0, 64, 127
1, 219324, Note_off_c, 0, 36, 55
1, 219424, Note_on_c, 0, 36, 56
1, 219425, Note_off_c, 0, 68, 59
1, 219430, Note_on_c, 0, 72, 72
1, 219431, Note_on_c, 0, 60, 69
1, 219455, Note_off_c, 0, 72, 69
1, 219458, Note_off_c, 0, 36, 59
1, 219458, Note_off_c, 0, 60, 67
1, 219479, Control_c, 0, 64, 93
1, 219494, Control_c, 0, 64, 75
1, 219508, Control_c, 0, 64, 61
1, 219523, Control_c, 0, 64, 13
1, 219538, Control_c, 0, 64, 0
1, 219540, Note_on_c, 0, 77, 78
1, 219544, Note_on_c, 0, 36, 50
1, 219554, Note_on_c, 0, 65, 58
1, 219579, Note_off_c, 0, 36, 64
1, 219597, Control_c, 0, 64, 36
1, 219612, Control_c, 0, 64, 56
1, 219627, Control_c, 0, 64, 64
1, 219636, Note_off_c, 0, 77, 64
1, 219641, Control_c, 0, 64, 70
1, 219656, Control_c, 0, 64, 78
1, 219665, Note_on_c, 0, 36, 51
1, 219671, Control_c, 0, 64, 91
1, 219681, Note_off_c, 0, 65, 60
1, 219686, Control_c, 0, 64, 107
1, 219692, Note_off_c, 0, 36, 59
1, 219701, Control_c, 0, 64, 127
1, 219776, Note_on_c, 0, 36, 59
1, 219804, Control_c, 0, 64, 117
1, 219811, Note_off_c, 0, 36, 63
1, 219819, Control_c, 0, 64, 111
1, 219834, Control_c, 0, 64, 107
1, 219849, Control_c, 0, 64, 103
1, 219864, Control_c, 0, 64, 97
1, 219879, Control_c, 0, 64, 85
1, 219894, Control_c, 0, 64, 71
1, 219909, Control_c, 0, 64, 60
1, 219917, Note_on_c, 0, 36, 50
1, 219918, Note_on_c, 0, 65, 63
1, 219923, Control_c, 0, 64, 39
1, 219934, Note_on_c, 0, 53, 55
1, 219938, Control_c, 0, 64, 31
1, 219950, Note_off_c, 0, 36, 63
1, 219953, Control_c, 0, 64, 40
1, 219968, Control_c, 0, 64, 52
1, 219983, Control_c, 0, 64, 61
1, 219998, Note_off_c, 0, 53, 58
1, 219998, Control_c, 0, 64, 66
1, 220013, Control_c, 0, 64, 71
1, 220028, Control_c, 0, 64, 79
1, 220043, Control_c, 0, 64, 89
1, 220044, Note_off_c, 0, 65, 63
1, 220055, Note_on_c, 0, 36, 38
1, 220057, Control_c, 0, 64, 99
1, 220072, Control_c, 0, 64, 106
1, 220087, Control_c, 0, 64, 107
1, 220087, Note_off_c, 0, 36, 54
1, 220109, Control_c, 0, 64, 106
1, 220168, Control_c, 0, 64, 105
1, 220180, Note_on_c, 0, 36, 49
1, 220183, Control_c, 0, 64, 104
1, 220198, Control_c, 0, 64, 101
1, 220213, Note_off_c, 0, 36, 52
1, 220213, Control_c, 0, 64, 97
1, 220227, Control_c, 0, 64, 90
1, 220242, Control_c, 0, 64, 82
1, 220257, Control_c, 0, 64, 73
1, 220272, Control_c, 0, 64, 65
1, 220287, Control_c, 0, 64, 56
1, 220288, Note_on_c, 0, 72, 66
1, 220292, Note_on_c, 0, 67, 58
1, 220302, Control_c, 0, 64, 45
1, 220305, Note_on_c, 0, 64, 50
1, 220307, Note_on_c, 0, 36, 51
1, 220317, Control_c, 0, 64, 40
1, 220334, Note_off_c, 0, 36, 60
1, 220346, Control_c, 0, 64, 39
1, 220361, Control_c, 0, 64, 34
1, 220376, Control_c, 0, 64, 23
1, 220391, Control_c, 0, 64, 0
1, 220433, Note_on_c, 0, 36, 31
1, 220482, Note_off_c, 0, 36, 39
1, 220527, Note_on_c, 0, 36, 40
1, 220561, Note_off_c, 0, 36, 63
1, 220639, Note_on_c, 0, 36, 55
1, 220673, Note_off_c, 0, 36, 62
1, 220764, Note_on_c, 0, 36, 46
1, 220776, Control_c, 0, 64, 27
1, 220791, Control_c, 0, 64, 46
1, 220797, Note_off_c, 0, 36, 51
1, 220806, Control_c, 0, 64, 56
1, 220812, Note_off_c, 0, 72, 47
1, 220821, Control_c, 0, 64, 62
1, 220836, Control_c, 0, 64, 65
1, 220858, Control_c, 0, 64, 68
1, 220873, Control_c, 0, 64, 70
1, 220875, Note_on_c, 0, 74, 65
1, 220880, Note_on_c, 0, 36, 50
1, 220882, Note_off_c, 0, 67, 61
1, 220886, Note_off_c, 0, 64, 56
1, 220887, Control_c, 0, 64, 74
1, 220902, Control_c, 0, 64, 77
1, 220910, Note_off_c, 0, 74, 66
1, 220915, Note_off_c, 0, 36, 63
1, 220917, Control_c, 0, 64, 78
1, 220947, Control_c, 0, 64, 75
1, 220961, Control_c, 0, 64, 70
1, 220976, Control_c, 0, 64, 62
1, 220991, Control_c, 0, 64, 54
1, 221002, Note_on_c, 0, 76, 68
1, 221006, Control_c, 0, 64, 54
1, 221011, Note_on_c, 0, 36, 51
1, 221014, Note_on_c, 0, 71, 42
1, 221019, Note_on_c, 0, 65, 46
1, 221021, Control_c, 0, 64, 57
1, 221035, Control_c, 0, 64, 62
1, 221039, Note_off_c, 0, 71, 51
1, 221041, Note_off_c, 0, 36, 59
1, 221045, Note_off_c, 0, 65, 59
1, 221050, Control_c, 0, 64, 66
1, 221059, Note_off_c, 0, 76, 65
1, 221065, Control_c, 0, 64, 72
1, 221080, Control_c, 0, 64, 80
1, 221095, Control_c, 0, 64, 92
1, 221110, Control_c, 0, 64, 110
1, 221125, Control_c, 0, 64, 127
1, 221127, Note_on_c, 0, 36, 53
1, 221135, Note_on_c, 0, 74, 60
1, 221152, Note_off_c, 0, 36, 60
1, 221169, Note_off_c, 0, 74, 65
1, 221187, Note_on_c, 0, 76, 57
1, 221223, Note_off_c, 0, 76, 65
1, 221239, Note_on_c, 0, 36, 53
1, 221250, Note_on_c, 0, 74, 62
1, 221271, Note_off_c, 0, 36, 61
1, 221273, Note_off_c, 0, 74, 62
1, 221294, Note_on_c, 0, 76, 73
1, 221326, Note_off_c, 0, 76, 63
1, 221348, Note_on_c, 0, 74, 71
1, 221364, Note_on_c, 0, 36, 57
1, 221391, Note_off_c, 0, 74, 61
1, 221393, Note_on_c, 0, 76, 82
1, 221401, Note_off_c, 0, 36, 62
1, 221453, Note_off_c, 0, 76, 57
1, 221456, Note_on_c, 0, 74, 72
1, 221497, Note_off_c, 0, 74, 61
1, 221500, Note_on_c, 0, 36, 47
1, 221507, Note_on_c, 0, 72, 77
1, 221556, Note_off_c, 0, 72, 62
1, 221577, Note_on_c, 0, 76, 72
1, 221628, Note_off_c, 0, 76, 62
1, 221629, Note_on_c, 0, 74, 76
1, 221636, Note_off_c, 0, 36, 0
1, 221656, Note_off_c, 0, 74, 65
1, 221668, Note_on_c, 0, 36, 16
1, 221725, Note_off_c, 0, 36, 56
1, 221725, Control_c, 0, 64, 96
1, 221740, Control_c, 0, 64, 82
1, 221755, Control_c, 0, 64, 71
1, 221757, Note_on_c, 0, 72, 55
1, 221769, Note_on_c, 0, 64, 51
1, 221770, Control_c, 0, 64, 62
1, 221780, Note_on_c, 0, 67, 38
1, 221784, Control_c, 0, 64, 51
1, 221799, Control_c, 0, 64, 38
1, 221814, Control_c, 0, 64, 32
1, 221828, Control_c, 0, 64, 30
1, 221843, Control_c, 0, 64, 27
1, 221844, Note_on_c, 0, 36, 51
1, 221858, Control_c, 0, 64, 17
1, 221873, Control_c, 0, 64, 0
1, 221876, Note_off_c, 0, 36, 62
1, 221968, Note_on_c, 0, 36, 50
1, 222000, Note_off_c, 0, 36, 60
1, 222093, Note_on_c, 0, 36, 53
1, 222126, Note_off_c, 0, 36, 63
1, 222150, Note_off_c, 0, 72, 61
1, 222154, Note_off_c, 0, 67, 55
1, 222173, Note_off_c, 0, 64, 57
1, 222215, Note_on_c, 0, 36, 49
1, 222249, Note_off_c, 0, 36, 53
1, 222323, Note_on_c, 0, 36, 60
1, 222363, Note_off_c, 0, 36, 63
1, 222447, Note_on_c, 0, 36, 60
1, 222541, Note_off_c, 0, 36, 62
1, 222557, Note_on_c, 0, 37, 58
1, 222611, Note_off_c, 0, 37, 58
1, 222681, Note_on_c, 0, 37, 51
1, 222718, Note_off_c, 0, 37, 63
1, 222770, Control_c, 0, 64, 34
1, 222785, Control_c, 0, 64, 53
1, 222800, Control_c, 0, 64, 63
1, 222801, Note_on_c, 0, 61, 61
1, 222814, Note_on_c, 0, 37, 43
1, 222815, Control_c, 0, 64, 70
1, 222822, Note_on_c, 0, 49, 45
1, 222830, Control_c, 0, 64, 87
1, 222844, Control_c, 0, 64, 127
1, 222849, Note_off_c, 0, 37, 52
1, 222868, Note_off_c, 0, 49, 61
1, 222883, Note_off_c, 0, 61, 59
1, 222931, Note_on_c, 0, 37, 58
1, 222974, Note_off_c, 0, 37, 55
1, 223055, Note_on_c, 0, 37, 54
1, 223070, Note_on_c, 0, 58, 61
1, 223082, Note_on_c, 0, 46, 55
1, 223089, Note_off_c, 0, 37, 61
1, 223108, Note_off_c, 0, 58, 65
1, 223114, Note_off_c, 0, 46, 58
1, 223179, Control_c, 0, 64, 104
1, 223190, Note_on_c, 0, 54, 68
1, 223193, Control_c, 0, 64, 85
1, 223198, Note_on_c, 0, 37, 56
1, 223203, Note_on_c, 0, 42, 62
1, 223208, Control_c, 0, 64, 70
1, 223223, Control_c, 0, 64, 61
1, 223235, Note_off_c, 0, 37, 62
1, 223238, Control_c, 0, 64, 50
1, 223253, Control_c, 0, 64, 42
1, 223268, Control_c, 0, 64, 39
1, 223282, Control_c, 0, 64, 38
1, 223297, Control_c, 0, 64, 33
1, 223312, Control_c, 0, 64, 20
1, 223327, Control_c, 0, 64, 0
1, 223333, Note_on_c, 0, 37, 53
1, 223362, Note_off_c, 0, 37, 57
1, 223443, Note_on_c, 0, 37, 57
1, 223474, Note_off_c, 0, 37, 62
1, 223557, Note_on_c, 0, 37, 53
1, 223590, Note_off_c, 0, 37, 61
1, 223685, Note_on_c, 0, 37, 37
1, 223751, Note_off_c, 0, 37, 0
1, 223766, Note_on_c, 0, 37, 44
1, 223810, Note_off_c, 0, 37, 61
1, 223896, Note_on_c, 0, 37, 45
1, 223927, Control_c, 0, 64, 18
1, 223933, Note_off_c, 0, 37, 61
1, 223942, Control_c, 0, 64, 33
1, 223957, Control_c, 0, 64, 49
1, 223971, Control_c, 0, 64, 57
1, 223986, Control_c, 0, 64, 62
1, 224001, Control_c, 0, 64, 65
1, 224016, Control_c, 0, 64, 67
1, 224022, Note_on_c, 0, 37, 55
1, 224026, Note_off_c, 0, 42, 42
1, 224031, Control_c, 0, 64, 69
1, 224046, Control_c, 0, 64, 72
1, 224057, Note_off_c, 0, 37, 62
1, 224061, Control_c, 0, 64, 74
1, 224076, Control_c, 0, 64, 76
1, 224091, Control_c, 0, 64, 76
1, 224120, Note_off_c, 0, 54, 61
1, 224137, Note_on_c, 0, 37, 53
1, 224171, Note_off_c, 0, 37, 63
1, 224179, Control_c, 0, 64, 75
1, 224194, Control_c, 0, 64, 73
1, 224209, Control_c, 0, 64, 71
1, 224224, Control_c, 0, 64, 70
1, 224239, Control_c, 0, 64, 71
1, 224241, Note_on_c, 0, 58, 66
1, 224253, Control_c, 0, 64, 73
1, 224257, Note_on_c, 0, 37, 49
1, 224261, Note_on_c, 0, 46, 42
1, 224268, Control_c, 0, 64, 75
1, 224283, Control_c, 0, 64, 78
1, 224293, Note_off_c, 0, 37, 59
1, 224297, Control_c, 0, 64, 83
1, 224312, Control_c, 0, 64, 90
1, 224315, Note_off_c, 0, 46, 61
1, 224327, Control_c, 0, 64, 97
1, 224342, Control_c, 0, 64, 102
1, 224357, Control_c, 0, 64, 104
1, 224367, Note_on_c, 0, 37, 52
1, 224371, Control_c, 0, 64, 106
1, 224386, Control_c, 0, 64, 110
1, 224401, Control_c, 0, 64, 121
1, 224402, Note_off_c, 0, 37, 61
1, 224416, Control_c, 0, 64, 127
1, 224493, Note_on_c, 0, 37, 44
1, 224496, Note_on_c, 0, 61, 73
1, 224503, Note_on_c, 0, 49, 64
1, 224522, Note_off_c, 0, 58, 36
1, 224524, Note_off_c, 0, 61, 68
1, 224526, Note_off_c, 0, 37, 54
1, 224534, Note_off_c, 0, 49, 65
1, 224579, Control_c, 0, 64, 105
1, 224600, Note_on_c, 0, 37, 55
1, 224601, Control_c, 0, 64, 83
1, 224609, Note_on_c, 0, 66, 79
1, 224616, Control_c, 0, 64, 68
1, 224629, Note_on_c, 0, 54, 56
1, 224630, Control_c, 0, 64, 54
1, 224635, Note_off_c, 0, 37, 63
1, 224647, Control_c, 0, 64, 17
1, 224662, Control_c, 0, 64, 0
1, 224691, Control_c, 0, 64, 25
1, 224706, Control_c, 0, 64, 41
1, 224714, Note_on_c, 0, 37, 61
1, 224720, Control_c, 0, 64, 53
1, 224735, Control_c, 0, 64, 61
1, 224750, Control_c, 0, 64, 66
1, 224755, Note_off_c, 0, 37, 62
1, 224759, Note_off_c, 0, 54, 60
1, 224765, Control_c, 0, 64, 70
1, 224780, Control_c, 0, 64, 76
1, 224794, Control_c, 0, 64, 85
1, 224809, Control_c, 0, 64, 94
1, 224824, Control_c, 0, 64, 104
1, 224839, Control_c, 0, 64, 115
1, 224841, Note_on_c, 0, 37, 63
1, 224854, Control_c, 0, 64, 119
1, 224883, Note_off_c, 0, 37, 62
1, 224913, Control_c, 0, 64, 118
1, 224928, Control_c, 0, 64, 115
1, 224943, Control_c, 0, 64, 111
1, 224958, Control_c, 0, 64, 105
1, 224973, Control_c, 0, 64, 92
1, 224980, Note_on_c, 0, 37, 61
1, 224988, Note_on_c, 0, 70, 82
1, 224988, Control_c, 0, 64, 75
1, 224991, Note_off_c, 0, 66, 62
1, 224995, Note_on_c, 0, 58, 66
1, 225002, Control_c, 0, 64, 62
1, 225016, Note_off_c, 0, 37, 62
1, 225017, Control_c, 0, 64, 34
1, 225032, Control_c, 0, 64, 0
1, 225061, Control_c, 0, 64, 33
1, 225071, Note_off_c, 0, 58, 59
1, 225076, Control_c, 0, 64, 52
1, 225091, Control_c, 0, 64, 61
1, 225104, Note_on_c, 0, 37, 56
1, 225106, Control_c, 0, 64, 66
1, 225120, Control_c, 0, 64, 71
1, 225135, Control_c, 0, 64, 76
1, 225140, Note_off_c, 0, 37, 63
1, 225150, Control_c, 0, 64, 83
1, 225165, Control_c, 0, 64, 93
1, 225180, Control_c, 0, 64, 105
1, 225194, Control_c, 0, 64, 127
1, 225228, Note_on_c, 0, 37, 58
1, 225245, Note_on_c, 0, 73, 76
1, 225249, Note_off_c, 0, 70, 61
1, 225254, Note_on_c, 0, 61, 61
1, 225269, Note_off_c, 0, 73, 69
1, 225273, Note_off_c, 0, 37, 61
1, 225282, Note_off_c, 0, 61, 63
1, 225328, Control_c, 0, 64, 112
1, 225350, Control_c, 0, 64, 83
1, 225356, Note_on_c, 0, 78, 89
1, 225365, Control_c, 0, 64, 67
1, 225367, Note_on_c, 0, 37, 54
1, 225372, Note_on_c, 0, 66, 61
1, 225380, Control_c, 0, 64, 51
1, 225395, Control_c, 0, 64, 27
1, 225405, Note_off_c, 0, 37, 60
1, 225409, Control_c, 0, 64, 27
1, 225424, Control_c, 0, 64, 37
1, 225439, Control_c, 0, 64, 50
1, 225455, Control_c, 0, 64, 59
1, 225470, Control_c, 0, 64, 64
1, 225483, Note_off_c, 0, 78, 63
1, 225485, Control_c, 0, 64, 69
1, 225490, Note_on_c, 0, 37, 48
1, 225499, Control_c, 0, 64, 76
1, 225510, Note_off_c, 0, 66, 60
1, 225514, Control_c, 0, 64, 85
1, 225524, Note_off_c, 0, 37, 56
1, 225529, Control_c, 0, 64, 97
1, 225543, Control_c, 0, 64, 116
1, 225558, Control_c, 0, 64, 127
1, 225602, Note_on_c, 0, 37, 63
1, 225636, Note_off_c, 0, 37, 63
1, 225677, Control_c, 0, 64, 123
1, 225692, Control_c, 0, 64, 116
1, 225707, Control_c, 0, 64, 108
1, 225719, Note_on_c, 0, 37, 59
1, 225722, Control_c, 0, 64, 93
1, 225737, Control_c, 0, 64, 77
1, 225743, Note_on_c, 0, 66, 71
1, 225751, Note_on_c, 0, 54, 64
1, 225751, Control_c, 0, 64, 64
1, 225763, Note_off_c, 0, 37, 60
1, 225766, Control_c, 0, 64, 44
1, 225781, Control_c, 0, 64, 27
1, 225796, Control_c, 0, 64, 35
1, 225811, Note_off_c, 0, 54, 63
1, 225811, Control_c, 0, 64, 52
1, 225826, Control_c, 0, 64, 62
1, 225840, Control_c, 0, 64, 68
1, 225855, Control_c, 0, 64, 76
1, 225856, Note_on_c, 0, 37, 56
1, 225870, Control_c, 0, 64, 90
1, 225880, Note_off_c, 0, 66, 61
1, 225885, Control_c, 0, 64, 123
1, 225887, Note_off_c, 0, 37, 63
1, 225900, Control_c, 0, 64, 127
1, 225987, Note_on_c, 0, 37, 54
1, 226026, Note_off_c, 0, 37, 60
1, 226063, Control_c, 0, 64, 106
1, 226077, Control_c, 0, 64, 88
1, 226100, Control_c, 0, 64, 72
1, 226115, Control_c, 0, 64, 62
1, 226130, Control_c, 0, 64, 46
1, 226130, Note_on_c, 0, 37, 53
1, 226135, Note_on_c, 0, 73, 65
1, 226137, Note_on_c, 0, 68, 57
1, 226145, Control_c, 0, 64, 30
1, 226148, Note_on_c, 0, 65, 50
1, 226159, Control_c, 0, 64, 26
1, 226176, Note_off_c, 0, 37, 61
1, 226189, Control_c, 0, 64, 23
1, 226204, Control_c, 0, 64, 12
1, 226219, Control_c, 0, 64, 0
1, 226265, Note_on_c, 0, 37, 56
1, 226297, Note_off_c, 0, 37, 63
1, 226382, Note_on_c, 0, 37, 53
1, 226416, Note_off_c, 0, 37, 61
1, 226496, Note_on_c, 0, 37, 55
1, 226530, Note_off_c, 0, 37, 61
1, 226616, Note_on_c, 0, 37, 47
1, 226650, Note_off_c, 0, 37, 53
1, 226663, Control_c, 0, 64, 21
1, 226678, Control_c, 0, 64, 43
1, 226692, Control_c, 0, 64, 56
1, 226702, Note_on_c, 0, 75, 73
1, 226707, Control_c, 0, 64, 63
1, 226708, Note_off_c, 0, 73, 63
1, 226709, Note_off_c, 0, 65, 62
1, 226712, Note_off_c, 0, 68, 62
1, 226722, Control_c, 0, 64, 67
1, 226735, Note_on_c, 0, 37, 45
1, 226737, Control_c, 0, 64, 71
1, 226748, Note_off_c, 0, 75, 60
1, 226752, Control_c, 0, 64, 78
1, 226766, Control_c, 0, 64, 84
1, 226771, Note_off_c, 0, 37, 52
1, 226781, Control_c, 0, 64, 89
1, 226796, Control_c, 0, 64, 87
1, 226811, Control_c, 0, 64, 80
1, 226826, Control_c, 0, 64, 70
1, 226843, Note_on_c, 0, 66, 63
1, 226845, Note_on_c, 0, 37, 60
1, 226848, Control_c, 0, 64, 62
1, 226860, Note_on_c, 0, 77, 62
1, 226863, Control_c, 0, 64, 62
1, 226877, Note_off_c, 0, 66, 66
1, 226878, Control_c, 0, 64, 64
1, 226892, Note_off_c, 0, 37, 61
1, 226893, Control_c, 0, 64, 67
1, 226907, Control_c, 0, 64, 74
1, 226922, Control_c, 0, 64, 89
1, 226924, Note_off_c, 0, 77, 62
1, 226937, Control_c, 0, 64, 127
1, 226976, Note_on_c, 0, 37, 62
1, 226979, Note_on_c, 0, 75, 72
1, 227010, Note_off_c, 0, 75, 63
1, 227012, Note_off_c, 0, 37, 61
1, 227034, Note_on_c, 0, 77, 71
1, 227070, Note_off_c, 0, 77, 60
1, 227097, Note_on_c, 0, 75, 75
1, 227099, Note_on_c, 0, 37, 63
1, 227126, Note_off_c, 0, 75, 66
1, 227133, Note_off_c, 0, 37, 61
1, 227146, Note_on_c, 0, 77, 74
1, 227182, Note_off_c, 0, 77, 60
1, 227203, Note_on_c, 0, 75, 78
1, 227222, Note_on_c, 0, 37, 54
1, 227233, Note_off_c, 0, 75, 67
1, 227248, Note_on_c, 0, 77, 85
1, 227267, Note_off_c, 0, 37, 60
1, 227303, Note_off_c, 0, 77, 62
1, 227310, Note_on_c, 0, 75, 82
1, 227348, Note_off_c, 0, 75, 58
1, 227352, Note_on_c, 0, 73, 77
1, 227369, Note_on_c, 0, 37, 51
1, 227402, Note_off_c, 0, 73, 63
1, 227406, Note_off_c, 0, 37, 61
1, 227414, Note_on_c, 0, 77, 75
1, 227468, Note_off_c, 0, 77, 64
1, 227468, Note_on_c, 0, 75, 82
1, 227495, Note_off_c, 0, 75, 67
1, 227515, Control_c, 0, 64, 96
1, 227530, Control_c, 0, 64, 79
1, 227545, Control_c, 0, 64, 67
1, 227546, Note_on_c, 0, 37, 30
1, 227560, Control_c, 0, 64, 55
1, 227575, Control_c, 0, 64, 34
1, 227596, Control_c, 0, 64, 28
1, 227599, Note_on_c, 0, 73, 66
1, 227614, Note_on_c, 0, 68, 56
1, 227615, Note_on_c, 0, 65, 53
1, 227656, Control_c, 0, 64, 26
1, 227656, Note_off_c, 0, 37, 0
1, 227671, Control_c, 0, 64, 23
1, 227686, Note_on_c, 0, 37, 31
1, 227686, Control_c, 0, 64, 21
1, 227701, Control_c, 0, 64, 19
1, 227715, Control_c, 0, 64, 17
1, 227730, Control_c, 0, 64, 12
1, 227745, Control_c, 0, 64, 0
1, 227770, Note_off_c, 0, 37, 48
1, 227821, Note_on_c, 0, 41, 52
1, 227824, Note_on_c, 0, 35, 49
1, 227865, Note_off_c, 0, 35, 60
1, 227875, Note_off_c, 0, 41, 53
1, 227941, Note_on_c, 0, 35, 52
1, 227954, Poly_aftertouch_c, 0, 41, 127
1, 227987, Note_off_c, 0, 35, 57
1, 227987, Poly_aftertouch_c, 0, 41, 0
1, 228057, Note_on_c, 0, 41, 48
1, 228062, Note_on_c, 0, 35, 48
1, 228064, Note_off_c, 0, 65, 52
1, 228070, Note_off_c, 0, 68, 54
1, 228106, Note_off_c, 0, 35, 58
1, 228112, Note_off_c, 0, 41, 57
1, 228116, Note_off_c, 0, 73, 62
1, 228179, Note_on_c, 0, 41, 44
1, 228183, Note_on_c, 0, 35, 50
1, 228231, Note_off_c, 0, 41, 57
1, 228232, Note_off_c, 0, 35, 56
1, 228300, Note_on_c, 0, 35, 46
1, 228300, Note_on_c, 0, 41, 50
1, 228355, Note_off_c, 0, 41, 57
1, 228358, Note_off_c, 0, 35, 56
1, 228426, Note_on_c, 0, 35, 41
1, 228428, Note_on_c, 0, 41, 47
1, 228469, Note_off_c, 0, 41, 61
1, 228474, Note_off_c, 0, 35, 57
1, 228546, Note_on_c, 0, 35, 42
1, 228547, Note_on_c, 0, 41, 52
1, 228604, Note_off_c, 0, 41, 48
1, 228632, Note_off_c, 0, 35, 0
1, 228646, Note_on_c, 0, 35, 41
1, 228663, Poly_aftertouch_c, 0, 41, 127
1, 228687, Poly_aftertouch_c, 0, 41, 0
1, 228697, Note_off_c, 0, 35, 58
1, 228767, Note_on_c, 0, 41, 50
1, 228768, Note_on_c, 0, 35, 42
1, 228811, Note_off_c, 0, 35, 59
1, 228815, Note_off_c, 0, 41, 60
1, 228895, Note_on_c, 0, 41, 48
1, 228903, Note_on_c, 0, 35, 39
1, 228942, Note_off_c, 0, 41, 60
1, 228943, Note_off_c, 0, 35, 52
1, 228965, Note_on_c, 0, 72, 66
1, 229006, Note_on_c, 0, 40, 54
1, 229110, Note_on_c, 0, 36, 43
1, 229142, Note_off_c, 0, 36, 58
1, 229236, Note_on_c, 0, 36, 42
1, 229269, Note_off_c, 0, 36, 49
1, 229346, Note_on_c, 0, 36, 35
1, 229374, Control_c, 0, 64, 12
1, 229385, Note_off_c, 0, 36, 42
1, 229389, Control_c, 0, 64, 23
1, 229404, Control_c, 0, 64, 34
1, 229419, Control_c, 0, 64, 45
1, 229435, Control_c, 0, 64, 54
1, 229450, Control_c, 0, 64, 60
1, 229465, Control_c, 0, 64, 63
1, 229480, Note_on_c, 0, 36, 22
1, 229480, Control_c, 0, 64, 65
1, 229495, Control_c, 0, 64, 67
1, 229509, Control_c, 0, 64, 69
1, 229524, Control_c, 0, 64, 72
1, 229539, Control_c, 0, 64, 76
1, 229545, Note_off_c, 0, 72, 60
1, 229552, Note_off_c, 0, 36, 0
1, 229554, Control_c, 0, 64, 79
1, 229558, Note_on_c, 0, 74, 69
1, 229567, Note_on_c, 0, 36, 41
1, 229569, Control_c, 0, 64, 83
1, 229584, Control_c, 0, 64, 86
1, 229598, Control_c, 0, 64, 90
1, 229613, Control_c, 0, 64, 92
1, 229624, Note_off_c, 0, 74, 60
1, 229628, Control_c, 0, 64, 93
1, 229630, Note_off_c, 0, 36, 59
1, 229643, Control_c, 0, 64, 91
1, 229657, Control_c, 0, 64, 88
1, 229672, Control_c, 0, 64, 85
1, 229677, Note_on_c, 0, 72, 63
1, 229687, Control_c, 0, 64, 81
1, 229698, Note_on_c, 0, 41, 56
1, 229702, Control_c, 0, 64, 74
1, 229716, Control_c, 0, 64, 66
1, 229719, Note_off_c, 0, 40, 41
1, 229719, Note_off_c, 0, 72, 61
1, 229731, Control_c, 0, 64, 59
1, 229740, Note_on_c, 0, 74, 67
1, 229746, Control_c, 0, 64, 51
1, 229761, Control_c, 0, 64, 48
1, 229776, Control_c, 0, 64, 47
1, 229778, Note_off_c, 0, 74, 62
1, 229800, Note_on_c, 0, 76, 65
1, 229805, Control_c, 0, 64, 46
1, 229820, Note_on_c, 0, 36, 45
1, 229820, Control_c, 0, 64, 44
1, 229838, Note_off_c, 0, 76, 65
1, 229843, Control_c, 0, 64, 42
1, 229858, Control_c, 0, 64, 41
1, 229862, Note_off_c, 0, 36, 62
1, 229865, Note_on_c, 0, 74, 67
1, 229872, Control_c, 0, 64, 40
1, 229897, Note_off_c, 0, 74, 65
1, 229909, Note_on_c, 0, 76, 69
1, 229946, Control_c, 0, 64, 40
1, 229951, Note_off_c, 0, 76, 63
1, 229960, Note_on_c, 0, 36, 50
1, 229976, Note_on_c, 0, 74, 67
1, 229990, Note_off_c, 0, 36, 61
1, 230004, Note_off_c, 0, 74, 67
1, 230020, Control_c, 0, 64, 41
1, 230029, Note_on_c, 0, 76, 63
1, 230035, Control_c, 0, 64, 45
1, 230050, Control_c, 0, 64, 50
1, 230060, Note_off_c, 0, 76, 66
1, 230064, Control_c, 0, 64, 56
1, 230076, Note_on_c, 0, 74, 69
1, 230079, Control_c, 0, 64, 62
1, 230084, Note_on_c, 0, 36, 55
1, 230094, Control_c, 0, 64, 67
1, 230106, Note_off_c, 0, 74, 65
1, 230109, Control_c, 0, 64, 72
1, 230118, Note_off_c, 0, 36, 63
1, 230121, Note_on_c, 0, 76, 81
1, 230124, Control_c, 0, 64, 80
1, 230139, Control_c, 0, 64, 86
1, 230165, Note_off_c, 0, 76, 61
1, 230169, Control_c, 0, 64, 83
1, 230184, Control_c, 0, 64, 79
1, 230186, Note_on_c, 0, 74, 66
1, 230198, Control_c, 0, 64, 74
1, 230208, Note_off_c, 0, 74, 62
1, 230213, Control_c, 0, 64, 67
1, 230228, Note_on_c, 0, 72, 73
1, 230228, Control_c, 0, 64, 60
1, 230230, Note_on_c, 0, 36, 43
1, 230243, Control_c, 0, 64, 51
1, 230258, Control_c, 0, 64, 45
1, 230273, Control_c, 0, 64, 41
1, 230279, Note_off_c, 0, 72, 62
1, 230284, Note_on_c, 0, 76, 66
1, 230288, Control_c, 0, 64, 32
1, 230294, Note_off_c, 0, 36, 56
1, 230303, Control_c, 0, 64, 0
1, 230315, Note_off_c, 0, 76, 66
1, 230330, Note_on_c, 0, 74, 69
1, 230336, Note_off_c, 0, 41, 36
1, 230386, Note_off_c, 0, 74, 62
1, 230416, Note_on_c, 0, 40, 31
1, 230420, Note_on_c, 0, 72, 58
1, 230466, Control_c, 0, 64, 47
1, 230480, Control_c, 0, 64, 61
1, 230495, Control_c, 0, 64, 67
1, 230504, Note_off_c, 0, 72, 65
1, 230510, Control_c, 0, 64, 75
1, 230513, Note_off_c, 0, 40, 37
1, 230523, Note_on_c, 0, 36, 46
1, 230525, Control_c, 0, 64, 87
1, 230539, Control_c, 0, 64, 106
1, 230554, Control_c, 0, 64, 127
1, 230556, Note_off_c, 0, 36, 54
1, 230659, Note_on_c, 0, 36, 51
1, 230681, Control_c, 0, 64, 112
1, 230690, Note_off_c, 0, 36, 53
1, 230695, Control_c, 0, 64, 88
1, 230710, Control_c, 0, 64, 72
1, 230725, Control_c, 0, 64, 60
1, 230739, Control_c, 0, 64, 37
1, 230754, Control_c, 0, 64, 0
1, 230780, Note_on_c, 0, 36, 56
1, 230783, Note_on_c, 0, 49, 67
1, 230813, Note_off_c, 0, 36, 63
1, 230813, Note_off_c, 0, 49, 64
1, 230886, Note_on_c, 0, 49, 63
1, 230901, Note_on_c, 0, 36, 51
1, 230922, Note_off_c, 0, 49, 65
1, 230929, Note_off_c, 0, 36, 58
1, 231004, Note_on_c, 0, 49, 63
1, 231011, Note_on_c, 0, 36, 55
1, 231042, Note_off_c, 0, 49, 61
1, 231047, Note_off_c, 0, 36, 63
1, 231126, Note_on_c, 0, 48, 63
1, 231135, Note_on_c, 0, 36, 55
1, 231174, Note_off_c, 0, 36, 63
1, 231266, Note_on_c, 0, 36, 58
1, 231300, Note_off_c, 0, 36, 62
1, 231370, Control_c, 0, 64, 20
1, 231385, Control_c, 0, 64, 26
1, 231396, Note_on_c, 0, 36, 52
1, 231400, Control_c, 0, 64, 30
1, 231415, Control_c, 0, 64, 30
1, 231430, Note_off_c, 0, 48, 62
1, 231430, Control_c, 0, 64, 31
1, 231431, Note_off_c, 0, 36, 62
1, 231459, Control_c, 0, 64, 31
1, 231518, Note_on_c, 0, 36, 58
1, 231549, Note_off_c, 0, 36, 63
1, 231626, Note_on_c, 0, 36, 59
1, 231658, Note_off_c, 0, 36, 64
1, 231734, Note_on_c, 0, 36, 64
1, 231775, Note_off_c, 0, 36, 64
1, 231784, Control_c, 0, 64, 31
1, 231814, Control_c, 0, 64, 30
1, 231859, Note_on_c, 0, 76, 75
1, 231868, Note_on_c, 0, 43, 60
1, 231874, Control_c, 0, 64, 30
1, 231889, Control_c, 0, 67, 127
1, 231919, Control_c, 0, 67, 126
1, 231933, Control_c, 0, 64, 29
1, 231979, Note_on_c, 0, 36, 54
1, 232014, Note_off_c, 0, 36, 62
1, 232067, Control_c, 0, 67, 125
1, 232109, Note_on_c, 0, 36, 54
1, 232118, Control_c, 0, 67, 125
1, 232133, Control_c, 0, 64, 29
1, 232133, Control_c, 0, 67, 124
1, 232138, Note_off_c, 0, 36, 61
1, 232148, Control_c, 0, 67, 124
1, 232163, Control_c, 0, 67, 123
1, 232178, Control_c, 0, 67, 122
1, 232193, Control_c, 0, 67, 117
1, 232208, Control_c, 0, 67, 97
1, 232218, Note_on_c, 0, 36, 63
1, 232223, Control_c, 0, 67, 77
1, 232238, Control_c, 0, 67, 58
1, 232248, Note_off_c, 0, 36, 64
1, 232252, Control_c, 0, 67, 41
1, 232267, Control_c, 0, 67, 26
1, 232282, Control_c, 0, 67, 15
1, 232297, Control_c, 0, 64, 29
1, 232297, Control_c, 0, 67, 0
1, 232311, Control_c, 0, 64, 32
1, 232326, Control_c, 0, 64, 37
1, 232330, Note_on_c, 0, 36, 52
1, 232341, Control_c, 0, 64, 46
1, 232356, Control_c, 0, 64, 54
1, 232363, Note_off_c, 0, 36, 61
1, 232371, Control_c, 0, 64, 60
1, 232376, Note_on_c, 0, 77, 76
1, 232383, Note_off_c, 0, 76, 60
1, 232385, Control_c, 0, 64, 64
1, 232400, Control_c, 0, 64, 69
1, 232415, Control_c, 0, 64, 76
1, 232430, Note_off_c, 0, 77, 62
1, 232430, Control_c, 0, 64, 93
1, 232434, Note_off_c, 0, 43, 53
1, 232444, Control_c, 0, 64, 127
1, 232450, Note_on_c, 0, 36, 64
1, 232518, Control_c, 0, 64, 113
1, 232518, Note_off_c, 0, 36, 61
1, 232525, Note_on_c, 0, 76, 68
1, 232533, Control_c, 0, 64, 90
1, 232548, Control_c, 0, 64, 74
1, 232556, Note_on_c, 0, 44, 70
1, 232562, Control_c, 0, 64, 64
1, 232571, Note_on_c, 0, 77, 77
1, 232571, Note_off_c, 0, 76, 63
1, 232577, Control_c, 0, 64, 53
1, 232592, Control_c, 0, 64, 43
1, 232607, Control_c, 0, 64, 41
1, 232622, Control_c, 0, 64, 40
1, 232624, Note_off_c, 0, 77, 60
1, 232637, Control_c, 0, 64, 39
1, 232640, Note_on_c, 0, 79, 70
1, 232652, Control_c, 0, 64, 36
1, 232665, Note_on_c, 0, 36, 54
1, 232667, Control_c, 0, 64, 31
1, 232673, Note_off_c, 0, 79, 60
1, 232682, Control_c, 0, 64, 27
1, 232694, Note_on_c, 0, 77, 79
1, 232697, Control_c, 0, 64, 25
1, 232707, Note_off_c, 0, 36, 64
1, 232733, Note_off_c, 0, 77, 61
1, 232741, Control_c, 0, 64, 25
1, 232756, Control_c, 0, 64, 24
1, 232758, Note_on_c, 0, 79, 70
1, 232771, Control_c, 0, 64, 23
1, 232786, Control_c, 0, 64, 21
1, 232786, Note_off_c, 0, 79, 69
1, 232799, Note_on_c, 0, 36, 58
1, 232800, Control_c, 0, 64, 18
1, 232805, Note_on_c, 0, 77, 80
1, 232815, Control_c, 0, 64, 17
1, 232847, Note_off_c, 0, 36, 62
1, 232849, Note_off_c, 0, 77, 63
1, 232866, Note_on_c, 0, 79, 68
1, 232882, Control_c, 0, 64, 27
1, 232894, Note_off_c, 0, 79, 64
1, 232896, Control_c, 0, 64, 41
1, 232911, Control_c, 0, 64, 54
1, 232923, Note_on_c, 0, 77, 80
1, 232926, Control_c, 0, 64, 62
1, 232936, Note_on_c, 0, 36, 58
1, 232941, Control_c, 0, 64, 67
1, 232952, Note_off_c, 0, 77, 63
1, 232956, Control_c, 0, 64, 73
1, 232959, Note_on_c, 0, 79, 81
1, 232971, Control_c, 0, 64, 81
1, 232974, Note_off_c, 0, 36, 60
1, 232986, Control_c, 0, 64, 82
1, 233001, Control_c, 0, 64, 79
1, 233015, Note_off_c, 0, 79, 65
1, 233015, Control_c, 0, 64, 76
1, 233020, Note_on_c, 0, 77, 84
1, 233030, Control_c, 0, 64, 71
1, 233045, Control_c, 0, 64, 65
1, 233051, Note_off_c, 0, 77, 61
1, 233060, Control_c, 0, 64, 58
1, 233072, Note_on_c, 0, 76, 77
1, 233075, Control_c, 0, 64, 48
1, 233088, Note_on_c, 0, 36, 49
1, 233089, Control_c, 0, 64, 43
1, 233104, Control_c, 0, 64, 41
1, 233113, Note_off_c, 0, 44, 50
1, 233119, Control_c, 0, 64, 38
1, 233123, Note_off_c, 0, 76, 63
1, 233124, Note_on_c, 0, 79, 72
1, 233133, Control_c, 0, 64, 30
1, 233144, Note_off_c, 0, 36, 52
1, 233148, Control_c, 0, 64, 0
1, 233161, Note_off_c, 0, 79, 63
1, 233167, Note_on_c, 0, 77, 81
1, 233227, Note_off_c, 0, 77, 62
1, 233260, Note_on_c, 0, 43, 57
1, 233261, Note_on_c, 0, 76, 67
1, 233297, Control_c, 0, 64, 15
1, 233312, Control_c, 0, 64, 46
1, 233327, Control_c, 0, 64, 59
1, 233341, Control_c, 0, 64, 65
1, 233349, Note_off_c, 0, 76, 64
1, 233356, Control_c, 0, 64, 71
1, 233368, Note_off_c, 0, 43, 48
1, 233371, Control_c, 0, 64, 77
1, 233385, Note_on_c, 0, 36, 56
1, 233386, Control_c, 0, 64, 81
1, 233401, Control_c, 0, 64, 83
1, 233421, Note_off_c, 0, 36, 62
1, 233431, Control_c, 0, 64, 83
1, 233446, Control_c, 0, 64, 81
1, 233461, Control_c, 0, 64, 78
1, 233476, Control_c, 0, 64, 75
1, 233491, Control_c, 0, 64, 71
1, 233505, Control_c, 0, 64, 65
1, 233513, Note_on_c, 0, 36, 54
1, 233520, Control_c, 0, 64, 58
1, 233520, Control_c, 0, 67, 14
1, 233535, Control_c, 0, 64, 44
1, 233535, Control_c, 0, 67, 38
1, 233543, Note_off_c, 0, 36, 58
1, 233550, Control_c, 0, 64, 34
1, 233550, Control_c, 0, 67, 57
1, 233564, Control_c, 0, 64, 32
1, 233564, Control_c, 0, 67, 69
1, 233587, Control_c, 0, 64, 30
1, 233587, Control_c, 0, 67, 76
1, 233602, Control_c, 0, 64, 25
1, 233602, Control_c, 0, 67, 80
1, 233617, Control_c, 0, 64, 12
1, 233617, Control_c, 0, 67, 82
1, 233632, Note_on_c, 0, 36, 61
1, 233632, Control_c, 0, 64, 0
1, 233632, Control_c, 0, 67, 82
1, 233633, Note_on_c, 0, 49, 66
1, 233668, Note_off_c, 0, 49, 66
1, 233671, Note_off_c, 0, 36, 63
1, 233720, Control_c, 0, 67, 83
1, 233752, Note_on_c, 0, 49, 61
1, 233754, Note_on_c, 0, 36, 63
1, 233782, Note_off_c, 0, 49, 65
1, 233789, Note_off_c, 0, 36, 61
1, 233863, Note_on_c, 0, 49, 62
1, 233877, Note_on_c, 0, 36, 52
1, 233904, Note_off_c, 0, 49, 64
1, 233909, Note_off_c, 0, 36, 59
1, 233957, Control_c, 0, 64, 26
1, 233972, Control_c, 0, 64, 43
1, 233972, Control_c, 0, 67, 82
1, 233987, Control_c, 0, 64, 56
1, 233987, Control_c, 0, 67, 80
1, 233991, Note_on_c, 0, 48, 67
1, 233994, Note_on_c, 0, 36, 58
1, 234002, Control_c, 0, 64, 62
1, 234002, Control_c, 0, 67, 80
1, 234017, Control_c, 0, 64, 66
1, 234017, Control_c, 0, 67, 78
1, 234019, Note_off_c, 0, 48, 66
1, 234028, Note_off_c, 0, 36, 62
1, 234031, Control_c, 0, 64, 69
1, 234031, Control_c, 0, 67, 77
1, 234046, Control_c, 0, 64, 72
1, 234046, Control_c, 0, 67, 75
1, 234061, Control_c, 0, 64, 75
1, 234061, Control_c, 0, 67, 74
1, 234076, Control_c, 0, 64, 77
1, 234076, Control_c, 0, 67, 72
1, 234091, Control_c, 0, 64, 78
1, 234091, Control_c, 0, 67, 71
1, 234105, Control_c, 0, 67, 69
1, 234107, Note_on_c, 0, 36, 64
1, 234120, Control_c, 0, 64, 77
1, 234120, Control_c, 0, 67, 68
1, 234135, Control_c, 0, 67, 66
1, 234142, Note_off_c, 0, 36, 62
1, 234149, Control_c, 0, 67, 65
1, 234164, Control_c, 0, 67, 65
1, 234179, Control_c, 0, 67, 63
1, 234194, Control_c, 0, 67, 60
1, 234209, Control_c, 0, 64, 78
1, 234209, Control_c, 0, 67, 56
1, 234224, Control_c, 0, 64, 78
1, 234224, Control_c, 0, 67, 48
1, 234227, Note_on_c, 0, 36, 61
1, 234240, Control_c, 0, 64, 79
1, 234240, Control_c, 0, 67, 16
1, 234254, Control_c, 0, 64, 78
1, 234254, Control_c, 0, 67, 0
1, 234259, Note_off_c, 0, 36, 63
1, 234269, Control_c, 0, 64, 76
1, 234284, Control_c, 0, 64, 73
1, 234299, Control_c, 0, 64, 69
1, 234314, Control_c, 0, 64, 65
1, 234336, Control_c, 0, 64, 60
1, 234351, Control_c, 0, 64, 54
1, 234352, Note_on_c, 0, 36, 59
1, 234356, Note_on_c, 0, 79, 68
1, 234366, Control_c, 0, 64, 48
1, 234373, Note_on_c, 0, 76, 52
1, 234381, Control_c, 0, 64, 39
1, 234390, Note_off_c, 0, 36, 63
1, 234393, Note_off_c, 0, 79, 63
1, 234395, Control_c, 0, 64, 26
1, 234405, Note_off_c, 0, 76, 64
1, 234410, Control_c, 0, 64, 0
1, 234478, Note_on_c, 0, 79, 63
1, 234483, Note_on_c, 0, 76, 60
1, 234485, Note_on_c, 0, 36, 53
1, 234510, Note_off_c, 0, 79, 65
1, 234513, Note_off_c, 0, 36, 58
1, 234519, Note_off_c, 0, 76, 64
1, 234575, Note_on_c, 0, 79, 69
1, 234589, Note_on_c, 0, 36, 61
1, 234594, Note_on_c, 0, 76, 56
1, 234621, Note_off_c, 0, 36, 63
1, 234622, Note_off_c, 0, 79, 62
1, 234631, Note_off_c, 0, 76, 62
1, 234691, Control_c, 0, 64, 47
1, 234700, Note_on_c, 0, 36, 67
1, 234706, Control_c, 0, 64, 62
1, 234712, Note_on_c, 0, 82, 73
1, 234716, Note_on_c, 0, 79, 70
1, 234721, Control_c, 0, 64, 69
1, 234736, Control_c, 0, 64, 80
1, 234743, Note_off_c, 0, 36, 63
1, 234744, Note_off_c, 0, 79, 67
1, 234750, Note_off_c, 0, 82, 62
1, 234750, Control_c, 0, 64, 99
1, 234765, Control_c, 0, 64, 115
1, 234780, Control_c, 0, 64, 119
1, 234795, Control_c, 0, 64, 117
1, 234810, Control_c, 0, 64, 111
1, 234825, Control_c, 0, 64, 108
1, 234826, Note_on_c, 0, 36, 65
1, 234840, Control_c, 0, 64, 108
1, 234854, Control_c, 0, 64, 107
1, 234859, Note_off_c, 0, 36, 64
1, 234869, Control_c, 0, 64, 104
1, 234884, Control_c, 0, 64, 101
1, 234898, Control_c, 0, 64, 99
1, 234913, Control_c, 0, 64, 95
1, 234928, Control_c, 0, 64, 91
1, 234932, Note_on_c, 0, 36, 67
1, 234943, Control_c, 0, 64, 83
1, 234958, Control_c, 0, 64, 75
1, 234972, Control_c, 0, 64, 68
1, 234975, Note_off_c, 0, 36, 63
1, 234987, Control_c, 0, 64, 61
1, 235002, Control_c, 0, 64, 53
1, 235017, Control_c, 0, 64, 47
1, 235033, Control_c, 0, 64, 39
1, 235048, Control_c, 0, 64, 28
1, 235063, Control_c, 0, 64, 0
1, 235071, Note_on_c, 0, 36, 61
1, 235080, Note_on_c, 0, 49, 76
1, 235111, Note_off_c, 0, 36, 63
1, 235114, Note_off_c, 0, 49, 64
1, 235187, Note_on_c, 0, 36, 65
1, 235197, Note_on_c, 0, 49, 73
1, 235224, Note_off_c, 0, 49, 66
1, 235224, Note_off_c, 0, 36, 64
1, 235302, Note_on_c, 0, 49, 71
1, 235307, Note_on_c, 0, 36, 65
1, 235336, Note_off_c, 0, 36, 64
1, 235347, Note_off_c, 0, 49, 62
1, 235408, Note_on_c, 0, 36, 61
1, 235422, Note_on_c, 0, 48, 80
1, 235425, Control_c, 0, 64, 40
1, 235440, Control_c, 0, 64, 57
1, 235449, Note_off_c, 0, 48, 68
1, 235455, Control_c, 0, 64, 65
1, 235456, Note_off_c, 0, 36, 62
1, 235470, Control_c, 0, 64, 71
1, 235484, Control_c, 0, 64, 78
1, 235499, Control_c, 0, 64, 83
1, 235514, Control_c, 0, 64, 84
1, 235529, Control_c, 0, 64, 83
1, 235542, Note_on_c, 0, 36, 66
1, 235543, Control_c, 0, 64, 83
1, 235558, Control_c, 0, 64, 82
1, 235573, Control_c, 0, 64, 82
1, 235575, Note_off_c, 0, 36, 64
1, 235588, Control_c, 0, 64, 81
1, 235603, Control_c, 0, 64, 80
1, 235618, Control_c, 0, 64, 80
1, 235633, Control_c, 0, 64, 79
1, 235648, Control_c, 0, 64, 78
1, 235655, Note_on_c, 0, 36, 63
1, 235663, Control_c, 0, 64, 78
1, 235677, Control_c, 0, 64, 77
1, 235692, Control_c, 0, 64, 74
1, 235700, Note_off_c, 0, 36, 62
1, 235707, Control_c, 0, 64, 66
1, 235722, Control_c, 0, 64, 48
1, 235736, Control_c, 0, 64, 0
1, 235774, Note_on_c, 0, 82, 78
1, 235779, Note_on_c, 0, 79, 75
1, 235784, Note_on_c, 0, 36, 63
1, 235812, Note_off_c, 0, 79, 61
1, 235812, Note_off_c, 0, 82, 65
1, 235821, Note_off_c, 0, 36, 61
1, 235833, Control_c, 0, 64, 41
1, 235848, Control_c, 0, 64, 57
1, 235863, Control_c, 0, 64, 63
1, 235878, Control_c, 0, 64, 65
1, 235897, Note_on_c, 0, 82, 78
1, 235903, Note_on_c, 0, 79, 69
1, 235905, Note_on_c, 0, 36, 61
1, 235929, Note_off_c, 0, 79, 69
1, 235931, Note_off_c, 0, 82, 64
1, 235937, Note_off_c, 0, 36, 62
1, 236008, Note_on_c, 0, 82, 79
1, 236013, Note_on_c, 0, 36, 65
1, 236019, Note_on_c, 0, 79, 61
1, 236026, Control_c, 0, 64, 64
1, 236041, Control_c, 0, 64, 63
1, 236047, Note_off_c, 0, 36, 63
1, 236053, Note_off_c, 0, 79, 65
1, 236056, Control_c, 0, 64, 54
1, 236067, Note_off_c, 0, 82, 62
1, 236071, Control_c, 0, 64, 19
1, 236086, Control_c, 0, 64, 0
1, 236118, Note_on_c, 0, 88, 81
1, 236129, Note_on_c, 0, 36, 67
1, 236145, Control_c, 0, 64, 41
1, 236159, Control_c, 0, 64, 59
1, 236166, Note_off_c, 0, 36, 65
1, 236174, Note_on_c, 0, 82, 78
1, 236174, Control_c, 0, 64, 66
1, 236189, Control_c, 0, 64, 73
1, 236204, Control_c, 0, 64, 81
1, 236205, Note_off_c, 0, 88, 57
1, 236219, Note_off_c, 0, 82, 67
1, 236219, Control_c, 0, 64, 89
1, 236232, Note_on_c, 0, 91, 80
1, 236233, Control_c, 0, 64, 95
1, 236240, Note_on_c, 0, 36, 58
1, 236248, Control_c, 0, 64, 100
1, 236253, Note_off_c, 0, 91, 70
1, 236263, Control_c, 0, 64, 104
1, 236278, Control_c, 0, 64, 104
1, 236285, Note_off_c, 0, 36, 58
1, 236305, Note_on_c, 0, 88, 75
1, 236356, Note_on_c, 0, 94, 83
1, 236360, Note_off_c, 0, 88, 64
1, 236362, Note_on_c, 0, 36, 56
1, 236396, Note_off_c, 0, 36, 63
1, 236411, Note_on_c, 0, 91, 78
1, 236411, Control_c, 0, 64, 104
1, 236425, Note_off_c, 0, 94, 63
1, 236426, Control_c, 0, 64, 90
1, 236441, Control_c, 0, 64, 71
1, 236453, Note_off_c, 0, 91, 62
1, 236455, Control_c, 0, 64, 46
1, 236467, Note_on_c, 0, 36, 66
1, 236470, Note_on_c, 0, 88, 76
1, 236470, Control_c, 0, 64, 0
1, 236491, Note_off_c, 0, 88, 70
1, 236509, Note_off_c, 0, 36, 60
1, 236515, Control_c, 0, 64, 42
1, 236530, Control_c, 0, 64, 62
1, 236530, Note_on_c, 0, 91, 75
1, 236545, Control_c, 0, 64, 75
1, 236559, Control_c, 0, 64, 127
1, 236585, Note_off_c, 0, 91, 61
1, 236605, Note_on_c, 0, 36, 58
1, 236614, Note_on_c, 0, 82, 58
1, 236635, Poly_aftertouch_c, 0, 87, 127
1, 236636, Note_off_c, 0, 36, 63
1, 236640, Note_off_c, 0, 82, 61
1, 236652, Note_on_c, 0, 88, 75
1, 236669, Poly_aftertouch_c, 0, 87, 0
1, 236691, Note_off_c, 0, 88, 62
1, 236703, Note_on_c, 0, 36, 62
1, 236712, Note_on_c, 0, 79, 81
1, 236744, Note_off_c, 0, 36, 62
1, 236745, Note_off_c, 0, 79, 64
1, 236780, Note_on_c, 0, 82, 80
1, 236789, Control_c, 0, 64, 102
1, 236803, Note_off_c, 0, 82, 67
1, 236804, Control_c, 0, 64, 65
1, 236819, Control_c, 0, 64, 0
1, 236821, Note_on_c, 0, 36, 68
1, 236837, Note_on_c, 0, 76, 75
1, 236861, Note_off_c, 0, 36, 64
1, 236863, Note_off_c, 0, 76, 68
1, 236864, Control_c, 0, 64, 50
1, 236879, Control_c, 0, 64, 67
1, 236894, Control_c, 0, 64, 127
1, 236894, Note_on_c, 0, 79, 84
1, 236944, Note_off_c, 0, 79, 64
1, 236947, Note_on_c, 0, 36, 56
1, 236978, Note_off_c, 0, 36, 63
1, 236989, Note_on_c, 0, 71, 24
1, 237004, Note_on_c, 0, 76, 65
1, 237024, Note_off_c, 0, 71, 44
1, 237041, Note_off_c, 0, 76, 66
1, 237045, Note_on_c, 0, 36, 70
1, 237068, Note_on_c, 0, 67, 80
1, 237094, Note_off_c, 0, 36, 59
1, 237107, Note_off_c, 0, 67, 59
1, 237120, Note_on_c, 0, 70, 83
1, 237160, Note_on_c, 0, 36, 64
1, 237164, Note_off_c, 0, 70, 62
1, 237174, Control_c, 0, 64, 77
1, 237189, Control_c, 0, 64, 55
1, 237193, Note_on_c, 0, 64, 63
1, 237204, Control_c, 0, 64, 46
1, 237207, Note_off_c, 0, 36, 58
1, 237214, Note_off_c, 0, 64, 40
1, 237219, Control_c, 0, 64, 56
1, 237234, Control_c, 0, 64, 66
1, 237246, Note_on_c, 0, 69, 61
1, 237247, Note_on_c, 0, 67, 74
1, 237248, Control_c, 0, 64, 89
1, 237263, Control_c, 0, 64, 127
1, 237272, Note_off_c, 0, 69, 66
1, 237285, Note_on_c, 0, 36, 56
1, 237292, Note_off_c, 0, 67, 59
1, 237298, Note_on_c, 0, 58, 76
1, 237326, Note_off_c, 0, 36, 62
1, 237341, Poly_aftertouch_c, 0, 64, 127
1, 237358, Note_on_c, 0, 64, 28
1, 237364, Note_off_c, 0, 58, 63
1, 237400, Note_on_c, 0, 36, 72
1, 237406, Note_off_c, 0, 64, 65
1, 237423, Note_on_c, 0, 55, 81
1, 237444, Note_off_c, 0, 36, 60
1, 237466, Note_off_c, 0, 55, 62
1, 237484, Note_on_c, 0, 58, 81
1, 237518, Note_on_c, 0, 36, 72
1, 237518, Note_off_c, 0, 58, 62
1, 237524, Control_c, 0, 64, 82
1, 237539, Control_c, 0, 64, 64
1, 237549, Note_on_c, 0, 52, 75
1, 237553, Control_c, 0, 64, 62
1, 237568, Control_c, 0, 64, 67
1, 237569, Note_off_c, 0, 36, 59
1, 237573, Note_off_c, 0, 52, 69
1, 237583, Control_c, 0, 64, 85
1, 237597, Control_c, 0, 64, 127
1, 237601, Note_on_c, 0, 55, 81
1, 237636, Note_on_c, 0, 36, 68
1, 237645, Note_on_c, 0, 52, 32
1, 237657, Note_off_c, 0, 55, 63
1, 237658, Note_on_c, 0, 46, 77
1, 237671, Note_off_c, 0, 52, 56
1, 237686, Note_off_c, 0, 36, 59
1, 237726, Note_off_c, 0, 46, 64
1, 237729, Note_on_c, 0, 52, 82
1, 237755, Note_on_c, 0, 36, 75
1, 237782, Note_on_c, 0, 43, 80
1, 237805, Control_c, 0, 64, 76
1, 237808, Note_off_c, 0, 36, 63
1, 237820, Control_c, 0, 64, 49
1, 237835, Control_c, 0, 64, 15
1, 237848, Note_on_c, 0, 49, 80
1, 237850, Note_off_c, 0, 52, 63
1, 237850, Control_c, 0, 64, 44
1, 237860, Note_off_c, 0, 43, 64
1, 237865, Control_c, 0, 64, 63
1, 237870, Note_on_c, 0, 36, 77
1, 237879, Control_c, 0, 64, 83
1, 237894, Control_c, 0, 64, 127
1, 237916, Note_off_c, 0, 49, 65
1, 237918, Note_off_c, 0, 36, 60
1, 237937, Note_on_c, 0, 52, 92
1, 237960, Note_on_c, 0, 50, 8
1, 237961, Note_off_c, 0, 50, 127
1, 237985, Note_on_c, 0, 36, 84
1, 238002, Note_off_c, 0, 52, 66
1, 238003, Note_on_c, 0, 55, 94
1, 238017, Poly_aftertouch_c, 0, 50, 0
1, 238034, Note_off_c, 0, 36, 62
1, 238042, Note_off_c, 0, 55, 67
1, 238102, Note_on_c, 0, 36, 84
1, 238110, Note_on_c, 0, 52, 85
1, 238138, Control_c, 0, 64, 84
1, 238151, Note_off_c, 0, 36, 63
1, 238153, Control_c, 0, 64, 54
1, 238168, Control_c, 0, 64, 0
1, 238176, Note_off_c, 0, 52, 64
1, 238212, Control_c, 0, 64, 49
1, 238225, Note_on_c, 0, 43, 91
1, 238227, Note_on_c, 0, 31, 84
1, 238228, Note_on_c, 0, 58, 89
1, 238228, Control_c, 0, 64, 76
1, 238230, Poly_aftertouch_c, 0, 60, 0
1, 238243, Control_c, 0, 64, 127
1, 238274, Note_off_c, 0, 43, 64
1, 238276, Note_off_c, 0, 31, 62
1, 238328, Note_off_c, 0, 58, 62
1, 238361, Note_on_c, 0, 36, 90
1, 238411, Note_off_c, 0, 36, 63
1, 238503, Note_on_c, 0, 36, 98
1, 238509, Control_c, 0, 64, 107
1, 238524, Control_c, 0, 64, 71
1, 238539, Control_c, 0, 64, 44
1, 238554, Note_off_c, 0, 36, 63
1, 238554, Control_c, 0, 64, 0
1, 238643, Control_c, 0, 64, 45
1, 238655, Note_on_c, 0, 61, 96
1, 238656, Note_on_c, 0, 49, 98
1, 238658, Control_c, 0, 64, 71
1, 238661, Note_on_c, 0, 56, 83
1, 238663, Note_on_c, 0, 41, 95
1, 238664, Note_on_c, 0, 29, 89
1, 238673, Control_c, 0, 64, 127
1, 238715, Note_off_c, 0, 49, 64
1, 238748, Note_off_c, 0, 56, 57
1, 238782, Note_off_c, 0, 61, 58
1, 238793, Note_off_c, 0, 41, 50
1, 238828, Note_on_c, 0, 36, 80
1, 238853, Note_off_c, 0, 29, 58
1, 238888, Control_c, 0, 64, 90
1, 238900, Note_off_c, 0, 36, 61
1, 238902, Control_c, 0, 64, 70
1, 238917, Control_c, 0, 64, 56
1, 238932, Control_c, 0, 64, 31
1, 238947, Control_c, 0, 64, 0
1, 239033, Note_on_c, 0, 36, 66
1, 239118, Note_off_c, 0, 36, 56
1, 239317, Control_c, 0, 67, 24
1, 239331, Control_c, 0, 67, 35
1, 239346, Control_c, 0, 67, 41
1, 239361, Control_c, 0, 67, 48
1, 239375, Control_c, 0, 67, 58
1, 239390, Control_c, 0, 67, 72
1, 239405, Control_c, 0, 67, 89
1, 239420, Control_c, 0, 67, 102
1, 239435, Control_c, 0, 67, 112
1, 239449, Control_c, 0, 67, 124
1, 239464, Control_c, 0, 67, 127
1, 239469, Note_on_c, 0, 60, 45
1, 239482, Note_on_c, 0, 52, 37
1, 239490, Note_on_c, 0, 55, 31
1, 239493, Note_on_c, 0, 40, 32
1, 239505, Note_on_c, 0, 36, 33
1, 239946, Control_c, 0, 64, 21
1, 239961, Control_c, 0, 64, 30
1, 239976, Control_c, 0, 64, 38
1, 239991, Control_c, 0, 64, 42
1, 240006, Control_c, 0, 64, 45
1, 240021, Control_c, 0, 64, 47
1, 240036, Control_c, 0, 64, 48
1, 240050, Control_c, 0, 64, 50
1, 240065, Control_c, 0, 64, 52
1, 240080, Control_c, 0, 64, 54
1, 240095, Control_c, 0, 64, 56
1, 240110, Control_c, 0, 64, 57
1, 240125, Control_c, 0, 64, 58
1, 240140, Control_c, 0, 64, 59
1, 240154, Control_c, 0, 64, 60
1, 240169, Control_c, 0, 64, 61
1, 240184, Control_c, 0, 64, 62
1, 240198, Control_c, 0, 64, 62
1, 240213, Control_c, 0, 64, 63
1, 240228, Control_c, 0, 64, 64
1, 240243, Control_c, 0, 64, 65
1, 240258, Control_c, 0, 64, 66
1, 240272, Control_c, 0, 64, 67
1, 240287, Control_c, 0, 64, 69
1, 240302, Control_c, 0, 64, 70
1, 240325, Control_c, 0, 64, 72
1, 240340, Control_c, 0, 64, 74
1, 240354, Control_c, 0, 64, 75
1, 240369, Control_c, 0, 64, 76
1, 240384, Control_c, 0, 64, 77
1, 240398, Control_c, 0, 64, 78
1, 240413, Control_c, 0, 64, 78
1, 240428, Control_c, 0, 64, 79
1, 240443, Control_c, 0, 64, 80
1, 240458, Control_c, 0, 64, 82
1, 240472, Control_c, 0, 64, 83
1, 240487, Control_c, 0, 64, 86
1, 240502, Control_c, 0, 64, 88
1, 240517, Control_c, 0, 64, 91
1, 240532, Control_c, 0, 64, 95
1, 240546, Control_c, 0, 64, 101
1, 240548, Note_off_c, 0, 52, 34
1, 240561, Control_c, 0, 64, 110
1, 240565, Note_off_c, 0, 40, 27
1, 240576, Control_c, 0, 64, 127
1, 240665, Note_off_c, 0, 36, 36
1, 240696, Note_off_c, 0, 60, 32
1, 240697, Note_off_c, 0, 55, 37
1, 241103, Control_c, 0, 64, 121
1, 241118, Control_c, 0, 64, 117
1, 241133, Control_c, 0, 64, 113
1, 241147, Control_c, 0, 64, 111
1, 241162, Control_c, 0, 64, 108
1, 241177, Control_c, 0, 64, 107
1, 241192, Control_c, 0, 64, 105
1, 241207, Control_c, 0, 64, 103
1, 241222, Control_c, 0, 64, 99
1, 241237, Control_c, 0, 64, 93
1, 241252, Control_c, 0, 64, 88
1, 241267, Control_c, 0, 64, 83
1, 241282, Control_c, 0, 64, 79
1, 241296, Control_c, 0, 64, 75
1, 241311, Control_c, 0, 64, 71
1, 241326, Control_c, 0, 64, 67
1, 241341, Control_c, 0, 64, 64
1, 241355, Control_c, 0, 64, 62
1, 241370, Control_c, 0, 64, 61
1, 241385, Control_c, 0, 64, 60
1, 241400, Control_c, 0, 64, 59
1, 241416, Control_c, 0, 64, 58
1, 241431, Control_c, 0, 64, 55
1, 241445, Control_c, 0, 64, 53
1, 241460, Control_c, 0, 64, 51
1, 241475, Control_c, 0, 64, 49
1, 241490, Control_c, 0, 64, 47
1, 241505, Control_c, 0, 64, 47
1, 241549, Control_c, 0, 64, 47
1, 241564, Control_c, 0, 64, 49
1, 241579, Control_c, 0, 64, 51
1, 241593, Control_c, 0, 64, 54
1, 241608, Control_c, 0, 64, 57
1, 241618, Note_on_c, 0, 60, 45
1, 241623, Control_c, 0, 64, 61
1, 241634, Note_on_c, 0, 36, 39
1, 241638, Control_c, 0, 64, 64
1, 241652, Control_c, 0, 64, 66
1, 241667, Control_c, 0, 64, 68
1, 241682, Control_c, 0, 64, 70
1, 241697, Control_c, 0, 64, 74
1, 241712, Control_c, 0, 64, 79
1, 241718, Note_off_c, 0, 60, 54
1, 241726, Control_c, 0, 64, 86
1, 241741, Control_c, 0, 64, 100
1, 241750, Note_off_c, 0, 36, 36
1, 241756, Control_c, 0, 64, 127
1, 241897, Control_c, 0, 67, 125
1, 241912, Control_c, 0, 67, 117
1, 241926, Control_c, 0, 67, 92
1, 241941, Control_c, 0, 67, 45
1, 241956, Control_c, 0, 67, 0
1, 242022, Note_on_c, 0, 33, 58
1, 242033, Note_on_c, 0, 57, 77
1, 242088, Note_off_c, 0, 33, 54
1, 242089, Control_c, 0, 64, 84
1, 242095, Note_on_c, 0, 29, 105
1, 242098, Note_on_c, 0, 53, 100
1, 242104, Control_c, 0, 64, 30
1, 242119, Control_c, 0, 64, 0
1, 242134, Note_off_c, 0, 57, 64
1, 242178, Control_c, 0, 64, 62
1, 242193, Control_c, 0, 64, 91
1, 242208, Control_c, 0, 64, 127
1, 242304, Note_off_c, 0, 53, 58
1, 242362, Note_on_c, 0, 53, 98
1, 242364, Note_on_c, 0, 57, 86
1, 242367, Note_on_c, 0, 65, 87
1, 242400, Note_off_c, 0, 53, 64
1, 242405, Note_off_c, 0, 57, 65
1, 242409, Note_on_c, 0, 62, 29
1, 242416, Note_off_c, 0, 29, 55
1, 242448, Note_off_c, 0, 62, 47
1, 242462, Note_off_c, 0, 65, 55
1, 242508, Note_on_c, 0, 41, 95
1, 242516, Note_on_c, 0, 36, 74
1, 242519, Note_on_c, 0, 33, 73
1, 242525, Note_on_c, 0, 29, 75
1, 242615, Note_off_c, 0, 29, 55
1, 242627, Note_off_c, 0, 41, 60
1, 242644, Note_on_c, 0, 57, 99
1, 242646, Note_on_c, 0, 60, 90
1, 242647, Note_on_c, 0, 69, 94
1, 242656, Note_off_c, 0, 36, 55
1, 242666, Note_on_c, 0, 65, 52
1, 242671, Note_off_c, 0, 33, 52
1, 242677, Note_off_c, 0, 60, 64
1, 242681, Note_off_c, 0, 57, 67
1, 242689, Note_off_c, 0, 65, 59
1, 242718, Note_off_c, 0, 69, 60
1, 242769, Note_on_c, 0, 41, 87
1, 242772, Note_on_c, 0, 29, 77
1, 242781, Note_on_c, 0, 36, 64
1, 242783, Note_on_c, 0, 33, 65
1, 242845, Note_off_c, 0, 29, 59
1, 242857, Note_off_c, 0, 41, 59
1, 242879, Note_on_c, 0, 60, 102
1, 242882, Note_on_c, 0, 65, 92
1, 242889, Note_on_c, 0, 69, 73
1, 242889, Note_on_c, 0, 72, 89
1, 242912, Note_off_c, 0, 36, 31
1, 242918, Note_off_c, 0, 60, 68
1, 242921, Note_off_c, 0, 65, 64
1, 242924, Note_off_c, 0, 69, 62
1, 242926, Note_off_c, 0, 33, 29
1, 242945, Note_off_c, 0, 72, 67
1, 242993, Note_on_c, 0, 41, 87
1, 242995, Poly_aftertouch_c, 0, 71, 0
1, 242997, Note_on_c, 0, 36, 50
1, 242999, Note_on_c, 0, 29, 75
1, 242999, Note_on_c, 0, 33, 54
1, 243082, Note_off_c, 0, 29, 55
1, 243084, Note_off_c, 0, 41, 58
1, 243098, Note_on_c, 0, 69, 75
1, 243103, Note_on_c, 0, 65, 103
1, 243103, Note_off_c, 0, 33, 54
1, 243107, Note_on_c, 0, 77, 95
1, 243143, Note_off_c, 0, 69, 67
1, 243144, Note_on_c, 0, 74, 40
1, 243145, Note_off_c, 0, 65, 65
1, 243168, Note_off_c, 0, 74, 57
1, 243177, Note_off_c, 0, 36, 35
1, 243198, Note_off_c, 0, 77, 53
1, 243223, Note_on_c, 0, 41, 89
1, 243232, Note_on_c, 0, 29, 72
1, 243233, Note_on_c, 0, 36, 53
1, 243241, Note_on_c, 0, 33, 65
1, 243304, Note_off_c, 0, 29, 58
1, 243318, Note_off_c, 0, 41, 57
1, 243335, Note_off_c, 0, 33, 55
1, 243337, Note_off_c, 0, 36, 56
1, 243342, Note_on_c, 0, 69, 103
1, 243346, Note_on_c, 0, 72, 92
1, 243348, Note_on_c, 0, 81, 88
1, 243352, Note_on_c, 0, 77, 74
1, 243368, Note_off_c, 0, 72, 67
1, 243377, Note_off_c, 0, 77, 66
1, 243381, Note_off_c, 0, 69, 65
1, 243413, Note_off_c, 0, 81, 67
1, 243470, Note_on_c, 0, 41, 90
1, 243478, Note_on_c, 0, 33, 69
1, 243481, Note_on_c, 0, 29, 74
1, 243483, Note_on_c, 0, 36, 73
1, 243526, Note_off_c, 0, 29, 53
1, 243546, Note_off_c, 0, 41, 59
1, 243547, Note_on_c, 0, 78, 39
1, 243569, Note_off_c, 0, 33, 55
1, 243571, Note_off_c, 0, 36, 53
1, 243590, Note_on_c, 0, 72, 100
1, 243598, Note_on_c, 0, 77, 90
1, 243599, Note_on_c, 0, 84, 95
1, 243602, Note_on_c, 0, 81, 72
1, 243602, Note_off_c, 0, 78, 62
1, 243622, Note_off_c, 0, 77, 67
1, 243630, Note_off_c, 0, 72, 66
1, 243638, Note_off_c, 0, 81, 63
1, 243646, Note_on_c, 0, 83, 13
1, 243657, Note_off_c, 0, 84, 65
1, 243691, Note_off_c, 0, 83, 52
1, 243726, Note_on_c, 0, 77, 111
1, 243727, Note_on_c, 0, 41, 93
1, 243728, Note_on_c, 0, 33, 84
1, 243729, Note_on_c, 0, 89, 105
1, 243731, Note_on_c, 0, 36, 83
1, 243732, Note_on_c, 0, 29, 91
1, 243734, Note_on_c, 0, 81, 90
1, 243734, Note_on_c, 0, 84, 96
1, 243763, Note_on_c, 0, 31, 53
1, 243764, Control_c, 0, 64, 98
1, 243768, Note_on_c, 0, 87, 22
1, 243776, Note_off_c, 0, 81, 0
1, 243777, Note_on_c, 0, 40, 27
1, 243779, Control_c, 0, 64, 64
1, 243794, Control_c, 0, 64, 0
1, 243797, Note_off_c, 0, 31, 50
1, 243800, Note_off_c, 0, 87, 34
1, 243814, Poly_aftertouch_c, 0, 81, 127
1, 243825, Note_off_c, 0, 40, 52
1, 244113, Control_c, 0, 64, 13
1, 244128, Control_c, 0, 64, 29
1, 244143, Control_c, 0, 64, 40
1, 244158, Control_c, 0, 64, 52
1, 244173, Control_c, 0, 64, 59
1, 244187, Control_c, 0, 64, 63
1, 244202, Control_c, 0, 64, 67
1, 244217, Control_c, 0, 64, 72
1, 244232, Control_c, 0, 64, 79
1, 244246, Control_c, 0, 64, 90
1, 244261, Control_c, 0, 64, 127
1, 244466, Note_off_c, 0, 89, 61
1, 244480, Note_off_c, 0, 77, 58
1, 244497, Note_off_c, 0, 84, 60
1, 244502, Poly_aftertouch_c, 0, 81, 0
1, 244531, Note_off_c, 0, 29, 56
1, 244534, Note_off_c, 0, 41, 60
1, 244608, Note_off_c, 0, 33, 15
1, 244623, Note_off_c, 0, 36, 34
1, 244722, Control_c, 0, 64, 107
1, 244736, Control_c, 0, 64, 89
1, 244751, Control_c, 0, 64, 77
1, 244766, Control_c, 0, 64, 68
1, 244781, Control_c, 0, 64, 62
1, 244781, Control_c, 0, 67, 19
1, 244796, Control_c, 0, 64, 56
1, 244796, Control_c, 0, 67, 41
1, 244818, Control_c, 0, 64, 54
1, 244818, Control_c, 0, 67, 60
1, 244833, Control_c, 0, 64, 52
1, 244833, Control_c, 0, 67, 78
1, 244848, Control_c, 0, 64, 51
1, 244848, Control_c, 0, 67, 95
1, 244863, Control_c, 0, 64, 47
1, 244863, Control_c, 0, 67, 115
1, 244877, Control_c, 0, 64, 40
1, 244877, Control_c, 0, 67, 127
1, 244892, Control_c, 0, 64, 30
1, 244907, Control_c, 0, 64, 17
1, 244922, Control_c, 0, 64, 9
1, 244937, Control_c, 0, 64, 0
1, 245048, Note_on_c, 0, 57, 44
1, 245054, Note_on_c, 0, 33, 45
1, 245330, Note_on_c, 0, 60, 58
1, 245332, Note_off_c, 0, 57, 59
1, 245338, Note_on_c, 0, 36, 45
1, 245362, Note_off_c, 0, 33, 43
1, 245425, Note_on_c, 0, 65, 56
1, 245428, Note_on_c, 0, 41, 51
1, 245432, Note_off_c, 0, 36, 58
1, 245434, Note_off_c, 0, 60, 59
1, 245824, Note_on_c, 0, 69, 59
1, 245844, Note_off_c, 0, 65, 52
1, 245848, Note_on_c, 0, 45, 39
1, 245914, Note_off_c, 0, 41, 38
1, 246137, Note_on_c, 0, 72, 56
1, 246148, Note_on_c, 0, 48, 40
1, 246152, Note_off_c, 0, 45, 54
1, 246165, Note_off_c, 0, 69, 59
1, 246227, Note_on_c, 0, 77, 63
1, 246233, Note_off_c, 0, 48, 52
1, 246238, Note_off_c, 0, 72, 60
1, 246257, Note_on_c, 0, 53, 34
1, 246649, Note_on_c, 0, 65, 45
1, 246652, Note_on_c, 0, 41, 31
1, 246656, Control_c, 0, 64, 28
1, 246671, Control_c, 0, 64, 49
1, 246686, Control_c, 0, 64, 58
1, 246701, Control_c, 0, 64, 63
1, 246716, Control_c, 0, 64, 66
1, 246731, Control_c, 0, 64, 69
1, 246733, Note_off_c, 0, 77, 36
1, 246746, Control_c, 0, 64, 73
1, 246760, Control_c, 0, 64, 79
1, 246761, Note_off_c, 0, 53, 40
1, 246764, Note_off_c, 0, 41, 60
1, 246775, Control_c, 0, 64, 86
1, 246775, Control_c, 0, 67, 119
1, 246790, Control_c, 0, 64, 95
1, 246790, Control_c, 0, 67, 107
1, 246805, Note_off_c, 0, 65, 55
1, 246805, Control_c, 0, 64, 110
1, 246805, Control_c, 0, 67, 95
1, 246820, Control_c, 0, 64, 127
1, 246820, Control_c, 0, 67, 83
1, 246834, Control_c, 0, 67, 72
1, 246849, Control_c, 0, 67, 64
1, 246864, Control_c, 0, 67, 58
1, 246879, Control_c, 0, 67, 53
1, 246894, Control_c, 0, 67, 50
1, 246908, Control_c, 0, 67, 49
1, 246923, Control_c, 0, 67, 47
1, 246938, Control_c, 0, 67, 46
1, 246953, Control_c, 0, 64, 83
1, 246953, Control_c, 0, 67, 46
1, 246968, Control_c, 0, 64, 53
1, 246968, Control_c, 0, 67, 45
1, 246982, Control_c, 0, 64, 0
1, 246982, Control_c, 0, 67, 40
1, 246997, Control_c, 0, 67, 16
1, 247009, Note_on_c, 0, 60, 103
1, 247011, Note_on_c, 0, 55, 97
1, 247013, Control_c, 0, 64, 67
1, 247013, Control_c, 0, 67, 0
1, 247016, Note_on_c, 0, 52, 81
1, 247028, Control_c, 0, 64, 127
1, 247063, Note_off_c, 0, 60, 59
1, 247068, Note_off_c, 0, 52, 67
1, 247068, Note_off_c, 0, 55, 65
1, 247199, Note_on_c, 0, 64, 84
1, 247206, Note_on_c, 0, 60, 67
1, 247214, Note_on_c, 0, 55, 72
1, 247235, Note_off_c, 0, 55, 68
1, 247258, Note_off_c, 0, 60, 55
1, 247322, Note_on_c, 0, 48, 86
1, 247324, Note_on_c, 0, 43, 78
1, 247330, Note_on_c, 0, 40, 72
1, 247351, Note_off_c, 0, 64, 48
1, 247410, Note_on_c, 0, 60, 82
1, 247417, Note_off_c, 0, 48, 56
1, 247422, Note_on_c, 0, 67, 90
1, 247426, Note_off_c, 0, 40, 59
1, 247436, Note_on_c, 0, 64, 55
1, 247455, Note_off_c, 0, 60, 68
1, 247468, Note_off_c, 0, 64, 65
1, 247486, Note_off_c, 0, 67, 66
1, 247489, Note_off_c, 0, 43, 32
1, 247522, Note_on_c, 0, 43, 63
1, 247529, Note_on_c, 0, 48, 88
1, 247540, Note_on_c, 0, 40, 73
1, 247595, Note_off_c, 0, 48, 59
1, 247610, Note_off_c, 0, 40, 60
1, 247631, Note_on_c, 0, 72, 102
1, 247635, Note_on_c, 0, 64, 103
1, 247714, Note_off_c, 0, 43, 0
1, 247724, Note_off_c, 0, 64, 57
1, 247726, Note_on_c, 0, 43, 60
1, 247731, Note_on_c, 0, 48, 92
1, 247739, Note_on_c, 0, 40, 75
1, 247813, Note_off_c, 0, 48, 48
1, 247820, Note_off_c, 0, 40, 58
1, 247848, Note_on_c, 0, 67, 93
1, 247850, Note_on_c, 0, 76, 94
1, 247851, Note_off_c, 0, 72, 0
1, 247888, Poly_aftertouch_c, 0, 72, 0
1, 247889, Note_off_c, 0, 67, 67
1, 247922, Note_off_c, 0, 76, 69
1, 247952, Note_on_c, 0, 48, 91
1, 247954, Note_off_c, 0, 43, 0
1, 247954, Note_on_c, 0, 43, 12
1, 247959, Note_on_c, 0, 40, 71
1, 248036, Note_off_c, 0, 40, 61
1, 248064, Note_on_c, 0, 79, 100
1, 248066, Note_off_c, 0, 48, 56
1, 248068, Note_on_c, 0, 72, 97
1, 248085, Note_on_c, 0, 76, 64
1, 248103, Note_off_c, 0, 76, 66
1, 248136, Note_off_c, 0, 43, 40
1, 248176, Note_on_c, 0, 48, 97
1, 248179, Note_on_c, 0, 40, 78
1, 248185, Note_on_c, 0, 43, 64
1, 248185, Note_off_c, 0, 72, 60
1, 248219, Note_off_c, 0, 43, 64
1, 248232, Note_off_c, 0, 40, 62
1, 248234, Note_off_c, 0, 48, 64
1, 248287, Note_on_c, 0, 84, 94
1, 248289, Note_off_c, 0, 79, 62
1, 248290, Note_on_c, 0, 76, 97
1, 248367, Note_off_c, 0, 84, 64
1, 248379, Note_off_c, 0, 76, 62
1, 248421, Control_c, 0, 64, 95
1, 248436, Control_c, 0, 64, 69
1, 248451, Control_c, 0, 64, 48
1, 248466, Control_c, 0, 64, 0
1, 248495, Control_c, 0, 67, 11
1, 248510, Control_c, 0, 67, 33
1, 248525, Control_c, 0, 67, 48
1, 248540, Control_c, 0, 67, 63
1, 248561, Control_c, 0, 67, 78
1, 248576, Control_c, 0, 67, 96
1, 248580, Note_on_c, 0, 72, 61
1, 248591, Control_c, 0, 67, 115
1, 248605, Note_on_c, 0, 67, 44
1, 248606, Note_on_c, 0, 64, 43
1, 248606, Control_c, 0, 67, 127
1, 248963, Control_c, 0, 64, 38
1, 248977, Control_c, 0, 64, 54
1, 248992, Control_c, 0, 64, 62
1, 249007, Control_c, 0, 64, 68
1, 249022, Control_c, 0, 64, 74
1, 249036, Control_c, 0, 64, 84
1, 249051, Control_c, 0, 64, 101
1, 249066, Control_c, 0, 64, 127
1, 249076, Note_off_c, 0, 67, 52
1, 249096, Note_off_c, 0, 64, 50
1, 249191, Note_off_c, 0, 72, 56
1, 249211, Note_on_c, 0, 74, 61
1, 249240, Note_off_c, 0, 74, 65
1, 249459, Control_c, 0, 64, 96
1, 249466, Note_on_c, 0, 76, 63
1, 249469, Note_on_c, 0, 71, 46
1, 249474, Control_c, 0, 64, 76
1, 249488, Note_on_c, 0, 68, 35
1, 249489, Note_on_c, 0, 65, 36
1, 249489, Control_c, 0, 64, 60
1, 249503, Note_off_c, 0, 76, 63
1, 249504, Control_c, 0, 64, 0
1, 249523, Note_on_c, 0, 74, 57
1, 249563, Note_off_c, 0, 74, 61
1, 249593, Control_c, 0, 64, 30
1, 249599, Note_on_c, 0, 76, 52
1, 249607, Control_c, 0, 64, 55
1, 249622, Control_c, 0, 64, 64
1, 249623, Note_off_c, 0, 76, 61
1, 249637, Control_c, 0, 64, 71
1, 249652, Control_c, 0, 64, 85
1, 249658, Note_on_c, 0, 74, 47
1, 249665, Control_c, 0, 64, 127
1, 249685, Note_off_c, 0, 74, 57
1, 249710, Control_c, 0, 67, 124
1, 249712, Note_on_c, 0, 76, 50
1, 249725, Control_c, 0, 67, 119
1, 249732, Note_off_c, 0, 76, 59
1, 249739, Control_c, 0, 67, 112
1, 249743, Note_off_c, 0, 71, 59
1, 249754, Control_c, 0, 67, 105
1, 249768, Note_on_c, 0, 74, 59
1, 249769, Control_c, 0, 67, 96
1, 249784, Control_c, 0, 67, 87
1, 249789, Note_off_c, 0, 74, 63
1, 249798, Control_c, 0, 67, 77
1, 249808, Note_on_c, 0, 76, 61
1, 249808, Note_off_c, 0, 68, 40
1, 249813, Note_off_c, 0, 65, 50
1, 249813, Control_c, 0, 67, 67
1, 249828, Control_c, 0, 67, 55
1, 249843, Control_c, 0, 67, 45
1, 249845, Note_off_c, 0, 76, 61
1, 249858, Control_c, 0, 67, 36
1, 249869, Note_on_c, 0, 74, 56
1, 249873, Control_c, 0, 67, 28
1, 249887, Control_c, 0, 67, 19
1, 249902, Note_off_c, 0, 74, 65
1, 249902, Control_c, 0, 67, 11
1, 249917, Control_c, 0, 67, 0
1, 249921, Note_on_c, 0, 76, 52
1, 249959, Note_off_c, 0, 76, 62
1, 250003, Note_on_c, 0, 74, 15
1, 250026, Note_on_c, 0, 76, 69
1, 250042, Note_off_c, 0, 74, 44
1, 250083, Note_off_c, 0, 76, 59
1, 250090, Note_on_c, 0, 74, 55
1, 250124, Note_off_c, 0, 74, 65
1, 250141, Note_on_c, 0, 72, 67
1, 250173, Note_off_c, 0, 72, 64
1, 250186, Note_on_c, 0, 76, 83
1, 250209, Note_off_c, 0, 76, 68
1, 250222, Control_c, 0, 64, 74
1, 250230, Note_on_c, 0, 74, 86
1, 250236, Control_c, 0, 64, 40
1, 250251, Control_c, 0, 64, 0
1, 250260, Note_off_c, 0, 74, 68
1, 250276, Note_on_c, 0, 60, 101
1, 250277, Note_on_c, 0, 55, 96
1, 250285, Note_on_c, 0, 52, 79
1, 250296, Control_c, 0, 64, 55
1, 250311, Control_c, 0, 64, 78
1, 250326, Control_c, 0, 64, 127
1, 250328, Note_off_c, 0, 60, 65
1, 250342, Note_off_c, 0, 55, 65
1, 250344, Note_off_c, 0, 52, 66
1, 250494, Note_on_c, 0, 64, 86
1, 250497, Note_on_c, 0, 55, 80
1, 250498, Note_on_c, 0, 60, 75
1, 250547, Note_off_c, 0, 55, 62
1, 250561, Note_off_c, 0, 60, 54
1, 250606, Note_on_c, 0, 48, 90
1, 250610, Note_on_c, 0, 43, 81
1, 250612, Note_on_c, 0, 40, 76
1, 250639, Note_off_c, 0, 64, 52
1, 250697, Note_on_c, 0, 60, 81
1, 250698, Note_off_c, 0, 40, 58
1, 250702, Note_off_c, 0, 48, 58
1, 250709, Note_on_c, 0, 67, 92
1, 250743, Note_off_c, 0, 60, 68
1, 250762, Note_off_c, 0, 43, 47
1, 250772, Note_off_c, 0, 67, 64
1, 250808, Poly_aftertouch_c, 0, 64, 0
1, 250814, Note_on_c, 0, 43, 66
1, 250819, Note_on_c, 0, 48, 88
1, 250825, Note_on_c, 0, 40, 74
1, 250829, Poly_aftertouch_c, 0, 64, 0
1, 250907, Note_off_c, 0, 40, 59
1, 250915, Note_off_c, 0, 48, 55
1, 250922, Note_on_c, 0, 72, 99
1, 250925, Note_on_c, 0, 64, 93
1, 251000, Note_off_c, 0, 43, 0
1, 251002, Note_off_c, 0, 64, 56
1, 251014, Note_on_c, 0, 43, 55
1, 251017, Note_on_c, 0, 48, 97
1, 251026, Note_on_c, 0, 40, 75
1, 251086, Note_off_c, 0, 72, 55
1, 251107, Note_off_c, 0, 40, 59
1, 251114, Note_on_c, 0, 67, 93
1, 251117, Note_off_c, 0, 48, 54
1, 251118, Note_on_c, 0, 76, 100
1, 251130, Note_on_c, 0, 72, 53
1, 251154, Note_off_c, 0, 67, 67
1, 251160, Note_off_c, 0, 72, 65
1, 251167, Note_off_c, 0, 43, 27
1, 251198, Note_off_c, 0, 76, 67
1, 251224, Note_on_c, 0, 48, 91
1, 251227, Note_on_c, 0, 43, 66
1, 251229, Note_on_c, 0, 40, 75
1, 251328, Note_on_c, 0, 79, 94
1, 251330, Note_on_c, 0, 72, 99
1, 251333, Note_off_c, 0, 40, 49
1, 251339, Note_off_c, 0, 48, 54
1, 251443, Note_on_c, 0, 48, 90
1, 251443, Note_on_c, 0, 40, 80
1, 251467, Note_off_c, 0, 72, 55
1, 251486, Note_off_c, 0, 43, 56
1, 251490, Note_off_c, 0, 48, 64
1, 251494, Note_off_c, 0, 40, 64
1, 251556, Note_on_c, 0, 84, 97
1, 251563, Note_on_c, 0, 76, 92
1, 251578, Note_off_c, 0, 79, 57
1, 251629, Control_c, 0, 64, 92
1, 251644, Control_c, 0, 64, 68
1, 251645, Note_off_c, 0, 84, 60
1, 251659, Control_c, 0, 64, 43
1, 251661, Note_off_c, 0, 76, 61
1, 251674, Control_c, 0, 64, 0
1, 251718, Control_c, 0, 67, 25
1, 251733, Control_c, 0, 67, 50
1, 251748, Control_c, 0, 67, 75
1, 251763, Control_c, 0, 67, 98
1, 251777, Control_c, 0, 67, 120
1, 251792, Control_c, 0, 67, 127
1, 251795, Note_on_c, 0, 72, 68
1, 251828, Note_on_c, 0, 67, 45
1, 251831, Note_on_c, 0, 64, 45
1, 252150, Control_c, 0, 64, 19
1, 252165, Control_c, 0, 64, 45
1, 252180, Control_c, 0, 64, 54
1, 252195, Control_c, 0, 64, 59
1, 252209, Control_c, 0, 64, 62
1, 252224, Control_c, 0, 64, 64
1, 252239, Control_c, 0, 64, 65
1, 252253, Control_c, 0, 64, 68
1, 252268, Control_c, 0, 64, 71
1, 252283, Control_c, 0, 64, 74
1, 252305, Control_c, 0, 64, 79
1, 252320, Control_c, 0, 64, 86
1, 252335, Control_c, 0, 64, 94
1, 252350, Control_c, 0, 64, 105
1, 252356, Note_off_c, 0, 64, 43
1, 252361, Note_off_c, 0, 67, 52
1, 252365, Control_c, 0, 64, 127
1, 252445, Note_on_c, 0, 74, 73
1, 252472, Note_off_c, 0, 72, 40
1, 252476, Note_off_c, 0, 74, 63
1, 252632, Control_c, 0, 67, 125
1, 252647, Control_c, 0, 67, 123
1, 252662, Control_c, 0, 67, 121
1, 252676, Control_c, 0, 67, 119
1, 252689, Note_on_c, 0, 71, 46
1, 252691, Control_c, 0, 67, 117
1, 252695, Note_on_c, 0, 76, 65
1, 252698, Note_on_c, 0, 65, 39
1, 252702, Note_on_c, 0, 68, 42
1, 252706, Control_c, 0, 67, 115
1, 252721, Control_c, 0, 64, 102
1, 252721, Control_c, 0, 67, 113
1, 252733, Note_off_c, 0, 76, 62
1, 252736, Control_c, 0, 64, 78
1, 252736, Control_c, 0, 67, 111
1, 252750, Control_c, 0, 64, 62
1, 252750, Control_c, 0, 67, 109
1, 252759, Note_on_c, 0, 74, 57
1, 252765, Control_c, 0, 64, 11
1, 252765, Control_c, 0, 67, 107
1, 252780, Control_c, 0, 64, 0
1, 252780, Control_c, 0, 67, 106
1, 252795, Control_c, 0, 67, 105
1, 252800, Note_off_c, 0, 74, 61
1, 252810, Control_c, 0, 67, 103
1, 252824, Control_c, 0, 67, 102
1, 252827, Note_on_c, 0, 76, 64
1, 252839, Control_c, 0, 64, 25
1, 252839, Control_c, 0, 67, 100
1, 252854, Control_c, 0, 64, 49
1, 252854, Control_c, 0, 67, 98
1, 252858, Note_off_c, 0, 76, 66
1, 252869, Control_c, 0, 64, 60
1, 252869, Control_c, 0, 67, 93
1, 252883, Control_c, 0, 64, 65
1, 252883, Control_c, 0, 67, 87
1, 252886, Note_on_c, 0, 74, 58
1, 252898, Control_c, 0, 64, 70
1, 252898, Control_c, 0, 67, 81
1, 252913, Control_c, 0, 64, 80
1, 252913, Control_c, 0, 67, 75
1, 252924, Note_off_c, 0, 74, 63
1, 252928, Control_c, 0, 64, 92
1, 252928, Control_c, 0, 67, 69
1, 252930, Note_on_c, 0, 76, 68
1, 252943, Control_c, 0, 64, 123
1, 252943, Control_c, 0, 67, 64
1, 252958, Control_c, 0, 64, 127
1, 252958, Control_c, 0, 67, 58
1, 252966, Note_off_c, 0, 76, 62
1, 252973, Control_c, 0, 67, 52
1, 252988, Control_c, 0, 67, 46
1, 252988, Note_off_c, 0, 71, 58
1, 253002, Note_on_c, 0, 74, 63
1, 253002, Control_c, 0, 67, 40
1, 253017, Control_c, 0, 67, 34
1, 253018, Note_off_c, 0, 68, 59
1, 253032, Control_c, 0, 67, 26
1, 253034, Note_off_c, 0, 65, 61
1, 253035, Note_off_c, 0, 74, 65
1, 253054, Control_c, 0, 67, 19
1, 253065, Note_on_c, 0, 76, 61
1, 253069, Control_c, 0, 67, 9
1, 253083, Control_c, 0, 67, 0
1, 253092, Note_off_c, 0, 76, 61
1, 253117, Note_on_c, 0, 74, 70
1, 253153, Note_off_c, 0, 74, 61
1, 253168, Note_on_c, 0, 76, 73
1, 253197, Note_off_c, 0, 76, 67
1, 253235, Note_on_c, 0, 74, 76
1, 253268, Note_off_c, 0, 74, 59
1, 253292, Note_on_c, 0, 72, 78
1, 253349, Note_off_c, 0, 72, 61
1, 253351, Note_on_c, 0, 74, 90
1, 253370, Note_off_c, 0, 74, 72
1, 253395, Control_c, 0, 64, 80
1, 253410, Control_c, 0, 64, 51
1, 253425, Control_c, 0, 64, 0
1, 253434, Note_on_c, 0, 64, 103
1, 253435, Note_on_c, 0, 58, 97
1, 253441, Note_on_c, 0, 55, 80
1, 253454, Control_c, 0, 64, 61
1, 253469, Control_c, 0, 64, 119
1, 253478, Note_off_c, 0, 64, 66
1, 253484, Control_c, 0, 64, 127
1, 253496, Note_off_c, 0, 58, 67
1, 253498, Note_off_c, 0, 55, 65
1, 253640, Note_on_c, 0, 67, 92
1, 253640, Note_on_c, 0, 58, 91
1, 253646, Note_on_c, 0, 64, 74
1, 253659, Note_off_c, 0, 58, 67
1, 253665, Note_off_c, 0, 64, 70
1, 253695, Note_off_c, 0, 67, 64
1, 253763, Note_on_c, 0, 52, 91
1, 253767, Note_on_c, 0, 46, 79
1, 253773, Note_on_c, 0, 43, 73
1, 253829, Note_off_c, 0, 52, 62
1, 253860, Note_off_c, 0, 43, 58
1, 253869, Note_off_c, 0, 46, 46
1, 253890, Note_on_c, 0, 70, 95
1, 253891, Note_on_c, 0, 67, 91
1, 253892, Note_on_c, 0, 64, 92
1, 253921, Note_off_c, 0, 67, 66
1, 253924, Note_off_c, 0, 64, 61
1, 253937, Note_off_c, 0, 70, 70
1, 253993, Note_on_c, 0, 46, 70
1, 253995, Note_on_c, 0, 52, 90
1, 254001, Note_on_c, 0, 43, 71
1, 254059, Note_off_c, 0, 52, 58
1, 254066, Note_off_c, 0, 46, 54
1, 254076, Note_off_c, 0, 43, 55
1, 254103, Note_on_c, 0, 70, 89
1, 254106, Note_on_c, 0, 76, 97
1, 254108, Note_on_c, 0, 67, 98
1, 254135, Note_off_c, 0, 70, 68
1, 254142, Note_off_c, 0, 67, 64
1, 254159, Note_off_c, 0, 76, 66
1, 254198, Note_on_c, 0, 46, 61
1, 254200, Note_on_c, 0, 52, 89
1, 254206, Note_on_c, 0, 43, 77
1, 254253, Note_off_c, 0, 52, 65
1, 254277, Note_off_c, 0, 43, 56
1, 254306, Note_on_c, 0, 70, 99
1, 254309, Note_off_c, 0, 46, 0
1, 254311, Note_on_c, 0, 79, 89
1, 254321, Note_on_c, 0, 76, 70
1, 254333, Note_off_c, 0, 70, 71
1, 254346, Poly_aftertouch_c, 0, 46, 127
1, 254352, Note_off_c, 0, 76, 66
1, 254355, Note_on_c, 0, 46, 3
1, 254358, Note_off_c, 0, 79, 67
1, 254404, Note_off_c, 0, 46, 0
1, 254404, Note_on_c, 0, 46, 33
1, 254404, Note_on_c, 0, 52, 92
1, 254406, Note_on_c, 0, 43, 76
1, 254462, Note_on_c, 0, 80, 43
1, 254475, Note_off_c, 0, 52, 59
1, 254490, Note_off_c, 0, 80, 56
1, 254508, Note_off_c, 0, 43, 56
1, 254519, Note_on_c, 0, 79, 96
1, 254520, Note_on_c, 0, 76, 101
1, 254520, Note_on_c, 0, 82, 98
1, 254526, Note_off_c, 0, 46, 0
1, 254570, Poly_aftertouch_c, 0, 46, 127
1, 254624, Note_off_c, 0, 79, 61
1, 254627, Note_on_c, 0, 43, 84
1, 254627, Note_on_c, 0, 46, 8
1, 254630, Note_on_c, 0, 52, 87
1, 254642, Note_off_c, 0, 82, 62
1, 254665, Note_off_c, 0, 46, 62
1, 254669, Note_off_c, 0, 43, 66
1, 254672, Note_off_c, 0, 52, 65
1, 254705, Note_off_c, 0, 76, 61
1, 254731, Note_on_c, 0, 88, 94
1, 254736, Note_on_c, 0, 79, 93
1, 254747, Note_on_c, 0, 82, 78
1, 254769, Note_off_c, 0, 82, 70
1, 254794, Note_on_c, 0, 84, 17
1, 254794, Note_off_c, 0, 79, 61
1, 254806, Note_off_c, 0, 88, 64
1, 254833, Note_off_c, 0, 84, 45
1, 254847, Control_c, 0, 64, 90
1, 254862, Control_c, 0, 64, 64
1, 254877, Control_c, 0, 64, 26
1, 254892, Control_c, 0, 64, 0
1, 254921, Control_c, 0, 67, 8
1, 254936, Control_c, 0, 67, 20
1, 254951, Control_c, 0, 67, 30
1, 254961, Note_on_c, 0, 76, 69
1, 254966, Control_c, 0, 67, 40
1, 254979, Note_on_c, 0, 67, 41
1, 254981, Note_on_c, 0, 73, 54
1, 254981, Control_c, 0, 67, 50
1, 254985, Note_on_c, 0, 70, 46
1, 254997, Control_c, 0, 67, 61
1, 255012, Control_c, 0, 67, 74
1, 255026, Control_c, 0, 67, 88
1, 255041, Control_c, 0, 67, 104
1, 255056, Control_c, 0, 67, 120
1, 255071, Control_c, 0, 67, 127
1, 255345, Control_c, 0, 64, 31
1, 255359, Control_c, 0, 64, 49
1, 255374, Control_c, 0, 64, 58
1, 255389, Control_c, 0, 64, 63
1, 255404, Control_c, 0, 64, 65
1, 255418, Control_c, 0, 64, 68
1, 255433, Control_c, 0, 64, 72
1, 255448, Control_c, 0, 64, 78
1, 255463, Control_c, 0, 64, 86
1, 255477, Control_c, 0, 64, 97
1, 255492, Control_c, 0, 64, 123
1, 255502, Note_off_c, 0, 73, 36
1, 255507, Control_c, 0, 64, 127
1, 255582, Note_off_c, 0, 76, 55
1, 255605, Note_on_c, 0, 77, 64
1, 255608, Note_off_c, 0, 70, 26
1, 255645, Note_off_c, 0, 77, 64
1, 255653, Note_off_c, 0, 67, 42
1, 255835, Control_c, 0, 64, 119
1, 255840, Note_on_c, 0, 79, 64
1, 255849, Control_c, 0, 64, 89
1, 255853, Note_on_c, 0, 72, 50
1, 255860, Note_on_c, 0, 68, 50
1, 255864, Control_c, 0, 64, 71
1, 255876, Note_off_c, 0, 79, 62
1, 255879, Control_c, 0, 64, 57
1, 255894, Control_c, 0, 64, 0
1, 255915, Note_on_c, 0, 77, 63
1, 255954, Control_c, 0, 64, 28
1, 255955, Note_off_c, 0, 77, 61
1, 255968, Control_c, 0, 64, 50
1, 255978, Note_on_c, 0, 79, 58
1, 255983, Control_c, 0, 64, 61
1, 255998, Control_c, 0, 64, 65
1, 256010, Note_off_c, 0, 79, 65
1, 256013, Control_c, 0, 64, 70
1, 256028, Control_c, 0, 64, 75
1, 256048, Note_on_c, 0, 77, 66
1, 256049, Control_c, 0, 64, 84
1, 256064, Control_c, 0, 64, 96
1, 256079, Control_c, 0, 64, 127
1, 256082, Note_off_c, 0, 77, 64
1, 256096, Note_on_c, 0, 79, 59
1, 256127, Note_off_c, 0, 72, 52
1, 256134, Note_off_c, 0, 79, 62
1, 256159, Note_on_c, 0, 77, 68
1, 256195, Note_off_c, 0, 77, 63
1, 256227, Note_off_c, 0, 68, 58
1, 256230, Note_on_c, 0, 79, 52
1, 256243, Control_c, 0, 67, 122
1, 256257, Control_c, 0, 67, 109
1, 256272, Control_c, 0, 67, 85
1, 256274, Note_off_c, 0, 79, 58
1, 256287, Control_c, 0, 67, 51
1, 256292, Note_on_c, 0, 77, 62
1, 256301, Control_c, 0, 67, 0
1, 256338, Note_off_c, 0, 77, 60
1, 256355, Note_on_c, 0, 79, 70
1, 256388, Note_off_c, 0, 79, 64
1, 256414, Note_on_c, 0, 77, 71
1, 256452, Note_off_c, 0, 77, 61
1, 256477, Note_on_c, 0, 76, 70
1, 256526, Note_off_c, 0, 76, 59
1, 256539, Note_on_c, 0, 77, 89
1, 256553, Control_c, 0, 64, 95
1, 256567, Note_off_c, 0, 77, 65
1, 256568, Control_c, 0, 64, 66
1, 256583, Control_c, 0, 64, 0
1, 256625, Note_on_c, 0, 64, 99
1, 256627, Note_on_c, 0, 67, 103
1, 256628, Control_c, 0, 64, 33
1, 256643, Control_c, 0, 64, 71
1, 256658, Control_c, 0, 64, 127
1, 256673, Note_off_c, 0, 67, 66
1, 256686, Note_off_c, 0, 64, 69
1, 256851, Note_on_c, 0, 76, 99
1, 256854, Note_on_c, 0, 73, 97
1, 256894, Note_off_c, 0, 76, 68
1, 256902, Note_off_c, 0, 73, 63
1, 256985, Note_on_c, 0, 46, 80
1, 256991, Note_on_c, 0, 52, 88
1, 256991, Note_on_c, 0, 55, 90
1, 256995, Note_on_c, 0, 49, 78
1, 257030, Note_off_c, 0, 49, 64
1, 257033, Note_off_c, 0, 55, 65
1, 257034, Note_off_c, 0, 52, 67
1, 257039, Note_off_c, 0, 46, 64
1, 257107, Note_on_c, 0, 79, 95
1, 257111, Note_on_c, 0, 76, 103
1, 257148, Note_off_c, 0, 76, 66
1, 257159, Note_off_c, 0, 79, 68
1, 257225, Note_on_c, 0, 67, 90
1, 257227, Note_on_c, 0, 58, 79
1, 257228, Note_on_c, 0, 61, 74
1, 257233, Note_on_c, 0, 64, 75
1, 257310, Note_off_c, 0, 67, 58
1, 257321, Note_off_c, 0, 58, 59
1, 257341, Note_on_c, 0, 82, 106
1, 257341, Note_off_c, 0, 61, 53
1, 257341, Note_off_c, 0, 64, 57
1, 257349, Note_on_c, 0, 79, 96
1, 257408, Note_off_c, 0, 79, 61
1, 257427, Note_off_c, 0, 82, 67
1, 257442, Note_on_c, 0, 67, 89
1, 257454, Note_on_c, 0, 58, 74
1, 257454, Note_on_c, 0, 64, 78
1, 257457, Note_on_c, 0, 61, 73
1, 257508, Note_off_c, 0, 67, 60
1, 257530, Note_off_c, 0, 61, 54
1, 257530, Note_off_c, 0, 64, 53
1, 257533, Note_off_c, 0, 58, 59
1, 257560, Note_on_c, 0, 85, 94
1, 257564, Note_on_c, 0, 82, 94
1, 257589, Note_on_c, 0, 86, 47
1, 257615, Note_off_c, 0, 86, 57
1, 257659, Note_off_c, 0, 85, 61
1, 257663, Note_on_c, 0, 64, 79
1, 257664, Note_on_c, 0, 67, 96
1, 257665, Note_off_c, 0, 82, 60
1, 257668, Note_on_c, 0, 61, 74
1, 257673, Note_on_c, 0, 58, 75
1, 257745, Note_off_c, 0, 67, 53
1, 257755, Note_off_c, 0, 58, 58
1, 257764, Note_on_c, 0, 85, 88
1, 257765, Note_on_c, 0, 88, 91
1, 257766, Note_on_c, 0, 82, 103
1, 257777, Note_off_c, 0, 61, 54
1, 257780, Note_off_c, 0, 64, 56
1, 257859, Note_off_c, 0, 82, 61
1, 257870, Note_on_c, 0, 58, 80
1, 257871, Note_on_c, 0, 67, 88
1, 257873, Note_on_c, 0, 64, 76
1, 257876, Note_off_c, 0, 85, 64
1, 257886, Note_on_c, 0, 61, 75
1, 257912, Note_off_c, 0, 61, 65
1, 257916, Note_off_c, 0, 64, 66
1, 257925, Note_off_c, 0, 67, 63
1, 257933, Note_off_c, 0, 58, 63
1, 257945, Note_off_c, 0, 88, 54
1, 257987, Note_on_c, 0, 91, 92
1, 257989, Note_on_c, 0, 85, 80
1, 257991, Note_on_c, 0, 82, 104
1, 258004, Note_on_c, 0, 88, 53
1, 258030, Note_off_c, 0, 88, 67
1, 258034, Note_off_c, 0, 85, 66
1, 258050, Note_off_c, 0, 91, 66
1, 258052, Note_off_c, 0, 82, 64
1, 258168, Control_c, 0, 64, 117
1, 258183, Note_on_c, 0, 79, 97
1, 258183, Control_c, 0, 64, 76
1, 258192, Note_on_c, 0, 70, 88
1, 258192, Note_on_c, 0, 76, 93
1, 258195, Note_on_c, 0, 73, 82
1, 258199, Control_c, 0, 64, 56
1, 258214, Control_c, 0, 64, 0
1, 258458, Control_c, 0, 64, 24
1, 258473, Control_c, 0, 64, 52
1, 258488, Control_c, 0, 64, 63
1, 258502, Control_c, 0, 64, 70
1, 258517, Control_c, 0, 64, 82
1, 258532, Control_c, 0, 64, 117
1, 258547, Control_c, 0, 64, 127
1, 258585, Note_off_c, 0, 76, 55
1, 258595, Note_off_c, 0, 79, 57
1, 258666, Note_off_c, 0, 73, 53
1, 258680, Note_off_c, 0, 70, 50
1, 258833, Note_on_c, 0, 80, 96
1, 258876, Note_on_c, 0, 81, 16
1, 258918, Note_off_c, 0, 81, 52
1, 258923, Note_off_c, 0, 80, 60
1, 259074, Control_c, 0, 64, 84
1, 259078, Note_on_c, 0, 82, 92
1, 259080, Note_on_c, 0, 77, 96
1, 259081, Note_on_c, 0, 74, 86
1, 259081, Note_on_c, 0, 71, 83
1, 259089, Control_c, 0, 64, 63
1, 259104, Control_c, 0, 64, 0
1, 259176, Note_on_c, 0, 80, 86
1, 259182, Note_off_c, 0, 82, 65
1, 259222, Control_c, 0, 64, 46
1, 259237, Control_c, 0, 64, 60
1, 259242, Note_off_c, 0, 80, 62
1, 259252, Control_c, 0, 64, 66
1, 259263, Note_on_c, 0, 82, 81
1, 259267, Control_c, 0, 64, 72
1, 259281, Control_c, 0, 64, 80
1, 259296, Control_c, 0, 64, 92
1, 259311, Control_c, 0, 64, 116
1, 259313, Note_off_c, 0, 77, 61
1, 259316, Note_off_c, 0, 82, 64
1, 259322, Note_on_c, 0, 80, 83
1, 259325, Control_c, 0, 64, 127
1, 259370, Note_off_c, 0, 80, 64
1, 259395, Note_on_c, 0, 82, 69
1, 259411, Note_off_c, 0, 74, 55
1, 259425, Note_off_c, 0, 82, 60
1, 259427, Note_off_c, 0, 71, 58
1, 259450, Note_on_c, 0, 80, 77
1, 259493, Note_off_c, 0, 80, 57
1, 259514, Note_on_c, 0, 82, 75
1, 259554, Note_off_c, 0, 82, 64
1, 259593, Note_on_c, 0, 80, 72
1, 259662, Note_off_c, 0, 80, 62
1, 259668, Note_on_c, 0, 79, 74
1, 259725, Note_off_c, 0, 79, 64
1, 259737, Note_on_c, 0, 82, 71
1, 259820, Note_on_c, 0, 80, 73
1, 259826, Note_off_c, 0, 82, 64
1, 259869, Note_off_c, 0, 80, 63
1, 259883, Control_c, 0, 64, 119
1, 259897, Control_c, 0, 64, 90
1, 259912, Control_c, 0, 64, 74
1, 259927, Note_on_c, 0, 79, 59
1, 259927, Control_c, 0, 64, 64
1, 259939, Note_on_c, 0, 76, 52
1, 259942, Control_c, 0, 64, 52
1, 259945, Note_on_c, 0, 60, 51
1, 259957, Control_c, 0, 64, 39
1, 259972, Control_c, 0, 64, 34
1, 259987, Control_c, 0, 64, 34
1, 260002, Control_c, 0, 64, 33
1, 260016, Control_c, 0, 64, 27
1, 260016, Control_c, 0, 67, 19
1, 260031, Control_c, 0, 64, 9
1, 260031, Control_c, 0, 67, 35
1, 260033, Note_off_c, 0, 60, 63
1, 260046, Control_c, 0, 64, 0
1, 260046, Control_c, 0, 67, 50
1, 260055, Note_on_c, 0, 72, 65
1, 260061, Control_c, 0, 67, 63
1, 260076, Control_c, 0, 67, 80
1, 260090, Control_c, 0, 67, 93
1, 260093, Note_off_c, 0, 72, 64
1, 260105, Control_c, 0, 67, 107
1, 260120, Control_c, 0, 67, 119
1, 260135, Control_c, 0, 67, 127
1, 260172, Note_on_c, 0, 72, 58
1, 260198, Note_off_c, 0, 72, 66
1, 260273, Note_on_c, 0, 72, 66
1, 260302, Note_off_c, 0, 76, 61
1, 260303, Note_off_c, 0, 72, 65
1, 260312, Note_off_c, 0, 79, 61
1, 260391, Note_on_c, 0, 72, 58
1, 260422, Note_off_c, 0, 72, 66
1, 260500, Note_on_c, 0, 72, 62
1, 260528, Note_off_c, 0, 72, 67
1, 260608, Note_on_c, 0, 72, 61
1, 260637, Note_off_c, 0, 72, 66
1, 260718, Note_on_c, 0, 72, 58
1, 260750, Note_off_c, 0, 72, 65
1, 260829, Note_on_c, 0, 72, 57
1, 260857, Note_off_c, 0, 72, 66
1, 260930, Note_on_c, 0, 72, 69
1, 260956, Control_c, 0, 67, 124
1, 260960, Note_off_c, 0, 72, 65
1, 260970, Control_c, 0, 67, 119
1, 260985, Control_c, 0, 67, 116
1, 261000, Control_c, 0, 67, 115
1, 261015, Control_c, 0, 67, 115
1, 261049, Note_on_c, 0, 72, 66
1, 261075, Control_c, 0, 67, 115
1, 261078, Note_off_c, 0, 72, 67
1, 261089, Control_c, 0, 67, 116
1, 261104, Control_c, 0, 67, 117
1, 261119, Control_c, 0, 67, 117
1, 261134, Control_c, 0, 67, 119
1, 261149, Control_c, 0, 67, 120
1, 261155, Note_on_c, 0, 72, 58
1, 261163, Control_c, 0, 67, 120
1, 261178, Control_c, 0, 67, 122
1, 261193, Control_c, 0, 67, 123
1, 261195, Note_off_c, 0, 72, 64
1, 261208, Control_c, 0, 67, 124
1, 261223, Control_c, 0, 67, 124
1, 261237, Control_c, 0, 67, 125
1, 261252, Control_c, 0, 67, 126
1, 261257, Note_on_c, 0, 80, 70
1, 261267, Note_on_c, 0, 77, 65
1, 261267, Control_c, 0, 67, 127
1, 261394, Note_on_c, 0, 72, 61
1, 261424, Note_off_c, 0, 72, 67
1, 261503, Note_on_c, 0, 72, 60
1, 261540, Note_off_c, 0, 72, 59
1, 261542, Note_off_c, 0, 77, 56
1, 261542, Control_c, 0, 67, 127
1, 261557, Control_c, 0, 67, 126
1, 261571, Note_off_c, 0, 80, 58
1, 261572, Control_c, 0, 67, 125
1, 261601, Control_c, 0, 67, 125
1, 261605, Note_on_c, 0, 68, 60
1, 261617, Note_on_c, 0, 65, 51
1, 261631, Control_c, 0, 67, 124
1, 261646, Control_c, 0, 67, 124
1, 261660, Control_c, 0, 67, 123
1, 261675, Control_c, 0, 67, 122
1, 261690, Control_c, 0, 67, 121
1, 261705, Control_c, 0, 67, 120
1, 261719, Control_c, 0, 67, 120
1, 261722, Note_off_c, 0, 68, 62
1, 261726, Note_on_c, 0, 72, 64
1, 261726, Note_off_c, 0, 65, 62
1, 261734, Control_c, 0, 67, 119
1, 261749, Control_c, 0, 67, 119
1, 261757, Note_off_c, 0, 72, 66
1, 261764, Control_c, 0, 67, 118
1, 261779, Control_c, 0, 67, 117
1, 261808, Control_c, 0, 67, 117
1, 261835, Note_on_c, 0, 72, 66
1, 261838, Control_c, 0, 67, 116
1, 261853, Control_c, 0, 67, 115
1, 261865, Note_off_c, 0, 72, 65
1, 261883, Control_c, 0, 67, 115
1, 261942, Control_c, 0, 67, 114
1, 261945, Note_on_c, 0, 72, 57
1, 261972, Control_c, 0, 67, 114
1, 261978, Note_off_c, 0, 72, 65
1, 262001, Control_c, 0, 67, 113
1, 262038, Control_c, 0, 67, 112
1, 262065, Note_on_c, 0, 72, 65
1, 262082, Control_c, 0, 67, 112
1, 262098, Note_off_c, 0, 72, 62
1, 262157, Control_c, 0, 67, 111
1, 262192, Note_on_c, 0, 72, 51
1, 262213, Note_off_c, 0, 72, 63
1, 262216, Control_c, 0, 67, 110
1, 262276, Control_c, 0, 67, 110
1, 262289, Note_on_c, 0, 72, 62
1, 262306, Control_c, 0, 67, 109
1, 262321, Control_c, 0, 67, 108
1, 262321, Note_off_c, 0, 72, 65
1, 262335, Control_c, 0, 67, 96
1, 262350, Control_c, 0, 67, 72
1, 262365, Control_c, 0, 67, 45
1, 262380, Control_c, 0, 67, 16
1, 262395, Note_on_c, 0, 72, 66
1, 262395, Control_c, 0, 64, 16
1, 262395, Control_c, 0, 67, 0
1, 262409, Control_c, 0, 64, 47
1, 262424, Control_c, 0, 64, 60
1, 262425, Note_off_c, 0, 72, 68
1, 262439, Control_c, 0, 64, 66
1, 262454, Control_c, 0, 64, 73
1, 262469, Control_c, 0, 64, 86
1, 262483, Control_c, 0, 64, 127
1, 262508, Note_on_c, 0, 72, 86
1, 262554, Note_off_c, 0, 72, 63
1, 262609, Note_on_c, 0, 85, 97
1, 262616, Note_on_c, 0, 80, 79
1, 262622, Note_on_c, 0, 77, 86
1, 262661, Control_c, 0, 64, 110
1, 262676, Control_c, 0, 64, 90
1, 262690, Control_c, 0, 64, 73
1, 262705, Control_c, 0, 64, 63
1, 262717, Note_on_c, 0, 72, 72
1, 262720, Control_c, 0, 64, 51
1, 262735, Control_c, 0, 64, 38
1, 262750, Control_c, 0, 64, 34
1, 262759, Note_off_c, 0, 72, 60
1, 262787, Control_c, 0, 64, 33
1, 262802, Control_c, 0, 64, 30
1, 262816, Control_c, 0, 64, 26
1, 262831, Control_c, 0, 64, 20
1, 262838, Note_on_c, 0, 72, 59
1, 262846, Control_c, 0, 64, 15
1, 262861, Control_c, 0, 64, 9
1, 262875, Note_off_c, 0, 72, 63
1, 262876, Control_c, 0, 64, 0
1, 262961, Note_on_c, 0, 68, 57
1, 262964, Note_on_c, 0, 65, 49
1, 263054, Control_c, 0, 67, 12
1, 263069, Control_c, 0, 67, 29
1, 263075, Note_off_c, 0, 68, 56
1, 263084, Note_on_c, 0, 72, 63
1, 263084, Control_c, 0, 67, 46
1, 263086, Note_off_c, 0, 65, 60
1, 263099, Control_c, 0, 67, 61
1, 263114, Control_c, 0, 67, 75
1, 263115, Note_off_c, 0, 72, 64
1, 263129, Control_c, 0, 67, 90
1, 263144, Control_c, 0, 67, 105
1, 263158, Control_c, 0, 67, 121
1, 263173, Control_c, 0, 67, 127
1, 263203, Note_on_c, 0, 72, 51
1, 263239, Note_off_c, 0, 72, 62
1, 263328, Note_on_c, 0, 68, 57
1, 263331, Note_on_c, 0, 65, 47
1, 263442, Note_off_c, 0, 68, 59
1, 263449, Note_on_c, 0, 72, 49
1, 263449, Note_off_c, 0, 65, 50
1, 263471, Note_off_c, 0, 72, 60
1, 263557, Note_on_c, 0, 72, 60
1, 263600, Note_off_c, 0, 72, 62
1, 263683, Note_on_c, 0, 68, 57
1, 263686, Note_on_c, 0, 65, 49
1, 263788, Note_off_c, 0, 68, 59
1, 263798, Note_on_c, 0, 72, 63
1, 263817, Note_off_c, 0, 65, 42
1, 263829, Note_off_c, 0, 72, 66
1, 263875, Note_off_c, 0, 80, 53
1, 263884, Note_off_c, 0, 85, 54
1, 263899, Note_off_c, 0, 77, 45
1, 263915, Note_on_c, 0, 72, 60
1, 263966, Control_c, 0, 64, 23
1, 263968, Note_off_c, 0, 72, 63
1, 263981, Control_c, 0, 64, 47
1, 263996, Control_c, 0, 64, 64
1, 264011, Note_on_c, 0, 67, 62
1, 264011, Control_c, 0, 64, 76
1, 264015, Note_on_c, 0, 84, 73
1, 264019, Note_on_c, 0, 64, 53
1, 264026, Control_c, 0, 64, 127
1, 264030, Note_on_c, 0, 76, 58
1, 264030, Note_on_c, 0, 79, 50
1, 264041, Note_off_c, 0, 67, 66
1, 264048, Note_off_c, 0, 64, 63
1, 264070, Control_c, 0, 67, 125
1, 264085, Control_c, 0, 64, 85
1, 264085, Control_c, 0, 67, 112
1, 264100, Control_c, 0, 64, 67
1, 264100, Control_c, 0, 67, 107
1, 264115, Control_c, 0, 64, 51
1, 264129, Control_c, 0, 64, 13
1, 264129, Control_c, 0, 67, 108
1, 264136, Note_on_c, 0, 60, 50
1, 264144, Control_c, 0, 64, 0
1, 264144, Control_c, 0, 67, 109
1, 264160, Note_off_c, 0, 60, 60
1, 264218, Control_c, 0, 67, 110
1, 264234, Note_on_c, 0, 60, 67
1, 264248, Control_c, 0, 67, 110
1, 264262, Control_c, 0, 67, 111
1, 264285, Control_c, 0, 67, 112
1, 264292, Note_off_c, 0, 60, 62
1, 264300, Control_c, 0, 67, 112
1, 264363, Note_on_c, 0, 60, 53
1, 264388, Control_c, 0, 67, 112
1, 264392, Note_off_c, 0, 60, 65
1, 264402, Note_off_c, 0, 79, 45
1, 264403, Control_c, 0, 67, 111
1, 264420, Note_off_c, 0, 84, 58
1, 264433, Control_c, 0, 67, 110
1, 264448, Control_c, 0, 67, 110
1, 264462, Control_c, 0, 67, 109
1, 264468, Note_on_c, 0, 60, 70
1, 264477, Control_c, 0, 67, 109
1, 264491, Note_off_c, 0, 76, 42
1, 264492, Control_c, 0, 67, 108
1, 264503, Note_off_c, 0, 60, 64
1, 264582, Control_c, 0, 67, 107
1, 264588, Note_on_c, 0, 60, 59
1, 264597, Control_c, 0, 67, 106
1, 264611, Control_c, 0, 67, 105
1, 264618, Note_off_c, 0, 60, 66
1, 264671, Control_c, 0, 67, 105
1, 264685, Control_c, 0, 67, 104
1, 264688, Note_on_c, 0, 60, 70
1, 264700, Control_c, 0, 67, 103
1, 264717, Note_off_c, 0, 60, 64
1, 264730, Control_c, 0, 67, 102
1, 264759, Control_c, 0, 67, 101
1, 264774, Control_c, 0, 67, 95
1, 264789, Control_c, 0, 67, 87
1, 264804, Note_on_c, 0, 60, 58
1, 264804, Control_c, 0, 67, 81
1, 264819, Control_c, 0, 67, 77
1, 264825, Note_off_c, 0, 60, 61
1, 264834, Control_c, 0, 67, 74
1, 264849, Control_c, 0, 67, 73
1, 264863, Control_c, 0, 67, 72
1, 264878, Control_c, 0, 67, 72
1, 264893, Control_c, 0, 67, 71
1, 264898, Note_on_c, 0, 60, 60
1, 264908, Control_c, 0, 67, 70
1, 264923, Control_c, 0, 67, 67
1, 264937, Control_c, 0, 67, 64
1, 264940, Note_off_c, 0, 60, 65
1, 264952, Control_c, 0, 67, 61
1, 264967, Control_c, 0, 67, 58
1, 264982, Control_c, 0, 67, 52
1, 264997, Control_c, 0, 67, 45
1, 265011, Control_c, 0, 67, 39
1, 265019, Note_on_c, 0, 60, 57
1, 265032, Note_on_c, 0, 79, 71
1, 265033, Control_c, 0, 67, 36
1, 265044, Note_on_c, 0, 76, 54
1, 265048, Control_c, 0, 64, 21
1, 265048, Control_c, 0, 67, 35
1, 265063, Control_c, 0, 64, 39
1, 265063, Control_c, 0, 67, 31
1, 265064, Note_off_c, 0, 60, 65
1, 265078, Control_c, 0, 64, 53
1, 265078, Control_c, 0, 67, 27
1, 265093, Control_c, 0, 64, 61
1, 265093, Control_c, 0, 67, 21
1, 265108, Control_c, 0, 64, 66
1, 265108, Control_c, 0, 67, 16
1, 265123, Control_c, 0, 64, 71
1, 265123, Control_c, 0, 67, 13
1, 265137, Control_c, 0, 64, 78
1, 265137, Control_c, 0, 67, 10
1, 265138, Note_off_c, 0, 76, 59
1, 265148, Note_on_c, 0, 60, 62
1, 265151, Note_off_c, 0, 79, 57
1, 265152, Control_c, 0, 64, 89
1, 265152, Control_c, 0, 67, 0
1, 265167, Control_c, 0, 64, 110
1, 265182, Note_off_c, 0, 60, 64
1, 265182, Control_c, 0, 64, 127
1, 265258, Note_on_c, 0, 60, 66
1, 265288, Note_off_c, 0, 60, 62
1, 265304, Note_on_c, 0, 79, 77
1, 265320, Note_on_c, 0, 76, 57
1, 265328, Note_off_c, 0, 79, 66
1, 265340, Note_off_c, 0, 76, 65
1, 265359, Control_c, 0, 64, 102
1, 265370, Note_on_c, 0, 80, 88
1, 265371, Note_on_c, 0, 60, 63
1, 265374, Control_c, 0, 64, 81
1, 265376, Note_on_c, 0, 77, 81
1, 265390, Control_c, 0, 64, 65
1, 265405, Control_c, 0, 64, 49
1, 265406, Note_off_c, 0, 60, 65
1, 265420, Control_c, 0, 64, 15
1, 265434, Control_c, 0, 64, 0
1, 265488, Note_on_c, 0, 60, 61
1, 265516, Note_off_c, 0, 60, 65
1, 265582, Control_c, 0, 67, 17
1, 265597, Control_c, 0, 67, 37
1, 265599, Note_on_c, 0, 60, 59
1, 265612, Note_on_c, 0, 79, 75
1, 265612, Control_c, 0, 67, 58
1, 265615, Note_off_c, 0, 77, 61
1, 265621, Note_on_c, 0, 76, 67
1, 265623, Note_off_c, 0, 80, 63
1, 265627, Control_c, 0, 67, 77
1, 265641, Note_off_c, 0, 60, 65
1, 265642, Control_c, 0, 67, 93
1, 265654, Note_off_c, 0, 79, 65
1, 265656, Control_c, 0, 67, 104
1, 265664, Note_off_c, 0, 76, 64
1, 265671, Control_c, 0, 67, 108
1, 265701, Control_c, 0, 67, 107
1, 265716, Control_c, 0, 67, 105
1, 265716, Note_on_c, 0, 60, 53
1, 265731, Control_c, 0, 67, 103
1, 265746, Control_c, 0, 67, 100
1, 265749, Note_off_c, 0, 60, 64
1, 265760, Control_c, 0, 67, 97
1, 265782, Control_c, 0, 67, 95
1, 265797, Control_c, 0, 67, 94
1, 265812, Control_c, 0, 67, 93
1, 265827, Control_c, 0, 67, 92
1, 265838, Note_on_c, 0, 60, 63
1, 265841, Control_c, 0, 67, 90
1, 265856, Control_c, 0, 67, 89
1, 265871, Control_c, 0, 67, 88
1, 265874, Note_off_c, 0, 60, 63
1, 265901, Control_c, 0, 67, 87
1, 265916, Control_c, 0, 67, 87
1, 265931, Control_c, 0, 67, 86
1, 265946, Control_c, 0, 67, 85
1, 265946, Note_on_c, 0, 67, 67
1, 265951, Note_on_c, 0, 64, 63
1, 265960, Control_c, 0, 67, 84
1, 265971, Note_on_c, 0, 60, 57
1, 265975, Control_c, 0, 67, 83
1, 265980, Note_off_c, 0, 64, 66
1, 265984, Note_off_c, 0, 67, 65
1, 265990, Control_c, 0, 67, 83
1, 265997, Note_off_c, 0, 60, 63
1, 266020, Control_c, 0, 67, 82
1, 266034, Control_c, 0, 67, 82
1, 266049, Control_c, 0, 67, 81
1, 266064, Control_c, 0, 67, 80
1, 266074, Note_on_c, 0, 60, 67
1, 266104, Note_off_c, 0, 60, 64
1, 266152, Control_c, 0, 67, 81
1, 266167, Control_c, 0, 67, 82
1, 266181, Note_on_c, 0, 60, 71
1, 266183, Control_c, 0, 67, 82
1, 266198, Control_c, 0, 67, 83
1, 266213, Control_c, 0, 67, 84
1, 266226, Note_off_c, 0, 60, 61
1, 266228, Control_c, 0, 67, 85
1, 266243, Control_c, 0, 67, 85
1, 266257, Control_c, 0, 67, 86
1, 266272, Control_c, 0, 67, 87
1, 266287, Control_c, 0, 67, 88
1, 266299, Note_on_c, 0, 55, 78
1, 266302, Control_c, 0, 67, 88
1, 266303, Note_on_c, 0, 52, 65
1, 266310, Note_on_c, 0, 60, 64
1, 266325, Note_off_c, 0, 52, 65
1, 266326, Note_off_c, 0, 55, 69
1, 266331, Control_c, 0, 67, 88
1, 266345, Note_off_c, 0, 60, 65
1, 266346, Control_c, 0, 67, 87
1, 266361, Control_c, 0, 67, 86
1, 266375, Control_c, 0, 67, 85
1, 266390, Control_c, 0, 67, 84
1, 266405, Control_c, 0, 67, 82
1, 266408, Note_on_c, 0, 58, 73
1, 266410, Note_on_c, 0, 55, 64
1, 266420, Control_c, 0, 67, 80
1, 266435, Control_c, 0, 64, 42
1, 266435, Control_c, 0, 67, 76
1, 266449, Control_c, 0, 64, 59
1, 266449, Control_c, 0, 67, 63
1, 266464, Control_c, 0, 64, 67
1, 266464, Control_c, 0, 67, 43
1, 266472, Note_off_c, 0, 55, 61
1, 266479, Control_c, 0, 64, 77
1, 266479, Control_c, 0, 67, 18
1, 266486, Note_off_c, 0, 58, 61
1, 266494, Control_c, 0, 64, 101
1, 266494, Control_c, 0, 67, 0
1, 266509, Control_c, 0, 64, 127
1, 266539, Note_on_c, 0, 60, 63
1, 266573, Note_off_c, 0, 60, 61
1, 266636, Note_on_c, 0, 60, 62
1, 266658, Note_on_c, 0, 79, 76
1, 266663, Note_off_c, 0, 60, 67
1, 266670, Note_on_c, 0, 76, 61
1, 266692, Note_off_c, 0, 76, 65
1, 266697, Note_off_c, 0, 79, 60
1, 266738, Note_on_c, 0, 60, 74
1, 266738, Control_c, 0, 64, 98
1, 266743, Note_on_c, 0, 82, 95
1, 266745, Note_on_c, 0, 79, 78
1, 266753, Control_c, 0, 64, 76
1, 266768, Control_c, 0, 64, 61
1, 266783, Control_c, 0, 64, 0
1, 266785, Note_off_c, 0, 60, 62
1, 266860, Note_on_c, 0, 60, 66
1, 266896, Note_off_c, 0, 60, 63
1, 266986, Note_on_c, 0, 80, 80
1, 266986, Note_off_c, 0, 79, 61
1, 266988, Note_on_c, 0, 60, 64
1, 266991, Note_on_c, 0, 77, 74
1, 267007, Note_off_c, 0, 82, 64
1, 267022, Note_off_c, 0, 60, 65
1, 267029, Note_off_c, 0, 77, 63
1, 267033, Note_off_c, 0, 80, 65
1, 267102, Note_on_c, 0, 60, 64
1, 267132, Note_off_c, 0, 60, 66
1, 267201, Note_on_c, 0, 60, 63
1, 267234, Note_off_c, 0, 60, 65
1, 267323, Note_on_c, 0, 68, 72
1, 267329, Note_on_c, 0, 65, 65
1, 267338, Note_on_c, 0, 60, 53
1, 267353, Note_off_c, 0, 68, 64
1, 267356, Note_off_c, 0, 65, 66
1, 267367, Note_off_c, 0, 60, 63
1, 267433, Note_on_c, 0, 60, 71
1, 267463, Note_off_c, 0, 60, 66
1, 267537, Note_on_c, 0, 60, 71
1, 267571, Note_off_c, 0, 60, 62
1, 267642, Note_on_c, 0, 53, 55
1, 267643, Note_on_c, 0, 56, 67
1, 267658, Note_on_c, 0, 60, 60
1, 267669, Note_off_c, 0, 53, 57
1, 267672, Note_off_c, 0, 56, 66
1, 267700, Note_off_c, 0, 60, 61
1, 267740, Note_on_c, 0, 53, 71
1, 267747, Note_on_c, 0, 56, 72
1, 267785, Control_c, 0, 64, 46
1, 267800, Control_c, 0, 64, 63
1, 267805, Note_off_c, 0, 53, 63
1, 267815, Control_c, 0, 64, 78
1, 267823, Note_off_c, 0, 56, 63
1, 267829, Control_c, 0, 64, 127
1, 267874, Note_on_c, 0, 60, 76
1, 267932, Note_off_c, 0, 60, 62
1, 267959, Note_on_c, 0, 60, 62
1, 268014, Note_on_c, 0, 77, 89
1, 268016, Note_on_c, 0, 80, 88
1, 268020, Note_off_c, 0, 60, 64
1, 268086, Note_off_c, 0, 80, 63
1, 268089, Note_off_c, 0, 77, 60
1, 268169, Note_on_c, 0, 85, 105
1, 268175, Note_on_c, 0, 77, 100
1, 268182, Note_on_c, 0, 80, 89
1, 268208, Control_c, 0, 64, 115
1, 268223, Control_c, 0, 64, 87
1, 268237, Control_c, 0, 64, 72
1, 268252, Control_c, 0, 64, 61
1, 268267, Control_c, 0, 64, 41
1, 268282, Control_c, 0, 64, 0
1, 268308, Note_on_c, 0, 60, 67
1, 268342, Note_off_c, 0, 60, 65
1, 268424, Note_on_c, 0, 60, 63
1, 268453, Note_off_c, 0, 60, 66
1, 268544, Note_on_c, 0, 56, 53
1, 268550, Note_on_c, 0, 53, 49
1, 268649, Note_off_c, 0, 56, 59
1, 268652, Note_on_c, 0, 60, 59
1, 268667, Note_off_c, 0, 53, 60
1, 268684, Note_off_c, 0, 60, 66
1, 268712, Control_c, 0, 67, 28
1, 268726, Control_c, 0, 67, 48
1, 268741, Control_c, 0, 67, 68
1, 268756, Control_c, 0, 67, 88
1, 268775, Note_on_c, 0, 60, 57
1, 268777, Control_c, 0, 67, 106
1, 268792, Control_c, 0, 67, 123
1, 268807, Control_c, 0, 67, 127
1, 268815, Note_off_c, 0, 60, 62
1, 268909, Note_on_c, 0, 53, 50
1, 268909, Note_on_c, 0, 56, 55
1, 269014, Note_off_c, 0, 56, 57
1, 269019, Note_on_c, 0, 60, 64
1, 269019, Note_off_c, 0, 53, 58
1, 269055, Note_off_c, 0, 60, 59
1, 269144, Note_on_c, 0, 60, 59
1, 269174, Note_off_c, 0, 60, 66
1, 269255, Note_on_c, 0, 53, 52
1, 269255, Note_on_c, 0, 56, 55
1, 269347, Note_off_c, 0, 56, 59
1, 269359, Note_off_c, 0, 53, 60
1, 269371, Note_on_c, 0, 60, 57
1, 269403, Note_off_c, 0, 60, 63
1, 269443, Note_off_c, 0, 77, 54
1, 269457, Note_off_c, 0, 80, 52
1, 269487, Note_on_c, 0, 60, 66
1, 269527, Note_off_c, 0, 60, 66
1, 269601, Note_off_c, 0, 85, 61
1, 269609, Note_on_c, 0, 84, 70
1, 269613, Note_on_c, 0, 79, 50
1, 269632, Note_on_c, 0, 76, 51
1, 269731, Note_on_c, 0, 60, 54
1, 269761, Note_off_c, 0, 60, 65
1, 269845, Note_off_c, 0, 84, 62
1, 269852, Note_on_c, 0, 60, 56
1, 269864, Note_off_c, 0, 79, 65
1, 269878, Note_off_c, 0, 76, 58
1, 269882, Control_c, 0, 67, 124
1, 269889, Note_off_c, 0, 60, 65
1, 269897, Control_c, 0, 67, 118
1, 269912, Control_c, 0, 67, 112
1, 269927, Control_c, 0, 67, 107
1, 269942, Control_c, 0, 67, 104
1, 269956, Control_c, 0, 67, 103
1, 269967, Note_on_c, 0, 52, 53
1, 269973, Note_on_c, 0, 55, 50
1, 270015, Control_c, 0, 67, 104
1, 270030, Control_c, 0, 67, 105
1, 270045, Control_c, 0, 67, 106
1, 270060, Control_c, 0, 67, 107
1, 270074, Control_c, 0, 67, 108
1, 270075, Note_on_c, 0, 60, 62
1, 270080, Note_off_c, 0, 55, 62
1, 270089, Note_off_c, 0, 52, 53
1, 270089, Control_c, 0, 67, 109
1, 270104, Control_c, 0, 67, 110
1, 270115, Note_off_c, 0, 60, 62
1, 270119, Control_c, 0, 67, 112
1, 270134, Control_c, 0, 67, 113
1, 270149, Control_c, 0, 67, 114
1, 270164, Control_c, 0, 67, 115
1, 270193, Note_on_c, 0, 60, 61
1, 270194, Control_c, 0, 67, 115
1, 270238, Control_c, 0, 67, 115
1, 270253, Control_c, 0, 67, 114
1, 270257, Note_off_c, 0, 60, 60
1, 270276, Control_c, 0, 67, 114
1, 270291, Control_c, 0, 67, 113
1, 270305, Control_c, 0, 67, 112
1, 270320, Control_c, 0, 67, 112
1, 270327, Note_on_c, 0, 72, 70
1, 270331, Note_on_c, 0, 66, 60
1, 270337, Note_on_c, 0, 63, 60
1, 270350, Control_c, 0, 67, 111
1, 270409, Control_c, 0, 67, 110
1, 270465, Note_on_c, 0, 60, 60
1, 270500, Note_off_c, 0, 60, 63
1, 270512, Control_c, 0, 67, 111
1, 270527, Control_c, 0, 67, 112
1, 270542, Control_c, 0, 67, 112
1, 270572, Control_c, 0, 67, 113
1, 270588, Note_on_c, 0, 60, 59
1, 270626, Note_off_c, 0, 60, 64
1, 270645, Control_c, 0, 67, 112
1, 270675, Control_c, 0, 67, 112
1, 270690, Control_c, 0, 67, 111
1, 270703, Note_on_c, 0, 54, 50
1, 270704, Control_c, 0, 67, 110
1, 270709, Note_on_c, 0, 51, 51
1, 270719, Control_c, 0, 67, 110
1, 270734, Control_c, 0, 67, 109
1, 270748, Control_c, 0, 67, 109
1, 270790, Note_off_c, 0, 63, 53
1, 270808, Control_c, 0, 67, 109
1, 270810, Note_off_c, 0, 66, 54
1, 270818, Note_off_c, 0, 51, 56
1, 270822, Note_on_c, 0, 60, 57
1, 270831, Note_off_c, 0, 54, 60
1, 270837, Control_c, 0, 67, 110
1, 270852, Control_c, 0, 67, 111
1, 270861, Note_off_c, 0, 60, 64
1, 270867, Control_c, 0, 67, 112
1, 270882, Control_c, 0, 67, 113
1, 270897, Control_c, 0, 67, 114
1, 270912, Control_c, 0, 67, 115
1, 270927, Control_c, 0, 67, 116
1, 270941, Control_c, 0, 67, 117
1, 270956, Control_c, 0, 67, 119
1, 270956, Note_on_c, 0, 60, 53
1, 270972, Control_c, 0, 67, 121
1, 270987, Control_c, 0, 67, 122
1, 270998, Note_off_c, 0, 60, 61
1, 271001, Control_c, 0, 67, 124
1, 271024, Control_c, 0, 67, 126
1, 271039, Control_c, 0, 67, 127
1, 271074, Note_on_c, 0, 71, 59
1, 271090, Note_on_c, 0, 62, 43
1, 271094, Note_on_c, 0, 65, 44
1, 271098, Note_off_c, 0, 72, 52
1, 271195, Note_on_c, 0, 60, 43
1, 271222, Note_off_c, 0, 60, 55
1, 271316, Note_on_c, 0, 60, 43
1, 271329, Note_off_c, 0, 71, 58
1, 271346, Note_off_c, 0, 60, 54
1, 271363, Note_off_c, 0, 62, 54
1, 271375, Note_off_c, 0, 65, 51
1, 271417, Note_on_c, 0, 53, 49
1, 271422, Note_on_c, 0, 50, 46
1, 271540, Note_on_c, 0, 60, 61
1, 271541, Note_off_c, 0, 50, 56
1, 271571, Note_off_c, 0, 53, 54
1, 271579, Note_off_c, 0, 60, 60
1, 271663, Note_on_c, 0, 60, 60
1, 271702, Note_off_c, 0, 60, 64
1, 271788, Note_on_c, 0, 70, 58
1, 271799, Note_on_c, 0, 65, 46
1, 271803, Note_on_c, 0, 61, 48
1, 271912, Note_on_c, 0, 60, 54
1, 271952, Note_off_c, 0, 60, 61
1, 272031, Note_on_c, 0, 60, 51
1, 272050, Note_off_c, 0, 65, 55
1, 272062, Note_off_c, 0, 61, 57
1, 272073, Note_off_c, 0, 60, 61
1, 272087, Note_off_c, 0, 70, 55
1, 272161, Note_on_c, 0, 53, 50
1, 272165, Note_on_c, 0, 49, 46
1, 272295, Note_off_c, 0, 49, 59
1, 272300, Note_on_c, 0, 60, 50
1, 272307, Note_off_c, 0, 53, 59
1, 272332, Note_off_c, 0, 60, 64
1, 272414, Note_on_c, 0, 60, 62
1, 272463, Note_off_c, 0, 60, 58
1, 272566, Note_on_c, 0, 68, 54
1, 272584, Note_on_c, 0, 65, 39
1, 272588, Note_on_c, 0, 60, 49
1, 272701, Note_on_c, 0, 48, 57
1, 272739, Note_off_c, 0, 48, 62
1, 272823, Note_on_c, 0, 48, 60
1, 272861, Note_off_c, 0, 48, 60
1, 272941, Note_on_c, 0, 48, 57
1, 272964, Note_off_c, 0, 48, 58
1, 272995, Note_off_c, 0, 65, 60
1, 272999, Note_off_c, 0, 60, 60
1, 273011, Note_off_c, 0, 68, 59
1, 273040, Note_on_c, 0, 48, 60
1, 273074, Note_off_c, 0, 48, 63
1, 273153, Note_on_c, 0, 48, 61
1, 273186, Note_off_c, 0, 48, 63
1, 273278, Note_on_c, 0, 48, 56
1, 273302, Note_off_c, 0, 48, 61
1, 273383, Note_on_c, 0, 48, 60
1, 273416, Note_off_c, 0, 48, 63
1, 273500, Note_on_c, 0, 48, 59
1, 273535, Note_off_c, 0, 48, 61
1, 273619, Note_on_c, 0, 48, 59
1, 273657, Note_off_c, 0, 48, 61
1, 273737, Note_on_c, 0, 48, 63
1, 273767, Note_off_c, 0, 48, 65
1, 273774, Control_c, 0, 64, 23
1, 273788, Control_c, 0, 64, 37
1, 273803, Control_c, 0, 64, 43
1, 273818, Control_c, 0, 64, 46
1, 273833, Control_c, 0, 64, 47
1, 273842, Note_on_c, 0, 48, 60
1, 273875, Note_off_c, 0, 48, 64
1, 273972, Note_on_c, 0, 48, 45
1, 273972, Note_on_c, 0, 52, 48
1, 273972, Note_on_c, 0, 55, 60
1, 273982, Control_c, 0, 64, 46
1, 273987, Note_on_c, 0, 46, 45
1, 273996, Control_c, 0, 64, 46
1, 274063, Control_c, 0, 64, 45
1, 274087, Note_on_c, 0, 36, 54
1, 274092, Control_c, 0, 64, 45
1, 274125, Note_off_c, 0, 36, 64
1, 274217, Note_on_c, 0, 36, 52
1, 274227, Control_c, 0, 64, 45
1, 274241, Control_c, 0, 64, 46
1, 274247, Note_off_c, 0, 36, 61
1, 274271, Control_c, 0, 64, 46
1, 274286, Control_c, 0, 64, 47
1, 274301, Control_c, 0, 64, 47
1, 274329, Note_on_c, 0, 36, 58
1, 274340, Note_off_c, 0, 48, 41
1, 274347, Note_off_c, 0, 52, 43
1, 274355, Note_off_c, 0, 46, 55
1, 274360, Control_c, 0, 64, 48
1, 274362, Note_off_c, 0, 36, 63
1, 274370, Note_off_c, 0, 55, 56
1, 274446, Note_on_c, 0, 36, 57
1, 274478, Note_off_c, 0, 36, 63
1, 274563, Note_on_c, 0, 36, 55
1, 274598, Note_off_c, 0, 36, 63
1, 274656, Control_c, 0, 64, 48
1, 274692, Note_on_c, 0, 36, 47
1, 274723, Note_off_c, 0, 36, 54
1, 274730, Control_c, 0, 64, 49
1, 274811, Note_on_c, 0, 36, 57
1, 274850, Note_off_c, 0, 36, 63
1, 274856, Control_c, 0, 64, 49
1, 274900, Control_c, 0, 64, 50
1, 274930, Control_c, 0, 64, 50
1, 274945, Note_on_c, 0, 36, 51
1, 274960, Control_c, 0, 64, 51
1, 274975, Control_c, 0, 64, 52
1, 274984, Note_off_c, 0, 36, 62
1, 274990, Control_c, 0, 64, 52
1, 275005, Control_c, 0, 64, 53
1, 275020, Control_c, 0, 64, 54
1, 275035, Control_c, 0, 64, 54
1, 275049, Control_c, 0, 64, 55
1, 275064, Control_c, 0, 64, 55
1, 275079, Control_c, 0, 64, 56
1, 275088, Note_on_c, 0, 36, 39
1, 275109, Control_c, 0, 64, 56
1, 275119, Note_off_c, 0, 36, 51
1, 275124, Control_c, 0, 64, 57
1, 275168, Control_c, 0, 64, 57
1, 275204, Note_on_c, 0, 36, 50
1, 275235, Note_off_c, 0, 36, 56
1, 275341, Note_on_c, 0, 36, 43
1, 275383, Note_off_c, 0, 36, 60
1, 275405, Control_c, 0, 64, 57
1, 275434, Control_c, 0, 64, 56
1, 275479, Control_c, 0, 64, 56
1, 275516, Control_c, 0, 64, 55
1, 275523, Note_on_c, 0, 29, 47
1, 275546, Control_c, 0, 64, 55
1, 275561, Control_c, 0, 64, 54
1, 275575, Control_c, 0, 64, 54
1, 275605, Control_c, 0, 64, 53
1, 275649, Control_c, 0, 64, 54
1, 275664, Control_c, 0, 64, 54
1, 275667, Note_on_c, 0, 41, 36
1, 275672, Note_on_c, 0, 33, 37
1, 275678, Note_on_c, 0, 36, 37
1, 275679, Control_c, 0, 64, 55
1, 275688, Note_off_c, 0, 29, 47
1, 275693, Control_c, 0, 64, 55
1, 275758, Note_off_c, 0, 36, 54
1, 275777, Note_off_c, 0, 41, 47
1, 275777, Note_off_c, 0, 33, 49
1, 275793, Note_on_c, 0, 29, 51
1, 275828, Control_c, 0, 64, 56
1, 275904, Note_off_c, 0, 29, 54
1, 275911, Note_on_c, 0, 36, 42
1, 275915, Note_on_c, 0, 41, 47
1, 275917, Control_c, 0, 64, 55
1, 275922, Note_on_c, 0, 33, 36
1, 275985, Note_off_c, 0, 36, 56
1, 275989, Note_off_c, 0, 41, 51
1, 276006, Control_c, 0, 64, 56
1, 276009, Note_off_c, 0, 33, 53
1, 276031, Note_on_c, 0, 29, 48
1, 276036, Control_c, 0, 64, 56
1, 276050, Control_c, 0, 64, 57
1, 276065, Control_c, 0, 64, 57
1, 276095, Control_c, 0, 64, 58
1, 276120, Note_off_c, 0, 29, 55
1, 276136, Note_on_c, 0, 41, 46
1, 276138, Note_on_c, 0, 33, 19
1, 276139, Control_c, 0, 64, 58
1, 276140, Note_on_c, 0, 36, 44
1, 276154, Control_c, 0, 64, 59
1, 276169, Control_c, 0, 64, 59
1, 276198, Control_c, 0, 64, 60
1, 276213, Control_c, 0, 64, 61
1, 276221, Note_off_c, 0, 36, 56
1, 276221, Note_off_c, 0, 41, 51
1, 276228, Control_c, 0, 64, 62
1, 276242, Control_c, 0, 64, 63
1, 276264, Note_on_c, 0, 29, 48
1, 276265, Control_c, 0, 64, 64
1, 276266, Note_off_c, 0, 33, 35
1, 276280, Control_c, 0, 64, 65
1, 276295, Control_c, 0, 64, 65
1, 276310, Control_c, 0, 64, 66
1, 276324, Control_c, 0, 64, 67
1, 276339, Control_c, 0, 64, 68
1, 276350, Note_off_c, 0, 29, 58
1, 276354, Control_c, 0, 64, 69
1, 276367, Note_on_c, 0, 33, 24
1, 276370, Note_on_c, 0, 41, 52
1, 276377, Note_on_c, 0, 36, 45
1, 276398, Control_c, 0, 64, 69
1, 276433, Note_off_c, 0, 41, 52
1, 276439, Note_off_c, 0, 36, 56
1, 276447, Note_off_c, 0, 33, 49
1, 276472, Control_c, 0, 64, 69
1, 276482, Note_on_c, 0, 29, 55
1, 276487, Control_c, 0, 64, 69
1, 276531, Control_c, 0, 64, 70
1, 276546, Control_c, 0, 64, 70
1, 276562, Control_c, 0, 64, 71
1, 276575, Note_off_c, 0, 29, 55
1, 276591, Note_on_c, 0, 36, 37
1, 276592, Control_c, 0, 64, 72
1, 276596, Note_on_c, 0, 57, 64
1, 276600, Note_on_c, 0, 33, 16
1, 276602, Note_on_c, 0, 45, 49
1, 276607, Control_c, 0, 64, 73
1, 276612, Note_on_c, 0, 41, 38
1, 276621, Control_c, 0, 64, 74
1, 276632, Note_off_c, 0, 45, 61
1, 276636, Control_c, 0, 64, 76
1, 276651, Control_c, 0, 64, 77
1, 276653, Note_off_c, 0, 57, 62
1, 276656, Note_off_c, 0, 41, 51
1, 276658, Note_off_c, 0, 36, 55
1, 276665, Note_off_c, 0, 33, 43
1, 276665, Control_c, 0, 64, 79
1, 276680, Control_c, 0, 64, 81
1, 276695, Control_c, 0, 64, 84
1, 276710, Control_c, 0, 64, 87
1, 276713, Note_on_c, 0, 29, 53
1, 276725, Control_c, 0, 64, 91
1, 276739, Control_c, 0, 64, 96
1, 276754, Control_c, 0, 64, 103
1, 276769, Control_c, 0, 64, 111
1, 276784, Control_c, 0, 64, 127
1, 276793, Note_off_c, 0, 29, 55
1, 276805, Note_on_c, 0, 36, 47
1, 276819, Note_on_c, 0, 41, 49
1, 276821, Note_on_c, 0, 33, 30
1, 276861, Note_on_c, 0, 60, 75
1, 276867, Note_on_c, 0, 48, 59
1, 276889, Note_off_c, 0, 48, 62
1, 276892, Note_off_c, 0, 60, 63
1, 276937, Note_off_c, 0, 36, 56
1, 276940, Note_off_c, 0, 41, 59
1, 276950, Note_off_c, 0, 33, 27
1, 276962, Note_on_c, 0, 29, 57
1, 276962, Control_c, 0, 64, 111
1, 276977, Control_c, 0, 64, 91
1, 276990, Note_on_c, 0, 65, 81
1, 276992, Control_c, 0, 64, 75
1, 277007, Control_c, 0, 64, 62
1, 277008, Note_on_c, 0, 53, 61
1, 277029, Control_c, 0, 64, 23
1, 277043, Control_c, 0, 64, 0
1, 277085, Note_off_c, 0, 29, 59
1, 277095, Note_on_c, 0, 36, 48
1, 277098, Note_on_c, 0, 41, 50
1, 277103, Control_c, 0, 64, 35
1, 277112, Note_on_c, 0, 33, 42
1, 277118, Control_c, 0, 64, 53
1, 277133, Control_c, 0, 64, 63
1, 277147, Control_c, 0, 64, 67
1, 277162, Control_c, 0, 64, 73
1, 277177, Note_off_c, 0, 53, 40
1, 277177, Control_c, 0, 64, 81
1, 277191, Control_c, 0, 64, 92
1, 277206, Control_c, 0, 64, 107
1, 277206, Control_c, 0, 67, 119
1, 277213, Note_off_c, 0, 41, 50
1, 277219, Note_off_c, 0, 36, 54
1, 277221, Control_c, 0, 64, 127
1, 277221, Control_c, 0, 67, 109
1, 277226, Note_on_c, 0, 29, 55
1, 277236, Control_c, 0, 67, 100
1, 277240, Note_off_c, 0, 33, 34
1, 277251, Control_c, 0, 67, 95
1, 277265, Control_c, 0, 67, 90
1, 277280, Control_c, 0, 67, 86
1, 277295, Control_c, 0, 67, 83
1, 277310, Control_c, 0, 67, 79
1, 277325, Control_c, 0, 67, 75
1, 277339, Control_c, 0, 67, 72
1, 277345, Note_off_c, 0, 29, 58
1, 277354, Control_c, 0, 64, 99
1, 277354, Control_c, 0, 67, 68
1, 277355, Note_on_c, 0, 41, 50
1, 277364, Note_on_c, 0, 69, 83
1, 277370, Control_c, 0, 64, 76
1, 277370, Control_c, 0, 67, 66
1, 277376, Note_on_c, 0, 36, 47
1, 277380, Note_on_c, 0, 33, 39
1, 277384, Note_on_c, 0, 57, 64
1, 277385, Control_c, 0, 64, 62
1, 277385, Control_c, 0, 67, 62
1, 277400, Control_c, 0, 64, 40
1, 277400, Control_c, 0, 67, 58
1, 277404, Note_off_c, 0, 65, 59
1, 277415, Control_c, 0, 64, 41
1, 277415, Control_c, 0, 67, 53
1, 277430, Control_c, 0, 64, 49
1, 277430, Control_c, 0, 67, 50
1, 277437, Note_off_c, 0, 41, 52
1, 277437, Note_off_c, 0, 33, 57
1, 277444, Control_c, 0, 64, 58
1, 277444, Control_c, 0, 67, 48
1, 277448, Note_off_c, 0, 36, 58
1, 277459, Control_c, 0, 64, 64
1, 277459, Control_c, 0, 67, 45
1, 277473, Note_on_c, 0, 29, 58
1, 277473, Note_off_c, 0, 69, 62
1, 277474, Control_c, 0, 64, 70
1, 277474, Control_c, 0, 67, 41
1, 277488, Control_c, 0, 64, 81
1, 277488, Control_c, 0, 67, 38
1, 277503, Control_c, 0, 64, 121
1, 277503, Control_c, 0, 67, 35
1, 277518, Control_c, 0, 64, 127
1, 277518, Control_c, 0, 67, 29
1, 277525, Note_off_c, 0, 57, 63
1, 277533, Control_c, 0, 67, 24
1, 277548, Control_c, 0, 67, 18
1, 277562, Control_c, 0, 67, 12
1, 277565, Note_off_c, 0, 29, 55
1, 277577, Control_c, 0, 67, 0
1, 277578, Note_on_c, 0, 36, 58
1, 277596, Note_on_c, 0, 41, 53
1, 277601, Poly_aftertouch_c, 0, 33, 127
1, 277632, Note_on_c, 0, 65, 82
1, 277635, Note_on_c, 0, 53, 75
1, 277647, Poly_aftertouch_c, 0, 33, 0
1, 277666, Note_off_c, 0, 53, 64
1, 277676, Note_off_c, 0, 65, 59
1, 277689, Note_off_c, 0, 41, 61
1, 277711, Control_c, 0, 64, 94
1, 277720, Note_off_c, 0, 36, 35
1, 277726, Control_c, 0, 64, 73
1, 277729, Note_on_c, 0, 31, 57
1, 277738, Note_on_c, 0, 64, 81
1, 277741, Control_c, 0, 64, 57
1, 277752, Note_on_c, 0, 52, 63
1, 277756, Control_c, 0, 64, 0
1, 277860, Note_off_c, 0, 31, 59
1, 277861, Note_on_c, 0, 43, 55
1, 277863, Note_on_c, 0, 34, 50
1, 277866, Control_c, 0, 64, 45
1, 277871, Note_on_c, 0, 36, 46
1, 277881, Control_c, 0, 64, 59
1, 277896, Control_c, 0, 64, 65
1, 277911, Control_c, 0, 64, 71
1, 277926, Control_c, 0, 64, 80
1, 277941, Control_c, 0, 64, 94
1, 277956, Control_c, 0, 64, 127
1, 277959, Note_off_c, 0, 52, 37
1, 277974, Note_off_c, 0, 36, 56
1, 277985, Note_on_c, 0, 31, 58
1, 277987, Note_off_c, 0, 43, 55
1, 277995, Note_off_c, 0, 34, 35
1, 278103, Control_c, 0, 64, 97
1, 278119, Control_c, 0, 64, 77
1, 278123, Note_on_c, 0, 67, 82
1, 278123, Note_off_c, 0, 31, 56
1, 278126, Note_on_c, 0, 36, 49
1, 278130, Note_on_c, 0, 43, 52
1, 278134, Control_c, 0, 64, 62
1, 278140, Note_on_c, 0, 55, 65
1, 278149, Control_c, 0, 64, 15
1, 278164, Note_on_c, 0, 34, 13
1, 278164, Control_c, 0, 64, 0
1, 278173, Note_off_c, 0, 64, 57
1, 278207, Note_off_c, 0, 34, 52
1, 278209, Control_c, 0, 64, 21
1, 278217, Note_off_c, 0, 36, 60
1, 278224, Control_c, 0, 64, 48
1, 278226, Note_off_c, 0, 43, 52
1, 278239, Note_on_c, 0, 31, 58
1, 278239, Control_c, 0, 64, 63
1, 278242, Note_off_c, 0, 67, 64
1, 278254, Control_c, 0, 64, 71
1, 278268, Control_c, 0, 64, 88
1, 278281, Note_off_c, 0, 55, 61
1, 278283, Control_c, 0, 64, 127
1, 278327, Note_off_c, 0, 31, 59
1, 278352, Note_on_c, 0, 36, 26
1, 278361, Note_on_c, 0, 43, 56
1, 278367, Poly_aftertouch_c, 0, 34, 127
1, 278388, Note_off_c, 0, 36, 52
1, 278391, Note_on_c, 0, 52, 75
1, 278393, Note_on_c, 0, 64, 80
1, 278403, Poly_aftertouch_c, 0, 34, 0
1, 278416, Control_c, 0, 64, 110
1, 278421, Note_off_c, 0, 52, 65
1, 278427, Note_off_c, 0, 64, 59
1, 278430, Control_c, 0, 64, 76
1, 278442, Note_off_c, 0, 43, 58
1, 278445, Control_c, 0, 64, 60
1, 278460, Control_c, 0, 64, 17
1, 278475, Control_c, 0, 64, 0
1, 278498, Note_on_c, 0, 65, 77
1, 278516, Note_on_c, 0, 53, 63
1, 278519, Note_on_c, 0, 33, 52
1, 278616, Note_on_c, 0, 41, 43
1, 278623, Note_on_c, 0, 45, 50
1, 278629, Note_off_c, 0, 33, 54
1, 278631, Control_c, 0, 64, 38
1, 278642, Note_on_c, 0, 36, 21
1, 278645, Control_c, 0, 64, 55
1, 278660, Control_c, 0, 64, 63
1, 278674, Note_off_c, 0, 65, 62
1, 278675, Control_c, 0, 64, 67
1, 278690, Control_c, 0, 64, 73
1, 278705, Control_c, 0, 64, 82
1, 278719, Control_c, 0, 64, 92
1, 278722, Note_off_c, 0, 41, 57
1, 278725, Note_off_c, 0, 45, 50
1, 278734, Note_off_c, 0, 53, 60
1, 278734, Control_c, 0, 64, 106
1, 278749, Control_c, 0, 64, 127
1, 278768, Note_on_c, 0, 33, 48
1, 278781, Note_off_c, 0, 36, 31
1, 278823, Control_c, 0, 64, 115
1, 278838, Control_c, 0, 64, 108
1, 278853, Control_c, 0, 64, 104
1, 278867, Control_c, 0, 64, 99
1, 278881, Note_on_c, 0, 36, 28
1, 278882, Control_c, 0, 64, 93
1, 278892, Note_on_c, 0, 60, 68
1, 278897, Control_c, 0, 64, 84
1, 278899, Note_on_c, 0, 41, 34
1, 278902, Note_on_c, 0, 48, 56
1, 278911, Control_c, 0, 64, 76
1, 278916, Note_on_c, 0, 45, 34
1, 278923, Note_off_c, 0, 33, 33
1, 278926, Control_c, 0, 64, 68
1, 278941, Control_c, 0, 64, 62
1, 278957, Control_c, 0, 64, 53
1, 278971, Note_off_c, 0, 41, 51
1, 278972, Control_c, 0, 64, 45
1, 278977, Note_off_c, 0, 45, 55
1, 278987, Control_c, 0, 64, 40
1, 279002, Control_c, 0, 64, 38
1, 279016, Control_c, 0, 64, 33
1, 279017, Note_on_c, 0, 33, 40
1, 279031, Control_c, 0, 64, 21
1, 279042, Note_off_c, 0, 36, 32
1, 279046, Control_c, 0, 64, 0
1, 279133, Note_on_c, 0, 41, 46
1, 279147, Note_on_c, 0, 45, 44
1, 279149, Note_on_c, 0, 36, 31
1, 279149, Note_off_c, 0, 33, 44
1, 279227, Note_off_c, 0, 45, 54
1, 279231, Note_off_c, 0, 41, 50
1, 279275, Control_c, 0, 64, 13
1, 279280, Note_off_c, 0, 36, 35
1, 279281, Note_on_c, 0, 33, 57
1, 279290, Control_c, 0, 64, 44
1, 279305, Control_c, 0, 64, 57
1, 279320, Control_c, 0, 64, 63
1, 279334, Control_c, 0, 64, 67
1, 279348, Note_off_c, 0, 48, 59
1, 279349, Control_c, 0, 64, 71
1, 279364, Control_c, 0, 64, 76
1, 279371, Note_on_c, 0, 45, 56
1, 279371, Note_off_c, 0, 33, 57
1, 279379, Control_c, 0, 64, 80
1, 279386, Note_on_c, 0, 41, 54
1, 279394, Control_c, 0, 64, 84
1, 279408, Control_c, 0, 64, 87
1, 279423, Control_c, 0, 64, 89
1, 279431, Poly_aftertouch_c, 0, 36, 127
1, 279438, Control_c, 0, 64, 90
1, 279439, Note_off_c, 0, 45, 57
1, 279479, Note_off_c, 0, 41, 55
1, 279488, Note_on_c, 0, 33, 58
1, 279512, Control_c, 0, 64, 89
1, 279527, Control_c, 0, 64, 89
1, 279541, Control_c, 0, 64, 88
1, 279556, Control_c, 0, 64, 87
1, 279566, Note_off_c, 0, 33, 62
1, 279571, Control_c, 0, 64, 84
1, 279574, Poly_aftertouch_c, 0, 36, 0
1, 279586, Control_c, 0, 64, 76
1, 279590, Note_off_c, 0, 60, 41
1, 279601, Control_c, 0, 64, 65
1, 279605, Note_on_c, 0, 41, 56
1, 279607, Note_on_c, 0, 62, 71
1, 279616, Control_c, 0, 64, 43
1, 279626, Note_on_c, 0, 50, 55
1, 279631, Control_c, 0, 64, 0
1, 279675, Control_c, 0, 64, 33
1, 279685, Note_off_c, 0, 41, 61
1, 279690, Control_c, 0, 64, 54
1, 279704, Note_on_c, 0, 34, 65
1, 279705, Control_c, 0, 64, 64
1, 279716, Note_off_c, 0, 62, 57
1, 279720, Control_c, 0, 64, 71
1, 279729, Note_off_c, 0, 50, 62
1, 279734, Control_c, 0, 64, 88
1, 279749, Control_c, 0, 64, 127
1, 279795, Note_off_c, 0, 34, 57
1, 279801, Note_on_c, 0, 41, 66
1, 279862, Poly_aftertouch_c, 0, 54, 127
1, 279876, Note_on_c, 0, 58, 76
1, 279881, Note_on_c, 0, 46, 74
1, 279894, Poly_aftertouch_c, 0, 54, 0
1, 279935, Note_off_c, 0, 46, 61
1, 279938, Note_off_c, 0, 58, 62
1, 279943, Control_c, 0, 64, 107
1, 279953, Note_off_c, 0, 41, 61
1, 279957, Control_c, 0, 64, 79
1, 279966, Note_on_c, 0, 36, 58
1, 279972, Control_c, 0, 64, 63
1, 279984, Note_on_c, 0, 57, 78
1, 279986, Note_on_c, 0, 45, 66
1, 279987, Control_c, 0, 64, 23
1, 280009, Control_c, 0, 64, 0
1, 280090, Note_on_c, 0, 41, 60
1, 280099, Note_off_c, 0, 36, 59
1, 280113, Control_c, 0, 64, 45
1, 280128, Control_c, 0, 64, 59
1, 280143, Note_off_c, 0, 45, 54
1, 280143, Control_c, 0, 64, 65
1, 280157, Control_c, 0, 64, 71
1, 280172, Control_c, 0, 64, 77
1, 280187, Control_c, 0, 64, 84
1, 280202, Control_c, 0, 64, 91
1, 280217, Note_off_c, 0, 41, 60
1, 280217, Control_c, 0, 64, 97
1, 280226, Note_on_c, 0, 36, 58
1, 280231, Control_c, 0, 64, 101
1, 280246, Control_c, 0, 64, 103
1, 280290, Control_c, 0, 64, 102
1, 280305, Control_c, 0, 64, 98
1, 280320, Control_c, 0, 64, 88
1, 280335, Control_c, 0, 64, 72
1, 280350, Control_c, 0, 64, 57
1, 280355, Note_on_c, 0, 41, 54
1, 280358, Note_off_c, 0, 36, 60
1, 280361, Note_on_c, 0, 60, 82
1, 280364, Control_c, 0, 64, 0
1, 280376, Note_on_c, 0, 48, 65
1, 280427, Note_off_c, 0, 57, 62
1, 280439, Control_c, 0, 64, 49
1, 280454, Control_c, 0, 64, 63
1, 280469, Control_c, 0, 64, 73
1, 280470, Note_off_c, 0, 60, 65
1, 280472, Note_off_c, 0, 41, 63
1, 280477, Note_on_c, 0, 36, 60
1, 280483, Control_c, 0, 64, 93
1, 280498, Control_c, 0, 64, 127
1, 280515, Note_off_c, 0, 48, 61
1, 280591, Note_on_c, 0, 41, 63
1, 280594, Note_off_c, 0, 36, 56
1, 280625, Note_on_c, 0, 57, 77
1, 280634, Note_on_c, 0, 45, 66
1, 280657, Note_off_c, 0, 57, 64
1, 280665, Note_off_c, 0, 45, 64
1, 280697, Note_off_c, 0, 41, 61
1, 280721, Control_c, 0, 64, 91
1, 280722, Note_on_c, 0, 55, 84
1, 280729, Note_on_c, 0, 36, 56
1, 280734, Note_on_c, 0, 43, 69
1, 280736, Control_c, 0, 64, 69
1, 280751, Control_c, 0, 64, 29
1, 280773, Control_c, 0, 64, 0
1, 280858, Note_off_c, 0, 36, 58
1, 280862, Note_on_c, 0, 40, 59
1, 280877, Control_c, 0, 64, 43
1, 280892, Control_c, 0, 64, 59
1, 280892, Note_off_c, 0, 43, 60
1, 280906, Control_c, 0, 64, 66
1, 280921, Control_c, 0, 64, 72
1, 280929, Note_off_c, 0, 55, 63
1, 280936, Control_c, 0, 64, 82
1, 280951, Control_c, 0, 64, 97
1, 280966, Control_c, 0, 64, 127
1, 280987, Note_off_c, 0, 40, 51
1, 280994, Note_on_c, 0, 36, 56
1, 281084, Control_c, 0, 64, 121
1, 281099, Control_c, 0, 64, 89
1, 281113, Control_c, 0, 64, 68
1, 281114, Note_off_c, 0, 36, 59
1, 281116, Note_on_c, 0, 60, 77
1, 281126, Note_on_c, 0, 40, 53
1, 281128, Control_c, 0, 64, 34
1, 281132, Note_on_c, 0, 48, 59
1, 281143, Control_c, 0, 64, 0
1, 281193, Note_off_c, 0, 40, 57
1, 281202, Control_c, 0, 64, 20
1, 281217, Control_c, 0, 64, 52
1, 281232, Note_off_c, 0, 48, 60
1, 281232, Control_c, 0, 64, 62
1, 281238, Note_on_c, 0, 36, 56
1, 281247, Control_c, 0, 64, 68
1, 281261, Control_c, 0, 64, 76
1, 281268, Note_off_c, 0, 60, 59
1, 281276, Control_c, 0, 64, 88
1, 281291, Control_c, 0, 64, 110
1, 281300, Note_off_c, 0, 36, 56
1, 281306, Control_c, 0, 64, 127
1, 281371, Poly_aftertouch_c, 0, 40, 127
1, 281376, Note_on_c, 0, 58, 73
1, 281410, Poly_aftertouch_c, 0, 40, 0
1, 281455, Control_c, 0, 64, 105
1, 281470, Control_c, 0, 64, 86
1, 281471, Note_on_c, 0, 57, 73
1, 281476, Note_on_c, 0, 41, 53
1, 281485, Control_c, 0, 64, 73
1, 281507, Control_c, 0, 64, 62
1, 281512, Note_off_c, 0, 58, 59
1, 281522, Control_c, 0, 64, 48
1, 281536, Control_c, 0, 64, 33
1, 281551, Control_c, 0, 64, 25
1, 281566, Control_c, 0, 64, 23
1, 281581, Control_c, 0, 64, 15
1, 281581, Control_c, 0, 67, 8
1, 281596, Control_c, 0, 64, 0
1, 281596, Control_c, 0, 67, 13
1, 281600, Note_off_c, 0, 41, 59
1, 281610, Note_on_c, 0, 48, 45
1, 281610, Control_c, 0, 67, 16
1, 281613, Note_on_c, 0, 45, 33
1, 281625, Control_c, 0, 67, 18
1, 281628, Note_on_c, 0, 53, 50
1, 281640, Control_c, 0, 67, 19
1, 281655, Control_c, 0, 67, 21
1, 281670, Control_c, 0, 67, 22
1, 281685, Control_c, 0, 67, 23
1, 281700, Control_c, 0, 67, 23
1, 281714, Note_off_c, 0, 45, 55
1, 281718, Note_off_c, 0, 48, 59
1, 281726, Note_off_c, 0, 53, 58
1, 281729, Note_on_c, 0, 41, 50
1, 281870, Note_off_c, 0, 41, 56
1, 281876, Note_on_c, 0, 45, 35
1, 281880, Note_on_c, 0, 53, 38
1, 281881, Note_on_c, 0, 60, 63
1, 281882, Note_on_c, 0, 48, 38
1, 281906, Control_c, 0, 67, 23
1, 281950, Control_c, 0, 67, 22
1, 281952, Note_off_c, 0, 57, 51
1, 281965, Control_c, 0, 67, 21
1, 281980, Control_c, 0, 67, 21
1, 281986, Note_off_c, 0, 48, 54
1, 281993, Note_off_c, 0, 45, 51
1, 281998, Note_off_c, 0, 53, 47
1, 282001, Note_on_c, 0, 41, 52
1, 282010, Control_c, 0, 67, 20
1, 282039, Control_c, 0, 67, 19
1, 282054, Control_c, 0, 67, 18
1, 282069, Control_c, 0, 67, 18
1, 282084, Control_c, 0, 67, 17
1, 282099, Control_c, 0, 67, 16
1, 282112, Note_off_c, 0, 41, 60
1, 282114, Control_c, 0, 67, 14
1, 282128, Control_c, 0, 67, 14
1, 282129, Note_on_c, 0, 53, 50
1, 282130, Note_on_c, 0, 45, 38
1, 282131, Note_on_c, 0, 48, 52
1, 282143, Control_c, 0, 64, 13
1, 282143, Control_c, 0, 67, 12
1, 282159, Control_c, 0, 64, 43
1, 282159, Control_c, 0, 67, 9
1, 282174, Control_c, 0, 64, 55
1, 282174, Control_c, 0, 67, 0
1, 282189, Control_c, 0, 64, 62
1, 282203, Control_c, 0, 64, 66
1, 282212, Note_off_c, 0, 53, 56
1, 282218, Control_c, 0, 64, 69
1, 282224, Note_off_c, 0, 48, 59
1, 282224, Note_off_c, 0, 45, 57
1, 282233, Note_on_c, 0, 41, 56
1, 282233, Control_c, 0, 64, 75
1, 282255, Control_c, 0, 64, 85
1, 282263, Note_off_c, 0, 60, 64
1, 282270, Control_c, 0, 64, 100
1, 282284, Control_c, 0, 64, 127
1, 282353, Note_off_c, 0, 41, 60
1, 282362, Note_on_c, 0, 48, 57
1, 282366, Note_on_c, 0, 53, 58
1, 282370, Note_on_c, 0, 45, 53
1, 282445, Note_off_c, 0, 53, 62
1, 282461, Note_off_c, 0, 48, 61
1, 282463, Note_off_c, 0, 45, 58
1, 282472, Note_on_c, 0, 41, 66
1, 282552, Control_c, 0, 64, 100
1, 282566, Control_c, 0, 64, 69
1, 282581, Control_c, 0, 64, 27
1, 282593, Note_on_c, 0, 48, 57
1, 282594, Note_off_c, 0, 41, 62
1, 282596, Note_on_c, 0, 53, 59
1, 282596, Note_on_c, 0, 69, 86
1, 282596, Control_c, 0, 64, 0
1, 282599, Note_on_c, 0, 57, 78
1, 282603, Note_on_c, 0, 45, 45
1, 282626, Control_c, 0, 64, 38
1, 282640, Control_c, 0, 64, 61
1, 282646, Note_off_c, 0, 57, 62
1, 282655, Control_c, 0, 64, 73
1, 282670, Control_c, 0, 64, 115
1, 282672, Note_off_c, 0, 53, 61
1, 282674, Note_off_c, 0, 69, 62
1, 282684, Control_c, 0, 64, 127
1, 282693, Note_off_c, 0, 48, 62
1, 282697, Note_off_c, 0, 45, 55
1, 282702, Note_on_c, 0, 41, 74
1, 282806, Note_off_c, 0, 41, 61
1, 282807, Note_on_c, 0, 53, 66
1, 282809, Note_on_c, 0, 45, 50
1, 282809, Note_on_c, 0, 48, 66
1, 282849, Note_on_c, 0, 60, 82
1, 282853, Note_on_c, 0, 72, 88
1, 282880, Note_off_c, 0, 60, 64
1, 282897, Note_off_c, 0, 72, 63
1, 282931, Note_off_c, 0, 53, 54
1, 282944, Note_on_c, 0, 41, 70
1, 282952, Note_off_c, 0, 45, 56
1, 282957, Note_off_c, 0, 48, 60
1, 282970, Note_on_c, 0, 77, 103
1, 282972, Note_on_c, 0, 65, 88
1, 282981, Control_c, 0, 64, 99
1, 283004, Control_c, 0, 64, 72
1, 283019, Control_c, 0, 64, 48
1, 283034, Control_c, 0, 64, 0
1, 283083, Note_on_c, 0, 48, 67
1, 283085, Note_on_c, 0, 53, 68
1, 283085, Note_off_c, 0, 41, 63
1, 283091, Note_on_c, 0, 45, 60
1, 283107, Control_c, 0, 64, 40
1, 283122, Control_c, 0, 64, 61
1, 283136, Note_off_c, 0, 65, 51
1, 283137, Control_c, 0, 64, 71
1, 283152, Control_c, 0, 64, 94
1, 283167, Control_c, 0, 64, 127
1, 283194, Note_off_c, 0, 53, 60
1, 283215, Note_on_c, 0, 41, 71
1, 283217, Note_off_c, 0, 45, 61
1, 283224, Note_off_c, 0, 48, 62
1, 283333, Note_on_c, 0, 53, 75
1, 283336, Note_on_c, 0, 45, 64
1, 283339, Note_on_c, 0, 48, 75
1, 283343, Note_on_c, 0, 69, 101
1, 283343, Note_on_c, 0, 81, 95
1, 283346, Note_off_c, 0, 41, 62
1, 283369, Note_off_c, 0, 77, 62
1, 283385, Note_off_c, 0, 81, 68
1, 283388, Note_off_c, 0, 69, 65
1, 283420, Note_off_c, 0, 53, 60
1, 283447, Note_on_c, 0, 41, 79
1, 283449, Note_off_c, 0, 48, 61
1, 283452, Note_off_c, 0, 45, 55
1, 283560, Note_on_c, 0, 48, 75
1, 283564, Note_on_c, 0, 53, 71
1, 283569, Note_off_c, 0, 41, 62
1, 283607, Poly_aftertouch_c, 0, 45, 127
1, 283619, Note_on_c, 0, 77, 93
1, 283620, Note_on_c, 0, 65, 88
1, 283637, Poly_aftertouch_c, 0, 45, 0
1, 283645, Note_off_c, 0, 48, 60
1, 283646, Note_off_c, 0, 65, 66
1, 283661, Note_off_c, 0, 77, 59
1, 283667, Note_off_c, 0, 53, 62
1, 283685, Control_c, 0, 64, 91
1, 283700, Control_c, 0, 64, 65
1, 283708, Note_on_c, 0, 76, 98
1, 283709, Note_on_c, 0, 64, 98
1, 283713, Note_on_c, 0, 43, 82
1, 283715, Control_c, 0, 64, 0
1, 283842, Control_c, 0, 64, 42
1, 283846, Note_on_c, 0, 55, 86
1, 283849, Note_on_c, 0, 46, 73
1, 283851, Note_on_c, 0, 48, 69
1, 283857, Control_c, 0, 64, 60
1, 283872, Control_c, 0, 64, 68
1, 283886, Control_c, 0, 64, 81
1, 283891, Note_off_c, 0, 43, 63
1, 283899, Note_off_c, 0, 64, 58
1, 283901, Control_c, 0, 64, 127
1, 283932, Note_off_c, 0, 76, 62
1, 283980, Note_on_c, 0, 43, 85
1, 283986, Note_off_c, 0, 55, 42
1, 283991, Note_off_c, 0, 46, 62
1, 283995, Note_off_c, 0, 48, 59
1, 284099, Note_on_c, 0, 79, 101
1, 284100, Note_on_c, 0, 67, 102
1, 284107, Note_on_c, 0, 48, 79
1, 284108, Note_on_c, 0, 55, 81
1, 284114, Note_on_c, 0, 46, 71
1, 284144, Note_off_c, 0, 43, 61
1, 284153, Note_off_c, 0, 67, 64
1, 284156, Note_off_c, 0, 79, 63
1, 284204, Note_off_c, 0, 55, 59
1, 284234, Note_off_c, 0, 48, 61
1, 284236, Note_on_c, 0, 43, 82
1, 284240, Note_off_c, 0, 46, 61
1, 284317, Note_on_c, 0, 48, 76
1, 284322, Note_on_c, 0, 46, 64
1, 284331, Note_on_c, 0, 55, 74
1, 284347, Note_off_c, 0, 43, 61
1, 284360, Control_c, 0, 64, 100
1, 284375, Control_c, 0, 64, 74
1, 284386, Note_off_c, 0, 46, 61
1, 284388, Note_off_c, 0, 48, 63
1, 284390, Control_c, 0, 64, 54
1, 284398, Note_on_c, 0, 76, 95
1, 284399, Note_on_c, 0, 64, 88
1, 284404, Control_c, 0, 64, 0
1, 284444, Note_off_c, 0, 55, 57
1, 284476, Note_off_c, 0, 64, 52
1, 284518, Note_off_c, 0, 76, 62
1, 284576, Control_c, 0, 67, 19
1, 284591, Control_c, 0, 67, 41
1, 284606, Control_c, 0, 67, 68
1, 284621, Control_c, 0, 67, 90
1, 284635, Control_c, 0, 67, 110
1, 284650, Control_c, 0, 67, 122
1, 284665, Control_c, 0, 67, 127
1, 284706, Note_on_c, 0, 77, 67
1, 284709, Control_c, 0, 67, 126
1, 284724, Control_c, 0, 67, 125
1, 284725, Note_on_c, 0, 65, 49
1, 284735, Note_on_c, 0, 53, 36
1, 284739, Control_c, 0, 67, 124
1, 284740, Note_on_c, 0, 57, 41
1, 284743, Note_on_c, 0, 45, 32
1, 284753, Control_c, 0, 67, 121
1, 284761, Note_on_c, 0, 48, 28
1, 284768, Control_c, 0, 67, 120
1, 284783, Control_c, 0, 67, 118
1, 284798, Control_c, 0, 67, 116
1, 284813, Control_c, 0, 67, 114
1, 284827, Control_c, 0, 67, 112
1, 284842, Control_c, 0, 67, 109
1, 284856, Control_c, 0, 67, 108
1, 284871, Control_c, 0, 64, 38
1, 284871, Control_c, 0, 67, 107
1, 284886, Control_c, 0, 64, 53
1, 284886, Control_c, 0, 67, 106
1, 284901, Control_c, 0, 64, 61
1, 284901, Control_c, 0, 67, 105
1, 284916, Note_off_c, 0, 77, 63
1, 284916, Control_c, 0, 64, 65
1, 284916, Control_c, 0, 67, 102
1, 284931, Control_c, 0, 64, 68
1, 284931, Control_c, 0, 67, 100
1, 284945, Control_c, 0, 64, 74
1, 284945, Control_c, 0, 67, 98
1, 284960, Control_c, 0, 64, 81
1, 284960, Control_c, 0, 67, 95
1, 284964, Note_off_c, 0, 65, 62
1, 284975, Control_c, 0, 64, 89
1, 284975, Control_c, 0, 67, 93
1, 284990, Control_c, 0, 64, 101
1, 284990, Control_c, 0, 67, 91
1, 285005, Control_c, 0, 64, 117
1, 285005, Control_c, 0, 67, 90
1, 285019, Control_c, 0, 64, 127
1, 285019, Control_c, 0, 67, 87
1, 285034, Control_c, 0, 67, 83
1, 285049, Control_c, 0, 67, 78
1, 285064, Control_c, 0, 67, 74
1, 285078, Control_c, 0, 67, 72
1, 285093, Control_c, 0, 67, 70
1, 285108, Control_c, 0, 64, 123
1, 285108, Control_c, 0, 67, 69
1, 285123, Control_c, 0, 64, 114
1, 285123, Control_c, 0, 67, 68
1, 285138, Control_c, 0, 64, 110
1, 285138, Control_c, 0, 67, 66
1, 285152, Control_c, 0, 64, 104
1, 285152, Control_c, 0, 67, 65
1, 285167, Control_c, 0, 64, 97
1, 285167, Control_c, 0, 67, 65
1, 285182, Control_c, 0, 64, 90
1, 285182, Control_c, 0, 67, 64
1, 285197, Control_c, 0, 64, 82
1, 285202, Note_on_c, 0, 72, 54
1, 285212, Control_c, 0, 64, 73
1, 285212, Control_c, 0, 67, 63
1, 285216, Note_on_c, 0, 60, 41
1, 285226, Control_c, 0, 64, 67
1, 285249, Control_c, 0, 64, 62
1, 285264, Control_c, 0, 64, 56
1, 285278, Control_c, 0, 64, 51
1, 285293, Control_c, 0, 64, 47
1, 285308, Control_c, 0, 64, 42
1, 285323, Control_c, 0, 64, 33
1, 285338, Control_c, 0, 64, 17
1, 285354, Control_c, 0, 64, 0
1, 285443, Control_c, 0, 67, 63
1, 285472, Control_c, 0, 67, 62
1, 285546, Control_c, 0, 67, 61
1, 285575, Control_c, 0, 67, 61
1, 285606, Control_c, 0, 67, 60
1, 285636, Control_c, 0, 64, 26
1, 285650, Control_c, 0, 64, 44
1, 285665, Control_c, 0, 64, 55
1, 285680, Control_c, 0, 64, 60
1, 285694, Control_c, 0, 64, 63
1, 285694, Control_c, 0, 67, 60
1, 285709, Control_c, 0, 64, 64
1, 285724, Control_c, 0, 64, 65
1, 285739, Control_c, 0, 64, 66
1, 285754, Control_c, 0, 64, 68
1, 285769, Control_c, 0, 64, 71
1, 285783, Control_c, 0, 64, 74
1, 285798, Control_c, 0, 64, 78
1, 285813, Control_c, 0, 64, 83
1, 285828, Control_c, 0, 64, 88
1, 285843, Control_c, 0, 64, 93
1, 285858, Control_c, 0, 64, 100
1, 285873, Control_c, 0, 64, 111
1, 285888, Control_c, 0, 64, 127
1, 285892, Note_off_c, 0, 60, 37
1, 285894, Note_off_c, 0, 57, 40
1, 285920, Note_off_c, 0, 45, 38
1, 285947, Control_c, 0, 67, 59
1, 285950, Note_off_c, 0, 72, 43
1, 285974, Note_off_c, 0, 53, 41
1, 285977, Note_off_c, 0, 48, 38
1, 285998, Control_c, 0, 67, 58
1, 286013, Control_c, 0, 67, 57
1, 286028, Control_c, 0, 67, 56
1, 286043, Control_c, 0, 67, 45
1, 286058, Control_c, 0, 67, 18
1, 286073, Control_c, 0, 67, 0
1, 286501, Note_on_c, 0, 61, 97
1, 286501, Note_on_c, 0, 73, 98
1, 286514, Note_on_c, 0, 53, 83
1, 286516, Note_on_c, 0, 49, 72
1, 286520, Note_on_c, 0, 46, 68
1, 286562, Control_c, 0, 64, 85
1, 286577, Control_c, 0, 64, 64
1, 286591, Control_c, 0, 64, 18
1, 286606, Control_c, 0, 64, 0
1, 286651, Control_c, 0, 64, 51
1, 286666, Control_c, 0, 64, 66
1, 286681, Control_c, 0, 64, 84
1, 286696, Control_c, 0, 64, 127
1, 286719, Note_off_c, 0, 73, 61
1, 286749, Note_off_c, 0, 53, 61
1, 286770, Note_off_c, 0, 61, 52
1, 287049, Note_on_c, 0, 70, 96
1, 287055, Note_on_c, 0, 58, 92
1, 287063, Note_on_c, 0, 54, 95
1, 287119, Control_c, 0, 64, 94
1, 287134, Control_c, 0, 64, 76
1, 287148, Control_c, 0, 64, 64
1, 287163, Control_c, 0, 64, 49
1, 287178, Control_c, 0, 64, 23
1, 287193, Control_c, 0, 64, 9
1, 287208, Control_c, 0, 64, 0
1, 287511, Control_c, 0, 64, 26
1, 287526, Control_c, 0, 64, 47
1, 287541, Control_c, 0, 64, 57
1, 287555, Control_c, 0, 64, 62
1, 287570, Control_c, 0, 64, 64
1, 287585, Control_c, 0, 64, 67
1, 287600, Control_c, 0, 64, 70
1, 287615, Control_c, 0, 64, 74
1, 287629, Control_c, 0, 64, 80
1, 287644, Control_c, 0, 64, 90
1, 287659, Control_c, 0, 64, 101
1, 287673, Control_c, 0, 64, 127
1, 287797, Note_off_c, 0, 54, 54
1, 287913, Note_off_c, 0, 58, 33
1, 288035, Note_off_c, 0, 46, 37
1, 288123, Note_off_c, 0, 49, 37
1, 288149, Control_c, 0, 67, 16
1, 288164, Control_c, 0, 67, 32
1, 288178, Control_c, 0, 67, 45
1, 288193, Control_c, 0, 67, 58
1, 288208, Control_c, 0, 67, 70
1, 288223, Control_c, 0, 67, 82
1, 288233, Note_off_c, 0, 70, 53
1, 288238, Control_c, 0, 67, 94
1, 288260, Control_c, 0, 67, 109
1, 288275, Control_c, 0, 67, 120
1, 288290, Control_c, 0, 67, 127
1, 288319, Control_c, 0, 64, 110
1, 288334, Control_c, 0, 64, 95
1, 288349, Control_c, 0, 64, 84
1, 288364, Control_c, 0, 64, 75
1, 288378, Control_c, 0, 64, 69
1, 288393, Control_c, 0, 64, 63
1, 288408, Control_c, 0, 64, 60
1, 288423, Control_c, 0, 64, 59
1, 288467, Control_c, 0, 64, 57
1, 288482, Control_c, 0, 64, 55
1, 288496, Control_c, 0, 64, 52
1, 288511, Control_c, 0, 64, 48
1, 288526, Control_c, 0, 64, 42
1, 288542, Control_c, 0, 64, 34
1, 288557, Control_c, 0, 64, 26
1, 288572, Control_c, 0, 64, 19
1, 288587, Control_c, 0, 64, 0
1, 288607, Note_on_c, 0, 68, 59
1, 288633, Note_on_c, 0, 56, 35
1, 288641, Note_on_c, 0, 48, 33
1, 288649, Note_on_c, 0, 53, 27
1, 289753, Note_on_c, 0, 67, 45
1, 289780, Note_off_c, 0, 68, 56
1, 289787, Control_c, 0, 64, 15
1, 289802, Control_c, 0, 64, 38
1, 289817, Control_c, 0, 64, 52
1, 289832, Control_c, 0, 64, 58
1, 289846, Control_c, 0, 64, 62
1, 289861, Control_c, 0, 64, 64
1, 289864, Note_off_c, 0, 67, 56
1, 289876, Note_off_c, 0, 56, 53
1, 289876, Control_c, 0, 64, 66
1, 289883, Note_off_c, 0, 48, 39
1, 289891, Control_c, 0, 64, 68
1, 289906, Control_c, 0, 64, 71
1, 289921, Control_c, 0, 64, 74
1, 289929, Note_off_c, 0, 53, 42
1, 289936, Control_c, 0, 64, 78
1, 289950, Control_c, 0, 64, 82
1, 289965, Control_c, 0, 64, 86
1, 289980, Control_c, 0, 64, 90
1, 289995, Control_c, 0, 64, 92
1, 290010, Control_c, 0, 64, 92
1, 290013, Note_on_c, 0, 65, 49
1, 290039, Control_c, 0, 64, 92
1, 290044, Note_off_c, 0, 65, 62
1, 290068, Control_c, 0, 64, 90
1, 290083, Control_c, 0, 64, 89
1, 290098, Control_c, 0, 64, 86
1, 290105, Note_on_c, 0, 66, 55
1, 290113, Control_c, 0, 64, 83
1, 290128, Control_c, 0, 64, 79
1, 290129, Note_on_c, 0, 52, 40
1, 290135, Note_on_c, 0, 58, 45
1, 290142, Note_off_c, 0, 66, 64
1, 290144, Control_c, 0, 64, 74
1, 290148, Note_on_c, 0, 48, 40
1, 290159, Control_c, 0, 64, 66
1, 290173, Note_on_c, 0, 67, 54
1, 290173, Control_c, 0, 64, 61
1, 290188, Control_c, 0, 64, 52
1, 290203, Control_c, 0, 64, 47
1, 290208, Note_off_c, 0, 67, 64
1, 290218, Control_c, 0, 64, 45
1, 290227, Note_on_c, 0, 68, 64
1, 290233, Control_c, 0, 64, 44
1, 290247, Control_c, 0, 64, 41
1, 290262, Control_c, 0, 64, 35
1, 290269, Note_off_c, 0, 68, 61
1, 290277, Control_c, 0, 64, 25
1, 290287, Note_on_c, 0, 67, 57
1, 290292, Control_c, 0, 64, 0
1, 290332, Note_off_c, 0, 67, 59
1, 290359, Note_on_c, 0, 68, 58
1, 290394, Note_off_c, 0, 68, 62
1, 290422, Note_on_c, 0, 67, 47
1, 290457, Note_off_c, 0, 67, 65
1, 290479, Note_on_c, 0, 68, 53
1, 290522, Note_off_c, 0, 68, 59
1, 290546, Note_on_c, 0, 67, 57
1, 290580, Note_off_c, 0, 67, 64
1, 290610, Note_on_c, 0, 68, 41
1, 290641, Note_off_c, 0, 68, 53
1, 290664, Note_on_c, 0, 67, 57
1, 290698, Note_off_c, 0, 67, 65
1, 290723, Note_on_c, 0, 68, 50
1, 290756, Note_off_c, 0, 68, 59
1, 290772, Note_on_c, 0, 67, 62
1, 290806, Note_off_c, 0, 67, 63
1, 290818, Control_c, 0, 64, 40
1, 290830, Note_on_c, 0, 68, 51
1, 290833, Control_c, 0, 64, 54
1, 290847, Control_c, 0, 64, 61
1, 290862, Note_off_c, 0, 68, 59
1, 290862, Control_c, 0, 64, 64
1, 290877, Control_c, 0, 64, 66
1, 290891, Control_c, 0, 64, 69
1, 290892, Note_on_c, 0, 67, 57
1, 290906, Control_c, 0, 64, 72
1, 290921, Control_c, 0, 64, 75
1, 290923, Note_off_c, 0, 67, 64
1, 290936, Control_c, 0, 64, 79
1, 290939, Note_on_c, 0, 68, 57
1, 290952, Control_c, 0, 64, 83
1, 290955, Note_off_c, 0, 48, 41
1, 290967, Control_c, 0, 64, 87
1, 290969, Note_off_c, 0, 68, 55
1, 290982, Control_c, 0, 64, 92
1, 290994, Note_off_c, 0, 52, 55
1, 290996, Control_c, 0, 64, 96
1, 290996, Control_c, 0, 67, 122
1, 290999, Note_on_c, 0, 67, 62
1, 291011, Control_c, 0, 64, 100
1, 291011, Control_c, 0, 67, 113
1, 291023, Note_off_c, 0, 58, 53
1, 291026, Control_c, 0, 64, 105
1, 291026, Control_c, 0, 67, 103
1, 291034, Note_off_c, 0, 67, 65
1, 291041, Control_c, 0, 64, 111
1, 291041, Control_c, 0, 67, 93
1, 291048, Note_on_c, 0, 68, 62
1, 291056, Control_c, 0, 64, 127
1, 291056, Control_c, 0, 67, 82
1, 291070, Control_c, 0, 67, 69
1, 291079, Note_off_c, 0, 68, 64
1, 291085, Control_c, 0, 67, 53
1, 291100, Control_c, 0, 67, 40
1, 291104, Note_on_c, 0, 67, 68
1, 291115, Control_c, 0, 67, 26
1, 291130, Control_c, 0, 67, 14
1, 291132, Note_off_c, 0, 67, 66
1, 291144, Control_c, 0, 67, 0
1, 291152, Note_on_c, 0, 68, 59
1, 291183, Note_off_c, 0, 68, 63
1, 291198, Note_on_c, 0, 67, 70
1, 291239, Note_off_c, 0, 67, 64
1, 291254, Note_on_c, 0, 68, 71
1, 291290, Note_off_c, 0, 68, 59
1, 291310, Note_on_c, 0, 67, 70
1, 291346, Note_off_c, 0, 67, 65
1, 291355, Note_on_c, 0, 68, 74
1, 291386, Note_off_c, 0, 68, 63
1, 291401, Note_on_c, 0, 67, 78
1, 291428, Note_off_c, 0, 67, 66
1, 291477, Control_c, 0, 64, 97
1, 291480, Note_on_c, 0, 73, 77
1, 291492, Control_c, 0, 64, 76
1, 291507, Control_c, 0, 64, 62
1, 291522, Control_c, 0, 64, 31
1, 291537, Control_c, 0, 64, 0
1, 291549, Note_off_c, 0, 73, 57
1, 291559, Note_on_c, 0, 72, 68
1, 291602, Note_off_c, 0, 72, 64
1, 291623, Note_on_c, 0, 73, 56
1, 291641, Control_c, 0, 67, 46
1, 291656, Control_c, 0, 67, 87
1, 291660, Note_off_c, 0, 73, 65
1, 291670, Note_on_c, 0, 72, 69
1, 291670, Control_c, 0, 67, 127
1, 291711, Note_off_c, 0, 72, 61
1, 291743, Note_on_c, 0, 73, 68
1, 291775, Note_off_c, 0, 73, 62
1, 291805, Note_on_c, 0, 72, 65
1, 291834, Note_off_c, 0, 72, 67
1, 291854, Note_on_c, 0, 73, 63
1, 291888, Note_off_c, 0, 73, 61
1, 291908, Control_c, 0, 64, 25
1, 291911, Note_on_c, 0, 72, 63
1, 291923, Control_c, 0, 64, 38
1, 291937, Control_c, 0, 64, 45
1, 291945, Note_off_c, 0, 72, 65
1, 291952, Control_c, 0, 64, 50
1, 291967, Control_c, 0, 64, 52
1, 291976, Note_on_c, 0, 73, 53
1, 291982, Control_c, 0, 64, 54
1, 292005, Control_c, 0, 64, 56
1, 292010, Note_off_c, 0, 73, 62
1, 292019, Control_c, 0, 64, 57
1, 292034, Control_c, 0, 64, 59
1, 292039, Note_on_c, 0, 72, 62
1, 292049, Control_c, 0, 64, 60
1, 292064, Control_c, 0, 64, 61
1, 292070, Note_off_c, 0, 72, 65
1, 292079, Control_c, 0, 64, 62
1, 292089, Note_on_c, 0, 73, 59
1, 292093, Control_c, 0, 64, 62
1, 292108, Control_c, 0, 64, 63
1, 292121, Note_off_c, 0, 73, 64
1, 292138, Control_c, 0, 64, 63
1, 292152, Control_c, 0, 64, 64
1, 292155, Note_on_c, 0, 72, 56
1, 292182, Note_off_c, 0, 72, 65
1, 292182, Control_c, 0, 64, 64
1, 292192, Note_on_c, 0, 73, 65
1, 292197, Control_c, 0, 64, 65
1, 292211, Control_c, 0, 64, 65
1, 292226, Control_c, 0, 64, 66
1, 292230, Note_off_c, 0, 73, 57
1, 292241, Control_c, 0, 64, 66
1, 292256, Control_c, 0, 64, 67
1, 292257, Note_on_c, 0, 72, 65
1, 292271, Control_c, 0, 64, 67
1, 292285, Control_c, 0, 64, 68
1, 292294, Note_off_c, 0, 72, 61
1, 292300, Control_c, 0, 64, 69
1, 292315, Control_c, 0, 64, 69
1, 292326, Note_on_c, 0, 73, 42
1, 292330, Control_c, 0, 64, 70
1, 292343, Control_c, 0, 64, 71
1, 292350, Note_off_c, 0, 73, 55
1, 292358, Control_c, 0, 64, 72
1, 292373, Control_c, 0, 64, 73
1, 292374, Note_on_c, 0, 72, 57
1, 292388, Control_c, 0, 64, 74
1, 292402, Note_off_c, 0, 72, 65
1, 292403, Control_c, 0, 64, 75
1, 292417, Control_c, 0, 64, 76
1, 292426, Note_on_c, 0, 73, 55
1, 292432, Control_c, 0, 64, 77
1, 292447, Control_c, 0, 64, 78
1, 292449, Note_off_c, 0, 73, 58
1, 292462, Control_c, 0, 64, 79
1, 292477, Control_c, 0, 64, 80
1, 292479, Note_on_c, 0, 72, 66
1, 292491, Control_c, 0, 64, 81
1, 292506, Control_c, 0, 64, 82
1, 292508, Note_off_c, 0, 72, 62
1, 292521, Control_c, 0, 64, 83
1, 292530, Note_on_c, 0, 73, 58
1, 292537, Control_c, 0, 64, 85
1, 292537, Control_c, 0, 67, 126
1, 292552, Control_c, 0, 64, 87
1, 292552, Control_c, 0, 67, 122
1, 292565, Note_off_c, 0, 73, 47
1, 292566, Control_c, 0, 64, 89
1, 292566, Control_c, 0, 67, 119
1, 292581, Control_c, 0, 64, 93
1, 292581, Control_c, 0, 67, 113
1, 292596, Control_c, 0, 64, 98
1, 292596, Control_c, 0, 67, 107
1, 292598, Note_on_c, 0, 72, 58
1, 292611, Control_c, 0, 64, 104
1, 292611, Control_c, 0, 67, 101
1, 292622, Note_off_c, 0, 72, 64
1, 292626, Control_c, 0, 64, 117
1, 292626, Control_c, 0, 67, 93
1, 292640, Control_c, 0, 64, 127
1, 292640, Control_c, 0, 67, 83
1, 292654, Note_on_c, 0, 73, 55
1, 292655, Control_c, 0, 67, 73
1, 292670, Control_c, 0, 67, 60
1, 292682, Note_off_c, 0, 73, 65
1, 292685, Control_c, 0, 67, 48
1, 292698, Note_on_c, 0, 72, 68
1, 292700, Control_c, 0, 67, 39
1, 292714, Control_c, 0, 67, 31
1, 292729, Note_off_c, 0, 72, 65
1, 292729, Control_c, 0, 67, 28
1, 292752, Control_c, 0, 67, 26
1, 292781, Control_c, 0, 67, 28
1, 292796, Control_c, 0, 67, 31
1, 292799, Note_on_c, 0, 71, 63
1, 292811, Control_c, 0, 67, 34
1, 292826, Control_c, 0, 67, 37
1, 292840, Control_c, 0, 67, 41
1, 292855, Control_c, 0, 67, 45
1, 292856, Note_off_c, 0, 71, 61
1, 292867, Note_on_c, 0, 72, 59
1, 292870, Control_c, 0, 67, 48
1, 292885, Control_c, 0, 67, 51
1, 292900, Control_c, 0, 64, 121
1, 292900, Control_c, 0, 67, 53
1, 292902, Note_off_c, 0, 72, 61
1, 292914, Control_c, 0, 64, 97
1, 292914, Control_c, 0, 67, 55
1, 292929, Control_c, 0, 64, 83
1, 292929, Control_c, 0, 67, 62
1, 292944, Control_c, 0, 64, 72
1, 292944, Control_c, 0, 67, 75
1, 292959, Control_c, 0, 64, 63
1, 292959, Control_c, 0, 67, 97
1, 292961, Note_on_c, 0, 85, 55
1, 292973, Control_c, 0, 64, 52
1, 292973, Control_c, 0, 67, 119
1, 292988, Control_c, 0, 64, 39
1, 292988, Control_c, 0, 67, 127
1, 292995, Note_off_c, 0, 85, 65
1, 293003, Control_c, 0, 64, 29
1, 293018, Control_c, 0, 64, 20
1, 293021, Note_on_c, 0, 84, 59
1, 293033, Control_c, 0, 64, 0
1, 293054, Note_off_c, 0, 84, 65
1, 293082, Note_on_c, 0, 85, 51
1, 293112, Note_off_c, 0, 85, 56
1, 293148, Note_on_c, 0, 84, 57
1, 293178, Note_off_c, 0, 84, 60
1, 293195, Note_on_c, 0, 85, 62
1, 293229, Note_off_c, 0, 85, 61
1, 293267, Note_on_c, 0, 84, 57
1, 293294, Note_off_c, 0, 84, 59
1, 293300, Control_c, 0, 64, 31
1, 293314, Control_c, 0, 64, 45
1, 293319, Note_on_c, 0, 85, 56
1, 293330, Control_c, 0, 64, 55
1, 293343, Note_off_c, 0, 85, 61
1, 293345, Control_c, 0, 64, 59
1, 293360, Control_c, 0, 64, 61
1, 293375, Control_c, 0, 64, 62
1, 293379, Note_on_c, 0, 84, 57
1, 293389, Control_c, 0, 64, 63
1, 293404, Control_c, 0, 64, 64
1, 293406, Note_off_c, 0, 84, 62
1, 293419, Control_c, 0, 64, 65
1, 293425, Note_on_c, 0, 85, 59
1, 293434, Control_c, 0, 64, 66
1, 293449, Control_c, 0, 64, 67
1, 293459, Note_off_c, 0, 85, 62
1, 293463, Control_c, 0, 64, 68
1, 293486, Control_c, 0, 64, 69
1, 293498, Note_on_c, 0, 84, 57
1, 293501, Control_c, 0, 64, 71
1, 293516, Control_c, 0, 64, 72
1, 293522, Note_off_c, 0, 84, 57
1, 293531, Control_c, 0, 64, 74
1, 293545, Control_c, 0, 64, 75
1, 293551, Note_on_c, 0, 85, 59
1, 293560, Control_c, 0, 64, 77
1, 293575, Control_c, 0, 64, 79
1, 293585, Note_off_c, 0, 85, 63
1, 293589, Control_c, 0, 64, 82
1, 293600, Note_on_c, 0, 84, 66
1, 293604, Control_c, 0, 64, 85
1, 293619, Control_c, 0, 64, 87
1, 293634, Control_c, 0, 64, 90
1, 293635, Note_off_c, 0, 84, 61
1, 293649, Control_c, 0, 64, 92
1, 293663, Control_c, 0, 64, 94
1, 293670, Note_on_c, 0, 85, 53
1, 293678, Control_c, 0, 64, 95
1, 293693, Note_off_c, 0, 85, 56
1, 293693, Control_c, 0, 64, 96
1, 293723, Control_c, 0, 64, 97
1, 293731, Note_on_c, 0, 84, 56
1, 293751, Note_off_c, 0, 84, 60
1, 293780, Note_on_c, 0, 85, 52
1, 293801, Note_off_c, 0, 85, 59
1, 293823, Note_on_c, 0, 84, 67
1, 293858, Note_off_c, 0, 84, 61
1, 293874, Note_on_c, 0, 85, 64
1, 293915, Note_off_c, 0, 85, 57
1, 293937, Note_on_c, 0, 84, 63
1, 293945, Control_c, 0, 64, 97
1, 293969, Note_off_c, 0, 84, 65
1, 293999, Note_on_c, 0, 85, 58
1, 294035, Control_c, 0, 64, 98
1, 294037, Note_off_c, 0, 85, 64
1, 294059, Note_on_c, 0, 84, 61
1, 294079, Control_c, 0, 64, 99
1, 294079, Control_c, 0, 67, 127
1, 294080, Note_off_c, 0, 84, 61
1, 294094, Control_c, 0, 67, 121
1, 294108, Control_c, 0, 64, 99
1, 294108, Control_c, 0, 67, 114
1, 294109, Note_on_c, 0, 85, 61
1, 294123, Control_c, 0, 67, 107
1, 294135, Note_off_c, 0, 85, 66
1, 294139, Control_c, 0, 67, 98
1, 294154, Control_c, 0, 67, 92
1, 294160, Note_on_c, 0, 84, 69
1, 294169, Control_c, 0, 64, 100
1, 294169, Control_c, 0, 67, 85
1, 294184, Control_c, 0, 67, 80
1, 294199, Control_c, 0, 67, 77
1, 294210, Note_off_c, 0, 84, 60
1, 294213, Control_c, 0, 67, 75
1, 294250, Control_c, 0, 64, 99
1, 294258, Note_on_c, 0, 83, 63
1, 294265, Control_c, 0, 64, 98
1, 294280, Control_c, 0, 64, 97
1, 294280, Control_c, 0, 67, 77
1, 294294, Control_c, 0, 64, 95
1, 294294, Control_c, 0, 67, 78
1, 294305, Note_off_c, 0, 83, 62
1, 294309, Control_c, 0, 64, 94
1, 294309, Control_c, 0, 67, 80
1, 294324, Control_c, 0, 64, 92
1, 294324, Control_c, 0, 67, 82
1, 294327, Note_on_c, 0, 84, 67
1, 294339, Control_c, 0, 64, 90
1, 294339, Control_c, 0, 67, 84
1, 294354, Control_c, 0, 64, 85
1, 294354, Control_c, 0, 67, 86
1, 294368, Control_c, 0, 64, 80
1, 294368, Control_c, 0, 67, 88
1, 294383, Control_c, 0, 64, 75
1, 294383, Control_c, 0, 67, 90
1, 294394, Note_off_c, 0, 84, 58
1, 294398, Control_c, 0, 64, 70
1, 294398, Control_c, 0, 67, 92
1, 294413, Control_c, 0, 64, 65
1, 294413, Control_c, 0, 67, 93
1, 294425, Note_on_c, 0, 85, 57
1, 294428, Control_c, 0, 64, 61
1, 294428, Control_c, 0, 67, 95
1, 294443, Control_c, 0, 64, 57
1, 294443, Control_c, 0, 67, 96
1, 294458, Control_c, 0, 64, 56
1, 294458, Control_c, 0, 67, 97
1, 294473, Control_c, 0, 64, 56
1, 294473, Control_c, 0, 67, 99
1, 294487, Control_c, 0, 64, 55
1, 294487, Control_c, 0, 67, 100
1, 294502, Control_c, 0, 64, 54
1, 294502, Control_c, 0, 67, 102
1, 294517, Control_c, 0, 64, 51
1, 294517, Control_c, 0, 67, 103
1, 294532, Control_c, 0, 64, 45
1, 294532, Control_c, 0, 67, 103
1, 294542, Note_off_c, 0, 85, 62
1, 294546, Control_c, 0, 64, 40
1, 294546, Control_c, 0, 67, 105
1, 294553, Note_on_c, 0, 84, 55
1, 294561, Control_c, 0, 64, 36
1, 294561, Control_c, 0, 67, 110
1, 294576, Control_c, 0, 64, 33
1, 294576, Control_c, 0, 67, 117
1, 294591, Control_c, 0, 64, 30
1, 294591, Control_c, 0, 67, 124
1, 294606, Control_c, 0, 64, 25
1, 294606, Control_c, 0, 67, 127
1, 294620, Control_c, 0, 64, 20
1, 294635, Control_c, 0, 64, 12
1, 294650, Control_c, 0, 64, 0
1, 294667, Note_off_c, 0, 84, 62
1, 294676, Note_on_c, 0, 82, 54
1, 294795, Note_off_c, 0, 82, 54
1, 294802, Note_on_c, 0, 80, 51
1, 294904, Note_off_c, 0, 80, 60
1, 294921, Note_on_c, 0, 79, 52
1, 295043, Note_off_c, 0, 79, 61
1, 295056, Note_on_c, 0, 78, 50
1, 295171, Note_on_c, 0, 77, 55
1, 295193, Note_off_c, 0, 78, 50
1, 295275, Note_off_c, 0, 77, 59
1, 295304, Note_on_c, 0, 76, 51
1, 295414, Note_off_c, 0, 76, 63
1, 295430, Note_on_c, 0, 75, 50
1, 295543, Note_off_c, 0, 75, 55
1, 295552, Note_on_c, 0, 73, 49
1, 295654, Note_off_c, 0, 73, 62
1, 295669, Note_on_c, 0, 72, 48
1, 295793, Note_off_c, 0, 72, 65
1, 295801, Note_on_c, 0, 70, 50
1, 295932, Note_off_c, 0, 70, 52
1, 295936, Note_on_c, 0, 68, 53
1, 296042, Note_off_c, 0, 68, 58
1, 296046, Note_on_c, 0, 67, 58
1, 296175, Note_on_c, 0, 66, 58
1, 296178, Note_off_c, 0, 67, 58
1, 296297, Note_on_c, 0, 65, 57
1, 296316, Note_off_c, 0, 66, 55
1, 296416, Note_off_c, 0, 65, 57
1, 296422, Note_on_c, 0, 64, 61
1, 296554, Note_on_c, 0, 63, 58
1, 296558, Note_off_c, 0, 64, 60
1, 296682, Note_on_c, 0, 61, 54
1, 296684, Note_off_c, 0, 63, 54
1, 296786, Note_off_c, 0, 61, 60
1, 296801, Note_on_c, 0, 60, 49
1, 296914, Note_off_c, 0, 60, 63
1, 296930, Note_on_c, 0, 58, 52
1, 297063, Note_off_c, 0, 58, 54
1, 297066, Note_on_c, 0, 56, 55
1, 297166, Note_off_c, 0, 56, 53
1, 297188, Note_on_c, 0, 55, 46
1, 297315, Note_off_c, 0, 55, 59
1, 297320, Note_on_c, 0, 54, 51
1, 297449, Note_on_c, 0, 53, 51
1, 297465, Note_off_c, 0, 54, 55
1, 297566, Note_off_c, 0, 53, 61
1, 297582, Note_on_c, 0, 52, 50
1, 297701, Note_off_c, 0, 52, 61
1, 297706, Note_on_c, 0, 51, 52
1, 297842, Note_on_c, 0, 49, 51
1, 297842, Note_off_c, 0, 51, 52
1, 297963, Note_off_c, 0, 49, 59
1, 297981, Note_on_c, 0, 48, 54
1, 298106, Note_off_c, 0, 48, 63
1, 298107, Note_on_c, 0, 46, 56
1, 298248, Note_on_c, 0, 44, 57
1, 298256, Note_off_c, 0, 46, 56
1, 298364, Note_off_c, 0, 44, 58
1, 298369, Note_on_c, 0, 43, 52
1, 298491, Note_off_c, 0, 43, 61
1, 298497, Note_on_c, 0, 42, 61
1, 298625, Note_on_c, 0, 41, 54
1, 298668, Note_off_c, 0, 42, 57
1, 298748, Note_off_c, 0, 41, 58
1, 298750, Note_on_c, 0, 40, 57
1, 298882, Note_on_c, 0, 39, 60
1, 298900, Note_off_c, 0, 40, 54
1, 299021, Note_off_c, 0, 39, 61
1, 299025, Note_on_c, 0, 37, 57
1, 299138, Note_off_c, 0, 37, 60
1, 299162, Note_on_c, 0, 36, 51
1, 299290, Note_off_c, 0, 36, 55
1, 299290, Note_on_c, 0, 34, 54
1, 299415, Note_on_c, 0, 32, 50
1, 299445, Note_off_c, 0, 34, 37
1, 299560, Note_on_c, 0, 31, 47
1, 299563, Note_off_c, 0, 32, 50
1, 299665, Note_off_c, 0, 31, 55
1, 299686, Note_on_c, 0, 32, 51
1, 299803, Note_off_c, 0, 32, 55
1, 299812, Note_on_c, 0, 34, 55
1, 299922, Note_off_c, 0, 34, 56
1, 299937, Note_on_c, 0, 36, 43
1, 300026, Note_off_c, 0, 36, 55
1, 300069, Note_on_c, 0, 35, 43
1, 300212, Note_on_c, 0, 36, 36
1, 300229, Note_off_c, 0, 35, 47
1, 300322, Note_off_c, 0, 36, 56
1, 300345, Note_on_c, 0, 35, 45
1, 300445, Note_off_c, 0, 35, 57
1, 300467, Note_on_c, 0, 36, 50
1, 300551, Control_c, 0, 64, 22
1, 300551, Control_c, 0, 67, 116
1, 300553, Note_off_c, 0, 36, 61
1, 300566, Control_c, 0, 64, 50
1, 300566, Control_c, 0, 67, 45
1, 300581, Control_c, 0, 64, 69
1, 300581, Control_c, 0, 67, 0
1, 300584, Note_on_c, 0, 29, 71
1, 300585, Note_on_c, 0, 53, 98
1, 300596, Control_c, 0, 64, 127
1, 300614, Note_on_c, 0, 28, 27
1, 300630, Note_on_c, 0, 36, 76
1, 300657, Note_on_c, 0, 48, 81
1, 300658, Note_off_c, 0, 29, 60
1, 300668, Note_off_c, 0, 28, 46
1, 300687, Note_off_c, 0, 53, 60
1, 300698, Note_on_c, 0, 43, 57
1, 300700, Control_c, 0, 64, 102
1, 300700, Note_on_c, 0, 41, 61
1, 300708, Note_off_c, 0, 36, 61
1, 300713, Note_on_c, 0, 44, 82
1, 300715, Control_c, 0, 64, 78
1, 300721, Note_off_c, 0, 48, 63
1, 300729, Control_c, 0, 64, 64
1, 300741, Note_off_c, 0, 43, 62
1, 300744, Control_c, 0, 64, 51
1, 300759, Control_c, 0, 64, 41
1, 300760, Note_on_c, 0, 36, 63
1, 300762, Note_off_c, 0, 44, 64
1, 300763, Note_off_c, 0, 41, 64
1, 300774, Control_c, 0, 64, 39
1, 300778, Note_on_c, 0, 48, 63
1, 300789, Control_c, 0, 64, 31
1, 300798, Poly_aftertouch_c, 0, 50, 0
1, 300803, Control_c, 0, 64, 0
1, 300830, Note_off_c, 0, 36, 63
1, 300836, Note_on_c, 0, 29, 70
1, 300840, Note_off_c, 0, 48, 64
1, 300844, Note_on_c, 0, 53, 77
1, 300875, Note_off_c, 0, 53, 67
1, 300901, Note_off_c, 0, 29, 62
1, 300912, Note_on_c, 0, 48, 70
1, 300915, Note_on_c, 0, 36, 60
1, 300957, Note_off_c, 0, 36, 64
1, 300980, Note_off_c, 0, 48, 63
1, 300991, Note_on_c, 0, 56, 78
1, 300999, Note_on_c, 0, 29, 68
1, 301034, Note_off_c, 0, 29, 60
1, 301052, Note_on_c, 0, 48, 75
1, 301055, Note_on_c, 0, 36, 68
1, 301067, Note_off_c, 0, 56, 63
1, 301094, Note_off_c, 0, 36, 63
1, 301110, Note_off_c, 0, 48, 62
1, 301111, Note_on_c, 0, 29, 69
1, 301118, Note_on_c, 0, 55, 81
1, 301149, Note_off_c, 0, 29, 64
1, 301172, Note_on_c, 0, 36, 62
1, 301179, Note_off_c, 0, 55, 62
1, 301188, Note_on_c, 0, 48, 62
1, 301210, Note_off_c, 0, 36, 63
1, 301229, Note_on_c, 0, 29, 73
1, 301245, Note_off_c, 0, 48, 63
1, 301245, Note_on_c, 0, 53, 73
1, 301266, Note_on_c, 0, 52, 48
1, 301268, Note_off_c, 0, 29, 64
1, 301293, Note_off_c, 0, 53, 63
1, 301295, Note_off_c, 0, 52, 37
1, 301306, Note_on_c, 0, 48, 69
1, 301313, Note_on_c, 0, 36, 52
1, 301314, Control_c, 0, 64, 52
1, 301331, Control_c, 0, 64, 73
1, 301340, Note_off_c, 0, 48, 67
1, 301345, Control_c, 0, 64, 127
1, 301346, Note_off_c, 0, 36, 53
1, 301360, Note_on_c, 0, 29, 81
1, 301374, Note_on_c, 0, 53, 101
1, 301417, Note_on_c, 0, 36, 72
1, 301426, Note_off_c, 0, 29, 61
1, 301442, Note_on_c, 0, 48, 75
1, 301460, Note_off_c, 0, 53, 56
1, 301468, Note_on_c, 0, 41, 72
1, 301480, Poly_aftertouch_c, 0, 52, 0
1, 301486, Note_off_c, 0, 36, 60
1, 301493, Note_on_c, 0, 44, 78
1, 301496, Note_off_c, 0, 48, 64
1, 301523, Note_off_c, 0, 41, 64
1, 301535, Note_on_c, 0, 36, 55
1, 301535, Note_off_c, 0, 44, 64
1, 301538, Control_c, 0, 64, 86
1, 301552, Control_c, 0, 64, 67
1, 301562, Note_on_c, 0, 48, 64
1, 301567, Control_c, 0, 64, 50
1, 301582, Control_c, 0, 64, 0
1, 301600, Note_off_c, 0, 36, 62
1, 301611, Note_on_c, 0, 29, 67
1, 301625, Note_off_c, 0, 48, 64
1, 301629, Note_on_c, 0, 53, 75
1, 301660, Note_off_c, 0, 53, 65
1, 301663, Note_off_c, 0, 29, 58
1, 301690, Note_on_c, 0, 36, 61
1, 301702, Note_on_c, 0, 48, 74
1, 301739, Note_off_c, 0, 36, 65
1, 301768, Note_on_c, 0, 29, 74
1, 301770, Note_off_c, 0, 48, 63
1, 301778, Note_on_c, 0, 56, 86
1, 301817, Note_off_c, 0, 29, 61
1, 301833, Note_on_c, 0, 36, 69
1, 301842, Note_on_c, 0, 48, 74
1, 301855, Note_off_c, 0, 56, 63
1, 301871, Note_off_c, 0, 36, 64
1, 301895, Note_on_c, 0, 29, 77
1, 301903, Note_on_c, 0, 55, 76
1, 301909, Note_off_c, 0, 48, 64
1, 301937, Note_off_c, 0, 29, 61
1, 301959, Note_on_c, 0, 36, 65
1, 301980, Note_off_c, 0, 55, 63
1, 301987, Note_on_c, 0, 48, 64
1, 302003, Note_off_c, 0, 36, 63
1, 302008, Note_on_c, 0, 29, 72
1, 302019, Note_on_c, 0, 53, 75
1, 302030, Note_off_c, 0, 48, 63
1, 302044, Note_off_c, 0, 29, 66
1, 302068, Note_off_c, 0, 53, 63
1, 302076, Note_on_c, 0, 36, 71
1, 302085, Note_on_c, 0, 48, 67
1, 302093, Control_c, 0, 64, 51
1, 302108, Control_c, 0, 64, 67
1, 302110, Note_off_c, 0, 36, 66
1, 302113, Note_off_c, 0, 48, 64
1, 302124, Control_c, 0, 64, 88
1, 302137, Note_on_c, 0, 29, 71
1, 302138, Note_on_c, 0, 61, 101
1, 302139, Control_c, 0, 64, 127
1, 302182, Note_on_c, 0, 37, 66
1, 302199, Note_on_c, 0, 56, 75
1, 302214, Note_off_c, 0, 29, 61
1, 302241, Note_on_c, 0, 41, 74
1, 302255, Note_off_c, 0, 37, 61
1, 302271, Note_off_c, 0, 56, 63
1, 302279, Note_on_c, 0, 53, 71
1, 302293, Note_off_c, 0, 61, 56
1, 302309, Note_off_c, 0, 41, 63
1, 302316, Control_c, 0, 64, 108
1, 302330, Note_off_c, 0, 53, 62
1, 302331, Control_c, 0, 64, 78
1, 302334, Note_on_c, 0, 56, 69
1, 302344, Note_on_c, 0, 37, 25
1, 302346, Control_c, 0, 64, 63
1, 302352, Note_on_c, 0, 29, 64
1, 302361, Control_c, 0, 64, 33
1, 302375, Control_c, 0, 64, 0
1, 302383, Note_off_c, 0, 56, 66
1, 302390, Note_on_c, 0, 61, 73
1, 302416, Note_off_c, 0, 61, 67
1, 302418, Note_off_c, 0, 37, 0
1, 302420, Note_off_c, 0, 29, 60
1, 302432, Note_on_c, 0, 37, 45
1, 302443, Note_on_c, 0, 56, 79
1, 302479, Note_off_c, 0, 37, 60
1, 302498, Note_on_c, 0, 29, 65
1, 302504, Note_off_c, 0, 56, 65
1, 302525, Note_on_c, 0, 65, 94
1, 302554, Note_off_c, 0, 29, 58
1, 302565, Note_on_c, 0, 37, 62
1, 302588, Note_on_c, 0, 56, 82
1, 302598, Note_off_c, 0, 65, 61
1, 302602, Note_off_c, 0, 37, 65
1, 302624, Note_off_c, 0, 56, 63
1, 302626, Note_on_c, 0, 29, 67
1, 302649, Note_on_c, 0, 63, 80
1, 302682, Note_off_c, 0, 29, 62
1, 302700, Note_on_c, 0, 37, 48
1, 302714, Note_on_c, 0, 56, 72
1, 302719, Note_off_c, 0, 63, 61
1, 302740, Note_off_c, 0, 37, 61
1, 302752, Note_on_c, 0, 29, 67
1, 302755, Note_off_c, 0, 56, 63
1, 302768, Note_on_c, 0, 61, 84
1, 302818, Note_off_c, 0, 29, 62
1, 302819, Note_off_c, 0, 61, 63
1, 302828, Note_on_c, 0, 37, 65
1, 302828, Note_on_c, 0, 56, 80
1, 302855, Control_c, 0, 64, 24
1, 302870, Control_c, 0, 64, 58
1, 302882, Note_off_c, 0, 37, 58
1, 302885, Note_off_c, 0, 56, 55
1, 302885, Control_c, 0, 64, 71
1, 302890, Note_on_c, 0, 61, 97
1, 302898, Note_on_c, 0, 29, 81
1, 302900, Control_c, 0, 64, 106
1, 302915, Control_c, 0, 64, 127
1, 302961, Note_on_c, 0, 56, 75
1, 302965, Note_on_c, 0, 37, 78
1, 302978, Note_off_c, 0, 29, 60
1, 303016, Note_off_c, 0, 37, 61
1, 303018, Note_on_c, 0, 41, 66
1, 303025, Note_off_c, 0, 56, 65
1, 303034, Note_on_c, 0, 53, 66
1, 303046, Note_off_c, 0, 61, 50
1, 303064, Control_c, 0, 64, 102
1, 303079, Control_c, 0, 64, 65
1, 303082, Note_off_c, 0, 53, 59
1, 303091, Note_on_c, 0, 56, 73
1, 303091, Note_off_c, 0, 41, 63
1, 303094, Control_c, 0, 64, 0
1, 303111, Note_on_c, 0, 37, 54
1, 303141, Note_off_c, 0, 56, 65
1, 303143, Note_off_c, 0, 37, 63
1, 303147, Note_on_c, 0, 61, 75
1, 303150, Note_on_c, 0, 29, 67
1, 303170, Note_off_c, 0, 61, 69
1, 303191, Note_off_c, 0, 29, 61
1, 303202, Note_on_c, 0, 56, 80
1, 303225, Note_on_c, 0, 37, 60
1, 303262, Note_off_c, 0, 56, 66
1, 303263, Note_off_c, 0, 37, 65
1, 303285, Note_on_c, 0, 29, 74
1, 303290, Note_on_c, 0, 65, 87
1, 303326, Note_off_c, 0, 29, 64
1, 303343, Note_on_c, 0, 37, 67
1, 303346, Note_on_c, 0, 56, 93
1, 303356, Note_off_c, 0, 65, 62
1, 303385, Note_off_c, 0, 37, 63
1, 303398, Note_off_c, 0, 56, 64
1, 303403, Note_on_c, 0, 29, 76
1, 303416, Note_on_c, 0, 63, 82
1, 303456, Note_off_c, 0, 29, 61
1, 303463, Note_on_c, 0, 37, 64
1, 303471, Control_c, 0, 64, 58
1, 303479, Note_on_c, 0, 56, 75
1, 303485, Note_off_c, 0, 63, 62
1, 303486, Control_c, 0, 64, 81
1, 303495, Note_off_c, 0, 37, 62
1, 303501, Control_c, 0, 64, 127
1, 303524, Note_on_c, 0, 29, 75
1, 303538, Note_on_c, 0, 61, 90
1, 303544, Note_off_c, 0, 56, 63
1, 303574, Note_on_c, 0, 37, 74
1, 303597, Note_off_c, 0, 29, 60
1, 303606, Note_on_c, 0, 56, 72
1, 303613, Note_off_c, 0, 61, 62
1, 303628, Note_off_c, 0, 37, 62
1, 303639, Note_off_c, 0, 56, 63
1, 303732, Note_on_c, 0, 42, 102
1, 303739, Note_on_c, 0, 30, 96
1, 303755, Note_on_c, 0, 70, 80
1, 303798, Control_c, 0, 64, 111
1, 303813, Control_c, 0, 64, 72
1, 303827, Control_c, 0, 64, 50
1, 303832, Note_on_c, 0, 73, 82
1, 303835, Note_off_c, 0, 70, 64
1, 303842, Control_c, 0, 64, 0
1, 303890, Note_off_c, 0, 73, 64
1, 303897, Note_on_c, 0, 70, 75
1, 303956, Note_on_c, 0, 73, 76
1, 303957, Note_off_c, 0, 70, 65
1, 304023, Note_off_c, 0, 73, 62
1, 304024, Note_on_c, 0, 70, 80
1, 304078, Note_on_c, 0, 73, 78
1, 304079, Note_off_c, 0, 70, 66
1, 304138, Note_on_c, 0, 70, 78
1, 304140, Note_off_c, 0, 73, 64
1, 304194, Note_on_c, 0, 73, 77
1, 304195, Note_off_c, 0, 70, 64
1, 304250, Note_on_c, 0, 70, 69
1, 304253, Note_off_c, 0, 73, 65
1, 304305, Note_off_c, 0, 70, 65
1, 304310, Note_on_c, 0, 73, 74
1, 304367, Note_on_c, 0, 70, 70
1, 304369, Note_off_c, 0, 73, 64
1, 304422, Note_off_c, 0, 70, 64
1, 304423, Note_on_c, 0, 73, 76
1, 304486, Note_on_c, 0, 70, 76
1, 304486, Control_c, 0, 64, 32
1, 304488, Note_off_c, 0, 73, 64
1, 304501, Control_c, 0, 64, 54
1, 304517, Control_c, 0, 64, 63
1, 304532, Control_c, 0, 64, 69
1, 304545, Note_off_c, 0, 70, 64
1, 304546, Note_on_c, 0, 73, 75
1, 304547, Control_c, 0, 64, 82
1, 304561, Control_c, 0, 64, 127
1, 304608, Note_off_c, 0, 73, 64
1, 304611, Note_on_c, 0, 70, 64
1, 304662, Note_off_c, 0, 30, 48
1, 304668, Note_on_c, 0, 73, 76
1, 304670, Note_off_c, 0, 70, 62
1, 304700, Note_off_c, 0, 42, 59
1, 304740, Note_on_c, 0, 70, 65
1, 304747, Note_off_c, 0, 73, 63
1, 304802, Note_on_c, 0, 73, 80
1, 304817, Note_off_c, 0, 70, 59
1, 304832, Note_on_c, 0, 43, 87
1, 304833, Note_on_c, 0, 31, 83
1, 304857, Poly_aftertouch_c, 0, 67, 127
1, 304864, Note_off_c, 0, 73, 67
1, 304881, Note_off_c, 0, 43, 61
1, 304884, Note_off_c, 0, 31, 61
1, 304902, Poly_aftertouch_c, 0, 67, 0
1, 304909, Control_c, 0, 64, 91
1, 304912, Note_on_c, 0, 64, 71
1, 304924, Control_c, 0, 64, 74
1, 304939, Control_c, 0, 64, 62
1, 304942, Note_on_c, 0, 34, 79
1, 304954, Control_c, 0, 64, 46
1, 304969, Control_c, 0, 64, 29
1, 304975, Note_on_c, 0, 67, 80
1, 304976, Note_off_c, 0, 64, 58
1, 304983, Control_c, 0, 64, 28
1, 304998, Control_c, 0, 64, 27
1, 305013, Control_c, 0, 64, 23
1, 305014, Note_off_c, 0, 34, 61
1, 305028, Control_c, 0, 64, 11
1, 305043, Control_c, 0, 64, 0
1, 305051, Note_off_c, 0, 67, 61
1, 305052, Note_on_c, 0, 37, 81
1, 305058, Note_on_c, 0, 61, 80
1, 305118, Note_off_c, 0, 37, 62
1, 305134, Note_off_c, 0, 61, 63
1, 305142, Note_on_c, 0, 64, 77
1, 305167, Note_on_c, 0, 40, 85
1, 305174, Note_on_c, 0, 58, 81
1, 305194, Note_off_c, 0, 64, 61
1, 305225, Note_off_c, 0, 40, 63
1, 305240, Note_off_c, 0, 58, 64
1, 305267, Note_on_c, 0, 43, 90
1, 305317, Note_on_c, 0, 55, 78
1, 305326, Note_off_c, 0, 43, 63
1, 305375, Note_off_c, 0, 55, 62
1, 305380, Note_on_c, 0, 58, 78
1, 305385, Note_on_c, 0, 46, 75
1, 305411, Note_off_c, 0, 46, 66
1, 305418, Note_on_c, 0, 47, 43
1, 305450, Note_on_c, 0, 53, 78
1, 305450, Note_off_c, 0, 47, 35
1, 305472, Note_off_c, 0, 58, 57
1, 305505, Note_on_c, 0, 49, 97
1, 305514, Note_on_c, 0, 55, 77
1, 305522, Note_off_c, 0, 53, 62
1, 305550, Note_off_c, 0, 49, 64
1, 305578, Note_on_c, 0, 58, 84
1, 305578, Note_off_c, 0, 55, 63
1, 305612, Note_on_c, 0, 49, 87
1, 305642, Note_on_c, 0, 55, 77
1, 305657, Note_off_c, 0, 49, 61
1, 305670, Note_off_c, 0, 58, 62
1, 305699, Note_on_c, 0, 53, 80
1, 305708, Note_off_c, 0, 55, 61
1, 305726, Note_on_c, 0, 49, 96
1, 305763, Note_on_c, 0, 50, 47
1, 305772, Note_on_c, 0, 58, 89
1, 305773, Note_off_c, 0, 49, 65
1, 305784, Note_off_c, 0, 53, 64
1, 305794, Note_off_c, 0, 50, 35
1, 305859, Note_on_c, 0, 49, 105
1, 305863, Note_off_c, 0, 58, 62
1, 305900, Note_on_c, 0, 53, 78
1, 305976, Note_on_c, 0, 58, 76
1, 305976, Poly_aftertouch_c, 0, 48, 127
1, 305992, Note_off_c, 0, 53, 63
1, 306046, Note_on_c, 0, 55, 67
1, 306088, Note_off_c, 0, 58, 61
1, 306116, Note_on_c, 0, 53, 72
1, 306141, Poly_aftertouch_c, 0, 48, 0
1, 306141, Note_off_c, 0, 55, 56
1, 306199, Note_on_c, 0, 58, 71
1, 306202, Note_off_c, 0, 53, 63
1, 306265, Note_off_c, 0, 49, 64
1, 306266, Note_on_c, 0, 48, 86
1, 306279, Note_off_c, 0, 58, 61
1, 306319, Note_on_c, 0, 52, 70
1, 306390, Note_off_c, 0, 52, 64
1, 306393, Note_on_c, 0, 58, 72
1, 306451, Note_on_c, 0, 55, 60
1, 306460, Note_off_c, 0, 58, 61
1, 306466, Control_c, 0, 64, 13
1, 306481, Control_c, 0, 64, 49
1, 306494, Note_on_c, 0, 52, 65
1, 306496, Control_c, 0, 64, 61
1, 306510, Note_off_c, 0, 48, 55
1, 306511, Control_c, 0, 64, 69
1, 306526, Control_c, 0, 64, 85
1, 306536, Note_off_c, 0, 55, 63
1, 306540, Control_c, 0, 64, 127
1, 306542, Note_off_c, 0, 52, 64
1, 306544, Note_on_c, 0, 58, 63
1, 306563, Note_off_c, 0, 58, 63
1, 306621, Note_on_c, 0, 41, 90
1, 306628, Note_on_c, 0, 65, 96
1, 306649, Note_on_c, 0, 48, 73
1, 306674, Control_c, 0, 64, 87
1, 306689, Control_c, 0, 64, 68
1, 306693, Note_off_c, 0, 41, 62
1, 306700, Note_on_c, 0, 60, 70
1, 306703, Control_c, 0, 64, 52
1, 306715, Note_off_c, 0, 48, 64
1, 306718, Control_c, 0, 64, 19
1, 306727, Note_on_c, 0, 53, 77
1, 306733, Control_c, 0, 64, 0
1, 306739, Note_on_c, 0, 56, 79
1, 306739, Note_off_c, 0, 65, 52
1, 306764, Note_off_c, 0, 60, 61
1, 306784, Note_off_c, 0, 56, 63
1, 306785, Note_off_c, 0, 53, 61
1, 306805, Note_on_c, 0, 48, 67
1, 306805, Note_on_c, 0, 60, 52
1, 306864, Note_off_c, 0, 48, 62
1, 306868, Note_on_c, 0, 65, 74
1, 306868, Note_off_c, 0, 60, 65
1, 306871, Note_on_c, 0, 41, 70
1, 306894, Note_off_c, 0, 65, 67
1, 306915, Note_off_c, 0, 41, 63
1, 306931, Note_on_c, 0, 48, 58
1, 306934, Note_on_c, 0, 60, 74
1, 306984, Note_off_c, 0, 48, 63
1, 306996, Note_off_c, 0, 60, 65
1, 307005, Note_on_c, 0, 68, 86
1, 307006, Note_on_c, 0, 41, 82
1, 307055, Note_off_c, 0, 41, 61
1, 307067, Note_on_c, 0, 60, 80
1, 307072, Note_on_c, 0, 48, 58
1, 307081, Note_off_c, 0, 68, 61
1, 307103, Note_off_c, 0, 48, 64
1, 307116, Note_off_c, 0, 60, 63
1, 307126, Note_on_c, 0, 41, 75
1, 307126, Note_on_c, 0, 67, 79
1, 307171, Note_off_c, 0, 41, 63
1, 307176, Note_on_c, 0, 48, 69
1, 307188, Note_off_c, 0, 67, 63
1, 307197, Note_on_c, 0, 60, 62
1, 307221, Note_off_c, 0, 48, 61
1, 307231, Note_off_c, 0, 60, 63
1, 307243, Note_on_c, 0, 65, 83
1, 307245, Note_on_c, 0, 41, 75
1, 307279, Note_off_c, 0, 41, 65
1, 307290, Note_off_c, 0, 65, 65
1, 307297, Note_on_c, 0, 60, 77
1, 307312, Note_on_c, 0, 48, 66
1, 307321, Note_off_c, 0, 60, 69
1, 307333, Note_off_c, 0, 48, 63
1, 307334, Control_c, 0, 64, 57
1, 307349, Control_c, 0, 64, 68
1, 307356, Note_on_c, 0, 41, 74
1, 307363, Control_c, 0, 64, 82
1, 307367, Note_on_c, 0, 65, 99
1, 307378, Control_c, 0, 64, 127
1, 307407, Note_on_c, 0, 48, 66
1, 307425, Note_off_c, 0, 41, 63
1, 307436, Note_on_c, 0, 60, 68
1, 307459, Note_off_c, 0, 65, 57
1, 307461, Note_off_c, 0, 48, 63
1, 307473, Note_on_c, 0, 53, 74
1, 307473, Note_on_c, 0, 56, 79
1, 307477, Note_off_c, 0, 60, 66
1, 307491, Poly_aftertouch_c, 0, 45, 0
1, 307511, Note_off_c, 0, 53, 61
1, 307512, Note_off_c, 0, 56, 64
1, 307531, Note_on_c, 0, 48, 63
1, 307556, Control_c, 0, 64, 96
1, 307557, Note_on_c, 0, 60, 77
1, 307571, Control_c, 0, 64, 67
1, 307584, Note_off_c, 0, 48, 64
1, 307586, Control_c, 0, 64, 40
1, 307595, Note_on_c, 0, 41, 71
1, 307596, Note_off_c, 0, 60, 63
1, 307601, Control_c, 0, 64, 0
1, 307607, Note_on_c, 0, 65, 70
1, 307635, Note_off_c, 0, 65, 65
1, 307641, Note_off_c, 0, 41, 62
1, 307660, Note_on_c, 0, 48, 67
1, 307675, Note_on_c, 0, 60, 76
1, 307719, Note_off_c, 0, 48, 62
1, 307737, Note_off_c, 0, 60, 64
1, 307745, Note_on_c, 0, 41, 77
1, 307745, Note_on_c, 0, 68, 84
1, 307785, Note_off_c, 0, 41, 60
1, 307800, Note_on_c, 0, 48, 74
1, 307800, Note_on_c, 0, 60, 73
1, 307814, Note_off_c, 0, 68, 61
1, 307842, Note_off_c, 0, 48, 60
1, 307856, Note_off_c, 0, 60, 65
1, 307867, Note_on_c, 0, 67, 76
1, 307870, Note_on_c, 0, 41, 68
1, 307905, Note_off_c, 0, 41, 65
1, 307923, Note_on_c, 0, 48, 72
1, 307930, Note_off_c, 0, 67, 64
1, 307947, Note_on_c, 0, 60, 68
1, 307961, Note_off_c, 0, 48, 64
1, 307984, Note_on_c, 0, 41, 69
1, 307988, Note_off_c, 0, 60, 66
1, 307989, Note_on_c, 0, 65, 79
1, 308021, Note_off_c, 0, 41, 63
1, 308030, Note_off_c, 0, 65, 63
1, 308053, Control_c, 0, 64, 53
1, 308058, Note_on_c, 0, 48, 61
1, 308068, Control_c, 0, 64, 68
1, 308082, Note_off_c, 0, 48, 62
1, 308083, Control_c, 0, 64, 90
1, 308098, Control_c, 0, 64, 127
1, 308103, Note_on_c, 0, 73, 99
1, 308105, Note_on_c, 0, 41, 75
1, 308158, Note_on_c, 0, 49, 59
1, 308195, Note_off_c, 0, 41, 63
1, 308220, Poly_aftertouch_c, 0, 74, 0
1, 308221, Note_off_c, 0, 49, 64
1, 308228, Note_on_c, 0, 53, 61
1, 308247, Note_on_c, 0, 52, 50
1, 308258, Note_on_c, 0, 65, 70
1, 308269, Note_off_c, 0, 73, 59
1, 308273, Note_off_c, 0, 52, 58
1, 308281, Note_off_c, 0, 53, 61
1, 308296, Note_on_c, 0, 68, 52
1, 308309, Note_on_c, 0, 49, 56
1, 308311, Note_off_c, 0, 65, 61
1, 308329, Note_on_c, 0, 41, 68
1, 308334, Control_c, 0, 64, 81
1, 308345, Note_off_c, 0, 49, 64
1, 308349, Control_c, 0, 64, 63
1, 308359, Note_on_c, 0, 73, 72
1, 308359, Note_off_c, 0, 68, 64
1, 308364, Control_c, 0, 64, 33
1, 308379, Control_c, 0, 64, 0
1, 308382, Note_off_c, 0, 73, 70
1, 308391, Note_off_c, 0, 41, 63
1, 308413, Note_on_c, 0, 68, 78
1, 308423, Note_on_c, 0, 49, 57
1, 308462, Note_off_c, 0, 49, 65
1, 308471, Note_off_c, 0, 68, 64
1, 308476, Note_on_c, 0, 41, 72
1, 308490, Note_on_c, 0, 77, 96
1, 308532, Note_off_c, 0, 41, 62
1, 308537, Note_on_c, 0, 49, 69
1, 308557, Note_on_c, 0, 68, 79
1, 308566, Note_off_c, 0, 77, 60
1, 308580, Note_off_c, 0, 49, 60
1, 308594, Note_off_c, 0, 68, 62
1, 308604, Note_on_c, 0, 41, 72
1, 308611, Note_on_c, 0, 75, 85
1, 308665, Note_off_c, 0, 41, 63
1, 308672, Note_on_c, 0, 68, 78
1, 308680, Note_on_c, 0, 49, 57
1, 308686, Note_off_c, 0, 75, 62
1, 308711, Note_off_c, 0, 49, 64
1, 308730, Note_on_c, 0, 73, 78
1, 308730, Note_off_c, 0, 68, 61
1, 308732, Note_on_c, 0, 41, 70
1, 308784, Note_off_c, 0, 73, 65
1, 308787, Control_c, 0, 64, 25
1, 308794, Note_on_c, 0, 49, 60
1, 308794, Note_off_c, 0, 41, 64
1, 308795, Note_on_c, 0, 68, 72
1, 308802, Control_c, 0, 64, 47
1, 308817, Control_c, 0, 64, 59
1, 308832, Control_c, 0, 64, 65
1, 308844, Note_off_c, 0, 49, 59
1, 308847, Control_c, 0, 64, 72
1, 308851, Note_on_c, 0, 73, 92
1, 308856, Note_on_c, 0, 41, 80
1, 308862, Control_c, 0, 64, 88
1, 308865, Note_off_c, 0, 68, 51
1, 308877, Control_c, 0, 64, 127
1, 308927, Note_on_c, 0, 49, 86
1, 308928, Note_on_c, 0, 68, 67
1, 308936, Note_off_c, 0, 41, 63
1, 308988, Note_on_c, 0, 53, 72
1, 308989, Note_off_c, 0, 49, 63
1, 308996, Note_off_c, 0, 68, 62
1, 308999, Note_on_c, 0, 65, 68
1, 309006, Note_off_c, 0, 73, 37
1, 309035, Note_off_c, 0, 65, 56
1, 309052, Note_on_c, 0, 68, 73
1, 309055, Note_off_c, 0, 53, 62
1, 309067, Note_on_c, 0, 49, 65
1, 309084, Control_c, 0, 64, 84
1, 309099, Control_c, 0, 64, 54
1, 309107, Note_off_c, 0, 49, 62
1, 309108, Note_on_c, 0, 73, 77
1, 309109, Note_off_c, 0, 68, 64
1, 309110, Note_on_c, 0, 41, 76
1, 309114, Control_c, 0, 64, 0
1, 309142, Note_off_c, 0, 73, 66
1, 309170, Note_on_c, 0, 68, 82
1, 309175, Note_off_c, 0, 41, 65
1, 309181, Note_on_c, 0, 49, 75
1, 309230, Note_off_c, 0, 68, 63
1, 309246, Note_off_c, 0, 49, 63
1, 309247, Note_on_c, 0, 41, 78
1, 309251, Note_on_c, 0, 77, 100
1, 309311, Note_on_c, 0, 49, 78
1, 309315, Note_off_c, 0, 41, 65
1, 309318, Note_on_c, 0, 68, 88
1, 309327, Note_off_c, 0, 77, 61
1, 309373, Note_off_c, 0, 68, 62
1, 309382, Note_off_c, 0, 49, 63
1, 309383, Note_on_c, 0, 41, 77
1, 309391, Note_on_c, 0, 75, 88
1, 309419, Control_c, 0, 64, 49
1, 309434, Control_c, 0, 64, 61
1, 309448, Control_c, 0, 64, 67
1, 309450, Note_on_c, 0, 49, 77
1, 309456, Note_on_c, 0, 68, 79
1, 309458, Note_off_c, 0, 41, 63
1, 309463, Control_c, 0, 64, 76
1, 309468, Note_off_c, 0, 75, 62
1, 309478, Control_c, 0, 64, 102
1, 309492, Control_c, 0, 64, 127
1, 309511, Note_off_c, 0, 68, 58
1, 309517, Note_on_c, 0, 73, 87
1, 309529, Note_off_c, 0, 49, 61
1, 309529, Note_on_c, 0, 41, 79
1, 309557, Note_on_c, 0, 49, 55
1, 309586, Note_off_c, 0, 41, 64
1, 309595, Note_on_c, 0, 68, 86
1, 309598, Note_off_c, 0, 73, 63
1, 309622, Note_off_c, 0, 49, 64
1, 309640, Note_off_c, 0, 68, 62
1, 309724, Note_on_c, 0, 54, 112
1, 309729, Note_on_c, 0, 42, 98
1, 309731, Note_on_c, 0, 82, 88
1, 309757, Note_on_c, 0, 44, 48
1, 309758, Note_off_c, 0, 44, 127
1, 309774, Control_c, 0, 64, 78
1, 309789, Control_c, 0, 64, 59
1, 309789, Poly_aftertouch_c, 0, 44, 0
1, 309804, Control_c, 0, 64, 0
1, 309807, Note_off_c, 0, 82, 64
1, 309809, Note_on_c, 0, 85, 80
1, 309880, Note_off_c, 0, 85, 65
1, 309883, Note_on_c, 0, 82, 81
1, 309945, Note_on_c, 0, 85, 80
1, 309947, Note_off_c, 0, 82, 65
1, 310012, Note_on_c, 0, 82, 77
1, 310015, Note_off_c, 0, 85, 66
1, 310072, Note_off_c, 0, 82, 65
1, 310074, Note_on_c, 0, 85, 76
1, 310131, Note_on_c, 0, 82, 81
1, 310138, Note_off_c, 0, 85, 65
1, 310195, Note_on_c, 0, 85, 75
1, 310196, Note_off_c, 0, 82, 66
1, 310242, Control_c, 0, 64, 46
1, 310253, Note_on_c, 0, 82, 83
1, 310257, Control_c, 0, 64, 59
1, 310265, Note_off_c, 0, 85, 66
1, 310271, Control_c, 0, 64, 67
1, 310286, Control_c, 0, 64, 74
1, 310301, Control_c, 0, 64, 85
1, 310310, Note_on_c, 0, 85, 74
1, 310314, Control_c, 0, 64, 105
1, 310316, Note_off_c, 0, 82, 65
1, 310329, Control_c, 0, 64, 127
1, 310365, Note_on_c, 0, 82, 76
1, 310385, Note_off_c, 0, 85, 64
1, 310417, Note_off_c, 0, 82, 66
1, 310424, Note_on_c, 0, 85, 71
1, 310444, Note_off_c, 0, 42, 61
1, 310484, Note_off_c, 0, 54, 58
1, 310487, Note_on_c, 0, 82, 81
1, 310490, Note_off_c, 0, 85, 65
1, 310543, Note_off_c, 0, 82, 64
1, 310543, Note_on_c, 0, 85, 77
1, 310608, Note_on_c, 0, 82, 70
1, 310609, Note_off_c, 0, 85, 64
1, 310658, Note_on_c, 0, 85, 78
1, 310663, Note_off_c, 0, 82, 65
1, 310738, Note_on_c, 0, 82, 79
1, 310739, Note_off_c, 0, 85, 65
1, 310796, Note_on_c, 0, 85, 78
1, 310796, Note_off_c, 0, 82, 66
1, 310842, Note_on_c, 0, 55, 97
1, 310847, Note_on_c, 0, 43, 88
1, 310868, Note_on_c, 0, 82, 86
1, 310868, Note_off_c, 0, 85, 65
1, 310870, Control_c, 0, 64, 104
1, 310874, Note_off_c, 0, 43, 65
1, 310877, Note_off_c, 0, 55, 67
1, 310885, Control_c, 0, 64, 77
1, 310900, Control_c, 0, 64, 62
1, 310915, Control_c, 0, 64, 33
1, 310929, Note_off_c, 0, 82, 66
1, 310930, Control_c, 0, 64, 0
1, 310930, Note_on_c, 0, 85, 71
1, 310964, Note_on_c, 0, 58, 96
1, 310970, Note_on_c, 0, 46, 86
1, 310993, Note_on_c, 0, 82, 82
1, 310996, Note_off_c, 0, 58, 62
1, 310999, Note_off_c, 0, 85, 63
1, 311002, Note_off_c, 0, 46, 66
1, 311060, Note_on_c, 0, 85, 78
1, 311061, Note_off_c, 0, 82, 66
1, 311081, Note_on_c, 0, 61, 100
1, 311082, Note_on_c, 0, 49, 72
1, 311116, Note_on_c, 0, 48, 45
1, 311121, Note_off_c, 0, 61, 64
1, 311133, Note_on_c, 0, 82, 78
1, 311133, Note_off_c, 0, 49, 62
1, 311136, Note_off_c, 0, 85, 64
1, 311148, Note_off_c, 0, 48, 35
1, 311200, Note_on_c, 0, 85, 77
1, 311200, Note_off_c, 0, 82, 66
1, 311202, Note_on_c, 0, 64, 95
1, 311205, Note_on_c, 0, 52, 88
1, 311230, Note_off_c, 0, 52, 69
1, 311237, Note_off_c, 0, 64, 65
1, 311270, Note_on_c, 0, 82, 78
1, 311312, Note_on_c, 0, 67, 87
1, 311315, Note_on_c, 0, 55, 77
1, 311337, Note_on_c, 0, 79, 74
1, 311339, Note_off_c, 0, 55, 66
1, 311343, Note_off_c, 0, 67, 66
1, 311345, Note_off_c, 0, 85, 58
1, 311365, Note_off_c, 0, 82, 64
1, 311416, Note_off_c, 0, 79, 66
1, 311420, Note_on_c, 0, 70, 98
1, 311422, Note_on_c, 0, 77, 72
1, 311428, Note_on_c, 0, 58, 82
1, 311464, Note_off_c, 0, 70, 65
1, 311466, Note_off_c, 0, 58, 64
1, 311504, Note_off_c, 0, 77, 63
1, 311513, Note_on_c, 0, 79, 73
1, 311547, Note_on_c, 0, 73, 95
1, 311555, Note_on_c, 0, 61, 83
1, 311570, Note_off_c, 0, 79, 62
1, 311574, Note_on_c, 0, 77, 77
1, 311583, Note_off_c, 0, 61, 61
1, 311585, Note_off_c, 0, 73, 64
1, 311630, Note_on_c, 0, 79, 75
1, 311640, Note_off_c, 0, 77, 63
1, 311658, Note_on_c, 0, 73, 97
1, 311665, Note_on_c, 0, 61, 82
1, 311688, Note_off_c, 0, 79, 66
1, 311690, Note_on_c, 0, 82, 87
1, 311702, Note_off_c, 0, 73, 66
1, 311714, Note_off_c, 0, 61, 58
1, 311755, Note_on_c, 0, 79, 85
1, 311785, Note_on_c, 0, 73, 94
1, 311785, Note_off_c, 0, 82, 65
1, 311801, Note_on_c, 0, 77, 85
1, 311804, Note_on_c, 0, 61, 67
1, 311834, Note_off_c, 0, 61, 65
1, 311834, Note_off_c, 0, 73, 65
1, 311834, Note_off_c, 0, 79, 58
1, 311871, Note_on_c, 0, 82, 93
1, 311883, Note_off_c, 0, 77, 64
1, 311903, Note_on_c, 0, 73, 108
1, 311911, Note_on_c, 0, 61, 81
1, 311946, Note_off_c, 0, 82, 64
1, 311984, Note_on_c, 0, 77, 81
1, 312034, Control_c, 0, 64, 51
1, 312048, Note_on_c, 0, 82, 81
1, 312049, Control_c, 0, 64, 67
1, 312060, Note_off_c, 0, 77, 63
1, 312064, Control_c, 0, 64, 86
1, 312078, Control_c, 0, 64, 127
1, 312122, Note_on_c, 0, 79, 74
1, 312132, Note_off_c, 0, 82, 64
1, 312153, Note_off_c, 0, 61, 60
1, 312160, Note_off_c, 0, 73, 60
1, 312167, Note_on_c, 0, 77, 75
1, 312232, Note_off_c, 0, 79, 52
1, 312252, Note_off_c, 0, 77, 64
1, 312253, Note_on_c, 0, 82, 65
1, 312279, Control_c, 0, 64, 96
1, 312293, Control_c, 0, 64, 73
1, 312308, Control_c, 0, 64, 55
1, 312312, Note_on_c, 0, 72, 77
1, 312321, Note_off_c, 0, 82, 60
1, 312323, Note_on_c, 0, 60, 62
1, 312323, Control_c, 0, 64, 0
1, 312382, Control_c, 0, 64, 35
1, 312391, Note_on_c, 0, 76, 62
1, 312397, Control_c, 0, 64, 55
1, 312412, Control_c, 0, 64, 65
1, 312427, Control_c, 0, 64, 73
1, 312442, Control_c, 0, 64, 87
1, 312446, Note_off_c, 0, 76, 61
1, 312448, Note_on_c, 0, 82, 59
1, 312457, Control_c, 0, 64, 127
1, 312507, Note_on_c, 0, 79, 67
1, 312529, Note_off_c, 0, 82, 62
1, 312531, Note_off_c, 0, 72, 62
1, 312576, Note_on_c, 0, 76, 64
1, 312621, Note_off_c, 0, 79, 59
1, 312625, Note_off_c, 0, 76, 64
1, 312638, Note_on_c, 0, 82, 65
1, 312665, Control_c, 0, 64, 107
1, 312680, Control_c, 0, 64, 85
1, 312690, Note_on_c, 0, 65, 86
1, 312695, Control_c, 0, 64, 65
1, 312704, Note_off_c, 0, 60, 24
1, 312710, Control_c, 0, 64, 31
1, 312712, Note_off_c, 0, 82, 57
1, 312725, Control_c, 0, 64, 0
1, 312770, Note_on_c, 0, 73, 69
1, 312827, Note_on_c, 0, 82, 62
1, 312829, Control_c, 0, 64, 49
1, 312830, Note_off_c, 0, 73, 62
1, 312844, Control_c, 0, 64, 63
1, 312858, Control_c, 0, 64, 71
1, 312873, Control_c, 0, 64, 86
1, 312880, Note_on_c, 0, 79, 69
1, 312888, Control_c, 0, 64, 127
1, 312892, Note_off_c, 0, 65, 60
1, 312931, Note_off_c, 0, 82, 59
1, 312957, Note_on_c, 0, 73, 65
1, 313015, Note_off_c, 0, 79, 57
1, 313026, Note_off_c, 0, 73, 63
1, 313026, Note_on_c, 0, 82, 75
1, 313070, Note_on_c, 0, 64, 85
1, 313088, Control_c, 0, 64, 88
1, 313103, Control_c, 0, 64, 66
1, 313105, Note_off_c, 0, 82, 63
1, 313117, Control_c, 0, 64, 32
1, 313132, Control_c, 0, 64, 0
1, 313144, Note_on_c, 0, 72, 80
1, 313191, Control_c, 0, 64, 50
1, 313206, Control_c, 0, 64, 63
1, 313208, Note_off_c, 0, 72, 62
1, 313210, Note_on_c, 0, 82, 84
1, 313221, Control_c, 0, 64, 71
1, 313236, Control_c, 0, 64, 87
1, 313251, Control_c, 0, 64, 127
1, 313256, Note_off_c, 0, 64, 63
1, 313272, Note_on_c, 0, 79, 83
1, 313313, Note_off_c, 0, 82, 63
1, 313316, Note_on_c, 0, 72, 85
1, 313377, Note_off_c, 0, 72, 64
1, 313394, Note_on_c, 0, 82, 90
1, 313405, Note_off_c, 0, 79, 63
1, 313437, Note_on_c, 0, 73, 104
1, 313444, Control_c, 0, 64, 97
1, 313459, Control_c, 0, 64, 70
1, 313474, Control_c, 0, 64, 43
1, 313488, Control_c, 0, 64, 0
1, 313492, Note_off_c, 0, 82, 60
1, 313521, Note_on_c, 0, 77, 81
1, 313587, Note_on_c, 0, 82, 78
1, 313587, Note_off_c, 0, 77, 64
1, 313592, Control_c, 0, 64, 46
1, 313607, Control_c, 0, 64, 60
1, 313622, Control_c, 0, 64, 68
1, 313637, Control_c, 0, 64, 76
1, 313643, Note_on_c, 0, 79, 68
1, 313652, Control_c, 0, 64, 89
1, 313667, Control_c, 0, 64, 115
1, 313674, Note_off_c, 0, 82, 63
1, 313681, Control_c, 0, 64, 127
1, 313686, Note_on_c, 0, 77, 80
1, 313746, Note_off_c, 0, 79, 56
1, 313765, Note_on_c, 0, 82, 75
1, 313768, Note_off_c, 0, 77, 62
1, 313822, Note_off_c, 0, 73, 62
1, 313822, Control_c, 0, 64, 94
1, 313833, Note_on_c, 0, 72, 95
1, 313835, Note_off_c, 0, 82, 62
1, 313837, Control_c, 0, 64, 67
1, 313851, Control_c, 0, 64, 24
1, 313866, Control_c, 0, 64, 0
1, 313870, Note_on_c, 0, 76, 74
1, 313938, Note_on_c, 0, 82, 80
1, 313940, Control_c, 0, 64, 34
1, 313941, Note_off_c, 0, 76, 64
1, 313952, Note_off_c, 0, 72, 64
1, 313955, Control_c, 0, 64, 59
1, 313970, Control_c, 0, 64, 69
1, 313985, Control_c, 0, 64, 86
1, 313995, Note_on_c, 0, 79, 73
1, 314000, Control_c, 0, 64, 127
1, 314025, Note_off_c, 0, 82, 64
1, 314031, Note_on_c, 0, 76, 77
1, 314094, Note_on_c, 0, 82, 81
1, 314096, Note_off_c, 0, 76, 61
1, 314102, Note_off_c, 0, 79, 65
1, 314139, Note_off_c, 0, 82, 68
1, 314162, Control_c, 0, 64, 90
1, 314176, Note_on_c, 0, 71, 84
1, 314177, Control_c, 0, 64, 49
1, 314191, Control_c, 0, 64, 0
1, 314224, Note_on_c, 0, 74, 67
1, 314266, Control_c, 0, 64, 51
1, 314275, Note_on_c, 0, 77, 79
1, 314281, Control_c, 0, 64, 66
1, 314296, Control_c, 0, 64, 81
1, 314310, Control_c, 0, 64, 127
1, 314346, Note_on_c, 0, 80, 88
1, 314384, Note_on_c, 0, 83, 76
1, 314461, Note_on_c, 0, 86, 76
1, 314475, Note_off_c, 0, 83, 62
1, 314511, Note_on_c, 0, 89, 85
1, 314523, Note_off_c, 0, 86, 62
1, 314577, Note_on_c, 0, 86, 75
1, 314588, Note_off_c, 0, 89, 63
1, 314628, Note_off_c, 0, 86, 65
1, 314632, Note_on_c, 0, 83, 80
1, 314652, Note_off_c, 0, 71, 54
1, 314677, Note_off_c, 0, 83, 66
1, 314695, Note_on_c, 0, 92, 84
1, 314699, Note_off_c, 0, 80, 61
1, 314747, Note_off_c, 0, 74, 53
1, 314759, Note_on_c, 0, 91, 86
1, 314809, Note_on_c, 0, 89, 87
1, 314816, Note_off_c, 0, 92, 65
1, 314835, Note_off_c, 0, 91, 66
1, 314864, Note_off_c, 0, 77, 64
1, 314867, Note_on_c, 0, 72, 87
1, 314867, Note_on_c, 0, 88, 82
1, 314879, Note_off_c, 0, 89, 63
1, 314895, Control_c, 0, 64, 95
1, 314911, Control_c, 0, 64, 70
1, 314925, Control_c, 0, 64, 42
1, 314927, Note_on_c, 0, 76, 80
1, 314931, Note_off_c, 0, 88, 65
1, 314937, Note_on_c, 0, 74, 25
1, 314940, Control_c, 0, 64, 0
1, 314943, Note_on_c, 0, 91, 84
1, 314966, Note_off_c, 0, 74, 52
1, 314989, Note_on_c, 0, 89, 80
1, 315008, Note_on_c, 0, 79, 72
1, 315029, Control_c, 0, 64, 15
1, 315044, Note_on_c, 0, 88, 76
1, 315044, Control_c, 0, 64, 46
1, 315054, Note_off_c, 0, 91, 61
1, 315059, Control_c, 0, 64, 60
1, 315074, Control_c, 0, 64, 65
1, 315089, Control_c, 0, 64, 67
1, 315098, Note_on_c, 0, 85, 80
1, 315108, Note_off_c, 0, 89, 62
1, 315119, Note_off_c, 0, 88, 64
1, 315148, Control_c, 0, 64, 69
1, 315154, Note_off_c, 0, 85, 65
1, 315163, Control_c, 0, 64, 73
1, 315166, Note_on_c, 0, 84, 72
1, 315177, Note_off_c, 0, 79, 64
1, 315177, Control_c, 0, 64, 81
1, 315192, Control_c, 0, 64, 100
1, 315214, Control_c, 0, 64, 127
1, 315232, Note_off_c, 0, 76, 61
1, 315243, Note_on_c, 0, 82, 77
1, 315245, Note_off_c, 0, 84, 62
1, 315249, Note_off_c, 0, 72, 58
1, 315300, Note_off_c, 0, 82, 63
1, 315306, Note_on_c, 0, 85, 69
1, 315369, Note_on_c, 0, 84, 74
1, 315371, Note_off_c, 0, 85, 64
1, 315418, Note_on_c, 0, 82, 67
1, 315443, Note_off_c, 0, 84, 62
1, 315468, Note_off_c, 0, 82, 63
1, 315470, Note_on_c, 0, 80, 59
1, 315481, Control_c, 0, 64, 108
1, 315496, Control_c, 0, 64, 84
1, 315510, Control_c, 0, 64, 70
1, 315525, Control_c, 0, 64, 59
1, 315532, Note_on_c, 0, 79, 61
1, 315540, Control_c, 0, 64, 38
1, 315542, Note_off_c, 0, 80, 63
1, 315555, Control_c, 0, 64, 0
1, 315575, Note_off_c, 0, 79, 63
1, 315634, Note_on_c, 0, 65, 46
1, 315638, Note_on_c, 0, 68, 44
1, 315709, Note_on_c, 0, 77, 57
1, 315719, Control_c, 0, 67, 24
1, 315733, Control_c, 0, 67, 41
1, 315748, Control_c, 0, 67, 56
1, 315759, Note_off_c, 0, 77, 57
1, 315761, Note_on_c, 0, 80, 53
1, 315763, Control_c, 0, 67, 68
1, 315778, Control_c, 0, 67, 75
1, 315793, Control_c, 0, 67, 75
1, 315822, Note_on_c, 0, 84, 52
1, 315822, Note_off_c, 0, 80, 59
1, 315837, Control_c, 0, 67, 75
1, 315852, Control_c, 0, 67, 73
1, 315867, Control_c, 0, 64, 29
1, 315867, Control_c, 0, 67, 71
1, 315882, Control_c, 0, 64, 48
1, 315882, Control_c, 0, 67, 69
1, 315883, Note_on_c, 0, 89, 66
1, 315887, Note_off_c, 0, 84, 62
1, 315897, Control_c, 0, 64, 57
1, 315897, Control_c, 0, 67, 68
1, 315911, Control_c, 0, 64, 61
1, 315926, Control_c, 0, 64, 63
1, 315926, Control_c, 0, 67, 67
1, 315941, Control_c, 0, 67, 66
1, 315959, Note_on_c, 0, 77, 54
1, 315963, Control_c, 0, 64, 63
1, 315963, Control_c, 0, 67, 65
1, 315966, Note_off_c, 0, 89, 61
1, 315978, Control_c, 0, 64, 62
1, 315978, Control_c, 0, 67, 63
1, 315990, Note_off_c, 0, 77, 59
1, 315993, Control_c, 0, 64, 62
1, 315993, Control_c, 0, 67, 61
1, 316007, Control_c, 0, 64, 60
1, 316016, Note_off_c, 0, 65, 39
1, 316022, Control_c, 0, 64, 58
1, 316022, Control_c, 0, 67, 61
1, 316023, Note_on_c, 0, 73, 52
1, 316035, Note_on_c, 0, 70, 43
1, 316036, Note_off_c, 0, 68, 54
1, 316037, Control_c, 0, 64, 52
1, 316037, Control_c, 0, 67, 60
1, 316052, Control_c, 0, 64, 34
1, 316052, Control_c, 0, 67, 60
1, 316067, Control_c, 0, 64, 0
1, 316067, Control_c, 0, 67, 59
1, 316081, Control_c, 0, 67, 57
1, 316096, Control_c, 0, 67, 56
1, 316111, Control_c, 0, 67, 54
1, 316126, Control_c, 0, 67, 52
1, 316141, Control_c, 0, 67, 50
1, 316156, Control_c, 0, 67, 50
1, 316171, Control_c, 0, 64, 17
1, 316171, Control_c, 0, 67, 48
1, 316186, Control_c, 0, 64, 42
1, 316186, Control_c, 0, 67, 48
1, 316200, Control_c, 0, 64, 56
1, 316200, Control_c, 0, 67, 46
1, 316215, Control_c, 0, 64, 62
1, 316215, Control_c, 0, 67, 45
1, 316230, Control_c, 0, 64, 66
1, 316230, Control_c, 0, 67, 41
1, 316240, Note_on_c, 0, 89, 51
1, 316245, Control_c, 0, 64, 69
1, 316245, Control_c, 0, 67, 38
1, 316260, Control_c, 0, 64, 72
1, 316260, Control_c, 0, 67, 35
1, 316266, Note_off_c, 0, 89, 55
1, 316274, Control_c, 0, 64, 74
1, 316274, Control_c, 0, 67, 34
1, 316275, Note_off_c, 0, 73, 37
1, 316289, Note_on_c, 0, 77, 59
1, 316289, Control_c, 0, 64, 76
1, 316289, Control_c, 0, 67, 32
1, 316304, Control_c, 0, 64, 77
1, 316304, Control_c, 0, 67, 31
1, 316319, Control_c, 0, 67, 30
1, 316328, Note_off_c, 0, 77, 61
1, 316333, Control_c, 0, 67, 29
1, 316344, Note_off_c, 0, 70, 37
1, 316346, Note_on_c, 0, 89, 68
1, 316348, Control_c, 0, 64, 76
1, 316348, Control_c, 0, 67, 29
1, 316363, Control_c, 0, 64, 75
1, 316363, Control_c, 0, 67, 28
1, 316378, Control_c, 0, 64, 73
1, 316378, Control_c, 0, 67, 25
1, 316393, Control_c, 0, 64, 69
1, 316393, Control_c, 0, 67, 20
1, 316402, Note_off_c, 0, 89, 57
1, 316407, Control_c, 0, 64, 63
1, 316407, Control_c, 0, 67, 14
1, 316413, Note_on_c, 0, 72, 61
1, 316418, Note_on_c, 0, 68, 57
1, 316422, Control_c, 0, 64, 41
1, 316422, Control_c, 0, 67, 9
1, 316437, Control_c, 0, 64, 0
1, 316437, Control_c, 0, 67, 0
1, 316527, Control_c, 0, 64, 12
1, 316541, Control_c, 0, 64, 43
1, 316556, Control_c, 0, 64, 57
1, 316571, Control_c, 0, 64, 63
1, 316586, Control_c, 0, 64, 66
1, 316601, Control_c, 0, 64, 69
1, 316616, Control_c, 0, 64, 72
1, 316618, Note_on_c, 0, 89, 72
1, 316630, Control_c, 0, 64, 74
1, 316645, Note_off_c, 0, 68, 56
1, 316645, Control_c, 0, 64, 77
1, 316652, Note_off_c, 0, 89, 59
1, 316660, Control_c, 0, 64, 79
1, 316663, Note_off_c, 0, 72, 54
1, 316667, Note_on_c, 0, 77, 68
1, 316675, Control_c, 0, 64, 79
1, 316712, Control_c, 0, 64, 79
1, 316719, Note_off_c, 0, 77, 55
1, 316727, Control_c, 0, 64, 78
1, 316736, Note_on_c, 0, 89, 74
1, 316742, Control_c, 0, 64, 77
1, 316756, Control_c, 0, 64, 76
1, 316771, Control_c, 0, 64, 72
1, 316778, Note_off_c, 0, 89, 58
1, 316786, Control_c, 0, 64, 65
1, 316801, Control_c, 0, 64, 46
1, 316816, Control_c, 0, 64, 0
1, 316819, Note_on_c, 0, 72, 51
1, 316823, Note_on_c, 0, 70, 48
1, 316824, Note_on_c, 0, 67, 54
1, 316919, Control_c, 0, 64, 23
1, 316934, Control_c, 0, 64, 46
1, 316949, Control_c, 0, 64, 58
1, 316964, Control_c, 0, 64, 63
1, 316979, Control_c, 0, 64, 67
1, 316994, Control_c, 0, 64, 69
1, 317008, Control_c, 0, 64, 72
1, 317011, Note_off_c, 0, 67, 37
1, 317020, Note_on_c, 0, 88, 57
1, 317023, Control_c, 0, 64, 74
1, 317038, Control_c, 0, 64, 76
1, 317053, Control_c, 0, 64, 77
1, 317053, Note_off_c, 0, 88, 62
1, 317065, Note_off_c, 0, 70, 53
1, 317071, Note_on_c, 0, 76, 59
1, 317097, Control_c, 0, 64, 76
1, 317107, Note_off_c, 0, 76, 65
1, 317112, Control_c, 0, 64, 75
1, 317127, Control_c, 0, 64, 73
1, 317142, Control_c, 0, 64, 70
1, 317149, Note_on_c, 0, 88, 50
1, 317156, Control_c, 0, 64, 65
1, 317171, Control_c, 0, 64, 53
1, 317186, Control_c, 0, 64, 0
1, 317188, Note_off_c, 0, 88, 64
1, 317214, Note_on_c, 0, 65, 48
1, 317216, Control_c, 0, 67, 11
1, 317220, Note_on_c, 0, 68, 49
1, 317230, Control_c, 0, 67, 23
1, 317245, Control_c, 0, 67, 31
1, 317260, Control_c, 0, 67, 33
1, 317274, Control_c, 0, 67, 33
1, 317289, Control_c, 0, 67, 31
1, 317296, Note_off_c, 0, 72, 64
1, 317299, Note_on_c, 0, 77, 54
1, 317306, Control_c, 0, 64, 31
1, 317306, Control_c, 0, 67, 29
1, 317320, Control_c, 0, 64, 51
1, 317320, Control_c, 0, 67, 28
1, 317324, Note_off_c, 0, 68, 63
1, 317332, Note_off_c, 0, 65, 63
1, 317335, Control_c, 0, 64, 61
1, 317335, Control_c, 0, 67, 26
1, 317347, Note_on_c, 0, 80, 64
1, 317347, Note_off_c, 0, 77, 58
1, 317350, Control_c, 0, 64, 65
1, 317350, Control_c, 0, 67, 24
1, 317365, Control_c, 0, 64, 68
1, 317365, Control_c, 0, 67, 21
1, 317379, Control_c, 0, 64, 70
1, 317379, Control_c, 0, 67, 18
1, 317394, Control_c, 0, 64, 72
1, 317394, Control_c, 0, 67, 14
1, 317407, Note_off_c, 0, 80, 62
1, 317409, Control_c, 0, 64, 73
1, 317409, Control_c, 0, 67, 13
1, 317414, Note_on_c, 0, 84, 57
1, 317424, Control_c, 0, 64, 75
1, 317424, Control_c, 0, 67, 12
1, 317446, Control_c, 0, 64, 76
1, 317446, Control_c, 0, 67, 11
1, 317460, Note_on_c, 0, 89, 69
1, 317461, Control_c, 0, 64, 77
1, 317476, Control_c, 0, 67, 11
1, 317484, Note_off_c, 0, 84, 57
1, 317491, Control_c, 0, 67, 10
1, 317506, Control_c, 0, 64, 76
1, 317506, Control_c, 0, 67, 9
1, 317507, Note_off_c, 0, 89, 64
1, 317520, Note_on_c, 0, 77, 69
1, 317520, Control_c, 0, 64, 75
1, 317520, Control_c, 0, 67, 8
1, 317535, Control_c, 0, 64, 74
1, 317535, Control_c, 0, 67, 8
1, 317550, Control_c, 0, 64, 73
1, 317550, Control_c, 0, 67, 0
1, 317551, Note_off_c, 0, 77, 66
1, 317565, Control_c, 0, 64, 71
1, 317579, Control_c, 0, 64, 68
1, 317587, Note_on_c, 0, 61, 61
1, 317594, Control_c, 0, 64, 63
1, 317605, Note_on_c, 0, 58, 51
1, 317609, Control_c, 0, 64, 54
1, 317624, Control_c, 0, 64, 38
1, 317639, Control_c, 0, 64, 9
1, 317653, Control_c, 0, 64, 0
1, 317818, Note_on_c, 0, 77, 62
1, 317853, Note_off_c, 0, 77, 63
1, 317869, Note_on_c, 0, 65, 60
1, 317915, Note_off_c, 0, 65, 57
1, 317927, Note_on_c, 0, 77, 75
1, 317965, Note_off_c, 0, 77, 62
1, 317986, Note_on_c, 0, 60, 66
1, 317988, Note_on_c, 0, 56, 64
1, 317994, Note_off_c, 0, 61, 56
1, 318004, Note_off_c, 0, 58, 57
1, 318114, Control_c, 0, 64, 27
1, 318128, Control_c, 0, 64, 47
1, 318143, Control_c, 0, 64, 58
1, 318158, Control_c, 0, 64, 63
1, 318173, Control_c, 0, 64, 66
1, 318177, Note_off_c, 0, 60, 64
1, 318195, Control_c, 0, 64, 70
1, 318205, Note_on_c, 0, 77, 67
1, 318210, Control_c, 0, 64, 73
1, 318225, Control_c, 0, 64, 76
1, 318236, Note_off_c, 0, 56, 62
1, 318237, Note_off_c, 0, 77, 64
1, 318240, Control_c, 0, 64, 79
1, 318249, Note_on_c, 0, 65, 69
1, 318254, Control_c, 0, 64, 82
1, 318269, Control_c, 0, 64, 85
1, 318284, Control_c, 0, 64, 86
1, 318288, Note_off_c, 0, 65, 60
1, 318310, Note_on_c, 0, 77, 84
1, 318314, Control_c, 0, 64, 85
1, 318328, Control_c, 0, 64, 84
1, 318343, Control_c, 0, 64, 83
1, 318358, Control_c, 0, 64, 81
1, 318365, Note_off_c, 0, 77, 61
1, 318373, Control_c, 0, 64, 78
1, 318388, Control_c, 0, 64, 75
1, 318399, Note_on_c, 0, 60, 78
1, 318401, Note_on_c, 0, 55, 63
1, 318401, Note_on_c, 0, 58, 69
1, 318402, Control_c, 0, 64, 69
1, 318417, Control_c, 0, 64, 61
1, 318432, Control_c, 0, 64, 36
1, 318447, Control_c, 0, 64, 0
1, 318565, Control_c, 0, 64, 19
1, 318580, Control_c, 0, 64, 45
1, 318594, Control_c, 0, 64, 57
1, 318609, Control_c, 0, 64, 63
1, 318615, Note_on_c, 0, 76, 57
1, 318624, Control_c, 0, 64, 67
1, 318639, Control_c, 0, 64, 70
1, 318654, Control_c, 0, 64, 74
1, 318658, Note_off_c, 0, 76, 63
1, 318661, Note_off_c, 0, 55, 57
1, 318669, Control_c, 0, 64, 76
1, 318670, Note_on_c, 0, 64, 51
1, 318684, Control_c, 0, 64, 77
1, 318699, Control_c, 0, 64, 77
1, 318714, Note_off_c, 0, 64, 64
1, 318714, Control_c, 0, 64, 75
1, 318728, Control_c, 0, 64, 72
1, 318737, Note_on_c, 0, 76, 64
1, 318743, Control_c, 0, 64, 66
1, 318758, Control_c, 0, 64, 56
1, 318769, Note_off_c, 0, 76, 65
1, 318770, Note_off_c, 0, 58, 38
1, 318773, Control_c, 0, 64, 20
1, 318788, Control_c, 0, 64, 0
1, 318814, Note_on_c, 0, 53, 52
1, 318819, Note_on_c, 0, 56, 54
1, 318901, Note_on_c, 0, 77, 64
1, 318907, Control_c, 0, 64, 30
1, 318912, Note_off_c, 0, 60, 62
1, 318922, Control_c, 0, 64, 49
1, 318937, Control_c, 0, 64, 60
1, 318950, Note_off_c, 0, 56, 64
1, 318958, Control_c, 0, 64, 63
1, 318959, Note_off_c, 0, 53, 64
1, 318961, Note_on_c, 0, 80, 60
1, 318964, Note_off_c, 0, 77, 53
1, 318973, Control_c, 0, 64, 65
1, 318988, Control_c, 0, 64, 66
1, 319003, Control_c, 0, 64, 66
1, 319017, Note_on_c, 0, 84, 65
1, 319018, Control_c, 0, 64, 67
1, 319028, Note_off_c, 0, 80, 63
1, 319047, Control_c, 0, 64, 67
1, 319080, Note_on_c, 0, 89, 67
1, 319085, Note_off_c, 0, 84, 63
1, 319137, Control_c, 0, 64, 67
1, 319139, Note_on_c, 0, 77, 61
1, 319143, Note_off_c, 0, 89, 62
1, 319151, Control_c, 0, 64, 66
1, 319166, Control_c, 0, 64, 65
1, 319170, Note_off_c, 0, 77, 65
1, 319181, Control_c, 0, 64, 64
1, 319181, Control_c, 0, 67, 14
1, 319196, Control_c, 0, 64, 62
1, 319196, Control_c, 0, 67, 24
1, 319203, Note_on_c, 0, 49, 62
1, 319211, Control_c, 0, 64, 57
1, 319211, Control_c, 0, 67, 31
1, 319214, Note_on_c, 0, 46, 61
1, 319225, Control_c, 0, 64, 49
1, 319225, Control_c, 0, 67, 35
1, 319240, Control_c, 0, 64, 40
1, 319240, Control_c, 0, 67, 35
1, 319255, Control_c, 0, 64, 34
1, 319270, Control_c, 0, 64, 30
1, 319285, Control_c, 0, 64, 23
1, 319299, Control_c, 0, 64, 0
1, 319314, Control_c, 0, 67, 35
1, 319329, Control_c, 0, 67, 34
1, 319343, Control_c, 0, 67, 33
1, 319358, Control_c, 0, 67, 32
1, 319373, Control_c, 0, 67, 31
1, 319388, Control_c, 0, 67, 29
1, 319403, Control_c, 0, 67, 28
1, 319417, Control_c, 0, 67, 26
1, 319432, Control_c, 0, 67, 24
1, 319439, Note_on_c, 0, 89, 73
1, 319447, Control_c, 0, 67, 21
1, 319462, Control_c, 0, 67, 19
1, 319475, Note_off_c, 0, 89, 59
1, 319477, Control_c, 0, 67, 16
1, 319487, Note_on_c, 0, 77, 65
1, 319492, Control_c, 0, 67, 14
1, 319506, Control_c, 0, 67, 11
1, 319521, Control_c, 0, 67, 8
1, 319526, Note_off_c, 0, 77, 63
1, 319536, Control_c, 0, 67, 0
1, 319548, Note_on_c, 0, 89, 82
1, 319599, Note_off_c, 0, 89, 62
1, 319608, Note_on_c, 0, 48, 67
1, 319619, Note_off_c, 0, 46, 52
1, 319620, Note_on_c, 0, 44, 63
1, 319622, Note_off_c, 0, 49, 58
1, 319826, Control_c, 0, 64, 34
1, 319841, Control_c, 0, 64, 49
1, 319847, Note_on_c, 0, 89, 79
1, 319855, Control_c, 0, 64, 57
1, 319864, Note_off_c, 0, 48, 58
1, 319870, Control_c, 0, 64, 62
1, 319885, Control_c, 0, 64, 64
1, 319900, Control_c, 0, 64, 65
1, 319901, Note_on_c, 0, 77, 72
1, 319903, Note_off_c, 0, 89, 62
1, 319915, Control_c, 0, 64, 65
1, 319940, Note_off_c, 0, 44, 58
1, 319960, Note_off_c, 0, 77, 61
1, 319963, Note_on_c, 0, 89, 73
1, 319989, Control_c, 0, 64, 65
1, 320015, Note_off_c, 0, 89, 61
1, 320019, Control_c, 0, 64, 64
1, 320034, Control_c, 0, 64, 64
1, 320049, Control_c, 0, 64, 63
1, 320064, Control_c, 0, 64, 62
1, 320079, Control_c, 0, 64, 61
1, 320094, Control_c, 0, 64, 58
1, 320105, Note_on_c, 0, 48, 57
1, 320109, Control_c, 0, 64, 54
1, 320111, Note_on_c, 0, 43, 49
1, 320114, Note_on_c, 0, 46, 49
1, 320123, Control_c, 0, 64, 47
1, 320138, Control_c, 0, 64, 33
1, 320153, Control_c, 0, 64, 0
1, 320285, Control_c, 0, 64, 9
1, 320300, Control_c, 0, 64, 41
1, 320315, Note_on_c, 0, 88, 59
1, 320315, Control_c, 0, 64, 55
1, 320330, Control_c, 0, 64, 62
1, 320345, Control_c, 0, 64, 64
1, 320360, Control_c, 0, 64, 66
1, 320374, Control_c, 0, 64, 68
1, 320377, Note_off_c, 0, 88, 61
1, 320389, Control_c, 0, 64, 69
1, 320393, Note_on_c, 0, 76, 46
1, 320404, Control_c, 0, 64, 72
1, 320419, Control_c, 0, 64, 75
1, 320425, Note_off_c, 0, 76, 62
1, 320434, Control_c, 0, 64, 78
1, 320451, Note_on_c, 0, 88, 55
1, 320456, Control_c, 0, 64, 80
1, 320471, Control_c, 0, 64, 80
1, 320490, Note_off_c, 0, 88, 65
1, 320502, Control_c, 0, 64, 80
1, 320517, Control_c, 0, 64, 79
1, 320532, Control_c, 0, 64, 79
1, 320546, Control_c, 0, 64, 78
1, 320547, Note_on_c, 0, 41, 50
1, 320561, Control_c, 0, 64, 78
1, 320565, Note_off_c, 0, 46, 28
1, 320576, Control_c, 0, 64, 77
1, 320591, Control_c, 0, 64, 76
1, 320594, Note_off_c, 0, 43, 36
1, 320605, Control_c, 0, 64, 75
1, 320620, Control_c, 0, 64, 73
1, 320632, Note_on_c, 0, 89, 56
1, 320635, Control_c, 0, 64, 70
1, 320650, Control_c, 0, 64, 66
1, 320657, Note_off_c, 0, 48, 51
1, 320665, Control_c, 0, 64, 62
1, 320679, Control_c, 0, 64, 56
1, 320692, Note_on_c, 0, 84, 60
1, 320694, Control_c, 0, 64, 50
1, 320694, Control_c, 0, 67, 10
1, 320706, Note_off_c, 0, 89, 54
1, 320709, Control_c, 0, 64, 45
1, 320709, Control_c, 0, 67, 24
1, 320724, Control_c, 0, 64, 43
1, 320724, Control_c, 0, 67, 38
1, 320739, Control_c, 0, 64, 42
1, 320739, Control_c, 0, 67, 49
1, 320753, Control_c, 0, 64, 39
1, 320753, Control_c, 0, 67, 60
1, 320765, Note_off_c, 0, 84, 59
1, 320768, Control_c, 0, 64, 35
1, 320768, Control_c, 0, 67, 72
1, 320777, Note_on_c, 0, 80, 57
1, 320783, Control_c, 0, 64, 29
1, 320783, Control_c, 0, 67, 83
1, 320797, Control_c, 0, 64, 23
1, 320797, Control_c, 0, 67, 98
1, 320812, Control_c, 0, 64, 18
1, 320812, Control_c, 0, 67, 113
1, 320827, Control_c, 0, 64, 16
1, 320827, Control_c, 0, 67, 127
1, 320832, Note_off_c, 0, 80, 60
1, 320842, Control_c, 0, 64, 12
1, 320851, Note_on_c, 0, 84, 51
1, 320857, Control_c, 0, 64, 0
1, 320888, Note_off_c, 0, 84, 63
1, 320904, Note_on_c, 0, 89, 55
1, 320964, Note_off_c, 0, 89, 56
1, 320969, Note_on_c, 0, 84, 59
1, 321009, Note_off_c, 0, 84, 62
1, 321030, Note_on_c, 0, 80, 63
1, 321083, Note_off_c, 0, 80, 58
1, 321113, Note_on_c, 0, 84, 61
1, 321147, Note_off_c, 0, 84, 63
1, 321169, Note_on_c, 0, 89, 55
1, 321235, Note_on_c, 0, 84, 60
1, 321239, Note_off_c, 0, 89, 57
1, 321280, Note_off_c, 0, 84, 62
1, 321305, Note_on_c, 0, 80, 62
1, 321357, Note_off_c, 0, 80, 59
1, 321375, Note_on_c, 0, 84, 65
1, 321408, Note_off_c, 0, 84, 62
1, 321429, Note_on_c, 0, 36, 45
1, 321442, Note_on_c, 0, 89, 64
1, 321464, Note_off_c, 0, 41, 52
1, 321472, Control_c, 0, 64, 17
1, 321487, Control_c, 0, 64, 34
1, 321495, Note_off_c, 0, 89, 58
1, 321501, Control_c, 0, 64, 46
1, 321509, Note_on_c, 0, 84, 62
1, 321516, Control_c, 0, 64, 52
1, 321531, Control_c, 0, 64, 55
1, 321541, Note_off_c, 0, 84, 63
1, 321545, Control_c, 0, 64, 55
1, 321581, Note_on_c, 0, 89, 52
1, 321590, Control_c, 0, 64, 56
1, 321617, Note_off_c, 0, 89, 60
1, 321620, Control_c, 0, 64, 56
1, 321642, Note_on_c, 0, 84, 64
1, 321672, Note_off_c, 0, 84, 66
1, 321680, Control_c, 0, 64, 55
1, 321694, Control_c, 0, 64, 54
1, 321709, Note_on_c, 0, 89, 61
1, 321738, Control_c, 0, 64, 55
1, 321748, Note_off_c, 0, 89, 62
1, 321753, Control_c, 0, 64, 55
1, 321768, Control_c, 0, 64, 56
1, 321769, Note_on_c, 0, 84, 58
1, 321783, Control_c, 0, 64, 57
1, 321798, Note_on_c, 0, 32, 40
1, 321798, Control_c, 0, 64, 59
1, 321803, Note_off_c, 0, 84, 63
1, 321812, Control_c, 0, 64, 60
1, 321827, Control_c, 0, 64, 61
1, 321835, Note_off_c, 0, 36, 35
1, 321836, Note_on_c, 0, 89, 57
1, 321842, Control_c, 0, 64, 61
1, 321857, Control_c, 0, 64, 62
1, 321879, Note_off_c, 0, 89, 60
1, 321886, Control_c, 0, 64, 62
1, 321901, Note_on_c, 0, 84, 58
1, 321943, Note_off_c, 0, 84, 63
1, 321982, Note_on_c, 0, 89, 49
1, 322017, Note_off_c, 0, 89, 52
1, 322045, Note_on_c, 0, 84, 59
1, 322079, Note_off_c, 0, 84, 64
1, 322114, Note_on_c, 0, 89, 56
1, 322161, Control_c, 0, 64, 63
1, 322163, Note_off_c, 0, 89, 57
1, 322201, Note_on_c, 0, 84, 55
1, 322221, Control_c, 0, 64, 62
1, 322250, Control_c, 0, 64, 62
1, 322255, Note_on_c, 0, 29, 44
1, 322265, Control_c, 0, 64, 61
1, 322277, Note_off_c, 0, 84, 61
1, 322280, Control_c, 0, 64, 60
1, 322295, Control_c, 0, 64, 58
1, 322300, Note_on_c, 0, 89, 59
1, 322310, Control_c, 0, 64, 54
1, 322324, Control_c, 0, 64, 46
1, 322325, Note_off_c, 0, 32, 44
1, 322339, Control_c, 0, 64, 27
1, 322354, Control_c, 0, 64, 0
1, 322391, Note_off_c, 0, 89, 57
1, 322396, Note_on_c, 0, 84, 55
1, 322434, Note_off_c, 0, 84, 62
1, 322443, Control_c, 0, 64, 24
1, 322458, Control_c, 0, 64, 40
1, 322465, Note_on_c, 0, 80, 53
1, 322472, Control_c, 0, 64, 52
1, 322487, Control_c, 0, 64, 56
1, 322502, Control_c, 0, 64, 58
1, 322507, Note_off_c, 0, 80, 62
1, 322517, Control_c, 0, 64, 59
1, 322529, Note_on_c, 0, 84, 63
1, 322568, Note_off_c, 0, 84, 57
1, 322607, Note_on_c, 0, 89, 56
1, 322621, Control_c, 0, 64, 59
1, 322654, Note_off_c, 0, 89, 59
1, 322659, Note_on_c, 0, 84, 56
1, 322705, Note_off_c, 0, 84, 64
1, 322727, Note_on_c, 0, 80, 57
1, 322771, Note_off_c, 0, 80, 58
1, 322798, Note_on_c, 0, 84, 64
1, 322833, Note_off_c, 0, 84, 61
1, 322866, Note_on_c, 0, 89, 58
1, 322922, Note_off_c, 0, 89, 57
1, 322923, Note_on_c, 0, 84, 60
1, 322940, Control_c, 0, 64, 60
1, 322961, Note_off_c, 0, 84, 62
1, 322983, Note_on_c, 0, 80, 59
1, 323024, Note_off_c, 0, 80, 62
1, 323048, Note_on_c, 0, 84, 58
1, 323083, Note_off_c, 0, 84, 63
1, 323110, Note_on_c, 0, 89, 56
1, 323132, Control_c, 0, 64, 60
1, 323168, Note_off_c, 0, 89, 54
1, 323184, Note_on_c, 0, 84, 30
1, 323194, Note_on_c, 0, 80, 56
1, 323213, Note_off_c, 0, 84, 45
1, 323236, Control_c, 0, 64, 61
1, 323243, Note_off_c, 0, 80, 60
1, 323275, Note_on_c, 0, 84, 56
1, 323314, Note_off_c, 0, 84, 60
1, 323345, Note_on_c, 0, 89, 60
1, 323388, Note_off_c, 0, 89, 62
1, 323408, Note_on_c, 0, 84, 57
1, 323429, Control_c, 0, 64, 60
1, 323449, Note_off_c, 0, 84, 64
1, 323451, Control_c, 0, 64, 57
1, 323459, Note_on_c, 0, 32, 50
1, 323465, Control_c, 0, 64, 51
1, 323473, Note_on_c, 0, 89, 61
1, 323480, Control_c, 0, 64, 42
1, 323495, Note_off_c, 0, 29, 48
1, 323495, Control_c, 0, 64, 38
1, 323510, Control_c, 0, 64, 39
1, 323525, Control_c, 0, 64, 42
1, 323539, Note_on_c, 0, 84, 58
1, 323540, Note_off_c, 0, 89, 60
1, 323540, Control_c, 0, 64, 47
1, 323555, Control_c, 0, 64, 52
1, 323569, Control_c, 0, 64, 57
1, 323584, Control_c, 0, 64, 60
1, 323599, Control_c, 0, 64, 62
1, 323601, Note_off_c, 0, 84, 52
1, 323611, Note_on_c, 0, 80, 65
1, 323614, Control_c, 0, 64, 63
1, 323629, Control_c, 0, 64, 63
1, 323644, Control_c, 0, 64, 64
1, 323659, Control_c, 0, 64, 64
1, 323673, Note_off_c, 0, 80, 60
1, 323673, Control_c, 0, 64, 65
1, 323704, Control_c, 0, 64, 65
1, 323706, Note_on_c, 0, 84, 59
1, 323727, Note_off_c, 0, 84, 61
1, 323751, Note_on_c, 0, 89, 68
1, 323768, Note_on_c, 0, 36, 61
1, 323792, Note_off_c, 0, 32, 59
1, 323793, Control_c, 0, 64, 65
1, 323808, Note_off_c, 0, 89, 60
1, 323809, Note_on_c, 0, 84, 65
1, 323838, Control_c, 0, 64, 64
1, 323852, Note_off_c, 0, 84, 63
1, 323853, Control_c, 0, 64, 63
1, 323868, Control_c, 0, 64, 55
1, 323870, Note_on_c, 0, 41, 67
1, 323874, Note_on_c, 0, 89, 73
1, 323877, Note_off_c, 0, 36, 62
1, 323882, Control_c, 0, 64, 38
1, 323897, Control_c, 0, 64, 0
1, 323936, Note_on_c, 0, 84, 67
1, 323941, Note_off_c, 0, 89, 62
1, 323956, Control_c, 0, 64, 12
1, 323971, Control_c, 0, 64, 29
1, 323986, Control_c, 0, 64, 43
1, 323989, Note_off_c, 0, 84, 61
1, 324001, Control_c, 0, 64, 53
1, 324008, Note_on_c, 0, 80, 62
1, 324015, Control_c, 0, 64, 59
1, 324030, Control_c, 0, 64, 62
1, 324045, Control_c, 0, 64, 63
1, 324060, Control_c, 0, 64, 64
1, 324061, Note_off_c, 0, 80, 57
1, 324075, Control_c, 0, 64, 65
1, 324082, Note_on_c, 0, 84, 59
1, 324089, Control_c, 0, 64, 65
1, 324104, Control_c, 0, 64, 66
1, 324115, Note_off_c, 0, 84, 65
1, 324133, Note_on_c, 0, 89, 66
1, 324177, Note_off_c, 0, 89, 62
1, 324210, Note_on_c, 0, 84, 63
1, 324215, Control_c, 0, 64, 65
1, 324238, Note_off_c, 0, 84, 65
1, 324245, Control_c, 0, 64, 64
1, 324260, Control_c, 0, 64, 59
1, 324262, Note_on_c, 0, 44, 65
1, 324272, Note_on_c, 0, 89, 63
1, 324273, Note_off_c, 0, 41, 56
1, 324275, Control_c, 0, 64, 44
1, 324289, Control_c, 0, 64, 0
1, 324323, Note_on_c, 0, 84, 70
1, 324336, Note_off_c, 0, 89, 59
1, 324348, Control_c, 0, 64, 12
1, 324363, Control_c, 0, 64, 34
1, 324378, Control_c, 0, 64, 49
1, 324386, Note_off_c, 0, 84, 63
1, 324393, Control_c, 0, 64, 57
1, 324401, Note_on_c, 0, 80, 59
1, 324408, Control_c, 0, 64, 62
1, 324422, Control_c, 0, 64, 64
1, 324437, Control_c, 0, 64, 65
1, 324448, Note_off_c, 0, 80, 56
1, 324452, Control_c, 0, 64, 66
1, 324467, Control_c, 0, 64, 67
1, 324476, Note_on_c, 0, 84, 66
1, 324498, Control_c, 0, 64, 67
1, 324517, Note_off_c, 0, 84, 60
1, 324530, Note_on_c, 0, 48, 64
1, 324544, Note_on_c, 0, 89, 65
1, 324562, Note_off_c, 0, 44, 58
1, 324599, Note_off_c, 0, 89, 60
1, 324600, Control_c, 0, 64, 67
1, 324618, Note_on_c, 0, 84, 70
1, 324630, Control_c, 0, 64, 66
1, 324644, Note_off_c, 0, 84, 66
1, 324644, Control_c, 0, 64, 65
1, 324651, Note_on_c, 0, 53, 75
1, 324659, Control_c, 0, 64, 64
1, 324674, Control_c, 0, 64, 59
1, 324675, Note_off_c, 0, 48, 61
1, 324684, Note_on_c, 0, 89, 63
1, 324689, Control_c, 0, 64, 47
1, 324704, Control_c, 0, 64, 0
1, 324743, Note_on_c, 0, 84, 68
1, 324753, Note_off_c, 0, 89, 59
1, 324801, Note_off_c, 0, 84, 62
1, 324812, Note_on_c, 0, 80, 64
1, 324822, Control_c, 0, 64, 40
1, 324836, Control_c, 0, 64, 54
1, 324851, Control_c, 0, 64, 60
1, 324865, Note_off_c, 0, 80, 57
1, 324866, Control_c, 0, 64, 63
1, 324866, Control_c, 0, 67, 127
1, 324881, Control_c, 0, 64, 64
1, 324881, Control_c, 0, 67, 126
1, 324885, Note_on_c, 0, 84, 61
1, 324896, Control_c, 0, 64, 65
1, 324896, Control_c, 0, 67, 125
1, 324911, Control_c, 0, 64, 66
1, 324911, Control_c, 0, 67, 125
1, 324933, Control_c, 0, 64, 66
1, 324940, Note_off_c, 0, 84, 62
1, 324948, Control_c, 0, 67, 124
1, 324956, Note_on_c, 0, 89, 70
1, 324962, Control_c, 0, 67, 124
1, 325014, Note_off_c, 0, 89, 62
1, 325028, Note_on_c, 0, 84, 65
1, 325051, Control_c, 0, 64, 66
1, 325060, Note_off_c, 0, 84, 63
1, 325072, Note_on_c, 0, 41, 69
1, 325081, Control_c, 0, 64, 65
1, 325096, Control_c, 0, 64, 63
1, 325104, Note_on_c, 0, 89, 63
1, 325111, Control_c, 0, 64, 58
1, 325125, Control_c, 0, 64, 44
1, 325140, Control_c, 0, 64, 12
1, 325155, Control_c, 0, 64, 0
1, 325161, Note_on_c, 0, 84, 70
1, 325169, Note_off_c, 0, 89, 57
1, 325205, Note_off_c, 0, 53, 41
1, 325215, Control_c, 0, 67, 123
1, 325215, Note_off_c, 0, 84, 61
1, 325230, Control_c, 0, 64, 25
1, 325233, Note_on_c, 0, 80, 61
1, 325244, Control_c, 0, 64, 41
1, 325244, Control_c, 0, 67, 122
1, 325259, Control_c, 0, 64, 52
1, 325259, Control_c, 0, 67, 121
1, 325274, Control_c, 0, 64, 59
1, 325274, Control_c, 0, 67, 119
1, 325289, Control_c, 0, 64, 62
1, 325289, Control_c, 0, 67, 112
1, 325296, Note_off_c, 0, 80, 62
1, 325304, Control_c, 0, 64, 63
1, 325304, Control_c, 0, 67, 103
1, 325313, Note_on_c, 0, 84, 44
1, 325319, Control_c, 0, 64, 64
1, 325319, Control_c, 0, 67, 96
1, 325334, Control_c, 0, 64, 65
1, 325334, Control_c, 0, 67, 90
1, 325337, Note_off_c, 0, 84, 56
1, 325340, Note_on_c, 0, 89, 66
1, 325349, Control_c, 0, 64, 65
1, 325349, Control_c, 0, 67, 87
1, 325364, Control_c, 0, 64, 66
1, 325364, Control_c, 0, 67, 85
1, 325379, Control_c, 0, 64, 67
1, 325379, Control_c, 0, 67, 84
1, 325393, Control_c, 0, 64, 67
1, 325408, Control_c, 0, 64, 68
1, 325409, Note_off_c, 0, 89, 60
1, 325413, Note_on_c, 0, 84, 68
1, 325453, Control_c, 0, 67, 85
1, 325467, Control_c, 0, 64, 67
1, 325467, Control_c, 0, 67, 87
1, 325470, Note_off_c, 0, 84, 57
1, 325482, Control_c, 0, 67, 87
1, 325497, Control_c, 0, 64, 67
1, 325497, Control_c, 0, 67, 88
1, 325508, Note_on_c, 0, 87, 59
1, 325512, Control_c, 0, 67, 90
1, 325527, Control_c, 0, 64, 66
1, 325527, Control_c, 0, 67, 92
1, 325541, Note_on_c, 0, 42, 55
1, 325541, Control_c, 0, 64, 66
1, 325541, Control_c, 0, 67, 93
1, 325556, Control_c, 0, 64, 65
1, 325556, Control_c, 0, 67, 95
1, 325571, Control_c, 0, 64, 63
1, 325571, Control_c, 0, 67, 97
1, 325585, Control_c, 0, 64, 59
1, 325585, Control_c, 0, 67, 100
1, 325596, Note_on_c, 0, 84, 55
1, 325600, Control_c, 0, 64, 53
1, 325600, Control_c, 0, 67, 102
1, 325602, Note_off_c, 0, 87, 56
1, 325615, Control_c, 0, 64, 44
1, 325615, Control_c, 0, 67, 104
1, 325622, Note_off_c, 0, 41, 59
1, 325630, Control_c, 0, 64, 28
1, 325630, Control_c, 0, 67, 106
1, 325645, Control_c, 0, 64, 0
1, 325645, Control_c, 0, 67, 109
1, 325659, Control_c, 0, 67, 110
1, 325668, Note_off_c, 0, 84, 63
1, 325674, Control_c, 0, 67, 110
1, 325692, Note_on_c, 0, 80, 55
1, 325697, Control_c, 0, 67, 111
1, 325741, Control_c, 0, 67, 110
1, 325756, Control_c, 0, 67, 109
1, 325757, Note_off_c, 0, 80, 60
1, 325771, Control_c, 0, 67, 108
1, 325774, Note_on_c, 0, 84, 57
1, 325785, Control_c, 0, 67, 106
1, 325800, Control_c, 0, 67, 105
1, 325807, Note_off_c, 0, 84, 65
1, 325815, Control_c, 0, 64, 12
1, 325815, Control_c, 0, 67, 103
1, 325830, Note_on_c, 0, 87, 58
1, 325830, Control_c, 0, 64, 36
1, 325830, Control_c, 0, 67, 102
1, 325845, Control_c, 0, 64, 47
1, 325845, Control_c, 0, 67, 99
1, 325859, Control_c, 0, 64, 54
1, 325859, Control_c, 0, 67, 98
1, 325874, Control_c, 0, 64, 57
1, 325874, Control_c, 0, 67, 97
1, 325875, Note_off_c, 0, 87, 60
1, 325889, Note_on_c, 0, 84, 67
1, 325889, Control_c, 0, 64, 59
1, 325889, Control_c, 0, 67, 96
1, 325904, Control_c, 0, 64, 60
1, 325904, Control_c, 0, 67, 95
1, 325919, Control_c, 0, 67, 95
1, 325933, Control_c, 0, 67, 94
1, 325940, Note_off_c, 0, 84, 62
1, 325948, Control_c, 0, 64, 60
1, 325959, Note_on_c, 0, 80, 58
1, 325963, Control_c, 0, 67, 93
1, 325978, Control_c, 0, 67, 93
1, 326002, Note_off_c, 0, 80, 60
1, 326023, Control_c, 0, 67, 92
1, 326026, Note_on_c, 0, 84, 53
1, 326038, Control_c, 0, 67, 92
1, 326053, Control_c, 0, 64, 61
1, 326061, Note_off_c, 0, 84, 64
1, 326067, Control_c, 0, 67, 91
1, 326082, Note_on_c, 0, 87, 57
1, 326097, Control_c, 0, 64, 61
1, 326097, Control_c, 0, 67, 90
1, 326119, Note_off_c, 0, 87, 64
1, 326127, Control_c, 0, 64, 62
1, 326142, Note_on_c, 0, 84, 65
1, 326157, Control_c, 0, 64, 62
1, 326172, Control_c, 0, 67, 90
1, 326177, Note_off_c, 0, 84, 61
1, 326187, Control_c, 0, 64, 63
1, 326202, Control_c, 0, 67, 89
1, 326204, Note_on_c, 0, 80, 58
1, 326231, Control_c, 0, 67, 88
1, 326243, Note_off_c, 0, 80, 62
1, 326246, Control_c, 0, 64, 63
1, 326246, Control_c, 0, 67, 88
1, 326275, Note_on_c, 0, 84, 57
1, 326276, Control_c, 0, 67, 87
1, 326290, Control_c, 0, 67, 87
1, 326301, Note_off_c, 0, 84, 64
1, 326305, Control_c, 0, 67, 85
1, 326318, Note_on_c, 0, 87, 56
1, 326320, Control_c, 0, 67, 85
1, 326335, Control_c, 0, 67, 84
1, 326350, Control_c, 0, 67, 83
1, 326359, Note_off_c, 0, 87, 63
1, 326364, Control_c, 0, 67, 83
1, 326377, Note_on_c, 0, 84, 63
1, 326394, Control_c, 0, 67, 82
1, 326416, Note_off_c, 0, 84, 58
1, 326423, Control_c, 0, 67, 82
1, 326446, Control_c, 0, 67, 81
1, 326459, Note_on_c, 0, 80, 50
1, 326476, Control_c, 0, 67, 80
1, 326498, Note_off_c, 0, 80, 63
1, 326520, Control_c, 0, 67, 80
1, 326523, Note_on_c, 0, 84, 57
1, 326556, Note_off_c, 0, 84, 65
1, 326564, Control_c, 0, 67, 79
1, 326586, Note_on_c, 0, 87, 58
1, 326623, Control_c, 0, 67, 75
1, 326631, Note_off_c, 0, 87, 61
1, 326638, Control_c, 0, 67, 69
1, 326644, Note_on_c, 0, 84, 60
1, 326653, Control_c, 0, 64, 63
1, 326653, Control_c, 0, 67, 64
1, 326668, Control_c, 0, 64, 62
1, 326668, Control_c, 0, 67, 60
1, 326682, Control_c, 0, 64, 60
1, 326682, Control_c, 0, 67, 57
1, 326691, Note_off_c, 0, 84, 63
1, 326697, Control_c, 0, 64, 54
1, 326697, Control_c, 0, 67, 56
1, 326698, Note_on_c, 0, 48, 65
1, 326712, Control_c, 0, 64, 36
1, 326712, Control_c, 0, 67, 55
1, 326719, Note_on_c, 0, 87, 62
1, 326727, Control_c, 0, 64, 0
1, 326727, Control_c, 0, 67, 55
1, 326751, Note_off_c, 0, 42, 58
1, 326754, Note_off_c, 0, 87, 62
1, 326756, Control_c, 0, 67, 54
1, 326786, Control_c, 0, 67, 53
1, 326792, Note_on_c, 0, 84, 61
1, 326800, Control_c, 0, 64, 31
1, 326815, Control_c, 0, 64, 47
1, 326815, Control_c, 0, 67, 53
1, 326826, Note_off_c, 0, 84, 63
1, 326830, Control_c, 0, 64, 56
1, 326830, Control_c, 0, 67, 52
1, 326845, Control_c, 0, 64, 62
1, 326859, Note_on_c, 0, 80, 58
1, 326860, Control_c, 0, 64, 64
1, 326860, Control_c, 0, 67, 51
1, 326875, Control_c, 0, 64, 66
1, 326890, Control_c, 0, 64, 67
1, 326890, Control_c, 0, 67, 51
1, 326905, Control_c, 0, 64, 69
1, 326905, Control_c, 0, 67, 50
1, 326914, Note_off_c, 0, 80, 57
1, 326920, Control_c, 0, 64, 70
1, 326920, Control_c, 0, 67, 48
1, 326932, Note_on_c, 0, 84, 66
1, 326935, Control_c, 0, 64, 71
1, 326935, Control_c, 0, 67, 45
1, 326950, Control_c, 0, 64, 72
1, 326950, Control_c, 0, 67, 41
1, 326965, Control_c, 0, 64, 72
1, 326965, Control_c, 0, 67, 38
1, 326971, Note_off_c, 0, 84, 60
1, 326979, Control_c, 0, 67, 37
1, 326980, Note_on_c, 0, 51, 74
1, 326992, Note_on_c, 0, 87, 68
1, 326994, Control_c, 0, 67, 36
1, 327005, Note_off_c, 0, 48, 63
1, 327009, Control_c, 0, 64, 72
1, 327009, Control_c, 0, 67, 35
1, 327024, Control_c, 0, 67, 35
1, 327038, Control_c, 0, 64, 71
1, 327046, Note_off_c, 0, 87, 59
1, 327053, Control_c, 0, 64, 68
1, 327053, Control_c, 0, 67, 34
1, 327068, Control_c, 0, 64, 63
1, 327072, Note_on_c, 0, 84, 67
1, 327083, Control_c, 0, 64, 44
1, 327089, Note_on_c, 0, 54, 70
1, 327098, Control_c, 0, 64, 0
1, 327099, Note_off_c, 0, 51, 63
1, 327101, Note_off_c, 0, 84, 67
1, 327112, Control_c, 0, 67, 33
1, 327114, Note_on_c, 0, 87, 69
1, 327154, Note_off_c, 0, 87, 63
1, 327194, Control_c, 0, 64, 29
1, 327199, Note_on_c, 0, 84, 64
1, 327209, Control_c, 0, 64, 48
1, 327224, Control_c, 0, 64, 59
1, 327231, Note_off_c, 0, 84, 64
1, 327238, Control_c, 0, 64, 63
1, 327250, Note_on_c, 0, 80, 60
1, 327253, Control_c, 0, 64, 66
1, 327268, Control_c, 0, 64, 68
1, 327283, Control_c, 0, 64, 70
1, 327296, Note_off_c, 0, 80, 58
1, 327298, Control_c, 0, 64, 72
1, 327312, Control_c, 0, 64, 75
1, 327324, Note_on_c, 0, 84, 70
1, 327327, Control_c, 0, 64, 76
1, 327342, Control_c, 0, 64, 78
1, 327355, Note_off_c, 0, 84, 63
1, 327356, Control_c, 0, 64, 78
1, 327377, Note_on_c, 0, 87, 67
1, 327421, Note_off_c, 0, 87, 59
1, 327430, Control_c, 0, 64, 78
1, 327443, Note_on_c, 0, 84, 73
1, 327460, Control_c, 0, 64, 77
1, 327472, Note_off_c, 0, 84, 63
1, 327475, Control_c, 0, 64, 76
1, 327490, Control_c, 0, 64, 75
1, 327501, Note_on_c, 0, 87, 73
1, 327504, Note_on_c, 0, 60, 79
1, 327504, Control_c, 0, 64, 73
1, 327504, Control_c, 0, 67, 33
1, 327519, Control_c, 0, 64, 68
1, 327519, Control_c, 0, 67, 32
1, 327535, Control_c, 0, 64, 59
1, 327537, Note_off_c, 0, 54, 61
1, 327539, Note_off_c, 0, 87, 62
1, 327550, Control_c, 0, 64, 27
1, 327564, Control_c, 0, 64, 0
1, 327564, Control_c, 0, 67, 31
1, 327579, Note_on_c, 0, 84, 70
1, 327594, Control_c, 0, 67, 31
1, 327609, Control_c, 0, 67, 30
1, 327631, Note_off_c, 0, 84, 63
1, 327650, Note_on_c, 0, 80, 63
1, 327653, Control_c, 0, 64, 26
1, 327668, Control_c, 0, 64, 47
1, 327684, Control_c, 0, 64, 58
1, 327699, Control_c, 0, 64, 62
1, 327699, Control_c, 0, 67, 31
1, 327714, Control_c, 0, 64, 64
1, 327714, Control_c, 0, 67, 31
1, 327717, Note_off_c, 0, 80, 62
1, 327728, Control_c, 0, 64, 65
1, 327729, Note_on_c, 0, 84, 63
1, 327743, Control_c, 0, 64, 66
1, 327758, Control_c, 0, 64, 67
1, 327767, Note_off_c, 0, 84, 63
1, 327773, Control_c, 0, 64, 67
1, 327773, Control_c, 0, 67, 32
1, 327785, Note_on_c, 0, 63, 73
1, 327786, Note_on_c, 0, 87, 68
1, 327788, Control_c, 0, 64, 68
1, 327788, Control_c, 0, 67, 33
1, 327802, Control_c, 0, 67, 34
1, 327817, Control_c, 0, 67, 35
1, 327827, Note_off_c, 0, 60, 62
1, 327832, Control_c, 0, 67, 36
1, 327840, Note_off_c, 0, 87, 63
1, 327847, Control_c, 0, 64, 67
1, 327853, Note_on_c, 0, 84, 74
1, 327862, Control_c, 0, 64, 66
1, 327862, Control_c, 0, 67, 36
1, 327877, Note_off_c, 0, 63, 63
1, 327877, Control_c, 0, 64, 63
1, 327884, Note_on_c, 0, 66, 80
1, 327885, Note_off_c, 0, 84, 60
1, 327892, Control_c, 0, 64, 53
1, 327907, Control_c, 0, 64, 24
1, 327913, Note_on_c, 0, 87, 74
1, 327922, Control_c, 0, 64, 0
1, 327943, Control_c, 0, 67, 37
1, 327954, Note_off_c, 0, 87, 61
1, 327987, Note_on_c, 0, 84, 71
1, 328023, Note_off_c, 0, 84, 61
1, 328032, Control_c, 0, 64, 32
1, 328047, Note_on_c, 0, 80, 57
1, 328047, Control_c, 0, 64, 50
1, 328047, Control_c, 0, 67, 36
1, 328062, Control_c, 0, 64, 59
1, 328077, Control_c, 0, 64, 63
1, 328077, Control_c, 0, 67, 36
1, 328091, Control_c, 0, 64, 64
1, 328091, Control_c, 0, 67, 35
1, 328095, Note_off_c, 0, 80, 59
1, 328106, Control_c, 0, 64, 65
1, 328106, Control_c, 0, 67, 35
1, 328108, Note_on_c, 0, 84, 67
1, 328121, Control_c, 0, 64, 66
1, 328121, Control_c, 0, 67, 34
1, 328136, Control_c, 0, 64, 66
1, 328143, Note_off_c, 0, 84, 62
1, 328151, Control_c, 0, 64, 67
1, 328172, Note_on_c, 0, 87, 64
1, 328209, Note_off_c, 0, 87, 61
1, 328225, Control_c, 0, 64, 66
1, 328225, Control_c, 0, 67, 33
1, 328232, Note_on_c, 0, 84, 70
1, 328254, Control_c, 0, 64, 66
1, 328259, Note_off_c, 0, 84, 66
1, 328269, Control_c, 0, 64, 64
1, 328269, Control_c, 0, 67, 33
1, 328270, Note_on_c, 0, 54, 64
1, 328284, Control_c, 0, 64, 57
1, 328294, Note_on_c, 0, 87, 67
1, 328299, Control_c, 0, 64, 35
1, 328309, Note_off_c, 0, 66, 56
1, 328314, Control_c, 0, 64, 0
1, 328342, Note_off_c, 0, 87, 56
1, 328354, Note_on_c, 0, 84, 70
1, 328373, Control_c, 0, 64, 24
1, 328387, Control_c, 0, 64, 46
1, 328394, Note_off_c, 0, 84, 61
1, 328402, Control_c, 0, 64, 57
1, 328412, Note_on_c, 0, 80, 58
1, 328417, Control_c, 0, 64, 63
1, 328432, Control_c, 0, 64, 66
1, 328447, Control_c, 0, 64, 68
1, 328447, Control_c, 0, 67, 32
1, 328461, Control_c, 0, 64, 70
1, 328473, Note_off_c, 0, 80, 59
1, 328477, Note_on_c, 0, 84, 72
1, 328477, Control_c, 0, 64, 71
1, 328492, Control_c, 0, 64, 73
1, 328492, Control_c, 0, 67, 31
1, 328507, Control_c, 0, 64, 75
1, 328520, Note_off_c, 0, 84, 63
1, 328522, Control_c, 0, 64, 77
1, 328534, Note_on_c, 0, 87, 74
1, 328537, Control_c, 0, 64, 78
1, 328581, Control_c, 0, 67, 31
1, 328596, Note_on_c, 0, 84, 78
1, 328596, Note_off_c, 0, 87, 63
1, 328633, Note_off_c, 0, 84, 62
1, 328640, Control_c, 0, 64, 77
1, 328655, Control_c, 0, 64, 76
1, 328664, Note_on_c, 0, 89, 73
1, 328670, Control_c, 0, 64, 75
1, 328684, Note_on_c, 0, 53, 67
1, 328691, Note_off_c, 0, 54, 64
1, 328692, Control_c, 0, 64, 73
1, 328707, Control_c, 0, 64, 66
1, 328722, Control_c, 0, 64, 50
1, 328737, Control_c, 0, 64, 0
1, 328750, Note_on_c, 0, 85, 64
1, 328756, Note_off_c, 0, 89, 58
1, 328781, Note_off_c, 0, 85, 64
1, 328809, Note_on_c, 0, 80, 56
1, 328810, Control_c, 0, 67, 30
1, 328825, Control_c, 0, 67, 29
1, 328840, Control_c, 0, 67, 29
1, 328855, Control_c, 0, 64, 39
1, 328855, Control_c, 0, 67, 28
1, 328866, Note_on_c, 0, 85, 69
1, 328866, Note_off_c, 0, 80, 60
1, 328870, Control_c, 0, 64, 53
1, 328870, Control_c, 0, 67, 27
1, 328884, Control_c, 0, 64, 60
1, 328899, Control_c, 0, 64, 63
1, 328899, Control_c, 0, 67, 26
1, 328908, Note_off_c, 0, 85, 62
1, 328914, Control_c, 0, 64, 65
1, 328914, Control_c, 0, 67, 17
1, 328920, Note_on_c, 0, 89, 74
1, 328929, Control_c, 0, 64, 66
1, 328929, Control_c, 0, 67, 0
1, 328944, Control_c, 0, 64, 67
1, 328959, Control_c, 0, 64, 69
1, 328974, Control_c, 0, 64, 70
1, 328979, Note_off_c, 0, 89, 62
1, 328983, Note_on_c, 0, 85, 74
1, 328989, Control_c, 0, 64, 71
1, 329003, Control_c, 0, 64, 71
1, 329035, Note_off_c, 0, 85, 64
1, 329044, Note_on_c, 0, 89, 74
1, 329048, Control_c, 0, 64, 70
1, 329051, Note_on_c, 0, 56, 71
1, 329051, Note_off_c, 0, 53, 55
1, 329063, Control_c, 0, 64, 69
1, 329077, Control_c, 0, 64, 67
1, 329092, Control_c, 0, 64, 59
1, 329107, Control_c, 0, 64, 31
1, 329117, Note_on_c, 0, 85, 73
1, 329122, Control_c, 0, 64, 0
1, 329126, Note_off_c, 0, 89, 56
1, 329171, Note_off_c, 0, 85, 64
1, 329186, Note_on_c, 0, 80, 67
1, 329240, Control_c, 0, 64, 38
1, 329255, Control_c, 0, 64, 54
1, 329258, Note_on_c, 0, 85, 69
1, 329264, Note_off_c, 0, 80, 63
1, 329270, Control_c, 0, 64, 62
1, 329286, Control_c, 0, 64, 65
1, 329300, Control_c, 0, 64, 67
1, 329305, Note_off_c, 0, 85, 63
1, 329315, Control_c, 0, 64, 69
1, 329323, Note_on_c, 0, 89, 77
1, 329330, Control_c, 0, 64, 70
1, 329345, Control_c, 0, 64, 72
1, 329358, Note_on_c, 0, 61, 73
1, 329360, Control_c, 0, 64, 73
1, 329364, Note_off_c, 0, 56, 65
1, 329374, Control_c, 0, 64, 75
1, 329388, Note_off_c, 0, 89, 62
1, 329389, Control_c, 0, 64, 75
1, 329399, Note_on_c, 0, 85, 81
1, 329404, Control_c, 0, 64, 75
1, 329419, Control_c, 0, 64, 74
1, 329441, Control_c, 0, 64, 71
1, 329456, Control_c, 0, 64, 66
1, 329459, Note_off_c, 0, 85, 64
1, 329460, Note_off_c, 0, 61, 62
1, 329462, Note_on_c, 0, 65, 78
1, 329466, Note_on_c, 0, 89, 78
1, 329471, Control_c, 0, 64, 55
1, 329486, Control_c, 0, 64, 13
1, 329501, Control_c, 0, 64, 0
1, 329540, Note_on_c, 0, 85, 68
1, 329548, Note_off_c, 0, 89, 58
1, 329591, Note_off_c, 0, 85, 63
1, 329599, Note_on_c, 0, 80, 67
1, 329619, Control_c, 0, 64, 39
1, 329633, Control_c, 0, 64, 53
1, 329648, Control_c, 0, 64, 61
1, 329661, Note_on_c, 0, 85, 67
1, 329663, Control_c, 0, 64, 64
1, 329671, Note_off_c, 0, 80, 63
1, 329678, Control_c, 0, 64, 67
1, 329693, Control_c, 0, 64, 69
1, 329707, Control_c, 0, 64, 72
1, 329713, Note_off_c, 0, 85, 63
1, 329722, Note_on_c, 0, 89, 79
1, 329722, Control_c, 0, 64, 75
1, 329737, Control_c, 0, 64, 79
1, 329752, Control_c, 0, 64, 83
1, 329767, Control_c, 0, 64, 87
1, 329774, Note_on_c, 0, 85, 65
1, 329780, Note_off_c, 0, 89, 63
1, 329782, Control_c, 0, 64, 90
1, 329797, Control_c, 0, 64, 90
1, 329811, Control_c, 0, 64, 90
1, 329814, Note_off_c, 0, 65, 48
1, 329826, Control_c, 0, 64, 88
1, 329832, Note_off_c, 0, 85, 65
1, 329836, Note_on_c, 0, 89, 75
1, 329840, Note_on_c, 0, 53, 77
1, 329841, Control_c, 0, 64, 86
1, 329856, Control_c, 0, 64, 83
1, 329871, Control_c, 0, 64, 74
1, 329886, Control_c, 0, 64, 61
1, 329900, Control_c, 0, 64, 0
1, 329913, Note_on_c, 0, 85, 66
1, 329928, Note_off_c, 0, 89, 56
1, 329964, Note_on_c, 0, 80, 74
1, 329968, Note_off_c, 0, 85, 64
1, 329989, Control_c, 0, 64, 30
1, 330004, Control_c, 0, 64, 51
1, 330019, Control_c, 0, 64, 61
1, 330025, Note_on_c, 0, 85, 65
1, 330033, Control_c, 0, 64, 65
1, 330038, Note_off_c, 0, 80, 60
1, 330048, Control_c, 0, 64, 69
1, 330063, Control_c, 0, 64, 74
1, 330079, Control_c, 0, 64, 81
1, 330090, Note_on_c, 0, 89, 87
1, 330094, Note_off_c, 0, 85, 65
1, 330094, Control_c, 0, 64, 90
1, 330109, Control_c, 0, 64, 103
1, 330123, Control_c, 0, 64, 127
1, 330149, Note_on_c, 0, 85, 69
1, 330167, Note_off_c, 0, 89, 63
1, 330226, Note_on_c, 0, 51, 79
1, 330247, Note_on_c, 0, 90, 82
1, 330250, Control_c, 0, 64, 111
1, 330251, Note_off_c, 0, 53, 57
1, 330256, Note_off_c, 0, 85, 64
1, 330264, Control_c, 0, 64, 93
1, 330279, Control_c, 0, 64, 75
1, 330294, Control_c, 0, 64, 57
1, 330309, Control_c, 0, 64, 0
1, 330329, Note_on_c, 0, 84, 66
1, 330360, Note_off_c, 0, 90, 52
1, 330384, Note_off_c, 0, 84, 63
1, 330387, Note_on_c, 0, 80, 67
1, 330427, Control_c, 0, 64, 13
1, 330442, Control_c, 0, 64, 44
1, 330456, Control_c, 0, 64, 56
1, 330463, Note_on_c, 0, 84, 73
1, 330463, Note_off_c, 0, 80, 61
1, 330471, Control_c, 0, 64, 62
1, 330486, Control_c, 0, 64, 65
1, 330501, Control_c, 0, 64, 67
1, 330516, Control_c, 0, 64, 70
1, 330520, Note_off_c, 0, 84, 63
1, 330526, Note_on_c, 0, 90, 84
1, 330530, Control_c, 0, 64, 72
1, 330545, Control_c, 0, 64, 75
1, 330560, Note_on_c, 0, 54, 77
1, 330560, Control_c, 0, 64, 77
1, 330575, Control_c, 0, 64, 79
1, 330585, Note_on_c, 0, 84, 84
1, 330585, Note_off_c, 0, 90, 63
1, 330596, Note_off_c, 0, 51, 60
1, 330604, Control_c, 0, 64, 78
1, 330619, Control_c, 0, 64, 77
1, 330634, Control_c, 0, 64, 73
1, 330647, Note_on_c, 0, 90, 86
1, 330649, Control_c, 0, 64, 66
1, 330655, Note_on_c, 0, 56, 86
1, 330655, Note_off_c, 0, 84, 65
1, 330664, Control_c, 0, 64, 43
1, 330679, Control_c, 0, 64, 0
1, 330682, Note_off_c, 0, 54, 63
1, 330715, Note_on_c, 0, 84, 76
1, 330728, Note_off_c, 0, 90, 64
1, 330780, Note_off_c, 0, 84, 64
1, 330782, Control_c, 0, 64, 11
1, 330795, Note_on_c, 0, 80, 63
1, 330797, Control_c, 0, 64, 44
1, 330812, Control_c, 0, 64, 57
1, 330827, Control_c, 0, 64, 62
1, 330842, Control_c, 0, 64, 66
1, 330856, Control_c, 0, 64, 68
1, 330872, Control_c, 0, 64, 70
1, 330878, Note_on_c, 0, 84, 74
1, 330887, Control_c, 0, 64, 72
1, 330891, Note_off_c, 0, 80, 52
1, 330902, Control_c, 0, 64, 75
1, 330908, Note_off_c, 0, 56, 63
1, 330917, Control_c, 0, 64, 77
1, 330938, Note_on_c, 0, 60, 77
1, 330939, Control_c, 0, 64, 80
1, 330945, Note_off_c, 0, 84, 63
1, 330950, Note_on_c, 0, 90, 86
1, 330953, Control_c, 0, 64, 83
1, 330968, Control_c, 0, 64, 84
1, 330998, Control_c, 0, 64, 83
1, 331009, Note_on_c, 0, 84, 79
1, 331013, Control_c, 0, 64, 81
1, 331017, Note_off_c, 0, 90, 63
1, 331028, Control_c, 0, 64, 78
1, 331043, Control_c, 0, 64, 70
1, 331057, Control_c, 0, 64, 63
1, 331072, Control_c, 0, 64, 42
1, 331074, Note_on_c, 0, 63, 77
1, 331078, Note_on_c, 0, 90, 89
1, 331078, Note_off_c, 0, 60, 65
1, 331087, Control_c, 0, 64, 0
1, 331087, Note_off_c, 0, 84, 62
1, 331142, Note_on_c, 0, 84, 65
1, 331158, Note_off_c, 0, 90, 62
1, 331195, Note_off_c, 0, 84, 63
1, 331198, Note_on_c, 0, 80, 61
1, 331205, Control_c, 0, 64, 29
1, 331220, Control_c, 0, 64, 51
1, 331235, Control_c, 0, 64, 60
1, 331250, Control_c, 0, 64, 63
1, 331265, Control_c, 0, 64, 65
1, 331279, Control_c, 0, 64, 67
1, 331290, Note_on_c, 0, 84, 70
1, 331294, Control_c, 0, 64, 70
1, 331297, Note_off_c, 0, 80, 58
1, 331309, Control_c, 0, 64, 72
1, 331324, Control_c, 0, 64, 76
1, 331339, Control_c, 0, 64, 79
1, 331345, Note_off_c, 0, 84, 63
1, 331352, Note_on_c, 0, 66, 57
1, 331352, Note_on_c, 0, 90, 66
1, 331353, Control_c, 0, 64, 83
1, 331357, Note_off_c, 0, 63, 53
1, 331368, Control_c, 0, 64, 85
1, 331383, Control_c, 0, 64, 87
1, 331430, Note_off_c, 0, 90, 63
1, 331440, Note_on_c, 0, 87, 68
1, 331472, Control_c, 0, 64, 86
1, 331475, Note_off_c, 0, 66, 58
1, 331482, Note_on_c, 0, 68, 62
1, 331487, Control_c, 0, 64, 85
1, 331494, Note_off_c, 0, 87, 61
1, 331502, Control_c, 0, 64, 81
1, 331502, Note_on_c, 0, 90, 66
1, 331517, Control_c, 0, 64, 75
1, 331531, Control_c, 0, 64, 66
1, 331546, Control_c, 0, 64, 54
1, 331561, Control_c, 0, 64, 0
1, 331581, Note_off_c, 0, 90, 59
1, 331585, Note_on_c, 0, 87, 59
1, 331658, Note_off_c, 0, 87, 63
1, 331663, Note_on_c, 0, 80, 56
1, 331758, Note_on_c, 0, 87, 55
1, 331791, Control_c, 0, 64, 18
1, 331806, Control_c, 0, 64, 35
1, 331821, Control_c, 0, 64, 46
1, 331835, Control_c, 0, 64, 53
1, 331850, Control_c, 0, 64, 57
1, 331858, Note_on_c, 0, 90, 62
1, 331865, Control_c, 0, 64, 59
1, 331868, Note_off_c, 0, 87, 60
1, 331880, Control_c, 0, 64, 61
1, 331883, Note_off_c, 0, 80, 41
1, 331895, Control_c, 0, 64, 61
1, 331910, Control_c, 0, 64, 62
1, 331925, Control_c, 0, 64, 63
1, 331940, Control_c, 0, 64, 64
1, 331955, Control_c, 0, 64, 65
1, 331970, Control_c, 0, 64, 66
1, 331972, Note_on_c, 0, 87, 67
1, 331984, Control_c, 0, 64, 67
1, 331990, Note_on_c, 0, 72, 39
1, 331999, Control_c, 0, 64, 69
1, 332014, Control_c, 0, 64, 70
1, 332026, Note_off_c, 0, 90, 37
1, 332028, Control_c, 0, 64, 71
1, 332043, Control_c, 0, 64, 72
1, 332047, Note_off_c, 0, 68, 55
1, 332058, Control_c, 0, 64, 73
1, 332061, Note_off_c, 0, 72, 60
1, 332088, Control_c, 0, 64, 73
1, 332117, Control_c, 0, 67, 18
1, 332132, Control_c, 0, 67, 33
1, 332147, Control_c, 0, 64, 73
1, 332147, Control_c, 0, 67, 45
1, 332162, Control_c, 0, 64, 72
1, 332162, Control_c, 0, 67, 55
1, 332176, Control_c, 0, 67, 66
1, 332191, Control_c, 0, 64, 72
1, 332191, Control_c, 0, 67, 77
1, 332206, Control_c, 0, 64, 71
1, 332206, Control_c, 0, 67, 89
1, 332207, Note_on_c, 0, 89, 65
1, 332220, Note_on_c, 0, 61, 45
1, 332220, Control_c, 0, 64, 70
1, 332220, Control_c, 0, 67, 104
1, 332223, Note_off_c, 0, 87, 63
1, 332235, Control_c, 0, 64, 67
1, 332235, Control_c, 0, 67, 117
1, 332250, Control_c, 0, 64, 61
1, 332250, Control_c, 0, 67, 127
1, 332265, Control_c, 0, 64, 50
1, 332280, Control_c, 0, 64, 17
1, 332295, Control_c, 0, 64, 0
1, 332371, Note_off_c, 0, 61, 55
1, 332390, Note_on_c, 0, 68, 38
1, 332392, Note_on_c, 0, 73, 38
1, 332403, Note_on_c, 0, 65, 31
1, 332414, Control_c, 0, 64, 37
1, 332435, Control_c, 0, 64, 54
1, 332450, Control_c, 0, 64, 60
1, 332465, Control_c, 0, 64, 64
1, 332474, Note_off_c, 0, 73, 54
1, 332481, Control_c, 0, 64, 66
1, 332496, Control_c, 0, 64, 67
1, 332503, Note_off_c, 0, 68, 51
1, 332511, Control_c, 0, 64, 69
1, 332519, Note_off_c, 0, 65, 50
1, 332523, Note_on_c, 0, 61, 47
1, 332525, Control_c, 0, 64, 71
1, 332540, Control_c, 0, 64, 73
1, 332555, Control_c, 0, 64, 76
1, 332570, Control_c, 0, 64, 78
1, 332585, Control_c, 0, 64, 80
1, 332590, Note_off_c, 0, 89, 58
1, 332599, Control_c, 0, 64, 81
1, 332622, Note_off_c, 0, 61, 58
1, 332657, Note_on_c, 0, 73, 29
1, 332661, Note_on_c, 0, 68, 43
1, 332671, Note_on_c, 0, 65, 37
1, 332711, Note_off_c, 0, 73, 43
1, 332718, Note_off_c, 0, 68, 55
1, 332718, Control_c, 0, 67, 127
1, 332727, Note_off_c, 0, 65, 57
1, 332733, Control_c, 0, 64, 81
1, 332748, Control_c, 0, 67, 126
1, 332762, Note_on_c, 0, 61, 46
1, 332763, Control_c, 0, 67, 125
1, 332777, Control_c, 0, 67, 125
1, 332792, Control_c, 0, 67, 124
1, 332807, Control_c, 0, 67, 124
1, 332822, Control_c, 0, 67, 123
1, 332841, Note_off_c, 0, 61, 52
1, 332851, Control_c, 0, 67, 122
1, 332866, Control_c, 0, 67, 122
1, 332876, Note_on_c, 0, 73, 26
1, 332881, Control_c, 0, 64, 81
1, 332883, Note_on_c, 0, 65, 37
1, 332885, Note_on_c, 0, 68, 36
1, 332896, Control_c, 0, 67, 121
1, 332911, Control_c, 0, 67, 120
1, 332931, Note_off_c, 0, 73, 43
1, 332940, Control_c, 0, 67, 120
1, 332947, Note_off_c, 0, 68, 46
1, 332954, Note_off_c, 0, 65, 52
1, 332970, Control_c, 0, 67, 119
1, 332985, Control_c, 0, 67, 119
1, 332989, Note_on_c, 0, 61, 47
1, 332999, Control_c, 0, 67, 118
1, 333014, Control_c, 0, 67, 116
1, 333029, Control_c, 0, 67, 115
1, 333043, Control_c, 0, 67, 114
1, 333058, Control_c, 0, 67, 113
1, 333077, Note_off_c, 0, 61, 54
1, 333103, Control_c, 0, 67, 112
1, 333111, Note_on_c, 0, 68, 37
1, 333126, Note_on_c, 0, 65, 31
1, 333129, Note_on_c, 0, 73, 4
1, 333162, Control_c, 0, 67, 112
1, 333193, Note_off_c, 0, 73, 48
1, 333199, Note_off_c, 0, 68, 39
1, 333204, Note_off_c, 0, 65, 41
1, 333229, Control_c, 0, 67, 111
1, 333231, Note_on_c, 0, 61, 45
1, 333258, Control_c, 0, 67, 110
1, 333304, Control_c, 0, 67, 110
1, 333324, Note_off_c, 0, 61, 54
1, 333342, Note_on_c, 0, 77, 57
1, 333348, Control_c, 0, 67, 109
1, 333358, Note_on_c, 0, 73, 13
1, 333362, Note_on_c, 0, 65, 38
1, 333368, Note_on_c, 0, 68, 34
1, 333378, Control_c, 0, 67, 109
1, 333408, Control_c, 0, 67, 108
1, 333410, Note_off_c, 0, 73, 46
1, 333412, Note_off_c, 0, 68, 52
1, 333418, Note_off_c, 0, 65, 58
1, 333423, Control_c, 0, 67, 106
1, 333437, Control_c, 0, 67, 99
1, 333452, Control_c, 0, 67, 92
1, 333464, Note_on_c, 0, 61, 47
1, 333467, Control_c, 0, 64, 80
1, 333467, Control_c, 0, 67, 85
1, 333481, Control_c, 0, 67, 80
1, 333496, Control_c, 0, 67, 77
1, 333511, Control_c, 0, 67, 73
1, 333526, Note_off_c, 0, 61, 54
1, 333526, Control_c, 0, 67, 71
1, 333541, Control_c, 0, 67, 68
1, 333555, Control_c, 0, 67, 66
1, 333570, Note_on_c, 0, 68, 35
1, 333570, Control_c, 0, 67, 65
1, 333585, Control_c, 0, 67, 63
1, 333593, Note_on_c, 0, 65, 21
1, 333594, Note_on_c, 0, 73, 7
1, 333600, Control_c, 0, 67, 61
1, 333615, Control_c, 0, 67, 60
1, 333624, Note_on_c, 0, 80, 69
1, 333630, Control_c, 0, 67, 59
1, 333635, Note_off_c, 0, 68, 53
1, 333636, Note_off_c, 0, 65, 47
1, 333645, Control_c, 0, 67, 57
1, 333651, Note_off_c, 0, 73, 45
1, 333660, Control_c, 0, 67, 55
1, 333674, Control_c, 0, 67, 53
1, 333678, Note_on_c, 0, 61, 38
1, 333689, Control_c, 0, 67, 50
1, 333704, Control_c, 0, 67, 48
1, 333708, Note_on_c, 0, 85, 75
1, 333719, Control_c, 0, 67, 45
1, 333734, Note_off_c, 0, 80, 63
1, 333734, Control_c, 0, 67, 43
1, 333748, Control_c, 0, 67, 41
1, 333763, Control_c, 0, 67, 40
1, 333778, Control_c, 0, 67, 40
1, 333779, Note_off_c, 0, 61, 52
1, 333792, Control_c, 0, 67, 39
1, 333805, Note_on_c, 0, 68, 40
1, 333806, Note_on_c, 0, 65, 28
1, 333812, Note_on_c, 0, 73, 31
1, 333822, Control_c, 0, 67, 38
1, 333837, Control_c, 0, 67, 37
1, 333852, Control_c, 0, 67, 36
1, 333866, Control_c, 0, 67, 35
1, 333881, Control_c, 0, 67, 31
1, 333891, Note_off_c, 0, 73, 37
1, 333896, Control_c, 0, 67, 28
1, 333907, Note_off_c, 0, 68, 38
1, 333908, Note_off_c, 0, 65, 38
1, 333911, Control_c, 0, 67, 25
1, 333925, Note_on_c, 0, 61, 48
1, 333934, Control_c, 0, 67, 23
1, 333948, Control_c, 0, 67, 21
1, 333963, Control_c, 0, 67, 18
1, 333978, Control_c, 0, 67, 14
1, 333993, Control_c, 0, 67, 11
1, 334007, Control_c, 0, 67, 9
1, 334022, Control_c, 0, 67, 0
1, 334038, Note_off_c, 0, 61, 59
1, 334056, Note_on_c, 0, 89, 81
1, 334057, Note_on_c, 0, 73, 43
1, 334070, Note_on_c, 0, 68, 40
1, 334074, Note_off_c, 0, 77, 61
1, 334076, Note_off_c, 0, 85, 64
1, 334080, Note_on_c, 0, 65, 37
1, 334122, Note_off_c, 0, 73, 52
1, 334126, Note_off_c, 0, 68, 55
1, 334131, Note_off_c, 0, 65, 50
1, 334140, Note_off_c, 0, 89, 62
1, 334167, Note_on_c, 0, 61, 55
1, 334267, Note_off_c, 0, 61, 56
1, 334281, Note_on_c, 0, 73, 47
1, 334287, Note_on_c, 0, 68, 53
1, 334336, Note_on_c, 0, 85, 75
1, 334344, Note_off_c, 0, 73, 59
1, 334349, Control_c, 0, 64, 80
1, 334369, Note_off_c, 0, 68, 54
1, 334378, Control_c, 0, 64, 78
1, 334393, Control_c, 0, 64, 75
1, 334397, Note_off_c, 0, 85, 64
1, 334408, Control_c, 0, 64, 68
1, 334417, Note_on_c, 0, 84, 83
1, 334421, Note_on_c, 0, 63, 54
1, 334423, Control_c, 0, 64, 60
1, 334438, Control_c, 0, 64, 38
1, 334453, Control_c, 0, 64, 0
1, 334534, Note_off_c, 0, 63, 60
1, 334554, Note_on_c, 0, 68, 44
1, 334557, Control_c, 0, 64, 31
1, 334560, Note_on_c, 0, 75, 46
1, 334561, Note_on_c, 0, 66, 39
1, 334571, Control_c, 0, 64, 52
1, 334586, Control_c, 0, 64, 63
1, 334601, Control_c, 0, 64, 67
1, 334611, Note_off_c, 0, 66, 59
1, 334614, Note_off_c, 0, 75, 56
1, 334615, Control_c, 0, 64, 70
1, 334623, Note_off_c, 0, 68, 59
1, 334630, Control_c, 0, 64, 74
1, 334645, Control_c, 0, 64, 78
1, 334660, Control_c, 0, 64, 81
1, 334661, Note_on_c, 0, 63, 57
1, 334682, Control_c, 0, 64, 84
1, 334697, Control_c, 0, 64, 86
1, 334712, Control_c, 0, 64, 87
1, 334727, Control_c, 0, 64, 87
1, 334742, Control_c, 0, 64, 88
1, 334757, Control_c, 0, 64, 88
1, 334768, Note_off_c, 0, 63, 60
1, 334782, Note_on_c, 0, 87, 82
1, 334786, Note_off_c, 0, 84, 64
1, 334793, Note_on_c, 0, 75, 47
1, 334796, Note_on_c, 0, 68, 42
1, 334801, Control_c, 0, 64, 89
1, 334816, Control_c, 0, 64, 89
1, 334830, Control_c, 0, 64, 90
1, 334835, Poly_aftertouch_c, 0, 66, 127
1, 334844, Note_off_c, 0, 75, 54
1, 334845, Control_c, 0, 64, 91
1, 334853, Note_off_c, 0, 87, 61
1, 334855, Note_off_c, 0, 68, 54
1, 334876, Control_c, 0, 64, 91
1, 334877, Poly_aftertouch_c, 0, 66, 0
1, 334897, Note_on_c, 0, 63, 59
1, 334935, Control_c, 0, 64, 92
1, 334974, Note_off_c, 0, 63, 49
1, 334992, Note_on_c, 0, 68, 45
1, 335011, Note_on_c, 0, 75, 52
1, 335023, Note_off_c, 0, 68, 52
1, 335052, Control_c, 0, 64, 91
1, 335065, Note_on_c, 0, 84, 74
1, 335067, Control_c, 0, 64, 91
1, 335069, Note_off_c, 0, 75, 57
1, 335082, Control_c, 0, 64, 89
1, 335097, Control_c, 0, 64, 87
1, 335112, Control_c, 0, 64, 85
1, 335126, Control_c, 0, 64, 80
1, 335141, Control_c, 0, 64, 70
1, 335148, Note_on_c, 0, 65, 54
1, 335155, Note_off_c, 0, 84, 63
1, 335156, Control_c, 0, 64, 60
1, 335157, Note_on_c, 0, 85, 73
1, 335171, Control_c, 0, 64, 30
1, 335186, Control_c, 0, 64, 0
1, 335253, Note_on_c, 0, 68, 49
1, 335255, Note_off_c, 0, 65, 50
1, 335284, Note_on_c, 0, 77, 44
1, 335286, Note_on_c, 0, 73, 46
1, 335290, Control_c, 0, 64, 40
1, 335305, Control_c, 0, 64, 54
1, 335319, Control_c, 0, 64, 62
1, 335334, Control_c, 0, 64, 65
1, 335342, Note_off_c, 0, 77, 56
1, 335349, Control_c, 0, 64, 67
1, 335360, Note_off_c, 0, 73, 48
1, 335364, Control_c, 0, 64, 69
1, 335366, Note_off_c, 0, 68, 50
1, 335379, Control_c, 0, 64, 71
1, 335393, Control_c, 0, 64, 72
1, 335405, Note_on_c, 0, 65, 49
1, 335408, Control_c, 0, 64, 73
1, 335430, Control_c, 0, 64, 75
1, 335445, Control_c, 0, 64, 75
1, 335460, Control_c, 0, 64, 76
1, 335475, Control_c, 0, 64, 76
1, 335520, Control_c, 0, 64, 77
1, 335541, Note_off_c, 0, 65, 53
1, 335544, Note_on_c, 0, 80, 65
1, 335545, Note_on_c, 0, 73, 24
1, 335549, Control_c, 0, 64, 77
1, 335555, Note_on_c, 0, 77, 46
1, 335564, Control_c, 0, 64, 78
1, 335574, Note_on_c, 0, 68, 27
1, 335579, Control_c, 0, 64, 79
1, 335593, Control_c, 0, 64, 80
1, 335608, Control_c, 0, 64, 80
1, 335609, Note_off_c, 0, 77, 56
1, 335623, Control_c, 0, 64, 81
1, 335649, Note_off_c, 0, 73, 35
1, 335652, Control_c, 0, 64, 81
1, 335668, Control_c, 0, 64, 82
1, 335683, Control_c, 0, 64, 82
1, 335684, Note_off_c, 0, 68, 30
1, 335686, Note_on_c, 0, 65, 52
1, 335713, Control_c, 0, 64, 83
1, 335728, Control_c, 0, 64, 83
1, 335768, Note_off_c, 0, 65, 55
1, 335772, Control_c, 0, 64, 84
1, 335780, Note_on_c, 0, 73, 42
1, 335802, Note_on_c, 0, 68, 23
1, 335802, Control_c, 0, 64, 84
1, 335803, Note_on_c, 0, 77, 43
1, 335816, Control_c, 0, 64, 85
1, 335831, Control_c, 0, 64, 85
1, 335836, Note_off_c, 0, 77, 50
1, 335850, Note_off_c, 0, 73, 54
1, 335861, Control_c, 0, 64, 86
1, 335872, Note_off_c, 0, 80, 49
1, 335908, Note_on_c, 0, 65, 54
1, 335935, Control_c, 0, 64, 86
1, 335942, Note_off_c, 0, 85, 39
1, 335979, Control_c, 0, 64, 87
1, 335988, Note_off_c, 0, 65, 51
1, 335995, Note_off_c, 0, 68, 0
1, 336006, Note_on_c, 0, 73, 42
1, 336009, Note_on_c, 0, 77, 51
1, 336009, Control_c, 0, 64, 87
1, 336014, Note_on_c, 0, 68, 13
1, 336024, Control_c, 0, 64, 88
1, 336039, Control_c, 0, 64, 89
1, 336053, Control_c, 0, 64, 89
1, 336056, Note_off_c, 0, 77, 52
1, 336068, Control_c, 0, 64, 90
1, 336083, Control_c, 0, 64, 90
1, 336084, Note_off_c, 0, 73, 52
1, 336098, Control_c, 0, 64, 91
1, 336131, Note_on_c, 0, 65, 53
1, 336142, Note_off_c, 0, 68, 37
1, 336157, Control_c, 0, 64, 91
1, 336235, Note_off_c, 0, 65, 59
1, 336242, Note_on_c, 0, 77, 69
1, 336259, Note_on_c, 0, 73, 43
1, 336276, Note_on_c, 0, 68, 47
1, 336283, Control_c, 0, 64, 92
1, 336319, Note_off_c, 0, 73, 56
1, 336334, Note_off_c, 0, 68, 55
1, 336365, Note_on_c, 0, 65, 53
1, 336450, Note_off_c, 0, 65, 58
1, 336474, Note_on_c, 0, 73, 51
1, 336482, Note_on_c, 0, 68, 46
1, 336529, Note_on_c, 0, 80, 72
1, 336538, Note_off_c, 0, 77, 57
1, 336566, Note_off_c, 0, 73, 50
1, 336590, Note_on_c, 0, 65, 57
1, 336601, Note_on_c, 0, 85, 78
1, 336604, Note_off_c, 0, 68, 0
1, 336609, Note_off_c, 0, 80, 63
1, 336681, Poly_aftertouch_c, 0, 68, 0
1, 336684, Control_c, 0, 64, 92
1, 336698, Note_off_c, 0, 65, 57
1, 336703, Note_on_c, 0, 68, 16
1, 336724, Note_on_c, 0, 73, 49
1, 336727, Note_on_c, 0, 77, 57
1, 336743, Control_c, 0, 64, 93
1, 336758, Control_c, 0, 64, 93
1, 336772, Control_c, 0, 64, 94
1, 336778, Note_off_c, 0, 77, 56
1, 336800, Note_off_c, 0, 73, 51
1, 336802, Control_c, 0, 64, 94
1, 336831, Note_on_c, 0, 65, 61
1, 336832, Control_c, 0, 64, 95
1, 336950, Note_on_c, 0, 89, 88
1, 336960, Note_on_c, 0, 77, 58
1, 336961, Note_off_c, 0, 65, 57
1, 336968, Note_off_c, 0, 85, 66
1, 336969, Note_on_c, 0, 73, 42
1, 337002, Control_c, 0, 64, 95
1, 337022, Note_off_c, 0, 89, 63
1, 337031, Note_off_c, 0, 77, 58
1, 337031, Control_c, 0, 64, 96
1, 337046, Control_c, 0, 64, 96
1, 337061, Control_c, 0, 64, 97
1, 337076, Control_c, 0, 64, 99
1, 337082, Note_on_c, 0, 65, 62
1, 337091, Control_c, 0, 64, 101
1, 337106, Control_c, 0, 64, 104
1, 337116, Note_off_c, 0, 73, 36
1, 337121, Control_c, 0, 64, 105
1, 337136, Control_c, 0, 64, 106
1, 337151, Note_off_c, 0, 65, 57
1, 337169, Note_on_c, 0, 77, 63
1, 337195, Note_on_c, 0, 73, 49
1, 337222, Note_on_c, 0, 85, 81
1, 337228, Note_off_c, 0, 77, 63
1, 337232, Note_off_c, 0, 68, 41
1, 337239, Control_c, 0, 64, 104
1, 337254, Control_c, 0, 64, 102
1, 337267, Note_off_c, 0, 85, 68
1, 337269, Control_c, 0, 64, 97
1, 337284, Control_c, 0, 64, 85
1, 337291, Note_off_c, 0, 73, 36
1, 337299, Control_c, 0, 64, 71
1, 337303, Note_on_c, 0, 66, 65
1, 337313, Control_c, 0, 64, 57
1, 337316, Note_on_c, 0, 84, 90
1, 337328, Control_c, 0, 64, 0
1, 337409, Note_off_c, 0, 66, 57
1, 337431, Note_on_c, 0, 69, 42
1, 337432, Control_c, 0, 64, 37
1, 337440, Note_on_c, 0, 72, 50
1, 337445, Note_on_c, 0, 75, 53
1, 337446, Control_c, 0, 64, 54
1, 337461, Control_c, 0, 64, 63
1, 337476, Control_c, 0, 64, 67
1, 337491, Control_c, 0, 64, 72
1, 337506, Control_c, 0, 64, 78
1, 337520, Control_c, 0, 64, 85
1, 337524, Note_off_c, 0, 75, 60
1, 337535, Control_c, 0, 64, 94
1, 337537, Note_off_c, 0, 72, 59
1, 337550, Control_c, 0, 64, 110
1, 337559, Note_on_c, 0, 66, 67
1, 337565, Control_c, 0, 64, 127
1, 337611, Note_off_c, 0, 69, 31
1, 337659, Note_off_c, 0, 66, 60
1, 337670, Note_on_c, 0, 87, 91
1, 337672, Note_on_c, 0, 75, 61
1, 337673, Note_on_c, 0, 72, 62
1, 337674, Note_off_c, 0, 84, 64
1, 337714, Poly_aftertouch_c, 0, 69, 127
1, 337723, Note_off_c, 0, 87, 67
1, 337746, Note_off_c, 0, 75, 59
1, 337762, Note_off_c, 0, 72, 60
1, 337782, Note_on_c, 0, 66, 77
1, 337873, Note_on_c, 0, 72, 69
1, 337876, Note_on_c, 0, 75, 73
1, 337922, Note_off_c, 0, 66, 59
1, 337923, Poly_aftertouch_c, 0, 69, 0
1, 337927, Note_on_c, 0, 84, 90
1, 337954, Note_off_c, 0, 75, 60
1, 337961, Note_off_c, 0, 72, 58
1, 338013, Note_on_c, 0, 83, 97
1, 338028, Note_on_c, 0, 65, 60
1, 338045, Note_off_c, 0, 84, 64
1, 338046, Control_c, 0, 64, 119
1, 338062, Control_c, 0, 64, 89
1, 338077, Control_c, 0, 64, 71
1, 338092, Control_c, 0, 64, 55
1, 338107, Control_c, 0, 64, 0
1, 338124, Note_off_c, 0, 65, 59
1, 338138, Note_on_c, 0, 71, 60
1, 338147, Note_on_c, 0, 74, 59
1, 338151, Note_on_c, 0, 68, 42
1, 338243, Note_off_c, 0, 71, 58
1, 338250, Note_off_c, 0, 68, 45
1, 338253, Note_on_c, 0, 65, 58
1, 338270, Note_off_c, 0, 74, 42
1, 338370, Note_on_c, 0, 86, 83
1, 338374, Note_off_c, 0, 65, 59
1, 338376, Note_on_c, 0, 71, 58
1, 338391, Note_on_c, 0, 74, 52
1, 338396, Note_on_c, 0, 68, 32
1, 338462, Note_off_c, 0, 74, 53
1, 338469, Control_c, 0, 64, 20
1, 338471, Note_off_c, 0, 71, 59
1, 338484, Control_c, 0, 64, 39
1, 338499, Control_c, 0, 64, 52
1, 338505, Note_on_c, 0, 65, 58
1, 338514, Control_c, 0, 64, 58
1, 338521, Note_off_c, 0, 68, 0
1, 338529, Control_c, 0, 64, 61
1, 338543, Control_c, 0, 64, 63
1, 338558, Control_c, 0, 64, 65
1, 338563, Poly_aftertouch_c, 0, 68, 0
1, 338573, Control_c, 0, 64, 66
1, 338588, Control_c, 0, 64, 68
1, 338592, Note_off_c, 0, 83, 54
1, 338603, Control_c, 0, 64, 71
1, 338605, Note_off_c, 0, 65, 59
1, 338617, Control_c, 0, 64, 75
1, 338621, Note_on_c, 0, 71, 50
1, 338626, Note_on_c, 0, 68, 26
1, 338627, Note_on_c, 0, 74, 47
1, 338632, Control_c, 0, 64, 80
1, 338647, Control_c, 0, 64, 87
1, 338662, Control_c, 0, 64, 95
1, 338663, Note_off_c, 0, 86, 55
1, 338677, Control_c, 0, 64, 110
1, 338692, Control_c, 0, 64, 127
1, 338706, Note_off_c, 0, 74, 54
1, 338708, Note_off_c, 0, 71, 59
1, 338734, Note_on_c, 0, 65, 57
1, 338754, Note_off_c, 0, 68, 33
1, 338838, Note_off_c, 0, 65, 60
1, 338848, Note_on_c, 0, 71, 55
1, 338857, Note_on_c, 0, 74, 53
1, 338885, Note_on_c, 0, 68, 34
1, 338914, Note_off_c, 0, 74, 55
1, 338932, Note_off_c, 0, 71, 58
1, 338952, Note_off_c, 0, 68, 40
1, 338958, Note_on_c, 0, 65, 66
1, 339055, Note_off_c, 0, 65, 61
1, 339065, Note_on_c, 0, 74, 63
1, 339066, Note_on_c, 0, 71, 60
1, 339068, Note_on_c, 0, 86, 90
1, 339118, Note_on_c, 0, 68, 27
1, 339133, Note_off_c, 0, 86, 66
1, 339154, Note_off_c, 0, 74, 57
1, 339156, Note_off_c, 0, 71, 60
1, 339185, Note_off_c, 0, 68, 40
1, 339187, Note_on_c, 0, 65, 66
1, 339274, Note_on_c, 0, 68, 7
1, 339274, Note_off_c, 0, 65, 62
1, 339285, Note_on_c, 0, 74, 63
1, 339289, Note_on_c, 0, 71, 60
1, 339326, Note_on_c, 0, 83, 84
1, 339333, Note_off_c, 0, 68, 35
1, 339366, Note_off_c, 0, 74, 60
1, 339399, Note_off_c, 0, 71, 59
1, 339407, Note_off_c, 0, 83, 62
1, 339410, Note_on_c, 0, 84, 105
1, 339412, Control_c, 0, 64, 113
1, 339421, Note_on_c, 0, 64, 68
1, 339427, Control_c, 0, 64, 78
1, 339441, Control_c, 0, 64, 60
1, 339456, Control_c, 0, 64, 0
1, 339530, Note_off_c, 0, 64, 63
1, 339533, Note_on_c, 0, 72, 61
1, 339536, Note_on_c, 0, 76, 67
1, 339540, Note_on_c, 0, 67, 46
1, 339589, Control_c, 0, 64, 25
1, 339604, Control_c, 0, 64, 54
1, 339619, Control_c, 0, 64, 63
1, 339631, Note_off_c, 0, 76, 58
1, 339634, Control_c, 0, 64, 69
1, 339642, Note_off_c, 0, 67, 32
1, 339645, Note_off_c, 0, 72, 60
1, 339648, Control_c, 0, 64, 77
1, 339654, Note_on_c, 0, 64, 65
1, 339664, Control_c, 0, 64, 93
1, 339679, Control_c, 0, 64, 127
1, 339780, Note_off_c, 0, 64, 59
1, 339784, Note_on_c, 0, 76, 61
1, 339788, Note_on_c, 0, 72, 56
1, 339789, Note_on_c, 0, 67, 45
1, 339800, Note_on_c, 0, 88, 90
1, 339840, Note_off_c, 0, 84, 61
1, 339860, Note_off_c, 0, 76, 59
1, 339880, Note_off_c, 0, 88, 65
1, 339896, Note_off_c, 0, 72, 57
1, 339920, Note_on_c, 0, 64, 61
1, 340025, Note_on_c, 0, 72, 66
1, 340027, Note_off_c, 0, 64, 62
1, 340044, Note_on_c, 0, 76, 58
1, 340081, Note_off_c, 0, 76, 64
1, 340110, Note_off_c, 0, 72, 61
1, 340140, Note_on_c, 0, 64, 73
1, 340154, Note_off_c, 0, 67, 36
1, 340241, Note_on_c, 0, 72, 66
1, 340241, Note_off_c, 0, 64, 59
1, 340244, Note_on_c, 0, 67, 49
1, 340251, Note_on_c, 0, 76, 68
1, 340306, Note_off_c, 0, 76, 60
1, 340326, Note_off_c, 0, 72, 56
1, 340343, Note_on_c, 0, 64, 76
1, 340343, Note_off_c, 0, 67, 35
1, 340441, Note_on_c, 0, 72, 69
1, 340442, Note_off_c, 0, 64, 60
1, 340446, Note_on_c, 0, 67, 45
1, 340446, Note_on_c, 0, 91, 101
1, 340447, Note_on_c, 0, 76, 80
1, 340447, Note_on_c, 0, 79, 95
1, 340508, Note_off_c, 0, 91, 65
1, 340510, Note_off_c, 0, 76, 62
1, 340520, Note_off_c, 0, 79, 57
1, 340536, Note_off_c, 0, 67, 0
1, 340545, Note_off_c, 0, 72, 60
1, 340553, Note_on_c, 0, 64, 75
1, 340573, Poly_aftertouch_c, 0, 67, 127
1, 340621, Note_off_c, 0, 64, 60
1, 340622, Note_on_c, 0, 76, 76
1, 340628, Poly_aftertouch_c, 0, 67, 0
1, 340646, Note_off_c, 0, 76, 67
1, 340712, Note_on_c, 0, 77, 97
1, 340716, Note_on_c, 0, 89, 90
1, 340753, Note_off_c, 0, 77, 66
1, 340756, Note_off_c, 0, 89, 64
1, 340802, Note_on_c, 0, 58, 73
1, 340807, Note_on_c, 0, 88, 98
1, 340808, Note_on_c, 0, 76, 100
1, 340820, Control_c, 0, 64, 72
1, 340835, Control_c, 0, 64, 35
1, 340850, Control_c, 0, 64, 0
1, 340912, Poly_aftertouch_c, 0, 57, 0
1, 340924, Note_on_c, 0, 67, 73
1, 340930, Note_on_c, 0, 64, 56
1, 340937, Note_on_c, 0, 61, 61
1, 340939, Control_c, 0, 64, 46
1, 340954, Control_c, 0, 64, 63
1, 340960, Note_off_c, 0, 58, 60
1, 340969, Control_c, 0, 64, 73
1, 340984, Control_c, 0, 64, 99
1, 340996, Note_off_c, 0, 76, 57
1, 340999, Control_c, 0, 64, 127
1, 341024, Note_off_c, 0, 67, 60
1, 341031, Note_off_c, 0, 88, 60
1, 341050, Note_on_c, 0, 58, 83
1, 341050, Note_off_c, 0, 61, 61
1, 341057, Note_off_c, 0, 64, 63
1, 341166, Note_on_c, 0, 64, 73
1, 341166, Note_on_c, 0, 67, 74
1, 341170, Note_on_c, 0, 61, 66
1, 341170, Note_off_c, 0, 58, 61
1, 341180, Note_on_c, 0, 79, 97
1, 341180, Note_on_c, 0, 91, 107
1, 341261, Note_off_c, 0, 67, 61
1, 341290, Note_on_c, 0, 58, 75
1, 341291, Note_off_c, 0, 61, 60
1, 341298, Note_off_c, 0, 64, 61
1, 341339, Note_off_c, 0, 91, 59
1, 341392, Note_off_c, 0, 79, 56
1, 341425, Note_on_c, 0, 67, 66
1, 341425, Note_on_c, 0, 64, 66
1, 341430, Note_off_c, 0, 58, 59
1, 341431, Note_on_c, 0, 61, 59
1, 341501, Note_off_c, 0, 67, 60
1, 341526, Note_off_c, 0, 64, 61
1, 341533, Note_on_c, 0, 58, 79
1, 341555, Note_off_c, 0, 61, 35
1, 341640, Note_on_c, 0, 64, 70
1, 341641, Note_on_c, 0, 67, 73
1, 341641, Note_off_c, 0, 58, 58
1, 341653, Note_on_c, 0, 61, 63
1, 341711, Note_off_c, 0, 67, 60
1, 341738, Note_on_c, 0, 58, 85
1, 341741, Note_off_c, 0, 64, 55
1, 341744, Note_off_c, 0, 61, 60
1, 341830, Note_on_c, 0, 64, 67
1, 341831, Note_on_c, 0, 67, 76
1, 341834, Note_off_c, 0, 58, 62
1, 341851, Note_on_c, 0, 61, 60
1, 341854, Note_on_c, 0, 79, 100
1, 341854, Note_on_c, 0, 91, 107
1, 341898, Note_off_c, 0, 91, 66
1, 341905, Note_off_c, 0, 67, 63
1, 341906, Note_off_c, 0, 79, 65
1, 341919, Note_off_c, 0, 61, 45
1, 341928, Note_on_c, 0, 58, 86
1, 341930, Note_off_c, 0, 64, 59
1, 342009, Note_on_c, 0, 61, 61
1, 342014, Note_on_c, 0, 64, 69
1, 342026, Note_on_c, 0, 67, 77
1, 342026, Note_off_c, 0, 58, 58
1, 342090, Note_off_c, 0, 61, 58
1, 342097, Note_on_c, 0, 76, 93
1, 342098, Note_on_c, 0, 88, 89
1, 342105, Note_off_c, 0, 64, 53
1, 342111, Note_off_c, 0, 67, 56
1, 342129, Note_off_c, 0, 76, 61
1, 342129, Note_off_c, 0, 88, 62
1, 342184, Control_c, 0, 64, 83
1, 342194, Note_on_c, 0, 56, 78
1, 342197, Note_on_c, 0, 89, 99
1, 342197, Note_on_c, 0, 77, 105
1, 342199, Control_c, 0, 64, 56
1, 342214, Control_c, 0, 64, 0
1, 342310, Note_on_c, 0, 60, 76
1, 342316, Note_on_c, 0, 68, 86
1, 342316, Note_on_c, 0, 65, 76
1, 342317, Control_c, 0, 64, 60
1, 342326, Note_off_c, 0, 56, 61
1, 342332, Control_c, 0, 64, 73
1, 342347, Control_c, 0, 64, 127
1, 342355, Note_off_c, 0, 77, 60
1, 342382, Note_off_c, 0, 89, 62
1, 342415, Note_off_c, 0, 68, 56
1, 342433, Note_on_c, 0, 56, 88
1, 342456, Note_off_c, 0, 65, 59
1, 342474, Note_off_c, 0, 60, 55
1, 342584, Note_off_c, 0, 56, 61
1, 342585, Note_on_c, 0, 65, 76
1, 342591, Note_on_c, 0, 60, 64
1, 342592, Note_on_c, 0, 68, 88
1, 342602, Note_on_c, 0, 80, 110
1, 342604, Note_on_c, 0, 92, 114
1, 342686, Note_off_c, 0, 60, 51
1, 342690, Note_off_c, 0, 68, 59
1, 342733, Note_on_c, 0, 56, 83
1, 342743, Note_off_c, 0, 65, 57
1, 342846, Note_on_c, 0, 65, 72
1, 342847, Note_on_c, 0, 68, 83
1, 342859, Note_off_c, 0, 56, 61
1, 342871, Note_on_c, 0, 60, 55
1, 342918, Note_off_c, 0, 60, 56
1, 342920, Note_off_c, 0, 68, 59
1, 342936, Note_off_c, 0, 92, 53
1, 342944, Note_off_c, 0, 80, 55
1, 342945, Note_off_c, 0, 65, 57
1, 342966, Note_on_c, 0, 56, 86
1, 343068, Note_on_c, 0, 65, 66
1, 343073, Note_on_c, 0, 68, 85
1, 343077, Note_on_c, 0, 60, 64
1, 343087, Note_off_c, 0, 56, 63
1, 343139, Note_off_c, 0, 68, 61
1, 343158, Note_off_c, 0, 65, 58
1, 343178, Note_on_c, 0, 56, 85
1, 343276, Note_on_c, 0, 65, 73
1, 343279, Note_off_c, 0, 60, 0
1, 343279, Note_on_c, 0, 60, 12
1, 343285, Note_on_c, 0, 68, 90
1, 343294, Note_off_c, 0, 56, 61
1, 343295, Note_on_c, 0, 92, 103
1, 343297, Note_on_c, 0, 80, 109
1, 343340, Note_off_c, 0, 60, 59
1, 343346, Note_off_c, 0, 92, 67
1, 343354, Note_off_c, 0, 68, 61
1, 343395, Note_off_c, 0, 80, 58
1, 343401, Note_off_c, 0, 65, 57
1, 343406, Note_on_c, 0, 56, 84
1, 343443, Note_on_c, 0, 68, 88
1, 343490, Note_off_c, 0, 56, 63
1, 343490, Note_off_c, 0, 68, 61
1, 343565, Note_on_c, 0, 77, 103
1, 343567, Note_on_c, 0, 89, 94
1, 343604, Note_off_c, 0, 89, 64
1, 343639, Note_off_c, 0, 77, 62
1, 343683, Control_c, 0, 64, 108
1, 343698, Control_c, 0, 64, 65
1, 343712, Control_c, 0, 64, 0
1, 343742, Control_c, 0, 64, 69
1, 343756, Control_c, 0, 64, 127
1, 343769, Note_on_c, 0, 46, 101
1, 343774, Note_on_c, 0, 34, 88
1, 343798, Note_on_c, 0, 44, 54
1, 343820, Note_off_c, 0, 34, 63
1, 343822, Note_off_c, 0, 46, 66
1, 343827, Note_off_c, 0, 44, 58
1, 343920, Note_on_c, 0, 61, 76
1, 343966, Note_on_c, 0, 58, 83
1, 344031, Note_on_c, 0, 66, 88
1, 344033, Note_off_c, 0, 61, 60
1, 344042, Note_off_c, 0, 58, 64
1, 344069, Note_on_c, 0, 49, 70
1, 344087, Note_off_c, 0, 66, 64
1, 344119, Note_on_c, 0, 54, 76
1, 344171, Note_on_c, 0, 58, 98
1, 344182, Note_off_c, 0, 49, 52
1, 344203, Note_off_c, 0, 54, 66
1, 344218, Note_off_c, 0, 58, 67
1, 344265, Note_on_c, 0, 66, 77
1, 344323, Note_on_c, 0, 61, 80
1, 344385, Note_on_c, 0, 70, 89
1, 344385, Note_off_c, 0, 66, 57
1, 344396, Note_off_c, 0, 61, 57
1, 344457, Note_off_c, 0, 70, 60
1, 344465, Note_on_c, 0, 54, 75
1, 344502, Note_on_c, 0, 58, 79
1, 344535, Note_off_c, 0, 54, 63
1, 344569, Note_on_c, 0, 61, 96
1, 344585, Note_off_c, 0, 58, 62
1, 344609, Note_off_c, 0, 61, 65
1, 344650, Note_on_c, 0, 70, 80
1, 344718, Note_on_c, 0, 66, 73
1, 344766, Note_off_c, 0, 70, 57
1, 344773, Note_off_c, 0, 66, 61
1, 344782, Note_on_c, 0, 73, 91
1, 344825, Note_on_c, 0, 58, 69
1, 344836, Note_off_c, 0, 73, 65
1, 344876, Note_on_c, 0, 61, 78
1, 344915, Note_off_c, 0, 58, 62
1, 344941, Note_on_c, 0, 66, 94
1, 344972, Note_off_c, 0, 61, 60
1, 344991, Note_off_c, 0, 66, 66
1, 345030, Note_on_c, 0, 73, 84
1, 345077, Note_on_c, 0, 70, 86
1, 345136, Note_off_c, 0, 73, 45
1, 345139, Note_on_c, 0, 78, 92
1, 345157, Note_off_c, 0, 70, 59
1, 345205, Note_on_c, 0, 61, 68
1, 345208, Note_off_c, 0, 78, 66
1, 345260, Note_on_c, 0, 66, 77
1, 345302, Note_off_c, 0, 61, 60
1, 345333, Note_on_c, 0, 70, 95
1, 345363, Note_off_c, 0, 66, 62
1, 345384, Note_off_c, 0, 70, 66
1, 345410, Note_on_c, 0, 78, 83
1, 345474, Note_on_c, 0, 73, 83
1, 345511, Note_off_c, 0, 78, 60
1, 345539, Note_off_c, 0, 73, 65
1, 345546, Note_on_c, 0, 82, 92
1, 345595, Note_on_c, 0, 66, 69
1, 345608, Note_off_c, 0, 82, 65
1, 345646, Note_on_c, 0, 70, 81
1, 345680, Note_off_c, 0, 66, 61
1, 345718, Note_on_c, 0, 73, 97
1, 345723, Note_off_c, 0, 70, 64
1, 345763, Note_off_c, 0, 73, 66
1, 345787, Note_on_c, 0, 82, 84
1, 345852, Note_on_c, 0, 78, 85
1, 345890, Note_off_c, 0, 82, 62
1, 345918, Note_on_c, 0, 85, 85
1, 345923, Note_off_c, 0, 78, 65
1, 345975, Note_off_c, 0, 85, 63
1, 345985, Note_on_c, 0, 70, 69
1, 346023, Note_on_c, 0, 73, 76
1, 346073, Note_off_c, 0, 70, 60
1, 346096, Note_on_c, 0, 78, 98
1, 346118, Note_off_c, 0, 73, 65
1, 346143, Note_off_c, 0, 78, 66
1, 346180, Note_on_c, 0, 85, 81
1, 346228, Note_on_c, 0, 82, 84
1, 346262, Note_off_c, 0, 85, 65
1, 346293, Note_on_c, 0, 90, 97
1, 346304, Note_off_c, 0, 82, 65
1, 346343, Note_on_c, 0, 73, 67
1, 346358, Note_off_c, 0, 90, 63
1, 346376, Note_on_c, 0, 78, 76
1, 346455, Note_on_c, 0, 82, 104
1, 346490, Note_off_c, 0, 78, 65
1, 346495, Note_off_c, 0, 82, 70
1, 346513, Note_off_c, 0, 73, 65
1, 346639, Note_on_c, 0, 90, 89
1, 346696, Note_on_c, 0, 85, 72
1, 346749, Note_on_c, 0, 94, 104
1, 346751, Note_off_c, 0, 90, 58
1, 346780, Control_c, 0, 64, 91
1, 346795, Control_c, 0, 64, 64
1, 346796, Note_off_c, 0, 85, 65
1, 346796, Note_off_c, 0, 94, 64
1, 346810, Control_c, 0, 64, 0
1, 346870, Control_c, 0, 64, 30
1, 346885, Control_c, 0, 64, 79
1, 346900, Note_on_c, 0, 48, 104
1, 346900, Control_c, 0, 64, 127
1, 346909, Note_on_c, 0, 36, 79
1, 346935, Note_off_c, 0, 36, 65
1, 346951, Note_off_c, 0, 48, 64
1, 347038, Note_on_c, 0, 63, 79
1, 347097, Note_on_c, 0, 60, 80
1, 347144, Note_off_c, 0, 63, 63
1, 347151, Note_on_c, 0, 69, 91
1, 347161, Note_off_c, 0, 60, 65
1, 347181, Note_on_c, 0, 51, 72
1, 347208, Note_off_c, 0, 69, 67
1, 347230, Note_on_c, 0, 57, 76
1, 347285, Note_off_c, 0, 51, 63
1, 347295, Note_on_c, 0, 60, 92
1, 347318, Note_off_c, 0, 57, 64
1, 347348, Note_off_c, 0, 60, 65
1, 347380, Note_on_c, 0, 69, 78
1, 347449, Note_on_c, 0, 63, 83
1, 347473, Note_off_c, 0, 69, 59
1, 347488, Note_off_c, 0, 63, 66
1, 347509, Note_on_c, 0, 72, 84
1, 347558, Poly_aftertouch_c, 0, 64, 127
1, 347560, Note_on_c, 0, 57, 68
1, 347565, Note_off_c, 0, 72, 66
1, 347591, Poly_aftertouch_c, 0, 64, 0
1, 347604, Note_on_c, 0, 60, 74
1, 347668, Note_on_c, 0, 63, 101
1, 347682, Note_off_c, 0, 57, 62
1, 347682, Note_off_c, 0, 60, 66
1, 347711, Note_off_c, 0, 63, 65
1, 347742, Note_on_c, 0, 72, 77
1, 347787, Note_on_c, 0, 69, 82
1, 347854, Note_on_c, 0, 75, 94
1, 347856, Note_off_c, 0, 69, 59
1, 347860, Note_off_c, 0, 72, 64
1, 347898, Note_off_c, 0, 75, 66
1, 347938, Note_on_c, 0, 60, 75
1, 347993, Note_on_c, 0, 63, 81
1, 348029, Note_off_c, 0, 60, 62
1, 348054, Note_on_c, 0, 69, 94
1, 348082, Note_off_c, 0, 63, 62
1, 348105, Note_off_c, 0, 69, 68
1, 348122, Note_on_c, 0, 75, 82
1, 348199, Note_on_c, 0, 72, 77
1, 348252, Note_off_c, 0, 75, 61
1, 348254, Note_on_c, 0, 81, 89
1, 348260, Note_off_c, 0, 72, 64
1, 348309, Note_off_c, 0, 81, 65
1, 348319, Note_on_c, 0, 63, 68
1, 348368, Note_on_c, 0, 69, 82
1, 348406, Note_off_c, 0, 63, 61
1, 348438, Note_on_c, 0, 72, 90
1, 348439, Note_off_c, 0, 69, 66
1, 348494, Note_off_c, 0, 72, 66
1, 348495, Note_on_c, 0, 81, 77
1, 348558, Note_on_c, 0, 75, 86
1, 348594, Note_off_c, 0, 81, 62
1, 348600, Note_off_c, 0, 75, 65
1, 348616, Note_on_c, 0, 84, 86
1, 348665, Note_on_c, 0, 70, 43
1, 348673, Note_off_c, 0, 84, 62
1, 348689, Note_on_c, 0, 69, 63
1, 348695, Note_off_c, 0, 70, 54
1, 348718, Note_on_c, 0, 72, 72
1, 348759, Note_off_c, 0, 69, 58
1, 348792, Note_on_c, 0, 75, 102
1, 348809, Note_off_c, 0, 72, 63
1, 348842, Note_off_c, 0, 75, 64
1, 348853, Note_on_c, 0, 84, 84
1, 348905, Note_on_c, 0, 81, 76
1, 348952, Note_off_c, 0, 84, 53
1, 348976, Note_on_c, 0, 87, 92
1, 348976, Note_off_c, 0, 81, 65
1, 349019, Note_off_c, 0, 87, 66
1, 349058, Note_on_c, 0, 72, 69
1, 349113, Note_on_c, 0, 75, 83
1, 349144, Note_off_c, 0, 72, 64
1, 349184, Note_on_c, 0, 81, 91
1, 349208, Note_off_c, 0, 75, 64
1, 349243, Note_off_c, 0, 81, 67
1, 349279, Note_on_c, 0, 87, 85
1, 349323, Note_on_c, 0, 84, 81
1, 349381, Note_on_c, 0, 93, 96
1, 349387, Note_off_c, 0, 84, 60
1, 349390, Note_off_c, 0, 87, 63
1, 349427, Note_on_c, 0, 75, 73
1, 349432, Note_off_c, 0, 93, 67
1, 349482, Note_on_c, 0, 81, 67
1, 349533, Note_on_c, 0, 84, 102
1, 349569, Note_off_c, 0, 81, 66
1, 349572, Note_off_c, 0, 84, 69
1, 349586, Note_off_c, 0, 75, 63
1, 349699, Note_on_c, 0, 93, 79
1, 349774, Note_on_c, 0, 87, 73
1, 349795, Note_on_c, 0, 86, 68
1, 349800, Note_on_c, 0, 88, 62
1, 349807, Note_off_c, 0, 93, 58
1, 349815, Note_on_c, 0, 96, 99
1, 349823, Note_off_c, 0, 86, 65
1, 349823, Note_off_c, 0, 88, 65
1, 349854, Note_off_c, 0, 87, 63
1, 349861, Note_off_c, 0, 96, 67
1, 349864, Control_c, 0, 64, 77
1, 349879, Control_c, 0, 64, 54
1, 349893, Control_c, 0, 64, 0
1, 349923, Control_c, 0, 64, 11
1, 349938, Control_c, 0, 64, 69
1, 349953, Note_on_c, 0, 49, 101
1, 349953, Control_c, 0, 64, 127
1, 349959, Note_on_c, 0, 37, 80
1, 350004, Note_off_c, 0, 37, 62
1, 350005, Note_off_c, 0, 49, 66
1, 350109, Note_on_c, 0, 65, 75
1, 350156, Note_on_c, 0, 61, 79
1, 350210, Note_on_c, 0, 70, 89
1, 350218, Note_off_c, 0, 65, 62
1, 350225, Note_off_c, 0, 61, 62
1, 350257, Note_on_c, 0, 53, 66
1, 350278, Note_off_c, 0, 70, 66
1, 350296, Note_on_c, 0, 58, 73
1, 350349, Note_on_c, 0, 61, 95
1, 350381, Note_off_c, 0, 58, 63
1, 350384, Note_off_c, 0, 53, 63
1, 350401, Note_off_c, 0, 61, 64
1, 350512, Note_on_c, 0, 70, 72
1, 350568, Note_on_c, 0, 65, 73
1, 350598, Control_c, 0, 64, 112
1, 350613, Control_c, 0, 64, 68
1, 350621, Note_on_c, 0, 73, 87
1, 350628, Control_c, 0, 64, 0
1, 350632, Note_off_c, 0, 65, 63
1, 350632, Note_off_c, 0, 70, 61
1, 350663, Note_off_c, 0, 73, 69
1, 350703, Note_on_c, 0, 52, 105
1, 350706, Note_on_c, 0, 40, 76
1, 350717, Control_c, 0, 64, 37
1, 350731, Control_c, 0, 64, 70
1, 350739, Note_off_c, 0, 40, 69
1, 350746, Control_c, 0, 64, 127
1, 350766, Note_off_c, 0, 52, 65
1, 350821, Note_on_c, 0, 67, 81
1, 350883, Note_on_c, 0, 64, 81
1, 350924, Note_off_c, 0, 67, 61
1, 350932, Note_on_c, 0, 72, 88
1, 350937, Note_off_c, 0, 64, 64
1, 350985, Note_off_c, 0, 72, 67
1, 351005, Note_on_c, 0, 55, 57
1, 351016, Note_on_c, 0, 60, 76
1, 351092, Note_on_c, 0, 64, 98
1, 351115, Note_off_c, 0, 60, 64
1, 351132, Note_off_c, 0, 64, 66
1, 351152, Note_off_c, 0, 55, 64
1, 351257, Note_on_c, 0, 72, 72
1, 351318, Control_c, 0, 64, 114
1, 351319, Note_on_c, 0, 67, 81
1, 351333, Control_c, 0, 64, 70
1, 351342, Note_off_c, 0, 72, 64
1, 351347, Control_c, 0, 64, 0
1, 351378, Note_on_c, 0, 76, 82
1, 351392, Note_off_c, 0, 67, 62
1, 351430, Note_off_c, 0, 76, 64
1, 351449, Note_on_c, 0, 53, 108
1, 351450, Note_on_c, 0, 41, 81
1, 351451, Control_c, 0, 64, 61
1, 351466, Control_c, 0, 64, 123
1, 351481, Note_off_c, 0, 41, 68
1, 351481, Control_c, 0, 64, 127
1, 351497, Note_off_c, 0, 53, 64
1, 351582, Note_on_c, 0, 68, 77
1, 351626, Note_on_c, 0, 65, 77
1, 351682, Note_off_c, 0, 65, 61
1, 351685, Note_on_c, 0, 73, 88
1, 351700, Note_on_c, 0, 56, 71
1, 351706, Note_off_c, 0, 68, 61
1, 351737, Note_off_c, 0, 73, 68
1, 351763, Note_on_c, 0, 61, 77
1, 351805, Note_off_c, 0, 56, 63
1, 351827, Note_on_c, 0, 65, 98
1, 351869, Note_off_c, 0, 65, 65
1, 351878, Note_off_c, 0, 61, 63
1, 351990, Note_on_c, 0, 73, 76
1, 352048, Note_on_c, 0, 68, 83
1, 352080, Note_off_c, 0, 73, 62
1, 352097, Control_c, 0, 64, 81
1, 352109, Note_off_c, 0, 68, 63
1, 352112, Control_c, 0, 64, 56
1, 352121, Note_on_c, 0, 77, 86
1, 352126, Control_c, 0, 64, 0
1, 352168, Note_off_c, 0, 77, 57
1, 352195, Note_on_c, 0, 55, 102
1, 352197, Note_on_c, 0, 43, 83
1, 352200, Control_c, 0, 64, 49
1, 352215, Control_c, 0, 64, 71
1, 352227, Note_off_c, 0, 43, 69
1, 352230, Control_c, 0, 64, 127
1, 352245, Note_off_c, 0, 55, 62
1, 352323, Note_on_c, 0, 70, 75
1, 352388, Note_on_c, 0, 67, 80
1, 352422, Note_off_c, 0, 70, 63
1, 352437, Note_on_c, 0, 76, 82
1, 352442, Note_off_c, 0, 67, 63
1, 352490, Note_on_c, 0, 58, 42
1, 352495, Note_off_c, 0, 76, 63
1, 352537, Note_on_c, 0, 64, 67
1, 352593, Note_on_c, 0, 67, 82
1, 352609, Note_off_c, 0, 58, 42
1, 352616, Note_off_c, 0, 64, 63
1, 352645, Note_off_c, 0, 67, 63
1, 352746, Note_on_c, 0, 76, 63
1, 352815, Note_on_c, 0, 70, 64
1, 352842, Note_off_c, 0, 76, 62
1, 352860, Control_c, 0, 64, 94
1, 352869, Note_on_c, 0, 79, 77
1, 352874, Control_c, 0, 64, 65
1, 352889, Control_c, 0, 64, 0
1, 352896, Note_off_c, 0, 70, 62
1, 352902, Note_off_c, 0, 79, 65
1, 352967, Note_on_c, 0, 44, 75
1, 353007, Control_c, 0, 64, 61
1, 353018, Note_off_c, 0, 44, 59
1, 353022, Control_c, 0, 64, 76
1, 353037, Control_c, 0, 64, 127
1, 353059, Note_on_c, 0, 72, 68
1, 353128, Note_on_c, 0, 68, 62
1, 353140, Note_off_c, 0, 72, 62
1, 353170, Note_on_c, 0, 77, 72
1, 353187, Note_off_c, 0, 68, 60
1, 353188, Note_on_c, 0, 56, 61
1, 353232, Note_off_c, 0, 77, 60
1, 353235, Note_off_c, 0, 56, 63
1, 353256, Note_on_c, 0, 60, 69
1, 353260, Control_c, 0, 64, 95
1, 353275, Control_c, 0, 64, 63
1, 353283, Note_off_c, 0, 60, 67
1, 353289, Control_c, 0, 64, 0
1, 353320, Note_on_c, 0, 46, 80
1, 353349, Control_c, 0, 64, 52
1, 353358, Note_off_c, 0, 46, 63
1, 353364, Control_c, 0, 64, 68
1, 353378, Control_c, 0, 64, 91
1, 353401, Control_c, 0, 64, 127
1, 353414, Note_on_c, 0, 73, 62
1, 353454, Note_on_c, 0, 70, 69
1, 353492, Note_off_c, 0, 70, 63
1, 353492, Note_off_c, 0, 73, 62
1, 353530, Note_on_c, 0, 79, 72
1, 353563, Note_on_c, 0, 58, 67
1, 353591, Note_off_c, 0, 79, 62
1, 353594, Note_off_c, 0, 58, 67
1, 353622, Note_on_c, 0, 61, 67
1, 353638, Control_c, 0, 64, 71
1, 353652, Note_off_c, 0, 61, 64
1, 353653, Control_c, 0, 64, 20
1, 353668, Control_c, 0, 64, 0
1, 353671, Note_on_c, 0, 48, 79
1, 353697, Control_c, 0, 64, 35
1, 353712, Control_c, 0, 64, 63
1, 353726, Note_off_c, 0, 48, 64
1, 353727, Control_c, 0, 64, 79
1, 353742, Control_c, 0, 64, 127
1, 353758, Note_on_c, 0, 75, 71
1, 353806, Note_on_c, 0, 72, 70
1, 353864, Note_off_c, 0, 72, 60
1, 353866, Note_on_c, 0, 81, 75
1, 353868, Note_off_c, 0, 75, 60
1, 353888, Note_on_c, 0, 60, 66
1, 353925, Note_off_c, 0, 81, 62
1, 353937, Note_off_c, 0, 60, 63
1, 353942, Note_on_c, 0, 63, 75
1, 353991, Note_off_c, 0, 63, 63
1, 353994, Control_c, 0, 64, 71
1, 354009, Control_c, 0, 64, 24
1, 354013, Note_on_c, 0, 49, 85
1, 354023, Control_c, 0, 64, 0
1, 354054, Control_c, 0, 64, 42
1, 354068, Note_off_c, 0, 49, 63
1, 354069, Control_c, 0, 64, 64
1, 354084, Control_c, 0, 64, 82
1, 354098, Note_on_c, 0, 77, 77
1, 354099, Control_c, 0, 64, 127
1, 354159, Note_on_c, 0, 73, 80
1, 354189, Note_off_c, 0, 77, 63
1, 354216, Note_off_c, 0, 73, 64
1, 354230, Note_on_c, 0, 82, 84
1, 354263, Note_on_c, 0, 61, 63
1, 354286, Note_off_c, 0, 82, 66
1, 354298, Note_off_c, 0, 61, 63
1, 354320, Note_on_c, 0, 65, 76
1, 354328, Control_c, 0, 64, 81
1, 354343, Control_c, 0, 64, 54
1, 354358, Note_off_c, 0, 65, 62
1, 354358, Control_c, 0, 64, 0
1, 354380, Note_on_c, 0, 52, 83
1, 354387, Control_c, 0, 64, 31
1, 354402, Control_c, 0, 64, 62
1, 354417, Control_c, 0, 64, 88
1, 354424, Note_off_c, 0, 52, 66
1, 354432, Control_c, 0, 64, 127
1, 354437, Note_on_c, 0, 79, 75
1, 354472, Note_on_c, 0, 76, 74
1, 354544, Note_on_c, 0, 84, 91
1, 354547, Note_off_c, 0, 79, 65
1, 354551, Note_off_c, 0, 76, 60
1, 354585, Note_on_c, 0, 64, 72
1, 354594, Note_off_c, 0, 84, 58
1, 354634, Note_off_c, 0, 64, 64
1, 354653, Note_on_c, 0, 67, 78
1, 354669, Control_c, 0, 64, 83
1, 354682, Note_off_c, 0, 67, 65
1, 354684, Control_c, 0, 64, 33
1, 354699, Control_c, 0, 64, 0
1, 354711, Note_on_c, 0, 53, 90
1, 354743, Control_c, 0, 64, 54
1, 354757, Control_c, 0, 64, 72
1, 354758, Note_off_c, 0, 53, 66
1, 354764, Note_on_c, 0, 80, 80
1, 354772, Control_c, 0, 64, 127
1, 354821, Note_on_c, 0, 77, 79
1, 354894, Note_on_c, 0, 85, 91
1, 354898, Note_off_c, 0, 80, 59
1, 354906, Note_off_c, 0, 77, 62
1, 354952, Note_on_c, 0, 65, 65
1, 354958, Note_off_c, 0, 85, 68
1, 354984, Note_off_c, 0, 65, 66
1, 355002, Note_on_c, 0, 68, 79
1, 355039, Note_off_c, 0, 68, 61
1, 355048, Control_c, 0, 64, 92
1, 355062, Control_c, 0, 64, 57
1, 355077, Control_c, 0, 64, 0
1, 355081, Note_on_c, 0, 55, 85
1, 355107, Control_c, 0, 64, 33
1, 355122, Control_c, 0, 64, 62
1, 355129, Note_off_c, 0, 55, 64
1, 355133, Note_on_c, 0, 82, 82
1, 355136, Control_c, 0, 64, 82
1, 355151, Control_c, 0, 64, 127
1, 355185, Note_on_c, 0, 79, 79
1, 355242, Note_on_c, 0, 88, 96
1, 355253, Note_off_c, 0, 82, 64
1, 355256, Note_off_c, 0, 79, 65
1, 355300, Note_off_c, 0, 88, 66
1, 355306, Note_on_c, 0, 67, 68
1, 355358, Note_off_c, 0, 67, 64
1, 355364, Note_on_c, 0, 70, 86
1, 355373, Control_c, 0, 64, 114
1, 355388, Control_c, 0, 64, 66
1, 355402, Control_c, 0, 64, 0
1, 355408, Note_off_c, 0, 70, 66
1, 355445, Note_on_c, 0, 56, 92
1, 355447, Control_c, 0, 64, 60
1, 355462, Control_c, 0, 64, 85
1, 355477, Control_c, 0, 64, 127
1, 355491, Note_on_c, 0, 84, 89
1, 355501, Note_off_c, 0, 56, 64
1, 355559, Note_on_c, 0, 80, 87
1, 355565, Note_off_c, 0, 84, 64
1, 355623, Note_on_c, 0, 89, 91
1, 355638, Note_off_c, 0, 80, 64
1, 355683, Note_on_c, 0, 68, 71
1, 355697, Note_off_c, 0, 89, 62
1, 355737, Control_c, 0, 64, 80
1, 355739, Note_off_c, 0, 68, 62
1, 355752, Control_c, 0, 64, 44
1, 355755, Note_on_c, 0, 72, 73
1, 355766, Control_c, 0, 64, 0
1, 355772, Note_off_c, 0, 72, 66
1, 355796, Control_c, 0, 64, 47
1, 355811, Control_c, 0, 64, 74
1, 355813, Note_on_c, 0, 71, 7
1, 355817, Note_on_c, 0, 58, 89
1, 355826, Control_c, 0, 64, 127
1, 355861, Note_off_c, 0, 71, 30
1, 355874, Note_off_c, 0, 58, 65
1, 355877, Note_on_c, 0, 85, 83
1, 355912, Note_on_c, 0, 82, 86
1, 355944, Note_off_c, 0, 85, 65
1, 355960, Note_off_c, 0, 82, 67
1, 355990, Note_on_c, 0, 91, 93
1, 356046, Note_on_c, 0, 70, 73
1, 356061, Note_off_c, 0, 91, 64
1, 356088, Note_off_c, 0, 70, 65
1, 356091, Control_c, 0, 64, 92
1, 356106, Control_c, 0, 64, 57
1, 356109, Note_on_c, 0, 73, 76
1, 356121, Control_c, 0, 64, 0
1, 356147, Note_off_c, 0, 73, 66
1, 356151, Control_c, 0, 64, 43
1, 356165, Note_on_c, 0, 60, 83
1, 356166, Control_c, 0, 64, 68
1, 356180, Control_c, 0, 64, 127
1, 356214, Note_off_c, 0, 60, 62
1, 356231, Note_on_c, 0, 87, 92
1, 356280, Note_on_c, 0, 84, 80
1, 356344, Note_on_c, 0, 93, 95
1, 356354, Note_off_c, 0, 87, 60
1, 356360, Note_off_c, 0, 84, 65
1, 356394, Note_on_c, 0, 72, 68
1, 356410, Note_off_c, 0, 93, 66
1, 356451, Note_off_c, 0, 72, 64
1, 356464, Note_on_c, 0, 75, 83
1, 356491, Note_off_c, 0, 75, 65
1, 356500, Control_c, 0, 64, 68
1, 356514, Control_c, 0, 64, 0
1, 356530, Note_on_c, 0, 61, 84
1, 356544, Control_c, 0, 64, 18
1, 356559, Control_c, 0, 64, 64
1, 356574, Control_c, 0, 64, 92
1, 356586, Note_off_c, 0, 61, 63
1, 356589, Control_c, 0, 64, 127
1, 356605, Note_on_c, 0, 89, 90
1, 356665, Note_on_c, 0, 85, 84
1, 356702, Note_off_c, 0, 89, 61
1, 356723, Note_on_c, 0, 94, 105
1, 356744, Note_off_c, 0, 85, 63
1, 356791, Note_on_c, 0, 73, 78
1, 356791, Note_off_c, 0, 94, 64
1, 356842, Note_off_c, 0, 73, 64
1, 356858, Note_on_c, 0, 77, 76
1, 356885, Note_off_c, 0, 77, 67
1, 356899, Control_c, 0, 64, 99
1, 356914, Control_c, 0, 64, 63
1, 356929, Control_c, 0, 64, 0
1, 356944, Note_on_c, 0, 61, 86
1, 356958, Control_c, 0, 64, 39
1, 356973, Control_c, 0, 64, 65
1, 356988, Control_c, 0, 64, 98
1, 356997, Note_off_c, 0, 61, 62
1, 357003, Control_c, 0, 64, 127
1, 357031, Note_on_c, 0, 89, 88
1, 357111, Note_on_c, 0, 85, 95
1, 357147, Note_off_c, 0, 89, 61
1, 357197, Note_on_c, 0, 94, 98
1, 357213, Note_off_c, 0, 85, 64
1, 357260, Note_on_c, 0, 73, 78
1, 357261, Note_on_c, 0, 93, 5
1, 357262, Note_off_c, 0, 93, 127
1, 357269, Note_off_c, 0, 94, 65
1, 357302, Poly_aftertouch_c, 0, 93, 0
1, 357340, Note_off_c, 0, 73, 64
1, 357355, Note_on_c, 0, 77, 89
1, 357396, Note_off_c, 0, 77, 66
1, 357455, Control_c, 0, 64, 113
1, 357470, Control_c, 0, 64, 70
1, 357486, Control_c, 0, 64, 0
1, 357499, Note_on_c, 0, 61, 88
1, 357575, Control_c, 0, 64, 60
1, 357589, Control_c, 0, 64, 78
1, 357604, Control_c, 0, 64, 127
1, 357645, Note_on_c, 0, 73, 95
1, 357662, Note_off_c, 0, 61, 63
1, 357694, Note_off_c, 0, 73, 65
1, 357759, Note_on_c, 0, 77, 105
1, 357796, Note_off_c, 0, 77, 68
1, 357836, Note_on_c, 0, 89, 97
1, 357928, Note_on_c, 0, 85, 94
1, 357960, Note_off_c, 0, 89, 62
1, 357989, Note_on_c, 0, 94, 92
1, 358005, Note_off_c, 0, 85, 64
1, 358052, Note_on_c, 0, 89, 82
1, 358109, Note_off_c, 0, 94, 64
1, 358111, Note_on_c, 0, 85, 89
1, 358131, Note_off_c, 0, 89, 64
1, 358169, Note_on_c, 0, 82, 78
1, 358169, Note_off_c, 0, 85, 66
1, 358190, Note_off_c, 0, 82, 71
1, 358216, Note_on_c, 0, 77, 67
1, 358258, Note_on_c, 0, 73, 81
1, 358275, Note_off_c, 0, 77, 57
1, 358299, Note_off_c, 0, 73, 62
1, 358326, Note_on_c, 0, 82, 79
1, 358399, Note_on_c, 0, 77, 77
1, 358431, Note_off_c, 0, 82, 63
1, 358445, Note_on_c, 0, 73, 82
1, 358450, Note_off_c, 0, 77, 64
1, 358489, Note_on_c, 0, 65, 51
1, 358491, Note_off_c, 0, 73, 64
1, 358518, Note_on_c, 0, 70, 67
1, 358546, Note_off_c, 0, 70, 67
1, 358555, Note_on_c, 0, 61, 67
1, 358557, Note_off_c, 0, 65, 63
1, 358589, Note_off_c, 0, 61, 62
1, 358653, Note_on_c, 0, 70, 65
1, 358722, Note_on_c, 0, 65, 71
1, 358741, Note_on_c, 0, 67, 11
1, 358751, Note_off_c, 0, 70, 62
1, 358788, Note_off_c, 0, 67, 53
1, 358795, Note_on_c, 0, 61, 77
1, 358802, Note_off_c, 0, 65, 62
1, 358810, Note_on_c, 0, 53, 49
1, 358851, Note_off_c, 0, 61, 61
1, 358862, Note_on_c, 0, 58, 74
1, 358875, Note_off_c, 0, 53, 60
1, 358875, Note_on_c, 0, 49, 49
1, 358917, Note_off_c, 0, 58, 63
1, 358921, Note_off_c, 0, 49, 61
1, 358954, Note_on_c, 0, 58, 64
1, 358997, Note_off_c, 0, 58, 64
1, 359000, Note_on_c, 0, 53, 56
1, 359060, Note_on_c, 0, 49, 61
1, 359062, Note_off_c, 0, 53, 58
1, 359101, Note_off_c, 0, 49, 63
1, 359118, Note_on_c, 0, 46, 69
1, 359174, Note_on_c, 0, 49, 69
1, 359186, Note_off_c, 0, 46, 62
1, 359227, Note_on_c, 0, 53, 68
1, 359228, Note_off_c, 0, 49, 64
1, 359267, Note_off_c, 0, 53, 63
1, 359291, Note_on_c, 0, 58, 70
1, 359344, Note_off_c, 0, 58, 62
1, 359349, Note_on_c, 0, 61, 72
1, 359374, Note_off_c, 0, 61, 65
1, 359441, Note_on_c, 0, 65, 71
1, 359501, Note_on_c, 0, 70, 78
1, 359525, Note_off_c, 0, 65, 53
1, 359564, Note_on_c, 0, 73, 78
1, 359579, Note_off_c, 0, 70, 62
1, 359625, Note_off_c, 0, 73, 64
1, 359632, Note_on_c, 0, 77, 78
1, 359680, Note_on_c, 0, 73, 70
1, 359695, Note_off_c, 0, 77, 59
1, 359752, Note_off_c, 0, 73, 65
1, 359752, Note_on_c, 0, 70, 81
1, 359809, Note_off_c, 0, 70, 65
1, 359811, Note_on_c, 0, 73, 76
1, 359833, Note_off_c, 0, 73, 72
1, 359916, Note_on_c, 0, 77, 79
1, 359984, Note_off_c, 0, 77, 61
1, 359986, Note_on_c, 0, 82, 86
1, 360058, Note_on_c, 0, 85, 85
1, 360062, Note_off_c, 0, 82, 66
1, 360095, Note_off_c, 0, 85, 67
1, 360149, Note_on_c, 0, 82, 92
1, 360205, Note_off_c, 0, 82, 66
1, 360251, Note_on_c, 0, 89, 98
1, 360342, Note_on_c, 0, 85, 98
1, 360380, Note_off_c, 0, 89, 57
1, 360428, Note_on_c, 0, 94, 92
1, 360438, Note_off_c, 0, 85, 63
1, 360506, Note_on_c, 0, 89, 92
1, 360556, Note_off_c, 0, 94, 63
1, 360589, Note_on_c, 0, 85, 92
1, 360627, Note_off_c, 0, 89, 62
1, 360669, Note_on_c, 0, 82, 96
1, 360687, Note_off_c, 0, 85, 64
1, 360729, Note_off_c, 0, 82, 64
1, 360777, Control_c, 0, 64, 86
1, 360784, Note_on_c, 0, 62, 103
1, 360792, Control_c, 0, 64, 58
1, 360806, Control_c, 0, 64, 0
1, 360917, Control_c, 0, 64, 46
1, 360932, Control_c, 0, 64, 67
1, 360947, Control_c, 0, 64, 77
1, 360962, Control_c, 0, 64, 101
1, 360965, Note_on_c, 0, 74, 92
1, 360977, Control_c, 0, 64, 127
1, 360982, Note_off_c, 0, 62, 62
1, 361024, Note_off_c, 0, 74, 65
1, 361109, Note_on_c, 0, 77, 105
1, 361137, Note_off_c, 0, 77, 69
1, 361228, Note_on_c, 0, 92, 93
1, 361314, Note_on_c, 0, 89, 90
1, 361343, Note_off_c, 0, 92, 64
1, 361388, Note_on_c, 0, 95, 86
1, 361401, Note_off_c, 0, 89, 63
1, 361456, Note_on_c, 0, 92, 86
1, 361509, Note_off_c, 0, 95, 63
1, 361524, Note_on_c, 0, 89, 80
1, 361550, Note_off_c, 0, 92, 66
1, 361573, Note_off_c, 0, 89, 64
1, 361588, Note_on_c, 0, 86, 72
1, 361635, Note_off_c, 0, 86, 57
1, 361677, Note_on_c, 0, 83, 75
1, 361726, Note_on_c, 0, 80, 72
1, 361741, Note_off_c, 0, 83, 62
1, 361779, Note_on_c, 0, 86, 79
1, 361792, Note_off_c, 0, 80, 63
1, 361822, Note_on_c, 0, 83, 61
1, 361880, Note_on_c, 0, 80, 77
1, 361893, Note_off_c, 0, 83, 64
1, 361896, Note_off_c, 0, 86, 59
1, 361928, Note_on_c, 0, 77, 75
1, 361931, Note_off_c, 0, 80, 63
1, 361977, Note_off_c, 0, 77, 62
1, 362028, Note_on_c, 0, 74, 64
1, 362115, Note_off_c, 0, 74, 62
1, 362132, Note_on_c, 0, 80, 66
1, 362211, Note_on_c, 0, 77, 78
1, 362253, Note_off_c, 0, 80, 62
1, 362259, Note_on_c, 0, 74, 71
1, 362275, Note_off_c, 0, 77, 62
1, 362297, Note_off_c, 0, 74, 63
1, 362315, Note_on_c, 0, 71, 72
1, 362345, Note_off_c, 0, 71, 61
1, 362408, Note_on_c, 0, 68, 70
1, 362455, Note_off_c, 0, 68, 58
1, 362460, Note_on_c, 0, 65, 60
1, 362493, Note_off_c, 0, 65, 63
1, 362515, Note_on_c, 0, 68, 65
1, 362573, Note_on_c, 0, 65, 66
1, 362616, Note_on_c, 0, 62, 69
1, 362643, Note_off_c, 0, 68, 58
1, 362649, Note_off_c, 0, 65, 60
1, 362667, Note_on_c, 0, 59, 76
1, 362684, Note_off_c, 0, 62, 59
1, 362719, Note_off_c, 0, 59, 64
1, 362720, Note_on_c, 0, 56, 68
1, 362764, Note_on_c, 0, 53, 68
1, 362776, Note_off_c, 0, 56, 62
1, 362838, Note_on_c, 0, 50, 59
1, 362856, Note_off_c, 0, 53, 56
1, 362868, Note_on_c, 0, 47, 78
1, 362879, Note_off_c, 0, 50, 58
1, 362938, Note_on_c, 0, 50, 70
1, 362983, Note_on_c, 0, 53, 73
1, 362985, Note_off_c, 0, 47, 59
1, 363003, Note_off_c, 0, 50, 64
1, 363037, Note_on_c, 0, 56, 82
1, 363046, Note_off_c, 0, 53, 63
1, 363091, Note_on_c, 0, 59, 79
1, 363095, Note_off_c, 0, 56, 63
1, 363162, Note_on_c, 0, 62, 71
1, 363165, Note_off_c, 0, 59, 63
1, 363221, Note_on_c, 0, 65, 74
1, 363239, Note_off_c, 0, 62, 60
1, 363290, Note_off_c, 0, 65, 63
1, 363292, Note_on_c, 0, 68, 75
1, 363317, Note_off_c, 0, 68, 66
1, 363366, Note_on_c, 0, 71, 83
1, 363448, Note_on_c, 0, 74, 84
1, 363449, Note_off_c, 0, 71, 62
1, 363535, Note_on_c, 0, 77, 93
1, 363560, Note_off_c, 0, 74, 61
1, 363625, Note_off_c, 0, 77, 59
1, 363631, Note_on_c, 0, 80, 86
1, 363669, Note_off_c, 0, 80, 65
1, 363730, Note_on_c, 0, 83, 94
1, 363835, Note_on_c, 0, 86, 91
1, 363851, Note_off_c, 0, 83, 61
1, 363964, Note_on_c, 0, 89, 98
1, 363987, Note_off_c, 0, 86, 64
1, 364096, Note_on_c, 0, 92, 97
1, 364118, Note_off_c, 0, 89, 39
1, 364225, Note_on_c, 0, 95, 94
1, 364247, Note_off_c, 0, 92, 67
1, 364292, Note_off_c, 0, 95, 67
1, 364506, Note_on_c, 0, 48, 110
1, 364511, Note_on_c, 0, 36, 93
1, 364521, Control_c, 0, 64, 76
1, 364536, Control_c, 0, 64, 0
1, 364934, Note_on_c, 0, 92, 105
1, 364943, Control_c, 0, 64, 55
1, 364958, Control_c, 0, 64, 88
1, 364974, Control_c, 0, 64, 127
1, 365125, Note_on_c, 0, 89, 99
1, 365156, Note_off_c, 0, 92, 64
1, 365299, Note_on_c, 0, 96, 101
1, 365318, Note_off_c, 0, 89, 62
1, 365430, Note_on_c, 0, 92, 93
1, 365454, Note_off_c, 0, 96, 66
1, 365523, Note_on_c, 0, 89, 79
1, 365544, Note_off_c, 0, 92, 64
1, 365557, Note_off_c, 0, 36, 51
1, 365585, Note_off_c, 0, 89, 64
1, 365622, Note_on_c, 0, 84, 67
1, 365642, Note_on_c, 0, 86, 35
1, 365652, Note_off_c, 0, 48, 50
1, 365654, Note_off_c, 0, 84, 63
1, 365675, Note_off_c, 0, 86, 50
1, 365702, Note_on_c, 0, 80, 79
1, 365776, Note_on_c, 0, 77, 81
1, 365780, Note_off_c, 0, 80, 62
1, 365827, Note_off_c, 0, 77, 63
1, 365834, Note_on_c, 0, 84, 84
1, 365879, Note_on_c, 0, 80, 82
1, 365911, Note_off_c, 0, 84, 63
1, 365934, Note_on_c, 0, 77, 75
1, 365948, Note_off_c, 0, 80, 62
1, 365973, Note_off_c, 0, 77, 62
1, 365992, Note_on_c, 0, 72, 70
1, 366041, Note_off_c, 0, 72, 61
1, 366073, Note_on_c, 0, 68, 78
1, 366142, Note_off_c, 0, 68, 59
1, 366172, Note_on_c, 0, 72, 77
1, 366224, Poly_aftertouch_c, 0, 65, 0
1, 366233, Note_on_c, 0, 68, 75
1, 366262, Poly_aftertouch_c, 0, 65, 0
1, 366265, Note_off_c, 0, 72, 61
1, 366274, Note_on_c, 0, 65, 60
1, 366294, Note_off_c, 0, 68, 61
1, 366317, Note_off_c, 0, 65, 62
1, 366349, Note_on_c, 0, 60, 65
1, 366384, Note_off_c, 0, 60, 63
1, 366420, Note_on_c, 0, 56, 77
1, 366488, Note_off_c, 0, 56, 61
1, 366502, Note_on_c, 0, 60, 73
1, 366579, Note_on_c, 0, 56, 73
1, 366614, Note_off_c, 0, 60, 61
1, 366638, Note_on_c, 0, 53, 75
1, 366654, Note_off_c, 0, 56, 61
1, 366676, Note_on_c, 0, 48, 56
1, 366700, Note_off_c, 0, 53, 61
1, 366735, Note_on_c, 0, 44, 61
1, 366747, Note_off_c, 0, 48, 58
1, 366774, Note_on_c, 0, 41, 63
1, 366799, Note_off_c, 0, 44, 61
1, 366807, Note_on_c, 0, 36, 71
1, 366912, Note_on_c, 0, 44, 80
1, 366919, Note_off_c, 0, 36, 60
1, 366950, Note_off_c, 0, 41, 63
1, 366971, Note_on_c, 0, 48, 69
1, 366981, Note_off_c, 0, 44, 62
1, 367007, Note_on_c, 0, 53, 67
1, 367011, Note_off_c, 0, 48, 65
1, 367046, Note_off_c, 0, 53, 64
1, 367064, Note_on_c, 0, 56, 72
1, 367087, Note_off_c, 0, 56, 67
1, 367146, Note_on_c, 0, 60, 72
1, 367210, Note_off_c, 0, 60, 62
1, 367216, Note_on_c, 0, 65, 74
1, 367278, Note_off_c, 0, 65, 61
1, 367288, Note_on_c, 0, 68, 72
1, 367311, Note_off_c, 0, 68, 66
1, 367374, Note_on_c, 0, 72, 80
1, 367454, Note_off_c, 0, 72, 63
1, 367456, Note_on_c, 0, 77, 84
1, 367522, Note_on_c, 0, 80, 84
1, 367526, Note_off_c, 0, 77, 63
1, 367553, Note_off_c, 0, 80, 65
1, 367633, Note_on_c, 0, 84, 92
1, 367721, Note_on_c, 0, 89, 87
1, 367800, Note_on_c, 0, 92, 93
1, 367828, Note_off_c, 0, 89, 63
1, 367893, Note_on_c, 0, 96, 97
1, 367911, Note_off_c, 0, 92, 65
1, 367989, Note_on_c, 0, 92, 94
1, 368021, Note_off_c, 0, 96, 66
1, 368026, Note_off_c, 0, 84, 49
1, 368080, Note_on_c, 0, 89, 96
1, 368111, Note_off_c, 0, 92, 66
1, 368192, Note_on_c, 0, 84, 98
1, 368223, Note_off_c, 0, 89, 63
1, 368275, Note_off_c, 0, 84, 59
1, 368326, Note_on_c, 0, 36, 95
1, 368375, Control_c, 0, 64, 79
1, 368390, Control_c, 0, 64, 27
1, 368405, Control_c, 0, 64, 0
1, 368494, Control_c, 0, 64, 66
1, 368509, Control_c, 0, 64, 127
1, 368512, Note_on_c, 0, 48, 90
1, 368519, Note_off_c, 0, 36, 60
1, 368575, Note_off_c, 0, 48, 64
1, 368676, Note_on_c, 0, 52, 79
1, 368751, Note_off_c, 0, 52, 64
1, 368817, Note_on_c, 0, 55, 82
1, 368817, Note_on_c, 0, 91, 92
1, 368871, Note_off_c, 0, 55, 63
1, 368950, Note_on_c, 0, 88, 88
1, 368986, Note_off_c, 0, 91, 62
1, 368992, Note_on_c, 0, 58, 90
1, 369103, Note_on_c, 0, 94, 88
1, 369115, Note_off_c, 0, 88, 54
1, 369222, Note_on_c, 0, 91, 83
1, 369251, Note_off_c, 0, 58, 56
1, 369258, Note_off_c, 0, 94, 64
1, 369310, Note_off_c, 0, 91, 63
1, 369317, Note_on_c, 0, 88, 68
1, 369365, Note_off_c, 0, 88, 65
1, 369407, Note_on_c, 0, 84, 67
1, 369467, Note_off_c, 0, 84, 62
1, 369496, Note_on_c, 0, 82, 72
1, 369571, Note_off_c, 0, 82, 64
1, 369573, Note_on_c, 0, 79, 70
1, 369637, Note_off_c, 0, 79, 64
1, 369642, Note_on_c, 0, 76, 71
1, 369682, Note_off_c, 0, 76, 62
1, 369725, Note_on_c, 0, 72, 61
1, 369775, Note_off_c, 0, 72, 52
1, 369806, Note_on_c, 0, 70, 67
1, 369887, Note_on_c, 0, 67, 64
1, 369910, Note_off_c, 0, 70, 52
1, 369942, Note_on_c, 0, 64, 65
1, 369944, Note_off_c, 0, 67, 61
1, 369980, Note_off_c, 0, 64, 62
1, 370033, Note_on_c, 0, 60, 63
1, 370089, Note_off_c, 0, 60, 56
1, 370117, Note_on_c, 0, 58, 64
1, 370125, Control_c, 0, 67, 16
1, 370140, Control_c, 0, 67, 43
1, 370155, Control_c, 0, 67, 67
1, 370170, Control_c, 0, 67, 88
1, 370180, Note_on_c, 0, 55, 60
1, 370185, Control_c, 0, 67, 107
1, 370200, Control_c, 0, 67, 122
1, 370214, Control_c, 0, 67, 127
1, 370223, Note_off_c, 0, 58, 62
1, 370226, Note_on_c, 0, 52, 68
1, 370229, Note_off_c, 0, 55, 55
1, 370312, Note_on_c, 0, 48, 70
1, 370313, Note_off_c, 0, 52, 62
1, 370366, Note_off_c, 0, 48, 62
1, 370396, Note_on_c, 0, 46, 58
1, 370456, Note_on_c, 0, 43, 62
1, 370467, Note_off_c, 0, 46, 58
1, 370510, Control_c, 0, 64, 104
1, 370525, Control_c, 0, 64, 89
1, 370540, Control_c, 0, 64, 80
1, 370544, Note_on_c, 0, 40, 56
1, 370545, Note_off_c, 0, 43, 58
1, 370554, Control_c, 0, 64, 71
1, 370569, Control_c, 0, 64, 64
1, 370584, Control_c, 0, 64, 57
1, 370598, Note_off_c, 0, 40, 61
1, 370599, Control_c, 0, 64, 53
1, 370608, Note_on_c, 0, 36, 60
1, 370636, Control_c, 0, 64, 53
1, 370651, Control_c, 0, 64, 54
1, 370665, Control_c, 0, 64, 55
1, 370680, Control_c, 0, 64, 57
1, 370695, Control_c, 0, 64, 60
1, 370697, Note_on_c, 0, 40, 59
1, 370710, Control_c, 0, 64, 63
1, 370725, Control_c, 0, 64, 65
1, 370739, Control_c, 0, 64, 67
1, 370754, Control_c, 0, 64, 71
1, 370767, Note_on_c, 0, 43, 58
1, 370769, Control_c, 0, 64, 76
1, 370784, Control_c, 0, 64, 86
1, 370799, Control_c, 0, 64, 108
1, 370815, Control_c, 0, 64, 127
1, 370828, Note_on_c, 0, 46, 60
1, 370891, Note_on_c, 0, 48, 57
1, 370933, Control_c, 0, 67, 124
1, 370940, Note_off_c, 0, 48, 60
1, 370948, Control_c, 0, 67, 118
1, 370963, Control_c, 0, 67, 113
1, 370964, Note_on_c, 0, 52, 58
1, 370978, Control_c, 0, 67, 107
1, 370978, Note_off_c, 0, 36, 40
1, 370993, Control_c, 0, 67, 99
1, 371008, Control_c, 0, 67, 90
1, 371016, Note_off_c, 0, 52, 60
1, 371022, Control_c, 0, 67, 76
1, 371034, Note_on_c, 0, 55, 56
1, 371037, Control_c, 0, 67, 61
1, 371052, Control_c, 0, 67, 42
1, 371067, Control_c, 0, 67, 19
1, 371081, Control_c, 0, 67, 0
1, 371091, Note_off_c, 0, 55, 57
1, 371101, Note_off_c, 0, 40, 39
1, 371103, Note_on_c, 0, 58, 65
1, 371129, Note_off_c, 0, 58, 66
1, 371172, Note_off_c, 0, 43, 16
1, 371180, Note_on_c, 0, 60, 69
1, 371204, Note_off_c, 0, 46, 33
1, 371242, Note_off_c, 0, 60, 63
1, 371267, Note_on_c, 0, 64, 63
1, 371332, Note_off_c, 0, 64, 61
1, 371335, Note_on_c, 0, 67, 64
1, 371407, Note_off_c, 0, 67, 62
1, 371416, Note_on_c, 0, 70, 67
1, 371441, Note_off_c, 0, 70, 68
1, 371504, Note_on_c, 0, 72, 70
1, 371518, Control_c, 0, 67, 13
1, 371533, Control_c, 0, 67, 29
1, 371548, Control_c, 0, 67, 45
1, 371562, Control_c, 0, 67, 58
1, 371565, Note_off_c, 0, 72, 63
1, 371577, Control_c, 0, 67, 70
1, 371579, Note_on_c, 0, 76, 69
1, 371592, Control_c, 0, 67, 83
1, 371607, Control_c, 0, 67, 91
1, 371623, Control_c, 0, 67, 96
1, 371638, Control_c, 0, 67, 98
1, 371645, Note_off_c, 0, 76, 62
1, 371667, Control_c, 0, 67, 97
1, 371669, Note_on_c, 0, 79, 52
1, 371682, Control_c, 0, 67, 94
1, 371690, Note_on_c, 0, 77, 53
1, 371697, Control_c, 0, 67, 92
1, 371711, Control_c, 0, 67, 89
1, 371713, Note_off_c, 0, 77, 56
1, 371726, Control_c, 0, 67, 87
1, 371735, Note_off_c, 0, 79, 61
1, 371741, Control_c, 0, 67, 85
1, 371743, Note_on_c, 0, 76, 70
1, 371756, Control_c, 0, 67, 82
1, 371771, Control_c, 0, 67, 78
1, 371786, Control_c, 0, 67, 75
1, 371800, Control_c, 0, 67, 73
1, 371805, Note_off_c, 0, 76, 63
1, 371815, Control_c, 0, 67, 72
1, 371826, Note_on_c, 0, 72, 67
1, 371830, Control_c, 0, 67, 72
1, 371845, Control_c, 0, 67, 71
1, 371860, Control_c, 0, 67, 70
1, 371875, Control_c, 0, 67, 69
1, 371890, Control_c, 0, 67, 67
1, 371899, Note_off_c, 0, 72, 63
1, 371905, Control_c, 0, 67, 64
1, 371914, Note_on_c, 0, 76, 70
1, 371919, Control_c, 0, 67, 59
1, 371934, Control_c, 0, 67, 53
1, 371949, Control_c, 0, 67, 48
1, 371964, Control_c, 0, 67, 42
1, 371978, Control_c, 0, 67, 39
1, 371986, Note_off_c, 0, 76, 62
1, 371993, Control_c, 0, 67, 35
1, 372003, Note_on_c, 0, 79, 69
1, 372008, Control_c, 0, 67, 31
1, 372023, Control_c, 0, 67, 26
1, 372037, Note_off_c, 0, 79, 64
1, 372038, Control_c, 0, 67, 21
1, 372052, Control_c, 0, 67, 16
1, 372067, Control_c, 0, 67, 14
1, 372082, Control_c, 0, 67, 13
1, 372093, Note_on_c, 0, 76, 71
1, 372097, Control_c, 0, 67, 11
1, 372119, Control_c, 0, 67, 9
1, 372134, Control_c, 0, 67, 8
1, 372149, Control_c, 0, 67, 0
1, 372219, Note_on_c, 0, 82, 76
1, 372239, Note_off_c, 0, 76, 58
1, 372282, Control_c, 0, 67, 8
1, 372297, Control_c, 0, 67, 9
1, 372311, Control_c, 0, 67, 10
1, 372316, Note_on_c, 0, 79, 74
1, 372326, Control_c, 0, 67, 11
1, 372338, Note_off_c, 0, 82, 60
1, 372341, Control_c, 0, 67, 13
1, 372356, Control_c, 0, 67, 13
1, 372371, Control_c, 0, 67, 14
1, 372385, Control_c, 0, 67, 15
1, 372400, Control_c, 0, 67, 17
1, 372416, Control_c, 0, 67, 18
1, 372431, Control_c, 0, 67, 19
1, 372441, Note_on_c, 0, 76, 72
1, 372446, Control_c, 0, 67, 21
1, 372461, Control_c, 0, 67, 21
1, 372462, Note_off_c, 0, 79, 58
1, 372476, Control_c, 0, 67, 23
1, 372490, Control_c, 0, 67, 24
1, 372505, Control_c, 0, 67, 25
1, 372520, Control_c, 0, 67, 26
1, 372534, Control_c, 0, 67, 28
1, 372549, Control_c, 0, 67, 30
1, 372558, Note_on_c, 0, 79, 81
1, 372564, Control_c, 0, 67, 31
1, 372578, Note_off_c, 0, 76, 58
1, 372579, Control_c, 0, 67, 33
1, 372594, Control_c, 0, 67, 35
1, 372608, Control_c, 0, 67, 36
1, 372623, Control_c, 0, 67, 41
1, 372638, Control_c, 0, 67, 51
1, 372653, Control_c, 0, 67, 64
1, 372668, Control_c, 0, 67, 77
1, 372683, Control_c, 0, 67, 89
1, 372698, Control_c, 0, 67, 99
1, 372713, Control_c, 0, 67, 109
1, 372727, Control_c, 0, 67, 118
1, 372742, Control_c, 0, 67, 125
1, 372757, Control_c, 0, 67, 127
1, 372894, Note_on_c, 0, 82, 73
1, 372945, Note_off_c, 0, 79, 57
1, 373002, Control_c, 0, 67, 127
1, 373016, Control_c, 0, 67, 125
1, 373031, Control_c, 0, 64, 109
1, 373031, Control_c, 0, 67, 125
1, 373046, Control_c, 0, 64, 97
1, 373046, Control_c, 0, 67, 124
1, 373060, Control_c, 0, 64, 90
1, 373060, Control_c, 0, 67, 124
1, 373075, Control_c, 0, 64, 85
1, 373075, Control_c, 0, 67, 123
1, 373090, Control_c, 0, 64, 82
1, 373090, Control_c, 0, 67, 122
1, 373105, Control_c, 0, 64, 81
1, 373105, Control_c, 0, 67, 121
1, 373120, Control_c, 0, 64, 80
1, 373134, Control_c, 0, 64, 80
1, 373134, Control_c, 0, 67, 120
1, 373149, Control_c, 0, 64, 79
1, 373164, Control_c, 0, 64, 79
1, 373179, Control_c, 0, 64, 78
1, 373179, Control_c, 0, 67, 120
1, 373194, Control_c, 0, 64, 77
1, 373210, Control_c, 0, 64, 76
1, 373210, Control_c, 0, 67, 119
1, 373225, Control_c, 0, 64, 75
1, 373372, Control_c, 0, 64, 76
1, 373402, Control_c, 0, 64, 76
1, 373417, Control_c, 0, 64, 77
1, 373431, Control_c, 0, 64, 77
1, 373446, Control_c, 0, 64, 78
1, 373461, Control_c, 0, 64, 78
1, 373476, Control_c, 0, 64, 79
1, 373476, Control_c, 0, 67, 119
1, 373491, Control_c, 0, 64, 80
1, 373506, Control_c, 0, 64, 81
1, 373520, Control_c, 0, 64, 82
1, 373535, Control_c, 0, 64, 84
1, 373550, Control_c, 0, 64, 85
1, 373565, Control_c, 0, 64, 86
1, 373580, Control_c, 0, 64, 88
1, 373595, Control_c, 0, 64, 91
1, 373617, Control_c, 0, 64, 93
1, 373632, Control_c, 0, 64, 95
1, 373646, Control_c, 0, 64, 97
1, 373661, Control_c, 0, 64, 98
1, 373676, Control_c, 0, 64, 99
1, 373690, Control_c, 0, 64, 99
1, 373705, Control_c, 0, 64, 101
1, 373711, Note_on_c, 0, 49, 45
1, 373720, Control_c, 0, 64, 102
1, 373735, Control_c, 0, 64, 104
1, 373750, Control_c, 0, 64, 106
1, 373765, Control_c, 0, 64, 107
1, 373765, Note_off_c, 0, 49, 58
1, 373884, Note_on_c, 0, 49, 48
1, 373929, Note_off_c, 0, 49, 60
1, 374003, Control_c, 0, 67, 119
1, 374018, Control_c, 0, 67, 120
1, 374033, Control_c, 0, 67, 121
1, 374048, Control_c, 0, 67, 122
1, 374051, Note_on_c, 0, 49, 45
1, 374062, Control_c, 0, 67, 122
1, 374077, Control_c, 0, 67, 124
1, 374092, Control_c, 0, 67, 124
1, 374097, Note_off_c, 0, 49, 58
1, 374107, Control_c, 0, 67, 125
1, 374122, Control_c, 0, 67, 125
1, 374136, Control_c, 0, 67, 127
1, 374151, Control_c, 0, 67, 127
1, 374180, Control_c, 0, 64, 106
1, 374195, Control_c, 0, 64, 106
1, 374210, Control_c, 0, 64, 105
1, 374225, Control_c, 0, 64, 104
1, 374240, Control_c, 0, 64, 103
1, 374254, Control_c, 0, 64, 102
1, 374269, Control_c, 0, 64, 100
1, 374284, Control_c, 0, 64, 99
1, 374299, Control_c, 0, 64, 97
1, 374301, Note_on_c, 0, 48, 45
1, 374313, Control_c, 0, 64, 94
1, 374328, Control_c, 0, 64, 92
1, 374343, Control_c, 0, 64, 87
1, 374366, Control_c, 0, 64, 82
1, 374381, Control_c, 0, 64, 77
1, 374395, Control_c, 0, 64, 73
1, 374410, Control_c, 0, 64, 69
1, 374425, Control_c, 0, 64, 66
1, 374440, Control_c, 0, 64, 65
1, 374469, Control_c, 0, 64, 66
1, 374499, Control_c, 0, 64, 66
1, 374513, Control_c, 0, 64, 67
1, 374528, Control_c, 0, 64, 67
1, 374543, Control_c, 0, 64, 68
1, 374558, Control_c, 0, 64, 69
1, 374573, Control_c, 0, 64, 69
1, 374588, Control_c, 0, 64, 70
1, 374602, Control_c, 0, 64, 71
1, 374617, Control_c, 0, 64, 73
1, 374617, Control_c, 0, 67, 127
1, 374632, Control_c, 0, 64, 74
1, 374647, Control_c, 0, 64, 76
1, 374647, Control_c, 0, 67, 126
1, 374662, Control_c, 0, 64, 78
1, 374662, Control_c, 0, 67, 125
1, 374677, Control_c, 0, 64, 80
1, 374677, Control_c, 0, 67, 125
1, 374689, Note_off_c, 0, 82, 55
1, 374692, Control_c, 0, 64, 83
1, 374692, Control_c, 0, 67, 124
1, 374706, Control_c, 0, 64, 86
1, 374721, Control_c, 0, 64, 90
1, 374721, Control_c, 0, 67, 124
1, 374736, Control_c, 0, 64, 92
1, 374751, Control_c, 0, 64, 95
1, 374766, Control_c, 0, 64, 98
1, 374780, Control_c, 0, 64, 100
1, 374795, Control_c, 0, 64, 102
1, 374795, Control_c, 0, 67, 123
1, 374811, Control_c, 0, 64, 103
1, 374826, Control_c, 0, 67, 122
1, 374841, Control_c, 0, 64, 103
1, 374856, Control_c, 0, 64, 104
1, 374885, Control_c, 0, 67, 122
1, 374915, Control_c, 0, 67, 121
1, 374929, Control_c, 0, 67, 120
1, 374947, Note_on_c, 0, 79, 57
1, 374959, Control_c, 0, 67, 120
1, 374969, Note_on_c, 0, 76, 45
1, 374974, Control_c, 0, 67, 119
1, 374987, Note_off_c, 0, 79, 63
1, 375002, Note_off_c, 0, 76, 58
1, 375003, Control_c, 0, 67, 119
1, 375020, Note_off_c, 0, 48, 38
1, 375033, Control_c, 0, 67, 118
1, 375048, Control_c, 0, 67, 117
1, 375077, Control_c, 0, 64, 103
1, 375092, Control_c, 0, 67, 117
1, 375100, Note_on_c, 0, 76, 53
1, 375112, Note_on_c, 0, 79, 61
1, 375154, Note_off_c, 0, 76, 62
1, 375156, Note_off_c, 0, 79, 60
1, 375263, Control_c, 0, 67, 117
1, 375270, Note_on_c, 0, 79, 55
1, 375277, Note_on_c, 0, 76, 49
1, 375314, Note_off_c, 0, 79, 59
1, 375321, Note_off_c, 0, 76, 57
1, 375396, Control_c, 0, 64, 103
1, 375410, Control_c, 0, 64, 102
1, 375425, Control_c, 0, 64, 102
1, 375440, Control_c, 0, 64, 101
1, 375455, Control_c, 0, 64, 100
1, 375470, Control_c, 0, 64, 99
1, 375473, Note_on_c, 0, 82, 58
1, 375485, Control_c, 0, 64, 99
1, 375493, Note_on_c, 0, 79, 44
1, 375500, Control_c, 0, 64, 98
1, 375515, Control_c, 0, 64, 96
1, 375529, Control_c, 0, 64, 94
1, 375544, Control_c, 0, 64, 91
1, 375559, Control_c, 0, 64, 86
1, 375574, Control_c, 0, 64, 82
1, 375589, Control_c, 0, 64, 78
1, 375604, Control_c, 0, 64, 75
1, 375619, Control_c, 0, 64, 72
1, 375634, Control_c, 0, 64, 71
1, 375649, Control_c, 0, 64, 71
1, 375664, Control_c, 0, 64, 71
1, 375693, Control_c, 0, 64, 72
1, 375723, Control_c, 0, 64, 72
1, 375738, Control_c, 0, 64, 73
1, 375752, Control_c, 0, 64, 73
1, 375767, Control_c, 0, 64, 74
1, 375782, Control_c, 0, 64, 74
1, 375797, Control_c, 0, 64, 75
1, 375812, Control_c, 0, 64, 76
1, 375826, Control_c, 0, 64, 77
1, 375841, Control_c, 0, 64, 79
1, 375863, Control_c, 0, 64, 80
1, 375878, Control_c, 0, 64, 82
1, 375893, Control_c, 0, 64, 83
1, 375908, Control_c, 0, 64, 85
1, 375923, Control_c, 0, 64, 86
1, 375938, Control_c, 0, 64, 87
1, 375953, Control_c, 0, 64, 89
1, 375954, Note_off_c, 0, 79, 37
1, 375967, Control_c, 0, 64, 90
1, 375982, Control_c, 0, 64, 91
1, 375997, Control_c, 0, 64, 92
1, 376004, Note_off_c, 0, 82, 36
1, 376012, Control_c, 0, 64, 94
1, 376027, Control_c, 0, 64, 95
1, 376041, Control_c, 0, 64, 97
1, 376056, Control_c, 0, 64, 99
1, 376071, Control_c, 0, 64, 100
1, 376086, Control_c, 0, 64, 100
1, 376101, Control_c, 0, 64, 101
1, 376130, Control_c, 0, 64, 102
1, 376159, Control_c, 0, 64, 103
1, 376208, Note_on_c, 0, 49, 41
1, 376257, Note_off_c, 0, 49, 59
1, 376278, Control_c, 0, 67, 118
1, 376293, Control_c, 0, 67, 119
1, 376308, Control_c, 0, 67, 119
1, 376322, Control_c, 0, 67, 120
1, 376337, Control_c, 0, 67, 120
1, 376352, Control_c, 0, 67, 122
1, 376367, Control_c, 0, 67, 124
1, 376382, Control_c, 0, 67, 125
1, 376389, Note_on_c, 0, 49, 41
1, 376397, Control_c, 0, 67, 127
1, 376412, Control_c, 0, 67, 127
1, 376440, Note_off_c, 0, 49, 55
1, 376564, Note_on_c, 0, 49, 40
1, 376642, Control_c, 0, 64, 103
1, 376656, Control_c, 0, 64, 102
1, 376659, Note_off_c, 0, 49, 37
1, 376671, Control_c, 0, 64, 102
1, 376701, Control_c, 0, 64, 101
1, 376716, Control_c, 0, 64, 101
1, 376731, Control_c, 0, 64, 100
1, 376746, Control_c, 0, 64, 98
1, 376761, Control_c, 0, 64, 96
1, 376775, Control_c, 0, 64, 94
1, 376790, Control_c, 0, 64, 92
1, 376805, Note_on_c, 0, 48, 46
1, 376805, Control_c, 0, 64, 90
1, 376820, Control_c, 0, 64, 85
1, 376835, Control_c, 0, 64, 80
1, 376849, Control_c, 0, 64, 74
1, 376864, Control_c, 0, 64, 69
1, 376879, Control_c, 0, 64, 66
1, 376894, Control_c, 0, 64, 63
1, 376908, Control_c, 0, 64, 62
1, 376953, Control_c, 0, 64, 62
1, 376968, Control_c, 0, 64, 63
1, 376982, Control_c, 0, 64, 63
1, 376997, Control_c, 0, 64, 64
1, 377012, Control_c, 0, 64, 64
1, 377027, Control_c, 0, 64, 65
1, 377042, Control_c, 0, 64, 67
1, 377056, Control_c, 0, 64, 68
1, 377071, Control_c, 0, 64, 69
1, 377086, Control_c, 0, 64, 71
1, 377100, Control_c, 0, 64, 73
1, 377115, Control_c, 0, 64, 76
1, 377130, Control_c, 0, 64, 78
1, 377145, Control_c, 0, 64, 81
1, 377160, Control_c, 0, 64, 83
1, 377175, Control_c, 0, 64, 86
1, 377190, Control_c, 0, 64, 88
1, 377205, Control_c, 0, 64, 90
1, 377220, Control_c, 0, 64, 93
1, 377235, Control_c, 0, 64, 94
1, 377250, Control_c, 0, 64, 96
1, 377265, Control_c, 0, 64, 97
1, 377279, Control_c, 0, 64, 98
1, 377294, Control_c, 0, 64, 98
1, 377309, Control_c, 0, 64, 99
1, 377324, Control_c, 0, 64, 99
1, 377339, Control_c, 0, 64, 100
1, 377361, Control_c, 0, 64, 101
1, 377376, Control_c, 0, 64, 103
1, 377391, Control_c, 0, 64, 104
1, 377405, Control_c, 0, 64, 104
1, 377420, Control_c, 0, 64, 105
1, 377421, Note_on_c, 0, 64, 38
1, 377421, Note_on_c, 0, 67, 47
1, 377435, Control_c, 0, 64, 106
1, 377450, Control_c, 0, 64, 107
1, 377465, Control_c, 0, 64, 108
1, 377466, Note_off_c, 0, 64, 56
1, 377468, Note_off_c, 0, 67, 59
1, 377479, Control_c, 0, 64, 108
1, 377494, Control_c, 0, 64, 109
1, 377509, Control_c, 0, 64, 110
1, 377568, Control_c, 0, 64, 110
1, 377578, Note_on_c, 0, 67, 51
1, 377583, Control_c, 0, 64, 111
1, 377595, Note_on_c, 0, 64, 37
1, 377598, Control_c, 0, 64, 111
1, 377607, Note_off_c, 0, 48, 33
1, 377613, Control_c, 0, 64, 112
1, 377621, Note_off_c, 0, 67, 60
1, 377627, Note_off_c, 0, 64, 54
1, 377628, Control_c, 0, 64, 113
1, 377643, Control_c, 0, 64, 113
1, 377741, Note_on_c, 0, 64, 35
1, 377746, Control_c, 0, 64, 114
1, 377747, Note_on_c, 0, 67, 45
1, 377791, Control_c, 0, 64, 115
1, 377796, Note_off_c, 0, 64, 57
1, 377798, Note_off_c, 0, 67, 56
1, 377953, Control_c, 0, 64, 114
1, 377968, Control_c, 0, 64, 113
1, 377983, Control_c, 0, 64, 111
1, 377999, Control_c, 0, 64, 108
1, 378010, Note_on_c, 0, 70, 45
1, 378014, Control_c, 0, 64, 106
1, 378018, Note_on_c, 0, 67, 33
1, 378028, Control_c, 0, 64, 102
1, 378043, Control_c, 0, 64, 99
1, 378058, Control_c, 0, 64, 95
1, 378073, Control_c, 0, 64, 91
1, 378088, Control_c, 0, 64, 86
1, 378110, Control_c, 0, 64, 80
1, 378125, Control_c, 0, 64, 75
1, 378140, Control_c, 0, 64, 70
1, 378154, Control_c, 0, 64, 66
1, 378169, Control_c, 0, 64, 62
1, 378184, Control_c, 0, 64, 61
1, 378199, Control_c, 0, 64, 60
1, 378228, Control_c, 0, 64, 59
1, 378243, Control_c, 0, 64, 58
1, 378258, Control_c, 0, 64, 55
1, 378273, Control_c, 0, 64, 53
1, 378288, Control_c, 0, 64, 51
1, 378302, Control_c, 0, 64, 49
1, 378317, Control_c, 0, 64, 48
1, 378332, Control_c, 0, 64, 47
1, 378376, Control_c, 0, 64, 48
1, 378391, Control_c, 0, 64, 51
1, 378406, Control_c, 0, 64, 54
1, 378421, Control_c, 0, 64, 57
1, 378436, Control_c, 0, 64, 61
1, 378450, Control_c, 0, 64, 63
1, 378465, Control_c, 0, 64, 65
1, 378480, Control_c, 0, 64, 66
1, 378495, Control_c, 0, 64, 68
1, 378509, Control_c, 0, 64, 70
1, 378524, Control_c, 0, 64, 72
1, 378539, Control_c, 0, 64, 74
1, 378553, Control_c, 0, 64, 77
1, 378568, Control_c, 0, 64, 81
1, 378583, Control_c, 0, 64, 85
1, 378598, Control_c, 0, 64, 88
1, 378613, Control_c, 0, 64, 92
1, 378627, Control_c, 0, 64, 96
1, 378642, Control_c, 0, 64, 99
1, 378649, Note_off_c, 0, 67, 39
1, 378657, Control_c, 0, 64, 102
1, 378672, Control_c, 0, 64, 102
1, 378687, Control_c, 0, 64, 103
1, 378688, Note_off_c, 0, 70, 38
1, 378701, Control_c, 0, 64, 103
1, 378731, Control_c, 0, 64, 104
1, 378808, Note_on_c, 0, 37, 33
1, 378910, Note_off_c, 0, 37, 38
1, 379046, Note_on_c, 0, 37, 46
1, 379132, Note_off_c, 0, 37, 36
1, 379289, Note_on_c, 0, 37, 41
1, 379375, Note_off_c, 0, 37, 42
1, 379554, Control_c, 0, 64, 103
1, 379568, Control_c, 0, 64, 102
1, 379606, Control_c, 0, 64, 101
1, 379621, Control_c, 0, 64, 100
1, 379636, Control_c, 0, 64, 99
1, 379651, Control_c, 0, 64, 98
1, 379666, Control_c, 0, 64, 96
1, 379680, Control_c, 0, 64, 95
1, 379688, Note_on_c, 0, 36, 33
1, 379695, Control_c, 0, 64, 92
1, 379710, Control_c, 0, 64, 89
1, 379725, Control_c, 0, 64, 85
1, 379740, Control_c, 0, 64, 80
1, 379754, Control_c, 0, 64, 76
1, 379769, Control_c, 0, 64, 71
1, 379784, Control_c, 0, 64, 66
1, 379798, Control_c, 0, 64, 63
1, 379813, Control_c, 0, 64, 59
1, 379828, Control_c, 0, 64, 56
1, 379843, Control_c, 0, 64, 55
1, 379858, Control_c, 0, 64, 52
1, 379873, Control_c, 0, 64, 45
1, 379888, Control_c, 0, 64, 24
1, 379903, Control_c, 0, 64, 0
1, 380110, Control_c, 0, 64, 35
1, 380125, Control_c, 0, 64, 51
1, 380140, Control_c, 0, 64, 59
1, 380154, Control_c, 0, 64, 63
1, 380169, Control_c, 0, 64, 65
1, 380184, Control_c, 0, 64, 66
1, 380198, Control_c, 0, 64, 67
1, 380213, Control_c, 0, 64, 67
1, 380228, Control_c, 0, 64, 68
1, 380243, Control_c, 0, 64, 70
1, 380258, Control_c, 0, 64, 71
1, 380272, Control_c, 0, 64, 73
1, 380287, Control_c, 0, 64, 74
1, 380302, Control_c, 0, 64, 76
1, 380305, Note_off_c, 0, 36, 39
1, 380317, Control_c, 0, 64, 78
1, 380332, Control_c, 0, 64, 79
1, 380354, Control_c, 0, 64, 81
1, 380369, Control_c, 0, 64, 83
1, 380384, Control_c, 0, 64, 85
1, 380400, Control_c, 0, 64, 87
1, 380415, Control_c, 0, 64, 89
1, 380429, Control_c, 0, 64, 92
1, 380444, Control_c, 0, 64, 94
1, 380459, Control_c, 0, 64, 97
1, 380474, Control_c, 0, 64, 99
1, 380489, Control_c, 0, 64, 101
1, 380503, Control_c, 0, 64, 102
1, 380621, Control_c, 0, 64, 101
1, 380636, Control_c, 0, 64, 101
1, 380651, Control_c, 0, 64, 100
1, 380666, Control_c, 0, 64, 98
1, 380681, Control_c, 0, 64, 95
1, 380696, Control_c, 0, 64, 92
1, 380710, Note_on_c, 0, 37, 39
1, 380711, Control_c, 0, 64, 87
1, 380726, Control_c, 0, 64, 80
1, 380741, Control_c, 0, 64, 72
1, 380755, Control_c, 0, 64, 64
1, 380770, Control_c, 0, 64, 55
1, 380785, Control_c, 0, 64, 51
1, 380800, Control_c, 0, 64, 52
1, 380815, Control_c, 0, 64, 54
1, 380830, Control_c, 0, 64, 55
1, 380844, Control_c, 0, 64, 57
1, 380859, Control_c, 0, 64, 61
1, 380874, Control_c, 0, 64, 63
1, 380889, Control_c, 0, 64, 65
1, 380892, Note_off_c, 0, 37, 43
1, 380904, Control_c, 0, 64, 68
1, 380919, Control_c, 0, 64, 70
1, 380934, Control_c, 0, 64, 74
1, 380948, Control_c, 0, 64, 78
1, 380963, Control_c, 0, 64, 83
1, 380978, Control_c, 0, 64, 88
1, 380993, Control_c, 0, 64, 93
1, 381008, Control_c, 0, 64, 97
1, 381022, Control_c, 0, 64, 99
1, 381037, Control_c, 0, 64, 100
1, 381065, Note_on_c, 0, 37, 32
1, 381198, Note_off_c, 0, 37, 31
1, 381375, Note_on_c, 0, 37, 31
1, 381660, Note_off_c, 0, 37, 25
1, 381786, Control_c, 0, 64, 100
1, 381801, Control_c, 0, 64, 99
1, 381882, Control_c, 0, 64, 99
1, 381912, Control_c, 0, 64, 98
1, 381927, Control_c, 0, 64, 97
1, 381941, Control_c, 0, 64, 96
1, 381945, Note_on_c, 0, 36, 28
1, 381956, Control_c, 0, 64, 95
1, 381971, Control_c, 0, 64, 94
1, 381986, Control_c, 0, 64, 92
1, 382001, Control_c, 0, 64, 90
1, 382016, Control_c, 0, 64, 86
1, 382031, Control_c, 0, 64, 80
1, 382046, Control_c, 0, 64, 74
1, 382061, Control_c, 0, 64, 68
1, 382076, Control_c, 0, 64, 62
1, 382091, Control_c, 0, 64, 56
1, 382105, Control_c, 0, 64, 52
1, 382120, Control_c, 0, 64, 49
1, 382135, Control_c, 0, 64, 47
1, 382150, Control_c, 0, 64, 43
1, 382165, Control_c, 0, 64, 29
1, 382180, Control_c, 0, 64, 0
1, 382401, Control_c, 0, 64, 15
1, 382416, Control_c, 0, 64, 30
1, 382431, Control_c, 0, 64, 40
1, 382446, Control_c, 0, 64, 48
1, 382461, Control_c, 0, 64, 52
1, 382475, Control_c, 0, 64, 55
1, 382490, Control_c, 0, 64, 57
1, 382505, Control_c, 0, 64, 59
1, 382520, Control_c, 0, 64, 60
1, 382535, Control_c, 0, 64, 61
1, 382550, Control_c, 0, 64, 63
1, 382564, Control_c, 0, 64, 64
1, 382579, Control_c, 0, 64, 65
1, 382601, Control_c, 0, 64, 67
1, 382616, Control_c, 0, 64, 69
1, 382631, Control_c, 0, 64, 71
1, 382646, Control_c, 0, 64, 74
1, 382661, Control_c, 0, 64, 77
1, 382675, Control_c, 0, 64, 80
1, 382690, Control_c, 0, 64, 83
1, 382705, Control_c, 0, 64, 86
1, 382719, Control_c, 0, 64, 90
1, 382734, Control_c, 0, 64, 92
1, 382749, Control_c, 0, 64, 94
1, 382764, Control_c, 0, 64, 95
1, 382779, Control_c, 0, 64, 97
1, 382795, Control_c, 0, 64, 100
1, 382810, Control_c, 0, 64, 102
1, 382816, Note_off_c, 0, 36, 34
1, 382824, Control_c, 0, 64, 105
1, 382839, Control_c, 0, 64, 107
1, 382854, Control_c, 0, 64, 110
1, 382869, Control_c, 0, 64, 113
1, 382884, Control_c, 0, 64, 118
1, 382898, Control_c, 0, 64, 127
1, 383424, Control_c, 0, 64, 123
1, 383439, Control_c, 0, 64, 113
1, 383454, Control_c, 0, 64, 107
1, 383460, Note_on_c, 0, 76, 42
1, 383467, Note_on_c, 0, 37, 36
1, 383469, Control_c, 0, 64, 99
1, 383471, Note_on_c, 0, 67, 45
1, 383471, Note_on_c, 0, 70, 22
1, 383484, Control_c, 0, 64, 90
1, 383498, Control_c, 0, 64, 80
1, 383513, Control_c, 0, 64, 70
1, 383528, Control_c, 0, 64, 62
1, 383542, Control_c, 0, 64, 51
1, 383557, Control_c, 0, 64, 42
1, 383587, Control_c, 0, 64, 43
1, 383603, Control_c, 0, 64, 46
1, 383618, Control_c, 0, 64, 49
1, 383633, Control_c, 0, 64, 55
1, 383647, Control_c, 0, 64, 60
1, 383662, Control_c, 0, 64, 64
1, 383677, Control_c, 0, 64, 67
1, 383691, Control_c, 0, 64, 71
1, 383706, Control_c, 0, 64, 76
1, 383718, Note_off_c, 0, 76, 51
1, 383721, Control_c, 0, 64, 82
1, 383736, Control_c, 0, 64, 90
1, 383743, Note_off_c, 0, 67, 35
1, 383751, Control_c, 0, 64, 101
1, 383751, Note_off_c, 0, 70, 40
1, 383754, Note_off_c, 0, 37, 40
1, 383766, Control_c, 0, 64, 116
1, 383781, Control_c, 0, 64, 127
1, 384103, Note_on_c, 0, 76, 57
1, 384115, Note_on_c, 0, 67, 48
1, 384116, Note_on_c, 0, 70, 42
1, 384122, Note_on_c, 0, 37, 42
1, 384307, Note_off_c, 0, 76, 56
1, 384329, Note_off_c, 0, 70, 40
1, 384341, Note_off_c, 0, 67, 40
1, 384345, Note_off_c, 0, 37, 38
1, 384365, Control_c, 0, 67, 127
1, 384395, Control_c, 0, 67, 126
1, 384441, Control_c, 0, 67, 125
1, 384530, Control_c, 0, 67, 125
1, 384676, Note_on_c, 0, 76, 47
1, 384690, Note_on_c, 0, 70, 35
1, 384691, Note_on_c, 0, 67, 39
1, 384699, Note_on_c, 0, 37, 34
1, 384811, Control_c, 0, 67, 125
1, 384848, Control_c, 0, 67, 126
1, 384863, Control_c, 0, 67, 127
1, 384878, Control_c, 0, 67, 127
1, 385093, Note_off_c, 0, 76, 35
1, 385095, Note_off_c, 0, 70, 35
1, 385112, Note_off_c, 0, 67, 34
1, 385229, Note_off_c, 0, 37, 30
1, 385886, Note_on_c, 0, 76, 44
1, 385903, Note_on_c, 0, 70, 30
1, 385904, Note_on_c, 0, 67, 35
1, 385907, Note_on_c, 0, 36, 29
1, 385967, Control_c, 0, 64, 117
1, 385983, Control_c, 0, 64, 99
1, 385998, Control_c, 0, 64, 88
1, 386013, Control_c, 0, 64, 79
1, 386028, Control_c, 0, 64, 72
1, 386042, Control_c, 0, 64, 67
1, 386057, Control_c, 0, 64, 63
1, 386072, Control_c, 0, 64, 59
1, 386087, Control_c, 0, 64, 58
1, 386102, Control_c, 0, 64, 57
1, 386116, Control_c, 0, 64, 57
1, 386131, Control_c, 0, 64, 56
1, 386146, Control_c, 0, 64, 54
1, 386161, Control_c, 0, 64, 51
1, 386176, Control_c, 0, 64, 47
1, 386190, Control_c, 0, 64, 44
1, 386205, Control_c, 0, 64, 40
1, 386220, Control_c, 0, 64, 38
1, 386234, Control_c, 0, 64, 37
1, 386249, Control_c, 0, 64, 36
1, 386264, Control_c, 0, 64, 34
1, 386279, Control_c, 0, 64, 32
1, 386294, Control_c, 0, 64, 28
1, 386308, Control_c, 0, 64, 23
1, 386323, Control_c, 0, 64, 17
1, 386346, Control_c, 0, 64, 13
1, 386361, Control_c, 0, 64, 12
1, 386405, Control_c, 0, 64, 11
1, 386523, Control_c, 0, 64, 12
1, 386538, Control_c, 0, 64, 13
1, 386553, Control_c, 0, 64, 15
1, 386568, Control_c, 0, 64, 16
1, 386583, Control_c, 0, 64, 17
1, 386598, Control_c, 0, 64, 17
1, 386613, Control_c, 0, 64, 20
1, 386627, Control_c, 0, 64, 21
1, 386642, Control_c, 0, 64, 23
1, 386657, Control_c, 0, 64, 25
1, 386672, Control_c, 0, 64, 27
1, 386687, Control_c, 0, 64, 29
1, 386702, Control_c, 0, 64, 32
1, 386716, Control_c, 0, 64, 36
1, 386731, Control_c, 0, 64, 41
1, 386746, Control_c, 0, 64, 45
1, 386760, Control_c, 0, 64, 49
1, 386775, Control_c, 0, 64, 51
1, 386791, Control_c, 0, 64, 52
1, 386806, Control_c, 0, 64, 53
1, 386821, Control_c, 0, 64, 55
1, 386836, Control_c, 0, 64, 55
1, 386851, Control_c, 0, 64, 56
1, 386865, Control_c, 0, 64, 57
1, 386880, Control_c, 0, 64, 58
1, 386895, Control_c, 0, 64, 59
1, 386910, Control_c, 0, 64, 60
1, 386925, Control_c, 0, 64, 60
1, 386939, Control_c, 0, 64, 61
1, 386954, Control_c, 0, 64, 61
1, 386969, Control_c, 0, 64, 62
1, 386984, Control_c, 0, 64, 62
1, 387013, Control_c, 0, 64, 63
1, 387028, Control_c, 0, 64, 63
1, 387072, Control_c, 0, 64, 64
1, 387125, Control_c, 0, 64, 64
1, 387169, Control_c, 0, 64, 65
1, 387228, Control_c, 0, 64, 65
1, 387272, Control_c, 0, 64, 66
1, 387332, Control_c, 0, 64, 66
1, 387361, Control_c, 0, 64, 67
1, 387376, Control_c, 0, 64, 67
1, 387391, Control_c, 0, 64, 68
1, 387405, Control_c, 0, 64, 68
1, 387420, Control_c, 0, 64, 69
1, 387435, Control_c, 0, 64, 70
1, 387450, Control_c, 0, 64, 71
1, 387464, Control_c, 0, 64, 72
1, 387479, Control_c, 0, 64, 73
1, 387494, Control_c, 0, 64, 74
1, 387509, Control_c, 0, 64, 74
1, 387524, Control_c, 0, 64, 75
1, 387538, Control_c, 0, 64, 76
1, 387553, Control_c, 0, 64, 76
1, 387568, Control_c, 0, 64, 77
1, 387584, Control_c, 0, 64, 77
1, 387599, Control_c, 0, 64, 78
1, 387614, Control_c, 0, 64, 78
1, 387629, Control_c, 0, 64, 79
1, 387643, Control_c, 0, 64, 80
1, 387658, Control_c, 0, 64, 80
1, 387673, Control_c, 0, 64, 81
1, 387687, Control_c, 0, 64, 82
1, 387702, Control_c, 0, 64, 83
1, 387717, Control_c, 0, 64, 84
1, 387732, Control_c, 0, 64, 85
1, 387747, Control_c, 0, 64, 87
1, 387761, Control_c, 0, 64, 89
1, 387764, Note_off_c, 0, 70, 39
1, 387776, Control_c, 0, 64, 91
1, 387790, Note_off_c, 0, 67, 36
1, 387791, Control_c, 0, 64, 92
1, 387805, Control_c, 0, 64, 94
1, 387820, Control_c, 0, 64, 95
1, 387843, Control_c, 0, 64, 98
1, 387858, Control_c, 0, 64, 100
1, 387873, Control_c, 0, 64, 102
1, 387887, Control_c, 0, 64, 105
1, 387902, Control_c, 0, 64, 107
1, 387917, Control_c, 0, 64, 110
1, 387932, Control_c, 0, 64, 113
1, 387939, Note_off_c, 0, 36, 28
1, 387947, Control_c, 0, 64, 116
1, 387961, Control_c, 0, 64, 121
1, 387976, Control_c, 0, 64, 127
1, 388016, Note_off_c, 0, 76, 53
1, 388333, Control_c, 0, 67, 105
1, 388347, Control_c, 0, 67, 66
1, 388362, Control_c, 0, 67, 13
1, 388377, Control_c, 0, 67, 0
1, 388564, Note_on_c, 0, 48, 100
1, 388567, Note_on_c, 0, 36, 89
1, 388568, Note_on_c, 0, 76, 104
1, 388569, Note_on_c, 0, 79, 94
1, 388571, Control_c, 0, 64, 69
1, 388573, Note_on_c, 0, 88, 86
1, 388587, Note_on_c, 0, 82, 79
1, 388587, Note_on_c, 0, 84, 79
1, 388592, Control_c, 0, 64, 0
1, 388610, Note_off_c, 0, 82, 67
1, 388611, Note_off_c, 0, 48, 67
1, 388622, Note_off_c, 0, 36, 61
1, 388625, Note_off_c, 0, 76, 64
1, 388631, Note_off_c, 0, 84, 62
1, 388631, Note_off_c, 0, 88, 66
1, 388633, Note_off_c, 0, 79, 59
1, 388681, Note_on_c, 0, 79, 71
1, 388688, Note_on_c, 0, 76, 98
1, 388690, Note_on_c, 0, 48, 93
1, 388696, Note_on_c, 0, 82, 65
1, 388696, Note_on_c, 0, 36, 78
1, 388705, Note_on_c, 0, 88, 61
1, 388708, Note_on_c, 0, 84, 48
1, 388725, Note_off_c, 0, 36, 66
1, 388727, Note_off_c, 0, 48, 64
1, 388732, Note_off_c, 0, 88, 67
1, 388736, Note_off_c, 0, 76, 62
1, 388744, Note_off_c, 0, 84, 63
1, 388766, Note_off_c, 0, 79, 52
1, 388769, Note_off_c, 0, 82, 51
1, 388797, Note_on_c, 0, 48, 79
1, 388801, Note_on_c, 0, 36, 76
1, 388802, Note_on_c, 0, 76, 90
1, 388805, Note_on_c, 0, 88, 79
1, 388827, Note_off_c, 0, 48, 66
1, 388839, Note_off_c, 0, 36, 65
1, 388847, Note_off_c, 0, 88, 65
1, 388854, Note_off_c, 0, 76, 62
1, 388932, Control_c, 0, 64, 82
1, 388943, Note_on_c, 0, 80, 97
1, 388944, Note_on_c, 0, 41, 96
1, 388947, Control_c, 0, 64, 127
1, 388948, Note_on_c, 0, 77, 103
1, 388950, Note_on_c, 0, 89, 100
1, 388951, Note_on_c, 0, 29, 93
1, 388958, Note_on_c, 0, 84, 49
1, 388965, Note_on_c, 0, 86, 70
1, 388977, Note_off_c, 0, 29, 64
1, 388978, Note_on_c, 0, 79, 45
1, 388979, Note_off_c, 0, 79, 127
1, 388982, Note_off_c, 0, 84, 55
1, 388982, Note_off_c, 0, 89, 68
1, 388982, Note_off_c, 0, 80, 69
1, 388982, Note_off_c, 0, 86, 67
1, 388985, Note_off_c, 0, 41, 66
1, 388992, Note_off_c, 0, 77, 59
1, 389182, Note_on_c, 0, 65, 62
1, 389205, Note_on_c, 0, 60, 61
1, 389254, Note_off_c, 0, 65, 59
1, 389269, Note_off_c, 0, 60, 63
1, 389274, Control_c, 0, 64, 95
1, 389279, Note_on_c, 0, 56, 62
1, 389289, Control_c, 0, 64, 74
1, 389304, Control_c, 0, 64, 62
1, 389319, Control_c, 0, 64, 46
1, 389340, Control_c, 0, 64, 9
1, 389348, Note_off_c, 0, 56, 60
1, 389355, Control_c, 0, 64, 0
1, 389367, Note_on_c, 0, 60, 48
1, 389385, Note_on_c, 0, 65, 54
1, 389430, Note_off_c, 0, 65, 58
1, 389449, Note_off_c, 0, 60, 58
1, 389465, Note_on_c, 0, 56, 65
1, 389489, Control_c, 0, 64, 17
1, 389504, Control_c, 0, 64, 42
1, 389519, Control_c, 0, 64, 57
1, 389522, Note_off_c, 0, 56, 58
1, 389533, Control_c, 0, 64, 62
1, 389546, Note_on_c, 0, 60, 44
1, 389548, Control_c, 0, 64, 65
1, 389556, Note_on_c, 0, 65, 52
1, 389563, Control_c, 0, 64, 66
1, 389578, Control_c, 0, 64, 67
1, 389593, Control_c, 0, 64, 69
1, 389598, Note_off_c, 0, 65, 62
1, 389607, Control_c, 0, 64, 71
1, 389610, Note_off_c, 0, 60, 57
1, 389622, Control_c, 0, 64, 73
1, 389637, Control_c, 0, 64, 76
1, 389645, Note_on_c, 0, 56, 56
1, 389651, Control_c, 0, 64, 78
1, 389666, Control_c, 0, 64, 80
1, 389680, Control_c, 0, 64, 82
1, 389695, Note_off_c, 0, 56, 55
1, 389695, Control_c, 0, 64, 83
1, 389710, Control_c, 0, 64, 86
1, 389725, Control_c, 0, 64, 89
1, 389740, Control_c, 0, 64, 94
1, 389743, Note_on_c, 0, 60, 48
1, 389745, Note_on_c, 0, 65, 45
1, 389754, Control_c, 0, 64, 100
1, 389769, Control_c, 0, 64, 113
1, 389784, Control_c, 0, 64, 127
1, 389788, Note_off_c, 0, 60, 60
1, 389793, Note_off_c, 0, 65, 59
1, 389838, Note_on_c, 0, 56, 53
1, 389907, Note_off_c, 0, 56, 54
1, 389921, Note_on_c, 0, 60, 47
1, 389936, Note_on_c, 0, 65, 43
1, 389943, Note_on_c, 0, 68, 66
1, 389975, Note_off_c, 0, 60, 56
1, 389990, Note_off_c, 0, 65, 57
1, 390041, Note_on_c, 0, 56, 47
1, 390106, Note_off_c, 0, 56, 57
1, 390121, Note_on_c, 0, 60, 45
1, 390134, Note_on_c, 0, 65, 39
1, 390173, Note_off_c, 0, 68, 61
1, 390175, Note_on_c, 0, 72, 68
1, 390178, Note_off_c, 0, 60, 57
1, 390193, Note_off_c, 0, 65, 56
1, 390231, Note_on_c, 0, 56, 51
1, 390261, Note_on_c, 0, 77, 77
1, 390277, Note_off_c, 0, 72, 59
1, 390324, Note_off_c, 0, 56, 55
1, 390336, Note_on_c, 0, 60, 45
1, 390345, Note_on_c, 0, 65, 41
1, 390398, Note_off_c, 0, 65, 54
1, 390404, Note_off_c, 0, 60, 55
1, 390454, Note_on_c, 0, 56, 51
1, 390535, Note_off_c, 0, 56, 55
1, 390544, Note_on_c, 0, 60, 48
1, 390557, Note_on_c, 0, 65, 44
1, 390568, Note_on_c, 0, 80, 79
1, 390596, Note_off_c, 0, 77, 60
1, 390599, Note_off_c, 0, 60, 55
1, 390625, Note_off_c, 0, 65, 54
1, 390659, Note_on_c, 0, 56, 53
1, 390668, Note_off_c, 0, 80, 64
1, 390742, Note_off_c, 0, 56, 58
1, 390744, Note_on_c, 0, 60, 44
1, 390761, Note_on_c, 0, 65, 47
1, 390786, Control_c, 0, 64, 94
1, 390794, Note_on_c, 0, 77, 74
1, 390801, Control_c, 0, 64, 73
1, 390816, Note_off_c, 0, 65, 55
1, 390816, Note_off_c, 0, 60, 52
1, 390816, Control_c, 0, 64, 55
1, 390839, Control_c, 0, 64, 0
1, 390871, Note_on_c, 0, 58, 51
1, 390880, Note_on_c, 0, 76, 75
1, 390888, Note_off_c, 0, 77, 53
1, 390942, Control_c, 0, 64, 37
1, 390957, Control_c, 0, 64, 57
1, 390961, Note_off_c, 0, 58, 60
1, 390972, Control_c, 0, 64, 65
1, 390974, Note_on_c, 0, 60, 43
1, 390983, Note_on_c, 0, 67, 50
1, 390986, Control_c, 0, 64, 71
1, 391001, Control_c, 0, 64, 79
1, 391016, Control_c, 0, 64, 94
1, 391030, Control_c, 0, 64, 121
1, 391045, Control_c, 0, 64, 127
1, 391046, Note_off_c, 0, 60, 57
1, 391054, Note_off_c, 0, 67, 54
1, 391093, Note_on_c, 0, 58, 54
1, 391182, Note_off_c, 0, 58, 57
1, 391184, Note_on_c, 0, 60, 50
1, 391191, Note_on_c, 0, 67, 51
1, 391201, Note_on_c, 0, 79, 73
1, 391209, Note_off_c, 0, 76, 62
1, 391238, Note_off_c, 0, 60, 59
1, 391252, Note_off_c, 0, 79, 64
1, 391257, Note_off_c, 0, 67, 54
1, 391316, Note_on_c, 0, 58, 48
1, 391363, Note_off_c, 0, 58, 59
1, 391370, Note_on_c, 0, 60, 47
1, 391394, Note_on_c, 0, 67, 52
1, 391402, Note_off_c, 0, 60, 64
1, 391448, Note_on_c, 0, 76, 68
1, 391461, Note_off_c, 0, 67, 59
1, 391504, Control_c, 0, 64, 90
1, 391519, Control_c, 0, 64, 70
1, 391525, Note_on_c, 0, 56, 53
1, 391527, Note_on_c, 0, 77, 75
1, 391533, Note_off_c, 0, 76, 61
1, 391534, Control_c, 0, 64, 51
1, 391549, Control_c, 0, 64, 0
1, 391628, Note_off_c, 0, 56, 58
1, 391633, Note_on_c, 0, 60, 45
1, 391647, Control_c, 0, 64, 34
1, 391650, Note_on_c, 0, 65, 49
1, 391661, Control_c, 0, 64, 59
1, 391676, Control_c, 0, 64, 66
1, 391691, Control_c, 0, 64, 73
1, 391695, Note_off_c, 0, 60, 59
1, 391701, Note_off_c, 0, 65, 56
1, 391706, Control_c, 0, 64, 84
1, 391721, Control_c, 0, 64, 98
1, 391735, Control_c, 0, 64, 127
1, 391740, Note_on_c, 0, 56, 47
1, 391826, Note_off_c, 0, 56, 55
1, 391834, Note_on_c, 0, 60, 51
1, 391858, Note_on_c, 0, 72, 70
1, 391859, Note_on_c, 0, 65, 44
1, 391896, Note_off_c, 0, 77, 61
1, 391908, Note_off_c, 0, 60, 56
1, 391908, Note_off_c, 0, 72, 62
1, 391914, Note_off_c, 0, 65, 57
1, 391960, Note_on_c, 0, 56, 49
1, 392021, Note_off_c, 0, 56, 55
1, 392047, Note_on_c, 0, 65, 47
1, 392051, Note_on_c, 0, 60, 49
1, 392120, Note_off_c, 0, 60, 53
1, 392124, Note_off_c, 0, 65, 56
1, 392164, Note_on_c, 0, 56, 52
1, 392246, Note_off_c, 0, 56, 58
1, 392258, Note_on_c, 0, 60, 48
1, 392262, Note_on_c, 0, 65, 47
1, 392316, Note_off_c, 0, 60, 57
1, 392329, Note_off_c, 0, 65, 57
1, 392368, Note_on_c, 0, 56, 57
1, 392427, Note_off_c, 0, 56, 56
1, 392452, Note_on_c, 0, 65, 53
1, 392462, Note_on_c, 0, 60, 48
1, 392462, Note_on_c, 0, 80, 80
1, 392477, Note_on_c, 0, 68, 56
1, 392500, Note_off_c, 0, 68, 58
1, 392506, Note_off_c, 0, 80, 66
1, 392511, Note_off_c, 0, 65, 55
1, 392518, Note_off_c, 0, 60, 57
1, 392549, Note_on_c, 0, 56, 61
1, 392644, Note_off_c, 0, 56, 59
1, 392646, Note_on_c, 0, 60, 46
1, 392650, Note_on_c, 0, 65, 56
1, 392673, Note_on_c, 0, 72, 73
1, 392678, Note_on_c, 0, 84, 81
1, 392697, Note_off_c, 0, 72, 68
1, 392698, Note_off_c, 0, 84, 71
1, 392741, Note_off_c, 0, 60, 51
1, 392741, Note_off_c, 0, 65, 59
1, 392762, Note_on_c, 0, 56, 68
1, 392772, Note_on_c, 0, 89, 97
1, 392777, Note_on_c, 0, 77, 87
1, 392799, Note_off_c, 0, 77, 70
1, 392818, Note_off_c, 0, 89, 62
1, 392861, Note_off_c, 0, 56, 61
1, 392867, Note_on_c, 0, 65, 57
1, 392869, Note_on_c, 0, 60, 61
1, 392946, Note_off_c, 0, 65, 59
1, 392951, Note_off_c, 0, 60, 58
1, 392980, Note_on_c, 0, 56, 65
1, 393069, Note_on_c, 0, 60, 68
1, 393081, Note_on_c, 0, 65, 65
1, 393087, Note_off_c, 0, 56, 62
1, 393087, Note_on_c, 0, 80, 92
1, 393092, Note_on_c, 0, 92, 100
1, 393129, Note_off_c, 0, 92, 67
1, 393142, Note_off_c, 0, 80, 64
1, 393152, Note_off_c, 0, 60, 50
1, 393165, Note_off_c, 0, 65, 61
1, 393192, Note_on_c, 0, 56, 73
1, 393254, Note_on_c, 0, 60, 61
1, 393287, Note_off_c, 0, 56, 60
1, 393290, Note_on_c, 0, 65, 65
1, 393314, Note_on_c, 0, 77, 85
1, 393320, Note_on_c, 0, 89, 80
1, 393337, Note_off_c, 0, 77, 70
1, 393343, Note_off_c, 0, 89, 70
1, 393352, Note_off_c, 0, 65, 60
1, 393352, Control_c, 0, 64, 110
1, 393367, Control_c, 0, 64, 76
1, 393382, Control_c, 0, 64, 54
1, 393397, Control_c, 0, 64, 0
1, 393398, Note_on_c, 0, 88, 99
1, 393400, Note_on_c, 0, 76, 98
1, 393400, Note_off_c, 0, 60, 28
1, 393402, Note_on_c, 0, 58, 75
1, 393486, Control_c, 0, 64, 56
1, 393498, Note_on_c, 0, 60, 76
1, 393500, Control_c, 0, 64, 67
1, 393509, Note_on_c, 0, 67, 78
1, 393515, Control_c, 0, 64, 86
1, 393518, Note_off_c, 0, 58, 62
1, 393520, Note_off_c, 0, 76, 62
1, 393530, Control_c, 0, 64, 127
1, 393558, Note_off_c, 0, 88, 64
1, 393580, Note_off_c, 0, 67, 61
1, 393615, Note_off_c, 0, 60, 63
1, 393617, Note_on_c, 0, 58, 81
1, 393695, Note_on_c, 0, 60, 69
1, 393711, Note_off_c, 0, 58, 60
1, 393713, Note_on_c, 0, 67, 78
1, 393715, Note_on_c, 0, 91, 103
1, 393716, Note_on_c, 0, 79, 100
1, 393756, Note_off_c, 0, 79, 67
1, 393757, Note_off_c, 0, 91, 68
1, 393793, Note_off_c, 0, 67, 62
1, 393817, Note_on_c, 0, 58, 80
1, 393817, Poly_aftertouch_c, 0, 62, 127
1, 393853, Poly_aftertouch_c, 0, 62, 0
1, 393894, Note_off_c, 0, 60, 64
1, 393919, Note_on_c, 0, 67, 78
1, 393939, Note_on_c, 0, 88, 91
1, 393940, Note_on_c, 0, 76, 92
1, 393965, Note_off_c, 0, 58, 59
1, 393968, Note_off_c, 0, 76, 66
1, 393975, Note_off_c, 0, 88, 66
1, 393977, Note_off_c, 0, 67, 62
1, 394012, Control_c, 0, 64, 94
1, 394027, Control_c, 0, 64, 64
1, 394035, Note_on_c, 0, 90, 102
1, 394037, Note_on_c, 0, 78, 107
1, 394042, Control_c, 0, 64, 0
1, 394047, Note_on_c, 0, 57, 68
1, 394065, Note_on_c, 0, 91, 58
1, 394090, Note_off_c, 0, 91, 39
1, 394097, Poly_aftertouch_c, 0, 60, 127
1, 394130, Control_c, 0, 64, 23
1, 394135, Note_on_c, 0, 63, 62
1, 394138, Note_off_c, 0, 57, 64
1, 394144, Note_on_c, 0, 66, 72
1, 394145, Control_c, 0, 64, 57
1, 394160, Control_c, 0, 64, 69
1, 394175, Control_c, 0, 64, 99
1, 394184, Note_off_c, 0, 90, 62
1, 394190, Control_c, 0, 64, 127
1, 394223, Note_off_c, 0, 66, 60
1, 394225, Note_off_c, 0, 78, 62
1, 394234, Note_off_c, 0, 63, 59
1, 394255, Note_on_c, 0, 57, 63
1, 394344, Note_on_c, 0, 60, 3
1, 394352, Control_c, 0, 64, 123
1, 394363, Note_on_c, 0, 66, 63
1, 394365, Note_on_c, 0, 84, 95
1, 394367, Control_c, 0, 64, 81
1, 394368, Note_on_c, 0, 63, 47
1, 394374, Note_on_c, 0, 72, 83
1, 394382, Control_c, 0, 64, 64
1, 394384, Note_off_c, 0, 57, 39
1, 394396, Control_c, 0, 64, 35
1, 394411, Control_c, 0, 64, 0
1, 394443, Note_off_c, 0, 63, 57
1, 394451, Note_off_c, 0, 66, 59
1, 394455, Control_c, 0, 64, 33
1, 394470, Control_c, 0, 64, 52
1, 394473, Note_on_c, 0, 57, 49
1, 394485, Control_c, 0, 64, 62
1, 394500, Control_c, 0, 64, 68
1, 394515, Control_c, 0, 64, 78
1, 394530, Control_c, 0, 64, 96
1, 394545, Control_c, 0, 64, 127
1, 394556, Note_off_c, 0, 57, 62
1, 394580, Note_on_c, 0, 66, 59
1, 394582, Note_on_c, 0, 63, 47
1, 394637, Note_off_c, 0, 66, 57
1, 394643, Note_off_c, 0, 63, 54
1, 394662, Note_off_c, 0, 72, 62
1, 394686, Note_on_c, 0, 57, 57
1, 394691, Note_off_c, 0, 84, 62
1, 394762, Note_off_c, 0, 57, 59
1, 394779, Note_on_c, 0, 66, 59
1, 394801, Note_on_c, 0, 63, 44
1, 394839, Note_off_c, 0, 66, 55
1, 394852, Note_off_c, 0, 63, 56
1, 394876, Note_on_c, 0, 57, 67
1, 394956, Note_off_c, 0, 57, 61
1, 394964, Note_on_c, 0, 66, 67
1, 394971, Note_on_c, 0, 63, 54
1, 394975, Note_on_c, 0, 87, 91
1, 394977, Note_on_c, 0, 75, 84
1, 395028, Note_off_c, 0, 87, 66
1, 395032, Note_off_c, 0, 75, 61
1, 395034, Note_off_c, 0, 66, 58
1, 395035, Note_off_c, 0, 63, 48
1, 395075, Note_on_c, 0, 57, 66
1, 395167, Note_on_c, 0, 63, 57
1, 395167, Note_off_c, 0, 57, 62
1, 395173, Note_on_c, 0, 66, 67
1, 395177, Note_on_c, 0, 72, 83
1, 395188, Note_on_c, 0, 84, 82
1, 395206, Note_off_c, 0, 72, 64
1, 395210, Note_off_c, 0, 84, 68
1, 395225, Note_off_c, 0, 66, 60
1, 395234, Control_c, 0, 64, 90
1, 395249, Control_c, 0, 64, 67
1, 395254, Note_off_c, 0, 63, 38
1, 395263, Control_c, 0, 64, 42
1, 395265, Note_off_c, 0, 60, 0
1, 395278, Control_c, 0, 64, 0
1, 395281, Note_on_c, 0, 89, 91
1, 395283, Note_on_c, 0, 57, 65
1, 395288, Note_on_c, 0, 77, 89
1, 395290, Note_on_c, 0, 60, 18
1, 395331, Control_c, 0, 64, 33
1, 395346, Control_c, 0, 64, 57
1, 395353, Note_off_c, 0, 89, 63
1, 395360, Control_c, 0, 64, 68
1, 395373, Note_on_c, 0, 63, 28
1, 395375, Control_c, 0, 64, 85
1, 395384, Note_off_c, 0, 57, 60
1, 395388, Note_on_c, 0, 65, 70
1, 395390, Control_c, 0, 64, 127
1, 395410, Note_off_c, 0, 77, 60
1, 395464, Note_off_c, 0, 65, 60
1, 395478, Note_on_c, 0, 57, 57
1, 395561, Note_off_c, 0, 57, 63
1, 395582, Note_off_c, 0, 60, 48
1, 395594, Note_on_c, 0, 61, 49
1, 395597, Note_on_c, 0, 65, 58
1, 395598, Control_c, 0, 64, 117
1, 395603, Note_on_c, 0, 82, 80
1, 395609, Note_on_c, 0, 70, 72
1, 395613, Control_c, 0, 64, 85
1, 395628, Control_c, 0, 64, 67
1, 395639, Note_off_c, 0, 63, 21
1, 395640, Note_off_c, 0, 61, 60
1, 395643, Control_c, 0, 64, 47
1, 395657, Control_c, 0, 64, 0
1, 395680, Note_off_c, 0, 65, 58
1, 395708, Note_on_c, 0, 58, 61
1, 395768, Note_on_c, 0, 61, 45
1, 395792, Note_off_c, 0, 58, 58
1, 395803, Note_on_c, 0, 65, 61
1, 395836, Control_c, 0, 64, 30
1, 395844, Note_off_c, 0, 61, 50
1, 395850, Control_c, 0, 64, 47
1, 395865, Control_c, 0, 64, 55
1, 395867, Note_off_c, 0, 65, 56
1, 395880, Control_c, 0, 64, 60
1, 395895, Control_c, 0, 64, 63
1, 395910, Control_c, 0, 64, 66
1, 395910, Note_on_c, 0, 58, 61
1, 395920, Note_off_c, 0, 70, 60
1, 395925, Note_on_c, 0, 61, 36
1, 395925, Control_c, 0, 64, 69
1, 395940, Control_c, 0, 64, 75
1, 395955, Control_c, 0, 64, 82
1, 395966, Note_off_c, 0, 82, 63
1, 395969, Control_c, 0, 64, 91
1, 395982, Note_off_c, 0, 58, 58
1, 395984, Control_c, 0, 64, 101
1, 395998, Note_on_c, 0, 65, 58
1, 395999, Control_c, 0, 64, 113
1, 396014, Control_c, 0, 64, 127
1, 396043, Note_off_c, 0, 61, 34
1, 396049, Note_off_c, 0, 65, 54
1, 396078, Note_on_c, 0, 58, 65
1, 396125, Control_c, 0, 64, 114
1, 396140, Control_c, 0, 64, 99
1, 396154, Control_c, 0, 64, 89
1, 396167, Note_off_c, 0, 58, 61
1, 396169, Control_c, 0, 64, 85
1, 396180, Note_on_c, 0, 64, 57
1, 396184, Control_c, 0, 64, 86
1, 396193, Note_on_c, 0, 85, 79
1, 396195, Note_on_c, 0, 67, 64
1, 396196, Note_on_c, 0, 73, 74
1, 396199, Control_c, 0, 64, 89
1, 396214, Control_c, 0, 64, 95
1, 396218, Note_off_c, 0, 64, 63
1, 396220, Note_off_c, 0, 85, 67
1, 396221, Note_off_c, 0, 73, 66
1, 396228, Control_c, 0, 64, 110
1, 396235, Note_off_c, 0, 67, 59
1, 396243, Control_c, 0, 64, 127
1, 396289, Note_on_c, 0, 58, 56
1, 396316, Note_on_c, 0, 64, 55
1, 396323, Note_off_c, 0, 58, 64
1, 396346, Note_off_c, 0, 64, 66
1, 396372, Note_on_c, 0, 67, 63
1, 396402, Note_off_c, 0, 67, 64
1, 396421, Note_on_c, 0, 70, 84
1, 396423, Note_on_c, 0, 82, 81
1, 396444, Note_off_c, 0, 70, 69
1, 396445, Note_off_c, 0, 82, 71
1, 396496, Control_c, 0, 64, 84
1, 396506, Note_on_c, 0, 80, 98
1, 396511, Note_on_c, 0, 68, 89
1, 396511, Control_c, 0, 64, 56
1, 396512, Note_on_c, 0, 48, 55
1, 396525, Control_c, 0, 64, 0
1, 396585, Note_off_c, 0, 68, 59
1, 396585, Control_c, 0, 64, 25
1, 396599, Control_c, 0, 64, 60
1, 396614, Control_c, 0, 64, 70
1, 396616, Note_on_c, 0, 60, 61
1, 396616, Note_on_c, 0, 56, 61
1, 396625, Note_off_c, 0, 48, 63
1, 396629, Control_c, 0, 64, 87
1, 396635, Note_off_c, 0, 80, 63
1, 396644, Control_c, 0, 64, 127
1, 396676, Note_on_c, 0, 53, 31
1, 396682, Note_off_c, 0, 60, 63
1, 396701, Note_off_c, 0, 56, 61
1, 396709, Note_on_c, 0, 48, 72
1, 396712, Note_off_c, 0, 53, 57
1, 396805, Note_on_c, 0, 53, 63
1, 396810, Note_off_c, 0, 48, 62
1, 396822, Note_on_c, 0, 60, 74
1, 396828, Note_on_c, 0, 56, 71
1, 396830, Note_on_c, 0, 72, 94
1, 396831, Note_on_c, 0, 84, 100
1, 396866, Note_off_c, 0, 84, 67
1, 396868, Note_off_c, 0, 72, 66
1, 396877, Note_off_c, 0, 60, 64
1, 396897, Note_off_c, 0, 56, 62
1, 396906, Note_on_c, 0, 48, 73
1, 396915, Note_off_c, 0, 53, 56
1, 396980, Note_on_c, 0, 53, 40
1, 396987, Note_off_c, 0, 48, 64
1, 397007, Note_on_c, 0, 56, 66
1, 397009, Note_on_c, 0, 60, 72
1, 397020, Note_off_c, 0, 53, 62
1, 397045, Note_off_c, 0, 56, 56
1, 397055, Note_on_c, 0, 80, 85
1, 397061, Note_on_c, 0, 68, 83
1, 397071, Note_off_c, 0, 60, 63
1, 397084, Note_off_c, 0, 80, 62
1, 397092, Note_off_c, 0, 68, 62
1, 397125, Control_c, 0, 64, 123
1, 397140, Control_c, 0, 64, 71
1, 397151, Poly_aftertouch_c, 0, 70, 0
1, 397152, Note_on_c, 0, 67, 102
1, 397152, Note_on_c, 0, 79, 102
1, 397153, Note_on_c, 0, 46, 82
1, 397155, Control_c, 0, 64, 0
1, 397210, Note_off_c, 0, 67, 61
1, 397230, Control_c, 0, 64, 50
1, 397240, Note_on_c, 0, 55, 74
1, 397245, Control_c, 0, 64, 71
1, 397252, Note_on_c, 0, 52, 70
1, 397256, Note_off_c, 0, 79, 66
1, 397260, Control_c, 0, 64, 102
1, 397261, Note_on_c, 0, 58, 76
1, 397273, Note_off_c, 0, 46, 62
1, 397275, Control_c, 0, 64, 127
1, 397332, Note_off_c, 0, 58, 62
1, 397353, Note_off_c, 0, 52, 62
1, 397354, Note_on_c, 0, 46, 83
1, 397360, Note_off_c, 0, 55, 60
1, 397443, Note_on_c, 0, 52, 67
1, 397451, Note_on_c, 0, 55, 80
1, 397459, Note_on_c, 0, 58, 77
1, 397469, Note_off_c, 0, 46, 61
1, 397475, Note_on_c, 0, 79, 98
1, 397478, Note_on_c, 0, 91, 106
1, 397523, Note_off_c, 0, 91, 66
1, 397532, Note_off_c, 0, 79, 66
1, 397533, Note_off_c, 0, 52, 56
1, 397543, Note_off_c, 0, 55, 58
1, 397544, Note_off_c, 0, 58, 61
1, 397576, Note_on_c, 0, 46, 83
1, 397645, Note_on_c, 0, 52, 62
1, 397668, Note_on_c, 0, 55, 59
1, 397674, Note_on_c, 0, 58, 79
1, 397676, Note_off_c, 0, 52, 63
1, 397690, Note_off_c, 0, 55, 63
1, 397704, Note_off_c, 0, 46, 48
1, 397718, Note_on_c, 0, 88, 87
1, 397719, Note_on_c, 0, 76, 90
1, 397743, Note_off_c, 0, 58, 62
1, 397751, Note_off_c, 0, 76, 64
1, 397755, Note_off_c, 0, 88, 64
1, 397800, Control_c, 0, 64, 102
1, 397815, Note_on_c, 0, 90, 99
1, 397815, Control_c, 0, 64, 64
1, 397816, Note_on_c, 0, 45, 82
1, 397820, Note_on_c, 0, 78, 108
1, 397830, Control_c, 0, 64, 0
1, 397918, Note_on_c, 0, 51, 73
1, 397918, Control_c, 0, 64, 54
1, 397926, Note_on_c, 0, 54, 74
1, 397928, Note_on_c, 0, 57, 67
1, 397933, Control_c, 0, 64, 70
1, 397939, Note_off_c, 0, 45, 62
1, 397947, Control_c, 0, 64, 113
1, 397954, Note_off_c, 0, 90, 64
1, 397963, Control_c, 0, 64, 127
1, 397991, Note_off_c, 0, 78, 62
1, 398020, Note_off_c, 0, 57, 58
1, 398026, Note_off_c, 0, 54, 63
1, 398026, Note_off_c, 0, 51, 62
1, 398035, Note_on_c, 0, 45, 68
1, 398141, Control_c, 0, 64, 114
1, 398142, Note_off_c, 0, 45, 59
1, 398149, Note_on_c, 0, 54, 68
1, 398153, Note_on_c, 0, 57, 57
1, 398156, Note_on_c, 0, 84, 93
1, 398156, Control_c, 0, 64, 82
1, 398158, Note_on_c, 0, 51, 56
1, 398158, Note_on_c, 0, 72, 91
1, 398170, Control_c, 0, 64, 65
1, 398185, Control_c, 0, 64, 28
1, 398200, Control_c, 0, 64, 0
1, 398219, Note_off_c, 0, 57, 61
1, 398220, Note_off_c, 0, 51, 50
1, 398232, Note_off_c, 0, 54, 60
1, 398259, Note_on_c, 0, 45, 62
1, 398350, Note_off_c, 0, 45, 59
1, 398364, Note_on_c, 0, 54, 60
1, 398366, Note_on_c, 0, 51, 48
1, 398374, Note_on_c, 0, 57, 53
1, 398400, Control_c, 0, 64, 13
1, 398415, Control_c, 0, 64, 44
1, 398428, Note_off_c, 0, 57, 60
1, 398430, Note_off_c, 0, 51, 57
1, 398430, Control_c, 0, 64, 55
1, 398439, Note_off_c, 0, 54, 64
1, 398444, Control_c, 0, 64, 60
1, 398459, Control_c, 0, 64, 63
1, 398467, Note_on_c, 0, 45, 65
1, 398474, Control_c, 0, 64, 65
1, 398477, Note_off_c, 0, 72, 62
1, 398489, Control_c, 0, 64, 67
1, 398503, Control_c, 0, 64, 70
1, 398510, Note_off_c, 0, 84, 63
1, 398518, Control_c, 0, 64, 74
1, 398533, Control_c, 0, 64, 78
1, 398546, Note_off_c, 0, 45, 60
1, 398548, Control_c, 0, 64, 84
1, 398561, Note_on_c, 0, 51, 57
1, 398563, Control_c, 0, 64, 92
1, 398568, Note_on_c, 0, 54, 61
1, 398572, Note_on_c, 0, 57, 56
1, 398578, Control_c, 0, 64, 101
1, 398593, Control_c, 0, 64, 116
1, 398608, Control_c, 0, 64, 127
1, 398615, Note_off_c, 0, 57, 62
1, 398627, Note_off_c, 0, 54, 57
1, 398628, Note_off_c, 0, 51, 52
1, 398660, Note_on_c, 0, 45, 69
1, 398750, Note_on_c, 0, 51, 63
1, 398751, Note_off_c, 0, 45, 57
1, 398759, Note_on_c, 0, 57, 65
1, 398760, Note_on_c, 0, 87, 95
1, 398762, Note_on_c, 0, 75, 85
1, 398764, Note_on_c, 0, 54, 60
1, 398808, Note_off_c, 0, 87, 66
1, 398814, Note_off_c, 0, 75, 62
1, 398822, Note_off_c, 0, 57, 63
1, 398827, Note_off_c, 0, 54, 55
1, 398865, Note_on_c, 0, 45, 68
1, 398955, Note_on_c, 0, 72, 86
1, 398968, Note_on_c, 0, 84, 85
1, 398970, Note_off_c, 0, 45, 61
1, 398983, Note_on_c, 0, 57, 71
1, 398989, Note_off_c, 0, 72, 63
1, 398991, Note_off_c, 0, 84, 65
1, 399023, Control_c, 0, 64, 94
1, 399034, Note_off_c, 0, 51, 44
1, 399035, Note_off_c, 0, 57, 63
1, 399038, Control_c, 0, 64, 69
1, 399053, Control_c, 0, 64, 46
1, 399071, Note_on_c, 0, 89, 97
1, 399075, Control_c, 0, 64, 0
1, 399077, Note_on_c, 0, 77, 91
1, 399083, Note_on_c, 0, 45, 71
1, 399087, Poly_aftertouch_c, 0, 53, 0
1, 399119, Control_c, 0, 64, 29
1, 399134, Control_c, 0, 64, 55
1, 399149, Control_c, 0, 64, 67
1, 399164, Note_off_c, 0, 89, 61
1, 399164, Control_c, 0, 64, 81
1, 399179, Control_c, 0, 64, 127
1, 399180, Note_on_c, 0, 53, 64
1, 399189, Note_off_c, 0, 45, 62
1, 399194, Note_off_c, 0, 77, 63
1, 399225, Note_on_c, 0, 58, 62
1, 399271, Note_off_c, 0, 58, 61
1, 399310, Note_off_c, 0, 53, 60
1, 399314, Note_on_c, 0, 46, 69
1, 399386, Control_c, 0, 64, 92
1, 399392, Note_on_c, 0, 82, 86
1, 399399, Note_on_c, 0, 70, 80
1, 399401, Control_c, 0, 64, 71
1, 399416, Control_c, 0, 64, 55
1, 399421, Note_off_c, 0, 46, 60
1, 399427, Note_on_c, 0, 58, 58
1, 399430, Control_c, 0, 64, 0
1, 399439, Note_on_c, 0, 53, 44
1, 399491, Note_off_c, 0, 53, 57
1, 399496, Note_off_c, 0, 58, 53
1, 399526, Note_on_c, 0, 46, 62
1, 399579, Control_c, 0, 64, 38
1, 399594, Control_c, 0, 64, 53
1, 399609, Control_c, 0, 64, 61
1, 399615, Note_on_c, 0, 53, 55
1, 399624, Control_c, 0, 64, 64
1, 399630, Note_on_c, 0, 58, 57
1, 399630, Note_off_c, 0, 46, 60
1, 399639, Control_c, 0, 64, 67
1, 399654, Control_c, 0, 64, 70
1, 399669, Control_c, 0, 64, 75
1, 399681, Note_on_c, 0, 49, 13
1, 399684, Control_c, 0, 64, 80
1, 399691, Note_off_c, 0, 58, 58
1, 399698, Control_c, 0, 64, 86
1, 399706, Note_off_c, 0, 53, 57
1, 399713, Control_c, 0, 64, 94
1, 399720, Note_off_c, 0, 70, 62
1, 399728, Control_c, 0, 64, 105
1, 399735, Note_on_c, 0, 46, 71
1, 399741, Note_off_c, 0, 49, 41
1, 399742, Control_c, 0, 64, 127
1, 399748, Note_off_c, 0, 82, 62
1, 399839, Note_on_c, 0, 53, 63
1, 399842, Note_on_c, 0, 49, 23
1, 399867, Note_on_c, 0, 58, 57
1, 399869, Note_off_c, 0, 46, 61
1, 399904, Note_off_c, 0, 53, 62
1, 399937, Note_off_c, 0, 58, 59
1, 399957, Note_on_c, 0, 46, 76
1, 399989, Note_off_c, 0, 49, 35
1, 400016, Control_c, 0, 64, 89
1, 400031, Control_c, 0, 64, 70
1, 400037, Note_on_c, 0, 73, 92
1, 400037, Note_on_c, 0, 85, 89
1, 400046, Control_c, 0, 64, 59
1, 400060, Note_on_c, 0, 58, 68
1, 400061, Control_c, 0, 64, 59
1, 400067, Note_on_c, 0, 55, 54
1, 400071, Note_off_c, 0, 46, 60
1, 400075, Control_c, 0, 64, 61
1, 400080, Note_on_c, 0, 52, 39
1, 400084, Note_off_c, 0, 85, 67
1, 400085, Note_off_c, 0, 73, 65
1, 400090, Control_c, 0, 64, 65
1, 400105, Control_c, 0, 64, 72
1, 400120, Control_c, 0, 64, 88
1, 400121, Note_off_c, 0, 58, 62
1, 400135, Control_c, 0, 64, 127
1, 400143, Note_off_c, 0, 55, 40
1, 400148, Note_off_c, 0, 52, 55
1, 400151, Note_on_c, 0, 46, 80
1, 400229, Note_on_c, 0, 52, 35
1, 400240, Note_on_c, 0, 55, 72
1, 400246, Note_off_c, 0, 46, 61
1, 400247, Note_on_c, 0, 58, 72
1, 400266, Note_off_c, 0, 52, 48
1, 400267, Control_c, 0, 64, 114
1, 400268, Note_on_c, 0, 70, 87
1, 400274, Note_off_c, 0, 55, 64
1, 400276, Note_on_c, 0, 82, 76
1, 400282, Control_c, 0, 64, 74
1, 400293, Note_off_c, 0, 70, 68
1, 400297, Control_c, 0, 64, 44
1, 400298, Note_off_c, 0, 82, 71
1, 400301, Note_off_c, 0, 58, 64
1, 400312, Control_c, 0, 64, 0
1, 400352, Note_on_c, 0, 80, 72
1, 400354, Note_on_c, 0, 48, 79
1, 400355, Note_on_c, 0, 68, 88
1, 400374, Note_on_c, 0, 70, 73
1, 400389, Note_off_c, 0, 70, 70
1, 400402, Control_c, 0, 64, 41
1, 400412, Note_off_c, 0, 68, 59
1, 400417, Control_c, 0, 64, 63
1, 400432, Control_c, 0, 64, 73
1, 400443, Note_on_c, 0, 53, 72
1, 400446, Control_c, 0, 64, 96
1, 400448, Note_on_c, 0, 56, 76
1, 400448, Note_off_c, 0, 80, 63
1, 400457, Note_on_c, 0, 60, 75
1, 400458, Note_off_c, 0, 48, 62
1, 400461, Control_c, 0, 64, 127
1, 400532, Note_off_c, 0, 60, 63
1, 400570, Note_on_c, 0, 48, 81
1, 400572, Note_off_c, 0, 56, 62
1, 400575, Note_off_c, 0, 53, 59
1, 400659, Note_on_c, 0, 72, 102
1, 400659, Note_on_c, 0, 84, 104
1, 400665, Note_on_c, 0, 56, 88
1, 400668, Note_on_c, 0, 60, 85
1, 400670, Note_on_c, 0, 53, 77
1, 400674, Note_off_c, 0, 48, 60
1, 400692, Note_off_c, 0, 72, 66
1, 400693, Note_off_c, 0, 84, 68
1, 400730, Note_off_c, 0, 60, 62
1, 400755, Note_off_c, 0, 56, 63
1, 400763, Note_on_c, 0, 48, 81
1, 400776, Note_off_c, 0, 53, 53
1, 400854, Note_on_c, 0, 56, 87
1, 400861, Note_on_c, 0, 60, 82
1, 400870, Note_off_c, 0, 48, 61
1, 400874, Note_on_c, 0, 53, 32
1, 400895, Note_on_c, 0, 80, 88
1, 400896, Note_on_c, 0, 68, 93
1, 400919, Note_off_c, 0, 53, 44
1, 400931, Note_off_c, 0, 68, 61
1, 400931, Note_off_c, 0, 80, 62
1, 400937, Note_off_c, 0, 60, 57
1, 400943, Note_off_c, 0, 56, 63
1, 400957, Control_c, 0, 64, 100
1, 400972, Control_c, 0, 64, 59
1, 400986, Note_on_c, 0, 48, 82
1, 400986, Note_on_c, 0, 67, 103
1, 400986, Note_on_c, 0, 79, 100
1, 400986, Control_c, 0, 64, 0
1, 401046, Control_c, 0, 64, 32
1, 401049, Note_off_c, 0, 67, 62
1, 401061, Control_c, 0, 64, 68
1, 401076, Control_c, 0, 64, 95
1, 401081, Note_on_c, 0, 55, 85
1, 401081, Note_off_c, 0, 79, 65
1, 401090, Control_c, 0, 64, 127
1, 401091, Note_off_c, 0, 48, 63
1, 401096, Note_on_c, 0, 52, 69
1, 401098, Note_on_c, 0, 60, 89
1, 401138, Note_off_c, 0, 52, 53
1, 401178, Note_off_c, 0, 60, 62
1, 401198, Note_on_c, 0, 48, 90
1, 401209, Note_off_c, 0, 55, 62
1, 401269, Control_c, 0, 64, 89
1, 401276, Poly_aftertouch_c, 0, 52, 0
1, 401284, Control_c, 0, 64, 60
1, 401286, Note_on_c, 0, 55, 85
1, 401293, Note_on_c, 0, 60, 97
1, 401293, Note_off_c, 0, 48, 62
1, 401299, Control_c, 0, 64, 0
1, 401302, Note_on_c, 0, 52, 31
1, 401323, Note_on_c, 0, 72, 99
1, 401325, Note_on_c, 0, 84, 106
1, 401335, Control_c, 0, 64, 37
1, 401350, Control_c, 0, 64, 67
1, 401365, Note_off_c, 0, 60, 64
1, 401365, Control_c, 0, 64, 110
1, 401380, Control_c, 0, 64, 127
1, 401398, Note_on_c, 0, 48, 86
1, 401401, Note_off_c, 0, 72, 51
1, 401418, Note_off_c, 0, 84, 59
1, 401436, Note_off_c, 0, 52, 56
1, 401436, Note_off_c, 0, 55, 60
1, 401453, Note_on_c, 0, 60, 82
1, 401470, Note_off_c, 0, 60, 70
1, 401481, Note_off_c, 0, 48, 65
1, 401548, Note_on_c, 0, 72, 97
1, 401551, Note_on_c, 0, 84, 91
1, 401587, Control_c, 0, 64, 111
1, 401602, Control_c, 0, 64, 68
1, 401611, Note_off_c, 0, 72, 59
1, 401614, Note_off_c, 0, 84, 61
1, 401617, Control_c, 0, 64, 0
1, 401647, Control_c, 0, 64, 35
1, 401661, Control_c, 0, 64, 92
1, 401676, Note_on_c, 0, 53, 100
1, 401676, Control_c, 0, 64, 127
1, 401678, Note_on_c, 0, 77, 96
1, 401679, Note_on_c, 0, 44, 71
1, 401679, Note_on_c, 0, 72, 106
1, 401681, Note_on_c, 0, 41, 86
1, 401681, Note_on_c, 0, 84, 97
1, 401694, Note_on_c, 0, 48, 59
1, 401694, Note_on_c, 0, 80, 73
1, 401711, Note_off_c, 0, 80, 68
1, 401712, Note_off_c, 0, 44, 65
1, 401712, Note_off_c, 0, 84, 64
1, 401714, Note_off_c, 0, 77, 66
1, 401715, Note_off_c, 0, 41, 66
1, 401716, Note_off_c, 0, 48, 60
1, 401725, Note_off_c, 0, 72, 64
1, 401728, Note_off_c, 0, 53, 63
1, 401854, Note_on_c, 0, 60, 87
1, 401866, Note_on_c, 0, 72, 68
1, 401873, Note_on_c, 0, 65, 53
1, 401880, Note_on_c, 0, 68, 48
1, 401887, Note_off_c, 0, 60, 60
1, 401896, Note_off_c, 0, 65, 60
1, 401899, Note_off_c, 0, 72, 65
1, 401908, Note_off_c, 0, 68, 53
1, 401947, Note_on_c, 0, 60, 87
1, 401952, Note_on_c, 0, 65, 80
1, 401961, Note_on_c, 0, 72, 71
1, 401979, Note_on_c, 0, 68, 53
1, 401982, Note_off_c, 0, 65, 62
1, 401986, Note_off_c, 0, 60, 67
1, 401988, Note_off_c, 0, 72, 68
1, 402004, Note_off_c, 0, 68, 56
1, 402030, Note_on_c, 0, 60, 94
1, 402033, Control_c, 0, 64, 72
1, 402038, Note_on_c, 0, 72, 90
1, 402040, Note_on_c, 0, 65, 85
1, 402048, Control_c, 0, 64, 0
1, 402050, Note_on_c, 0, 68, 75
1, 402137, Note_on_c, 0, 53, 80
1, 402141, Note_on_c, 0, 56, 77
1, 402174, Note_off_c, 0, 56, 66
1, 402196, Note_off_c, 0, 53, 63
1, 402241, Note_on_c, 0, 53, 62
1, 402245, Note_on_c, 0, 56, 87
1, 402275, Note_off_c, 0, 65, 58
1, 402282, Note_off_c, 0, 53, 65
1, 402282, Note_off_c, 0, 68, 62
1, 402293, Note_off_c, 0, 56, 64
1, 402304, Note_off_c, 0, 72, 52
1, 402319, Note_off_c, 0, 60, 60
1, 402339, Note_on_c, 0, 55, 100
1, 402342, Note_on_c, 0, 52, 93
1, 402424, Note_on_c, 0, 60, 91
1, 402431, Note_on_c, 0, 64, 75
1, 402435, Note_on_c, 0, 67, 70
1, 402462, Note_off_c, 0, 64, 64
1, 402468, Note_off_c, 0, 67, 63
1, 402470, Note_off_c, 0, 60, 64
1, 402514, Control_c, 0, 64, 37
1, 402529, Control_c, 0, 64, 58
1, 402533, Note_on_c, 0, 60, 85
1, 402536, Note_on_c, 0, 64, 79
1, 402543, Control_c, 0, 64, 66
1, 402546, Note_on_c, 0, 67, 56
1, 402558, Control_c, 0, 64, 79
1, 402560, Note_off_c, 0, 64, 70
1, 402564, Note_off_c, 0, 60, 60
1, 402567, Note_on_c, 0, 70, 34
1, 402573, Control_c, 0, 64, 127
1, 402576, Note_off_c, 0, 67, 65
1, 402599, Note_off_c, 0, 70, 56
1, 402617, Note_on_c, 0, 60, 98
1, 402619, Poly_aftertouch_c, 0, 70, 0
1, 402620, Note_on_c, 0, 72, 77
1, 402622, Note_on_c, 0, 64, 94
1, 402626, Note_on_c, 0, 70, 70
1, 402626, Note_off_c, 0, 52, 62
1, 402627, Note_off_c, 0, 55, 58
1, 402629, Note_on_c, 0, 67, 79
1, 402632, Control_c, 0, 64, 84
1, 402647, Control_c, 0, 64, 64
1, 402662, Control_c, 0, 64, 40
1, 402677, Control_c, 0, 64, 0
1, 402723, Note_on_c, 0, 58, 85
1, 402729, Note_on_c, 0, 55, 63
1, 402772, Note_off_c, 0, 58, 62
1, 402788, Note_off_c, 0, 55, 52
1, 402838, Note_off_c, 0, 67, 61
1, 402839, Note_on_c, 0, 55, 56
1, 402842, Note_on_c, 0, 58, 78
1, 402855, Note_off_c, 0, 70, 56
1, 402860, Note_off_c, 0, 64, 59
1, 402878, Note_off_c, 0, 58, 64
1, 402891, Note_off_c, 0, 55, 64
1, 402903, Note_off_c, 0, 60, 62
1, 402909, Note_off_c, 0, 72, 61
1, 402934, Note_on_c, 0, 56, 102
1, 402937, Note_on_c, 0, 53, 90
1, 403035, Note_on_c, 0, 60, 89
1, 403040, Note_on_c, 0, 65, 79
1, 403052, Note_on_c, 0, 72, 57
1, 403058, Note_on_c, 0, 68, 52
1, 403073, Note_off_c, 0, 60, 63
1, 403075, Note_off_c, 0, 65, 59
1, 403081, Note_off_c, 0, 68, 58
1, 403082, Note_off_c, 0, 72, 66
1, 403134, Note_on_c, 0, 60, 88
1, 403136, Note_on_c, 0, 65, 80
1, 403140, Note_on_c, 0, 68, 79
1, 403146, Note_on_c, 0, 72, 72
1, 403166, Note_off_c, 0, 68, 66
1, 403168, Note_off_c, 0, 65, 65
1, 403169, Note_off_c, 0, 60, 66
1, 403172, Note_off_c, 0, 72, 69
1, 403213, Note_off_c, 0, 53, 61
1, 403214, Note_off_c, 0, 56, 60
1, 403225, Note_on_c, 0, 60, 98
1, 403228, Note_on_c, 0, 72, 91
1, 403230, Note_on_c, 0, 65, 86
1, 403232, Note_on_c, 0, 68, 86
1, 403267, Note_on_c, 0, 64, 34
1, 403268, Note_off_c, 0, 64, 127
1, 403324, Note_on_c, 0, 53, 78
1, 403329, Note_on_c, 0, 56, 79
1, 403360, Note_off_c, 0, 56, 66
1, 403367, Note_off_c, 0, 53, 60
1, 403424, Note_on_c, 0, 53, 71
1, 403430, Note_on_c, 0, 56, 85
1, 403445, Note_off_c, 0, 65, 51
1, 403459, Note_off_c, 0, 53, 66
1, 403467, Note_off_c, 0, 68, 61
1, 403467, Note_off_c, 0, 56, 64
1, 403472, Note_off_c, 0, 72, 46
1, 403487, Note_off_c, 0, 60, 61
1, 403525, Note_on_c, 0, 52, 98
1, 403527, Note_on_c, 0, 55, 99
1, 403620, Note_on_c, 0, 60, 93
1, 403630, Note_on_c, 0, 64, 74
1, 403633, Note_on_c, 0, 67, 72
1, 403663, Note_off_c, 0, 64, 66
1, 403664, Note_off_c, 0, 60, 65
1, 403669, Note_off_c, 0, 67, 66
1, 403738, Note_on_c, 0, 60, 98
1, 403741, Note_on_c, 0, 64, 82
1, 403754, Note_on_c, 0, 67, 64
1, 403761, Note_on_c, 0, 70, 50
1, 403765, Note_on_c, 0, 72, 57
1, 403777, Note_off_c, 0, 64, 64
1, 403778, Note_off_c, 0, 60, 65
1, 403783, Note_off_c, 0, 67, 67
1, 403786, Note_off_c, 0, 72, 61
1, 403787, Note_off_c, 0, 70, 63
1, 403834, Note_on_c, 0, 60, 102
1, 403839, Note_on_c, 0, 64, 85
1, 403839, Note_on_c, 0, 72, 93
1, 403845, Note_off_c, 0, 52, 60
1, 403846, Note_on_c, 0, 67, 72
1, 403848, Note_on_c, 0, 70, 85
1, 403848, Note_off_c, 0, 55, 48
1, 403877, Note_on_c, 0, 63, 30
1, 403878, Note_off_c, 0, 63, 127
1, 403945, Note_on_c, 0, 58, 86
1, 403946, Note_on_c, 0, 55, 76
1, 403981, Note_off_c, 0, 58, 59
1, 403993, Note_off_c, 0, 55, 57
1, 404044, Note_off_c, 0, 67, 62
1, 404047, Note_on_c, 0, 55, 74
1, 404049, Note_on_c, 0, 58, 87
1, 404069, Note_off_c, 0, 64, 58
1, 404069, Note_off_c, 0, 70, 57
1, 404092, Note_off_c, 0, 58, 63
1, 404103, Note_off_c, 0, 55, 63
1, 404114, Note_off_c, 0, 72, 58
1, 404124, Note_off_c, 0, 60, 59
1, 404149, Note_on_c, 0, 53, 90
1, 404150, Note_on_c, 0, 56, 96
1, 404220, Control_c, 0, 64, 37
1, 404235, Control_c, 0, 64, 54
1, 404244, Note_off_c, 0, 53, 64
1, 404245, Note_on_c, 0, 60, 90
1, 404247, Note_on_c, 0, 68, 78
1, 404248, Note_on_c, 0, 72, 80
1, 404250, Note_on_c, 0, 65, 79
1, 404250, Control_c, 0, 64, 58
1, 404264, Control_c, 0, 64, 59
1, 404268, Note_off_c, 0, 56, 61
1, 404279, Control_c, 0, 64, 58
1, 404287, Note_off_c, 0, 68, 64
1, 404294, Control_c, 0, 64, 57
1, 404316, Control_c, 0, 64, 55
1, 404323, Note_off_c, 0, 60, 63
1, 404329, Note_off_c, 0, 72, 63
1, 404331, Note_off_c, 0, 65, 61
1, 404331, Control_c, 0, 64, 53
1, 404346, Control_c, 0, 64, 49
1, 404361, Control_c, 0, 64, 38
1, 404364, Note_on_c, 0, 56, 87
1, 404366, Note_on_c, 0, 53, 72
1, 404376, Control_c, 0, 64, 0
1, 404442, Note_on_c, 0, 67, 82
1, 404447, Note_on_c, 0, 61, 92
1, 404450, Note_on_c, 0, 65, 78
1, 404459, Note_off_c, 0, 53, 56
1, 404459, Note_off_c, 0, 56, 56
1, 404460, Note_on_c, 0, 73, 73
1, 404480, Control_c, 0, 64, 46
1, 404495, Control_c, 0, 64, 60
1, 404510, Control_c, 0, 64, 66
1, 404525, Control_c, 0, 64, 70
1, 404527, Note_off_c, 0, 67, 55
1, 404531, Note_off_c, 0, 61, 60
1, 404539, Control_c, 0, 64, 74
1, 404542, Note_off_c, 0, 65, 58
1, 404549, Note_on_c, 0, 46, 82
1, 404549, Note_on_c, 0, 55, 87
1, 404554, Control_c, 0, 64, 75
1, 404555, Note_on_c, 0, 53, 71
1, 404569, Control_c, 0, 64, 72
1, 404570, Note_off_c, 0, 73, 58
1, 404572, Poly_aftertouch_c, 0, 69, 127
1, 404584, Control_c, 0, 64, 65
1, 404599, Control_c, 0, 64, 50
1, 404605, Poly_aftertouch_c, 0, 69, 0
1, 404613, Control_c, 0, 64, 0
1, 404626, Note_off_c, 0, 55, 63
1, 404652, Note_on_c, 0, 61, 90
1, 404658, Control_c, 0, 64, 34
1, 404660, Note_on_c, 0, 65, 73
1, 404660, Note_on_c, 0, 73, 83
1, 404668, Note_on_c, 0, 67, 61
1, 404670, Note_off_c, 0, 46, 61
1, 404672, Note_off_c, 0, 53, 62
1, 404672, Control_c, 0, 64, 58
1, 404686, Control_c, 0, 64, 70
1, 404693, Note_off_c, 0, 67, 64
1, 404701, Control_c, 0, 64, 86
1, 404706, Note_off_c, 0, 65, 59
1, 404716, Control_c, 0, 64, 82
1, 404722, Note_off_c, 0, 61, 62
1, 404730, Note_off_c, 0, 73, 65
1, 404731, Control_c, 0, 64, 64
1, 404741, Note_on_c, 0, 56, 104
1, 404745, Control_c, 0, 64, 0
1, 404749, Note_on_c, 0, 53, 76
1, 404753, Note_on_c, 0, 48, 70
1, 404820, Control_c, 0, 64, 24
1, 404829, Note_off_c, 0, 48, 56
1, 404832, Note_on_c, 0, 60, 99
1, 404835, Control_c, 0, 64, 58
1, 404839, Note_on_c, 0, 65, 83
1, 404844, Note_on_c, 0, 68, 79
1, 404844, Note_on_c, 0, 72, 80
1, 404850, Control_c, 0, 64, 67
1, 404855, Note_off_c, 0, 56, 57
1, 404857, Note_off_c, 0, 53, 54
1, 404865, Control_c, 0, 64, 70
1, 404874, Note_off_c, 0, 68, 64
1, 404880, Control_c, 0, 64, 64
1, 404894, Control_c, 0, 64, 52
1, 404900, Note_off_c, 0, 65, 59
1, 404909, Control_c, 0, 64, 25
1, 404912, Note_off_c, 0, 72, 62
1, 404924, Control_c, 0, 64, 0
1, 404927, Note_on_c, 0, 56, 102
1, 404927, Note_off_c, 0, 60, 57
1, 404933, Note_on_c, 0, 53, 68
1, 404939, Note_on_c, 0, 48, 69
1, 405002, Note_off_c, 0, 48, 59
1, 405011, Note_off_c, 0, 56, 60
1, 405021, Note_off_c, 0, 53, 61
1, 405027, Note_on_c, 0, 60, 105
1, 405029, Note_on_c, 0, 64, 91
1, 405038, Note_on_c, 0, 67, 79
1, 405044, Note_on_c, 0, 72, 73
1, 405078, Note_off_c, 0, 67, 61
1, 405090, Note_off_c, 0, 60, 62
1, 405090, Note_off_c, 0, 72, 62
1, 405114, Note_off_c, 0, 64, 52
1, 405124, Note_on_c, 0, 55, 93
1, 405127, Note_on_c, 0, 52, 75
1, 405133, Note_on_c, 0, 48, 76
1, 405151, Note_off_c, 0, 52, 68
1, 405170, Note_off_c, 0, 48, 64
1, 405172, Note_off_c, 0, 55, 65
1, 405213, Note_on_c, 0, 60, 88
1, 405219, Note_on_c, 0, 72, 72
1, 405239, Note_on_c, 0, 64, 30
1, 405264, Note_off_c, 0, 72, 65
1, 405272, Note_off_c, 0, 60, 64
1, 405276, Note_off_c, 0, 64, 43
1, 405303, Control_c, 0, 64, 32
1, 405317, Control_c, 0, 64, 127
1, 405325, Note_on_c, 0, 53, 96
1, 405328, Note_on_c, 0, 48, 51
1, 405334, Note_on_c, 0, 60, 96
1, 405335, Note_on_c, 0, 41, 77
1, 405338, Note_on_c, 0, 44, 69
1, 405338, Note_on_c, 0, 72, 88
1, 405339, Note_on_c, 0, 65, 80
1, 405352, Note_on_c, 0, 68, 57
1, 405353, Note_off_c, 0, 48, 65
1, 405361, Note_off_c, 0, 65, 70
1, 405365, Note_off_c, 0, 53, 67
1, 405365, Note_off_c, 0, 72, 63
1, 405369, Note_off_c, 0, 44, 64
1, 405371, Note_off_c, 0, 68, 62
1, 405371, Note_off_c, 0, 60, 67
1, 405374, Note_off_c, 0, 41, 65
1, 405397, Note_on_c, 0, 64, 21
1, 405440, Note_off_c, 0, 64, 41
1, 405487, Note_on_c, 0, 48, 83
1, 405499, Note_on_c, 0, 60, 68
1, 405513, Note_on_c, 0, 53, 43
1, 405516, Note_on_c, 0, 56, 51
1, 405521, Note_off_c, 0, 48, 65
1, 405523, Note_off_c, 0, 60, 65
1, 405529, Note_off_c, 0, 53, 69
1, 405545, Note_off_c, 0, 56, 56
1, 405582, Note_on_c, 0, 48, 83
1, 405583, Note_on_c, 0, 53, 69
1, 405601, Note_on_c, 0, 56, 54
1, 405613, Note_off_c, 0, 48, 64
1, 405616, Note_off_c, 0, 53, 65
1, 405622, Note_off_c, 0, 56, 63
1, 405643, Control_c, 0, 64, 90
1, 405658, Control_c, 0, 64, 64
1, 405661, Note_on_c, 0, 48, 101
1, 405666, Note_on_c, 0, 60, 79
1, 405668, Note_on_c, 0, 53, 86
1, 405672, Control_c, 0, 64, 0
1, 405675, Note_on_c, 0, 56, 86
1, 405764, Note_on_c, 0, 41, 77
1, 405764, Note_on_c, 0, 44, 81
1, 405807, Note_off_c, 0, 44, 64
1, 405829, Note_off_c, 0, 41, 63
1, 405879, Note_on_c, 0, 44, 86
1, 405889, Note_off_c, 0, 53, 61
1, 405899, Note_off_c, 0, 56, 54
1, 405911, Note_off_c, 0, 60, 56
1, 405914, Note_on_c, 0, 40, 40
1, 405928, Note_off_c, 0, 44, 64
1, 405934, Note_off_c, 0, 48, 59
1, 405950, Note_off_c, 0, 40, 49
1, 405979, Note_on_c, 0, 43, 98
1, 405982, Note_on_c, 0, 40, 73
1, 405997, Note_on_c, 0, 41, 65
1, 406054, Note_on_c, 0, 48, 89
1, 406060, Note_on_c, 0, 52, 74
1, 406069, Note_on_c, 0, 55, 65
1, 406081, Control_c, 0, 64, 9
1, 406086, Note_off_c, 0, 41, 24
1, 406096, Control_c, 0, 64, 46
1, 406102, Note_off_c, 0, 48, 63
1, 406104, Note_off_c, 0, 52, 61
1, 406105, Note_off_c, 0, 55, 63
1, 406111, Control_c, 0, 64, 48
1, 406126, Control_c, 0, 64, 47
1, 406140, Control_c, 0, 64, 46
1, 406155, Control_c, 0, 64, 42
1, 406170, Control_c, 0, 64, 33
1, 406173, Note_on_c, 0, 48, 85
1, 406173, Note_on_c, 0, 52, 80
1, 406176, Note_on_c, 0, 55, 67
1, 406184, Control_c, 0, 64, 0
1, 406203, Note_off_c, 0, 52, 68
1, 406206, Note_off_c, 0, 48, 64
1, 406211, Note_off_c, 0, 55, 66
1, 406212, Note_on_c, 0, 58, 20
1, 406251, Note_off_c, 0, 58, 0
1, 406265, Note_on_c, 0, 48, 98
1, 406265, Note_off_c, 0, 43, 55
1, 406266, Note_on_c, 0, 60, 73
1, 406269, Note_on_c, 0, 58, 57
1, 406270, Note_on_c, 0, 52, 85
1, 406270, Note_off_c, 0, 40, 62
1, 406276, Note_on_c, 0, 55, 73
1, 406287, Note_on_c, 0, 51, 63
1, 406300, Note_off_c, 0, 51, 44
1, 406369, Note_on_c, 0, 46, 86
1, 406374, Note_on_c, 0, 43, 70
1, 406413, Note_off_c, 0, 46, 62
1, 406451, Note_off_c, 0, 43, 0
1, 406460, Note_off_c, 0, 55, 62
1, 406465, Note_on_c, 0, 43, 60
1, 406474, Note_on_c, 0, 46, 83
1, 406475, Note_off_c, 0, 58, 55
1, 406495, Note_off_c, 0, 52, 62
1, 406522, Note_off_c, 0, 46, 62
1, 406525, Note_off_c, 0, 43, 62
1, 406533, Note_off_c, 0, 48, 58
1, 406533, Note_off_c, 0, 60, 62
1, 406573, Note_on_c, 0, 44, 94
1, 406575, Note_on_c, 0, 41, 93
1, 406665, Note_on_c, 0, 48, 87
1, 406672, Note_on_c, 0, 53, 70
1, 406679, Note_on_c, 0, 56, 61
1, 406680, Note_on_c, 0, 60, 62
1, 406702, Note_off_c, 0, 48, 63
1, 406707, Note_off_c, 0, 53, 65
1, 406708, Note_off_c, 0, 60, 66
1, 406710, Note_off_c, 0, 56, 66
1, 406740, Control_c, 0, 64, 52
1, 406755, Control_c, 0, 64, 69
1, 406770, Control_c, 0, 64, 93
1, 406772, Note_on_c, 0, 48, 95
1, 406775, Note_on_c, 0, 56, 79
1, 406776, Note_on_c, 0, 60, 77
1, 406780, Note_on_c, 0, 53, 76
1, 406785, Control_c, 0, 64, 127
1, 406802, Note_off_c, 0, 41, 55
1, 406804, Note_off_c, 0, 53, 67
1, 406807, Note_off_c, 0, 60, 65
1, 406812, Note_off_c, 0, 48, 62
1, 406812, Note_off_c, 0, 56, 64
1, 406814, Control_c, 0, 64, 111
1, 406829, Control_c, 0, 64, 77
1, 406837, Note_off_c, 0, 44, 58
1, 406844, Control_c, 0, 64, 58
1, 406859, Control_c, 0, 64, 0
1, 406864, Note_on_c, 0, 48, 93
1, 406866, Note_on_c, 0, 53, 81
1, 406874, Note_on_c, 0, 60, 79
1, 406875, Note_on_c, 0, 56, 78
1, 406966, Note_on_c, 0, 44, 78
1, 406967, Note_on_c, 0, 41, 75
1, 406999, Note_off_c, 0, 44, 66
1, 407008, Note_off_c, 0, 41, 64
1, 407061, Note_on_c, 0, 41, 66
1, 407068, Note_on_c, 0, 44, 84
1, 407084, Note_off_c, 0, 53, 60
1, 407091, Note_off_c, 0, 56, 64
1, 407103, Note_off_c, 0, 41, 66
1, 407110, Note_off_c, 0, 44, 62
1, 407126, Note_off_c, 0, 48, 62
1, 407142, Note_off_c, 0, 60, 52
1, 407166, Note_on_c, 0, 39, 65
1, 407166, Note_on_c, 0, 43, 98
1, 407172, Note_on_c, 0, 40, 91
1, 407193, Note_off_c, 0, 39, 61
1, 407253, Note_on_c, 0, 48, 86
1, 407254, Note_on_c, 0, 52, 77
1, 407264, Note_on_c, 0, 55, 68
1, 407292, Note_off_c, 0, 48, 61
1, 407297, Note_off_c, 0, 55, 66
1, 407308, Note_off_c, 0, 52, 63
1, 407356, Control_c, 0, 64, 45
1, 407371, Control_c, 0, 64, 59
1, 407372, Note_on_c, 0, 48, 91
1, 407375, Note_on_c, 0, 52, 78
1, 407381, Note_on_c, 0, 55, 68
1, 407386, Control_c, 0, 64, 63
1, 407396, Note_on_c, 0, 60, 58
1, 407398, Note_on_c, 0, 58, 60
1, 407401, Control_c, 0, 64, 63
1, 407407, Note_off_c, 0, 52, 66
1, 407410, Note_off_c, 0, 48, 62
1, 407415, Control_c, 0, 64, 61
1, 407416, Note_off_c, 0, 60, 62
1, 407417, Note_off_c, 0, 55, 65
1, 407419, Note_off_c, 0, 43, 60
1, 407429, Note_off_c, 0, 58, 65
1, 407430, Control_c, 0, 64, 57
1, 407445, Control_c, 0, 64, 46
1, 407457, Note_off_c, 0, 40, 62
1, 407460, Control_c, 0, 64, 24
1, 407465, Note_on_c, 0, 48, 95
1, 407470, Note_on_c, 0, 52, 89
1, 407473, Note_on_c, 0, 60, 85
1, 407475, Control_c, 0, 64, 0
1, 407477, Note_on_c, 0, 55, 73
1, 407479, Note_on_c, 0, 58, 84
1, 407497, Note_on_c, 0, 51, 30
1, 407540, Note_off_c, 0, 51, 28
1, 407555, Note_on_c, 0, 43, 77
1, 407564, Note_on_c, 0, 46, 84
1, 407595, Note_off_c, 0, 46, 67
1, 407614, Note_off_c, 0, 43, 63
1, 407658, Note_off_c, 0, 55, 61
1, 407668, Note_on_c, 0, 46, 86
1, 407686, Note_off_c, 0, 52, 62
1, 407689, Note_off_c, 0, 58, 53
1, 407690, Note_on_c, 0, 41, 60
1, 407699, Note_on_c, 0, 43, 21
1, 407717, Note_off_c, 0, 46, 64
1, 407719, Note_off_c, 0, 48, 60
1, 407729, Note_off_c, 0, 41, 64
1, 407735, Note_off_c, 0, 60, 58
1, 407742, Note_off_c, 0, 43, 39
1, 407778, Note_on_c, 0, 44, 80
1, 407779, Note_on_c, 0, 41, 95
1, 407831, Control_c, 0, 64, 36
1, 407846, Control_c, 0, 64, 52
1, 407860, Control_c, 0, 64, 60
1, 407866, Note_off_c, 0, 41, 65
1, 407872, Note_on_c, 0, 56, 68
1, 407875, Note_on_c, 0, 48, 82
1, 407875, Control_c, 0, 64, 61
1, 407879, Note_on_c, 0, 53, 71
1, 407879, Note_on_c, 0, 60, 73
1, 407890, Control_c, 0, 64, 61
1, 407891, Note_off_c, 0, 44, 63
1, 407905, Control_c, 0, 64, 60
1, 407920, Control_c, 0, 64, 60
1, 407920, Note_off_c, 0, 56, 65
1, 407935, Note_off_c, 0, 48, 62
1, 407935, Control_c, 0, 64, 59
1, 407946, Note_off_c, 0, 60, 65
1, 407949, Control_c, 0, 64, 54
1, 407956, Note_off_c, 0, 53, 56
1, 407964, Control_c, 0, 64, 34
1, 407971, Note_on_c, 0, 41, 77
1, 407975, Note_on_c, 0, 44, 78
1, 407979, Control_c, 0, 64, 0
1, 408067, Note_off_c, 0, 41, 60
1, 408069, Note_on_c, 0, 55, 61
1, 408076, Note_on_c, 0, 49, 86
1, 408078, Note_on_c, 0, 53, 79
1, 408081, Note_off_c, 0, 44, 62
1, 408084, Note_on_c, 0, 61, 77
1, 408090, Control_c, 0, 64, 43
1, 408105, Control_c, 0, 64, 60
1, 408120, Control_c, 0, 64, 67
1, 408135, Control_c, 0, 64, 71
1, 408150, Control_c, 0, 64, 69
1, 408151, Note_off_c, 0, 55, 59
1, 408163, Note_off_c, 0, 53, 56
1, 408164, Control_c, 0, 64, 64
1, 408169, Note_on_c, 0, 41, 75
1, 408170, Note_on_c, 0, 34, 79
1, 408173, Note_on_c, 0, 43, 78
1, 408176, Note_off_c, 0, 49, 57
1, 408179, Control_c, 0, 64, 53
1, 408181, Note_off_c, 0, 61, 58
1, 408194, Control_c, 0, 64, 0
1, 408233, Note_off_c, 0, 43, 63
1, 408268, Control_c, 0, 64, 29
1, 408273, Note_off_c, 0, 34, 61
1, 408278, Note_on_c, 0, 49, 87
1, 408281, Note_on_c, 0, 61, 84
1, 408283, Control_c, 0, 64, 56
1, 408284, Note_on_c, 0, 53, 76
1, 408292, Note_off_c, 0, 41, 52
1, 408296, Note_on_c, 0, 55, 40
1, 408298, Control_c, 0, 64, 66
1, 408312, Control_c, 0, 64, 72
1, 408327, Control_c, 0, 64, 69
1, 408328, Note_off_c, 0, 55, 48
1, 408342, Control_c, 0, 64, 58
1, 408344, Note_off_c, 0, 53, 61
1, 408346, Note_off_c, 0, 49, 62
1, 408358, Control_c, 0, 64, 0
1, 408365, Note_off_c, 0, 61, 64
1, 408366, Note_on_c, 0, 44, 94
1, 408372, Note_on_c, 0, 41, 49
1, 408376, Note_on_c, 0, 36, 70
1, 408459, Note_off_c, 0, 44, 61
1, 408460, Control_c, 0, 64, 52
1, 408463, Note_off_c, 0, 36, 58
1, 408468, Note_on_c, 0, 48, 91
1, 408471, Note_off_c, 0, 41, 62
1, 408475, Control_c, 0, 64, 65
1, 408477, Note_on_c, 0, 53, 73
1, 408477, Note_on_c, 0, 60, 78
1, 408483, Note_on_c, 0, 56, 67
1, 408490, Control_c, 0, 64, 74
1, 408505, Control_c, 0, 64, 74
1, 408513, Note_off_c, 0, 56, 66
1, 408520, Control_c, 0, 64, 63
1, 408524, Note_off_c, 0, 53, 60
1, 408534, Control_c, 0, 64, 35
1, 408541, Note_off_c, 0, 48, 58
1, 408548, Note_on_c, 0, 44, 93
1, 408548, Note_on_c, 0, 57, 3
1, 408549, Control_c, 0, 64, 0
1, 408553, Note_off_c, 0, 60, 62
1, 408554, Note_on_c, 0, 41, 67
1, 408558, Note_on_c, 0, 36, 63
1, 408592, Note_off_c, 0, 57, 50
1, 408601, Note_off_c, 0, 36, 64
1, 408609, Control_c, 0, 64, 33
1, 408624, Control_c, 0, 64, 55
1, 408634, Note_off_c, 0, 41, 54
1, 408638, Control_c, 0, 64, 65
1, 408646, Note_off_c, 0, 44, 57
1, 408651, Note_on_c, 0, 48, 97
1, 408652, Note_on_c, 0, 52, 81
1, 408653, Control_c, 0, 64, 73
1, 408659, Note_on_c, 0, 60, 85
1, 408668, Control_c, 0, 64, 84
1, 408668, Note_on_c, 0, 55, 58
1, 408683, Control_c, 0, 64, 83
1, 408687, Note_on_c, 0, 57, 47
1, 408691, Note_off_c, 0, 55, 62
1, 408698, Control_c, 0, 64, 67
1, 408713, Control_c, 0, 64, 41
1, 408715, Note_off_c, 0, 48, 57
1, 408718, Note_off_c, 0, 57, 52
1, 408727, Control_c, 0, 64, 0
1, 408732, Note_off_c, 0, 52, 56
1, 408740, Note_on_c, 0, 34, 79
1, 408740, Note_on_c, 0, 40, 75
1, 408742, Note_off_c, 0, 60, 62
1, 408744, Note_on_c, 0, 43, 82
1, 408764, Note_on_c, 0, 41, 52
1, 408786, Control_c, 0, 64, 9
1, 408789, Note_off_c, 0, 41, 40
1, 408808, Control_c, 0, 64, 54
1, 408812, Note_off_c, 0, 34, 60
1, 408816, Note_off_c, 0, 43, 63
1, 408823, Control_c, 0, 64, 65
1, 408838, Control_c, 0, 64, 74
1, 408842, Note_on_c, 0, 48, 89
1, 408846, Note_on_c, 0, 52, 79
1, 408849, Note_off_c, 0, 40, 62
1, 408850, Note_on_c, 0, 60, 88
1, 408853, Control_c, 0, 64, 81
1, 408868, Control_c, 0, 64, 76
1, 408872, Note_off_c, 0, 52, 70
1, 408878, Note_off_c, 0, 48, 65
1, 408883, Control_c, 0, 64, 66
1, 408898, Control_c, 0, 64, 41
1, 408911, Note_off_c, 0, 60, 65
1, 408913, Control_c, 0, 64, 0
1, 408943, Note_on_c, 0, 44, 94
1, 408950, Note_on_c, 0, 41, 65
1, 408957, Note_on_c, 0, 32, 71
1, 408970, Note_on_c, 0, 36, 56
1, 409001, Control_c, 0, 64, 41
1, 409016, Control_c, 0, 64, 60
1, 409031, Control_c, 0, 64, 69
1, 409037, Note_on_c, 0, 72, 86
1, 409040, Note_on_c, 0, 60, 94
1, 409044, Note_off_c, 0, 32, 60
1, 409044, Note_off_c, 0, 36, 50
1, 409044, Note_off_c, 0, 44, 62
1, 409046, Control_c, 0, 64, 82
1, 409050, Note_on_c, 0, 68, 59
1, 409051, Note_off_c, 0, 68, 127
1, 409051, Note_on_c, 0, 65, 73
1, 409057, Note_off_c, 0, 41, 57
1, 409060, Control_c, 0, 64, 127
1, 409119, Control_c, 0, 64, 87
1, 409128, Note_off_c, 0, 60, 63
1, 409130, Note_on_c, 0, 44, 99
1, 409130, Note_off_c, 0, 72, 64
1, 409134, Control_c, 0, 64, 63
1, 409139, Note_on_c, 0, 41, 65
1, 409141, Note_on_c, 0, 32, 77
1, 409150, Control_c, 0, 64, 0
1, 409151, Note_off_c, 0, 65, 58
1, 409183, Note_off_c, 0, 41, 61
1, 409209, Control_c, 0, 64, 44
1, 409211, Note_off_c, 0, 32, 63
1, 409224, Control_c, 0, 64, 63
1, 409231, Note_on_c, 0, 61, 106
1, 409232, Note_off_c, 0, 44, 62
1, 409239, Control_c, 0, 64, 77
1, 409241, Note_on_c, 0, 65, 79
1, 409245, Note_on_c, 0, 67, 61
1, 409254, Control_c, 0, 64, 127
1, 409255, Note_on_c, 0, 60, 69
1, 409263, Note_on_c, 0, 73, 59
1, 409273, Note_off_c, 0, 60, 64
1, 409276, Note_on_c, 0, 69, 45
1, 409298, Control_c, 0, 64, 74
1, 409309, Note_off_c, 0, 61, 62
1, 409313, Control_c, 0, 64, 54
1, 409314, Note_off_c, 0, 73, 56
1, 409321, Note_on_c, 0, 46, 99
1, 409324, Note_off_c, 0, 67, 62
1, 409327, Note_off_c, 0, 65, 59
1, 409328, Control_c, 0, 64, 0
1, 409332, Note_on_c, 0, 34, 79
1, 409333, Note_off_c, 0, 69, 53
1, 409357, Control_c, 0, 64, 9
1, 409372, Control_c, 0, 64, 47
1, 409387, Control_c, 0, 64, 62
1, 409401, Note_off_c, 0, 34, 62
1, 409402, Control_c, 0, 64, 74
1, 409416, Control_c, 0, 64, 127
1, 409420, Note_off_c, 0, 46, 63
1, 409429, Note_on_c, 0, 61, 102
1, 409436, Note_on_c, 0, 73, 84
1, 409443, Note_on_c, 0, 65, 73
1, 409461, Control_c, 0, 64, 75
1, 409472, Note_off_c, 0, 65, 63
1, 409476, Control_c, 0, 64, 53
1, 409491, Control_c, 0, 64, 0
1, 409505, Note_off_c, 0, 61, 63
1, 409505, Note_off_c, 0, 73, 65
1, 409507, Note_on_c, 0, 44, 76
1, 409508, Note_on_c, 0, 48, 95
1, 409516, Note_on_c, 0, 36, 79
1, 409528, Note_on_c, 0, 41, 62
1, 409572, Control_c, 0, 64, 45
1, 409587, Control_c, 0, 64, 63
1, 409601, Control_c, 0, 64, 76
1, 409610, Note_off_c, 0, 48, 60
1, 409610, Note_off_c, 0, 36, 62
1, 409616, Control_c, 0, 64, 127
1, 409621, Note_on_c, 0, 60, 103
1, 409631, Note_on_c, 0, 68, 84
1, 409631, Note_on_c, 0, 65, 84
1, 409633, Note_off_c, 0, 41, 61
1, 409634, Note_on_c, 0, 72, 80
1, 409645, Note_off_c, 0, 44, 62
1, 409646, Control_c, 0, 64, 110
1, 409661, Control_c, 0, 64, 65
1, 409672, Note_off_c, 0, 68, 59
1, 409676, Note_off_c, 0, 65, 58
1, 409676, Control_c, 0, 64, 0
1, 409698, Note_on_c, 0, 48, 100
1, 409700, Note_on_c, 0, 44, 80
1, 409706, Note_off_c, 0, 72, 59
1, 409709, Note_on_c, 0, 36, 78
1, 409709, Note_on_c, 0, 41, 65
1, 409718, Note_off_c, 0, 60, 55
1, 409750, Control_c, 0, 64, 54
1, 409750, Poly_aftertouch_c, 0, 69, 0
1, 409765, Control_c, 0, 64, 65
1, 409768, Note_off_c, 0, 36, 60
1, 409772, Note_off_c, 0, 48, 62
1, 409780, Control_c, 0, 64, 77
1, 409788, Note_off_c, 0, 41, 63
1, 409795, Control_c, 0, 64, 127
1, 409804, Note_off_c, 0, 44, 63
1, 409805, Note_on_c, 0, 60, 104
1, 409807, Note_on_c, 0, 64, 90
1, 409814, Note_on_c, 0, 72, 86
1, 409828, Note_on_c, 0, 67, 69
1, 409854, Control_c, 0, 64, 77
1, 409855, Note_on_c, 0, 69, 45
1, 409855, Note_off_c, 0, 67, 65
1, 409858, Note_off_c, 0, 60, 58
1, 409869, Control_c, 0, 64, 49
1, 409883, Control_c, 0, 64, 0
1, 409884, Note_on_c, 0, 46, 101
1, 409887, Note_off_c, 0, 69, 51
1, 409888, Note_on_c, 0, 43, 78
1, 409890, Note_off_c, 0, 72, 63
1, 409896, Note_on_c, 0, 34, 78
1, 409899, Note_off_c, 0, 64, 43
1, 409903, Note_on_c, 0, 40, 56
1, 409926, Control_c, 0, 64, 17
1, 409938, Note_off_c, 0, 40, 64
1, 409941, Control_c, 0, 64, 59
1, 409958, Control_c, 0, 64, 77
1, 409960, Note_off_c, 0, 43, 64
1, 409972, Control_c, 0, 64, 127
1, 409977, Note_off_c, 0, 46, 63
1, 409995, Note_on_c, 0, 60, 104
1, 409996, Note_on_c, 0, 64, 94
1, 409996, Note_off_c, 0, 34, 61
1, 410001, Note_on_c, 0, 72, 87
1, 410020, Note_on_c, 0, 69, 60
1, 410034, Note_off_c, 0, 64, 67
1, 410035, Note_off_c, 0, 60, 68
1, 410039, Note_off_c, 0, 69, 65
1, 410073, Note_off_c, 0, 72, 65
1, 410090, Note_on_c, 0, 44, 108
1, 410091, Control_c, 0, 64, 90
1, 410099, Note_on_c, 0, 32, 86
1, 410105, Control_c, 0, 64, 55
1, 410120, Control_c, 0, 64, 0
1, 410126, Note_on_c, 0, 36, 52
1, 410165, Control_c, 0, 64, 18
1, 410180, Control_c, 0, 64, 61
1, 410192, Note_off_c, 0, 32, 63
1, 410194, Control_c, 0, 64, 86
1, 410204, Note_on_c, 0, 72, 100
1, 410206, Note_on_c, 0, 84, 97
1, 410209, Control_c, 0, 64, 127
1, 410212, Note_on_c, 0, 77, 87
1, 410212, Note_on_c, 0, 80, 80
1, 410231, Note_off_c, 0, 44, 59
1, 410254, Note_off_c, 0, 36, 35
1, 410302, Note_off_c, 0, 72, 61
1, 410306, Note_on_c, 0, 44, 102
1, 410306, Note_off_c, 0, 84, 57
1, 410309, Note_off_c, 0, 77, 59
1, 410315, Note_on_c, 0, 32, 84
1, 410322, Note_on_c, 0, 41, 78
1, 410322, Note_off_c, 0, 80, 51
1, 410335, Control_c, 0, 64, 74
1, 410349, Control_c, 0, 64, 0
1, 410376, Note_off_c, 0, 41, 63
1, 410385, Note_off_c, 0, 32, 64
1, 410409, Control_c, 0, 64, 44
1, 410416, Note_off_c, 0, 44, 64
1, 410424, Control_c, 0, 64, 64
1, 410426, Note_on_c, 0, 77, 92
1, 410429, Note_on_c, 0, 73, 111
1, 410439, Control_c, 0, 64, 81
1, 410441, Note_on_c, 0, 79, 62
1, 410449, Note_on_c, 0, 85, 75
1, 410454, Control_c, 0, 64, 127
1, 410458, Note_on_c, 0, 81, 50
1, 410507, Note_on_c, 0, 46, 99
1, 410508, Note_off_c, 0, 85, 62
1, 410522, Note_on_c, 0, 34, 85
1, 410540, Note_off_c, 0, 73, 62
1, 410543, Control_c, 0, 64, 98
1, 410544, Note_off_c, 0, 79, 44
1, 410557, Control_c, 0, 64, 66
1, 410561, Note_off_c, 0, 77, 58
1, 410563, Note_off_c, 0, 81, 31
1, 410572, Control_c, 0, 64, 40
1, 410587, Control_c, 0, 64, 0
1, 410594, Note_off_c, 0, 34, 63
1, 410602, Control_c, 0, 64, 24
1, 410617, Control_c, 0, 64, 52
1, 410621, Note_off_c, 0, 46, 62
1, 410621, Note_on_c, 0, 73, 113
1, 410627, Note_on_c, 0, 85, 85
1, 410631, Control_c, 0, 64, 66
1, 410636, Note_on_c, 0, 77, 73
1, 410646, Control_c, 0, 64, 86
1, 410661, Control_c, 0, 64, 127
1, 410671, Note_off_c, 0, 77, 57
1, 410698, Poly_aftertouch_c, 0, 81, 127
1, 410718, Note_off_c, 0, 85, 66
1, 410720, Control_c, 0, 64, 119
1, 410722, Note_off_c, 0, 73, 64
1, 410731, Note_on_c, 0, 44, 86
1, 410733, Note_on_c, 0, 48, 98
1, 410735, Control_c, 0, 64, 70
1, 410736, Poly_aftertouch_c, 0, 81, 0
1, 410740, Note_on_c, 0, 36, 79
1, 410748, Note_on_c, 0, 41, 62
1, 410751, Control_c, 0, 64, 0
1, 410810, Control_c, 0, 64, 30
1, 410825, Control_c, 0, 64, 61
1, 410829, Note_off_c, 0, 36, 62
1, 410838, Note_on_c, 0, 72, 104
1, 410840, Note_on_c, 0, 77, 96
1, 410840, Control_c, 0, 64, 84
1, 410844, Note_off_c, 0, 48, 58
1, 410845, Note_on_c, 0, 80, 87
1, 410846, Note_off_c, 0, 41, 56
1, 410847, Note_on_c, 0, 84, 87
1, 410854, Control_c, 0, 64, 127
1, 410874, Note_off_c, 0, 44, 59
1, 410880, Note_on_c, 0, 81, 30
1, 410916, Note_off_c, 0, 81, 50
1, 410924, Note_off_c, 0, 80, 63
1, 410928, Note_off_c, 0, 77, 58
1, 410941, Note_on_c, 0, 48, 102
1, 410943, Note_on_c, 0, 44, 93
1, 410944, Note_off_c, 0, 84, 61
1, 410950, Note_on_c, 0, 36, 79
1, 410958, Control_c, 0, 64, 77
1, 410963, Note_off_c, 0, 72, 60
1, 410970, Note_on_c, 0, 41, 58
1, 410972, Control_c, 0, 64, 56
1, 410987, Control_c, 0, 64, 0
1, 411021, Note_off_c, 0, 41, 43
1, 411032, Control_c, 0, 64, 37
1, 411036, Note_off_c, 0, 48, 56
1, 411050, Note_off_c, 0, 36, 60
1, 411054, Control_c, 0, 64, 62
1, 411067, Note_on_c, 0, 76, 97
1, 411069, Control_c, 0, 64, 83
1, 411071, Note_on_c, 0, 72, 102
1, 411077, Note_on_c, 0, 79, 67
1, 411080, Note_on_c, 0, 84, 85
1, 411084, Control_c, 0, 64, 127
1, 411113, Note_off_c, 0, 44, 61
1, 411115, Note_on_c, 0, 81, 33
1, 411148, Note_off_c, 0, 84, 63
1, 411153, Note_off_c, 0, 81, 47
1, 411158, Control_c, 0, 64, 81
1, 411170, Note_off_c, 0, 76, 55
1, 411173, Note_on_c, 0, 48, 106
1, 411173, Control_c, 0, 64, 57
1, 411178, Note_on_c, 0, 36, 87
1, 411182, Note_off_c, 0, 72, 60
1, 411187, Note_on_c, 0, 43, 58
1, 411188, Control_c, 0, 64, 0
1, 411219, Note_off_c, 0, 43, 63
1, 411223, Note_off_c, 0, 48, 66
1, 411233, Control_c, 0, 64, 53
1, 411247, Control_c, 0, 64, 67
1, 411251, Note_off_c, 0, 36, 62
1, 411262, Control_c, 0, 64, 94
1, 411271, Note_off_c, 0, 79, 30
1, 411277, Control_c, 0, 64, 127
1, 411283, Note_on_c, 0, 76, 93
1, 411292, Note_on_c, 0, 72, 99
1, 411294, Note_on_c, 0, 84, 85
1, 411312, Note_off_c, 0, 84, 74
1, 411329, Note_off_c, 0, 76, 65
1, 411356, Note_off_c, 0, 72, 64
1, 411411, Control_c, 0, 64, 72
1, 411426, Control_c, 0, 64, 0
1, 411470, Control_c, 0, 64, 57
1, 411485, Control_c, 0, 64, 127
1, 411497, Note_on_c, 0, 41, 103
1, 411503, Note_on_c, 0, 29, 82
1, 411527, Note_on_c, 0, 32, 53
1, 411535, Note_on_c, 0, 60, 59
1, 411536, Note_off_c, 0, 29, 64
1, 411539, Note_on_c, 0, 59, 58
1, 411553, Note_off_c, 0, 41, 65
1, 411563, Note_off_c, 0, 59, 58
1, 411566, Note_off_c, 0, 32, 50
1, 411580, Note_off_c, 0, 60, 60
1, 411594, Note_on_c, 0, 56, 78
1, 411653, Note_off_c, 0, 56, 64
1, 411671, Note_on_c, 0, 60, 57
1, 411742, Note_off_c, 0, 60, 59
1, 411742, Note_on_c, 0, 56, 71
1, 411813, Note_off_c, 0, 56, 63
1, 411819, Note_on_c, 0, 60, 46
1, 411880, Note_on_c, 0, 68, 85
1, 411882, Note_off_c, 0, 60, 64
1, 411895, Note_on_c, 0, 56, 60
1, 411950, Note_off_c, 0, 56, 62
1, 411972, Note_on_c, 0, 60, 58
1, 412051, Note_off_c, 0, 60, 61
1, 412096, Note_on_c, 0, 56, 39
1, 412123, Note_off_c, 0, 56, 56
1, 412133, Note_on_c, 0, 60, 52
1, 412159, Note_off_c, 0, 68, 57
1, 412159, Note_on_c, 0, 72, 75
1, 412193, Note_off_c, 0, 60, 62
1, 412209, Note_on_c, 0, 56, 59
1, 412213, Note_off_c, 0, 72, 64
1, 412258, Note_off_c, 0, 56, 62
1, 412261, Note_on_c, 0, 77, 85
1, 412281, Note_on_c, 0, 60, 54
1, 412332, Note_off_c, 0, 77, 61
1, 412342, Note_off_c, 0, 60, 62
1, 412360, Note_on_c, 0, 56, 58
1, 412392, Note_off_c, 0, 56, 65
1, 412421, Note_on_c, 0, 60, 39
1, 412465, Note_off_c, 0, 60, 63
1, 412475, Note_on_c, 0, 56, 62
1, 412517, Note_off_c, 0, 56, 61
1, 412584, Note_on_c, 0, 60, 37
1, 412615, Note_off_c, 0, 60, 54
1, 412642, Note_on_c, 0, 56, 45
1, 412647, Note_on_c, 0, 80, 73
1, 412669, Note_off_c, 0, 56, 59
1, 412697, Note_on_c, 0, 60, 56
1, 412737, Note_off_c, 0, 60, 58
1, 412755, Note_on_c, 0, 56, 53
1, 412779, Note_off_c, 0, 80, 60
1, 412795, Note_off_c, 0, 56, 63
1, 412846, Note_on_c, 0, 60, 43
1, 412877, Note_off_c, 0, 60, 64
1, 412889, Note_on_c, 0, 56, 56
1, 412925, Note_off_c, 0, 56, 63
1, 412945, Note_on_c, 0, 84, 68
1, 412963, Note_on_c, 0, 60, 56
1, 413015, Note_off_c, 0, 60, 59
1, 413020, Note_off_c, 0, 84, 63
1, 413027, Note_on_c, 0, 89, 76
1, 413034, Note_on_c, 0, 56, 60
1, 413074, Note_off_c, 0, 56, 64
1, 413104, Note_on_c, 0, 60, 48
1, 413119, Note_off_c, 0, 89, 60
1, 413152, Note_off_c, 0, 60, 63
1, 413177, Note_on_c, 0, 56, 45
1, 413212, Note_off_c, 0, 56, 63
1, 413253, Note_on_c, 0, 60, 50
1, 413285, Note_off_c, 0, 60, 67
1, 413323, Note_on_c, 0, 56, 45
1, 413357, Note_off_c, 0, 56, 54
1, 413386, Note_on_c, 0, 60, 57
1, 413412, Note_on_c, 0, 84, 69
1, 413426, Note_off_c, 0, 60, 62
1, 413450, Note_on_c, 0, 56, 53
1, 413463, Note_off_c, 0, 84, 64
1, 413490, Note_off_c, 0, 56, 64
1, 413533, Note_on_c, 0, 60, 44
1, 413577, Note_off_c, 0, 60, 60
1, 413587, Note_on_c, 0, 56, 53
1, 413626, Note_off_c, 0, 56, 65
1, 413673, Note_on_c, 0, 80, 55
1, 413683, Note_on_c, 0, 60, 43
1, 413708, Note_off_c, 0, 60, 62
1, 413737, Note_on_c, 0, 56, 49
1, 413742, Note_off_c, 0, 80, 63
1, 413763, Note_off_c, 0, 56, 61
1, 413772, Note_on_c, 0, 77, 61
1, 413786, Note_on_c, 0, 60, 59
1, 413854, Note_off_c, 0, 60, 62
1, 413858, Note_on_c, 0, 56, 54
1, 413900, Note_off_c, 0, 56, 62
1, 413938, Note_on_c, 0, 60, 48
1, 413974, Note_off_c, 0, 60, 65
1, 413978, Note_off_c, 0, 77, 52
1, 414004, Note_on_c, 0, 56, 45
1, 414028, Note_off_c, 0, 56, 59
1, 414069, Note_on_c, 0, 60, 52
1, 414095, Control_c, 0, 67, 13
1, 414102, Note_off_c, 0, 60, 64
1, 414110, Control_c, 0, 67, 41
1, 414120, Note_on_c, 0, 56, 56
1, 414125, Control_c, 0, 67, 72
1, 414140, Control_c, 0, 67, 103
1, 414153, Note_off_c, 0, 56, 66
1, 414154, Control_c, 0, 67, 127
1, 414156, Note_on_c, 0, 72, 58
1, 414198, Note_on_c, 0, 60, 50
1, 414223, Note_off_c, 0, 72, 63
1, 414227, Note_off_c, 0, 60, 64
1, 414245, Note_on_c, 0, 56, 56
1, 414277, Note_off_c, 0, 56, 64
1, 414309, Note_on_c, 0, 60, 60
1, 414347, Note_off_c, 0, 60, 63
1, 414367, Note_on_c, 0, 56, 58
1, 414400, Note_off_c, 0, 56, 65
1, 414432, Note_on_c, 0, 68, 60
1, 414433, Note_on_c, 0, 60, 59
1, 414464, Note_off_c, 0, 60, 65
1, 414481, Control_c, 0, 64, 110
1, 414490, Note_on_c, 0, 56, 51
1, 414496, Control_c, 0, 64, 83
1, 414508, Note_off_c, 0, 68, 59
1, 414511, Control_c, 0, 64, 70
1, 414516, Note_off_c, 0, 56, 61
1, 414526, Control_c, 0, 64, 64
1, 414530, Note_on_c, 0, 65, 63
1, 414540, Control_c, 0, 64, 64
1, 414555, Control_c, 0, 64, 65
1, 414559, Note_on_c, 0, 60, 48
1, 414570, Control_c, 0, 64, 69
1, 414585, Control_c, 0, 64, 75
1, 414592, Note_off_c, 0, 60, 60
1, 414599, Control_c, 0, 64, 85
1, 414614, Note_on_c, 0, 56, 57
1, 414614, Control_c, 0, 64, 111
1, 414629, Control_c, 0, 64, 127
1, 414651, Note_off_c, 0, 56, 65
1, 414678, Note_on_c, 0, 60, 58
1, 414709, Note_off_c, 0, 60, 65
1, 414730, Note_on_c, 0, 56, 66
1, 414770, Note_off_c, 0, 56, 56
1, 414773, Note_off_c, 0, 65, 38
1, 414899, Note_on_c, 0, 60, 62
1, 414904, Control_c, 0, 64, 90
1, 414919, Control_c, 0, 64, 72
1, 414934, Control_c, 0, 64, 61
1, 414949, Control_c, 0, 64, 50
1, 414964, Control_c, 0, 64, 53
1, 414970, Note_on_c, 0, 65, 51
1, 414978, Control_c, 0, 64, 57
1, 414993, Control_c, 0, 64, 62
1, 415002, Note_off_c, 0, 65, 65
1, 415008, Control_c, 0, 64, 65
1, 415022, Control_c, 0, 64, 69
1, 415037, Control_c, 0, 64, 76
1, 415052, Control_c, 0, 64, 85
1, 415060, Note_on_c, 0, 68, 34
1, 415067, Control_c, 0, 64, 101
1, 415082, Control_c, 0, 64, 127
1, 415087, Note_on_c, 0, 65, 58
1, 415094, Note_off_c, 0, 68, 50
1, 415131, Note_off_c, 0, 65, 55
1, 415133, Note_off_c, 0, 60, 50
1, 415184, Note_on_c, 0, 68, 53
1, 415190, Note_on_c, 0, 56, 55
1, 415208, Note_off_c, 0, 68, 57
1, 415237, Note_on_c, 0, 72, 54
1, 415259, Control_c, 0, 64, 96
1, 415274, Control_c, 0, 64, 77
1, 415277, Note_off_c, 0, 72, 62
1, 415287, Note_off_c, 0, 56, 61
1, 415288, Control_c, 0, 64, 65
1, 415298, Note_on_c, 0, 68, 53
1, 415301, Note_on_c, 0, 53, 54
1, 415303, Control_c, 0, 64, 50
1, 415318, Control_c, 0, 64, 33
1, 415333, Control_c, 0, 64, 36
1, 415337, Note_off_c, 0, 68, 64
1, 415348, Control_c, 0, 64, 43
1, 415362, Control_c, 0, 64, 50
1, 415377, Note_on_c, 0, 72, 52
1, 415377, Control_c, 0, 64, 55
1, 415392, Control_c, 0, 64, 59
1, 415407, Control_c, 0, 64, 63
1, 415413, Note_off_c, 0, 72, 65
1, 415421, Control_c, 0, 64, 64
1, 415436, Control_c, 0, 64, 66
1, 415448, Note_on_c, 0, 68, 48
1, 415451, Control_c, 0, 64, 69
1, 415466, Control_c, 0, 64, 72
1, 415475, Note_off_c, 0, 68, 58
1, 415481, Control_c, 0, 64, 77
1, 415495, Control_c, 0, 64, 84
1, 415502, Note_on_c, 0, 72, 56
1, 415510, Control_c, 0, 64, 91
1, 415525, Control_c, 0, 64, 96
1, 415548, Control_c, 0, 64, 99
1, 415551, Note_off_c, 0, 72, 61
1, 415580, Note_on_c, 0, 68, 47
1, 415608, Control_c, 0, 64, 98
1, 415611, Note_off_c, 0, 68, 58
1, 415623, Control_c, 0, 64, 97
1, 415638, Control_c, 0, 64, 95
1, 415652, Note_on_c, 0, 72, 47
1, 415652, Control_c, 0, 64, 92
1, 415667, Control_c, 0, 64, 86
1, 415680, Note_off_c, 0, 72, 58
1, 415682, Control_c, 0, 64, 77
1, 415685, Note_off_c, 0, 53, 56
1, 415687, Note_on_c, 0, 48, 58
1, 415697, Control_c, 0, 64, 68
1, 415712, Control_c, 0, 64, 62
1, 415716, Note_on_c, 0, 68, 42
1, 415726, Control_c, 0, 64, 54
1, 415741, Control_c, 0, 64, 53
1, 415743, Note_off_c, 0, 68, 55
1, 415756, Control_c, 0, 64, 55
1, 415766, Note_on_c, 0, 72, 54
1, 415771, Control_c, 0, 64, 57
1, 415786, Control_c, 0, 64, 60
1, 415800, Control_c, 0, 64, 63
1, 415805, Note_off_c, 0, 72, 63
1, 415815, Control_c, 0, 64, 65
1, 415830, Control_c, 0, 64, 67
1, 415837, Note_on_c, 0, 68, 47
1, 415844, Control_c, 0, 64, 71
1, 415859, Control_c, 0, 64, 77
1, 415870, Note_off_c, 0, 68, 59
1, 415874, Control_c, 0, 64, 85
1, 415889, Control_c, 0, 64, 94
1, 415901, Note_off_c, 0, 48, 51
1, 415904, Control_c, 0, 64, 102
1, 415915, Note_on_c, 0, 72, 41
1, 415918, Control_c, 0, 64, 107
1, 415933, Control_c, 0, 64, 107
1, 415944, Note_off_c, 0, 72, 57
1, 415963, Control_c, 0, 64, 107
1, 415969, Note_on_c, 0, 68, 55
1, 415978, Control_c, 0, 64, 106
1, 415980, Note_on_c, 0, 44, 51
1, 415992, Control_c, 0, 64, 103
1, 416007, Control_c, 0, 64, 99
1, 416010, Note_off_c, 0, 68, 62
1, 416022, Control_c, 0, 64, 94
1, 416031, Note_on_c, 0, 72, 56
1, 416037, Control_c, 0, 64, 87
1, 416052, Control_c, 0, 64, 78
1, 416056, Note_off_c, 0, 44, 60
1, 416067, Control_c, 0, 64, 67
1, 416082, Control_c, 0, 64, 57
1, 416083, Note_off_c, 0, 72, 59
1, 416097, Control_c, 0, 64, 42
1, 416097, Note_on_c, 0, 41, 48
1, 416112, Control_c, 0, 64, 34
1, 416117, Note_on_c, 0, 68, 52
1, 416141, Control_c, 0, 64, 36
1, 416149, Note_off_c, 0, 68, 63
1, 416156, Control_c, 0, 64, 39
1, 416170, Control_c, 0, 64, 44
1, 416185, Control_c, 0, 64, 51
1, 416200, Control_c, 0, 64, 57
1, 416204, Note_on_c, 0, 72, 34
1, 416215, Control_c, 0, 64, 61
1, 416230, Control_c, 0, 64, 64
1, 416233, Note_off_c, 0, 72, 55
1, 416244, Control_c, 0, 64, 66
1, 416249, Note_on_c, 0, 68, 48
1, 416259, Control_c, 0, 64, 68
1, 416274, Control_c, 0, 64, 70
1, 416281, Note_off_c, 0, 68, 61
1, 416296, Control_c, 0, 64, 73
1, 416311, Control_c, 0, 64, 76
1, 416319, Note_on_c, 0, 72, 55
1, 416326, Control_c, 0, 64, 80
1, 416341, Control_c, 0, 64, 83
1, 416356, Control_c, 0, 64, 85
1, 416360, Note_off_c, 0, 72, 64
1, 416386, Note_on_c, 0, 68, 53
1, 416415, Note_off_c, 0, 68, 60
1, 416416, Control_c, 0, 64, 84
1, 416431, Control_c, 0, 64, 83
1, 416445, Control_c, 0, 64, 82
1, 416452, Note_on_c, 0, 72, 54
1, 416460, Control_c, 0, 64, 80
1, 416475, Control_c, 0, 64, 77
1, 416477, Note_off_c, 0, 72, 60
1, 416480, Note_on_c, 0, 36, 50
1, 416490, Control_c, 0, 64, 71
1, 416498, Note_off_c, 0, 41, 37
1, 416502, Note_on_c, 0, 68, 54
1, 416505, Control_c, 0, 64, 64
1, 416520, Control_c, 0, 64, 54
1, 416535, Control_c, 0, 64, 38
1, 416539, Note_off_c, 0, 68, 63
1, 416549, Control_c, 0, 64, 34
1, 416559, Note_on_c, 0, 72, 56
1, 416564, Control_c, 0, 64, 34
1, 416579, Control_c, 0, 64, 38
1, 416594, Control_c, 0, 64, 41
1, 416597, Note_off_c, 0, 72, 64
1, 416609, Control_c, 0, 64, 47
1, 416623, Control_c, 0, 64, 56
1, 416638, Control_c, 0, 64, 61
1, 416644, Note_on_c, 0, 68, 37
1, 416653, Control_c, 0, 64, 64
1, 416667, Control_c, 0, 64, 67
1, 416675, Note_off_c, 0, 68, 47
1, 416682, Control_c, 0, 64, 70
1, 416697, Control_c, 0, 64, 72
1, 416706, Note_on_c, 0, 72, 40
1, 416712, Control_c, 0, 64, 76
1, 416727, Control_c, 0, 64, 79
1, 416734, Note_off_c, 0, 72, 52
1, 416741, Control_c, 0, 64, 81
1, 416756, Control_c, 0, 64, 82
1, 416760, Note_off_c, 0, 36, 56
1, 416770, Note_on_c, 0, 68, 38
1, 416779, Note_on_c, 0, 32, 43
1, 416799, Note_off_c, 0, 68, 49
1, 416800, Control_c, 0, 64, 81
1, 416809, Note_on_c, 0, 72, 60
1, 416815, Control_c, 0, 64, 80
1, 416830, Control_c, 0, 64, 79
1, 416845, Control_c, 0, 64, 75
1, 416847, Note_off_c, 0, 72, 64
1, 416860, Control_c, 0, 64, 69
1, 416868, Note_off_c, 0, 32, 60
1, 416875, Control_c, 0, 64, 62
1, 416888, Note_on_c, 0, 29, 50
1, 416890, Control_c, 0, 64, 51
1, 416891, Note_on_c, 0, 68, 45
1, 416904, Control_c, 0, 64, 38
1, 416919, Note_off_c, 0, 68, 53
1, 416919, Control_c, 0, 64, 36
1, 416934, Control_c, 0, 64, 36
1, 416943, Note_on_c, 0, 72, 56
1, 416949, Control_c, 0, 64, 38
1, 416964, Control_c, 0, 64, 41
1, 416979, Note_off_c, 0, 72, 66
1, 416979, Control_c, 0, 64, 44
1, 416993, Control_c, 0, 64, 51
1, 416998, Note_on_c, 0, 68, 59
1, 417008, Control_c, 0, 64, 56
1, 417023, Control_c, 0, 64, 60
1, 417045, Note_off_c, 0, 68, 62
1, 417045, Control_c, 0, 64, 63
1, 417060, Control_c, 0, 64, 64
1, 417073, Note_on_c, 0, 72, 55
1, 417074, Control_c, 0, 64, 65
1, 417086, Note_off_c, 0, 29, 44
1, 417089, Control_c, 0, 64, 67
1, 417104, Control_c, 0, 64, 68
1, 417112, Note_off_c, 0, 72, 64
1, 417119, Control_c, 0, 64, 70
1, 417134, Control_c, 0, 64, 73
1, 417147, Note_on_c, 0, 68, 51
1, 417150, Control_c, 0, 64, 75
1, 417164, Control_c, 0, 64, 77
1, 417179, Control_c, 0, 64, 78
1, 417180, Note_off_c, 0, 68, 59
1, 417215, Note_on_c, 0, 72, 51
1, 417223, Control_c, 0, 64, 78
1, 417238, Control_c, 0, 64, 77
1, 417243, Note_off_c, 0, 72, 58
1, 417253, Control_c, 0, 64, 77
1, 417268, Control_c, 0, 64, 75
1, 417277, Note_on_c, 0, 68, 51
1, 417283, Control_c, 0, 64, 72
1, 417298, Control_c, 0, 64, 67
1, 417304, Note_off_c, 0, 68, 56
1, 417313, Control_c, 0, 64, 62
1, 417319, Note_on_c, 0, 29, 40
1, 417328, Note_on_c, 0, 72, 60
1, 417328, Control_c, 0, 64, 54
1, 417343, Control_c, 0, 64, 48
1, 417358, Control_c, 0, 64, 47
1, 417371, Note_off_c, 0, 72, 59
1, 417372, Control_c, 0, 64, 49
1, 417387, Control_c, 0, 64, 51
1, 417402, Control_c, 0, 64, 54
1, 417404, Note_on_c, 0, 68, 49
1, 417416, Control_c, 0, 64, 57
1, 417431, Control_c, 0, 64, 60
1, 417444, Note_off_c, 0, 68, 62
1, 417446, Control_c, 0, 64, 63
1, 417461, Control_c, 0, 64, 65
1, 417476, Control_c, 0, 64, 68
1, 417490, Control_c, 0, 64, 70
1, 417492, Note_on_c, 0, 72, 35
1, 417505, Control_c, 0, 64, 73
1, 417520, Control_c, 0, 64, 76
1, 417522, Note_off_c, 0, 72, 52
1, 417535, Control_c, 0, 64, 78
1, 417541, Note_off_c, 0, 29, 30
1, 417547, Note_on_c, 0, 68, 51
1, 417550, Control_c, 0, 64, 80
1, 417564, Control_c, 0, 64, 81
1, 417577, Note_off_c, 0, 68, 59
1, 417579, Control_c, 0, 64, 82
1, 417596, Note_on_c, 0, 72, 61
1, 417640, Note_off_c, 0, 72, 59
1, 417668, Control_c, 0, 64, 81
1, 417673, Note_on_c, 0, 68, 57
1, 417682, Control_c, 0, 64, 81
1, 417697, Control_c, 0, 64, 80
1, 417712, Note_off_c, 0, 68, 64
1, 417712, Control_c, 0, 64, 79
1, 417727, Control_c, 0, 64, 77
1, 417742, Note_on_c, 0, 72, 58
1, 417742, Control_c, 0, 64, 74
1, 417751, Note_on_c, 0, 29, 38
1, 417757, Control_c, 0, 64, 70
1, 417772, Control_c, 0, 64, 65
1, 417777, Note_off_c, 0, 72, 64
1, 417794, Control_c, 0, 64, 59
1, 417809, Control_c, 0, 64, 50
1, 417822, Note_on_c, 0, 68, 50
1, 417823, Control_c, 0, 64, 42
1, 417838, Control_c, 0, 64, 39
1, 417853, Control_c, 0, 64, 38
1, 417858, Note_off_c, 0, 68, 61
1, 417868, Control_c, 0, 64, 37
1, 417883, Control_c, 0, 64, 33
1, 417888, Note_on_c, 0, 72, 54
1, 417897, Control_c, 0, 64, 28
1, 417912, Control_c, 0, 64, 26
1, 417927, Note_off_c, 0, 72, 65
1, 417927, Control_c, 0, 64, 25
1, 417965, Note_on_c, 0, 68, 46
1, 417973, Control_c, 0, 64, 26
1, 417987, Control_c, 0, 64, 29
1, 417995, Note_off_c, 0, 68, 58
1, 418002, Control_c, 0, 64, 32
1, 418013, Note_on_c, 0, 72, 60
1, 418017, Control_c, 0, 64, 37
1, 418032, Control_c, 0, 64, 42
1, 418046, Control_c, 0, 64, 47
1, 418060, Note_off_c, 0, 72, 59
1, 418061, Control_c, 0, 64, 51
1, 418076, Control_c, 0, 64, 54
1, 418091, Control_c, 0, 64, 55
1, 418093, Note_on_c, 0, 68, 53
1, 418106, Control_c, 0, 64, 57
1, 418121, Control_c, 0, 64, 58
1, 418136, Control_c, 0, 64, 60
1, 418139, Note_off_c, 0, 68, 61
1, 418151, Control_c, 0, 64, 61
1, 418166, Control_c, 0, 64, 62
1, 418181, Control_c, 0, 64, 63
1, 418189, Note_on_c, 0, 72, 38
1, 418195, Control_c, 0, 64, 64
1, 418210, Control_c, 0, 64, 65
1, 418218, Note_off_c, 0, 72, 58
1, 418225, Control_c, 0, 64, 66
1, 418240, Control_c, 0, 64, 66
1, 418255, Control_c, 0, 64, 67
1, 418266, Note_on_c, 0, 68, 40
1, 418270, Control_c, 0, 64, 68
1, 418281, Note_off_c, 0, 29, 36
1, 418285, Control_c, 0, 64, 69
1, 418294, Note_off_c, 0, 68, 55
1, 418300, Control_c, 0, 64, 70
1, 418314, Control_c, 0, 64, 71
1, 418314, Note_on_c, 0, 72, 48
1, 418329, Control_c, 0, 64, 72
1, 418344, Control_c, 0, 64, 74
1, 418359, Control_c, 0, 64, 75
1, 418360, Note_off_c, 0, 72, 61
1, 418374, Control_c, 0, 64, 76
1, 418388, Control_c, 0, 64, 77
1, 418392, Note_on_c, 0, 68, 44
1, 418403, Control_c, 0, 64, 78
1, 418418, Control_c, 0, 64, 79
1, 418432, Control_c, 0, 64, 80
1, 418434, Note_off_c, 0, 68, 62
1, 418447, Control_c, 0, 64, 81
1, 418462, Control_c, 0, 64, 81
1, 418464, Note_on_c, 0, 72, 54
1, 418477, Control_c, 0, 64, 82
1, 418504, Note_off_c, 0, 72, 64
1, 418507, Control_c, 0, 64, 82
1, 418554, Note_on_c, 0, 68, 50
1, 418580, Note_off_c, 0, 68, 58
1, 418603, Control_c, 0, 64, 82
1, 418614, Note_on_c, 0, 72, 56
1, 418618, Control_c, 0, 64, 81
1, 418633, Control_c, 0, 64, 81
1, 418647, Control_c, 0, 64, 80
1, 418662, Note_off_c, 0, 72, 58
1, 418662, Control_c, 0, 64, 78
1, 418677, Control_c, 0, 64, 76
1, 418679, Note_on_c, 0, 29, 32
1, 418692, Control_c, 0, 64, 73
1, 418707, Control_c, 0, 64, 68
1, 418711, Note_on_c, 0, 68, 39
1, 418721, Control_c, 0, 64, 63
1, 418736, Control_c, 0, 64, 56
1, 418752, Control_c, 0, 64, 47
1, 418754, Note_off_c, 0, 68, 59
1, 418767, Control_c, 0, 64, 40
1, 418782, Control_c, 0, 64, 39
1, 418784, Note_on_c, 0, 72, 51
1, 418823, Note_off_c, 0, 72, 64
1, 418841, Control_c, 0, 64, 40
1, 418856, Control_c, 0, 64, 41
1, 418870, Control_c, 0, 64, 44
1, 418871, Note_on_c, 0, 68, 46
1, 418885, Control_c, 0, 64, 46
1, 418899, Control_c, 0, 64, 50
1, 418910, Note_off_c, 0, 68, 62
1, 418914, Control_c, 0, 64, 53
1, 418929, Control_c, 0, 64, 55
1, 418935, Note_on_c, 0, 72, 47
1, 418943, Control_c, 0, 64, 57
1, 418958, Control_c, 0, 64, 59
1, 418973, Control_c, 0, 64, 60
1, 418984, Note_off_c, 0, 72, 61
1, 418988, Control_c, 0, 64, 61
1, 419003, Control_c, 0, 64, 62
1, 419018, Control_c, 0, 64, 62
1, 419033, Control_c, 0, 64, 63
1, 419033, Note_on_c, 0, 68, 42
1, 419048, Control_c, 0, 64, 64
1, 419077, Control_c, 0, 64, 64
1, 419084, Note_off_c, 0, 68, 60
1, 419092, Control_c, 0, 64, 65
1, 419121, Note_on_c, 0, 72, 43
1, 419122, Control_c, 0, 64, 65
1, 419136, Control_c, 0, 64, 66
1, 419151, Control_c, 0, 64, 66
1, 419166, Control_c, 0, 64, 67
1, 419174, Note_off_c, 0, 72, 60
1, 419181, Control_c, 0, 64, 67
1, 419196, Control_c, 0, 64, 68
1, 419210, Control_c, 0, 64, 68
1, 419224, Note_on_c, 0, 68, 40
1, 419225, Control_c, 0, 64, 69
1, 419240, Control_c, 0, 64, 70
1, 419254, Control_c, 0, 64, 71
1, 419269, Control_c, 0, 64, 72
1, 419290, Note_off_c, 0, 68, 58
1, 419292, Control_c, 0, 64, 73
1, 419307, Control_c, 0, 64, 74
1, 419322, Control_c, 0, 64, 75
1, 419336, Control_c, 0, 64, 75
1, 419343, Note_on_c, 0, 72, 36
1, 419351, Control_c, 0, 64, 76
1, 419366, Control_c, 0, 64, 77
1, 419381, Control_c, 0, 64, 78
1, 419396, Control_c, 0, 64, 79
1, 419405, Note_off_c, 0, 72, 56
1, 419410, Control_c, 0, 64, 81
1, 419425, Control_c, 0, 64, 82
1, 419440, Control_c, 0, 64, 83
1, 419450, Note_on_c, 0, 68, 39
1, 419455, Control_c, 0, 64, 85
1, 419469, Control_c, 0, 64, 86
1, 419484, Control_c, 0, 64, 87
1, 419499, Control_c, 0, 64, 88
1, 419514, Control_c, 0, 64, 89
1, 419516, Note_off_c, 0, 29, 33
1, 419529, Control_c, 0, 64, 89
1, 419545, Control_c, 0, 64, 90
1, 419547, Note_off_c, 0, 68, 52
1, 419560, Control_c, 0, 64, 90
1, 419574, Control_c, 0, 64, 91
1, 419589, Control_c, 0, 64, 91
1, 419590, Note_on_c, 0, 72, 35
1, 419604, Control_c, 0, 64, 92
1, 419619, Control_c, 0, 64, 93
1, 419634, Control_c, 0, 64, 93
1, 419648, Control_c, 0, 64, 94
1, 419663, Control_c, 0, 64, 95
1, 419678, Control_c, 0, 64, 95
1, 419680, Note_off_c, 0, 72, 34
1, 419692, Control_c, 0, 64, 96
1, 419707, Control_c, 0, 64, 97
1, 419718, Note_on_c, 0, 68, 42
1, 419722, Control_c, 0, 64, 98
1, 419737, Control_c, 0, 64, 99
1, 419752, Control_c, 0, 64, 101
1, 419766, Control_c, 0, 64, 102
1, 419781, Control_c, 0, 64, 103
1, 419796, Control_c, 0, 64, 104
1, 419826, Control_c, 0, 64, 105
1, 419834, Note_off_c, 0, 68, 36
1, 419841, Control_c, 0, 64, 106
1, 419856, Control_c, 0, 64, 107
1, 419870, Control_c, 0, 64, 108
1, 419885, Control_c, 0, 64, 108
1, 419897, Note_on_c, 0, 72, 35
1, 419900, Control_c, 0, 64, 109
1, 419915, Control_c, 0, 64, 110
1, 419930, Control_c, 0, 64, 110
1, 419945, Control_c, 0, 64, 111
1, 419959, Control_c, 0, 64, 111
1, 419974, Control_c, 0, 64, 112
1, 419994, Note_off_c, 0, 72, 32
1, 420040, Control_c, 0, 64, 113
1, 420058, Note_on_c, 0, 68, 38
1, 420115, Control_c, 0, 64, 113
1, 420121, Note_off_c, 0, 68, 55
1, 420145, Control_c, 0, 64, 114
1, 420353, Control_c, 0, 64, 115
1, 420560, Control_c, 0, 64, 113
1, 420575, Control_c, 0, 64, 112
1, 420589, Control_c, 0, 64, 110
1, 420603, Note_on_c, 0, 72, 43
1, 420604, Control_c, 0, 64, 108
1, 420610, Note_on_c, 0, 68, 40
1, 420619, Control_c, 0, 64, 105
1, 420628, Note_on_c, 0, 29, 29
1, 420634, Control_c, 0, 64, 102
1, 420648, Control_c, 0, 64, 100
1, 420663, Control_c, 0, 64, 97
1, 420678, Control_c, 0, 64, 92
1, 420693, Control_c, 0, 64, 87
1, 420708, Control_c, 0, 64, 81
1, 420723, Control_c, 0, 64, 74
1, 420738, Control_c, 0, 64, 68
1, 420753, Control_c, 0, 64, 64
1, 420768, Control_c, 0, 64, 59
1, 420789, Control_c, 0, 64, 56
1, 420804, Control_c, 0, 64, 55
1, 420819, Control_c, 0, 64, 55
1, 420833, Control_c, 0, 64, 54
1, 420848, Control_c, 0, 64, 50
1, 420863, Control_c, 0, 64, 46
1, 420878, Control_c, 0, 64, 41
1, 420893, Control_c, 0, 64, 38
1, 420908, Control_c, 0, 64, 37
1, 421027, Control_c, 0, 64, 38
1, 421041, Control_c, 0, 64, 39
1, 421056, Control_c, 0, 64, 40
1, 421071, Control_c, 0, 64, 41
1, 421086, Control_c, 0, 64, 43
1, 421101, Control_c, 0, 64, 45
1, 421115, Control_c, 0, 64, 47
1, 421131, Control_c, 0, 64, 49
1, 421144, Control_c, 0, 64, 51
1, 421159, Control_c, 0, 64, 54
1, 421174, Control_c, 0, 64, 55
1, 421189, Control_c, 0, 64, 57
1, 421203, Control_c, 0, 64, 58
1, 421218, Control_c, 0, 64, 59
1, 421233, Control_c, 0, 64, 60
1, 421248, Control_c, 0, 64, 60
1, 421263, Control_c, 0, 64, 61
1, 421277, Control_c, 0, 64, 62
1, 421292, Control_c, 0, 64, 62
1, 421307, Control_c, 0, 64, 63
1, 421322, Control_c, 0, 64, 63
1, 421337, Control_c, 0, 64, 64
1, 421352, Control_c, 0, 64, 64
1, 421367, Control_c, 0, 64, 65
1, 421382, Control_c, 0, 64, 65
1, 421397, Control_c, 0, 64, 66
1, 421411, Control_c, 0, 64, 66
1, 421426, Control_c, 0, 64, 67
1, 421441, Control_c, 0, 64, 67
1, 421455, Control_c, 0, 64, 68
1, 421470, Control_c, 0, 64, 69
1, 421485, Control_c, 0, 64, 70
1, 421500, Control_c, 0, 64, 71
1, 421515, Control_c, 0, 64, 72
1, 421537, Control_c, 0, 64, 73
1, 421552, Control_c, 0, 64, 74
1, 421567, Control_c, 0, 64, 75
1, 421582, Control_c, 0, 64, 76
1, 421596, Control_c, 0, 64, 76
1, 421611, Control_c, 0, 64, 77
1, 421626, Control_c, 0, 64, 78
1, 421641, Control_c, 0, 64, 79
1, 421656, Control_c, 0, 64, 80
1, 421670, Control_c, 0, 64, 82
1, 421685, Control_c, 0, 64, 83
1, 421700, Control_c, 0, 64, 85
1, 421715, Control_c, 0, 64, 86
1, 421729, Control_c, 0, 64, 87
1, 421744, Control_c, 0, 64, 89
1, 421759, Control_c, 0, 64, 90
1, 421774, Control_c, 0, 64, 91
1, 421789, Control_c, 0, 64, 92
1, 421803, Control_c, 0, 64, 94
1, 421818, Control_c, 0, 64, 94
1, 421833, Control_c, 0, 64, 95
1, 421848, Control_c, 0, 64, 96
1, 421862, Control_c, 0, 64, 97
1, 421877, Control_c, 0, 64, 99
1, 421893, Control_c, 0, 64, 99
1, 421908, Control_c, 0, 64, 100
1, 421923, Control_c, 0, 64, 101
1, 421939, Control_c, 0, 64, 102
1, 421953, Control_c, 0, 64, 102
1, 421968, Control_c, 0, 64, 103
1, 421983, Control_c, 0, 64, 104
1, 421998, Control_c, 0, 64, 105
1, 422013, Control_c, 0, 64, 107
1, 422027, Control_c, 0, 64, 107
1, 422042, Control_c, 0, 64, 108
1, 422057, Control_c, 0, 64, 109
1, 422072, Control_c, 0, 64, 110
1, 422086, Control_c, 0, 64, 111
1, 422101, Control_c, 0, 64, 112
1, 422116, Control_c, 0, 64, 113
1, 422131, Control_c, 0, 64, 114
1, 422146, Control_c, 0, 64, 115
1, 422160, Control_c, 0, 64, 116
1, 422190, Control_c, 0, 64, 118
1, 422205, Control_c, 0, 64, 121
1, 422220, Control_c, 0, 64, 123
1, 422234, Control_c, 0, 64, 127
1, 422310, Note_off_c, 0, 68, 25
1, 422421, Note_off_c, 0, 72, 25
1, 422614, Note_off_c, 0, 29, 31
1, 423799, Control_c, 0, 64, 121
1, 423814, Control_c, 0, 64, 119
1, 423829, Control_c, 0, 64, 118
1, 423844, Control_c, 0, 64, 116
1, 423858, Control_c, 0, 64, 115
1, 423873, Control_c, 0, 64, 113
1, 423888, Control_c, 0, 64, 113
1, 423903, Control_c, 0, 64, 112
1, 423918, Control_c, 0, 64, 111
1, 423932, Control_c, 0, 64, 110
1, 423947, Control_c, 0, 64, 110
1, 423962, Control_c, 0, 64, 109
1, 423992, Control_c, 0, 64, 107
1, 424006, Control_c, 0, 64, 106
1, 424021, Control_c, 0, 64, 106
1, 424036, Control_c, 0, 64, 105
1, 424050, Control_c, 0, 64, 104
1, 424065, Control_c, 0, 64, 103
1, 424080, Control_c, 0, 64, 102
1, 424095, Control_c, 0, 64, 102
1, 424110, Control_c, 0, 64, 101
1, 424124, Control_c, 0, 64, 100
1, 424124, Control_c, 0, 67, 122
1, 424139, Control_c, 0, 64, 99
1, 424139, Control_c, 0, 67, 118
1, 424154, Control_c, 0, 64, 97
1, 424154, Control_c, 0, 67, 114
1, 424169, Control_c, 0, 64, 95
1, 424169, Control_c, 0, 67, 109
1, 424184, Control_c, 0, 64, 94
1, 424184, Control_c, 0, 67, 102
1, 424199, Control_c, 0, 64, 93
1, 424199, Control_c, 0, 67, 93
1, 424214, Control_c, 0, 67, 85
1, 424229, Control_c, 0, 64, 93
1, 424229, Control_c, 0, 67, 78
1, 424243, Control_c, 0, 64, 92
1, 424243, Control_c, 0, 67, 71
1, 424258, Control_c, 0, 64, 91
1, 424258, Control_c, 0, 67, 65
1, 424273, Control_c, 0, 64, 91
1, 424273, Control_c, 0, 67, 58
1, 424288, Control_c, 0, 64, 90
1, 424288, Control_c, 0, 67, 52
1, 424303, Control_c, 0, 64, 90
1, 424303, Control_c, 0, 67, 46
1, 424318, Control_c, 0, 64, 89
1, 424318, Control_c, 0, 67, 41
1, 424333, Control_c, 0, 64, 87
1, 424333, Control_c, 0, 67, 38
1, 424348, Control_c, 0, 64, 85
1, 424348, Control_c, 0, 67, 35
1, 424363, Control_c, 0, 64, 83
1, 424363, Control_c, 0, 67, 33
1, 424378, Control_c, 0, 64, 81
1, 424378, Control_c, 0, 67, 30
1, 424393, Control_c, 0, 64, 79
1, 424393, Control_c, 0, 67, 27
1, 424407, Control_c, 0, 64, 78
1, 424407, Control_c, 0, 67, 24
1, 424422, Control_c, 0, 64, 77
1, 424422, Control_c, 0, 67, 22
1, 424437, Control_c, 0, 64, 76
1, 424437, Control_c, 0, 67, 20
1, 424452, Control_c, 0, 64, 75
1, 424452, Control_c, 0, 67, 19
1, 424467, Control_c, 0, 64, 74
1, 424467, Control_c, 0, 67, 17
1, 424481, Control_c, 0, 64, 73
1, 424481, Control_c, 0, 67, 14
1, 424496, Control_c, 0, 64, 72
1, 424496, Control_c, 0, 67, 13
1, 424511, Control_c, 0, 64, 71
1, 424511, Control_c, 0, 67, 11
1, 424533, Control_c, 0, 64, 70
1, 424533, Control_c, 0, 67, 9
1, 424548, Control_c, 0, 64, 69
1, 424548, Control_c, 0, 67, 9
1, 424562, Control_c, 0, 64, 69
1, 424562, Control_c, 0, 67, 8
1, 424577, Control_c, 0, 64, 68
1, 424577, Control_c, 0, 67, 0
1, 424652, End_track
0, 0, End_of_file
