0, 0, Header, 0, 1, 384
1, 0, Start_track
1, 0, Title_t, "SchubertOp90No1--Teo            "
1, 0, Text_t, "2011 ePiano Junior Competition"
1, 0, Text_t, "captured in spring and summer 2011"
1, 0, Text_t, "http://www.piano-e-competition.com/"
1, 0, Text_t, "standard-resolution version"
1, 0, Text_t, "File processed for distribution with software designed and coded by Dr. John Q. Walker, founder of Zenph Sound Innovations"
1, 0, Instrument_name_t, "Yamaha Disklavier Pro Mark IV concert grand piano, model DCFIIISM4PRO"
1, 0, Sequencer_specific, 39, 67, 113, 0, 1, 0, 1, 0, 83, 99, 104, 117, 98, 101, 114, 116, 32, 79, 112, 57, 48, 78, 111, 49, 84, 114, 105, 115, 116, 97, 110, 32, 84, 101, 111, 32, 32, 32, 32, 32
1, 0, Sequencer_specific, 6, 67, 113, 0, 0, 0, 69
1, 0, System_exclusive, 21, 67, 113, 126, 21, 0, 2, 2, 2, 5, 12, 8, 4, 14, 1, 3, 10, 11, 2, 12, 2, 247
1, 0, Sequencer_specific, 5, 67, 123, 12, 2, 1
1, 0, Tempo, 512820
1, 0, Time_signature, 4, 2, 24, 8
1, 0, System_exclusive, 5, 126, 127, 9, 1, 247
1, 1, System_exclusive, 8, 67, 16, 76, 0, 0, 126, 0, 247
1, 2, System_exclusive, 8, 67, 16, 76, 8, 9, 7, 1, 247
1, 3, Control_c, 0, 0, 108
1, 3, Control_c, 1, 0, 108
1, 3, Control_c, 2, 0, 0
1, 3, Control_c, 3, 0, 0
1, 3, Control_c, 4, 0, 0
1, 3, Control_c, 5, 0, 0
1, 3, Control_c, 6, 0, 0
1, 3, Control_c, 7, 0, 0
1, 3, Control_c, 8, 0, 0
1, 3, Control_c, 9, 0, 127
1, 3, Control_c, 10, 0, 0
1, 3, Control_c, 11, 0, 0
1, 3, Control_c, 12, 0, 0
1, 3, Control_c, 13, 0, 0
1, 3, Control_c, 14, 0, 0
1, 3, Control_c, 15, 0, 0
1, 4, Control_c, 0, 32, 0
1, 4, Control_c, 1, 32, 0
1, 4, Control_c, 2, 32, 0
1, 4, Control_c, 3, 32, 0
1, 4, Control_c, 4, 32, 0
1, 4, Control_c, 5, 32, 0
1, 4, Control_c, 6, 32, 0
1, 4, Control_c, 7, 32, 0
1, 4, Control_c, 8, 32, 0
1, 4, Control_c, 9, 32, 0
1, 4, Control_c, 10, 32, 0
1, 4, Control_c, 11, 32, 0
1, 4, Control_c, 12, 32, 0
1, 4, Control_c, 13, 32, 0
1, 4, Control_c, 14, 32, 0
1, 4, Control_c, 15, 32, 0
1, 5, Program_c, 0, 0
1, 5, Program_c, 1, 0
1, 5, Program_c, 2, 0
1, 5, Program_c, 3, 0
1, 5, Program_c, 4, 0
1, 5, Program_c, 5, 0
1, 5, Program_c, 6, 0
1, 5, Program_c, 7, 0
1, 5, Program_c, 8, 0
1, 5, Program_c, 9, 0
1, 5, Program_c, 10, 0
1, 5, Program_c, 11, 0
1, 5, Program_c, 12, 0
1, 5, Program_c, 13, 0
1, 5, Program_c, 14, 0
1, 5, Program_c, 15, 0
1, 6, Control_c, 0, 7, 100
1, 6, Control_c, 1, 7, 100
1, 6, Control_c, 2, 7, 100
1, 6, Control_c, 3, 7, 100
1, 6, Control_c, 4, 7, 100
1, 6, Control_c, 5, 7, 100
1, 6, Control_c, 6, 7, 100
1, 6, Control_c, 7, 7, 100
1, 6, Control_c, 8, 7, 100
1, 6, Control_c, 9, 7, 100
1, 6, Control_c, 10, 7, 100
1, 6, Control_c, 11, 7, 100
1, 6, Control_c, 12, 7, 100
1, 6, Control_c, 13, 7, 100
1, 6, Control_c, 14, 7, 100
1, 6, Control_c, 15, 7, 100
1, 42, Control_c, 0, 64, 15
1, 79, Control_c, 0, 64, 31
1, 116, Control_c, 0, 64, 46
1, 153, Control_c, 0, 64, 63
1, 190, Control_c, 0, 64, 77
1, 226, Control_c, 0, 64, 94
1, 263, Control_c, 0, 64, 108
1, 300, Control_c, 0, 64, 127
1, 378, Note_on_c, 0, 79, 91
1, 391, Note_on_c, 0, 67, 75
1, 392, Note_on_c, 0, 43, 74
1, 396, Note_on_c, 0, 31, 69
1, 419, Note_on_c, 0, 69, 50
1, 446, Note_off_c, 0, 69, 39
1, 733, Control_c, 0, 64, 97
1, 747, Control_c, 0, 64, 80
1, 762, Control_c, 0, 64, 69
1, 777, Control_c, 0, 64, 62
1, 792, Control_c, 0, 64, 56
1, 806, Control_c, 0, 64, 54
1, 866, Control_c, 0, 64, 54
1, 880, Control_c, 0, 64, 53
1, 895, Control_c, 0, 64, 51
1, 910, Control_c, 0, 64, 50
1, 925, Control_c, 0, 64, 48
1, 940, Control_c, 0, 64, 46
1, 955, Control_c, 0, 64, 45
1, 970, Control_c, 0, 64, 43
1, 985, Control_c, 0, 64, 43
1, 1006, Control_c, 0, 64, 42
1, 1021, Control_c, 0, 64, 41
1, 1036, Control_c, 0, 64, 40
1, 1051, Control_c, 0, 64, 40
1, 1511, Control_c, 0, 64, 40
1, 1644, Control_c, 0, 64, 41
1, 1829, Control_c, 0, 64, 41
1, 2007, Control_c, 0, 64, 42
1, 2741, Control_c, 0, 64, 42
1, 2785, Control_c, 0, 64, 43
1, 2830, Control_c, 0, 64, 43
1, 2860, Control_c, 0, 64, 44
1, 2874, Control_c, 0, 64, 44
1, 2904, Control_c, 0, 64, 45
1, 2934, Control_c, 0, 64, 45
1, 2948, Control_c, 0, 64, 46
1, 2963, Control_c, 0, 64, 47
1, 2978, Control_c, 0, 64, 47
1, 2992, Control_c, 0, 64, 49
1, 3007, Control_c, 0, 64, 50
1, 3022, Control_c, 0, 64, 51
1, 3037, Control_c, 0, 64, 52
1, 3052, Control_c, 0, 64, 54
1, 3066, Control_c, 0, 64, 55
1, 3081, Control_c, 0, 64, 56
1, 3096, Control_c, 0, 64, 57
1, 3111, Control_c, 0, 64, 58
1, 3126, Control_c, 0, 64, 60
1, 3140, Control_c, 0, 64, 60
1, 3155, Control_c, 0, 64, 61
1, 3170, Control_c, 0, 64, 62
1, 3185, Control_c, 0, 64, 62
1, 3200, Control_c, 0, 64, 63
1, 3215, Control_c, 0, 64, 64
1, 3229, Control_c, 0, 64, 64
1, 3252, Control_c, 0, 64, 65
1, 3267, Control_c, 0, 64, 65
1, 3281, Control_c, 0, 64, 66
1, 3296, Control_c, 0, 64, 66
1, 3311, Control_c, 0, 64, 67
1, 3325, Control_c, 0, 64, 67
1, 3340, Control_c, 0, 64, 68
1, 3355, Control_c, 0, 64, 68
1, 3370, Control_c, 0, 64, 69
1, 3385, Control_c, 0, 64, 70
1, 3399, Control_c, 0, 64, 70
1, 3414, Control_c, 0, 64, 71
1, 3429, Control_c, 0, 64, 73
1, 3444, Control_c, 0, 64, 74
1, 3459, Control_c, 0, 64, 75
1, 3474, Control_c, 0, 64, 76
1, 3489, Control_c, 0, 64, 77
1, 3505, Control_c, 0, 64, 77
1, 3520, Control_c, 0, 64, 78
1, 3609, Control_c, 0, 64, 77
1, 3623, Control_c, 0, 64, 76
1, 3638, Control_c, 0, 64, 76
1, 3653, Control_c, 0, 64, 75
1, 3683, Control_c, 0, 64, 75
1, 3697, Control_c, 0, 64, 74
1, 3712, Control_c, 0, 64, 73
1, 3727, Control_c, 0, 64, 72
1, 3742, Control_c, 0, 64, 70
1, 3757, Control_c, 0, 64, 68
1, 3772, Control_c, 0, 64, 66
1, 3787, Control_c, 0, 64, 64
1, 3802, Control_c, 0, 64, 63
1, 3816, Control_c, 0, 64, 62
1, 3831, Control_c, 0, 64, 61
1, 3861, Control_c, 0, 64, 61
1, 3890, Control_c, 0, 64, 60
1, 3905, Control_c, 0, 64, 59
1, 3920, Control_c, 0, 64, 58
1, 3935, Control_c, 0, 64, 57
1, 3950, Control_c, 0, 64, 56
1, 3964, Control_c, 0, 64, 56
1, 3979, Control_c, 0, 64, 55
1, 4001, Control_c, 0, 64, 55
1, 4016, Control_c, 0, 64, 54
1, 4031, Control_c, 0, 64, 54
1, 4046, Control_c, 0, 64, 53
1, 4061, Control_c, 0, 64, 52
1, 4076, Control_c, 0, 64, 51
1, 4076, Control_c, 0, 67, 11
1, 4090, Control_c, 0, 64, 50
1, 4090, Control_c, 0, 67, 19
1, 4105, Control_c, 0, 64, 48
1, 4105, Control_c, 0, 67, 25
1, 4120, Control_c, 0, 64, 46
1, 4120, Control_c, 0, 67, 29
1, 4124, Note_off_c, 0, 67, 35
1, 4135, Control_c, 0, 64, 43
1, 4135, Control_c, 0, 67, 33
1, 4149, Control_c, 0, 64, 41
1, 4149, Control_c, 0, 67, 37
1, 4164, Control_c, 0, 64, 39
1, 4164, Control_c, 0, 67, 39
1, 4177, Note_off_c, 0, 79, 33
1, 4179, Control_c, 0, 64, 36
1, 4179, Control_c, 0, 67, 40
1, 4194, Control_c, 0, 64, 32
1, 4194, Control_c, 0, 67, 40
1, 4209, Control_c, 0, 64, 28
1, 4209, Control_c, 0, 67, 41
1, 4214, Note_off_c, 0, 31, 34
1, 4223, Control_c, 0, 64, 24
1, 4223, Control_c, 0, 67, 41
1, 4238, Control_c, 0, 64, 19
1, 4238, Control_c, 0, 67, 42
1, 4253, Control_c, 0, 64, 11
1, 4268, Control_c, 0, 64, 0
1, 4296, Note_off_c, 0, 43, 35
1, 4373, Control_c, 0, 67, 41
1, 4402, Control_c, 0, 67, 41
1, 4432, Control_c, 0, 67, 40
1, 4491, Control_c, 0, 67, 40
1, 4520, Control_c, 0, 67, 39
1, 4535, Control_c, 0, 67, 38
1, 4550, Control_c, 0, 67, 38
1, 4610, Control_c, 0, 67, 37
1, 4780, Control_c, 0, 67, 36
1, 4839, Control_c, 0, 67, 36
1, 4869, Control_c, 0, 67, 35
1, 4872, Note_on_c, 0, 71, 51
1, 5032, Control_c, 0, 67, 35
1, 5136, Control_c, 0, 67, 34
1, 5181, Control_c, 0, 67, 33
1, 5225, Control_c, 0, 67, 33
1, 5246, Note_on_c, 0, 72, 47
1, 5269, Note_off_c, 0, 71, 56
1, 5350, Note_on_c, 0, 74, 50
1, 5352, Note_off_c, 0, 72, 59
1, 5373, Control_c, 0, 67, 32
1, 5432, Control_c, 0, 67, 31
1, 5462, Control_c, 0, 67, 31
1, 5477, Control_c, 0, 67, 30
1, 5514, Control_c, 0, 67, 29
1, 5529, Control_c, 0, 64, 34
1, 5543, Control_c, 0, 64, 51
1, 5543, Control_c, 0, 67, 29
1, 5558, Control_c, 0, 64, 60
1, 5558, Control_c, 0, 67, 28
1, 5573, Control_c, 0, 64, 65
1, 5588, Control_c, 0, 64, 69
1, 5590, Note_off_c, 0, 74, 47
1, 5602, Control_c, 0, 64, 74
1, 5602, Control_c, 0, 67, 28
1, 5617, Control_c, 0, 64, 80
1, 5632, Control_c, 0, 64, 86
1, 5632, Control_c, 0, 67, 27
1, 5647, Control_c, 0, 64, 92
1, 5662, Control_c, 0, 64, 97
1, 5677, Control_c, 0, 64, 100
1, 5692, Control_c, 0, 64, 100
1, 5781, Control_c, 0, 67, 26
1, 5853, Note_on_c, 0, 74, 58
1, 5869, Control_c, 0, 67, 26
1, 5900, Control_c, 0, 64, 101
1, 5930, Control_c, 0, 64, 101
1, 5945, Control_c, 0, 67, 25
1, 5954, Note_off_c, 0, 74, 47
1, 5974, Control_c, 0, 67, 24
1, 6033, Control_c, 0, 67, 24
1, 6063, Control_c, 0, 67, 23
1, 6107, Control_c, 0, 67, 23
1, 6122, Control_c, 0, 67, 22
1, 6137, Control_c, 0, 67, 21
1, 6152, Control_c, 0, 67, 20
1, 6181, Control_c, 0, 67, 19
1, 6210, Control_c, 0, 67, 19
1, 6225, Control_c, 0, 64, 102
1, 6225, Control_c, 0, 67, 18
1, 6278, Control_c, 0, 64, 102
1, 6303, Note_on_c, 0, 74, 52
1, 6322, Control_c, 0, 67, 18
1, 6337, Control_c, 0, 64, 103
1, 6352, Control_c, 0, 64, 104
1, 6366, Control_c, 0, 64, 104
1, 6381, Control_c, 0, 64, 106
1, 6396, Control_c, 0, 64, 106
1, 6411, Control_c, 0, 64, 107
1, 6429, Note_off_c, 0, 74, 55
1, 6455, Control_c, 0, 64, 107
1, 6470, Control_c, 0, 64, 108
1, 6485, Control_c, 0, 64, 108
1, 6499, Control_c, 0, 64, 109
1, 6514, Control_c, 0, 64, 110
1, 6529, Control_c, 0, 64, 110
1, 6544, Control_c, 0, 64, 111
1, 6589, Control_c, 0, 67, 18
1, 6693, Control_c, 0, 64, 110
1, 6693, Control_c, 0, 67, 19
1, 6708, Control_c, 0, 64, 108
1, 6723, Control_c, 0, 64, 107
1, 6738, Control_c, 0, 64, 106
1, 6753, Control_c, 0, 64, 104
1, 6767, Note_on_c, 0, 72, 52
1, 6768, Control_c, 0, 64, 101
1, 6768, Control_c, 0, 67, 19
1, 6782, Control_c, 0, 64, 99
1, 6797, Control_c, 0, 64, 97
1, 6812, Control_c, 0, 64, 95
1, 6827, Control_c, 0, 64, 92
1, 6841, Control_c, 0, 64, 87
1, 6841, Control_c, 0, 67, 20
1, 6856, Control_c, 0, 64, 82
1, 6871, Control_c, 0, 64, 76
1, 6871, Control_c, 0, 67, 21
1, 6886, Control_c, 0, 64, 72
1, 6901, Control_c, 0, 64, 69
1, 6915, Control_c, 0, 64, 66
1, 6930, Control_c, 0, 64, 64
1, 6930, Control_c, 0, 67, 21
1, 6945, Control_c, 0, 64, 62
1, 6960, Control_c, 0, 64, 61
1, 6960, Control_c, 0, 67, 22
1, 6975, Control_c, 0, 64, 60
1, 6975, Control_c, 0, 67, 23
1, 6997, Control_c, 0, 64, 59
1, 7012, Control_c, 0, 64, 59
1, 7012, Control_c, 0, 67, 23
1, 7027, Control_c, 0, 64, 58
1, 7041, Control_c, 0, 64, 57
1, 7056, Control_c, 0, 64, 55
1, 7056, Control_c, 0, 67, 24
1, 7071, Control_c, 0, 64, 53
1, 7086, Control_c, 0, 64, 50
1, 7101, Control_c, 0, 64, 49
1, 7101, Control_c, 0, 67, 24
1, 7115, Control_c, 0, 64, 48
1, 7145, Control_c, 0, 64, 48
1, 7160, Control_c, 0, 64, 47
1, 7165, Note_on_c, 0, 74, 54
1, 7174, Control_c, 0, 64, 47
1, 7219, Control_c, 0, 64, 46
1, 7263, Control_c, 0, 64, 46
1, 7283, Note_off_c, 0, 72, 35
1, 7293, Control_c, 0, 64, 45
1, 7307, Note_on_c, 0, 75, 52
1, 7337, Control_c, 0, 64, 45
1, 7352, Control_c, 0, 67, 25
1, 7381, Note_off_c, 0, 74, 54
1, 7412, Control_c, 0, 64, 44
1, 7486, Control_c, 0, 64, 44
1, 7516, Control_c, 0, 64, 43
1, 7531, Control_c, 0, 67, 26
1, 7561, Control_c, 0, 64, 43
1, 7760, Control_c, 0, 67, 26
1, 7790, Control_c, 0, 67, 27
1, 7820, Control_c, 0, 67, 28
1, 7850, Control_c, 0, 67, 28
1, 7864, Control_c, 0, 67, 29
1, 7879, Control_c, 0, 67, 29
1, 7894, Control_c, 0, 67, 30
1, 7909, Control_c, 0, 67, 31
1, 7938, Control_c, 0, 67, 32
1, 7953, Control_c, 0, 67, 33
1, 7968, Control_c, 0, 67, 33
1, 7983, Control_c, 0, 67, 34
1, 7997, Control_c, 0, 67, 35
1, 8012, Control_c, 0, 67, 35
1, 8027, Control_c, 0, 67, 36
1, 8032, Note_on_c, 0, 74, 44
1, 8042, Control_c, 0, 67, 37
1, 8057, Control_c, 0, 67, 38
1, 8071, Control_c, 0, 67, 38
1, 8086, Control_c, 0, 67, 40
1, 8101, Control_c, 0, 67, 40
1, 8116, Control_c, 0, 67, 41
1, 8118, Note_off_c, 0, 75, 53
1, 8131, Control_c, 0, 67, 41
1, 8145, Control_c, 0, 67, 42
1, 8160, Control_c, 0, 67, 43
1, 8175, Control_c, 0, 67, 44
1, 8190, Control_c, 0, 67, 45
1, 8205, Control_c, 0, 67, 46
1, 8219, Control_c, 0, 67, 54
1, 8234, Control_c, 0, 67, 77
1, 8249, Control_c, 0, 67, 98
1, 8264, Control_c, 0, 67, 114
1, 8279, Control_c, 0, 67, 127
1, 8294, Control_c, 0, 64, 42
1, 8320, Note_on_c, 0, 72, 39
1, 8324, Control_c, 0, 64, 42
1, 8333, Note_off_c, 0, 74, 51
1, 8398, Control_c, 0, 64, 42
1, 8413, Control_c, 0, 64, 44
1, 8428, Control_c, 0, 64, 46
1, 8443, Control_c, 0, 64, 48
1, 8458, Control_c, 0, 64, 50
1, 8473, Control_c, 0, 64, 53
1, 8494, Control_c, 0, 64, 56
1, 8509, Control_c, 0, 64, 59
1, 8509, Control_c, 0, 67, 126
1, 8524, Control_c, 0, 64, 61
1, 8524, Control_c, 0, 67, 125
1, 8539, Control_c, 0, 64, 63
1, 8554, Control_c, 0, 64, 65
1, 8568, Control_c, 0, 64, 68
1, 8583, Control_c, 0, 64, 71
1, 8598, Control_c, 0, 64, 75
1, 8613, Control_c, 0, 64, 81
1, 8613, Control_c, 0, 67, 125
1, 8628, Control_c, 0, 64, 88
1, 8643, Control_c, 0, 64, 97
1, 8656, Note_off_c, 0, 72, 33
1, 8658, Control_c, 0, 64, 105
1, 8673, Control_c, 0, 64, 112
1, 8687, Control_c, 0, 64, 114
1, 8776, Control_c, 0, 64, 113
1, 8791, Control_c, 0, 64, 112
1, 8806, Control_c, 0, 64, 111
1, 8820, Control_c, 0, 64, 111
1, 8820, Control_c, 0, 67, 125
1, 8835, Control_c, 0, 64, 110
1, 8850, Control_c, 0, 64, 107
1, 8865, Control_c, 0, 64, 103
1, 8872, Note_on_c, 0, 74, 43
1, 8880, Control_c, 0, 64, 98
1, 8894, Control_c, 0, 64, 91
1, 8909, Control_c, 0, 64, 83
1, 8924, Control_c, 0, 64, 73
1, 8939, Control_c, 0, 64, 65
1, 8954, Control_c, 0, 64, 56
1, 8968, Control_c, 0, 64, 43
1, 8968, Control_c, 0, 67, 126
1, 8983, Control_c, 0, 64, 33
1, 8998, Control_c, 0, 64, 31
1, 9042, Control_c, 0, 64, 32
1, 9057, Control_c, 0, 64, 35
1, 9072, Control_c, 0, 64, 40
1, 9088, Control_c, 0, 64, 47
1, 9103, Control_c, 0, 64, 55
1, 9117, Control_c, 0, 64, 59
1, 9132, Control_c, 0, 64, 62
1, 9147, Control_c, 0, 64, 63
1, 9162, Control_c, 0, 64, 64
1, 9177, Control_c, 0, 64, 65
1, 9191, Control_c, 0, 64, 65
1, 9206, Control_c, 0, 64, 66
1, 9221, Control_c, 0, 64, 67
1, 9243, Control_c, 0, 64, 68
1, 9317, Control_c, 0, 64, 67
1, 9319, Note_on_c, 0, 72, 47
1, 9347, Control_c, 0, 64, 67
1, 9355, Note_off_c, 0, 74, 49
1, 9362, Control_c, 0, 64, 66
1, 9377, Control_c, 0, 64, 66
1, 9391, Control_c, 0, 64, 65
1, 9406, Control_c, 0, 64, 64
1, 9421, Control_c, 0, 64, 62
1, 9430, Note_on_c, 0, 71, 46
1, 9436, Control_c, 0, 64, 60
1, 9451, Control_c, 0, 64, 57
1, 9453, Note_off_c, 0, 72, 53
1, 9465, Control_c, 0, 64, 53
1, 9480, Control_c, 0, 64, 50
1, 9495, Control_c, 0, 64, 48
1, 9510, Control_c, 0, 64, 47
1, 9525, Control_c, 0, 64, 46
1, 9540, Control_c, 0, 64, 43
1, 9555, Control_c, 0, 64, 39
1, 9570, Control_c, 0, 64, 34
1, 9584, Control_c, 0, 64, 31
1, 9599, Control_c, 0, 64, 30
1, 9643, Control_c, 0, 64, 30
1, 9658, Control_c, 0, 64, 29
1, 9942, Note_on_c, 0, 69, 48
1, 9993, Control_c, 0, 64, 29
1, 10062, Note_off_c, 0, 71, 30
1, 10361, Note_on_c, 0, 71, 51
1, 10430, Note_off_c, 0, 69, 36
1, 10494, Note_on_c, 0, 72, 48
1, 10550, Note_off_c, 0, 71, 39
1, 11087, Note_on_c, 0, 74, 37
1, 11144, Note_off_c, 0, 72, 50
1, 11230, Control_c, 0, 64, 32
1, 11245, Control_c, 0, 64, 38
1, 11260, Control_c, 0, 64, 44
1, 11275, Control_c, 0, 64, 51
1, 11289, Control_c, 0, 64, 55
1, 11304, Control_c, 0, 64, 59
1, 11319, Control_c, 0, 64, 61
1, 11334, Control_c, 0, 64, 63
1, 11349, Control_c, 0, 64, 65
1, 11360, Note_off_c, 0, 74, 35
1, 11363, Control_c, 0, 64, 67
1, 11378, Control_c, 0, 64, 70
1, 11393, Control_c, 0, 64, 74
1, 11407, Control_c, 0, 64, 78
1, 11422, Control_c, 0, 64, 81
1, 11437, Control_c, 0, 64, 85
1, 11452, Control_c, 0, 64, 87
1, 11467, Control_c, 0, 64, 87
1, 11609, Control_c, 0, 64, 87
1, 11668, Control_c, 0, 64, 86
1, 11674, Note_on_c, 0, 75, 34
1, 11698, Control_c, 0, 64, 86
1, 11742, Control_c, 0, 64, 85
1, 11757, Control_c, 0, 64, 85
1, 11772, Control_c, 0, 64, 83
1, 11786, Control_c, 0, 64, 82
1, 11801, Control_c, 0, 64, 80
1, 11814, Note_on_c, 0, 74, 43
1, 11816, Control_c, 0, 64, 77
1, 11830, Control_c, 0, 64, 73
1, 11845, Control_c, 0, 64, 69
1, 11860, Control_c, 0, 64, 66
1, 11868, Note_off_c, 0, 75, 32
1, 11875, Control_c, 0, 64, 62
1, 11890, Control_c, 0, 64, 58
1, 11904, Control_c, 0, 64, 55
1, 11919, Control_c, 0, 64, 54
1, 11934, Control_c, 0, 64, 52
1, 11949, Control_c, 0, 64, 50
1, 11964, Control_c, 0, 64, 47
1, 11978, Control_c, 0, 64, 42
1, 11993, Control_c, 0, 64, 37
1, 12008, Control_c, 0, 64, 31
1, 12023, Control_c, 0, 64, 24
1, 12038, Control_c, 0, 64, 12
1, 12053, Control_c, 0, 64, 0
1, 12342, Control_c, 0, 64, 20
1, 12357, Control_c, 0, 64, 31
1, 12372, Control_c, 0, 64, 41
1, 12387, Control_c, 0, 64, 48
1, 12402, Control_c, 0, 64, 52
1, 12417, Control_c, 0, 64, 55
1, 12431, Control_c, 0, 64, 56
1, 12446, Control_c, 0, 64, 57
1, 12461, Control_c, 0, 64, 59
1, 12475, Control_c, 0, 64, 60
1, 12490, Control_c, 0, 64, 60
1, 12505, Control_c, 0, 64, 61
1, 12520, Control_c, 0, 64, 62
1, 12520, Control_c, 0, 67, 125
1, 12534, Control_c, 0, 64, 62
1, 12549, Control_c, 0, 64, 63
1, 12564, Control_c, 0, 64, 64
1, 12579, Control_c, 0, 64, 65
1, 12594, Control_c, 0, 64, 66
1, 12608, Control_c, 0, 64, 67
1, 12623, Control_c, 0, 64, 68
1, 12638, Control_c, 0, 64, 70
1, 12652, Control_c, 0, 64, 71
1, 12652, Control_c, 0, 67, 125
1, 12667, Control_c, 0, 64, 72
1, 12682, Control_c, 0, 64, 74
1, 12697, Control_c, 0, 64, 75
1, 12712, Control_c, 0, 64, 76
1, 12727, Control_c, 0, 64, 77
1, 12727, Control_c, 0, 67, 124
1, 12741, Control_c, 0, 64, 78
1, 12741, Control_c, 0, 67, 124
1, 12756, Control_c, 0, 64, 79
1, 12756, Control_c, 0, 67, 123
1, 12771, Control_c, 0, 64, 79
1, 12771, Control_c, 0, 67, 122
1, 12786, Control_c, 0, 67, 122
1, 12801, Control_c, 0, 67, 121
1, 12816, Control_c, 0, 64, 80
1, 12816, Control_c, 0, 67, 120
1, 12831, Control_c, 0, 67, 120
1, 12846, Control_c, 0, 67, 119
1, 12860, Control_c, 0, 67, 117
1, 12875, Control_c, 0, 67, 115
1, 12890, Control_c, 0, 67, 114
1, 12905, Control_c, 0, 67, 113
1, 12920, Control_c, 0, 67, 112
1, 12934, Control_c, 0, 67, 112
1, 13031, Control_c, 0, 67, 112
1, 13046, Control_c, 0, 67, 114
1, 13057, Note_off_c, 0, 74, 36
1, 13060, Control_c, 0, 67, 114
1, 13075, Control_c, 0, 67, 115
1, 13090, Control_c, 0, 67, 116
1, 13105, Control_c, 0, 67, 117
1, 13120, Control_c, 0, 67, 118
1, 13135, Control_c, 0, 67, 119
1, 13150, Control_c, 0, 67, 120
1, 13165, Control_c, 0, 64, 79
1, 13165, Control_c, 0, 67, 122
1, 13180, Control_c, 0, 67, 124
1, 13195, Control_c, 0, 67, 125
1, 13209, Control_c, 0, 67, 127
1, 13282, Control_c, 0, 64, 79
1, 13312, Control_c, 0, 64, 78
1, 13327, Control_c, 0, 64, 78
1, 13342, Control_c, 0, 64, 77
1, 13356, Control_c, 0, 64, 77
1, 13371, Control_c, 0, 64, 75
1, 13386, Control_c, 0, 64, 72
1, 13401, Control_c, 0, 64, 69
1, 13416, Control_c, 0, 64, 66
1, 13430, Control_c, 0, 64, 64
1, 13445, Control_c, 0, 64, 61
1, 13460, Control_c, 0, 64, 59
1, 13475, Control_c, 0, 64, 57
1, 13490, Control_c, 0, 64, 56
1, 13505, Control_c, 0, 64, 55
1, 13520, Control_c, 0, 64, 53
1, 13534, Control_c, 0, 64, 51
1, 13549, Control_c, 0, 64, 49
1, 13564, Control_c, 0, 64, 47
1, 13579, Control_c, 0, 64, 44
1, 13594, Control_c, 0, 64, 42
1, 13608, Control_c, 0, 64, 40
1, 13623, Control_c, 0, 64, 39
1, 13638, Control_c, 0, 64, 38
1, 13682, Control_c, 0, 64, 39
1, 13686, Note_on_c, 0, 71, 46
1, 13693, Note_on_c, 0, 67, 37
1, 13695, Note_on_c, 0, 55, 40
1, 13697, Control_c, 0, 64, 43
1, 13704, Note_on_c, 0, 62, 38
1, 13712, Control_c, 0, 64, 49
1, 13734, Control_c, 0, 64, 56
1, 13749, Control_c, 0, 64, 61
1, 13764, Control_c, 0, 64, 65
1, 13779, Control_c, 0, 64, 69
1, 13794, Control_c, 0, 64, 74
1, 13808, Control_c, 0, 64, 82
1, 13809, Note_off_c, 0, 55, 56
1, 13814, Note_off_c, 0, 71, 60
1, 13823, Note_off_c, 0, 67, 56
1, 13823, Control_c, 0, 64, 94
1, 13825, Note_off_c, 0, 62, 61
1, 13838, Control_c, 0, 64, 116
1, 13853, Control_c, 0, 64, 127
1, 13853, Control_c, 0, 67, 122
1, 13868, Control_c, 0, 67, 119
1, 13883, Control_c, 0, 67, 117
1, 13898, Control_c, 0, 67, 116
1, 13958, Control_c, 0, 67, 117
1, 13973, Control_c, 0, 67, 117
1, 13987, Control_c, 0, 67, 118
1, 14002, Control_c, 0, 67, 119
1, 14017, Control_c, 0, 67, 120
1, 14044, Note_on_c, 0, 63, 56
1, 14046, Control_c, 0, 67, 120
1, 14052, Note_on_c, 0, 72, 58
1, 14056, Note_on_c, 0, 55, 49
1, 14071, Note_on_c, 0, 67, 36
1, 14075, Note_off_c, 0, 63, 65
1, 14076, Control_c, 0, 67, 121
1, 14103, Note_off_c, 0, 55, 58
1, 14105, Control_c, 0, 67, 122
1, 14131, Note_off_c, 0, 67, 0
1, 14162, Note_on_c, 0, 74, 63
1, 14165, Control_c, 0, 64, 107
1, 14168, Poly_aftertouch_c, 0, 67, 127
1, 14177, Note_on_c, 0, 65, 54
1, 14179, Control_c, 0, 64, 91
1, 14180, Note_off_c, 0, 72, 35
1, 14182, Note_on_c, 0, 55, 49
1, 14194, Control_c, 0, 64, 78
1, 14209, Control_c, 0, 64, 69
1, 14223, Control_c, 0, 64, 61
1, 14238, Control_c, 0, 64, 53
1, 14253, Control_c, 0, 64, 49
1, 14268, Control_c, 0, 64, 48
1, 14283, Control_c, 0, 64, 48
1, 14283, Control_c, 0, 67, 121
1, 14288, Note_off_c, 0, 55, 46
1, 14298, Control_c, 0, 64, 47
1, 14312, Control_c, 0, 64, 46
1, 14321, Note_off_c, 0, 65, 55
1, 14327, Control_c, 0, 64, 42
1, 14327, Control_c, 0, 67, 120
1, 14330, Poly_aftertouch_c, 0, 67, 0
1, 14339, Note_off_c, 0, 74, 56
1, 14342, Control_c, 0, 64, 38
1, 14357, Control_c, 0, 64, 34
1, 14372, Control_c, 0, 64, 31
1, 14387, Control_c, 0, 64, 30
1, 14402, Control_c, 0, 64, 30
1, 14431, Control_c, 0, 64, 29
1, 14542, Control_c, 0, 64, 30
1, 14557, Control_c, 0, 64, 32
1, 14572, Control_c, 0, 64, 34
1, 14587, Control_c, 0, 64, 39
1, 14602, Control_c, 0, 64, 46
1, 14616, Control_c, 0, 64, 53
1, 14631, Control_c, 0, 64, 57
1, 14634, Note_on_c, 0, 74, 55
1, 14646, Control_c, 0, 64, 61
1, 14652, Note_on_c, 0, 67, 41
1, 14653, Note_on_c, 0, 65, 41
1, 14655, Note_on_c, 0, 55, 34
1, 14661, Control_c, 0, 64, 63
1, 14676, Control_c, 0, 64, 65
1, 14676, Control_c, 0, 67, 120
1, 14691, Control_c, 0, 64, 67
1, 14706, Control_c, 0, 64, 70
1, 14706, Control_c, 0, 67, 119
1, 14722, Control_c, 0, 64, 75
1, 14736, Control_c, 0, 64, 80
1, 14751, Control_c, 0, 64, 87
1, 14761, Note_off_c, 0, 55, 50
1, 14765, Note_off_c, 0, 67, 53
1, 14766, Control_c, 0, 64, 94
1, 14778, Note_off_c, 0, 65, 56
1, 14781, Control_c, 0, 64, 102
1, 14784, Note_off_c, 0, 74, 55
1, 14796, Control_c, 0, 64, 104
1, 14810, Control_c, 0, 64, 104
1, 14825, Control_c, 0, 64, 101
1, 14840, Control_c, 0, 64, 99
1, 14855, Control_c, 0, 64, 97
1, 14870, Control_c, 0, 64, 94
1, 14885, Control_c, 0, 64, 91
1, 14900, Control_c, 0, 64, 88
1, 14915, Control_c, 0, 64, 83
1, 14915, Control_c, 0, 67, 120
1, 14929, Control_c, 0, 64, 77
1, 14944, Control_c, 0, 64, 72
1, 14959, Control_c, 0, 64, 67
1, 14974, Control_c, 0, 64, 62
1, 14989, Control_c, 0, 64, 58
1, 15003, Control_c, 0, 64, 54
1, 15018, Control_c, 0, 64, 51
1, 15033, Control_c, 0, 64, 48
1, 15047, Control_c, 0, 64, 44
1, 15062, Control_c, 0, 64, 37
1, 15077, Control_c, 0, 64, 29
1, 15092, Control_c, 0, 64, 24
1, 15102, Note_on_c, 0, 74, 59
1, 15107, Control_c, 0, 64, 24
1, 15115, Note_on_c, 0, 67, 48
1, 15117, Note_on_c, 0, 65, 51
1, 15120, Note_on_c, 0, 55, 45
1, 15121, Control_c, 0, 64, 24
1, 15136, Control_c, 0, 64, 30
1, 15151, Control_c, 0, 64, 39
1, 15166, Control_c, 0, 64, 48
1, 15181, Control_c, 0, 64, 57
1, 15195, Control_c, 0, 64, 61
1, 15210, Control_c, 0, 64, 64
1, 15231, Note_off_c, 0, 55, 56
1, 15233, Control_c, 0, 64, 67
1, 15248, Control_c, 0, 64, 70
1, 15262, Control_c, 0, 64, 74
1, 15268, Note_off_c, 0, 65, 58
1, 15277, Control_c, 0, 64, 77
1, 15291, Note_off_c, 0, 67, 35
1, 15292, Control_c, 0, 64, 81
1, 15304, Note_off_c, 0, 74, 58
1, 15307, Control_c, 0, 64, 83
1, 15322, Control_c, 0, 64, 85
1, 15336, Control_c, 0, 64, 85
1, 15381, Control_c, 0, 64, 85
1, 15410, Control_c, 0, 64, 84
1, 15410, Control_c, 0, 67, 120
1, 15425, Control_c, 0, 64, 84
1, 15440, Control_c, 0, 64, 83
1, 15454, Control_c, 0, 64, 81
1, 15469, Control_c, 0, 64, 80
1, 15485, Control_c, 0, 64, 77
1, 15500, Control_c, 0, 64, 72
1, 15515, Control_c, 0, 64, 66
1, 15530, Control_c, 0, 64, 55
1, 15545, Control_c, 0, 64, 35
1, 15559, Control_c, 0, 64, 16
1, 15574, Control_c, 0, 64, 15
1, 15578, Note_on_c, 0, 72, 60
1, 15582, Note_on_c, 0, 55, 44
1, 15588, Note_on_c, 0, 63, 49
1, 15591, Note_on_c, 0, 67, 50
1, 15604, Control_c, 0, 64, 17
1, 15619, Control_c, 0, 64, 27
1, 15619, Control_c, 0, 67, 121
1, 15633, Control_c, 0, 64, 38
1, 15648, Control_c, 0, 64, 50
1, 15663, Control_c, 0, 64, 59
1, 15678, Control_c, 0, 64, 63
1, 15684, Note_off_c, 0, 63, 60
1, 15693, Control_c, 0, 64, 66
1, 15702, Note_off_c, 0, 55, 56
1, 15707, Control_c, 0, 64, 70
1, 15722, Control_c, 0, 64, 74
1, 15725, Note_off_c, 0, 67, 58
1, 15737, Control_c, 0, 64, 79
1, 15752, Control_c, 0, 64, 84
1, 15761, Note_off_c, 0, 72, 52
1, 15767, Control_c, 0, 64, 89
1, 15782, Control_c, 0, 64, 93
1, 15797, Control_c, 0, 64, 97
1, 15812, Control_c, 0, 64, 99
1, 15958, Note_on_c, 0, 74, 60
1, 15959, Note_on_c, 0, 55, 50
1, 15964, Note_on_c, 0, 65, 56
1, 15997, Control_c, 0, 64, 97
1, 16001, Note_off_c, 0, 65, 62
1, 16012, Control_c, 0, 64, 95
1, 16017, Note_off_c, 0, 55, 57
1, 16026, Note_off_c, 0, 74, 49
1, 16026, Control_c, 0, 64, 93
1, 16041, Control_c, 0, 64, 91
1, 16056, Control_c, 0, 64, 89
1, 16070, Control_c, 0, 64, 85
1, 16085, Control_c, 0, 64, 77
1, 16086, Note_on_c, 0, 75, 66
1, 16100, Control_c, 0, 64, 70
1, 16104, Note_off_c, 0, 75, 58
1, 16115, Control_c, 0, 64, 64
1, 16117, Note_on_c, 0, 55, 38
1, 16117, Note_on_c, 0, 67, 44
1, 16130, Control_c, 0, 64, 58
1, 16144, Control_c, 0, 64, 52
1, 16159, Control_c, 0, 64, 48
1, 16161, Note_on_c, 0, 74, 15
1, 16174, Control_c, 0, 64, 45
1, 16189, Control_c, 0, 64, 41
1, 16204, Control_c, 0, 64, 33
1, 16219, Control_c, 0, 64, 16
1, 16233, Control_c, 0, 64, 0
1, 16382, Control_c, 0, 64, 27
1, 16383, Note_off_c, 0, 55, 60
1, 16397, Control_c, 0, 64, 41
1, 16397, Control_c, 0, 67, 122
1, 16412, Control_c, 0, 64, 52
1, 16427, Control_c, 0, 64, 58
1, 16442, Control_c, 0, 64, 61
1, 16456, Control_c, 0, 64, 63
1, 16471, Control_c, 0, 64, 63
1, 16486, Control_c, 0, 64, 64
1, 16530, Control_c, 0, 64, 63
1, 16545, Control_c, 0, 64, 63
1, 16560, Control_c, 0, 64, 61
1, 16575, Control_c, 0, 64, 56
1, 16575, Control_c, 0, 67, 121
1, 16584, Note_on_c, 0, 57, 52
1, 16590, Control_c, 0, 64, 47
1, 16605, Control_c, 0, 64, 30
1, 16620, Control_c, 0, 64, 12
1, 16635, Control_c, 0, 64, 11
1, 16648, Note_off_c, 0, 74, 39
1, 16649, Control_c, 0, 64, 19
1, 16664, Control_c, 0, 64, 30
1, 16679, Control_c, 0, 64, 40
1, 16693, Control_c, 0, 64, 51
1, 16708, Control_c, 0, 64, 59
1, 16730, Control_c, 0, 64, 63
1, 16741, Note_off_c, 0, 67, 55
1, 16745, Control_c, 0, 64, 66
1, 16760, Control_c, 0, 64, 69
1, 16775, Control_c, 0, 64, 72
1, 16779, Note_off_c, 0, 57, 55
1, 16790, Control_c, 0, 64, 76
1, 16804, Control_c, 0, 64, 81
1, 16819, Control_c, 0, 64, 86
1, 16834, Control_c, 0, 64, 91
1, 16849, Control_c, 0, 64, 94
1, 16849, Control_c, 0, 67, 120
1, 16864, Control_c, 0, 64, 94
1, 16938, Control_c, 0, 67, 120
1, 16951, Note_on_c, 0, 74, 63
1, 16954, Note_on_c, 0, 59, 43
1, 16960, Note_on_c, 0, 65, 60
1, 16979, Note_on_c, 0, 67, 40
1, 16982, Control_c, 0, 64, 94
1, 16982, Control_c, 0, 67, 119
1, 16983, Note_off_c, 0, 65, 62
1, 16997, Control_c, 0, 64, 93
1, 17012, Control_c, 0, 64, 92
1, 17017, Note_off_c, 0, 67, 46
1, 17019, Note_off_c, 0, 74, 60
1, 17026, Control_c, 0, 64, 91
1, 17028, Note_off_c, 0, 59, 50
1, 17041, Control_c, 0, 64, 88
1, 17056, Control_c, 0, 64, 85
1, 17056, Control_c, 0, 67, 119
1, 17072, Control_c, 0, 64, 78
1, 17073, Note_on_c, 0, 72, 60
1, 17079, Note_on_c, 0, 60, 52
1, 17080, Note_on_c, 0, 67, 45
1, 17087, Control_c, 0, 64, 69
1, 17087, Control_c, 0, 67, 118
1, 17091, Note_on_c, 0, 63, 56
1, 17102, Control_c, 0, 64, 58
1, 17116, Control_c, 0, 64, 15
1, 17131, Control_c, 0, 64, 0
1, 17191, Control_c, 0, 67, 117
1, 17220, Control_c, 0, 67, 116
1, 17235, Control_c, 0, 64, 35
1, 17235, Control_c, 0, 67, 115
1, 17243, Note_off_c, 0, 67, 58
1, 17250, Control_c, 0, 64, 52
1, 17250, Control_c, 0, 67, 115
1, 17265, Control_c, 0, 64, 60
1, 17279, Control_c, 0, 64, 64
1, 17279, Control_c, 0, 67, 114
1, 17294, Control_c, 0, 64, 69
1, 17294, Control_c, 0, 67, 114
1, 17309, Control_c, 0, 64, 76
1, 17309, Control_c, 0, 67, 113
1, 17323, Control_c, 0, 64, 84
1, 17329, Note_off_c, 0, 63, 62
1, 17338, Control_c, 0, 64, 94
1, 17338, Control_c, 0, 67, 112
1, 17353, Control_c, 0, 64, 110
1, 17353, Control_c, 0, 67, 112
1, 17368, Control_c, 0, 64, 127
1, 17368, Control_c, 0, 67, 111
1, 17413, Control_c, 0, 67, 110
1, 17419, Note_off_c, 0, 60, 31
1, 17446, Note_off_c, 0, 72, 37
1, 17612, Control_c, 0, 67, 111
1, 17627, Control_c, 0, 64, 106
1, 17627, Control_c, 0, 67, 112
1, 17642, Note_on_c, 0, 74, 62
1, 17642, Control_c, 0, 64, 89
1, 17642, Control_c, 0, 67, 112
1, 17653, Note_on_c, 0, 68, 55
1, 17656, Note_on_c, 0, 65, 48
1, 17657, Control_c, 0, 64, 75
1, 17657, Control_c, 0, 67, 113
1, 17672, Control_c, 0, 64, 62
1, 17676, Note_on_c, 0, 53, 41
1, 17687, Control_c, 0, 64, 41
1, 17687, Control_c, 0, 67, 114
1, 17702, Control_c, 0, 64, 0
1, 17702, Control_c, 0, 67, 115
1, 17775, Control_c, 0, 64, 27
1, 17775, Control_c, 0, 67, 115
1, 17790, Control_c, 0, 64, 44
1, 17790, Control_c, 0, 67, 116
1, 17804, Control_c, 0, 64, 56
1, 17804, Control_c, 0, 67, 117
1, 17819, Control_c, 0, 64, 62
1, 17819, Control_c, 0, 67, 117
1, 17824, Note_off_c, 0, 74, 57
1, 17834, Control_c, 0, 64, 65
1, 17834, Control_c, 0, 67, 119
1, 17844, Note_off_c, 0, 65, 62
1, 17848, Control_c, 0, 64, 69
1, 17848, Control_c, 0, 67, 119
1, 17865, Note_off_c, 0, 53, 41
1, 17865, Control_c, 0, 64, 75
1, 17865, Control_c, 0, 67, 120
1, 17869, Note_off_c, 0, 68, 55
1, 17880, Control_c, 0, 64, 81
1, 17880, Control_c, 0, 67, 120
1, 17894, Control_c, 0, 64, 89
1, 17894, Control_c, 0, 67, 121
1, 17909, Control_c, 0, 64, 99
1, 17924, Control_c, 0, 64, 111
1, 17924, Control_c, 0, 67, 122
1, 17938, Control_c, 0, 64, 127
1, 17953, Control_c, 0, 67, 123
1, 17968, Control_c, 0, 67, 124
1, 17983, Control_c, 0, 67, 125
1, 17998, Control_c, 0, 67, 125
1, 18027, Control_c, 0, 67, 127
1, 18042, Control_c, 0, 67, 127
1, 18065, Note_on_c, 0, 72, 55
1, 18067, Note_on_c, 0, 68, 42
1, 18069, Note_on_c, 0, 63, 50
1, 18095, Note_on_c, 0, 53, 30
1, 18104, Note_off_c, 0, 63, 65
1, 18109, Note_off_c, 0, 68, 59
1, 18143, Note_off_c, 0, 53, 55
1, 18146, Control_c, 0, 64, 106
1, 18161, Control_c, 0, 64, 89
1, 18176, Control_c, 0, 64, 76
1, 18176, Note_on_c, 0, 71, 53
1, 18187, Note_on_c, 0, 67, 53
1, 18188, Note_on_c, 0, 55, 46
1, 18191, Control_c, 0, 64, 66
1, 18205, Control_c, 0, 64, 55
1, 18207, Note_on_c, 0, 62, 37
1, 18227, Control_c, 0, 64, 34
1, 18235, Note_off_c, 0, 72, 24
1, 18242, Control_c, 0, 64, 0
1, 18390, Control_c, 0, 64, 32
1, 18405, Control_c, 0, 64, 50
1, 18420, Control_c, 0, 64, 61
1, 18435, Control_c, 0, 64, 65
1, 18450, Control_c, 0, 64, 69
1, 18465, Control_c, 0, 64, 73
1, 18480, Control_c, 0, 64, 79
1, 18495, Control_c, 0, 64, 85
1, 18498, Note_off_c, 0, 62, 55
1, 18510, Control_c, 0, 64, 95
1, 18524, Control_c, 0, 64, 107
1, 18539, Control_c, 0, 64, 127
1, 18560, Note_off_c, 0, 67, 29
1, 18623, Note_off_c, 0, 71, 39
1, 18698, Note_on_c, 0, 69, 53
1, 18703, Control_c, 0, 64, 107
1, 18706, Note_on_c, 0, 60, 47
1, 18707, Note_on_c, 0, 67, 39
1, 18718, Control_c, 0, 64, 92
1, 18733, Control_c, 0, 64, 77
1, 18748, Control_c, 0, 64, 65
1, 18762, Control_c, 0, 64, 48
1, 18777, Control_c, 0, 64, 9
1, 18792, Control_c, 0, 64, 0
1, 18807, Control_c, 0, 64, 16
1, 18822, Control_c, 0, 64, 31
1, 18836, Control_c, 0, 64, 45
1, 18851, Control_c, 0, 64, 56
1, 18866, Control_c, 0, 64, 61
1, 18881, Control_c, 0, 64, 65
1, 18895, Control_c, 0, 64, 68
1, 18904, Note_off_c, 0, 60, 52
1, 18905, Note_off_c, 0, 67, 35
1, 18910, Control_c, 0, 64, 71
1, 18925, Control_c, 0, 64, 74
1, 18940, Control_c, 0, 64, 78
1, 18955, Control_c, 0, 64, 83
1, 18977, Control_c, 0, 64, 91
1, 18992, Control_c, 0, 64, 96
1, 19007, Control_c, 0, 64, 99
1, 19010, Note_off_c, 0, 55, 30
1, 19022, Control_c, 0, 64, 99
1, 19054, Note_off_c, 0, 69, 50
1, 19090, Note_on_c, 0, 71, 58
1, 19097, Note_on_c, 0, 53, 50
1, 19106, Note_on_c, 0, 60, 41
1, 19134, Note_on_c, 0, 55, 6
1, 19139, Note_off_c, 0, 60, 54
1, 19140, Control_c, 0, 64, 99
1, 19142, Note_on_c, 0, 67, 7
1, 19151, Note_off_c, 0, 53, 54
1, 19155, Control_c, 0, 64, 97
1, 19161, Note_off_c, 0, 71, 55
1, 19169, Control_c, 0, 64, 96
1, 19184, Control_c, 0, 64, 94
1, 19199, Control_c, 0, 64, 90
1, 19201, Note_on_c, 0, 72, 60
1, 19214, Control_c, 0, 64, 85
1, 19219, Note_off_c, 0, 55, 0
1, 19229, Control_c, 0, 64, 77
1, 19233, Note_on_c, 0, 60, 48
1, 19234, Note_on_c, 0, 51, 52
1, 19243, Note_on_c, 0, 55, 11
1, 19244, Control_c, 0, 64, 68
1, 19258, Control_c, 0, 64, 54
1, 19273, Control_c, 0, 64, 28
1, 19288, Control_c, 0, 64, 0
1, 19347, Control_c, 0, 64, 26
1, 19362, Control_c, 0, 64, 40
1, 19377, Control_c, 0, 64, 52
1, 19392, Control_c, 0, 64, 59
1, 19407, Control_c, 0, 64, 63
1, 19421, Control_c, 0, 64, 66
1, 19431, Note_off_c, 0, 60, 53
1, 19436, Control_c, 0, 64, 70
1, 19451, Control_c, 0, 64, 75
1, 19460, Note_off_c, 0, 51, 57
1, 19466, Control_c, 0, 64, 82
1, 19481, Control_c, 0, 64, 91
1, 19488, Note_off_c, 0, 67, 45
1, 19496, Control_c, 0, 64, 101
1, 19511, Control_c, 0, 64, 112
1, 19526, Control_c, 0, 64, 127
1, 19526, Note_off_c, 0, 72, 63
1, 19642, Note_off_c, 0, 55, 27
1, 19904, Control_c, 0, 64, 115
1, 19911, Note_on_c, 0, 75, 61
1, 19918, Control_c, 0, 64, 103
1, 19925, Note_on_c, 0, 67, 46
1, 19933, Control_c, 0, 64, 89
1, 19946, Note_on_c, 0, 43, 44
1, 19948, Control_c, 0, 64, 74
1, 19963, Control_c, 0, 64, 63
1, 19978, Control_c, 0, 64, 45
1, 19991, Note_on_c, 0, 55, 3
1, 19993, Control_c, 0, 64, 21
1, 20022, Control_c, 0, 64, 30
1, 20037, Control_c, 0, 64, 43
1, 20052, Control_c, 0, 64, 54
1, 20066, Control_c, 0, 64, 61
1, 20081, Control_c, 0, 64, 65
1, 20096, Control_c, 0, 64, 70
1, 20111, Control_c, 0, 64, 75
1, 20125, Control_c, 0, 64, 82
1, 20133, Note_off_c, 0, 75, 60
1, 20140, Control_c, 0, 64, 92
1, 20155, Control_c, 0, 64, 107
1, 20156, Note_off_c, 0, 43, 33
1, 20170, Control_c, 0, 64, 127
1, 20174, Note_off_c, 0, 55, 38
1, 20184, Note_off_c, 0, 67, 58
1, 20458, Note_on_c, 0, 43, 37
1, 20468, Note_on_c, 0, 74, 56
1, 20471, Note_on_c, 0, 55, 35
1, 20484, Note_on_c, 0, 65, 41
1, 20489, Note_on_c, 0, 67, 35
1, 20511, Note_off_c, 0, 65, 53
1, 20549, Note_off_c, 0, 74, 61
1, 20593, Note_off_c, 0, 43, 34
1, 20595, Note_off_c, 0, 67, 0
1, 20608, Control_c, 0, 64, 110
1, 20614, Note_on_c, 0, 67, 23
1, 20623, Control_c, 0, 64, 94
1, 20625, Note_on_c, 0, 72, 55
1, 20632, Note_on_c, 0, 48, 38
1, 20638, Control_c, 0, 64, 82
1, 20643, Note_on_c, 0, 63, 38
1, 20653, Control_c, 0, 64, 71
1, 20667, Control_c, 0, 64, 64
1, 20682, Control_c, 0, 64, 56
1, 20697, Control_c, 0, 64, 50
1, 20712, Control_c, 0, 64, 46
1, 20727, Control_c, 0, 64, 45
1, 20742, Control_c, 0, 64, 41
1, 20756, Control_c, 0, 64, 30
1, 20771, Control_c, 0, 64, 0
1, 21327, Control_c, 0, 64, 20
1, 21342, Control_c, 0, 64, 33
1, 21357, Control_c, 0, 64, 42
1, 21371, Control_c, 0, 64, 50
1, 21386, Control_c, 0, 64, 55
1, 21401, Control_c, 0, 64, 59
1, 21416, Control_c, 0, 64, 61
1, 21431, Control_c, 0, 64, 62
1, 21446, Control_c, 0, 64, 63
1, 21460, Control_c, 0, 64, 64
1, 21475, Control_c, 0, 64, 66
1, 21490, Control_c, 0, 64, 68
1, 21504, Control_c, 0, 64, 71
1, 21519, Control_c, 0, 64, 74
1, 21534, Control_c, 0, 64, 79
1, 21549, Control_c, 0, 64, 83
1, 21563, Control_c, 0, 64, 88
1, 21578, Control_c, 0, 64, 95
1, 21593, Control_c, 0, 64, 103
1, 21608, Control_c, 0, 64, 114
1, 21623, Control_c, 0, 64, 127
1, 21721, Note_off_c, 0, 55, 37
1, 21723, Note_off_c, 0, 63, 38
1, 21763, Note_off_c, 0, 67, 39
1, 21785, Note_off_c, 0, 72, 31
1, 21875, Note_off_c, 0, 48, 53
1, 22312, Control_c, 0, 64, 118
1, 22327, Control_c, 0, 64, 104
1, 22342, Control_c, 0, 64, 95
1, 22357, Control_c, 0, 64, 87
1, 22372, Control_c, 0, 64, 79
1, 22386, Control_c, 0, 64, 73
1, 22401, Control_c, 0, 64, 68
1, 22416, Control_c, 0, 64, 64
1, 22431, Control_c, 0, 64, 63
1, 22446, Control_c, 0, 64, 62
1, 22460, Control_c, 0, 64, 62
1, 22505, Control_c, 0, 64, 61
1, 22519, Control_c, 0, 64, 61
1, 22534, Control_c, 0, 64, 60
1, 22549, Control_c, 0, 64, 59
1, 22564, Control_c, 0, 64, 59
1, 22579, Control_c, 0, 64, 58
1, 22593, Control_c, 0, 64, 57
1, 22608, Control_c, 0, 64, 56
1, 22623, Control_c, 0, 64, 56
1, 22635, Note_on_c, 0, 74, 50
1, 22638, Control_c, 0, 64, 55
1, 22653, Control_c, 0, 64, 54
1, 22669, Control_c, 0, 64, 52
1, 22683, Control_c, 0, 64, 51
1, 22698, Control_c, 0, 64, 50
1, 22721, Control_c, 0, 64, 49
1, 22736, Control_c, 0, 64, 47
1, 22750, Control_c, 0, 64, 46
1, 22765, Control_c, 0, 64, 45
1, 22780, Control_c, 0, 64, 44
1, 22795, Control_c, 0, 64, 44
1, 22810, Control_c, 0, 64, 43
1, 22824, Control_c, 0, 64, 42
1, 22824, Control_c, 0, 67, 121
1, 22839, Control_c, 0, 64, 42
1, 22839, Control_c, 0, 67, 109
1, 22854, Control_c, 0, 64, 41
1, 22854, Control_c, 0, 67, 99
1, 22869, Control_c, 0, 64, 41
1, 22869, Control_c, 0, 67, 90
1, 22884, Control_c, 0, 67, 82
1, 22898, Control_c, 0, 67, 76
1, 22913, Control_c, 0, 67, 71
1, 22928, Control_c, 0, 64, 40
1, 22928, Control_c, 0, 67, 68
1, 22942, Control_c, 0, 67, 66
1, 22957, Control_c, 0, 67, 65
1, 23018, Note_on_c, 0, 75, 54
1, 23076, Note_off_c, 0, 74, 58
1, 23132, Note_on_c, 0, 77, 59
1, 23135, Note_off_c, 0, 75, 63
1, 23135, Control_c, 0, 64, 40
1, 23150, Control_c, 0, 64, 38
1, 23165, Control_c, 0, 64, 32
1, 23180, Control_c, 0, 64, 24
1, 23195, Control_c, 0, 64, 12
1, 23209, Control_c, 0, 64, 0
1, 23269, Control_c, 0, 64, 13
1, 23283, Control_c, 0, 64, 30
1, 23298, Control_c, 0, 64, 44
1, 23313, Control_c, 0, 64, 56
1, 23328, Control_c, 0, 64, 62
1, 23342, Control_c, 0, 64, 65
1, 23342, Control_c, 0, 67, 65
1, 23357, Control_c, 0, 64, 69
1, 23372, Control_c, 0, 64, 74
1, 23387, Control_c, 0, 64, 81
1, 23387, Control_c, 0, 67, 64
1, 23402, Control_c, 0, 64, 89
1, 23404, Note_off_c, 0, 77, 50
1, 23416, Control_c, 0, 64, 100
1, 23416, Control_c, 0, 67, 63
1, 23431, Control_c, 0, 64, 127
1, 23470, Control_c, 0, 67, 63
1, 23500, Control_c, 0, 67, 62
1, 23529, Control_c, 0, 67, 61
1, 23544, Control_c, 0, 67, 60
1, 23558, Control_c, 0, 67, 60
1, 23573, Control_c, 0, 67, 56
1, 23588, Control_c, 0, 67, 39
1, 23603, Control_c, 0, 67, 20
1, 23618, Control_c, 0, 67, 8
1, 23633, Control_c, 0, 67, 0
1, 23641, Note_on_c, 0, 77, 62
1, 23792, Note_off_c, 0, 77, 56
1, 24135, Note_on_c, 0, 77, 61
1, 24638, Note_on_c, 0, 75, 61
1, 24705, Note_off_c, 0, 77, 53
1, 24707, Control_c, 0, 64, 107
1, 24721, Control_c, 0, 64, 98
1, 24736, Control_c, 0, 64, 90
1, 24751, Control_c, 0, 64, 82
1, 24766, Control_c, 0, 64, 77
1, 24780, Control_c, 0, 64, 72
1, 24795, Control_c, 0, 64, 68
1, 24810, Control_c, 0, 64, 65
1, 24825, Control_c, 0, 64, 63
1, 24840, Control_c, 0, 64, 62
1, 24854, Control_c, 0, 64, 61
1, 24869, Control_c, 0, 64, 60
1, 24884, Control_c, 0, 64, 59
1, 24899, Control_c, 0, 64, 58
1, 24913, Control_c, 0, 64, 56
1, 24928, Control_c, 0, 64, 55
1, 24943, Control_c, 0, 64, 54
1, 24966, Control_c, 0, 64, 53
1, 24981, Control_c, 0, 64, 52
1, 24995, Control_c, 0, 64, 51
1, 25010, Control_c, 0, 64, 51
1, 25025, Control_c, 0, 64, 50
1, 25040, Control_c, 0, 64, 49
1, 25055, Control_c, 0, 64, 48
1, 25071, Control_c, 0, 64, 47
1, 25081, Note_on_c, 0, 74, 58
1, 25085, Control_c, 0, 64, 47
1, 25100, Control_c, 0, 64, 46
1, 25115, Control_c, 0, 64, 46
1, 25148, Note_off_c, 0, 75, 53
1, 25233, Control_c, 0, 64, 45
1, 25257, Note_on_c, 0, 79, 58
1, 25348, Note_off_c, 0, 74, 57
1, 26062, Note_on_c, 0, 77, 44
1, 26129, Note_off_c, 0, 79, 57
1, 26341, Note_on_c, 0, 75, 44
1, 26370, Note_off_c, 0, 77, 51
1, 26507, Control_c, 0, 64, 47
1, 26522, Control_c, 0, 64, 50
1, 26537, Control_c, 0, 64, 53
1, 26552, Control_c, 0, 64, 57
1, 26567, Control_c, 0, 64, 60
1, 26582, Control_c, 0, 64, 62
1, 26597, Control_c, 0, 64, 64
1, 26612, Control_c, 0, 64, 66
1, 26624, Note_off_c, 0, 75, 49
1, 26627, Control_c, 0, 64, 68
1, 26641, Control_c, 0, 64, 71
1, 26656, Control_c, 0, 64, 74
1, 26656, Control_c, 0, 67, 8
1, 26671, Control_c, 0, 64, 78
1, 26686, Control_c, 0, 64, 82
1, 26686, Control_c, 0, 67, 9
1, 26702, Control_c, 0, 64, 86
1, 26702, Control_c, 0, 67, 9
1, 26717, Control_c, 0, 64, 88
1, 26731, Control_c, 0, 64, 91
1, 26731, Control_c, 0, 67, 10
1, 26746, Control_c, 0, 64, 92
1, 26761, Control_c, 0, 64, 92
1, 26776, Control_c, 0, 64, 93
1, 26776, Control_c, 0, 67, 11
1, 26805, Control_c, 0, 67, 11
1, 26850, Control_c, 0, 67, 12
1, 26895, Control_c, 0, 64, 92
1, 26910, Control_c, 0, 64, 92
1, 26925, Control_c, 0, 64, 91
1, 26927, Note_on_c, 0, 74, 50
1, 26939, Control_c, 0, 64, 89
1, 26939, Control_c, 0, 67, 13
1, 26954, Control_c, 0, 64, 87
1, 26969, Control_c, 0, 64, 83
1, 26983, Control_c, 0, 64, 75
1, 26998, Control_c, 0, 64, 67
1, 27013, Control_c, 0, 64, 59
1, 27028, Control_c, 0, 64, 48
1, 27043, Control_c, 0, 64, 42
1, 27072, Control_c, 0, 64, 44
1, 27087, Control_c, 0, 64, 47
1, 27101, Control_c, 0, 64, 51
1, 27116, Control_c, 0, 64, 55
1, 27131, Control_c, 0, 64, 59
1, 27146, Control_c, 0, 64, 62
1, 27161, Control_c, 0, 64, 64
1, 27161, Control_c, 0, 67, 13
1, 27175, Control_c, 0, 64, 66
1, 27190, Control_c, 0, 64, 68
1, 27213, Control_c, 0, 64, 70
1, 27228, Control_c, 0, 64, 72
1, 27228, Control_c, 0, 67, 14
1, 27243, Control_c, 0, 64, 75
1, 27257, Control_c, 0, 64, 78
1, 27272, Control_c, 0, 64, 82
1, 27287, Control_c, 0, 64, 85
1, 27287, Control_c, 0, 67, 14
1, 27288, Note_off_c, 0, 74, 23
1, 27302, Control_c, 0, 64, 87
1, 27316, Control_c, 0, 64, 88
1, 27358, Note_on_c, 0, 72, 52
1, 27390, Control_c, 0, 67, 20
1, 27405, Control_c, 0, 67, 28
1, 27420, Control_c, 0, 64, 87
1, 27420, Control_c, 0, 67, 35
1, 27435, Control_c, 0, 67, 41
1, 27450, Control_c, 0, 64, 86
1, 27450, Control_c, 0, 67, 46
1, 27464, Note_off_c, 0, 72, 60
1, 27466, Control_c, 0, 64, 85
1, 27466, Control_c, 0, 67, 48
1, 27475, Note_on_c, 0, 71, 56
1, 27480, Control_c, 0, 64, 82
1, 27480, Control_c, 0, 67, 49
1, 27495, Control_c, 0, 64, 80
1, 27495, Control_c, 0, 67, 50
1, 27510, Control_c, 0, 64, 76
1, 27510, Control_c, 0, 67, 50
1, 27525, Control_c, 0, 64, 72
1, 27525, Control_c, 0, 67, 51
1, 27540, Control_c, 0, 64, 66
1, 27554, Control_c, 0, 64, 62
1, 27554, Control_c, 0, 67, 52
1, 27569, Control_c, 0, 64, 57
1, 27569, Control_c, 0, 67, 53
1, 27584, Control_c, 0, 64, 53
1, 27584, Control_c, 0, 67, 56
1, 27599, Control_c, 0, 64, 52
1, 27599, Control_c, 0, 67, 60
1, 27613, Control_c, 0, 64, 52
1, 27613, Control_c, 0, 67, 65
1, 27628, Control_c, 0, 64, 51
1, 27628, Control_c, 0, 67, 68
1, 27643, Control_c, 0, 64, 49
1, 27643, Control_c, 0, 67, 73
1, 27658, Control_c, 0, 64, 47
1, 27658, Control_c, 0, 67, 75
1, 27673, Control_c, 0, 64, 44
1, 27673, Control_c, 0, 67, 77
1, 27688, Control_c, 0, 64, 42
1, 27688, Control_c, 0, 67, 79
1, 27703, Control_c, 0, 64, 41
1, 27703, Control_c, 0, 67, 81
1, 27718, Control_c, 0, 64, 40
1, 27718, Control_c, 0, 67, 83
1, 27732, Control_c, 0, 64, 39
1, 27732, Control_c, 0, 67, 83
1, 27747, Control_c, 0, 64, 38
1, 27747, Control_c, 0, 67, 84
1, 27762, Control_c, 0, 64, 37
1, 27777, Control_c, 0, 64, 36
1, 27792, Control_c, 0, 64, 36
1, 27806, Control_c, 0, 64, 35
1, 27836, Control_c, 0, 67, 83
1, 27866, Control_c, 0, 64, 35
1, 27866, Control_c, 0, 67, 83
1, 27992, Control_c, 0, 67, 82
1, 28036, Control_c, 0, 67, 82
1, 28040, Note_on_c, 0, 69, 49
1, 28080, Control_c, 0, 67, 81
1, 28095, Note_off_c, 0, 71, 48
1, 28139, Control_c, 0, 67, 80
1, 28169, Control_c, 0, 67, 80
1, 28227, Control_c, 0, 67, 79
1, 28302, Control_c, 0, 67, 78
1, 28332, Control_c, 0, 67, 78
1, 28391, Control_c, 0, 67, 77
1, 28485, Note_on_c, 0, 71, 53
1, 28510, Control_c, 0, 67, 77
1, 28553, Note_off_c, 0, 69, 36
1, 28601, Note_on_c, 0, 72, 53
1, 28624, Note_off_c, 0, 71, 53
1, 29274, Control_c, 0, 67, 76
1, 29303, Note_on_c, 0, 77, 50
1, 29391, Note_off_c, 0, 72, 36
1, 29392, Control_c, 0, 67, 75
1, 29437, Control_c, 0, 64, 36
1, 29458, Control_c, 0, 64, 39
1, 29473, Control_c, 0, 64, 42
1, 29488, Control_c, 0, 64, 47
1, 29488, Control_c, 0, 67, 75
1, 29503, Control_c, 0, 64, 52
1, 29518, Control_c, 0, 64, 56
1, 29533, Control_c, 0, 64, 59
1, 29548, Control_c, 0, 64, 61
1, 29563, Control_c, 0, 64, 63
1, 29577, Control_c, 0, 64, 64
1, 29577, Control_c, 0, 67, 74
1, 29592, Control_c, 0, 64, 65
1, 29607, Control_c, 0, 64, 66
1, 29622, Control_c, 0, 64, 68
1, 29637, Control_c, 0, 64, 70
1, 29651, Control_c, 0, 64, 72
1, 29659, Note_off_c, 0, 77, 29
1, 29666, Control_c, 0, 64, 75
1, 29681, Control_c, 0, 64, 78
1, 29696, Control_c, 0, 64, 81
1, 29711, Control_c, 0, 64, 83
1, 29725, Control_c, 0, 64, 85
1, 29740, Control_c, 0, 64, 87
1, 29755, Control_c, 0, 64, 88
1, 29770, Control_c, 0, 64, 88
1, 29860, Control_c, 0, 64, 88
1, 29912, Note_on_c, 0, 75, 45
1, 29934, Control_c, 0, 64, 87
1, 29948, Control_c, 0, 64, 87
1, 30007, Control_c, 0, 64, 86
1, 30022, Control_c, 0, 64, 86
1, 30037, Control_c, 0, 64, 84
1, 30052, Control_c, 0, 64, 82
1, 30067, Control_c, 0, 64, 80
1, 30068, Note_on_c, 0, 74, 42
1, 30081, Control_c, 0, 64, 77
1, 30096, Control_c, 0, 64, 75
1, 30111, Control_c, 0, 64, 71
1, 30119, Note_off_c, 0, 75, 28
1, 30126, Control_c, 0, 64, 68
1, 30141, Control_c, 0, 64, 64
1, 30156, Control_c, 0, 64, 62
1, 30171, Control_c, 0, 64, 60
1, 30186, Control_c, 0, 64, 59
1, 30207, Control_c, 0, 64, 58
1, 30222, Control_c, 0, 64, 58
1, 30237, Control_c, 0, 64, 57
1, 30252, Control_c, 0, 64, 55
1, 30267, Control_c, 0, 64, 52
1, 30281, Control_c, 0, 64, 51
1, 30296, Control_c, 0, 64, 49
1, 30311, Control_c, 0, 64, 48
1, 30326, Control_c, 0, 64, 48
1, 30341, Control_c, 0, 64, 47
1, 30341, Control_c, 0, 67, 73
1, 30371, Control_c, 0, 64, 47
1, 30385, Control_c, 0, 64, 46
1, 30400, Control_c, 0, 64, 46
1, 30415, Control_c, 0, 64, 45
1, 30445, Control_c, 0, 64, 45
1, 30505, Control_c, 0, 67, 73
1, 30579, Control_c, 0, 67, 72
1, 30608, Control_c, 0, 67, 72
1, 30684, Control_c, 0, 67, 71
1, 30743, Control_c, 0, 67, 70
1, 31046, Control_c, 0, 67, 70
1, 31120, Control_c, 0, 64, 45
1, 31120, Control_c, 0, 67, 69
1, 31135, Control_c, 0, 64, 46
1, 31149, Control_c, 0, 64, 46
1, 31149, Control_c, 0, 67, 68
1, 31164, Control_c, 0, 64, 48
1, 31179, Control_c, 0, 64, 50
1, 31194, Control_c, 0, 64, 53
1, 31209, Control_c, 0, 64, 56
1, 31223, Control_c, 0, 64, 58
1, 31223, Control_c, 0, 67, 68
1, 31238, Control_c, 0, 64, 60
1, 31253, Control_c, 0, 64, 62
1, 31268, Control_c, 0, 64, 64
1, 31268, Control_c, 0, 67, 67
1, 31283, Control_c, 0, 64, 65
1, 31298, Control_c, 0, 64, 66
1, 31298, Control_c, 0, 67, 66
1, 31313, Control_c, 0, 64, 69
1, 31327, Control_c, 0, 64, 72
1, 31342, Control_c, 0, 64, 76
1, 31342, Control_c, 0, 67, 66
1, 31357, Control_c, 0, 64, 82
1, 31357, Control_c, 0, 67, 65
1, 31372, Control_c, 0, 64, 89
1, 31372, Control_c, 0, 67, 65
1, 31387, Control_c, 0, 64, 97
1, 31402, Control_c, 0, 64, 107
1, 31402, Control_c, 0, 67, 64
1, 31417, Control_c, 0, 64, 121
1, 31417, Control_c, 0, 67, 63
1, 31423, Note_off_c, 0, 74, 39
1, 31431, Control_c, 0, 64, 127
1, 31431, Control_c, 0, 67, 63
1, 31447, Control_c, 0, 67, 62
1, 31462, Control_c, 0, 67, 61
1, 31476, Control_c, 0, 67, 60
1, 31491, Control_c, 0, 67, 60
1, 31506, Control_c, 0, 67, 59
1, 31536, Control_c, 0, 67, 58
1, 31581, Control_c, 0, 67, 58
1, 31751, Control_c, 0, 64, 118
1, 31751, Control_c, 0, 67, 58
1, 31766, Control_c, 0, 64, 113
1, 31780, Control_c, 0, 64, 109
1, 31780, Control_c, 0, 67, 59
1, 31795, Control_c, 0, 64, 106
1, 31810, Control_c, 0, 64, 102
1, 31810, Control_c, 0, 67, 60
1, 31825, Control_c, 0, 64, 95
1, 31840, Control_c, 0, 64, 89
1, 31840, Control_c, 0, 67, 60
1, 31854, Control_c, 0, 64, 82
1, 31869, Control_c, 0, 64, 76
1, 31869, Control_c, 0, 67, 61
1, 31884, Control_c, 0, 64, 71
1, 31884, Control_c, 0, 67, 61
1, 31899, Control_c, 0, 64, 66
1, 31914, Control_c, 0, 64, 63
1, 31914, Control_c, 0, 67, 62
1, 31928, Control_c, 0, 64, 60
1, 31942, Control_c, 0, 64, 57
1, 31957, Control_c, 0, 64, 55
1, 31971, Control_c, 0, 64, 53
1, 31986, Control_c, 0, 64, 53
1, 32012, Note_on_c, 0, 74, 48
1, 32031, Control_c, 0, 64, 53
1, 32034, Note_on_c, 0, 65, 40
1, 32034, Note_on_c, 0, 58, 41
1, 32034, Note_on_c, 0, 70, 38
1, 32046, Control_c, 0, 64, 54
1, 32046, Control_c, 0, 67, 61
1, 32061, Control_c, 0, 64, 56
1, 32076, Control_c, 0, 64, 59
1, 32091, Control_c, 0, 64, 62
1, 32105, Control_c, 0, 64, 66
1, 32120, Control_c, 0, 64, 69
1, 32129, Note_off_c, 0, 74, 61
1, 32135, Control_c, 0, 64, 76
1, 32139, Note_off_c, 0, 65, 61
1, 32150, Control_c, 0, 64, 85
1, 32150, Control_c, 0, 67, 61
1, 32156, Note_off_c, 0, 70, 57
1, 32162, Note_off_c, 0, 58, 37
1, 32165, Control_c, 0, 64, 99
1, 32179, Control_c, 0, 64, 127
1, 32239, Control_c, 0, 67, 60
1, 32377, Note_on_c, 0, 75, 59
1, 32383, Note_on_c, 0, 67, 42
1, 32386, Note_on_c, 0, 58, 43
1, 32394, Note_on_c, 0, 70, 35
1, 32411, Note_off_c, 0, 67, 55
1, 32424, Note_off_c, 0, 70, 50
1, 32431, Note_off_c, 0, 58, 58
1, 32431, Note_off_c, 0, 75, 57
1, 32495, Note_on_c, 0, 77, 66
1, 32499, Control_c, 0, 64, 111
1, 32514, Control_c, 0, 64, 93
1, 32520, Note_on_c, 0, 68, 57
1, 32529, Control_c, 0, 64, 80
1, 32532, Note_on_c, 0, 70, 46
1, 32533, Note_on_c, 0, 58, 46
1, 32544, Control_c, 0, 64, 70
1, 32558, Control_c, 0, 64, 63
1, 32573, Control_c, 0, 64, 55
1, 32588, Control_c, 0, 64, 51
1, 32602, Control_c, 0, 64, 51
1, 32617, Control_c, 0, 67, 61
1, 32632, Control_c, 0, 64, 50
1, 32647, Control_c, 0, 64, 49
1, 32649, Note_off_c, 0, 58, 46
1, 32662, Control_c, 0, 64, 45
1, 32674, Note_off_c, 0, 70, 33
1, 32676, Control_c, 0, 64, 41
1, 32691, Control_c, 0, 64, 38
1, 32705, Note_off_c, 0, 77, 56
1, 32706, Control_c, 0, 64, 35
1, 32707, Note_off_c, 0, 68, 52
1, 32721, Control_c, 0, 64, 35
1, 32750, Control_c, 0, 64, 34
1, 32928, Control_c, 0, 64, 35
1, 32943, Control_c, 0, 64, 36
1, 32958, Control_c, 0, 64, 37
1, 32973, Control_c, 0, 64, 39
1, 32988, Control_c, 0, 64, 42
1, 32994, Note_on_c, 0, 77, 59
1, 33002, Control_c, 0, 64, 48
1, 33005, Note_on_c, 0, 68, 47
1, 33005, Note_on_c, 0, 70, 49
1, 33013, Note_on_c, 0, 58, 36
1, 33017, Control_c, 0, 64, 53
1, 33032, Control_c, 0, 64, 58
1, 33047, Control_c, 0, 64, 61
1, 33062, Control_c, 0, 64, 63
1, 33077, Control_c, 0, 64, 65
1, 33092, Control_c, 0, 64, 67
1, 33107, Control_c, 0, 64, 70
1, 33122, Control_c, 0, 64, 74
1, 33135, Note_off_c, 0, 58, 53
1, 33137, Control_c, 0, 64, 78
1, 33152, Control_c, 0, 64, 83
1, 33152, Note_off_c, 0, 77, 55
1, 33166, Control_c, 0, 64, 87
1, 33169, Note_off_c, 0, 70, 42
1, 33181, Control_c, 0, 64, 89
1, 33184, Note_off_c, 0, 68, 48
1, 33232, Control_c, 0, 64, 88
1, 33262, Control_c, 0, 64, 88
1, 33277, Control_c, 0, 64, 87
1, 33292, Control_c, 0, 64, 85
1, 33307, Control_c, 0, 64, 83
1, 33322, Control_c, 0, 64, 80
1, 33337, Control_c, 0, 64, 75
1, 33351, Control_c, 0, 64, 69
1, 33366, Control_c, 0, 64, 64
1, 33381, Control_c, 0, 64, 57
1, 33396, Control_c, 0, 64, 52
1, 33396, Control_c, 0, 67, 61
1, 33411, Control_c, 0, 64, 48
1, 33425, Control_c, 0, 64, 47
1, 33439, Control_c, 0, 64, 45
1, 33454, Control_c, 0, 64, 42
1, 33469, Control_c, 0, 64, 39
1, 33484, Control_c, 0, 64, 38
1, 33489, Note_on_c, 0, 77, 62
1, 33495, Note_on_c, 0, 70, 53
1, 33498, Control_c, 0, 64, 39
1, 33501, Note_on_c, 0, 68, 56
1, 33513, Control_c, 0, 64, 43
1, 33518, Note_on_c, 0, 58, 43
1, 33528, Control_c, 0, 64, 48
1, 33528, Control_c, 0, 67, 62
1, 33542, Control_c, 0, 64, 54
1, 33557, Control_c, 0, 64, 59
1, 33572, Control_c, 0, 64, 62
1, 33587, Control_c, 0, 64, 65
1, 33602, Control_c, 0, 64, 68
1, 33617, Control_c, 0, 64, 72
1, 33632, Control_c, 0, 64, 77
1, 33636, Note_off_c, 0, 58, 57
1, 33647, Control_c, 0, 64, 82
1, 33655, Note_off_c, 0, 77, 58
1, 33661, Control_c, 0, 64, 89
1, 33676, Control_c, 0, 64, 95
1, 33691, Control_c, 0, 64, 101
1, 33694, Note_off_c, 0, 68, 37
1, 33706, Control_c, 0, 64, 104
1, 33721, Note_off_c, 0, 70, 29
1, 33780, Control_c, 0, 64, 103
1, 33795, Control_c, 0, 64, 102
1, 33810, Control_c, 0, 64, 100
1, 33824, Control_c, 0, 64, 97
1, 33840, Control_c, 0, 64, 94
1, 33855, Control_c, 0, 64, 92
1, 33870, Control_c, 0, 64, 87
1, 33885, Control_c, 0, 64, 81
1, 33900, Control_c, 0, 64, 74
1, 33914, Control_c, 0, 64, 66
1, 33929, Control_c, 0, 64, 59
1, 33951, Control_c, 0, 64, 46
1, 33966, Control_c, 0, 64, 33
1, 33981, Control_c, 0, 64, 32
1, 33987, Note_on_c, 0, 75, 67
1, 34001, Note_on_c, 0, 58, 45
1, 34002, Note_on_c, 0, 70, 56
1, 34004, Note_on_c, 0, 67, 51
1, 34025, Control_c, 0, 64, 33
1, 34040, Control_c, 0, 64, 39
1, 34055, Control_c, 0, 64, 47
1, 34070, Control_c, 0, 64, 56
1, 34085, Control_c, 0, 64, 61
1, 34100, Control_c, 0, 64, 65
1, 34114, Note_off_c, 0, 67, 58
1, 34115, Control_c, 0, 64, 68
1, 34121, Note_off_c, 0, 70, 54
1, 34129, Control_c, 0, 64, 72
1, 34141, Note_off_c, 0, 58, 56
1, 34144, Control_c, 0, 64, 77
1, 34159, Control_c, 0, 64, 84
1, 34168, Note_off_c, 0, 75, 62
1, 34173, Control_c, 0, 64, 92
1, 34188, Control_c, 0, 64, 101
1, 34203, Control_c, 0, 64, 115
1, 34218, Control_c, 0, 64, 127
1, 34248, Control_c, 0, 67, 61
1, 34349, Note_on_c, 0, 58, 52
1, 34352, Note_on_c, 0, 70, 61
1, 34354, Note_on_c, 0, 74, 68
1, 34378, Note_on_c, 0, 65, 27
1, 34387, Note_off_c, 0, 74, 64
1, 34390, Note_off_c, 0, 70, 64
1, 34401, Note_off_c, 0, 58, 56
1, 34414, Note_off_c, 0, 65, 46
1, 34495, Note_on_c, 0, 79, 74
1, 34499, Control_c, 0, 64, 108
1, 34514, Control_c, 0, 64, 97
1, 34516, Note_on_c, 0, 70, 47
1, 34520, Note_on_c, 0, 58, 45
1, 34529, Control_c, 0, 64, 85
1, 34544, Control_c, 0, 64, 75
1, 34559, Control_c, 0, 64, 67
1, 34559, Control_c, 0, 67, 62
1, 34573, Control_c, 0, 64, 61
1, 34588, Control_c, 0, 64, 53
1, 34603, Control_c, 0, 64, 49
1, 34603, Control_c, 0, 67, 63
1, 34618, Control_c, 0, 64, 47
1, 34633, Control_c, 0, 64, 46
1, 34648, Control_c, 0, 64, 43
1, 34663, Control_c, 0, 64, 34
1, 34678, Control_c, 0, 64, 17
1, 34678, Control_c, 0, 67, 63
1, 34700, Control_c, 0, 64, 0
1, 34730, Control_c, 0, 67, 64
1, 34776, Note_off_c, 0, 58, 58
1, 34922, Control_c, 0, 67, 63
1, 35011, Control_c, 0, 67, 63
1, 35040, Note_on_c, 0, 60, 42
1, 35070, Control_c, 0, 64, 9
1, 35085, Control_c, 0, 64, 38
1, 35100, Control_c, 0, 64, 52
1, 35115, Control_c, 0, 64, 59
1, 35130, Control_c, 0, 64, 63
1, 35144, Control_c, 0, 64, 65
1, 35159, Control_c, 0, 64, 67
1, 35159, Control_c, 0, 67, 62
1, 35170, Note_off_c, 0, 79, 57
1, 35174, Control_c, 0, 64, 70
1, 35188, Control_c, 0, 64, 73
1, 35203, Control_c, 0, 64, 77
1, 35218, Control_c, 0, 64, 82
1, 35227, Note_off_c, 0, 70, 56
1, 35233, Control_c, 0, 64, 88
1, 35243, Note_off_c, 0, 60, 50
1, 35248, Control_c, 0, 64, 93
1, 35262, Control_c, 0, 64, 99
1, 35277, Control_c, 0, 64, 101
1, 35307, Control_c, 0, 64, 102
1, 35322, Control_c, 0, 64, 102
1, 35440, Note_on_c, 0, 77, 64
1, 35441, Note_on_c, 0, 62, 43
1, 35453, Note_on_c, 0, 68, 50
1, 35479, Control_c, 0, 64, 100
1, 35491, Note_on_c, 0, 70, 9
1, 35493, Control_c, 0, 64, 99
1, 35508, Control_c, 0, 64, 97
1, 35508, Control_c, 0, 67, 63
1, 35513, Note_off_c, 0, 68, 55
1, 35523, Control_c, 0, 64, 94
1, 35527, Note_off_c, 0, 77, 57
1, 35538, Control_c, 0, 64, 90
1, 35549, Note_off_c, 0, 62, 53
1, 35553, Control_c, 0, 64, 82
1, 35567, Control_c, 0, 64, 74
1, 35569, Note_on_c, 0, 75, 61
1, 35576, Note_on_c, 0, 67, 50
1, 35582, Control_c, 0, 64, 65
1, 35596, Note_on_c, 0, 63, 36
1, 35597, Control_c, 0, 64, 54
1, 35612, Control_c, 0, 64, 33
1, 35626, Control_c, 0, 64, 0
1, 35745, Control_c, 0, 64, 29
1, 35760, Control_c, 0, 64, 44
1, 35775, Control_c, 0, 64, 55
1, 35790, Control_c, 0, 64, 61
1, 35805, Control_c, 0, 64, 64
1, 35819, Control_c, 0, 64, 66
1, 35819, Control_c, 0, 67, 62
1, 35834, Control_c, 0, 64, 70
1, 35849, Control_c, 0, 64, 73
1, 35855, Note_off_c, 0, 75, 61
1, 35864, Control_c, 0, 64, 78
1, 35879, Control_c, 0, 64, 84
1, 35891, Note_off_c, 0, 63, 57
1, 35893, Control_c, 0, 64, 91
1, 35902, Note_off_c, 0, 70, 40
1, 35903, Note_off_c, 0, 67, 37
1, 35908, Control_c, 0, 64, 100
1, 35923, Control_c, 0, 64, 117
1, 35938, Control_c, 0, 64, 127
1, 35953, Control_c, 0, 67, 61
1, 36228, Note_on_c, 0, 74, 58
1, 36237, Note_on_c, 0, 68, 47
1, 36242, Note_on_c, 0, 65, 43
1, 36257, Control_c, 0, 64, 110
1, 36258, Note_on_c, 0, 53, 43
1, 36272, Control_c, 0, 64, 95
1, 36287, Control_c, 0, 64, 81
1, 36302, Control_c, 0, 64, 67
1, 36316, Control_c, 0, 64, 56
1, 36331, Control_c, 0, 64, 37
1, 36346, Control_c, 0, 64, 28
1, 36376, Control_c, 0, 64, 31
1, 36390, Control_c, 0, 64, 37
1, 36405, Control_c, 0, 64, 46
1, 36420, Control_c, 0, 64, 54
1, 36420, Control_c, 0, 67, 62
1, 36435, Control_c, 0, 64, 60
1, 36449, Control_c, 0, 64, 63
1, 36464, Control_c, 0, 64, 65
1, 36472, Note_off_c, 0, 74, 57
1, 36479, Control_c, 0, 64, 68
1, 36494, Control_c, 0, 64, 72
1, 36502, Note_off_c, 0, 53, 52
1, 36508, Control_c, 0, 64, 77
1, 36510, Note_off_c, 0, 65, 62
1, 36520, Note_off_c, 0, 68, 56
1, 36523, Control_c, 0, 64, 84
1, 36538, Control_c, 0, 64, 91
1, 36553, Control_c, 0, 64, 100
1, 36568, Control_c, 0, 64, 110
1, 36583, Control_c, 0, 64, 127
1, 36642, Control_c, 0, 67, 63
1, 36657, Control_c, 0, 67, 63
1, 36667, Note_on_c, 0, 68, 54
1, 36672, Control_c, 0, 67, 64
1, 36675, Note_on_c, 0, 72, 57
1, 36679, Note_on_c, 0, 63, 55
1, 36687, Control_c, 0, 67, 65
1, 36687, Note_on_c, 0, 53, 42
1, 36702, Control_c, 0, 67, 66
1, 36716, Control_c, 0, 67, 67
1, 36720, Note_off_c, 0, 63, 63
1, 36731, Control_c, 0, 67, 68
1, 36746, Control_c, 0, 64, 110
1, 36746, Control_c, 0, 67, 70
1, 36748, Note_off_c, 0, 68, 59
1, 36761, Control_c, 0, 64, 94
1, 36761, Control_c, 0, 67, 72
1, 36776, Control_c, 0, 64, 82
1, 36776, Control_c, 0, 67, 73
1, 36785, Note_on_c, 0, 71, 57
1, 36790, Control_c, 0, 64, 71
1, 36790, Control_c, 0, 67, 75
1, 36805, Control_c, 0, 64, 63
1, 36805, Control_c, 0, 67, 77
1, 36806, Note_on_c, 0, 55, 44
1, 36806, Note_off_c, 0, 53, 37
1, 36811, Note_off_c, 0, 72, 29
1, 36812, Note_on_c, 0, 67, 42
1, 36820, Control_c, 0, 64, 50
1, 36820, Control_c, 0, 67, 78
1, 36830, Note_on_c, 0, 62, 40
1, 36834, Control_c, 0, 64, 32
1, 36834, Control_c, 0, 67, 81
1, 36849, Control_c, 0, 64, 13
1, 36849, Control_c, 0, 67, 82
1, 36864, Control_c, 0, 64, 0
1, 36864, Control_c, 0, 67, 83
1, 36879, Control_c, 0, 67, 84
1, 36946, Control_c, 0, 67, 83
1, 36961, Control_c, 0, 67, 82
1, 36975, Control_c, 0, 67, 80
1, 36990, Control_c, 0, 67, 79
1, 37005, Control_c, 0, 67, 78
1, 37020, Control_c, 0, 64, 34
1, 37020, Control_c, 0, 67, 77
1, 37035, Control_c, 0, 64, 50
1, 37035, Control_c, 0, 67, 75
1, 37051, Control_c, 0, 64, 59
1, 37051, Control_c, 0, 67, 72
1, 37065, Control_c, 0, 64, 63
1, 37065, Control_c, 0, 67, 70
1, 37080, Control_c, 0, 64, 66
1, 37095, Control_c, 0, 64, 70
1, 37110, Control_c, 0, 64, 76
1, 37110, Control_c, 0, 67, 70
1, 37125, Control_c, 0, 64, 82
1, 37125, Control_c, 0, 67, 69
1, 37139, Control_c, 0, 64, 91
1, 37139, Control_c, 0, 67, 68
1, 37140, Note_off_c, 0, 62, 56
1, 37154, Control_c, 0, 64, 101
1, 37154, Control_c, 0, 67, 68
1, 37169, Control_c, 0, 64, 117
1, 37184, Control_c, 0, 64, 127
1, 37245, Note_off_c, 0, 67, 0
1, 37281, Poly_aftertouch_c, 0, 67, 127
1, 37287, Control_c, 0, 64, 117
1, 37302, Control_c, 0, 64, 107
1, 37304, Note_on_c, 0, 69, 55
1, 37317, Control_c, 0, 64, 95
1, 37318, Note_on_c, 0, 60, 41
1, 37332, Control_c, 0, 64, 82
1, 37346, Control_c, 0, 64, 70
1, 37361, Control_c, 0, 64, 58
1, 37367, Note_off_c, 0, 71, 35
1, 37376, Control_c, 0, 64, 30
1, 37391, Control_c, 0, 64, 0
1, 37420, Control_c, 0, 64, 9
1, 37435, Control_c, 0, 64, 32
1, 37450, Control_c, 0, 64, 47
1, 37465, Control_c, 0, 64, 58
1, 37480, Control_c, 0, 64, 63
1, 37495, Control_c, 0, 64, 66
1, 37510, Control_c, 0, 64, 70
1, 37525, Control_c, 0, 64, 75
1, 37531, Poly_aftertouch_c, 0, 67, 0
1, 37539, Control_c, 0, 64, 81
1, 37554, Control_c, 0, 64, 88
1, 37569, Control_c, 0, 64, 96
1, 37583, Control_c, 0, 64, 105
1, 37584, Note_off_c, 0, 55, 33
1, 37598, Control_c, 0, 64, 116
1, 37613, Control_c, 0, 64, 127
1, 37658, Control_c, 0, 67, 67
1, 37681, Note_on_c, 0, 71, 62
1, 37691, Note_off_c, 0, 60, 0
1, 37693, Note_on_c, 0, 53, 54
1, 37708, Note_off_c, 0, 69, 37
1, 37716, Note_on_c, 0, 67, 26
1, 37728, Poly_aftertouch_c, 0, 60, 127
1, 37749, Note_off_c, 0, 53, 51
1, 37766, Note_off_c, 0, 71, 59
1, 37767, Note_off_c, 0, 67, 41
1, 37769, Control_c, 0, 64, 117
1, 37773, Poly_aftertouch_c, 0, 55, 127
1, 37784, Control_c, 0, 64, 110
1, 37795, Poly_aftertouch_c, 0, 60, 0
1, 37798, Control_c, 0, 64, 104
1, 37801, Note_on_c, 0, 72, 62
1, 37813, Control_c, 0, 64, 97
1, 37817, Note_on_c, 0, 60, 13
1, 37825, Note_on_c, 0, 51, 51
1, 37827, Note_on_c, 0, 67, 33
1, 37828, Control_c, 0, 64, 87
1, 37844, Control_c, 0, 64, 77
1, 37859, Control_c, 0, 64, 66
1, 37873, Control_c, 0, 64, 49
1, 37888, Control_c, 0, 64, 18
1, 37903, Control_c, 0, 64, 0
1, 37933, Control_c, 0, 64, 9
1, 37948, Control_c, 0, 64, 23
1, 37963, Control_c, 0, 64, 35
1, 37978, Control_c, 0, 64, 50
1, 37993, Control_c, 0, 64, 58
1, 38008, Control_c, 0, 64, 63
1, 38023, Control_c, 0, 64, 66
1, 38037, Control_c, 0, 64, 69
1, 38052, Control_c, 0, 64, 74
1, 38055, Note_off_c, 0, 60, 42
1, 38055, Note_off_c, 0, 51, 59
1, 38067, Control_c, 0, 64, 82
1, 38082, Control_c, 0, 64, 90
1, 38089, Note_off_c, 0, 67, 59
1, 38096, Control_c, 0, 64, 100
1, 38111, Control_c, 0, 64, 111
1, 38126, Control_c, 0, 64, 127
1, 38140, Note_off_c, 0, 72, 62
1, 38156, Control_c, 0, 67, 68
1, 38371, Poly_aftertouch_c, 0, 55, 0
1, 38444, Control_c, 0, 64, 108
1, 38459, Control_c, 0, 64, 98
1, 38468, Note_on_c, 0, 55, 25
1, 38468, Note_on_c, 0, 75, 60
1, 38474, Note_on_c, 0, 67, 43
1, 38474, Control_c, 0, 64, 86
1, 38488, Control_c, 0, 64, 74
1, 38491, Note_on_c, 0, 43, 36
1, 38503, Control_c, 0, 64, 63
1, 38518, Control_c, 0, 64, 45
1, 38533, Control_c, 0, 64, 0
1, 38592, Control_c, 0, 64, 11
1, 38592, Control_c, 0, 67, 68
1, 38607, Control_c, 0, 64, 27
1, 38622, Control_c, 0, 64, 44
1, 38622, Control_c, 0, 67, 69
1, 38637, Control_c, 0, 64, 56
1, 38637, Control_c, 0, 67, 70
1, 38652, Control_c, 0, 64, 63
1, 38667, Control_c, 0, 64, 66
1, 38667, Control_c, 0, 67, 70
1, 38682, Control_c, 0, 64, 71
1, 38682, Control_c, 0, 67, 71
1, 38696, Control_c, 0, 64, 77
1, 38696, Control_c, 0, 67, 72
1, 38699, Note_off_c, 0, 75, 49
1, 38711, Control_c, 0, 64, 85
1, 38711, Control_c, 0, 67, 73
1, 38726, Control_c, 0, 64, 96
1, 38726, Control_c, 0, 67, 75
1, 38729, Note_off_c, 0, 67, 54
1, 38741, Control_c, 0, 64, 107
1, 38741, Control_c, 0, 67, 76
1, 38749, Note_off_c, 0, 55, 40
1, 38756, Control_c, 0, 64, 127
1, 38756, Control_c, 0, 67, 77
1, 38761, Note_off_c, 0, 43, 32
1, 38771, Control_c, 0, 67, 78
1, 38785, Control_c, 0, 67, 80
1, 38800, Control_c, 0, 67, 81
1, 38815, Control_c, 0, 67, 82
1, 38830, Control_c, 0, 67, 83
1, 38844, Control_c, 0, 67, 83
1, 38859, Control_c, 0, 67, 84
1, 38874, Control_c, 0, 67, 85
1, 38889, Control_c, 0, 67, 85
1, 38904, Control_c, 0, 67, 86
1, 38918, Control_c, 0, 67, 87
1, 38933, Control_c, 0, 67, 87
1, 38948, Control_c, 0, 67, 88
1, 38978, Control_c, 0, 67, 95
1, 38992, Control_c, 0, 67, 100
1, 39007, Control_c, 0, 67, 103
1, 39022, Control_c, 0, 67, 104
1, 39033, Note_on_c, 0, 74, 52
1, 39063, Note_on_c, 0, 43, 32
1, 39070, Note_on_c, 0, 55, 30
1, 39122, Poly_aftertouch_c, 0, 67, 127
1, 39126, Poly_aftertouch_c, 0, 65, 0
1, 39128, Note_off_c, 0, 74, 60
1, 39155, Control_c, 0, 64, 113
1, 39170, Control_c, 0, 64, 100
1, 39170, Control_c, 0, 67, 103
1, 39191, Note_on_c, 0, 72, 53
1, 39192, Control_c, 0, 64, 91
1, 39192, Control_c, 0, 67, 103
1, 39207, Control_c, 0, 64, 82
1, 39222, Control_c, 0, 64, 74
1, 39225, Note_on_c, 0, 48, 31
1, 39227, Note_on_c, 0, 63, 30
1, 39236, Control_c, 0, 64, 67
1, 39251, Control_c, 0, 64, 61
1, 39254, Note_off_c, 0, 43, 29
1, 39266, Control_c, 0, 64, 54
1, 39281, Control_c, 0, 64, 48
1, 39281, Control_c, 0, 67, 102
1, 39296, Control_c, 0, 64, 47
1, 39296, Control_c, 0, 67, 102
1, 39310, Control_c, 0, 64, 45
1, 39325, Control_c, 0, 64, 41
1, 39325, Control_c, 0, 67, 101
1, 39340, Control_c, 0, 64, 30
1, 39340, Control_c, 0, 67, 100
1, 39355, Control_c, 0, 64, 0
1, 39370, Control_c, 0, 67, 100
1, 39415, Control_c, 0, 67, 99
1, 39430, Control_c, 0, 67, 98
1, 39445, Control_c, 0, 67, 98
1, 39460, Control_c, 0, 67, 97
1, 39489, Control_c, 0, 67, 97
1, 39504, Control_c, 0, 67, 96
1, 39519, Control_c, 0, 67, 95
1, 39534, Control_c, 0, 67, 95
1, 39549, Control_c, 0, 67, 94
1, 39564, Control_c, 0, 67, 93
1, 39579, Control_c, 0, 67, 92
1, 39593, Control_c, 0, 67, 92
1, 39608, Control_c, 0, 67, 91
1, 39623, Control_c, 0, 67, 90
1, 39653, Control_c, 0, 67, 89
1, 39667, Control_c, 0, 67, 88
1, 39682, Control_c, 0, 67, 88
1, 39697, Control_c, 0, 67, 87
1, 39727, Control_c, 0, 67, 87
1, 39771, Control_c, 0, 67, 86
1, 39801, Control_c, 0, 67, 85
1, 39830, Control_c, 0, 64, 17
1, 39845, Control_c, 0, 64, 31
1, 39845, Control_c, 0, 67, 85
1, 39859, Control_c, 0, 64, 41
1, 39874, Control_c, 0, 64, 50
1, 39889, Control_c, 0, 64, 55
1, 39904, Control_c, 0, 64, 59
1, 39919, Control_c, 0, 64, 60
1, 39919, Control_c, 0, 67, 84
1, 39941, Control_c, 0, 64, 61
1, 39956, Control_c, 0, 64, 62
1, 39971, Control_c, 0, 64, 63
1, 39985, Control_c, 0, 64, 64
1, 40000, Control_c, 0, 64, 65
1, 40000, Control_c, 0, 67, 83
1, 40015, Control_c, 0, 64, 67
1, 40030, Control_c, 0, 64, 69
1, 40045, Control_c, 0, 64, 71
1, 40059, Control_c, 0, 64, 74
1, 40074, Control_c, 0, 64, 76
1, 40089, Control_c, 0, 64, 79
1, 40104, Control_c, 0, 64, 83
1, 40119, Control_c, 0, 64, 87
1, 40133, Control_c, 0, 64, 90
1, 40133, Control_c, 0, 67, 83
1, 40148, Control_c, 0, 64, 93
1, 40163, Control_c, 0, 64, 95
1, 40178, Control_c, 0, 64, 97
1, 40178, Control_c, 0, 67, 82
1, 40193, Control_c, 0, 64, 100
1, 40208, Control_c, 0, 64, 104
1, 40208, Control_c, 0, 67, 82
1, 40222, Control_c, 0, 64, 108
1, 40238, Control_c, 0, 64, 111
1, 40253, Control_c, 0, 64, 114
1, 40253, Control_c, 0, 67, 81
1, 40268, Control_c, 0, 64, 116
1, 40279, Note_off_c, 0, 63, 38
1, 40283, Control_c, 0, 64, 118
1, 40283, Control_c, 0, 67, 80
1, 40297, Control_c, 0, 64, 123
1, 40297, Control_c, 0, 67, 80
1, 40312, Control_c, 0, 64, 127
1, 40312, Control_c, 0, 67, 79
1, 40327, Control_c, 0, 67, 78
1, 40340, Poly_aftertouch_c, 0, 67, 0
1, 40342, Control_c, 0, 67, 78
1, 40357, Control_c, 0, 67, 77
1, 40363, Note_off_c, 0, 55, 36
1, 40374, Note_off_c, 0, 48, 31
1, 40386, Control_c, 0, 67, 77
1, 40401, Control_c, 0, 67, 76
1, 40416, Control_c, 0, 67, 75
1, 40431, Control_c, 0, 67, 75
1, 40446, Control_c, 0, 67, 73
1, 40461, Control_c, 0, 67, 68
1, 40476, Control_c, 0, 67, 63
1, 40490, Control_c, 0, 67, 60
1, 40505, Control_c, 0, 67, 56
1, 40518, Note_off_c, 0, 72, 31
1, 40520, Control_c, 0, 67, 55
1, 40535, Control_c, 0, 67, 53
1, 40550, Control_c, 0, 67, 52
1, 40579, Control_c, 0, 67, 51
1, 40594, Control_c, 0, 67, 51
1, 40653, Control_c, 0, 67, 50
1, 40808, Control_c, 0, 64, 123
1, 40823, Control_c, 0, 64, 117
1, 40838, Control_c, 0, 64, 113
1, 40853, Control_c, 0, 64, 110
1, 40868, Control_c, 0, 64, 106
1, 40882, Control_c, 0, 64, 102
1, 40897, Control_c, 0, 64, 98
1, 40897, Control_c, 0, 67, 50
1, 40912, Control_c, 0, 64, 93
1, 40927, Control_c, 0, 64, 87
1, 40942, Control_c, 0, 64, 81
1, 40956, Control_c, 0, 64, 73
1, 40971, Control_c, 0, 64, 68
1, 40986, Control_c, 0, 64, 64
1, 41001, Control_c, 0, 64, 61
1, 41015, Control_c, 0, 64, 59
1, 41032, Control_c, 0, 64, 58
1, 41061, Control_c, 0, 64, 58
1, 41076, Control_c, 0, 64, 57
1, 41091, Control_c, 0, 64, 56
1, 41095, Note_on_c, 0, 71, 46
1, 41105, Control_c, 0, 64, 54
1, 41120, Control_c, 0, 64, 52
1, 41135, Control_c, 0, 64, 51
1, 41150, Control_c, 0, 64, 49
1, 41165, Control_c, 0, 64, 47
1, 41179, Control_c, 0, 64, 45
1, 41194, Control_c, 0, 64, 43
1, 41209, Control_c, 0, 64, 42
1, 41209, Control_c, 0, 67, 49
1, 41224, Control_c, 0, 64, 40
1, 41239, Control_c, 0, 64, 39
1, 41254, Control_c, 0, 64, 38
1, 41254, Control_c, 0, 67, 48
1, 41269, Control_c, 0, 64, 37
1, 41284, Control_c, 0, 64, 37
1, 41299, Control_c, 0, 64, 36
1, 41299, Control_c, 0, 67, 48
1, 41313, Control_c, 0, 64, 36
1, 41328, Control_c, 0, 64, 35
1, 41328, Control_c, 0, 67, 48
1, 41387, Control_c, 0, 64, 35
1, 41482, Note_on_c, 0, 72, 57
1, 41498, Control_c, 0, 67, 49
1, 41510, Note_off_c, 0, 71, 58
1, 41528, Control_c, 0, 67, 50
1, 41589, Note_on_c, 0, 74, 63
1, 41608, Note_off_c, 0, 72, 52
1, 41617, Control_c, 0, 64, 34
1, 41631, Control_c, 0, 64, 34
1, 41677, Control_c, 0, 64, 34
1, 41692, Control_c, 0, 64, 38
1, 41706, Control_c, 0, 64, 43
1, 41721, Control_c, 0, 64, 51
1, 41736, Control_c, 0, 64, 58
1, 41751, Control_c, 0, 64, 62
1, 41766, Control_c, 0, 64, 65
1, 41766, Control_c, 0, 67, 48
1, 41780, Control_c, 0, 64, 69
1, 41780, Control_c, 0, 67, 48
1, 41795, Control_c, 0, 64, 77
1, 41795, Control_c, 0, 67, 46
1, 41810, Control_c, 0, 64, 88
1, 41810, Control_c, 0, 67, 46
1, 41825, Control_c, 0, 64, 107
1, 41825, Control_c, 0, 67, 45
1, 41841, Control_c, 0, 64, 127
1, 41841, Control_c, 0, 67, 44
1, 41855, Control_c, 0, 67, 35
1, 41865, Note_off_c, 0, 74, 56
1, 41870, Control_c, 0, 67, 14
1, 41885, Control_c, 0, 67, 0
1, 42094, Note_on_c, 0, 74, 63
1, 42103, Note_on_c, 0, 65, 52
1, 42107, Control_c, 0, 64, 95
1, 42112, Note_on_c, 0, 68, 52
1, 42114, Note_on_c, 0, 71, 45
1, 42122, Control_c, 0, 64, 79
1, 42136, Control_c, 0, 64, 67
1, 42151, Control_c, 0, 64, 54
1, 42166, Control_c, 0, 64, 31
1, 42189, Control_c, 0, 64, 29
1, 42204, Control_c, 0, 64, 35
1, 42218, Control_c, 0, 64, 43
1, 42233, Control_c, 0, 64, 52
1, 42248, Control_c, 0, 64, 59
1, 42262, Control_c, 0, 64, 63
1, 42277, Control_c, 0, 64, 67
1, 42292, Control_c, 0, 64, 71
1, 42307, Control_c, 0, 64, 79
1, 42322, Control_c, 0, 64, 92
1, 42336, Control_c, 0, 64, 127
1, 42363, Note_off_c, 0, 68, 55
1, 42372, Note_off_c, 0, 65, 55
1, 42403, Note_off_c, 0, 71, 39
1, 42404, Note_off_c, 0, 74, 54
1, 42588, Control_c, 0, 64, 110
1, 42595, Note_on_c, 0, 74, 64
1, 42602, Control_c, 0, 64, 87
1, 42606, Note_on_c, 0, 72, 63
1, 42614, Note_on_c, 0, 69, 59
1, 42617, Control_c, 0, 64, 69
1, 42619, Note_on_c, 0, 66, 50
1, 42633, Control_c, 0, 64, 58
1, 42648, Control_c, 0, 64, 35
1, 42663, Control_c, 0, 64, 21
1, 42692, Control_c, 0, 64, 23
1, 42707, Control_c, 0, 64, 27
1, 42722, Control_c, 0, 64, 37
1, 42737, Control_c, 0, 64, 49
1, 42751, Control_c, 0, 64, 58
1, 42766, Control_c, 0, 64, 64
1, 42781, Control_c, 0, 64, 68
1, 42796, Control_c, 0, 64, 75
1, 42811, Control_c, 0, 64, 90
1, 42825, Control_c, 0, 64, 123
1, 42840, Control_c, 0, 64, 127
1, 42843, Note_off_c, 0, 74, 60
1, 42847, Note_off_c, 0, 69, 53
1, 42848, Note_off_c, 0, 72, 62
1, 42858, Note_off_c, 0, 66, 36
1, 43070, Control_c, 0, 64, 107
1, 43077, Note_on_c, 0, 72, 69
1, 43084, Control_c, 0, 64, 84
1, 43087, Note_on_c, 0, 69, 56
1, 43095, Note_on_c, 0, 62, 43
1, 43099, Control_c, 0, 64, 67
1, 43100, Note_on_c, 0, 66, 41
1, 43114, Control_c, 0, 64, 52
1, 43129, Control_c, 0, 64, 28
1, 43144, Control_c, 0, 64, 25
1, 43159, Control_c, 0, 64, 31
1, 43174, Control_c, 0, 64, 42
1, 43188, Control_c, 0, 64, 55
1, 43203, Control_c, 0, 64, 62
1, 43218, Control_c, 0, 64, 65
1, 43232, Note_off_c, 0, 62, 60
1, 43233, Control_c, 0, 64, 70
1, 43248, Control_c, 0, 64, 78
1, 43263, Control_c, 0, 64, 91
1, 43278, Control_c, 0, 64, 127
1, 43311, Note_off_c, 0, 66, 28
1, 43327, Note_off_c, 0, 69, 32
1, 43338, Note_off_c, 0, 72, 55
1, 43433, Note_on_c, 0, 74, 72
1, 43490, Note_off_c, 0, 74, 61
1, 43579, Note_on_c, 0, 66, 43
1, 43591, Note_on_c, 0, 60, 43
1, 43630, Note_on_c, 0, 69, 59
1, 43632, Note_on_c, 0, 72, 62
1, 43634, Control_c, 0, 64, 111
1, 43648, Control_c, 0, 64, 90
1, 43663, Control_c, 0, 64, 78
1, 43686, Control_c, 0, 64, 68
1, 43701, Control_c, 0, 64, 61
1, 43715, Control_c, 0, 64, 53
1, 43716, Note_on_c, 0, 74, 67
1, 43730, Control_c, 0, 64, 48
1, 43745, Control_c, 0, 64, 46
1, 43751, Note_off_c, 0, 72, 60
1, 43760, Control_c, 0, 64, 44
1, 43760, Control_c, 0, 67, 16
1, 43775, Control_c, 0, 64, 41
1, 43775, Control_c, 0, 67, 26
1, 43784, Note_on_c, 0, 75, 71
1, 43789, Control_c, 0, 64, 30
1, 43789, Control_c, 0, 67, 36
1, 43800, Note_off_c, 0, 74, 62
1, 43804, Control_c, 0, 64, 0
1, 43804, Control_c, 0, 67, 49
1, 43819, Control_c, 0, 67, 58
1, 43834, Control_c, 0, 67, 64
1, 43849, Control_c, 0, 67, 65
1, 43878, Control_c, 0, 67, 64
1, 43893, Control_c, 0, 67, 62
1, 43907, Control_c, 0, 67, 61
1, 43922, Control_c, 0, 67, 59
1, 43937, Control_c, 0, 67, 58
1, 43952, Control_c, 0, 67, 56
1, 43967, Control_c, 0, 64, 22
1, 43967, Control_c, 0, 67, 55
1, 43981, Control_c, 0, 64, 43
1, 43981, Control_c, 0, 67, 53
1, 43996, Control_c, 0, 64, 56
1, 43996, Control_c, 0, 67, 52
1, 44011, Control_c, 0, 64, 62
1, 44011, Control_c, 0, 67, 51
1, 44026, Control_c, 0, 64, 65
1, 44026, Control_c, 0, 67, 51
1, 44041, Control_c, 0, 64, 68
1, 44041, Control_c, 0, 67, 50
1, 44056, Control_c, 0, 64, 71
1, 44056, Control_c, 0, 67, 50
1, 44063, Note_off_c, 0, 75, 59
1, 44071, Control_c, 0, 64, 74
1, 44071, Control_c, 0, 67, 49
1, 44086, Control_c, 0, 64, 78
1, 44086, Control_c, 0, 67, 48
1, 44089, Note_off_c, 0, 60, 40
1, 44100, Control_c, 0, 64, 81
1, 44115, Control_c, 0, 64, 86
1, 44130, Control_c, 0, 64, 89
1, 44145, Control_c, 0, 64, 92
1, 44160, Control_c, 0, 64, 93
1, 44219, Control_c, 0, 64, 93
1, 44279, Control_c, 0, 64, 93
1, 44294, Control_c, 0, 64, 92
1, 44309, Control_c, 0, 64, 91
1, 44309, Control_c, 0, 67, 49
1, 44323, Control_c, 0, 64, 90
1, 44325, Note_on_c, 0, 74, 61
1, 44331, Note_on_c, 0, 62, 40
1, 44338, Control_c, 0, 64, 88
1, 44353, Control_c, 0, 64, 85
1, 44368, Control_c, 0, 64, 80
1, 44368, Control_c, 0, 67, 50
1, 44383, Control_c, 0, 64, 74
1, 44397, Control_c, 0, 64, 67
1, 44412, Control_c, 0, 64, 61
1, 44434, Control_c, 0, 64, 55
1, 44449, Control_c, 0, 64, 52
1, 44464, Control_c, 0, 64, 50
1, 44479, Control_c, 0, 64, 50
1, 44494, Control_c, 0, 64, 47
1, 44509, Control_c, 0, 64, 40
1, 44524, Control_c, 0, 64, 26
1, 44538, Control_c, 0, 64, 0
1, 44542, Note_off_c, 0, 62, 51
1, 44567, Note_off_c, 0, 74, 58
1, 44586, Note_on_c, 0, 72, 55
1, 44590, Note_on_c, 0, 63, 35
1, 44612, Control_c, 0, 67, 49
1, 44642, Control_c, 0, 67, 48
1, 44656, Control_c, 0, 67, 48
1, 44671, Control_c, 0, 67, 47
1, 44685, Control_c, 0, 64, 9
1, 44700, Control_c, 0, 64, 40
1, 44715, Control_c, 0, 64, 55
1, 44715, Control_c, 0, 67, 46
1, 44721, Note_off_c, 0, 66, 58
1, 44729, Control_c, 0, 64, 62
1, 44729, Control_c, 0, 67, 46
1, 44744, Control_c, 0, 64, 66
1, 44744, Control_c, 0, 67, 45
1, 44756, Note_off_c, 0, 63, 62
1, 44759, Control_c, 0, 64, 71
1, 44774, Control_c, 0, 64, 79
1, 44774, Control_c, 0, 67, 45
1, 44774, Note_off_c, 0, 69, 43
1, 44789, Control_c, 0, 64, 88
1, 44803, Control_c, 0, 64, 99
1, 44818, Control_c, 0, 64, 117
1, 44822, Note_off_c, 0, 72, 37
1, 44833, Control_c, 0, 64, 127
1, 44981, Control_c, 0, 67, 45
1, 45056, Control_c, 0, 64, 112
1, 45070, Control_c, 0, 64, 95
1, 45082, Note_on_c, 0, 74, 49
1, 45085, Control_c, 0, 64, 78
1, 45087, Note_on_c, 0, 69, 48
1, 45091, Note_on_c, 0, 54, 45
1, 45097, Note_on_c, 0, 62, 40
1, 45100, Control_c, 0, 64, 65
1, 45115, Control_c, 0, 64, 46
1, 45130, Control_c, 0, 64, 0
1, 45182, Control_c, 0, 64, 22
1, 45197, Control_c, 0, 64, 38
1, 45212, Control_c, 0, 64, 51
1, 45212, Control_c, 0, 67, 46
1, 45226, Control_c, 0, 64, 59
1, 45241, Control_c, 0, 64, 64
1, 45256, Control_c, 0, 64, 67
1, 45271, Control_c, 0, 64, 71
1, 45285, Control_c, 0, 64, 77
1, 45300, Control_c, 0, 64, 83
1, 45315, Control_c, 0, 64, 91
1, 45315, Control_c, 0, 67, 45
1, 45317, Note_off_c, 0, 62, 31
1, 45330, Control_c, 0, 64, 100
1, 45338, Note_off_c, 0, 54, 28
1, 45345, Control_c, 0, 64, 106
1, 45350, Note_off_c, 0, 69, 22
1, 45359, Control_c, 0, 64, 108
1, 45370, Note_off_c, 0, 74, 36
1, 45404, Control_c, 0, 64, 109
1, 45464, Control_c, 0, 64, 108
1, 45478, Control_c, 0, 64, 107
1, 45478, Control_c, 0, 67, 46
1, 45485, Note_on_c, 0, 72, 50
1, 45493, Control_c, 0, 64, 107
1, 45508, Control_c, 0, 64, 104
1, 45523, Control_c, 0, 64, 101
1, 45523, Control_c, 0, 67, 46
1, 45538, Control_c, 0, 64, 98
1, 45552, Control_c, 0, 64, 91
1, 45567, Control_c, 0, 64, 80
1, 45579, Note_on_c, 0, 71, 57
1, 45579, Note_off_c, 0, 72, 54
1, 45582, Control_c, 0, 64, 68
1, 45597, Control_c, 0, 64, 54
1, 45603, Note_on_c, 0, 55, 41
1, 45603, Note_on_c, 0, 62, 40
1, 45606, Note_on_c, 0, 67, 34
1, 45612, Control_c, 0, 64, 0
1, 45686, Control_c, 0, 64, 25
1, 45701, Control_c, 0, 64, 45
1, 45716, Control_c, 0, 64, 56
1, 45731, Control_c, 0, 64, 62
1, 45745, Control_c, 0, 64, 64
1, 45746, Note_off_c, 0, 55, 51
1, 45760, Control_c, 0, 64, 67
1, 45775, Control_c, 0, 64, 70
1, 45788, Note_off_c, 0, 62, 53
1, 45790, Control_c, 0, 64, 75
1, 45805, Control_c, 0, 64, 80
1, 45820, Note_off_c, 0, 71, 55
1, 45821, Control_c, 0, 64, 85
1, 45835, Control_c, 0, 64, 91
1, 45842, Note_off_c, 0, 67, 36
1, 45850, Control_c, 0, 64, 97
1, 45865, Control_c, 0, 64, 102
1, 45880, Control_c, 0, 64, 107
1, 45894, Control_c, 0, 64, 110
1, 45909, Control_c, 0, 64, 112
1, 46005, Control_c, 0, 64, 111
1, 46020, Control_c, 0, 64, 108
1, 46035, Control_c, 0, 64, 106
1, 46050, Control_c, 0, 64, 102
1, 46065, Control_c, 0, 64, 97
1, 46080, Control_c, 0, 64, 88
1, 46095, Control_c, 0, 64, 76
1, 46101, Note_on_c, 0, 69, 55
1, 46109, Control_c, 0, 64, 65
1, 46124, Control_c, 0, 64, 48
1, 46126, Note_on_c, 0, 67, 41
1, 46128, Note_on_c, 0, 53, 37
1, 46130, Note_on_c, 0, 62, 34
1, 46139, Note_on_c, 0, 55, 21
1, 46139, Control_c, 0, 64, 0
1, 46183, Control_c, 0, 64, 22
1, 46198, Control_c, 0, 64, 38
1, 46213, Control_c, 0, 64, 52
1, 46228, Control_c, 0, 64, 59
1, 46243, Control_c, 0, 64, 63
1, 46257, Control_c, 0, 64, 67
1, 46266, Note_off_c, 0, 62, 52
1, 46272, Control_c, 0, 64, 70
1, 46278, Note_off_c, 0, 69, 57
1, 46287, Control_c, 0, 64, 74
1, 46293, Note_off_c, 0, 53, 37
1, 46294, Note_off_c, 0, 67, 38
1, 46301, Control_c, 0, 64, 79
1, 46309, Note_off_c, 0, 55, 36
1, 46316, Control_c, 0, 64, 85
1, 46331, Control_c, 0, 64, 92
1, 46346, Control_c, 0, 64, 101
1, 46361, Control_c, 0, 64, 108
1, 46375, Control_c, 0, 64, 111
1, 46405, Control_c, 0, 64, 112
1, 46420, Control_c, 0, 64, 113
1, 46435, Control_c, 0, 64, 113
1, 46492, Note_on_c, 0, 71, 64
1, 46494, Note_on_c, 0, 55, 48
1, 46497, Note_on_c, 0, 62, 43
1, 46520, Note_on_c, 0, 67, 38
1, 46524, Control_c, 0, 64, 113
1, 46527, Note_off_c, 0, 62, 59
1, 46539, Control_c, 0, 64, 110
1, 46547, Note_off_c, 0, 71, 53
1, 46553, Poly_aftertouch_c, 0, 53, 127
1, 46554, Control_c, 0, 64, 107
1, 46556, Note_off_c, 0, 67, 51
1, 46568, Control_c, 0, 64, 102
1, 46574, Note_off_c, 0, 55, 0
1, 46578, Poly_aftertouch_c, 0, 53, 0
1, 46583, Control_c, 0, 64, 97
1, 46598, Control_c, 0, 64, 87
1, 46601, Note_on_c, 0, 72, 61
1, 46611, Poly_aftertouch_c, 0, 55, 127
1, 46613, Control_c, 0, 64, 75
1, 46613, Control_c, 0, 67, 47
1, 46625, Note_on_c, 0, 67, 48
1, 46628, Control_c, 0, 64, 62
1, 46630, Note_on_c, 0, 60, 55
1, 46634, Note_on_c, 0, 51, 44
1, 46643, Control_c, 0, 64, 38
1, 46658, Control_c, 0, 64, 0
1, 46659, Note_on_c, 0, 55, 3
1, 46754, Control_c, 0, 64, 25
1, 46769, Control_c, 0, 64, 43
1, 46784, Control_c, 0, 64, 55
1, 46798, Control_c, 0, 64, 61
1, 46804, Note_off_c, 0, 55, 43
1, 46813, Control_c, 0, 64, 65
1, 46828, Control_c, 0, 64, 68
1, 46843, Control_c, 0, 64, 71
1, 46858, Control_c, 0, 64, 76
1, 46865, Note_off_c, 0, 60, 30
1, 46873, Control_c, 0, 64, 82
1, 46888, Control_c, 0, 64, 87
1, 46892, Note_off_c, 0, 72, 59
1, 46894, Note_off_c, 0, 67, 38
1, 46903, Control_c, 0, 64, 94
1, 46918, Control_c, 0, 64, 104
1, 46932, Control_c, 0, 64, 116
1, 46944, Note_off_c, 0, 51, 59
1, 46947, Control_c, 0, 64, 127
1, 46992, Control_c, 0, 67, 46
1, 47124, Control_c, 0, 64, 123
1, 47139, Control_c, 0, 64, 113
1, 47154, Control_c, 0, 64, 106
1, 47169, Control_c, 0, 64, 99
1, 47184, Control_c, 0, 64, 86
1, 47184, Control_c, 0, 67, 47
1, 47186, Note_on_c, 0, 74, 53
1, 47195, Note_on_c, 0, 67, 46
1, 47198, Control_c, 0, 64, 72
1, 47200, Note_on_c, 0, 55, 43
1, 47213, Control_c, 0, 64, 60
1, 47215, Note_on_c, 0, 59, 36
1, 47227, Note_on_c, 0, 50, 32
1, 47228, Control_c, 0, 64, 29
1, 47242, Control_c, 0, 64, 0
1, 47332, Control_c, 0, 64, 32
1, 47347, Control_c, 0, 64, 48
1, 47362, Control_c, 0, 64, 58
1, 47365, Note_off_c, 0, 59, 56
1, 47377, Control_c, 0, 64, 63
1, 47385, Note_off_c, 0, 50, 49
1, 47391, Control_c, 0, 64, 66
1, 47393, Note_off_c, 0, 67, 56
1, 47404, Note_off_c, 0, 74, 57
1, 47406, Control_c, 0, 64, 68
1, 47424, Note_off_c, 0, 55, 36
1, 47429, Control_c, 0, 64, 71
1, 47444, Control_c, 0, 64, 74
1, 47459, Control_c, 0, 64, 78
1, 47474, Control_c, 0, 64, 82
1, 47489, Control_c, 0, 64, 87
1, 47503, Control_c, 0, 64, 92
1, 47518, Control_c, 0, 64, 97
1, 47533, Control_c, 0, 64, 100
1, 47547, Control_c, 0, 64, 102
1, 47562, Control_c, 0, 64, 105
1, 47577, Control_c, 0, 64, 107
1, 47592, Control_c, 0, 64, 111
1, 47607, Control_c, 0, 64, 116
1, 47621, Control_c, 0, 64, 127
1, 47755, Control_c, 0, 67, 48
1, 47767, Note_on_c, 0, 48, 46
1, 47772, Note_on_c, 0, 60, 43
1, 47772, Note_on_c, 0, 75, 47
1, 47780, Note_on_c, 0, 67, 43
1, 47807, Note_off_c, 0, 60, 58
1, 47821, Note_off_c, 0, 67, 56
1, 47824, Note_off_c, 0, 75, 60
1, 47883, Note_on_c, 0, 74, 56
1, 47888, Control_c, 0, 64, 117
1, 47903, Control_c, 0, 64, 107
1, 47911, Note_on_c, 0, 67, 40
1, 47918, Control_c, 0, 64, 99
1, 47931, Note_on_c, 0, 55, 38
1, 47933, Control_c, 0, 64, 89
1, 47943, Note_on_c, 0, 59, 41
1, 47947, Control_c, 0, 64, 80
1, 47962, Control_c, 0, 64, 71
1, 47977, Control_c, 0, 64, 64
1, 47992, Control_c, 0, 64, 56
1, 47992, Control_c, 0, 67, 48
1, 48007, Control_c, 0, 64, 46
1, 48008, Note_off_c, 0, 48, 35
1, 48021, Control_c, 0, 64, 41
1, 48036, Control_c, 0, 64, 40
1, 48051, Control_c, 0, 64, 39
1, 48065, Control_c, 0, 64, 33
1, 48080, Control_c, 0, 64, 18
1, 48095, Control_c, 0, 64, 0
1, 48533, Control_c, 0, 67, 48
1, 48548, Control_c, 0, 64, 27
1, 48563, Control_c, 0, 64, 39
1, 48578, Control_c, 0, 64, 48
1, 48593, Control_c, 0, 64, 55
1, 48608, Control_c, 0, 64, 58
1, 48623, Control_c, 0, 64, 60
1, 48638, Control_c, 0, 64, 61
1, 48652, Control_c, 0, 64, 62
1, 48667, Control_c, 0, 64, 63
1, 48667, Control_c, 0, 67, 47
1, 48682, Control_c, 0, 64, 64
1, 48696, Control_c, 0, 64, 65
1, 48711, Control_c, 0, 64, 66
1, 48726, Control_c, 0, 64, 67
1, 48741, Control_c, 0, 64, 68
1, 48756, Control_c, 0, 64, 69
1, 48770, Control_c, 0, 64, 71
1, 48785, Control_c, 0, 64, 73
1, 48800, Control_c, 0, 64, 76
1, 48815, Control_c, 0, 64, 79
1, 48830, Control_c, 0, 64, 83
1, 48844, Control_c, 0, 64, 88
1, 48859, Control_c, 0, 64, 94
1, 48859, Control_c, 0, 67, 46
1, 48874, Control_c, 0, 64, 102
1, 48876, Note_off_c, 0, 59, 33
1, 48889, Control_c, 0, 64, 111
1, 48889, Control_c, 0, 67, 46
1, 48903, Control_c, 0, 64, 127
1, 48903, Control_c, 0, 67, 45
1, 48921, Note_off_c, 0, 74, 45
1, 48926, Control_c, 0, 67, 45
1, 48956, Control_c, 0, 67, 43
1, 48963, Note_off_c, 0, 67, 35
1, 48966, Note_off_c, 0, 55, 43
1, 48970, Control_c, 0, 67, 43
1, 48985, Control_c, 0, 67, 42
1, 49000, Control_c, 0, 67, 41
1, 49015, Control_c, 0, 67, 40
1, 49031, Control_c, 0, 67, 40
1, 49046, Control_c, 0, 67, 39
1, 49061, Control_c, 0, 67, 38
1, 49075, Control_c, 0, 67, 37
1, 49090, Control_c, 0, 67, 35
1, 49105, Control_c, 0, 67, 30
1, 49119, Control_c, 0, 67, 25
1, 49134, Control_c, 0, 67, 21
1, 49149, Control_c, 0, 67, 18
1, 49164, Control_c, 0, 67, 16
1, 49179, Control_c, 0, 67, 13
1, 49193, Control_c, 0, 67, 9
1, 49208, Control_c, 0, 67, 0
1, 49513, Note_on_c, 0, 71, 82
1, 49523, Note_on_c, 0, 55, 62
1, 49528, Note_on_c, 0, 67, 60
1, 49533, Note_on_c, 0, 62, 63
1, 49534, Control_c, 0, 64, 107
1, 49537, Note_on_c, 0, 43, 57
1, 49549, Control_c, 0, 64, 80
1, 49564, Control_c, 0, 64, 64
1, 49579, Control_c, 0, 64, 41
1, 49593, Control_c, 0, 64, 0
1, 49608, Control_c, 0, 64, 21
1, 49623, Control_c, 0, 64, 41
1, 49638, Control_c, 0, 64, 59
1, 49653, Control_c, 0, 64, 67
1, 49675, Control_c, 0, 64, 79
1, 49690, Control_c, 0, 64, 123
1, 49703, Note_off_c, 0, 71, 57
1, 49705, Control_c, 0, 64, 127
1, 49707, Note_off_c, 0, 62, 59
1, 49727, Note_off_c, 0, 67, 49
1, 49761, Note_off_c, 0, 43, 59
1, 49769, Note_off_c, 0, 55, 59
1, 49900, Note_on_c, 0, 72, 79
1, 49907, Note_on_c, 0, 63, 74
1, 49913, Note_on_c, 0, 55, 68
1, 49918, Note_on_c, 0, 43, 66
1, 49934, Note_off_c, 0, 63, 69
1, 49939, Note_on_c, 0, 67, 42
1, 49949, Note_off_c, 0, 55, 57
1, 49957, Note_off_c, 0, 43, 61
1, 49968, Note_off_c, 0, 67, 54
1, 49970, Note_off_c, 0, 72, 62
1, 50009, Note_on_c, 0, 74, 87
1, 50017, Control_c, 0, 64, 111
1, 50020, Note_on_c, 0, 67, 64
1, 50021, Note_on_c, 0, 65, 71
1, 50031, Control_c, 0, 64, 81
1, 50037, Note_on_c, 0, 43, 67
1, 50039, Note_on_c, 0, 55, 71
1, 50046, Control_c, 0, 64, 63
1, 50061, Control_c, 0, 64, 12
1, 50076, Control_c, 0, 64, 0
1, 50179, Control_c, 0, 64, 46
1, 50194, Control_c, 0, 64, 61
1, 50209, Control_c, 0, 64, 68
1, 50223, Control_c, 0, 64, 78
1, 50238, Control_c, 0, 64, 99
1, 50253, Control_c, 0, 64, 127
1, 50255, Note_off_c, 0, 74, 55
1, 50259, Note_off_c, 0, 43, 57
1, 50260, Note_off_c, 0, 55, 57
1, 50274, Note_off_c, 0, 65, 50
1, 50295, Note_off_c, 0, 67, 42
1, 50504, Note_on_c, 0, 74, 91
1, 50513, Control_c, 0, 64, 104
1, 50521, Note_on_c, 0, 67, 71
1, 50521, Note_on_c, 0, 65, 70
1, 50523, Note_on_c, 0, 55, 66
1, 50527, Control_c, 0, 64, 76
1, 50528, Note_on_c, 0, 43, 58
1, 50542, Control_c, 0, 64, 52
1, 50557, Control_c, 0, 64, 0
1, 50647, Control_c, 0, 64, 32
1, 50662, Control_c, 0, 64, 57
1, 50676, Control_c, 0, 64, 66
1, 50691, Control_c, 0, 64, 75
1, 50706, Control_c, 0, 64, 98
1, 50712, Note_off_c, 0, 65, 54
1, 50713, Note_off_c, 0, 67, 56
1, 50717, Note_off_c, 0, 55, 60
1, 50718, Note_off_c, 0, 43, 42
1, 50721, Control_c, 0, 64, 127
1, 50723, Note_off_c, 0, 74, 56
1, 50979, Note_on_c, 0, 74, 90
1, 50987, Control_c, 0, 64, 87
1, 50990, Note_on_c, 0, 55, 70
1, 50992, Note_on_c, 0, 67, 65
1, 50993, Note_on_c, 0, 65, 72
1, 50997, Note_on_c, 0, 43, 62
1, 51002, Control_c, 0, 64, 63
1, 51017, Control_c, 0, 64, 9
1, 51032, Control_c, 0, 64, 0
1, 51091, Control_c, 0, 64, 48
1, 51106, Control_c, 0, 64, 62
1, 51121, Control_c, 0, 64, 69
1, 51136, Control_c, 0, 64, 80
1, 51150, Control_c, 0, 64, 115
1, 51172, Control_c, 0, 64, 127
1, 51176, Note_off_c, 0, 43, 57
1, 51186, Note_off_c, 0, 65, 58
1, 51198, Note_off_c, 0, 55, 59
1, 51208, Note_off_c, 0, 74, 56
1, 51227, Note_off_c, 0, 67, 37
1, 51455, Control_c, 0, 64, 95
1, 51462, Note_on_c, 0, 72, 84
1, 51465, Note_on_c, 0, 67, 74
1, 51466, Note_on_c, 0, 55, 64
1, 51466, Note_on_c, 0, 63, 77
1, 51470, Control_c, 0, 64, 68
1, 51471, Note_on_c, 0, 43, 55
1, 51485, Control_c, 0, 64, 44
1, 51500, Control_c, 0, 64, 0
1, 51559, Control_c, 0, 64, 42
1, 51574, Control_c, 0, 64, 61
1, 51586, Note_off_c, 0, 63, 60
1, 51589, Control_c, 0, 64, 68
1, 51604, Control_c, 0, 64, 79
1, 51615, Note_off_c, 0, 43, 56
1, 51618, Control_c, 0, 64, 110
1, 51619, Note_off_c, 0, 67, 53
1, 51633, Control_c, 0, 64, 127
1, 51658, Note_off_c, 0, 55, 56
1, 51663, Note_off_c, 0, 72, 51
1, 51839, Note_on_c, 0, 74, 73
1, 51846, Note_on_c, 0, 65, 66
1, 51847, Note_on_c, 0, 55, 67
1, 51852, Note_on_c, 0, 43, 56
1, 51875, Note_off_c, 0, 65, 65
1, 51891, Note_off_c, 0, 43, 59
1, 51893, Note_off_c, 0, 55, 58
1, 51893, Note_off_c, 0, 74, 61
1, 51962, Note_on_c, 0, 75, 86
1, 51986, Note_on_c, 0, 67, 55
1, 51992, Note_on_c, 0, 43, 56
1, 51996, Control_c, 0, 64, 110
1, 52003, Note_on_c, 0, 55, 62
1, 52011, Control_c, 0, 64, 86
1, 52026, Control_c, 0, 64, 71
1, 52041, Control_c, 0, 64, 54
1, 52056, Control_c, 0, 64, 0
1, 52188, Control_c, 0, 64, 47
1, 52203, Control_c, 0, 64, 61
1, 52219, Control_c, 0, 64, 68
1, 52234, Control_c, 0, 64, 76
1, 52249, Control_c, 0, 64, 91
1, 52264, Control_c, 0, 64, 127
1, 52270, Note_off_c, 0, 43, 59
1, 52301, Note_off_c, 0, 55, 57
1, 52441, Control_c, 0, 64, 104
1, 52456, Control_c, 0, 64, 78
1, 52471, Control_c, 0, 64, 62
1, 52480, Note_on_c, 0, 57, 66
1, 52486, Control_c, 0, 64, 0
1, 52489, Note_on_c, 0, 45, 57
1, 52590, Control_c, 0, 64, 34
1, 52605, Control_c, 0, 64, 57
1, 52619, Control_c, 0, 64, 65
1, 52634, Control_c, 0, 64, 71
1, 52649, Control_c, 0, 64, 82
1, 52669, Note_off_c, 0, 67, 55
1, 52671, Control_c, 0, 64, 100
1, 52673, Note_off_c, 0, 75, 58
1, 52674, Note_off_c, 0, 45, 57
1, 52686, Control_c, 0, 64, 127
1, 52706, Note_off_c, 0, 57, 60
1, 52847, Note_on_c, 0, 74, 78
1, 52848, Note_on_c, 0, 59, 72
1, 52849, Note_on_c, 0, 47, 64
1, 52857, Note_on_c, 0, 65, 68
1, 52867, Note_on_c, 0, 67, 57
1, 52882, Note_off_c, 0, 47, 62
1, 52885, Note_off_c, 0, 65, 66
1, 52891, Note_off_c, 0, 59, 58
1, 52908, Note_off_c, 0, 67, 60
1, 52913, Note_off_c, 0, 74, 61
1, 52937, Control_c, 0, 64, 117
1, 52952, Control_c, 0, 64, 86
1, 52961, Note_on_c, 0, 72, 86
1, 52967, Control_c, 0, 64, 64
1, 52970, Note_on_c, 0, 67, 60
1, 52974, Note_on_c, 0, 63, 73
1, 52977, Note_on_c, 0, 60, 69
1, 52982, Control_c, 0, 64, 12
1, 52993, Note_on_c, 0, 48, 55
1, 52997, Control_c, 0, 64, 0
1, 53116, Control_c, 0, 64, 30
1, 53131, Control_c, 0, 64, 54
1, 53134, Note_off_c, 0, 67, 54
1, 53146, Control_c, 0, 64, 64
1, 53160, Control_c, 0, 64, 71
1, 53163, Note_off_c, 0, 60, 62
1, 53175, Control_c, 0, 64, 83
1, 53190, Control_c, 0, 64, 127
1, 53211, Note_off_c, 0, 63, 61
1, 53240, Note_off_c, 0, 48, 60
1, 53273, Note_off_c, 0, 72, 53
1, 53521, Note_on_c, 0, 74, 86
1, 53530, Note_on_c, 0, 65, 71
1, 53533, Note_on_c, 0, 68, 71
1, 53544, Note_on_c, 0, 53, 71
1, 53553, Control_c, 0, 64, 92
1, 53554, Note_on_c, 0, 41, 62
1, 53568, Control_c, 0, 64, 73
1, 53583, Control_c, 0, 64, 57
1, 53598, Control_c, 0, 64, 0
1, 53701, Control_c, 0, 64, 37
1, 53716, Control_c, 0, 64, 59
1, 53731, Control_c, 0, 64, 67
1, 53746, Control_c, 0, 64, 76
1, 53747, Note_off_c, 0, 74, 57
1, 53761, Control_c, 0, 64, 97
1, 53769, Note_off_c, 0, 65, 61
1, 53775, Control_c, 0, 64, 127
1, 53796, Note_off_c, 0, 53, 60
1, 53805, Note_off_c, 0, 41, 56
1, 53820, Note_off_c, 0, 68, 53
1, 53943, Note_on_c, 0, 41, 68
1, 53944, Note_on_c, 0, 72, 77
1, 53946, Note_on_c, 0, 53, 71
1, 53949, Note_on_c, 0, 63, 73
1, 53955, Note_on_c, 0, 68, 63
1, 53974, Note_off_c, 0, 63, 68
1, 53978, Note_off_c, 0, 41, 62
1, 53985, Note_off_c, 0, 53, 60
1, 53987, Note_off_c, 0, 68, 65
1, 54018, Note_off_c, 0, 72, 58
1, 54028, Control_c, 0, 64, 101
1, 54043, Control_c, 0, 64, 75
1, 54050, Note_on_c, 0, 71, 81
1, 54058, Note_on_c, 0, 67, 68
1, 54058, Control_c, 0, 64, 58
1, 54062, Note_on_c, 0, 62, 62
1, 54073, Control_c, 0, 64, 0
1, 54083, Note_on_c, 0, 55, 63
1, 54087, Note_on_c, 0, 43, 59
1, 54288, Control_c, 0, 64, 46
1, 54303, Control_c, 0, 64, 61
1, 54317, Control_c, 0, 64, 67
1, 54332, Control_c, 0, 64, 76
1, 54347, Control_c, 0, 64, 90
1, 54362, Control_c, 0, 64, 127
1, 54426, Note_off_c, 0, 55, 56
1, 54435, Note_off_c, 0, 62, 58
1, 54474, Note_off_c, 0, 67, 37
1, 54552, Note_on_c, 0, 69, 74
1, 54555, Control_c, 0, 64, 94
1, 54561, Note_on_c, 0, 55, 60
1, 54561, Note_on_c, 0, 67, 41
1, 54570, Control_c, 0, 64, 72
1, 54582, Note_on_c, 0, 60, 47
1, 54584, Control_c, 0, 64, 54
1, 54599, Control_c, 0, 64, 0
1, 54610, Note_off_c, 0, 71, 53
1, 54644, Control_c, 0, 64, 23
1, 54659, Control_c, 0, 64, 50
1, 54674, Control_c, 0, 64, 61
1, 54689, Control_c, 0, 64, 66
1, 54695, Note_off_c, 0, 43, 55
1, 54704, Control_c, 0, 64, 72
1, 54719, Control_c, 0, 64, 79
1, 54729, Note_off_c, 0, 67, 39
1, 54733, Control_c, 0, 64, 91
1, 54748, Control_c, 0, 64, 105
1, 54763, Control_c, 0, 64, 127
1, 54820, Note_off_c, 0, 60, 38
1, 54853, Note_off_c, 0, 55, 55
1, 54916, Note_on_c, 0, 71, 79
1, 54917, Note_on_c, 0, 53, 69
1, 54919, Note_on_c, 0, 55, 42
1, 54939, Note_off_c, 0, 69, 60
1, 54939, Note_on_c, 0, 67, 56
1, 54944, Note_on_c, 0, 60, 46
1, 54954, Note_off_c, 0, 53, 61
1, 54957, Note_off_c, 0, 55, 63
1, 54972, Note_off_c, 0, 67, 64
1, 54972, Note_off_c, 0, 60, 52
1, 54989, Note_off_c, 0, 71, 58
1, 55022, Note_on_c, 0, 72, 83
1, 55022, Control_c, 0, 64, 92
1, 55030, Note_on_c, 0, 55, 70
1, 55037, Control_c, 0, 64, 72
1, 55043, Note_on_c, 0, 51, 60
1, 55044, Note_on_c, 0, 60, 72
1, 55048, Note_on_c, 0, 67, 61
1, 55052, Control_c, 0, 64, 55
1, 55067, Control_c, 0, 64, 0
1, 55140, Control_c, 0, 64, 40
1, 55155, Control_c, 0, 64, 56
1, 55169, Control_c, 0, 64, 63
1, 55184, Control_c, 0, 64, 68
1, 55199, Control_c, 0, 64, 75
1, 55210, Note_off_c, 0, 60, 57
1, 55213, Control_c, 0, 64, 85
1, 55228, Control_c, 0, 64, 97
1, 55243, Control_c, 0, 64, 127
1, 55246, Note_off_c, 0, 55, 59
1, 55246, Note_off_c, 0, 67, 59
1, 55291, Note_off_c, 0, 51, 65
1, 55293, Note_off_c, 0, 72, 63
1, 55640, Note_on_c, 0, 75, 84
1, 55653, Note_on_c, 0, 67, 72
1, 55666, Control_c, 0, 64, 108
1, 55668, Note_on_c, 0, 43, 59
1, 55678, Note_on_c, 0, 31, 54
1, 55681, Control_c, 0, 64, 86
1, 55696, Control_c, 0, 64, 70
1, 55710, Control_c, 0, 64, 55
1, 55725, Control_c, 0, 64, 0
1, 55829, Control_c, 0, 64, 38
1, 55843, Control_c, 0, 64, 58
1, 55858, Control_c, 0, 64, 66
1, 55873, Control_c, 0, 64, 74
1, 55888, Control_c, 0, 64, 85
1, 55903, Control_c, 0, 64, 104
1, 55917, Control_c, 0, 64, 127
1, 55944, Note_off_c, 0, 67, 59
1, 55963, Note_off_c, 0, 75, 55
1, 55977, Note_off_c, 0, 43, 38
1, 55994, Note_off_c, 0, 31, 27
1, 56190, Note_on_c, 0, 31, 38
1, 56191, Note_on_c, 0, 74, 67
1, 56205, Note_on_c, 0, 65, 52
1, 56206, Note_on_c, 0, 43, 39
1, 56215, Note_on_c, 0, 67, 40
1, 56230, Note_off_c, 0, 65, 62
1, 56295, Note_off_c, 0, 74, 60
1, 56299, Note_off_c, 0, 67, 0
1, 56304, Control_c, 0, 64, 103
1, 56319, Control_c, 0, 64, 87
1, 56332, Note_on_c, 0, 72, 59
1, 56333, Control_c, 0, 64, 75
1, 56336, Poly_aftertouch_c, 0, 67, 127
1, 56348, Control_c, 0, 64, 67
1, 56350, Note_on_c, 0, 36, 34
1, 56354, Note_on_c, 0, 63, 43
1, 56357, Note_off_c, 0, 31, 39
1, 56363, Control_c, 0, 64, 59
1, 56377, Control_c, 0, 64, 50
1, 56392, Control_c, 0, 64, 42
1, 56415, Control_c, 0, 64, 36
1, 56430, Control_c, 0, 64, 30
1, 56445, Control_c, 0, 64, 0
1, 56948, Control_c, 0, 64, 12
1, 56963, Control_c, 0, 64, 31
1, 56978, Control_c, 0, 64, 40
1, 56993, Control_c, 0, 64, 49
1, 57008, Control_c, 0, 64, 55
1, 57023, Control_c, 0, 64, 59
1, 57038, Control_c, 0, 64, 61
1, 57053, Control_c, 0, 64, 62
1, 57068, Control_c, 0, 64, 63
1, 57082, Control_c, 0, 64, 64
1, 57097, Control_c, 0, 64, 66
1, 57112, Control_c, 0, 64, 67
1, 57127, Control_c, 0, 64, 70
1, 57142, Control_c, 0, 64, 73
1, 57164, Control_c, 0, 64, 77
1, 57179, Control_c, 0, 64, 82
1, 57194, Control_c, 0, 64, 86
1, 57209, Control_c, 0, 64, 92
1, 57223, Control_c, 0, 64, 97
1, 57238, Control_c, 0, 64, 102
1, 57253, Control_c, 0, 64, 110
1, 57268, Control_c, 0, 64, 127
1, 57335, Poly_aftertouch_c, 0, 67, 0
1, 57350, Note_off_c, 0, 43, 35
1, 57356, Note_off_c, 0, 63, 36
1, 57431, Note_off_c, 0, 36, 39
1, 57463, Note_off_c, 0, 72, 60
1, 57786, Control_c, 0, 64, 113
1, 57802, Control_c, 0, 64, 104
1, 57817, Control_c, 0, 64, 98
1, 57831, Control_c, 0, 64, 93
1, 57846, Control_c, 0, 64, 89
1, 57861, Control_c, 0, 64, 85
1, 57876, Control_c, 0, 64, 81
1, 57891, Control_c, 0, 64, 78
1, 57913, Control_c, 0, 64, 75
1, 57928, Control_c, 0, 64, 74
1, 57943, Control_c, 0, 64, 72
1, 57958, Control_c, 0, 64, 71
1, 57973, Control_c, 0, 64, 69
1, 57987, Control_c, 0, 64, 68
1, 58002, Control_c, 0, 64, 66
1, 58017, Control_c, 0, 64, 64
1, 58032, Control_c, 0, 64, 63
1, 58046, Control_c, 0, 64, 62
1, 58061, Control_c, 0, 64, 61
1, 58076, Control_c, 0, 64, 60
1, 58091, Control_c, 0, 64, 58
1, 58102, Note_on_c, 0, 74, 46
1, 58106, Control_c, 0, 64, 56
1, 58120, Control_c, 0, 64, 52
1, 58135, Control_c, 0, 64, 46
1, 58150, Control_c, 0, 64, 36
1, 58165, Control_c, 0, 64, 18
1, 58179, Control_c, 0, 64, 0
1, 58489, Note_on_c, 0, 75, 54
1, 58534, Note_off_c, 0, 74, 57
1, 58579, Note_off_c, 0, 75, 55
1, 58597, Note_on_c, 0, 77, 63
1, 58736, Control_c, 0, 64, 11
1, 58751, Control_c, 0, 64, 39
1, 58766, Control_c, 0, 64, 53
1, 58780, Control_c, 0, 64, 61
1, 58795, Control_c, 0, 64, 64
1, 58810, Control_c, 0, 64, 68
1, 58825, Control_c, 0, 64, 72
1, 58840, Control_c, 0, 64, 78
1, 58855, Control_c, 0, 64, 84
1, 58869, Control_c, 0, 64, 93
1, 58884, Control_c, 0, 64, 106
1, 58899, Control_c, 0, 64, 127
1, 58913, Note_off_c, 0, 77, 54
1, 59090, Note_on_c, 0, 74, 52
1, 59093, Note_on_c, 0, 77, 61
1, 59098, Note_on_c, 0, 65, 51
1, 59099, Note_on_c, 0, 71, 51
1, 59106, Control_c, 0, 64, 107
1, 59109, Note_on_c, 0, 68, 46
1, 59121, Control_c, 0, 64, 87
1, 59136, Control_c, 0, 64, 70
1, 59151, Control_c, 0, 64, 56
1, 59166, Control_c, 0, 64, 21
1, 59180, Control_c, 0, 64, 0
1, 59210, Control_c, 0, 64, 23
1, 59225, Control_c, 0, 64, 42
1, 59240, Control_c, 0, 64, 55
1, 59254, Control_c, 0, 64, 62
1, 59269, Control_c, 0, 64, 65
1, 59284, Control_c, 0, 64, 70
1, 59299, Control_c, 0, 64, 77
1, 59314, Control_c, 0, 64, 87
1, 59328, Control_c, 0, 64, 107
1, 59338, Note_off_c, 0, 77, 52
1, 59343, Control_c, 0, 64, 127
1, 59420, Note_off_c, 0, 71, 41
1, 59448, Note_off_c, 0, 74, 52
1, 59456, Note_off_c, 0, 68, 35
1, 59545, Note_on_c, 0, 62, 50
1, 59547, Note_on_c, 0, 77, 78
1, 59567, Note_on_c, 0, 68, 61
1, 59574, Control_c, 0, 64, 117
1, 59574, Note_on_c, 0, 70, 51
1, 59589, Control_c, 0, 64, 90
1, 59597, Note_off_c, 0, 65, 54
1, 59603, Control_c, 0, 64, 72
1, 59618, Control_c, 0, 64, 60
1, 59633, Control_c, 0, 64, 35
1, 59648, Control_c, 0, 64, 0
1, 59662, Control_c, 0, 64, 15
1, 59676, Control_c, 0, 64, 30
1, 59691, Control_c, 0, 64, 43
1, 59706, Control_c, 0, 64, 55
1, 59721, Control_c, 0, 64, 61
1, 59736, Control_c, 0, 64, 65
1, 59750, Control_c, 0, 64, 69
1, 59765, Control_c, 0, 64, 77
1, 59780, Control_c, 0, 64, 88
1, 59795, Control_c, 0, 64, 111
1, 59806, Note_off_c, 0, 68, 49
1, 59810, Control_c, 0, 64, 127
1, 59817, Note_off_c, 0, 77, 51
1, 59935, Note_on_c, 0, 75, 59
1, 59949, Note_off_c, 0, 70, 19
1, 59976, Note_off_c, 0, 75, 62
1, 59987, Note_on_c, 0, 77, 75
1, 60029, Note_off_c, 0, 62, 56
1, 60030, Note_on_c, 0, 58, 56
1, 60032, Control_c, 0, 64, 102
1, 60040, Note_on_c, 0, 75, 70
1, 60047, Control_c, 0, 64, 83
1, 60051, Note_on_c, 0, 70, 72
1, 60057, Note_on_c, 0, 68, 37
1, 60062, Control_c, 0, 64, 68
1, 60076, Control_c, 0, 64, 54
1, 60091, Control_c, 0, 64, 0
1, 60099, Note_off_c, 0, 77, 61
1, 60248, Control_c, 0, 64, 39
1, 60263, Control_c, 0, 64, 56
1, 60272, Note_off_c, 0, 70, 57
1, 60278, Control_c, 0, 64, 63
1, 60290, Note_off_c, 0, 68, 51
1, 60293, Control_c, 0, 64, 67
1, 60307, Control_c, 0, 64, 72
1, 60322, Control_c, 0, 64, 80
1, 60337, Control_c, 0, 64, 90
1, 60345, Note_off_c, 0, 75, 53
1, 60352, Note_off_c, 0, 58, 55
1, 60352, Control_c, 0, 64, 102
1, 60367, Control_c, 0, 64, 127
1, 60451, Note_on_c, 0, 74, 76
1, 60522, Note_off_c, 0, 74, 61
1, 60604, Control_c, 0, 64, 114
1, 60610, Note_on_c, 0, 79, 68
1, 60619, Control_c, 0, 64, 96
1, 60632, Note_on_c, 0, 70, 54
1, 60633, Control_c, 0, 64, 82
1, 60636, Note_on_c, 0, 67, 48
1, 60637, Note_on_c, 0, 63, 41
1, 60648, Control_c, 0, 64, 71
1, 60663, Control_c, 0, 64, 61
1, 60678, Control_c, 0, 64, 40
1, 60693, Control_c, 0, 64, 0
1, 60812, Control_c, 0, 64, 35
1, 60826, Control_c, 0, 64, 52
1, 60841, Control_c, 0, 64, 60
1, 60856, Control_c, 0, 64, 65
1, 60859, Note_off_c, 0, 67, 58
1, 60871, Control_c, 0, 64, 69
1, 60886, Control_c, 0, 64, 73
1, 60907, Control_c, 0, 64, 77
1, 60922, Control_c, 0, 64, 82
1, 60925, Note_off_c, 0, 70, 62
1, 60937, Control_c, 0, 64, 86
1, 60944, Note_off_c, 0, 63, 37
1, 60952, Control_c, 0, 64, 91
1, 60967, Control_c, 0, 64, 96
1, 60981, Control_c, 0, 64, 99
1, 60996, Control_c, 0, 64, 99
1, 61042, Control_c, 0, 64, 98
1, 61056, Control_c, 0, 64, 96
1, 61071, Control_c, 0, 64, 93
1, 61086, Control_c, 0, 64, 90
1, 61101, Control_c, 0, 64, 84
1, 61116, Control_c, 0, 64, 76
1, 61121, Note_on_c, 0, 68, 48
1, 61123, Note_on_c, 0, 74, 48
1, 61131, Control_c, 0, 64, 67
1, 61135, Note_on_c, 0, 65, 35
1, 61142, Note_on_c, 0, 62, 34
1, 61145, Note_on_c, 0, 59, 31
1, 61145, Control_c, 0, 64, 55
1, 61160, Control_c, 0, 64, 16
1, 61175, Control_c, 0, 64, 0
1, 61220, Control_c, 0, 64, 24
1, 61235, Control_c, 0, 64, 40
1, 61249, Control_c, 0, 64, 55
1, 61261, Note_off_c, 0, 79, 35
1, 61264, Control_c, 0, 64, 62
1, 61279, Control_c, 0, 64, 65
1, 61294, Control_c, 0, 64, 69
1, 61309, Control_c, 0, 64, 73
1, 61323, Control_c, 0, 64, 77
1, 61338, Control_c, 0, 64, 83
1, 61339, Note_off_c, 0, 68, 34
1, 61353, Control_c, 0, 64, 87
1, 61359, Note_off_c, 0, 59, 36
1, 61368, Control_c, 0, 64, 92
1, 61382, Control_c, 0, 64, 95
1, 61383, Note_off_c, 0, 62, 36
1, 61397, Control_c, 0, 64, 97
1, 61401, Note_off_c, 0, 65, 37
1, 61412, Control_c, 0, 64, 98
1, 61427, Control_c, 0, 64, 98
1, 61442, Control_c, 0, 64, 99
1, 61456, Control_c, 0, 64, 99
1, 61497, Note_on_c, 0, 77, 63
1, 61506, Note_off_c, 0, 74, 35
1, 61530, Control_c, 0, 64, 99
1, 61545, Control_c, 0, 64, 98
1, 61560, Control_c, 0, 64, 97
1, 61575, Control_c, 0, 64, 95
1, 61587, Note_off_c, 0, 77, 58
1, 61590, Control_c, 0, 64, 90
1, 61602, Note_on_c, 0, 75, 62
1, 61604, Control_c, 0, 64, 83
1, 61619, Control_c, 0, 64, 69
1, 61631, Note_on_c, 0, 63, 36
1, 61634, Control_c, 0, 64, 57
1, 61640, Note_on_c, 0, 67, 40
1, 61651, Note_on_c, 0, 60, 35
1, 61656, Control_c, 0, 64, 15
1, 61671, Control_c, 0, 64, 0
1, 61745, Control_c, 0, 64, 24
1, 61760, Control_c, 0, 64, 45
1, 61775, Control_c, 0, 64, 57
1, 61782, Note_off_c, 0, 60, 63
1, 61789, Control_c, 0, 64, 63
1, 61796, Note_off_c, 0, 63, 62
1, 61805, Control_c, 0, 64, 66
1, 61820, Control_c, 0, 64, 69
1, 61828, Note_off_c, 0, 75, 61
1, 61835, Control_c, 0, 64, 73
1, 61850, Control_c, 0, 64, 79
1, 61865, Control_c, 0, 64, 85
1, 61867, Note_off_c, 0, 67, 48
1, 61879, Control_c, 0, 64, 94
1, 61894, Control_c, 0, 64, 104
1, 61909, Control_c, 0, 64, 127
1, 62149, Note_on_c, 0, 74, 59
1, 62167, Note_on_c, 0, 68, 49
1, 62168, Note_on_c, 0, 65, 47
1, 62176, Control_c, 0, 64, 100
1, 62183, Note_on_c, 0, 56, 41
1, 62186, Note_on_c, 0, 53, 42
1, 62191, Control_c, 0, 64, 80
1, 62205, Control_c, 0, 64, 66
1, 62220, Control_c, 0, 64, 49
1, 62235, Control_c, 0, 64, 20
1, 62250, Control_c, 0, 64, 15
1, 62265, Control_c, 0, 64, 26
1, 62279, Control_c, 0, 64, 41
1, 62294, Control_c, 0, 64, 53
1, 62309, Control_c, 0, 64, 60
1, 62324, Control_c, 0, 64, 64
1, 62326, Note_off_c, 0, 74, 57
1, 62339, Control_c, 0, 64, 67
1, 62343, Note_off_c, 0, 65, 61
1, 62353, Control_c, 0, 64, 71
1, 62368, Control_c, 0, 64, 76
1, 62382, Note_off_c, 0, 68, 52
1, 62383, Control_c, 0, 64, 82
1, 62405, Control_c, 0, 64, 90
1, 62420, Control_c, 0, 64, 102
1, 62435, Control_c, 0, 64, 127
1, 62436, Note_off_c, 0, 56, 36
1, 62454, Note_off_c, 0, 53, 43
1, 62553, Note_on_c, 0, 72, 51
1, 62555, Note_on_c, 0, 63, 44
1, 62559, Note_on_c, 0, 68, 34
1, 62582, Note_off_c, 0, 63, 60
1, 62592, Note_off_c, 0, 68, 51
1, 62597, Note_off_c, 0, 72, 62
1, 62657, Note_on_c, 0, 71, 54
1, 62658, Control_c, 0, 64, 99
1, 62666, Note_on_c, 0, 67, 46
1, 62673, Control_c, 0, 64, 82
1, 62682, Note_on_c, 0, 55, 41
1, 62688, Control_c, 0, 64, 69
1, 62702, Control_c, 0, 64, 55
1, 62708, Note_on_c, 0, 62, 49
1, 62717, Control_c, 0, 64, 11
1, 62732, Control_c, 0, 64, 0
1, 62806, Control_c, 0, 64, 21
1, 62821, Control_c, 0, 64, 42
1, 62836, Control_c, 0, 64, 57
1, 62850, Control_c, 0, 64, 63
1, 62865, Control_c, 0, 64, 66
1, 62880, Control_c, 0, 64, 69
1, 62895, Control_c, 0, 64, 74
1, 62910, Control_c, 0, 64, 79
1, 62911, Note_off_c, 0, 55, 53
1, 62925, Control_c, 0, 64, 85
1, 62940, Control_c, 0, 64, 91
1, 62949, Note_off_c, 0, 62, 38
1, 62955, Control_c, 0, 64, 97
1, 62970, Control_c, 0, 64, 104
1, 62984, Control_c, 0, 64, 111
1, 62999, Control_c, 0, 64, 116
1, 63014, Control_c, 0, 64, 117
1, 63073, Control_c, 0, 64, 118
1, 63104, Note_off_c, 0, 71, 37
1, 63117, Control_c, 0, 64, 116
1, 63123, Note_off_c, 0, 67, 0
1, 63132, Control_c, 0, 64, 112
1, 63154, Control_c, 0, 64, 107
1, 63167, Poly_aftertouch_c, 0, 67, 127
1, 63169, Control_c, 0, 64, 101
1, 63172, Note_on_c, 0, 69, 50
1, 63184, Control_c, 0, 64, 92
1, 63196, Note_on_c, 0, 60, 41
1, 63199, Control_c, 0, 64, 80
1, 63208, Note_on_c, 0, 55, 45
1, 63214, Control_c, 0, 64, 66
1, 63228, Control_c, 0, 64, 52
1, 63243, Control_c, 0, 64, 33
1, 63273, Control_c, 0, 64, 39
1, 63288, Control_c, 0, 64, 49
1, 63302, Control_c, 0, 64, 58
1, 63317, Control_c, 0, 64, 62
1, 63332, Control_c, 0, 64, 65
1, 63341, Poly_aftertouch_c, 0, 67, 0
1, 63346, Control_c, 0, 64, 67
1, 63361, Control_c, 0, 64, 70
1, 63369, Note_off_c, 0, 55, 49
1, 63376, Control_c, 0, 64, 73
1, 63391, Control_c, 0, 64, 78
1, 63406, Control_c, 0, 64, 84
1, 63421, Control_c, 0, 64, 91
1, 63436, Control_c, 0, 64, 97
1, 63450, Control_c, 0, 64, 100
1, 63465, Control_c, 0, 64, 101
1, 63510, Control_c, 0, 64, 102
1, 63567, Note_on_c, 0, 71, 52
1, 63576, Note_on_c, 0, 53, 47
1, 63584, Control_c, 0, 64, 101
1, 63587, Note_on_c, 0, 55, 24
1, 63587, Note_off_c, 0, 69, 33
1, 63599, Control_c, 0, 64, 100
1, 63608, Note_off_c, 0, 53, 53
1, 63613, Note_off_c, 0, 60, 40
1, 63614, Control_c, 0, 64, 99
1, 63620, Note_off_c, 0, 71, 53
1, 63629, Control_c, 0, 64, 97
1, 63631, Note_off_c, 0, 55, 46
1, 63643, Control_c, 0, 64, 94
1, 63654, Poly_aftertouch_c, 0, 67, 127
1, 63658, Control_c, 0, 64, 92
1, 63670, Note_on_c, 0, 72, 58
1, 63673, Control_c, 0, 64, 84
1, 63688, Control_c, 0, 64, 72
1, 63699, Note_on_c, 0, 60, 36
1, 63703, Control_c, 0, 64, 60
1, 63709, Note_on_c, 0, 51, 42
1, 63712, Note_on_c, 0, 55, 34
1, 63718, Control_c, 0, 64, 30
1, 63732, Control_c, 0, 64, 0
1, 63806, Control_c, 0, 64, 32
1, 63821, Control_c, 0, 64, 48
1, 63836, Control_c, 0, 64, 58
1, 63850, Control_c, 0, 64, 63
1, 63865, Control_c, 0, 64, 66
1, 63866, Note_off_c, 0, 60, 35
1, 63880, Control_c, 0, 64, 69
1, 63903, Control_c, 0, 64, 73
1, 63906, Note_off_c, 0, 51, 57
1, 63918, Control_c, 0, 64, 77
1, 63928, Poly_aftertouch_c, 0, 67, 0
1, 63932, Control_c, 0, 64, 82
1, 63947, Control_c, 0, 64, 87
1, 63959, Note_off_c, 0, 72, 62
1, 63962, Control_c, 0, 64, 94
1, 63967, Note_off_c, 0, 55, 41
1, 63976, Control_c, 0, 64, 99
1, 63991, Control_c, 0, 64, 105
1, 64006, Control_c, 0, 64, 112
1, 64021, Control_c, 0, 64, 127
1, 64274, Control_c, 0, 64, 112
1, 64289, Note_on_c, 0, 77, 54
1, 64289, Control_c, 0, 64, 103
1, 64304, Note_on_c, 0, 67, 46
1, 64304, Control_c, 0, 64, 91
1, 64319, Control_c, 0, 64, 74
1, 64334, Control_c, 0, 64, 62
1, 64343, Note_on_c, 0, 55, 27
1, 64348, Control_c, 0, 64, 38
1, 64363, Control_c, 0, 64, 0
1, 64393, Control_c, 0, 64, 24
1, 64408, Control_c, 0, 64, 43
1, 64418, Note_on_c, 0, 48, 29
1, 64422, Control_c, 0, 64, 55
1, 64437, Control_c, 0, 64, 61
1, 64452, Control_c, 0, 64, 65
1, 64467, Control_c, 0, 64, 68
1, 64481, Note_off_c, 0, 48, 62
1, 64481, Control_c, 0, 64, 73
1, 64496, Control_c, 0, 64, 78
1, 64511, Control_c, 0, 64, 87
1, 64526, Control_c, 0, 64, 96
1, 64528, Note_off_c, 0, 67, 53
1, 64541, Control_c, 0, 64, 109
1, 64544, Note_off_c, 0, 77, 48
1, 64556, Control_c, 0, 64, 127
1, 64659, Note_off_c, 0, 55, 38
1, 64844, Note_on_c, 0, 55, 27
1, 64848, Note_on_c, 0, 43, 39
1, 64849, Note_on_c, 0, 75, 47
1, 64865, Note_on_c, 0, 67, 37
1, 64889, Note_off_c, 0, 75, 60
1, 64902, Note_off_c, 0, 67, 61
1, 64916, Note_off_c, 0, 55, 54
1, 65024, Note_off_c, 0, 43, 0
1, 65051, Note_on_c, 0, 74, 59
1, 65056, Note_on_c, 0, 43, 9
1, 65077, Note_on_c, 0, 55, 45
1, 65102, Note_on_c, 0, 67, 40
1, 65157, Control_c, 0, 64, 101
1, 65171, Control_c, 0, 64, 85
1, 65186, Control_c, 0, 64, 72
1, 65201, Control_c, 0, 64, 62
1, 65215, Control_c, 0, 64, 47
1, 65230, Control_c, 0, 64, 32
1, 65245, Control_c, 0, 64, 30
1, 65260, Control_c, 0, 64, 29
1, 65275, Control_c, 0, 64, 26
1, 65290, Control_c, 0, 64, 0
1, 65351, Poly_aftertouch_c, 0, 71, 127
1, 65549, Control_c, 0, 64, 28
1, 65564, Control_c, 0, 64, 44
1, 65578, Control_c, 0, 64, 55
1, 65593, Control_c, 0, 64, 60
1, 65608, Control_c, 0, 64, 63
1, 65623, Control_c, 0, 64, 65
1, 65638, Control_c, 0, 64, 66
1, 65651, Control_c, 0, 64, 68
1, 65666, Control_c, 0, 64, 71
1, 65681, Control_c, 0, 64, 75
1, 65694, Note_off_c, 0, 43, 38
1, 65695, Control_c, 0, 64, 80
1, 65710, Control_c, 0, 64, 87
1, 65725, Control_c, 0, 64, 98
1, 65740, Control_c, 0, 64, 114
1, 65755, Control_c, 0, 64, 127
1, 65930, Poly_aftertouch_c, 0, 71, 0
1, 66083, Note_off_c, 0, 67, 40
1, 66115, Note_off_c, 0, 55, 41
1, 66121, Note_off_c, 0, 74, 35
1, 66517, Note_on_c, 0, 74, 87
1, 66526, Note_on_c, 0, 70, 72
1, 66529, Note_on_c, 0, 65, 76
1, 66531, Note_on_c, 0, 46, 73
1, 66533, Control_c, 0, 64, 87
1, 66541, Note_on_c, 0, 34, 62
1, 66548, Control_c, 0, 64, 67
1, 66563, Control_c, 0, 64, 25
1, 66577, Control_c, 0, 64, 0
1, 66623, Control_c, 0, 64, 17
1, 66638, Control_c, 0, 64, 53
1, 66653, Control_c, 0, 64, 67
1, 66659, Note_off_c, 0, 74, 59
1, 66667, Control_c, 0, 64, 79
1, 66669, Note_off_c, 0, 65, 54
1, 66678, Note_off_c, 0, 34, 57
1, 66682, Control_c, 0, 64, 119
1, 66697, Control_c, 0, 64, 127
1, 66704, Note_off_c, 0, 46, 58
1, 66704, Note_off_c, 0, 70, 60
1, 66884, Note_on_c, 0, 75, 85
1, 66896, Note_on_c, 0, 67, 76
1, 66896, Note_on_c, 0, 70, 73
1, 66905, Note_on_c, 0, 46, 66
1, 66905, Note_on_c, 0, 34, 67
1, 66920, Note_off_c, 0, 67, 70
1, 66920, Note_off_c, 0, 70, 67
1, 66938, Note_off_c, 0, 46, 64
1, 66944, Note_off_c, 0, 34, 57
1, 66953, Note_off_c, 0, 75, 63
1, 67000, Note_on_c, 0, 77, 94
1, 67013, Note_on_c, 0, 68, 79
1, 67016, Note_on_c, 0, 70, 71
1, 67019, Note_on_c, 0, 46, 67
1, 67030, Note_on_c, 0, 34, 67
1, 67030, Control_c, 0, 64, 85
1, 67045, Control_c, 0, 64, 66
1, 67060, Control_c, 0, 64, 40
1, 67074, Control_c, 0, 64, 0
1, 67193, Control_c, 0, 64, 26
1, 67208, Control_c, 0, 64, 55
1, 67223, Control_c, 0, 64, 64
1, 67238, Control_c, 0, 64, 70
1, 67243, Note_off_c, 0, 77, 55
1, 67245, Note_off_c, 0, 34, 55
1, 67253, Control_c, 0, 64, 80
1, 67267, Control_c, 0, 64, 100
1, 67277, Note_off_c, 0, 46, 58
1, 67282, Control_c, 0, 64, 127
1, 67286, Note_off_c, 0, 68, 55
1, 67307, Note_off_c, 0, 70, 42
1, 67481, Note_on_c, 0, 77, 89
1, 67489, Note_on_c, 0, 70, 74
1, 67490, Note_on_c, 0, 68, 80
1, 67505, Note_on_c, 0, 46, 66
1, 67505, Control_c, 0, 64, 85
1, 67508, Note_on_c, 0, 34, 65
1, 67520, Control_c, 0, 64, 66
1, 67535, Control_c, 0, 64, 39
1, 67550, Control_c, 0, 64, 0
1, 67609, Control_c, 0, 64, 29
1, 67623, Control_c, 0, 64, 52
1, 67646, Control_c, 0, 64, 62
1, 67661, Control_c, 0, 64, 68
1, 67676, Control_c, 0, 64, 81
1, 67685, Note_off_c, 0, 34, 50
1, 67691, Control_c, 0, 64, 110
1, 67697, Note_off_c, 0, 77, 56
1, 67705, Control_c, 0, 64, 127
1, 67712, Note_off_c, 0, 46, 57
1, 67745, Note_off_c, 0, 68, 57
1, 67750, Note_off_c, 0, 70, 58
1, 67947, Note_on_c, 0, 77, 93
1, 67956, Note_on_c, 0, 68, 85
1, 67956, Note_on_c, 0, 70, 75
1, 67958, Control_c, 0, 64, 94
1, 67970, Note_on_c, 0, 46, 71
1, 67972, Control_c, 0, 64, 71
1, 67977, Note_on_c, 0, 34, 62
1, 67987, Control_c, 0, 64, 53
1, 68002, Control_c, 0, 64, 0
1, 68076, Control_c, 0, 64, 41
1, 68091, Control_c, 0, 64, 57
1, 68106, Control_c, 0, 64, 64
1, 68121, Control_c, 0, 64, 71
1, 68136, Control_c, 0, 64, 86
1, 68151, Control_c, 0, 64, 127
1, 68157, Note_off_c, 0, 77, 59
1, 68194, Note_off_c, 0, 46, 61
1, 68214, Note_off_c, 0, 34, 39
1, 68233, Note_off_c, 0, 70, 54
1, 68252, Note_off_c, 0, 68, 55
1, 68425, Control_c, 0, 64, 114
1, 68429, Note_on_c, 0, 75, 96
1, 68440, Note_on_c, 0, 70, 68
1, 68440, Control_c, 0, 64, 80
1, 68446, Note_on_c, 0, 67, 76
1, 68452, Note_on_c, 0, 46, 68
1, 68455, Control_c, 0, 64, 61
1, 68460, Note_on_c, 0, 34, 56
1, 68469, Control_c, 0, 64, 0
1, 68544, Control_c, 0, 64, 43
1, 68559, Control_c, 0, 64, 59
1, 68574, Control_c, 0, 64, 66
1, 68577, Note_off_c, 0, 70, 56
1, 68588, Control_c, 0, 64, 72
1, 68601, Note_off_c, 0, 67, 56
1, 68603, Control_c, 0, 64, 82
1, 68612, Note_off_c, 0, 34, 51
1, 68618, Control_c, 0, 64, 100
1, 68630, Note_off_c, 0, 46, 55
1, 68633, Note_off_c, 0, 75, 55
1, 68633, Control_c, 0, 64, 127
1, 68794, Note_on_c, 0, 70, 79
1, 68802, Note_on_c, 0, 74, 83
1, 68804, Note_on_c, 0, 65, 75
1, 68819, Note_on_c, 0, 46, 62
1, 68825, Note_on_c, 0, 34, 56
1, 68829, Note_off_c, 0, 65, 68
1, 68839, Note_off_c, 0, 70, 66
1, 68845, Note_off_c, 0, 74, 66
1, 68852, Note_off_c, 0, 46, 63
1, 68866, Note_off_c, 0, 34, 53
1, 68940, Note_on_c, 0, 79, 87
1, 68945, Note_on_c, 0, 70, 86
1, 68947, Note_on_c, 0, 46, 60
1, 68950, Note_on_c, 0, 34, 66
1, 68973, Control_c, 0, 64, 118
1, 68989, Control_c, 0, 64, 88
1, 69004, Control_c, 0, 64, 70
1, 69018, Control_c, 0, 64, 54
1, 69033, Control_c, 0, 64, 0
1, 69189, Control_c, 0, 64, 17
1, 69204, Control_c, 0, 64, 46
1, 69218, Control_c, 0, 64, 59
1, 69224, Note_off_c, 0, 34, 61
1, 69233, Control_c, 0, 64, 65
1, 69248, Control_c, 0, 64, 70
1, 69263, Control_c, 0, 64, 79
1, 69277, Control_c, 0, 64, 87
1, 69280, Note_off_c, 0, 46, 60
1, 69292, Control_c, 0, 64, 97
1, 69307, Control_c, 0, 64, 113
1, 69322, Control_c, 0, 64, 127
1, 69426, Control_c, 0, 64, 107
1, 69441, Control_c, 0, 64, 84
1, 69454, Note_on_c, 0, 48, 72
1, 69456, Control_c, 0, 64, 68
1, 69462, Note_on_c, 0, 36, 57
1, 69470, Control_c, 0, 64, 43
1, 69485, Control_c, 0, 64, 0
1, 69574, Control_c, 0, 64, 46
1, 69589, Control_c, 0, 64, 60
1, 69600, Note_off_c, 0, 79, 55
1, 69604, Control_c, 0, 64, 66
1, 69618, Control_c, 0, 64, 73
1, 69633, Control_c, 0, 64, 86
1, 69648, Control_c, 0, 64, 108
1, 69662, Control_c, 0, 64, 127
1, 69666, Note_off_c, 0, 70, 61
1, 69677, Note_off_c, 0, 48, 59
1, 69683, Note_off_c, 0, 36, 33
1, 69813, Note_on_c, 0, 50, 72
1, 69818, Note_on_c, 0, 38, 67
1, 69822, Note_on_c, 0, 77, 83
1, 69823, Note_on_c, 0, 68, 77
1, 69842, Note_on_c, 0, 70, 49
1, 69862, Note_off_c, 0, 38, 63
1, 69865, Note_off_c, 0, 70, 60
1, 69868, Note_off_c, 0, 50, 62
1, 69876, Note_off_c, 0, 68, 61
1, 69904, Note_off_c, 0, 77, 60
1, 69938, Control_c, 0, 64, 85
1, 69948, Note_on_c, 0, 75, 92
1, 69951, Note_on_c, 0, 67, 85
1, 69951, Note_on_c, 0, 70, 76
1, 69953, Control_c, 0, 64, 65
1, 69960, Note_on_c, 0, 51, 86
1, 69967, Control_c, 0, 64, 19
1, 69973, Note_on_c, 0, 39, 69
1, 69982, Control_c, 0, 64, 0
1, 70100, Control_c, 0, 64, 45
1, 70115, Control_c, 0, 64, 59
1, 70128, Note_off_c, 0, 39, 48
1, 70130, Control_c, 0, 64, 65
1, 70145, Control_c, 0, 64, 72
1, 70150, Note_off_c, 0, 51, 60
1, 70160, Control_c, 0, 64, 82
1, 70160, Note_off_c, 0, 75, 60
1, 70174, Control_c, 0, 64, 100
1, 70178, Note_off_c, 0, 70, 59
1, 70189, Control_c, 0, 64, 127
1, 70206, Note_off_c, 0, 67, 56
1, 70548, Note_on_c, 0, 74, 86
1, 70557, Note_on_c, 0, 65, 73
1, 70564, Note_on_c, 0, 68, 69
1, 70573, Note_on_c, 0, 53, 73
1, 70574, Control_c, 0, 64, 115
1, 70581, Note_on_c, 0, 41, 65
1, 70589, Control_c, 0, 64, 90
1, 70604, Control_c, 0, 64, 73
1, 70619, Control_c, 0, 64, 60
1, 70642, Control_c, 0, 64, 23
1, 70657, Control_c, 0, 64, 0
1, 70760, Control_c, 0, 64, 36
1, 70775, Control_c, 0, 64, 56
1, 70789, Control_c, 0, 64, 64
1, 70804, Control_c, 0, 64, 70
1, 70819, Control_c, 0, 64, 79
1, 70834, Control_c, 0, 64, 96
1, 70848, Note_off_c, 0, 65, 58
1, 70849, Control_c, 0, 64, 127
1, 70854, Note_off_c, 0, 74, 58
1, 70899, Note_off_c, 0, 41, 61
1, 70908, Note_off_c, 0, 68, 60
1, 70926, Note_off_c, 0, 53, 59
1, 70988, Note_on_c, 0, 68, 56
1, 70992, Note_on_c, 0, 72, 78
1, 70995, Note_on_c, 0, 63, 77
1, 71002, Note_on_c, 0, 53, 68
1, 71009, Note_on_c, 0, 41, 62
1, 71036, Note_off_c, 0, 41, 63
1, 71047, Note_off_c, 0, 63, 67
1, 71052, Note_off_c, 0, 53, 56
1, 71052, Note_off_c, 0, 68, 61
1, 71067, Note_off_c, 0, 72, 61
1, 71108, Note_on_c, 0, 71, 80
1, 71114, Note_on_c, 0, 67, 74
1, 71115, Note_on_c, 0, 62, 74
1, 71115, Control_c, 0, 64, 101
1, 71130, Control_c, 0, 64, 79
1, 71144, Note_on_c, 0, 55, 64
1, 71145, Control_c, 0, 64, 64
1, 71149, Note_on_c, 0, 43, 57
1, 71160, Control_c, 0, 64, 40
1, 71175, Control_c, 0, 64, 0
1, 71352, Control_c, 0, 64, 30
1, 71367, Control_c, 0, 64, 52
1, 71391, Control_c, 0, 64, 62
1, 71406, Control_c, 0, 64, 69
1, 71420, Control_c, 0, 64, 76
1, 71435, Control_c, 0, 64, 88
1, 71450, Control_c, 0, 64, 106
1, 71465, Control_c, 0, 64, 127
1, 71486, Note_off_c, 0, 62, 54
1, 71495, Note_off_c, 0, 55, 53
1, 71530, Note_off_c, 0, 67, 32
1, 71617, Note_on_c, 0, 67, 50
1, 71618, Note_on_c, 0, 69, 75
1, 71627, Control_c, 0, 64, 110
1, 71631, Note_on_c, 0, 55, 64
1, 71638, Note_on_c, 0, 62, 50
1, 71643, Control_c, 0, 64, 81
1, 71657, Control_c, 0, 64, 64
1, 71669, Note_off_c, 0, 71, 55
1, 71672, Control_c, 0, 64, 39
1, 71687, Control_c, 0, 64, 0
1, 71731, Control_c, 0, 64, 36
1, 71746, Control_c, 0, 64, 53
1, 71758, Note_off_c, 0, 43, 53
1, 71761, Control_c, 0, 64, 61
1, 71776, Control_c, 0, 64, 66
1, 71791, Control_c, 0, 64, 70
1, 71796, Note_off_c, 0, 67, 36
1, 71804, Note_off_c, 0, 62, 52
1, 71806, Control_c, 0, 64, 75
1, 71820, Control_c, 0, 64, 82
1, 71835, Control_c, 0, 64, 91
1, 71850, Control_c, 0, 64, 108
1, 71865, Control_c, 0, 64, 127
1, 71890, Note_off_c, 0, 55, 54
1, 71979, Note_on_c, 0, 71, 79
1, 71982, Note_on_c, 0, 53, 68
1, 71989, Note_on_c, 0, 60, 70
1, 72000, Note_off_c, 0, 69, 60
1, 72002, Note_on_c, 0, 55, 49
1, 72002, Note_on_c, 0, 67, 54
1, 72024, Note_off_c, 0, 53, 59
1, 72031, Note_off_c, 0, 55, 62
1, 72033, Note_off_c, 0, 60, 57
1, 72034, Note_off_c, 0, 67, 64
1, 72040, Note_off_c, 0, 71, 61
1, 72057, Control_c, 0, 64, 107
1, 72072, Control_c, 0, 64, 85
1, 72086, Note_on_c, 0, 72, 85
1, 72087, Control_c, 0, 64, 67
1, 72095, Note_on_c, 0, 60, 66
1, 72102, Control_c, 0, 64, 44
1, 72109, Note_on_c, 0, 55, 66
1, 72109, Note_on_c, 0, 67, 68
1, 72113, Note_on_c, 0, 51, 57
1, 72117, Control_c, 0, 64, 0
1, 72243, Control_c, 0, 64, 29
1, 72258, Control_c, 0, 64, 51
1, 72273, Control_c, 0, 64, 60
1, 72276, Note_off_c, 0, 60, 51
1, 72288, Control_c, 0, 64, 65
1, 72303, Control_c, 0, 64, 69
1, 72307, Note_off_c, 0, 67, 61
1, 72318, Control_c, 0, 64, 75
1, 72321, Note_off_c, 0, 55, 61
1, 72333, Control_c, 0, 64, 84
1, 72348, Control_c, 0, 64, 98
1, 72354, Note_off_c, 0, 72, 64
1, 72362, Control_c, 0, 64, 127
1, 72368, Note_off_c, 0, 51, 65
1, 72690, Note_on_c, 0, 75, 89
1, 72696, Note_on_c, 0, 67, 71
1, 72705, Note_on_c, 0, 43, 63
1, 72717, Note_on_c, 0, 31, 59
1, 72717, Control_c, 0, 64, 104
1, 72732, Control_c, 0, 64, 83
1, 72747, Control_c, 0, 64, 67
1, 72762, Control_c, 0, 64, 47
1, 72768, Poly_aftertouch_c, 0, 71, 0
1, 72774, Poly_aftertouch_c, 0, 73, 0
1, 72777, Control_c, 0, 64, 0
1, 72887, Control_c, 0, 64, 39
1, 72902, Control_c, 0, 64, 59
1, 72917, Control_c, 0, 64, 66
1, 72932, Control_c, 0, 64, 75
1, 72947, Control_c, 0, 64, 91
1, 72952, Note_off_c, 0, 43, 51
1, 72962, Control_c, 0, 64, 127
1, 72992, Note_off_c, 0, 67, 61
1, 72992, Note_off_c, 0, 75, 55
1, 73053, Note_off_c, 0, 31, 32
1, 73210, Note_on_c, 0, 74, 76
1, 73223, Note_on_c, 0, 65, 58
1, 73228, Note_on_c, 0, 43, 58
1, 73230, Note_on_c, 0, 31, 55
1, 73232, Note_on_c, 0, 67, 48
1, 73251, Note_off_c, 0, 65, 63
1, 73280, Note_off_c, 0, 67, 56
1, 73305, Note_off_c, 0, 74, 61
1, 73334, Note_off_c, 0, 31, 38
1, 73342, Note_on_c, 0, 72, 75
1, 73348, Control_c, 0, 64, 107
1, 73350, Note_on_c, 0, 67, 52
1, 73356, Note_on_c, 0, 63, 57
1, 73363, Control_c, 0, 64, 80
1, 73370, Note_on_c, 0, 36, 50
1, 73377, Control_c, 0, 64, 66
1, 73392, Control_c, 0, 64, 47
1, 73407, Control_c, 0, 64, 0
1, 74066, Control_c, 0, 64, 31
1, 74081, Control_c, 0, 64, 50
1, 74096, Control_c, 0, 64, 61
1, 74111, Control_c, 0, 64, 65
1, 74126, Control_c, 0, 64, 69
1, 74140, Control_c, 0, 64, 74
1, 74155, Control_c, 0, 64, 80
1, 74170, Control_c, 0, 64, 89
1, 74185, Control_c, 0, 64, 103
1, 74200, Control_c, 0, 64, 127
1, 74320, Note_off_c, 0, 67, 49
1, 74348, Note_off_c, 0, 43, 40
1, 74369, Note_off_c, 0, 36, 40
1, 74391, Note_off_c, 0, 63, 33
1, 74399, Note_off_c, 0, 72, 35
1, 74756, Control_c, 0, 64, 113
1, 74771, Control_c, 0, 64, 104
1, 74786, Control_c, 0, 64, 97
1, 74801, Control_c, 0, 64, 90
1, 74816, Control_c, 0, 64, 84
1, 74830, Control_c, 0, 64, 79
1, 74845, Control_c, 0, 64, 73
1, 74860, Control_c, 0, 64, 69
1, 74875, Control_c, 0, 64, 64
1, 74879, Poly_aftertouch_c, 0, 63, 127
1, 74889, Control_c, 0, 64, 54
1, 74900, Note_on_c, 0, 75, 79
1, 74904, Control_c, 0, 64, 27
1, 74919, Control_c, 0, 64, 0
1, 74989, Poly_aftertouch_c, 0, 63, 0
1, 75067, Control_c, 0, 64, 33
1, 75081, Control_c, 0, 64, 53
1, 75096, Control_c, 0, 64, 62
1, 75111, Control_c, 0, 64, 67
1, 75134, Control_c, 0, 64, 73
1, 75149, Control_c, 0, 64, 80
1, 75161, Note_off_c, 0, 75, 56
1, 75163, Control_c, 0, 64, 89
1, 75178, Control_c, 0, 64, 104
1, 75193, Control_c, 0, 64, 127
1, 75388, Note_on_c, 0, 74, 82
1, 75464, Note_off_c, 0, 74, 62
1, 75513, Note_on_c, 0, 72, 95
1, 75525, Note_on_c, 0, 63, 80
1, 75525, Note_on_c, 0, 68, 77
1, 75528, Note_on_c, 0, 56, 66
1, 75531, Note_on_c, 0, 51, 64
1, 75535, Control_c, 0, 64, 109
1, 75536, Note_on_c, 0, 44, 59
1, 75550, Control_c, 0, 64, 81
1, 75565, Control_c, 0, 64, 66
1, 75579, Control_c, 0, 64, 47
1, 75594, Control_c, 0, 64, 0
1, 75913, Control_c, 0, 64, 38
1, 75928, Control_c, 0, 64, 55
1, 75943, Control_c, 0, 64, 63
1, 75958, Control_c, 0, 64, 67
1, 75972, Control_c, 0, 64, 74
1, 75987, Control_c, 0, 64, 83
1, 76002, Control_c, 0, 64, 97
1, 76017, Control_c, 0, 64, 127
1, 76155, Note_off_c, 0, 56, 58
1, 76232, Note_off_c, 0, 44, 33
1, 76278, Note_off_c, 0, 68, 30
1, 76378, Note_off_c, 0, 63, 29
1, 76384, Note_off_c, 0, 72, 51
1, 76393, Note_off_c, 0, 51, 30
1, 76962, Note_on_c, 0, 72, 78
1, 77076, Control_c, 0, 64, 95
1, 77077, Note_on_c, 0, 75, 85
1, 77091, Control_c, 0, 64, 74
1, 77105, Control_c, 0, 64, 59
1, 77109, Note_off_c, 0, 72, 63
1, 77120, Control_c, 0, 64, 0
1, 77269, Control_c, 0, 64, 32
1, 77284, Control_c, 0, 64, 52
1, 77298, Control_c, 0, 64, 62
1, 77313, Control_c, 0, 64, 67
1, 77328, Control_c, 0, 64, 74
1, 77342, Control_c, 0, 64, 85
1, 77357, Control_c, 0, 64, 110
1, 77379, Control_c, 0, 64, 127
1, 77388, Note_off_c, 0, 75, 51
1, 77496, Note_on_c, 0, 74, 87
1, 77571, Note_off_c, 0, 74, 64
1, 77636, Note_on_c, 0, 72, 88
1, 77651, Note_on_c, 0, 67, 72
1, 77654, Note_on_c, 0, 51, 64
1, 77665, Note_on_c, 0, 39, 56
1, 77666, Note_on_c, 0, 48, 54
1, 77675, Control_c, 0, 64, 104
1, 77690, Control_c, 0, 64, 87
1, 77705, Control_c, 0, 64, 73
1, 77720, Control_c, 0, 64, 64
1, 77735, Control_c, 0, 64, 50
1, 77749, Control_c, 0, 64, 37
1, 77764, Control_c, 0, 64, 33
1, 77780, Control_c, 0, 64, 32
1, 77795, Control_c, 0, 64, 28
1, 77810, Control_c, 0, 64, 0
1, 78321, Control_c, 0, 64, 17
1, 78336, Control_c, 0, 64, 44
1, 78351, Control_c, 0, 64, 57
1, 78366, Control_c, 0, 64, 63
1, 78380, Control_c, 0, 64, 67
1, 78395, Control_c, 0, 64, 73
1, 78410, Control_c, 0, 64, 81
1, 78425, Control_c, 0, 64, 95
1, 78440, Control_c, 0, 64, 127
1, 78467, Note_off_c, 0, 39, 60
1, 78485, Note_off_c, 0, 51, 62
1, 78485, Note_off_c, 0, 48, 62
1, 78486, Note_off_c, 0, 67, 61
1, 78522, Note_off_c, 0, 72, 59
1, 78907, Control_c, 0, 64, 95
1, 78919, Note_on_c, 0, 74, 88
1, 78922, Control_c, 0, 64, 72
1, 78933, Note_on_c, 0, 60, 74
1, 78936, Control_c, 0, 64, 54
1, 78942, Note_on_c, 0, 48, 62
1, 78951, Control_c, 0, 64, 0
1, 79010, Control_c, 0, 64, 42
1, 79025, Control_c, 0, 64, 61
1, 79040, Control_c, 0, 64, 70
1, 79044, Note_off_c, 0, 60, 64
1, 79055, Control_c, 0, 64, 84
1, 79069, Note_off_c, 0, 48, 58
1, 79070, Control_c, 0, 64, 127
1, 79285, Note_on_c, 0, 75, 83
1, 79303, Note_off_c, 0, 74, 36
1, 79352, Note_off_c, 0, 75, 63
1, 79388, Note_on_c, 0, 77, 90
1, 79399, Note_on_c, 0, 68, 86
1, 79401, Note_on_c, 0, 72, 67
1, 79406, Note_on_c, 0, 41, 70
1, 79409, Note_on_c, 0, 53, 75
1, 79412, Control_c, 0, 64, 91
1, 79427, Control_c, 0, 64, 69
1, 79442, Control_c, 0, 64, 45
1, 79457, Control_c, 0, 64, 0
1, 79560, Control_c, 0, 64, 28
1, 79575, Control_c, 0, 64, 53
1, 79590, Control_c, 0, 64, 64
1, 79594, Note_off_c, 0, 41, 62
1, 79605, Control_c, 0, 64, 71
1, 79611, Note_off_c, 0, 77, 60
1, 79615, Note_off_c, 0, 53, 59
1, 79627, Control_c, 0, 64, 82
1, 79642, Control_c, 0, 64, 104
1, 79657, Control_c, 0, 64, 127
1, 79674, Note_off_c, 0, 72, 42
1, 79692, Note_off_c, 0, 68, 58
1, 79863, Note_on_c, 0, 72, 75
1, 79864, Control_c, 0, 64, 108
1, 79865, Note_on_c, 0, 75, 98
1, 79878, Note_on_c, 0, 67, 77
1, 79879, Control_c, 0, 64, 73
1, 79880, Note_on_c, 0, 55, 71
1, 79886, Note_on_c, 0, 43, 62
1, 79893, Control_c, 0, 64, 54
1, 79908, Control_c, 0, 64, 0
1, 79967, Control_c, 0, 64, 48
1, 79974, Note_off_c, 0, 72, 62
1, 79982, Control_c, 0, 64, 62
1, 79985, Note_off_c, 0, 43, 58
1, 79997, Control_c, 0, 64, 68
1, 80012, Control_c, 0, 64, 76
1, 80015, Note_off_c, 0, 55, 57
1, 80026, Control_c, 0, 64, 91
1, 80028, Note_off_c, 0, 75, 58
1, 80041, Control_c, 0, 64, 127
1, 80044, Note_off_c, 0, 67, 61
1, 80209, Note_on_c, 0, 74, 82
1, 80211, Note_on_c, 0, 65, 77
1, 80217, Note_on_c, 0, 56, 67
1, 80222, Note_on_c, 0, 44, 62
1, 80238, Note_off_c, 0, 65, 66
1, 80255, Note_off_c, 0, 44, 65
1, 80271, Note_off_c, 0, 74, 62
1, 80274, Note_off_c, 0, 56, 62
1, 80312, Note_on_c, 0, 72, 88
1, 80324, Control_c, 0, 64, 80
1, 80328, Note_on_c, 0, 63, 82
1, 80332, Note_on_c, 0, 55, 78
1, 80336, Note_on_c, 0, 43, 72
1, 80339, Control_c, 0, 64, 57
1, 80354, Control_c, 0, 64, 0
1, 80420, Control_c, 0, 64, 45
1, 80435, Control_c, 0, 64, 61
1, 80450, Control_c, 0, 64, 67
1, 80452, Note_off_c, 0, 55, 64
1, 80465, Control_c, 0, 64, 75
1, 80480, Control_c, 0, 64, 87
1, 80483, Note_off_c, 0, 72, 57
1, 80494, Control_c, 0, 64, 106
1, 80509, Control_c, 0, 64, 127
1, 80509, Note_off_c, 0, 43, 60
1, 80532, Note_off_c, 0, 63, 58
1, 80569, Control_c, 0, 64, 105
1, 80583, Control_c, 0, 64, 94
1, 80598, Control_c, 0, 64, 83
1, 80613, Control_c, 0, 64, 71
1, 80627, Control_c, 0, 64, 60
1, 80642, Control_c, 0, 64, 44
1, 80656, Control_c, 0, 64, 26
1, 80671, Control_c, 0, 64, 18
1, 80686, Control_c, 0, 64, 13
1, 80700, Control_c, 0, 64, 0
1, 80834, Note_on_c, 0, 71, 92
1, 80840, Note_on_c, 0, 67, 76
1, 80840, Note_on_c, 0, 62, 84
1, 80848, Note_on_c, 0, 43, 75
1, 80849, Control_c, 0, 64, 43
1, 80854, Note_on_c, 0, 31, 66
1, 80864, Control_c, 0, 64, 60
1, 80879, Control_c, 0, 64, 68
1, 80893, Control_c, 0, 64, 80
1, 80908, Control_c, 0, 64, 117
1, 80923, Control_c, 0, 64, 127
1, 80934, Note_off_c, 0, 31, 62
1, 80940, Note_off_c, 0, 62, 56
1, 80949, Note_off_c, 0, 43, 60
1, 80966, Note_off_c, 0, 67, 57
1, 80973, Note_off_c, 0, 71, 56
1, 81183, Control_c, 0, 64, 99
1, 81198, Control_c, 0, 64, 84
1, 81213, Control_c, 0, 64, 74
1, 81228, Control_c, 0, 64, 66
1, 81243, Control_c, 0, 64, 60
1, 81258, Control_c, 0, 64, 52
1, 81272, Control_c, 0, 64, 43
1, 81287, Control_c, 0, 64, 38
1, 81302, Control_c, 0, 64, 34
1, 81317, Control_c, 0, 64, 28
1, 81331, Control_c, 0, 64, 17
1, 81346, Control_c, 0, 64, 0
1, 81479, Note_on_c, 0, 72, 84
1, 81488, Note_on_c, 0, 67, 60
1, 81492, Note_on_c, 0, 63, 62
1, 81502, Note_on_c, 0, 48, 61
1, 81508, Note_on_c, 0, 43, 51
1, 81514, Note_on_c, 0, 36, 52
1, 82110, Control_c, 0, 64, 12
1, 82125, Control_c, 0, 64, 17
1, 82140, Control_c, 0, 64, 19
1, 82154, Control_c, 0, 64, 22
1, 82169, Control_c, 0, 64, 24
1, 82184, Control_c, 0, 64, 27
1, 82199, Control_c, 0, 64, 29
1, 82214, Control_c, 0, 64, 30
1, 82243, Control_c, 0, 64, 31
1, 82258, Control_c, 0, 64, 31
1, 82273, Control_c, 0, 64, 32
1, 82288, Control_c, 0, 64, 34
1, 82302, Control_c, 0, 64, 36
1, 82317, Control_c, 0, 64, 39
1, 82332, Control_c, 0, 64, 42
1, 82346, Control_c, 0, 64, 45
1, 82361, Control_c, 0, 64, 48
1, 82376, Control_c, 0, 64, 51
1, 82391, Control_c, 0, 64, 53
1, 82406, Control_c, 0, 64, 55
1, 82420, Control_c, 0, 64, 56
1, 82435, Control_c, 0, 64, 58
1, 82450, Control_c, 0, 64, 60
1, 82465, Control_c, 0, 64, 61
1, 82480, Control_c, 0, 64, 63
1, 82495, Control_c, 0, 64, 64
1, 82510, Control_c, 0, 64, 66
1, 82524, Control_c, 0, 64, 68
1, 82539, Control_c, 0, 64, 70
1, 82554, Control_c, 0, 64, 74
1, 82569, Control_c, 0, 64, 79
1, 82584, Control_c, 0, 64, 85
1, 82599, Control_c, 0, 64, 92
1, 82622, Control_c, 0, 64, 100
1, 82637, Control_c, 0, 64, 108
1, 82638, Note_off_c, 0, 48, 38
1, 82651, Control_c, 0, 64, 121
1, 82666, Control_c, 0, 64, 127
1, 82670, Note_off_c, 0, 36, 40
1, 82694, Note_off_c, 0, 43, 54
1, 82717, Note_off_c, 0, 67, 38
1, 82726, Note_off_c, 0, 63, 33
1, 82747, Note_off_c, 0, 72, 36
1, 83007, Control_c, 0, 64, 110
1, 83022, Control_c, 0, 64, 99
1, 83037, Control_c, 0, 64, 87
1, 83052, Control_c, 0, 64, 78
1, 83067, Control_c, 0, 64, 70
1, 83082, Control_c, 0, 64, 64
1, 83096, Control_c, 0, 64, 59
1, 83111, Control_c, 0, 64, 55
1, 83126, Control_c, 0, 64, 54
1, 83156, Control_c, 0, 64, 53
1, 83170, Control_c, 0, 64, 50
1, 83185, Control_c, 0, 64, 43
1, 83200, Control_c, 0, 64, 36
1, 83215, Control_c, 0, 64, 27
1, 83230, Control_c, 0, 64, 0
1, 83370, Note_on_c, 0, 75, 56
1, 83386, Control_c, 0, 64, 21
1, 83401, Control_c, 0, 64, 43
1, 83416, Control_c, 0, 64, 56
1, 83431, Control_c, 0, 64, 61
1, 83446, Control_c, 0, 64, 64
1, 83460, Control_c, 0, 64, 67
1, 83475, Control_c, 0, 64, 69
1, 83490, Control_c, 0, 64, 72
1, 83505, Control_c, 0, 64, 76
1, 83520, Control_c, 0, 64, 80
1, 83535, Control_c, 0, 64, 86
1, 83537, Note_off_c, 0, 75, 52
1, 83549, Control_c, 0, 64, 92
1, 83564, Control_c, 0, 64, 100
1, 83579, Control_c, 0, 64, 110
1, 83593, Control_c, 0, 64, 127
1, 83833, Note_on_c, 0, 74, 56
1, 83961, Note_on_c, 0, 72, 60
1, 83963, Note_on_c, 0, 51, 42
1, 83972, Note_on_c, 0, 68, 46
1, 83976, Note_on_c, 0, 56, 38
1, 83987, Note_on_c, 0, 44, 35
1, 83987, Note_off_c, 0, 74, 59
1, 83988, Note_on_c, 0, 63, 37
1, 84008, Control_c, 0, 64, 108
1, 84023, Control_c, 0, 64, 97
1, 84038, Control_c, 0, 64, 88
1, 84053, Control_c, 0, 64, 79
1, 84067, Control_c, 0, 64, 70
1, 84082, Control_c, 0, 64, 64
1, 84097, Control_c, 0, 64, 58
1, 84119, Control_c, 0, 64, 54
1, 84134, Control_c, 0, 64, 52
1, 84149, Control_c, 0, 64, 51
1, 84164, Control_c, 0, 64, 50
1, 84179, Control_c, 0, 64, 45
1, 84194, Control_c, 0, 64, 36
1, 84209, Control_c, 0, 64, 24
1, 84224, Control_c, 0, 64, 13
1, 84238, Control_c, 0, 64, 0
1, 84519, Control_c, 0, 64, 31
1, 84534, Control_c, 0, 64, 46
1, 84548, Control_c, 0, 64, 54
1, 84563, Control_c, 0, 64, 58
1, 84578, Control_c, 0, 64, 61
1, 84593, Control_c, 0, 64, 62
1, 84608, Control_c, 0, 64, 63
1, 84623, Control_c, 0, 64, 64
1, 84638, Control_c, 0, 64, 65
1, 84653, Control_c, 0, 64, 66
1, 84668, Control_c, 0, 64, 67
1, 84682, Control_c, 0, 64, 68
1, 84697, Control_c, 0, 64, 70
1, 84712, Control_c, 0, 64, 72
1, 84727, Control_c, 0, 64, 75
1, 84741, Control_c, 0, 64, 77
1, 84756, Control_c, 0, 64, 80
1, 84771, Control_c, 0, 64, 82
1, 84786, Control_c, 0, 64, 85
1, 84801, Control_c, 0, 64, 88
1, 84815, Control_c, 0, 64, 92
1, 84830, Control_c, 0, 64, 95
1, 84845, Control_c, 0, 64, 100
1, 84867, Control_c, 0, 64, 107
1, 84882, Control_c, 0, 64, 116
1, 84897, Control_c, 0, 64, 127
1, 85040, Note_off_c, 0, 56, 42
1, 85075, Note_off_c, 0, 72, 34
1, 85090, Note_off_c, 0, 44, 34
1, 85168, Note_off_c, 0, 51, 40
1, 85183, Note_off_c, 0, 68, 39
1, 85192, Note_off_c, 0, 63, 31
1, 85654, Note_on_c, 0, 75, 48
1, 85660, Control_c, 0, 64, 113
1, 85675, Control_c, 0, 64, 95
1, 85690, Control_c, 0, 64, 82
1, 85705, Control_c, 0, 64, 69
1, 85720, Control_c, 0, 64, 57
1, 85735, Control_c, 0, 64, 26
1, 85750, Control_c, 0, 64, 0
1, 85795, Control_c, 0, 64, 24
1, 85809, Control_c, 0, 64, 40
1, 85824, Control_c, 0, 64, 54
1, 85839, Control_c, 0, 64, 62
1, 85854, Control_c, 0, 64, 65
1, 85869, Control_c, 0, 64, 69
1, 85884, Control_c, 0, 64, 74
1, 85893, Note_off_c, 0, 75, 50
1, 85899, Control_c, 0, 64, 80
1, 85914, Control_c, 0, 64, 88
1, 85929, Control_c, 0, 64, 102
1, 85943, Control_c, 0, 64, 127
1, 86047, Control_c, 0, 67, 16
1, 86061, Control_c, 0, 67, 29
1, 86076, Control_c, 0, 67, 45
1, 86091, Control_c, 0, 67, 57
1, 86106, Control_c, 0, 67, 67
1, 86121, Control_c, 0, 67, 74
1, 86135, Control_c, 0, 67, 78
1, 86148, Note_on_c, 0, 74, 51
1, 86150, Control_c, 0, 67, 78
1, 86254, Control_c, 0, 67, 78
1, 86268, Control_c, 0, 67, 77
1, 86281, Note_off_c, 0, 74, 54
1, 86283, Control_c, 0, 67, 77
1, 86287, Note_on_c, 0, 72, 51
1, 86298, Control_c, 0, 64, 116
1, 86298, Control_c, 0, 67, 76
1, 86300, Note_on_c, 0, 67, 39
1, 86310, Note_on_c, 0, 48, 36
1, 86313, Control_c, 0, 64, 103
1, 86324, Note_on_c, 0, 51, 37
1, 86328, Control_c, 0, 64, 92
1, 86331, Note_on_c, 0, 39, 32
1, 86343, Control_c, 0, 64, 82
1, 86343, Control_c, 0, 67, 75
1, 86365, Control_c, 0, 64, 73
1, 86365, Control_c, 0, 67, 75
1, 86380, Control_c, 0, 64, 66
1, 86380, Control_c, 0, 67, 74
1, 86394, Control_c, 0, 64, 59
1, 86394, Control_c, 0, 67, 73
1, 86409, Control_c, 0, 64, 54
1, 86409, Control_c, 0, 67, 73
1, 86424, Control_c, 0, 64, 52
1, 86439, Control_c, 0, 67, 72
1, 86454, Control_c, 0, 64, 52
1, 86454, Control_c, 0, 67, 72
1, 86468, Control_c, 0, 64, 49
1, 86468, Control_c, 0, 67, 71
1, 86483, Control_c, 0, 64, 42
1, 86498, Control_c, 0, 64, 32
1, 86513, Control_c, 0, 64, 23
1, 86513, Control_c, 0, 67, 70
1, 86528, Control_c, 0, 64, 17
1, 86528, Control_c, 0, 67, 70
1, 86543, Control_c, 0, 64, 13
1, 86543, Control_c, 0, 67, 69
1, 86558, Control_c, 0, 64, 9
1, 86558, Control_c, 0, 67, 68
1, 86573, Control_c, 0, 64, 0
1, 86573, Control_c, 0, 67, 67
1, 86603, Control_c, 0, 67, 66
1, 86618, Control_c, 0, 67, 65
1, 86633, Control_c, 0, 67, 64
1, 86648, Control_c, 0, 67, 61
1, 86663, Control_c, 0, 67, 59
1, 86678, Control_c, 0, 67, 57
1, 86692, Control_c, 0, 67, 56
1, 86707, Control_c, 0, 67, 55
1, 86722, Control_c, 0, 67, 55
1, 86737, Control_c, 0, 67, 53
1, 86752, Control_c, 0, 67, 53
1, 86766, Control_c, 0, 67, 52
1, 86781, Control_c, 0, 67, 51
1, 86811, Control_c, 0, 67, 51
1, 86841, Control_c, 0, 67, 50
1, 86885, Control_c, 0, 67, 50
1, 87115, Control_c, 0, 64, 11
1, 87130, Control_c, 0, 64, 17
1, 87144, Control_c, 0, 64, 27
1, 87159, Control_c, 0, 64, 37
1, 87174, Control_c, 0, 64, 47
1, 87189, Control_c, 0, 64, 55
1, 87204, Control_c, 0, 64, 60
1, 87218, Control_c, 0, 64, 62
1, 87233, Control_c, 0, 64, 64
1, 87248, Control_c, 0, 64, 66
1, 87248, Control_c, 0, 67, 49
1, 87263, Control_c, 0, 64, 68
1, 87278, Control_c, 0, 64, 71
1, 87278, Control_c, 0, 67, 48
1, 87292, Control_c, 0, 64, 75
1, 87307, Control_c, 0, 64, 81
1, 87307, Control_c, 0, 67, 48
1, 87322, Control_c, 0, 64, 91
1, 87336, Control_c, 0, 64, 103
1, 87340, Note_off_c, 0, 39, 40
1, 87351, Control_c, 0, 64, 127
1, 87351, Control_c, 0, 67, 47
1, 87383, Note_off_c, 0, 72, 38
1, 87390, Note_off_c, 0, 67, 38
1, 87487, Note_off_c, 0, 51, 40
1, 87556, Note_off_c, 0, 48, 34
1, 87706, Control_c, 0, 67, 48
1, 87751, Control_c, 0, 67, 48
1, 87780, Control_c, 0, 67, 49
1, 87810, Control_c, 0, 67, 50
1, 87839, Note_on_c, 0, 73, 50
1, 87862, Control_c, 0, 64, 104
1, 87877, Control_c, 0, 64, 82
1, 87877, Control_c, 0, 67, 50
1, 87892, Control_c, 0, 64, 69
1, 87907, Control_c, 0, 64, 59
1, 87921, Control_c, 0, 64, 45
1, 87936, Control_c, 0, 64, 40
1, 87951, Control_c, 0, 64, 43
1, 87951, Control_c, 0, 67, 51
1, 87965, Control_c, 0, 64, 48
1, 87980, Control_c, 0, 64, 56
1, 87995, Control_c, 0, 64, 61
1, 88010, Control_c, 0, 64, 64
1, 88025, Control_c, 0, 64, 67
1, 88039, Control_c, 0, 64, 71
1, 88054, Control_c, 0, 64, 78
1, 88069, Control_c, 0, 64, 91
1, 88084, Control_c, 0, 64, 112
1, 88089, Note_off_c, 0, 73, 61
1, 88099, Control_c, 0, 64, 127
1, 88126, Note_on_c, 0, 75, 53
1, 88175, Note_off_c, 0, 75, 59
1, 88207, Note_on_c, 0, 73, 62
1, 88248, Control_c, 0, 67, 51
1, 88266, Note_off_c, 0, 73, 54
1, 88278, Note_on_c, 0, 75, 47
1, 88322, Note_off_c, 0, 75, 62
1, 88322, Control_c, 0, 64, 110
1, 88334, Note_on_c, 0, 77, 63
1, 88337, Control_c, 0, 64, 88
1, 88343, Note_on_c, 0, 68, 52
1, 88352, Control_c, 0, 64, 69
1, 88360, Note_on_c, 0, 49, 40
1, 88367, Control_c, 0, 64, 57
1, 88381, Control_c, 0, 64, 34
1, 88396, Control_c, 0, 64, 21
1, 88411, Control_c, 0, 64, 22
1, 88426, Control_c, 0, 64, 27
1, 88441, Control_c, 0, 64, 35
1, 88455, Control_c, 0, 64, 45
1, 88470, Control_c, 0, 64, 55
1, 88485, Control_c, 0, 64, 62
1, 88500, Control_c, 0, 64, 65
1, 88515, Control_c, 0, 64, 70
1, 88529, Control_c, 0, 64, 77
1, 88536, Note_off_c, 0, 49, 60
1, 88544, Control_c, 0, 64, 86
1, 88559, Control_c, 0, 64, 98
1, 88565, Note_off_c, 0, 77, 57
1, 88574, Control_c, 0, 64, 127
1, 88584, Note_off_c, 0, 68, 36
1, 88670, Control_c, 0, 67, 51
1, 88803, Control_c, 0, 64, 103
1, 88811, Note_on_c, 0, 75, 58
1, 88818, Note_on_c, 0, 51, 48
1, 88818, Control_c, 0, 64, 81
1, 88830, Note_on_c, 0, 68, 47
1, 88833, Control_c, 0, 64, 66
1, 88848, Control_c, 0, 64, 51
1, 88862, Control_c, 0, 64, 25
1, 88877, Control_c, 0, 64, 23
1, 88892, Control_c, 0, 64, 31
1, 88907, Control_c, 0, 64, 44
1, 88922, Control_c, 0, 64, 54
1, 88936, Control_c, 0, 64, 61
1, 88949, Note_off_c, 0, 51, 57
1, 88951, Control_c, 0, 64, 64
1, 88958, Note_off_c, 0, 75, 57
1, 88965, Note_off_c, 0, 68, 58
1, 88967, Control_c, 0, 64, 67
1, 88982, Control_c, 0, 64, 70
1, 88997, Control_c, 0, 64, 75
1, 89011, Control_c, 0, 64, 81
1, 89026, Control_c, 0, 64, 88
1, 89041, Control_c, 0, 64, 97
1, 89056, Control_c, 0, 64, 107
1, 89071, Control_c, 0, 64, 127
1, 89148, Note_on_c, 0, 53, 45
1, 89153, Note_on_c, 0, 73, 59
1, 89167, Note_on_c, 0, 68, 41
1, 89189, Note_off_c, 0, 73, 65
1, 89190, Control_c, 0, 67, 51
1, 89202, Note_off_c, 0, 68, 49
1, 89219, Control_c, 0, 67, 52
1, 89225, Note_off_c, 0, 53, 56
1, 89249, Control_c, 0, 67, 53
1, 89263, Note_on_c, 0, 72, 55
1, 89264, Control_c, 0, 64, 119
1, 89264, Control_c, 0, 67, 55
1, 89277, Note_on_c, 0, 68, 49
1, 89278, Control_c, 0, 64, 99
1, 89278, Control_c, 0, 67, 56
1, 89279, Note_on_c, 0, 51, 47
1, 89293, Control_c, 0, 64, 86
1, 89293, Control_c, 0, 67, 58
1, 89308, Control_c, 0, 64, 74
1, 89308, Control_c, 0, 67, 60
1, 89323, Control_c, 0, 64, 65
1, 89323, Control_c, 0, 67, 62
1, 89338, Control_c, 0, 64, 56
1, 89338, Control_c, 0, 67, 64
1, 89360, Control_c, 0, 64, 46
1, 89360, Control_c, 0, 67, 66
1, 89375, Control_c, 0, 64, 41
1, 89375, Control_c, 0, 67, 68
1, 89389, Control_c, 0, 64, 41
1, 89389, Control_c, 0, 67, 70
1, 89404, Control_c, 0, 64, 39
1, 89404, Control_c, 0, 67, 72
1, 89409, Note_off_c, 0, 51, 56
1, 89416, Note_off_c, 0, 72, 60
1, 89419, Control_c, 0, 64, 33
1, 89419, Control_c, 0, 67, 74
1, 89434, Control_c, 0, 64, 15
1, 89434, Control_c, 0, 67, 76
1, 89449, Control_c, 0, 64, 0
1, 89449, Control_c, 0, 67, 78
1, 89452, Note_off_c, 0, 68, 56
1, 89464, Control_c, 0, 67, 79
1, 89479, Control_c, 0, 67, 80
1, 89493, Control_c, 0, 67, 81
1, 89508, Control_c, 0, 67, 82
1, 89523, Control_c, 0, 67, 82
1, 89553, Control_c, 0, 67, 83
1, 89582, Control_c, 0, 67, 87
1, 89597, Control_c, 0, 67, 96
1, 89611, Control_c, 0, 67, 102
1, 89626, Control_c, 0, 67, 103
1, 89656, Control_c, 0, 67, 102
1, 89671, Control_c, 0, 67, 100
1, 89685, Control_c, 0, 67, 98
1, 89700, Control_c, 0, 67, 97
1, 89715, Control_c, 0, 67, 96
1, 89729, Control_c, 0, 64, 12
1, 89729, Control_c, 0, 67, 94
1, 89744, Control_c, 0, 64, 39
1, 89744, Control_c, 0, 67, 92
1, 89761, Control_c, 0, 64, 52
1, 89761, Control_c, 0, 67, 89
1, 89772, Note_on_c, 0, 51, 41
1, 89773, Note_on_c, 0, 67, 43
1, 89774, Note_on_c, 0, 70, 50
1, 89776, Control_c, 0, 64, 60
1, 89776, Control_c, 0, 67, 87
1, 89780, Note_on_c, 0, 61, 37
1, 89784, Note_on_c, 0, 63, 33
1, 89786, Note_on_c, 0, 39, 36
1, 89790, Control_c, 0, 64, 64
1, 89790, Control_c, 0, 67, 86
1, 89805, Control_c, 0, 64, 67
1, 89805, Control_c, 0, 67, 85
1, 89820, Control_c, 0, 64, 71
1, 89820, Control_c, 0, 67, 83
1, 89834, Control_c, 0, 64, 76
1, 89834, Control_c, 0, 67, 83
1, 89849, Control_c, 0, 64, 80
1, 89849, Control_c, 0, 67, 82
1, 89864, Control_c, 0, 64, 85
1, 89879, Control_c, 0, 64, 87
1, 89887, Note_off_c, 0, 67, 53
1, 89890, Note_off_c, 0, 39, 53
1, 89890, Note_off_c, 0, 51, 56
1, 89894, Note_off_c, 0, 70, 57
1, 89908, Control_c, 0, 64, 86
1, 89918, Note_off_c, 0, 61, 57
1, 89923, Control_c, 0, 64, 84
1, 89938, Control_c, 0, 64, 83
1, 89950, Note_off_c, 0, 63, 31
1, 89953, Control_c, 0, 64, 81
1, 89953, Control_c, 0, 67, 83
1, 89968, Control_c, 0, 64, 80
1, 89968, Control_c, 0, 67, 83
1, 89983, Control_c, 0, 64, 78
1, 89998, Control_c, 0, 64, 75
1, 89998, Control_c, 0, 67, 84
1, 90012, Control_c, 0, 64, 71
1, 90027, Control_c, 0, 64, 67
1, 90042, Control_c, 0, 64, 64
1, 90057, Control_c, 0, 64, 61
1, 90072, Control_c, 0, 64, 59
1, 90072, Control_c, 0, 67, 85
1, 90087, Control_c, 0, 64, 59
1, 90123, Control_c, 0, 64, 58
1, 90138, Control_c, 0, 64, 57
1, 90153, Control_c, 0, 64, 56
1, 90167, Control_c, 0, 64, 54
1, 90182, Control_c, 0, 64, 52
1, 90197, Control_c, 0, 64, 51
1, 90212, Control_c, 0, 64, 49
1, 90227, Control_c, 0, 64, 48
1, 90242, Control_c, 0, 64, 47
1, 90257, Control_c, 0, 64, 45
1, 90265, Note_on_c, 0, 44, 36
1, 90266, Note_on_c, 0, 68, 48
1, 90272, Note_on_c, 0, 60, 42
1, 90272, Control_c, 0, 64, 43
1, 90278, Note_on_c, 0, 63, 35
1, 90287, Control_c, 0, 64, 41
1, 90301, Control_c, 0, 64, 39
1, 90316, Control_c, 0, 67, 84
1, 90346, Control_c, 0, 67, 83
1, 90361, Control_c, 0, 64, 39
1, 90376, Control_c, 0, 64, 42
1, 90391, Control_c, 0, 64, 45
1, 90406, Control_c, 0, 64, 52
1, 90421, Control_c, 0, 64, 56
1, 90421, Control_c, 0, 67, 83
1, 90421, Note_on_c, 0, 48, 38
1, 90435, Control_c, 0, 64, 60
1, 90450, Control_c, 0, 64, 62
1, 90465, Control_c, 0, 64, 63
1, 90480, Control_c, 0, 64, 63
1, 90495, Control_c, 0, 64, 64
1, 90509, Control_c, 0, 67, 82
1, 90535, Note_off_c, 0, 48, 50
1, 90557, Note_on_c, 0, 51, 43
1, 90570, Control_c, 0, 64, 63
1, 90600, Control_c, 0, 64, 63
1, 90614, Control_c, 0, 64, 62
1, 90629, Control_c, 0, 64, 61
1, 90644, Control_c, 0, 64, 59
1, 90658, Control_c, 0, 64, 55
1, 90673, Control_c, 0, 64, 48
1, 90673, Control_c, 0, 67, 82
1, 90688, Control_c, 0, 64, 41
1, 90697, Note_off_c, 0, 51, 60
1, 90703, Control_c, 0, 64, 37
1, 90710, Note_on_c, 0, 48, 41
1, 90747, Control_c, 0, 64, 39
1, 90747, Control_c, 0, 67, 81
1, 90762, Control_c, 0, 64, 43
1, 90777, Control_c, 0, 64, 49
1, 90792, Control_c, 0, 64, 54
1, 90806, Control_c, 0, 64, 58
1, 90821, Control_c, 0, 64, 61
1, 90836, Control_c, 0, 64, 63
1, 90836, Control_c, 0, 67, 80
1, 90858, Note_off_c, 0, 44, 41
1, 90858, Control_c, 0, 64, 64
1, 90858, Control_c, 0, 67, 80
1, 90863, Note_on_c, 0, 51, 40
1, 90873, Control_c, 0, 64, 66
1, 90888, Control_c, 0, 64, 68
1, 90888, Control_c, 0, 67, 79
1, 90903, Control_c, 0, 64, 70
1, 90918, Control_c, 0, 64, 72
1, 90932, Control_c, 0, 64, 74
1, 90947, Control_c, 0, 64, 75
1, 90954, Note_off_c, 0, 48, 34
1, 90962, Control_c, 0, 64, 77
1, 90977, Control_c, 0, 64, 78
1, 90977, Control_c, 0, 67, 78
1, 90981, Note_off_c, 0, 60, 43
1, 90991, Control_c, 0, 64, 79
1, 90991, Control_c, 0, 67, 78
1, 91006, Control_c, 0, 64, 80
1, 91017, Note_on_c, 0, 56, 40
1, 91021, Control_c, 0, 64, 80
1, 91021, Control_c, 0, 67, 77
1, 91023, Note_off_c, 0, 63, 32
1, 91036, Control_c, 0, 64, 81
1, 91065, Control_c, 0, 64, 81
1, 91088, Note_off_c, 0, 68, 40
1, 91116, Note_off_c, 0, 51, 28
1, 91124, Control_c, 0, 64, 81
1, 91139, Control_c, 0, 64, 80
1, 91154, Control_c, 0, 64, 79
1, 91169, Control_c, 0, 64, 78
1, 91170, Note_on_c, 0, 47, 45
1, 91183, Control_c, 0, 64, 76
1, 91198, Control_c, 0, 64, 72
1, 91213, Control_c, 0, 64, 66
1, 91213, Control_c, 0, 67, 77
1, 91228, Control_c, 0, 64, 56
1, 91229, Note_off_c, 0, 56, 29
1, 91243, Control_c, 0, 64, 39
1, 91257, Control_c, 0, 64, 21
1, 91272, Control_c, 0, 64, 19
1, 91317, Control_c, 0, 64, 24
1, 91323, Note_on_c, 0, 50, 36
1, 91331, Control_c, 0, 64, 34
1, 91331, Control_c, 0, 67, 76
1, 91346, Control_c, 0, 64, 47
1, 91362, Control_c, 0, 64, 57
1, 91377, Control_c, 0, 64, 62
1, 91392, Control_c, 0, 64, 65
1, 91406, Control_c, 0, 64, 67
1, 91406, Control_c, 0, 67, 75
1, 91421, Control_c, 0, 64, 70
1, 91436, Control_c, 0, 64, 72
1, 91436, Control_c, 0, 67, 75
1, 91451, Control_c, 0, 64, 75
1, 91451, Control_c, 0, 67, 74
1, 91457, Note_on_c, 0, 56, 46
1, 91466, Control_c, 0, 64, 79
1, 91480, Control_c, 0, 64, 82
1, 91495, Control_c, 0, 64, 85
1, 91497, Note_off_c, 0, 47, 35
1, 91510, Control_c, 0, 64, 89
1, 91525, Control_c, 0, 64, 91
1, 91525, Control_c, 0, 67, 73
1, 91540, Control_c, 0, 64, 92
1, 91569, Control_c, 0, 64, 91
1, 91569, Control_c, 0, 67, 73
1, 91584, Control_c, 0, 64, 90
1, 91605, Note_on_c, 0, 68, 57
1, 91606, Control_c, 0, 64, 88
1, 91606, Control_c, 0, 67, 70
1, 91621, Control_c, 0, 64, 85
1, 91621, Control_c, 0, 67, 67
1, 91624, Note_on_c, 0, 48, 41
1, 91636, Control_c, 0, 64, 81
1, 91636, Control_c, 0, 67, 65
1, 91651, Control_c, 0, 64, 74
1, 91651, Control_c, 0, 67, 63
1, 91666, Control_c, 0, 64, 65
1, 91666, Control_c, 0, 67, 62
1, 91679, Note_off_c, 0, 56, 24
1, 91680, Control_c, 0, 64, 52
1, 91680, Control_c, 0, 67, 61
1, 91695, Control_c, 0, 64, 0
1, 91695, Control_c, 0, 67, 60
1, 91700, Note_off_c, 0, 50, 33
1, 91710, Control_c, 0, 67, 59
1, 91754, Control_c, 0, 67, 58
1, 91758, Note_on_c, 0, 51, 43
1, 91784, Control_c, 0, 64, 21
1, 91784, Control_c, 0, 67, 58
1, 91799, Control_c, 0, 64, 42
1, 91813, Control_c, 0, 64, 55
1, 91828, Control_c, 0, 64, 61
1, 91843, Control_c, 0, 64, 64
1, 91858, Note_off_c, 0, 48, 54
1, 91858, Control_c, 0, 64, 66
1, 91873, Control_c, 0, 64, 69
1, 91887, Control_c, 0, 64, 72
1, 91887, Control_c, 0, 67, 57
1, 91902, Control_c, 0, 64, 76
1, 91903, Note_on_c, 0, 56, 42
1, 91917, Control_c, 0, 64, 80
1, 91932, Control_c, 0, 64, 85
1, 91947, Control_c, 0, 64, 90
1, 91962, Control_c, 0, 64, 95
1, 91977, Control_c, 0, 64, 102
1, 91991, Note_on_c, 0, 72, 59
1, 91992, Control_c, 0, 64, 106
1, 92004, Note_off_c, 0, 51, 26
1, 92006, Control_c, 0, 64, 106
1, 92051, Control_c, 0, 64, 105
1, 92066, Control_c, 0, 64, 104
1, 92080, Control_c, 0, 64, 102
1, 92095, Note_off_c, 0, 68, 34
1, 92095, Control_c, 0, 64, 100
1, 92110, Control_c, 0, 64, 97
1, 92118, Note_on_c, 0, 75, 66
1, 92125, Control_c, 0, 64, 94
1, 92140, Control_c, 0, 64, 89
1, 92149, Note_off_c, 0, 72, 60
1, 92156, Control_c, 0, 64, 80
1, 92159, Note_on_c, 0, 44, 40
1, 92171, Control_c, 0, 64, 67
1, 92185, Control_c, 0, 64, 54
1, 92200, Control_c, 0, 64, 15
1, 92212, Note_off_c, 0, 56, 37
1, 92215, Control_c, 0, 64, 0
1, 92274, Control_c, 0, 64, 21
1, 92289, Control_c, 0, 64, 41
1, 92293, Note_on_c, 0, 48, 40
1, 92303, Control_c, 0, 64, 55
1, 92318, Control_c, 0, 64, 62
1, 92318, Control_c, 0, 67, 56
1, 92333, Control_c, 0, 64, 67
1, 92355, Control_c, 0, 64, 73
1, 92358, Note_off_c, 0, 75, 57
1, 92370, Control_c, 0, 64, 81
1, 92382, Note_off_c, 0, 44, 39
1, 92385, Control_c, 0, 64, 91
1, 92385, Control_c, 0, 67, 56
1, 92396, Note_off_c, 0, 48, 59
1, 92400, Control_c, 0, 64, 105
1, 92415, Control_c, 0, 64, 127
1, 92462, Note_on_c, 0, 56, 42
1, 92503, Control_c, 0, 67, 55
1, 92548, Control_c, 0, 67, 55
1, 92588, Note_on_c, 0, 75, 68
1, 92601, Note_on_c, 0, 48, 43
1, 92607, Control_c, 0, 64, 110
1, 92622, Control_c, 0, 64, 88
1, 92636, Control_c, 0, 64, 70
1, 92636, Control_c, 0, 67, 54
1, 92651, Control_c, 0, 64, 59
1, 92661, Note_off_c, 0, 56, 43
1, 92666, Control_c, 0, 64, 40
1, 92681, Control_c, 0, 64, 36
1, 92696, Control_c, 0, 64, 42
1, 92710, Control_c, 0, 64, 51
1, 92725, Control_c, 0, 64, 60
1, 92739, Note_on_c, 0, 51, 49
1, 92740, Control_c, 0, 64, 64
1, 92755, Control_c, 0, 64, 68
1, 92770, Control_c, 0, 64, 74
1, 92770, Control_c, 0, 67, 53
1, 92780, Note_off_c, 0, 48, 55
1, 92785, Control_c, 0, 64, 83
1, 92800, Control_c, 0, 64, 99
1, 92800, Control_c, 0, 67, 53
1, 92803, Note_off_c, 0, 75, 62
1, 92815, Control_c, 0, 64, 127
1, 92879, Note_off_c, 0, 51, 52
1, 92889, Note_on_c, 0, 56, 52
1, 92889, Control_c, 0, 67, 52
1, 92918, Control_c, 0, 67, 46
1, 92933, Control_c, 0, 67, 32
1, 92949, Control_c, 0, 67, 23
1, 92964, Control_c, 0, 67, 16
1, 92978, Control_c, 0, 67, 10
1, 92993, Control_c, 0, 67, 0
1, 93025, Note_on_c, 0, 75, 75
1, 93047, Note_on_c, 0, 47, 50
1, 93052, Control_c, 0, 64, 97
1, 93067, Control_c, 0, 64, 76
1, 93082, Control_c, 0, 64, 63
1, 93104, Control_c, 0, 64, 34
1, 93119, Control_c, 0, 64, 21
1, 93133, Control_c, 0, 64, 30
1, 93148, Control_c, 0, 64, 42
1, 93162, Note_off_c, 0, 56, 26
1, 93163, Control_c, 0, 64, 53
1, 93178, Control_c, 0, 64, 60
1, 93193, Control_c, 0, 64, 65
1, 93196, Note_on_c, 0, 50, 54
1, 93208, Control_c, 0, 64, 70
1, 93223, Control_c, 0, 64, 77
1, 93238, Control_c, 0, 64, 90
1, 93252, Control_c, 0, 64, 127
1, 93281, Note_off_c, 0, 75, 59
1, 93299, Note_off_c, 0, 47, 56
1, 93327, Note_off_c, 0, 50, 62
1, 93335, Note_on_c, 0, 56, 55
1, 93474, Control_c, 0, 64, 117
1, 93485, Note_on_c, 0, 75, 80
1, 93489, Control_c, 0, 64, 91
1, 93492, Note_on_c, 0, 48, 55
1, 93504, Control_c, 0, 64, 74
1, 93519, Control_c, 0, 64, 62
1, 93533, Control_c, 0, 64, 44
1, 93548, Control_c, 0, 64, 30
1, 93563, Control_c, 0, 64, 33
1, 93578, Control_c, 0, 64, 40
1, 93593, Control_c, 0, 64, 48
1, 93607, Control_c, 0, 64, 56
1, 93616, Note_off_c, 0, 56, 26
1, 93622, Control_c, 0, 64, 61
1, 93631, Note_on_c, 0, 51, 60
1, 93637, Control_c, 0, 64, 64
1, 93652, Control_c, 0, 64, 67
1, 93667, Control_c, 0, 64, 71
1, 93682, Control_c, 0, 64, 76
1, 93687, Note_off_c, 0, 48, 56
1, 93697, Control_c, 0, 64, 82
1, 93712, Control_c, 0, 64, 91
1, 93726, Control_c, 0, 64, 103
1, 93741, Control_c, 0, 64, 127
1, 93785, Note_on_c, 0, 56, 50
1, 93828, Note_off_c, 0, 51, 47
1, 94016, Control_c, 0, 64, 123
1, 94021, Note_on_c, 0, 77, 72
1, 94031, Control_c, 0, 64, 106
1, 94046, Control_c, 0, 64, 94
1, 94049, Note_on_c, 0, 49, 39
1, 94061, Control_c, 0, 64, 84
1, 94075, Control_c, 0, 64, 74
1, 94087, Note_off_c, 0, 75, 59
1, 94090, Control_c, 0, 64, 65
1, 94105, Control_c, 0, 64, 57
1, 94120, Control_c, 0, 64, 44
1, 94120, Control_c, 0, 67, 8
1, 94135, Control_c, 0, 64, 32
1, 94135, Control_c, 0, 67, 17
1, 94136, Note_off_c, 0, 56, 35
1, 94150, Control_c, 0, 64, 17
1, 94150, Control_c, 0, 67, 27
1, 94165, Control_c, 0, 64, 0
1, 94165, Control_c, 0, 67, 38
1, 94180, Control_c, 0, 67, 49
1, 94195, Control_c, 0, 67, 57
1, 94197, Note_on_c, 0, 53, 43
1, 94209, Control_c, 0, 67, 60
1, 94254, Control_c, 0, 67, 60
1, 94269, Control_c, 0, 67, 58
1, 94283, Control_c, 0, 64, 31
1, 94283, Control_c, 0, 67, 56
1, 94298, Control_c, 0, 64, 52
1, 94298, Control_c, 0, 67, 55
1, 94313, Control_c, 0, 64, 62
1, 94313, Control_c, 0, 67, 54
1, 94328, Control_c, 0, 64, 66
1, 94328, Control_c, 0, 67, 53
1, 94343, Control_c, 0, 64, 70
1, 94343, Control_c, 0, 67, 52
1, 94347, Note_on_c, 0, 56, 39
1, 94356, Note_off_c, 0, 49, 32
1, 94357, Control_c, 0, 64, 75
1, 94357, Control_c, 0, 67, 51
1, 94372, Control_c, 0, 64, 81
1, 94372, Control_c, 0, 67, 50
1, 94387, Control_c, 0, 64, 87
1, 94387, Control_c, 0, 67, 49
1, 94401, Control_c, 0, 64, 94
1, 94416, Control_c, 0, 64, 100
1, 94431, Control_c, 0, 64, 102
1, 94475, Note_off_c, 0, 53, 34
1, 94475, Control_c, 0, 64, 101
1, 94490, Control_c, 0, 64, 100
1, 94497, Note_on_c, 0, 49, 39
1, 94505, Control_c, 0, 64, 97
1, 94519, Note_off_c, 0, 56, 29
1, 94520, Control_c, 0, 64, 94
1, 94535, Control_c, 0, 64, 87
1, 94551, Control_c, 0, 64, 77
1, 94566, Control_c, 0, 64, 66
1, 94580, Control_c, 0, 64, 52
1, 94603, Control_c, 0, 64, 34
1, 94603, Control_c, 0, 67, 48
1, 94618, Control_c, 0, 64, 31
1, 94632, Control_c, 0, 64, 35
1, 94647, Control_c, 0, 64, 42
1, 94661, Note_on_c, 0, 55, 39
1, 94662, Control_c, 0, 64, 51
1, 94662, Control_c, 0, 67, 48
1, 94677, Control_c, 0, 64, 58
1, 94692, Control_c, 0, 64, 62
1, 94706, Control_c, 0, 64, 65
1, 94721, Control_c, 0, 64, 68
1, 94721, Control_c, 0, 67, 47
1, 94736, Control_c, 0, 64, 72
1, 94736, Control_c, 0, 67, 46
1, 94751, Control_c, 0, 64, 77
1, 94766, Control_c, 0, 64, 82
1, 94766, Control_c, 0, 67, 46
1, 94780, Control_c, 0, 64, 89
1, 94780, Control_c, 0, 67, 45
1, 94795, Control_c, 0, 64, 95
1, 94810, Control_c, 0, 64, 100
1, 94815, Note_on_c, 0, 58, 42
1, 94819, Note_off_c, 0, 49, 30
1, 94824, Control_c, 0, 64, 102
1, 94827, Note_off_c, 0, 55, 51
1, 94839, Control_c, 0, 67, 45
1, 94853, Control_c, 0, 67, 44
1, 94889, Note_off_c, 0, 58, 47
1, 94898, Control_c, 0, 64, 101
1, 94898, Control_c, 0, 67, 43
1, 94913, Control_c, 0, 64, 100
1, 94928, Control_c, 0, 64, 97
1, 94943, Control_c, 0, 64, 94
1, 94958, Note_on_c, 0, 75, 58
1, 94958, Control_c, 0, 64, 90
1, 94958, Control_c, 0, 67, 43
1, 94972, Control_c, 0, 64, 84
1, 94987, Control_c, 0, 64, 76
1, 94987, Control_c, 0, 67, 42
1, 94992, Note_on_c, 0, 48, 41
1, 94997, Note_off_c, 0, 77, 27
1, 95002, Control_c, 0, 64, 66
1, 95017, Control_c, 0, 64, 54
1, 95031, Control_c, 0, 64, 24
1, 95046, Control_c, 0, 64, 0
1, 95061, Control_c, 0, 67, 41
1, 95076, Control_c, 0, 67, 41
1, 95091, Control_c, 0, 64, 17
1, 95091, Control_c, 0, 67, 40
1, 95105, Control_c, 0, 64, 33
1, 95105, Control_c, 0, 67, 40
1, 95120, Control_c, 0, 64, 48
1, 95120, Control_c, 0, 67, 38
1, 95122, Note_on_c, 0, 56, 43
1, 95135, Control_c, 0, 64, 58
1, 95135, Control_c, 0, 67, 36
1, 95150, Control_c, 0, 64, 64
1, 95150, Control_c, 0, 67, 35
1, 95165, Control_c, 0, 64, 67
1, 95165, Control_c, 0, 67, 33
1, 95179, Control_c, 0, 64, 71
1, 95179, Control_c, 0, 67, 31
1, 95194, Control_c, 0, 64, 75
1, 95194, Control_c, 0, 67, 26
1, 95209, Control_c, 0, 64, 80
1, 95209, Control_c, 0, 67, 19
1, 95223, Control_c, 0, 64, 86
1, 95223, Control_c, 0, 67, 13
1, 95238, Control_c, 0, 64, 94
1, 95238, Control_c, 0, 67, 0
1, 95253, Note_on_c, 0, 60, 47
1, 95253, Control_c, 0, 64, 100
1, 95268, Control_c, 0, 64, 104
1, 95278, Note_off_c, 0, 48, 32
1, 95283, Control_c, 0, 64, 107
1, 95295, Note_off_c, 0, 56, 33
1, 95298, Control_c, 0, 64, 107
1, 95351, Control_c, 0, 64, 107
1, 95366, Control_c, 0, 64, 105
1, 95381, Control_c, 0, 64, 103
1, 95396, Control_c, 0, 64, 101
1, 95410, Control_c, 0, 64, 97
1, 95421, Note_on_c, 0, 48, 54
1, 95425, Control_c, 0, 64, 91
1, 95440, Control_c, 0, 64, 82
1, 95443, Note_off_c, 0, 60, 34
1, 95454, Control_c, 0, 64, 70
1, 95469, Control_c, 0, 64, 60
1, 95484, Control_c, 0, 64, 40
1, 95499, Control_c, 0, 64, 26
1, 95514, Control_c, 0, 64, 27
1, 95528, Control_c, 0, 64, 35
1, 95543, Control_c, 0, 64, 45
1, 95558, Control_c, 0, 64, 53
1, 95559, Note_on_c, 0, 51, 48
1, 95573, Control_c, 0, 64, 59
1, 95588, Control_c, 0, 64, 63
1, 95602, Control_c, 0, 64, 65
1, 95617, Control_c, 0, 64, 69
1, 95632, Control_c, 0, 64, 72
1, 95646, Control_c, 0, 64, 77
1, 95661, Control_c, 0, 64, 84
1, 95665, Note_off_c, 0, 48, 38
1, 95676, Control_c, 0, 64, 92
1, 95691, Control_c, 0, 64, 101
1, 95696, Note_on_c, 0, 56, 57
1, 95706, Control_c, 0, 64, 111
1, 95710, Note_off_c, 0, 51, 60
1, 95721, Control_c, 0, 64, 113
1, 95733, Note_off_c, 0, 56, 65
1, 95766, Control_c, 0, 64, 114
1, 95795, Control_c, 0, 64, 113
1, 95810, Control_c, 0, 64, 110
1, 95825, Control_c, 0, 64, 107
1, 95840, Control_c, 0, 64, 103
1, 95854, Control_c, 0, 64, 100
1, 95861, Note_on_c, 0, 73, 64
1, 95869, Control_c, 0, 64, 97
1, 95884, Control_c, 0, 64, 91
1, 95899, Control_c, 0, 64, 82
1, 95900, Note_on_c, 0, 46, 45
1, 95914, Control_c, 0, 64, 72
1, 95921, Note_off_c, 0, 75, 57
1, 95928, Control_c, 0, 64, 63
1, 95943, Control_c, 0, 64, 46
1, 95958, Control_c, 0, 64, 16
1, 95973, Control_c, 0, 64, 0
1, 96032, Note_on_c, 0, 51, 45
1, 96032, Control_c, 0, 64, 18
1, 96046, Control_c, 0, 64, 32
1, 96061, Control_c, 0, 64, 46
1, 96076, Control_c, 0, 64, 58
1, 96099, Control_c, 0, 64, 63
1, 96114, Control_c, 0, 64, 66
1, 96117, Note_off_c, 0, 46, 51
1, 96128, Control_c, 0, 64, 70
1, 96143, Control_c, 0, 64, 73
1, 96159, Control_c, 0, 64, 77
1, 96174, Control_c, 0, 64, 81
1, 96183, Note_on_c, 0, 56, 40
1, 96189, Control_c, 0, 64, 84
1, 96204, Control_c, 0, 64, 86
1, 96219, Control_c, 0, 64, 87
1, 96240, Note_off_c, 0, 51, 33
1, 96256, Note_off_c, 0, 56, 45
1, 96263, Control_c, 0, 64, 86
1, 96277, Control_c, 0, 64, 85
1, 96292, Control_c, 0, 64, 84
1, 96307, Control_c, 0, 64, 83
1, 96322, Control_c, 0, 64, 81
1, 96332, Note_on_c, 0, 46, 44
1, 96337, Control_c, 0, 64, 77
1, 96351, Control_c, 0, 64, 71
1, 96351, Control_c, 0, 67, 18
1, 96366, Control_c, 0, 64, 62
1, 96366, Control_c, 0, 67, 33
1, 96381, Control_c, 0, 64, 48
1, 96381, Control_c, 0, 67, 46
1, 96396, Control_c, 0, 64, 26
1, 96396, Control_c, 0, 67, 52
1, 96411, Control_c, 0, 64, 17
1, 96440, Control_c, 0, 64, 21
1, 96440, Control_c, 0, 67, 51
1, 96455, Control_c, 0, 64, 28
1, 96455, Control_c, 0, 67, 50
1, 96469, Control_c, 0, 64, 37
1, 96469, Control_c, 0, 67, 48
1, 96477, Note_on_c, 0, 51, 49
1, 96484, Control_c, 0, 64, 49
1, 96484, Control_c, 0, 67, 47
1, 96499, Control_c, 0, 64, 58
1, 96499, Control_c, 0, 67, 46
1, 96514, Control_c, 0, 64, 63
1, 96514, Control_c, 0, 67, 45
1, 96529, Control_c, 0, 64, 66
1, 96529, Control_c, 0, 67, 44
1, 96544, Control_c, 0, 64, 69
1, 96544, Control_c, 0, 67, 43
1, 96559, Control_c, 0, 64, 73
1, 96559, Control_c, 0, 67, 42
1, 96573, Control_c, 0, 64, 76
1, 96573, Control_c, 0, 67, 41
1, 96588, Control_c, 0, 64, 80
1, 96603, Control_c, 0, 64, 84
1, 96603, Control_c, 0, 67, 41
1, 96618, Control_c, 0, 64, 87
1, 96626, Note_off_c, 0, 46, 37
1, 96633, Control_c, 0, 64, 89
1, 96633, Note_off_c, 0, 73, 49
1, 96635, Note_on_c, 0, 55, 42
1, 96648, Control_c, 0, 64, 89
1, 96648, Control_c, 0, 67, 40
1, 96665, Note_off_c, 0, 51, 35
1, 96692, Control_c, 0, 64, 90
1, 96697, Note_off_c, 0, 55, 55
1, 96722, Control_c, 0, 64, 89
1, 96737, Control_c, 0, 64, 89
1, 96751, Control_c, 0, 64, 88
1, 96766, Control_c, 0, 64, 87
1, 96781, Control_c, 0, 64, 85
1, 96794, Note_on_c, 0, 72, 55
1, 96796, Control_c, 0, 64, 82
1, 96811, Control_c, 0, 64, 78
1, 96815, Note_on_c, 0, 44, 40
1, 96825, Control_c, 0, 64, 69
1, 96848, Control_c, 0, 64, 61
1, 96863, Control_c, 0, 64, 42
1, 96877, Control_c, 0, 64, 9
1, 96892, Control_c, 0, 64, 0
1, 96907, Control_c, 0, 67, 40
1, 96922, Control_c, 0, 67, 39
1, 96937, Control_c, 0, 64, 15
1, 96937, Control_c, 0, 67, 38
1, 96943, Note_on_c, 0, 51, 45
1, 96952, Control_c, 0, 64, 26
1, 96952, Control_c, 0, 67, 37
1, 96967, Control_c, 0, 64, 39
1, 96967, Control_c, 0, 67, 36
1, 96982, Control_c, 0, 64, 50
1, 96982, Control_c, 0, 67, 36
1, 96997, Control_c, 0, 64, 58
1, 96997, Control_c, 0, 67, 35
1, 97012, Control_c, 0, 64, 62
1, 97012, Control_c, 0, 67, 33
1, 97027, Control_c, 0, 64, 65
1, 97027, Control_c, 0, 67, 32
1, 97041, Control_c, 0, 64, 67
1, 97041, Control_c, 0, 67, 31
1, 97056, Control_c, 0, 64, 70
1, 97056, Control_c, 0, 67, 29
1, 97071, Control_c, 0, 64, 73
1, 97071, Control_c, 0, 67, 28
1, 97086, Control_c, 0, 64, 76
1, 97086, Control_c, 0, 67, 27
1, 97095, Note_off_c, 0, 44, 34
1, 97101, Control_c, 0, 64, 79
1, 97101, Control_c, 0, 67, 26
1, 97108, Note_on_c, 0, 58, 40
1, 97116, Control_c, 0, 64, 81
1, 97116, Control_c, 0, 67, 25
1, 97131, Control_c, 0, 64, 82
1, 97131, Control_c, 0, 67, 24
1, 97138, Note_off_c, 0, 51, 36
1, 97146, Control_c, 0, 64, 82
1, 97146, Control_c, 0, 67, 24
1, 97161, Control_c, 0, 64, 83
1, 97161, Control_c, 0, 67, 19
1, 97175, Control_c, 0, 67, 15
1, 97190, Control_c, 0, 67, 11
1, 97205, Control_c, 0, 67, 8
1, 97208, Note_off_c, 0, 58, 37
1, 97219, Control_c, 0, 64, 82
1, 97219, Control_c, 0, 67, 0
1, 97234, Control_c, 0, 64, 81
1, 97249, Control_c, 0, 64, 80
1, 97250, Note_on_c, 0, 44, 49
1, 97264, Control_c, 0, 64, 76
1, 97279, Control_c, 0, 64, 70
1, 97293, Control_c, 0, 64, 60
1, 97308, Control_c, 0, 64, 36
1, 97323, Control_c, 0, 64, 0
1, 97381, Note_on_c, 0, 51, 54
1, 97382, Control_c, 0, 64, 29
1, 97397, Control_c, 0, 64, 46
1, 97412, Control_c, 0, 64, 58
1, 97426, Control_c, 0, 64, 63
1, 97441, Control_c, 0, 64, 66
1, 97456, Control_c, 0, 64, 70
1, 97471, Note_off_c, 0, 44, 47
1, 97471, Control_c, 0, 64, 76
1, 97486, Control_c, 0, 64, 81
1, 97501, Control_c, 0, 64, 87
1, 97515, Control_c, 0, 64, 95
1, 97529, Note_off_c, 0, 51, 61
1, 97530, Control_c, 0, 64, 104
1, 97537, Note_on_c, 0, 56, 54
1, 97545, Control_c, 0, 64, 113
1, 97560, Control_c, 0, 64, 123
1, 97633, Note_off_c, 0, 56, 50
1, 97671, Control_c, 0, 64, 121
1, 97686, Control_c, 0, 64, 117
1, 97700, Control_c, 0, 64, 113
1, 97715, Control_c, 0, 64, 110
1, 97728, Note_on_c, 0, 70, 69
1, 97730, Control_c, 0, 64, 105
1, 97746, Control_c, 0, 64, 99
1, 97761, Note_on_c, 0, 49, 40
1, 97761, Control_c, 0, 64, 90
1, 97775, Note_off_c, 0, 72, 54
1, 97776, Control_c, 0, 64, 80
1, 97791, Control_c, 0, 64, 68
1, 97805, Control_c, 0, 64, 55
1, 97820, Control_c, 0, 64, 12
1, 97835, Control_c, 0, 64, 0
1, 97893, Note_on_c, 0, 56, 48
1, 97938, Control_c, 0, 64, 43
1, 97953, Control_c, 0, 64, 57
1, 97968, Control_c, 0, 64, 64
1, 97969, Note_off_c, 0, 49, 53
1, 97983, Control_c, 0, 64, 68
1, 97997, Control_c, 0, 64, 73
1, 98012, Control_c, 0, 64, 80
1, 98027, Control_c, 0, 64, 89
1, 98040, Note_on_c, 0, 58, 53
1, 98041, Control_c, 0, 64, 99
1, 98051, Note_off_c, 0, 56, 52
1, 98056, Control_c, 0, 64, 111
1, 98071, Control_c, 0, 64, 127
1, 98160, Note_off_c, 0, 58, 53
1, 98189, Control_c, 0, 64, 113
1, 98196, Note_on_c, 0, 73, 71
1, 98204, Control_c, 0, 64, 102
1, 98216, Note_on_c, 0, 53, 50
1, 98219, Control_c, 0, 64, 87
1, 98234, Control_c, 0, 64, 74
1, 98237, Note_off_c, 0, 70, 59
1, 98249, Control_c, 0, 64, 63
1, 98264, Control_c, 0, 64, 39
1, 98279, Control_c, 0, 64, 0
1, 98345, Control_c, 0, 64, 13
1, 98360, Control_c, 0, 64, 34
1, 98362, Note_on_c, 0, 56, 43
1, 98375, Control_c, 0, 64, 48
1, 98387, Note_off_c, 0, 53, 53
1, 98390, Control_c, 0, 64, 58
1, 98404, Control_c, 0, 64, 63
1, 98419, Control_c, 0, 64, 66
1, 98434, Control_c, 0, 64, 68
1, 98448, Control_c, 0, 64, 72
1, 98463, Control_c, 0, 64, 76
1, 98478, Control_c, 0, 64, 82
1, 98478, Control_c, 0, 67, 8
1, 98493, Note_off_c, 0, 56, 61
1, 98493, Control_c, 0, 64, 91
1, 98493, Control_c, 0, 67, 17
1, 98508, Control_c, 0, 64, 97
1, 98508, Control_c, 0, 67, 27
1, 98515, Note_on_c, 0, 61, 46
1, 98523, Control_c, 0, 64, 100
1, 98523, Control_c, 0, 67, 38
1, 98538, Control_c, 0, 64, 101
1, 98538, Control_c, 0, 67, 51
1, 98550, Note_off_c, 0, 73, 37
1, 98553, Control_c, 0, 67, 62
1, 98568, Control_c, 0, 67, 73
1, 98583, Control_c, 0, 67, 78
1, 98598, Control_c, 0, 67, 79
1, 98612, Control_c, 0, 64, 99
1, 98612, Control_c, 0, 67, 80
1, 98627, Control_c, 0, 64, 98
1, 98642, Control_c, 0, 64, 94
1, 98657, Control_c, 0, 64, 91
1, 98672, Control_c, 0, 64, 86
1, 98683, Note_on_c, 0, 51, 48
1, 98683, Note_on_c, 0, 72, 58
1, 98687, Control_c, 0, 64, 77
1, 98702, Control_c, 0, 64, 68
1, 98702, Control_c, 0, 67, 79
1, 98711, Note_off_c, 0, 61, 40
1, 98717, Control_c, 0, 64, 58
1, 98717, Control_c, 0, 67, 78
1, 98732, Control_c, 0, 64, 33
1, 98732, Control_c, 0, 67, 78
1, 98746, Control_c, 0, 64, 0
1, 98746, Control_c, 0, 67, 77
1, 98761, Control_c, 0, 67, 77
1, 98776, Control_c, 0, 67, 76
1, 98791, Control_c, 0, 67, 75
1, 98806, Control_c, 0, 67, 73
1, 98820, Control_c, 0, 64, 16
1, 98820, Control_c, 0, 67, 72
1, 98835, Control_c, 0, 64, 34
1, 98835, Control_c, 0, 67, 70
1, 98836, Note_on_c, 0, 56, 38
1, 98850, Control_c, 0, 64, 47
1, 98850, Control_c, 0, 67, 70
1, 98864, Control_c, 0, 64, 57
1, 98864, Control_c, 0, 67, 69
1, 98879, Control_c, 0, 64, 61
1, 98879, Control_c, 0, 67, 68
1, 98894, Control_c, 0, 64, 64
1, 98894, Control_c, 0, 67, 67
1, 98909, Control_c, 0, 64, 66
1, 98909, Control_c, 0, 67, 66
1, 98924, Control_c, 0, 64, 68
1, 98924, Control_c, 0, 67, 65
1, 98934, Note_off_c, 0, 72, 53
1, 98938, Control_c, 0, 64, 70
1, 98938, Control_c, 0, 67, 63
1, 98953, Control_c, 0, 64, 73
1, 98956, Note_off_c, 0, 51, 34
1, 98968, Control_c, 0, 64, 76
1, 98983, Control_c, 0, 64, 78
1, 98998, Control_c, 0, 64, 81
1, 98998, Control_c, 0, 67, 63
1, 99009, Note_on_c, 0, 60, 38
1, 99012, Control_c, 0, 64, 82
1, 99012, Control_c, 0, 67, 62
1, 99017, Note_off_c, 0, 56, 41
1, 99027, Control_c, 0, 64, 83
1, 99027, Control_c, 0, 67, 61
1, 99042, Control_c, 0, 64, 84
1, 99042, Control_c, 0, 67, 61
1, 99057, Control_c, 0, 67, 60
1, 99071, Control_c, 0, 67, 60
1, 99124, Control_c, 0, 64, 84
1, 99139, Control_c, 0, 64, 83
1, 99153, Control_c, 0, 64, 81
1, 99153, Control_c, 0, 67, 59
1, 99156, Note_off_c, 0, 60, 26
1, 99159, Note_on_c, 0, 70, 55
1, 99168, Control_c, 0, 64, 77
1, 99177, Note_on_c, 0, 51, 43
1, 99183, Control_c, 0, 64, 70
1, 99183, Control_c, 0, 67, 58
1, 99198, Control_c, 0, 64, 62
1, 99198, Control_c, 0, 67, 58
1, 99213, Control_c, 0, 64, 47
1, 99227, Control_c, 0, 64, 32
1, 99227, Control_c, 0, 67, 57
1, 99242, Control_c, 0, 64, 30
1, 99257, Control_c, 0, 64, 36
1, 99271, Control_c, 0, 64, 43
1, 99286, Control_c, 0, 64, 52
1, 99301, Control_c, 0, 64, 58
1, 99309, Note_on_c, 0, 55, 39
1, 99316, Control_c, 0, 64, 62
1, 99331, Control_c, 0, 64, 65
1, 99347, Control_c, 0, 64, 68
1, 99362, Control_c, 0, 64, 72
1, 99364, Note_off_c, 0, 70, 54
1, 99376, Control_c, 0, 64, 77
1, 99381, Note_off_c, 0, 51, 34
1, 99391, Control_c, 0, 64, 83
1, 99406, Control_c, 0, 64, 91
1, 99421, Control_c, 0, 64, 103
1, 99436, Control_c, 0, 64, 127
1, 99437, Note_off_c, 0, 55, 63
1, 99506, Note_on_c, 0, 58, 37
1, 99542, Note_off_c, 0, 58, 52
1, 99681, Note_on_c, 0, 68, 56
1, 99702, Control_c, 0, 64, 111
1, 99709, Note_on_c, 0, 44, 42
1, 99717, Control_c, 0, 64, 99
1, 99732, Control_c, 0, 64, 85
1, 99747, Control_c, 0, 64, 72
1, 99761, Control_c, 0, 64, 61
1, 99776, Control_c, 0, 64, 43
1, 99791, Control_c, 0, 64, 26
1, 99806, Control_c, 0, 64, 25
1, 99835, Control_c, 0, 64, 28
1, 99858, Note_on_c, 0, 48, 39
1, 99858, Control_c, 0, 64, 33
1, 99873, Control_c, 0, 64, 40
1, 99888, Control_c, 0, 64, 49
1, 99902, Control_c, 0, 64, 58
1, 99917, Control_c, 0, 64, 63
1, 99932, Control_c, 0, 64, 66
1, 99947, Control_c, 0, 64, 69
1, 99962, Note_off_c, 0, 48, 58
1, 99962, Control_c, 0, 64, 74
1, 99966, Note_off_c, 0, 44, 40
1, 99976, Control_c, 0, 64, 79
1, 99976, Control_c, 0, 67, 56
1, 99991, Control_c, 0, 64, 86
1, 100006, Control_c, 0, 64, 92
1, 100020, Note_on_c, 0, 56, 46
1, 100020, Control_c, 0, 64, 96
1, 100035, Control_c, 0, 64, 99
1, 100050, Control_c, 0, 64, 100
1, 100080, Control_c, 0, 67, 56
1, 100091, Note_off_c, 0, 56, 45
1, 100113, Poly_aftertouch_c, 0, 72, 127
1, 100124, Control_c, 0, 64, 99
1, 100140, Control_c, 0, 64, 98
1, 100153, Note_on_c, 0, 48, 52
1, 100155, Control_c, 0, 64, 96
1, 100170, Control_c, 0, 64, 91
1, 100185, Control_c, 0, 64, 83
1, 100185, Control_c, 0, 67, 55
1, 100199, Control_c, 0, 64, 73
1, 100214, Control_c, 0, 64, 63
1, 100229, Control_c, 0, 64, 48
1, 100244, Control_c, 0, 64, 34
1, 100259, Control_c, 0, 64, 35
1, 100273, Control_c, 0, 64, 41
1, 100279, Poly_aftertouch_c, 0, 72, 0
1, 100288, Control_c, 0, 64, 48
1, 100297, Note_on_c, 0, 51, 54
1, 100303, Control_c, 0, 64, 55
1, 100317, Control_c, 0, 64, 60
1, 100317, Control_c, 0, 67, 55
1, 100323, Note_off_c, 0, 48, 56
1, 100332, Control_c, 0, 64, 63
1, 100332, Control_c, 0, 67, 54
1, 100347, Control_c, 0, 64, 65
1, 100347, Control_c, 0, 67, 53
1, 100362, Control_c, 0, 64, 69
1, 100362, Control_c, 0, 67, 52
1, 100377, Control_c, 0, 64, 73
1, 100377, Control_c, 0, 67, 51
1, 100392, Control_c, 0, 64, 78
1, 100392, Control_c, 0, 67, 51
1, 100407, Control_c, 0, 64, 85
1, 100407, Control_c, 0, 67, 50
1, 100422, Control_c, 0, 64, 93
1, 100422, Control_c, 0, 67, 46
1, 100434, Note_off_c, 0, 68, 51
1, 100436, Control_c, 0, 64, 103
1, 100436, Control_c, 0, 67, 38
1, 100440, Note_on_c, 0, 56, 59
1, 100451, Control_c, 0, 64, 123
1, 100451, Control_c, 0, 67, 32
1, 100466, Control_c, 0, 64, 127
1, 100466, Control_c, 0, 67, 26
1, 100481, Control_c, 0, 67, 22
1, 100496, Control_c, 0, 67, 18
1, 100510, Control_c, 0, 67, 14
1, 100525, Control_c, 0, 67, 12
1, 100540, Control_c, 0, 67, 9
1, 100555, Control_c, 0, 67, 8
1, 100562, Note_off_c, 0, 51, 35
1, 100570, Control_c, 0, 64, 110
1, 100570, Control_c, 0, 67, 0
1, 100592, Control_c, 0, 64, 100
1, 100593, Note_on_c, 0, 47, 57
1, 100607, Control_c, 0, 64, 89
1, 100622, Control_c, 0, 64, 76
1, 100625, Note_off_c, 0, 56, 35
1, 100636, Control_c, 0, 64, 65
1, 100651, Control_c, 0, 64, 43
1, 100666, Control_c, 0, 64, 0
1, 100735, Note_on_c, 0, 50, 50
1, 100770, Control_c, 0, 64, 30
1, 100785, Control_c, 0, 64, 51
1, 100799, Control_c, 0, 64, 61
1, 100814, Control_c, 0, 64, 65
1, 100829, Control_c, 0, 64, 69
1, 100843, Control_c, 0, 64, 73
1, 100858, Note_on_c, 0, 56, 49
1, 100858, Control_c, 0, 64, 78
1, 100873, Control_c, 0, 64, 82
1, 100888, Control_c, 0, 64, 85
1, 100903, Control_c, 0, 64, 87
1, 100917, Control_c, 0, 64, 88
1, 100943, Note_off_c, 0, 47, 29
1, 100948, Control_c, 0, 64, 87
1, 100963, Control_c, 0, 64, 86
1, 100978, Control_c, 0, 64, 83
1, 100993, Control_c, 0, 64, 78
1, 101008, Control_c, 0, 64, 69
1, 101012, Note_on_c, 0, 68, 63
1, 101022, Control_c, 0, 64, 58
1, 101022, Control_c, 0, 67, 8
1, 101026, Note_on_c, 0, 48, 44
1, 101036, Note_off_c, 0, 50, 35
1, 101037, Control_c, 0, 64, 23
1, 101037, Control_c, 0, 67, 8
1, 101041, Note_off_c, 0, 56, 35
1, 101052, Control_c, 0, 64, 0
1, 101052, Control_c, 0, 67, 9
1, 101066, Control_c, 0, 67, 9
1, 101126, Control_c, 0, 67, 8
1, 101140, Control_c, 0, 67, 8
1, 101155, Control_c, 0, 67, 0
1, 101162, Note_on_c, 0, 51, 54
1, 101170, Control_c, 0, 64, 18
1, 101185, Control_c, 0, 64, 43
1, 101200, Control_c, 0, 64, 59
1, 101215, Control_c, 0, 64, 64
1, 101230, Control_c, 0, 64, 69
1, 101245, Control_c, 0, 64, 75
1, 101259, Control_c, 0, 64, 84
1, 101274, Control_c, 0, 64, 100
1, 101286, Note_on_c, 0, 56, 51
1, 101289, Control_c, 0, 64, 127
1, 101355, Note_on_c, 0, 72, 69
1, 101356, Note_off_c, 0, 48, 54
1, 101359, Note_off_c, 0, 68, 60
1, 101489, Control_c, 0, 64, 105
1, 101496, Note_on_c, 0, 75, 71
1, 101504, Control_c, 0, 64, 84
1, 101519, Control_c, 0, 64, 69
1, 101521, Note_on_c, 0, 44, 45
1, 101522, Note_off_c, 0, 72, 58
1, 101524, Note_on_c, 0, 63, 53
1, 101531, Note_off_c, 0, 51, 40
1, 101534, Control_c, 0, 64, 53
1, 101548, Control_c, 0, 64, 0
1, 101559, Note_off_c, 0, 56, 42
1, 101639, Note_on_c, 0, 48, 45
1, 101652, Control_c, 0, 64, 35
1, 101666, Control_c, 0, 64, 56
1, 101681, Control_c, 0, 64, 64
1, 101696, Control_c, 0, 64, 68
1, 101711, Control_c, 0, 64, 75
1, 101726, Control_c, 0, 64, 85
1, 101739, Note_off_c, 0, 48, 60
1, 101740, Note_off_c, 0, 44, 40
1, 101742, Control_c, 0, 64, 99
1, 101757, Control_c, 0, 64, 127
1, 101796, Note_on_c, 0, 56, 48
1, 101803, Note_off_c, 0, 75, 54
1, 101815, Note_off_c, 0, 63, 38
1, 101948, Note_on_c, 0, 75, 69
1, 101956, Note_on_c, 0, 63, 56
1, 101976, Note_on_c, 0, 48, 50
1, 101978, Control_c, 0, 64, 99
1, 101993, Control_c, 0, 64, 78
1, 102008, Control_c, 0, 64, 64
1, 102023, Control_c, 0, 64, 46
1, 102037, Control_c, 0, 64, 21
1, 102052, Control_c, 0, 64, 23
1, 102067, Control_c, 0, 64, 35
1, 102089, Control_c, 0, 64, 49
1, 102104, Control_c, 0, 64, 59
1, 102109, Note_on_c, 0, 51, 62
1, 102119, Control_c, 0, 64, 64
1, 102134, Control_c, 0, 64, 68
1, 102149, Control_c, 0, 64, 74
1, 102150, Note_off_c, 0, 56, 22
1, 102163, Note_off_c, 0, 48, 56
1, 102163, Control_c, 0, 64, 83
1, 102178, Control_c, 0, 64, 96
1, 102193, Control_c, 0, 64, 127
1, 102241, Note_off_c, 0, 63, 58
1, 102247, Note_on_c, 0, 56, 65
1, 102247, Note_off_c, 0, 51, 61
1, 102255, Note_off_c, 0, 75, 55
1, 102381, Note_on_c, 0, 75, 82
1, 102386, Control_c, 0, 64, 116
1, 102390, Note_on_c, 0, 63, 72
1, 102401, Control_c, 0, 64, 89
1, 102401, Note_on_c, 0, 47, 62
1, 102416, Control_c, 0, 64, 68
1, 102425, Note_off_c, 0, 56, 56
1, 102431, Control_c, 0, 64, 50
1, 102445, Control_c, 0, 64, 0
1, 102539, Note_on_c, 0, 50, 67
1, 102565, Control_c, 0, 64, 44
1, 102580, Control_c, 0, 64, 60
1, 102594, Control_c, 0, 64, 67
1, 102609, Control_c, 0, 64, 75
1, 102624, Control_c, 0, 64, 89
1, 102639, Control_c, 0, 64, 119
1, 102654, Control_c, 0, 64, 127
1, 102657, Note_off_c, 0, 63, 59
1, 102658, Note_off_c, 0, 47, 36
1, 102693, Note_on_c, 0, 56, 79
1, 102700, Note_off_c, 0, 50, 63
1, 102701, Note_off_c, 0, 75, 54
1, 102839, Note_on_c, 0, 75, 93
1, 102845, Note_on_c, 0, 63, 87
1, 102865, Note_on_c, 0, 48, 65
1, 102868, Control_c, 0, 64, 91
1, 102883, Control_c, 0, 64, 70
1, 102893, Note_off_c, 0, 56, 54
1, 102898, Control_c, 0, 64, 51
1, 102912, Control_c, 0, 64, 0
1, 102982, Note_on_c, 0, 51, 81
1, 102986, Control_c, 0, 64, 33
1, 103001, Control_c, 0, 64, 54
1, 103013, Note_off_c, 0, 48, 61
1, 103016, Control_c, 0, 64, 63
1, 103031, Control_c, 0, 64, 68
1, 103046, Control_c, 0, 64, 75
1, 103060, Control_c, 0, 64, 88
1, 103075, Control_c, 0, 64, 108
1, 103090, Control_c, 0, 64, 127
1, 103125, Note_on_c, 0, 56, 86
1, 103140, Note_off_c, 0, 63, 58
1, 103171, Note_off_c, 0, 75, 59
1, 103182, Note_off_c, 0, 51, 61
1, 103408, Note_on_c, 0, 76, 89
1, 103417, Control_c, 0, 64, 118
1, 103418, Note_on_c, 0, 64, 74
1, 103432, Control_c, 0, 64, 94
1, 103447, Control_c, 0, 64, 80
1, 103447, Note_on_c, 0, 49, 52
1, 103462, Control_c, 0, 64, 69
1, 103477, Control_c, 0, 64, 58
1, 103484, Note_off_c, 0, 56, 55
1, 103491, Control_c, 0, 64, 35
1, 103506, Control_c, 0, 64, 0
1, 103613, Note_on_c, 0, 52, 55
1, 103677, Control_c, 0, 64, 36
1, 103691, Control_c, 0, 64, 52
1, 103702, Note_off_c, 0, 49, 47
1, 103706, Control_c, 0, 64, 61
1, 103721, Control_c, 0, 64, 65
1, 103735, Control_c, 0, 64, 68
1, 103746, Note_off_c, 0, 52, 55
1, 103750, Control_c, 0, 64, 72
1, 103760, Note_on_c, 0, 56, 48
1, 103765, Control_c, 0, 64, 75
1, 103780, Control_c, 0, 64, 78
1, 103795, Control_c, 0, 64, 80
1, 103809, Control_c, 0, 64, 82
1, 103854, Control_c, 0, 64, 81
1, 103868, Control_c, 0, 64, 80
1, 103871, Note_off_c, 0, 56, 50
1, 103883, Control_c, 0, 64, 78
1, 103898, Control_c, 0, 64, 73
1, 103906, Note_on_c, 0, 49, 45
1, 103913, Control_c, 0, 64, 65
1, 103928, Control_c, 0, 64, 53
1, 103942, Control_c, 0, 64, 12
1, 103957, Control_c, 0, 64, 0
1, 104002, Control_c, 0, 64, 16
1, 104017, Control_c, 0, 64, 40
1, 104032, Control_c, 0, 64, 55
1, 104044, Note_on_c, 0, 52, 52
1, 104047, Control_c, 0, 64, 63
1, 104061, Control_c, 0, 64, 67
1, 104076, Control_c, 0, 64, 71
1, 104076, Note_off_c, 0, 64, 59
1, 104091, Control_c, 0, 64, 78
1, 104106, Control_c, 0, 64, 85
1, 104121, Control_c, 0, 64, 93
1, 104136, Note_off_c, 0, 49, 33
1, 104136, Control_c, 0, 64, 106
1, 104151, Control_c, 0, 64, 127
1, 104192, Note_on_c, 0, 58, 51
1, 104264, Note_off_c, 0, 58, 62
1, 104351, Control_c, 0, 64, 115
1, 104353, Note_on_c, 0, 75, 65
1, 104360, Note_off_c, 0, 52, 30
1, 104366, Control_c, 0, 64, 102
1, 104367, Note_on_c, 0, 63, 45
1, 104374, Note_on_c, 0, 47, 47
1, 104380, Control_c, 0, 64, 91
1, 104387, Note_off_c, 0, 76, 60
1, 104395, Control_c, 0, 64, 78
1, 104410, Control_c, 0, 64, 66
1, 104425, Control_c, 0, 64, 51
1, 104440, Control_c, 0, 64, 0
1, 104518, Note_on_c, 0, 54, 53
1, 104558, Control_c, 0, 64, 17
1, 104573, Control_c, 0, 64, 44
1, 104588, Control_c, 0, 64, 57
1, 104603, Control_c, 0, 64, 63
1, 104618, Control_c, 0, 64, 67
1, 104632, Control_c, 0, 64, 72
1, 104647, Control_c, 0, 64, 80
1, 104652, Note_off_c, 0, 47, 37
1, 104662, Control_c, 0, 64, 89
1, 104664, Note_on_c, 0, 59, 54
1, 104677, Control_c, 0, 64, 103
1, 104691, Control_c, 0, 64, 127
1, 104756, Note_off_c, 0, 54, 32
1, 104795, Control_c, 0, 64, 107
1, 104807, Note_on_c, 0, 47, 53
1, 104810, Control_c, 0, 64, 86
1, 104825, Control_c, 0, 64, 67
1, 104839, Control_c, 0, 64, 49
1, 104854, Control_c, 0, 64, 0
1, 104869, Note_off_c, 0, 59, 32
1, 104884, Control_c, 0, 64, 18
1, 104899, Control_c, 0, 64, 40
1, 104914, Control_c, 0, 64, 56
1, 104929, Control_c, 0, 64, 62
1, 104944, Control_c, 0, 64, 66
1, 104947, Note_on_c, 0, 54, 70
1, 104959, Control_c, 0, 64, 71
1, 104974, Control_c, 0, 64, 77
1, 104980, Note_off_c, 0, 75, 58
1, 104989, Control_c, 0, 64, 86
1, 104992, Note_off_c, 0, 47, 40
1, 105003, Control_c, 0, 64, 100
1, 105018, Control_c, 0, 64, 127
1, 105071, Note_on_c, 0, 59, 64
1, 105090, Note_off_c, 0, 54, 62
1, 105099, Note_off_c, 0, 63, 56
1, 105212, Note_off_c, 0, 59, 60
1, 105263, Note_on_c, 0, 73, 77
1, 105263, Control_c, 0, 64, 99
1, 105278, Control_c, 0, 64, 84
1, 105293, Control_c, 0, 64, 69
1, 105299, Note_on_c, 0, 52, 50
1, 105307, Control_c, 0, 64, 56
1, 105322, Control_c, 0, 64, 12
1, 105337, Control_c, 0, 64, 0
1, 105417, Note_on_c, 0, 56, 55
1, 105441, Control_c, 0, 64, 30
1, 105455, Control_c, 0, 64, 49
1, 105470, Control_c, 0, 64, 59
1, 105485, Control_c, 0, 64, 64
1, 105500, Control_c, 0, 64, 67
1, 105514, Control_c, 0, 64, 70
1, 105515, Note_off_c, 0, 52, 58
1, 105529, Control_c, 0, 64, 75
1, 105534, Note_off_c, 0, 56, 60
1, 105544, Control_c, 0, 64, 79
1, 105555, Note_on_c, 0, 61, 49
1, 105559, Control_c, 0, 64, 84
1, 105574, Control_c, 0, 64, 92
1, 105588, Control_c, 0, 64, 99
1, 105603, Control_c, 0, 64, 104
1, 105618, Control_c, 0, 64, 106
1, 105648, Control_c, 0, 64, 104
1, 105662, Control_c, 0, 64, 102
1, 105677, Control_c, 0, 64, 100
1, 105681, Note_off_c, 0, 61, 37
1, 105692, Control_c, 0, 64, 97
1, 105707, Control_c, 0, 64, 91
1, 105710, Note_on_c, 0, 52, 51
1, 105722, Control_c, 0, 64, 82
1, 105737, Control_c, 0, 64, 71
1, 105752, Control_c, 0, 64, 58
1, 105767, Control_c, 0, 64, 26
1, 105767, Control_c, 0, 67, 18
1, 105782, Control_c, 0, 64, 0
1, 105782, Control_c, 0, 67, 43
1, 105797, Control_c, 0, 67, 69
1, 105811, Control_c, 0, 67, 85
1, 105834, Control_c, 0, 67, 95
1, 105849, Control_c, 0, 64, 20
1, 105849, Control_c, 0, 67, 99
1, 105864, Control_c, 0, 64, 44
1, 105874, Note_on_c, 0, 54, 49
1, 105879, Control_c, 0, 64, 57
1, 105879, Control_c, 0, 67, 98
1, 105893, Control_c, 0, 64, 63
1, 105893, Control_c, 0, 67, 97
1, 105908, Control_c, 0, 64, 67
1, 105908, Control_c, 0, 67, 95
1, 105919, Note_off_c, 0, 52, 60
1, 105923, Control_c, 0, 64, 71
1, 105923, Control_c, 0, 67, 93
1, 105937, Control_c, 0, 64, 76
1, 105937, Control_c, 0, 67, 92
1, 105952, Control_c, 0, 64, 83
1, 105952, Control_c, 0, 67, 91
1, 105967, Control_c, 0, 64, 90
1, 105967, Control_c, 0, 67, 90
1, 105982, Control_c, 0, 64, 99
1, 105982, Control_c, 0, 67, 89
1, 105997, Control_c, 0, 64, 110
1, 105997, Control_c, 0, 67, 88
1, 106007, Note_on_c, 0, 58, 51
1, 106011, Control_c, 0, 64, 118
1, 106011, Control_c, 0, 67, 88
1, 106026, Control_c, 0, 64, 119
1, 106040, Note_off_c, 0, 73, 59
1, 106062, Note_off_c, 0, 54, 37
1, 106086, Control_c, 0, 64, 118
1, 106100, Control_c, 0, 64, 116
1, 106115, Control_c, 0, 64, 113
1, 106130, Control_c, 0, 64, 107
1, 106145, Control_c, 0, 64, 101
1, 106160, Control_c, 0, 64, 95
1, 106160, Control_c, 0, 67, 87
1, 106172, Note_on_c, 0, 71, 64
1, 106175, Control_c, 0, 64, 87
1, 106175, Control_c, 0, 67, 87
1, 106190, Note_on_c, 0, 51, 48
1, 106190, Control_c, 0, 64, 77
1, 106195, Note_off_c, 0, 58, 41
1, 106205, Control_c, 0, 64, 66
1, 106219, Control_c, 0, 64, 51
1, 106219, Control_c, 0, 67, 86
1, 106234, Control_c, 0, 64, 0
1, 106279, Control_c, 0, 67, 85
1, 106308, Control_c, 0, 67, 85
1, 106337, Control_c, 0, 64, 31
1, 106338, Note_on_c, 0, 54, 43
1, 106352, Control_c, 0, 64, 49
1, 106367, Control_c, 0, 64, 59
1, 106382, Control_c, 0, 64, 63
1, 106397, Control_c, 0, 64, 66
1, 106411, Control_c, 0, 64, 68
1, 106411, Control_c, 0, 67, 84
1, 106426, Control_c, 0, 64, 71
1, 106441, Control_c, 0, 64, 73
1, 106454, Note_off_c, 0, 54, 53
1, 106455, Control_c, 0, 64, 76
1, 106462, Note_off_c, 0, 51, 37
1, 106470, Control_c, 0, 64, 80
1, 106473, Note_on_c, 0, 59, 42
1, 106485, Control_c, 0, 64, 84
1, 106485, Control_c, 0, 67, 85
1, 106500, Control_c, 0, 64, 88
1, 106500, Control_c, 0, 67, 85
1, 106515, Control_c, 0, 64, 91
1, 106531, Control_c, 0, 64, 93
1, 106531, Control_c, 0, 67, 86
1, 106546, Control_c, 0, 67, 87
1, 106551, Note_off_c, 0, 59, 36
1, 106560, Control_c, 0, 67, 87
1, 106583, Control_c, 0, 67, 88
1, 106598, Control_c, 0, 67, 89
1, 106613, Control_c, 0, 64, 92
1, 106613, Control_c, 0, 67, 90
1, 106628, Control_c, 0, 64, 91
1, 106628, Control_c, 0, 67, 92
1, 106642, Control_c, 0, 64, 89
1, 106642, Control_c, 0, 67, 93
1, 106649, Note_on_c, 0, 51, 49
1, 106657, Control_c, 0, 64, 86
1, 106657, Control_c, 0, 67, 95
1, 106672, Control_c, 0, 64, 81
1, 106672, Control_c, 0, 67, 97
1, 106687, Control_c, 0, 64, 72
1, 106687, Control_c, 0, 67, 98
1, 106702, Control_c, 0, 64, 60
1, 106702, Control_c, 0, 67, 99
1, 106716, Control_c, 0, 64, 30
1, 106716, Control_c, 0, 67, 100
1, 106731, Control_c, 0, 64, 0
1, 106731, Control_c, 0, 67, 100
1, 106746, Control_c, 0, 67, 101
1, 106760, Control_c, 0, 67, 102
1, 106805, Control_c, 0, 67, 101
1, 106809, Note_on_c, 0, 55, 41
1, 106820, Control_c, 0, 67, 100
1, 106834, Control_c, 0, 64, 24
1, 106834, Control_c, 0, 67, 98
1, 106849, Control_c, 0, 64, 43
1, 106849, Control_c, 0, 67, 97
1, 106864, Control_c, 0, 64, 55
1, 106864, Control_c, 0, 67, 96
1, 106878, Control_c, 0, 64, 61
1, 106893, Control_c, 0, 64, 64
1, 106893, Control_c, 0, 67, 95
1, 106902, Note_on_c, 0, 70, 56
1, 106908, Note_off_c, 0, 71, 55
1, 106908, Control_c, 0, 64, 67
1, 106923, Control_c, 0, 64, 71
1, 106933, Note_off_c, 0, 51, 35
1, 106938, Control_c, 0, 64, 74
1, 106953, Control_c, 0, 64, 78
1, 106968, Control_c, 0, 64, 82
1, 106968, Control_c, 0, 67, 97
1, 106983, Control_c, 0, 64, 86
1, 106983, Control_c, 0, 67, 97
1, 106998, Control_c, 0, 64, 90
1, 106998, Control_c, 0, 67, 98
1, 107013, Control_c, 0, 64, 93
1, 107013, Control_c, 0, 67, 100
1, 107014, Note_off_c, 0, 55, 36
1, 107022, Note_off_c, 0, 70, 58
1, 107024, Note_on_c, 0, 61, 42
1, 107027, Control_c, 0, 64, 94
1, 107027, Control_c, 0, 67, 100
1, 107042, Control_c, 0, 67, 101
1, 107057, Control_c, 0, 67, 102
1, 107072, Control_c, 0, 67, 102
1, 107086, Control_c, 0, 67, 103
1, 107101, Control_c, 0, 67, 103
1, 107116, Control_c, 0, 67, 105
1, 107117, Note_off_c, 0, 61, 38
1, 107131, Control_c, 0, 67, 112
1, 107146, Control_c, 0, 67, 125
1, 107160, Control_c, 0, 64, 93
1, 107160, Control_c, 0, 67, 127
1, 107175, Control_c, 0, 64, 93
1, 107190, Control_c, 0, 64, 92
1, 107205, Control_c, 0, 64, 91
1, 107220, Control_c, 0, 64, 91
1, 107234, Control_c, 0, 64, 90
1, 107249, Control_c, 0, 64, 87
1, 107263, Note_on_c, 0, 68, 47
1, 107264, Control_c, 0, 64, 84
1, 107269, Note_on_c, 0, 52, 36
1, 107278, Control_c, 0, 64, 78
1, 107293, Control_c, 0, 64, 70
1, 107308, Control_c, 0, 64, 62
1, 107332, Control_c, 0, 64, 47
1, 107346, Control_c, 0, 64, 0
1, 107421, Control_c, 0, 64, 17
1, 107436, Control_c, 0, 64, 37
1, 107451, Control_c, 0, 64, 51
1, 107465, Control_c, 0, 64, 59
1, 107480, Control_c, 0, 64, 63
1, 107495, Control_c, 0, 64, 66
1, 107501, Note_on_c, 0, 56, 33
1, 107509, Control_c, 0, 64, 69
1, 107524, Control_c, 0, 64, 72
1, 107539, Control_c, 0, 64, 76
1, 107554, Control_c, 0, 64, 78
1, 107569, Control_c, 0, 64, 81
1, 107570, Note_off_c, 0, 68, 56
1, 107583, Control_c, 0, 64, 82
1, 107598, Control_c, 0, 64, 84
1, 107613, Control_c, 0, 64, 85
1, 107628, Control_c, 0, 64, 87
1, 107643, Control_c, 0, 64, 88
1, 107651, Note_off_c, 0, 56, 47
1, 107657, Control_c, 0, 64, 90
1, 107672, Control_c, 0, 64, 92
1, 107676, Note_on_c, 0, 59, 36
1, 107687, Control_c, 0, 64, 93
1, 107701, Control_c, 0, 64, 94
1, 107716, Control_c, 0, 64, 95
1, 107731, Control_c, 0, 64, 96
1, 107736, Note_on_c, 0, 68, 55
1, 107761, Control_c, 0, 64, 97
1, 107797, Note_off_c, 0, 59, 32
1, 107805, Control_c, 0, 64, 96
1, 107820, Control_c, 0, 64, 95
1, 107835, Control_c, 0, 64, 94
1, 107850, Control_c, 0, 64, 93
1, 107863, Note_on_c, 0, 76, 60
1, 107865, Control_c, 0, 64, 91
1, 107880, Control_c, 0, 64, 88
1, 107893, Note_off_c, 0, 68, 48
1, 107894, Note_on_c, 0, 56, 41
1, 107895, Control_c, 0, 64, 82
1, 107909, Control_c, 0, 64, 72
1, 107924, Control_c, 0, 64, 63
1, 107939, Control_c, 0, 64, 46
1, 107954, Control_c, 0, 64, 15
1, 107969, Control_c, 0, 64, 0
1, 107998, Control_c, 0, 64, 17
1, 108013, Control_c, 0, 64, 30
1, 108028, Control_c, 0, 64, 43
1, 108037, Note_on_c, 0, 59, 35
1, 108043, Control_c, 0, 64, 54
1, 108057, Control_c, 0, 64, 60
1, 108072, Control_c, 0, 64, 64
1, 108095, Control_c, 0, 64, 66
1, 108104, Note_off_c, 0, 52, 40
1, 108109, Control_c, 0, 64, 68
1, 108124, Control_c, 0, 64, 71
1, 108139, Control_c, 0, 64, 74
1, 108141, Note_off_c, 0, 76, 55
1, 108154, Control_c, 0, 64, 78
1, 108169, Control_c, 0, 64, 81
1, 108184, Control_c, 0, 64, 85
1, 108190, Note_off_c, 0, 56, 38
1, 108197, Note_on_c, 0, 64, 46
1, 108199, Control_c, 0, 64, 86
1, 108214, Control_c, 0, 64, 87
1, 108229, Control_c, 0, 64, 88
1, 108235, Note_off_c, 0, 59, 28
1, 108244, Control_c, 0, 64, 89
1, 108258, Note_off_c, 0, 64, 53
1, 108303, Control_c, 0, 64, 88
1, 108318, Control_c, 0, 64, 88
1, 108332, Control_c, 0, 64, 87
1, 108347, Control_c, 0, 64, 86
1, 108354, Note_on_c, 0, 75, 61
1, 108362, Control_c, 0, 64, 84
1, 108377, Control_c, 0, 64, 81
1, 108387, Note_on_c, 0, 54, 41
1, 108392, Control_c, 0, 64, 75
1, 108406, Control_c, 0, 64, 67
1, 108421, Control_c, 0, 64, 57
1, 108436, Control_c, 0, 64, 38
1, 108451, Control_c, 0, 64, 17
1, 108466, Control_c, 0, 64, 17
1, 108495, Control_c, 0, 64, 19
1, 108510, Control_c, 0, 64, 24
1, 108522, Note_on_c, 0, 59, 39
1, 108524, Control_c, 0, 64, 33
1, 108539, Control_c, 0, 64, 45
1, 108554, Control_c, 0, 64, 55
1, 108569, Control_c, 0, 64, 60
1, 108584, Control_c, 0, 64, 63
1, 108598, Control_c, 0, 64, 65
1, 108613, Control_c, 0, 64, 67
1, 108628, Control_c, 0, 64, 69
1, 108643, Control_c, 0, 64, 72
1, 108651, Note_off_c, 0, 75, 37
1, 108658, Control_c, 0, 64, 75
1, 108668, Note_on_c, 0, 63, 40
1, 108673, Control_c, 0, 64, 78
1, 108673, Note_off_c, 0, 54, 35
1, 108687, Note_off_c, 0, 59, 37
1, 108688, Control_c, 0, 64, 81
1, 108703, Control_c, 0, 64, 85
1, 108718, Control_c, 0, 64, 88
1, 108729, Note_off_c, 0, 63, 53
1, 108732, Control_c, 0, 64, 91
1, 108806, Control_c, 0, 64, 90
1, 108821, Control_c, 0, 64, 89
1, 108834, Note_on_c, 0, 73, 51
1, 108841, Note_on_c, 0, 54, 33
1, 108843, Control_c, 0, 64, 85
1, 108858, Control_c, 0, 64, 80
1, 108873, Control_c, 0, 64, 71
1, 108888, Control_c, 0, 64, 63
1, 108902, Control_c, 0, 64, 51
1, 108917, Control_c, 0, 64, 39
1, 108933, Control_c, 0, 64, 40
1, 108948, Control_c, 0, 64, 45
1, 108962, Control_c, 0, 64, 52
1, 108977, Control_c, 0, 64, 58
1, 108983, Note_on_c, 0, 58, 45
1, 108992, Control_c, 0, 64, 62
1, 109007, Control_c, 0, 64, 64
1, 109022, Control_c, 0, 64, 66
1, 109037, Control_c, 0, 64, 69
1, 109052, Control_c, 0, 64, 71
1, 109062, Note_off_c, 0, 73, 32
1, 109066, Control_c, 0, 64, 75
1, 109080, Control_c, 0, 64, 78
1, 109095, Control_c, 0, 64, 82
1, 109099, Note_off_c, 0, 58, 60
1, 109106, Note_off_c, 0, 54, 41
1, 109109, Control_c, 0, 64, 85
1, 109124, Control_c, 0, 64, 88
1, 109139, Control_c, 0, 64, 91
1, 109150, Note_on_c, 0, 61, 38
1, 109153, Control_c, 0, 64, 93
1, 109168, Control_c, 0, 64, 95
1, 109183, Control_c, 0, 64, 99
1, 109185, Note_off_c, 0, 61, 49
1, 109198, Control_c, 0, 64, 102
1, 109213, Control_c, 0, 64, 107
1, 109227, Control_c, 0, 64, 111
1, 109242, Control_c, 0, 64, 113
1, 109287, Control_c, 0, 64, 112
1, 109302, Control_c, 0, 64, 111
1, 109317, Control_c, 0, 64, 110
1, 109332, Control_c, 0, 64, 107
1, 109346, Control_c, 0, 64, 104
1, 109353, Note_on_c, 0, 71, 50
1, 109361, Control_c, 0, 64, 101
1, 109376, Control_c, 0, 64, 96
1, 109387, Note_on_c, 0, 47, 36
1, 109391, Control_c, 0, 64, 90
1, 109406, Control_c, 0, 64, 81
1, 109420, Control_c, 0, 64, 72
1, 109435, Control_c, 0, 64, 63
1, 109450, Control_c, 0, 64, 51
1, 109465, Control_c, 0, 64, 32
1, 109480, Control_c, 0, 64, 13
1, 109494, Control_c, 0, 64, 12
1, 109532, Note_on_c, 0, 51, 35
1, 109539, Control_c, 0, 64, 16
1, 109553, Control_c, 0, 64, 27
1, 109576, Control_c, 0, 64, 41
1, 109591, Control_c, 0, 64, 52
1, 109606, Control_c, 0, 64, 60
1, 109621, Control_c, 0, 64, 64
1, 109635, Control_c, 0, 64, 67
1, 109650, Control_c, 0, 64, 70
1, 109665, Control_c, 0, 64, 75
1, 109675, Note_off_c, 0, 51, 34
1, 109677, Note_on_c, 0, 59, 43
1, 109679, Control_c, 0, 64, 80
1, 109694, Control_c, 0, 64, 84
1, 109709, Control_c, 0, 64, 88
1, 109725, Control_c, 0, 64, 91
1, 109740, Control_c, 0, 64, 92
1, 109770, Control_c, 0, 64, 91
1, 109784, Control_c, 0, 64, 91
1, 109799, Control_c, 0, 64, 90
1, 109814, Control_c, 0, 64, 88
1, 109830, Control_c, 0, 64, 85
1, 109838, Note_on_c, 0, 51, 43
1, 109844, Control_c, 0, 64, 78
1, 109859, Control_c, 0, 64, 69
1, 109867, Note_off_c, 0, 59, 32
1, 109874, Control_c, 0, 64, 61
1, 109889, Control_c, 0, 64, 51
1, 109904, Control_c, 0, 64, 46
1, 109919, Control_c, 0, 64, 49
1, 109933, Control_c, 0, 64, 53
1, 109948, Control_c, 0, 64, 58
1, 109963, Control_c, 0, 64, 61
1, 109977, Control_c, 0, 64, 63
1, 109988, Note_off_c, 0, 71, 54
1, 109992, Control_c, 0, 64, 65
1, 109993, Note_on_c, 0, 54, 50
1, 110007, Control_c, 0, 64, 67
1, 110018, Note_off_c, 0, 47, 37
1, 110022, Control_c, 0, 64, 70
1, 110037, Control_c, 0, 64, 74
1, 110051, Control_c, 0, 64, 79
1, 110066, Control_c, 0, 64, 86
1, 110081, Control_c, 0, 64, 94
1, 110095, Control_c, 0, 64, 101
1, 110110, Control_c, 0, 64, 105
1, 110110, Control_c, 0, 67, 126
1, 110122, Note_on_c, 0, 59, 48
1, 110125, Control_c, 0, 64, 105
1, 110125, Control_c, 0, 67, 119
1, 110140, Control_c, 0, 67, 114
1, 110155, Control_c, 0, 67, 112
1, 110169, Control_c, 0, 67, 111
1, 110184, Control_c, 0, 67, 110
1, 110199, Control_c, 0, 64, 104
1, 110199, Control_c, 0, 67, 110
1, 110214, Control_c, 0, 64, 103
1, 110229, Control_c, 0, 64, 101
1, 110244, Control_c, 0, 64, 97
1, 110244, Control_c, 0, 67, 109
1, 110253, Note_off_c, 0, 51, 37
1, 110259, Control_c, 0, 64, 94
1, 110262, Note_off_c, 0, 54, 25
1, 110274, Control_c, 0, 64, 88
1, 110278, Note_on_c, 0, 50, 52
1, 110289, Control_c, 0, 64, 79
1, 110303, Control_c, 0, 64, 69
1, 110325, Control_c, 0, 64, 56
1, 110339, Note_off_c, 0, 59, 31
1, 110340, Control_c, 0, 64, 35
1, 110355, Control_c, 0, 64, 21
1, 110370, Control_c, 0, 67, 108
1, 110384, Control_c, 0, 64, 21
1, 110384, Control_c, 0, 67, 107
1, 110399, Control_c, 0, 64, 24
1, 110399, Control_c, 0, 67, 107
1, 110414, Control_c, 0, 64, 30
1, 110414, Control_c, 0, 67, 105
1, 110422, Note_on_c, 0, 54, 51
1, 110429, Control_c, 0, 64, 39
1, 110429, Control_c, 0, 67, 104
1, 110444, Control_c, 0, 64, 49
1, 110444, Control_c, 0, 67, 91
1, 110458, Control_c, 0, 64, 56
1, 110458, Control_c, 0, 67, 72
1, 110473, Control_c, 0, 64, 61
1, 110473, Control_c, 0, 67, 52
1, 110488, Control_c, 0, 64, 63
1, 110488, Control_c, 0, 67, 31
1, 110503, Control_c, 0, 64, 66
1, 110503, Control_c, 0, 67, 11
1, 110518, Control_c, 0, 64, 69
1, 110518, Control_c, 0, 67, 0
1, 110534, Control_c, 0, 64, 72
1, 110548, Control_c, 0, 64, 77
1, 110563, Control_c, 0, 64, 81
1, 110573, Note_on_c, 0, 59, 53
1, 110578, Control_c, 0, 64, 86
1, 110590, Note_off_c, 0, 50, 56
1, 110593, Control_c, 0, 64, 91
1, 110596, Note_off_c, 0, 54, 50
1, 110608, Control_c, 0, 64, 97
1, 110622, Control_c, 0, 64, 102
1, 110637, Control_c, 0, 64, 105
1, 110712, Control_c, 0, 64, 104
1, 110724, Note_on_c, 0, 71, 66
1, 110726, Control_c, 0, 64, 101
1, 110741, Note_on_c, 0, 51, 52
1, 110741, Control_c, 0, 64, 96
1, 110747, Note_off_c, 0, 59, 30
1, 110756, Control_c, 0, 64, 88
1, 110771, Control_c, 0, 64, 76
1, 110786, Control_c, 0, 64, 63
1, 110800, Control_c, 0, 64, 47
1, 110815, Control_c, 0, 64, 23
1, 110830, Control_c, 0, 64, 19
1, 110845, Control_c, 0, 64, 23
1, 110860, Control_c, 0, 64, 32
1, 110874, Control_c, 0, 64, 43
1, 110876, Note_on_c, 0, 54, 52
1, 110889, Control_c, 0, 64, 56
1, 110904, Control_c, 0, 64, 62
1, 110912, Note_off_c, 0, 51, 58
1, 110918, Control_c, 0, 64, 66
1, 110933, Control_c, 0, 64, 70
1, 110948, Control_c, 0, 64, 75
1, 110963, Control_c, 0, 64, 83
1, 110978, Control_c, 0, 64, 95
1, 110992, Control_c, 0, 64, 123
1, 111002, Note_on_c, 0, 59, 55
1, 111007, Control_c, 0, 64, 127
1, 111014, Note_off_c, 0, 54, 60
1, 111045, Note_on_c, 0, 75, 67
1, 111052, Note_off_c, 0, 71, 61
1, 111156, Note_off_c, 0, 75, 58
1, 111158, Note_off_c, 0, 59, 49
1, 111176, Note_on_c, 0, 78, 69
1, 111195, Note_on_c, 0, 47, 50
1, 111198, Note_on_c, 0, 66, 59
1, 111207, Control_c, 0, 64, 98
1, 111222, Control_c, 0, 64, 80
1, 111237, Control_c, 0, 64, 66
1, 111252, Control_c, 0, 64, 47
1, 111267, Control_c, 0, 64, 9
1, 111281, Control_c, 0, 64, 0
1, 111311, Control_c, 0, 64, 11
1, 111327, Control_c, 0, 64, 26
1, 111342, Control_c, 0, 64, 40
1, 111343, Note_on_c, 0, 51, 52
1, 111357, Control_c, 0, 64, 54
1, 111371, Control_c, 0, 64, 61
1, 111386, Control_c, 0, 64, 65
1, 111401, Control_c, 0, 64, 69
1, 111416, Control_c, 0, 64, 75
1, 111430, Control_c, 0, 64, 83
1, 111445, Control_c, 0, 64, 96
1, 111447, Note_off_c, 0, 47, 56
1, 111460, Control_c, 0, 64, 116
1, 111473, Note_on_c, 0, 54, 58
1, 111475, Control_c, 0, 64, 127
1, 111498, Note_off_c, 0, 78, 54
1, 111499, Note_off_c, 0, 66, 57
1, 111630, Note_on_c, 0, 78, 83
1, 111633, Note_off_c, 0, 51, 38
1, 111636, Note_on_c, 0, 47, 44
1, 111642, Note_on_c, 0, 66, 65
1, 111668, Control_c, 0, 64, 105
1, 111677, Note_off_c, 0, 54, 36
1, 111683, Control_c, 0, 64, 85
1, 111697, Control_c, 0, 64, 68
1, 111712, Control_c, 0, 64, 52
1, 111727, Control_c, 0, 64, 0
1, 111775, Note_on_c, 0, 51, 57
1, 111786, Control_c, 0, 64, 29
1, 111801, Control_c, 0, 64, 48
1, 111816, Control_c, 0, 64, 61
1, 111838, Control_c, 0, 64, 66
1, 111843, Note_off_c, 0, 47, 53
1, 111853, Control_c, 0, 64, 72
1, 111868, Control_c, 0, 64, 82
1, 111883, Control_c, 0, 64, 101
1, 111897, Control_c, 0, 64, 127
1, 111927, Note_off_c, 0, 66, 57
1, 111933, Note_on_c, 0, 54, 61
1, 111955, Note_off_c, 0, 78, 60
1, 111979, Note_off_c, 0, 51, 62
1, 112088, Note_on_c, 0, 79, 85
1, 112090, Note_off_c, 0, 54, 56
1, 112102, Note_on_c, 0, 67, 66
1, 112111, Note_on_c, 0, 46, 54
1, 112119, Control_c, 0, 64, 104
1, 112134, Control_c, 0, 64, 82
1, 112149, Control_c, 0, 64, 66
1, 112164, Control_c, 0, 64, 48
1, 112178, Control_c, 0, 64, 0
1, 112241, Note_on_c, 0, 49, 60
1, 112253, Control_c, 0, 64, 26
1, 112268, Control_c, 0, 64, 46
1, 112283, Control_c, 0, 64, 60
1, 112298, Control_c, 0, 64, 65
1, 112313, Control_c, 0, 64, 71
1, 112321, Note_off_c, 0, 67, 59
1, 112326, Note_off_c, 0, 46, 61
1, 112327, Control_c, 0, 64, 79
1, 112342, Control_c, 0, 64, 92
1, 112357, Control_c, 0, 64, 116
1, 112371, Control_c, 0, 64, 127
1, 112377, Note_on_c, 0, 51, 65
1, 112456, Note_off_c, 0, 49, 49
1, 112537, Note_on_c, 0, 80, 83
1, 112544, Note_on_c, 0, 68, 68
1, 112544, Note_off_c, 0, 51, 51
1, 112545, Note_on_c, 0, 44, 51
1, 112549, Control_c, 0, 64, 119
1, 112571, Control_c, 0, 64, 96
1, 112584, Note_off_c, 0, 79, 60
1, 112586, Control_c, 0, 64, 78
1, 112601, Control_c, 0, 64, 64
1, 112616, Control_c, 0, 64, 39
1, 112631, Control_c, 0, 64, 0
1, 112691, Note_on_c, 0, 49, 52
1, 112749, Control_c, 0, 64, 43
1, 112764, Control_c, 0, 64, 57
1, 112767, Note_off_c, 0, 68, 60
1, 112778, Control_c, 0, 64, 64
1, 112793, Control_c, 0, 64, 68
1, 112808, Control_c, 0, 64, 74
1, 112823, Control_c, 0, 64, 81
1, 112838, Control_c, 0, 64, 91
1, 112850, Note_on_c, 0, 51, 46
1, 112852, Control_c, 0, 64, 99
1, 112867, Control_c, 0, 64, 107
1, 112878, Note_off_c, 0, 44, 31
1, 112882, Control_c, 0, 64, 112
1, 112942, Control_c, 0, 64, 111
1, 112945, Note_off_c, 0, 49, 32
1, 112957, Control_c, 0, 64, 108
1, 112972, Control_c, 0, 64, 105
1, 112987, Control_c, 0, 64, 100
1, 113001, Control_c, 0, 64, 95
1, 113010, Note_on_c, 0, 82, 78
1, 113016, Control_c, 0, 64, 85
1, 113021, Note_on_c, 0, 70, 61
1, 113031, Note_on_c, 0, 43, 44
1, 113031, Control_c, 0, 64, 74
1, 113046, Control_c, 0, 64, 64
1, 113059, Note_off_c, 0, 80, 60
1, 113061, Control_c, 0, 64, 48
1, 113076, Control_c, 0, 64, 0
1, 113078, Note_off_c, 0, 51, 39
1, 113175, Note_on_c, 0, 49, 39
1, 113180, Control_c, 0, 64, 28
1, 113194, Control_c, 0, 64, 47
1, 113209, Control_c, 0, 64, 59
1, 113224, Control_c, 0, 64, 64
1, 113228, Note_off_c, 0, 70, 61
1, 113239, Control_c, 0, 64, 67
1, 113254, Control_c, 0, 64, 71
1, 113268, Control_c, 0, 64, 76
1, 113283, Control_c, 0, 64, 81
1, 113293, Note_off_c, 0, 43, 40
1, 113298, Control_c, 0, 64, 88
1, 113320, Control_c, 0, 64, 94
1, 113335, Control_c, 0, 64, 99
1, 113341, Note_on_c, 0, 51, 44
1, 113350, Control_c, 0, 64, 102
1, 113365, Control_c, 0, 64, 103
1, 113409, Control_c, 0, 64, 104
1, 113439, Control_c, 0, 64, 103
1, 113448, Note_off_c, 0, 49, 27
1, 113454, Control_c, 0, 64, 102
1, 113468, Control_c, 0, 64, 99
1, 113483, Control_c, 0, 64, 95
1, 113495, Note_on_c, 0, 85, 67
1, 113498, Control_c, 0, 64, 91
1, 113504, Note_on_c, 0, 73, 61
1, 113513, Control_c, 0, 64, 85
1, 113518, Note_on_c, 0, 43, 41
1, 113527, Control_c, 0, 64, 76
1, 113537, Note_off_c, 0, 82, 60
1, 113542, Control_c, 0, 64, 67
1, 113542, Control_c, 0, 67, 16
1, 113557, Control_c, 0, 64, 57
1, 113557, Control_c, 0, 67, 31
1, 113568, Note_off_c, 0, 51, 38
1, 113573, Control_c, 0, 64, 32
1, 113573, Control_c, 0, 67, 45
1, 113588, Control_c, 0, 64, 0
1, 113588, Control_c, 0, 67, 51
1, 113602, Control_c, 0, 67, 53
1, 113632, Control_c, 0, 67, 52
1, 113647, Control_c, 0, 64, 22
1, 113647, Control_c, 0, 67, 51
1, 113662, Control_c, 0, 64, 38
1, 113662, Control_c, 0, 67, 50
1, 113676, Control_c, 0, 64, 53
1, 113676, Control_c, 0, 67, 48
1, 113678, Note_on_c, 0, 46, 35
1, 113691, Control_c, 0, 64, 61
1, 113691, Control_c, 0, 67, 46
1, 113706, Control_c, 0, 64, 64
1, 113706, Control_c, 0, 67, 45
1, 113722, Control_c, 0, 64, 68
1, 113722, Control_c, 0, 67, 43
1, 113735, Note_off_c, 0, 43, 42
1, 113736, Note_off_c, 0, 85, 65
1, 113737, Control_c, 0, 64, 71
1, 113737, Control_c, 0, 67, 43
1, 113752, Control_c, 0, 64, 76
1, 113752, Control_c, 0, 67, 42
1, 113766, Control_c, 0, 64, 82
1, 113766, Control_c, 0, 67, 41
1, 113776, Note_off_c, 0, 73, 61
1, 113781, Control_c, 0, 64, 88
1, 113781, Control_c, 0, 67, 40
1, 113796, Control_c, 0, 64, 95
1, 113811, Control_c, 0, 64, 100
1, 113825, Control_c, 0, 64, 105
1, 113826, Note_on_c, 0, 51, 38
1, 113840, Control_c, 0, 64, 108
1, 113841, Note_off_c, 0, 46, 36
1, 113855, Control_c, 0, 64, 108
1, 113914, Control_c, 0, 64, 107
1, 113929, Control_c, 0, 64, 106
1, 113944, Control_c, 0, 64, 104
1, 113959, Control_c, 0, 64, 100
1, 113959, Control_c, 0, 67, 41
1, 113973, Control_c, 0, 64, 96
1, 113988, Control_c, 0, 64, 92
1, 113999, Note_on_c, 0, 83, 61
1, 114003, Control_c, 0, 64, 84
1, 114006, Note_on_c, 0, 44, 42
1, 114012, Note_on_c, 0, 71, 47
1, 114018, Control_c, 0, 64, 74
1, 114033, Note_off_c, 0, 51, 32
1, 114033, Control_c, 0, 64, 63
1, 114048, Control_c, 0, 64, 37
1, 114070, Control_c, 0, 64, 0
1, 114085, Control_c, 0, 67, 41
1, 114143, Control_c, 0, 64, 33
1, 114158, Note_on_c, 0, 47, 39
1, 114158, Control_c, 0, 64, 48
1, 114173, Control_c, 0, 64, 58
1, 114173, Control_c, 0, 67, 41
1, 114182, Note_off_c, 0, 71, 61
1, 114188, Control_c, 0, 64, 63
1, 114203, Control_c, 0, 64, 66
1, 114217, Control_c, 0, 64, 70
1, 114232, Control_c, 0, 64, 76
1, 114232, Control_c, 0, 67, 41
1, 114247, Control_c, 0, 64, 83
1, 114247, Control_c, 0, 67, 42
1, 114262, Control_c, 0, 64, 91
1, 114262, Control_c, 0, 67, 43
1, 114277, Control_c, 0, 64, 102
1, 114277, Control_c, 0, 67, 45
1, 114289, Note_off_c, 0, 47, 49
1, 114292, Control_c, 0, 64, 119
1, 114292, Control_c, 0, 67, 46
1, 114304, Note_off_c, 0, 44, 38
1, 114307, Control_c, 0, 64, 127
1, 114307, Control_c, 0, 67, 47
1, 114313, Note_on_c, 0, 51, 50
1, 114322, Control_c, 0, 67, 48
1, 114337, Control_c, 0, 67, 49
1, 114346, Note_off_c, 0, 51, 60
1, 114352, Control_c, 0, 67, 50
1, 114366, Control_c, 0, 67, 51
1, 114381, Control_c, 0, 67, 53
1, 114396, Control_c, 0, 67, 54
1, 114411, Control_c, 0, 67, 55
1, 114426, Control_c, 0, 67, 57
1, 114441, Control_c, 0, 64, 116
1, 114441, Control_c, 0, 67, 69
1, 114456, Control_c, 0, 64, 106
1, 114456, Control_c, 0, 67, 82
1, 114467, Note_off_c, 0, 83, 59
1, 114471, Control_c, 0, 64, 95
1, 114471, Control_c, 0, 67, 96
1, 114475, Note_on_c, 0, 82, 65
1, 114485, Note_on_c, 0, 49, 46
1, 114486, Control_c, 0, 64, 83
1, 114486, Control_c, 0, 67, 109
1, 114487, Note_on_c, 0, 70, 54
1, 114500, Control_c, 0, 64, 70
1, 114500, Control_c, 0, 67, 119
1, 114515, Control_c, 0, 64, 54
1, 114515, Control_c, 0, 67, 125
1, 114530, Control_c, 0, 64, 9
1, 114530, Control_c, 0, 67, 127
1, 114545, Control_c, 0, 64, 0
1, 114575, Control_c, 0, 67, 125
1, 114590, Control_c, 0, 67, 123
1, 114605, Control_c, 0, 64, 26
1, 114605, Control_c, 0, 67, 122
1, 114608, Note_on_c, 0, 52, 45
1, 114620, Control_c, 0, 64, 44
1, 114620, Control_c, 0, 67, 121
1, 114635, Control_c, 0, 64, 56
1, 114635, Control_c, 0, 67, 119
1, 114644, Note_off_c, 0, 70, 62
1, 114649, Control_c, 0, 64, 62
1, 114649, Control_c, 0, 67, 117
1, 114661, Note_off_c, 0, 49, 51
1, 114664, Control_c, 0, 64, 66
1, 114664, Control_c, 0, 67, 115
1, 114679, Control_c, 0, 64, 71
1, 114679, Control_c, 0, 67, 113
1, 114694, Control_c, 0, 64, 79
1, 114694, Control_c, 0, 67, 111
1, 114707, Note_off_c, 0, 52, 62
1, 114709, Control_c, 0, 64, 89
1, 114709, Control_c, 0, 67, 110
1, 114723, Control_c, 0, 64, 102
1, 114738, Control_c, 0, 64, 127
1, 114738, Control_c, 0, 67, 109
1, 114750, Note_on_c, 0, 58, 54
1, 114753, Control_c, 0, 67, 108
1, 114767, Control_c, 0, 67, 107
1, 114808, Note_on_c, 0, 80, 68
1, 114808, Note_off_c, 0, 82, 61
1, 114820, Control_c, 0, 67, 108
1, 114834, Control_c, 0, 67, 109
1, 114839, Note_on_c, 0, 68, 52
1, 114849, Control_c, 0, 67, 109
1, 114864, Control_c, 0, 67, 110
1, 114876, Note_off_c, 0, 58, 36
1, 114880, Note_off_c, 0, 68, 63
1, 114894, Control_c, 0, 67, 110
1, 114904, Note_off_c, 0, 80, 64
1, 114909, Control_c, 0, 67, 111
1, 114923, Control_c, 0, 67, 112
1, 114938, Control_c, 0, 64, 112
1, 114944, Note_on_c, 0, 79, 65
1, 114953, Control_c, 0, 64, 93
1, 114958, Note_on_c, 0, 67, 50
1, 114967, Control_c, 0, 64, 78
1, 114974, Note_on_c, 0, 51, 42
1, 114982, Control_c, 0, 64, 63
1, 114997, Control_c, 0, 64, 42
1, 115012, Control_c, 0, 64, 0
1, 115071, Control_c, 0, 67, 111
1, 115086, Control_c, 0, 67, 110
1, 115101, Control_c, 0, 64, 17
1, 115103, Note_on_c, 0, 58, 45
1, 115115, Control_c, 0, 64, 39
1, 115115, Control_c, 0, 67, 109
1, 115130, Control_c, 0, 64, 52
1, 115145, Control_c, 0, 64, 60
1, 115145, Control_c, 0, 67, 109
1, 115160, Control_c, 0, 64, 65
1, 115166, Note_off_c, 0, 79, 58
1, 115174, Control_c, 0, 64, 69
1, 115174, Control_c, 0, 67, 108
1, 115189, Control_c, 0, 64, 73
1, 115189, Control_c, 0, 67, 107
1, 115204, Control_c, 0, 64, 78
1, 115206, Note_off_c, 0, 67, 57
1, 115219, Control_c, 0, 64, 84
1, 115234, Control_c, 0, 64, 89
1, 115234, Control_c, 0, 67, 107
1, 115246, Note_off_c, 0, 51, 34
1, 115249, Control_c, 0, 64, 96
1, 115262, Note_on_c, 0, 61, 39
1, 115264, Control_c, 0, 64, 104
1, 115279, Control_c, 0, 64, 108
1, 115294, Control_c, 0, 64, 109
1, 115353, Control_c, 0, 64, 108
1, 115353, Control_c, 0, 67, 107
1, 115368, Control_c, 0, 64, 107
1, 115383, Control_c, 0, 64, 105
1, 115383, Control_c, 0, 67, 108
1, 115392, Note_off_c, 0, 58, 34
1, 115398, Control_c, 0, 64, 102
1, 115413, Control_c, 0, 64, 98
1, 115422, Note_on_c, 0, 79, 56
1, 115428, Control_c, 0, 64, 92
1, 115431, Note_on_c, 0, 51, 43
1, 115435, Note_on_c, 0, 67, 49
1, 115443, Control_c, 0, 64, 82
1, 115456, Note_off_c, 0, 61, 26
1, 115457, Control_c, 0, 64, 71
1, 115472, Control_c, 0, 64, 61
1, 115487, Control_c, 0, 64, 41
1, 115502, Control_c, 0, 64, 15
1, 115517, Control_c, 0, 64, 13
1, 115532, Control_c, 0, 64, 25
1, 115546, Control_c, 0, 64, 35
1, 115568, Control_c, 0, 64, 46
1, 115573, Note_on_c, 0, 58, 38
1, 115583, Control_c, 0, 64, 54
1, 115598, Control_c, 0, 64, 60
1, 115598, Control_c, 0, 67, 107
1, 115612, Control_c, 0, 64, 63
1, 115623, Note_off_c, 0, 67, 60
1, 115627, Control_c, 0, 64, 66
1, 115642, Control_c, 0, 64, 69
1, 115657, Control_c, 0, 64, 73
1, 115672, Control_c, 0, 64, 77
1, 115672, Control_c, 0, 67, 107
1, 115687, Control_c, 0, 64, 82
1, 115702, Control_c, 0, 64, 86
1, 115709, Note_off_c, 0, 51, 32
1, 115717, Control_c, 0, 64, 90
1, 115732, Control_c, 0, 64, 93
1, 115741, Note_on_c, 0, 61, 43
1, 115746, Control_c, 0, 64, 95
1, 115761, Control_c, 0, 64, 97
1, 115776, Control_c, 0, 64, 97
1, 115790, Control_c, 0, 64, 98
1, 115806, Note_off_c, 0, 79, 48
1, 115819, Control_c, 0, 64, 97
1, 115823, Note_off_c, 0, 58, 31
1, 115834, Control_c, 0, 64, 97
1, 115849, Control_c, 0, 64, 96
1, 115856, Note_off_c, 0, 61, 30
1, 115863, Control_c, 0, 64, 94
1, 115878, Control_c, 0, 64, 92
1, 115893, Control_c, 0, 64, 87
1, 115896, Note_on_c, 0, 80, 49
1, 115901, Note_on_c, 0, 51, 41
1, 115908, Control_c, 0, 64, 76
1, 115911, Note_on_c, 0, 68, 50
1, 115923, Control_c, 0, 64, 66
1, 115937, Control_c, 0, 64, 55
1, 115952, Control_c, 0, 64, 43
1, 115967, Control_c, 0, 64, 44
1, 115982, Control_c, 0, 64, 49
1, 115997, Control_c, 0, 64, 57
1, 116012, Control_c, 0, 64, 62
1, 116020, Note_off_c, 0, 68, 54
1, 116027, Control_c, 0, 64, 64
1, 116039, Note_on_c, 0, 58, 43
1, 116042, Note_off_c, 0, 80, 61
1, 116042, Control_c, 0, 64, 67
1, 116042, Control_c, 0, 67, 106
1, 116057, Control_c, 0, 64, 70
1, 116057, Control_c, 0, 67, 105
1, 116071, Control_c, 0, 64, 74
1, 116071, Control_c, 0, 67, 105
1, 116086, Control_c, 0, 64, 78
1, 116101, Control_c, 0, 64, 85
1, 116101, Control_c, 0, 67, 104
1, 116116, Control_c, 0, 64, 93
1, 116126, Note_on_c, 0, 79, 60
1, 116131, Control_c, 0, 64, 105
1, 116146, Control_c, 0, 64, 127
1, 116161, Control_c, 0, 67, 103
1, 116204, Note_off_c, 0, 51, 37
1, 116216, Poly_aftertouch_c, 0, 67, 127
1, 116235, Note_on_c, 0, 61, 46
1, 116247, Poly_aftertouch_c, 0, 67, 0
1, 116247, Note_off_c, 0, 79, 58
1, 116299, Note_off_c, 0, 61, 48
1, 116325, Note_off_c, 0, 58, 32
1, 116376, Control_c, 0, 64, 98
1, 116385, Note_on_c, 0, 77, 59
1, 116390, Control_c, 0, 64, 78
1, 116393, Note_on_c, 0, 65, 51
1, 116404, Note_on_c, 0, 51, 40
1, 116405, Control_c, 0, 64, 64
1, 116405, Control_c, 0, 67, 103
1, 116420, Control_c, 0, 64, 47
1, 116435, Control_c, 0, 64, 26
1, 116450, Control_c, 0, 64, 29
1, 116450, Control_c, 0, 67, 102
1, 116465, Control_c, 0, 64, 37
1, 116480, Control_c, 0, 64, 49
1, 116489, Note_off_c, 0, 65, 57
1, 116494, Control_c, 0, 64, 56
1, 116509, Control_c, 0, 64, 61
1, 116524, Control_c, 0, 64, 64
1, 116539, Control_c, 0, 64, 66
1, 116539, Control_c, 0, 67, 102
1, 116541, Note_on_c, 0, 58, 48
1, 116553, Control_c, 0, 64, 68
1, 116553, Control_c, 0, 67, 101
1, 116560, Note_off_c, 0, 77, 53
1, 116568, Control_c, 0, 64, 72
1, 116583, Control_c, 0, 64, 76
1, 116589, Note_off_c, 0, 51, 45
1, 116598, Control_c, 0, 64, 82
1, 116598, Control_c, 0, 67, 100
1, 116612, Control_c, 0, 64, 89
1, 116619, Note_on_c, 0, 79, 63
1, 116627, Control_c, 0, 64, 99
1, 116640, Note_off_c, 0, 58, 49
1, 116642, Note_on_c, 0, 67, 49
1, 116642, Control_c, 0, 64, 115
1, 116642, Control_c, 0, 67, 100
1, 116657, Control_c, 0, 64, 127
1, 116672, Control_c, 0, 67, 99
1, 116685, Note_off_c, 0, 67, 62
1, 116686, Control_c, 0, 67, 98
1, 116700, Note_on_c, 0, 61, 47
1, 116703, Note_off_c, 0, 79, 57
1, 116716, Control_c, 0, 67, 97
1, 116731, Control_c, 0, 67, 93
1, 116745, Control_c, 0, 67, 90
1, 116760, Control_c, 0, 67, 90
1, 116834, Note_off_c, 0, 61, 36
1, 116879, Control_c, 0, 64, 113
1, 116882, Note_on_c, 0, 80, 54
1, 116894, Control_c, 0, 64, 94
1, 116899, Note_on_c, 0, 68, 47
1, 116909, Control_c, 0, 64, 79
1, 116924, Control_c, 0, 64, 66
1, 116927, Note_on_c, 0, 56, 34
1, 116939, Control_c, 0, 64, 46
1, 116954, Control_c, 0, 64, 0
1, 117028, Control_c, 0, 67, 89
1, 117038, Note_on_c, 0, 60, 42
1, 117065, Control_c, 0, 64, 32
1, 117065, Control_c, 0, 67, 88
1, 117080, Control_c, 0, 64, 48
1, 117095, Control_c, 0, 64, 58
1, 117095, Control_c, 0, 67, 88
1, 117110, Control_c, 0, 64, 63
1, 117124, Control_c, 0, 64, 67
1, 117124, Control_c, 0, 67, 87
1, 117139, Control_c, 0, 64, 71
1, 117154, Control_c, 0, 64, 75
1, 117154, Control_c, 0, 67, 87
1, 117167, Note_off_c, 0, 60, 59
1, 117169, Control_c, 0, 64, 80
1, 117169, Control_c, 0, 67, 86
1, 117183, Control_c, 0, 64, 85
1, 117198, Control_c, 0, 64, 91
1, 117211, Note_on_c, 0, 63, 36
1, 117213, Control_c, 0, 64, 98
1, 117228, Control_c, 0, 64, 101
1, 117258, Control_c, 0, 64, 99
1, 117258, Control_c, 0, 67, 85
1, 117273, Control_c, 0, 64, 97
1, 117273, Control_c, 0, 67, 85
1, 117288, Control_c, 0, 64, 93
1, 117288, Control_c, 0, 67, 84
1, 117303, Control_c, 0, 64, 86
1, 117318, Control_c, 0, 64, 74
1, 117318, Control_c, 0, 67, 83
1, 117332, Control_c, 0, 64, 63
1, 117332, Control_c, 0, 67, 82
1, 117338, Note_off_c, 0, 63, 27
1, 117345, Note_on_c, 0, 60, 40
1, 117347, Control_c, 0, 64, 48
1, 117347, Control_c, 0, 67, 70
1, 117362, Control_c, 0, 64, 32
1, 117362, Control_c, 0, 67, 63
1, 117377, Control_c, 0, 64, 34
1, 117377, Control_c, 0, 67, 56
1, 117392, Control_c, 0, 64, 41
1, 117392, Control_c, 0, 67, 51
1, 117407, Control_c, 0, 64, 53
1, 117407, Control_c, 0, 67, 46
1, 117422, Control_c, 0, 64, 61
1, 117422, Control_c, 0, 67, 41
1, 117437, Control_c, 0, 64, 64
1, 117437, Control_c, 0, 67, 36
1, 117451, Control_c, 0, 64, 68
1, 117451, Control_c, 0, 67, 31
1, 117466, Control_c, 0, 64, 72
1, 117466, Control_c, 0, 67, 26
1, 117481, Control_c, 0, 64, 78
1, 117481, Control_c, 0, 67, 20
1, 117484, Note_on_c, 0, 63, 45
1, 117496, Control_c, 0, 64, 87
1, 117496, Control_c, 0, 67, 14
1, 117498, Note_off_c, 0, 68, 56
1, 117510, Control_c, 0, 64, 98
1, 117510, Control_c, 0, 67, 0
1, 117525, Control_c, 0, 64, 127
1, 117532, Note_off_c, 0, 56, 41
1, 117636, Note_on_c, 0, 68, 57
1, 117653, Note_off_c, 0, 60, 31
1, 117657, Note_off_c, 0, 80, 47
1, 117786, Note_on_c, 0, 59, 56
1, 117815, Control_c, 0, 64, 98
1, 117830, Control_c, 0, 64, 81
1, 117831, Note_off_c, 0, 63, 35
1, 117845, Control_c, 0, 64, 67
1, 117860, Control_c, 0, 64, 54
1, 117874, Control_c, 0, 64, 21
1, 117889, Control_c, 0, 64, 0
1, 117890, Note_off_c, 0, 68, 27
1, 117919, Control_c, 0, 64, 16
1, 117934, Control_c, 0, 64, 25
1, 117948, Control_c, 0, 64, 37
1, 117949, Note_on_c, 0, 62, 53
1, 117963, Control_c, 0, 64, 51
1, 117978, Control_c, 0, 64, 59
1, 117992, Control_c, 0, 64, 63
1, 118007, Control_c, 0, 64, 66
1, 118022, Control_c, 0, 64, 70
1, 118037, Control_c, 0, 64, 74
1, 118052, Control_c, 0, 64, 80
1, 118066, Control_c, 0, 64, 86
1, 118081, Control_c, 0, 64, 92
1, 118087, Note_on_c, 0, 68, 59
1, 118096, Control_c, 0, 64, 96
1, 118111, Control_c, 0, 64, 98
1, 118134, Note_off_c, 0, 59, 33
1, 118170, Control_c, 0, 64, 97
1, 118185, Control_c, 0, 64, 96
1, 118200, Control_c, 0, 64, 94
1, 118215, Control_c, 0, 64, 92
1, 118222, Note_on_c, 0, 80, 67
1, 118230, Control_c, 0, 64, 88
1, 118245, Control_c, 0, 64, 81
1, 118251, Note_on_c, 0, 60, 44
1, 118260, Control_c, 0, 64, 72
1, 118274, Control_c, 0, 64, 63
1, 118277, Note_off_c, 0, 68, 36
1, 118289, Control_c, 0, 64, 41
1, 118303, Note_off_c, 0, 62, 29
1, 118304, Control_c, 0, 64, 0
1, 118376, Note_on_c, 0, 63, 52
1, 118378, Control_c, 0, 64, 36
1, 118392, Control_c, 0, 64, 52
1, 118407, Control_c, 0, 64, 60
1, 118422, Control_c, 0, 64, 64
1, 118437, Control_c, 0, 64, 67
1, 118452, Control_c, 0, 64, 71
1, 118466, Control_c, 0, 64, 77
1, 118473, Note_off_c, 0, 60, 56
1, 118481, Control_c, 0, 64, 85
1, 118496, Control_c, 0, 64, 98
1, 118512, Control_c, 0, 64, 127
1, 118519, Note_on_c, 0, 68, 44
1, 118523, Note_off_c, 0, 80, 59
1, 118540, Note_on_c, 0, 84, 67
1, 118686, Note_on_c, 0, 87, 72
1, 118688, Note_off_c, 0, 84, 63
1, 118703, Note_on_c, 0, 75, 52
1, 118712, Control_c, 0, 64, 100
1, 118717, Note_on_c, 0, 56, 49
1, 118727, Control_c, 0, 64, 84
1, 118742, Control_c, 0, 64, 70
1, 118747, Note_off_c, 0, 63, 17
1, 118757, Control_c, 0, 64, 58
1, 118771, Control_c, 0, 64, 27
1, 118784, Note_off_c, 0, 68, 34
1, 118786, Control_c, 0, 64, 0
1, 118830, Control_c, 0, 64, 27
1, 118835, Note_on_c, 0, 60, 51
1, 118845, Control_c, 0, 64, 44
1, 118860, Control_c, 0, 64, 56
1, 118875, Control_c, 0, 64, 62
1, 118889, Control_c, 0, 64, 67
1, 118904, Control_c, 0, 64, 71
1, 118919, Control_c, 0, 64, 78
1, 118924, Note_off_c, 0, 60, 63
1, 118924, Note_off_c, 0, 56, 37
1, 118934, Control_c, 0, 64, 89
1, 118949, Control_c, 0, 64, 109
1, 118963, Control_c, 0, 64, 127
1, 118973, Note_off_c, 0, 75, 54
1, 118975, Note_off_c, 0, 87, 53
1, 118990, Note_on_c, 0, 68, 54
1, 119140, Note_on_c, 0, 87, 81
1, 119151, Note_on_c, 0, 75, 65
1, 119163, Note_on_c, 0, 60, 47
1, 119171, Control_c, 0, 64, 102
1, 119186, Control_c, 0, 64, 81
1, 119201, Control_c, 0, 64, 66
1, 119215, Control_c, 0, 64, 51
1, 119230, Control_c, 0, 64, 26
1, 119245, Control_c, 0, 64, 24
1, 119260, Control_c, 0, 64, 35
1, 119275, Control_c, 0, 64, 47
1, 119289, Control_c, 0, 64, 56
1, 119293, Note_on_c, 0, 63, 58
1, 119312, Control_c, 0, 64, 62
1, 119327, Control_c, 0, 64, 65
1, 119334, Note_off_c, 0, 60, 61
1, 119339, Note_off_c, 0, 68, 19
1, 119342, Control_c, 0, 64, 69
1, 119357, Control_c, 0, 64, 76
1, 119372, Control_c, 0, 64, 85
1, 119386, Control_c, 0, 64, 100
1, 119401, Control_c, 0, 64, 127
1, 119441, Note_off_c, 0, 75, 54
1, 119446, Note_on_c, 0, 68, 63
1, 119447, Note_off_c, 0, 87, 55
1, 119513, Note_off_c, 0, 63, 33
1, 119591, Note_on_c, 0, 87, 77
1, 119595, Note_on_c, 0, 59, 54
1, 119602, Note_on_c, 0, 75, 65
1, 119622, Control_c, 0, 64, 95
1, 119637, Control_c, 0, 64, 75
1, 119652, Control_c, 0, 64, 63
1, 119667, Control_c, 0, 64, 41
1, 119674, Note_off_c, 0, 68, 46
1, 119681, Control_c, 0, 64, 0
1, 119726, Control_c, 0, 64, 29
1, 119741, Control_c, 0, 64, 44
1, 119744, Note_on_c, 0, 62, 59
1, 119756, Control_c, 0, 64, 56
1, 119771, Control_c, 0, 64, 62
1, 119785, Control_c, 0, 64, 66
1, 119800, Control_c, 0, 64, 72
1, 119815, Control_c, 0, 64, 82
1, 119830, Control_c, 0, 64, 98
1, 119844, Control_c, 0, 64, 127
1, 119875, Note_off_c, 0, 59, 60
1, 119893, Note_on_c, 0, 68, 68
1, 119905, Note_off_c, 0, 62, 61
1, 119907, Note_off_c, 0, 75, 59
1, 119935, Note_off_c, 0, 87, 58
1, 120042, Note_on_c, 0, 87, 84
1, 120048, Note_on_c, 0, 60, 61
1, 120051, Note_on_c, 0, 75, 73
1, 120051, Control_c, 0, 64, 100
1, 120074, Control_c, 0, 64, 79
1, 120089, Control_c, 0, 64, 65
1, 120104, Control_c, 0, 64, 45
1, 120120, Control_c, 0, 64, 16
1, 120135, Control_c, 0, 64, 13
1, 120149, Control_c, 0, 64, 25
1, 120149, Note_off_c, 0, 68, 36
1, 120164, Control_c, 0, 64, 36
1, 120179, Control_c, 0, 64, 48
1, 120194, Control_c, 0, 64, 59
1, 120195, Note_on_c, 0, 63, 64
1, 120208, Control_c, 0, 64, 64
1, 120223, Control_c, 0, 64, 67
1, 120238, Control_c, 0, 64, 72
1, 120253, Control_c, 0, 64, 79
1, 120267, Control_c, 0, 64, 88
1, 120274, Note_off_c, 0, 75, 61
1, 120282, Control_c, 0, 64, 106
1, 120286, Note_off_c, 0, 60, 49
1, 120297, Control_c, 0, 64, 127
1, 120352, Note_on_c, 0, 68, 62
1, 120419, Note_off_c, 0, 63, 56
1, 120489, Control_c, 0, 64, 118
1, 120492, Note_off_c, 0, 87, 60
1, 120504, Control_c, 0, 64, 96
1, 120519, Control_c, 0, 64, 80
1, 120523, Note_on_c, 0, 89, 78
1, 120527, Note_on_c, 0, 77, 70
1, 120534, Control_c, 0, 64, 68
1, 120549, Control_c, 0, 64, 57
1, 120555, Note_on_c, 0, 61, 44
1, 120564, Control_c, 0, 64, 29
1, 120578, Control_c, 0, 64, 0
1, 120580, Note_off_c, 0, 68, 33
1, 120682, Control_c, 0, 64, 23
1, 120692, Note_on_c, 0, 65, 46
1, 120697, Control_c, 0, 64, 40
1, 120712, Control_c, 0, 64, 52
1, 120726, Control_c, 0, 64, 60
1, 120741, Control_c, 0, 64, 64
1, 120756, Control_c, 0, 64, 67
1, 120766, Note_off_c, 0, 77, 54
1, 120771, Control_c, 0, 64, 70
1, 120785, Control_c, 0, 64, 74
1, 120808, Control_c, 0, 64, 78
1, 120820, Note_off_c, 0, 61, 56
1, 120823, Control_c, 0, 64, 83
1, 120838, Control_c, 0, 64, 88
1, 120853, Control_c, 0, 64, 96
1, 120853, Note_on_c, 0, 68, 45
1, 120867, Control_c, 0, 64, 104
1, 120882, Control_c, 0, 64, 113
1, 120897, Control_c, 0, 64, 121
1, 120913, Control_c, 0, 64, 123
1, 120930, Note_off_c, 0, 65, 25
1, 120942, Control_c, 0, 64, 121
1, 120957, Control_c, 0, 64, 117
1, 120972, Control_c, 0, 64, 113
1, 120987, Control_c, 0, 64, 107
1, 120987, Control_c, 0, 67, 11
1, 121001, Note_on_c, 0, 91, 67
1, 121002, Control_c, 0, 64, 101
1, 121002, Control_c, 0, 67, 29
1, 121004, Note_on_c, 0, 61, 42
1, 121008, Note_on_c, 0, 79, 61
1, 121016, Control_c, 0, 64, 94
1, 121016, Control_c, 0, 67, 48
1, 121031, Note_off_c, 0, 68, 36
1, 121031, Control_c, 0, 64, 82
1, 121031, Control_c, 0, 67, 61
1, 121046, Control_c, 0, 64, 70
1, 121046, Control_c, 0, 67, 70
1, 121061, Note_off_c, 0, 89, 22
1, 121062, Control_c, 0, 64, 60
1, 121062, Control_c, 0, 67, 75
1, 121076, Control_c, 0, 64, 39
1, 121076, Control_c, 0, 67, 75
1, 121091, Control_c, 0, 64, 0
1, 121091, Control_c, 0, 67, 75
1, 121106, Control_c, 0, 67, 73
1, 121121, Control_c, 0, 67, 72
1, 121136, Control_c, 0, 64, 13
1, 121136, Control_c, 0, 67, 69
1, 121151, Control_c, 0, 64, 27
1, 121151, Control_c, 0, 67, 66
1, 121155, Note_on_c, 0, 63, 39
1, 121165, Control_c, 0, 64, 40
1, 121165, Control_c, 0, 67, 65
1, 121178, Note_off_c, 0, 79, 57
1, 121180, Control_c, 0, 64, 51
1, 121180, Control_c, 0, 67, 63
1, 121195, Control_c, 0, 64, 59
1, 121195, Control_c, 0, 67, 61
1, 121209, Control_c, 0, 64, 63
1, 121209, Control_c, 0, 67, 60
1, 121224, Control_c, 0, 64, 66
1, 121224, Control_c, 0, 67, 58
1, 121239, Control_c, 0, 64, 69
1, 121239, Control_c, 0, 67, 57
1, 121254, Control_c, 0, 64, 73
1, 121254, Control_c, 0, 67, 56
1, 121269, Control_c, 0, 64, 78
1, 121269, Control_c, 0, 67, 56
1, 121274, Note_off_c, 0, 63, 57
1, 121283, Control_c, 0, 64, 84
1, 121283, Control_c, 0, 67, 55
1, 121298, Control_c, 0, 64, 92
1, 121313, Control_c, 0, 64, 104
1, 121321, Note_on_c, 0, 70, 39
1, 121327, Note_off_c, 0, 61, 34
1, 121328, Control_c, 0, 64, 127
1, 121372, Control_c, 0, 67, 55
1, 121398, Note_off_c, 0, 70, 46
1, 121401, Control_c, 0, 67, 54
1, 121446, Control_c, 0, 64, 115
1, 121446, Control_c, 0, 67, 53
1, 121448, Note_off_c, 0, 91, 35
1, 121458, Note_on_c, 0, 92, 61
1, 121461, Control_c, 0, 64, 103
1, 121467, Note_on_c, 0, 80, 53
1, 121476, Control_c, 0, 64, 92
1, 121476, Control_c, 0, 67, 52
1, 121488, Note_on_c, 0, 60, 48
1, 121491, Control_c, 0, 64, 79
1, 121506, Control_c, 0, 64, 68
1, 121506, Control_c, 0, 67, 51
1, 121521, Control_c, 0, 64, 56
1, 121536, Control_c, 0, 64, 29
1, 121536, Control_c, 0, 67, 51
1, 121557, Control_c, 0, 64, 0
1, 121572, Control_c, 0, 67, 50
1, 121587, Control_c, 0, 64, 13
1, 121587, Control_c, 0, 67, 50
1, 121602, Control_c, 0, 64, 30
1, 121602, Control_c, 0, 67, 48
1, 121616, Control_c, 0, 64, 43
1, 121616, Control_c, 0, 67, 47
1, 121631, Control_c, 0, 64, 54
1, 121631, Control_c, 0, 67, 46
1, 121634, Note_on_c, 0, 63, 39
1, 121646, Control_c, 0, 64, 60
1, 121646, Control_c, 0, 67, 40
1, 121661, Control_c, 0, 64, 64
1, 121661, Control_c, 0, 67, 32
1, 121664, Note_off_c, 0, 92, 60
1, 121676, Control_c, 0, 64, 67
1, 121676, Control_c, 0, 67, 23
1, 121683, Note_off_c, 0, 80, 62
1, 121691, Control_c, 0, 64, 73
1, 121691, Control_c, 0, 67, 15
1, 121706, Control_c, 0, 64, 79
1, 121706, Control_c, 0, 67, 8
1, 121714, Note_off_c, 0, 60, 35
1, 121721, Control_c, 0, 64, 87
1, 121721, Control_c, 0, 67, 0
1, 121736, Control_c, 0, 64, 97
1, 121751, Control_c, 0, 64, 118
1, 121766, Control_c, 0, 64, 127
1, 121792, Note_on_c, 0, 68, 40
1, 121892, Note_off_c, 0, 63, 34
1, 121918, Note_on_c, 0, 87, 65
1, 121922, Note_on_c, 0, 75, 57
1, 121929, Control_c, 0, 64, 111
1, 121944, Note_on_c, 0, 60, 43
1, 121944, Control_c, 0, 64, 91
1, 121959, Control_c, 0, 64, 73
1, 121974, Control_c, 0, 64, 62
1, 121988, Control_c, 0, 64, 43
1, 121990, Note_off_c, 0, 68, 27
1, 122003, Control_c, 0, 64, 19
1, 122018, Control_c, 0, 64, 17
1, 122032, Control_c, 0, 64, 19
1, 122047, Control_c, 0, 64, 25
1, 122062, Control_c, 0, 64, 33
1, 122077, Control_c, 0, 64, 44
1, 122092, Control_c, 0, 64, 55
1, 122094, Note_on_c, 0, 63, 43
1, 122099, Note_off_c, 0, 60, 56
1, 122106, Control_c, 0, 64, 61
1, 122121, Control_c, 0, 64, 65
1, 122136, Control_c, 0, 64, 69
1, 122151, Control_c, 0, 64, 77
1, 122166, Control_c, 0, 64, 85
1, 122178, Note_off_c, 0, 75, 57
1, 122180, Control_c, 0, 64, 95
1, 122183, Note_off_c, 0, 63, 61
1, 122195, Control_c, 0, 64, 112
1, 122197, Note_off_c, 0, 87, 54
1, 122210, Control_c, 0, 64, 127
1, 122240, Note_on_c, 0, 68, 48
1, 122404, Note_on_c, 0, 87, 70
1, 122410, Control_c, 0, 64, 110
1, 122414, Note_on_c, 0, 75, 62
1, 122421, Note_off_c, 0, 68, 30
1, 122425, Control_c, 0, 64, 97
1, 122429, Note_on_c, 0, 58, 40
1, 122439, Control_c, 0, 64, 81
1, 122454, Control_c, 0, 64, 68
1, 122469, Control_c, 0, 64, 56
1, 122484, Control_c, 0, 64, 34
1, 122499, Control_c, 0, 64, 25
1, 122515, Control_c, 0, 64, 28
1, 122529, Control_c, 0, 64, 37
1, 122544, Control_c, 0, 64, 45
1, 122549, Note_on_c, 0, 63, 40
1, 122558, Control_c, 0, 64, 54
1, 122573, Control_c, 0, 64, 61
1, 122588, Control_c, 0, 64, 64
1, 122603, Control_c, 0, 64, 68
1, 122618, Control_c, 0, 64, 72
1, 122633, Control_c, 0, 64, 80
1, 122633, Note_off_c, 0, 75, 59
1, 122647, Control_c, 0, 64, 89
1, 122653, Note_off_c, 0, 87, 57
1, 122662, Control_c, 0, 64, 102
1, 122675, Note_off_c, 0, 58, 37
1, 122677, Control_c, 0, 64, 127
1, 122709, Note_on_c, 0, 67, 44
1, 122796, Control_c, 0, 64, 117
1, 122810, Note_off_c, 0, 63, 26
1, 122810, Control_c, 0, 64, 104
1, 122825, Control_c, 0, 64, 94
1, 122825, Control_c, 0, 67, 8
1, 122840, Control_c, 0, 64, 85
1, 122840, Control_c, 0, 67, 18
1, 122854, Control_c, 0, 64, 75
1, 122854, Control_c, 0, 67, 29
1, 122856, Note_on_c, 0, 73, 52
1, 122860, Note_on_c, 0, 85, 55
1, 122869, Control_c, 0, 64, 66
1, 122869, Control_c, 0, 67, 40
1, 122884, Control_c, 0, 64, 58
1, 122884, Control_c, 0, 67, 51
1, 122891, Note_off_c, 0, 67, 41
1, 122893, Note_on_c, 0, 58, 35
1, 122899, Control_c, 0, 64, 47
1, 122899, Control_c, 0, 67, 65
1, 122914, Control_c, 0, 64, 43
1, 122914, Control_c, 0, 67, 75
1, 122928, Control_c, 0, 64, 42
1, 122928, Control_c, 0, 67, 82
1, 122943, Control_c, 0, 64, 41
1, 122943, Control_c, 0, 67, 85
1, 122958, Control_c, 0, 64, 38
1, 122958, Control_c, 0, 67, 87
1, 122973, Control_c, 0, 64, 29
1, 122987, Control_c, 0, 64, 0
1, 122987, Control_c, 0, 67, 86
1, 123002, Control_c, 0, 67, 85
1, 123014, Note_on_c, 0, 63, 39
1, 123017, Control_c, 0, 67, 83
1, 123020, Note_off_c, 0, 73, 60
1, 123027, Note_off_c, 0, 85, 60
1, 123032, Control_c, 0, 67, 82
1, 123047, Control_c, 0, 67, 80
1, 123069, Control_c, 0, 67, 79
1, 123084, Control_c, 0, 67, 77
1, 123099, Control_c, 0, 67, 75
1, 123106, Note_off_c, 0, 58, 36
1, 123114, Control_c, 0, 67, 74
1, 123128, Control_c, 0, 67, 72
1, 123143, Control_c, 0, 67, 71
1, 123158, Control_c, 0, 67, 69
1, 123164, Note_on_c, 0, 67, 48
1, 123173, Control_c, 0, 67, 68
1, 123176, Note_off_c, 0, 63, 54
1, 123261, Control_c, 0, 67, 67
1, 123327, Note_off_c, 0, 67, 43
1, 123333, Note_on_c, 0, 85, 67
1, 123336, Note_on_c, 0, 56, 41
1, 123337, Control_c, 0, 67, 66
1, 123338, Note_on_c, 0, 73, 56
1, 123351, Control_c, 0, 67, 66
1, 123366, Control_c, 0, 67, 65
1, 123396, Control_c, 0, 64, 21
1, 123411, Control_c, 0, 64, 38
1, 123411, Control_c, 0, 67, 65
1, 123425, Control_c, 0, 64, 50
1, 123440, Control_c, 0, 64, 57
1, 123440, Control_c, 0, 67, 64
1, 123455, Control_c, 0, 64, 61
1, 123455, Control_c, 0, 67, 63
1, 123470, Control_c, 0, 64, 64
1, 123470, Control_c, 0, 67, 63
1, 123485, Control_c, 0, 64, 66
1, 123485, Control_c, 0, 67, 62
1, 123485, Note_on_c, 0, 63, 40
1, 123500, Control_c, 0, 64, 68
1, 123515, Control_c, 0, 64, 71
1, 123515, Control_c, 0, 67, 61
1, 123530, Control_c, 0, 64, 75
1, 123544, Note_off_c, 0, 73, 58
1, 123545, Control_c, 0, 64, 82
1, 123559, Control_c, 0, 64, 89
1, 123574, Control_c, 0, 64, 96
1, 123576, Note_off_c, 0, 85, 63
1, 123589, Control_c, 0, 64, 102
1, 123603, Control_c, 0, 64, 106
1, 123608, Note_off_c, 0, 56, 25
1, 123655, Note_on_c, 0, 68, 37
1, 123677, Control_c, 0, 64, 105
1, 123685, Note_off_c, 0, 63, 37
1, 123692, Control_c, 0, 64, 104
1, 123707, Control_c, 0, 64, 103
1, 123722, Control_c, 0, 64, 101
1, 123737, Control_c, 0, 64, 100
1, 123751, Control_c, 0, 64, 98
1, 123766, Control_c, 0, 64, 97
1, 123781, Control_c, 0, 64, 95
1, 123796, Control_c, 0, 64, 93
1, 123816, Note_on_c, 0, 84, 50
1, 123818, Control_c, 0, 64, 89
1, 123825, Note_on_c, 0, 72, 47
1, 123833, Control_c, 0, 64, 83
1, 123833, Control_c, 0, 67, 61
1, 123840, Note_on_c, 0, 56, 38
1, 123848, Control_c, 0, 64, 76
1, 123863, Control_c, 0, 64, 70
1, 123878, Control_c, 0, 64, 64
1, 123892, Control_c, 0, 64, 59
1, 123892, Control_c, 0, 67, 60
1, 123907, Control_c, 0, 64, 54
1, 123917, Note_off_c, 0, 68, 28
1, 123922, Control_c, 0, 64, 49
1, 123937, Control_c, 0, 64, 47
1, 123952, Control_c, 0, 64, 42
1, 123952, Control_c, 0, 67, 60
1, 123966, Control_c, 0, 64, 33
1, 123966, Control_c, 0, 67, 59
1, 123981, Control_c, 0, 64, 11
1, 123981, Control_c, 0, 67, 58
1, 123992, Note_on_c, 0, 63, 42
1, 123992, Note_off_c, 0, 72, 59
1, 123996, Control_c, 0, 64, 0
1, 123996, Control_c, 0, 67, 57
1, 124001, Note_off_c, 0, 84, 58
1, 124010, Control_c, 0, 67, 56
1, 124025, Control_c, 0, 67, 51
1, 124040, Control_c, 0, 67, 45
1, 124055, Control_c, 0, 67, 39
1, 124070, Control_c, 0, 67, 30
1, 124084, Control_c, 0, 67, 20
1, 124089, Note_off_c, 0, 56, 43
1, 124100, Control_c, 0, 67, 9
1, 124115, Control_c, 0, 67, 0
1, 124135, Note_off_c, 0, 63, 62
1, 124143, Note_on_c, 0, 68, 51
1, 124281, Note_on_c, 0, 82, 67
1, 124315, Note_on_c, 0, 61, 41
1, 124317, Note_off_c, 0, 68, 35
1, 124367, Control_c, 0, 64, 12
1, 124382, Control_c, 0, 64, 30
1, 124397, Control_c, 0, 64, 43
1, 124412, Control_c, 0, 64, 54
1, 124426, Control_c, 0, 64, 61
1, 124441, Control_c, 0, 64, 64
1, 124445, Note_on_c, 0, 68, 50
1, 124456, Control_c, 0, 64, 67
1, 124471, Control_c, 0, 64, 70
1, 124486, Control_c, 0, 64, 75
1, 124500, Control_c, 0, 64, 81
1, 124515, Control_c, 0, 64, 88
1, 124524, Note_off_c, 0, 61, 51
1, 124530, Control_c, 0, 64, 98
1, 124552, Control_c, 0, 64, 111
1, 124567, Control_c, 0, 64, 127
1, 124585, Note_off_c, 0, 68, 50
1, 124613, Note_on_c, 0, 70, 49
1, 124626, Control_c, 0, 67, 8
1, 124641, Control_c, 0, 67, 24
1, 124656, Control_c, 0, 67, 41
1, 124671, Control_c, 0, 67, 57
1, 124686, Control_c, 0, 67, 73
1, 124700, Control_c, 0, 67, 85
1, 124715, Control_c, 0, 67, 93
1, 124730, Control_c, 0, 67, 100
1, 124745, Control_c, 0, 64, 121
1, 124745, Control_c, 0, 67, 107
1, 124760, Control_c, 0, 64, 104
1, 124760, Control_c, 0, 67, 112
1, 124763, Note_on_c, 0, 85, 65
1, 124775, Note_on_c, 0, 65, 44
1, 124775, Control_c, 0, 64, 90
1, 124775, Control_c, 0, 67, 119
1, 124779, Note_off_c, 0, 70, 31
1, 124789, Control_c, 0, 64, 77
1, 124789, Control_c, 0, 67, 124
1, 124805, Control_c, 0, 64, 66
1, 124805, Control_c, 0, 67, 127
1, 124808, Note_off_c, 0, 82, 57
1, 124820, Control_c, 0, 64, 54
1, 124834, Control_c, 0, 64, 36
1, 124849, Control_c, 0, 64, 32
1, 124864, Control_c, 0, 64, 36
1, 124879, Control_c, 0, 64, 40
1, 124894, Control_c, 0, 64, 46
1, 124910, Control_c, 0, 64, 53
1, 124922, Note_on_c, 0, 68, 46
1, 124924, Control_c, 0, 64, 58
1, 124939, Control_c, 0, 64, 63
1, 124954, Control_c, 0, 64, 65
1, 124969, Control_c, 0, 64, 69
1, 124978, Note_off_c, 0, 65, 36
1, 124984, Control_c, 0, 64, 72
1, 124999, Control_c, 0, 64, 78
1, 125013, Control_c, 0, 64, 84
1, 125028, Control_c, 0, 64, 93
1, 125032, Note_off_c, 0, 68, 57
1, 125032, Note_off_c, 0, 85, 54
1, 125043, Control_c, 0, 64, 102
1, 125057, Control_c, 0, 64, 117
1, 125069, Note_on_c, 0, 73, 43
1, 125072, Control_c, 0, 64, 127
1, 125205, Control_c, 0, 64, 117
1, 125211, Note_on_c, 0, 84, 56
1, 125220, Control_c, 0, 64, 100
1, 125234, Note_off_c, 0, 73, 34
1, 125235, Control_c, 0, 64, 86
1, 125241, Note_on_c, 0, 63, 37
1, 125250, Control_c, 0, 64, 74
1, 125265, Control_c, 0, 64, 64
1, 125280, Control_c, 0, 64, 52
1, 125302, Control_c, 0, 64, 42
1, 125317, Control_c, 0, 64, 43
1, 125331, Control_c, 0, 64, 47
1, 125346, Control_c, 0, 64, 51
1, 125361, Control_c, 0, 64, 55
1, 125376, Control_c, 0, 64, 58
1, 125378, Note_on_c, 0, 68, 42
1, 125391, Control_c, 0, 64, 61
1, 125405, Control_c, 0, 64, 64
1, 125420, Control_c, 0, 64, 66
1, 125435, Control_c, 0, 64, 68
1, 125446, Note_off_c, 0, 84, 55
1, 125449, Control_c, 0, 64, 71
1, 125464, Control_c, 0, 64, 75
1, 125479, Control_c, 0, 64, 79
1, 125494, Control_c, 0, 64, 85
1, 125496, Note_off_c, 0, 63, 29
1, 125509, Control_c, 0, 64, 91
1, 125524, Control_c, 0, 64, 97
1, 125539, Control_c, 0, 64, 101
1, 125544, Note_on_c, 0, 72, 44
1, 125554, Control_c, 0, 64, 102
1, 125554, Note_off_c, 0, 68, 35
1, 125624, Note_off_c, 0, 72, 48
1, 125643, Control_c, 0, 64, 101
1, 125657, Control_c, 0, 64, 99
1, 125672, Control_c, 0, 64, 96
1, 125685, Note_on_c, 0, 82, 57
1, 125687, Control_c, 0, 64, 91
1, 125703, Control_c, 0, 64, 85
1, 125703, Note_on_c, 0, 63, 42
1, 125718, Control_c, 0, 64, 76
1, 125733, Control_c, 0, 64, 68
1, 125748, Control_c, 0, 64, 60
1, 125762, Control_c, 0, 64, 52
1, 125777, Control_c, 0, 64, 53
1, 125792, Control_c, 0, 64, 55
1, 125807, Control_c, 0, 64, 58
1, 125821, Control_c, 0, 64, 61
1, 125832, Note_on_c, 0, 67, 45
1, 125836, Control_c, 0, 64, 63
1, 125851, Control_c, 0, 64, 65
1, 125858, Note_off_c, 0, 63, 49
1, 125866, Control_c, 0, 64, 68
1, 125880, Control_c, 0, 64, 73
1, 125888, Note_off_c, 0, 82, 57
1, 125895, Control_c, 0, 64, 78
1, 125910, Control_c, 0, 64, 84
1, 125925, Control_c, 0, 64, 91
1, 125940, Control_c, 0, 64, 99
1, 125947, Note_off_c, 0, 67, 62
1, 125954, Control_c, 0, 64, 107
1, 125969, Control_c, 0, 64, 114
1, 125984, Control_c, 0, 64, 115
1, 125999, Control_c, 0, 64, 117
1, 126001, Note_on_c, 0, 70, 50
1, 126014, Control_c, 0, 64, 123
1, 126028, Control_c, 0, 64, 127
1, 126031, Note_off_c, 0, 70, 59
1, 126184, Control_c, 0, 64, 115
1, 126198, Note_on_c, 0, 80, 57
1, 126198, Control_c, 0, 64, 106
1, 126213, Control_c, 0, 64, 95
1, 126228, Control_c, 0, 64, 83
1, 126243, Control_c, 0, 64, 70
1, 126246, Note_on_c, 0, 60, 45
1, 126254, Note_on_c, 0, 56, 34
1, 126258, Control_c, 0, 64, 58
1, 126272, Control_c, 0, 64, 40
1, 126287, Control_c, 0, 64, 32
1, 126302, Control_c, 0, 64, 35
1, 126317, Control_c, 0, 64, 41
1, 126332, Control_c, 0, 64, 50
1, 126346, Control_c, 0, 64, 57
1, 126361, Control_c, 0, 64, 61
1, 126376, Control_c, 0, 64, 63
1, 126391, Control_c, 0, 64, 65
1, 126405, Control_c, 0, 64, 67
1, 126408, Note_off_c, 0, 80, 62
1, 126413, Note_on_c, 0, 63, 46
1, 126420, Control_c, 0, 64, 70
1, 126435, Control_c, 0, 64, 74
1, 126450, Control_c, 0, 64, 79
1, 126465, Control_c, 0, 64, 87
1, 126479, Control_c, 0, 64, 97
1, 126494, Control_c, 0, 64, 115
1, 126510, Control_c, 0, 64, 127
1, 126558, Note_on_c, 0, 68, 47
1, 126578, Note_off_c, 0, 63, 53
1, 126616, Note_off_c, 0, 68, 57
1, 126694, Note_on_c, 0, 72, 58
1, 126725, Note_off_c, 0, 56, 40
1, 126776, Control_c, 0, 67, 127
1, 126799, Control_c, 0, 67, 117
1, 126814, Control_c, 0, 67, 103
1, 126828, Control_c, 0, 67, 85
1, 126830, Note_on_c, 0, 68, 65
1, 126830, Note_off_c, 0, 72, 58
1, 126843, Control_c, 0, 67, 57
1, 126858, Control_c, 0, 67, 26
1, 126873, Control_c, 0, 67, 0
1, 126912, Note_off_c, 0, 68, 51
1, 126985, Note_on_c, 0, 63, 59
1, 127056, Note_off_c, 0, 60, 61
1, 127125, Note_on_c, 0, 75, 67
1, 127143, Note_off_c, 0, 63, 56
1, 127184, Control_c, 0, 64, 93
1, 127199, Control_c, 0, 64, 77
1, 127214, Control_c, 0, 64, 65
1, 127228, Control_c, 0, 64, 51
1, 127243, Control_c, 0, 64, 27
1, 127258, Control_c, 0, 64, 0
1, 127261, Note_on_c, 0, 72, 64
1, 127307, Note_off_c, 0, 75, 57
1, 127318, Control_c, 0, 64, 17
1, 127333, Control_c, 0, 64, 32
1, 127348, Control_c, 0, 64, 47
1, 127363, Control_c, 0, 64, 60
1, 127378, Control_c, 0, 64, 65
1, 127392, Control_c, 0, 64, 71
1, 127402, Note_off_c, 0, 72, 61
1, 127407, Note_on_c, 0, 68, 69
1, 127407, Control_c, 0, 64, 80
1, 127422, Control_c, 0, 64, 95
1, 127437, Control_c, 0, 64, 127
1, 127448, Note_off_c, 0, 68, 56
1, 127599, Note_on_c, 0, 68, 55
1, 127619, Note_on_c, 0, 56, 71
1, 127622, Control_c, 0, 64, 104
1, 127637, Control_c, 0, 64, 87
1, 127651, Control_c, 0, 64, 73
1, 127666, Control_c, 0, 64, 64
1, 127681, Control_c, 0, 64, 52
1, 127696, Control_c, 0, 64, 30
1, 127711, Control_c, 0, 64, 0
1, 127798, Note_on_c, 0, 72, 59
1, 127829, Control_c, 0, 64, 42
1, 127844, Control_c, 0, 64, 57
1, 127858, Control_c, 0, 64, 64
1, 127873, Control_c, 0, 64, 68
1, 127888, Control_c, 0, 64, 74
1, 127903, Control_c, 0, 64, 83
1, 127918, Control_c, 0, 64, 99
1, 127927, Note_off_c, 0, 72, 63
1, 127933, Note_off_c, 0, 68, 36
1, 127933, Control_c, 0, 64, 127
1, 127934, Note_on_c, 0, 75, 66
1, 127992, Note_on_c, 0, 60, 67
1, 128013, Note_off_c, 0, 75, 51
1, 128031, Note_off_c, 0, 56, 59
1, 128097, Control_c, 0, 64, 104
1, 128111, Control_c, 0, 64, 84
1, 128120, Note_on_c, 0, 75, 57
1, 128126, Note_on_c, 0, 63, 70
1, 128126, Control_c, 0, 64, 71
1, 128141, Control_c, 0, 64, 62
1, 128156, Control_c, 0, 64, 46
1, 128171, Control_c, 0, 64, 16
1, 128186, Control_c, 0, 64, 0
1, 128190, Note_off_c, 0, 60, 35
1, 128288, Note_on_c, 0, 70, 56
1, 128311, Control_c, 0, 64, 17
1, 128326, Control_c, 0, 64, 46
1, 128341, Control_c, 0, 64, 59
1, 128356, Control_c, 0, 64, 65
1, 128371, Control_c, 0, 64, 69
1, 128386, Control_c, 0, 64, 75
1, 128401, Control_c, 0, 64, 84
1, 128415, Control_c, 0, 64, 93
1, 128424, Note_off_c, 0, 75, 38
1, 128430, Control_c, 0, 64, 106
1, 128438, Note_on_c, 0, 67, 51
1, 128445, Control_c, 0, 64, 127
1, 128460, Note_off_c, 0, 63, 51
1, 128509, Note_off_c, 0, 70, 37
1, 128544, Note_off_c, 0, 67, 37
1, 128574, Note_on_c, 0, 75, 54
1, 128579, Control_c, 0, 64, 117
1, 128587, Note_on_c, 0, 63, 63
1, 128594, Control_c, 0, 64, 98
1, 128609, Control_c, 0, 64, 82
1, 128623, Control_c, 0, 64, 69
1, 128638, Control_c, 0, 64, 58
1, 128653, Control_c, 0, 64, 39
1, 128668, Control_c, 0, 64, 30
1, 128682, Control_c, 0, 64, 32
1, 128697, Control_c, 0, 64, 37
1, 128712, Control_c, 0, 64, 45
1, 128727, Control_c, 0, 64, 54
1, 128738, Note_on_c, 0, 70, 59
1, 128741, Control_c, 0, 64, 60
1, 128756, Control_c, 0, 64, 64
1, 128771, Control_c, 0, 64, 67
1, 128786, Control_c, 0, 64, 71
1, 128801, Control_c, 0, 64, 76
1, 128816, Control_c, 0, 64, 84
1, 128826, Note_off_c, 0, 75, 50
1, 128830, Control_c, 0, 64, 96
1, 128845, Control_c, 0, 64, 127
1, 128872, Note_off_c, 0, 63, 57
1, 128875, Note_on_c, 0, 67, 60
1, 128898, Note_off_c, 0, 70, 57
1, 128970, Note_off_c, 0, 67, 56
1, 129019, Note_on_c, 0, 75, 66
1, 129022, Note_on_c, 0, 63, 68
1, 129024, Control_c, 0, 64, 101
1, 129046, Control_c, 0, 64, 79
1, 129061, Control_c, 0, 64, 65
1, 129076, Control_c, 0, 64, 50
1, 129091, Control_c, 0, 64, 26
1, 129105, Control_c, 0, 64, 22
1, 129120, Control_c, 0, 64, 25
1, 129135, Control_c, 0, 64, 34
1, 129150, Control_c, 0, 64, 43
1, 129164, Note_on_c, 0, 72, 65
1, 129165, Control_c, 0, 64, 52
1, 129179, Control_c, 0, 64, 59
1, 129194, Control_c, 0, 64, 63
1, 129202, Note_off_c, 0, 75, 59
1, 129209, Control_c, 0, 64, 66
1, 129224, Control_c, 0, 64, 71
1, 129239, Control_c, 0, 64, 77
1, 129253, Control_c, 0, 64, 86
1, 129268, Control_c, 0, 64, 101
1, 129283, Control_c, 0, 64, 127
1, 129301, Note_off_c, 0, 72, 64
1, 129313, Note_on_c, 0, 68, 76
1, 129326, Note_off_c, 0, 63, 57
1, 129372, Note_off_c, 0, 68, 61
1, 129465, Note_on_c, 0, 70, 71
1, 129466, Note_on_c, 0, 63, 78
1, 129491, Control_c, 0, 64, 103
1, 129505, Control_c, 0, 64, 85
1, 129520, Control_c, 0, 64, 72
1, 129535, Control_c, 0, 64, 61
1, 129550, Control_c, 0, 64, 41
1, 129565, Control_c, 0, 64, 15
1, 129594, Control_c, 0, 64, 24
1, 129601, Note_on_c, 0, 75, 73
1, 129609, Control_c, 0, 64, 33
1, 129623, Control_c, 0, 64, 45
1, 129638, Control_c, 0, 64, 56
1, 129653, Control_c, 0, 64, 62
1, 129668, Control_c, 0, 64, 66
1, 129683, Control_c, 0, 64, 70
1, 129699, Control_c, 0, 64, 77
1, 129713, Control_c, 0, 64, 87
1, 129728, Control_c, 0, 64, 102
1, 129743, Control_c, 0, 64, 127
1, 129757, Note_on_c, 0, 79, 80
1, 129758, Note_off_c, 0, 70, 32
1, 129778, Note_off_c, 0, 75, 59
1, 129843, Note_off_c, 0, 79, 61
1, 129988, Control_c, 0, 64, 108
1, 129989, Note_on_c, 0, 80, 62
1, 129991, Note_on_c, 0, 65, 72
1, 130002, Control_c, 0, 64, 94
1, 130017, Control_c, 0, 64, 83
1, 130032, Control_c, 0, 64, 74
1, 130045, Control_c, 0, 64, 67
1, 130060, Control_c, 0, 64, 61
1, 130075, Control_c, 0, 64, 52
1, 130090, Control_c, 0, 64, 47
1, 130098, Note_off_c, 0, 63, 54
1, 130105, Control_c, 0, 64, 43
1, 130119, Control_c, 0, 64, 38
1, 130134, Control_c, 0, 64, 25
1, 130149, Control_c, 0, 64, 0
1, 130171, Note_on_c, 0, 75, 49
1, 130293, Note_off_c, 0, 80, 51
1, 130297, Note_on_c, 0, 68, 49
1, 130297, Control_c, 0, 64, 30
1, 130312, Control_c, 0, 64, 49
1, 130326, Control_c, 0, 64, 59
1, 130341, Control_c, 0, 64, 64
1, 130356, Control_c, 0, 64, 66
1, 130371, Control_c, 0, 64, 69
1, 130386, Control_c, 0, 64, 73
1, 130401, Control_c, 0, 64, 77
1, 130410, Note_off_c, 0, 75, 55
1, 130416, Control_c, 0, 64, 82
1, 130431, Control_c, 0, 64, 89
1, 130435, Note_on_c, 0, 80, 55
1, 130445, Control_c, 0, 64, 98
1, 130460, Control_c, 0, 64, 110
1, 130475, Control_c, 0, 64, 127
1, 130603, Note_on_c, 0, 73, 43
1, 130654, Note_off_c, 0, 68, 33
1, 130688, Note_off_c, 0, 80, 31
1, 130709, Note_on_c, 0, 68, 34
1, 130745, Note_off_c, 0, 73, 47
1, 130845, Note_off_c, 0, 68, 32
1, 130860, Note_on_c, 0, 80, 52
1, 130875, Note_on_c, 0, 63, 61
1, 130898, Control_c, 0, 64, 107
1, 130913, Control_c, 0, 64, 89
1, 130922, Note_off_c, 0, 65, 51
1, 130928, Control_c, 0, 64, 75
1, 130942, Control_c, 0, 64, 64
1, 130957, Control_c, 0, 64, 47
1, 130972, Control_c, 0, 64, 0
1, 131018, Note_on_c, 0, 75, 49
1, 131046, Control_c, 0, 64, 15
1, 131060, Control_c, 0, 64, 32
1, 131075, Control_c, 0, 64, 47
1, 131090, Control_c, 0, 64, 58
1, 131105, Control_c, 0, 64, 63
1, 131118, Note_off_c, 0, 75, 48
1, 131120, Control_c, 0, 64, 66
1, 131134, Control_c, 0, 64, 70
1, 131149, Control_c, 0, 64, 74
1, 131164, Control_c, 0, 64, 80
1, 131172, Note_on_c, 0, 70, 54
1, 131176, Note_off_c, 0, 80, 56
1, 131179, Control_c, 0, 64, 88
1, 131194, Control_c, 0, 64, 97
1, 131209, Control_c, 0, 64, 113
1, 131215, Note_off_c, 0, 70, 58
1, 131223, Control_c, 0, 64, 127
1, 131315, Note_on_c, 0, 70, 65
1, 131456, Note_on_c, 0, 75, 70
1, 131488, Note_off_c, 0, 70, 55
1, 131579, Note_on_c, 0, 79, 73
1, 131599, Note_off_c, 0, 75, 59
1, 131614, Note_off_c, 0, 79, 62
1, 131747, Note_on_c, 0, 61, 66
1, 131764, Note_on_c, 0, 77, 49
1, 131765, Control_c, 0, 64, 100
1, 131780, Control_c, 0, 64, 87
1, 131795, Control_c, 0, 64, 76
1, 131810, Control_c, 0, 64, 67
1, 131821, Note_off_c, 0, 63, 56
1, 131825, Control_c, 0, 64, 60
1, 131839, Control_c, 0, 64, 47
1, 131854, Control_c, 0, 64, 37
1, 131869, Control_c, 0, 64, 27
1, 131883, Control_c, 0, 64, 9
1, 131898, Control_c, 0, 64, 0
1, 131902, Note_on_c, 0, 70, 50
1, 132002, Control_c, 0, 64, 23
1, 132017, Control_c, 0, 64, 46
1, 132022, Note_off_c, 0, 77, 41
1, 132032, Control_c, 0, 64, 58
1, 132044, Note_on_c, 0, 67, 49
1, 132054, Control_c, 0, 64, 64
1, 132069, Control_c, 0, 64, 67
1, 132084, Control_c, 0, 64, 71
1, 132100, Control_c, 0, 64, 76
1, 132108, Note_off_c, 0, 70, 37
1, 132115, Control_c, 0, 64, 82
1, 132129, Control_c, 0, 64, 88
1, 132144, Control_c, 0, 64, 95
1, 132159, Control_c, 0, 64, 103
1, 132174, Control_c, 0, 64, 114
1, 132189, Control_c, 0, 64, 127
1, 132192, Note_on_c, 0, 77, 47
1, 132266, Note_off_c, 0, 67, 35
1, 132335, Note_on_c, 0, 71, 50
1, 132369, Note_off_c, 0, 77, 32
1, 132476, Note_on_c, 0, 67, 48
1, 132478, Note_off_c, 0, 71, 36
1, 132526, Note_off_c, 0, 67, 60
1, 132544, Note_off_c, 0, 61, 56
1, 132589, Control_c, 0, 64, 116
1, 132604, Control_c, 0, 64, 93
1, 132612, Note_on_c, 0, 77, 54
1, 132619, Control_c, 0, 64, 78
1, 132622, Note_on_c, 0, 60, 54
1, 132633, Control_c, 0, 64, 67
1, 132648, Control_c, 0, 64, 59
1, 132663, Control_c, 0, 64, 46
1, 132678, Control_c, 0, 64, 33
1, 132693, Control_c, 0, 64, 26
1, 132707, Control_c, 0, 64, 20
1, 132722, Control_c, 0, 64, 12
1, 132737, Control_c, 0, 64, 9
1, 132755, Note_on_c, 0, 72, 53
1, 132767, Control_c, 0, 64, 16
1, 132788, Control_c, 0, 64, 25
1, 132803, Control_c, 0, 64, 35
1, 132818, Control_c, 0, 64, 46
1, 132833, Control_c, 0, 64, 55
1, 132848, Control_c, 0, 64, 61
1, 132853, Note_off_c, 0, 72, 48
1, 132863, Control_c, 0, 64, 64
1, 132878, Control_c, 0, 64, 67
1, 132893, Control_c, 0, 64, 70
1, 132908, Control_c, 0, 64, 74
1, 132917, Note_on_c, 0, 68, 53
1, 132923, Control_c, 0, 64, 80
1, 132931, Note_off_c, 0, 77, 35
1, 132937, Control_c, 0, 64, 87
1, 132952, Control_c, 0, 64, 98
1, 132967, Control_c, 0, 64, 110
1, 132968, Note_off_c, 0, 68, 55
1, 132982, Control_c, 0, 64, 127
1, 133032, Note_on_c, 0, 68, 49
1, 133172, Note_on_c, 0, 72, 62
1, 133213, Note_off_c, 0, 68, 35
1, 133300, Note_off_c, 0, 72, 62
1, 133306, Note_on_c, 0, 75, 67
1, 133348, Note_off_c, 0, 75, 54
1, 133459, Note_on_c, 0, 61, 58
1, 133460, Note_on_c, 0, 58, 68
1, 133470, Control_c, 0, 64, 103
1, 133485, Control_c, 0, 64, 85
1, 133494, Note_off_c, 0, 60, 57
1, 133500, Control_c, 0, 64, 70
1, 133515, Control_c, 0, 64, 56
1, 133530, Control_c, 0, 64, 38
1, 133552, Control_c, 0, 64, 33
1, 133566, Control_c, 0, 64, 35
1, 133581, Control_c, 0, 64, 39
1, 133596, Control_c, 0, 64, 46
1, 133611, Note_on_c, 0, 68, 62
1, 133611, Control_c, 0, 64, 55
1, 133626, Control_c, 0, 64, 61
1, 133635, Note_off_c, 0, 61, 59
1, 133641, Control_c, 0, 64, 65
1, 133656, Control_c, 0, 64, 70
1, 133670, Control_c, 0, 64, 77
1, 133686, Control_c, 0, 64, 88
1, 133701, Control_c, 0, 64, 113
1, 133716, Control_c, 0, 64, 127
1, 133757, Note_on_c, 0, 73, 64
1, 133862, Note_off_c, 0, 68, 35
1, 133893, Control_c, 0, 64, 110
1, 133900, Note_on_c, 0, 65, 65
1, 133908, Control_c, 0, 64, 95
1, 133922, Note_on_c, 0, 61, 72
1, 133923, Control_c, 0, 64, 81
1, 133937, Note_off_c, 0, 73, 37
1, 133938, Control_c, 0, 64, 68
1, 133953, Control_c, 0, 64, 55
1, 133954, Note_off_c, 0, 58, 62
1, 133967, Control_c, 0, 64, 0
1, 134059, Note_on_c, 0, 68, 55
1, 134067, Note_off_c, 0, 65, 48
1, 134071, Control_c, 0, 64, 32
1, 134086, Control_c, 0, 64, 50
1, 134100, Control_c, 0, 64, 60
1, 134115, Control_c, 0, 64, 64
1, 134130, Control_c, 0, 64, 68
1, 134145, Control_c, 0, 64, 72
1, 134160, Control_c, 0, 64, 78
1, 134175, Control_c, 0, 64, 83
1, 134189, Control_c, 0, 64, 89
1, 134204, Control_c, 0, 64, 94
1, 134217, Note_on_c, 0, 70, 55
1, 134219, Control_c, 0, 64, 101
1, 134228, Note_off_c, 0, 68, 54
1, 134234, Control_c, 0, 64, 110
1, 134249, Control_c, 0, 64, 127
1, 134266, Note_off_c, 0, 70, 56
1, 134294, Note_off_c, 0, 61, 56
1, 134345, Control_c, 0, 64, 123
1, 134360, Control_c, 0, 64, 112
1, 134374, Note_on_c, 0, 63, 55
1, 134374, Control_c, 0, 64, 103
1, 134384, Note_on_c, 0, 60, 57
1, 134389, Control_c, 0, 64, 93
1, 134404, Control_c, 0, 64, 80
1, 134419, Control_c, 0, 64, 68
1, 134434, Control_c, 0, 64, 56
1, 134449, Control_c, 0, 64, 27
1, 134464, Control_c, 0, 64, 17
1, 134479, Control_c, 0, 64, 21
1, 134494, Control_c, 0, 64, 30
1, 134508, Control_c, 0, 64, 39
1, 134523, Control_c, 0, 64, 49
1, 134526, Note_on_c, 0, 68, 51
1, 134538, Control_c, 0, 64, 58
1, 134553, Control_c, 0, 64, 62
1, 134568, Control_c, 0, 64, 65
1, 134583, Control_c, 0, 64, 67
1, 134598, Control_c, 0, 64, 71
1, 134604, Note_off_c, 0, 60, 54
1, 134613, Control_c, 0, 64, 74
1, 134628, Control_c, 0, 64, 80
1, 134643, Control_c, 0, 64, 85
1, 134657, Control_c, 0, 64, 92
1, 134672, Control_c, 0, 64, 99
1, 134681, Note_off_c, 0, 68, 51
1, 134683, Note_on_c, 0, 72, 52
1, 134687, Control_c, 0, 64, 105
1, 134702, Control_c, 0, 64, 111
1, 134703, Note_off_c, 0, 63, 26
1, 134716, Control_c, 0, 64, 113
1, 134746, Control_c, 0, 64, 112
1, 134761, Control_c, 0, 64, 110
1, 134776, Control_c, 0, 64, 107
1, 134789, Note_off_c, 0, 72, 51
1, 134790, Control_c, 0, 64, 104
1, 134805, Control_c, 0, 64, 97
1, 134820, Control_c, 0, 64, 84
1, 134823, Note_on_c, 0, 58, 50
1, 134830, Note_on_c, 0, 63, 53
1, 134831, Note_on_c, 0, 51, 51
1, 134833, Note_on_c, 0, 67, 49
1, 134835, Control_c, 0, 64, 71
1, 134850, Control_c, 0, 64, 60
1, 134864, Control_c, 0, 64, 43
1, 134879, Control_c, 0, 64, 33
1, 134894, Control_c, 0, 64, 36
1, 134908, Control_c, 0, 64, 44
1, 134923, Control_c, 0, 64, 53
1, 134938, Control_c, 0, 64, 59
1, 134953, Control_c, 0, 64, 63
1, 134960, Note_off_c, 0, 67, 45
1, 134962, Note_off_c, 0, 51, 63
1, 134967, Note_off_c, 0, 58, 62
1, 134968, Control_c, 0, 64, 66
1, 134982, Note_on_c, 0, 75, 59
1, 134982, Control_c, 0, 64, 70
1, 134997, Control_c, 0, 64, 76
1, 135012, Control_c, 0, 64, 83
1, 135027, Control_c, 0, 64, 94
1, 135050, Control_c, 0, 64, 112
1, 135064, Control_c, 0, 64, 127
1, 135132, Note_on_c, 0, 73, 57
1, 135146, Note_off_c, 0, 75, 56
1, 135186, Note_on_c, 0, 68, 20
1, 135195, Note_off_c, 0, 63, 41
1, 135196, Note_off_c, 0, 73, 63
1, 135266, Note_off_c, 0, 68, 0
1, 135300, Note_on_c, 0, 68, 6
1, 135320, Note_on_c, 0, 72, 53
1, 135324, Note_on_c, 0, 51, 50
1, 135324, Note_on_c, 0, 56, 53
1, 135331, Note_on_c, 0, 44, 45
1, 135331, Control_c, 0, 64, 100
1, 135337, Note_on_c, 0, 63, 34
1, 135346, Control_c, 0, 64, 82
1, 135361, Control_c, 0, 64, 67
1, 135367, Note_off_c, 0, 63, 54
1, 135376, Control_c, 0, 64, 44
1, 135391, Control_c, 0, 64, 0
1, 135465, Note_on_c, 0, 63, 50
1, 135465, Control_c, 0, 64, 30
1, 135476, Note_off_c, 0, 72, 55
1, 135480, Control_c, 0, 64, 48
1, 135495, Control_c, 0, 64, 59
1, 135502, Note_off_c, 0, 68, 39
1, 135510, Control_c, 0, 64, 64
1, 135525, Control_c, 0, 64, 67
1, 135539, Control_c, 0, 64, 72
1, 135554, Control_c, 0, 64, 78
1, 135569, Control_c, 0, 64, 86
1, 135584, Control_c, 0, 64, 98
1, 135599, Control_c, 0, 64, 127
1, 135614, Note_on_c, 0, 68, 62
1, 135754, Note_on_c, 0, 72, 63
1, 135774, Note_off_c, 0, 68, 54
1, 135818, Note_off_c, 0, 63, 37
1, 135844, Note_off_c, 0, 56, 56
1, 135898, Note_off_c, 0, 72, 59
1, 135906, Note_on_c, 0, 68, 70
1, 135993, Note_off_c, 0, 68, 54
1, 136032, Note_on_c, 0, 63, 71
1, 136140, Note_off_c, 0, 44, 58
1, 136170, Control_c, 0, 64, 116
1, 136177, Note_off_c, 0, 51, 56
1, 136184, Note_on_c, 0, 75, 77
1, 136185, Control_c, 0, 64, 87
1, 136200, Control_c, 0, 64, 70
1, 136213, Note_off_c, 0, 63, 46
1, 136215, Control_c, 0, 64, 50
1, 136230, Control_c, 0, 64, 0
1, 136333, Note_on_c, 0, 72, 74
1, 136333, Control_c, 0, 64, 39
1, 136348, Control_c, 0, 64, 58
1, 136363, Control_c, 0, 64, 67
1, 136371, Note_off_c, 0, 75, 59
1, 136377, Control_c, 0, 64, 76
1, 136392, Control_c, 0, 64, 117
1, 136407, Control_c, 0, 64, 127
1, 136452, Note_off_c, 0, 72, 62
1, 136464, Note_on_c, 0, 68, 83
1, 136544, Note_off_c, 0, 68, 60
1, 136655, Note_on_c, 0, 68, 77
1, 136690, Note_on_c, 0, 56, 91
1, 136696, Control_c, 0, 64, 110
1, 136700, Note_on_c, 0, 44, 77
1, 136711, Control_c, 0, 64, 80
1, 136726, Control_c, 0, 64, 63
1, 136741, Control_c, 0, 64, 31
1, 136756, Control_c, 0, 64, 0
1, 136814, Control_c, 0, 64, 33
1, 136829, Control_c, 0, 64, 55
1, 136830, Note_off_c, 0, 44, 63
1, 136840, Note_on_c, 0, 72, 75
1, 136843, Control_c, 0, 64, 64
1, 136858, Control_c, 0, 64, 72
1, 136873, Control_c, 0, 64, 86
1, 136878, Note_off_c, 0, 56, 61
1, 136889, Control_c, 0, 64, 127
1, 136906, Note_off_c, 0, 68, 57
1, 136985, Note_on_c, 0, 75, 86
1, 136987, Note_off_c, 0, 72, 63
1, 137054, Note_on_c, 0, 60, 85
1, 137057, Note_on_c, 0, 48, 74
1, 137078, Note_off_c, 0, 75, 60
1, 137084, Note_off_c, 0, 48, 66
1, 137099, Note_off_c, 0, 60, 66
1, 137187, Note_on_c, 0, 75, 80
1, 137200, Control_c, 0, 64, 100
1, 137206, Note_on_c, 0, 63, 83
1, 137213, Note_on_c, 0, 51, 77
1, 137215, Control_c, 0, 64, 78
1, 137230, Control_c, 0, 64, 60
1, 137245, Control_c, 0, 64, 0
1, 137382, Note_on_c, 0, 70, 67
1, 137385, Control_c, 0, 64, 40
1, 137400, Control_c, 0, 64, 56
1, 137415, Control_c, 0, 64, 63
1, 137430, Control_c, 0, 64, 69
1, 137445, Control_c, 0, 64, 76
1, 137459, Control_c, 0, 64, 84
1, 137474, Control_c, 0, 64, 94
1, 137474, Note_off_c, 0, 51, 54
1, 137489, Control_c, 0, 64, 110
1, 137498, Note_off_c, 0, 75, 56
1, 137503, Control_c, 0, 64, 127
1, 137504, Note_off_c, 0, 63, 60
1, 137525, Note_on_c, 0, 67, 67
1, 137543, Note_off_c, 0, 70, 55
1, 137659, Note_on_c, 0, 63, 82
1, 137666, Control_c, 0, 64, 112
1, 137667, Note_on_c, 0, 75, 76
1, 137671, Note_on_c, 0, 51, 73
1, 137682, Control_c, 0, 64, 89
1, 137697, Control_c, 0, 64, 68
1, 137712, Control_c, 0, 64, 52
1, 137727, Control_c, 0, 64, 0
1, 137736, Note_off_c, 0, 67, 38
1, 137771, Control_c, 0, 64, 31
1, 137786, Control_c, 0, 64, 49
1, 137801, Control_c, 0, 64, 60
1, 137815, Control_c, 0, 64, 64
1, 137816, Note_on_c, 0, 70, 74
1, 137830, Control_c, 0, 64, 68
1, 137845, Control_c, 0, 64, 73
1, 137860, Control_c, 0, 64, 79
1, 137872, Note_off_c, 0, 51, 56
1, 137874, Note_off_c, 0, 75, 54
1, 137875, Control_c, 0, 64, 86
1, 137889, Control_c, 0, 64, 100
1, 137904, Control_c, 0, 64, 127
1, 137910, Note_off_c, 0, 63, 60
1, 137943, Note_on_c, 0, 67, 81
1, 137970, Note_off_c, 0, 70, 60
1, 138098, Note_on_c, 0, 75, 84
1, 138103, Note_on_c, 0, 63, 88
1, 138113, Note_on_c, 0, 51, 79
1, 138119, Control_c, 0, 64, 105
1, 138125, Note_off_c, 0, 67, 36
1, 138133, Control_c, 0, 64, 81
1, 138148, Control_c, 0, 64, 65
1, 138163, Control_c, 0, 64, 36
1, 138178, Control_c, 0, 64, 0
1, 138223, Control_c, 0, 64, 29
1, 138238, Control_c, 0, 64, 48
1, 138245, Note_on_c, 0, 71, 82
1, 138252, Control_c, 0, 64, 59
1, 138267, Control_c, 0, 64, 65
1, 138282, Control_c, 0, 64, 71
1, 138297, Control_c, 0, 64, 82
1, 138297, Note_off_c, 0, 75, 56
1, 138312, Control_c, 0, 64, 101
1, 138326, Control_c, 0, 64, 127
1, 138355, Note_off_c, 0, 51, 58
1, 138387, Note_on_c, 0, 68, 81
1, 138388, Note_off_c, 0, 71, 59
1, 138395, Note_off_c, 0, 63, 59
1, 138440, Note_off_c, 0, 68, 63
1, 138536, Note_on_c, 0, 63, 96
1, 138540, Note_on_c, 0, 70, 86
1, 138548, Note_on_c, 0, 51, 81
1, 138564, Control_c, 0, 64, 105
1, 138579, Control_c, 0, 64, 79
1, 138594, Control_c, 0, 64, 63
1, 138609, Control_c, 0, 64, 39
1, 138624, Control_c, 0, 64, 0
1, 138653, Control_c, 0, 64, 18
1, 138668, Control_c, 0, 64, 37
1, 138683, Control_c, 0, 64, 51
1, 138684, Note_on_c, 0, 75, 89
1, 138698, Control_c, 0, 64, 60
1, 138712, Control_c, 0, 64, 65
1, 138727, Control_c, 0, 64, 71
1, 138742, Control_c, 0, 64, 80
1, 138756, Control_c, 0, 64, 95
1, 138758, Note_off_c, 0, 70, 54
1, 138771, Control_c, 0, 64, 127
1, 138805, Note_off_c, 0, 51, 38
1, 138805, Note_off_c, 0, 63, 61
1, 138840, Note_on_c, 0, 79, 86
1, 138869, Note_off_c, 0, 75, 60
1, 138932, Note_off_c, 0, 79, 61
1, 139097, Note_on_c, 0, 80, 69
1, 139105, Note_on_c, 0, 64, 91
1, 139114, Note_on_c, 0, 52, 78
1, 139120, Control_c, 0, 64, 102
1, 139135, Control_c, 0, 64, 85
1, 139150, Control_c, 0, 64, 73
1, 139164, Control_c, 0, 64, 63
1, 139179, Control_c, 0, 64, 53
1, 139194, Control_c, 0, 64, 40
1, 139209, Control_c, 0, 64, 32
1, 139223, Control_c, 0, 64, 21
1, 139238, Control_c, 0, 64, 0
1, 139296, Note_on_c, 0, 75, 61
1, 139372, Control_c, 0, 64, 44
1, 139387, Control_c, 0, 64, 58
1, 139402, Control_c, 0, 64, 64
1, 139417, Control_c, 0, 64, 69
1, 139421, Note_on_c, 0, 68, 63
1, 139423, Note_off_c, 0, 80, 52
1, 139432, Control_c, 0, 64, 75
1, 139447, Control_c, 0, 64, 83
1, 139461, Control_c, 0, 64, 96
1, 139476, Control_c, 0, 64, 123
1, 139491, Control_c, 0, 64, 127
1, 139532, Note_off_c, 0, 75, 38
1, 139567, Note_on_c, 0, 80, 69
1, 139621, Note_off_c, 0, 68, 54
1, 139675, Note_off_c, 0, 52, 60
1, 139685, Note_off_c, 0, 64, 57
1, 139698, Note_on_c, 0, 73, 70
1, 139776, Note_off_c, 0, 80, 51
1, 139833, Note_on_c, 0, 70, 64
1, 139850, Note_off_c, 0, 73, 61
1, 139971, Note_on_c, 0, 63, 71
1, 139975, Note_on_c, 0, 80, 69
1, 139977, Note_on_c, 0, 51, 69
1, 139990, Note_off_c, 0, 70, 33
1, 140002, Control_c, 0, 64, 103
1, 140017, Control_c, 0, 64, 86
1, 140032, Control_c, 0, 64, 70
1, 140047, Control_c, 0, 64, 58
1, 140062, Control_c, 0, 64, 26
1, 140077, Control_c, 0, 64, 0
1, 140115, Note_on_c, 0, 75, 68
1, 140181, Control_c, 0, 64, 12
1, 140196, Control_c, 0, 64, 42
1, 140211, Control_c, 0, 64, 57
1, 140226, Control_c, 0, 64, 63
1, 140241, Control_c, 0, 64, 67
1, 140256, Control_c, 0, 64, 71
1, 140261, Note_on_c, 0, 71, 63
1, 140277, Control_c, 0, 64, 75
1, 140292, Control_c, 0, 64, 80
1, 140307, Control_c, 0, 64, 85
1, 140308, Note_off_c, 0, 71, 60
1, 140322, Control_c, 0, 64, 90
1, 140327, Note_off_c, 0, 75, 31
1, 140336, Control_c, 0, 64, 95
1, 140351, Control_c, 0, 64, 103
1, 140366, Control_c, 0, 64, 127
1, 140396, Note_off_c, 0, 63, 59
1, 140403, Note_on_c, 0, 71, 72
1, 140412, Note_off_c, 0, 80, 22
1, 140489, Note_off_c, 0, 51, 62
1, 140530, Note_on_c, 0, 75, 80
1, 140559, Note_off_c, 0, 71, 56
1, 140669, Note_on_c, 0, 78, 83
1, 140688, Note_off_c, 0, 75, 58
1, 140724, Note_off_c, 0, 78, 66
1, 140840, Note_on_c, 0, 61, 71
1, 140845, Note_on_c, 0, 49, 63
1, 140846, Note_on_c, 0, 76, 66
1, 140885, Control_c, 0, 64, 114
1, 140899, Control_c, 0, 64, 91
1, 140914, Control_c, 0, 64, 75
1, 140929, Control_c, 0, 64, 64
1, 140943, Control_c, 0, 64, 44
1, 140958, Control_c, 0, 64, 0
1, 140991, Note_on_c, 0, 71, 62
1, 141084, Control_c, 0, 64, 42
1, 141099, Control_c, 0, 64, 57
1, 141114, Control_c, 0, 64, 64
1, 141120, Note_off_c, 0, 76, 56
1, 141129, Control_c, 0, 64, 69
1, 141134, Note_on_c, 0, 67, 55
1, 141144, Control_c, 0, 64, 78
1, 141154, Note_off_c, 0, 71, 58
1, 141158, Control_c, 0, 64, 88
1, 141173, Control_c, 0, 64, 103
1, 141188, Control_c, 0, 64, 127
1, 141269, Note_off_c, 0, 61, 62
1, 141286, Note_on_c, 0, 76, 62
1, 141325, Note_off_c, 0, 67, 47
1, 141353, Note_off_c, 0, 49, 57
1, 141418, Note_on_c, 0, 70, 63
1, 141464, Note_off_c, 0, 76, 55
1, 141558, Note_on_c, 0, 67, 61
1, 141584, Note_off_c, 0, 70, 38
1, 141633, Note_off_c, 0, 67, 57
1, 141707, Control_c, 0, 64, 113
1, 141716, Note_on_c, 0, 76, 64
1, 141716, Note_on_c, 0, 59, 71
1, 141722, Control_c, 0, 64, 95
1, 141728, Note_on_c, 0, 47, 60
1, 141737, Control_c, 0, 64, 81
1, 141752, Control_c, 0, 64, 67
1, 141767, Control_c, 0, 64, 53
1, 141788, Control_c, 0, 64, 0
1, 141855, Note_on_c, 0, 71, 67
1, 141892, Control_c, 0, 64, 38
1, 141907, Control_c, 0, 64, 55
1, 141922, Control_c, 0, 64, 63
1, 141935, Note_off_c, 0, 71, 58
1, 141937, Control_c, 0, 64, 67
1, 141952, Control_c, 0, 64, 71
1, 141967, Control_c, 0, 64, 77
1, 141972, Note_off_c, 0, 76, 55
1, 141981, Control_c, 0, 64, 85
1, 141996, Control_c, 0, 64, 97
1, 142007, Note_on_c, 0, 68, 69
1, 142011, Control_c, 0, 64, 119
1, 142026, Control_c, 0, 64, 127
1, 142054, Note_off_c, 0, 68, 57
1, 142105, Note_off_c, 0, 59, 60
1, 142141, Note_on_c, 0, 68, 79
1, 142291, Note_on_c, 0, 71, 75
1, 142336, Note_on_c, 0, 58, 83
1, 142364, Note_off_c, 0, 47, 63
1, 142398, Note_off_c, 0, 68, 33
1, 142438, Note_on_c, 0, 75, 77
1, 142456, Note_off_c, 0, 71, 57
1, 142466, Note_off_c, 0, 58, 61
1, 142527, Note_off_c, 0, 75, 58
1, 142607, Note_on_c, 0, 68, 76
1, 142611, Control_c, 0, 64, 87
1, 142616, Note_on_c, 0, 56, 77
1, 142625, Note_on_c, 0, 52, 67
1, 142626, Control_c, 0, 64, 67
1, 142641, Control_c, 0, 64, 32
1, 142656, Control_c, 0, 64, 0
1, 142715, Control_c, 0, 64, 37
1, 142730, Control_c, 0, 64, 57
1, 142745, Control_c, 0, 64, 64
1, 142760, Control_c, 0, 64, 70
1, 142762, Note_on_c, 0, 71, 77
1, 142768, Note_off_c, 0, 52, 65
1, 142774, Control_c, 0, 64, 78
1, 142789, Control_c, 0, 64, 90
1, 142804, Control_c, 0, 64, 127
1, 142822, Note_off_c, 0, 68, 49
1, 142844, Note_off_c, 0, 56, 58
1, 142901, Note_on_c, 0, 73, 82
1, 142930, Note_off_c, 0, 71, 62
1, 143042, Note_off_c, 0, 73, 58
1, 143095, Note_on_c, 0, 64, 67
1, 143098, Note_on_c, 0, 68, 79
1, 143114, Note_on_c, 0, 56, 64
1, 143120, Note_on_c, 0, 49, 55
1, 143129, Control_c, 0, 64, 93
1, 143144, Control_c, 0, 64, 74
1, 143159, Control_c, 0, 64, 61
1, 143174, Control_c, 0, 64, 28
1, 143189, Control_c, 0, 64, 0
1, 143263, Control_c, 0, 64, 38
1, 143287, Control_c, 0, 64, 55
1, 143297, Note_off_c, 0, 49, 62
1, 143298, Note_on_c, 0, 71, 70
1, 143301, Control_c, 0, 64, 63
1, 143316, Control_c, 0, 64, 67
1, 143331, Control_c, 0, 64, 72
1, 143346, Control_c, 0, 64, 81
1, 143361, Control_c, 0, 64, 93
1, 143362, Note_off_c, 0, 64, 59
1, 143375, Control_c, 0, 64, 123
1, 143390, Control_c, 0, 64, 127
1, 143405, Note_off_c, 0, 56, 37
1, 143448, Note_on_c, 0, 76, 62
1, 143462, Note_off_c, 0, 68, 35
1, 143474, Note_off_c, 0, 71, 54
1, 143581, Note_off_c, 0, 76, 56
1, 143582, Note_on_c, 0, 66, 67
1, 143582, Control_c, 0, 64, 109
1, 143588, Note_on_c, 0, 63, 60
1, 143590, Note_on_c, 0, 54, 58
1, 143597, Control_c, 0, 64, 85
1, 143612, Control_c, 0, 64, 68
1, 143627, Control_c, 0, 64, 50
1, 143642, Control_c, 0, 64, 0
1, 143716, Control_c, 0, 64, 21
1, 143731, Control_c, 0, 64, 44
1, 143733, Note_on_c, 0, 71, 60
1, 143745, Control_c, 0, 64, 59
1, 143760, Control_c, 0, 64, 65
1, 143770, Note_off_c, 0, 54, 59
1, 143775, Control_c, 0, 64, 69
1, 143789, Note_off_c, 0, 63, 60
1, 143790, Control_c, 0, 64, 75
1, 143805, Control_c, 0, 64, 83
1, 143819, Control_c, 0, 64, 92
1, 143834, Control_c, 0, 64, 106
1, 143849, Control_c, 0, 64, 127
1, 143880, Note_off_c, 0, 71, 61
1, 143883, Note_on_c, 0, 75, 63
1, 143924, Note_off_c, 0, 66, 20
1, 143997, Control_c, 0, 64, 121
1, 144005, Note_off_c, 0, 75, 57
1, 144019, Control_c, 0, 64, 103
1, 144034, Control_c, 0, 64, 85
1, 144041, Note_on_c, 0, 70, 60
1, 144041, Note_on_c, 0, 61, 53
1, 144048, Note_on_c, 0, 66, 50
1, 144049, Control_c, 0, 64, 69
1, 144050, Note_on_c, 0, 54, 48
1, 144064, Control_c, 0, 64, 55
1, 144080, Control_c, 0, 64, 0
1, 144124, Control_c, 0, 64, 21
1, 144139, Control_c, 0, 64, 41
1, 144154, Control_c, 0, 64, 54
1, 144169, Control_c, 0, 64, 61
1, 144176, Note_off_c, 0, 54, 64
1, 144184, Control_c, 0, 64, 65
1, 144192, Note_on_c, 0, 78, 63
1, 144198, Control_c, 0, 64, 69
1, 144213, Control_c, 0, 64, 74
1, 144228, Control_c, 0, 64, 81
1, 144231, Note_off_c, 0, 61, 37
1, 144243, Control_c, 0, 64, 88
1, 144257, Control_c, 0, 64, 98
1, 144272, Control_c, 0, 64, 117
1, 144280, Note_off_c, 0, 70, 29
1, 144287, Control_c, 0, 64, 127
1, 144308, Note_off_c, 0, 78, 58
1, 144326, Note_on_c, 0, 76, 66
1, 144399, Note_off_c, 0, 76, 63
1, 144411, Note_off_c, 0, 66, 40
1, 144494, Control_c, 0, 64, 103
1, 144509, Control_c, 0, 64, 79
1, 144524, Control_c, 0, 64, 63
1, 144537, Note_on_c, 0, 75, 55
1, 144539, Control_c, 0, 64, 28
1, 144539, Note_on_c, 0, 71, 44
1, 144551, Note_on_c, 0, 59, 42
1, 144554, Control_c, 0, 64, 0
1, 144554, Note_on_c, 0, 66, 44
1, 144560, Note_on_c, 0, 47, 40
1, 144562, Note_on_c, 0, 54, 41
1, 144598, Control_c, 0, 64, 28
1, 144613, Control_c, 0, 64, 51
1, 144628, Control_c, 0, 64, 62
1, 144638, Note_off_c, 0, 71, 64
1, 144642, Control_c, 0, 64, 67
1, 144646, Note_off_c, 0, 75, 61
1, 144655, Note_off_c, 0, 66, 63
1, 144657, Control_c, 0, 64, 73
1, 144672, Control_c, 0, 64, 81
1, 144687, Control_c, 0, 64, 95
1, 144702, Control_c, 0, 64, 127
1, 144749, Note_on_c, 0, 63, 58
1, 144888, Note_on_c, 0, 66, 59
1, 144938, Note_off_c, 0, 63, 21
1, 145004, Note_on_c, 0, 71, 60
1, 145016, Note_off_c, 0, 66, 53
1, 145141, Note_off_c, 0, 71, 59
1, 145144, Note_on_c, 0, 66, 65
1, 145182, Note_off_c, 0, 66, 61
1, 145265, Note_on_c, 0, 63, 62
1, 145347, Control_c, 0, 64, 103
1, 145362, Control_c, 0, 64, 88
1, 145377, Control_c, 0, 64, 76
1, 145391, Control_c, 0, 64, 67
1, 145401, Note_off_c, 0, 47, 39
1, 145406, Control_c, 0, 64, 59
1, 145410, Note_on_c, 0, 75, 71
1, 145413, Note_off_c, 0, 59, 40
1, 145420, Note_off_c, 0, 63, 54
1, 145421, Control_c, 0, 64, 45
1, 145436, Control_c, 0, 64, 34
1, 145451, Control_c, 0, 64, 28
1, 145465, Control_c, 0, 64, 23
1, 145474, Note_off_c, 0, 54, 55
1, 145480, Control_c, 0, 64, 0
1, 145553, Note_on_c, 0, 71, 67
1, 145655, Note_off_c, 0, 75, 60
1, 145681, Control_c, 0, 64, 22
1, 145689, Note_on_c, 0, 66, 64
1, 145696, Control_c, 0, 64, 43
1, 145704, Note_off_c, 0, 71, 57
1, 145711, Control_c, 0, 64, 57
1, 145726, Control_c, 0, 64, 63
1, 145740, Control_c, 0, 64, 65
1, 145755, Control_c, 0, 64, 67
1, 145770, Control_c, 0, 64, 68
1, 145814, Control_c, 0, 64, 68
1, 145827, Note_on_c, 0, 71, 67
1, 145844, Control_c, 0, 64, 67
1, 145859, Control_c, 0, 64, 67
1, 145874, Control_c, 0, 64, 66
1, 145888, Control_c, 0, 64, 63
1, 145903, Control_c, 0, 64, 57
1, 145918, Control_c, 0, 64, 48
1, 145933, Control_c, 0, 64, 39
1, 145948, Control_c, 0, 64, 36
1, 145952, Note_on_c, 0, 75, 68
1, 145978, Note_off_c, 0, 71, 61
1, 145992, Control_c, 0, 64, 38
1, 146007, Control_c, 0, 64, 40
1, 146021, Control_c, 0, 64, 43
1, 146035, Note_off_c, 0, 66, 35
1, 146036, Control_c, 0, 64, 47
1, 146051, Control_c, 0, 64, 52
1, 146066, Control_c, 0, 64, 57
1, 146081, Control_c, 0, 64, 62
1, 146086, Note_on_c, 0, 78, 73
1, 146089, Note_off_c, 0, 75, 62
1, 146095, Control_c, 0, 64, 64
1, 146110, Control_c, 0, 64, 66
1, 146125, Control_c, 0, 64, 69
1, 146140, Control_c, 0, 64, 73
1, 146155, Control_c, 0, 64, 78
1, 146170, Control_c, 0, 64, 87
1, 146173, Note_off_c, 0, 78, 61
1, 146185, Control_c, 0, 64, 96
1, 146200, Control_c, 0, 64, 107
1, 146214, Control_c, 0, 64, 115
1, 146244, Control_c, 0, 64, 114
1, 146259, Control_c, 0, 64, 111
1, 146281, Control_c, 0, 64, 109
1, 146295, Control_c, 0, 64, 105
1, 146300, Note_on_c, 0, 78, 69
1, 146310, Control_c, 0, 64, 101
1, 146322, Note_on_c, 0, 66, 52
1, 146324, Note_on_c, 0, 47, 35
1, 146325, Control_c, 0, 64, 96
1, 146340, Control_c, 0, 64, 89
1, 146355, Control_c, 0, 64, 78
1, 146369, Control_c, 0, 64, 65
1, 146384, Control_c, 0, 64, 52
1, 146399, Control_c, 0, 64, 23
1, 146414, Control_c, 0, 64, 0
1, 146459, Control_c, 0, 64, 21
1, 146474, Control_c, 0, 64, 34
1, 146488, Note_on_c, 0, 51, 45
1, 146489, Control_c, 0, 64, 49
1, 146504, Control_c, 0, 64, 59
1, 146518, Control_c, 0, 64, 64
1, 146533, Control_c, 0, 64, 68
1, 146548, Control_c, 0, 64, 73
1, 146561, Note_off_c, 0, 47, 40
1, 146563, Control_c, 0, 64, 78
1, 146578, Control_c, 0, 64, 84
1, 146593, Control_c, 0, 64, 89
1, 146602, Note_off_c, 0, 66, 55
1, 146608, Control_c, 0, 64, 94
1, 146623, Control_c, 0, 64, 99
1, 146624, Note_off_c, 0, 78, 55
1, 146627, Note_on_c, 0, 54, 54
1, 146637, Control_c, 0, 64, 107
1, 146652, Control_c, 0, 64, 115
1, 146667, Control_c, 0, 64, 127
1, 146726, Control_c, 0, 64, 119
1, 146741, Control_c, 0, 64, 113
1, 146756, Note_on_c, 0, 78, 82
1, 146756, Control_c, 0, 64, 106
1, 146767, Note_on_c, 0, 66, 61
1, 146770, Control_c, 0, 64, 98
1, 146777, Note_on_c, 0, 47, 52
1, 146781, Note_off_c, 0, 51, 40
1, 146785, Control_c, 0, 64, 88
1, 146800, Control_c, 0, 64, 76
1, 146815, Note_off_c, 0, 54, 30
1, 146815, Control_c, 0, 64, 64
1, 146830, Control_c, 0, 64, 51
1, 146844, Control_c, 0, 64, 38
1, 146874, Control_c, 0, 64, 44
1, 146889, Control_c, 0, 64, 52
1, 146903, Note_on_c, 0, 51, 53
1, 146904, Control_c, 0, 64, 58
1, 146918, Control_c, 0, 64, 63
1, 146933, Control_c, 0, 64, 66
1, 146948, Control_c, 0, 64, 69
1, 146963, Control_c, 0, 64, 74
1, 146971, Note_off_c, 0, 66, 55
1, 146978, Control_c, 0, 64, 80
1, 146992, Control_c, 0, 64, 88
1, 147000, Note_off_c, 0, 47, 54
1, 147007, Control_c, 0, 64, 102
1, 147030, Control_c, 0, 64, 127
1, 147051, Note_off_c, 0, 78, 58
1, 147061, Note_on_c, 0, 54, 62
1, 147126, Note_off_c, 0, 51, 55
1, 147192, Note_on_c, 0, 79, 81
1, 147196, Note_off_c, 0, 54, 55
1, 147204, Note_on_c, 0, 46, 54
1, 147205, Note_on_c, 0, 67, 59
1, 147207, Control_c, 0, 64, 104
1, 147222, Control_c, 0, 64, 89
1, 147237, Control_c, 0, 64, 75
1, 147252, Control_c, 0, 64, 63
1, 147267, Control_c, 0, 64, 41
1, 147282, Control_c, 0, 64, 0
1, 147342, Note_on_c, 0, 49, 51
1, 147356, Control_c, 0, 64, 29
1, 147371, Control_c, 0, 64, 47
1, 147386, Control_c, 0, 64, 60
1, 147401, Control_c, 0, 64, 64
1, 147402, Note_off_c, 0, 67, 59
1, 147416, Control_c, 0, 64, 68
1, 147428, Note_off_c, 0, 46, 53
1, 147431, Control_c, 0, 64, 72
1, 147446, Control_c, 0, 64, 77
1, 147460, Control_c, 0, 64, 83
1, 147475, Control_c, 0, 64, 91
1, 147490, Control_c, 0, 64, 99
1, 147493, Note_on_c, 0, 51, 55
1, 147505, Control_c, 0, 64, 108
1, 147520, Control_c, 0, 64, 123
1, 147534, Control_c, 0, 64, 127
1, 147610, Note_off_c, 0, 49, 36
1, 147638, Control_c, 0, 64, 112
1, 147639, Note_on_c, 0, 80, 71
1, 147653, Control_c, 0, 64, 104
1, 147661, Note_on_c, 0, 68, 62
1, 147667, Control_c, 0, 64, 94
1, 147675, Note_on_c, 0, 44, 44
1, 147675, Note_off_c, 0, 51, 30
1, 147681, Note_off_c, 0, 79, 51
1, 147682, Control_c, 0, 64, 83
1, 147697, Control_c, 0, 64, 70
1, 147712, Control_c, 0, 64, 57
1, 147727, Control_c, 0, 64, 21
1, 147741, Control_c, 0, 64, 0
1, 147816, Note_on_c, 0, 49, 47
1, 147823, Control_c, 0, 64, 32
1, 147838, Control_c, 0, 64, 49
1, 147845, Note_off_c, 0, 68, 55
1, 147853, Control_c, 0, 64, 60
1, 147867, Control_c, 0, 64, 64
1, 147882, Control_c, 0, 64, 67
1, 147897, Control_c, 0, 64, 71
1, 147912, Control_c, 0, 64, 76
1, 147927, Control_c, 0, 64, 82
1, 147941, Control_c, 0, 64, 90
1, 147955, Note_off_c, 0, 44, 39
1, 147956, Control_c, 0, 64, 98
1, 147971, Control_c, 0, 64, 106
1, 147980, Note_on_c, 0, 51, 47
1, 147986, Control_c, 0, 64, 110
1, 148000, Control_c, 0, 64, 110
1, 148021, Note_off_c, 0, 49, 37
1, 148060, Control_c, 0, 64, 110
1, 148076, Control_c, 0, 64, 108
1, 148090, Control_c, 0, 64, 106
1, 148105, Control_c, 0, 64, 102
1, 148120, Control_c, 0, 64, 99
1, 148128, Note_on_c, 0, 82, 74
1, 148130, Note_on_c, 0, 70, 55
1, 148135, Control_c, 0, 64, 94
1, 148146, Note_on_c, 0, 43, 43
1, 148150, Control_c, 0, 64, 87
1, 148164, Control_c, 0, 64, 77
1, 148166, Note_off_c, 0, 80, 61
1, 148179, Control_c, 0, 64, 65
1, 148194, Control_c, 0, 64, 49
1, 148201, Note_off_c, 0, 51, 36
1, 148209, Control_c, 0, 64, 0
1, 148268, Control_c, 0, 64, 19
1, 148282, Note_on_c, 0, 49, 42
1, 148283, Control_c, 0, 64, 43
1, 148298, Control_c, 0, 64, 58
1, 148313, Control_c, 0, 64, 65
1, 148316, Note_off_c, 0, 70, 58
1, 148328, Control_c, 0, 64, 72
1, 148343, Control_c, 0, 64, 82
1, 148358, Control_c, 0, 64, 102
1, 148372, Control_c, 0, 64, 127
1, 148400, Note_off_c, 0, 43, 36
1, 148441, Note_on_c, 0, 51, 48
1, 148535, Note_off_c, 0, 49, 32
1, 148602, Control_c, 0, 64, 97
1, 148604, Note_on_c, 0, 85, 66
1, 148609, Note_on_c, 0, 73, 56
1, 148616, Control_c, 0, 64, 78
1, 148631, Control_c, 0, 64, 66
1, 148632, Note_on_c, 0, 43, 36
1, 148635, Note_off_c, 0, 82, 58
1, 148646, Control_c, 0, 64, 56
1, 148659, Note_off_c, 0, 51, 39
1, 148661, Control_c, 0, 64, 45
1, 148676, Control_c, 0, 64, 44
1, 148690, Control_c, 0, 64, 44
1, 148705, Control_c, 0, 64, 46
1, 148720, Control_c, 0, 64, 50
1, 148735, Control_c, 0, 64, 55
1, 148750, Control_c, 0, 64, 61
1, 148764, Control_c, 0, 64, 65
1, 148771, Note_on_c, 0, 46, 37
1, 148779, Control_c, 0, 64, 72
1, 148794, Control_c, 0, 64, 82
1, 148809, Control_c, 0, 64, 103
1, 148818, Note_off_c, 0, 43, 41
1, 148821, Note_off_c, 0, 85, 63
1, 148823, Control_c, 0, 64, 127
1, 148855, Note_off_c, 0, 73, 61
1, 148923, Note_on_c, 0, 51, 44
1, 148927, Note_off_c, 0, 46, 35
1, 149076, Control_c, 0, 64, 103
1, 149091, Note_on_c, 0, 83, 61
1, 149091, Control_c, 0, 64, 85
1, 149094, Note_on_c, 0, 71, 50
1, 149106, Control_c, 0, 64, 72
1, 149106, Control_c, 0, 67, 10
1, 149108, Note_on_c, 0, 44, 37
1, 149121, Control_c, 0, 64, 61
1, 149121, Control_c, 0, 67, 18
1, 149133, Note_off_c, 0, 51, 23
1, 149136, Control_c, 0, 64, 41
1, 149136, Control_c, 0, 67, 23
1, 149151, Control_c, 0, 64, 0
1, 149151, Control_c, 0, 67, 23
1, 149180, Control_c, 0, 67, 23
1, 149195, Control_c, 0, 67, 20
1, 149210, Control_c, 0, 64, 12
1, 149210, Control_c, 0, 67, 18
1, 149225, Control_c, 0, 64, 30
1, 149225, Control_c, 0, 67, 16
1, 149239, Control_c, 0, 64, 48
1, 149239, Control_c, 0, 67, 14
1, 149250, Note_on_c, 0, 47, 30
1, 149250, Note_off_c, 0, 71, 60
1, 149254, Control_c, 0, 64, 58
1, 149254, Control_c, 0, 67, 13
1, 149276, Control_c, 0, 64, 63
1, 149276, Control_c, 0, 67, 11
1, 149291, Control_c, 0, 64, 66
1, 149291, Control_c, 0, 67, 8
1, 149306, Control_c, 0, 64, 69
1, 149306, Control_c, 0, 67, 0
1, 149321, Control_c, 0, 64, 73
1, 149335, Control_c, 0, 64, 78
1, 149350, Control_c, 0, 64, 87
1, 149365, Control_c, 0, 64, 97
1, 149368, Note_off_c, 0, 44, 34
1, 149380, Control_c, 0, 64, 110
1, 149390, Note_off_c, 0, 47, 48
1, 149395, Control_c, 0, 64, 127
1, 149395, Control_c, 0, 67, 9
1, 149410, Control_c, 0, 67, 11
1, 149416, Note_on_c, 0, 51, 48
1, 149425, Control_c, 0, 67, 12
1, 149439, Control_c, 0, 67, 13
1, 149454, Control_c, 0, 67, 14
1, 149458, Note_off_c, 0, 51, 58
1, 149469, Control_c, 0, 67, 16
1, 149484, Control_c, 0, 67, 18
1, 149499, Control_c, 0, 67, 19
1, 149513, Control_c, 0, 67, 21
1, 149528, Control_c, 0, 67, 23
1, 149543, Control_c, 0, 64, 117
1, 149543, Control_c, 0, 67, 25
1, 149557, Note_off_c, 0, 83, 61
1, 149557, Control_c, 0, 64, 103
1, 149557, Control_c, 0, 67, 27
1, 149572, Control_c, 0, 64, 90
1, 149572, Control_c, 0, 67, 35
1, 149577, Note_on_c, 0, 82, 63
1, 149587, Control_c, 0, 64, 77
1, 149587, Control_c, 0, 67, 53
1, 149595, Note_on_c, 0, 70, 49
1, 149602, Control_c, 0, 64, 66
1, 149602, Control_c, 0, 67, 72
1, 149604, Note_on_c, 0, 49, 39
1, 149617, Control_c, 0, 64, 49
1, 149617, Control_c, 0, 67, 88
1, 149632, Control_c, 0, 64, 19
1, 149632, Control_c, 0, 67, 101
1, 149646, Control_c, 0, 64, 0
1, 149646, Control_c, 0, 67, 110
1, 149662, Control_c, 0, 67, 115
1, 149677, Control_c, 0, 64, 13
1, 149677, Control_c, 0, 67, 115
1, 149692, Control_c, 0, 64, 23
1, 149692, Control_c, 0, 67, 115
1, 149707, Control_c, 0, 64, 36
1, 149707, Control_c, 0, 67, 112
1, 149722, Control_c, 0, 64, 48
1, 149722, Control_c, 0, 67, 110
1, 149729, Note_on_c, 0, 52, 44
1, 149736, Control_c, 0, 64, 57
1, 149736, Control_c, 0, 67, 109
1, 149751, Control_c, 0, 64, 62
1, 149751, Control_c, 0, 67, 108
1, 149753, Note_off_c, 0, 70, 57
1, 149766, Control_c, 0, 64, 65
1, 149766, Control_c, 0, 67, 106
1, 149781, Control_c, 0, 64, 68
1, 149781, Control_c, 0, 67, 104
1, 149796, Control_c, 0, 64, 71
1, 149796, Control_c, 0, 67, 103
1, 149800, Note_off_c, 0, 49, 34
1, 149810, Control_c, 0, 64, 75
1, 149810, Control_c, 0, 67, 102
1, 149824, Note_off_c, 0, 52, 59
1, 149825, Control_c, 0, 64, 80
1, 149825, Control_c, 0, 67, 102
1, 149840, Control_c, 0, 64, 84
1, 149840, Control_c, 0, 67, 101
1, 149855, Control_c, 0, 64, 88
1, 149869, Control_c, 0, 64, 92
1, 149884, Control_c, 0, 64, 94
1, 149885, Note_on_c, 0, 58, 46
1, 149899, Control_c, 0, 64, 96
1, 149899, Control_c, 0, 67, 102
1, 149904, Note_off_c, 0, 82, 55
1, 149914, Control_c, 0, 64, 97
1, 149914, Control_c, 0, 67, 103
1, 149929, Control_c, 0, 64, 97
1, 149929, Control_c, 0, 67, 104
1, 149938, Note_on_c, 0, 80, 66
1, 149944, Control_c, 0, 67, 105
1, 149954, Note_off_c, 0, 58, 47
1, 149958, Control_c, 0, 67, 107
1, 149961, Note_on_c, 0, 68, 50
1, 149973, Control_c, 0, 67, 107
1, 149988, Control_c, 0, 67, 109
1, 149991, Note_off_c, 0, 68, 61
1, 150003, Control_c, 0, 67, 110
1, 150025, Control_c, 0, 64, 96
1, 150025, Control_c, 0, 67, 110
1, 150027, Note_off_c, 0, 80, 64
1, 150040, Control_c, 0, 64, 94
1, 150040, Control_c, 0, 67, 111
1, 150055, Control_c, 0, 64, 92
1, 150055, Control_c, 0, 67, 112
1, 150069, Control_c, 0, 64, 88
1, 150069, Control_c, 0, 67, 113
1, 150084, Note_on_c, 0, 79, 65
1, 150084, Control_c, 0, 64, 81
1, 150084, Control_c, 0, 67, 114
1, 150088, Note_on_c, 0, 67, 54
1, 150099, Control_c, 0, 64, 72
1, 150099, Control_c, 0, 67, 115
1, 150102, Note_on_c, 0, 51, 47
1, 150114, Control_c, 0, 64, 64
1, 150114, Control_c, 0, 67, 116
1, 150129, Control_c, 0, 64, 50
1, 150129, Control_c, 0, 67, 117
1, 150143, Control_c, 0, 64, 9
1, 150143, Control_c, 0, 67, 119
1, 150158, Control_c, 0, 64, 0
1, 150158, Control_c, 0, 67, 119
1, 150173, Control_c, 0, 67, 124
1, 150188, Control_c, 0, 67, 125
1, 150248, Control_c, 0, 64, 31
1, 150248, Control_c, 0, 67, 124
1, 150248, Note_on_c, 0, 58, 43
1, 150262, Control_c, 0, 64, 46
1, 150262, Control_c, 0, 67, 123
1, 150277, Control_c, 0, 64, 57
1, 150277, Control_c, 0, 67, 122
1, 150292, Control_c, 0, 64, 62
1, 150292, Control_c, 0, 67, 122
1, 150307, Control_c, 0, 64, 65
1, 150307, Control_c, 0, 67, 121
1, 150315, Note_off_c, 0, 79, 56
1, 150322, Control_c, 0, 64, 67
1, 150322, Control_c, 0, 67, 120
1, 150336, Control_c, 0, 64, 70
1, 150336, Control_c, 0, 67, 120
1, 150351, Control_c, 0, 64, 73
1, 150351, Control_c, 0, 67, 119
1, 150355, Note_off_c, 0, 67, 40
1, 150366, Control_c, 0, 64, 76
1, 150381, Control_c, 0, 64, 78
1, 150395, Control_c, 0, 64, 80
1, 150409, Note_off_c, 0, 51, 32
1, 150410, Note_on_c, 0, 61, 41
1, 150410, Control_c, 0, 64, 82
1, 150425, Control_c, 0, 64, 83
1, 150440, Control_c, 0, 67, 119
1, 150529, Note_off_c, 0, 58, 28
1, 150530, Control_c, 0, 64, 83
1, 150545, Control_c, 0, 64, 82
1, 150559, Control_c, 0, 64, 81
1, 150574, Control_c, 0, 64, 79
1, 150576, Note_on_c, 0, 79, 58
1, 150589, Control_c, 0, 64, 75
1, 150594, Note_on_c, 0, 67, 42
1, 150595, Note_on_c, 0, 51, 39
1, 150604, Control_c, 0, 64, 68
1, 150616, Note_off_c, 0, 61, 32
1, 150618, Control_c, 0, 64, 62
1, 150633, Control_c, 0, 64, 51
1, 150648, Control_c, 0, 64, 40
1, 150678, Control_c, 0, 64, 43
1, 150692, Control_c, 0, 64, 46
1, 150707, Control_c, 0, 64, 50
1, 150707, Control_c, 0, 67, 117
1, 150722, Control_c, 0, 64, 55
1, 150737, Control_c, 0, 64, 60
1, 150737, Control_c, 0, 67, 117
1, 150748, Note_on_c, 0, 58, 39
1, 150752, Control_c, 0, 64, 62
1, 150754, Note_off_c, 0, 67, 59
1, 150774, Control_c, 0, 64, 64
1, 150774, Control_c, 0, 67, 116
1, 150789, Control_c, 0, 64, 66
1, 150804, Control_c, 0, 64, 67
1, 150804, Control_c, 0, 67, 115
1, 150818, Control_c, 0, 64, 70
1, 150833, Control_c, 0, 64, 73
1, 150848, Control_c, 0, 64, 77
1, 150863, Control_c, 0, 64, 81
1, 150863, Control_c, 0, 67, 115
1, 150878, Control_c, 0, 64, 86
1, 150879, Note_off_c, 0, 51, 31
1, 150892, Control_c, 0, 64, 90
1, 150907, Control_c, 0, 64, 92
1, 150911, Note_on_c, 0, 61, 37
1, 150922, Control_c, 0, 64, 94
1, 150937, Control_c, 0, 64, 94
1, 150952, Control_c, 0, 64, 95
1, 150952, Control_c, 0, 67, 114
1, 150963, Note_off_c, 0, 79, 39
1, 151018, Note_off_c, 0, 58, 36
1, 151026, Control_c, 0, 64, 94
1, 151041, Control_c, 0, 64, 92
1, 151056, Control_c, 0, 64, 89
1, 151071, Control_c, 0, 64, 84
1, 151085, Control_c, 0, 64, 77
1, 151085, Control_c, 0, 67, 114
1, 151093, Note_on_c, 0, 80, 50
1, 151098, Note_on_c, 0, 51, 38
1, 151100, Note_on_c, 0, 68, 45
1, 151100, Control_c, 0, 64, 68
1, 151115, Note_off_c, 0, 61, 39
1, 151115, Control_c, 0, 64, 58
1, 151130, Control_c, 0, 64, 47
1, 151145, Control_c, 0, 64, 44
1, 151160, Control_c, 0, 64, 46
1, 151175, Control_c, 0, 64, 49
1, 151190, Control_c, 0, 64, 54
1, 151204, Control_c, 0, 64, 59
1, 151204, Control_c, 0, 67, 113
1, 151219, Control_c, 0, 64, 62
1, 151233, Note_off_c, 0, 68, 53
1, 151234, Control_c, 0, 64, 64
1, 151234, Control_c, 0, 67, 112
1, 151249, Control_c, 0, 64, 65
1, 151249, Note_off_c, 0, 80, 53
1, 151254, Note_on_c, 0, 58, 34
1, 151264, Control_c, 0, 64, 67
1, 151264, Control_c, 0, 67, 112
1, 151279, Control_c, 0, 64, 70
1, 151279, Control_c, 0, 67, 111
1, 151294, Control_c, 0, 64, 74
1, 151309, Control_c, 0, 64, 78
1, 151309, Control_c, 0, 67, 110
1, 151324, Control_c, 0, 64, 83
1, 151335, Note_on_c, 0, 79, 57
1, 151339, Control_c, 0, 64, 88
1, 151352, Note_on_c, 0, 67, 42
1, 151354, Control_c, 0, 64, 93
1, 151368, Control_c, 0, 64, 99
1, 151368, Control_c, 0, 67, 110
1, 151383, Control_c, 0, 64, 104
1, 151398, Control_c, 0, 64, 108
1, 151402, Note_off_c, 0, 51, 34
1, 151413, Control_c, 0, 64, 111
1, 151417, Note_off_c, 0, 67, 53
1, 151428, Control_c, 0, 64, 113
1, 151442, Control_c, 0, 64, 116
1, 151446, Note_on_c, 0, 61, 38
1, 151477, Note_off_c, 0, 79, 54
1, 151553, Control_c, 0, 64, 113
1, 151566, Note_off_c, 0, 58, 33
1, 151568, Control_c, 0, 64, 110
1, 151583, Control_c, 0, 64, 105
1, 151598, Control_c, 0, 64, 99
1, 151613, Control_c, 0, 64, 92
1, 151628, Control_c, 0, 64, 83
1, 151631, Note_on_c, 0, 77, 55
1, 151640, Note_on_c, 0, 65, 46
1, 151642, Control_c, 0, 64, 73
1, 151645, Note_on_c, 0, 51, 45
1, 151657, Control_c, 0, 64, 64
1, 151672, Control_c, 0, 64, 53
1, 151678, Note_off_c, 0, 61, 35
1, 151687, Control_c, 0, 64, 46
1, 151702, Control_c, 0, 64, 46
1, 151716, Control_c, 0, 64, 49
1, 151731, Control_c, 0, 64, 51
1, 151746, Control_c, 0, 64, 55
1, 151759, Control_c, 0, 64, 59
1, 151760, Note_off_c, 0, 65, 56
1, 151774, Control_c, 0, 64, 62
1, 151789, Control_c, 0, 64, 64
1, 151804, Control_c, 0, 64, 66
1, 151810, Note_on_c, 0, 58, 34
1, 151819, Control_c, 0, 64, 69
1, 151833, Control_c, 0, 64, 72
1, 151848, Control_c, 0, 64, 77
1, 151853, Note_off_c, 0, 77, 53
1, 151863, Control_c, 0, 64, 82
1, 151878, Control_c, 0, 64, 88
1, 151878, Control_c, 0, 67, 110
1, 151893, Control_c, 0, 64, 93
1, 151893, Control_c, 0, 67, 111
1, 151903, Note_off_c, 0, 51, 27
1, 151907, Control_c, 0, 64, 97
1, 151907, Control_c, 0, 67, 112
1, 151915, Note_on_c, 0, 79, 54
1, 151922, Control_c, 0, 64, 99
1, 151922, Control_c, 0, 67, 112
1, 151937, Control_c, 0, 64, 101
1, 151937, Control_c, 0, 67, 113
1, 151944, Note_on_c, 0, 67, 41
1, 151952, Control_c, 0, 64, 101
1, 151952, Control_c, 0, 67, 114
1, 151967, Control_c, 0, 64, 102
1, 151967, Control_c, 0, 67, 114
1, 151981, Control_c, 0, 67, 115
1, 151994, Note_off_c, 0, 67, 59
1, 151996, Control_c, 0, 67, 116
1, 152011, Control_c, 0, 67, 117
1, 152026, Control_c, 0, 64, 103
1, 152026, Control_c, 0, 67, 119
1, 152027, Note_off_c, 0, 58, 34
1, 152028, Note_off_c, 0, 79, 59
1, 152040, Control_c, 0, 64, 104
1, 152040, Control_c, 0, 67, 120
1, 152049, Note_on_c, 0, 61, 33
1, 152056, Control_c, 0, 67, 121
1, 152071, Control_c, 0, 64, 105
1, 152071, Control_c, 0, 67, 122
1, 152086, Control_c, 0, 64, 106
1, 152086, Control_c, 0, 67, 124
1, 152101, Control_c, 0, 64, 107
1, 152101, Control_c, 0, 67, 125
1, 152116, Control_c, 0, 64, 107
1, 152116, Control_c, 0, 67, 126
1, 152123, Note_off_c, 0, 61, 42
1, 152130, Control_c, 0, 64, 109
1, 152130, Control_c, 0, 67, 127
1, 152145, Control_c, 0, 64, 110
1, 152286, Control_c, 0, 64, 111
1, 152375, Control_c, 0, 64, 109
1, 152390, Control_c, 0, 64, 107
1, 152405, Control_c, 0, 64, 105
1, 152419, Control_c, 0, 64, 102
1, 152434, Control_c, 0, 64, 99
1, 152449, Control_c, 0, 64, 96
1, 152463, Control_c, 0, 64, 92
1, 152478, Control_c, 0, 64, 84
1, 152480, Note_on_c, 0, 80, 48
1, 152493, Control_c, 0, 64, 74
1, 152498, Note_on_c, 0, 44, 32
1, 152498, Note_on_c, 0, 68, 41
1, 152508, Control_c, 0, 64, 63
1, 152523, Control_c, 0, 64, 49
1, 152537, Control_c, 0, 64, 25
1, 152552, Control_c, 0, 64, 16
1, 152582, Control_c, 0, 64, 25
1, 152597, Control_c, 0, 64, 37
1, 152611, Control_c, 0, 64, 48
1, 152626, Control_c, 0, 64, 57
1, 152641, Control_c, 0, 64, 62
1, 152656, Control_c, 0, 64, 66
1, 152671, Control_c, 0, 64, 69
1, 152677, Note_off_c, 0, 44, 57
1, 152686, Control_c, 0, 64, 76
1, 152701, Control_c, 0, 64, 83
1, 152716, Control_c, 0, 64, 93
1, 152730, Control_c, 0, 64, 110
1, 152745, Control_c, 0, 64, 127
1, 153010, Note_on_c, 0, 56, 24
1, 153010, Note_on_c, 0, 60, 30
1, 153017, Note_on_c, 0, 51, 27
1, 153059, Note_off_c, 0, 60, 51
1, 153076, Note_off_c, 0, 51, 45
1, 153091, Note_off_c, 0, 56, 39
1, 153234, Note_on_c, 0, 56, 29
1, 153235, Note_on_c, 0, 60, 21
1, 153237, Note_on_c, 0, 51, 23
1, 153283, Note_off_c, 0, 60, 46
1, 153288, Note_off_c, 0, 51, 46
1, 153303, Note_off_c, 0, 56, 41
1, 153331, Note_off_c, 0, 80, 43
1, 153367, Note_off_c, 0, 68, 34
1, 153407, Note_on_c, 0, 56, 21
1, 153431, Note_on_c, 0, 60, 23
1, 153440, Note_on_c, 0, 51, 4
1, 153473, Note_off_c, 0, 60, 48
1, 153541, Note_off_c, 0, 56, 0
1, 153549, Note_off_c, 0, 51, 0
1, 153562, Note_on_c, 0, 56, 14
1, 153567, Note_on_c, 0, 51, 25
1, 153582, Note_on_c, 0, 60, 34
1, 153622, Note_off_c, 0, 60, 50
1, 153691, Note_off_c, 0, 51, 0
1, 153694, Note_off_c, 0, 56, 0
1, 153710, Note_on_c, 0, 51, 23
1, 153714, Note_on_c, 0, 56, 21
1, 153731, Note_on_c, 0, 60, 42
1, 153781, Note_off_c, 0, 60, 57
1, 153851, Note_off_c, 0, 56, 0
1, 153854, Note_off_c, 0, 51, 0
1, 153874, Note_on_c, 0, 56, 13
1, 153878, Note_on_c, 0, 51, 11
1, 153881, Note_on_c, 0, 73, 58
1, 153903, Note_on_c, 0, 60, 31
1, 153936, Note_off_c, 0, 60, 51
1, 153953, Note_off_c, 0, 51, 40
1, 154001, Note_off_c, 0, 56, 0
1, 154020, Note_on_c, 0, 51, 30
1, 154022, Note_on_c, 0, 56, 15
1, 154050, Note_on_c, 0, 60, 36
1, 154081, Note_off_c, 0, 60, 53
1, 154087, Note_off_c, 0, 51, 50
1, 154093, Note_on_c, 0, 72, 66
1, 154100, Note_off_c, 0, 56, 40
1, 154138, Note_off_c, 0, 73, 58
1, 154191, Note_on_c, 0, 51, 33
1, 154191, Note_on_c, 0, 60, 46
1, 154194, Note_on_c, 0, 56, 38
1, 154245, Note_off_c, 0, 60, 55
1, 154254, Note_off_c, 0, 51, 54
1, 154255, Note_off_c, 0, 56, 54
1, 154325, Note_on_c, 0, 71, 72
1, 154364, Note_on_c, 0, 56, 32
1, 154370, Note_on_c, 0, 51, 31
1, 154372, Note_off_c, 0, 72, 61
1, 154379, Note_on_c, 0, 60, 35
1, 154409, Note_off_c, 0, 60, 53
1, 154410, Note_off_c, 0, 56, 53
1, 154412, Note_off_c, 0, 51, 49
1, 154512, Note_on_c, 0, 60, 49
1, 154521, Note_off_c, 0, 71, 57
1, 154527, Note_on_c, 0, 51, 34
1, 154548, Note_on_c, 0, 72, 71
1, 154548, Note_off_c, 0, 60, 59
1, 154566, Note_off_c, 0, 51, 49
1, 154573, Poly_aftertouch_c, 0, 56, 127
1, 154599, Note_off_c, 0, 72, 61
1, 154646, Poly_aftertouch_c, 0, 56, 0
1, 154660, Note_on_c, 0, 60, 42
1, 154667, Note_on_c, 0, 56, 18
1, 154680, Note_on_c, 0, 51, 40
1, 154687, Note_off_c, 0, 60, 63
1, 154711, Note_off_c, 0, 51, 58
1, 154716, Note_off_c, 0, 56, 42
1, 154717, Note_on_c, 0, 72, 78
1, 154903, Control_c, 0, 64, 104
1, 154918, Control_c, 0, 64, 80
1, 154932, Control_c, 0, 64, 63
1, 154940, Note_on_c, 0, 37, 53
1, 154947, Control_c, 0, 64, 40
1, 154962, Control_c, 0, 64, 15
1, 154977, Control_c, 0, 64, 24
1, 154992, Control_c, 0, 64, 40
1, 155006, Control_c, 0, 64, 56
1, 155021, Control_c, 0, 64, 65
1, 155031, Note_off_c, 0, 37, 61
1, 155036, Control_c, 0, 64, 70
1, 155047, Note_on_c, 0, 77, 68
1, 155050, Control_c, 0, 64, 77
1, 155065, Control_c, 0, 64, 87
1, 155080, Control_c, 0, 64, 101
1, 155095, Control_c, 0, 64, 127
1, 155255, Note_on_c, 0, 53, 51
1, 155259, Note_on_c, 0, 60, 44
1, 155291, Note_off_c, 0, 60, 60
1, 155312, Note_on_c, 0, 49, 3
1, 155314, Note_off_c, 0, 53, 54
1, 155361, Note_off_c, 0, 72, 23
1, 155365, Note_off_c, 0, 49, 0
1, 155385, Note_on_c, 0, 53, 48
1, 155402, Poly_aftertouch_c, 0, 49, 127
1, 155443, Note_off_c, 0, 53, 55
1, 155459, Control_c, 0, 64, 117
1, 155464, Poly_aftertouch_c, 0, 60, 0
1, 155474, Control_c, 0, 64, 92
1, 155488, Control_c, 0, 64, 76
1, 155503, Control_c, 0, 64, 66
1, 155504, Poly_aftertouch_c, 0, 49, 0
1, 155518, Control_c, 0, 64, 61
1, 155523, Note_on_c, 0, 49, 19
1, 155524, Note_on_c, 0, 53, 34
1, 155533, Control_c, 0, 64, 60
1, 155539, Note_on_c, 0, 57, 48
1, 155548, Control_c, 0, 64, 62
1, 155563, Control_c, 0, 64, 63
1, 155577, Control_c, 0, 64, 65
1, 155578, Note_off_c, 0, 57, 62
1, 155580, Note_off_c, 0, 53, 55
1, 155592, Control_c, 0, 64, 66
1, 155607, Control_c, 0, 64, 68
1, 155622, Control_c, 0, 64, 69
1, 155637, Control_c, 0, 64, 71
1, 155643, Note_off_c, 0, 49, 0
1, 155652, Control_c, 0, 64, 74
1, 155665, Note_on_c, 0, 49, 9
1, 155667, Control_c, 0, 64, 78
1, 155678, Note_on_c, 0, 57, 48
1, 155681, Control_c, 0, 64, 83
1, 155682, Note_on_c, 0, 53, 38
1, 155696, Control_c, 0, 64, 90
1, 155706, Note_off_c, 0, 57, 57
1, 155711, Control_c, 0, 64, 97
1, 155722, Note_off_c, 0, 53, 50
1, 155726, Control_c, 0, 64, 103
1, 155726, Note_off_c, 0, 49, 46
1, 155741, Control_c, 0, 64, 107
1, 155811, Note_on_c, 0, 57, 56
1, 155826, Note_on_c, 0, 49, 28
1, 155848, Note_off_c, 0, 57, 64
1, 155871, Note_off_c, 0, 49, 48
1, 155873, Control_c, 0, 64, 106
1, 155882, Poly_aftertouch_c, 0, 53, 127
1, 155888, Control_c, 0, 64, 105
1, 155903, Control_c, 0, 64, 103
1, 155918, Poly_aftertouch_c, 0, 53, 0
1, 155918, Control_c, 0, 64, 99
1, 155933, Control_c, 0, 64, 92
1, 155947, Control_c, 0, 64, 81
1, 155962, Control_c, 0, 64, 71
1, 155967, Note_on_c, 0, 72, 57
1, 155977, Control_c, 0, 64, 63
1, 155992, Note_on_c, 0, 58, 46
1, 155992, Control_c, 0, 64, 56
1, 156007, Note_on_c, 0, 49, 27
1, 156008, Note_on_c, 0, 53, 39
1, 156008, Note_off_c, 0, 77, 39
1, 156014, Control_c, 0, 64, 53
1, 156029, Control_c, 0, 64, 55
1, 156044, Control_c, 0, 64, 58
1, 156057, Note_off_c, 0, 49, 47
1, 156060, Control_c, 0, 64, 61
1, 156061, Note_off_c, 0, 58, 56
1, 156069, Note_off_c, 0, 53, 51
1, 156075, Control_c, 0, 64, 63
1, 156090, Control_c, 0, 64, 64
1, 156104, Control_c, 0, 64, 66
1, 156104, Control_c, 0, 67, 123
1, 156119, Control_c, 0, 64, 68
1, 156119, Control_c, 0, 67, 108
1, 156129, Note_on_c, 0, 53, 35
1, 156134, Control_c, 0, 64, 71
1, 156134, Control_c, 0, 67, 94
1, 156138, Note_on_c, 0, 58, 41
1, 156146, Note_on_c, 0, 49, 26
1, 156149, Control_c, 0, 64, 75
1, 156149, Control_c, 0, 67, 80
1, 156164, Control_c, 0, 64, 80
1, 156164, Control_c, 0, 67, 72
1, 156178, Control_c, 0, 64, 86
1, 156178, Control_c, 0, 67, 64
1, 156189, Note_off_c, 0, 58, 56
1, 156192, Note_off_c, 0, 49, 49
1, 156193, Control_c, 0, 64, 91
1, 156193, Control_c, 0, 67, 56
1, 156200, Note_off_c, 0, 53, 59
1, 156203, Note_on_c, 0, 70, 74
1, 156208, Control_c, 0, 64, 96
1, 156208, Control_c, 0, 67, 46
1, 156223, Control_c, 0, 64, 99
1, 156223, Control_c, 0, 67, 37
1, 156238, Control_c, 0, 64, 99
1, 156238, Control_c, 0, 67, 27
1, 156252, Control_c, 0, 67, 16
1, 156265, Note_off_c, 0, 72, 55
1, 156267, Control_c, 0, 67, 8
1, 156282, Control_c, 0, 64, 100
1, 156282, Control_c, 0, 67, 0
1, 156297, Note_on_c, 0, 53, 41
1, 156297, Note_on_c, 0, 58, 49
1, 156297, Control_c, 0, 64, 100
1, 156310, Note_on_c, 0, 49, 39
1, 156326, Control_c, 0, 64, 101
1, 156341, Control_c, 0, 64, 101
1, 156346, Note_off_c, 0, 58, 58
1, 156347, Note_off_c, 0, 53, 57
1, 156349, Note_off_c, 0, 49, 53
1, 156356, Control_c, 0, 64, 102
1, 156371, Control_c, 0, 64, 102
1, 156385, Control_c, 0, 64, 103
1, 156400, Control_c, 0, 64, 104
1, 156415, Control_c, 0, 64, 105
1, 156430, Control_c, 0, 64, 107
1, 156445, Control_c, 0, 64, 108
1, 156447, Note_on_c, 0, 69, 71
1, 156449, Note_on_c, 0, 58, 50
1, 156457, Note_on_c, 0, 53, 40
1, 156460, Control_c, 0, 64, 112
1, 156462, Note_on_c, 0, 49, 29
1, 156475, Control_c, 0, 64, 121
1, 156482, Note_off_c, 0, 70, 58
1, 156490, Control_c, 0, 64, 127
1, 156490, Note_off_c, 0, 53, 57
1, 156490, Note_off_c, 0, 58, 59
1, 156499, Note_off_c, 0, 49, 52
1, 156598, Note_on_c, 0, 53, 45
1, 156598, Note_on_c, 0, 58, 48
1, 156605, Note_off_c, 0, 69, 58
1, 156631, Note_off_c, 0, 58, 57
1, 156638, Note_off_c, 0, 53, 57
1, 156639, Note_on_c, 0, 70, 75
1, 156681, Note_off_c, 0, 70, 59
1, 156728, Note_on_c, 0, 49, 24
1, 156734, Note_on_c, 0, 58, 48
1, 156764, Note_off_c, 0, 58, 62
1, 156776, Note_off_c, 0, 49, 61
1, 156788, Note_on_c, 0, 70, 75
1, 156927, Control_c, 0, 64, 107
1, 156942, Control_c, 0, 64, 84
1, 156957, Control_c, 0, 64, 68
1, 156972, Control_c, 0, 64, 49
1, 156976, Note_on_c, 0, 36, 56
1, 156987, Control_c, 0, 64, 16
1, 157001, Control_c, 0, 64, 0
1, 157016, Control_c, 0, 64, 22
1, 157031, Control_c, 0, 64, 40
1, 157046, Control_c, 0, 64, 56
1, 157059, Note_off_c, 0, 36, 63
1, 157060, Control_c, 0, 64, 65
1, 157065, Note_on_c, 0, 75, 67
1, 157075, Control_c, 0, 64, 71
1, 157090, Control_c, 0, 64, 81
1, 157105, Control_c, 0, 64, 95
1, 157120, Control_c, 0, 64, 127
1, 157141, Note_off_c, 0, 70, 56
1, 157253, Note_on_c, 0, 58, 50
1, 157270, Note_on_c, 0, 51, 28
1, 157284, Note_off_c, 0, 58, 59
1, 157317, Poly_aftertouch_c, 0, 48, 127
1, 157319, Note_off_c, 0, 51, 44
1, 157388, Note_on_c, 0, 51, 38
1, 157409, Note_on_c, 0, 57, 29
1, 157419, Note_off_c, 0, 51, 59
1, 157445, Note_off_c, 0, 57, 48
1, 157446, Poly_aftertouch_c, 0, 48, 0
1, 157475, Control_c, 0, 64, 105
1, 157490, Control_c, 0, 64, 82
1, 157512, Control_c, 0, 64, 67
1, 157521, Note_on_c, 0, 51, 48
1, 157527, Control_c, 0, 64, 54
1, 157542, Control_c, 0, 64, 44
1, 157556, Note_on_c, 0, 48, 20
1, 157557, Control_c, 0, 64, 48
1, 157566, Note_off_c, 0, 51, 61
1, 157571, Note_on_c, 0, 55, 27
1, 157572, Control_c, 0, 64, 53
1, 157587, Control_c, 0, 64, 58
1, 157588, Note_off_c, 0, 48, 47
1, 157601, Control_c, 0, 64, 62
1, 157615, Note_off_c, 0, 55, 39
1, 157616, Control_c, 0, 64, 65
1, 157631, Control_c, 0, 64, 68
1, 157646, Control_c, 0, 64, 71
1, 157661, Control_c, 0, 64, 75
1, 157662, Note_on_c, 0, 55, 34
1, 157676, Control_c, 0, 64, 81
1, 157688, Note_on_c, 0, 48, 19
1, 157691, Control_c, 0, 64, 89
1, 157698, Note_on_c, 0, 51, 18
1, 157701, Note_off_c, 0, 55, 55
1, 157706, Control_c, 0, 64, 101
1, 157721, Control_c, 0, 64, 127
1, 157728, Note_off_c, 0, 48, 42
1, 157731, Note_off_c, 0, 51, 0
1, 157782, Poly_aftertouch_c, 0, 51, 0
1, 157799, Note_on_c, 0, 51, 30
1, 157801, Note_on_c, 0, 55, 53
1, 157825, Note_on_c, 0, 48, 12
1, 157833, Note_off_c, 0, 55, 64
1, 157846, Note_off_c, 0, 51, 63
1, 157869, Note_off_c, 0, 48, 38
1, 157927, Control_c, 0, 64, 103
1, 157942, Control_c, 0, 64, 86
1, 157950, Note_on_c, 0, 73, 63
1, 157956, Control_c, 0, 64, 72
1, 157971, Control_c, 0, 64, 63
1, 157973, Note_on_c, 0, 56, 51
1, 157973, Note_off_c, 0, 75, 48
1, 157977, Note_on_c, 0, 51, 37
1, 157985, Note_on_c, 0, 48, 42
1, 157986, Control_c, 0, 64, 54
1, 158001, Control_c, 0, 64, 55
1, 158016, Control_c, 0, 64, 58
1, 158025, Note_off_c, 0, 48, 56
1, 158029, Note_off_c, 0, 51, 59
1, 158029, Note_off_c, 0, 56, 60
1, 158031, Control_c, 0, 64, 61
1, 158046, Control_c, 0, 64, 64
1, 158061, Control_c, 0, 64, 66
1, 158075, Control_c, 0, 64, 69
1, 158090, Control_c, 0, 64, 74
1, 158105, Control_c, 0, 64, 79
1, 158118, Note_on_c, 0, 56, 49
1, 158120, Control_c, 0, 64, 85
1, 158121, Note_on_c, 0, 51, 48
1, 158135, Control_c, 0, 64, 93
1, 158147, Note_on_c, 0, 48, 18
1, 158149, Control_c, 0, 64, 106
1, 158164, Control_c, 0, 64, 127
1, 158167, Note_off_c, 0, 56, 58
1, 158174, Note_on_c, 0, 72, 72
1, 158175, Note_off_c, 0, 51, 56
1, 158192, Note_off_c, 0, 48, 42
1, 158248, Note_off_c, 0, 73, 56
1, 158281, Note_on_c, 0, 56, 55
1, 158285, Note_on_c, 0, 51, 49
1, 158293, Note_on_c, 0, 48, 40
1, 158323, Note_off_c, 0, 56, 60
1, 158328, Note_off_c, 0, 51, 61
1, 158331, Note_off_c, 0, 48, 60
1, 158430, Note_on_c, 0, 51, 56
1, 158432, Note_on_c, 0, 56, 54
1, 158436, Note_on_c, 0, 48, 47
1, 158440, Note_on_c, 0, 70, 81
1, 158478, Note_off_c, 0, 48, 59
1, 158478, Note_off_c, 0, 51, 57
1, 158485, Note_off_c, 0, 56, 56
1, 158515, Note_off_c, 0, 72, 57
1, 158585, Note_on_c, 0, 48, 45
1, 158588, Note_on_c, 0, 56, 62
1, 158591, Note_on_c, 0, 51, 62
1, 158622, Note_off_c, 0, 48, 53
1, 158636, Note_off_c, 0, 56, 58
1, 158641, Note_off_c, 0, 51, 50
1, 158672, Note_on_c, 0, 68, 79
1, 158722, Note_off_c, 0, 70, 62
1, 158758, Note_on_c, 0, 56, 66
1, 158761, Note_on_c, 0, 48, 60
1, 158772, Note_on_c, 0, 51, 21
1, 158788, Note_off_c, 0, 56, 67
1, 158806, Note_off_c, 0, 48, 63
1, 158809, Note_off_c, 0, 51, 43
1, 158863, Note_off_c, 0, 68, 58
1, 158928, Control_c, 0, 64, 100
1, 158943, Control_c, 0, 64, 76
1, 158952, Note_on_c, 0, 75, 72
1, 158958, Control_c, 0, 64, 61
1, 158965, Note_on_c, 0, 67, 58
1, 158971, Note_on_c, 0, 37, 56
1, 158973, Control_c, 0, 64, 32
1, 158988, Control_c, 0, 64, 0
1, 159010, Control_c, 0, 64, 16
1, 159025, Control_c, 0, 64, 44
1, 159038, Note_off_c, 0, 37, 60
1, 159040, Control_c, 0, 64, 60
1, 159054, Control_c, 0, 64, 67
1, 159069, Control_c, 0, 64, 76
1, 159084, Control_c, 0, 64, 92
1, 159098, Control_c, 0, 64, 127
1, 159150, Note_off_c, 0, 75, 61
1, 159158, Note_on_c, 0, 53, 59
1, 159166, Note_on_c, 0, 49, 40
1, 159199, Note_on_c, 0, 73, 70
1, 159202, Note_off_c, 0, 49, 53
1, 159213, Note_off_c, 0, 53, 55
1, 159217, Note_on_c, 0, 65, 61
1, 159220, Note_off_c, 0, 67, 61
1, 159274, Note_off_c, 0, 73, 64
1, 159329, Note_on_c, 0, 49, 45
1, 159333, Note_on_c, 0, 53, 47
1, 159374, Note_off_c, 0, 49, 60
1, 159384, Note_off_c, 0, 53, 57
1, 159411, Control_c, 0, 64, 114
1, 159426, Control_c, 0, 64, 85
1, 159441, Control_c, 0, 64, 67
1, 159455, Note_on_c, 0, 72, 62
1, 159456, Control_c, 0, 64, 49
1, 159470, Control_c, 0, 64, 0
1, 159471, Note_on_c, 0, 63, 48
1, 159487, Note_off_c, 0, 65, 34
1, 159488, Note_on_c, 0, 49, 41
1, 159500, Control_c, 0, 64, 18
1, 159505, Note_on_c, 0, 53, 41
1, 159514, Control_c, 0, 64, 38
1, 159529, Note_off_c, 0, 49, 59
1, 159529, Control_c, 0, 64, 52
1, 159536, Note_off_c, 0, 63, 62
1, 159544, Control_c, 0, 64, 59
1, 159548, Note_off_c, 0, 53, 55
1, 159559, Control_c, 0, 64, 63
1, 159574, Control_c, 0, 64, 66
1, 159589, Control_c, 0, 64, 70
1, 159603, Control_c, 0, 64, 74
1, 159618, Control_c, 0, 64, 79
1, 159633, Control_c, 0, 64, 85
1, 159638, Note_on_c, 0, 53, 37
1, 159647, Note_on_c, 0, 49, 41
1, 159647, Control_c, 0, 64, 92
1, 159662, Control_c, 0, 64, 99
1, 159675, Note_on_c, 0, 70, 67
1, 159677, Control_c, 0, 64, 104
1, 159679, Note_on_c, 0, 61, 50
1, 159683, Note_off_c, 0, 49, 53
1, 159683, Note_off_c, 0, 72, 57
1, 159690, Note_off_c, 0, 53, 55
1, 159692, Control_c, 0, 64, 105
1, 159707, Control_c, 0, 64, 105
1, 159721, Control_c, 0, 64, 106
1, 159786, Note_off_c, 0, 61, 54
1, 159810, Note_on_c, 0, 49, 49
1, 159815, Note_on_c, 0, 53, 43
1, 159818, Control_c, 0, 64, 104
1, 159833, Control_c, 0, 64, 103
1, 159833, Control_c, 0, 67, 19
1, 159843, Note_off_c, 0, 49, 57
1, 159848, Control_c, 0, 64, 101
1, 159848, Control_c, 0, 67, 37
1, 159855, Note_off_c, 0, 53, 57
1, 159863, Control_c, 0, 64, 97
1, 159863, Control_c, 0, 67, 51
1, 159878, Control_c, 0, 64, 93
1, 159878, Control_c, 0, 67, 63
1, 159885, Note_off_c, 0, 70, 48
1, 159893, Control_c, 0, 64, 86
1, 159893, Control_c, 0, 67, 73
1, 159908, Control_c, 0, 64, 73
1, 159908, Control_c, 0, 67, 80
1, 159922, Control_c, 0, 64, 61
1, 159922, Control_c, 0, 67, 82
1, 159937, Control_c, 0, 64, 30
1, 159952, Control_c, 0, 64, 0
1, 159959, Note_on_c, 0, 68, 58
1, 159967, Control_c, 0, 67, 81
1, 159968, Note_on_c, 0, 60, 44
1, 159982, Control_c, 0, 67, 80
1, 159984, Note_on_c, 0, 39, 48
1, 159996, Control_c, 0, 64, 29
1, 159996, Control_c, 0, 67, 78
1, 160011, Control_c, 0, 64, 49
1, 160011, Control_c, 0, 67, 77
1, 160026, Control_c, 0, 64, 60
1, 160026, Control_c, 0, 67, 76
1, 160039, Note_off_c, 0, 39, 63
1, 160041, Control_c, 0, 64, 65
1, 160041, Control_c, 0, 67, 75
1, 160057, Control_c, 0, 64, 69
1, 160057, Control_c, 0, 67, 75
1, 160072, Control_c, 0, 64, 75
1, 160072, Control_c, 0, 67, 73
1, 160087, Control_c, 0, 64, 80
1, 160087, Control_c, 0, 67, 72
1, 160101, Control_c, 0, 64, 87
1, 160101, Control_c, 0, 67, 71
1, 160116, Control_c, 0, 64, 94
1, 160131, Control_c, 0, 64, 103
1, 160131, Control_c, 0, 67, 70
1, 160145, Note_off_c, 0, 60, 58
1, 160145, Control_c, 0, 64, 121
1, 160158, Note_on_c, 0, 56, 47
1, 160160, Control_c, 0, 64, 127
1, 160167, Note_on_c, 0, 51, 46
1, 160201, Note_off_c, 0, 51, 54
1, 160206, Note_off_c, 0, 56, 60
1, 160225, Note_off_c, 0, 68, 61
1, 160303, Note_on_c, 0, 51, 57
1, 160320, Note_on_c, 0, 56, 46
1, 160338, Note_off_c, 0, 51, 65
1, 160350, Note_off_c, 0, 56, 59
1, 160427, Control_c, 0, 64, 114
1, 160442, Control_c, 0, 64, 94
1, 160457, Control_c, 0, 64, 76
1, 160471, Control_c, 0, 64, 63
1, 160481, Note_on_c, 0, 72, 60
1, 160486, Control_c, 0, 64, 45
1, 160507, Note_on_c, 0, 63, 44
1, 160508, Control_c, 0, 64, 33
1, 160516, Note_on_c, 0, 39, 47
1, 160523, Control_c, 0, 64, 40
1, 160523, Control_c, 0, 67, 72
1, 160538, Control_c, 0, 64, 49
1, 160538, Control_c, 0, 67, 73
1, 160553, Control_c, 0, 64, 58
1, 160553, Control_c, 0, 67, 74
1, 160567, Control_c, 0, 64, 63
1, 160567, Control_c, 0, 67, 75
1, 160573, Note_off_c, 0, 39, 61
1, 160582, Control_c, 0, 64, 66
1, 160582, Control_c, 0, 67, 76
1, 160597, Control_c, 0, 64, 68
1, 160597, Control_c, 0, 67, 77
1, 160612, Control_c, 0, 64, 72
1, 160612, Control_c, 0, 67, 77
1, 160627, Control_c, 0, 64, 76
1, 160627, Control_c, 0, 67, 78
1, 160642, Control_c, 0, 64, 81
1, 160642, Control_c, 0, 67, 80
1, 160654, Note_off_c, 0, 72, 54
1, 160657, Control_c, 0, 64, 86
1, 160657, Control_c, 0, 67, 81
1, 160670, Note_off_c, 0, 63, 58
1, 160671, Control_c, 0, 64, 92
1, 160671, Control_c, 0, 67, 82
1, 160686, Control_c, 0, 64, 98
1, 160686, Control_c, 0, 67, 84
1, 160692, Note_on_c, 0, 55, 42
1, 160701, Control_c, 0, 64, 104
1, 160701, Control_c, 0, 67, 85
1, 160707, Note_on_c, 0, 51, 39
1, 160716, Control_c, 0, 64, 106
1, 160716, Control_c, 0, 67, 86
1, 160731, Control_c, 0, 67, 87
1, 160746, Control_c, 0, 67, 95
1, 160752, Note_off_c, 0, 51, 47
1, 160752, Note_off_c, 0, 55, 54
1, 160760, Control_c, 0, 67, 107
1, 160775, Control_c, 0, 67, 117
1, 160790, Control_c, 0, 67, 127
1, 160880, Control_c, 0, 64, 105
1, 160884, Note_on_c, 0, 51, 44
1, 160894, Control_c, 0, 64, 105
1, 160897, Note_on_c, 0, 55, 39
1, 160909, Control_c, 0, 64, 104
1, 160918, Note_off_c, 0, 51, 48
1, 160948, Note_off_c, 0, 55, 58
1, 160964, Note_on_c, 0, 70, 57
1, 160967, Note_on_c, 0, 61, 51
1, 160983, Control_c, 0, 64, 104
1, 160998, Control_c, 0, 64, 103
1, 161013, Control_c, 0, 64, 102
1, 161014, Note_off_c, 0, 61, 60
1, 161028, Control_c, 0, 64, 101
1, 161042, Control_c, 0, 64, 100
1, 161052, Note_off_c, 0, 70, 34
1, 161057, Control_c, 0, 64, 97
1, 161072, Control_c, 0, 64, 92
1, 161087, Control_c, 0, 64, 82
1, 161101, Control_c, 0, 64, 70
1, 161116, Control_c, 0, 64, 57
1, 161131, Control_c, 0, 64, 0
1, 161153, Note_on_c, 0, 68, 51
1, 161165, Note_on_c, 0, 44, 40
1, 161167, Note_on_c, 0, 60, 39
1, 161205, Control_c, 0, 64, 22
1, 161220, Control_c, 0, 64, 47
1, 161235, Control_c, 0, 64, 60
1, 161257, Control_c, 0, 64, 65
1, 161262, Note_off_c, 0, 44, 62
1, 161272, Control_c, 0, 64, 72
1, 161287, Control_c, 0, 64, 80
1, 161301, Control_c, 0, 64, 91
1, 161316, Control_c, 0, 64, 107
1, 161331, Control_c, 0, 64, 127
1, 161398, Note_off_c, 0, 60, 0
1, 161423, Note_on_c, 0, 60, 10
1, 161451, Note_on_c, 0, 56, 38
1, 161456, Note_off_c, 0, 68, 49
1, 161469, Note_on_c, 0, 51, 36
1, 161492, Note_off_c, 0, 56, 57
1, 161505, Note_off_c, 0, 51, 51
1, 161540, Note_off_c, 0, 60, 35
1, 161568, Control_c, 0, 67, 127
1, 161583, Control_c, 0, 67, 125
1, 161598, Control_c, 0, 67, 123
1, 161602, Note_on_c, 0, 60, 20
1, 161613, Control_c, 0, 67, 117
1, 161616, Note_on_c, 0, 51, 41
1, 161621, Note_on_c, 0, 56, 39
1, 161628, Control_c, 0, 67, 112
1, 161644, Control_c, 0, 67, 106
1, 161655, Note_off_c, 0, 51, 50
1, 161658, Control_c, 0, 67, 100
1, 161660, Note_off_c, 0, 56, 52
1, 161662, Note_off_c, 0, 60, 52
1, 161673, Control_c, 0, 67, 93
1, 161688, Control_c, 0, 67, 87
1, 161703, Control_c, 0, 67, 80
1, 161717, Control_c, 0, 67, 74
1, 161732, Control_c, 0, 67, 68
1, 161747, Control_c, 0, 67, 63
1, 161750, Note_on_c, 0, 60, 29
1, 161762, Control_c, 0, 67, 56
1, 161763, Note_on_c, 0, 56, 39
1, 161777, Control_c, 0, 67, 50
1, 161781, Note_on_c, 0, 51, 34
1, 161791, Control_c, 0, 67, 43
1, 161806, Control_c, 0, 67, 36
1, 161807, Note_off_c, 0, 56, 57
1, 161814, Note_off_c, 0, 51, 53
1, 161814, Note_off_c, 0, 60, 53
1, 161821, Control_c, 0, 67, 31
1, 161836, Control_c, 0, 67, 25
1, 161851, Control_c, 0, 67, 20
1, 161866, Control_c, 0, 67, 15
1, 161880, Control_c, 0, 67, 10
1, 161895, Control_c, 0, 67, 0
1, 161902, Note_on_c, 0, 60, 30
1, 161912, Note_on_c, 0, 56, 40
1, 161931, Note_on_c, 0, 51, 35
1, 161956, Note_off_c, 0, 56, 54
1, 161960, Note_off_c, 0, 60, 53
1, 161966, Note_off_c, 0, 51, 52
1, 162055, Note_on_c, 0, 60, 31
1, 162061, Note_on_c, 0, 56, 37
1, 162082, Note_on_c, 0, 51, 37
1, 162113, Note_off_c, 0, 56, 56
1, 162118, Note_off_c, 0, 60, 54
1, 162121, Note_off_c, 0, 51, 50
1, 162201, Note_on_c, 0, 73, 63
1, 162214, Note_on_c, 0, 60, 27
1, 162221, Note_on_c, 0, 56, 31
1, 162239, Note_on_c, 0, 51, 28
1, 162267, Note_off_c, 0, 60, 51
1, 162281, Note_off_c, 0, 51, 49
1, 162284, Note_off_c, 0, 56, 41
1, 162343, Note_on_c, 0, 56, 32
1, 162349, Note_on_c, 0, 60, 39
1, 162368, Note_on_c, 0, 51, 37
1, 162407, Note_off_c, 0, 60, 53
1, 162410, Note_off_c, 0, 51, 49
1, 162436, Note_on_c, 0, 72, 74
1, 162474, Note_off_c, 0, 56, 0
1, 162491, Note_on_c, 0, 56, 24
1, 162499, Note_on_c, 0, 60, 45
1, 162507, Note_off_c, 0, 73, 62
1, 162515, Note_on_c, 0, 51, 40
1, 162551, Note_off_c, 0, 60, 55
1, 162560, Note_off_c, 0, 51, 47
1, 162583, Note_off_c, 0, 56, 37
1, 162639, Note_on_c, 0, 56, 30
1, 162648, Note_on_c, 0, 60, 46
1, 162656, Note_on_c, 0, 51, 40
1, 162674, Note_on_c, 0, 71, 73
1, 162684, Note_off_c, 0, 60, 59
1, 162694, Note_off_c, 0, 51, 53
1, 162696, Note_off_c, 0, 56, 56
1, 162717, Note_off_c, 0, 72, 61
1, 162813, Note_on_c, 0, 60, 37
1, 162824, Note_on_c, 0, 56, 37
1, 162836, Note_on_c, 0, 51, 29
1, 162840, Note_off_c, 0, 60, 56
1, 162867, Note_off_c, 0, 56, 48
1, 162874, Note_off_c, 0, 51, 52
1, 162890, Note_on_c, 0, 72, 75
1, 162893, Note_off_c, 0, 71, 62
1, 162921, Note_off_c, 0, 72, 63
1, 162971, Note_on_c, 0, 60, 37
1, 162973, Note_on_c, 0, 51, 55
1, 162991, Note_on_c, 0, 56, 32
1, 163002, Note_off_c, 0, 60, 54
1, 163021, Note_off_c, 0, 51, 62
1, 163022, Note_off_c, 0, 56, 55
1, 163139, Control_c, 0, 64, 105
1, 163154, Control_c, 0, 64, 77
1, 163167, Note_on_c, 0, 77, 67
1, 163169, Control_c, 0, 64, 61
1, 163184, Control_c, 0, 64, 35
1, 163199, Control_c, 0, 64, 32
1, 163204, Note_on_c, 0, 37, 50
1, 163213, Control_c, 0, 64, 43
1, 163228, Control_c, 0, 64, 57
1, 163244, Control_c, 0, 64, 65
1, 163259, Control_c, 0, 64, 73
1, 163267, Note_off_c, 0, 37, 58
1, 163274, Control_c, 0, 64, 91
1, 163276, Note_on_c, 0, 84, 72
1, 163289, Control_c, 0, 64, 127
1, 163474, Note_on_c, 0, 60, 46
1, 163489, Note_on_c, 0, 49, 37
1, 163507, Note_on_c, 0, 53, 45
1, 163513, Note_off_c, 0, 60, 51
1, 163537, Note_off_c, 0, 53, 60
1, 163563, Note_off_c, 0, 49, 38
1, 163575, Note_on_c, 0, 82, 66
1, 163590, Note_off_c, 0, 84, 58
1, 163635, Note_on_c, 0, 53, 51
1, 163640, Note_on_c, 0, 60, 48
1, 163663, Note_on_c, 0, 49, 23
1, 163674, Note_off_c, 0, 60, 61
1, 163704, Note_off_c, 0, 49, 49
1, 163706, Note_off_c, 0, 53, 55
1, 163790, Note_on_c, 0, 81, 62
1, 163791, Note_on_c, 0, 60, 46
1, 163796, Note_on_c, 0, 53, 33
1, 163798, Note_off_c, 0, 82, 58
1, 163836, Note_off_c, 0, 60, 58
1, 163843, Control_c, 0, 67, 8
1, 163858, Control_c, 0, 67, 26
1, 163861, Poly_aftertouch_c, 0, 49, 127
1, 163863, Note_off_c, 0, 53, 56
1, 163873, Control_c, 0, 67, 40
1, 163888, Control_c, 0, 67, 51
1, 163903, Control_c, 0, 67, 60
1, 163918, Control_c, 0, 67, 62
1, 163948, Poly_aftertouch_c, 0, 49, 0
1, 163956, Note_on_c, 0, 53, 36
1, 163957, Note_on_c, 0, 60, 51
1, 163962, Control_c, 0, 67, 61
1, 163977, Control_c, 0, 67, 60
1, 163985, Poly_aftertouch_c, 0, 49, 127
1, 163992, Control_c, 0, 67, 59
1, 164001, Note_off_c, 0, 60, 60
1, 164007, Control_c, 0, 67, 58
1, 164016, Note_on_c, 0, 82, 67
1, 164017, Note_off_c, 0, 53, 55
1, 164019, Note_off_c, 0, 81, 62
1, 164022, Control_c, 0, 67, 57
1, 164035, Poly_aftertouch_c, 0, 49, 0
1, 164037, Control_c, 0, 67, 56
1, 164052, Control_c, 0, 67, 55
1, 164063, Note_off_c, 0, 82, 56
1, 164067, Control_c, 0, 67, 55
1, 164079, Note_off_c, 0, 77, 61
1, 164082, Control_c, 0, 67, 53
1, 164097, Control_c, 0, 67, 53
1, 164112, Control_c, 0, 67, 52
1, 164115, Note_on_c, 0, 60, 51
1, 164141, Control_c, 0, 67, 51
1, 164145, Note_on_c, 0, 53, 33
1, 164150, Note_off_c, 0, 60, 64
1, 164156, Control_c, 0, 67, 51
1, 164171, Control_c, 0, 67, 50
1, 164185, Control_c, 0, 67, 48
1, 164191, Note_off_c, 0, 53, 47
1, 164200, Control_c, 0, 67, 46
1, 164215, Control_c, 0, 64, 113
1, 164215, Control_c, 0, 67, 45
1, 164230, Control_c, 0, 64, 80
1, 164230, Control_c, 0, 67, 43
1, 164252, Control_c, 0, 64, 65
1, 164252, Control_c, 0, 67, 42
1, 164266, Note_on_c, 0, 72, 59
1, 164267, Control_c, 0, 64, 53
1, 164267, Control_c, 0, 67, 40
1, 164273, Note_on_c, 0, 58, 55
1, 164282, Control_c, 0, 64, 49
1, 164282, Control_c, 0, 67, 36
1, 164285, Note_on_c, 0, 49, 21
1, 164297, Control_c, 0, 64, 53
1, 164297, Control_c, 0, 67, 33
1, 164302, Note_on_c, 0, 53, 19
1, 164311, Control_c, 0, 64, 59
1, 164311, Control_c, 0, 67, 25
1, 164326, Control_c, 0, 64, 64
1, 164326, Control_c, 0, 67, 14
1, 164329, Note_off_c, 0, 58, 57
1, 164335, Note_off_c, 0, 49, 50
1, 164341, Control_c, 0, 64, 70
1, 164341, Control_c, 0, 67, 0
1, 164348, Note_off_c, 0, 53, 46
1, 164356, Control_c, 0, 64, 79
1, 164371, Control_c, 0, 64, 90
1, 164386, Control_c, 0, 64, 104
1, 164400, Control_c, 0, 64, 127
1, 164429, Note_on_c, 0, 53, 50
1, 164439, Note_on_c, 0, 49, 43
1, 164448, Note_on_c, 0, 58, 42
1, 164473, Note_off_c, 0, 49, 59
1, 164480, Note_off_c, 0, 58, 59
1, 164486, Note_off_c, 0, 53, 56
1, 164490, Note_on_c, 0, 70, 71
1, 164546, Note_off_c, 0, 72, 55
1, 164580, Note_on_c, 0, 58, 53
1, 164592, Note_on_c, 0, 53, 45
1, 164595, Note_on_c, 0, 49, 31
1, 164626, Note_off_c, 0, 58, 57
1, 164634, Note_off_c, 0, 49, 54
1, 164634, Note_off_c, 0, 53, 60
1, 164722, Note_on_c, 0, 69, 72
1, 164738, Note_on_c, 0, 53, 47
1, 164742, Note_on_c, 0, 58, 43
1, 164760, Note_on_c, 0, 49, 5
1, 164765, Note_off_c, 0, 70, 59
1, 164770, Note_off_c, 0, 58, 58
1, 164771, Note_off_c, 0, 53, 60
1, 164872, Note_on_c, 0, 58, 49
1, 164878, Note_off_c, 0, 49, 0
1, 164880, Note_on_c, 0, 53, 42
1, 164909, Note_off_c, 0, 58, 59
1, 164914, Poly_aftertouch_c, 0, 49, 127
1, 164918, Note_off_c, 0, 53, 52
1, 164934, Note_off_c, 0, 69, 61
1, 164941, Note_on_c, 0, 70, 69
1, 164948, Control_c, 0, 67, 9
1, 164963, Control_c, 0, 67, 34
1, 164974, Note_off_c, 0, 70, 62
1, 164978, Control_c, 0, 67, 61
1, 165000, Control_c, 0, 67, 82
1, 165006, Poly_aftertouch_c, 0, 49, 0
1, 165015, Control_c, 0, 67, 103
1, 165024, Note_on_c, 0, 49, 25
1, 165026, Note_on_c, 0, 58, 42
1, 165030, Control_c, 0, 67, 125
1, 165045, Control_c, 0, 67, 127
1, 165050, Note_off_c, 0, 58, 58
1, 165066, Note_off_c, 0, 49, 62
1, 165110, Poly_aftertouch_c, 0, 53, 0
1, 165222, Control_c, 0, 64, 96
1, 165231, Note_on_c, 0, 75, 59
1, 165237, Control_c, 0, 64, 76
1, 165252, Control_c, 0, 64, 63
1, 165264, Note_on_c, 0, 36, 45
1, 165267, Control_c, 0, 64, 42
1, 165282, Control_c, 0, 64, 30
1, 165296, Control_c, 0, 64, 37
1, 165311, Control_c, 0, 64, 48
1, 165326, Control_c, 0, 64, 59
1, 165338, Note_on_c, 0, 82, 64
1, 165340, Control_c, 0, 64, 65
1, 165352, Note_off_c, 0, 36, 62
1, 165355, Control_c, 0, 64, 72
1, 165370, Control_c, 0, 64, 80
1, 165385, Control_c, 0, 64, 92
1, 165400, Control_c, 0, 64, 110
1, 165414, Control_c, 0, 64, 127
1, 165543, Note_on_c, 0, 58, 48
1, 165552, Note_on_c, 0, 51, 39
1, 165556, Note_on_c, 0, 48, 38
1, 165582, Note_off_c, 0, 58, 56
1, 165596, Note_off_c, 0, 51, 47
1, 165599, Note_on_c, 0, 80, 61
1, 165604, Note_off_c, 0, 82, 55
1, 165606, Note_off_c, 0, 48, 44
1, 165674, Note_on_c, 0, 48, 22
1, 165681, Note_on_c, 0, 51, 40
1, 165687, Note_on_c, 0, 58, 40
1, 165719, Note_off_c, 0, 48, 48
1, 165724, Note_off_c, 0, 58, 53
1, 165727, Note_off_c, 0, 51, 49
1, 165793, Control_c, 0, 67, 124
1, 165808, Control_c, 0, 67, 122
1, 165823, Note_on_c, 0, 79, 59
1, 165823, Control_c, 0, 67, 118
1, 165832, Note_on_c, 0, 48, 37
1, 165836, Note_on_c, 0, 51, 46
1, 165838, Control_c, 0, 67, 115
1, 165841, Note_off_c, 0, 80, 55
1, 165843, Note_on_c, 0, 58, 51
1, 165853, Control_c, 0, 67, 111
1, 165868, Control_c, 0, 67, 106
1, 165875, Note_off_c, 0, 48, 59
1, 165876, Note_off_c, 0, 58, 61
1, 165877, Note_off_c, 0, 51, 59
1, 165882, Control_c, 0, 67, 100
1, 165897, Control_c, 0, 67, 92
1, 165912, Control_c, 0, 67, 84
1, 165927, Control_c, 0, 67, 75
1, 165942, Control_c, 0, 67, 67
1, 165957, Control_c, 0, 67, 60
1, 165971, Note_on_c, 0, 58, 51
1, 165971, Control_c, 0, 67, 52
1, 165987, Control_c, 0, 67, 43
1, 166002, Control_c, 0, 67, 35
1, 166005, Note_on_c, 0, 51, 43
1, 166017, Control_c, 0, 67, 24
1, 166020, Note_on_c, 0, 48, 22
1, 166020, Note_off_c, 0, 58, 57
1, 166031, Control_c, 0, 67, 14
1, 166038, Note_off_c, 0, 51, 52
1, 166046, Control_c, 0, 67, 0
1, 166064, Note_off_c, 0, 48, 42
1, 166067, Note_off_c, 0, 79, 64
1, 166069, Note_on_c, 0, 80, 66
1, 166115, Note_off_c, 0, 80, 58
1, 166132, Note_off_c, 0, 75, 61
1, 166134, Note_on_c, 0, 58, 52
1, 166146, Note_on_c, 0, 51, 58
1, 166148, Note_on_c, 0, 48, 35
1, 166174, Note_off_c, 0, 58, 62
1, 166183, Note_off_c, 0, 48, 61
1, 166186, Note_off_c, 0, 51, 62
1, 166297, Note_on_c, 0, 48, 43
1, 166298, Control_c, 0, 64, 107
1, 166300, Note_on_c, 0, 51, 48
1, 166312, Note_on_c, 0, 56, 54
1, 166312, Note_on_c, 0, 73, 73
1, 166312, Control_c, 0, 64, 82
1, 166327, Control_c, 0, 64, 67
1, 166342, Control_c, 0, 64, 56
1, 166356, Control_c, 0, 64, 50
1, 166369, Note_off_c, 0, 56, 60
1, 166371, Note_off_c, 0, 51, 57
1, 166371, Control_c, 0, 64, 54
1, 166374, Note_off_c, 0, 48, 55
1, 166386, Control_c, 0, 64, 61
1, 166401, Control_c, 0, 64, 66
1, 166416, Control_c, 0, 64, 74
1, 166432, Control_c, 0, 64, 90
1, 166447, Control_c, 0, 64, 127
1, 166470, Note_on_c, 0, 48, 42
1, 166470, Note_on_c, 0, 56, 54
1, 166472, Note_on_c, 0, 51, 50
1, 166523, Note_off_c, 0, 51, 61
1, 166524, Note_off_c, 0, 56, 59
1, 166530, Note_off_c, 0, 48, 59
1, 166543, Note_on_c, 0, 72, 86
1, 166579, Note_off_c, 0, 73, 62
1, 166631, Note_on_c, 0, 56, 63
1, 166631, Note_on_c, 0, 51, 59
1, 166643, Note_on_c, 0, 48, 57
1, 166693, Note_off_c, 0, 48, 56
1, 166705, Note_off_c, 0, 56, 61
1, 166710, Note_off_c, 0, 51, 60
1, 166779, Note_on_c, 0, 70, 83
1, 166797, Note_on_c, 0, 56, 64
1, 166804, Note_on_c, 0, 51, 59
1, 166810, Note_on_c, 0, 48, 53
1, 166830, Note_off_c, 0, 72, 56
1, 166845, Note_off_c, 0, 48, 62
1, 166848, Note_off_c, 0, 56, 55
1, 166851, Note_off_c, 0, 51, 58
1, 166942, Note_on_c, 0, 56, 67
1, 166953, Note_on_c, 0, 48, 52
1, 166953, Note_on_c, 0, 51, 61
1, 166992, Note_off_c, 0, 48, 61
1, 166995, Note_on_c, 0, 68, 84
1, 166997, Note_off_c, 0, 56, 55
1, 167006, Note_off_c, 0, 51, 47
1, 167034, Note_off_c, 0, 70, 62
1, 167115, Note_on_c, 0, 48, 59
1, 167116, Note_on_c, 0, 51, 58
1, 167120, Note_on_c, 0, 56, 73
1, 167151, Note_off_c, 0, 56, 67
1, 167163, Note_off_c, 0, 51, 63
1, 167176, Note_off_c, 0, 48, 63
1, 167180, Note_off_c, 0, 68, 59
1, 167352, Control_c, 0, 64, 116
1, 167367, Control_c, 0, 64, 82
1, 167367, Note_on_c, 0, 79, 81
1, 167374, Note_on_c, 0, 67, 71
1, 167374, Note_on_c, 0, 75, 71
1, 167382, Control_c, 0, 64, 63
1, 167388, Note_on_c, 0, 37, 61
1, 167389, Note_on_c, 0, 49, 65
1, 167397, Control_c, 0, 64, 23
1, 167411, Control_c, 0, 64, 0
1, 167456, Control_c, 0, 64, 40
1, 167471, Control_c, 0, 64, 61
1, 167484, Note_off_c, 0, 37, 63
1, 167485, Control_c, 0, 64, 69
1, 167500, Control_c, 0, 64, 84
1, 167508, Note_off_c, 0, 49, 63
1, 167514, Note_off_c, 0, 75, 61
1, 167515, Control_c, 0, 64, 127
1, 167532, Note_off_c, 0, 79, 59
1, 167586, Note_off_c, 0, 67, 60
1, 167619, Note_on_c, 0, 53, 55
1, 167627, Note_on_c, 0, 56, 63
1, 167641, Note_on_c, 0, 49, 54
1, 167690, Note_on_c, 0, 77, 81
1, 167697, Note_on_c, 0, 73, 62
1, 167703, Note_off_c, 0, 56, 48
1, 167704, Note_on_c, 0, 65, 69
1, 167708, Note_off_c, 0, 53, 55
1, 167710, Note_off_c, 0, 49, 52
1, 167768, Note_off_c, 0, 73, 64
1, 167778, Note_off_c, 0, 77, 62
1, 167784, Note_off_c, 0, 65, 60
1, 167806, Note_on_c, 0, 53, 43
1, 167806, Note_on_c, 0, 56, 53
1, 167814, Note_on_c, 0, 49, 45
1, 167856, Note_off_c, 0, 56, 57
1, 167863, Note_off_c, 0, 49, 57
1, 167886, Note_off_c, 0, 53, 55
1, 167929, Control_c, 0, 64, 87
1, 167944, Control_c, 0, 64, 69
1, 167954, Note_on_c, 0, 75, 72
1, 167957, Note_on_c, 0, 72, 54
1, 167959, Control_c, 0, 64, 52
1, 167968, Note_on_c, 0, 63, 54
1, 167974, Control_c, 0, 64, 31
1, 167975, Note_on_c, 0, 57, 52
1, 167992, Note_on_c, 0, 49, 42
1, 167996, Note_on_c, 0, 53, 34
1, 167996, Control_c, 0, 64, 32
1, 168011, Control_c, 0, 64, 42
1, 168023, Note_off_c, 0, 72, 59
1, 168026, Control_c, 0, 64, 54
1, 168032, Note_off_c, 0, 57, 62
1, 168041, Note_off_c, 0, 49, 58
1, 168041, Control_c, 0, 64, 61
1, 168056, Control_c, 0, 64, 66
1, 168062, Note_off_c, 0, 53, 58
1, 168071, Note_off_c, 0, 75, 61
1, 168071, Control_c, 0, 64, 70
1, 168086, Control_c, 0, 64, 76
1, 168098, Note_off_c, 0, 63, 63
1, 168101, Control_c, 0, 64, 83
1, 168115, Control_c, 0, 64, 90
1, 168130, Control_c, 0, 64, 99
1, 168145, Control_c, 0, 64, 112
1, 168160, Note_on_c, 0, 58, 37
1, 168160, Control_c, 0, 64, 127
1, 168167, Note_on_c, 0, 53, 23
1, 168195, Note_on_c, 0, 73, 76
1, 168196, Note_off_c, 0, 58, 51
1, 168206, Note_on_c, 0, 61, 63
1, 168216, Note_off_c, 0, 53, 45
1, 168219, Control_c, 0, 67, 11
1, 168233, Control_c, 0, 67, 26
1, 168237, Poly_aftertouch_c, 0, 49, 0
1, 168248, Control_c, 0, 67, 41
1, 168263, Control_c, 0, 67, 56
1, 168278, Control_c, 0, 67, 74
1, 168293, Control_c, 0, 67, 89
1, 168307, Control_c, 0, 67, 104
1, 168315, Note_off_c, 0, 61, 59
1, 168322, Control_c, 0, 67, 119
1, 168327, Note_on_c, 0, 58, 46
1, 168337, Control_c, 0, 67, 127
1, 168351, Note_on_c, 0, 49, 48
1, 168351, Note_off_c, 0, 58, 60
1, 168356, Note_off_c, 0, 73, 39
1, 168377, Note_off_c, 0, 49, 58
1, 168382, Poly_aftertouch_c, 0, 53, 127
1, 168410, Poly_aftertouch_c, 0, 53, 0
1, 168440, Control_c, 0, 64, 121
1, 168455, Control_c, 0, 64, 102
1, 168470, Control_c, 0, 64, 85
1, 168485, Control_c, 0, 64, 69
1, 168500, Control_c, 0, 64, 55
1, 168515, Control_c, 0, 64, 0
1, 168518, Note_on_c, 0, 72, 64
1, 168530, Note_on_c, 0, 68, 46
1, 168533, Note_on_c, 0, 60, 47
1, 168534, Note_on_c, 0, 39, 50
1, 168559, Control_c, 0, 64, 28
1, 168574, Control_c, 0, 64, 48
1, 168589, Control_c, 0, 64, 59
1, 168604, Control_c, 0, 64, 64
1, 168610, Note_off_c, 0, 39, 62
1, 168619, Control_c, 0, 64, 68
1, 168633, Control_c, 0, 64, 73
1, 168648, Control_c, 0, 64, 78
1, 168663, Control_c, 0, 64, 83
1, 168677, Note_off_c, 0, 60, 59
1, 168678, Control_c, 0, 64, 89
1, 168684, Note_off_c, 0, 72, 60
1, 168693, Control_c, 0, 64, 95
1, 168707, Control_c, 0, 64, 106
1, 168722, Control_c, 0, 64, 115
1, 168744, Control_c, 0, 64, 127
1, 168749, Note_on_c, 0, 51, 41
1, 168752, Note_on_c, 0, 56, 40
1, 168760, Note_off_c, 0, 68, 37
1, 168783, Note_off_c, 0, 56, 53
1, 168786, Note_off_c, 0, 51, 50
1, 168884, Note_on_c, 0, 56, 44
1, 168901, Note_on_c, 0, 51, 57
1, 168930, Note_off_c, 0, 51, 64
1, 168939, Note_off_c, 0, 56, 60
1, 169042, Control_c, 0, 64, 113
1, 169056, Control_c, 0, 64, 95
1, 169071, Control_c, 0, 64, 77
1, 169086, Control_c, 0, 64, 61
1, 169099, Note_on_c, 0, 73, 60
1, 169101, Control_c, 0, 64, 33
1, 169111, Note_on_c, 0, 67, 48
1, 169116, Control_c, 0, 64, 0
1, 169117, Note_on_c, 0, 61, 44
1, 169145, Control_c, 0, 64, 26
1, 169155, Note_on_c, 0, 39, 38
1, 169160, Control_c, 0, 64, 46
1, 169175, Control_c, 0, 64, 60
1, 169188, Note_off_c, 0, 39, 59
1, 169189, Control_c, 0, 64, 65
1, 169204, Control_c, 0, 64, 69
1, 169219, Control_c, 0, 64, 75
1, 169234, Control_c, 0, 64, 82
1, 169249, Control_c, 0, 64, 90
1, 169263, Control_c, 0, 64, 102
1, 169278, Control_c, 0, 64, 121
1, 169293, Control_c, 0, 64, 127
1, 169316, Note_off_c, 0, 61, 33
1, 169318, Note_off_c, 0, 73, 38
1, 169332, Note_on_c, 0, 55, 42
1, 169365, Note_on_c, 0, 51, 28
1, 169393, Note_off_c, 0, 55, 56
1, 169403, Note_off_c, 0, 51, 52
1, 169597, Note_on_c, 0, 51, 39
1, 169605, Note_on_c, 0, 55, 33
1, 169641, Note_off_c, 0, 55, 54
1, 169644, Note_off_c, 0, 51, 62
1, 169686, Note_off_c, 0, 67, 20
1, 169708, Note_on_c, 0, 70, 52
1, 169743, Note_off_c, 0, 70, 65
1, 169984, Control_c, 0, 64, 106
1, 169999, Control_c, 0, 64, 89
1, 170013, Control_c, 0, 64, 73
1, 170027, Note_on_c, 0, 68, 45
1, 170028, Control_c, 0, 64, 62
1, 170035, Note_on_c, 0, 44, 36
1, 170040, Note_on_c, 0, 32, 33
1, 170040, Note_on_c, 0, 63, 33
1, 170041, Note_on_c, 0, 60, 37
1, 170043, Control_c, 0, 64, 39
1, 170044, Note_on_c, 0, 56, 29
1, 170058, Control_c, 0, 64, 0
1, 170117, Control_c, 0, 64, 16
1, 170131, Control_c, 0, 64, 39
1, 170146, Control_c, 0, 64, 55
1, 170154, Note_off_c, 0, 32, 55
1, 170161, Control_c, 0, 64, 63
1, 170176, Control_c, 0, 64, 68
1, 170191, Control_c, 0, 64, 75
1, 170194, Note_off_c, 0, 44, 58
1, 170205, Control_c, 0, 64, 83
1, 170220, Control_c, 0, 64, 93
1, 170243, Control_c, 0, 64, 108
1, 170258, Control_c, 0, 64, 127
1, 170407, Note_on_c, 0, 51, 45
1, 170459, Note_on_c, 0, 48, 7
1, 170463, Note_off_c, 0, 51, 57
1, 170518, Note_off_c, 0, 48, 45
1, 170575, Poly_aftertouch_c, 0, 44, 0
1, 170589, Note_on_c, 0, 48, 39
1, 170597, Note_on_c, 0, 44, 9
1, 170605, Note_on_c, 0, 51, 36
1, 170642, Note_off_c, 0, 51, 52
1, 170643, Note_off_c, 0, 48, 56
1, 170656, Note_off_c, 0, 44, 47
1, 170757, Note_on_c, 0, 51, 46
1, 170768, Note_on_c, 0, 48, 33
1, 170801, Note_off_c, 0, 51, 57
1, 170810, Note_off_c, 0, 48, 48
1, 170821, Poly_aftertouch_c, 0, 44, 127
1, 170896, Poly_aftertouch_c, 0, 44, 0
1, 170913, Note_on_c, 0, 48, 45
1, 170920, Note_on_c, 0, 44, 4
1, 170932, Note_on_c, 0, 51, 42
1, 170966, Note_off_c, 0, 51, 54
1, 170967, Note_off_c, 0, 48, 55
1, 170993, Note_off_c, 0, 44, 44
1, 171074, Note_on_c, 0, 44, 27
1, 171078, Note_on_c, 0, 48, 37
1, 171095, Note_on_c, 0, 51, 37
1, 171120, Note_off_c, 0, 48, 57
1, 171126, Note_off_c, 0, 51, 53
1, 171129, Note_off_c, 0, 44, 46
1, 171240, Note_on_c, 0, 48, 27
1, 171251, Note_on_c, 0, 51, 31
1, 171254, Poly_aftertouch_c, 0, 44, 127
1, 171284, Note_off_c, 0, 48, 46
1, 171292, Note_off_c, 0, 51, 49
1, 171349, Poly_aftertouch_c, 0, 44, 0
1, 171373, Note_on_c, 0, 44, 8
1, 171378, Note_on_c, 0, 48, 35
1, 171387, Note_on_c, 0, 51, 32
1, 171428, Note_off_c, 0, 51, 49
1, 171433, Note_off_c, 0, 48, 54
1, 171463, Note_off_c, 0, 60, 37
1, 171487, Note_off_c, 0, 63, 30
1, 171518, Note_off_c, 0, 44, 0
1, 171543, Note_on_c, 0, 48, 30
1, 171550, Note_on_c, 0, 51, 41
1, 171555, Poly_aftertouch_c, 0, 44, 127
1, 171594, Note_off_c, 0, 48, 55
1, 171595, Note_off_c, 0, 51, 53
1, 171683, Poly_aftertouch_c, 0, 44, 0
1, 171704, Note_on_c, 0, 44, 9
1, 171717, Note_on_c, 0, 48, 32
1, 171721, Note_on_c, 0, 60, 55
1, 171739, Note_on_c, 0, 51, 33
1, 171775, Note_off_c, 0, 48, 55
1, 171780, Note_off_c, 0, 51, 50
1, 171850, Note_off_c, 0, 44, 0
1, 171885, Note_on_c, 0, 48, 37
1, 171887, Poly_aftertouch_c, 0, 44, 127
1, 171889, Control_c, 0, 67, 124
1, 171893, Note_off_c, 0, 68, 35
1, 171898, Note_on_c, 0, 51, 41
1, 171903, Control_c, 0, 67, 114
1, 171918, Control_c, 0, 67, 101
1, 171931, Note_off_c, 0, 48, 57
1, 171931, Note_off_c, 0, 51, 54
1, 171933, Control_c, 0, 67, 84
1, 171948, Control_c, 0, 67, 70
1, 171955, Poly_aftertouch_c, 0, 44, 0
1, 171963, Control_c, 0, 67, 60
1, 171978, Control_c, 0, 67, 54
1, 171992, Control_c, 0, 67, 51
1, 172005, Note_off_c, 0, 60, 51
1, 172007, Control_c, 0, 67, 50
1, 172042, Note_on_c, 0, 44, 33
1, 172045, Note_on_c, 0, 51, 44
1, 172074, Note_on_c, 0, 48, 12
1, 172074, Note_off_c, 0, 51, 58
1, 172094, Note_off_c, 0, 56, 27
1, 172101, Note_off_c, 0, 44, 61
1, 172116, Note_off_c, 0, 48, 40
1, 172127, Control_c, 0, 67, 51
1, 172128, Note_on_c, 0, 63, 61
1, 172186, Control_c, 0, 67, 51
1, 172200, Control_c, 0, 67, 52
1, 172210, Note_off_c, 0, 63, 55
1, 172230, Control_c, 0, 67, 53
1, 172260, Control_c, 0, 64, 92
1, 172274, Control_c, 0, 64, 73
1, 172279, Note_on_c, 0, 68, 57
1, 172289, Control_c, 0, 64, 60
1, 172297, Note_on_c, 0, 56, 41
1, 172304, Control_c, 0, 64, 36
1, 172308, Note_on_c, 0, 32, 50
1, 172315, Note_on_c, 0, 44, 48
1, 172319, Control_c, 0, 64, 21
1, 172334, Control_c, 0, 64, 32
1, 172348, Control_c, 0, 64, 49
1, 172363, Control_c, 0, 64, 61
1, 172372, Note_off_c, 0, 32, 61
1, 172378, Control_c, 0, 64, 68
1, 172393, Control_c, 0, 64, 77
1, 172398, Note_off_c, 0, 44, 62
1, 172408, Control_c, 0, 64, 94
1, 172423, Control_c, 0, 64, 127
1, 172467, Control_c, 0, 67, 52
1, 172570, Note_on_c, 0, 48, 35
1, 172586, Note_on_c, 0, 51, 38
1, 172587, Note_on_c, 0, 44, 32
1, 172622, Note_off_c, 0, 51, 52
1, 172632, Note_off_c, 0, 44, 48
1, 172633, Note_off_c, 0, 56, 32
1, 172644, Note_off_c, 0, 48, 49
1, 172665, Note_off_c, 0, 68, 24
1, 172711, Note_on_c, 0, 48, 19
1, 172727, Note_on_c, 0, 51, 48
1, 172748, Note_on_c, 0, 44, 14
1, 172773, Note_off_c, 0, 51, 52
1, 172795, Note_off_c, 0, 44, 50
1, 172835, Note_off_c, 0, 48, 0
1, 172858, Note_on_c, 0, 48, 12
1, 172868, Note_on_c, 0, 68, 56
1, 172882, Note_on_c, 0, 56, 50
1, 172891, Note_on_c, 0, 51, 43
1, 172899, Note_on_c, 0, 44, 20
1, 172946, Note_off_c, 0, 51, 51
1, 172956, Note_off_c, 0, 44, 45
1, 173007, Note_off_c, 0, 48, 0
1, 173007, Control_c, 0, 67, 51
1, 173025, Note_on_c, 0, 48, 23
1, 173034, Note_on_c, 0, 51, 44
1, 173037, Control_c, 0, 67, 51
1, 173038, Note_on_c, 0, 44, 35
1, 173066, Control_c, 0, 67, 50
1, 173081, Control_c, 0, 67, 50
1, 173085, Note_off_c, 0, 44, 55
1, 173090, Note_off_c, 0, 48, 57
1, 173092, Note_off_c, 0, 51, 54
1, 173096, Control_c, 0, 67, 49
1, 173111, Control_c, 0, 67, 48
1, 173126, Control_c, 0, 67, 47
1, 173137, Note_off_c, 0, 56, 41
1, 173141, Control_c, 0, 67, 46
1, 173155, Control_c, 0, 67, 45
1, 173162, Note_off_c, 0, 68, 33
1, 173170, Control_c, 0, 67, 45
1, 173185, Control_c, 0, 67, 41
1, 173190, Note_on_c, 0, 51, 43
1, 173197, Note_on_c, 0, 48, 30
1, 173200, Control_c, 0, 67, 33
1, 173215, Control_c, 0, 67, 25
1, 173219, Note_on_c, 0, 44, 10
1, 173236, Control_c, 0, 67, 18
1, 173246, Note_off_c, 0, 51, 56
1, 173251, Note_off_c, 0, 48, 47
1, 173251, Control_c, 0, 67, 11
1, 173266, Control_c, 0, 67, 0
1, 173276, Note_off_c, 0, 44, 50
1, 173346, Note_on_c, 0, 68, 61
1, 173359, Note_on_c, 0, 56, 50
1, 173370, Note_on_c, 0, 51, 43
1, 173374, Note_on_c, 0, 48, 34
1, 173382, Note_on_c, 0, 44, 18
1, 173409, Note_off_c, 0, 51, 55
1, 173417, Note_off_c, 0, 48, 48
1, 173430, Note_off_c, 0, 44, 48
1, 173520, Note_on_c, 0, 51, 48
1, 173521, Note_on_c, 0, 48, 43
1, 173522, Note_on_c, 0, 44, 30
1, 173567, Note_off_c, 0, 51, 58
1, 173571, Note_off_c, 0, 44, 53
1, 173573, Note_off_c, 0, 48, 55
1, 173648, Note_off_c, 0, 56, 35
1, 173668, Note_on_c, 0, 44, 31
1, 173672, Note_on_c, 0, 48, 40
1, 173676, Note_on_c, 0, 51, 46
1, 173718, Note_off_c, 0, 68, 24
1, 173729, Note_off_c, 0, 51, 56
1, 173731, Note_off_c, 0, 48, 55
1, 173732, Note_off_c, 0, 44, 51
1, 173828, Note_on_c, 0, 68, 65
1, 173837, Note_on_c, 0, 44, 19
1, 173843, Note_on_c, 0, 51, 45
1, 173844, Note_on_c, 0, 48, 35
1, 173846, Note_on_c, 0, 56, 54
1, 173886, Note_off_c, 0, 48, 57
1, 173889, Note_off_c, 0, 51, 57
1, 173902, Note_off_c, 0, 44, 43
1, 174002, Note_on_c, 0, 44, 32
1, 174011, Note_on_c, 0, 51, 46
1, 174017, Note_on_c, 0, 48, 46
1, 174048, Note_off_c, 0, 51, 56
1, 174050, Note_off_c, 0, 56, 36
1, 174055, Note_off_c, 0, 48, 58
1, 174056, Note_off_c, 0, 44, 52
1, 174082, Note_off_c, 0, 68, 38
1, 174182, Note_on_c, 0, 51, 49
1, 174197, Note_on_c, 0, 44, 52
1, 174199, Note_on_c, 0, 48, 33
1, 174217, Note_off_c, 0, 51, 64
1, 174228, Note_off_c, 0, 48, 53
1, 174246, Note_off_c, 0, 44, 61
1, 174401, Control_c, 0, 67, 20
1, 174416, Control_c, 0, 67, 32
1, 174432, Control_c, 0, 67, 43
1, 174447, Control_c, 0, 67, 51
1, 174461, Control_c, 0, 67, 58
1, 174476, Control_c, 0, 67, 64
1, 174491, Control_c, 0, 67, 68
1, 174506, Control_c, 0, 67, 72
1, 174521, Control_c, 0, 67, 75
1, 174536, Control_c, 0, 67, 75
1, 174542, Note_on_c, 0, 67, 71
1, 174552, Note_on_c, 0, 55, 56
1, 174565, Control_c, 0, 64, 94
1, 174565, Control_c, 0, 67, 76
1, 174569, Note_on_c, 0, 43, 55
1, 174573, Note_on_c, 0, 31, 52
1, 174580, Control_c, 0, 64, 70
1, 174594, Control_c, 0, 64, 50
1, 174594, Control_c, 0, 67, 75
1, 174609, Control_c, 0, 64, 0
1, 174609, Control_c, 0, 67, 75
1, 174624, Control_c, 0, 67, 74
1, 174654, Control_c, 0, 67, 73
1, 174683, Control_c, 0, 64, 37
1, 174695, Note_off_c, 0, 31, 63
1, 174698, Control_c, 0, 64, 58
1, 174713, Control_c, 0, 64, 67
1, 174736, Control_c, 0, 64, 78
1, 174750, Control_c, 0, 64, 111
1, 174750, Control_c, 0, 67, 74
1, 174755, Note_off_c, 0, 43, 61
1, 174765, Control_c, 0, 64, 127
1, 174765, Control_c, 0, 67, 75
1, 174795, Control_c, 0, 67, 75
1, 174824, Control_c, 0, 67, 76
1, 174839, Control_c, 0, 67, 77
1, 174854, Control_c, 0, 67, 78
1, 174869, Control_c, 0, 67, 79
1, 174883, Control_c, 0, 67, 80
1, 174898, Control_c, 0, 67, 88
1, 174913, Control_c, 0, 67, 102
1, 174928, Control_c, 0, 67, 115
1, 174943, Control_c, 0, 67, 127
1, 174956, Note_on_c, 0, 43, 33
1, 174966, Note_on_c, 0, 48, 34
1, 174968, Note_on_c, 0, 51, 21
1, 175011, Note_off_c, 0, 51, 42
1, 175061, Note_off_c, 0, 48, 0
1, 175074, Note_on_c, 0, 48, 34
1, 175136, Note_on_c, 0, 51, 12
1, 175200, Note_off_c, 0, 48, 0
1, 175220, Note_on_c, 0, 48, 22
1, 175229, Note_off_c, 0, 51, 0
1, 175245, Note_on_c, 0, 51, 37
1, 175296, Note_off_c, 0, 51, 57
1, 175326, Note_off_c, 0, 48, 0
1, 175364, Poly_aftertouch_c, 0, 48, 127
1, 175400, Note_on_c, 0, 51, 47
1, 175437, Note_off_c, 0, 51, 59
1, 175513, Poly_aftertouch_c, 0, 48, 0
1, 175535, Note_on_c, 0, 48, 14
1, 175558, Note_on_c, 0, 51, 51
1, 175603, Note_off_c, 0, 51, 57
1, 175662, Note_off_c, 0, 48, 0
1, 175687, Note_on_c, 0, 48, 5
1, 175709, Note_on_c, 0, 51, 47
1, 175757, Note_off_c, 0, 51, 57
1, 175817, Note_off_c, 0, 48, 0
1, 175842, Note_on_c, 0, 48, 7
1, 175860, Note_on_c, 0, 51, 44
1, 175898, Note_off_c, 0, 51, 60
1, 175907, Note_off_c, 0, 48, 56
1, 176004, Note_on_c, 0, 48, 37
1, 176012, Note_on_c, 0, 51, 49
1, 176046, Note_off_c, 0, 51, 58
1, 176051, Note_off_c, 0, 48, 58
1, 176120, Note_off_c, 0, 43, 0
1, 176151, Note_on_c, 0, 60, 61
1, 176158, Poly_aftertouch_c, 0, 43, 127
1, 176162, Note_on_c, 0, 51, 44
1, 176168, Note_on_c, 0, 48, 46
1, 176205, Note_off_c, 0, 51, 57
1, 176209, Note_off_c, 0, 48, 61
1, 176232, Control_c, 0, 67, 126
1, 176238, Note_off_c, 0, 67, 37
1, 176247, Control_c, 0, 67, 120
1, 176262, Control_c, 0, 67, 113
1, 176277, Control_c, 0, 67, 106
1, 176289, Poly_aftertouch_c, 0, 43, 0
1, 176292, Control_c, 0, 67, 97
1, 176307, Control_c, 0, 67, 86
1, 176321, Control_c, 0, 67, 73
1, 176325, Poly_aftertouch_c, 0, 43, 127
1, 176327, Note_on_c, 0, 43, 3
1, 176331, Note_on_c, 0, 51, 45
1, 176336, Note_on_c, 0, 48, 39
1, 176336, Control_c, 0, 67, 61
1, 176351, Control_c, 0, 67, 48
1, 176363, Note_off_c, 0, 51, 55
1, 176363, Note_off_c, 0, 60, 57
1, 176364, Note_off_c, 0, 48, 56
1, 176366, Control_c, 0, 67, 40
1, 176381, Control_c, 0, 67, 35
1, 176385, Note_off_c, 0, 43, 45
1, 176395, Control_c, 0, 67, 33
1, 176402, Note_off_c, 0, 55, 38
1, 176410, Control_c, 0, 67, 32
1, 176425, Control_c, 0, 67, 31
1, 176440, Control_c, 0, 67, 31
1, 176454, Control_c, 0, 67, 30
1, 176455, Note_on_c, 0, 43, 43
1, 176459, Note_on_c, 0, 51, 54
1, 176468, Note_on_c, 0, 48, 42
1, 176486, Note_off_c, 0, 51, 64
1, 176497, Note_off_c, 0, 48, 53
1, 176502, Note_off_c, 0, 43, 63
1, 176531, Note_on_c, 0, 63, 65
1, 176606, Note_off_c, 0, 63, 58
1, 176646, Control_c, 0, 64, 93
1, 176661, Control_c, 0, 64, 68
1, 176664, Note_on_c, 0, 67, 63
1, 176676, Control_c, 0, 64, 43
1, 176685, Note_on_c, 0, 55, 50
1, 176691, Control_c, 0, 64, 0
1, 176693, Note_on_c, 0, 43, 50
1, 176696, Note_on_c, 0, 31, 54
1, 176736, Control_c, 0, 64, 43
1, 176751, Control_c, 0, 64, 63
1, 176756, Note_off_c, 0, 31, 63
1, 176765, Control_c, 0, 64, 74
1, 176780, Control_c, 0, 64, 101
1, 176787, Note_off_c, 0, 43, 61
1, 176795, Control_c, 0, 64, 127
1, 176810, Control_c, 0, 67, 29
1, 176825, Control_c, 0, 67, 28
1, 176840, Control_c, 0, 67, 28
1, 176870, Control_c, 0, 67, 27
1, 176935, Note_on_c, 0, 43, 40
1, 176942, Note_on_c, 0, 51, 41
1, 176986, Note_off_c, 0, 51, 49
1, 176993, Note_off_c, 0, 43, 54
1, 176996, Control_c, 0, 67, 26
1, 177037, Note_off_c, 0, 67, 26
1, 177048, Note_off_c, 0, 55, 31
1, 177055, Control_c, 0, 67, 26
1, 177067, Note_on_c, 0, 43, 36
1, 177070, Control_c, 0, 67, 25
1, 177071, Note_on_c, 0, 48, 43
1, 177079, Note_on_c, 0, 51, 43
1, 177100, Control_c, 0, 67, 24
1, 177112, Note_off_c, 0, 48, 61
1, 177113, Note_off_c, 0, 51, 54
1, 177133, Note_off_c, 0, 43, 54
1, 177174, Control_c, 0, 67, 21
1, 177189, Control_c, 0, 67, 9
1, 177203, Control_c, 0, 67, 0
1, 177209, Note_on_c, 0, 67, 68
1, 177210, Note_on_c, 0, 51, 53
1, 177216, Note_on_c, 0, 48, 54
1, 177219, Note_on_c, 0, 43, 36
1, 177219, Note_on_c, 0, 55, 58
1, 177256, Note_off_c, 0, 51, 59
1, 177267, Note_off_c, 0, 48, 58
1, 177281, Note_off_c, 0, 43, 55
1, 177369, Note_on_c, 0, 51, 54
1, 177376, Note_on_c, 0, 43, 26
1, 177377, Note_on_c, 0, 48, 52
1, 177406, Note_off_c, 0, 51, 61
1, 177410, Note_off_c, 0, 48, 63
1, 177426, Note_off_c, 0, 43, 58
1, 177498, Note_off_c, 0, 67, 33
1, 177514, Note_on_c, 0, 51, 52
1, 177515, Note_off_c, 0, 55, 34
1, 177522, Note_on_c, 0, 48, 48
1, 177532, Note_on_c, 0, 43, 51
1, 177565, Note_off_c, 0, 51, 58
1, 177577, Note_off_c, 0, 43, 59
1, 177581, Note_off_c, 0, 48, 60
1, 177649, Note_on_c, 0, 67, 77
1, 177655, Note_on_c, 0, 55, 67
1, 177668, Note_on_c, 0, 51, 60
1, 177675, Note_on_c, 0, 43, 54
1, 177682, Note_on_c, 0, 48, 55
1, 177724, Note_off_c, 0, 51, 55
1, 177729, Note_off_c, 0, 43, 56
1, 177733, Note_off_c, 0, 48, 60
1, 177821, Note_on_c, 0, 51, 65
1, 177824, Note_on_c, 0, 48, 62
1, 177830, Note_on_c, 0, 43, 46
1, 177863, Note_off_c, 0, 51, 56
1, 177870, Note_off_c, 0, 43, 61
1, 177874, Note_off_c, 0, 48, 61
1, 177910, Note_off_c, 0, 67, 54
1, 177933, Note_off_c, 0, 55, 57
1, 177964, Note_on_c, 0, 43, 59
1, 177973, Note_on_c, 0, 51, 68
1, 177974, Note_on_c, 0, 48, 61
1, 178017, Note_off_c, 0, 51, 61
1, 178036, Note_off_c, 0, 48, 59
1, 178047, Note_off_c, 0, 43, 53
1, 178090, Note_on_c, 0, 67, 86
1, 178093, Note_on_c, 0, 55, 81
1, 178107, Note_on_c, 0, 43, 45
1, 178110, Note_on_c, 0, 51, 73
1, 178111, Note_on_c, 0, 48, 61
1, 178155, Note_off_c, 0, 51, 62
1, 178160, Note_off_c, 0, 48, 57
1, 178182, Note_off_c, 0, 43, 52
1, 178238, Note_on_c, 0, 51, 80
1, 178252, Note_on_c, 0, 48, 64
1, 178253, Note_on_c, 0, 43, 49
1, 178279, Note_off_c, 0, 67, 56
1, 178289, Note_off_c, 0, 51, 59
1, 178304, Note_off_c, 0, 43, 58
1, 178313, Note_off_c, 0, 48, 48
1, 178322, Note_off_c, 0, 55, 58
1, 178390, Note_on_c, 0, 51, 83
1, 178398, Note_on_c, 0, 43, 73
1, 178419, Note_off_c, 0, 51, 68
1, 178433, Note_off_c, 0, 43, 66
1, 178613, Control_c, 0, 64, 92
1, 178628, Control_c, 0, 64, 65
1, 178630, Note_on_c, 0, 65, 89
1, 178634, Note_on_c, 0, 53, 95
1, 178638, Note_on_c, 0, 41, 83
1, 178641, Note_on_c, 0, 29, 80
1, 178642, Control_c, 0, 64, 0
1, 178715, Control_c, 0, 64, 56
1, 178730, Control_c, 0, 64, 74
1, 178739, Note_off_c, 0, 29, 63
1, 178745, Control_c, 0, 64, 127
1, 178769, Note_off_c, 0, 41, 64
1, 178901, Note_on_c, 0, 51, 59
1, 178903, Note_on_c, 0, 41, 47
1, 178924, Note_off_c, 0, 51, 62
1, 178941, Note_off_c, 0, 41, 60
1, 179013, Note_on_c, 0, 51, 61
1, 179013, Note_off_c, 0, 53, 56
1, 179051, Note_off_c, 0, 65, 55
1, 179067, Note_off_c, 0, 51, 60
1, 179067, Poly_aftertouch_c, 0, 41, 0
1, 179166, Note_on_c, 0, 51, 61
1, 179172, Note_on_c, 0, 41, 51
1, 179202, Note_off_c, 0, 51, 62
1, 179204, Note_on_c, 0, 48, 32
1, 179218, Note_off_c, 0, 41, 53
1, 179245, Note_off_c, 0, 48, 48
1, 179314, Note_on_c, 0, 51, 66
1, 179320, Note_on_c, 0, 41, 53
1, 179332, Note_on_c, 0, 48, 61
1, 179353, Note_off_c, 0, 51, 60
1, 179361, Note_off_c, 0, 41, 60
1, 179368, Note_off_c, 0, 48, 61
1, 179440, Note_on_c, 0, 41, 66
1, 179449, Note_on_c, 0, 51, 71
1, 179463, Note_on_c, 0, 48, 43
1, 179475, Note_off_c, 0, 51, 67
1, 179492, Note_off_c, 0, 48, 54
1, 179503, Note_off_c, 0, 41, 64
1, 179613, Control_c, 0, 64, 99
1, 179618, Note_on_c, 0, 66, 98
1, 179620, Note_on_c, 0, 54, 101
1, 179627, Control_c, 0, 64, 67
1, 179631, Note_on_c, 0, 42, 90
1, 179635, Note_on_c, 0, 30, 80
1, 179642, Control_c, 0, 64, 0
1, 179698, Note_on_c, 0, 29, 13
1, 179717, Control_c, 0, 64, 44
1, 179732, Note_off_c, 0, 29, 53
1, 179732, Control_c, 0, 64, 63
1, 179735, Note_off_c, 0, 30, 63
1, 179746, Control_c, 0, 64, 75
1, 179753, Note_off_c, 0, 42, 64
1, 179761, Control_c, 0, 64, 108
1, 179776, Control_c, 0, 64, 127
1, 179847, Note_on_c, 0, 51, 75
1, 179860, Note_on_c, 0, 42, 61
1, 179886, Note_off_c, 0, 51, 59
1, 179887, Note_off_c, 0, 42, 66
1, 180002, Note_on_c, 0, 42, 56
1, 180009, Note_on_c, 0, 51, 55
1, 180042, Note_off_c, 0, 51, 63
1, 180045, Note_off_c, 0, 42, 60
1, 180140, Note_on_c, 0, 51, 53
1, 180142, Note_on_c, 0, 42, 54
1, 180195, Note_off_c, 0, 51, 57
1, 180197, Note_off_c, 0, 42, 57
1, 180258, Control_c, 0, 67, 11
1, 180273, Control_c, 0, 67, 19
1, 180287, Control_c, 0, 67, 28
1, 180302, Control_c, 0, 67, 40
1, 180303, Note_off_c, 0, 54, 53
1, 180308, Note_on_c, 0, 42, 51
1, 180317, Control_c, 0, 67, 50
1, 180319, Note_on_c, 0, 51, 52
1, 180332, Control_c, 0, 67, 60
1, 180347, Control_c, 0, 67, 69
1, 180362, Note_off_c, 0, 42, 47
1, 180362, Control_c, 0, 67, 76
1, 180376, Control_c, 0, 67, 82
1, 180379, Note_off_c, 0, 66, 49
1, 180391, Control_c, 0, 67, 88
1, 180406, Control_c, 0, 67, 93
1, 180408, Note_off_c, 0, 51, 43
1, 180420, Control_c, 0, 67, 97
1, 180435, Control_c, 0, 67, 102
1, 180450, Control_c, 0, 67, 107
1, 180465, Control_c, 0, 67, 112
1, 180480, Control_c, 0, 67, 117
1, 180495, Control_c, 0, 67, 121
1, 180510, Control_c, 0, 67, 127
1, 180525, Control_c, 0, 67, 127
1, 180556, Poly_aftertouch_c, 0, 51, 127
1, 180615, Poly_aftertouch_c, 0, 51, 0
1, 180724, Control_c, 0, 64, 115
1, 180739, Control_c, 0, 64, 95
1, 180754, Control_c, 0, 64, 82
1, 180769, Control_c, 0, 64, 73
1, 180784, Control_c, 0, 64, 66
1, 180799, Control_c, 0, 64, 60
1, 180811, Note_on_c, 0, 67, 52
1, 180814, Control_c, 0, 64, 50
1, 180829, Note_on_c, 0, 55, 34
1, 180829, Control_c, 0, 64, 41
1, 180842, Note_on_c, 0, 50, 38
1, 180844, Control_c, 0, 64, 36
1, 180853, Note_on_c, 0, 43, 36
1, 180859, Note_on_c, 0, 47, 36
1, 180859, Control_c, 0, 64, 33
1, 180869, Note_off_c, 0, 67, 53
1, 180873, Control_c, 0, 64, 24
1, 180878, Note_off_c, 0, 55, 55
1, 180888, Control_c, 0, 64, 0
1, 180986, Note_on_c, 0, 67, 47
1, 180996, Note_on_c, 0, 55, 44
1, 181036, Note_off_c, 0, 55, 55
1, 181038, Note_off_c, 0, 67, 57
1, 181124, Note_on_c, 0, 67, 38
1, 181142, Note_on_c, 0, 55, 38
1, 181186, Note_off_c, 0, 55, 53
1, 181194, Note_off_c, 0, 67, 50
1, 181264, Note_on_c, 0, 67, 35
1, 181275, Note_on_c, 0, 55, 37
1, 181329, Note_off_c, 0, 55, 54
1, 181334, Note_off_c, 0, 67, 53
1, 181392, Control_c, 0, 64, 21
1, 181401, Note_on_c, 0, 67, 35
1, 181407, Note_on_c, 0, 55, 36
1, 181407, Control_c, 0, 64, 29
1, 181422, Control_c, 0, 64, 36
1, 181437, Control_c, 0, 64, 42
1, 181452, Control_c, 0, 64, 48
1, 181474, Control_c, 0, 64, 53
1, 181475, Note_off_c, 0, 55, 56
1, 181479, Note_off_c, 0, 67, 54
1, 181489, Control_c, 0, 64, 56
1, 181504, Control_c, 0, 64, 58
1, 181518, Control_c, 0, 64, 60
1, 181533, Control_c, 0, 64, 61
1, 181548, Control_c, 0, 64, 62
1, 181558, Note_on_c, 0, 67, 33
1, 181563, Control_c, 0, 64, 64
1, 181568, Note_on_c, 0, 55, 34
1, 181578, Control_c, 0, 64, 64
1, 181592, Control_c, 0, 64, 65
1, 181607, Control_c, 0, 64, 66
1, 181618, Note_off_c, 0, 55, 53
1, 181623, Control_c, 0, 64, 68
1, 181624, Note_off_c, 0, 67, 55
1, 181638, Control_c, 0, 64, 69
1, 181653, Control_c, 0, 64, 69
1, 181667, Control_c, 0, 64, 70
1, 181682, Control_c, 0, 64, 71
1, 181697, Control_c, 0, 64, 72
1, 181709, Note_on_c, 0, 67, 32
1, 181712, Control_c, 0, 64, 73
1, 181714, Note_on_c, 0, 55, 40
1, 181727, Control_c, 0, 64, 74
1, 181741, Control_c, 0, 64, 75
1, 181756, Control_c, 0, 64, 76
1, 181765, Note_off_c, 0, 55, 56
1, 181766, Note_off_c, 0, 67, 52
1, 181771, Control_c, 0, 64, 78
1, 181786, Control_c, 0, 64, 79
1, 181801, Control_c, 0, 64, 81
1, 181815, Control_c, 0, 64, 82
1, 181823, Note_off_c, 0, 50, 36
1, 181830, Control_c, 0, 64, 83
1, 181845, Control_c, 0, 64, 83
1, 181853, Note_off_c, 0, 43, 36
1, 181854, Note_on_c, 0, 67, 35
1, 181860, Control_c, 0, 64, 84
1, 181866, Note_on_c, 0, 55, 38
1, 181875, Control_c, 0, 64, 84
1, 181905, Note_off_c, 0, 55, 49
1, 181913, Note_off_c, 0, 67, 54
1, 181920, Note_off_c, 0, 47, 38
1, 182015, Note_on_c, 0, 67, 36
1, 182024, Note_on_c, 0, 55, 41
1, 182058, Note_off_c, 0, 55, 51
1, 182060, Note_off_c, 0, 67, 46
1, 182112, Control_c, 0, 64, 84
1, 182141, Control_c, 0, 64, 83
1, 182156, Control_c, 0, 64, 83
1, 182171, Control_c, 0, 64, 82
1, 182186, Control_c, 0, 64, 82
1, 182201, Control_c, 0, 64, 81
1, 182203, Note_on_c, 0, 55, 33
1, 182213, Note_on_c, 0, 67, 49
1, 182223, Note_on_c, 0, 47, 52
1, 182223, Control_c, 0, 64, 80
1, 182238, Control_c, 0, 64, 79
1, 182253, Control_c, 0, 64, 77
1, 182265, Note_off_c, 0, 67, 52
1, 182267, Control_c, 0, 64, 75
1, 182273, Note_off_c, 0, 55, 53
1, 182282, Control_c, 0, 64, 72
1, 182297, Control_c, 0, 64, 67
1, 182312, Control_c, 0, 64, 62
1, 182327, Control_c, 0, 64, 54
1, 182341, Control_c, 0, 64, 43
1, 182356, Control_c, 0, 64, 33
1, 182371, Control_c, 0, 64, 31
1, 182405, Note_on_c, 0, 55, 43
1, 182417, Control_c, 0, 64, 34
1, 182418, Note_on_c, 0, 67, 39
1, 182432, Control_c, 0, 64, 38
1, 182446, Control_c, 0, 64, 46
1, 182452, Note_off_c, 0, 55, 57
1, 182453, Note_off_c, 0, 67, 56
1, 182461, Control_c, 0, 64, 53
1, 182476, Control_c, 0, 64, 59
1, 182490, Control_c, 0, 64, 62
1, 182505, Control_c, 0, 64, 64
1, 182520, Control_c, 0, 64, 65
1, 182535, Control_c, 0, 64, 67
1, 182550, Control_c, 0, 64, 68
1, 182564, Control_c, 0, 64, 69
1, 182565, Note_on_c, 0, 67, 46
1, 182577, Note_on_c, 0, 55, 41
1, 182579, Control_c, 0, 64, 71
1, 182594, Control_c, 0, 64, 72
1, 182609, Control_c, 0, 64, 72
1, 182613, Note_off_c, 0, 55, 52
1, 182614, Note_off_c, 0, 67, 59
1, 182632, Note_on_c, 0, 48, 54
1, 182668, Control_c, 0, 64, 72
1, 182675, Note_off_c, 0, 47, 57
1, 182683, Control_c, 0, 64, 71
1, 182698, Control_c, 0, 64, 71
1, 182713, Control_c, 0, 64, 70
1, 182728, Control_c, 0, 64, 69
1, 182734, Note_on_c, 0, 50, 64
1, 182742, Control_c, 0, 64, 67
1, 182748, Note_on_c, 0, 55, 41
1, 182756, Note_on_c, 0, 67, 44
1, 182757, Control_c, 0, 64, 64
1, 182766, Note_off_c, 0, 48, 59
1, 182772, Control_c, 0, 64, 57
1, 182787, Control_c, 0, 64, 44
1, 182802, Control_c, 0, 64, 22
1, 182802, Note_off_c, 0, 55, 55
1, 182804, Note_off_c, 0, 67, 60
1, 182816, Control_c, 0, 64, 0
1, 182916, Note_on_c, 0, 67, 47
1, 182920, Control_c, 0, 64, 25
1, 182933, Note_on_c, 0, 55, 37
1, 182935, Control_c, 0, 64, 41
1, 182950, Control_c, 0, 64, 55
1, 182970, Note_off_c, 0, 67, 60
1, 182972, Control_c, 0, 64, 61
1, 182980, Note_off_c, 0, 55, 48
1, 182987, Control_c, 0, 64, 64
1, 183002, Control_c, 0, 64, 67
1, 183016, Control_c, 0, 64, 69
1, 183031, Control_c, 0, 64, 71
1, 183046, Control_c, 0, 64, 74
1, 183055, Note_off_c, 0, 50, 52
1, 183061, Control_c, 0, 64, 78
1, 183076, Control_c, 0, 64, 82
1, 183088, Note_on_c, 0, 67, 39
1, 183090, Control_c, 0, 64, 85
1, 183100, Note_on_c, 0, 55, 38
1, 183105, Control_c, 0, 64, 88
1, 183120, Control_c, 0, 64, 89
1, 183126, Note_off_c, 0, 67, 48
1, 183136, Note_off_c, 0, 55, 50
1, 183179, Control_c, 0, 64, 89
1, 183194, Control_c, 0, 64, 88
1, 183209, Control_c, 0, 64, 87
1, 183224, Control_c, 0, 64, 85
1, 183239, Control_c, 0, 64, 82
1, 183249, Note_on_c, 0, 55, 49
1, 183251, Note_on_c, 0, 67, 47
1, 183254, Control_c, 0, 64, 77
1, 183261, Note_on_c, 0, 50, 58
1, 183268, Control_c, 0, 64, 70
1, 183283, Control_c, 0, 64, 63
1, 183292, Note_off_c, 0, 67, 60
1, 183298, Control_c, 0, 64, 49
1, 183300, Note_off_c, 0, 55, 57
1, 183312, Control_c, 0, 64, 30
1, 183327, Control_c, 0, 64, 25
1, 183342, Control_c, 0, 64, 26
1, 183357, Control_c, 0, 64, 30
1, 183372, Control_c, 0, 64, 36
1, 183386, Control_c, 0, 64, 45
1, 183401, Control_c, 0, 64, 54
1, 183403, Note_on_c, 0, 67, 45
1, 183416, Control_c, 0, 64, 61
1, 183421, Note_on_c, 0, 55, 38
1, 183431, Control_c, 0, 64, 65
1, 183446, Control_c, 0, 64, 67
1, 183454, Note_off_c, 0, 67, 58
1, 183458, Note_off_c, 0, 55, 53
1, 183461, Control_c, 0, 64, 70
1, 183476, Control_c, 0, 64, 73
1, 183491, Control_c, 0, 64, 76
1, 183505, Control_c, 0, 64, 80
1, 183520, Control_c, 0, 64, 84
1, 183535, Control_c, 0, 64, 87
1, 183542, Note_off_c, 0, 50, 56
1, 183550, Control_c, 0, 64, 90
1, 183565, Control_c, 0, 64, 91
1, 183573, Note_on_c, 0, 55, 49
1, 183579, Control_c, 0, 64, 92
1, 183581, Note_on_c, 0, 67, 40
1, 183614, Note_off_c, 0, 67, 51
1, 183616, Note_off_c, 0, 55, 56
1, 183653, Control_c, 0, 64, 91
1, 183668, Control_c, 0, 64, 90
1, 183683, Control_c, 0, 64, 89
1, 183698, Control_c, 0, 64, 87
1, 183720, Control_c, 0, 64, 85
1, 183734, Note_on_c, 0, 67, 45
1, 183735, Control_c, 0, 64, 81
1, 183736, Note_on_c, 0, 50, 59
1, 183736, Note_on_c, 0, 55, 49
1, 183750, Control_c, 0, 64, 74
1, 183765, Control_c, 0, 64, 66
1, 183780, Control_c, 0, 64, 56
1, 183784, Note_off_c, 0, 55, 59
1, 183786, Note_off_c, 0, 67, 59
1, 183794, Control_c, 0, 64, 37
1, 183809, Control_c, 0, 64, 32
1, 183838, Control_c, 0, 64, 36
1, 183853, Control_c, 0, 64, 40
1, 183868, Control_c, 0, 64, 47
1, 183883, Control_c, 0, 64, 56
1, 183896, Note_on_c, 0, 55, 44
1, 183898, Control_c, 0, 64, 61
1, 183909, Note_on_c, 0, 67, 36
1, 183913, Control_c, 0, 64, 64
1, 183928, Control_c, 0, 64, 66
1, 183941, Note_off_c, 0, 55, 57
1, 183942, Note_off_c, 0, 67, 53
1, 183943, Control_c, 0, 64, 69
1, 183957, Control_c, 0, 64, 71
1, 183972, Control_c, 0, 64, 74
1, 183986, Control_c, 0, 64, 77
1, 184001, Control_c, 0, 64, 80
1, 184017, Control_c, 0, 64, 82
1, 184032, Control_c, 0, 64, 83
1, 184055, Note_on_c, 0, 67, 46
1, 184060, Note_on_c, 0, 55, 43
1, 184062, Control_c, 0, 64, 84
1, 184072, Note_off_c, 0, 50, 56
1, 184077, Control_c, 0, 64, 84
1, 184091, Control_c, 0, 64, 85
1, 184097, Note_off_c, 0, 55, 51
1, 184097, Note_off_c, 0, 67, 58
1, 184106, Control_c, 0, 64, 85
1, 184150, Control_c, 0, 64, 86
1, 184195, Control_c, 0, 64, 85
1, 184209, Control_c, 0, 64, 85
1, 184216, Note_on_c, 0, 55, 45
1, 184219, Note_on_c, 0, 48, 61
1, 184221, Note_on_c, 0, 67, 45
1, 184224, Control_c, 0, 64, 84
1, 184239, Control_c, 0, 64, 82
1, 184254, Control_c, 0, 64, 80
1, 184269, Control_c, 0, 64, 76
1, 184270, Note_off_c, 0, 55, 53
1, 184273, Note_off_c, 0, 67, 59
1, 184284, Control_c, 0, 64, 71
1, 184298, Control_c, 0, 64, 64
1, 184313, Control_c, 0, 64, 55
1, 184328, Control_c, 0, 64, 42
1, 184343, Control_c, 0, 64, 32
1, 184397, Note_on_c, 0, 67, 46
1, 184409, Note_on_c, 0, 55, 37
1, 184417, Control_c, 0, 64, 34
1, 184432, Control_c, 0, 64, 38
1, 184445, Note_off_c, 0, 67, 60
1, 184447, Control_c, 0, 64, 45
1, 184449, Note_off_c, 0, 55, 50
1, 184468, Control_c, 0, 64, 52
1, 184483, Control_c, 0, 64, 58
1, 184498, Control_c, 0, 64, 62
1, 184513, Control_c, 0, 64, 65
1, 184528, Control_c, 0, 64, 67
1, 184543, Control_c, 0, 64, 70
1, 184558, Control_c, 0, 64, 73
1, 184573, Control_c, 0, 64, 78
1, 184576, Note_on_c, 0, 67, 47
1, 184577, Note_on_c, 0, 55, 49
1, 184588, Control_c, 0, 64, 83
1, 184603, Control_c, 0, 64, 88
1, 184617, Control_c, 0, 64, 94
1, 184623, Note_off_c, 0, 55, 59
1, 184623, Note_off_c, 0, 67, 59
1, 184632, Control_c, 0, 64, 98
1, 184647, Control_c, 0, 64, 98
1, 184678, Note_on_c, 0, 50, 58
1, 184719, Note_off_c, 0, 48, 51
1, 184721, Control_c, 0, 64, 97
1, 184735, Control_c, 0, 64, 96
1, 184750, Control_c, 0, 64, 95
1, 184765, Control_c, 0, 64, 93
1, 184780, Control_c, 0, 64, 91
1, 184794, Note_on_c, 0, 51, 64
1, 184795, Control_c, 0, 64, 88
1, 184811, Control_c, 0, 64, 84
1, 184815, Note_on_c, 0, 67, 47
1, 184816, Note_on_c, 0, 55, 44
1, 184826, Control_c, 0, 64, 78
1, 184840, Control_c, 0, 64, 72
1, 184844, Note_off_c, 0, 50, 52
1, 184855, Control_c, 0, 64, 66
1, 184863, Note_off_c, 0, 55, 49
1, 184865, Note_off_c, 0, 67, 59
1, 184870, Control_c, 0, 64, 59
1, 184884, Control_c, 0, 64, 47
1, 184899, Control_c, 0, 64, 35
1, 184914, Control_c, 0, 64, 25
1, 184929, Control_c, 0, 64, 21
1, 184944, Control_c, 0, 64, 17
1, 184958, Control_c, 0, 64, 17
1, 184981, Note_on_c, 0, 55, 43
1, 184983, Note_on_c, 0, 67, 43
1, 184988, Control_c, 0, 64, 19
1, 185003, Control_c, 0, 64, 29
1, 185018, Control_c, 0, 64, 37
1, 185032, Control_c, 0, 64, 47
1, 185038, Note_off_c, 0, 55, 57
1, 185038, Note_off_c, 0, 67, 57
1, 185047, Control_c, 0, 64, 56
1, 185062, Control_c, 0, 64, 61
1, 185077, Control_c, 0, 64, 63
1, 185091, Control_c, 0, 64, 65
1, 185106, Control_c, 0, 64, 65
1, 185121, Control_c, 0, 64, 66
1, 185156, Note_on_c, 0, 67, 33
1, 185163, Note_on_c, 0, 55, 28
1, 185190, Note_off_c, 0, 67, 52
1, 185196, Control_c, 0, 64, 65
1, 185199, Note_off_c, 0, 55, 47
1, 185233, Control_c, 0, 64, 65
1, 185247, Control_c, 0, 64, 64
1, 185262, Control_c, 0, 64, 64
1, 185306, Control_c, 0, 64, 64
1, 185309, Note_on_c, 0, 55, 39
1, 185321, Note_on_c, 0, 67, 32
1, 185336, Control_c, 0, 64, 65
1, 185346, Note_off_c, 0, 55, 54
1, 185351, Control_c, 0, 64, 66
1, 185353, Note_off_c, 0, 67, 52
1, 185366, Control_c, 0, 64, 66
1, 185381, Control_c, 0, 64, 67
1, 185395, Control_c, 0, 64, 69
1, 185410, Control_c, 0, 64, 71
1, 185425, Control_c, 0, 64, 73
1, 185440, Control_c, 0, 64, 76
1, 185455, Control_c, 0, 64, 80
1, 185458, Note_on_c, 0, 67, 46
1, 185464, Note_on_c, 0, 55, 39
1, 185470, Control_c, 0, 64, 84
1, 185484, Control_c, 0, 64, 87
1, 185491, Note_off_c, 0, 67, 55
1, 185499, Note_off_c, 0, 55, 51
1, 185499, Control_c, 0, 64, 89
1, 185545, Note_on_c, 0, 50, 55
1, 185596, Note_off_c, 0, 51, 33
1, 185601, Note_on_c, 0, 55, 51
1, 185604, Control_c, 0, 64, 88
1, 185607, Note_on_c, 0, 67, 49
1, 185648, Note_off_c, 0, 55, 58
1, 185649, Control_c, 0, 64, 87
1, 185655, Note_off_c, 0, 67, 59
1, 185663, Control_c, 0, 64, 87
1, 185678, Control_c, 0, 64, 86
1, 185693, Control_c, 0, 64, 86
1, 185707, Control_c, 0, 64, 85
1, 185722, Control_c, 0, 64, 83
1, 185737, Control_c, 0, 64, 81
1, 185752, Control_c, 0, 64, 78
1, 185759, Note_on_c, 0, 48, 60
1, 185767, Control_c, 0, 64, 73
1, 185771, Note_off_c, 0, 50, 59
1, 185774, Note_on_c, 0, 55, 47
1, 185775, Note_on_c, 0, 67, 48
1, 185781, Control_c, 0, 64, 67
1, 185796, Control_c, 0, 64, 61
1, 185811, Control_c, 0, 64, 49
1, 185817, Note_off_c, 0, 67, 59
1, 185820, Note_off_c, 0, 55, 58
1, 185826, Control_c, 0, 64, 32
1, 185841, Control_c, 0, 64, 17
1, 185855, Control_c, 0, 64, 15
1, 185885, Control_c, 0, 64, 16
1, 185900, Control_c, 0, 64, 25
1, 185914, Control_c, 0, 64, 36
1, 185926, Note_on_c, 0, 55, 50
1, 185929, Control_c, 0, 64, 49
1, 185944, Note_on_c, 0, 67, 48
1, 185944, Control_c, 0, 64, 58
1, 185967, Control_c, 0, 64, 63
1, 185978, Note_off_c, 0, 55, 60
1, 185982, Control_c, 0, 64, 66
1, 185982, Control_c, 0, 67, 110
1, 185989, Note_off_c, 0, 67, 63
1, 185996, Control_c, 0, 64, 69
1, 185996, Control_c, 0, 67, 90
1, 186011, Control_c, 0, 64, 73
1, 186011, Control_c, 0, 67, 70
1, 186026, Control_c, 0, 64, 78
1, 186026, Control_c, 0, 67, 51
1, 186041, Control_c, 0, 64, 84
1, 186041, Control_c, 0, 67, 38
1, 186055, Control_c, 0, 64, 90
1, 186055, Control_c, 0, 67, 28
1, 186070, Control_c, 0, 64, 95
1, 186070, Control_c, 0, 67, 19
1, 186085, Control_c, 0, 64, 100
1, 186085, Control_c, 0, 67, 13
1, 186090, Note_on_c, 0, 67, 52
1, 186094, Note_on_c, 0, 55, 49
1, 186100, Control_c, 0, 64, 103
1, 186100, Control_c, 0, 67, 9
1, 186114, Control_c, 0, 64, 104
1, 186114, Control_c, 0, 67, 0
1, 186147, Note_off_c, 0, 55, 57
1, 186151, Note_off_c, 0, 67, 51
1, 186188, Control_c, 0, 64, 102
1, 186203, Control_c, 0, 64, 100
1, 186218, Control_c, 0, 64, 98
1, 186233, Control_c, 0, 64, 95
1, 186248, Control_c, 0, 64, 91
1, 186251, Note_on_c, 0, 46, 64
1, 186263, Control_c, 0, 64, 87
1, 186273, Note_on_c, 0, 55, 49
1, 186276, Note_off_c, 0, 48, 53
1, 186278, Control_c, 0, 64, 80
1, 186283, Note_on_c, 0, 67, 48
1, 186293, Control_c, 0, 64, 70
1, 186307, Note_off_c, 0, 55, 57
1, 186307, Control_c, 0, 64, 57
1, 186310, Note_off_c, 0, 67, 57
1, 186322, Control_c, 0, 64, 32
1, 186337, Control_c, 0, 64, 0
1, 186396, Control_c, 0, 64, 26
1, 186412, Note_on_c, 0, 67, 52
1, 186412, Control_c, 0, 64, 42
1, 186415, Note_on_c, 0, 55, 54
1, 186427, Control_c, 0, 64, 55
1, 186442, Control_c, 0, 64, 62
1, 186457, Control_c, 0, 64, 66
1, 186461, Note_off_c, 0, 67, 59
1, 186467, Note_off_c, 0, 55, 62
1, 186472, Control_c, 0, 64, 70
1, 186486, Control_c, 0, 64, 75
1, 186501, Control_c, 0, 64, 82
1, 186516, Control_c, 0, 64, 88
1, 186530, Control_c, 0, 64, 94
1, 186545, Control_c, 0, 64, 96
1, 186560, Control_c, 0, 64, 97
1, 186580, Note_on_c, 0, 53, 62
1, 186582, Note_on_c, 0, 65, 60
1, 186615, Note_off_c, 0, 53, 64
1, 186633, Note_off_c, 0, 65, 55
1, 186634, Control_c, 0, 64, 96
1, 186644, Note_on_c, 0, 44, 62
1, 186649, Control_c, 0, 64, 95
1, 186663, Control_c, 0, 64, 94
1, 186678, Control_c, 0, 64, 93
1, 186689, Note_off_c, 0, 46, 49
1, 186693, Control_c, 0, 64, 91
1, 186716, Control_c, 0, 64, 89
1, 186730, Control_c, 0, 64, 84
1, 186745, Control_c, 0, 64, 76
1, 186760, Control_c, 0, 64, 67
1, 186768, Note_on_c, 0, 43, 61
1, 186773, Note_on_c, 0, 63, 41
1, 186775, Control_c, 0, 64, 55
1, 186777, Note_on_c, 0, 55, 53
1, 186782, Note_on_c, 0, 60, 43
1, 186783, Note_on_c, 0, 67, 52
1, 186788, Note_off_c, 0, 44, 59
1, 186790, Control_c, 0, 64, 38
1, 186805, Control_c, 0, 64, 11
1, 186819, Control_c, 0, 64, 0
1, 186822, Note_off_c, 0, 55, 59
1, 186830, Note_off_c, 0, 67, 56
1, 186832, Note_off_c, 0, 63, 55
1, 186838, Note_off_c, 0, 60, 56
1, 186937, Control_c, 0, 64, 42
1, 186952, Control_c, 0, 64, 58
1, 186957, Note_on_c, 0, 55, 44
1, 186965, Note_on_c, 0, 60, 48
1, 186965, Note_on_c, 0, 67, 42
1, 186967, Note_on_c, 0, 63, 45
1, 186967, Control_c, 0, 64, 66
1, 186982, Control_c, 0, 64, 71
1, 186997, Control_c, 0, 64, 80
1, 187002, Note_off_c, 0, 67, 60
1, 187008, Note_off_c, 0, 55, 55
1, 187010, Note_off_c, 0, 60, 59
1, 187010, Note_off_c, 0, 63, 61
1, 187011, Control_c, 0, 64, 93
1, 187026, Control_c, 0, 64, 116
1, 187041, Control_c, 0, 64, 127
1, 187102, Note_off_c, 0, 43, 60
1, 187117, Note_on_c, 0, 67, 40
1, 187122, Note_on_c, 0, 60, 47
1, 187125, Note_on_c, 0, 63, 42
1, 187126, Note_on_c, 0, 55, 42
1, 187157, Note_off_c, 0, 67, 58
1, 187159, Note_off_c, 0, 55, 53
1, 187161, Note_off_c, 0, 63, 58
1, 187162, Note_off_c, 0, 60, 61
1, 187205, Control_c, 0, 64, 111
1, 187220, Control_c, 0, 64, 94
1, 187235, Control_c, 0, 64, 79
1, 187250, Control_c, 0, 64, 68
1, 187257, Note_on_c, 0, 43, 53
1, 187264, Control_c, 0, 64, 56
1, 187268, Note_on_c, 0, 55, 46
1, 187270, Note_on_c, 0, 60, 50
1, 187272, Note_on_c, 0, 63, 38
1, 187273, Note_on_c, 0, 67, 40
1, 187279, Control_c, 0, 64, 30
1, 187294, Control_c, 0, 64, 0
1, 187314, Note_off_c, 0, 63, 62
1, 187315, Note_off_c, 0, 60, 60
1, 187318, Note_off_c, 0, 55, 58
1, 187320, Note_off_c, 0, 67, 61
1, 187353, Control_c, 0, 64, 11
1, 187368, Control_c, 0, 64, 25
1, 187383, Control_c, 0, 64, 39
1, 187398, Control_c, 0, 64, 52
1, 187413, Control_c, 0, 64, 60
1, 187426, Note_on_c, 0, 63, 45
1, 187428, Control_c, 0, 64, 64
1, 187429, Note_on_c, 0, 60, 49
1, 187434, Note_on_c, 0, 55, 44
1, 187443, Note_on_c, 0, 67, 35
1, 187443, Control_c, 0, 64, 67
1, 187465, Control_c, 0, 64, 71
1, 187479, Control_c, 0, 64, 75
1, 187482, Note_off_c, 0, 67, 52
1, 187484, Note_off_c, 0, 60, 59
1, 187484, Note_off_c, 0, 63, 59
1, 187485, Note_off_c, 0, 55, 59
1, 187494, Control_c, 0, 64, 80
1, 187509, Control_c, 0, 64, 85
1, 187524, Control_c, 0, 64, 91
1, 187539, Control_c, 0, 64, 96
1, 187554, Control_c, 0, 64, 99
1, 187569, Control_c, 0, 64, 100
1, 187591, Note_on_c, 0, 55, 57
1, 187591, Note_on_c, 0, 63, 56
1, 187592, Note_on_c, 0, 60, 57
1, 187603, Note_on_c, 0, 67, 30
1, 187614, Note_off_c, 0, 43, 61
1, 187626, Note_off_c, 0, 60, 64
1, 187628, Note_off_c, 0, 63, 62
1, 187633, Note_off_c, 0, 55, 59
1, 187636, Note_off_c, 0, 67, 53
1, 187643, Control_c, 0, 64, 99
1, 187658, Control_c, 0, 64, 99
1, 187673, Control_c, 0, 64, 97
1, 187687, Control_c, 0, 64, 95
1, 187702, Control_c, 0, 64, 92
1, 187717, Control_c, 0, 64, 89
1, 187732, Control_c, 0, 64, 84
1, 187747, Control_c, 0, 64, 76
1, 187753, Note_on_c, 0, 43, 55
1, 187758, Note_on_c, 0, 55, 53
1, 187762, Control_c, 0, 64, 68
1, 187768, Note_on_c, 0, 59, 48
1, 187768, Note_on_c, 0, 67, 28
1, 187774, Note_on_c, 0, 62, 42
1, 187777, Control_c, 0, 64, 58
1, 187792, Control_c, 0, 64, 35
1, 187805, Note_off_c, 0, 55, 58
1, 187807, Control_c, 0, 64, 0
1, 187808, Note_off_c, 0, 67, 54
1, 187814, Note_off_c, 0, 59, 60
1, 187821, Note_off_c, 0, 62, 58
1, 187880, Control_c, 0, 64, 23
1, 187895, Control_c, 0, 64, 42
1, 187910, Control_c, 0, 64, 54
1, 187911, Note_on_c, 0, 55, 47
1, 187912, Note_on_c, 0, 67, 49
1, 187918, Note_on_c, 0, 59, 52
1, 187925, Control_c, 0, 64, 61
1, 187928, Note_on_c, 0, 62, 51
1, 187940, Control_c, 0, 64, 65
1, 187954, Control_c, 0, 64, 67
1, 187959, Note_off_c, 0, 55, 59
1, 187961, Note_off_c, 0, 59, 61
1, 187962, Note_off_c, 0, 67, 58
1, 187965, Note_off_c, 0, 62, 63
1, 187969, Control_c, 0, 64, 70
1, 187984, Control_c, 0, 64, 73
1, 188000, Control_c, 0, 64, 76
1, 188015, Control_c, 0, 64, 78
1, 188030, Control_c, 0, 64, 82
1, 188045, Control_c, 0, 64, 86
1, 188059, Control_c, 0, 64, 90
1, 188074, Control_c, 0, 64, 93
1, 188078, Note_on_c, 0, 55, 42
1, 188084, Note_on_c, 0, 62, 29
1, 188089, Control_c, 0, 64, 94
1, 188090, Note_on_c, 0, 59, 35
1, 188090, Note_off_c, 0, 43, 59
1, 188116, Note_off_c, 0, 55, 53
1, 188118, Control_c, 0, 64, 92
1, 188122, Note_off_c, 0, 59, 52
1, 188129, Note_off_c, 0, 62, 48
1, 188133, Control_c, 0, 64, 92
1, 188163, Control_c, 0, 64, 91
1, 188177, Control_c, 0, 64, 89
1, 188182, Poly_aftertouch_c, 0, 67, 0
1, 188192, Control_c, 0, 64, 87
1, 188215, Control_c, 0, 64, 84
1, 188223, Note_on_c, 0, 59, 48
1, 188227, Note_on_c, 0, 55, 53
1, 188230, Control_c, 0, 64, 78
1, 188233, Note_on_c, 0, 43, 54
1, 188245, Note_on_c, 0, 62, 50
1, 188245, Control_c, 0, 64, 69
1, 188259, Control_c, 0, 64, 62
1, 188268, Note_off_c, 0, 55, 59
1, 188274, Control_c, 0, 64, 48
1, 188277, Note_off_c, 0, 59, 58
1, 188285, Note_off_c, 0, 62, 62
1, 188289, Control_c, 0, 64, 44
1, 188302, Poly_aftertouch_c, 0, 67, 0
1, 188303, Control_c, 0, 64, 46
1, 188318, Control_c, 0, 64, 51
1, 188333, Control_c, 0, 64, 56
1, 188348, Control_c, 0, 64, 60
1, 188363, Control_c, 0, 64, 63
1, 188377, Control_c, 0, 64, 65
1, 188392, Control_c, 0, 64, 67
1, 188393, Note_on_c, 0, 55, 47
1, 188394, Note_on_c, 0, 62, 46
1, 188398, Note_on_c, 0, 59, 46
1, 188407, Control_c, 0, 64, 71
1, 188409, Note_on_c, 0, 67, 31
1, 188422, Control_c, 0, 64, 75
1, 188437, Control_c, 0, 64, 80
1, 188438, Note_off_c, 0, 55, 58
1, 188438, Note_off_c, 0, 59, 60
1, 188439, Note_off_c, 0, 62, 60
1, 188442, Note_off_c, 0, 67, 50
1, 188452, Control_c, 0, 64, 86
1, 188467, Control_c, 0, 64, 92
1, 188482, Control_c, 0, 64, 99
1, 188497, Control_c, 0, 64, 107
1, 188511, Control_c, 0, 64, 113
1, 188526, Control_c, 0, 64, 121
1, 188538, Note_on_c, 0, 67, 49
1, 188541, Control_c, 0, 64, 127
1, 188549, Note_on_c, 0, 59, 48
1, 188550, Note_on_c, 0, 55, 48
1, 188555, Note_on_c, 0, 62, 44
1, 188581, Note_off_c, 0, 62, 61
1, 188586, Note_off_c, 0, 67, 57
1, 188588, Note_off_c, 0, 59, 58
1, 188594, Note_off_c, 0, 55, 60
1, 188660, Control_c, 0, 64, 118
1, 188674, Control_c, 0, 64, 112
1, 188689, Control_c, 0, 64, 107
1, 188704, Control_c, 0, 64, 101
1, 188719, Control_c, 0, 64, 94
1, 188734, Control_c, 0, 64, 83
1, 188746, Note_on_c, 0, 63, 47
1, 188749, Note_on_c, 0, 67, 43
1, 188749, Control_c, 0, 64, 72
1, 188749, Note_on_c, 0, 48, 50
1, 188749, Note_on_c, 0, 55, 45
1, 188758, Note_on_c, 0, 60, 46
1, 188764, Control_c, 0, 64, 63
1, 188765, Note_off_c, 0, 43, 56
1, 188778, Control_c, 0, 64, 47
1, 188793, Control_c, 0, 64, 0
1, 188806, Note_off_c, 0, 55, 57
1, 188871, Note_off_c, 0, 67, 0
1, 188877, Note_off_c, 0, 63, 0
1, 188888, Note_on_c, 0, 67, 31
1, 188913, Control_c, 0, 64, 13
1, 188914, Poly_aftertouch_c, 0, 63, 127
1, 188916, Note_on_c, 0, 55, 49
1, 188927, Control_c, 0, 64, 40
1, 188942, Control_c, 0, 64, 55
1, 188964, Control_c, 0, 64, 62
1, 188972, Note_off_c, 0, 55, 57
1, 188978, Poly_aftertouch_c, 0, 63, 0
1, 188978, Note_off_c, 0, 67, 58
1, 188979, Control_c, 0, 64, 65
1, 188994, Control_c, 0, 64, 69
1, 189008, Control_c, 0, 64, 73
1, 189018, Note_off_c, 0, 60, 36
1, 189023, Control_c, 0, 64, 77
1, 189038, Control_c, 0, 64, 82
1, 189053, Control_c, 0, 64, 87
1, 189059, Note_on_c, 0, 67, 45
1, 189068, Control_c, 0, 64, 94
1, 189074, Note_on_c, 0, 55, 51
1, 189083, Control_c, 0, 64, 102
1, 189098, Control_c, 0, 64, 113
1, 189112, Note_off_c, 0, 55, 59
1, 189112, Note_off_c, 0, 67, 56
1, 189113, Control_c, 0, 64, 127
1, 189211, Note_on_c, 0, 55, 56
1, 189216, Note_on_c, 0, 67, 62
1, 189233, Note_off_c, 0, 48, 33
1, 189255, Note_off_c, 0, 55, 60
1, 189259, Note_off_c, 0, 67, 59
1, 189360, Note_on_c, 0, 67, 66
1, 189362, Note_on_c, 0, 55, 62
1, 189392, Note_off_c, 0, 67, 60
1, 189397, Note_off_c, 0, 55, 63
1, 189494, Note_on_c, 0, 55, 67
1, 189495, Note_on_c, 0, 67, 71
1, 189552, Note_off_c, 0, 55, 62
1, 189557, Note_off_c, 0, 67, 62
1, 189652, Note_on_c, 0, 67, 69
1, 189653, Note_on_c, 0, 55, 70
1, 189703, Note_off_c, 0, 55, 63
1, 189703, Note_off_c, 0, 67, 49
1, 189795, Note_on_c, 0, 55, 67
1, 189804, Note_on_c, 0, 67, 74
1, 189834, Note_off_c, 0, 55, 54
1, 189840, Note_off_c, 0, 67, 58
1, 189945, Note_on_c, 0, 55, 69
1, 189947, Note_on_c, 0, 67, 70
1, 189983, Note_off_c, 0, 55, 54
1, 189985, Note_off_c, 0, 67, 57
1, 190101, Note_on_c, 0, 47, 84
1, 190113, Note_on_c, 0, 35, 76
1, 190113, Note_on_c, 0, 55, 70
1, 190113, Control_c, 0, 64, 85
1, 190116, Note_on_c, 0, 67, 69
1, 190128, Control_c, 0, 64, 63
1, 190143, Control_c, 0, 64, 0
1, 190155, Note_off_c, 0, 55, 54
1, 190165, Note_off_c, 0, 67, 57
1, 190231, Control_c, 0, 64, 35
1, 190246, Control_c, 0, 64, 60
1, 190261, Control_c, 0, 64, 71
1, 190267, Note_on_c, 0, 55, 76
1, 190270, Note_on_c, 0, 67, 80
1, 190275, Control_c, 0, 64, 94
1, 190290, Control_c, 0, 64, 127
1, 190322, Note_off_c, 0, 55, 63
1, 190324, Note_off_c, 0, 35, 58
1, 190329, Note_off_c, 0, 47, 58
1, 190335, Note_off_c, 0, 67, 61
1, 190415, Note_on_c, 0, 55, 84
1, 190421, Note_on_c, 0, 67, 83
1, 190471, Note_off_c, 0, 55, 63
1, 190477, Note_off_c, 0, 67, 61
1, 190495, Note_on_c, 0, 48, 91
1, 190499, Note_on_c, 0, 36, 83
1, 190529, Note_off_c, 0, 36, 67
1, 190533, Note_off_c, 0, 48, 63
1, 190595, Control_c, 0, 64, 79
1, 190610, Control_c, 0, 64, 60
1, 190612, Note_on_c, 0, 67, 77
1, 190614, Note_on_c, 0, 55, 73
1, 190625, Control_c, 0, 64, 0
1, 190630, Note_on_c, 0, 50, 92
1, 190637, Note_on_c, 0, 38, 80
1, 190654, Note_off_c, 0, 55, 57
1, 190671, Note_off_c, 0, 67, 62
1, 190790, Note_on_c, 0, 67, 77
1, 190793, Note_on_c, 0, 55, 72
1, 190818, Control_c, 0, 64, 35
1, 190833, Control_c, 0, 64, 56
1, 190839, Note_off_c, 0, 55, 61
1, 190848, Control_c, 0, 64, 65
1, 190850, Note_off_c, 0, 67, 63
1, 190862, Control_c, 0, 64, 74
1, 190877, Control_c, 0, 64, 105
1, 190892, Control_c, 0, 64, 127
1, 190941, Note_on_c, 0, 55, 81
1, 190943, Note_on_c, 0, 67, 81
1, 190957, Note_off_c, 0, 50, 60
1, 190973, Note_off_c, 0, 38, 59
1, 190994, Note_off_c, 0, 55, 62
1, 190997, Note_off_c, 0, 67, 62
1, 191086, Note_on_c, 0, 50, 92
1, 191086, Note_on_c, 0, 55, 82
1, 191087, Note_on_c, 0, 67, 84
1, 191095, Note_on_c, 0, 38, 77
1, 191098, Control_c, 0, 64, 91
1, 191113, Control_c, 0, 64, 68
1, 191128, Control_c, 0, 64, 40
1, 191140, Note_off_c, 0, 55, 63
1, 191143, Note_off_c, 0, 67, 63
1, 191143, Control_c, 0, 64, 0
1, 191187, Control_c, 0, 64, 45
1, 191211, Control_c, 0, 64, 61
1, 191226, Control_c, 0, 64, 70
1, 191240, Note_on_c, 0, 55, 87
1, 191241, Note_on_c, 0, 67, 87
1, 191241, Control_c, 0, 64, 90
1, 191256, Control_c, 0, 64, 127
1, 191289, Note_off_c, 0, 55, 63
1, 191292, Note_off_c, 0, 67, 61
1, 191301, Note_off_c, 0, 38, 58
1, 191316, Note_off_c, 0, 50, 59
1, 191381, Note_on_c, 0, 67, 90
1, 191383, Note_on_c, 0, 55, 87
1, 191425, Note_off_c, 0, 67, 63
1, 191426, Note_off_c, 0, 55, 63
1, 191532, Note_on_c, 0, 67, 88
1, 191533, Note_on_c, 0, 55, 88
1, 191548, Note_on_c, 0, 50, 93
1, 191551, Control_c, 0, 64, 85
1, 191557, Note_on_c, 0, 38, 81
1, 191566, Control_c, 0, 64, 63
1, 191581, Control_c, 0, 64, 0
1, 191587, Note_off_c, 0, 55, 64
1, 191593, Note_off_c, 0, 67, 63
1, 191626, Control_c, 0, 64, 24
1, 191640, Control_c, 0, 64, 57
1, 191655, Control_c, 0, 64, 69
1, 191670, Control_c, 0, 64, 91
1, 191685, Control_c, 0, 64, 127
1, 191686, Note_on_c, 0, 55, 89
1, 191689, Note_on_c, 0, 67, 91
1, 191734, Note_off_c, 0, 55, 63
1, 191746, Note_off_c, 0, 67, 61
1, 191782, Note_off_c, 0, 38, 59
1, 191785, Note_off_c, 0, 50, 58
1, 191837, Note_on_c, 0, 67, 93
1, 191837, Note_on_c, 0, 55, 90
1, 191880, Note_off_c, 0, 55, 64
1, 191887, Note_off_c, 0, 67, 61
1, 192009, Note_on_c, 0, 48, 93
1, 192011, Note_on_c, 0, 68, 92
1, 192014, Note_on_c, 0, 56, 97
1, 192017, Note_on_c, 0, 36, 84
1, 192019, Control_c, 0, 64, 81
1, 192034, Control_c, 0, 64, 59
1, 192049, Control_c, 0, 64, 0
1, 192068, Note_off_c, 0, 56, 63
1, 192075, Note_off_c, 0, 68, 57
1, 192123, Control_c, 0, 64, 51
1, 192138, Control_c, 0, 64, 69
1, 192152, Control_c, 0, 64, 108
1, 192160, Note_off_c, 0, 36, 50
1, 192162, Note_on_c, 0, 56, 95
1, 192163, Note_on_c, 0, 68, 97
1, 192167, Control_c, 0, 64, 127
1, 192218, Note_off_c, 0, 48, 60
1, 192220, Note_off_c, 0, 56, 64
1, 192227, Note_off_c, 0, 68, 59
1, 192311, Note_on_c, 0, 68, 103
1, 192312, Note_on_c, 0, 56, 98
1, 192361, Note_off_c, 0, 68, 66
1, 192362, Note_off_c, 0, 56, 63
1, 192391, Note_on_c, 0, 50, 99
1, 192398, Note_on_c, 0, 38, 85
1, 192445, Note_off_c, 0, 38, 63
1, 192470, Note_off_c, 0, 50, 62
1, 192553, Control_c, 0, 64, 83
1, 192566, Note_on_c, 0, 67, 79
1, 192567, Control_c, 0, 64, 65
1, 192569, Note_on_c, 0, 55, 78
1, 192573, Note_on_c, 0, 51, 106
1, 192582, Control_c, 0, 64, 42
1, 192585, Note_on_c, 0, 39, 82
1, 192597, Control_c, 0, 64, 0
1, 192630, Note_off_c, 0, 67, 61
1, 192631, Note_off_c, 0, 55, 61
1, 192751, Note_on_c, 0, 67, 74
1, 192753, Note_on_c, 0, 55, 73
1, 192812, Note_off_c, 0, 55, 61
1, 192812, Note_off_c, 0, 67, 61
1, 192828, Control_c, 0, 64, 37
1, 192843, Control_c, 0, 64, 60
1, 192857, Control_c, 0, 64, 70
1, 192872, Control_c, 0, 64, 87
1, 192887, Control_c, 0, 64, 127
1, 192902, Note_on_c, 0, 55, 70
1, 192907, Note_on_c, 0, 67, 72
1, 192939, Note_off_c, 0, 55, 62
1, 192945, Note_off_c, 0, 67, 59
1, 192951, Note_off_c, 0, 51, 61
1, 193012, Note_off_c, 0, 39, 37
1, 193044, Note_on_c, 0, 67, 75
1, 193046, Note_on_c, 0, 55, 70
1, 193084, Note_off_c, 0, 67, 60
1, 193085, Note_off_c, 0, 55, 63
1, 193178, Note_on_c, 0, 55, 72
1, 193185, Note_on_c, 0, 67, 79
1, 193235, Note_off_c, 0, 55, 63
1, 193240, Note_off_c, 0, 67, 61
1, 193253, Note_on_c, 0, 50, 91
1, 193260, Note_on_c, 0, 38, 81
1, 193308, Note_off_c, 0, 50, 63
1, 193313, Note_off_c, 0, 38, 61
1, 193335, Note_on_c, 0, 55, 81
1, 193342, Note_on_c, 0, 67, 78
1, 193384, Note_off_c, 0, 55, 63
1, 193401, Note_off_c, 0, 67, 62
1, 193473, Control_c, 0, 64, 107
1, 193482, Note_on_c, 0, 48, 90
1, 193488, Control_c, 0, 64, 73
1, 193489, Note_on_c, 0, 36, 81
1, 193502, Control_c, 0, 64, 53
1, 193504, Note_on_c, 0, 55, 75
1, 193511, Note_on_c, 0, 67, 75
1, 193517, Control_c, 0, 64, 0
1, 193557, Note_off_c, 0, 55, 60
1, 193557, Note_off_c, 0, 67, 60
1, 193622, Control_c, 0, 64, 26
1, 193637, Control_c, 0, 64, 54
1, 193652, Note_on_c, 0, 55, 77
1, 193652, Control_c, 0, 64, 65
1, 193656, Note_on_c, 0, 67, 80
1, 193667, Control_c, 0, 64, 76
1, 193681, Control_c, 0, 64, 101
1, 193695, Control_c, 0, 64, 127
1, 193700, Note_off_c, 0, 55, 60
1, 193700, Note_off_c, 0, 36, 60
1, 193708, Note_off_c, 0, 48, 58
1, 193711, Note_off_c, 0, 67, 61
1, 193805, Note_on_c, 0, 55, 80
1, 193807, Note_on_c, 0, 67, 81
1, 193855, Note_off_c, 0, 55, 62
1, 193861, Note_off_c, 0, 67, 59
1, 193917, Control_c, 0, 64, 103
1, 193932, Control_c, 0, 64, 75
1, 193947, Control_c, 0, 64, 52
1, 193962, Note_on_c, 0, 46, 89
1, 193962, Control_c, 0, 64, 0
1, 193973, Note_on_c, 0, 55, 71
1, 193974, Note_on_c, 0, 67, 73
1, 193974, Note_on_c, 0, 34, 78
1, 194016, Note_off_c, 0, 55, 60
1, 194032, Note_off_c, 0, 67, 61
1, 194051, Control_c, 0, 64, 45
1, 194065, Control_c, 0, 64, 62
1, 194080, Control_c, 0, 64, 70
1, 194095, Control_c, 0, 64, 84
1, 194110, Control_c, 0, 64, 127
1, 194126, Note_on_c, 0, 55, 79
1, 194129, Note_on_c, 0, 67, 83
1, 194133, Note_off_c, 0, 34, 61
1, 194156, Note_off_c, 0, 46, 56
1, 194166, Note_off_c, 0, 67, 55
1, 194169, Note_off_c, 0, 55, 61
1, 194285, Note_on_c, 0, 53, 84
1, 194287, Note_on_c, 0, 65, 80
1, 194332, Note_off_c, 0, 53, 60
1, 194350, Note_on_c, 0, 32, 79
1, 194352, Note_on_c, 0, 44, 84
1, 194353, Note_off_c, 0, 65, 58
1, 194403, Note_off_c, 0, 32, 63
1, 194406, Note_off_c, 0, 44, 63
1, 194415, Control_c, 0, 64, 111
1, 194429, Control_c, 0, 64, 77
1, 194443, Control_c, 0, 64, 58
1, 194458, Control_c, 0, 64, 0
1, 194464, Note_on_c, 0, 55, 87
1, 194466, Note_on_c, 0, 43, 89
1, 194471, Note_on_c, 0, 31, 79
1, 194471, Note_on_c, 0, 67, 77
1, 194472, Note_on_c, 0, 60, 74
1, 194476, Note_on_c, 0, 63, 67
1, 194522, Note_off_c, 0, 55, 60
1, 194533, Note_off_c, 0, 63, 52
1, 194541, Note_off_c, 0, 67, 59
1, 194541, Note_off_c, 0, 60, 61
1, 194641, Note_on_c, 0, 55, 70
1, 194649, Note_on_c, 0, 60, 70
1, 194651, Note_on_c, 0, 63, 64
1, 194657, Note_on_c, 0, 67, 62
1, 194684, Note_off_c, 0, 55, 60
1, 194692, Note_off_c, 0, 63, 59
1, 194695, Control_c, 0, 64, 13
1, 194701, Note_off_c, 0, 67, 60
1, 194703, Note_off_c, 0, 60, 60
1, 194710, Control_c, 0, 64, 42
1, 194725, Control_c, 0, 64, 57
1, 194739, Control_c, 0, 64, 64
1, 194754, Control_c, 0, 64, 71
1, 194769, Control_c, 0, 64, 81
1, 194784, Control_c, 0, 64, 119
1, 194794, Note_on_c, 0, 55, 71
1, 194799, Control_c, 0, 64, 127
1, 194800, Note_on_c, 0, 60, 70
1, 194807, Note_on_c, 0, 63, 67
1, 194811, Note_on_c, 0, 67, 63
1, 194812, Note_off_c, 0, 43, 60
1, 194835, Note_off_c, 0, 31, 58
1, 194845, Note_off_c, 0, 63, 56
1, 194846, Note_off_c, 0, 67, 61
1, 194847, Note_off_c, 0, 55, 59
1, 194857, Note_off_c, 0, 60, 61
1, 194917, Control_c, 0, 64, 110
1, 194932, Control_c, 0, 64, 82
1, 194948, Note_on_c, 0, 43, 78
1, 194952, Note_on_c, 0, 31, 75
1, 194954, Control_c, 0, 64, 66
1, 194963, Note_on_c, 0, 55, 73
1, 194967, Note_on_c, 0, 63, 61
1, 194969, Note_on_c, 0, 67, 58
1, 194969, Control_c, 0, 64, 45
1, 194970, Note_on_c, 0, 60, 70
1, 194984, Control_c, 0, 64, 0
1, 195018, Note_off_c, 0, 63, 58
1, 195018, Note_off_c, 0, 55, 59
1, 195021, Note_off_c, 0, 67, 58
1, 195026, Note_off_c, 0, 60, 60
1, 195043, Control_c, 0, 64, 30
1, 195058, Control_c, 0, 64, 49
1, 195073, Control_c, 0, 64, 62
1, 195088, Control_c, 0, 64, 69
1, 195102, Control_c, 0, 64, 77
1, 195116, Note_on_c, 0, 60, 69
1, 195117, Control_c, 0, 64, 93
1, 195119, Note_on_c, 0, 55, 74
1, 195122, Note_on_c, 0, 63, 69
1, 195132, Note_on_c, 0, 67, 64
1, 195132, Control_c, 0, 64, 127
1, 195165, Note_off_c, 0, 67, 60
1, 195169, Note_off_c, 0, 55, 58
1, 195182, Note_off_c, 0, 63, 57
1, 195187, Note_off_c, 0, 60, 61
1, 195212, Note_off_c, 0, 31, 55
1, 195219, Note_off_c, 0, 43, 50
1, 195264, Note_on_c, 0, 60, 66
1, 195265, Note_on_c, 0, 63, 69
1, 195269, Note_on_c, 0, 55, 75
1, 195271, Note_on_c, 0, 67, 63
1, 195311, Control_c, 0, 64, 115
1, 195320, Note_off_c, 0, 67, 48
1, 195325, Note_off_c, 0, 60, 62
1, 195325, Control_c, 0, 64, 84
1, 195328, Note_off_c, 0, 55, 61
1, 195331, Note_off_c, 0, 63, 58
1, 195340, Control_c, 0, 64, 64
1, 195355, Control_c, 0, 64, 26
1, 195370, Control_c, 0, 64, 0
1, 195410, Note_on_c, 0, 43, 71
1, 195419, Note_on_c, 0, 31, 64
1, 195420, Note_on_c, 0, 59, 70
1, 195423, Note_on_c, 0, 55, 75
1, 195431, Note_on_c, 0, 62, 65
1, 195432, Note_on_c, 0, 67, 67
1, 195489, Note_off_c, 0, 55, 60
1, 195495, Note_off_c, 0, 59, 62
1, 195501, Note_off_c, 0, 67, 60
1, 195504, Note_off_c, 0, 62, 61
1, 195518, Control_c, 0, 64, 31
1, 195533, Control_c, 0, 64, 56
1, 195548, Control_c, 0, 64, 64
1, 195562, Control_c, 0, 64, 69
1, 195577, Control_c, 0, 64, 78
1, 195580, Note_on_c, 0, 62, 56
1, 195581, Note_on_c, 0, 59, 63
1, 195585, Note_on_c, 0, 55, 68
1, 195589, Note_on_c, 0, 67, 63
1, 195592, Control_c, 0, 64, 94
1, 195607, Control_c, 0, 64, 127
1, 195626, Note_off_c, 0, 55, 60
1, 195632, Note_off_c, 0, 59, 60
1, 195643, Note_off_c, 0, 62, 61
1, 195643, Note_off_c, 0, 67, 55
1, 195655, Note_off_c, 0, 43, 58
1, 195668, Note_off_c, 0, 31, 55
1, 195745, Note_on_c, 0, 55, 63
1, 195747, Note_on_c, 0, 59, 62
1, 195753, Note_on_c, 0, 62, 49
1, 195757, Note_on_c, 0, 67, 56
1, 195784, Note_off_c, 0, 55, 60
1, 195784, Note_off_c, 0, 62, 66
1, 195787, Note_off_c, 0, 59, 62
1, 195792, Control_c, 0, 64, 117
1, 195796, Note_off_c, 0, 67, 63
1, 195807, Control_c, 0, 64, 85
1, 195822, Control_c, 0, 64, 69
1, 195837, Control_c, 0, 64, 58
1, 195851, Control_c, 0, 64, 37
1, 195866, Control_c, 0, 64, 17
1, 195882, Note_on_c, 0, 59, 58
1, 195886, Note_on_c, 0, 62, 47
1, 195887, Note_on_c, 0, 55, 57
1, 195888, Note_on_c, 0, 43, 55
1, 195888, Note_on_c, 0, 67, 56
1, 195906, Note_on_c, 0, 31, 49
1, 195910, Control_c, 0, 64, 22
1, 195925, Control_c, 0, 64, 32
1, 195935, Note_off_c, 0, 62, 58
1, 195939, Note_off_c, 0, 59, 60
1, 195939, Note_off_c, 0, 55, 59
1, 195939, Control_c, 0, 64, 46
1, 195945, Note_off_c, 0, 67, 54
1, 195954, Control_c, 0, 64, 57
1, 195969, Control_c, 0, 64, 63
1, 195984, Control_c, 0, 64, 67
1, 195999, Control_c, 0, 64, 74
1, 196014, Control_c, 0, 64, 81
1, 196028, Note_off_c, 0, 31, 58
1, 196029, Control_c, 0, 64, 90
1, 196040, Note_on_c, 0, 62, 53
1, 196041, Note_off_c, 0, 43, 54
1, 196044, Control_c, 0, 64, 103
1, 196057, Note_on_c, 0, 59, 50
1, 196058, Note_on_c, 0, 55, 52
1, 196059, Control_c, 0, 64, 127
1, 196061, Note_on_c, 0, 67, 49
1, 196092, Note_off_c, 0, 62, 54
1, 196093, Note_off_c, 0, 59, 59
1, 196094, Note_off_c, 0, 55, 60
1, 196094, Note_off_c, 0, 67, 60
1, 196200, Note_on_c, 0, 59, 52
1, 196204, Note_on_c, 0, 55, 50
1, 196207, Note_on_c, 0, 67, 44
1, 196234, Note_on_c, 0, 62, 39
1, 196252, Control_c, 0, 67, 19
1, 196257, Note_off_c, 0, 55, 55
1, 196260, Note_off_c, 0, 59, 57
1, 196260, Note_off_c, 0, 62, 58
1, 196266, Control_c, 0, 67, 33
1, 196281, Control_c, 0, 67, 45
1, 196286, Note_off_c, 0, 67, 54
1, 196296, Control_c, 0, 67, 56
1, 196311, Control_c, 0, 67, 68
1, 196325, Control_c, 0, 67, 80
1, 196340, Control_c, 0, 64, 121
1, 196340, Control_c, 0, 67, 93
1, 196355, Control_c, 0, 64, 102
1, 196355, Control_c, 0, 67, 108
1, 196370, Control_c, 0, 64, 86
1, 196370, Control_c, 0, 67, 122
1, 196385, Control_c, 0, 64, 73
1, 196385, Control_c, 0, 67, 127
1, 196399, Control_c, 0, 64, 63
1, 196414, Control_c, 0, 64, 40
1, 196429, Control_c, 0, 64, 0
1, 196482, Note_on_c, 0, 67, 48
1, 196490, Note_on_c, 0, 63, 43
1, 196493, Note_on_c, 0, 48, 43
1, 196496, Note_on_c, 0, 60, 43
1, 196496, Note_on_c, 0, 55, 41
1, 196512, Note_on_c, 0, 36, 38
1, 196540, Control_c, 0, 64, 27
1, 196555, Control_c, 0, 64, 54
1, 196563, Note_off_c, 0, 36, 60
1, 196570, Control_c, 0, 64, 63
1, 196585, Control_c, 0, 64, 69
1, 196599, Control_c, 0, 64, 76
1, 196608, Note_off_c, 0, 48, 62
1, 196614, Control_c, 0, 64, 86
1, 196629, Control_c, 0, 64, 98
1, 196635, Note_off_c, 0, 55, 56
1, 196644, Control_c, 0, 64, 115
1, 196650, Note_off_c, 0, 60, 54
1, 196659, Control_c, 0, 64, 127
1, 196768, Note_on_c, 0, 55, 49
1, 196818, Note_off_c, 0, 55, 53
1, 196911, Note_on_c, 0, 55, 33
1, 196966, Note_off_c, 0, 55, 53
1, 197050, Note_on_c, 0, 55, 33
1, 197126, Note_off_c, 0, 55, 39
1, 197197, Note_on_c, 0, 55, 30
1, 197274, Note_off_c, 0, 55, 45
1, 197338, Note_off_c, 0, 63, 33
1, 197347, Note_on_c, 0, 55, 31
1, 197349, Control_c, 0, 64, 117
1, 197364, Control_c, 0, 64, 111
1, 197379, Control_c, 0, 64, 105
1, 197394, Control_c, 0, 64, 96
1, 197408, Control_c, 0, 64, 87
1, 197423, Control_c, 0, 64, 79
1, 197435, Note_off_c, 0, 55, 39
1, 197438, Control_c, 0, 64, 71
1, 197453, Control_c, 0, 64, 65
1, 197468, Control_c, 0, 64, 58
1, 197483, Control_c, 0, 64, 50
1, 197497, Control_c, 0, 64, 43
1, 197498, Note_on_c, 0, 55, 25
1, 197512, Control_c, 0, 64, 35
1, 197519, Note_off_c, 0, 67, 49
1, 197527, Control_c, 0, 64, 27
1, 197541, Control_c, 0, 64, 19
1, 197555, Note_off_c, 0, 55, 55
1, 197556, Control_c, 0, 64, 9
1, 197571, Control_c, 0, 64, 0
1, 197646, Note_on_c, 0, 55, 38
1, 197646, Control_c, 0, 64, 12
1, 197661, Control_c, 0, 64, 23
1, 197676, Control_c, 0, 64, 34
1, 197691, Control_c, 0, 64, 45
1, 197706, Control_c, 0, 64, 55
1, 197709, Note_off_c, 0, 55, 51
1, 197720, Control_c, 0, 64, 60
1, 197735, Control_c, 0, 64, 62
1, 197750, Control_c, 0, 64, 64
1, 197764, Control_c, 0, 64, 64
1, 197779, Control_c, 0, 64, 65
1, 197790, Note_on_c, 0, 55, 34
1, 197794, Control_c, 0, 64, 66
1, 197809, Control_c, 0, 64, 67
1, 197824, Control_c, 0, 64, 68
1, 197838, Control_c, 0, 64, 70
1, 197850, Note_off_c, 0, 55, 54
1, 197853, Control_c, 0, 64, 71
1, 197868, Control_c, 0, 64, 72
1, 197883, Control_c, 0, 64, 74
1, 197898, Control_c, 0, 64, 75
1, 197912, Control_c, 0, 64, 77
1, 197927, Control_c, 0, 64, 79
1, 197950, Control_c, 0, 64, 81
1, 197965, Note_on_c, 0, 71, 50
1, 197965, Control_c, 0, 64, 82
1, 197971, Note_on_c, 0, 55, 32
1, 197979, Control_c, 0, 64, 83
1, 197994, Control_c, 0, 64, 85
1, 198009, Control_c, 0, 64, 85
1, 198023, Note_off_c, 0, 55, 46
1, 198024, Control_c, 0, 64, 86
1, 198039, Control_c, 0, 64, 87
1, 198053, Control_c, 0, 64, 87
1, 198068, Control_c, 0, 64, 88
1, 198083, Control_c, 0, 64, 89
1, 198098, Control_c, 0, 64, 90
1, 198113, Control_c, 0, 64, 90
1, 198127, Control_c, 0, 64, 91
1, 198136, Note_on_c, 0, 55, 37
1, 198142, Control_c, 0, 64, 92
1, 198157, Control_c, 0, 64, 92
1, 198172, Control_c, 0, 64, 93
1, 198174, Note_off_c, 0, 55, 50
1, 198186, Control_c, 0, 64, 94
1, 198201, Control_c, 0, 64, 94
1, 198216, Control_c, 0, 64, 95
1, 198303, Note_on_c, 0, 55, 23
1, 198328, Note_on_c, 0, 72, 60
1, 198338, Note_off_c, 0, 71, 33
1, 198339, Note_off_c, 0, 55, 51
1, 198364, Control_c, 0, 64, 94
1, 198395, Control_c, 0, 64, 93
1, 198410, Control_c, 0, 64, 92
1, 198425, Control_c, 0, 64, 88
1, 198436, Note_off_c, 0, 72, 37
1, 198440, Control_c, 0, 64, 83
1, 198445, Note_on_c, 0, 74, 63
1, 198455, Control_c, 0, 64, 75
1, 198467, Note_on_c, 0, 55, 41
1, 198469, Control_c, 0, 64, 66
1, 198484, Control_c, 0, 64, 56
1, 198499, Control_c, 0, 64, 39
1, 198514, Control_c, 0, 64, 28
1, 198517, Note_off_c, 0, 55, 50
1, 198543, Control_c, 0, 64, 30
1, 198558, Control_c, 0, 64, 32
1, 198573, Control_c, 0, 64, 36
1, 198587, Control_c, 0, 64, 43
1, 198602, Control_c, 0, 64, 52
1, 198605, Note_on_c, 0, 55, 35
1, 198617, Control_c, 0, 64, 58
1, 198632, Control_c, 0, 64, 61
1, 198647, Control_c, 0, 64, 63
1, 198660, Note_off_c, 0, 55, 57
1, 198661, Control_c, 0, 64, 65
1, 198676, Control_c, 0, 64, 65
1, 198699, Control_c, 0, 64, 67
1, 198714, Control_c, 0, 64, 68
1, 198729, Control_c, 0, 64, 69
1, 198731, Note_off_c, 0, 74, 54
1, 198743, Control_c, 0, 64, 71
1, 198758, Control_c, 0, 64, 73
1, 198773, Control_c, 0, 64, 76
1, 198788, Control_c, 0, 64, 78
1, 198789, Note_on_c, 0, 55, 39
1, 198802, Control_c, 0, 64, 80
1, 198817, Control_c, 0, 64, 82
1, 198830, Note_off_c, 0, 55, 54
1, 198832, Control_c, 0, 64, 83
1, 198847, Control_c, 0, 64, 83
1, 198862, Control_c, 0, 64, 84
1, 198906, Control_c, 0, 64, 83
1, 198921, Control_c, 0, 64, 82
1, 198936, Control_c, 0, 64, 81
1, 198941, Note_on_c, 0, 65, 53
1, 198941, Note_on_c, 0, 74, 60
1, 198950, Control_c, 0, 64, 78
1, 198959, Note_on_c, 0, 55, 47
1, 198965, Control_c, 0, 64, 74
1, 198980, Control_c, 0, 64, 67
1, 198994, Control_c, 0, 64, 60
1, 199009, Control_c, 0, 64, 51
1, 199018, Note_off_c, 0, 55, 52
1, 199024, Control_c, 0, 64, 46
1, 199039, Control_c, 0, 64, 48
1, 199054, Control_c, 0, 64, 50
1, 199069, Control_c, 0, 64, 55
1, 199084, Control_c, 0, 64, 58
1, 199099, Control_c, 0, 64, 61
1, 199108, Note_on_c, 0, 55, 36
1, 199113, Control_c, 0, 64, 63
1, 199128, Control_c, 0, 64, 65
1, 199143, Control_c, 0, 64, 66
1, 199156, Note_off_c, 0, 74, 56
1, 199158, Control_c, 0, 64, 68
1, 199164, Note_off_c, 0, 55, 54
1, 199173, Control_c, 0, 64, 70
1, 199188, Control_c, 0, 64, 72
1, 199203, Control_c, 0, 64, 75
1, 199218, Control_c, 0, 64, 78
1, 199233, Control_c, 0, 64, 80
1, 199248, Control_c, 0, 64, 82
1, 199263, Control_c, 0, 64, 83
1, 199277, Control_c, 0, 64, 84
1, 199289, Note_on_c, 0, 55, 35
1, 199292, Control_c, 0, 64, 86
1, 199307, Control_c, 0, 64, 87
1, 199322, Control_c, 0, 64, 89
1, 199331, Note_off_c, 0, 55, 49
1, 199337, Control_c, 0, 64, 89
1, 199396, Control_c, 0, 64, 90
1, 199425, Control_c, 0, 64, 89
1, 199447, Control_c, 0, 64, 89
1, 199462, Control_c, 0, 64, 88
1, 199477, Control_c, 0, 64, 87
1, 199483, Note_on_c, 0, 55, 30
1, 199490, Note_on_c, 0, 74, 50
1, 199492, Control_c, 0, 64, 86
1, 199498, Note_on_c, 0, 68, 42
1, 199507, Control_c, 0, 64, 85
1, 199521, Note_off_c, 0, 65, 54
1, 199522, Control_c, 0, 64, 81
1, 199536, Control_c, 0, 64, 74
1, 199551, Control_c, 0, 64, 67
1, 199552, Note_off_c, 0, 55, 54
1, 199566, Control_c, 0, 64, 59
1, 199581, Control_c, 0, 64, 49
1, 199596, Control_c, 0, 64, 45
1, 199610, Control_c, 0, 64, 46
1, 199625, Control_c, 0, 64, 49
1, 199640, Control_c, 0, 64, 52
1, 199655, Control_c, 0, 64, 55
1, 199670, Control_c, 0, 64, 58
1, 199676, Note_on_c, 0, 55, 36
1, 199684, Control_c, 0, 64, 61
1, 199698, Control_c, 0, 64, 63
1, 199712, Note_off_c, 0, 55, 50
1, 199712, Note_off_c, 0, 74, 55
1, 199713, Control_c, 0, 64, 65
1, 199728, Control_c, 0, 64, 66
1, 199743, Control_c, 0, 64, 68
1, 199757, Control_c, 0, 64, 70
1, 199772, Control_c, 0, 64, 73
1, 199787, Control_c, 0, 64, 76
1, 199802, Control_c, 0, 64, 78
1, 199817, Control_c, 0, 64, 81
1, 199832, Control_c, 0, 64, 82
1, 199835, Note_on_c, 0, 55, 32
1, 199847, Control_c, 0, 64, 83
1, 199862, Control_c, 0, 64, 84
1, 199869, Note_off_c, 0, 55, 52
1, 199965, Control_c, 0, 64, 84
1, 199974, Note_on_c, 0, 55, 48
1, 199981, Control_c, 0, 64, 83
1, 199995, Note_on_c, 0, 72, 47
1, 199996, Control_c, 0, 64, 81
1, 200011, Control_c, 0, 64, 78
1, 200026, Control_c, 0, 64, 74
1, 200030, Note_off_c, 0, 55, 55
1, 200040, Control_c, 0, 64, 69
1, 200055, Control_c, 0, 64, 65
1, 200070, Control_c, 0, 64, 61
1, 200085, Control_c, 0, 64, 60
1, 200100, Control_c, 0, 64, 61
1, 200114, Control_c, 0, 64, 62
1, 200129, Control_c, 0, 64, 62
1, 200144, Control_c, 0, 64, 63
1, 200148, Note_on_c, 0, 55, 35
1, 200159, Control_c, 0, 64, 64
1, 200174, Control_c, 0, 64, 65
1, 200196, Control_c, 0, 64, 66
1, 200200, Note_off_c, 0, 55, 50
1, 200211, Control_c, 0, 64, 68
1, 200225, Control_c, 0, 64, 69
1, 200240, Control_c, 0, 64, 71
1, 200255, Control_c, 0, 64, 74
1, 200270, Control_c, 0, 64, 76
1, 200285, Control_c, 0, 64, 78
1, 200300, Control_c, 0, 64, 80
1, 200314, Note_on_c, 0, 55, 39
1, 200314, Control_c, 0, 64, 81
1, 200329, Control_c, 0, 64, 81
1, 200344, Control_c, 0, 64, 82
1, 200350, Note_off_c, 0, 55, 50
1, 200357, Note_on_c, 0, 74, 54
1, 200373, Control_c, 0, 64, 83
1, 200399, Note_off_c, 0, 68, 34
1, 200433, Control_c, 0, 64, 82
1, 200448, Control_c, 0, 64, 82
1, 200463, Control_c, 0, 64, 81
1, 200473, Note_on_c, 0, 75, 61
1, 200478, Control_c, 0, 64, 79
1, 200493, Control_c, 0, 64, 76
1, 200494, Note_on_c, 0, 55, 29
1, 200507, Control_c, 0, 64, 71
1, 200510, Note_off_c, 0, 72, 41
1, 200511, Note_off_c, 0, 74, 60
1, 200522, Control_c, 0, 64, 66
1, 200537, Control_c, 0, 64, 60
1, 200540, Note_off_c, 0, 55, 56
1, 200552, Control_c, 0, 64, 52
1, 200566, Control_c, 0, 64, 49
1, 200596, Control_c, 0, 64, 50
1, 200611, Control_c, 0, 64, 52
1, 200626, Control_c, 0, 64, 53
1, 200640, Control_c, 0, 64, 56
1, 200655, Control_c, 0, 64, 60
1, 200656, Note_on_c, 0, 55, 42
1, 200670, Control_c, 0, 64, 63
1, 200685, Control_c, 0, 64, 64
1, 200700, Control_c, 0, 64, 66
1, 200703, Note_off_c, 0, 55, 52
1, 200714, Control_c, 0, 64, 67
1, 200729, Control_c, 0, 64, 69
1, 200744, Control_c, 0, 64, 72
1, 200759, Control_c, 0, 64, 75
1, 200774, Control_c, 0, 64, 78
1, 200790, Control_c, 0, 64, 82
1, 200791, Note_on_c, 0, 55, 47
1, 200805, Control_c, 0, 64, 85
1, 200819, Control_c, 0, 64, 87
1, 200834, Control_c, 0, 64, 88
1, 200845, Note_off_c, 0, 55, 54
1, 200849, Control_c, 0, 64, 89
1, 200878, Control_c, 0, 64, 89
1, 200908, Control_c, 0, 64, 90
1, 200923, Control_c, 0, 64, 90
1, 200945, Control_c, 0, 64, 91
1, 200960, Control_c, 0, 64, 92
1, 200971, Note_on_c, 0, 63, 50
1, 200982, Note_off_c, 0, 75, 55
1, 200989, Control_c, 0, 64, 92
1, 200990, Note_on_c, 0, 55, 29
1, 201019, Control_c, 0, 64, 93
1, 201030, Note_off_c, 0, 55, 49
1, 201034, Control_c, 0, 64, 94
1, 201049, Control_c, 0, 64, 94
1, 201093, Note_off_c, 0, 63, 60
1, 201140, Note_on_c, 0, 55, 37
1, 201174, Note_off_c, 0, 55, 51
1, 201175, Note_on_c, 0, 74, 57
1, 201212, Control_c, 0, 64, 95
1, 201291, Note_on_c, 0, 55, 45
1, 201341, Note_off_c, 0, 55, 56
1, 201360, Control_c, 0, 64, 94
1, 201387, Note_off_c, 0, 74, 55
1, 201389, Control_c, 0, 64, 94
1, 201404, Control_c, 0, 64, 93
1, 201419, Control_c, 0, 64, 92
1, 201434, Control_c, 0, 64, 91
1, 201449, Control_c, 0, 64, 89
1, 201463, Control_c, 0, 64, 86
1, 201478, Control_c, 0, 64, 81
1, 201483, Note_on_c, 0, 72, 53
1, 201483, Note_on_c, 0, 67, 46
1, 201492, Note_on_c, 0, 55, 41
1, 201493, Control_c, 0, 64, 72
1, 201508, Control_c, 0, 64, 64
1, 201523, Control_c, 0, 64, 54
1, 201537, Control_c, 0, 64, 43
1, 201552, Control_c, 0, 64, 40
1, 201566, Note_off_c, 0, 55, 49
1, 201583, Control_c, 0, 64, 42
1, 201598, Control_c, 0, 64, 44
1, 201612, Control_c, 0, 64, 48
1, 201627, Control_c, 0, 64, 54
1, 201642, Control_c, 0, 64, 59
1, 201653, Note_on_c, 0, 55, 30
1, 201657, Control_c, 0, 64, 62
1, 201672, Control_c, 0, 64, 65
1, 201694, Control_c, 0, 64, 67
1, 201709, Control_c, 0, 64, 70
1, 201716, Note_off_c, 0, 55, 54
1, 201724, Control_c, 0, 64, 73
1, 201739, Control_c, 0, 64, 77
1, 201754, Control_c, 0, 64, 80
1, 201768, Control_c, 0, 64, 85
1, 201783, Control_c, 0, 64, 88
1, 201798, Control_c, 0, 64, 91
1, 201804, Note_on_c, 0, 55, 41
1, 201812, Control_c, 0, 64, 92
1, 201827, Control_c, 0, 64, 93
1, 201842, Control_c, 0, 64, 93
1, 201858, Note_off_c, 0, 55, 56
1, 201946, Control_c, 0, 64, 92
1, 201960, Control_c, 0, 64, 91
1, 201975, Control_c, 0, 64, 90
1, 201984, Note_on_c, 0, 74, 58
1, 201990, Control_c, 0, 64, 86
1, 201992, Note_on_c, 0, 55, 38
1, 202005, Control_c, 0, 64, 82
1, 202020, Control_c, 0, 64, 76
1, 202032, Note_off_c, 0, 72, 39
1, 202035, Control_c, 0, 64, 69
1, 202039, Note_off_c, 0, 55, 46
1, 202050, Control_c, 0, 64, 62
1, 202065, Control_c, 0, 64, 58
1, 202080, Control_c, 0, 64, 57
1, 202094, Control_c, 0, 64, 59
1, 202109, Control_c, 0, 64, 60
1, 202124, Control_c, 0, 64, 61
1, 202139, Control_c, 0, 64, 63
1, 202139, Note_on_c, 0, 55, 35
1, 202153, Control_c, 0, 64, 64
1, 202168, Control_c, 0, 64, 66
1, 202183, Control_c, 0, 64, 68
1, 202190, Note_off_c, 0, 55, 52
1, 202198, Control_c, 0, 64, 70
1, 202212, Control_c, 0, 64, 73
1, 202227, Control_c, 0, 64, 76
1, 202242, Control_c, 0, 64, 79
1, 202257, Control_c, 0, 64, 82
1, 202272, Control_c, 0, 64, 84
1, 202286, Control_c, 0, 64, 86
1, 202292, Note_on_c, 0, 55, 42
1, 202301, Control_c, 0, 64, 87
1, 202316, Control_c, 0, 64, 87
1, 202323, Note_off_c, 0, 74, 55
1, 202342, Note_off_c, 0, 55, 55
1, 202379, Note_on_c, 0, 72, 57
1, 202421, Control_c, 0, 64, 86
1, 202443, Control_c, 0, 64, 85
1, 202458, Control_c, 0, 64, 83
1, 202473, Control_c, 0, 64, 80
1, 202476, Note_off_c, 0, 72, 58
1, 202488, Control_c, 0, 64, 75
1, 202490, Note_on_c, 0, 71, 55
1, 202503, Control_c, 0, 64, 68
1, 202507, Note_on_c, 0, 55, 40
1, 202517, Control_c, 0, 64, 59
1, 202532, Control_c, 0, 64, 50
1, 202547, Control_c, 0, 64, 47
1, 202562, Control_c, 0, 64, 47
1, 202563, Note_off_c, 0, 55, 53
1, 202577, Control_c, 0, 64, 49
1, 202591, Control_c, 0, 64, 52
1, 202606, Control_c, 0, 64, 55
1, 202621, Control_c, 0, 64, 59
1, 202635, Control_c, 0, 64, 62
1, 202650, Control_c, 0, 64, 64
1, 202656, Note_on_c, 0, 55, 42
1, 202660, Note_off_c, 0, 71, 59
1, 202664, Note_off_c, 0, 67, 52
1, 202665, Control_c, 0, 64, 66
1, 202680, Control_c, 0, 64, 69
1, 202695, Control_c, 0, 64, 72
1, 202707, Note_off_c, 0, 55, 57
1, 202709, Control_c, 0, 64, 75
1, 202724, Control_c, 0, 64, 78
1, 202739, Control_c, 0, 64, 81
1, 202754, Control_c, 0, 64, 84
1, 202768, Control_c, 0, 64, 86
1, 202783, Control_c, 0, 64, 88
1, 202798, Control_c, 0, 64, 89
1, 202828, Control_c, 0, 64, 90
1, 202831, Note_on_c, 0, 55, 37
1, 202843, Control_c, 0, 64, 90
1, 202858, Control_c, 0, 64, 91
1, 202864, Note_off_c, 0, 55, 51
1, 202947, Control_c, 0, 64, 90
1, 202962, Control_c, 0, 64, 88
1, 202977, Control_c, 0, 64, 83
1, 202977, Note_on_c, 0, 65, 52
1, 202980, Note_on_c, 0, 69, 55
1, 202981, Note_on_c, 0, 55, 44
1, 202991, Control_c, 0, 64, 77
1, 203006, Control_c, 0, 64, 70
1, 203021, Control_c, 0, 64, 63
1, 203027, Note_off_c, 0, 55, 58
1, 203035, Control_c, 0, 64, 57
1, 203050, Control_c, 0, 64, 54
1, 203065, Control_c, 0, 64, 56
1, 203080, Control_c, 0, 64, 58
1, 203095, Control_c, 0, 64, 60
1, 203109, Control_c, 0, 64, 62
1, 203124, Control_c, 0, 64, 63
1, 203139, Control_c, 0, 64, 65
1, 203150, Note_on_c, 0, 55, 40
1, 203154, Control_c, 0, 64, 66
1, 203168, Control_c, 0, 64, 68
1, 203192, Control_c, 0, 64, 71
1, 203197, Note_off_c, 0, 55, 56
1, 203206, Control_c, 0, 64, 74
1, 203221, Control_c, 0, 64, 78
1, 203223, Note_off_c, 0, 65, 56
1, 203236, Control_c, 0, 64, 82
1, 203251, Control_c, 0, 64, 86
1, 203266, Control_c, 0, 64, 91
1, 203281, Control_c, 0, 64, 94
1, 203296, Control_c, 0, 64, 95
1, 203311, Control_c, 0, 64, 97
1, 203325, Note_on_c, 0, 55, 40
1, 203326, Control_c, 0, 64, 97
1, 203352, Note_on_c, 0, 71, 54
1, 203355, Control_c, 0, 64, 98
1, 203375, Note_off_c, 0, 55, 57
1, 203385, Control_c, 0, 64, 97
1, 203400, Control_c, 0, 64, 97
1, 203414, Control_c, 0, 64, 96
1, 203420, Note_off_c, 0, 69, 30
1, 203429, Control_c, 0, 64, 94
1, 203435, Note_off_c, 0, 71, 57
1, 203444, Control_c, 0, 64, 91
1, 203458, Control_c, 0, 64, 87
1, 203460, Note_on_c, 0, 72, 61
1, 203473, Control_c, 0, 64, 79
1, 203482, Note_on_c, 0, 63, 59
1, 203488, Control_c, 0, 64, 70
1, 203493, Note_on_c, 0, 55, 49
1, 203503, Control_c, 0, 64, 62
1, 203518, Control_c, 0, 64, 53
1, 203532, Control_c, 0, 64, 48
1, 203537, Note_off_c, 0, 55, 59
1, 203547, Control_c, 0, 64, 50
1, 203562, Control_c, 0, 64, 53
1, 203577, Control_c, 0, 64, 56
1, 203591, Control_c, 0, 64, 58
1, 203606, Control_c, 0, 64, 61
1, 203607, Note_off_c, 0, 72, 54
1, 203621, Control_c, 0, 64, 63
1, 203636, Control_c, 0, 64, 65
1, 203638, Note_on_c, 0, 55, 41
1, 203651, Control_c, 0, 64, 67
1, 203665, Control_c, 0, 64, 69
1, 203680, Control_c, 0, 64, 72
1, 203689, Note_off_c, 0, 55, 55
1, 203695, Control_c, 0, 64, 76
1, 203710, Control_c, 0, 64, 80
1, 203725, Control_c, 0, 64, 86
1, 203740, Control_c, 0, 64, 91
1, 203755, Control_c, 0, 64, 96
1, 203770, Control_c, 0, 64, 98
1, 203771, Note_off_c, 0, 63, 48
1, 203784, Control_c, 0, 64, 100
1, 203799, Control_c, 0, 64, 101
1, 203814, Control_c, 0, 64, 102
1, 203815, Note_on_c, 0, 55, 50
1, 203829, Control_c, 0, 64, 103
1, 203881, Note_off_c, 0, 55, 50
1, 203903, Control_c, 0, 64, 102
1, 203918, Control_c, 0, 64, 101
1, 203940, Control_c, 0, 64, 100
1, 203955, Control_c, 0, 64, 97
1, 203969, Control_c, 0, 64, 91
1, 203983, Note_on_c, 0, 74, 58
1, 203985, Control_c, 0, 64, 82
1, 204000, Control_c, 0, 64, 73
1, 204001, Note_on_c, 0, 60, 43
1, 204005, Note_on_c, 0, 55, 35
1, 204015, Control_c, 0, 64, 63
1, 204029, Control_c, 0, 64, 55
1, 204044, Control_c, 0, 64, 52
1, 204059, Control_c, 0, 64, 54
1, 204063, Note_off_c, 0, 55, 57
1, 204074, Control_c, 0, 64, 56
1, 204089, Control_c, 0, 64, 59
1, 204104, Control_c, 0, 64, 62
1, 204118, Control_c, 0, 64, 64
1, 204133, Control_c, 0, 64, 65
1, 204148, Control_c, 0, 64, 67
1, 204151, Note_off_c, 0, 60, 0
1, 204163, Control_c, 0, 64, 70
1, 204167, Note_off_c, 0, 74, 61
1, 204178, Control_c, 0, 64, 73
1, 204181, Note_on_c, 0, 55, 48
1, 204187, Poly_aftertouch_c, 0, 60, 127
1, 204193, Control_c, 0, 64, 78
1, 204207, Control_c, 0, 64, 83
1, 204222, Note_off_c, 0, 55, 60
1, 204222, Control_c, 0, 64, 88
1, 204237, Control_c, 0, 64, 93
1, 204252, Control_c, 0, 64, 96
1, 204267, Control_c, 0, 64, 98
1, 204281, Control_c, 0, 64, 99
1, 204296, Control_c, 0, 64, 100
1, 204311, Control_c, 0, 64, 101
1, 204326, Control_c, 0, 64, 104
1, 204330, Poly_aftertouch_c, 0, 60, 0
1, 204341, Control_c, 0, 64, 106
1, 204355, Control_c, 0, 64, 107
1, 204385, Control_c, 0, 64, 108
1, 204387, Note_on_c, 0, 55, 36
1, 204400, Control_c, 0, 64, 108
1, 204414, Control_c, 0, 64, 111
1, 204429, Control_c, 0, 64, 112
1, 204439, Note_off_c, 0, 55, 55
1, 204444, Control_c, 0, 64, 113
1, 204459, Control_c, 0, 64, 114
1, 204463, Note_on_c, 0, 75, 53
1, 204474, Control_c, 0, 64, 115
1, 204488, Control_c, 0, 64, 117
1, 204503, Control_c, 0, 64, 118
1, 204516, Note_off_c, 0, 75, 52
1, 204622, Control_c, 0, 64, 117
1, 204632, Note_on_c, 0, 55, 44
1, 204637, Control_c, 0, 64, 115
1, 204652, Control_c, 0, 64, 113
1, 204667, Control_c, 0, 64, 111
1, 204688, Control_c, 0, 64, 109
1, 204703, Control_c, 0, 64, 107
1, 204714, Note_on_c, 0, 74, 54
1, 204718, Control_c, 0, 64, 104
1, 204729, Note_on_c, 0, 68, 49
1, 204733, Control_c, 0, 64, 101
1, 204748, Control_c, 0, 64, 99
1, 204762, Control_c, 0, 64, 95
1, 204774, Note_off_c, 0, 55, 47
1, 204777, Control_c, 0, 64, 92
1, 204793, Control_c, 0, 64, 88
1, 204808, Control_c, 0, 64, 84
1, 204823, Control_c, 0, 64, 79
1, 204837, Control_c, 0, 64, 75
1, 204852, Control_c, 0, 64, 71
1, 204855, Note_on_c, 0, 67, 55
1, 204867, Control_c, 0, 64, 68
1, 204874, Note_off_c, 0, 68, 56
1, 204882, Control_c, 0, 64, 65
1, 204897, Control_c, 0, 64, 64
1, 204911, Control_c, 0, 64, 63
1, 204926, Control_c, 0, 64, 62
1, 204932, Note_on_c, 0, 55, 47
1, 204941, Control_c, 0, 64, 61
1, 204956, Control_c, 0, 64, 59
1, 204971, Control_c, 0, 64, 55
1, 204985, Control_c, 0, 64, 50
1, 204993, Note_off_c, 0, 55, 53
1, 205000, Control_c, 0, 64, 46
1, 205015, Control_c, 0, 64, 43
1, 205029, Control_c, 0, 64, 43
1, 205074, Control_c, 0, 64, 44
1, 205078, Note_on_c, 0, 55, 39
1, 205089, Control_c, 0, 64, 45
1, 205103, Control_c, 0, 64, 46
1, 205118, Control_c, 0, 64, 47
1, 205133, Control_c, 0, 64, 48
1, 205134, Note_off_c, 0, 55, 57
1, 205148, Control_c, 0, 64, 50
1, 205163, Control_c, 0, 64, 52
1, 205177, Control_c, 0, 64, 55
1, 205192, Control_c, 0, 64, 59
1, 205207, Control_c, 0, 64, 62
1, 205216, Note_on_c, 0, 55, 48
1, 205221, Control_c, 0, 64, 64
1, 205236, Control_c, 0, 64, 65
1, 205251, Control_c, 0, 64, 67
1, 205259, Note_off_c, 0, 55, 60
1, 205266, Control_c, 0, 64, 69
1, 205281, Control_c, 0, 64, 72
1, 205296, Control_c, 0, 64, 74
1, 205311, Control_c, 0, 64, 76
1, 205326, Control_c, 0, 64, 78
1, 205341, Control_c, 0, 64, 80
1, 205356, Control_c, 0, 64, 81
1, 205358, Note_on_c, 0, 55, 56
1, 205370, Control_c, 0, 64, 82
1, 205385, Control_c, 0, 64, 85
1, 205400, Control_c, 0, 64, 88
1, 205401, Note_off_c, 0, 55, 58
1, 205415, Control_c, 0, 64, 91
1, 205436, Control_c, 0, 64, 95
1, 205451, Control_c, 0, 64, 99
1, 205466, Control_c, 0, 64, 101
1, 205481, Control_c, 0, 64, 105
1, 205496, Control_c, 0, 64, 110
1, 205511, Note_on_c, 0, 55, 54
1, 205511, Control_c, 0, 64, 117
1, 205525, Control_c, 0, 64, 127
1, 205546, Note_off_c, 0, 55, 61
1, 205555, Note_off_c, 0, 74, 61
1, 205560, Note_off_c, 0, 67, 38
1, 205644, Note_on_c, 0, 55, 57
1, 205675, Control_c, 0, 67, 122
1, 205685, Note_off_c, 0, 55, 62
1, 205689, Control_c, 0, 67, 114
1, 205704, Control_c, 0, 67, 103
1, 205719, Control_c, 0, 67, 92
1, 205734, Control_c, 0, 67, 80
1, 205749, Control_c, 0, 67, 68
1, 205764, Control_c, 0, 67, 55
1, 205779, Control_c, 0, 67, 44
1, 205786, Note_on_c, 0, 55, 67
1, 205794, Control_c, 0, 67, 33
1, 205808, Control_c, 0, 67, 21
1, 205823, Control_c, 0, 67, 10
1, 205824, Note_off_c, 0, 55, 61
1, 205838, Control_c, 0, 67, 0
1, 205922, Note_on_c, 0, 55, 66
1, 205967, Note_off_c, 0, 55, 54
1, 206067, Note_on_c, 0, 71, 80
1, 206074, Note_on_c, 0, 59, 69
1, 206074, Note_on_c, 0, 67, 63
1, 206083, Note_on_c, 0, 55, 62
1, 206123, Note_off_c, 0, 55, 55
1, 206163, Note_off_c, 0, 59, 60
1, 206181, Note_off_c, 0, 67, 61
1, 206218, Note_off_c, 0, 71, 59
1, 206232, Note_on_c, 0, 55, 72
1, 206280, Note_off_c, 0, 55, 59
1, 206372, Note_on_c, 0, 55, 74
1, 206426, Note_on_c, 0, 60, 82
1, 206428, Note_on_c, 0, 69, 75
1, 206432, Note_on_c, 0, 72, 81
1, 206445, Note_off_c, 0, 55, 61
1, 206477, Note_off_c, 0, 60, 65
1, 206486, Note_off_c, 0, 69, 63
1, 206505, Note_off_c, 0, 72, 63
1, 206542, Control_c, 0, 64, 90
1, 206548, Note_on_c, 0, 55, 76
1, 206556, Control_c, 0, 64, 70
1, 206569, Note_on_c, 0, 74, 84
1, 206570, Note_on_c, 0, 62, 84
1, 206571, Control_c, 0, 64, 47
1, 206575, Note_on_c, 0, 71, 73
1, 206586, Control_c, 0, 64, 0
1, 206619, Note_off_c, 0, 55, 60
1, 206689, Control_c, 0, 64, 51
1, 206704, Control_c, 0, 64, 66
1, 206719, Control_c, 0, 64, 76
1, 206727, Note_on_c, 0, 55, 79
1, 206734, Control_c, 0, 64, 90
1, 206748, Control_c, 0, 64, 114
1, 206763, Note_off_c, 0, 71, 57
1, 206763, Control_c, 0, 64, 127
1, 206789, Note_off_c, 0, 55, 62
1, 206831, Note_off_c, 0, 62, 55
1, 206869, Note_off_c, 0, 74, 56
1, 206870, Note_on_c, 0, 55, 78
1, 206938, Note_off_c, 0, 55, 62
1, 207012, Note_on_c, 0, 74, 88
1, 207020, Note_on_c, 0, 62, 82
1, 207022, Note_on_c, 0, 71, 74
1, 207022, Control_c, 0, 64, 90
1, 207028, Note_on_c, 0, 54, 75
1, 207035, Note_on_c, 0, 55, 57
1, 207037, Control_c, 0, 64, 70
1, 207052, Control_c, 0, 64, 51
1, 207067, Control_c, 0, 64, 0
1, 207088, Note_off_c, 0, 54, 63
1, 207094, Note_off_c, 0, 55, 44
1, 207141, Control_c, 0, 64, 34
1, 207156, Control_c, 0, 64, 54
1, 207171, Control_c, 0, 64, 64
1, 207177, Note_on_c, 0, 54, 75
1, 207186, Control_c, 0, 64, 71
1, 207193, Note_on_c, 0, 55, 60
1, 207201, Control_c, 0, 64, 84
1, 207216, Control_c, 0, 64, 127
1, 207231, Note_off_c, 0, 54, 64
1, 207239, Note_off_c, 0, 55, 61
1, 207267, Note_off_c, 0, 62, 56
1, 207273, Note_off_c, 0, 74, 54
1, 207275, Note_off_c, 0, 71, 57
1, 207309, Note_on_c, 0, 54, 83
1, 207324, Note_on_c, 0, 55, 69
1, 207366, Note_off_c, 0, 54, 63
1, 207387, Note_off_c, 0, 55, 60
1, 207450, Note_on_c, 0, 74, 92
1, 207453, Control_c, 0, 64, 86
1, 207454, Note_on_c, 0, 71, 76
1, 207457, Note_on_c, 0, 62, 86
1, 207461, Note_on_c, 0, 53, 76
1, 207467, Note_on_c, 0, 55, 60
1, 207468, Control_c, 0, 64, 65
1, 207483, Control_c, 0, 64, 35
1, 207497, Control_c, 0, 64, 0
1, 207526, Note_off_c, 0, 53, 63
1, 207529, Note_off_c, 0, 55, 64
1, 207542, Control_c, 0, 64, 50
1, 207557, Control_c, 0, 64, 64
1, 207571, Control_c, 0, 64, 75
1, 207586, Control_c, 0, 64, 104
1, 207593, Note_off_c, 0, 71, 58
1, 207601, Control_c, 0, 64, 127
1, 207613, Note_on_c, 0, 53, 84
1, 207620, Note_off_c, 0, 74, 59
1, 207626, Note_on_c, 0, 55, 68
1, 207661, Note_off_c, 0, 53, 65
1, 207663, Note_off_c, 0, 55, 60
1, 207665, Note_off_c, 0, 62, 60
1, 207758, Note_on_c, 0, 53, 84
1, 207770, Note_on_c, 0, 55, 70
1, 207812, Note_off_c, 0, 55, 58
1, 207820, Note_off_c, 0, 53, 62
1, 207890, Control_c, 0, 64, 104
1, 207904, Note_on_c, 0, 60, 89
1, 207904, Note_on_c, 0, 67, 86
1, 207904, Control_c, 0, 64, 74
1, 207905, Note_on_c, 0, 72, 92
1, 207910, Note_on_c, 0, 51, 82
1, 207913, Note_on_c, 0, 55, 71
1, 207920, Control_c, 0, 64, 46
1, 207935, Control_c, 0, 64, 0
1, 207979, Note_off_c, 0, 51, 64
1, 207982, Note_off_c, 0, 55, 62
1, 208010, Control_c, 0, 64, 52
1, 208025, Control_c, 0, 64, 64
1, 208040, Control_c, 0, 64, 74
1, 208054, Control_c, 0, 64, 99
1, 208055, Note_off_c, 0, 60, 57
1, 208057, Note_off_c, 0, 72, 61
1, 208058, Note_on_c, 0, 51, 91
1, 208069, Control_c, 0, 64, 127
1, 208071, Note_on_c, 0, 55, 70
1, 208103, Note_off_c, 0, 67, 55
1, 208122, Note_off_c, 0, 55, 58
1, 208128, Note_off_c, 0, 51, 62
1, 208195, Note_on_c, 0, 50, 87
1, 208211, Note_on_c, 0, 55, 74
1, 208253, Note_on_c, 0, 74, 96
1, 208253, Note_on_c, 0, 62, 99
1, 208258, Note_on_c, 0, 67, 79
1, 208274, Note_off_c, 0, 55, 57
1, 208281, Note_off_c, 0, 50, 63
1, 208327, Note_off_c, 0, 62, 64
1, 208331, Note_off_c, 0, 74, 61
1, 208385, Note_on_c, 0, 55, 77
1, 208387, Note_on_c, 0, 48, 77
1, 208395, Control_c, 0, 64, 119
1, 208410, Control_c, 0, 64, 81
1, 208426, Note_on_c, 0, 75, 93
1, 208426, Note_on_c, 0, 63, 95
1, 208432, Control_c, 0, 64, 62
1, 208447, Control_c, 0, 64, 0
1, 208477, Note_off_c, 0, 48, 60
1, 208490, Note_off_c, 0, 55, 58
1, 208586, Note_on_c, 0, 55, 72
1, 208588, Note_on_c, 0, 48, 68
1, 208595, Control_c, 0, 64, 36
1, 208610, Control_c, 0, 64, 53
1, 208625, Control_c, 0, 64, 61
1, 208640, Control_c, 0, 64, 66
1, 208643, Note_off_c, 0, 48, 60
1, 208649, Note_off_c, 0, 55, 60
1, 208654, Control_c, 0, 64, 70
1, 208669, Control_c, 0, 64, 77
1, 208684, Control_c, 0, 64, 83
1, 208699, Control_c, 0, 64, 90
1, 208714, Control_c, 0, 64, 100
1, 208725, Note_on_c, 0, 55, 65
1, 208728, Control_c, 0, 64, 117
1, 208729, Note_on_c, 0, 48, 59
1, 208743, Control_c, 0, 64, 127
1, 208775, Note_off_c, 0, 48, 63
1, 208781, Note_off_c, 0, 55, 63
1, 208818, Control_c, 0, 64, 114
1, 208833, Control_c, 0, 64, 88
1, 208848, Control_c, 0, 64, 68
1, 208863, Control_c, 0, 64, 54
1, 208867, Note_on_c, 0, 46, 75
1, 208876, Note_on_c, 0, 55, 67
1, 208877, Control_c, 0, 64, 37
1, 208892, Control_c, 0, 64, 40
1, 208907, Control_c, 0, 64, 51
1, 208922, Control_c, 0, 64, 61
1, 208928, Note_off_c, 0, 46, 52
1, 208933, Note_off_c, 0, 55, 61
1, 208937, Control_c, 0, 64, 70
1, 208951, Control_c, 0, 64, 83
1, 208959, Note_off_c, 0, 63, 62
1, 208962, Note_off_c, 0, 75, 61
1, 208966, Control_c, 0, 64, 104
1, 208981, Control_c, 0, 64, 127
1, 209019, Note_on_c, 0, 46, 69
1, 209026, Note_on_c, 0, 55, 66
1, 209050, Note_off_c, 0, 67, 0
1, 209050, Note_on_c, 0, 67, 9
1, 209067, Note_on_c, 0, 74, 89
1, 209072, Note_off_c, 0, 46, 57
1, 209075, Note_on_c, 0, 62, 76
1, 209075, Note_off_c, 0, 55, 54
1, 209166, Note_off_c, 0, 74, 57
1, 209179, Note_on_c, 0, 46, 76
1, 209189, Note_on_c, 0, 55, 69
1, 209190, Note_off_c, 0, 62, 56
1, 209244, Note_off_c, 0, 46, 62
1, 209258, Note_off_c, 0, 55, 58
1, 209267, Note_off_c, 0, 67, 33
1, 209299, Control_c, 0, 64, 103
1, 209314, Control_c, 0, 64, 73
1, 209319, Note_on_c, 0, 67, 50
1, 209329, Control_c, 0, 64, 54
1, 209331, Note_on_c, 0, 72, 82
1, 209335, Note_on_c, 0, 60, 72
1, 209341, Note_on_c, 0, 45, 58
1, 209344, Control_c, 0, 64, 0
1, 209345, Note_on_c, 0, 55, 56
1, 209399, Note_off_c, 0, 55, 58
1, 209404, Note_off_c, 0, 45, 54
1, 209463, Control_c, 0, 64, 45
1, 209477, Control_c, 0, 64, 59
1, 209481, Note_on_c, 0, 45, 58
1, 209490, Note_on_c, 0, 55, 67
1, 209492, Control_c, 0, 64, 67
1, 209507, Control_c, 0, 64, 75
1, 209520, Note_off_c, 0, 72, 57
1, 209522, Control_c, 0, 64, 92
1, 209537, Control_c, 0, 64, 127
1, 209539, Note_off_c, 0, 55, 56
1, 209541, Note_off_c, 0, 45, 58
1, 209582, Note_off_c, 0, 60, 60
1, 209588, Note_off_c, 0, 67, 61
1, 209623, Note_on_c, 0, 55, 71
1, 209625, Note_on_c, 0, 45, 66
1, 209681, Note_off_c, 0, 45, 60
1, 209684, Note_off_c, 0, 55, 62
1, 209770, Note_on_c, 0, 74, 91
1, 209770, Note_on_c, 0, 66, 69
1, 209774, Control_c, 0, 64, 77
1, 209783, Note_on_c, 0, 62, 75
1, 209788, Note_on_c, 0, 54, 74
1, 209788, Note_on_c, 0, 44, 72
1, 209789, Control_c, 0, 64, 58
1, 209804, Control_c, 0, 64, 0
1, 209839, Note_off_c, 0, 54, 58
1, 209853, Note_off_c, 0, 44, 59
1, 209863, Control_c, 0, 64, 46
1, 209878, Control_c, 0, 64, 62
1, 209892, Control_c, 0, 64, 70
1, 209907, Control_c, 0, 64, 85
1, 209930, Control_c, 0, 64, 127
1, 209940, Note_off_c, 0, 74, 56
1, 209944, Note_on_c, 0, 44, 72
1, 209949, Note_on_c, 0, 54, 70
1, 209984, Note_off_c, 0, 44, 58
1, 210007, Note_off_c, 0, 54, 56
1, 210083, Note_off_c, 0, 66, 37
1, 210089, Note_on_c, 0, 54, 69
1, 210090, Note_on_c, 0, 44, 75
1, 210131, Note_on_c, 0, 72, 91
1, 210157, Note_off_c, 0, 44, 62
1, 210168, Note_off_c, 0, 54, 61
1, 210171, Note_off_c, 0, 62, 63
1, 210200, Note_off_c, 0, 72, 62
1, 210240, Control_c, 0, 64, 81
1, 210241, Note_on_c, 0, 71, 94
1, 210246, Note_on_c, 0, 65, 83
1, 210247, Note_on_c, 0, 43, 75
1, 210250, Note_on_c, 0, 53, 74
1, 210253, Note_on_c, 0, 62, 81
1, 210255, Control_c, 0, 64, 60
1, 210270, Control_c, 0, 64, 0
1, 210316, Note_off_c, 0, 53, 62
1, 210317, Note_off_c, 0, 43, 62
1, 210359, Control_c, 0, 64, 37
1, 210375, Control_c, 0, 64, 58
1, 210390, Control_c, 0, 64, 66
1, 210404, Control_c, 0, 64, 75
1, 210405, Note_on_c, 0, 53, 77
1, 210406, Note_on_c, 0, 43, 70
1, 210411, Note_off_c, 0, 65, 53
1, 210419, Control_c, 0, 64, 93
1, 210434, Control_c, 0, 64, 127
1, 210459, Note_off_c, 0, 62, 56
1, 210467, Note_off_c, 0, 53, 62
1, 210469, Note_off_c, 0, 43, 61
1, 210489, Note_off_c, 0, 71, 56
1, 210542, Note_on_c, 0, 53, 76
1, 210548, Note_on_c, 0, 43, 71
1, 210585, Note_off_c, 0, 53, 62
1, 210596, Note_off_c, 0, 43, 63
1, 210707, Note_on_c, 0, 71, 90
1, 210708, Control_c, 0, 64, 85
1, 210713, Note_on_c, 0, 67, 72
1, 210715, Note_on_c, 0, 62, 83
1, 210715, Note_on_c, 0, 43, 74
1, 210718, Note_on_c, 0, 41, 79
1, 210722, Control_c, 0, 64, 62
1, 210737, Control_c, 0, 64, 0
1, 210775, Note_off_c, 0, 43, 61
1, 210778, Note_off_c, 0, 41, 63
1, 210782, Control_c, 0, 64, 35
1, 210796, Control_c, 0, 64, 63
1, 210811, Control_c, 0, 64, 82
1, 210826, Control_c, 0, 64, 127
1, 210858, Note_on_c, 0, 41, 80
1, 210863, Note_on_c, 0, 43, 74
1, 210876, Note_off_c, 0, 71, 57
1, 210884, Note_off_c, 0, 67, 25
1, 210915, Note_off_c, 0, 43, 60
1, 210918, Note_off_c, 0, 41, 63
1, 210929, Note_off_c, 0, 62, 57
1, 210993, Note_on_c, 0, 41, 83
1, 211011, Note_on_c, 0, 43, 68
1, 211065, Note_off_c, 0, 41, 64
1, 211067, Note_on_c, 0, 68, 93
1, 211072, Note_off_c, 0, 43, 40
1, 211139, Note_off_c, 0, 68, 66
1, 211168, Control_c, 0, 64, 119
1, 211168, Note_on_c, 0, 43, 68
1, 211173, Note_on_c, 0, 39, 74
1, 211180, Note_on_c, 0, 72, 96
1, 211181, Note_on_c, 0, 60, 91
1, 211181, Note_on_c, 0, 67, 79
1, 211183, Control_c, 0, 64, 74
1, 211198, Control_c, 0, 64, 47
1, 211212, Control_c, 0, 64, 0
1, 211244, Note_off_c, 0, 43, 60
1, 211251, Note_off_c, 0, 39, 60
1, 211271, Control_c, 0, 64, 42
1, 211286, Control_c, 0, 64, 64
1, 211301, Control_c, 0, 64, 77
1, 211316, Control_c, 0, 64, 127
1, 211322, Note_off_c, 0, 60, 59
1, 211328, Note_on_c, 0, 43, 73
1, 211332, Note_on_c, 0, 39, 72
1, 211334, Note_off_c, 0, 67, 59
1, 211377, Note_off_c, 0, 72, 63
1, 211382, Note_off_c, 0, 39, 60
1, 211395, Note_off_c, 0, 43, 60
1, 211478, Note_on_c, 0, 43, 75
1, 211486, Note_on_c, 0, 39, 77
1, 211518, Note_off_c, 0, 43, 64
1, 211536, Note_off_c, 0, 39, 61
1, 211649, Control_c, 0, 64, 119
1, 211651, Note_on_c, 0, 71, 78
1, 211652, Note_on_c, 0, 75, 96
1, 211661, Note_on_c, 0, 65, 80
1, 211665, Control_c, 0, 64, 78
1, 211668, Note_on_c, 0, 43, 72
1, 211675, Note_on_c, 0, 31, 71
1, 211679, Control_c, 0, 64, 58
1, 211694, Control_c, 0, 64, 0
1, 211745, Note_off_c, 0, 31, 61
1, 211763, Note_off_c, 0, 43, 58
1, 211768, Control_c, 0, 64, 34
1, 211779, Note_off_c, 0, 71, 61
1, 211783, Control_c, 0, 64, 57
1, 211797, Control_c, 0, 64, 66
1, 211812, Control_c, 0, 64, 78
1, 211822, Note_on_c, 0, 43, 50
1, 211824, Note_on_c, 0, 31, 54
1, 211827, Control_c, 0, 64, 127
1, 211841, Note_off_c, 0, 75, 55
1, 211890, Note_off_c, 0, 31, 58
1, 211903, Note_off_c, 0, 43, 56
1, 212034, Note_on_c, 0, 31, 54
1, 212040, Note_on_c, 0, 43, 49
1, 212071, Note_off_c, 0, 31, 60
1, 212095, Note_off_c, 0, 43, 59
1, 212106, Note_on_c, 0, 74, 76
1, 212117, Note_off_c, 0, 65, 59
1, 212222, Note_off_c, 0, 74, 60
1, 212280, Control_c, 0, 64, 121
1, 212295, Control_c, 0, 64, 79
1, 212310, Control_c, 0, 64, 61
1, 212325, Control_c, 0, 64, 0
1, 212327, Note_on_c, 0, 72, 65
1, 212338, Note_on_c, 0, 63, 46
1, 212354, Note_on_c, 0, 36, 49
1, 212355, Note_on_c, 0, 48, 37
1, 212377, Note_on_c, 0, 43, 33
1, 212414, Control_c, 0, 64, 50
1, 212429, Control_c, 0, 64, 64
1, 212442, Note_off_c, 0, 36, 63
1, 212443, Control_c, 0, 64, 72
1, 212455, Note_off_c, 0, 43, 62
1, 212458, Control_c, 0, 64, 87
1, 212473, Control_c, 0, 64, 127
1, 212481, Note_off_c, 0, 48, 52
1, 212576, Control_c, 0, 67, 20
1, 212591, Control_c, 0, 67, 39
1, 212606, Control_c, 0, 67, 61
1, 212621, Control_c, 0, 67, 79
1, 212623, Note_on_c, 0, 55, 54
1, 212636, Control_c, 0, 67, 96
1, 212650, Control_c, 0, 67, 111
1, 212659, Note_off_c, 0, 55, 62
1, 212665, Control_c, 0, 67, 125
1, 212680, Control_c, 0, 67, 127
1, 212709, Control_c, 0, 64, 111
1, 212724, Control_c, 0, 64, 97
1, 212739, Control_c, 0, 64, 86
1, 212748, Note_on_c, 0, 55, 55
1, 212754, Control_c, 0, 64, 77
1, 212770, Control_c, 0, 64, 71
1, 212785, Control_c, 0, 64, 68
1, 212799, Control_c, 0, 64, 65
1, 212809, Note_off_c, 0, 55, 56
1, 212814, Control_c, 0, 64, 64
1, 212829, Control_c, 0, 64, 62
1, 212844, Control_c, 0, 64, 59
1, 212859, Control_c, 0, 64, 55
1, 212873, Control_c, 0, 64, 49
1, 212888, Control_c, 0, 64, 36
1, 212898, Note_on_c, 0, 55, 43
1, 212903, Control_c, 0, 64, 0
1, 212962, Note_off_c, 0, 55, 58
1, 213052, Note_on_c, 0, 55, 47
1, 213099, Note_off_c, 0, 55, 58
1, 213118, Control_c, 0, 64, 13
1, 213133, Control_c, 0, 64, 39
1, 213148, Control_c, 0, 64, 51
1, 213163, Control_c, 0, 64, 58
1, 213177, Control_c, 0, 64, 61
1, 213192, Control_c, 0, 64, 62
1, 213207, Control_c, 0, 64, 62
1, 213209, Note_on_c, 0, 55, 39
1, 213222, Control_c, 0, 64, 63
1, 213237, Control_c, 0, 64, 63
1, 213251, Control_c, 0, 64, 65
1, 213260, Note_off_c, 0, 55, 54
1, 213266, Control_c, 0, 64, 66
1, 213281, Control_c, 0, 64, 67
1, 213285, Note_off_c, 0, 63, 50
1, 213296, Control_c, 0, 64, 70
1, 213311, Control_c, 0, 64, 74
1, 213325, Control_c, 0, 64, 78
1, 213328, Note_on_c, 0, 55, 43
1, 213340, Control_c, 0, 64, 83
1, 213355, Control_c, 0, 64, 89
1, 213370, Control_c, 0, 64, 96
1, 213384, Control_c, 0, 64, 104
1, 213392, Note_off_c, 0, 55, 52
1, 213399, Control_c, 0, 64, 108
1, 213400, Note_off_c, 0, 72, 56
1, 213414, Control_c, 0, 64, 110
1, 213458, Control_c, 0, 64, 110
1, 213473, Control_c, 0, 64, 111
1, 213483, Note_on_c, 0, 55, 41
1, 213488, Control_c, 0, 64, 111
1, 213542, Note_off_c, 0, 55, 53
1, 213622, Control_c, 0, 64, 111
1, 213628, Note_on_c, 0, 55, 40
1, 213637, Control_c, 0, 64, 110
1, 213652, Control_c, 0, 64, 110
1, 213674, Control_c, 0, 64, 108
1, 213689, Control_c, 0, 64, 107
1, 213690, Note_off_c, 0, 55, 54
1, 213704, Control_c, 0, 64, 106
1, 213719, Control_c, 0, 64, 104
1, 213734, Control_c, 0, 64, 101
1, 213748, Control_c, 0, 64, 98
1, 213763, Control_c, 0, 64, 94
1, 213778, Control_c, 0, 64, 83
1, 213781, Note_on_c, 0, 74, 63
1, 213789, Note_on_c, 0, 55, 45
1, 213793, Control_c, 0, 64, 71
1, 213808, Control_c, 0, 64, 61
1, 213822, Control_c, 0, 64, 42
1, 213834, Note_off_c, 0, 55, 58
1, 213837, Control_c, 0, 64, 26
1, 213852, Control_c, 0, 64, 29
1, 213866, Control_c, 0, 64, 38
1, 213881, Control_c, 0, 64, 50
1, 213896, Control_c, 0, 64, 57
1, 213911, Control_c, 0, 64, 62
1, 213926, Control_c, 0, 64, 64
1, 213934, Note_on_c, 0, 55, 48
1, 213941, Control_c, 0, 64, 67
1, 213955, Control_c, 0, 64, 69
1, 213970, Control_c, 0, 64, 74
1, 213970, Control_c, 0, 67, 124
1, 213979, Note_off_c, 0, 55, 57
1, 213985, Control_c, 0, 64, 79
1, 213985, Control_c, 0, 67, 115
1, 214000, Control_c, 0, 64, 85
1, 214000, Control_c, 0, 67, 103
1, 214015, Control_c, 0, 64, 94
1, 214015, Control_c, 0, 67, 87
1, 214030, Control_c, 0, 64, 107
1, 214030, Control_c, 0, 67, 66
1, 214045, Control_c, 0, 64, 127
1, 214045, Control_c, 0, 67, 48
1, 214060, Control_c, 0, 67, 31
1, 214074, Control_c, 0, 67, 16
1, 214078, Note_on_c, 0, 55, 53
1, 214089, Control_c, 0, 67, 0
1, 214113, Note_off_c, 0, 55, 64
1, 214143, Note_on_c, 0, 75, 71
1, 214173, Note_off_c, 0, 74, 57
1, 214226, Note_off_c, 0, 75, 62
1, 214252, Control_c, 0, 64, 107
1, 214266, Control_c, 0, 64, 88
1, 214271, Note_on_c, 0, 77, 69
1, 214278, Note_on_c, 0, 56, 56
1, 214281, Control_c, 0, 64, 72
1, 214296, Control_c, 0, 64, 59
1, 214311, Control_c, 0, 64, 24
1, 214326, Control_c, 0, 64, 0
1, 214330, Note_off_c, 0, 56, 61
1, 214386, Control_c, 0, 64, 29
1, 214401, Control_c, 0, 64, 47
1, 214423, Control_c, 0, 64, 59
1, 214438, Control_c, 0, 64, 65
1, 214444, Note_on_c, 0, 56, 52
1, 214453, Control_c, 0, 64, 69
1, 214468, Control_c, 0, 64, 74
1, 214483, Control_c, 0, 64, 81
1, 214485, Note_off_c, 0, 56, 61
1, 214497, Control_c, 0, 64, 89
1, 214512, Control_c, 0, 64, 99
1, 214527, Control_c, 0, 64, 117
1, 214542, Control_c, 0, 64, 127
1, 214587, Note_on_c, 0, 56, 54
1, 214614, Note_off_c, 0, 77, 55
1, 214632, Note_off_c, 0, 56, 59
1, 214724, Note_on_c, 0, 77, 77
1, 214733, Control_c, 0, 64, 96
1, 214738, Note_on_c, 0, 65, 64
1, 214742, Note_on_c, 0, 57, 56
1, 214748, Control_c, 0, 64, 77
1, 214763, Control_c, 0, 64, 64
1, 214778, Control_c, 0, 64, 45
1, 214787, Note_off_c, 0, 57, 59
1, 214793, Control_c, 0, 64, 17
1, 214808, Control_c, 0, 64, 23
1, 214823, Control_c, 0, 64, 37
1, 214837, Control_c, 0, 64, 52
1, 214852, Control_c, 0, 64, 60
1, 214867, Control_c, 0, 64, 65
1, 214882, Control_c, 0, 64, 69
1, 214893, Note_on_c, 0, 57, 53
1, 214896, Control_c, 0, 64, 75
1, 214911, Control_c, 0, 64, 83
1, 214926, Control_c, 0, 64, 96
1, 214935, Note_off_c, 0, 65, 58
1, 214936, Note_off_c, 0, 57, 60
1, 214941, Control_c, 0, 64, 127
1, 214966, Note_off_c, 0, 77, 56
1, 215047, Note_on_c, 0, 57, 50
1, 215088, Note_off_c, 0, 57, 63
1, 215201, Control_c, 0, 64, 96
1, 215216, Control_c, 0, 64, 79
1, 215219, Note_on_c, 0, 77, 65
1, 215231, Control_c, 0, 64, 65
1, 215231, Note_on_c, 0, 68, 53
1, 215246, Control_c, 0, 64, 50
1, 215254, Note_on_c, 0, 58, 43
1, 215260, Control_c, 0, 64, 20
1, 215275, Control_c, 0, 64, 0
1, 215295, Note_off_c, 0, 58, 60
1, 215305, Control_c, 0, 64, 11
1, 215319, Control_c, 0, 64, 21
1, 215334, Control_c, 0, 64, 33
1, 215349, Control_c, 0, 64, 47
1, 215364, Control_c, 0, 64, 59
1, 215379, Control_c, 0, 64, 64
1, 215393, Control_c, 0, 64, 67
1, 215401, Note_on_c, 0, 58, 42
1, 215408, Control_c, 0, 64, 72
1, 215423, Control_c, 0, 64, 78
1, 215436, Note_off_c, 0, 58, 56
1, 215438, Control_c, 0, 64, 84
1, 215453, Control_c, 0, 64, 92
1, 215467, Control_c, 0, 64, 98
1, 215482, Control_c, 0, 64, 102
1, 215497, Control_c, 0, 64, 106
1, 215512, Control_c, 0, 64, 110
1, 215526, Control_c, 0, 64, 113
1, 215541, Control_c, 0, 64, 117
1, 215547, Note_on_c, 0, 58, 47
1, 215585, Note_off_c, 0, 77, 32
1, 215595, Note_off_c, 0, 58, 58
1, 215601, Control_c, 0, 64, 119
1, 215616, Control_c, 0, 64, 121
1, 215660, Control_c, 0, 64, 116
1, 215675, Control_c, 0, 64, 111
1, 215690, Control_c, 0, 64, 104
1, 215702, Note_on_c, 0, 75, 64
1, 215705, Control_c, 0, 64, 95
1, 215719, Control_c, 0, 64, 84
1, 215720, Note_on_c, 0, 58, 49
1, 215734, Control_c, 0, 64, 70
1, 215749, Control_c, 0, 64, 60
1, 215764, Control_c, 0, 64, 42
1, 215769, Note_off_c, 0, 58, 56
1, 215779, Control_c, 0, 64, 30
1, 215793, Control_c, 0, 64, 32
1, 215808, Control_c, 0, 64, 38
1, 215823, Control_c, 0, 64, 47
1, 215838, Control_c, 0, 64, 54
1, 215853, Control_c, 0, 64, 59
1, 215860, Note_on_c, 0, 58, 34
1, 215867, Control_c, 0, 64, 63
1, 215882, Control_c, 0, 64, 66
1, 215897, Control_c, 0, 64, 69
1, 215919, Control_c, 0, 64, 74
1, 215928, Note_off_c, 0, 58, 55
1, 215934, Control_c, 0, 64, 80
1, 215949, Control_c, 0, 64, 87
1, 215952, Note_off_c, 0, 75, 55
1, 215965, Control_c, 0, 64, 96
1, 215974, Note_off_c, 0, 68, 38
1, 215980, Control_c, 0, 64, 107
1, 215994, Control_c, 0, 64, 121
1, 216009, Control_c, 0, 64, 127
1, 216039, Note_on_c, 0, 58, 43
1, 216100, Note_on_c, 0, 74, 70
1, 216106, Note_off_c, 0, 58, 53
1, 216276, Control_c, 0, 64, 107
1, 216277, Note_on_c, 0, 79, 69
1, 216279, Note_on_c, 0, 58, 42
1, 216290, Control_c, 0, 64, 90
1, 216305, Control_c, 0, 64, 77
1, 216307, Note_off_c, 0, 74, 57
1, 216320, Control_c, 0, 64, 65
1, 216331, Note_off_c, 0, 58, 54
1, 216334, Control_c, 0, 64, 54
1, 216349, Control_c, 0, 64, 36
1, 216364, Control_c, 0, 64, 32
1, 216379, Control_c, 0, 64, 32
1, 216394, Control_c, 0, 64, 35
1, 216409, Control_c, 0, 64, 38
1, 216424, Control_c, 0, 64, 44
1, 216439, Control_c, 0, 64, 51
1, 216453, Control_c, 0, 64, 57
1, 216457, Note_on_c, 0, 58, 35
1, 216468, Control_c, 0, 64, 61
1, 216483, Control_c, 0, 64, 64
1, 216498, Control_c, 0, 64, 66
1, 216498, Note_off_c, 0, 58, 55
1, 216513, Control_c, 0, 64, 67
1, 216528, Control_c, 0, 64, 70
1, 216542, Control_c, 0, 64, 73
1, 216557, Control_c, 0, 64, 76
1, 216572, Control_c, 0, 64, 81
1, 216587, Control_c, 0, 64, 86
1, 216602, Control_c, 0, 64, 91
1, 216606, Note_on_c, 0, 58, 40
1, 216616, Control_c, 0, 64, 97
1, 216616, Control_c, 0, 67, 8
1, 216631, Control_c, 0, 64, 102
1, 216631, Control_c, 0, 67, 25
1, 216645, Note_off_c, 0, 58, 50
1, 216646, Control_c, 0, 64, 103
1, 216646, Control_c, 0, 67, 46
1, 216668, Control_c, 0, 64, 102
1, 216668, Control_c, 0, 67, 63
1, 216683, Control_c, 0, 64, 101
1, 216683, Control_c, 0, 67, 78
1, 216698, Control_c, 0, 64, 99
1, 216698, Control_c, 0, 67, 90
1, 216713, Control_c, 0, 64, 97
1, 216713, Control_c, 0, 67, 97
1, 216728, Control_c, 0, 64, 92
1, 216728, Control_c, 0, 67, 99
1, 216742, Control_c, 0, 64, 83
1, 216757, Control_c, 0, 64, 70
1, 216772, Note_on_c, 0, 67, 49
1, 216772, Control_c, 0, 64, 62
1, 216778, Note_off_c, 0, 79, 47
1, 216780, Note_on_c, 0, 59, 40
1, 216787, Control_c, 0, 64, 53
1, 216802, Control_c, 0, 64, 52
1, 216802, Control_c, 0, 67, 97
1, 216811, Note_off_c, 0, 59, 57
1, 216817, Control_c, 0, 64, 55
1, 216817, Control_c, 0, 67, 96
1, 216832, Control_c, 0, 64, 59
1, 216832, Control_c, 0, 67, 95
1, 216847, Control_c, 0, 64, 62
1, 216847, Control_c, 0, 67, 93
1, 216862, Control_c, 0, 64, 65
1, 216862, Control_c, 0, 67, 92
1, 216877, Control_c, 0, 64, 67
1, 216877, Control_c, 0, 67, 90
1, 216892, Control_c, 0, 64, 69
1, 216892, Control_c, 0, 67, 87
1, 216907, Control_c, 0, 64, 71
1, 216907, Control_c, 0, 67, 85
1, 216920, Note_on_c, 0, 59, 44
1, 216920, Control_c, 0, 64, 75
1, 216920, Control_c, 0, 67, 83
1, 216935, Control_c, 0, 64, 79
1, 216935, Control_c, 0, 67, 82
1, 216950, Control_c, 0, 64, 87
1, 216950, Control_c, 0, 67, 81
1, 216964, Control_c, 0, 64, 96
1, 216964, Control_c, 0, 67, 80
1, 216965, Note_off_c, 0, 59, 58
1, 216979, Control_c, 0, 64, 113
1, 216981, Note_on_c, 0, 77, 62
1, 216994, Control_c, 0, 64, 127
1, 217009, Control_c, 0, 67, 79
1, 217024, Control_c, 0, 67, 78
1, 217026, Note_off_c, 0, 67, 52
1, 217053, Control_c, 0, 67, 78
1, 217069, Note_off_c, 0, 77, 60
1, 217075, Note_on_c, 0, 68, 57
1, 217091, Note_on_c, 0, 59, 55
1, 217135, Note_off_c, 0, 59, 62
1, 217172, Control_c, 0, 67, 78
1, 217202, Control_c, 0, 67, 79
1, 217226, Note_off_c, 0, 68, 49
1, 217231, Control_c, 0, 64, 121
1, 217244, Note_on_c, 0, 75, 58
1, 217246, Control_c, 0, 64, 93
1, 217258, Note_on_c, 0, 67, 52
1, 217261, Control_c, 0, 64, 76
1, 217270, Note_on_c, 0, 60, 46
1, 217276, Control_c, 0, 64, 64
1, 217290, Control_c, 0, 64, 46
1, 217305, Control_c, 0, 64, 0
1, 217320, Control_c, 0, 67, 80
1, 217414, Note_on_c, 0, 55, 48
1, 217416, Control_c, 0, 64, 37
1, 217416, Control_c, 0, 67, 79
1, 217431, Control_c, 0, 64, 53
1, 217446, Control_c, 0, 64, 61
1, 217456, Note_off_c, 0, 60, 40
1, 217461, Control_c, 0, 64, 65
1, 217466, Note_off_c, 0, 55, 57
1, 217476, Control_c, 0, 64, 68
1, 217490, Control_c, 0, 64, 73
1, 217505, Control_c, 0, 64, 78
1, 217520, Control_c, 0, 64, 83
1, 217520, Control_c, 0, 67, 78
1, 217527, Note_off_c, 0, 75, 56
1, 217535, Control_c, 0, 64, 88
1, 217550, Control_c, 0, 64, 94
1, 217565, Control_c, 0, 64, 99
1, 217580, Control_c, 0, 64, 104
1, 217581, Note_on_c, 0, 55, 52
1, 217595, Control_c, 0, 64, 107
1, 217610, Control_c, 0, 64, 108
1, 217616, Note_off_c, 0, 55, 63
1, 217669, Control_c, 0, 64, 107
1, 217684, Control_c, 0, 64, 104
1, 217699, Control_c, 0, 64, 99
1, 217713, Control_c, 0, 64, 90
1, 217723, Note_on_c, 0, 74, 61
1, 217728, Control_c, 0, 64, 78
1, 217728, Control_c, 0, 67, 78
1, 217729, Note_on_c, 0, 55, 47
1, 217743, Control_c, 0, 64, 67
1, 217743, Control_c, 0, 67, 77
1, 217758, Control_c, 0, 64, 53
1, 217773, Control_c, 0, 64, 26
1, 217773, Control_c, 0, 67, 77
1, 217787, Control_c, 0, 64, 12
1, 217795, Note_off_c, 0, 55, 56
1, 217802, Control_c, 0, 64, 22
1, 217802, Control_c, 0, 67, 76
1, 217817, Control_c, 0, 64, 32
1, 217832, Control_c, 0, 64, 43
1, 217832, Control_c, 0, 67, 75
1, 217847, Control_c, 0, 64, 53
1, 217847, Control_c, 0, 67, 75
1, 217861, Control_c, 0, 64, 59
1, 217861, Control_c, 0, 67, 73
1, 217876, Control_c, 0, 64, 64
1, 217876, Control_c, 0, 67, 72
1, 217878, Note_on_c, 0, 55, 33
1, 217891, Control_c, 0, 64, 67
1, 217891, Control_c, 0, 67, 70
1, 217905, Control_c, 0, 64, 70
1, 217905, Control_c, 0, 67, 66
1, 217920, Control_c, 0, 64, 75
1, 217920, Control_c, 0, 67, 59
1, 217929, Note_off_c, 0, 55, 59
1, 217935, Control_c, 0, 64, 82
1, 217935, Control_c, 0, 67, 53
1, 217950, Control_c, 0, 64, 91
1, 217950, Control_c, 0, 67, 47
1, 217965, Control_c, 0, 64, 108
1, 217965, Control_c, 0, 67, 43
1, 217980, Control_c, 0, 64, 127
1, 217980, Control_c, 0, 67, 38
1, 217995, Control_c, 0, 67, 36
1, 218009, Control_c, 0, 67, 35
1, 218024, Control_c, 0, 67, 35
1, 218038, Note_off_c, 0, 74, 55
1, 218048, Note_on_c, 0, 55, 48
1, 218081, Note_on_c, 0, 72, 58
1, 218087, Note_off_c, 0, 55, 62
1, 218180, Control_c, 0, 64, 103
1, 218194, Control_c, 0, 64, 84
1, 218197, Note_on_c, 0, 71, 63
1, 218203, Note_off_c, 0, 72, 56
1, 218209, Control_c, 0, 64, 69
1, 218215, Note_on_c, 0, 55, 43
1, 218224, Control_c, 0, 64, 56
1, 218239, Control_c, 0, 64, 26
1, 218254, Control_c, 0, 64, 0
1, 218271, Note_off_c, 0, 55, 58
1, 218299, Control_c, 0, 64, 23
1, 218313, Control_c, 0, 64, 38
1, 218328, Control_c, 0, 64, 51
1, 218343, Control_c, 0, 64, 61
1, 218343, Control_c, 0, 67, 34
1, 218358, Control_c, 0, 64, 65
1, 218373, Control_c, 0, 64, 70
1, 218387, Note_on_c, 0, 55, 42
1, 218388, Note_off_c, 0, 71, 57
1, 218388, Control_c, 0, 64, 77
1, 218403, Control_c, 0, 64, 86
1, 218403, Control_c, 0, 67, 33
1, 218418, Control_c, 0, 64, 101
1, 218427, Note_off_c, 0, 55, 61
1, 218433, Control_c, 0, 64, 127
1, 218542, Note_on_c, 0, 55, 39
1, 218573, Note_off_c, 0, 55, 56
1, 218588, Note_off_c, 0, 67, 36
1, 218682, Note_on_c, 0, 55, 41
1, 218684, Control_c, 0, 64, 96
1, 218686, Note_on_c, 0, 68, 52
1, 218687, Note_on_c, 0, 71, 56
1, 218699, Control_c, 0, 64, 78
1, 218714, Control_c, 0, 64, 63
1, 218728, Control_c, 0, 64, 48
1, 218743, Control_c, 0, 64, 38
1, 218758, Control_c, 0, 64, 43
1, 218773, Control_c, 0, 64, 50
1, 218775, Note_off_c, 0, 55, 54
1, 218788, Control_c, 0, 64, 58
1, 218802, Control_c, 0, 64, 63
1, 218817, Control_c, 0, 64, 67
1, 218832, Control_c, 0, 64, 70
1, 218843, Note_on_c, 0, 55, 26
1, 218847, Control_c, 0, 64, 76
1, 218862, Control_c, 0, 64, 84
1, 218877, Control_c, 0, 64, 96
1, 218892, Control_c, 0, 64, 127
1, 218910, Note_off_c, 0, 55, 59
1, 218933, Note_on_c, 0, 67, 65
1, 218938, Note_off_c, 0, 68, 59
1, 219029, Note_off_c, 0, 67, 60
1, 219030, Note_on_c, 0, 55, 51
1, 219074, Note_off_c, 0, 55, 60
1, 219092, Note_off_c, 0, 71, 51
1, 219136, Control_c, 0, 64, 109
1, 219151, Control_c, 0, 64, 83
1, 219167, Control_c, 0, 64, 67
1, 219181, Note_on_c, 0, 72, 58
1, 219181, Note_on_c, 0, 55, 46
1, 219182, Control_c, 0, 64, 50
1, 219184, Note_on_c, 0, 65, 56
1, 219197, Control_c, 0, 64, 33
1, 219212, Control_c, 0, 64, 34
1, 219227, Control_c, 0, 64, 40
1, 219229, Note_off_c, 0, 55, 60
1, 219241, Control_c, 0, 64, 50
1, 219256, Control_c, 0, 64, 58
1, 219257, Note_off_c, 0, 65, 62
1, 219271, Control_c, 0, 64, 63
1, 219271, Control_c, 0, 67, 34
1, 219286, Control_c, 0, 64, 66
1, 219301, Control_c, 0, 64, 69
1, 219315, Control_c, 0, 64, 73
1, 219330, Control_c, 0, 64, 79
1, 219331, Note_on_c, 0, 55, 53
1, 219345, Control_c, 0, 64, 89
1, 219360, Control_c, 0, 64, 108
1, 219369, Note_off_c, 0, 72, 56
1, 219375, Note_off_c, 0, 55, 61
1, 219375, Control_c, 0, 64, 127
1, 219391, Note_on_c, 0, 63, 62
1, 219428, Note_off_c, 0, 63, 61
1, 219512, Note_on_c, 0, 55, 44
1, 219547, Note_off_c, 0, 55, 61
1, 219641, Control_c, 0, 64, 99
1, 219661, Note_on_c, 0, 77, 65
1, 219661, Note_on_c, 0, 55, 54
1, 219664, Control_c, 0, 64, 78
1, 219679, Control_c, 0, 64, 64
1, 219680, Note_on_c, 0, 62, 54
1, 219693, Control_c, 0, 64, 45
1, 219701, Note_off_c, 0, 55, 61
1, 219708, Control_c, 0, 64, 31
1, 219723, Control_c, 0, 64, 37
1, 219732, Note_off_c, 0, 62, 54
1, 219738, Control_c, 0, 64, 48
1, 219753, Control_c, 0, 64, 57
1, 219767, Control_c, 0, 64, 63
1, 219782, Control_c, 0, 64, 66
1, 219797, Control_c, 0, 64, 69
1, 219812, Control_c, 0, 64, 74
1, 219824, Note_on_c, 0, 55, 51
1, 219826, Control_c, 0, 64, 79
1, 219826, Control_c, 0, 67, 33
1, 219841, Control_c, 0, 64, 87
1, 219841, Control_c, 0, 67, 33
1, 219842, Note_on_c, 0, 60, 45
1, 219856, Control_c, 0, 64, 97
1, 219871, Control_c, 0, 64, 117
1, 219875, Note_off_c, 0, 55, 59
1, 219877, Note_off_c, 0, 60, 61
1, 219885, Control_c, 0, 64, 127
1, 219915, Control_c, 0, 67, 32
1, 219918, Note_off_c, 0, 77, 57
1, 219930, Control_c, 0, 67, 31
1, 219945, Control_c, 0, 67, 31
1, 219951, Note_on_c, 0, 75, 59
1, 219991, Note_on_c, 0, 60, 42
1, 220004, Note_on_c, 0, 55, 44
1, 220005, Control_c, 0, 67, 30
1, 220022, Note_off_c, 0, 75, 62
1, 220049, Control_c, 0, 67, 29
1, 220058, Note_off_c, 0, 55, 55
1, 220072, Note_off_c, 0, 60, 43
1, 220197, Control_c, 0, 67, 30
1, 220198, Note_on_c, 0, 55, 49
1, 220206, Note_on_c, 0, 74, 55
1, 220211, Note_on_c, 0, 68, 53
1, 220227, Control_c, 0, 67, 31
1, 220242, Control_c, 0, 64, 101
1, 220242, Control_c, 0, 67, 32
1, 220257, Control_c, 0, 64, 85
1, 220257, Control_c, 0, 67, 33
1, 220272, Control_c, 0, 64, 72
1, 220272, Control_c, 0, 67, 34
1, 220287, Control_c, 0, 64, 62
1, 220287, Control_c, 0, 67, 35
1, 220301, Control_c, 0, 64, 41
1, 220301, Control_c, 0, 67, 36
1, 220310, Note_off_c, 0, 55, 55
1, 220316, Control_c, 0, 64, 0
1, 220316, Control_c, 0, 67, 36
1, 220323, Note_on_c, 0, 67, 57
1, 220331, Control_c, 0, 67, 37
1, 220344, Note_off_c, 0, 68, 56
1, 220361, Control_c, 0, 67, 38
1, 220450, Note_on_c, 0, 55, 60
1, 220472, Control_c, 0, 64, 20
1, 220487, Control_c, 0, 64, 33
1, 220487, Control_c, 0, 67, 37
1, 220502, Control_c, 0, 64, 40
1, 220505, Note_off_c, 0, 55, 56
1, 220516, Control_c, 0, 64, 44
1, 220516, Control_c, 0, 67, 36
1, 220531, Control_c, 0, 64, 46
1, 220531, Control_c, 0, 67, 36
1, 220546, Control_c, 0, 64, 47
1, 220561, Control_c, 0, 64, 50
1, 220576, Control_c, 0, 64, 53
1, 220576, Control_c, 0, 67, 35
1, 220579, Note_on_c, 0, 55, 54
1, 220590, Control_c, 0, 64, 56
1, 220605, Control_c, 0, 64, 58
1, 220620, Control_c, 0, 64, 60
1, 220630, Note_off_c, 0, 55, 60
1, 220635, Control_c, 0, 64, 63
1, 220650, Control_c, 0, 64, 65
1, 220650, Control_c, 0, 67, 35
1, 220663, Control_c, 0, 64, 67
1, 220678, Control_c, 0, 64, 71
1, 220693, Control_c, 0, 64, 75
1, 220693, Control_c, 0, 67, 34
1, 220707, Control_c, 0, 64, 79
1, 220717, Note_on_c, 0, 55, 56
1, 220722, Control_c, 0, 64, 82
1, 220722, Control_c, 0, 67, 33
1, 220737, Control_c, 0, 64, 86
1, 220753, Control_c, 0, 64, 89
1, 220753, Control_c, 0, 67, 33
1, 220760, Note_off_c, 0, 55, 60
1, 220768, Control_c, 0, 64, 93
1, 220768, Control_c, 0, 67, 32
1, 220783, Control_c, 0, 64, 97
1, 220797, Control_c, 0, 64, 104
1, 220797, Control_c, 0, 67, 31
1, 220812, Control_c, 0, 64, 115
1, 220812, Control_c, 0, 67, 31
1, 220827, Control_c, 0, 64, 127
1, 220827, Control_c, 0, 67, 29
1, 220842, Control_c, 0, 67, 28
1, 220851, Note_on_c, 0, 55, 60
1, 220857, Control_c, 0, 67, 26
1, 220871, Control_c, 0, 67, 24
1, 220886, Control_c, 0, 67, 0
1, 220906, Note_off_c, 0, 55, 57
1, 221003, Note_on_c, 0, 55, 66
1, 221048, Note_off_c, 0, 55, 56
1, 221143, Note_on_c, 0, 55, 74
1, 221241, Note_off_c, 0, 74, 61
1, 221282, Note_on_c, 0, 56, 80
1, 221286, Note_off_c, 0, 67, 47
1, 221321, Note_off_c, 0, 55, 62
1, 221353, Control_c, 0, 64, 106
1, 221368, Control_c, 0, 64, 92
1, 221383, Control_c, 0, 64, 81
1, 221398, Control_c, 0, 64, 72
1, 221412, Control_c, 0, 64, 63
1, 221417, Note_on_c, 0, 57, 79
1, 221427, Control_c, 0, 64, 56
1, 221440, Note_off_c, 0, 56, 64
1, 221442, Control_c, 0, 64, 48
1, 221457, Control_c, 0, 64, 40
1, 221472, Control_c, 0, 64, 25
1, 221486, Control_c, 0, 64, 0
1, 221564, Note_on_c, 0, 74, 82
1, 221573, Note_on_c, 0, 58, 77
1, 221605, Note_off_c, 0, 57, 59
1, 221655, Note_off_c, 0, 58, 63
1, 221680, Control_c, 0, 64, 33
1, 221694, Control_c, 0, 64, 59
1, 221707, Note_on_c, 0, 58, 70
1, 221709, Control_c, 0, 64, 67
1, 221724, Control_c, 0, 64, 78
1, 221739, Control_c, 0, 64, 101
1, 221754, Control_c, 0, 64, 127
1, 221780, Note_off_c, 0, 58, 63
1, 221831, Note_on_c, 0, 58, 65
1, 221909, Note_on_c, 0, 75, 86
1, 221935, Note_off_c, 0, 58, 57
1, 221953, Note_off_c, 0, 74, 61
1, 221987, Note_off_c, 0, 75, 64
1, 222043, Control_c, 0, 64, 111
1, 222047, Note_on_c, 0, 65, 83
1, 222049, Note_on_c, 0, 77, 88
1, 222058, Control_c, 0, 64, 80
1, 222058, Note_on_c, 0, 74, 72
1, 222059, Note_on_c, 0, 58, 71
1, 222072, Control_c, 0, 64, 61
1, 222087, Control_c, 0, 64, 18
1, 222102, Control_c, 0, 64, 0
1, 222147, Control_c, 0, 64, 22
1, 222149, Note_off_c, 0, 58, 61
1, 222161, Control_c, 0, 64, 50
1, 222176, Control_c, 0, 64, 61
1, 222191, Control_c, 0, 64, 68
1, 222206, Control_c, 0, 64, 76
1, 222221, Control_c, 0, 64, 91
1, 222233, Note_on_c, 0, 58, 82
1, 222235, Note_off_c, 0, 74, 60
1, 222235, Control_c, 0, 64, 127
1, 222296, Note_off_c, 0, 58, 61
1, 222299, Note_off_c, 0, 65, 58
1, 222321, Note_off_c, 0, 77, 57
1, 222357, Note_on_c, 0, 58, 75
1, 222443, Note_off_c, 0, 58, 59
1, 222488, Control_c, 0, 64, 100
1, 222495, Note_on_c, 0, 58, 65
1, 222500, Note_on_c, 0, 77, 89
1, 222503, Control_c, 0, 64, 72
1, 222505, Note_on_c, 0, 57, 72
1, 222506, Note_on_c, 0, 65, 81
1, 222511, Note_on_c, 0, 74, 75
1, 222517, Control_c, 0, 64, 48
1, 222532, Control_c, 0, 64, 0
1, 222585, Note_off_c, 0, 58, 62
1, 222591, Control_c, 0, 64, 23
1, 222594, Note_off_c, 0, 57, 62
1, 222606, Control_c, 0, 64, 53
1, 222621, Control_c, 0, 64, 65
1, 222636, Control_c, 0, 64, 72
1, 222658, Control_c, 0, 64, 85
1, 222671, Note_on_c, 0, 57, 73
1, 222673, Control_c, 0, 64, 118
1, 222675, Note_on_c, 0, 58, 76
1, 222688, Control_c, 0, 64, 127
1, 222714, Note_off_c, 0, 77, 54
1, 222725, Note_off_c, 0, 74, 58
1, 222731, Note_off_c, 0, 65, 57
1, 222740, Note_off_c, 0, 58, 61
1, 222745, Note_off_c, 0, 57, 61
1, 222804, Note_on_c, 0, 57, 79
1, 222812, Note_on_c, 0, 58, 83
1, 222869, Note_off_c, 0, 58, 61
1, 222876, Note_off_c, 0, 57, 64
1, 222951, Note_on_c, 0, 65, 88
1, 222951, Note_on_c, 0, 77, 94
1, 222954, Note_on_c, 0, 74, 80
1, 222955, Control_c, 0, 64, 83
1, 222962, Note_on_c, 0, 58, 81
1, 222970, Note_on_c, 0, 56, 79
1, 222970, Control_c, 0, 64, 63
1, 222985, Control_c, 0, 64, 0
1, 223025, Note_off_c, 0, 58, 61
1, 223044, Control_c, 0, 64, 31
1, 223047, Note_off_c, 0, 56, 64
1, 223059, Control_c, 0, 64, 56
1, 223074, Control_c, 0, 64, 65
1, 223089, Control_c, 0, 64, 74
1, 223103, Control_c, 0, 64, 88
1, 223115, Note_on_c, 0, 58, 81
1, 223116, Note_on_c, 0, 56, 77
1, 223118, Control_c, 0, 64, 117
1, 223133, Note_off_c, 0, 77, 60
1, 223133, Control_c, 0, 64, 127
1, 223145, Note_off_c, 0, 65, 57
1, 223168, Note_off_c, 0, 58, 59
1, 223175, Note_off_c, 0, 74, 61
1, 223179, Note_off_c, 0, 56, 63
1, 223239, Note_on_c, 0, 56, 83
1, 223253, Note_on_c, 0, 58, 78
1, 223316, Note_off_c, 0, 58, 61
1, 223335, Note_off_c, 0, 56, 61
1, 223386, Control_c, 0, 64, 116
1, 223408, Note_on_c, 0, 55, 82
1, 223408, Control_c, 0, 64, 79
1, 223408, Note_on_c, 0, 67, 92
1, 223409, Note_on_c, 0, 75, 88
1, 223409, Note_on_c, 0, 79, 90
1, 223415, Note_on_c, 0, 58, 77
1, 223423, Control_c, 0, 64, 60
1, 223438, Control_c, 0, 64, 0
1, 223482, Note_off_c, 0, 58, 61
1, 223485, Note_off_c, 0, 55, 60
1, 223497, Control_c, 0, 64, 50
1, 223512, Note_off_c, 0, 67, 60
1, 223512, Control_c, 0, 64, 65
1, 223526, Control_c, 0, 64, 78
1, 223529, Note_off_c, 0, 79, 62
1, 223541, Control_c, 0, 64, 127
1, 223545, Note_off_c, 0, 75, 62
1, 223554, Note_on_c, 0, 55, 84
1, 223559, Note_on_c, 0, 58, 77
1, 223647, Note_off_c, 0, 58, 57
1, 223657, Note_off_c, 0, 55, 56
1, 223688, Note_on_c, 0, 53, 83
1, 223697, Note_on_c, 0, 58, 61
1, 223732, Note_on_c, 0, 68, 98
1, 223734, Note_on_c, 0, 77, 79
1, 223739, Note_on_c, 0, 80, 95
1, 223751, Note_off_c, 0, 58, 60
1, 223766, Note_off_c, 0, 53, 63
1, 223781, Note_off_c, 0, 77, 61
1, 223789, Note_off_c, 0, 68, 62
1, 223840, Note_off_c, 0, 80, 63
1, 223886, Note_on_c, 0, 58, 69
1, 223888, Note_on_c, 0, 51, 70
1, 223926, Control_c, 0, 64, 83
1, 223927, Note_on_c, 0, 79, 59
1, 223941, Control_c, 0, 64, 64
1, 223943, Note_on_c, 0, 70, 91
1, 223946, Note_on_c, 0, 82, 94
1, 223957, Control_c, 0, 64, 22
1, 223962, Note_off_c, 0, 58, 62
1, 223968, Note_off_c, 0, 51, 59
1, 223971, Control_c, 0, 64, 0
1, 224046, Control_c, 0, 64, 45
1, 224061, Control_c, 0, 64, 60
1, 224076, Control_c, 0, 64, 66
1, 224082, Note_on_c, 0, 51, 68
1, 224086, Note_on_c, 0, 58, 68
1, 224091, Control_c, 0, 64, 73
1, 224103, Note_off_c, 0, 82, 62
1, 224105, Control_c, 0, 64, 86
1, 224120, Control_c, 0, 64, 127
1, 224137, Note_off_c, 0, 58, 59
1, 224155, Note_off_c, 0, 51, 55
1, 224158, Note_off_c, 0, 70, 61
1, 224193, Note_off_c, 0, 79, 34
1, 224259, Note_on_c, 0, 51, 50
1, 224259, Note_on_c, 0, 58, 55
1, 224279, Note_off_c, 0, 58, 63
1, 224281, Note_off_c, 0, 51, 61
1, 224379, Control_c, 0, 64, 114
1, 224386, Note_on_c, 0, 80, 81
1, 224394, Control_c, 0, 64, 76
1, 224396, Note_on_c, 0, 77, 61
1, 224400, Note_on_c, 0, 74, 67
1, 224407, Note_on_c, 0, 56, 58
1, 224409, Control_c, 0, 64, 59
1, 224411, Note_on_c, 0, 47, 57
1, 224423, Control_c, 0, 64, 0
1, 224452, Note_off_c, 0, 47, 60
1, 224452, Note_off_c, 0, 56, 60
1, 224468, Control_c, 0, 64, 21
1, 224480, Note_off_c, 0, 77, 59
1, 224483, Control_c, 0, 64, 52
1, 224497, Control_c, 0, 64, 62
1, 224512, Control_c, 0, 64, 67
1, 224527, Control_c, 0, 64, 72
1, 224541, Note_on_c, 0, 47, 61
1, 224542, Control_c, 0, 64, 80
1, 224545, Note_on_c, 0, 56, 62
1, 224556, Control_c, 0, 64, 90
1, 224571, Control_c, 0, 64, 107
1, 224586, Control_c, 0, 64, 127
1, 224588, Note_off_c, 0, 56, 60
1, 224594, Note_off_c, 0, 47, 57
1, 224621, Note_off_c, 0, 80, 54
1, 224685, Note_on_c, 0, 56, 63
1, 224696, Note_on_c, 0, 47, 55
1, 224737, Note_off_c, 0, 47, 61
1, 224758, Note_off_c, 0, 56, 56
1, 224793, Note_off_c, 0, 74, 56
1, 224824, Control_c, 0, 64, 92
1, 224839, Note_on_c, 0, 79, 77
1, 224839, Control_c, 0, 64, 70
1, 224841, Note_on_c, 0, 75, 59
1, 224848, Note_on_c, 0, 55, 61
1, 224854, Control_c, 0, 64, 39
1, 224857, Note_on_c, 0, 48, 54
1, 224858, Note_on_c, 0, 51, 52
1, 224869, Control_c, 0, 64, 0
1, 224908, Note_off_c, 0, 48, 61
1, 224911, Note_off_c, 0, 51, 60
1, 224921, Control_c, 0, 64, 35
1, 224924, Note_off_c, 0, 55, 58
1, 224935, Control_c, 0, 64, 57
1, 224950, Control_c, 0, 64, 65
1, 224955, Note_off_c, 0, 79, 60
1, 224964, Note_off_c, 0, 75, 61
1, 224965, Control_c, 0, 64, 73
1, 224979, Control_c, 0, 64, 83
1, 224994, Control_c, 0, 64, 99
1, 224997, Note_on_c, 0, 55, 55
1, 225009, Control_c, 0, 64, 127
1, 225010, Note_on_c, 0, 51, 58
1, 225023, Note_on_c, 0, 48, 41
1, 225049, Note_off_c, 0, 55, 57
1, 225052, Note_off_c, 0, 48, 56
1, 225053, Note_off_c, 0, 51, 59
1, 225147, Note_on_c, 0, 48, 54
1, 225154, Note_on_c, 0, 51, 59
1, 225159, Note_on_c, 0, 55, 60
1, 225187, Note_off_c, 0, 48, 62
1, 225190, Note_off_c, 0, 51, 64
1, 225191, Note_off_c, 0, 55, 64
1, 225290, Control_c, 0, 64, 100
1, 225305, Control_c, 0, 64, 75
1, 225308, Note_on_c, 0, 77, 80
1, 225317, Note_on_c, 0, 44, 65
1, 225317, Note_on_c, 0, 53, 66
1, 225319, Control_c, 0, 64, 54
1, 225323, Note_on_c, 0, 65, 63
1, 225334, Control_c, 0, 64, 0
1, 225378, Control_c, 0, 64, 19
1, 225381, Note_off_c, 0, 53, 54
1, 225393, Control_c, 0, 64, 50
1, 225405, Note_off_c, 0, 44, 52
1, 225408, Control_c, 0, 64, 62
1, 225423, Control_c, 0, 64, 71
1, 225438, Control_c, 0, 64, 83
1, 225450, Note_off_c, 0, 77, 59
1, 225453, Control_c, 0, 64, 112
1, 225464, Note_on_c, 0, 46, 71
1, 225468, Control_c, 0, 64, 127
1, 225488, Note_on_c, 0, 53, 40
1, 225493, Note_off_c, 0, 65, 52
1, 225526, Note_off_c, 0, 53, 58
1, 225533, Note_off_c, 0, 46, 60
1, 225611, Note_on_c, 0, 44, 79
1, 225625, Note_on_c, 0, 53, 66
1, 225651, Note_on_c, 0, 74, 82
1, 225698, Note_off_c, 0, 74, 63
1, 225704, Note_off_c, 0, 44, 59
1, 225713, Note_off_c, 0, 53, 56
1, 225763, Note_on_c, 0, 71, 91
1, 225771, Note_on_c, 0, 53, 55
1, 225772, Control_c, 0, 64, 94
1, 225775, Note_on_c, 0, 43, 71
1, 225777, Note_on_c, 0, 62, 77
1, 225785, Note_on_c, 0, 67, 59
1, 225787, Control_c, 0, 64, 70
1, 225802, Control_c, 0, 64, 37
1, 225816, Control_c, 0, 64, 0
1, 225885, Note_off_c, 0, 43, 0
1, 225906, Control_c, 0, 64, 9
1, 225920, Control_c, 0, 64, 49
1, 225922, Poly_aftertouch_c, 0, 43, 127
1, 225924, Note_on_c, 0, 44, 76
1, 225935, Control_c, 0, 64, 62
1, 225950, Control_c, 0, 64, 69
1, 225958, Poly_aftertouch_c, 0, 43, 0
1, 225961, Note_off_c, 0, 67, 55
1, 225965, Control_c, 0, 64, 79
1, 225979, Note_off_c, 0, 71, 58
1, 225979, Note_off_c, 0, 53, 54
1, 225980, Control_c, 0, 64, 108
1, 225994, Control_c, 0, 64, 127
1, 226002, Note_off_c, 0, 62, 54
1, 226007, Note_off_c, 0, 44, 62
1, 226061, Note_on_c, 0, 43, 77
1, 226123, Note_off_c, 0, 43, 62
1, 226199, Note_on_c, 0, 71, 92
1, 226201, Control_c, 0, 64, 79
1, 226207, Note_on_c, 0, 62, 81
1, 226207, Note_on_c, 0, 67, 72
1, 226215, Note_on_c, 0, 41, 80
1, 226216, Control_c, 0, 64, 56
1, 226219, Note_on_c, 0, 43, 71
1, 226231, Control_c, 0, 64, 0
1, 226268, Note_off_c, 0, 43, 62
1, 226278, Note_off_c, 0, 41, 64
1, 226305, Control_c, 0, 64, 42
1, 226320, Control_c, 0, 64, 62
1, 226336, Control_c, 0, 64, 71
1, 226351, Note_on_c, 0, 43, 88
1, 226351, Control_c, 0, 64, 92
1, 226356, Note_off_c, 0, 71, 57
1, 226365, Note_off_c, 0, 67, 50
1, 226365, Control_c, 0, 64, 127
1, 226398, Note_off_c, 0, 62, 57
1, 226427, Note_off_c, 0, 43, 61
1, 226495, Note_on_c, 0, 41, 89
1, 226547, Note_on_c, 0, 68, 92
1, 226574, Note_off_c, 0, 41, 62
1, 226580, Control_c, 0, 64, 106
1, 226595, Control_c, 0, 64, 71
1, 226608, Note_off_c, 0, 68, 64
1, 226610, Control_c, 0, 64, 31
1, 226624, Control_c, 0, 64, 0
1, 226645, Note_on_c, 0, 60, 91
1, 226646, Note_on_c, 0, 72, 97
1, 226648, Note_on_c, 0, 67, 83
1, 226653, Note_on_c, 0, 39, 83
1, 226673, Note_on_c, 0, 43, 64
1, 226729, Control_c, 0, 64, 39
1, 226731, Note_off_c, 0, 43, 56
1, 226741, Note_off_c, 0, 39, 60
1, 226743, Control_c, 0, 64, 61
1, 226758, Control_c, 0, 64, 67
1, 226767, Note_off_c, 0, 60, 61
1, 226769, Note_off_c, 0, 67, 62
1, 226773, Control_c, 0, 64, 72
1, 226788, Control_c, 0, 64, 78
1, 226795, Note_on_c, 0, 41, 83
1, 226803, Control_c, 0, 64, 88
1, 226805, Note_off_c, 0, 72, 63
1, 226817, Control_c, 0, 64, 117
1, 226832, Control_c, 0, 64, 127
1, 226881, Note_off_c, 0, 41, 62
1, 226931, Note_on_c, 0, 39, 88
1, 226990, Note_off_c, 0, 39, 63
1, 227054, Control_c, 0, 64, 78
1, 227069, Control_c, 0, 64, 51
1, 227083, Note_on_c, 0, 75, 98
1, 227084, Control_c, 0, 64, 0
1, 227089, Note_on_c, 0, 71, 78
1, 227089, Note_on_c, 0, 65, 89
1, 227090, Note_on_c, 0, 43, 91
1, 227094, Note_on_c, 0, 31, 80
1, 227155, Note_off_c, 0, 31, 58
1, 227167, Note_off_c, 0, 43, 58
1, 227176, Note_off_c, 0, 71, 59
1, 227181, Control_c, 0, 64, 35
1, 227196, Control_c, 0, 64, 67
1, 227211, Control_c, 0, 64, 84
1, 227226, Control_c, 0, 64, 127
1, 227235, Note_off_c, 0, 75, 57
1, 227238, Note_on_c, 0, 32, 84
1, 227241, Note_on_c, 0, 43, 67
1, 227286, Note_off_c, 0, 43, 61
1, 227311, Note_off_c, 0, 32, 60
1, 227367, Note_on_c, 0, 31, 82
1, 227376, Note_on_c, 0, 43, 80
1, 227412, Note_off_c, 0, 31, 62
1, 227440, Note_on_c, 0, 74, 99
1, 227443, Note_off_c, 0, 65, 0
1, 227446, Note_off_c, 0, 43, 62
1, 227480, Poly_aftertouch_c, 0, 65, 0
1, 227536, Note_off_c, 0, 74, 58
1, 227565, Control_c, 0, 64, 91
1, 227580, Control_c, 0, 64, 63
1, 227595, Control_c, 0, 64, 0
1, 227597, Note_on_c, 0, 43, 80
1, 227602, Note_on_c, 0, 72, 96
1, 227604, Note_on_c, 0, 48, 84
1, 227605, Note_on_c, 0, 63, 94
1, 227608, Note_on_c, 0, 36, 76
1, 227677, Note_off_c, 0, 48, 62
1, 227684, Control_c, 0, 64, 52
1, 227698, Note_off_c, 0, 36, 57
1, 227699, Control_c, 0, 64, 64
1, 227713, Control_c, 0, 64, 72
1, 227721, Note_off_c, 0, 43, 64
1, 227728, Control_c, 0, 64, 87
1, 227743, Control_c, 0, 64, 127
1, 227771, Note_on_c, 0, 50, 76
1, 227847, Note_off_c, 0, 50, 61
1, 227906, Note_on_c, 0, 48, 84
1, 227974, Control_c, 0, 64, 121
1, 227987, Note_off_c, 0, 48, 63
1, 227989, Control_c, 0, 64, 76
1, 228003, Control_c, 0, 64, 54
1, 228018, Control_c, 0, 64, 0
1, 228049, Note_on_c, 0, 46, 89
1, 228122, Control_c, 0, 64, 40
1, 228137, Control_c, 0, 64, 62
1, 228151, Control_c, 0, 64, 70
1, 228165, Note_off_c, 0, 46, 60
1, 228166, Control_c, 0, 64, 82
1, 228181, Control_c, 0, 64, 115
1, 228184, Note_on_c, 0, 48, 83
1, 228195, Control_c, 0, 64, 127
1, 228250, Note_off_c, 0, 48, 62
1, 228312, Note_on_c, 0, 46, 92
1, 228376, Note_off_c, 0, 46, 64
1, 228403, Control_c, 0, 64, 75
1, 228418, Control_c, 0, 64, 48
1, 228433, Control_c, 0, 64, 0
1, 228453, Note_on_c, 0, 48, 93
1, 228458, Note_on_c, 0, 44, 82
1, 228477, Control_c, 0, 64, 32
1, 228492, Control_c, 0, 64, 64
1, 228507, Control_c, 0, 64, 80
1, 228522, Control_c, 0, 64, 127
1, 228524, Note_off_c, 0, 48, 63
1, 228525, Note_off_c, 0, 44, 63
1, 228554, Note_off_c, 0, 63, 61
1, 228563, Note_off_c, 0, 72, 52
1, 228592, Note_on_c, 0, 46, 93
1, 228604, Note_on_c, 0, 48, 80
1, 228643, Note_off_c, 0, 48, 63
1, 228661, Note_off_c, 0, 46, 64
1, 228731, Note_on_c, 0, 44, 92
1, 228734, Note_on_c, 0, 48, 91
1, 228800, Note_off_c, 0, 48, 63
1, 228803, Note_off_c, 0, 44, 62
1, 228812, Control_c, 0, 64, 94
1, 228826, Control_c, 0, 64, 68
1, 228841, Control_c, 0, 64, 56
1, 228856, Control_c, 0, 64, 59
1, 228871, Control_c, 0, 64, 66
1, 228874, Note_on_c, 0, 43, 90
1, 228874, Note_on_c, 0, 72, 97
1, 228875, Note_on_c, 0, 48, 89
1, 228876, Note_on_c, 0, 60, 96
1, 228886, Control_c, 0, 64, 83
1, 228900, Control_c, 0, 64, 127
1, 228920, Note_off_c, 0, 60, 66
1, 228931, Note_off_c, 0, 48, 61
1, 228933, Note_off_c, 0, 72, 63
1, 228934, Note_off_c, 0, 43, 63
1, 228997, Note_on_c, 0, 48, 86
1, 229001, Note_on_c, 0, 44, 90
1, 229009, Note_on_c, 0, 60, 97
1, 229009, Note_on_c, 0, 72, 102
1, 229058, Note_off_c, 0, 72, 62
1, 229060, Note_off_c, 0, 60, 65
1, 229065, Note_off_c, 0, 48, 63
1, 229068, Note_off_c, 0, 44, 62
1, 229133, Note_on_c, 0, 43, 92
1, 229134, Note_on_c, 0, 48, 85
1, 229135, Note_on_c, 0, 72, 104
1, 229137, Note_on_c, 0, 60, 96
1, 229165, Note_off_c, 0, 60, 73
1, 229201, Note_off_c, 0, 72, 62
1, 229213, Note_off_c, 0, 48, 61
1, 229215, Note_off_c, 0, 43, 62
1, 229276, Note_on_c, 0, 48, 86
1, 229284, Note_on_c, 0, 41, 90
1, 229320, Note_on_c, 0, 84, 102
1, 229325, Note_on_c, 0, 74, 97
1, 229325, Note_on_c, 0, 72, 94
1, 229330, Control_c, 0, 64, 73
1, 229334, Note_on_c, 0, 80, 76
1, 229345, Control_c, 0, 64, 48
1, 229349, Note_off_c, 0, 80, 67
1, 229359, Control_c, 0, 64, 0
1, 229456, Control_c, 0, 64, 42
1, 229459, Note_on_c, 0, 43, 82
1, 229471, Control_c, 0, 64, 61
1, 229486, Control_c, 0, 64, 68
1, 229500, Control_c, 0, 64, 79
1, 229505, Note_off_c, 0, 41, 61
1, 229515, Control_c, 0, 64, 111
1, 229525, Note_off_c, 0, 48, 62
1, 229530, Control_c, 0, 64, 127
1, 229539, Note_off_c, 0, 43, 64
1, 229602, Note_on_c, 0, 41, 82
1, 229612, Note_on_c, 0, 48, 72
1, 229662, Note_off_c, 0, 48, 62
1, 229675, Note_off_c, 0, 41, 63
1, 229679, Control_c, 0, 64, 101
1, 229694, Control_c, 0, 64, 76
1, 229709, Control_c, 0, 64, 53
1, 229723, Control_c, 0, 64, 0
1, 229736, Note_on_c, 0, 48, 81
1, 229739, Note_on_c, 0, 44, 84
1, 229797, Control_c, 0, 64, 52
1, 229812, Control_c, 0, 64, 65
1, 229821, Note_off_c, 0, 44, 63
1, 229826, Note_off_c, 0, 48, 61
1, 229827, Control_c, 0, 64, 76
1, 229841, Control_c, 0, 64, 106
1, 229856, Control_c, 0, 64, 127
1, 229877, Note_on_c, 0, 46, 84
1, 229885, Note_on_c, 0, 48, 58
1, 229935, Note_off_c, 0, 48, 59
1, 229943, Note_off_c, 0, 46, 63
1, 230008, Note_on_c, 0, 44, 85
1, 230010, Note_on_c, 0, 48, 77
1, 230064, Note_off_c, 0, 44, 63
1, 230073, Note_off_c, 0, 48, 63
1, 230108, Control_c, 0, 64, 80
1, 230123, Control_c, 0, 64, 51
1, 230145, Control_c, 0, 64, 0
1, 230152, Note_on_c, 0, 43, 86
1, 230154, Note_on_c, 0, 48, 81
1, 230204, Control_c, 0, 64, 53
1, 230208, Note_off_c, 0, 48, 63
1, 230211, Note_off_c, 0, 43, 64
1, 230219, Control_c, 0, 64, 66
1, 230234, Control_c, 0, 64, 79
1, 230238, Note_off_c, 0, 84, 60
1, 230249, Control_c, 0, 64, 127
1, 230268, Note_off_c, 0, 74, 59
1, 230288, Note_on_c, 0, 44, 89
1, 230288, Note_on_c, 0, 48, 85
1, 230303, Note_off_c, 0, 72, 62
1, 230347, Note_off_c, 0, 44, 62
1, 230347, Note_off_c, 0, 48, 63
1, 230420, Note_on_c, 0, 43, 93
1, 230434, Note_on_c, 0, 48, 76
1, 230458, Note_off_c, 0, 48, 65
1, 230473, Control_c, 0, 64, 88
1, 230486, Note_off_c, 0, 43, 64
1, 230488, Control_c, 0, 64, 66
1, 230502, Control_c, 0, 64, 57
1, 230517, Control_c, 0, 64, 60
1, 230532, Control_c, 0, 64, 65
1, 230547, Control_c, 0, 64, 84
1, 230550, Note_on_c, 0, 48, 89
1, 230556, Note_on_c, 0, 72, 99
1, 230557, Note_on_c, 0, 41, 91
1, 230557, Note_on_c, 0, 60, 95
1, 230562, Control_c, 0, 64, 127
1, 230598, Note_off_c, 0, 60, 66
1, 230607, Note_off_c, 0, 72, 64
1, 230625, Note_off_c, 0, 41, 60
1, 230634, Note_off_c, 0, 48, 59
1, 230672, Note_on_c, 0, 43, 87
1, 230673, Note_on_c, 0, 48, 71
1, 230683, Note_on_c, 0, 60, 101
1, 230684, Note_on_c, 0, 72, 100
1, 230721, Note_off_c, 0, 60, 66
1, 230729, Note_off_c, 0, 72, 62
1, 230729, Note_off_c, 0, 48, 64
1, 230744, Note_off_c, 0, 43, 63
1, 230801, Note_on_c, 0, 41, 81
1, 230801, Note_on_c, 0, 48, 78
1, 230801, Note_on_c, 0, 60, 101
1, 230804, Note_on_c, 0, 72, 103
1, 230844, Note_off_c, 0, 60, 67
1, 230846, Note_off_c, 0, 41, 61
1, 230849, Note_off_c, 0, 48, 63
1, 230869, Note_off_c, 0, 72, 62
1, 230973, Note_on_c, 0, 39, 86
1, 230977, Note_on_c, 0, 48, 73
1, 231006, Note_on_c, 0, 72, 103
1, 231010, Note_on_c, 0, 75, 98
1, 231010, Note_on_c, 0, 84, 94
1, 231028, Control_c, 0, 64, 102
1, 231043, Control_c, 0, 64, 68
1, 231058, Note_on_c, 0, 82, 15
1, 231058, Control_c, 0, 64, 16
1, 231059, Note_off_c, 0, 82, 49
1, 231072, Control_c, 0, 64, 0
1, 231152, Note_on_c, 0, 41, 74
1, 231161, Control_c, 0, 64, 30
1, 231176, Control_c, 0, 64, 59
1, 231185, Note_off_c, 0, 39, 61
1, 231191, Control_c, 0, 64, 73
1, 231206, Control_c, 0, 64, 103
1, 231221, Control_c, 0, 64, 127
1, 231242, Note_off_c, 0, 41, 62
1, 231280, Note_off_c, 0, 48, 0
1, 231294, Note_on_c, 0, 39, 83
1, 231296, Note_on_c, 0, 48, 34
1, 231348, Note_off_c, 0, 48, 57
1, 231388, Note_off_c, 0, 39, 56
1, 231399, Control_c, 0, 64, 86
1, 231413, Control_c, 0, 64, 66
1, 231428, Control_c, 0, 64, 44
1, 231432, Note_on_c, 0, 48, 81
1, 231433, Note_on_c, 0, 43, 79
1, 231443, Control_c, 0, 64, 0
1, 231473, Control_c, 0, 64, 33
1, 231487, Control_c, 0, 64, 54
1, 231502, Control_c, 0, 64, 64
1, 231517, Control_c, 0, 64, 70
1, 231520, Note_off_c, 0, 43, 55
1, 231532, Control_c, 0, 64, 81
1, 231547, Control_c, 0, 64, 103
1, 231560, Note_on_c, 0, 44, 79
1, 231561, Control_c, 0, 64, 127
1, 231628, Note_off_c, 0, 48, 61
1, 231630, Note_off_c, 0, 44, 62
1, 231689, Note_on_c, 0, 43, 69
1, 231698, Note_on_c, 0, 48, 66
1, 231761, Note_off_c, 0, 48, 59
1, 231787, Note_off_c, 0, 43, 56
1, 231791, Control_c, 0, 64, 82
1, 231806, Control_c, 0, 64, 61
1, 231820, Control_c, 0, 64, 0
1, 231823, Note_off_c, 0, 84, 58
1, 231834, Note_on_c, 0, 41, 80
1, 231846, Note_on_c, 0, 48, 62
1, 231869, Note_off_c, 0, 75, 58
1, 231870, Note_on_c, 0, 40, 21
1, 231871, Note_off_c, 0, 40, 127
1, 231880, Control_c, 0, 64, 54
1, 231881, Note_off_c, 0, 72, 60
1, 231891, Note_off_c, 0, 48, 62
1, 231895, Control_c, 0, 64, 66
1, 231899, Note_off_c, 0, 41, 64
1, 231909, Control_c, 0, 64, 80
1, 231924, Control_c, 0, 64, 127
1, 231963, Note_on_c, 0, 43, 84
1, 231978, Note_on_c, 0, 48, 71
1, 232015, Note_off_c, 0, 48, 62
1, 232038, Note_off_c, 0, 43, 60
1, 232092, Note_on_c, 0, 41, 72
1, 232099, Note_on_c, 0, 48, 69
1, 232107, Note_on_c, 0, 40, 59
1, 232137, Note_off_c, 0, 40, 56
1, 232143, Note_off_c, 0, 48, 55
1, 232154, Note_off_c, 0, 41, 64
1, 232163, Control_c, 0, 64, 98
1, 232178, Control_c, 0, 64, 68
1, 232192, Control_c, 0, 64, 37
1, 232207, Control_c, 0, 64, 0
1, 232222, Control_c, 0, 64, 26
1, 232225, Note_on_c, 0, 60, 84
1, 232225, Note_on_c, 0, 72, 88
1, 232226, Note_on_c, 0, 39, 83
1, 232229, Note_on_c, 0, 48, 70
1, 232236, Control_c, 0, 64, 55
1, 232251, Control_c, 0, 64, 68
1, 232266, Control_c, 0, 64, 93
1, 232272, Note_off_c, 0, 60, 66
1, 232276, Note_off_c, 0, 72, 64
1, 232281, Control_c, 0, 64, 127
1, 232300, Note_off_c, 0, 48, 56
1, 232338, Note_on_c, 0, 48, 60
1, 232350, Note_on_c, 0, 41, 77
1, 232351, Note_on_c, 0, 72, 96
1, 232354, Note_on_c, 0, 60, 91
1, 232406, Note_off_c, 0, 72, 65
1, 232407, Note_off_c, 0, 60, 63
1, 232417, Note_off_c, 0, 39, 34
1, 232431, Note_off_c, 0, 41, 61
1, 232485, Note_on_c, 0, 72, 97
1, 232486, Note_on_c, 0, 39, 80
1, 232486, Note_on_c, 0, 60, 93
1, 232511, Note_off_c, 0, 48, 55
1, 232541, Note_off_c, 0, 60, 64
1, 232545, Note_off_c, 0, 72, 60
1, 232546, Note_off_c, 0, 39, 60
1, 232584, Control_c, 0, 64, 96
1, 232599, Control_c, 0, 64, 64
1, 232614, Control_c, 0, 64, 0
1, 232626, Note_on_c, 0, 65, 90
1, 232630, Note_on_c, 0, 61, 98
1, 232631, Note_on_c, 0, 44, 83
1, 232634, Note_on_c, 0, 37, 79
1, 232634, Note_on_c, 0, 73, 96
1, 232717, Control_c, 0, 64, 43
1, 232733, Control_c, 0, 64, 62
1, 232748, Control_c, 0, 64, 71
1, 232753, Note_on_c, 0, 39, 83
1, 232763, Control_c, 0, 64, 91
1, 232778, Control_c, 0, 64, 127
1, 232801, Note_off_c, 0, 65, 58
1, 232813, Note_off_c, 0, 61, 60
1, 232819, Note_off_c, 0, 44, 61
1, 232828, Note_off_c, 0, 39, 62
1, 232844, Note_off_c, 0, 37, 38
1, 232880, Note_off_c, 0, 73, 64
1, 232903, Note_on_c, 0, 36, 87
1, 232910, Note_on_c, 0, 44, 85
1, 232956, Note_off_c, 0, 44, 58
1, 232958, Note_off_c, 0, 36, 64
1, 233045, Control_c, 0, 64, 106
1, 233049, Note_on_c, 0, 37, 82
1, 233053, Note_on_c, 0, 65, 98
1, 233053, Note_on_c, 0, 77, 100
1, 233060, Control_c, 0, 64, 70
1, 233060, Note_on_c, 0, 44, 72
1, 233075, Control_c, 0, 64, 31
1, 233090, Control_c, 0, 64, 0
1, 233123, Note_off_c, 0, 44, 61
1, 233156, Control_c, 0, 64, 13
1, 233167, Note_on_c, 0, 39, 56
1, 233171, Control_c, 0, 64, 54
1, 233183, Note_off_c, 0, 65, 58
1, 233185, Control_c, 0, 64, 66
1, 233192, Note_off_c, 0, 77, 59
1, 233200, Control_c, 0, 64, 79
1, 233215, Control_c, 0, 64, 127
1, 233223, Note_on_c, 0, 41, 73
1, 233247, Note_off_c, 0, 37, 52
1, 233292, Note_off_c, 0, 39, 58
1, 233322, Note_on_c, 0, 44, 88
1, 233331, Note_off_c, 0, 41, 63
1, 233381, Note_on_c, 0, 68, 96
1, 233382, Note_on_c, 0, 80, 90
1, 233423, Note_off_c, 0, 80, 66
1, 233424, Note_off_c, 0, 68, 66
1, 233434, Note_off_c, 0, 44, 62
1, 233438, Control_c, 0, 64, 81
1, 233453, Control_c, 0, 64, 57
1, 233464, Poly_aftertouch_c, 0, 72, 0
1, 233467, Control_c, 0, 64, 0
1, 233478, Note_on_c, 0, 75, 68
1, 233480, Note_on_c, 0, 67, 102
1, 233486, Note_on_c, 0, 79, 88
1, 233491, Note_on_c, 0, 31, 73
1, 233501, Poly_aftertouch_c, 0, 72, 127
1, 233549, Poly_aftertouch_c, 0, 73, 0
1, 233622, Note_on_c, 0, 43, 81
1, 233631, Control_c, 0, 64, 34
1, 233646, Control_c, 0, 64, 51
1, 233661, Control_c, 0, 64, 62
1, 233676, Control_c, 0, 64, 69
1, 233688, Note_off_c, 0, 43, 62
1, 233690, Control_c, 0, 64, 82
1, 233705, Control_c, 0, 64, 127
1, 233746, Note_off_c, 0, 75, 62
1, 233756, Poly_aftertouch_c, 0, 72, 0
1, 233763, Note_on_c, 0, 43, 84
1, 233798, Note_off_c, 0, 79, 48
1, 233807, Note_off_c, 0, 31, 57
1, 233814, Note_off_c, 0, 67, 50
1, 233871, Note_off_c, 0, 43, 51
1, 233920, Control_c, 0, 64, 81
1, 233922, Note_on_c, 0, 31, 82
1, 233922, Note_on_c, 0, 71, 92
1, 233924, Note_on_c, 0, 74, 82
1, 233925, Note_on_c, 0, 79, 90
1, 233925, Note_on_c, 0, 67, 90
1, 233935, Control_c, 0, 64, 59
1, 233950, Control_c, 0, 64, 0
1, 234013, Note_off_c, 0, 79, 64
1, 234023, Control_c, 0, 64, 47
1, 234038, Control_c, 0, 64, 63
1, 234042, Note_off_c, 0, 74, 61
1, 234051, Note_on_c, 0, 43, 92
1, 234053, Control_c, 0, 64, 72
1, 234068, Note_off_c, 0, 71, 61
1, 234068, Control_c, 0, 64, 91
1, 234083, Control_c, 0, 64, 127
1, 234086, Note_off_c, 0, 67, 61
1, 234127, Note_off_c, 0, 43, 62
1, 234197, Note_on_c, 0, 43, 88
1, 234246, Note_off_c, 0, 31, 47
1, 234258, Note_off_c, 0, 43, 64
1, 234366, Control_c, 0, 64, 121
1, 234381, Control_c, 0, 64, 73
1, 234396, Control_c, 0, 64, 39
1, 234398, Note_on_c, 0, 63, 91
1, 234399, Note_on_c, 0, 60, 97
1, 234402, Note_on_c, 0, 67, 80
1, 234404, Note_on_c, 0, 72, 82
1, 234410, Control_c, 0, 64, 0
1, 234416, Note_on_c, 0, 48, 93
1, 234423, Note_on_c, 0, 36, 80
1, 234485, Control_c, 0, 64, 46
1, 234500, Control_c, 0, 64, 62
1, 234501, Note_off_c, 0, 36, 61
1, 234514, Control_c, 0, 64, 70
1, 234518, Note_off_c, 0, 48, 63
1, 234529, Control_c, 0, 64, 85
1, 234544, Control_c, 0, 64, 127
1, 234607, Note_on_c, 0, 51, 89
1, 234714, Note_off_c, 0, 51, 61
1, 234740, Note_on_c, 0, 50, 83
1, 234803, Control_c, 0, 64, 95
1, 234818, Control_c, 0, 64, 68
1, 234819, Note_off_c, 0, 50, 64
1, 234832, Control_c, 0, 64, 0
1, 234872, Note_on_c, 0, 48, 93
1, 234936, Control_c, 0, 64, 49
1, 234951, Control_c, 0, 64, 63
1, 234966, Control_c, 0, 64, 71
1, 234981, Control_c, 0, 64, 86
1, 234990, Note_off_c, 0, 48, 59
1, 234995, Control_c, 0, 64, 127
1, 235001, Note_on_c, 0, 50, 89
1, 235078, Note_off_c, 0, 50, 60
1, 235130, Note_on_c, 0, 48, 90
1, 235191, Note_off_c, 0, 48, 64
1, 235203, Control_c, 0, 64, 73
1, 235218, Control_c, 0, 64, 45
1, 235233, Control_c, 0, 64, 0
1, 235260, Note_on_c, 0, 47, 98
1, 235278, Control_c, 0, 64, 20
1, 235293, Control_c, 0, 64, 59
1, 235308, Control_c, 0, 64, 72
1, 235320, Note_off_c, 0, 63, 55
1, 235323, Control_c, 0, 64, 107
1, 235337, Control_c, 0, 64, 127
1, 235339, Note_off_c, 0, 47, 57
1, 235346, Note_off_c, 0, 67, 40
1, 235392, Note_on_c, 0, 48, 90
1, 235462, Note_off_c, 0, 48, 63
1, 235519, Note_on_c, 0, 47, 93
1, 235531, Note_off_c, 0, 60, 54
1, 235567, Note_off_c, 0, 47, 65
1, 235576, Note_off_c, 0, 72, 39
1, 235597, Control_c, 0, 64, 98
1, 235611, Control_c, 0, 64, 64
1, 235626, Control_c, 0, 64, 0
1, 235651, Note_on_c, 0, 72, 101
1, 235653, Note_on_c, 0, 60, 93
1, 235665, Note_on_c, 0, 45, 78
1, 235669, Control_c, 0, 64, 52
1, 235670, Note_on_c, 0, 44, 60
1, 235684, Control_c, 0, 64, 69
1, 235687, Note_on_c, 0, 46, 49
1, 235699, Control_c, 0, 64, 104
1, 235702, Note_off_c, 0, 44, 64
1, 235702, Note_off_c, 0, 60, 66
1, 235707, Note_off_c, 0, 72, 65
1, 235714, Control_c, 0, 64, 127
1, 235719, Note_off_c, 0, 46, 35
1, 235723, Note_off_c, 0, 45, 62
1, 235784, Note_on_c, 0, 48, 85
1, 235784, Note_on_c, 0, 72, 104
1, 235786, Note_on_c, 0, 60, 102
1, 235829, Note_off_c, 0, 60, 66
1, 235839, Note_off_c, 0, 72, 63
1, 235900, Note_on_c, 0, 46, 91
1, 235905, Note_on_c, 0, 72, 102
1, 235908, Note_on_c, 0, 60, 103
1, 235931, Note_off_c, 0, 48, 63
1, 235950, Note_off_c, 0, 60, 66
1, 235969, Note_off_c, 0, 72, 63
1, 235982, Note_off_c, 0, 46, 63
1, 236050, Note_on_c, 0, 45, 89
1, 236053, Note_on_c, 0, 48, 95
1, 236113, Note_on_c, 0, 84, 106
1, 236116, Note_on_c, 0, 72, 102
1, 236116, Note_on_c, 0, 74, 103
1, 236152, Control_c, 0, 64, 86
1, 236166, Control_c, 0, 64, 63
1, 236177, Poly_aftertouch_c, 0, 43, 0
1, 236181, Control_c, 0, 64, 0
1, 236255, Note_on_c, 0, 46, 86
1, 236256, Control_c, 0, 64, 30
1, 236271, Control_c, 0, 64, 58
1, 236285, Note_off_c, 0, 45, 55
1, 236285, Control_c, 0, 64, 68
1, 236300, Control_c, 0, 64, 82
1, 236315, Control_c, 0, 64, 127
1, 236321, Note_off_c, 0, 48, 56
1, 236344, Note_off_c, 0, 46, 62
1, 236387, Note_on_c, 0, 45, 86
1, 236396, Note_on_c, 0, 48, 62
1, 236464, Note_off_c, 0, 45, 62
1, 236473, Note_off_c, 0, 48, 58
1, 236477, Control_c, 0, 64, 87
1, 236492, Control_c, 0, 64, 63
1, 236507, Control_c, 0, 64, 0
1, 236517, Note_on_c, 0, 44, 88
1, 236532, Note_on_c, 0, 48, 64
1, 236581, Control_c, 0, 64, 12
1, 236596, Control_c, 0, 64, 55
1, 236604, Note_off_c, 0, 48, 62
1, 236610, Control_c, 0, 64, 67
1, 236618, Note_off_c, 0, 44, 63
1, 236625, Control_c, 0, 64, 79
1, 236640, Control_c, 0, 64, 118
1, 236652, Note_on_c, 0, 48, 62
1, 236655, Control_c, 0, 64, 127
1, 236656, Note_on_c, 0, 46, 88
1, 236716, Note_off_c, 0, 48, 63
1, 236721, Note_off_c, 0, 46, 62
1, 236787, Note_on_c, 0, 44, 84
1, 236789, Note_on_c, 0, 48, 79
1, 236851, Note_off_c, 0, 44, 63
1, 236854, Note_off_c, 0, 48, 62
1, 236864, Control_c, 0, 64, 103
1, 236886, Control_c, 0, 64, 64
1, 236892, Note_off_c, 0, 84, 58
1, 236901, Control_c, 0, 64, 0
1, 236917, Note_off_c, 0, 74, 59
1, 236934, Note_on_c, 0, 48, 87
1, 236935, Note_on_c, 0, 43, 89
1, 236944, Note_off_c, 0, 72, 57
1, 236960, Control_c, 0, 64, 45
1, 236975, Control_c, 0, 64, 65
1, 236989, Control_c, 0, 64, 79
1, 236992, Note_off_c, 0, 48, 63
1, 236994, Note_off_c, 0, 43, 64
1, 237004, Control_c, 0, 64, 127
1, 237068, Note_on_c, 0, 44, 88
1, 237071, Note_on_c, 0, 48, 83
1, 237121, Note_off_c, 0, 48, 63
1, 237126, Note_off_c, 0, 44, 63
1, 237192, Note_on_c, 0, 43, 91
1, 237223, Note_on_c, 0, 48, 58
1, 237247, Note_off_c, 0, 48, 64
1, 237255, Note_off_c, 0, 43, 63
1, 237270, Control_c, 0, 64, 82
1, 237285, Control_c, 0, 64, 67
1, 237299, Control_c, 0, 64, 64
1, 237314, Note_on_c, 0, 48, 82
1, 237314, Control_c, 0, 64, 66
1, 237323, Note_on_c, 0, 72, 98
1, 237323, Note_on_c, 0, 41, 91
1, 237323, Note_on_c, 0, 60, 96
1, 237329, Control_c, 0, 64, 73
1, 237344, Control_c, 0, 64, 107
1, 237359, Control_c, 0, 64, 127
1, 237367, Note_off_c, 0, 60, 67
1, 237374, Note_off_c, 0, 72, 66
1, 237390, Note_off_c, 0, 41, 61
1, 237399, Note_off_c, 0, 48, 62
1, 237436, Note_on_c, 0, 43, 92
1, 237444, Note_on_c, 0, 48, 63
1, 237452, Note_on_c, 0, 60, 101
1, 237452, Note_on_c, 0, 72, 102
1, 237493, Note_off_c, 0, 60, 67
1, 237496, Note_off_c, 0, 72, 66
1, 237499, Note_on_c, 0, 71, 29
1, 237499, Note_off_c, 0, 48, 61
1, 237508, Note_off_c, 0, 43, 64
1, 237534, Note_off_c, 0, 71, 50
1, 237570, Note_on_c, 0, 72, 100
1, 237571, Note_on_c, 0, 60, 100
1, 237576, Note_on_c, 0, 48, 91
1, 237579, Note_on_c, 0, 41, 83
1, 237589, Note_on_c, 0, 43, 70
1, 237604, Note_on_c, 0, 71, 54
1, 237608, Note_off_c, 0, 60, 69
1, 237609, Note_off_c, 0, 43, 63
1, 237633, Note_off_c, 0, 41, 63
1, 237633, Note_off_c, 0, 71, 61
1, 237635, Note_off_c, 0, 72, 64
1, 237668, Note_off_c, 0, 48, 60
1, 237740, Note_on_c, 0, 48, 91
1, 237749, Note_on_c, 0, 40, 86
1, 237758, Note_on_c, 0, 38, 79
1, 237776, Note_on_c, 0, 72, 105
1, 237781, Note_on_c, 0, 84, 100
1, 237783, Note_on_c, 0, 79, 96
1, 237797, Control_c, 0, 64, 123
1, 237812, Control_c, 0, 64, 69
1, 237827, Control_c, 0, 64, 27
1, 237841, Control_c, 0, 64, 0
1, 237854, Note_off_c, 0, 38, 61
1, 237922, Note_on_c, 0, 41, 83
1, 237930, Control_c, 0, 64, 36
1, 237945, Control_c, 0, 64, 56
1, 237960, Control_c, 0, 64, 64
1, 237964, Note_off_c, 0, 40, 32
1, 237975, Control_c, 0, 64, 71
1, 237990, Control_c, 0, 64, 87
1, 238004, Control_c, 0, 64, 127
1, 238009, Note_off_c, 0, 41, 64
1, 238071, Note_on_c, 0, 40, 75
1, 238127, Note_off_c, 0, 40, 63
1, 238182, Control_c, 0, 64, 91
1, 238196, Control_c, 0, 64, 67
1, 238205, Note_off_c, 0, 48, 0
1, 238211, Control_c, 0, 64, 34
1, 238214, Note_on_c, 0, 39, 79
1, 238226, Control_c, 0, 64, 0
1, 238242, Poly_aftertouch_c, 0, 48, 127
1, 238256, Control_c, 0, 64, 17
1, 238271, Control_c, 0, 64, 56
1, 238286, Control_c, 0, 64, 67
1, 238301, Control_c, 0, 64, 79
1, 238315, Control_c, 0, 64, 127
1, 238338, Note_off_c, 0, 39, 53
1, 238351, Note_on_c, 0, 41, 81
1, 238438, Note_off_c, 0, 41, 64
1, 238486, Note_on_c, 0, 39, 84
1, 238546, Poly_aftertouch_c, 0, 48, 0
1, 238555, Note_off_c, 0, 39, 61
1, 238583, Note_off_c, 0, 84, 59
1, 238590, Control_c, 0, 64, 99
1, 238605, Control_c, 0, 64, 70
1, 238615, Note_off_c, 0, 79, 44
1, 238620, Control_c, 0, 64, 43
1, 238627, Note_on_c, 0, 38, 77
1, 238634, Control_c, 0, 64, 0
1, 238635, Note_on_c, 0, 48, 69
1, 238639, Note_off_c, 0, 72, 60
1, 238664, Control_c, 0, 64, 22
1, 238679, Control_c, 0, 64, 53
1, 238686, Note_off_c, 0, 48, 55
1, 238694, Control_c, 0, 64, 64
1, 238709, Control_c, 0, 64, 72
1, 238712, Note_off_c, 0, 38, 54
1, 238724, Control_c, 0, 64, 86
1, 238739, Control_c, 0, 64, 127
1, 238755, Note_on_c, 0, 48, 60
1, 238763, Note_on_c, 0, 39, 76
1, 238774, Note_on_c, 0, 38, 41
1, 238812, Note_off_c, 0, 39, 58
1, 238813, Note_off_c, 0, 38, 61
1, 238829, Note_off_c, 0, 48, 56
1, 238897, Note_on_c, 0, 48, 60
1, 238905, Note_on_c, 0, 36, 80
1, 238934, Note_on_c, 0, 38, 46
1, 238960, Note_off_c, 0, 48, 59
1, 238964, Note_off_c, 0, 36, 60
1, 238968, Note_off_c, 0, 38, 53
1, 239034, Note_on_c, 0, 72, 85
1, 239040, Note_on_c, 0, 60, 79
1, 239042, Note_on_c, 0, 36, 76
1, 239049, Control_c, 0, 64, 89
1, 239051, Note_on_c, 0, 48, 44
1, 239064, Control_c, 0, 64, 66
1, 239079, Control_c, 0, 64, 31
1, 239093, Note_off_c, 0, 60, 63
1, 239093, Control_c, 0, 64, 0
1, 239097, Note_off_c, 0, 72, 64
1, 239127, Note_off_c, 0, 48, 0
1, 239132, Control_c, 0, 64, 45
1, 239147, Control_c, 0, 64, 62
1, 239162, Control_c, 0, 64, 71
1, 239165, Poly_aftertouch_c, 0, 48, 127
1, 239176, Note_on_c, 0, 72, 88
1, 239176, Control_c, 0, 64, 90
1, 239177, Note_on_c, 0, 60, 84
1, 239178, Note_on_c, 0, 38, 67
1, 239191, Control_c, 0, 64, 127
1, 239229, Note_off_c, 0, 60, 65
1, 239237, Note_off_c, 0, 72, 63
1, 239295, Note_on_c, 0, 60, 89
1, 239297, Note_on_c, 0, 72, 88
1, 239299, Note_on_c, 0, 39, 76
1, 239329, Poly_aftertouch_c, 0, 48, 0
1, 239329, Note_off_c, 0, 36, 58
1, 239332, Note_off_c, 0, 38, 60
1, 239359, Note_off_c, 0, 60, 64
1, 239363, Note_off_c, 0, 39, 63
1, 239363, Note_off_c, 0, 72, 62
1, 239431, Note_on_c, 0, 41, 71
1, 239431, Note_on_c, 0, 65, 76
1, 239436, Note_on_c, 0, 73, 91
1, 239437, Note_on_c, 0, 61, 94
1, 239442, Control_c, 0, 64, 92
1, 239457, Control_c, 0, 64, 66
1, 239458, Note_on_c, 0, 44, 66
1, 239472, Control_c, 0, 64, 0
1, 239481, Note_on_c, 0, 60, 39
1, 239508, Note_off_c, 0, 60, 37
1, 239561, Control_c, 0, 64, 31
1, 239570, Note_off_c, 0, 41, 61
1, 239571, Note_on_c, 0, 39, 82
1, 239574, Note_off_c, 0, 61, 59
1, 239576, Control_c, 0, 64, 61
1, 239591, Control_c, 0, 64, 71
1, 239592, Note_off_c, 0, 65, 61
1, 239606, Control_c, 0, 64, 94
1, 239621, Control_c, 0, 64, 127
1, 239652, Note_off_c, 0, 39, 62
1, 239664, Note_off_c, 0, 73, 64
1, 239692, Note_off_c, 0, 44, 0
1, 239707, Note_on_c, 0, 44, 37
1, 239710, Note_on_c, 0, 37, 84
1, 239761, Note_off_c, 0, 44, 61
1, 239781, Note_off_c, 0, 37, 60
1, 239843, Control_c, 0, 64, 76
1, 239854, Note_on_c, 0, 65, 92
1, 239854, Note_on_c, 0, 77, 99
1, 239855, Note_on_c, 0, 37, 78
1, 239858, Control_c, 0, 64, 53
1, 239880, Control_c, 0, 64, 0
1, 239897, Note_on_c, 0, 39, 59
1, 239901, Note_on_c, 0, 44, 30
1, 239925, Control_c, 0, 64, 21
1, 239939, Note_off_c, 0, 44, 32
1, 239940, Control_c, 0, 64, 58
1, 239955, Control_c, 0, 64, 73
1, 239970, Control_c, 0, 64, 127
1, 239976, Note_off_c, 0, 65, 59
1, 239979, Note_off_c, 0, 77, 63
1, 239997, Note_on_c, 0, 41, 81
1, 240035, Note_off_c, 0, 37, 59
1, 240071, Note_off_c, 0, 39, 58
1, 240112, Note_on_c, 0, 44, 88
1, 240113, Note_off_c, 0, 41, 62
1, 240179, Note_on_c, 0, 68, 95
1, 240183, Note_on_c, 0, 80, 85
1, 240195, Note_on_c, 0, 72, 77
1, 240196, Note_on_c, 0, 75, 72
1, 240208, Note_off_c, 0, 80, 66
1, 240220, Note_off_c, 0, 68, 65
1, 240221, Note_off_c, 0, 72, 65
1, 240225, Note_off_c, 0, 44, 63
1, 240226, Note_off_c, 0, 75, 61
1, 240237, Control_c, 0, 64, 90
1, 240251, Control_c, 0, 64, 65
1, 240266, Control_c, 0, 64, 0
1, 240271, Note_on_c, 0, 31, 75
1, 240271, Note_on_c, 0, 67, 83
1, 240275, Note_on_c, 0, 72, 86
1, 240277, Note_on_c, 0, 75, 81
1, 240280, Note_on_c, 0, 79, 85
1, 240414, Note_on_c, 0, 43, 79
1, 240414, Control_c, 0, 64, 39
1, 240429, Control_c, 0, 64, 52
1, 240444, Control_c, 0, 64, 60
1, 240459, Control_c, 0, 64, 65
1, 240471, Note_off_c, 0, 43, 63
1, 240474, Control_c, 0, 64, 70
1, 240488, Control_c, 0, 64, 80
1, 240503, Control_c, 0, 64, 106
1, 240508, Note_off_c, 0, 72, 60
1, 240515, Note_off_c, 0, 75, 60
1, 240518, Control_c, 0, 64, 127
1, 240559, Note_on_c, 0, 43, 77
1, 240562, Note_off_c, 0, 67, 50
1, 240566, Note_off_c, 0, 79, 34
1, 240595, Note_off_c, 0, 31, 52
1, 240685, Note_off_c, 0, 43, 51
1, 240688, Control_c, 0, 64, 82
1, 240703, Note_on_c, 0, 71, 85
1, 240703, Note_on_c, 0, 79, 80
1, 240703, Control_c, 0, 64, 60
1, 240706, Note_on_c, 0, 67, 84
1, 240706, Note_on_c, 0, 74, 74
1, 240713, Note_on_c, 0, 31, 76
1, 240718, Control_c, 0, 64, 0
1, 240778, Control_c, 0, 64, 36
1, 240789, Poly_aftertouch_c, 0, 34, 127
1, 240793, Control_c, 0, 64, 60
1, 240799, Note_off_c, 0, 79, 63
1, 240808, Control_c, 0, 64, 69
1, 240822, Control_c, 0, 64, 87
1, 240824, Note_off_c, 0, 74, 62
1, 240836, Note_on_c, 0, 43, 78
1, 240837, Control_c, 0, 64, 127
1, 240847, Note_off_c, 0, 71, 61
1, 240870, Note_off_c, 0, 67, 60
1, 240897, Note_off_c, 0, 43, 61
1, 240919, Poly_aftertouch_c, 0, 34, 0
1, 240992, Note_on_c, 0, 43, 73
1, 241015, Note_off_c, 0, 31, 53
1, 241035, Note_off_c, 0, 43, 61
1, 241163, Control_c, 0, 64, 87
1, 241178, Control_c, 0, 64, 68
1, 241188, Note_on_c, 0, 72, 75
1, 241192, Note_on_c, 0, 67, 59
1, 241193, Control_c, 0, 64, 50
1, 241199, Note_on_c, 0, 60, 65
1, 241199, Note_on_c, 0, 63, 55
1, 241208, Control_c, 0, 64, 0
1, 241214, Note_on_c, 0, 48, 62
1, 241223, Note_on_c, 0, 36, 58
1, 241290, Note_off_c, 0, 36, 57
1, 241293, Note_off_c, 0, 48, 62
1, 241296, Control_c, 0, 64, 33
1, 241311, Control_c, 0, 64, 55
1, 241326, Control_c, 0, 64, 64
1, 241341, Control_c, 0, 64, 71
1, 241356, Control_c, 0, 64, 78
1, 241378, Control_c, 0, 64, 87
1, 241393, Control_c, 0, 64, 95
1, 241394, Note_on_c, 0, 36, 54
1, 241399, Note_on_c, 0, 48, 57
1, 241408, Control_c, 0, 64, 106
1, 241422, Control_c, 0, 64, 116
1, 241437, Note_off_c, 0, 36, 57
1, 241437, Control_c, 0, 64, 121
1, 241441, Note_off_c, 0, 48, 59
1, 241481, Control_c, 0, 64, 127
1, 241533, Note_on_c, 0, 36, 55
1, 241535, Note_on_c, 0, 48, 57
1, 241557, Control_c, 0, 64, 119
1, 241562, Note_off_c, 0, 36, 59
1, 241568, Note_off_c, 0, 48, 63
1, 241571, Control_c, 0, 64, 115
1, 241586, Control_c, 0, 64, 112
1, 241601, Control_c, 0, 64, 107
1, 241616, Control_c, 0, 64, 97
1, 241631, Control_c, 0, 64, 78
1, 241645, Control_c, 0, 64, 63
1, 241656, Note_on_c, 0, 48, 59
1, 241660, Control_c, 0, 64, 33
1, 241662, Note_on_c, 0, 38, 64
1, 241675, Control_c, 0, 64, 0
1, 241710, Note_off_c, 0, 48, 58
1, 241713, Note_off_c, 0, 38, 60
1, 241720, Control_c, 0, 64, 44
1, 241735, Control_c, 0, 64, 60
1, 241749, Control_c, 0, 64, 66
1, 241764, Control_c, 0, 64, 72
1, 241779, Control_c, 0, 64, 82
1, 241794, Control_c, 0, 64, 97
1, 241796, Note_on_c, 0, 38, 63
1, 241799, Note_on_c, 0, 48, 62
1, 241809, Control_c, 0, 64, 127
1, 241842, Note_off_c, 0, 48, 59
1, 241845, Note_off_c, 0, 38, 59
1, 241928, Note_on_c, 0, 38, 69
1, 241933, Note_on_c, 0, 48, 67
1, 241973, Note_off_c, 0, 48, 58
1, 241978, Note_off_c, 0, 38, 61
1, 242031, Control_c, 0, 64, 87
1, 242045, Control_c, 0, 64, 66
1, 242060, Control_c, 0, 64, 41
1, 242065, Note_on_c, 0, 39, 77
1, 242069, Note_on_c, 0, 48, 68
1, 242075, Control_c, 0, 64, 0
1, 242104, Control_c, 0, 64, 17
1, 242127, Control_c, 0, 64, 49
1, 242128, Note_off_c, 0, 48, 59
1, 242140, Note_off_c, 0, 39, 61
1, 242142, Control_c, 0, 64, 62
1, 242157, Control_c, 0, 64, 70
1, 242171, Control_c, 0, 64, 82
1, 242186, Control_c, 0, 64, 127
1, 242211, Note_on_c, 0, 39, 74
1, 242211, Note_off_c, 0, 67, 46
1, 242213, Note_off_c, 0, 63, 59
1, 242217, Note_on_c, 0, 48, 68
1, 242260, Note_off_c, 0, 48, 59
1, 242273, Note_off_c, 0, 39, 61
1, 242282, Note_off_c, 0, 60, 53
1, 242294, Note_off_c, 0, 72, 55
1, 242339, Note_on_c, 0, 39, 71
1, 242348, Note_on_c, 0, 48, 68
1, 242409, Note_off_c, 0, 39, 60
1, 242409, Note_off_c, 0, 48, 58
1, 242483, Note_on_c, 0, 72, 76
1, 242483, Control_c, 0, 64, 82
1, 242486, Note_on_c, 0, 60, 75
1, 242490, Note_on_c, 0, 48, 65
1, 242491, Note_on_c, 0, 40, 75
1, 242498, Control_c, 0, 64, 65
1, 242513, Control_c, 0, 64, 52
1, 242527, Control_c, 0, 64, 51
1, 242542, Note_off_c, 0, 72, 64
1, 242542, Note_off_c, 0, 60, 64
1, 242542, Control_c, 0, 64, 55
1, 242552, Note_off_c, 0, 48, 58
1, 242555, Note_off_c, 0, 40, 61
1, 242557, Control_c, 0, 64, 61
1, 242572, Control_c, 0, 64, 66
1, 242587, Control_c, 0, 64, 73
1, 242602, Control_c, 0, 64, 89
1, 242617, Control_c, 0, 64, 127
1, 242620, Note_on_c, 0, 40, 65
1, 242621, Note_on_c, 0, 48, 67
1, 242623, Note_on_c, 0, 60, 85
1, 242624, Note_on_c, 0, 72, 82
1, 242671, Note_off_c, 0, 60, 62
1, 242677, Note_off_c, 0, 72, 60
1, 242680, Note_off_c, 0, 48, 62
1, 242685, Note_off_c, 0, 40, 63
1, 242748, Note_on_c, 0, 40, 68
1, 242748, Note_on_c, 0, 72, 84
1, 242749, Note_on_c, 0, 60, 85
1, 242754, Note_on_c, 0, 48, 70
1, 242806, Note_off_c, 0, 60, 65
1, 242811, Note_off_c, 0, 40, 62
1, 242814, Note_off_c, 0, 48, 61
1, 242817, Note_off_c, 0, 72, 54
1, 242885, Note_on_c, 0, 61, 92
1, 242891, Control_c, 0, 64, 85
1, 242892, Note_on_c, 0, 72, 76
1, 242894, Note_on_c, 0, 48, 69
1, 242897, Note_on_c, 0, 41, 77
1, 242906, Control_c, 0, 64, 63
1, 242920, Control_c, 0, 64, 9
1, 242935, Control_c, 0, 64, 0
1, 242950, Control_c, 0, 64, 27
1, 242955, Note_off_c, 0, 72, 59
1, 242964, Note_off_c, 0, 61, 58
1, 242965, Control_c, 0, 64, 53
1, 242970, Note_off_c, 0, 48, 61
1, 242973, Note_off_c, 0, 41, 62
1, 242980, Control_c, 0, 64, 64
1, 242994, Control_c, 0, 64, 74
1, 243009, Control_c, 0, 64, 94
1, 243022, Note_on_c, 0, 61, 80
1, 243024, Control_c, 0, 64, 127
1, 243027, Note_on_c, 0, 72, 80
1, 243029, Note_on_c, 0, 48, 64
1, 243030, Note_on_c, 0, 41, 70
1, 243085, Note_off_c, 0, 61, 60
1, 243088, Note_off_c, 0, 72, 61
1, 243091, Note_off_c, 0, 41, 63
1, 243099, Note_off_c, 0, 48, 60
1, 243155, Note_on_c, 0, 48, 58
1, 243157, Note_on_c, 0, 61, 78
1, 243159, Note_on_c, 0, 41, 66
1, 243159, Note_on_c, 0, 72, 80
1, 243217, Note_off_c, 0, 41, 62
1, 243220, Note_off_c, 0, 48, 62
1, 243225, Note_off_c, 0, 72, 60
1, 243240, Note_off_c, 0, 61, 61
1, 243276, Control_c, 0, 64, 90
1, 243291, Control_c, 0, 64, 69
1, 243306, Control_c, 0, 64, 47
1, 243307, Note_on_c, 0, 48, 57
1, 243308, Note_on_c, 0, 62, 69
1, 243308, Note_on_c, 0, 72, 70
1, 243310, Note_on_c, 0, 42, 69
1, 243321, Control_c, 0, 64, 0
1, 243336, Control_c, 0, 64, 11
1, 243350, Control_c, 0, 64, 32
1, 243365, Control_c, 0, 64, 49
1, 243371, Note_off_c, 0, 42, 60
1, 243377, Note_off_c, 0, 72, 61
1, 243378, Note_off_c, 0, 48, 61
1, 243380, Control_c, 0, 64, 61
1, 243381, Note_off_c, 0, 62, 59
1, 243395, Control_c, 0, 64, 68
1, 243410, Control_c, 0, 64, 76
1, 243425, Control_c, 0, 64, 92
1, 243440, Control_c, 0, 64, 127
1, 243452, Note_on_c, 0, 42, 64
1, 243454, Note_on_c, 0, 48, 52
1, 243456, Note_on_c, 0, 72, 63
1, 243458, Note_on_c, 0, 62, 56
1, 243496, Note_off_c, 0, 62, 59
1, 243502, Note_off_c, 0, 72, 58
1, 243512, Note_off_c, 0, 42, 55
1, 243514, Note_off_c, 0, 48, 58
1, 243599, Note_on_c, 0, 42, 45
1, 243602, Note_on_c, 0, 48, 49
1, 243611, Note_on_c, 0, 62, 52
1, 243621, Note_on_c, 0, 72, 42
1, 243624, Control_c, 0, 67, 14
1, 243639, Control_c, 0, 67, 29
1, 243652, Note_off_c, 0, 62, 60
1, 243654, Control_c, 0, 67, 44
1, 243663, Note_off_c, 0, 72, 45
1, 243666, Note_off_c, 0, 42, 59
1, 243669, Control_c, 0, 67, 58
1, 243679, Note_off_c, 0, 48, 54
1, 243684, Control_c, 0, 67, 73
1, 243699, Control_c, 0, 67, 86
1, 243714, Control_c, 0, 67, 102
1, 243729, Control_c, 0, 64, 116
1, 243729, Control_c, 0, 67, 117
1, 243743, Control_c, 0, 64, 92
1, 243743, Control_c, 0, 67, 127
1, 243758, Control_c, 0, 64, 75
1, 243773, Control_c, 0, 64, 62
1, 243780, Note_on_c, 0, 63, 52
1, 243782, Note_on_c, 0, 43, 49
1, 243784, Note_on_c, 0, 72, 51
1, 243788, Control_c, 0, 64, 47
1, 243800, Note_on_c, 0, 48, 3
1, 243803, Control_c, 0, 64, 36
1, 243817, Control_c, 0, 64, 37
1, 243832, Control_c, 0, 64, 42
1, 243833, Note_off_c, 0, 63, 54
1, 243833, Note_off_c, 0, 72, 56
1, 243847, Control_c, 0, 64, 48
1, 243850, Note_off_c, 0, 43, 57
1, 243854, Note_off_c, 0, 48, 42
1, 243862, Control_c, 0, 64, 55
1, 243876, Control_c, 0, 64, 60
1, 243891, Control_c, 0, 64, 64
1, 243906, Control_c, 0, 64, 67
1, 243922, Control_c, 0, 64, 70
1, 243933, Note_on_c, 0, 48, 40
1, 243933, Note_on_c, 0, 63, 46
1, 243934, Note_on_c, 0, 43, 35
1, 243937, Control_c, 0, 64, 76
1, 243940, Note_on_c, 0, 72, 45
1, 243952, Control_c, 0, 64, 85
1, 243966, Control_c, 0, 64, 97
1, 243981, Control_c, 0, 64, 123
1, 243982, Note_off_c, 0, 72, 60
1, 243987, Note_off_c, 0, 63, 55
1, 243993, Note_off_c, 0, 48, 54
1, 243996, Control_c, 0, 64, 127
1, 243997, Note_off_c, 0, 43, 49
1, 244062, Note_on_c, 0, 43, 37
1, 244071, Note_on_c, 0, 63, 49
1, 244084, Note_on_c, 0, 48, 32
1, 244096, Note_on_c, 0, 72, 35
1, 244125, Note_off_c, 0, 63, 59
1, 244128, Note_off_c, 0, 43, 58
1, 244128, Note_off_c, 0, 72, 53
1, 244139, Note_off_c, 0, 48, 47
1, 244173, Control_c, 0, 64, 113
1, 244188, Control_c, 0, 64, 93
1, 244203, Control_c, 0, 64, 77
1, 244218, Control_c, 0, 64, 65
1, 244226, Note_on_c, 0, 72, 53
1, 244227, Note_on_c, 0, 64, 51
1, 244233, Control_c, 0, 64, 52
1, 244244, Note_on_c, 0, 48, 23
1, 244247, Control_c, 0, 64, 45
1, 244258, Note_on_c, 0, 44, 28
1, 244262, Control_c, 0, 64, 47
1, 244277, Control_c, 0, 64, 50
1, 244283, Note_off_c, 0, 72, 54
1, 244288, Note_off_c, 0, 64, 53
1, 244292, Control_c, 0, 64, 54
1, 244297, Note_off_c, 0, 44, 50
1, 244307, Control_c, 0, 64, 58
1, 244322, Control_c, 0, 64, 61
1, 244337, Control_c, 0, 64, 64
1, 244348, Note_off_c, 0, 48, 0
1, 244352, Control_c, 0, 64, 66
1, 244373, Control_c, 0, 64, 70
1, 244377, Note_on_c, 0, 64, 40
1, 244379, Note_on_c, 0, 72, 36
1, 244385, Note_on_c, 0, 44, 38
1, 244388, Control_c, 0, 64, 74
1, 244392, Poly_aftertouch_c, 0, 48, 127
1, 244403, Control_c, 0, 64, 80
1, 244418, Control_c, 0, 64, 89
1, 244428, Note_off_c, 0, 44, 57
1, 244432, Note_off_c, 0, 72, 57
1, 244433, Control_c, 0, 64, 96
1, 244442, Note_off_c, 0, 64, 57
1, 244447, Control_c, 0, 64, 102
1, 244462, Control_c, 0, 64, 105
1, 244477, Control_c, 0, 64, 106
1, 244497, Poly_aftertouch_c, 0, 48, 0
1, 244521, Note_on_c, 0, 48, 17
1, 244531, Note_on_c, 0, 44, 45
1, 244531, Note_on_c, 0, 64, 40
1, 244542, Note_on_c, 0, 72, 39
1, 244572, Note_off_c, 0, 44, 58
1, 244577, Note_off_c, 0, 64, 56
1, 244580, Note_off_c, 0, 72, 49
1, 244581, Control_c, 0, 64, 106
1, 244596, Control_c, 0, 64, 105
1, 244604, Note_off_c, 0, 48, 40
1, 244611, Control_c, 0, 64, 105
1, 244626, Control_c, 0, 64, 104
1, 244640, Control_c, 0, 64, 104
1, 244670, Control_c, 0, 64, 103
1, 244680, Note_on_c, 0, 48, 26
1, 244685, Control_c, 0, 64, 103
1, 244693, Note_on_c, 0, 64, 43
1, 244696, Note_on_c, 0, 44, 36
1, 244699, Control_c, 0, 64, 102
1, 244703, Note_on_c, 0, 72, 33
1, 244727, Note_off_c, 0, 64, 54
1, 244730, Note_off_c, 0, 44, 52
1, 244741, Note_off_c, 0, 72, 50
1, 244754, Note_off_c, 0, 48, 40
1, 244822, Note_on_c, 0, 48, 25
1, 244839, Note_on_c, 0, 64, 42
1, 244841, Note_on_c, 0, 44, 40
1, 244847, Note_on_c, 0, 72, 31
1, 244869, Note_off_c, 0, 64, 56
1, 244871, Note_off_c, 0, 44, 54
1, 244882, Note_off_c, 0, 48, 43
1, 244882, Note_off_c, 0, 72, 51
1, 244908, Control_c, 0, 64, 103
1, 244976, Note_on_c, 0, 48, 30
1, 244978, Note_on_c, 0, 44, 45
1, 244987, Note_on_c, 0, 64, 46
1, 244996, Note_on_c, 0, 72, 36
1, 245011, Note_off_c, 0, 44, 54
1, 245021, Note_off_c, 0, 64, 55
1, 245028, Note_off_c, 0, 72, 52
1, 245034, Note_off_c, 0, 48, 43
1, 245130, Note_on_c, 0, 48, 29
1, 245136, Note_on_c, 0, 44, 39
1, 245148, Note_on_c, 0, 64, 42
1, 245155, Note_on_c, 0, 72, 31
1, 245166, Note_off_c, 0, 44, 55
1, 245179, Note_off_c, 0, 64, 54
1, 245186, Note_off_c, 0, 48, 45
1, 245189, Note_off_c, 0, 72, 51
1, 245275, Note_on_c, 0, 44, 42
1, 245275, Note_on_c, 0, 48, 29
1, 245284, Note_on_c, 0, 64, 45
1, 245297, Note_on_c, 0, 72, 31
1, 245306, Note_off_c, 0, 44, 55
1, 245315, Note_off_c, 0, 48, 50
1, 245318, Note_off_c, 0, 64, 56
1, 245330, Note_off_c, 0, 72, 53
1, 245419, Control_c, 0, 64, 102
1, 245425, Note_on_c, 0, 44, 33
1, 245427, Note_on_c, 0, 64, 47
1, 245434, Control_c, 0, 64, 102
1, 245437, Note_on_c, 0, 72, 43
1, 245439, Note_on_c, 0, 48, 30
1, 245449, Control_c, 0, 64, 100
1, 245455, Note_off_c, 0, 64, 56
1, 245456, Note_off_c, 0, 44, 53
1, 245464, Control_c, 0, 64, 98
1, 245466, Note_off_c, 0, 72, 55
1, 245479, Control_c, 0, 64, 95
1, 245479, Note_off_c, 0, 48, 50
1, 245493, Control_c, 0, 64, 89
1, 245508, Control_c, 0, 64, 80
1, 245524, Control_c, 0, 64, 69
1, 245538, Control_c, 0, 64, 58
1, 245553, Control_c, 0, 64, 41
1, 245564, Note_on_c, 0, 44, 37
1, 245568, Note_on_c, 0, 72, 45
1, 245568, Control_c, 0, 64, 34
1, 245572, Note_on_c, 0, 65, 50
1, 245583, Control_c, 0, 64, 38
1, 245598, Control_c, 0, 64, 45
1, 245599, Note_on_c, 0, 48, 18
1, 245607, Note_off_c, 0, 44, 57
1, 245613, Control_c, 0, 64, 54
1, 245618, Note_off_c, 0, 65, 59
1, 245621, Note_off_c, 0, 72, 58
1, 245628, Control_c, 0, 64, 61
1, 245642, Note_off_c, 0, 48, 43
1, 245642, Control_c, 0, 64, 64
1, 245657, Control_c, 0, 64, 67
1, 245672, Control_c, 0, 64, 69
1, 245687, Control_c, 0, 64, 72
1, 245702, Control_c, 0, 64, 75
1, 245717, Control_c, 0, 64, 79
1, 245718, Note_on_c, 0, 44, 42
1, 245723, Note_on_c, 0, 72, 50
1, 245729, Note_on_c, 0, 65, 43
1, 245732, Control_c, 0, 64, 84
1, 245737, Note_on_c, 0, 48, 24
1, 245746, Control_c, 0, 64, 89
1, 245761, Note_off_c, 0, 44, 57
1, 245761, Control_c, 0, 64, 93
1, 245768, Note_off_c, 0, 72, 58
1, 245776, Control_c, 0, 64, 95
1, 245781, Note_off_c, 0, 48, 48
1, 245782, Note_off_c, 0, 65, 44
1, 245791, Control_c, 0, 64, 95
1, 245820, Control_c, 0, 64, 96
1, 245835, Control_c, 0, 64, 97
1, 245850, Control_c, 0, 64, 98
1, 245872, Control_c, 0, 64, 99
1, 245877, Note_on_c, 0, 44, 40
1, 245881, Note_on_c, 0, 65, 39
1, 245887, Control_c, 0, 64, 100
1, 245891, Note_on_c, 0, 72, 45
1, 245896, Note_on_c, 0, 48, 32
1, 245902, Control_c, 0, 64, 101
1, 245917, Control_c, 0, 64, 102
1, 245932, Note_off_c, 0, 65, 60
1, 245936, Note_off_c, 0, 44, 57
1, 245937, Note_off_c, 0, 48, 49
1, 245941, Note_off_c, 0, 72, 55
1, 246006, Control_c, 0, 64, 101
1, 246020, Control_c, 0, 64, 100
1, 246035, Control_c, 0, 64, 99
1, 246050, Control_c, 0, 64, 96
1, 246064, Control_c, 0, 64, 91
1, 246079, Control_c, 0, 64, 84
1, 246089, Note_on_c, 0, 72, 48
1, 246094, Control_c, 0, 64, 72
1, 246105, Note_on_c, 0, 66, 48
1, 246109, Control_c, 0, 64, 64
1, 246123, Control_c, 0, 64, 54
1, 246124, Note_on_c, 0, 48, 35
1, 246137, Note_on_c, 0, 45, 32
1, 246138, Control_c, 0, 64, 47
1, 246167, Control_c, 0, 64, 49
1, 246168, Note_off_c, 0, 66, 55
1, 246182, Control_c, 0, 64, 52
1, 246192, Note_off_c, 0, 48, 56
1, 246194, Note_off_c, 0, 72, 59
1, 246196, Note_off_c, 0, 45, 56
1, 246197, Control_c, 0, 64, 55
1, 246212, Control_c, 0, 64, 58
1, 246227, Control_c, 0, 64, 60
1, 246242, Control_c, 0, 64, 61
1, 246257, Control_c, 0, 64, 63
1, 246271, Control_c, 0, 64, 64
1, 246286, Note_on_c, 0, 72, 39
1, 246286, Control_c, 0, 64, 66
1, 246287, Note_on_c, 0, 45, 32
1, 246294, Note_on_c, 0, 48, 22
1, 246301, Control_c, 0, 64, 67
1, 246309, Note_on_c, 0, 66, 33
1, 246316, Control_c, 0, 64, 69
1, 246331, Note_on_c, 0, 63, 14
1, 246331, Control_c, 0, 64, 70
1, 246340, Note_off_c, 0, 45, 58
1, 246340, Note_off_c, 0, 48, 49
1, 246340, Note_off_c, 0, 72, 57
1, 246345, Note_off_c, 0, 66, 52
1, 246346, Control_c, 0, 64, 72
1, 246361, Control_c, 0, 64, 72
1, 246374, Note_off_c, 0, 63, 37
1, 246376, Control_c, 0, 64, 73
1, 246406, Control_c, 0, 64, 72
1, 246435, Control_c, 0, 64, 72
1, 246440, Note_on_c, 0, 45, 38
1, 246442, Note_on_c, 0, 72, 44
1, 246444, Note_on_c, 0, 63, 31
1, 246450, Control_c, 0, 64, 71
1, 246450, Note_on_c, 0, 48, 42
1, 246455, Note_on_c, 0, 66, 43
1, 246465, Control_c, 0, 64, 70
1, 246480, Control_c, 0, 64, 69
1, 246483, Note_off_c, 0, 48, 53
1, 246483, Note_off_c, 0, 63, 51
1, 246485, Note_off_c, 0, 66, 56
1, 246486, Note_off_c, 0, 72, 60
1, 246487, Note_off_c, 0, 45, 59
1, 246494, Control_c, 0, 64, 67
1, 246509, Control_c, 0, 64, 65
1, 246524, Control_c, 0, 64, 64
1, 246554, Control_c, 0, 64, 64
1, 246583, Control_c, 0, 64, 65
1, 246587, Note_on_c, 0, 72, 49
1, 246593, Note_on_c, 0, 45, 37
1, 246593, Note_on_c, 0, 63, 37
1, 246594, Note_on_c, 0, 66, 45
1, 246598, Control_c, 0, 64, 65
1, 246599, Note_on_c, 0, 48, 40
1, 246635, Note_off_c, 0, 72, 62
1, 246638, Note_off_c, 0, 66, 62
1, 246639, Note_off_c, 0, 63, 51
1, 246641, Note_off_c, 0, 48, 51
1, 246644, Note_off_c, 0, 45, 56
1, 246650, Control_c, 0, 64, 66
1, 246665, Control_c, 0, 64, 66
1, 246680, Control_c, 0, 64, 67
1, 246694, Control_c, 0, 64, 67
1, 246709, Control_c, 0, 64, 68
1, 246724, Control_c, 0, 64, 69
1, 246735, Note_on_c, 0, 72, 53
1, 246739, Note_on_c, 0, 66, 52
1, 246745, Note_on_c, 0, 45, 24
1, 246757, Note_on_c, 0, 50, 44
1, 246768, Control_c, 0, 64, 68
1, 246771, Note_on_c, 0, 62, 24
1, 246778, Note_off_c, 0, 66, 62
1, 246778, Note_off_c, 0, 72, 61
1, 246783, Control_c, 0, 64, 67
1, 246790, Note_off_c, 0, 45, 48
1, 246796, Note_off_c, 0, 50, 60
1, 246798, Control_c, 0, 64, 66
1, 246811, Note_off_c, 0, 62, 43
1, 246813, Control_c, 0, 64, 65
1, 246828, Control_c, 0, 64, 63
1, 246842, Control_c, 0, 64, 61
1, 246857, Control_c, 0, 64, 61
1, 246869, Note_on_c, 0, 62, 49
1, 246872, Control_c, 0, 64, 61
1, 246874, Note_on_c, 0, 72, 60
1, 246880, Note_on_c, 0, 66, 51
1, 246887, Control_c, 0, 64, 62
1, 246891, Note_on_c, 0, 50, 47
1, 246901, Control_c, 0, 64, 62
1, 246902, Note_on_c, 0, 45, 28
1, 246920, Note_off_c, 0, 66, 62
1, 246925, Note_off_c, 0, 72, 57
1, 246931, Control_c, 0, 64, 63
1, 246932, Note_off_c, 0, 50, 61
1, 246933, Note_off_c, 0, 62, 55
1, 246960, Control_c, 0, 64, 63
1, 246975, Control_c, 0, 64, 64
1, 246990, Control_c, 0, 64, 65
1, 247005, Control_c, 0, 64, 65
1, 247008, Note_off_c, 0, 45, 0
1, 247014, Note_on_c, 0, 62, 29
1, 247016, Note_on_c, 0, 66, 54
1, 247017, Note_on_c, 0, 72, 45
1, 247020, Control_c, 0, 64, 66
1, 247035, Control_c, 0, 64, 67
1, 247043, Note_on_c, 0, 50, 34
1, 247044, Poly_aftertouch_c, 0, 45, 127
1, 247049, Control_c, 0, 64, 67
1, 247061, Note_off_c, 0, 72, 60
1, 247062, Note_off_c, 0, 66, 57
1, 247064, Note_off_c, 0, 62, 59
1, 247064, Control_c, 0, 64, 68
1, 247079, Control_c, 0, 64, 69
1, 247080, Note_off_c, 0, 50, 44
1, 247094, Control_c, 0, 64, 70
1, 247109, Control_c, 0, 64, 71
1, 247124, Control_c, 0, 64, 72
1, 247139, Control_c, 0, 64, 72
1, 247151, Poly_aftertouch_c, 0, 45, 0
1, 247154, Control_c, 0, 64, 73
1, 247163, Note_on_c, 0, 72, 55
1, 247175, Note_on_c, 0, 66, 42
1, 247184, Control_c, 0, 64, 73
1, 247187, Note_on_c, 0, 50, 39
1, 247187, Poly_aftertouch_c, 0, 45, 127
1, 247190, Note_on_c, 0, 62, 31
1, 247203, Note_off_c, 0, 72, 61
1, 247218, Note_off_c, 0, 66, 59
1, 247220, Note_off_c, 0, 50, 50
1, 247225, Note_off_c, 0, 62, 50
1, 247280, Poly_aftertouch_c, 0, 45, 0
1, 247301, Note_on_c, 0, 72, 57
1, 247312, Note_on_c, 0, 50, 50
1, 247317, Poly_aftertouch_c, 0, 45, 127
1, 247323, Note_on_c, 0, 66, 41
1, 247333, Note_on_c, 0, 62, 44
1, 247352, Note_off_c, 0, 50, 62
1, 247367, Note_off_c, 0, 66, 52
1, 247369, Control_c, 0, 64, 73
1, 247371, Note_off_c, 0, 62, 55
1, 247374, Note_off_c, 0, 72, 58
1, 247376, Poly_aftertouch_c, 0, 45, 0
1, 247398, Control_c, 0, 64, 72
1, 247428, Control_c, 0, 64, 72
1, 247443, Control_c, 0, 64, 71
1, 247458, Control_c, 0, 64, 69
1, 247473, Control_c, 0, 64, 65
1, 247481, Note_on_c, 0, 62, 42
1, 247482, Note_on_c, 0, 72, 60
1, 247488, Control_c, 0, 64, 59
1, 247491, Note_on_c, 0, 50, 37
1, 247494, Note_on_c, 0, 46, 48
1, 247495, Note_on_c, 0, 67, 42
1, 247503, Control_c, 0, 64, 54
1, 247517, Control_c, 0, 64, 51
1, 247532, Control_c, 0, 64, 52
1, 247535, Note_off_c, 0, 67, 61
1, 247541, Note_off_c, 0, 62, 53
1, 247545, Note_off_c, 0, 72, 59
1, 247547, Control_c, 0, 64, 54
1, 247550, Note_off_c, 0, 46, 57
1, 247550, Note_off_c, 0, 50, 50
1, 247562, Control_c, 0, 64, 56
1, 247577, Control_c, 0, 64, 58
1, 247591, Control_c, 0, 64, 60
1, 247606, Control_c, 0, 64, 62
1, 247620, Control_c, 0, 64, 63
1, 247628, Note_on_c, 0, 72, 57
1, 247634, Note_on_c, 0, 50, 19
1, 247635, Note_on_c, 0, 46, 30
1, 247635, Control_c, 0, 64, 64
1, 247637, Note_on_c, 0, 62, 39
1, 247641, Note_on_c, 0, 67, 43
1, 247650, Control_c, 0, 64, 65
1, 247664, Control_c, 0, 64, 67
1, 247679, Note_off_c, 0, 67, 58
1, 247679, Control_c, 0, 64, 68
1, 247685, Note_off_c, 0, 62, 57
1, 247692, Note_off_c, 0, 46, 43
1, 247692, Note_off_c, 0, 72, 55
1, 247694, Control_c, 0, 64, 69
1, 247702, Note_off_c, 0, 50, 40
1, 247708, Control_c, 0, 64, 70
1, 247738, Control_c, 0, 64, 70
1, 247757, Note_on_c, 0, 72, 41
1, 247760, Note_on_c, 0, 46, 35
1, 247762, Note_on_c, 0, 50, 31
1, 247789, Note_on_c, 0, 62, 39
1, 247789, Note_on_c, 0, 67, 46
1, 247814, Note_off_c, 0, 46, 58
1, 247818, Note_off_c, 0, 50, 54
1, 247822, Note_off_c, 0, 62, 53
1, 247822, Note_off_c, 0, 67, 57
1, 247830, Note_off_c, 0, 72, 57
1, 247842, Control_c, 0, 64, 70
1, 247857, Control_c, 0, 64, 69
1, 247872, Control_c, 0, 64, 68
1, 247887, Control_c, 0, 64, 66
1, 247902, Control_c, 0, 64, 64
1, 247913, Note_on_c, 0, 70, 55
1, 247914, Note_on_c, 0, 46, 40
1, 247915, Note_on_c, 0, 50, 22
1, 247917, Control_c, 0, 64, 63
1, 247932, Control_c, 0, 64, 62
1, 247934, Note_on_c, 0, 67, 40
1, 247936, Note_on_c, 0, 62, 37
1, 247947, Control_c, 0, 64, 62
1, 247956, Note_off_c, 0, 70, 59
1, 247962, Control_c, 0, 64, 63
1, 247964, Note_off_c, 0, 46, 59
1, 247966, Note_off_c, 0, 67, 58
1, 247971, Note_off_c, 0, 50, 49
1, 247972, Note_off_c, 0, 62, 51
1, 247977, Control_c, 0, 64, 63
1, 248006, Control_c, 0, 64, 64
1, 248021, Control_c, 0, 64, 64
1, 248036, Control_c, 0, 64, 65
1, 248051, Control_c, 0, 64, 65
1, 248055, Note_on_c, 0, 70, 50
1, 248065, Note_on_c, 0, 46, 39
1, 248066, Note_on_c, 0, 50, 30
1, 248066, Control_c, 0, 64, 66
1, 248072, Note_on_c, 0, 62, 34
1, 248073, Note_on_c, 0, 67, 40
1, 248080, Control_c, 0, 64, 67
1, 248095, Control_c, 0, 64, 68
1, 248096, Note_off_c, 0, 70, 61
1, 248112, Note_off_c, 0, 67, 57
1, 248113, Note_off_c, 0, 46, 57
1, 248114, Note_off_c, 0, 62, 52
1, 248117, Control_c, 0, 64, 70
1, 248120, Note_off_c, 0, 50, 50
1, 248132, Control_c, 0, 64, 71
1, 248146, Control_c, 0, 64, 72
1, 248161, Control_c, 0, 64, 72
1, 248191, Control_c, 0, 64, 73
1, 248204, Note_on_c, 0, 70, 58
1, 248206, Control_c, 0, 64, 73
1, 248210, Note_on_c, 0, 46, 48
1, 248221, Control_c, 0, 64, 74
1, 248228, Note_on_c, 0, 62, 42
1, 248240, Note_off_c, 0, 70, 63
1, 248245, Note_off_c, 0, 46, 63
1, 248255, Poly_aftertouch_c, 0, 50, 127
1, 248257, Note_off_c, 0, 62, 58
1, 248295, Poly_aftertouch_c, 0, 50, 0
1, 248310, Control_c, 0, 64, 73
1, 248325, Control_c, 0, 64, 72
1, 248339, Control_c, 0, 64, 69
1, 248349, Note_on_c, 0, 70, 65
1, 248354, Control_c, 0, 64, 65
1, 248367, Note_on_c, 0, 48, 49
1, 248368, Control_c, 0, 64, 61
1, 248369, Note_on_c, 0, 51, 50
1, 248370, Note_on_c, 0, 60, 45
1, 248379, Note_on_c, 0, 63, 35
1, 248383, Control_c, 0, 64, 58
1, 248398, Control_c, 0, 64, 57
1, 248402, Note_off_c, 0, 60, 57
1, 248406, Note_off_c, 0, 70, 49
1, 248409, Note_off_c, 0, 63, 56
1, 248412, Note_off_c, 0, 51, 59
1, 248412, Control_c, 0, 64, 58
1, 248422, Note_off_c, 0, 48, 56
1, 248427, Control_c, 0, 64, 59
1, 248442, Control_c, 0, 64, 60
1, 248457, Control_c, 0, 64, 61
1, 248472, Control_c, 0, 64, 62
1, 248486, Control_c, 0, 64, 63
1, 248492, Note_on_c, 0, 70, 56
1, 248501, Control_c, 0, 64, 64
1, 248507, Note_on_c, 0, 60, 52
1, 248510, Note_on_c, 0, 51, 46
1, 248510, Note_on_c, 0, 63, 46
1, 248511, Note_on_c, 0, 48, 26
1, 248516, Control_c, 0, 64, 65
1, 248531, Control_c, 0, 64, 66
1, 248546, Control_c, 0, 64, 67
1, 248547, Note_off_c, 0, 51, 57
1, 248552, Note_off_c, 0, 60, 59
1, 248553, Note_off_c, 0, 48, 48
1, 248553, Note_off_c, 0, 63, 59
1, 248556, Note_off_c, 0, 70, 56
1, 248561, Control_c, 0, 64, 67
1, 248576, Control_c, 0, 64, 68
1, 248591, Control_c, 0, 64, 68
1, 248620, Control_c, 0, 64, 69
1, 248632, Note_on_c, 0, 70, 48
1, 248643, Note_on_c, 0, 48, 31
1, 248648, Note_on_c, 0, 51, 42
1, 248648, Note_on_c, 0, 60, 44
1, 248654, Note_on_c, 0, 63, 43
1, 248665, Control_c, 0, 64, 69
1, 248683, Note_off_c, 0, 48, 50
1, 248683, Note_off_c, 0, 51, 53
1, 248687, Note_off_c, 0, 70, 62
1, 248695, Note_off_c, 0, 60, 57
1, 248698, Note_off_c, 0, 63, 58
1, 248725, Control_c, 0, 64, 69
1, 248740, Control_c, 0, 64, 67
1, 248754, Control_c, 0, 64, 66
1, 248769, Control_c, 0, 64, 64
1, 248784, Control_c, 0, 64, 63
1, 248790, Note_on_c, 0, 69, 55
1, 248791, Note_on_c, 0, 51, 47
1, 248792, Note_on_c, 0, 60, 47
1, 248802, Note_on_c, 0, 63, 44
1, 248807, Note_on_c, 0, 48, 37
1, 248814, Control_c, 0, 64, 63
1, 248828, Control_c, 0, 64, 64
1, 248832, Note_off_c, 0, 69, 59
1, 248833, Note_off_c, 0, 51, 57
1, 248841, Note_off_c, 0, 48, 53
1, 248841, Note_off_c, 0, 60, 56
1, 248843, Control_c, 0, 64, 64
1, 248846, Note_off_c, 0, 63, 59
1, 248865, Control_c, 0, 64, 65
1, 248880, Control_c, 0, 64, 66
1, 248895, Control_c, 0, 64, 67
1, 248910, Control_c, 0, 64, 68
1, 248924, Control_c, 0, 64, 69
1, 248939, Control_c, 0, 64, 70
1, 248945, Note_on_c, 0, 60, 37
1, 248947, Note_on_c, 0, 51, 35
1, 248951, Note_on_c, 0, 69, 50
1, 248954, Control_c, 0, 64, 72
1, 248960, Note_on_c, 0, 48, 32
1, 248963, Note_on_c, 0, 63, 35
1, 248969, Control_c, 0, 64, 74
1, 248981, Note_off_c, 0, 51, 52
1, 248984, Control_c, 0, 64, 76
1, 248992, Note_off_c, 0, 69, 58
1, 248999, Note_off_c, 0, 60, 44
1, 248999, Control_c, 0, 64, 77
1, 248999, Note_off_c, 0, 48, 44
1, 249004, Note_off_c, 0, 63, 48
1, 249014, Control_c, 0, 64, 78
1, 249029, Control_c, 0, 64, 79
1, 249075, Note_on_c, 0, 69, 56
1, 249079, Note_on_c, 0, 60, 34
1, 249088, Control_c, 0, 64, 79
1, 249091, Note_on_c, 0, 51, 46
1, 249109, Note_on_c, 0, 63, 29
1, 249116, Note_off_c, 0, 69, 59
1, 249118, Note_off_c, 0, 60, 57
1, 249133, Control_c, 0, 64, 79
1, 249145, Note_off_c, 0, 63, 50
1, 249147, Note_off_c, 0, 51, 42
1, 249148, Control_c, 0, 64, 78
1, 249162, Control_c, 0, 64, 77
1, 249177, Control_c, 0, 64, 76
1, 249192, Control_c, 0, 64, 73
1, 249207, Control_c, 0, 64, 68
1, 249222, Control_c, 0, 64, 62
1, 249232, Note_on_c, 0, 67, 56
1, 249236, Control_c, 0, 64, 56
1, 249251, Control_c, 0, 64, 54
1, 249252, Note_on_c, 0, 58, 45
1, 249258, Note_on_c, 0, 62, 43
1, 249262, Note_on_c, 0, 50, 38
1, 249266, Control_c, 0, 64, 55
1, 249281, Control_c, 0, 64, 57
1, 249289, Note_off_c, 0, 58, 58
1, 249296, Note_off_c, 0, 62, 55
1, 249296, Control_c, 0, 64, 59
1, 249300, Note_off_c, 0, 50, 54
1, 249310, Note_off_c, 0, 67, 58
1, 249310, Control_c, 0, 64, 60
1, 249325, Control_c, 0, 64, 62
1, 249340, Control_c, 0, 64, 63
1, 249354, Control_c, 0, 64, 64
1, 249369, Control_c, 0, 64, 65
1, 249377, Note_on_c, 0, 67, 41
1, 249384, Control_c, 0, 64, 66
1, 249385, Note_on_c, 0, 50, 42
1, 249392, Note_on_c, 0, 58, 43
1, 249399, Control_c, 0, 64, 67
1, 249404, Note_on_c, 0, 62, 32
1, 249414, Control_c, 0, 64, 67
1, 249422, Note_off_c, 0, 58, 55
1, 249425, Note_off_c, 0, 50, 59
1, 249428, Control_c, 0, 64, 68
1, 249434, Note_off_c, 0, 67, 61
1, 249438, Note_off_c, 0, 62, 50
1, 249443, Control_c, 0, 64, 69
1, 249458, Control_c, 0, 64, 70
1, 249473, Control_c, 0, 64, 70
1, 249504, Control_c, 0, 64, 71
1, 249520, Note_on_c, 0, 58, 56
1, 249533, Note_on_c, 0, 67, 47
1, 249533, Control_c, 0, 64, 71
1, 249544, Note_on_c, 0, 50, 42
1, 249548, Control_c, 0, 64, 72
1, 249554, Note_on_c, 0, 62, 25
1, 249561, Note_off_c, 0, 58, 60
1, 249563, Control_c, 0, 64, 72
1, 249565, Note_off_c, 0, 67, 64
1, 249581, Note_off_c, 0, 50, 50
1, 249590, Note_off_c, 0, 62, 44
1, 249615, Control_c, 0, 64, 72
1, 249630, Control_c, 0, 64, 70
1, 249645, Control_c, 0, 64, 68
1, 249659, Control_c, 0, 64, 66
1, 249674, Control_c, 0, 64, 62
1, 249686, Note_on_c, 0, 66, 57
1, 249689, Control_c, 0, 64, 59
1, 249700, Note_on_c, 0, 57, 42
1, 249704, Control_c, 0, 64, 58
1, 249708, Note_on_c, 0, 50, 42
1, 249708, Note_on_c, 0, 62, 43
1, 249718, Control_c, 0, 64, 59
1, 249733, Control_c, 0, 64, 60
1, 249735, Note_off_c, 0, 57, 58
1, 249741, Note_off_c, 0, 62, 58
1, 249744, Note_off_c, 0, 50, 55
1, 249748, Control_c, 0, 64, 61
1, 249752, Note_off_c, 0, 66, 57
1, 249763, Control_c, 0, 64, 62
1, 249778, Control_c, 0, 64, 63
1, 249792, Control_c, 0, 64, 64
1, 249807, Control_c, 0, 64, 65
1, 249822, Control_c, 0, 64, 67
1, 249837, Note_on_c, 0, 57, 47
1, 249837, Control_c, 0, 64, 68
1, 249843, Note_on_c, 0, 66, 40
1, 249852, Note_on_c, 0, 62, 48
1, 249852, Control_c, 0, 64, 70
1, 249866, Control_c, 0, 64, 71
1, 249876, Note_on_c, 0, 50, 21
1, 249880, Note_off_c, 0, 57, 59
1, 249881, Control_c, 0, 64, 73
1, 249893, Note_off_c, 0, 62, 60
1, 249893, Note_off_c, 0, 66, 58
1, 249896, Control_c, 0, 64, 74
1, 249911, Control_c, 0, 64, 75
1, 249926, Control_c, 0, 64, 76
1, 249927, Note_off_c, 0, 50, 46
1, 249956, Control_c, 0, 64, 76
1, 249971, Control_c, 0, 64, 77
1, 249985, Control_c, 0, 64, 77
1, 250000, Control_c, 0, 64, 78
1, 250004, Note_on_c, 0, 57, 42
1, 250008, Note_on_c, 0, 62, 38
1, 250014, Note_on_c, 0, 50, 17
1, 250015, Control_c, 0, 64, 78
1, 250019, Note_on_c, 0, 66, 44
1, 250030, Control_c, 0, 64, 79
1, 250049, Note_off_c, 0, 57, 61
1, 250054, Note_off_c, 0, 62, 55
1, 250060, Note_off_c, 0, 66, 60
1, 250090, Note_off_c, 0, 50, 36
1, 250133, Control_c, 0, 64, 78
1, 250148, Control_c, 0, 64, 78
1, 250163, Control_c, 0, 64, 77
1, 250177, Control_c, 0, 64, 77
1, 250192, Control_c, 0, 64, 75
1, 250207, Control_c, 0, 64, 74
1, 250222, Control_c, 0, 64, 71
1, 250237, Control_c, 0, 64, 66
1, 250244, Note_on_c, 0, 67, 46
1, 250249, Note_on_c, 0, 43, 38
1, 250251, Control_c, 0, 64, 61
1, 250252, Note_on_c, 0, 62, 24
1, 250260, Note_on_c, 0, 58, 33
1, 250266, Control_c, 0, 64, 51
1, 250281, Control_c, 0, 64, 36
1, 250296, Control_c, 0, 64, 28
1, 250312, Control_c, 0, 64, 27
1, 250364, Control_c, 0, 64, 30
1, 250379, Control_c, 0, 64, 36
1, 250394, Control_c, 0, 64, 44
1, 250408, Control_c, 0, 64, 53
1, 250423, Control_c, 0, 64, 59
1, 250438, Control_c, 0, 64, 63
1, 250453, Control_c, 0, 64, 65
1, 250468, Control_c, 0, 64, 67
1, 250480, Note_on_c, 0, 50, 33
1, 250482, Control_c, 0, 64, 69
1, 250497, Control_c, 0, 64, 71
1, 250512, Control_c, 0, 64, 73
1, 250517, Note_off_c, 0, 43, 47
1, 250527, Control_c, 0, 64, 76
1, 250529, Note_off_c, 0, 50, 51
1, 250541, Control_c, 0, 64, 78
1, 250556, Control_c, 0, 64, 80
1, 250571, Control_c, 0, 64, 82
1, 250586, Control_c, 0, 64, 83
1, 250601, Control_c, 0, 64, 84
1, 250615, Control_c, 0, 64, 85
1, 250630, Control_c, 0, 64, 85
1, 250639, Note_on_c, 0, 50, 44
1, 250645, Control_c, 0, 64, 86
1, 250660, Control_c, 0, 64, 86
1, 250675, Control_c, 0, 64, 87
1, 250677, Note_off_c, 0, 50, 50
1, 250790, Note_on_c, 0, 50, 41
1, 250847, Note_off_c, 0, 50, 41
1, 250887, Note_off_c, 0, 58, 33
1, 250913, Note_on_c, 0, 50, 27
1, 250978, Note_off_c, 0, 50, 47
1, 251060, Note_on_c, 0, 50, 21
1, 251139, Note_off_c, 0, 62, 34
1, 251202, Note_off_c, 0, 50, 0
1, 251223, Note_on_c, 0, 50, 17
1, 251350, Note_off_c, 0, 50, 0
1, 251367, Note_on_c, 0, 50, 25
1, 251409, Note_off_c, 0, 67, 52
1, 251497, Note_off_c, 0, 50, 0
1, 251520, Note_on_c, 0, 50, 11
1, 251607, Note_off_c, 0, 50, 39
1, 251691, Control_c, 0, 64, 87
1, 251699, Note_on_c, 0, 50, 27
1, 251714, Note_on_c, 0, 67, 61
1, 251735, Control_c, 0, 64, 88
1, 251750, Control_c, 0, 64, 89
1, 251764, Control_c, 0, 64, 91
1, 251774, Note_off_c, 0, 50, 40
1, 251779, Control_c, 0, 64, 92
1, 251794, Control_c, 0, 64, 93
1, 251809, Control_c, 0, 64, 95
1, 251824, Control_c, 0, 64, 96
1, 251838, Control_c, 0, 64, 98
1, 251838, Control_c, 0, 67, 118
1, 251861, Control_c, 0, 64, 100
1, 251861, Control_c, 0, 67, 109
1, 251876, Control_c, 0, 64, 104
1, 251876, Control_c, 0, 67, 100
1, 251885, Note_on_c, 0, 50, 28
1, 251890, Control_c, 0, 64, 107
1, 251890, Control_c, 0, 67, 92
1, 251906, Control_c, 0, 64, 108
1, 251906, Control_c, 0, 67, 84
1, 251921, Control_c, 0, 64, 111
1, 251921, Control_c, 0, 67, 75
1, 251935, Control_c, 0, 64, 113
1, 251935, Control_c, 0, 67, 66
1, 251950, Control_c, 0, 64, 116
1, 251950, Control_c, 0, 67, 59
1, 251965, Control_c, 0, 64, 121
1, 251965, Control_c, 0, 67, 53
1, 251971, Note_off_c, 0, 50, 39
1, 251980, Control_c, 0, 64, 127
1, 251980, Control_c, 0, 67, 48
1, 251984, Note_off_c, 0, 67, 54
1, 251995, Control_c, 0, 67, 43
1, 252010, Control_c, 0, 67, 38
1, 252025, Control_c, 0, 67, 36
1, 252039, Control_c, 0, 67, 35
1, 252069, Note_on_c, 0, 50, 42
1, 252099, Control_c, 0, 67, 36
1, 252113, Control_c, 0, 67, 37
1, 252123, Note_off_c, 0, 50, 59
1, 252127, Control_c, 0, 67, 38
1, 252141, Note_on_c, 0, 70, 65
1, 252142, Control_c, 0, 67, 40
1, 252157, Control_c, 0, 67, 40
1, 252172, Control_c, 0, 67, 41
1, 252186, Control_c, 0, 64, 121
1, 252186, Control_c, 0, 67, 42
1, 252201, Control_c, 0, 64, 117
1, 252216, Control_c, 0, 64, 112
1, 252216, Control_c, 0, 67, 43
1, 252231, Control_c, 0, 64, 108
1, 252246, Control_c, 0, 64, 103
1, 252246, Control_c, 0, 67, 43
1, 252260, Control_c, 0, 64, 99
1, 252275, Control_c, 0, 64, 93
1, 252287, Note_on_c, 0, 74, 64
1, 252290, Control_c, 0, 64, 85
1, 252305, Control_c, 0, 64, 78
1, 252320, Control_c, 0, 64, 71
1, 252323, Note_off_c, 0, 70, 54
1, 252335, Control_c, 0, 64, 63
1, 252350, Control_c, 0, 64, 57
1, 252364, Control_c, 0, 64, 49
1, 252364, Control_c, 0, 67, 44
1, 252379, Control_c, 0, 64, 39
1, 252394, Control_c, 0, 64, 21
1, 252409, Control_c, 0, 64, 0
1, 252435, Note_on_c, 0, 62, 41
1, 252512, Control_c, 0, 67, 43
1, 252527, Control_c, 0, 67, 42
1, 252542, Control_c, 0, 67, 41
1, 252555, Note_on_c, 0, 67, 45
1, 252557, Control_c, 0, 64, 40
1, 252557, Control_c, 0, 67, 41
1, 252558, Note_on_c, 0, 43, 33
1, 252572, Control_c, 0, 64, 55
1, 252572, Control_c, 0, 67, 40
1, 252586, Control_c, 0, 64, 63
1, 252586, Control_c, 0, 67, 38
1, 252609, Control_c, 0, 64, 69
1, 252609, Control_c, 0, 67, 37
1, 252624, Control_c, 0, 64, 76
1, 252624, Control_c, 0, 67, 36
1, 252633, Note_off_c, 0, 67, 47
1, 252639, Control_c, 0, 64, 86
1, 252639, Control_c, 0, 67, 36
1, 252641, Note_off_c, 0, 43, 47
1, 252654, Control_c, 0, 64, 98
1, 252654, Control_c, 0, 67, 35
1, 252668, Control_c, 0, 64, 112
1, 252678, Note_on_c, 0, 70, 47
1, 252683, Control_c, 0, 64, 127
1, 252689, Note_off_c, 0, 74, 54
1, 252698, Control_c, 0, 67, 35
1, 252718, Note_off_c, 0, 62, 14
1, 252737, Note_off_c, 0, 70, 51
1, 252743, Control_c, 0, 64, 121
1, 252758, Control_c, 0, 64, 115
1, 252773, Control_c, 0, 64, 108
1, 252783, Note_on_c, 0, 74, 68
1, 252788, Control_c, 0, 64, 103
1, 252802, Control_c, 0, 64, 95
1, 252817, Control_c, 0, 64, 88
1, 252832, Control_c, 0, 64, 79
1, 252847, Control_c, 0, 64, 70
1, 252862, Control_c, 0, 64, 62
1, 252877, Control_c, 0, 64, 46
1, 252889, Note_on_c, 0, 62, 44
1, 252892, Control_c, 0, 64, 0
1, 252996, Control_c, 0, 64, 24
1, 253010, Control_c, 0, 64, 43
1, 253014, Note_on_c, 0, 43, 37
1, 253015, Note_on_c, 0, 67, 45
1, 253025, Control_c, 0, 64, 56
1, 253025, Control_c, 0, 67, 34
1, 253040, Control_c, 0, 64, 63
1, 253040, Control_c, 0, 67, 33
1, 253055, Control_c, 0, 64, 67
1, 253070, Control_c, 0, 64, 73
1, 253070, Control_c, 0, 67, 33
1, 253084, Control_c, 0, 64, 83
1, 253084, Control_c, 0, 67, 32
1, 253097, Note_off_c, 0, 43, 57
1, 253099, Control_c, 0, 64, 96
1, 253099, Control_c, 0, 67, 31
1, 253114, Control_c, 0, 64, 127
1, 253114, Control_c, 0, 67, 30
1, 253119, Note_off_c, 0, 67, 56
1, 253125, Note_off_c, 0, 74, 53
1, 253127, Note_on_c, 0, 70, 51
1, 253128, Control_c, 0, 67, 29
1, 253143, Control_c, 0, 67, 26
1, 253158, Control_c, 0, 67, 13
1, 253173, Control_c, 0, 67, 0
1, 253180, Note_off_c, 0, 62, 16
1, 253202, Note_off_c, 0, 70, 55
1, 253244, Note_on_c, 0, 74, 75
1, 253277, Control_c, 0, 64, 97
1, 253291, Control_c, 0, 64, 81
1, 253306, Control_c, 0, 64, 68
1, 253321, Control_c, 0, 64, 57
1, 253335, Note_on_c, 0, 62, 55
1, 253336, Control_c, 0, 64, 27
1, 253358, Control_c, 0, 64, 0
1, 253432, Control_c, 0, 64, 17
1, 253445, Note_off_c, 0, 62, 52
1, 253447, Control_c, 0, 64, 42
1, 253462, Control_c, 0, 64, 56
1, 253463, Note_on_c, 0, 66, 48
1, 253476, Control_c, 0, 64, 63
1, 253480, Note_on_c, 0, 38, 42
1, 253491, Control_c, 0, 64, 67
1, 253507, Control_c, 0, 64, 72
1, 253522, Control_c, 0, 64, 79
1, 253537, Control_c, 0, 64, 86
1, 253552, Control_c, 0, 64, 97
1, 253564, Note_on_c, 0, 69, 57
1, 253566, Control_c, 0, 64, 112
1, 253576, Note_off_c, 0, 74, 56
1, 253581, Control_c, 0, 64, 127
1, 253593, Note_off_c, 0, 66, 36
1, 253628, Note_off_c, 0, 38, 35
1, 253647, Note_off_c, 0, 69, 59
1, 253683, Note_on_c, 0, 74, 75
1, 253745, Control_c, 0, 64, 111
1, 253759, Control_c, 0, 64, 97
1, 253774, Control_c, 0, 64, 82
1, 253789, Control_c, 0, 64, 70
1, 253790, Note_on_c, 0, 62, 49
1, 253804, Control_c, 0, 64, 59
1, 253819, Control_c, 0, 64, 30
1, 253833, Control_c, 0, 64, 0
1, 253914, Note_on_c, 0, 43, 35
1, 253921, Note_on_c, 0, 67, 45
1, 253922, Control_c, 0, 64, 30
1, 253927, Note_off_c, 0, 62, 33
1, 253937, Control_c, 0, 64, 47
1, 253951, Control_c, 0, 64, 58
1, 253966, Control_c, 0, 64, 63
1, 253981, Control_c, 0, 64, 67
1, 253996, Control_c, 0, 64, 72
1, 254011, Control_c, 0, 64, 78
1, 254023, Note_off_c, 0, 74, 57
1, 254025, Control_c, 0, 64, 84
1, 254040, Control_c, 0, 64, 90
1, 254047, Note_on_c, 0, 70, 52
1, 254055, Control_c, 0, 64, 97
1, 254070, Control_c, 0, 64, 107
1, 254085, Control_c, 0, 64, 127
1, 254091, Note_off_c, 0, 67, 33
1, 254104, Note_off_c, 0, 70, 54
1, 254141, Note_off_c, 0, 43, 30
1, 254230, Note_on_c, 0, 75, 70
1, 254270, Control_c, 0, 67, 9
1, 254285, Control_c, 0, 64, 108
1, 254285, Control_c, 0, 67, 18
1, 254301, Control_c, 0, 64, 96
1, 254301, Control_c, 0, 67, 31
1, 254316, Control_c, 0, 64, 85
1, 254316, Control_c, 0, 67, 46
1, 254330, Control_c, 0, 64, 75
1, 254330, Control_c, 0, 67, 65
1, 254343, Note_on_c, 0, 63, 41
1, 254345, Control_c, 0, 64, 67
1, 254345, Control_c, 0, 67, 82
1, 254360, Control_c, 0, 64, 58
1, 254360, Control_c, 0, 67, 97
1, 254374, Control_c, 0, 64, 42
1, 254374, Control_c, 0, 67, 111
1, 254389, Control_c, 0, 64, 0
1, 254389, Control_c, 0, 67, 122
1, 254404, Control_c, 0, 67, 127
1, 254463, Control_c, 0, 64, 21
1, 254467, Note_on_c, 0, 67, 48
1, 254467, Note_off_c, 0, 63, 55
1, 254472, Note_on_c, 0, 36, 38
1, 254478, Control_c, 0, 64, 38
1, 254493, Control_c, 0, 64, 53
1, 254508, Control_c, 0, 64, 61
1, 254508, Control_c, 0, 67, 125
1, 254523, Control_c, 0, 64, 66
1, 254523, Control_c, 0, 67, 124
1, 254531, Note_off_c, 0, 67, 56
1, 254537, Control_c, 0, 64, 69
1, 254537, Control_c, 0, 67, 122
1, 254552, Control_c, 0, 64, 74
1, 254567, Control_c, 0, 64, 80
1, 254567, Control_c, 0, 67, 122
1, 254571, Note_on_c, 0, 72, 53
1, 254582, Control_c, 0, 64, 85
1, 254597, Control_c, 0, 64, 90
1, 254612, Control_c, 0, 64, 94
1, 254626, Note_off_c, 0, 36, 0
1, 254627, Control_c, 0, 64, 98
1, 254642, Control_c, 0, 64, 99
1, 254645, Poly_aftertouch_c, 0, 36, 0
1, 254662, Note_off_c, 0, 72, 58
1, 254671, Control_c, 0, 64, 98
1, 254686, Control_c, 0, 64, 97
1, 254698, Note_on_c, 0, 66, 41
1, 254701, Control_c, 0, 64, 96
1, 254716, Control_c, 0, 64, 94
1, 254730, Control_c, 0, 64, 93
1, 254745, Control_c, 0, 64, 91
1, 254745, Control_c, 0, 67, 122
1, 254760, Control_c, 0, 64, 89
1, 254774, Control_c, 0, 64, 85
1, 254789, Control_c, 0, 64, 78
1, 254796, Note_on_c, 0, 72, 51
1, 254804, Control_c, 0, 64, 70
1, 254806, Note_off_c, 0, 66, 31
1, 254819, Control_c, 0, 64, 62
1, 254834, Control_c, 0, 64, 46
1, 254856, Control_c, 0, 64, 29
1, 254871, Control_c, 0, 64, 26
1, 254901, Control_c, 0, 64, 26
1, 254916, Control_c, 0, 64, 30
1, 254924, Note_on_c, 0, 69, 48
1, 254930, Control_c, 0, 64, 36
1, 254934, Note_on_c, 0, 36, 31
1, 254943, Note_off_c, 0, 75, 48
1, 254945, Control_c, 0, 64, 48
1, 254960, Control_c, 0, 64, 57
1, 254974, Control_c, 0, 64, 62
1, 254974, Control_c, 0, 67, 122
1, 254989, Control_c, 0, 64, 65
1, 254994, Note_off_c, 0, 72, 34
1, 255004, Control_c, 0, 64, 68
1, 255019, Control_c, 0, 64, 70
1, 255019, Control_c, 0, 67, 121
1, 255030, Note_on_c, 0, 66, 39
1, 255034, Control_c, 0, 64, 73
1, 255048, Control_c, 0, 64, 76
1, 255058, Note_off_c, 0, 69, 33
1, 255063, Control_c, 0, 64, 79
1, 255078, Control_c, 0, 64, 81
1, 255086, Note_off_c, 0, 36, 34
1, 255090, Note_off_c, 0, 66, 62
1, 255093, Control_c, 0, 64, 83
1, 255109, Control_c, 0, 64, 83
1, 255124, Control_c, 0, 64, 84
1, 255152, Note_on_c, 0, 74, 65
1, 255168, Control_c, 0, 64, 83
1, 255183, Control_c, 0, 64, 83
1, 255197, Control_c, 0, 64, 82
1, 255212, Control_c, 0, 64, 81
1, 255227, Control_c, 0, 64, 80
1, 255242, Control_c, 0, 64, 79
1, 255257, Control_c, 0, 64, 76
1, 255262, Note_on_c, 0, 62, 46
1, 255271, Control_c, 0, 64, 73
1, 255286, Control_c, 0, 64, 67
1, 255301, Control_c, 0, 64, 60
1, 255316, Control_c, 0, 64, 47
1, 255331, Control_c, 0, 64, 33
1, 255346, Control_c, 0, 64, 30
1, 255374, Note_off_c, 0, 62, 49
1, 255390, Note_on_c, 0, 43, 38
1, 255390, Control_c, 0, 64, 30
1, 255390, Control_c, 0, 67, 120
1, 255395, Note_on_c, 0, 67, 33
1, 255405, Control_c, 0, 64, 35
1, 255405, Control_c, 0, 67, 119
1, 255420, Control_c, 0, 64, 41
1, 255420, Control_c, 0, 67, 118
1, 255435, Control_c, 0, 64, 50
1, 255435, Control_c, 0, 67, 117
1, 255450, Control_c, 0, 64, 58
1, 255450, Control_c, 0, 67, 114
1, 255465, Control_c, 0, 64, 62
1, 255465, Control_c, 0, 67, 111
1, 255468, Note_off_c, 0, 67, 57
1, 255479, Control_c, 0, 64, 64
1, 255479, Control_c, 0, 67, 109
1, 255491, Note_on_c, 0, 70, 44
1, 255494, Control_c, 0, 64, 67
1, 255494, Control_c, 0, 67, 106
1, 255506, Note_off_c, 0, 43, 58
1, 255509, Control_c, 0, 64, 69
1, 255509, Control_c, 0, 67, 104
1, 255524, Control_c, 0, 64, 72
1, 255524, Control_c, 0, 67, 98
1, 255539, Control_c, 0, 64, 75
1, 255539, Control_c, 0, 67, 86
1, 255547, Note_off_c, 0, 70, 57
1, 255553, Control_c, 0, 64, 78
1, 255553, Control_c, 0, 67, 73
1, 255568, Control_c, 0, 64, 82
1, 255568, Control_c, 0, 67, 59
1, 255583, Control_c, 0, 64, 86
1, 255583, Control_c, 0, 67, 45
1, 255605, Control_c, 0, 64, 89
1, 255605, Control_c, 0, 67, 34
1, 255606, Note_on_c, 0, 62, 43
1, 255620, Control_c, 0, 64, 91
1, 255620, Control_c, 0, 67, 24
1, 255634, Control_c, 0, 64, 92
1, 255634, Control_c, 0, 67, 17
1, 255649, Control_c, 0, 64, 93
1, 255649, Control_c, 0, 67, 11
1, 255664, Control_c, 0, 67, 0
1, 255694, Control_c, 0, 64, 92
1, 255709, Control_c, 0, 64, 92
1, 255721, Note_on_c, 0, 70, 52
1, 255724, Control_c, 0, 64, 91
1, 255739, Control_c, 0, 64, 88
1, 255753, Control_c, 0, 64, 83
1, 255768, Control_c, 0, 64, 75
1, 255783, Control_c, 0, 64, 64
1, 255797, Control_c, 0, 64, 54
1, 255799, Note_off_c, 0, 62, 30
1, 255812, Control_c, 0, 64, 47
1, 255827, Control_c, 0, 64, 48
1, 255834, Note_on_c, 0, 67, 59
1, 255836, Note_off_c, 0, 70, 57
1, 255839, Note_on_c, 0, 43, 40
1, 255842, Note_off_c, 0, 74, 58
1, 255842, Control_c, 0, 64, 53
1, 255857, Control_c, 0, 64, 58
1, 255871, Control_c, 0, 64, 63
1, 255886, Control_c, 0, 64, 66
1, 255902, Control_c, 0, 64, 70
1, 255904, Note_off_c, 0, 67, 61
1, 255917, Control_c, 0, 64, 76
1, 255921, Note_on_c, 0, 62, 57
1, 255932, Control_c, 0, 64, 84
1, 255947, Control_c, 0, 64, 96
1, 255962, Control_c, 0, 64, 127
1, 255963, Note_off_c, 0, 43, 57
1, 256055, Note_on_c, 0, 72, 72
1, 256056, Note_off_c, 0, 62, 61
1, 256080, Control_c, 0, 64, 102
1, 256094, Control_c, 0, 64, 87
1, 256109, Control_c, 0, 64, 74
1, 256124, Control_c, 0, 64, 63
1, 256139, Control_c, 0, 64, 48
1, 256153, Control_c, 0, 64, 0
1, 256171, Note_on_c, 0, 60, 48
1, 256228, Control_c, 0, 67, 18
1, 256243, Control_c, 0, 67, 40
1, 256257, Control_c, 0, 67, 58
1, 256272, Control_c, 0, 67, 71
1, 256281, Note_on_c, 0, 63, 44
1, 256284, Note_on_c, 0, 44, 46
1, 256287, Control_c, 0, 64, 40
1, 256287, Control_c, 0, 67, 78
1, 256302, Control_c, 0, 64, 56
1, 256302, Control_c, 0, 67, 79
1, 256309, Note_off_c, 0, 60, 34
1, 256317, Control_c, 0, 64, 63
1, 256332, Control_c, 0, 64, 69
1, 256332, Control_c, 0, 67, 78
1, 256353, Control_c, 0, 64, 74
1, 256353, Control_c, 0, 67, 77
1, 256355, Note_off_c, 0, 63, 52
1, 256368, Control_c, 0, 64, 79
1, 256368, Control_c, 0, 67, 75
1, 256377, Note_off_c, 0, 44, 60
1, 256383, Control_c, 0, 64, 83
1, 256383, Control_c, 0, 67, 74
1, 256391, Note_on_c, 0, 66, 49
1, 256398, Control_c, 0, 64, 85
1, 256398, Control_c, 0, 67, 73
1, 256413, Control_c, 0, 64, 85
1, 256413, Control_c, 0, 67, 73
1, 256427, Control_c, 0, 64, 85
1, 256442, Control_c, 0, 64, 84
1, 256448, Note_off_c, 0, 66, 55
1, 256457, Control_c, 0, 64, 83
1, 256472, Control_c, 0, 64, 82
1, 256472, Control_c, 0, 67, 72
1, 256487, Control_c, 0, 64, 80
1, 256502, Control_c, 0, 64, 78
1, 256507, Note_on_c, 0, 60, 45
1, 256517, Control_c, 0, 64, 74
1, 256517, Control_c, 0, 67, 72
1, 256532, Control_c, 0, 64, 70
1, 256546, Control_c, 0, 64, 65
1, 256561, Control_c, 0, 64, 58
1, 256576, Control_c, 0, 64, 48
1, 256579, Note_off_c, 0, 60, 52
1, 256591, Control_c, 0, 64, 35
1, 256606, Control_c, 0, 64, 24
1, 256606, Control_c, 0, 67, 70
1, 256609, Note_on_c, 0, 66, 42
1, 256620, Control_c, 0, 64, 18
1, 256620, Control_c, 0, 67, 70
1, 256635, Control_c, 0, 67, 69
1, 256665, Control_c, 0, 64, 22
1, 256680, Control_c, 0, 64, 32
1, 256680, Control_c, 0, 67, 68
1, 256696, Control_c, 0, 64, 44
1, 256698, Note_off_c, 0, 72, 42
1, 256711, Control_c, 0, 64, 57
1, 256724, Note_on_c, 0, 45, 40
1, 256725, Control_c, 0, 64, 63
1, 256736, Note_on_c, 0, 63, 40
1, 256740, Control_c, 0, 64, 67
1, 256755, Control_c, 0, 64, 72
1, 256758, Note_off_c, 0, 66, 58
1, 256770, Control_c, 0, 64, 79
1, 256785, Control_c, 0, 64, 86
1, 256799, Control_c, 0, 64, 95
1, 256814, Control_c, 0, 64, 102
1, 256816, Note_off_c, 0, 45, 49
1, 256829, Control_c, 0, 64, 105
1, 256832, Note_on_c, 0, 60, 45
1, 256873, Note_off_c, 0, 60, 60
1, 256873, Control_c, 0, 64, 104
1, 256888, Control_c, 0, 64, 102
1, 256889, Note_off_c, 0, 63, 27
1, 256903, Control_c, 0, 64, 100
1, 256917, Control_c, 0, 64, 98
1, 256932, Control_c, 0, 64, 96
1, 256945, Note_on_c, 0, 70, 58
1, 256947, Control_c, 0, 64, 94
1, 256947, Control_c, 0, 67, 69
1, 256962, Control_c, 0, 64, 91
1, 256976, Control_c, 0, 64, 86
1, 256991, Control_c, 0, 64, 78
1, 257006, Control_c, 0, 64, 69
1, 257021, Control_c, 0, 64, 61
1, 257036, Control_c, 0, 64, 48
1, 257050, Control_c, 0, 64, 30
1, 257052, Note_on_c, 0, 58, 41
1, 257065, Control_c, 0, 64, 17
1, 257080, Control_c, 0, 64, 13
1, 257118, Control_c, 0, 64, 12
1, 257132, Control_c, 0, 64, 13
1, 257132, Control_c, 0, 67, 68
1, 257147, Control_c, 0, 64, 21
1, 257147, Control_c, 0, 67, 68
1, 257149, Note_off_c, 0, 58, 48
1, 257162, Control_c, 0, 64, 32
1, 257176, Control_c, 0, 64, 46
1, 257176, Control_c, 0, 67, 67
1, 257179, Note_on_c, 0, 62, 40
1, 257181, Note_on_c, 0, 46, 34
1, 257191, Control_c, 0, 64, 57
1, 257206, Control_c, 0, 64, 63
1, 257221, Control_c, 0, 64, 66
1, 257221, Control_c, 0, 67, 66
1, 257236, Control_c, 0, 64, 70
1, 257250, Control_c, 0, 64, 75
1, 257250, Control_c, 0, 67, 66
1, 257264, Note_off_c, 0, 62, 51
1, 257265, Control_c, 0, 64, 82
1, 257280, Control_c, 0, 64, 89
1, 257283, Note_on_c, 0, 67, 51
1, 257295, Control_c, 0, 64, 95
1, 257310, Control_c, 0, 64, 100
1, 257317, Note_off_c, 0, 46, 53
1, 257340, Control_c, 0, 64, 99
1, 257354, Control_c, 0, 64, 97
1, 257365, Note_off_c, 0, 67, 50
1, 257369, Control_c, 0, 64, 94
1, 257369, Control_c, 0, 67, 65
1, 257384, Control_c, 0, 64, 90
1, 257384, Control_c, 0, 67, 65
1, 257395, Note_on_c, 0, 58, 50
1, 257399, Control_c, 0, 64, 86
1, 257414, Control_c, 0, 64, 80
1, 257414, Control_c, 0, 67, 64
1, 257429, Control_c, 0, 64, 72
1, 257444, Control_c, 0, 64, 64
1, 257458, Control_c, 0, 64, 47
1, 257458, Control_c, 0, 67, 63
1, 257473, Control_c, 0, 64, 11
1, 257488, Control_c, 0, 64, 0
1, 257488, Control_c, 0, 67, 63
1, 257501, Note_on_c, 0, 67, 56
1, 257503, Control_c, 0, 67, 62
1, 257518, Control_c, 0, 67, 61
1, 257528, Note_off_c, 0, 58, 36
1, 257533, Control_c, 0, 67, 60
1, 257548, Control_c, 0, 64, 19
1, 257548, Control_c, 0, 67, 60
1, 257563, Control_c, 0, 64, 38
1, 257563, Control_c, 0, 67, 58
1, 257578, Control_c, 0, 64, 53
1, 257578, Control_c, 0, 67, 57
1, 257592, Control_c, 0, 64, 62
1, 257592, Control_c, 0, 67, 56
1, 257602, Note_on_c, 0, 50, 42
1, 257605, Note_on_c, 0, 62, 50
1, 257607, Control_c, 0, 64, 67
1, 257607, Control_c, 0, 67, 55
1, 257608, Note_off_c, 0, 70, 35
1, 257622, Control_c, 0, 64, 72
1, 257622, Control_c, 0, 67, 54
1, 257637, Control_c, 0, 64, 83
1, 257637, Control_c, 0, 67, 53
1, 257652, Control_c, 0, 64, 97
1, 257652, Control_c, 0, 67, 53
1, 257666, Control_c, 0, 64, 127
1, 257666, Control_c, 0, 67, 52
1, 257682, Note_off_c, 0, 67, 32
1, 257688, Note_off_c, 0, 50, 60
1, 257688, Note_on_c, 0, 58, 53
1, 257699, Note_off_c, 0, 62, 60
1, 257726, Note_off_c, 0, 58, 65
1, 257816, Note_on_c, 0, 69, 72
1, 257829, Control_c, 0, 67, 53
1, 257852, Control_c, 0, 64, 112
1, 257867, Control_c, 0, 64, 94
1, 257881, Control_c, 0, 64, 79
1, 257896, Control_c, 0, 64, 66
1, 257911, Control_c, 0, 64, 52
1, 257926, Note_on_c, 0, 57, 58
1, 257926, Control_c, 0, 64, 17
1, 257941, Control_c, 0, 64, 0
1, 257970, Control_c, 0, 64, 13
1, 257985, Control_c, 0, 64, 23
1, 257999, Control_c, 0, 64, 36
1, 258011, Note_off_c, 0, 57, 60
1, 258014, Control_c, 0, 64, 52
1, 258014, Control_c, 0, 67, 52
1, 258029, Control_c, 0, 64, 62
1, 258029, Control_c, 0, 67, 51
1, 258033, Note_on_c, 0, 60, 54
1, 258037, Note_on_c, 0, 51, 51
1, 258044, Control_c, 0, 64, 67
1, 258044, Control_c, 0, 67, 50
1, 258059, Control_c, 0, 64, 73
1, 258059, Control_c, 0, 67, 49
1, 258073, Control_c, 0, 64, 82
1, 258073, Control_c, 0, 67, 48
1, 258085, Note_off_c, 0, 69, 34
1, 258088, Control_c, 0, 64, 95
1, 258088, Control_c, 0, 67, 39
1, 258103, Control_c, 0, 64, 127
1, 258103, Control_c, 0, 67, 29
1, 258115, Note_off_c, 0, 60, 62
1, 258118, Control_c, 0, 67, 23
1, 258132, Note_on_c, 0, 67, 62
1, 258133, Control_c, 0, 67, 22
1, 258162, Control_c, 0, 67, 23
1, 258165, Note_off_c, 0, 67, 65
1, 258177, Control_c, 0, 67, 24
1, 258192, Control_c, 0, 67, 25
1, 258207, Note_off_c, 0, 51, 38
1, 258207, Control_c, 0, 67, 26
1, 258222, Control_c, 0, 67, 26
1, 258237, Control_c, 0, 67, 27
1, 258258, Note_on_c, 0, 72, 72
1, 258267, Control_c, 0, 67, 28
1, 258281, Control_c, 0, 64, 115
1, 258296, Control_c, 0, 64, 92
1, 258296, Control_c, 0, 67, 28
1, 258311, Control_c, 0, 64, 78
1, 258326, Control_c, 0, 64, 65
1, 258341, Control_c, 0, 64, 49
1, 258341, Control_c, 0, 67, 29
1, 258356, Control_c, 0, 64, 0
1, 258376, Note_on_c, 0, 63, 51
1, 258445, Control_c, 0, 64, 21
1, 258460, Control_c, 0, 64, 40
1, 258475, Control_c, 0, 64, 56
1, 258482, Note_on_c, 0, 67, 45
1, 258489, Control_c, 0, 64, 63
1, 258498, Note_on_c, 0, 48, 36
1, 258504, Control_c, 0, 64, 66
1, 258512, Note_off_c, 0, 63, 34
1, 258519, Control_c, 0, 64, 71
1, 258534, Control_c, 0, 64, 77
1, 258534, Control_c, 0, 67, 30
1, 258549, Control_c, 0, 64, 85
1, 258549, Control_c, 0, 67, 32
1, 258563, Control_c, 0, 64, 96
1, 258563, Control_c, 0, 67, 34
1, 258565, Note_off_c, 0, 67, 58
1, 258565, Note_off_c, 0, 72, 59
1, 258572, Note_on_c, 0, 69, 57
1, 258578, Control_c, 0, 64, 106
1, 258578, Control_c, 0, 67, 36
1, 258588, Note_off_c, 0, 48, 52
1, 258600, Control_c, 0, 64, 117
1, 258600, Control_c, 0, 67, 38
1, 258612, Note_off_c, 0, 69, 66
1, 258615, Control_c, 0, 64, 123
1, 258615, Control_c, 0, 67, 40
1, 258630, Control_c, 0, 67, 41
1, 258645, Control_c, 0, 64, 115
1, 258645, Control_c, 0, 67, 43
1, 258660, Control_c, 0, 64, 110
1, 258660, Control_c, 0, 67, 45
1, 258675, Control_c, 0, 64, 104
1, 258675, Control_c, 0, 67, 47
1, 258690, Control_c, 0, 64, 99
1, 258690, Control_c, 0, 67, 49
1, 258704, Control_c, 0, 64, 95
1, 258704, Control_c, 0, 67, 52
1, 258706, Note_on_c, 0, 70, 68
1, 258719, Control_c, 0, 64, 88
1, 258719, Control_c, 0, 67, 61
1, 258734, Control_c, 0, 64, 79
1, 258734, Control_c, 0, 67, 72
1, 258749, Control_c, 0, 64, 68
1, 258749, Control_c, 0, 67, 87
1, 258764, Control_c, 0, 64, 55
1, 258764, Control_c, 0, 67, 99
1, 258778, Control_c, 0, 64, 26
1, 258778, Control_c, 0, 67, 110
1, 258793, Control_c, 0, 64, 0
1, 258793, Control_c, 0, 67, 120
1, 258808, Control_c, 0, 67, 123
1, 258815, Note_on_c, 0, 58, 47
1, 258866, Control_c, 0, 64, 19
1, 258866, Control_c, 0, 67, 122
1, 258881, Control_c, 0, 64, 38
1, 258881, Control_c, 0, 67, 120
1, 258895, Control_c, 0, 64, 52
1, 258895, Control_c, 0, 67, 119
1, 258910, Control_c, 0, 64, 60
1, 258910, Control_c, 0, 67, 119
1, 258924, Note_on_c, 0, 62, 49
1, 258925, Control_c, 0, 64, 64
1, 258925, Control_c, 0, 67, 117
1, 258928, Note_off_c, 0, 58, 51
1, 258939, Note_on_c, 0, 50, 35
1, 258940, Control_c, 0, 64, 68
1, 258940, Control_c, 0, 67, 115
1, 258954, Control_c, 0, 64, 72
1, 258954, Control_c, 0, 67, 114
1, 258969, Control_c, 0, 64, 76
1, 258969, Control_c, 0, 67, 114
1, 258975, Note_off_c, 0, 70, 56
1, 258984, Control_c, 0, 64, 81
1, 258999, Control_c, 0, 64, 86
1, 259014, Control_c, 0, 64, 91
1, 259014, Control_c, 0, 67, 113
1, 259018, Note_on_c, 0, 67, 56
1, 259028, Control_c, 0, 64, 95
1, 259043, Control_c, 0, 64, 96
1, 259051, Note_off_c, 0, 62, 52
1, 259073, Control_c, 0, 67, 112
1, 259088, Control_c, 0, 64, 95
1, 259104, Control_c, 0, 64, 94
1, 259109, Note_off_c, 0, 50, 43
1, 259118, Control_c, 0, 64, 92
1, 259133, Control_c, 0, 64, 89
1, 259148, Control_c, 0, 64, 86
1, 259149, Note_on_c, 0, 69, 63
1, 259154, Note_off_c, 0, 67, 54
1, 259163, Control_c, 0, 64, 81
1, 259178, Control_c, 0, 64, 75
1, 259178, Control_c, 0, 67, 112
1, 259192, Control_c, 0, 64, 67
1, 259192, Control_c, 0, 67, 111
1, 259207, Control_c, 0, 64, 59
1, 259222, Control_c, 0, 64, 39
1, 259236, Control_c, 0, 64, 12
1, 259236, Control_c, 0, 67, 110
1, 259251, Control_c, 0, 64, 0
1, 259260, Note_on_c, 0, 60, 45
1, 259266, Control_c, 0, 67, 110
1, 259281, Control_c, 0, 67, 109
1, 259296, Control_c, 0, 67, 107
1, 259310, Control_c, 0, 64, 22
1, 259310, Control_c, 0, 67, 105
1, 259325, Control_c, 0, 64, 34
1, 259325, Control_c, 0, 67, 104
1, 259348, Control_c, 0, 64, 47
1, 259348, Control_c, 0, 67, 103
1, 259363, Control_c, 0, 64, 57
1, 259363, Control_c, 0, 67, 102
1, 259364, Note_off_c, 0, 60, 57
1, 259378, Control_c, 0, 64, 63
1, 259378, Control_c, 0, 67, 100
1, 259378, Note_on_c, 0, 38, 40
1, 259392, Control_c, 0, 64, 66
1, 259392, Control_c, 0, 67, 98
1, 259393, Note_on_c, 0, 62, 38
1, 259407, Control_c, 0, 64, 71
1, 259407, Control_c, 0, 67, 97
1, 259422, Note_off_c, 0, 69, 55
1, 259422, Control_c, 0, 64, 76
1, 259422, Control_c, 0, 67, 95
1, 259437, Control_c, 0, 64, 82
1, 259437, Control_c, 0, 67, 89
1, 259439, Note_off_c, 0, 38, 60
1, 259451, Control_c, 0, 64, 90
1, 259451, Control_c, 0, 67, 84
1, 259466, Control_c, 0, 64, 100
1, 259466, Control_c, 0, 67, 78
1, 259480, Note_on_c, 0, 66, 52
1, 259481, Control_c, 0, 64, 118
1, 259481, Control_c, 0, 67, 72
1, 259489, Note_off_c, 0, 62, 56
1, 259496, Control_c, 0, 64, 127
1, 259496, Control_c, 0, 67, 65
1, 259511, Control_c, 0, 67, 57
1, 259523, Note_off_c, 0, 66, 61
1, 259525, Control_c, 0, 67, 50
1, 259540, Control_c, 0, 67, 46
1, 259555, Control_c, 0, 67, 43
1, 259569, Control_c, 0, 64, 113
1, 259569, Control_c, 0, 67, 42
1, 259584, Control_c, 0, 64, 96
1, 259584, Control_c, 0, 67, 41
1, 259599, Note_on_c, 0, 67, 62
1, 259599, Control_c, 0, 64, 80
1, 259599, Control_c, 0, 67, 41
1, 259614, Control_c, 0, 64, 68
1, 259629, Control_c, 0, 64, 59
1, 259629, Control_c, 0, 67, 40
1, 259644, Control_c, 0, 64, 45
1, 259659, Control_c, 0, 64, 37
1, 259674, Control_c, 0, 64, 36
1, 259703, Control_c, 0, 64, 35
1, 259705, Note_on_c, 0, 55, 45
1, 259718, Control_c, 0, 64, 34
1, 259718, Control_c, 0, 67, 40
1, 259733, Control_c, 0, 64, 32
1, 259748, Control_c, 0, 64, 31
1, 259762, Control_c, 0, 64, 29
1, 259762, Control_c, 0, 67, 39
1, 259766, Note_off_c, 0, 55, 52
1, 259777, Control_c, 0, 64, 27
1, 259792, Control_c, 0, 64, 26
1, 259806, Note_on_c, 0, 43, 56
1, 259815, Note_on_c, 0, 58, 53
1, 259840, Note_off_c, 0, 43, 62
1, 259851, Control_c, 0, 67, 38
1, 259887, Note_off_c, 0, 58, 62
1, 259937, Note_on_c, 0, 62, 39
1, 259956, Control_c, 0, 67, 38
1, 259993, Note_off_c, 0, 62, 53
1, 260023, Note_on_c, 0, 45, 64
1, 260037, Note_on_c, 0, 63, 59
1, 260045, Control_c, 0, 67, 37
1, 260054, Note_off_c, 0, 45, 64
1, 260060, Control_c, 0, 67, 36
1, 260074, Control_c, 0, 64, 25
1, 260074, Control_c, 0, 67, 36
1, 260097, Control_c, 0, 67, 32
1, 260112, Control_c, 0, 67, 24
1, 260127, Control_c, 0, 67, 17
1, 260133, Note_off_c, 0, 63, 58
1, 260142, Control_c, 0, 67, 13
1, 260142, Note_on_c, 0, 60, 56
1, 260156, Control_c, 0, 67, 8
1, 260171, Control_c, 0, 67, 0
1, 260241, Note_on_c, 0, 57, 58
1, 260243, Note_on_c, 0, 48, 76
1, 260259, Note_off_c, 0, 60, 53
1, 260283, Note_off_c, 0, 48, 62
1, 260314, Note_off_c, 0, 57, 59
1, 260349, Note_on_c, 0, 63, 60
1, 260453, Note_on_c, 0, 46, 75
1, 260466, Note_on_c, 0, 62, 67
1, 260467, Note_off_c, 0, 63, 60
1, 260521, Note_off_c, 0, 46, 63
1, 260532, Note_off_c, 0, 62, 63
1, 260567, Note_on_c, 0, 58, 71
1, 260676, Note_on_c, 0, 55, 70
1, 260678, Note_on_c, 0, 62, 63
1, 260680, Note_off_c, 0, 67, 40
1, 260685, Note_off_c, 0, 58, 63
1, 260710, Note_off_c, 0, 55, 67
1, 260780, Note_on_c, 0, 66, 66
1, 260780, Note_off_c, 0, 62, 59
1, 260894, Note_on_c, 0, 67, 66
1, 260911, Note_on_c, 0, 50, 63
1, 260924, Note_off_c, 0, 66, 62
1, 260949, Note_off_c, 0, 50, 65
1, 260965, Note_off_c, 0, 67, 57
1, 261000, Note_on_c, 0, 62, 58
1, 261084, Control_c, 0, 64, 25
1, 261111, Note_on_c, 0, 67, 58
1, 261114, Note_on_c, 0, 46, 62
1, 261131, Note_off_c, 0, 62, 56
1, 261182, Note_off_c, 0, 46, 63
1, 261207, Note_on_c, 0, 70, 65
1, 261217, Note_off_c, 0, 67, 58
1, 261350, Control_c, 0, 64, 24
1, 261356, Note_on_c, 0, 74, 72
1, 261397, Note_off_c, 0, 70, 57
1, 261408, Control_c, 0, 64, 24
1, 261476, Note_on_c, 0, 62, 48
1, 261528, Control_c, 0, 64, 26
1, 261543, Control_c, 0, 64, 32
1, 261558, Control_c, 0, 64, 40
1, 261573, Control_c, 0, 64, 49
1, 261590, Note_off_c, 0, 62, 52
1, 261595, Control_c, 0, 64, 56
1, 261599, Note_on_c, 0, 67, 45
1, 261608, Note_on_c, 0, 43, 47
1, 261610, Control_c, 0, 64, 61
1, 261625, Control_c, 0, 64, 64
1, 261639, Control_c, 0, 64, 68
1, 261654, Control_c, 0, 64, 73
1, 261669, Control_c, 0, 64, 79
1, 261680, Note_off_c, 0, 43, 61
1, 261680, Note_off_c, 0, 74, 54
1, 261682, Note_on_c, 0, 70, 59
1, 261684, Control_c, 0, 64, 84
1, 261699, Note_off_c, 0, 67, 49
1, 261699, Control_c, 0, 64, 86
1, 261728, Control_c, 0, 64, 85
1, 261743, Control_c, 0, 64, 83
1, 261758, Control_c, 0, 64, 80
1, 261773, Control_c, 0, 64, 78
1, 261786, Note_on_c, 0, 74, 82
1, 261788, Control_c, 0, 64, 74
1, 261790, Note_off_c, 0, 70, 58
1, 261802, Control_c, 0, 64, 69
1, 261817, Control_c, 0, 64, 64
1, 261832, Control_c, 0, 64, 57
1, 261847, Control_c, 0, 64, 49
1, 261862, Control_c, 0, 64, 41
1, 261876, Control_c, 0, 64, 31
1, 261891, Control_c, 0, 64, 0
1, 261902, Note_on_c, 0, 62, 61
1, 262009, Note_on_c, 0, 43, 51
1, 262010, Control_c, 0, 64, 34
1, 262017, Note_on_c, 0, 67, 62
1, 262025, Control_c, 0, 64, 55
1, 262039, Control_c, 0, 64, 64
1, 262054, Control_c, 0, 64, 70
1, 262069, Control_c, 0, 64, 78
1, 262084, Control_c, 0, 64, 90
1, 262099, Control_c, 0, 64, 106
1, 262109, Note_off_c, 0, 62, 0
1, 262113, Control_c, 0, 64, 127
1, 262116, Note_on_c, 0, 70, 71
1, 262132, Note_off_c, 0, 43, 56
1, 262142, Note_off_c, 0, 67, 59
1, 262142, Note_off_c, 0, 74, 58
1, 262147, Poly_aftertouch_c, 0, 62, 127
1, 262202, Control_c, 0, 64, 111
1, 262217, Control_c, 0, 64, 99
1, 262222, Poly_aftertouch_c, 0, 62, 0
1, 262230, Note_on_c, 0, 74, 84
1, 262231, Control_c, 0, 64, 86
1, 262246, Note_off_c, 0, 70, 60
1, 262246, Control_c, 0, 64, 73
1, 262261, Control_c, 0, 64, 63
1, 262276, Control_c, 0, 64, 46
1, 262292, Control_c, 0, 64, 0
1, 262332, Note_on_c, 0, 62, 61
1, 262433, Control_c, 0, 64, 38
1, 262448, Control_c, 0, 64, 56
1, 262453, Note_on_c, 0, 66, 57
1, 262455, Note_on_c, 0, 38, 58
1, 262462, Control_c, 0, 64, 64
1, 262477, Control_c, 0, 64, 69
1, 262492, Control_c, 0, 64, 77
1, 262507, Control_c, 0, 64, 87
1, 262522, Control_c, 0, 64, 99
1, 262536, Control_c, 0, 64, 127
1, 262561, Note_on_c, 0, 69, 72
1, 262588, Note_off_c, 0, 74, 60
1, 262596, Note_off_c, 0, 66, 57
1, 262615, Note_off_c, 0, 62, 18
1, 262640, Note_off_c, 0, 38, 51
1, 262678, Note_off_c, 0, 69, 60
1, 262681, Note_on_c, 0, 74, 81
1, 262684, Control_c, 0, 64, 109
1, 262699, Control_c, 0, 64, 95
1, 262714, Control_c, 0, 64, 83
1, 262729, Control_c, 0, 64, 71
1, 262743, Control_c, 0, 64, 62
1, 262758, Control_c, 0, 64, 40
1, 262773, Control_c, 0, 64, 0
1, 262784, Note_on_c, 0, 62, 62
1, 262903, Note_on_c, 0, 43, 50
1, 262906, Control_c, 0, 64, 44
1, 262907, Note_on_c, 0, 67, 57
1, 262921, Control_c, 0, 64, 59
1, 262925, Note_off_c, 0, 62, 53
1, 262935, Control_c, 0, 64, 65
1, 262950, Control_c, 0, 64, 72
1, 262965, Control_c, 0, 64, 81
1, 262980, Control_c, 0, 64, 94
1, 262989, Note_off_c, 0, 74, 60
1, 262994, Control_c, 0, 64, 121
1, 263009, Control_c, 0, 64, 127
1, 263023, Note_on_c, 0, 70, 61
1, 263150, Note_off_c, 0, 43, 37
1, 263181, Control_c, 0, 64, 105
1, 263191, Note_on_c, 0, 75, 76
1, 263196, Control_c, 0, 64, 90
1, 263210, Control_c, 0, 64, 78
1, 263220, Note_off_c, 0, 67, 17
1, 263224, Note_off_c, 0, 70, 48
1, 263225, Control_c, 0, 64, 66
1, 263240, Control_c, 0, 64, 58
1, 263255, Control_c, 0, 64, 47
1, 263270, Control_c, 0, 64, 34
1, 263284, Control_c, 0, 64, 17
1, 263299, Control_c, 0, 64, 0
1, 263319, Note_on_c, 0, 63, 43
1, 263388, Control_c, 0, 64, 19
1, 263403, Control_c, 0, 64, 43
1, 263418, Control_c, 0, 64, 58
1, 263423, Note_off_c, 0, 63, 56
1, 263431, Note_on_c, 0, 67, 51
1, 263433, Control_c, 0, 64, 64
1, 263439, Note_on_c, 0, 36, 43
1, 263447, Control_c, 0, 64, 68
1, 263462, Control_c, 0, 64, 74
1, 263477, Control_c, 0, 64, 81
1, 263492, Control_c, 0, 64, 89
1, 263494, Note_off_c, 0, 67, 58
1, 263507, Control_c, 0, 64, 101
1, 263522, Control_c, 0, 64, 115
1, 263537, Control_c, 0, 64, 127
1, 263540, Note_on_c, 0, 72, 52
1, 263566, Note_off_c, 0, 36, 51
1, 263566, Control_c, 0, 64, 119
1, 263581, Control_c, 0, 64, 113
1, 263596, Control_c, 0, 64, 108
1, 263610, Control_c, 0, 64, 104
1, 263614, Note_off_c, 0, 72, 51
1, 263625, Control_c, 0, 64, 101
1, 263640, Control_c, 0, 64, 97
1, 263641, Note_on_c, 0, 65, 55
1, 263655, Control_c, 0, 64, 92
1, 263670, Control_c, 0, 64, 84
1, 263684, Control_c, 0, 64, 73
1, 263699, Control_c, 0, 64, 65
1, 263714, Control_c, 0, 64, 53
1, 263729, Control_c, 0, 64, 29
1, 263744, Control_c, 0, 64, 0
1, 263752, Note_off_c, 0, 65, 34
1, 263754, Note_on_c, 0, 72, 51
1, 263840, Control_c, 0, 64, 28
1, 263855, Control_c, 0, 64, 47
1, 263856, Note_on_c, 0, 41, 37
1, 263860, Note_on_c, 0, 69, 50
1, 263870, Control_c, 0, 64, 59
1, 263886, Control_c, 0, 64, 66
1, 263895, Note_off_c, 0, 75, 51
1, 263901, Control_c, 0, 64, 72
1, 263910, Note_off_c, 0, 72, 55
1, 263915, Control_c, 0, 64, 80
1, 263930, Control_c, 0, 64, 91
1, 263945, Control_c, 0, 64, 110
1, 263946, Note_off_c, 0, 69, 60
1, 263960, Control_c, 0, 64, 127
1, 263968, Note_off_c, 0, 41, 55
1, 263984, Note_on_c, 0, 65, 50
1, 264047, Note_off_c, 0, 65, 54
1, 264091, Note_on_c, 0, 74, 69
1, 264094, Control_c, 0, 64, 108
1, 264108, Control_c, 0, 64, 94
1, 264123, Control_c, 0, 64, 82
1, 264138, Control_c, 0, 64, 71
1, 264153, Control_c, 0, 64, 62
1, 264168, Control_c, 0, 64, 51
1, 264182, Control_c, 0, 64, 37
1, 264197, Control_c, 0, 64, 20
1, 264199, Note_on_c, 0, 62, 51
1, 264212, Control_c, 0, 64, 0
1, 264227, Control_c, 0, 67, 12
1, 264241, Control_c, 0, 67, 15
1, 264271, Control_c, 0, 67, 14
1, 264286, Control_c, 0, 67, 12
1, 264296, Note_off_c, 0, 62, 52
1, 264301, Control_c, 0, 64, 27
1, 264301, Control_c, 0, 67, 9
1, 264309, Note_on_c, 0, 65, 45
1, 264312, Note_on_c, 0, 34, 43
1, 264315, Control_c, 0, 64, 45
1, 264315, Control_c, 0, 67, 8
1, 264330, Control_c, 0, 64, 58
1, 264330, Control_c, 0, 67, 0
1, 264345, Control_c, 0, 64, 64
1, 264360, Control_c, 0, 64, 69
1, 264375, Control_c, 0, 64, 75
1, 264389, Control_c, 0, 64, 84
1, 264404, Note_off_c, 0, 65, 58
1, 264404, Control_c, 0, 64, 96
1, 264413, Note_on_c, 0, 70, 56
1, 264419, Control_c, 0, 64, 127
1, 264484, Note_off_c, 0, 34, 44
1, 264516, Note_off_c, 0, 70, 45
1, 264523, Control_c, 0, 64, 114
1, 264538, Control_c, 0, 64, 99
1, 264539, Note_on_c, 0, 65, 56
1, 264553, Control_c, 0, 64, 86
1, 264568, Control_c, 0, 64, 74
1, 264589, Control_c, 0, 64, 65
1, 264604, Note_off_c, 0, 65, 53
1, 264604, Control_c, 0, 64, 52
1, 264619, Control_c, 0, 64, 29
1, 264633, Note_on_c, 0, 70, 58
1, 264634, Control_c, 0, 64, 0
1, 264694, Control_c, 0, 64, 19
1, 264709, Control_c, 0, 64, 33
1, 264724, Control_c, 0, 64, 51
1, 264738, Control_c, 0, 64, 61
1, 264747, Note_on_c, 0, 65, 48
1, 264749, Note_off_c, 0, 74, 39
1, 264752, Note_on_c, 0, 46, 45
1, 264753, Note_off_c, 0, 70, 60
1, 264753, Control_c, 0, 64, 65
1, 264768, Control_c, 0, 64, 70
1, 264783, Control_c, 0, 64, 76
1, 264798, Control_c, 0, 64, 85
1, 264813, Control_c, 0, 64, 98
1, 264828, Control_c, 0, 64, 119
1, 264842, Control_c, 0, 64, 127
1, 264859, Note_off_c, 0, 65, 50
1, 264860, Note_off_c, 0, 46, 49
1, 264861, Note_on_c, 0, 62, 58
1, 264946, Control_c, 0, 64, 119
1, 264961, Control_c, 0, 64, 110
1, 264976, Control_c, 0, 64, 102
1, 264976, Control_c, 0, 67, 8
1, 264980, Note_off_c, 0, 62, 57
1, 264991, Control_c, 0, 64, 93
1, 264991, Control_c, 0, 67, 10
1, 265001, Note_on_c, 0, 72, 65
1, 265005, Control_c, 0, 64, 85
1, 265005, Control_c, 0, 67, 12
1, 265020, Control_c, 0, 64, 78
1, 265020, Control_c, 0, 67, 14
1, 265035, Control_c, 0, 64, 72
1, 265035, Control_c, 0, 67, 24
1, 265050, Control_c, 0, 64, 67
1, 265050, Control_c, 0, 67, 36
1, 265064, Control_c, 0, 64, 63
1, 265064, Control_c, 0, 67, 50
1, 265079, Control_c, 0, 64, 58
1, 265079, Control_c, 0, 67, 65
1, 265094, Control_c, 0, 64, 48
1, 265094, Control_c, 0, 67, 80
1, 265109, Control_c, 0, 64, 37
1, 265109, Control_c, 0, 67, 94
1, 265111, Note_on_c, 0, 60, 53
1, 265124, Control_c, 0, 64, 23
1, 265124, Control_c, 0, 67, 107
1, 265138, Control_c, 0, 64, 16
1, 265138, Control_c, 0, 67, 111
1, 265183, Control_c, 0, 64, 22
1, 265183, Control_c, 0, 67, 110
1, 265198, Control_c, 0, 64, 30
1, 265198, Control_c, 0, 67, 108
1, 265212, Control_c, 0, 64, 40
1, 265212, Control_c, 0, 67, 106
1, 265227, Control_c, 0, 64, 50
1, 265227, Control_c, 0, 67, 103
1, 265230, Note_on_c, 0, 45, 37
1, 265238, Note_on_c, 0, 63, 47
1, 265242, Control_c, 0, 64, 58
1, 265242, Control_c, 0, 67, 102
1, 265249, Note_off_c, 0, 60, 35
1, 265257, Control_c, 0, 64, 63
1, 265257, Control_c, 0, 67, 100
1, 265272, Control_c, 0, 64, 66
1, 265272, Control_c, 0, 67, 97
1, 265287, Control_c, 0, 64, 69
1, 265287, Control_c, 0, 67, 95
1, 265302, Control_c, 0, 64, 72
1, 265302, Control_c, 0, 67, 92
1, 265310, Note_off_c, 0, 63, 54
1, 265316, Control_c, 0, 64, 76
1, 265316, Control_c, 0, 67, 90
1, 265338, Control_c, 0, 64, 80
1, 265338, Control_c, 0, 67, 89
1, 265341, Note_on_c, 0, 69, 52
1, 265347, Note_off_c, 0, 45, 53
1, 265353, Control_c, 0, 64, 85
1, 265353, Control_c, 0, 67, 88
1, 265368, Control_c, 0, 64, 90
1, 265382, Control_c, 0, 64, 91
1, 265397, Control_c, 0, 64, 91
1, 265397, Control_c, 0, 67, 88
1, 265412, Control_c, 0, 64, 89
1, 265412, Control_c, 0, 67, 87
1, 265427, Note_off_c, 0, 69, 54
1, 265427, Control_c, 0, 64, 87
1, 265442, Control_c, 0, 64, 85
1, 265453, Note_on_c, 0, 66, 53
1, 265457, Control_c, 0, 64, 83
1, 265471, Control_c, 0, 64, 79
1, 265487, Control_c, 0, 64, 74
1, 265502, Control_c, 0, 64, 67
1, 265502, Control_c, 0, 67, 88
1, 265503, Note_off_c, 0, 66, 59
1, 265517, Control_c, 0, 64, 60
1, 265532, Control_c, 0, 64, 47
1, 265532, Control_c, 0, 67, 88
1, 265547, Control_c, 0, 64, 31
1, 265561, Control_c, 0, 64, 20
1, 265562, Note_on_c, 0, 69, 45
1, 265606, Control_c, 0, 67, 88
1, 265621, Control_c, 0, 64, 21
1, 265621, Control_c, 0, 67, 87
1, 265635, Control_c, 0, 64, 30
1, 265635, Control_c, 0, 67, 87
1, 265650, Control_c, 0, 64, 43
1, 265650, Control_c, 0, 67, 86
1, 265664, Note_off_c, 0, 72, 42
1, 265665, Note_on_c, 0, 66, 44
1, 265665, Control_c, 0, 64, 54
1, 265669, Note_on_c, 0, 38, 35
1, 265674, Note_off_c, 0, 69, 58
1, 265680, Control_c, 0, 64, 61
1, 265680, Control_c, 0, 67, 85
1, 265695, Control_c, 0, 64, 65
1, 265710, Control_c, 0, 64, 69
1, 265723, Note_off_c, 0, 66, 58
1, 265725, Control_c, 0, 64, 73
1, 265740, Control_c, 0, 64, 79
1, 265745, Note_off_c, 0, 38, 55
1, 265755, Control_c, 0, 64, 85
1, 265769, Control_c, 0, 64, 91
1, 265769, Control_c, 0, 67, 86
1, 265772, Note_on_c, 0, 62, 46
1, 265784, Control_c, 0, 64, 95
1, 265784, Control_c, 0, 67, 87
1, 265799, Control_c, 0, 64, 97
1, 265799, Control_c, 0, 67, 87
1, 265813, Control_c, 0, 64, 96
1, 265813, Control_c, 0, 67, 88
1, 265828, Control_c, 0, 64, 94
1, 265828, Control_c, 0, 67, 88
1, 265837, Note_off_c, 0, 62, 50
1, 265843, Control_c, 0, 64, 93
1, 265843, Control_c, 0, 67, 89
1, 265858, Control_c, 0, 64, 91
1, 265858, Control_c, 0, 67, 90
1, 265873, Control_c, 0, 64, 89
1, 265873, Control_c, 0, 67, 90
1, 265886, Note_on_c, 0, 70, 65
1, 265887, Control_c, 0, 64, 86
1, 265887, Control_c, 0, 67, 91
1, 265902, Control_c, 0, 64, 83
1, 265902, Control_c, 0, 67, 92
1, 265917, Control_c, 0, 64, 77
1, 265932, Control_c, 0, 64, 70
1, 265932, Control_c, 0, 67, 92
1, 265947, Control_c, 0, 64, 63
1, 265961, Control_c, 0, 64, 54
1, 265961, Control_c, 0, 67, 93
1, 265976, Note_on_c, 0, 58, 54
1, 265976, Control_c, 0, 64, 43
1, 265991, Control_c, 0, 64, 31
1, 266005, Control_c, 0, 64, 19
1, 266020, Control_c, 0, 64, 0
1, 266035, Control_c, 0, 67, 92
1, 266050, Control_c, 0, 67, 92
1, 266065, Control_c, 0, 67, 91
1, 266087, Control_c, 0, 67, 90
1, 266094, Note_on_c, 0, 62, 44
1, 266102, Control_c, 0, 67, 89
1, 266110, Note_on_c, 0, 43, 46
1, 266117, Control_c, 0, 67, 88
1, 266126, Note_off_c, 0, 58, 32
1, 266132, Control_c, 0, 67, 87
1, 266147, Control_c, 0, 64, 23
1, 266147, Control_c, 0, 67, 86
1, 266161, Control_c, 0, 64, 48
1, 266161, Control_c, 0, 67, 85
1, 266171, Note_off_c, 0, 62, 57
1, 266176, Control_c, 0, 64, 60
1, 266176, Control_c, 0, 67, 85
1, 266189, Note_off_c, 0, 43, 50
1, 266191, Control_c, 0, 64, 65
1, 266191, Control_c, 0, 67, 84
1, 266203, Note_on_c, 0, 67, 46
1, 266205, Control_c, 0, 64, 71
1, 266205, Control_c, 0, 67, 83
1, 266220, Control_c, 0, 64, 79
1, 266220, Control_c, 0, 67, 82
1, 266235, Control_c, 0, 64, 85
1, 266235, Control_c, 0, 67, 82
1, 266250, Control_c, 0, 64, 89
1, 266265, Control_c, 0, 64, 88
1, 266265, Control_c, 0, 67, 81
1, 266281, Control_c, 0, 64, 86
1, 266281, Control_c, 0, 67, 79
1, 266288, Note_off_c, 0, 67, 58
1, 266296, Control_c, 0, 64, 83
1, 266296, Control_c, 0, 67, 73
1, 266303, Note_on_c, 0, 62, 54
1, 266310, Control_c, 0, 64, 80
1, 266310, Control_c, 0, 67, 70
1, 266325, Control_c, 0, 64, 75
1, 266325, Control_c, 0, 67, 67
1, 266340, Control_c, 0, 64, 68
1, 266340, Control_c, 0, 67, 66
1, 266355, Control_c, 0, 64, 59
1, 266357, Note_off_c, 0, 62, 53
1, 266370, Control_c, 0, 64, 40
1, 266370, Control_c, 0, 67, 65
1, 266384, Control_c, 0, 64, 0
1, 266419, Note_on_c, 0, 67, 49
1, 266443, Control_c, 0, 67, 65
1, 266473, Control_c, 0, 67, 64
1, 266488, Control_c, 0, 64, 32
1, 266503, Control_c, 0, 64, 50
1, 266507, Note_off_c, 0, 67, 61
1, 266510, Note_off_c, 0, 70, 40
1, 266518, Control_c, 0, 64, 61
1, 266519, Note_on_c, 0, 62, 46
1, 266523, Note_on_c, 0, 31, 42
1, 266533, Control_c, 0, 64, 67
1, 266533, Control_c, 0, 67, 63
1, 266548, Control_c, 0, 64, 74
1, 266548, Control_c, 0, 67, 63
1, 266562, Control_c, 0, 64, 86
1, 266562, Control_c, 0, 67, 62
1, 266577, Control_c, 0, 64, 114
1, 266577, Control_c, 0, 67, 58
1, 266585, Note_off_c, 0, 31, 61
1, 266592, Control_c, 0, 64, 127
1, 266592, Control_c, 0, 67, 50
1, 266607, Control_c, 0, 67, 42
1, 266621, Note_on_c, 0, 58, 56
1, 266622, Control_c, 0, 67, 36
1, 266636, Control_c, 0, 67, 33
1, 266651, Control_c, 0, 67, 31
1, 266666, Control_c, 0, 67, 31
1, 266681, Control_c, 0, 67, 30
1, 266687, Note_off_c, 0, 58, 63
1, 266710, Control_c, 0, 67, 29
1, 266725, Control_c, 0, 64, 112
1, 266731, Note_on_c, 0, 67, 66
1, 266740, Control_c, 0, 64, 92
1, 266750, Note_off_c, 0, 62, 19
1, 266755, Control_c, 0, 64, 74
1, 266770, Control_c, 0, 64, 63
1, 266770, Control_c, 0, 67, 29
1, 266784, Control_c, 0, 64, 43
1, 266799, Control_c, 0, 64, 0
1, 266842, Note_on_c, 0, 63, 52
1, 266896, Control_c, 0, 64, 25
1, 266910, Control_c, 0, 64, 45
1, 266925, Control_c, 0, 64, 58
1, 266927, Note_off_c, 0, 67, 55
1, 266940, Control_c, 0, 64, 64
1, 266950, Note_on_c, 0, 62, 54
1, 266955, Control_c, 0, 64, 70
1, 266956, Note_on_c, 0, 39, 48
1, 266962, Note_off_c, 0, 63, 57
1, 266970, Control_c, 0, 64, 78
1, 266970, Control_c, 0, 67, 30
1, 266984, Control_c, 0, 64, 89
1, 266984, Control_c, 0, 67, 33
1, 266999, Control_c, 0, 64, 108
1, 266999, Control_c, 0, 67, 35
1, 267014, Control_c, 0, 64, 127
1, 267014, Control_c, 0, 67, 37
1, 267026, Note_off_c, 0, 62, 63
1, 267028, Control_c, 0, 67, 40
1, 267043, Control_c, 0, 67, 42
1, 267054, Note_on_c, 0, 60, 59
1, 267058, Control_c, 0, 67, 44
1, 267073, Control_c, 0, 67, 45
1, 267088, Control_c, 0, 67, 46
1, 267096, Note_off_c, 0, 60, 63
1, 267103, Control_c, 0, 67, 48
1, 267118, Control_c, 0, 67, 50
1, 267132, Control_c, 0, 67, 53
1, 267147, Control_c, 0, 67, 55
1, 267162, Control_c, 0, 67, 57
1, 267171, Note_on_c, 0, 75, 74
1, 267177, Control_c, 0, 67, 61
1, 267192, Control_c, 0, 67, 68
1, 267194, Note_off_c, 0, 39, 0
1, 267206, Control_c, 0, 64, 96
1, 267206, Control_c, 0, 67, 75
1, 267221, Control_c, 0, 64, 78
1, 267221, Control_c, 0, 67, 80
1, 267236, Control_c, 0, 64, 61
1, 267236, Control_c, 0, 67, 85
1, 267239, Poly_aftertouch_c, 0, 39, 0
1, 267251, Control_c, 0, 64, 28
1, 267251, Control_c, 0, 67, 87
1, 267266, Control_c, 0, 64, 0
1, 267266, Control_c, 0, 67, 88
1, 267274, Note_on_c, 0, 63, 48
1, 267311, Control_c, 0, 67, 87
1, 267326, Control_c, 0, 67, 85
1, 267340, Control_c, 0, 64, 20
1, 267340, Control_c, 0, 67, 84
1, 267355, Control_c, 0, 64, 44
1, 267355, Control_c, 0, 67, 83
1, 267370, Control_c, 0, 64, 58
1, 267370, Control_c, 0, 67, 82
1, 267379, Note_on_c, 0, 67, 49
1, 267385, Control_c, 0, 64, 64
1, 267385, Control_c, 0, 67, 80
1, 267400, Control_c, 0, 64, 68
1, 267400, Control_c, 0, 67, 79
1, 267403, Note_on_c, 0, 36, 38
1, 267414, Control_c, 0, 64, 74
1, 267414, Control_c, 0, 67, 78
1, 267424, Note_off_c, 0, 75, 59
1, 267429, Control_c, 0, 64, 80
1, 267444, Control_c, 0, 64, 87
1, 267444, Control_c, 0, 67, 77
1, 267458, Control_c, 0, 64, 98
1, 267458, Control_c, 0, 67, 77
1, 267460, Note_off_c, 0, 63, 31
1, 267473, Control_c, 0, 64, 117
1, 267473, Control_c, 0, 67, 76
1, 267488, Control_c, 0, 64, 127
1, 267496, Note_on_c, 0, 72, 53
1, 267499, Note_off_c, 0, 36, 56
1, 267511, Note_off_c, 0, 67, 55
1, 267518, Control_c, 0, 67, 77
1, 267532, Control_c, 0, 67, 77
1, 267562, Control_c, 0, 67, 78
1, 267585, Control_c, 0, 64, 121
1, 267600, Control_c, 0, 64, 105
1, 267614, Control_c, 0, 64, 91
1, 267620, Note_on_c, 0, 74, 69
1, 267629, Control_c, 0, 64, 80
1, 267633, Note_off_c, 0, 72, 58
1, 267644, Control_c, 0, 64, 70
1, 267658, Control_c, 0, 64, 61
1, 267673, Control_c, 0, 64, 43
1, 267688, Control_c, 0, 64, 11
1, 267703, Control_c, 0, 64, 0
1, 267732, Control_c, 0, 67, 77
1, 267734, Note_on_c, 0, 62, 47
1, 267762, Control_c, 0, 67, 77
1, 267791, Control_c, 0, 64, 26
1, 267791, Control_c, 0, 67, 76
1, 267806, Control_c, 0, 64, 40
1, 267806, Control_c, 0, 67, 75
1, 267821, Control_c, 0, 64, 52
1, 267821, Control_c, 0, 67, 75
1, 267837, Control_c, 0, 64, 60
1, 267837, Control_c, 0, 67, 74
1, 267840, Note_off_c, 0, 62, 56
1, 267847, Note_on_c, 0, 41, 39
1, 267852, Control_c, 0, 64, 64
1, 267852, Control_c, 0, 67, 73
1, 267858, Note_on_c, 0, 65, 39
1, 267866, Control_c, 0, 64, 68
1, 267866, Control_c, 0, 67, 73
1, 267882, Control_c, 0, 64, 73
1, 267897, Note_off_c, 0, 74, 40
1, 267897, Control_c, 0, 64, 79
1, 267912, Control_c, 0, 64, 85
1, 267912, Control_c, 0, 67, 72
1, 267927, Control_c, 0, 64, 90
1, 267942, Control_c, 0, 64, 95
1, 267951, Note_off_c, 0, 41, 50
1, 267953, Note_on_c, 0, 70, 48
1, 267956, Control_c, 0, 64, 97
1, 268016, Note_off_c, 0, 65, 35
1, 268016, Control_c, 0, 64, 97
1, 268030, Control_c, 0, 64, 96
1, 268045, Control_c, 0, 64, 94
1, 268060, Control_c, 0, 64, 92
1, 268074, Note_on_c, 0, 72, 56
1, 268074, Control_c, 0, 64, 89
1, 268089, Control_c, 0, 64, 85
1, 268104, Control_c, 0, 64, 78
1, 268104, Control_c, 0, 67, 72
1, 268110, Note_off_c, 0, 70, 37
1, 268119, Control_c, 0, 64, 70
1, 268134, Control_c, 0, 64, 62
1, 268148, Control_c, 0, 64, 49
1, 268148, Control_c, 0, 67, 71
1, 268156, Note_on_c, 0, 63, 44
1, 268163, Control_c, 0, 64, 17
1, 268178, Control_c, 0, 64, 0
1, 268193, Control_c, 0, 67, 70
1, 268223, Control_c, 0, 67, 70
1, 268225, Note_off_c, 0, 63, 52
1, 268238, Control_c, 0, 67, 68
1, 268253, Control_c, 0, 64, 26
1, 268253, Control_c, 0, 67, 68
1, 268268, Control_c, 0, 64, 43
1, 268276, Note_on_c, 0, 65, 39
1, 268281, Note_on_c, 0, 29, 43
1, 268282, Control_c, 0, 64, 56
1, 268282, Control_c, 0, 67, 67
1, 268297, Control_c, 0, 64, 63
1, 268297, Control_c, 0, 67, 66
1, 268312, Control_c, 0, 64, 67
1, 268334, Control_c, 0, 64, 71
1, 268334, Control_c, 0, 67, 66
1, 268348, Note_off_c, 0, 72, 55
1, 268349, Control_c, 0, 64, 80
1, 268349, Control_c, 0, 67, 65
1, 268357, Note_off_c, 0, 29, 61
1, 268363, Control_c, 0, 64, 90
1, 268363, Control_c, 0, 67, 65
1, 268366, Note_off_c, 0, 65, 49
1, 268378, Control_c, 0, 64, 104
1, 268382, Note_on_c, 0, 69, 56
1, 268393, Control_c, 0, 64, 127
1, 268393, Control_c, 0, 67, 64
1, 268417, Note_off_c, 0, 69, 66
1, 268452, Control_c, 0, 64, 118
1, 268467, Control_c, 0, 64, 111
1, 268482, Control_c, 0, 64, 105
1, 268497, Control_c, 0, 64, 99
1, 268512, Control_c, 0, 64, 92
1, 268514, Note_on_c, 0, 70, 60
1, 268527, Control_c, 0, 64, 84
1, 268542, Control_c, 0, 64, 74
1, 268556, Control_c, 0, 64, 67
1, 268571, Control_c, 0, 64, 62
1, 268571, Control_c, 0, 67, 65
1, 268586, Control_c, 0, 64, 57
1, 268601, Control_c, 0, 64, 53
1, 268607, Note_on_c, 0, 58, 42
1, 268616, Control_c, 0, 64, 52
1, 268630, Control_c, 0, 64, 51
1, 268645, Control_c, 0, 64, 49
1, 268660, Control_c, 0, 64, 46
1, 268675, Control_c, 0, 64, 40
1, 268675, Control_c, 0, 67, 65
1, 268691, Control_c, 0, 64, 34
1, 268705, Control_c, 0, 64, 30
1, 268715, Note_on_c, 0, 46, 55
1, 268718, Note_off_c, 0, 58, 56
1, 268720, Control_c, 0, 64, 26
1, 268727, Note_on_c, 0, 62, 41
1, 268735, Control_c, 0, 64, 25
1, 268750, Control_c, 0, 64, 24
1, 268765, Control_c, 0, 64, 23
1, 268768, Note_off_c, 0, 46, 57
1, 268779, Control_c, 0, 64, 23
1, 268794, Control_c, 0, 64, 22
1, 268794, Control_c, 0, 67, 65
1, 268798, Note_off_c, 0, 62, 57
1, 268824, Control_c, 0, 67, 64
1, 268828, Note_on_c, 0, 65, 46
1, 268839, Control_c, 0, 67, 63
1, 268868, Control_c, 0, 67, 63
1, 268883, Control_c, 0, 67, 62
1, 268897, Control_c, 0, 67, 61
1, 268920, Note_off_c, 0, 65, 55
1, 268931, Note_on_c, 0, 66, 60
1, 268936, Note_on_c, 0, 48, 62
1, 268942, Control_c, 0, 67, 61
1, 268971, Note_off_c, 0, 48, 63
1, 268971, Control_c, 0, 67, 60
1, 268986, Control_c, 0, 67, 60
1, 269001, Control_c, 0, 67, 59
1, 269016, Control_c, 0, 67, 55
1, 269031, Control_c, 0, 67, 52
1, 269035, Note_on_c, 0, 63, 63
1, 269040, Note_off_c, 0, 66, 58
1, 269046, Control_c, 0, 67, 49
1, 269060, Control_c, 0, 67, 46
1, 269083, Control_c, 0, 67, 43
1, 269098, Control_c, 0, 67, 40
1, 269112, Control_c, 0, 67, 38
1, 269127, Control_c, 0, 67, 36
1, 269142, Control_c, 0, 67, 33
1, 269147, Note_on_c, 0, 51, 80
1, 269152, Note_on_c, 0, 60, 58
1, 269157, Control_c, 0, 67, 31
1, 269162, Note_off_c, 0, 63, 55
1, 269172, Control_c, 0, 67, 28
1, 269186, Control_c, 0, 67, 24
1, 269196, Note_off_c, 0, 51, 63
1, 269201, Control_c, 0, 67, 22
1, 269216, Control_c, 0, 67, 19
1, 269230, Note_off_c, 0, 60, 62
1, 269231, Control_c, 0, 67, 17
1, 269245, Control_c, 0, 67, 16
1, 269257, Note_on_c, 0, 66, 60
1, 269260, Control_c, 0, 67, 14
1, 269275, Control_c, 0, 67, 13
1, 269290, Control_c, 0, 67, 12
1, 269320, Control_c, 0, 67, 11
1, 269358, Note_on_c, 0, 50, 75
1, 269360, Note_on_c, 0, 65, 63
1, 269395, Note_off_c, 0, 70, 41
1, 269396, Note_off_c, 0, 66, 59
1, 269399, Note_off_c, 0, 50, 62
1, 269422, Control_c, 0, 67, 11
1, 269442, Note_off_c, 0, 65, 63
1, 269470, Note_on_c, 0, 62, 60
1, 269571, Note_on_c, 0, 58, 75
1, 269573, Note_off_c, 0, 62, 56
1, 269579, Note_on_c, 0, 65, 66
1, 269612, Note_off_c, 0, 58, 62
1, 269669, Note_on_c, 0, 69, 72
1, 269677, Note_off_c, 0, 65, 57
1, 269704, Control_c, 0, 67, 10
1, 269782, Note_on_c, 0, 70, 72
1, 269785, Note_on_c, 0, 53, 69
1, 269788, Note_off_c, 0, 69, 56
1, 269820, Note_off_c, 0, 53, 64
1, 269833, Note_off_c, 0, 70, 64
1, 269882, Note_on_c, 0, 65, 68
1, 269934, Control_c, 0, 64, 21
1, 269986, Note_on_c, 0, 50, 56
1, 269995, Note_on_c, 0, 70, 77
1, 270017, Note_off_c, 0, 65, 57
1, 270028, Note_off_c, 0, 50, 65
1, 270085, Note_on_c, 0, 74, 75
1, 270109, Note_off_c, 0, 70, 60
1, 270112, Control_c, 0, 64, 21
1, 270112, Control_c, 0, 67, 9
1, 270171, Control_c, 0, 64, 20
1, 270186, Control_c, 0, 64, 19
1, 270200, Control_c, 0, 64, 18
1, 270200, Control_c, 0, 67, 9
1, 270215, Control_c, 0, 64, 17
1, 270245, Control_c, 0, 64, 16
1, 270249, Note_on_c, 0, 77, 76
1, 270259, Control_c, 0, 64, 15
1, 270264, Note_on_c, 0, 46, 42
1, 270267, Note_on_c, 0, 65, 57
1, 270275, Control_c, 0, 64, 12
1, 270290, Control_c, 0, 67, 8
1, 270291, Note_off_c, 0, 74, 60
1, 270335, Control_c, 0, 64, 16
1, 270349, Control_c, 0, 64, 22
1, 270364, Control_c, 0, 64, 28
1, 270364, Control_c, 0, 67, 8
1, 270379, Control_c, 0, 64, 38
1, 270394, Control_c, 0, 64, 50
1, 270404, Note_on_c, 0, 50, 45
1, 270409, Control_c, 0, 64, 58
1, 270409, Control_c, 0, 67, 0
1, 270423, Control_c, 0, 64, 62
1, 270438, Control_c, 0, 64, 65
1, 270453, Control_c, 0, 64, 67
1, 270468, Control_c, 0, 64, 71
1, 270482, Control_c, 0, 64, 77
1, 270487, Note_off_c, 0, 50, 60
1, 270497, Control_c, 0, 64, 85
1, 270507, Note_on_c, 0, 53, 57
1, 270512, Note_off_c, 0, 77, 52
1, 270512, Control_c, 0, 64, 98
1, 270527, Control_c, 0, 64, 127
1, 270542, Note_off_c, 0, 46, 52
1, 270542, Note_off_c, 0, 65, 46
1, 270606, Note_off_c, 0, 53, 57
1, 270623, Note_on_c, 0, 50, 56
1, 270709, Note_off_c, 0, 50, 60
1, 270712, Note_on_c, 0, 77, 82
1, 270726, Note_on_c, 0, 65, 65
1, 270739, Note_on_c, 0, 46, 53
1, 270757, Control_c, 0, 64, 92
1, 270771, Control_c, 0, 64, 71
1, 270786, Control_c, 0, 64, 59
1, 270801, Control_c, 0, 64, 40
1, 270816, Control_c, 0, 64, 33
1, 270831, Control_c, 0, 64, 39
1, 270834, Note_on_c, 0, 50, 55
1, 270846, Control_c, 0, 64, 49
1, 270861, Control_c, 0, 64, 59
1, 270875, Control_c, 0, 64, 64
1, 270890, Control_c, 0, 64, 69
1, 270905, Control_c, 0, 64, 78
1, 270909, Note_off_c, 0, 50, 61
1, 270920, Control_c, 0, 64, 93
1, 270935, Control_c, 0, 64, 127
1, 270935, Note_on_c, 0, 53, 61
1, 270968, Note_off_c, 0, 65, 61
1, 270986, Note_off_c, 0, 77, 58
1, 271027, Note_on_c, 0, 50, 70
1, 271027, Note_off_c, 0, 53, 60
1, 271031, Note_off_c, 0, 46, 59
1, 271132, Note_off_c, 0, 50, 63
1, 271143, Control_c, 0, 64, 89
1, 271144, Note_on_c, 0, 78, 86
1, 271146, Note_on_c, 0, 45, 62
1, 271156, Note_on_c, 0, 66, 67
1, 271158, Control_c, 0, 64, 70
1, 271172, Control_c, 0, 64, 53
1, 271187, Control_c, 0, 64, 0
1, 271258, Note_on_c, 0, 48, 59
1, 271291, Control_c, 0, 64, 44
1, 271305, Control_c, 0, 64, 59
1, 271328, Control_c, 0, 64, 66
1, 271343, Control_c, 0, 64, 72
1, 271358, Control_c, 0, 64, 83
1, 271361, Note_off_c, 0, 45, 56
1, 271373, Note_off_c, 0, 48, 62
1, 271373, Control_c, 0, 64, 101
1, 271375, Note_on_c, 0, 50, 66
1, 271387, Control_c, 0, 64, 127
1, 271414, Note_off_c, 0, 66, 56
1, 271433, Note_off_c, 0, 78, 62
1, 271479, Note_off_c, 0, 50, 59
1, 271493, Note_on_c, 0, 48, 63
1, 271581, Note_on_c, 0, 79, 87
1, 271586, Note_off_c, 0, 48, 60
1, 271592, Note_on_c, 0, 67, 67
1, 271594, Control_c, 0, 64, 104
1, 271609, Control_c, 0, 64, 77
1, 271612, Note_on_c, 0, 43, 56
1, 271624, Control_c, 0, 64, 62
1, 271639, Control_c, 0, 64, 0
1, 271711, Note_on_c, 0, 48, 63
1, 271758, Control_c, 0, 64, 41
1, 271772, Control_c, 0, 64, 56
1, 271787, Control_c, 0, 64, 63
1, 271797, Note_off_c, 0, 48, 64
1, 271802, Control_c, 0, 64, 66
1, 271804, Note_off_c, 0, 43, 56
1, 271816, Control_c, 0, 64, 70
1, 271819, Note_on_c, 0, 50, 59
1, 271831, Control_c, 0, 64, 76
1, 271846, Control_c, 0, 64, 81
1, 271848, Note_off_c, 0, 67, 59
1, 271861, Control_c, 0, 64, 85
1, 271877, Control_c, 0, 64, 87
1, 271899, Note_off_c, 0, 50, 61
1, 271923, Note_on_c, 0, 48, 54
1, 271973, Note_off_c, 0, 48, 60
1, 271981, Control_c, 0, 64, 86
1, 271995, Control_c, 0, 64, 85
1, 272010, Control_c, 0, 64, 83
1, 272025, Control_c, 0, 64, 80
1, 272040, Control_c, 0, 64, 75
1, 272044, Note_on_c, 0, 81, 78
1, 272046, Note_on_c, 0, 69, 66
1, 272055, Control_c, 0, 64, 67
1, 272075, Note_on_c, 0, 42, 46
1, 272077, Control_c, 0, 64, 50
1, 272092, Control_c, 0, 64, 0
1, 272116, Note_off_c, 0, 79, 57
1, 272178, Note_on_c, 0, 48, 45
1, 272210, Control_c, 0, 64, 17
1, 272225, Control_c, 0, 64, 45
1, 272240, Control_c, 0, 64, 58
1, 272241, Note_off_c, 0, 48, 61
1, 272255, Control_c, 0, 64, 64
1, 272260, Note_off_c, 0, 69, 57
1, 272270, Control_c, 0, 64, 68
1, 272283, Note_on_c, 0, 50, 49
1, 272284, Control_c, 0, 64, 73
1, 272299, Control_c, 0, 64, 78
1, 272306, Note_off_c, 0, 81, 65
1, 272314, Control_c, 0, 64, 83
1, 272329, Control_c, 0, 64, 89
1, 272344, Control_c, 0, 64, 96
1, 272359, Control_c, 0, 64, 103
1, 272374, Control_c, 0, 64, 105
1, 272388, Note_off_c, 0, 42, 30
1, 272405, Note_on_c, 0, 48, 40
1, 272426, Note_off_c, 0, 50, 31
1, 272447, Control_c, 0, 64, 104
1, 272461, Note_off_c, 0, 48, 52
1, 272462, Control_c, 0, 64, 103
1, 272477, Control_c, 0, 64, 100
1, 272492, Control_c, 0, 64, 95
1, 272507, Control_c, 0, 64, 89
1, 272511, Note_on_c, 0, 84, 73
1, 272513, Note_on_c, 0, 42, 57
1, 272521, Control_c, 0, 64, 79
1, 272524, Note_on_c, 0, 72, 61
1, 272536, Control_c, 0, 64, 66
1, 272551, Control_c, 0, 64, 51
1, 272566, Control_c, 0, 64, 9
1, 272581, Control_c, 0, 64, 0
1, 272627, Note_on_c, 0, 45, 44
1, 272640, Control_c, 0, 64, 13
1, 272655, Control_c, 0, 64, 34
1, 272671, Control_c, 0, 64, 50
1, 272686, Control_c, 0, 64, 60
1, 272697, Note_off_c, 0, 72, 59
1, 272700, Control_c, 0, 64, 64
1, 272715, Control_c, 0, 64, 67
1, 272728, Note_off_c, 0, 45, 60
1, 272730, Control_c, 0, 64, 71
1, 272745, Control_c, 0, 64, 74
1, 272751, Note_on_c, 0, 50, 43
1, 272760, Control_c, 0, 64, 78
1, 272775, Control_c, 0, 64, 82
1, 272790, Control_c, 0, 64, 85
1, 272804, Control_c, 0, 64, 89
1, 272826, Control_c, 0, 64, 91
1, 272833, Note_off_c, 0, 84, 45
1, 272841, Control_c, 0, 64, 92
1, 272860, Note_off_c, 0, 42, 55
1, 272870, Note_on_c, 0, 45, 50
1, 272900, Control_c, 0, 64, 92
1, 272902, Note_off_c, 0, 45, 60
1, 272915, Control_c, 0, 64, 91
1, 272915, Control_c, 0, 67, 13
1, 272930, Control_c, 0, 64, 90
1, 272930, Control_c, 0, 67, 31
1, 272945, Control_c, 0, 64, 88
1, 272945, Control_c, 0, 67, 43
1, 272946, Note_off_c, 0, 50, 37
1, 272959, Control_c, 0, 64, 85
1, 272959, Control_c, 0, 67, 51
1, 272974, Control_c, 0, 64, 80
1, 272974, Control_c, 0, 67, 55
1, 272989, Control_c, 0, 64, 71
1, 272993, Note_on_c, 0, 82, 71
1, 273004, Control_c, 0, 64, 59
1, 273008, Note_on_c, 0, 70, 54
1, 273019, Control_c, 0, 64, 27
1, 273021, Note_on_c, 0, 43, 45
1, 273034, Control_c, 0, 64, 0
1, 273064, Control_c, 0, 67, 55
1, 273077, Control_c, 0, 67, 54
1, 273092, Control_c, 0, 67, 53
1, 273107, Control_c, 0, 67, 52
1, 273122, Note_on_c, 0, 46, 47
1, 273122, Control_c, 0, 64, 36
1, 273122, Control_c, 0, 67, 51
1, 273137, Control_c, 0, 64, 52
1, 273137, Control_c, 0, 67, 50
1, 273151, Control_c, 0, 64, 61
1, 273151, Control_c, 0, 67, 48
1, 273166, Control_c, 0, 64, 65
1, 273166, Control_c, 0, 67, 46
1, 273181, Control_c, 0, 64, 68
1, 273181, Control_c, 0, 67, 45
1, 273196, Control_c, 0, 64, 72
1, 273196, Control_c, 0, 67, 43
1, 273211, Control_c, 0, 64, 77
1, 273211, Control_c, 0, 67, 42
1, 273217, Note_off_c, 0, 46, 59
1, 273225, Control_c, 0, 64, 81
1, 273225, Control_c, 0, 67, 41
1, 273228, Note_off_c, 0, 82, 56
1, 273228, Note_off_c, 0, 70, 61
1, 273240, Control_c, 0, 64, 85
1, 273240, Control_c, 0, 67, 40
1, 273254, Note_on_c, 0, 50, 46
1, 273255, Control_c, 0, 64, 88
1, 273255, Control_c, 0, 67, 40
1, 273269, Control_c, 0, 64, 90
1, 273269, Control_c, 0, 67, 39
1, 273284, Control_c, 0, 64, 91
1, 273299, Control_c, 0, 64, 92
1, 273314, Control_c, 0, 67, 38
1, 273321, Note_off_c, 0, 43, 49
1, 273329, Control_c, 0, 64, 92
1, 273346, Note_off_c, 0, 50, 55
1, 273347, Note_on_c, 0, 46, 28
1, 273359, Control_c, 0, 64, 92
1, 273374, Control_c, 0, 64, 91
1, 273380, Note_off_c, 0, 46, 50
1, 273389, Control_c, 0, 64, 91
1, 273389, Control_c, 0, 67, 38
1, 273404, Control_c, 0, 64, 89
1, 273418, Control_c, 0, 64, 87
1, 273433, Control_c, 0, 64, 85
1, 273435, Note_on_c, 0, 81, 69
1, 273442, Note_on_c, 0, 69, 58
1, 273448, Control_c, 0, 64, 81
1, 273463, Control_c, 0, 64, 72
1, 273463, Control_c, 0, 67, 37
1, 273476, Note_on_c, 0, 48, 49
1, 273478, Control_c, 0, 64, 62
1, 273493, Control_c, 0, 64, 36
1, 273493, Control_c, 0, 67, 36
1, 273508, Control_c, 0, 64, 0
1, 273523, Control_c, 0, 67, 36
1, 273553, Control_c, 0, 67, 35
1, 273556, Note_on_c, 0, 51, 54
1, 273574, Control_c, 0, 64, 13
1, 273574, Control_c, 0, 67, 35
1, 273581, Note_off_c, 0, 81, 56
1, 273589, Control_c, 0, 64, 39
1, 273589, Control_c, 0, 67, 33
1, 273604, Control_c, 0, 64, 53
1, 273604, Control_c, 0, 67, 31
1, 273619, Control_c, 0, 64, 61
1, 273619, Control_c, 0, 67, 29
1, 273630, Note_off_c, 0, 69, 62
1, 273634, Control_c, 0, 64, 64
1, 273634, Control_c, 0, 67, 24
1, 273648, Control_c, 0, 64, 68
1, 273648, Control_c, 0, 67, 12
1, 273663, Note_off_c, 0, 51, 60
1, 273663, Control_c, 0, 64, 74
1, 273663, Control_c, 0, 67, 0
1, 273678, Note_on_c, 0, 57, 54
1, 273678, Control_c, 0, 64, 80
1, 273693, Control_c, 0, 64, 91
1, 273708, Control_c, 0, 64, 110
1, 273723, Control_c, 0, 64, 127
1, 273767, Note_on_c, 0, 79, 72
1, 273772, Note_on_c, 0, 67, 59
1, 273775, Note_on_c, 0, 51, 64
1, 273783, Note_off_c, 0, 48, 60
1, 273793, Note_off_c, 0, 57, 56
1, 273800, Note_off_c, 0, 67, 64
1, 273808, Note_off_c, 0, 51, 66
1, 273866, Note_off_c, 0, 79, 63
1, 273883, Note_on_c, 0, 78, 69
1, 273900, Note_on_c, 0, 66, 65
1, 273900, Control_c, 0, 64, 105
1, 273915, Control_c, 0, 64, 82
1, 273917, Note_on_c, 0, 50, 55
1, 273930, Control_c, 0, 64, 63
1, 273945, Control_c, 0, 64, 26
1, 273960, Control_c, 0, 64, 0
1, 274014, Note_on_c, 0, 57, 52
1, 274063, Control_c, 0, 64, 19
1, 274078, Control_c, 0, 64, 50
1, 274092, Control_c, 0, 64, 62
1, 274107, Note_off_c, 0, 57, 62
1, 274107, Control_c, 0, 64, 67
1, 274122, Control_c, 0, 64, 75
1, 274127, Note_on_c, 0, 60, 56
1, 274137, Control_c, 0, 64, 85
1, 274146, Note_off_c, 0, 66, 54
1, 274152, Control_c, 0, 64, 102
1, 274167, Control_c, 0, 64, 127
1, 274183, Note_off_c, 0, 78, 56
1, 274215, Note_off_c, 0, 50, 57
1, 274234, Note_off_c, 0, 60, 56
1, 274242, Note_on_c, 0, 57, 55
1, 274351, Note_off_c, 0, 57, 62
1, 274353, Control_c, 0, 64, 117
1, 274358, Note_on_c, 0, 78, 80
1, 274367, Note_on_c, 0, 50, 51
1, 274368, Control_c, 0, 64, 90
1, 274369, Note_on_c, 0, 66, 64
1, 274383, Control_c, 0, 64, 72
1, 274397, Control_c, 0, 64, 55
1, 274412, Control_c, 0, 64, 0
1, 274471, Control_c, 0, 64, 12
1, 274480, Note_on_c, 0, 57, 58
1, 274486, Control_c, 0, 64, 41
1, 274501, Control_c, 0, 64, 59
1, 274516, Control_c, 0, 64, 65
1, 274530, Control_c, 0, 64, 71
1, 274545, Control_c, 0, 64, 81
1, 274560, Control_c, 0, 64, 97
1, 274562, Note_off_c, 0, 57, 62
1, 274574, Note_off_c, 0, 66, 56
1, 274575, Note_on_c, 0, 60, 62
1, 274575, Control_c, 0, 64, 127
1, 274608, Note_off_c, 0, 78, 62
1, 274673, Note_off_c, 0, 50, 49
1, 274676, Note_off_c, 0, 60, 60
1, 274689, Note_on_c, 0, 57, 58
1, 274783, Control_c, 0, 64, 92
1, 274797, Control_c, 0, 64, 71
1, 274798, Note_off_c, 0, 57, 60
1, 274803, Note_on_c, 0, 79, 73
1, 274811, Note_on_c, 0, 67, 62
1, 274812, Control_c, 0, 64, 55
1, 274818, Note_on_c, 0, 50, 55
1, 274827, Control_c, 0, 64, 0
1, 274871, Control_c, 0, 64, 17
1, 274886, Control_c, 0, 64, 45
1, 274901, Control_c, 0, 64, 58
1, 274910, Note_off_c, 0, 67, 62
1, 274915, Control_c, 0, 64, 64
1, 274919, Note_on_c, 0, 57, 61
1, 274930, Control_c, 0, 64, 69
1, 274945, Control_c, 0, 64, 75
1, 274960, Control_c, 0, 64, 85
1, 274975, Control_c, 0, 64, 95
1, 274989, Control_c, 0, 64, 114
1, 275004, Control_c, 0, 64, 127
1, 275005, Note_off_c, 0, 57, 62
1, 275028, Note_on_c, 0, 60, 56
1, 275028, Note_on_c, 0, 78, 78
1, 275032, Note_on_c, 0, 66, 70
1, 275073, Note_off_c, 0, 79, 62
1, 275103, Note_off_c, 0, 78, 63
1, 275110, Note_off_c, 0, 66, 61
1, 275130, Note_off_c, 0, 60, 57
1, 275130, Note_off_c, 0, 50, 54
1, 275137, Note_on_c, 0, 57, 64
1, 275243, Note_off_c, 0, 57, 62
1, 275250, Control_c, 0, 64, 97
1, 275260, Note_on_c, 0, 64, 69
1, 275261, Note_on_c, 0, 76, 76
1, 275265, Control_c, 0, 64, 75
1, 275267, Note_on_c, 0, 50, 60
1, 275280, Control_c, 0, 64, 60
1, 275294, Control_c, 0, 64, 13
1, 275309, Control_c, 0, 64, 0
1, 275344, Note_off_c, 0, 64, 61
1, 275353, Control_c, 0, 64, 33
1, 275368, Control_c, 0, 64, 51
1, 275371, Note_on_c, 0, 57, 60
1, 275383, Control_c, 0, 64, 60
1, 275398, Control_c, 0, 64, 64
1, 275413, Control_c, 0, 64, 67
1, 275428, Control_c, 0, 64, 71
1, 275443, Control_c, 0, 64, 75
1, 275457, Note_off_c, 0, 76, 59
1, 275457, Control_c, 0, 64, 80
1, 275461, Note_off_c, 0, 57, 63
1, 275464, Note_on_c, 0, 78, 77
1, 275472, Control_c, 0, 64, 85
1, 275475, Note_on_c, 0, 66, 65
1, 275487, Control_c, 0, 64, 93
1, 275487, Note_on_c, 0, 60, 60
1, 275502, Control_c, 0, 64, 100
1, 275502, Note_off_c, 0, 50, 48
1, 275517, Control_c, 0, 64, 107
1, 275532, Control_c, 0, 64, 109
1, 275556, Note_off_c, 0, 60, 57
1, 275580, Note_off_c, 0, 66, 44
1, 275585, Note_on_c, 0, 57, 57
1, 275591, Control_c, 0, 64, 108
1, 275595, Note_off_c, 0, 78, 54
1, 275606, Control_c, 0, 64, 107
1, 275620, Control_c, 0, 64, 106
1, 275635, Control_c, 0, 64, 104
1, 275642, Note_off_c, 0, 57, 59
1, 275650, Control_c, 0, 64, 101
1, 275664, Control_c, 0, 64, 98
1, 275679, Control_c, 0, 64, 91
1, 275694, Control_c, 0, 64, 73
1, 275696, Note_on_c, 0, 55, 55
1, 275699, Note_on_c, 0, 79, 77
1, 275702, Note_on_c, 0, 67, 68
1, 275709, Control_c, 0, 64, 57
1, 275724, Control_c, 0, 64, 0
1, 275769, Note_off_c, 0, 55, 63
1, 275783, Control_c, 0, 64, 42
1, 275798, Control_c, 0, 64, 60
1, 275820, Control_c, 0, 64, 66
1, 275826, Note_on_c, 0, 58, 61
1, 275835, Control_c, 0, 64, 72
1, 275850, Control_c, 0, 64, 82
1, 275865, Control_c, 0, 64, 94
1, 275881, Control_c, 0, 64, 116
1, 275896, Control_c, 0, 64, 127
1, 275903, Note_off_c, 0, 58, 62
1, 275922, Note_on_c, 0, 55, 62
1, 276004, Note_off_c, 0, 55, 63
1, 276028, Note_on_c, 0, 50, 67
1, 276057, Note_off_c, 0, 50, 65
1, 276155, Note_on_c, 0, 46, 73
1, 276177, Control_c, 0, 64, 94
1, 276192, Control_c, 0, 64, 75
1, 276207, Control_c, 0, 64, 59
1, 276222, Control_c, 0, 64, 0
1, 276258, Note_on_c, 0, 55, 75
1, 276302, Note_off_c, 0, 46, 59
1, 276310, Control_c, 0, 64, 44
1, 276325, Control_c, 0, 64, 59
1, 276340, Control_c, 0, 64, 65
1, 276355, Control_c, 0, 64, 73
1, 276358, Note_on_c, 0, 50, 78
1, 276358, Note_off_c, 0, 79, 59
1, 276370, Control_c, 0, 64, 83
1, 276385, Control_c, 0, 64, 99
1, 276399, Control_c, 0, 64, 127
1, 276405, Note_off_c, 0, 55, 56
1, 276446, Note_on_c, 0, 46, 84
1, 276449, Note_off_c, 0, 50, 65
1, 276513, Note_off_c, 0, 46, 63
1, 276519, Note_off_c, 0, 67, 30
1, 276569, Control_c, 0, 64, 107
1, 276584, Control_c, 0, 64, 79
1, 276588, Note_on_c, 0, 43, 89
1, 276599, Control_c, 0, 64, 62
1, 276611, Note_on_c, 0, 55, 60
1, 276614, Control_c, 0, 64, 0
1, 276718, Note_on_c, 0, 67, 76
1, 276763, Control_c, 0, 64, 32
1, 276778, Control_c, 0, 64, 53
1, 276793, Control_c, 0, 64, 63
1, 276808, Control_c, 0, 64, 71
1, 276819, Note_on_c, 0, 70, 84
1, 276823, Control_c, 0, 64, 90
1, 276838, Control_c, 0, 64, 127
1, 276855, Note_off_c, 0, 55, 60
1, 276882, Note_off_c, 0, 43, 61
1, 276906, Note_on_c, 0, 74, 90
1, 276926, Note_off_c, 0, 70, 67
1, 277000, Control_c, 0, 64, 109
1, 277015, Control_c, 0, 64, 76
1, 277030, Control_c, 0, 64, 57
1, 277040, Note_on_c, 0, 55, 90
1, 277045, Control_c, 0, 64, 0
1, 277046, Note_on_c, 0, 43, 81
1, 277050, Note_on_c, 0, 79, 80
1, 277070, Note_off_c, 0, 74, 57
1, 277118, Control_c, 0, 64, 40
1, 277133, Control_c, 0, 64, 59
1, 277143, Note_off_c, 0, 43, 64
1, 277148, Control_c, 0, 64, 67
1, 277162, Note_on_c, 0, 70, 80
1, 277163, Control_c, 0, 64, 76
1, 277178, Control_c, 0, 64, 98
1, 277192, Control_c, 0, 64, 127
1, 277199, Note_off_c, 0, 55, 60
1, 277225, Note_off_c, 0, 67, 55
1, 277230, Note_off_c, 0, 79, 51
1, 277259, Note_on_c, 0, 74, 80
1, 277282, Note_off_c, 0, 70, 64
1, 277363, Note_on_c, 0, 58, 94
1, 277368, Note_on_c, 0, 46, 82
1, 277370, Note_on_c, 0, 79, 88
1, 277375, Note_off_c, 0, 74, 65
1, 277418, Note_off_c, 0, 46, 64
1, 277424, Note_off_c, 0, 58, 62
1, 277460, Note_off_c, 0, 79, 61
1, 277553, Note_on_c, 0, 62, 94
1, 277556, Control_c, 0, 64, 109
1, 277560, Note_on_c, 0, 50, 87
1, 277571, Control_c, 0, 64, 75
1, 277586, Control_c, 0, 64, 57
1, 277601, Control_c, 0, 64, 0
1, 277792, Note_on_c, 0, 78, 80
1, 277801, Note_on_c, 0, 69, 69
1, 277803, Note_on_c, 0, 74, 61
1, 277822, Control_c, 0, 64, 37
1, 277837, Control_c, 0, 64, 55
1, 277852, Control_c, 0, 64, 65
1, 277861, Note_off_c, 0, 50, 57
1, 277867, Control_c, 0, 64, 73
1, 277880, Note_off_c, 0, 62, 50
1, 277882, Control_c, 0, 64, 89
1, 277896, Control_c, 0, 64, 127
1, 277943, Note_off_c, 0, 69, 53
1, 277966, Note_off_c, 0, 78, 58
1, 277979, Note_off_c, 0, 74, 60
1, 277994, Note_on_c, 0, 62, 83
1, 278005, Note_on_c, 0, 50, 68
1, 278048, Note_off_c, 0, 62, 63
1, 278048, Note_off_c, 0, 50, 56
1, 278206, Note_on_c, 0, 81, 82
1, 278209, Note_on_c, 0, 72, 76
1, 278209, Note_on_c, 0, 74, 69
1, 278271, Note_off_c, 0, 72, 59
1, 278292, Note_off_c, 0, 74, 56
1, 278302, Note_off_c, 0, 81, 60
1, 278403, Note_on_c, 0, 62, 86
1, 278406, Note_on_c, 0, 50, 79
1, 278469, Note_off_c, 0, 50, 57
1, 278496, Note_off_c, 0, 62, 58
1, 278605, Note_on_c, 0, 70, 82
1, 278606, Note_on_c, 0, 79, 88
1, 278609, Note_on_c, 0, 74, 73
1, 278698, Note_off_c, 0, 79, 61
1, 278704, Note_off_c, 0, 74, 55
1, 278727, Note_off_c, 0, 70, 40
1, 278820, Note_on_c, 0, 62, 94
1, 278827, Note_on_c, 0, 50, 84
1, 278888, Note_off_c, 0, 50, 59
1, 278940, Note_off_c, 0, 62, 55
1, 278997, Note_on_c, 0, 78, 96
1, 278999, Note_on_c, 0, 74, 86
1, 279003, Note_on_c, 0, 69, 88
1, 279049, Note_off_c, 0, 74, 62
1, 279054, Note_off_c, 0, 69, 63
1, 279103, Note_off_c, 0, 78, 57
1, 279232, Note_on_c, 0, 63, 96
1, 279241, Note_on_c, 0, 51, 83
1, 279261, Control_c, 0, 64, 89
1, 279276, Control_c, 0, 64, 67
1, 279291, Control_c, 0, 64, 36
1, 279306, Control_c, 0, 64, 0
1, 279424, Control_c, 0, 64, 43
1, 279439, Control_c, 0, 64, 61
1, 279440, Note_on_c, 0, 74, 78
1, 279444, Note_on_c, 0, 67, 82
1, 279445, Note_on_c, 0, 79, 89
1, 279454, Control_c, 0, 64, 68
1, 279468, Control_c, 0, 64, 79
1, 279483, Control_c, 0, 64, 115
1, 279494, Note_off_c, 0, 74, 64
1, 279498, Control_c, 0, 64, 127
1, 279516, Note_off_c, 0, 67, 60
1, 279533, Note_off_c, 0, 79, 61
1, 279641, Note_on_c, 0, 67, 84
1, 279643, Note_on_c, 0, 72, 75
1, 279649, Note_on_c, 0, 79, 88
1, 279667, Note_off_c, 0, 72, 69
1, 279669, Note_off_c, 0, 67, 60
1, 279694, Note_off_c, 0, 79, 66
1, 279714, Note_off_c, 0, 63, 47
1, 279830, Note_on_c, 0, 80, 37
1, 279846, Note_on_c, 0, 85, 93
1, 279854, Note_on_c, 0, 73, 84
1, 279860, Note_off_c, 0, 80, 51
1, 279866, Note_on_c, 0, 79, 63
1, 279900, Note_off_c, 0, 51, 62
1, 279927, Note_off_c, 0, 73, 60
1, 279943, Note_off_c, 0, 79, 54
1, 279956, Note_off_c, 0, 85, 62
1, 280054, Note_on_c, 0, 62, 86
1, 280062, Note_on_c, 0, 50, 76
1, 280127, Control_c, 0, 64, 103
1, 280142, Control_c, 0, 64, 77
1, 280157, Control_c, 0, 64, 61
1, 280172, Control_c, 0, 64, 0
1, 280256, Note_on_c, 0, 79, 71
1, 280258, Note_on_c, 0, 74, 75
1, 280260, Note_on_c, 0, 81, 71
1, 280262, Note_on_c, 0, 86, 74
1, 280276, Control_c, 0, 64, 21
1, 280290, Control_c, 0, 64, 53
1, 280308, Note_off_c, 0, 79, 65
1, 280313, Control_c, 0, 64, 64
1, 280328, Control_c, 0, 64, 72
1, 280342, Control_c, 0, 64, 85
1, 280349, Note_off_c, 0, 74, 57
1, 280357, Control_c, 0, 64, 127
1, 280361, Note_off_c, 0, 86, 57
1, 280440, Note_off_c, 0, 62, 59
1, 280451, Note_off_c, 0, 50, 59
1, 280465, Note_on_c, 0, 86, 80
1, 280468, Note_on_c, 0, 74, 77
1, 280471, Note_on_c, 0, 78, 67
1, 280486, Note_off_c, 0, 86, 71
1, 280489, Note_off_c, 0, 78, 65
1, 280495, Note_off_c, 0, 81, 37
1, 280501, Note_off_c, 0, 74, 62
1, 280661, Note_on_c, 0, 69, 59
1, 280671, Note_on_c, 0, 74, 74
1, 280675, Note_on_c, 0, 66, 72
1, 280728, Note_off_c, 0, 69, 63
1, 280741, Note_off_c, 0, 66, 46
1, 280754, Note_off_c, 0, 74, 62
1, 280893, Note_on_c, 0, 60, 88
1, 280901, Note_on_c, 0, 48, 79
1, 280965, Control_c, 0, 64, 123
1, 280980, Control_c, 0, 64, 87
1, 280995, Control_c, 0, 64, 68
1, 281010, Control_c, 0, 64, 38
1, 281024, Control_c, 0, 64, 0
1, 281103, Note_on_c, 0, 70, 74
1, 281106, Note_on_c, 0, 63, 81
1, 281107, Note_on_c, 0, 75, 83
1, 281121, Control_c, 0, 64, 17
1, 281136, Control_c, 0, 64, 53
1, 281151, Control_c, 0, 64, 64
1, 281165, Control_c, 0, 64, 72
1, 281175, Note_off_c, 0, 70, 64
1, 281180, Control_c, 0, 64, 86
1, 281184, Note_off_c, 0, 63, 55
1, 281195, Control_c, 0, 64, 127
1, 281220, Note_off_c, 0, 75, 57
1, 281292, Note_on_c, 0, 63, 83
1, 281294, Note_on_c, 0, 69, 81
1, 281300, Note_on_c, 0, 75, 89
1, 281313, Note_off_c, 0, 63, 68
1, 281323, Note_off_c, 0, 69, 65
1, 281356, Note_off_c, 0, 48, 61
1, 281357, Note_off_c, 0, 60, 59
1, 281359, Note_off_c, 0, 75, 64
1, 281498, Note_on_c, 0, 81, 82
1, 281501, Note_on_c, 0, 69, 86
1, 281509, Note_on_c, 0, 75, 73
1, 281578, Note_off_c, 0, 69, 59
1, 281599, Note_off_c, 0, 81, 64
1, 281622, Note_off_c, 0, 75, 57
1, 281712, Note_on_c, 0, 58, 89
1, 281719, Note_on_c, 0, 46, 80
1, 281788, Control_c, 0, 64, 92
1, 281810, Control_c, 0, 64, 75
1, 281825, Control_c, 0, 64, 62
1, 281840, Control_c, 0, 64, 30
1, 281855, Control_c, 0, 64, 0
1, 281902, Note_on_c, 0, 82, 71
1, 281915, Note_on_c, 0, 70, 75
1, 281923, Note_on_c, 0, 75, 67
1, 281924, Note_on_c, 0, 77, 65
1, 281959, Control_c, 0, 64, 34
1, 281974, Control_c, 0, 64, 55
1, 281977, Note_off_c, 0, 75, 58
1, 281988, Control_c, 0, 64, 64
1, 281990, Note_off_c, 0, 70, 54
1, 282002, Note_off_c, 0, 82, 59
1, 282003, Control_c, 0, 64, 68
1, 282018, Control_c, 0, 64, 75
1, 282033, Control_c, 0, 64, 86
1, 282048, Control_c, 0, 64, 101
1, 282062, Control_c, 0, 64, 127
1, 282079, Note_off_c, 0, 77, 53
1, 282115, Note_on_c, 0, 74, 69
1, 282126, Note_on_c, 0, 82, 70
1, 282143, Note_on_c, 0, 70, 59
1, 282146, Note_off_c, 0, 74, 65
1, 282150, Note_off_c, 0, 82, 69
1, 282177, Note_off_c, 0, 70, 65
1, 282320, Note_off_c, 0, 58, 61
1, 282334, Note_on_c, 0, 62, 66
1, 282349, Note_on_c, 0, 69, 54
1, 282371, Note_off_c, 0, 46, 62
1, 282377, Note_off_c, 0, 69, 61
1, 282385, Note_off_c, 0, 62, 54
1, 282531, Note_on_c, 0, 57, 84
1, 282536, Note_on_c, 0, 45, 78
1, 282559, Control_c, 0, 64, 89
1, 282574, Control_c, 0, 64, 66
1, 282589, Control_c, 0, 64, 28
1, 282604, Control_c, 0, 64, 0
1, 282678, Control_c, 0, 64, 39
1, 282692, Control_c, 0, 64, 60
1, 282707, Control_c, 0, 64, 68
1, 282722, Control_c, 0, 64, 78
1, 282730, Note_on_c, 0, 72, 83
1, 282733, Note_on_c, 0, 67, 74
1, 282737, Control_c, 0, 64, 105
1, 282737, Note_on_c, 0, 63, 74
1, 282752, Control_c, 0, 64, 127
1, 282754, Note_off_c, 0, 45, 63
1, 282764, Note_off_c, 0, 57, 59
1, 282796, Note_off_c, 0, 67, 61
1, 282821, Note_off_c, 0, 63, 61
1, 282850, Note_off_c, 0, 72, 62
1, 282943, Note_on_c, 0, 60, 92
1, 282948, Note_on_c, 0, 48, 89
1, 283003, Control_c, 0, 64, 87
1, 283018, Control_c, 0, 64, 67
1, 283033, Control_c, 0, 64, 43
1, 283048, Control_c, 0, 64, 0
1, 283094, Control_c, 0, 64, 24
1, 283108, Control_c, 0, 64, 49
1, 283123, Control_c, 0, 64, 61
1, 283138, Control_c, 0, 64, 67
1, 283142, Note_on_c, 0, 75, 91
1, 283143, Note_on_c, 0, 66, 82
1, 283146, Note_on_c, 0, 69, 76
1, 283152, Note_off_c, 0, 48, 62
1, 283153, Control_c, 0, 64, 77
1, 283154, Note_off_c, 0, 60, 61
1, 283168, Control_c, 0, 64, 96
1, 283182, Control_c, 0, 64, 127
1, 283217, Note_off_c, 0, 69, 61
1, 283229, Note_off_c, 0, 66, 61
1, 283323, Note_off_c, 0, 75, 58
1, 283351, Note_on_c, 0, 58, 98
1, 283360, Note_on_c, 0, 46, 83
1, 283397, Control_c, 0, 64, 89
1, 283412, Control_c, 0, 64, 68
1, 283427, Control_c, 0, 64, 35
1, 283441, Control_c, 0, 64, 0
1, 283515, Control_c, 0, 64, 39
1, 283530, Control_c, 0, 64, 60
1, 283545, Control_c, 0, 64, 67
1, 283548, Note_on_c, 0, 74, 85
1, 283551, Note_on_c, 0, 70, 75
1, 283552, Note_on_c, 0, 67, 79
1, 283560, Control_c, 0, 64, 76
1, 283574, Control_c, 0, 64, 95
1, 283589, Control_c, 0, 64, 127
1, 283594, Note_off_c, 0, 67, 59
1, 283609, Note_off_c, 0, 46, 60
1, 283611, Note_off_c, 0, 70, 63
1, 283612, Note_off_c, 0, 58, 61
1, 283648, Note_off_c, 0, 74, 61
1, 283773, Note_on_c, 0, 57, 87
1, 283783, Note_on_c, 0, 45, 77
1, 283797, Control_c, 0, 64, 95
1, 283812, Control_c, 0, 64, 73
1, 283826, Control_c, 0, 64, 57
1, 283841, Control_c, 0, 64, 0
1, 283946, Control_c, 0, 64, 45
1, 283961, Control_c, 0, 64, 61
1, 283966, Note_on_c, 0, 78, 78
1, 283968, Note_on_c, 0, 74, 62
1, 283974, Note_on_c, 0, 72, 65
1, 283975, Control_c, 0, 64, 68
1, 283982, Note_off_c, 0, 45, 61
1, 283990, Control_c, 0, 64, 81
1, 283995, Note_off_c, 0, 57, 57
1, 284005, Control_c, 0, 64, 107
1, 284020, Control_c, 0, 64, 127
1, 284023, Note_off_c, 0, 72, 56
1, 284033, Note_off_c, 0, 74, 62
1, 284035, Note_off_c, 0, 78, 64
1, 284228, Note_on_c, 0, 55, 76
1, 284238, Note_on_c, 0, 43, 68
1, 284279, Control_c, 0, 64, 85
1, 284294, Control_c, 0, 64, 66
1, 284309, Control_c, 0, 64, 39
1, 284324, Control_c, 0, 64, 0
1, 284419, Note_on_c, 0, 79, 69
1, 284428, Note_on_c, 0, 70, 62
1, 284430, Note_on_c, 0, 74, 65
1, 284457, Control_c, 0, 64, 48
1, 284471, Note_off_c, 0, 79, 61
1, 284472, Control_c, 0, 64, 61
1, 284477, Note_off_c, 0, 74, 59
1, 284485, Note_off_c, 0, 70, 59
1, 284487, Control_c, 0, 64, 67
1, 284502, Control_c, 0, 64, 74
1, 284516, Control_c, 0, 64, 86
1, 284531, Control_c, 0, 64, 114
1, 284546, Control_c, 0, 64, 127
1, 284629, Note_on_c, 0, 74, 74
1, 284635, Note_on_c, 0, 70, 66
1, 284641, Note_on_c, 0, 62, 64
1, 284715, Note_off_c, 0, 62, 59
1, 284750, Note_off_c, 0, 74, 60
1, 284757, Note_off_c, 0, 70, 58
1, 284784, Control_c, 0, 64, 108
1, 284806, Control_c, 0, 64, 79
1, 284820, Control_c, 0, 64, 64
1, 284826, Note_on_c, 0, 72, 83
1, 284828, Note_on_c, 0, 69, 76
1, 284833, Note_on_c, 0, 62, 77
1, 284835, Control_c, 0, 64, 54
1, 284850, Control_c, 0, 64, 57
1, 284865, Control_c, 0, 64, 61
1, 284880, Control_c, 0, 64, 66
1, 284886, Note_off_c, 0, 69, 64
1, 284895, Control_c, 0, 64, 73
1, 284901, Note_off_c, 0, 72, 63
1, 284910, Control_c, 0, 64, 90
1, 284925, Control_c, 0, 64, 127
1, 284931, Note_off_c, 0, 62, 43
1, 285013, Control_c, 0, 64, 85
1, 285027, Note_on_c, 0, 62, 81
1, 285027, Note_on_c, 0, 67, 76
1, 285028, Control_c, 0, 64, 66
1, 285029, Note_on_c, 0, 70, 82
1, 285043, Control_c, 0, 64, 54
1, 285058, Control_c, 0, 64, 55
1, 285073, Control_c, 0, 64, 60
1, 285086, Note_off_c, 0, 43, 62
1, 285087, Control_c, 0, 64, 67
1, 285092, Note_off_c, 0, 55, 58
1, 285097, Note_off_c, 0, 67, 58
1, 285102, Control_c, 0, 64, 81
1, 285117, Control_c, 0, 64, 127
1, 285153, Note_off_c, 0, 70, 45
1, 285159, Note_off_c, 0, 62, 39
1, 285212, Note_on_c, 0, 67, 86
1, 285214, Note_on_c, 0, 74, 87
1, 285242, Note_off_c, 0, 67, 66
1, 285262, Note_off_c, 0, 74, 66
1, 285441, Note_on_c, 0, 55, 96
1, 285442, Note_on_c, 0, 74, 64
1, 285446, Note_on_c, 0, 43, 79
1, 285446, Note_on_c, 0, 70, 85
1, 285453, Note_on_c, 0, 79, 73
1, 285477, Note_off_c, 0, 74, 64
1, 285483, Note_off_c, 0, 43, 64
1, 285485, Note_on_c, 0, 77, 34
1, 285504, Note_off_c, 0, 79, 65
1, 285512, Note_off_c, 0, 70, 60
1, 285515, Note_off_c, 0, 77, 35
1, 285521, Note_off_c, 0, 55, 59
1, 285560, Poly_aftertouch_c, 0, 46, 0
1, 285700, Note_on_c, 0, 74, 89
1, 285701, Note_on_c, 0, 70, 75
1, 285704, Note_on_c, 0, 67, 85
1, 285741, Note_off_c, 0, 67, 63
1, 285759, Note_off_c, 0, 70, 61
1, 285772, Note_off_c, 0, 74, 60
1, 285775, Note_on_c, 0, 58, 98
1, 285776, Note_on_c, 0, 46, 91
1, 285822, Note_off_c, 0, 58, 64
1, 285827, Note_off_c, 0, 46, 64
1, 285881, Control_c, 0, 64, 84
1, 285896, Control_c, 0, 64, 63
1, 285910, Control_c, 0, 64, 0
1, 285940, Note_on_c, 0, 62, 98
1, 285947, Note_on_c, 0, 50, 84
1, 286147, Control_c, 0, 64, 29
1, 286162, Control_c, 0, 64, 53
1, 286169, Note_on_c, 0, 69, 67
1, 286170, Note_on_c, 0, 74, 78
1, 286177, Control_c, 0, 64, 63
1, 286180, Note_on_c, 0, 66, 67
1, 286192, Control_c, 0, 64, 71
1, 286204, Note_off_c, 0, 50, 62
1, 286207, Control_c, 0, 64, 87
1, 286216, Note_off_c, 0, 62, 53
1, 286221, Control_c, 0, 64, 127
1, 286242, Note_off_c, 0, 69, 62
1, 286248, Note_off_c, 0, 66, 62
1, 286311, Note_off_c, 0, 74, 60
1, 286397, Note_on_c, 0, 62, 87
1, 286402, Note_on_c, 0, 50, 79
1, 286495, Note_off_c, 0, 50, 55
1, 286561, Note_off_c, 0, 62, 57
1, 286581, Note_on_c, 0, 74, 78
1, 286583, Note_on_c, 0, 81, 81
1, 286585, Note_on_c, 0, 72, 84
1, 286644, Note_off_c, 0, 72, 59
1, 286663, Note_off_c, 0, 74, 55
1, 286690, Note_off_c, 0, 81, 62
1, 286773, Note_on_c, 0, 62, 92
1, 286782, Note_on_c, 0, 50, 84
1, 286838, Note_off_c, 0, 50, 60
1, 286891, Note_off_c, 0, 62, 49
1, 286947, Note_on_c, 0, 79, 94
1, 286949, Note_on_c, 0, 70, 96
1, 286950, Note_on_c, 0, 74, 81
1, 287017, Note_off_c, 0, 70, 56
1, 287029, Note_off_c, 0, 74, 58
1, 287037, Note_off_c, 0, 79, 60
1, 287156, Note_on_c, 0, 62, 97
1, 287162, Note_on_c, 0, 50, 85
1, 287217, Note_off_c, 0, 50, 64
1, 287256, Note_off_c, 0, 62, 53
1, 287338, Note_on_c, 0, 78, 97
1, 287342, Note_on_c, 0, 74, 81
1, 287343, Note_on_c, 0, 69, 87
1, 287390, Note_off_c, 0, 74, 62
1, 287390, Note_off_c, 0, 69, 63
1, 287435, Note_off_c, 0, 78, 60
1, 287591, Note_on_c, 0, 63, 97
1, 287595, Note_on_c, 0, 51, 92
1, 287646, Control_c, 0, 64, 116
1, 287661, Control_c, 0, 64, 84
1, 287675, Control_c, 0, 64, 67
1, 287690, Control_c, 0, 64, 49
1, 287705, Control_c, 0, 64, 0
1, 287810, Note_on_c, 0, 74, 81
1, 287816, Note_on_c, 0, 67, 86
1, 287819, Note_on_c, 0, 79, 92
1, 287831, Control_c, 0, 64, 45
1, 287846, Control_c, 0, 64, 63
1, 287861, Control_c, 0, 64, 74
1, 287870, Note_off_c, 0, 74, 62
1, 287876, Control_c, 0, 64, 107
1, 287891, Control_c, 0, 64, 127
1, 287895, Note_off_c, 0, 67, 56
1, 287921, Note_off_c, 0, 79, 59
1, 287985, Note_off_c, 0, 51, 50
1, 288006, Note_off_c, 0, 63, 58
1, 288010, Note_on_c, 0, 72, 81
1, 288012, Note_on_c, 0, 67, 82
1, 288020, Note_on_c, 0, 79, 88
1, 288032, Note_off_c, 0, 72, 69
1, 288041, Note_off_c, 0, 67, 57
1, 288070, Note_off_c, 0, 79, 65
1, 288206, Note_on_c, 0, 79, 75
1, 288214, Note_on_c, 0, 85, 90
1, 288216, Note_on_c, 0, 73, 86
1, 288287, Note_off_c, 0, 79, 61
1, 288306, Note_off_c, 0, 85, 63
1, 288320, Note_off_c, 0, 73, 52
1, 288434, Note_on_c, 0, 62, 87
1, 288445, Note_on_c, 0, 50, 76
1, 288497, Control_c, 0, 64, 106
1, 288512, Control_c, 0, 64, 83
1, 288527, Control_c, 0, 64, 68
1, 288549, Control_c, 0, 64, 45
1, 288564, Control_c, 0, 64, 0
1, 288643, Note_on_c, 0, 74, 74
1, 288645, Note_on_c, 0, 79, 68
1, 288645, Note_on_c, 0, 86, 75
1, 288655, Note_on_c, 0, 81, 63
1, 288669, Control_c, 0, 64, 30
1, 288684, Control_c, 0, 64, 54
1, 288691, Note_off_c, 0, 79, 62
1, 288699, Control_c, 0, 64, 64
1, 288714, Control_c, 0, 64, 70
1, 288726, Note_off_c, 0, 74, 59
1, 288728, Control_c, 0, 64, 80
1, 288738, Note_off_c, 0, 86, 58
1, 288743, Control_c, 0, 64, 102
1, 288758, Control_c, 0, 64, 127
1, 288842, Note_off_c, 0, 62, 58
1, 288847, Note_on_c, 0, 86, 79
1, 288856, Note_off_c, 0, 50, 57
1, 288861, Note_on_c, 0, 74, 71
1, 288863, Note_on_c, 0, 77, 67
1, 288872, Note_off_c, 0, 86, 63
1, 288876, Note_off_c, 0, 81, 42
1, 288890, Note_off_c, 0, 77, 64
1, 288897, Note_off_c, 0, 74, 64
1, 289047, Note_on_c, 0, 74, 71
1, 289057, Note_on_c, 0, 69, 65
1, 289061, Note_on_c, 0, 65, 62
1, 289092, Note_off_c, 0, 69, 60
1, 289116, Note_off_c, 0, 65, 52
1, 289128, Note_off_c, 0, 74, 61
1, 289274, Note_on_c, 0, 60, 80
1, 289288, Note_on_c, 0, 48, 71
1, 289313, Control_c, 0, 64, 119
1, 289328, Control_c, 0, 64, 91
1, 289343, Control_c, 0, 64, 73
1, 289357, Control_c, 0, 64, 59
1, 289372, Control_c, 0, 64, 0
1, 289479, Note_on_c, 0, 70, 70
1, 289480, Note_on_c, 0, 75, 77
1, 289486, Note_on_c, 0, 63, 70
1, 289506, Control_c, 0, 64, 41
1, 289521, Control_c, 0, 64, 58
1, 289536, Control_c, 0, 64, 65
1, 289551, Control_c, 0, 64, 73
1, 289553, Note_off_c, 0, 70, 63
1, 289559, Note_off_c, 0, 63, 59
1, 289566, Control_c, 0, 64, 86
1, 289581, Control_c, 0, 64, 127
1, 289589, Note_off_c, 0, 75, 57
1, 289668, Note_on_c, 0, 63, 69
1, 289670, Note_on_c, 0, 69, 72
1, 289676, Note_on_c, 0, 75, 85
1, 289689, Note_off_c, 0, 63, 61
1, 289695, Note_off_c, 0, 48, 60
1, 289700, Note_off_c, 0, 69, 66
1, 289710, Note_off_c, 0, 60, 62
1, 289733, Note_off_c, 0, 75, 64
1, 289784, Poly_aftertouch_c, 0, 64, 0
1, 289865, Note_on_c, 0, 69, 84
1, 289867, Note_on_c, 0, 81, 84
1, 289879, Note_on_c, 0, 75, 68
1, 289958, Note_off_c, 0, 69, 60
1, 289976, Note_off_c, 0, 81, 62
1, 289983, Note_off_c, 0, 75, 57
1, 290094, Note_on_c, 0, 58, 92
1, 290103, Note_on_c, 0, 46, 79
1, 290136, Control_c, 0, 64, 97
1, 290150, Control_c, 0, 64, 76
1, 290165, Control_c, 0, 64, 61
1, 290180, Control_c, 0, 64, 0
1, 290285, Control_c, 0, 64, 24
1, 290293, Note_on_c, 0, 82, 70
1, 290296, Note_on_c, 0, 75, 69
1, 290296, Note_on_c, 0, 70, 76
1, 290299, Control_c, 0, 64, 54
1, 290305, Note_on_c, 0, 77, 64
1, 290314, Control_c, 0, 64, 65
1, 290329, Control_c, 0, 64, 75
1, 290344, Control_c, 0, 64, 93
1, 290359, Control_c, 0, 64, 127
1, 290365, Note_off_c, 0, 75, 61
1, 290395, Note_off_c, 0, 82, 60
1, 290396, Note_off_c, 0, 70, 54
1, 290481, Note_on_c, 0, 74, 79
1, 290486, Note_on_c, 0, 82, 84
1, 290495, Note_on_c, 0, 70, 80
1, 290495, Note_off_c, 0, 77, 58
1, 290528, Note_off_c, 0, 74, 61
1, 290529, Note_off_c, 0, 82, 67
1, 290547, Note_off_c, 0, 70, 63
1, 290555, Note_off_c, 0, 58, 62
1, 290577, Note_off_c, 0, 46, 61
1, 290655, Control_c, 0, 64, 110
1, 290670, Control_c, 0, 64, 79
1, 290672, Note_on_c, 0, 72, 82
1, 290678, Note_on_c, 0, 57, 95
1, 290678, Note_on_c, 0, 65, 70
1, 290684, Note_on_c, 0, 45, 83
1, 290685, Control_c, 0, 64, 66
1, 290699, Control_c, 0, 64, 62
1, 290714, Control_c, 0, 64, 64
1, 290729, Control_c, 0, 64, 68
1, 290744, Control_c, 0, 64, 77
1, 290750, Note_off_c, 0, 65, 58
1, 290759, Control_c, 0, 64, 119
1, 290769, Note_off_c, 0, 45, 58
1, 290773, Control_c, 0, 64, 127
1, 290776, Note_off_c, 0, 57, 53
1, 290777, Note_off_c, 0, 72, 63
1, 290929, Control_c, 0, 64, 88
1, 290934, Note_on_c, 0, 55, 100
1, 290942, Note_on_c, 0, 43, 84
1, 290944, Control_c, 0, 64, 67
1, 290959, Control_c, 0, 64, 39
1, 290973, Control_c, 0, 64, 0
1, 291077, Control_c, 0, 64, 56
1, 291092, Control_c, 0, 64, 68
1, 291107, Note_off_c, 0, 43, 64
1, 291107, Control_c, 0, 64, 84
1, 291122, Control_c, 0, 64, 127
1, 291161, Note_on_c, 0, 75, 90
1, 291163, Note_on_c, 0, 63, 86
1, 291164, Note_on_c, 0, 70, 77
1, 291166, Note_off_c, 0, 55, 55
1, 291231, Note_off_c, 0, 63, 63
1, 291277, Note_off_c, 0, 75, 57
1, 291342, Note_off_c, 0, 70, 38
1, 291383, Note_on_c, 0, 63, 91
1, 291389, Control_c, 0, 64, 90
1, 291391, Note_on_c, 0, 51, 87
1, 291403, Control_c, 0, 64, 69
1, 291418, Control_c, 0, 64, 47
1, 291433, Control_c, 0, 64, 0
1, 291522, Control_c, 0, 64, 28
1, 291544, Control_c, 0, 64, 57
1, 291559, Control_c, 0, 64, 65
1, 291574, Control_c, 0, 64, 74
1, 291589, Note_on_c, 0, 72, 76
1, 291589, Control_c, 0, 64, 90
1, 291591, Note_on_c, 0, 67, 67
1, 291599, Note_on_c, 0, 70, 59
1, 291603, Control_c, 0, 64, 127
1, 291645, Note_off_c, 0, 70, 50
1, 291668, Note_off_c, 0, 51, 63
1, 291677, Note_off_c, 0, 63, 62
1, 291683, Note_off_c, 0, 67, 56
1, 291697, Note_off_c, 0, 72, 59
1, 291796, Control_c, 0, 64, 83
1, 291808, Note_on_c, 0, 62, 76
1, 291811, Control_c, 0, 64, 62
1, 291814, Note_on_c, 0, 50, 67
1, 291826, Control_c, 0, 64, 0
1, 291915, Control_c, 0, 64, 31
1, 291930, Control_c, 0, 64, 54
1, 291945, Control_c, 0, 64, 63
1, 291960, Control_c, 0, 64, 70
1, 291975, Control_c, 0, 64, 79
1, 291990, Control_c, 0, 64, 99
1, 292004, Control_c, 0, 64, 127
1, 292005, Note_on_c, 0, 77, 70
1, 292011, Note_on_c, 0, 65, 62
1, 292011, Note_on_c, 0, 70, 65
1, 292020, Note_off_c, 0, 50, 62
1, 292027, Note_off_c, 0, 62, 57
1, 292076, Note_off_c, 0, 65, 59
1, 292083, Note_off_c, 0, 70, 61
1, 292119, Note_off_c, 0, 77, 58
1, 292196, Control_c, 0, 64, 118
1, 292211, Control_c, 0, 64, 91
1, 292225, Note_on_c, 0, 60, 71
1, 292226, Control_c, 0, 64, 73
1, 292237, Note_on_c, 0, 48, 54
1, 292241, Control_c, 0, 64, 58
1, 292256, Control_c, 0, 64, 0
1, 292352, Control_c, 0, 64, 33
1, 292367, Control_c, 0, 64, 53
1, 292382, Control_c, 0, 64, 62
1, 292396, Control_c, 0, 64, 66
1, 292411, Control_c, 0, 64, 70
1, 292426, Control_c, 0, 64, 75
1, 292441, Control_c, 0, 64, 81
1, 292449, Note_on_c, 0, 81, 59
1, 292450, Note_on_c, 0, 69, 58
1, 292456, Control_c, 0, 64, 90
1, 292458, Note_on_c, 0, 77, 52
1, 292466, Note_on_c, 0, 75, 46
1, 292470, Control_c, 0, 64, 104
1, 292472, Note_off_c, 0, 60, 60
1, 292480, Note_off_c, 0, 48, 53
1, 292485, Control_c, 0, 64, 127
1, 292544, Note_off_c, 0, 75, 49
1, 292547, Note_off_c, 0, 69, 61
1, 292551, Note_off_c, 0, 77, 52
1, 292571, Note_off_c, 0, 81, 60
1, 292693, Control_c, 0, 64, 116
1, 292708, Control_c, 0, 64, 107
1, 292710, Note_on_c, 0, 58, 67
1, 292723, Control_c, 0, 64, 99
1, 292726, Note_on_c, 0, 46, 55
1, 292738, Control_c, 0, 64, 90
1, 292753, Control_c, 0, 64, 81
1, 292768, Control_c, 0, 64, 74
1, 292782, Control_c, 0, 64, 67
1, 292797, Control_c, 0, 64, 63
1, 292812, Control_c, 0, 64, 57
1, 292827, Control_c, 0, 64, 47
1, 292842, Control_c, 0, 64, 19
1, 292857, Control_c, 0, 64, 0
1, 292920, Note_on_c, 0, 82, 55
1, 292923, Note_on_c, 0, 75, 50
1, 292927, Note_on_c, 0, 77, 52
1, 292931, Control_c, 0, 64, 12
1, 292935, Note_on_c, 0, 70, 46
1, 292946, Control_c, 0, 64, 40
1, 292960, Control_c, 0, 64, 55
1, 292975, Control_c, 0, 64, 63
1, 292990, Control_c, 0, 64, 68
1, 293003, Note_off_c, 0, 70, 59
1, 293005, Control_c, 0, 64, 73
1, 293013, Note_off_c, 0, 75, 59
1, 293019, Control_c, 0, 64, 81
1, 293026, Note_off_c, 0, 82, 62
1, 293029, Note_off_c, 0, 77, 49
1, 293042, Control_c, 0, 64, 88
1, 293057, Control_c, 0, 64, 93
1, 293072, Control_c, 0, 64, 93
1, 293087, Control_c, 0, 64, 87
1, 293101, Control_c, 0, 64, 78
1, 293116, Control_c, 0, 64, 68
1, 293122, Note_on_c, 0, 77, 11
1, 293131, Control_c, 0, 64, 63
1, 293134, Note_on_c, 0, 82, 69
1, 293138, Note_on_c, 0, 74, 56
1, 293143, Note_on_c, 0, 70, 53
1, 293146, Control_c, 0, 64, 62
1, 293161, Control_c, 0, 64, 63
1, 293175, Control_c, 0, 64, 65
1, 293187, Note_off_c, 0, 77, 60
1, 293188, Note_off_c, 0, 82, 66
1, 293190, Note_off_c, 0, 74, 58
1, 293190, Control_c, 0, 64, 68
1, 293205, Control_c, 0, 64, 73
1, 293219, Control_c, 0, 64, 82
1, 293224, Note_off_c, 0, 70, 60
1, 293234, Control_c, 0, 64, 94
1, 293249, Control_c, 0, 64, 115
1, 293264, Control_c, 0, 64, 127
1, 293323, Control_c, 0, 64, 108
1, 293338, Control_c, 0, 64, 87
1, 293347, Note_on_c, 0, 77, 65
1, 293352, Note_on_c, 0, 70, 61
1, 293353, Control_c, 0, 64, 72
1, 293359, Note_on_c, 0, 74, 56
1, 293367, Control_c, 0, 64, 61
1, 293382, Control_c, 0, 64, 49
1, 293397, Control_c, 0, 64, 48
1, 293403, Note_off_c, 0, 74, 56
1, 293411, Control_c, 0, 64, 54
1, 293426, Control_c, 0, 64, 60
1, 293442, Control_c, 0, 64, 65
1, 293447, Note_off_c, 0, 70, 51
1, 293457, Control_c, 0, 64, 69
1, 293472, Control_c, 0, 64, 74
1, 293487, Control_c, 0, 64, 83
1, 293502, Control_c, 0, 64, 94
1, 293516, Control_c, 0, 64, 114
1, 293531, Control_c, 0, 64, 127
1, 293546, Note_off_c, 0, 77, 53
1, 293556, Note_on_c, 0, 74, 62
1, 293575, Note_on_c, 0, 65, 51
1, 293584, Note_on_c, 0, 70, 47
1, 293616, Note_off_c, 0, 65, 62
1, 293622, Note_off_c, 0, 70, 58
1, 293707, Note_off_c, 0, 58, 59
1, 293788, Note_on_c, 0, 70, 61
1, 293801, Note_off_c, 0, 74, 58
1, 293808, Note_on_c, 0, 62, 39
1, 293852, Note_off_c, 0, 62, 61
1, 293856, Note_off_c, 0, 70, 61
1, 294086, Control_c, 0, 64, 108
1, 294098, Note_on_c, 0, 70, 58
1, 294101, Control_c, 0, 64, 87
1, 294104, Note_on_c, 0, 58, 55
1, 294109, Note_off_c, 0, 46, 20
1, 294116, Control_c, 0, 64, 72
1, 294131, Control_c, 0, 64, 60
1, 294146, Control_c, 0, 64, 30
1, 294161, Control_c, 0, 64, 0
1, 294176, Control_c, 0, 64, 11
1, 294190, Control_c, 0, 64, 28
1, 294205, Control_c, 0, 64, 42
1, 294220, Control_c, 0, 64, 54
1, 294236, Control_c, 0, 64, 62
1, 294237, Note_off_c, 0, 58, 60
1, 294251, Control_c, 0, 64, 66
1, 294265, Control_c, 0, 64, 71
1, 294280, Control_c, 0, 64, 79
1, 294295, Control_c, 0, 64, 90
1, 294310, Control_c, 0, 64, 106
1, 294325, Control_c, 0, 64, 127
1, 294452, Note_off_c, 0, 70, 61
1, 294454, Note_on_c, 0, 74, 62
1, 294463, Note_on_c, 0, 62, 46
1, 294489, Note_off_c, 0, 62, 58
1, 294505, Note_off_c, 0, 74, 58
1, 294599, Control_c, 0, 64, 110
1, 294613, Control_c, 0, 64, 92
1, 294622, Note_on_c, 0, 77, 76
1, 294628, Control_c, 0, 64, 80
1, 294643, Control_c, 0, 64, 69
1, 294647, Note_on_c, 0, 46, 31
1, 294658, Control_c, 0, 64, 60
1, 294662, Note_on_c, 0, 65, 37
1, 294672, Control_c, 0, 64, 45
1, 294687, Control_c, 0, 64, 32
1, 294702, Control_c, 0, 64, 30
1, 294732, Control_c, 0, 64, 32
1, 294747, Control_c, 0, 64, 35
1, 294762, Control_c, 0, 64, 42
1, 294771, Note_on_c, 0, 50, 31
1, 294777, Control_c, 0, 64, 51
1, 294792, Control_c, 0, 64, 60
1, 294807, Control_c, 0, 64, 65
1, 294821, Note_off_c, 0, 50, 62
1, 294821, Control_c, 0, 64, 68
1, 294836, Control_c, 0, 64, 74
1, 294851, Control_c, 0, 64, 81
1, 294866, Control_c, 0, 64, 91
1, 294873, Note_on_c, 0, 53, 49
1, 294881, Control_c, 0, 64, 110
1, 294896, Control_c, 0, 64, 127
1, 294917, Note_off_c, 0, 77, 52
1, 294938, Note_off_c, 0, 65, 59
1, 294977, Note_off_c, 0, 53, 55
1, 294994, Note_on_c, 0, 50, 41
1, 295003, Note_off_c, 0, 46, 41
1, 295070, Note_off_c, 0, 50, 59
1, 295073, Note_on_c, 0, 77, 76
1, 295075, Control_c, 0, 64, 118
1, 295081, Note_on_c, 0, 65, 65
1, 295089, Control_c, 0, 64, 93
1, 295104, Control_c, 0, 64, 76
1, 295109, Note_on_c, 0, 46, 51
1, 295119, Control_c, 0, 64, 64
1, 295134, Control_c, 0, 64, 48
1, 295149, Control_c, 0, 64, 31
1, 295163, Control_c, 0, 64, 34
1, 295178, Control_c, 0, 64, 41
1, 295193, Control_c, 0, 64, 51
1, 295201, Note_on_c, 0, 50, 52
1, 295208, Control_c, 0, 64, 59
1, 295223, Control_c, 0, 64, 64
1, 295237, Control_c, 0, 64, 68
1, 295252, Control_c, 0, 64, 76
1, 295267, Control_c, 0, 64, 86
1, 295284, Note_off_c, 0, 50, 63
1, 295289, Control_c, 0, 64, 103
1, 295304, Control_c, 0, 64, 127
1, 295310, Note_on_c, 0, 53, 55
1, 295352, Note_off_c, 0, 65, 61
1, 295358, Note_off_c, 0, 77, 59
1, 295399, Note_off_c, 0, 53, 59
1, 295402, Note_off_c, 0, 46, 56
1, 295415, Note_on_c, 0, 50, 55
1, 295500, Note_off_c, 0, 50, 59
1, 295511, Control_c, 0, 64, 116
1, 295517, Note_on_c, 0, 78, 83
1, 295526, Control_c, 0, 64, 79
1, 295529, Note_on_c, 0, 66, 66
1, 295531, Note_on_c, 0, 45, 52
1, 295541, Control_c, 0, 64, 56
1, 295556, Control_c, 0, 64, 0
1, 295629, Control_c, 0, 64, 28
1, 295641, Note_on_c, 0, 48, 43
1, 295644, Control_c, 0, 64, 54
1, 295659, Control_c, 0, 64, 64
1, 295674, Control_c, 0, 64, 73
1, 295689, Control_c, 0, 64, 92
1, 295704, Control_c, 0, 64, 127
1, 295713, Note_off_c, 0, 48, 61
1, 295743, Note_on_c, 0, 50, 54
1, 295746, Note_off_c, 0, 66, 60
1, 295761, Note_off_c, 0, 45, 51
1, 295775, Note_off_c, 0, 78, 64
1, 295837, Note_off_c, 0, 50, 56
1, 295866, Note_on_c, 0, 48, 43
1, 295968, Note_off_c, 0, 48, 59
1, 295970, Note_on_c, 0, 79, 78
1, 295980, Note_on_c, 0, 67, 61
1, 295986, Control_c, 0, 64, 99
1, 296001, Control_c, 0, 64, 74
1, 296005, Note_on_c, 0, 43, 45
1, 296016, Control_c, 0, 64, 60
1, 296038, Control_c, 0, 64, 26
1, 296053, Control_c, 0, 64, 0
1, 296112, Control_c, 0, 64, 26
1, 296118, Note_on_c, 0, 48, 41
1, 296127, Control_c, 0, 64, 47
1, 296142, Control_c, 0, 64, 59
1, 296157, Control_c, 0, 64, 65
1, 296172, Control_c, 0, 64, 70
1, 296181, Note_off_c, 0, 48, 63
1, 296186, Control_c, 0, 64, 80
1, 296201, Control_c, 0, 64, 93
1, 296216, Control_c, 0, 64, 127
1, 296252, Note_on_c, 0, 50, 44
1, 296261, Note_off_c, 0, 67, 56
1, 296279, Note_off_c, 0, 43, 37
1, 296330, Note_off_c, 0, 50, 55
1, 296336, Note_on_c, 0, 48, 43
1, 296342, Note_off_c, 0, 79, 53
1, 296375, Note_off_c, 0, 48, 61
1, 296437, Control_c, 0, 64, 108
1, 296449, Note_on_c, 0, 81, 68
1, 296452, Control_c, 0, 64, 86
1, 296460, Note_on_c, 0, 69, 59
1, 296467, Control_c, 0, 64, 69
1, 296482, Control_c, 0, 64, 56
1, 296486, Note_on_c, 0, 42, 41
1, 296497, Control_c, 0, 64, 24
1, 296512, Control_c, 0, 64, 0
1, 296541, Control_c, 0, 64, 9
1, 296556, Control_c, 0, 64, 28
1, 296571, Control_c, 0, 64, 43
1, 296586, Control_c, 0, 64, 55
1, 296592, Note_on_c, 0, 48, 38
1, 296601, Control_c, 0, 64, 62
1, 296616, Control_c, 0, 64, 67
1, 296631, Control_c, 0, 64, 72
1, 296641, Note_off_c, 0, 69, 61
1, 296646, Control_c, 0, 64, 79
1, 296659, Note_off_c, 0, 48, 58
1, 296661, Control_c, 0, 64, 91
1, 296676, Control_c, 0, 64, 107
1, 296690, Control_c, 0, 64, 127
1, 296695, Note_off_c, 0, 81, 62
1, 296716, Note_on_c, 0, 50, 43
1, 296802, Control_c, 0, 67, 19
1, 296804, Note_off_c, 0, 42, 39
1, 296816, Control_c, 0, 67, 40
1, 296831, Control_c, 0, 67, 56
1, 296846, Control_c, 0, 67, 70
1, 296857, Note_on_c, 0, 48, 31
1, 296857, Note_off_c, 0, 50, 34
1, 296860, Control_c, 0, 67, 81
1, 296875, Control_c, 0, 67, 87
1, 296890, Control_c, 0, 67, 87
1, 296920, Control_c, 0, 67, 87
1, 296932, Note_off_c, 0, 48, 55
1, 296935, Note_on_c, 0, 84, 67
1, 296935, Control_c, 0, 64, 95
1, 296935, Control_c, 0, 67, 85
1, 296935, Note_on_c, 0, 42, 43
1, 296941, Note_on_c, 0, 72, 55
1, 296950, Control_c, 0, 64, 79
1, 296950, Control_c, 0, 67, 84
1, 296965, Control_c, 0, 64, 66
1, 296965, Control_c, 0, 67, 82
1, 296980, Control_c, 0, 64, 54
1, 296995, Control_c, 0, 64, 35
1, 296995, Control_c, 0, 67, 82
1, 297009, Control_c, 0, 64, 28
1, 297009, Control_c, 0, 67, 81
1, 297024, Control_c, 0, 64, 30
1, 297024, Control_c, 0, 67, 80
1, 297039, Control_c, 0, 64, 34
1, 297039, Control_c, 0, 67, 79
1, 297054, Control_c, 0, 64, 41
1, 297054, Control_c, 0, 67, 78
1, 297066, Note_on_c, 0, 45, 44
1, 297068, Control_c, 0, 64, 51
1, 297068, Control_c, 0, 67, 77
1, 297083, Control_c, 0, 64, 58
1, 297083, Control_c, 0, 67, 75
1, 297098, Control_c, 0, 64, 63
1, 297098, Control_c, 0, 67, 75
1, 297113, Control_c, 0, 64, 66
1, 297113, Control_c, 0, 67, 73
1, 297115, Note_off_c, 0, 72, 61
1, 297128, Control_c, 0, 64, 71
1, 297128, Control_c, 0, 67, 72
1, 297142, Control_c, 0, 64, 77
1, 297142, Control_c, 0, 67, 70
1, 297147, Note_off_c, 0, 84, 56
1, 297157, Control_c, 0, 64, 86
1, 297162, Note_off_c, 0, 45, 58
1, 297172, Control_c, 0, 64, 98
1, 297187, Control_c, 0, 64, 127
1, 297194, Note_on_c, 0, 50, 44
1, 297216, Control_c, 0, 67, 70
1, 297246, Control_c, 0, 67, 71
1, 297260, Control_c, 0, 67, 72
1, 297275, Control_c, 0, 67, 72
1, 297290, Control_c, 0, 67, 73
1, 297294, Note_on_c, 0, 45, 45
1, 297303, Note_off_c, 0, 42, 41
1, 297305, Control_c, 0, 67, 73
1, 297320, Control_c, 0, 67, 74
1, 297328, Note_off_c, 0, 45, 62
1, 297334, Control_c, 0, 67, 75
1, 297349, Control_c, 0, 67, 77
1, 297364, Control_c, 0, 67, 78
1, 297375, Note_off_c, 0, 50, 26
1, 297379, Control_c, 0, 67, 78
1, 297394, Control_c, 0, 64, 123
1, 297394, Control_c, 0, 67, 80
1, 297407, Note_on_c, 0, 82, 64
1, 297409, Control_c, 0, 64, 96
1, 297409, Control_c, 0, 67, 80
1, 297420, Note_on_c, 0, 70, 52
1, 297424, Control_c, 0, 64, 79
1, 297424, Control_c, 0, 67, 82
1, 297439, Control_c, 0, 64, 66
1, 297439, Control_c, 0, 67, 82
1, 297442, Note_on_c, 0, 43, 44
1, 297454, Control_c, 0, 64, 54
1, 297454, Control_c, 0, 67, 83
1, 297469, Control_c, 0, 64, 37
1, 297469, Control_c, 0, 67, 84
1, 297483, Control_c, 0, 64, 33
1, 297498, Control_c, 0, 64, 35
1, 297498, Control_c, 0, 67, 85
1, 297513, Control_c, 0, 64, 39
1, 297536, Control_c, 0, 64, 44
1, 297551, Control_c, 0, 64, 50
1, 297555, Note_on_c, 0, 46, 45
1, 297565, Control_c, 0, 64, 56
1, 297580, Control_c, 0, 64, 61
1, 297580, Control_c, 0, 67, 84
1, 297595, Control_c, 0, 64, 65
1, 297595, Control_c, 0, 67, 83
1, 297610, Control_c, 0, 64, 69
1, 297625, Control_c, 0, 64, 74
1, 297635, Note_off_c, 0, 82, 59
1, 297639, Control_c, 0, 64, 80
1, 297639, Control_c, 0, 67, 83
1, 297654, Control_c, 0, 64, 87
1, 297656, Note_off_c, 0, 46, 58
1, 297669, Control_c, 0, 64, 94
1, 297671, Note_off_c, 0, 70, 56
1, 297683, Control_c, 0, 64, 101
1, 297692, Note_on_c, 0, 50, 41
1, 297698, Control_c, 0, 64, 107
1, 297713, Control_c, 0, 64, 115
1, 297728, Control_c, 0, 64, 127
1, 297790, Note_on_c, 0, 46, 45
1, 297790, Note_off_c, 0, 43, 41
1, 297806, Note_off_c, 0, 50, 37
1, 297820, Note_off_c, 0, 46, 54
1, 297862, Control_c, 0, 64, 116
1, 297877, Control_c, 0, 64, 107
1, 297891, Control_c, 0, 64, 99
1, 297906, Control_c, 0, 64, 88
1, 297909, Note_on_c, 0, 81, 64
1, 297919, Note_on_c, 0, 69, 54
1, 297921, Control_c, 0, 64, 76
1, 297936, Control_c, 0, 64, 66
1, 297942, Note_on_c, 0, 48, 46
1, 297951, Control_c, 0, 64, 54
1, 297951, Control_c, 0, 67, 82
1, 297965, Control_c, 0, 64, 33
1, 297980, Control_c, 0, 64, 30
1, 297980, Control_c, 0, 67, 82
1, 297995, Control_c, 0, 64, 33
1, 297995, Control_c, 0, 67, 81
1, 298010, Control_c, 0, 64, 38
1, 298010, Control_c, 0, 67, 80
1, 298025, Control_c, 0, 64, 45
1, 298039, Control_c, 0, 64, 52
1, 298039, Control_c, 0, 67, 80
1, 298041, Note_on_c, 0, 51, 41
1, 298054, Control_c, 0, 64, 59
1, 298054, Control_c, 0, 67, 79
1, 298069, Control_c, 0, 64, 63
1, 298083, Control_c, 0, 64, 66
1, 298083, Control_c, 0, 67, 78
1, 298090, Note_off_c, 0, 81, 56
1, 298098, Control_c, 0, 64, 69
1, 298098, Control_c, 0, 67, 78
1, 298113, Control_c, 0, 64, 74
1, 298117, Note_off_c, 0, 69, 59
1, 298128, Control_c, 0, 64, 79
1, 298143, Control_c, 0, 64, 88
1, 298150, Note_off_c, 0, 51, 58
1, 298157, Control_c, 0, 64, 96
1, 298161, Note_on_c, 0, 57, 49
1, 298172, Control_c, 0, 64, 103
1, 298187, Control_c, 0, 64, 108
1, 298202, Control_c, 0, 64, 108
1, 298217, Control_c, 0, 64, 109
1, 298248, Control_c, 0, 64, 110
1, 298273, Note_on_c, 0, 79, 64
1, 298289, Note_on_c, 0, 51, 54
1, 298289, Note_on_c, 0, 67, 49
1, 298300, Control_c, 0, 67, 78
1, 298312, Note_off_c, 0, 48, 41
1, 298313, Note_off_c, 0, 67, 59
1, 298314, Control_c, 0, 67, 79
1, 298329, Control_c, 0, 64, 109
1, 298329, Control_c, 0, 67, 80
1, 298337, Note_off_c, 0, 51, 60
1, 298344, Control_c, 0, 64, 107
1, 298344, Control_c, 0, 67, 82
1, 298359, Control_c, 0, 64, 105
1, 298359, Control_c, 0, 67, 83
1, 298366, Note_off_c, 0, 57, 39
1, 298374, Control_c, 0, 64, 103
1, 298374, Control_c, 0, 67, 84
1, 298388, Control_c, 0, 64, 99
1, 298388, Control_c, 0, 67, 85
1, 298393, Note_off_c, 0, 79, 61
1, 298403, Control_c, 0, 64, 95
1, 298403, Control_c, 0, 67, 87
1, 298417, Note_on_c, 0, 78, 65
1, 298418, Control_c, 0, 64, 88
1, 298418, Control_c, 0, 67, 89
1, 298433, Note_on_c, 0, 66, 55
1, 298433, Control_c, 0, 64, 78
1, 298433, Control_c, 0, 67, 90
1, 298448, Control_c, 0, 64, 69
1, 298448, Control_c, 0, 67, 92
1, 298462, Control_c, 0, 64, 60
1, 298462, Control_c, 0, 67, 97
1, 298473, Note_on_c, 0, 50, 38
1, 298477, Control_c, 0, 64, 43
1, 298477, Control_c, 0, 67, 109
1, 298492, Control_c, 0, 64, 21
1, 298492, Control_c, 0, 67, 118
1, 298507, Control_c, 0, 64, 15
1, 298507, Control_c, 0, 67, 126
1, 298521, Control_c, 0, 67, 127
1, 298551, Control_c, 0, 64, 16
1, 298566, Control_c, 0, 64, 23
1, 298573, Note_on_c, 0, 57, 38
1, 298580, Control_c, 0, 64, 31
1, 298595, Control_c, 0, 64, 42
1, 298610, Control_c, 0, 64, 53
1, 298625, Control_c, 0, 64, 59
1, 298640, Control_c, 0, 64, 63
1, 298655, Control_c, 0, 64, 65
1, 298664, Note_off_c, 0, 57, 58
1, 298670, Control_c, 0, 64, 68
1, 298685, Control_c, 0, 64, 71
1, 298700, Control_c, 0, 64, 75
1, 298700, Note_on_c, 0, 60, 39
1, 298714, Control_c, 0, 64, 79
1, 298729, Note_off_c, 0, 66, 31
1, 298729, Control_c, 0, 64, 82
1, 298730, Note_off_c, 0, 78, 36
1, 298744, Control_c, 0, 64, 86
1, 298759, Control_c, 0, 64, 90
1, 298774, Control_c, 0, 64, 94
1, 298788, Control_c, 0, 64, 97
1, 298791, Note_off_c, 0, 60, 48
1, 298803, Control_c, 0, 64, 98
1, 298808, Note_on_c, 0, 57, 45
1, 298813, Note_off_c, 0, 50, 40
1, 298877, Control_c, 0, 64, 97
1, 298892, Control_c, 0, 64, 96
1, 298900, Note_off_c, 0, 57, 53
1, 298906, Control_c, 0, 64, 94
1, 298921, Control_c, 0, 64, 91
1, 298936, Control_c, 0, 64, 86
1, 298938, Note_on_c, 0, 78, 62
1, 298940, Note_on_c, 0, 66, 49
1, 298951, Note_on_c, 0, 50, 40
1, 298951, Control_c, 0, 64, 78
1, 298966, Control_c, 0, 64, 70
1, 298980, Control_c, 0, 64, 62
1, 298995, Control_c, 0, 64, 52
1, 299010, Control_c, 0, 64, 48
1, 299033, Control_c, 0, 64, 49
1, 299048, Control_c, 0, 64, 51
1, 299063, Control_c, 0, 64, 53
1, 299072, Note_on_c, 0, 57, 36
1, 299078, Control_c, 0, 64, 56
1, 299093, Control_c, 0, 64, 59
1, 299108, Control_c, 0, 64, 62
1, 299123, Control_c, 0, 64, 64
1, 299137, Control_c, 0, 64, 66
1, 299152, Control_c, 0, 64, 69
1, 299167, Control_c, 0, 64, 73
1, 299167, Control_c, 0, 67, 127
1, 299179, Note_off_c, 0, 57, 55
1, 299182, Control_c, 0, 64, 78
1, 299197, Control_c, 0, 64, 84
1, 299197, Control_c, 0, 67, 126
1, 299211, Control_c, 0, 64, 90
1, 299211, Control_c, 0, 67, 125
1, 299218, Note_off_c, 0, 66, 34
1, 299226, Note_on_c, 0, 60, 39
1, 299226, Control_c, 0, 64, 96
1, 299239, Note_off_c, 0, 78, 59
1, 299241, Control_c, 0, 64, 101
1, 299256, Control_c, 0, 64, 104
1, 299270, Control_c, 0, 64, 106
1, 299300, Control_c, 0, 64, 106
1, 299327, Note_on_c, 0, 57, 41
1, 299337, Note_off_c, 0, 50, 39
1, 299374, Control_c, 0, 64, 106
1, 299389, Control_c, 0, 64, 105
1, 299392, Note_off_c, 0, 60, 27
1, 299403, Control_c, 0, 64, 103
1, 299418, Control_c, 0, 64, 101
1, 299431, Note_off_c, 0, 57, 43
1, 299433, Control_c, 0, 64, 98
1, 299448, Control_c, 0, 64, 91
1, 299448, Control_c, 0, 67, 125
1, 299463, Control_c, 0, 64, 81
1, 299471, Note_on_c, 0, 79, 56
1, 299478, Control_c, 0, 64, 70
1, 299478, Note_on_c, 0, 50, 39
1, 299491, Note_on_c, 0, 67, 42
1, 299492, Control_c, 0, 64, 62
1, 299492, Control_c, 0, 67, 124
1, 299507, Control_c, 0, 64, 52
1, 299522, Control_c, 0, 64, 48
1, 299537, Control_c, 0, 64, 51
1, 299552, Control_c, 0, 64, 54
1, 299567, Control_c, 0, 64, 58
1, 299567, Control_c, 0, 67, 124
1, 299582, Control_c, 0, 64, 61
1, 299594, Note_off_c, 0, 67, 60
1, 299597, Control_c, 0, 64, 63
1, 299597, Note_on_c, 0, 57, 36
1, 299611, Control_c, 0, 64, 65
1, 299611, Control_c, 0, 67, 123
1, 299626, Control_c, 0, 64, 67
1, 299626, Control_c, 0, 67, 122
1, 299641, Control_c, 0, 64, 70
1, 299641, Control_c, 0, 67, 122
1, 299655, Control_c, 0, 64, 73
1, 299655, Control_c, 0, 67, 120
1, 299670, Control_c, 0, 64, 76
1, 299670, Control_c, 0, 67, 120
1, 299685, Control_c, 0, 64, 81
1, 299700, Control_c, 0, 64, 87
1, 299700, Control_c, 0, 67, 119
1, 299715, Control_c, 0, 64, 94
1, 299729, Control_c, 0, 64, 103
1, 299729, Control_c, 0, 67, 119
1, 299744, Control_c, 0, 64, 110
1, 299744, Control_c, 0, 67, 118
1, 299753, Note_off_c, 0, 79, 51
1, 299757, Note_on_c, 0, 78, 56
1, 299759, Control_c, 0, 64, 119
1, 299759, Control_c, 0, 67, 117
1, 299764, Note_off_c, 0, 57, 34
1, 299773, Note_on_c, 0, 66, 45
1, 299774, Control_c, 0, 64, 127
1, 299792, Note_on_c, 0, 60, 32
1, 299810, Note_off_c, 0, 78, 60
1, 299834, Note_off_c, 0, 66, 57
1, 299904, Note_on_c, 0, 57, 36
1, 299904, Note_off_c, 0, 50, 39
1, 299969, Note_off_c, 0, 60, 27
1, 300034, Note_off_c, 0, 57, 56
1, 300064, Control_c, 0, 64, 99
1, 300074, Note_on_c, 0, 50, 37
1, 300077, Note_on_c, 0, 76, 52
1, 300078, Control_c, 0, 64, 82
1, 300093, Control_c, 0, 64, 69
1, 300095, Note_on_c, 0, 64, 40
1, 300108, Control_c, 0, 64, 58
1, 300123, Control_c, 0, 64, 47
1, 300138, Control_c, 0, 64, 46
1, 300152, Control_c, 0, 64, 48
1, 300167, Control_c, 0, 64, 53
1, 300182, Control_c, 0, 64, 57
1, 300197, Control_c, 0, 64, 61
1, 300212, Control_c, 0, 64, 64
1, 300214, Note_off_c, 0, 64, 58
1, 300226, Control_c, 0, 64, 66
1, 300235, Note_on_c, 0, 57, 30
1, 300241, Control_c, 0, 64, 68
1, 300256, Control_c, 0, 64, 72
1, 300271, Control_c, 0, 64, 76
1, 300285, Control_c, 0, 64, 84
1, 300285, Control_c, 0, 67, 118
1, 300288, Note_off_c, 0, 50, 35
1, 300300, Control_c, 0, 64, 93
1, 300300, Control_c, 0, 67, 119
1, 300315, Control_c, 0, 64, 106
1, 300315, Control_c, 0, 67, 119
1, 300316, Note_off_c, 0, 76, 53
1, 300330, Control_c, 0, 64, 127
1, 300330, Control_c, 0, 67, 120
1, 300345, Control_c, 0, 67, 120
1, 300360, Control_c, 0, 67, 122
1, 300375, Control_c, 0, 67, 124
1, 300390, Control_c, 0, 67, 125
1, 300405, Control_c, 0, 67, 127
1, 300408, Note_off_c, 0, 57, 44
1, 300420, Control_c, 0, 67, 127
1, 300429, Note_on_c, 0, 78, 48
1, 300434, Note_on_c, 0, 60, 37
1, 300442, Note_on_c, 0, 66, 35
1, 300610, Note_off_c, 0, 66, 45
1, 300634, Note_on_c, 0, 57, 36
1, 300640, Note_off_c, 0, 78, 31
1, 300644, Note_off_c, 0, 60, 42
1, 300678, Note_off_c, 0, 57, 61
1, 301094, Control_c, 0, 64, 107
1, 301108, Control_c, 0, 64, 94
1, 301120, Note_on_c, 0, 79, 48
1, 301123, Control_c, 0, 64, 78
1, 301138, Control_c, 0, 64, 67
1, 301139, Note_on_c, 0, 43, 35
1, 301144, Note_on_c, 0, 67, 33
1, 301153, Control_c, 0, 64, 56
1, 301168, Control_c, 0, 64, 38
1, 301183, Control_c, 0, 64, 29
1, 301212, Control_c, 0, 64, 32
1, 301227, Control_c, 0, 64, 38
1, 301242, Control_c, 0, 64, 47
1, 301257, Control_c, 0, 64, 57
1, 301279, Control_c, 0, 64, 63
1, 301294, Control_c, 0, 64, 67
1, 301308, Control_c, 0, 64, 72
1, 301313, Note_off_c, 0, 43, 57
1, 301323, Control_c, 0, 64, 81
1, 301338, Control_c, 0, 64, 93
1, 301353, Control_c, 0, 64, 127
1, 301588, Note_on_c, 0, 55, 28
1, 301597, Note_on_c, 0, 59, 25
1, 301598, Note_on_c, 0, 50, 22
1, 301658, Note_off_c, 0, 59, 51
1, 301663, Note_off_c, 0, 55, 51
1, 301687, Note_off_c, 0, 50, 38
1, 301807, Note_on_c, 0, 55, 27
1, 301813, Note_on_c, 0, 50, 12
1, 301833, Note_on_c, 0, 59, 22
1, 301884, Note_off_c, 0, 55, 51
1, 301884, Note_off_c, 0, 59, 47
1, 301943, Note_off_c, 0, 79, 40
1, 301982, Note_on_c, 0, 55, 29
1, 302023, Note_on_c, 0, 59, 30
1, 302064, Note_off_c, 0, 59, 49
1, 302095, Note_off_c, 0, 67, 30
1, 302122, Note_off_c, 0, 55, 0
1, 302138, Note_on_c, 0, 55, 27
1, 302169, Note_on_c, 0, 59, 36
1, 302202, Note_off_c, 0, 59, 54
1, 302217, Note_off_c, 0, 55, 50
1, 302295, Note_on_c, 0, 55, 31
1, 302333, Note_on_c, 0, 59, 32
1, 302371, Note_off_c, 0, 55, 47
1, 302371, Note_off_c, 0, 59, 48
1, 302408, Note_off_c, 0, 50, 0
1, 302441, Note_on_c, 0, 55, 30
1, 302443, Note_on_c, 0, 72, 51
1, 302445, Poly_aftertouch_c, 0, 50, 127
1, 302491, Note_on_c, 0, 59, 20
1, 302531, Note_off_c, 0, 59, 48
1, 302557, Note_off_c, 0, 55, 0
1, 302580, Note_on_c, 0, 55, 20
1, 302614, Note_on_c, 0, 59, 38
1, 302652, Note_off_c, 0, 59, 59
1, 302652, Note_off_c, 0, 55, 56
1, 302665, Control_c, 0, 67, 127
1, 302670, Note_on_c, 0, 71, 67
1, 302711, Note_off_c, 0, 72, 53
1, 302737, Poly_aftertouch_c, 0, 50, 0
1, 302760, Note_on_c, 0, 50, 13
1, 302777, Note_on_c, 0, 59, 37
1, 302779, Note_on_c, 0, 55, 43
1, 302822, Note_off_c, 0, 55, 60
1, 302825, Note_off_c, 0, 59, 57
1, 302909, Note_off_c, 0, 50, 0
1, 302912, Note_on_c, 0, 70, 64
1, 302929, Note_on_c, 0, 50, 18
1, 302929, Note_on_c, 0, 55, 44
1, 302934, Note_off_c, 0, 71, 58
1, 302962, Note_on_c, 0, 59, 25
1, 302972, Note_off_c, 0, 55, 58
1, 302986, Note_off_c, 0, 50, 52
1, 303005, Note_off_c, 0, 59, 40
1, 303066, Note_off_c, 0, 70, 35
1, 303072, Note_on_c, 0, 50, 27
1, 303088, Note_on_c, 0, 55, 33
1, 303126, Note_on_c, 0, 71, 65
1, 303129, Note_off_c, 0, 55, 50
1, 303132, Note_off_c, 0, 50, 44
1, 303147, Control_c, 0, 67, 126
1, 303149, Poly_aftertouch_c, 0, 59, 0
1, 303172, Note_off_c, 0, 71, 57
1, 303218, Poly_aftertouch_c, 0, 59, 0
1, 303226, Note_on_c, 0, 50, 34
1, 303236, Note_on_c, 0, 55, 50
1, 303249, Note_on_c, 0, 59, 3
1, 303260, Note_off_c, 0, 55, 56
1, 303270, Note_off_c, 0, 50, 62
1, 303284, Note_on_c, 0, 71, 70
1, 303287, Note_off_c, 0, 59, 37
1, 303340, Control_c, 0, 67, 127
1, 303369, Control_c, 0, 67, 127
1, 303473, Control_c, 0, 64, 101
1, 303488, Control_c, 0, 64, 80
1, 303502, Control_c, 0, 64, 65
1, 303507, Note_on_c, 0, 36, 48
1, 303525, Control_c, 0, 64, 51
1, 303540, Control_c, 0, 64, 33
1, 303555, Control_c, 0, 64, 37
1, 303570, Control_c, 0, 64, 45
1, 303584, Control_c, 0, 64, 55
1, 303599, Control_c, 0, 64, 62
1, 303608, Note_on_c, 0, 76, 64
1, 303612, Note_off_c, 0, 36, 63
1, 303614, Control_c, 0, 64, 66
1, 303629, Control_c, 0, 64, 70
1, 303644, Control_c, 0, 64, 77
1, 303658, Control_c, 0, 64, 85
1, 303673, Control_c, 0, 64, 95
1, 303688, Control_c, 0, 64, 108
1, 303702, Control_c, 0, 64, 127
1, 303707, Note_off_c, 0, 71, 50
1, 303817, Note_on_c, 0, 59, 44
1, 303824, Note_on_c, 0, 52, 37
1, 303833, Note_on_c, 0, 48, 32
1, 303848, Note_off_c, 0, 59, 57
1, 303858, Note_off_c, 0, 52, 56
1, 303870, Note_off_c, 0, 48, 50
1, 303951, Note_on_c, 0, 59, 53
1, 303990, Note_off_c, 0, 59, 62
1, 304015, Poly_aftertouch_c, 0, 48, 127
1, 304029, Poly_aftertouch_c, 0, 52, 127
1, 304029, Control_c, 0, 64, 111
1, 304044, Control_c, 0, 64, 97
1, 304059, Control_c, 0, 64, 85
1, 304074, Control_c, 0, 64, 79
1, 304089, Control_c, 0, 64, 77
1, 304091, Note_on_c, 0, 56, 48
1, 304104, Control_c, 0, 64, 79
1, 304118, Control_c, 0, 64, 80
1, 304132, Note_off_c, 0, 56, 62
1, 304133, Control_c, 0, 64, 81
1, 304148, Control_c, 0, 64, 82
1, 304163, Control_c, 0, 64, 83
1, 304171, Poly_aftertouch_c, 0, 52, 0
1, 304178, Control_c, 0, 64, 84
1, 304192, Control_c, 0, 64, 86
1, 304198, Poly_aftertouch_c, 0, 48, 0
1, 304207, Control_c, 0, 64, 88
1, 304222, Note_on_c, 0, 48, 10
1, 304222, Control_c, 0, 64, 91
1, 304224, Note_on_c, 0, 52, 37
1, 304237, Control_c, 0, 64, 93
1, 304240, Note_on_c, 0, 56, 48
1, 304252, Control_c, 0, 64, 95
1, 304274, Control_c, 0, 64, 98
1, 304277, Note_off_c, 0, 56, 55
1, 304287, Note_off_c, 0, 52, 57
1, 304289, Control_c, 0, 64, 101
1, 304304, Control_c, 0, 64, 103
1, 304307, Note_off_c, 0, 48, 41
1, 304319, Control_c, 0, 64, 104
1, 304384, Note_on_c, 0, 48, 32
1, 304384, Note_on_c, 0, 56, 49
1, 304387, Note_on_c, 0, 52, 44
1, 304421, Note_off_c, 0, 56, 58
1, 304430, Note_off_c, 0, 52, 57
1, 304431, Note_off_c, 0, 48, 55
1, 304452, Control_c, 0, 64, 104
1, 304467, Control_c, 0, 64, 103
1, 304481, Control_c, 0, 64, 101
1, 304496, Control_c, 0, 64, 98
1, 304511, Control_c, 0, 64, 91
1, 304524, Control_c, 0, 64, 81
1, 304525, Note_on_c, 0, 71, 56
1, 304539, Control_c, 0, 64, 70
1, 304546, Note_on_c, 0, 52, 45
1, 304552, Note_on_c, 0, 48, 31
1, 304554, Note_off_c, 0, 76, 42
1, 304554, Control_c, 0, 64, 61
1, 304557, Note_on_c, 0, 57, 38
1, 304569, Control_c, 0, 64, 44
1, 304584, Note_off_c, 0, 52, 59
1, 304584, Control_c, 0, 64, 38
1, 304593, Note_off_c, 0, 48, 49
1, 304599, Control_c, 0, 64, 41
1, 304604, Note_off_c, 0, 57, 55
1, 304614, Control_c, 0, 64, 47
1, 304629, Control_c, 0, 64, 54
1, 304644, Control_c, 0, 64, 60
1, 304659, Control_c, 0, 64, 63
1, 304659, Control_c, 0, 67, 127
1, 304674, Control_c, 0, 64, 66
1, 304674, Control_c, 0, 67, 126
1, 304680, Note_on_c, 0, 57, 32
1, 304689, Control_c, 0, 64, 69
1, 304689, Control_c, 0, 67, 125
1, 304694, Note_on_c, 0, 52, 41
1, 304697, Note_on_c, 0, 48, 33
1, 304703, Control_c, 0, 64, 73
1, 304703, Control_c, 0, 67, 125
1, 304718, Control_c, 0, 64, 79
1, 304730, Note_off_c, 0, 52, 58
1, 304733, Note_off_c, 0, 57, 56
1, 304733, Control_c, 0, 64, 87
1, 304733, Control_c, 0, 67, 124
1, 304739, Note_off_c, 0, 48, 49
1, 304742, Note_on_c, 0, 69, 66
1, 304748, Control_c, 0, 64, 96
1, 304763, Control_c, 0, 64, 111
1, 304778, Control_c, 0, 64, 127
1, 304778, Control_c, 0, 67, 124
1, 304796, Note_off_c, 0, 71, 52
1, 304822, Control_c, 0, 67, 123
1, 304843, Note_on_c, 0, 57, 43
1, 304852, Note_on_c, 0, 52, 40
1, 304864, Note_on_c, 0, 48, 12
1, 304867, Control_c, 0, 67, 122
1, 304882, Note_off_c, 0, 52, 54
1, 304885, Note_off_c, 0, 57, 60
1, 304915, Note_off_c, 0, 48, 37
1, 304985, Note_on_c, 0, 52, 47
1, 304987, Note_on_c, 0, 68, 64
1, 304993, Note_on_c, 0, 48, 22
1, 304995, Note_on_c, 0, 57, 43
1, 305003, Note_off_c, 0, 69, 60
1, 305022, Control_c, 0, 67, 123
1, 305029, Note_off_c, 0, 52, 59
1, 305033, Note_off_c, 0, 57, 60
1, 305043, Note_off_c, 0, 48, 50
1, 305076, Note_off_c, 0, 68, 60
1, 305126, Note_on_c, 0, 57, 50
1, 305138, Note_on_c, 0, 52, 40
1, 305173, Note_off_c, 0, 57, 59
1, 305176, Note_off_c, 0, 52, 51
1, 305181, Note_on_c, 0, 69, 64
1, 305220, Note_off_c, 0, 69, 62
1, 305271, Note_on_c, 0, 48, 30
1, 305296, Note_on_c, 0, 57, 30
1, 305308, Note_on_c, 0, 52, 17
1, 305314, Note_off_c, 0, 48, 63
1, 305323, Note_off_c, 0, 57, 56
1, 305335, Note_on_c, 0, 69, 68
1, 305350, Note_off_c, 0, 52, 44
1, 305362, Control_c, 0, 67, 124
1, 305423, Control_c, 0, 67, 124
1, 305467, Control_c, 0, 67, 125
1, 305482, Control_c, 0, 64, 116
1, 305497, Control_c, 0, 64, 85
1, 305512, Control_c, 0, 64, 69
1, 305517, Note_on_c, 0, 35, 52
1, 305526, Control_c, 0, 64, 56
1, 305541, Control_c, 0, 64, 39
1, 305556, Control_c, 0, 64, 40
1, 305571, Control_c, 0, 64, 48
1, 305571, Control_c, 0, 67, 125
1, 305585, Control_c, 0, 64, 61
1, 305585, Control_c, 0, 67, 126
1, 305600, Control_c, 0, 64, 67
1, 305603, Note_off_c, 0, 35, 62
1, 305615, Control_c, 0, 64, 74
1, 305622, Note_on_c, 0, 74, 63
1, 305630, Control_c, 0, 64, 87
1, 305645, Control_c, 0, 64, 114
1, 305660, Control_c, 0, 64, 127
1, 305803, Note_on_c, 0, 57, 53
1, 305813, Note_on_c, 0, 50, 35
1, 305829, Note_on_c, 0, 47, 22
1, 305838, Note_off_c, 0, 57, 62
1, 305853, Note_off_c, 0, 50, 52
1, 305871, Note_off_c, 0, 47, 45
1, 305912, Note_off_c, 0, 69, 19
1, 305934, Note_on_c, 0, 57, 50
1, 305955, Note_on_c, 0, 50, 15
1, 305971, Note_off_c, 0, 57, 62
1, 306009, Note_off_c, 0, 50, 42
1, 306039, Control_c, 0, 64, 94
1, 306047, Poly_aftertouch_c, 0, 47, 127
1, 306053, Control_c, 0, 64, 76
1, 306067, Note_on_c, 0, 50, 31
1, 306068, Control_c, 0, 64, 63
1, 306071, Note_on_c, 0, 54, 44
1, 306083, Control_c, 0, 64, 56
1, 306083, Control_c, 0, 67, 125
1, 306097, Control_c, 0, 64, 57
1, 306112, Control_c, 0, 64, 59
1, 306117, Note_off_c, 0, 54, 59
1, 306127, Control_c, 0, 64, 62
1, 306142, Control_c, 0, 64, 65
1, 306157, Control_c, 0, 64, 68
1, 306169, Note_off_c, 0, 50, 0
1, 306171, Control_c, 0, 64, 72
1, 306171, Control_c, 0, 67, 125
1, 306184, Poly_aftertouch_c, 0, 47, 0
1, 306186, Control_c, 0, 64, 77
1, 306186, Control_c, 0, 67, 124
1, 306193, Note_on_c, 0, 50, 16
1, 306201, Control_c, 0, 64, 83
1, 306201, Control_c, 0, 67, 124
1, 306204, Note_on_c, 0, 54, 49
1, 306217, Control_c, 0, 64, 91
1, 306217, Control_c, 0, 67, 123
1, 306222, Poly_aftertouch_c, 0, 47, 127
1, 306232, Control_c, 0, 64, 103
1, 306232, Control_c, 0, 67, 122
1, 306247, Control_c, 0, 64, 127
1, 306250, Note_off_c, 0, 54, 59
1, 306271, Poly_aftertouch_c, 0, 47, 0
1, 306276, Control_c, 0, 67, 122
1, 306291, Control_c, 0, 67, 121
1, 306318, Note_off_c, 0, 50, 0
1, 306320, Control_c, 0, 67, 120
1, 306335, Control_c, 0, 67, 120
1, 306337, Note_on_c, 0, 50, 25
1, 306350, Control_c, 0, 67, 110
1, 306358, Note_on_c, 0, 54, 46
1, 306363, Note_off_c, 0, 74, 34
1, 306365, Control_c, 0, 67, 90
1, 306378, Note_on_c, 0, 47, 23
1, 306380, Control_c, 0, 67, 72
1, 306384, Note_off_c, 0, 54, 60
1, 306394, Control_c, 0, 67, 59
1, 306408, Note_off_c, 0, 50, 53
1, 306409, Control_c, 0, 67, 50
1, 306421, Note_off_c, 0, 47, 42
1, 306424, Control_c, 0, 67, 44
1, 306439, Control_c, 0, 67, 40
1, 306454, Control_c, 0, 67, 39
1, 306468, Control_c, 0, 67, 38
1, 306483, Control_c, 0, 67, 37
1, 306498, Control_c, 0, 64, 100
1, 306502, Note_on_c, 0, 72, 62
1, 306519, Note_on_c, 0, 50, 34
1, 306520, Control_c, 0, 64, 81
1, 306520, Control_c, 0, 67, 36
1, 306524, Note_on_c, 0, 55, 43
1, 306533, Note_on_c, 0, 47, 35
1, 306535, Control_c, 0, 64, 66
1, 306550, Control_c, 0, 64, 54
1, 306550, Control_c, 0, 67, 36
1, 306565, Control_c, 0, 64, 44
1, 306578, Note_off_c, 0, 50, 55
1, 306580, Control_c, 0, 64, 47
1, 306580, Control_c, 0, 67, 35
1, 306581, Note_off_c, 0, 55, 56
1, 306588, Note_off_c, 0, 47, 41
1, 306594, Control_c, 0, 64, 52
1, 306609, Control_c, 0, 64, 59
1, 306609, Control_c, 0, 67, 35
1, 306624, Control_c, 0, 64, 64
1, 306639, Control_c, 0, 64, 67
1, 306639, Control_c, 0, 67, 33
1, 306647, Note_on_c, 0, 47, 29
1, 306654, Control_c, 0, 64, 72
1, 306654, Control_c, 0, 67, 33
1, 306660, Note_on_c, 0, 50, 22
1, 306660, Note_on_c, 0, 55, 38
1, 306668, Control_c, 0, 64, 78
1, 306668, Control_c, 0, 67, 28
1, 306683, Control_c, 0, 64, 85
1, 306683, Control_c, 0, 67, 14
1, 306698, Control_c, 0, 64, 95
1, 306698, Control_c, 0, 67, 0
1, 306709, Note_off_c, 0, 55, 59
1, 306712, Note_off_c, 0, 50, 53
1, 306713, Control_c, 0, 64, 115
1, 306719, Note_off_c, 0, 47, 51
1, 306720, Note_on_c, 0, 71, 73
1, 306727, Control_c, 0, 64, 127
1, 306784, Note_off_c, 0, 72, 55
1, 306801, Note_on_c, 0, 47, 28
1, 306803, Note_on_c, 0, 50, 45
1, 306824, Note_on_c, 0, 55, 48
1, 306857, Note_off_c, 0, 50, 57
1, 306859, Note_off_c, 0, 47, 55
1, 306859, Note_off_c, 0, 55, 61
1, 306937, Note_on_c, 0, 69, 76
1, 306955, Note_on_c, 0, 55, 53
1, 306959, Note_on_c, 0, 50, 44
1, 306960, Note_on_c, 0, 47, 36
1, 306996, Note_off_c, 0, 71, 57
1, 306997, Note_off_c, 0, 47, 56
1, 307000, Note_off_c, 0, 55, 59
1, 307001, Note_off_c, 0, 50, 60
1, 307106, Note_on_c, 0, 50, 48
1, 307106, Note_on_c, 0, 47, 41
1, 307115, Note_on_c, 0, 55, 38
1, 307136, Note_off_c, 0, 47, 53
1, 307150, Note_off_c, 0, 55, 51
1, 307153, Note_off_c, 0, 50, 56
1, 307156, Note_on_c, 0, 67, 84
1, 307201, Note_off_c, 0, 69, 62
1, 307231, Note_on_c, 0, 47, 62
1, 307239, Note_on_c, 0, 55, 60
1, 307265, Note_on_c, 0, 50, 39
1, 307275, Note_off_c, 0, 55, 68
1, 307285, Note_off_c, 0, 47, 62
1, 307299, Note_off_c, 0, 50, 51
1, 307337, Note_off_c, 0, 67, 57
1, 307418, Control_c, 0, 64, 94
1, 307431, Note_on_c, 0, 74, 79
1, 307431, Note_on_c, 0, 66, 63
1, 307432, Control_c, 0, 64, 72
1, 307445, Note_on_c, 0, 36, 59
1, 307447, Control_c, 0, 64, 59
1, 307462, Control_c, 0, 64, 38
1, 307477, Control_c, 0, 64, 42
1, 307487, Note_off_c, 0, 36, 63
1, 307491, Control_c, 0, 64, 51
1, 307506, Control_c, 0, 64, 60
1, 307521, Control_c, 0, 64, 66
1, 307536, Control_c, 0, 64, 72
1, 307550, Control_c, 0, 64, 84
1, 307556, Note_off_c, 0, 74, 58
1, 307565, Control_c, 0, 64, 100
1, 307580, Control_c, 0, 64, 127
1, 307608, Note_on_c, 0, 52, 51
1, 307612, Note_on_c, 0, 48, 58
1, 307660, Note_off_c, 0, 48, 60
1, 307660, Note_on_c, 0, 64, 66
1, 307663, Note_on_c, 0, 72, 79
1, 307667, Note_off_c, 0, 52, 59
1, 307705, Note_off_c, 0, 66, 58
1, 307762, Note_off_c, 0, 64, 57
1, 307781, Note_on_c, 0, 48, 48
1, 307785, Note_on_c, 0, 52, 57
1, 307824, Note_off_c, 0, 48, 53
1, 307827, Note_off_c, 0, 52, 60
1, 307833, Control_c, 0, 64, 119
1, 307848, Control_c, 0, 64, 97
1, 307863, Control_c, 0, 64, 81
1, 307863, Control_c, 0, 67, 17
1, 307878, Control_c, 0, 64, 68
1, 307878, Control_c, 0, 67, 29
1, 307893, Control_c, 0, 64, 59
1, 307893, Control_c, 0, 67, 40
1, 307901, Note_on_c, 0, 71, 69
1, 307907, Control_c, 0, 64, 48
1, 307907, Control_c, 0, 67, 49
1, 307917, Note_on_c, 0, 62, 56
1, 307922, Control_c, 0, 64, 47
1, 307922, Control_c, 0, 67, 55
1, 307925, Note_on_c, 0, 52, 48
1, 307933, Note_on_c, 0, 48, 44
1, 307937, Control_c, 0, 64, 50
1, 307937, Control_c, 0, 67, 58
1, 307952, Control_c, 0, 64, 55
1, 307952, Note_off_c, 0, 72, 60
1, 307966, Control_c, 0, 64, 59
1, 307967, Note_off_c, 0, 48, 58
1, 307971, Note_off_c, 0, 52, 60
1, 307981, Control_c, 0, 64, 62
1, 307981, Control_c, 0, 67, 57
1, 307996, Control_c, 0, 64, 65
1, 307996, Control_c, 0, 67, 56
1, 308018, Note_off_c, 0, 62, 60
1, 308018, Control_c, 0, 64, 67
1, 308018, Control_c, 0, 67, 56
1, 308033, Control_c, 0, 64, 71
1, 308033, Control_c, 0, 67, 55
1, 308048, Control_c, 0, 64, 75
1, 308063, Control_c, 0, 64, 80
1, 308077, Control_c, 0, 64, 87
1, 308077, Control_c, 0, 67, 56
1, 308089, Note_on_c, 0, 52, 47
1, 308092, Control_c, 0, 64, 94
1, 308092, Control_c, 0, 67, 56
1, 308095, Note_on_c, 0, 48, 45
1, 308107, Control_c, 0, 64, 103
1, 308107, Control_c, 0, 67, 57
1, 308117, Note_on_c, 0, 69, 66
1, 308122, Control_c, 0, 64, 108
1, 308122, Control_c, 0, 67, 58
1, 308127, Note_off_c, 0, 48, 53
1, 308129, Note_off_c, 0, 52, 58
1, 308135, Note_on_c, 0, 60, 54
1, 308137, Control_c, 0, 64, 111
1, 308137, Control_c, 0, 67, 59
1, 308152, Control_c, 0, 64, 111
1, 308152, Control_c, 0, 67, 60
1, 308157, Note_off_c, 0, 71, 59
1, 308167, Control_c, 0, 67, 61
1, 308181, Control_c, 0, 67, 63
1, 308196, Control_c, 0, 67, 71
1, 308206, Note_off_c, 0, 60, 57
1, 308211, Control_c, 0, 67, 80
1, 308226, Control_c, 0, 64, 111
1, 308226, Control_c, 0, 67, 88
1, 308239, Note_on_c, 0, 48, 51
1, 308241, Control_c, 0, 64, 110
1, 308241, Control_c, 0, 67, 95
1, 308246, Note_on_c, 0, 52, 42
1, 308255, Control_c, 0, 64, 110
1, 308255, Control_c, 0, 67, 104
1, 308264, Note_off_c, 0, 48, 60
1, 308270, Control_c, 0, 64, 108
1, 308270, Control_c, 0, 67, 112
1, 308285, Control_c, 0, 64, 107
1, 308285, Control_c, 0, 67, 122
1, 308289, Note_off_c, 0, 52, 50
1, 308300, Control_c, 0, 64, 105
1, 308300, Control_c, 0, 67, 127
1, 308314, Control_c, 0, 64, 102
1, 308329, Control_c, 0, 64, 99
1, 308344, Control_c, 0, 64, 92
1, 308359, Control_c, 0, 64, 82
1, 308373, Control_c, 0, 64, 70
1, 308388, Control_c, 0, 64, 58
1, 308396, Note_off_c, 0, 69, 37
1, 308403, Control_c, 0, 64, 46
1, 308406, Note_on_c, 0, 67, 61
1, 308418, Control_c, 0, 64, 47
1, 308420, Note_on_c, 0, 59, 50
1, 308426, Note_on_c, 0, 38, 48
1, 308433, Control_c, 0, 64, 52
1, 308447, Control_c, 0, 64, 58
1, 308462, Note_off_c, 0, 38, 63
1, 308462, Control_c, 0, 64, 63
1, 308477, Control_c, 0, 64, 67
1, 308492, Control_c, 0, 64, 71
1, 308507, Control_c, 0, 64, 77
1, 308522, Control_c, 0, 64, 84
1, 308537, Control_c, 0, 64, 92
1, 308542, Note_off_c, 0, 67, 60
1, 308551, Control_c, 0, 64, 102
1, 308566, Control_c, 0, 64, 111
1, 308574, Note_off_c, 0, 59, 36
1, 308581, Control_c, 0, 64, 119
1, 308626, Control_c, 0, 64, 121
1, 308635, Note_on_c, 0, 50, 21
1, 308656, Control_c, 0, 64, 123
1, 308679, Note_off_c, 0, 50, 48
1, 308757, Note_on_c, 0, 55, 46
1, 308767, Control_c, 0, 64, 121
1, 308774, Note_on_c, 0, 50, 41
1, 308782, Control_c, 0, 64, 117
1, 308796, Control_c, 0, 64, 114
1, 308800, Note_off_c, 0, 55, 63
1, 308805, Note_off_c, 0, 50, 56
1, 308811, Control_c, 0, 64, 112
1, 308826, Control_c, 0, 64, 110
1, 308841, Control_c, 0, 64, 107
1, 308856, Control_c, 0, 64, 104
1, 308870, Control_c, 0, 64, 99
1, 308885, Control_c, 0, 64, 88
1, 308900, Control_c, 0, 64, 75
1, 308915, Control_c, 0, 64, 64
1, 308930, Control_c, 0, 64, 54
1, 308944, Note_on_c, 0, 71, 59
1, 308945, Control_c, 0, 64, 53
1, 308959, Note_on_c, 0, 62, 52
1, 308960, Control_c, 0, 64, 56
1, 308962, Note_on_c, 0, 38, 47
1, 308975, Control_c, 0, 64, 60
1, 308989, Control_c, 0, 64, 63
1, 309002, Note_off_c, 0, 38, 61
1, 309004, Control_c, 0, 64, 67
1, 309018, Control_c, 0, 64, 71
1, 309033, Control_c, 0, 64, 78
1, 309048, Control_c, 0, 64, 85
1, 309062, Control_c, 0, 64, 94
1, 309077, Control_c, 0, 64, 105
1, 309092, Control_c, 0, 64, 117
1, 309097, Note_off_c, 0, 62, 57
1, 309107, Control_c, 0, 64, 127
1, 309167, Note_on_c, 0, 54, 40
1, 309183, Note_off_c, 0, 71, 39
1, 309198, Note_on_c, 0, 50, 34
1, 309222, Note_off_c, 0, 54, 53
1, 309246, Note_off_c, 0, 50, 47
1, 309326, Note_on_c, 0, 54, 40
1, 309345, Note_on_c, 0, 50, 33
1, 309381, Note_off_c, 0, 54, 57
1, 309393, Note_off_c, 0, 50, 55
1, 309423, Note_on_c, 0, 69, 49
1, 309437, Note_on_c, 0, 60, 40
1, 309482, Note_off_c, 0, 60, 60
1, 309530, Control_c, 0, 64, 118
1, 309531, Note_off_c, 0, 69, 51
1, 309545, Control_c, 0, 64, 107
1, 309560, Control_c, 0, 64, 95
1, 309574, Control_c, 0, 64, 81
1, 309589, Control_c, 0, 64, 67
1, 309604, Control_c, 0, 64, 51
1, 309614, Note_on_c, 0, 43, 41
1, 309619, Control_c, 0, 64, 22
1, 309623, Note_on_c, 0, 67, 49
1, 309634, Control_c, 0, 64, 9
1, 309637, Note_on_c, 0, 59, 43
1, 309648, Control_c, 0, 64, 18
1, 309663, Control_c, 0, 64, 33
1, 309678, Control_c, 0, 64, 47
1, 309693, Control_c, 0, 64, 59
1, 309705, Note_off_c, 0, 43, 62
1, 309708, Control_c, 0, 64, 64
1, 309708, Control_c, 0, 67, 127
1, 309723, Control_c, 0, 64, 69
1, 309723, Control_c, 0, 67, 126
1, 309738, Control_c, 0, 64, 76
1, 309738, Control_c, 0, 67, 125
1, 309753, Control_c, 0, 64, 86
1, 309753, Control_c, 0, 67, 125
1, 309768, Control_c, 0, 64, 102
1, 309768, Control_c, 0, 67, 124
1, 309783, Control_c, 0, 64, 127
1, 309783, Control_c, 0, 67, 124
1, 309797, Control_c, 0, 67, 123
1, 309812, Control_c, 0, 67, 122
1, 309827, Control_c, 0, 67, 122
1, 309835, Note_off_c, 0, 59, 38
1, 309842, Control_c, 0, 67, 121
1, 309872, Control_c, 0, 67, 120
1, 309886, Control_c, 0, 67, 120
1, 309892, Note_on_c, 0, 59, 28
1, 309892, Note_off_c, 0, 67, 56
1, 309908, Note_on_c, 0, 50, 38
1, 309916, Control_c, 0, 67, 119
1, 309928, Note_on_c, 0, 55, 23
1, 309955, Note_off_c, 0, 50, 56
1, 309966, Note_off_c, 0, 59, 52
1, 309970, Note_off_c, 0, 55, 48
1, 310005, Control_c, 0, 67, 119
1, 310034, Control_c, 0, 67, 118
1, 310054, Note_on_c, 0, 59, 32
1, 310064, Control_c, 0, 67, 117
1, 310088, Note_on_c, 0, 55, 24
1, 310093, Control_c, 0, 67, 117
1, 310103, Poly_aftertouch_c, 0, 50, 127
1, 310108, Control_c, 0, 67, 116
1, 310115, Note_off_c, 0, 59, 51
1, 310125, Note_off_c, 0, 55, 48
1, 310137, Control_c, 0, 67, 115
1, 310165, Poly_aftertouch_c, 0, 50, 0
1, 310203, Poly_aftertouch_c, 0, 50, 127
1, 310205, Note_on_c, 0, 59, 27
1, 310215, Note_on_c, 0, 55, 41
1, 310228, Control_c, 0, 67, 115
1, 310263, Note_off_c, 0, 55, 58
1, 310272, Note_off_c, 0, 59, 52
1, 310280, Control_c, 0, 67, 114
1, 310324, Control_c, 0, 67, 114
1, 310350, Poly_aftertouch_c, 0, 50, 0
1, 310368, Control_c, 0, 67, 113
1, 310375, Note_on_c, 0, 50, 6
1, 310391, Note_on_c, 0, 59, 32
1, 310391, Note_on_c, 0, 55, 36
1, 310425, Note_off_c, 0, 59, 52
1, 310432, Note_off_c, 0, 55, 48
1, 310501, Note_off_c, 0, 50, 0
1, 310539, Poly_aftertouch_c, 0, 50, 127
1, 310550, Note_on_c, 0, 59, 40
1, 310554, Note_on_c, 0, 55, 42
1, 310593, Note_off_c, 0, 55, 57
1, 310596, Note_off_c, 0, 59, 56
1, 310638, Poly_aftertouch_c, 0, 50, 0
1, 310650, Control_c, 0, 67, 114
1, 310676, Poly_aftertouch_c, 0, 50, 127
1, 310692, Note_on_c, 0, 72, 59
1, 310700, Note_on_c, 0, 55, 40
1, 310713, Note_on_c, 0, 59, 24
1, 310738, Note_off_c, 0, 55, 55
1, 310754, Note_off_c, 0, 59, 48
1, 310842, Control_c, 0, 67, 114
1, 310844, Note_on_c, 0, 55, 43
1, 310853, Note_on_c, 0, 59, 33
1, 310872, Control_c, 0, 67, 115
1, 310887, Control_c, 0, 67, 116
1, 310888, Note_off_c, 0, 55, 55
1, 310900, Note_off_c, 0, 59, 48
1, 310902, Control_c, 0, 67, 118
1, 310916, Control_c, 0, 67, 120
1, 310921, Note_on_c, 0, 71, 66
1, 310931, Control_c, 0, 67, 122
1, 310946, Control_c, 0, 67, 124
1, 310960, Control_c, 0, 67, 125
1, 310974, Note_off_c, 0, 72, 56
1, 310975, Control_c, 0, 67, 127
1, 310990, Note_on_c, 0, 55, 44
1, 310999, Note_on_c, 0, 59, 35
1, 311038, Note_off_c, 0, 55, 62
1, 311043, Note_off_c, 0, 59, 58
1, 311106, Poly_aftertouch_c, 0, 50, 0
1, 311142, Poly_aftertouch_c, 0, 50, 127
1, 311145, Note_on_c, 0, 55, 48
1, 311154, Note_on_c, 0, 59, 44
1, 311154, Note_off_c, 0, 71, 61
1, 311157, Note_on_c, 0, 70, 69
1, 311189, Note_off_c, 0, 55, 59
1, 311193, Note_off_c, 0, 59, 58
1, 311260, Poly_aftertouch_c, 0, 50, 0
1, 311282, Note_on_c, 0, 50, 13
1, 311304, Note_off_c, 0, 70, 62
1, 311306, Note_on_c, 0, 55, 45
1, 311312, Note_on_c, 0, 59, 35
1, 311342, Note_off_c, 0, 55, 58
1, 311343, Note_off_c, 0, 59, 54
1, 311368, Note_on_c, 0, 71, 69
1, 311414, Note_off_c, 0, 71, 63
1, 311429, Note_off_c, 0, 50, 0
1, 311448, Note_on_c, 0, 50, 27
1, 311461, Note_on_c, 0, 55, 48
1, 311461, Note_on_c, 0, 59, 41
1, 311485, Note_off_c, 0, 59, 60
1, 311489, Note_off_c, 0, 55, 63
1, 311498, Note_off_c, 0, 50, 63
1, 311680, Control_c, 0, 64, 94
1, 311682, Note_on_c, 0, 76, 67
1, 311695, Control_c, 0, 64, 73
1, 311709, Control_c, 0, 64, 58
1, 311715, Note_on_c, 0, 36, 51
1, 311724, Control_c, 0, 64, 24
1, 311739, Control_c, 0, 64, 0
1, 311762, Control_c, 0, 64, 25
1, 311777, Control_c, 0, 64, 48
1, 311791, Control_c, 0, 64, 62
1, 311802, Note_off_c, 0, 36, 62
1, 311806, Control_c, 0, 64, 69
1, 311809, Note_on_c, 0, 83, 69
1, 311822, Control_c, 0, 64, 78
1, 311836, Control_c, 0, 64, 97
1, 311851, Control_c, 0, 64, 127
1, 311990, Note_on_c, 0, 52, 46
1, 312008, Note_on_c, 0, 59, 45
1, 312028, Note_on_c, 0, 48, 22
1, 312045, Note_off_c, 0, 59, 61
1, 312047, Note_off_c, 0, 52, 54
1, 312078, Note_off_c, 0, 48, 45
1, 312084, Note_on_c, 0, 81, 59
1, 312102, Note_off_c, 0, 83, 56
1, 312149, Note_on_c, 0, 52, 38
1, 312152, Note_on_c, 0, 59, 44
1, 312153, Note_on_c, 0, 48, 22
1, 312179, Note_off_c, 0, 59, 59
1, 312191, Note_off_c, 0, 52, 55
1, 312206, Note_off_c, 0, 48, 46
1, 312289, Note_on_c, 0, 59, 36
1, 312299, Note_on_c, 0, 48, 33
1, 312301, Note_on_c, 0, 80, 57
1, 312316, Note_on_c, 0, 52, 39
1, 312320, Note_off_c, 0, 81, 57
1, 312331, Note_off_c, 0, 59, 58
1, 312350, Note_off_c, 0, 48, 53
1, 312352, Note_off_c, 0, 52, 52
1, 312463, Note_on_c, 0, 59, 34
1, 312471, Note_on_c, 0, 48, 27
1, 312479, Note_on_c, 0, 52, 32
1, 312511, Note_off_c, 0, 59, 49
1, 312515, Note_off_c, 0, 52, 55
1, 312522, Note_off_c, 0, 48, 48
1, 312525, Note_off_c, 0, 80, 59
1, 312528, Note_on_c, 0, 81, 61
1, 312561, Note_off_c, 0, 81, 66
1, 312585, Note_off_c, 0, 76, 52
1, 312621, Note_on_c, 0, 52, 45
1, 312635, Note_on_c, 0, 59, 37
1, 312638, Note_on_c, 0, 48, 34
1, 312672, Note_off_c, 0, 52, 57
1, 312674, Note_off_c, 0, 59, 46
1, 312675, Note_off_c, 0, 48, 51
1, 312717, Control_c, 0, 64, 113
1, 312732, Control_c, 0, 64, 87
1, 312747, Control_c, 0, 64, 71
1, 312758, Note_on_c, 0, 71, 61
1, 312761, Control_c, 0, 64, 57
1, 312775, Note_on_c, 0, 57, 44
1, 312776, Control_c, 0, 64, 42
1, 312791, Control_c, 0, 64, 41
1, 312799, Note_on_c, 0, 48, 30
1, 312803, Note_on_c, 0, 52, 35
1, 312806, Control_c, 0, 64, 47
1, 312821, Control_c, 0, 64, 54
1, 312827, Note_off_c, 0, 57, 57
1, 312834, Note_off_c, 0, 52, 54
1, 312835, Note_off_c, 0, 48, 50
1, 312835, Control_c, 0, 64, 61
1, 312850, Control_c, 0, 64, 64
1, 312865, Control_c, 0, 64, 67
1, 312880, Control_c, 0, 64, 70
1, 312895, Control_c, 0, 64, 73
1, 312910, Control_c, 0, 64, 76
1, 312910, Control_c, 0, 67, 127
1, 312924, Control_c, 0, 64, 81
1, 312924, Control_c, 0, 67, 122
1, 312931, Note_on_c, 0, 57, 41
1, 312939, Control_c, 0, 64, 87
1, 312939, Control_c, 0, 67, 118
1, 312942, Note_on_c, 0, 52, 42
1, 312944, Note_on_c, 0, 48, 32
1, 312954, Control_c, 0, 64, 98
1, 312954, Control_c, 0, 67, 114
1, 312969, Control_c, 0, 64, 113
1, 312969, Control_c, 0, 67, 110
1, 312971, Note_off_c, 0, 52, 53
1, 312972, Note_on_c, 0, 69, 62
1, 312974, Note_off_c, 0, 57, 56
1, 312980, Note_off_c, 0, 71, 52
1, 312982, Note_off_c, 0, 48, 50
1, 312984, Control_c, 0, 64, 127
1, 312984, Control_c, 0, 67, 105
1, 312999, Control_c, 0, 67, 100
1, 313014, Control_c, 0, 67, 97
1, 313028, Control_c, 0, 67, 95
1, 313043, Control_c, 0, 67, 94
1, 313084, Note_on_c, 0, 52, 48
1, 313093, Note_on_c, 0, 57, 39
1, 313096, Note_on_c, 0, 48, 36
1, 313125, Note_off_c, 0, 52, 57
1, 313130, Note_off_c, 0, 57, 56
1, 313132, Control_c, 0, 67, 95
1, 313133, Note_off_c, 0, 48, 50
1, 313176, Control_c, 0, 67, 95
1, 313192, Note_off_c, 0, 69, 55
1, 313201, Note_on_c, 0, 68, 63
1, 313206, Control_c, 0, 67, 96
1, 313238, Note_on_c, 0, 48, 34
1, 313242, Note_on_c, 0, 52, 36
1, 313282, Note_off_c, 0, 52, 54
1, 313288, Note_off_c, 0, 48, 49
1, 313297, Note_off_c, 0, 68, 60
1, 313370, Poly_aftertouch_c, 0, 57, 0
1, 313391, Note_on_c, 0, 52, 41
1, 313392, Note_on_c, 0, 57, 12
1, 313425, Note_on_c, 0, 69, 64
1, 313426, Note_off_c, 0, 52, 52
1, 313435, Poly_aftertouch_c, 0, 48, 127
1, 313449, Note_off_c, 0, 57, 46
1, 313455, Note_off_c, 0, 69, 68
1, 313496, Control_c, 0, 67, 97
1, 313500, Poly_aftertouch_c, 0, 48, 0
1, 313519, Note_on_c, 0, 48, 24
1, 313538, Note_on_c, 0, 57, 35
1, 313568, Note_off_c, 0, 57, 54
1, 313571, Control_c, 0, 67, 97
1, 313575, Note_off_c, 0, 48, 60
1, 313591, Poly_aftertouch_c, 0, 52, 127
1, 313600, Control_c, 0, 67, 98
1, 313618, Poly_aftertouch_c, 0, 52, 0
1, 313689, Control_c, 0, 67, 98
1, 313719, Control_c, 0, 64, 91
1, 313723, Note_on_c, 0, 74, 58
1, 313733, Control_c, 0, 64, 72
1, 313748, Control_c, 0, 64, 59
1, 313763, Control_c, 0, 64, 40
1, 313763, Control_c, 0, 67, 99
1, 313778, Note_on_c, 0, 35, 41
1, 313778, Control_c, 0, 64, 42
1, 313792, Control_c, 0, 64, 50
1, 313807, Control_c, 0, 64, 59
1, 313807, Control_c, 0, 67, 100
1, 313822, Control_c, 0, 64, 65
1, 313822, Control_c, 0, 67, 100
1, 313837, Control_c, 0, 64, 72
1, 313840, Note_on_c, 0, 81, 65
1, 313852, Control_c, 0, 64, 82
1, 313853, Note_off_c, 0, 35, 60
1, 313866, Control_c, 0, 64, 98
1, 313881, Control_c, 0, 64, 127
1, 313896, Control_c, 0, 67, 100
1, 314039, Note_on_c, 0, 57, 50
1, 314055, Note_on_c, 0, 50, 28
1, 314075, Note_off_c, 0, 57, 62
1, 314094, Note_on_c, 0, 79, 59
1, 314102, Note_off_c, 0, 81, 59
1, 314105, Note_off_c, 0, 50, 45
1, 314141, Control_c, 0, 67, 99
1, 314153, Poly_aftertouch_c, 0, 47, 0
1, 314181, Note_on_c, 0, 50, 37
1, 314181, Note_on_c, 0, 57, 47
1, 314189, Poly_aftertouch_c, 0, 47, 127
1, 314224, Note_off_c, 0, 57, 61
1, 314237, Note_off_c, 0, 50, 55
1, 314245, Control_c, 0, 67, 98
1, 314248, Poly_aftertouch_c, 0, 47, 0
1, 314275, Control_c, 0, 67, 98
1, 314290, Note_on_c, 0, 78, 60
1, 314313, Note_off_c, 0, 79, 58
1, 314320, Control_c, 0, 67, 97
1, 314334, Note_on_c, 0, 57, 45
1, 314342, Note_on_c, 0, 50, 33
1, 314348, Note_on_c, 0, 47, 30
1, 314364, Control_c, 0, 67, 97
1, 314376, Note_off_c, 0, 57, 57
1, 314379, Control_c, 0, 67, 96
1, 314388, Note_off_c, 0, 50, 54
1, 314397, Note_off_c, 0, 47, 48
1, 314408, Control_c, 0, 67, 95
1, 314438, Control_c, 0, 67, 95
1, 314453, Control_c, 0, 67, 94
1, 314468, Control_c, 0, 67, 93
1, 314475, Note_on_c, 0, 50, 37
1, 314482, Control_c, 0, 67, 92
1, 314486, Note_on_c, 0, 47, 32
1, 314493, Note_on_c, 0, 57, 42
1, 314497, Control_c, 0, 67, 92
1, 314512, Control_c, 0, 67, 91
1, 314526, Note_off_c, 0, 57, 59
1, 314527, Control_c, 0, 67, 90
1, 314530, Note_off_c, 0, 47, 55
1, 314534, Note_on_c, 0, 79, 70
1, 314534, Note_off_c, 0, 50, 55
1, 314542, Control_c, 0, 67, 90
1, 314546, Note_off_c, 0, 78, 60
1, 314556, Control_c, 0, 67, 88
1, 314571, Control_c, 0, 67, 77
1, 314586, Control_c, 0, 67, 61
1, 314590, Note_off_c, 0, 79, 63
1, 314600, Control_c, 0, 67, 45
1, 314615, Control_c, 0, 67, 32
1, 314626, Note_on_c, 0, 57, 55
1, 314628, Note_off_c, 0, 74, 47
1, 314630, Control_c, 0, 67, 21
1, 314639, Note_on_c, 0, 50, 47
1, 314645, Control_c, 0, 67, 13
1, 314651, Note_on_c, 0, 47, 43
1, 314660, Control_c, 0, 67, 9
1, 314665, Note_off_c, 0, 57, 63
1, 314675, Control_c, 0, 67, 0
1, 314685, Note_off_c, 0, 47, 57
1, 314695, Note_off_c, 0, 50, 57
1, 314783, Note_on_c, 0, 72, 67
1, 314786, Control_c, 0, 64, 102
1, 314801, Control_c, 0, 64, 76
1, 314802, Note_on_c, 0, 47, 42
1, 314806, Note_on_c, 0, 55, 53
1, 314814, Note_on_c, 0, 50, 43
1, 314815, Control_c, 0, 64, 59
1, 314830, Control_c, 0, 64, 31
1, 314845, Control_c, 0, 64, 23
1, 314859, Note_off_c, 0, 50, 58
1, 314860, Note_off_c, 0, 47, 58
1, 314860, Control_c, 0, 64, 33
1, 314865, Note_off_c, 0, 55, 57
1, 314875, Control_c, 0, 64, 47
1, 314889, Control_c, 0, 64, 59
1, 314904, Control_c, 0, 64, 65
1, 314919, Control_c, 0, 64, 70
1, 314934, Control_c, 0, 64, 77
1, 314946, Note_on_c, 0, 50, 53
1, 314946, Note_on_c, 0, 55, 48
1, 314949, Control_c, 0, 64, 87
1, 314954, Note_on_c, 0, 47, 42
1, 314963, Control_c, 0, 64, 101
1, 314978, Control_c, 0, 64, 127
1, 314999, Note_off_c, 0, 55, 57
1, 315004, Note_off_c, 0, 50, 55
1, 315006, Note_off_c, 0, 47, 56
1, 315008, Note_on_c, 0, 71, 76
1, 315077, Note_off_c, 0, 72, 54
1, 315107, Note_on_c, 0, 55, 54
1, 315108, Note_on_c, 0, 50, 43
1, 315120, Note_on_c, 0, 47, 48
1, 315161, Note_off_c, 0, 55, 52
1, 315164, Note_off_c, 0, 50, 57
1, 315166, Note_off_c, 0, 47, 58
1, 315261, Note_on_c, 0, 69, 81
1, 315266, Note_on_c, 0, 55, 52
1, 315268, Note_on_c, 0, 47, 56
1, 315268, Note_on_c, 0, 50, 54
1, 315320, Note_off_c, 0, 50, 56
1, 315329, Note_off_c, 0, 47, 51
1, 315337, Note_off_c, 0, 55, 56
1, 315339, Note_off_c, 0, 71, 54
1, 315410, Note_on_c, 0, 55, 59
1, 315413, Note_on_c, 0, 50, 54
1, 315425, Note_on_c, 0, 47, 49
1, 315478, Note_off_c, 0, 47, 58
1, 315479, Note_off_c, 0, 55, 61
1, 315490, Note_off_c, 0, 50, 59
1, 315511, Note_on_c, 0, 67, 80
1, 315564, Note_off_c, 0, 69, 61
1, 315610, Note_on_c, 0, 55, 74
1, 315613, Note_on_c, 0, 50, 67
1, 315613, Note_on_c, 0, 47, 65
1, 315638, Note_off_c, 0, 67, 62
1, 315646, Note_off_c, 0, 55, 66
1, 315652, Note_off_c, 0, 50, 63
1, 315672, Note_off_c, 0, 47, 61
1, 315862, Note_on_c, 0, 74, 63
1, 315862, Note_on_c, 0, 78, 84
1, 315873, Note_on_c, 0, 66, 67
1, 315876, Control_c, 0, 64, 89
1, 315884, Note_on_c, 0, 48, 66
1, 315890, Control_c, 0, 64, 70
1, 315894, Note_on_c, 0, 36, 60
1, 315905, Control_c, 0, 64, 57
1, 315920, Control_c, 0, 64, 38
1, 315935, Control_c, 0, 64, 39
1, 315950, Control_c, 0, 64, 48
1, 315965, Note_off_c, 0, 36, 63
1, 315965, Control_c, 0, 64, 59
1, 315975, Note_off_c, 0, 74, 63
1, 315979, Control_c, 0, 64, 66
1, 315994, Control_c, 0, 64, 73
1, 315995, Note_off_c, 0, 48, 63
1, 316009, Control_c, 0, 64, 88
1, 316024, Control_c, 0, 64, 127
1, 316037, Note_off_c, 0, 78, 64
1, 316075, Note_off_c, 0, 66, 62
1, 316130, Note_on_c, 0, 55, 62
1, 316138, Note_on_c, 0, 52, 47
1, 316139, Note_on_c, 0, 48, 52
1, 316178, Note_off_c, 0, 52, 62
1, 316182, Note_off_c, 0, 55, 57
1, 316187, Note_off_c, 0, 48, 59
1, 316189, Note_on_c, 0, 76, 78
1, 316195, Note_on_c, 0, 72, 65
1, 316198, Note_on_c, 0, 64, 66
1, 316272, Note_off_c, 0, 72, 61
1, 316296, Note_on_c, 0, 52, 51
1, 316304, Note_on_c, 0, 55, 60
1, 316306, Note_off_c, 0, 76, 62
1, 316331, Note_on_c, 0, 48, 21
1, 316331, Note_off_c, 0, 64, 59
1, 316341, Note_off_c, 0, 55, 62
1, 316377, Note_off_c, 0, 52, 61
1, 316378, Note_off_c, 0, 48, 39
1, 316431, Control_c, 0, 64, 92
1, 316446, Control_c, 0, 64, 73
1, 316454, Note_on_c, 0, 74, 69
1, 316460, Note_on_c, 0, 71, 54
1, 316460, Control_c, 0, 64, 62
1, 316468, Note_on_c, 0, 56, 57
1, 316473, Note_on_c, 0, 62, 54
1, 316475, Control_c, 0, 64, 47
1, 316487, Note_on_c, 0, 48, 49
1, 316490, Control_c, 0, 64, 42
1, 316505, Control_c, 0, 64, 47
1, 316506, Note_on_c, 0, 52, 26
1, 316520, Control_c, 0, 64, 55
1, 316534, Control_c, 0, 64, 62
1, 316536, Note_off_c, 0, 71, 62
1, 316539, Note_off_c, 0, 48, 54
1, 316549, Control_c, 0, 64, 66
1, 316553, Note_off_c, 0, 56, 57
1, 316555, Note_off_c, 0, 52, 47
1, 316564, Control_c, 0, 64, 71
1, 316568, Note_off_c, 0, 74, 62
1, 316579, Control_c, 0, 64, 79
1, 316590, Note_off_c, 0, 62, 59
1, 316594, Control_c, 0, 64, 88
1, 316610, Control_c, 0, 64, 98
1, 316624, Control_c, 0, 64, 110
1, 316636, Note_on_c, 0, 52, 51
1, 316636, Note_on_c, 0, 57, 59
1, 316639, Control_c, 0, 64, 127
1, 316654, Control_c, 0, 67, 19
1, 316669, Control_c, 0, 67, 35
1, 316683, Control_c, 0, 67, 48
1, 316696, Note_off_c, 0, 57, 51
1, 316698, Control_c, 0, 67, 60
1, 316700, Note_off_c, 0, 52, 54
1, 316704, Poly_aftertouch_c, 0, 48, 127
1, 316705, Note_on_c, 0, 72, 67
1, 316709, Note_on_c, 0, 69, 57
1, 316710, Note_on_c, 0, 60, 60
1, 316713, Control_c, 0, 67, 72
1, 316728, Control_c, 0, 67, 83
1, 316733, Poly_aftertouch_c, 0, 48, 0
1, 316743, Control_c, 0, 67, 94
1, 316758, Control_c, 0, 67, 104
1, 316773, Control_c, 0, 67, 113
1, 316776, Note_off_c, 0, 60, 54
1, 316780, Note_off_c, 0, 69, 53
1, 316788, Control_c, 0, 67, 122
1, 316802, Control_c, 0, 67, 127
1, 316816, Note_on_c, 0, 48, 48
1, 316820, Note_off_c, 0, 72, 49
1, 316824, Note_on_c, 0, 57, 42
1, 316856, Note_off_c, 0, 48, 62
1, 316862, Note_off_c, 0, 57, 47
1, 316875, Poly_aftertouch_c, 0, 52, 127
1, 316904, Poly_aftertouch_c, 0, 52, 0
1, 316906, Control_c, 0, 64, 121
1, 316921, Control_c, 0, 64, 113
1, 316936, Control_c, 0, 64, 106
1, 316950, Control_c, 0, 64, 96
1, 316965, Control_c, 0, 64, 82
1, 316980, Control_c, 0, 64, 68
1, 317002, Control_c, 0, 64, 52
1, 317017, Control_c, 0, 64, 0
1, 317024, Note_on_c, 0, 71, 59
1, 317047, Note_on_c, 0, 59, 49
1, 317053, Note_on_c, 0, 67, 47
1, 317054, Note_on_c, 0, 38, 50
1, 317076, Control_c, 0, 64, 38
1, 317091, Control_c, 0, 64, 55
1, 317092, Note_off_c, 0, 38, 60
1, 317106, Control_c, 0, 64, 63
1, 317121, Control_c, 0, 64, 67
1, 317136, Control_c, 0, 64, 72
1, 317150, Control_c, 0, 64, 80
1, 317162, Note_off_c, 0, 67, 58
1, 317165, Control_c, 0, 64, 88
1, 317180, Control_c, 0, 64, 97
1, 317185, Note_off_c, 0, 59, 38
1, 317195, Control_c, 0, 64, 107
1, 317209, Control_c, 0, 64, 127
1, 317213, Note_off_c, 0, 71, 54
1, 317254, Note_on_c, 0, 55, 54
1, 317271, Note_on_c, 0, 50, 44
1, 317306, Note_off_c, 0, 55, 55
1, 317318, Note_off_c, 0, 50, 57
1, 317433, Note_on_c, 0, 50, 48
1, 317438, Note_on_c, 0, 55, 35
1, 317460, Note_off_c, 0, 50, 61
1, 317464, Note_off_c, 0, 55, 55
1, 317522, Control_c, 0, 64, 121
1, 317537, Control_c, 0, 64, 113
1, 317552, Control_c, 0, 64, 107
1, 317567, Control_c, 0, 64, 101
1, 317581, Control_c, 0, 64, 91
1, 317596, Control_c, 0, 64, 78
1, 317611, Control_c, 0, 64, 64
1, 317625, Control_c, 0, 64, 47
1, 317630, Note_on_c, 0, 38, 45
1, 317631, Note_on_c, 0, 72, 52
1, 317637, Note_on_c, 0, 66, 39
1, 317640, Control_c, 0, 64, 17
1, 317652, Note_on_c, 0, 60, 35
1, 317655, Control_c, 0, 64, 16
1, 317670, Control_c, 0, 64, 31
1, 317685, Control_c, 0, 64, 48
1, 317691, Note_off_c, 0, 38, 63
1, 317700, Control_c, 0, 64, 62
1, 317715, Control_c, 0, 64, 67
1, 317730, Control_c, 0, 64, 74
1, 317740, Note_off_c, 0, 72, 56
1, 317752, Control_c, 0, 64, 83
1, 317767, Control_c, 0, 64, 94
1, 317781, Control_c, 0, 64, 110
1, 317795, Note_off_c, 0, 66, 58
1, 317796, Control_c, 0, 64, 127
1, 317823, Note_off_c, 0, 60, 55
1, 317888, Note_on_c, 0, 54, 45
1, 317904, Note_on_c, 0, 50, 40
1, 317950, Note_off_c, 0, 54, 52
1, 317958, Note_off_c, 0, 50, 53
1, 318147, Note_on_c, 0, 54, 35
1, 318147, Note_on_c, 0, 50, 31
1, 318222, Note_off_c, 0, 50, 50
1, 318239, Note_on_c, 0, 69, 51
1, 318260, Note_off_c, 0, 54, 35
1, 318320, Note_off_c, 0, 69, 56
1, 318419, Control_c, 0, 64, 119
1, 318434, Control_c, 0, 64, 107
1, 318448, Control_c, 0, 64, 94
1, 318463, Control_c, 0, 64, 83
1, 318478, Control_c, 0, 64, 70
1, 318484, Note_on_c, 0, 67, 43
1, 318501, Control_c, 0, 64, 58
1, 318502, Note_on_c, 0, 59, 35
1, 318503, Note_on_c, 0, 55, 36
1, 318515, Note_on_c, 0, 43, 33
1, 318516, Control_c, 0, 64, 22
1, 318530, Control_c, 0, 64, 0
1, 318532, Note_on_c, 0, 50, 22
1, 318590, Control_c, 0, 64, 33
1, 318604, Control_c, 0, 64, 52
1, 318612, Note_off_c, 0, 67, 55
1, 318619, Control_c, 0, 64, 62
1, 318634, Control_c, 0, 64, 67
1, 318648, Control_c, 0, 64, 73
1, 318662, Note_off_c, 0, 55, 36
1, 318663, Control_c, 0, 64, 81
1, 318675, Note_off_c, 0, 59, 37
1, 318678, Control_c, 0, 64, 91
1, 318693, Control_c, 0, 64, 104
1, 318708, Control_c, 0, 64, 127
1, 318813, Note_off_c, 0, 43, 35
1, 318869, Note_on_c, 0, 55, 18
1, 318891, Poly_aftertouch_c, 0, 67, 127
1, 318925, Poly_aftertouch_c, 0, 67, 0
1, 318934, Note_off_c, 0, 55, 43
1, 319034, Note_on_c, 0, 55, 32
1, 319037, Note_on_c, 0, 67, 47
1, 319067, Note_off_c, 0, 50, 36
1, 319080, Note_off_c, 0, 67, 57
1, 319084, Note_off_c, 0, 55, 51
1, 319198, Note_on_c, 0, 55, 35
1, 319202, Note_on_c, 0, 67, 37
1, 319241, Note_off_c, 0, 67, 51
1, 319265, Note_off_c, 0, 55, 46
1, 319364, Poly_aftertouch_c, 0, 55, 127
1, 319374, Note_on_c, 0, 67, 29
1, 319375, Note_on_c, 0, 55, 15
1, 319416, Note_off_c, 0, 67, 49
1, 319485, Note_off_c, 0, 55, 0
1, 319502, Note_on_c, 0, 55, 30
1, 319512, Note_on_c, 0, 67, 36
1, 319557, Note_off_c, 0, 67, 54
1, 319569, Note_off_c, 0, 55, 50
1, 319673, Note_on_c, 0, 55, 30
1, 319686, Note_on_c, 0, 67, 34
1, 319736, Note_off_c, 0, 67, 46
1, 319748, Note_off_c, 0, 55, 44
1, 319829, Note_on_c, 0, 55, 31
1, 319847, Note_on_c, 0, 67, 32
1, 319888, Note_off_c, 0, 55, 53
1, 319891, Note_off_c, 0, 67, 51
1, 320013, Note_on_c, 0, 55, 29
1, 320023, Note_on_c, 0, 67, 25
1, 320056, Note_off_c, 0, 55, 48
1, 320064, Note_off_c, 0, 67, 50
1, 320183, Note_on_c, 0, 55, 41
1, 320186, Note_on_c, 0, 67, 39
1, 320193, Note_on_c, 0, 47, 44
1, 320219, Control_c, 0, 64, 108
1, 320232, Note_off_c, 0, 67, 54
1, 320234, Control_c, 0, 64, 93
1, 320235, Note_off_c, 0, 55, 53
1, 320249, Control_c, 0, 64, 80
1, 320264, Control_c, 0, 64, 69
1, 320279, Control_c, 0, 64, 60
1, 320294, Control_c, 0, 64, 48
1, 320308, Control_c, 0, 64, 41
1, 320323, Control_c, 0, 64, 41
1, 320338, Control_c, 0, 64, 43
1, 320353, Control_c, 0, 64, 46
1, 320364, Note_on_c, 0, 67, 40
1, 320368, Note_on_c, 0, 55, 37
1, 320368, Control_c, 0, 64, 50
1, 320383, Control_c, 0, 64, 55
1, 320398, Control_c, 0, 64, 60
1, 320408, Note_off_c, 0, 67, 58
1, 320410, Note_off_c, 0, 55, 50
1, 320412, Control_c, 0, 64, 64
1, 320427, Control_c, 0, 64, 66
1, 320442, Control_c, 0, 64, 69
1, 320457, Control_c, 0, 64, 73
1, 320472, Control_c, 0, 64, 78
1, 320487, Control_c, 0, 64, 86
1, 320501, Control_c, 0, 64, 93
1, 320516, Control_c, 0, 64, 102
1, 320531, Control_c, 0, 64, 113
1, 320532, Note_on_c, 0, 67, 46
1, 320541, Note_on_c, 0, 55, 46
1, 320546, Control_c, 0, 64, 127
1, 320577, Note_off_c, 0, 67, 58
1, 320580, Note_off_c, 0, 55, 58
1, 320601, Note_on_c, 0, 48, 52
1, 320650, Control_c, 0, 64, 114
1, 320665, Control_c, 0, 64, 108
1, 320667, Note_off_c, 0, 47, 37
1, 320680, Control_c, 0, 64, 101
1, 320695, Control_c, 0, 64, 95
1, 320708, Note_on_c, 0, 50, 63
1, 320710, Control_c, 0, 64, 87
1, 320720, Note_on_c, 0, 55, 38
1, 320724, Control_c, 0, 64, 77
1, 320731, Note_on_c, 0, 67, 40
1, 320746, Control_c, 0, 64, 68
1, 320759, Note_off_c, 0, 48, 59
1, 320761, Control_c, 0, 64, 59
1, 320776, Control_c, 0, 64, 41
1, 320785, Note_off_c, 0, 55, 55
1, 320790, Note_off_c, 0, 67, 59
1, 320791, Control_c, 0, 64, 29
1, 320806, Control_c, 0, 64, 29
1, 320836, Control_c, 0, 64, 29
1, 320850, Control_c, 0, 64, 33
1, 320865, Control_c, 0, 64, 40
1, 320880, Control_c, 0, 64, 49
1, 320895, Control_c, 0, 64, 56
1, 320910, Control_c, 0, 64, 61
1, 320914, Note_on_c, 0, 67, 36
1, 320916, Note_on_c, 0, 55, 37
1, 320924, Control_c, 0, 64, 64
1, 320939, Control_c, 0, 64, 67
1, 320947, Note_off_c, 0, 67, 53
1, 320954, Control_c, 0, 64, 71
1, 320955, Note_off_c, 0, 55, 49
1, 320969, Control_c, 0, 64, 76
1, 320984, Control_c, 0, 64, 80
1, 320999, Control_c, 0, 64, 86
1, 321014, Control_c, 0, 64, 92
1, 321029, Control_c, 0, 64, 99
1, 321043, Control_c, 0, 64, 108
1, 321049, Note_off_c, 0, 50, 37
1, 321058, Control_c, 0, 64, 127
1, 321061, Note_on_c, 0, 67, 43
1, 321078, Note_on_c, 0, 55, 44
1, 321108, Note_off_c, 0, 67, 55
1, 321120, Note_off_c, 0, 55, 56
1, 321192, Control_c, 0, 64, 121
1, 321206, Control_c, 0, 64, 111
1, 321221, Control_c, 0, 64, 103
1, 321236, Control_c, 0, 64, 91
1, 321237, Note_on_c, 0, 67, 43
1, 321238, Note_on_c, 0, 50, 59
1, 321240, Note_on_c, 0, 55, 47
1, 321250, Control_c, 0, 64, 79
1, 321265, Control_c, 0, 64, 69
1, 321280, Control_c, 0, 64, 61
1, 321286, Note_off_c, 0, 67, 57
1, 321288, Note_off_c, 0, 55, 57
1, 321295, Control_c, 0, 64, 53
1, 321310, Control_c, 0, 64, 52
1, 321325, Control_c, 0, 64, 54
1, 321340, Control_c, 0, 64, 56
1, 321354, Control_c, 0, 64, 58
1, 321369, Control_c, 0, 64, 61
1, 321384, Control_c, 0, 64, 63
1, 321400, Control_c, 0, 64, 65
1, 321414, Note_on_c, 0, 55, 39
1, 321414, Control_c, 0, 64, 69
1, 321423, Note_on_c, 0, 67, 32
1, 321429, Control_c, 0, 64, 74
1, 321444, Control_c, 0, 64, 80
1, 321459, Control_c, 0, 64, 89
1, 321465, Note_off_c, 0, 67, 47
1, 321469, Note_off_c, 0, 55, 54
1, 321474, Control_c, 0, 64, 100
1, 321496, Control_c, 0, 64, 119
1, 321511, Control_c, 0, 64, 127
1, 321552, Note_off_c, 0, 50, 47
1, 321599, Note_on_c, 0, 55, 37
1, 321611, Note_on_c, 0, 67, 32
1, 321632, Note_off_c, 0, 55, 55
1, 321647, Note_off_c, 0, 67, 49
1, 321744, Note_on_c, 0, 50, 54
1, 321746, Note_on_c, 0, 55, 48
1, 321748, Control_c, 0, 64, 108
1, 321754, Note_on_c, 0, 67, 41
1, 321763, Control_c, 0, 64, 93
1, 321778, Control_c, 0, 64, 79
1, 321793, Control_c, 0, 64, 67
1, 321796, Note_off_c, 0, 55, 57
1, 321801, Note_off_c, 0, 67, 56
1, 321808, Control_c, 0, 64, 59
1, 321822, Control_c, 0, 64, 53
1, 321852, Control_c, 0, 64, 55
1, 321866, Control_c, 0, 64, 57
1, 321881, Control_c, 0, 64, 60
1, 321896, Control_c, 0, 64, 62
1, 321908, Note_on_c, 0, 55, 45
1, 321911, Control_c, 0, 64, 65
1, 321915, Note_on_c, 0, 67, 39
1, 321926, Control_c, 0, 64, 67
1, 321940, Control_c, 0, 64, 71
1, 321952, Note_off_c, 0, 67, 57
1, 321955, Note_off_c, 0, 55, 56
1, 321955, Control_c, 0, 64, 76
1, 321970, Control_c, 0, 64, 82
1, 321985, Control_c, 0, 64, 92
1, 322000, Control_c, 0, 64, 103
1, 322014, Control_c, 0, 64, 123
1, 322029, Control_c, 0, 64, 127
1, 322083, Note_on_c, 0, 55, 38
1, 322083, Note_on_c, 0, 67, 42
1, 322111, Note_off_c, 0, 50, 28
1, 322121, Note_off_c, 0, 55, 55
1, 322127, Note_off_c, 0, 67, 56
1, 322223, Control_c, 0, 64, 121
1, 322245, Control_c, 0, 64, 104
1, 322246, Note_on_c, 0, 48, 55
1, 322254, Note_on_c, 0, 55, 46
1, 322260, Note_on_c, 0, 67, 45
1, 322260, Control_c, 0, 64, 89
1, 322275, Control_c, 0, 64, 77
1, 322290, Control_c, 0, 64, 67
1, 322293, Note_off_c, 0, 55, 59
1, 322303, Note_off_c, 0, 67, 59
1, 322304, Control_c, 0, 64, 60
1, 322319, Control_c, 0, 64, 54
1, 322334, Control_c, 0, 64, 54
1, 322349, Control_c, 0, 64, 55
1, 322364, Control_c, 0, 64, 57
1, 322378, Control_c, 0, 64, 59
1, 322393, Control_c, 0, 64, 61
1, 322408, Control_c, 0, 64, 63
1, 322421, Note_on_c, 0, 67, 44
1, 322422, Control_c, 0, 64, 65
1, 322423, Note_on_c, 0, 55, 33
1, 322437, Control_c, 0, 64, 69
1, 322452, Control_c, 0, 64, 74
1, 322467, Control_c, 0, 64, 80
1, 322471, Note_off_c, 0, 67, 59
1, 322474, Note_off_c, 0, 55, 49
1, 322482, Control_c, 0, 64, 87
1, 322495, Control_c, 0, 64, 97
1, 322510, Control_c, 0, 64, 107
1, 322525, Control_c, 0, 64, 123
1, 322540, Control_c, 0, 64, 127
1, 322603, Note_on_c, 0, 55, 48
1, 322603, Note_on_c, 0, 67, 45
1, 322653, Note_off_c, 0, 55, 56
1, 322656, Note_off_c, 0, 67, 58
1, 322681, Note_on_c, 0, 50, 54
1, 322723, Note_off_c, 0, 48, 38
1, 322732, Control_c, 0, 64, 114
1, 322747, Control_c, 0, 64, 108
1, 322761, Control_c, 0, 64, 104
1, 322776, Control_c, 0, 64, 100
1, 322779, Note_on_c, 0, 51, 54
1, 322791, Control_c, 0, 64, 94
1, 322806, Control_c, 0, 64, 88
1, 322814, Note_on_c, 0, 67, 40
1, 322821, Control_c, 0, 64, 79
1, 322828, Note_on_c, 0, 55, 42
1, 322836, Control_c, 0, 64, 71
1, 322839, Note_off_c, 0, 50, 59
1, 322851, Control_c, 0, 64, 64
1, 322866, Control_c, 0, 64, 58
1, 322880, Note_off_c, 0, 55, 57
1, 322881, Control_c, 0, 64, 50
1, 322887, Note_off_c, 0, 67, 56
1, 322895, Control_c, 0, 64, 45
1, 322910, Control_c, 0, 64, 44
1, 322925, Control_c, 0, 64, 44
1, 322969, Control_c, 0, 64, 46
1, 322984, Control_c, 0, 64, 49
1, 323000, Note_on_c, 0, 55, 42
1, 323007, Note_on_c, 0, 67, 30
1, 323007, Control_c, 0, 64, 54
1, 323022, Control_c, 0, 64, 58
1, 323037, Control_c, 0, 64, 62
1, 323047, Note_off_c, 0, 55, 57
1, 323048, Note_off_c, 0, 67, 50
1, 323052, Control_c, 0, 64, 64
1, 323067, Control_c, 0, 64, 66
1, 323081, Control_c, 0, 64, 68
1, 323096, Control_c, 0, 64, 71
1, 323111, Control_c, 0, 64, 75
1, 323125, Control_c, 0, 64, 79
1, 323140, Control_c, 0, 64, 84
1, 323152, Note_on_c, 0, 55, 39
1, 323155, Control_c, 0, 64, 89
1, 323156, Note_on_c, 0, 67, 40
1, 323170, Control_c, 0, 64, 94
1, 323185, Control_c, 0, 64, 98
1, 323194, Note_off_c, 0, 67, 49
1, 323200, Control_c, 0, 64, 100
1, 323201, Note_off_c, 0, 55, 48
1, 323215, Control_c, 0, 64, 101
1, 323229, Control_c, 0, 64, 101
1, 323244, Control_c, 0, 64, 102
1, 323259, Control_c, 0, 64, 103
1, 323274, Control_c, 0, 64, 104
1, 323289, Control_c, 0, 64, 105
1, 323305, Note_on_c, 0, 55, 34
1, 323315, Note_on_c, 0, 67, 34
1, 323333, Control_c, 0, 64, 106
1, 323343, Note_off_c, 0, 55, 51
1, 323348, Control_c, 0, 64, 107
1, 323349, Note_off_c, 0, 67, 51
1, 323363, Control_c, 0, 64, 107
1, 323378, Control_c, 0, 64, 109
1, 323392, Control_c, 0, 64, 110
1, 323407, Control_c, 0, 64, 111
1, 323466, Control_c, 0, 64, 111
1, 323468, Note_on_c, 0, 55, 39
1, 323481, Control_c, 0, 64, 112
1, 323486, Note_on_c, 0, 67, 22
1, 323498, Note_off_c, 0, 55, 54
1, 323510, Control_c, 0, 64, 113
1, 323520, Note_off_c, 0, 67, 45
1, 323525, Control_c, 0, 64, 113
1, 323547, Note_on_c, 0, 50, 53
1, 323599, Note_off_c, 0, 51, 32
1, 323613, Note_on_c, 0, 55, 41
1, 323634, Note_on_c, 0, 67, 44
1, 323665, Note_off_c, 0, 55, 56
1, 323674, Note_off_c, 0, 67, 56
1, 323674, Control_c, 0, 64, 113
1, 323688, Control_c, 0, 64, 111
1, 323703, Control_c, 0, 64, 110
1, 323718, Control_c, 0, 64, 108
1, 323740, Control_c, 0, 64, 106
1, 323755, Control_c, 0, 64, 103
1, 323770, Control_c, 0, 64, 100
1, 323779, Note_on_c, 0, 48, 55
1, 323785, Control_c, 0, 64, 97
1, 323786, Note_off_c, 0, 50, 55
1, 323798, Note_on_c, 0, 67, 47
1, 323799, Note_on_c, 0, 55, 45
1, 323801, Control_c, 0, 64, 91
1, 323815, Control_c, 0, 64, 84
1, 323830, Control_c, 0, 64, 75
1, 323845, Note_off_c, 0, 55, 57
1, 323845, Control_c, 0, 64, 66
1, 323849, Note_off_c, 0, 67, 59
1, 323860, Control_c, 0, 64, 58
1, 323874, Control_c, 0, 64, 50
1, 323889, Control_c, 0, 64, 48
1, 323904, Control_c, 0, 64, 48
1, 323919, Control_c, 0, 64, 50
1, 323934, Control_c, 0, 64, 51
1, 323948, Control_c, 0, 64, 55
1, 323961, Note_on_c, 0, 55, 41
1, 323963, Control_c, 0, 64, 59
1, 323973, Note_on_c, 0, 67, 38
1, 323978, Control_c, 0, 64, 62
1, 323993, Control_c, 0, 64, 65
1, 323999, Note_off_c, 0, 55, 55
1, 324004, Note_off_c, 0, 67, 55
1, 324008, Control_c, 0, 64, 68
1, 324022, Control_c, 0, 64, 71
1, 324037, Control_c, 0, 64, 76
1, 324052, Control_c, 0, 64, 81
1, 324067, Control_c, 0, 64, 87
1, 324082, Control_c, 0, 64, 93
1, 324097, Control_c, 0, 64, 101
1, 324105, Note_on_c, 0, 67, 51
1, 324112, Control_c, 0, 64, 112
1, 324115, Note_on_c, 0, 55, 48
1, 324127, Control_c, 0, 64, 127
1, 324157, Note_off_c, 0, 67, 53
1, 324159, Note_off_c, 0, 55, 60
1, 324274, Control_c, 0, 64, 118
1, 324276, Note_on_c, 0, 55, 49
1, 324276, Note_on_c, 0, 46, 65
1, 324282, Note_on_c, 0, 67, 56
1, 324289, Control_c, 0, 64, 110
1, 324297, Note_off_c, 0, 48, 54
1, 324304, Control_c, 0, 64, 102
1, 324317, Note_off_c, 0, 55, 60
1, 324319, Control_c, 0, 64, 91
1, 324326, Note_off_c, 0, 67, 60
1, 324333, Control_c, 0, 64, 80
1, 324348, Control_c, 0, 64, 69
1, 324363, Control_c, 0, 64, 61
1, 324378, Control_c, 0, 64, 53
1, 324393, Control_c, 0, 64, 50
1, 324407, Control_c, 0, 64, 52
1, 324422, Control_c, 0, 64, 53
1, 324436, Note_on_c, 0, 67, 58
1, 324437, Control_c, 0, 64, 55
1, 324441, Note_on_c, 0, 55, 51
1, 324452, Control_c, 0, 64, 58
1, 324467, Control_c, 0, 64, 61
1, 324478, Note_off_c, 0, 67, 59
1, 324489, Control_c, 0, 64, 63
1, 324496, Note_off_c, 0, 55, 62
1, 324504, Control_c, 0, 64, 65
1, 324519, Control_c, 0, 64, 68
1, 324534, Control_c, 0, 64, 70
1, 324548, Control_c, 0, 64, 73
1, 324563, Control_c, 0, 64, 77
1, 324578, Control_c, 0, 64, 81
1, 324594, Control_c, 0, 64, 86
1, 324604, Note_on_c, 0, 65, 64
1, 324606, Note_on_c, 0, 53, 63
1, 324609, Control_c, 0, 64, 91
1, 324624, Control_c, 0, 64, 94
1, 324638, Control_c, 0, 64, 97
1, 324647, Note_off_c, 0, 53, 59
1, 324653, Control_c, 0, 64, 97
1, 324666, Note_on_c, 0, 44, 68
1, 324666, Note_off_c, 0, 65, 58
1, 324697, Control_c, 0, 64, 97
1, 324712, Control_c, 0, 64, 96
1, 324720, Note_off_c, 0, 46, 55
1, 324727, Control_c, 0, 64, 94
1, 324743, Control_c, 0, 64, 91
1, 324758, Control_c, 0, 64, 87
1, 324772, Control_c, 0, 64, 80
1, 324781, Note_on_c, 0, 43, 62
1, 324787, Control_c, 0, 64, 72
1, 324791, Note_off_c, 0, 44, 61
1, 324792, Note_on_c, 0, 55, 56
1, 324795, Note_on_c, 0, 63, 41
1, 324795, Note_on_c, 0, 67, 54
1, 324800, Note_on_c, 0, 60, 46
1, 324802, Control_c, 0, 64, 65
1, 324817, Control_c, 0, 64, 57
1, 324832, Control_c, 0, 64, 45
1, 324843, Note_off_c, 0, 63, 59
1, 324846, Control_c, 0, 64, 28
1, 324852, Note_off_c, 0, 55, 57
1, 324853, Note_off_c, 0, 60, 58
1, 324856, Note_off_c, 0, 67, 55
1, 324861, Control_c, 0, 64, 0
1, 324973, Note_on_c, 0, 55, 50
1, 324973, Note_on_c, 0, 63, 36
1, 324979, Note_on_c, 0, 60, 44
1, 324979, Control_c, 0, 64, 23
1, 324984, Note_on_c, 0, 67, 48
1, 324994, Control_c, 0, 64, 47
1, 325009, Control_c, 0, 64, 59
1, 325012, Note_off_c, 0, 63, 51
1, 325017, Note_off_c, 0, 55, 59
1, 325020, Note_off_c, 0, 60, 61
1, 325021, Note_off_c, 0, 67, 61
1, 325024, Control_c, 0, 64, 64
1, 325039, Control_c, 0, 64, 68
1, 325054, Control_c, 0, 64, 73
1, 325069, Control_c, 0, 64, 77
1, 325083, Control_c, 0, 64, 82
1, 325098, Control_c, 0, 64, 87
1, 325113, Control_c, 0, 64, 93
1, 325122, Note_on_c, 0, 63, 45
1, 325124, Note_on_c, 0, 67, 48
1, 325125, Note_on_c, 0, 60, 53
1, 325126, Note_on_c, 0, 55, 49
1, 325128, Control_c, 0, 64, 99
1, 325140, Note_off_c, 0, 43, 56
1, 325143, Control_c, 0, 64, 105
1, 325158, Control_c, 0, 64, 109
1, 325167, Note_off_c, 0, 63, 59
1, 325167, Note_off_c, 0, 60, 59
1, 325167, Note_off_c, 0, 67, 60
1, 325170, Note_off_c, 0, 55, 59
1, 325172, Control_c, 0, 64, 110
1, 325253, Control_c, 0, 64, 107
1, 325268, Control_c, 0, 64, 105
1, 325283, Control_c, 0, 64, 101
1, 325286, Note_on_c, 0, 43, 58
1, 325291, Note_on_c, 0, 63, 45
1, 325293, Note_on_c, 0, 55, 52
1, 325294, Note_on_c, 0, 67, 55
1, 325298, Note_on_c, 0, 60, 54
1, 325298, Control_c, 0, 64, 95
1, 325313, Control_c, 0, 64, 87
1, 325328, Control_c, 0, 64, 77
1, 325335, Note_off_c, 0, 67, 62
1, 325338, Note_off_c, 0, 55, 59
1, 325338, Note_off_c, 0, 63, 60
1, 325342, Note_off_c, 0, 60, 60
1, 325343, Control_c, 0, 64, 65
1, 325358, Control_c, 0, 64, 54
1, 325372, Control_c, 0, 64, 43
1, 325388, Control_c, 0, 64, 41
1, 325403, Control_c, 0, 64, 44
1, 325417, Control_c, 0, 64, 48
1, 325432, Control_c, 0, 64, 54
1, 325447, Control_c, 0, 64, 59
1, 325454, Note_on_c, 0, 63, 53
1, 325456, Note_on_c, 0, 55, 53
1, 325460, Note_on_c, 0, 60, 54
1, 325462, Control_c, 0, 64, 62
1, 325465, Note_on_c, 0, 67, 45
1, 325477, Control_c, 0, 64, 65
1, 325491, Control_c, 0, 64, 69
1, 325498, Note_off_c, 0, 55, 59
1, 325499, Note_off_c, 0, 63, 59
1, 325501, Note_off_c, 0, 60, 61
1, 325501, Note_off_c, 0, 67, 61
1, 325506, Control_c, 0, 64, 73
1, 325520, Control_c, 0, 64, 81
1, 325535, Control_c, 0, 64, 90
1, 325550, Control_c, 0, 64, 102
1, 325565, Control_c, 0, 64, 127
1, 325595, Note_on_c, 0, 55, 57
1, 325602, Note_on_c, 0, 67, 48
1, 325608, Note_on_c, 0, 63, 47
1, 325608, Poly_aftertouch_c, 0, 45, 127
1, 325614, Note_on_c, 0, 60, 50
1, 325622, Note_off_c, 0, 43, 57
1, 325635, Note_off_c, 0, 60, 62
1, 325635, Note_off_c, 0, 63, 55
1, 325641, Note_off_c, 0, 55, 57
1, 325641, Note_off_c, 0, 67, 63
1, 325648, Poly_aftertouch_c, 0, 45, 0
1, 325742, Control_c, 0, 64, 98
1, 325748, Note_on_c, 0, 55, 63
1, 325757, Note_on_c, 0, 62, 53
1, 325757, Control_c, 0, 64, 81
1, 325758, Note_on_c, 0, 59, 57
1, 325760, Note_on_c, 0, 43, 62
1, 325768, Note_on_c, 0, 67, 47
1, 325772, Control_c, 0, 64, 68
1, 325787, Control_c, 0, 64, 57
1, 325790, Note_off_c, 0, 55, 54
1, 325798, Note_off_c, 0, 59, 61
1, 325802, Note_off_c, 0, 67, 59
1, 325802, Control_c, 0, 64, 40
1, 325802, Note_off_c, 0, 62, 59
1, 325817, Control_c, 0, 64, 38
1, 325832, Control_c, 0, 64, 39
1, 325847, Control_c, 0, 64, 42
1, 325861, Control_c, 0, 64, 46
1, 325876, Control_c, 0, 64, 52
1, 325891, Control_c, 0, 64, 59
1, 325900, Note_on_c, 0, 67, 49
1, 325904, Note_on_c, 0, 59, 58
1, 325906, Control_c, 0, 64, 63
1, 325910, Note_on_c, 0, 62, 57
1, 325915, Note_on_c, 0, 55, 43
1, 325920, Control_c, 0, 64, 66
1, 325935, Control_c, 0, 64, 70
1, 325943, Note_off_c, 0, 67, 59
1, 325946, Note_off_c, 0, 59, 61
1, 325949, Note_off_c, 0, 55, 56
1, 325949, Note_off_c, 0, 62, 62
1, 325950, Control_c, 0, 64, 75
1, 325965, Control_c, 0, 64, 80
1, 325980, Control_c, 0, 64, 87
1, 326002, Control_c, 0, 64, 93
1, 326017, Control_c, 0, 64, 99
1, 326031, Control_c, 0, 64, 104
1, 326046, Control_c, 0, 64, 106
1, 326059, Note_on_c, 0, 55, 54
1, 326062, Note_on_c, 0, 62, 53
1, 326067, Note_on_c, 0, 59, 60
1, 326073, Note_on_c, 0, 67, 48
1, 326095, Note_off_c, 0, 43, 57
1, 326106, Note_off_c, 0, 55, 59
1, 326107, Note_off_c, 0, 59, 61
1, 326108, Note_off_c, 0, 62, 54
1, 326109, Note_off_c, 0, 67, 61
1, 326120, Control_c, 0, 64, 105
1, 326135, Control_c, 0, 64, 104
1, 326150, Control_c, 0, 64, 102
1, 326165, Control_c, 0, 64, 100
1, 326180, Control_c, 0, 64, 97
1, 326195, Control_c, 0, 64, 94
1, 326207, Note_on_c, 0, 59, 55
1, 326210, Control_c, 0, 64, 88
1, 326220, Note_on_c, 0, 55, 55
1, 326224, Note_on_c, 0, 67, 46
1, 326225, Note_on_c, 0, 43, 61
1, 326225, Control_c, 0, 64, 79
1, 326228, Note_on_c, 0, 62, 53
1, 326240, Control_c, 0, 64, 69
1, 326255, Control_c, 0, 64, 62
1, 326268, Note_off_c, 0, 55, 54
1, 326269, Note_off_c, 0, 67, 61
1, 326270, Control_c, 0, 64, 53
1, 326273, Note_off_c, 0, 62, 58
1, 326274, Note_off_c, 0, 59, 58
1, 326284, Control_c, 0, 64, 52
1, 326299, Control_c, 0, 64, 54
1, 326314, Control_c, 0, 64, 57
1, 326329, Control_c, 0, 64, 60
1, 326343, Control_c, 0, 64, 63
1, 326358, Control_c, 0, 64, 66
1, 326365, Note_on_c, 0, 67, 58
1, 326368, Note_on_c, 0, 62, 53
1, 326369, Note_on_c, 0, 59, 52
1, 326373, Control_c, 0, 64, 69
1, 326380, Note_on_c, 0, 55, 51
1, 326388, Control_c, 0, 64, 74
1, 326403, Control_c, 0, 64, 80
1, 326407, Note_off_c, 0, 67, 58
1, 326410, Note_off_c, 0, 55, 60
1, 326410, Note_off_c, 0, 59, 60
1, 326415, Note_off_c, 0, 62, 58
1, 326417, Control_c, 0, 64, 88
1, 326432, Control_c, 0, 64, 98
1, 326447, Control_c, 0, 64, 121
1, 326461, Control_c, 0, 64, 127
1, 326514, Note_on_c, 0, 55, 52
1, 326519, Note_on_c, 0, 67, 63
1, 326528, Note_on_c, 0, 59, 58
1, 326529, Note_on_c, 0, 62, 51
1, 326564, Note_off_c, 0, 59, 63
1, 326564, Note_off_c, 0, 62, 63
1, 326574, Note_off_c, 0, 55, 55
1, 326587, Note_off_c, 0, 67, 59
1, 326669, Control_c, 0, 64, 114
1, 326684, Control_c, 0, 64, 99
1, 326699, Control_c, 0, 64, 85
1, 326714, Control_c, 0, 64, 71
1, 326716, Note_on_c, 0, 67, 61
1, 326717, Note_on_c, 0, 55, 59
1, 326729, Note_on_c, 0, 63, 49
1, 326729, Control_c, 0, 64, 58
1, 326729, Note_on_c, 0, 60, 51
1, 326729, Note_off_c, 0, 43, 59
1, 326738, Note_on_c, 0, 48, 56
1, 326750, Control_c, 0, 64, 21
1, 326765, Control_c, 0, 64, 0
1, 326791, Note_off_c, 0, 55, 50
1, 326810, Note_off_c, 0, 67, 51
1, 326824, Note_off_c, 0, 63, 41
1, 326884, Control_c, 0, 64, 42
1, 326891, Note_on_c, 0, 67, 41
1, 326896, Note_on_c, 0, 63, 19
1, 326899, Control_c, 0, 64, 58
1, 326900, Note_on_c, 0, 55, 54
1, 326914, Control_c, 0, 64, 64
1, 326929, Control_c, 0, 64, 70
1, 326943, Control_c, 0, 64, 79
1, 326948, Note_off_c, 0, 55, 59
1, 326953, Note_off_c, 0, 63, 54
1, 326958, Control_c, 0, 64, 93
1, 326966, Note_off_c, 0, 67, 57
1, 326973, Control_c, 0, 64, 127
1, 326984, Note_off_c, 0, 60, 42
1, 327037, Note_on_c, 0, 67, 47
1, 327051, Note_on_c, 0, 55, 55
1, 327084, Note_off_c, 0, 55, 65
1, 327092, Control_c, 0, 67, 117
1, 327097, Note_off_c, 0, 67, 59
1, 327107, Control_c, 0, 67, 102
1, 327122, Control_c, 0, 67, 85
1, 327137, Control_c, 0, 67, 62
1, 327140, Note_off_c, 0, 48, 47
1, 327152, Control_c, 0, 67, 40
1, 327166, Control_c, 0, 67, 15
1, 327181, Control_c, 0, 67, 0
1, 327185, Note_on_c, 0, 55, 60
1, 327203, Note_on_c, 0, 67, 51
1, 327222, Note_off_c, 0, 55, 61
1, 327235, Note_off_c, 0, 67, 64
1, 327323, Note_on_c, 0, 67, 67
1, 327334, Note_on_c, 0, 55, 63
1, 327370, Note_off_c, 0, 55, 63
1, 327383, Note_off_c, 0, 67, 61
1, 327466, Note_on_c, 0, 55, 67
1, 327475, Note_on_c, 0, 67, 71
1, 327531, Note_off_c, 0, 55, 61
1, 327534, Note_off_c, 0, 67, 60
1, 327623, Note_on_c, 0, 67, 72
1, 327626, Note_on_c, 0, 55, 74
1, 327677, Note_off_c, 0, 55, 61
1, 327683, Note_off_c, 0, 67, 61
1, 327753, Note_on_c, 0, 55, 76
1, 327760, Note_on_c, 0, 67, 73
1, 327802, Note_off_c, 0, 67, 62
1, 327810, Note_off_c, 0, 55, 63
1, 327892, Note_on_c, 0, 55, 75
1, 327895, Note_on_c, 0, 67, 73
1, 327939, Note_off_c, 0, 55, 52
1, 327943, Note_off_c, 0, 67, 60
1, 328034, Control_c, 0, 64, 96
1, 328048, Note_on_c, 0, 47, 89
1, 328049, Control_c, 0, 64, 76
1, 328050, Note_on_c, 0, 55, 72
1, 328053, Note_on_c, 0, 67, 74
1, 328056, Note_on_c, 0, 35, 75
1, 328063, Control_c, 0, 64, 62
1, 328078, Control_c, 0, 64, 30
1, 328093, Control_c, 0, 64, 0
1, 328099, Note_off_c, 0, 55, 60
1, 328106, Note_off_c, 0, 67, 59
1, 328196, Control_c, 0, 64, 48
1, 328205, Note_on_c, 0, 55, 82
1, 328208, Note_on_c, 0, 67, 82
1, 328211, Control_c, 0, 64, 66
1, 328234, Control_c, 0, 64, 81
1, 328249, Control_c, 0, 64, 127
1, 328257, Note_off_c, 0, 35, 58
1, 328264, Note_off_c, 0, 55, 60
1, 328270, Note_off_c, 0, 67, 61
1, 328270, Note_off_c, 0, 47, 55
1, 328360, Note_on_c, 0, 55, 91
1, 328363, Note_on_c, 0, 67, 85
1, 328403, Note_off_c, 0, 55, 63
1, 328407, Note_off_c, 0, 67, 63
1, 328432, Note_on_c, 0, 48, 90
1, 328443, Note_on_c, 0, 36, 78
1, 328467, Note_off_c, 0, 36, 65
1, 328474, Note_off_c, 0, 48, 62
1, 328530, Control_c, 0, 64, 116
1, 328545, Control_c, 0, 64, 77
1, 328554, Note_on_c, 0, 67, 78
1, 328555, Note_on_c, 0, 55, 81
1, 328560, Control_c, 0, 64, 57
1, 328565, Note_on_c, 0, 50, 88
1, 328571, Note_on_c, 0, 38, 80
1, 328575, Control_c, 0, 64, 0
1, 328610, Note_off_c, 0, 55, 62
1, 328613, Note_off_c, 0, 67, 61
1, 328724, Note_on_c, 0, 67, 80
1, 328725, Note_on_c, 0, 55, 79
1, 328753, Control_c, 0, 64, 37
1, 328768, Control_c, 0, 64, 52
1, 328778, Note_off_c, 0, 55, 63
1, 328781, Note_off_c, 0, 67, 63
1, 328783, Control_c, 0, 64, 57
1, 328798, Control_c, 0, 64, 60
1, 328813, Control_c, 0, 64, 64
1, 328828, Control_c, 0, 64, 69
1, 328842, Control_c, 0, 64, 78
1, 328857, Control_c, 0, 64, 100
1, 328872, Control_c, 0, 64, 127
1, 328875, Note_on_c, 0, 55, 85
1, 328877, Note_on_c, 0, 67, 83
1, 328914, Note_off_c, 0, 50, 59
1, 328916, Note_off_c, 0, 38, 58
1, 328920, Note_off_c, 0, 55, 59
1, 328926, Note_off_c, 0, 67, 58
1, 329026, Note_on_c, 0, 67, 88
1, 329032, Note_on_c, 0, 55, 83
1, 329048, Note_on_c, 0, 50, 90
1, 329061, Note_on_c, 0, 38, 76
1, 329072, Control_c, 0, 64, 87
1, 329081, Note_off_c, 0, 55, 61
1, 329081, Note_off_c, 0, 67, 62
1, 329087, Control_c, 0, 64, 66
1, 329102, Control_c, 0, 64, 36
1, 329117, Control_c, 0, 64, 0
1, 329161, Control_c, 0, 64, 34
1, 329174, Note_on_c, 0, 67, 87
1, 329176, Control_c, 0, 64, 56
1, 329176, Note_on_c, 0, 55, 85
1, 329191, Control_c, 0, 64, 65
1, 329205, Control_c, 0, 64, 73
1, 329220, Control_c, 0, 64, 91
1, 329230, Note_off_c, 0, 55, 62
1, 329232, Note_off_c, 0, 67, 62
1, 329235, Control_c, 0, 64, 127
1, 329281, Note_off_c, 0, 38, 53
1, 329312, Note_off_c, 0, 50, 57
1, 329317, Note_on_c, 0, 67, 93
1, 329321, Note_on_c, 0, 55, 88
1, 329371, Note_off_c, 0, 55, 61
1, 329382, Note_off_c, 0, 67, 62
1, 329474, Note_on_c, 0, 50, 100
1, 329477, Note_on_c, 0, 67, 95
1, 329479, Note_on_c, 0, 55, 89
1, 329483, Note_on_c, 0, 38, 82
1, 329487, Control_c, 0, 64, 80
1, 329502, Control_c, 0, 64, 60
1, 329517, Control_c, 0, 64, 0
1, 329534, Note_off_c, 0, 55, 62
1, 329536, Note_off_c, 0, 67, 61
1, 329547, Control_c, 0, 64, 20
1, 329561, Control_c, 0, 64, 49
1, 329576, Control_c, 0, 64, 62
1, 329591, Control_c, 0, 64, 70
1, 329606, Control_c, 0, 64, 85
1, 329621, Control_c, 0, 64, 127
1, 329624, Note_on_c, 0, 67, 93
1, 329627, Note_on_c, 0, 55, 90
1, 329676, Note_off_c, 0, 55, 62
1, 329685, Note_off_c, 0, 67, 61
1, 329704, Note_off_c, 0, 50, 54
1, 329712, Note_off_c, 0, 38, 59
1, 329773, Note_on_c, 0, 67, 93
1, 329775, Note_on_c, 0, 55, 96
1, 329829, Note_off_c, 0, 55, 61
1, 329833, Note_off_c, 0, 67, 64
1, 329925, Control_c, 0, 64, 87
1, 329933, Note_on_c, 0, 68, 95
1, 329936, Note_on_c, 0, 48, 100
1, 329936, Note_on_c, 0, 56, 91
1, 329939, Control_c, 0, 64, 61
1, 329943, Note_on_c, 0, 36, 84
1, 329954, Control_c, 0, 64, 0
1, 329998, Note_off_c, 0, 56, 62
1, 330013, Note_off_c, 0, 68, 57
1, 330013, Control_c, 0, 64, 51
1, 330027, Control_c, 0, 64, 69
1, 330042, Control_c, 0, 64, 101
1, 330057, Control_c, 0, 64, 127
1, 330089, Note_on_c, 0, 68, 91
1, 330091, Note_on_c, 0, 56, 90
1, 330101, Note_off_c, 0, 36, 52
1, 330152, Note_off_c, 0, 56, 64
1, 330157, Note_off_c, 0, 48, 56
1, 330157, Note_off_c, 0, 68, 57
1, 330238, Note_on_c, 0, 68, 93
1, 330241, Note_on_c, 0, 56, 89
1, 330305, Note_off_c, 0, 56, 62
1, 330318, Note_off_c, 0, 68, 61
1, 330325, Note_on_c, 0, 50, 96
1, 330335, Note_on_c, 0, 38, 79
1, 330395, Note_off_c, 0, 38, 57
1, 330420, Note_off_c, 0, 50, 61
1, 330539, Control_c, 0, 64, 89
1, 330553, Note_on_c, 0, 67, 78
1, 330554, Note_on_c, 0, 55, 74
1, 330554, Control_c, 0, 64, 67
1, 330562, Note_on_c, 0, 51, 95
1, 330569, Control_c, 0, 64, 48
1, 330577, Note_on_c, 0, 39, 77
1, 330583, Control_c, 0, 64, 0
1, 330630, Note_off_c, 0, 55, 60
1, 330637, Note_off_c, 0, 67, 58
1, 330749, Note_on_c, 0, 67, 70
1, 330750, Note_on_c, 0, 55, 68
1, 330812, Note_off_c, 0, 55, 62
1, 330815, Note_off_c, 0, 67, 61
1, 330821, Control_c, 0, 64, 44
1, 330836, Control_c, 0, 64, 60
1, 330851, Control_c, 0, 64, 67
1, 330865, Control_c, 0, 64, 76
1, 330880, Control_c, 0, 64, 101
1, 330895, Control_c, 0, 64, 127
1, 330909, Note_on_c, 0, 67, 66
1, 330910, Note_on_c, 0, 55, 67
1, 330944, Note_off_c, 0, 67, 58
1, 330945, Note_off_c, 0, 55, 63
1, 330984, Note_off_c, 0, 51, 61
1, 331045, Note_on_c, 0, 55, 69
1, 331046, Note_on_c, 0, 67, 71
1, 331077, Note_off_c, 0, 55, 65
1, 331084, Note_off_c, 0, 67, 53
1, 331092, Note_off_c, 0, 39, 28
1, 331190, Note_on_c, 0, 67, 73
1, 331191, Note_on_c, 0, 55, 66
1, 331234, Note_off_c, 0, 55, 58
1, 331257, Note_off_c, 0, 67, 61
1, 331266, Note_on_c, 0, 50, 77
1, 331272, Note_on_c, 0, 38, 68
1, 331337, Note_off_c, 0, 38, 60
1, 331341, Note_off_c, 0, 50, 61
1, 331356, Note_on_c, 0, 55, 69
1, 331363, Note_on_c, 0, 67, 71
1, 331402, Note_off_c, 0, 55, 59
1, 331412, Note_off_c, 0, 67, 58
1, 331510, Control_c, 0, 64, 99
1, 331518, Note_on_c, 0, 48, 72
1, 331518, Note_on_c, 0, 55, 67
1, 331525, Note_on_c, 0, 67, 67
1, 331525, Note_on_c, 0, 36, 59
1, 331525, Control_c, 0, 64, 75
1, 331540, Control_c, 0, 64, 59
1, 331555, Control_c, 0, 64, 0
1, 331559, Note_off_c, 0, 55, 55
1, 331566, Note_off_c, 0, 67, 53
1, 331629, Control_c, 0, 64, 26
1, 331644, Control_c, 0, 64, 49
1, 331658, Control_c, 0, 64, 61
1, 331672, Note_on_c, 0, 55, 57
1, 331673, Control_c, 0, 64, 67
1, 331680, Note_on_c, 0, 67, 59
1, 331688, Control_c, 0, 64, 72
1, 331703, Control_c, 0, 64, 80
1, 331713, Note_off_c, 0, 55, 60
1, 331718, Control_c, 0, 64, 88
1, 331719, Note_off_c, 0, 67, 59
1, 331723, Note_off_c, 0, 36, 62
1, 331732, Control_c, 0, 64, 97
1, 331747, Control_c, 0, 64, 107
1, 331762, Control_c, 0, 64, 113
1, 331769, Note_off_c, 0, 48, 58
1, 331808, Control_c, 0, 64, 113
1, 331822, Control_c, 0, 64, 117
1, 331837, Control_c, 0, 64, 121
1, 331841, Note_on_c, 0, 67, 55
1, 331846, Note_on_c, 0, 55, 53
1, 331852, Control_c, 0, 64, 127
1, 331894, Note_off_c, 0, 55, 58
1, 331896, Note_off_c, 0, 67, 51
1, 331955, Control_c, 0, 64, 121
1, 331978, Control_c, 0, 64, 115
1, 331993, Control_c, 0, 64, 108
1, 332008, Control_c, 0, 64, 99
1, 332023, Control_c, 0, 64, 87
1, 332037, Control_c, 0, 64, 72
1, 332052, Control_c, 0, 64, 62
1, 332054, Note_on_c, 0, 67, 51
1, 332059, Note_on_c, 0, 46, 52
1, 332059, Note_on_c, 0, 55, 44
1, 332066, Note_on_c, 0, 34, 44
1, 332067, Control_c, 0, 64, 47
1, 332082, Control_c, 0, 64, 35
1, 332111, Control_c, 0, 64, 39
1, 332126, Control_c, 0, 64, 45
1, 332129, Note_off_c, 0, 67, 56
1, 332130, Note_off_c, 0, 55, 55
1, 332141, Control_c, 0, 64, 54
1, 332155, Control_c, 0, 64, 60
1, 332170, Control_c, 0, 64, 64
1, 332185, Control_c, 0, 64, 67
1, 332200, Control_c, 0, 64, 70
1, 332215, Control_c, 0, 64, 75
1, 332230, Control_c, 0, 64, 82
1, 332235, Note_off_c, 0, 46, 53
1, 332245, Control_c, 0, 64, 91
1, 332260, Control_c, 0, 64, 102
1, 332262, Note_on_c, 0, 67, 50
1, 332263, Note_on_c, 0, 55, 48
1, 332275, Control_c, 0, 64, 127
1, 332282, Note_off_c, 0, 34, 39
1, 332295, Note_off_c, 0, 67, 59
1, 332302, Note_off_c, 0, 55, 57
1, 332437, Control_c, 0, 67, 14
1, 332452, Control_c, 0, 67, 23
1, 332467, Control_c, 0, 67, 30
1, 332482, Control_c, 0, 67, 39
1, 332485, Note_on_c, 0, 53, 47
1, 332485, Note_on_c, 0, 65, 45
1, 332497, Control_c, 0, 67, 46
1, 332512, Control_c, 0, 67, 55
1, 332527, Control_c, 0, 67, 64
1, 332530, Note_off_c, 0, 53, 53
1, 332534, Note_off_c, 0, 65, 55
1, 332542, Control_c, 0, 67, 73
1, 332556, Control_c, 0, 67, 85
1, 332571, Control_c, 0, 67, 97
1, 332585, Note_on_c, 0, 32, 47
1, 332586, Control_c, 0, 67, 112
1, 332593, Note_on_c, 0, 44, 46
1, 332601, Control_c, 0, 67, 125
1, 332616, Control_c, 0, 67, 127
1, 332636, Note_off_c, 0, 32, 60
1, 332647, Note_off_c, 0, 44, 58
1, 332705, Control_c, 0, 64, 117
1, 332727, Control_c, 0, 64, 104
1, 332742, Control_c, 0, 64, 91
1, 332757, Control_c, 0, 64, 78
1, 332772, Control_c, 0, 64, 66
1, 332786, Note_on_c, 0, 60, 38
1, 332786, Control_c, 0, 64, 44
1, 332795, Note_on_c, 0, 64, 42
1, 332795, Note_on_c, 0, 67, 48
1, 332801, Control_c, 0, 64, 0
1, 332809, Note_on_c, 0, 55, 35
1, 332818, Note_on_c, 0, 43, 45
1, 332819, Note_on_c, 0, 31, 43
1, 332908, Note_off_c, 0, 64, 56
1, 332911, Note_off_c, 0, 60, 53
1, 332920, Control_c, 0, 64, 25
1, 332924, Note_off_c, 0, 67, 58
1, 332935, Control_c, 0, 64, 46
1, 332946, Note_off_c, 0, 55, 43
1, 332950, Control_c, 0, 64, 57
1, 332965, Control_c, 0, 64, 62
1, 332979, Control_c, 0, 64, 65
1, 332994, Control_c, 0, 64, 67
1, 333009, Control_c, 0, 64, 69
1, 333024, Control_c, 0, 64, 71
1, 333039, Control_c, 0, 64, 74
1, 333053, Control_c, 0, 64, 77
1, 333068, Control_c, 0, 64, 82
1, 333069, Note_on_c, 0, 60, 42
1, 333072, Note_on_c, 0, 64, 42
1, 333074, Note_on_c, 0, 67, 40
1, 333083, Control_c, 0, 64, 88
1, 333093, Note_on_c, 0, 55, 37
1, 333098, Control_c, 0, 64, 94
1, 333112, Control_c, 0, 64, 99
1, 333122, Note_off_c, 0, 60, 59
1, 333122, Note_off_c, 0, 64, 59
1, 333122, Note_off_c, 0, 67, 53
1, 333127, Control_c, 0, 64, 101
1, 333135, Note_off_c, 0, 43, 38
1, 333135, Note_off_c, 0, 55, 53
1, 333174, Note_off_c, 0, 31, 32
1, 333186, Control_c, 0, 64, 102
1, 333254, Note_on_c, 0, 64, 36
1, 333260, Note_on_c, 0, 60, 32
1, 333260, Note_on_c, 0, 67, 36
1, 333263, Note_on_c, 0, 55, 39
1, 333290, Note_off_c, 0, 64, 55
1, 333294, Note_off_c, 0, 67, 51
1, 333295, Note_off_c, 0, 60, 52
1, 333307, Note_off_c, 0, 55, 48
1, 333320, Control_c, 0, 64, 101
1, 333335, Control_c, 0, 64, 99
1, 333350, Control_c, 0, 64, 96
1, 333365, Control_c, 0, 64, 91
1, 333380, Control_c, 0, 64, 85
1, 333394, Control_c, 0, 64, 78
1, 333409, Control_c, 0, 64, 70
1, 333417, Note_on_c, 0, 64, 35
1, 333418, Note_on_c, 0, 60, 37
1, 333419, Note_on_c, 0, 67, 40
1, 333421, Note_on_c, 0, 31, 30
1, 333424, Note_on_c, 0, 43, 36
1, 333424, Control_c, 0, 64, 65
1, 333430, Note_on_c, 0, 55, 41
1, 333439, Control_c, 0, 64, 63
1, 333454, Control_c, 0, 64, 64
1, 333463, Note_off_c, 0, 64, 59
1, 333463, Note_off_c, 0, 60, 59
1, 333468, Note_off_c, 0, 67, 56
1, 333469, Control_c, 0, 64, 65
1, 333481, Note_off_c, 0, 55, 56
1, 333491, Control_c, 0, 64, 66
1, 333506, Control_c, 0, 64, 67
1, 333521, Control_c, 0, 64, 68
1, 333535, Control_c, 0, 64, 70
1, 333550, Control_c, 0, 64, 73
1, 333565, Control_c, 0, 64, 76
1, 333580, Control_c, 0, 64, 79
1, 333595, Control_c, 0, 64, 83
1, 333603, Note_on_c, 0, 60, 37
1, 333607, Note_on_c, 0, 55, 39
1, 333609, Note_on_c, 0, 64, 29
1, 333609, Control_c, 0, 64, 87
1, 333615, Note_off_c, 0, 31, 34
1, 333619, Note_on_c, 0, 67, 14
1, 333624, Control_c, 0, 64, 92
1, 333631, Note_off_c, 0, 43, 36
1, 333639, Control_c, 0, 64, 94
1, 333640, Note_off_c, 0, 60, 49
1, 333645, Note_off_c, 0, 55, 49
1, 333645, Note_off_c, 0, 64, 51
1, 333654, Control_c, 0, 64, 95
1, 333662, Note_off_c, 0, 67, 40
1, 333669, Control_c, 0, 64, 96
1, 333683, Control_c, 0, 64, 96
1, 333713, Control_c, 0, 64, 97
1, 333755, Note_on_c, 0, 64, 38
1, 333760, Note_on_c, 0, 60, 45
1, 333763, Note_on_c, 0, 55, 43
1, 333777, Note_on_c, 0, 67, 35
1, 333788, Note_off_c, 0, 64, 53
1, 333792, Note_off_c, 0, 60, 57
1, 333797, Note_off_c, 0, 55, 59
1, 333806, Note_off_c, 0, 67, 52
1, 333815, Control_c, 0, 64, 96
1, 333830, Control_c, 0, 64, 95
1, 333845, Control_c, 0, 64, 93
1, 333860, Control_c, 0, 64, 90
1, 333874, Control_c, 0, 64, 85
1, 333889, Control_c, 0, 64, 77
1, 333904, Control_c, 0, 64, 67
1, 333919, Control_c, 0, 64, 60
1, 333929, Note_on_c, 0, 67, 29
1, 333930, Note_on_c, 0, 59, 49
1, 333934, Control_c, 0, 64, 50
1, 333936, Note_on_c, 0, 31, 33
1, 333944, Note_on_c, 0, 43, 36
1, 333949, Control_c, 0, 64, 47
1, 333964, Control_c, 0, 64, 48
1, 333966, Note_on_c, 0, 62, 20
1, 333979, Control_c, 0, 64, 50
1, 333983, Note_off_c, 0, 59, 55
1, 333983, Poly_aftertouch_c, 0, 55, 127
1, 333988, Note_off_c, 0, 67, 49
1, 333993, Control_c, 0, 64, 52
1, 334006, Note_off_c, 0, 62, 45
1, 334008, Control_c, 0, 64, 56
1, 334021, Poly_aftertouch_c, 0, 55, 0
1, 334023, Control_c, 0, 64, 60
1, 334038, Control_c, 0, 64, 63
1, 334053, Control_c, 0, 64, 66
1, 334068, Control_c, 0, 64, 69
1, 334082, Control_c, 0, 64, 74
1, 334093, Note_on_c, 0, 55, 39
1, 334097, Control_c, 0, 64, 78
1, 334104, Note_on_c, 0, 59, 43
1, 334107, Note_on_c, 0, 62, 45
1, 334112, Control_c, 0, 64, 84
1, 334119, Note_on_c, 0, 67, 24
1, 334126, Control_c, 0, 64, 90
1, 334138, Note_off_c, 0, 31, 37
1, 334140, Note_off_c, 0, 59, 55
1, 334141, Control_c, 0, 64, 97
1, 334148, Note_off_c, 0, 55, 55
1, 334151, Note_off_c, 0, 62, 59
1, 334156, Control_c, 0, 64, 102
1, 334157, Note_off_c, 0, 43, 33
1, 334160, Note_off_c, 0, 67, 49
1, 334172, Control_c, 0, 64, 105
1, 334187, Control_c, 0, 64, 106
1, 334269, Note_on_c, 0, 55, 43
1, 334277, Note_on_c, 0, 59, 36
1, 334281, Note_on_c, 0, 62, 39
1, 334285, Note_on_c, 0, 67, 32
1, 334312, Control_c, 0, 64, 105
1, 334315, Note_off_c, 0, 59, 50
1, 334318, Note_off_c, 0, 55, 53
1, 334320, Note_off_c, 0, 62, 55
1, 334323, Note_off_c, 0, 67, 49
1, 334327, Control_c, 0, 64, 104
1, 334342, Control_c, 0, 64, 102
1, 334357, Control_c, 0, 64, 99
1, 334372, Control_c, 0, 64, 93
1, 334387, Control_c, 0, 64, 86
1, 334402, Control_c, 0, 64, 77
1, 334417, Control_c, 0, 64, 67
1, 334431, Control_c, 0, 64, 59
1, 334440, Note_on_c, 0, 31, 29
1, 334442, Note_on_c, 0, 43, 31
1, 334445, Note_on_c, 0, 55, 42
1, 334446, Control_c, 0, 64, 51
1, 334449, Note_on_c, 0, 59, 28
1, 334450, Note_on_c, 0, 62, 42
1, 334457, Note_on_c, 0, 67, 36
1, 334461, Control_c, 0, 64, 50
1, 334476, Control_c, 0, 64, 52
1, 334490, Note_off_c, 0, 55, 55
1, 334491, Control_c, 0, 64, 55
1, 334491, Note_off_c, 0, 59, 49
1, 334497, Note_off_c, 0, 67, 48
1, 334500, Note_off_c, 0, 62, 58
1, 334505, Control_c, 0, 64, 58
1, 334520, Control_c, 0, 64, 61
1, 334535, Control_c, 0, 64, 63
1, 334550, Control_c, 0, 64, 65
1, 334564, Control_c, 0, 64, 67
1, 334572, Note_off_c, 0, 31, 52
1, 334579, Control_c, 0, 64, 69
1, 334594, Control_c, 0, 64, 72
1, 334609, Control_c, 0, 64, 75
1, 334615, Note_off_c, 0, 43, 35
1, 334620, Note_on_c, 0, 55, 41
1, 334624, Control_c, 0, 64, 79
1, 334631, Note_on_c, 0, 62, 32
1, 334635, Note_on_c, 0, 67, 39
1, 334637, Note_on_c, 0, 59, 24
1, 334639, Control_c, 0, 64, 85
1, 334654, Control_c, 0, 64, 91
1, 334669, Control_c, 0, 64, 95
1, 334676, Note_off_c, 0, 67, 47
1, 334679, Note_off_c, 0, 62, 52
1, 334680, Note_off_c, 0, 59, 49
1, 334684, Control_c, 0, 64, 98
1, 334685, Note_off_c, 0, 55, 49
1, 334698, Control_c, 0, 64, 100
1, 334713, Control_c, 0, 64, 102
1, 334728, Control_c, 0, 64, 104
1, 334742, Control_c, 0, 64, 107
1, 334757, Control_c, 0, 64, 109
1, 334772, Control_c, 0, 64, 112
1, 334787, Control_c, 0, 64, 114
1, 334802, Control_c, 0, 64, 117
1, 334810, Note_on_c, 0, 62, 26
1, 334813, Note_on_c, 0, 55, 33
1, 334817, Control_c, 0, 64, 119
1, 334820, Note_on_c, 0, 59, 24
1, 334824, Note_on_c, 0, 67, 36
1, 334831, Control_c, 0, 64, 127
1, 334858, Note_off_c, 0, 62, 50
1, 334867, Note_off_c, 0, 59, 48
1, 334873, Note_off_c, 0, 55, 53
1, 334875, Note_off_c, 0, 67, 44
1, 335033, Control_c, 0, 64, 121
1, 335048, Control_c, 0, 64, 118
1, 335062, Control_c, 0, 64, 115
1, 335077, Control_c, 0, 64, 111
1, 335092, Control_c, 0, 64, 108
1, 335107, Control_c, 0, 64, 104
1, 335122, Control_c, 0, 64, 100
1, 335136, Control_c, 0, 64, 93
1, 335151, Control_c, 0, 64, 83
1, 335166, Control_c, 0, 64, 72
1, 335180, Control_c, 0, 64, 63
1, 335195, Control_c, 0, 64, 45
1, 335198, Note_on_c, 0, 67, 41
1, 335203, Note_on_c, 0, 48, 29
1, 335203, Note_on_c, 0, 60, 35
1, 335204, Note_on_c, 0, 64, 33
1, 335207, Note_on_c, 0, 55, 38
1, 335210, Control_c, 0, 64, 20
1, 335216, Note_on_c, 0, 36, 30
1, 335225, Control_c, 0, 64, 15
1, 335240, Control_c, 0, 64, 19
1, 335254, Control_c, 0, 64, 29
1, 335269, Control_c, 0, 64, 40
1, 335284, Control_c, 0, 64, 51
1, 335299, Control_c, 0, 64, 60
1, 335308, Note_off_c, 0, 36, 58
1, 335314, Control_c, 0, 64, 64
1, 335329, Control_c, 0, 64, 68
1, 335344, Control_c, 0, 64, 71
1, 335350, Note_off_c, 0, 48, 54
1, 335359, Control_c, 0, 64, 76
1, 335373, Control_c, 0, 64, 81
1, 335388, Control_c, 0, 64, 88
1, 335393, Note_off_c, 0, 55, 46
1, 335403, Control_c, 0, 64, 94
1, 335418, Note_off_c, 0, 60, 50
1, 335418, Control_c, 0, 64, 101
1, 335433, Control_c, 0, 64, 107
1, 335447, Control_c, 0, 64, 110
1, 335477, Control_c, 0, 64, 110
1, 335528, Note_on_c, 0, 55, 41
1, 335585, Note_off_c, 0, 55, 53
1, 335654, Control_c, 0, 64, 110
1, 335699, Control_c, 0, 64, 109
1, 335699, Note_on_c, 0, 55, 30
1, 335721, Control_c, 0, 64, 108
1, 335750, Note_off_c, 0, 55, 47
1, 335836, Note_on_c, 0, 55, 35
1, 335890, Note_off_c, 0, 55, 51
1, 335995, Note_on_c, 0, 55, 31
1, 336056, Note_off_c, 0, 55, 47
1, 336146, Poly_aftertouch_c, 0, 55, 127
1, 336155, Note_off_c, 0, 64, 32
1, 336211, Poly_aftertouch_c, 0, 55, 0
1, 336271, Note_off_c, 0, 67, 42
1, 336292, Note_on_c, 0, 55, 19
1, 336347, Note_off_c, 0, 55, 44
1, 336435, Note_on_c, 0, 55, 29
1, 336495, Note_off_c, 0, 55, 47
1, 336599, Note_on_c, 0, 55, 20
1, 336647, Note_off_c, 0, 55, 47
1, 336664, Control_c, 0, 64, 107
1, 336679, Control_c, 0, 64, 106
1, 336693, Control_c, 0, 64, 104
1, 336708, Control_c, 0, 64, 101
1, 336723, Control_c, 0, 64, 96
1, 336738, Control_c, 0, 64, 89
1, 336751, Note_on_c, 0, 71, 51
1, 336752, Control_c, 0, 64, 80
1, 336766, Note_on_c, 0, 62, 40
1, 336767, Control_c, 0, 64, 73
1, 336771, Note_on_c, 0, 67, 36
1, 336782, Control_c, 0, 64, 67
1, 336784, Note_on_c, 0, 55, 21
1, 336797, Control_c, 0, 64, 63
1, 336812, Control_c, 0, 64, 64
1, 336826, Control_c, 0, 64, 64
1, 336834, Note_off_c, 0, 55, 45
1, 336841, Control_c, 0, 64, 65
1, 336856, Control_c, 0, 64, 66
1, 336871, Control_c, 0, 64, 67
1, 336886, Control_c, 0, 64, 68
1, 336889, Note_off_c, 0, 71, 59
1, 336894, Note_off_c, 0, 62, 57
1, 336900, Control_c, 0, 64, 70
1, 336912, Note_on_c, 0, 55, 26
1, 336915, Control_c, 0, 64, 72
1, 336930, Control_c, 0, 64, 74
1, 336933, Note_off_c, 0, 67, 33
1, 336945, Control_c, 0, 64, 76
1, 336959, Control_c, 0, 64, 79
1, 336962, Note_off_c, 0, 55, 45
1, 336974, Control_c, 0, 64, 81
1, 336989, Control_c, 0, 64, 83
1, 337004, Control_c, 0, 64, 84
1, 337019, Control_c, 0, 64, 84
1, 337034, Control_c, 0, 64, 85
1, 337064, Control_c, 0, 64, 85
1, 337076, Note_on_c, 0, 55, 32
1, 337093, Control_c, 0, 64, 86
1, 337112, Note_off_c, 0, 55, 49
1, 337135, Note_on_c, 0, 72, 58
1, 337139, Note_on_c, 0, 64, 51
1, 337161, Note_on_c, 0, 67, 29
1, 337175, Note_off_c, 0, 64, 62
1, 337195, Note_off_c, 0, 67, 45
1, 337197, Control_c, 0, 64, 85
1, 337199, Note_off_c, 0, 72, 57
1, 337212, Control_c, 0, 64, 85
1, 337234, Control_c, 0, 64, 84
1, 337249, Control_c, 0, 64, 82
1, 337264, Control_c, 0, 64, 79
1, 337272, Note_on_c, 0, 55, 33
1, 337278, Control_c, 0, 64, 74
1, 337281, Note_on_c, 0, 74, 58
1, 337293, Control_c, 0, 64, 67
1, 337307, Note_on_c, 0, 65, 42
1, 337308, Control_c, 0, 64, 60
1, 337313, Note_on_c, 0, 67, 39
1, 337323, Control_c, 0, 64, 49
1, 337329, Note_off_c, 0, 55, 56
1, 337338, Control_c, 0, 64, 40
1, 337352, Control_c, 0, 64, 40
1, 337368, Control_c, 0, 64, 40
1, 337383, Control_c, 0, 64, 42
1, 337398, Control_c, 0, 64, 45
1, 337413, Control_c, 0, 64, 49
1, 337427, Control_c, 0, 64, 54
1, 337442, Control_c, 0, 64, 59
1, 337453, Note_on_c, 0, 55, 37
1, 337457, Control_c, 0, 64, 62
1, 337472, Control_c, 0, 64, 64
1, 337487, Control_c, 0, 64, 65
1, 337495, Note_off_c, 0, 55, 52
1, 337502, Control_c, 0, 64, 67
1, 337516, Control_c, 0, 64, 68
1, 337531, Control_c, 0, 64, 70
1, 337546, Control_c, 0, 64, 72
1, 337561, Control_c, 0, 64, 75
1, 337575, Control_c, 0, 64, 77
1, 337588, Note_off_c, 0, 74, 53
1, 337590, Control_c, 0, 64, 78
1, 337597, Note_off_c, 0, 67, 34
1, 337605, Control_c, 0, 64, 80
1, 337620, Note_on_c, 0, 55, 36
1, 337620, Control_c, 0, 64, 81
1, 337632, Note_off_c, 0, 65, 26
1, 337635, Control_c, 0, 64, 81
1, 337649, Control_c, 0, 64, 82
1, 337652, Note_off_c, 0, 55, 52
1, 337723, Control_c, 0, 64, 81
1, 337738, Control_c, 0, 64, 80
1, 337753, Control_c, 0, 64, 79
1, 337755, Note_on_c, 0, 74, 56
1, 337767, Control_c, 0, 64, 77
1, 337768, Note_on_c, 0, 55, 39
1, 337769, Note_on_c, 0, 67, 45
1, 337772, Note_on_c, 0, 65, 52
1, 337782, Control_c, 0, 64, 73
1, 337797, Control_c, 0, 64, 69
1, 337812, Control_c, 0, 64, 65
1, 337818, Note_off_c, 0, 55, 56
1, 337827, Control_c, 0, 64, 63
1, 337842, Control_c, 0, 64, 63
1, 337857, Control_c, 0, 64, 64
1, 337872, Control_c, 0, 64, 65
1, 337887, Control_c, 0, 64, 66
1, 337901, Control_c, 0, 64, 68
1, 337916, Control_c, 0, 64, 69
1, 337931, Control_c, 0, 64, 72
1, 337938, Note_on_c, 0, 55, 40
1, 337946, Control_c, 0, 64, 74
1, 337961, Control_c, 0, 64, 77
1, 337982, Control_c, 0, 64, 79
1, 337986, Note_off_c, 0, 55, 50
1, 337997, Control_c, 0, 64, 82
1, 338012, Control_c, 0, 64, 83
1, 338027, Control_c, 0, 64, 85
1, 338042, Control_c, 0, 64, 85
1, 338056, Control_c, 0, 64, 86
1, 338084, Note_off_c, 0, 74, 31
1, 338086, Control_c, 0, 64, 87
1, 338101, Control_c, 0, 64, 87
1, 338107, Note_on_c, 0, 55, 38
1, 338107, Note_off_c, 0, 67, 34
1, 338112, Note_off_c, 0, 65, 32
1, 338145, Note_off_c, 0, 55, 51
1, 338161, Control_c, 0, 64, 87
1, 338176, Control_c, 0, 64, 86
1, 338191, Control_c, 0, 64, 86
1, 338205, Control_c, 0, 64, 85
1, 338220, Control_c, 0, 64, 84
1, 338235, Control_c, 0, 64, 81
1, 338239, Note_on_c, 0, 74, 57
1, 338250, Control_c, 0, 64, 76
1, 338257, Note_on_c, 0, 55, 49
1, 338262, Note_on_c, 0, 67, 47
1, 338265, Control_c, 0, 64, 69
1, 338268, Note_on_c, 0, 65, 48
1, 338280, Control_c, 0, 64, 61
1, 338295, Control_c, 0, 64, 50
1, 338304, Note_off_c, 0, 55, 58
1, 338310, Control_c, 0, 64, 42
1, 338325, Control_c, 0, 64, 42
1, 338339, Control_c, 0, 64, 42
1, 338354, Control_c, 0, 64, 45
1, 338369, Control_c, 0, 64, 48
1, 338384, Control_c, 0, 64, 53
1, 338398, Control_c, 0, 64, 58
1, 338413, Control_c, 0, 64, 61
1, 338418, Note_on_c, 0, 55, 41
1, 338428, Control_c, 0, 64, 64
1, 338443, Control_c, 0, 64, 66
1, 338454, Note_off_c, 0, 55, 53
1, 338458, Control_c, 0, 64, 68
1, 338472, Control_c, 0, 64, 71
1, 338474, Note_off_c, 0, 65, 55
1, 338487, Control_c, 0, 64, 75
1, 338502, Control_c, 0, 64, 80
1, 338508, Note_off_c, 0, 67, 37
1, 338515, Note_off_c, 0, 74, 54
1, 338517, Control_c, 0, 64, 85
1, 338532, Control_c, 0, 64, 89
1, 338546, Control_c, 0, 64, 94
1, 338561, Control_c, 0, 64, 99
1, 338576, Control_c, 0, 64, 100
1, 338579, Note_on_c, 0, 55, 44
1, 338590, Control_c, 0, 64, 101
1, 338614, Note_off_c, 0, 55, 54
1, 338635, Control_c, 0, 64, 100
1, 338650, Control_c, 0, 64, 100
1, 338665, Control_c, 0, 64, 99
1, 338679, Control_c, 0, 64, 97
1, 338694, Control_c, 0, 64, 94
1, 338709, Control_c, 0, 64, 89
1, 338731, Control_c, 0, 64, 82
1, 338736, Note_on_c, 0, 72, 58
1, 338745, Note_on_c, 0, 55, 38
1, 338746, Control_c, 0, 64, 71
1, 338751, Note_on_c, 0, 64, 42
1, 338754, Note_on_c, 0, 67, 42
1, 338761, Control_c, 0, 64, 63
1, 338776, Control_c, 0, 64, 54
1, 338777, Note_off_c, 0, 55, 53
1, 338791, Control_c, 0, 64, 49
1, 338820, Control_c, 0, 64, 52
1, 338835, Control_c, 0, 64, 55
1, 338850, Control_c, 0, 64, 58
1, 338865, Control_c, 0, 64, 61
1, 338879, Control_c, 0, 64, 64
1, 338885, Note_on_c, 0, 55, 44
1, 338894, Control_c, 0, 64, 66
1, 338909, Control_c, 0, 64, 68
1, 338915, Note_off_c, 0, 64, 43
1, 338924, Control_c, 0, 64, 71
1, 338935, Note_off_c, 0, 55, 56
1, 338939, Control_c, 0, 64, 76
1, 338944, Note_off_c, 0, 72, 57
1, 338954, Control_c, 0, 64, 81
1, 338966, Note_off_c, 0, 67, 39
1, 338969, Control_c, 0, 64, 87
1, 338984, Control_c, 0, 64, 94
1, 338999, Control_c, 0, 64, 100
1, 339013, Control_c, 0, 64, 104
1, 339028, Control_c, 0, 64, 109
1, 339043, Control_c, 0, 64, 111
1, 339058, Control_c, 0, 64, 113
1, 339073, Control_c, 0, 64, 113
1, 339085, Note_on_c, 0, 55, 39
1, 339118, Control_c, 0, 64, 114
1, 339133, Control_c, 0, 64, 115
1, 339139, Note_off_c, 0, 55, 52
1, 339147, Control_c, 0, 64, 116
1, 339150, Note_on_c, 0, 74, 59
1, 339162, Control_c, 0, 64, 117
1, 339162, Note_on_c, 0, 65, 47
1, 339177, Control_c, 0, 64, 118
1, 339201, Note_off_c, 0, 65, 60
1, 339213, Note_off_c, 0, 74, 59
1, 339236, Control_c, 0, 64, 117
1, 339251, Control_c, 0, 64, 113
1, 339266, Control_c, 0, 64, 110
1, 339281, Control_c, 0, 64, 105
1, 339295, Control_c, 0, 64, 99
1, 339310, Control_c, 0, 64, 94
1, 339323, Note_on_c, 0, 76, 60
1, 339325, Control_c, 0, 64, 87
1, 339335, Note_on_c, 0, 67, 44
1, 339338, Note_on_c, 0, 55, 37
1, 339339, Control_c, 0, 64, 79
1, 339354, Control_c, 0, 64, 70
1, 339369, Control_c, 0, 64, 62
1, 339374, Note_off_c, 0, 55, 51
1, 339384, Control_c, 0, 64, 51
1, 339399, Control_c, 0, 64, 40
1, 339413, Control_c, 0, 64, 38
1, 339428, Control_c, 0, 64, 38
1, 339481, Control_c, 0, 64, 37
1, 339502, Note_on_c, 0, 55, 40
1, 339510, Control_c, 0, 64, 39
1, 339525, Control_c, 0, 64, 42
1, 339539, Control_c, 0, 64, 47
1, 339554, Control_c, 0, 64, 52
1, 339557, Note_off_c, 0, 55, 56
1, 339569, Control_c, 0, 64, 57
1, 339584, Control_c, 0, 64, 61
1, 339599, Control_c, 0, 64, 63
1, 339614, Control_c, 0, 64, 65
1, 339628, Control_c, 0, 64, 66
1, 339643, Control_c, 0, 64, 68
1, 339658, Control_c, 0, 64, 71
1, 339659, Note_on_c, 0, 55, 36
1, 339673, Control_c, 0, 64, 75
1, 339688, Control_c, 0, 64, 79
1, 339700, Note_off_c, 0, 55, 48
1, 339702, Control_c, 0, 64, 84
1, 339718, Control_c, 0, 64, 89
1, 339733, Control_c, 0, 64, 93
1, 339747, Note_off_c, 0, 76, 59
1, 339747, Control_c, 0, 64, 96
1, 339762, Control_c, 0, 64, 98
1, 339778, Control_c, 0, 64, 99
1, 339793, Control_c, 0, 64, 100
1, 339806, Note_off_c, 0, 67, 48
1, 339808, Control_c, 0, 64, 101
1, 339820, Note_on_c, 0, 55, 24
1, 339823, Control_c, 0, 64, 103
1, 339838, Control_c, 0, 64, 104
1, 339852, Control_c, 0, 64, 105
1, 339861, Note_off_c, 0, 55, 48
1, 339882, Control_c, 0, 64, 106
1, 339897, Control_c, 0, 64, 106
1, 339912, Control_c, 0, 64, 107
1, 339941, Control_c, 0, 64, 107
1, 339946, Note_on_c, 0, 55, 45
1, 339994, Note_off_c, 0, 55, 57
1, 340030, Note_on_c, 0, 74, 56
1, 340043, Note_on_c, 0, 65, 51
1, 340045, Control_c, 0, 64, 108
1, 340054, Note_on_c, 0, 67, 40
1, 340075, Control_c, 0, 64, 108
1, 340092, Note_off_c, 0, 65, 57
1, 340100, Note_off_c, 0, 67, 52
1, 340125, Note_on_c, 0, 55, 42
1, 340130, Note_off_c, 0, 74, 56
1, 340149, Control_c, 0, 64, 107
1, 340163, Control_c, 0, 64, 106
1, 340176, Note_off_c, 0, 55, 57
1, 340178, Control_c, 0, 64, 104
1, 340193, Control_c, 0, 64, 102
1, 340215, Control_c, 0, 64, 99
1, 340230, Control_c, 0, 64, 95
1, 340244, Control_c, 0, 64, 86
1, 340259, Control_c, 0, 64, 76
1, 340274, Control_c, 0, 64, 65
1, 340281, Note_on_c, 0, 72, 53
1, 340289, Control_c, 0, 64, 55
1, 340292, Note_on_c, 0, 67, 38
1, 340295, Note_on_c, 0, 64, 40
1, 340297, Note_on_c, 0, 55, 41
1, 340304, Control_c, 0, 64, 43
1, 340319, Control_c, 0, 64, 40
1, 340331, Note_off_c, 0, 55, 56
1, 340334, Control_c, 0, 64, 42
1, 340349, Control_c, 0, 64, 45
1, 340363, Control_c, 0, 64, 49
1, 340378, Control_c, 0, 64, 54
1, 340393, Control_c, 0, 64, 58
1, 340408, Control_c, 0, 64, 62
1, 340423, Control_c, 0, 64, 64
1, 340437, Control_c, 0, 64, 66
1, 340445, Note_on_c, 0, 55, 39
1, 340452, Control_c, 0, 64, 68
1, 340466, Control_c, 0, 64, 70
1, 340475, Note_off_c, 0, 55, 53
1, 340481, Control_c, 0, 64, 73
1, 340496, Control_c, 0, 64, 76
1, 340511, Control_c, 0, 64, 80
1, 340525, Control_c, 0, 64, 82
1, 340535, Note_off_c, 0, 64, 46
1, 340540, Control_c, 0, 64, 84
1, 340546, Note_off_c, 0, 67, 41
1, 340555, Control_c, 0, 64, 85
1, 340571, Control_c, 0, 64, 86
1, 340584, Note_on_c, 0, 55, 44
1, 340614, Note_off_c, 0, 72, 38
1, 340637, Note_off_c, 0, 55, 56
1, 340674, Control_c, 0, 64, 85
1, 340689, Control_c, 0, 64, 85
1, 340704, Control_c, 0, 64, 83
1, 340719, Control_c, 0, 64, 81
1, 340734, Control_c, 0, 64, 78
1, 340745, Note_on_c, 0, 74, 56
1, 340748, Control_c, 0, 64, 71
1, 340758, Note_on_c, 0, 65, 46
1, 340763, Control_c, 0, 64, 64
1, 340766, Note_on_c, 0, 55, 36
1, 340766, Note_on_c, 0, 67, 41
1, 340778, Control_c, 0, 64, 56
1, 340793, Control_c, 0, 64, 49
1, 340804, Note_off_c, 0, 55, 50
1, 340808, Control_c, 0, 64, 50
1, 340823, Control_c, 0, 64, 53
1, 340838, Control_c, 0, 64, 55
1, 340853, Control_c, 0, 64, 59
1, 340867, Control_c, 0, 64, 61
1, 340882, Control_c, 0, 64, 63
1, 340883, Note_off_c, 0, 74, 58
1, 340897, Control_c, 0, 64, 65
1, 340911, Note_off_c, 0, 65, 59
1, 340912, Control_c, 0, 64, 66
1, 340925, Note_on_c, 0, 55, 34
1, 340927, Control_c, 0, 64, 68
1, 340941, Control_c, 0, 64, 70
1, 340942, Note_off_c, 0, 67, 42
1, 340956, Control_c, 0, 64, 73
1, 340972, Note_off_c, 0, 55, 49
1, 340978, Control_c, 0, 64, 76
1, 340993, Control_c, 0, 64, 79
1, 341008, Control_c, 0, 64, 81
1, 341022, Control_c, 0, 64, 83
1, 341037, Control_c, 0, 64, 84
1, 341052, Control_c, 0, 64, 84
1, 341067, Control_c, 0, 64, 85
1, 341082, Control_c, 0, 64, 85
1, 341097, Control_c, 0, 64, 86
1, 341104, Note_on_c, 0, 55, 28
1, 341112, Control_c, 0, 64, 86
1, 341124, Note_on_c, 0, 64, 53
1, 341128, Note_on_c, 0, 72, 53
1, 341138, Note_off_c, 0, 55, 52
1, 341140, Note_on_c, 0, 67, 38
1, 341160, Note_off_c, 0, 64, 64
1, 341174, Note_off_c, 0, 72, 60
1, 341181, Note_off_c, 0, 67, 45
1, 341185, Control_c, 0, 64, 86
1, 341200, Control_c, 0, 64, 85
1, 341215, Control_c, 0, 64, 85
1, 341230, Control_c, 0, 64, 83
1, 341244, Note_on_c, 0, 71, 57
1, 341245, Note_on_c, 0, 55, 47
1, 341245, Control_c, 0, 64, 80
1, 341258, Note_on_c, 0, 67, 34
1, 341260, Control_c, 0, 64, 74
1, 341274, Note_on_c, 0, 62, 46
1, 341274, Control_c, 0, 64, 67
1, 341289, Control_c, 0, 64, 60
1, 341303, Note_off_c, 0, 55, 56
1, 341304, Control_c, 0, 64, 49
1, 341319, Control_c, 0, 64, 43
1, 341333, Control_c, 0, 64, 44
1, 341348, Control_c, 0, 64, 47
1, 341364, Control_c, 0, 64, 51
1, 341379, Control_c, 0, 64, 55
1, 341394, Control_c, 0, 64, 59
1, 341408, Control_c, 0, 64, 62
1, 341422, Note_on_c, 0, 55, 40
1, 341423, Control_c, 0, 64, 64
1, 341438, Control_c, 0, 64, 65
1, 341453, Control_c, 0, 64, 67
1, 341461, Note_off_c, 0, 55, 59
1, 341464, Note_off_c, 0, 67, 40
1, 341468, Control_c, 0, 64, 70
1, 341476, Note_off_c, 0, 62, 38
1, 341483, Control_c, 0, 64, 73
1, 341497, Control_c, 0, 64, 76
1, 341512, Control_c, 0, 64, 80
1, 341527, Control_c, 0, 64, 84
1, 341542, Control_c, 0, 64, 88
1, 341557, Control_c, 0, 64, 91
1, 341571, Note_on_c, 0, 55, 49
1, 341571, Control_c, 0, 64, 93
1, 341586, Control_c, 0, 64, 93
1, 341601, Control_c, 0, 64, 94
1, 341612, Note_off_c, 0, 55, 59
1, 341622, Note_off_c, 0, 71, 53
1, 341660, Control_c, 0, 64, 93
1, 341675, Control_c, 0, 64, 93
1, 341690, Control_c, 0, 64, 92
1, 341705, Control_c, 0, 64, 90
1, 341727, Control_c, 0, 64, 86
1, 341734, Note_on_c, 0, 69, 60
1, 341742, Control_c, 0, 64, 80
1, 341744, Note_on_c, 0, 55, 39
1, 341745, Note_on_c, 0, 60, 44
1, 341749, Note_on_c, 0, 53, 49
1, 341750, Note_on_c, 0, 67, 43
1, 341757, Control_c, 0, 64, 70
1, 341771, Control_c, 0, 64, 63
1, 341782, Note_off_c, 0, 53, 60
1, 341786, Control_c, 0, 64, 54
1, 341795, Note_off_c, 0, 55, 56
1, 341801, Control_c, 0, 64, 53
1, 341815, Control_c, 0, 64, 55
1, 341830, Control_c, 0, 64, 58
1, 341845, Control_c, 0, 64, 60
1, 341860, Control_c, 0, 64, 63
1, 341875, Control_c, 0, 64, 64
1, 341890, Control_c, 0, 64, 66
1, 341893, Note_on_c, 0, 53, 36
1, 341905, Control_c, 0, 64, 68
1, 341920, Control_c, 0, 64, 72
1, 341928, Note_off_c, 0, 53, 50
1, 341935, Control_c, 0, 64, 75
1, 341937, Note_off_c, 0, 67, 41
1, 341950, Control_c, 0, 64, 79
1, 341950, Poly_aftertouch_c, 0, 55, 127
1, 341964, Control_c, 0, 64, 83
1, 341979, Control_c, 0, 64, 87
1, 341983, Poly_aftertouch_c, 0, 55, 0
1, 341994, Control_c, 0, 64, 90
1, 342009, Control_c, 0, 64, 92
1, 342023, Control_c, 0, 64, 93
1, 342049, Note_on_c, 0, 53, 47
1, 342049, Note_off_c, 0, 60, 32
1, 342053, Control_c, 0, 64, 94
1, 342068, Control_c, 0, 64, 95
1, 342074, Note_on_c, 0, 55, 21
1, 342082, Control_c, 0, 64, 95
1, 342089, Note_off_c, 0, 69, 30
1, 342091, Note_off_c, 0, 53, 59
1, 342113, Note_on_c, 0, 71, 57
1, 342116, Note_off_c, 0, 55, 48
1, 342141, Control_c, 0, 64, 95
1, 342158, Control_c, 0, 64, 94
1, 342161, Note_off_c, 0, 71, 54
1, 342173, Control_c, 0, 64, 93
1, 342187, Control_c, 0, 64, 91
1, 342198, Poly_aftertouch_c, 0, 67, 127
1, 342202, Control_c, 0, 64, 87
1, 342217, Control_c, 0, 64, 78
1, 342224, Note_on_c, 0, 72, 59
1, 342227, Note_on_c, 0, 52, 47
1, 342231, Control_c, 0, 64, 69
1, 342246, Control_c, 0, 64, 61
1, 342249, Note_on_c, 0, 55, 35
1, 342250, Note_on_c, 0, 60, 40
1, 342261, Control_c, 0, 64, 51
1, 342271, Note_off_c, 0, 52, 59
1, 342276, Control_c, 0, 64, 47
1, 342291, Control_c, 0, 64, 49
1, 342292, Note_off_c, 0, 55, 58
1, 342306, Control_c, 0, 64, 53
1, 342320, Control_c, 0, 64, 56
1, 342335, Control_c, 0, 64, 60
1, 342350, Control_c, 0, 64, 62
1, 342355, Note_off_c, 0, 60, 55
1, 342365, Control_c, 0, 64, 64
1, 342380, Control_c, 0, 64, 66
1, 342394, Control_c, 0, 64, 68
1, 342399, Note_on_c, 0, 52, 39
1, 342402, Poly_aftertouch_c, 0, 67, 0
1, 342409, Control_c, 0, 64, 71
1, 342424, Control_c, 0, 64, 74
1, 342432, Note_off_c, 0, 52, 52
1, 342438, Control_c, 0, 64, 79
1, 342444, Note_on_c, 0, 55, 3
1, 342453, Control_c, 0, 64, 84
1, 342472, Note_off_c, 0, 72, 57
1, 342476, Control_c, 0, 64, 90
1, 342491, Control_c, 0, 64, 93
1, 342506, Control_c, 0, 64, 95
1, 342520, Control_c, 0, 64, 95
1, 342535, Note_off_c, 0, 55, 0
1, 342535, Control_c, 0, 64, 96
1, 342542, Note_on_c, 0, 52, 49
1, 342550, Control_c, 0, 64, 97
1, 342552, Note_on_c, 0, 55, 28
1, 342564, Control_c, 0, 64, 99
1, 342579, Control_c, 0, 64, 100
1, 342582, Note_off_c, 0, 52, 62
1, 342624, Note_off_c, 0, 55, 43
1, 342638, Control_c, 0, 64, 99
1, 342653, Control_c, 0, 64, 99
1, 342668, Control_c, 0, 64, 97
1, 342683, Control_c, 0, 64, 96
1, 342698, Control_c, 0, 64, 93
1, 342713, Control_c, 0, 64, 88
1, 342725, Note_on_c, 0, 74, 53
1, 342726, Note_on_c, 0, 55, 31
1, 342728, Control_c, 0, 64, 79
1, 342733, Note_on_c, 0, 71, 46
1, 342742, Control_c, 0, 64, 67
1, 342744, Note_on_c, 0, 67, 39
1, 342748, Note_on_c, 0, 48, 44
1, 342757, Control_c, 0, 64, 59
1, 342772, Control_c, 0, 64, 50
1, 342787, Control_c, 0, 64, 48
1, 342802, Control_c, 0, 64, 50
1, 342804, Note_off_c, 0, 48, 56
1, 342817, Control_c, 0, 64, 53
1, 342819, Note_off_c, 0, 55, 55
1, 342832, Control_c, 0, 64, 56
1, 342846, Control_c, 0, 64, 59
1, 342861, Control_c, 0, 64, 62
1, 342876, Control_c, 0, 64, 63
1, 342891, Control_c, 0, 64, 65
1, 342906, Control_c, 0, 64, 67
1, 342920, Control_c, 0, 64, 70
1, 342921, Note_on_c, 0, 48, 35
1, 342921, Note_on_c, 0, 55, 29
1, 342935, Control_c, 0, 64, 74
1, 342950, Control_c, 0, 64, 77
1, 342962, Note_off_c, 0, 71, 37
1, 342966, Note_off_c, 0, 48, 53
1, 342966, Control_c, 0, 64, 81
1, 342975, Note_off_c, 0, 55, 52
1, 342979, Note_off_c, 0, 74, 52
1, 342980, Control_c, 0, 64, 83
1, 342990, Note_off_c, 0, 67, 49
1, 342995, Control_c, 0, 64, 84
1, 343010, Control_c, 0, 64, 85
1, 343025, Control_c, 0, 64, 86
1, 343040, Control_c, 0, 64, 87
1, 343054, Control_c, 0, 64, 87
1, 343069, Control_c, 0, 64, 88
1, 343084, Control_c, 0, 64, 88
1, 343122, Note_on_c, 0, 48, 40
1, 343135, Note_on_c, 0, 55, 32
1, 343157, Note_off_c, 0, 48, 52
1, 343158, Control_c, 0, 64, 89
1, 343173, Control_c, 0, 64, 89
1, 343187, Control_c, 0, 64, 90
1, 343201, Note_on_c, 0, 76, 52
1, 343202, Control_c, 0, 64, 90
1, 343221, Note_on_c, 0, 67, 38
1, 343225, Control_c, 0, 64, 91
1, 343226, Note_on_c, 0, 72, 48
1, 343264, Note_off_c, 0, 72, 60
1, 343268, Note_off_c, 0, 76, 53
1, 343273, Note_off_c, 0, 67, 58
1, 343329, Control_c, 0, 64, 90
1, 343343, Control_c, 0, 64, 89
1, 343354, Note_off_c, 0, 55, 15
1, 343358, Control_c, 0, 64, 88
1, 343373, Control_c, 0, 64, 86
1, 343387, Note_on_c, 0, 74, 51
1, 343387, Control_c, 0, 64, 83
1, 343400, Note_on_c, 0, 67, 43
1, 343402, Control_c, 0, 64, 79
1, 343412, Note_on_c, 0, 43, 42
1, 343414, Note_on_c, 0, 71, 48
1, 343417, Control_c, 0, 64, 75
1, 343432, Control_c, 0, 64, 69
1, 343447, Control_c, 0, 64, 63
1, 343462, Control_c, 0, 64, 54
1, 343477, Control_c, 0, 64, 46
1, 343492, Control_c, 0, 64, 41
1, 343507, Control_c, 0, 64, 40
1, 343522, Control_c, 0, 64, 39
1, 343536, Control_c, 0, 64, 37
1, 343551, Control_c, 0, 64, 36
1, 343595, Control_c, 0, 64, 40
1, 343596, Note_on_c, 0, 55, 46
1, 343610, Control_c, 0, 64, 44
1, 343625, Control_c, 0, 64, 50
1, 343640, Control_c, 0, 64, 55
1, 343647, Note_off_c, 0, 55, 58
1, 343655, Control_c, 0, 64, 59
1, 343669, Control_c, 0, 64, 61
1, 343684, Control_c, 0, 64, 63
1, 343699, Control_c, 0, 64, 64
1, 343714, Control_c, 0, 64, 65
1, 343729, Control_c, 0, 64, 66
1, 343744, Control_c, 0, 64, 67
1, 343759, Note_on_c, 0, 55, 43
1, 343759, Control_c, 0, 64, 69
1, 343774, Control_c, 0, 64, 71
1, 343789, Control_c, 0, 64, 73
1, 343790, Note_off_c, 0, 55, 57
1, 343804, Control_c, 0, 64, 75
1, 343819, Control_c, 0, 64, 77
1, 343833, Control_c, 0, 64, 79
1, 343848, Control_c, 0, 64, 81
1, 343863, Control_c, 0, 64, 83
1, 343878, Control_c, 0, 64, 86
1, 343881, Note_on_c, 0, 55, 56
1, 343893, Control_c, 0, 64, 88
1, 343896, Note_off_c, 0, 67, 42
1, 343908, Control_c, 0, 64, 91
1, 343922, Note_off_c, 0, 55, 62
1, 343923, Control_c, 0, 64, 94
1, 343938, Control_c, 0, 64, 97
1, 343959, Control_c, 0, 64, 100
1, 343965, Note_off_c, 0, 71, 35
1, 343974, Control_c, 0, 64, 104
1, 343982, Note_off_c, 0, 74, 58
1, 343984, Note_off_c, 0, 43, 37
1, 343989, Control_c, 0, 64, 108
1, 344004, Control_c, 0, 64, 113
1, 344018, Control_c, 0, 64, 119
1, 344025, Note_on_c, 0, 55, 57
1, 344033, Control_c, 0, 64, 127
1, 344091, Note_off_c, 0, 55, 57
1, 344182, Note_on_c, 0, 55, 61
1, 344210, Control_c, 0, 67, 103
1, 344213, Note_off_c, 0, 55, 63
1, 344224, Control_c, 0, 67, 68
1, 344239, Control_c, 0, 67, 23
1, 344254, Control_c, 0, 67, 0
1, 344319, Note_on_c, 0, 55, 65
1, 344357, Note_off_c, 0, 55, 61
1, 344453, Note_on_c, 0, 55, 76
1, 344498, Note_off_c, 0, 55, 59
1, 344596, Note_on_c, 0, 55, 75
1, 344655, Note_off_c, 0, 55, 60
1, 344741, Note_on_c, 0, 71, 84
1, 344744, Note_on_c, 0, 59, 76
1, 344749, Note_on_c, 0, 55, 70
1, 344751, Note_on_c, 0, 67, 67
1, 344796, Note_off_c, 0, 55, 60
1, 344837, Note_off_c, 0, 59, 58
1, 344841, Note_off_c, 0, 67, 61
1, 344889, Note_off_c, 0, 71, 57
1, 344892, Note_on_c, 0, 55, 78
1, 344945, Note_off_c, 0, 55, 60
1, 345028, Note_on_c, 0, 55, 77
1, 345076, Note_on_c, 0, 60, 83
1, 345076, Note_on_c, 0, 72, 85
1, 345085, Note_on_c, 0, 69, 74
1, 345102, Note_off_c, 0, 55, 63
1, 345130, Note_off_c, 0, 60, 64
1, 345141, Note_off_c, 0, 69, 63
1, 345156, Note_off_c, 0, 72, 63
1, 345202, Note_on_c, 0, 55, 79
1, 345211, Control_c, 0, 64, 104
1, 345226, Control_c, 0, 64, 78
1, 345227, Note_on_c, 0, 74, 89
1, 345231, Note_on_c, 0, 62, 88
1, 345236, Note_on_c, 0, 71, 75
1, 345240, Control_c, 0, 64, 62
1, 345255, Control_c, 0, 64, 0
1, 345278, Note_off_c, 0, 55, 62
1, 345344, Control_c, 0, 64, 27
1, 345360, Control_c, 0, 64, 58
1, 345375, Control_c, 0, 64, 67
1, 345378, Note_on_c, 0, 55, 83
1, 345389, Control_c, 0, 64, 79
1, 345404, Control_c, 0, 64, 115
1, 345411, Note_off_c, 0, 71, 55
1, 345419, Control_c, 0, 64, 127
1, 345440, Note_off_c, 0, 55, 61
1, 345473, Note_off_c, 0, 62, 56
1, 345476, Note_off_c, 0, 74, 54
1, 345518, Note_on_c, 0, 55, 83
1, 345580, Note_off_c, 0, 55, 60
1, 345658, Note_on_c, 0, 74, 88
1, 345659, Note_on_c, 0, 54, 84
1, 345661, Note_on_c, 0, 62, 87
1, 345663, Control_c, 0, 64, 86
1, 345667, Note_on_c, 0, 71, 76
1, 345670, Note_on_c, 0, 55, 67
1, 345678, Control_c, 0, 64, 66
1, 345693, Control_c, 0, 64, 47
1, 345708, Control_c, 0, 64, 16
1, 345723, Control_c, 0, 64, 24
1, 345729, Note_off_c, 0, 54, 63
1, 345731, Note_off_c, 0, 55, 43
1, 345737, Control_c, 0, 64, 45
1, 345752, Control_c, 0, 64, 60
1, 345767, Control_c, 0, 64, 68
1, 345781, Control_c, 0, 64, 78
1, 345796, Control_c, 0, 64, 102
1, 345811, Control_c, 0, 64, 127
1, 345812, Note_on_c, 0, 54, 87
1, 345832, Note_on_c, 0, 55, 63
1, 345865, Note_off_c, 0, 54, 63
1, 345872, Note_off_c, 0, 55, 62
1, 345877, Note_off_c, 0, 74, 50
1, 345887, Note_off_c, 0, 71, 56
1, 345907, Note_off_c, 0, 62, 49
1, 345944, Note_on_c, 0, 54, 90
1, 345962, Note_on_c, 0, 55, 69
1, 346009, Note_off_c, 0, 54, 64
1, 346027, Note_off_c, 0, 55, 59
1, 346093, Control_c, 0, 64, 110
1, 346099, Note_on_c, 0, 53, 83
1, 346100, Note_on_c, 0, 74, 97
1, 346102, Note_on_c, 0, 62, 91
1, 346107, Note_on_c, 0, 71, 78
1, 346108, Control_c, 0, 64, 69
1, 346123, Control_c, 0, 64, 0
1, 346124, Note_on_c, 0, 55, 55
1, 346165, Note_off_c, 0, 55, 61
1, 346171, Note_off_c, 0, 53, 62
1, 346197, Control_c, 0, 64, 28
1, 346219, Control_c, 0, 64, 63
1, 346234, Control_c, 0, 64, 79
1, 346249, Control_c, 0, 64, 127
1, 346261, Note_on_c, 0, 53, 92
1, 346275, Note_on_c, 0, 55, 68
1, 346314, Note_off_c, 0, 55, 61
1, 346314, Note_off_c, 0, 62, 58
1, 346318, Note_off_c, 0, 53, 64
1, 346323, Note_off_c, 0, 74, 58
1, 346358, Note_off_c, 0, 71, 59
1, 346408, Note_on_c, 0, 55, 79
1, 346414, Note_on_c, 0, 52, 81
1, 346429, Note_on_c, 0, 53, 63
1, 346443, Note_off_c, 0, 53, 70
1, 346468, Note_off_c, 0, 52, 64
1, 346488, Note_off_c, 0, 55, 57
1, 346555, Note_on_c, 0, 52, 85
1, 346561, Note_on_c, 0, 55, 64
1, 346566, Note_on_c, 0, 64, 95
1, 346569, Note_on_c, 0, 72, 86
1, 346570, Note_on_c, 0, 76, 94
1, 346574, Control_c, 0, 64, 85
1, 346589, Control_c, 0, 64, 60
1, 346603, Control_c, 0, 64, 0
1, 346609, Note_off_c, 0, 52, 64
1, 346618, Note_off_c, 0, 55, 60
1, 346663, Control_c, 0, 64, 48
1, 346677, Control_c, 0, 64, 64
1, 346692, Control_c, 0, 64, 74
1, 346701, Note_off_c, 0, 64, 57
1, 346704, Note_off_c, 0, 72, 64
1, 346704, Note_on_c, 0, 52, 90
1, 346707, Control_c, 0, 64, 99
1, 346722, Note_on_c, 0, 55, 69
1, 346722, Control_c, 0, 64, 127
1, 346746, Note_off_c, 0, 76, 58
1, 346765, Note_off_c, 0, 55, 57
1, 346770, Note_off_c, 0, 52, 64
1, 346848, Note_on_c, 0, 50, 90
1, 346862, Note_on_c, 0, 55, 76
1, 346925, Note_on_c, 0, 65, 97
1, 346930, Note_on_c, 0, 74, 81
1, 346930, Note_on_c, 0, 77, 94
1, 346953, Note_off_c, 0, 55, 62
1, 346962, Note_off_c, 0, 50, 62
1, 347002, Note_off_c, 0, 65, 60
1, 347020, Note_off_c, 0, 74, 60
1, 347036, Note_off_c, 0, 77, 61
1, 347065, Note_on_c, 0, 55, 82
1, 347068, Note_on_c, 0, 48, 81
1, 347101, Control_c, 0, 64, 121
1, 347115, Control_c, 0, 64, 82
1, 347127, Note_on_c, 0, 79, 84
1, 347130, Note_on_c, 0, 67, 91
1, 347130, Control_c, 0, 64, 60
1, 347131, Note_on_c, 0, 76, 76
1, 347145, Control_c, 0, 64, 0
1, 347184, Note_off_c, 0, 48, 61
1, 347185, Note_off_c, 0, 55, 60
1, 347250, Control_c, 0, 64, 13
1, 347264, Control_c, 0, 64, 50
1, 347279, Control_c, 0, 64, 62
1, 347294, Control_c, 0, 64, 69
1, 347295, Note_on_c, 0, 48, 64
1, 347295, Note_on_c, 0, 55, 60
1, 347309, Control_c, 0, 64, 84
1, 347324, Control_c, 0, 64, 127
1, 347342, Note_off_c, 0, 55, 55
1, 347351, Note_off_c, 0, 76, 58
1, 347357, Note_off_c, 0, 48, 60
1, 347381, Note_off_c, 0, 67, 59
1, 347409, Note_off_c, 0, 79, 59
1, 347436, Note_on_c, 0, 55, 64
1, 347443, Note_on_c, 0, 48, 52
1, 347479, Note_off_c, 0, 48, 64
1, 347484, Note_off_c, 0, 55, 58
1, 347590, Control_c, 0, 64, 82
1, 347592, Note_on_c, 0, 77, 79
1, 347595, Note_on_c, 0, 74, 62
1, 347598, Note_on_c, 0, 71, 67
1, 347605, Control_c, 0, 64, 63
1, 347611, Note_on_c, 0, 50, 49
1, 347616, Note_on_c, 0, 53, 54
1, 347619, Control_c, 0, 64, 0
1, 347626, Note_on_c, 0, 44, 43
1, 347667, Note_off_c, 0, 44, 57
1, 347671, Note_off_c, 0, 53, 59
1, 347689, Note_off_c, 0, 50, 62
1, 347694, Control_c, 0, 64, 38
1, 347716, Control_c, 0, 64, 57
1, 347731, Control_c, 0, 64, 65
1, 347746, Control_c, 0, 64, 71
1, 347750, Note_off_c, 0, 74, 56
1, 347762, Control_c, 0, 64, 83
1, 347768, Note_on_c, 0, 50, 41
1, 347772, Note_on_c, 0, 44, 55
1, 347777, Note_on_c, 0, 53, 56
1, 347777, Control_c, 0, 64, 115
1, 347792, Control_c, 0, 64, 127
1, 347807, Note_off_c, 0, 77, 54
1, 347814, Note_off_c, 0, 53, 60
1, 347832, Note_off_c, 0, 50, 58
1, 347835, Note_off_c, 0, 44, 51
1, 347902, Note_on_c, 0, 44, 41
1, 347915, Note_on_c, 0, 53, 53
1, 347930, Note_on_c, 0, 50, 31
1, 347955, Note_off_c, 0, 53, 61
1, 347968, Note_off_c, 0, 44, 58
1, 347986, Note_off_c, 0, 50, 57
1, 348043, Control_c, 0, 64, 99
1, 348057, Control_c, 0, 64, 70
1, 348060, Note_off_c, 0, 71, 54
1, 348063, Note_on_c, 0, 76, 64
1, 348066, Note_on_c, 0, 72, 58
1, 348067, Note_on_c, 0, 52, 54
1, 348072, Control_c, 0, 64, 49
1, 348082, Note_on_c, 0, 48, 45
1, 348087, Control_c, 0, 64, 0
1, 348090, Note_on_c, 0, 45, 39
1, 348124, Note_off_c, 0, 52, 56
1, 348134, Note_off_c, 0, 48, 56
1, 348140, Note_off_c, 0, 45, 58
1, 348147, Control_c, 0, 64, 47
1, 348162, Control_c, 0, 64, 62
1, 348177, Control_c, 0, 64, 70
1, 348192, Control_c, 0, 64, 81
1, 348206, Control_c, 0, 64, 110
1, 348212, Note_off_c, 0, 72, 58
1, 348221, Control_c, 0, 64, 127
1, 348224, Note_on_c, 0, 52, 52
1, 348225, Note_on_c, 0, 48, 46
1, 348234, Note_off_c, 0, 76, 60
1, 348242, Note_on_c, 0, 45, 30
1, 348272, Note_off_c, 0, 52, 57
1, 348273, Note_off_c, 0, 48, 58
1, 348278, Note_off_c, 0, 45, 51
1, 348371, Note_on_c, 0, 45, 54
1, 348375, Note_on_c, 0, 52, 56
1, 348382, Note_on_c, 0, 48, 52
1, 348406, Note_off_c, 0, 48, 59
1, 348410, Note_off_c, 0, 45, 63
1, 348415, Note_off_c, 0, 52, 59
1, 348510, Control_c, 0, 64, 103
1, 348525, Control_c, 0, 64, 72
1, 348527, Note_on_c, 0, 77, 76
1, 348528, Note_on_c, 0, 41, 68
1, 348534, Note_on_c, 0, 69, 60
1, 348539, Control_c, 0, 64, 56
1, 348555, Control_c, 0, 64, 0
1, 348585, Note_off_c, 0, 41, 63
1, 348585, Control_c, 0, 64, 35
1, 348600, Control_c, 0, 64, 58
1, 348615, Control_c, 0, 64, 71
1, 348629, Control_c, 0, 64, 94
1, 348644, Control_c, 0, 64, 127
1, 348648, Note_off_c, 0, 77, 60
1, 348698, Note_on_c, 0, 57, 56
1, 348701, Note_on_c, 0, 53, 56
1, 348752, Note_off_c, 0, 57, 57
1, 348755, Note_off_c, 0, 53, 59
1, 348850, Note_on_c, 0, 53, 50
1, 348859, Note_on_c, 0, 57, 51
1, 348875, Note_off_c, 0, 53, 56
1, 348883, Note_on_c, 0, 74, 78
1, 348892, Note_on_c, 0, 65, 68
1, 348907, Note_off_c, 0, 57, 61
1, 348916, Note_off_c, 0, 69, 62
1, 348930, Note_off_c, 0, 65, 59
1, 348946, Note_off_c, 0, 74, 61
1, 349014, Control_c, 0, 64, 92
1, 349018, Note_on_c, 0, 71, 76
1, 349029, Control_c, 0, 64, 71
1, 349031, Note_on_c, 0, 43, 57
1, 349033, Note_on_c, 0, 67, 58
1, 349041, Note_on_c, 0, 62, 52
1, 349044, Control_c, 0, 64, 52
1, 349059, Control_c, 0, 64, 0
1, 349177, Control_c, 0, 64, 48
1, 349184, Note_on_c, 0, 55, 55
1, 349192, Control_c, 0, 64, 62
1, 349214, Control_c, 0, 64, 70
1, 349229, Control_c, 0, 64, 84
1, 349237, Note_off_c, 0, 55, 60
1, 349244, Control_c, 0, 64, 127
1, 349302, Note_off_c, 0, 62, 60
1, 349305, Note_off_c, 0, 71, 57
1, 349312, Note_off_c, 0, 67, 50
1, 349338, Note_on_c, 0, 55, 58
1, 349380, Note_off_c, 0, 43, 57
1, 349457, Note_off_c, 0, 55, 52
1, 349482, Note_on_c, 0, 67, 59
1, 349482, Note_on_c, 0, 71, 75
1, 349494, Note_on_c, 0, 62, 63
1, 349510, Note_on_c, 0, 43, 58
1, 349511, Control_c, 0, 64, 106
1, 349526, Control_c, 0, 64, 77
1, 349541, Control_c, 0, 64, 61
1, 349556, Control_c, 0, 64, 44
1, 349570, Control_c, 0, 64, 41
1, 349585, Control_c, 0, 64, 47
1, 349600, Control_c, 0, 64, 57
1, 349615, Control_c, 0, 64, 64
1, 349629, Control_c, 0, 64, 72
1, 349644, Control_c, 0, 64, 96
1, 349646, Note_on_c, 0, 55, 64
1, 349659, Control_c, 0, 64, 127
1, 349692, Note_off_c, 0, 55, 60
1, 349756, Note_off_c, 0, 71, 58
1, 349763, Note_off_c, 0, 62, 59
1, 349784, Note_off_c, 0, 67, 59
1, 349810, Note_on_c, 0, 55, 65
1, 349846, Note_off_c, 0, 43, 58
1, 349906, Note_off_c, 0, 55, 59
1, 349941, Control_c, 0, 64, 103
1, 349963, Note_on_c, 0, 71, 81
1, 349963, Control_c, 0, 64, 76
1, 349968, Note_on_c, 0, 67, 58
1, 349970, Note_on_c, 0, 62, 65
1, 349977, Note_on_c, 0, 43, 56
1, 349977, Control_c, 0, 64, 59
1, 349992, Control_c, 0, 64, 0
1, 350081, Control_c, 0, 64, 47
1, 350086, Note_off_c, 0, 67, 55
1, 350091, Note_off_c, 0, 62, 54
1, 350096, Control_c, 0, 64, 62
1, 350111, Control_c, 0, 64, 69
1, 350126, Control_c, 0, 64, 79
1, 350126, Note_on_c, 0, 55, 64
1, 350141, Control_c, 0, 64, 95
1, 350156, Control_c, 0, 64, 127
1, 350160, Note_off_c, 0, 71, 62
1, 350199, Note_off_c, 0, 55, 61
1, 350305, Note_off_c, 0, 43, 36
1, 350311, Note_on_c, 0, 55, 50
1, 350348, Note_off_c, 0, 55, 62
1, 350482, Control_c, 0, 64, 103
1, 350483, Note_on_c, 0, 76, 72
1, 350497, Control_c, 0, 64, 82
1, 350505, Note_on_c, 0, 67, 51
1, 350507, Note_on_c, 0, 55, 46
1, 350512, Control_c, 0, 64, 67
1, 350526, Control_c, 0, 64, 52
1, 350541, Control_c, 0, 64, 0
1, 350615, Control_c, 0, 64, 28
1, 350630, Control_c, 0, 64, 47
1, 350645, Control_c, 0, 64, 59
1, 350660, Control_c, 0, 64, 65
1, 350666, Note_on_c, 0, 57, 45
1, 350675, Control_c, 0, 64, 70
1, 350690, Control_c, 0, 64, 75
1, 350690, Note_off_c, 0, 76, 58
1, 350712, Control_c, 0, 64, 82
1, 350726, Control_c, 0, 64, 89
1, 350735, Note_off_c, 0, 67, 57
1, 350741, Control_c, 0, 64, 98
1, 350756, Control_c, 0, 64, 110
1, 350771, Control_c, 0, 64, 127
1, 350845, Control_c, 0, 67, 13
1, 350859, Control_c, 0, 67, 25
1, 350872, Note_on_c, 0, 59, 46
1, 350874, Control_c, 0, 67, 39
1, 350889, Control_c, 0, 67, 53
1, 350904, Control_c, 0, 67, 70
1, 350910, Note_off_c, 0, 55, 42
1, 350915, Note_off_c, 0, 59, 61
1, 350919, Control_c, 0, 67, 85
1, 350925, Note_off_c, 0, 57, 35
1, 350934, Control_c, 0, 67, 100
1, 350949, Note_on_c, 0, 74, 61
1, 350949, Control_c, 0, 67, 114
1, 350954, Note_on_c, 0, 67, 51
1, 350964, Control_c, 0, 67, 127
1, 350970, Note_on_c, 0, 65, 48
1, 351000, Note_off_c, 0, 67, 56
1, 351009, Note_off_c, 0, 65, 63
1, 351040, Note_off_c, 0, 74, 58
1, 351068, Control_c, 0, 64, 123
1, 351083, Control_c, 0, 64, 109
1, 351098, Control_c, 0, 64, 98
1, 351113, Control_c, 0, 64, 85
1, 351128, Control_c, 0, 64, 70
1, 351143, Control_c, 0, 64, 59
1, 351155, Note_on_c, 0, 72, 50
1, 351157, Control_c, 0, 64, 32
1, 351160, Note_on_c, 0, 60, 35
1, 351163, Note_on_c, 0, 64, 47
1, 351166, Note_on_c, 0, 48, 36
1, 351169, Note_on_c, 0, 67, 36
1, 351172, Control_c, 0, 64, 0
1, 351261, Control_c, 0, 64, 11
1, 351275, Control_c, 0, 64, 41
1, 351290, Control_c, 0, 64, 56
1, 351305, Control_c, 0, 64, 63
1, 351320, Control_c, 0, 64, 66
1, 351335, Control_c, 0, 64, 70
1, 351349, Control_c, 0, 64, 75
1, 351359, Note_off_c, 0, 60, 58
1, 351364, Control_c, 0, 64, 79
1, 351366, Note_on_c, 0, 55, 40
1, 351379, Control_c, 0, 64, 84
1, 351394, Control_c, 0, 64, 88
1, 351402, Note_off_c, 0, 55, 58
1, 351409, Control_c, 0, 64, 92
1, 351423, Control_c, 0, 64, 94
1, 351446, Control_c, 0, 64, 95
1, 351461, Control_c, 0, 64, 95
1, 351514, Note_off_c, 0, 48, 26
1, 351516, Note_on_c, 0, 55, 45
1, 351563, Note_off_c, 0, 55, 61
1, 351678, Note_on_c, 0, 55, 48
1, 351727, Note_off_c, 0, 55, 57
1, 351742, Control_c, 0, 64, 96
1, 351810, Note_off_c, 0, 64, 37
1, 351832, Control_c, 0, 64, 95
1, 351840, Note_on_c, 0, 55, 35
1, 351861, Note_off_c, 0, 67, 34
1, 351881, Note_off_c, 0, 55, 47
1, 351891, Control_c, 0, 64, 95
1, 351921, Control_c, 0, 64, 94
1, 351977, Note_on_c, 0, 55, 27
1, 351977, Note_off_c, 0, 72, 38
1, 352017, Note_off_c, 0, 55, 48
1, 352126, Note_on_c, 0, 55, 37
1, 352143, Control_c, 0, 64, 94
1, 352158, Control_c, 0, 64, 93
1, 352168, Note_off_c, 0, 55, 47
1, 352172, Control_c, 0, 64, 92
1, 352187, Control_c, 0, 64, 92
1, 352254, Control_c, 0, 64, 92
1, 352275, Note_on_c, 0, 55, 36
1, 352329, Note_off_c, 0, 55, 43
1, 352343, Control_c, 0, 64, 93
1, 352423, Note_on_c, 0, 55, 27
1, 352481, Note_off_c, 0, 55, 48
1, 352535, Control_c, 0, 64, 92
1, 352551, Control_c, 0, 64, 91
1, 352566, Control_c, 0, 64, 90
1, 352581, Control_c, 0, 64, 86
1, 352588, Note_on_c, 0, 83, 60
1, 352590, Note_on_c, 0, 55, 26
1, 352595, Control_c, 0, 64, 81
1, 352610, Control_c, 0, 64, 73
1, 352625, Control_c, 0, 64, 67
1, 352637, Note_off_c, 0, 55, 47
1, 352640, Control_c, 0, 64, 62
1, 352654, Control_c, 0, 64, 60
1, 352669, Control_c, 0, 64, 60
1, 352684, Control_c, 0, 64, 61
1, 352699, Control_c, 0, 64, 62
1, 352714, Control_c, 0, 64, 63
1, 352728, Control_c, 0, 64, 64
1, 352734, Note_on_c, 0, 55, 34
1, 352743, Control_c, 0, 64, 66
1, 352758, Control_c, 0, 64, 67
1, 352773, Control_c, 0, 64, 69
1, 352788, Control_c, 0, 64, 72
1, 352794, Note_off_c, 0, 55, 50
1, 352803, Control_c, 0, 64, 76
1, 352818, Control_c, 0, 64, 80
1, 352833, Control_c, 0, 64, 84
1, 352847, Control_c, 0, 64, 87
1, 352862, Control_c, 0, 64, 90
1, 352877, Control_c, 0, 64, 92
1, 352877, Control_c, 0, 67, 125
1, 352892, Control_c, 0, 64, 94
1, 352892, Control_c, 0, 67, 123
1, 352893, Note_on_c, 0, 55, 35
1, 352907, Control_c, 0, 64, 94
1, 352907, Control_c, 0, 67, 122
1, 352946, Note_off_c, 0, 83, 59
1, 352955, Note_off_c, 0, 55, 53
1, 352965, Note_on_c, 0, 84, 65
1, 352973, Control_c, 0, 67, 122
1, 352988, Control_c, 0, 64, 94
1, 353003, Control_c, 0, 64, 93
1, 353018, Control_c, 0, 64, 92
1, 353033, Control_c, 0, 64, 91
1, 353047, Control_c, 0, 64, 89
1, 353061, Note_off_c, 0, 84, 57
1, 353062, Control_c, 0, 64, 85
1, 353077, Control_c, 0, 64, 79
1, 353084, Note_on_c, 0, 86, 64
1, 353088, Note_on_c, 0, 55, 46
1, 353092, Control_c, 0, 64, 70
1, 353107, Control_c, 0, 64, 63
1, 353121, Control_c, 0, 64, 54
1, 353136, Control_c, 0, 64, 44
1, 353138, Note_off_c, 0, 55, 54
1, 353151, Control_c, 0, 64, 43
1, 353166, Control_c, 0, 64, 43
1, 353181, Control_c, 0, 64, 46
1, 353195, Control_c, 0, 64, 50
1, 353210, Control_c, 0, 64, 56
1, 353225, Control_c, 0, 64, 60
1, 353240, Control_c, 0, 64, 64
1, 353254, Control_c, 0, 64, 66
1, 353254, Control_c, 0, 67, 121
1, 353269, Control_c, 0, 64, 70
1, 353284, Control_c, 0, 64, 73
1, 353284, Control_c, 0, 67, 120
1, 353299, Control_c, 0, 64, 78
1, 353314, Control_c, 0, 64, 84
1, 353314, Control_c, 0, 67, 120
1, 353328, Control_c, 0, 64, 90
1, 353344, Control_c, 0, 64, 96
1, 353359, Control_c, 0, 64, 101
1, 353366, Note_off_c, 0, 86, 48
1, 353374, Control_c, 0, 64, 104
1, 353389, Control_c, 0, 64, 104
1, 353404, Control_c, 0, 67, 119
1, 353455, Poly_aftertouch_c, 0, 55, 127
1, 353463, Control_c, 0, 64, 104
1, 353477, Control_c, 0, 64, 102
1, 353492, Control_c, 0, 64, 100
1, 353507, Control_c, 0, 64, 97
1, 353522, Control_c, 0, 64, 92
1, 353522, Control_c, 0, 67, 119
1, 353536, Poly_aftertouch_c, 0, 55, 0
1, 353537, Control_c, 0, 64, 84
1, 353542, Note_on_c, 0, 86, 60
1, 353550, Note_on_c, 0, 55, 33
1, 353550, Note_on_c, 0, 77, 54
1, 353551, Control_c, 0, 64, 73
1, 353559, Note_on_c, 0, 80, 43
1, 353566, Control_c, 0, 64, 65
1, 353567, Note_on_c, 0, 83, 39
1, 353581, Control_c, 0, 64, 57
1, 353596, Control_c, 0, 64, 54
1, 353611, Control_c, 0, 64, 56
1, 353617, Note_off_c, 0, 55, 52
1, 353626, Control_c, 0, 64, 59
1, 353641, Control_c, 0, 64, 62
1, 353656, Control_c, 0, 64, 65
1, 353670, Control_c, 0, 64, 67
1, 353685, Control_c, 0, 64, 70
1, 353707, Control_c, 0, 64, 75
1, 353714, Note_on_c, 0, 55, 30
1, 353722, Control_c, 0, 64, 80
1, 353722, Control_c, 0, 67, 118
1, 353733, Note_off_c, 0, 77, 58
1, 353737, Control_c, 0, 64, 90
1, 353744, Note_off_c, 0, 83, 36
1, 353751, Control_c, 0, 64, 101
1, 353762, Note_off_c, 0, 55, 48
1, 353766, Control_c, 0, 64, 127
1, 353784, Note_off_c, 0, 80, 30
1, 353870, Note_on_c, 0, 55, 43
1, 353873, Note_off_c, 0, 86, 51
1, 353905, Note_off_c, 0, 55, 56
1, 354018, Control_c, 0, 64, 116
1, 354028, Note_on_c, 0, 86, 66
1, 354033, Control_c, 0, 64, 93
1, 354033, Control_c, 0, 67, 117
1, 354045, Note_on_c, 0, 84, 60
1, 354048, Note_on_c, 0, 81, 52
1, 354048, Control_c, 0, 64, 78
1, 354050, Note_on_c, 0, 55, 42
1, 354055, Note_on_c, 0, 78, 51
1, 354063, Control_c, 0, 64, 67
1, 354077, Control_c, 0, 64, 59
1, 354092, Control_c, 0, 64, 53
1, 354102, Note_off_c, 0, 55, 56
1, 354107, Control_c, 0, 64, 55
1, 354122, Control_c, 0, 64, 57
1, 354138, Control_c, 0, 64, 60
1, 354153, Control_c, 0, 64, 62
1, 354167, Control_c, 0, 64, 64
1, 354182, Control_c, 0, 64, 66
1, 354197, Control_c, 0, 64, 69
1, 354197, Control_c, 0, 67, 117
1, 354210, Note_on_c, 0, 55, 46
1, 354212, Control_c, 0, 64, 74
1, 354212, Control_c, 0, 67, 116
1, 354227, Control_c, 0, 64, 80
1, 354241, Control_c, 0, 64, 90
1, 354241, Control_c, 0, 67, 115
1, 354252, Note_off_c, 0, 55, 57
1, 354256, Control_c, 0, 64, 103
1, 354271, Control_c, 0, 64, 127
1, 354271, Control_c, 0, 67, 114
1, 354285, Control_c, 0, 67, 113
1, 354300, Control_c, 0, 67, 99
1, 354314, Note_off_c, 0, 84, 33
1, 354315, Control_c, 0, 67, 77
1, 354330, Control_c, 0, 67, 57
1, 354338, Note_off_c, 0, 78, 55
1, 354339, Note_off_c, 0, 81, 45
1, 354345, Control_c, 0, 67, 41
1, 354360, Control_c, 0, 67, 29
1, 354362, Note_on_c, 0, 55, 54
1, 354374, Control_c, 0, 67, 20
1, 354389, Control_c, 0, 67, 17
1, 354404, Control_c, 0, 67, 15
1, 354409, Note_off_c, 0, 55, 58
1, 354419, Control_c, 0, 67, 14
1, 354420, Note_off_c, 0, 86, 33
1, 354471, Control_c, 0, 67, 14
1, 354545, Control_c, 0, 64, 119
1, 354560, Note_on_c, 0, 78, 64
1, 354560, Note_on_c, 0, 84, 72
1, 354560, Control_c, 0, 64, 94
1, 354565, Note_on_c, 0, 55, 65
1, 354566, Note_on_c, 0, 81, 60
1, 354574, Control_c, 0, 64, 75
1, 354589, Control_c, 0, 64, 63
1, 354604, Control_c, 0, 64, 48
1, 354619, Control_c, 0, 64, 43
1, 354632, Note_off_c, 0, 55, 48
1, 354634, Control_c, 0, 64, 47
1, 354648, Control_c, 0, 64, 54
1, 354663, Control_c, 0, 64, 61
1, 354678, Control_c, 0, 64, 65
1, 354692, Control_c, 0, 64, 70
1, 354707, Control_c, 0, 64, 76
1, 354714, Note_on_c, 0, 55, 45
1, 354722, Control_c, 0, 64, 85
1, 354737, Control_c, 0, 64, 100
1, 354752, Control_c, 0, 64, 127
1, 354786, Note_off_c, 0, 55, 58
1, 354898, Note_on_c, 0, 55, 54
1, 354922, Note_off_c, 0, 55, 63
1, 354945, Control_c, 0, 67, 14
1, 354958, Note_on_c, 0, 86, 79
1, 354960, Control_c, 0, 67, 16
1, 354975, Control_c, 0, 67, 18
1, 354979, Note_off_c, 0, 84, 48
1, 354989, Control_c, 0, 67, 19
1, 355004, Control_c, 0, 67, 21
1, 355006, Note_off_c, 0, 78, 63
1, 355015, Note_off_c, 0, 81, 47
1, 355019, Control_c, 0, 67, 23
1, 355029, Note_off_c, 0, 86, 62
1, 355034, Control_c, 0, 67, 25
1, 355049, Control_c, 0, 67, 27
1, 355063, Control_c, 0, 67, 29
1, 355078, Control_c, 0, 67, 30
1, 355093, Control_c, 0, 67, 32
1, 355107, Control_c, 0, 67, 34
1, 355122, Control_c, 0, 64, 116
1, 355122, Control_c, 0, 67, 36
1, 355137, Control_c, 0, 64, 87
1, 355137, Control_c, 0, 67, 37
1, 355144, Note_on_c, 0, 81, 38
1, 355144, Note_on_c, 0, 87, 65
1, 355149, Note_on_c, 0, 78, 58
1, 355152, Control_c, 0, 64, 71
1, 355152, Control_c, 0, 67, 38
1, 355154, Note_on_c, 0, 60, 47
1, 355158, Note_on_c, 0, 55, 38
1, 355167, Control_c, 0, 64, 60
1, 355167, Control_c, 0, 67, 39
1, 355189, Control_c, 0, 64, 41
1, 355189, Control_c, 0, 67, 40
1, 355197, Note_off_c, 0, 55, 54
1, 355204, Control_c, 0, 64, 29
1, 355204, Control_c, 0, 67, 41
1, 355219, Control_c, 0, 64, 31
1, 355219, Control_c, 0, 67, 43
1, 355234, Control_c, 0, 64, 39
1, 355234, Control_c, 0, 67, 45
1, 355249, Control_c, 0, 64, 46
1, 355249, Control_c, 0, 67, 51
1, 355264, Control_c, 0, 64, 54
1, 355264, Control_c, 0, 67, 57
1, 355278, Control_c, 0, 64, 59
1, 355278, Control_c, 0, 67, 63
1, 355293, Control_c, 0, 64, 63
1, 355293, Control_c, 0, 67, 72
1, 355308, Control_c, 0, 64, 65
1, 355308, Control_c, 0, 67, 83
1, 355312, Note_on_c, 0, 55, 40
1, 355322, Control_c, 0, 64, 69
1, 355322, Control_c, 0, 67, 99
1, 355337, Control_c, 0, 64, 72
1, 355337, Control_c, 0, 67, 115
1, 355352, Control_c, 0, 64, 77
1, 355352, Control_c, 0, 67, 127
1, 355361, Note_off_c, 0, 55, 58
1, 355367, Control_c, 0, 64, 83
1, 355382, Control_c, 0, 64, 89
1, 355396, Control_c, 0, 64, 95
1, 355411, Control_c, 0, 64, 100
1, 355426, Control_c, 0, 64, 104
1, 355441, Control_c, 0, 64, 107
1, 355453, Note_off_c, 0, 87, 33
1, 355456, Control_c, 0, 64, 108
1, 355471, Control_c, 0, 64, 110
1, 355483, Note_on_c, 0, 55, 41
1, 355486, Control_c, 0, 64, 111
1, 355501, Control_c, 0, 64, 114
1, 355511, Note_off_c, 0, 55, 57
1, 355515, Control_c, 0, 64, 119
1, 355530, Control_c, 0, 64, 127
1, 355611, Note_on_c, 0, 55, 45
1, 355611, Note_off_c, 0, 60, 0
1, 355611, Note_on_c, 0, 60, 3
1, 355656, Note_off_c, 0, 55, 59
1, 355699, Note_off_c, 0, 60, 38
1, 355782, Note_on_c, 0, 60, 28
1, 355814, Note_on_c, 0, 55, 23
1, 355859, Note_on_c, 0, 86, 67
1, 355881, Note_on_c, 0, 62, 54
1, 355889, Note_off_c, 0, 60, 36
1, 355923, Note_off_c, 0, 55, 55
1, 355941, Note_off_c, 0, 62, 60
1, 356022, Note_off_c, 0, 86, 55
1, 356042, Control_c, 0, 64, 111
1, 356057, Control_c, 0, 64, 88
1, 356070, Note_on_c, 0, 84, 67
1, 356071, Control_c, 0, 64, 70
1, 356072, Note_on_c, 0, 63, 59
1, 356086, Control_c, 0, 64, 60
1, 356087, Note_on_c, 0, 55, 47
1, 356101, Control_c, 0, 64, 44
1, 356116, Control_c, 0, 64, 38
1, 356131, Control_c, 0, 64, 42
1, 356145, Control_c, 0, 64, 49
1, 356149, Note_off_c, 0, 55, 57
1, 356160, Control_c, 0, 64, 57
1, 356175, Control_c, 0, 64, 62
1, 356190, Control_c, 0, 64, 64
1, 356205, Control_c, 0, 64, 67
1, 356219, Control_c, 0, 64, 70
1, 356232, Note_off_c, 0, 81, 35
1, 356234, Control_c, 0, 64, 74
1, 356249, Control_c, 0, 64, 81
1, 356257, Note_on_c, 0, 55, 50
1, 356264, Control_c, 0, 64, 92
1, 356279, Control_c, 0, 64, 111
1, 356286, Note_off_c, 0, 55, 57
1, 356294, Control_c, 0, 64, 127
1, 356300, Note_off_c, 0, 78, 56
1, 356392, Note_on_c, 0, 55, 51
1, 356416, Note_off_c, 0, 84, 26
1, 356456, Note_off_c, 0, 63, 52
1, 356470, Note_off_c, 0, 55, 59
1, 356591, Control_c, 0, 64, 103
1, 356602, Note_on_c, 0, 86, 64
1, 356606, Control_c, 0, 64, 85
1, 356610, Note_on_c, 0, 81, 53
1, 356615, Note_on_c, 0, 74, 53
1, 356621, Control_c, 0, 64, 69
1, 356635, Control_c, 0, 64, 59
1, 356639, Note_on_c, 0, 66, 52
1, 356648, Note_on_c, 0, 55, 40
1, 356650, Control_c, 0, 64, 45
1, 356665, Control_c, 0, 64, 39
1, 356680, Control_c, 0, 64, 40
1, 356702, Control_c, 0, 64, 44
1, 356715, Note_off_c, 0, 55, 55
1, 356717, Control_c, 0, 64, 50
1, 356732, Control_c, 0, 64, 56
1, 356747, Control_c, 0, 64, 61
1, 356762, Control_c, 0, 64, 64
1, 356776, Control_c, 0, 64, 66
1, 356791, Control_c, 0, 64, 69
1, 356799, Note_off_c, 0, 86, 55
1, 356806, Control_c, 0, 64, 73
1, 356821, Control_c, 0, 64, 79
1, 356824, Note_off_c, 0, 81, 59
1, 356835, Control_c, 0, 64, 87
1, 356842, Note_on_c, 0, 55, 41
1, 356850, Control_c, 0, 64, 98
1, 356865, Control_c, 0, 64, 116
1, 356872, Note_off_c, 0, 55, 55
1, 356880, Control_c, 0, 64, 127
1, 356962, Note_on_c, 0, 55, 50
1, 357015, Note_on_c, 0, 84, 65
1, 357022, Note_off_c, 0, 55, 54
1, 357030, Note_off_c, 0, 74, 61
1, 357051, Note_off_c, 0, 66, 50
1, 357084, Note_off_c, 0, 84, 61
1, 357086, Control_c, 0, 64, 99
1, 357101, Control_c, 0, 64, 83
1, 357116, Control_c, 0, 64, 69
1, 357119, Note_on_c, 0, 83, 58
1, 357131, Note_on_c, 0, 79, 47
1, 357131, Control_c, 0, 64, 58
1, 357146, Control_c, 0, 64, 41
1, 357148, Note_on_c, 0, 74, 44
1, 357154, Note_on_c, 0, 67, 48
1, 357161, Control_c, 0, 64, 33
1, 357169, Note_on_c, 0, 55, 31
1, 357175, Control_c, 0, 64, 37
1, 357190, Control_c, 0, 64, 43
1, 357205, Control_c, 0, 64, 52
1, 357208, Note_off_c, 0, 55, 51
1, 357220, Control_c, 0, 64, 59
1, 357234, Control_c, 0, 64, 63
1, 357249, Control_c, 0, 64, 65
1, 357264, Control_c, 0, 64, 68
1, 357265, Note_off_c, 0, 67, 0
1, 357279, Control_c, 0, 64, 72
1, 357293, Control_c, 0, 64, 76
1, 357299, Note_on_c, 0, 67, 6
1, 357308, Control_c, 0, 64, 81
1, 357311, Note_on_c, 0, 55, 50
1, 357323, Control_c, 0, 64, 87
1, 357339, Control_c, 0, 64, 95
1, 357347, Note_off_c, 0, 55, 60
1, 357354, Control_c, 0, 64, 104
1, 357369, Control_c, 0, 64, 114
1, 357383, Control_c, 0, 64, 123
1, 357413, Control_c, 0, 64, 127
1, 357420, Note_off_c, 0, 67, 29
1, 357460, Note_on_c, 0, 55, 49
1, 357480, Note_off_c, 0, 79, 36
1, 357506, Note_off_c, 0, 83, 56
1, 357510, Note_off_c, 0, 55, 57
1, 357519, Note_off_c, 0, 74, 35
1, 357569, Control_c, 0, 64, 114
1, 357584, Control_c, 0, 64, 105
1, 357598, Control_c, 0, 64, 93
1, 357613, Control_c, 0, 64, 79
1, 357622, Note_on_c, 0, 81, 56
1, 357624, Note_on_c, 0, 79, 47
1, 357628, Control_c, 0, 64, 67
1, 357635, Note_on_c, 0, 65, 48
1, 357638, Note_on_c, 0, 74, 42
1, 357641, Note_on_c, 0, 55, 42
1, 357643, Control_c, 0, 64, 55
1, 357658, Control_c, 0, 64, 44
1, 357672, Control_c, 0, 64, 45
1, 357687, Control_c, 0, 64, 50
1, 357691, Note_off_c, 0, 55, 58
1, 357702, Control_c, 0, 64, 56
1, 357716, Control_c, 0, 64, 60
1, 357731, Control_c, 0, 64, 63
1, 357746, Control_c, 0, 64, 66
1, 357761, Control_c, 0, 64, 68
1, 357762, Note_off_c, 0, 65, 0
1, 357776, Control_c, 0, 64, 71
1, 357787, Note_on_c, 0, 65, 11
1, 357790, Control_c, 0, 64, 75
1, 357805, Control_c, 0, 64, 80
1, 357806, Note_on_c, 0, 55, 51
1, 357820, Control_c, 0, 64, 86
1, 357835, Control_c, 0, 64, 94
1, 357847, Note_off_c, 0, 55, 63
1, 357850, Control_c, 0, 64, 101
1, 357865, Control_c, 0, 64, 106
1, 357879, Control_c, 0, 64, 107
1, 357909, Control_c, 0, 64, 108
1, 357914, Note_off_c, 0, 79, 36
1, 357924, Control_c, 0, 64, 108
1, 357928, Note_off_c, 0, 74, 26
1, 357939, Control_c, 0, 64, 110
1, 357954, Control_c, 0, 64, 110
1, 357965, Note_on_c, 0, 55, 47
1, 358003, Note_on_c, 0, 83, 60
1, 358008, Note_off_c, 0, 55, 60
1, 358017, Note_off_c, 0, 81, 36
1, 358027, Control_c, 0, 64, 109
1, 358042, Control_c, 0, 64, 107
1, 358057, Control_c, 0, 64, 104
1, 358072, Control_c, 0, 64, 97
1, 358085, Note_off_c, 0, 83, 58
1, 358087, Control_c, 0, 64, 88
1, 358102, Control_c, 0, 64, 75
1, 358104, Note_on_c, 0, 84, 65
1, 358112, Note_on_c, 0, 72, 56
1, 358116, Note_off_c, 0, 65, 35
1, 358116, Control_c, 0, 64, 65
1, 358127, Note_on_c, 0, 55, 36
1, 358130, Note_on_c, 0, 63, 52
1, 358132, Control_c, 0, 64, 56
1, 358133, Note_on_c, 0, 79, 46
1, 358147, Control_c, 0, 64, 48
1, 358162, Control_c, 0, 64, 48
1, 358173, Note_off_c, 0, 55, 60
1, 358177, Control_c, 0, 64, 52
1, 358199, Control_c, 0, 64, 56
1, 358213, Control_c, 0, 64, 61
1, 358228, Control_c, 0, 64, 63
1, 358243, Control_c, 0, 64, 65
1, 358245, Note_off_c, 0, 63, 0
1, 358258, Control_c, 0, 64, 67
1, 358270, Note_on_c, 0, 63, 21
1, 358273, Note_off_c, 0, 72, 60
1, 358273, Control_c, 0, 64, 70
1, 358288, Note_on_c, 0, 55, 46
1, 358288, Control_c, 0, 64, 74
1, 358291, Note_off_c, 0, 79, 61
1, 358303, Control_c, 0, 64, 81
1, 358318, Control_c, 0, 64, 90
1, 358332, Note_off_c, 0, 55, 59
1, 358333, Control_c, 0, 64, 100
1, 358347, Control_c, 0, 64, 113
1, 358359, Note_off_c, 0, 84, 60
1, 358362, Control_c, 0, 64, 127
1, 358448, Note_on_c, 0, 55, 42
1, 358488, Note_off_c, 0, 55, 60
1, 358544, Note_off_c, 0, 63, 42
1, 358554, Control_c, 0, 64, 123
1, 358569, Control_c, 0, 64, 113
1, 358584, Control_c, 0, 64, 101
1, 358599, Control_c, 0, 64, 91
1, 358613, Control_c, 0, 64, 79
1, 358628, Control_c, 0, 64, 69
1, 358631, Note_on_c, 0, 86, 54
1, 358634, Note_on_c, 0, 83, 45
1, 358643, Note_on_c, 0, 79, 48
1, 358643, Control_c, 0, 64, 62
1, 358649, Note_on_c, 0, 60, 50
1, 358658, Control_c, 0, 64, 55
1, 358662, Note_on_c, 0, 55, 32
1, 358687, Control_c, 0, 64, 57
1, 358702, Control_c, 0, 64, 59
1, 358717, Control_c, 0, 64, 62
1, 358721, Note_off_c, 0, 55, 56
1, 358724, Note_off_c, 0, 60, 53
1, 358732, Control_c, 0, 64, 64
1, 358747, Control_c, 0, 64, 65
1, 358762, Control_c, 0, 64, 68
1, 358777, Control_c, 0, 64, 71
1, 358792, Control_c, 0, 64, 75
1, 358806, Control_c, 0, 64, 80
1, 358821, Control_c, 0, 64, 87
1, 358827, Note_on_c, 0, 60, 16
1, 358836, Control_c, 0, 64, 94
1, 358837, Note_off_c, 0, 86, 51
1, 358842, Note_off_c, 0, 83, 37
1, 358850, Control_c, 0, 64, 103
1, 358851, Note_on_c, 0, 55, 39
1, 358865, Control_c, 0, 64, 108
1, 358880, Control_c, 0, 64, 110
1, 358890, Note_off_c, 0, 55, 49
1, 358902, Note_off_c, 0, 60, 49
1, 358933, Control_c, 0, 64, 111
1, 358947, Note_off_c, 0, 79, 26
1, 359037, Note_on_c, 0, 55, 42
1, 359071, Poly_aftertouch_c, 0, 60, 127
1, 359093, Note_off_c, 0, 55, 52
1, 359096, Control_c, 0, 64, 111
1, 359110, Poly_aftertouch_c, 0, 60, 0
1, 359117, Note_on_c, 0, 87, 53
1, 359134, Note_on_c, 0, 79, 42
1, 359136, Note_on_c, 0, 84, 50
1, 359194, Note_off_c, 0, 79, 57
1, 359194, Note_off_c, 0, 84, 53
1, 359195, Note_off_c, 0, 87, 58
1, 359230, Control_c, 0, 64, 111
1, 359245, Control_c, 0, 64, 109
1, 359260, Control_c, 0, 64, 107
1, 359275, Control_c, 0, 64, 104
1, 359289, Control_c, 0, 64, 100
1, 359304, Control_c, 0, 64, 94
1, 359312, Note_on_c, 0, 86, 53
1, 359319, Control_c, 0, 64, 83
1, 359328, Note_on_c, 0, 83, 47
1, 359334, Note_on_c, 0, 79, 45
1, 359334, Control_c, 0, 64, 73
1, 359336, Note_on_c, 0, 67, 40
1, 359339, Note_on_c, 0, 55, 39
1, 359349, Control_c, 0, 64, 64
1, 359363, Control_c, 0, 64, 53
1, 359378, Control_c, 0, 64, 40
1, 359393, Control_c, 0, 64, 38
1, 359408, Control_c, 0, 64, 38
1, 359423, Control_c, 0, 64, 40
1, 359424, Note_off_c, 0, 55, 56
1, 359437, Control_c, 0, 64, 43
1, 359452, Control_c, 0, 64, 47
1, 359467, Control_c, 0, 64, 54
1, 359481, Control_c, 0, 64, 60
1, 359496, Control_c, 0, 64, 63
1, 359511, Control_c, 0, 64, 67
1, 359516, Note_on_c, 0, 55, 35
1, 359526, Control_c, 0, 64, 72
1, 359541, Control_c, 0, 64, 78
1, 359555, Control_c, 0, 64, 85
1, 359570, Control_c, 0, 64, 94
1, 359574, Note_off_c, 0, 55, 56
1, 359585, Control_c, 0, 64, 107
1, 359600, Control_c, 0, 64, 127
1, 359692, Note_on_c, 0, 55, 45
1, 359734, Note_off_c, 0, 55, 59
1, 359838, Note_on_c, 0, 55, 51
1, 359877, Note_off_c, 0, 55, 60
1, 359905, Control_c, 0, 67, 125
1, 359919, Control_c, 0, 67, 122
1, 359934, Control_c, 0, 67, 120
1, 359949, Control_c, 0, 67, 117
1, 359962, Note_on_c, 0, 55, 59
1, 359964, Control_c, 0, 67, 114
1, 359979, Control_c, 0, 67, 111
1, 359993, Control_c, 0, 67, 108
1, 360003, Note_off_c, 0, 55, 59
1, 360008, Control_c, 0, 67, 105
1, 360023, Control_c, 0, 67, 102
1, 360038, Control_c, 0, 67, 98
1, 360053, Control_c, 0, 67, 95
1, 360067, Control_c, 0, 67, 91
1, 360082, Control_c, 0, 67, 87
1, 360097, Control_c, 0, 67, 84
1, 360105, Note_off_c, 0, 86, 34
1, 360112, Note_on_c, 0, 55, 62
1, 360112, Control_c, 0, 67, 80
1, 360127, Control_c, 0, 67, 77
1, 360130, Note_off_c, 0, 67, 24
1, 360142, Control_c, 0, 67, 73
1, 360157, Note_off_c, 0, 83, 39
1, 360157, Control_c, 0, 67, 70
1, 360160, Note_off_c, 0, 79, 41
1, 360160, Note_off_c, 0, 55, 62
1, 360172, Control_c, 0, 67, 67
1, 360186, Control_c, 0, 67, 64
1, 360201, Control_c, 0, 67, 60
1, 360216, Control_c, 0, 67, 57
1, 360231, Control_c, 0, 67, 54
1, 360246, Control_c, 0, 67, 51
1, 360252, Note_on_c, 0, 55, 72
1, 360260, Control_c, 0, 67, 49
1, 360275, Control_c, 0, 67, 47
1, 360290, Control_c, 0, 67, 45
1, 360304, Control_c, 0, 67, 44
1, 360319, Control_c, 0, 67, 43
1, 360334, Control_c, 0, 67, 43
1, 360349, Control_c, 0, 67, 42
1, 360378, Control_c, 0, 67, 41
1, 360393, Control_c, 0, 67, 41
1, 360398, Note_on_c, 0, 56, 82
1, 360408, Control_c, 0, 67, 40
1, 360422, Note_off_c, 0, 55, 58
1, 360423, Control_c, 0, 64, 114
1, 360423, Control_c, 0, 67, 38
1, 360446, Control_c, 0, 64, 104
1, 360446, Control_c, 0, 67, 33
1, 360460, Control_c, 0, 64, 98
1, 360460, Control_c, 0, 67, 30
1, 360475, Control_c, 0, 64, 91
1, 360475, Control_c, 0, 67, 27
1, 360490, Control_c, 0, 64, 85
1, 360490, Control_c, 0, 67, 23
1, 360505, Control_c, 0, 64, 80
1, 360505, Control_c, 0, 67, 21
1, 360519, Control_c, 0, 64, 76
1, 360519, Control_c, 0, 67, 19
1, 360535, Control_c, 0, 64, 71
1, 360535, Control_c, 0, 67, 18
1, 360550, Control_c, 0, 64, 66
1, 360550, Control_c, 0, 67, 16
1, 360556, Note_on_c, 0, 57, 70
1, 360565, Control_c, 0, 64, 63
1, 360565, Control_c, 0, 67, 16
1, 360565, Note_off_c, 0, 56, 63
1, 360580, Control_c, 0, 64, 59
1, 360580, Control_c, 0, 67, 14
1, 360595, Control_c, 0, 64, 55
1, 360595, Control_c, 0, 67, 12
1, 360609, Control_c, 0, 64, 50
1, 360609, Control_c, 0, 67, 11
1, 360624, Control_c, 0, 64, 44
1, 360624, Control_c, 0, 67, 11
1, 360639, Control_c, 0, 64, 34
1, 360654, Control_c, 0, 64, 0
1, 360683, Control_c, 0, 67, 10
1, 360696, Note_on_c, 0, 74, 83
1, 360705, Note_on_c, 0, 58, 69
1, 360727, Control_c, 0, 67, 9
1, 360735, Note_off_c, 0, 57, 61
1, 360742, Control_c, 0, 67, 9
1, 360757, Control_c, 0, 67, 8
1, 360772, Control_c, 0, 67, 8
1, 360777, Note_off_c, 0, 58, 64
1, 360787, Control_c, 0, 67, 0
1, 360831, Control_c, 0, 64, 23
1, 360846, Control_c, 0, 64, 47
1, 360851, Note_on_c, 0, 58, 70
1, 360861, Control_c, 0, 64, 60
1, 360876, Control_c, 0, 64, 65
1, 360890, Control_c, 0, 64, 69
1, 360905, Control_c, 0, 64, 75
1, 360907, Note_off_c, 0, 58, 61
1, 360920, Control_c, 0, 64, 81
1, 360935, Control_c, 0, 64, 87
1, 360950, Control_c, 0, 64, 95
1, 360965, Control_c, 0, 64, 104
1, 360978, Note_on_c, 0, 58, 70
1, 360980, Control_c, 0, 64, 117
1, 360995, Control_c, 0, 64, 127
1, 361035, Note_on_c, 0, 75, 84
1, 361041, Note_off_c, 0, 58, 62
1, 361057, Note_off_c, 0, 74, 58
1, 361098, Control_c, 0, 64, 117
1, 361100, Note_off_c, 0, 75, 63
1, 361113, Control_c, 0, 64, 106
1, 361127, Control_c, 0, 64, 94
1, 361142, Control_c, 0, 64, 80
1, 361144, Note_on_c, 0, 77, 89
1, 361157, Control_c, 0, 64, 66
1, 361158, Note_on_c, 0, 58, 65
1, 361172, Control_c, 0, 64, 41
1, 361194, Control_c, 0, 64, 0
1, 361226, Note_off_c, 0, 58, 62
1, 361269, Control_c, 0, 64, 30
1, 361283, Control_c, 0, 64, 53
1, 361293, Note_on_c, 0, 58, 63
1, 361298, Control_c, 0, 64, 61
1, 361313, Control_c, 0, 64, 65
1, 361328, Control_c, 0, 64, 69
1, 361337, Note_off_c, 0, 58, 63
1, 361343, Control_c, 0, 64, 74
1, 361358, Control_c, 0, 64, 78
1, 361373, Control_c, 0, 64, 85
1, 361375, Note_off_c, 0, 77, 55
1, 361388, Control_c, 0, 64, 91
1, 361403, Control_c, 0, 64, 98
1, 361418, Control_c, 0, 64, 105
1, 361431, Control_c, 0, 64, 113
1, 361446, Control_c, 0, 64, 127
1, 361448, Note_on_c, 0, 58, 71
1, 361486, Note_off_c, 0, 58, 56
1, 361550, Control_c, 0, 64, 114
1, 361551, Poly_aftertouch_c, 0, 65, 0
1, 361564, Control_c, 0, 64, 96
1, 361579, Control_c, 0, 64, 77
1, 361589, Note_on_c, 0, 77, 82
1, 361594, Note_on_c, 0, 58, 72
1, 361594, Control_c, 0, 64, 62
1, 361596, Note_on_c, 0, 68, 74
1, 361596, Note_on_c, 0, 71, 73
1, 361600, Note_on_c, 0, 74, 67
1, 361609, Control_c, 0, 64, 0
1, 361616, Note_on_c, 0, 65, 52
1, 361638, Note_off_c, 0, 58, 58
1, 361654, Note_off_c, 0, 65, 63
1, 361683, Control_c, 0, 64, 33
1, 361698, Control_c, 0, 64, 52
1, 361713, Control_c, 0, 64, 61
1, 361728, Control_c, 0, 64, 65
1, 361737, Note_on_c, 0, 65, 65
1, 361743, Control_c, 0, 64, 70
1, 361749, Note_on_c, 0, 58, 68
1, 361757, Control_c, 0, 64, 76
1, 361768, Note_off_c, 0, 77, 53
1, 361772, Control_c, 0, 64, 82
1, 361773, Note_off_c, 0, 65, 61
1, 361777, Note_off_c, 0, 58, 65
1, 361787, Control_c, 0, 64, 88
1, 361802, Control_c, 0, 64, 94
1, 361817, Control_c, 0, 64, 98
1, 361825, Note_off_c, 0, 71, 52
1, 361831, Control_c, 0, 64, 100
1, 361876, Control_c, 0, 64, 101
1, 361882, Note_on_c, 0, 58, 67
1, 361885, Note_on_c, 0, 65, 72
1, 361913, Note_off_c, 0, 68, 35
1, 361920, Note_off_c, 0, 65, 57
1, 361935, Note_off_c, 0, 58, 61
1, 361957, Control_c, 0, 64, 99
1, 361967, Note_off_c, 0, 74, 49
1, 361972, Control_c, 0, 64, 98
1, 361987, Control_c, 0, 64, 95
1, 362002, Control_c, 0, 64, 91
1, 362017, Control_c, 0, 64, 79
1, 362031, Control_c, 0, 64, 62
1, 362036, Note_on_c, 0, 77, 90
1, 362043, Note_on_c, 0, 62, 61
1, 362044, Note_on_c, 0, 68, 76
1, 362046, Note_on_c, 0, 70, 73
1, 362046, Control_c, 0, 64, 0
1, 362053, Note_on_c, 0, 58, 59
1, 362091, Note_off_c, 0, 58, 63
1, 362093, Note_off_c, 0, 62, 60
1, 362120, Control_c, 0, 64, 46
1, 362136, Control_c, 0, 64, 62
1, 362151, Control_c, 0, 64, 69
1, 362166, Control_c, 0, 64, 80
1, 362180, Control_c, 0, 64, 108
1, 362195, Control_c, 0, 64, 127
1, 362196, Note_off_c, 0, 70, 53
1, 362199, Note_on_c, 0, 58, 52
1, 362205, Note_on_c, 0, 62, 64
1, 362211, Note_off_c, 0, 68, 47
1, 362214, Note_off_c, 0, 77, 55
1, 362239, Note_off_c, 0, 62, 64
1, 362240, Note_off_c, 0, 58, 63
1, 362361, Note_on_c, 0, 62, 57
1, 362362, Note_on_c, 0, 58, 56
1, 362384, Note_on_c, 0, 75, 64
1, 362399, Note_off_c, 0, 62, 61
1, 362404, Note_off_c, 0, 58, 61
1, 362418, Note_off_c, 0, 75, 63
1, 362424, Note_on_c, 0, 77, 79
1, 362488, Note_on_c, 0, 75, 87
1, 362491, Control_c, 0, 64, 92
1, 362496, Note_on_c, 0, 68, 58
1, 362497, Note_on_c, 0, 70, 81
1, 362506, Control_c, 0, 64, 68
1, 362506, Note_on_c, 0, 58, 69
1, 362521, Control_c, 0, 64, 37
1, 362536, Control_c, 0, 64, 0
1, 362536, Note_off_c, 0, 77, 62
1, 362576, Note_off_c, 0, 58, 61
1, 362610, Control_c, 0, 64, 41
1, 362625, Control_c, 0, 64, 58
1, 362640, Control_c, 0, 64, 65
1, 362654, Control_c, 0, 64, 71
1, 362664, Note_on_c, 0, 58, 65
1, 362667, Note_off_c, 0, 70, 56
1, 362669, Control_c, 0, 64, 82
1, 362691, Control_c, 0, 64, 100
1, 362695, Note_off_c, 0, 68, 53
1, 362706, Control_c, 0, 64, 127
1, 362717, Note_off_c, 0, 58, 62
1, 362750, Note_off_c, 0, 75, 53
1, 362822, Note_on_c, 0, 58, 67
1, 362856, Note_on_c, 0, 74, 89
1, 362866, Note_off_c, 0, 58, 59
1, 362949, Note_off_c, 0, 74, 59
1, 362989, Control_c, 0, 64, 104
1, 363004, Control_c, 0, 64, 83
1, 363019, Control_c, 0, 64, 67
1, 363024, Note_on_c, 0, 63, 53
1, 363027, Note_on_c, 0, 79, 78
1, 363033, Control_c, 0, 64, 48
1, 363039, Note_on_c, 0, 70, 60
1, 363045, Note_on_c, 0, 67, 53
1, 363048, Control_c, 0, 64, 0
1, 363079, Note_off_c, 0, 63, 57
1, 363152, Control_c, 0, 64, 45
1, 363167, Control_c, 0, 64, 60
1, 363182, Control_c, 0, 64, 65
1, 363197, Control_c, 0, 64, 69
1, 363200, Note_on_c, 0, 63, 57
1, 363211, Control_c, 0, 64, 74
1, 363226, Control_c, 0, 64, 79
1, 363237, Note_off_c, 0, 67, 61
1, 363239, Note_off_c, 0, 63, 61
1, 363241, Control_c, 0, 64, 86
1, 363245, Note_off_c, 0, 70, 54
1, 363256, Control_c, 0, 64, 91
1, 363271, Control_c, 0, 64, 95
1, 363271, Control_c, 0, 67, 21
1, 363285, Control_c, 0, 64, 100
1, 363285, Control_c, 0, 67, 39
1, 363300, Control_c, 0, 64, 106
1, 363300, Control_c, 0, 67, 57
1, 363315, Control_c, 0, 64, 116
1, 363315, Control_c, 0, 67, 71
1, 363329, Note_on_c, 0, 63, 55
1, 363329, Control_c, 0, 64, 127
1, 363329, Control_c, 0, 67, 83
1, 363344, Control_c, 0, 67, 94
1, 363359, Control_c, 0, 67, 102
1, 363374, Control_c, 0, 67, 107
1, 363381, Note_off_c, 0, 63, 55
1, 363389, Control_c, 0, 67, 109
1, 363418, Control_c, 0, 64, 112
1, 363441, Control_c, 0, 64, 100
1, 363456, Control_c, 0, 64, 86
1, 363471, Control_c, 0, 64, 72
1, 363471, Control_c, 0, 67, 109
1, 363485, Control_c, 0, 64, 60
1, 363485, Control_c, 0, 67, 107
1, 363500, Note_on_c, 0, 74, 57
1, 363500, Control_c, 0, 64, 34
1, 363500, Control_c, 0, 67, 107
1, 363510, Note_on_c, 0, 68, 53
1, 363515, Control_c, 0, 64, 0
1, 363515, Control_c, 0, 67, 105
1, 363523, Note_on_c, 0, 65, 47
1, 363529, Control_c, 0, 67, 103
1, 363531, Note_on_c, 0, 62, 42
1, 363544, Control_c, 0, 67, 102
1, 363555, Note_on_c, 0, 59, 18
1, 363559, Control_c, 0, 64, 34
1, 363559, Control_c, 0, 67, 99
1, 363568, Note_off_c, 0, 79, 51
1, 363574, Control_c, 0, 64, 51
1, 363574, Control_c, 0, 67, 98
1, 363579, Note_off_c, 0, 65, 58
1, 363582, Note_off_c, 0, 62, 59
1, 363589, Control_c, 0, 64, 61
1, 363589, Control_c, 0, 67, 96
1, 363595, Note_off_c, 0, 59, 47
1, 363603, Control_c, 0, 64, 67
1, 363603, Control_c, 0, 67, 93
1, 363618, Control_c, 0, 64, 73
1, 363618, Control_c, 0, 67, 89
1, 363633, Control_c, 0, 64, 80
1, 363633, Control_c, 0, 67, 85
1, 363636, Note_off_c, 0, 68, 58
1, 363648, Control_c, 0, 64, 89
1, 363648, Control_c, 0, 67, 80
1, 363663, Control_c, 0, 64, 98
1, 363663, Control_c, 0, 67, 72
1, 363670, Note_on_c, 0, 65, 47
1, 363676, Note_on_c, 0, 62, 42
1, 363678, Control_c, 0, 64, 110
1, 363678, Control_c, 0, 67, 56
1, 363692, Control_c, 0, 64, 127
1, 363692, Control_c, 0, 67, 38
1, 363704, Note_on_c, 0, 59, 16
1, 363707, Control_c, 0, 67, 19
1, 363715, Note_off_c, 0, 65, 59
1, 363722, Note_on_c, 0, 77, 74
1, 363722, Control_c, 0, 67, 0
1, 363725, Note_off_c, 0, 62, 55
1, 363748, Note_off_c, 0, 74, 58
1, 363752, Note_off_c, 0, 59, 40
1, 363834, Note_on_c, 0, 65, 48
1, 363838, Note_on_c, 0, 59, 42
1, 363859, Note_on_c, 0, 62, 36
1, 363886, Note_off_c, 0, 59, 57
1, 363887, Note_off_c, 0, 62, 57
1, 363887, Note_off_c, 0, 65, 55
1, 363946, Control_c, 0, 64, 112
1, 363960, Control_c, 0, 64, 93
1, 363975, Control_c, 0, 64, 72
1, 363979, Note_off_c, 0, 77, 53
1, 363982, Note_on_c, 0, 75, 64
1, 363990, Control_c, 0, 64, 56
1, 363997, Note_on_c, 0, 63, 46
1, 363998, Note_on_c, 0, 60, 47
1, 364000, Note_on_c, 0, 67, 41
1, 364005, Control_c, 0, 64, 0
1, 364041, Note_off_c, 0, 63, 60
1, 364047, Note_off_c, 0, 60, 58
1, 364079, Control_c, 0, 64, 11
1, 364094, Control_c, 0, 64, 43
1, 364108, Control_c, 0, 64, 58
1, 364123, Control_c, 0, 64, 64
1, 364138, Control_c, 0, 64, 69
1, 364148, Note_on_c, 0, 63, 46
1, 364148, Note_off_c, 0, 75, 60
1, 364149, Note_on_c, 0, 60, 41
1, 364152, Control_c, 0, 64, 77
1, 364167, Control_c, 0, 64, 86
1, 364190, Control_c, 0, 64, 99
1, 364191, Note_off_c, 0, 63, 57
1, 364198, Note_off_c, 0, 60, 59
1, 364205, Control_c, 0, 64, 127
1, 364206, Note_off_c, 0, 67, 57
1, 364299, Note_on_c, 0, 63, 45
1, 364314, Note_on_c, 0, 60, 40
1, 364324, Note_off_c, 0, 63, 60
1, 364339, Note_off_c, 0, 60, 55
1, 364441, Control_c, 0, 64, 101
1, 364456, Control_c, 0, 64, 80
1, 364458, Note_on_c, 0, 74, 66
1, 364469, Note_on_c, 0, 68, 55
1, 364471, Control_c, 0, 64, 66
1, 364477, Note_on_c, 0, 56, 49
1, 364481, Note_on_c, 0, 53, 45
1, 364485, Note_on_c, 0, 65, 45
1, 364485, Control_c, 0, 64, 50
1, 364500, Control_c, 0, 64, 27
1, 364515, Control_c, 0, 64, 28
1, 364524, Note_off_c, 0, 56, 60
1, 364531, Control_c, 0, 64, 41
1, 364539, Note_off_c, 0, 53, 54
1, 364546, Control_c, 0, 64, 54
1, 364561, Control_c, 0, 64, 62
1, 364575, Control_c, 0, 64, 67
1, 364590, Control_c, 0, 64, 72
1, 364605, Control_c, 0, 64, 78
1, 364607, Note_off_c, 0, 74, 58
1, 364613, Note_on_c, 0, 53, 35
1, 364620, Control_c, 0, 64, 86
1, 364625, Note_off_c, 0, 65, 61
1, 364632, Note_on_c, 0, 56, 54
1, 364635, Control_c, 0, 64, 98
1, 364649, Control_c, 0, 64, 116
1, 364657, Note_off_c, 0, 68, 37
1, 364664, Control_c, 0, 64, 127
1, 364674, Note_off_c, 0, 56, 61
1, 364739, Note_off_c, 0, 53, 0
1, 364753, Note_on_c, 0, 53, 35
1, 364780, Note_on_c, 0, 56, 51
1, 364825, Note_off_c, 0, 56, 58
1, 364829, Note_on_c, 0, 72, 64
1, 364834, Note_on_c, 0, 63, 60
1, 364844, Note_off_c, 0, 53, 56
1, 364849, Note_on_c, 0, 68, 42
1, 364868, Note_off_c, 0, 63, 65
1, 364876, Note_off_c, 0, 68, 58
1, 364891, Note_off_c, 0, 72, 62
1, 364917, Control_c, 0, 64, 121
1, 364938, Control_c, 0, 64, 87
1, 364951, Note_on_c, 0, 71, 64
1, 364953, Control_c, 0, 64, 68
1, 364964, Note_on_c, 0, 67, 51
1, 364968, Control_c, 0, 64, 50
1, 364974, Note_on_c, 0, 62, 49
1, 364983, Control_c, 0, 64, 0
1, 364991, Note_on_c, 0, 55, 55
1, 365034, Note_off_c, 0, 55, 63
1, 365057, Control_c, 0, 64, 39
1, 365072, Control_c, 0, 64, 54
1, 365087, Control_c, 0, 64, 61
1, 365102, Control_c, 0, 64, 65
1, 365117, Control_c, 0, 64, 69
1, 365131, Control_c, 0, 64, 72
1, 365132, Note_on_c, 0, 55, 48
1, 365146, Control_c, 0, 64, 77
1, 365161, Control_c, 0, 64, 82
1, 365173, Note_off_c, 0, 55, 61
1, 365174, Control_c, 0, 64, 88
1, 365189, Control_c, 0, 64, 92
1, 365197, Note_off_c, 0, 62, 36
1, 365204, Control_c, 0, 64, 93
1, 365239, Note_off_c, 0, 67, 38
1, 365248, Control_c, 0, 64, 94
1, 365278, Note_on_c, 0, 55, 47
1, 365308, Note_off_c, 0, 55, 58
1, 365312, Note_off_c, 0, 71, 55
1, 365353, Control_c, 0, 64, 93
1, 365368, Control_c, 0, 64, 92
1, 365383, Control_c, 0, 64, 91
1, 365397, Control_c, 0, 64, 88
1, 365412, Control_c, 0, 64, 82
1, 365427, Control_c, 0, 64, 72
1, 365433, Note_on_c, 0, 55, 38
1, 365435, Note_on_c, 0, 69, 57
1, 365442, Control_c, 0, 64, 63
1, 365443, Note_on_c, 0, 60, 45
1, 365446, Note_on_c, 0, 53, 47
1, 365456, Note_on_c, 0, 67, 36
1, 365457, Control_c, 0, 64, 49
1, 365472, Control_c, 0, 64, 35
1, 365487, Control_c, 0, 64, 38
1, 365493, Note_off_c, 0, 53, 57
1, 365495, Note_off_c, 0, 55, 60
1, 365502, Control_c, 0, 64, 44
1, 365517, Control_c, 0, 64, 51
1, 365531, Control_c, 0, 64, 58
1, 365546, Control_c, 0, 64, 62
1, 365561, Control_c, 0, 64, 64
1, 365576, Control_c, 0, 64, 66
1, 365591, Control_c, 0, 64, 69
1, 365605, Control_c, 0, 64, 71
1, 365618, Note_on_c, 0, 55, 38
1, 365620, Control_c, 0, 64, 75
1, 365635, Note_off_c, 0, 67, 35
1, 365635, Control_c, 0, 64, 78
1, 365648, Note_off_c, 0, 55, 52
1, 365650, Control_c, 0, 64, 83
1, 365665, Control_c, 0, 64, 87
1, 365686, Control_c, 0, 64, 90
1, 365701, Control_c, 0, 64, 91
1, 365716, Control_c, 0, 64, 92
1, 365749, Note_on_c, 0, 55, 55
1, 365788, Note_off_c, 0, 55, 61
1, 365809, Note_on_c, 0, 71, 57
1, 365834, Note_off_c, 0, 60, 18
1, 365835, Control_c, 0, 64, 91
1, 365838, Note_off_c, 0, 69, 33
1, 365850, Control_c, 0, 64, 90
1, 365865, Control_c, 0, 64, 88
1, 365879, Control_c, 0, 64, 86
1, 365884, Note_off_c, 0, 71, 54
1, 365894, Control_c, 0, 64, 80
1, 365909, Control_c, 0, 64, 71
1, 365911, Note_on_c, 0, 72, 60
1, 365922, Control_c, 0, 64, 61
1, 365929, Note_on_c, 0, 51, 46
1, 365930, Note_on_c, 0, 67, 44
1, 365936, Note_on_c, 0, 55, 35
1, 365937, Control_c, 0, 64, 42
1, 365952, Control_c, 0, 64, 32
1, 365953, Note_on_c, 0, 60, 38
1, 365967, Control_c, 0, 64, 36
1, 365982, Note_off_c, 0, 51, 59
1, 365982, Note_off_c, 0, 55, 60
1, 365982, Control_c, 0, 64, 44
1, 365996, Control_c, 0, 64, 54
1, 366011, Control_c, 0, 64, 60
1, 366026, Control_c, 0, 64, 64
1, 366033, Note_off_c, 0, 60, 59
1, 366041, Control_c, 0, 64, 67
1, 366056, Control_c, 0, 64, 70
1, 366059, Note_off_c, 0, 67, 58
1, 366071, Control_c, 0, 64, 73
1, 366086, Control_c, 0, 64, 76
1, 366101, Control_c, 0, 64, 80
1, 366104, Note_on_c, 0, 55, 40
1, 366112, Note_off_c, 0, 72, 61
1, 366116, Control_c, 0, 64, 85
1, 366131, Control_c, 0, 64, 90
1, 366138, Note_off_c, 0, 55, 51
1, 366146, Control_c, 0, 64, 93
1, 366160, Control_c, 0, 64, 94
1, 366175, Control_c, 0, 64, 95
1, 366205, Control_c, 0, 64, 95
1, 366220, Control_c, 0, 64, 97
1, 366235, Control_c, 0, 64, 98
1, 366241, Note_on_c, 0, 55, 48
1, 366250, Control_c, 0, 64, 99
1, 366265, Control_c, 0, 64, 100
1, 366318, Note_off_c, 0, 55, 49
1, 366339, Control_c, 0, 64, 99
1, 366353, Control_c, 0, 64, 99
1, 366368, Control_c, 0, 64, 98
1, 366383, Control_c, 0, 64, 96
1, 366398, Control_c, 0, 64, 93
1, 366413, Control_c, 0, 64, 88
1, 366432, Note_on_c, 0, 77, 55
1, 366435, Control_c, 0, 64, 78
1, 366437, Note_on_c, 0, 67, 48
1, 366444, Note_on_c, 0, 48, 44
1, 366444, Note_on_c, 0, 74, 49
1, 366450, Control_c, 0, 64, 67
1, 366464, Control_c, 0, 64, 57
1, 366479, Control_c, 0, 64, 40
1, 366494, Control_c, 0, 64, 34
1, 366509, Control_c, 0, 64, 39
1, 366518, Note_off_c, 0, 48, 49
1, 366524, Control_c, 0, 64, 47
1, 366539, Control_c, 0, 64, 55
1, 366553, Control_c, 0, 64, 61
1, 366568, Control_c, 0, 64, 64
1, 366583, Control_c, 0, 64, 66
1, 366597, Note_off_c, 0, 77, 53
1, 366598, Control_c, 0, 64, 69
1, 366613, Control_c, 0, 64, 71
1, 366621, Note_off_c, 0, 74, 54
1, 366625, Note_on_c, 0, 55, 46
1, 366627, Control_c, 0, 64, 75
1, 366642, Control_c, 0, 64, 78
1, 366655, Note_off_c, 0, 67, 36
1, 366657, Control_c, 0, 64, 83
1, 366673, Note_off_c, 0, 55, 59
1, 366673, Control_c, 0, 64, 87
1, 366688, Control_c, 0, 64, 91
1, 366702, Control_c, 0, 64, 92
1, 366717, Control_c, 0, 64, 93
1, 366746, Control_c, 0, 64, 93
1, 366761, Control_c, 0, 64, 94
1, 366776, Control_c, 0, 64, 94
1, 366791, Control_c, 0, 64, 95
1, 366813, Note_on_c, 0, 55, 38
1, 366903, Note_on_c, 0, 72, 44
1, 366903, Note_on_c, 0, 75, 48
1, 366909, Control_c, 0, 64, 95
1, 366912, Note_on_c, 0, 67, 42
1, 366944, Note_off_c, 0, 72, 62
1, 366955, Control_c, 0, 64, 96
1, 366958, Note_off_c, 0, 67, 58
1, 366964, Note_off_c, 0, 75, 59
1, 367014, Control_c, 0, 64, 95
1, 367029, Control_c, 0, 64, 95
1, 367043, Control_c, 0, 64, 94
1, 367058, Control_c, 0, 64, 92
1, 367073, Control_c, 0, 64, 90
1, 367088, Control_c, 0, 64, 87
1, 367089, Note_on_c, 0, 74, 54
1, 367090, Note_on_c, 0, 67, 40
1, 367093, Note_off_c, 0, 55, 18
1, 367101, Note_on_c, 0, 43, 41
1, 367101, Note_on_c, 0, 71, 45
1, 367103, Control_c, 0, 64, 83
1, 367117, Control_c, 0, 64, 77
1, 367132, Control_c, 0, 64, 70
1, 367147, Control_c, 0, 64, 60
1, 367162, Control_c, 0, 64, 46
1, 367184, Control_c, 0, 64, 23
1, 367199, Control_c, 0, 64, 0
1, 367273, Control_c, 0, 64, 18
1, 367288, Control_c, 0, 64, 31
1, 367302, Note_on_c, 0, 55, 39
1, 367303, Control_c, 0, 64, 44
1, 367318, Control_c, 0, 64, 56
1, 367332, Control_c, 0, 64, 62
1, 367347, Note_off_c, 0, 55, 57
1, 367347, Control_c, 0, 64, 65
1, 367362, Control_c, 0, 64, 68
1, 367377, Control_c, 0, 64, 72
1, 367392, Control_c, 0, 64, 76
1, 367406, Control_c, 0, 64, 79
1, 367421, Control_c, 0, 64, 83
1, 367436, Control_c, 0, 64, 87
1, 367450, Control_c, 0, 64, 90
1, 367451, Note_on_c, 0, 55, 40
1, 367465, Control_c, 0, 64, 93
1, 367480, Control_c, 0, 64, 95
1, 367484, Note_off_c, 0, 55, 52
1, 367495, Control_c, 0, 64, 98
1, 367510, Control_c, 0, 64, 100
1, 367524, Control_c, 0, 64, 103
1, 367539, Control_c, 0, 64, 107
1, 367554, Control_c, 0, 64, 118
1, 367568, Control_c, 0, 64, 127
1, 367580, Note_on_c, 0, 55, 52
1, 367608, Note_off_c, 0, 43, 37
1, 367631, Note_off_c, 0, 55, 59
1, 367732, Note_off_c, 0, 71, 38
1, 367743, Note_on_c, 0, 55, 49
1, 367743, Note_off_c, 0, 67, 40
1, 367786, Note_off_c, 0, 55, 57
1, 367806, Note_off_c, 0, 74, 60
1, 367868, Note_on_c, 0, 55, 48
1, 367907, Note_off_c, 0, 55, 62
1, 368015, Note_on_c, 0, 55, 58
1, 368069, Note_off_c, 0, 55, 57
1, 368170, Note_on_c, 0, 55, 71
1, 368213, Note_off_c, 0, 55, 62
1, 368295, Note_on_c, 0, 55, 78
1, 368364, Note_off_c, 0, 55, 62
1, 368450, Note_on_c, 0, 71, 85
1, 368451, Control_c, 0, 64, 100
1, 368456, Note_on_c, 0, 59, 78
1, 368460, Note_on_c, 0, 55, 71
1, 368465, Note_on_c, 0, 67, 68
1, 368465, Control_c, 0, 64, 75
1, 368480, Control_c, 0, 64, 61
1, 368495, Control_c, 0, 64, 33
1, 368506, Note_off_c, 0, 55, 57
1, 368510, Control_c, 0, 64, 0
1, 368526, Control_c, 0, 64, 22
1, 368541, Control_c, 0, 64, 44
1, 368556, Control_c, 0, 64, 58
1, 368570, Control_c, 0, 64, 65
1, 368585, Control_c, 0, 64, 72
1, 368596, Note_off_c, 0, 59, 55
1, 368600, Control_c, 0, 64, 83
1, 368601, Note_off_c, 0, 67, 60
1, 368611, Note_on_c, 0, 55, 79
1, 368614, Control_c, 0, 64, 109
1, 368629, Control_c, 0, 64, 127
1, 368643, Note_off_c, 0, 71, 60
1, 368692, Note_off_c, 0, 55, 61
1, 368768, Note_on_c, 0, 55, 75
1, 368815, Note_on_c, 0, 60, 83
1, 368819, Note_on_c, 0, 69, 78
1, 368819, Note_on_c, 0, 72, 85
1, 368842, Note_off_c, 0, 55, 59
1, 368866, Note_off_c, 0, 60, 65
1, 368873, Note_off_c, 0, 69, 64
1, 368893, Note_off_c, 0, 72, 62
1, 368948, Control_c, 0, 64, 82
1, 368956, Note_on_c, 0, 55, 79
1, 368958, Note_on_c, 0, 62, 89
1, 368960, Note_on_c, 0, 74, 88
1, 368962, Control_c, 0, 64, 62
1, 368968, Note_on_c, 0, 71, 76
1, 368977, Control_c, 0, 64, 0
1, 369028, Note_off_c, 0, 55, 63
1, 369067, Control_c, 0, 64, 37
1, 369082, Control_c, 0, 64, 58
1, 369096, Control_c, 0, 64, 67
1, 369111, Control_c, 0, 64, 76
1, 369124, Note_on_c, 0, 55, 82
1, 369126, Control_c, 0, 64, 95
1, 369140, Control_c, 0, 64, 127
1, 369147, Note_off_c, 0, 71, 56
1, 369182, Note_off_c, 0, 55, 63
1, 369183, Note_off_c, 0, 62, 56
1, 369201, Note_off_c, 0, 74, 55
1, 369252, Note_on_c, 0, 55, 84
1, 369314, Note_off_c, 0, 55, 60
1, 369393, Note_on_c, 0, 74, 90
1, 369393, Control_c, 0, 64, 76
1, 369397, Note_on_c, 0, 62, 88
1, 369398, Note_on_c, 0, 54, 84
1, 369401, Note_on_c, 0, 71, 78
1, 369408, Control_c, 0, 64, 45
1, 369419, Note_on_c, 0, 55, 64
1, 369430, Control_c, 0, 64, 0
1, 369472, Note_off_c, 0, 54, 63
1, 369482, Note_off_c, 0, 55, 57
1, 369490, Control_c, 0, 64, 46
1, 369505, Control_c, 0, 64, 64
1, 369519, Control_c, 0, 64, 75
1, 369534, Control_c, 0, 64, 101
1, 369546, Note_on_c, 0, 54, 89
1, 369549, Control_c, 0, 64, 127
1, 369565, Note_on_c, 0, 55, 59
1, 369603, Note_off_c, 0, 54, 64
1, 369611, Note_off_c, 0, 55, 53
1, 369628, Note_off_c, 0, 74, 52
1, 369648, Note_off_c, 0, 71, 56
1, 369679, Note_on_c, 0, 54, 94
1, 369681, Note_off_c, 0, 62, 57
1, 369692, Note_on_c, 0, 55, 67
1, 369742, Note_off_c, 0, 54, 63
1, 369749, Note_off_c, 0, 55, 57
1, 369830, Note_on_c, 0, 74, 94
1, 369830, Control_c, 0, 64, 84
1, 369834, Note_on_c, 0, 62, 87
1, 369837, Note_on_c, 0, 71, 76
1, 369838, Note_on_c, 0, 53, 88
1, 369845, Control_c, 0, 64, 62
1, 369860, Control_c, 0, 64, 21
1, 369869, Note_on_c, 0, 55, 50
1, 369875, Control_c, 0, 64, 0
1, 369902, Note_off_c, 0, 55, 63
1, 369907, Note_off_c, 0, 53, 62
1, 369919, Control_c, 0, 64, 39
1, 369934, Control_c, 0, 64, 59
1, 369949, Control_c, 0, 64, 65
1, 369963, Control_c, 0, 64, 71
1, 369978, Control_c, 0, 64, 81
1, 369983, Note_on_c, 0, 52, 96
1, 369993, Control_c, 0, 64, 96
1, 369995, Note_on_c, 0, 55, 67
1, 370008, Control_c, 0, 64, 127
1, 370021, Note_off_c, 0, 62, 56
1, 370035, Note_off_c, 0, 55, 60
1, 370048, Note_off_c, 0, 74, 59
1, 370050, Note_off_c, 0, 52, 64
1, 370063, Note_off_c, 0, 71, 60
1, 370118, Note_on_c, 0, 50, 92
1, 370144, Note_on_c, 0, 55, 64
1, 370190, Note_off_c, 0, 55, 61
1, 370202, Note_off_c, 0, 50, 65
1, 370253, Control_c, 0, 64, 91
1, 370268, Control_c, 0, 64, 69
1, 370282, Note_on_c, 0, 64, 95
1, 370283, Control_c, 0, 64, 53
1, 370284, Note_on_c, 0, 72, 86
1, 370286, Note_on_c, 0, 76, 91
1, 370286, Note_on_c, 0, 48, 83
1, 370290, Note_on_c, 0, 55, 74
1, 370298, Control_c, 0, 64, 33
1, 370313, Control_c, 0, 64, 42
1, 370328, Control_c, 0, 64, 56
1, 370342, Control_c, 0, 64, 66
1, 370348, Note_off_c, 0, 55, 61
1, 370353, Note_off_c, 0, 48, 63
1, 370357, Control_c, 0, 64, 80
1, 370372, Control_c, 0, 64, 127
1, 370406, Note_off_c, 0, 72, 64
1, 370408, Note_off_c, 0, 64, 56
1, 370443, Note_on_c, 0, 55, 88
1, 370446, Note_on_c, 0, 47, 77
1, 370450, Note_on_c, 0, 48, 77
1, 370456, Note_off_c, 0, 76, 58
1, 370489, Note_off_c, 0, 55, 64
1, 370498, Note_off_c, 0, 48, 62
1, 370501, Note_off_c, 0, 47, 62
1, 370599, Note_on_c, 0, 55, 94
1, 370603, Note_on_c, 0, 46, 93
1, 370694, Note_on_c, 0, 65, 95
1, 370699, Note_on_c, 0, 74, 86
1, 370702, Note_on_c, 0, 77, 93
1, 370757, Note_off_c, 0, 55, 58
1, 370760, Note_on_c, 0, 76, 17
1, 370783, Note_off_c, 0, 65, 57
1, 370790, Note_off_c, 0, 46, 60
1, 370796, Note_off_c, 0, 74, 63
1, 370805, Note_off_c, 0, 76, 35
1, 370821, Note_off_c, 0, 77, 58
1, 370872, Note_on_c, 0, 55, 81
1, 370876, Note_on_c, 0, 45, 76
1, 370959, Control_c, 0, 64, 98
1, 370973, Control_c, 0, 64, 69
1, 370988, Control_c, 0, 64, 48
1, 370996, Note_on_c, 0, 67, 95
1, 370999, Note_on_c, 0, 76, 86
1, 371000, Note_on_c, 0, 79, 84
1, 371003, Control_c, 0, 64, 0
1, 371067, Note_off_c, 0, 45, 61
1, 371079, Note_off_c, 0, 55, 57
1, 371180, Control_c, 0, 64, 29
1, 371189, Note_on_c, 0, 45, 55
1, 371190, Note_on_c, 0, 55, 57
1, 371195, Control_c, 0, 64, 53
1, 371210, Control_c, 0, 64, 63
1, 371225, Control_c, 0, 64, 70
1, 371231, Note_off_c, 0, 55, 61
1, 371233, Note_off_c, 0, 45, 59
1, 371240, Control_c, 0, 64, 83
1, 371255, Control_c, 0, 64, 107
1, 371270, Control_c, 0, 64, 127
1, 371293, Note_off_c, 0, 76, 62
1, 371317, Note_on_c, 0, 55, 61
1, 371336, Note_on_c, 0, 45, 52
1, 371359, Note_off_c, 0, 79, 57
1, 371375, Note_off_c, 0, 55, 54
1, 371383, Note_off_c, 0, 45, 58
1, 371428, Note_off_c, 0, 67, 61
1, 371469, Note_on_c, 0, 45, 49
1, 371475, Note_on_c, 0, 55, 54
1, 371514, Note_off_c, 0, 45, 58
1, 371520, Note_off_c, 0, 55, 58
1, 371629, Note_on_c, 0, 45, 44
1, 371629, Note_on_c, 0, 55, 46
1, 371666, Note_off_c, 0, 55, 60
1, 371673, Note_off_c, 0, 45, 58
1, 371676, Note_on_c, 0, 77, 68
1, 371681, Note_on_c, 0, 74, 49
1, 371686, Note_on_c, 0, 65, 51
1, 371763, Note_off_c, 0, 65, 60
1, 371767, Note_off_c, 0, 74, 58
1, 371785, Note_on_c, 0, 45, 45
1, 371791, Note_on_c, 0, 55, 41
1, 371797, Note_off_c, 0, 77, 58
1, 371836, Note_off_c, 0, 55, 58
1, 371842, Note_off_c, 0, 45, 56
1, 371943, Control_c, 0, 64, 91
1, 371958, Control_c, 0, 64, 72
1, 371967, Note_on_c, 0, 76, 63
1, 371973, Control_c, 0, 64, 59
1, 371981, Note_on_c, 0, 45, 41
1, 371985, Note_on_c, 0, 55, 33
1, 371988, Control_c, 0, 64, 23
1, 371989, Note_on_c, 0, 73, 46
1, 371990, Note_on_c, 0, 64, 41
1, 372003, Control_c, 0, 64, 0
1, 372031, Note_off_c, 0, 55, 51
1, 372036, Note_off_c, 0, 45, 54
1, 372048, Control_c, 0, 64, 17
1, 372063, Control_c, 0, 64, 34
1, 372077, Control_c, 0, 64, 51
1, 372092, Control_c, 0, 64, 60
1, 372107, Control_c, 0, 64, 65
1, 372122, Control_c, 0, 64, 70
1, 372129, Note_on_c, 0, 45, 35
1, 372137, Control_c, 0, 64, 76
1, 372152, Control_c, 0, 64, 83
1, 372154, Note_on_c, 0, 55, 39
1, 372166, Control_c, 0, 64, 94
1, 372181, Control_c, 0, 64, 110
1, 372189, Note_off_c, 0, 55, 50
1, 372190, Note_off_c, 0, 45, 50
1, 372196, Control_c, 0, 64, 127
1, 372218, Note_off_c, 0, 76, 57
1, 372226, Note_off_c, 0, 73, 56
1, 372264, Note_off_c, 0, 64, 53
1, 372265, Note_on_c, 0, 45, 41
1, 372298, Note_on_c, 0, 55, 50
1, 372334, Note_off_c, 0, 55, 61
1, 372352, Note_off_c, 0, 45, 53
1, 372437, Note_on_c, 0, 55, 59
1, 372444, Note_on_c, 0, 45, 40
1, 372490, Note_off_c, 0, 55, 60
1, 372493, Note_off_c, 0, 45, 61
1, 372584, Note_on_c, 0, 45, 79
1, 372588, Note_on_c, 0, 55, 71
1, 372629, Note_off_c, 0, 55, 59
1, 372663, Note_off_c, 0, 45, 62
1, 372737, Note_on_c, 0, 45, 80
1, 372933, Note_on_c, 0, 64, 82
1, 372945, Control_c, 0, 64, 123
1, 372947, Note_on_c, 0, 55, 67
1, 372947, Note_on_c, 0, 61, 68
1, 372959, Note_on_c, 0, 46, 69
1, 372960, Control_c, 0, 64, 90
1, 372975, Control_c, 0, 64, 72
1, 372987, Note_off_c, 0, 45, 62
1, 372989, Control_c, 0, 64, 60
1, 373004, Control_c, 0, 64, 27
1, 373019, Control_c, 0, 64, 0
1, 373124, Note_on_c, 0, 45, 61
1, 373149, Note_off_c, 0, 46, 60
1, 373189, Control_c, 0, 64, 29
1, 373195, Note_off_c, 0, 45, 60
1, 373204, Control_c, 0, 64, 51
1, 373219, Control_c, 0, 64, 60
1, 373234, Control_c, 0, 64, 64
1, 373249, Control_c, 0, 64, 67
1, 373258, Note_on_c, 0, 45, 47
1, 373264, Control_c, 0, 64, 69
1, 373278, Control_c, 0, 64, 71
1, 373293, Control_c, 0, 64, 72
1, 373308, Control_c, 0, 64, 73
1, 373312, Note_off_c, 0, 45, 62
1, 373410, Note_on_c, 0, 45, 55
1, 373442, Control_c, 0, 64, 73
1, 373449, Note_off_c, 0, 45, 62
1, 373555, Note_on_c, 0, 45, 46
1, 373614, Note_off_c, 0, 45, 60
1, 373615, Note_on_c, 0, 65, 59
1, 373649, Note_off_c, 0, 64, 58
1, 373664, Control_c, 0, 64, 73
1, 373664, Control_c, 0, 67, 11
1, 373679, Control_c, 0, 67, 16
1, 373693, Control_c, 0, 67, 18
1, 373708, Control_c, 0, 64, 72
1, 373708, Control_c, 0, 67, 19
1, 373738, Control_c, 0, 64, 72
1, 373743, Note_on_c, 0, 45, 43
1, 373753, Control_c, 0, 64, 71
1, 373768, Control_c, 0, 64, 71
1, 373783, Control_c, 0, 64, 69
1, 373792, Note_off_c, 0, 45, 58
1, 373797, Control_c, 0, 64, 66
1, 373812, Control_c, 0, 64, 61
1, 373827, Control_c, 0, 64, 54
1, 373842, Control_c, 0, 64, 44
1, 373857, Control_c, 0, 64, 41
1, 373886, Control_c, 0, 64, 42
1, 373886, Control_c, 0, 67, 18
1, 373897, Note_on_c, 0, 64, 58
1, 373901, Control_c, 0, 64, 43
1, 373901, Control_c, 0, 67, 18
1, 373902, Note_off_c, 0, 65, 55
1, 373922, Note_on_c, 0, 45, 42
1, 373923, Control_c, 0, 64, 46
1, 373923, Control_c, 0, 67, 17
1, 373938, Control_c, 0, 64, 50
1, 373938, Control_c, 0, 67, 16
1, 373953, Control_c, 0, 64, 57
1, 373954, Note_off_c, 0, 45, 55
1, 373967, Control_c, 0, 64, 61
1, 373967, Control_c, 0, 67, 16
1, 373982, Control_c, 0, 64, 63
1, 373982, Control_c, 0, 67, 15
1, 373997, Control_c, 0, 64, 65
1, 373997, Control_c, 0, 67, 14
1, 374012, Control_c, 0, 64, 66
1, 374012, Control_c, 0, 67, 13
1, 374027, Control_c, 0, 64, 67
1, 374042, Control_c, 0, 64, 70
1, 374042, Control_c, 0, 67, 13
1, 374057, Control_c, 0, 64, 72
1, 374057, Control_c, 0, 67, 12
1, 374057, Note_on_c, 0, 45, 50
1, 374072, Control_c, 0, 64, 76
1, 374072, Control_c, 0, 67, 11
1, 374075, Note_off_c, 0, 55, 56
1, 374086, Control_c, 0, 64, 80
1, 374086, Control_c, 0, 67, 11
1, 374101, Control_c, 0, 64, 86
1, 374101, Control_c, 0, 67, 9
1, 374103, Note_off_c, 0, 45, 56
1, 374114, Note_off_c, 0, 61, 58
1, 374116, Control_c, 0, 64, 91
1, 374116, Control_c, 0, 67, 9
1, 374131, Control_c, 0, 64, 100
1, 374131, Control_c, 0, 67, 8
1, 374143, Note_off_c, 0, 64, 62
1, 374146, Control_c, 0, 64, 110
1, 374146, Control_c, 0, 67, 0
1, 374162, Control_c, 0, 64, 127
1, 374191, Note_on_c, 0, 45, 61
1, 374232, Note_off_c, 0, 45, 59
1, 374330, Note_on_c, 0, 45, 75
1, 374388, Note_off_c, 0, 45, 61
1, 374468, Note_on_c, 0, 45, 81
1, 374522, Note_off_c, 0, 45, 63
1, 374607, Note_on_c, 0, 45, 90
1, 374677, Note_off_c, 0, 45, 63
1, 374827, Note_on_c, 0, 77, 91
1, 374832, Note_on_c, 0, 65, 79
1, 374832, Note_on_c, 0, 74, 73
1, 374856, Note_on_c, 0, 44, 70
1, 374865, Control_c, 0, 64, 101
1, 374880, Control_c, 0, 64, 77
1, 374895, Control_c, 0, 64, 63
1, 374911, Control_c, 0, 64, 29
1, 374926, Control_c, 0, 64, 0
1, 374957, Note_off_c, 0, 44, 62
1, 375042, Note_on_c, 0, 44, 60
1, 375044, Control_c, 0, 64, 45
1, 375058, Control_c, 0, 64, 61
1, 375073, Control_c, 0, 64, 67
1, 375088, Control_c, 0, 64, 74
1, 375094, Note_off_c, 0, 44, 62
1, 375103, Control_c, 0, 64, 86
1, 375118, Control_c, 0, 64, 107
1, 375133, Control_c, 0, 64, 127
1, 375133, Note_off_c, 0, 74, 62
1, 375178, Note_on_c, 0, 44, 64
1, 375186, Note_off_c, 0, 77, 61
1, 375216, Note_off_c, 0, 44, 61
1, 375222, Note_off_c, 0, 65, 59
1, 375309, Note_on_c, 0, 44, 64
1, 375353, Note_off_c, 0, 44, 57
1, 375467, Note_on_c, 0, 44, 52
1, 375517, Note_off_c, 0, 44, 58
1, 375530, Note_on_c, 0, 75, 65
1, 375535, Note_on_c, 0, 72, 50
1, 375536, Note_on_c, 0, 63, 52
1, 375589, Note_off_c, 0, 72, 57
1, 375607, Note_off_c, 0, 63, 62
1, 375621, Note_off_c, 0, 75, 63
1, 375639, Note_on_c, 0, 44, 50
1, 375687, Note_off_c, 0, 44, 57
1, 375718, Control_c, 0, 64, 121
1, 375733, Control_c, 0, 64, 96
1, 375748, Control_c, 0, 64, 82
1, 375748, Control_c, 0, 67, 10
1, 375762, Control_c, 0, 64, 71
1, 375762, Control_c, 0, 67, 12
1, 375777, Control_c, 0, 64, 62
1, 375777, Control_c, 0, 67, 15
1, 375783, Note_on_c, 0, 74, 55
1, 375789, Note_on_c, 0, 71, 50
1, 375792, Control_c, 0, 64, 53
1, 375792, Control_c, 0, 67, 19
1, 375802, Note_on_c, 0, 62, 45
1, 375807, Control_c, 0, 64, 44
1, 375807, Control_c, 0, 67, 24
1, 375812, Note_on_c, 0, 44, 46
1, 375822, Control_c, 0, 64, 42
1, 375822, Control_c, 0, 67, 28
1, 375836, Control_c, 0, 64, 39
1, 375836, Control_c, 0, 67, 31
1, 375851, Control_c, 0, 64, 25
1, 375851, Control_c, 0, 67, 33
1, 375854, Note_off_c, 0, 44, 61
1, 375866, Control_c, 0, 64, 0
1, 375866, Control_c, 0, 67, 34
1, 375941, Control_c, 0, 67, 33
1, 375955, Control_c, 0, 67, 32
1, 375961, Note_on_c, 0, 44, 48
1, 375970, Control_c, 0, 64, 25
1, 375970, Control_c, 0, 67, 31
1, 375985, Control_c, 0, 64, 49
1, 375985, Control_c, 0, 67, 29
1, 376000, Control_c, 0, 64, 60
1, 376000, Control_c, 0, 67, 27
1, 376004, Note_off_c, 0, 44, 60
1, 376015, Control_c, 0, 64, 64
1, 376015, Control_c, 0, 67, 25
1, 376029, Control_c, 0, 64, 67
1, 376029, Control_c, 0, 67, 23
1, 376044, Control_c, 0, 64, 70
1, 376044, Control_c, 0, 67, 21
1, 376059, Control_c, 0, 64, 72
1, 376059, Control_c, 0, 67, 19
1, 376074, Control_c, 0, 64, 76
1, 376074, Control_c, 0, 67, 16
1, 376088, Control_c, 0, 64, 80
1, 376088, Control_c, 0, 67, 15
1, 376103, Control_c, 0, 64, 85
1, 376103, Control_c, 0, 67, 14
1, 376104, Note_off_c, 0, 71, 54
1, 376114, Note_on_c, 0, 44, 45
1, 376118, Control_c, 0, 64, 92
1, 376118, Control_c, 0, 67, 13
1, 376133, Control_c, 0, 64, 100
1, 376133, Control_c, 0, 67, 12
1, 376135, Note_off_c, 0, 74, 57
1, 376148, Control_c, 0, 64, 116
1, 376148, Control_c, 0, 67, 11
1, 376167, Note_off_c, 0, 44, 60
1, 376170, Control_c, 0, 64, 127
1, 376170, Control_c, 0, 67, 11
1, 376194, Note_off_c, 0, 62, 56
1, 376214, Control_c, 0, 67, 10
1, 376270, Note_on_c, 0, 44, 49
1, 376274, Control_c, 0, 67, 9
1, 376288, Control_c, 0, 67, 9
1, 376303, Control_c, 0, 67, 8
1, 376313, Note_off_c, 0, 44, 60
1, 376318, Control_c, 0, 67, 8
1, 376333, Control_c, 0, 67, 0
1, 376410, Note_on_c, 0, 44, 61
1, 376457, Note_off_c, 0, 44, 58
1, 376555, Note_on_c, 0, 44, 80
1, 376805, Note_on_c, 0, 62, 74
1, 376807, Note_on_c, 0, 59, 59
1, 376811, Note_on_c, 0, 43, 76
1, 376817, Note_on_c, 0, 53, 63
1, 376851, Control_c, 0, 64, 94
1, 376864, Note_off_c, 0, 44, 62
1, 376866, Control_c, 0, 64, 74
1, 376881, Control_c, 0, 64, 60
1, 376896, Control_c, 0, 64, 25
1, 376918, Control_c, 0, 64, 0
1, 377034, Note_on_c, 0, 44, 75
1, 377066, Control_c, 0, 64, 37
1, 377081, Control_c, 0, 64, 55
1, 377094, Note_off_c, 0, 43, 64
1, 377096, Control_c, 0, 64, 63
1, 377110, Control_c, 0, 64, 67
1, 377113, Note_off_c, 0, 44, 62
1, 377125, Control_c, 0, 64, 69
1, 377140, Control_c, 0, 64, 69
1, 377155, Control_c, 0, 64, 69
1, 377159, Note_on_c, 0, 44, 53
1, 377184, Control_c, 0, 64, 68
1, 377199, Control_c, 0, 64, 67
1, 377214, Control_c, 0, 64, 66
1, 377229, Control_c, 0, 64, 65
1, 377234, Note_off_c, 0, 44, 61
1, 377258, Control_c, 0, 64, 65
1, 377273, Control_c, 0, 64, 66
1, 377288, Control_c, 0, 64, 67
1, 377300, Note_on_c, 0, 44, 55
1, 377304, Control_c, 0, 64, 67
1, 377376, Note_off_c, 0, 44, 61
1, 377422, Control_c, 0, 64, 68
1, 377452, Control_c, 0, 64, 67
1, 377467, Control_c, 0, 64, 67
1, 377467, Note_on_c, 0, 44, 53
1, 377482, Control_c, 0, 64, 66
1, 377497, Control_c, 0, 64, 65
1, 377512, Control_c, 0, 64, 63
1, 377514, Note_on_c, 0, 63, 62
1, 377526, Control_c, 0, 64, 60
1, 377533, Note_off_c, 0, 44, 56
1, 377533, Note_off_c, 0, 62, 50
1, 377541, Control_c, 0, 64, 58
1, 377556, Control_c, 0, 64, 60
1, 377571, Control_c, 0, 64, 61
1, 377586, Control_c, 0, 64, 62
1, 377600, Control_c, 0, 64, 63
1, 377613, Note_on_c, 0, 44, 44
1, 377615, Control_c, 0, 64, 64
1, 377630, Control_c, 0, 64, 64
1, 377667, Control_c, 0, 64, 64
1, 377689, Note_off_c, 0, 44, 59
1, 377697, Control_c, 0, 64, 63
1, 377711, Control_c, 0, 64, 63
1, 377726, Control_c, 0, 64, 62
1, 377741, Control_c, 0, 64, 59
1, 377756, Control_c, 0, 64, 54
1, 377771, Control_c, 0, 64, 43
1, 377781, Note_on_c, 0, 62, 59
1, 377786, Control_c, 0, 64, 26
1, 377793, Note_on_c, 0, 44, 42
1, 377801, Control_c, 0, 64, 0
1, 377809, Note_off_c, 0, 63, 60
1, 377850, Note_off_c, 0, 44, 59
1, 377930, Note_on_c, 0, 44, 55
1, 377994, Note_off_c, 0, 44, 61
1, 378022, Control_c, 0, 64, 13
1, 378037, Control_c, 0, 64, 35
1, 378051, Control_c, 0, 64, 49
1, 378066, Control_c, 0, 64, 59
1, 378073, Note_on_c, 0, 44, 62
1, 378081, Control_c, 0, 64, 64
1, 378096, Control_c, 0, 64, 67
1, 378112, Control_c, 0, 64, 71
1, 378127, Control_c, 0, 64, 77
1, 378142, Control_c, 0, 64, 82
1, 378156, Control_c, 0, 64, 89
1, 378165, Note_off_c, 0, 44, 61
1, 378171, Control_c, 0, 64, 97
1, 378186, Control_c, 0, 64, 105
1, 378201, Control_c, 0, 64, 113
1, 378216, Control_c, 0, 64, 116
1, 378230, Note_on_c, 0, 43, 77
1, 378245, Control_c, 0, 64, 109
1, 378248, Note_off_c, 0, 53, 54
1, 378260, Control_c, 0, 64, 100
1, 378275, Control_c, 0, 64, 91
1, 378290, Control_c, 0, 64, 81
1, 378305, Control_c, 0, 64, 72
1, 378320, Control_c, 0, 64, 66
1, 378324, Note_off_c, 0, 43, 64
1, 378334, Control_c, 0, 64, 67
1, 378343, Note_off_c, 0, 59, 59
1, 378349, Control_c, 0, 64, 69
1, 378364, Control_c, 0, 64, 73
1, 378377, Note_on_c, 0, 43, 74
1, 378379, Control_c, 0, 64, 80
1, 378385, Note_off_c, 0, 62, 62
1, 378394, Control_c, 0, 64, 95
1, 378416, Control_c, 0, 64, 127
1, 378460, Note_off_c, 0, 43, 63
1, 378545, Note_on_c, 0, 43, 91
1, 378612, Note_off_c, 0, 43, 63
1, 378846, Note_on_c, 0, 75, 89
1, 378856, Note_on_c, 0, 69, 72
1, 378866, Note_on_c, 0, 48, 61
1, 378874, Note_on_c, 0, 42, 64
1, 378875, Control_c, 0, 64, 90
1, 378889, Control_c, 0, 64, 74
1, 378905, Control_c, 0, 64, 63
1, 378920, Control_c, 0, 64, 46
1, 378935, Control_c, 0, 64, 11
1, 378950, Control_c, 0, 64, 0
1, 378988, Note_off_c, 0, 42, 60
1, 379092, Note_on_c, 0, 42, 62
1, 379163, Note_off_c, 0, 42, 60
1, 379253, Control_c, 0, 64, 11
1, 379256, Note_on_c, 0, 42, 51
1, 379268, Control_c, 0, 64, 27
1, 379283, Control_c, 0, 64, 36
1, 379298, Note_off_c, 0, 42, 62
1, 379298, Control_c, 0, 64, 44
1, 379312, Control_c, 0, 64, 51
1, 379327, Control_c, 0, 64, 57
1, 379342, Control_c, 0, 64, 60
1, 379357, Control_c, 0, 64, 62
1, 379372, Control_c, 0, 64, 64
1, 379387, Control_c, 0, 64, 65
1, 379402, Control_c, 0, 64, 66
1, 379403, Note_on_c, 0, 42, 48
1, 379416, Control_c, 0, 64, 69
1, 379431, Control_c, 0, 64, 72
1, 379446, Control_c, 0, 64, 76
1, 379452, Note_off_c, 0, 42, 60
1, 379461, Control_c, 0, 64, 80
1, 379476, Control_c, 0, 64, 83
1, 379491, Control_c, 0, 64, 86
1, 379505, Control_c, 0, 64, 89
1, 379519, Note_off_c, 0, 75, 54
1, 379520, Control_c, 0, 64, 91
1, 379535, Control_c, 0, 64, 92
1, 379550, Control_c, 0, 64, 92
1, 379565, Control_c, 0, 64, 93
1, 379570, Note_on_c, 0, 42, 51
1, 379579, Control_c, 0, 64, 94
1, 379594, Control_c, 0, 64, 96
1, 379594, Control_c, 0, 67, 11
1, 379609, Control_c, 0, 64, 97
1, 379609, Control_c, 0, 67, 17
1, 379624, Control_c, 0, 64, 97
1, 379624, Control_c, 0, 67, 23
1, 379626, Note_off_c, 0, 42, 54
1, 379638, Control_c, 0, 64, 98
1, 379638, Control_c, 0, 67, 29
1, 379653, Control_c, 0, 67, 36
1, 379660, Note_off_c, 0, 48, 40
1, 379668, Control_c, 0, 64, 98
1, 379668, Control_c, 0, 67, 41
1, 379683, Control_c, 0, 64, 99
1, 379683, Control_c, 0, 67, 45
1, 379699, Control_c, 0, 67, 49
1, 379714, Control_c, 0, 67, 53
1, 379728, Control_c, 0, 67, 56
1, 379743, Control_c, 0, 67, 61
1, 379752, Note_on_c, 0, 42, 55
1, 379758, Control_c, 0, 64, 99
1, 379758, Control_c, 0, 67, 65
1, 379773, Control_c, 0, 64, 100
1, 379773, Control_c, 0, 67, 70
1, 379788, Control_c, 0, 64, 100
1, 379788, Control_c, 0, 67, 77
1, 379799, Note_off_c, 0, 42, 58
1, 379802, Control_c, 0, 64, 101
1, 379802, Control_c, 0, 67, 83
1, 379817, Control_c, 0, 67, 89
1, 379832, Control_c, 0, 67, 95
1, 379846, Control_c, 0, 67, 99
1, 379861, Control_c, 0, 67, 103
1, 379876, Control_c, 0, 64, 100
1, 379876, Control_c, 0, 67, 105
1, 379891, Control_c, 0, 64, 99
1, 379891, Control_c, 0, 67, 107
1, 379914, Control_c, 0, 64, 96
1, 379914, Control_c, 0, 67, 109
1, 379928, Control_c, 0, 64, 91
1, 379928, Control_c, 0, 67, 109
1, 379943, Control_c, 0, 64, 81
1, 379945, Note_on_c, 0, 74, 65
1, 379950, Note_on_c, 0, 42, 54
1, 379958, Control_c, 0, 64, 70
1, 379969, Note_on_c, 0, 50, 48
1, 379973, Control_c, 0, 64, 58
1, 379988, Control_c, 0, 64, 23
1, 379988, Control_c, 0, 67, 108
1, 380002, Control_c, 0, 64, 0
1, 380002, Control_c, 0, 67, 106
1, 380017, Control_c, 0, 67, 102
1, 380026, Note_off_c, 0, 42, 63
1, 380032, Control_c, 0, 67, 98
1, 380047, Control_c, 0, 67, 97
1, 380061, Control_c, 0, 64, 18
1, 380061, Control_c, 0, 67, 95
1, 380076, Control_c, 0, 64, 38
1, 380076, Control_c, 0, 67, 93
1, 380091, Control_c, 0, 64, 54
1, 380091, Control_c, 0, 67, 90
1, 380106, Control_c, 0, 64, 61
1, 380106, Control_c, 0, 67, 87
1, 380121, Control_c, 0, 64, 65
1, 380121, Control_c, 0, 67, 83
1, 380135, Control_c, 0, 64, 67
1, 380135, Control_c, 0, 67, 83
1, 380150, Control_c, 0, 64, 70
1, 380150, Control_c, 0, 67, 82
1, 380156, Note_on_c, 0, 42, 44
1, 380165, Control_c, 0, 64, 74
1, 380180, Control_c, 0, 64, 79
1, 380193, Note_off_c, 0, 42, 63
1, 380195, Control_c, 0, 64, 83
1, 380195, Control_c, 0, 67, 82
1, 380209, Control_c, 0, 64, 87
1, 380224, Control_c, 0, 64, 92
1, 380230, Note_off_c, 0, 74, 55
1, 380239, Control_c, 0, 64, 95
1, 380239, Control_c, 0, 67, 83
1, 380254, Control_c, 0, 64, 97
1, 380254, Control_c, 0, 67, 84
1, 380269, Control_c, 0, 64, 97
1, 380269, Control_c, 0, 67, 85
1, 380284, Control_c, 0, 67, 85
1, 380299, Control_c, 0, 64, 98
1, 380299, Control_c, 0, 67, 87
1, 380314, Control_c, 0, 67, 87
1, 380328, Control_c, 0, 64, 98
1, 380328, Control_c, 0, 67, 88
1, 380343, Control_c, 0, 64, 99
1, 380343, Control_c, 0, 67, 90
1, 380358, Control_c, 0, 67, 91
1, 380359, Note_on_c, 0, 42, 44
1, 380373, Control_c, 0, 64, 100
1, 380373, Control_c, 0, 67, 92
1, 380376, Note_off_c, 0, 50, 61
1, 380388, Control_c, 0, 64, 101
1, 380388, Control_c, 0, 67, 93
1, 380402, Control_c, 0, 64, 101
1, 380402, Control_c, 0, 67, 95
1, 380406, Note_off_c, 0, 42, 61
1, 380417, Control_c, 0, 67, 96
1, 380432, Control_c, 0, 67, 97
1, 380447, Control_c, 0, 67, 98
1, 380461, Control_c, 0, 67, 99
1, 380476, Control_c, 0, 67, 100
1, 380491, Control_c, 0, 67, 101
1, 380507, Control_c, 0, 64, 101
1, 380507, Control_c, 0, 67, 102
1, 380522, Control_c, 0, 64, 100
1, 380537, Control_c, 0, 64, 99
1, 380537, Control_c, 0, 67, 102
1, 380551, Control_c, 0, 64, 96
1, 380551, Control_c, 0, 67, 103
1, 380566, Control_c, 0, 64, 92
1, 380581, Control_c, 0, 64, 87
1, 380581, Control_c, 0, 67, 104
1, 380596, Control_c, 0, 64, 80
1, 380596, Control_c, 0, 67, 105
1, 380604, Note_on_c, 0, 51, 59
1, 380609, Note_on_c, 0, 72, 47
1, 380611, Control_c, 0, 64, 71
1, 380625, Control_c, 0, 64, 62
1, 380625, Control_c, 0, 67, 105
1, 380627, Note_on_c, 0, 42, 41
1, 380640, Control_c, 0, 64, 41
1, 380640, Control_c, 0, 67, 106
1, 380663, Control_c, 0, 64, 0
1, 380663, Control_c, 0, 67, 107
1, 380677, Control_c, 0, 67, 107
1, 380700, Note_off_c, 0, 42, 57
1, 380707, Control_c, 0, 67, 108
1, 380725, Note_off_c, 0, 69, 39
1, 380751, Control_c, 0, 64, 28
1, 380766, Control_c, 0, 64, 44
1, 380781, Control_c, 0, 64, 55
1, 380796, Control_c, 0, 64, 62
1, 380796, Control_c, 0, 67, 109
1, 380811, Control_c, 0, 64, 64
1, 380825, Control_c, 0, 64, 67
1, 380825, Control_c, 0, 67, 109
1, 380836, Note_on_c, 0, 42, 39
1, 380840, Control_c, 0, 64, 69
1, 380855, Control_c, 0, 64, 71
1, 380870, Control_c, 0, 64, 74
1, 380870, Control_c, 0, 67, 110
1, 380884, Control_c, 0, 64, 77
1, 380899, Control_c, 0, 64, 81
1, 380899, Control_c, 0, 67, 110
1, 380905, Note_off_c, 0, 42, 59
1, 380914, Control_c, 0, 64, 84
1, 380914, Control_c, 0, 67, 111
1, 380929, Control_c, 0, 64, 88
1, 380929, Control_c, 0, 67, 112
1, 380937, Note_off_c, 0, 72, 49
1, 380944, Control_c, 0, 64, 91
1, 380958, Control_c, 0, 64, 92
1, 380958, Control_c, 0, 67, 112
1, 380973, Control_c, 0, 64, 92
1, 380973, Control_c, 0, 67, 124
1, 380988, Control_c, 0, 67, 127
1, 381017, Control_c, 0, 64, 93
1, 381076, Note_on_c, 0, 42, 45
1, 381153, Note_off_c, 0, 42, 52
1, 381232, Note_off_c, 0, 51, 32
1, 381300, Control_c, 0, 64, 92
1, 381345, Control_c, 0, 64, 92
1, 381389, Control_c, 0, 64, 91
1, 381426, Control_c, 0, 64, 91
1, 381441, Control_c, 0, 64, 90
1, 381455, Control_c, 0, 64, 90
1, 381470, Control_c, 0, 64, 89
1, 381485, Control_c, 0, 64, 88
1, 381500, Control_c, 0, 64, 87
1, 381515, Control_c, 0, 64, 85
1, 381530, Control_c, 0, 64, 82
1, 381530, Note_on_c, 0, 67, 53
1, 381545, Control_c, 0, 64, 77
1, 381557, Note_on_c, 0, 52, 37
1, 381560, Control_c, 0, 64, 72
1, 381565, Note_on_c, 0, 43, 35
1, 381575, Control_c, 0, 64, 64
1, 381589, Control_c, 0, 64, 55
1, 381604, Control_c, 0, 64, 37
1, 381619, Control_c, 0, 64, 0
1, 381686, Note_off_c, 0, 43, 53
1, 381708, Control_c, 0, 64, 24
1, 381723, Control_c, 0, 64, 39
1, 381738, Control_c, 0, 64, 52
1, 381753, Control_c, 0, 64, 59
1, 381768, Control_c, 0, 64, 62
1, 381782, Control_c, 0, 64, 64
1, 381797, Control_c, 0, 64, 65
1, 381812, Control_c, 0, 64, 66
1, 381827, Control_c, 0, 64, 67
1, 381842, Note_on_c, 0, 43, 27
1, 381842, Control_c, 0, 64, 68
1, 381856, Control_c, 0, 64, 69
1, 381871, Control_c, 0, 64, 71
1, 381884, Note_off_c, 0, 43, 49
1, 381886, Control_c, 0, 64, 73
1, 381900, Control_c, 0, 64, 74
1, 381915, Control_c, 0, 64, 75
1, 381930, Control_c, 0, 64, 76
1, 381945, Control_c, 0, 64, 77
1, 381960, Control_c, 0, 64, 78
1, 381974, Control_c, 0, 64, 78
1, 381989, Control_c, 0, 64, 79
1, 381998, Note_on_c, 0, 43, 41
1, 382004, Control_c, 0, 64, 80
1, 382019, Control_c, 0, 64, 81
1, 382034, Control_c, 0, 64, 81
1, 382049, Note_off_c, 0, 43, 58
1, 382049, Control_c, 0, 64, 82
1, 382064, Control_c, 0, 64, 82
1, 382138, Control_c, 0, 64, 83
1, 382198, Note_on_c, 0, 43, 28
1, 382237, Note_off_c, 0, 43, 46
1, 382309, Control_c, 0, 64, 83
1, 382353, Control_c, 0, 64, 84
1, 382362, Note_on_c, 0, 43, 39
1, 382368, Control_c, 0, 64, 84
1, 382383, Control_c, 0, 64, 85
1, 382397, Control_c, 0, 64, 86
1, 382397, Note_off_c, 0, 43, 50
1, 382412, Control_c, 0, 64, 86
1, 382427, Control_c, 0, 64, 87
1, 382456, Control_c, 0, 64, 87
1, 382526, Note_on_c, 0, 43, 33
1, 382535, Note_off_c, 0, 67, 31
1, 382563, Note_off_c, 0, 52, 42
1, 382572, Note_off_c, 0, 43, 48
1, 382619, Control_c, 0, 64, 87
1, 382634, Control_c, 0, 64, 86
1, 382648, Control_c, 0, 64, 85
1, 382663, Control_c, 0, 64, 82
1, 382678, Control_c, 0, 64, 77
1, 382693, Control_c, 0, 64, 68
1, 382703, Note_on_c, 0, 72, 53
1, 382708, Control_c, 0, 64, 61
1, 382722, Control_c, 0, 64, 51
1, 382728, Note_on_c, 0, 50, 34
1, 382728, Note_on_c, 0, 65, 35
1, 382737, Control_c, 0, 64, 44
1, 382740, Note_on_c, 0, 43, 20
1, 382752, Control_c, 0, 64, 44
1, 382767, Control_c, 0, 64, 46
1, 382782, Control_c, 0, 64, 50
1, 382795, Note_off_c, 0, 43, 59
1, 382797, Control_c, 0, 64, 53
1, 382812, Control_c, 0, 64, 57
1, 382827, Control_c, 0, 64, 60
1, 382841, Control_c, 0, 64, 62
1, 382856, Control_c, 0, 64, 64
1, 382871, Control_c, 0, 64, 65
1, 382886, Control_c, 0, 64, 67
1, 382909, Control_c, 0, 64, 68
1, 382924, Control_c, 0, 64, 70
1, 382939, Note_on_c, 0, 43, 25
1, 382939, Control_c, 0, 64, 72
1, 382953, Control_c, 0, 64, 75
1, 382968, Control_c, 0, 64, 77
1, 382978, Note_off_c, 0, 43, 49
1, 382983, Control_c, 0, 64, 79
1, 382998, Control_c, 0, 64, 81
1, 383009, Note_on_c, 0, 71, 56
1, 383013, Control_c, 0, 64, 82
1, 383019, Note_off_c, 0, 72, 34
1, 383027, Control_c, 0, 64, 82
1, 383042, Control_c, 0, 64, 83
1, 383057, Control_c, 0, 64, 83
1, 383113, Note_on_c, 0, 43, 36
1, 383164, Note_off_c, 0, 43, 57
1, 383265, Control_c, 0, 64, 83
1, 383279, Control_c, 0, 64, 82
1, 383294, Control_c, 0, 64, 82
1, 383309, Control_c, 0, 64, 81
1, 383313, Note_on_c, 0, 69, 48
1, 383321, Note_on_c, 0, 43, 38
1, 383324, Note_off_c, 0, 71, 36
1, 383324, Control_c, 0, 64, 79
1, 383339, Control_c, 0, 64, 75
1, 383353, Control_c, 0, 64, 67
1, 383368, Control_c, 0, 64, 61
1, 383375, Note_off_c, 0, 43, 57
1, 383383, Control_c, 0, 64, 53
1, 383398, Control_c, 0, 64, 51
1, 383413, Control_c, 0, 64, 53
1, 383427, Control_c, 0, 64, 56
1, 383442, Control_c, 0, 64, 59
1, 383457, Control_c, 0, 64, 62
1, 383471, Control_c, 0, 64, 63
1, 383486, Control_c, 0, 64, 65
1, 383501, Control_c, 0, 64, 66
1, 383516, Control_c, 0, 64, 68
1, 383524, Note_on_c, 0, 43, 37
1, 383531, Control_c, 0, 64, 69
1, 383545, Control_c, 0, 64, 71
1, 383560, Control_c, 0, 64, 74
1, 383575, Control_c, 0, 64, 76
1, 383583, Note_off_c, 0, 43, 55
1, 383590, Control_c, 0, 64, 78
1, 383605, Control_c, 0, 64, 80
1, 383620, Control_c, 0, 64, 82
1, 383621, Note_on_c, 0, 71, 45
1, 383634, Control_c, 0, 64, 84
1, 383657, Control_c, 0, 64, 85
1, 383671, Control_c, 0, 64, 86
1, 383686, Control_c, 0, 64, 87
1, 383687, Note_off_c, 0, 69, 33
1, 383702, Control_c, 0, 64, 88
1, 383717, Control_c, 0, 64, 89
1, 383727, Note_off_c, 0, 71, 59
1, 383732, Control_c, 0, 64, 90
1, 383747, Note_off_c, 0, 65, 36
1, 383747, Control_c, 0, 64, 91
1, 383762, Control_c, 0, 64, 92
1, 383776, Control_c, 0, 64, 92
1, 383779, Note_on_c, 0, 43, 38
1, 383791, Control_c, 0, 64, 94
1, 383806, Control_c, 0, 64, 96
1, 383821, Control_c, 0, 64, 98
1, 383836, Control_c, 0, 64, 100
1, 383850, Control_c, 0, 64, 101
1, 383857, Note_off_c, 0, 50, 39
1, 383861, Note_off_c, 0, 43, 53
1, 383865, Control_c, 0, 64, 101
1, 383880, Control_c, 0, 64, 102
1, 383894, Control_c, 0, 64, 103
1, 383909, Control_c, 0, 64, 104
1, 383924, Control_c, 0, 64, 105
1, 383939, Control_c, 0, 64, 106
1, 383954, Control_c, 0, 64, 106
1, 383968, Control_c, 0, 64, 107
1, 384162, Control_c, 0, 64, 106
1, 384176, Control_c, 0, 64, 105
1, 384191, Control_c, 0, 64, 104
1, 384206, Control_c, 0, 64, 102
1, 384221, Control_c, 0, 64, 100
1, 384236, Control_c, 0, 64, 97
1, 384250, Control_c, 0, 64, 94
1, 384251, Note_on_c, 0, 72, 46
1, 384260, Note_on_c, 0, 67, 38
1, 384263, Note_on_c, 0, 64, 38
1, 384265, Control_c, 0, 64, 89
1, 384269, Note_on_c, 0, 48, 34
1, 384280, Control_c, 0, 64, 78
1, 384284, Note_on_c, 0, 36, 30
1, 384294, Control_c, 0, 64, 68
1, 384309, Control_c, 0, 64, 58
1, 384324, Control_c, 0, 64, 43
1, 384339, Control_c, 0, 64, 35
1, 384368, Control_c, 0, 64, 39
1, 384383, Control_c, 0, 64, 43
1, 384406, Control_c, 0, 64, 50
1, 384420, Control_c, 0, 64, 57
1, 384435, Control_c, 0, 64, 62
1, 384450, Control_c, 0, 64, 64
1, 384456, Note_off_c, 0, 36, 44
1, 384465, Control_c, 0, 64, 67
1, 384480, Control_c, 0, 64, 70
1, 384496, Control_c, 0, 64, 73
1, 384511, Control_c, 0, 64, 76
1, 384525, Control_c, 0, 64, 80
1, 384540, Control_c, 0, 64, 84
1, 384555, Control_c, 0, 64, 88
1, 384570, Control_c, 0, 64, 93
1, 384585, Control_c, 0, 64, 96
1, 384591, Note_on_c, 0, 36, 38
1, 384599, Control_c, 0, 64, 99
1, 384614, Control_c, 0, 64, 102
1, 384629, Control_c, 0, 64, 104
1, 384636, Note_off_c, 0, 36, 55
1, 384644, Control_c, 0, 64, 106
1, 384659, Control_c, 0, 64, 107
1, 384673, Control_c, 0, 64, 107
1, 384688, Control_c, 0, 64, 108
1, 384703, Control_c, 0, 64, 109
1, 384717, Control_c, 0, 64, 110
1, 384779, Note_off_c, 0, 48, 33
1, 384791, Control_c, 0, 64, 110
1, 384797, Note_on_c, 0, 36, 29
1, 384850, Note_off_c, 0, 36, 47
1, 384895, Control_c, 0, 64, 110
1, 384970, Control_c, 0, 64, 109
1, 384983, Note_on_c, 0, 36, 40
1, 384999, Control_c, 0, 64, 108
1, 385014, Control_c, 0, 64, 108
1, 385045, Note_off_c, 0, 36, 55
1, 385058, Control_c, 0, 64, 107
1, 385088, Control_c, 0, 64, 107
1, 385210, Note_on_c, 0, 36, 12
1, 385268, Note_off_c, 0, 36, 41
1, 385337, Note_on_c, 0, 36, 27
1, 385420, Note_off_c, 0, 36, 38
1, 385502, Note_on_c, 0, 36, 22
1, 385527, Control_c, 0, 64, 107
1, 385572, Note_off_c, 0, 36, 43
1, 385664, Note_on_c, 0, 36, 20
1, 385736, Note_off_c, 0, 36, 41
1, 385834, Note_on_c, 0, 36, 22
1, 385867, Control_c, 0, 64, 108
1, 385929, Note_off_c, 0, 36, 35
1, 385998, Note_on_c, 0, 36, 18
1, 386066, Note_off_c, 0, 36, 40
1, 386156, Note_on_c, 0, 36, 24
1, 386171, Control_c, 0, 64, 108
1, 386228, Note_off_c, 0, 36, 39
1, 386310, Note_on_c, 0, 36, 29
1, 386371, Note_off_c, 0, 36, 48
1, 386485, Note_on_c, 0, 36, 31
1, 386611, Note_off_c, 0, 36, 0
1, 386645, Note_on_c, 0, 36, 16
1, 386719, Note_off_c, 0, 36, 41
1, 386785, Control_c, 0, 64, 109
1, 386814, Note_on_c, 0, 36, 23
1, 386947, Note_off_c, 0, 36, 0
1, 386976, Note_on_c, 0, 36, 10
1, 387023, Control_c, 0, 64, 110
1, 387111, Note_off_c, 0, 36, 0
1, 387138, Note_on_c, 0, 36, 10
1, 387223, Note_off_c, 0, 36, 38
1, 387289, Control_c, 0, 64, 110
1, 387320, Note_on_c, 0, 36, 20
1, 387415, Control_c, 0, 64, 111
1, 387423, Note_off_c, 0, 36, 36
1, 387519, Control_c, 0, 64, 111
1, 387575, Note_on_c, 0, 36, 9
1, 387879, Note_off_c, 0, 67, 38
1, 387891, Note_off_c, 0, 36, 23
1, 388038, Control_c, 0, 64, 112
1, 388125, Note_off_c, 0, 64, 36
1, 388164, Control_c, 0, 64, 113
1, 388223, Control_c, 0, 67, 126
1, 388238, Control_c, 0, 67, 122
1, 388253, Control_c, 0, 67, 119
1, 388268, Control_c, 0, 67, 115
1, 388283, Control_c, 0, 67, 113
1, 388297, Control_c, 0, 67, 110
1, 388312, Control_c, 0, 67, 109
1, 388327, Control_c, 0, 67, 106
1, 388341, Control_c, 0, 67, 103
1, 388356, Control_c, 0, 64, 112
1, 388356, Control_c, 0, 67, 101
1, 388371, Control_c, 0, 67, 98
1, 388377, Note_off_c, 0, 72, 39
1, 388386, Control_c, 0, 64, 111
1, 388386, Control_c, 0, 67, 95
1, 388401, Control_c, 0, 64, 111
1, 388401, Control_c, 0, 67, 92
1, 388415, Control_c, 0, 64, 110
1, 388415, Control_c, 0, 67, 90
1, 388430, Control_c, 0, 67, 88
1, 388445, Control_c, 0, 64, 109
1, 388445, Control_c, 0, 67, 87
1, 388459, Control_c, 0, 64, 108
1, 388459, Control_c, 0, 67, 85
1, 388474, Control_c, 0, 64, 108
1, 388474, Control_c, 0, 67, 85
1, 388490, Control_c, 0, 64, 107
1, 388490, Control_c, 0, 67, 84
1, 388505, Control_c, 0, 64, 107
1, 388624, Control_c, 0, 64, 106
1, 388624, Control_c, 0, 67, 85
1, 388638, Control_c, 0, 64, 106
1, 388653, Control_c, 0, 67, 85
1, 388683, Control_c, 0, 67, 86
1, 388712, Control_c, 0, 67, 87
1, 388727, Control_c, 0, 67, 87
1, 388742, Control_c, 0, 64, 105
1, 388756, Control_c, 0, 64, 105
1, 388771, Control_c, 0, 64, 104
1, 388771, Control_c, 0, 67, 88
1, 388801, Control_c, 0, 64, 103
1, 388831, Control_c, 0, 64, 102
1, 388860, Control_c, 0, 64, 101
1, 388875, Control_c, 0, 64, 101
1, 388897, Control_c, 0, 64, 100
1, 388912, Control_c, 0, 64, 99
1, 388927, Control_c, 0, 64, 99
1, 388942, Control_c, 0, 64, 98
1, 389001, Control_c, 0, 64, 98
1, 389031, Control_c, 0, 64, 97
1, 389045, Control_c, 0, 64, 97
1, 389060, Control_c, 0, 64, 95
1, 389075, Control_c, 0, 64, 94
1, 389090, Control_c, 0, 64, 94
1, 389104, Control_c, 0, 64, 93
1, 389119, Control_c, 0, 64, 92
1, 389150, Control_c, 0, 64, 91
1, 389164, Control_c, 0, 64, 91
1, 389179, Control_c, 0, 64, 90
1, 389194, Control_c, 0, 64, 89
1, 389209, Control_c, 0, 64, 89
1, 389224, Control_c, 0, 64, 88
1, 389239, Control_c, 0, 64, 87
1, 389253, Control_c, 0, 64, 86
1, 389268, Control_c, 0, 64, 86
1, 389284, Control_c, 0, 64, 85
1, 389299, Control_c, 0, 64, 84
1, 389313, Control_c, 0, 64, 82
1, 389328, Control_c, 0, 64, 81
1, 389332, Note_on_c, 0, 71, 41
1, 389343, Control_c, 0, 64, 79
1, 389358, Control_c, 0, 64, 77
1, 389373, Control_c, 0, 64, 74
1, 389388, Control_c, 0, 64, 72
1, 389403, Control_c, 0, 64, 70
1, 389417, Control_c, 0, 64, 68
1, 389432, Control_c, 0, 64, 67
1, 389432, Control_c, 0, 67, 87
1, 389447, Control_c, 0, 64, 65
1, 389462, Control_c, 0, 64, 64
1, 389477, Control_c, 0, 64, 63
1, 389492, Control_c, 0, 64, 63
1, 389506, Control_c, 0, 64, 62
1, 389521, Control_c, 0, 64, 62
1, 389536, Control_c, 0, 64, 61
1, 389551, Control_c, 0, 64, 59
1, 389566, Control_c, 0, 64, 58
1, 389580, Control_c, 0, 64, 57
1, 389580, Control_c, 0, 67, 87
1, 389595, Control_c, 0, 64, 56
1, 389610, Control_c, 0, 64, 55
1, 389625, Control_c, 0, 64, 55
1, 389662, Control_c, 0, 64, 54
1, 389677, Control_c, 0, 64, 54
1, 389707, Control_c, 0, 64, 53
1, 389721, Control_c, 0, 64, 52
1, 389736, Control_c, 0, 64, 51
1, 389736, Control_c, 0, 67, 86
1, 389751, Control_c, 0, 64, 50
1, 389766, Control_c, 0, 64, 49
1, 389781, Control_c, 0, 64, 48
1, 389787, Note_on_c, 0, 72, 49
1, 389795, Control_c, 0, 64, 47
1, 389810, Control_c, 0, 64, 47
1, 389825, Control_c, 0, 64, 46
1, 389840, Control_c, 0, 64, 45
1, 389855, Control_c, 0, 64, 45
1, 389861, Note_off_c, 0, 71, 37
1, 389869, Control_c, 0, 64, 44
1, 389884, Control_c, 0, 64, 43
1, 389899, Control_c, 0, 64, 43
1, 389906, Note_on_c, 0, 74, 53
1, 389913, Control_c, 0, 64, 42
1, 389922, Note_off_c, 0, 72, 57
1, 389928, Control_c, 0, 64, 42
1, 390002, Control_c, 0, 64, 43
1, 390017, Control_c, 0, 64, 46
1, 390032, Control_c, 0, 64, 51
1, 390047, Control_c, 0, 64, 56
1, 390061, Control_c, 0, 64, 60
1, 390076, Control_c, 0, 64, 62
1, 390092, Control_c, 0, 64, 64
1, 390107, Control_c, 0, 64, 66
1, 390122, Control_c, 0, 64, 69
1, 390136, Control_c, 0, 64, 73
1, 390151, Control_c, 0, 64, 79
1, 390166, Control_c, 0, 64, 86
1, 390181, Control_c, 0, 64, 96
1, 390196, Control_c, 0, 64, 109
1, 390210, Control_c, 0, 64, 127
1, 390213, Note_off_c, 0, 74, 35
1, 390687, Note_on_c, 0, 74, 45
1, 390696, Note_on_c, 0, 67, 56
1, 390708, Note_on_c, 0, 55, 45
1, 390947, Note_off_c, 0, 74, 34
1, 391351, Note_on_c, 0, 74, 55
1, 391436, Note_off_c, 0, 67, 37
1, 391545, Control_c, 0, 67, 85
1, 391573, Note_off_c, 0, 55, 32
1, 391648, Control_c, 0, 67, 85
1, 391812, Control_c, 0, 64, 108
1, 391827, Control_c, 0, 64, 94
1, 391827, Control_c, 0, 67, 85
1, 391842, Control_c, 0, 64, 83
1, 391842, Control_c, 0, 67, 86
1, 391856, Control_c, 0, 64, 75
1, 391856, Control_c, 0, 67, 87
1, 391871, Control_c, 0, 64, 69
1, 391892, Note_on_c, 0, 72, 55
1, 391894, Control_c, 0, 64, 64
1, 391894, Control_c, 0, 67, 87
1, 391909, Control_c, 0, 64, 62
1, 391909, Control_c, 0, 67, 88
1, 391924, Control_c, 0, 64, 61
1, 391938, Control_c, 0, 64, 61
1, 391938, Control_c, 0, 67, 88
1, 391968, Control_c, 0, 67, 89
1, 391970, Note_off_c, 0, 74, 55
1, 391997, Control_c, 0, 64, 60
1, 391997, Control_c, 0, 67, 90
1, 392012, Control_c, 0, 64, 60
1, 392027, Control_c, 0, 64, 59
1, 392042, Control_c, 0, 64, 58
1, 392056, Control_c, 0, 64, 57
1, 392071, Control_c, 0, 64, 56
1, 392086, Control_c, 0, 64, 55
1, 392101, Control_c, 0, 64, 54
1, 392115, Control_c, 0, 64, 52
1, 392115, Control_c, 0, 67, 90
1, 392130, Control_c, 0, 64, 51
1, 392145, Control_c, 0, 64, 51
1, 392160, Control_c, 0, 64, 50
1, 392175, Control_c, 0, 64, 49
1, 392190, Control_c, 0, 64, 49
1, 392193, Note_on_c, 0, 71, 69
1, 392205, Control_c, 0, 64, 48
1, 392219, Control_c, 0, 64, 48
1, 392234, Control_c, 0, 64, 47
1, 392249, Control_c, 0, 64, 47
1, 392249, Control_c, 0, 67, 91
1, 392264, Control_c, 0, 64, 46
1, 392277, Note_off_c, 0, 72, 53
1, 392279, Control_c, 0, 64, 45
1, 392294, Control_c, 0, 64, 45
1, 392308, Control_c, 0, 64, 44
1, 392323, Control_c, 0, 64, 44
1, 392368, Control_c, 0, 64, 43
1, 392412, Control_c, 0, 64, 43
1, 392561, Control_c, 0, 67, 92
1, 392605, Control_c, 0, 67, 92
1, 392611, Note_on_c, 0, 75, 60
1, 392643, Control_c, 0, 67, 93
1, 392658, Control_c, 0, 67, 94
1, 392687, Control_c, 0, 67, 95
1, 392700, Note_off_c, 0, 71, 55
1, 392717, Control_c, 0, 67, 95
1, 392731, Control_c, 0, 67, 96
1, 392806, Control_c, 0, 67, 97
1, 393319, Note_on_c, 0, 67, 51
1, 393325, Note_on_c, 0, 55, 47
1, 393436, Control_c, 0, 64, 42
1, 393510, Control_c, 0, 67, 96
1, 393569, Control_c, 0, 67, 95
1, 393623, Note_on_c, 0, 74, 56
1, 393628, Control_c, 0, 67, 95
1, 393673, Control_c, 0, 67, 94
1, 393683, Note_off_c, 0, 75, 60
1, 393703, Control_c, 0, 67, 93
1, 393717, Control_c, 0, 67, 93
1, 393747, Control_c, 0, 67, 92
1, 393761, Control_c, 0, 67, 92
1, 393776, Control_c, 0, 67, 90
1, 393791, Control_c, 0, 67, 90
1, 393806, Control_c, 0, 67, 89
1, 393821, Control_c, 0, 64, 42
1, 393821, Control_c, 0, 67, 88
1, 393835, Control_c, 0, 64, 38
1, 393835, Control_c, 0, 67, 87
1, 393850, Control_c, 0, 64, 24
1, 393850, Control_c, 0, 67, 86
1, 393865, Control_c, 0, 64, 0
1, 393865, Control_c, 0, 67, 85
1, 393880, Control_c, 0, 67, 84
1, 393891, Note_on_c, 0, 72, 66
1, 393895, Control_c, 0, 67, 83
1, 393910, Control_c, 0, 67, 82
1, 393925, Control_c, 0, 67, 80
1, 393939, Control_c, 0, 67, 77
1, 393942, Note_off_c, 0, 74, 57
1, 393954, Control_c, 0, 67, 61
1, 393969, Control_c, 0, 64, 30
1, 393969, Control_c, 0, 67, 29
1, 393984, Control_c, 0, 64, 50
1, 393984, Control_c, 0, 67, 0
1, 393999, Control_c, 0, 64, 61
1, 394014, Control_c, 0, 64, 65
1, 394028, Control_c, 0, 64, 70
1, 394032, Note_off_c, 0, 67, 57
1, 394043, Control_c, 0, 64, 76
1, 394058, Control_c, 0, 64, 86
1, 394074, Control_c, 0, 64, 97
1, 394082, Note_off_c, 0, 72, 54
1, 394088, Control_c, 0, 64, 113
1, 394103, Control_c, 0, 64, 127
1, 394164, Note_on_c, 0, 67, 73
1, 394348, Control_c, 0, 64, 111
1, 394363, Control_c, 0, 64, 101
1, 394378, Control_c, 0, 64, 93
1, 394392, Control_c, 0, 64, 85
1, 394407, Control_c, 0, 64, 78
1, 394422, Control_c, 0, 64, 73
1, 394431, Note_on_c, 0, 72, 76
1, 394437, Control_c, 0, 64, 68
1, 394442, Note_on_c, 0, 60, 64
1, 394452, Control_c, 0, 64, 65
1, 394466, Control_c, 0, 64, 63
1, 394481, Control_c, 0, 64, 62
1, 394496, Control_c, 0, 64, 61
1, 394503, Note_off_c, 0, 67, 53
1, 394504, Note_off_c, 0, 55, 60
1, 394511, Control_c, 0, 64, 59
1, 394526, Control_c, 0, 64, 57
1, 394540, Control_c, 0, 64, 54
1, 394555, Control_c, 0, 64, 51
1, 394570, Control_c, 0, 64, 48
1, 394584, Control_c, 0, 64, 45
1, 394599, Control_c, 0, 64, 42
1, 394614, Control_c, 0, 64, 38
1, 394629, Control_c, 0, 64, 35
1, 394644, Control_c, 0, 64, 32
1, 394658, Control_c, 0, 64, 29
1, 394673, Control_c, 0, 64, 26
1, 394688, Control_c, 0, 64, 24
1, 394702, Note_on_c, 0, 74, 80
1, 394703, Control_c, 0, 64, 22
1, 394717, Note_on_c, 0, 62, 74
1, 394718, Control_c, 0, 64, 21
1, 394732, Control_c, 0, 64, 20
1, 394747, Control_c, 0, 64, 19
1, 394762, Control_c, 0, 64, 18
1, 394801, Note_off_c, 0, 60, 55
1, 394807, Control_c, 0, 64, 17
1, 394828, Note_off_c, 0, 72, 56
1, 394904, Control_c, 0, 64, 17
1, 394949, Control_c, 0, 64, 16
1, 394978, Control_c, 0, 64, 15
1, 394993, Control_c, 0, 64, 13
1, 395067, Control_c, 0, 64, 12
1, 395141, Control_c, 0, 64, 11
1, 395151, Note_on_c, 0, 75, 71
1, 395171, Control_c, 0, 64, 9
1, 395175, Note_on_c, 0, 63, 46
1, 395233, Note_off_c, 0, 74, 59
1, 395318, Note_off_c, 0, 62, 59
1, 395319, Control_c, 0, 64, 0
1, 395511, Control_c, 0, 67, 14
1, 395525, Control_c, 0, 67, 29
1, 395540, Control_c, 0, 67, 40
1, 395555, Control_c, 0, 67, 50
1, 395570, Control_c, 0, 67, 59
1, 395585, Control_c, 0, 67, 66
1, 395600, Control_c, 0, 67, 72
1, 395615, Control_c, 0, 67, 77
1, 395637, Control_c, 0, 67, 81
1, 395652, Control_c, 0, 67, 83
1, 395771, Control_c, 0, 67, 84
1, 395786, Control_c, 0, 67, 85
1, 395801, Control_c, 0, 67, 85
1, 395816, Note_on_c, 0, 74, 57
1, 395830, Control_c, 0, 67, 87
1, 395838, Note_on_c, 0, 62, 36
1, 395845, Control_c, 0, 67, 89
1, 395860, Control_c, 0, 67, 100
1, 395875, Control_c, 0, 67, 113
1, 395885, Note_off_c, 0, 75, 48
1, 395890, Control_c, 0, 67, 124
1, 395898, Note_off_c, 0, 63, 55
1, 395904, Control_c, 0, 67, 127
1, 396144, Note_on_c, 0, 72, 55
1, 396148, Note_on_c, 0, 60, 46
1, 396183, Note_off_c, 0, 74, 60
1, 396211, Note_off_c, 0, 62, 32
1, 396501, Note_on_c, 0, 67, 46
1, 396510, Note_off_c, 0, 60, 55
1, 396510, Note_off_c, 0, 72, 57
1, 396513, Note_on_c, 0, 64, 40
1, 396516, Note_on_c, 0, 55, 30
1, 396565, Control_c, 0, 64, 15
1, 396579, Control_c, 0, 64, 24
1, 396594, Control_c, 0, 64, 34
1, 396609, Control_c, 0, 64, 44
1, 396624, Control_c, 0, 64, 53
1, 396639, Control_c, 0, 64, 59
1, 396653, Control_c, 0, 64, 62
1, 396668, Control_c, 0, 64, 65
1, 396683, Control_c, 0, 64, 67
1, 396698, Control_c, 0, 64, 70
1, 396713, Control_c, 0, 64, 73
1, 396724, Note_off_c, 0, 67, 53
1, 396727, Note_off_c, 0, 64, 51
1, 396727, Control_c, 0, 64, 76
1, 396742, Control_c, 0, 64, 79
1, 396745, Note_off_c, 0, 55, 43
1, 396757, Control_c, 0, 64, 82
1, 396771, Control_c, 0, 64, 84
1, 396816, Control_c, 0, 64, 83
1, 396831, Control_c, 0, 64, 82
1, 396846, Control_c, 0, 64, 80
1, 396861, Control_c, 0, 64, 79
1, 396876, Control_c, 0, 64, 77
1, 396891, Control_c, 0, 64, 74
1, 396905, Control_c, 0, 64, 70
1, 396920, Control_c, 0, 64, 66
1, 396935, Control_c, 0, 64, 63
1, 396950, Control_c, 0, 64, 60
1, 396965, Control_c, 0, 64, 58
1, 396979, Control_c, 0, 64, 58
1, 396994, Control_c, 0, 64, 57
1, 397009, Control_c, 0, 64, 56
1, 397024, Control_c, 0, 64, 54
1, 397039, Control_c, 0, 64, 50
1, 397053, Control_c, 0, 64, 47
1, 397068, Control_c, 0, 64, 44
1, 397083, Control_c, 0, 64, 42
1, 397098, Control_c, 0, 64, 40
1, 397113, Control_c, 0, 64, 37
1, 397135, Control_c, 0, 64, 36
1, 397150, Control_c, 0, 64, 35
1, 397179, Control_c, 0, 64, 36
1, 397194, Control_c, 0, 64, 39
1, 397198, Note_on_c, 0, 71, 50
1, 397209, Control_c, 0, 64, 42
1, 397224, Control_c, 0, 64, 49
1, 397227, Note_on_c, 0, 65, 32
1, 397233, Note_on_c, 0, 62, 31
1, 397236, Note_on_c, 0, 55, 30
1, 397239, Control_c, 0, 64, 55
1, 397253, Control_c, 0, 64, 59
1, 397268, Control_c, 0, 64, 62
1, 397284, Control_c, 0, 64, 64
1, 397299, Control_c, 0, 64, 65
1, 397314, Control_c, 0, 64, 67
1, 397329, Control_c, 0, 64, 69
1, 397344, Control_c, 0, 64, 72
1, 397347, Note_off_c, 0, 71, 58
1, 397358, Control_c, 0, 64, 75
1, 397373, Control_c, 0, 64, 79
1, 397375, Note_off_c, 0, 62, 35
1, 397388, Control_c, 0, 64, 82
1, 397391, Note_off_c, 0, 65, 37
1, 397402, Control_c, 0, 64, 84
1, 397403, Note_off_c, 0, 55, 33
1, 397417, Control_c, 0, 64, 85
1, 397521, Control_c, 0, 64, 84
1, 397536, Control_c, 0, 64, 84
1, 397550, Control_c, 0, 64, 83
1, 397565, Control_c, 0, 64, 83
1, 397580, Control_c, 0, 64, 82
1, 397595, Control_c, 0, 64, 81
1, 397609, Control_c, 0, 64, 79
1, 397624, Control_c, 0, 64, 76
1, 397639, Control_c, 0, 64, 73
1, 397654, Control_c, 0, 64, 70
1, 397669, Control_c, 0, 64, 67
1, 397683, Control_c, 0, 64, 64
1, 397698, Control_c, 0, 64, 63
1, 397713, Control_c, 0, 64, 62
1, 397728, Control_c, 0, 64, 61
1, 397758, Control_c, 0, 64, 60
1, 397773, Control_c, 0, 64, 60
1, 397788, Control_c, 0, 64, 59
1, 397802, Control_c, 0, 64, 58
1, 397817, Control_c, 0, 64, 57
1, 397832, Control_c, 0, 64, 57
1, 397847, Control_c, 0, 64, 56
1, 397862, Control_c, 0, 64, 55
1, 397883, Control_c, 0, 64, 54
1, 397898, Control_c, 0, 64, 54
1, 397913, Control_c, 0, 64, 53
1, 397928, Control_c, 0, 64, 52
1, 397958, Control_c, 0, 64, 52
1, 397973, Control_c, 0, 64, 51
1, 398002, Control_c, 0, 64, 51
1, 398017, Note_on_c, 0, 72, 43
1, 398032, Note_on_c, 0, 64, 30
1, 398050, Note_on_c, 0, 48, 13
1, 398062, Note_on_c, 0, 55, 32
1, 398070, Note_on_c, 0, 60, 20
1, 398077, Control_c, 0, 64, 50
1, 398254, Control_c, 0, 64, 50
1, 398417, Control_c, 0, 64, 50
1, 398432, Control_c, 0, 64, 51
1, 398447, Control_c, 0, 64, 51
1, 398461, Control_c, 0, 64, 52
1, 398476, Control_c, 0, 64, 54
1, 398491, Control_c, 0, 64, 55
1, 398506, Control_c, 0, 64, 56
1, 398521, Control_c, 0, 64, 58
1, 398536, Control_c, 0, 64, 59
1, 398550, Control_c, 0, 64, 60
1, 398565, Control_c, 0, 64, 61
1, 398580, Control_c, 0, 64, 62
1, 398595, Control_c, 0, 64, 63
1, 398610, Control_c, 0, 64, 64
1, 398631, Control_c, 0, 64, 65
1, 398646, Control_c, 0, 64, 66
1, 398661, Control_c, 0, 64, 67
1, 398676, Control_c, 0, 64, 68
1, 398691, Control_c, 0, 64, 69
1, 398706, Control_c, 0, 64, 71
1, 398721, Control_c, 0, 64, 73
1, 398736, Control_c, 0, 64, 74
1, 398750, Control_c, 0, 64, 76
1, 398765, Control_c, 0, 64, 77
1, 398780, Control_c, 0, 64, 78
1, 398795, Control_c, 0, 64, 79
1, 398810, Control_c, 0, 64, 80
1, 398824, Control_c, 0, 64, 81
1, 398839, Control_c, 0, 64, 82
1, 398854, Control_c, 0, 64, 83
1, 398869, Control_c, 0, 64, 85
1, 398884, Control_c, 0, 64, 86
1, 398899, Control_c, 0, 64, 88
1, 398914, Control_c, 0, 64, 89
1, 398921, Note_off_c, 0, 64, 18
1, 398928, Control_c, 0, 64, 90
1, 398943, Control_c, 0, 64, 91
1, 398958, Control_c, 0, 64, 91
1, 398973, Control_c, 0, 64, 92
1, 398999, Note_off_c, 0, 60, 31
1, 399002, Control_c, 0, 64, 92
1, 399046, Control_c, 0, 64, 93
1, 399076, Control_c, 0, 64, 93
1, 399091, Control_c, 0, 64, 94
1, 399120, Control_c, 0, 64, 94
1, 399150, Control_c, 0, 64, 95
1, 399174, Note_off_c, 0, 55, 41
1, 399180, Control_c, 0, 67, 126
1, 399183, Note_off_c, 0, 48, 38
1, 399195, Control_c, 0, 64, 95
1, 399195, Control_c, 0, 67, 124
1, 399210, Control_c, 0, 67, 120
1, 399223, Note_off_c, 0, 72, 37
1, 399225, Control_c, 0, 67, 115
1, 399239, Control_c, 0, 67, 110
1, 399254, Control_c, 0, 67, 105
1, 399269, Control_c, 0, 67, 100
1, 399284, Control_c, 0, 67, 95
1, 399299, Control_c, 0, 67, 92
1, 399314, Control_c, 0, 67, 88
1, 399328, Control_c, 0, 67, 85
1, 399343, Control_c, 0, 67, 83
1, 399358, Control_c, 0, 67, 82
1, 399380, Control_c, 0, 67, 80
1, 399395, Control_c, 0, 67, 80
1, 399484, Control_c, 0, 64, 95
1, 399484, Control_c, 0, 67, 81
1, 399499, Control_c, 0, 67, 82
1, 399514, Control_c, 0, 67, 83
1, 399528, Control_c, 0, 67, 85
1, 399543, Control_c, 0, 64, 94
1, 399543, Control_c, 0, 67, 85
1, 399558, Control_c, 0, 67, 87
1, 399572, Control_c, 0, 64, 94
1, 399572, Control_c, 0, 67, 87
1, 399587, Control_c, 0, 67, 88
1, 399602, Control_c, 0, 67, 89
1, 399617, Control_c, 0, 64, 93
1, 399617, Control_c, 0, 67, 90
1, 399632, Control_c, 0, 67, 90
1, 399646, Control_c, 0, 67, 91
1, 399661, Control_c, 0, 67, 92
1, 399677, Control_c, 0, 64, 93
1, 399677, Control_c, 0, 67, 93
1, 399692, Control_c, 0, 67, 93
1, 399707, Control_c, 0, 64, 92
1, 399707, Control_c, 0, 67, 94
1, 399722, Control_c, 0, 64, 92
1, 399722, Control_c, 0, 67, 95
1, 399737, Control_c, 0, 64, 91
1, 399737, Control_c, 0, 67, 95
1, 399751, Control_c, 0, 67, 97
1, 399766, Control_c, 0, 64, 91
1, 399766, Control_c, 0, 67, 97
1, 399781, Control_c, 0, 64, 90
1, 399781, Control_c, 0, 67, 98
1, 399795, Control_c, 0, 64, 90
1, 399810, Control_c, 0, 64, 89
1, 399810, Control_c, 0, 67, 98
1, 399825, Control_c, 0, 64, 88
1, 399825, Control_c, 0, 67, 99
1, 399840, Control_c, 0, 64, 88
1, 399840, Control_c, 0, 67, 100
1, 399855, Control_c, 0, 64, 86
1, 399855, Control_c, 0, 67, 100
1, 399869, Control_c, 0, 64, 85
1, 399869, Control_c, 0, 67, 101
1, 399884, Control_c, 0, 64, 84
1, 399899, Control_c, 0, 64, 83
1, 399899, Control_c, 0, 67, 102
1, 399914, Control_c, 0, 64, 82
1, 399914, Control_c, 0, 67, 102
1, 399929, Control_c, 0, 64, 81
1, 399929, Control_c, 0, 67, 103
1, 399943, Control_c, 0, 64, 80
1, 399958, Control_c, 0, 64, 79
1, 399958, Control_c, 0, 67, 103
1, 399973, Control_c, 0, 64, 78
1, 399988, Control_c, 0, 64, 77
1, 399988, Control_c, 0, 67, 104
1, 400002, Note_on_c, 0, 59, 30
1, 400003, Control_c, 0, 64, 76
1, 400018, Control_c, 0, 64, 74
1, 400018, Control_c, 0, 67, 105
1, 400032, Control_c, 0, 64, 72
1, 400047, Control_c, 0, 64, 71
1, 400047, Control_c, 0, 67, 105
1, 400062, Control_c, 0, 64, 69
1, 400062, Control_c, 0, 67, 106
1, 400077, Control_c, 0, 64, 67
1, 400092, Control_c, 0, 64, 65
1, 400092, Control_c, 0, 67, 107
1, 400107, Control_c, 0, 64, 64
1, 400129, Control_c, 0, 64, 62
1, 400144, Control_c, 0, 64, 62
1, 400144, Control_c, 0, 67, 107
1, 400158, Control_c, 0, 64, 61
1, 400173, Control_c, 0, 64, 60
1, 400188, Control_c, 0, 64, 60
1, 400188, Control_c, 0, 67, 108
1, 400202, Control_c, 0, 64, 59
1, 400217, Control_c, 0, 64, 58
1, 400232, Control_c, 0, 64, 57
1, 400247, Control_c, 0, 64, 56
1, 400262, Control_c, 0, 64, 55
1, 400277, Control_c, 0, 64, 54
1, 400292, Control_c, 0, 64, 53
1, 400307, Control_c, 0, 64, 52
1, 400322, Control_c, 0, 64, 52
1, 400322, Control_c, 0, 67, 109
1, 400336, Control_c, 0, 64, 50
1, 400351, Control_c, 0, 64, 49
1, 400366, Control_c, 0, 64, 48
1, 400381, Control_c, 0, 64, 47
1, 400396, Control_c, 0, 64, 46
1, 400411, Control_c, 0, 64, 45
1, 400426, Control_c, 0, 64, 45
1, 400441, Control_c, 0, 64, 44
1, 400471, Control_c, 0, 64, 43
1, 400485, Note_on_c, 0, 60, 39
1, 400486, Control_c, 0, 64, 43
1, 400500, Note_off_c, 0, 59, 41
1, 400515, Control_c, 0, 64, 42
1, 400530, Control_c, 0, 67, 108
1, 400545, Control_c, 0, 64, 42
1, 400560, Control_c, 0, 64, 41
1, 400575, Control_c, 0, 64, 41
1, 400590, Control_c, 0, 64, 40
1, 400597, Note_off_c, 0, 60, 54
1, 400605, Control_c, 0, 64, 40
1, 400617, Note_on_c, 0, 62, 38
1, 400619, Control_c, 0, 64, 39
1, 400634, Control_c, 0, 64, 39
1, 400649, Control_c, 0, 64, 38
1, 400664, Control_c, 0, 64, 37
1, 400679, Control_c, 0, 64, 36
1, 400693, Control_c, 0, 64, 36
1, 400708, Control_c, 0, 64, 35
1, 400708, Control_c, 0, 67, 107
1, 400738, Control_c, 0, 67, 107
1, 400753, Control_c, 0, 64, 36
1, 400767, Control_c, 0, 64, 39
1, 400767, Control_c, 0, 67, 106
1, 400782, Control_c, 0, 64, 43
1, 400782, Control_c, 0, 67, 105
1, 400797, Control_c, 0, 64, 49
1, 400812, Control_c, 0, 64, 54
1, 400812, Control_c, 0, 67, 103
1, 400826, Control_c, 0, 64, 58
1, 400826, Control_c, 0, 67, 103
1, 400841, Control_c, 0, 64, 61
1, 400841, Control_c, 0, 67, 102
1, 400856, Control_c, 0, 64, 63
1, 400856, Control_c, 0, 67, 101
1, 400879, Control_c, 0, 64, 65
1, 400879, Control_c, 0, 67, 100
1, 400894, Control_c, 0, 64, 66
1, 400894, Control_c, 0, 67, 100
1, 400908, Control_c, 0, 64, 68
1, 400923, Control_c, 0, 64, 71
1, 400923, Control_c, 0, 67, 99
1, 400938, Control_c, 0, 64, 74
1, 400953, Control_c, 0, 64, 78
1, 400968, Control_c, 0, 64, 82
1, 400982, Control_c, 0, 64, 85
1, 400997, Control_c, 0, 64, 89
1, 401012, Control_c, 0, 64, 92
1, 401013, Note_off_c, 0, 62, 24
1, 401026, Control_c, 0, 64, 93
1, 401041, Control_c, 0, 64, 94
1, 401071, Control_c, 0, 64, 95
1, 401100, Control_c, 0, 64, 95
1, 401323, Control_c, 0, 64, 95
1, 401368, Control_c, 0, 64, 94
1, 401370, Note_on_c, 0, 79, 54
1, 401383, Note_on_c, 0, 67, 46
1, 401398, Note_on_c, 0, 62, 36
1, 401398, Control_c, 0, 64, 94
1, 401427, Control_c, 0, 64, 93
1, 401442, Control_c, 0, 67, 98
1, 401457, Control_c, 0, 67, 98
1, 401487, Control_c, 0, 67, 97
1, 401516, Control_c, 0, 67, 97
1, 401531, Control_c, 0, 67, 95
1, 401546, Control_c, 0, 67, 95
1, 401561, Control_c, 0, 67, 94
1, 401627, Control_c, 0, 64, 94
1, 401642, Control_c, 0, 67, 93
1, 401672, Note_off_c, 0, 62, 32
1, 401864, Control_c, 0, 67, 94
1, 401967, Control_c, 0, 67, 95
1, 401996, Note_on_c, 0, 62, 42
1, 402206, Control_c, 0, 67, 95
1, 402223, Note_off_c, 0, 62, 37
1, 402235, Control_c, 0, 67, 96
1, 402265, Control_c, 0, 67, 97
1, 402280, Control_c, 0, 67, 97
1, 402295, Control_c, 0, 67, 98
1, 402308, Note_off_c, 0, 79, 37
1, 402325, Control_c, 0, 67, 98
1, 402339, Control_c, 0, 67, 99
1, 402359, Note_off_c, 0, 67, 36
1, 402376, Control_c, 0, 67, 100
1, 402390, Control_c, 0, 67, 100
1, 402420, Control_c, 0, 67, 101
1, 402450, Control_c, 0, 67, 102
1, 402465, Control_c, 0, 67, 102
1, 402495, Control_c, 0, 67, 103
1, 402510, Control_c, 0, 64, 93
1, 402539, Control_c, 0, 64, 92
1, 402539, Control_c, 0, 67, 103
1, 402554, Control_c, 0, 64, 91
1, 402554, Control_c, 0, 67, 104
1, 402569, Control_c, 0, 64, 91
1, 402584, Control_c, 0, 64, 90
1, 402593, Note_on_c, 0, 60, 45
1, 402598, Control_c, 0, 64, 89
1, 402598, Control_c, 0, 67, 105
1, 402613, Control_c, 0, 64, 87
1, 402628, Control_c, 0, 64, 85
1, 402643, Control_c, 0, 64, 81
1, 402643, Control_c, 0, 67, 105
1, 402658, Control_c, 0, 64, 78
1, 402672, Control_c, 0, 64, 74
1, 402687, Control_c, 0, 64, 71
1, 402702, Control_c, 0, 64, 68
1, 402717, Control_c, 0, 64, 65
1, 402732, Control_c, 0, 64, 63
1, 402746, Control_c, 0, 64, 61
1, 402761, Control_c, 0, 64, 60
1, 402776, Control_c, 0, 64, 60
1, 402790, Control_c, 0, 64, 59
1, 402805, Control_c, 0, 64, 59
1, 402820, Control_c, 0, 64, 57
1, 402820, Control_c, 0, 67, 106
1, 402835, Control_c, 0, 64, 56
1, 402835, Control_c, 0, 67, 107
1, 402850, Control_c, 0, 64, 55
1, 402866, Control_c, 0, 64, 54
1, 402866, Control_c, 0, 67, 107
1, 402881, Control_c, 0, 64, 52
1, 402895, Control_c, 0, 64, 50
1, 402895, Control_c, 0, 67, 108
1, 402910, Control_c, 0, 64, 48
1, 402910, Control_c, 0, 67, 109
1, 402925, Control_c, 0, 64, 47
1, 402925, Control_c, 0, 67, 109
1, 402940, Control_c, 0, 64, 46
1, 402955, Control_c, 0, 64, 45
1, 402955, Control_c, 0, 67, 110
1, 402969, Control_c, 0, 64, 43
1, 402984, Control_c, 0, 64, 42
1, 402984, Control_c, 0, 67, 110
1, 402999, Control_c, 0, 64, 40
1, 403013, Control_c, 0, 64, 39
1, 403013, Control_c, 0, 67, 111
1, 403028, Control_c, 0, 64, 38
1, 403043, Control_c, 0, 64, 37
1, 403043, Control_c, 0, 67, 112
1, 403058, Control_c, 0, 64, 36
1, 403073, Control_c, 0, 64, 36
1, 403088, Control_c, 0, 64, 35
1, 403103, Control_c, 0, 64, 34
1, 403103, Control_c, 0, 67, 112
1, 403125, Control_c, 0, 64, 34
1, 403125, Control_c, 0, 67, 113
1, 403140, Control_c, 0, 64, 33
1, 403140, Control_c, 0, 67, 122
1, 403155, Control_c, 0, 64, 33
1, 403155, Control_c, 0, 67, 127
1, 403171, Note_on_c, 0, 62, 47
1, 403184, Control_c, 0, 64, 32
1, 403199, Control_c, 0, 64, 32
1, 403317, Note_on_c, 0, 63, 49
1, 403324, Note_off_c, 0, 60, 25
1, 403363, Note_off_c, 0, 62, 50
1, 403657, Control_c, 0, 64, 32
1, 403673, Control_c, 0, 64, 35
1, 403688, Control_c, 0, 64, 38
1, 403703, Control_c, 0, 64, 43
1, 403717, Control_c, 0, 64, 48
1, 403732, Control_c, 0, 64, 54
1, 403747, Control_c, 0, 64, 57
1, 403762, Control_c, 0, 64, 60
1, 403777, Control_c, 0, 64, 62
1, 403791, Control_c, 0, 64, 63
1, 403806, Control_c, 0, 64, 64
1, 403821, Control_c, 0, 64, 65
1, 403836, Control_c, 0, 64, 66
1, 403851, Control_c, 0, 64, 67
1, 403873, Control_c, 0, 64, 68
1, 403888, Control_c, 0, 64, 69
1, 403903, Control_c, 0, 64, 69
1, 403917, Control_c, 0, 64, 70
1, 403932, Control_c, 0, 64, 70
1, 403962, Control_c, 0, 64, 71
1, 404065, Note_on_c, 0, 79, 49
1, 404071, Note_on_c, 0, 67, 39
1, 404095, Control_c, 0, 64, 70
1, 404125, Control_c, 0, 64, 70
1, 404155, Control_c, 0, 64, 69
1, 404185, Control_c, 0, 64, 69
1, 404215, Control_c, 0, 64, 68
1, 404230, Control_c, 0, 64, 68
1, 404244, Control_c, 0, 64, 67
1, 404259, Control_c, 0, 64, 66
1, 404274, Control_c, 0, 64, 65
1, 404289, Control_c, 0, 64, 64
1, 404304, Control_c, 0, 64, 63
1, 404318, Control_c, 0, 64, 62
1, 404333, Control_c, 0, 64, 61
1, 404348, Control_c, 0, 64, 61
1, 404363, Control_c, 0, 64, 60
1, 404365, Note_on_c, 0, 62, 47
1, 404378, Control_c, 0, 64, 59
1, 404392, Control_c, 0, 64, 57
1, 404407, Control_c, 0, 64, 55
1, 404417, Note_off_c, 0, 63, 38
1, 404422, Control_c, 0, 64, 54
1, 404436, Control_c, 0, 64, 52
1, 404451, Control_c, 0, 64, 51
1, 404467, Control_c, 0, 64, 50
1, 404482, Control_c, 0, 64, 48
1, 404497, Control_c, 0, 64, 47
1, 404512, Control_c, 0, 64, 45
1, 404527, Control_c, 0, 64, 44
1, 404541, Control_c, 0, 64, 43
1, 404556, Control_c, 0, 64, 43
1, 404571, Control_c, 0, 64, 42
1, 404638, Control_c, 0, 64, 43
1, 404653, Control_c, 0, 64, 45
1, 404657, Note_on_c, 0, 60, 55
1, 404667, Control_c, 0, 64, 46
1, 404682, Control_c, 0, 64, 49
1, 404697, Control_c, 0, 64, 52
1, 404705, Note_off_c, 0, 62, 57
1, 404712, Control_c, 0, 64, 56
1, 404721, Note_off_c, 0, 79, 54
1, 404727, Control_c, 0, 64, 59
1, 404741, Control_c, 0, 64, 60
1, 404756, Control_c, 0, 64, 62
1, 404769, Note_off_c, 0, 67, 42
1, 404771, Control_c, 0, 64, 62
1, 404860, Control_c, 0, 64, 62
1, 404934, Control_c, 0, 64, 61
1, 404938, Note_on_c, 0, 55, 63
1, 404978, Control_c, 0, 64, 61
1, 405000, Note_off_c, 0, 60, 53
1, 405022, Control_c, 0, 64, 60
1, 405067, Control_c, 0, 64, 60
1, 405082, Control_c, 0, 64, 59
1, 405112, Control_c, 0, 64, 59
1, 405127, Control_c, 0, 64, 58
1, 405141, Control_c, 0, 64, 58
1, 405156, Control_c, 0, 64, 57
1, 405171, Control_c, 0, 64, 57
1, 405185, Control_c, 0, 64, 56
1, 405200, Control_c, 0, 64, 55
1, 405215, Control_c, 0, 64, 55
1, 405216, Note_on_c, 0, 75, 73
1, 405230, Control_c, 0, 64, 53
1, 405235, Note_on_c, 0, 60, 62
1, 405245, Control_c, 0, 64, 52
1, 405261, Control_c, 0, 64, 52
1, 405276, Control_c, 0, 64, 51
1, 405290, Control_c, 0, 64, 50
1, 405300, Note_off_c, 0, 55, 60
1, 405305, Control_c, 0, 64, 49
1, 405320, Control_c, 0, 64, 48
1, 405335, Control_c, 0, 64, 47
1, 405350, Control_c, 0, 64, 47
1, 405371, Control_c, 0, 64, 46
1, 405386, Control_c, 0, 64, 45
1, 405401, Control_c, 0, 64, 44
1, 405416, Control_c, 0, 64, 42
1, 405431, Control_c, 0, 64, 41
1, 405446, Control_c, 0, 64, 39
1, 405461, Control_c, 0, 64, 37
1, 405476, Control_c, 0, 64, 33
1, 405490, Control_c, 0, 64, 29
1, 405505, Control_c, 0, 64, 24
1, 405512, Note_on_c, 0, 77, 78
1, 405520, Control_c, 0, 64, 15
1, 405522, Note_on_c, 0, 62, 66
1, 405535, Control_c, 0, 64, 0
1, 405574, Note_off_c, 0, 60, 59
1, 405587, Note_off_c, 0, 75, 61
1, 405879, Note_on_c, 0, 79, 66
1, 405927, Note_on_c, 0, 63, 50
1, 405958, Note_off_c, 0, 77, 56
1, 406024, Note_off_c, 0, 62, 54
1, 406245, Note_on_c, 0, 75, 58
1, 406286, Note_off_c, 0, 79, 60
1, 406532, Note_on_c, 0, 71, 57
1, 406548, Note_on_c, 0, 62, 41
1, 406581, Note_off_c, 0, 75, 57
1, 406588, Note_off_c, 0, 63, 48
1, 406821, Note_on_c, 0, 60, 45
1, 406826, Note_on_c, 0, 72, 57
1, 406862, Note_off_c, 0, 71, 59
1, 406924, Note_off_c, 0, 62, 36
1, 407172, Note_on_c, 0, 67, 51
1, 407182, Note_on_c, 0, 64, 38
1, 407194, Note_off_c, 0, 60, 55
1, 407201, Note_on_c, 0, 55, 31
1, 407216, Note_off_c, 0, 72, 55
1, 407298, Control_c, 0, 64, 35
1, 407313, Control_c, 0, 64, 49
1, 407328, Control_c, 0, 64, 57
1, 407342, Control_c, 0, 64, 62
1, 407357, Control_c, 0, 64, 64
1, 407372, Control_c, 0, 64, 67
1, 407387, Control_c, 0, 64, 70
1, 407392, Note_off_c, 0, 64, 55
1, 407393, Note_off_c, 0, 67, 54
1, 407400, Note_off_c, 0, 55, 41
1, 407402, Control_c, 0, 64, 72
1, 407416, Control_c, 0, 64, 76
1, 407431, Control_c, 0, 64, 79
1, 407446, Control_c, 0, 64, 82
1, 407461, Control_c, 0, 64, 84
1, 407476, Control_c, 0, 64, 85
1, 407506, Control_c, 0, 64, 84
1, 407520, Control_c, 0, 64, 84
1, 407535, Control_c, 0, 64, 83
1, 407550, Control_c, 0, 64, 82
1, 407565, Control_c, 0, 64, 81
1, 407580, Control_c, 0, 64, 80
1, 407595, Control_c, 0, 64, 79
1, 407616, Control_c, 0, 64, 77
1, 407631, Control_c, 0, 64, 74
1, 407646, Control_c, 0, 64, 71
1, 407662, Control_c, 0, 64, 68
1, 407677, Control_c, 0, 64, 65
1, 407691, Control_c, 0, 64, 63
1, 407706, Control_c, 0, 64, 61
1, 407721, Control_c, 0, 64, 59
1, 407736, Control_c, 0, 64, 58
1, 407751, Control_c, 0, 64, 56
1, 407765, Control_c, 0, 64, 53
1, 407780, Control_c, 0, 64, 49
1, 407795, Control_c, 0, 64, 44
1, 407810, Control_c, 0, 64, 38
1, 407825, Control_c, 0, 64, 29
1, 407839, Control_c, 0, 64, 17
1, 407854, Control_c, 0, 64, 0
1, 407884, Note_on_c, 0, 71, 52
1, 407900, Note_on_c, 0, 62, 38
1, 407900, Note_on_c, 0, 65, 38
1, 407902, Note_on_c, 0, 55, 35
1, 407914, Control_c, 0, 64, 15
1, 407929, Control_c, 0, 64, 25
1, 407944, Control_c, 0, 64, 38
1, 407959, Control_c, 0, 64, 48
1, 407974, Control_c, 0, 64, 56
1, 407988, Control_c, 0, 64, 61
1, 408003, Control_c, 0, 64, 63
1, 408014, Note_off_c, 0, 62, 58
1, 408018, Control_c, 0, 64, 65
1, 408024, Note_off_c, 0, 71, 58
1, 408033, Note_off_c, 0, 65, 54
1, 408033, Control_c, 0, 64, 67
1, 408040, Note_off_c, 0, 55, 47
1, 408048, Control_c, 0, 64, 69
1, 408063, Control_c, 0, 64, 72
1, 408077, Control_c, 0, 64, 75
1, 408092, Control_c, 0, 64, 78
1, 408107, Control_c, 0, 64, 82
1, 408122, Control_c, 0, 64, 85
1, 408137, Control_c, 0, 64, 86
1, 408151, Control_c, 0, 64, 87
1, 408196, Control_c, 0, 64, 86
1, 408225, Control_c, 0, 64, 86
1, 408240, Control_c, 0, 64, 85
1, 408255, Control_c, 0, 64, 85
1, 408270, Control_c, 0, 64, 84
1, 408284, Control_c, 0, 64, 83
1, 408299, Control_c, 0, 64, 82
1, 408314, Control_c, 0, 64, 81
1, 408329, Control_c, 0, 64, 81
1, 408344, Control_c, 0, 64, 80
1, 408366, Control_c, 0, 64, 78
1, 408381, Control_c, 0, 64, 76
1, 408396, Control_c, 0, 64, 74
1, 408410, Control_c, 0, 64, 71
1, 408425, Control_c, 0, 64, 68
1, 408440, Control_c, 0, 64, 66
1, 408455, Control_c, 0, 64, 64
1, 408471, Control_c, 0, 64, 63
1, 408486, Control_c, 0, 64, 62
1, 408501, Control_c, 0, 64, 61
1, 408515, Control_c, 0, 64, 60
1, 408530, Control_c, 0, 64, 58
1, 408545, Control_c, 0, 64, 56
1, 408560, Control_c, 0, 64, 53
1, 408575, Control_c, 0, 64, 50
1, 408589, Control_c, 0, 64, 46
1, 408604, Control_c, 0, 64, 42
1, 408614, Note_on_c, 0, 72, 47
1, 408618, Control_c, 0, 64, 38
1, 408624, Note_on_c, 0, 64, 40
1, 408633, Control_c, 0, 64, 34
1, 408639, Note_on_c, 0, 55, 33
1, 408645, Note_on_c, 0, 48, 26
1, 408647, Note_on_c, 0, 60, 29
1, 408648, Control_c, 0, 64, 31
1, 408662, Control_c, 0, 64, 28
1, 408677, Control_c, 0, 64, 23
1, 408692, Control_c, 0, 64, 19
1, 408707, Control_c, 0, 64, 15
1, 408722, Control_c, 0, 64, 9
1, 408737, Control_c, 0, 64, 0
1, 408840, Control_c, 0, 64, 12
1, 408855, Control_c, 0, 64, 17
1, 408870, Control_c, 0, 64, 21
1, 408885, Control_c, 0, 64, 24
1, 408899, Control_c, 0, 64, 28
1, 408914, Control_c, 0, 64, 34
1, 408929, Control_c, 0, 64, 40
1, 408944, Control_c, 0, 64, 47
1, 408959, Control_c, 0, 64, 52
1, 408973, Control_c, 0, 64, 56
1, 408988, Control_c, 0, 64, 58
1, 409003, Control_c, 0, 64, 59
1, 409018, Control_c, 0, 64, 60
1, 409032, Control_c, 0, 64, 61
1, 409047, Control_c, 0, 64, 62
1, 409062, Control_c, 0, 64, 63
1, 409077, Control_c, 0, 64, 64
1, 409092, Control_c, 0, 64, 65
1, 409114, Control_c, 0, 64, 65
1, 409129, Control_c, 0, 64, 66
1, 409144, Control_c, 0, 64, 68
1, 409144, Control_c, 0, 67, 126
1, 409159, Control_c, 0, 64, 69
1, 409159, Control_c, 0, 67, 125
1, 409174, Control_c, 0, 64, 70
1, 409174, Control_c, 0, 67, 124
1, 409188, Control_c, 0, 64, 72
1, 409188, Control_c, 0, 67, 124
1, 409203, Control_c, 0, 64, 75
1, 409203, Control_c, 0, 67, 123
1, 409218, Control_c, 0, 64, 77
1, 409218, Control_c, 0, 67, 122
1, 409232, Control_c, 0, 64, 80
1, 409232, Control_c, 0, 67, 122
1, 409247, Control_c, 0, 64, 82
1, 409247, Control_c, 0, 67, 120
1, 409263, Control_c, 0, 64, 85
1, 409263, Control_c, 0, 67, 119
1, 409278, Control_c, 0, 64, 87
1, 409278, Control_c, 0, 67, 117
1, 409293, Control_c, 0, 64, 89
1, 409293, Control_c, 0, 67, 116
1, 409308, Control_c, 0, 64, 92
1, 409308, Control_c, 0, 67, 115
1, 409319, Note_off_c, 0, 48, 40
1, 409320, Note_off_c, 0, 55, 37
1, 409323, Note_off_c, 0, 72, 33
1, 409323, Control_c, 0, 64, 95
1, 409337, Control_c, 0, 64, 97
1, 409337, Control_c, 0, 67, 114
1, 409345, Note_off_c, 0, 60, 0
1, 409352, Control_c, 0, 64, 99
1, 409366, Control_c, 0, 64, 101
1, 409381, Note_off_c, 0, 64, 28
1, 409381, Control_c, 0, 64, 101
1, 409382, Poly_aftertouch_c, 0, 60, 127
1, 409396, Control_c, 0, 64, 102
1, 409424, Poly_aftertouch_c, 0, 60, 0
1, 409425, Control_c, 0, 64, 103
1, 409440, Control_c, 0, 64, 103
1, 409455, Control_c, 0, 64, 104
1, 409751, Control_c, 0, 64, 103
1, 409795, Control_c, 0, 64, 103
1, 409825, Control_c, 0, 64, 102
1, 409862, Control_c, 0, 64, 101
1, 409892, Control_c, 0, 64, 100
1, 409907, Control_c, 0, 64, 99
1, 409922, Control_c, 0, 64, 99
1, 409936, Control_c, 0, 64, 97
1, 409951, Control_c, 0, 64, 95
1, 409966, Control_c, 0, 64, 93
1, 409981, Control_c, 0, 64, 90
1, 409986, Note_on_c, 0, 67, 51
1, 409996, Control_c, 0, 64, 85
1, 410009, Note_on_c, 0, 55, 40
1, 410009, Note_on_c, 0, 64, 46
1, 410010, Control_c, 0, 64, 78
1, 410025, Control_c, 0, 64, 71
1, 410040, Control_c, 0, 64, 64
1, 410056, Control_c, 0, 64, 55
1, 410071, Control_c, 0, 64, 44
1, 410085, Control_c, 0, 64, 41
1, 410145, Control_c, 0, 64, 43
1, 410159, Control_c, 0, 64, 47
1, 410174, Control_c, 0, 64, 51
1, 410189, Control_c, 0, 64, 56
1, 410204, Control_c, 0, 64, 59
1, 410219, Control_c, 0, 64, 62
1, 410233, Control_c, 0, 64, 64
1, 410248, Control_c, 0, 64, 65
1, 410263, Control_c, 0, 64, 67
1, 410278, Control_c, 0, 64, 69
1, 410287, Note_off_c, 0, 64, 55
1, 410293, Control_c, 0, 64, 71
1, 410303, Note_off_c, 0, 55, 35
1, 410308, Control_c, 0, 64, 74
1, 410322, Control_c, 0, 64, 77
1, 410337, Control_c, 0, 64, 80
1, 410352, Control_c, 0, 64, 82
1, 410367, Control_c, 0, 64, 83
1, 410369, Note_off_c, 0, 67, 23
1, 410441, Control_c, 0, 64, 82
1, 410456, Control_c, 0, 64, 82
1, 410471, Control_c, 0, 64, 81
1, 410485, Control_c, 0, 64, 80
1, 410500, Control_c, 0, 64, 79
1, 410515, Control_c, 0, 64, 78
1, 410530, Control_c, 0, 64, 77
1, 410545, Control_c, 0, 64, 75
1, 410559, Control_c, 0, 64, 72
1, 410574, Control_c, 0, 64, 69
1, 410589, Control_c, 0, 64, 65
1, 410612, Control_c, 0, 64, 62
1, 410627, Control_c, 0, 64, 60
1, 410641, Control_c, 0, 64, 58
1, 410656, Control_c, 0, 64, 57
1, 410671, Control_c, 0, 64, 55
1, 410685, Control_c, 0, 64, 52
1, 410700, Control_c, 0, 64, 49
1, 410715, Note_on_c, 0, 71, 51
1, 410715, Control_c, 0, 64, 46
1, 410730, Control_c, 0, 64, 45
1, 410734, Note_on_c, 0, 65, 35
1, 410740, Note_on_c, 0, 55, 31
1, 410740, Note_on_c, 0, 62, 32
1, 410745, Control_c, 0, 67, 115
1, 410759, Control_c, 0, 67, 115
1, 410774, Control_c, 0, 64, 46
1, 410774, Control_c, 0, 67, 116
1, 410789, Control_c, 0, 64, 48
1, 410789, Control_c, 0, 67, 117
1, 410803, Control_c, 0, 64, 51
1, 410803, Control_c, 0, 67, 118
1, 410818, Control_c, 0, 64, 55
1, 410818, Control_c, 0, 67, 120
1, 410833, Control_c, 0, 64, 58
1, 410833, Control_c, 0, 67, 122
1, 410849, Control_c, 0, 64, 61
1, 410849, Control_c, 0, 67, 123
1, 410864, Control_c, 0, 64, 63
1, 410864, Control_c, 0, 67, 125
1, 410879, Control_c, 0, 64, 64
1, 410879, Control_c, 0, 67, 126
1, 410894, Control_c, 0, 64, 66
1, 410894, Control_c, 0, 67, 127
1, 410905, Note_off_c, 0, 71, 55
1, 410908, Control_c, 0, 64, 68
1, 410923, Control_c, 0, 64, 71
1, 410938, Control_c, 0, 64, 73
1, 410943, Note_off_c, 0, 62, 40
1, 410953, Control_c, 0, 64, 76
1, 410957, Note_off_c, 0, 65, 37
1, 410968, Note_off_c, 0, 55, 38
1, 410968, Control_c, 0, 64, 79
1, 410982, Control_c, 0, 64, 82
1, 410997, Control_c, 0, 64, 85
1, 411012, Control_c, 0, 64, 86
1, 411027, Control_c, 0, 64, 87
1, 411145, Control_c, 0, 64, 87
1, 411175, Control_c, 0, 64, 86
1, 411190, Control_c, 0, 64, 86
1, 411205, Control_c, 0, 64, 85
1, 411249, Control_c, 0, 64, 85
1, 411279, Control_c, 0, 64, 84
1, 411294, Control_c, 0, 64, 83
1, 411308, Control_c, 0, 64, 83
1, 411323, Control_c, 0, 64, 82
1, 411338, Control_c, 0, 64, 81
1, 411360, Control_c, 0, 64, 79
1, 411375, Control_c, 0, 64, 76
1, 411390, Control_c, 0, 64, 74
1, 411405, Control_c, 0, 64, 71
1, 411419, Control_c, 0, 64, 69
1, 411434, Control_c, 0, 64, 66
1, 411449, Control_c, 0, 64, 65
1, 411464, Control_c, 0, 64, 63
1, 411479, Control_c, 0, 64, 62
1, 411494, Control_c, 0, 64, 62
1, 411508, Control_c, 0, 64, 61
1, 411523, Control_c, 0, 64, 60
1, 411538, Control_c, 0, 64, 59
1, 411553, Control_c, 0, 64, 56
1, 411568, Control_c, 0, 64, 53
1, 411574, Note_on_c, 0, 72, 41
1, 411579, Note_on_c, 0, 64, 35
1, 411582, Control_c, 0, 64, 51
1, 411588, Note_on_c, 0, 55, 29
1, 411595, Note_on_c, 0, 60, 34
1, 411597, Control_c, 0, 64, 50
1, 411613, Control_c, 0, 64, 48
1, 411615, Note_on_c, 0, 48, 30
1, 411627, Control_c, 0, 64, 46
1, 411642, Control_c, 0, 64, 43
1, 411658, Control_c, 0, 64, 40
1, 411673, Control_c, 0, 64, 37
1, 411688, Control_c, 0, 64, 35
1, 411703, Control_c, 0, 64, 34
1, 411718, Control_c, 0, 64, 33
1, 411806, Control_c, 0, 64, 35
1, 411821, Control_c, 0, 64, 37
1, 411836, Control_c, 0, 64, 41
1, 411851, Control_c, 0, 64, 46
1, 411866, Control_c, 0, 64, 51
1, 411880, Control_c, 0, 64, 55
1, 411895, Control_c, 0, 64, 58
1, 411910, Control_c, 0, 64, 60
1, 411924, Control_c, 0, 64, 61
1, 411939, Control_c, 0, 64, 62
1, 411954, Control_c, 0, 64, 63
1, 411969, Control_c, 0, 64, 64
1, 411984, Control_c, 0, 64, 65
1, 411998, Control_c, 0, 64, 66
1, 412013, Control_c, 0, 64, 68
1, 412028, Control_c, 0, 64, 70
1, 412043, Control_c, 0, 64, 72
1, 412057, Control_c, 0, 64, 74
1, 412072, Control_c, 0, 64, 76
1, 412087, Control_c, 0, 64, 78
1, 412110, Control_c, 0, 64, 80
1, 412125, Control_c, 0, 64, 83
1, 412125, Control_c, 0, 67, 124
1, 412139, Control_c, 0, 64, 85
1, 412139, Control_c, 0, 67, 122
1, 412154, Control_c, 0, 64, 88
1, 412154, Control_c, 0, 67, 119
1, 412169, Control_c, 0, 64, 90
1, 412169, Control_c, 0, 67, 116
1, 412184, Control_c, 0, 64, 92
1, 412184, Control_c, 0, 67, 114
1, 412199, Control_c, 0, 64, 94
1, 412199, Control_c, 0, 67, 112
1, 412213, Control_c, 0, 64, 96
1, 412213, Control_c, 0, 67, 110
1, 412228, Control_c, 0, 64, 97
1, 412228, Control_c, 0, 67, 109
1, 412234, Note_off_c, 0, 60, 39
1, 412243, Control_c, 0, 64, 99
1, 412243, Control_c, 0, 67, 107
1, 412257, Control_c, 0, 64, 100
1, 412257, Control_c, 0, 67, 105
1, 412272, Control_c, 0, 64, 101
1, 412272, Control_c, 0, 67, 103
1, 412287, Control_c, 0, 64, 102
1, 412287, Control_c, 0, 67, 102
1, 412302, Control_c, 0, 64, 103
1, 412302, Control_c, 0, 67, 100
1, 412317, Control_c, 0, 64, 104
1, 412317, Control_c, 0, 67, 98
1, 412332, Control_c, 0, 64, 105
1, 412332, Control_c, 0, 67, 97
1, 412347, Control_c, 0, 64, 106
1, 412347, Control_c, 0, 67, 95
1, 412358, Note_off_c, 0, 72, 42
1, 412361, Control_c, 0, 64, 107
1, 412361, Control_c, 0, 67, 95
1, 412376, Control_c, 0, 64, 109
1, 412376, Control_c, 0, 67, 94
1, 412391, Control_c, 0, 64, 110
1, 412391, Control_c, 0, 67, 93
1, 412406, Control_c, 0, 64, 112
1, 412409, Note_off_c, 0, 55, 43
1, 412421, Control_c, 0, 64, 113
1, 412421, Control_c, 0, 67, 93
1, 412436, Control_c, 0, 64, 114
1, 412451, Control_c, 0, 64, 116
1, 412466, Note_off_c, 0, 64, 41
1, 412466, Control_c, 0, 64, 118
1, 412481, Control_c, 0, 64, 121
1, 412481, Control_c, 0, 67, 92
1, 412496, Control_c, 0, 64, 127
1, 412555, Note_off_c, 0, 48, 36
1, 412585, Control_c, 0, 67, 92
1, 412859, Control_c, 0, 67, 91
1, 413251, Note_on_c, 0, 55, 59
1, 413274, Control_c, 0, 64, 121
1, 413286, Note_on_c, 0, 52, 44
1, 413289, Control_c, 0, 64, 110
1, 413292, Note_on_c, 0, 43, 40
1, 413303, Control_c, 0, 64, 101
1, 413318, Control_c, 0, 64, 91
1, 413333, Control_c, 0, 64, 78
1, 413348, Control_c, 0, 64, 68
1, 413363, Control_c, 0, 64, 60
1, 413378, Control_c, 0, 64, 48
1, 413393, Control_c, 0, 64, 41
1, 413408, Control_c, 0, 64, 40
1, 413423, Control_c, 0, 67, 90
1, 413452, Control_c, 0, 64, 43
1, 413452, Control_c, 0, 67, 90
1, 413467, Control_c, 0, 64, 47
1, 413467, Control_c, 0, 67, 89
1, 413482, Control_c, 0, 64, 54
1, 413482, Control_c, 0, 67, 88
1, 413496, Control_c, 0, 64, 60
1, 413496, Control_c, 0, 67, 87
1, 413511, Control_c, 0, 64, 64
1, 413511, Control_c, 0, 67, 86
1, 413526, Control_c, 0, 64, 67
1, 413526, Control_c, 0, 67, 77
1, 413541, Control_c, 0, 64, 72
1, 413541, Control_c, 0, 67, 55
1, 413556, Control_c, 0, 64, 79
1, 413556, Control_c, 0, 67, 29
1, 413570, Control_c, 0, 64, 90
1, 413570, Control_c, 0, 67, 13
1, 413585, Control_c, 0, 64, 110
1, 413585, Control_c, 0, 67, 0
1, 413607, Control_c, 0, 64, 127
1, 413674, Note_off_c, 0, 52, 54
1, 413739, Note_off_c, 0, 55, 46
1, 413741, Note_off_c, 0, 43, 37
1, 414174, Note_on_c, 0, 59, 64
1, 414191, Note_on_c, 0, 53, 50
1, 414208, Note_on_c, 0, 43, 38
1, 414210, Note_on_c, 0, 50, 41
1, 414245, Control_c, 0, 64, 108
1, 414260, Control_c, 0, 64, 91
1, 414274, Control_c, 0, 64, 80
1, 414289, Control_c, 0, 64, 71
1, 414304, Control_c, 0, 64, 62
1, 414318, Control_c, 0, 64, 44
1, 414333, Control_c, 0, 64, 0
1, 414430, Control_c, 0, 64, 16
1, 414445, Control_c, 0, 64, 37
1, 414460, Control_c, 0, 64, 51
1, 414474, Control_c, 0, 64, 60
1, 414489, Control_c, 0, 64, 65
1, 414504, Control_c, 0, 64, 70
1, 414518, Control_c, 0, 64, 77
1, 414533, Control_c, 0, 64, 89
1, 414548, Control_c, 0, 64, 127
1, 414670, Note_off_c, 0, 50, 40
1, 414715, Note_off_c, 0, 59, 58
1, 414734, Note_off_c, 0, 43, 38
1, 414737, Note_off_c, 0, 53, 37
1, 415500, Note_on_c, 0, 60, 60
1, 415518, Note_on_c, 0, 52, 46
1, 415521, Note_on_c, 0, 55, 45
1, 415542, Note_on_c, 0, 43, 35
1, 415543, Note_on_c, 0, 48, 41
1, 415554, Note_on_c, 0, 36, 36
1, 415623, Control_c, 0, 64, 107
1, 415638, Control_c, 0, 64, 92
1, 415654, Control_c, 0, 64, 79
1, 415669, Control_c, 0, 64, 70
1, 415684, Control_c, 0, 64, 64
1, 415699, Control_c, 0, 64, 57
1, 415714, Control_c, 0, 64, 51
1, 415728, Control_c, 0, 64, 45
1, 415743, Control_c, 0, 64, 35
1, 415758, Control_c, 0, 64, 21
1, 415772, Control_c, 0, 64, 0
1, 415972, Control_c, 0, 64, 26
1, 415987, Control_c, 0, 64, 41
1, 416002, Control_c, 0, 64, 52
1, 416017, Control_c, 0, 64, 58
1, 416032, Control_c, 0, 64, 62
1, 416046, Control_c, 0, 64, 64
1, 416061, Control_c, 0, 64, 65
1, 416076, Control_c, 0, 64, 67
1, 416091, Control_c, 0, 64, 69
1, 416105, Control_c, 0, 64, 72
1, 416120, Control_c, 0, 64, 77
1, 416135, Control_c, 0, 64, 82
1, 416150, Control_c, 0, 64, 88
1, 416165, Control_c, 0, 64, 94
1, 416180, Control_c, 0, 64, 102
1, 416195, Control_c, 0, 64, 111
1, 416210, Control_c, 0, 64, 127
1, 416368, Note_off_c, 0, 48, 40
1, 416393, Note_off_c, 0, 52, 40
1, 416466, Note_off_c, 0, 60, 34
1, 416475, Note_off_c, 0, 36, 40
1, 416477, Control_c, 0, 67, 18
1, 416492, Control_c, 0, 67, 28
1, 416507, Control_c, 0, 67, 36
1, 416521, Control_c, 0, 67, 44
1, 416536, Control_c, 0, 67, 49
1, 416541, Note_off_c, 0, 43, 34
1, 416551, Control_c, 0, 67, 53
1, 416558, Note_off_c, 0, 55, 16
1, 416566, Control_c, 0, 67, 57
1, 416581, Control_c, 0, 67, 60
1, 416603, Control_c, 0, 67, 62
1, 416618, Control_c, 0, 67, 65
1, 416633, Control_c, 0, 67, 66
1, 416648, Control_c, 0, 67, 68
1, 416663, Control_c, 0, 67, 71
1, 416677, Control_c, 0, 67, 73
1, 416692, Control_c, 0, 67, 76
1, 416707, Control_c, 0, 67, 79
1, 416721, Control_c, 0, 67, 82
1, 416736, Control_c, 0, 67, 86
1, 416751, Control_c, 0, 67, 90
1, 416766, Control_c, 0, 67, 95
1, 416781, Control_c, 0, 67, 100
1, 416795, Control_c, 0, 67, 103
1, 416810, Control_c, 0, 67, 108
1, 416825, Control_c, 0, 67, 112
1, 416840, Control_c, 0, 67, 115
1, 416855, Control_c, 0, 67, 119
1, 416869, Control_c, 0, 67, 120
1, 416884, Control_c, 0, 67, 122
1, 416899, Control_c, 0, 67, 124
1, 416914, Control_c, 0, 67, 125
1, 416928, Control_c, 0, 67, 125
1, 416943, Control_c, 0, 67, 126
1, 416958, Control_c, 0, 67, 127
1, 417047, Control_c, 0, 67, 126
1, 417062, Control_c, 0, 67, 125
1, 417077, Control_c, 0, 67, 125
1, 417092, Control_c, 0, 67, 124
1, 417107, Control_c, 0, 67, 122
1, 417121, Control_c, 0, 67, 121
1, 417136, Control_c, 0, 67, 120
1, 417151, Control_c, 0, 67, 120
1, 417166, Control_c, 0, 67, 119
1, 417225, Control_c, 0, 67, 118
1, 417256, Control_c, 0, 67, 117
1, 417315, Control_c, 0, 67, 116
1, 417330, Control_c, 0, 67, 115
1, 417348, Note_on_c, 0, 60, 59
1, 417351, Control_c, 0, 67, 114
1, 417363, Note_on_c, 0, 55, 44
1, 417364, Note_on_c, 0, 52, 42
1, 417366, Control_c, 0, 67, 112
1, 417380, Note_on_c, 0, 48, 39
1, 417381, Control_c, 0, 67, 110
1, 417385, Note_on_c, 0, 43, 32
1, 417396, Control_c, 0, 67, 109
1, 417410, Note_on_c, 0, 36, 34
1, 417411, Control_c, 0, 67, 107
1, 417426, Control_c, 0, 67, 104
1, 417441, Control_c, 0, 67, 102
1, 417456, Control_c, 0, 67, 99
1, 417471, Control_c, 0, 67, 97
1, 417486, Control_c, 0, 67, 93
1, 417500, Control_c, 0, 67, 88
1, 417515, Control_c, 0, 67, 84
1, 417530, Control_c, 0, 67, 80
1, 417544, Control_c, 0, 67, 77
1, 417559, Control_c, 0, 67, 72
1, 417574, Control_c, 0, 67, 69
1, 417589, Control_c, 0, 67, 66
1, 417603, Control_c, 0, 67, 66
1, 417617, Control_c, 0, 67, 65
1, 417632, Control_c, 0, 67, 65
1, 417691, Control_c, 0, 67, 64
1, 417721, Control_c, 0, 67, 63
1, 417766, Control_c, 0, 67, 63
1, 417840, Control_c, 0, 67, 62
1, 418219, Control_c, 0, 67, 63
1, 418278, Control_c, 0, 67, 63
1, 418322, Control_c, 0, 67, 64
1, 418366, Control_c, 0, 67, 65
1, 418396, Control_c, 0, 67, 65
1, 418426, Control_c, 0, 67, 66
1, 418440, Control_c, 0, 67, 66
1, 418449, Note_off_c, 0, 48, 32
1, 418455, Control_c, 0, 67, 67
1, 418470, Control_c, 0, 67, 68
1, 418486, Note_off_c, 0, 60, 33
1, 418493, Note_off_c, 0, 52, 34
1, 418499, Control_c, 0, 67, 68
1, 418514, Control_c, 0, 67, 69
1, 418544, Control_c, 0, 67, 70
1, 418568, Note_off_c, 0, 36, 38
1, 418591, Note_off_c, 0, 55, 40
1, 418608, Note_off_c, 0, 43, 36
1, 418722, Control_c, 0, 67, 69
1, 419697, Note_on_c, 0, 60, 46
1, 419706, Note_on_c, 0, 52, 40
1, 419708, Note_on_c, 0, 55, 41
1, 419727, Note_on_c, 0, 43, 29
1, 419730, Note_on_c, 0, 48, 38
1, 419745, Note_on_c, 0, 36, 31
1, 419982, Control_c, 0, 67, 68
1, 420041, Control_c, 0, 67, 68
1, 422258, Control_c, 0, 67, 68
1, 422510, Control_c, 0, 67, 69
1, 423532, Note_off_c, 0, 52, 28
1, 423619, Note_off_c, 0, 60, 1
1, 423694, Note_off_c, 0, 36, 35
1, 423727, Note_off_c, 0, 55, 27
1, 423840, Note_off_c, 0, 48, 35
1, 423993, Control_c, 0, 67, 68
1, 424053, Control_c, 0, 67, 68
1, 424120, Control_c, 0, 67, 67
1, 424135, Note_off_c, 0, 43, 22
1, 424193, Control_c, 0, 67, 66
1, 424253, Control_c, 0, 67, 66
1, 424282, Control_c, 0, 67, 65
1, 424327, Control_c, 0, 67, 65
1, 424385, Control_c, 0, 67, 64
1, 424461, Control_c, 0, 67, 63
1, 424564, Control_c, 0, 67, 63
1, 424638, Control_c, 0, 67, 62
1, 424712, Control_c, 0, 67, 61
1, 424941, Control_c, 0, 67, 61
1, 424986, Control_c, 0, 67, 60
1, 425015, Control_c, 0, 64, 113
1, 425030, Control_c, 0, 64, 106
1, 425045, Control_c, 0, 64, 100
1, 425045, Control_c, 0, 67, 60
1, 425060, Control_c, 0, 64, 95
1, 425075, Control_c, 0, 64, 92
1, 425090, Control_c, 0, 64, 89
1, 425105, Control_c, 0, 64, 86
1, 425120, Control_c, 0, 64, 83
1, 425120, Control_c, 0, 67, 59
1, 425134, Control_c, 0, 64, 82
1, 425149, Control_c, 0, 64, 80
1, 425164, Control_c, 0, 64, 80
1, 425179, Control_c, 0, 64, 79
1, 425194, Control_c, 0, 64, 79
1, 425208, Control_c, 0, 64, 78
1, 425223, Control_c, 0, 64, 77
1, 425223, Control_c, 0, 67, 58
1, 425239, Control_c, 0, 64, 76
1, 425254, Control_c, 0, 64, 76
1, 425269, Control_c, 0, 64, 75
1, 425269, Control_c, 0, 67, 58
1, 425284, Control_c, 0, 64, 74
1, 425299, Control_c, 0, 64, 73
1, 425299, Control_c, 0, 67, 57
1, 425313, Control_c, 0, 64, 71
1, 425328, Control_c, 0, 64, 70
1, 425328, Control_c, 0, 67, 50
1, 425343, Control_c, 0, 64, 68
1, 425343, Control_c, 0, 67, 33
1, 425357, Control_c, 0, 64, 67
1, 425357, Control_c, 0, 67, 18
1, 425372, Control_c, 0, 64, 67
1, 425372, Control_c, 0, 67, 8
1, 425387, Control_c, 0, 64, 66
1, 425387, Control_c, 0, 67, 0
1, 425462, End_track
0, 0, End_of_file
