0, 0, Header, 0, 1, 384
1, 0, Start_track
1, 0, Title_t, "ProkofievToccataOp11--Teo       "
1, 0, Text_t, "2011 ePiano Junior Competition"
1, 0, Text_t, "captured in spring and summer 2011"
1, 0, Text_t, "http://www.piano-e-competition.com/"
1, 0, Text_t, "standard-resolution version"
1, 0, Text_t, "File processed for distribution with software designed and coded by Dr. John Q. Walker, founder of Zenph Sound Innovations"
1, 0, Instrument_name_t, "Yamaha Disklavier Pro Mark IV concert grand piano, model DCFIIISM4PRO"
1, 0, Sequencer_specific, 39, 67, 113, 0, 1, 0, 1, 0, 80, 114, 111, 107, 111, 102, 105, 101, 118, 84, 111, 99, 99, 97, 116, 97, 84, 114, 105, 115, 116, 97, 110, 32, 84, 101, 111, 32, 32, 32, 32, 32
1, 0, Sequencer_specific, 6, 67, 113, 0, 0, 0, 69
1, 0, System_exclusive, 21, 67, 113, 126, 21, 0, 2, 2, 2, 5, 12, 8, 4, 14, 1, 3, 10, 11, 2, 12, 2, 247
1, 0, Sequencer_specific, 5, 67, 123, 12, 2, 1
1, 0, Tempo, 512820
1, 0, Time_signature, 4, 2, 24, 8
1, 0, System_exclusive, 5, 126, 127, 9, 1, 247
1, 1, System_exclusive, 8, 67, 16, 76, 0, 0, 126, 0, 247
1, 2, System_exclusive, 8, 67, 16, 76, 8, 9, 7, 1, 247
1, 3, Control_c, 0, 0, 108
1, 3, Control_c, 1, 0, 108
1, 3, Control_c, 2, 0, 0
1, 3, Control_c, 3, 0, 0
1, 3, Control_c, 4, 0, 0
1, 3, Control_c, 5, 0, 0
1, 3, Control_c, 6, 0, 0
1, 3, Control_c, 7, 0, 0
1, 3, Control_c, 8, 0, 0
1, 3, Control_c, 9, 0, 127
1, 3, Control_c, 10, 0, 0
1, 3, Control_c, 11, 0, 0
1, 3, Control_c, 12, 0, 0
1, 3, Control_c, 13, 0, 0
1, 3, Control_c, 14, 0, 0
1, 3, Control_c, 15, 0, 0
1, 4, Control_c, 0, 32, 0
1, 4, Control_c, 1, 32, 0
1, 4, Control_c, 2, 32, 0
1, 4, Control_c, 3, 32, 0
1, 4, Control_c, 4, 32, 0
1, 4, Control_c, 5, 32, 0
1, 4, Control_c, 6, 32, 0
1, 4, Control_c, 7, 32, 0
1, 4, Control_c, 8, 32, 0
1, 4, Control_c, 9, 32, 0
1, 4, Control_c, 10, 32, 0
1, 4, Control_c, 11, 32, 0
1, 4, Control_c, 12, 32, 0
1, 4, Control_c, 13, 32, 0
1, 4, Control_c, 14, 32, 0
1, 4, Control_c, 15, 32, 0
1, 5, Program_c, 0, 0
1, 5, Program_c, 1, 0
1, 5, Program_c, 2, 0
1, 5, Program_c, 3, 0
1, 5, Program_c, 4, 0
1, 5, Program_c, 5, 0
1, 5, Program_c, 6, 0
1, 5, Program_c, 7, 0
1, 5, Program_c, 8, 0
1, 5, Program_c, 9, 0
1, 5, Program_c, 10, 0
1, 5, Program_c, 11, 0
1, 5, Program_c, 12, 0
1, 5, Program_c, 13, 0
1, 5, Program_c, 14, 0
1, 5, Program_c, 15, 0
1, 6, Control_c, 0, 7, 100
1, 6, Control_c, 1, 7, 100
1, 6, Control_c, 2, 7, 100
1, 6, Control_c, 3, 7, 100
1, 6, Control_c, 4, 7, 100
1, 6, Control_c, 5, 7, 100
1, 6, Control_c, 6, 7, 100
1, 6, Control_c, 7, 7, 100
1, 6, Control_c, 8, 7, 100
1, 6, Control_c, 9, 7, 100
1, 6, Control_c, 10, 7, 100
1, 6, Control_c, 11, 7, 100
1, 6, Control_c, 12, 7, 100
1, 6, Control_c, 13, 7, 100
1, 6, Control_c, 14, 7, 100
1, 6, Control_c, 15, 7, 100
1, 42, Control_c, 0, 64, 4
1, 42, Control_c, 0, 67, 14
1, 79, Control_c, 0, 64, 9
1, 79, Control_c, 0, 67, 28
1, 116, Control_c, 0, 64, 13
1, 116, Control_c, 0, 67, 42
1, 153, Control_c, 0, 64, 18
1, 153, Control_c, 0, 67, 56
1, 190, Control_c, 0, 64, 22
1, 190, Control_c, 0, 67, 70
1, 226, Control_c, 0, 64, 27
1, 226, Control_c, 0, 67, 84
1, 263, Control_c, 0, 64, 31
1, 263, Control_c, 0, 67, 98
1, 300, Control_c, 0, 64, 37
1, 300, Control_c, 0, 67, 112
1, 381, Note_on_c, 0, 50, 68
1, 386, Control_c, 0, 67, 111
1, 409, Note_off_c, 0, 50, 66
1, 415, Control_c, 0, 67, 110
1, 460, Control_c, 0, 64, 37
1, 460, Control_c, 0, 67, 110
1, 474, Note_on_c, 0, 38, 57
1, 475, Control_c, 0, 64, 36
1, 477, Note_on_c, 0, 50, 65
1, 497, Control_c, 0, 64, 36
1, 512, Control_c, 0, 64, 35
1, 515, Note_off_c, 0, 38, 61
1, 515, Note_off_c, 0, 50, 65
1, 527, Control_c, 0, 64, 34
1, 542, Control_c, 0, 64, 33
1, 557, Control_c, 0, 64, 32
1, 557, Control_c, 0, 67, 109
1, 571, Control_c, 0, 64, 31
1, 576, Note_on_c, 0, 50, 73
1, 601, Control_c, 0, 64, 31
1, 603, Note_off_c, 0, 50, 66
1, 630, Control_c, 0, 64, 30
1, 672, Note_on_c, 0, 50, 65
1, 688, Note_on_c, 0, 38, 54
1, 711, Note_off_c, 0, 50, 65
1, 722, Note_off_c, 0, 38, 62
1, 734, Control_c, 0, 67, 110
1, 787, Note_on_c, 0, 50, 67
1, 793, Control_c, 0, 67, 110
1, 814, Note_off_c, 0, 50, 66
1, 838, Control_c, 0, 67, 111
1, 868, Control_c, 0, 67, 112
1, 883, Note_on_c, 0, 50, 65
1, 903, Note_on_c, 0, 38, 45
1, 919, Note_off_c, 0, 50, 65
1, 933, Note_off_c, 0, 38, 55
1, 992, Note_on_c, 0, 50, 68
1, 1019, Note_off_c, 0, 50, 63
1, 1031, Control_c, 0, 64, 31
1, 1085, Note_on_c, 0, 50, 69
1, 1092, Note_on_c, 0, 38, 48
1, 1119, Note_off_c, 0, 50, 63
1, 1127, Note_off_c, 0, 38, 62
1, 1182, Note_on_c, 0, 50, 80
1, 1208, Note_off_c, 0, 50, 66
1, 1286, Note_on_c, 0, 50, 62
1, 1303, Note_on_c, 0, 38, 51
1, 1324, Note_off_c, 0, 50, 63
1, 1335, Note_off_c, 0, 38, 61
1, 1389, Note_on_c, 0, 50, 74
1, 1416, Note_off_c, 0, 50, 66
1, 1489, Note_on_c, 0, 50, 67
1, 1506, Note_on_c, 0, 38, 49
1, 1529, Note_off_c, 0, 50, 65
1, 1540, Note_off_c, 0, 38, 61
1, 1589, Note_on_c, 0, 50, 71
1, 1619, Note_off_c, 0, 50, 66
1, 1685, Note_on_c, 0, 50, 64
1, 1694, Note_on_c, 0, 38, 51
1, 1720, Note_off_c, 0, 50, 63
1, 1732, Note_off_c, 0, 38, 63
1, 1783, Note_on_c, 0, 50, 77
1, 1810, Note_off_c, 0, 50, 66
1, 1883, Note_on_c, 0, 50, 63
1, 1899, Note_on_c, 0, 38, 55
1, 1922, Note_off_c, 0, 50, 65
1, 1935, Note_off_c, 0, 38, 61
1, 1989, Note_on_c, 0, 50, 68
1, 2018, Note_off_c, 0, 50, 66
1, 2096, Note_on_c, 0, 50, 64
1, 2117, Note_on_c, 0, 38, 45
1, 2135, Note_off_c, 0, 50, 64
1, 2143, Control_c, 0, 64, 31
1, 2148, Note_off_c, 0, 38, 58
1, 2185, Note_on_c, 0, 50, 66
1, 2213, Note_off_c, 0, 50, 65
1, 2296, Note_on_c, 0, 50, 61
1, 2309, Note_on_c, 0, 38, 48
1, 2336, Note_off_c, 0, 50, 63
1, 2346, Note_off_c, 0, 38, 63
1, 2387, Note_on_c, 0, 50, 76
1, 2413, Note_off_c, 0, 50, 67
1, 2483, Note_on_c, 0, 50, 64
1, 2501, Note_on_c, 0, 38, 54
1, 2527, Note_off_c, 0, 50, 64
1, 2537, Note_off_c, 0, 38, 63
1, 2584, Note_on_c, 0, 50, 67
1, 2613, Note_off_c, 0, 50, 65
1, 2684, Note_on_c, 0, 50, 64
1, 2698, Note_on_c, 0, 38, 53
1, 2722, Note_off_c, 0, 50, 64
1, 2742, Note_off_c, 0, 38, 62
1, 2792, Note_on_c, 0, 50, 74
1, 2818, Note_off_c, 0, 50, 66
1, 2888, Note_on_c, 0, 50, 63
1, 2904, Note_on_c, 0, 38, 54
1, 2926, Note_off_c, 0, 50, 66
1, 2940, Note_off_c, 0, 38, 63
1, 2988, Note_on_c, 0, 50, 68
1, 3020, Note_off_c, 0, 50, 65
1, 3089, Note_on_c, 0, 50, 67
1, 3107, Note_on_c, 0, 38, 52
1, 3125, Note_off_c, 0, 50, 67
1, 3140, Note_off_c, 0, 38, 62
1, 3181, Note_on_c, 0, 50, 70
1, 3212, Note_off_c, 0, 50, 65
1, 3281, Note_on_c, 0, 50, 70
1, 3290, Note_on_c, 0, 38, 53
1, 3312, Note_off_c, 0, 50, 65
1, 3324, Note_off_c, 0, 38, 62
1, 3364, Note_on_c, 0, 50, 81
1, 3366, Control_c, 0, 64, 35
1, 3381, Control_c, 0, 64, 45
1, 3396, Control_c, 0, 64, 57
1, 3399, Note_off_c, 0, 50, 66
1, 3410, Control_c, 0, 64, 64
1, 3425, Control_c, 0, 64, 70
1, 3425, Control_c, 0, 67, 111
1, 3440, Control_c, 0, 64, 84
1, 3440, Control_c, 0, 67, 110
1, 3455, Control_c, 0, 64, 127
1, 3455, Control_c, 0, 67, 110
1, 3470, Control_c, 0, 67, 109
1, 3490, Note_on_c, 0, 38, 54
1, 3490, Note_on_c, 0, 50, 57
1, 3493, Control_c, 0, 67, 107
1, 3508, Control_c, 0, 67, 107
1, 3510, Note_off_c, 0, 50, 62
1, 3520, Note_off_c, 0, 38, 59
1, 3522, Control_c, 0, 67, 106
1, 3552, Control_c, 0, 67, 107
1, 3567, Control_c, 0, 67, 108
1, 3571, Note_on_c, 0, 52, 83
1, 3574, Note_on_c, 0, 48, 83
1, 3582, Control_c, 0, 64, 91
1, 3582, Control_c, 0, 67, 109
1, 3596, Control_c, 0, 64, 68
1, 3596, Control_c, 0, 67, 110
1, 3598, Note_off_c, 0, 48, 68
1, 3601, Note_off_c, 0, 52, 67
1, 3611, Control_c, 0, 64, 44
1, 3611, Control_c, 0, 67, 110
1, 3626, Control_c, 0, 64, 0
1, 3640, Control_c, 0, 67, 112
1, 3655, Control_c, 0, 67, 113
1, 3670, Control_c, 0, 67, 114
1, 3682, Note_on_c, 0, 50, 73
1, 3685, Control_c, 0, 67, 115
1, 3690, Note_on_c, 0, 38, 58
1, 3700, Control_c, 0, 67, 117
1, 3713, Note_off_c, 0, 50, 64
1, 3715, Control_c, 0, 67, 117
1, 3722, Note_off_c, 0, 38, 63
1, 3730, Control_c, 0, 67, 119
1, 3745, Control_c, 0, 67, 120
1, 3760, Control_c, 0, 67, 122
1, 3775, Control_c, 0, 67, 124
1, 3777, Note_on_c, 0, 48, 61
1, 3780, Note_on_c, 0, 52, 57
1, 3789, Control_c, 0, 67, 126
1, 3802, Note_off_c, 0, 52, 62
1, 3804, Note_off_c, 0, 48, 63
1, 3804, Control_c, 0, 67, 127
1, 3879, Note_on_c, 0, 50, 65
1, 3885, Note_on_c, 0, 38, 50
1, 3908, Note_off_c, 0, 50, 65
1, 3917, Note_off_c, 0, 38, 59
1, 3968, Note_on_c, 0, 52, 60
1, 3969, Note_on_c, 0, 48, 60
1, 3995, Note_off_c, 0, 52, 66
1, 4000, Note_off_c, 0, 48, 64
1, 4068, Note_on_c, 0, 50, 62
1, 4073, Note_on_c, 0, 38, 51
1, 4099, Note_off_c, 0, 50, 64
1, 4108, Note_off_c, 0, 38, 63
1, 4162, Note_on_c, 0, 52, 63
1, 4163, Note_on_c, 0, 48, 60
1, 4189, Note_off_c, 0, 52, 67
1, 4195, Note_off_c, 0, 48, 64
1, 4242, Control_c, 0, 67, 127
1, 4257, Control_c, 0, 67, 125
1, 4272, Control_c, 0, 67, 124
1, 4272, Note_on_c, 0, 50, 67
1, 4278, Note_on_c, 0, 38, 58
1, 4302, Control_c, 0, 67, 124
1, 4303, Note_off_c, 0, 50, 64
1, 4314, Note_off_c, 0, 38, 63
1, 4317, Control_c, 0, 67, 123
1, 4365, Note_on_c, 0, 52, 63
1, 4366, Note_on_c, 0, 48, 61
1, 4394, Note_off_c, 0, 52, 67
1, 4397, Note_off_c, 0, 48, 64
1, 4460, Note_on_c, 0, 50, 66
1, 4472, Note_on_c, 0, 38, 48
1, 4491, Note_off_c, 0, 50, 63
1, 4502, Note_off_c, 0, 38, 57
1, 4523, Control_c, 0, 67, 122
1, 4552, Note_on_c, 0, 52, 64
1, 4556, Note_on_c, 0, 48, 60
1, 4583, Note_off_c, 0, 52, 66
1, 4587, Note_off_c, 0, 48, 65
1, 4650, Note_on_c, 0, 50, 65
1, 4652, Note_on_c, 0, 38, 51
1, 4683, Note_off_c, 0, 50, 63
1, 4689, Note_off_c, 0, 38, 63
1, 4743, Note_on_c, 0, 52, 60
1, 4745, Note_on_c, 0, 48, 62
1, 4773, Note_off_c, 0, 52, 67
1, 4776, Note_off_c, 0, 48, 64
1, 4843, Note_on_c, 0, 50, 65
1, 4845, Note_on_c, 0, 38, 56
1, 4873, Note_off_c, 0, 50, 64
1, 4880, Note_off_c, 0, 38, 63
1, 4933, Note_on_c, 0, 52, 65
1, 4937, Control_c, 0, 67, 122
1, 4939, Note_on_c, 0, 48, 59
1, 4952, Control_c, 0, 64, 41
1, 4952, Control_c, 0, 67, 120
1, 4960, Note_off_c, 0, 52, 67
1, 4967, Note_off_c, 0, 48, 63
1, 4967, Control_c, 0, 64, 53
1, 4967, Control_c, 0, 67, 120
1, 4989, Control_c, 0, 64, 59
1, 4989, Control_c, 0, 67, 119
1, 5004, Control_c, 0, 64, 62
1, 5004, Control_c, 0, 67, 119
1, 5019, Control_c, 0, 64, 65
1, 5019, Control_c, 0, 67, 118
1, 5033, Note_on_c, 0, 50, 67
1, 5035, Control_c, 0, 64, 67
1, 5035, Control_c, 0, 67, 117
1, 5044, Note_on_c, 0, 38, 52
1, 5050, Control_c, 0, 64, 70
1, 5050, Control_c, 0, 67, 109
1, 5060, Note_off_c, 0, 50, 65
1, 5065, Control_c, 0, 64, 73
1, 5065, Control_c, 0, 67, 104
1, 5077, Note_off_c, 0, 38, 61
1, 5080, Control_c, 0, 64, 72
1, 5080, Control_c, 0, 67, 103
1, 5094, Control_c, 0, 64, 71
1, 5094, Control_c, 0, 67, 104
1, 5109, Control_c, 0, 64, 68
1, 5109, Control_c, 0, 67, 107
1, 5124, Control_c, 0, 64, 63
1, 5124, Control_c, 0, 67, 110
1, 5133, Note_on_c, 0, 50, 79
1, 5139, Control_c, 0, 64, 52
1, 5139, Control_c, 0, 67, 112
1, 5154, Control_c, 0, 64, 24
1, 5154, Control_c, 0, 67, 114
1, 5161, Note_off_c, 0, 50, 68
1, 5168, Control_c, 0, 64, 0
1, 5168, Control_c, 0, 67, 117
1, 5183, Control_c, 0, 67, 120
1, 5198, Control_c, 0, 67, 123
1, 5212, Control_c, 0, 67, 125
1, 5226, Control_c, 0, 67, 127
1, 5241, Note_on_c, 0, 50, 62
1, 5243, Note_on_c, 0, 38, 54
1, 5271, Note_off_c, 0, 50, 65
1, 5279, Note_off_c, 0, 38, 63
1, 5329, Note_on_c, 0, 50, 77
1, 5356, Note_off_c, 0, 50, 66
1, 5426, Note_on_c, 0, 50, 65
1, 5438, Note_on_c, 0, 38, 55
1, 5463, Note_off_c, 0, 50, 64
1, 5474, Note_off_c, 0, 38, 63
1, 5524, Note_on_c, 0, 50, 72
1, 5554, Note_off_c, 0, 50, 65
1, 5621, Note_on_c, 0, 50, 64
1, 5628, Note_on_c, 0, 38, 52
1, 5661, Note_off_c, 0, 50, 62
1, 5667, Note_off_c, 0, 38, 63
1, 5715, Note_on_c, 0, 50, 73
1, 5750, Note_off_c, 0, 50, 66
1, 5817, Note_on_c, 0, 50, 65
1, 5829, Note_on_c, 0, 38, 55
1, 5859, Note_off_c, 0, 50, 62
1, 5867, Note_off_c, 0, 38, 63
1, 5912, Note_on_c, 0, 50, 67
1, 5941, Note_off_c, 0, 50, 65
1, 6010, Note_on_c, 0, 50, 65
1, 6020, Note_on_c, 0, 38, 53
1, 6050, Note_off_c, 0, 50, 63
1, 6059, Note_off_c, 0, 38, 63
1, 6108, Note_on_c, 0, 50, 66
1, 6138, Note_off_c, 0, 50, 66
1, 6202, Note_on_c, 0, 50, 69
1, 6216, Note_on_c, 0, 38, 54
1, 6241, Note_off_c, 0, 50, 63
1, 6253, Note_off_c, 0, 38, 63
1, 6303, Note_on_c, 0, 50, 68
1, 6333, Note_off_c, 0, 50, 65
1, 6398, Note_on_c, 0, 50, 65
1, 6408, Note_on_c, 0, 38, 54
1, 6435, Note_off_c, 0, 50, 61
1, 6443, Note_off_c, 0, 38, 62
1, 6504, Note_on_c, 0, 50, 76
1, 6534, Note_off_c, 0, 50, 66
1, 6546, Control_c, 0, 67, 120
1, 6561, Control_c, 0, 64, 12
1, 6561, Control_c, 0, 67, 105
1, 6576, Control_c, 0, 64, 50
1, 6576, Control_c, 0, 67, 85
1, 6590, Control_c, 0, 64, 63
1, 6590, Control_c, 0, 67, 59
1, 6593, Note_on_c, 0, 50, 73
1, 6605, Control_c, 0, 64, 69
1, 6605, Control_c, 0, 67, 33
1, 6606, Note_on_c, 0, 38, 49
1, 6620, Control_c, 0, 64, 80
1, 6620, Control_c, 0, 67, 8
1, 6621, Note_off_c, 0, 50, 66
1, 6636, Control_c, 0, 64, 104
1, 6636, Control_c, 0, 67, 0
1, 6639, Note_off_c, 0, 38, 55
1, 6650, Control_c, 0, 64, 127
1, 6691, Note_on_c, 0, 52, 79
1, 6694, Note_on_c, 0, 48, 77
1, 6695, Control_c, 0, 64, 95
1, 6710, Control_c, 0, 64, 72
1, 6715, Note_off_c, 0, 52, 70
1, 6722, Note_off_c, 0, 48, 67
1, 6723, Control_c, 0, 64, 52
1, 6738, Control_c, 0, 64, 0
1, 6785, Note_on_c, 0, 50, 68
1, 6791, Note_on_c, 0, 38, 52
1, 6820, Note_off_c, 0, 50, 66
1, 6827, Note_off_c, 0, 38, 65
1, 6857, Control_c, 0, 67, 13
1, 6871, Control_c, 0, 67, 19
1, 6886, Control_c, 0, 67, 19
1, 6890, Note_on_c, 0, 52, 67
1, 6896, Note_on_c, 0, 48, 58
1, 6901, Control_c, 0, 67, 18
1, 6916, Control_c, 0, 67, 17
1, 6917, Note_off_c, 0, 52, 67
1, 6919, Note_off_c, 0, 48, 61
1, 6931, Control_c, 0, 67, 14
1, 6946, Control_c, 0, 67, 10
1, 6961, Control_c, 0, 67, 0
1, 6993, Note_on_c, 0, 50, 65
1, 7000, Note_on_c, 0, 38, 52
1, 7023, Note_off_c, 0, 50, 65
1, 7030, Note_off_c, 0, 38, 59
1, 7080, Note_on_c, 0, 52, 64
1, 7086, Note_on_c, 0, 48, 58
1, 7107, Note_off_c, 0, 52, 67
1, 7117, Note_off_c, 0, 48, 64
1, 7182, Note_on_c, 0, 50, 64
1, 7189, Note_on_c, 0, 38, 47
1, 7216, Note_off_c, 0, 50, 63
1, 7220, Note_off_c, 0, 38, 58
1, 7286, Note_on_c, 0, 52, 74
1, 7292, Note_on_c, 0, 48, 60
1, 7309, Control_c, 0, 64, 20
1, 7310, Note_off_c, 0, 52, 67
1, 7320, Note_off_c, 0, 48, 63
1, 7324, Control_c, 0, 64, 48
1, 7338, Control_c, 0, 64, 61
1, 7353, Control_c, 0, 64, 67
1, 7368, Control_c, 0, 64, 74
1, 7372, Note_on_c, 0, 50, 74
1, 7379, Note_on_c, 0, 38, 55
1, 7382, Control_c, 0, 64, 93
1, 7397, Control_c, 0, 64, 127
1, 7399, Note_off_c, 0, 50, 65
1, 7409, Note_off_c, 0, 38, 57
1, 7468, Note_on_c, 0, 48, 69
1, 7474, Control_c, 0, 64, 121
1, 7476, Note_on_c, 0, 52, 79
1, 7481, Note_on_c, 0, 55, 84
1, 7488, Control_c, 0, 64, 79
1, 7502, Note_off_c, 0, 52, 70
1, 7503, Control_c, 0, 64, 61
1, 7506, Note_off_c, 0, 55, 68
1, 7510, Note_off_c, 0, 48, 65
1, 7518, Control_c, 0, 64, 0
1, 7581, Note_on_c, 0, 50, 77
1, 7588, Note_on_c, 0, 38, 56
1, 7609, Note_off_c, 0, 50, 66
1, 7619, Note_off_c, 0, 38, 61
1, 7687, Note_on_c, 0, 48, 69
1, 7689, Note_on_c, 0, 55, 71
1, 7692, Note_on_c, 0, 52, 56
1, 7710, Control_c, 0, 67, 19
1, 7714, Note_off_c, 0, 48, 66
1, 7714, Note_off_c, 0, 52, 63
1, 7718, Note_off_c, 0, 55, 66
1, 7725, Control_c, 0, 67, 31
1, 7740, Control_c, 0, 67, 41
1, 7754, Control_c, 0, 67, 49
1, 7769, Control_c, 0, 67, 53
1, 7784, Control_c, 0, 67, 57
1, 7787, Note_on_c, 0, 50, 65
1, 7793, Note_on_c, 0, 38, 50
1, 7799, Control_c, 0, 67, 63
1, 7814, Control_c, 0, 67, 68
1, 7820, Note_off_c, 0, 50, 64
1, 7822, Note_off_c, 0, 38, 58
1, 7828, Control_c, 0, 67, 70
1, 7873, Control_c, 0, 67, 68
1, 7884, Note_on_c, 0, 48, 62
1, 7888, Note_on_c, 0, 52, 45
1, 7888, Control_c, 0, 67, 66
1, 7891, Note_on_c, 0, 55, 65
1, 7903, Control_c, 0, 67, 65
1, 7914, Note_off_c, 0, 48, 65
1, 7918, Control_c, 0, 67, 63
1, 7919, Note_off_c, 0, 55, 65
1, 7921, Note_off_c, 0, 52, 66
1, 7933, Control_c, 0, 67, 61
1, 7947, Control_c, 0, 67, 60
1, 7984, Control_c, 0, 67, 59
1, 7996, Note_on_c, 0, 50, 66
1, 7999, Control_c, 0, 67, 58
1, 8003, Note_on_c, 0, 38, 49
1, 8014, Control_c, 0, 67, 56
1, 8027, Note_off_c, 0, 50, 64
1, 8028, Control_c, 0, 67, 55
1, 8034, Note_off_c, 0, 38, 58
1, 8088, Control_c, 0, 67, 56
1, 8091, Note_on_c, 0, 50, 72
1, 8096, Note_on_c, 0, 53, 68
1, 8103, Control_c, 0, 67, 56
1, 8117, Control_c, 0, 67, 57
1, 8123, Note_off_c, 0, 50, 67
1, 8127, Note_off_c, 0, 53, 64
1, 8184, Note_on_c, 0, 50, 60
1, 8190, Note_on_c, 0, 38, 52
1, 8192, Control_c, 0, 67, 56
1, 8198, Note_on_c, 0, 52, 73
1, 8208, Note_off_c, 0, 50, 63
1, 8221, Control_c, 0, 67, 56
1, 8224, Note_off_c, 0, 52, 67
1, 8226, Note_off_c, 0, 38, 63
1, 8237, Control_c, 0, 67, 55
1, 8252, Control_c, 0, 67, 55
1, 8281, Control_c, 0, 67, 54
1, 8287, Note_on_c, 0, 50, 86
1, 8296, Control_c, 0, 67, 53
1, 8311, Control_c, 0, 67, 52
1, 8326, Note_off_c, 0, 50, 64
1, 8326, Control_c, 0, 67, 51
1, 8341, Control_c, 0, 67, 50
1, 8356, Control_c, 0, 67, 48
1, 8371, Control_c, 0, 67, 48
1, 8385, Control_c, 0, 67, 47
1, 8395, Note_on_c, 0, 50, 58
1, 8404, Note_on_c, 0, 38, 54
1, 8415, Control_c, 0, 67, 46
1, 8428, Note_off_c, 0, 50, 63
1, 8429, Control_c, 0, 67, 46
1, 8439, Note_off_c, 0, 38, 63
1, 8444, Control_c, 0, 67, 45
1, 8474, Control_c, 0, 67, 45
1, 8512, Note_on_c, 0, 50, 41
1, 8544, Note_off_c, 0, 50, 34
1, 8577, Control_c, 0, 67, 44
1, 8596, Note_on_c, 0, 38, 53
1, 8603, Note_on_c, 0, 50, 48
1, 8629, Note_off_c, 0, 50, 59
1, 8630, Note_off_c, 0, 38, 63
1, 8666, Control_c, 0, 67, 43
1, 8698, Note_on_c, 0, 50, 55
1, 8731, Note_off_c, 0, 50, 56
1, 8733, Control_c, 0, 67, 43
1, 8806, Note_on_c, 0, 38, 45
1, 8814, Note_on_c, 0, 50, 50
1, 8836, Note_off_c, 0, 38, 55
1, 8841, Note_off_c, 0, 50, 55
1, 8851, Control_c, 0, 67, 42
1, 8887, Note_on_c, 0, 50, 62
1, 8915, Note_off_c, 0, 50, 65
1, 8955, Control_c, 0, 67, 41
1, 8989, Note_on_c, 0, 50, 61
1, 8997, Note_on_c, 0, 38, 44
1, 9023, Note_off_c, 0, 50, 63
1, 9034, Note_off_c, 0, 38, 58
1, 9074, Control_c, 0, 67, 41
1, 9085, Note_on_c, 0, 50, 62
1, 9104, Control_c, 0, 67, 40
1, 9108, Note_off_c, 0, 50, 63
1, 9119, Control_c, 0, 67, 36
1, 9134, Control_c, 0, 67, 33
1, 9149, Control_c, 0, 67, 31
1, 9164, Control_c, 0, 67, 29
1, 9179, Control_c, 0, 67, 28
1, 9180, Note_on_c, 0, 50, 66
1, 9183, Note_on_c, 0, 38, 50
1, 9194, Control_c, 0, 67, 27
1, 9208, Control_c, 0, 67, 26
1, 9209, Note_off_c, 0, 50, 66
1, 9217, Note_off_c, 0, 38, 60
1, 9223, Control_c, 0, 67, 26
1, 9266, Note_on_c, 0, 50, 76
1, 9267, Control_c, 0, 67, 25
1, 9295, Note_off_c, 0, 50, 65
1, 9297, Control_c, 0, 67, 24
1, 9341, Control_c, 0, 67, 24
1, 9349, Note_on_c, 0, 50, 70
1, 9360, Note_on_c, 0, 38, 48
1, 9376, Note_off_c, 0, 50, 66
1, 9386, Control_c, 0, 67, 23
1, 9391, Note_off_c, 0, 38, 58
1, 9400, Control_c, 0, 67, 21
1, 9415, Control_c, 0, 67, 14
1, 9430, Control_c, 0, 67, 0
1, 9444, Control_c, 0, 64, 53
1, 9448, Note_on_c, 0, 50, 104
1, 9459, Control_c, 0, 64, 84
1, 9482, Control_c, 0, 64, 127
1, 9488, Note_off_c, 0, 50, 68
1, 9556, Control_c, 0, 64, 88
1, 9557, Note_on_c, 0, 50, 95
1, 9559, Note_on_c, 0, 38, 76
1, 9571, Control_c, 0, 64, 67
1, 9586, Control_c, 0, 64, 37
1, 9600, Control_c, 0, 64, 0
1, 9609, Note_off_c, 0, 50, 63
1, 9617, Note_off_c, 0, 38, 57
1, 9651, Note_on_c, 0, 63, 106
1, 9684, Note_off_c, 0, 63, 65
1, 9751, Note_on_c, 0, 50, 90
1, 9760, Note_on_c, 0, 38, 72
1, 9793, Control_c, 0, 64, 41
1, 9807, Note_off_c, 0, 38, 56
1, 9808, Control_c, 0, 64, 127
1, 9811, Note_off_c, 0, 50, 63
1, 9852, Note_on_c, 0, 40, 98
1, 9866, Note_on_c, 0, 41, 61
1, 9873, Note_off_c, 0, 40, 68
1, 9891, Note_off_c, 0, 41, 60
1, 9898, Note_on_c, 0, 39, 17
1, 9934, Poly_aftertouch_c, 0, 45, 127
1, 9951, Note_off_c, 0, 39, 45
1, 9956, Note_on_c, 0, 51, 96
1, 9961, Note_on_c, 0, 38, 71
1, 9986, Poly_aftertouch_c, 0, 40, 127
1, 10002, Poly_aftertouch_c, 0, 40, 0
1, 10014, Note_off_c, 0, 38, 60
1, 10016, Note_off_c, 0, 51, 62
1, 10040, Poly_aftertouch_c, 0, 45, 0
1, 10046, Control_c, 0, 64, 80
1, 10055, Note_on_c, 0, 50, 100
1, 10061, Control_c, 0, 64, 54
1, 10075, Control_c, 0, 64, 0
1, 10083, Note_off_c, 0, 50, 65
1, 10145, Note_on_c, 0, 52, 74
1, 10156, Note_on_c, 0, 38, 53
1, 10192, Note_off_c, 0, 52, 61
1, 10201, Note_off_c, 0, 38, 58
1, 10251, Note_on_c, 0, 50, 80
1, 10279, Note_off_c, 0, 50, 66
1, 10339, Note_on_c, 0, 52, 69
1, 10351, Note_on_c, 0, 38, 48
1, 10381, Note_off_c, 0, 52, 60
1, 10396, Note_off_c, 0, 38, 59
1, 10430, Note_on_c, 0, 50, 77
1, 10461, Note_off_c, 0, 50, 66
1, 10537, Note_on_c, 0, 52, 68
1, 10545, Note_on_c, 0, 38, 63
1, 10558, Note_off_c, 0, 52, 69
1, 10571, Control_c, 0, 64, 11
1, 10586, Control_c, 0, 64, 62
1, 10598, Note_off_c, 0, 38, 62
1, 10600, Control_c, 0, 64, 93
1, 10615, Control_c, 0, 64, 127
1, 10619, Note_on_c, 0, 48, 101
1, 10621, Note_on_c, 0, 51, 93
1, 10622, Note_on_c, 0, 54, 94
1, 10660, Note_off_c, 0, 48, 67
1, 10667, Note_off_c, 0, 54, 68
1, 10678, Note_off_c, 0, 51, 65
1, 10706, Note_on_c, 0, 38, 90
1, 10709, Note_on_c, 0, 26, 86
1, 10741, Note_off_c, 0, 26, 64
1, 10750, Control_c, 0, 64, 119
1, 10753, Note_off_c, 0, 38, 58
1, 10765, Control_c, 0, 64, 77
1, 10779, Control_c, 0, 64, 58
1, 10794, Control_c, 0, 64, 0
1, 10824, Note_on_c, 0, 50, 88
1, 10857, Note_off_c, 0, 50, 67
1, 10932, Note_on_c, 0, 50, 60
1, 10950, Note_on_c, 0, 38, 34
1, 10969, Note_off_c, 0, 50, 65
1, 10995, Note_off_c, 0, 38, 47
1, 11032, Note_on_c, 0, 50, 76
1, 11061, Note_off_c, 0, 50, 65
1, 11125, Note_on_c, 0, 38, 51
1, 11128, Note_on_c, 0, 50, 65
1, 11158, Note_off_c, 0, 50, 64
1, 11161, Note_off_c, 0, 38, 62
1, 11201, Control_c, 0, 64, 39
1, 11217, Control_c, 0, 64, 60
1, 11218, Note_on_c, 0, 50, 74
1, 11231, Control_c, 0, 64, 69
1, 11246, Control_c, 0, 64, 88
1, 11248, Note_off_c, 0, 50, 65
1, 11261, Control_c, 0, 64, 127
1, 11308, Note_on_c, 0, 50, 78
1, 11319, Note_on_c, 0, 38, 62
1, 11350, Note_off_c, 0, 50, 64
1, 11358, Note_off_c, 0, 38, 60
1, 11364, Control_c, 0, 64, 89
1, 11379, Control_c, 0, 64, 67
1, 11388, Note_on_c, 0, 38, 81
1, 11394, Control_c, 0, 64, 45
1, 11409, Control_c, 0, 64, 0
1, 11411, Note_off_c, 0, 38, 69
1, 11455, Control_c, 0, 67, 33
1, 11469, Control_c, 0, 67, 72
1, 11484, Control_c, 0, 67, 98
1, 11499, Control_c, 0, 67, 118
1, 11504, Note_on_c, 0, 38, 54
1, 11506, Note_on_c, 0, 50, 67
1, 11513, Control_c, 0, 67, 127
1, 11538, Note_off_c, 0, 50, 63
1, 11544, Note_off_c, 0, 38, 61
1, 11603, Note_on_c, 0, 38, 44
1, 11638, Note_off_c, 0, 38, 51
1, 11702, Note_on_c, 0, 50, 60
1, 11731, Note_on_c, 0, 38, 35
1, 11740, Note_off_c, 0, 50, 64
1, 11769, Note_off_c, 0, 38, 47
1, 11801, Note_on_c, 0, 38, 54
1, 11835, Note_off_c, 0, 38, 55
1, 11900, Note_on_c, 0, 50, 58
1, 11921, Note_on_c, 0, 38, 36
1, 11931, Note_off_c, 0, 50, 64
1, 11959, Note_off_c, 0, 38, 48
1, 11987, Note_on_c, 0, 38, 58
1, 12015, Note_off_c, 0, 38, 62
1, 12092, Note_on_c, 0, 38, 59
1, 12100, Note_on_c, 0, 50, 56
1, 12128, Note_off_c, 0, 38, 62
1, 12128, Note_off_c, 0, 50, 63
1, 12189, Note_on_c, 0, 50, 74
1, 12213, Note_off_c, 0, 50, 67
1, 12274, Note_on_c, 0, 50, 68
1, 12285, Note_on_c, 0, 38, 50
1, 12315, Note_off_c, 0, 50, 63
1, 12327, Note_off_c, 0, 38, 61
1, 12388, Note_on_c, 0, 50, 47
1, 12416, Note_off_c, 0, 50, 56
1, 12484, Note_on_c, 0, 38, 52
1, 12497, Note_on_c, 0, 50, 52
1, 12518, Note_off_c, 0, 38, 61
1, 12523, Note_off_c, 0, 50, 58
1, 12585, Note_on_c, 0, 50, 55
1, 12612, Note_off_c, 0, 50, 62
1, 12688, Note_on_c, 0, 38, 46
1, 12692, Note_on_c, 0, 50, 54
1, 12717, Note_off_c, 0, 50, 59
1, 12723, Note_off_c, 0, 38, 54
1, 12764, Note_on_c, 0, 51, 71
1, 12768, Note_on_c, 0, 49, 63
1, 12790, Note_off_c, 0, 51, 66
1, 12797, Note_off_c, 0, 49, 65
1, 12863, Note_on_c, 0, 50, 69
1, 12870, Note_on_c, 0, 38, 51
1, 12894, Note_off_c, 0, 50, 65
1, 12904, Note_off_c, 0, 38, 61
1, 12953, Note_on_c, 0, 52, 76
1, 12960, Note_on_c, 0, 48, 68
1, 12982, Note_off_c, 0, 52, 69
1, 12988, Note_off_c, 0, 48, 66
1, 13065, Note_on_c, 0, 50, 58
1, 13068, Note_on_c, 0, 38, 42
1, 13100, Note_off_c, 0, 50, 65
1, 13107, Note_off_c, 0, 38, 54
1, 13152, Note_on_c, 0, 52, 59
1, 13152, Note_on_c, 0, 48, 47
1, 13179, Note_off_c, 0, 48, 59
1, 13181, Note_off_c, 0, 52, 66
1, 13274, Note_on_c, 0, 50, 52
1, 13275, Note_on_c, 0, 38, 45
1, 13307, Note_off_c, 0, 38, 58
1, 13309, Note_off_c, 0, 50, 63
1, 13350, Note_on_c, 0, 52, 55
1, 13353, Note_on_c, 0, 48, 53
1, 13388, Note_off_c, 0, 48, 64
1, 13389, Note_off_c, 0, 52, 65
1, 13465, Note_on_c, 0, 50, 55
1, 13468, Note_on_c, 0, 38, 44
1, 13508, Note_off_c, 0, 50, 60
1, 13509, Note_off_c, 0, 38, 60
1, 13553, Note_on_c, 0, 52, 60
1, 13555, Note_on_c, 0, 48, 50
1, 13581, Note_off_c, 0, 48, 61
1, 13584, Note_off_c, 0, 52, 65
1, 13665, Note_on_c, 0, 50, 55
1, 13672, Note_on_c, 0, 38, 42
1, 13702, Note_off_c, 0, 50, 64
1, 13706, Note_off_c, 0, 38, 55
1, 13743, Note_on_c, 0, 48, 56
1, 13744, Note_on_c, 0, 52, 56
1, 13774, Note_off_c, 0, 48, 65
1, 13775, Note_off_c, 0, 52, 66
1, 13856, Note_on_c, 0, 50, 57
1, 13861, Note_on_c, 0, 38, 41
1, 13893, Note_off_c, 0, 50, 63
1, 13898, Note_off_c, 0, 38, 55
1, 13933, Note_on_c, 0, 52, 58
1, 13941, Note_on_c, 0, 48, 51
1, 13969, Note_off_c, 0, 52, 67
1, 13973, Note_off_c, 0, 48, 59
1, 14049, Note_on_c, 0, 50, 59
1, 14052, Note_on_c, 0, 38, 48
1, 14082, Note_off_c, 0, 50, 64
1, 14091, Note_off_c, 0, 38, 62
1, 14135, Note_on_c, 0, 48, 64
1, 14138, Note_on_c, 0, 52, 64
1, 14166, Note_off_c, 0, 48, 64
1, 14173, Note_off_c, 0, 52, 66
1, 14233, Note_on_c, 0, 50, 61
1, 14241, Note_on_c, 0, 38, 50
1, 14273, Note_off_c, 0, 50, 62
1, 14276, Note_off_c, 0, 38, 62
1, 14327, Note_on_c, 0, 52, 66
1, 14332, Note_on_c, 0, 48, 60
1, 14360, Note_off_c, 0, 52, 64
1, 14360, Control_c, 0, 64, 41
1, 14363, Note_off_c, 0, 48, 65
1, 14375, Control_c, 0, 64, 57
1, 14389, Control_c, 0, 64, 64
1, 14404, Control_c, 0, 64, 70
1, 14417, Note_on_c, 0, 50, 73
1, 14419, Control_c, 0, 64, 79
1, 14419, Control_c, 0, 67, 110
1, 14430, Note_on_c, 0, 38, 51
1, 14434, Control_c, 0, 64, 94
1, 14434, Control_c, 0, 67, 77
1, 14449, Control_c, 0, 64, 127
1, 14449, Control_c, 0, 67, 29
1, 14450, Note_off_c, 0, 50, 65
1, 14460, Note_off_c, 0, 38, 53
1, 14464, Control_c, 0, 67, 0
1, 14494, Control_c, 0, 64, 88
1, 14509, Note_on_c, 0, 52, 80
1, 14509, Control_c, 0, 64, 64
1, 14510, Note_on_c, 0, 55, 84
1, 14511, Note_on_c, 0, 48, 84
1, 14523, Control_c, 0, 64, 0
1, 14535, Note_off_c, 0, 48, 69
1, 14538, Note_off_c, 0, 55, 66
1, 14539, Note_off_c, 0, 52, 68
1, 14607, Note_on_c, 0, 50, 74
1, 14618, Note_on_c, 0, 38, 53
1, 14642, Note_off_c, 0, 50, 66
1, 14655, Note_off_c, 0, 38, 63
1, 14672, Control_c, 0, 67, 11
1, 14687, Control_c, 0, 67, 26
1, 14702, Control_c, 0, 67, 36
1, 14724, Control_c, 0, 67, 44
1, 14729, Note_on_c, 0, 55, 57
1, 14732, Note_on_c, 0, 48, 61
1, 14732, Note_on_c, 0, 52, 57
1, 14739, Control_c, 0, 67, 55
1, 14753, Control_c, 0, 67, 72
1, 14759, Note_off_c, 0, 55, 64
1, 14762, Note_off_c, 0, 48, 65
1, 14762, Note_off_c, 0, 52, 67
1, 14768, Control_c, 0, 67, 95
1, 14783, Control_c, 0, 67, 114
1, 14798, Control_c, 0, 67, 127
1, 14828, Note_on_c, 0, 50, 59
1, 14839, Note_on_c, 0, 38, 45
1, 14863, Note_off_c, 0, 50, 63
1, 14872, Note_off_c, 0, 38, 52
1, 14931, Note_on_c, 0, 55, 63
1, 14935, Note_on_c, 0, 48, 57
1, 14937, Note_on_c, 0, 52, 42
1, 14963, Note_off_c, 0, 48, 63
1, 14964, Note_off_c, 0, 52, 63
1, 14965, Note_off_c, 0, 55, 64
1, 15027, Note_on_c, 0, 50, 66
1, 15033, Note_on_c, 0, 38, 42
1, 15066, Note_off_c, 0, 38, 55
1, 15067, Note_off_c, 0, 50, 63
1, 15139, Note_on_c, 0, 55, 60
1, 15140, Note_on_c, 0, 48, 55
1, 15141, Note_on_c, 0, 52, 39
1, 15164, Note_off_c, 0, 48, 61
1, 15169, Note_off_c, 0, 52, 55
1, 15170, Note_off_c, 0, 55, 64
1, 15239, Note_on_c, 0, 50, 57
1, 15241, Note_on_c, 0, 38, 44
1, 15274, Note_off_c, 0, 38, 56
1, 15274, Note_off_c, 0, 50, 63
1, 15328, Note_on_c, 0, 52, 55
1, 15334, Note_on_c, 0, 48, 55
1, 15341, Note_on_c, 0, 55, 60
1, 15362, Note_off_c, 0, 52, 65
1, 15364, Note_off_c, 0, 48, 63
1, 15372, Note_off_c, 0, 55, 65
1, 15421, Note_on_c, 0, 50, 61
1, 15430, Note_on_c, 0, 38, 46
1, 15476, Note_off_c, 0, 50, 59
1, 15478, Note_off_c, 0, 38, 58
1, 15537, Note_on_c, 0, 55, 63
1, 15540, Note_on_c, 0, 52, 46
1, 15546, Note_on_c, 0, 48, 50
1, 15570, Note_off_c, 0, 48, 59
1, 15571, Note_off_c, 0, 52, 65
1, 15576, Note_off_c, 0, 55, 65
1, 15638, Note_on_c, 0, 50, 53
1, 15641, Note_on_c, 0, 38, 44
1, 15669, Note_off_c, 0, 50, 63
1, 15677, Note_off_c, 0, 38, 54
1, 15736, Note_on_c, 0, 52, 55
1, 15738, Note_on_c, 0, 48, 55
1, 15741, Note_on_c, 0, 55, 64
1, 15771, Note_off_c, 0, 48, 63
1, 15772, Note_off_c, 0, 52, 64
1, 15781, Note_off_c, 0, 55, 63
1, 15833, Note_on_c, 0, 38, 46
1, 15834, Note_on_c, 0, 50, 52
1, 15873, Note_off_c, 0, 38, 61
1, 15873, Note_off_c, 0, 50, 61
1, 15928, Note_on_c, 0, 53, 62
1, 15936, Note_on_c, 0, 50, 59
1, 15963, Note_off_c, 0, 53, 64
1, 15965, Note_off_c, 0, 50, 65
1, 16019, Note_on_c, 0, 38, 49
1, 16025, Note_on_c, 0, 50, 44
1, 16029, Note_on_c, 0, 52, 74
1, 16047, Note_off_c, 0, 38, 58
1, 16053, Note_off_c, 0, 50, 53
1, 16059, Note_off_c, 0, 52, 68
1, 16118, Note_on_c, 0, 50, 84
1, 16154, Note_off_c, 0, 50, 65
1, 16236, Note_on_c, 0, 50, 52
1, 16239, Note_on_c, 0, 38, 51
1, 16268, Note_off_c, 0, 50, 65
1, 16280, Note_off_c, 0, 38, 60
1, 16345, Note_on_c, 0, 50, 67
1, 16374, Note_off_c, 0, 50, 66
1, 16445, Note_on_c, 0, 50, 60
1, 16451, Note_on_c, 0, 38, 51
1, 16481, Note_off_c, 0, 50, 61
1, 16490, Note_off_c, 0, 38, 60
1, 16533, Note_on_c, 0, 50, 68
1, 16562, Note_off_c, 0, 50, 66
1, 16638, Note_on_c, 0, 50, 60
1, 16650, Note_on_c, 0, 38, 48
1, 16679, Note_off_c, 0, 50, 63
1, 16690, Note_off_c, 0, 38, 62
1, 16738, Note_on_c, 0, 50, 73
1, 16765, Note_off_c, 0, 50, 65
1, 16837, Note_on_c, 0, 50, 60
1, 16852, Note_on_c, 0, 38, 47
1, 16881, Note_off_c, 0, 50, 62
1, 16890, Note_off_c, 0, 38, 61
1, 16939, Note_on_c, 0, 50, 68
1, 16977, Note_off_c, 0, 50, 65
1, 17047, Note_on_c, 0, 50, 60
1, 17052, Note_on_c, 0, 38, 51
1, 17087, Note_off_c, 0, 50, 61
1, 17095, Note_off_c, 0, 38, 61
1, 17141, Note_on_c, 0, 50, 71
1, 17171, Note_off_c, 0, 50, 65
1, 17244, Note_on_c, 0, 50, 58
1, 17263, Note_on_c, 0, 38, 37
1, 17289, Note_off_c, 0, 50, 59
1, 17302, Note_off_c, 0, 38, 53
1, 17337, Note_on_c, 0, 50, 67
1, 17364, Note_off_c, 0, 50, 66
1, 17445, Note_on_c, 0, 50, 50
1, 17451, Note_on_c, 0, 38, 47
1, 17482, Note_off_c, 0, 50, 63
1, 17493, Note_off_c, 0, 38, 60
1, 17545, Note_on_c, 0, 50, 62
1, 17575, Note_off_c, 0, 50, 65
1, 17647, Note_on_c, 0, 38, 45
1, 17654, Note_on_c, 0, 50, 54
1, 17688, Note_off_c, 0, 50, 62
1, 17689, Note_off_c, 0, 38, 60
1, 17747, Note_on_c, 0, 50, 70
1, 17778, Note_off_c, 0, 50, 64
1, 17852, Note_on_c, 0, 50, 57
1, 17856, Note_on_c, 0, 38, 48
1, 17889, Note_off_c, 0, 50, 63
1, 17898, Note_off_c, 0, 38, 59
1, 17962, Note_on_c, 0, 50, 61
1, 17989, Note_off_c, 0, 50, 63
1, 18063, Note_on_c, 0, 38, 45
1, 18081, Note_on_c, 0, 50, 40
1, 18100, Note_off_c, 0, 38, 60
1, 18112, Note_off_c, 0, 50, 50
1, 18159, Note_on_c, 0, 50, 63
1, 18187, Note_off_c, 0, 50, 65
1, 18262, Note_on_c, 0, 50, 58
1, 18274, Note_on_c, 0, 38, 45
1, 18299, Note_off_c, 0, 50, 62
1, 18312, Note_off_c, 0, 38, 59
1, 18369, Note_on_c, 0, 50, 62
1, 18400, Note_off_c, 0, 50, 65
1, 18474, Note_on_c, 0, 38, 48
1, 18490, Note_on_c, 0, 50, 46
1, 18512, Note_off_c, 0, 38, 62
1, 18518, Note_off_c, 0, 50, 55
1, 18580, Note_on_c, 0, 50, 61
1, 18603, Note_off_c, 0, 50, 62
1, 18676, Note_on_c, 0, 38, 49
1, 18688, Note_on_c, 0, 50, 49
1, 18714, Note_off_c, 0, 38, 60
1, 18715, Note_off_c, 0, 50, 56
1, 18786, Note_on_c, 0, 50, 59
1, 18809, Note_off_c, 0, 50, 59
1, 18878, Note_on_c, 0, 38, 47
1, 18896, Note_on_c, 0, 50, 39
1, 18912, Note_off_c, 0, 38, 59
1, 18928, Note_off_c, 0, 50, 47
1, 18988, Note_on_c, 0, 50, 53
1, 19013, Note_off_c, 0, 50, 62
1, 19079, Note_on_c, 0, 38, 55
1, 19084, Note_on_c, 0, 50, 59
1, 19111, Note_off_c, 0, 50, 63
1, 19113, Note_off_c, 0, 38, 63
1, 19177, Note_on_c, 0, 50, 73
1, 19214, Note_off_c, 0, 50, 65
1, 19215, Control_c, 0, 67, 115
1, 19230, Control_c, 0, 67, 103
1, 19245, Control_c, 0, 67, 90
1, 19260, Control_c, 0, 67, 80
1, 19275, Control_c, 0, 67, 71
1, 19280, Note_on_c, 0, 53, 67
1, 19290, Control_c, 0, 67, 63
1, 19305, Control_c, 0, 67, 56
1, 19311, Note_off_c, 0, 53, 64
1, 19319, Control_c, 0, 67, 49
1, 19334, Control_c, 0, 67, 43
1, 19349, Control_c, 0, 67, 40
1, 19364, Control_c, 0, 67, 36
1, 19377, Note_on_c, 0, 57, 69
1, 19379, Control_c, 0, 67, 35
1, 19380, Note_on_c, 0, 58, 77
1, 19393, Control_c, 0, 67, 33
1, 19406, Note_off_c, 0, 58, 69
1, 19409, Control_c, 0, 67, 31
1, 19409, Note_off_c, 0, 57, 65
1, 19424, Control_c, 0, 67, 29
1, 19439, Control_c, 0, 67, 29
1, 19454, Control_c, 0, 67, 28
1, 19491, Note_on_c, 0, 57, 63
1, 19513, Control_c, 0, 67, 28
1, 19518, Note_off_c, 0, 57, 64
1, 19557, Control_c, 0, 67, 27
1, 19572, Note_on_c, 0, 59, 73
1, 19582, Note_on_c, 0, 53, 71
1, 19587, Control_c, 0, 67, 26
1, 19597, Note_off_c, 0, 59, 68
1, 19602, Control_c, 0, 67, 26
1, 19616, Note_off_c, 0, 53, 66
1, 19631, Control_c, 0, 67, 25
1, 19646, Control_c, 0, 67, 24
1, 19661, Control_c, 0, 67, 24
1, 19675, Note_on_c, 0, 57, 58
1, 19675, Control_c, 0, 67, 23
1, 19690, Control_c, 0, 67, 22
1, 19705, Control_c, 0, 67, 20
1, 19715, Note_off_c, 0, 57, 65
1, 19720, Control_c, 0, 67, 19
1, 19734, Control_c, 0, 67, 17
1, 19749, Control_c, 0, 67, 16
1, 19764, Control_c, 0, 67, 15
1, 19779, Note_on_c, 0, 49, 58
1, 19779, Control_c, 0, 67, 14
1, 19785, Note_on_c, 0, 50, 66
1, 19794, Control_c, 0, 67, 14
1, 19808, Note_off_c, 0, 49, 62
1, 19812, Note_off_c, 0, 50, 65
1, 19838, Control_c, 0, 67, 13
1, 19871, Note_on_c, 0, 50, 75
1, 19898, Control_c, 0, 67, 13
1, 19903, Note_off_c, 0, 50, 67
1, 19964, Control_c, 0, 67, 12
1, 19978, Note_on_c, 0, 50, 71
1, 19979, Note_on_c, 0, 48, 67
1, 20010, Note_off_c, 0, 50, 65
1, 20012, Note_off_c, 0, 48, 63
1, 20023, Control_c, 0, 67, 11
1, 20074, Note_on_c, 0, 53, 69
1, 20109, Note_off_c, 0, 53, 64
1, 20170, Note_on_c, 0, 57, 72
1, 20178, Note_on_c, 0, 59, 78
1, 20202, Note_off_c, 0, 59, 70
1, 20210, Note_off_c, 0, 57, 62
1, 20274, Note_on_c, 0, 57, 65
1, 20303, Note_off_c, 0, 57, 65
1, 20365, Control_c, 0, 67, 12
1, 20378, Note_on_c, 0, 60, 75
1, 20384, Note_on_c, 0, 53, 66
1, 20402, Note_off_c, 0, 60, 70
1, 20419, Note_off_c, 0, 53, 63
1, 20468, Note_on_c, 0, 57, 56
1, 20506, Note_off_c, 0, 57, 65
1, 20528, Control_c, 0, 67, 11
1, 20569, Note_on_c, 0, 47, 75
1, 20581, Note_on_c, 0, 50, 62
1, 20599, Note_off_c, 0, 47, 68
1, 20610, Note_off_c, 0, 50, 66
1, 20661, Control_c, 0, 67, 11
1, 20672, Note_on_c, 0, 50, 75
1, 20716, Note_off_c, 0, 50, 64
1, 20779, Note_on_c, 0, 61, 83
1, 20780, Note_on_c, 0, 50, 61
1, 20803, Note_off_c, 0, 61, 67
1, 20822, Note_off_c, 0, 50, 65
1, 20846, Control_c, 0, 67, 10
1, 20876, Control_c, 0, 67, 9
1, 20878, Note_on_c, 0, 53, 65
1, 20917, Note_off_c, 0, 53, 63
1, 20972, Note_on_c, 0, 57, 68
1, 20980, Note_on_c, 0, 62, 79
1, 20994, Control_c, 0, 67, 9
1, 21007, Note_off_c, 0, 62, 70
1, 21011, Note_off_c, 0, 57, 64
1, 21040, Control_c, 0, 67, 8
1, 21069, Control_c, 0, 67, 8
1, 21076, Note_on_c, 0, 57, 62
1, 21084, Control_c, 0, 67, 0
1, 21104, Note_off_c, 0, 57, 66
1, 21178, Note_on_c, 0, 46, 73
1, 21186, Note_on_c, 0, 53, 70
1, 21215, Note_off_c, 0, 53, 65
1, 21222, Note_off_c, 0, 46, 62
1, 21283, Note_on_c, 0, 57, 68
1, 21313, Note_off_c, 0, 57, 65
1, 21387, Note_on_c, 0, 50, 69
1, 21392, Note_on_c, 0, 45, 79
1, 21415, Note_off_c, 0, 50, 66
1, 21430, Note_off_c, 0, 45, 64
1, 21481, Note_on_c, 0, 50, 76
1, 21517, Note_off_c, 0, 50, 65
1, 21586, Note_on_c, 0, 50, 75
1, 21597, Note_on_c, 0, 63, 93
1, 21624, Note_off_c, 0, 63, 65
1, 21634, Note_off_c, 0, 50, 60
1, 21691, Note_on_c, 0, 53, 72
1, 21734, Note_off_c, 0, 53, 60
1, 21794, Note_on_c, 0, 57, 70
1, 21828, Note_off_c, 0, 57, 65
1, 21832, Note_on_c, 0, 44, 41
1, 21866, Note_off_c, 0, 44, 46
1, 21894, Note_on_c, 0, 57, 73
1, 21929, Note_off_c, 0, 57, 67
1, 21990, Note_on_c, 0, 64, 87
1, 22001, Note_on_c, 0, 53, 77
1, 22012, Note_off_c, 0, 64, 69
1, 22037, Note_off_c, 0, 53, 62
1, 22091, Note_on_c, 0, 57, 72
1, 22124, Note_off_c, 0, 57, 66
1, 22188, Control_c, 0, 64, 26
1, 22195, Note_on_c, 0, 43, 77
1, 22195, Note_on_c, 0, 50, 69
1, 22210, Control_c, 0, 64, 56
1, 22225, Control_c, 0, 64, 66
1, 22231, Note_off_c, 0, 50, 64
1, 22240, Control_c, 0, 64, 74
1, 22255, Control_c, 0, 64, 90
1, 22270, Control_c, 0, 64, 127
1, 22287, Note_on_c, 0, 50, 77
1, 22313, Note_off_c, 0, 50, 66
1, 22343, Control_c, 0, 64, 109
1, 22358, Control_c, 0, 64, 74
1, 22373, Control_c, 0, 64, 41
1, 22388, Control_c, 0, 64, 0
1, 22402, Control_c, 0, 67, 20
1, 22405, Note_off_c, 0, 43, 63
1, 22411, Note_on_c, 0, 55, 70
1, 22417, Control_c, 0, 67, 92
1, 22432, Control_c, 0, 67, 127
1, 22441, Note_off_c, 0, 55, 67
1, 22514, Note_on_c, 0, 58, 62
1, 22546, Note_off_c, 0, 58, 65
1, 22611, Note_on_c, 0, 62, 68
1, 22626, Note_on_c, 0, 63, 68
1, 22643, Note_off_c, 0, 62, 63
1, 22655, Note_off_c, 0, 63, 64
1, 22716, Note_on_c, 0, 62, 54
1, 22748, Note_off_c, 0, 62, 64
1, 22812, Note_on_c, 0, 58, 71
1, 22818, Note_on_c, 0, 64, 68
1, 22846, Note_off_c, 0, 64, 68
1, 22855, Note_off_c, 0, 58, 58
1, 22902, Note_on_c, 0, 62, 61
1, 22940, Note_off_c, 0, 62, 66
1, 23014, Note_on_c, 0, 55, 72
1, 23019, Note_on_c, 0, 54, 69
1, 23048, Note_off_c, 0, 55, 67
1, 23063, Note_off_c, 0, 54, 60
1, 23123, Note_on_c, 0, 55, 69
1, 23150, Note_off_c, 0, 55, 66
1, 23212, Control_c, 0, 67, 122
1, 23216, Note_on_c, 0, 55, 69
1, 23219, Note_on_c, 0, 53, 68
1, 23226, Control_c, 0, 67, 117
1, 23241, Control_c, 0, 67, 110
1, 23253, Note_off_c, 0, 53, 64
1, 23256, Control_c, 0, 67, 103
1, 23261, Note_off_c, 0, 55, 60
1, 23271, Control_c, 0, 67, 98
1, 23286, Control_c, 0, 67, 92
1, 23300, Control_c, 0, 67, 89
1, 23315, Control_c, 0, 67, 87
1, 23317, Note_on_c, 0, 58, 73
1, 23330, Control_c, 0, 67, 85
1, 23345, Control_c, 0, 67, 83
1, 23351, Note_off_c, 0, 58, 65
1, 23359, Control_c, 0, 67, 82
1, 23374, Control_c, 0, 67, 80
1, 23389, Control_c, 0, 67, 78
1, 23405, Control_c, 0, 67, 75
1, 23418, Note_on_c, 0, 62, 70
1, 23420, Note_on_c, 0, 64, 75
1, 23420, Control_c, 0, 67, 72
1, 23435, Control_c, 0, 67, 66
1, 23444, Note_off_c, 0, 64, 69
1, 23449, Control_c, 0, 67, 61
1, 23454, Note_off_c, 0, 62, 63
1, 23464, Control_c, 0, 67, 55
1, 23479, Control_c, 0, 67, 50
1, 23494, Control_c, 0, 67, 45
1, 23509, Control_c, 0, 67, 41
1, 23518, Note_on_c, 0, 62, 63
1, 23523, Control_c, 0, 67, 37
1, 23538, Control_c, 0, 67, 32
1, 23550, Note_off_c, 0, 62, 65
1, 23553, Control_c, 0, 67, 26
1, 23568, Control_c, 0, 67, 21
1, 23582, Control_c, 0, 67, 14
1, 23597, Control_c, 0, 67, 10
1, 23612, Control_c, 0, 67, 0
1, 23620, Note_on_c, 0, 65, 76
1, 23626, Note_on_c, 0, 58, 71
1, 23642, Note_off_c, 0, 65, 69
1, 23666, Note_off_c, 0, 58, 59
1, 23728, Note_on_c, 0, 62, 62
1, 23763, Note_off_c, 0, 62, 64
1, 23819, Note_on_c, 0, 52, 77
1, 23828, Note_on_c, 0, 55, 70
1, 23845, Note_off_c, 0, 52, 70
1, 23859, Note_off_c, 0, 55, 67
1, 23932, Note_on_c, 0, 55, 74
1, 23959, Note_off_c, 0, 55, 66
1, 24027, Note_on_c, 0, 55, 70
1, 24029, Note_on_c, 0, 66, 85
1, 24050, Note_off_c, 0, 66, 69
1, 24071, Note_off_c, 0, 55, 61
1, 24131, Note_on_c, 0, 58, 71
1, 24176, Note_off_c, 0, 58, 60
1, 24232, Note_on_c, 0, 67, 89
1, 24238, Note_on_c, 0, 62, 71
1, 24252, Note_off_c, 0, 67, 69
1, 24277, Note_off_c, 0, 62, 62
1, 24341, Note_on_c, 0, 62, 62
1, 24371, Note_off_c, 0, 62, 65
1, 24434, Note_on_c, 0, 51, 75
1, 24441, Note_on_c, 0, 58, 74
1, 24476, Note_off_c, 0, 51, 60
1, 24483, Note_off_c, 0, 58, 63
1, 24545, Note_on_c, 0, 62, 62
1, 24578, Note_off_c, 0, 62, 66
1, 24647, Note_on_c, 0, 55, 70
1, 24650, Note_on_c, 0, 50, 78
1, 24679, Note_off_c, 0, 55, 66
1, 24691, Note_off_c, 0, 50, 62
1, 24754, Note_on_c, 0, 55, 71
1, 24782, Note_off_c, 0, 55, 65
1, 24847, Note_on_c, 0, 55, 75
1, 24849, Note_on_c, 0, 68, 89
1, 24877, Note_off_c, 0, 68, 65
1, 24897, Note_off_c, 0, 55, 63
1, 24952, Note_on_c, 0, 58, 74
1, 24988, Note_off_c, 0, 58, 65
1, 25052, Note_on_c, 0, 62, 73
1, 25057, Note_on_c, 0, 49, 77
1, 25085, Note_off_c, 0, 62, 66
1, 25091, Note_off_c, 0, 49, 67
1, 25148, Note_on_c, 0, 62, 69
1, 25176, Note_off_c, 0, 62, 67
1, 25259, Note_on_c, 0, 69, 93
1, 25264, Note_on_c, 0, 58, 77
1, 25282, Note_off_c, 0, 69, 67
1, 25288, Note_on_c, 0, 67, 45
1, 25289, Note_off_c, 0, 67, 127
1, 25309, Note_off_c, 0, 58, 59
1, 25361, Note_on_c, 0, 62, 65
1, 25388, Note_off_c, 0, 62, 66
1, 25461, Note_on_c, 0, 55, 77
1, 25470, Note_on_c, 0, 48, 79
1, 25472, Control_c, 0, 64, 27
1, 25487, Control_c, 0, 64, 57
1, 25493, Note_off_c, 0, 55, 66
1, 25502, Control_c, 0, 64, 67
1, 25517, Control_c, 0, 64, 79
1, 25532, Control_c, 0, 64, 127
1, 25559, Note_on_c, 0, 55, 81
1, 25592, Note_off_c, 0, 55, 64
1, 25606, Control_c, 0, 64, 89
1, 25620, Control_c, 0, 64, 69
1, 25635, Control_c, 0, 64, 46
1, 25650, Control_c, 0, 64, 0
1, 25652, Note_off_c, 0, 48, 62
1, 25670, Note_on_c, 0, 55, 75
1, 25698, Note_off_c, 0, 55, 66
1, 25755, Note_on_c, 0, 56, 74
1, 25768, Control_c, 0, 67, 21
1, 25783, Control_c, 0, 67, 51
1, 25799, Control_c, 0, 67, 77
1, 25804, Note_off_c, 0, 56, 57
1, 25814, Control_c, 0, 67, 100
1, 25829, Control_c, 0, 67, 120
1, 25843, Control_c, 0, 67, 127
1, 25859, Note_on_c, 0, 58, 66
1, 25875, Note_on_c, 0, 63, 65
1, 25884, Note_on_c, 0, 57, 58
1, 25905, Note_off_c, 0, 63, 65
1, 25921, Note_off_c, 0, 58, 65
1, 25928, Note_off_c, 0, 57, 62
1, 25984, Control_c, 0, 67, 125
1, 25999, Control_c, 0, 67, 120
1, 26014, Control_c, 0, 67, 114
1, 26029, Control_c, 0, 67, 99
1, 26044, Control_c, 0, 67, 76
1, 26057, Note_on_c, 0, 57, 75
1, 26058, Control_c, 0, 67, 43
1, 26063, Note_on_c, 0, 43, 70
1, 26073, Control_c, 0, 67, 0
1, 26097, Note_off_c, 0, 57, 62
1, 26106, Note_off_c, 0, 43, 63
1, 26166, Note_on_c, 0, 58, 63
1, 26215, Note_off_c, 0, 58, 62
1, 26263, Note_on_c, 0, 69, 89
1, 26281, Note_off_c, 0, 69, 74
1, 26283, Note_on_c, 0, 59, 61
1, 26321, Note_off_c, 0, 59, 63
1, 26369, Note_on_c, 0, 58, 58
1, 26407, Note_off_c, 0, 58, 61
1, 26460, Note_on_c, 0, 37, 80
1, 26462, Note_on_c, 0, 59, 69
1, 26492, Note_off_c, 0, 37, 66
1, 26504, Note_off_c, 0, 59, 61
1, 26555, Note_on_c, 0, 60, 57
1, 26593, Note_off_c, 0, 60, 62
1, 26632, Note_on_c, 0, 62, 60
1, 26656, Note_on_c, 0, 64, 88
1, 26674, Note_off_c, 0, 64, 72
1, 26678, Note_on_c, 0, 61, 65
1, 26691, Note_off_c, 0, 62, 53
1, 26736, Note_off_c, 0, 61, 64
1, 26765, Note_on_c, 0, 60, 70
1, 26803, Note_off_c, 0, 60, 64
1, 26873, Note_on_c, 0, 43, 75
1, 26876, Note_on_c, 0, 61, 74
1, 26917, Note_off_c, 0, 43, 62
1, 26930, Note_off_c, 0, 61, 60
1, 26975, Note_on_c, 0, 62, 62
1, 27004, Note_off_c, 0, 62, 64
1, 27065, Note_on_c, 0, 69, 89
1, 27084, Note_off_c, 0, 69, 72
1, 27086, Note_on_c, 0, 63, 69
1, 27140, Note_off_c, 0, 63, 64
1, 27182, Note_on_c, 0, 64, 68
1, 27236, Note_off_c, 0, 64, 61
1, 27256, Note_on_c, 0, 37, 78
1, 27270, Note_on_c, 0, 65, 64
1, 27286, Note_off_c, 0, 37, 68
1, 27359, Note_off_c, 0, 65, 46
1, 27374, Note_on_c, 0, 66, 69
1, 27451, Note_off_c, 0, 66, 60
1, 27471, Note_on_c, 0, 67, 74
1, 27480, Note_on_c, 0, 72, 80
1, 27481, Note_on_c, 0, 68, 75
1, 27499, Note_off_c, 0, 72, 71
1, 27509, Note_off_c, 0, 68, 59
1, 27559, Note_on_c, 0, 66, 76
1, 27598, Note_off_c, 0, 66, 59
1, 27598, Note_off_c, 0, 67, 61
1, 27669, Note_on_c, 0, 66, 86
1, 27676, Note_on_c, 0, 76, 77
1, 27677, Note_on_c, 0, 80, 94
1, 27690, Note_on_c, 0, 68, 62
1, 27733, Control_c, 0, 64, 20
1, 27748, Control_c, 0, 64, 49
1, 27763, Control_c, 0, 64, 62
1, 27765, Note_on_c, 0, 65, 79
1, 27767, Note_off_c, 0, 66, 64
1, 27777, Control_c, 0, 64, 70
1, 27792, Control_c, 0, 64, 79
1, 27807, Control_c, 0, 64, 98
1, 27817, Note_off_c, 0, 65, 63
1, 27821, Control_c, 0, 64, 127
1, 27844, Note_off_c, 0, 68, 54
1, 27869, Note_off_c, 0, 80, 59
1, 27872, Note_off_c, 0, 76, 61
1, 27893, Note_on_c, 0, 65, 82
1, 27943, Note_off_c, 0, 65, 59
1, 27976, Note_on_c, 0, 64, 81
1, 27978, Note_on_c, 0, 79, 89
1, 27985, Note_on_c, 0, 68, 66
1, 28000, Note_on_c, 0, 75, 68
1, 28012, Note_off_c, 0, 79, 63
1, 28022, Note_off_c, 0, 64, 64
1, 28027, Note_off_c, 0, 75, 67
1, 28059, Control_c, 0, 64, 90
1, 28062, Note_off_c, 0, 68, 0
1, 28074, Control_c, 0, 64, 69
1, 28077, Note_on_c, 0, 78, 103
1, 28078, Note_on_c, 0, 64, 75
1, 28085, Note_on_c, 0, 74, 75
1, 28088, Control_c, 0, 64, 49
1, 28098, Poly_aftertouch_c, 0, 68, 127
1, 28103, Control_c, 0, 64, 0
1, 28131, Note_off_c, 0, 78, 61
1, 28144, Poly_aftertouch_c, 0, 68, 0
1, 28161, Note_off_c, 0, 64, 62
1, 28174, Note_on_c, 0, 63, 72
1, 28199, Note_off_c, 0, 74, 54
1, 28213, Note_off_c, 0, 63, 61
1, 28301, Note_on_c, 0, 72, 65
1, 28302, Note_on_c, 0, 63, 74
1, 28303, Note_on_c, 0, 80, 71
1, 28318, Note_on_c, 0, 68, 65
1, 28331, Note_off_c, 0, 80, 64
1, 28343, Note_off_c, 0, 72, 65
1, 28360, Note_off_c, 0, 63, 63
1, 28370, Note_off_c, 0, 68, 57
1, 28383, Note_on_c, 0, 62, 68
1, 28417, Note_off_c, 0, 62, 61
1, 28495, Note_on_c, 0, 68, 63
1, 28500, Note_on_c, 0, 70, 58
1, 28506, Note_on_c, 0, 62, 69
1, 28511, Note_on_c, 0, 77, 42
1, 28515, Note_on_c, 0, 76, 52
1, 28535, Note_off_c, 0, 76, 60
1, 28536, Note_off_c, 0, 77, 51
1, 28549, Note_off_c, 0, 70, 54
1, 28558, Note_off_c, 0, 68, 51
1, 28566, Note_off_c, 0, 62, 56
1, 28587, Note_on_c, 0, 61, 62
1, 28619, Note_off_c, 0, 61, 63
1, 28696, Note_on_c, 0, 75, 70
1, 28702, Note_on_c, 0, 68, 49
1, 28703, Note_on_c, 0, 61, 69
1, 28705, Note_on_c, 0, 70, 44
1, 28743, Note_off_c, 0, 70, 64
1, 28749, Note_off_c, 0, 75, 50
1, 28751, Note_off_c, 0, 68, 58
1, 28752, Note_off_c, 0, 61, 62
1, 28785, Note_on_c, 0, 60, 58
1, 28828, Note_off_c, 0, 60, 64
1, 28888, Note_on_c, 0, 74, 65
1, 28894, Note_on_c, 0, 58, 68
1, 28898, Note_on_c, 0, 68, 56
1, 28899, Note_on_c, 0, 70, 41
1, 28914, Note_off_c, 0, 74, 64
1, 28927, Note_off_c, 0, 70, 63
1, 28929, Note_off_c, 0, 68, 64
1, 28942, Note_off_c, 0, 58, 62
1, 28987, Note_on_c, 0, 59, 57
1, 29023, Note_off_c, 0, 59, 63
1, 29058, Note_on_c, 0, 61, 65
1, 29090, Note_on_c, 0, 66, 75
1, 29098, Note_on_c, 0, 60, 71
1, 29098, Note_off_c, 0, 61, 63
1, 29115, Note_off_c, 0, 66, 69
1, 29142, Note_off_c, 0, 60, 61
1, 29183, Note_on_c, 0, 59, 67
1, 29221, Note_off_c, 0, 59, 66
1, 29283, Note_on_c, 0, 60, 65
1, 29284, Note_on_c, 0, 46, 77
1, 29316, Note_off_c, 0, 46, 67
1, 29322, Note_off_c, 0, 60, 65
1, 29392, Note_on_c, 0, 61, 66
1, 29445, Note_off_c, 0, 61, 62
1, 29483, Note_on_c, 0, 62, 73
1, 29485, Note_on_c, 0, 72, 78
1, 29509, Note_off_c, 0, 72, 69
1, 29535, Note_off_c, 0, 62, 61
1, 29583, Note_on_c, 0, 61, 71
1, 29641, Note_off_c, 0, 61, 62
1, 29676, Note_on_c, 0, 40, 80
1, 29695, Note_on_c, 0, 62, 78
1, 29722, Note_off_c, 0, 40, 67
1, 29746, Note_off_c, 0, 62, 60
1, 29782, Note_on_c, 0, 63, 70
1, 29833, Note_off_c, 0, 63, 62
1, 29872, Note_on_c, 0, 65, 73
1, 29872, Note_on_c, 0, 67, 99
1, 29896, Note_on_c, 0, 64, 76
1, 29898, Note_off_c, 0, 67, 64
1, 29932, Note_off_c, 0, 65, 62
1, 29976, Note_off_c, 0, 64, 62
1, 29988, Note_on_c, 0, 63, 68
1, 30027, Note_off_c, 0, 63, 60
1, 30072, Note_on_c, 0, 46, 79
1, 30090, Note_on_c, 0, 64, 77
1, 30108, Note_off_c, 0, 46, 65
1, 30140, Note_off_c, 0, 64, 57
1, 30166, Note_on_c, 0, 65, 71
1, 30215, Note_off_c, 0, 65, 60
1, 30275, Note_on_c, 0, 66, 74
1, 30277, Note_on_c, 0, 72, 94
1, 30294, Note_off_c, 0, 72, 72
1, 30332, Note_off_c, 0, 66, 65
1, 30375, Note_on_c, 0, 67, 60
1, 30390, Note_on_c, 0, 65, 39
1, 30420, Note_off_c, 0, 65, 35
1, 30432, Note_off_c, 0, 67, 61
1, 30472, Note_on_c, 0, 68, 73
1, 30481, Note_on_c, 0, 40, 87
1, 30522, Note_off_c, 0, 40, 64
1, 30549, Note_off_c, 0, 68, 57
1, 30560, Note_on_c, 0, 69, 73
1, 30645, Note_off_c, 0, 69, 51
1, 30672, Note_on_c, 0, 70, 88
1, 30683, Note_on_c, 0, 75, 88
1, 30707, Note_off_c, 0, 75, 64
1, 30769, Note_on_c, 0, 69, 76
1, 30815, Note_off_c, 0, 70, 57
1, 30822, Note_off_c, 0, 69, 62
1, 30882, Note_on_c, 0, 83, 100
1, 30886, Note_on_c, 0, 69, 84
1, 30890, Note_on_c, 0, 79, 69
1, 30895, Note_on_c, 0, 71, 70
1, 30927, Note_on_c, 0, 80, 31
1, 30928, Note_off_c, 0, 80, 127
1, 30987, Note_off_c, 0, 69, 61
1, 30987, Note_on_c, 0, 68, 73
1, 30996, Control_c, 0, 64, 30
1, 31011, Control_c, 0, 64, 49
1, 31026, Control_c, 0, 64, 60
1, 31036, Note_off_c, 0, 68, 57
1, 31040, Control_c, 0, 64, 64
1, 31042, Note_off_c, 0, 71, 50
1, 31055, Control_c, 0, 64, 68
1, 31062, Note_off_c, 0, 83, 54
1, 31070, Control_c, 0, 64, 74
1, 31073, Note_off_c, 0, 79, 63
1, 31085, Control_c, 0, 64, 82
1, 31100, Control_c, 0, 64, 95
1, 31100, Note_on_c, 0, 68, 72
1, 31114, Control_c, 0, 64, 127
1, 31154, Note_off_c, 0, 68, 63
1, 31201, Note_on_c, 0, 67, 74
1, 31201, Note_on_c, 0, 82, 80
1, 31237, Note_on_c, 0, 71, 33
1, 31244, Note_off_c, 0, 67, 60
1, 31251, Note_off_c, 0, 82, 64
1, 31255, Note_on_c, 0, 78, 18
1, 31255, Control_c, 0, 64, 88
1, 31270, Control_c, 0, 64, 70
1, 31285, Control_c, 0, 64, 54
1, 31291, Note_on_c, 0, 67, 65
1, 31294, Note_off_c, 0, 71, 0
1, 31297, Note_on_c, 0, 81, 91
1, 31298, Note_off_c, 0, 78, 29
1, 31300, Control_c, 0, 64, 0
1, 31303, Note_on_c, 0, 71, 56
1, 31308, Note_on_c, 0, 77, 72
1, 31351, Note_off_c, 0, 81, 65
1, 31361, Note_off_c, 0, 67, 61
1, 31373, Note_off_c, 0, 77, 55
1, 31379, Note_off_c, 0, 71, 49
1, 31395, Note_on_c, 0, 66, 61
1, 31429, Note_off_c, 0, 66, 64
1, 31506, Note_on_c, 0, 66, 75
1, 31514, Note_on_c, 0, 83, 80
1, 31520, Note_on_c, 0, 75, 66
1, 31541, Note_on_c, 0, 71, 51
1, 31547, Note_off_c, 0, 83, 57
1, 31576, Note_off_c, 0, 71, 60
1, 31583, Note_off_c, 0, 75, 60
1, 31591, Note_off_c, 0, 66, 54
1, 31606, Note_on_c, 0, 65, 61
1, 31638, Note_off_c, 0, 65, 65
1, 31711, Note_on_c, 0, 79, 72
1, 31714, Note_on_c, 0, 65, 67
1, 31717, Note_on_c, 0, 71, 53
1, 31735, Note_on_c, 0, 73, 55
1, 31753, Note_off_c, 0, 79, 63
1, 31773, Note_off_c, 0, 73, 62
1, 31779, Note_off_c, 0, 65, 60
1, 31780, Note_off_c, 0, 71, 59
1, 31802, Note_on_c, 0, 64, 56
1, 31836, Note_off_c, 0, 64, 64
1, 31911, Note_on_c, 0, 78, 68
1, 31914, Note_on_c, 0, 71, 51
1, 31914, Note_on_c, 0, 64, 68
1, 31924, Note_on_c, 0, 73, 53
1, 31968, Note_off_c, 0, 71, 59
1, 31977, Note_off_c, 0, 78, 56
1, 31979, Note_off_c, 0, 73, 61
1, 31986, Note_off_c, 0, 64, 63
1, 32010, Note_on_c, 0, 63, 59
1, 32042, Note_off_c, 0, 63, 65
1, 32114, Note_on_c, 0, 79, 70
1, 32116, Note_on_c, 0, 70, 74
1, 32120, Note_on_c, 0, 62, 75
1, 32130, Note_on_c, 0, 55, 67
1, 32142, Note_off_c, 0, 79, 68
1, 32147, Note_off_c, 0, 70, 64
1, 32153, Note_off_c, 0, 62, 63
1, 32163, Note_off_c, 0, 55, 62
1, 32211, Note_on_c, 0, 58, 71
1, 32251, Note_off_c, 0, 58, 61
1, 32311, Note_on_c, 0, 63, 82
1, 32328, Note_on_c, 0, 62, 60
1, 32335, Note_off_c, 0, 63, 68
1, 32343, Note_on_c, 0, 55, 44
1, 32360, Note_off_c, 0, 62, 65
1, 32366, Note_off_c, 0, 55, 39
1, 32421, Note_on_c, 0, 62, 70
1, 32456, Note_off_c, 0, 62, 65
1, 32514, Note_on_c, 0, 64, 85
1, 32519, Note_on_c, 0, 58, 73
1, 32523, Note_on_c, 0, 54, 75
1, 32535, Note_off_c, 0, 64, 71
1, 32554, Note_off_c, 0, 54, 69
1, 32579, Note_off_c, 0, 58, 61
1, 32611, Note_on_c, 0, 62, 66
1, 32656, Note_off_c, 0, 62, 63
1, 32719, Note_on_c, 0, 55, 74
1, 32725, Note_on_c, 0, 54, 79
1, 32734, Note_on_c, 0, 42, 70
1, 32750, Note_off_c, 0, 54, 69
1, 32755, Note_off_c, 0, 55, 65
1, 32761, Note_off_c, 0, 42, 64
1, 32830, Note_on_c, 0, 55, 67
1, 32858, Note_off_c, 0, 55, 66
1, 32919, Note_on_c, 0, 55, 81
1, 32923, Note_on_c, 0, 41, 76
1, 32923, Note_on_c, 0, 53, 90
1, 32953, Note_off_c, 0, 41, 66
1, 32966, Note_off_c, 0, 53, 66
1, 32970, Note_off_c, 0, 55, 64
1, 33021, Note_on_c, 0, 58, 76
1, 33068, Note_off_c, 0, 58, 62
1, 33121, Note_on_c, 0, 62, 76
1, 33123, Note_on_c, 0, 64, 92
1, 33128, Note_on_c, 0, 54, 83
1, 33151, Note_off_c, 0, 64, 64
1, 33154, Note_off_c, 0, 54, 68
1, 33162, Note_off_c, 0, 62, 62
1, 33222, Note_on_c, 0, 62, 70
1, 33274, Note_off_c, 0, 62, 61
1, 33315, Note_on_c, 0, 65, 89
1, 33318, Note_on_c, 0, 58, 76
1, 33322, Note_on_c, 0, 53, 81
1, 33334, Note_off_c, 0, 65, 69
1, 33354, Note_off_c, 0, 53, 66
1, 33388, Note_off_c, 0, 58, 63
1, 33412, Note_on_c, 0, 62, 72
1, 33464, Note_off_c, 0, 62, 61
1, 33501, Control_c, 0, 64, 30
1, 33515, Control_c, 0, 64, 57
1, 33519, Note_on_c, 0, 52, 91
1, 33524, Note_on_c, 0, 55, 80
1, 33528, Note_on_c, 0, 40, 67
1, 33530, Control_c, 0, 64, 65
1, 33548, Note_off_c, 0, 52, 68
1, 33553, Note_off_c, 0, 40, 60
1, 33560, Control_c, 0, 64, 61
1, 33569, Note_off_c, 0, 55, 62
1, 33575, Control_c, 0, 64, 47
1, 33589, Control_c, 0, 64, 0
1, 33628, Note_on_c, 0, 55, 77
1, 33677, Note_off_c, 0, 55, 63
1, 33724, Note_on_c, 0, 66, 89
1, 33729, Note_on_c, 0, 55, 77
1, 33751, Note_on_c, 0, 60, 48
1, 33754, Note_on_c, 0, 63, 35
1, 33754, Note_off_c, 0, 66, 59
1, 33774, Note_off_c, 0, 60, 57
1, 33779, Note_off_c, 0, 55, 63
1, 33788, Note_off_c, 0, 63, 49
1, 33826, Note_on_c, 0, 58, 79
1, 33863, Note_off_c, 0, 58, 64
1, 33927, Note_on_c, 0, 63, 77
1, 33929, Note_on_c, 0, 62, 82
1, 33931, Note_on_c, 0, 67, 75
1, 33933, Note_on_c, 0, 57, 77
1, 33953, Note_off_c, 0, 67, 69
1, 33956, Note_off_c, 0, 63, 65
1, 33963, Note_off_c, 0, 57, 68
1, 33967, Note_off_c, 0, 62, 61
1, 34024, Note_on_c, 0, 62, 69
1, 34057, Note_off_c, 0, 62, 67
1, 34123, Note_on_c, 0, 58, 81
1, 34126, Note_on_c, 0, 51, 80
1, 34132, Note_on_c, 0, 39, 79
1, 34149, Note_off_c, 0, 51, 67
1, 34159, Note_off_c, 0, 39, 63
1, 34177, Note_off_c, 0, 58, 61
1, 34229, Note_on_c, 0, 62, 72
1, 34265, Note_off_c, 0, 62, 64
1, 34329, Note_on_c, 0, 55, 85
1, 34334, Note_on_c, 0, 50, 96
1, 34339, Control_c, 0, 64, 46
1, 34343, Note_on_c, 0, 38, 78
1, 34354, Control_c, 0, 64, 78
1, 34369, Control_c, 0, 64, 127
1, 34374, Note_off_c, 0, 38, 64
1, 34374, Note_off_c, 0, 50, 65
1, 34376, Note_off_c, 0, 55, 64
1, 34426, Note_on_c, 0, 55, 77
1, 34428, Control_c, 0, 64, 72
1, 34443, Control_c, 0, 64, 0
1, 34475, Note_off_c, 0, 55, 64
1, 34532, Note_on_c, 0, 68, 96
1, 34537, Note_on_c, 0, 55, 85
1, 34538, Note_on_c, 0, 61, 80
1, 34562, Note_off_c, 0, 61, 64
1, 34563, Note_off_c, 0, 68, 64
1, 34591, Note_off_c, 0, 55, 61
1, 34639, Note_on_c, 0, 58, 81
1, 34686, Note_off_c, 0, 58, 66
1, 34740, Note_on_c, 0, 49, 105
1, 34749, Note_on_c, 0, 37, 84
1, 34752, Note_on_c, 0, 62, 81
1, 34755, Control_c, 0, 64, 58
1, 34764, Note_off_c, 0, 49, 65
1, 34770, Control_c, 0, 64, 76
1, 34774, Note_off_c, 0, 37, 64
1, 34783, Note_off_c, 0, 62, 63
1, 34785, Control_c, 0, 64, 97
1, 34800, Control_c, 0, 64, 127
1, 34845, Note_on_c, 0, 62, 84
1, 34874, Control_c, 0, 64, 100
1, 34888, Control_c, 0, 64, 72
1, 34895, Note_off_c, 0, 62, 63
1, 34903, Control_c, 0, 64, 33
1, 34918, Control_c, 0, 64, 0
1, 34949, Note_on_c, 0, 69, 86
1, 34952, Note_on_c, 0, 58, 97
1, 34966, Note_off_c, 0, 69, 73
1, 34967, Note_on_c, 0, 61, 64
1, 34986, Note_off_c, 0, 61, 61
1, 34990, Note_on_c, 0, 60, 28
1, 34991, Note_on_c, 0, 57, 45
1, 35020, Note_off_c, 0, 57, 35
1, 35023, Note_off_c, 0, 60, 33
1, 35035, Note_off_c, 0, 58, 62
1, 35052, Note_on_c, 0, 62, 82
1, 35103, Note_off_c, 0, 62, 64
1, 35157, Note_on_c, 0, 55, 89
1, 35162, Control_c, 0, 64, 61
1, 35163, Note_on_c, 0, 48, 96
1, 35177, Note_on_c, 0, 36, 65
1, 35177, Control_c, 0, 64, 80
1, 35192, Control_c, 0, 64, 127
1, 35207, Note_off_c, 0, 55, 65
1, 35260, Note_on_c, 0, 55, 74
1, 35281, Note_off_c, 0, 55, 71
1, 35293, Poly_aftertouch_c, 0, 38, 0
1, 35294, Note_off_c, 0, 36, 28
1, 35309, Note_off_c, 0, 48, 62
1, 35340, Control_c, 0, 64, 98
1, 35354, Control_c, 0, 64, 67
1, 35364, Note_on_c, 0, 60, 83
1, 35369, Control_c, 0, 64, 0
1, 35400, Note_off_c, 0, 60, 66
1, 35465, Note_on_c, 0, 63, 72
1, 35499, Note_off_c, 0, 63, 62
1, 35559, Note_on_c, 0, 67, 76
1, 35564, Note_on_c, 0, 68, 75
1, 35570, Note_on_c, 0, 60, 62
1, 35595, Note_off_c, 0, 67, 63
1, 35596, Note_off_c, 0, 68, 56
1, 35598, Note_off_c, 0, 60, 65
1, 35654, Note_on_c, 0, 67, 65
1, 35704, Note_off_c, 0, 67, 61
1, 35759, Note_on_c, 0, 69, 83
1, 35764, Note_on_c, 0, 63, 73
1, 35770, Note_on_c, 0, 59, 66
1, 35780, Note_off_c, 0, 69, 69
1, 35796, Note_off_c, 0, 59, 66
1, 35822, Note_off_c, 0, 63, 62
1, 35864, Note_on_c, 0, 67, 64
1, 35902, Note_off_c, 0, 67, 66
1, 35959, Note_on_c, 0, 59, 78
1, 35962, Note_on_c, 0, 60, 71
1, 35968, Note_on_c, 0, 47, 64
1, 35983, Note_off_c, 0, 59, 68
1, 35995, Note_off_c, 0, 60, 67
1, 35995, Note_off_c, 0, 47, 65
1, 36059, Note_on_c, 0, 60, 68
1, 36091, Note_off_c, 0, 60, 66
1, 36157, Note_on_c, 0, 58, 88
1, 36159, Note_on_c, 0, 60, 73
1, 36165, Note_on_c, 0, 46, 74
1, 36195, Note_off_c, 0, 46, 66
1, 36195, Note_off_c, 0, 58, 62
1, 36203, Note_off_c, 0, 60, 63
1, 36255, Note_on_c, 0, 63, 75
1, 36292, Note_off_c, 0, 63, 63
1, 36356, Note_on_c, 0, 67, 78
1, 36366, Note_on_c, 0, 69, 87
1, 36371, Note_on_c, 0, 59, 79
1, 36382, Note_on_c, 0, 58, 61
1, 36387, Note_off_c, 0, 59, 68
1, 36395, Note_off_c, 0, 69, 63
1, 36402, Note_off_c, 0, 58, 59
1, 36403, Note_off_c, 0, 67, 61
1, 36463, Note_on_c, 0, 67, 66
1, 36514, Note_off_c, 0, 67, 59
1, 36563, Note_on_c, 0, 63, 75
1, 36567, Note_on_c, 0, 58, 81
1, 36568, Note_on_c, 0, 70, 76
1, 36591, Note_off_c, 0, 70, 71
1, 36604, Note_off_c, 0, 58, 62
1, 36622, Note_off_c, 0, 63, 62
1, 36652, Note_on_c, 0, 67, 68
1, 36707, Note_off_c, 0, 67, 64
1, 36763, Note_on_c, 0, 60, 81
1, 36764, Note_on_c, 0, 57, 94
1, 36773, Note_on_c, 0, 45, 78
1, 36799, Note_off_c, 0, 45, 66
1, 36799, Note_off_c, 0, 57, 64
1, 36799, Note_off_c, 0, 60, 64
1, 36859, Note_on_c, 0, 60, 79
1, 36908, Note_off_c, 0, 60, 65
1, 36967, Note_on_c, 0, 60, 81
1, 36967, Note_on_c, 0, 71, 90
1, 36972, Note_on_c, 0, 68, 78
1, 36979, Note_on_c, 0, 65, 68
1, 37000, Note_off_c, 0, 71, 64
1, 37005, Note_off_c, 0, 65, 66
1, 37010, Note_off_c, 0, 68, 43
1, 37026, Note_off_c, 0, 60, 57
1, 37062, Note_on_c, 0, 63, 80
1, 37111, Note_off_c, 0, 63, 65
1, 37169, Note_on_c, 0, 68, 86
1, 37172, Note_on_c, 0, 67, 85
1, 37187, Note_on_c, 0, 72, 86
1, 37198, Note_on_c, 0, 62, 71
1, 37205, Note_off_c, 0, 72, 73
1, 37223, Note_off_c, 0, 62, 67
1, 37224, Note_off_c, 0, 68, 65
1, 37229, Note_off_c, 0, 67, 64
1, 37281, Note_on_c, 0, 67, 76
1, 37328, Note_off_c, 0, 67, 63
1, 37381, Note_on_c, 0, 56, 86
1, 37385, Note_on_c, 0, 44, 81
1, 37385, Note_on_c, 0, 63, 85
1, 37405, Note_off_c, 0, 56, 70
1, 37416, Note_off_c, 0, 44, 68
1, 37436, Note_off_c, 0, 63, 63
1, 37481, Note_on_c, 0, 67, 73
1, 37527, Note_off_c, 0, 67, 61
1, 37570, Control_c, 0, 64, 31
1, 37578, Note_on_c, 0, 55, 98
1, 37585, Control_c, 0, 64, 55
1, 37587, Note_on_c, 0, 43, 79
1, 37589, Note_on_c, 0, 60, 84
1, 37599, Control_c, 0, 64, 58
1, 37610, Note_off_c, 0, 43, 66
1, 37614, Control_c, 0, 64, 56
1, 37622, Note_off_c, 0, 55, 66
1, 37629, Control_c, 0, 64, 49
1, 37634, Note_off_c, 0, 60, 65
1, 37644, Control_c, 0, 64, 16
1, 37659, Control_c, 0, 64, 0
1, 37685, Note_on_c, 0, 60, 75
1, 37736, Note_off_c, 0, 60, 65
1, 37781, Note_on_c, 0, 73, 98
1, 37792, Note_on_c, 0, 60, 80
1, 37802, Note_on_c, 0, 64, 62
1, 37810, Note_on_c, 0, 66, 42
1, 37814, Note_off_c, 0, 73, 63
1, 37821, Note_off_c, 0, 64, 65
1, 37838, Note_off_c, 0, 66, 39
1, 37847, Note_off_c, 0, 60, 64
1, 37893, Note_on_c, 0, 63, 82
1, 37944, Note_off_c, 0, 63, 66
1, 37978, Control_c, 0, 64, 47
1, 37993, Control_c, 0, 64, 60
1, 37999, Note_on_c, 0, 54, 106
1, 38007, Note_on_c, 0, 42, 91
1, 38008, Note_on_c, 0, 67, 85
1, 38008, Control_c, 0, 64, 61
1, 38023, Control_c, 0, 64, 58
1, 38027, Note_off_c, 0, 54, 60
1, 38032, Note_off_c, 0, 42, 66
1, 38037, Control_c, 0, 64, 47
1, 38052, Control_c, 0, 64, 0
1, 38053, Note_off_c, 0, 67, 63
1, 38104, Note_on_c, 0, 67, 80
1, 38165, Note_off_c, 0, 67, 62
1, 38204, Note_on_c, 0, 74, 92
1, 38210, Note_on_c, 0, 66, 86
1, 38214, Note_on_c, 0, 63, 89
1, 38223, Note_off_c, 0, 74, 69
1, 38232, Note_off_c, 0, 66, 69
1, 38245, Note_on_c, 0, 67, 14
1, 38278, Note_off_c, 0, 63, 63
1, 38308, Note_off_c, 0, 67, 0
1, 38308, Note_on_c, 0, 67, 63
1, 38370, Note_off_c, 0, 67, 62
1, 38408, Control_c, 0, 64, 43
1, 38416, Note_on_c, 0, 60, 83
1, 38417, Note_on_c, 0, 53, 94
1, 38423, Control_c, 0, 64, 63
1, 38424, Note_on_c, 0, 41, 83
1, 38437, Control_c, 0, 64, 74
1, 38448, Note_off_c, 0, 41, 67
1, 38452, Control_c, 0, 64, 110
1, 38456, Note_off_c, 0, 53, 61
1, 38462, Note_off_c, 0, 60, 64
1, 38467, Control_c, 0, 64, 127
1, 38509, Note_on_c, 0, 60, 70
1, 38539, Note_off_c, 0, 60, 66
1, 38616, Control_c, 0, 64, 87
1, 38624, Note_on_c, 0, 66, 78
1, 38631, Control_c, 0, 64, 66
1, 38633, Note_on_c, 0, 67, 82
1, 38643, Note_on_c, 0, 58, 59
1, 38645, Note_off_c, 0, 66, 69
1, 38645, Control_c, 0, 64, 35
1, 38660, Control_c, 0, 64, 0
1, 38666, Note_off_c, 0, 58, 60
1, 38669, Note_off_c, 0, 67, 62
1, 38734, Note_on_c, 0, 62, 58
1, 38741, Note_on_c, 0, 70, 73
1, 38762, Note_off_c, 0, 62, 63
1, 38777, Note_off_c, 0, 70, 66
1, 38842, Note_on_c, 0, 74, 72
1, 38863, Note_on_c, 0, 52, 51
1, 38866, Note_on_c, 0, 57, 54
1, 38875, Note_off_c, 0, 74, 61
1, 38929, Note_off_c, 0, 57, 59
1, 38940, Note_off_c, 0, 52, 63
1, 38940, Note_on_c, 0, 74, 71
1, 38949, Note_on_c, 0, 58, 52
1, 38967, Note_off_c, 0, 74, 68
1, 38973, Note_off_c, 0, 58, 60
1, 39042, Note_on_c, 0, 65, 78
1, 39044, Note_on_c, 0, 58, 72
1, 39046, Note_on_c, 0, 70, 81
1, 39094, Note_off_c, 0, 65, 62
1, 39100, Note_off_c, 0, 70, 63
1, 39108, Note_off_c, 0, 58, 62
1, 39143, Note_on_c, 0, 62, 54
1, 39145, Note_on_c, 0, 74, 68
1, 39174, Note_off_c, 0, 62, 64
1, 39178, Note_off_c, 0, 74, 63
1, 39247, Note_on_c, 0, 67, 75
1, 39255, Note_on_c, 0, 57, 66
1, 39270, Note_on_c, 0, 52, 50
1, 39283, Note_off_c, 0, 67, 66
1, 39321, Note_off_c, 0, 52, 60
1, 39333, Note_off_c, 0, 57, 64
1, 39349, Note_on_c, 0, 67, 77
1, 39359, Note_on_c, 0, 58, 31
1, 39393, Note_off_c, 0, 67, 62
1, 39393, Note_off_c, 0, 58, 41
1, 39459, Note_on_c, 0, 64, 79
1, 39462, Note_on_c, 0, 67, 80
1, 39474, Note_on_c, 0, 58, 70
1, 39506, Note_off_c, 0, 64, 59
1, 39507, Note_off_c, 0, 67, 63
1, 39508, Note_off_c, 0, 58, 61
1, 39551, Note_on_c, 0, 62, 65
1, 39556, Note_on_c, 0, 70, 75
1, 39580, Note_off_c, 0, 62, 65
1, 39606, Note_off_c, 0, 70, 63
1, 39661, Note_on_c, 0, 74, 84
1, 39673, Note_on_c, 0, 57, 69
1, 39680, Note_on_c, 0, 52, 59
1, 39707, Note_off_c, 0, 74, 62
1, 39733, Note_off_c, 0, 52, 59
1, 39744, Note_off_c, 0, 57, 64
1, 39754, Note_on_c, 0, 58, 71
1, 39764, Note_on_c, 0, 74, 78
1, 39784, Note_off_c, 0, 58, 66
1, 39818, Note_off_c, 0, 74, 64
1, 39856, Note_on_c, 0, 79, 101
1, 39862, Note_on_c, 0, 63, 78
1, 39873, Note_on_c, 0, 58, 59
1, 39885, Note_off_c, 0, 63, 69
1, 39909, Note_on_c, 0, 62, 43
1, 39913, Note_off_c, 0, 58, 63
1, 39939, Note_off_c, 0, 79, 59
1, 39974, Note_off_c, 0, 62, 64
1, 40061, Note_on_c, 0, 73, 84
1, 40072, Note_on_c, 0, 52, 63
1, 40076, Note_on_c, 0, 57, 61
1, 40083, Control_c, 0, 64, 9
1, 40092, Note_off_c, 0, 73, 65
1, 40098, Control_c, 0, 64, 50
1, 40113, Control_c, 0, 64, 62
1, 40128, Control_c, 0, 64, 66
1, 40142, Control_c, 0, 64, 67
1, 40144, Note_off_c, 0, 57, 64
1, 40147, Note_off_c, 0, 52, 61
1, 40155, Note_on_c, 0, 58, 50
1, 40157, Control_c, 0, 64, 65
1, 40173, Note_on_c, 0, 81, 73
1, 40180, Control_c, 0, 64, 63
1, 40188, Note_off_c, 0, 58, 58
1, 40195, Control_c, 0, 64, 54
1, 40208, Note_off_c, 0, 81, 61
1, 40210, Control_c, 0, 64, 26
1, 40225, Control_c, 0, 64, 0
1, 40270, Note_on_c, 0, 81, 74
1, 40283, Note_on_c, 0, 55, 58
1, 40287, Note_on_c, 0, 59, 38
1, 40299, Control_c, 0, 64, 43
1, 40311, Note_off_c, 0, 81, 67
1, 40314, Control_c, 0, 64, 59
1, 40329, Control_c, 0, 64, 65
1, 40343, Note_off_c, 0, 59, 42
1, 40344, Control_c, 0, 64, 69
1, 40355, Note_on_c, 0, 60, 44
1, 40359, Control_c, 0, 64, 74
1, 40364, Note_off_c, 0, 55, 61
1, 40374, Control_c, 0, 64, 78
1, 40388, Control_c, 0, 64, 79
1, 40389, Note_on_c, 0, 80, 44
1, 40400, Note_off_c, 0, 60, 64
1, 40403, Control_c, 0, 64, 79
1, 40415, Note_off_c, 0, 80, 37
1, 40418, Control_c, 0, 64, 78
1, 40433, Control_c, 0, 64, 74
1, 40448, Control_c, 0, 64, 66
1, 40462, Control_c, 0, 64, 51
1, 40472, Note_on_c, 0, 52, 69
1, 40474, Note_on_c, 0, 80, 86
1, 40477, Note_on_c, 0, 60, 72
1, 40477, Control_c, 0, 64, 0
1, 40504, Note_off_c, 0, 52, 60
1, 40506, Control_c, 0, 64, 20
1, 40521, Control_c, 0, 64, 49
1, 40526, Note_off_c, 0, 80, 63
1, 40536, Control_c, 0, 64, 64
1, 40551, Control_c, 0, 64, 71
1, 40566, Control_c, 0, 64, 85
1, 40576, Note_on_c, 0, 79, 80
1, 40580, Note_on_c, 0, 86, 78
1, 40580, Control_c, 0, 64, 119
1, 40581, Note_on_c, 0, 61, 63
1, 40586, Note_off_c, 0, 60, 61
1, 40595, Control_c, 0, 64, 127
1, 40613, Note_off_c, 0, 61, 65
1, 40623, Note_off_c, 0, 86, 62
1, 40626, Note_off_c, 0, 79, 65
1, 40640, Control_c, 0, 64, 89
1, 40654, Control_c, 0, 64, 73
1, 40664, Note_on_c, 0, 79, 69
1, 40669, Control_c, 0, 64, 68
1, 40672, Note_on_c, 0, 86, 75
1, 40684, Control_c, 0, 64, 69
1, 40689, Note_on_c, 0, 61, 68
1, 40697, Note_on_c, 0, 55, 63
1, 40699, Control_c, 0, 64, 71
1, 40710, Note_off_c, 0, 79, 65
1, 40714, Control_c, 0, 64, 76
1, 40717, Note_off_c, 0, 86, 61
1, 40729, Control_c, 0, 64, 83
1, 40743, Control_c, 0, 64, 95
1, 40758, Control_c, 0, 64, 107
1, 40764, Note_on_c, 0, 86, 86
1, 40767, Note_on_c, 0, 78, 96
1, 40773, Control_c, 0, 64, 108
1, 40785, Note_off_c, 0, 61, 59
1, 40788, Note_off_c, 0, 55, 58
1, 40788, Control_c, 0, 64, 106
1, 40803, Control_c, 0, 64, 103
1, 40810, Note_off_c, 0, 86, 65
1, 40811, Note_off_c, 0, 78, 64
1, 40818, Control_c, 0, 64, 102
1, 40861, Note_on_c, 0, 86, 92
1, 40866, Note_on_c, 0, 77, 86
1, 40870, Note_on_c, 0, 62, 86
1, 40872, Note_on_c, 0, 79, 81
1, 40875, Note_on_c, 0, 52, 83
1, 40891, Note_off_c, 0, 79, 73
1, 40891, Control_c, 0, 64, 101
1, 40901, Note_off_c, 0, 52, 70
1, 40902, Note_off_c, 0, 77, 63
1, 40906, Note_off_c, 0, 86, 65
1, 40906, Control_c, 0, 64, 101
1, 40928, Control_c, 0, 64, 100
1, 40943, Control_c, 0, 64, 99
1, 40958, Control_c, 0, 64, 99
1, 40966, Note_on_c, 0, 86, 95
1, 40970, Note_on_c, 0, 77, 93
1, 40973, Control_c, 0, 64, 98
1, 40985, Note_on_c, 0, 63, 75
1, 40989, Control_c, 0, 64, 98
1, 41000, Note_off_c, 0, 77, 64
1, 41003, Control_c, 0, 64, 97
1, 41004, Note_off_c, 0, 62, 63
1, 41008, Note_off_c, 0, 86, 66
1, 41010, Note_off_c, 0, 63, 68
1, 41018, Control_c, 0, 64, 96
1, 41033, Control_c, 0, 64, 94
1, 41048, Control_c, 0, 64, 88
1, 41063, Control_c, 0, 64, 77
1, 41065, Note_on_c, 0, 86, 103
1, 41071, Note_on_c, 0, 77, 92
1, 41077, Control_c, 0, 64, 66
1, 41083, Note_on_c, 0, 63, 86
1, 41092, Note_on_c, 0, 55, 78
1, 41092, Control_c, 0, 64, 49
1, 41098, Note_off_c, 0, 77, 63
1, 41107, Control_c, 0, 64, 25
1, 41114, Note_off_c, 0, 86, 65
1, 41122, Control_c, 0, 64, 21
1, 41137, Control_c, 0, 64, 23
1, 41140, Note_off_c, 0, 63, 63
1, 41152, Control_c, 0, 64, 24
1, 41162, Note_on_c, 0, 86, 83
1, 41163, Note_on_c, 0, 77, 78
1, 41164, Note_on_c, 0, 64, 65
1, 41170, Note_on_c, 0, 65, 67
1, 41170, Note_off_c, 0, 55, 62
1, 41182, Control_c, 0, 64, 21
1, 41193, Note_off_c, 0, 77, 65
1, 41196, Note_off_c, 0, 64, 67
1, 41197, Control_c, 0, 64, 15
1, 41197, Note_off_c, 0, 65, 63
1, 41204, Note_off_c, 0, 86, 65
1, 41211, Control_c, 0, 64, 0
1, 41268, Note_on_c, 0, 86, 103
1, 41273, Note_on_c, 0, 64, 101
1, 41279, Note_on_c, 0, 52, 73
1, 41285, Control_c, 0, 64, 30
1, 41296, Note_off_c, 0, 52, 69
1, 41300, Note_on_c, 0, 53, 64
1, 41300, Control_c, 0, 64, 54
1, 41315, Control_c, 0, 64, 63
1, 41316, Note_on_c, 0, 84, 39
1, 41320, Note_off_c, 0, 53, 62
1, 41329, Control_c, 0, 64, 64
1, 41343, Note_off_c, 0, 84, 37
1, 41344, Control_c, 0, 64, 63
1, 41358, Note_on_c, 0, 75, 88
1, 41358, Note_on_c, 0, 66, 89
1, 41359, Control_c, 0, 64, 61
1, 41374, Control_c, 0, 64, 53
1, 41375, Note_off_c, 0, 64, 65
1, 41378, Note_off_c, 0, 75, 69
1, 41381, Note_off_c, 0, 66, 69
1, 41389, Note_off_c, 0, 86, 67
1, 41389, Control_c, 0, 64, 41
1, 41403, Control_c, 0, 64, 27
1, 41411, Note_on_c, 0, 65, 25
1, 41412, Note_off_c, 0, 65, 127
1, 41418, Control_c, 0, 64, 24
1, 41433, Control_c, 0, 64, 24
1, 41448, Control_c, 0, 64, 21
1, 41463, Control_c, 0, 64, 12
1, 41471, Note_on_c, 0, 57, 88
1, 41474, Note_on_c, 0, 65, 88
1, 41476, Note_on_c, 0, 95, 97
1, 41477, Control_c, 0, 64, 0
1, 41480, Note_on_c, 0, 93, 93
1, 41516, Note_off_c, 0, 93, 65
1, 41516, Note_off_c, 0, 95, 63
1, 41531, Note_off_c, 0, 57, 60
1, 41551, Note_on_c, 0, 66, 88
1, 41551, Control_c, 0, 64, 12
1, 41561, Note_off_c, 0, 65, 62
1, 41563, Note_on_c, 0, 94, 94
1, 41566, Control_c, 0, 64, 19
1, 41581, Control_c, 0, 64, 29
1, 41596, Control_c, 0, 64, 46
1, 41600, Note_off_c, 0, 66, 64
1, 41606, Note_off_c, 0, 94, 64
1, 41611, Control_c, 0, 64, 62
1, 41626, Control_c, 0, 64, 72
1, 41640, Control_c, 0, 64, 127
1, 41658, Note_on_c, 0, 98, 97
1, 41661, Note_on_c, 0, 67, 96
1, 41665, Note_on_c, 0, 86, 93
1, 41679, Note_on_c, 0, 96, 77
1, 41697, Note_off_c, 0, 96, 63
1, 41702, Note_off_c, 0, 98, 69
1, 41709, Note_off_c, 0, 86, 60
1, 41713, Note_off_c, 0, 67, 65
1, 41777, Note_on_c, 0, 87, 75
1, 41781, Note_on_c, 0, 75, 86
1, 41788, Note_on_c, 0, 67, 32
1, 41788, Note_on_c, 0, 88, 63
1, 41793, Note_on_c, 0, 66, 46
1, 41802, Note_off_c, 0, 75, 71
1, 41805, Note_off_c, 0, 87, 66
1, 41806, Note_off_c, 0, 88, 66
1, 41810, Note_off_c, 0, 67, 60
1, 41824, Note_off_c, 0, 66, 58
1, 41825, Note_on_c, 0, 86, 39
1, 41850, Note_off_c, 0, 86, 56
1, 41885, Note_on_c, 0, 69, 96
1, 41885, Note_on_c, 0, 68, 91
1, 41897, Note_on_c, 0, 60, 69
1, 41912, Note_on_c, 0, 75, 51
1, 41918, Note_off_c, 0, 69, 67
1, 41930, Control_c, 0, 64, 88
1, 41931, Note_off_c, 0, 75, 59
1, 41933, Note_off_c, 0, 68, 65
1, 41945, Control_c, 0, 64, 67
1, 41960, Control_c, 0, 64, 45
1, 41972, Note_off_c, 0, 60, 63
1, 41972, Note_on_c, 0, 72, 87
1, 41975, Control_c, 0, 64, 0
1, 42025, Note_off_c, 0, 72, 65
1, 42073, Note_on_c, 0, 59, 59
1, 42079, Note_on_c, 0, 76, 85
1, 42106, Note_on_c, 0, 54, 54
1, 42117, Note_off_c, 0, 76, 67
1, 42163, Note_on_c, 0, 60, 68
1, 42175, Note_off_c, 0, 59, 62
1, 42179, Note_off_c, 0, 54, 64
1, 42181, Note_on_c, 0, 76, 83
1, 42191, Note_off_c, 0, 60, 67
1, 42206, Note_off_c, 0, 76, 69
1, 42277, Note_on_c, 0, 67, 92
1, 42282, Note_on_c, 0, 72, 87
1, 42291, Note_on_c, 0, 60, 73
1, 42324, Note_off_c, 0, 72, 63
1, 42333, Note_off_c, 0, 67, 63
1, 42373, Note_on_c, 0, 64, 73
1, 42380, Note_on_c, 0, 76, 76
1, 42380, Note_off_c, 0, 60, 53
1, 42403, Note_off_c, 0, 64, 65
1, 42411, Note_off_c, 0, 76, 66
1, 42493, Note_on_c, 0, 69, 83
1, 42507, Note_on_c, 0, 59, 68
1, 42527, Note_on_c, 0, 54, 56
1, 42529, Note_off_c, 0, 69, 65
1, 42580, Note_on_c, 0, 60, 70
1, 42583, Note_off_c, 0, 54, 62
1, 42588, Note_off_c, 0, 59, 61
1, 42591, Note_on_c, 0, 69, 75
1, 42616, Note_off_c, 0, 60, 67
1, 42621, Note_off_c, 0, 69, 64
1, 42691, Note_on_c, 0, 66, 83
1, 42693, Note_on_c, 0, 69, 89
1, 42718, Note_off_c, 0, 66, 66
1, 42720, Note_on_c, 0, 60, 58
1, 42735, Note_off_c, 0, 69, 64
1, 42765, Note_off_c, 0, 60, 60
1, 42781, Note_on_c, 0, 64, 63
1, 42790, Note_on_c, 0, 72, 78
1, 42817, Note_off_c, 0, 64, 65
1, 42835, Note_off_c, 0, 72, 62
1, 42897, Note_on_c, 0, 76, 81
1, 42910, Note_on_c, 0, 59, 70
1, 42926, Note_on_c, 0, 54, 58
1, 42934, Note_off_c, 0, 76, 65
1, 42994, Note_on_c, 0, 60, 70
1, 42995, Note_off_c, 0, 54, 63
1, 42996, Note_on_c, 0, 76, 84
1, 42996, Note_off_c, 0, 59, 64
1, 43021, Note_off_c, 0, 60, 68
1, 43047, Note_off_c, 0, 76, 62
1, 43084, Note_on_c, 0, 81, 94
1, 43094, Note_on_c, 0, 65, 88
1, 43101, Note_on_c, 0, 60, 77
1, 43143, Note_off_c, 0, 81, 66
1, 43143, Note_off_c, 0, 65, 63
1, 43160, Note_off_c, 0, 60, 61
1, 43190, Note_on_c, 0, 64, 86
1, 43235, Note_off_c, 0, 64, 63
1, 43298, Note_on_c, 0, 75, 76
1, 43322, Note_on_c, 0, 59, 71
1, 43325, Note_on_c, 0, 54, 62
1, 43332, Note_off_c, 0, 75, 64
1, 43353, Control_c, 0, 64, 38
1, 43369, Control_c, 0, 64, 52
1, 43384, Control_c, 0, 64, 58
1, 43398, Control_c, 0, 64, 61
1, 43402, Note_on_c, 0, 83, 76
1, 43402, Note_off_c, 0, 59, 63
1, 43404, Note_on_c, 0, 60, 70
1, 43405, Note_off_c, 0, 54, 63
1, 43413, Control_c, 0, 64, 59
1, 43428, Control_c, 0, 64, 53
1, 43432, Note_off_c, 0, 83, 63
1, 43432, Note_off_c, 0, 60, 67
1, 43443, Control_c, 0, 64, 23
1, 43458, Control_c, 0, 64, 0
1, 43500, Note_on_c, 0, 83, 79
1, 43512, Note_on_c, 0, 61, 72
1, 43516, Control_c, 0, 64, 9
1, 43528, Note_on_c, 0, 57, 55
1, 43531, Control_c, 0, 64, 46
1, 43534, Note_off_c, 0, 83, 63
1, 43546, Control_c, 0, 64, 59
1, 43561, Control_c, 0, 64, 64
1, 43569, Note_off_c, 0, 57, 62
1, 43576, Control_c, 0, 64, 67
1, 43590, Control_c, 0, 64, 70
1, 43595, Note_on_c, 0, 82, 82
1, 43605, Note_off_c, 0, 61, 61
1, 43605, Control_c, 0, 64, 72
1, 43608, Note_on_c, 0, 62, 65
1, 43620, Control_c, 0, 64, 72
1, 43629, Note_off_c, 0, 82, 62
1, 43635, Control_c, 0, 64, 72
1, 43639, Note_off_c, 0, 62, 67
1, 43650, Control_c, 0, 64, 69
1, 43665, Control_c, 0, 64, 63
1, 43680, Control_c, 0, 64, 46
1, 43693, Note_on_c, 0, 82, 85
1, 43695, Control_c, 0, 64, 0
1, 43703, Note_on_c, 0, 54, 68
1, 43709, Note_on_c, 0, 62, 75
1, 43724, Control_c, 0, 64, 35
1, 43739, Control_c, 0, 64, 54
1, 43745, Note_off_c, 0, 82, 65
1, 43754, Control_c, 0, 64, 63
1, 43764, Note_off_c, 0, 54, 64
1, 43769, Control_c, 0, 64, 69
1, 43784, Control_c, 0, 64, 80
1, 43798, Control_c, 0, 64, 94
1, 43803, Note_on_c, 0, 84, 73
1, 43811, Note_on_c, 0, 88, 71
1, 43813, Control_c, 0, 64, 118
1, 43814, Note_on_c, 0, 81, 66
1, 43817, Note_on_c, 0, 63, 62
1, 43826, Note_off_c, 0, 84, 70
1, 43828, Control_c, 0, 64, 127
1, 43831, Note_off_c, 0, 62, 61
1, 43837, Note_off_c, 0, 88, 69
1, 43843, Note_off_c, 0, 81, 65
1, 43849, Note_off_c, 0, 63, 65
1, 43872, Control_c, 0, 64, 94
1, 43887, Control_c, 0, 64, 75
1, 43902, Control_c, 0, 64, 63
1, 43903, Note_on_c, 0, 81, 76
1, 43903, Note_on_c, 0, 84, 83
1, 43904, Note_on_c, 0, 88, 76
1, 43924, Control_c, 0, 64, 59
1, 43925, Note_on_c, 0, 63, 73
1, 43930, Note_on_c, 0, 57, 70
1, 43936, Note_off_c, 0, 81, 68
1, 43939, Control_c, 0, 64, 61
1, 43943, Note_off_c, 0, 84, 63
1, 43954, Note_off_c, 0, 88, 63
1, 43954, Control_c, 0, 64, 64
1, 43969, Control_c, 0, 64, 68
1, 43984, Control_c, 0, 64, 76
1, 43998, Control_c, 0, 64, 87
1, 44005, Note_off_c, 0, 57, 63
1, 44006, Note_on_c, 0, 64, 76
1, 44011, Note_on_c, 0, 83, 78
1, 44013, Control_c, 0, 64, 96
1, 44014, Note_on_c, 0, 80, 72
1, 44027, Note_on_c, 0, 88, 53
1, 44028, Control_c, 0, 64, 97
1, 44030, Note_on_c, 0, 89, 39
1, 44035, Note_on_c, 0, 81, 56
1, 44035, Note_off_c, 0, 63, 58
1, 44035, Note_off_c, 0, 83, 68
1, 44037, Note_off_c, 0, 64, 63
1, 44037, Note_off_c, 0, 80, 54
1, 44042, Control_c, 0, 64, 95
1, 44055, Note_off_c, 0, 81, 64
1, 44055, Note_off_c, 0, 89, 54
1, 44057, Control_c, 0, 64, 93
1, 44061, Note_off_c, 0, 88, 67
1, 44072, Control_c, 0, 64, 92
1, 44087, Control_c, 0, 64, 91
1, 44112, Note_on_c, 0, 64, 95
1, 44115, Note_on_c, 0, 79, 91
1, 44116, Note_on_c, 0, 54, 83
1, 44117, Note_on_c, 0, 88, 89
1, 44139, Note_on_c, 0, 65, 63
1, 44146, Control_c, 0, 64, 91
1, 44156, Note_off_c, 0, 79, 67
1, 44157, Note_off_c, 0, 54, 64
1, 44157, Note_off_c, 0, 88, 66
1, 44158, Note_off_c, 0, 65, 65
1, 44177, Control_c, 0, 64, 90
1, 44192, Control_c, 0, 64, 89
1, 44207, Control_c, 0, 64, 87
1, 44209, Note_on_c, 0, 65, 84
1, 44217, Note_on_c, 0, 88, 93
1, 44219, Note_on_c, 0, 79, 92
1, 44221, Control_c, 0, 64, 86
1, 44236, Control_c, 0, 64, 85
1, 44251, Control_c, 0, 64, 83
1, 44256, Note_off_c, 0, 64, 56
1, 44256, Note_off_c, 0, 65, 62
1, 44256, Note_off_c, 0, 79, 64
1, 44260, Note_off_c, 0, 88, 66
1, 44266, Control_c, 0, 64, 80
1, 44281, Control_c, 0, 64, 77
1, 44295, Control_c, 0, 64, 72
1, 44309, Note_on_c, 0, 65, 87
1, 44309, Note_on_c, 0, 88, 91
1, 44310, Control_c, 0, 64, 68
1, 44315, Note_on_c, 0, 79, 85
1, 44321, Note_on_c, 0, 57, 78
1, 44325, Control_c, 0, 64, 64
1, 44339, Control_c, 0, 64, 61
1, 44351, Note_off_c, 0, 79, 65
1, 44354, Control_c, 0, 64, 58
1, 44356, Note_off_c, 0, 57, 64
1, 44359, Note_off_c, 0, 88, 66
1, 44369, Control_c, 0, 64, 56
1, 44371, Note_off_c, 0, 65, 56
1, 44384, Control_c, 0, 64, 53
1, 44392, Note_on_c, 0, 66, 82
1, 44399, Control_c, 0, 64, 46
1, 44411, Note_on_c, 0, 88, 89
1, 44413, Note_off_c, 0, 66, 70
1, 44413, Control_c, 0, 64, 24
1, 44419, Note_on_c, 0, 79, 73
1, 44428, Control_c, 0, 64, 0
1, 44444, Note_off_c, 0, 79, 70
1, 44461, Note_off_c, 0, 88, 66
1, 44487, Control_c, 0, 64, 24
1, 44493, Note_on_c, 0, 66, 87
1, 44500, Note_on_c, 0, 54, 82
1, 44502, Control_c, 0, 64, 49
1, 44517, Note_on_c, 0, 88, 85
1, 44517, Control_c, 0, 64, 61
1, 44529, Note_on_c, 0, 86, 73
1, 44532, Control_c, 0, 64, 65
1, 44536, Note_on_c, 0, 85, 75
1, 44541, Note_off_c, 0, 66, 64
1, 44547, Note_on_c, 0, 53, 25
1, 44548, Note_off_c, 0, 86, 40
1, 44557, Note_off_c, 0, 85, 70
1, 44562, Control_c, 0, 64, 64
1, 44566, Note_off_c, 0, 54, 64
1, 44577, Control_c, 0, 64, 62
1, 44585, Note_off_c, 0, 53, 32
1, 44592, Control_c, 0, 64, 60
1, 44603, Note_on_c, 0, 77, 80
1, 44607, Control_c, 0, 64, 56
1, 44612, Note_on_c, 0, 67, 85
1, 44621, Control_c, 0, 64, 50
1, 44624, Note_off_c, 0, 77, 69
1, 44625, Note_off_c, 0, 88, 66
1, 44636, Control_c, 0, 64, 45
1, 44651, Control_c, 0, 64, 41
1, 44654, Note_off_c, 0, 67, 64
1, 44672, Control_c, 0, 64, 38
1, 44687, Control_c, 0, 64, 32
1, 44702, Control_c, 0, 64, 25
1, 44714, Note_on_c, 0, 67, 81
1, 44714, Note_on_c, 0, 95, 100
1, 44717, Control_c, 0, 64, 19
1, 44732, Control_c, 0, 64, 17
1, 44756, Note_off_c, 0, 95, 67
1, 44796, Note_off_c, 0, 67, 65
1, 44797, Note_on_c, 0, 68, 81
1, 44798, Note_on_c, 0, 96, 94
1, 44806, Control_c, 0, 64, 19
1, 44821, Control_c, 0, 64, 25
1, 44836, Control_c, 0, 64, 34
1, 44838, Note_off_c, 0, 96, 66
1, 44839, Note_off_c, 0, 68, 61
1, 44851, Control_c, 0, 64, 52
1, 44865, Control_c, 0, 64, 64
1, 44880, Control_c, 0, 64, 78
1, 44895, Control_c, 0, 64, 127
1, 44896, Note_on_c, 0, 100, 96
1, 44898, Note_on_c, 0, 68, 87
1, 44904, Note_on_c, 0, 60, 65
1, 44909, Note_on_c, 0, 89, 72
1, 44911, Note_on_c, 0, 88, 70
1, 44931, Note_off_c, 0, 100, 63
1, 44936, Note_off_c, 0, 89, 67
1, 44938, Note_off_c, 0, 88, 68
1, 44943, Note_off_c, 0, 68, 63
1, 44979, Note_off_c, 0, 60, 0
1, 45006, Note_on_c, 0, 89, 93
1, 45007, Note_on_c, 0, 69, 87
1, 45012, Note_on_c, 0, 77, 88
1, 45017, Poly_aftertouch_c, 0, 60, 127
1, 45027, Note_off_c, 0, 69, 73
1, 45031, Note_off_c, 0, 77, 72
1, 45036, Poly_aftertouch_c, 0, 60, 0
1, 45043, Note_off_c, 0, 89, 65
1, 45133, Control_c, 0, 64, 96
1, 45148, Control_c, 0, 64, 76
1, 45163, Control_c, 0, 64, 63
1, 45177, Control_c, 0, 64, 38
1, 45185, Note_on_c, 0, 48, 32
1, 45185, Note_on_c, 0, 50, 52
1, 45192, Control_c, 0, 64, 13
1, 45210, Note_off_c, 0, 50, 59
1, 45214, Note_off_c, 0, 48, 49
1, 45248, Note_on_c, 0, 52, 73
1, 45251, Control_c, 0, 64, 12
1, 45266, Control_c, 0, 64, 0
1, 45274, Note_off_c, 0, 52, 67
1, 45340, Control_c, 0, 67, 31
1, 45343, Note_on_c, 0, 53, 72
1, 45355, Control_c, 0, 67, 65
1, 45361, Note_on_c, 0, 50, 68
1, 45370, Control_c, 0, 67, 92
1, 45385, Control_c, 0, 67, 116
1, 45398, Note_off_c, 0, 53, 63
1, 45400, Control_c, 0, 67, 127
1, 45426, Note_off_c, 0, 50, 61
1, 45451, Note_on_c, 0, 54, 60
1, 45460, Note_on_c, 0, 57, 62
1, 45465, Note_on_c, 0, 38, 59
1, 45466, Control_c, 0, 67, 125
1, 45481, Control_c, 0, 67, 122
1, 45488, Note_off_c, 0, 54, 66
1, 45489, Note_off_c, 0, 57, 66
1, 45495, Control_c, 0, 67, 119
1, 45497, Note_off_c, 0, 38, 63
1, 45510, Control_c, 0, 67, 117
1, 45525, Control_c, 0, 67, 115
1, 45540, Control_c, 0, 67, 114
1, 45555, Control_c, 0, 67, 114
1, 45557, Note_on_c, 0, 54, 75
1, 45570, Control_c, 0, 67, 113
1, 45582, Note_on_c, 0, 33, 69
1, 45584, Control_c, 0, 67, 112
1, 45599, Control_c, 0, 67, 111
1, 45614, Control_c, 0, 67, 110
1, 45623, Note_off_c, 0, 54, 65
1, 45624, Note_off_c, 0, 33, 63
1, 45659, Note_on_c, 0, 55, 46
1, 45659, Control_c, 0, 67, 110
1, 45660, Note_on_c, 0, 58, 69
1, 45674, Control_c, 0, 67, 109
1, 45687, Note_off_c, 0, 55, 62
1, 45689, Control_c, 0, 67, 109
1, 45692, Note_off_c, 0, 58, 67
1, 45704, Control_c, 0, 67, 108
1, 45763, Control_c, 0, 67, 107
1, 45765, Note_on_c, 0, 55, 70
1, 45770, Note_on_c, 0, 50, 66
1, 45793, Control_c, 0, 67, 107
1, 45808, Control_c, 0, 67, 106
1, 45823, Control_c, 0, 67, 105
1, 45829, Note_off_c, 0, 50, 56
1, 45829, Note_off_c, 0, 55, 63
1, 45838, Control_c, 0, 67, 105
1, 45851, Note_on_c, 0, 56, 53
1, 45856, Note_on_c, 0, 38, 53
1, 45856, Note_on_c, 0, 59, 59
1, 45889, Note_off_c, 0, 38, 60
1, 45890, Note_off_c, 0, 56, 65
1, 45891, Note_off_c, 0, 59, 64
1, 45942, Control_c, 0, 67, 104
1, 45966, Note_on_c, 0, 56, 74
1, 45976, Note_on_c, 0, 33, 67
1, 45987, Control_c, 0, 67, 103
1, 46019, Note_off_c, 0, 33, 63
1, 46029, Note_off_c, 0, 56, 64
1, 46031, Control_c, 0, 67, 103
1, 46053, Note_on_c, 0, 57, 50
1, 46059, Note_on_c, 0, 60, 59
1, 46061, Control_c, 0, 67, 102
1, 46090, Control_c, 0, 67, 102
1, 46091, Note_off_c, 0, 57, 65
1, 46094, Note_off_c, 0, 60, 65
1, 46105, Control_c, 0, 67, 101
1, 46119, Control_c, 0, 67, 100
1, 46134, Control_c, 0, 67, 100
1, 46149, Control_c, 0, 67, 98
1, 46172, Control_c, 0, 67, 92
1, 46172, Note_on_c, 0, 50, 57
1, 46179, Note_on_c, 0, 57, 71
1, 46187, Control_c, 0, 67, 85
1, 46201, Control_c, 0, 67, 78
1, 46216, Control_c, 0, 67, 71
1, 46231, Control_c, 0, 67, 63
1, 46234, Note_off_c, 0, 50, 54
1, 46246, Control_c, 0, 67, 57
1, 46246, Note_off_c, 0, 57, 64
1, 46261, Control_c, 0, 67, 53
1, 46262, Note_on_c, 0, 38, 44
1, 46274, Note_on_c, 0, 58, 43
1, 46274, Note_on_c, 0, 61, 59
1, 46275, Control_c, 0, 67, 50
1, 46290, Control_c, 0, 67, 46
1, 46293, Note_off_c, 0, 38, 53
1, 46305, Control_c, 0, 67, 45
1, 46309, Note_off_c, 0, 61, 64
1, 46310, Note_off_c, 0, 58, 64
1, 46319, Control_c, 0, 67, 42
1, 46334, Control_c, 0, 67, 41
1, 46349, Control_c, 0, 67, 40
1, 46364, Control_c, 0, 67, 38
1, 46379, Control_c, 0, 67, 38
1, 46386, Note_on_c, 0, 58, 71
1, 46390, Note_on_c, 0, 33, 62
1, 46393, Control_c, 0, 67, 37
1, 46407, Control_c, 0, 67, 36
1, 46422, Control_c, 0, 67, 36
1, 46437, Control_c, 0, 67, 35
1, 46447, Note_off_c, 0, 33, 62
1, 46452, Control_c, 0, 67, 35
1, 46455, Note_off_c, 0, 58, 59
1, 46460, Note_on_c, 0, 59, 37
1, 46482, Note_on_c, 0, 62, 53
1, 46504, Note_off_c, 0, 59, 62
1, 46511, Control_c, 0, 67, 34
1, 46514, Note_off_c, 0, 62, 65
1, 46586, Control_c, 0, 67, 33
1, 46593, Note_on_c, 0, 59, 74
1, 46603, Note_on_c, 0, 50, 59
1, 46631, Control_c, 0, 67, 33
1, 46646, Control_c, 0, 67, 31
1, 46660, Note_off_c, 0, 50, 56
1, 46660, Note_off_c, 0, 59, 62
1, 46661, Control_c, 0, 67, 28
1, 46675, Control_c, 0, 67, 25
1, 46686, Note_on_c, 0, 38, 49
1, 46690, Control_c, 0, 67, 23
1, 46692, Note_on_c, 0, 60, 46
1, 46695, Note_on_c, 0, 63, 62
1, 46705, Control_c, 0, 67, 21
1, 46720, Control_c, 0, 67, 19
1, 46720, Note_off_c, 0, 38, 62
1, 46720, Note_off_c, 0, 60, 64
1, 46727, Note_off_c, 0, 63, 67
1, 46734, Control_c, 0, 67, 17
1, 46749, Control_c, 0, 67, 14
1, 46764, Control_c, 0, 67, 12
1, 46779, Control_c, 0, 67, 8
1, 46794, Control_c, 0, 67, 0
1, 46803, Note_on_c, 0, 60, 73
1, 46816, Note_on_c, 0, 33, 67
1, 46867, Note_off_c, 0, 60, 63
1, 46868, Note_off_c, 0, 33, 62
1, 46897, Control_c, 0, 64, 25
1, 46902, Note_on_c, 0, 64, 66
1, 46920, Control_c, 0, 64, 51
1, 46935, Control_c, 0, 64, 63
1, 46938, Note_off_c, 0, 64, 67
1, 46949, Control_c, 0, 64, 71
1, 46964, Control_c, 0, 64, 92
1, 46979, Control_c, 0, 64, 127
1, 47007, Note_on_c, 0, 52, 92
1, 47019, Note_on_c, 0, 68, 68
1, 47040, Note_off_c, 0, 68, 59
1, 47045, Note_on_c, 0, 67, 52
1, 47067, Note_off_c, 0, 67, 59
1, 47077, Note_off_c, 0, 52, 60
1, 47112, Note_on_c, 0, 40, 64
1, 47115, Note_on_c, 0, 64, 86
1, 47123, Note_on_c, 0, 67, 85
1, 47143, Note_off_c, 0, 40, 63
1, 47155, Note_off_c, 0, 64, 61
1, 47164, Note_off_c, 0, 67, 60
1, 47171, Control_c, 0, 64, 102
1, 47186, Control_c, 0, 64, 77
1, 47201, Control_c, 0, 64, 62
1, 47215, Control_c, 0, 64, 29
1, 47216, Note_on_c, 0, 64, 74
1, 47219, Note_on_c, 0, 68, 75
1, 47220, Note_on_c, 0, 67, 73
1, 47227, Note_on_c, 0, 33, 75
1, 47230, Control_c, 0, 64, 0
1, 47285, Note_off_c, 0, 33, 63
1, 47295, Note_on_c, 0, 66, 73
1, 47296, Note_on_c, 0, 63, 73
1, 47296, Note_off_c, 0, 64, 61
1, 47307, Poly_aftertouch_c, 0, 40, 0
1, 47318, Note_off_c, 0, 68, 62
1, 47323, Note_off_c, 0, 67, 64
1, 47344, Note_off_c, 0, 63, 61
1, 47349, Control_c, 0, 67, 12
1, 47349, Note_off_c, 0, 66, 64
1, 47364, Control_c, 0, 67, 27
1, 47379, Control_c, 0, 67, 36
1, 47394, Control_c, 0, 67, 38
1, 47425, Note_on_c, 0, 52, 64
1, 47427, Note_on_c, 0, 68, 72
1, 47430, Note_on_c, 0, 63, 66
1, 47443, Note_on_c, 0, 66, 59
1, 47484, Note_off_c, 0, 52, 61
1, 47487, Note_on_c, 0, 65, 70
1, 47489, Note_off_c, 0, 63, 61
1, 47498, Control_c, 0, 67, 39
1, 47504, Note_on_c, 0, 62, 69
1, 47509, Note_off_c, 0, 68, 60
1, 47510, Note_on_c, 0, 40, 54
1, 47513, Control_c, 0, 67, 40
1, 47527, Note_off_c, 0, 66, 62
1, 47528, Control_c, 0, 67, 40
1, 47543, Control_c, 0, 67, 41
1, 47543, Note_off_c, 0, 40, 64
1, 47546, Note_off_c, 0, 62, 60
1, 47549, Note_off_c, 0, 65, 63
1, 47572, Control_c, 0, 67, 43
1, 47587, Control_c, 0, 67, 44
1, 47602, Control_c, 0, 67, 47
1, 47617, Control_c, 0, 67, 50
1, 47623, Note_on_c, 0, 68, 72
1, 47631, Note_on_c, 0, 62, 62
1, 47631, Control_c, 0, 67, 54
1, 47637, Note_on_c, 0, 33, 61
1, 47646, Control_c, 0, 67, 60
1, 47668, Control_c, 0, 67, 71
1, 47683, Note_off_c, 0, 33, 62
1, 47683, Control_c, 0, 67, 82
1, 47698, Control_c, 0, 67, 93
1, 47701, Note_on_c, 0, 64, 65
1, 47702, Note_off_c, 0, 62, 63
1, 47707, Note_on_c, 0, 45, 33
1, 47713, Control_c, 0, 67, 102
1, 47714, Note_off_c, 0, 68, 61
1, 47728, Control_c, 0, 67, 112
1, 47734, Note_on_c, 0, 61, 45
1, 47738, Note_off_c, 0, 45, 50
1, 47743, Control_c, 0, 67, 119
1, 47750, Note_off_c, 0, 64, 59
1, 47758, Control_c, 0, 67, 123
1, 47759, Note_off_c, 0, 61, 56
1, 47772, Control_c, 0, 67, 125
1, 47817, Note_on_c, 0, 61, 71
1, 47822, Note_on_c, 0, 68, 65
1, 47823, Note_on_c, 0, 64, 32
1, 47832, Control_c, 0, 67, 124
1, 47838, Note_on_c, 0, 52, 55
1, 47846, Control_c, 0, 67, 122
1, 47861, Control_c, 0, 67, 120
1, 47868, Note_off_c, 0, 64, 59
1, 47876, Control_c, 0, 67, 120
1, 47878, Note_off_c, 0, 61, 62
1, 47884, Note_off_c, 0, 52, 62
1, 47891, Control_c, 0, 67, 119
1, 47906, Control_c, 0, 67, 117
1, 47910, Note_off_c, 0, 68, 58
1, 47913, Note_on_c, 0, 63, 65
1, 47920, Control_c, 0, 67, 114
1, 47921, Note_on_c, 0, 60, 58
1, 47924, Note_on_c, 0, 40, 53
1, 47935, Control_c, 0, 67, 112
1, 47950, Control_c, 0, 67, 110
1, 47956, Note_off_c, 0, 40, 64
1, 47957, Note_off_c, 0, 60, 64
1, 47964, Control_c, 0, 67, 109
1, 47969, Note_off_c, 0, 63, 61
1, 47979, Control_c, 0, 67, 108
1, 47994, Control_c, 0, 67, 107
1, 48009, Control_c, 0, 67, 105
1, 48024, Control_c, 0, 67, 103
1, 48027, Note_on_c, 0, 68, 79
1, 48038, Control_c, 0, 67, 102
1, 48047, Note_on_c, 0, 33, 59
1, 48068, Control_c, 0, 67, 102
1, 48083, Control_c, 0, 67, 100
1, 48094, Note_off_c, 0, 33, 62
1, 48097, Note_on_c, 0, 35, 13
1, 48097, Control_c, 0, 67, 100
1, 48112, Control_c, 0, 67, 98
1, 48118, Note_on_c, 0, 62, 71
1, 48127, Control_c, 0, 67, 97
1, 48140, Note_off_c, 0, 68, 53
1, 48142, Control_c, 0, 67, 92
1, 48146, Note_off_c, 0, 35, 28
1, 48158, Control_c, 0, 67, 83
1, 48169, Note_off_c, 0, 62, 63
1, 48173, Control_c, 0, 67, 75
1, 48187, Control_c, 0, 67, 63
1, 48202, Control_c, 0, 67, 44
1, 48217, Control_c, 0, 67, 22
1, 48232, Control_c, 0, 67, 0
1, 48234, Note_on_c, 0, 52, 71
1, 48237, Note_on_c, 0, 68, 84
1, 48295, Note_off_c, 0, 52, 59
1, 48313, Note_on_c, 0, 61, 75
1, 48322, Note_on_c, 0, 40, 53
1, 48329, Note_off_c, 0, 68, 63
1, 48351, Note_off_c, 0, 40, 58
1, 48360, Note_off_c, 0, 61, 60
1, 48362, Note_on_c, 0, 57, 8
1, 48380, Control_c, 0, 64, 38
1, 48395, Control_c, 0, 64, 61
1, 48416, Note_off_c, 0, 57, 28
1, 48417, Control_c, 0, 64, 72
1, 48420, Note_on_c, 0, 69, 91
1, 48432, Control_c, 0, 64, 97
1, 48436, Note_on_c, 0, 33, 80
1, 48447, Control_c, 0, 64, 127
1, 48497, Note_on_c, 0, 57, 69
1, 48499, Note_on_c, 0, 61, 70
1, 48503, Note_off_c, 0, 33, 61
1, 48503, Note_off_c, 0, 69, 62
1, 48521, Control_c, 0, 64, 123
1, 48527, Note_off_c, 0, 61, 67
1, 48531, Note_on_c, 0, 45, 24
1, 48531, Note_off_c, 0, 57, 65
1, 48536, Control_c, 0, 64, 84
1, 48550, Control_c, 0, 64, 69
1, 48565, Control_c, 0, 64, 57
1, 48566, Note_off_c, 0, 45, 45
1, 48580, Control_c, 0, 64, 30
1, 48595, Control_c, 0, 64, 0
1, 48625, Control_c, 0, 67, 14
1, 48625, Note_on_c, 0, 56, 72
1, 48629, Note_on_c, 0, 53, 72
1, 48640, Control_c, 0, 67, 39
1, 48654, Control_c, 0, 67, 65
1, 48668, Control_c, 0, 67, 92
1, 48677, Note_off_c, 0, 56, 59
1, 48683, Control_c, 0, 67, 112
1, 48689, Note_on_c, 0, 57, 31
1, 48694, Note_off_c, 0, 53, 61
1, 48698, Control_c, 0, 67, 125
1, 48708, Note_on_c, 0, 60, 62
1, 48712, Control_c, 0, 67, 127
1, 48722, Note_on_c, 0, 41, 58
1, 48750, Note_off_c, 0, 60, 64
1, 48750, Note_off_c, 0, 57, 63
1, 48752, Note_off_c, 0, 41, 65
1, 48846, Note_on_c, 0, 57, 71
1, 48852, Note_on_c, 0, 36, 66
1, 48860, Control_c, 0, 67, 127
1, 48875, Control_c, 0, 67, 126
1, 48903, Note_off_c, 0, 36, 58
1, 48905, Note_off_c, 0, 57, 63
1, 48932, Note_on_c, 0, 61, 63
1, 48932, Note_on_c, 0, 58, 44
1, 48965, Note_off_c, 0, 58, 63
1, 48968, Note_off_c, 0, 61, 65
1, 48995, Control_c, 0, 67, 125
1, 49010, Control_c, 0, 67, 124
1, 49024, Control_c, 0, 67, 123
1, 49038, Note_on_c, 0, 58, 77
1, 49039, Control_c, 0, 67, 122
1, 49049, Note_on_c, 0, 53, 75
1, 49054, Control_c, 0, 67, 120
1, 49069, Control_c, 0, 67, 119
1, 49084, Control_c, 0, 67, 118
1, 49099, Control_c, 0, 67, 117
1, 49107, Note_off_c, 0, 58, 60
1, 49113, Note_off_c, 0, 53, 61
1, 49114, Control_c, 0, 67, 116
1, 49127, Note_on_c, 0, 59, 42
1, 49128, Control_c, 0, 67, 115
1, 49131, Note_on_c, 0, 41, 61
1, 49137, Note_on_c, 0, 62, 58
1, 49143, Control_c, 0, 67, 115
1, 49165, Control_c, 0, 67, 113
1, 49168, Note_off_c, 0, 41, 65
1, 49168, Note_off_c, 0, 59, 65
1, 49179, Note_off_c, 0, 62, 65
1, 49180, Control_c, 0, 67, 109
1, 49195, Control_c, 0, 67, 102
1, 49209, Control_c, 0, 67, 95
1, 49224, Control_c, 0, 67, 87
1, 49239, Control_c, 0, 67, 78
1, 49254, Control_c, 0, 67, 71
1, 49256, Note_on_c, 0, 59, 71
1, 49263, Note_on_c, 0, 36, 73
1, 49269, Control_c, 0, 67, 66
1, 49284, Control_c, 0, 67, 63
1, 49299, Control_c, 0, 67, 61
1, 49314, Control_c, 0, 67, 61
1, 49324, Note_off_c, 0, 59, 63
1, 49327, Note_off_c, 0, 36, 63
1, 49328, Control_c, 0, 67, 60
1, 49343, Control_c, 0, 67, 60
1, 49352, Note_on_c, 0, 63, 61
1, 49354, Note_on_c, 0, 60, 48
1, 49377, Note_off_c, 0, 60, 60
1, 49383, Note_off_c, 0, 63, 66
1, 49388, Control_c, 0, 67, 59
1, 49432, Control_c, 0, 67, 58
1, 49454, Note_on_c, 0, 60, 76
1, 49456, Note_on_c, 0, 53, 76
1, 49462, Control_c, 0, 67, 58
1, 49477, Control_c, 0, 67, 57
1, 49491, Control_c, 0, 67, 56
1, 49506, Control_c, 0, 67, 55
1, 49521, Control_c, 0, 67, 52
1, 49522, Note_off_c, 0, 53, 61
1, 49525, Note_off_c, 0, 60, 64
1, 49535, Control_c, 0, 67, 50
1, 49543, Note_on_c, 0, 41, 63
1, 49550, Note_on_c, 0, 61, 58
1, 49550, Control_c, 0, 67, 49
1, 49557, Note_on_c, 0, 64, 62
1, 49565, Control_c, 0, 67, 47
1, 49573, Note_off_c, 0, 41, 65
1, 49573, Poly_aftertouch_c, 0, 46, 0
1, 49580, Control_c, 0, 67, 45
1, 49582, Note_off_c, 0, 61, 63
1, 49588, Note_off_c, 0, 64, 65
1, 49595, Control_c, 0, 67, 44
1, 49609, Control_c, 0, 67, 43
1, 49624, Control_c, 0, 67, 43
1, 49661, Note_on_c, 0, 61, 80
1, 49668, Note_on_c, 0, 36, 75
1, 49669, Control_c, 0, 67, 42
1, 49683, Control_c, 0, 67, 41
1, 49698, Control_c, 0, 67, 40
1, 49713, Control_c, 0, 67, 38
1, 49728, Control_c, 0, 67, 31
1, 49737, Note_off_c, 0, 61, 62
1, 49739, Note_off_c, 0, 36, 63
1, 49743, Control_c, 0, 67, 17
1, 49750, Note_on_c, 0, 62, 59
1, 49758, Note_on_c, 0, 65, 70
1, 49758, Control_c, 0, 67, 0
1, 49786, Note_off_c, 0, 62, 65
1, 49804, Note_off_c, 0, 65, 59
1, 49856, Note_on_c, 0, 53, 79
1, 49871, Note_on_c, 0, 62, 81
1, 49900, Note_on_c, 0, 46, 33
1, 49941, Note_off_c, 0, 53, 60
1, 49945, Note_off_c, 0, 46, 56
1, 49951, Note_off_c, 0, 62, 63
1, 49961, Note_on_c, 0, 41, 64
1, 49969, Note_on_c, 0, 63, 65
1, 49978, Note_on_c, 0, 66, 69
1, 49993, Note_off_c, 0, 41, 64
1, 50001, Note_off_c, 0, 63, 66
1, 50011, Note_off_c, 0, 66, 67
1, 50068, Note_on_c, 0, 63, 82
1, 50082, Note_on_c, 0, 36, 81
1, 50143, Note_off_c, 0, 63, 59
1, 50163, Note_off_c, 0, 36, 62
1, 50165, Note_on_c, 0, 64, 55
1, 50175, Note_on_c, 0, 67, 68
1, 50177, Note_on_c, 0, 48, 69
1, 50197, Note_off_c, 0, 64, 65
1, 50202, Note_off_c, 0, 67, 68
1, 50204, Note_off_c, 0, 48, 66
1, 50240, Control_c, 0, 64, 49
1, 50255, Control_c, 0, 64, 64
1, 50267, Note_on_c, 0, 71, 108
1, 50270, Control_c, 0, 64, 75
1, 50282, Note_on_c, 0, 55, 90
1, 50285, Control_c, 0, 64, 107
1, 50300, Control_c, 0, 64, 127
1, 50352, Note_off_c, 0, 55, 62
1, 50368, Note_on_c, 0, 70, 75
1, 50369, Note_on_c, 0, 67, 67
1, 50390, Note_on_c, 0, 43, 56
1, 50402, Note_off_c, 0, 71, 58
1, 50409, Note_off_c, 0, 67, 62
1, 50416, Note_off_c, 0, 43, 59
1, 50425, Note_off_c, 0, 70, 63
1, 50462, Control_c, 0, 64, 101
1, 50463, Note_on_c, 0, 70, 72
1, 50474, Note_on_c, 0, 67, 81
1, 50477, Control_c, 0, 64, 74
1, 50478, Note_on_c, 0, 71, 84
1, 50487, Note_on_c, 0, 36, 74
1, 50491, Control_c, 0, 64, 53
1, 50506, Control_c, 0, 64, 0
1, 50546, Note_on_c, 0, 69, 72
1, 50551, Note_off_c, 0, 36, 61
1, 50551, Note_off_c, 0, 71, 64
1, 50575, Note_on_c, 0, 66, 70
1, 50575, Note_off_c, 0, 67, 60
1, 50576, Note_on_c, 0, 48, 47
1, 50598, Note_off_c, 0, 66, 62
1, 50601, Note_on_c, 0, 65, 62
1, 50603, Note_off_c, 0, 48, 55
1, 50606, Note_off_c, 0, 69, 65
1, 50612, Note_off_c, 0, 70, 62
1, 50629, Note_off_c, 0, 65, 64
1, 50691, Note_on_c, 0, 71, 78
1, 50694, Note_on_c, 0, 55, 73
1, 50698, Note_on_c, 0, 69, 83
1, 50722, Note_on_c, 0, 65, 48
1, 50759, Note_off_c, 0, 55, 61
1, 50759, Note_off_c, 0, 65, 58
1, 50772, Note_on_c, 0, 68, 73
1, 50780, Note_off_c, 0, 71, 60
1, 50789, Note_on_c, 0, 43, 47
1, 50796, Note_off_c, 0, 69, 62
1, 50819, Note_off_c, 0, 43, 58
1, 50819, Poly_aftertouch_c, 0, 65, 0
1, 50834, Note_off_c, 0, 68, 63
1, 50902, Note_on_c, 0, 71, 73
1, 50904, Note_on_c, 0, 65, 75
1, 50904, Note_on_c, 0, 68, 68
1, 50908, Note_on_c, 0, 36, 65
1, 50950, Note_off_c, 0, 36, 62
1, 50976, Note_off_c, 0, 71, 62
1, 50982, Note_on_c, 0, 67, 74
1, 50986, Note_off_c, 0, 65, 60
1, 51002, Note_on_c, 0, 64, 65
1, 51010, Note_off_c, 0, 68, 62
1, 51032, Note_off_c, 0, 64, 66
1, 51043, Note_off_c, 0, 67, 61
1, 51091, Note_on_c, 0, 71, 82
1, 51093, Note_on_c, 0, 55, 75
1, 51117, Note_on_c, 0, 64, 61
1, 51131, Note_on_c, 0, 67, 46
1, 51153, Note_on_c, 0, 63, 39
1, 51154, Note_off_c, 0, 63, 127
1, 51162, Note_off_c, 0, 55, 61
1, 51178, Note_off_c, 0, 71, 60
1, 51186, Note_off_c, 0, 67, 44
1, 51188, Note_on_c, 0, 66, 71
1, 51203, Note_on_c, 0, 43, 38
1, 51221, Note_off_c, 0, 64, 52
1, 51239, Note_off_c, 0, 43, 46
1, 51245, Note_off_c, 0, 66, 62
1, 51290, Note_on_c, 0, 71, 84
1, 51301, Note_on_c, 0, 36, 74
1, 51358, Note_off_c, 0, 36, 61
1, 51378, Note_on_c, 0, 63, 65
1, 51383, Note_off_c, 0, 71, 62
1, 51436, Note_off_c, 0, 63, 56
1, 51484, Note_on_c, 0, 55, 77
1, 51495, Note_on_c, 0, 71, 76
1, 51549, Note_off_c, 0, 55, 61
1, 51568, Note_on_c, 0, 63, 69
1, 51576, Note_off_c, 0, 71, 61
1, 51591, Note_on_c, 0, 43, 42
1, 51624, Note_off_c, 0, 43, 49
1, 51634, Note_off_c, 0, 63, 61
1, 51693, Control_c, 0, 64, 39
1, 51695, Note_on_c, 0, 36, 74
1, 51698, Note_on_c, 0, 72, 83
1, 51708, Control_c, 0, 64, 60
1, 51723, Control_c, 0, 64, 67
1, 51731, Note_off_c, 0, 36, 64
1, 51737, Control_c, 0, 64, 75
1, 51749, Note_off_c, 0, 72, 64
1, 51752, Control_c, 0, 64, 93
1, 51767, Control_c, 0, 64, 127
1, 51770, Note_on_c, 0, 63, 68
1, 51799, Note_off_c, 0, 63, 66
1, 51879, Note_on_c, 0, 52, 82
1, 51880, Note_on_c, 0, 61, 81
1, 51886, Control_c, 0, 64, 102
1, 51898, Note_on_c, 0, 63, 33
1, 51901, Control_c, 0, 64, 80
1, 51906, Note_off_c, 0, 52, 67
1, 51916, Control_c, 0, 64, 66
1, 51923, Note_off_c, 0, 63, 58
1, 51929, Note_on_c, 0, 51, 19
1, 51930, Control_c, 0, 64, 52
1, 51943, Note_off_c, 0, 61, 58
1, 51945, Control_c, 0, 64, 24
1, 51960, Control_c, 0, 64, 0
1, 51978, Note_on_c, 0, 64, 63
1, 51979, Note_off_c, 0, 51, 46
1, 51991, Note_on_c, 0, 49, 44
1, 52002, Note_off_c, 0, 64, 67
1, 52020, Note_off_c, 0, 49, 34
1, 52089, Note_on_c, 0, 76, 94
1, 52105, Note_on_c, 0, 37, 66
1, 52124, Note_off_c, 0, 76, 64
1, 52179, Note_on_c, 0, 49, 61
1, 52179, Note_off_c, 0, 37, 61
1, 52208, Note_off_c, 0, 49, 65
1, 52296, Note_on_c, 0, 77, 105
1, 52312, Note_on_c, 0, 61, 84
1, 52322, Note_off_c, 0, 77, 69
1, 52359, Note_off_c, 0, 61, 63
1, 52381, Note_on_c, 0, 49, 75
1, 52406, Note_off_c, 0, 49, 66
1, 52501, Note_on_c, 0, 53, 81
1, 52502, Note_on_c, 0, 37, 79
1, 52530, Note_off_c, 0, 53, 67
1, 52575, Note_off_c, 0, 37, 61
1, 52593, Note_on_c, 0, 49, 70
1, 52621, Note_off_c, 0, 49, 66
1, 52694, Note_on_c, 0, 53, 78
1, 52703, Note_on_c, 0, 58, 88
1, 52721, Note_off_c, 0, 53, 66
1, 52742, Note_on_c, 0, 49, 20
1, 52771, Note_off_c, 0, 58, 63
1, 52776, Note_off_c, 0, 49, 57
1, 52795, Note_on_c, 0, 46, 70
1, 52823, Note_off_c, 0, 46, 65
1, 52922, Note_on_c, 0, 65, 71
1, 52923, Control_c, 0, 64, 30
1, 52930, Note_on_c, 0, 34, 79
1, 52938, Control_c, 0, 64, 56
1, 52953, Control_c, 0, 64, 66
1, 52968, Control_c, 0, 64, 75
1, 52975, Note_on_c, 0, 66, 73
1, 52978, Note_off_c, 0, 65, 63
1, 52983, Control_c, 0, 64, 99
1, 52998, Control_c, 0, 64, 127
1, 53013, Note_on_c, 0, 46, 62
1, 53014, Note_off_c, 0, 34, 59
1, 53033, Note_off_c, 0, 66, 63
1, 53042, Note_off_c, 0, 46, 63
1, 53043, Note_on_c, 0, 65, 73
1, 53078, Note_off_c, 0, 65, 66
1, 53118, Note_on_c, 0, 78, 104
1, 53128, Note_on_c, 0, 57, 83
1, 53158, Note_on_c, 0, 51, 53
1, 53158, Note_off_c, 0, 78, 60
1, 53188, Note_off_c, 0, 57, 63
1, 53201, Note_off_c, 0, 51, 63
1, 53210, Note_on_c, 0, 45, 71
1, 53241, Note_off_c, 0, 45, 65
1, 53330, Note_on_c, 0, 33, 84
1, 53331, Note_on_c, 0, 54, 92
1, 53369, Control_c, 0, 64, 82
1, 53374, Note_off_c, 0, 54, 67
1, 53383, Control_c, 0, 64, 65
1, 53395, Note_off_c, 0, 33, 63
1, 53398, Control_c, 0, 64, 46
1, 53413, Control_c, 0, 64, 0
1, 53541, Note_on_c, 0, 54, 85
1, 53549, Note_on_c, 0, 63, 81
1, 53574, Note_off_c, 0, 63, 67
1, 53611, Note_off_c, 0, 54, 65
1, 53634, Note_on_c, 0, 66, 75
1, 53681, Note_off_c, 0, 66, 60
1, 53750, Note_on_c, 0, 39, 76
1, 53751, Note_on_c, 0, 78, 81
1, 53819, Note_off_c, 0, 39, 63
1, 53844, Note_on_c, 0, 66, 71
1, 53865, Note_off_c, 0, 78, 59
1, 53872, Note_off_c, 0, 66, 67
1, 53952, Note_on_c, 0, 79, 105
1, 53965, Note_on_c, 0, 63, 87
1, 53999, Note_off_c, 0, 79, 64
1, 54007, Note_on_c, 0, 54, 20
1, 54015, Note_off_c, 0, 63, 63
1, 54037, Note_on_c, 0, 51, 75
1, 54048, Note_off_c, 0, 54, 50
1, 54063, Note_off_c, 0, 51, 67
1, 54147, Control_c, 0, 64, 13
1, 54162, Note_on_c, 0, 55, 78
1, 54169, Note_on_c, 0, 39, 82
1, 54191, Note_off_c, 0, 55, 68
1, 54253, Note_on_c, 0, 51, 77
1, 54258, Note_off_c, 0, 39, 62
1, 54278, Note_off_c, 0, 51, 67
1, 54340, Control_c, 0, 64, 12
1, 54350, Note_on_c, 0, 55, 71
1, 54354, Control_c, 0, 64, 11
1, 54363, Note_on_c, 0, 60, 91
1, 54369, Control_c, 0, 64, 0
1, 54376, Note_off_c, 0, 55, 66
1, 54426, Note_off_c, 0, 60, 64
1, 54463, Note_on_c, 0, 48, 68
1, 54494, Note_off_c, 0, 48, 65
1, 54578, Note_on_c, 0, 67, 63
1, 54585, Note_on_c, 0, 36, 77
1, 54600, Control_c, 0, 64, 23
1, 54615, Control_c, 0, 64, 52
1, 54626, Note_on_c, 0, 68, 72
1, 54626, Note_off_c, 0, 67, 61
1, 54629, Control_c, 0, 64, 63
1, 54642, Note_off_c, 0, 36, 64
1, 54644, Control_c, 0, 64, 69
1, 54659, Control_c, 0, 64, 78
1, 54674, Control_c, 0, 64, 97
1, 54682, Note_on_c, 0, 48, 39
1, 54683, Note_off_c, 0, 68, 64
1, 54689, Control_c, 0, 64, 127
1, 54697, Note_on_c, 0, 67, 75
1, 54712, Note_off_c, 0, 48, 53
1, 54730, Note_off_c, 0, 67, 64
1, 54763, Note_on_c, 0, 80, 101
1, 54776, Note_on_c, 0, 59, 94
1, 54800, Note_off_c, 0, 80, 64
1, 54804, Note_on_c, 0, 51, 63
1, 54829, Note_on_c, 0, 54, 25
1, 54834, Note_off_c, 0, 59, 64
1, 54841, Note_off_c, 0, 51, 65
1, 54859, Note_on_c, 0, 49, 23
1, 54866, Note_on_c, 0, 47, 62
1, 54867, Note_off_c, 0, 54, 54
1, 54889, Note_off_c, 0, 47, 60
1, 54897, Note_off_c, 0, 49, 41
1, 54985, Control_c, 0, 64, 99
1, 54986, Note_on_c, 0, 56, 83
1, 54992, Note_on_c, 0, 35, 65
1, 55000, Control_c, 0, 64, 72
1, 55001, Note_on_c, 0, 36, 54
1, 55015, Control_c, 0, 64, 51
1, 55018, Note_on_c, 0, 37, 25
1, 55024, Note_off_c, 0, 56, 63
1, 55029, Control_c, 0, 64, 0
1, 55035, Note_off_c, 0, 35, 63
1, 55045, Note_off_c, 0, 36, 61
1, 55062, Note_off_c, 0, 37, 46
1, 55083, Note_on_c, 0, 57, 74
1, 55108, Note_off_c, 0, 57, 68
1, 55183, Note_on_c, 0, 58, 78
1, 55186, Note_on_c, 0, 55, 77
1, 55259, Note_off_c, 0, 55, 60
1, 55259, Note_off_c, 0, 58, 63
1, 55272, Note_on_c, 0, 59, 58
1, 55279, Note_on_c, 0, 62, 63
1, 55293, Note_on_c, 0, 43, 55
1, 55314, Note_off_c, 0, 59, 65
1, 55314, Note_off_c, 0, 62, 65
1, 55326, Note_off_c, 0, 43, 64
1, 55408, Note_on_c, 0, 59, 76
1, 55418, Note_on_c, 0, 38, 63
1, 55467, Note_off_c, 0, 59, 63
1, 55468, Note_off_c, 0, 38, 59
1, 55497, Note_on_c, 0, 60, 50
1, 55501, Note_on_c, 0, 63, 62
1, 55522, Note_off_c, 0, 60, 63
1, 55533, Note_off_c, 0, 63, 66
1, 55589, Note_on_c, 0, 55, 72
1, 55600, Note_on_c, 0, 60, 73
1, 55652, Note_off_c, 0, 55, 60
1, 55668, Note_off_c, 0, 60, 65
1, 55684, Note_on_c, 0, 43, 56
1, 55696, Note_on_c, 0, 61, 55
1, 55697, Note_on_c, 0, 64, 60
1, 55717, Note_off_c, 0, 43, 64
1, 55728, Note_off_c, 0, 61, 64
1, 55728, Note_off_c, 0, 64, 66
1, 55795, Note_on_c, 0, 61, 77
1, 55806, Note_on_c, 0, 38, 73
1, 55858, Note_off_c, 0, 61, 62
1, 55869, Note_off_c, 0, 38, 61
1, 55881, Note_on_c, 0, 62, 55
1, 55885, Note_on_c, 0, 65, 67
1, 55930, Note_off_c, 0, 62, 65
1, 55936, Note_off_c, 0, 65, 60
1, 55997, Note_on_c, 0, 55, 79
1, 56012, Note_on_c, 0, 62, 79
1, 56068, Note_off_c, 0, 55, 60
1, 56079, Note_off_c, 0, 62, 61
1, 56098, Note_on_c, 0, 43, 55
1, 56100, Note_on_c, 0, 63, 57
1, 56101, Note_on_c, 0, 66, 66
1, 56126, Note_off_c, 0, 43, 62
1, 56133, Note_off_c, 0, 63, 64
1, 56156, Note_off_c, 0, 66, 62
1, 56206, Note_on_c, 0, 63, 78
1, 56218, Note_on_c, 0, 38, 77
1, 56277, Note_off_c, 0, 63, 61
1, 56284, Note_off_c, 0, 38, 63
1, 56288, Note_on_c, 0, 64, 47
1, 56306, Note_on_c, 0, 67, 68
1, 56335, Note_off_c, 0, 64, 65
1, 56344, Note_off_c, 0, 67, 63
1, 56406, Note_on_c, 0, 55, 80
1, 56419, Note_on_c, 0, 64, 87
1, 56447, Note_on_c, 0, 49, 35
1, 56476, Note_off_c, 0, 49, 55
1, 56480, Note_off_c, 0, 55, 63
1, 56486, Note_off_c, 0, 64, 63
1, 56498, Note_on_c, 0, 43, 51
1, 56507, Note_on_c, 0, 65, 56
1, 56510, Note_on_c, 0, 68, 70
1, 56525, Note_off_c, 0, 43, 56
1, 56533, Note_off_c, 0, 65, 63
1, 56545, Note_off_c, 0, 68, 66
1, 56613, Note_on_c, 0, 65, 82
1, 56614, Note_on_c, 0, 38, 76
1, 56685, Note_off_c, 0, 65, 62
1, 56689, Note_off_c, 0, 38, 62
1, 56712, Note_on_c, 0, 66, 45
1, 56715, Note_on_c, 0, 69, 68
1, 56736, Note_off_c, 0, 66, 56
1, 56742, Note_off_c, 0, 69, 68
1, 56787, Control_c, 0, 64, 18
1, 56801, Control_c, 0, 64, 51
1, 56816, Control_c, 0, 64, 63
1, 56818, Note_on_c, 0, 57, 92
1, 56819, Note_on_c, 0, 73, 93
1, 56831, Control_c, 0, 64, 75
1, 56846, Control_c, 0, 64, 102
1, 56861, Control_c, 0, 64, 127
1, 56889, Note_off_c, 0, 57, 60
1, 56905, Note_on_c, 0, 45, 73
1, 56915, Note_on_c, 0, 69, 84
1, 56936, Note_on_c, 0, 72, 66
1, 56937, Note_off_c, 0, 45, 68
1, 56948, Note_off_c, 0, 73, 65
1, 56953, Note_off_c, 0, 69, 61
1, 56963, Note_off_c, 0, 72, 67
1, 57009, Note_on_c, 0, 72, 90
1, 57022, Note_on_c, 0, 69, 73
1, 57025, Note_on_c, 0, 38, 79
1, 57037, Note_on_c, 0, 73, 80
1, 57054, Control_c, 0, 64, 91
1, 57069, Control_c, 0, 64, 73
1, 57084, Control_c, 0, 64, 62
1, 57095, Note_off_c, 0, 38, 60
1, 57098, Control_c, 0, 64, 37
1, 57101, Note_on_c, 0, 68, 75
1, 57105, Note_on_c, 0, 71, 76
1, 57109, Note_off_c, 0, 69, 62
1, 57111, Note_on_c, 0, 50, 61
1, 57113, Control_c, 0, 64, 12
1, 57119, Note_off_c, 0, 73, 55
1, 57128, Note_off_c, 0, 72, 61
1, 57139, Note_off_c, 0, 50, 65
1, 57150, Note_off_c, 0, 71, 62
1, 57156, Note_off_c, 0, 68, 63
1, 57187, Control_c, 0, 64, 9
1, 57202, Control_c, 0, 64, 0
1, 57225, Note_on_c, 0, 73, 73
1, 57237, Note_on_c, 0, 57, 72
1, 57242, Note_on_c, 0, 71, 60
1, 57261, Note_on_c, 0, 68, 57
1, 57272, Note_on_c, 0, 72, 24
1, 57306, Note_off_c, 0, 57, 62
1, 57312, Note_off_c, 0, 72, 29
1, 57314, Note_off_c, 0, 68, 54
1, 57315, Note_on_c, 0, 70, 76
1, 57322, Note_on_c, 0, 67, 63
1, 57325, Note_on_c, 0, 45, 55
1, 57338, Note_off_c, 0, 71, 59
1, 57345, Note_off_c, 0, 73, 63
1, 57356, Note_off_c, 0, 45, 65
1, 57362, Note_off_c, 0, 67, 63
1, 57370, Note_off_c, 0, 70, 64
1, 57447, Note_on_c, 0, 73, 77
1, 57452, Note_on_c, 0, 67, 76
1, 57457, Note_on_c, 0, 70, 66
1, 57472, Note_on_c, 0, 38, 44
1, 57517, Note_off_c, 0, 38, 61
1, 57526, Note_on_c, 0, 69, 71
1, 57529, Note_off_c, 0, 67, 62
1, 57536, Note_off_c, 0, 73, 60
1, 57546, Note_off_c, 0, 70, 62
1, 57547, Note_on_c, 0, 66, 61
1, 57568, Note_off_c, 0, 69, 64
1, 57578, Note_off_c, 0, 66, 64
1, 57636, Note_on_c, 0, 66, 78
1, 57640, Note_on_c, 0, 57, 74
1, 57645, Note_on_c, 0, 73, 69
1, 57660, Note_on_c, 0, 69, 39
1, 57691, Note_off_c, 0, 69, 53
1, 57708, Note_off_c, 0, 66, 63
1, 57717, Note_off_c, 0, 57, 59
1, 57735, Note_on_c, 0, 68, 64
1, 57735, Note_off_c, 0, 73, 59
1, 57741, Note_on_c, 0, 45, 58
1, 57747, Note_on_c, 0, 65, 55
1, 57773, Note_off_c, 0, 45, 64
1, 57779, Note_off_c, 0, 68, 60
1, 57779, Note_off_c, 0, 65, 65
1, 57839, Note_on_c, 0, 73, 81
1, 57854, Note_on_c, 0, 65, 55
1, 57857, Note_on_c, 0, 38, 74
1, 57877, Note_off_c, 0, 65, 58
1, 57914, Note_off_c, 0, 38, 58
1, 57932, Note_on_c, 0, 67, 78
1, 57961, Note_on_c, 0, 64, 47
1, 57964, Note_off_c, 0, 73, 60
1, 57973, Note_off_c, 0, 67, 63
1, 57985, Note_off_c, 0, 64, 57
1, 58033, Note_on_c, 0, 57, 84
1, 58043, Note_on_c, 0, 73, 82
1, 58113, Note_off_c, 0, 57, 61
1, 58124, Note_on_c, 0, 66, 75
1, 58125, Note_on_c, 0, 62, 10
1, 58146, Note_on_c, 0, 45, 58
1, 58155, Note_off_c, 0, 73, 65
1, 58173, Note_off_c, 0, 62, 61
1, 58177, Note_off_c, 0, 45, 64
1, 58183, Note_off_c, 0, 66, 64
1, 58242, Note_on_c, 0, 74, 88
1, 58250, Note_on_c, 0, 38, 79
1, 58275, Note_on_c, 0, 62, 41
1, 58294, Note_off_c, 0, 62, 0
1, 58299, Control_c, 0, 64, 38
1, 58300, Note_off_c, 0, 38, 63
1, 58314, Control_c, 0, 64, 60
1, 58325, Note_on_c, 0, 62, 38
1, 58328, Control_c, 0, 64, 67
1, 58329, Note_on_c, 0, 66, 74
1, 58330, Note_off_c, 0, 74, 61
1, 58343, Control_c, 0, 64, 75
1, 58356, Note_off_c, 0, 66, 68
1, 58358, Note_off_c, 0, 62, 65
1, 58358, Control_c, 0, 64, 86
1, 58373, Control_c, 0, 64, 95
1, 58402, Control_c, 0, 64, 90
1, 58417, Control_c, 0, 64, 80
1, 58432, Note_on_c, 0, 58, 87
1, 58432, Control_c, 0, 64, 70
1, 58435, Note_on_c, 0, 61, 85
1, 58447, Control_c, 0, 64, 60
1, 58462, Control_c, 0, 64, 43
1, 58475, Note_on_c, 0, 49, 33
1, 58477, Control_c, 0, 64, 26
1, 58489, Note_off_c, 0, 61, 62
1, 58492, Control_c, 0, 64, 25
1, 58501, Note_on_c, 0, 62, 36
1, 58503, Note_off_c, 0, 58, 62
1, 58509, Note_off_c, 0, 49, 59
1, 58521, Control_c, 0, 64, 24
1, 58525, Note_on_c, 0, 65, 71
1, 58529, Note_on_c, 0, 46, 62
1, 58536, Control_c, 0, 64, 21
1, 58551, Control_c, 0, 64, 17
1, 58560, Note_off_c, 0, 62, 64
1, 58560, Note_off_c, 0, 46, 65
1, 58577, Note_off_c, 0, 65, 63
1, 58596, Control_c, 0, 64, 17
1, 58611, Control_c, 0, 64, 11
1, 58626, Control_c, 0, 64, 0
1, 58643, Note_on_c, 0, 62, 85
1, 58657, Note_on_c, 0, 40, 65
1, 58666, Note_on_c, 0, 41, 69
1, 58696, Note_off_c, 0, 40, 66
1, 58714, Note_off_c, 0, 41, 64
1, 58715, Note_off_c, 0, 62, 63
1, 58728, Note_on_c, 0, 63, 66
1, 58739, Note_on_c, 0, 66, 70
1, 58762, Note_off_c, 0, 63, 66
1, 58786, Note_off_c, 0, 66, 61
1, 58832, Note_on_c, 0, 58, 88
1, 58835, Note_on_c, 0, 63, 87
1, 58913, Note_off_c, 0, 58, 63
1, 58929, Note_off_c, 0, 63, 62
1, 58937, Note_on_c, 0, 64, 61
1, 58937, Note_on_c, 0, 67, 73
1, 58956, Note_on_c, 0, 46, 49
1, 58968, Note_off_c, 0, 64, 66
1, 58974, Note_off_c, 0, 67, 64
1, 58985, Note_off_c, 0, 46, 56
1, 59050, Note_on_c, 0, 64, 80
1, 59067, Note_on_c, 0, 41, 91
1, 59138, Note_off_c, 0, 64, 62
1, 59142, Note_on_c, 0, 65, 69
1, 59145, Note_on_c, 0, 68, 75
1, 59150, Note_off_c, 0, 41, 65
1, 59177, Note_off_c, 0, 65, 63
1, 59193, Note_off_c, 0, 68, 65
1, 59252, Note_on_c, 0, 65, 92
1, 59265, Note_on_c, 0, 58, 85
1, 59315, Note_on_c, 0, 49, 35
1, 59332, Note_off_c, 0, 65, 61
1, 59344, Note_off_c, 0, 58, 65
1, 59347, Note_on_c, 0, 66, 66
1, 59354, Note_on_c, 0, 69, 84
1, 59358, Note_off_c, 0, 49, 60
1, 59367, Note_on_c, 0, 46, 70
1, 59398, Note_off_c, 0, 46, 64
1, 59399, Note_off_c, 0, 66, 62
1, 59407, Note_off_c, 0, 69, 65
1, 59467, Note_on_c, 0, 66, 86
1, 59473, Note_on_c, 0, 41, 90
1, 59521, Control_c, 0, 64, 52
1, 59536, Control_c, 0, 64, 64
1, 59547, Note_off_c, 0, 66, 59
1, 59551, Control_c, 0, 64, 72
1, 59553, Note_on_c, 0, 67, 66
1, 59558, Note_on_c, 0, 70, 80
1, 59561, Note_off_c, 0, 41, 64
1, 59565, Control_c, 0, 64, 85
1, 59580, Control_c, 0, 64, 113
1, 59584, Note_off_c, 0, 67, 66
1, 59595, Control_c, 0, 64, 127
1, 59609, Note_off_c, 0, 70, 65
1, 59647, Control_c, 0, 64, 112
1, 59662, Control_c, 0, 64, 84
1, 59673, Note_on_c, 0, 67, 102
1, 59677, Control_c, 0, 64, 66
1, 59678, Note_on_c, 0, 58, 95
1, 59691, Control_c, 0, 64, 45
1, 59706, Control_c, 0, 64, 0
1, 59747, Note_on_c, 0, 49, 9
1, 59752, Note_off_c, 0, 67, 60
1, 59753, Note_off_c, 0, 58, 62
1, 59765, Note_on_c, 0, 68, 78
1, 59769, Note_on_c, 0, 71, 84
1, 59772, Note_off_c, 0, 49, 53
1, 59794, Note_on_c, 0, 46, 53
1, 59802, Note_off_c, 0, 68, 63
1, 59819, Note_off_c, 0, 71, 63
1, 59821, Note_off_c, 0, 46, 56
1, 59854, Control_c, 0, 64, 16
1, 59869, Control_c, 0, 64, 49
1, 59870, Note_on_c, 0, 68, 91
1, 59882, Note_on_c, 0, 41, 93
1, 59884, Control_c, 0, 64, 61
1, 59899, Control_c, 0, 64, 69
1, 59914, Control_c, 0, 64, 78
1, 59929, Control_c, 0, 64, 99
1, 59939, Note_off_c, 0, 68, 61
1, 59943, Control_c, 0, 64, 127
1, 59956, Note_on_c, 0, 69, 73
1, 59967, Note_on_c, 0, 72, 88
1, 59976, Note_off_c, 0, 41, 64
1, 59985, Note_off_c, 0, 69, 67
1, 59988, Poly_aftertouch_c, 0, 46, 0
1, 60009, Note_off_c, 0, 72, 67
1, 60077, Control_c, 0, 64, 90
1, 60078, Note_on_c, 0, 76, 108
1, 60083, Note_on_c, 0, 60, 92
1, 60091, Control_c, 0, 64, 65
1, 60106, Control_c, 0, 64, 0
1, 60146, Note_off_c, 0, 60, 63
1, 60161, Note_on_c, 0, 75, 76
1, 60163, Note_on_c, 0, 51, 2
1, 60166, Note_on_c, 0, 72, 74
1, 60184, Note_on_c, 0, 48, 63
1, 60188, Note_off_c, 0, 51, 46
1, 60201, Note_off_c, 0, 76, 62
1, 60211, Note_off_c, 0, 48, 63
1, 60215, Note_off_c, 0, 72, 63
1, 60218, Note_off_c, 0, 75, 64
1, 60264, Note_on_c, 0, 75, 85
1, 60267, Note_on_c, 0, 72, 86
1, 60276, Note_on_c, 0, 76, 85
1, 60279, Note_on_c, 0, 41, 85
1, 60329, Control_c, 0, 64, 41
1, 60344, Control_c, 0, 64, 61
1, 60357, Note_on_c, 0, 74, 83
1, 60357, Note_off_c, 0, 41, 64
1, 60359, Control_c, 0, 64, 70
1, 60367, Note_on_c, 0, 53, 69
1, 60370, Note_on_c, 0, 71, 83
1, 60372, Note_off_c, 0, 72, 65
1, 60373, Note_off_c, 0, 76, 63
1, 60374, Control_c, 0, 64, 84
1, 60396, Control_c, 0, 64, 127
1, 60397, Note_off_c, 0, 75, 66
1, 60401, Note_off_c, 0, 53, 66
1, 60414, Note_off_c, 0, 74, 65
1, 60422, Note_off_c, 0, 71, 64
1, 60470, Control_c, 0, 64, 102
1, 60480, Note_on_c, 0, 76, 89
1, 60485, Control_c, 0, 64, 88
1, 60486, Note_on_c, 0, 71, 89
1, 60488, Note_on_c, 0, 60, 82
1, 60491, Note_on_c, 0, 74, 86
1, 60500, Control_c, 0, 64, 77
1, 60514, Control_c, 0, 64, 69
1, 60529, Control_c, 0, 64, 63
1, 60544, Control_c, 0, 64, 56
1, 60546, Note_off_c, 0, 71, 58
1, 60547, Note_off_c, 0, 60, 60
1, 60559, Control_c, 0, 64, 52
1, 60560, Note_on_c, 0, 73, 81
1, 60572, Note_off_c, 0, 76, 66
1, 60573, Note_on_c, 0, 70, 83
1, 60574, Control_c, 0, 64, 50
1, 60579, Note_off_c, 0, 74, 62
1, 60588, Control_c, 0, 64, 48
1, 60602, Note_on_c, 0, 48, 42
1, 60603, Control_c, 0, 64, 39
1, 60607, Note_off_c, 0, 73, 64
1, 60614, Note_off_c, 0, 70, 63
1, 60618, Control_c, 0, 64, 0
1, 60635, Note_off_c, 0, 48, 34
1, 60685, Note_on_c, 0, 70, 82
1, 60685, Note_on_c, 0, 73, 81
1, 60686, Note_on_c, 0, 41, 80
1, 60686, Note_on_c, 0, 76, 81
1, 60722, Control_c, 0, 64, 33
1, 60737, Control_c, 0, 64, 58
1, 60752, Control_c, 0, 64, 65
1, 60753, Note_off_c, 0, 41, 65
1, 60763, Note_off_c, 0, 70, 61
1, 60766, Control_c, 0, 64, 72
1, 60767, Note_on_c, 0, 72, 84
1, 60777, Note_on_c, 0, 69, 77
1, 60781, Control_c, 0, 64, 81
1, 60783, Note_off_c, 0, 76, 62
1, 60796, Note_off_c, 0, 73, 65
1, 60796, Control_c, 0, 64, 91
1, 60811, Note_off_c, 0, 69, 64
1, 60811, Control_c, 0, 64, 97
1, 60824, Note_off_c, 0, 72, 65
1, 60826, Control_c, 0, 64, 97
1, 60841, Control_c, 0, 64, 95
1, 60856, Control_c, 0, 64, 93
1, 60871, Control_c, 0, 64, 92
1, 60875, Note_on_c, 0, 76, 89
1, 60881, Note_on_c, 0, 60, 82
1, 60885, Control_c, 0, 64, 91
1, 60899, Note_on_c, 0, 69, 80
1, 60900, Control_c, 0, 64, 90
1, 60915, Control_c, 0, 64, 89
1, 60930, Note_off_c, 0, 69, 61
1, 60930, Control_c, 0, 64, 89
1, 60945, Control_c, 0, 64, 88
1, 60951, Note_off_c, 0, 60, 58
1, 60973, Note_off_c, 0, 76, 62
1, 60975, Control_c, 0, 64, 87
1, 60981, Note_on_c, 0, 71, 76
1, 60990, Control_c, 0, 64, 87
1, 61005, Control_c, 0, 64, 86
1, 61008, Note_on_c, 0, 69, 35
1, 61008, Note_off_c, 0, 71, 64
1, 61020, Control_c, 0, 64, 82
1, 61031, Note_off_c, 0, 69, 58
1, 61034, Control_c, 0, 64, 70
1, 61049, Control_c, 0, 64, 54
1, 61064, Control_c, 0, 64, 0
1, 61078, Note_on_c, 0, 76, 96
1, 61079, Note_on_c, 0, 41, 85
1, 61097, Note_on_c, 0, 67, 65
1, 61109, Control_c, 0, 64, 41
1, 61111, Note_on_c, 0, 69, 51
1, 61124, Control_c, 0, 64, 60
1, 61142, Note_off_c, 0, 69, 58
1, 61145, Note_off_c, 0, 41, 64
1, 61145, Control_c, 0, 64, 68
1, 61160, Control_c, 0, 64, 80
1, 61175, Control_c, 0, 64, 116
1, 61181, Note_on_c, 0, 70, 56
1, 61189, Control_c, 0, 64, 127
1, 61192, Note_off_c, 0, 76, 61
1, 61204, Note_off_c, 0, 70, 43
1, 61219, Control_c, 0, 64, 116
1, 61231, Note_off_c, 0, 67, 61
1, 61231, Note_on_c, 0, 69, 28
1, 61234, Control_c, 0, 64, 100
1, 61249, Control_c, 0, 64, 99
1, 61258, Note_on_c, 0, 60, 91
1, 61264, Note_off_c, 0, 69, 53
1, 61264, Control_c, 0, 64, 107
1, 61275, Note_on_c, 0, 76, 101
1, 61279, Control_c, 0, 64, 127
1, 61302, Note_on_c, 0, 51, 42
1, 61319, Note_off_c, 0, 60, 59
1, 61336, Note_off_c, 0, 51, 47
1, 61354, Note_on_c, 0, 68, 84
1, 61374, Note_off_c, 0, 76, 62
1, 61442, Control_c, 0, 64, 75
1, 61447, Note_off_c, 0, 68, 59
1, 61448, Note_on_c, 0, 41, 86
1, 61449, Note_on_c, 0, 77, 95
1, 61457, Control_c, 0, 64, 51
1, 61471, Control_c, 0, 64, 27
1, 61482, Note_on_c, 0, 74, 51
1, 61486, Control_c, 0, 64, 51
1, 61501, Control_c, 0, 64, 66
1, 61516, Control_c, 0, 64, 94
1, 61531, Control_c, 0, 64, 127
1, 61533, Note_on_c, 0, 68, 86
1, 61544, Note_on_c, 0, 65, 70
1, 61545, Note_on_c, 0, 53, 92
1, 61553, Note_off_c, 0, 74, 37
1, 61561, Note_off_c, 0, 68, 63
1, 61571, Note_off_c, 0, 65, 68
1, 61583, Note_off_c, 0, 53, 62
1, 61583, Note_off_c, 0, 77, 67
1, 61614, Note_off_c, 0, 41, 64
1, 61739, Control_c, 0, 64, 81
1, 61754, Control_c, 0, 64, 59
1, 61768, Control_c, 0, 64, 61
1, 61783, Control_c, 0, 64, 75
1, 61791, Note_on_c, 0, 31, 96
1, 61792, Note_on_c, 0, 100, 104
1, 61798, Control_c, 0, 64, 127
1, 61801, Note_on_c, 0, 91, 96
1, 61807, Note_on_c, 0, 24, 68
1, 61809, Note_on_c, 0, 26, 70
1, 61821, Note_on_c, 0, 98, 56
1, 61833, Note_off_c, 0, 26, 63
1, 61833, Note_off_c, 0, 31, 65
1, 61833, Note_off_c, 0, 24, 61
1, 61839, Note_off_c, 0, 98, 62
1, 61845, Note_off_c, 0, 91, 64
1, 61896, Note_on_c, 0, 32, 79
1, 61897, Note_on_c, 0, 94, 97
1, 61905, Note_on_c, 0, 31, 38
1, 61908, Poly_aftertouch_c, 0, 96, 0
1, 61930, Note_off_c, 0, 100, 64
1, 61944, Note_on_c, 0, 91, 53
1, 61944, Note_off_c, 0, 31, 54
1, 61947, Note_off_c, 0, 32, 61
1, 61968, Note_off_c, 0, 94, 63
1, 61977, Note_off_c, 0, 91, 64
1, 61983, Control_c, 0, 64, 89
1, 61998, Control_c, 0, 64, 62
1, 62000, Note_on_c, 0, 101, 86
1, 62002, Note_on_c, 0, 33, 85
1, 62003, Note_on_c, 0, 100, 88
1, 62012, Note_on_c, 0, 26, 77
1, 62012, Control_c, 0, 64, 32
1, 62027, Control_c, 0, 64, 46
1, 62042, Control_c, 0, 64, 64
1, 62047, Note_off_c, 0, 101, 67
1, 62057, Control_c, 0, 64, 88
1, 62072, Control_c, 0, 64, 127
1, 62078, Note_off_c, 0, 100, 65
1, 62089, Note_on_c, 0, 34, 88
1, 62096, Note_on_c, 0, 88, 83
1, 62098, Note_on_c, 0, 92, 89
1, 62099, Note_off_c, 0, 33, 62
1, 62116, Note_off_c, 0, 26, 59
1, 62140, Note_off_c, 0, 34, 63
1, 62151, Note_off_c, 0, 92, 66
1, 62157, Note_off_c, 0, 88, 62
1, 62176, Control_c, 0, 64, 104
1, 62191, Control_c, 0, 64, 72
1, 62192, Note_on_c, 0, 95, 101
1, 62197, Note_on_c, 0, 88, 67
1, 62206, Note_on_c, 0, 35, 73
1, 62206, Control_c, 0, 64, 60
1, 62212, Note_on_c, 0, 28, 73
1, 62212, Note_on_c, 0, 36, 76
1, 62221, Control_c, 0, 64, 60
1, 62230, Note_off_c, 0, 88, 64
1, 62236, Control_c, 0, 64, 65
1, 62244, Note_off_c, 0, 36, 66
1, 62251, Control_c, 0, 64, 79
1, 62263, Note_on_c, 0, 29, 15
1, 62264, Note_off_c, 0, 29, 127
1, 62266, Control_c, 0, 64, 127
1, 62275, Note_off_c, 0, 35, 50
1, 62287, Note_on_c, 0, 90, 93
1, 62299, Note_on_c, 0, 36, 79
1, 62304, Note_off_c, 0, 95, 65
1, 62313, Poly_aftertouch_c, 0, 29, 0
1, 62319, Note_off_c, 0, 28, 63
1, 62337, Note_off_c, 0, 36, 62
1, 62338, Note_off_c, 0, 90, 65
1, 62340, Control_c, 0, 64, 106
1, 62355, Control_c, 0, 64, 77
1, 62369, Control_c, 0, 64, 68
1, 62384, Control_c, 0, 64, 68
1, 62390, Note_on_c, 0, 93, 93
1, 62395, Note_on_c, 0, 37, 90
1, 62397, Note_on_c, 0, 91, 79
1, 62399, Control_c, 0, 64, 75
1, 62407, Note_on_c, 0, 29, 73
1, 62412, Note_off_c, 0, 91, 64
1, 62413, Control_c, 0, 64, 127
1, 62450, Note_off_c, 0, 93, 66
1, 62462, Note_off_c, 0, 37, 60
1, 62483, Note_on_c, 0, 95, 97
1, 62484, Note_on_c, 0, 38, 83
1, 62505, Note_on_c, 0, 93, 35
1, 62510, Note_off_c, 0, 29, 59
1, 62534, Note_off_c, 0, 95, 66
1, 62537, Note_off_c, 0, 93, 43
1, 62538, Note_off_c, 0, 38, 63
1, 62548, Control_c, 0, 64, 85
1, 62563, Control_c, 0, 64, 65
1, 62578, Control_c, 0, 64, 57
1, 62582, Note_on_c, 0, 39, 93
1, 62585, Note_on_c, 0, 93, 104
1, 62592, Control_c, 0, 64, 62
1, 62597, Note_on_c, 0, 31, 74
1, 62607, Control_c, 0, 64, 70
1, 62622, Control_c, 0, 64, 116
1, 62644, Control_c, 0, 64, 127
1, 62680, Note_on_c, 0, 86, 88
1, 62689, Note_off_c, 0, 93, 64
1, 62695, Note_on_c, 0, 40, 79
1, 62705, Note_off_c, 0, 31, 61
1, 62721, Note_off_c, 0, 86, 66
1, 62728, Note_off_c, 0, 39, 60
1, 62733, Note_off_c, 0, 40, 64
1, 62763, Control_c, 0, 64, 92
1, 62778, Control_c, 0, 64, 65
1, 62784, Note_on_c, 0, 41, 95
1, 62789, Note_on_c, 0, 88, 95
1, 62792, Control_c, 0, 64, 44
1, 62800, Note_on_c, 0, 33, 79
1, 62807, Control_c, 0, 64, 52
1, 62822, Control_c, 0, 64, 62
1, 62837, Control_c, 0, 64, 74
1, 62851, Control_c, 0, 64, 127
1, 62874, Note_on_c, 0, 42, 90
1, 62881, Note_on_c, 0, 84, 67
1, 62883, Note_off_c, 0, 88, 63
1, 62885, Note_on_c, 0, 83, 69
1, 62891, Note_off_c, 0, 33, 58
1, 62898, Note_off_c, 0, 41, 64
1, 62912, Note_off_c, 0, 83, 66
1, 62917, Note_off_c, 0, 84, 65
1, 62929, Note_off_c, 0, 42, 64
1, 62954, Control_c, 0, 64, 70
1, 62969, Control_c, 0, 64, 0
1, 62978, Note_on_c, 0, 88, 104
1, 62982, Note_on_c, 0, 79, 91
1, 62985, Note_on_c, 0, 43, 93
1, 62993, Note_on_c, 0, 35, 78
1, 63014, Control_c, 0, 64, 23
1, 63029, Control_c, 0, 64, 60
1, 63043, Control_c, 0, 64, 75
1, 63058, Control_c, 0, 64, 127
1, 63071, Note_on_c, 0, 82, 89
1, 63072, Note_on_c, 0, 44, 89
1, 63077, Note_off_c, 0, 79, 65
1, 63087, Note_off_c, 0, 43, 64
1, 63103, Note_off_c, 0, 88, 63
1, 63105, Note_off_c, 0, 35, 61
1, 63115, Note_off_c, 0, 44, 64
1, 63117, Control_c, 0, 64, 110
1, 63129, Note_off_c, 0, 82, 66
1, 63132, Control_c, 0, 64, 66
1, 63147, Control_c, 0, 64, 0
1, 63178, Note_on_c, 0, 45, 94
1, 63182, Note_on_c, 0, 77, 99
1, 63182, Note_on_c, 0, 86, 92
1, 63183, Note_on_c, 0, 88, 88
1, 63191, Control_c, 0, 64, 56
1, 63192, Note_on_c, 0, 31, 73
1, 63193, Note_on_c, 0, 33, 69
1, 63206, Control_c, 0, 64, 76
1, 63220, Note_off_c, 0, 31, 63
1, 63221, Note_off_c, 0, 45, 66
1, 63221, Control_c, 0, 64, 127
1, 63231, Note_on_c, 0, 34, 9
1, 63240, Note_off_c, 0, 88, 49
1, 63264, Note_on_c, 0, 82, 83
1, 63265, Note_off_c, 0, 77, 65
1, 63269, Note_off_c, 0, 86, 65
1, 63281, Note_off_c, 0, 33, 60
1, 63284, Note_off_c, 0, 34, 52
1, 63288, Note_on_c, 0, 44, 90
1, 63295, Control_c, 0, 64, 76
1, 63309, Control_c, 0, 64, 55
1, 63324, Control_c, 0, 64, 0
1, 63325, Note_off_c, 0, 82, 64
1, 63336, Note_off_c, 0, 44, 64
1, 63377, Note_on_c, 0, 88, 102
1, 63387, Note_on_c, 0, 79, 93
1, 63392, Control_c, 0, 64, 57
1, 63401, Note_on_c, 0, 83, 63
1, 63407, Note_on_c, 0, 43, 91
1, 63407, Note_on_c, 0, 84, 65
1, 63407, Control_c, 0, 64, 73
1, 63422, Control_c, 0, 64, 127
1, 63422, Note_on_c, 0, 38, 70
1, 63433, Note_off_c, 0, 84, 65
1, 63464, Note_off_c, 0, 83, 0
1, 63471, Note_off_c, 0, 79, 52
1, 63483, Note_on_c, 0, 82, 85
1, 63491, Note_on_c, 0, 44, 68
1, 63496, Note_off_c, 0, 88, 62
1, 63496, Control_c, 0, 64, 74
1, 63509, Poly_aftertouch_c, 0, 83, 0
1, 63511, Note_off_c, 0, 38, 56
1, 63511, Control_c, 0, 64, 9
1, 63515, Note_off_c, 0, 43, 64
1, 63526, Control_c, 0, 64, 0
1, 63544, Note_off_c, 0, 44, 63
1, 63547, Note_off_c, 0, 82, 63
1, 63581, Note_on_c, 0, 89, 95
1, 63585, Control_c, 0, 64, 47
1, 63600, Control_c, 0, 64, 65
1, 63601, Note_on_c, 0, 45, 89
1, 63610, Note_on_c, 0, 38, 80
1, 63614, Control_c, 0, 64, 77
1, 63629, Control_c, 0, 64, 127
1, 63637, Note_off_c, 0, 89, 64
1, 63670, Note_on_c, 0, 83, 50
1, 63671, Note_on_c, 0, 80, 84
1, 63682, Note_on_c, 0, 46, 86
1, 63685, Note_on_c, 0, 76, 73
1, 63689, Note_off_c, 0, 38, 59
1, 63691, Note_off_c, 0, 83, 58
1, 63693, Note_off_c, 0, 45, 60
1, 63718, Control_c, 0, 64, 78
1, 63727, Note_off_c, 0, 46, 66
1, 63729, Note_off_c, 0, 76, 54
1, 63732, Note_off_c, 0, 80, 64
1, 63733, Control_c, 0, 64, 53
1, 63747, Control_c, 0, 64, 0
1, 63775, Note_on_c, 0, 83, 92
1, 63792, Control_c, 0, 64, 45
1, 63797, Note_on_c, 0, 47, 82
1, 63806, Note_on_c, 0, 40, 73
1, 63807, Control_c, 0, 64, 69
1, 63822, Control_c, 0, 64, 101
1, 63825, Note_on_c, 0, 48, 41
1, 63826, Note_off_c, 0, 48, 127
1, 63837, Control_c, 0, 64, 127
1, 63859, Note_on_c, 0, 78, 90
1, 63872, Note_off_c, 0, 47, 63
1, 63875, Note_on_c, 0, 48, 56
1, 63883, Note_off_c, 0, 83, 63
1, 63894, Note_off_c, 0, 40, 63
1, 63910, Poly_aftertouch_c, 0, 44, 0
1, 63919, Note_off_c, 0, 78, 65
1, 63926, Control_c, 0, 64, 111
1, 63928, Note_off_c, 0, 48, 63
1, 63940, Control_c, 0, 64, 69
1, 63955, Control_c, 0, 64, 0
1, 63967, Note_on_c, 0, 81, 100
1, 63977, Note_on_c, 0, 49, 93
1, 63999, Note_on_c, 0, 41, 71
1, 64014, Control_c, 0, 64, 35
1, 64029, Control_c, 0, 64, 65
1, 64044, Control_c, 0, 64, 86
1, 64050, Note_off_c, 0, 49, 63
1, 64053, Note_on_c, 0, 50, 81
1, 64058, Control_c, 0, 64, 127
1, 64060, Note_on_c, 0, 83, 92
1, 64081, Note_off_c, 0, 41, 62
1, 64087, Note_off_c, 0, 81, 65
1, 64108, Note_off_c, 0, 83, 65
1, 64111, Note_off_c, 0, 50, 64
1, 64141, Control_c, 0, 64, 83
1, 64156, Control_c, 0, 64, 59
1, 64164, Note_on_c, 0, 51, 94
1, 64170, Note_on_c, 0, 81, 104
1, 64170, Control_c, 0, 64, 0
1, 64189, Note_on_c, 0, 43, 70
1, 64200, Control_c, 0, 64, 30
1, 64212, Note_on_c, 0, 79, 54
1, 64215, Control_c, 0, 64, 60
1, 64230, Control_c, 0, 64, 76
1, 64245, Control_c, 0, 64, 127
1, 64248, Note_off_c, 0, 79, 47
1, 64254, Note_on_c, 0, 52, 83
1, 64258, Note_off_c, 0, 81, 63
1, 64268, Note_on_c, 0, 76, 72
1, 64269, Note_off_c, 0, 51, 63
1, 64275, Note_off_c, 0, 43, 62
1, 64289, Note_off_c, 0, 76, 65
1, 64302, Note_off_c, 0, 52, 67
1, 64334, Control_c, 0, 64, 81
1, 64349, Control_c, 0, 64, 61
1, 64362, Note_on_c, 0, 76, 94
1, 64363, Control_c, 0, 64, 20
1, 64367, Note_on_c, 0, 53, 94
1, 64378, Control_c, 0, 64, 30
1, 64379, Note_on_c, 0, 45, 79
1, 64394, Control_c, 0, 64, 52
1, 64409, Control_c, 0, 64, 67
1, 64424, Control_c, 0, 64, 90
1, 64438, Control_c, 0, 64, 127
1, 64452, Note_on_c, 0, 54, 85
1, 64457, Note_off_c, 0, 53, 65
1, 64463, Note_off_c, 0, 45, 63
1, 64466, Note_on_c, 0, 70, 80
1, 64470, Note_off_c, 0, 76, 64
1, 64506, Note_off_c, 0, 54, 65
1, 64525, Note_off_c, 0, 70, 61
1, 64542, Control_c, 0, 64, 76
1, 64557, Control_c, 0, 64, 50
1, 64559, Note_on_c, 0, 76, 97
1, 64566, Note_on_c, 0, 55, 96
1, 64571, Control_c, 0, 64, 0
1, 64576, Note_on_c, 0, 47, 82
1, 64579, Note_on_c, 0, 67, 70
1, 64586, Control_c, 0, 64, 20
1, 64601, Control_c, 0, 64, 47
1, 64608, Note_off_c, 0, 67, 64
1, 64615, Control_c, 0, 64, 64
1, 64630, Control_c, 0, 64, 82
1, 64645, Control_c, 0, 64, 127
1, 64650, Note_off_c, 0, 55, 60
1, 64652, Note_on_c, 0, 56, 86
1, 64653, Note_on_c, 0, 70, 81
1, 64660, Note_off_c, 0, 76, 62
1, 64704, Control_c, 0, 64, 97
1, 64717, Note_off_c, 0, 70, 60
1, 64719, Note_off_c, 0, 56, 62
1, 64719, Control_c, 0, 64, 67
1, 64734, Control_c, 0, 64, 23
1, 64749, Control_c, 0, 64, 0
1, 64750, Note_on_c, 0, 74, 96
1, 64751, Note_on_c, 0, 57, 92
1, 64756, Note_on_c, 0, 65, 83
1, 64764, Control_c, 0, 64, 35
1, 64779, Control_c, 0, 64, 58
1, 64793, Control_c, 0, 64, 70
1, 64808, Control_c, 0, 64, 98
1, 64810, Note_off_c, 0, 57, 64
1, 64813, Note_off_c, 0, 65, 59
1, 64823, Control_c, 0, 64, 127
1, 64825, Note_off_c, 0, 47, 62
1, 64841, Note_off_c, 0, 74, 64
1, 64842, Note_on_c, 0, 70, 81
1, 64861, Poly_aftertouch_c, 0, 51, 0
1, 64913, Note_off_c, 0, 70, 63
1, 64935, Control_c, 0, 64, 72
1, 64950, Control_c, 0, 64, 21
1, 64960, Note_on_c, 0, 76, 91
1, 64961, Note_on_c, 0, 68, 100
1, 64961, Note_on_c, 0, 71, 75
1, 64964, Note_on_c, 0, 36, 96
1, 64965, Control_c, 0, 64, 0
1, 65055, Note_off_c, 0, 71, 59
1, 65058, Note_on_c, 0, 37, 78
1, 65059, Note_off_c, 0, 76, 64
1, 65060, Note_on_c, 0, 70, 79
1, 65060, Note_off_c, 0, 36, 64
1, 65081, Note_off_c, 0, 68, 62
1, 65111, Note_off_c, 0, 70, 63
1, 65119, Note_off_c, 0, 37, 62
1, 65157, Note_on_c, 0, 38, 82
1, 65169, Note_on_c, 0, 69, 84
1, 65217, Note_off_c, 0, 38, 61
1, 65226, Note_off_c, 0, 69, 64
1, 65249, Note_on_c, 0, 39, 74
1, 65265, Note_on_c, 0, 68, 81
1, 65284, Note_off_c, 0, 39, 67
1, 65315, Note_off_c, 0, 68, 61
1, 65350, Control_c, 0, 64, 39
1, 65365, Control_c, 0, 64, 64
1, 65369, Note_on_c, 0, 67, 96
1, 65378, Note_on_c, 0, 52, 102
1, 65380, Control_c, 0, 64, 70
1, 65394, Control_c, 0, 64, 81
1, 65409, Control_c, 0, 64, 91
1, 65424, Control_c, 0, 64, 99
1, 65438, Control_c, 0, 64, 102
1, 65452, Note_off_c, 0, 52, 62
1, 65453, Control_c, 0, 64, 98
1, 65468, Control_c, 0, 64, 89
1, 65469, Note_on_c, 0, 68, 75
1, 65479, Note_on_c, 0, 51, 82
1, 65483, Control_c, 0, 64, 73
1, 65498, Control_c, 0, 64, 60
1, 65508, Note_off_c, 0, 67, 57
1, 65512, Control_c, 0, 64, 0
1, 65549, Note_on_c, 0, 69, 78
1, 65549, Note_off_c, 0, 51, 63
1, 65554, Note_off_c, 0, 68, 59
1, 65579, Note_on_c, 0, 50, 75
1, 65610, Note_off_c, 0, 69, 64
1, 65658, Note_off_c, 0, 50, 63
1, 65670, Note_on_c, 0, 49, 55
1, 65694, Note_off_c, 0, 49, 58
1, 65743, Control_c, 0, 64, 46
1, 65758, Control_c, 0, 64, 63
1, 65764, Note_on_c, 0, 76, 98
1, 65765, Note_on_c, 0, 68, 104
1, 65773, Control_c, 0, 64, 73
1, 65781, Note_on_c, 0, 36, 82
1, 65788, Control_c, 0, 64, 92
1, 65801, Note_on_c, 0, 69, 49
1, 65803, Control_c, 0, 64, 127
1, 65806, Note_on_c, 0, 35, 37
1, 65812, Note_on_c, 0, 67, 39
1, 65824, Note_off_c, 0, 69, 58
1, 65845, Note_on_c, 0, 70, 80
1, 65846, Note_off_c, 0, 35, 53
1, 65852, Note_off_c, 0, 67, 46
1, 65852, Note_off_c, 0, 76, 63
1, 65852, Note_on_c, 0, 37, 79
1, 65857, Note_off_c, 0, 36, 61
1, 65862, Note_off_c, 0, 68, 58
1, 65896, Note_off_c, 0, 70, 66
1, 65935, Control_c, 0, 64, 84
1, 65944, Note_off_c, 0, 37, 62
1, 65950, Control_c, 0, 64, 59
1, 65960, Note_on_c, 0, 38, 78
1, 65965, Control_c, 0, 64, 0
1, 65970, Note_on_c, 0, 69, 84
1, 66027, Note_off_c, 0, 69, 63
1, 66042, Note_off_c, 0, 38, 62
1, 66042, Note_on_c, 0, 39, 74
1, 66066, Note_on_c, 0, 68, 74
1, 66079, Note_off_c, 0, 39, 65
1, 66096, Note_off_c, 0, 68, 67
1, 66173, Control_c, 0, 64, 38
1, 66175, Note_on_c, 0, 67, 99
1, 66176, Note_on_c, 0, 52, 99
1, 66188, Control_c, 0, 64, 56
1, 66202, Control_c, 0, 64, 62
1, 66217, Control_c, 0, 64, 65
1, 66232, Control_c, 0, 64, 66
1, 66247, Control_c, 0, 64, 66
1, 66261, Control_c, 0, 64, 65
1, 66275, Note_on_c, 0, 68, 78
1, 66276, Control_c, 0, 64, 65
1, 66287, Note_on_c, 0, 51, 85
1, 66291, Note_off_c, 0, 52, 59
1, 66291, Note_off_c, 0, 67, 45
1, 66291, Control_c, 0, 64, 63
1, 66306, Control_c, 0, 64, 61
1, 66321, Control_c, 0, 64, 56
1, 66335, Control_c, 0, 64, 44
1, 66350, Control_c, 0, 64, 21
1, 66353, Note_off_c, 0, 51, 64
1, 66359, Note_off_c, 0, 68, 60
1, 66363, Note_on_c, 0, 69, 82
1, 66365, Control_c, 0, 64, 0
1, 66395, Note_on_c, 0, 50, 77
1, 66422, Note_off_c, 0, 69, 66
1, 66465, Note_off_c, 0, 50, 63
1, 66469, Note_on_c, 0, 49, 72
1, 66483, Note_on_c, 0, 70, 74
1, 66496, Note_off_c, 0, 49, 66
1, 66508, Note_off_c, 0, 70, 67
1, 66537, Control_c, 0, 64, 48
1, 66552, Control_c, 0, 64, 64
1, 66566, Control_c, 0, 64, 77
1, 66576, Note_on_c, 0, 74, 96
1, 66577, Note_on_c, 0, 66, 98
1, 66581, Control_c, 0, 64, 127
1, 66588, Note_on_c, 0, 34, 89
1, 66647, Note_on_c, 0, 33, 17
1, 66654, Note_on_c, 0, 68, 78
1, 66671, Note_off_c, 0, 74, 60
1, 66673, Note_off_c, 0, 34, 60
1, 66675, Note_on_c, 0, 35, 66
1, 66680, Note_off_c, 0, 66, 59
1, 66698, Note_off_c, 0, 33, 51
1, 66721, Note_off_c, 0, 68, 64
1, 66737, Note_off_c, 0, 35, 62
1, 66758, Control_c, 0, 64, 93
1, 66767, Note_on_c, 0, 36, 51
1, 66773, Control_c, 0, 64, 65
1, 66788, Note_on_c, 0, 67, 85
1, 66788, Control_c, 0, 64, 0
1, 66844, Note_off_c, 0, 67, 62
1, 66848, Note_on_c, 0, 37, 76
1, 66853, Note_off_c, 0, 36, 64
1, 66880, Note_on_c, 0, 66, 66
1, 66892, Note_off_c, 0, 37, 60
1, 66909, Note_off_c, 0, 66, 66
1, 66966, Control_c, 0, 64, 19
1, 66978, Note_on_c, 0, 65, 98
1, 66981, Control_c, 0, 64, 51
1, 66981, Note_on_c, 0, 50, 97
1, 66996, Control_c, 0, 64, 61
1, 67011, Control_c, 0, 64, 65
1, 67026, Control_c, 0, 64, 68
1, 67040, Control_c, 0, 64, 69
1, 67055, Control_c, 0, 64, 69
1, 67060, Note_off_c, 0, 50, 52
1, 67070, Control_c, 0, 64, 68
1, 67075, Note_on_c, 0, 66, 78
1, 67078, Note_on_c, 0, 49, 76
1, 67084, Control_c, 0, 64, 67
1, 67089, Note_off_c, 0, 65, 53
1, 67099, Control_c, 0, 64, 64
1, 67114, Control_c, 0, 64, 60
1, 67136, Control_c, 0, 64, 53
1, 67151, Control_c, 0, 64, 45
1, 67163, Note_off_c, 0, 49, 63
1, 67166, Control_c, 0, 64, 40
1, 67168, Note_off_c, 0, 66, 59
1, 67173, Note_on_c, 0, 67, 79
1, 67181, Control_c, 0, 64, 39
1, 67183, Note_on_c, 0, 48, 77
1, 67196, Control_c, 0, 64, 39
1, 67210, Control_c, 0, 64, 36
1, 67225, Control_c, 0, 64, 23
1, 67226, Note_off_c, 0, 67, 64
1, 67240, Control_c, 0, 64, 0
1, 67256, Note_off_c, 0, 48, 63
1, 67279, Note_on_c, 0, 47, 38
1, 67284, Note_on_c, 0, 68, 69
1, 67314, Note_off_c, 0, 68, 66
1, 67314, Note_off_c, 0, 47, 32
1, 67360, Control_c, 0, 64, 50
1, 67375, Control_c, 0, 64, 63
1, 67380, Note_on_c, 0, 68, 85
1, 67384, Note_on_c, 0, 34, 74
1, 67388, Control_c, 0, 64, 69
1, 67394, Note_on_c, 0, 38, 63
1, 67399, Note_on_c, 0, 62, 60
1, 67403, Control_c, 0, 64, 79
1, 67418, Control_c, 0, 64, 98
1, 67433, Control_c, 0, 64, 127
1, 67437, Note_off_c, 0, 62, 61
1, 67438, Note_on_c, 0, 39, 60
1, 67473, Note_on_c, 0, 69, 79
1, 67490, Note_off_c, 0, 38, 56
1, 67491, Note_on_c, 0, 35, 47
1, 67497, Note_off_c, 0, 68, 54
1, 67505, Note_off_c, 0, 39, 59
1, 67512, Note_off_c, 0, 69, 64
1, 67518, Note_off_c, 0, 34, 61
1, 67521, Control_c, 0, 64, 104
1, 67526, Note_off_c, 0, 35, 58
1, 67536, Control_c, 0, 64, 82
1, 67551, Control_c, 0, 64, 75
1, 67566, Control_c, 0, 64, 75
1, 67581, Control_c, 0, 64, 78
1, 67584, Note_on_c, 0, 74, 89
1, 67586, Note_on_c, 0, 70, 93
1, 67587, Note_on_c, 0, 36, 59
1, 67590, Note_on_c, 0, 40, 83
1, 67595, Control_c, 0, 64, 83
1, 67610, Control_c, 0, 64, 100
1, 67625, Control_c, 0, 64, 127
1, 67666, Note_off_c, 0, 70, 65
1, 67675, Note_on_c, 0, 69, 90
1, 67685, Note_on_c, 0, 41, 76
1, 67686, Note_on_c, 0, 37, 74
1, 67702, Note_off_c, 0, 40, 61
1, 67703, Note_off_c, 0, 74, 62
1, 67712, Note_off_c, 0, 69, 66
1, 67727, Note_off_c, 0, 36, 61
1, 67727, Note_off_c, 0, 37, 62
1, 67744, Note_off_c, 0, 41, 63
1, 67786, Note_on_c, 0, 38, 84
1, 67788, Note_on_c, 0, 42, 94
1, 67792, Note_on_c, 0, 68, 96
1, 67797, Note_on_c, 0, 80, 84
1, 67818, Note_off_c, 0, 80, 72
1, 67819, Note_on_c, 0, 70, 46
1, 67820, Note_off_c, 0, 70, 127
1, 67824, Note_on_c, 0, 78, 48
1, 67826, Note_on_c, 0, 75, 47
1, 67827, Note_off_c, 0, 68, 67
1, 67847, Note_off_c, 0, 78, 56
1, 67852, Note_on_c, 0, 69, 32
1, 67861, Note_off_c, 0, 75, 45
1, 67885, Note_on_c, 0, 81, 90
1, 67896, Note_off_c, 0, 69, 47
1, 67905, Note_on_c, 0, 39, 62
1, 67931, Note_off_c, 0, 81, 67
1, 67945, Note_off_c, 0, 39, 63
1, 67948, Note_off_c, 0, 38, 59
1, 67949, Note_off_c, 0, 42, 63
1, 67992, Note_on_c, 0, 74, 89
1, 67998, Note_on_c, 0, 86, 95
1, 68001, Note_on_c, 0, 40, 87
1, 68016, Note_on_c, 0, 43, 82
1, 68071, Note_off_c, 0, 74, 53
1, 68072, Note_on_c, 0, 81, 88
1, 68078, Note_on_c, 0, 41, 42
1, 68078, Note_off_c, 0, 86, 66
1, 68090, Note_off_c, 0, 43, 62
1, 68099, Note_off_c, 0, 40, 63
1, 68105, Note_off_c, 0, 41, 55
1, 68139, Note_off_c, 0, 81, 67
1, 68153, Control_c, 0, 64, 76
1, 68168, Control_c, 0, 64, 47
1, 68183, Control_c, 0, 64, 0
1, 68194, Note_on_c, 0, 48, 96
1, 68194, Note_on_c, 0, 83, 86
1, 68194, Note_on_c, 0, 88, 90
1, 68195, Note_on_c, 0, 80, 110
1, 68198, Control_c, 0, 64, 46
1, 68204, Note_on_c, 0, 36, 77
1, 68212, Control_c, 0, 64, 64
1, 68223, Note_on_c, 0, 35, 57
1, 68224, Note_off_c, 0, 35, 127
1, 68227, Control_c, 0, 64, 90
1, 68232, Note_on_c, 0, 79, 45
1, 68232, Note_off_c, 0, 48, 68
1, 68236, Note_off_c, 0, 36, 68
1, 68242, Control_c, 0, 64, 127
1, 68252, Note_on_c, 0, 81, 23
1, 68281, Note_on_c, 0, 82, 86
1, 68284, Note_off_c, 0, 88, 63
1, 68293, Note_off_c, 0, 81, 50
1, 68296, Note_off_c, 0, 80, 61
1, 68296, Note_off_c, 0, 83, 61
1, 68299, Note_on_c, 0, 49, 86
1, 68319, Note_on_c, 0, 37, 50
1, 68322, Note_off_c, 0, 49, 71
1, 68323, Note_on_c, 0, 50, 74
1, 68325, Note_off_c, 0, 82, 67
1, 68332, Note_off_c, 0, 79, 38
1, 68341, Note_on_c, 0, 38, 31
1, 68355, Note_on_c, 0, 36, 10
1, 68356, Note_off_c, 0, 37, 51
1, 68382, Note_off_c, 0, 36, 62
1, 68388, Note_on_c, 0, 81, 87
1, 68398, Poly_aftertouch_c, 0, 39, 127
1, 68433, Poly_aftertouch_c, 0, 39, 0
1, 68440, Note_off_c, 0, 38, 58
1, 68440, Note_off_c, 0, 81, 65
1, 68442, Note_off_c, 0, 50, 54
1, 68471, Note_on_c, 0, 80, 91
1, 68524, Note_off_c, 0, 80, 65
1, 68537, Control_c, 0, 64, 85
1, 68552, Control_c, 0, 64, 65
1, 68567, Control_c, 0, 64, 66
1, 68576, Note_on_c, 0, 64, 95
1, 68576, Note_on_c, 0, 79, 107
1, 68578, Note_on_c, 0, 52, 94
1, 68582, Control_c, 0, 64, 77
1, 68597, Control_c, 0, 64, 127
1, 68602, Note_on_c, 0, 54, 44
1, 68604, Note_off_c, 0, 64, 62
1, 68610, Note_on_c, 0, 56, 37
1, 68611, Note_off_c, 0, 56, 127
1, 68611, Note_off_c, 0, 52, 63
1, 68640, Note_off_c, 0, 54, 37
1, 68669, Note_on_c, 0, 80, 84
1, 68691, Note_on_c, 0, 51, 83
1, 68695, Note_on_c, 0, 62, 88
1, 68712, Note_off_c, 0, 79, 61
1, 68717, Note_on_c, 0, 50, 55
1, 68721, Note_off_c, 0, 62, 61
1, 68732, Note_off_c, 0, 51, 61
1, 68755, Note_on_c, 0, 81, 83
1, 68759, Note_off_c, 0, 80, 58
1, 68784, Note_on_c, 0, 51, 69
1, 68809, Note_on_c, 0, 54, 18
1, 68812, Note_on_c, 0, 60, 53
1, 68826, Note_off_c, 0, 81, 62
1, 68833, Note_off_c, 0, 60, 61
1, 68844, Note_on_c, 0, 52, 44
1, 68850, Note_off_c, 0, 54, 54
1, 68857, Note_on_c, 0, 81, 67
1, 68871, Note_off_c, 0, 52, 58
1, 68877, Note_off_c, 0, 50, 61
1, 68877, Note_off_c, 0, 51, 63
1, 68894, Note_off_c, 0, 81, 64
1, 68931, Control_c, 0, 64, 105
1, 68946, Control_c, 0, 64, 78
1, 68961, Control_c, 0, 64, 78
1, 68965, Note_on_c, 0, 80, 100
1, 68967, Note_on_c, 0, 88, 93
1, 68976, Control_c, 0, 64, 104
1, 68978, Note_on_c, 0, 48, 94
1, 68991, Note_on_c, 0, 36, 74
1, 68991, Control_c, 0, 64, 127
1, 69012, Note_off_c, 0, 48, 68
1, 69013, Note_on_c, 0, 37, 40
1, 69014, Note_off_c, 0, 36, 65
1, 69051, Note_on_c, 0, 82, 89
1, 69051, Note_off_c, 0, 88, 65
1, 69058, Note_off_c, 0, 37, 47
1, 69080, Note_off_c, 0, 80, 63
1, 69091, Note_on_c, 0, 49, 95
1, 69094, Note_off_c, 0, 82, 69
1, 69104, Note_on_c, 0, 37, 70
1, 69118, Note_on_c, 0, 39, 54
1, 69140, Note_off_c, 0, 37, 64
1, 69161, Note_on_c, 0, 38, 71
1, 69164, Note_on_c, 0, 81, 87
1, 69165, Note_off_c, 0, 49, 60
1, 69177, Note_off_c, 0, 39, 62
1, 69178, Note_on_c, 0, 50, 72
1, 69209, Note_on_c, 0, 48, 35
1, 69211, Note_on_c, 0, 40, 37
1, 69219, Note_off_c, 0, 81, 64
1, 69227, Note_off_c, 0, 38, 62
1, 69229, Note_off_c, 0, 48, 66
1, 69235, Note_off_c, 0, 50, 62
1, 69241, Note_off_c, 0, 40, 58
1, 69252, Note_on_c, 0, 80, 92
1, 69295, Note_off_c, 0, 80, 67
1, 69346, Control_c, 0, 64, 80
1, 69349, Note_on_c, 0, 64, 98
1, 69352, Note_on_c, 0, 79, 111
1, 69353, Note_on_c, 0, 52, 89
1, 69360, Control_c, 0, 64, 73
1, 69380, Note_on_c, 0, 56, 53
1, 69381, Note_off_c, 0, 56, 127
1, 69383, Control_c, 0, 64, 87
1, 69384, Note_on_c, 0, 54, 46
1, 69389, Note_off_c, 0, 52, 61
1, 69394, Note_off_c, 0, 64, 64
1, 69398, Control_c, 0, 64, 127
1, 69414, Note_off_c, 0, 54, 55
1, 69453, Note_on_c, 0, 80, 84
1, 69470, Note_on_c, 0, 63, 79
1, 69473, Note_on_c, 0, 51, 79
1, 69479, Note_on_c, 0, 61, 72
1, 69486, Note_off_c, 0, 79, 62
1, 69496, Note_on_c, 0, 54, 39
1, 69497, Note_off_c, 0, 54, 127
1, 69501, Note_off_c, 0, 61, 63
1, 69506, Note_off_c, 0, 51, 62
1, 69521, Note_off_c, 0, 63, 53
1, 69550, Note_on_c, 0, 81, 87
1, 69558, Note_off_c, 0, 80, 56
1, 69568, Note_on_c, 0, 62, 58
1, 69573, Note_on_c, 0, 50, 61
1, 69573, Note_on_c, 0, 51, 74
1, 69589, Note_on_c, 0, 48, 61
1, 69591, Note_on_c, 0, 60, 54
1, 69604, Note_off_c, 0, 62, 63
1, 69612, Note_off_c, 0, 60, 62
1, 69640, Note_off_c, 0, 81, 37
1, 69644, Note_on_c, 0, 82, 94
1, 69646, Note_off_c, 0, 50, 61
1, 69647, Note_off_c, 0, 51, 64
1, 69648, Note_off_c, 0, 48, 34
1, 69692, Control_c, 0, 64, 79
1, 69707, Control_c, 0, 64, 67
1, 69715, Note_off_c, 0, 82, 62
1, 69723, Control_c, 0, 64, 75
1, 69738, Control_c, 0, 64, 127
1, 69742, Note_on_c, 0, 44, 99
1, 69743, Note_on_c, 0, 84, 111
1, 69747, Note_on_c, 0, 32, 88
1, 69753, Note_on_c, 0, 76, 90
1, 69777, Note_off_c, 0, 32, 67
1, 69788, Note_off_c, 0, 44, 63
1, 69789, Note_on_c, 0, 34, 17
1, 69813, Note_off_c, 0, 76, 60
1, 69839, Note_on_c, 0, 78, 96
1, 69841, Note_off_c, 0, 34, 44
1, 69841, Note_off_c, 0, 84, 59
1, 69848, Note_on_c, 0, 45, 81
1, 69883, Note_off_c, 0, 45, 64
1, 69887, Note_off_c, 0, 78, 65
1, 69924, Poly_aftertouch_c, 0, 33, 127
1, 69953, Note_on_c, 0, 77, 93
1, 69957, Note_on_c, 0, 34, 79
1, 69959, Note_on_c, 0, 46, 87
1, 69961, Poly_aftertouch_c, 0, 33, 0
1, 70012, Note_off_c, 0, 34, 63
1, 70018, Note_off_c, 0, 46, 64
1, 70037, Note_on_c, 0, 76, 85
1, 70049, Note_off_c, 0, 77, 45
1, 70093, Note_off_c, 0, 76, 62
1, 70093, Control_c, 0, 64, 65
1, 70108, Control_c, 0, 64, 0
1, 70139, Note_on_c, 0, 60, 96
1, 70144, Note_on_c, 0, 75, 96
1, 70152, Note_on_c, 0, 48, 71
1, 70158, Note_on_c, 0, 47, 72
1, 70160, Control_c, 0, 64, 58
1, 70175, Control_c, 0, 64, 86
1, 70177, Note_off_c, 0, 60, 64
1, 70183, Note_off_c, 0, 48, 67
1, 70187, Note_off_c, 0, 47, 65
1, 70189, Control_c, 0, 64, 127
1, 70234, Note_off_c, 0, 75, 47
1, 70240, Note_on_c, 0, 76, 90
1, 70248, Note_on_c, 0, 59, 82
1, 70270, Note_on_c, 0, 52, 51
1, 70276, Note_off_c, 0, 59, 66
1, 70300, Note_on_c, 0, 50, 39
1, 70320, Note_off_c, 0, 76, 64
1, 70328, Note_on_c, 0, 77, 90
1, 70352, Note_on_c, 0, 58, 84
1, 70356, Note_on_c, 0, 46, 80
1, 70362, Note_off_c, 0, 50, 60
1, 70364, Note_off_c, 0, 52, 56
1, 70381, Note_off_c, 0, 77, 61
1, 70400, Note_off_c, 0, 58, 65
1, 70424, Note_off_c, 0, 46, 62
1, 70424, Note_on_c, 0, 78, 87
1, 70471, Control_c, 0, 64, 68
1, 70477, Note_off_c, 0, 78, 63
1, 70486, Control_c, 0, 64, 0
1, 70525, Note_on_c, 0, 48, 72
1, 70527, Note_on_c, 0, 78, 90
1, 70529, Note_on_c, 0, 44, 80
1, 70546, Control_c, 0, 64, 31
1, 70559, Note_off_c, 0, 48, 66
1, 70561, Control_c, 0, 64, 61
1, 70570, Note_on_c, 0, 71, 33
1, 70576, Control_c, 0, 64, 72
1, 70578, Note_on_c, 0, 72, 47
1, 70591, Control_c, 0, 64, 101
1, 70599, Note_off_c, 0, 44, 64
1, 70604, Note_off_c, 0, 71, 52
1, 70605, Control_c, 0, 64, 127
1, 70610, Note_off_c, 0, 72, 51
1, 70613, Note_on_c, 0, 79, 82
1, 70643, Note_off_c, 0, 78, 57
1, 70663, Note_on_c, 0, 47, 73
1, 70663, Note_off_c, 0, 79, 67
1, 70666, Note_on_c, 0, 43, 71
1, 70694, Control_c, 0, 64, 73
1, 70709, Control_c, 0, 64, 52
1, 70720, Note_on_c, 0, 84, 96
1, 70723, Control_c, 0, 64, 15
1, 70731, Note_on_c, 0, 80, 88
1, 70738, Control_c, 0, 64, 36
1, 70752, Note_on_c, 0, 46, 80
1, 70753, Control_c, 0, 64, 56
1, 70768, Control_c, 0, 64, 70
1, 70775, Note_off_c, 0, 47, 58
1, 70782, Note_on_c, 0, 42, 78
1, 70783, Control_c, 0, 64, 127
1, 70785, Note_off_c, 0, 43, 63
1, 70806, Note_on_c, 0, 79, 87
1, 70806, Note_off_c, 0, 80, 66
1, 70820, Note_off_c, 0, 46, 64
1, 70824, Note_off_c, 0, 42, 64
1, 70827, Note_off_c, 0, 84, 65
1, 70845, Note_off_c, 0, 79, 68
1, 70891, Note_on_c, 0, 45, 89
1, 70895, Note_on_c, 0, 41, 91
1, 70921, Note_on_c, 0, 78, 110
1, 70926, Note_on_c, 0, 90, 87
1, 70939, Note_on_c, 0, 85, 64
1, 70946, Note_off_c, 0, 90, 69
1, 70951, Note_on_c, 0, 87, 49
1, 70965, Note_off_c, 0, 78, 68
1, 70972, Note_off_c, 0, 85, 61
1, 70979, Note_off_c, 0, 41, 62
1, 70980, Note_on_c, 0, 44, 79
1, 70991, Poly_aftertouch_c, 0, 40, 127
1, 70991, Note_on_c, 0, 40, 27
1, 71006, Note_on_c, 0, 91, 99
1, 71015, Note_off_c, 0, 45, 60
1, 71045, Note_off_c, 0, 87, 40
1, 71047, Note_off_c, 0, 44, 64
1, 71051, Note_off_c, 0, 91, 67
1, 71069, Note_off_c, 0, 40, 60
1, 71108, Note_on_c, 0, 43, 89
1, 71117, Note_on_c, 0, 39, 89
1, 71117, Note_on_c, 0, 84, 106
1, 71117, Note_on_c, 0, 96, 107
1, 71130, Note_on_c, 0, 94, 86
1, 71135, Note_on_c, 0, 38, 50
1, 71151, Note_off_c, 0, 94, 70
1, 71164, Note_off_c, 0, 84, 63
1, 71213, Note_on_c, 0, 91, 97
1, 71215, Note_off_c, 0, 38, 60
1, 71217, Note_off_c, 0, 43, 60
1, 71218, Note_off_c, 0, 39, 59
1, 71237, Note_off_c, 0, 96, 66
1, 71256, Note_off_c, 0, 91, 67
1, 71294, Control_c, 0, 64, 84
1, 71309, Control_c, 0, 64, 61
1, 71320, Note_on_c, 0, 43, 95
1, 71325, Control_c, 0, 64, 44
1, 71334, Note_on_c, 0, 38, 69
1, 71336, Note_on_c, 0, 36, 77
1, 71337, Note_on_c, 0, 100, 108
1, 71339, Note_on_c, 0, 91, 101
1, 71339, Control_c, 0, 64, 54
1, 71354, Control_c, 0, 64, 65
1, 71366, Note_off_c, 0, 36, 60
1, 71369, Control_c, 0, 64, 79
1, 71384, Control_c, 0, 64, 127
1, 71395, Note_off_c, 0, 91, 64
1, 71414, Note_off_c, 0, 38, 0
1, 71432, Note_on_c, 0, 44, 82
1, 71438, Note_on_c, 0, 38, 11
1, 71440, Note_on_c, 0, 94, 93
1, 71456, Note_off_c, 0, 43, 63
1, 71463, Note_off_c, 0, 100, 63
1, 71469, Note_off_c, 0, 38, 57
1, 71490, Note_off_c, 0, 44, 63
1, 71515, Note_off_c, 0, 94, 63
1, 71517, Control_c, 0, 64, 74
1, 71532, Control_c, 0, 64, 0
1, 71544, Note_on_c, 0, 101, 100
1, 71548, Note_on_c, 0, 45, 90
1, 71551, Note_on_c, 0, 38, 78
1, 71561, Note_on_c, 0, 97, 69
1, 71591, Control_c, 0, 64, 58
1, 71598, Note_off_c, 0, 101, 66
1, 71606, Control_c, 0, 64, 74
1, 71628, Control_c, 0, 64, 127
1, 71645, Note_on_c, 0, 92, 90
1, 71647, Note_on_c, 0, 88, 85
1, 71647, Note_on_c, 0, 46, 89
1, 71652, Note_off_c, 0, 97, 58
1, 71662, Note_off_c, 0, 38, 63
1, 71667, Note_off_c, 0, 45, 60
1, 71695, Note_off_c, 0, 92, 63
1, 71697, Note_off_c, 0, 46, 64
1, 71702, Control_c, 0, 64, 104
1, 71703, Note_on_c, 0, 91, 19
1, 71717, Control_c, 0, 64, 67
1, 71723, Note_off_c, 0, 88, 48
1, 71732, Control_c, 0, 64, 0
1, 71733, Note_off_c, 0, 91, 34
1, 71747, Note_on_c, 0, 95, 98
1, 71748, Note_on_c, 0, 47, 91
1, 71761, Note_on_c, 0, 96, 58
1, 71762, Note_off_c, 0, 96, 127
1, 71765, Note_on_c, 0, 40, 73
1, 71791, Control_c, 0, 64, 59
1, 71806, Control_c, 0, 64, 75
1, 71820, Control_c, 0, 64, 127
1, 71828, Note_on_c, 0, 90, 91
1, 71843, Note_off_c, 0, 47, 62
1, 71843, Note_on_c, 0, 48, 80
1, 71848, Note_off_c, 0, 95, 64
1, 71858, Note_off_c, 0, 40, 63
1, 71882, Note_off_c, 0, 90, 65
1, 71891, Note_off_c, 0, 48, 65
1, 71910, Control_c, 0, 64, 85
1, 71925, Control_c, 0, 64, 63
1, 71932, Note_on_c, 0, 93, 98
1, 71940, Control_c, 0, 64, 24
1, 71945, Note_on_c, 0, 49, 93
1, 71954, Control_c, 0, 64, 21
1, 71963, Note_on_c, 0, 41, 72
1, 71969, Control_c, 0, 64, 47
1, 71984, Control_c, 0, 64, 64
1, 71999, Control_c, 0, 64, 92
1, 72014, Control_c, 0, 64, 127
1, 72026, Note_on_c, 0, 95, 96
1, 72028, Note_on_c, 0, 50, 87
1, 72028, Note_off_c, 0, 49, 62
1, 72047, Note_off_c, 0, 41, 63
1, 72051, Note_off_c, 0, 93, 63
1, 72078, Note_off_c, 0, 50, 64
1, 72079, Note_off_c, 0, 95, 65
1, 72103, Control_c, 0, 64, 83
1, 72117, Control_c, 0, 64, 60
1, 72124, Note_on_c, 0, 51, 92
1, 72127, Note_on_c, 0, 95, 85
1, 72129, Note_on_c, 0, 93, 84
1, 72133, Control_c, 0, 64, 0
1, 72147, Note_on_c, 0, 43, 71
1, 72162, Note_on_c, 0, 91, 56
1, 72163, Control_c, 0, 64, 43
1, 72177, Control_c, 0, 64, 64
1, 72180, Note_off_c, 0, 91, 61
1, 72192, Note_off_c, 0, 95, 65
1, 72192, Control_c, 0, 64, 94
1, 72207, Control_c, 0, 64, 127
1, 72208, Note_off_c, 0, 93, 66
1, 72219, Note_on_c, 0, 52, 85
1, 72226, Note_on_c, 0, 88, 65
1, 72228, Note_off_c, 0, 43, 61
1, 72242, Note_off_c, 0, 88, 65
1, 72247, Note_off_c, 0, 51, 37
1, 72265, Note_off_c, 0, 52, 66
1, 72281, Control_c, 0, 64, 91
1, 72296, Control_c, 0, 64, 66
1, 72311, Control_c, 0, 64, 44
1, 72320, Note_on_c, 0, 88, 92
1, 72326, Control_c, 0, 64, 39
1, 72329, Note_on_c, 0, 53, 85
1, 72331, Note_on_c, 0, 55, 80
1, 72333, Note_on_c, 0, 45, 70
1, 72341, Control_c, 0, 64, 51
1, 72353, Note_on_c, 0, 47, 66
1, 72356, Control_c, 0, 64, 63
1, 72377, Control_c, 0, 64, 83
1, 72392, Control_c, 0, 64, 127
1, 72411, Note_on_c, 0, 54, 85
1, 72415, Note_off_c, 0, 47, 38
1, 72419, Note_off_c, 0, 45, 59
1, 72419, Note_off_c, 0, 53, 63
1, 72426, Note_off_c, 0, 55, 0
1, 72439, Note_off_c, 0, 88, 65
1, 72451, Note_on_c, 0, 83, 51
1, 72461, Note_off_c, 0, 54, 62
1, 72461, Poly_aftertouch_c, 0, 55, 0
1, 72472, Note_off_c, 0, 83, 62
1, 72481, Control_c, 0, 64, 89
1, 72496, Control_c, 0, 64, 62
1, 72511, Control_c, 0, 64, 0
1, 72520, Note_on_c, 0, 55, 91
1, 72523, Note_on_c, 0, 88, 102
1, 72532, Note_on_c, 0, 79, 75
1, 72533, Note_on_c, 0, 47, 76
1, 72556, Control_c, 0, 64, 42
1, 72570, Control_c, 0, 64, 66
1, 72585, Control_c, 0, 64, 90
1, 72600, Control_c, 0, 64, 127
1, 72609, Note_off_c, 0, 79, 60
1, 72612, Note_on_c, 0, 56, 84
1, 72612, Note_off_c, 0, 55, 56
1, 72619, Note_on_c, 0, 82, 84
1, 72633, Note_off_c, 0, 88, 61
1, 72659, Control_c, 0, 64, 78
1, 72674, Control_c, 0, 64, 55
1, 72677, Note_off_c, 0, 82, 65
1, 72689, Control_c, 0, 64, 22
1, 72701, Note_on_c, 0, 57, 93
1, 72703, Control_c, 0, 64, 42
1, 72705, Note_off_c, 0, 56, 62
1, 72708, Note_on_c, 0, 86, 102
1, 72713, Note_on_c, 0, 77, 91
1, 72718, Control_c, 0, 64, 60
1, 72733, Control_c, 0, 64, 74
1, 72742, Note_on_c, 0, 51, 41
1, 72748, Control_c, 0, 64, 127
1, 72759, Note_off_c, 0, 57, 64
1, 72765, Note_on_c, 0, 56, 68
1, 72778, Note_off_c, 0, 51, 54
1, 72785, Note_off_c, 0, 47, 62
1, 72790, Note_off_c, 0, 56, 69
1, 72792, Note_on_c, 0, 82, 82
1, 72793, Note_off_c, 0, 77, 64
1, 72806, Note_off_c, 0, 86, 61
1, 72851, Control_c, 0, 64, 87
1, 72857, Note_off_c, 0, 82, 63
1, 72866, Control_c, 0, 64, 48
1, 72881, Control_c, 0, 64, 0
1, 72890, Note_on_c, 0, 43, 98
1, 72900, Note_on_c, 0, 88, 102
1, 72901, Note_on_c, 0, 36, 74
1, 72905, Note_on_c, 0, 79, 87
1, 72910, Note_on_c, 0, 83, 70
1, 72924, Note_on_c, 0, 86, 50
1, 72925, Note_off_c, 0, 86, 127
1, 72928, Note_off_c, 0, 36, 65
1, 72933, Note_on_c, 0, 85, 46
1, 72934, Note_off_c, 0, 43, 63
1, 72940, Note_on_c, 0, 84, 39
1, 72941, Note_off_c, 0, 84, 127
1, 72956, Note_off_c, 0, 85, 63
1, 72971, Note_off_c, 0, 79, 56
1, 72994, Note_on_c, 0, 82, 84
1, 72997, Note_off_c, 0, 83, 41
1, 73002, Note_off_c, 0, 88, 63
1, 73005, Note_on_c, 0, 45, 69
1, 73007, Note_on_c, 0, 44, 35
1, 73033, Note_off_c, 0, 45, 66
1, 73046, Note_off_c, 0, 44, 33
1, 73048, Note_off_c, 0, 82, 63
1, 73098, Note_on_c, 0, 89, 95
1, 73106, Note_on_c, 0, 45, 71
1, 73108, Note_on_c, 0, 79, 58
1, 73127, Note_on_c, 0, 38, 68
1, 73135, Note_off_c, 0, 79, 63
1, 73164, Note_off_c, 0, 89, 64
1, 73186, Note_off_c, 0, 38, 55
1, 73197, Note_off_c, 0, 45, 60
1, 73200, Note_on_c, 0, 80, 81
1, 73203, Note_on_c, 0, 46, 76
1, 73238, Note_off_c, 0, 46, 66
1, 73250, Note_off_c, 0, 80, 65
1, 73260, Control_c, 0, 64, 51
1, 73274, Control_c, 0, 64, 59
1, 73289, Control_c, 0, 64, 60
1, 73304, Control_c, 0, 64, 59
1, 73307, Note_on_c, 0, 47, 89
1, 73310, Note_on_c, 0, 84, 84
1, 73312, Note_on_c, 0, 83, 86
1, 73319, Control_c, 0, 64, 56
1, 73322, Note_on_c, 0, 40, 66
1, 73325, Note_on_c, 0, 82, 59
1, 73334, Control_c, 0, 64, 45
1, 73348, Note_off_c, 0, 82, 65
1, 73349, Control_c, 0, 64, 0
1, 73389, Note_off_c, 0, 47, 62
1, 73394, Note_on_c, 0, 48, 77
1, 73395, Note_on_c, 0, 78, 88
1, 73397, Note_off_c, 0, 84, 58
1, 73402, Note_off_c, 0, 83, 61
1, 73405, Note_off_c, 0, 40, 61
1, 73446, Note_off_c, 0, 48, 62
1, 73447, Note_off_c, 0, 78, 65
1, 73490, Note_on_c, 0, 49, 85
1, 73508, Note_on_c, 0, 81, 78
1, 73510, Note_on_c, 0, 83, 81
1, 73527, Note_on_c, 0, 41, 56
1, 73560, Note_off_c, 0, 83, 60
1, 73562, Note_off_c, 0, 49, 58
1, 73565, Note_off_c, 0, 81, 64
1, 73579, Note_on_c, 0, 50, 76
1, 73594, Note_on_c, 0, 83, 79
1, 73598, Note_off_c, 0, 41, 63
1, 73630, Note_off_c, 0, 50, 63
1, 73638, Note_off_c, 0, 83, 63
1, 73674, Control_c, 0, 64, 25
1, 73682, Note_on_c, 0, 51, 94
1, 73688, Control_c, 0, 64, 53
1, 73689, Note_on_c, 0, 83, 89
1, 73699, Note_on_c, 0, 81, 71
1, 73703, Control_c, 0, 64, 62
1, 73709, Note_on_c, 0, 43, 65
1, 73719, Control_c, 0, 64, 67
1, 73734, Control_c, 0, 64, 72
1, 73748, Control_c, 0, 64, 80
1, 73763, Control_c, 0, 64, 88
1, 73766, Note_off_c, 0, 83, 63
1, 73769, Note_on_c, 0, 52, 82
1, 73778, Note_on_c, 0, 76, 66
1, 73778, Control_c, 0, 64, 94
1, 73785, Note_off_c, 0, 81, 0
1, 73787, Note_off_c, 0, 43, 62
1, 73793, Control_c, 0, 64, 96
1, 73795, Note_off_c, 0, 76, 65
1, 73811, Note_off_c, 0, 51, 57
1, 73811, Poly_aftertouch_c, 0, 81, 0
1, 73819, Note_off_c, 0, 52, 67
1, 73823, Control_c, 0, 64, 96
1, 73837, Control_c, 0, 64, 94
1, 73852, Control_c, 0, 64, 86
1, 73875, Control_c, 0, 64, 70
1, 73890, Note_on_c, 0, 76, 89
1, 73890, Control_c, 0, 64, 56
1, 73897, Note_on_c, 0, 53, 93
1, 73904, Control_c, 0, 64, 22
1, 73906, Note_on_c, 0, 45, 75
1, 73919, Control_c, 0, 64, 19
1, 73934, Control_c, 0, 64, 33
1, 73941, Note_on_c, 0, 47, 50
1, 73948, Control_c, 0, 64, 51
1, 73963, Control_c, 0, 64, 63
1, 73970, Note_off_c, 0, 47, 35
1, 73978, Control_c, 0, 64, 69
1, 73980, Note_on_c, 0, 54, 84
1, 73981, Note_off_c, 0, 53, 65
1, 73984, Note_off_c, 0, 45, 62
1, 73993, Note_off_c, 0, 76, 62
1, 73993, Control_c, 0, 64, 79
1, 74008, Control_c, 0, 64, 94
1, 74017, Note_on_c, 0, 70, 61
1, 74022, Control_c, 0, 64, 123
1, 74031, Note_off_c, 0, 54, 64
1, 74037, Control_c, 0, 64, 127
1, 74048, Note_off_c, 0, 70, 66
1, 74052, Control_c, 0, 64, 97
1, 74067, Control_c, 0, 64, 72
1, 74082, Control_c, 0, 64, 49
1, 74091, Note_on_c, 0, 76, 104
1, 74095, Note_on_c, 0, 55, 93
1, 74097, Control_c, 0, 64, 0
1, 74099, Note_on_c, 0, 47, 77
1, 74140, Note_on_c, 0, 67, 32
1, 74142, Control_c, 0, 64, 46
1, 74156, Control_c, 0, 64, 62
1, 74167, Note_off_c, 0, 55, 56
1, 74171, Control_c, 0, 64, 71
1, 74174, Note_off_c, 0, 67, 33
1, 74185, Note_on_c, 0, 56, 80
1, 74186, Control_c, 0, 64, 86
1, 74189, Note_off_c, 0, 76, 63
1, 74191, Note_on_c, 0, 70, 80
1, 74201, Control_c, 0, 64, 127
1, 74230, Control_c, 0, 64, 106
1, 74245, Note_off_c, 0, 70, 63
1, 74245, Control_c, 0, 64, 67
1, 74252, Note_off_c, 0, 56, 62
1, 74260, Control_c, 0, 64, 0
1, 74278, Note_on_c, 0, 74, 97
1, 74279, Note_on_c, 0, 57, 89
1, 74285, Note_on_c, 0, 65, 82
1, 74319, Control_c, 0, 64, 42
1, 74334, Control_c, 0, 64, 66
1, 74348, Note_off_c, 0, 65, 51
1, 74348, Control_c, 0, 64, 85
1, 74350, Note_on_c, 0, 56, 85
1, 74353, Note_off_c, 0, 57, 65
1, 74363, Note_on_c, 0, 70, 81
1, 74363, Control_c, 0, 64, 127
1, 74374, Note_off_c, 0, 56, 71
1, 74374, Note_off_c, 0, 74, 55
1, 74381, Note_off_c, 0, 47, 61
1, 74421, Note_off_c, 0, 70, 64
1, 74466, Control_c, 0, 64, 99
1, 74472, Note_on_c, 0, 76, 102
1, 74476, Note_on_c, 0, 71, 22
1, 74477, Note_on_c, 0, 43, 89
1, 74481, Control_c, 0, 64, 68
1, 74483, Note_on_c, 0, 67, 85
1, 74489, Note_on_c, 0, 45, 76
1, 74496, Note_on_c, 0, 36, 57
1, 74496, Control_c, 0, 64, 17
1, 74499, Note_on_c, 0, 72, 58
1, 74505, Note_on_c, 0, 38, 53
1, 74509, Note_off_c, 0, 45, 62
1, 74511, Control_c, 0, 64, 0
1, 74521, Note_off_c, 0, 72, 38
1, 74523, Note_off_c, 0, 43, 62
1, 74526, Note_off_c, 0, 36, 57
1, 74535, Note_off_c, 0, 38, 59
1, 74541, Note_off_c, 0, 67, 47
1, 74542, Note_off_c, 0, 71, 60
1, 74562, Note_on_c, 0, 44, 81
1, 74573, Note_on_c, 0, 70, 81
1, 74574, Note_off_c, 0, 76, 63
1, 74625, Note_off_c, 0, 44, 62
1, 74639, Note_off_c, 0, 70, 60
1, 74680, Note_on_c, 0, 77, 88
1, 74690, Note_on_c, 0, 45, 72
1, 74700, Note_on_c, 0, 38, 61
1, 74716, Note_on_c, 0, 74, 25
1, 74732, Note_off_c, 0, 77, 65
1, 74751, Note_off_c, 0, 74, 32
1, 74773, Note_on_c, 0, 68, 84
1, 74776, Note_on_c, 0, 46, 82
1, 74778, Note_off_c, 0, 45, 50
1, 74786, Note_off_c, 0, 38, 60
1, 74801, Note_on_c, 0, 64, 53
1, 74820, Note_off_c, 0, 46, 62
1, 74822, Note_off_c, 0, 64, 60
1, 74827, Note_off_c, 0, 68, 63
1, 74860, Control_c, 0, 64, 17
1, 74875, Note_on_c, 0, 71, 93
1, 74875, Control_c, 0, 64, 56
1, 74884, Note_on_c, 0, 47, 91
1, 74890, Control_c, 0, 64, 71
1, 74898, Note_on_c, 0, 40, 71
1, 74905, Control_c, 0, 64, 95
1, 74920, Control_c, 0, 64, 127
1, 74936, Note_off_c, 0, 47, 60
1, 74949, Control_c, 0, 64, 121
1, 74964, Control_c, 0, 64, 83
1, 74966, Note_on_c, 0, 66, 80
1, 74971, Note_on_c, 0, 48, 81
1, 74972, Note_off_c, 0, 71, 59
1, 74977, Note_off_c, 0, 40, 59
1, 74979, Control_c, 0, 64, 64
1, 74994, Control_c, 0, 64, 49
1, 75009, Control_c, 0, 64, 26
1, 75014, Note_off_c, 0, 48, 63
1, 75018, Note_off_c, 0, 66, 64
1, 75024, Control_c, 0, 64, 16
1, 75053, Control_c, 0, 64, 15
1, 75068, Control_c, 0, 64, 9
1, 75069, Note_on_c, 0, 69, 91
1, 75070, Note_on_c, 0, 49, 86
1, 75083, Control_c, 0, 64, 0
1, 75098, Note_on_c, 0, 41, 64
1, 75140, Note_off_c, 0, 49, 60
1, 75154, Note_on_c, 0, 50, 77
1, 75160, Note_on_c, 0, 71, 91
1, 75176, Note_off_c, 0, 41, 63
1, 75182, Note_off_c, 0, 69, 32
1, 75204, Note_off_c, 0, 50, 63
1, 75206, Note_off_c, 0, 71, 62
1, 75258, Note_on_c, 0, 51, 94
1, 75260, Note_on_c, 0, 69, 92
1, 75260, Control_c, 0, 64, 33
1, 75274, Note_on_c, 0, 71, 63
1, 75274, Note_on_c, 0, 43, 73
1, 75275, Control_c, 0, 64, 59
1, 75280, Note_off_c, 0, 71, 49
1, 75290, Control_c, 0, 64, 69
1, 75304, Control_c, 0, 64, 85
1, 75315, Note_off_c, 0, 69, 63
1, 75321, Control_c, 0, 64, 127
1, 75347, Note_on_c, 0, 52, 83
1, 75355, Note_off_c, 0, 43, 61
1, 75355, Note_off_c, 0, 51, 62
1, 75405, Note_off_c, 0, 52, 66
1, 75432, Control_c, 0, 64, 82
1, 75447, Control_c, 0, 64, 55
1, 75462, Control_c, 0, 64, 0
1, 75462, Note_on_c, 0, 53, 91
1, 75473, Note_on_c, 0, 45, 80
1, 75474, Note_on_c, 0, 64, 94
1, 75505, Note_on_c, 0, 57, 53
1, 75506, Control_c, 0, 64, 47
1, 75520, Control_c, 0, 64, 65
1, 75532, Note_off_c, 0, 57, 54
1, 75535, Control_c, 0, 64, 87
1, 75543, Note_on_c, 0, 54, 87
1, 75546, Note_off_c, 0, 53, 62
1, 75550, Control_c, 0, 64, 127
1, 75563, Note_off_c, 0, 45, 61
1, 75581, Note_off_c, 0, 64, 59
1, 75594, Control_c, 0, 64, 76
1, 75604, Note_off_c, 0, 54, 65
1, 75609, Control_c, 0, 64, 57
1, 75625, Control_c, 0, 64, 0
1, 75653, Note_on_c, 0, 64, 98
1, 75655, Control_c, 0, 64, 30
1, 75659, Note_on_c, 0, 55, 95
1, 75669, Note_on_c, 0, 47, 78
1, 75669, Control_c, 0, 64, 57
1, 75674, Note_on_c, 0, 57, 69
1, 75684, Control_c, 0, 64, 67
1, 75699, Control_c, 0, 64, 74
1, 75713, Note_off_c, 0, 57, 53
1, 75714, Control_c, 0, 64, 71
1, 75728, Control_c, 0, 64, 58
1, 75743, Control_c, 0, 64, 0
1, 75745, Note_on_c, 0, 54, 81
1, 75753, Note_off_c, 0, 55, 61
1, 75769, Note_off_c, 0, 64, 60
1, 75772, Note_off_c, 0, 47, 61
1, 75776, Note_on_c, 0, 58, 68
1, 75784, Note_off_c, 0, 54, 65
1, 75809, Note_off_c, 0, 58, 66
1, 75855, Note_on_c, 0, 53, 89
1, 75856, Note_on_c, 0, 62, 90
1, 75864, Note_on_c, 0, 43, 80
1, 75865, Note_on_c, 0, 57, 79
1, 75882, Note_on_c, 0, 60, 48
1, 75883, Note_off_c, 0, 60, 127
1, 75897, Note_off_c, 0, 57, 66
1, 75921, Note_off_c, 0, 53, 60
1, 75930, Note_on_c, 0, 52, 61
1, 75951, Note_on_c, 0, 58, 81
1, 75951, Note_off_c, 0, 62, 64
1, 75969, Note_off_c, 0, 43, 62
1, 75969, Note_off_c, 0, 52, 67
1, 75993, Note_off_c, 0, 58, 62
1, 76055, Control_c, 0, 64, 48
1, 76058, Note_on_c, 0, 64, 100
1, 76061, Note_on_c, 0, 55, 89
1, 76062, Note_on_c, 0, 43, 89
1, 76064, Note_on_c, 0, 36, 79
1, 76064, Note_on_c, 0, 59, 80
1, 76069, Control_c, 0, 64, 68
1, 76084, Control_c, 0, 64, 84
1, 76089, Note_on_c, 0, 61, 57
1, 76099, Control_c, 0, 64, 127
1, 76146, Note_off_c, 0, 36, 56
1, 76153, Note_on_c, 0, 44, 83
1, 76157, Note_off_c, 0, 43, 64
1, 76161, Note_off_c, 0, 59, 61
1, 76162, Note_on_c, 0, 58, 82
1, 76166, Note_off_c, 0, 64, 61
1, 76169, Note_off_c, 0, 61, 61
1, 76175, Note_off_c, 0, 55, 58
1, 76186, Note_off_c, 0, 58, 71
1, 76196, Control_c, 0, 64, 87
1, 76197, Note_off_c, 0, 44, 62
1, 76211, Control_c, 0, 64, 66
1, 76225, Control_c, 0, 64, 39
1, 76240, Control_c, 0, 64, 0
1, 76277, Note_on_c, 0, 48, 75
1, 76283, Note_on_c, 0, 53, 86
1, 76285, Note_on_c, 0, 50, 65
1, 76315, Note_off_c, 0, 50, 64
1, 76320, Note_off_c, 0, 48, 61
1, 76320, Note_off_c, 0, 53, 61
1, 76361, Note_on_c, 0, 47, 75
1, 76373, Note_on_c, 0, 54, 77
1, 76392, Note_off_c, 0, 47, 66
1, 76400, Note_off_c, 0, 54, 68
1, 76478, Note_on_c, 0, 65, 97
1, 76479, Note_on_c, 0, 36, 73
1, 76483, Note_on_c, 0, 60, 82
1, 76487, Note_on_c, 0, 57, 80
1, 76490, Note_on_c, 0, 43, 65
1, 76507, Control_c, 0, 64, 44
1, 76522, Control_c, 0, 64, 60
1, 76537, Control_c, 0, 64, 68
1, 76538, Note_off_c, 0, 43, 63
1, 76547, Note_off_c, 0, 36, 64
1, 76551, Control_c, 0, 64, 79
1, 76566, Control_c, 0, 64, 117
1, 76567, Note_off_c, 0, 57, 61
1, 76579, Note_off_c, 0, 60, 61
1, 76580, Note_on_c, 0, 59, 71
1, 76581, Control_c, 0, 64, 127
1, 76589, Note_off_c, 0, 65, 58
1, 76607, Note_on_c, 0, 47, 52
1, 76612, Note_off_c, 0, 59, 67
1, 76625, Control_c, 0, 64, 85
1, 76633, Note_off_c, 0, 47, 59
1, 76640, Control_c, 0, 64, 67
1, 76655, Control_c, 0, 64, 39
1, 76670, Control_c, 0, 64, 0
1, 76690, Note_on_c, 0, 48, 79
1, 76705, Note_on_c, 0, 53, 81
1, 76734, Note_off_c, 0, 48, 61
1, 76734, Note_off_c, 0, 53, 68
1, 76778, Note_on_c, 0, 47, 69
1, 76800, Note_on_c, 0, 54, 71
1, 76814, Note_off_c, 0, 47, 65
1, 76818, Note_off_c, 0, 54, 65
1, 76899, Control_c, 0, 64, 33
1, 76905, Note_on_c, 0, 64, 85
1, 76908, Note_on_c, 0, 55, 80
1, 76915, Control_c, 0, 64, 54
1, 76916, Note_on_c, 0, 36, 67
1, 76916, Note_on_c, 0, 43, 69
1, 76930, Control_c, 0, 64, 63
1, 76935, Note_on_c, 0, 65, 35
1, 76936, Note_off_c, 0, 65, 127
1, 76937, Note_on_c, 0, 60, 39
1, 76945, Control_c, 0, 64, 72
1, 76946, Note_on_c, 0, 59, 48
1, 76958, Note_off_c, 0, 55, 58
1, 76960, Control_c, 0, 64, 84
1, 76966, Note_off_c, 0, 60, 55
1, 76974, Control_c, 0, 64, 106
1, 76989, Note_on_c, 0, 44, 77
1, 76989, Control_c, 0, 64, 127
1, 76993, Note_off_c, 0, 43, 62
1, 76994, Note_off_c, 0, 36, 60
1, 77009, Note_off_c, 0, 59, 60
1, 77018, Note_off_c, 0, 64, 61
1, 77019, Control_c, 0, 64, 107
1, 77024, Note_on_c, 0, 58, 66
1, 77029, Note_off_c, 0, 44, 63
1, 77034, Control_c, 0, 64, 82
1, 77048, Control_c, 0, 64, 68
1, 77054, Note_off_c, 0, 58, 66
1, 77063, Control_c, 0, 64, 55
1, 77078, Control_c, 0, 64, 30
1, 77093, Control_c, 0, 64, 0
1, 77115, Note_on_c, 0, 48, 74
1, 77129, Note_on_c, 0, 53, 80
1, 77159, Note_off_c, 0, 53, 68
1, 77162, Note_off_c, 0, 48, 62
1, 77196, Note_on_c, 0, 47, 73
1, 77223, Note_on_c, 0, 54, 72
1, 77234, Note_off_c, 0, 47, 64
1, 77248, Note_off_c, 0, 54, 68
1, 77315, Control_c, 0, 64, 24
1, 77322, Note_on_c, 0, 64, 88
1, 77326, Note_on_c, 0, 43, 71
1, 77328, Note_on_c, 0, 55, 75
1, 77329, Note_on_c, 0, 59, 67
1, 77330, Control_c, 0, 64, 55
1, 77340, Note_on_c, 0, 36, 58
1, 77345, Control_c, 0, 64, 65
1, 77355, Note_off_c, 0, 55, 66
1, 77358, Note_off_c, 0, 59, 64
1, 77360, Control_c, 0, 64, 73
1, 77374, Control_c, 0, 64, 90
1, 77384, Note_off_c, 0, 64, 64
1, 77389, Control_c, 0, 64, 127
1, 77392, Note_off_c, 0, 36, 60
1, 77397, Note_on_c, 0, 44, 77
1, 77398, Note_off_c, 0, 43, 63
1, 77446, Note_off_c, 0, 44, 62
1, 77493, Control_c, 0, 64, 119
1, 77508, Control_c, 0, 64, 79
1, 77509, Note_on_c, 0, 63, 117
1, 77522, Control_c, 0, 64, 61
1, 77537, Control_c, 0, 64, 0
1, 77540, Note_off_c, 0, 63, 68
1, 77616, Note_on_c, 0, 49, 89
1, 77629, Note_on_c, 0, 37, 67
1, 77648, Control_c, 0, 64, 47
1, 77656, Note_off_c, 0, 37, 58
1, 77659, Note_off_c, 0, 49, 62
1, 77663, Control_c, 0, 64, 127
1, 77730, Note_on_c, 0, 39, 110
1, 77764, Note_off_c, 0, 39, 63
1, 77785, Note_on_c, 0, 45, 13
1, 77831, Note_off_c, 0, 45, 49
1, 77832, Note_on_c, 0, 50, 94
1, 77841, Note_on_c, 0, 38, 80
1, 77889, Note_off_c, 0, 38, 61
1, 77896, Note_off_c, 0, 50, 58
1, 77939, Note_on_c, 0, 50, 91
1, 77960, Control_c, 0, 64, 74
1, 77972, Note_off_c, 0, 50, 65
1, 77975, Control_c, 0, 64, 52
1, 77989, Control_c, 0, 64, 0
1, 78046, Note_on_c, 0, 50, 82
1, 78052, Note_on_c, 0, 38, 69
1, 78087, Note_off_c, 0, 50, 61
1, 78091, Note_off_c, 0, 38, 61
1, 78158, Note_on_c, 0, 50, 77
1, 78172, Poly_aftertouch_c, 0, 54, 0
1, 78186, Note_off_c, 0, 50, 66
1, 78255, Note_on_c, 0, 50, 70
1, 78277, Note_on_c, 0, 38, 47
1, 78293, Note_off_c, 0, 50, 64
1, 78309, Note_off_c, 0, 38, 58
1, 78348, Note_on_c, 0, 50, 68
1, 78389, Note_off_c, 0, 50, 63
1, 78447, Note_on_c, 0, 50, 76
1, 78449, Note_on_c, 0, 38, 62
1, 78473, Note_off_c, 0, 50, 66
1, 78494, Note_off_c, 0, 38, 62
1, 78516, Control_c, 0, 64, 40
1, 78531, Control_c, 0, 64, 87
1, 78544, Note_on_c, 0, 51, 99
1, 78545, Note_on_c, 0, 48, 104
1, 78545, Note_on_c, 0, 54, 97
1, 78546, Control_c, 0, 64, 127
1, 78586, Note_off_c, 0, 48, 65
1, 78597, Note_off_c, 0, 51, 64
1, 78604, Note_off_c, 0, 54, 68
1, 78622, Note_on_c, 0, 38, 92
1, 78626, Note_on_c, 0, 26, 89
1, 78663, Note_off_c, 0, 26, 64
1, 78667, Note_off_c, 0, 38, 61
1, 78753, Control_c, 0, 64, 83
1, 78759, Note_on_c, 0, 50, 86
1, 78768, Control_c, 0, 64, 64
1, 78783, Control_c, 0, 64, 29
1, 78798, Control_c, 0, 64, 0
1, 78801, Note_off_c, 0, 50, 63
1, 78871, Note_on_c, 0, 50, 69
1, 78875, Note_on_c, 0, 38, 58
1, 78914, Note_off_c, 0, 50, 61
1, 78924, Note_off_c, 0, 38, 61
1, 78971, Note_on_c, 0, 50, 69
1, 79004, Note_off_c, 0, 50, 66
1, 79070, Note_on_c, 0, 50, 72
1, 79079, Note_on_c, 0, 38, 59
1, 79105, Note_off_c, 0, 50, 65
1, 79129, Note_off_c, 0, 38, 58
1, 79167, Note_on_c, 0, 50, 72
1, 79199, Note_off_c, 0, 50, 65
1, 79259, Note_on_c, 0, 50, 78
1, 79268, Note_on_c, 0, 38, 65
1, 79298, Note_off_c, 0, 50, 62
1, 79316, Note_off_c, 0, 38, 62
1, 79365, Note_on_c, 0, 38, 65
1, 79367, Note_on_c, 0, 36, 70
1, 79391, Note_off_c, 0, 36, 61
1, 79400, Note_off_c, 0, 38, 63
1, 79460, Note_on_c, 0, 50, 74
1, 79469, Note_on_c, 0, 38, 66
1, 79514, Note_off_c, 0, 50, 58
1, 79517, Control_c, 0, 67, 16
1, 79519, Note_off_c, 0, 38, 60
1, 79532, Control_c, 0, 67, 35
1, 79547, Control_c, 0, 67, 49
1, 79561, Control_c, 0, 67, 59
1, 79573, Note_on_c, 0, 38, 62
1, 79576, Control_c, 0, 67, 67
1, 79591, Control_c, 0, 67, 70
1, 79601, Note_off_c, 0, 38, 60
1, 79606, Control_c, 0, 67, 70
1, 79635, Control_c, 0, 67, 72
1, 79650, Control_c, 0, 67, 72
1, 79665, Control_c, 0, 67, 73
1, 79671, Note_on_c, 0, 50, 67
1, 79674, Note_on_c, 0, 38, 63
1, 79680, Control_c, 0, 67, 74
1, 79695, Control_c, 0, 67, 76
1, 79710, Note_off_c, 0, 50, 64
1, 79722, Note_off_c, 0, 38, 59
1, 79740, Control_c, 0, 67, 77
1, 79770, Note_on_c, 0, 38, 61
1, 79796, Note_off_c, 0, 38, 58
1, 79829, Control_c, 0, 67, 77
1, 79878, Note_on_c, 0, 38, 62
1, 79881, Note_on_c, 0, 50, 62
1, 79910, Control_c, 0, 67, 77
1, 79918, Note_off_c, 0, 50, 63
1, 79930, Note_off_c, 0, 38, 59
1, 79954, Control_c, 0, 64, 24
1, 79969, Control_c, 0, 64, 46
1, 79969, Note_on_c, 0, 38, 72
1, 79984, Control_c, 0, 64, 56
1, 79999, Control_c, 0, 64, 60
1, 80002, Note_off_c, 0, 38, 63
1, 80014, Control_c, 0, 64, 61
1, 80043, Control_c, 0, 64, 60
1, 80058, Control_c, 0, 64, 60
1, 80068, Note_on_c, 0, 38, 65
1, 80069, Note_on_c, 0, 50, 69
1, 80073, Control_c, 0, 64, 59
1, 80087, Control_c, 0, 64, 59
1, 80087, Control_c, 0, 67, 78
1, 80100, Note_off_c, 0, 50, 63
1, 80102, Control_c, 0, 64, 58
1, 80102, Control_c, 0, 67, 78
1, 80113, Note_off_c, 0, 38, 56
1, 80117, Control_c, 0, 64, 55
1, 80117, Control_c, 0, 67, 80
1, 80131, Control_c, 0, 64, 50
1, 80131, Control_c, 0, 67, 80
1, 80146, Control_c, 0, 64, 45
1, 80146, Control_c, 0, 67, 82
1, 80160, Note_on_c, 0, 50, 79
1, 80161, Control_c, 0, 64, 39
1, 80161, Control_c, 0, 67, 83
1, 80176, Control_c, 0, 64, 32
1, 80189, Note_off_c, 0, 50, 67
1, 80190, Control_c, 0, 64, 24
1, 80190, Control_c, 0, 67, 82
1, 80205, Control_c, 0, 64, 12
1, 80205, Control_c, 0, 67, 80
1, 80220, Control_c, 0, 64, 0
1, 80220, Control_c, 0, 67, 79
1, 80235, Control_c, 0, 67, 78
1, 80250, Control_c, 0, 67, 77
1, 80255, Note_on_c, 0, 50, 69
1, 80258, Note_on_c, 0, 38, 63
1, 80264, Control_c, 0, 67, 76
1, 80279, Control_c, 0, 67, 75
1, 80293, Note_off_c, 0, 50, 64
1, 80294, Control_c, 0, 67, 75
1, 80306, Note_off_c, 0, 38, 57
1, 80309, Control_c, 0, 67, 74
1, 80339, Control_c, 0, 67, 73
1, 80358, Note_on_c, 0, 50, 73
1, 80385, Note_off_c, 0, 50, 66
1, 80445, Note_on_c, 0, 50, 69
1, 80464, Note_on_c, 0, 38, 48
1, 80481, Note_off_c, 0, 50, 63
1, 80500, Note_off_c, 0, 38, 58
1, 80502, Control_c, 0, 67, 74
1, 80517, Control_c, 0, 67, 75
1, 80550, Note_on_c, 0, 50, 69
1, 80577, Note_off_c, 0, 50, 66
1, 80655, Note_on_c, 0, 50, 62
1, 80669, Note_on_c, 0, 38, 51
1, 80700, Note_off_c, 0, 50, 58
1, 80710, Note_off_c, 0, 38, 61
1, 80753, Note_on_c, 0, 51, 70
1, 80761, Note_on_c, 0, 49, 61
1, 80784, Note_off_c, 0, 51, 67
1, 80785, Note_off_c, 0, 49, 63
1, 80820, Control_c, 0, 67, 74
1, 80866, Note_on_c, 0, 50, 65
1, 80878, Note_on_c, 0, 38, 50
1, 80899, Note_off_c, 0, 50, 65
1, 80908, Note_off_c, 0, 38, 56
1, 80955, Control_c, 0, 67, 73
1, 80959, Note_on_c, 0, 52, 75
1, 80962, Note_on_c, 0, 48, 73
1, 80984, Control_c, 0, 67, 72
1, 80986, Note_off_c, 0, 52, 68
1, 80989, Note_off_c, 0, 48, 66
1, 80999, Control_c, 0, 67, 72
1, 81043, Control_c, 0, 67, 71
1, 81058, Control_c, 0, 67, 70
1, 81079, Note_on_c, 0, 50, 68
1, 81087, Note_on_c, 0, 38, 50
1, 81102, Control_c, 0, 67, 72
1, 81114, Note_off_c, 0, 50, 63
1, 81117, Control_c, 0, 67, 73
1, 81120, Note_off_c, 0, 38, 60
1, 81132, Control_c, 0, 67, 75
1, 81158, Note_on_c, 0, 52, 64
1, 81159, Note_on_c, 0, 48, 54
1, 81162, Control_c, 0, 67, 75
1, 81176, Control_c, 0, 67, 77
1, 81191, Note_off_c, 0, 52, 66
1, 81191, Control_c, 0, 67, 77
1, 81192, Note_off_c, 0, 48, 64
1, 81206, Control_c, 0, 67, 78
1, 81266, Control_c, 0, 67, 78
1, 81276, Note_on_c, 0, 50, 58
1, 81280, Note_on_c, 0, 38, 50
1, 81280, Control_c, 0, 67, 79
1, 81310, Control_c, 0, 67, 80
1, 81311, Note_off_c, 0, 50, 62
1, 81319, Note_off_c, 0, 38, 61
1, 81340, Control_c, 0, 67, 80
1, 81361, Control_c, 0, 67, 81
1, 81369, Note_on_c, 0, 52, 60
1, 81370, Note_on_c, 0, 48, 61
1, 81397, Note_off_c, 0, 52, 67
1, 81401, Note_off_c, 0, 48, 64
1, 81481, Note_on_c, 0, 50, 60
1, 81481, Control_c, 0, 67, 80
1, 81486, Note_on_c, 0, 38, 50
1, 81495, Control_c, 0, 67, 80
1, 81510, Control_c, 0, 67, 79
1, 81521, Note_off_c, 0, 50, 62
1, 81525, Note_off_c, 0, 38, 61
1, 81564, Note_on_c, 0, 52, 62
1, 81573, Note_on_c, 0, 48, 51
1, 81599, Note_off_c, 0, 48, 58
1, 81599, Control_c, 0, 67, 78
1, 81601, Note_off_c, 0, 52, 65
1, 81643, Control_c, 0, 67, 78
1, 81671, Note_on_c, 0, 50, 64
1, 81680, Note_on_c, 0, 38, 49
1, 81702, Control_c, 0, 67, 77
1, 81713, Note_off_c, 0, 50, 63
1, 81723, Note_off_c, 0, 38, 62
1, 81733, Control_c, 0, 67, 77
1, 81763, Control_c, 0, 67, 76
1, 81767, Note_on_c, 0, 52, 64
1, 81768, Note_on_c, 0, 48, 51
1, 81777, Control_c, 0, 67, 75
1, 81792, Control_c, 0, 67, 75
1, 81794, Note_off_c, 0, 52, 67
1, 81795, Note_off_c, 0, 48, 61
1, 81807, Control_c, 0, 67, 73
1, 81822, Control_c, 0, 67, 72
1, 81836, Control_c, 0, 67, 72
1, 81866, Note_on_c, 0, 50, 63
1, 81873, Note_on_c, 0, 38, 54
1, 81896, Control_c, 0, 67, 71
1, 81908, Note_off_c, 0, 50, 60
1, 81919, Note_off_c, 0, 38, 55
1, 81925, Control_c, 0, 67, 70
1, 81954, Note_on_c, 0, 52, 66
1, 81964, Note_on_c, 0, 48, 57
1, 81984, Control_c, 0, 67, 70
1, 81990, Note_off_c, 0, 52, 66
1, 81993, Note_off_c, 0, 48, 62
1, 81999, Control_c, 0, 67, 69
1, 82014, Control_c, 0, 67, 67
1, 82029, Control_c, 0, 67, 66
1, 82044, Control_c, 0, 67, 65
1, 82054, Note_on_c, 0, 50, 69
1, 82061, Note_on_c, 0, 38, 58
1, 82074, Control_c, 0, 67, 64
1, 82089, Control_c, 0, 67, 63
1, 82095, Note_off_c, 0, 50, 61
1, 82096, Note_off_c, 0, 38, 60
1, 82110, Control_c, 0, 67, 61
1, 82125, Control_c, 0, 67, 60
1, 82140, Control_c, 0, 67, 58
1, 82155, Control_c, 0, 67, 58
1, 82163, Note_on_c, 0, 52, 74
1, 82167, Note_on_c, 0, 48, 64
1, 82169, Control_c, 0, 67, 57
1, 82184, Control_c, 0, 67, 55
1, 82190, Note_off_c, 0, 52, 69
1, 82198, Note_off_c, 0, 48, 65
1, 82199, Control_c, 0, 67, 51
1, 82214, Control_c, 0, 67, 45
1, 82229, Control_c, 0, 67, 37
1, 82244, Control_c, 0, 67, 29
1, 82250, Note_on_c, 0, 50, 73
1, 82259, Control_c, 0, 67, 20
1, 82260, Note_on_c, 0, 38, 60
1, 82273, Control_c, 0, 67, 9
1, 82288, Control_c, 0, 67, 0
1, 82296, Note_off_c, 0, 50, 58
1, 82297, Note_off_c, 0, 38, 59
1, 82318, Control_c, 0, 64, 39
1, 82333, Control_c, 0, 64, 58
1, 82348, Control_c, 0, 64, 65
1, 82354, Note_on_c, 0, 52, 84
1, 82357, Note_on_c, 0, 48, 71
1, 82362, Control_c, 0, 64, 72
1, 82377, Control_c, 0, 64, 87
1, 82379, Note_off_c, 0, 52, 69
1, 82392, Control_c, 0, 64, 127
1, 82402, Note_off_c, 0, 48, 50
1, 82440, Note_on_c, 0, 50, 81
1, 82455, Note_on_c, 0, 38, 65
1, 82481, Note_off_c, 0, 50, 63
1, 82488, Note_off_c, 0, 38, 62
1, 82527, Control_c, 0, 64, 80
1, 82541, Control_c, 0, 64, 62
1, 82545, Note_on_c, 0, 52, 88
1, 82546, Note_on_c, 0, 48, 88
1, 82548, Note_on_c, 0, 55, 85
1, 82556, Control_c, 0, 64, 0
1, 82569, Note_off_c, 0, 48, 72
1, 82572, Note_off_c, 0, 52, 64
1, 82577, Note_off_c, 0, 55, 67
1, 82646, Note_on_c, 0, 50, 80
1, 82658, Note_on_c, 0, 38, 60
1, 82684, Note_off_c, 0, 50, 62
1, 82691, Note_off_c, 0, 38, 59
1, 82753, Note_on_c, 0, 55, 70
1, 82753, Note_on_c, 0, 48, 65
1, 82761, Note_on_c, 0, 52, 61
1, 82764, Control_c, 0, 67, 23
1, 82778, Control_c, 0, 67, 50
1, 82782, Note_off_c, 0, 48, 65
1, 82786, Note_off_c, 0, 55, 66
1, 82790, Note_off_c, 0, 52, 66
1, 82793, Control_c, 0, 67, 75
1, 82808, Control_c, 0, 67, 98
1, 82823, Control_c, 0, 67, 118
1, 82838, Control_c, 0, 67, 127
1, 82871, Note_on_c, 0, 50, 65
1, 82882, Note_on_c, 0, 38, 52
1, 82906, Note_off_c, 0, 50, 61
1, 82922, Note_off_c, 0, 38, 62
1, 82968, Note_on_c, 0, 52, 58
1, 82969, Note_on_c, 0, 48, 56
1, 82970, Note_on_c, 0, 55, 69
1, 83000, Note_off_c, 0, 52, 65
1, 83002, Note_off_c, 0, 48, 62
1, 83006, Note_off_c, 0, 55, 63
1, 83072, Note_on_c, 0, 50, 62
1, 83081, Note_on_c, 0, 38, 49
1, 83111, Note_off_c, 0, 50, 60
1, 83117, Note_off_c, 0, 38, 56
1, 83165, Note_on_c, 0, 52, 54
1, 83171, Note_on_c, 0, 55, 64
1, 83180, Note_on_c, 0, 48, 48
1, 83198, Note_off_c, 0, 52, 65
1, 83206, Note_off_c, 0, 48, 55
1, 83211, Note_off_c, 0, 55, 62
1, 83272, Note_on_c, 0, 50, 62
1, 83278, Note_on_c, 0, 38, 49
1, 83312, Note_off_c, 0, 50, 62
1, 83320, Note_off_c, 0, 38, 62
1, 83369, Note_on_c, 0, 55, 62
1, 83372, Note_on_c, 0, 52, 58
1, 83374, Note_on_c, 0, 48, 51
1, 83399, Note_off_c, 0, 48, 58
1, 83402, Note_off_c, 0, 52, 67
1, 83406, Note_off_c, 0, 55, 63
1, 83470, Note_on_c, 0, 50, 62
1, 83473, Note_on_c, 0, 38, 53
1, 83508, Note_off_c, 0, 50, 62
1, 83513, Note_off_c, 0, 38, 61
1, 83565, Note_on_c, 0, 48, 55
1, 83567, Note_on_c, 0, 52, 53
1, 83574, Note_on_c, 0, 55, 61
1, 83597, Note_off_c, 0, 48, 63
1, 83601, Note_off_c, 0, 52, 65
1, 83618, Note_off_c, 0, 55, 63
1, 83681, Note_on_c, 0, 50, 56
1, 83682, Note_on_c, 0, 38, 50
1, 83722, Note_off_c, 0, 38, 60
1, 83722, Note_off_c, 0, 50, 60
1, 83774, Note_on_c, 0, 55, 66
1, 83782, Note_on_c, 0, 48, 59
1, 83786, Note_on_c, 0, 52, 51
1, 83806, Note_off_c, 0, 48, 62
1, 83812, Note_off_c, 0, 52, 63
1, 83815, Note_off_c, 0, 55, 60
1, 83868, Note_on_c, 0, 50, 66
1, 83876, Note_on_c, 0, 38, 51
1, 83905, Note_off_c, 0, 50, 62
1, 83910, Note_off_c, 0, 38, 62
1, 83964, Note_on_c, 0, 53, 73
1, 83970, Note_on_c, 0, 50, 70
1, 83996, Note_off_c, 0, 50, 66
1, 83996, Note_off_c, 0, 53, 68
1, 84055, Note_on_c, 0, 38, 54
1, 84060, Note_on_c, 0, 52, 83
1, 84064, Note_on_c, 0, 50, 57
1, 84087, Note_off_c, 0, 50, 59
1, 84089, Note_off_c, 0, 38, 62
1, 84095, Note_off_c, 0, 52, 65
1, 84161, Note_on_c, 0, 50, 85
1, 84194, Note_off_c, 0, 50, 64
1, 84271, Note_on_c, 0, 50, 61
1, 84279, Note_on_c, 0, 38, 58
1, 84311, Note_off_c, 0, 50, 63
1, 84321, Note_off_c, 0, 38, 61
1, 84375, Note_on_c, 0, 50, 67
1, 84402, Note_off_c, 0, 50, 65
1, 84472, Note_on_c, 0, 50, 57
1, 84482, Note_on_c, 0, 38, 53
1, 84509, Note_off_c, 0, 50, 63
1, 84522, Note_off_c, 0, 38, 63
1, 84572, Note_on_c, 0, 50, 66
1, 84600, Note_off_c, 0, 50, 65
1, 84673, Note_on_c, 0, 50, 64
1, 84685, Note_on_c, 0, 38, 51
1, 84710, Note_off_c, 0, 50, 63
1, 84724, Note_off_c, 0, 38, 63
1, 84772, Note_on_c, 0, 50, 69
1, 84801, Note_off_c, 0, 50, 66
1, 84873, Note_on_c, 0, 50, 65
1, 84888, Note_on_c, 0, 38, 53
1, 84914, Note_off_c, 0, 50, 64
1, 84928, Note_off_c, 0, 38, 61
1, 84967, Note_on_c, 0, 50, 69
1, 84997, Note_off_c, 0, 50, 64
1, 85072, Note_on_c, 0, 50, 62
1, 85090, Note_on_c, 0, 38, 50
1, 85124, Note_off_c, 0, 50, 62
1, 85137, Note_off_c, 0, 38, 62
1, 85167, Note_on_c, 0, 50, 61
1, 85206, Note_off_c, 0, 50, 63
1, 85292, Note_on_c, 0, 50, 58
1, 85298, Note_on_c, 0, 38, 46
1, 85326, Note_off_c, 0, 50, 63
1, 85334, Note_off_c, 0, 38, 54
1, 85377, Note_on_c, 0, 50, 64
1, 85404, Note_off_c, 0, 50, 64
1, 85481, Note_on_c, 0, 50, 61
1, 85490, Note_on_c, 0, 38, 51
1, 85522, Note_off_c, 0, 50, 61
1, 85532, Note_off_c, 0, 38, 61
1, 85581, Note_on_c, 0, 50, 64
1, 85606, Note_off_c, 0, 50, 63
1, 85682, Note_on_c, 0, 50, 65
1, 85696, Note_on_c, 0, 38, 51
1, 85722, Note_off_c, 0, 50, 63
1, 85732, Note_off_c, 0, 38, 61
1, 85783, Note_on_c, 0, 50, 70
1, 85812, Note_off_c, 0, 50, 66
1, 85892, Note_on_c, 0, 50, 62
1, 85905, Note_on_c, 0, 38, 49
1, 85928, Note_off_c, 0, 50, 63
1, 85945, Note_off_c, 0, 38, 59
1, 85988, Note_on_c, 0, 50, 72
1, 86016, Note_off_c, 0, 50, 66
1, 86089, Note_on_c, 0, 50, 63
1, 86104, Note_on_c, 0, 38, 51
1, 86131, Note_off_c, 0, 50, 63
1, 86145, Note_off_c, 0, 38, 61
1, 86191, Note_on_c, 0, 50, 70
1, 86220, Note_off_c, 0, 50, 66
1, 86292, Note_on_c, 0, 50, 65
1, 86311, Note_on_c, 0, 38, 50
1, 86333, Note_off_c, 0, 50, 64
1, 86350, Note_off_c, 0, 38, 61
1, 86388, Note_on_c, 0, 50, 66
1, 86425, Note_off_c, 0, 50, 64
1, 86513, Note_on_c, 0, 50, 49
1, 86517, Note_on_c, 0, 38, 46
1, 86541, Note_off_c, 0, 50, 60
1, 86551, Note_off_c, 0, 38, 56
1, 86606, Note_on_c, 0, 50, 62
1, 86635, Note_off_c, 0, 50, 65
1, 86715, Note_on_c, 0, 50, 60
1, 86718, Note_on_c, 0, 38, 46
1, 86748, Note_off_c, 0, 50, 64
1, 86757, Note_off_c, 0, 38, 61
1, 86805, Note_on_c, 0, 50, 65
1, 86836, Note_off_c, 0, 50, 65
1, 86909, Note_on_c, 0, 50, 63
1, 86918, Note_on_c, 0, 38, 51
1, 86945, Note_off_c, 0, 50, 63
1, 86958, Note_off_c, 0, 38, 62
1, 87010, Note_on_c, 0, 50, 64
1, 87035, Note_off_c, 0, 50, 63
1, 87109, Note_on_c, 0, 50, 61
1, 87120, Note_on_c, 0, 38, 46
1, 87144, Note_off_c, 0, 50, 63
1, 87156, Note_off_c, 0, 38, 54
1, 87209, Note_on_c, 0, 50, 64
1, 87231, Note_off_c, 0, 50, 63
1, 87309, Note_on_c, 0, 50, 64
1, 87322, Note_on_c, 0, 38, 49
1, 87354, Note_off_c, 0, 50, 63
1, 87366, Note_off_c, 0, 38, 61
1, 87422, Note_on_c, 0, 50, 71
1, 87450, Note_off_c, 0, 50, 65
1, 87677, Note_on_c, 0, 50, 52
1, 87682, Note_on_c, 0, 38, 51
1, 87715, Note_off_c, 0, 50, 63
1, 87723, Note_off_c, 0, 38, 60
1, 87955, Note_on_c, 0, 50, 50
1, 87980, Note_off_c, 0, 50, 59
1, 88247, Note_on_c, 0, 50, 46
1, 88256, Note_on_c, 0, 38, 40
1, 88286, Note_off_c, 0, 50, 62
1, 88295, Note_off_c, 0, 38, 58
1, 88543, Note_on_c, 0, 50, 58
1, 88572, Note_off_c, 0, 50, 65
1, 88934, Note_on_c, 0, 50, 40
1, 88942, Note_on_c, 0, 38, 39
1, 88984, Note_off_c, 0, 50, 57
1, 88991, Note_off_c, 0, 38, 58
1, 89760, Note_on_c, 0, 43, 46
1, 89797, Note_off_c, 0, 43, 62
1, 89845, Note_on_c, 0, 46, 55
1, 89877, Note_off_c, 0, 46, 64
1, 89947, Note_on_c, 0, 50, 57
1, 89978, Note_off_c, 0, 50, 65
1, 90054, Note_on_c, 0, 50, 57
1, 90086, Note_off_c, 0, 50, 64
1, 90141, Note_on_c, 0, 51, 65
1, 90149, Note_on_c, 0, 46, 66
1, 90179, Note_off_c, 0, 51, 64
1, 90187, Note_off_c, 0, 46, 62
1, 90240, Note_on_c, 0, 54, 63
1, 90249, Note_on_c, 0, 50, 65
1, 90271, Note_off_c, 0, 54, 65
1, 90287, Note_off_c, 0, 50, 66
1, 90332, Note_on_c, 0, 58, 66
1, 90352, Note_on_c, 0, 43, 63
1, 90369, Note_off_c, 0, 58, 66
1, 90383, Note_off_c, 0, 43, 62
1, 90422, Control_c, 0, 64, 20
1, 90429, Note_on_c, 0, 58, 71
1, 90437, Control_c, 0, 64, 53
1, 90451, Control_c, 0, 64, 66
1, 90459, Note_off_c, 0, 58, 68
1, 90466, Control_c, 0, 64, 77
1, 90481, Control_c, 0, 64, 100
1, 90497, Control_c, 0, 64, 127
1, 90512, Control_c, 0, 64, 106
1, 90527, Control_c, 0, 64, 87
1, 90535, Note_on_c, 0, 54, 73
1, 90542, Control_c, 0, 64, 70
1, 90556, Control_c, 0, 64, 58
1, 90558, Note_on_c, 0, 59, 66
1, 90564, Note_off_c, 0, 54, 68
1, 90571, Control_c, 0, 64, 27
1, 90586, Control_c, 0, 64, 0
1, 90592, Note_off_c, 0, 59, 65
1, 90629, Note_on_c, 0, 62, 63
1, 90638, Note_on_c, 0, 58, 70
1, 90670, Note_off_c, 0, 58, 67
1, 90674, Note_off_c, 0, 62, 61
1, 90738, Note_on_c, 0, 51, 78
1, 90739, Note_on_c, 0, 66, 70
1, 90767, Note_off_c, 0, 66, 66
1, 90777, Note_off_c, 0, 51, 64
1, 90809, Control_c, 0, 64, 15
1, 90823, Control_c, 0, 64, 56
1, 90828, Note_on_c, 0, 66, 78
1, 90834, Note_on_c, 0, 51, 69
1, 90838, Control_c, 0, 64, 72
1, 90853, Control_c, 0, 64, 127
1, 90861, Note_off_c, 0, 51, 65
1, 90878, Note_off_c, 0, 66, 62
1, 90942, Control_c, 0, 64, 115
1, 90943, Note_on_c, 0, 62, 74
1, 90951, Note_on_c, 0, 67, 79
1, 90957, Control_c, 0, 64, 80
1, 90972, Control_c, 0, 64, 62
1, 90975, Note_off_c, 0, 67, 67
1, 90987, Control_c, 0, 64, 21
1, 91001, Control_c, 0, 64, 0
1, 91006, Note_off_c, 0, 62, 59
1, 91037, Note_on_c, 0, 66, 75
1, 91066, Note_on_c, 0, 70, 65
1, 91071, Note_off_c, 0, 66, 65
1, 91114, Note_off_c, 0, 70, 64
1, 91150, Note_on_c, 0, 59, 61
1, 91168, Note_on_c, 0, 74, 62
1, 91186, Note_off_c, 0, 59, 63
1, 91205, Note_off_c, 0, 74, 64
1, 91260, Note_on_c, 0, 74, 73
1, 91263, Note_on_c, 0, 59, 71
1, 91295, Note_off_c, 0, 59, 63
1, 91303, Note_off_c, 0, 74, 63
1, 91360, Note_on_c, 0, 70, 78
1, 91366, Note_on_c, 0, 55, 69
1, 91400, Note_off_c, 0, 70, 59
1, 91407, Note_off_c, 0, 55, 60
1, 91446, Note_on_c, 0, 74, 70
1, 91461, Note_on_c, 0, 58, 66
1, 91476, Note_off_c, 0, 74, 65
1, 91491, Note_off_c, 0, 58, 66
1, 91542, Note_on_c, 0, 67, 68
1, 91561, Note_on_c, 0, 62, 65
1, 91573, Note_off_c, 0, 67, 65
1, 91592, Note_off_c, 0, 62, 64
1, 91641, Note_on_c, 0, 67, 71
1, 91674, Note_off_c, 0, 67, 63
1, 91675, Note_on_c, 0, 62, 58
1, 91697, Note_off_c, 0, 62, 63
1, 91746, Note_on_c, 0, 63, 74
1, 91754, Note_on_c, 0, 58, 70
1, 91777, Note_off_c, 0, 63, 64
1, 91789, Note_off_c, 0, 58, 63
1, 91847, Note_on_c, 0, 66, 70
1, 91867, Note_on_c, 0, 62, 52
1, 91884, Note_off_c, 0, 66, 62
1, 91895, Note_off_c, 0, 62, 61
1, 91948, Note_on_c, 0, 55, 67
1, 91949, Note_on_c, 0, 70, 71
1, 91987, Note_off_c, 0, 70, 61
1, 91988, Note_off_c, 0, 55, 60
1, 92045, Note_on_c, 0, 70, 66
1, 92058, Note_on_c, 0, 55, 59
1, 92078, Note_off_c, 0, 70, 66
1, 92088, Note_off_c, 0, 55, 65
1, 92158, Note_on_c, 0, 51, 74
1, 92162, Note_on_c, 0, 66, 75
1, 92200, Note_off_c, 0, 66, 58
1, 92212, Note_off_c, 0, 51, 53
1, 92262, Note_on_c, 0, 70, 64
1, 92265, Note_on_c, 0, 54, 70
1, 92280, Note_off_c, 0, 70, 64
1, 92298, Note_off_c, 0, 54, 68
1, 92361, Note_on_c, 0, 63, 68
1, 92362, Note_on_c, 0, 58, 79
1, 92393, Note_off_c, 0, 63, 63
1, 92404, Note_off_c, 0, 58, 60
1, 92459, Note_on_c, 0, 63, 72
1, 92483, Note_on_c, 0, 58, 57
1, 92491, Note_off_c, 0, 63, 62
1, 92506, Note_off_c, 0, 58, 62
1, 92571, Note_on_c, 0, 59, 72
1, 92576, Note_on_c, 0, 54, 69
1, 92614, Note_off_c, 0, 59, 62
1, 92616, Note_off_c, 0, 54, 67
1, 92667, Note_on_c, 0, 62, 76
1, 92699, Note_on_c, 0, 58, 52
1, 92712, Note_off_c, 0, 62, 59
1, 92724, Note_off_c, 0, 58, 60
1, 92772, Note_on_c, 0, 66, 70
1, 92777, Note_on_c, 0, 51, 63
1, 92814, Note_off_c, 0, 51, 62
1, 92819, Note_off_c, 0, 66, 58
1, 92873, Note_on_c, 0, 66, 58
1, 92894, Note_on_c, 0, 51, 56
1, 92906, Note_off_c, 0, 66, 65
1, 92931, Note_off_c, 0, 51, 63
1, 92981, Note_on_c, 0, 62, 76
1, 92993, Note_on_c, 0, 47, 58
1, 93015, Note_off_c, 0, 62, 63
1, 93039, Note_off_c, 0, 47, 58
1, 93079, Note_on_c, 0, 66, 64
1, 93082, Note_on_c, 0, 50, 61
1, 93104, Note_off_c, 0, 66, 66
1, 93113, Note_off_c, 0, 50, 65
1, 93180, Note_on_c, 0, 59, 68
1, 93186, Note_on_c, 0, 54, 68
1, 93212, Note_off_c, 0, 59, 65
1, 93219, Note_off_c, 0, 54, 64
1, 93276, Note_on_c, 0, 59, 66
1, 93289, Note_on_c, 0, 54, 63
1, 93306, Note_off_c, 0, 59, 66
1, 93323, Note_off_c, 0, 54, 65
1, 93385, Note_on_c, 0, 55, 69
1, 93393, Note_on_c, 0, 50, 65
1, 93416, Note_off_c, 0, 55, 65
1, 93432, Note_off_c, 0, 50, 65
1, 93476, Note_on_c, 0, 58, 72
1, 93500, Note_on_c, 0, 54, 66
1, 93508, Note_off_c, 0, 58, 65
1, 93535, Note_off_c, 0, 54, 64
1, 93574, Note_on_c, 0, 62, 72
1, 93594, Note_on_c, 0, 47, 66
1, 93604, Note_off_c, 0, 62, 66
1, 93639, Control_c, 0, 67, 124
1, 93654, Control_c, 0, 67, 110
1, 93655, Note_off_c, 0, 47, 0
1, 93667, Note_on_c, 0, 47, 57
1, 93668, Control_c, 0, 67, 90
1, 93679, Note_on_c, 0, 62, 70
1, 93683, Control_c, 0, 67, 66
1, 93699, Control_c, 0, 64, 50
1, 93699, Control_c, 0, 67, 35
1, 93699, Note_off_c, 0, 47, 64
1, 93709, Note_off_c, 0, 62, 67
1, 93714, Control_c, 0, 64, 62
1, 93714, Control_c, 0, 67, 0
1, 93729, Control_c, 0, 64, 64
1, 93744, Control_c, 0, 64, 62
1, 93759, Control_c, 0, 64, 57
1, 93773, Control_c, 0, 64, 43
1, 93785, Note_on_c, 0, 58, 71
1, 93788, Control_c, 0, 64, 0
1, 93795, Note_on_c, 0, 63, 91
1, 93821, Note_off_c, 0, 58, 64
1, 93843, Note_off_c, 0, 63, 59
1, 93884, Note_on_c, 0, 62, 80
1, 93893, Note_on_c, 0, 66, 72
1, 93929, Note_off_c, 0, 62, 60
1, 93947, Note_off_c, 0, 66, 62
1, 93985, Note_on_c, 0, 70, 89
1, 94000, Note_on_c, 0, 55, 84
1, 94032, Note_off_c, 0, 55, 62
1, 94032, Note_off_c, 0, 70, 63
1, 94039, Control_c, 0, 64, 35
1, 94054, Control_c, 0, 64, 60
1, 94069, Control_c, 0, 64, 72
1, 94091, Control_c, 0, 64, 95
1, 94102, Note_on_c, 0, 57, 67
1, 94102, Note_on_c, 0, 70, 76
1, 94106, Control_c, 0, 64, 127
1, 94125, Note_off_c, 0, 57, 64
1, 94134, Note_off_c, 0, 70, 63
1, 94202, Note_on_c, 0, 66, 89
1, 94210, Note_on_c, 0, 71, 90
1, 94269, Control_c, 0, 64, 107
1, 94272, Note_off_c, 0, 66, 62
1, 94278, Note_off_c, 0, 71, 55
1, 94284, Control_c, 0, 64, 88
1, 94298, Control_c, 0, 64, 74
1, 94301, Note_on_c, 0, 70, 85
1, 94313, Control_c, 0, 64, 64
1, 94318, Note_on_c, 0, 74, 86
1, 94328, Control_c, 0, 64, 47
1, 94343, Control_c, 0, 64, 0
1, 94358, Note_off_c, 0, 70, 64
1, 94367, Note_off_c, 0, 74, 65
1, 94405, Note_on_c, 0, 63, 70
1, 94407, Note_on_c, 0, 78, 88
1, 94443, Note_off_c, 0, 63, 61
1, 94456, Note_off_c, 0, 78, 63
1, 94502, Note_on_c, 0, 78, 82
1, 94515, Note_on_c, 0, 63, 67
1, 94544, Note_off_c, 0, 78, 67
1, 94555, Note_off_c, 0, 63, 60
1, 94605, Note_on_c, 0, 74, 87
1, 94623, Note_on_c, 0, 59, 62
1, 94658, Note_off_c, 0, 74, 60
1, 94678, Note_off_c, 0, 59, 57
1, 94705, Note_on_c, 0, 78, 77
1, 94709, Note_on_c, 0, 62, 70
1, 94733, Note_off_c, 0, 78, 68
1, 94742, Note_off_c, 0, 62, 65
1, 94802, Note_on_c, 0, 71, 71
1, 94814, Note_on_c, 0, 66, 72
1, 94818, Control_c, 0, 67, 26
1, 94840, Control_c, 0, 67, 51
1, 94841, Note_off_c, 0, 71, 64
1, 94853, Note_off_c, 0, 66, 63
1, 94855, Control_c, 0, 67, 76
1, 94870, Control_c, 0, 67, 100
1, 94885, Control_c, 0, 67, 119
1, 94900, Control_c, 0, 67, 127
1, 94902, Note_on_c, 0, 71, 76
1, 94933, Note_on_c, 0, 66, 65
1, 94937, Note_off_c, 0, 71, 61
1, 94967, Note_off_c, 0, 66, 62
1, 95002, Note_on_c, 0, 67, 71
1, 95025, Note_on_c, 0, 62, 60
1, 95042, Note_off_c, 0, 67, 62
1, 95060, Note_off_c, 0, 62, 65
1, 95102, Note_on_c, 0, 70, 74
1, 95109, Note_on_c, 0, 66, 55
1, 95137, Note_off_c, 0, 70, 64
1, 95150, Note_off_c, 0, 66, 62
1, 95200, Note_on_c, 0, 59, 66
1, 95202, Note_on_c, 0, 74, 73
1, 95235, Note_off_c, 0, 59, 63
1, 95237, Note_off_c, 0, 74, 63
1, 95310, Note_on_c, 0, 74, 67
1, 95315, Control_c, 0, 67, 127
1, 95320, Note_on_c, 0, 59, 51
1, 95330, Control_c, 0, 67, 126
1, 95337, Note_off_c, 0, 74, 67
1, 95352, Note_off_c, 0, 59, 65
1, 95360, Control_c, 0, 67, 125
1, 95389, Control_c, 0, 67, 125
1, 95404, Control_c, 0, 67, 124
1, 95406, Note_on_c, 0, 70, 77
1, 95419, Control_c, 0, 67, 124
1, 95420, Note_on_c, 0, 55, 67
1, 95434, Control_c, 0, 67, 122
1, 95449, Control_c, 0, 67, 122
1, 95459, Note_off_c, 0, 70, 62
1, 95463, Control_c, 0, 67, 121
1, 95468, Note_off_c, 0, 55, 58
1, 95478, Control_c, 0, 67, 120
1, 95504, Note_on_c, 0, 74, 70
1, 95508, Control_c, 0, 67, 119
1, 95512, Note_on_c, 0, 58, 68
1, 95523, Control_c, 0, 67, 118
1, 95533, Note_off_c, 0, 74, 65
1, 95537, Control_c, 0, 67, 117
1, 95547, Note_off_c, 0, 58, 64
1, 95552, Control_c, 0, 67, 117
1, 95567, Control_c, 0, 67, 116
1, 95604, Control_c, 0, 67, 115
1, 95612, Note_on_c, 0, 67, 68
1, 95619, Control_c, 0, 67, 115
1, 95620, Note_on_c, 0, 62, 63
1, 95634, Control_c, 0, 67, 114
1, 95642, Note_off_c, 0, 67, 66
1, 95654, Note_off_c, 0, 62, 64
1, 95712, Note_on_c, 0, 67, 64
1, 95733, Note_on_c, 0, 62, 65
1, 95737, Control_c, 0, 67, 115
1, 95741, Note_off_c, 0, 67, 67
1, 95765, Note_off_c, 0, 62, 64
1, 95816, Note_on_c, 0, 63, 72
1, 95819, Note_on_c, 0, 58, 72
1, 95841, Control_c, 0, 67, 114
1, 95849, Note_off_c, 0, 63, 62
1, 95855, Note_off_c, 0, 58, 62
1, 95856, Control_c, 0, 67, 113
1, 95870, Control_c, 0, 67, 112
1, 95900, Control_c, 0, 67, 112
1, 95913, Note_on_c, 0, 66, 63
1, 95915, Control_c, 0, 67, 111
1, 95923, Note_on_c, 0, 62, 61
1, 95930, Control_c, 0, 67, 110
1, 95944, Control_c, 0, 67, 108
1, 95947, Note_off_c, 0, 66, 64
1, 95959, Control_c, 0, 67, 104
1, 95965, Note_off_c, 0, 62, 58
1, 95974, Control_c, 0, 67, 97
1, 95989, Control_c, 0, 67, 87
1, 96004, Control_c, 0, 67, 69
1, 96009, Note_on_c, 0, 70, 63
1, 96012, Note_on_c, 0, 55, 72
1, 96018, Control_c, 0, 67, 43
1, 96033, Control_c, 0, 64, 23
1, 96033, Control_c, 0, 67, 22
1, 96040, Note_off_c, 0, 70, 67
1, 96048, Control_c, 0, 64, 53
1, 96048, Control_c, 0, 67, 9
1, 96054, Note_off_c, 0, 55, 60
1, 96063, Control_c, 0, 64, 64
1, 96063, Control_c, 0, 67, 0
1, 96078, Control_c, 0, 64, 71
1, 96093, Control_c, 0, 64, 82
1, 96108, Control_c, 0, 64, 94
1, 96110, Note_on_c, 0, 55, 58
1, 96110, Note_on_c, 0, 70, 72
1, 96123, Control_c, 0, 64, 93
1, 96133, Note_off_c, 0, 70, 71
1, 96138, Control_c, 0, 64, 82
1, 96138, Control_c, 0, 67, 8
1, 96139, Note_off_c, 0, 55, 66
1, 96153, Control_c, 0, 64, 69
1, 96167, Control_c, 0, 64, 56
1, 96167, Control_c, 0, 67, 8
1, 96182, Control_c, 0, 64, 9
1, 96197, Control_c, 0, 64, 0
1, 96197, Control_c, 0, 67, 9
1, 96212, Control_c, 0, 67, 11
1, 96214, Note_on_c, 0, 67, 75
1, 96217, Note_on_c, 0, 66, 84
1, 96221, Note_on_c, 0, 55, 65
1, 96227, Control_c, 0, 67, 12
1, 96250, Note_off_c, 0, 67, 65
1, 96262, Note_off_c, 0, 66, 60
1, 96274, Note_off_c, 0, 55, 54
1, 96312, Note_on_c, 0, 70, 68
1, 96322, Note_on_c, 0, 62, 59
1, 96353, Control_c, 0, 67, 11
1, 96356, Note_off_c, 0, 70, 64
1, 96361, Note_off_c, 0, 62, 65
1, 96367, Control_c, 0, 67, 10
1, 96382, Control_c, 0, 67, 9
1, 96397, Control_c, 0, 67, 8
1, 96412, Control_c, 0, 67, 0
1, 96421, Note_on_c, 0, 74, 79
1, 96430, Note_on_c, 0, 65, 71
1, 96434, Note_on_c, 0, 55, 66
1, 96460, Note_off_c, 0, 74, 62
1, 96466, Note_off_c, 0, 65, 59
1, 96483, Note_off_c, 0, 55, 55
1, 96524, Note_on_c, 0, 74, 61
1, 96535, Note_on_c, 0, 61, 59
1, 96556, Note_off_c, 0, 74, 66
1, 96567, Note_off_c, 0, 61, 64
1, 96627, Note_on_c, 0, 70, 74
1, 96632, Note_on_c, 0, 64, 77
1, 96652, Note_on_c, 0, 55, 61
1, 96669, Note_off_c, 0, 70, 59
1, 96688, Note_off_c, 0, 64, 63
1, 96702, Note_off_c, 0, 55, 59
1, 96729, Note_on_c, 0, 74, 59
1, 96737, Note_on_c, 0, 60, 52
1, 96761, Note_off_c, 0, 74, 66
1, 96763, Note_off_c, 0, 60, 64
1, 96827, Note_on_c, 0, 67, 71
1, 96831, Note_on_c, 0, 63, 77
1, 96857, Note_on_c, 0, 55, 42
1, 96868, Note_off_c, 0, 67, 62
1, 96903, Note_off_c, 0, 55, 61
1, 96921, Note_off_c, 0, 63, 57
1, 96925, Note_on_c, 0, 59, 58
1, 96938, Note_on_c, 0, 67, 58
1, 96960, Note_off_c, 0, 59, 62
1, 96971, Note_off_c, 0, 67, 65
1, 97033, Note_on_c, 0, 67, 74
1, 97039, Note_on_c, 0, 62, 73
1, 97055, Note_on_c, 0, 55, 63
1, 97064, Note_on_c, 0, 64, 48
1, 97065, Note_off_c, 0, 64, 127
1, 97086, Note_off_c, 0, 67, 62
1, 97106, Note_off_c, 0, 62, 63
1, 97139, Note_off_c, 0, 55, 60
1, 97144, Note_on_c, 0, 58, 68
1, 97154, Note_on_c, 0, 70, 66
1, 97178, Note_off_c, 0, 58, 63
1, 97184, Note_off_c, 0, 70, 67
1, 97258, Note_on_c, 0, 64, 84
1, 97259, Note_on_c, 0, 74, 74
1, 97264, Note_on_c, 0, 55, 74
1, 97293, Note_off_c, 0, 74, 65
1, 97329, Note_off_c, 0, 64, 60
1, 97348, Note_off_c, 0, 55, 62
1, 97356, Note_on_c, 0, 60, 67
1, 97357, Note_on_c, 0, 74, 65
1, 97386, Note_off_c, 0, 74, 66
1, 97397, Note_off_c, 0, 60, 64
1, 97465, Note_on_c, 0, 63, 86
1, 97470, Note_on_c, 0, 70, 74
1, 97476, Note_on_c, 0, 55, 67
1, 97508, Note_off_c, 0, 70, 61
1, 97553, Note_off_c, 0, 63, 56
1, 97560, Note_off_c, 0, 55, 58
1, 97562, Note_on_c, 0, 59, 65
1, 97574, Note_on_c, 0, 74, 51
1, 97596, Note_off_c, 0, 59, 64
1, 97596, Note_off_c, 0, 74, 62
1, 97682, Note_on_c, 0, 67, 73
1, 97682, Note_on_c, 0, 62, 82
1, 97686, Note_on_c, 0, 55, 71
1, 97723, Note_off_c, 0, 67, 60
1, 97771, Note_on_c, 0, 58, 70
1, 97778, Note_off_c, 0, 62, 59
1, 97785, Note_on_c, 0, 67, 60
1, 97793, Note_off_c, 0, 55, 58
1, 97816, Note_off_c, 0, 58, 60
1, 97831, Note_off_c, 0, 67, 63
1, 97903, Note_on_c, 0, 61, 76
1, 97908, Note_on_c, 0, 67, 69
1, 97932, Note_on_c, 0, 53, 47
1, 97947, Note_off_c, 0, 67, 61
1, 97958, Note_off_c, 0, 61, 62
1, 97987, Note_off_c, 0, 53, 62
1, 97990, Note_on_c, 0, 57, 59
1, 98001, Note_on_c, 0, 70, 74
1, 98019, Note_off_c, 0, 57, 66
1, 98042, Note_off_c, 0, 70, 63
1, 98114, Note_on_c, 0, 55, 77
1, 98114, Note_on_c, 0, 74, 85
1, 98118, Control_c, 0, 64, 41
1, 98121, Note_on_c, 0, 45, 73
1, 98132, Control_c, 0, 64, 59
1, 98147, Control_c, 0, 64, 67
1, 98157, Note_off_c, 0, 45, 63
1, 98162, Control_c, 0, 64, 78
1, 98165, Note_off_c, 0, 74, 63
1, 98170, Note_off_c, 0, 55, 60
1, 98177, Control_c, 0, 64, 127
1, 98203, Note_on_c, 0, 57, 80
1, 98216, Note_on_c, 0, 74, 78
1, 98281, Control_c, 0, 64, 103
1, 98291, Note_off_c, 0, 74, 61
1, 98296, Control_c, 0, 64, 75
1, 98299, Note_on_c, 0, 61, 72
1, 98305, Note_off_c, 0, 57, 61
1, 98311, Control_c, 0, 64, 56
1, 98320, Note_on_c, 0, 79, 99
1, 98326, Control_c, 0, 64, 0
1, 98356, Note_off_c, 0, 61, 62
1, 98400, Note_off_c, 0, 79, 62
1, 98411, Note_on_c, 0, 57, 72
1, 98439, Note_off_c, 0, 57, 67
1, 98518, Note_on_c, 0, 54, 80
1, 98528, Note_on_c, 0, 73, 89
1, 98534, Control_c, 0, 64, 49
1, 98549, Control_c, 0, 64, 62
1, 98563, Control_c, 0, 64, 66
1, 98569, Note_off_c, 0, 73, 67
1, 98571, Note_on_c, 0, 51, 37
1, 98585, Control_c, 0, 64, 70
1, 98600, Control_c, 0, 64, 74
1, 98603, Note_off_c, 0, 54, 62
1, 98615, Control_c, 0, 64, 75
1, 98618, Note_off_c, 0, 51, 31
1, 98630, Control_c, 0, 64, 75
1, 98641, Note_on_c, 0, 81, 78
1, 98645, Control_c, 0, 64, 73
1, 98650, Note_on_c, 0, 59, 59
1, 98659, Control_c, 0, 64, 73
1, 98674, Control_c, 0, 64, 72
1, 98680, Poly_aftertouch_c, 0, 50, 0
1, 98685, Note_off_c, 0, 59, 51
1, 98689, Control_c, 0, 64, 71
1, 98694, Note_off_c, 0, 81, 64
1, 98704, Control_c, 0, 64, 65
1, 98719, Control_c, 0, 64, 48
1, 98734, Control_c, 0, 64, 0
1, 98737, Poly_aftertouch_c, 0, 60, 127
1, 98740, Note_on_c, 0, 81, 76
1, 98792, Note_off_c, 0, 81, 65
1, 98793, Control_c, 0, 64, 11
1, 98808, Control_c, 0, 64, 48
1, 98822, Poly_aftertouch_c, 0, 60, 0
1, 98823, Control_c, 0, 64, 61
1, 98836, Control_c, 0, 64, 65
1, 98844, Note_on_c, 0, 61, 75
1, 98848, Note_on_c, 0, 80, 87
1, 98851, Control_c, 0, 64, 67
1, 98866, Control_c, 0, 64, 68
1, 98880, Control_c, 0, 64, 68
1, 98886, Note_off_c, 0, 80, 59
1, 98895, Control_c, 0, 64, 67
1, 98904, Note_off_c, 0, 61, 62
1, 98910, Control_c, 0, 64, 67
1, 98925, Control_c, 0, 64, 65
1, 98939, Note_on_c, 0, 80, 78
1, 98940, Control_c, 0, 64, 58
1, 98943, Note_on_c, 0, 62, 72
1, 98955, Control_c, 0, 64, 23
1, 98969, Control_c, 0, 64, 0
1, 98993, Note_off_c, 0, 80, 65
1, 99003, Note_off_c, 0, 62, 61
1, 99014, Control_c, 0, 64, 31
1, 99029, Control_c, 0, 64, 54
1, 99036, Note_on_c, 0, 63, 71
1, 99041, Note_on_c, 0, 79, 80
1, 99043, Note_on_c, 0, 86, 80
1, 99044, Control_c, 0, 64, 63
1, 99059, Control_c, 0, 64, 68
1, 99074, Control_c, 0, 64, 74
1, 99076, Note_off_c, 0, 79, 67
1, 99083, Note_off_c, 0, 86, 64
1, 99088, Control_c, 0, 64, 78
1, 99090, Note_off_c, 0, 63, 57
1, 99103, Control_c, 0, 64, 80
1, 99132, Note_on_c, 0, 64, 78
1, 99145, Note_on_c, 0, 78, 94
1, 99145, Note_on_c, 0, 86, 86
1, 99177, Control_c, 0, 64, 81
1, 99181, Note_off_c, 0, 86, 62
1, 99191, Note_off_c, 0, 78, 59
1, 99201, Note_off_c, 0, 64, 57
1, 99237, Note_on_c, 0, 65, 85
1, 99244, Note_on_c, 0, 86, 80
1, 99247, Note_on_c, 0, 77, 80
1, 99266, Control_c, 0, 64, 80
1, 99270, Note_off_c, 0, 86, 67
1, 99272, Note_off_c, 0, 77, 66
1, 99338, Note_on_c, 0, 66, 85
1, 99339, Note_on_c, 0, 86, 90
1, 99340, Note_on_c, 0, 77, 92
1, 99341, Note_off_c, 0, 65, 60
1, 99372, Note_off_c, 0, 77, 61
1, 99376, Note_off_c, 0, 86, 63
1, 99378, Control_c, 0, 64, 80
1, 99423, Note_off_c, 0, 66, 60
1, 99435, Note_on_c, 0, 86, 91
1, 99441, Note_on_c, 0, 77, 82
1, 99449, Note_on_c, 0, 67, 64
1, 99457, Note_on_c, 0, 65, 51
1, 99464, Note_off_c, 0, 77, 66
1, 99478, Note_off_c, 0, 65, 59
1, 99482, Control_c, 0, 64, 79
1, 99484, Note_off_c, 0, 67, 59
1, 99485, Note_off_c, 0, 86, 63
1, 99526, Control_c, 0, 64, 79
1, 99529, Note_on_c, 0, 86, 86
1, 99537, Note_on_c, 0, 67, 65
1, 99537, Note_on_c, 0, 76, 90
1, 99569, Note_off_c, 0, 76, 64
1, 99571, Control_c, 0, 64, 78
1, 99585, Control_c, 0, 64, 78
1, 99587, Note_off_c, 0, 86, 62
1, 99600, Control_c, 0, 64, 77
1, 99608, Note_on_c, 0, 70, 81
1, 99615, Control_c, 0, 64, 73
1, 99628, Note_off_c, 0, 67, 63
1, 99629, Note_on_c, 0, 86, 76
1, 99630, Control_c, 0, 64, 63
1, 99639, Note_off_c, 0, 70, 66
1, 99645, Control_c, 0, 64, 0
1, 99652, Note_on_c, 0, 76, 52
1, 99666, Note_off_c, 0, 86, 65
1, 99673, Note_off_c, 0, 76, 52
1, 99718, Control_c, 0, 64, 20
1, 99733, Control_c, 0, 64, 57
1, 99736, Note_on_c, 0, 66, 84
1, 99736, Note_on_c, 0, 86, 98
1, 99744, Note_on_c, 0, 74, 93
1, 99748, Control_c, 0, 64, 70
1, 99750, Note_on_c, 0, 55, 63
1, 99763, Control_c, 0, 64, 90
1, 99777, Control_c, 0, 64, 127
1, 99780, Note_off_c, 0, 55, 49
1, 99787, Note_on_c, 0, 82, 15
1, 99796, Note_on_c, 0, 84, 13
1, 99797, Note_off_c, 0, 84, 127
1, 99798, Note_off_c, 0, 86, 62
1, 99827, Note_off_c, 0, 82, 39
1, 99840, Note_on_c, 0, 62, 72
1, 99841, Poly_aftertouch_c, 0, 84, 0
1, 99842, Note_off_c, 0, 66, 50
1, 99894, Note_off_c, 0, 74, 59
1, 99897, Note_off_c, 0, 62, 63
1, 99926, Control_c, 0, 64, 95
1, 99941, Control_c, 0, 64, 66
1, 99944, Note_on_c, 0, 70, 80
1, 99953, Note_on_c, 0, 65, 72
1, 99956, Control_c, 0, 64, 0
1, 99958, Note_on_c, 0, 55, 62
1, 99991, Note_off_c, 0, 70, 61
1, 100011, Note_off_c, 0, 65, 57
1, 100035, Note_on_c, 0, 74, 66
1, 100046, Note_on_c, 0, 61, 69
1, 100046, Note_off_c, 0, 55, 62
1, 100062, Note_off_c, 0, 74, 68
1, 100084, Note_off_c, 0, 61, 65
1, 100127, Control_c, 0, 64, 34
1, 100141, Control_c, 0, 64, 59
1, 100149, Note_on_c, 0, 79, 94
1, 100150, Note_on_c, 0, 64, 93
1, 100151, Note_on_c, 0, 67, 95
1, 100156, Control_c, 0, 64, 69
1, 100162, Note_on_c, 0, 55, 79
1, 100171, Control_c, 0, 64, 85
1, 100186, Control_c, 0, 64, 127
1, 100194, Note_off_c, 0, 67, 65
1, 100210, Note_off_c, 0, 64, 61
1, 100242, Note_off_c, 0, 55, 61
1, 100249, Note_on_c, 0, 60, 71
1, 100250, Note_off_c, 0, 79, 53
1, 100255, Note_on_c, 0, 67, 77
1, 100311, Note_off_c, 0, 67, 59
1, 100320, Control_c, 0, 64, 116
1, 100320, Note_off_c, 0, 60, 61
1, 100334, Control_c, 0, 64, 83
1, 100349, Control_c, 0, 64, 66
1, 100364, Control_c, 0, 64, 42
1, 100365, Note_on_c, 0, 63, 73
1, 100365, Note_on_c, 0, 67, 66
1, 100379, Note_on_c, 0, 55, 48
1, 100379, Control_c, 0, 64, 0
1, 100416, Note_off_c, 0, 67, 62
1, 100435, Note_off_c, 0, 55, 57
1, 100436, Note_off_c, 0, 63, 62
1, 100450, Note_on_c, 0, 59, 55
1, 100457, Note_on_c, 0, 70, 75
1, 100480, Note_off_c, 0, 70, 70
1, 100481, Note_off_c, 0, 59, 65
1, 100541, Control_c, 0, 64, 44
1, 100554, Note_on_c, 0, 62, 88
1, 100556, Control_c, 0, 64, 62
1, 100561, Note_on_c, 0, 55, 71
1, 100563, Note_on_c, 0, 74, 97
1, 100567, Note_on_c, 0, 86, 92
1, 100571, Control_c, 0, 64, 70
1, 100586, Control_c, 0, 64, 89
1, 100600, Control_c, 0, 64, 127
1, 100604, Note_off_c, 0, 74, 65
1, 100606, Note_off_c, 0, 62, 63
1, 100653, Note_on_c, 0, 58, 71
1, 100657, Note_on_c, 0, 74, 80
1, 100659, Note_off_c, 0, 86, 61
1, 100683, Note_off_c, 0, 55, 59
1, 100707, Note_off_c, 0, 74, 65
1, 100720, Note_off_c, 0, 58, 60
1, 100749, Control_c, 0, 64, 112
1, 100755, Note_on_c, 0, 64, 68
1, 100764, Control_c, 0, 64, 76
1, 100778, Note_on_c, 0, 70, 81
1, 100779, Control_c, 0, 64, 53
1, 100794, Control_c, 0, 64, 0
1, 100812, Note_on_c, 0, 55, 50
1, 100832, Note_off_c, 0, 64, 62
1, 100839, Note_off_c, 0, 70, 63
1, 100859, Note_on_c, 0, 60, 64
1, 100863, Note_off_c, 0, 55, 58
1, 100888, Note_on_c, 0, 74, 61
1, 100917, Note_off_c, 0, 74, 65
1, 100941, Note_off_c, 0, 60, 60
1, 100979, Note_on_c, 0, 55, 63
1, 100979, Note_on_c, 0, 63, 77
1, 100979, Control_c, 0, 64, 30
1, 100986, Note_on_c, 0, 79, 91
1, 100987, Note_on_c, 0, 67, 93
1, 100994, Control_c, 0, 64, 56
1, 101009, Control_c, 0, 64, 66
1, 101024, Control_c, 0, 64, 78
1, 101026, Note_off_c, 0, 67, 65
1, 101038, Control_c, 0, 64, 115
1, 101053, Control_c, 0, 64, 127
1, 101055, Note_off_c, 0, 63, 54
1, 101067, Note_on_c, 0, 59, 69
1, 101077, Note_off_c, 0, 55, 61
1, 101077, Note_off_c, 0, 79, 58
1, 101090, Note_on_c, 0, 67, 74
1, 101143, Control_c, 0, 64, 117
1, 101150, Note_off_c, 0, 67, 53
1, 101156, Note_off_c, 0, 59, 60
1, 101157, Control_c, 0, 64, 78
1, 101172, Control_c, 0, 64, 61
1, 101181, Note_on_c, 0, 66, 64
1, 101187, Note_on_c, 0, 67, 56
1, 101187, Control_c, 0, 64, 0
1, 101214, Note_on_c, 0, 55, 42
1, 101234, Note_off_c, 0, 66, 61
1, 101253, Note_off_c, 0, 67, 64
1, 101259, Note_off_c, 0, 55, 59
1, 101289, Note_on_c, 0, 68, 60
1, 101293, Note_on_c, 0, 62, 59
1, 101311, Note_on_c, 0, 73, 65
1, 101320, Control_c, 0, 64, 39
1, 101335, Control_c, 0, 64, 62
1, 101338, Note_off_c, 0, 68, 56
1, 101349, Control_c, 0, 64, 69
1, 101353, Note_off_c, 0, 62, 62
1, 101364, Control_c, 0, 64, 81
1, 101371, Note_on_c, 0, 69, 74
1, 101379, Control_c, 0, 64, 107
1, 101380, Note_on_c, 0, 55, 59
1, 101385, Note_on_c, 0, 65, 65
1, 101394, Control_c, 0, 64, 127
1, 101437, Note_off_c, 0, 73, 61
1, 101443, Note_off_c, 0, 69, 62
1, 101453, Note_off_c, 0, 65, 55
1, 101453, Control_c, 0, 64, 111
1, 101456, Note_on_c, 0, 68, 68
1, 101468, Control_c, 0, 64, 83
1, 101473, Note_off_c, 0, 55, 62
1, 101479, Note_on_c, 0, 61, 60
1, 101482, Note_off_c, 0, 68, 68
1, 101482, Control_c, 0, 64, 67
1, 101497, Control_c, 0, 64, 46
1, 101512, Control_c, 0, 64, 0
1, 101514, Note_off_c, 0, 61, 63
1, 101554, Note_on_c, 0, 69, 80
1, 101584, Note_on_c, 0, 64, 73
1, 101597, Note_on_c, 0, 55, 66
1, 101610, Note_off_c, 0, 69, 60
1, 101634, Note_off_c, 0, 64, 61
1, 101646, Note_on_c, 0, 70, 72
1, 101652, Note_off_c, 0, 55, 59
1, 101670, Note_on_c, 0, 60, 68
1, 101684, Control_c, 0, 64, 32
1, 101699, Control_c, 0, 64, 56
1, 101700, Note_on_c, 0, 75, 76
1, 101706, Note_off_c, 0, 70, 64
1, 101714, Control_c, 0, 64, 66
1, 101728, Control_c, 0, 64, 74
1, 101743, Control_c, 0, 64, 86
1, 101748, Note_off_c, 0, 60, 61
1, 101752, Note_on_c, 0, 71, 79
1, 101756, Note_on_c, 0, 63, 76
1, 101758, Control_c, 0, 64, 94
1, 101768, Note_on_c, 0, 55, 62
1, 101773, Control_c, 0, 64, 90
1, 101787, Control_c, 0, 64, 83
1, 101802, Control_c, 0, 64, 71
1, 101817, Control_c, 0, 64, 62
1, 101826, Note_off_c, 0, 75, 59
1, 101827, Note_off_c, 0, 55, 58
1, 101831, Note_off_c, 0, 71, 63
1, 101831, Control_c, 0, 64, 45
1, 101836, Note_off_c, 0, 63, 60
1, 101841, Note_on_c, 0, 70, 78
1, 101846, Control_c, 0, 64, 0
1, 101855, Note_on_c, 0, 59, 60
1, 101886, Note_off_c, 0, 70, 64
1, 101901, Note_off_c, 0, 59, 58
1, 101944, Note_on_c, 0, 71, 86
1, 101953, Note_on_c, 0, 62, 79
1, 101959, Note_on_c, 0, 55, 64
1, 102019, Note_off_c, 0, 71, 62
1, 102025, Note_on_c, 0, 72, 72
1, 102037, Note_on_c, 0, 58, 75
1, 102038, Note_off_c, 0, 55, 61
1, 102040, Note_off_c, 0, 62, 59
1, 102052, Note_on_c, 0, 77, 82
1, 102055, Note_off_c, 0, 72, 65
1, 102083, Control_c, 0, 64, 50
1, 102097, Control_c, 0, 64, 64
1, 102103, Note_off_c, 0, 58, 59
1, 102112, Control_c, 0, 64, 72
1, 102121, Note_off_c, 0, 77, 62
1, 102127, Control_c, 0, 64, 86
1, 102136, Note_on_c, 0, 73, 90
1, 102142, Control_c, 0, 64, 127
1, 102146, Note_on_c, 0, 61, 82
1, 102147, Note_on_c, 0, 55, 74
1, 102226, Note_off_c, 0, 73, 64
1, 102228, Note_off_c, 0, 61, 62
1, 102235, Note_on_c, 0, 72, 77
1, 102237, Note_on_c, 0, 57, 68
1, 102242, Note_on_c, 0, 74, 66
1, 102245, Control_c, 0, 64, 113
1, 102246, Note_off_c, 0, 55, 57
1, 102260, Control_c, 0, 64, 100
1, 102268, Note_off_c, 0, 74, 57
1, 102269, Note_off_c, 0, 57, 65
1, 102275, Control_c, 0, 64, 89
1, 102280, Note_off_c, 0, 72, 64
1, 102290, Control_c, 0, 64, 79
1, 102305, Control_c, 0, 64, 68
1, 102327, Control_c, 0, 64, 56
1, 102342, Control_c, 0, 64, 0
1, 102346, Note_on_c, 0, 73, 85
1, 102347, Note_on_c, 0, 81, 16
1, 102355, Note_on_c, 0, 55, 79
1, 102356, Note_on_c, 0, 60, 79
1, 102383, Note_off_c, 0, 81, 46
1, 102408, Note_on_c, 0, 74, 69
1, 102409, Note_off_c, 0, 73, 65
1, 102443, Note_on_c, 0, 56, 79
1, 102463, Note_off_c, 0, 55, 58
1, 102466, Note_off_c, 0, 60, 63
1, 102470, Note_on_c, 0, 79, 75
1, 102489, Note_off_c, 0, 74, 62
1, 102505, Note_off_c, 0, 56, 64
1, 102532, Note_on_c, 0, 75, 94
1, 102535, Control_c, 0, 64, 38
1, 102546, Note_on_c, 0, 59, 85
1, 102547, Note_off_c, 0, 79, 64
1, 102550, Control_c, 0, 64, 64
1, 102551, Note_on_c, 0, 55, 81
1, 102565, Control_c, 0, 64, 77
1, 102580, Control_c, 0, 64, 127
1, 102620, Note_off_c, 0, 59, 63
1, 102622, Note_on_c, 0, 58, 86
1, 102633, Note_off_c, 0, 75, 60
1, 102637, Note_off_c, 0, 55, 62
1, 102642, Note_on_c, 0, 74, 74
1, 102672, Note_on_c, 0, 79, 51
1, 102678, Note_off_c, 0, 58, 64
1, 102684, Control_c, 0, 64, 90
1, 102685, Note_off_c, 0, 74, 60
1, 102693, Note_off_c, 0, 79, 60
1, 102699, Control_c, 0, 64, 69
1, 102713, Control_c, 0, 64, 52
1, 102728, Control_c, 0, 64, 0
1, 102750, Note_on_c, 0, 66, 75
1, 102754, Note_on_c, 0, 74, 80
1, 102760, Note_on_c, 0, 68, 73
1, 102770, Note_on_c, 0, 56, 39
1, 102782, Note_on_c, 0, 86, 56
1, 102785, Note_off_c, 0, 68, 68
1, 102797, Note_on_c, 0, 84, 45
1, 102797, Note_off_c, 0, 74, 63
1, 102800, Note_off_c, 0, 56, 55
1, 102800, Note_off_c, 0, 66, 60
1, 102801, Note_off_c, 0, 86, 62
1, 102819, Note_off_c, 0, 84, 37
1, 102848, Note_on_c, 0, 62, 66
1, 102888, Note_on_c, 0, 86, 74
1, 102891, Control_c, 0, 64, 43
1, 102894, Note_on_c, 0, 85, 47
1, 102898, Note_on_c, 0, 73, 51
1, 102899, Note_off_c, 0, 73, 127
1, 102899, Note_off_c, 0, 62, 59
1, 102906, Control_c, 0, 64, 65
1, 102916, Note_off_c, 0, 86, 60
1, 102920, Control_c, 0, 64, 92
1, 102927, Note_on_c, 0, 74, 36
1, 102929, Note_on_c, 0, 75, 23
1, 102935, Control_c, 0, 64, 127
1, 102940, Note_on_c, 0, 55, 81
1, 102943, Note_on_c, 0, 65, 89
1, 102972, Note_off_c, 0, 74, 42
1, 102972, Note_off_c, 0, 75, 31
1, 102986, Note_off_c, 0, 85, 0
1, 103002, Note_on_c, 0, 80, 81
1, 103023, Poly_aftertouch_c, 0, 85, 127
1, 103042, Note_on_c, 0, 61, 82
1, 103047, Note_off_c, 0, 55, 63
1, 103048, Note_off_c, 0, 65, 61
1, 103067, Note_off_c, 0, 80, 63
1, 103076, Control_c, 0, 64, 90
1, 103085, Poly_aftertouch_c, 0, 85, 0
1, 103091, Control_c, 0, 64, 67
1, 103101, Note_off_c, 0, 61, 64
1, 103106, Control_c, 0, 64, 0
1, 103122, Note_on_c, 0, 81, 79
1, 103155, Note_on_c, 0, 64, 86
1, 103163, Note_on_c, 0, 55, 76
1, 103203, Note_off_c, 0, 64, 64
1, 103207, Note_off_c, 0, 81, 64
1, 103210, Note_on_c, 0, 82, 85
1, 103230, Note_off_c, 0, 55, 61
1, 103233, Note_on_c, 0, 60, 73
1, 103251, Note_off_c, 0, 82, 65
1, 103295, Note_off_c, 0, 60, 58
1, 103300, Control_c, 0, 64, 22
1, 103314, Control_c, 0, 64, 60
1, 103316, Note_on_c, 0, 75, 100
1, 103317, Note_on_c, 0, 63, 95
1, 103318, Note_on_c, 0, 87, 96
1, 103329, Control_c, 0, 64, 71
1, 103334, Note_on_c, 0, 55, 76
1, 103344, Control_c, 0, 64, 90
1, 103354, Note_on_c, 0, 85, 39
1, 103358, Control_c, 0, 64, 127
1, 103364, Note_off_c, 0, 75, 63
1, 103381, Note_off_c, 0, 85, 52
1, 103383, Note_off_c, 0, 87, 64
1, 103402, Note_off_c, 0, 55, 62
1, 103402, Note_on_c, 0, 59, 78
1, 103404, Note_off_c, 0, 63, 61
1, 103418, Note_on_c, 0, 82, 87
1, 103473, Note_off_c, 0, 82, 67
1, 103503, Note_off_c, 0, 59, 54
1, 103521, Note_on_c, 0, 83, 94
1, 103521, Control_c, 0, 64, 82
1, 103522, Note_on_c, 0, 62, 90
1, 103527, Note_on_c, 0, 55, 77
1, 103536, Control_c, 0, 64, 62
1, 103551, Control_c, 0, 64, 0
1, 103605, Note_on_c, 0, 58, 82
1, 103610, Note_off_c, 0, 83, 65
1, 103614, Note_off_c, 0, 55, 62
1, 103615, Note_on_c, 0, 84, 82
1, 103616, Note_off_c, 0, 62, 61
1, 103636, Note_off_c, 0, 84, 69
1, 103655, Note_off_c, 0, 58, 63
1, 103685, Control_c, 0, 64, 30
1, 103699, Control_c, 0, 64, 59
1, 103709, Note_on_c, 0, 61, 95
1, 103712, Note_on_c, 0, 55, 83
1, 103714, Note_on_c, 0, 89, 94
1, 103714, Control_c, 0, 64, 69
1, 103715, Note_on_c, 0, 77, 98
1, 103729, Control_c, 0, 64, 85
1, 103743, Control_c, 0, 64, 127
1, 103745, Note_on_c, 0, 88, 43
1, 103746, Note_off_c, 0, 88, 127
1, 103807, Note_on_c, 0, 57, 76
1, 103813, Note_on_c, 0, 84, 76
1, 103827, Note_on_c, 0, 83, 86
1, 103828, Note_off_c, 0, 61, 60
1, 103828, Note_off_c, 0, 77, 61
1, 103848, Note_off_c, 0, 55, 61
1, 103852, Note_off_c, 0, 89, 57
1, 103867, Note_off_c, 0, 57, 64
1, 103879, Note_off_c, 0, 83, 59
1, 103879, Note_off_c, 0, 84, 63
1, 103919, Note_on_c, 0, 85, 92
1, 103925, Note_on_c, 0, 55, 89
1, 103928, Note_on_c, 0, 60, 88
1, 103953, Note_on_c, 0, 84, 16
1, 104005, Note_off_c, 0, 84, 26
1, 104007, Note_on_c, 0, 86, 92
1, 104011, Note_off_c, 0, 85, 64
1, 104016, Note_on_c, 0, 56, 90
1, 104031, Note_off_c, 0, 55, 61
1, 104033, Note_off_c, 0, 60, 62
1, 104052, Note_off_c, 0, 86, 67
1, 104062, Control_c, 0, 64, 95
1, 104063, Note_off_c, 0, 56, 66
1, 104078, Control_c, 0, 64, 65
1, 104093, Control_c, 0, 64, 31
1, 104108, Control_c, 0, 64, 27
1, 104112, Note_on_c, 0, 87, 100
1, 104117, Note_on_c, 0, 59, 101
1, 104123, Control_c, 0, 64, 46
1, 104126, Note_on_c, 0, 55, 83
1, 104137, Control_c, 0, 64, 63
1, 104152, Control_c, 0, 64, 77
1, 104153, Note_on_c, 0, 78, 39
1, 104156, Note_off_c, 0, 87, 64
1, 104166, Control_c, 0, 64, 127
1, 104182, Note_off_c, 0, 78, 37
1, 104203, Note_on_c, 0, 58, 92
1, 104211, Note_on_c, 0, 86, 65
1, 104219, Note_off_c, 0, 59, 68
1, 104228, Note_on_c, 0, 57, 83
1, 104228, Note_off_c, 0, 55, 64
1, 104230, Note_on_c, 0, 79, 62
1, 104230, Note_off_c, 0, 58, 65
1, 104249, Note_off_c, 0, 86, 64
1, 104250, Note_off_c, 0, 57, 68
1, 104263, Note_off_c, 0, 79, 68
1, 104299, Control_c, 0, 64, 97
1, 104314, Control_c, 0, 64, 67
1, 104329, Control_c, 0, 64, 66
1, 104344, Note_on_c, 0, 42, 98
1, 104344, Control_c, 0, 64, 77
1, 104345, Note_on_c, 0, 54, 107
1, 104359, Control_c, 0, 64, 127
1, 104365, Note_on_c, 0, 41, 69
1, 104377, Note_on_c, 0, 56, 92
1, 104386, Note_off_c, 0, 41, 64
1, 104386, Note_off_c, 0, 54, 65
1, 104387, Note_off_c, 0, 42, 65
1, 104438, Note_off_c, 0, 56, 59
1, 104457, Note_on_c, 0, 59, 73
1, 104537, Note_off_c, 0, 59, 60
1, 104552, Control_c, 0, 64, 103
1, 104567, Control_c, 0, 64, 73
1, 104584, Note_on_c, 0, 66, 111
1, 104587, Note_on_c, 0, 63, 75
1, 104588, Control_c, 0, 64, 66
1, 104603, Control_c, 0, 64, 74
1, 104618, Control_c, 0, 64, 123
1, 104620, Note_off_c, 0, 66, 66
1, 104630, Note_off_c, 0, 63, 58
1, 104633, Control_c, 0, 64, 127
1, 104687, Note_on_c, 0, 63, 76
1, 104738, Note_off_c, 0, 63, 65
1, 104780, Note_on_c, 0, 59, 84
1, 104781, Note_on_c, 0, 65, 112
1, 104781, Control_c, 0, 64, 82
1, 104796, Control_c, 0, 64, 56
1, 104811, Control_c, 0, 64, 0
1, 104813, Note_off_c, 0, 65, 68
1, 104840, Control_c, 0, 64, 30
1, 104854, Control_c, 0, 64, 59
1, 104860, Note_off_c, 0, 59, 63
1, 104870, Control_c, 0, 64, 76
1, 104872, Note_on_c, 0, 63, 76
1, 104885, Control_c, 0, 64, 127
1, 104909, Note_off_c, 0, 63, 64
1, 104959, Control_c, 0, 64, 91
1, 104973, Note_on_c, 0, 64, 109
1, 104974, Control_c, 0, 64, 61
1, 104988, Note_on_c, 0, 56, 77
1, 104989, Control_c, 0, 64, 34
1, 105002, Note_off_c, 0, 64, 71
1, 105003, Control_c, 0, 64, 45
1, 105015, Note_off_c, 0, 56, 69
1, 105018, Control_c, 0, 64, 59
1, 105033, Control_c, 0, 64, 72
1, 105048, Control_c, 0, 64, 127
1, 105072, Note_on_c, 0, 56, 89
1, 105102, Note_off_c, 0, 56, 64
1, 105122, Control_c, 0, 64, 123
1, 105137, Control_c, 0, 64, 71
1, 105152, Control_c, 0, 64, 18
1, 105167, Control_c, 0, 64, 0
1, 105171, Note_on_c, 0, 63, 107
1, 105192, Note_on_c, 0, 64, 87
1, 105211, Control_c, 0, 64, 55
1, 105215, Note_off_c, 0, 63, 66
1, 105226, Control_c, 0, 64, 67
1, 105238, Note_off_c, 0, 64, 64
1, 105241, Control_c, 0, 64, 89
1, 105256, Control_c, 0, 64, 127
1, 105277, Note_on_c, 0, 67, 87
1, 105331, Note_off_c, 0, 67, 65
1, 105337, Control_c, 0, 64, 83
1, 105352, Control_c, 0, 64, 45
1, 105366, Control_c, 0, 64, 0
1, 105384, Note_on_c, 0, 62, 106
1, 105393, Note_on_c, 0, 71, 96
1, 105422, Note_off_c, 0, 62, 68
1, 105426, Control_c, 0, 64, 54
1, 105437, Note_off_c, 0, 71, 64
1, 105441, Control_c, 0, 64, 69
1, 105456, Control_c, 0, 64, 90
1, 105470, Control_c, 0, 64, 127
1, 105484, Note_on_c, 0, 71, 89
1, 105530, Note_off_c, 0, 71, 65
1, 105544, Control_c, 0, 64, 112
1, 105559, Control_c, 0, 64, 73
1, 105575, Control_c, 0, 64, 57
1, 105590, Control_c, 0, 64, 52
1, 105591, Note_on_c, 0, 61, 114
1, 105604, Note_on_c, 0, 68, 94
1, 105604, Control_c, 0, 64, 58
1, 105619, Control_c, 0, 64, 67
1, 105632, Note_off_c, 0, 61, 66
1, 105634, Control_c, 0, 64, 78
1, 105649, Control_c, 0, 64, 82
1, 105657, Note_off_c, 0, 68, 61
1, 105664, Control_c, 0, 64, 70
1, 105679, Control_c, 0, 64, 45
1, 105694, Control_c, 0, 64, 0
1, 105694, Note_on_c, 0, 71, 83
1, 105745, Note_off_c, 0, 71, 65
1, 105788, Note_on_c, 0, 60, 106
1, 105798, Note_on_c, 0, 75, 93
1, 105798, Control_c, 0, 64, 43
1, 105813, Control_c, 0, 64, 62
1, 105821, Note_off_c, 0, 60, 70
1, 105827, Control_c, 0, 64, 70
1, 105842, Control_c, 0, 64, 85
1, 105851, Note_off_c, 0, 75, 60
1, 105857, Control_c, 0, 64, 127
1, 105882, Note_on_c, 0, 75, 79
1, 105933, Note_off_c, 0, 75, 64
1, 105975, Control_c, 0, 64, 98
1, 105987, Note_on_c, 0, 42, 95
1, 105990, Control_c, 0, 64, 67
1, 106005, Control_c, 0, 64, 52
1, 106011, Note_on_c, 0, 56, 89
1, 106019, Control_c, 0, 64, 50
1, 106034, Control_c, 0, 64, 56
1, 106046, Note_off_c, 0, 56, 63
1, 106046, Note_on_c, 0, 58, 23
1, 106049, Control_c, 0, 64, 64
1, 106072, Control_c, 0, 64, 75
1, 106085, Note_on_c, 0, 54, 91
1, 106087, Control_c, 0, 64, 127
1, 106094, Note_off_c, 0, 58, 31
1, 106104, Note_off_c, 0, 42, 65
1, 106106, Note_on_c, 0, 59, 72
1, 106112, Note_on_c, 0, 60, 68
1, 106113, Note_off_c, 0, 54, 65
1, 106139, Note_off_c, 0, 60, 68
1, 106160, Control_c, 0, 64, 115
1, 106168, Note_off_c, 0, 59, 62
1, 106175, Control_c, 0, 64, 73
1, 106190, Control_c, 0, 64, 48
1, 106196, Note_on_c, 0, 63, 80
1, 106205, Control_c, 0, 64, 0
1, 106214, Note_on_c, 0, 67, 95
1, 106261, Note_off_c, 0, 63, 62
1, 106262, Note_off_c, 0, 67, 64
1, 106264, Control_c, 0, 64, 52
1, 106279, Control_c, 0, 64, 68
1, 106294, Control_c, 0, 64, 84
1, 106307, Note_on_c, 0, 66, 86
1, 106308, Note_on_c, 0, 63, 71
1, 106308, Control_c, 0, 64, 127
1, 106353, Note_off_c, 0, 66, 60
1, 106377, Note_off_c, 0, 63, 61
1, 106398, Control_c, 0, 64, 121
1, 106399, Note_on_c, 0, 66, 84
1, 106413, Control_c, 0, 64, 74
1, 106416, Note_on_c, 0, 59, 84
1, 106428, Control_c, 0, 64, 52
1, 106443, Control_c, 0, 64, 29
1, 106458, Control_c, 0, 64, 47
1, 106473, Control_c, 0, 64, 62
1, 106475, Note_off_c, 0, 66, 64
1, 106482, Note_off_c, 0, 59, 51
1, 106488, Control_c, 0, 64, 76
1, 106501, Note_on_c, 0, 63, 81
1, 106501, Note_on_c, 0, 65, 66
1, 106502, Note_on_c, 0, 67, 62
1, 106503, Control_c, 0, 64, 127
1, 106532, Note_off_c, 0, 65, 65
1, 106532, Note_off_c, 0, 67, 67
1, 106536, Note_off_c, 0, 63, 67
1, 106562, Control_c, 0, 64, 108
1, 106577, Control_c, 0, 64, 72
1, 106592, Control_c, 0, 64, 54
1, 106601, Note_on_c, 0, 65, 98
1, 106607, Control_c, 0, 64, 47
1, 106616, Note_on_c, 0, 56, 91
1, 106621, Control_c, 0, 64, 59
1, 106636, Control_c, 0, 64, 72
1, 106644, Note_off_c, 0, 56, 67
1, 106648, Note_off_c, 0, 65, 63
1, 106651, Control_c, 0, 64, 127
1, 106692, Note_on_c, 0, 64, 88
1, 106708, Note_on_c, 0, 56, 87
1, 106725, Control_c, 0, 64, 117
1, 106738, Note_off_c, 0, 64, 66
1, 106740, Control_c, 0, 64, 81
1, 106749, Note_off_c, 0, 56, 67
1, 106755, Control_c, 0, 64, 74
1, 106769, Control_c, 0, 64, 78
1, 106784, Control_c, 0, 64, 93
1, 106799, Control_c, 0, 64, 127
1, 106806, Note_on_c, 0, 63, 92
1, 106819, Note_on_c, 0, 64, 87
1, 106890, Note_off_c, 0, 64, 57
1, 106914, Note_on_c, 0, 67, 95
1, 106920, Note_off_c, 0, 63, 52
1, 106926, Note_on_c, 0, 62, 88
1, 106943, Poly_aftertouch_c, 0, 72, 0
1, 106968, Note_off_c, 0, 67, 66
1, 106982, Note_off_c, 0, 62, 64
1, 106999, Control_c, 0, 64, 117
1, 107014, Control_c, 0, 64, 73
1, 107016, Note_on_c, 0, 71, 94
1, 107029, Control_c, 0, 64, 60
1, 107032, Note_on_c, 0, 62, 81
1, 107043, Control_c, 0, 64, 53
1, 107058, Control_c, 0, 64, 58
1, 107062, Note_off_c, 0, 71, 66
1, 107073, Control_c, 0, 64, 64
1, 107088, Control_c, 0, 64, 73
1, 107101, Note_on_c, 0, 71, 91
1, 107102, Control_c, 0, 64, 110
1, 107105, Note_off_c, 0, 62, 61
1, 107117, Control_c, 0, 64, 127
1, 107128, Note_on_c, 0, 61, 89
1, 107149, Note_off_c, 0, 71, 66
1, 107202, Note_off_c, 0, 61, 62
1, 107220, Note_on_c, 0, 60, 88
1, 107221, Note_on_c, 0, 68, 99
1, 107296, Note_off_c, 0, 68, 56
1, 107301, Note_on_c, 0, 59, 79
1, 107301, Note_off_c, 0, 60, 66
1, 107320, Note_on_c, 0, 71, 88
1, 107328, Note_off_c, 0, 59, 66
1, 107383, Note_off_c, 0, 71, 63
1, 107385, Control_c, 0, 64, 111
1, 107399, Control_c, 0, 64, 69
1, 107414, Control_c, 0, 64, 41
1, 107429, Control_c, 0, 64, 51
1, 107444, Control_c, 0, 64, 71
1, 107459, Note_on_c, 0, 75, 103
1, 107459, Control_c, 0, 64, 127
1, 107461, Note_on_c, 0, 44, 105
1, 107467, Note_on_c, 0, 32, 91
1, 107469, Note_on_c, 0, 46, 92
1, 107476, Note_on_c, 0, 34, 69
1, 107490, Note_off_c, 0, 32, 65
1, 107490, Note_off_c, 0, 44, 64
1, 107493, Note_off_c, 0, 46, 69
1, 107504, Note_off_c, 0, 34, 59
1, 107526, Note_off_c, 0, 75, 61
1, 107584, Note_on_c, 0, 75, 90
1, 107623, Poly_aftertouch_c, 0, 32, 127
1, 107638, Note_off_c, 0, 75, 63
1, 107659, Poly_aftertouch_c, 0, 32, 0
1, 107704, Control_c, 0, 64, 98
1, 107709, Note_on_c, 0, 47, 103
1, 107711, Note_on_c, 0, 35, 81
1, 107718, Control_c, 0, 64, 66
1, 107723, Note_on_c, 0, 56, 86
1, 107728, Note_on_c, 0, 54, 86
1, 107733, Control_c, 0, 64, 56
1, 107748, Control_c, 0, 64, 63
1, 107751, Note_off_c, 0, 54, 69
1, 107756, Note_off_c, 0, 35, 61
1, 107763, Control_c, 0, 64, 78
1, 107764, Note_off_c, 0, 47, 64
1, 107775, Note_off_c, 0, 56, 64
1, 107778, Control_c, 0, 64, 127
1, 107813, Note_on_c, 0, 59, 73
1, 107878, Note_on_c, 0, 63, 68
1, 107879, Note_off_c, 0, 59, 64
1, 107936, Note_on_c, 0, 51, 114
1, 107939, Note_on_c, 0, 71, 89
1, 107940, Control_c, 0, 64, 70
1, 107948, Note_on_c, 0, 39, 83
1, 107954, Note_off_c, 0, 63, 62
1, 107955, Control_c, 0, 64, 0
1, 107999, Control_c, 0, 64, 40
1, 108014, Control_c, 0, 64, 66
1, 108029, Control_c, 0, 64, 93
1, 108031, Note_on_c, 0, 63, 80
1, 108031, Note_off_c, 0, 71, 62
1, 108040, Note_off_c, 0, 51, 59
1, 108044, Control_c, 0, 64, 127
1, 108045, Note_off_c, 0, 39, 61
1, 108103, Note_off_c, 0, 63, 60
1, 108143, Note_on_c, 0, 51, 93
1, 108147, Note_on_c, 0, 39, 84
1, 108149, Note_on_c, 0, 59, 93
1, 108184, Note_off_c, 0, 51, 66
1, 108201, Note_off_c, 0, 59, 58
1, 108202, Note_off_c, 0, 39, 62
1, 108236, Note_on_c, 0, 63, 83
1, 108279, Note_off_c, 0, 63, 64
1, 108334, Control_c, 0, 64, 71
1, 108347, Note_on_c, 0, 47, 98
1, 108348, Control_c, 0, 64, 54
1, 108353, Note_on_c, 0, 35, 87
1, 108356, Note_on_c, 0, 70, 80
1, 108363, Control_c, 0, 64, 55
1, 108364, Note_on_c, 0, 71, 79
1, 108378, Control_c, 0, 64, 63
1, 108385, Note_off_c, 0, 35, 65
1, 108386, Note_off_c, 0, 47, 65
1, 108392, Note_on_c, 0, 72, 34
1, 108393, Note_off_c, 0, 72, 127
1, 108393, Control_c, 0, 64, 79
1, 108408, Control_c, 0, 64, 127
1, 108419, Note_off_c, 0, 71, 38
1, 108447, Note_on_c, 0, 58, 84
1, 108467, Note_off_c, 0, 70, 61
1, 108473, Note_off_c, 0, 58, 66
1, 108482, Note_on_c, 0, 57, 51
1, 108504, Note_off_c, 0, 57, 60
1, 108541, Note_on_c, 0, 51, 95
1, 108556, Note_on_c, 0, 39, 82
1, 108556, Note_on_c, 0, 56, 83
1, 108577, Note_off_c, 0, 51, 62
1, 108578, Note_on_c, 0, 58, 56
1, 108588, Note_off_c, 0, 39, 69
1, 108613, Note_off_c, 0, 56, 64
1, 108651, Note_off_c, 0, 58, 32
1, 108655, Note_on_c, 0, 60, 54
1, 108661, Note_on_c, 0, 59, 64
1, 108701, Note_off_c, 0, 59, 56
1, 108714, Note_off_c, 0, 60, 63
1, 108715, Note_on_c, 0, 63, 60
1, 108734, Control_c, 0, 64, 68
1, 108748, Control_c, 0, 64, 0
1, 108750, Note_on_c, 0, 44, 104
1, 108754, Note_on_c, 0, 32, 88
1, 108759, Note_on_c, 0, 69, 96
1, 108759, Note_off_c, 0, 63, 60
1, 108776, Note_on_c, 0, 46, 53
1, 108793, Control_c, 0, 64, 24
1, 108808, Note_off_c, 0, 46, 37
1, 108808, Control_c, 0, 64, 61
1, 108809, Note_off_c, 0, 32, 62
1, 108813, Note_off_c, 0, 44, 56
1, 108822, Control_c, 0, 64, 80
1, 108837, Control_c, 0, 64, 127
1, 108839, Note_on_c, 0, 63, 82
1, 108854, Note_off_c, 0, 69, 61
1, 108914, Note_off_c, 0, 63, 60
1, 108949, Note_on_c, 0, 44, 96
1, 108955, Note_on_c, 0, 32, 84
1, 108955, Note_on_c, 0, 59, 87
1, 109008, Note_off_c, 0, 44, 61
1, 109018, Note_off_c, 0, 59, 60
1, 109024, Note_off_c, 0, 32, 60
1, 109045, Note_on_c, 0, 63, 84
1, 109068, Control_c, 0, 64, 89
1, 109083, Control_c, 0, 64, 61
1, 109098, Control_c, 0, 64, 0
1, 109102, Note_off_c, 0, 63, 64
1, 109142, Control_c, 0, 64, 16
1, 109153, Note_on_c, 0, 44, 99
1, 109157, Control_c, 0, 64, 64
1, 109159, Note_on_c, 0, 32, 87
1, 109166, Note_on_c, 0, 68, 92
1, 109170, Note_on_c, 0, 56, 93
1, 109171, Control_c, 0, 64, 91
1, 109186, Control_c, 0, 64, 127
1, 109204, Note_off_c, 0, 44, 64
1, 109207, Note_off_c, 0, 32, 60
1, 109220, Note_off_c, 0, 56, 63
1, 109246, Note_off_c, 0, 68, 62
1, 109251, Poly_aftertouch_c, 0, 66, 127
1, 109266, Note_on_c, 0, 56, 62
1, 109283, Poly_aftertouch_c, 0, 66, 0
1, 109293, Note_off_c, 0, 56, 66
1, 109355, Note_on_c, 0, 47, 93
1, 109358, Note_on_c, 0, 56, 80
1, 109361, Note_on_c, 0, 35, 78
1, 109391, Note_off_c, 0, 35, 64
1, 109394, Note_off_c, 0, 47, 63
1, 109394, Control_c, 0, 64, 82
1, 109405, Note_on_c, 0, 55, 51
1, 109409, Control_c, 0, 64, 59
1, 109415, Note_off_c, 0, 56, 65
1, 109424, Control_c, 0, 64, 0
1, 109429, Note_off_c, 0, 55, 58
1, 109459, Note_on_c, 0, 59, 79
1, 109491, Note_off_c, 0, 59, 67
1, 109557, Control_c, 0, 64, 58
1, 109564, Note_on_c, 0, 51, 100
1, 109567, Note_on_c, 0, 67, 97
1, 109571, Note_on_c, 0, 60, 98
1, 109571, Control_c, 0, 64, 76
1, 109576, Note_on_c, 0, 39, 74
1, 109586, Control_c, 0, 64, 127
1, 109604, Note_off_c, 0, 60, 66
1, 109617, Note_off_c, 0, 51, 62
1, 109642, Note_off_c, 0, 39, 58
1, 109656, Note_off_c, 0, 67, 40
1, 109665, Note_on_c, 0, 60, 93
1, 109711, Note_off_c, 0, 60, 65
1, 109766, Note_on_c, 0, 39, 83
1, 109766, Note_on_c, 0, 51, 85
1, 109768, Note_on_c, 0, 59, 93
1, 109787, Note_off_c, 0, 51, 71
1, 109794, Control_c, 0, 64, 95
1, 109817, Control_c, 0, 64, 64
1, 109826, Note_off_c, 0, 39, 63
1, 109832, Control_c, 0, 64, 0
1, 109861, Note_off_c, 0, 59, 60
1, 109863, Note_on_c, 0, 63, 87
1, 109911, Note_off_c, 0, 63, 64
1, 109921, Control_c, 0, 64, 17
1, 109936, Control_c, 0, 64, 59
1, 109950, Control_c, 0, 64, 77
1, 109964, Note_on_c, 0, 66, 94
1, 109965, Note_on_c, 0, 47, 93
1, 109965, Control_c, 0, 64, 127
1, 109969, Note_on_c, 0, 35, 73
1, 109970, Note_on_c, 0, 45, 77
1, 109981, Note_on_c, 0, 33, 66
1, 109986, Note_on_c, 0, 55, 77
1, 109993, Note_off_c, 0, 45, 63
1, 109994, Note_off_c, 0, 47, 65
1, 109996, Note_off_c, 0, 35, 64
1, 110008, Note_off_c, 0, 33, 62
1, 110010, Note_off_c, 0, 55, 68
1, 110010, Note_off_c, 0, 66, 64
1, 110064, Note_on_c, 0, 55, 97
1, 110078, Poly_aftertouch_c, 0, 67, 0
1, 110097, Note_off_c, 0, 55, 68
1, 110151, Note_on_c, 0, 55, 96
1, 110165, Note_on_c, 0, 51, 87
1, 110173, Note_on_c, 0, 39, 77
1, 110188, Note_off_c, 0, 51, 69
1, 110191, Note_off_c, 0, 55, 63
1, 110205, Note_off_c, 0, 39, 65
1, 110216, Control_c, 0, 64, 102
1, 110231, Control_c, 0, 64, 69
1, 110246, Control_c, 0, 64, 25
1, 110253, Note_on_c, 0, 57, 92
1, 110261, Control_c, 0, 64, 0
1, 110277, Note_off_c, 0, 57, 66
1, 110335, Control_c, 0, 64, 58
1, 110347, Note_on_c, 0, 44, 99
1, 110349, Note_on_c, 0, 32, 88
1, 110350, Control_c, 0, 64, 79
1, 110360, Note_on_c, 0, 60, 96
1, 110363, Note_on_c, 0, 64, 90
1, 110365, Control_c, 0, 64, 127
1, 110374, Note_on_c, 0, 59, 66
1, 110392, Note_off_c, 0, 60, 64
1, 110395, Note_off_c, 0, 59, 39
1, 110398, Note_off_c, 0, 44, 63
1, 110405, Note_off_c, 0, 32, 60
1, 110420, Note_off_c, 0, 64, 64
1, 110455, Note_on_c, 0, 60, 95
1, 110497, Note_off_c, 0, 60, 62
1, 110568, Note_on_c, 0, 60, 91
1, 110569, Note_on_c, 0, 44, 91
1, 110574, Note_on_c, 0, 32, 82
1, 110606, Note_off_c, 0, 44, 61
1, 110613, Note_off_c, 0, 32, 64
1, 110640, Control_c, 0, 64, 110
1, 110655, Note_off_c, 0, 60, 61
1, 110655, Control_c, 0, 64, 65
1, 110661, Note_on_c, 0, 63, 83
1, 110670, Control_c, 0, 64, 0
1, 110714, Control_c, 0, 64, 58
1, 110719, Note_off_c, 0, 63, 56
1, 110729, Control_c, 0, 64, 127
1, 110756, Note_on_c, 0, 41, 111
1, 110759, Note_on_c, 0, 64, 91
1, 110759, Note_on_c, 0, 29, 94
1, 110759, Note_on_c, 0, 52, 91
1, 110768, Note_on_c, 0, 63, 50
1, 110776, Note_on_c, 0, 53, 73
1, 110785, Note_off_c, 0, 29, 69
1, 110786, Note_off_c, 0, 41, 67
1, 110792, Note_off_c, 0, 53, 69
1, 110795, Note_off_c, 0, 63, 66
1, 110798, Note_off_c, 0, 52, 67
1, 110807, Note_off_c, 0, 64, 67
1, 110838, Poly_aftertouch_c, 0, 30, 127
1, 110885, Poly_aftertouch_c, 0, 30, 0
1, 110974, Note_on_c, 0, 69, 82
1, 111000, Note_on_c, 0, 67, 44
1, 111010, Note_on_c, 0, 64, 58
1, 111018, Note_on_c, 0, 75, 67
1, 111021, Note_on_c, 0, 66, 44
1, 111024, Note_off_c, 0, 69, 64
1, 111027, Note_off_c, 0, 67, 59
1, 111035, Note_off_c, 0, 75, 62
1, 111037, Note_off_c, 0, 64, 63
1, 111060, Note_off_c, 0, 66, 47
1, 111063, Note_on_c, 0, 72, 85
1, 111108, Note_off_c, 0, 72, 66
1, 111156, Note_on_c, 0, 73, 97
1, 111157, Note_on_c, 0, 76, 99
1, 111163, Note_on_c, 0, 66, 84
1, 111163, Note_on_c, 0, 75, 83
1, 111200, Note_off_c, 0, 75, 44
1, 111207, Note_off_c, 0, 76, 65
1, 111213, Note_off_c, 0, 73, 62
1, 111254, Note_on_c, 0, 76, 82
1, 111271, Note_off_c, 0, 66, 47
1, 111298, Note_off_c, 0, 76, 66
1, 111360, Note_on_c, 0, 72, 94
1, 111361, Note_on_c, 0, 74, 95
1, 111367, Note_on_c, 0, 65, 70
1, 111399, Note_off_c, 0, 74, 62
1, 111400, Note_on_c, 0, 67, 40
1, 111415, Note_off_c, 0, 72, 63
1, 111429, Note_off_c, 0, 67, 53
1, 111430, Note_off_c, 0, 65, 61
1, 111452, Note_on_c, 0, 76, 70
1, 111486, Note_on_c, 0, 74, 27
1, 111487, Note_off_c, 0, 74, 127
1, 111543, Note_off_c, 0, 76, 45
1, 111550, Note_on_c, 0, 69, 92
1, 111555, Note_on_c, 0, 73, 105
1, 111567, Note_on_c, 0, 66, 78
1, 111594, Note_off_c, 0, 69, 66
1, 111603, Note_off_c, 0, 73, 61
1, 111642, Note_off_c, 0, 66, 53
1, 111645, Note_on_c, 0, 69, 81
1, 111693, Note_off_c, 0, 69, 65
1, 111743, Note_on_c, 0, 69, 78
1, 111744, Note_on_c, 0, 75, 110
1, 111763, Note_on_c, 0, 65, 68
1, 111789, Note_off_c, 0, 69, 65
1, 111799, Note_off_c, 0, 75, 59
1, 111802, Note_off_c, 0, 65, 56
1, 111850, Note_on_c, 0, 72, 80
1, 111871, Note_off_c, 0, 72, 70
1, 111907, Control_c, 0, 64, 117
1, 111921, Control_c, 0, 64, 75
1, 111936, Control_c, 0, 64, 62
1, 111945, Note_on_c, 0, 73, 106
1, 111945, Note_on_c, 0, 76, 106
1, 111951, Control_c, 0, 64, 60
1, 111952, Note_on_c, 0, 66, 93
1, 111966, Control_c, 0, 64, 64
1, 111981, Control_c, 0, 64, 73
1, 111993, Note_off_c, 0, 76, 66
1, 111996, Control_c, 0, 64, 107
1, 112002, Note_off_c, 0, 73, 56
1, 112011, Control_c, 0, 64, 127
1, 112014, Note_off_c, 0, 66, 55
1, 112035, Note_on_c, 0, 76, 91
1, 112080, Note_off_c, 0, 76, 70
1, 112139, Note_on_c, 0, 72, 89
1, 112145, Note_on_c, 0, 74, 89
1, 112146, Note_on_c, 0, 65, 75
1, 112186, Note_off_c, 0, 74, 62
1, 112199, Note_off_c, 0, 65, 62
1, 112199, Note_off_c, 0, 72, 62
1, 112226, Note_on_c, 0, 76, 80
1, 112321, Note_off_c, 0, 76, 0
1, 112334, Note_on_c, 0, 73, 104
1, 112335, Note_on_c, 0, 69, 87
1, 112342, Note_on_c, 0, 66, 76
1, 112366, Poly_aftertouch_c, 0, 76, 0
1, 112379, Note_off_c, 0, 73, 65
1, 112380, Note_off_c, 0, 69, 65
1, 112422, Note_off_c, 0, 66, 59
1, 112432, Note_on_c, 0, 69, 79
1, 112475, Note_off_c, 0, 69, 61
1, 112491, Control_c, 0, 64, 85
1, 112505, Poly_aftertouch_c, 0, 76, 0
1, 112506, Control_c, 0, 64, 63
1, 112521, Control_c, 0, 64, 55
1, 112526, Note_on_c, 0, 75, 107
1, 112529, Note_on_c, 0, 69, 80
1, 112536, Control_c, 0, 64, 59
1, 112536, Note_on_c, 0, 65, 76
1, 112550, Control_c, 0, 64, 64
1, 112565, Control_c, 0, 64, 75
1, 112579, Note_off_c, 0, 69, 65
1, 112580, Note_off_c, 0, 75, 59
1, 112580, Control_c, 0, 64, 127
1, 112598, Note_off_c, 0, 65, 55
1, 112629, Note_on_c, 0, 72, 82
1, 112673, Note_off_c, 0, 72, 62
1, 112723, Note_on_c, 0, 73, 95
1, 112726, Note_on_c, 0, 76, 90
1, 112735, Note_on_c, 0, 66, 83
1, 112766, Note_off_c, 0, 76, 64
1, 112771, Note_off_c, 0, 73, 64
1, 112776, Note_off_c, 0, 66, 56
1, 112821, Note_on_c, 0, 76, 89
1, 112873, Note_off_c, 0, 76, 65
1, 112919, Note_on_c, 0, 74, 105
1, 112929, Note_on_c, 0, 69, 87
1, 112929, Note_on_c, 0, 65, 85
1, 112948, Note_off_c, 0, 74, 67
1, 112956, Note_off_c, 0, 65, 60
1, 112979, Note_off_c, 0, 69, 64
1, 113015, Note_on_c, 0, 72, 93
1, 113064, Note_off_c, 0, 72, 64
1, 113124, Note_on_c, 0, 73, 107
1, 113126, Note_on_c, 0, 76, 103
1, 113137, Note_on_c, 0, 66, 79
1, 113162, Note_off_c, 0, 76, 68
1, 113163, Note_off_c, 0, 73, 67
1, 113188, Note_off_c, 0, 66, 58
1, 113220, Note_on_c, 0, 76, 100
1, 113278, Note_off_c, 0, 76, 63
1, 113320, Note_on_c, 0, 75, 105
1, 113324, Note_on_c, 0, 69, 91
1, 113335, Note_on_c, 0, 65, 74
1, 113357, Note_off_c, 0, 65, 69
1, 113369, Note_off_c, 0, 75, 59
1, 113373, Note_off_c, 0, 69, 65
1, 113408, Note_on_c, 0, 72, 94
1, 113457, Note_off_c, 0, 72, 65
1, 113517, Note_on_c, 0, 73, 100
1, 113519, Note_on_c, 0, 76, 96
1, 113530, Note_on_c, 0, 66, 74
1, 113564, Note_off_c, 0, 66, 63
1, 113567, Note_on_c, 0, 70, 22
1, 113568, Note_off_c, 0, 70, 127
1, 113568, Note_off_c, 0, 73, 62
1, 113568, Note_off_c, 0, 76, 64
1, 113606, Poly_aftertouch_c, 0, 70, 0
1, 113619, Note_on_c, 0, 76, 94
1, 113677, Note_off_c, 0, 76, 62
1, 113707, Note_on_c, 0, 74, 102
1, 113717, Note_on_c, 0, 65, 83
1, 113717, Note_on_c, 0, 69, 89
1, 113736, Note_off_c, 0, 74, 63
1, 113754, Note_off_c, 0, 65, 58
1, 113773, Note_off_c, 0, 69, 61
1, 113798, Note_on_c, 0, 72, 67
1, 113860, Note_off_c, 0, 72, 64
1, 113901, Note_on_c, 0, 73, 100
1, 113908, Note_on_c, 0, 66, 85
1, 113912, Note_on_c, 0, 76, 97
1, 113940, Note_off_c, 0, 73, 67
1, 113959, Note_off_c, 0, 66, 60
1, 113959, Note_off_c, 0, 76, 62
1, 113993, Note_on_c, 0, 76, 80
1, 114080, Note_off_c, 0, 76, 39
1, 114100, Note_on_c, 0, 75, 118
1, 114114, Note_on_c, 0, 72, 87
1, 114132, Note_off_c, 0, 75, 67
1, 114163, Note_off_c, 0, 72, 64
1, 114205, Note_on_c, 0, 76, 88
1, 114241, Control_c, 0, 64, 83
1, 114247, Note_off_c, 0, 76, 64
1, 114256, Control_c, 0, 64, 55
1, 114271, Control_c, 0, 64, 0
1, 114307, Note_on_c, 0, 80, 108
1, 114316, Note_on_c, 0, 79, 106
1, 114323, Control_c, 0, 64, 30
1, 114337, Note_off_c, 0, 80, 70
1, 114338, Control_c, 0, 64, 64
1, 114353, Control_c, 0, 64, 88
1, 114365, Note_off_c, 0, 79, 66
1, 114367, Control_c, 0, 64, 127
1, 114412, Note_on_c, 0, 79, 85
1, 114451, Note_off_c, 0, 79, 67
1, 114505, Note_on_c, 0, 76, 89
1, 114507, Note_on_c, 0, 78, 109
1, 114533, Note_off_c, 0, 78, 69
1, 114557, Note_off_c, 0, 76, 63
1, 114595, Note_on_c, 0, 79, 85
1, 114658, Note_off_c, 0, 79, 41
1, 114700, Note_on_c, 0, 75, 112
1, 114700, Note_on_c, 0, 72, 82
1, 114727, Note_off_c, 0, 75, 70
1, 114743, Note_off_c, 0, 72, 64
1, 114800, Note_on_c, 0, 72, 79
1, 114828, Note_on_c, 0, 81, 27
1, 114843, Note_off_c, 0, 72, 63
1, 114861, Note_off_c, 0, 81, 51
1, 114892, Note_on_c, 0, 73, 115
1, 114903, Note_on_c, 0, 72, 85
1, 114922, Note_off_c, 0, 73, 69
1, 114956, Note_off_c, 0, 72, 62
1, 114996, Note_on_c, 0, 76, 86
1, 115040, Note_off_c, 0, 76, 64
1, 115096, Note_on_c, 0, 80, 112
1, 115103, Note_on_c, 0, 79, 104
1, 115127, Note_off_c, 0, 80, 66
1, 115154, Note_off_c, 0, 79, 66
1, 115192, Note_on_c, 0, 79, 90
1, 115227, Note_off_c, 0, 79, 53
1, 115293, Note_on_c, 0, 78, 110
1, 115294, Note_on_c, 0, 76, 78
1, 115300, Note_on_c, 0, 77, 77
1, 115319, Note_off_c, 0, 78, 64
1, 115339, Note_off_c, 0, 77, 55
1, 115344, Note_off_c, 0, 76, 62
1, 115382, Note_on_c, 0, 79, 83
1, 115450, Note_off_c, 0, 79, 51
1, 115484, Note_on_c, 0, 72, 84
1, 115484, Note_on_c, 0, 75, 108
1, 115505, Note_on_c, 0, 79, 23
1, 115516, Note_off_c, 0, 75, 68
1, 115530, Note_off_c, 0, 72, 65
1, 115537, Note_off_c, 0, 79, 47
1, 115585, Note_on_c, 0, 72, 83
1, 115630, Note_off_c, 0, 72, 65
1, 115672, Note_on_c, 0, 73, 106
1, 115678, Note_on_c, 0, 72, 78
1, 115698, Note_off_c, 0, 73, 71
1, 115725, Note_off_c, 0, 72, 67
1, 115768, Note_on_c, 0, 76, 85
1, 115798, Control_c, 0, 64, 83
1, 115816, Note_off_c, 0, 76, 63
1, 115820, Control_c, 0, 64, 46
1, 115835, Control_c, 0, 64, 0
1, 115864, Note_on_c, 0, 80, 106
1, 115878, Note_on_c, 0, 79, 100
1, 115879, Control_c, 0, 64, 67
1, 115882, Note_on_c, 0, 78, 67
1, 115883, Note_off_c, 0, 78, 127
1, 115883, Note_off_c, 0, 80, 66
1, 115894, Control_c, 0, 64, 127
1, 115920, Note_off_c, 0, 79, 66
1, 115975, Note_on_c, 0, 79, 91
1, 116032, Note_off_c, 0, 79, 56
1, 116064, Note_on_c, 0, 75, 114
1, 116065, Note_on_c, 0, 72, 88
1, 116089, Note_off_c, 0, 75, 67
1, 116120, Note_off_c, 0, 72, 62
1, 116153, Note_on_c, 0, 76, 99
1, 116194, Note_off_c, 0, 76, 68
1, 116253, Note_on_c, 0, 79, 106
1, 116259, Note_on_c, 0, 80, 115
1, 116285, Note_off_c, 0, 80, 66
1, 116294, Note_off_c, 0, 79, 67
1, 116343, Note_on_c, 0, 79, 94
1, 116414, Note_off_c, 0, 79, 51
1, 116441, Note_on_c, 0, 72, 90
1, 116447, Note_on_c, 0, 75, 107
1, 116459, Note_off_c, 0, 75, 73
1, 116497, Note_off_c, 0, 72, 62
1, 116529, Note_on_c, 0, 76, 103
1, 116583, Note_off_c, 0, 76, 68
1, 116638, Note_on_c, 0, 80, 115
1, 116643, Note_on_c, 0, 79, 104
1, 116664, Note_off_c, 0, 80, 69
1, 116682, Note_off_c, 0, 79, 66
1, 116694, Note_on_c, 0, 81, 4
1, 116734, Note_off_c, 0, 81, 51
1, 116738, Note_on_c, 0, 79, 102
1, 116834, Note_on_c, 0, 75, 115
1, 116840, Note_on_c, 0, 72, 92
1, 116858, Note_off_c, 0, 75, 68
1, 116866, Note_off_c, 0, 79, 61
1, 116913, Note_off_c, 0, 72, 49
1, 116931, Note_on_c, 0, 76, 97
1, 116973, Note_off_c, 0, 76, 67
1, 117016, Note_on_c, 0, 80, 107
1, 117024, Note_on_c, 0, 79, 103
1, 117031, Note_off_c, 0, 80, 76
1, 117065, Note_off_c, 0, 79, 68
1, 117117, Note_on_c, 0, 79, 96
1, 117171, Note_off_c, 0, 79, 60
1, 117333, Control_c, 0, 64, 88
1, 117348, Control_c, 0, 64, 67
1, 117363, Control_c, 0, 64, 31
1, 117378, Control_c, 0, 64, 0
1, 117407, Control_c, 0, 67, 29
1, 117422, Control_c, 0, 67, 82
1, 117437, Control_c, 0, 67, 127
1, 117660, Note_on_c, 0, 38, 55
1, 117695, Note_off_c, 0, 38, 62
1, 117740, Note_on_c, 0, 40, 54
1, 117770, Note_off_c, 0, 40, 62
1, 117848, Note_on_c, 0, 38, 41
1, 117849, Note_on_c, 0, 41, 55
1, 117882, Note_off_c, 0, 41, 59
1, 117889, Note_off_c, 0, 38, 62
1, 117934, Note_on_c, 0, 42, 51
1, 117940, Note_on_c, 0, 45, 53
1, 117970, Note_off_c, 0, 45, 62
1, 117975, Note_off_c, 0, 42, 62
1, 117986, Control_c, 0, 64, 40
1, 118000, Control_c, 0, 64, 60
1, 118015, Control_c, 0, 64, 70
1, 118027, Note_on_c, 0, 21, 72
1, 118030, Control_c, 0, 64, 78
1, 118041, Note_on_c, 0, 42, 78
1, 118045, Control_c, 0, 64, 77
1, 118068, Control_c, 0, 64, 71
1, 118078, Note_off_c, 0, 21, 62
1, 118082, Control_c, 0, 64, 64
1, 118097, Control_c, 0, 64, 53
1, 118112, Control_c, 0, 64, 38
1, 118127, Control_c, 0, 64, 22
1, 118142, Control_c, 0, 64, 17
1, 118167, Note_off_c, 0, 42, 61
1, 118200, Control_c, 0, 64, 16
1, 118215, Control_c, 0, 64, 15
1, 118230, Control_c, 0, 64, 13
1, 118237, Note_on_c, 0, 38, 58
1, 118245, Control_c, 0, 64, 12
1, 118247, Note_on_c, 0, 43, 62
1, 118260, Control_c, 0, 64, 9
1, 118275, Control_c, 0, 64, 0
1, 118284, Note_off_c, 0, 38, 61
1, 118290, Note_off_c, 0, 43, 64
1, 118327, Note_on_c, 0, 26, 32
1, 118339, Note_on_c, 0, 44, 56
1, 118342, Note_on_c, 0, 47, 49
1, 118370, Note_off_c, 0, 26, 38
1, 118376, Note_off_c, 0, 44, 63
1, 118378, Control_c, 0, 64, 17
1, 118379, Note_off_c, 0, 47, 63
1, 118393, Control_c, 0, 64, 41
1, 118408, Control_c, 0, 64, 59
1, 118423, Control_c, 0, 64, 68
1, 118438, Control_c, 0, 64, 76
1, 118446, Note_on_c, 0, 21, 68
1, 118448, Note_on_c, 0, 44, 72
1, 118453, Control_c, 0, 64, 78
1, 118468, Control_c, 0, 64, 71
1, 118483, Control_c, 0, 64, 64
1, 118494, Note_off_c, 0, 21, 62
1, 118497, Note_off_c, 0, 44, 61
1, 118497, Control_c, 0, 64, 55
1, 118512, Control_c, 0, 64, 42
1, 118527, Control_c, 0, 64, 33
1, 118529, Note_on_c, 0, 45, 53
1, 118529, Note_on_c, 0, 48, 59
1, 118542, Control_c, 0, 64, 29
1, 118557, Control_c, 0, 64, 29
1, 118572, Control_c, 0, 64, 27
1, 118576, Note_off_c, 0, 48, 56
1, 118579, Note_off_c, 0, 45, 63
1, 118587, Control_c, 0, 64, 23
1, 118602, Control_c, 0, 64, 16
1, 118617, Control_c, 0, 64, 11
1, 118631, Control_c, 0, 64, 9
1, 118646, Control_c, 0, 64, 0
1, 118649, Note_on_c, 0, 38, 55
1, 118654, Note_on_c, 0, 45, 59
1, 118702, Note_off_c, 0, 38, 59
1, 118715, Note_off_c, 0, 45, 62
1, 118730, Note_on_c, 0, 26, 49
1, 118745, Note_on_c, 0, 49, 54
1, 118746, Note_on_c, 0, 46, 40
1, 118763, Note_off_c, 0, 26, 56
1, 118777, Note_off_c, 0, 46, 59
1, 118786, Note_off_c, 0, 49, 65
1, 118831, Control_c, 0, 64, 31
1, 118846, Control_c, 0, 64, 58
1, 118855, Note_on_c, 0, 46, 66
1, 118861, Note_on_c, 0, 21, 71
1, 118861, Control_c, 0, 64, 69
1, 118876, Control_c, 0, 64, 81
1, 118891, Control_c, 0, 64, 89
1, 118899, Note_off_c, 0, 21, 60
1, 118905, Note_off_c, 0, 46, 54
1, 118905, Control_c, 0, 64, 84
1, 118920, Control_c, 0, 64, 75
1, 118930, Note_on_c, 0, 47, 50
1, 118935, Control_c, 0, 64, 65
1, 118936, Note_on_c, 0, 50, 58
1, 118950, Control_c, 0, 64, 55
1, 118965, Control_c, 0, 64, 42
1, 118969, Note_off_c, 0, 47, 64
1, 118976, Note_off_c, 0, 50, 63
1, 118979, Control_c, 0, 64, 31
1, 118994, Control_c, 0, 64, 27
1, 119009, Control_c, 0, 64, 26
1, 119023, Control_c, 0, 64, 24
1, 119038, Control_c, 0, 64, 13
1, 119053, Control_c, 0, 64, 0
1, 119055, Note_on_c, 0, 38, 51
1, 119063, Note_on_c, 0, 47, 45
1, 119102, Note_off_c, 0, 47, 62
1, 119104, Note_off_c, 0, 38, 61
1, 119121, Note_on_c, 0, 26, 55
1, 119139, Note_on_c, 0, 48, 45
1, 119150, Note_on_c, 0, 51, 56
1, 119157, Note_off_c, 0, 26, 63
1, 119171, Note_off_c, 0, 48, 62
1, 119196, Note_off_c, 0, 51, 64
1, 119251, Note_on_c, 0, 48, 70
1, 119252, Note_on_c, 0, 21, 69
1, 119302, Note_off_c, 0, 48, 61
1, 119318, Note_off_c, 0, 21, 63
1, 119335, Note_on_c, 0, 52, 66
1, 119350, Control_c, 0, 64, 34
1, 119350, Control_c, 0, 67, 102
1, 119365, Note_off_c, 0, 52, 66
1, 119365, Control_c, 0, 64, 56
1, 119365, Control_c, 0, 67, 50
1, 119380, Control_c, 0, 64, 69
1, 119380, Control_c, 0, 67, 0
1, 119395, Control_c, 0, 64, 127
1, 119444, Note_on_c, 0, 56, 83
1, 119448, Note_on_c, 0, 40, 86
1, 119479, Note_on_c, 0, 30, 50
1, 119508, Note_off_c, 0, 56, 61
1, 119513, Note_off_c, 0, 40, 62
1, 119515, Note_on_c, 0, 32, 12
1, 119517, Note_off_c, 0, 30, 58
1, 119539, Note_on_c, 0, 55, 68
1, 119540, Note_on_c, 0, 52, 78
1, 119549, Note_on_c, 0, 28, 67
1, 119573, Note_off_c, 0, 52, 67
1, 119577, Note_off_c, 0, 32, 48
1, 119578, Note_off_c, 0, 28, 63
1, 119581, Note_off_c, 0, 55, 66
1, 119624, Control_c, 0, 64, 114
1, 119639, Control_c, 0, 64, 82
1, 119648, Note_on_c, 0, 55, 78
1, 119653, Note_on_c, 0, 56, 80
1, 119654, Control_c, 0, 64, 66
1, 119654, Note_on_c, 0, 52, 78
1, 119660, Note_on_c, 0, 21, 81
1, 119669, Control_c, 0, 64, 48
1, 119684, Control_c, 0, 64, 0
1, 119720, Note_on_c, 0, 54, 72
1, 119728, Note_off_c, 0, 21, 62
1, 119729, Note_on_c, 0, 33, 58
1, 119733, Note_on_c, 0, 51, 75
1, 119740, Note_off_c, 0, 56, 63
1, 119741, Note_off_c, 0, 52, 63
1, 119751, Note_off_c, 0, 55, 61
1, 119762, Note_off_c, 0, 33, 63
1, 119773, Control_c, 0, 67, 22
1, 119775, Note_off_c, 0, 51, 63
1, 119788, Control_c, 0, 67, 46
1, 119791, Note_off_c, 0, 54, 65
1, 119801, Control_c, 0, 67, 61
1, 119816, Control_c, 0, 67, 72
1, 119831, Control_c, 0, 67, 78
1, 119845, Control_c, 0, 67, 86
1, 119846, Note_on_c, 0, 56, 74
1, 119855, Note_on_c, 0, 51, 72
1, 119860, Control_c, 0, 67, 97
1, 119868, Note_on_c, 0, 54, 49
1, 119875, Control_c, 0, 67, 109
1, 119883, Note_on_c, 0, 40, 40
1, 119890, Control_c, 0, 67, 125
1, 119905, Control_c, 0, 67, 127
1, 119914, Poly_aftertouch_c, 0, 32, 127
1, 119918, Note_off_c, 0, 40, 54
1, 119920, Note_off_c, 0, 51, 58
1, 119934, Note_on_c, 0, 53, 61
1, 119934, Note_off_c, 0, 56, 62
1, 119948, Note_off_c, 0, 54, 59
1, 119949, Note_on_c, 0, 28, 33
1, 119956, Note_on_c, 0, 50, 48
1, 119961, Poly_aftertouch_c, 0, 32, 0
1, 119973, Note_on_c, 0, 52, 27
1, 119974, Note_off_c, 0, 52, 127
1, 119981, Note_off_c, 0, 53, 63
1, 119984, Note_off_c, 0, 50, 55
1, 119992, Note_off_c, 0, 28, 42
1, 120050, Note_on_c, 0, 56, 79
1, 120052, Note_on_c, 0, 21, 68
1, 120055, Note_on_c, 0, 50, 70
1, 120097, Note_off_c, 0, 21, 58
1, 120125, Note_off_c, 0, 50, 62
1, 120133, Note_off_c, 0, 56, 63
1, 120140, Note_on_c, 0, 52, 56
1, 120166, Note_on_c, 0, 49, 46
1, 120192, Note_off_c, 0, 49, 56
1, 120198, Note_off_c, 0, 52, 60
1, 120259, Note_on_c, 0, 49, 68
1, 120259, Note_on_c, 0, 56, 71
1, 120269, Note_on_c, 0, 40, 52
1, 120303, Note_off_c, 0, 49, 63
1, 120329, Note_off_c, 0, 40, 62
1, 120345, Note_off_c, 0, 56, 59
1, 120346, Note_on_c, 0, 28, 50
1, 120369, Note_on_c, 0, 51, 67
1, 120381, Note_off_c, 0, 28, 61
1, 120382, Note_on_c, 0, 48, 44
1, 120417, Note_off_c, 0, 48, 63
1, 120417, Note_off_c, 0, 51, 60
1, 120462, Control_c, 0, 64, 35
1, 120470, Note_on_c, 0, 21, 65
1, 120475, Note_on_c, 0, 56, 72
1, 120476, Control_c, 0, 64, 54
1, 120491, Control_c, 0, 64, 63
1, 120506, Control_c, 0, 64, 68
1, 120507, Note_off_c, 0, 21, 62
1, 120521, Control_c, 0, 64, 74
1, 120544, Note_on_c, 0, 33, 30
1, 120551, Control_c, 0, 64, 72
1, 120559, Note_on_c, 0, 50, 68
1, 120566, Control_c, 0, 64, 68
1, 120570, Note_off_c, 0, 56, 59
1, 120581, Control_c, 0, 64, 64
1, 120584, Note_off_c, 0, 33, 43
1, 120590, Note_on_c, 0, 47, 30
1, 120595, Control_c, 0, 64, 59
1, 120606, Note_off_c, 0, 50, 62
1, 120610, Control_c, 0, 64, 49
1, 120623, Note_off_c, 0, 47, 41
1, 120625, Control_c, 0, 64, 40
1, 120640, Control_c, 0, 64, 33
1, 120655, Control_c, 0, 64, 29
1, 120667, Note_on_c, 0, 40, 57
1, 120669, Control_c, 0, 64, 26
1, 120676, Note_on_c, 0, 56, 77
1, 120684, Control_c, 0, 64, 19
1, 120699, Control_c, 0, 64, 0
1, 120713, Note_off_c, 0, 40, 64
1, 120727, Note_on_c, 0, 28, 50
1, 120754, Note_on_c, 0, 49, 68
1, 120760, Note_off_c, 0, 28, 55
1, 120775, Note_on_c, 0, 45, 39
1, 120777, Note_off_c, 0, 56, 63
1, 120797, Note_off_c, 0, 49, 61
1, 120806, Note_off_c, 0, 45, 50
1, 120817, Control_c, 0, 64, 36
1, 120832, Control_c, 0, 64, 57
1, 120848, Control_c, 0, 64, 67
1, 120852, Note_on_c, 0, 21, 73
1, 120861, Note_on_c, 0, 57, 84
1, 120863, Control_c, 0, 64, 79
1, 120878, Control_c, 0, 64, 127
1, 120883, Note_on_c, 0, 45, 70
1, 120904, Note_off_c, 0, 21, 63
1, 120914, Note_on_c, 0, 33, 53
1, 120927, Note_off_c, 0, 57, 62
1, 120948, Note_off_c, 0, 33, 62
1, 120952, Control_c, 0, 64, 111
1, 120953, Note_off_c, 0, 45, 63
1, 120967, Control_c, 0, 64, 84
1, 120981, Control_c, 0, 64, 67
1, 120996, Control_c, 0, 64, 54
1, 121011, Control_c, 0, 64, 32
1, 121026, Control_c, 0, 64, 18
1, 121056, Note_on_c, 0, 44, 67
1, 121058, Note_on_c, 0, 41, 63
1, 121063, Control_c, 0, 64, 17
1, 121078, Control_c, 0, 64, 12
1, 121093, Control_c, 0, 64, 0
1, 121100, Note_off_c, 0, 44, 60
1, 121118, Note_off_c, 0, 41, 59
1, 121135, Note_on_c, 0, 45, 26
1, 121141, Note_on_c, 0, 29, 57
1, 121141, Note_on_c, 0, 48, 63
1, 121169, Note_off_c, 0, 45, 57
1, 121174, Note_off_c, 0, 29, 60
1, 121190, Note_off_c, 0, 48, 62
1, 121261, Note_on_c, 0, 45, 61
1, 121274, Note_on_c, 0, 24, 62
1, 121315, Note_off_c, 0, 24, 63
1, 121330, Note_off_c, 0, 45, 62
1, 121360, Note_on_c, 0, 46, 36
1, 121360, Note_on_c, 0, 49, 52
1, 121389, Note_off_c, 0, 46, 56
1, 121392, Note_off_c, 0, 49, 64
1, 121469, Note_on_c, 0, 46, 58
1, 121470, Note_on_c, 0, 41, 62
1, 121511, Note_off_c, 0, 46, 63
1, 121528, Note_off_c, 0, 41, 58
1, 121544, Note_on_c, 0, 47, 44
1, 121548, Note_on_c, 0, 50, 58
1, 121555, Note_on_c, 0, 29, 52
1, 121583, Note_off_c, 0, 47, 63
1, 121588, Note_off_c, 0, 29, 56
1, 121589, Note_off_c, 0, 50, 65
1, 121674, Note_on_c, 0, 47, 65
1, 121677, Note_on_c, 0, 24, 71
1, 121732, Note_off_c, 0, 24, 61
1, 121732, Note_off_c, 0, 47, 61
1, 121770, Note_on_c, 0, 48, 41
1, 121770, Note_on_c, 0, 51, 63
1, 121804, Note_off_c, 0, 48, 56
1, 121815, Note_off_c, 0, 51, 67
1, 121873, Note_on_c, 0, 41, 75
1, 121880, Note_on_c, 0, 48, 69
1, 121937, Note_off_c, 0, 41, 64
1, 121940, Note_off_c, 0, 48, 62
1, 121972, Note_on_c, 0, 29, 46
1, 121973, Note_on_c, 0, 49, 50
1, 121973, Note_on_c, 0, 52, 57
1, 122007, Note_off_c, 0, 49, 65
1, 122010, Note_off_c, 0, 29, 46
1, 122012, Note_off_c, 0, 52, 63
1, 122080, Note_on_c, 0, 49, 67
1, 122094, Note_on_c, 0, 24, 68
1, 122144, Note_off_c, 0, 24, 60
1, 122153, Note_off_c, 0, 49, 62
1, 122162, Note_on_c, 0, 50, 48
1, 122172, Note_on_c, 0, 53, 61
1, 122204, Note_off_c, 0, 50, 64
1, 122222, Note_off_c, 0, 53, 62
1, 122288, Note_on_c, 0, 50, 73
1, 122289, Note_on_c, 0, 41, 63
1, 122347, Note_off_c, 0, 41, 57
1, 122349, Note_off_c, 0, 50, 61
1, 122373, Note_on_c, 0, 29, 55
1, 122383, Note_on_c, 0, 51, 51
1, 122389, Note_on_c, 0, 54, 63
1, 122408, Note_off_c, 0, 29, 61
1, 122417, Note_off_c, 0, 51, 65
1, 122429, Note_off_c, 0, 54, 66
1, 122487, Note_on_c, 0, 51, 78
1, 122489, Note_on_c, 0, 24, 72
1, 122551, Note_off_c, 0, 51, 61
1, 122575, Control_c, 0, 67, 113
1, 122577, Note_off_c, 0, 24, 61
1, 122582, Note_on_c, 0, 52, 46
1, 122587, Note_on_c, 0, 36, 62
1, 122590, Control_c, 0, 64, 37
1, 122590, Control_c, 0, 67, 65
1, 122594, Note_on_c, 0, 55, 61
1, 122605, Control_c, 0, 64, 61
1, 122605, Control_c, 0, 67, 0
1, 122612, Note_off_c, 0, 52, 64
1, 122617, Note_off_c, 0, 36, 64
1, 122620, Control_c, 0, 64, 79
1, 122622, Note_off_c, 0, 55, 66
1, 122635, Control_c, 0, 64, 127
1, 122698, Note_on_c, 0, 59, 100
1, 122700, Note_on_c, 0, 43, 87
1, 122757, Note_on_c, 0, 36, 9
1, 122764, Note_off_c, 0, 43, 61
1, 122772, Note_on_c, 0, 58, 49
1, 122780, Note_on_c, 0, 55, 63
1, 122787, Note_on_c, 0, 31, 69
1, 122806, Note_off_c, 0, 36, 52
1, 122808, Note_off_c, 0, 59, 59
1, 122819, Note_off_c, 0, 31, 63
1, 122825, Note_off_c, 0, 55, 62
1, 122838, Note_off_c, 0, 58, 64
1, 122877, Poly_aftertouch_c, 0, 58, 0
1, 122884, Note_on_c, 0, 58, 66
1, 122886, Control_c, 0, 64, 105
1, 122896, Note_on_c, 0, 59, 83
1, 122900, Note_on_c, 0, 24, 77
1, 122901, Note_on_c, 0, 55, 72
1, 122901, Control_c, 0, 64, 77
1, 122916, Control_c, 0, 64, 62
1, 122931, Control_c, 0, 64, 34
1, 122945, Control_c, 0, 64, 0
1, 122970, Note_off_c, 0, 59, 65
1, 122974, Note_on_c, 0, 57, 77
1, 122979, Note_off_c, 0, 24, 61
1, 122984, Note_off_c, 0, 55, 55
1, 122988, Note_on_c, 0, 36, 52
1, 122990, Note_on_c, 0, 54, 79
1, 123005, Control_c, 0, 67, 13
1, 123010, Note_off_c, 0, 58, 63
1, 123013, Poly_aftertouch_c, 0, 27, 0
1, 123019, Control_c, 0, 67, 47
1, 123020, Note_off_c, 0, 36, 62
1, 123027, Note_off_c, 0, 57, 64
1, 123034, Control_c, 0, 67, 81
1, 123041, Note_off_c, 0, 54, 64
1, 123049, Control_c, 0, 67, 113
1, 123064, Control_c, 0, 67, 127
1, 123117, Note_on_c, 0, 59, 70
1, 123121, Note_on_c, 0, 54, 69
1, 123124, Note_on_c, 0, 43, 58
1, 123128, Note_on_c, 0, 57, 68
1, 123166, Note_off_c, 0, 43, 64
1, 123183, Note_on_c, 0, 31, 54
1, 123183, Note_off_c, 0, 54, 56
1, 123195, Note_off_c, 0, 59, 63
1, 123202, Note_on_c, 0, 56, 68
1, 123210, Note_off_c, 0, 57, 62
1, 123214, Note_on_c, 0, 53, 60
1, 123221, Note_off_c, 0, 31, 64
1, 123245, Note_off_c, 0, 56, 62
1, 123246, Note_off_c, 0, 53, 65
1, 123326, Note_on_c, 0, 24, 64
1, 123333, Note_on_c, 0, 53, 68
1, 123335, Note_on_c, 0, 59, 67
1, 123349, Note_on_c, 0, 56, 63
1, 123374, Note_off_c, 0, 24, 58
1, 123401, Note_on_c, 0, 36, 41
1, 123402, Note_off_c, 0, 53, 62
1, 123408, Note_off_c, 0, 59, 63
1, 123420, Note_on_c, 0, 55, 65
1, 123434, Note_on_c, 0, 52, 61
1, 123437, Note_off_c, 0, 36, 50
1, 123450, Note_off_c, 0, 56, 61
1, 123466, Note_off_c, 0, 52, 66
1, 123481, Note_off_c, 0, 55, 63
1, 123527, Note_on_c, 0, 43, 65
1, 123559, Note_on_c, 0, 52, 50
1, 123568, Note_on_c, 0, 55, 42
1, 123581, Note_off_c, 0, 52, 60
1, 123583, Note_off_c, 0, 43, 58
1, 123598, Poly_aftertouch_c, 0, 37, 127
1, 123601, Note_on_c, 0, 59, 10
1, 123617, Note_off_c, 0, 55, 53
1, 123628, Note_off_c, 0, 59, 28
1, 123642, Poly_aftertouch_c, 0, 37, 0
1, 123648, Note_on_c, 0, 54, 50
1, 123675, Note_on_c, 0, 52, 30
1, 123676, Note_off_c, 0, 52, 127
1, 123676, Note_off_c, 0, 54, 63
1, 123727, Note_on_c, 0, 59, 72
1, 123731, Note_on_c, 0, 24, 73
1, 123778, Note_off_c, 0, 24, 60
1, 123809, Note_off_c, 0, 59, 63
1, 123823, Note_on_c, 0, 53, 66
1, 123869, Note_off_c, 0, 53, 61
1, 123920, Note_on_c, 0, 43, 70
1, 123928, Note_on_c, 0, 59, 73
1, 123985, Note_off_c, 0, 43, 58
1, 124005, Note_on_c, 0, 51, 69
1, 124007, Note_off_c, 0, 59, 60
1, 124015, Note_on_c, 0, 31, 43
1, 124054, Note_off_c, 0, 51, 61
1, 124062, Note_off_c, 0, 31, 46
1, 124101, Control_c, 0, 64, 36
1, 124116, Control_c, 0, 64, 60
1, 124131, Note_on_c, 0, 24, 73
1, 124131, Control_c, 0, 64, 70
1, 124132, Note_on_c, 0, 60, 81
1, 124146, Control_c, 0, 64, 91
1, 124146, Control_c, 0, 67, 95
1, 124161, Control_c, 0, 64, 127
1, 124161, Control_c, 0, 67, 46
1, 124176, Control_c, 0, 67, 0
1, 124183, Note_off_c, 0, 24, 60
1, 124222, Note_on_c, 0, 51, 71
1, 124235, Control_c, 0, 64, 103
1, 124250, Control_c, 0, 64, 78
1, 124256, Note_off_c, 0, 51, 67
1, 124263, Note_off_c, 0, 60, 55
1, 124264, Control_c, 0, 64, 65
1, 124279, Control_c, 0, 64, 52
1, 124295, Control_c, 0, 64, 33
1, 124310, Control_c, 0, 64, 21
1, 124322, Note_on_c, 0, 53, 75
1, 124324, Control_c, 0, 64, 16
1, 124330, Note_on_c, 0, 50, 69
1, 124339, Control_c, 0, 64, 0
1, 124376, Note_on_c, 0, 42, 33
1, 124380, Note_off_c, 0, 53, 62
1, 124388, Note_off_c, 0, 50, 60
1, 124405, Note_off_c, 0, 42, 51
1, 124411, Note_on_c, 0, 38, 59
1, 124428, Note_on_c, 0, 54, 59
1, 124434, Note_on_c, 0, 57, 53
1, 124444, Note_off_c, 0, 38, 63
1, 124456, Note_off_c, 0, 54, 64
1, 124461, Note_off_c, 0, 57, 63
1, 124520, Note_on_c, 0, 33, 75
1, 124522, Note_on_c, 0, 54, 74
1, 124585, Note_off_c, 0, 54, 65
1, 124587, Note_off_c, 0, 33, 63
1, 124620, Note_on_c, 0, 55, 40
1, 124623, Note_on_c, 0, 58, 65
1, 124652, Note_off_c, 0, 55, 64
1, 124671, Note_off_c, 0, 58, 63
1, 124723, Note_on_c, 0, 50, 69
1, 124730, Note_on_c, 0, 55, 75
1, 124801, Note_off_c, 0, 50, 63
1, 124808, Note_off_c, 0, 55, 63
1, 124810, Note_on_c, 0, 38, 56
1, 124834, Note_on_c, 0, 59, 65
1, 124841, Note_on_c, 0, 56, 55
1, 124841, Note_off_c, 0, 38, 63
1, 124874, Note_off_c, 0, 56, 65
1, 124875, Note_off_c, 0, 59, 64
1, 124940, Note_on_c, 0, 33, 75
1, 124942, Note_on_c, 0, 56, 77
1, 125002, Note_off_c, 0, 33, 63
1, 125003, Note_off_c, 0, 56, 64
1, 125017, Note_on_c, 0, 57, 47
1, 125026, Note_on_c, 0, 60, 68
1, 125035, Note_on_c, 0, 45, 40
1, 125059, Note_off_c, 0, 57, 65
1, 125068, Note_off_c, 0, 45, 48
1, 125075, Note_off_c, 0, 60, 60
1, 125144, Note_on_c, 0, 50, 72
1, 125145, Note_on_c, 0, 57, 76
1, 125213, Note_off_c, 0, 50, 63
1, 125222, Note_off_c, 0, 57, 63
1, 125227, Note_on_c, 0, 38, 52
1, 125250, Note_on_c, 0, 61, 61
1, 125252, Note_on_c, 0, 58, 41
1, 125260, Note_off_c, 0, 38, 61
1, 125285, Note_off_c, 0, 58, 62
1, 125300, Note_off_c, 0, 61, 59
1, 125352, Note_on_c, 0, 33, 74
1, 125353, Note_on_c, 0, 58, 78
1, 125413, Note_off_c, 0, 58, 62
1, 125420, Note_off_c, 0, 33, 63
1, 125423, Note_on_c, 0, 59, 43
1, 125428, Note_on_c, 0, 45, 60
1, 125437, Note_on_c, 0, 62, 65
1, 125462, Note_off_c, 0, 45, 63
1, 125475, Note_off_c, 0, 59, 64
1, 125485, Note_off_c, 0, 62, 61
1, 125568, Note_on_c, 0, 50, 68
1, 125573, Note_on_c, 0, 59, 80
1, 125635, Note_off_c, 0, 50, 62
1, 125637, Note_off_c, 0, 59, 63
1, 125649, Note_on_c, 0, 38, 44
1, 125662, Note_on_c, 0, 63, 63
1, 125669, Note_on_c, 0, 60, 45
1, 125686, Note_off_c, 0, 38, 62
1, 125693, Note_off_c, 0, 60, 60
1, 125700, Note_off_c, 0, 63, 66
1, 125767, Note_on_c, 0, 60, 76
1, 125771, Note_on_c, 0, 33, 71
1, 125829, Note_off_c, 0, 60, 64
1, 125836, Control_c, 0, 64, 36
1, 125846, Note_off_c, 0, 33, 62
1, 125848, Note_on_c, 0, 45, 61
1, 125851, Control_c, 0, 64, 62
1, 125860, Note_on_c, 0, 64, 66
1, 125866, Control_c, 0, 64, 84
1, 125877, Note_on_c, 0, 61, 23
1, 125877, Note_off_c, 0, 45, 66
1, 125881, Control_c, 0, 64, 127
1, 125887, Note_off_c, 0, 64, 66
1, 125915, Note_off_c, 0, 61, 52
1, 125956, Note_on_c, 0, 52, 95
1, 125960, Note_on_c, 0, 68, 90
1, 126003, Note_on_c, 0, 44, 43
1, 126016, Note_off_c, 0, 68, 60
1, 126047, Note_off_c, 0, 52, 62
1, 126047, Poly_aftertouch_c, 0, 46, 127
1, 126060, Note_on_c, 0, 40, 65
1, 126060, Note_on_c, 0, 67, 84
1, 126066, Note_on_c, 0, 64, 82
1, 126072, Note_off_c, 0, 44, 39
1, 126087, Poly_aftertouch_c, 0, 46, 0
1, 126096, Note_off_c, 0, 40, 63
1, 126099, Note_off_c, 0, 64, 63
1, 126111, Note_off_c, 0, 67, 64
1, 126117, Control_c, 0, 64, 100
1, 126132, Control_c, 0, 64, 77
1, 126147, Control_c, 0, 64, 63
1, 126161, Note_on_c, 0, 67, 72
1, 126161, Control_c, 0, 64, 40
1, 126168, Note_on_c, 0, 68, 87
1, 126174, Note_on_c, 0, 64, 73
1, 126175, Note_on_c, 0, 33, 77
1, 126176, Control_c, 0, 64, 0
1, 126221, Control_c, 0, 67, 18
1, 126236, Control_c, 0, 67, 39
1, 126245, Note_on_c, 0, 66, 71
1, 126251, Control_c, 0, 67, 58
1, 126254, Note_off_c, 0, 33, 63
1, 126260, Note_on_c, 0, 45, 72
1, 126264, Note_on_c, 0, 63, 76
1, 126266, Control_c, 0, 67, 79
1, 126267, Note_off_c, 0, 64, 63
1, 126275, Note_off_c, 0, 68, 56
1, 126277, Note_off_c, 0, 67, 61
1, 126287, Control_c, 0, 67, 96
1, 126302, Control_c, 0, 67, 112
1, 126307, Note_off_c, 0, 45, 65
1, 126316, Note_off_c, 0, 63, 61
1, 126317, Control_c, 0, 67, 122
1, 126321, Note_off_c, 0, 66, 63
1, 126332, Control_c, 0, 67, 124
1, 126379, Note_on_c, 0, 68, 81
1, 126391, Note_on_c, 0, 63, 70
1, 126391, Control_c, 0, 67, 124
1, 126403, Note_on_c, 0, 66, 53
1, 126404, Note_on_c, 0, 52, 73
1, 126406, Control_c, 0, 67, 122
1, 126421, Control_c, 0, 67, 121
1, 126437, Control_c, 0, 67, 120
1, 126452, Control_c, 0, 67, 119
1, 126462, Note_off_c, 0, 63, 58
1, 126465, Note_off_c, 0, 52, 63
1, 126465, Note_on_c, 0, 65, 73
1, 126466, Control_c, 0, 67, 118
1, 126481, Control_c, 0, 67, 117
1, 126488, Note_off_c, 0, 68, 60
1, 126489, Note_on_c, 0, 40, 54
1, 126492, Note_on_c, 0, 62, 60
1, 126496, Control_c, 0, 67, 117
1, 126498, Note_off_c, 0, 66, 63
1, 126511, Control_c, 0, 67, 116
1, 126517, Note_off_c, 0, 40, 58
1, 126518, Note_off_c, 0, 65, 62
1, 126522, Note_off_c, 0, 62, 64
1, 126540, Control_c, 0, 67, 115
1, 126570, Control_c, 0, 67, 115
1, 126589, Note_on_c, 0, 62, 73
1, 126591, Note_on_c, 0, 68, 79
1, 126599, Note_on_c, 0, 33, 65
1, 126614, Control_c, 0, 67, 115
1, 126644, Note_off_c, 0, 33, 58
1, 126656, Note_off_c, 0, 62, 63
1, 126673, Note_on_c, 0, 64, 64
1, 126677, Note_off_c, 0, 68, 62
1, 126679, Note_on_c, 0, 45, 33
1, 126698, Note_on_c, 0, 61, 53
1, 126713, Note_off_c, 0, 64, 63
1, 126715, Note_off_c, 0, 45, 45
1, 126724, Note_off_c, 0, 61, 61
1, 126784, Note_on_c, 0, 52, 70
1, 126785, Note_on_c, 0, 68, 70
1, 126787, Note_on_c, 0, 61, 70
1, 126796, Note_on_c, 0, 64, 40
1, 126831, Note_off_c, 0, 64, 64
1, 126843, Note_off_c, 0, 61, 62
1, 126850, Note_off_c, 0, 52, 63
1, 126852, Control_c, 0, 67, 115
1, 126866, Control_c, 0, 67, 114
1, 126878, Note_on_c, 0, 60, 65
1, 126881, Note_off_c, 0, 68, 51
1, 126881, Control_c, 0, 67, 114
1, 126883, Note_on_c, 0, 40, 48
1, 126889, Note_on_c, 0, 63, 63
1, 126896, Control_c, 0, 67, 113
1, 126910, Control_c, 0, 67, 112
1, 126914, Note_off_c, 0, 40, 54
1, 126922, Note_off_c, 0, 63, 63
1, 126923, Note_off_c, 0, 60, 62
1, 126940, Control_c, 0, 67, 112
1, 126989, Note_on_c, 0, 33, 69
1, 126993, Note_on_c, 0, 68, 78
1, 127014, Note_on_c, 0, 59, 39
1, 127049, Note_off_c, 0, 33, 62
1, 127050, Note_off_c, 0, 59, 49
1, 127095, Note_on_c, 0, 62, 67
1, 127103, Note_on_c, 0, 59, 61
1, 127127, Note_off_c, 0, 68, 60
1, 127130, Note_off_c, 0, 62, 66
1, 127139, Note_off_c, 0, 59, 61
1, 127140, Control_c, 0, 67, 111
1, 127170, Control_c, 0, 67, 110
1, 127182, Note_on_c, 0, 52, 78
1, 127202, Note_on_c, 0, 68, 77
1, 127248, Note_off_c, 0, 52, 64
1, 127280, Note_on_c, 0, 40, 40
1, 127285, Note_on_c, 0, 61, 76
1, 127307, Note_off_c, 0, 68, 62
1, 127309, Note_on_c, 0, 57, 53
1, 127315, Note_off_c, 0, 40, 54
1, 127319, Control_c, 0, 67, 109
1, 127333, Control_c, 0, 67, 106
1, 127340, Note_off_c, 0, 57, 64
1, 127340, Note_off_c, 0, 61, 63
1, 127348, Control_c, 0, 67, 97
1, 127363, Control_c, 0, 64, 9
1, 127363, Control_c, 0, 67, 78
1, 127378, Control_c, 0, 64, 40
1, 127378, Control_c, 0, 67, 33
1, 127380, Note_on_c, 0, 33, 78
1, 127393, Control_c, 0, 64, 56
1, 127393, Control_c, 0, 67, 0
1, 127395, Note_on_c, 0, 69, 92
1, 127407, Control_c, 0, 64, 64
1, 127422, Control_c, 0, 64, 67
1, 127437, Control_c, 0, 64, 69
1, 127451, Note_on_c, 0, 57, 53
1, 127452, Note_off_c, 0, 33, 63
1, 127467, Control_c, 0, 64, 68
1, 127469, Note_off_c, 0, 69, 63
1, 127473, Note_on_c, 0, 45, 59
1, 127479, Note_on_c, 0, 61, 63
1, 127482, Control_c, 0, 64, 68
1, 127497, Control_c, 0, 64, 67
1, 127500, Note_off_c, 0, 45, 62
1, 127505, Note_off_c, 0, 57, 65
1, 127509, Note_off_c, 0, 61, 63
1, 127512, Control_c, 0, 64, 66
1, 127527, Control_c, 0, 64, 66
1, 127541, Control_c, 0, 64, 64
1, 127556, Control_c, 0, 64, 63
1, 127571, Control_c, 0, 64, 62
1, 127583, Note_on_c, 0, 56, 83
1, 127586, Control_c, 0, 64, 61
1, 127591, Note_on_c, 0, 53, 76
1, 127601, Control_c, 0, 64, 60
1, 127615, Control_c, 0, 64, 56
1, 127630, Control_c, 0, 64, 49
1, 127643, Note_off_c, 0, 56, 63
1, 127645, Control_c, 0, 64, 33
1, 127656, Note_off_c, 0, 53, 62
1, 127660, Control_c, 0, 64, 0
1, 127668, Note_on_c, 0, 60, 61
1, 127670, Note_on_c, 0, 57, 39
1, 127673, Note_on_c, 0, 41, 62
1, 127700, Note_off_c, 0, 41, 66
1, 127702, Note_off_c, 0, 57, 65
1, 127722, Note_off_c, 0, 60, 62
1, 127790, Note_on_c, 0, 57, 81
1, 127799, Note_on_c, 0, 36, 76
1, 127861, Note_off_c, 0, 57, 64
1, 127864, Note_off_c, 0, 36, 61
1, 127881, Note_on_c, 0, 48, 57
1, 127884, Note_on_c, 0, 58, 58
1, 127887, Note_on_c, 0, 61, 68
1, 127912, Note_off_c, 0, 48, 65
1, 127918, Note_off_c, 0, 58, 64
1, 127947, Note_off_c, 0, 61, 62
1, 127948, Control_c, 0, 64, 25
1, 127963, Control_c, 0, 64, 36
1, 127978, Control_c, 0, 64, 42
1, 127988, Note_on_c, 0, 58, 84
1, 127993, Control_c, 0, 64, 43
1, 127997, Note_on_c, 0, 53, 81
1, 128062, Note_off_c, 0, 53, 62
1, 128069, Control_c, 0, 64, 43
1, 128069, Note_off_c, 0, 58, 61
1, 128073, Note_on_c, 0, 41, 64
1, 128079, Note_on_c, 0, 59, 50
1, 128084, Control_c, 0, 64, 41
1, 128086, Note_on_c, 0, 62, 72
1, 128099, Control_c, 0, 64, 39
1, 128109, Note_off_c, 0, 41, 65
1, 128113, Control_c, 0, 64, 37
1, 128120, Note_off_c, 0, 59, 67
1, 128126, Note_off_c, 0, 62, 59
1, 128128, Control_c, 0, 64, 34
1, 128172, Control_c, 0, 64, 38
1, 128187, Control_c, 0, 64, 46
1, 128202, Control_c, 0, 64, 57
1, 128203, Note_on_c, 0, 36, 86
1, 128205, Note_on_c, 0, 59, 83
1, 128217, Control_c, 0, 64, 64
1, 128231, Control_c, 0, 64, 68
1, 128246, Control_c, 0, 64, 70
1, 128261, Control_c, 0, 64, 68
1, 128276, Control_c, 0, 64, 66
1, 128281, Note_off_c, 0, 59, 63
1, 128284, Note_off_c, 0, 36, 61
1, 128290, Control_c, 0, 64, 62
1, 128293, Note_on_c, 0, 60, 60
1, 128301, Note_on_c, 0, 63, 69
1, 128305, Control_c, 0, 64, 56
1, 128320, Control_c, 0, 64, 46
1, 128326, Note_off_c, 0, 60, 64
1, 128335, Control_c, 0, 64, 32
1, 128350, Control_c, 0, 64, 22
1, 128351, Note_off_c, 0, 63, 63
1, 128364, Control_c, 0, 64, 18
1, 128379, Control_c, 0, 64, 17
1, 128384, Note_on_c, 0, 53, 84
1, 128394, Control_c, 0, 64, 17
1, 128400, Note_on_c, 0, 60, 84
1, 128409, Control_c, 0, 64, 11
1, 128424, Control_c, 0, 64, 0
1, 128450, Note_off_c, 0, 53, 64
1, 128473, Note_off_c, 0, 60, 64
1, 128493, Note_on_c, 0, 61, 66
1, 128495, Note_on_c, 0, 41, 57
1, 128499, Note_on_c, 0, 64, 76
1, 128525, Note_off_c, 0, 41, 65
1, 128541, Note_off_c, 0, 61, 62
1, 128555, Note_off_c, 0, 64, 63
1, 128579, Control_c, 0, 64, 37
1, 128594, Control_c, 0, 64, 56
1, 128609, Control_c, 0, 64, 65
1, 128615, Note_on_c, 0, 61, 92
1, 128617, Note_on_c, 0, 36, 87
1, 128624, Control_c, 0, 64, 71
1, 128638, Control_c, 0, 64, 72
1, 128653, Control_c, 0, 64, 70
1, 128668, Control_c, 0, 64, 66
1, 128683, Control_c, 0, 64, 63
1, 128698, Note_off_c, 0, 36, 61
1, 128698, Control_c, 0, 64, 56
1, 128699, Note_off_c, 0, 61, 58
1, 128712, Note_on_c, 0, 62, 57
1, 128713, Control_c, 0, 64, 47
1, 128716, Note_on_c, 0, 65, 74
1, 128728, Control_c, 0, 64, 38
1, 128743, Control_c, 0, 64, 33
1, 128745, Note_off_c, 0, 62, 65
1, 128758, Control_c, 0, 64, 32
1, 128767, Note_off_c, 0, 65, 61
1, 128772, Control_c, 0, 64, 31
1, 128787, Control_c, 0, 64, 28
1, 128801, Note_on_c, 0, 53, 81
1, 128802, Control_c, 0, 64, 16
1, 128817, Control_c, 0, 64, 0
1, 128823, Note_on_c, 0, 62, 82
1, 128874, Note_off_c, 0, 53, 63
1, 128895, Note_off_c, 0, 62, 64
1, 128918, Note_on_c, 0, 63, 64
1, 128924, Note_on_c, 0, 41, 44
1, 128928, Note_on_c, 0, 66, 75
1, 128951, Note_off_c, 0, 63, 64
1, 128957, Note_off_c, 0, 41, 54
1, 128984, Note_off_c, 0, 66, 63
1, 129017, Note_on_c, 0, 36, 82
1, 129022, Note_on_c, 0, 63, 90
1, 129086, Note_off_c, 0, 63, 60
1, 129108, Note_on_c, 0, 64, 50
1, 129109, Note_off_c, 0, 36, 62
1, 129115, Note_on_c, 0, 67, 81
1, 129139, Note_off_c, 0, 64, 65
1, 129153, Note_off_c, 0, 67, 64
1, 129187, Control_c, 0, 64, 21
1, 129202, Control_c, 0, 64, 44
1, 129217, Control_c, 0, 64, 59
1, 129224, Note_on_c, 0, 55, 82
1, 129224, Note_on_c, 0, 71, 97
1, 129232, Control_c, 0, 64, 66
1, 129247, Control_c, 0, 64, 74
1, 129261, Control_c, 0, 64, 85
1, 129276, Control_c, 0, 64, 93
1, 129290, Note_on_c, 0, 51, 17
1, 129298, Note_on_c, 0, 46, 27
1, 129299, Control_c, 0, 64, 94
1, 129302, Note_off_c, 0, 55, 60
1, 129312, Note_on_c, 0, 70, 77
1, 129321, Note_on_c, 0, 67, 72
1, 129337, Note_off_c, 0, 46, 50
1, 129337, Note_off_c, 0, 51, 37
1, 129348, Note_off_c, 0, 71, 60
1, 129358, Control_c, 0, 64, 95
1, 129359, Note_off_c, 0, 67, 62
1, 129366, Note_off_c, 0, 70, 64
1, 129402, Control_c, 0, 64, 95
1, 129417, Control_c, 0, 64, 95
1, 129421, Note_on_c, 0, 71, 85
1, 129423, Note_on_c, 0, 69, 79
1, 129424, Note_on_c, 0, 67, 77
1, 129432, Control_c, 0, 64, 94
1, 129433, Note_on_c, 0, 36, 75
1, 129445, Note_on_c, 0, 65, 40
1, 129461, Control_c, 0, 64, 93
1, 129473, Note_off_c, 0, 65, 53
1, 129476, Control_c, 0, 64, 90
1, 129491, Control_c, 0, 64, 86
1, 129501, Note_off_c, 0, 36, 63
1, 129503, Note_off_c, 0, 71, 64
1, 129506, Control_c, 0, 64, 82
1, 129513, Note_on_c, 0, 48, 61
1, 129520, Note_off_c, 0, 67, 64
1, 129521, Control_c, 0, 64, 75
1, 129533, Note_on_c, 0, 66, 42
1, 129536, Control_c, 0, 64, 69
1, 129545, Note_off_c, 0, 48, 65
1, 129545, Poly_aftertouch_c, 0, 39, 0
1, 129551, Control_c, 0, 64, 62
1, 129551, Note_off_c, 0, 69, 65
1, 129553, Note_on_c, 0, 65, 55
1, 129560, Note_off_c, 0, 66, 57
1, 129565, Control_c, 0, 64, 53
1, 129574, Note_off_c, 0, 65, 59
1, 129580, Control_c, 0, 64, 46
1, 129595, Control_c, 0, 64, 45
1, 129625, Control_c, 0, 64, 43
1, 129631, Note_on_c, 0, 66, 79
1, 129632, Note_on_c, 0, 55, 75
1, 129632, Note_on_c, 0, 71, 71
1, 129638, Note_on_c, 0, 69, 82
1, 129640, Control_c, 0, 64, 38
1, 129655, Control_c, 0, 64, 30
1, 129670, Control_c, 0, 64, 25
1, 129680, Note_on_c, 0, 49, 27
1, 129685, Control_c, 0, 64, 23
1, 129700, Control_c, 0, 64, 22
1, 129703, Note_off_c, 0, 55, 61
1, 129715, Control_c, 0, 64, 13
1, 129716, Note_off_c, 0, 49, 49
1, 129720, Note_on_c, 0, 68, 79
1, 129724, Note_off_c, 0, 71, 62
1, 129727, Note_off_c, 0, 66, 59
1, 129729, Control_c, 0, 64, 0
1, 129729, Note_on_c, 0, 65, 58
1, 129739, Note_off_c, 0, 69, 62
1, 129762, Note_off_c, 0, 65, 64
1, 129772, Note_off_c, 0, 68, 62
1, 129832, Note_on_c, 0, 65, 81
1, 129832, Note_on_c, 0, 71, 83
1, 129833, Control_c, 0, 64, 29
1, 129834, Note_on_c, 0, 36, 71
1, 129842, Note_on_c, 0, 68, 74
1, 129848, Control_c, 0, 64, 54
1, 129863, Control_c, 0, 64, 63
1, 129877, Control_c, 0, 64, 67
1, 129892, Control_c, 0, 64, 70
1, 129894, Note_off_c, 0, 36, 63
1, 129907, Control_c, 0, 64, 69
1, 129911, Note_on_c, 0, 67, 74
1, 129917, Note_off_c, 0, 71, 60
1, 129922, Note_on_c, 0, 48, 52
1, 129922, Control_c, 0, 64, 69
1, 129923, Note_off_c, 0, 65, 61
1, 129933, Note_on_c, 0, 64, 69
1, 129936, Control_c, 0, 64, 68
1, 129947, Note_off_c, 0, 48, 55
1, 129959, Note_off_c, 0, 68, 59
1, 129963, Note_off_c, 0, 64, 65
1, 129966, Note_off_c, 0, 67, 63
1, 129966, Control_c, 0, 64, 68
1, 129981, Control_c, 0, 64, 67
1, 129996, Control_c, 0, 64, 66
1, 130010, Control_c, 0, 64, 65
1, 130023, Note_on_c, 0, 71, 86
1, 130033, Control_c, 0, 64, 64
1, 130036, Note_on_c, 0, 55, 80
1, 130048, Control_c, 0, 64, 63
1, 130053, Note_on_c, 0, 67, 55
1, 130063, Control_c, 0, 64, 62
1, 130064, Note_on_c, 0, 64, 47
1, 130078, Control_c, 0, 64, 60
1, 130090, Note_on_c, 0, 49, 4
1, 130092, Control_c, 0, 64, 59
1, 130093, Note_off_c, 0, 64, 56
1, 130096, Note_off_c, 0, 67, 0
1, 130096, Note_on_c, 0, 63, 15
1, 130102, Note_off_c, 0, 55, 61
1, 130107, Control_c, 0, 64, 58
1, 130112, Note_off_c, 0, 71, 61
1, 130122, Control_c, 0, 64, 57
1, 130125, Note_on_c, 0, 66, 76
1, 130132, Poly_aftertouch_c, 0, 67, 127
1, 130136, Control_c, 0, 64, 55
1, 130147, Note_off_c, 0, 49, 25
1, 130149, Note_off_c, 0, 63, 62
1, 130151, Control_c, 0, 64, 52
1, 130154, Poly_aftertouch_c, 0, 67, 0
1, 130166, Control_c, 0, 64, 46
1, 130181, Control_c, 0, 64, 37
1, 130185, Note_off_c, 0, 66, 62
1, 130196, Control_c, 0, 64, 27
1, 130210, Control_c, 0, 64, 25
1, 130225, Control_c, 0, 64, 27
1, 130235, Note_on_c, 0, 71, 89
1, 130240, Control_c, 0, 64, 37
1, 130242, Note_on_c, 0, 36, 75
1, 130255, Control_c, 0, 64, 50
1, 130269, Control_c, 0, 64, 60
1, 130284, Control_c, 0, 64, 66
1, 130299, Control_c, 0, 64, 73
1, 130305, Note_off_c, 0, 36, 63
1, 130314, Control_c, 0, 64, 77
1, 130329, Control_c, 0, 64, 76
1, 130331, Note_on_c, 0, 63, 76
1, 130334, Note_off_c, 0, 71, 57
1, 130343, Control_c, 0, 64, 75
1, 130358, Control_c, 0, 64, 74
1, 130373, Control_c, 0, 64, 72
1, 130388, Control_c, 0, 64, 69
1, 130389, Note_off_c, 0, 63, 61
1, 130403, Control_c, 0, 64, 64
1, 130417, Control_c, 0, 64, 57
1, 130424, Note_on_c, 0, 55, 82
1, 130433, Control_c, 0, 64, 48
1, 130436, Note_on_c, 0, 71, 89
1, 130448, Control_c, 0, 64, 42
1, 130463, Control_c, 0, 64, 41
1, 130478, Control_c, 0, 64, 39
1, 130493, Note_off_c, 0, 55, 61
1, 130493, Control_c, 0, 64, 34
1, 130507, Control_c, 0, 64, 0
1, 130517, Note_on_c, 0, 63, 77
1, 130522, Note_off_c, 0, 71, 63
1, 130582, Note_off_c, 0, 63, 60
1, 130611, Control_c, 0, 64, 38
1, 130624, Note_on_c, 0, 36, 77
1, 130626, Control_c, 0, 64, 57
1, 130628, Note_on_c, 0, 72, 86
1, 130640, Control_c, 0, 64, 66
1, 130655, Control_c, 0, 64, 73
1, 130670, Control_c, 0, 64, 87
1, 130682, Note_off_c, 0, 72, 60
1, 130685, Control_c, 0, 64, 94
1, 130691, Note_off_c, 0, 36, 63
1, 130702, Poly_aftertouch_c, 0, 42, 127
1, 130707, Note_on_c, 0, 63, 73
1, 130725, Poly_aftertouch_c, 0, 42, 0
1, 130729, Control_c, 0, 64, 93
1, 130737, Note_off_c, 0, 63, 66
1, 130758, Control_c, 0, 64, 91
1, 130781, Control_c, 0, 64, 90
1, 130796, Control_c, 0, 64, 87
1, 130811, Control_c, 0, 64, 85
1, 130826, Control_c, 0, 64, 79
1, 130832, Note_on_c, 0, 52, 84
1, 130836, Note_on_c, 0, 51, 72
1, 130840, Note_on_c, 0, 61, 68
1, 130840, Control_c, 0, 64, 71
1, 130855, Note_off_c, 0, 52, 71
1, 130855, Control_c, 0, 64, 60
1, 130870, Control_c, 0, 64, 44
1, 130875, Note_off_c, 0, 61, 51
1, 130884, Control_c, 0, 64, 26
1, 130896, Note_off_c, 0, 51, 58
1, 130899, Control_c, 0, 64, 23
1, 130910, Poly_aftertouch_c, 0, 60, 0
1, 130912, Note_on_c, 0, 64, 73
1, 130929, Control_c, 0, 64, 21
1, 130937, Note_off_c, 0, 64, 70
1, 130938, Note_on_c, 0, 49, 13
1, 130939, Note_off_c, 0, 49, 127
1, 130944, Control_c, 0, 64, 0
1, 131030, Note_on_c, 0, 37, 66
1, 131032, Control_c, 0, 64, 11
1, 131035, Note_on_c, 0, 76, 87
1, 131047, Control_c, 0, 64, 36
1, 131062, Control_c, 0, 64, 55
1, 131068, Note_on_c, 0, 77, 27
1, 131077, Control_c, 0, 64, 65
1, 131092, Control_c, 0, 64, 73
1, 131094, Note_on_c, 0, 49, 69
1, 131107, Note_off_c, 0, 77, 35
1, 131107, Control_c, 0, 64, 87
1, 131118, Note_off_c, 0, 37, 62
1, 131121, Control_c, 0, 64, 94
1, 131127, Note_off_c, 0, 76, 57
1, 131128, Note_off_c, 0, 49, 65
1, 131136, Control_c, 0, 64, 91
1, 131147, Note_on_c, 0, 75, 62
1, 131151, Control_c, 0, 64, 86
1, 131166, Control_c, 0, 64, 79
1, 131181, Control_c, 0, 64, 68
1, 131187, Note_off_c, 0, 75, 56
1, 131196, Control_c, 0, 64, 55
1, 131211, Control_c, 0, 64, 21
1, 131226, Control_c, 0, 64, 0
1, 131229, Note_on_c, 0, 61, 86
1, 131235, Note_on_c, 0, 77, 104
1, 131291, Note_off_c, 0, 61, 62
1, 131294, Note_off_c, 0, 77, 64
1, 131315, Note_on_c, 0, 49, 70
1, 131345, Control_c, 0, 64, 43
1, 131345, Note_off_c, 0, 49, 65
1, 131360, Control_c, 0, 64, 61
1, 131375, Control_c, 0, 64, 69
1, 131389, Control_c, 0, 64, 82
1, 131402, Note_on_c, 0, 61, 80
1, 131404, Control_c, 0, 64, 127
1, 131417, Note_on_c, 0, 60, 69
1, 131423, Note_on_c, 0, 62, 66
1, 131426, Note_on_c, 0, 54, 85
1, 131439, Note_on_c, 0, 58, 58
1, 131443, Note_on_c, 0, 37, 62
1, 131453, Note_off_c, 0, 62, 50
1, 131458, Note_on_c, 0, 53, 87
1, 131467, Note_on_c, 0, 52, 62
1, 131467, Note_off_c, 0, 61, 60
1, 131472, Note_on_c, 0, 42, 36
1, 131478, Control_c, 0, 64, 116
1, 131479, Note_on_c, 0, 39, 25
1, 131479, Note_off_c, 0, 60, 37
1, 131491, Note_off_c, 0, 54, 65
1, 131493, Control_c, 0, 64, 92
1, 131494, Note_on_c, 0, 36, 13
1, 131501, Note_off_c, 0, 52, 54
1, 131503, Note_off_c, 0, 58, 63
1, 131507, Control_c, 0, 64, 72
1, 131510, Note_on_c, 0, 49, 78
1, 131513, Note_off_c, 0, 42, 59
1, 131515, Note_off_c, 0, 53, 64
1, 131530, Note_off_c, 0, 39, 48
1, 131530, Control_c, 0, 64, 60
1, 131537, Note_off_c, 0, 37, 62
1, 131545, Control_c, 0, 64, 38
1, 131545, Note_off_c, 0, 49, 66
1, 131549, Note_off_c, 0, 36, 38
1, 131560, Control_c, 0, 64, 15
1, 131575, Control_c, 0, 64, 13
1, 131604, Control_c, 0, 64, 0
1, 131639, Note_on_c, 0, 58, 96
1, 131642, Note_on_c, 0, 53, 75
1, 131670, Note_off_c, 0, 53, 66
1, 131703, Note_off_c, 0, 58, 64
1, 131729, Note_on_c, 0, 46, 68
1, 131756, Note_off_c, 0, 46, 66
1, 131847, Note_on_c, 0, 65, 68
1, 131852, Note_on_c, 0, 34, 70
1, 131866, Note_on_c, 0, 37, 46
1, 131871, Note_on_c, 0, 66, 66
1, 131885, Control_c, 0, 64, 39
1, 131894, Note_off_c, 0, 65, 59
1, 131900, Control_c, 0, 64, 51
1, 131902, Note_off_c, 0, 37, 61
1, 131905, Note_off_c, 0, 34, 62
1, 131914, Control_c, 0, 64, 58
1, 131929, Control_c, 0, 64, 64
1, 131939, Note_on_c, 0, 46, 54
1, 131944, Control_c, 0, 64, 69
1, 131951, Note_on_c, 0, 65, 76
1, 131953, Note_off_c, 0, 66, 64
1, 131959, Control_c, 0, 64, 79
1, 131965, Note_off_c, 0, 46, 59
1, 131974, Control_c, 0, 64, 108
1, 131989, Control_c, 0, 64, 127
1, 131995, Note_off_c, 0, 65, 63
1, 132037, Note_on_c, 0, 78, 103
1, 132048, Note_on_c, 0, 57, 95
1, 132071, Note_off_c, 0, 78, 63
1, 132100, Note_off_c, 0, 57, 64
1, 132141, Note_on_c, 0, 45, 46
1, 132150, Poly_aftertouch_c, 0, 51, 0
1, 132171, Note_off_c, 0, 45, 54
1, 132235, Note_on_c, 0, 54, 92
1, 132243, Note_on_c, 0, 33, 81
1, 132272, Control_c, 0, 64, 110
1, 132287, Note_off_c, 0, 54, 67
1, 132293, Control_c, 0, 64, 82
1, 132308, Note_off_c, 0, 33, 63
1, 132308, Control_c, 0, 64, 65
1, 132323, Control_c, 0, 64, 47
1, 132338, Control_c, 0, 64, 0
1, 132435, Note_on_c, 0, 54, 88
1, 132442, Note_on_c, 0, 63, 84
1, 132471, Note_off_c, 0, 63, 64
1, 132501, Control_c, 0, 64, 9
1, 132517, Note_off_c, 0, 54, 64
1, 132519, Note_on_c, 0, 66, 82
1, 132531, Control_c, 0, 64, 11
1, 132573, Note_off_c, 0, 66, 63
1, 132630, Note_on_c, 0, 78, 88
1, 132642, Note_on_c, 0, 39, 77
1, 132679, Control_c, 0, 64, 9
1, 132694, Control_c, 0, 64, 0
1, 132718, Note_off_c, 0, 39, 61
1, 132724, Note_on_c, 0, 66, 75
1, 132734, Note_on_c, 0, 51, 62
1, 132758, Note_off_c, 0, 78, 58
1, 132759, Note_off_c, 0, 51, 63
1, 132761, Note_off_c, 0, 66, 65
1, 132798, Control_c, 0, 64, 17
1, 132813, Control_c, 0, 64, 56
1, 132827, Note_on_c, 0, 79, 114
1, 132829, Control_c, 0, 64, 68
1, 132844, Control_c, 0, 64, 87
1, 132858, Note_on_c, 0, 63, 88
1, 132859, Control_c, 0, 64, 127
1, 132885, Note_off_c, 0, 79, 66
1, 132910, Note_off_c, 0, 63, 65
1, 132935, Note_on_c, 0, 51, 72
1, 132945, Poly_aftertouch_c, 0, 54, 127
1, 132961, Note_off_c, 0, 51, 66
1, 132980, Poly_aftertouch_c, 0, 54, 0
1, 132995, Note_on_c, 0, 61, 76
1, 133010, Note_on_c, 0, 64, 42
1, 133012, Note_on_c, 0, 56, 79
1, 133047, Note_on_c, 0, 62, 23
1, 133060, Note_on_c, 0, 55, 89
1, 133071, Note_on_c, 0, 39, 77
1, 133080, Note_off_c, 0, 56, 64
1, 133089, Note_off_c, 0, 62, 30
1, 133103, Note_off_c, 0, 61, 60
1, 133114, Note_off_c, 0, 55, 65
1, 133132, Note_off_c, 0, 64, 39
1, 133148, Control_c, 0, 64, 95
1, 133151, Note_on_c, 0, 51, 83
1, 133155, Poly_aftertouch_c, 0, 45, 127
1, 133162, Control_c, 0, 64, 77
1, 133172, Note_off_c, 0, 39, 60
1, 133177, Control_c, 0, 64, 65
1, 133183, Note_off_c, 0, 51, 67
1, 133192, Control_c, 0, 64, 50
1, 133194, Poly_aftertouch_c, 0, 45, 0
1, 133207, Control_c, 0, 64, 29
1, 133222, Control_c, 0, 64, 19
1, 133236, Control_c, 0, 64, 18
1, 133251, Control_c, 0, 64, 16
1, 133257, Note_on_c, 0, 55, 68
1, 133266, Control_c, 0, 64, 0
1, 133268, Note_on_c, 0, 60, 97
1, 133288, Note_off_c, 0, 55, 65
1, 133329, Note_off_c, 0, 60, 58
1, 133380, Note_on_c, 0, 48, 58
1, 133392, Poly_aftertouch_c, 0, 51, 0
1, 133413, Note_off_c, 0, 48, 65
1, 133482, Note_on_c, 0, 67, 67
1, 133495, Note_on_c, 0, 36, 72
1, 133503, Control_c, 0, 64, 27
1, 133518, Note_on_c, 0, 68, 72
1, 133518, Control_c, 0, 64, 55
1, 133530, Note_off_c, 0, 67, 59
1, 133533, Control_c, 0, 64, 66
1, 133548, Control_c, 0, 64, 76
1, 133551, Note_off_c, 0, 36, 61
1, 133562, Control_c, 0, 64, 119
1, 133577, Control_c, 0, 64, 127
1, 133587, Note_off_c, 0, 68, 63
1, 133590, Note_on_c, 0, 67, 74
1, 133599, Note_on_c, 0, 48, 36
1, 133634, Note_off_c, 0, 48, 49
1, 133637, Note_off_c, 0, 67, 64
1, 133673, Note_on_c, 0, 80, 96
1, 133688, Note_on_c, 0, 59, 93
1, 133713, Note_off_c, 0, 80, 61
1, 133742, Note_off_c, 0, 59, 64
1, 133785, Note_on_c, 0, 47, 55
1, 133811, Note_off_c, 0, 47, 61
1, 133901, Note_on_c, 0, 56, 80
1, 133920, Note_on_c, 0, 35, 58
1, 133935, Note_on_c, 0, 36, 54
1, 133936, Note_off_c, 0, 56, 63
1, 133941, Control_c, 0, 64, 81
1, 133950, Note_off_c, 0, 35, 58
1, 133956, Control_c, 0, 64, 62
1, 133968, Note_off_c, 0, 36, 61
1, 133971, Control_c, 0, 64, 0
1, 134001, Note_on_c, 0, 57, 76
1, 134025, Note_off_c, 0, 57, 67
1, 134096, Note_on_c, 0, 55, 77
1, 134099, Note_on_c, 0, 58, 80
1, 134102, Control_c, 0, 64, 26
1, 134117, Control_c, 0, 64, 52
1, 134132, Control_c, 0, 64, 60
1, 134147, Control_c, 0, 64, 64
1, 134162, Control_c, 0, 64, 65
1, 134165, Note_off_c, 0, 55, 62
1, 134171, Note_off_c, 0, 58, 63
1, 134176, Control_c, 0, 64, 66
1, 134186, Note_on_c, 0, 59, 64
1, 134190, Note_on_c, 0, 62, 63
1, 134200, Note_on_c, 0, 43, 43
1, 134206, Control_c, 0, 64, 65
1, 134221, Control_c, 0, 64, 62
1, 134222, Note_off_c, 0, 59, 67
1, 134227, Note_off_c, 0, 62, 65
1, 134233, Note_off_c, 0, 43, 49
1, 134236, Control_c, 0, 64, 52
1, 134250, Control_c, 0, 64, 0
1, 134302, Note_on_c, 0, 38, 70
1, 134308, Note_on_c, 0, 59, 83
1, 134339, Control_c, 0, 64, 43
1, 134354, Control_c, 0, 64, 62
1, 134369, Control_c, 0, 64, 72
1, 134382, Note_off_c, 0, 59, 64
1, 134383, Control_c, 0, 64, 95
1, 134395, Note_on_c, 0, 50, 74
1, 134398, Control_c, 0, 64, 127
1, 134404, Note_on_c, 0, 63, 69
1, 134406, Note_on_c, 0, 60, 52
1, 134422, Note_off_c, 0, 50, 66
1, 134430, Note_off_c, 0, 60, 63
1, 134441, Note_off_c, 0, 38, 61
1, 134441, Note_off_c, 0, 63, 65
1, 134473, Control_c, 0, 64, 100
1, 134488, Control_c, 0, 64, 68
1, 134499, Note_on_c, 0, 60, 84
1, 134503, Control_c, 0, 64, 43
1, 134526, Note_on_c, 0, 43, 78
1, 134526, Control_c, 0, 64, 0
1, 134555, Control_c, 0, 64, 38
1, 134570, Control_c, 0, 64, 59
1, 134585, Control_c, 0, 64, 71
1, 134588, Note_off_c, 0, 60, 64
1, 134596, Note_on_c, 0, 61, 71
1, 134596, Note_off_c, 0, 43, 64
1, 134599, Control_c, 0, 64, 90
1, 134604, Note_on_c, 0, 64, 77
1, 134614, Control_c, 0, 64, 127
1, 134618, Note_on_c, 0, 31, 69
1, 134646, Note_off_c, 0, 61, 62
1, 134651, Note_off_c, 0, 31, 65
1, 134658, Note_off_c, 0, 64, 64
1, 134673, Control_c, 0, 64, 116
1, 134688, Control_c, 0, 64, 75
1, 134699, Note_on_c, 0, 61, 80
1, 134703, Control_c, 0, 64, 56
1, 134718, Control_c, 0, 64, 34
1, 134721, Note_on_c, 0, 26, 80
1, 134732, Control_c, 0, 64, 41
1, 134747, Control_c, 0, 64, 54
1, 134762, Control_c, 0, 64, 66
1, 134770, Note_off_c, 0, 61, 61
1, 134777, Control_c, 0, 64, 80
1, 134792, Control_c, 0, 64, 127
1, 134794, Note_on_c, 0, 62, 59
1, 134800, Note_off_c, 0, 26, 62
1, 134802, Note_on_c, 0, 66, 52
1, 134806, Note_on_c, 0, 38, 75
1, 134809, Note_on_c, 0, 65, 82
1, 134820, Note_off_c, 0, 62, 65
1, 134827, Note_off_c, 0, 66, 62
1, 134833, Note_off_c, 0, 65, 68
1, 134834, Note_off_c, 0, 38, 64
1, 134851, Control_c, 0, 64, 98
1, 134866, Control_c, 0, 64, 66
1, 134880, Control_c, 0, 64, 25
1, 134895, Control_c, 0, 64, 0
1, 134914, Note_on_c, 0, 71, 106
1, 134925, Control_c, 0, 64, 17
1, 134939, Note_on_c, 0, 55, 85
1, 134940, Control_c, 0, 64, 54
1, 134955, Control_c, 0, 64, 67
1, 134970, Control_c, 0, 64, 78
1, 134985, Control_c, 0, 64, 104
1, 134998, Note_on_c, 0, 70, 72
1, 134999, Control_c, 0, 64, 127
1, 135001, Note_off_c, 0, 55, 60
1, 135004, Note_on_c, 0, 67, 70
1, 135035, Note_on_c, 0, 43, 49
1, 135035, Note_off_c, 0, 71, 59
1, 135050, Note_off_c, 0, 70, 62
1, 135057, Note_off_c, 0, 67, 61
1, 135067, Note_off_c, 0, 43, 53
1, 135088, Control_c, 0, 64, 89
1, 135092, Poly_aftertouch_c, 0, 70, 0
1, 135098, Note_on_c, 0, 70, 74
1, 135098, Poly_aftertouch_c, 0, 67, 0
1, 135103, Control_c, 0, 64, 64
1, 135104, Note_on_c, 0, 67, 72
1, 135110, Note_on_c, 0, 71, 79
1, 135118, Control_c, 0, 64, 0
1, 135119, Note_on_c, 0, 38, 72
1, 135162, Control_c, 0, 64, 36
1, 135177, Control_c, 0, 64, 59
1, 135185, Note_off_c, 0, 71, 64
1, 135192, Control_c, 0, 64, 69
1, 135195, Note_on_c, 0, 69, 71
1, 135196, Note_on_c, 0, 50, 75
1, 135202, Note_off_c, 0, 67, 59
1, 135204, Note_on_c, 0, 66, 80
1, 135206, Control_c, 0, 64, 86
1, 135222, Control_c, 0, 64, 127
1, 135223, Note_off_c, 0, 70, 60
1, 135229, Note_off_c, 0, 50, 67
1, 135243, Note_off_c, 0, 38, 60
1, 135246, Note_off_c, 0, 66, 62
1, 135247, Note_off_c, 0, 69, 66
1, 135319, Control_c, 0, 64, 78
1, 135324, Note_on_c, 0, 71, 85
1, 135327, Note_on_c, 0, 69, 87
1, 135334, Control_c, 0, 64, 57
1, 135335, Note_on_c, 0, 43, 81
1, 135335, Note_on_c, 0, 66, 80
1, 135348, Control_c, 0, 64, 24
1, 135363, Control_c, 0, 64, 26
1, 135378, Control_c, 0, 64, 42
1, 135393, Control_c, 0, 64, 58
1, 135408, Control_c, 0, 64, 68
1, 135410, Note_on_c, 0, 68, 79
1, 135416, Note_off_c, 0, 71, 59
1, 135420, Note_off_c, 0, 43, 61
1, 135422, Control_c, 0, 64, 85
1, 135432, Note_on_c, 0, 31, 63
1, 135435, Note_off_c, 0, 66, 62
1, 135437, Control_c, 0, 64, 127
1, 135441, Note_on_c, 0, 65, 56
1, 135444, Note_off_c, 0, 69, 63
1, 135461, Note_off_c, 0, 31, 63
1, 135463, Note_off_c, 0, 65, 61
1, 135465, Note_off_c, 0, 68, 61
1, 135496, Control_c, 0, 64, 106
1, 135511, Control_c, 0, 64, 64
1, 135522, Note_on_c, 0, 71, 103
1, 135526, Note_on_c, 0, 65, 93
1, 135526, Control_c, 0, 64, 0
1, 135537, Note_on_c, 0, 26, 76
1, 135551, Note_on_c, 0, 68, 56
1, 135582, Note_on_c, 0, 38, 67
1, 135582, Note_off_c, 0, 26, 63
1, 135585, Control_c, 0, 64, 55
1, 135600, Control_c, 0, 64, 71
1, 135610, Note_off_c, 0, 38, 66
1, 135615, Control_c, 0, 64, 111
1, 135618, Note_off_c, 0, 65, 60
1, 135619, Note_on_c, 0, 66, 83
1, 135629, Control_c, 0, 64, 127
1, 135642, Note_off_c, 0, 68, 62
1, 135645, Note_off_c, 0, 71, 57
1, 135664, Note_off_c, 0, 66, 61
1, 135674, Control_c, 0, 64, 87
1, 135689, Control_c, 0, 64, 65
1, 135703, Control_c, 0, 64, 15
1, 135718, Control_c, 0, 64, 0
1, 135725, Note_on_c, 0, 67, 97
1, 135739, Note_on_c, 0, 64, 86
1, 135748, Control_c, 0, 64, 42
1, 135763, Control_c, 0, 64, 58
1, 135778, Control_c, 0, 64, 64
1, 135793, Control_c, 0, 64, 67
1, 135796, Note_off_c, 0, 64, 63
1, 135796, Note_off_c, 0, 67, 64
1, 135807, Control_c, 0, 64, 64
1, 135822, Control_c, 0, 64, 50
1, 135822, Note_on_c, 0, 68, 60
1, 135828, Note_on_c, 0, 71, 84
1, 135837, Control_c, 0, 64, 0
1, 135864, Note_off_c, 0, 68, 64
1, 135866, Note_off_c, 0, 71, 59
1, 135911, Control_c, 0, 64, 51
1, 135926, Control_c, 0, 64, 65
1, 135930, Note_on_c, 0, 68, 92
1, 135933, Note_on_c, 0, 47, 80
1, 135941, Control_c, 0, 64, 76
1, 135955, Control_c, 0, 64, 103
1, 135970, Control_c, 0, 64, 127
1, 136015, Control_c, 0, 64, 92
1, 136016, Note_off_c, 0, 68, 56
1, 136033, Note_on_c, 0, 59, 69
1, 136034, Note_on_c, 0, 69, 68
1, 136038, Note_on_c, 0, 72, 78
1, 136038, Control_c, 0, 64, 71
1, 136049, Note_off_c, 0, 47, 62
1, 136052, Control_c, 0, 64, 53
1, 136060, Note_off_c, 0, 59, 67
1, 136061, Note_off_c, 0, 69, 69
1, 136067, Control_c, 0, 64, 0
1, 136079, Note_off_c, 0, 72, 65
1, 136137, Note_on_c, 0, 69, 91
1, 136141, Control_c, 0, 64, 22
1, 136144, Note_on_c, 0, 52, 84
1, 136156, Control_c, 0, 64, 52
1, 136171, Control_c, 0, 64, 62
1, 136186, Control_c, 0, 64, 67
1, 136201, Control_c, 0, 64, 74
1, 136204, Note_off_c, 0, 69, 64
1, 136216, Note_on_c, 0, 70, 82
1, 136216, Control_c, 0, 64, 87
1, 136219, Note_off_c, 0, 52, 62
1, 136231, Control_c, 0, 64, 115
1, 136246, Control_c, 0, 64, 127
1, 136249, Note_on_c, 0, 40, 56
1, 136252, Note_off_c, 0, 70, 63
1, 136266, Note_on_c, 0, 73, 54
1, 136275, Control_c, 0, 64, 97
1, 136279, Note_off_c, 0, 40, 54
1, 136289, Note_off_c, 0, 73, 59
1, 136290, Control_c, 0, 64, 66
1, 136305, Control_c, 0, 64, 0
1, 136324, Note_on_c, 0, 73, 91
1, 136336, Note_on_c, 0, 35, 80
1, 136345, Note_on_c, 0, 70, 65
1, 136364, Control_c, 0, 64, 44
1, 136368, Note_off_c, 0, 70, 70
1, 136370, Note_on_c, 0, 37, 35
1, 136378, Control_c, 0, 64, 64
1, 136385, Note_off_c, 0, 73, 58
1, 136393, Control_c, 0, 64, 77
1, 136401, Note_off_c, 0, 35, 61
1, 136408, Control_c, 0, 64, 127
1, 136412, Note_off_c, 0, 37, 46
1, 136416, Note_on_c, 0, 47, 75
1, 136418, Note_on_c, 0, 76, 84
1, 136422, Note_on_c, 0, 74, 81
1, 136441, Note_off_c, 0, 47, 63
1, 136446, Note_off_c, 0, 74, 68
1, 136457, Note_off_c, 0, 76, 66
1, 136482, Control_c, 0, 64, 92
1, 136496, Control_c, 0, 64, 65
1, 136511, Control_c, 0, 64, 19
1, 136526, Control_c, 0, 64, 0
1, 136531, Note_on_c, 0, 73, 93
1, 136532, Note_on_c, 0, 80, 82
1, 136538, Note_on_c, 0, 64, 88
1, 136541, Control_c, 0, 64, 43
1, 136553, Note_on_c, 0, 76, 53
1, 136556, Control_c, 0, 64, 63
1, 136566, Note_off_c, 0, 80, 55
1, 136571, Control_c, 0, 64, 77
1, 136574, Note_off_c, 0, 73, 60
1, 136574, Note_off_c, 0, 76, 58
1, 136581, Note_on_c, 0, 54, 17
1, 136585, Control_c, 0, 64, 127
1, 136598, Note_off_c, 0, 64, 61
1, 136612, Note_on_c, 0, 73, 70
1, 136624, Note_off_c, 0, 54, 51
1, 136626, Note_on_c, 0, 75, 78
1, 136629, Note_on_c, 0, 80, 68
1, 136633, Note_on_c, 0, 52, 65
1, 136644, Note_off_c, 0, 73, 67
1, 136650, Note_off_c, 0, 75, 68
1, 136658, Note_off_c, 0, 80, 64
1, 136660, Note_off_c, 0, 52, 67
1, 136690, Control_c, 0, 64, 88
1, 136704, Control_c, 0, 64, 66
1, 136719, Control_c, 0, 64, 46
1, 136731, Note_on_c, 0, 76, 79
1, 136734, Note_on_c, 0, 47, 75
1, 136734, Control_c, 0, 64, 48
1, 136749, Note_on_c, 0, 74, 67
1, 136749, Control_c, 0, 64, 57
1, 136764, Control_c, 0, 64, 65
1, 136765, Note_on_c, 0, 49, 39
1, 136773, Note_off_c, 0, 76, 66
1, 136785, Control_c, 0, 64, 80
1, 136788, Note_off_c, 0, 74, 62
1, 136800, Control_c, 0, 64, 127
1, 136818, Note_on_c, 0, 59, 82
1, 136824, Note_off_c, 0, 49, 44
1, 136830, Note_on_c, 0, 80, 76
1, 136844, Note_off_c, 0, 59, 69
1, 136851, Note_off_c, 0, 47, 59
1, 136851, Note_on_c, 0, 76, 38
1, 136873, Note_off_c, 0, 80, 62
1, 136875, Control_c, 0, 64, 91
1, 136883, Note_off_c, 0, 76, 34
1, 136890, Control_c, 0, 64, 67
1, 136905, Control_c, 0, 64, 55
1, 136920, Control_c, 0, 64, 59
1, 136929, Note_on_c, 0, 73, 93
1, 136931, Note_on_c, 0, 52, 90
1, 136935, Control_c, 0, 64, 65
1, 136949, Control_c, 0, 64, 79
1, 136964, Control_c, 0, 64, 127
1, 136968, Note_on_c, 0, 71, 28
1, 136976, Note_off_c, 0, 73, 66
1, 137000, Note_off_c, 0, 71, 54
1, 137006, Poly_aftertouch_c, 0, 42, 127
1, 137019, Note_off_c, 0, 52, 48
1, 137024, Note_on_c, 0, 73, 81
1, 137026, Note_on_c, 0, 40, 77
1, 137048, Poly_aftertouch_c, 0, 42, 0
1, 137061, Note_off_c, 0, 73, 61
1, 137066, Note_off_c, 0, 40, 64
1, 137135, Note_on_c, 0, 70, 80
1, 137138, Note_on_c, 0, 61, 89
1, 137143, Note_on_c, 0, 35, 78
1, 137159, Note_off_c, 0, 70, 68
1, 137179, Note_off_c, 0, 61, 54
1, 137200, Poly_aftertouch_c, 0, 68, 0
1, 137217, Note_on_c, 0, 61, 72
1, 137219, Poly_aftertouch_c, 0, 69, 127
1, 137237, Poly_aftertouch_c, 0, 68, 127
1, 137246, Control_c, 0, 64, 97
1, 137247, Note_off_c, 0, 61, 66
1, 137253, Note_off_c, 0, 35, 60
1, 137261, Control_c, 0, 64, 63
1, 137266, Poly_aftertouch_c, 0, 68, 0
1, 137268, Poly_aftertouch_c, 0, 69, 0
1, 137269, Note_on_c, 0, 47, 41
1, 137275, Control_c, 0, 64, 0
1, 137304, Note_off_c, 0, 47, 32
1, 137319, Control_c, 0, 64, 50
1, 137332, Note_on_c, 0, 46, 107
1, 137334, Control_c, 0, 64, 74
1, 137339, Note_on_c, 0, 34, 88
1, 137345, Note_on_c, 0, 81, 93
1, 137349, Control_c, 0, 64, 127
1, 137355, Note_on_c, 0, 75, 72
1, 137356, Note_off_c, 0, 75, 127
1, 137358, Note_off_c, 0, 34, 67
1, 137362, Note_on_c, 0, 76, 78
1, 137369, Note_on_c, 0, 77, 67
1, 137371, Note_off_c, 0, 46, 63
1, 137375, Note_on_c, 0, 82, 50
1, 137376, Note_off_c, 0, 82, 127
1, 137386, Note_off_c, 0, 77, 65
1, 137390, Note_off_c, 0, 76, 65
1, 137398, Note_off_c, 0, 81, 59
1, 137431, Note_on_c, 0, 81, 63
1, 137456, Note_on_c, 0, 75, 33
1, 137470, Note_off_c, 0, 81, 66
1, 137475, Poly_aftertouch_c, 0, 34, 127
1, 137481, Note_off_c, 0, 75, 53
1, 137523, Poly_aftertouch_c, 0, 34, 0
1, 137551, Note_on_c, 0, 68, 88
1, 137564, Control_c, 0, 64, 107
1, 137567, Note_on_c, 0, 59, 65
1, 137571, Note_off_c, 0, 68, 71
1, 137577, Note_on_c, 0, 66, 46
1, 137579, Control_c, 0, 64, 74
1, 137591, Note_off_c, 0, 59, 63
1, 137594, Control_c, 0, 64, 58
1, 137602, Note_off_c, 0, 66, 58
1, 137608, Control_c, 0, 64, 13
1, 137624, Control_c, 0, 64, 0
1, 137650, Note_on_c, 0, 67, 72
1, 137653, Note_on_c, 0, 75, 84
1, 137679, Note_off_c, 0, 67, 66
1, 137682, Note_off_c, 0, 75, 66
1, 137728, Control_c, 0, 64, 24
1, 137743, Control_c, 0, 64, 65
1, 137744, Note_on_c, 0, 62, 95
1, 137748, Note_on_c, 0, 57, 88
1, 137752, Note_on_c, 0, 53, 77
1, 137758, Control_c, 0, 64, 104
1, 137772, Control_c, 0, 64, 127
1, 137781, Note_off_c, 0, 62, 64
1, 137786, Note_on_c, 0, 55, 40
1, 137787, Note_off_c, 0, 57, 67
1, 137809, Note_off_c, 0, 53, 64
1, 137815, Note_off_c, 0, 55, 53
1, 137827, Note_on_c, 0, 62, 76
1, 137835, Note_on_c, 0, 53, 75
1, 137856, Note_off_c, 0, 53, 72
1, 137868, Note_on_c, 0, 57, 10
1, 137877, Note_off_c, 0, 62, 68
1, 137897, Note_off_c, 0, 57, 55
1, 137967, Note_on_c, 0, 73, 88
1, 137969, Note_on_c, 0, 76, 86
1, 137972, Note_on_c, 0, 41, 61
1, 137989, Note_off_c, 0, 73, 68
1, 137993, Note_off_c, 0, 76, 64
1, 138010, Control_c, 0, 64, 112
1, 138024, Control_c, 0, 64, 76
1, 138039, Control_c, 0, 64, 57
1, 138045, Note_off_c, 0, 41, 63
1, 138053, Note_on_c, 0, 38, 57
1, 138054, Note_on_c, 0, 74, 81
1, 138054, Control_c, 0, 64, 0
1, 138055, Note_on_c, 0, 77, 82
1, 138076, Note_off_c, 0, 74, 69
1, 138091, Note_off_c, 0, 38, 63
1, 138092, Note_off_c, 0, 77, 65
1, 138142, Control_c, 0, 64, 50
1, 138151, Note_on_c, 0, 46, 107
1, 138157, Control_c, 0, 64, 69
1, 138159, Note_on_c, 0, 34, 91
1, 138159, Note_on_c, 0, 80, 95
1, 138169, Note_on_c, 0, 75, 97
1, 138171, Note_on_c, 0, 81, 96
1, 138172, Control_c, 0, 64, 106
1, 138182, Note_off_c, 0, 80, 63
1, 138184, Note_off_c, 0, 34, 69
1, 138187, Control_c, 0, 64, 127
1, 138194, Note_off_c, 0, 46, 64
1, 138208, Note_off_c, 0, 75, 64
1, 138213, Note_off_c, 0, 81, 61
1, 138249, Note_on_c, 0, 81, 78
1, 138256, Note_on_c, 0, 75, 75
1, 138303, Note_off_c, 0, 81, 63
1, 138309, Note_off_c, 0, 75, 64
1, 138374, Note_on_c, 0, 68, 91
1, 138386, Note_on_c, 0, 60, 75
1, 138387, Control_c, 0, 64, 89
1, 138402, Control_c, 0, 64, 59
1, 138412, Note_off_c, 0, 60, 69
1, 138412, Note_off_c, 0, 68, 60
1, 138417, Control_c, 0, 64, 0
1, 138471, Note_on_c, 0, 67, 71
1, 138472, Note_on_c, 0, 75, 82
1, 138496, Note_off_c, 0, 67, 69
1, 138501, Note_off_c, 0, 75, 66
1, 138551, Control_c, 0, 64, 24
1, 138566, Control_c, 0, 64, 58
1, 138580, Control_c, 0, 64, 70
1, 138583, Note_on_c, 0, 57, 97
1, 138585, Note_on_c, 0, 88, 102
1, 138587, Note_on_c, 0, 79, 100
1, 138588, Note_on_c, 0, 50, 92
1, 138589, Note_on_c, 0, 83, 97
1, 138595, Control_c, 0, 64, 90
1, 138601, Note_on_c, 0, 81, 75
1, 138601, Note_on_c, 0, 53, 63
1, 138610, Control_c, 0, 64, 127
1, 138615, Note_off_c, 0, 81, 43
1, 138618, Note_off_c, 0, 83, 64
1, 138624, Note_off_c, 0, 79, 66
1, 138624, Note_off_c, 0, 88, 66
1, 138630, Note_off_c, 0, 53, 68
1, 138635, Note_off_c, 0, 57, 65
1, 138636, Note_on_c, 0, 52, 29
1, 138678, Note_on_c, 0, 79, 74
1, 138678, Note_on_c, 0, 88, 75
1, 138681, Note_on_c, 0, 83, 82
1, 138685, Note_on_c, 0, 53, 85
1, 138687, Note_off_c, 0, 52, 38
1, 138695, Note_on_c, 0, 57, 59
1, 138699, Note_off_c, 0, 83, 74
1, 138704, Note_off_c, 0, 88, 67
1, 138709, Note_off_c, 0, 79, 63
1, 138711, Note_off_c, 0, 53, 66
1, 138712, Note_off_c, 0, 50, 61
1, 138723, Note_off_c, 0, 57, 66
1, 138759, Control_c, 0, 64, 84
1, 138773, Control_c, 0, 64, 63
1, 138788, Control_c, 0, 64, 55
1, 138803, Note_on_c, 0, 74, 82
1, 138803, Control_c, 0, 64, 59
1, 138811, Note_on_c, 0, 69, 80
1, 138818, Control_c, 0, 64, 63
1, 138820, Note_on_c, 0, 62, 66
1, 138821, Note_on_c, 0, 66, 69
1, 138833, Control_c, 0, 64, 68
1, 138847, Note_off_c, 0, 69, 54
1, 138847, Note_off_c, 0, 74, 58
1, 138847, Control_c, 0, 64, 77
1, 138862, Control_c, 0, 64, 99
1, 138877, Control_c, 0, 64, 127
1, 138892, Note_off_c, 0, 66, 32
1, 138899, Note_on_c, 0, 73, 76
1, 138903, Note_on_c, 0, 65, 67
1, 138905, Note_on_c, 0, 61, 70
1, 138906, Note_off_c, 0, 62, 49
1, 138908, Note_on_c, 0, 75, 75
1, 138917, Note_on_c, 0, 69, 33
1, 138931, Note_off_c, 0, 65, 64
1, 138935, Note_off_c, 0, 61, 65
1, 138936, Note_off_c, 0, 73, 60
1, 138938, Note_off_c, 0, 69, 60
1, 138949, Note_off_c, 0, 75, 61
1, 138965, Control_c, 0, 64, 93
1, 138980, Control_c, 0, 64, 67
1, 138995, Control_c, 0, 64, 41
1, 139003, Note_on_c, 0, 60, 77
1, 139006, Note_on_c, 0, 76, 81
1, 139010, Note_on_c, 0, 69, 70
1, 139010, Control_c, 0, 64, 23
1, 139013, Note_on_c, 0, 64, 71
1, 139033, Control_c, 0, 64, 36
1, 139039, Note_on_c, 0, 73, 63
1, 139047, Control_c, 0, 64, 57
1, 139062, Control_c, 0, 64, 67
1, 139064, Note_off_c, 0, 69, 56
1, 139077, Control_c, 0, 64, 82
1, 139082, Note_off_c, 0, 60, 56
1, 139085, Note_off_c, 0, 76, 60
1, 139092, Control_c, 0, 64, 127
1, 139098, Note_on_c, 0, 59, 73
1, 139102, Note_on_c, 0, 63, 72
1, 139113, Note_on_c, 0, 77, 71
1, 139116, Note_off_c, 0, 64, 61
1, 139117, Note_on_c, 0, 69, 51
1, 139138, Note_off_c, 0, 63, 61
1, 139147, Note_off_c, 0, 59, 64
1, 139149, Note_off_c, 0, 69, 66
1, 139157, Note_off_c, 0, 73, 63
1, 139160, Note_off_c, 0, 77, 61
1, 139209, Note_on_c, 0, 62, 86
1, 139212, Note_on_c, 0, 78, 87
1, 139218, Note_on_c, 0, 58, 77
1, 139220, Note_on_c, 0, 69, 77
1, 139250, Note_off_c, 0, 58, 62
1, 139253, Note_on_c, 0, 57, 49
1, 139257, Note_off_c, 0, 62, 64
1, 139277, Note_off_c, 0, 57, 58
1, 139277, Note_off_c, 0, 78, 61
1, 139295, Note_off_c, 0, 69, 0
1, 139311, Note_on_c, 0, 69, 50
1, 139311, Note_on_c, 0, 79, 86
1, 139317, Note_on_c, 0, 57, 80
1, 139320, Note_on_c, 0, 60, 80
1, 139339, Note_off_c, 0, 69, 67
1, 139348, Note_off_c, 0, 57, 67
1, 139350, Note_off_c, 0, 60, 62
1, 139356, Note_off_c, 0, 79, 67
1, 139374, Control_c, 0, 64, 73
1, 139388, Control_c, 0, 64, 50
1, 139403, Control_c, 0, 64, 42
1, 139417, Note_on_c, 0, 55, 93
1, 139417, Note_on_c, 0, 57, 89
1, 139418, Control_c, 0, 64, 56
1, 139420, Note_on_c, 0, 72, 87
1, 139423, Note_on_c, 0, 80, 77
1, 139425, Note_on_c, 0, 76, 84
1, 139426, Note_on_c, 0, 54, 52
1, 139427, Note_off_c, 0, 54, 127
1, 139431, Note_on_c, 0, 81, 76
1, 139433, Control_c, 0, 64, 67
1, 139448, Note_off_c, 0, 76, 71
1, 139448, Control_c, 0, 64, 90
1, 139453, Note_off_c, 0, 55, 61
1, 139456, Note_off_c, 0, 80, 46
1, 139457, Note_off_c, 0, 72, 59
1, 139459, Note_off_c, 0, 57, 65
1, 139463, Control_c, 0, 64, 127
1, 139505, Note_on_c, 0, 83, 84
1, 139511, Note_off_c, 0, 81, 0
1, 139520, Note_on_c, 0, 47, 84
1, 139520, Poly_aftertouch_c, 0, 56, 0
1, 139524, Note_on_c, 0, 53, 81
1, 139525, Note_on_c, 0, 55, 78
1, 139529, Note_on_c, 0, 45, 67
1, 139530, Poly_aftertouch_c, 0, 81, 0
1, 139546, Note_off_c, 0, 83, 66
1, 139546, Note_off_c, 0, 55, 70
1, 139550, Note_off_c, 0, 53, 66
1, 139551, Note_off_c, 0, 45, 60
1, 139556, Note_off_c, 0, 47, 62
1, 139610, Note_on_c, 0, 88, 97
1, 139624, Note_on_c, 0, 83, 78
1, 139635, Note_on_c, 0, 54, 78
1, 139641, Note_on_c, 0, 42, 80
1, 139649, Note_off_c, 0, 83, 64
1, 139660, Note_off_c, 0, 88, 63
1, 139665, Note_off_c, 0, 54, 63
1, 139671, Note_off_c, 0, 42, 62
1, 139706, Note_on_c, 0, 89, 89
1, 139711, Note_on_c, 0, 83, 83
1, 139738, Note_on_c, 0, 51, 70
1, 139740, Note_on_c, 0, 39, 65
1, 139747, Note_off_c, 0, 83, 62
1, 139751, Note_off_c, 0, 89, 66
1, 139758, Note_off_c, 0, 51, 62
1, 139779, Note_off_c, 0, 39, 63
1, 139796, Control_c, 0, 64, 94
1, 139811, Control_c, 0, 64, 76
1, 139826, Note_on_c, 0, 90, 99
1, 139832, Note_on_c, 0, 87, 91
1, 139837, Note_on_c, 0, 50, 89
1, 139837, Note_on_c, 0, 83, 83
1, 139838, Note_on_c, 0, 38, 83
1, 139841, Control_c, 0, 64, 90
1, 139856, Control_c, 0, 64, 127
1, 139864, Note_on_c, 0, 40, 55
1, 139866, Note_off_c, 0, 87, 60
1, 139871, Note_off_c, 0, 83, 55
1, 139877, Note_off_c, 0, 50, 66
1, 139883, Note_off_c, 0, 38, 61
1, 139888, Note_off_c, 0, 90, 64
1, 139895, Note_off_c, 0, 40, 54
1, 139930, Note_on_c, 0, 91, 97
1, 139936, Note_on_c, 0, 83, 82
1, 139939, Note_on_c, 0, 87, 58
1, 139947, Note_on_c, 0, 49, 89
1, 139956, Note_off_c, 0, 87, 62
1, 139962, Note_on_c, 0, 37, 75
1, 139963, Note_off_c, 0, 83, 63
1, 139972, Note_off_c, 0, 91, 67
1, 139977, Note_on_c, 0, 39, 56
1, 139992, Note_off_c, 0, 49, 63
1, 139993, Note_off_c, 0, 37, 64
1, 140002, Note_off_c, 0, 39, 59
1, 140038, Note_on_c, 0, 92, 99
1, 140043, Note_on_c, 0, 83, 85
1, 140043, Note_on_c, 0, 48, 83
1, 140049, Note_on_c, 0, 36, 77
1, 140058, Note_on_c, 0, 93, 69
1, 140064, Note_on_c, 0, 84, 58
1, 140073, Note_off_c, 0, 93, 69
1, 140076, Note_off_c, 0, 83, 63
1, 140079, Note_off_c, 0, 48, 64
1, 140082, Note_off_c, 0, 36, 65
1, 140082, Note_off_c, 0, 84, 43
1, 140091, Note_off_c, 0, 92, 64
1, 140135, Note_on_c, 0, 47, 77
1, 140136, Note_on_c, 0, 93, 91
1, 140138, Note_on_c, 0, 84, 97
1, 140138, Note_on_c, 0, 91, 88
1, 140150, Note_on_c, 0, 37, 62
1, 140156, Note_on_c, 0, 35, 64
1, 140168, Note_off_c, 0, 84, 64
1, 140171, Note_on_c, 0, 39, 35
1, 140176, Note_off_c, 0, 91, 65
1, 140176, Note_off_c, 0, 93, 66
1, 140179, Note_off_c, 0, 47, 64
1, 140181, Note_off_c, 0, 37, 62
1, 140182, Note_off_c, 0, 35, 57
1, 140208, Note_off_c, 0, 39, 52
1, 140235, Note_on_c, 0, 85, 96
1, 140235, Poly_aftertouch_c, 0, 36, 127
1, 140237, Note_on_c, 0, 94, 97
1, 140246, Note_on_c, 0, 46, 82
1, 140250, Note_on_c, 0, 34, 86
1, 140253, Note_on_c, 0, 44, 91
1, 140265, Note_on_c, 0, 37, 50
1, 140274, Note_off_c, 0, 85, 67
1, 140276, Poly_aftertouch_c, 0, 36, 0
1, 140279, Note_off_c, 0, 44, 66
1, 140282, Note_on_c, 0, 87, 16
1, 140283, Note_off_c, 0, 87, 127
1, 140283, Note_on_c, 0, 33, 46
1, 140285, Note_off_c, 0, 94, 63
1, 140287, Note_off_c, 0, 34, 62
1, 140288, Note_off_c, 0, 37, 63
1, 140295, Note_off_c, 0, 46, 64
1, 140335, Note_on_c, 0, 93, 99
1, 140338, Note_on_c, 0, 86, 95
1, 140339, Note_on_c, 0, 45, 85
1, 140341, Note_on_c, 0, 35, 66
1, 140345, Note_off_c, 0, 33, 0
1, 140357, Note_on_c, 0, 33, 57
1, 140359, Note_on_c, 0, 37, 67
1, 140365, Note_off_c, 0, 86, 70
1, 140371, Note_off_c, 0, 93, 68
1, 140373, Note_off_c, 0, 45, 65
1, 140376, Note_on_c, 0, 36, 43
1, 140388, Note_off_c, 0, 33, 59
1, 140389, Note_off_c, 0, 35, 62
1, 140390, Note_off_c, 0, 37, 61
1, 140399, Note_off_c, 0, 36, 59
1, 140428, Note_on_c, 0, 97, 105
1, 140443, Note_on_c, 0, 89, 84
1, 140444, Note_on_c, 0, 88, 82
1, 140446, Note_on_c, 0, 44, 93
1, 140452, Note_on_c, 0, 32, 86
1, 140453, Poly_aftertouch_c, 0, 47, 0
1, 140465, Note_off_c, 0, 88, 72
1, 140467, Note_off_c, 0, 89, 70
1, 140470, Note_off_c, 0, 97, 66
1, 140477, Note_on_c, 0, 34, 46
1, 140485, Note_off_c, 0, 32, 66
1, 140496, Note_off_c, 0, 44, 61
1, 140501, Note_off_c, 0, 34, 63
1, 140538, Note_on_c, 0, 96, 95
1, 140543, Note_on_c, 0, 89, 95
1, 140550, Note_on_c, 0, 43, 85
1, 140558, Note_on_c, 0, 32, 75
1, 140560, Note_on_c, 0, 31, 59
1, 140564, Note_on_c, 0, 34, 64
1, 140571, Note_off_c, 0, 89, 63
1, 140575, Note_off_c, 0, 96, 66
1, 140583, Note_off_c, 0, 43, 65
1, 140592, Note_off_c, 0, 34, 64
1, 140593, Note_off_c, 0, 31, 59
1, 140596, Note_off_c, 0, 32, 59
1, 140598, Note_on_c, 0, 33, 21
1, 140637, Note_on_c, 0, 98, 83
1, 140640, Note_on_c, 0, 89, 78
1, 140640, Note_on_c, 0, 96, 86
1, 140641, Note_off_c, 0, 33, 49
1, 140659, Note_on_c, 0, 34, 70
1, 140660, Note_on_c, 0, 32, 68
1, 140660, Note_off_c, 0, 98, 72
1, 140661, Note_off_c, 0, 96, 70
1, 140663, Note_on_c, 0, 41, 73
1, 140664, Note_off_c, 0, 89, 64
1, 140672, Note_on_c, 0, 31, 57
1, 140681, Note_on_c, 0, 29, 50
1, 140689, Note_on_c, 0, 43, 26
1, 140689, Note_off_c, 0, 34, 63
1, 140690, Note_off_c, 0, 41, 64
1, 140692, Note_off_c, 0, 32, 64
1, 140702, Note_off_c, 0, 31, 58
1, 140708, Note_off_c, 0, 43, 67
1, 140718, Note_off_c, 0, 29, 51
1, 140728, Note_on_c, 0, 91, 43
1, 140729, Note_on_c, 0, 98, 94
1, 140752, Note_on_c, 0, 41, 78
1, 140757, Note_off_c, 0, 98, 65
1, 140759, Note_on_c, 0, 34, 67
1, 140762, Note_on_c, 0, 32, 49
1, 140764, Note_off_c, 0, 91, 65
1, 140771, Note_on_c, 0, 31, 64
1, 140792, Note_on_c, 0, 29, 30
1, 140797, Note_off_c, 0, 32, 62
1, 140801, Note_off_c, 0, 34, 56
1, 140803, Note_off_c, 0, 31, 63
1, 140839, Note_on_c, 0, 91, 81
1, 140844, Note_on_c, 0, 100, 68
1, 140848, Poly_aftertouch_c, 0, 40, 127
1, 140850, Note_on_c, 0, 99, 69
1, 140850, Poly_aftertouch_c, 0, 34, 127
1, 140853, Note_on_c, 0, 92, 50
1, 140857, Note_off_c, 0, 41, 63
1, 140872, Note_on_c, 0, 31, 42
1, 140872, Note_off_c, 0, 29, 35
1, 140874, Note_on_c, 0, 32, 61
1, 140882, Note_off_c, 0, 99, 63
1, 140884, Note_off_c, 0, 92, 42
1, 140888, Note_off_c, 0, 100, 64
1, 140896, Poly_aftertouch_c, 0, 40, 0
1, 140905, Note_off_c, 0, 31, 58
1, 140911, Poly_aftertouch_c, 0, 34, 0
1, 140913, Note_off_c, 0, 32, 61
1, 140929, Note_off_c, 0, 91, 0
1, 140965, Poly_aftertouch_c, 0, 91, 127
1, 140972, Poly_aftertouch_c, 0, 91, 0
1, 140990, Control_c, 0, 64, 75
1, 141005, Control_c, 0, 64, 66
1, 141017, Note_on_c, 0, 35, 99
1, 141020, Control_c, 0, 64, 98
1, 141024, Note_on_c, 0, 28, 90
1, 141026, Note_on_c, 0, 101, 98
1, 141030, Note_on_c, 0, 93, 93
1, 141030, Note_on_c, 0, 100, 98
1, 141031, Note_on_c, 0, 91, 65
1, 141034, Note_on_c, 0, 30, 74
1, 141034, Control_c, 0, 64, 127
1, 141039, Note_on_c, 0, 99, 77
1, 141054, Note_off_c, 0, 99, 66
1, 141065, Note_off_c, 0, 30, 62
1, 141072, Note_off_c, 0, 93, 65
1, 141072, Note_off_c, 0, 91, 61
1, 141075, Note_off_c, 0, 35, 0
1, 141112, Poly_aftertouch_c, 0, 35, 127
1, 141118, Note_off_c, 0, 100, 53
1, 141119, Note_off_c, 0, 101, 56
1, 141126, Note_on_c, 0, 36, 74
1, 141132, Note_on_c, 0, 95, 54
1, 141134, Note_off_c, 0, 28, 56
1, 141155, Note_off_c, 0, 36, 64
1, 141158, Poly_aftertouch_c, 0, 35, 0
1, 141161, Note_on_c, 0, 91, 25
1, 141182, Note_off_c, 0, 95, 65
1, 141183, Control_c, 0, 64, 95
1, 141197, Control_c, 0, 64, 70
1, 141198, Note_off_c, 0, 91, 38
1, 141212, Control_c, 0, 64, 67
1, 141214, Note_on_c, 0, 36, 95
1, 141214, Note_on_c, 0, 103, 97
1, 141227, Control_c, 0, 64, 74
1, 141234, Note_on_c, 0, 29, 79
1, 141242, Control_c, 0, 64, 101
1, 141242, Note_on_c, 0, 100, 64
1, 141264, Control_c, 0, 64, 127
1, 141271, Note_off_c, 0, 103, 66
1, 141283, Note_on_c, 0, 101, 54
1, 141288, Note_off_c, 0, 36, 63
1, 141294, Note_off_c, 0, 100, 46
1, 141296, Note_on_c, 0, 98, 38
1, 141305, Note_off_c, 0, 101, 61
1, 141314, Note_on_c, 0, 38, 72
1, 141315, Note_on_c, 0, 90, 88
1, 141316, Note_on_c, 0, 94, 82
1, 141322, Note_off_c, 0, 29, 61
1, 141322, Note_off_c, 0, 98, 52
1, 141332, Note_on_c, 0, 36, 51
1, 141348, Note_off_c, 0, 36, 67
1, 141368, Note_off_c, 0, 94, 64
1, 141373, Note_off_c, 0, 38, 62
1, 141376, Note_off_c, 0, 90, 63
1, 141397, Control_c, 0, 64, 99
1, 141412, Control_c, 0, 64, 107
1, 141414, Note_on_c, 0, 97, 109
1, 141427, Control_c, 0, 64, 127
1, 141432, Note_on_c, 0, 32, 63
1, 141432, Note_on_c, 0, 37, 72
1, 141433, Note_on_c, 0, 38, 74
1, 141440, Note_on_c, 0, 39, 45
1, 141449, Note_on_c, 0, 31, 62
1, 141472, Poly_aftertouch_c, 0, 36, 127
1, 141486, Note_off_c, 0, 37, 54
1, 141501, Note_off_c, 0, 38, 57
1, 141501, Note_off_c, 0, 39, 43
1, 141507, Poly_aftertouch_c, 0, 36, 0
1, 141507, Note_on_c, 0, 92, 85
1, 141516, Note_off_c, 0, 31, 52
1, 141521, Note_on_c, 0, 40, 72
1, 141523, Note_on_c, 0, 91, 96
1, 141526, Note_off_c, 0, 92, 64
1, 141542, Note_off_c, 0, 97, 63
1, 141552, Note_off_c, 0, 32, 59
1, 141570, Note_off_c, 0, 91, 63
1, 141574, Note_off_c, 0, 40, 63
1, 141605, Control_c, 0, 64, 79
1, 141612, Note_on_c, 0, 39, 81
1, 141615, Note_on_c, 0, 95, 103
1, 141620, Control_c, 0, 64, 46
1, 141627, Note_on_c, 0, 31, 58
1, 141632, Note_on_c, 0, 87, 86
1, 141635, Control_c, 0, 64, 0
1, 141640, Note_on_c, 0, 33, 64
1, 141655, Note_on_c, 0, 37, 36
1, 141665, Control_c, 0, 64, 30
1, 141680, Control_c, 0, 64, 63
1, 141684, Note_off_c, 0, 37, 56
1, 141695, Control_c, 0, 64, 87
1, 141708, Note_on_c, 0, 40, 51
1, 141710, Control_c, 0, 64, 127
1, 141719, Note_on_c, 0, 97, 88
1, 141736, Note_off_c, 0, 39, 61
1, 141739, Note_off_c, 0, 95, 63
1, 141748, Note_off_c, 0, 31, 61
1, 141756, Note_off_c, 0, 33, 49
1, 141760, Note_off_c, 0, 97, 65
1, 141769, Note_off_c, 0, 87, 61
1, 141771, Note_off_c, 0, 40, 63
1, 141813, Control_c, 0, 64, 80
1, 141817, Note_on_c, 0, 85, 105
1, 141817, Note_on_c, 0, 95, 108
1, 141818, Note_on_c, 0, 41, 99
1, 141828, Control_c, 0, 64, 63
1, 141838, Note_on_c, 0, 31, 61
1, 141843, Control_c, 0, 64, 53
1, 141844, Note_on_c, 0, 33, 70
1, 141848, Note_on_c, 0, 92, 61
1, 141857, Control_c, 0, 64, 57
1, 141872, Control_c, 0, 64, 64
1, 141885, Note_off_c, 0, 31, 61
1, 141887, Control_c, 0, 64, 77
1, 141902, Control_c, 0, 64, 127
1, 141903, Note_on_c, 0, 42, 87
1, 141910, Note_off_c, 0, 92, 43
1, 141912, Note_on_c, 0, 88, 83
1, 141914, Note_on_c, 0, 87, 63
1, 141918, Note_off_c, 0, 95, 64
1, 141925, Note_off_c, 0, 33, 61
1, 141938, Note_off_c, 0, 41, 64
1, 141958, Note_off_c, 0, 42, 64
1, 141958, Note_off_c, 0, 85, 64
1, 141958, Note_off_c, 0, 88, 67
1, 141961, Note_off_c, 0, 87, 64
1, 141990, Control_c, 0, 64, 117
1, 142013, Control_c, 0, 64, 78
1, 142020, Note_on_c, 0, 90, 99
1, 142023, Note_on_c, 0, 43, 94
1, 142028, Control_c, 0, 64, 64
1, 142029, Note_on_c, 0, 35, 83
1, 142032, Note_on_c, 0, 83, 87
1, 142058, Control_c, 0, 64, 68
1, 142072, Control_c, 0, 64, 83
1, 142087, Control_c, 0, 64, 127
1, 142112, Note_on_c, 0, 44, 86
1, 142117, Note_on_c, 0, 86, 84
1, 142121, Note_off_c, 0, 43, 63
1, 142127, Note_off_c, 0, 35, 61
1, 142139, Note_off_c, 0, 83, 55
1, 142148, Note_off_c, 0, 90, 62
1, 142166, Note_off_c, 0, 86, 66
1, 142168, Note_off_c, 0, 44, 63
1, 142190, Control_c, 0, 64, 85
1, 142205, Control_c, 0, 64, 67
1, 142220, Control_c, 0, 64, 63
1, 142226, Note_on_c, 0, 45, 88
1, 142226, Note_on_c, 0, 90, 111
1, 142234, Note_on_c, 0, 37, 81
1, 142235, Control_c, 0, 64, 66
1, 142237, Note_on_c, 0, 81, 87
1, 142250, Control_c, 0, 64, 76
1, 142264, Control_c, 0, 64, 127
1, 142294, Note_off_c, 0, 81, 58
1, 142323, Note_on_c, 0, 46, 79
1, 142327, Note_on_c, 0, 84, 80
1, 142334, Note_off_c, 0, 45, 64
1, 142345, Note_off_c, 0, 37, 61
1, 142361, Note_off_c, 0, 90, 62
1, 142373, Note_off_c, 0, 84, 64
1, 142375, Note_off_c, 0, 46, 63
1, 142383, Control_c, 0, 64, 109
1, 142398, Control_c, 0, 64, 78
1, 142413, Control_c, 0, 64, 74
1, 142421, Note_on_c, 0, 47, 94
1, 142422, Note_on_c, 0, 88, 96
1, 142424, Note_on_c, 0, 79, 96
1, 142428, Control_c, 0, 64, 79
1, 142443, Control_c, 0, 64, 105
1, 142458, Control_c, 0, 64, 127
1, 142467, Note_on_c, 0, 42, 39
1, 142502, Note_off_c, 0, 42, 48
1, 142513, Note_on_c, 0, 46, 85
1, 142514, Note_on_c, 0, 83, 81
1, 142527, Note_off_c, 0, 79, 62
1, 142530, Note_off_c, 0, 47, 59
1, 142532, Control_c, 0, 64, 71
1, 142534, Note_off_c, 0, 88, 64
1, 142547, Control_c, 0, 64, 26
1, 142560, Note_off_c, 0, 83, 65
1, 142562, Control_c, 0, 64, 0
1, 142568, Note_off_c, 0, 46, 64
1, 142607, Control_c, 0, 64, 28
1, 142617, Note_on_c, 0, 45, 94
1, 142617, Note_on_c, 0, 90, 97
1, 142621, Control_c, 0, 64, 62
1, 142625, Note_on_c, 0, 38, 81
1, 142629, Note_on_c, 0, 81, 93
1, 142631, Note_on_c, 0, 89, 90
1, 142632, Note_on_c, 0, 91, 84
1, 142636, Control_c, 0, 64, 81
1, 142651, Control_c, 0, 64, 127
1, 142658, Note_off_c, 0, 91, 50
1, 142662, Note_on_c, 0, 85, 43
1, 142683, Note_off_c, 0, 89, 37
1, 142684, Note_off_c, 0, 81, 65
1, 142693, Note_off_c, 0, 38, 54
1, 142703, Note_on_c, 0, 46, 88
1, 142720, Note_off_c, 0, 45, 62
1, 142732, Note_off_c, 0, 85, 63
1, 142735, Note_on_c, 0, 84, 86
1, 142753, Note_off_c, 0, 90, 62
1, 142755, Control_c, 0, 64, 113
1, 142767, Note_off_c, 0, 46, 64
1, 142777, Control_c, 0, 64, 64
1, 142792, Control_c, 0, 64, 0
1, 142798, Note_off_c, 0, 84, 61
1, 142822, Note_on_c, 0, 47, 85
1, 142830, Note_on_c, 0, 91, 104
1, 142834, Note_on_c, 0, 40, 74
1, 142836, Note_on_c, 0, 48, 69
1, 142851, Control_c, 0, 64, 55
1, 142859, Note_off_c, 0, 48, 39
1, 142860, Note_on_c, 0, 89, 60
1, 142866, Control_c, 0, 64, 74
1, 142869, Note_on_c, 0, 81, 21
1, 142881, Control_c, 0, 64, 127
1, 142885, Note_off_c, 0, 47, 62
1, 142887, Note_off_c, 0, 91, 65
1, 142890, Note_off_c, 0, 89, 0
1, 142890, Note_on_c, 0, 89, 36
1, 142905, Note_off_c, 0, 81, 37
1, 142915, Note_on_c, 0, 48, 86
1, 142921, Note_on_c, 0, 82, 81
1, 142923, Note_off_c, 0, 89, 47
1, 142923, Note_off_c, 0, 40, 59
1, 142930, Poly_aftertouch_c, 0, 81, 0
1, 142935, Note_off_c, 0, 82, 44
1, 142937, Note_on_c, 0, 81, 66
1, 142951, Note_on_c, 0, 78, 64
1, 142968, Note_off_c, 0, 48, 64
1, 142968, Note_off_c, 0, 81, 66
1, 142971, Note_off_c, 0, 78, 63
1, 142984, Control_c, 0, 64, 83
1, 142999, Control_c, 0, 64, 60
1, 143013, Control_c, 0, 64, 0
1, 143018, Note_on_c, 0, 49, 82
1, 143018, Note_on_c, 0, 85, 102
1, 143023, Note_on_c, 0, 42, 81
1, 143043, Control_c, 0, 64, 36
1, 143058, Control_c, 0, 64, 64
1, 143073, Control_c, 0, 64, 86
1, 143087, Control_c, 0, 64, 127
1, 143119, Note_on_c, 0, 50, 81
1, 143120, Note_on_c, 0, 79, 92
1, 143122, Note_off_c, 0, 49, 64
1, 143146, Note_off_c, 0, 85, 62
1, 143147, Note_off_c, 0, 42, 63
1, 143167, Note_off_c, 0, 50, 64
1, 143172, Note_off_c, 0, 79, 64
1, 143176, Control_c, 0, 64, 104
1, 143191, Control_c, 0, 64, 69
1, 143206, Control_c, 0, 64, 42
1, 143213, Note_on_c, 0, 51, 89
1, 143220, Note_on_c, 0, 83, 92
1, 143221, Note_on_c, 0, 43, 75
1, 143222, Control_c, 0, 64, 0
1, 143231, Note_on_c, 0, 75, 83
1, 143236, Control_c, 0, 64, 21
1, 143251, Control_c, 0, 64, 54
1, 143266, Control_c, 0, 64, 71
1, 143281, Control_c, 0, 64, 127
1, 143304, Note_on_c, 0, 52, 83
1, 143317, Note_on_c, 0, 85, 85
1, 143319, Note_off_c, 0, 43, 63
1, 143328, Note_off_c, 0, 51, 64
1, 143337, Note_off_c, 0, 83, 59
1, 143355, Note_off_c, 0, 75, 63
1, 143356, Note_off_c, 0, 52, 66
1, 143356, Note_off_c, 0, 85, 68
1, 143370, Control_c, 0, 64, 101
1, 143385, Control_c, 0, 64, 69
1, 143400, Control_c, 0, 64, 41
1, 143415, Control_c, 0, 64, 0
1, 143417, Note_on_c, 0, 83, 97
1, 143418, Note_on_c, 0, 53, 96
1, 143423, Note_on_c, 0, 73, 89
1, 143427, Note_on_c, 0, 45, 82
1, 143441, Note_on_c, 0, 74, 64
1, 143444, Control_c, 0, 64, 42
1, 143445, Note_on_c, 0, 72, 65
1, 143450, Note_on_c, 0, 80, 60
1, 143458, Note_off_c, 0, 74, 65
1, 143459, Control_c, 0, 64, 64
1, 143464, Note_off_c, 0, 72, 65
1, 143474, Control_c, 0, 64, 80
1, 143489, Control_c, 0, 64, 127
1, 143516, Note_on_c, 0, 54, 86
1, 143522, Note_on_c, 0, 76, 74
1, 143523, Note_off_c, 0, 80, 56
1, 143527, Note_off_c, 0, 83, 62
1, 143530, Note_off_c, 0, 45, 62
1, 143533, Note_off_c, 0, 53, 62
1, 143540, Note_off_c, 0, 73, 59
1, 143552, Note_on_c, 0, 75, 46
1, 143567, Note_off_c, 0, 54, 65
1, 143570, Control_c, 0, 64, 121
1, 143572, Note_off_c, 0, 76, 65
1, 143579, Note_off_c, 0, 75, 37
1, 143585, Control_c, 0, 64, 77
1, 143600, Control_c, 0, 64, 58
1, 143614, Control_c, 0, 64, 12
1, 143627, Note_on_c, 0, 55, 97
1, 143628, Note_on_c, 0, 78, 104
1, 143629, Control_c, 0, 64, 28
1, 143634, Note_on_c, 0, 47, 83
1, 143637, Note_on_c, 0, 71, 86
1, 143644, Control_c, 0, 64, 50
1, 143659, Control_c, 0, 64, 65
1, 143674, Control_c, 0, 64, 85
1, 143689, Control_c, 0, 64, 127
1, 143699, Note_off_c, 0, 71, 59
1, 143712, Note_off_c, 0, 47, 60
1, 143713, Note_on_c, 0, 56, 88
1, 143722, Note_on_c, 0, 74, 68
1, 143724, Note_off_c, 0, 55, 62
1, 143749, Note_off_c, 0, 78, 62
1, 143764, Note_off_c, 0, 56, 65
1, 143772, Note_off_c, 0, 74, 63
1, 143778, Control_c, 0, 64, 97
1, 143793, Control_c, 0, 64, 69
1, 143808, Control_c, 0, 64, 46
1, 143823, Control_c, 0, 64, 35
1, 143829, Note_on_c, 0, 57, 97
1, 143830, Note_on_c, 0, 78, 107
1, 143835, Note_on_c, 0, 49, 82
1, 143837, Control_c, 0, 64, 46
1, 143847, Note_on_c, 0, 69, 73
1, 143852, Control_c, 0, 64, 60
1, 143867, Control_c, 0, 64, 72
1, 143882, Control_c, 0, 64, 127
1, 143894, Note_off_c, 0, 69, 43
1, 143916, Note_on_c, 0, 58, 84
1, 143919, Note_on_c, 0, 72, 77
1, 143923, Note_off_c, 0, 57, 64
1, 143949, Note_off_c, 0, 78, 59
1, 143957, Note_off_c, 0, 49, 60
1, 143969, Note_off_c, 0, 72, 64
1, 143970, Control_c, 0, 64, 86
1, 143985, Control_c, 0, 64, 65
1, 143987, Note_off_c, 0, 58, 60
1, 144000, Control_c, 0, 64, 59
1, 144016, Control_c, 0, 64, 61
1, 144022, Note_on_c, 0, 59, 94
1, 144023, Note_on_c, 0, 76, 96
1, 144028, Note_on_c, 0, 67, 92
1, 144031, Control_c, 0, 64, 64
1, 144046, Control_c, 0, 64, 71
1, 144060, Control_c, 0, 64, 92
1, 144065, Note_on_c, 0, 54, 28
1, 144075, Control_c, 0, 64, 127
1, 144098, Note_on_c, 0, 58, 85
1, 144101, Note_off_c, 0, 59, 65
1, 144103, Note_off_c, 0, 54, 53
1, 144109, Note_off_c, 0, 67, 62
1, 144112, Note_on_c, 0, 71, 80
1, 144121, Note_off_c, 0, 58, 67
1, 144128, Note_off_c, 0, 76, 61
1, 144154, Note_off_c, 0, 71, 66
1, 144214, Note_on_c, 0, 78, 107
1, 144217, Note_on_c, 0, 70, 107
1, 144223, Control_c, 0, 64, 81
1, 144228, Note_on_c, 0, 38, 92
1, 144238, Control_c, 0, 64, 55
1, 144253, Control_c, 0, 64, 0
1, 144269, Note_off_c, 0, 78, 65
1, 144280, Note_on_c, 0, 77, 18
1, 144304, Note_on_c, 0, 72, 76
1, 144318, Note_off_c, 0, 77, 52
1, 144321, Note_off_c, 0, 70, 60
1, 144360, Note_off_c, 0, 72, 66
1, 144379, Note_off_c, 0, 38, 59
1, 144415, Note_on_c, 0, 40, 60
1, 144428, Note_on_c, 0, 71, 85
1, 144486, Note_off_c, 0, 71, 62
1, 144494, Note_on_c, 0, 41, 70
1, 144500, Note_off_c, 0, 40, 65
1, 144517, Note_on_c, 0, 70, 82
1, 144519, Note_off_c, 0, 41, 66
1, 144540, Control_c, 0, 64, 33
1, 144555, Control_c, 0, 64, 58
1, 144556, Note_off_c, 0, 70, 65
1, 144570, Control_c, 0, 64, 68
1, 144584, Control_c, 0, 64, 84
1, 144599, Control_c, 0, 64, 127
1, 144613, Note_on_c, 0, 69, 103
1, 144614, Note_on_c, 0, 54, 103
1, 144672, Note_off_c, 0, 54, 61
1, 144705, Note_on_c, 0, 70, 74
1, 144717, Note_on_c, 0, 53, 79
1, 144718, Control_c, 0, 64, 92
1, 144732, Control_c, 0, 64, 71
1, 144746, Note_off_c, 0, 69, 52
1, 144747, Control_c, 0, 64, 59
1, 144762, Control_c, 0, 64, 39
1, 144777, Control_c, 0, 64, 22
1, 144786, Note_on_c, 0, 71, 76
1, 144791, Note_off_c, 0, 70, 63
1, 144792, Control_c, 0, 64, 21
1, 144807, Note_on_c, 0, 52, 79
1, 144807, Control_c, 0, 64, 20
1, 144814, Note_off_c, 0, 53, 59
1, 144822, Control_c, 0, 64, 0
1, 144840, Note_off_c, 0, 71, 63
1, 144887, Note_off_c, 0, 52, 65
1, 144894, Note_on_c, 0, 51, 83
1, 144897, Note_on_c, 0, 72, 84
1, 144919, Note_off_c, 0, 51, 68
1, 144931, Note_off_c, 0, 72, 67
1, 144941, Control_c, 0, 64, 25
1, 144956, Control_c, 0, 64, 58
1, 144971, Control_c, 0, 64, 71
1, 144986, Control_c, 0, 64, 113
1, 145001, Control_c, 0, 64, 127
1, 145010, Note_on_c, 0, 78, 108
1, 145013, Note_on_c, 0, 70, 106
1, 145016, Note_on_c, 0, 38, 91
1, 145065, Note_off_c, 0, 70, 60
1, 145069, Note_off_c, 0, 78, 63
1, 145100, Note_on_c, 0, 72, 71
1, 145111, Note_on_c, 0, 39, 81
1, 145113, Note_off_c, 0, 38, 61
1, 145153, Note_off_c, 0, 72, 65
1, 145184, Note_off_c, 0, 39, 64
1, 145185, Control_c, 0, 64, 97
1, 145200, Control_c, 0, 64, 74
1, 145213, Note_on_c, 0, 40, 70
1, 145215, Control_c, 0, 64, 62
1, 145226, Note_on_c, 0, 71, 80
1, 145230, Control_c, 0, 64, 42
1, 145245, Control_c, 0, 64, 0
1, 145284, Note_off_c, 0, 71, 57
1, 145285, Note_on_c, 0, 41, 75
1, 145290, Note_off_c, 0, 40, 63
1, 145311, Note_on_c, 0, 70, 77
1, 145319, Note_off_c, 0, 41, 65
1, 145351, Note_off_c, 0, 70, 64
1, 145393, Control_c, 0, 64, 55
1, 145407, Note_on_c, 0, 69, 103
1, 145407, Control_c, 0, 64, 72
1, 145411, Note_on_c, 0, 54, 100
1, 145422, Control_c, 0, 64, 127
1, 145468, Note_off_c, 0, 54, 62
1, 145500, Note_on_c, 0, 70, 80
1, 145507, Note_on_c, 0, 53, 82
1, 145541, Control_c, 0, 64, 113
1, 145544, Note_off_c, 0, 69, 57
1, 145555, Control_c, 0, 64, 86
1, 145570, Control_c, 0, 64, 68
1, 145585, Control_c, 0, 64, 57
1, 145587, Note_off_c, 0, 70, 63
1, 145598, Note_on_c, 0, 52, 80
1, 145598, Note_on_c, 0, 71, 73
1, 145600, Control_c, 0, 64, 36
1, 145605, Note_off_c, 0, 53, 62
1, 145616, Control_c, 0, 64, 13
1, 145630, Control_c, 0, 64, 0
1, 145644, Note_off_c, 0, 71, 63
1, 145683, Note_on_c, 0, 51, 84
1, 145686, Note_off_c, 0, 52, 65
1, 145702, Note_on_c, 0, 72, 78
1, 145707, Note_off_c, 0, 51, 70
1, 145734, Control_c, 0, 64, 19
1, 145757, Note_off_c, 0, 72, 65
1, 145757, Control_c, 0, 64, 61
1, 145772, Control_c, 0, 64, 78
1, 145786, Control_c, 0, 64, 127
1, 145799, Note_on_c, 0, 76, 88
1, 145800, Note_on_c, 0, 68, 90
1, 145811, Note_on_c, 0, 36, 88
1, 145835, Note_on_c, 0, 75, 36
1, 145858, Note_on_c, 0, 70, 47
1, 145862, Note_off_c, 0, 75, 37
1, 145887, Note_off_c, 0, 76, 61
1, 145905, Note_on_c, 0, 37, 78
1, 145907, Note_off_c, 0, 36, 63
1, 145908, Note_off_c, 0, 68, 60
1, 145928, Note_off_c, 0, 70, 65
1, 145964, Control_c, 0, 64, 83
1, 145979, Control_c, 0, 64, 62
1, 145992, Note_off_c, 0, 37, 61
1, 145993, Control_c, 0, 64, 0
1, 146004, Note_on_c, 0, 69, 85
1, 146005, Note_on_c, 0, 38, 72
1, 146057, Note_off_c, 0, 69, 64
1, 146065, Note_off_c, 0, 38, 61
1, 146086, Note_on_c, 0, 39, 61
1, 146097, Note_on_c, 0, 68, 73
1, 146112, Note_off_c, 0, 39, 67
1, 146121, Note_off_c, 0, 68, 69
1, 146186, Control_c, 0, 64, 43
1, 146189, Note_on_c, 0, 67, 98
1, 146196, Note_on_c, 0, 52, 92
1, 146201, Control_c, 0, 64, 62
1, 146216, Control_c, 0, 64, 73
1, 146230, Control_c, 0, 64, 95
1, 146245, Control_c, 0, 64, 127
1, 146271, Note_off_c, 0, 52, 57
1, 146284, Note_on_c, 0, 68, 76
1, 146304, Control_c, 0, 64, 94
1, 146306, Note_on_c, 0, 51, 73
1, 146314, Note_off_c, 0, 67, 53
1, 146319, Control_c, 0, 64, 78
1, 146334, Control_c, 0, 64, 67
1, 146349, Control_c, 0, 64, 59
1, 146364, Control_c, 0, 64, 50
1, 146370, Note_off_c, 0, 68, 61
1, 146372, Note_on_c, 0, 69, 80
1, 146378, Note_off_c, 0, 51, 64
1, 146378, Control_c, 0, 64, 45
1, 146393, Control_c, 0, 64, 43
1, 146399, Note_on_c, 0, 50, 65
1, 146409, Control_c, 0, 64, 33
1, 146424, Control_c, 0, 64, 0
1, 146425, Note_off_c, 0, 69, 64
1, 146473, Note_on_c, 0, 49, 71
1, 146477, Note_on_c, 0, 70, 77
1, 146477, Note_off_c, 0, 50, 63
1, 146500, Note_off_c, 0, 49, 66
1, 146530, Note_off_c, 0, 70, 60
1, 146580, Note_on_c, 0, 70, 85
1, 146580, Control_c, 0, 64, 37
1, 146594, Note_on_c, 0, 64, 75
1, 146595, Note_on_c, 0, 41, 84
1, 146595, Control_c, 0, 64, 59
1, 146610, Control_c, 0, 64, 66
1, 146624, Control_c, 0, 64, 73
1, 146632, Note_off_c, 0, 70, 66
1, 146639, Control_c, 0, 64, 92
1, 146640, Note_on_c, 0, 38, 24
1, 146644, Note_on_c, 0, 36, 42
1, 146644, Note_off_c, 0, 64, 56
1, 146653, Control_c, 0, 64, 127
1, 146676, Note_on_c, 0, 71, 77
1, 146700, Note_on_c, 0, 74, 74
1, 146720, Note_off_c, 0, 36, 52
1, 146723, Note_off_c, 0, 71, 65
1, 146727, Note_off_c, 0, 74, 68
1, 146739, Note_off_c, 0, 38, 57
1, 146744, Note_off_c, 0, 41, 62
1, 146785, Note_on_c, 0, 76, 94
1, 146786, Note_on_c, 0, 72, 91
1, 146795, Note_on_c, 0, 38, 71
1, 146796, Note_on_c, 0, 43, 62
1, 146813, Note_on_c, 0, 42, 49
1, 146814, Note_off_c, 0, 42, 127
1, 146843, Note_off_c, 0, 72, 65
1, 146845, Note_on_c, 0, 74, 11
1, 146866, Note_on_c, 0, 71, 83
1, 146893, Note_off_c, 0, 76, 63
1, 146895, Note_off_c, 0, 74, 34
1, 146905, Note_off_c, 0, 71, 63
1, 146908, Note_off_c, 0, 43, 63
1, 146917, Note_off_c, 0, 38, 61
1, 146972, Note_on_c, 0, 70, 104
1, 146974, Note_on_c, 0, 82, 91
1, 146975, Note_on_c, 0, 40, 86
1, 146976, Note_on_c, 0, 44, 95
1, 146997, Note_off_c, 0, 82, 67
1, 147004, Note_off_c, 0, 70, 68
1, 147013, Note_on_c, 0, 71, 59
1, 147013, Note_on_c, 0, 45, 38
1, 147031, Note_off_c, 0, 71, 64
1, 147047, Note_off_c, 0, 45, 52
1, 147067, Poly_aftertouch_c, 0, 42, 127
1, 147072, Note_on_c, 0, 83, 97
1, 147085, Poly_aftertouch_c, 0, 42, 0
1, 147099, Note_off_c, 0, 40, 64
1, 147103, Note_off_c, 0, 44, 62
1, 147111, Note_off_c, 0, 83, 66
1, 147163, Note_on_c, 0, 46, 87
1, 147169, Note_on_c, 0, 41, 84
1, 147173, Note_on_c, 0, 76, 95
1, 147174, Note_on_c, 0, 88, 97
1, 147177, Note_on_c, 0, 42, 62
1, 147177, Note_on_c, 0, 45, 83
1, 147201, Note_on_c, 0, 86, 51
1, 147210, Note_off_c, 0, 42, 52
1, 147222, Note_off_c, 0, 46, 52
1, 147222, Note_off_c, 0, 76, 63
1, 147224, Note_off_c, 0, 86, 37
1, 147239, Note_on_c, 0, 43, 23
1, 147261, Note_on_c, 0, 83, 91
1, 147272, Note_off_c, 0, 41, 61
1, 147275, Note_off_c, 0, 43, 58
1, 147275, Note_off_c, 0, 45, 63
1, 147277, Note_off_c, 0, 88, 65
1, 147302, Note_off_c, 0, 83, 68
1, 147328, Control_c, 0, 64, 79
1, 147343, Control_c, 0, 64, 62
1, 147358, Control_c, 0, 64, 65
1, 147364, Note_on_c, 0, 50, 97
1, 147369, Note_on_c, 0, 90, 110
1, 147371, Note_on_c, 0, 82, 117
1, 147372, Control_c, 0, 64, 78
1, 147373, Note_on_c, 0, 38, 71
1, 147382, Note_on_c, 0, 39, 68
1, 147387, Control_c, 0, 64, 127
1, 147391, Note_on_c, 0, 36, 53
1, 147403, Note_off_c, 0, 50, 68
1, 147405, Note_off_c, 0, 38, 65
1, 147406, Note_off_c, 0, 39, 61
1, 147416, Note_off_c, 0, 82, 67
1, 147422, Note_off_c, 0, 36, 58
1, 147429, Note_off_c, 0, 90, 64
1, 147433, Note_on_c, 0, 85, 49
1, 147466, Note_on_c, 0, 52, 89
1, 147472, Note_on_c, 0, 40, 76
1, 147477, Note_off_c, 0, 85, 66
1, 147481, Note_on_c, 0, 83, 55
1, 147483, Note_on_c, 0, 84, 66
1, 147495, Note_on_c, 0, 42, 57
1, 147502, Note_off_c, 0, 83, 60
1, 147504, Note_off_c, 0, 84, 65
1, 147530, Note_on_c, 0, 41, 20
1, 147552, Note_off_c, 0, 42, 39
1, 147563, Note_on_c, 0, 83, 92
1, 147578, Note_off_c, 0, 41, 0
1, 147595, Note_off_c, 0, 40, 64
1, 147607, Note_off_c, 0, 52, 66
1, 147620, Note_on_c, 0, 41, 3
1, 147633, Note_off_c, 0, 41, 0
1, 147645, Note_on_c, 0, 82, 90
1, 147649, Note_off_c, 0, 83, 59
1, 147654, Poly_aftertouch_c, 0, 41, 0
1, 147693, Note_off_c, 0, 82, 65
1, 147698, Control_c, 0, 64, 91
1, 147713, Control_c, 0, 64, 70
1, 147728, Control_c, 0, 64, 74
1, 147736, Note_on_c, 0, 66, 97
1, 147739, Note_on_c, 0, 81, 102
1, 147740, Note_on_c, 0, 54, 94
1, 147743, Control_c, 0, 64, 127
1, 147776, Note_off_c, 0, 66, 64
1, 147782, Note_on_c, 0, 65, 19
1, 147783, Note_off_c, 0, 65, 127
1, 147783, Note_off_c, 0, 54, 65
1, 147788, Note_on_c, 0, 56, 5
1, 147818, Poly_aftertouch_c, 0, 65, 0
1, 147825, Note_on_c, 0, 82, 89
1, 147826, Poly_aftertouch_c, 0, 53, 127
1, 147832, Note_on_c, 0, 53, 36
1, 147841, Note_on_c, 0, 64, 81
1, 147847, Note_off_c, 0, 56, 36
1, 147854, Note_off_c, 0, 81, 64
1, 147880, Note_off_c, 0, 64, 60
1, 147889, Note_off_c, 0, 53, 61
1, 147915, Note_off_c, 0, 82, 65
1, 147931, Note_on_c, 0, 83, 82
1, 147943, Note_on_c, 0, 64, 69
1, 147955, Note_on_c, 0, 52, 48
1, 147958, Note_on_c, 0, 53, 74
1, 147965, Note_on_c, 0, 84, 29
1, 147966, Note_off_c, 0, 84, 127
1, 147973, Note_on_c, 0, 56, 53
1, 147976, Note_on_c, 0, 54, 64
1, 147976, Note_off_c, 0, 83, 66
1, 147993, Note_off_c, 0, 64, 64
1, 148019, Note_off_c, 0, 56, 65
1, 148035, Note_on_c, 0, 84, 87
1, 148041, Note_off_c, 0, 54, 66
1, 148052, Note_off_c, 0, 52, 63
1, 148052, Note_off_c, 0, 53, 63
1, 148070, Note_off_c, 0, 84, 67
1, 148077, Control_c, 0, 64, 99
1, 148092, Control_c, 0, 64, 86
1, 148107, Control_c, 0, 64, 111
1, 148122, Control_c, 0, 64, 127
1, 148134, Note_on_c, 0, 90, 104
1, 148137, Note_on_c, 0, 82, 97
1, 148141, Note_on_c, 0, 50, 93
1, 148149, Note_on_c, 0, 38, 71
1, 148157, Note_on_c, 0, 83, 72
1, 148162, Note_on_c, 0, 91, 56
1, 148163, Note_on_c, 0, 84, 58
1, 148172, Note_on_c, 0, 39, 41
1, 148173, Note_off_c, 0, 50, 65
1, 148175, Note_off_c, 0, 38, 64
1, 148179, Note_off_c, 0, 84, 66
1, 148181, Note_off_c, 0, 91, 62
1, 148184, Note_off_c, 0, 82, 59
1, 148207, Note_off_c, 0, 39, 52
1, 148213, Note_on_c, 0, 85, 75
1, 148214, Note_off_c, 0, 90, 60
1, 148247, Note_on_c, 0, 51, 95
1, 148250, Note_off_c, 0, 83, 26
1, 148253, Note_off_c, 0, 85, 67
1, 148261, Note_on_c, 0, 39, 78
1, 148296, Note_on_c, 0, 42, 16
1, 148308, Note_off_c, 0, 39, 62
1, 148326, Note_on_c, 0, 40, 72
1, 148326, Note_on_c, 0, 83, 96
1, 148346, Note_off_c, 0, 51, 63
1, 148363, Note_on_c, 0, 52, 58
1, 148363, Note_off_c, 0, 42, 0
1, 148380, Note_off_c, 0, 83, 59
1, 148396, Note_off_c, 0, 40, 63
1, 148399, Poly_aftertouch_c, 0, 42, 127
1, 148408, Note_off_c, 0, 52, 63
1, 148413, Note_on_c, 0, 82, 93
1, 148441, Poly_aftertouch_c, 0, 42, 0
1, 148458, Note_off_c, 0, 82, 66
1, 148492, Control_c, 0, 64, 74
1, 148506, Control_c, 0, 64, 58
1, 148515, Note_on_c, 0, 81, 102
1, 148521, Control_c, 0, 64, 61
1, 148527, Note_on_c, 0, 66, 101
1, 148535, Note_on_c, 0, 54, 83
1, 148536, Control_c, 0, 64, 72
1, 148539, Note_on_c, 0, 56, 75
1, 148551, Control_c, 0, 64, 127
1, 148557, Note_off_c, 0, 56, 69
1, 148560, Note_on_c, 0, 58, 39
1, 148561, Note_off_c, 0, 58, 127
1, 148569, Note_off_c, 0, 66, 63
1, 148581, Note_off_c, 0, 54, 63
1, 148612, Note_on_c, 0, 82, 88
1, 148635, Note_off_c, 0, 81, 65
1, 148639, Note_on_c, 0, 64, 77
1, 148667, Note_on_c, 0, 52, 35
1, 148682, Note_off_c, 0, 64, 51
1, 148700, Note_off_c, 0, 52, 50
1, 148703, Note_off_c, 0, 82, 63
1, 148724, Note_on_c, 0, 83, 77
1, 148725, Note_on_c, 0, 84, 84
1, 148754, Note_on_c, 0, 52, 69
1, 148760, Note_on_c, 0, 50, 57
1, 148776, Poly_aftertouch_c, 0, 64, 127
1, 148779, Note_on_c, 0, 54, 38
1, 148780, Note_on_c, 0, 55, 44
1, 148781, Note_off_c, 0, 83, 62
1, 148783, Note_off_c, 0, 84, 60
1, 148804, Note_off_c, 0, 54, 59
1, 148807, Note_off_c, 0, 50, 62
1, 148808, Note_off_c, 0, 55, 55
1, 148812, Note_off_c, 0, 52, 66
1, 148819, Poly_aftertouch_c, 0, 64, 0
1, 148822, Note_on_c, 0, 83, 77
1, 148825, Note_on_c, 0, 84, 65
1, 148855, Control_c, 0, 64, 102
1, 148870, Control_c, 0, 64, 75
1, 148878, Note_off_c, 0, 84, 61
1, 148881, Note_off_c, 0, 83, 62
1, 148885, Control_c, 0, 64, 77
1, 148900, Control_c, 0, 64, 127
1, 148907, Note_on_c, 0, 44, 99
1, 148909, Note_on_c, 0, 78, 103
1, 148913, Note_on_c, 0, 32, 90
1, 148913, Note_on_c, 0, 86, 91
1, 148920, Note_on_c, 0, 85, 73
1, 148928, Note_on_c, 0, 34, 59
1, 148941, Note_off_c, 0, 85, 71
1, 148944, Note_off_c, 0, 32, 66
1, 148946, Note_off_c, 0, 44, 64
1, 148960, Note_off_c, 0, 34, 57
1, 148989, Note_off_c, 0, 86, 61
1, 148994, Note_on_c, 0, 80, 90
1, 149011, Note_off_c, 0, 80, 73
1, 149014, Note_on_c, 0, 47, 88
1, 149015, Note_off_c, 0, 78, 61
1, 149019, Note_on_c, 0, 35, 74
1, 149027, Note_on_c, 0, 79, 60
1, 149047, Note_off_c, 0, 79, 43
1, 149052, Note_off_c, 0, 47, 62
1, 149096, Poly_aftertouch_c, 0, 37, 127
1, 149103, Note_on_c, 0, 79, 93
1, 149120, Note_on_c, 0, 48, 65
1, 149132, Note_on_c, 0, 47, 63
1, 149144, Note_off_c, 0, 35, 59
1, 149147, Poly_aftertouch_c, 0, 36, 127
1, 149153, Note_off_c, 0, 47, 68
1, 149156, Note_off_c, 0, 48, 64
1, 149161, Note_off_c, 0, 79, 62
1, 149180, Poly_aftertouch_c, 0, 37, 0
1, 149190, Note_on_c, 0, 78, 92
1, 149198, Poly_aftertouch_c, 0, 36, 0
1, 149238, Note_off_c, 0, 78, 67
1, 149255, Control_c, 0, 64, 87
1, 149270, Control_c, 0, 64, 57
1, 149285, Control_c, 0, 64, 20
1, 149289, Note_on_c, 0, 77, 101
1, 149293, Note_on_c, 0, 62, 93
1, 149296, Note_on_c, 0, 50, 88
1, 149300, Control_c, 0, 64, 55
1, 149315, Control_c, 0, 64, 77
1, 149317, Note_off_c, 0, 62, 67
1, 149321, Note_on_c, 0, 54, 46
1, 149322, Note_off_c, 0, 54, 127
1, 149325, Note_off_c, 0, 50, 65
1, 149329, Control_c, 0, 64, 127
1, 149340, Note_on_c, 0, 52, 25
1, 149377, Note_on_c, 0, 78, 87
1, 149388, Note_off_c, 0, 52, 53
1, 149404, Note_on_c, 0, 61, 86
1, 149415, Note_off_c, 0, 77, 54
1, 149423, Note_on_c, 0, 49, 57
1, 149448, Note_off_c, 0, 49, 57
1, 149454, Note_off_c, 0, 78, 66
1, 149463, Note_off_c, 0, 61, 41
1, 149466, Note_on_c, 0, 79, 85
1, 149506, Note_on_c, 0, 48, 70
1, 149524, Note_off_c, 0, 79, 66
1, 149535, Note_on_c, 0, 49, 58
1, 149565, Note_off_c, 0, 49, 65
1, 149566, Note_off_c, 0, 48, 61
1, 149579, Note_on_c, 0, 80, 84
1, 149625, Note_off_c, 0, 80, 65
1, 149664, Control_c, 0, 64, 90
1, 149678, Control_c, 0, 64, 61
1, 149679, Note_on_c, 0, 50, 75
1, 149687, Note_on_c, 0, 80, 84
1, 149689, Note_on_c, 0, 46, 70
1, 149693, Control_c, 0, 64, 0
1, 149707, Note_on_c, 0, 74, 58
1, 149716, Note_off_c, 0, 50, 65
1, 149723, Control_c, 0, 64, 9
1, 149738, Control_c, 0, 64, 59
1, 149752, Control_c, 0, 64, 83
1, 149755, Note_off_c, 0, 74, 57
1, 149767, Control_c, 0, 64, 127
1, 149770, Note_on_c, 0, 81, 75
1, 149792, Note_off_c, 0, 80, 39
1, 149818, Note_off_c, 0, 81, 67
1, 149877, Note_on_c, 0, 86, 90
1, 149883, Note_on_c, 0, 47, 43
1, 149884, Note_on_c, 0, 82, 95
1, 149905, Note_on_c, 0, 84, 40
1, 149906, Note_off_c, 0, 84, 127
1, 149915, Note_on_c, 0, 49, 37
1, 149934, Note_on_c, 0, 48, 63
1, 149939, Note_on_c, 0, 45, 60
1, 149940, Note_off_c, 0, 47, 56
1, 149948, Note_off_c, 0, 49, 56
1, 149952, Note_off_c, 0, 82, 68
1, 149959, Note_off_c, 0, 46, 51
1, 149965, Note_off_c, 0, 48, 64
1, 149967, Note_on_c, 0, 81, 90
1, 149974, Note_off_c, 0, 45, 63
1, 149998, Note_off_c, 0, 86, 63
1, 150011, Poly_aftertouch_c, 0, 44, 0
1, 150012, Note_off_c, 0, 81, 68
1, 150046, Note_on_c, 0, 47, 94
1, 150054, Note_on_c, 0, 43, 89
1, 150056, Note_on_c, 0, 48, 55
1, 150062, Note_on_c, 0, 44, 73
1, 150077, Note_on_c, 0, 41, 52
1, 150078, Note_off_c, 0, 41, 127
1, 150081, Note_off_c, 0, 48, 56
1, 150082, Note_on_c, 0, 80, 94
1, 150086, Note_on_c, 0, 82, 96
1, 150088, Note_on_c, 0, 92, 90
1, 150099, Note_on_c, 0, 90, 70
1, 150102, Note_off_c, 0, 82, 70
1, 150111, Note_off_c, 0, 92, 68
1, 150124, Note_off_c, 0, 80, 67
1, 150153, Note_off_c, 0, 47, 61
1, 150162, Note_off_c, 0, 43, 62
1, 150166, Note_off_c, 0, 44, 63
1, 150170, Note_on_c, 0, 93, 94
1, 150191, Note_off_c, 0, 90, 63
1, 150212, Note_off_c, 0, 93, 67
1, 150233, Note_on_c, 0, 41, 89
1, 150263, Note_on_c, 0, 42, 74
1, 150271, Note_on_c, 0, 45, 60
1, 150273, Note_on_c, 0, 47, 54
1, 150282, Note_on_c, 0, 86, 98
1, 150282, Note_on_c, 0, 98, 101
1, 150288, Note_off_c, 0, 47, 69
1, 150296, Note_on_c, 0, 97, 75
1, 150311, Note_off_c, 0, 97, 64
1, 150331, Note_off_c, 0, 45, 58
1, 150334, Note_off_c, 0, 86, 60
1, 150364, Note_off_c, 0, 42, 62
1, 150367, Note_off_c, 0, 41, 64
1, 150372, Note_on_c, 0, 93, 94
1, 150403, Note_off_c, 0, 98, 66
1, 150427, Note_off_c, 0, 93, 67
1, 150429, Control_c, 0, 64, 78
1, 150444, Control_c, 0, 64, 54
1, 150458, Control_c, 0, 64, 51
1, 150473, Control_c, 0, 64, 67
1, 150486, Note_on_c, 0, 45, 99
1, 150488, Control_c, 0, 64, 127
1, 150495, Note_on_c, 0, 38, 84
1, 150498, Note_on_c, 0, 102, 107
1, 150504, Note_on_c, 0, 93, 95
1, 150512, Note_on_c, 0, 95, 83
1, 150525, Note_on_c, 0, 103, 57
1, 150530, Note_off_c, 0, 95, 58
1, 150536, Note_on_c, 0, 101, 45
1, 150542, Note_off_c, 0, 93, 66
1, 150546, Note_off_c, 0, 103, 63
1, 150547, Note_on_c, 0, 97, 17
1, 150548, Note_off_c, 0, 97, 127
1, 150561, Note_off_c, 0, 101, 56
1, 150596, Note_on_c, 0, 46, 84
1, 150608, Note_on_c, 0, 96, 91
1, 150633, Note_off_c, 0, 46, 57
1, 150644, Note_off_c, 0, 45, 64
1, 150646, Note_off_c, 0, 102, 63
1, 150660, Note_on_c, 0, 93, 42
1, 150675, Note_off_c, 0, 38, 19
1, 150678, Note_off_c, 0, 96, 62
1, 150684, Note_off_c, 0, 93, 60
1, 150710, Control_c, 0, 64, 80
1, 150716, Note_on_c, 0, 103, 101
1, 150716, Note_on_c, 0, 47, 99
1, 150725, Control_c, 0, 64, 64
1, 150728, Note_on_c, 0, 40, 76
1, 150740, Control_c, 0, 64, 62
1, 150755, Control_c, 0, 64, 66
1, 150770, Control_c, 0, 64, 80
1, 150774, Note_off_c, 0, 103, 65
1, 150782, Note_off_c, 0, 47, 54
1, 150784, Control_c, 0, 64, 127
1, 150807, Note_on_c, 0, 48, 80
1, 150808, Note_on_c, 0, 94, 90
1, 150808, Note_on_c, 0, 90, 94
1, 150818, Note_off_c, 0, 40, 36
1, 150862, Note_off_c, 0, 94, 64
1, 150866, Note_off_c, 0, 90, 63
1, 150868, Note_off_c, 0, 48, 64
1, 150907, Note_on_c, 0, 97, 110
1, 150909, Note_on_c, 0, 49, 86
1, 150916, Note_on_c, 0, 42, 85
1, 150917, Control_c, 0, 64, 99
1, 150932, Control_c, 0, 64, 76
1, 150947, Control_c, 0, 64, 69
1, 150962, Control_c, 0, 64, 72
1, 150976, Control_c, 0, 64, 81
1, 150991, Control_c, 0, 64, 127
1, 150992, Note_on_c, 0, 92, 86
1, 151011, Note_on_c, 0, 50, 81
1, 151013, Note_off_c, 0, 49, 64
1, 151036, Poly_aftertouch_c, 0, 46, 0
1, 151036, Note_off_c, 0, 97, 62
1, 151042, Note_off_c, 0, 42, 64
1, 151053, Note_off_c, 0, 92, 67
1, 151064, Note_off_c, 0, 50, 64
1, 151088, Control_c, 0, 64, 91
1, 151102, Control_c, 0, 64, 65
1, 151105, Note_on_c, 0, 51, 89
1, 151105, Note_on_c, 0, 95, 100
1, 151117, Control_c, 0, 64, 45
1, 151120, Note_on_c, 0, 87, 85
1, 151128, Note_on_c, 0, 43, 58
1, 151130, Note_on_c, 0, 52, 63
1, 151130, Note_on_c, 0, 45, 57
1, 151132, Control_c, 0, 64, 43
1, 151135, Note_on_c, 0, 49, 49
1, 151147, Control_c, 0, 64, 52
1, 151149, Note_off_c, 0, 52, 64
1, 151161, Note_off_c, 0, 49, 62
1, 151162, Control_c, 0, 64, 66
1, 151172, Note_off_c, 0, 95, 0
1, 151176, Control_c, 0, 64, 86
1, 151191, Control_c, 0, 64, 127
1, 151207, Note_on_c, 0, 97, 74
1, 151209, Note_off_c, 0, 51, 59
1, 151209, Poly_aftertouch_c, 0, 95, 127
1, 151211, Note_off_c, 0, 43, 59
1, 151211, Note_on_c, 0, 52, 75
1, 151216, Note_on_c, 0, 53, 76
1, 151217, Note_off_c, 0, 45, 62
1, 151226, Poly_aftertouch_c, 0, 95, 0
1, 151229, Note_off_c, 0, 97, 69
1, 151235, Note_on_c, 0, 96, 64
1, 151242, Note_off_c, 0, 53, 66
1, 151244, Note_off_c, 0, 52, 68
1, 151247, Note_off_c, 0, 87, 59
1, 151259, Note_off_c, 0, 96, 65
1, 151281, Control_c, 0, 64, 105
1, 151296, Control_c, 0, 64, 71
1, 151304, Note_on_c, 0, 53, 80
1, 151304, Note_on_c, 0, 85, 97
1, 151304, Note_on_c, 0, 95, 102
1, 151311, Control_c, 0, 64, 53
1, 151317, Note_on_c, 0, 45, 82
1, 151318, Note_on_c, 0, 52, 70
1, 151325, Control_c, 0, 64, 37
1, 151333, Note_off_c, 0, 52, 44
1, 151335, Note_on_c, 0, 86, 58
1, 151336, Note_off_c, 0, 86, 127
1, 151340, Control_c, 0, 64, 49
1, 151348, Note_on_c, 0, 92, 44
1, 151354, Note_on_c, 0, 93, 24
1, 151355, Control_c, 0, 64, 63
1, 151370, Control_c, 0, 64, 78
1, 151384, Note_on_c, 0, 87, 54
1, 151385, Control_c, 0, 64, 127
1, 151391, Note_off_c, 0, 92, 47
1, 151396, Note_on_c, 0, 54, 86
1, 151402, Note_off_c, 0, 93, 29
1, 151407, Note_off_c, 0, 45, 60
1, 151412, Note_on_c, 0, 88, 88
1, 151412, Note_off_c, 0, 95, 62
1, 151417, Note_on_c, 0, 52, 5
1, 151421, Note_off_c, 0, 53, 64
1, 151447, Note_off_c, 0, 54, 65
1, 151447, Note_off_c, 0, 85, 63
1, 151452, Note_off_c, 0, 88, 67
1, 151455, Note_off_c, 0, 87, 61
1, 151464, Note_off_c, 0, 52, 51
1, 151473, Control_c, 0, 64, 117
1, 151488, Control_c, 0, 64, 77
1, 151503, Control_c, 0, 64, 62
1, 151506, Note_on_c, 0, 55, 98
1, 151511, Note_on_c, 0, 90, 103
1, 151512, Note_on_c, 0, 47, 85
1, 151518, Control_c, 0, 64, 54
1, 151523, Note_on_c, 0, 83, 88
1, 151533, Control_c, 0, 64, 61
1, 151548, Control_c, 0, 64, 67
1, 151563, Control_c, 0, 64, 88
1, 151577, Control_c, 0, 64, 127
1, 151592, Note_on_c, 0, 56, 88
1, 151597, Note_on_c, 0, 86, 82
1, 151601, Note_off_c, 0, 55, 61
1, 151604, Note_off_c, 0, 47, 62
1, 151623, Note_off_c, 0, 83, 57
1, 151631, Note_off_c, 0, 90, 64
1, 151646, Note_off_c, 0, 86, 64
1, 151650, Note_off_c, 0, 56, 65
1, 151681, Control_c, 0, 64, 87
1, 151696, Control_c, 0, 64, 71
1, 151703, Note_on_c, 0, 90, 105
1, 151706, Note_on_c, 0, 57, 92
1, 151711, Control_c, 0, 64, 67
1, 151712, Note_on_c, 0, 49, 82
1, 151719, Note_on_c, 0, 81, 76
1, 151725, Control_c, 0, 64, 71
1, 151740, Control_c, 0, 64, 86
1, 151762, Control_c, 0, 64, 127
1, 151796, Note_off_c, 0, 81, 57
1, 151800, Note_on_c, 0, 58, 82
1, 151804, Note_on_c, 0, 84, 83
1, 151819, Note_off_c, 0, 57, 62
1, 151839, Note_off_c, 0, 90, 63
1, 151851, Note_off_c, 0, 49, 62
1, 151858, Note_off_c, 0, 84, 62
1, 151866, Control_c, 0, 64, 99
1, 151870, Note_off_c, 0, 58, 60
1, 151881, Control_c, 0, 64, 89
1, 151896, Control_c, 0, 64, 96
1, 151896, Note_on_c, 0, 59, 94
1, 151903, Note_on_c, 0, 88, 96
1, 151904, Note_on_c, 0, 79, 91
1, 151911, Control_c, 0, 64, 127
1, 151983, Note_on_c, 0, 58, 72
1, 151983, Note_on_c, 0, 82, 84
1, 151987, Note_off_c, 0, 79, 64
1, 151999, Note_off_c, 0, 58, 43
1, 152007, Note_off_c, 0, 59, 63
1, 152015, Note_off_c, 0, 88, 63
1, 152032, Note_off_c, 0, 82, 66
1, 152045, Control_c, 0, 64, 94
1, 152060, Control_c, 0, 64, 52
1, 152074, Control_c, 0, 64, 0
1, 152090, Note_on_c, 0, 90, 107
1, 152093, Note_on_c, 0, 45, 94
1, 152102, Note_on_c, 0, 81, 92
1, 152111, Note_on_c, 0, 38, 65
1, 152121, Note_on_c, 0, 36, 47
1, 152139, Note_off_c, 0, 38, 64
1, 152141, Note_off_c, 0, 81, 62
1, 152141, Note_off_c, 0, 45, 64
1, 152156, Note_off_c, 0, 36, 55
1, 152185, Note_on_c, 0, 46, 84
1, 152189, Poly_aftertouch_c, 0, 85, 127
1, 152216, Note_off_c, 0, 90, 60
1, 152237, Note_off_c, 0, 46, 63
1, 152264, Poly_aftertouch_c, 0, 85, 0
1, 152290, Note_on_c, 0, 91, 94
1, 152295, Note_on_c, 0, 47, 85
1, 152312, Note_on_c, 0, 40, 63
1, 152340, Note_off_c, 0, 47, 61
1, 152343, Note_off_c, 0, 40, 64
1, 152344, Note_off_c, 0, 91, 65
1, 152374, Note_on_c, 0, 80, 80
1, 152385, Note_on_c, 0, 48, 72
1, 152397, Note_off_c, 0, 80, 69
1, 152418, Note_off_c, 0, 48, 64
1, 152445, Control_c, 0, 64, 56
1, 152460, Control_c, 0, 64, 78
1, 152473, Note_on_c, 0, 85, 94
1, 152474, Control_c, 0, 64, 87
1, 152483, Note_on_c, 0, 42, 70
1, 152489, Note_on_c, 0, 49, 75
1, 152489, Control_c, 0, 64, 75
1, 152511, Control_c, 0, 64, 47
1, 152522, Note_on_c, 0, 41, 45
1, 152526, Control_c, 0, 64, 0
1, 152553, Note_off_c, 0, 41, 54
1, 152558, Note_off_c, 0, 49, 61
1, 152572, Note_off_c, 0, 42, 58
1, 152582, Note_on_c, 0, 79, 69
1, 152594, Note_on_c, 0, 50, 67
1, 152594, Note_off_c, 0, 85, 62
1, 152625, Note_off_c, 0, 50, 63
1, 152625, Note_off_c, 0, 79, 58
1, 152673, Note_on_c, 0, 51, 77
1, 152681, Note_on_c, 0, 83, 81
1, 152683, Note_on_c, 0, 43, 65
1, 152704, Note_on_c, 0, 75, 63
1, 152736, Note_off_c, 0, 43, 56
1, 152738, Note_off_c, 0, 51, 59
1, 152753, Note_off_c, 0, 75, 0
1, 152771, Note_on_c, 0, 52, 71
1, 152774, Note_off_c, 0, 83, 53
1, 152782, Note_on_c, 0, 85, 72
1, 152798, Poly_aftertouch_c, 0, 75, 0
1, 152805, Note_off_c, 0, 52, 68
1, 152806, Note_off_c, 0, 85, 68
1, 152853, Control_c, 0, 64, 45
1, 152868, Control_c, 0, 64, 69
1, 152873, Note_on_c, 0, 73, 94
1, 152873, Note_on_c, 0, 83, 94
1, 152877, Note_on_c, 0, 53, 88
1, 152883, Control_c, 0, 64, 76
1, 152884, Note_on_c, 0, 45, 79
1, 152897, Control_c, 0, 64, 78
1, 152912, Control_c, 0, 64, 69
1, 152923, Note_off_c, 0, 73, 58
1, 152927, Control_c, 0, 64, 52
1, 152942, Control_c, 0, 64, 0
1, 152949, Note_off_c, 0, 53, 57
1, 152954, Note_off_c, 0, 45, 57
1, 152959, Note_on_c, 0, 54, 81
1, 152973, Note_on_c, 0, 76, 75
1, 152973, Note_off_c, 0, 83, 62
1, 152995, Note_off_c, 0, 54, 64
1, 153008, Note_off_c, 0, 76, 63
1, 153072, Note_on_c, 0, 55, 87
1, 153074, Note_on_c, 0, 78, 99
1, 153078, Note_on_c, 0, 71, 85
1, 153080, Note_on_c, 0, 47, 77
1, 153107, Note_off_c, 0, 71, 61
1, 153122, Note_off_c, 0, 55, 66
1, 153150, Note_off_c, 0, 47, 59
1, 153162, Note_on_c, 0, 56, 77
1, 153175, Note_on_c, 0, 74, 64
1, 153190, Note_off_c, 0, 78, 61
1, 153195, Note_off_c, 0, 56, 67
1, 153207, Note_off_c, 0, 74, 66
1, 153282, Note_on_c, 0, 57, 91
1, 153284, Note_on_c, 0, 78, 101
1, 153286, Note_on_c, 0, 49, 81
1, 153308, Note_on_c, 0, 69, 58
1, 153328, Note_off_c, 0, 69, 62
1, 153333, Note_off_c, 0, 57, 64
1, 153369, Note_on_c, 0, 72, 72
1, 153370, Note_on_c, 0, 58, 77
1, 153372, Note_off_c, 0, 49, 58
1, 153399, Note_off_c, 0, 78, 61
1, 153402, Note_off_c, 0, 72, 61
1, 153409, Note_off_c, 0, 58, 60
1, 153470, Note_on_c, 0, 76, 90
1, 153474, Note_on_c, 0, 59, 84
1, 153481, Note_on_c, 0, 67, 84
1, 153510, Note_off_c, 0, 67, 60
1, 153545, Note_off_c, 0, 59, 59
1, 153555, Note_on_c, 0, 58, 77
1, 153567, Note_on_c, 0, 71, 79
1, 153573, Note_off_c, 0, 76, 52
1, 153581, Note_off_c, 0, 58, 68
1, 153603, Note_off_c, 0, 71, 66
1, 153670, Note_on_c, 0, 78, 107
1, 153676, Note_on_c, 0, 45, 94
1, 153680, Note_on_c, 0, 69, 89
1, 153684, Note_on_c, 0, 38, 74
1, 153691, Control_c, 0, 64, 42
1, 153706, Control_c, 0, 64, 61
1, 153716, Note_off_c, 0, 69, 63
1, 153717, Note_on_c, 0, 75, 31
1, 153720, Control_c, 0, 64, 69
1, 153735, Control_c, 0, 64, 83
1, 153739, Note_off_c, 0, 45, 0
1, 153750, Control_c, 0, 64, 127
1, 153752, Note_off_c, 0, 75, 32
1, 153758, Note_off_c, 0, 38, 39
1, 153761, Note_on_c, 0, 46, 86
1, 153768, Note_on_c, 0, 72, 81
1, 153771, Poly_aftertouch_c, 0, 45, 0
1, 153796, Note_off_c, 0, 78, 55
1, 153811, Note_on_c, 0, 68, 58
1, 153813, Note_off_c, 0, 46, 63
1, 153828, Note_off_c, 0, 72, 59
1, 153832, Note_off_c, 0, 68, 62
1, 153839, Control_c, 0, 64, 90
1, 153853, Control_c, 0, 64, 64
1, 153868, Note_on_c, 0, 47, 93
1, 153868, Control_c, 0, 64, 38
1, 153880, Note_on_c, 0, 79, 92
1, 153883, Control_c, 0, 64, 27
1, 153898, Control_c, 0, 64, 43
1, 153912, Note_on_c, 0, 40, 30
1, 153913, Control_c, 0, 64, 60
1, 153920, Note_on_c, 0, 41, 29
1, 153927, Control_c, 0, 64, 70
1, 153931, Note_off_c, 0, 47, 61
1, 153932, Note_off_c, 0, 79, 68
1, 153942, Control_c, 0, 64, 103
1, 153951, Note_off_c, 0, 40, 50
1, 153956, Note_on_c, 0, 48, 83
1, 153957, Control_c, 0, 64, 127
1, 153959, Note_off_c, 0, 41, 54
1, 153964, Note_on_c, 0, 66, 88
1, 154002, Note_on_c, 0, 70, 37
1, 154006, Note_off_c, 0, 48, 64
1, 154010, Note_off_c, 0, 66, 61
1, 154024, Control_c, 0, 64, 121
1, 154034, Note_off_c, 0, 70, 50
1, 154039, Control_c, 0, 64, 76
1, 154053, Control_c, 0, 64, 48
1, 154065, Note_on_c, 0, 73, 105
1, 154068, Control_c, 0, 64, 0
1, 154072, Note_on_c, 0, 42, 77
1, 154072, Note_on_c, 0, 49, 77
1, 154076, Poly_aftertouch_c, 0, 50, 0
1, 154098, Control_c, 0, 64, 23
1, 154113, Control_c, 0, 64, 58
1, 154127, Control_c, 0, 64, 71
1, 154142, Control_c, 0, 64, 127
1, 154146, Note_on_c, 0, 68, 78
1, 154168, Note_on_c, 0, 50, 75
1, 154169, Note_off_c, 0, 49, 65
1, 154178, Note_off_c, 0, 73, 59
1, 154193, Note_off_c, 0, 42, 62
1, 154213, Note_off_c, 0, 50, 62
1, 154213, Note_off_c, 0, 68, 64
1, 154216, Control_c, 0, 64, 115
1, 154231, Control_c, 0, 64, 72
1, 154245, Control_c, 0, 64, 51
1, 154259, Note_on_c, 0, 71, 87
1, 154260, Control_c, 0, 64, 12
1, 154262, Note_on_c, 0, 51, 87
1, 154274, Note_on_c, 0, 43, 71
1, 154275, Control_c, 0, 64, 33
1, 154290, Control_c, 0, 64, 55
1, 154294, Note_on_c, 0, 63, 57
1, 154305, Control_c, 0, 64, 67
1, 154320, Control_c, 0, 64, 96
1, 154335, Control_c, 0, 64, 127
1, 154348, Note_off_c, 0, 63, 0
1, 154351, Note_on_c, 0, 52, 84
1, 154355, Note_on_c, 0, 73, 81
1, 154358, Note_on_c, 0, 63, 54
1, 154360, Note_off_c, 0, 43, 62
1, 154364, Note_off_c, 0, 71, 51
1, 154382, Note_off_c, 0, 51, 49
1, 154395, Note_off_c, 0, 63, 64
1, 154395, Control_c, 0, 64, 81
1, 154401, Note_off_c, 0, 52, 65
1, 154406, Note_off_c, 0, 73, 64
1, 154410, Control_c, 0, 64, 57
1, 154424, Control_c, 0, 64, 0
1, 154457, Note_on_c, 0, 71, 97
1, 154461, Note_on_c, 0, 61, 86
1, 154465, Note_on_c, 0, 53, 91
1, 154469, Control_c, 0, 64, 39
1, 154471, Note_on_c, 0, 45, 81
1, 154484, Control_c, 0, 64, 63
1, 154499, Control_c, 0, 64, 75
1, 154514, Control_c, 0, 64, 127
1, 154548, Note_off_c, 0, 45, 62
1, 154549, Note_on_c, 0, 64, 74
1, 154552, Note_on_c, 0, 54, 83
1, 154555, Note_off_c, 0, 71, 60
1, 154556, Note_off_c, 0, 53, 65
1, 154569, Note_off_c, 0, 61, 60
1, 154577, Poly_aftertouch_c, 0, 62, 0
1, 154588, Control_c, 0, 64, 86
1, 154594, Note_off_c, 0, 64, 62
1, 154600, Note_off_c, 0, 54, 63
1, 154603, Control_c, 0, 64, 60
1, 154617, Control_c, 0, 64, 0
1, 154647, Control_c, 0, 64, 12
1, 154654, Note_on_c, 0, 66, 97
1, 154658, Note_on_c, 0, 55, 94
1, 154662, Control_c, 0, 64, 52
1, 154663, Note_on_c, 0, 59, 79
1, 154666, Note_on_c, 0, 47, 77
1, 154676, Control_c, 0, 64, 67
1, 154691, Control_c, 0, 64, 98
1, 154698, Note_off_c, 0, 59, 56
1, 154706, Control_c, 0, 64, 127
1, 154732, Note_off_c, 0, 47, 62
1, 154750, Note_on_c, 0, 56, 85
1, 154752, Note_on_c, 0, 62, 72
1, 154753, Note_off_c, 0, 55, 65
1, 154781, Note_off_c, 0, 66, 61
1, 154800, Note_off_c, 0, 56, 63
1, 154802, Note_off_c, 0, 62, 64
1, 154803, Control_c, 0, 64, 76
1, 154818, Control_c, 0, 64, 53
1, 154832, Control_c, 0, 64, 0
1, 154860, Note_on_c, 0, 57, 95
1, 154860, Note_on_c, 0, 66, 101
1, 154862, Control_c, 0, 64, 37
1, 154871, Note_on_c, 0, 49, 76
1, 154876, Control_c, 0, 64, 65
1, 154891, Control_c, 0, 64, 89
1, 154906, Control_c, 0, 64, 127
1, 154941, Note_on_c, 0, 56, 84
1, 154949, Note_on_c, 0, 60, 68
1, 154952, Poly_aftertouch_c, 0, 51, 127
1, 154955, Note_off_c, 0, 57, 61
1, 154961, Note_off_c, 0, 49, 61
1, 154970, Note_off_c, 0, 56, 67
1, 154976, Poly_aftertouch_c, 0, 51, 0
1, 154979, Note_off_c, 0, 66, 59
1, 154980, Control_c, 0, 64, 90
1, 154994, Control_c, 0, 64, 65
1, 155001, Note_off_c, 0, 60, 65
1, 155009, Control_c, 0, 64, 17
1, 155023, Control_c, 0, 64, 0
1, 155051, Note_on_c, 0, 55, 89
1, 155053, Note_on_c, 0, 64, 95
1, 155053, Control_c, 0, 64, 53
1, 155063, Note_on_c, 0, 57, 74
1, 155064, Note_on_c, 0, 45, 76
1, 155068, Control_c, 0, 64, 72
1, 155080, Note_on_c, 0, 59, 67
1, 155083, Control_c, 0, 64, 104
1, 155098, Control_c, 0, 64, 127
1, 155104, Note_off_c, 0, 59, 38
1, 155128, Control_c, 0, 64, 95
1, 155132, Note_off_c, 0, 57, 50
1, 155137, Note_on_c, 0, 54, 85
1, 155142, Note_off_c, 0, 55, 60
1, 155142, Control_c, 0, 64, 68
1, 155152, Note_off_c, 0, 64, 61
1, 155153, Note_on_c, 0, 59, 71
1, 155155, Note_on_c, 0, 60, 63
1, 155157, Control_c, 0, 64, 24
1, 155160, Note_off_c, 0, 54, 70
1, 155166, Note_off_c, 0, 45, 61
1, 155172, Control_c, 0, 64, 0
1, 155179, Note_off_c, 0, 59, 68
1, 155184, Note_off_c, 0, 60, 65
1, 155209, Note_on_c, 0, 53, 3
1, 155210, Note_off_c, 0, 53, 127
1, 155244, Note_on_c, 0, 66, 102
1, 155255, Note_on_c, 0, 57, 87
1, 155262, Control_c, 0, 64, 46
1, 155265, Note_on_c, 0, 45, 82
1, 155269, Note_on_c, 0, 38, 72
1, 155277, Control_c, 0, 64, 66
1, 155291, Control_c, 0, 64, 90
1, 155306, Control_c, 0, 64, 127
1, 155330, Note_on_c, 0, 60, 73
1, 155339, Note_off_c, 0, 57, 53
1, 155342, Note_off_c, 0, 38, 58
1, 155343, Note_on_c, 0, 46, 82
1, 155345, Note_off_c, 0, 45, 64
1, 155351, Note_off_c, 0, 66, 58
1, 155365, Note_off_c, 0, 60, 64
1, 155380, Control_c, 0, 64, 113
1, 155384, Note_off_c, 0, 46, 62
1, 155395, Control_c, 0, 64, 77
1, 155410, Control_c, 0, 64, 60
1, 155425, Control_c, 0, 64, 0
1, 155449, Note_on_c, 0, 53, 85
1, 155450, Note_on_c, 0, 50, 87
1, 155480, Note_off_c, 0, 53, 66
1, 155509, Note_off_c, 0, 50, 62
1, 155541, Note_on_c, 0, 49, 80
1, 155549, Note_on_c, 0, 54, 68
1, 155568, Note_off_c, 0, 49, 70
1, 155568, Note_off_c, 0, 54, 64
1, 155625, Control_c, 0, 64, 20
1, 155640, Control_c, 0, 64, 56
1, 155654, Note_on_c, 0, 67, 86
1, 155654, Control_c, 0, 64, 69
1, 155658, Note_on_c, 0, 38, 74
1, 155658, Note_on_c, 0, 59, 87
1, 155662, Note_on_c, 0, 43, 61
1, 155663, Note_on_c, 0, 65, 82
1, 155666, Note_on_c, 0, 45, 70
1, 155669, Control_c, 0, 64, 97
1, 155684, Control_c, 0, 64, 127
1, 155685, Note_on_c, 0, 62, 47
1, 155699, Note_off_c, 0, 43, 62
1, 155702, Note_off_c, 0, 45, 65
1, 155724, Note_off_c, 0, 38, 62
1, 155725, Note_off_c, 0, 62, 0
1, 155725, Note_on_c, 0, 62, 29
1, 155736, Note_off_c, 0, 59, 46
1, 155752, Note_off_c, 0, 67, 61
1, 155757, Note_off_c, 0, 65, 54
1, 155762, Note_off_c, 0, 62, 62
1, 155775, Note_on_c, 0, 61, 43
1, 155792, Note_on_c, 0, 50, 63
1, 155802, Control_c, 0, 64, 111
1, 155804, Note_off_c, 0, 61, 55
1, 155817, Control_c, 0, 64, 79
1, 155832, Control_c, 0, 64, 64
1, 155846, Control_c, 0, 64, 48
1, 155860, Note_on_c, 0, 55, 83
1, 155861, Control_c, 0, 64, 23
1, 155876, Control_c, 0, 64, 0
1, 155879, Note_on_c, 0, 49, 60
1, 155897, Note_off_c, 0, 50, 63
1, 155909, Note_off_c, 0, 55, 65
1, 155914, Note_off_c, 0, 49, 64
1, 155951, Note_on_c, 0, 56, 85
1, 155990, Note_off_c, 0, 56, 65
1, 156025, Control_c, 0, 64, 28
1, 156040, Control_c, 0, 64, 58
1, 156052, Note_on_c, 0, 45, 69
1, 156055, Control_c, 0, 64, 71
1, 156057, Note_on_c, 0, 38, 70
1, 156061, Note_on_c, 0, 66, 94
1, 156064, Note_on_c, 0, 57, 86
1, 156070, Control_c, 0, 64, 103
1, 156085, Control_c, 0, 64, 127
1, 156113, Note_off_c, 0, 57, 61
1, 156119, Note_off_c, 0, 66, 62
1, 156141, Note_on_c, 0, 46, 78
1, 156146, Note_off_c, 0, 45, 63
1, 156150, Note_off_c, 0, 38, 60
1, 156162, Note_on_c, 0, 57, 40
1, 156163, Note_on_c, 0, 60, 67
1, 156190, Note_off_c, 0, 57, 65
1, 156191, Note_off_c, 0, 46, 62
1, 156196, Note_off_c, 0, 60, 67
1, 156255, Control_c, 0, 64, 99
1, 156269, Control_c, 0, 64, 72
1, 156274, Note_on_c, 0, 52, 76
1, 156277, Note_on_c, 0, 50, 72
1, 156278, Note_on_c, 0, 55, 77
1, 156284, Control_c, 0, 64, 59
1, 156299, Control_c, 0, 64, 31
1, 156304, Note_off_c, 0, 52, 67
1, 156314, Control_c, 0, 64, 0
1, 156316, Note_off_c, 0, 55, 59
1, 156318, Note_off_c, 0, 50, 53
1, 156339, Note_on_c, 0, 49, 73
1, 156353, Note_on_c, 0, 56, 77
1, 156371, Note_off_c, 0, 49, 67
1, 156382, Note_off_c, 0, 56, 68
1, 156433, Control_c, 0, 64, 43
1, 156448, Control_c, 0, 64, 64
1, 156462, Note_on_c, 0, 66, 91
1, 156463, Control_c, 0, 64, 83
1, 156472, Note_on_c, 0, 57, 82
1, 156477, Control_c, 0, 64, 127
1, 156481, Note_on_c, 0, 45, 56
1, 156488, Note_on_c, 0, 47, 69
1, 156494, Note_on_c, 0, 40, 57
1, 156496, Note_on_c, 0, 38, 48
1, 156496, Note_off_c, 0, 57, 69
1, 156499, Note_on_c, 0, 67, 45
1, 156511, Note_off_c, 0, 66, 61
1, 156523, Note_off_c, 0, 67, 57
1, 156529, Note_off_c, 0, 38, 60
1, 156538, Note_off_c, 0, 45, 61
1, 156543, Note_off_c, 0, 40, 64
1, 156546, Note_on_c, 0, 46, 66
1, 156569, Note_off_c, 0, 46, 62
1, 156582, Note_off_c, 0, 47, 0
1, 156595, Control_c, 0, 64, 109
1, 156610, Control_c, 0, 64, 65
1, 156621, Poly_aftertouch_c, 0, 47, 0
1, 156625, Control_c, 0, 64, 0
1, 156678, Note_on_c, 0, 72, 98
1, 156679, Note_on_c, 0, 62, 100
1, 156698, Note_on_c, 0, 70, 68
1, 156699, Control_c, 0, 64, 44
1, 156714, Control_c, 0, 64, 72
1, 156714, Note_off_c, 0, 70, 68
1, 156716, Note_off_c, 0, 62, 67
1, 156720, Note_off_c, 0, 72, 67
1, 156728, Control_c, 0, 64, 127
1, 156786, Note_on_c, 0, 62, 96
1, 156788, Note_on_c, 0, 50, 88
1, 156821, Note_off_c, 0, 62, 69
1, 156845, Note_off_c, 0, 50, 66
1, 156937, Control_c, 0, 64, 66
1, 156940, Note_on_c, 0, 50, 124
1, 156952, Control_c, 0, 64, 0
1, 157004, Control_c, 0, 64, 65
1, 157018, Control_c, 0, 64, 127
1, 157069, Note_off_c, 0, 50, 63
1, 157089, Note_on_c, 0, 38, 100
1, 157091, Note_on_c, 0, 26, 92
1, 157128, Note_off_c, 0, 26, 60
1, 157154, Note_off_c, 0, 38, 61
1, 157221, Note_on_c, 0, 50, 95
1, 157223, Note_on_c, 0, 62, 94
1, 157256, Note_off_c, 0, 50, 67
1, 157259, Note_off_c, 0, 62, 65
1, 157330, Note_on_c, 0, 50, 103
1, 157332, Note_on_c, 0, 38, 87
1, 157369, Note_off_c, 0, 50, 64
1, 157377, Note_off_c, 0, 38, 60
1, 157426, Note_on_c, 0, 50, 96
1, 157426, Note_on_c, 0, 52, 95
1, 157458, Note_off_c, 0, 52, 68
1, 157459, Note_off_c, 0, 50, 63
1, 157533, Note_on_c, 0, 38, 92
1, 157539, Note_on_c, 0, 26, 83
1, 157568, Note_off_c, 0, 26, 64
1, 157578, Note_off_c, 0, 38, 63
1, 157636, Note_on_c, 0, 50, 92
1, 157640, Note_on_c, 0, 64, 77
1, 157646, Note_on_c, 0, 52, 81
1, 157653, Note_on_c, 0, 62, 77
1, 157658, Note_off_c, 0, 52, 73
1, 157664, Note_off_c, 0, 64, 69
1, 157670, Note_off_c, 0, 50, 63
1, 157679, Note_off_c, 0, 62, 68
1, 157700, Control_c, 0, 64, 85
1, 157715, Control_c, 0, 64, 74
1, 157719, Note_on_c, 0, 52, 33
1, 157737, Control_c, 0, 64, 76
1, 157739, Note_on_c, 0, 50, 93
1, 157745, Note_on_c, 0, 38, 85
1, 157747, Note_off_c, 0, 52, 64
1, 157752, Control_c, 0, 64, 89
1, 157766, Control_c, 0, 64, 127
1, 157778, Note_off_c, 0, 50, 66
1, 157793, Note_off_c, 0, 38, 65
1, 157843, Note_on_c, 0, 50, 106
1, 157879, Note_off_c, 0, 50, 67
1, 157945, Note_on_c, 0, 38, 91
1, 157953, Note_on_c, 0, 26, 82
1, 157984, Note_off_c, 0, 26, 65
1, 157984, Note_off_c, 0, 38, 66
1, 158050, Note_on_c, 0, 50, 100
1, 158052, Note_on_c, 0, 62, 91
1, 158086, Note_off_c, 0, 50, 67
1, 158088, Note_off_c, 0, 62, 63
1, 158147, Note_on_c, 0, 50, 96
1, 158152, Note_on_c, 0, 38, 86
1, 158166, Control_c, 0, 64, 82
1, 158181, Control_c, 0, 64, 63
1, 158188, Note_off_c, 0, 50, 66
1, 158196, Control_c, 0, 64, 60
1, 158201, Note_off_c, 0, 38, 61
1, 158211, Control_c, 0, 64, 67
1, 158226, Control_c, 0, 64, 97
1, 158240, Control_c, 0, 64, 127
1, 158251, Note_on_c, 0, 50, 111
1, 158280, Note_off_c, 0, 50, 70
1, 158353, Note_on_c, 0, 38, 88
1, 158356, Note_on_c, 0, 26, 84
1, 158387, Note_off_c, 0, 26, 63
1, 158399, Note_off_c, 0, 38, 63
1, 158454, Note_on_c, 0, 50, 94
1, 158461, Note_on_c, 0, 62, 87
1, 158496, Note_off_c, 0, 62, 67
1, 158499, Note_off_c, 0, 50, 65
1, 158561, Note_on_c, 0, 50, 94
1, 158565, Note_on_c, 0, 38, 85
1, 158598, Note_off_c, 0, 50, 66
1, 158612, Note_off_c, 0, 38, 62
1, 158619, Control_c, 0, 64, 68
1, 158634, Control_c, 0, 64, 47
1, 158649, Control_c, 0, 64, 58
1, 158654, Note_on_c, 0, 50, 106
1, 158663, Control_c, 0, 64, 72
1, 158678, Control_c, 0, 64, 127
1, 158697, Note_off_c, 0, 50, 66
1, 158761, Note_on_c, 0, 38, 93
1, 158767, Note_on_c, 0, 26, 86
1, 158797, Note_off_c, 0, 26, 64
1, 158803, Note_off_c, 0, 38, 63
1, 158857, Note_on_c, 0, 50, 108
1, 158897, Note_off_c, 0, 50, 65
1, 158970, Note_on_c, 0, 50, 91
1, 158973, Note_on_c, 0, 38, 81
1, 159010, Note_off_c, 0, 50, 63
1, 159021, Note_off_c, 0, 38, 61
1, 159065, Note_on_c, 0, 50, 102
1, 159101, Note_off_c, 0, 50, 69
1, 159177, Note_on_c, 0, 38, 93
1, 159188, Note_on_c, 0, 26, 79
1, 159218, Note_off_c, 0, 26, 64
1, 159222, Note_off_c, 0, 38, 63
1, 159274, Note_on_c, 0, 50, 103
1, 159307, Note_off_c, 0, 50, 69
1, 159378, Note_on_c, 0, 50, 93
1, 159399, Note_on_c, 0, 38, 62
1, 159403, Note_on_c, 0, 40, 60
1, 159405, Note_on_c, 0, 42, 51
1, 159414, Note_off_c, 0, 50, 65
1, 159431, Note_off_c, 0, 38, 63
1, 159432, Note_off_c, 0, 40, 64
1, 159435, Note_off_c, 0, 42, 55
1, 159480, Note_on_c, 0, 50, 112
1, 159515, Note_off_c, 0, 50, 67
1, 159574, Note_on_c, 0, 38, 89
1, 159581, Note_on_c, 0, 26, 83
1, 159608, Note_off_c, 0, 26, 64
1, 159620, Note_off_c, 0, 38, 62
1, 159683, Note_on_c, 0, 50, 102
1, 159721, Note_off_c, 0, 50, 66
1, 159773, Note_on_c, 0, 50, 90
1, 159784, Note_on_c, 0, 38, 70
1, 159797, Note_on_c, 0, 42, 57
1, 159813, Control_c, 0, 64, 92
1, 159815, Note_on_c, 0, 40, 41
1, 159815, Note_off_c, 0, 50, 63
1, 159821, Note_off_c, 0, 38, 64
1, 159824, Note_off_c, 0, 42, 59
1, 159828, Control_c, 0, 64, 69
1, 159843, Control_c, 0, 64, 65
1, 159857, Note_off_c, 0, 40, 51
1, 159858, Control_c, 0, 64, 70
1, 159873, Control_c, 0, 64, 85
1, 159877, Note_on_c, 0, 50, 101
1, 159887, Control_c, 0, 64, 127
1, 159921, Note_off_c, 0, 50, 65
1, 159972, Note_on_c, 0, 38, 92
1, 159976, Note_on_c, 0, 26, 83
1, 160013, Note_off_c, 0, 26, 66
1, 160029, Note_off_c, 0, 38, 63
1, 160029, Control_c, 0, 64, 83
1, 160043, Control_c, 0, 64, 60
1, 160058, Control_c, 0, 64, 0
1, 160079, Note_on_c, 0, 51, 97
1, 160089, Note_on_c, 0, 49, 87
1, 160113, Note_off_c, 0, 49, 68
1, 160130, Note_off_c, 0, 51, 67
1, 160192, Note_on_c, 0, 50, 85
1, 160201, Note_on_c, 0, 36, 69
1, 160207, Note_on_c, 0, 48, 68
1, 160216, Note_on_c, 0, 38, 65
1, 160220, Note_off_c, 0, 50, 67
1, 160222, Control_c, 0, 64, 55
1, 160230, Note_off_c, 0, 48, 39
1, 160235, Note_off_c, 0, 36, 63
1, 160236, Control_c, 0, 64, 76
1, 160241, Note_off_c, 0, 38, 60
1, 160251, Control_c, 0, 64, 127
1, 160282, Note_on_c, 0, 52, 102
1, 160285, Note_on_c, 0, 48, 98
1, 160316, Note_on_c, 0, 51, 32
1, 160317, Note_off_c, 0, 51, 127
1, 160320, Note_off_c, 0, 48, 68
1, 160341, Note_off_c, 0, 52, 68
1, 160380, Note_on_c, 0, 38, 85
1, 160386, Note_on_c, 0, 26, 86
1, 160419, Note_off_c, 0, 26, 67
1, 160448, Note_off_c, 0, 38, 59
1, 160485, Note_on_c, 0, 52, 82
1, 160487, Note_on_c, 0, 48, 92
1, 160523, Note_on_c, 0, 51, 21
1, 160530, Note_off_c, 0, 48, 64
1, 160532, Control_c, 0, 64, 98
1, 160544, Note_off_c, 0, 52, 67
1, 160547, Control_c, 0, 64, 70
1, 160562, Control_c, 0, 64, 42
1, 160568, Note_off_c, 0, 51, 50
1, 160577, Control_c, 0, 64, 0
1, 160582, Note_on_c, 0, 50, 94
1, 160591, Note_on_c, 0, 38, 76
1, 160619, Note_off_c, 0, 50, 63
1, 160622, Control_c, 0, 64, 35
1, 160628, Note_off_c, 0, 38, 63
1, 160636, Control_c, 0, 64, 60
1, 160651, Control_c, 0, 64, 81
1, 160666, Control_c, 0, 64, 127
1, 160689, Note_on_c, 0, 52, 91
1, 160690, Note_on_c, 0, 48, 92
1, 160741, Note_off_c, 0, 48, 61
1, 160753, Note_off_c, 0, 52, 67
1, 160782, Note_on_c, 0, 38, 91
1, 160789, Note_on_c, 0, 26, 81
1, 160817, Note_off_c, 0, 26, 64
1, 160831, Note_off_c, 0, 38, 62
1, 160890, Note_on_c, 0, 52, 94
1, 160899, Note_on_c, 0, 48, 86
1, 160911, Control_c, 0, 64, 103
1, 160926, Control_c, 0, 64, 67
1, 160940, Control_c, 0, 64, 0
1, 160955, Note_off_c, 0, 52, 63
1, 160955, Note_off_c, 0, 48, 60
1, 160978, Note_on_c, 0, 50, 95
1, 160987, Note_on_c, 0, 38, 81
1, 161015, Note_off_c, 0, 50, 65
1, 161018, Note_off_c, 0, 38, 67
1, 161030, Control_c, 0, 64, 60
1, 161045, Control_c, 0, 64, 89
1, 161059, Control_c, 0, 64, 127
1, 161073, Note_on_c, 0, 55, 105
1, 161081, Note_on_c, 0, 48, 91
1, 161088, Note_on_c, 0, 52, 77
1, 161141, Note_off_c, 0, 48, 52
1, 161144, Note_off_c, 0, 52, 65
1, 161178, Note_off_c, 0, 55, 55
1, 161182, Note_on_c, 0, 38, 89
1, 161193, Note_on_c, 0, 26, 79
1, 161227, Note_off_c, 0, 26, 64
1, 161229, Note_off_c, 0, 38, 63
1, 161277, Note_on_c, 0, 55, 93
1, 161284, Note_on_c, 0, 48, 90
1, 161287, Note_on_c, 0, 52, 80
1, 161331, Note_off_c, 0, 48, 60
1, 161343, Note_off_c, 0, 52, 62
1, 161343, Note_off_c, 0, 55, 60
1, 161370, Control_c, 0, 64, 105
1, 161382, Note_on_c, 0, 50, 96
1, 161385, Control_c, 0, 64, 66
1, 161391, Note_on_c, 0, 38, 80
1, 161400, Control_c, 0, 64, 0
1, 161417, Note_off_c, 0, 50, 64
1, 161417, Note_off_c, 0, 38, 65
1, 161444, Control_c, 0, 64, 27
1, 161459, Control_c, 0, 64, 65
1, 161474, Control_c, 0, 64, 109
1, 161492, Note_on_c, 0, 55, 93
1, 161496, Control_c, 0, 64, 127
1, 161498, Note_on_c, 0, 48, 92
1, 161507, Note_on_c, 0, 52, 73
1, 161544, Note_off_c, 0, 52, 63
1, 161548, Note_off_c, 0, 48, 57
1, 161594, Note_off_c, 0, 55, 58
1, 161625, Note_on_c, 0, 38, 84
1, 161632, Note_on_c, 0, 26, 77
1, 161659, Note_off_c, 0, 26, 63
1, 161683, Note_off_c, 0, 38, 60
1, 161697, Note_on_c, 0, 54, 98
1, 161727, Note_on_c, 0, 53, 72
1, 161731, Note_off_c, 0, 54, 64
1, 161754, Note_off_c, 0, 53, 64
1, 161793, Control_c, 0, 64, 86
1, 161798, Note_on_c, 0, 52, 95
1, 161807, Control_c, 0, 64, 61
1, 161811, Note_on_c, 0, 50, 88
1, 161816, Note_off_c, 0, 52, 74
1, 161820, Note_on_c, 0, 53, 53
1, 161821, Note_off_c, 0, 53, 127
1, 161821, Note_on_c, 0, 38, 68
1, 161822, Control_c, 0, 64, 0
1, 161844, Note_off_c, 0, 50, 66
1, 161860, Note_off_c, 0, 38, 65
1, 161886, Note_on_c, 0, 50, 100
1, 161940, Control_c, 0, 64, 29
1, 161955, Control_c, 0, 64, 72
1, 161957, Note_off_c, 0, 50, 61
1, 161970, Control_c, 0, 64, 127
1, 162005, Note_on_c, 0, 38, 91
1, 162011, Note_on_c, 0, 26, 81
1, 162013, Note_on_c, 0, 54, 14
1, 162038, Note_off_c, 0, 26, 63
1, 162049, Note_off_c, 0, 38, 63
1, 162062, Note_off_c, 0, 54, 50
1, 162100, Note_on_c, 0, 50, 103
1, 162136, Note_off_c, 0, 50, 66
1, 162204, Note_on_c, 0, 50, 87
1, 162211, Note_on_c, 0, 38, 73
1, 162252, Note_off_c, 0, 50, 56
1, 162267, Note_off_c, 0, 38, 59
1, 162317, Note_on_c, 0, 50, 93
1, 162352, Note_off_c, 0, 50, 63
1, 162407, Note_on_c, 0, 38, 83
1, 162415, Note_on_c, 0, 26, 71
1, 162449, Note_off_c, 0, 26, 62
1, 162454, Note_off_c, 0, 38, 63
1, 162520, Note_on_c, 0, 50, 81
1, 162550, Note_off_c, 0, 50, 66
1, 162556, Control_c, 0, 64, 88
1, 162571, Control_c, 0, 64, 67
1, 162586, Control_c, 0, 64, 47
1, 162601, Control_c, 0, 64, 0
1, 162606, Note_on_c, 0, 50, 74
1, 162618, Note_on_c, 0, 38, 69
1, 162646, Note_off_c, 0, 50, 64
1, 162659, Note_off_c, 0, 38, 62
1, 162690, Control_c, 0, 64, 49
1, 162705, Control_c, 0, 64, 67
1, 162717, Note_on_c, 0, 50, 75
1, 162720, Control_c, 0, 64, 83
1, 162735, Control_c, 0, 64, 127
1, 162750, Note_off_c, 0, 50, 66
1, 162807, Note_on_c, 0, 38, 75
1, 162815, Note_on_c, 0, 26, 57
1, 162824, Control_c, 0, 64, 106
1, 162838, Control_c, 0, 64, 81
1, 162846, Note_off_c, 0, 38, 62
1, 162847, Note_off_c, 0, 26, 54
1, 162853, Control_c, 0, 64, 67
1, 162868, Control_c, 0, 64, 55
1, 162883, Control_c, 0, 64, 33
1, 162898, Control_c, 0, 64, 11
1, 162912, Control_c, 0, 64, 0
1, 162921, Note_on_c, 0, 50, 74
1, 162947, Note_off_c, 0, 50, 66
1, 163009, Control_c, 0, 64, 19
1, 163009, Note_on_c, 0, 50, 74
1, 163021, Note_on_c, 0, 38, 62
1, 163024, Control_c, 0, 64, 29
1, 163038, Control_c, 0, 64, 38
1, 163041, Note_off_c, 0, 50, 67
1, 163053, Control_c, 0, 64, 48
1, 163055, Note_off_c, 0, 38, 64
1, 163068, Control_c, 0, 64, 55
1, 163083, Control_c, 0, 64, 58
1, 163098, Control_c, 0, 64, 59
1, 163112, Control_c, 0, 64, 58
1, 163123, Note_on_c, 0, 50, 78
1, 163127, Control_c, 0, 64, 56
1, 163142, Control_c, 0, 64, 54
1, 163148, Note_off_c, 0, 50, 66
1, 163156, Control_c, 0, 64, 49
1, 163171, Control_c, 0, 64, 40
1, 163187, Control_c, 0, 64, 33
1, 163202, Control_c, 0, 64, 31
1, 163209, Note_on_c, 0, 38, 59
1, 163232, Control_c, 0, 64, 31
1, 163232, Control_c, 0, 67, 27
1, 163233, Note_on_c, 0, 28, 33
1, 163246, Note_off_c, 0, 38, 63
1, 163247, Control_c, 0, 67, 65
1, 163261, Control_c, 0, 67, 92
1, 163275, Note_off_c, 0, 28, 51
1, 163276, Control_c, 0, 64, 31
1, 163276, Control_c, 0, 67, 104
1, 163291, Control_c, 0, 64, 30
1, 163291, Control_c, 0, 67, 103
1, 163306, Control_c, 0, 64, 29
1, 163306, Control_c, 0, 67, 102
1, 163321, Note_on_c, 0, 51, 76
1, 163321, Control_c, 0, 64, 29
1, 163321, Control_c, 0, 67, 99
1, 163326, Note_on_c, 0, 49, 60
1, 163335, Control_c, 0, 67, 96
1, 163349, Note_off_c, 0, 51, 67
1, 163350, Control_c, 0, 64, 28
1, 163350, Control_c, 0, 67, 92
1, 163357, Note_off_c, 0, 49, 65
1, 163365, Control_c, 0, 67, 87
1, 163379, Control_c, 0, 64, 28
1, 163379, Control_c, 0, 67, 85
1, 163394, Control_c, 0, 64, 26
1, 163394, Control_c, 0, 67, 83
1, 163409, Control_c, 0, 64, 21
1, 163409, Control_c, 0, 67, 82
1, 163420, Note_on_c, 0, 50, 49
1, 163424, Control_c, 0, 64, 12
1, 163424, Control_c, 0, 67, 79
1, 163429, Note_on_c, 0, 38, 56
1, 163439, Control_c, 0, 64, 0
1, 163439, Control_c, 0, 67, 73
1, 163449, Note_off_c, 0, 50, 51
1, 163453, Control_c, 0, 67, 59
1, 163463, Note_off_c, 0, 38, 62
1, 163468, Control_c, 0, 64, 18
1, 163468, Control_c, 0, 67, 29
1, 163483, Control_c, 0, 64, 43
1, 163483, Control_c, 0, 67, 0
1, 163498, Control_c, 0, 64, 63
1, 163513, Control_c, 0, 64, 81
1, 163519, Note_on_c, 0, 52, 84
1, 163525, Note_on_c, 0, 48, 75
1, 163528, Control_c, 0, 64, 127
1, 163546, Note_off_c, 0, 52, 68
1, 163549, Note_off_c, 0, 48, 67
1, 163573, Control_c, 0, 64, 111
1, 163587, Control_c, 0, 64, 82
1, 163602, Control_c, 0, 64, 65
1, 163608, Note_on_c, 0, 38, 72
1, 163613, Note_on_c, 0, 26, 66
1, 163617, Control_c, 0, 64, 44
1, 163632, Control_c, 0, 64, 0
1, 163641, Note_off_c, 0, 26, 62
1, 163648, Note_off_c, 0, 38, 61
1, 163691, Control_c, 0, 67, 27
1, 163705, Control_c, 0, 67, 57
1, 163720, Note_on_c, 0, 52, 69
1, 163720, Control_c, 0, 67, 87
1, 163723, Note_on_c, 0, 48, 59
1, 163743, Control_c, 0, 67, 118
1, 163753, Note_off_c, 0, 52, 67
1, 163757, Control_c, 0, 67, 127
1, 163761, Note_off_c, 0, 48, 64
1, 163826, Note_on_c, 0, 50, 73
1, 163835, Note_on_c, 0, 38, 59
1, 163856, Note_off_c, 0, 50, 65
1, 163868, Note_off_c, 0, 38, 62
1, 163937, Note_on_c, 0, 52, 66
1, 163944, Note_on_c, 0, 48, 60
1, 163963, Note_off_c, 0, 52, 67
1, 163974, Note_off_c, 0, 48, 62
1, 164032, Note_on_c, 0, 38, 66
1, 164047, Note_on_c, 0, 26, 50
1, 164067, Note_off_c, 0, 38, 64
1, 164084, Note_off_c, 0, 26, 46
1, 164135, Note_on_c, 0, 52, 63
1, 164143, Note_on_c, 0, 48, 58
1, 164162, Note_off_c, 0, 52, 67
1, 164173, Control_c, 0, 67, 124
1, 164174, Note_off_c, 0, 48, 64
1, 164188, Control_c, 0, 67, 103
1, 164202, Control_c, 0, 67, 74
1, 164217, Control_c, 0, 67, 38
1, 164228, Note_on_c, 0, 50, 72
1, 164232, Control_c, 0, 67, 0
1, 164240, Note_on_c, 0, 38, 61
1, 164247, Control_c, 0, 64, 32
1, 164256, Note_off_c, 0, 50, 65
1, 164262, Control_c, 0, 64, 51
1, 164269, Note_off_c, 0, 38, 65
1, 164276, Control_c, 0, 64, 62
1, 164291, Control_c, 0, 64, 73
1, 164306, Control_c, 0, 64, 103
1, 164321, Control_c, 0, 64, 127
1, 164327, Note_on_c, 0, 52, 83
1, 164329, Note_on_c, 0, 55, 83
1, 164330, Note_on_c, 0, 48, 83
1, 164354, Note_off_c, 0, 48, 66
1, 164365, Note_off_c, 0, 55, 63
1, 164366, Control_c, 0, 64, 90
1, 164367, Note_off_c, 0, 52, 64
1, 164380, Control_c, 0, 64, 65
1, 164395, Control_c, 0, 64, 39
1, 164410, Control_c, 0, 64, 0
1, 164419, Note_on_c, 0, 38, 74
1, 164428, Note_on_c, 0, 26, 65
1, 164463, Note_off_c, 0, 26, 63
1, 164470, Control_c, 0, 67, 18
1, 164486, Note_off_c, 0, 38, 60
1, 164491, Control_c, 0, 67, 58
1, 164506, Control_c, 0, 67, 100
1, 164521, Control_c, 0, 67, 127
1, 164538, Note_on_c, 0, 55, 74
1, 164541, Note_on_c, 0, 48, 66
1, 164546, Note_on_c, 0, 52, 56
1, 164571, Note_off_c, 0, 48, 65
1, 164573, Note_off_c, 0, 52, 65
1, 164576, Note_off_c, 0, 55, 62
1, 164638, Note_on_c, 0, 50, 72
1, 164652, Note_on_c, 0, 38, 59
1, 164667, Note_off_c, 0, 50, 65
1, 164687, Note_off_c, 0, 38, 63
1, 164751, Note_on_c, 0, 48, 64
1, 164751, Note_on_c, 0, 52, 59
1, 164759, Note_on_c, 0, 55, 65
1, 164782, Note_off_c, 0, 52, 66
1, 164783, Note_off_c, 0, 48, 65
1, 164795, Note_off_c, 0, 55, 63
1, 164843, Note_on_c, 0, 38, 64
1, 164851, Note_on_c, 0, 26, 50
1, 164881, Note_off_c, 0, 38, 63
1, 164890, Note_off_c, 0, 26, 47
1, 164955, Note_on_c, 0, 50, 67
1, 164955, Note_on_c, 0, 53, 67
1, 164981, Note_off_c, 0, 50, 66
1, 164986, Note_off_c, 0, 53, 65
1, 165042, Note_on_c, 0, 50, 71
1, 165046, Note_on_c, 0, 52, 82
1, 165060, Note_on_c, 0, 38, 58
1, 165070, Note_off_c, 0, 50, 66
1, 165070, Control_c, 0, 67, 115
1, 165071, Note_off_c, 0, 52, 69
1, 165085, Control_c, 0, 67, 72
1, 165093, Note_off_c, 0, 38, 61
1, 165099, Control_c, 0, 67, 0
1, 165140, Note_on_c, 0, 50, 93
1, 165174, Note_off_c, 0, 50, 65
1, 165234, Note_on_c, 0, 38, 74
1, 165239, Note_on_c, 0, 26, 67
1, 165270, Note_off_c, 0, 26, 63
1, 165270, Control_c, 0, 67, 10
1, 165281, Note_off_c, 0, 38, 61
1, 165285, Control_c, 0, 67, 85
1, 165300, Control_c, 0, 67, 127
1, 165362, Note_on_c, 0, 50, 73
1, 165391, Note_off_c, 0, 50, 66
1, 165454, Note_on_c, 0, 50, 60
1, 165463, Note_on_c, 0, 38, 54
1, 165483, Note_off_c, 0, 50, 64
1, 165498, Note_off_c, 0, 38, 62
1, 165558, Note_on_c, 0, 50, 51
1, 165567, Note_on_c, 0, 48, 52
1, 165587, Note_off_c, 0, 50, 61
1, 165594, Note_off_c, 0, 48, 55
1, 165655, Note_on_c, 0, 38, 58
1, 165657, Note_on_c, 0, 26, 54
1, 165688, Note_off_c, 0, 38, 62
1, 165692, Note_off_c, 0, 26, 60
1, 165751, Note_on_c, 0, 50, 72
1, 165776, Note_off_c, 0, 50, 66
1, 165845, Note_on_c, 0, 50, 66
1, 165862, Note_on_c, 0, 38, 52
1, 165874, Note_off_c, 0, 50, 64
1, 165901, Note_off_c, 0, 38, 63
1, 165944, Note_on_c, 0, 50, 71
1, 165985, Note_off_c, 0, 50, 65
1, 166058, Note_on_c, 0, 26, 60
1, 166059, Note_on_c, 0, 38, 59
1, 166090, Note_off_c, 0, 26, 62
1, 166099, Note_off_c, 0, 38, 61
1, 166144, Note_on_c, 0, 50, 70
1, 166173, Note_off_c, 0, 50, 64
1, 166246, Note_on_c, 0, 50, 66
1, 166260, Note_on_c, 0, 38, 60
1, 166279, Note_off_c, 0, 50, 64
1, 166297, Note_off_c, 0, 38, 63
1, 166329, Control_c, 0, 67, 109
1, 166344, Control_c, 0, 67, 70
1, 166347, Note_on_c, 0, 50, 75
1, 166359, Control_c, 0, 67, 9
1, 166375, Control_c, 0, 67, 0
1, 166376, Note_off_c, 0, 50, 67
1, 166431, Note_on_c, 0, 38, 64
1, 166434, Control_c, 0, 64, 44
1, 166436, Note_on_c, 0, 26, 65
1, 166449, Control_c, 0, 64, 57
1, 166464, Control_c, 0, 64, 61
1, 166467, Note_off_c, 0, 38, 61
1, 166469, Note_off_c, 0, 26, 63
1, 166478, Control_c, 0, 64, 60
1, 166493, Control_c, 0, 64, 59
1, 166508, Control_c, 0, 64, 59
1, 166523, Control_c, 0, 64, 58
1, 166538, Control_c, 0, 64, 59
1, 166552, Control_c, 0, 64, 59
1, 166554, Note_on_c, 0, 51, 79
1, 166559, Note_on_c, 0, 49, 69
1, 166567, Control_c, 0, 64, 60
1, 166582, Control_c, 0, 64, 60
1, 166596, Control_c, 0, 64, 61
1, 166611, Control_c, 0, 64, 62
1, 166626, Control_c, 0, 64, 63
1, 166637, Note_on_c, 0, 50, 69
1, 166641, Control_c, 0, 64, 63
1, 166652, Note_on_c, 0, 38, 60
1, 166663, Note_off_c, 0, 49, 61
1, 166670, Note_off_c, 0, 50, 63
1, 166683, Note_off_c, 0, 51, 59
1, 166704, Note_off_c, 0, 38, 60
1, 166738, Control_c, 0, 64, 63
1, 166767, Control_c, 0, 64, 62
1, 166771, Note_on_c, 0, 52, 58
1, 166774, Note_on_c, 0, 48, 61
1, 166817, Note_off_c, 0, 48, 60
1, 166832, Note_off_c, 0, 52, 62
1, 166856, Control_c, 0, 64, 62
1, 166856, Control_c, 0, 67, 31
1, 166861, Note_on_c, 0, 38, 65
1, 166861, Note_on_c, 0, 26, 61
1, 166871, Control_c, 0, 64, 61
1, 166871, Control_c, 0, 67, 57
1, 166885, Control_c, 0, 64, 60
1, 166885, Control_c, 0, 67, 88
1, 166899, Note_off_c, 0, 26, 64
1, 166900, Control_c, 0, 64, 59
1, 166900, Control_c, 0, 67, 122
1, 166908, Note_off_c, 0, 38, 62
1, 166915, Control_c, 0, 64, 58
1, 166915, Control_c, 0, 67, 127
1, 166930, Control_c, 0, 64, 58
1, 166945, Control_c, 0, 64, 57
1, 166959, Control_c, 0, 64, 56
1, 166974, Control_c, 0, 64, 55
1, 166979, Note_on_c, 0, 52, 61
1, 166984, Note_on_c, 0, 48, 61
1, 166989, Control_c, 0, 64, 54
1, 167008, Note_off_c, 0, 52, 66
1, 167014, Note_off_c, 0, 48, 65
1, 167033, Control_c, 0, 64, 53
1, 167071, Note_on_c, 0, 50, 60
1, 167075, Note_on_c, 0, 38, 55
1, 167102, Note_off_c, 0, 50, 65
1, 167114, Note_off_c, 0, 38, 63
1, 167185, Note_on_c, 0, 52, 58
1, 167191, Note_on_c, 0, 48, 53
1, 167214, Note_off_c, 0, 52, 67
1, 167217, Note_off_c, 0, 48, 61
1, 167272, Note_on_c, 0, 38, 61
1, 167275, Note_on_c, 0, 26, 57
1, 167287, Control_c, 0, 64, 53
1, 167301, Control_c, 0, 64, 52
1, 167307, Note_off_c, 0, 26, 58
1, 167310, Note_off_c, 0, 38, 61
1, 167316, Control_c, 0, 64, 52
1, 167381, Note_on_c, 0, 52, 65
1, 167393, Note_on_c, 0, 48, 47
1, 167409, Note_off_c, 0, 52, 66
1, 167420, Note_off_c, 0, 48, 56
1, 167420, Control_c, 0, 64, 51
1, 167484, Note_on_c, 0, 50, 69
1, 167499, Note_on_c, 0, 38, 58
1, 167510, Note_off_c, 0, 50, 64
1, 167535, Note_off_c, 0, 38, 63
1, 167603, Note_on_c, 0, 52, 60
1, 167612, Note_on_c, 0, 48, 46
1, 167630, Note_off_c, 0, 52, 67
1, 167639, Note_off_c, 0, 48, 57
1, 167695, Note_on_c, 0, 38, 57
1, 167698, Note_on_c, 0, 26, 57
1, 167730, Note_off_c, 0, 26, 61
1, 167734, Note_off_c, 0, 38, 61
1, 167794, Note_on_c, 0, 52, 61
1, 167804, Note_on_c, 0, 48, 49
1, 167829, Note_off_c, 0, 52, 64
1, 167829, Note_off_c, 0, 48, 60
1, 167897, Note_on_c, 0, 50, 64
1, 167909, Note_on_c, 0, 38, 57
1, 167915, Control_c, 0, 64, 51
1, 167927, Note_off_c, 0, 50, 65
1, 167946, Note_off_c, 0, 38, 62
1, 167990, Control_c, 0, 64, 50
1, 168004, Note_on_c, 0, 52, 74
1, 168005, Control_c, 0, 64, 39
1, 168020, Control_c, 0, 64, 0
1, 168022, Note_on_c, 0, 48, 46
1, 168034, Note_off_c, 0, 52, 67
1, 168048, Note_off_c, 0, 48, 58
1, 168049, Control_c, 0, 67, 122
1, 168064, Control_c, 0, 67, 85
1, 168079, Control_c, 0, 67, 9
1, 168094, Control_c, 0, 67, 0
1, 168103, Note_on_c, 0, 38, 62
1, 168104, Note_on_c, 0, 26, 60
1, 168109, Control_c, 0, 64, 55
1, 168123, Control_c, 0, 64, 68
1, 168137, Note_off_c, 0, 26, 62
1, 168137, Note_off_c, 0, 38, 62
1, 168138, Control_c, 0, 64, 86
1, 168153, Control_c, 0, 64, 127
1, 168232, Note_on_c, 0, 53, 70
1, 168241, Note_on_c, 0, 47, 53
1, 168268, Note_off_c, 0, 47, 55
1, 168276, Note_off_c, 0, 53, 63
1, 168327, Note_on_c, 0, 50, 75
1, 168339, Note_on_c, 0, 38, 58
1, 168382, Control_c, 0, 64, 99
1, 168392, Note_off_c, 0, 38, 57
1, 168397, Control_c, 0, 64, 82
1, 168412, Control_c, 0, 64, 70
1, 168427, Control_c, 0, 64, 61
1, 168427, Control_c, 0, 67, 26
1, 168442, Control_c, 0, 64, 49
1, 168442, Control_c, 0, 67, 48
1, 168452, Note_on_c, 0, 54, 68
1, 168456, Control_c, 0, 64, 36
1, 168456, Control_c, 0, 67, 76
1, 168464, Note_on_c, 0, 46, 62
1, 168469, Note_off_c, 0, 50, 23
1, 168471, Control_c, 0, 64, 29
1, 168471, Control_c, 0, 67, 102
1, 168486, Control_c, 0, 64, 26
1, 168486, Control_c, 0, 67, 127
1, 168501, Control_c, 0, 64, 23
1, 168516, Control_c, 0, 64, 17
1, 168530, Control_c, 0, 64, 0
1, 168571, Note_on_c, 0, 38, 60
1, 168572, Note_on_c, 0, 26, 55
1, 168574, Note_off_c, 0, 46, 56
1, 168593, Note_off_c, 0, 54, 62
1, 168604, Note_off_c, 0, 26, 59
1, 168616, Note_off_c, 0, 38, 60
1, 168691, Note_on_c, 0, 54, 64
1, 168693, Note_on_c, 0, 46, 58
1, 168726, Note_off_c, 0, 46, 64
1, 168727, Note_off_c, 0, 54, 66
1, 168795, Note_on_c, 0, 50, 56
1, 168800, Note_on_c, 0, 38, 54
1, 168822, Note_off_c, 0, 50, 63
1, 168843, Note_off_c, 0, 38, 61
1, 168905, Note_on_c, 0, 54, 67
1, 168915, Note_on_c, 0, 46, 51
1, 168937, Note_off_c, 0, 54, 65
1, 168942, Note_off_c, 0, 46, 57
1, 169028, Note_on_c, 0, 38, 60
1, 169030, Note_on_c, 0, 26, 53
1, 169064, Note_off_c, 0, 38, 64
1, 169064, Note_off_c, 0, 26, 60
1, 169140, Note_on_c, 0, 54, 59
1, 169147, Note_on_c, 0, 46, 54
1, 169171, Note_off_c, 0, 54, 67
1, 169172, Note_off_c, 0, 46, 58
1, 169257, Note_on_c, 0, 50, 56
1, 169261, Note_on_c, 0, 38, 58
1, 169284, Note_off_c, 0, 50, 62
1, 169311, Note_off_c, 0, 38, 59
1, 169366, Note_on_c, 0, 54, 63
1, 169382, Note_on_c, 0, 46, 42
1, 169401, Note_off_c, 0, 54, 66
1, 169413, Note_off_c, 0, 46, 52
1, 169491, Note_on_c, 0, 26, 52
1, 169493, Note_on_c, 0, 38, 52
1, 169526, Note_off_c, 0, 26, 62
1, 169532, Note_off_c, 0, 38, 62
1, 169614, Note_on_c, 0, 54, 57
1, 169624, Note_on_c, 0, 46, 40
1, 169651, Note_off_c, 0, 54, 64
1, 169657, Note_off_c, 0, 46, 51
1, 169731, Note_on_c, 0, 50, 51
1, 169742, Note_on_c, 0, 38, 47
1, 169763, Note_off_c, 0, 50, 63
1, 169785, Note_off_c, 0, 38, 61
1, 169859, Note_on_c, 0, 54, 63
1, 169870, Note_on_c, 0, 46, 47
1, 169896, Note_off_c, 0, 46, 58
1, 169896, Note_off_c, 0, 54, 65
1, 169970, Note_on_c, 0, 26, 50
1, 169971, Note_on_c, 0, 38, 54
1, 170000, Control_c, 0, 64, 35
1, 170006, Note_off_c, 0, 38, 62
1, 170006, Note_off_c, 0, 26, 59
1, 170015, Control_c, 0, 64, 56
1, 170029, Control_c, 0, 64, 66
1, 170029, Control_c, 0, 67, 113
1, 170044, Control_c, 0, 64, 77
1, 170044, Control_c, 0, 67, 52
1, 170059, Control_c, 0, 64, 115
1, 170059, Control_c, 0, 67, 0
1, 170074, Control_c, 0, 64, 127
1, 170085, Note_on_c, 0, 55, 68
1, 170097, Note_on_c, 0, 45, 50
1, 170126, Note_off_c, 0, 45, 55
1, 170150, Note_off_c, 0, 55, 62
1, 170204, Note_on_c, 0, 50, 67
1, 170223, Note_on_c, 0, 38, 51
1, 170242, Note_off_c, 0, 50, 64
1, 170273, Note_off_c, 0, 38, 60
1, 170282, Control_c, 0, 64, 99
1, 170296, Control_c, 0, 64, 86
1, 170311, Control_c, 0, 64, 76
1, 170326, Control_c, 0, 64, 68
1, 170340, Control_c, 0, 64, 61
1, 170346, Note_on_c, 0, 56, 64
1, 170355, Control_c, 0, 64, 54
1, 170372, Control_c, 0, 64, 47
1, 170375, Note_on_c, 0, 44, 53
1, 170387, Control_c, 0, 64, 44
1, 170401, Control_c, 0, 64, 42
1, 170416, Control_c, 0, 64, 40
1, 170431, Control_c, 0, 64, 36
1, 170431, Control_c, 0, 67, 18
1, 170445, Control_c, 0, 64, 32
1, 170445, Control_c, 0, 67, 33
1, 170460, Control_c, 0, 64, 28
1, 170460, Control_c, 0, 67, 50
1, 170482, Control_c, 0, 64, 26
1, 170482, Control_c, 0, 67, 66
1, 170497, Control_c, 0, 64, 25
1, 170497, Control_c, 0, 67, 87
1, 170502, Note_on_c, 0, 38, 55
1, 170506, Note_off_c, 0, 56, 60
1, 170506, Note_on_c, 0, 26, 50
1, 170510, Note_off_c, 0, 44, 55
1, 170512, Control_c, 0, 64, 23
1, 170512, Control_c, 0, 67, 117
1, 170527, Control_c, 0, 64, 20
1, 170527, Control_c, 0, 67, 127
1, 170539, Note_off_c, 0, 26, 52
1, 170542, Control_c, 0, 64, 16
1, 170557, Control_c, 0, 64, 12
1, 170559, Note_off_c, 0, 38, 58
1, 170572, Control_c, 0, 64, 0
1, 170629, Note_on_c, 0, 56, 65
1, 170643, Note_on_c, 0, 44, 45
1, 170671, Note_off_c, 0, 56, 62
1, 170675, Note_off_c, 0, 44, 58
1, 170766, Note_on_c, 0, 50, 58
1, 170771, Note_on_c, 0, 38, 47
1, 170798, Note_off_c, 0, 50, 64
1, 170820, Note_off_c, 0, 38, 61
1, 170907, Note_on_c, 0, 56, 63
1, 170921, Note_on_c, 0, 44, 47
1, 170948, Note_off_c, 0, 56, 61
1, 170949, Note_off_c, 0, 44, 57
1, 171061, Note_on_c, 0, 26, 51
1, 171061, Note_on_c, 0, 38, 50
1, 171097, Note_off_c, 0, 26, 62
1, 171099, Note_off_c, 0, 38, 63
1, 171210, Note_on_c, 0, 56, 55
1, 171237, Note_on_c, 0, 44, 35
1, 171257, Note_off_c, 0, 56, 63
1, 171275, Note_off_c, 0, 44, 51
1, 171373, Note_on_c, 0, 50, 48
1, 171385, Note_on_c, 0, 38, 39
1, 171403, Note_off_c, 0, 50, 62
1, 171438, Note_off_c, 0, 38, 58
1, 171532, Note_on_c, 0, 56, 44
1, 171570, Note_off_c, 0, 56, 58
1, 171614, Poly_aftertouch_c, 0, 44, 0
1, 171695, Note_on_c, 0, 26, 43
1, 171699, Note_on_c, 0, 38, 38
1, 171734, Note_off_c, 0, 26, 62
1, 171735, Note_off_c, 0, 38, 57
1, 171867, Note_on_c, 0, 56, 44
1, 171882, Note_on_c, 0, 44, 23
1, 171900, Note_off_c, 0, 56, 61
1, 171925, Note_off_c, 0, 44, 43
1, 172047, Note_on_c, 0, 50, 40
1, 172055, Note_on_c, 0, 38, 38
1, 172079, Note_off_c, 0, 50, 59
1, 172111, Note_off_c, 0, 38, 56
1, 172220, Note_on_c, 0, 56, 48
1, 172239, Note_on_c, 0, 44, 32
1, 172271, Note_off_c, 0, 56, 59
1, 172277, Note_off_c, 0, 44, 51
1, 172422, Note_on_c, 0, 26, 44
1, 172424, Note_on_c, 0, 38, 43
1, 172466, Note_off_c, 0, 38, 61
1, 172467, Note_off_c, 0, 26, 62
1, 172668, Note_on_c, 0, 56, 35
1, 172683, Note_on_c, 0, 44, 21
1, 172727, Note_off_c, 0, 56, 54
1, 172735, Note_off_c, 0, 44, 50
1, 173008, Note_on_c, 0, 38, 34
1, 173010, Note_on_c, 0, 50, 37
1, 173078, Note_off_c, 0, 50, 56
1, 173091, Note_off_c, 0, 38, 51
1, 173291, Control_c, 0, 64, 9
1, 173306, Control_c, 0, 64, 18
1, 173320, Control_c, 0, 64, 27
1, 173335, Control_c, 0, 64, 34
1, 173350, Control_c, 0, 64, 41
1, 173365, Control_c, 0, 64, 46
1, 173380, Control_c, 0, 64, 51
1, 173395, Control_c, 0, 64, 54
1, 173410, Control_c, 0, 64, 57
1, 173425, Control_c, 0, 64, 59
1, 173439, Control_c, 0, 64, 60
1, 173454, Control_c, 0, 64, 61
1, 173476, Control_c, 0, 64, 62
1, 173491, Control_c, 0, 64, 62
1, 173506, Control_c, 0, 64, 63
1, 173520, Control_c, 0, 64, 63
1, 173535, Control_c, 0, 64, 64
1, 173655, Control_c, 0, 64, 63
1, 173818, Control_c, 0, 64, 63
1, 173863, Control_c, 0, 64, 62
1, 173878, Control_c, 0, 64, 61
1, 173880, Note_on_c, 0, 38, 62
1, 173893, Control_c, 0, 64, 60
1, 173907, Control_c, 0, 64, 58
1, 173910, Note_off_c, 0, 38, 61
1, 173922, Control_c, 0, 64, 55
1, 173937, Control_c, 0, 64, 51
1, 173952, Control_c, 0, 64, 45
1, 173967, Control_c, 0, 64, 34
1, 173982, Control_c, 0, 64, 20
1, 173993, Note_on_c, 0, 38, 51
1, 173997, Note_on_c, 0, 26, 50
1, 173997, Control_c, 0, 64, 0
1, 174025, Note_off_c, 0, 38, 61
1, 174034, Note_off_c, 0, 26, 59
1, 174102, Note_on_c, 0, 38, 50
1, 174133, Note_off_c, 0, 38, 54
1, 174194, Note_on_c, 0, 26, 52
1, 174227, Note_on_c, 0, 38, 34
1, 174241, Note_off_c, 0, 26, 63
1, 174267, Note_off_c, 0, 38, 44
1, 174307, Note_on_c, 0, 38, 59
1, 174340, Note_off_c, 0, 38, 63
1, 174409, Note_on_c, 0, 26, 55
1, 174433, Note_on_c, 0, 38, 40
1, 174450, Note_off_c, 0, 26, 63
1, 174468, Note_off_c, 0, 38, 50
1, 174516, Note_on_c, 0, 38, 58
1, 174550, Note_off_c, 0, 38, 63
1, 174626, Note_on_c, 0, 26, 48
1, 174641, Note_on_c, 0, 38, 41
1, 174665, Note_off_c, 0, 26, 59
1, 174677, Note_off_c, 0, 38, 49
1, 174719, Note_on_c, 0, 38, 61
1, 174751, Note_off_c, 0, 38, 63
1, 174830, Note_on_c, 0, 38, 58
1, 174835, Note_on_c, 0, 26, 52
1, 174870, Note_off_c, 0, 38, 60
1, 174879, Note_off_c, 0, 26, 60
1, 174934, Note_on_c, 0, 38, 56
1, 174969, Note_off_c, 0, 38, 56
1, 175043, Note_on_c, 0, 26, 58
1, 175054, Note_on_c, 0, 38, 53
1, 175082, Note_off_c, 0, 26, 64
1, 175090, Note_off_c, 0, 38, 61
1, 175147, Note_on_c, 0, 38, 62
1, 175180, Note_off_c, 0, 38, 63
1, 175253, Note_on_c, 0, 26, 55
1, 175270, Note_on_c, 0, 38, 45
1, 175294, Note_off_c, 0, 26, 62
1, 175304, Note_off_c, 0, 38, 51
1, 175355, Note_on_c, 0, 38, 59
1, 175387, Note_off_c, 0, 38, 63
1, 175456, Note_on_c, 0, 26, 56
1, 175474, Note_on_c, 0, 38, 48
1, 175496, Note_off_c, 0, 26, 64
1, 175508, Note_off_c, 0, 38, 52
1, 175568, Note_on_c, 0, 38, 64
1, 175601, Note_off_c, 0, 38, 63
1, 175666, Note_on_c, 0, 26, 55
1, 175684, Note_on_c, 0, 38, 46
1, 175715, Note_off_c, 0, 26, 62
1, 175722, Note_off_c, 0, 38, 55
1, 175788, Note_on_c, 0, 38, 56
1, 175817, Note_off_c, 0, 38, 56
1, 175878, Note_on_c, 0, 26, 54
1, 175893, Note_on_c, 0, 38, 46
1, 175920, Note_off_c, 0, 26, 62
1, 175924, Note_off_c, 0, 38, 55
1, 175994, Note_on_c, 0, 38, 66
1, 176027, Note_off_c, 0, 38, 63
1, 176089, Note_on_c, 0, 26, 58
1, 176100, Note_on_c, 0, 38, 53
1, 176126, Note_off_c, 0, 26, 63
1, 176129, Note_off_c, 0, 38, 55
1, 176206, Note_on_c, 0, 38, 64
1, 176253, Note_off_c, 0, 38, 60
1, 176293, Note_on_c, 0, 40, 57
1, 176325, Note_off_c, 0, 40, 64
1, 176400, Note_on_c, 0, 41, 66
1, 176404, Note_on_c, 0, 33, 51
1, 176463, Note_off_c, 0, 41, 62
1, 176496, Note_on_c, 0, 42, 48
1, 176516, Note_on_c, 0, 45, 41
1, 176528, Note_on_c, 0, 38, 40
1, 176541, Note_off_c, 0, 42, 62
1, 176544, Note_off_c, 0, 45, 58
1, 176598, Note_off_c, 0, 38, 56
1, 176602, Note_on_c, 0, 42, 62
1, 176633, Note_on_c, 0, 26, 46
1, 176661, Note_off_c, 0, 42, 61
1, 176683, Note_off_c, 0, 33, 59
1, 176687, Note_on_c, 0, 43, 48
1, 176702, Note_on_c, 0, 46, 54
1, 176724, Note_off_c, 0, 43, 64
1, 176736, Note_on_c, 0, 38, 45
1, 176743, Note_off_c, 0, 46, 64
1, 176806, Note_off_c, 0, 38, 55
1, 176814, Note_on_c, 0, 43, 63
1, 176826, Note_on_c, 0, 33, 49
1, 176869, Note_off_c, 0, 43, 61
1, 176895, Note_on_c, 0, 44, 45
1, 176906, Note_on_c, 0, 47, 57
1, 176908, Note_off_c, 0, 26, 46
1, 176941, Note_on_c, 0, 38, 42
1, 176942, Note_off_c, 0, 44, 61
1, 176945, Note_off_c, 0, 47, 62
1, 176988, Note_off_c, 0, 38, 58
1, 177018, Note_on_c, 0, 26, 51
1, 177025, Note_on_c, 0, 44, 64
1, 177061, Note_off_c, 0, 33, 57
1, 177076, Note_off_c, 0, 44, 61
1, 177096, Note_on_c, 0, 45, 50
1, 177102, Note_on_c, 0, 38, 48
1, 177108, Note_on_c, 0, 48, 53
1, 177141, Note_off_c, 0, 45, 62
1, 177151, Note_off_c, 0, 48, 58
1, 177189, Note_off_c, 0, 38, 58
1, 177219, Note_on_c, 0, 33, 49
1, 177239, Note_on_c, 0, 45, 60
1, 177292, Note_off_c, 0, 45, 62
1, 177318, Note_off_c, 0, 26, 47
1, 177332, Note_on_c, 0, 49, 53
1, 177338, Note_on_c, 0, 38, 47
1, 177342, Note_on_c, 0, 46, 28
1, 177374, Note_off_c, 0, 46, 52
1, 177374, Note_off_c, 0, 49, 65
1, 177399, Note_off_c, 0, 38, 59
1, 177441, Note_on_c, 0, 26, 47
1, 177454, Note_on_c, 0, 46, 64
1, 177484, Note_off_c, 0, 33, 61
1, 177502, Note_off_c, 0, 46, 59
1, 177520, Note_on_c, 0, 38, 48
1, 177538, Note_on_c, 0, 47, 36
1, 177544, Note_on_c, 0, 50, 52
1, 177565, Note_off_c, 0, 47, 54
1, 177577, Note_off_c, 0, 50, 65
1, 177612, Note_off_c, 0, 38, 56
1, 177632, Note_on_c, 0, 33, 54
1, 177654, Note_on_c, 0, 47, 58
1, 177711, Note_off_c, 0, 47, 61
1, 177747, Note_on_c, 0, 38, 51
1, 177747, Note_off_c, 0, 26, 55
1, 177752, Note_on_c, 0, 48, 37
1, 177762, Note_on_c, 0, 51, 56
1, 177780, Note_off_c, 0, 48, 55
1, 177796, Note_off_c, 0, 51, 65
1, 177817, Note_off_c, 0, 38, 60
1, 177857, Note_on_c, 0, 26, 58
1, 177863, Note_on_c, 0, 48, 62
1, 177925, Note_off_c, 0, 48, 62
1, 177926, Note_off_c, 0, 33, 41
1, 177942, Note_on_c, 0, 38, 55
1, 177951, Note_off_c, 0, 26, 61
1, 177971, Note_on_c, 0, 52, 52
1, 177982, Note_on_c, 0, 49, 22
1, 178006, Note_off_c, 0, 52, 64
1, 178009, Note_off_c, 0, 49, 48
1, 178024, Note_off_c, 0, 38, 53
1, 178049, Note_on_c, 0, 33, 62
1, 178072, Note_on_c, 0, 50, 66
1, 178098, Note_off_c, 0, 33, 62
1, 178117, Note_off_c, 0, 50, 63
1, 178160, Note_on_c, 0, 54, 55
1, 178163, Note_on_c, 0, 51, 21
1, 178171, Note_on_c, 0, 38, 55
1, 178188, Note_off_c, 0, 51, 49
1, 178208, Note_off_c, 0, 54, 63
1, 178209, Note_off_c, 0, 38, 62
1, 178261, Note_on_c, 0, 52, 62
1, 178272, Note_on_c, 0, 26, 64
1, 178309, Note_off_c, 0, 52, 63
1, 178321, Note_off_c, 0, 26, 62
1, 178337, Note_on_c, 0, 53, 50
1, 178370, Note_off_c, 0, 53, 64
1, 178379, Note_on_c, 0, 56, 51
1, 178394, Note_on_c, 0, 38, 43
1, 178417, Note_off_c, 0, 56, 64
1, 178449, Note_off_c, 0, 38, 60
1, 178465, Note_on_c, 0, 54, 69
1, 178468, Note_on_c, 0, 33, 66
1, 178514, Note_off_c, 0, 54, 61
1, 178527, Note_off_c, 0, 33, 58
1, 178536, Note_on_c, 0, 55, 47
1, 178567, Note_off_c, 0, 55, 63
1, 178568, Note_on_c, 0, 58, 60
1, 178571, Note_on_c, 0, 38, 50
1, 178605, Note_off_c, 0, 58, 65
1, 178622, Note_off_c, 0, 38, 61
1, 178660, Note_on_c, 0, 26, 73
1, 178662, Note_on_c, 0, 56, 70
1, 178720, Note_off_c, 0, 26, 61
1, 178722, Note_off_c, 0, 56, 62
1, 178739, Note_on_c, 0, 57, 41
1, 178766, Note_off_c, 0, 57, 61
1, 178772, Note_on_c, 0, 60, 59
1, 178801, Note_on_c, 0, 38, 41
1, 178811, Note_off_c, 0, 60, 67
1, 178863, Note_off_c, 0, 38, 60
1, 178865, Note_on_c, 0, 58, 73
1, 178874, Note_on_c, 0, 33, 66
1, 178921, Note_off_c, 0, 58, 63
1, 178935, Note_on_c, 0, 59, 46
1, 178946, Note_off_c, 0, 33, 62
1, 178961, Note_off_c, 0, 59, 60
1, 178976, Note_on_c, 0, 62, 55
1, 178978, Note_on_c, 0, 38, 55
1, 179007, Note_off_c, 0, 62, 65
1, 179026, Note_off_c, 0, 38, 62
1, 179064, Note_on_c, 0, 26, 74
1, 179073, Note_on_c, 0, 60, 74
1, 179114, Note_off_c, 0, 26, 62
1, 179132, Note_off_c, 0, 60, 64
1, 179172, Note_on_c, 0, 38, 53
1, 179175, Note_on_c, 0, 64, 57
1, 179176, Note_on_c, 0, 61, 30
1, 179208, Note_off_c, 0, 61, 46
1, 179211, Note_off_c, 0, 64, 64
1, 179243, Note_off_c, 0, 38, 50
1, 179256, Note_on_c, 0, 33, 70
1, 179271, Note_on_c, 0, 62, 76
1, 179333, Note_off_c, 0, 62, 64
1, 179356, Note_off_c, 0, 33, 55
1, 179357, Note_on_c, 0, 38, 57
1, 179359, Note_on_c, 0, 66, 64
1, 179402, Note_off_c, 0, 66, 61
1, 179404, Note_off_c, 0, 38, 58
1, 179463, Note_on_c, 0, 26, 64
1, 179463, Note_on_c, 0, 64, 81
1, 179522, Note_off_c, 0, 26, 61
1, 179531, Note_off_c, 0, 64, 64
1, 179546, Note_on_c, 0, 38, 58
1, 179555, Note_on_c, 0, 65, 59
1, 179570, Control_c, 0, 67, 101
1, 179573, Note_on_c, 0, 68, 66
1, 179583, Note_off_c, 0, 38, 63
1, 179585, Control_c, 0, 67, 44
1, 179586, Note_off_c, 0, 65, 63
1, 179600, Control_c, 0, 67, 0
1, 179602, Note_off_c, 0, 68, 66
1, 179658, Note_on_c, 0, 38, 72
1, 179660, Note_on_c, 0, 65, 76
1, 179722, Note_off_c, 0, 38, 63
1, 179726, Note_off_c, 0, 65, 63
1, 179744, Note_on_c, 0, 26, 69
1, 179744, Note_on_c, 0, 66, 58
1, 179750, Note_on_c, 0, 69, 70
1, 179774, Note_off_c, 0, 26, 62
1, 179781, Note_off_c, 0, 66, 64
1, 179781, Note_off_c, 0, 69, 66
1, 179836, Control_c, 0, 64, 17
1, 179849, Note_on_c, 0, 66, 82
1, 179851, Control_c, 0, 64, 42
1, 179856, Note_on_c, 0, 21, 83
1, 179866, Control_c, 0, 64, 58
1, 179881, Control_c, 0, 64, 65
1, 179896, Control_c, 0, 64, 71
1, 179911, Control_c, 0, 64, 78
1, 179922, Note_off_c, 0, 21, 63
1, 179926, Control_c, 0, 64, 86
1, 179926, Note_off_c, 0, 66, 59
1, 179941, Control_c, 0, 64, 89
1, 179941, Note_on_c, 0, 70, 68
1, 179943, Note_on_c, 0, 67, 50
1, 179967, Note_off_c, 0, 67, 59
1, 179971, Control_c, 0, 64, 88
1, 179976, Note_off_c, 0, 70, 65
1, 179985, Control_c, 0, 64, 86
1, 180000, Control_c, 0, 64, 82
1, 180015, Control_c, 0, 64, 74
1, 180030, Control_c, 0, 64, 66
1, 180038, Note_on_c, 0, 67, 77
1, 180045, Note_on_c, 0, 38, 66
1, 180045, Control_c, 0, 64, 55
1, 180060, Control_c, 0, 64, 41
1, 180075, Control_c, 0, 64, 32
1, 180090, Control_c, 0, 64, 31
1, 180097, Note_on_c, 0, 30, 18
1, 180100, Note_off_c, 0, 38, 60
1, 180104, Control_c, 0, 64, 30
1, 180109, Note_off_c, 0, 67, 64
1, 180119, Control_c, 0, 64, 25
1, 180126, Note_on_c, 0, 68, 60
1, 180134, Control_c, 0, 64, 22
1, 180135, Note_on_c, 0, 71, 74
1, 180141, Note_off_c, 0, 30, 42
1, 180161, Note_on_c, 0, 26, 10
1, 180161, Note_off_c, 0, 68, 65
1, 180170, Note_off_c, 0, 71, 65
1, 180178, Control_c, 0, 64, 26
1, 180193, Control_c, 0, 64, 35
1, 180215, Control_c, 0, 64, 51
1, 180222, Note_off_c, 0, 26, 26
1, 180230, Control_c, 0, 64, 62
1, 180242, Note_on_c, 0, 21, 88
1, 180242, Note_on_c, 0, 68, 90
1, 180245, Control_c, 0, 64, 69
1, 180260, Control_c, 0, 64, 80
1, 180275, Control_c, 0, 64, 99
1, 180290, Control_c, 0, 64, 127
1, 180316, Note_off_c, 0, 21, 62
1, 180316, Note_off_c, 0, 68, 60
1, 180331, Note_on_c, 0, 72, 77
1, 180343, Note_on_c, 0, 69, 49
1, 180367, Note_off_c, 0, 69, 58
1, 180381, Note_off_c, 0, 72, 66
1, 180423, Control_c, 0, 64, 110
1, 180427, Note_on_c, 0, 38, 77
1, 180427, Note_on_c, 0, 69, 93
1, 180438, Control_c, 0, 64, 88
1, 180453, Control_c, 0, 64, 73
1, 180467, Control_c, 0, 64, 63
1, 180482, Control_c, 0, 64, 41
1, 180489, Note_off_c, 0, 38, 61
1, 180497, Note_off_c, 0, 69, 65
1, 180497, Control_c, 0, 64, 0
1, 180502, Note_on_c, 0, 70, 79
1, 180514, Note_on_c, 0, 73, 85
1, 180533, Note_off_c, 0, 70, 64
1, 180561, Note_off_c, 0, 73, 65
1, 180585, Control_c, 0, 64, 49
1, 180600, Control_c, 0, 64, 66
1, 180607, Note_on_c, 0, 70, 93
1, 180608, Note_on_c, 0, 21, 97
1, 180615, Control_c, 0, 64, 84
1, 180629, Control_c, 0, 64, 127
1, 180670, Note_off_c, 0, 70, 63
1, 180690, Note_off_c, 0, 21, 62
1, 180692, Note_on_c, 0, 71, 56
1, 180706, Note_on_c, 0, 74, 78
1, 180723, Note_off_c, 0, 71, 66
1, 180730, Poly_aftertouch_c, 0, 23, 0
1, 180749, Note_off_c, 0, 74, 64
1, 180788, Note_on_c, 0, 38, 85
1, 180794, Control_c, 0, 64, 90
1, 180796, Note_on_c, 0, 71, 92
1, 180808, Control_c, 0, 64, 71
1, 180823, Note_on_c, 0, 30, 42
1, 180823, Control_c, 0, 64, 63
1, 180838, Control_c, 0, 64, 62
1, 180851, Note_off_c, 0, 38, 61
1, 180853, Control_c, 0, 64, 66
1, 180868, Note_off_c, 0, 30, 58
1, 180868, Control_c, 0, 64, 74
1, 180871, Note_off_c, 0, 71, 64
1, 180874, Note_on_c, 0, 72, 76
1, 180880, Note_on_c, 0, 75, 90
1, 180883, Control_c, 0, 64, 108
1, 180896, Note_off_c, 0, 72, 71
1, 180898, Control_c, 0, 64, 127
1, 180921, Note_off_c, 0, 75, 66
1, 180942, Control_c, 0, 64, 111
1, 180964, Control_c, 0, 64, 70
1, 180977, Note_on_c, 0, 72, 98
1, 180978, Note_on_c, 0, 21, 96
1, 180979, Control_c, 0, 64, 54
1, 180994, Control_c, 0, 64, 52
1, 181008, Control_c, 0, 64, 60
1, 181023, Control_c, 0, 64, 70
1, 181038, Control_c, 0, 64, 102
1, 181053, Control_c, 0, 64, 127
1, 181055, Note_on_c, 0, 73, 80
1, 181056, Note_off_c, 0, 72, 65
1, 181062, Note_off_c, 0, 21, 62
1, 181063, Note_on_c, 0, 76, 84
1, 181082, Note_off_c, 0, 73, 67
1, 181106, Note_off_c, 0, 76, 66
1, 181112, Control_c, 0, 64, 106
1, 181127, Control_c, 0, 64, 68
1, 181142, Control_c, 0, 64, 0
1, 181155, Note_on_c, 0, 74, 97
1, 181157, Note_on_c, 0, 38, 89
1, 181172, Control_c, 0, 64, 33
1, 181173, Note_on_c, 0, 26, 54
1, 181177, Note_on_c, 0, 24, 67
1, 181187, Control_c, 0, 64, 62
1, 181202, Control_c, 0, 64, 91
1, 181205, Note_off_c, 0, 38, 61
1, 181215, Note_off_c, 0, 24, 57
1, 181217, Control_c, 0, 64, 127
1, 181223, Note_off_c, 0, 74, 66
1, 181231, Note_off_c, 0, 26, 60
1, 181233, Note_on_c, 0, 75, 74
1, 181242, Note_on_c, 0, 78, 85
1, 181258, Note_off_c, 0, 75, 68
1, 181284, Note_off_c, 0, 78, 67
1, 181324, Note_on_c, 0, 33, 96
1, 181327, Note_on_c, 0, 21, 92
1, 181332, Note_on_c, 0, 76, 98
1, 181378, Note_off_c, 0, 21, 62
1, 181380, Note_off_c, 0, 33, 58
1, 181392, Note_off_c, 0, 76, 66
1, 181397, Note_on_c, 0, 77, 83
1, 181424, Note_on_c, 0, 80, 81
1, 181433, Note_off_c, 0, 77, 64
1, 181470, Note_off_c, 0, 80, 64
1, 181495, Note_on_c, 0, 38, 92
1, 181500, Note_on_c, 0, 26, 90
1, 181507, Note_on_c, 0, 78, 100
1, 181537, Note_off_c, 0, 38, 64
1, 181542, Note_on_c, 0, 77, 54
1, 181553, Note_off_c, 0, 26, 62
1, 181561, Note_on_c, 0, 79, 51
1, 181562, Note_off_c, 0, 77, 61
1, 181586, Note_on_c, 0, 82, 85
1, 181586, Note_off_c, 0, 78, 62
1, 181601, Note_off_c, 0, 79, 68
1, 181617, Note_on_c, 0, 81, 41
1, 181631, Note_off_c, 0, 82, 67
1, 181642, Note_off_c, 0, 81, 59
1, 181662, Note_on_c, 0, 33, 97
1, 181666, Note_on_c, 0, 21, 92
1, 181679, Note_on_c, 0, 80, 97
1, 181689, Note_on_c, 0, 78, 85
1, 181716, Note_off_c, 0, 21, 64
1, 181726, Note_off_c, 0, 33, 62
1, 181737, Note_off_c, 0, 78, 62
1, 181762, Note_off_c, 0, 80, 63
1, 181762, Note_on_c, 0, 81, 55
1, 181774, Note_on_c, 0, 84, 88
1, 181782, Note_off_c, 0, 81, 62
1, 181789, Note_on_c, 0, 85, 58
1, 181807, Note_off_c, 0, 85, 62
1, 181810, Note_off_c, 0, 84, 67
1, 181843, Note_on_c, 0, 38, 93
1, 181848, Note_on_c, 0, 26, 83
1, 181857, Note_on_c, 0, 82, 96
1, 181862, Note_on_c, 0, 80, 85
1, 181865, Note_on_c, 0, 30, 60
1, 181886, Note_off_c, 0, 38, 61
1, 181897, Note_off_c, 0, 30, 56
1, 181898, Note_off_c, 0, 26, 63
1, 181910, Note_off_c, 0, 80, 63
1, 181927, Note_on_c, 0, 83, 61
1, 181932, Note_on_c, 0, 86, 82
1, 181945, Note_off_c, 0, 82, 62
1, 181953, Note_off_c, 0, 83, 66
1, 181977, Note_off_c, 0, 86, 67
1, 182022, Note_on_c, 0, 84, 107
1, 182024, Note_on_c, 0, 33, 95
1, 182027, Note_on_c, 0, 21, 92
1, 182065, Note_off_c, 0, 21, 64
1, 182067, Note_off_c, 0, 33, 64
1, 182100, Note_on_c, 0, 88, 88
1, 182101, Note_on_c, 0, 85, 85
1, 182109, Note_off_c, 0, 84, 63
1, 182135, Note_off_c, 0, 85, 64
1, 182142, Note_off_c, 0, 88, 68
1, 182196, Note_on_c, 0, 38, 93
1, 182197, Note_on_c, 0, 86, 100
1, 182200, Note_on_c, 0, 26, 91
1, 182235, Note_off_c, 0, 38, 64
1, 182248, Note_off_c, 0, 26, 63
1, 182279, Note_on_c, 0, 87, 93
1, 182279, Note_on_c, 0, 90, 92
1, 182291, Note_off_c, 0, 86, 36
1, 182318, Note_off_c, 0, 87, 65
1, 182367, Note_on_c, 0, 33, 95
1, 182369, Note_on_c, 0, 88, 34
1, 182370, Note_off_c, 0, 90, 63
1, 182370, Note_on_c, 0, 21, 89
1, 182385, Note_on_c, 0, 23, 72
1, 182406, Note_off_c, 0, 21, 65
1, 182409, Note_off_c, 0, 33, 66
1, 182425, Note_off_c, 0, 23, 60
1, 182488, Note_on_c, 0, 89, 43
1, 182489, Note_off_c, 0, 89, 127
1, 182489, Note_on_c, 0, 90, 76
1, 182494, Note_on_c, 0, 91, 72
1, 182510, Note_off_c, 0, 90, 70
1, 182513, Note_off_c, 0, 88, 62
1, 182519, Note_off_c, 0, 91, 67
1, 182522, Control_c, 0, 64, 104
1, 182537, Control_c, 0, 64, 59
1, 182552, Control_c, 0, 64, 11
1, 182567, Control_c, 0, 64, 52
1, 182578, Note_on_c, 0, 42, 83
1, 182579, Note_on_c, 0, 46, 91
1, 182581, Control_c, 0, 64, 77
1, 182591, Note_on_c, 0, 84, 99
1, 182596, Control_c, 0, 64, 127
1, 182597, Note_on_c, 0, 96, 84
1, 182600, Note_on_c, 0, 98, 90
1, 182600, Note_on_c, 0, 86, 82
1, 182607, Note_on_c, 0, 94, 66
1, 182615, Note_off_c, 0, 86, 68
1, 182623, Note_off_c, 0, 84, 68
1, 182624, Note_off_c, 0, 94, 43
1, 182627, Note_off_c, 0, 96, 66
1, 182630, Note_off_c, 0, 98, 66
1, 182689, Note_on_c, 0, 50, 86
1, 182691, Note_off_c, 0, 42, 62
1, 182696, Note_on_c, 0, 90, 106
1, 182697, Note_on_c, 0, 38, 77
1, 182698, Note_on_c, 0, 102, 103
1, 182698, Note_off_c, 0, 46, 62
1, 182725, Note_off_c, 0, 90, 61
1, 182730, Note_on_c, 0, 103, 40
1, 182731, Note_off_c, 0, 103, 127
1, 182734, Note_off_c, 0, 102, 62
1, 182782, Note_on_c, 0, 46, 89
1, 182786, Note_on_c, 0, 42, 79
1, 182789, Note_on_c, 0, 106, 110
1, 182791, Note_on_c, 0, 94, 111
1, 182796, Note_off_c, 0, 38, 63
1, 182805, Note_off_c, 0, 50, 64
1, 182826, Note_off_c, 0, 94, 63
1, 182829, Note_off_c, 0, 106, 65
1, 182849, Note_off_c, 0, 42, 60
1, 182874, Note_on_c, 0, 50, 86
1, 182875, Note_off_c, 0, 46, 61
1, 182882, Note_on_c, 0, 97, 78
1, 182882, Note_on_c, 0, 106, 75
1, 182883, Note_on_c, 0, 38, 78
1, 182895, Note_on_c, 0, 108, 54
1, 182895, Note_off_c, 0, 97, 69
1, 182905, Note_on_c, 0, 94, 48
1, 182906, Note_off_c, 0, 94, 127
1, 182912, Note_off_c, 0, 106, 53
1, 182913, Note_on_c, 0, 107, 41
1, 182918, Note_off_c, 0, 108, 59
1, 182945, Note_off_c, 0, 107, 35
1, 182960, Note_on_c, 0, 42, 85
1, 182968, Note_on_c, 0, 46, 84
1, 182975, Note_off_c, 0, 38, 59
1, 182978, Note_on_c, 0, 90, 90
1, 182979, Note_on_c, 0, 102, 103
1, 182988, Note_on_c, 0, 92, 84
1, 182998, Note_off_c, 0, 50, 63
1, 182998, Note_off_c, 0, 102, 69
1, 183000, Note_off_c, 0, 90, 65
1, 183000, Note_off_c, 0, 92, 70
1, 183056, Note_off_c, 0, 42, 57
1, 183057, Note_on_c, 0, 50, 77
1, 183061, Note_on_c, 0, 106, 97
1, 183061, Note_off_c, 0, 46, 63
1, 183071, Note_on_c, 0, 94, 88
1, 183071, Note_on_c, 0, 38, 79
1, 183090, Note_off_c, 0, 94, 69
1, 183098, Note_off_c, 0, 106, 65
1, 183148, Note_on_c, 0, 42, 84
1, 183148, Note_on_c, 0, 46, 88
1, 183159, Note_off_c, 0, 38, 61
1, 183168, Note_on_c, 0, 86, 85
1, 183169, Note_off_c, 0, 50, 63
1, 183173, Note_on_c, 0, 98, 82
1, 183173, Note_on_c, 0, 100, 87
1, 183174, Note_on_c, 0, 88, 84
1, 183190, Note_off_c, 0, 86, 70
1, 183199, Note_off_c, 0, 88, 72
1, 183203, Note_off_c, 0, 100, 68
1, 183214, Note_off_c, 0, 98, 63
1, 183251, Note_off_c, 0, 42, 61
1, 183257, Note_off_c, 0, 46, 60
1, 183259, Note_on_c, 0, 50, 83
1, 183262, Note_on_c, 0, 98, 87
1, 183265, Note_on_c, 0, 38, 81
1, 183265, Note_on_c, 0, 86, 101
1, 183283, Note_on_c, 0, 96, 63
1, 183296, Note_off_c, 0, 86, 64
1, 183300, Note_on_c, 0, 84, 42
1, 183301, Note_off_c, 0, 84, 127
1, 183301, Note_off_c, 0, 96, 64
1, 183302, Note_off_c, 0, 98, 68
1, 183349, Note_on_c, 0, 42, 84
1, 183351, Note_on_c, 0, 46, 91
1, 183352, Note_on_c, 0, 98, 86
1, 183359, Note_on_c, 0, 86, 88
1, 183359, Note_off_c, 0, 38, 58
1, 183374, Note_on_c, 0, 100, 60
1, 183375, Note_off_c, 0, 100, 127
1, 183375, Note_off_c, 0, 50, 63
1, 183379, Note_off_c, 0, 86, 71
1, 183394, Note_off_c, 0, 98, 67
1, 183397, Note_on_c, 0, 96, 21
1, 183398, Note_off_c, 0, 96, 127
1, 183408, Note_on_c, 0, 97, 3
1, 183409, Note_off_c, 0, 97, 127
1, 183441, Note_off_c, 0, 46, 64
1, 183446, Note_on_c, 0, 50, 78
1, 183450, Note_on_c, 0, 90, 89
1, 183451, Note_on_c, 0, 102, 101
1, 183457, Note_on_c, 0, 38, 83
1, 183457, Note_off_c, 0, 42, 59
1, 183464, Note_on_c, 0, 103, 83
1, 183468, Note_on_c, 0, 92, 76
1, 183471, Note_off_c, 0, 102, 68
1, 183475, Note_off_c, 0, 90, 63
1, 183483, Note_off_c, 0, 92, 45
1, 183487, Note_off_c, 0, 103, 66
1, 183537, Note_on_c, 0, 42, 83
1, 183538, Note_on_c, 0, 106, 107
1, 183539, Note_on_c, 0, 46, 83
1, 183540, Note_on_c, 0, 94, 108
1, 183549, Note_off_c, 0, 38, 59
1, 183561, Note_off_c, 0, 50, 63
1, 183576, Note_off_c, 0, 94, 64
1, 183578, Note_off_c, 0, 106, 64
1, 183620, Note_on_c, 0, 106, 95
1, 183626, Note_on_c, 0, 94, 91
1, 183631, Note_on_c, 0, 50, 81
1, 183635, Note_off_c, 0, 46, 59
1, 183639, Note_off_c, 0, 42, 57
1, 183646, Note_on_c, 0, 38, 82
1, 183656, Note_off_c, 0, 94, 63
1, 183666, Note_off_c, 0, 106, 64
1, 183719, Note_on_c, 0, 90, 97
1, 183722, Note_on_c, 0, 42, 88
1, 183722, Note_on_c, 0, 46, 89
1, 183731, Note_off_c, 0, 38, 59
1, 183736, Note_on_c, 0, 99, 71
1, 183737, Note_off_c, 0, 99, 127
1, 183748, Note_off_c, 0, 50, 63
1, 183751, Note_off_c, 0, 90, 67
1, 183756, Note_on_c, 0, 102, 37
1, 183758, Note_on_c, 0, 101, 45
1, 183766, Note_off_c, 0, 102, 41
1, 183786, Note_off_c, 0, 101, 39
1, 183815, Note_on_c, 0, 50, 85
1, 183820, Note_on_c, 0, 106, 89
1, 183823, Note_on_c, 0, 38, 84
1, 183828, Note_on_c, 0, 94, 85
1, 183835, Note_off_c, 0, 42, 62
1, 183841, Note_off_c, 0, 106, 72
1, 183841, Note_off_c, 0, 46, 63
1, 183847, Note_off_c, 0, 94, 71
1, 183911, Note_on_c, 0, 88, 100
1, 183914, Note_on_c, 0, 46, 81
1, 183917, Note_on_c, 0, 100, 102
1, 183925, Note_on_c, 0, 42, 82
1, 183929, Note_on_c, 0, 97, 74
1, 183931, Note_off_c, 0, 50, 63
1, 183953, Note_off_c, 0, 88, 68
1, 183957, Note_on_c, 0, 86, 42
1, 183958, Note_off_c, 0, 86, 127
1, 183961, Note_off_c, 0, 97, 64
1, 183966, Note_off_c, 0, 100, 66
1, 184018, Note_on_c, 0, 100, 91
1, 184023, Note_on_c, 0, 86, 98
1, 184024, Note_on_c, 0, 98, 70
1, 184026, Note_off_c, 0, 42, 63
1, 184028, Note_off_c, 0, 46, 64
1, 184036, Note_off_c, 0, 100, 73
1, 184046, Note_off_c, 0, 86, 65
1, 184057, Note_off_c, 0, 98, 68
1, 184067, Note_off_c, 0, 38, 61
1, 184070, Note_on_c, 0, 50, 43
1, 184079, Control_c, 0, 64, 101
1, 184094, Control_c, 0, 64, 63
1, 184104, Note_on_c, 0, 98, 96
1, 184108, Note_on_c, 0, 86, 99
1, 184109, Control_c, 0, 64, 0
1, 184109, Note_on_c, 0, 44, 100
1, 184124, Control_c, 0, 64, 45
1, 184139, Control_c, 0, 64, 65
1, 184140, Note_off_c, 0, 86, 68
1, 184142, Note_off_c, 0, 50, 64
1, 184146, Note_off_c, 0, 98, 69
1, 184153, Control_c, 0, 64, 127
1, 184210, Note_on_c, 0, 90, 96
1, 184210, Note_off_c, 0, 44, 57
1, 184211, Note_on_c, 0, 50, 88
1, 184212, Note_on_c, 0, 102, 109
1, 184221, Note_on_c, 0, 38, 75
1, 184240, Note_off_c, 0, 90, 62
1, 184240, Note_off_c, 0, 102, 63
1, 184303, Note_on_c, 0, 44, 93
1, 184303, Note_on_c, 0, 106, 104
1, 184306, Note_on_c, 0, 94, 105
1, 184316, Note_off_c, 0, 38, 60
1, 184324, Note_on_c, 0, 104, 65
1, 184339, Note_off_c, 0, 50, 62
1, 184346, Note_off_c, 0, 104, 41
1, 184346, Note_off_c, 0, 106, 64
1, 184350, Note_off_c, 0, 94, 63
1, 184385, Note_on_c, 0, 106, 92
1, 184389, Note_on_c, 0, 94, 91
1, 184396, Note_off_c, 0, 44, 61
1, 184406, Note_on_c, 0, 38, 85
1, 184406, Note_on_c, 0, 50, 85
1, 184430, Note_off_c, 0, 106, 64
1, 184431, Note_off_c, 0, 94, 64
1, 184497, Note_on_c, 0, 44, 93
1, 184497, Note_on_c, 0, 86, 100
1, 184504, Note_on_c, 0, 98, 102
1, 184507, Note_off_c, 0, 38, 61
1, 184524, Note_off_c, 0, 50, 63
1, 184532, Note_off_c, 0, 86, 69
1, 184539, Note_off_c, 0, 98, 69
1, 184599, Note_on_c, 0, 50, 88
1, 184601, Note_on_c, 0, 38, 83
1, 184604, Note_on_c, 0, 92, 99
1, 184605, Note_on_c, 0, 104, 107
1, 184614, Note_on_c, 0, 102, 78
1, 184619, Note_on_c, 0, 90, 76
1, 184620, Note_off_c, 0, 44, 63
1, 184628, Note_off_c, 0, 104, 64
1, 184631, Note_off_c, 0, 90, 70
1, 184636, Note_off_c, 0, 92, 63
1, 184642, Note_off_c, 0, 102, 65
1, 184705, Note_on_c, 0, 94, 103
1, 184707, Note_on_c, 0, 106, 114
1, 184709, Note_on_c, 0, 44, 81
1, 184740, Note_on_c, 0, 104, 46
1, 184741, Note_off_c, 0, 104, 127
1, 184745, Note_on_c, 0, 42, 26
1, 184746, Note_off_c, 0, 106, 64
1, 184751, Note_off_c, 0, 94, 63
1, 184756, Note_off_c, 0, 50, 59
1, 184764, Note_off_c, 0, 44, 62
1, 184777, Note_off_c, 0, 42, 55
1, 184795, Note_on_c, 0, 94, 103
1, 184798, Note_on_c, 0, 106, 103
1, 184829, Note_on_c, 0, 44, 55
1, 184839, Note_off_c, 0, 106, 64
1, 184848, Note_off_c, 0, 44, 65
1, 184849, Note_off_c, 0, 94, 66
1, 184852, Note_off_c, 0, 38, 64
1, 184871, Poly_aftertouch_c, 0, 50, 127
1, 184893, Poly_aftertouch_c, 0, 50, 0
1, 184902, Control_c, 0, 64, 75
1, 184912, Poly_aftertouch_c, 0, 41, 0
1, 184917, Control_c, 0, 64, 62
1, 184928, Note_on_c, 0, 38, 106
1, 184932, Control_c, 0, 64, 82
1, 184947, Control_c, 0, 64, 127
1, 184963, Note_off_c, 0, 38, 65
1, 184968, Poly_aftertouch_c, 0, 44, 0
1, 185058, Note_on_c, 0, 24, 109
1, 185060, Note_on_c, 0, 26, 96
1, 185084, Note_off_c, 0, 24, 67
1, 185087, Note_off_c, 0, 26, 67
1, 185120, Note_on_c, 0, 41, 54
1, 185125, Control_c, 0, 64, 101
1, 185132, Note_on_c, 0, 43, 69
1, 185140, Control_c, 0, 64, 88
1, 185147, Note_off_c, 0, 41, 55
1, 185151, Note_on_c, 0, 45, 74
1, 185155, Control_c, 0, 64, 113
1, 185155, Note_off_c, 0, 43, 61
1, 185169, Control_c, 0, 64, 127
1, 185172, Note_on_c, 0, 47, 72
1, 185179, Note_off_c, 0, 45, 63
1, 185192, Note_off_c, 0, 47, 62
1, 185194, Note_on_c, 0, 48, 69
1, 185212, Note_on_c, 0, 50, 72
1, 185213, Poly_aftertouch_c, 0, 26, 127
1, 185215, Note_off_c, 0, 48, 62
1, 185224, Note_on_c, 0, 52, 78
1, 185234, Note_off_c, 0, 50, 60
1, 185241, Note_on_c, 0, 53, 83
1, 185242, Note_on_c, 0, 45, 87
1, 185245, Note_off_c, 0, 52, 66
1, 185247, Poly_aftertouch_c, 0, 26, 0
1, 185255, Note_on_c, 0, 55, 84
1, 185267, Note_off_c, 0, 53, 68
1, 185271, Note_on_c, 0, 57, 83
1, 185278, Note_off_c, 0, 55, 68
1, 185288, Note_on_c, 0, 59, 87
1, 185292, Note_off_c, 0, 57, 68
1, 185304, Note_on_c, 0, 40, 24
1, 185307, Note_on_c, 0, 60, 82
1, 185307, Note_off_c, 0, 45, 61
1, 185307, Note_off_c, 0, 59, 68
1, 185325, Note_on_c, 0, 62, 85
1, 185326, Note_off_c, 0, 60, 69
1, 185340, Note_on_c, 0, 38, 80
1, 185343, Note_on_c, 0, 64, 83
1, 185346, Note_off_c, 0, 62, 69
1, 185362, Note_on_c, 0, 65, 82
1, 185362, Note_off_c, 0, 64, 72
1, 185366, Note_off_c, 0, 40, 45
1, 185379, Note_on_c, 0, 67, 81
1, 185382, Note_off_c, 0, 65, 68
1, 185388, Note_off_c, 0, 38, 61
1, 185397, Note_on_c, 0, 69, 86
1, 185398, Note_off_c, 0, 67, 70
1, 185405, Note_on_c, 0, 59, 2
1, 185415, Note_on_c, 0, 71, 90
1, 185415, Note_off_c, 0, 69, 73
1, 185430, Poly_aftertouch_c, 0, 57, 0
1, 185433, Note_off_c, 0, 71, 74
1, 185435, Note_on_c, 0, 72, 85
1, 185450, Note_off_c, 0, 59, 33
1, 185459, Note_on_c, 0, 74, 84
1, 185459, Note_off_c, 0, 72, 73
1, 185472, Poly_aftertouch_c, 0, 60, 0
1, 185477, Note_on_c, 0, 76, 88
1, 185477, Note_off_c, 0, 74, 72
1, 185477, Note_on_c, 0, 38, 85
1, 185495, Note_on_c, 0, 77, 88
1, 185496, Note_off_c, 0, 76, 72
1, 185510, Note_on_c, 0, 79, 88
1, 185512, Note_off_c, 0, 77, 73
1, 185523, Poly_aftertouch_c, 0, 65, 0
1, 185527, Note_on_c, 0, 81, 91
1, 185528, Note_off_c, 0, 79, 74
1, 185543, Note_on_c, 0, 83, 95
1, 185544, Note_off_c, 0, 81, 74
1, 185561, Note_on_c, 0, 84, 91
1, 185561, Note_off_c, 0, 83, 75
1, 185576, Note_on_c, 0, 31, 68
1, 185576, Note_on_c, 0, 86, 92
1, 185577, Note_off_c, 0, 84, 75
1, 185591, Note_on_c, 0, 88, 92
1, 185594, Note_off_c, 0, 86, 74
1, 185603, Note_off_c, 0, 38, 57
1, 185606, Note_on_c, 0, 89, 96
1, 185607, Note_off_c, 0, 88, 75
1, 185621, Note_on_c, 0, 91, 92
1, 185623, Note_off_c, 0, 89, 73
1, 185636, Note_on_c, 0, 93, 93
1, 185637, Note_off_c, 0, 31, 62
1, 185638, Note_off_c, 0, 91, 74
1, 185651, Note_on_c, 0, 95, 93
1, 185653, Note_off_c, 0, 93, 76
1, 185665, Note_on_c, 0, 96, 91
1, 185668, Note_off_c, 0, 95, 74
1, 185680, Note_on_c, 0, 98, 95
1, 185681, Note_off_c, 0, 96, 75
1, 185695, Note_on_c, 0, 33, 95
1, 185696, Note_on_c, 0, 100, 86
1, 185697, Note_off_c, 0, 98, 72
1, 185714, Note_off_c, 0, 100, 73
1, 185728, Note_on_c, 0, 101, 52
1, 185729, Note_off_c, 0, 101, 127
1, 185796, Note_on_c, 0, 31, 78
1, 185798, Note_off_c, 0, 33, 60
1, 185844, Control_c, 0, 64, 98
1, 185859, Note_off_c, 0, 31, 63
1, 185859, Control_c, 0, 64, 65
1, 185874, Control_c, 0, 64, 0
1, 185904, Control_c, 0, 64, 61
1, 185918, Control_c, 0, 64, 127
1, 185936, Note_on_c, 0, 38, 99
1, 185939, Note_on_c, 0, 26, 91
1, 185939, Note_on_c, 0, 98, 99
1, 185942, Note_on_c, 0, 86, 95
1, 185944, Note_on_c, 0, 84, 91
1, 185954, Note_on_c, 0, 30, 75
1, 185954, Note_off_c, 0, 84, 72
1, 185967, Note_on_c, 0, 96, 49
1, 185968, Note_off_c, 0, 96, 127
1, 185972, Note_on_c, 0, 29, 41
1, 185977, Note_off_c, 0, 38, 65
1, 185979, Note_off_c, 0, 86, 65
1, 185983, Note_on_c, 0, 94, 23
1, 185984, Note_off_c, 0, 94, 127
1, 185984, Note_off_c, 0, 26, 61
1, 185984, Note_off_c, 0, 30, 64
1, 185991, Note_off_c, 0, 98, 69
1, 186015, Note_off_c, 0, 29, 48
1, 186019, Note_on_c, 0, 84, 33
1, 186048, Note_off_c, 0, 84, 46
1, 186296, Control_c, 0, 64, 95
1, 186311, Control_c, 0, 64, 79
1, 186325, Control_c, 0, 64, 70
1, 186340, Control_c, 0, 64, 64
1, 186356, Control_c, 0, 64, 57
1, 186371, Control_c, 0, 64, 51
1, 186386, Control_c, 0, 64, 49
1, 186401, Control_c, 0, 64, 47
1, 186416, Control_c, 0, 64, 45
1, 186430, Control_c, 0, 64, 37
1, 186444, Control_c, 0, 64, 24
1, 186459, Control_c, 0, 64, 0
1, 186534, End_track
0, 0, End_of_file
