0, 0, Header, 0, 1, 384
1, 0, Start_track
1, 0, Title_t, "BeethovenWoO80--Teo             "
1, 0, Text_t, "2011 ePiano Junior Competition"
1, 0, Text_t, "captured in spring and summer 2011"
1, 0, Text_t, "http://www.piano-e-competition.com/"
1, 0, Text_t, "standard-resolution version"
1, 0, Text_t, "File processed for distribution with software designed and coded by Dr. John Q. Walker, founder of Zenph Sound Innovations"
1, 0, Instrument_name_t, "Yamaha Disklavier Pro Mark IV concert grand piano, model DCFIIISM4PRO"
1, 0, Sequencer_specific, 39, 67, 113, 0, 1, 0, 1, 0, 66, 101, 101, 116, 104, 111, 118, 101, 110, 32, 87, 111, 79, 56, 48, 32, 84, 114, 105, 115, 116, 97, 110, 32, 84, 101, 111, 32, 32, 32, 32, 32
1, 0, Sequencer_specific, 6, 67, 113, 0, 0, 0, 69
1, 0, System_exclusive, 21, 67, 113, 126, 21, 0, 2, 2, 2, 5, 12, 8, 4, 14, 1, 4, 15, 8, 13, 6, 6, 247
1, 0, Sequencer_specific, 5, 67, 123, 12, 2, 1
1, 0, Tempo, 512820
1, 0, Time_signature, 4, 2, 24, 8
1, 0, System_exclusive, 5, 126, 127, 9, 1, 247
1, 1, System_exclusive, 8, 67, 16, 76, 0, 0, 126, 0, 247
1, 2, System_exclusive, 8, 67, 16, 76, 8, 9, 7, 1, 247
1, 3, Control_c, 0, 0, 108
1, 3, Control_c, 1, 0, 108
1, 3, Control_c, 2, 0, 0
1, 3, Control_c, 3, 0, 0
1, 3, Control_c, 4, 0, 0
1, 3, Control_c, 5, 0, 0
1, 3, Control_c, 6, 0, 0
1, 3, Control_c, 7, 0, 0
1, 3, Control_c, 8, 0, 0
1, 3, Control_c, 9, 0, 127
1, 3, Control_c, 10, 0, 0
1, 3, Control_c, 11, 0, 0
1, 3, Control_c, 12, 0, 0
1, 3, Control_c, 13, 0, 0
1, 3, Control_c, 14, 0, 0
1, 3, Control_c, 15, 0, 0
1, 4, Control_c, 0, 32, 0
1, 4, Control_c, 1, 32, 0
1, 4, Control_c, 2, 32, 0
1, 4, Control_c, 3, 32, 0
1, 4, Control_c, 4, 32, 0
1, 4, Control_c, 5, 32, 0
1, 4, Control_c, 6, 32, 0
1, 4, Control_c, 7, 32, 0
1, 4, Control_c, 8, 32, 0
1, 4, Control_c, 9, 32, 0
1, 4, Control_c, 10, 32, 0
1, 4, Control_c, 11, 32, 0
1, 4, Control_c, 12, 32, 0
1, 4, Control_c, 13, 32, 0
1, 4, Control_c, 14, 32, 0
1, 4, Control_c, 15, 32, 0
1, 5, Program_c, 0, 0
1, 5, Program_c, 1, 0
1, 5, Program_c, 2, 0
1, 5, Program_c, 3, 0
1, 5, Program_c, 4, 0
1, 5, Program_c, 5, 0
1, 5, Program_c, 6, 0
1, 5, Program_c, 7, 0
1, 5, Program_c, 8, 0
1, 5, Program_c, 9, 0
1, 5, Program_c, 10, 0
1, 5, Program_c, 11, 0
1, 5, Program_c, 12, 0
1, 5, Program_c, 13, 0
1, 5, Program_c, 14, 0
1, 5, Program_c, 15, 0
1, 6, Control_c, 0, 7, 100
1, 6, Control_c, 1, 7, 100
1, 6, Control_c, 2, 7, 100
1, 6, Control_c, 3, 7, 100
1, 6, Control_c, 4, 7, 100
1, 6, Control_c, 5, 7, 100
1, 6, Control_c, 6, 7, 100
1, 6, Control_c, 7, 7, 100
1, 6, Control_c, 8, 7, 100
1, 6, Control_c, 9, 7, 100
1, 6, Control_c, 10, 7, 100
1, 6, Control_c, 11, 7, 100
1, 6, Control_c, 12, 7, 100
1, 6, Control_c, 13, 7, 100
1, 6, Control_c, 14, 7, 100
1, 6, Control_c, 15, 7, 100
1, 379, Note_on_c, 0, 55, 86
1, 381, Note_on_c, 0, 51, 79
1, 386, Note_on_c, 0, 48, 76
1, 820, Note_on_c, 0, 72, 99
1, 1089, Control_c, 0, 64, 36
1, 1104, Control_c, 0, 64, 57
1, 1119, Control_c, 0, 64, 67
1, 1133, Control_c, 0, 64, 85
1, 1149, Control_c, 0, 64, 127
1, 1199, Note_off_c, 0, 48, 63
1, 1201, Note_off_c, 0, 55, 62
1, 1227, Note_off_c, 0, 51, 64
1, 1227, Note_off_c, 0, 72, 62
1, 1554, Note_on_c, 0, 75, 85
1, 1598, Note_off_c, 0, 75, 66
1, 1638, Control_c, 0, 64, 98
1, 1643, Note_on_c, 0, 74, 93
1, 1653, Note_on_c, 0, 55, 74
1, 1653, Control_c, 0, 64, 71
1, 1661, Note_on_c, 0, 50, 65
1, 1665, Note_on_c, 0, 47, 63
1, 1667, Control_c, 0, 64, 47
1, 1682, Control_c, 0, 64, 0
1, 1713, Note_off_c, 0, 74, 64
1, 2088, Note_on_c, 0, 67, 74
1, 2358, Control_c, 0, 64, 43
1, 2372, Control_c, 0, 64, 61
1, 2387, Control_c, 0, 64, 69
1, 2402, Control_c, 0, 64, 82
1, 2417, Control_c, 0, 64, 127
1, 2482, Note_off_c, 0, 47, 60
1, 2495, Note_off_c, 0, 67, 61
1, 2497, Note_off_c, 0, 55, 58
1, 2537, Note_off_c, 0, 50, 52
1, 2638, Note_on_c, 0, 67, 60
1, 2674, Note_off_c, 0, 67, 66
1, 2679, Note_on_c, 0, 69, 79
1, 2727, Note_off_c, 0, 69, 59
1, 2739, Note_on_c, 0, 71, 80
1, 2761, Note_off_c, 0, 71, 71
1, 2808, Note_on_c, 0, 72, 80
1, 2847, Note_on_c, 0, 74, 85
1, 2859, Note_off_c, 0, 72, 64
1, 2907, Note_on_c, 0, 76, 98
1, 2916, Note_on_c, 0, 52, 71
1, 2921, Note_on_c, 0, 55, 78
1, 2926, Note_off_c, 0, 74, 67
1, 2927, Note_on_c, 0, 48, 73
1, 2928, Note_on_c, 0, 46, 71
1, 2942, Control_c, 0, 64, 76
1, 2957, Note_off_c, 0, 76, 67
1, 2957, Control_c, 0, 64, 51
1, 2972, Control_c, 0, 64, 0
1, 3371, Note_on_c, 0, 76, 97
1, 3647, Control_c, 0, 64, 44
1, 3662, Control_c, 0, 64, 61
1, 3677, Control_c, 0, 64, 67
1, 3691, Control_c, 0, 64, 76
1, 3706, Control_c, 0, 64, 93
1, 3721, Control_c, 0, 64, 127
1, 3807, Note_off_c, 0, 55, 60
1, 3821, Note_off_c, 0, 76, 64
1, 3827, Note_off_c, 0, 52, 64
1, 3848, Note_off_c, 0, 48, 61
1, 3863, Note_off_c, 0, 46, 60
1, 4150, Note_on_c, 0, 79, 81
1, 4240, Note_on_c, 0, 77, 92
1, 4243, Note_on_c, 0, 53, 73
1, 4245, Note_on_c, 0, 48, 69
1, 4247, Control_c, 0, 64, 79
1, 4252, Note_on_c, 0, 45, 63
1, 4262, Control_c, 0, 64, 57
1, 4265, Note_off_c, 0, 79, 63
1, 4276, Control_c, 0, 64, 0
1, 4311, Note_off_c, 0, 77, 66
1, 4705, Note_on_c, 0, 65, 80
1, 4834, Control_c, 0, 64, 35
1, 4848, Control_c, 0, 64, 54
1, 4863, Control_c, 0, 64, 63
1, 4878, Control_c, 0, 64, 72
1, 4893, Control_c, 0, 64, 88
1, 4907, Control_c, 0, 64, 127
1, 5088, Note_off_c, 0, 65, 61
1, 5113, Note_off_c, 0, 45, 61
1, 5115, Note_off_c, 0, 53, 61
1, 5154, Note_off_c, 0, 48, 61
1, 5351, Note_on_c, 0, 72, 73
1, 5399, Note_on_c, 0, 74, 79
1, 5409, Note_off_c, 0, 72, 64
1, 5458, Note_on_c, 0, 76, 74
1, 5493, Note_off_c, 0, 74, 64
1, 5511, Note_on_c, 0, 77, 81
1, 5536, Note_off_c, 0, 76, 59
1, 5568, Note_on_c, 0, 78, 104
1, 5589, Note_on_c, 0, 54, 81
1, 5594, Note_off_c, 0, 77, 65
1, 5596, Note_on_c, 0, 44, 71
1, 5596, Note_on_c, 0, 48, 73
1, 5598, Note_on_c, 0, 51, 74
1, 5627, Control_c, 0, 64, 102
1, 5630, Note_off_c, 0, 78, 66
1, 5642, Control_c, 0, 64, 70
1, 5657, Control_c, 0, 64, 39
1, 5671, Control_c, 0, 64, 0
1, 6062, Note_on_c, 0, 66, 81
1, 6146, Control_c, 0, 64, 41
1, 6161, Control_c, 0, 64, 59
1, 6176, Control_c, 0, 64, 68
1, 6198, Control_c, 0, 64, 80
1, 6213, Control_c, 0, 64, 115
1, 6227, Control_c, 0, 64, 127
1, 6372, Note_off_c, 0, 66, 61
1, 6385, Note_off_c, 0, 44, 36
1, 6393, Note_off_c, 0, 54, 63
1, 6408, Note_off_c, 0, 48, 53
1, 6415, Note_off_c, 0, 51, 60
1, 6671, Control_c, 0, 64, 84
1, 6680, Note_on_c, 0, 72, 78
1, 6685, Control_c, 0, 64, 65
1, 6700, Control_c, 0, 64, 36
1, 6715, Control_c, 0, 64, 0
1, 6736, Note_on_c, 0, 74, 76
1, 6737, Note_off_c, 0, 72, 65
1, 6785, Note_on_c, 0, 75, 75
1, 6814, Note_off_c, 0, 74, 64
1, 6831, Note_on_c, 0, 78, 80
1, 6835, Control_c, 0, 64, 45
1, 6838, Note_off_c, 0, 75, 63
1, 6849, Control_c, 0, 64, 65
1, 6864, Control_c, 0, 64, 81
1, 6879, Control_c, 0, 64, 127
1, 6899, Note_on_c, 0, 55, 92
1, 6899, Note_on_c, 0, 79, 100
1, 6901, Note_on_c, 0, 43, 70
1, 6901, Note_on_c, 0, 51, 82
1, 6904, Note_on_c, 0, 48, 75
1, 6941, Note_off_c, 0, 78, 65
1, 6947, Note_off_c, 0, 55, 66
1, 6962, Note_off_c, 0, 43, 61
1, 6973, Note_off_c, 0, 79, 58
1, 6979, Note_off_c, 0, 51, 64
1, 6980, Note_off_c, 0, 48, 63
1, 7020, Control_c, 0, 64, 88
1, 7035, Control_c, 0, 64, 70
1, 7049, Control_c, 0, 64, 57
1, 7064, Control_c, 0, 64, 29
1, 7079, Control_c, 0, 64, 0
1, 7360, Control_c, 0, 64, 21
1, 7375, Control_c, 0, 64, 58
1, 7390, Control_c, 0, 64, 70
1, 7404, Control_c, 0, 64, 95
1, 7419, Control_c, 0, 64, 127
1, 7523, Note_on_c, 0, 68, 101
1, 7525, Note_on_c, 0, 77, 83
1, 7527, Note_on_c, 0, 80, 95
1, 7530, Note_on_c, 0, 48, 84
1, 7530, Note_on_c, 0, 53, 95
1, 7534, Note_on_c, 0, 72, 83
1, 7544, Note_on_c, 0, 44, 75
1, 7545, Note_on_c, 0, 41, 78
1, 8050, Note_off_c, 0, 53, 53
1, 8305, Note_off_c, 0, 48, 58
1, 8454, Note_off_c, 0, 41, 53
1, 8478, Note_off_c, 0, 77, 21
1, 8515, Note_off_c, 0, 80, 35
1, 8521, Note_off_c, 0, 44, 61
1, 8523, Note_off_c, 0, 72, 62
1, 8542, Note_off_c, 0, 68, 58
1, 8562, Control_c, 0, 64, 110
1, 8577, Control_c, 0, 64, 76
1, 8592, Control_c, 0, 64, 55
1, 8607, Control_c, 0, 64, 0
1, 8888, Control_c, 0, 67, 14
1, 8903, Control_c, 0, 67, 27
1, 8910, Note_on_c, 0, 68, 54
1, 8913, Note_on_c, 0, 44, 46
1, 8918, Control_c, 0, 67, 44
1, 8932, Control_c, 0, 67, 59
1, 8947, Control_c, 0, 67, 76
1, 8962, Control_c, 0, 67, 92
1, 8966, Note_off_c, 0, 68, 60
1, 8977, Control_c, 0, 67, 109
1, 8986, Note_off_c, 0, 44, 58
1, 8992, Control_c, 0, 67, 125
1, 9006, Control_c, 0, 67, 127
1, 9009, Note_on_c, 0, 41, 55
1, 9011, Note_on_c, 0, 65, 53
1, 9062, Note_off_c, 0, 65, 61
1, 9069, Note_off_c, 0, 41, 59
1, 9471, Note_on_c, 0, 67, 55
1, 9488, Note_on_c, 0, 43, 42
1, 9552, Note_off_c, 0, 67, 61
1, 9575, Note_off_c, 0, 43, 59
1, 9888, Control_c, 0, 64, 36
1, 9902, Control_c, 0, 64, 50
1, 9917, Control_c, 0, 64, 58
1, 9941, Control_c, 0, 64, 62
1, 9956, Control_c, 0, 64, 65
1, 9971, Control_c, 0, 64, 67
1, 9985, Control_c, 0, 64, 71
1, 9986, Note_on_c, 0, 60, 46
1, 9986, Note_on_c, 0, 48, 43
1, 10000, Control_c, 0, 64, 77
1, 10015, Control_c, 0, 64, 83
1, 10030, Control_c, 0, 64, 90
1, 10045, Control_c, 0, 64, 92
1, 10051, Note_off_c, 0, 48, 53
1, 10054, Note_off_c, 0, 60, 57
1, 10059, Control_c, 0, 64, 92
1, 10074, Control_c, 0, 64, 89
1, 10089, Control_c, 0, 64, 86
1, 10104, Control_c, 0, 64, 82
1, 10119, Control_c, 0, 64, 76
1, 10133, Control_c, 0, 64, 70
1, 10148, Control_c, 0, 64, 64
1, 10163, Control_c, 0, 64, 57
1, 10178, Control_c, 0, 64, 49
1, 10192, Control_c, 0, 64, 45
1, 10207, Control_c, 0, 64, 44
1, 10222, Control_c, 0, 64, 43
1, 10237, Control_c, 0, 64, 40
1, 10252, Control_c, 0, 64, 35
1, 10266, Control_c, 0, 64, 28
1, 10281, Control_c, 0, 64, 24
1, 10296, Control_c, 0, 64, 23
1, 10341, Control_c, 0, 64, 24
1, 10356, Control_c, 0, 64, 29
1, 10370, Control_c, 0, 64, 36
1, 10385, Control_c, 0, 64, 46
1, 10400, Control_c, 0, 64, 55
1, 10415, Control_c, 0, 64, 61
1, 10430, Control_c, 0, 64, 64
1, 10445, Control_c, 0, 64, 66
1, 10459, Control_c, 0, 64, 68
1, 10474, Control_c, 0, 64, 70
1, 10489, Control_c, 0, 64, 72
1, 10498, Note_on_c, 0, 43, 39
1, 10504, Control_c, 0, 64, 74
1, 10519, Control_c, 0, 64, 76
1, 10533, Control_c, 0, 64, 77
1, 10548, Control_c, 0, 64, 76
1, 10563, Control_c, 0, 64, 75
1, 10568, Note_off_c, 0, 43, 56
1, 10578, Control_c, 0, 64, 74
1, 10592, Control_c, 0, 64, 73
1, 10607, Control_c, 0, 64, 71
1, 10622, Control_c, 0, 64, 69
1, 10637, Control_c, 0, 64, 65
1, 10651, Control_c, 0, 64, 61
1, 10666, Control_c, 0, 64, 55
1, 10689, Control_c, 0, 64, 49
1, 10704, Control_c, 0, 64, 46
1, 10718, Control_c, 0, 64, 44
1, 10734, Control_c, 0, 64, 39
1, 10749, Control_c, 0, 64, 33
1, 10764, Control_c, 0, 64, 23
1, 10779, Control_c, 0, 64, 15
1, 10794, Control_c, 0, 64, 11
1, 10808, Control_c, 0, 64, 0
1, 10912, Control_c, 0, 64, 11
1, 10927, Control_c, 0, 64, 22
1, 10942, Control_c, 0, 64, 31
1, 10956, Control_c, 0, 64, 42
1, 10971, Control_c, 0, 64, 52
1, 10986, Control_c, 0, 64, 59
1, 11001, Control_c, 0, 64, 63
1, 11015, Control_c, 0, 64, 65
1, 11030, Control_c, 0, 64, 66
1, 11045, Control_c, 0, 64, 68
1, 11060, Control_c, 0, 64, 70
1, 11075, Control_c, 0, 64, 73
1, 11087, Note_on_c, 0, 36, 32
1, 11089, Control_c, 0, 64, 77
1, 11104, Control_c, 0, 64, 83
1, 11119, Control_c, 0, 64, 90
1, 11134, Control_c, 0, 64, 96
1, 11148, Control_c, 0, 64, 100
1, 11163, Control_c, 0, 64, 102
1, 11178, Note_off_c, 0, 36, 54
1, 11238, Control_c, 0, 64, 102
1, 11253, Control_c, 0, 64, 100
1, 11268, Control_c, 0, 64, 98
1, 11282, Control_c, 0, 64, 95
1, 11297, Control_c, 0, 64, 91
1, 11312, Control_c, 0, 64, 86
1, 11327, Control_c, 0, 64, 80
1, 11341, Control_c, 0, 64, 73
1, 11356, Control_c, 0, 64, 67
1, 11371, Control_c, 0, 64, 62
1, 11386, Control_c, 0, 64, 55
1, 11401, Control_c, 0, 64, 48
1, 11415, Control_c, 0, 64, 43
1, 11438, Control_c, 0, 64, 39
1, 11452, Control_c, 0, 64, 29
1, 11467, Control_c, 0, 64, 0
1, 11587, Control_c, 0, 64, 30
1, 11602, Control_c, 0, 64, 46
1, 11616, Control_c, 0, 64, 57
1, 11631, Control_c, 0, 64, 63
1, 11646, Control_c, 0, 64, 65
1, 11661, Control_c, 0, 64, 67
1, 11676, Control_c, 0, 64, 68
1, 11691, Control_c, 0, 64, 69
1, 11705, Control_c, 0, 64, 71
1, 11720, Control_c, 0, 64, 72
1, 11722, Note_on_c, 0, 55, 51
1, 11735, Control_c, 0, 64, 74
1, 11750, Control_c, 0, 64, 74
1, 11760, Note_off_c, 0, 55, 65
1, 11779, Control_c, 0, 64, 74
1, 11794, Control_c, 0, 64, 73
1, 11809, Control_c, 0, 64, 73
1, 11824, Control_c, 0, 64, 72
1, 11825, Note_on_c, 0, 60, 53
1, 11853, Control_c, 0, 64, 71
1, 11868, Control_c, 0, 64, 71
1, 11873, Note_off_c, 0, 60, 60
1, 11883, Control_c, 0, 64, 70
1, 11898, Control_c, 0, 64, 68
1, 11912, Control_c, 0, 64, 66
1, 11923, Note_on_c, 0, 63, 56
1, 11927, Control_c, 0, 64, 64
1, 11942, Control_c, 0, 64, 60
1, 11951, Note_off_c, 0, 63, 66
1, 11956, Control_c, 0, 64, 55
1, 11971, Control_c, 0, 64, 50
1, 11986, Control_c, 0, 64, 46
1, 12001, Control_c, 0, 64, 44
1, 12016, Control_c, 0, 64, 42
1, 12028, Note_on_c, 0, 67, 58
1, 12031, Control_c, 0, 64, 37
1, 12046, Control_c, 0, 64, 28
1, 12061, Control_c, 0, 64, 14
1, 12062, Note_off_c, 0, 67, 65
1, 12075, Control_c, 0, 64, 0
1, 12131, Note_on_c, 0, 72, 44
1, 12169, Note_off_c, 0, 72, 66
1, 12222, Note_on_c, 0, 75, 63
1, 12251, Note_off_c, 0, 75, 66
1, 12317, Note_on_c, 0, 79, 68
1, 12349, Note_off_c, 0, 79, 66
1, 12413, Note_on_c, 0, 79, 73
1, 12445, Note_off_c, 0, 79, 63
1, 12517, Note_on_c, 0, 79, 72
1, 12530, Note_on_c, 0, 67, 50
1, 12532, Note_on_c, 0, 63, 47
1, 12534, Note_on_c, 0, 60, 52
1, 12541, Note_off_c, 0, 79, 70
1, 12575, Note_off_c, 0, 67, 61
1, 12579, Note_off_c, 0, 60, 63
1, 12579, Note_off_c, 0, 63, 61
1, 12609, Note_on_c, 0, 79, 78
1, 12644, Note_off_c, 0, 79, 62
1, 12715, Note_on_c, 0, 79, 69
1, 12749, Note_off_c, 0, 79, 64
1, 12804, Note_on_c, 0, 79, 64
1, 12836, Note_off_c, 0, 79, 66
1, 12854, Control_c, 0, 64, 33
1, 12869, Control_c, 0, 64, 57
1, 12884, Control_c, 0, 64, 64
1, 12899, Control_c, 0, 64, 69
1, 12901, Note_on_c, 0, 79, 65
1, 12914, Control_c, 0, 64, 77
1, 12936, Control_c, 0, 64, 87
1, 12937, Note_on_c, 0, 59, 55
1, 12939, Note_off_c, 0, 79, 66
1, 12946, Note_on_c, 0, 67, 49
1, 12951, Control_c, 0, 64, 105
1, 12952, Note_on_c, 0, 62, 46
1, 12966, Control_c, 0, 64, 127
1, 12985, Note_off_c, 0, 67, 64
1, 12997, Note_off_c, 0, 62, 60
1, 13011, Note_off_c, 0, 59, 62
1, 13020, Note_on_c, 0, 74, 61
1, 13057, Note_off_c, 0, 74, 60
1, 13113, Note_on_c, 0, 71, 68
1, 13146, Note_off_c, 0, 71, 65
1, 13218, Note_on_c, 0, 67, 63
1, 13247, Note_off_c, 0, 67, 65
1, 13262, Control_c, 0, 64, 93
1, 13277, Control_c, 0, 64, 73
1, 13292, Control_c, 0, 64, 59
1, 13307, Control_c, 0, 64, 33
1, 13322, Control_c, 0, 64, 0
1, 13324, Note_on_c, 0, 62, 68
1, 13353, Note_off_c, 0, 62, 65
1, 13415, Note_on_c, 0, 59, 63
1, 13445, Note_off_c, 0, 59, 65
1, 13512, Note_on_c, 0, 55, 62
1, 13542, Note_off_c, 0, 55, 65
1, 13606, Note_on_c, 0, 55, 65
1, 13639, Note_off_c, 0, 55, 65
1, 13702, Note_on_c, 0, 55, 77
1, 13706, Note_on_c, 0, 50, 55
1, 13711, Note_on_c, 0, 47, 56
1, 13733, Note_off_c, 0, 55, 67
1, 13753, Note_off_c, 0, 47, 64
1, 13758, Control_c, 0, 67, 127
1, 13763, Note_off_c, 0, 50, 62
1, 13773, Control_c, 0, 67, 122
1, 13788, Control_c, 0, 67, 115
1, 13802, Control_c, 0, 67, 95
1, 13807, Note_on_c, 0, 55, 78
1, 13817, Control_c, 0, 67, 69
1, 13832, Control_c, 0, 67, 44
1, 13839, Note_off_c, 0, 55, 65
1, 13847, Control_c, 0, 67, 29
1, 13862, Control_c, 0, 67, 23
1, 13876, Control_c, 0, 67, 22
1, 13904, Note_on_c, 0, 55, 74
1, 13921, Control_c, 0, 67, 23
1, 13937, Control_c, 0, 67, 24
1, 13943, Note_off_c, 0, 55, 64
1, 13952, Control_c, 0, 67, 26
1, 13967, Control_c, 0, 67, 26
1, 13981, Control_c, 0, 67, 27
1, 13989, Note_on_c, 0, 55, 68
1, 13996, Control_c, 0, 67, 28
1, 14011, Control_c, 0, 67, 29
1, 14021, Note_off_c, 0, 55, 65
1, 14026, Control_c, 0, 67, 30
1, 14040, Control_c, 0, 67, 31
1, 14055, Control_c, 0, 67, 31
1, 14070, Control_c, 0, 64, 22
1, 14070, Control_c, 0, 67, 32
1, 14085, Control_c, 0, 64, 43
1, 14085, Control_c, 0, 67, 32
1, 14099, Note_on_c, 0, 52, 50
1, 14099, Note_on_c, 0, 55, 66
1, 14100, Control_c, 0, 64, 56
1, 14100, Control_c, 0, 67, 34
1, 14108, Note_on_c, 0, 49, 40
1, 14114, Note_on_c, 0, 46, 39
1, 14114, Control_c, 0, 64, 63
1, 14114, Control_c, 0, 67, 34
1, 14129, Control_c, 0, 64, 68
1, 14129, Control_c, 0, 67, 35
1, 14144, Control_c, 0, 64, 76
1, 14144, Control_c, 0, 67, 36
1, 14157, Note_off_c, 0, 55, 61
1, 14159, Control_c, 0, 64, 90
1, 14159, Control_c, 0, 67, 37
1, 14174, Control_c, 0, 64, 127
1, 14174, Control_c, 0, 67, 37
1, 14189, Control_c, 0, 67, 39
1, 14204, Note_on_c, 0, 58, 59
1, 14204, Control_c, 0, 67, 39
1, 14219, Control_c, 0, 67, 41
1, 14233, Control_c, 0, 67, 42
1, 14248, Control_c, 0, 67, 42
1, 14263, Control_c, 0, 67, 44
1, 14275, Note_off_c, 0, 58, 61
1, 14278, Control_c, 0, 67, 45
1, 14293, Control_c, 0, 67, 46
1, 14298, Note_on_c, 0, 61, 62
1, 14307, Control_c, 0, 67, 46
1, 14322, Control_c, 0, 67, 47
1, 14337, Control_c, 0, 67, 47
1, 14351, Control_c, 0, 64, 96
1, 14362, Note_off_c, 0, 52, 60
1, 14366, Control_c, 0, 64, 78
1, 14381, Control_c, 0, 64, 67
1, 14381, Control_c, 0, 67, 48
1, 14382, Note_off_c, 0, 61, 61
1, 14385, Note_off_c, 0, 49, 61
1, 14387, Note_off_c, 0, 46, 62
1, 14396, Control_c, 0, 64, 58
1, 14404, Note_on_c, 0, 64, 67
1, 14411, Control_c, 0, 64, 47
1, 14411, Control_c, 0, 67, 49
1, 14433, Control_c, 0, 64, 40
1, 14436, Note_off_c, 0, 64, 67
1, 14448, Control_c, 0, 64, 39
1, 14448, Control_c, 0, 67, 49
1, 14463, Control_c, 0, 64, 39
1, 14463, Control_c, 0, 67, 50
1, 14478, Control_c, 0, 64, 35
1, 14478, Control_c, 0, 67, 51
1, 14493, Control_c, 0, 64, 23
1, 14493, Control_c, 0, 67, 56
1, 14507, Control_c, 0, 64, 0
1, 14507, Control_c, 0, 67, 62
1, 14517, Note_on_c, 0, 67, 65
1, 14522, Control_c, 0, 67, 67
1, 14537, Control_c, 0, 67, 70
1, 14547, Note_off_c, 0, 67, 66
1, 14551, Control_c, 0, 67, 71
1, 14566, Control_c, 0, 67, 72
1, 14588, Note_on_c, 0, 70, 65
1, 14625, Control_c, 0, 67, 72
1, 14640, Control_c, 0, 67, 71
1, 14645, Note_off_c, 0, 70, 63
1, 14655, Control_c, 0, 67, 70
1, 14670, Control_c, 0, 67, 69
1, 14685, Control_c, 0, 67, 69
1, 14698, Note_on_c, 0, 73, 74
1, 14699, Control_c, 0, 67, 67
1, 14714, Control_c, 0, 67, 67
1, 14730, Control_c, 0, 67, 66
1, 14745, Control_c, 0, 67, 66
1, 14751, Note_off_c, 0, 73, 64
1, 14794, Note_on_c, 0, 76, 72
1, 14804, Control_c, 0, 67, 65
1, 14823, Note_off_c, 0, 76, 66
1, 14848, Control_c, 0, 67, 64
1, 14884, Note_on_c, 0, 67, 57
1, 14891, Note_on_c, 0, 58, 54
1, 14895, Note_on_c, 0, 61, 48
1, 14901, Note_on_c, 0, 76, 72
1, 14908, Control_c, 0, 67, 64
1, 14919, Note_off_c, 0, 67, 65
1, 14927, Note_off_c, 0, 76, 68
1, 14934, Note_off_c, 0, 61, 63
1, 14935, Note_off_c, 0, 58, 61
1, 14937, Control_c, 0, 67, 63
1, 14967, Control_c, 0, 67, 62
1, 14985, Note_on_c, 0, 76, 78
1, 14997, Control_c, 0, 67, 62
1, 15012, Note_off_c, 0, 76, 64
1, 15089, Note_on_c, 0, 76, 69
1, 15116, Control_c, 0, 67, 62
1, 15119, Note_off_c, 0, 76, 66
1, 15190, Note_on_c, 0, 76, 65
1, 15210, Note_off_c, 0, 76, 64
1, 15241, Control_c, 0, 67, 62
1, 15256, Control_c, 0, 67, 61
1, 15271, Control_c, 0, 67, 61
1, 15286, Control_c, 0, 67, 59
1, 15292, Note_on_c, 0, 60, 50
1, 15295, Note_on_c, 0, 77, 67
1, 15299, Note_on_c, 0, 65, 49
1, 15301, Control_c, 0, 64, 39
1, 15301, Control_c, 0, 67, 58
1, 15316, Control_c, 0, 64, 55
1, 15316, Control_c, 0, 67, 57
1, 15317, Note_on_c, 0, 57, 38
1, 15330, Control_c, 0, 64, 63
1, 15330, Control_c, 0, 67, 56
1, 15345, Control_c, 0, 64, 67
1, 15345, Control_c, 0, 67, 54
1, 15360, Control_c, 0, 64, 73
1, 15360, Control_c, 0, 67, 52
1, 15374, Control_c, 0, 64, 81
1, 15374, Control_c, 0, 67, 51
1, 15389, Control_c, 0, 64, 94
1, 15389, Control_c, 0, 67, 49
1, 15391, Note_off_c, 0, 77, 59
1, 15404, Control_c, 0, 64, 110
1, 15404, Control_c, 0, 67, 47
1, 15405, Note_on_c, 0, 72, 69
1, 15405, Note_off_c, 0, 65, 61
1, 15419, Control_c, 0, 64, 127
1, 15419, Control_c, 0, 67, 46
1, 15434, Control_c, 0, 67, 44
1, 15444, Note_off_c, 0, 60, 61
1, 15449, Control_c, 0, 67, 40
1, 15463, Control_c, 0, 67, 31
1, 15466, Note_off_c, 0, 57, 63
1, 15478, Control_c, 0, 67, 21
1, 15493, Control_c, 0, 67, 9
1, 15504, Note_off_c, 0, 72, 62
1, 15507, Note_on_c, 0, 69, 73
1, 15508, Control_c, 0, 67, 0
1, 15563, Note_off_c, 0, 69, 62
1, 15583, Control_c, 0, 64, 115
1, 15597, Control_c, 0, 64, 92
1, 15600, Note_on_c, 0, 65, 63
1, 15612, Control_c, 0, 64, 77
1, 15627, Note_off_c, 0, 65, 68
1, 15627, Control_c, 0, 64, 63
1, 15642, Control_c, 0, 64, 35
1, 15657, Control_c, 0, 64, 0
1, 15692, Note_on_c, 0, 60, 72
1, 15730, Note_off_c, 0, 60, 62
1, 15781, Note_on_c, 0, 57, 72
1, 15811, Note_off_c, 0, 57, 67
1, 15870, Note_on_c, 0, 53, 64
1, 15905, Note_off_c, 0, 53, 64
1, 15977, Note_on_c, 0, 53, 68
1, 16005, Note_off_c, 0, 53, 66
1, 16064, Note_on_c, 0, 48, 61
1, 16064, Note_on_c, 0, 53, 78
1, 16066, Note_on_c, 0, 45, 63
1, 16096, Note_off_c, 0, 53, 67
1, 16109, Note_off_c, 0, 45, 65
1, 16113, Note_off_c, 0, 48, 61
1, 16160, Note_on_c, 0, 53, 78
1, 16195, Note_off_c, 0, 53, 65
1, 16270, Note_on_c, 0, 53, 55
1, 16299, Note_off_c, 0, 53, 63
1, 16341, Note_on_c, 0, 53, 72
1, 16368, Note_off_c, 0, 53, 66
1, 16392, Control_c, 0, 64, 27
1, 16407, Control_c, 0, 64, 53
1, 16421, Control_c, 0, 64, 67
1, 16436, Control_c, 0, 64, 80
1, 16449, Note_on_c, 0, 54, 77
1, 16451, Control_c, 0, 64, 113
1, 16456, Note_on_c, 0, 48, 62
1, 16460, Note_on_c, 0, 44, 60
1, 16466, Control_c, 0, 64, 127
1, 16513, Note_off_c, 0, 54, 63
1, 16554, Note_on_c, 0, 60, 65
1, 16643, Note_off_c, 0, 60, 63
1, 16662, Note_on_c, 0, 63, 75
1, 16700, Note_off_c, 0, 48, 61
1, 16711, Note_off_c, 0, 63, 61
1, 16734, Note_off_c, 0, 44, 63
1, 16753, Control_c, 0, 64, 107
1, 16768, Control_c, 0, 64, 81
1, 16772, Note_on_c, 0, 66, 69
1, 16782, Control_c, 0, 64, 64
1, 16797, Control_c, 0, 64, 48
1, 16812, Control_c, 0, 64, 23
1, 16827, Note_off_c, 0, 66, 61
1, 16827, Control_c, 0, 64, 16
1, 16860, Note_on_c, 0, 72, 67
1, 16887, Control_c, 0, 64, 15
1, 16901, Control_c, 0, 64, 14
1, 16915, Note_off_c, 0, 72, 65
1, 16948, Note_on_c, 0, 75, 75
1, 16973, Note_off_c, 0, 75, 68
1, 17040, Note_on_c, 0, 78, 82
1, 17073, Note_off_c, 0, 78, 65
1, 17136, Note_on_c, 0, 78, 74
1, 17167, Note_off_c, 0, 78, 64
1, 17221, Note_on_c, 0, 66, 70
1, 17226, Note_on_c, 0, 78, 85
1, 17228, Note_on_c, 0, 63, 67
1, 17231, Note_on_c, 0, 56, 63
1, 17231, Note_on_c, 0, 60, 58
1, 17257, Control_c, 0, 64, 13
1, 17258, Note_off_c, 0, 78, 65
1, 17262, Note_off_c, 0, 63, 63
1, 17266, Note_off_c, 0, 66, 58
1, 17267, Note_off_c, 0, 60, 64
1, 17272, Control_c, 0, 64, 12
1, 17283, Note_off_c, 0, 56, 59
1, 17314, Note_on_c, 0, 78, 76
1, 17342, Note_off_c, 0, 78, 67
1, 17431, Note_on_c, 0, 78, 71
1, 17455, Note_off_c, 0, 78, 62
1, 17513, Note_on_c, 0, 78, 76
1, 17537, Note_off_c, 0, 78, 69
1, 17609, Note_on_c, 0, 79, 82
1, 17615, Note_on_c, 0, 67, 78
1, 17619, Note_on_c, 0, 60, 72
1, 17619, Note_on_c, 0, 63, 71
1, 17620, Note_on_c, 0, 55, 67
1, 17620, Control_c, 0, 64, 0
1, 17640, Note_off_c, 0, 67, 68
1, 17646, Note_off_c, 0, 60, 68
1, 17647, Note_off_c, 0, 63, 67
1, 17662, Note_off_c, 0, 55, 63
1, 17697, Note_off_c, 0, 79, 64
1, 17703, Note_on_c, 0, 75, 63
1, 17775, Note_off_c, 0, 75, 62
1, 17804, Note_on_c, 0, 72, 68
1, 17832, Note_off_c, 0, 72, 69
1, 17889, Note_on_c, 0, 67, 70
1, 17923, Note_off_c, 0, 67, 66
1, 17977, Control_c, 0, 64, 56
1, 17992, Control_c, 0, 64, 65
1, 17993, Note_on_c, 0, 68, 84
1, 17994, Note_on_c, 0, 60, 79
1, 17995, Note_on_c, 0, 65, 89
1, 18002, Note_on_c, 0, 56, 75
1, 18005, Note_on_c, 0, 53, 79
1, 18007, Control_c, 0, 64, 71
1, 18020, Note_off_c, 0, 68, 66
1, 18021, Control_c, 0, 64, 86
1, 18036, Control_c, 0, 64, 127
1, 18097, Note_on_c, 0, 72, 76
1, 18181, Note_off_c, 0, 72, 63
1, 18207, Note_on_c, 0, 77, 78
1, 18241, Note_off_c, 0, 65, 56
1, 18288, Note_off_c, 0, 77, 63
1, 18297, Note_on_c, 0, 80, 75
1, 18320, Note_off_c, 0, 80, 71
1, 18359, Note_off_c, 0, 53, 61
1, 18364, Note_off_c, 0, 60, 60
1, 18384, Control_c, 0, 64, 92
1, 18393, Note_off_c, 0, 56, 60
1, 18398, Control_c, 0, 64, 67
1, 18403, Note_on_c, 0, 84, 81
1, 18413, Control_c, 0, 64, 33
1, 18428, Control_c, 0, 64, 0
1, 18464, Note_off_c, 0, 84, 64
1, 18493, Note_on_c, 0, 89, 69
1, 18562, Control_c, 0, 67, 19
1, 18565, Note_off_c, 0, 89, 62
1, 18577, Control_c, 0, 67, 36
1, 18587, Note_on_c, 0, 92, 65
1, 18592, Control_c, 0, 67, 54
1, 18606, Control_c, 0, 67, 69
1, 18621, Control_c, 0, 67, 82
1, 18636, Control_c, 0, 67, 97
1, 18651, Control_c, 0, 67, 110
1, 18665, Control_c, 0, 67, 125
1, 18674, Note_off_c, 0, 92, 60
1, 18680, Control_c, 0, 67, 127
1, 18713, Note_on_c, 0, 89, 33
1, 18744, Note_off_c, 0, 89, 53
1, 18793, Note_on_c, 0, 84, 65
1, 18836, Note_off_c, 0, 84, 59
1, 18898, Note_on_c, 0, 80, 61
1, 18945, Note_off_c, 0, 80, 61
1, 18991, Note_on_c, 0, 77, 58
1, 19025, Note_off_c, 0, 77, 65
1, 19082, Note_on_c, 0, 72, 57
1, 19118, Note_off_c, 0, 72, 65
1, 19165, Note_on_c, 0, 68, 68
1, 19219, Note_off_c, 0, 68, 54
1, 19251, Note_on_c, 0, 65, 64
1, 19288, Note_off_c, 0, 65, 63
1, 19349, Note_on_c, 0, 60, 59
1, 19406, Note_off_c, 0, 60, 53
1, 19437, Note_on_c, 0, 41, 64
1, 19445, Note_on_c, 0, 56, 67
1, 19466, Note_off_c, 0, 41, 65
1, 19480, Note_off_c, 0, 56, 66
1, 19531, Note_on_c, 0, 43, 70
1, 19531, Note_on_c, 0, 55, 66
1, 19578, Note_off_c, 0, 55, 61
1, 19620, Note_on_c, 0, 59, 58
1, 19644, Note_off_c, 0, 43, 63
1, 19673, Note_off_c, 0, 59, 61
1, 19736, Note_on_c, 0, 62, 55
1, 19775, Note_off_c, 0, 62, 64
1, 19820, Note_on_c, 0, 67, 60
1, 19859, Note_off_c, 0, 67, 57
1, 19903, Note_on_c, 0, 48, 60
1, 19920, Note_on_c, 0, 63, 61
1, 19992, Note_off_c, 0, 63, 61
1, 20009, Note_on_c, 0, 60, 65
1, 20032, Note_off_c, 0, 48, 62
1, 20048, Note_off_c, 0, 60, 61
1, 20108, Note_on_c, 0, 55, 62
1, 20149, Note_off_c, 0, 55, 62
1, 20210, Note_on_c, 0, 51, 59
1, 20254, Note_off_c, 0, 51, 62
1, 20307, Note_on_c, 0, 55, 57
1, 20356, Note_off_c, 0, 55, 61
1, 20395, Note_on_c, 0, 51, 58
1, 20451, Note_off_c, 0, 51, 60
1, 20511, Note_on_c, 0, 48, 55
1, 20576, Note_off_c, 0, 48, 58
1, 20616, Note_on_c, 0, 43, 55
1, 20686, Note_off_c, 0, 43, 60
1, 20706, Note_on_c, 0, 48, 51
1, 20764, Note_off_c, 0, 48, 62
1, 20791, Note_on_c, 0, 51, 59
1, 20834, Note_off_c, 0, 51, 61
1, 20887, Note_on_c, 0, 55, 63
1, 20929, Note_off_c, 0, 55, 61
1, 20981, Note_on_c, 0, 51, 56
1, 21015, Control_c, 0, 67, 125
1, 21030, Control_c, 0, 67, 122
1, 21033, Note_off_c, 0, 51, 61
1, 21045, Control_c, 0, 67, 118
1, 21060, Control_c, 0, 64, 47
1, 21060, Control_c, 0, 67, 110
1, 21075, Control_c, 0, 64, 58
1, 21075, Control_c, 0, 67, 98
1, 21081, Note_on_c, 0, 48, 58
1, 21090, Control_c, 0, 64, 62
1, 21090, Control_c, 0, 67, 83
1, 21105, Control_c, 0, 64, 63
1, 21105, Control_c, 0, 67, 66
1, 21120, Control_c, 0, 64, 62
1, 21120, Control_c, 0, 67, 49
1, 21135, Control_c, 0, 64, 62
1, 21135, Control_c, 0, 67, 39
1, 21141, Note_off_c, 0, 48, 60
1, 21150, Control_c, 0, 64, 61
1, 21150, Control_c, 0, 67, 33
1, 21164, Note_on_c, 0, 51, 60
1, 21172, Control_c, 0, 64, 61
1, 21172, Control_c, 0, 67, 30
1, 21187, Control_c, 0, 64, 60
1, 21187, Control_c, 0, 67, 29
1, 21202, Control_c, 0, 64, 60
1, 21217, Control_c, 0, 64, 58
1, 21232, Control_c, 0, 64, 56
1, 21240, Note_off_c, 0, 51, 61
1, 21246, Control_c, 0, 64, 52
1, 21261, Control_c, 0, 64, 49
1, 21271, Note_on_c, 0, 55, 58
1, 21276, Control_c, 0, 64, 46
1, 21290, Control_c, 0, 64, 43
1, 21305, Control_c, 0, 64, 41
1, 21320, Note_off_c, 0, 55, 62
1, 21320, Control_c, 0, 64, 38
1, 21335, Control_c, 0, 64, 33
1, 21350, Control_c, 0, 64, 29
1, 21364, Control_c, 0, 64, 25
1, 21369, Note_on_c, 0, 60, 57
1, 21379, Control_c, 0, 64, 22
1, 21394, Control_c, 0, 64, 18
1, 21409, Control_c, 0, 64, 14
1, 21416, Note_off_c, 0, 60, 58
1, 21424, Control_c, 0, 64, 12
1, 21439, Control_c, 0, 64, 11
1, 21453, Control_c, 0, 67, 29
1, 21468, Control_c, 0, 67, 26
1, 21470, Note_on_c, 0, 63, 59
1, 21483, Control_c, 0, 67, 22
1, 21498, Control_c, 0, 64, 9
1, 21498, Control_c, 0, 67, 0
1, 21506, Note_off_c, 0, 63, 65
1, 21513, Control_c, 0, 64, 0
1, 21558, Note_on_c, 0, 67, 58
1, 21585, Note_off_c, 0, 67, 63
1, 21647, Note_on_c, 0, 67, 69
1, 21674, Note_off_c, 0, 67, 66
1, 21728, Note_on_c, 0, 67, 74
1, 21764, Note_off_c, 0, 67, 57
1, 21834, Note_on_c, 0, 72, 68
1, 21835, Note_on_c, 0, 75, 67
1, 21838, Note_on_c, 0, 67, 54
1, 21860, Note_off_c, 0, 67, 61
1, 21862, Note_off_c, 0, 72, 67
1, 21865, Note_off_c, 0, 75, 67
1, 21933, Note_on_c, 0, 67, 75
1, 21966, Note_off_c, 0, 67, 65
1, 22033, Note_on_c, 0, 67, 54
1, 22066, Note_off_c, 0, 67, 64
1, 22144, Note_on_c, 0, 67, 49
1, 22166, Note_off_c, 0, 67, 61
1, 22214, Note_on_c, 0, 74, 65
1, 22225, Note_on_c, 0, 71, 60
1, 22232, Control_c, 0, 64, 40
1, 22234, Note_on_c, 0, 67, 63
1, 22246, Control_c, 0, 64, 59
1, 22261, Control_c, 0, 64, 66
1, 22266, Note_off_c, 0, 67, 63
1, 22276, Control_c, 0, 64, 74
1, 22291, Control_c, 0, 64, 84
1, 22306, Control_c, 0, 64, 95
1, 22309, Note_off_c, 0, 74, 59
1, 22321, Note_off_c, 0, 71, 60
1, 22321, Control_c, 0, 64, 100
1, 22330, Note_on_c, 0, 62, 56
1, 22336, Control_c, 0, 64, 101
1, 22351, Control_c, 0, 64, 100
1, 22366, Control_c, 0, 64, 98
1, 22380, Control_c, 0, 64, 95
1, 22388, Note_off_c, 0, 62, 61
1, 22395, Control_c, 0, 64, 92
1, 22410, Control_c, 0, 64, 87
1, 22425, Control_c, 0, 64, 80
1, 22426, Note_on_c, 0, 59, 60
1, 22439, Control_c, 0, 64, 73
1, 22454, Note_off_c, 0, 59, 64
1, 22454, Control_c, 0, 64, 66
1, 22469, Control_c, 0, 64, 57
1, 22484, Control_c, 0, 64, 48
1, 22499, Control_c, 0, 64, 43
1, 22507, Note_on_c, 0, 55, 63
1, 22513, Control_c, 0, 64, 42
1, 22528, Control_c, 0, 64, 41
1, 22543, Control_c, 0, 64, 36
1, 22552, Note_off_c, 0, 55, 63
1, 22558, Control_c, 0, 64, 26
1, 22573, Control_c, 0, 64, 13
1, 22573, Control_c, 0, 67, 9
1, 22587, Control_c, 0, 64, 0
1, 22587, Control_c, 0, 67, 22
1, 22598, Note_on_c, 0, 50, 61
1, 22602, Control_c, 0, 67, 36
1, 22617, Control_c, 0, 67, 47
1, 22632, Control_c, 0, 67, 55
1, 22645, Note_off_c, 0, 50, 62
1, 22646, Control_c, 0, 67, 57
1, 22669, Control_c, 0, 67, 58
1, 22697, Note_on_c, 0, 47, 60
1, 22714, Control_c, 0, 67, 57
1, 22729, Control_c, 0, 67, 56
1, 22741, Note_off_c, 0, 47, 63
1, 22744, Control_c, 0, 67, 54
1, 22759, Control_c, 0, 67, 54
1, 22773, Note_on_c, 0, 47, 53
1, 22774, Control_c, 0, 67, 52
1, 22789, Control_c, 0, 67, 51
1, 22804, Control_c, 0, 67, 49
1, 22810, Note_off_c, 0, 47, 66
1, 22818, Control_c, 0, 67, 46
1, 22833, Control_c, 0, 67, 44
1, 22848, Control_c, 0, 67, 42
1, 22862, Control_c, 0, 67, 41
1, 22877, Control_c, 0, 67, 39
1, 22879, Note_on_c, 0, 47, 72
1, 22892, Control_c, 0, 67, 36
1, 22907, Control_c, 0, 67, 32
1, 22911, Note_off_c, 0, 47, 62
1, 22922, Control_c, 0, 67, 29
1, 22936, Control_c, 0, 67, 25
1, 22951, Control_c, 0, 67, 21
1, 22966, Control_c, 0, 67, 17
1, 22973, Note_on_c, 0, 67, 69
1, 22973, Note_on_c, 0, 74, 71
1, 22978, Note_on_c, 0, 47, 72
1, 22981, Control_c, 0, 67, 12
1, 22996, Control_c, 0, 67, 0
1, 23005, Note_off_c, 0, 67, 62
1, 23007, Note_off_c, 0, 47, 64
1, 23010, Note_off_c, 0, 74, 62
1, 23064, Note_on_c, 0, 47, 71
1, 23095, Note_off_c, 0, 47, 63
1, 23157, Note_on_c, 0, 47, 63
1, 23198, Note_off_c, 0, 47, 58
1, 23236, Note_on_c, 0, 47, 57
1, 23277, Note_off_c, 0, 47, 64
1, 23352, Note_on_c, 0, 73, 61
1, 23354, Note_on_c, 0, 46, 57
1, 23355, Note_on_c, 0, 76, 64
1, 23357, Note_on_c, 0, 67, 59
1, 23430, Note_off_c, 0, 46, 63
1, 23460, Note_on_c, 0, 49, 61
1, 23527, Note_off_c, 0, 49, 61
1, 23554, Note_on_c, 0, 52, 66
1, 23567, Note_off_c, 0, 67, 57
1, 23567, Control_c, 0, 67, 9
1, 23572, Note_off_c, 0, 76, 55
1, 23582, Control_c, 0, 67, 14
1, 23591, Note_off_c, 0, 52, 66
1, 23592, Note_off_c, 0, 73, 60
1, 23641, Control_c, 0, 67, 14
1, 23656, Note_on_c, 0, 55, 60
1, 23656, Control_c, 0, 67, 12
1, 23671, Control_c, 0, 67, 11
1, 23686, Control_c, 0, 67, 10
1, 23701, Control_c, 0, 67, 9
1, 23712, Note_off_c, 0, 55, 58
1, 23716, Control_c, 0, 67, 0
1, 23745, Note_on_c, 0, 58, 58
1, 23784, Note_off_c, 0, 58, 64
1, 23839, Note_on_c, 0, 61, 69
1, 23876, Note_off_c, 0, 61, 61
1, 23934, Note_on_c, 0, 64, 64
1, 23964, Note_off_c, 0, 64, 63
1, 24034, Note_on_c, 0, 64, 54
1, 24056, Note_off_c, 0, 64, 60
1, 24118, Note_on_c, 0, 73, 68
1, 24122, Note_on_c, 0, 67, 59
1, 24123, Note_on_c, 0, 64, 69
1, 24151, Note_off_c, 0, 64, 68
1, 24151, Note_off_c, 0, 73, 67
1, 24155, Note_off_c, 0, 67, 65
1, 24219, Note_on_c, 0, 64, 69
1, 24247, Note_off_c, 0, 64, 66
1, 24311, Note_on_c, 0, 64, 63
1, 24344, Note_off_c, 0, 64, 66
1, 24406, Note_on_c, 0, 64, 68
1, 24440, Note_off_c, 0, 64, 62
1, 24509, Note_on_c, 0, 72, 68
1, 24510, Note_on_c, 0, 69, 61
1, 24512, Note_on_c, 0, 65, 59
1, 24524, Control_c, 0, 64, 12
1, 24539, Control_c, 0, 64, 46
1, 24554, Control_c, 0, 64, 60
1, 24556, Note_off_c, 0, 65, 61
1, 24568, Control_c, 0, 64, 65
1, 24583, Control_c, 0, 64, 70
1, 24598, Control_c, 0, 64, 74
1, 24613, Control_c, 0, 64, 77
1, 24615, Note_on_c, 0, 60, 62
1, 24624, Note_off_c, 0, 72, 60
1, 24634, Note_off_c, 0, 69, 61
1, 24642, Control_c, 0, 64, 76
1, 24657, Control_c, 0, 64, 74
1, 24670, Note_off_c, 0, 60, 59
1, 24672, Control_c, 0, 64, 73
1, 24687, Control_c, 0, 64, 71
1, 24702, Control_c, 0, 64, 68
1, 24715, Note_on_c, 0, 57, 58
1, 24716, Control_c, 0, 64, 64
1, 24731, Control_c, 0, 64, 61
1, 24744, Note_off_c, 0, 57, 66
1, 24746, Control_c, 0, 64, 57
1, 24761, Control_c, 0, 64, 55
1, 24776, Control_c, 0, 64, 53
1, 24790, Control_c, 0, 64, 49
1, 24795, Note_on_c, 0, 53, 63
1, 24805, Control_c, 0, 64, 45
1, 24820, Control_c, 0, 64, 38
1, 24834, Control_c, 0, 64, 31
1, 24836, Note_off_c, 0, 53, 65
1, 24849, Control_c, 0, 64, 26
1, 24864, Control_c, 0, 64, 23
1, 24879, Control_c, 0, 64, 19
1, 24884, Note_on_c, 0, 48, 61
1, 24894, Control_c, 0, 64, 15
1, 24916, Control_c, 0, 64, 9
1, 24931, Control_c, 0, 64, 0
1, 24947, Note_off_c, 0, 48, 60
1, 24988, Note_on_c, 0, 45, 67
1, 25032, Note_off_c, 0, 45, 61
1, 25082, Note_on_c, 0, 45, 59
1, 25114, Note_off_c, 0, 45, 64
1, 25179, Note_on_c, 0, 45, 70
1, 25212, Note_off_c, 0, 45, 63
1, 25269, Note_on_c, 0, 45, 77
1, 25275, Note_on_c, 0, 65, 71
1, 25275, Note_on_c, 0, 72, 74
1, 25301, Note_off_c, 0, 45, 67
1, 25305, Note_off_c, 0, 65, 64
1, 25314, Note_off_c, 0, 72, 63
1, 25355, Note_on_c, 0, 45, 67
1, 25394, Note_off_c, 0, 45, 67
1, 25453, Note_on_c, 0, 45, 60
1, 25493, Note_off_c, 0, 45, 65
1, 25540, Note_on_c, 0, 45, 46
1, 25579, Note_off_c, 0, 45, 64
1, 25652, Note_on_c, 0, 44, 60
1, 25652, Note_on_c, 0, 72, 77
1, 25655, Note_on_c, 0, 66, 74
1, 25695, Control_c, 0, 64, 21
1, 25710, Control_c, 0, 64, 49
1, 25725, Control_c, 0, 64, 62
1, 25729, Note_off_c, 0, 44, 63
1, 25739, Control_c, 0, 64, 67
1, 25754, Control_c, 0, 64, 73
1, 25755, Note_on_c, 0, 48, 64
1, 25769, Control_c, 0, 64, 79
1, 25784, Control_c, 0, 64, 80
1, 25789, Note_off_c, 0, 72, 63
1, 25799, Control_c, 0, 64, 79
1, 25800, Note_off_c, 0, 66, 58
1, 25813, Control_c, 0, 64, 78
1, 25828, Control_c, 0, 64, 77
1, 25833, Note_off_c, 0, 48, 61
1, 25843, Control_c, 0, 64, 76
1, 25857, Control_c, 0, 64, 74
1, 25862, Note_on_c, 0, 51, 63
1, 25872, Control_c, 0, 64, 71
1, 25887, Control_c, 0, 64, 68
1, 25902, Control_c, 0, 64, 64
1, 25918, Control_c, 0, 64, 59
1, 25933, Control_c, 0, 64, 55
1, 25940, Note_off_c, 0, 51, 62
1, 25948, Control_c, 0, 64, 51
1, 25962, Control_c, 0, 64, 49
1, 25966, Note_on_c, 0, 56, 70
1, 25977, Control_c, 0, 64, 47
1, 25992, Control_c, 0, 64, 45
1, 25992, Control_c, 0, 67, 10
1, 26007, Control_c, 0, 64, 39
1, 26007, Control_c, 0, 67, 13
1, 26022, Control_c, 0, 64, 30
1, 26022, Control_c, 0, 67, 14
1, 26027, Note_off_c, 0, 56, 62
1, 26036, Control_c, 0, 64, 18
1, 26051, Control_c, 0, 64, 0
1, 26051, Control_c, 0, 67, 12
1, 26065, Note_on_c, 0, 60, 70
1, 26066, Control_c, 0, 67, 11
1, 26080, Control_c, 0, 67, 9
1, 26095, Control_c, 0, 67, 0
1, 26104, Note_off_c, 0, 60, 64
1, 26154, Note_on_c, 0, 63, 63
1, 26190, Note_off_c, 0, 63, 61
1, 26250, Note_on_c, 0, 66, 69
1, 26279, Note_off_c, 0, 66, 66
1, 26342, Note_on_c, 0, 66, 74
1, 26375, Note_off_c, 0, 66, 62
1, 26437, Note_on_c, 0, 75, 78
1, 26437, Note_on_c, 0, 66, 68
1, 26437, Note_on_c, 0, 72, 75
1, 26466, Note_off_c, 0, 75, 66
1, 26469, Note_off_c, 0, 72, 65
1, 26485, Note_off_c, 0, 66, 62
1, 26536, Note_on_c, 0, 66, 65
1, 26573, Note_off_c, 0, 66, 61
1, 26637, Note_on_c, 0, 66, 66
1, 26676, Note_off_c, 0, 66, 59
1, 26811, Note_on_c, 0, 67, 48
1, 26822, Note_on_c, 0, 74, 85
1, 26823, Note_on_c, 0, 71, 85
1, 26886, Note_off_c, 0, 71, 60
1, 26896, Note_off_c, 0, 74, 61
1, 26898, Note_off_c, 0, 67, 61
1, 26926, Note_on_c, 0, 62, 61
1, 27013, Note_off_c, 0, 62, 61
1, 27034, Note_on_c, 0, 59, 56
1, 27087, Note_off_c, 0, 59, 61
1, 27098, Note_on_c, 0, 55, 64
1, 27138, Note_off_c, 0, 55, 63
1, 27209, Note_on_c, 0, 77, 99
1, 27212, Note_on_c, 0, 56, 80
1, 27212, Note_on_c, 0, 72, 97
1, 27222, Control_c, 0, 64, 30
1, 27236, Control_c, 0, 64, 54
1, 27251, Control_c, 0, 64, 64
1, 27266, Control_c, 0, 64, 70
1, 27281, Control_c, 0, 64, 79
1, 27296, Control_c, 0, 64, 93
1, 27301, Note_off_c, 0, 56, 64
1, 27303, Note_off_c, 0, 72, 60
1, 27304, Note_on_c, 0, 60, 82
1, 27311, Control_c, 0, 64, 127
1, 27352, Note_off_c, 0, 77, 57
1, 27365, Note_off_c, 0, 60, 65
1, 27406, Note_on_c, 0, 65, 69
1, 27430, Control_c, 0, 64, 109
1, 27444, Control_c, 0, 64, 91
1, 27459, Control_c, 0, 64, 75
1, 27474, Control_c, 0, 64, 63
1, 27489, Control_c, 0, 64, 39
1, 27490, Note_off_c, 0, 65, 60
1, 27498, Note_on_c, 0, 68, 72
1, 27505, Control_c, 0, 64, 0
1, 27564, Control_c, 0, 67, 9
1, 27564, Note_off_c, 0, 68, 61
1, 27579, Control_c, 0, 67, 31
1, 27594, Control_c, 0, 67, 53
1, 27604, Note_on_c, 0, 65, 66
1, 27608, Control_c, 0, 67, 77
1, 27623, Control_c, 0, 67, 94
1, 27638, Control_c, 0, 67, 107
1, 27647, Note_off_c, 0, 65, 61
1, 27653, Control_c, 0, 67, 118
1, 27668, Control_c, 0, 67, 127
1, 27710, Note_on_c, 0, 60, 49
1, 27758, Note_off_c, 0, 60, 64
1, 27793, Note_on_c, 0, 56, 60
1, 27856, Note_off_c, 0, 56, 64
1, 27889, Note_on_c, 0, 53, 67
1, 27939, Note_off_c, 0, 53, 62
1, 27990, Note_on_c, 0, 48, 63
1, 28064, Note_off_c, 0, 48, 63
1, 28083, Note_on_c, 0, 44, 56
1, 28135, Note_off_c, 0, 44, 62
1, 28183, Note_on_c, 0, 41, 62
1, 28241, Note_off_c, 0, 41, 56
1, 28276, Note_on_c, 0, 36, 58
1, 28354, Note_off_c, 0, 36, 59
1, 28372, Note_on_c, 0, 32, 57
1, 28453, Note_off_c, 0, 32, 62
1, 28477, Note_on_c, 0, 36, 59
1, 28530, Note_off_c, 0, 36, 62
1, 28571, Note_on_c, 0, 41, 60
1, 28661, Note_off_c, 0, 41, 62
1, 28670, Note_on_c, 0, 44, 64
1, 28671, Note_on_c, 0, 77, 74
1, 28682, Note_on_c, 0, 72, 59
1, 28700, Note_off_c, 0, 72, 65
1, 28703, Note_off_c, 0, 77, 64
1, 28721, Note_off_c, 0, 44, 61
1, 28761, Note_on_c, 0, 79, 74
1, 28764, Note_on_c, 0, 43, 61
1, 28766, Note_on_c, 0, 71, 73
1, 28821, Note_off_c, 0, 43, 58
1, 28827, Note_off_c, 0, 71, 59
1, 28864, Note_on_c, 0, 38, 53
1, 28876, Note_off_c, 0, 79, 61
1, 28933, Note_off_c, 0, 38, 61
1, 28953, Note_on_c, 0, 35, 57
1, 29028, Note_off_c, 0, 35, 60
1, 29058, Note_on_c, 0, 31, 53
1, 29146, Note_off_c, 0, 31, 57
1, 29165, Note_on_c, 0, 36, 39
1, 29165, Note_on_c, 0, 72, 65
1, 29219, Note_off_c, 0, 36, 59
1, 29243, Note_on_c, 0, 39, 55
1, 29299, Note_off_c, 0, 39, 62
1, 29338, Note_on_c, 0, 43, 54
1, 29393, Note_off_c, 0, 43, 60
1, 29439, Note_on_c, 0, 48, 55
1, 29443, Note_off_c, 0, 72, 60
1, 29497, Note_off_c, 0, 48, 60
1, 29553, Note_on_c, 0, 43, 60
1, 29572, Control_c, 0, 67, 97
1, 29586, Control_c, 0, 67, 35
1, 29601, Control_c, 0, 67, 0
1, 29633, Note_on_c, 0, 48, 58
1, 29645, Note_off_c, 0, 43, 58
1, 29725, Note_off_c, 0, 48, 59
1, 29734, Note_on_c, 0, 51, 62
1, 29805, Note_off_c, 0, 51, 63
1, 29834, Note_on_c, 0, 55, 58
1, 29916, Note_off_c, 0, 55, 62
1, 29934, Note_on_c, 0, 51, 61
1, 30006, Note_off_c, 0, 51, 63
1, 30019, Note_on_c, 0, 48, 63
1, 30059, Note_off_c, 0, 48, 66
1, 30119, Note_on_c, 0, 43, 61
1, 30201, Note_off_c, 0, 43, 59
1, 30217, Note_on_c, 0, 39, 61
1, 30303, Note_off_c, 0, 39, 59
1, 30313, Note_on_c, 0, 87, 74
1, 30317, Note_on_c, 0, 36, 65
1, 30334, Control_c, 0, 64, 28
1, 30349, Control_c, 0, 64, 48
1, 30364, Control_c, 0, 64, 61
1, 30379, Control_c, 0, 64, 70
1, 30394, Control_c, 0, 64, 84
1, 30402, Note_on_c, 0, 84, 77
1, 30408, Note_on_c, 0, 39, 68
1, 30408, Control_c, 0, 64, 127
1, 30435, Note_off_c, 0, 87, 63
1, 30441, Note_off_c, 0, 36, 53
1, 30486, Note_off_c, 0, 39, 61
1, 30489, Note_on_c, 0, 43, 68
1, 30507, Note_on_c, 0, 79, 74
1, 30516, Note_off_c, 0, 84, 62
1, 30554, Note_off_c, 0, 43, 62
1, 30557, Control_c, 0, 64, 104
1, 30569, Note_off_c, 0, 79, 64
1, 30572, Control_c, 0, 64, 89
1, 30585, Note_on_c, 0, 48, 64
1, 30587, Control_c, 0, 64, 78
1, 30601, Control_c, 0, 64, 70
1, 30602, Note_on_c, 0, 75, 68
1, 30616, Control_c, 0, 64, 64
1, 30631, Note_off_c, 0, 75, 67
1, 30631, Control_c, 0, 64, 61
1, 30643, Note_off_c, 0, 48, 59
1, 30646, Control_c, 0, 64, 59
1, 30660, Control_c, 0, 64, 58
1, 30675, Control_c, 0, 64, 57
1, 30679, Note_on_c, 0, 51, 67
1, 30690, Control_c, 0, 64, 55
1, 30706, Control_c, 0, 64, 52
1, 30710, Note_on_c, 0, 72, 63
1, 30721, Control_c, 0, 64, 50
1, 30736, Control_c, 0, 64, 47
1, 30750, Control_c, 0, 64, 44
1, 30757, Note_off_c, 0, 51, 62
1, 30765, Control_c, 0, 64, 41
1, 30768, Note_off_c, 0, 72, 64
1, 30775, Note_on_c, 0, 55, 71
1, 30780, Control_c, 0, 64, 36
1, 30783, Note_on_c, 0, 67, 76
1, 30795, Control_c, 0, 64, 28
1, 30810, Control_c, 0, 64, 12
1, 30822, Note_off_c, 0, 55, 62
1, 30824, Control_c, 0, 64, 0
1, 30828, Note_off_c, 0, 67, 62
1, 30874, Note_on_c, 0, 60, 71
1, 30882, Note_on_c, 0, 63, 74
1, 30917, Note_off_c, 0, 63, 67
1, 30933, Note_off_c, 0, 60, 0
1, 30971, Poly_aftertouch_c, 0, 60, 127
1, 30978, Note_on_c, 0, 63, 69
1, 31007, Poly_aftertouch_c, 0, 60, 0
1, 31008, Note_off_c, 0, 63, 67
1, 31048, Poly_aftertouch_c, 0, 60, 0
1, 31056, Note_on_c, 0, 60, 66
1, 31064, Note_on_c, 0, 63, 81
1, 31088, Note_off_c, 0, 63, 68
1, 31094, Note_off_c, 0, 60, 68
1, 31149, Note_on_c, 0, 63, 79
1, 31164, Note_on_c, 0, 60, 58
1, 31179, Note_off_c, 0, 63, 63
1, 31201, Note_off_c, 0, 60, 65
1, 31240, Note_on_c, 0, 63, 74
1, 31257, Note_on_c, 0, 60, 66
1, 31280, Note_off_c, 0, 63, 59
1, 31291, Note_off_c, 0, 60, 65
1, 31337, Note_on_c, 0, 63, 64
1, 31364, Note_off_c, 0, 63, 66
1, 31439, Control_c, 0, 64, 30
1, 31450, Note_on_c, 0, 59, 61
1, 31454, Control_c, 0, 64, 47
1, 31464, Note_on_c, 0, 62, 53
1, 31469, Control_c, 0, 64, 58
1, 31484, Control_c, 0, 64, 65
1, 31500, Control_c, 0, 64, 74
1, 31508, Note_off_c, 0, 59, 60
1, 31515, Note_off_c, 0, 62, 57
1, 31515, Control_c, 0, 64, 94
1, 31529, Control_c, 0, 64, 127
1, 31545, Note_on_c, 0, 55, 61
1, 31559, Note_on_c, 0, 67, 68
1, 31609, Note_off_c, 0, 55, 63
1, 31627, Note_off_c, 0, 67, 63
1, 31648, Note_on_c, 0, 50, 64
1, 31657, Note_on_c, 0, 71, 71
1, 31676, Note_off_c, 0, 50, 66
1, 31683, Note_off_c, 0, 71, 67
1, 31740, Note_on_c, 0, 47, 64
1, 31749, Note_on_c, 0, 74, 63
1, 31788, Control_c, 0, 64, 105
1, 31794, Note_on_c, 0, 76, 23
1, 31800, Note_off_c, 0, 47, 58
1, 31803, Control_c, 0, 64, 89
1, 31816, Note_off_c, 0, 74, 63
1, 31818, Control_c, 0, 64, 78
1, 31824, Note_on_c, 0, 43, 62
1, 31831, Note_off_c, 0, 76, 34
1, 31833, Control_c, 0, 64, 69
1, 31839, Note_on_c, 0, 79, 72
1, 31848, Control_c, 0, 64, 62
1, 31863, Control_c, 0, 64, 54
1, 31878, Control_c, 0, 64, 48
1, 31884, Note_off_c, 0, 43, 63
1, 31893, Control_c, 0, 64, 47
1, 31912, Note_on_c, 0, 38, 59
1, 31914, Note_off_c, 0, 79, 66
1, 31922, Control_c, 0, 64, 45
1, 31930, Note_on_c, 0, 83, 81
1, 31937, Control_c, 0, 64, 42
1, 31952, Control_c, 0, 64, 37
1, 31967, Control_c, 0, 64, 31
1, 31981, Control_c, 0, 64, 27
1, 31995, Note_off_c, 0, 38, 61
1, 31996, Control_c, 0, 64, 22
1, 31997, Note_on_c, 0, 35, 59
1, 32011, Control_c, 0, 64, 12
1, 32018, Note_on_c, 0, 86, 82
1, 32021, Note_off_c, 0, 83, 64
1, 32026, Control_c, 0, 64, 0
1, 32033, Note_off_c, 0, 35, 61
1, 32051, Note_off_c, 0, 86, 67
1, 32104, Note_on_c, 0, 86, 83
1, 32105, Note_on_c, 0, 35, 63
1, 32137, Note_off_c, 0, 35, 62
1, 32144, Note_off_c, 0, 86, 64
1, 32195, Note_on_c, 0, 86, 82
1, 32210, Note_on_c, 0, 35, 59
1, 32232, Note_off_c, 0, 86, 66
1, 32244, Note_off_c, 0, 35, 62
1, 32287, Note_on_c, 0, 86, 81
1, 32309, Note_on_c, 0, 35, 39
1, 32327, Note_off_c, 0, 86, 66
1, 32358, Note_off_c, 0, 35, 0
1, 32374, Note_on_c, 0, 35, 44
1, 32382, Note_on_c, 0, 86, 79
1, 32425, Note_off_c, 0, 35, 62
1, 32426, Note_off_c, 0, 86, 66
1, 32456, Poly_aftertouch_c, 0, 86, 0
1, 32461, Note_on_c, 0, 86, 72
1, 32489, Note_off_c, 0, 86, 66
1, 32570, Note_on_c, 0, 85, 82
1, 32582, Control_c, 0, 64, 38
1, 32584, Note_on_c, 0, 34, 55
1, 32596, Control_c, 0, 64, 55
1, 32611, Control_c, 0, 64, 63
1, 32626, Control_c, 0, 64, 67
1, 32641, Control_c, 0, 64, 71
1, 32656, Control_c, 0, 64, 76
1, 32671, Control_c, 0, 64, 81
1, 32676, Note_off_c, 0, 85, 64
1, 32677, Note_off_c, 0, 34, 61
1, 32685, Control_c, 0, 64, 85
1, 32688, Note_on_c, 0, 37, 64
1, 32691, Note_on_c, 0, 83, 59
1, 32692, Note_on_c, 0, 82, 43
1, 32700, Control_c, 0, 64, 87
1, 32715, Control_c, 0, 64, 89
1, 32716, Note_off_c, 0, 83, 59
1, 32719, Note_off_c, 0, 82, 54
1, 32760, Control_c, 0, 64, 88
1, 32763, Note_off_c, 0, 37, 61
1, 32771, Note_on_c, 0, 78, 66
1, 32775, Control_c, 0, 64, 88
1, 32778, Note_on_c, 0, 42, 73
1, 32790, Control_c, 0, 64, 87
1, 32804, Control_c, 0, 64, 87
1, 32805, Note_off_c, 0, 78, 63
1, 32819, Note_off_c, 0, 42, 61
1, 32819, Control_c, 0, 64, 86
1, 32834, Control_c, 0, 64, 85
1, 32849, Control_c, 0, 64, 84
1, 32863, Note_on_c, 0, 73, 72
1, 32864, Control_c, 0, 64, 83
1, 32878, Control_c, 0, 64, 81
1, 32879, Note_on_c, 0, 46, 64
1, 32893, Control_c, 0, 64, 77
1, 32908, Control_c, 0, 64, 72
1, 32922, Control_c, 0, 64, 67
1, 32936, Note_off_c, 0, 73, 62
1, 32937, Control_c, 0, 64, 62
1, 32943, Note_off_c, 0, 46, 59
1, 32952, Control_c, 0, 64, 56
1, 32964, Note_on_c, 0, 70, 68
1, 32967, Control_c, 0, 64, 52
1, 32971, Note_on_c, 0, 49, 66
1, 32982, Control_c, 0, 64, 48
1, 32996, Control_c, 0, 64, 45
1, 33011, Control_c, 0, 64, 40
1, 33019, Note_off_c, 0, 70, 63
1, 33022, Note_off_c, 0, 49, 61
1, 33026, Control_c, 0, 64, 31
1, 33041, Control_c, 0, 64, 17
1, 33050, Note_on_c, 0, 66, 65
1, 33055, Note_on_c, 0, 54, 75
1, 33056, Control_c, 0, 64, 0
1, 33085, Note_off_c, 0, 66, 64
1, 33109, Note_off_c, 0, 54, 51
1, 33142, Note_on_c, 0, 58, 69
1, 33144, Note_on_c, 0, 61, 76
1, 33180, Note_off_c, 0, 61, 66
1, 33181, Note_off_c, 0, 58, 65
1, 33240, Note_on_c, 0, 61, 75
1, 33252, Note_on_c, 0, 58, 66
1, 33270, Note_off_c, 0, 61, 64
1, 33281, Note_off_c, 0, 58, 66
1, 33332, Note_on_c, 0, 58, 75
1, 33332, Note_on_c, 0, 61, 79
1, 33364, Note_off_c, 0, 61, 64
1, 33365, Note_off_c, 0, 58, 64
1, 33424, Note_on_c, 0, 61, 76
1, 33427, Note_on_c, 0, 58, 61
1, 33452, Note_off_c, 0, 61, 64
1, 33463, Note_off_c, 0, 58, 65
1, 33511, Note_on_c, 0, 61, 76
1, 33531, Note_on_c, 0, 58, 70
1, 33538, Note_off_c, 0, 61, 67
1, 33568, Note_off_c, 0, 58, 64
1, 33602, Note_on_c, 0, 61, 73
1, 33647, Note_off_c, 0, 61, 61
1, 33696, Note_on_c, 0, 57, 74
1, 33696, Note_on_c, 0, 60, 81
1, 33731, Control_c, 0, 64, 34
1, 33745, Control_c, 0, 64, 55
1, 33760, Note_off_c, 0, 60, 63
1, 33760, Control_c, 0, 64, 63
1, 33762, Note_off_c, 0, 57, 63
1, 33775, Control_c, 0, 64, 68
1, 33786, Note_on_c, 0, 65, 75
1, 33790, Control_c, 0, 64, 74
1, 33792, Note_on_c, 0, 53, 61
1, 33805, Control_c, 0, 64, 80
1, 33819, Control_c, 0, 64, 84
1, 33834, Control_c, 0, 64, 84
1, 33849, Control_c, 0, 64, 84
1, 33854, Note_off_c, 0, 65, 63
1, 33859, Note_off_c, 0, 53, 63
1, 33864, Control_c, 0, 64, 83
1, 33878, Control_c, 0, 64, 83
1, 33884, Note_on_c, 0, 48, 68
1, 33899, Note_on_c, 0, 69, 72
1, 33902, Control_c, 0, 64, 82
1, 33917, Control_c, 0, 64, 82
1, 33922, Note_off_c, 0, 48, 66
1, 33923, Note_off_c, 0, 69, 69
1, 33931, Control_c, 0, 64, 80
1, 33946, Control_c, 0, 64, 79
1, 33961, Control_c, 0, 64, 77
1, 33975, Control_c, 0, 64, 75
1, 33983, Note_on_c, 0, 72, 77
1, 33990, Control_c, 0, 64, 72
1, 33993, Note_on_c, 0, 45, 55
1, 34005, Control_c, 0, 64, 67
1, 34020, Control_c, 0, 64, 63
1, 34035, Control_c, 0, 64, 60
1, 34049, Note_off_c, 0, 72, 63
1, 34049, Control_c, 0, 64, 56
1, 34050, Note_off_c, 0, 45, 61
1, 34064, Control_c, 0, 64, 54
1, 34077, Note_on_c, 0, 77, 76
1, 34079, Control_c, 0, 64, 53
1, 34081, Note_on_c, 0, 41, 61
1, 34094, Control_c, 0, 64, 53
1, 34109, Control_c, 0, 64, 51
1, 34123, Control_c, 0, 64, 49
1, 34133, Note_off_c, 0, 41, 63
1, 34138, Control_c, 0, 64, 47
1, 34152, Note_off_c, 0, 77, 63
1, 34153, Control_c, 0, 64, 45
1, 34159, Note_on_c, 0, 36, 60
1, 34167, Control_c, 0, 64, 43
1, 34170, Note_on_c, 0, 81, 79
1, 34182, Control_c, 0, 64, 41
1, 34197, Control_c, 0, 64, 40
1, 34212, Control_c, 0, 64, 40
1, 34227, Control_c, 0, 64, 39
1, 34240, Note_off_c, 0, 36, 61
1, 34242, Control_c, 0, 64, 39
1, 34243, Note_on_c, 0, 33, 65
1, 34259, Note_off_c, 0, 81, 64
1, 34259, Note_on_c, 0, 84, 80
1, 34271, Control_c, 0, 64, 38
1, 34278, Note_off_c, 0, 33, 65
1, 34286, Control_c, 0, 64, 38
1, 34296, Note_off_c, 0, 84, 65
1, 34316, Control_c, 0, 64, 37
1, 34331, Control_c, 0, 64, 37
1, 34346, Control_c, 0, 64, 36
1, 34346, Note_on_c, 0, 84, 78
1, 34352, Note_on_c, 0, 33, 65
1, 34375, Control_c, 0, 64, 36
1, 34382, Note_off_c, 0, 33, 63
1, 34385, Note_off_c, 0, 84, 66
1, 34435, Note_on_c, 0, 84, 83
1, 34462, Note_on_c, 0, 33, 54
1, 34473, Note_off_c, 0, 84, 67
1, 34479, Control_c, 0, 64, 35
1, 34493, Control_c, 0, 64, 35
1, 34515, Note_off_c, 0, 33, 0
1, 34530, Note_on_c, 0, 84, 75
1, 34552, Poly_aftertouch_c, 0, 33, 127
1, 34564, Note_off_c, 0, 84, 65
1, 34597, Control_c, 0, 64, 34
1, 34620, Note_on_c, 0, 84, 76
1, 34627, Control_c, 0, 64, 34
1, 34664, Control_c, 0, 64, 37
1, 34665, Note_off_c, 0, 84, 64
1, 34670, Poly_aftertouch_c, 0, 33, 0
1, 34679, Control_c, 0, 64, 46
1, 34695, Control_c, 0, 64, 58
1, 34702, Note_on_c, 0, 84, 71
1, 34710, Control_c, 0, 64, 65
1, 34725, Control_c, 0, 64, 72
1, 34740, Note_off_c, 0, 84, 65
1, 34740, Control_c, 0, 64, 87
1, 34754, Control_c, 0, 64, 120
1, 34769, Control_c, 0, 64, 127
1, 34799, Control_c, 0, 64, 112
1, 34801, Note_on_c, 0, 32, 65
1, 34809, Note_on_c, 0, 84, 89
1, 34814, Control_c, 0, 64, 92
1, 34829, Control_c, 0, 64, 74
1, 34844, Control_c, 0, 64, 60
1, 34859, Control_c, 0, 64, 41
1, 34873, Control_c, 0, 64, 44
1, 34888, Control_c, 0, 64, 53
1, 34892, Note_on_c, 0, 80, 71
1, 34903, Control_c, 0, 64, 61
1, 34908, Note_off_c, 0, 32, 61
1, 34909, Note_on_c, 0, 36, 68
1, 34917, Control_c, 0, 64, 65
1, 34928, Note_off_c, 0, 84, 62
1, 34932, Control_c, 0, 64, 69
1, 34947, Control_c, 0, 64, 74
1, 34962, Control_c, 0, 64, 75
1, 34973, Note_off_c, 0, 36, 62
1, 34977, Note_on_c, 0, 77, 73
1, 34991, Note_off_c, 0, 80, 61
1, 34992, Control_c, 0, 64, 74
1, 35004, Note_on_c, 0, 41, 62
1, 35006, Control_c, 0, 64, 73
1, 35021, Control_c, 0, 64, 72
1, 35036, Note_off_c, 0, 77, 64
1, 35036, Control_c, 0, 64, 71
1, 35051, Control_c, 0, 64, 69
1, 35059, Note_off_c, 0, 41, 59
1, 35065, Control_c, 0, 64, 66
1, 35075, Note_on_c, 0, 72, 69
1, 35080, Control_c, 0, 64, 63
1, 35094, Note_on_c, 0, 44, 69
1, 35095, Control_c, 0, 64, 60
1, 35110, Control_c, 0, 64, 57
1, 35124, Control_c, 0, 64, 56
1, 35139, Note_off_c, 0, 72, 64
1, 35139, Control_c, 0, 64, 55
1, 35154, Control_c, 0, 64, 55
1, 35166, Note_off_c, 0, 44, 61
1, 35168, Note_on_c, 0, 68, 79
1, 35169, Control_c, 0, 64, 53
1, 35177, Note_on_c, 0, 48, 62
1, 35184, Control_c, 0, 64, 51
1, 35198, Control_c, 0, 64, 50
1, 35213, Control_c, 0, 64, 48
1, 35228, Control_c, 0, 64, 47
1, 35231, Note_off_c, 0, 48, 60
1, 35243, Control_c, 0, 64, 46
1, 35248, Note_on_c, 0, 65, 74
1, 35250, Note_off_c, 0, 68, 61
1, 35258, Control_c, 0, 64, 44
1, 35261, Note_on_c, 0, 53, 69
1, 35273, Control_c, 0, 64, 40
1, 35288, Control_c, 0, 64, 34
1, 35300, Note_off_c, 0, 65, 62
1, 35303, Control_c, 0, 64, 25
1, 35317, Control_c, 0, 64, 16
1, 35332, Control_c, 0, 64, 0
1, 35339, Note_on_c, 0, 60, 78
1, 35353, Note_on_c, 0, 56, 77
1, 35353, Note_off_c, 0, 53, 61
1, 35377, Note_off_c, 0, 60, 65
1, 35384, Note_off_c, 0, 56, 65
1, 35435, Note_on_c, 0, 60, 76
1, 35455, Note_on_c, 0, 56, 76
1, 35470, Note_off_c, 0, 60, 67
1, 35483, Note_off_c, 0, 56, 67
1, 35532, Note_on_c, 0, 60, 81
1, 35544, Note_on_c, 0, 56, 77
1, 35567, Note_off_c, 0, 60, 66
1, 35595, Note_off_c, 0, 56, 61
1, 35607, Control_c, 0, 64, 11
1, 35617, Note_on_c, 0, 60, 80
1, 35622, Control_c, 0, 64, 30
1, 35637, Control_c, 0, 64, 34
1, 35638, Note_on_c, 0, 56, 65
1, 35656, Note_off_c, 0, 60, 65
1, 35678, Note_off_c, 0, 56, 66
1, 35712, Note_on_c, 0, 60, 81
1, 35741, Control_c, 0, 64, 36
1, 35745, Note_off_c, 0, 60, 68
1, 35750, Note_on_c, 0, 56, 65
1, 35755, Control_c, 0, 64, 38
1, 35770, Control_c, 0, 64, 43
1, 35785, Control_c, 0, 64, 48
1, 35792, Note_off_c, 0, 56, 64
1, 35799, Note_on_c, 0, 60, 78
1, 35800, Control_c, 0, 64, 53
1, 35815, Control_c, 0, 64, 55
1, 35828, Note_off_c, 0, 60, 63
1, 35829, Control_c, 0, 64, 57
1, 35844, Control_c, 0, 64, 57
1, 35859, Control_c, 0, 64, 58
1, 35874, Control_c, 0, 64, 58
1, 35897, Note_on_c, 0, 59, 86
1, 35903, Control_c, 0, 64, 58
1, 35908, Note_on_c, 0, 55, 71
1, 35918, Control_c, 0, 64, 56
1, 35933, Control_c, 0, 64, 51
1, 35947, Control_c, 0, 64, 39
1, 35962, Control_c, 0, 64, 0
1, 35982, Note_off_c, 0, 59, 62
1, 35990, Note_on_c, 0, 62, 80
1, 36003, Note_on_c, 0, 50, 68
1, 36010, Note_off_c, 0, 55, 61
1, 36073, Note_off_c, 0, 62, 64
1, 36081, Control_c, 0, 64, 35
1, 36084, Note_on_c, 0, 67, 76
1, 36096, Control_c, 0, 64, 54
1, 36107, Note_off_c, 0, 50, 63
1, 36108, Note_on_c, 0, 47, 70
1, 36111, Control_c, 0, 64, 62
1, 36125, Control_c, 0, 64, 65
1, 36147, Control_c, 0, 64, 67
1, 36162, Control_c, 0, 64, 69
1, 36176, Note_off_c, 0, 67, 63
1, 36177, Note_on_c, 0, 71, 79
1, 36185, Note_on_c, 0, 43, 66
1, 36188, Note_off_c, 0, 47, 61
1, 36192, Control_c, 0, 64, 68
1, 36207, Control_c, 0, 64, 67
1, 36221, Control_c, 0, 64, 66
1, 36236, Control_c, 0, 64, 63
1, 36251, Control_c, 0, 64, 56
1, 36256, Note_off_c, 0, 71, 59
1, 36266, Control_c, 0, 64, 45
1, 36281, Control_c, 0, 64, 30
1, 36285, Note_on_c, 0, 67, 74
1, 36292, Note_on_c, 0, 53, 78
1, 36297, Control_c, 0, 64, 0
1, 36314, Note_off_c, 0, 43, 61
1, 36336, Note_off_c, 0, 67, 55
1, 36373, Note_on_c, 0, 71, 82
1, 36378, Note_on_c, 0, 50, 73
1, 36385, Note_off_c, 0, 53, 61
1, 36476, Note_off_c, 0, 71, 63
1, 36478, Note_on_c, 0, 47, 75
1, 36481, Note_on_c, 0, 74, 73
1, 36489, Control_c, 0, 64, 9
1, 36501, Note_off_c, 0, 50, 43
1, 36504, Control_c, 0, 64, 12
1, 36534, Control_c, 0, 64, 0
1, 36564, Note_on_c, 0, 44, 76
1, 36578, Note_on_c, 0, 77, 82
1, 36581, Note_off_c, 0, 47, 60
1, 36594, Note_off_c, 0, 74, 61
1, 36638, Control_c, 0, 64, 36
1, 36638, Note_off_c, 0, 44, 63
1, 36652, Control_c, 0, 64, 53
1, 36656, Note_on_c, 0, 41, 79
1, 36667, Control_c, 0, 64, 61
1, 36668, Note_on_c, 0, 80, 82
1, 36676, Note_off_c, 0, 77, 61
1, 36682, Control_c, 0, 64, 64
1, 36697, Control_c, 0, 64, 66
1, 36712, Control_c, 0, 64, 67
1, 36714, Note_off_c, 0, 80, 66
1, 36726, Control_c, 0, 64, 68
1, 36749, Note_off_c, 0, 41, 63
1, 36752, Note_on_c, 0, 38, 73
1, 36756, Control_c, 0, 64, 67
1, 36759, Note_on_c, 0, 83, 88
1, 36815, Control_c, 0, 64, 67
1, 36832, Note_on_c, 0, 35, 73
1, 36844, Note_on_c, 0, 86, 91
1, 36844, Control_c, 0, 64, 66
1, 36847, Note_off_c, 0, 38, 61
1, 36861, Note_off_c, 0, 83, 63
1, 36912, Control_c, 0, 64, 66
1, 36941, Control_c, 0, 64, 65
1, 36945, Note_on_c, 0, 89, 84
1, 36952, Note_on_c, 0, 32, 74
1, 36956, Control_c, 0, 64, 65
1, 36968, Note_off_c, 0, 35, 60
1, 36970, Control_c, 0, 64, 64
1, 36971, Note_off_c, 0, 86, 66
1, 36985, Control_c, 0, 64, 63
1, 37000, Control_c, 0, 64, 56
1, 37015, Control_c, 0, 64, 25
1, 37030, Control_c, 0, 64, 0
1, 37035, Note_on_c, 0, 29, 70
1, 37040, Note_on_c, 0, 92, 93
1, 37046, Note_off_c, 0, 32, 58
1, 37058, Note_off_c, 0, 89, 62
1, 37105, Control_c, 0, 64, 35
1, 37120, Control_c, 0, 64, 56
1, 37124, Note_on_c, 0, 89, 80
1, 37135, Control_c, 0, 64, 64
1, 37138, Note_on_c, 0, 32, 46
1, 37149, Control_c, 0, 64, 69
1, 37164, Control_c, 0, 64, 74
1, 37174, Note_on_c, 0, 35, 65
1, 37179, Control_c, 0, 64, 80
1, 37180, Note_off_c, 0, 92, 63
1, 37193, Control_c, 0, 64, 82
1, 37202, Note_on_c, 0, 86, 80
1, 37203, Note_off_c, 0, 29, 51
1, 37212, Note_off_c, 0, 89, 63
1, 37231, Note_off_c, 0, 32, 56
1, 37238, Control_c, 0, 64, 81
1, 37245, Note_on_c, 0, 38, 61
1, 37252, Note_off_c, 0, 86, 65
1, 37253, Control_c, 0, 64, 81
1, 37270, Note_off_c, 0, 35, 59
1, 37289, Note_on_c, 0, 83, 65
1, 37303, Note_off_c, 0, 38, 60
1, 37312, Control_c, 0, 64, 80
1, 37313, Note_on_c, 0, 81, 56
1, 37317, Note_on_c, 0, 41, 78
1, 37331, Note_off_c, 0, 81, 64
1, 37342, Control_c, 0, 64, 80
1, 37356, Note_on_c, 0, 80, 83
1, 37356, Note_off_c, 0, 83, 63
1, 37357, Control_c, 0, 64, 79
1, 37371, Control_c, 0, 64, 77
1, 37386, Control_c, 0, 64, 72
1, 37401, Control_c, 0, 64, 66
1, 37407, Note_off_c, 0, 80, 64
1, 37411, Note_on_c, 0, 44, 72
1, 37416, Control_c, 0, 64, 57
1, 37419, Note_off_c, 0, 41, 63
1, 37431, Control_c, 0, 64, 42
1, 37446, Note_on_c, 0, 77, 85
1, 37446, Control_c, 0, 64, 25
1, 37461, Control_c, 0, 64, 22
1, 37475, Control_c, 0, 64, 22
1, 37476, Note_off_c, 0, 44, 61
1, 37505, Note_on_c, 0, 41, 67
1, 37520, Control_c, 0, 64, 21
1, 37526, Note_off_c, 0, 77, 55
1, 37535, Note_on_c, 0, 83, 72
1, 37549, Control_c, 0, 64, 20
1, 37557, Note_off_c, 0, 41, 57
1, 37601, Note_off_c, 0, 83, 50
1, 37605, Note_on_c, 0, 38, 55
1, 37616, Note_on_c, 0, 86, 76
1, 37682, Note_off_c, 0, 38, 61
1, 37695, Note_off_c, 0, 86, 62
1, 37702, Note_on_c, 0, 35, 57
1, 37715, Note_on_c, 0, 89, 77
1, 37794, Control_c, 0, 64, 19
1, 37796, Note_off_c, 0, 35, 59
1, 37804, Note_on_c, 0, 91, 77
1, 37807, Note_on_c, 0, 31, 64
1, 37808, Control_c, 0, 64, 17
1, 37823, Control_c, 0, 64, 9
1, 37831, Note_off_c, 0, 89, 50
1, 37838, Control_c, 0, 64, 0
1, 37874, Note_off_c, 0, 91, 63
1, 37877, Note_on_c, 0, 86, 71
1, 37880, Note_off_c, 0, 31, 63
1, 37917, Note_on_c, 0, 35, 48
1, 37959, Note_off_c, 0, 35, 61
1, 37962, Note_off_c, 0, 86, 63
1, 37984, Note_on_c, 0, 83, 70
1, 37994, Note_on_c, 0, 38, 42
1, 38026, Note_off_c, 0, 38, 57
1, 38041, Note_off_c, 0, 83, 60
1, 38073, Note_on_c, 0, 43, 54
1, 38078, Note_on_c, 0, 79, 74
1, 38122, Note_off_c, 0, 79, 60
1, 38130, Note_off_c, 0, 43, 62
1, 38174, Note_on_c, 0, 87, 79
1, 38188, Note_on_c, 0, 36, 51
1, 38247, Note_off_c, 0, 87, 62
1, 38260, Note_on_c, 0, 84, 69
1, 38265, Note_off_c, 0, 36, 61
1, 38274, Note_on_c, 0, 39, 57
1, 38307, Note_off_c, 0, 84, 63
1, 38330, Note_off_c, 0, 39, 62
1, 38359, Note_on_c, 0, 43, 53
1, 38360, Note_on_c, 0, 79, 66
1, 38408, Note_off_c, 0, 43, 63
1, 38416, Note_off_c, 0, 79, 58
1, 38453, Note_on_c, 0, 48, 51
1, 38459, Note_on_c, 0, 75, 65
1, 38512, Note_off_c, 0, 75, 48
1, 38528, Note_off_c, 0, 48, 56
1, 38546, Note_on_c, 0, 51, 59
1, 38555, Note_on_c, 0, 72, 67
1, 38597, Note_off_c, 0, 51, 60
1, 38614, Note_off_c, 0, 72, 64
1, 38614, Control_c, 0, 67, 16
1, 38629, Control_c, 0, 67, 34
1, 38644, Note_on_c, 0, 48, 55
1, 38644, Control_c, 0, 67, 51
1, 38659, Control_c, 0, 67, 66
1, 38674, Control_c, 0, 67, 79
1, 38690, Control_c, 0, 67, 90
1, 38702, Note_off_c, 0, 48, 59
1, 38705, Control_c, 0, 67, 97
1, 38719, Control_c, 0, 67, 104
1, 38734, Control_c, 0, 67, 110
1, 38744, Note_on_c, 0, 43, 50
1, 38749, Control_c, 0, 67, 117
1, 38764, Control_c, 0, 67, 124
1, 38778, Control_c, 0, 67, 127
1, 38806, Note_off_c, 0, 43, 60
1, 38851, Note_on_c, 0, 39, 43
1, 38853, Control_c, 0, 67, 127
1, 38868, Control_c, 0, 67, 125
1, 38883, Control_c, 0, 67, 124
1, 38898, Control_c, 0, 67, 123
1, 38912, Control_c, 0, 67, 122
1, 38927, Control_c, 0, 67, 121
1, 38942, Control_c, 0, 67, 120
1, 38942, Note_off_c, 0, 39, 54
1, 38956, Control_c, 0, 67, 120
1, 38986, Control_c, 0, 67, 119
1, 38998, Note_on_c, 0, 36, 38
1, 39030, Control_c, 0, 67, 119
1, 39045, Control_c, 0, 67, 118
1, 39060, Control_c, 0, 67, 117
1, 39075, Control_c, 0, 67, 117
1, 39090, Control_c, 0, 64, 13
1, 39090, Control_c, 0, 67, 116
1, 39105, Control_c, 0, 64, 30
1, 39119, Control_c, 0, 64, 43
1, 39119, Control_c, 0, 67, 115
1, 39142, Control_c, 0, 64, 52
1, 39142, Control_c, 0, 67, 115
1, 39157, Control_c, 0, 64, 57
1, 39171, Control_c, 0, 64, 59
1, 39171, Control_c, 0, 67, 114
1, 39186, Control_c, 0, 64, 61
1, 39186, Control_c, 0, 67, 114
1, 39202, Control_c, 0, 64, 62
1, 39217, Control_c, 0, 64, 64
1, 39232, Control_c, 0, 64, 65
1, 39246, Note_off_c, 0, 36, 43
1, 39246, Control_c, 0, 64, 66
1, 39261, Control_c, 0, 64, 66
1, 39276, Control_c, 0, 64, 67
1, 39291, Control_c, 0, 64, 66
1, 39320, Control_c, 0, 64, 66
1, 39335, Control_c, 0, 64, 65
1, 39350, Control_c, 0, 64, 64
1, 39364, Control_c, 0, 64, 61
1, 39379, Control_c, 0, 64, 55
1, 39394, Control_c, 0, 64, 42
1, 39409, Control_c, 0, 64, 0
1, 39453, Control_c, 0, 67, 113
1, 39499, Control_c, 0, 67, 112
1, 39558, Control_c, 0, 67, 112
1, 39587, Control_c, 0, 67, 111
1, 39647, Control_c, 0, 64, 22
1, 39647, Control_c, 0, 67, 110
1, 39661, Control_c, 0, 64, 41
1, 39676, Control_c, 0, 64, 53
1, 39676, Control_c, 0, 67, 110
1, 39691, Control_c, 0, 64, 61
1, 39706, Control_c, 0, 64, 64
1, 39706, Control_c, 0, 67, 109
1, 39721, Control_c, 0, 64, 66
1, 39735, Control_c, 0, 64, 68
1, 39736, Note_on_c, 0, 36, 45
1, 39741, Note_on_c, 0, 55, 51
1, 39741, Note_on_c, 0, 67, 47
1, 39750, Control_c, 0, 64, 69
1, 39765, Control_c, 0, 64, 70
1, 39792, Note_off_c, 0, 36, 59
1, 39795, Control_c, 0, 64, 69
1, 39797, Note_off_c, 0, 55, 59
1, 39810, Control_c, 0, 64, 69
1, 39825, Control_c, 0, 64, 68
1, 39840, Control_c, 0, 64, 66
1, 39854, Control_c, 0, 64, 64
1, 39869, Control_c, 0, 64, 60
1, 39884, Note_on_c, 0, 60, 50
1, 39891, Control_c, 0, 64, 56
1, 39906, Control_c, 0, 64, 51
1, 39921, Note_off_c, 0, 60, 65
1, 39921, Control_c, 0, 64, 49
1, 39935, Control_c, 0, 64, 46
1, 39940, Note_off_c, 0, 67, 40
1, 39950, Control_c, 0, 64, 41
1, 39965, Control_c, 0, 64, 28
1, 39980, Control_c, 0, 64, 0
1, 39986, Note_on_c, 0, 63, 56
1, 40026, Note_off_c, 0, 63, 63
1, 40054, Control_c, 0, 67, 109
1, 40069, Control_c, 0, 67, 108
1, 40084, Control_c, 0, 64, 27
1, 40084, Control_c, 0, 67, 107
1, 40099, Control_c, 0, 64, 47
1, 40099, Control_c, 0, 67, 107
1, 40114, Control_c, 0, 64, 59
1, 40116, Note_on_c, 0, 36, 53
1, 40126, Note_on_c, 0, 62, 54
1, 40126, Note_on_c, 0, 67, 55
1, 40129, Control_c, 0, 64, 64
1, 40129, Control_c, 0, 67, 106
1, 40143, Control_c, 0, 64, 67
1, 40143, Control_c, 0, 67, 105
1, 40149, Note_off_c, 0, 36, 62
1, 40158, Control_c, 0, 64, 69
1, 40158, Control_c, 0, 67, 104
1, 40162, Note_off_c, 0, 62, 64
1, 40187, Control_c, 0, 64, 68
1, 40202, Control_c, 0, 64, 68
1, 40217, Control_c, 0, 64, 67
1, 40232, Control_c, 0, 64, 67
1, 40242, Note_off_c, 0, 67, 51
1, 40247, Control_c, 0, 64, 66
1, 40255, Note_on_c, 0, 63, 57
1, 40261, Control_c, 0, 64, 64
1, 40276, Control_c, 0, 64, 62
1, 40292, Control_c, 0, 64, 59
1, 40298, Note_off_c, 0, 63, 59
1, 40307, Control_c, 0, 64, 55
1, 40307, Control_c, 0, 67, 105
1, 40322, Control_c, 0, 64, 51
1, 40337, Control_c, 0, 64, 47
1, 40352, Control_c, 0, 64, 43
1, 40366, Control_c, 0, 64, 34
1, 40381, Control_c, 0, 64, 17
1, 40381, Control_c, 0, 67, 105
1, 40388, Note_on_c, 0, 60, 57
1, 40396, Control_c, 0, 64, 0
1, 40427, Note_off_c, 0, 60, 63
1, 40484, Control_c, 0, 67, 105
1, 40514, Control_c, 0, 64, 27
1, 40525, Note_on_c, 0, 67, 60
1, 40528, Note_on_c, 0, 36, 51
1, 40529, Control_c, 0, 64, 51
1, 40529, Control_c, 0, 67, 104
1, 40531, Note_on_c, 0, 55, 56
1, 40544, Control_c, 0, 64, 61
1, 40558, Control_c, 0, 64, 65
1, 40564, Note_off_c, 0, 36, 62
1, 40573, Control_c, 0, 64, 66
1, 40576, Note_off_c, 0, 55, 61
1, 40603, Control_c, 0, 64, 66
1, 40618, Control_c, 0, 64, 65
1, 40640, Control_c, 0, 64, 63
1, 40655, Control_c, 0, 64, 61
1, 40661, Note_on_c, 0, 60, 50
1, 40670, Control_c, 0, 64, 55
1, 40684, Control_c, 0, 64, 46
1, 40690, Note_off_c, 0, 67, 31
1, 40698, Control_c, 0, 64, 33
1, 40698, Control_c, 0, 67, 105
1, 40701, Note_off_c, 0, 60, 63
1, 40713, Control_c, 0, 64, 0
1, 40780, Note_on_c, 0, 63, 54
1, 40821, Note_off_c, 0, 63, 64
1, 40862, Control_c, 0, 67, 104
1, 40906, Control_c, 0, 64, 35
1, 40910, Note_on_c, 0, 67, 64
1, 40921, Control_c, 0, 64, 55
1, 40923, Note_on_c, 0, 55, 58
1, 40929, Note_on_c, 0, 35, 41
1, 40935, Control_c, 0, 64, 63
1, 40950, Control_c, 0, 64, 67
1, 40963, Note_off_c, 0, 55, 61
1, 40965, Control_c, 0, 64, 71
1, 40980, Control_c, 0, 64, 73
1, 41024, Control_c, 0, 64, 73
1, 41027, Note_off_c, 0, 67, 52
1, 41039, Control_c, 0, 64, 72
1, 41043, Note_on_c, 0, 59, 57
1, 41054, Control_c, 0, 64, 70
1, 41069, Control_c, 0, 64, 66
1, 41074, Note_off_c, 0, 35, 53
1, 41080, Note_off_c, 0, 59, 62
1, 41085, Control_c, 0, 64, 55
1, 41100, Control_c, 0, 64, 29
1, 41114, Control_c, 0, 64, 0
1, 41144, Control_c, 0, 67, 104
1, 41176, Note_on_c, 0, 62, 54
1, 41203, Control_c, 0, 67, 103
1, 41208, Note_off_c, 0, 62, 65
1, 41247, Control_c, 0, 67, 102
1, 41297, Note_on_c, 0, 61, 64
1, 41321, Control_c, 0, 67, 102
1, 41327, Note_off_c, 0, 61, 65
1, 41388, Control_c, 0, 67, 102
1, 41429, Note_on_c, 0, 62, 55
1, 41461, Note_off_c, 0, 62, 65
1, 41536, Control_c, 0, 67, 102
1, 41551, Note_on_c, 0, 59, 61
1, 41566, Control_c, 0, 67, 101
1, 41580, Note_off_c, 0, 59, 65
1, 41580, Control_c, 0, 67, 100
1, 41595, Control_c, 0, 67, 100
1, 41610, Control_c, 0, 67, 99
1, 41669, Note_on_c, 0, 55, 64
1, 41700, Control_c, 0, 67, 99
1, 41703, Note_off_c, 0, 55, 65
1, 41729, Control_c, 0, 67, 98
1, 41787, Note_on_c, 0, 59, 59
1, 41803, Control_c, 0, 67, 97
1, 41818, Note_off_c, 0, 59, 66
1, 41818, Control_c, 0, 67, 96
1, 41832, Control_c, 0, 67, 95
1, 41847, Control_c, 0, 67, 95
1, 41912, Note_on_c, 0, 62, 59
1, 41944, Note_off_c, 0, 62, 65
1, 41952, Control_c, 0, 64, 22
1, 41967, Control_c, 0, 64, 48
1, 41981, Control_c, 0, 64, 59
1, 41996, Control_c, 0, 64, 62
1, 42026, Control_c, 0, 64, 62
1, 42034, Note_on_c, 0, 34, 54
1, 42048, Note_on_c, 0, 73, 73
1, 42051, Note_on_c, 0, 61, 72
1, 42055, Control_c, 0, 67, 94
1, 42070, Control_c, 0, 64, 61
1, 42082, Note_off_c, 0, 61, 63
1, 42085, Control_c, 0, 64, 61
1, 42085, Control_c, 0, 67, 94
1, 42100, Control_c, 0, 64, 60
1, 42115, Control_c, 0, 64, 60
1, 42137, Control_c, 0, 64, 59
1, 42152, Control_c, 0, 64, 58
1, 42152, Control_c, 0, 67, 92
1, 42167, Control_c, 0, 64, 56
1, 42167, Control_c, 0, 67, 90
1, 42168, Note_off_c, 0, 73, 57
1, 42178, Note_on_c, 0, 64, 63
1, 42182, Control_c, 0, 64, 53
1, 42182, Control_c, 0, 67, 86
1, 42193, Note_off_c, 0, 34, 58
1, 42196, Control_c, 0, 64, 51
1, 42196, Control_c, 0, 67, 74
1, 42210, Note_off_c, 0, 64, 65
1, 42211, Control_c, 0, 64, 48
1, 42211, Control_c, 0, 67, 64
1, 42226, Control_c, 0, 64, 46
1, 42226, Control_c, 0, 67, 57
1, 42241, Control_c, 0, 64, 45
1, 42241, Control_c, 0, 67, 52
1, 42256, Control_c, 0, 64, 42
1, 42256, Control_c, 0, 67, 49
1, 42270, Control_c, 0, 64, 39
1, 42270, Control_c, 0, 67, 45
1, 42285, Control_c, 0, 64, 35
1, 42285, Control_c, 0, 67, 41
1, 42299, Note_on_c, 0, 67, 67
1, 42300, Control_c, 0, 64, 31
1, 42300, Control_c, 0, 67, 34
1, 42315, Control_c, 0, 64, 28
1, 42315, Control_c, 0, 67, 27
1, 42330, Control_c, 0, 64, 26
1, 42330, Control_c, 0, 67, 19
1, 42332, Note_off_c, 0, 67, 62
1, 42344, Control_c, 0, 64, 23
1, 42344, Control_c, 0, 67, 9
1, 42359, Control_c, 0, 64, 21
1, 42359, Control_c, 0, 67, 0
1, 42374, Control_c, 0, 64, 18
1, 42388, Control_c, 0, 64, 15
1, 42403, Control_c, 0, 64, 13
1, 42418, Control_c, 0, 64, 11
1, 42430, Note_on_c, 0, 73, 83
1, 42433, Control_c, 0, 64, 0
1, 42436, Note_on_c, 0, 34, 59
1, 42444, Note_on_c, 0, 66, 67
1, 42481, Note_off_c, 0, 66, 60
1, 42548, Note_off_c, 0, 73, 57
1, 42555, Note_on_c, 0, 67, 70
1, 42584, Note_off_c, 0, 34, 61
1, 42604, Note_off_c, 0, 67, 60
1, 42690, Note_on_c, 0, 64, 59
1, 42722, Note_off_c, 0, 64, 66
1, 42816, Note_on_c, 0, 73, 73
1, 42817, Note_on_c, 0, 61, 68
1, 42819, Note_on_c, 0, 34, 56
1, 42853, Note_off_c, 0, 61, 62
1, 42936, Note_off_c, 0, 73, 58
1, 42946, Note_on_c, 0, 64, 59
1, 42963, Note_off_c, 0, 34, 57
1, 42983, Note_off_c, 0, 64, 61
1, 43050, Control_c, 0, 67, 16
1, 43065, Control_c, 0, 67, 24
1, 43080, Control_c, 0, 67, 32
1, 43081, Note_on_c, 0, 67, 55
1, 43094, Control_c, 0, 67, 41
1, 43109, Control_c, 0, 67, 52
1, 43120, Note_off_c, 0, 67, 61
1, 43124, Control_c, 0, 67, 61
1, 43139, Control_c, 0, 67, 69
1, 43154, Control_c, 0, 67, 75
1, 43168, Control_c, 0, 67, 76
1, 43198, Control_c, 0, 67, 76
1, 43208, Note_on_c, 0, 72, 62
1, 43212, Control_c, 0, 67, 74
1, 43214, Note_on_c, 0, 33, 46
1, 43215, Note_on_c, 0, 60, 61
1, 43227, Control_c, 0, 67, 72
1, 43242, Control_c, 0, 67, 70
1, 43257, Control_c, 0, 67, 69
1, 43266, Note_off_c, 0, 60, 58
1, 43272, Control_c, 0, 67, 67
1, 43286, Control_c, 0, 67, 66
1, 43301, Control_c, 0, 67, 65
1, 43316, Control_c, 0, 67, 64
1, 43331, Control_c, 0, 67, 64
1, 43332, Note_off_c, 0, 72, 59
1, 43336, Note_on_c, 0, 65, 54
1, 43346, Control_c, 0, 67, 63
1, 43360, Control_c, 0, 67, 62
1, 43369, Note_off_c, 0, 33, 60
1, 43375, Note_off_c, 0, 65, 62
1, 43375, Control_c, 0, 67, 62
1, 43390, Control_c, 0, 67, 61
1, 43405, Control_c, 0, 67, 59
1, 43420, Control_c, 0, 67, 58
1, 43435, Control_c, 0, 67, 57
1, 43449, Control_c, 0, 67, 56
1, 43460, Note_on_c, 0, 69, 58
1, 43464, Control_c, 0, 67, 55
1, 43480, Control_c, 0, 67, 54
1, 43494, Note_off_c, 0, 69, 63
1, 43495, Control_c, 0, 67, 52
1, 43509, Control_c, 0, 67, 52
1, 43524, Control_c, 0, 67, 51
1, 43539, Control_c, 0, 67, 51
1, 43554, Control_c, 0, 67, 50
1, 43569, Control_c, 0, 67, 49
1, 43583, Note_on_c, 0, 68, 59
1, 43584, Control_c, 0, 67, 49
1, 43599, Control_c, 0, 67, 48
1, 43613, Control_c, 0, 67, 47
1, 43629, Note_off_c, 0, 68, 62
1, 43635, Control_c, 0, 67, 45
1, 43650, Control_c, 0, 67, 42
1, 43665, Control_c, 0, 67, 41
1, 43680, Control_c, 0, 67, 39
1, 43695, Control_c, 0, 67, 39
1, 43709, Note_on_c, 0, 69, 54
1, 43709, Control_c, 0, 67, 38
1, 43739, Control_c, 0, 67, 37
1, 43745, Note_off_c, 0, 69, 64
1, 43754, Control_c, 0, 67, 37
1, 43769, Control_c, 0, 67, 36
1, 43783, Control_c, 0, 67, 36
1, 43798, Control_c, 0, 67, 35
1, 43813, Control_c, 0, 67, 34
1, 43828, Note_on_c, 0, 65, 59
1, 43828, Control_c, 0, 67, 26
1, 43843, Control_c, 0, 67, 13
1, 43858, Control_c, 0, 67, 0
1, 43862, Note_off_c, 0, 65, 63
1, 43946, Note_on_c, 0, 60, 63
1, 43980, Note_off_c, 0, 60, 65
1, 44058, Note_on_c, 0, 65, 67
1, 44096, Note_off_c, 0, 65, 63
1, 44169, Note_on_c, 0, 69, 68
1, 44206, Note_off_c, 0, 69, 63
1, 44293, Note_on_c, 0, 32, 65
1, 44300, Note_on_c, 0, 72, 75
1, 44308, Note_on_c, 0, 60, 63
1, 44339, Note_off_c, 0, 60, 67
1, 44423, Note_on_c, 0, 63, 66
1, 44426, Note_off_c, 0, 72, 54
1, 44453, Note_off_c, 0, 32, 59
1, 44455, Note_off_c, 0, 63, 65
1, 44555, Note_on_c, 0, 66, 72
1, 44612, Note_off_c, 0, 66, 61
1, 44675, Note_on_c, 0, 32, 67
1, 44681, Note_on_c, 0, 65, 75
1, 44682, Note_on_c, 0, 72, 79
1, 44710, Note_off_c, 0, 65, 61
1, 44797, Note_on_c, 0, 66, 73
1, 44816, Note_off_c, 0, 72, 51
1, 44850, Note_off_c, 0, 66, 63
1, 44854, Note_off_c, 0, 32, 61
1, 44928, Note_on_c, 0, 63, 75
1, 44960, Note_off_c, 0, 63, 63
1, 45056, Note_on_c, 0, 32, 78
1, 45057, Note_on_c, 0, 72, 85
1, 45059, Note_on_c, 0, 60, 78
1, 45095, Note_off_c, 0, 60, 66
1, 45187, Note_on_c, 0, 63, 72
1, 45199, Note_off_c, 0, 72, 53
1, 45218, Note_off_c, 0, 32, 61
1, 45222, Note_off_c, 0, 63, 65
1, 45307, Note_on_c, 0, 66, 75
1, 45354, Note_off_c, 0, 66, 64
1, 45433, Note_on_c, 0, 72, 86
1, 45435, Note_on_c, 0, 60, 86
1, 45435, Note_on_c, 0, 31, 79
1, 45484, Note_off_c, 0, 60, 62
1, 45553, Note_off_c, 0, 31, 61
1, 45555, Note_on_c, 0, 63, 79
1, 45556, Note_off_c, 0, 72, 61
1, 45599, Note_off_c, 0, 63, 64
1, 45680, Note_on_c, 0, 67, 81
1, 45712, Note_off_c, 0, 67, 66
1, 45769, Control_c, 0, 64, 38
1, 45784, Control_c, 0, 64, 61
1, 45798, Control_c, 0, 64, 71
1, 45810, Note_on_c, 0, 41, 91
1, 45813, Note_on_c, 0, 68, 92
1, 45813, Note_on_c, 0, 80, 94
1, 45813, Control_c, 0, 64, 92
1, 45815, Note_on_c, 0, 29, 85
1, 45828, Control_c, 0, 64, 127
1, 45852, Note_off_c, 0, 68, 66
1, 45892, Note_off_c, 0, 80, 59
1, 45953, Note_on_c, 0, 72, 76
1, 45994, Note_off_c, 0, 72, 64
1, 46015, Control_c, 0, 64, 110
1, 46029, Control_c, 0, 64, 80
1, 46044, Control_c, 0, 64, 64
1, 46047, Note_off_c, 0, 29, 62
1, 46059, Control_c, 0, 64, 35
1, 46074, Control_c, 0, 64, 0
1, 46076, Note_off_c, 0, 41, 61
1, 46088, Note_on_c, 0, 74, 77
1, 46142, Note_off_c, 0, 74, 63
1, 46207, Control_c, 0, 67, 16
1, 46215, Note_on_c, 0, 77, 75
1, 46222, Control_c, 0, 67, 32
1, 46237, Control_c, 0, 67, 49
1, 46252, Control_c, 0, 67, 63
1, 46266, Control_c, 0, 67, 76
1, 46267, Note_off_c, 0, 77, 56
1, 46281, Control_c, 0, 67, 90
1, 46296, Control_c, 0, 67, 106
1, 46311, Control_c, 0, 67, 117
1, 46326, Control_c, 0, 67, 127
1, 46330, Note_on_c, 0, 80, 64
1, 46389, Note_off_c, 0, 80, 64
1, 46453, Note_on_c, 0, 77, 69
1, 46491, Note_off_c, 0, 77, 62
1, 46578, Note_on_c, 0, 74, 61
1, 46613, Note_off_c, 0, 74, 62
1, 46722, Note_on_c, 0, 72, 55
1, 46758, Note_off_c, 0, 72, 65
1, 46837, Note_on_c, 0, 68, 59
1, 46881, Note_off_c, 0, 68, 60
1, 46956, Note_on_c, 0, 65, 62
1, 47003, Note_off_c, 0, 65, 61
1, 47077, Note_on_c, 0, 62, 65
1, 47116, Note_off_c, 0, 62, 65
1, 47179, Control_c, 0, 67, 109
1, 47194, Control_c, 0, 64, 24
1, 47194, Control_c, 0, 67, 71
1, 47205, Note_on_c, 0, 60, 70
1, 47208, Control_c, 0, 64, 41
1, 47208, Control_c, 0, 67, 9
1, 47223, Control_c, 0, 64, 53
1, 47223, Control_c, 0, 67, 0
1, 47238, Control_c, 0, 64, 58
1, 47241, Note_off_c, 0, 60, 63
1, 47251, Note_on_c, 0, 53, 68
1, 47253, Control_c, 0, 64, 59
1, 47283, Control_c, 0, 64, 59
1, 47298, Control_c, 0, 64, 58
1, 47299, Note_off_c, 0, 53, 62
1, 47313, Control_c, 0, 64, 55
1, 47319, Note_on_c, 0, 55, 70
1, 47327, Control_c, 0, 64, 46
1, 47328, Note_on_c, 0, 59, 75
1, 47334, Note_on_c, 0, 67, 68
1, 47342, Control_c, 0, 64, 19
1, 47357, Control_c, 0, 64, 0
1, 47361, Note_off_c, 0, 59, 66
1, 47383, Note_off_c, 0, 55, 61
1, 47436, Note_off_c, 0, 67, 58
1, 47461, Note_on_c, 0, 62, 60
1, 47494, Note_off_c, 0, 62, 65
1, 47587, Note_on_c, 0, 59, 59
1, 47617, Control_c, 0, 67, 14
1, 47626, Note_off_c, 0, 59, 64
1, 47632, Control_c, 0, 67, 26
1, 47647, Control_c, 0, 67, 38
1, 47662, Control_c, 0, 67, 49
1, 47676, Control_c, 0, 67, 61
1, 47691, Control_c, 0, 67, 73
1, 47706, Control_c, 0, 67, 85
1, 47721, Control_c, 0, 67, 98
1, 47725, Note_on_c, 0, 60, 55
1, 47728, Note_on_c, 0, 67, 52
1, 47735, Note_on_c, 0, 48, 45
1, 47736, Control_c, 0, 67, 109
1, 47750, Control_c, 0, 67, 120
1, 47765, Control_c, 0, 67, 127
1, 47766, Note_off_c, 0, 60, 61
1, 47790, Note_off_c, 0, 48, 61
1, 47800, Note_off_c, 0, 67, 52
1, 47860, Note_on_c, 0, 63, 54
1, 47902, Note_off_c, 0, 63, 61
1, 47992, Note_on_c, 0, 60, 50
1, 48028, Note_off_c, 0, 60, 62
1, 48136, Note_on_c, 0, 67, 49
1, 48143, Note_on_c, 0, 59, 49
1, 48153, Note_on_c, 0, 43, 35
1, 48186, Note_off_c, 0, 59, 61
1, 48201, Note_off_c, 0, 67, 47
1, 48211, Note_off_c, 0, 43, 59
1, 48289, Note_on_c, 0, 62, 42
1, 48316, Note_off_c, 0, 62, 58
1, 48407, Note_on_c, 0, 59, 49
1, 48449, Note_off_c, 0, 59, 62
1, 48574, Note_on_c, 0, 60, 45
1, 48578, Note_on_c, 0, 36, 39
1, 48579, Note_on_c, 0, 67, 40
1, 48633, Note_off_c, 0, 60, 56
1, 48651, Note_off_c, 0, 67, 51
1, 48676, Note_off_c, 0, 36, 58
1, 48740, Note_on_c, 0, 63, 39
1, 48781, Note_off_c, 0, 63, 55
1, 48906, Note_on_c, 0, 60, 42
1, 48944, Note_off_c, 0, 60, 64
1, 49113, Control_c, 0, 64, 35
1, 49128, Control_c, 0, 64, 52
1, 49143, Control_c, 0, 64, 60
1, 49158, Control_c, 0, 64, 63
1, 49173, Control_c, 0, 64, 66
1, 49183, Note_on_c, 0, 48, 53
1, 49188, Control_c, 0, 64, 69
1, 49202, Control_c, 0, 64, 72
1, 49207, Note_off_c, 0, 48, 60
1, 49217, Control_c, 0, 64, 75
1, 49232, Control_c, 0, 64, 78
1, 49246, Control_c, 0, 64, 80
1, 49261, Control_c, 0, 64, 80
1, 49276, Control_c, 0, 64, 80
1, 49291, Control_c, 0, 64, 79
1, 49306, Control_c, 0, 64, 78
1, 49320, Control_c, 0, 64, 77
1, 49325, Note_on_c, 0, 67, 68
1, 49335, Control_c, 0, 64, 75
1, 49342, Note_on_c, 0, 60, 58
1, 49350, Control_c, 0, 64, 72
1, 49352, Note_on_c, 0, 63, 39
1, 49365, Control_c, 0, 64, 67
1, 49369, Note_on_c, 0, 55, 31
1, 49373, Note_off_c, 0, 60, 61
1, 49380, Control_c, 0, 64, 61
1, 49381, Note_off_c, 0, 67, 57
1, 49382, Note_off_c, 0, 63, 48
1, 49394, Control_c, 0, 64, 52
1, 49409, Control_c, 0, 64, 42
1, 49409, Control_c, 0, 67, 122
1, 49420, Note_off_c, 0, 55, 0
1, 49424, Control_c, 0, 64, 35
1, 49424, Control_c, 0, 67, 114
1, 49427, Note_on_c, 0, 72, 78
1, 49435, Note_on_c, 0, 55, 37
1, 49439, Control_c, 0, 64, 33
1, 49439, Control_c, 0, 67, 105
1, 49443, Note_on_c, 0, 60, 67
1, 49452, Note_on_c, 0, 63, 62
1, 49453, Control_c, 0, 64, 29
1, 49453, Control_c, 0, 67, 94
1, 49468, Control_c, 0, 64, 17
1, 49468, Control_c, 0, 67, 82
1, 49475, Note_off_c, 0, 60, 65
1, 49480, Note_off_c, 0, 72, 65
1, 49483, Note_off_c, 0, 63, 64
1, 49483, Control_c, 0, 64, 0
1, 49483, Control_c, 0, 67, 73
1, 49489, Note_off_c, 0, 55, 59
1, 49498, Control_c, 0, 67, 64
1, 49513, Control_c, 0, 67, 56
1, 49525, Note_on_c, 0, 75, 83
1, 49528, Control_c, 0, 67, 46
1, 49539, Note_on_c, 0, 55, 46
1, 49542, Note_on_c, 0, 60, 68
1, 49542, Control_c, 0, 67, 36
1, 49556, Note_on_c, 0, 63, 53
1, 49557, Control_c, 0, 67, 27
1, 49572, Control_c, 0, 67, 17
1, 49576, Note_off_c, 0, 60, 63
1, 49587, Note_off_c, 0, 55, 58
1, 49587, Note_off_c, 0, 63, 60
1, 49587, Control_c, 0, 67, 0
1, 49593, Note_off_c, 0, 75, 63
1, 49654, Note_on_c, 0, 79, 83
1, 49659, Note_on_c, 0, 55, 47
1, 49666, Note_on_c, 0, 63, 51
1, 49683, Note_on_c, 0, 60, 50
1, 49713, Control_c, 0, 64, 31
1, 49727, Control_c, 0, 64, 51
1, 49742, Control_c, 0, 64, 62
1, 49757, Control_c, 0, 64, 66
1, 49761, Note_off_c, 0, 79, 64
1, 49772, Control_c, 0, 64, 71
1, 49787, Control_c, 0, 64, 77
1, 49802, Control_c, 0, 64, 82
1, 49817, Control_c, 0, 64, 87
1, 49832, Control_c, 0, 64, 91
1, 49846, Control_c, 0, 64, 91
1, 49876, Control_c, 0, 64, 90
1, 49891, Control_c, 0, 64, 89
1, 49906, Control_c, 0, 64, 86
1, 49915, Note_on_c, 0, 87, 76
1, 49921, Control_c, 0, 64, 80
1, 49936, Control_c, 0, 64, 69
1, 49937, Note_on_c, 0, 75, 53
1, 49951, Control_c, 0, 64, 58
1, 49966, Control_c, 0, 64, 30
1, 49981, Control_c, 0, 64, 9
1, 49996, Control_c, 0, 64, 22
1, 50010, Control_c, 0, 64, 39
1, 50025, Control_c, 0, 64, 55
1, 50040, Control_c, 0, 64, 63
1, 50055, Control_c, 0, 64, 67
1, 50069, Control_c, 0, 64, 74
1, 50078, Note_off_c, 0, 87, 64
1, 50084, Control_c, 0, 64, 84
1, 50091, Note_off_c, 0, 75, 62
1, 50099, Control_c, 0, 64, 97
1, 50114, Control_c, 0, 64, 127
1, 50203, Control_c, 0, 64, 115
1, 50217, Control_c, 0, 64, 103
1, 50232, Control_c, 0, 64, 88
1, 50246, Note_on_c, 0, 83, 62
1, 50247, Control_c, 0, 64, 72
1, 50261, Note_on_c, 0, 71, 51
1, 50262, Control_c, 0, 64, 59
1, 50276, Control_c, 0, 64, 22
1, 50291, Control_c, 0, 64, 0
1, 50321, Control_c, 0, 64, 20
1, 50336, Control_c, 0, 64, 44
1, 50350, Control_c, 0, 64, 57
1, 50373, Control_c, 0, 64, 64
1, 50383, Note_off_c, 0, 71, 48
1, 50388, Control_c, 0, 64, 67
1, 50403, Control_c, 0, 64, 73
1, 50418, Control_c, 0, 64, 78
1, 50433, Control_c, 0, 64, 82
1, 50448, Control_c, 0, 64, 86
1, 50458, Note_off_c, 0, 83, 35
1, 50463, Control_c, 0, 64, 89
1, 50492, Control_c, 0, 64, 88
1, 50507, Control_c, 0, 64, 87
1, 50522, Control_c, 0, 64, 86
1, 50537, Control_c, 0, 64, 84
1, 50551, Control_c, 0, 64, 79
1, 50566, Control_c, 0, 64, 71
1, 50571, Note_on_c, 0, 84, 52
1, 50579, Note_off_c, 0, 60, 62
1, 50580, Note_off_c, 0, 63, 63
1, 50581, Control_c, 0, 64, 64
1, 50591, Note_on_c, 0, 72, 37
1, 50595, Control_c, 0, 64, 60
1, 50609, Note_off_c, 0, 55, 51
1, 50610, Control_c, 0, 64, 61
1, 50625, Control_c, 0, 64, 63
1, 50640, Control_c, 0, 64, 66
1, 50655, Control_c, 0, 64, 71
1, 50671, Control_c, 0, 64, 79
1, 50682, Note_off_c, 0, 84, 63
1, 50686, Control_c, 0, 64, 89
1, 50700, Control_c, 0, 64, 98
1, 50715, Control_c, 0, 64, 103
1, 50722, Note_off_c, 0, 72, 60
1, 50730, Control_c, 0, 64, 102
1, 50745, Control_c, 0, 64, 98
1, 50760, Control_c, 0, 64, 90
1, 50774, Control_c, 0, 64, 74
1, 50789, Control_c, 0, 64, 63
1, 50804, Control_c, 0, 64, 58
1, 50819, Control_c, 0, 64, 60
1, 50834, Control_c, 0, 64, 62
1, 50839, Note_on_c, 0, 43, 62
1, 50848, Control_c, 0, 64, 65
1, 50863, Control_c, 0, 64, 69
1, 50869, Note_off_c, 0, 43, 64
1, 50878, Control_c, 0, 64, 72
1, 50893, Control_c, 0, 64, 69
1, 50908, Control_c, 0, 64, 62
1, 50923, Control_c, 0, 64, 47
1, 50938, Control_c, 0, 64, 26
1, 50949, Note_on_c, 0, 67, 67
1, 50952, Control_c, 0, 64, 23
1, 50977, Note_on_c, 0, 62, 63
1, 50986, Note_on_c, 0, 59, 48
1, 50997, Control_c, 0, 64, 23
1, 50999, Note_on_c, 0, 55, 38
1, 51007, Note_off_c, 0, 67, 57
1, 51012, Note_off_c, 0, 59, 58
1, 51012, Control_c, 0, 64, 17
1, 51012, Note_off_c, 0, 62, 62
1, 51027, Control_c, 0, 64, 0
1, 51045, Note_on_c, 0, 71, 84
1, 51046, Note_off_c, 0, 55, 0
1, 51062, Note_on_c, 0, 55, 45
1, 51072, Note_on_c, 0, 62, 59
1, 51074, Note_on_c, 0, 59, 65
1, 51101, Note_off_c, 0, 59, 66
1, 51107, Note_off_c, 0, 62, 64
1, 51107, Note_off_c, 0, 71, 62
1, 51120, Note_off_c, 0, 55, 61
1, 51157, Note_on_c, 0, 74, 85
1, 51171, Note_on_c, 0, 59, 67
1, 51180, Note_on_c, 0, 55, 41
1, 51190, Note_on_c, 0, 62, 61
1, 51212, Note_off_c, 0, 59, 59
1, 51224, Note_off_c, 0, 55, 57
1, 51224, Note_off_c, 0, 62, 62
1, 51228, Note_off_c, 0, 74, 56
1, 51273, Note_on_c, 0, 79, 79
1, 51293, Note_on_c, 0, 55, 38
1, 51298, Note_on_c, 0, 59, 30
1, 51299, Note_on_c, 0, 62, 59
1, 51330, Control_c, 0, 64, 44
1, 51345, Control_c, 0, 64, 59
1, 51360, Control_c, 0, 64, 65
1, 51374, Control_c, 0, 64, 69
1, 51385, Note_off_c, 0, 79, 63
1, 51389, Control_c, 0, 64, 76
1, 51404, Control_c, 0, 64, 84
1, 51418, Control_c, 0, 64, 99
1, 51433, Control_c, 0, 64, 127
1, 51538, Control_c, 0, 64, 113
1, 51546, Note_on_c, 0, 86, 79
1, 51553, Control_c, 0, 64, 87
1, 51568, Control_c, 0, 64, 70
1, 51569, Note_on_c, 0, 74, 56
1, 51583, Control_c, 0, 64, 57
1, 51597, Control_c, 0, 64, 35
1, 51612, Control_c, 0, 64, 36
1, 51627, Control_c, 0, 64, 48
1, 51642, Control_c, 0, 64, 60
1, 51657, Control_c, 0, 64, 66
1, 51671, Note_off_c, 0, 86, 62
1, 51671, Control_c, 0, 64, 72
1, 51686, Control_c, 0, 64, 83
1, 51701, Control_c, 0, 64, 104
1, 51712, Note_off_c, 0, 74, 63
1, 51716, Control_c, 0, 64, 127
1, 51871, Control_c, 0, 64, 104
1, 51886, Control_c, 0, 64, 83
1, 51900, Note_on_c, 0, 78, 50
1, 51901, Control_c, 0, 64, 68
1, 51906, Note_on_c, 0, 66, 49
1, 51915, Control_c, 0, 64, 55
1, 51930, Control_c, 0, 64, 24
1, 51945, Control_c, 0, 64, 0
1, 51960, Control_c, 0, 64, 14
1, 51975, Control_c, 0, 64, 30
1, 51990, Control_c, 0, 64, 48
1, 52005, Control_c, 0, 64, 58
1, 52020, Control_c, 0, 64, 63
1, 52035, Control_c, 0, 64, 67
1, 52049, Control_c, 0, 64, 72
1, 52064, Control_c, 0, 64, 78
1, 52075, Note_off_c, 0, 66, 60
1, 52079, Control_c, 0, 64, 85
1, 52094, Control_c, 0, 64, 89
1, 52109, Control_c, 0, 64, 89
1, 52115, Note_off_c, 0, 78, 64
1, 52123, Control_c, 0, 64, 89
1, 52138, Control_c, 0, 64, 87
1, 52153, Control_c, 0, 64, 85
1, 52168, Control_c, 0, 64, 79
1, 52183, Control_c, 0, 64, 70
1, 52197, Control_c, 0, 64, 60
1, 52209, Note_on_c, 0, 79, 52
1, 52212, Control_c, 0, 64, 47
1, 52227, Control_c, 0, 64, 45
1, 52235, Note_on_c, 0, 67, 38
1, 52241, Control_c, 0, 64, 50
1, 52256, Control_c, 0, 64, 59
1, 52272, Control_c, 0, 64, 64
1, 52282, Note_off_c, 0, 59, 59
1, 52287, Control_c, 0, 64, 68
1, 52301, Note_off_c, 0, 55, 63
1, 52302, Control_c, 0, 64, 73
1, 52317, Control_c, 0, 64, 79
1, 52332, Control_c, 0, 64, 84
1, 52345, Note_off_c, 0, 79, 56
1, 52346, Note_off_c, 0, 62, 38
1, 52346, Control_c, 0, 64, 86
1, 52361, Control_c, 0, 64, 85
1, 52376, Control_c, 0, 64, 80
1, 52385, Note_off_c, 0, 67, 57
1, 52391, Control_c, 0, 64, 71
1, 52406, Control_c, 0, 64, 63
1, 52420, Control_c, 0, 64, 58
1, 52435, Control_c, 0, 64, 60
1, 52450, Control_c, 0, 64, 62
1, 52464, Control_c, 0, 64, 66
1, 52479, Control_c, 0, 64, 71
1, 52485, Note_on_c, 0, 48, 62
1, 52494, Control_c, 0, 64, 80
1, 52509, Control_c, 0, 64, 96
1, 52513, Note_off_c, 0, 48, 65
1, 52524, Control_c, 0, 64, 127
1, 52610, Note_on_c, 0, 64, 62
1, 52610, Note_on_c, 0, 67, 73
1, 52620, Control_c, 0, 64, 114
1, 52625, Note_on_c, 0, 60, 48
1, 52632, Note_on_c, 0, 58, 42
1, 52635, Control_c, 0, 64, 93
1, 52650, Control_c, 0, 64, 78
1, 52653, Note_off_c, 0, 60, 55
1, 52653, Note_off_c, 0, 64, 60
1, 52662, Note_off_c, 0, 58, 50
1, 52665, Control_c, 0, 64, 65
1, 52675, Note_off_c, 0, 67, 60
1, 52680, Control_c, 0, 64, 52
1, 52695, Control_c, 0, 64, 29
1, 52705, Note_on_c, 0, 55, 55
1, 52710, Note_on_c, 0, 70, 89
1, 52710, Control_c, 0, 64, 22
1, 52711, Note_on_c, 0, 64, 56
1, 52714, Note_on_c, 0, 58, 61
1, 52720, Note_on_c, 0, 60, 67
1, 52747, Note_off_c, 0, 58, 63
1, 52748, Note_off_c, 0, 60, 67
1, 52749, Note_off_c, 0, 64, 63
1, 52752, Note_off_c, 0, 55, 62
1, 52759, Note_off_c, 0, 70, 67
1, 52769, Control_c, 0, 64, 20
1, 52784, Control_c, 0, 64, 19
1, 52799, Control_c, 0, 64, 17
1, 52806, Note_on_c, 0, 76, 86
1, 52814, Control_c, 0, 64, 0
1, 52815, Note_on_c, 0, 58, 68
1, 52816, Note_on_c, 0, 60, 65
1, 52819, Note_on_c, 0, 55, 39
1, 52823, Note_on_c, 0, 64, 54
1, 52848, Note_off_c, 0, 58, 64
1, 52848, Note_off_c, 0, 60, 65
1, 52851, Note_off_c, 0, 55, 57
1, 52857, Note_off_c, 0, 64, 63
1, 52878, Note_off_c, 0, 76, 60
1, 52905, Note_on_c, 0, 79, 87
1, 52923, Note_on_c, 0, 64, 68
1, 52927, Note_on_c, 0, 58, 53
1, 52931, Note_on_c, 0, 60, 51
1, 52939, Note_on_c, 0, 55, 57
1, 52976, Control_c, 0, 64, 38
1, 52991, Control_c, 0, 64, 57
1, 53003, Note_off_c, 0, 79, 62
1, 53006, Control_c, 0, 64, 65
1, 53021, Control_c, 0, 64, 70
1, 53036, Control_c, 0, 64, 76
1, 53051, Control_c, 0, 64, 83
1, 53066, Control_c, 0, 64, 89
1, 53081, Control_c, 0, 64, 92
1, 53096, Control_c, 0, 64, 93
1, 53111, Control_c, 0, 64, 92
1, 53126, Control_c, 0, 64, 91
1, 53140, Control_c, 0, 64, 90
1, 53155, Control_c, 0, 64, 88
1, 53170, Control_c, 0, 64, 83
1, 53185, Control_c, 0, 64, 72
1, 53185, Note_on_c, 0, 88, 78
1, 53196, Note_on_c, 0, 76, 63
1, 53200, Control_c, 0, 64, 61
1, 53215, Control_c, 0, 64, 41
1, 53230, Control_c, 0, 64, 20
1, 53244, Control_c, 0, 64, 22
1, 53259, Control_c, 0, 64, 36
1, 53274, Control_c, 0, 64, 52
1, 53288, Control_c, 0, 64, 63
1, 53303, Control_c, 0, 64, 67
1, 53318, Note_off_c, 0, 88, 62
1, 53318, Control_c, 0, 64, 74
1, 53333, Control_c, 0, 64, 82
1, 53348, Control_c, 0, 64, 92
1, 53352, Note_off_c, 0, 76, 63
1, 53370, Control_c, 0, 64, 103
1, 53385, Control_c, 0, 64, 115
1, 53400, Control_c, 0, 64, 116
1, 53415, Control_c, 0, 64, 115
1, 53430, Control_c, 0, 64, 113
1, 53444, Control_c, 0, 64, 110
1, 53459, Control_c, 0, 64, 108
1, 53474, Control_c, 0, 64, 104
1, 53489, Control_c, 0, 64, 101
1, 53503, Control_c, 0, 64, 96
1, 53518, Control_c, 0, 64, 86
1, 53519, Note_on_c, 0, 81, 67
1, 53532, Note_on_c, 0, 69, 56
1, 53533, Control_c, 0, 64, 72
1, 53548, Note_off_c, 0, 60, 0
1, 53548, Control_c, 0, 64, 60
1, 53563, Control_c, 0, 64, 15
1, 53577, Control_c, 0, 64, 0
1, 53585, Poly_aftertouch_c, 0, 60, 127
1, 53622, Control_c, 0, 64, 30
1, 53637, Control_c, 0, 64, 47
1, 53644, Note_off_c, 0, 69, 62
1, 53651, Control_c, 0, 64, 60
1, 53666, Control_c, 0, 64, 64
1, 53681, Control_c, 0, 64, 68
1, 53695, Control_c, 0, 64, 72
1, 53710, Control_c, 0, 64, 77
1, 53725, Control_c, 0, 64, 79
1, 53740, Control_c, 0, 64, 80
1, 53755, Control_c, 0, 64, 80
1, 53761, Note_off_c, 0, 81, 63
1, 53769, Control_c, 0, 64, 78
1, 53772, Note_on_c, 0, 82, 60
1, 53784, Control_c, 0, 64, 75
1, 53793, Note_on_c, 0, 70, 39
1, 53799, Control_c, 0, 64, 68
1, 53814, Control_c, 0, 64, 58
1, 53829, Control_c, 0, 64, 36
1, 53844, Control_c, 0, 64, 25
1, 53859, Control_c, 0, 64, 34
1, 53874, Control_c, 0, 64, 48
1, 53889, Note_off_c, 0, 55, 58
1, 53889, Control_c, 0, 64, 60
1, 53904, Control_c, 0, 64, 65
1, 53918, Control_c, 0, 64, 70
1, 53933, Control_c, 0, 64, 78
1, 53948, Control_c, 0, 64, 83
1, 53968, Note_off_c, 0, 82, 61
1, 53978, Control_c, 0, 64, 78
1, 53981, Note_off_c, 0, 64, 59
1, 53993, Control_c, 0, 64, 69
1, 53997, Poly_aftertouch_c, 0, 60, 0
1, 54008, Control_c, 0, 64, 62
1, 54011, Note_off_c, 0, 58, 58
1, 54013, Note_off_c, 0, 70, 62
1, 54023, Note_on_c, 0, 53, 68
1, 54023, Control_c, 0, 64, 61
1, 54038, Control_c, 0, 64, 62
1, 54053, Control_c, 0, 64, 63
1, 54067, Control_c, 0, 64, 65
1, 54082, Control_c, 0, 64, 66
1, 54118, Control_c, 0, 64, 65
1, 54127, Note_on_c, 0, 69, 75
1, 54130, Note_on_c, 0, 60, 61
1, 54132, Note_on_c, 0, 65, 70
1, 54133, Control_c, 0, 64, 64
1, 54140, Note_on_c, 0, 57, 57
1, 54147, Note_off_c, 0, 53, 60
1, 54148, Control_c, 0, 64, 56
1, 54162, Note_off_c, 0, 65, 65
1, 54163, Control_c, 0, 64, 0
1, 54170, Note_off_c, 0, 60, 65
1, 54173, Note_off_c, 0, 57, 63
1, 54178, Note_off_c, 0, 69, 58
1, 54211, Note_on_c, 0, 72, 84
1, 54225, Note_on_c, 0, 60, 62
1, 54232, Note_on_c, 0, 65, 68
1, 54236, Note_on_c, 0, 57, 64
1, 54261, Note_off_c, 0, 60, 65
1, 54263, Note_off_c, 0, 65, 63
1, 54269, Note_off_c, 0, 57, 62
1, 54272, Note_off_c, 0, 72, 65
1, 54311, Note_on_c, 0, 77, 88
1, 54322, Note_on_c, 0, 60, 71
1, 54322, Note_on_c, 0, 65, 69
1, 54347, Poly_aftertouch_c, 0, 57, 0
1, 54359, Note_off_c, 0, 65, 61
1, 54362, Note_off_c, 0, 60, 63
1, 54372, Note_off_c, 0, 77, 62
1, 54422, Note_on_c, 0, 81, 77
1, 54429, Note_on_c, 0, 60, 58
1, 54430, Note_on_c, 0, 65, 57
1, 54439, Note_on_c, 0, 57, 54
1, 54468, Note_on_c, 0, 79, 21
1, 54478, Note_off_c, 0, 79, 40
1, 54505, Control_c, 0, 64, 34
1, 54519, Control_c, 0, 64, 55
1, 54534, Control_c, 0, 64, 65
1, 54549, Control_c, 0, 64, 72
1, 54553, Note_off_c, 0, 81, 62
1, 54564, Control_c, 0, 64, 84
1, 54579, Control_c, 0, 64, 102
1, 54593, Control_c, 0, 64, 127
1, 54713, Control_c, 0, 64, 112
1, 54728, Control_c, 0, 64, 89
1, 54732, Note_on_c, 0, 89, 83
1, 54739, Note_on_c, 0, 77, 71
1, 54742, Control_c, 0, 64, 72
1, 54757, Control_c, 0, 64, 58
1, 54772, Control_c, 0, 64, 16
1, 54787, Control_c, 0, 64, 0
1, 54802, Control_c, 0, 64, 9
1, 54816, Control_c, 0, 64, 33
1, 54831, Control_c, 0, 64, 49
1, 54846, Control_c, 0, 64, 60
1, 54868, Control_c, 0, 64, 65
1, 54878, Note_off_c, 0, 89, 64
1, 54883, Control_c, 0, 64, 69
1, 54898, Control_c, 0, 64, 76
1, 54913, Control_c, 0, 64, 85
1, 54917, Note_off_c, 0, 77, 62
1, 54927, Control_c, 0, 64, 97
1, 54941, Control_c, 0, 64, 117
1, 54956, Control_c, 0, 64, 127
1, 55030, Control_c, 0, 64, 114
1, 55045, Control_c, 0, 64, 100
1, 55060, Control_c, 0, 64, 82
1, 55069, Note_on_c, 0, 83, 65
1, 55075, Control_c, 0, 64, 67
1, 55078, Note_on_c, 0, 71, 55
1, 55090, Control_c, 0, 64, 52
1, 55105, Control_c, 0, 64, 21
1, 55120, Control_c, 0, 64, 17
1, 55135, Control_c, 0, 64, 31
1, 55149, Control_c, 0, 64, 50
1, 55164, Control_c, 0, 64, 60
1, 55178, Note_off_c, 0, 71, 52
1, 55179, Control_c, 0, 64, 64
1, 55194, Control_c, 0, 64, 68
1, 55209, Control_c, 0, 64, 73
1, 55223, Control_c, 0, 64, 79
1, 55238, Control_c, 0, 64, 85
1, 55253, Control_c, 0, 64, 88
1, 55267, Control_c, 0, 64, 89
1, 55282, Control_c, 0, 64, 88
1, 55297, Control_c, 0, 64, 84
1, 55311, Note_off_c, 0, 83, 35
1, 55312, Control_c, 0, 64, 77
1, 55327, Control_c, 0, 64, 66
1, 55341, Control_c, 0, 64, 59
1, 55343, Note_on_c, 0, 84, 56
1, 55356, Control_c, 0, 64, 56
1, 55367, Note_on_c, 0, 72, 48
1, 55371, Control_c, 0, 64, 58
1, 55386, Control_c, 0, 64, 62
1, 55387, Note_off_c, 0, 57, 65
1, 55391, Note_off_c, 0, 60, 64
1, 55398, Note_off_c, 0, 65, 55
1, 55401, Control_c, 0, 64, 67
1, 55415, Control_c, 0, 64, 76
1, 55430, Control_c, 0, 64, 91
1, 55439, Note_off_c, 0, 84, 64
1, 55445, Control_c, 0, 64, 127
1, 55504, Note_off_c, 0, 72, 62
1, 55520, Control_c, 0, 64, 92
1, 55535, Control_c, 0, 64, 71
1, 55550, Control_c, 0, 64, 61
1, 55564, Control_c, 0, 64, 60
1, 55579, Control_c, 0, 64, 62
1, 55589, Note_on_c, 0, 50, 73
1, 55594, Control_c, 0, 64, 65
1, 55617, Control_c, 0, 64, 72
1, 55625, Note_off_c, 0, 50, 67
1, 55632, Control_c, 0, 64, 91
1, 55646, Control_c, 0, 64, 127
1, 55721, Note_on_c, 0, 69, 82
1, 55741, Note_on_c, 0, 62, 54
1, 55748, Note_on_c, 0, 66, 57
1, 55767, Note_off_c, 0, 66, 61
1, 55774, Note_off_c, 0, 62, 59
1, 55784, Note_off_c, 0, 69, 59
1, 55794, Control_c, 0, 64, 93
1, 55798, Poly_aftertouch_c, 0, 60, 127
1, 55799, Note_on_c, 0, 57, 42
1, 55809, Control_c, 0, 64, 71
1, 55820, Note_on_c, 0, 72, 86
1, 55820, Note_on_c, 0, 66, 63
1, 55824, Control_c, 0, 64, 56
1, 55830, Poly_aftertouch_c, 0, 62, 127
1, 55838, Control_c, 0, 64, 0
1, 55847, Note_off_c, 0, 66, 67
1, 55851, Poly_aftertouch_c, 0, 62, 0
1, 55862, Note_off_c, 0, 57, 58
1, 55863, Poly_aftertouch_c, 0, 60, 0
1, 55875, Note_off_c, 0, 72, 66
1, 55905, Poly_aftertouch_c, 0, 60, 0
1, 55909, Note_on_c, 0, 66, 77
1, 55909, Note_on_c, 0, 78, 86
1, 55914, Note_on_c, 0, 62, 67
1, 55916, Note_on_c, 0, 60, 54
1, 55920, Note_on_c, 0, 57, 40
1, 55955, Note_off_c, 0, 62, 61
1, 55956, Note_off_c, 0, 57, 64
1, 55957, Note_off_c, 0, 66, 60
1, 55958, Note_off_c, 0, 60, 63
1, 55995, Note_off_c, 0, 78, 62
1, 56013, Note_on_c, 0, 81, 84
1, 56032, Note_on_c, 0, 60, 49
1, 56032, Note_on_c, 0, 62, 48
1, 56033, Note_on_c, 0, 66, 49
1, 56053, Note_on_c, 0, 57, 46
1, 56090, Control_c, 0, 64, 11
1, 56105, Control_c, 0, 64, 48
1, 56112, Note_off_c, 0, 81, 65
1, 56120, Control_c, 0, 64, 62
1, 56135, Control_c, 0, 64, 69
1, 56150, Control_c, 0, 64, 79
1, 56164, Control_c, 0, 64, 96
1, 56179, Control_c, 0, 64, 127
1, 56244, Note_on_c, 0, 90, 90
1, 56250, Note_on_c, 0, 78, 79
1, 56269, Control_c, 0, 64, 88
1, 56284, Control_c, 0, 64, 72
1, 56299, Control_c, 0, 64, 63
1, 56313, Control_c, 0, 64, 63
1, 56328, Control_c, 0, 64, 65
1, 56340, Note_off_c, 0, 90, 65
1, 56343, Control_c, 0, 64, 68
1, 56350, Note_off_c, 0, 78, 61
1, 56366, Control_c, 0, 64, 78
1, 56381, Control_c, 0, 64, 98
1, 56395, Control_c, 0, 64, 127
1, 56480, Note_off_c, 0, 60, 62
1, 56482, Note_off_c, 0, 57, 58
1, 56489, Note_off_c, 0, 62, 62
1, 56499, Control_c, 0, 64, 115
1, 56512, Note_on_c, 0, 83, 85
1, 56513, Control_c, 0, 64, 83
1, 56516, Note_on_c, 0, 71, 83
1, 56528, Control_c, 0, 64, 67
1, 56543, Control_c, 0, 64, 59
1, 56558, Control_c, 0, 64, 60
1, 56573, Control_c, 0, 64, 63
1, 56587, Control_c, 0, 64, 67
1, 56602, Control_c, 0, 64, 73
1, 56613, Note_off_c, 0, 71, 54
1, 56617, Note_off_c, 0, 66, 36
1, 56617, Control_c, 0, 64, 85
1, 56632, Control_c, 0, 64, 114
1, 56647, Control_c, 0, 64, 127
1, 56694, Note_off_c, 0, 83, 60
1, 56706, Control_c, 0, 64, 106
1, 56720, Control_c, 0, 64, 74
1, 56726, Note_on_c, 0, 66, 82
1, 56732, Note_on_c, 0, 62, 76
1, 56735, Note_on_c, 0, 72, 89
1, 56735, Control_c, 0, 64, 56
1, 56741, Note_on_c, 0, 84, 84
1, 56750, Control_c, 0, 64, 12
1, 56758, Note_on_c, 0, 86, 55
1, 56759, Note_off_c, 0, 86, 127
1, 56765, Control_c, 0, 64, 20
1, 56780, Control_c, 0, 64, 43
1, 56795, Note_off_c, 0, 72, 64
1, 56795, Control_c, 0, 64, 61
1, 56810, Control_c, 0, 64, 70
1, 56825, Control_c, 0, 64, 93
1, 56829, Note_off_c, 0, 84, 66
1, 56840, Control_c, 0, 64, 127
1, 56889, Note_off_c, 0, 66, 60
1, 56973, Control_c, 0, 64, 81
1, 56983, Note_on_c, 0, 63, 79
1, 56984, Note_on_c, 0, 91, 99
1, 56986, Note_on_c, 0, 67, 85
1, 56987, Control_c, 0, 64, 62
1, 56989, Note_on_c, 0, 79, 91
1, 56995, Note_off_c, 0, 62, 56
1, 57002, Control_c, 0, 64, 0
1, 57031, Control_c, 0, 64, 27
1, 57046, Control_c, 0, 64, 55
1, 57063, Control_c, 0, 64, 67
1, 57066, Note_off_c, 0, 91, 64
1, 57078, Control_c, 0, 64, 83
1, 57078, Note_off_c, 0, 63, 62
1, 57092, Control_c, 0, 64, 127
1, 57097, Note_off_c, 0, 79, 65
1, 57192, Note_off_c, 0, 67, 61
1, 57270, Note_on_c, 0, 71, 92
1, 57272, Note_on_c, 0, 83, 95
1, 57278, Control_c, 0, 64, 88
1, 57288, Note_on_c, 0, 64, 80
1, 57290, Note_on_c, 0, 67, 87
1, 57292, Control_c, 0, 64, 63
1, 57307, Control_c, 0, 64, 20
1, 57322, Control_c, 0, 64, 0
1, 57351, Control_c, 0, 64, 28
1, 57366, Control_c, 0, 64, 55
1, 57381, Control_c, 0, 64, 67
1, 57396, Control_c, 0, 64, 77
1, 57410, Control_c, 0, 64, 101
1, 57425, Control_c, 0, 64, 127
1, 57426, Note_off_c, 0, 71, 58
1, 57469, Note_off_c, 0, 83, 60
1, 57514, Control_c, 0, 64, 110
1, 57528, Control_c, 0, 64, 77
1, 57540, Note_on_c, 0, 72, 93
1, 57543, Note_on_c, 0, 84, 100
1, 57543, Control_c, 0, 64, 58
1, 57558, Control_c, 0, 64, 0
1, 57603, Control_c, 0, 64, 30
1, 57618, Control_c, 0, 64, 58
1, 57633, Control_c, 0, 64, 68
1, 57644, Note_off_c, 0, 72, 62
1, 57648, Control_c, 0, 64, 80
1, 57662, Control_c, 0, 64, 127
1, 57676, Note_off_c, 0, 84, 64
1, 57732, Note_off_c, 0, 67, 55
1, 57734, Note_off_c, 0, 64, 53
1, 57863, Control_c, 0, 64, 122
1, 57870, Note_on_c, 0, 92, 102
1, 57877, Note_on_c, 0, 80, 86
1, 57878, Control_c, 0, 64, 84
1, 57883, Note_on_c, 0, 68, 66
1, 57893, Control_c, 0, 64, 65
1, 57895, Note_on_c, 0, 65, 61
1, 57908, Control_c, 0, 64, 34
1, 57923, Control_c, 0, 64, 0
1, 57967, Control_c, 0, 64, 37
1, 57982, Control_c, 0, 64, 58
1, 57997, Control_c, 0, 64, 67
1, 58012, Control_c, 0, 64, 77
1, 58014, Note_off_c, 0, 92, 65
1, 58027, Control_c, 0, 64, 99
1, 58041, Control_c, 0, 64, 127
1, 58056, Note_off_c, 0, 80, 63
1, 58059, Note_off_c, 0, 68, 59
1, 58175, Control_c, 0, 64, 91
1, 58190, Control_c, 0, 64, 73
1, 58205, Note_on_c, 0, 88, 73
1, 58205, Control_c, 0, 64, 60
1, 58210, Note_on_c, 0, 76, 64
1, 58220, Control_c, 0, 64, 17
1, 58232, Note_on_c, 0, 70, 62
1, 58232, Note_off_c, 0, 65, 61
1, 58234, Control_c, 0, 64, 0
1, 58237, Note_on_c, 0, 67, 61
1, 58338, Control_c, 0, 64, 9
1, 58353, Control_c, 0, 64, 11
1, 58377, Note_off_c, 0, 76, 55
1, 58382, Control_c, 0, 64, 12
1, 58519, Note_off_c, 0, 88, 59
1, 58530, Note_on_c, 0, 89, 76
1, 58538, Note_on_c, 0, 77, 68
1, 58545, Note_on_c, 0, 68, 70
1, 58575, Control_c, 0, 64, 0
1, 58581, Note_off_c, 0, 67, 61
1, 58581, Note_off_c, 0, 70, 62
1, 58687, Control_c, 0, 64, 15
1, 58702, Control_c, 0, 64, 32
1, 58716, Control_c, 0, 64, 49
1, 58731, Control_c, 0, 64, 59
1, 58746, Control_c, 0, 64, 64
1, 58759, Note_off_c, 0, 89, 63
1, 58761, Control_c, 0, 64, 68
1, 58776, Control_c, 0, 64, 71
1, 58790, Control_c, 0, 64, 72
1, 58801, Note_off_c, 0, 77, 63
1, 58821, Note_on_c, 0, 64, 78
1, 58835, Control_c, 0, 64, 72
1, 58850, Control_c, 0, 64, 71
1, 58864, Control_c, 0, 64, 71
1, 58868, Note_off_c, 0, 68, 57
1, 58879, Control_c, 0, 64, 70
1, 58894, Control_c, 0, 64, 70
1, 58908, Control_c, 0, 64, 69
1, 58923, Control_c, 0, 64, 68
1, 58938, Control_c, 0, 64, 66
1, 58953, Control_c, 0, 64, 63
1, 58968, Control_c, 0, 64, 60
1, 58983, Control_c, 0, 64, 57
1, 58998, Control_c, 0, 64, 55
1, 59013, Control_c, 0, 64, 54
1, 59028, Control_c, 0, 64, 53
1, 59043, Control_c, 0, 64, 52
1, 59057, Control_c, 0, 64, 51
1, 59072, Control_c, 0, 64, 49
1, 59087, Control_c, 0, 64, 46
1, 59102, Control_c, 0, 64, 44
1, 59116, Control_c, 0, 64, 42
1, 59120, Note_on_c, 0, 61, 79
1, 59129, Note_on_c, 0, 65, 66
1, 59131, Control_c, 0, 64, 41
1, 59161, Control_c, 0, 64, 41
1, 59174, Note_off_c, 0, 64, 57
1, 59205, Control_c, 0, 64, 40
1, 59430, Note_on_c, 0, 58, 82
1, 59451, Note_off_c, 0, 65, 54
1, 59455, Note_off_c, 0, 61, 58
1, 59627, Control_c, 0, 64, 40
1, 59716, Control_c, 0, 64, 39
1, 59752, Note_on_c, 0, 59, 67
1, 59758, Note_on_c, 0, 56, 64
1, 59776, Control_c, 0, 64, 39
1, 59803, Note_off_c, 0, 58, 60
1, 59805, Control_c, 0, 64, 38
1, 59820, Control_c, 0, 64, 37
1, 59835, Control_c, 0, 64, 36
1, 59850, Control_c, 0, 64, 36
1, 59865, Control_c, 0, 64, 35
1, 59879, Control_c, 0, 64, 35
1, 59894, Control_c, 0, 64, 34
1, 59909, Control_c, 0, 64, 34
1, 59968, Control_c, 0, 64, 33
1, 60027, Control_c, 0, 67, 12
1, 60042, Control_c, 0, 67, 21
1, 60047, Note_off_c, 0, 59, 64
1, 60053, Note_on_c, 0, 54, 63
1, 60057, Control_c, 0, 67, 31
1, 60072, Control_c, 0, 67, 42
1, 60074, Note_off_c, 0, 56, 60
1, 60086, Control_c, 0, 67, 54
1, 60109, Control_c, 0, 67, 66
1, 60124, Control_c, 0, 67, 76
1, 60138, Control_c, 0, 67, 82
1, 60153, Control_c, 0, 67, 89
1, 60167, Control_c, 0, 67, 92
1, 60182, Control_c, 0, 67, 96
1, 60197, Control_c, 0, 67, 100
1, 60211, Control_c, 0, 67, 105
1, 60226, Control_c, 0, 67, 108
1, 60241, Control_c, 0, 67, 111
1, 60257, Control_c, 0, 67, 114
1, 60272, Control_c, 0, 67, 117
1, 60287, Control_c, 0, 67, 120
1, 60301, Control_c, 0, 67, 125
1, 60316, Control_c, 0, 67, 127
1, 60384, Note_on_c, 0, 51, 55
1, 60389, Note_on_c, 0, 55, 49
1, 60451, Note_off_c, 0, 54, 58
1, 60657, Control_c, 0, 64, 33
1, 60718, Note_on_c, 0, 47, 50
1, 60750, Note_off_c, 0, 55, 62
1, 60754, Note_off_c, 0, 51, 54
1, 61037, Note_off_c, 0, 47, 52
1, 61040, Note_on_c, 0, 48, 42
1, 61045, Note_on_c, 0, 44, 43
1, 61287, Control_c, 0, 64, 32
1, 61376, Note_on_c, 0, 42, 45
1, 61376, Control_c, 0, 64, 32
1, 61406, Note_off_c, 0, 44, 38
1, 61442, Note_off_c, 0, 48, 56
1, 61465, Control_c, 0, 64, 31
1, 61569, Control_c, 0, 64, 31
1, 61636, Control_c, 0, 64, 30
1, 61744, Note_on_c, 0, 43, 34
1, 61796, Note_off_c, 0, 42, 36
1, 61813, Control_c, 0, 64, 30
1, 62217, Note_on_c, 0, 36, 35
1, 62280, Note_off_c, 0, 43, 29
1, 62303, Control_c, 0, 64, 29
1, 62354, Control_c, 0, 64, 29
1, 62369, Control_c, 0, 64, 28
1, 62384, Control_c, 0, 64, 26
1, 62399, Control_c, 0, 64, 20
1, 62414, Control_c, 0, 64, 0
1, 62577, Control_c, 0, 64, 22
1, 62592, Control_c, 0, 64, 40
1, 62606, Control_c, 0, 64, 50
1, 62621, Control_c, 0, 64, 56
1, 62636, Control_c, 0, 64, 60
1, 62652, Control_c, 0, 64, 61
1, 62667, Control_c, 0, 64, 62
1, 62682, Control_c, 0, 64, 62
1, 62697, Control_c, 0, 64, 63
1, 62711, Control_c, 0, 64, 64
1, 62726, Control_c, 0, 64, 64
1, 62741, Control_c, 0, 64, 66
1, 62755, Control_c, 0, 64, 68
1, 62755, Control_c, 0, 67, 119
1, 62770, Control_c, 0, 64, 74
1, 62770, Control_c, 0, 67, 89
1, 62785, Control_c, 0, 64, 85
1, 62785, Control_c, 0, 67, 38
1, 62800, Control_c, 0, 64, 82
1, 62800, Control_c, 0, 67, 0
1, 62815, Control_c, 0, 64, 64
1, 62829, Control_c, 0, 64, 0
1, 62838, Note_off_c, 0, 36, 52
1, 62918, Control_c, 0, 64, 70
1, 62924, Note_on_c, 0, 75, 121
1, 62929, Note_on_c, 0, 43, 86
1, 62930, Note_on_c, 0, 87, 90
1, 62931, Note_on_c, 0, 48, 94
1, 62933, Note_on_c, 0, 36, 77
1, 62933, Control_c, 0, 64, 127
1, 62936, Note_on_c, 0, 79, 86
1, 62937, Note_on_c, 0, 39, 80
1, 62939, Note_on_c, 0, 84, 77
1, 62974, Note_off_c, 0, 48, 66
1, 62979, Note_off_c, 0, 36, 61
1, 62980, Note_off_c, 0, 39, 61
1, 62981, Note_off_c, 0, 75, 65
1, 62987, Note_off_c, 0, 43, 63
1, 62995, Note_off_c, 0, 79, 61
1, 62998, Note_off_c, 0, 84, 57
1, 63031, Note_on_c, 0, 43, 73
1, 63034, Note_on_c, 0, 48, 89
1, 63036, Note_on_c, 0, 75, 110
1, 63043, Note_on_c, 0, 79, 79
1, 63044, Note_on_c, 0, 36, 70
1, 63046, Note_on_c, 0, 39, 76
1, 63047, Note_on_c, 0, 84, 56
1, 63073, Note_off_c, 0, 36, 66
1, 63079, Note_off_c, 0, 48, 64
1, 63082, Note_off_c, 0, 39, 65
1, 63088, Note_off_c, 0, 75, 62
1, 63090, Note_off_c, 0, 43, 64
1, 63092, Note_off_c, 0, 87, 60
1, 63106, Note_off_c, 0, 79, 63
1, 63111, Note_off_c, 0, 84, 61
1, 63156, Note_on_c, 0, 43, 78
1, 63157, Note_on_c, 0, 48, 87
1, 63159, Note_on_c, 0, 75, 106
1, 63163, Note_on_c, 0, 87, 84
1, 63164, Note_on_c, 0, 36, 76
1, 63164, Note_on_c, 0, 79, 70
1, 63165, Note_on_c, 0, 39, 73
1, 63177, Note_on_c, 0, 84, 47
1, 63195, Note_off_c, 0, 39, 66
1, 63203, Note_off_c, 0, 36, 60
1, 63203, Note_off_c, 0, 48, 56
1, 63212, Note_off_c, 0, 75, 61
1, 63214, Note_off_c, 0, 84, 65
1, 63216, Note_off_c, 0, 43, 60
1, 63222, Note_off_c, 0, 87, 63
1, 63225, Note_off_c, 0, 79, 59
1, 63261, Note_on_c, 0, 87, 82
1, 63264, Note_on_c, 0, 48, 94
1, 63264, Note_on_c, 0, 75, 104
1, 63269, Note_on_c, 0, 79, 55
1, 63274, Note_on_c, 0, 36, 84
1, 63275, Note_on_c, 0, 39, 78
1, 63284, Note_on_c, 0, 43, 36
1, 63289, Note_off_c, 0, 79, 62
1, 63293, Note_off_c, 0, 87, 65
1, 63298, Note_off_c, 0, 36, 67
1, 63300, Note_off_c, 0, 39, 65
1, 63304, Note_off_c, 0, 75, 67
1, 63307, Note_off_c, 0, 43, 62
1, 63314, Note_off_c, 0, 48, 66
1, 63413, Note_on_c, 0, 60, 85
1, 63420, Note_on_c, 0, 55, 77
1, 63463, Note_off_c, 0, 55, 61
1, 63464, Note_off_c, 0, 60, 65
1, 63532, Note_on_c, 0, 51, 82
1, 63533, Note_on_c, 0, 63, 86
1, 63579, Note_off_c, 0, 63, 65
1, 63589, Note_off_c, 0, 51, 63
1, 63608, Control_c, 0, 64, 71
1, 63623, Control_c, 0, 64, 0
1, 63656, Note_on_c, 0, 48, 87
1, 63656, Note_on_c, 0, 67, 99
1, 63709, Note_off_c, 0, 48, 63
1, 63712, Note_off_c, 0, 67, 60
1, 63768, Note_on_c, 0, 51, 72
1, 63768, Note_on_c, 0, 63, 77
1, 63800, Note_off_c, 0, 63, 61
1, 63809, Note_off_c, 0, 51, 61
1, 63890, Note_on_c, 0, 48, 65
1, 63899, Note_on_c, 0, 67, 74
1, 63925, Note_off_c, 0, 48, 63
1, 63935, Note_off_c, 0, 67, 65
1, 64014, Note_on_c, 0, 62, 93
1, 64022, Note_on_c, 0, 47, 63
1, 64026, Note_on_c, 0, 45, 62
1, 64054, Note_off_c, 0, 45, 65
1, 64057, Note_off_c, 0, 47, 64
1, 64069, Note_off_c, 0, 62, 62
1, 64129, Note_on_c, 0, 67, 78
1, 64138, Note_on_c, 0, 59, 72
1, 64172, Note_off_c, 0, 59, 64
1, 64176, Note_off_c, 0, 67, 61
1, 64238, Note_on_c, 0, 62, 78
1, 64243, Note_on_c, 0, 55, 69
1, 64273, Note_off_c, 0, 62, 65
1, 64277, Note_off_c, 0, 55, 66
1, 64358, Note_on_c, 0, 50, 83
1, 64362, Note_on_c, 0, 71, 96
1, 64408, Note_off_c, 0, 50, 63
1, 64416, Note_off_c, 0, 71, 64
1, 64471, Note_on_c, 0, 67, 75
1, 64473, Note_on_c, 0, 55, 67
1, 64501, Note_off_c, 0, 67, 61
1, 64513, Note_off_c, 0, 55, 63
1, 64580, Note_on_c, 0, 50, 67
1, 64603, Note_on_c, 0, 71, 66
1, 64621, Note_off_c, 0, 50, 65
1, 64633, Note_off_c, 0, 71, 67
1, 64707, Note_on_c, 0, 67, 99
1, 64709, Note_on_c, 0, 59, 90
1, 64754, Note_off_c, 0, 67, 62
1, 64756, Note_off_c, 0, 59, 66
1, 64823, Note_on_c, 0, 74, 75
1, 64833, Note_on_c, 0, 55, 70
1, 64867, Note_off_c, 0, 55, 64
1, 64873, Note_off_c, 0, 74, 60
1, 64929, Note_on_c, 0, 67, 74
1, 64948, Note_on_c, 0, 59, 70
1, 64961, Note_off_c, 0, 67, 64
1, 64975, Note_off_c, 0, 59, 67
1, 65054, Note_on_c, 0, 64, 93
1, 65062, Note_on_c, 0, 58, 91
1, 65105, Note_off_c, 0, 58, 64
1, 65106, Note_off_c, 0, 64, 65
1, 65166, Note_on_c, 0, 55, 68
1, 65172, Note_on_c, 0, 67, 67
1, 65199, Note_off_c, 0, 67, 67
1, 65200, Note_off_c, 0, 55, 66
1, 65287, Note_on_c, 0, 58, 67
1, 65288, Note_on_c, 0, 64, 70
1, 65318, Note_off_c, 0, 58, 64
1, 65320, Note_off_c, 0, 64, 65
1, 65406, Note_on_c, 0, 73, 91
1, 65407, Note_on_c, 0, 55, 78
1, 65443, Note_off_c, 0, 73, 71
1, 65452, Note_off_c, 0, 55, 62
1, 65517, Note_on_c, 0, 52, 69
1, 65531, Note_on_c, 0, 67, 70
1, 65559, Note_off_c, 0, 52, 60
1, 65565, Note_off_c, 0, 67, 65
1, 65628, Note_on_c, 0, 55, 63
1, 65633, Note_on_c, 0, 73, 78
1, 65664, Note_off_c, 0, 55, 64
1, 65687, Note_off_c, 0, 73, 63
1, 65744, Note_on_c, 0, 52, 70
1, 65745, Note_on_c, 0, 67, 96
1, 65796, Note_off_c, 0, 52, 62
1, 65814, Note_off_c, 0, 67, 62
1, 65857, Note_on_c, 0, 46, 62
1, 65863, Note_on_c, 0, 76, 80
1, 65910, Note_off_c, 0, 46, 59
1, 65922, Note_off_c, 0, 76, 63
1, 65971, Note_on_c, 0, 67, 77
1, 65974, Note_on_c, 0, 52, 63
1, 66003, Note_off_c, 0, 67, 65
1, 66006, Note_off_c, 0, 52, 66
1, 66085, Note_on_c, 0, 65, 94
1, 66098, Note_on_c, 0, 57, 83
1, 66148, Note_off_c, 0, 57, 65
1, 66156, Note_off_c, 0, 65, 63
1, 66212, Note_on_c, 0, 53, 73
1, 66213, Note_on_c, 0, 69, 77
1, 66254, Note_off_c, 0, 69, 63
1, 66255, Note_off_c, 0, 53, 61
1, 66335, Note_on_c, 0, 65, 72
1, 66337, Note_on_c, 0, 57, 69
1, 66364, Note_off_c, 0, 65, 65
1, 66373, Note_off_c, 0, 57, 64
1, 66443, Note_on_c, 0, 48, 81
1, 66444, Note_on_c, 0, 72, 100
1, 66482, Note_off_c, 0, 48, 61
1, 66482, Note_off_c, 0, 72, 69
1, 66554, Note_on_c, 0, 53, 64
1, 66560, Note_on_c, 0, 69, 68
1, 66590, Note_off_c, 0, 53, 63
1, 66602, Note_off_c, 0, 69, 62
1, 66665, Note_on_c, 0, 48, 62
1, 66668, Note_on_c, 0, 72, 74
1, 66695, Note_off_c, 0, 48, 64
1, 66700, Note_off_c, 0, 72, 67
1, 66784, Note_on_c, 0, 69, 95
1, 66787, Note_on_c, 0, 53, 86
1, 66837, Note_off_c, 0, 53, 64
1, 66838, Note_off_c, 0, 69, 65
1, 66902, Note_on_c, 0, 77, 74
1, 66908, Note_on_c, 0, 48, 67
1, 66945, Note_off_c, 0, 48, 62
1, 66967, Note_off_c, 0, 77, 62
1, 67016, Note_on_c, 0, 69, 75
1, 67019, Note_on_c, 0, 45, 69
1, 67043, Note_off_c, 0, 69, 66
1, 67047, Note_off_c, 0, 45, 65
1, 67070, Control_c, 0, 64, 37
1, 67085, Control_c, 0, 64, 46
1, 67100, Control_c, 0, 64, 48
1, 67115, Control_c, 0, 64, 45
1, 67128, Note_on_c, 0, 66, 89
1, 67130, Control_c, 0, 64, 0
1, 67142, Note_on_c, 0, 56, 92
1, 67194, Note_off_c, 0, 56, 63
1, 67196, Note_off_c, 0, 66, 59
1, 67246, Note_on_c, 0, 72, 78
1, 67249, Note_on_c, 0, 51, 75
1, 67291, Note_off_c, 0, 51, 61
1, 67299, Note_off_c, 0, 72, 65
1, 67362, Note_on_c, 0, 66, 70
1, 67368, Note_on_c, 0, 56, 63
1, 67392, Note_off_c, 0, 66, 67
1, 67395, Control_c, 0, 64, 42
1, 67404, Note_off_c, 0, 56, 64
1, 67410, Control_c, 0, 64, 58
1, 67425, Control_c, 0, 64, 64
1, 67441, Control_c, 0, 64, 67
1, 67456, Control_c, 0, 64, 65
1, 67471, Control_c, 0, 64, 61
1, 67477, Note_on_c, 0, 48, 86
1, 67479, Note_on_c, 0, 75, 92
1, 67486, Control_c, 0, 64, 46
1, 67500, Control_c, 0, 64, 0
1, 67514, Note_off_c, 0, 48, 63
1, 67526, Note_off_c, 0, 75, 67
1, 67597, Note_on_c, 0, 72, 77
1, 67598, Note_on_c, 0, 51, 70
1, 67641, Note_off_c, 0, 51, 58
1, 67650, Note_off_c, 0, 72, 64
1, 67700, Note_on_c, 0, 75, 70
1, 67714, Note_on_c, 0, 48, 63
1, 67744, Note_off_c, 0, 48, 64
1, 67747, Note_off_c, 0, 75, 54
1, 67774, Control_c, 0, 64, 11
1, 67789, Control_c, 0, 64, 49
1, 67804, Control_c, 0, 64, 64
1, 67818, Control_c, 0, 64, 70
1, 67827, Note_on_c, 0, 51, 83
1, 67827, Note_on_c, 0, 72, 93
1, 67848, Control_c, 0, 64, 65
1, 67863, Control_c, 0, 64, 53
1, 67876, Note_off_c, 0, 51, 63
1, 67878, Control_c, 0, 64, 9
1, 67892, Note_off_c, 0, 72, 64
1, 67893, Control_c, 0, 64, 0
1, 67935, Note_on_c, 0, 48, 70
1, 67946, Note_on_c, 0, 78, 78
1, 67975, Note_off_c, 0, 48, 63
1, 68009, Note_off_c, 0, 78, 64
1, 68048, Note_on_c, 0, 44, 58
1, 68056, Note_on_c, 0, 72, 72
1, 68097, Note_off_c, 0, 44, 58
1, 68105, Note_off_c, 0, 72, 62
1, 68144, Control_c, 0, 64, 34
1, 68159, Note_on_c, 0, 43, 86
1, 68159, Control_c, 0, 64, 62
1, 68167, Note_on_c, 0, 79, 92
1, 68174, Control_c, 0, 64, 76
1, 68189, Control_c, 0, 64, 89
1, 68204, Control_c, 0, 64, 85
1, 68214, Note_off_c, 0, 43, 62
1, 68218, Control_c, 0, 64, 72
1, 68222, Note_off_c, 0, 79, 66
1, 68233, Control_c, 0, 64, 59
1, 68249, Control_c, 0, 64, 23
1, 68264, Control_c, 0, 64, 0
1, 68277, Note_on_c, 0, 71, 77
1, 68278, Note_on_c, 0, 55, 60
1, 68301, Note_on_c, 0, 57, 50
1, 68326, Note_off_c, 0, 55, 62
1, 68328, Note_off_c, 0, 57, 39
1, 68332, Note_off_c, 0, 71, 63
1, 68400, Note_on_c, 0, 53, 64
1, 68406, Note_on_c, 0, 80, 84
1, 68438, Note_off_c, 0, 53, 66
1, 68456, Note_off_c, 0, 80, 66
1, 68479, Control_c, 0, 64, 46
1, 68494, Control_c, 0, 64, 63
1, 68509, Control_c, 0, 64, 69
1, 68514, Note_on_c, 0, 74, 96
1, 68517, Note_on_c, 0, 56, 81
1, 68523, Control_c, 0, 64, 72
1, 68538, Control_c, 0, 64, 68
1, 68553, Control_c, 0, 64, 60
1, 68559, Note_off_c, 0, 56, 62
1, 68567, Control_c, 0, 64, 40
1, 68571, Note_off_c, 0, 74, 64
1, 68582, Control_c, 0, 64, 0
1, 68626, Note_on_c, 0, 83, 79
1, 68629, Note_on_c, 0, 50, 66
1, 68664, Note_off_c, 0, 50, 68
1, 68668, Note_off_c, 0, 83, 66
1, 68734, Note_on_c, 0, 53, 68
1, 68738, Note_on_c, 0, 77, 83
1, 68777, Note_off_c, 0, 53, 60
1, 68787, Note_off_c, 0, 77, 63
1, 68849, Note_on_c, 0, 47, 73
1, 68853, Note_on_c, 0, 86, 93
1, 68864, Control_c, 0, 64, 18
1, 68879, Control_c, 0, 64, 24
1, 68896, Note_off_c, 0, 47, 61
1, 68909, Control_c, 0, 64, 18
1, 68923, Control_c, 0, 64, 0
1, 68931, Note_off_c, 0, 86, 55
1, 68951, Note_on_c, 0, 50, 65
1, 68955, Note_on_c, 0, 80, 84
1, 68990, Note_off_c, 0, 50, 61
1, 69007, Note_off_c, 0, 80, 64
1, 69066, Note_on_c, 0, 89, 83
1, 69072, Note_on_c, 0, 44, 59
1, 69117, Note_off_c, 0, 44, 63
1, 69124, Note_off_c, 0, 89, 63
1, 69187, Note_on_c, 0, 43, 92
1, 69187, Note_on_c, 0, 83, 89
1, 69199, Control_c, 0, 64, 53
1, 69213, Control_c, 0, 64, 69
1, 69228, Control_c, 0, 64, 85
1, 69238, Note_off_c, 0, 43, 63
1, 69243, Control_c, 0, 64, 108
1, 69258, Note_off_c, 0, 83, 63
1, 69258, Control_c, 0, 64, 105
1, 69273, Control_c, 0, 64, 95
1, 69288, Control_c, 0, 64, 85
1, 69296, Note_on_c, 0, 92, 94
1, 69301, Note_on_c, 0, 53, 78
1, 69303, Control_c, 0, 64, 75
1, 69318, Control_c, 0, 64, 69
1, 69333, Control_c, 0, 64, 64
1, 69334, Note_off_c, 0, 53, 65
1, 69347, Control_c, 0, 64, 59
1, 69352, Note_off_c, 0, 92, 67
1, 69362, Control_c, 0, 64, 53
1, 69377, Control_c, 0, 64, 48
1, 69391, Control_c, 0, 64, 45
1, 69404, Note_on_c, 0, 55, 77
1, 69406, Control_c, 0, 64, 41
1, 69408, Note_on_c, 0, 91, 92
1, 69421, Control_c, 0, 64, 34
1, 69436, Control_c, 0, 64, 26
1, 69451, Control_c, 0, 64, 20
1, 69457, Note_off_c, 0, 55, 62
1, 69459, Note_off_c, 0, 91, 66
1, 69465, Control_c, 0, 64, 17
1, 69480, Control_c, 0, 64, 14
1, 69495, Control_c, 0, 64, 9
1, 69510, Control_c, 0, 64, 0
1, 69517, Note_on_c, 0, 56, 78
1, 69517, Note_on_c, 0, 89, 96
1, 69559, Note_off_c, 0, 56, 59
1, 69565, Note_off_c, 0, 89, 65
1, 69621, Note_on_c, 0, 59, 67
1, 69625, Note_on_c, 0, 86, 86
1, 69669, Note_off_c, 0, 59, 61
1, 69679, Note_off_c, 0, 86, 66
1, 69738, Note_on_c, 0, 60, 62
1, 69744, Note_on_c, 0, 87, 84
1, 69762, Control_c, 0, 64, 13
1, 69777, Control_c, 0, 64, 30
1, 69788, Note_off_c, 0, 87, 66
1, 69791, Control_c, 0, 64, 47
1, 69799, Note_off_c, 0, 60, 63
1, 69806, Control_c, 0, 64, 59
1, 69821, Control_c, 0, 64, 63
1, 69844, Control_c, 0, 64, 64
1, 69859, Control_c, 0, 64, 64
1, 69860, Note_on_c, 0, 80, 87
1, 69866, Note_on_c, 0, 53, 72
1, 69874, Control_c, 0, 64, 63
1, 69889, Control_c, 0, 64, 63
1, 69902, Note_off_c, 0, 80, 64
1, 69902, Control_c, 0, 64, 62
1, 69909, Note_off_c, 0, 53, 60
1, 69917, Control_c, 0, 64, 59
1, 69932, Control_c, 0, 64, 56
1, 69947, Control_c, 0, 64, 52
1, 69962, Control_c, 0, 64, 51
1, 69969, Note_on_c, 0, 56, 68
1, 69971, Note_on_c, 0, 77, 93
1, 69977, Control_c, 0, 64, 50
1, 69992, Control_c, 0, 64, 49
1, 70005, Note_off_c, 0, 56, 67
1, 70007, Control_c, 0, 64, 47
1, 70018, Note_off_c, 0, 77, 64
1, 70021, Control_c, 0, 64, 46
1, 70036, Control_c, 0, 64, 45
1, 70051, Control_c, 0, 64, 43
1, 70066, Control_c, 0, 64, 40
1, 70069, Note_on_c, 0, 55, 65
1, 70076, Note_on_c, 0, 79, 86
1, 70081, Control_c, 0, 64, 36
1, 70096, Control_c, 0, 64, 34
1, 70111, Control_c, 0, 64, 33
1, 70120, Note_off_c, 0, 79, 65
1, 70126, Control_c, 0, 64, 32
1, 70141, Control_c, 0, 64, 30
1, 70146, Note_off_c, 0, 55, 61
1, 70155, Control_c, 0, 64, 26
1, 70170, Control_c, 0, 64, 24
1, 70185, Control_c, 0, 64, 23
1, 70188, Note_on_c, 0, 48, 68
1, 70191, Note_on_c, 0, 72, 98
1, 70214, Control_c, 0, 64, 22
1, 70223, Note_off_c, 0, 48, 67
1, 70229, Control_c, 0, 64, 21
1, 70244, Control_c, 0, 64, 20
1, 70259, Control_c, 0, 64, 19
1, 70295, Note_on_c, 0, 51, 70
1, 70303, Control_c, 0, 64, 19
1, 70366, Note_off_c, 0, 51, 65
1, 70403, Note_on_c, 0, 47, 77
1, 70421, Control_c, 0, 64, 18
1, 70436, Control_c, 0, 64, 16
1, 70441, Note_off_c, 0, 47, 61
1, 70451, Control_c, 0, 64, 15
1, 70466, Control_c, 0, 64, 14
1, 70474, Note_off_c, 0, 72, 60
1, 70481, Control_c, 0, 64, 13
1, 70510, Control_c, 0, 64, 12
1, 70534, Note_on_c, 0, 48, 72
1, 70555, Control_c, 0, 64, 11
1, 70598, Note_off_c, 0, 48, 63
1, 70644, Note_on_c, 0, 39, 76
1, 70689, Note_off_c, 0, 39, 62
1, 70740, Control_c, 0, 64, 9
1, 70755, Control_c, 0, 64, 0
1, 70758, Note_on_c, 0, 43, 81
1, 70796, Note_off_c, 0, 43, 61
1, 70877, Note_on_c, 0, 36, 90
1, 71270, Note_off_c, 0, 36, 59
1, 71667, Control_c, 0, 64, 17
1, 71682, Control_c, 0, 64, 35
1, 71682, Control_c, 0, 67, 20
1, 71697, Control_c, 0, 64, 46
1, 71697, Control_c, 0, 67, 40
1, 71711, Control_c, 0, 64, 54
1, 71711, Control_c, 0, 67, 60
1, 71726, Control_c, 0, 64, 58
1, 71726, Control_c, 0, 67, 79
1, 71741, Control_c, 0, 64, 61
1, 71741, Control_c, 0, 67, 92
1, 71756, Control_c, 0, 64, 62
1, 71756, Control_c, 0, 67, 100
1, 71771, Control_c, 0, 64, 64
1, 71771, Control_c, 0, 67, 100
1, 71785, Control_c, 0, 64, 65
1, 71800, Control_c, 0, 64, 66
1, 71800, Control_c, 0, 67, 100
1, 71815, Control_c, 0, 64, 69
1, 71815, Control_c, 0, 67, 99
1, 71830, Control_c, 0, 64, 73
1, 71830, Control_c, 0, 67, 98
1, 71845, Control_c, 0, 64, 79
1, 71845, Control_c, 0, 67, 97
1, 71859, Control_c, 0, 64, 88
1, 71859, Control_c, 0, 67, 96
1, 71874, Control_c, 0, 64, 102
1, 71881, Note_on_c, 0, 36, 37
1, 71889, Control_c, 0, 64, 127
1, 71889, Control_c, 0, 67, 95
1, 71904, Control_c, 0, 67, 94
1, 71919, Control_c, 0, 67, 94
1, 71920, Note_off_c, 0, 36, 52
1, 71933, Control_c, 0, 67, 93
1, 71948, Control_c, 0, 67, 92
1, 71978, Control_c, 0, 67, 92
1, 72037, Control_c, 0, 67, 91
1, 72066, Control_c, 0, 67, 90
1, 72089, Control_c, 0, 67, 90
1, 72170, Note_on_c, 0, 51, 44
1, 72183, Note_on_c, 0, 48, 40
1, 72206, Control_c, 0, 67, 89
1, 72233, Note_off_c, 0, 51, 57
1, 72233, Note_off_c, 0, 48, 58
1, 72296, Control_c, 0, 67, 89
1, 72311, Control_c, 0, 67, 88
1, 72326, Control_c, 0, 67, 87
1, 72340, Note_on_c, 0, 79, 69
1, 72341, Control_c, 0, 67, 87
1, 72356, Control_c, 0, 64, 99
1, 72356, Control_c, 0, 67, 86
1, 72360, Note_on_c, 0, 55, 32
1, 72361, Note_on_c, 0, 67, 53
1, 72370, Control_c, 0, 64, 77
1, 72370, Control_c, 0, 67, 85
1, 72382, Note_on_c, 0, 43, 21
1, 72385, Control_c, 0, 64, 65
1, 72385, Control_c, 0, 67, 84
1, 72400, Control_c, 0, 64, 57
1, 72400, Control_c, 0, 67, 82
1, 72415, Control_c, 0, 64, 56
1, 72415, Control_c, 0, 67, 80
1, 72419, Note_off_c, 0, 55, 44
1, 72430, Control_c, 0, 64, 59
1, 72430, Control_c, 0, 67, 78
1, 72445, Control_c, 0, 64, 63
1, 72445, Control_c, 0, 67, 76
1, 72447, Note_on_c, 0, 51, 48
1, 72460, Control_c, 0, 64, 67
1, 72460, Control_c, 0, 67, 74
1, 72468, Note_on_c, 0, 48, 28
1, 72475, Control_c, 0, 64, 72
1, 72475, Control_c, 0, 67, 72
1, 72482, Note_off_c, 0, 79, 56
1, 72489, Control_c, 0, 64, 81
1, 72489, Control_c, 0, 67, 67
1, 72503, Note_off_c, 0, 67, 61
1, 72504, Control_c, 0, 64, 92
1, 72504, Control_c, 0, 67, 62
1, 72519, Control_c, 0, 64, 110
1, 72519, Control_c, 0, 67, 59
1, 72525, Note_off_c, 0, 43, 25
1, 72534, Control_c, 0, 64, 127
1, 72534, Control_c, 0, 67, 57
1, 72549, Control_c, 0, 67, 56
1, 72559, Note_off_c, 0, 51, 56
1, 72563, Control_c, 0, 67, 56
1, 72578, Control_c, 0, 67, 55
1, 72590, Note_off_c, 0, 48, 36
1, 72606, Note_on_c, 0, 77, 74
1, 72608, Control_c, 0, 64, 99
1, 72608, Control_c, 0, 67, 54
1, 72615, Note_on_c, 0, 43, 33
1, 72617, Note_on_c, 0, 55, 42
1, 72620, Note_on_c, 0, 65, 59
1, 72622, Control_c, 0, 64, 81
1, 72622, Control_c, 0, 67, 54
1, 72637, Control_c, 0, 64, 69
1, 72637, Control_c, 0, 67, 53
1, 72652, Control_c, 0, 64, 58
1, 72652, Control_c, 0, 67, 52
1, 72667, Control_c, 0, 64, 53
1, 72667, Control_c, 0, 67, 52
1, 72681, Control_c, 0, 64, 57
1, 72696, Control_c, 0, 64, 60
1, 72703, Note_off_c, 0, 55, 52
1, 72703, Note_off_c, 0, 65, 60
1, 72711, Control_c, 0, 64, 64
1, 72726, Control_c, 0, 64, 68
1, 72730, Note_on_c, 0, 51, 35
1, 72731, Note_on_c, 0, 48, 38
1, 72741, Control_c, 0, 64, 74
1, 72755, Control_c, 0, 64, 80
1, 72755, Control_c, 0, 67, 51
1, 72762, Note_off_c, 0, 43, 35
1, 72770, Control_c, 0, 64, 89
1, 72785, Control_c, 0, 64, 99
1, 72800, Control_c, 0, 64, 114
1, 72800, Control_c, 0, 67, 51
1, 72814, Control_c, 0, 64, 127
1, 72852, Control_c, 0, 64, 115
1, 72853, Note_off_c, 0, 48, 50
1, 72867, Control_c, 0, 64, 100
1, 72880, Note_on_c, 0, 75, 69
1, 72882, Control_c, 0, 64, 85
1, 72885, Note_off_c, 0, 51, 34
1, 72897, Control_c, 0, 64, 71
1, 72898, Note_on_c, 0, 63, 52
1, 72904, Note_on_c, 0, 55, 32
1, 72906, Note_off_c, 0, 77, 44
1, 72912, Control_c, 0, 64, 60
1, 72917, Note_on_c, 0, 43, 34
1, 72927, Control_c, 0, 64, 39
1, 72942, Control_c, 0, 64, 34
1, 72957, Control_c, 0, 64, 41
1, 72971, Control_c, 0, 64, 53
1, 72982, Note_off_c, 0, 43, 52
1, 72986, Control_c, 0, 64, 61
1, 72987, Note_off_c, 0, 55, 49
1, 73001, Control_c, 0, 64, 66
1, 73003, Note_on_c, 0, 51, 39
1, 73011, Note_on_c, 0, 48, 38
1, 73015, Control_c, 0, 64, 71
1, 73030, Control_c, 0, 64, 80
1, 73038, Note_off_c, 0, 63, 61
1, 73046, Control_c, 0, 64, 92
1, 73048, Note_off_c, 0, 75, 59
1, 73061, Control_c, 0, 64, 110
1, 73076, Control_c, 0, 64, 127
1, 73115, Note_off_c, 0, 51, 53
1, 73115, Note_off_c, 0, 48, 51
1, 73150, Control_c, 0, 64, 100
1, 73161, Note_on_c, 0, 74, 55
1, 73165, Control_c, 0, 64, 81
1, 73166, Note_on_c, 0, 55, 28
1, 73172, Note_on_c, 0, 43, 37
1, 73172, Note_on_c, 0, 62, 41
1, 73179, Control_c, 0, 64, 67
1, 73194, Control_c, 0, 64, 54
1, 73209, Control_c, 0, 64, 35
1, 73224, Control_c, 0, 64, 38
1, 73238, Control_c, 0, 64, 46
1, 73253, Control_c, 0, 64, 56
1, 73253, Control_c, 0, 67, 51
1, 73258, Note_off_c, 0, 43, 53
1, 73268, Control_c, 0, 64, 63
1, 73271, Note_off_c, 0, 62, 60
1, 73274, Note_on_c, 0, 51, 22
1, 73276, Note_off_c, 0, 55, 36
1, 73282, Note_on_c, 0, 48, 33
1, 73283, Control_c, 0, 64, 67
1, 73298, Control_c, 0, 64, 72
1, 73312, Control_c, 0, 64, 79
1, 73314, Note_off_c, 0, 74, 60
1, 73327, Control_c, 0, 64, 86
1, 73342, Control_c, 0, 64, 93
1, 73357, Control_c, 0, 64, 96
1, 73372, Control_c, 0, 64, 95
1, 73387, Control_c, 0, 64, 92
1, 73402, Control_c, 0, 64, 85
1, 73417, Control_c, 0, 64, 73
1, 73418, Note_off_c, 0, 51, 48
1, 73427, Note_on_c, 0, 72, 52
1, 73429, Note_off_c, 0, 48, 35
1, 73431, Control_c, 0, 64, 63
1, 73438, Note_on_c, 0, 60, 43
1, 73446, Control_c, 0, 64, 48
1, 73447, Note_on_c, 0, 55, 37
1, 73458, Note_on_c, 0, 43, 29
1, 73461, Control_c, 0, 64, 34
1, 73476, Control_c, 0, 64, 38
1, 73491, Control_c, 0, 64, 46
1, 73506, Control_c, 0, 64, 56
1, 73514, Note_off_c, 0, 55, 56
1, 73520, Control_c, 0, 64, 62
1, 73535, Control_c, 0, 64, 66
1, 73550, Control_c, 0, 64, 70
1, 73551, Note_on_c, 0, 51, 41
1, 73554, Note_on_c, 0, 48, 52
1, 73565, Control_c, 0, 64, 75
1, 73571, Note_off_c, 0, 60, 57
1, 73580, Note_off_c, 0, 51, 58
1, 73580, Control_c, 0, 64, 83
1, 73595, Note_off_c, 0, 48, 64
1, 73601, Control_c, 0, 64, 89
1, 73612, Note_off_c, 0, 43, 54
1, 73616, Control_c, 0, 64, 94
1, 73631, Control_c, 0, 64, 95
1, 73646, Control_c, 0, 64, 95
1, 73659, Note_off_c, 0, 72, 61
1, 73661, Control_c, 0, 64, 93
1, 73676, Control_c, 0, 64, 89
1, 73691, Control_c, 0, 64, 80
1, 73706, Control_c, 0, 64, 69
1, 73720, Control_c, 0, 64, 58
1, 73735, Control_c, 0, 64, 47
1, 73737, Note_on_c, 0, 43, 56
1, 73738, Note_on_c, 0, 31, 59
1, 73750, Control_c, 0, 64, 51
1, 73764, Control_c, 0, 64, 57
1, 73773, Note_off_c, 0, 31, 62
1, 73779, Control_c, 0, 64, 64
1, 73794, Note_off_c, 0, 43, 63
1, 73794, Control_c, 0, 64, 69
1, 73809, Control_c, 0, 64, 78
1, 73809, Control_c, 0, 67, 50
1, 73824, Control_c, 0, 64, 93
1, 73824, Control_c, 0, 67, 47
1, 73840, Control_c, 0, 64, 127
1, 73840, Control_c, 0, 67, 44
1, 73855, Control_c, 0, 67, 36
1, 73869, Control_c, 0, 67, 0
1, 73946, Note_on_c, 0, 47, 48
1, 73949, Note_on_c, 0, 50, 48
1, 74077, Note_off_c, 0, 47, 55
1, 74091, Control_c, 0, 64, 103
1, 74098, Note_on_c, 0, 86, 80
1, 74106, Note_on_c, 0, 74, 66
1, 74106, Control_c, 0, 64, 80
1, 74114, Note_off_c, 0, 50, 36
1, 74121, Control_c, 0, 64, 64
1, 74122, Note_on_c, 0, 55, 43
1, 74126, Note_on_c, 0, 43, 36
1, 74135, Control_c, 0, 64, 14
1, 74150, Control_c, 0, 64, 0
1, 74224, Control_c, 0, 64, 41
1, 74238, Note_on_c, 0, 47, 37
1, 74239, Control_c, 0, 64, 58
1, 74241, Note_on_c, 0, 50, 40
1, 74254, Control_c, 0, 64, 65
1, 74269, Control_c, 0, 64, 72
1, 74269, Note_off_c, 0, 55, 37
1, 74274, Note_off_c, 0, 43, 46
1, 74284, Control_c, 0, 64, 82
1, 74285, Note_off_c, 0, 86, 59
1, 74299, Control_c, 0, 64, 96
1, 74314, Control_c, 0, 64, 127
1, 74320, Note_off_c, 0, 74, 60
1, 74409, Control_c, 0, 64, 102
1, 74415, Note_on_c, 0, 84, 82
1, 74417, Note_off_c, 0, 50, 43
1, 74423, Note_on_c, 0, 43, 42
1, 74423, Note_off_c, 0, 47, 37
1, 74424, Note_on_c, 0, 55, 41
1, 74424, Control_c, 0, 64, 80
1, 74436, Note_on_c, 0, 72, 62
1, 74439, Control_c, 0, 64, 66
1, 74454, Control_c, 0, 64, 51
1, 74469, Control_c, 0, 64, 26
1, 74469, Control_c, 0, 67, 12
1, 74484, Control_c, 0, 64, 30
1, 74484, Control_c, 0, 67, 22
1, 74499, Control_c, 0, 64, 42
1, 74499, Control_c, 0, 67, 26
1, 74513, Control_c, 0, 64, 58
1, 74513, Control_c, 0, 67, 26
1, 74514, Note_off_c, 0, 55, 54
1, 74528, Control_c, 0, 64, 65
1, 74534, Note_off_c, 0, 43, 57
1, 74543, Control_c, 0, 64, 70
1, 74543, Note_on_c, 0, 47, 37
1, 74545, Note_on_c, 0, 50, 36
1, 74558, Control_c, 0, 64, 78
1, 74568, Note_off_c, 0, 84, 59
1, 74573, Control_c, 0, 64, 89
1, 74573, Control_c, 0, 67, 25
1, 74587, Control_c, 0, 64, 103
1, 74587, Control_c, 0, 67, 24
1, 74591, Note_off_c, 0, 72, 63
1, 74602, Control_c, 0, 64, 127
1, 74648, Control_c, 0, 64, 116
1, 74648, Control_c, 0, 67, 25
1, 74663, Control_c, 0, 64, 101
1, 74677, Control_c, 0, 64, 85
1, 74684, Note_on_c, 0, 83, 73
1, 74689, Note_off_c, 0, 50, 34
1, 74692, Control_c, 0, 64, 68
1, 74692, Control_c, 0, 67, 24
1, 74692, Note_on_c, 0, 55, 36
1, 74692, Note_off_c, 0, 47, 32
1, 74700, Note_on_c, 0, 43, 36
1, 74700, Note_on_c, 0, 71, 54
1, 74707, Control_c, 0, 64, 55
1, 74722, Control_c, 0, 64, 33
1, 74737, Control_c, 0, 64, 31
1, 74737, Control_c, 0, 67, 24
1, 74752, Control_c, 0, 64, 40
1, 74766, Control_c, 0, 64, 53
1, 74766, Control_c, 0, 67, 23
1, 74781, Note_off_c, 0, 43, 52
1, 74781, Control_c, 0, 64, 62
1, 74781, Control_c, 0, 67, 22
1, 74783, Note_off_c, 0, 55, 53
1, 74796, Control_c, 0, 64, 67
1, 74810, Control_c, 0, 64, 74
1, 74810, Control_c, 0, 67, 22
1, 74812, Note_on_c, 0, 47, 17
1, 74817, Note_off_c, 0, 71, 60
1, 74820, Note_on_c, 0, 50, 28
1, 74825, Control_c, 0, 64, 82
1, 74825, Control_c, 0, 67, 21
1, 74840, Control_c, 0, 64, 92
1, 74840, Control_c, 0, 67, 19
1, 74855, Control_c, 0, 64, 103
1, 74870, Control_c, 0, 64, 108
1, 74870, Control_c, 0, 67, 19
1, 74877, Note_off_c, 0, 83, 62
1, 74884, Control_c, 0, 64, 107
1, 74899, Control_c, 0, 64, 104
1, 74914, Control_c, 0, 64, 100
1, 74914, Control_c, 0, 67, 18
1, 74929, Control_c, 0, 64, 92
1, 74941, Note_off_c, 0, 50, 35
1, 74944, Control_c, 0, 64, 79
1, 74944, Control_c, 0, 67, 17
1, 74945, Note_on_c, 0, 81, 66
1, 74956, Note_on_c, 0, 69, 50
1, 74956, Note_off_c, 0, 47, 31
1, 74958, Control_c, 0, 64, 67
1, 74958, Control_c, 0, 67, 16
1, 74959, Note_on_c, 0, 55, 33
1, 74965, Note_on_c, 0, 43, 32
1, 74973, Control_c, 0, 64, 51
1, 74973, Control_c, 0, 67, 16
1, 74988, Control_c, 0, 64, 34
1, 75002, Control_c, 0, 64, 36
1, 75002, Control_c, 0, 67, 15
1, 75017, Control_c, 0, 64, 46
1, 75017, Control_c, 0, 67, 14
1, 75032, Control_c, 0, 64, 57
1, 75032, Control_c, 0, 67, 13
1, 75047, Note_off_c, 0, 55, 55
1, 75047, Control_c, 0, 64, 64
1, 75047, Control_c, 0, 67, 11
1, 75048, Note_off_c, 0, 69, 56
1, 75050, Note_off_c, 0, 43, 55
1, 75062, Control_c, 0, 64, 69
1, 75062, Control_c, 0, 67, 9
1, 75066, Note_on_c, 0, 47, 30
1, 75084, Control_c, 0, 64, 76
1, 75084, Control_c, 0, 67, 8
1, 75098, Note_off_c, 0, 81, 55
1, 75098, Note_on_c, 0, 50, 36
1, 75099, Control_c, 0, 64, 84
1, 75099, Control_c, 0, 67, 0
1, 75114, Control_c, 0, 64, 94
1, 75129, Control_c, 0, 64, 102
1, 75144, Control_c, 0, 64, 102
1, 75158, Control_c, 0, 64, 99
1, 75173, Control_c, 0, 64, 94
1, 75184, Note_off_c, 0, 50, 53
1, 75188, Control_c, 0, 64, 87
1, 75203, Control_c, 0, 64, 75
1, 75210, Note_on_c, 0, 55, 44
1, 75210, Note_on_c, 0, 79, 57
1, 75217, Control_c, 0, 64, 63
1, 75221, Note_off_c, 0, 47, 34
1, 75229, Note_on_c, 0, 67, 47
1, 75232, Control_c, 0, 64, 46
1, 75246, Note_on_c, 0, 43, 36
1, 75247, Control_c, 0, 64, 35
1, 75262, Control_c, 0, 64, 45
1, 75277, Control_c, 0, 64, 57
1, 75292, Control_c, 0, 64, 64
1, 75306, Control_c, 0, 64, 71
1, 75310, Note_off_c, 0, 67, 60
1, 75313, Note_off_c, 0, 55, 60
1, 75321, Control_c, 0, 64, 81
1, 75336, Control_c, 0, 64, 98
1, 75347, Note_on_c, 0, 47, 56
1, 75351, Control_c, 0, 64, 127
1, 75357, Note_off_c, 0, 79, 60
1, 75377, Note_off_c, 0, 47, 63
1, 75391, Note_off_c, 0, 43, 49
1, 75470, Control_c, 0, 64, 95
1, 75485, Control_c, 0, 64, 73
1, 75500, Control_c, 0, 64, 59
1, 75513, Note_on_c, 0, 36, 66
1, 75515, Control_c, 0, 64, 44
1, 75530, Control_c, 0, 64, 50
1, 75545, Control_c, 0, 64, 59
1, 75560, Control_c, 0, 64, 66
1, 75575, Control_c, 0, 64, 77
1, 75577, Note_off_c, 0, 36, 64
1, 75589, Control_c, 0, 64, 115
1, 75604, Control_c, 0, 64, 127
1, 75692, Note_on_c, 0, 48, 56
1, 75699, Note_on_c, 0, 46, 59
1, 75848, Control_c, 0, 64, 111
1, 75863, Control_c, 0, 64, 81
1, 75870, Note_on_c, 0, 85, 85
1, 75878, Note_off_c, 0, 48, 57
1, 75878, Control_c, 0, 64, 64
1, 75879, Note_on_c, 0, 73, 67
1, 75892, Control_c, 0, 64, 33
1, 75902, Note_off_c, 0, 46, 55
1, 75905, Note_on_c, 0, 52, 48
1, 75906, Control_c, 0, 64, 0
1, 75914, Note_on_c, 0, 43, 39
1, 75995, Control_c, 0, 64, 47
1, 76010, Control_c, 0, 64, 64
1, 76025, Control_c, 0, 64, 72
1, 76034, Note_on_c, 0, 48, 42
1, 76037, Note_off_c, 0, 52, 59
1, 76040, Note_on_c, 0, 46, 53
1, 76040, Control_c, 0, 64, 88
1, 76049, Note_off_c, 0, 85, 65
1, 76055, Control_c, 0, 64, 127
1, 76084, Note_off_c, 0, 73, 63
1, 76103, Note_off_c, 0, 43, 39
1, 76174, Control_c, 0, 64, 94
1, 76183, Note_off_c, 0, 46, 53
1, 76188, Note_on_c, 0, 84, 77
1, 76188, Control_c, 0, 64, 73
1, 76198, Note_on_c, 0, 52, 42
1, 76201, Note_on_c, 0, 72, 64
1, 76203, Note_off_c, 0, 48, 43
1, 76203, Control_c, 0, 64, 62
1, 76218, Control_c, 0, 64, 50
1, 76228, Note_on_c, 0, 43, 41
1, 76233, Control_c, 0, 64, 49
1, 76248, Control_c, 0, 64, 54
1, 76263, Control_c, 0, 64, 61
1, 76278, Control_c, 0, 64, 67
1, 76292, Note_off_c, 0, 72, 61
1, 76293, Control_c, 0, 64, 75
1, 76307, Note_off_c, 0, 52, 57
1, 76308, Control_c, 0, 64, 88
1, 76323, Control_c, 0, 64, 115
1, 76325, Note_on_c, 0, 48, 41
1, 76326, Note_off_c, 0, 43, 52
1, 76332, Note_on_c, 0, 46, 48
1, 76337, Control_c, 0, 64, 127
1, 76411, Control_c, 0, 64, 114
1, 76426, Control_c, 0, 64, 85
1, 76436, Note_off_c, 0, 46, 53
1, 76440, Note_off_c, 0, 48, 51
1, 76441, Control_c, 0, 64, 67
1, 76446, Note_on_c, 0, 82, 68
1, 76446, Note_off_c, 0, 84, 52
1, 76455, Control_c, 0, 64, 51
1, 76461, Note_on_c, 0, 52, 35
1, 76469, Note_on_c, 0, 70, 53
1, 76470, Control_c, 0, 64, 19
1, 76485, Control_c, 0, 64, 25
1, 76490, Note_on_c, 0, 43, 39
1, 76500, Control_c, 0, 64, 39
1, 76515, Control_c, 0, 64, 54
1, 76529, Control_c, 0, 64, 62
1, 76544, Control_c, 0, 64, 67
1, 76559, Control_c, 0, 64, 74
1, 76566, Note_off_c, 0, 52, 60
1, 76578, Note_off_c, 0, 43, 52
1, 76581, Note_off_c, 0, 82, 63
1, 76582, Control_c, 0, 64, 84
1, 76597, Control_c, 0, 64, 97
1, 76597, Note_off_c, 0, 70, 64
1, 76599, Note_on_c, 0, 46, 44
1, 76605, Note_on_c, 0, 48, 39
1, 76611, Control_c, 0, 64, 114
1, 76611, Control_c, 0, 67, 18
1, 76626, Control_c, 0, 64, 127
1, 76626, Control_c, 0, 67, 30
1, 76642, Control_c, 0, 67, 41
1, 76656, Control_c, 0, 64, 110
1, 76656, Control_c, 0, 67, 49
1, 76671, Control_c, 0, 64, 99
1, 76671, Control_c, 0, 67, 56
1, 76686, Control_c, 0, 64, 85
1, 76686, Control_c, 0, 67, 59
1, 76701, Control_c, 0, 64, 71
1, 76701, Control_c, 0, 67, 62
1, 76705, Note_off_c, 0, 48, 54
1, 76706, Note_off_c, 0, 46, 57
1, 76716, Control_c, 0, 64, 59
1, 76716, Control_c, 0, 67, 64
1, 76726, Note_on_c, 0, 81, 60
1, 76730, Control_c, 0, 64, 37
1, 76730, Control_c, 0, 67, 64
1, 76743, Note_on_c, 0, 52, 26
1, 76743, Note_on_c, 0, 69, 44
1, 76745, Control_c, 0, 64, 24
1, 76745, Control_c, 0, 67, 65
1, 76751, Note_on_c, 0, 43, 38
1, 76760, Control_c, 0, 64, 31
1, 76775, Control_c, 0, 64, 44
1, 76790, Control_c, 0, 64, 56
1, 76804, Control_c, 0, 64, 63
1, 76819, Control_c, 0, 64, 67
1, 76821, Note_off_c, 0, 69, 61
1, 76834, Control_c, 0, 64, 72
1, 76834, Control_c, 0, 67, 64
1, 76842, Note_off_c, 0, 43, 55
1, 76848, Note_off_c, 0, 52, 52
1, 76849, Control_c, 0, 64, 81
1, 76849, Control_c, 0, 67, 63
1, 76851, Note_on_c, 0, 46, 48
1, 76863, Control_c, 0, 64, 88
1, 76863, Control_c, 0, 67, 62
1, 76866, Note_on_c, 0, 48, 44
1, 76871, Note_off_c, 0, 81, 63
1, 76878, Control_c, 0, 64, 92
1, 76893, Control_c, 0, 64, 93
1, 76908, Control_c, 0, 64, 92
1, 76923, Control_c, 0, 64, 91
1, 76937, Control_c, 0, 64, 87
1, 76937, Control_c, 0, 67, 62
1, 76952, Control_c, 0, 64, 83
1, 76963, Note_off_c, 0, 46, 50
1, 76967, Control_c, 0, 64, 73
1, 76967, Control_c, 0, 67, 61
1, 76969, Note_off_c, 0, 48, 54
1, 76982, Control_c, 0, 64, 63
1, 76982, Control_c, 0, 67, 60
1, 76987, Note_on_c, 0, 79, 55
1, 76992, Note_on_c, 0, 52, 40
1, 76997, Control_c, 0, 64, 47
1, 76997, Control_c, 0, 67, 59
1, 76999, Note_on_c, 0, 67, 43
1, 77005, Note_on_c, 0, 43, 41
1, 77011, Control_c, 0, 64, 34
1, 77011, Control_c, 0, 67, 59
1, 77027, Control_c, 0, 64, 39
1, 77027, Control_c, 0, 67, 58
1, 77042, Control_c, 0, 64, 50
1, 77042, Control_c, 0, 67, 57
1, 77057, Control_c, 0, 64, 59
1, 77057, Control_c, 0, 67, 56
1, 77072, Control_c, 0, 64, 65
1, 77072, Control_c, 0, 67, 54
1, 77086, Control_c, 0, 64, 69
1, 77086, Control_c, 0, 67, 52
1, 77093, Note_off_c, 0, 67, 60
1, 77095, Note_off_c, 0, 52, 58
1, 77101, Control_c, 0, 64, 75
1, 77101, Control_c, 0, 67, 51
1, 77113, Note_on_c, 0, 46, 50
1, 77116, Control_c, 0, 64, 85
1, 77116, Control_c, 0, 67, 49
1, 77128, Note_off_c, 0, 79, 59
1, 77131, Control_c, 0, 64, 93
1, 77131, Control_c, 0, 67, 49
1, 77146, Control_c, 0, 64, 99
1, 77146, Control_c, 0, 67, 48
1, 77149, Note_off_c, 0, 46, 64
1, 77160, Note_off_c, 0, 43, 52
1, 77161, Control_c, 0, 64, 100
1, 77167, Poly_aftertouch_c, 0, 48, 127
1, 77201, Poly_aftertouch_c, 0, 48, 0
1, 77205, Control_c, 0, 64, 99
1, 77220, Control_c, 0, 64, 98
1, 77235, Control_c, 0, 64, 93
1, 77250, Control_c, 0, 64, 84
1, 77265, Control_c, 0, 64, 72
1, 77279, Control_c, 0, 64, 61
1, 77294, Control_c, 0, 64, 42
1, 77309, Control_c, 0, 64, 29
1, 77320, Note_on_c, 0, 41, 52
1, 77331, Note_on_c, 0, 29, 53
1, 77331, Control_c, 0, 64, 37
1, 77346, Control_c, 0, 64, 50
1, 77360, Control_c, 0, 64, 61
1, 77365, Note_off_c, 0, 29, 56
1, 77375, Control_c, 0, 64, 67
1, 77387, Note_off_c, 0, 41, 63
1, 77390, Control_c, 0, 64, 74
1, 77405, Control_c, 0, 64, 87
1, 77420, Control_c, 0, 64, 104
1, 77435, Control_c, 0, 64, 127
1, 77435, Control_c, 0, 67, 47
1, 77450, Control_c, 0, 67, 47
1, 77545, Note_on_c, 0, 45, 45
1, 77545, Note_on_c, 0, 48, 42
1, 77583, Control_c, 0, 67, 47
1, 77598, Control_c, 0, 67, 48
1, 77612, Control_c, 0, 64, 120
1, 77627, Control_c, 0, 64, 111
1, 77627, Control_c, 0, 67, 49
1, 77642, Control_c, 0, 64, 101
1, 77649, Note_off_c, 0, 48, 50
1, 77657, Note_off_c, 0, 45, 51
1, 77657, Control_c, 0, 64, 89
1, 77657, Control_c, 0, 67, 49
1, 77672, Control_c, 0, 64, 72
1, 77685, Note_on_c, 0, 84, 73
1, 77686, Control_c, 0, 64, 58
1, 77692, Note_on_c, 0, 41, 47
1, 77701, Control_c, 0, 64, 0
1, 77703, Note_on_c, 0, 53, 42
1, 77706, Note_on_c, 0, 72, 55
1, 77746, Control_c, 0, 67, 49
1, 77775, Control_c, 0, 67, 48
1, 77790, Control_c, 0, 67, 47
1, 77799, Note_off_c, 0, 53, 54
1, 77804, Control_c, 0, 64, 47
1, 77811, Note_off_c, 0, 41, 57
1, 77815, Note_on_c, 0, 45, 39
1, 77816, Note_on_c, 0, 48, 36
1, 77819, Control_c, 0, 64, 61
1, 77819, Control_c, 0, 67, 47
1, 77831, Note_off_c, 0, 72, 64
1, 77836, Control_c, 0, 64, 67
1, 77850, Control_c, 0, 64, 74
1, 77850, Control_c, 0, 67, 46
1, 77865, Control_c, 0, 64, 85
1, 77865, Control_c, 0, 67, 45
1, 77880, Control_c, 0, 64, 97
1, 77880, Control_c, 0, 67, 44
1, 77895, Control_c, 0, 64, 112
1, 77895, Control_c, 0, 67, 44
1, 77909, Control_c, 0, 64, 122
1, 77909, Control_c, 0, 67, 43
1, 77924, Control_c, 0, 64, 115
1, 77924, Control_c, 0, 67, 42
1, 77939, Control_c, 0, 64, 107
1, 77953, Note_off_c, 0, 45, 36
1, 77954, Control_c, 0, 64, 95
1, 77960, Note_off_c, 0, 48, 34
1, 77962, Note_on_c, 0, 82, 70
1, 77967, Note_on_c, 0, 41, 41
1, 77968, Note_off_c, 0, 84, 50
1, 77969, Control_c, 0, 64, 81
1, 77969, Control_c, 0, 67, 42
1, 77970, Note_on_c, 0, 53, 40
1, 77983, Note_on_c, 0, 70, 56
1, 77983, Control_c, 0, 64, 68
1, 77983, Control_c, 0, 67, 41
1, 77998, Control_c, 0, 64, 55
1, 77998, Control_c, 0, 67, 41
1, 78013, Control_c, 0, 64, 36
1, 78013, Control_c, 0, 67, 40
1, 78028, Control_c, 0, 64, 38
1, 78043, Control_c, 0, 64, 49
1, 78058, Control_c, 0, 64, 59
1, 78061, Note_off_c, 0, 41, 56
1, 78069, Note_off_c, 0, 53, 54
1, 78073, Control_c, 0, 64, 65
1, 78073, Control_c, 0, 67, 39
1, 78093, Note_on_c, 0, 45, 35
1, 78095, Control_c, 0, 64, 71
1, 78095, Control_c, 0, 67, 37
1, 78100, Note_on_c, 0, 48, 41
1, 78100, Note_off_c, 0, 82, 62
1, 78109, Control_c, 0, 64, 80
1, 78109, Control_c, 0, 67, 36
1, 78114, Note_off_c, 0, 70, 63
1, 78124, Control_c, 0, 64, 94
1, 78124, Control_c, 0, 67, 36
1, 78139, Control_c, 0, 64, 115
1, 78139, Control_c, 0, 67, 34
1, 78154, Control_c, 0, 64, 127
1, 78154, Control_c, 0, 67, 31
1, 78169, Control_c, 0, 67, 29
1, 78183, Control_c, 0, 67, 28
1, 78198, Control_c, 0, 64, 112
1, 78198, Control_c, 0, 67, 27
1, 78213, Control_c, 0, 64, 101
1, 78214, Note_off_c, 0, 45, 46
1, 78215, Note_off_c, 0, 48, 49
1, 78228, Control_c, 0, 64, 87
1, 78228, Control_c, 0, 67, 26
1, 78236, Note_on_c, 0, 41, 41
1, 78238, Note_on_c, 0, 81, 63
1, 78243, Control_c, 0, 64, 70
1, 78246, Note_on_c, 0, 53, 39
1, 78254, Note_on_c, 0, 69, 42
1, 78258, Control_c, 0, 64, 60
1, 78258, Control_c, 0, 67, 26
1, 78272, Control_c, 0, 64, 44
1, 78272, Control_c, 0, 67, 25
1, 78287, Control_c, 0, 64, 41
1, 78302, Control_c, 0, 64, 47
1, 78317, Control_c, 0, 64, 55
1, 78332, Control_c, 0, 64, 62
1, 78332, Control_c, 0, 67, 24
1, 78347, Control_c, 0, 64, 66
1, 78347, Control_c, 0, 67, 24
1, 78362, Control_c, 0, 64, 71
1, 78362, Control_c, 0, 67, 23
1, 78362, Note_off_c, 0, 69, 59
1, 78372, Note_on_c, 0, 45, 33
1, 78374, Note_on_c, 0, 48, 43
1, 78376, Control_c, 0, 64, 78
1, 78376, Control_c, 0, 67, 22
1, 78379, Note_off_c, 0, 81, 63
1, 78388, Note_off_c, 0, 41, 34
1, 78391, Control_c, 0, 64, 86
1, 78391, Control_c, 0, 67, 22
1, 78395, Note_off_c, 0, 53, 35
1, 78406, Control_c, 0, 64, 95
1, 78406, Control_c, 0, 67, 21
1, 78421, Control_c, 0, 64, 101
1, 78421, Control_c, 0, 67, 17
1, 78435, Control_c, 0, 64, 100
1, 78435, Control_c, 0, 67, 12
1, 78450, Control_c, 0, 64, 98
1, 78450, Control_c, 0, 67, 9
1, 78465, Control_c, 0, 64, 95
1, 78465, Control_c, 0, 67, 0
1, 78473, Note_off_c, 0, 45, 48
1, 78475, Note_off_c, 0, 48, 54
1, 78480, Control_c, 0, 64, 90
1, 78495, Control_c, 0, 64, 82
1, 78499, Note_on_c, 0, 79, 59
1, 78509, Note_on_c, 0, 67, 52
1, 78509, Control_c, 0, 64, 69
1, 78522, Note_on_c, 0, 53, 44
1, 78524, Control_c, 0, 64, 60
1, 78529, Note_on_c, 0, 41, 41
1, 78539, Control_c, 0, 64, 49
1, 78554, Control_c, 0, 64, 48
1, 78569, Control_c, 0, 64, 52
1, 78583, Control_c, 0, 64, 58
1, 78598, Control_c, 0, 64, 64
1, 78602, Note_off_c, 0, 41, 54
1, 78611, Note_off_c, 0, 53, 55
1, 78613, Control_c, 0, 64, 68
1, 78627, Note_on_c, 0, 48, 43
1, 78627, Note_off_c, 0, 67, 52
1, 78629, Control_c, 0, 64, 74
1, 78630, Note_on_c, 0, 45, 42
1, 78644, Note_off_c, 0, 79, 58
1, 78644, Control_c, 0, 64, 83
1, 78659, Control_c, 0, 64, 93
1, 78673, Control_c, 0, 64, 103
1, 78688, Control_c, 0, 64, 106
1, 78703, Control_c, 0, 64, 105
1, 78718, Control_c, 0, 64, 102
1, 78732, Control_c, 0, 64, 99
1, 78747, Control_c, 0, 64, 94
1, 78762, Control_c, 0, 64, 82
1, 78773, Note_off_c, 0, 48, 35
1, 78777, Control_c, 0, 64, 67
1, 78778, Note_on_c, 0, 77, 56
1, 78780, Note_on_c, 0, 53, 43
1, 78782, Note_off_c, 0, 45, 35
1, 78792, Control_c, 0, 64, 44
1, 78798, Note_on_c, 0, 65, 43
1, 78804, Note_on_c, 0, 41, 40
1, 78806, Control_c, 0, 64, 0
1, 78844, Control_c, 0, 64, 24
1, 78858, Control_c, 0, 64, 48
1, 78873, Control_c, 0, 64, 60
1, 78888, Control_c, 0, 64, 67
1, 78893, Note_off_c, 0, 53, 59
1, 78903, Control_c, 0, 64, 73
1, 78911, Note_on_c, 0, 45, 54
1, 78914, Note_on_c, 0, 48, 46
1, 78918, Control_c, 0, 64, 84
1, 78931, Note_off_c, 0, 41, 51
1, 78932, Control_c, 0, 64, 102
1, 78933, Note_off_c, 0, 65, 44
1, 78942, Note_off_c, 0, 48, 54
1, 78945, Note_off_c, 0, 45, 64
1, 78947, Control_c, 0, 64, 127
1, 78990, Note_off_c, 0, 77, 54
1, 79021, Control_c, 0, 64, 108
1, 79036, Control_c, 0, 64, 78
1, 79051, Control_c, 0, 64, 61
1, 79065, Control_c, 0, 64, 42
1, 79072, Note_on_c, 0, 38, 62
1, 79080, Control_c, 0, 64, 47
1, 79095, Control_c, 0, 64, 56
1, 79110, Control_c, 0, 64, 64
1, 79121, Note_off_c, 0, 38, 63
1, 79125, Control_c, 0, 64, 71
1, 79140, Control_c, 0, 64, 88
1, 79155, Control_c, 0, 64, 127
1, 79239, Note_on_c, 0, 49, 49
1, 79270, Note_off_c, 0, 49, 52
1, 79274, Note_on_c, 0, 48, 60
1, 79322, Poly_aftertouch_c, 0, 51, 0
1, 79348, Note_on_c, 0, 50, 18
1, 79392, Control_c, 0, 64, 107
1, 79402, Note_on_c, 0, 87, 76
1, 79406, Note_off_c, 0, 50, 51
1, 79406, Control_c, 0, 64, 73
1, 79409, Note_on_c, 0, 54, 62
1, 79409, Note_on_c, 0, 75, 66
1, 79414, Note_off_c, 0, 48, 56
1, 79422, Control_c, 0, 64, 50
1, 79432, Note_on_c, 0, 45, 45
1, 79437, Control_c, 0, 64, 0
1, 79496, Control_c, 0, 64, 34
1, 79511, Control_c, 0, 64, 57
1, 79526, Control_c, 0, 64, 66
1, 79541, Control_c, 0, 64, 78
1, 79546, Note_on_c, 0, 50, 58
1, 79547, Note_on_c, 0, 48, 59
1, 79555, Note_off_c, 0, 45, 58
1, 79555, Control_c, 0, 64, 101
1, 79557, Note_off_c, 0, 54, 57
1, 79578, Control_c, 0, 64, 127
1, 79590, Note_off_c, 0, 87, 64
1, 79614, Note_off_c, 0, 75, 62
1, 79681, Control_c, 0, 64, 93
1, 79685, Note_off_c, 0, 48, 60
1, 79688, Note_on_c, 0, 86, 85
1, 79694, Note_on_c, 0, 74, 68
1, 79696, Control_c, 0, 64, 73
1, 79698, Note_on_c, 0, 45, 58
1, 79709, Note_off_c, 0, 50, 58
1, 79711, Control_c, 0, 64, 62
1, 79717, Note_on_c, 0, 54, 54
1, 79726, Control_c, 0, 64, 53
1, 79741, Control_c, 0, 64, 56
1, 79755, Control_c, 0, 64, 60
1, 79770, Control_c, 0, 64, 65
1, 79785, Control_c, 0, 64, 73
1, 79800, Control_c, 0, 64, 92
1, 79814, Note_off_c, 0, 86, 52
1, 79815, Control_c, 0, 64, 127
1, 79820, Note_on_c, 0, 48, 61
1, 79821, Note_on_c, 0, 50, 69
1, 79839, Note_off_c, 0, 45, 60
1, 79844, Note_off_c, 0, 74, 62
1, 79853, Note_off_c, 0, 54, 59
1, 79933, Control_c, 0, 64, 97
1, 79945, Note_on_c, 0, 84, 88
1, 79948, Control_c, 0, 64, 72
1, 79951, Note_off_c, 0, 48, 60
1, 79952, Note_on_c, 0, 72, 79
1, 79958, Note_on_c, 0, 45, 62
1, 79963, Control_c, 0, 64, 56
1, 79974, Note_off_c, 0, 50, 57
1, 79977, Control_c, 0, 64, 12
1, 79979, Note_on_c, 0, 54, 60
1, 79992, Control_c, 0, 64, 0
1, 80007, Control_c, 0, 64, 32
1, 80022, Control_c, 0, 64, 52
1, 80037, Control_c, 0, 64, 63
1, 80052, Control_c, 0, 64, 69
1, 80067, Control_c, 0, 64, 80
1, 80073, Note_off_c, 0, 84, 51
1, 80079, Note_on_c, 0, 50, 63
1, 80081, Control_c, 0, 64, 101
1, 80091, Note_on_c, 0, 48, 63
1, 80096, Control_c, 0, 64, 127
1, 80103, Note_off_c, 0, 54, 62
1, 80116, Note_off_c, 0, 72, 62
1, 80121, Note_off_c, 0, 45, 58
1, 80199, Control_c, 0, 64, 106
1, 80214, Control_c, 0, 64, 76
1, 80219, Note_on_c, 0, 83, 91
1, 80224, Note_on_c, 0, 71, 88
1, 80228, Note_on_c, 0, 54, 65
1, 80231, Note_off_c, 0, 48, 62
1, 80231, Control_c, 0, 64, 60
1, 80238, Note_on_c, 0, 45, 65
1, 80243, Note_off_c, 0, 50, 60
1, 80245, Control_c, 0, 64, 26
1, 80260, Control_c, 0, 64, 0
1, 80275, Control_c, 0, 64, 30
1, 80290, Control_c, 0, 64, 51
1, 80304, Control_c, 0, 64, 63
1, 80326, Control_c, 0, 64, 69
1, 80341, Control_c, 0, 64, 80
1, 80354, Note_off_c, 0, 83, 56
1, 80356, Control_c, 0, 64, 103
1, 80362, Note_on_c, 0, 50, 72
1, 80367, Note_on_c, 0, 48, 70
1, 80371, Control_c, 0, 64, 127
1, 80384, Note_off_c, 0, 54, 60
1, 80388, Note_off_c, 0, 45, 60
1, 80392, Note_off_c, 0, 71, 60
1, 80504, Control_c, 0, 64, 97
1, 80514, Note_on_c, 0, 81, 89
1, 80517, Note_on_c, 0, 69, 92
1, 80519, Control_c, 0, 64, 71
1, 80526, Note_off_c, 0, 48, 59
1, 80530, Note_on_c, 0, 45, 67
1, 80531, Note_on_c, 0, 54, 70
1, 80534, Control_c, 0, 64, 52
1, 80549, Control_c, 0, 64, 0
1, 80562, Note_off_c, 0, 50, 52
1, 80593, Control_c, 0, 64, 31
1, 80608, Control_c, 0, 64, 56
1, 80623, Control_c, 0, 64, 66
1, 80638, Control_c, 0, 64, 75
1, 80652, Control_c, 0, 64, 109
1, 80663, Note_on_c, 0, 50, 60
1, 80667, Control_c, 0, 64, 127
1, 80678, Note_on_c, 0, 48, 62
1, 80678, Note_off_c, 0, 45, 62
1, 80691, Note_off_c, 0, 69, 58
1, 80708, Note_off_c, 0, 54, 61
1, 80732, Note_off_c, 0, 81, 60
1, 80738, Note_off_c, 0, 48, 56
1, 80857, Note_on_c, 0, 55, 78
1, 80861, Note_on_c, 0, 83, 100
1, 80866, Note_on_c, 0, 71, 91
1, 80872, Note_on_c, 0, 43, 68
1, 80875, Control_c, 0, 64, 89
1, 80882, Note_off_c, 0, 50, 62
1, 80890, Control_c, 0, 64, 66
1, 80904, Control_c, 0, 64, 25
1, 80919, Control_c, 0, 64, 0
1, 81008, Control_c, 0, 64, 22
1, 81024, Control_c, 0, 64, 57
1, 81039, Control_c, 0, 64, 66
1, 81045, Note_off_c, 0, 71, 60
1, 81054, Control_c, 0, 64, 77
1, 81057, Note_on_c, 0, 50, 76
1, 81059, Note_off_c, 0, 43, 63
1, 81061, Note_on_c, 0, 47, 70
1, 81075, Control_c, 0, 64, 109
1, 81090, Control_c, 0, 64, 127
1, 81092, Note_off_c, 0, 55, 59
1, 81097, Note_off_c, 0, 83, 61
1, 81421, Note_on_c, 0, 92, 104
1, 81426, Note_on_c, 0, 80, 86
1, 81444, Control_c, 0, 64, 89
1, 81456, Note_on_c, 0, 53, 60
1, 81459, Control_c, 0, 64, 69
1, 81464, Note_on_c, 0, 41, 54
1, 81468, Note_off_c, 0, 47, 53
1, 81474, Control_c, 0, 64, 52
1, 81489, Control_c, 0, 64, 0
1, 81499, Note_off_c, 0, 50, 53
1, 81715, Note_on_c, 0, 47, 45
1, 81718, Note_on_c, 0, 50, 43
1, 81734, Note_off_c, 0, 53, 54
1, 81741, Control_c, 0, 64, 31
1, 81756, Control_c, 0, 64, 55
1, 81771, Control_c, 0, 64, 66
1, 81786, Control_c, 0, 64, 74
1, 81793, Note_off_c, 0, 41, 38
1, 81800, Control_c, 0, 64, 92
1, 81815, Control_c, 0, 64, 127
1, 81881, Note_off_c, 0, 47, 53
1, 81903, Note_on_c, 0, 53, 45
1, 81921, Note_off_c, 0, 50, 38
1, 81930, Note_on_c, 0, 41, 48
1, 82041, Note_off_c, 0, 41, 50
1, 82044, Note_off_c, 0, 53, 34
1, 82053, Note_off_c, 0, 92, 55
1, 82077, Note_on_c, 0, 47, 34
1, 82079, Note_on_c, 0, 50, 33
1, 82087, Note_off_c, 0, 80, 60
1, 82233, Note_off_c, 0, 47, 35
1, 82238, Control_c, 0, 64, 120
1, 82244, Note_on_c, 0, 91, 81
1, 82246, Note_off_c, 0, 50, 41
1, 82253, Control_c, 0, 64, 82
1, 82255, Note_on_c, 0, 79, 61
1, 82264, Note_on_c, 0, 55, 50
1, 82267, Note_on_c, 0, 43, 47
1, 82267, Control_c, 0, 64, 64
1, 82282, Control_c, 0, 64, 34
1, 82297, Control_c, 0, 64, 0
1, 82327, Control_c, 0, 64, 9
1, 82341, Control_c, 0, 64, 46
1, 82356, Control_c, 0, 64, 60
1, 82371, Control_c, 0, 64, 66
1, 82383, Note_off_c, 0, 55, 58
1, 82386, Control_c, 0, 64, 72
1, 82391, Note_off_c, 0, 43, 61
1, 82396, Note_on_c, 0, 50, 47
1, 82401, Control_c, 0, 64, 83
1, 82402, Note_on_c, 0, 47, 39
1, 82416, Control_c, 0, 64, 111
1, 82421, Note_off_c, 0, 79, 57
1, 82431, Control_c, 0, 64, 127
1, 82444, Note_off_c, 0, 91, 53
1, 82549, Control_c, 0, 64, 106
1, 82556, Note_on_c, 0, 89, 84
1, 82560, Note_off_c, 0, 47, 32
1, 82564, Control_c, 0, 64, 80
1, 82574, Note_on_c, 0, 77, 71
1, 82583, Note_on_c, 0, 44, 54
1, 82583, Note_on_c, 0, 56, 48
1, 82586, Control_c, 0, 64, 64
1, 82599, Note_off_c, 0, 50, 34
1, 82601, Control_c, 0, 64, 42
1, 82616, Control_c, 0, 64, 0
1, 82660, Control_c, 0, 64, 40
1, 82675, Control_c, 0, 64, 58
1, 82690, Control_c, 0, 64, 66
1, 82705, Control_c, 0, 64, 77
1, 82715, Note_on_c, 0, 47, 47
1, 82720, Note_off_c, 0, 77, 55
1, 82720, Control_c, 0, 64, 100
1, 82723, Note_on_c, 0, 50, 51
1, 82735, Control_c, 0, 64, 127
1, 82748, Note_off_c, 0, 56, 52
1, 82751, Note_off_c, 0, 44, 58
1, 82844, Note_off_c, 0, 89, 59
1, 82853, Note_on_c, 0, 91, 82
1, 82866, Note_on_c, 0, 79, 68
1, 82868, Control_c, 0, 64, 100
1, 82872, Note_off_c, 0, 47, 49
1, 82874, Note_on_c, 0, 55, 58
1, 82878, Note_off_c, 0, 50, 56
1, 82883, Control_c, 0, 64, 74
1, 82884, Note_on_c, 0, 43, 54
1, 82897, Control_c, 0, 64, 55
1, 82912, Control_c, 0, 64, 0
1, 82942, Control_c, 0, 64, 11
1, 82957, Control_c, 0, 64, 41
1, 82971, Control_c, 0, 64, 58
1, 82986, Control_c, 0, 64, 67
1, 83001, Control_c, 0, 64, 78
1, 83016, Control_c, 0, 64, 104
1, 83020, Note_off_c, 0, 43, 58
1, 83021, Note_off_c, 0, 55, 60
1, 83024, Note_on_c, 0, 50, 55
1, 83031, Control_c, 0, 64, 127
1, 83041, Note_on_c, 0, 47, 43
1, 83069, Note_off_c, 0, 79, 33
1, 83161, Note_off_c, 0, 47, 44
1, 83195, Note_on_c, 0, 92, 72
1, 83197, Note_off_c, 0, 91, 60
1, 83200, Note_off_c, 0, 50, 34
1, 83209, Control_c, 0, 64, 87
1, 83215, Note_on_c, 0, 80, 52
1, 83221, Note_on_c, 0, 41, 48
1, 83224, Note_on_c, 0, 53, 47
1, 83224, Control_c, 0, 64, 69
1, 83238, Control_c, 0, 64, 51
1, 83253, Control_c, 0, 64, 0
1, 83297, Control_c, 0, 64, 13
1, 83319, Control_c, 0, 64, 45
1, 83334, Control_c, 0, 64, 59
1, 83349, Control_c, 0, 64, 66
1, 83364, Note_off_c, 0, 53, 57
1, 83364, Control_c, 0, 64, 72
1, 83370, Note_off_c, 0, 41, 57
1, 83370, Note_on_c, 0, 50, 35
1, 83379, Control_c, 0, 64, 83
1, 83389, Note_on_c, 0, 47, 36
1, 83394, Control_c, 0, 64, 100
1, 83406, Note_off_c, 0, 92, 60
1, 83409, Control_c, 0, 64, 127
1, 83445, Note_off_c, 0, 80, 56
1, 83513, Control_c, 0, 64, 94
1, 83526, Note_on_c, 0, 91, 72
1, 83528, Control_c, 0, 64, 73
1, 83534, Note_on_c, 0, 79, 63
1, 83541, Note_off_c, 0, 47, 36
1, 83543, Control_c, 0, 64, 55
1, 83546, Note_off_c, 0, 50, 40
1, 83552, Note_on_c, 0, 55, 44
1, 83558, Control_c, 0, 64, 11
1, 83559, Note_on_c, 0, 43, 42
1, 83572, Control_c, 0, 64, 0
1, 83587, Control_c, 0, 64, 23
1, 83602, Control_c, 0, 64, 46
1, 83617, Control_c, 0, 64, 60
1, 83632, Control_c, 0, 64, 67
1, 83644, Note_off_c, 0, 55, 62
1, 83647, Control_c, 0, 64, 76
1, 83650, Note_off_c, 0, 43, 56
1, 83657, Note_on_c, 0, 47, 54
1, 83661, Note_off_c, 0, 79, 59
1, 83662, Control_c, 0, 64, 90
1, 83674, Note_on_c, 0, 50, 51
1, 83676, Control_c, 0, 64, 127
1, 83711, Note_off_c, 0, 91, 56
1, 83781, Note_off_c, 0, 47, 52
1, 83808, Note_off_c, 0, 50, 51
1, 83809, Control_c, 0, 64, 108
1, 83811, Note_on_c, 0, 89, 81
1, 83813, Note_on_c, 0, 77, 73
1, 83819, Note_on_c, 0, 56, 54
1, 83824, Control_c, 0, 64, 78
1, 83829, Note_on_c, 0, 44, 56
1, 83839, Control_c, 0, 64, 63
1, 83853, Control_c, 0, 64, 32
1, 83868, Control_c, 0, 64, 0
1, 83898, Control_c, 0, 64, 15
1, 83912, Control_c, 0, 64, 50
1, 83926, Note_off_c, 0, 56, 62
1, 83927, Control_c, 0, 64, 62
1, 83940, Note_off_c, 0, 77, 63
1, 83942, Control_c, 0, 64, 68
1, 83957, Control_c, 0, 64, 76
1, 83959, Note_on_c, 0, 47, 51
1, 83959, Note_off_c, 0, 44, 62
1, 83963, Note_on_c, 0, 50, 54
1, 83972, Control_c, 0, 64, 92
1, 83987, Control_c, 0, 64, 127
1, 84091, Note_off_c, 0, 47, 55
1, 84098, Control_c, 0, 64, 89
1, 84107, Note_on_c, 0, 80, 67
1, 84108, Note_on_c, 0, 92, 90
1, 84112, Note_on_c, 0, 41, 56
1, 84113, Control_c, 0, 64, 69
1, 84119, Note_on_c, 0, 53, 54
1, 84128, Control_c, 0, 64, 52
1, 84134, Note_off_c, 0, 50, 37
1, 84143, Control_c, 0, 64, 0
1, 84156, Note_off_c, 0, 89, 60
1, 84188, Control_c, 0, 64, 37
1, 84202, Control_c, 0, 64, 57
1, 84218, Control_c, 0, 64, 65
1, 84233, Control_c, 0, 64, 74
1, 84243, Note_off_c, 0, 53, 57
1, 84245, Note_off_c, 0, 41, 59
1, 84248, Note_on_c, 0, 47, 55
1, 84248, Control_c, 0, 64, 92
1, 84263, Control_c, 0, 64, 127
1, 84264, Note_on_c, 0, 50, 54
1, 84276, Note_off_c, 0, 80, 63
1, 84291, Note_off_c, 0, 92, 66
1, 84381, Control_c, 0, 64, 114
1, 84390, Note_on_c, 0, 91, 83
1, 84396, Control_c, 0, 64, 81
1, 84399, Note_on_c, 0, 79, 68
1, 84408, Note_off_c, 0, 47, 55
1, 84411, Control_c, 0, 64, 64
1, 84418, Note_on_c, 0, 55, 51
1, 84422, Note_off_c, 0, 50, 57
1, 84424, Note_on_c, 0, 43, 53
1, 84425, Control_c, 0, 64, 41
1, 84440, Control_c, 0, 64, 0
1, 84470, Control_c, 0, 64, 31
1, 84485, Control_c, 0, 64, 52
1, 84500, Control_c, 0, 64, 63
1, 84514, Control_c, 0, 64, 70
1, 84529, Control_c, 0, 64, 81
1, 84541, Note_off_c, 0, 91, 58
1, 84544, Control_c, 0, 64, 108
1, 84546, Note_on_c, 0, 47, 56
1, 84553, Note_off_c, 0, 43, 58
1, 84559, Control_c, 0, 64, 127
1, 84565, Note_on_c, 0, 50, 46
1, 84568, Note_off_c, 0, 79, 62
1, 84568, Note_off_c, 0, 55, 62
1, 84577, Note_off_c, 0, 47, 63
1, 84595, Note_off_c, 0, 50, 54
1, 84692, Control_c, 0, 64, 98
1, 84698, Note_on_c, 0, 89, 78
1, 84707, Control_c, 0, 64, 74
1, 84720, Note_on_c, 0, 77, 64
1, 84722, Control_c, 0, 64, 58
1, 84727, Note_on_c, 0, 59, 55
1, 84729, Note_on_c, 0, 47, 39
1, 84737, Control_c, 0, 64, 19
1, 84751, Control_c, 0, 64, 0
1, 84781, Control_c, 0, 64, 25
1, 84796, Control_c, 0, 64, 45
1, 84818, Control_c, 0, 64, 58
1, 84832, Note_off_c, 0, 77, 62
1, 84833, Control_c, 0, 64, 65
1, 84833, Note_off_c, 0, 59, 57
1, 84838, Note_on_c, 0, 50, 49
1, 84848, Control_c, 0, 64, 72
1, 84854, Note_off_c, 0, 89, 61
1, 84857, Note_on_c, 0, 55, 48
1, 84863, Control_c, 0, 64, 82
1, 84877, Control_c, 0, 64, 100
1, 84879, Note_off_c, 0, 47, 54
1, 84892, Control_c, 0, 64, 127
1, 84912, Note_off_c, 0, 50, 60
1, 84929, Note_off_c, 0, 55, 50
1, 84937, Control_c, 0, 67, 20
1, 84951, Control_c, 0, 67, 35
1, 84966, Control_c, 0, 67, 47
1, 84981, Control_c, 0, 64, 102
1, 84981, Control_c, 0, 67, 59
1, 84996, Control_c, 0, 64, 79
1, 84996, Control_c, 0, 67, 68
1, 85009, Note_on_c, 0, 87, 68
1, 85011, Control_c, 0, 64, 64
1, 85011, Control_c, 0, 67, 78
1, 85018, Note_on_c, 0, 60, 49
1, 85027, Control_c, 0, 64, 23
1, 85027, Control_c, 0, 67, 86
1, 85028, Note_on_c, 0, 75, 55
1, 85041, Control_c, 0, 64, 0
1, 85041, Control_c, 0, 67, 93
1, 85056, Control_c, 0, 67, 100
1, 85071, Control_c, 0, 67, 105
1, 85086, Control_c, 0, 67, 108
1, 85101, Control_c, 0, 64, 9
1, 85115, Control_c, 0, 64, 42
1, 85130, Control_c, 0, 64, 60
1, 85132, Note_off_c, 0, 60, 56
1, 85145, Control_c, 0, 64, 66
1, 85145, Control_c, 0, 67, 107
1, 85160, Control_c, 0, 64, 74
1, 85160, Control_c, 0, 67, 107
1, 85167, Note_on_c, 0, 48, 49
1, 85174, Control_c, 0, 64, 88
1, 85185, Note_off_c, 0, 75, 59
1, 85185, Note_off_c, 0, 87, 63
1, 85189, Control_c, 0, 64, 127
1, 85189, Control_c, 0, 67, 106
1, 85211, Note_off_c, 0, 48, 62
1, 85219, Control_c, 0, 67, 105
1, 85234, Control_c, 0, 67, 105
1, 85248, Control_c, 0, 67, 104
1, 85292, Control_c, 0, 64, 106
1, 85292, Control_c, 0, 67, 104
1, 85307, Control_c, 0, 64, 77
1, 85307, Control_c, 0, 67, 103
1, 85309, Note_on_c, 0, 86, 64
1, 85322, Control_c, 0, 64, 62
1, 85322, Control_c, 0, 67, 102
1, 85323, Note_on_c, 0, 74, 49
1, 85326, Note_on_c, 0, 55, 47
1, 85337, Control_c, 0, 64, 33
1, 85337, Control_c, 0, 67, 101
1, 85352, Control_c, 0, 64, 0
1, 85352, Control_c, 0, 67, 100
1, 85367, Control_c, 0, 67, 99
1, 85382, Control_c, 0, 64, 25
1, 85397, Control_c, 0, 64, 50
1, 85397, Control_c, 0, 67, 98
1, 85412, Control_c, 0, 64, 61
1, 85412, Control_c, 0, 67, 97
1, 85417, Note_off_c, 0, 55, 58
1, 85427, Control_c, 0, 64, 66
1, 85427, Control_c, 0, 67, 96
1, 85436, Note_off_c, 0, 74, 57
1, 85441, Control_c, 0, 64, 71
1, 85441, Control_c, 0, 67, 95
1, 85456, Control_c, 0, 64, 77
1, 85456, Control_c, 0, 67, 95
1, 85458, Note_on_c, 0, 43, 40
1, 85468, Note_off_c, 0, 86, 48
1, 85471, Control_c, 0, 64, 86
1, 85471, Control_c, 0, 67, 94
1, 85486, Control_c, 0, 64, 96
1, 85498, Note_off_c, 0, 43, 60
1, 85500, Control_c, 0, 64, 110
1, 85500, Control_c, 0, 67, 94
1, 85515, Control_c, 0, 64, 122
1, 85530, Control_c, 0, 64, 125
1, 85545, Control_c, 0, 64, 122
1, 85560, Control_c, 0, 64, 116
1, 85582, Control_c, 0, 64, 113
1, 85596, Control_c, 0, 64, 106
1, 85611, Control_c, 0, 64, 98
1, 85626, Note_on_c, 0, 84, 59
1, 85626, Control_c, 0, 64, 86
1, 85641, Control_c, 0, 64, 73
1, 85644, Note_on_c, 0, 72, 41
1, 85653, Note_on_c, 0, 48, 40
1, 85656, Control_c, 0, 64, 63
1, 85671, Control_c, 0, 64, 48
1, 85686, Control_c, 0, 64, 36
1, 85700, Control_c, 0, 64, 38
1, 85715, Control_c, 0, 64, 45
1, 85730, Control_c, 0, 64, 53
1, 85745, Control_c, 0, 64, 60
1, 85760, Note_off_c, 0, 48, 51
1, 85760, Control_c, 0, 64, 64
1, 85774, Control_c, 0, 64, 68
1, 85784, Note_on_c, 0, 36, 43
1, 85789, Control_c, 0, 64, 72
1, 85799, Note_off_c, 0, 72, 39
1, 85804, Control_c, 0, 64, 78
1, 85807, Note_off_c, 0, 84, 55
1, 85820, Control_c, 0, 64, 85
1, 85835, Control_c, 0, 64, 92
1, 85835, Control_c, 0, 67, 93
1, 85838, Note_off_c, 0, 36, 58
1, 85850, Control_c, 0, 64, 99
1, 85864, Control_c, 0, 64, 104
1, 85879, Control_c, 0, 64, 104
1, 85894, Control_c, 0, 64, 103
1, 85909, Control_c, 0, 64, 100
1, 85923, Control_c, 0, 64, 97
1, 85938, Control_c, 0, 64, 91
1, 85953, Control_c, 0, 64, 84
1, 85958, Note_on_c, 0, 83, 56
1, 85968, Control_c, 0, 64, 71
1, 85978, Note_on_c, 0, 71, 41
1, 85983, Control_c, 0, 64, 62
1, 85992, Note_on_c, 0, 43, 30
1, 85997, Control_c, 0, 64, 50
1, 86012, Control_c, 0, 64, 40
1, 86027, Control_c, 0, 64, 41
1, 86042, Control_c, 0, 64, 45
1, 86057, Control_c, 0, 64, 51
1, 86071, Control_c, 0, 64, 56
1, 86086, Control_c, 0, 64, 60
1, 86101, Control_c, 0, 64, 63
1, 86115, Control_c, 0, 64, 65
1, 86121, Note_on_c, 0, 31, 39
1, 86130, Note_off_c, 0, 71, 36
1, 86130, Control_c, 0, 64, 68
1, 86145, Note_off_c, 0, 83, 55
1, 86145, Control_c, 0, 64, 72
1, 86157, Note_off_c, 0, 43, 26
1, 86160, Control_c, 0, 64, 75
1, 86175, Control_c, 0, 64, 79
1, 86190, Control_c, 0, 64, 83
1, 86194, Note_off_c, 0, 31, 52
1, 86205, Control_c, 0, 64, 85
1, 86220, Control_c, 0, 64, 85
1, 86315, Control_c, 0, 67, 94
1, 86330, Control_c, 0, 64, 85
1, 86345, Control_c, 0, 64, 84
1, 86360, Control_c, 0, 64, 83
1, 86375, Control_c, 0, 64, 82
1, 86389, Control_c, 0, 64, 80
1, 86389, Control_c, 0, 67, 94
1, 86403, Note_on_c, 0, 84, 52
1, 86404, Control_c, 0, 64, 76
1, 86419, Control_c, 0, 64, 70
1, 86427, Note_on_c, 0, 72, 37
1, 86434, Control_c, 0, 64, 62
1, 86434, Control_c, 0, 67, 95
1, 86449, Control_c, 0, 64, 52
1, 86451, Note_on_c, 0, 36, 27
1, 86464, Control_c, 0, 64, 35
1, 86464, Control_c, 0, 67, 95
1, 86478, Control_c, 0, 64, 0
1, 86596, Control_c, 0, 67, 95
1, 86627, Control_c, 0, 67, 94
1, 86642, Control_c, 0, 64, 27
1, 86657, Control_c, 0, 64, 51
1, 86657, Control_c, 0, 67, 94
1, 86672, Control_c, 0, 64, 62
1, 86672, Control_c, 0, 67, 93
1, 86687, Control_c, 0, 64, 67
1, 86687, Control_c, 0, 67, 92
1, 86701, Control_c, 0, 64, 73
1, 86701, Control_c, 0, 67, 92
1, 86716, Control_c, 0, 64, 84
1, 86731, Control_c, 0, 64, 95
1, 86731, Control_c, 0, 67, 91
1, 86745, Control_c, 0, 64, 111
1, 86753, Note_off_c, 0, 84, 63
1, 86760, Control_c, 0, 64, 127
1, 86760, Control_c, 0, 67, 90
1, 86790, Control_c, 0, 67, 90
1, 86819, Control_c, 0, 67, 89
1, 86828, Note_off_c, 0, 72, 45
1, 86850, Note_off_c, 0, 36, 35
1, 86864, Control_c, 0, 67, 89
1, 86879, Control_c, 0, 67, 88
1, 86908, Control_c, 0, 67, 87
1, 86968, Control_c, 0, 67, 87
1, 87050, Note_on_c, 0, 36, 38
1, 87094, Note_off_c, 0, 36, 59
1, 87182, Control_c, 0, 67, 86
1, 87242, Control_c, 0, 67, 86
1, 87258, Note_on_c, 0, 67, 50
1, 87260, Note_on_c, 0, 63, 41
1, 87286, Control_c, 0, 67, 85
1, 87315, Note_off_c, 0, 63, 49
1, 87315, Note_off_c, 0, 67, 51
1, 87319, Note_on_c, 0, 48, 19
1, 87331, Control_c, 0, 67, 84
1, 87345, Control_c, 0, 67, 84
1, 87350, Poly_aftertouch_c, 0, 51, 127
1, 87360, Control_c, 0, 67, 83
1, 87379, Note_off_c, 0, 48, 44
1, 87390, Control_c, 0, 67, 82
1, 87396, Poly_aftertouch_c, 0, 51, 0
1, 87411, Note_on_c, 0, 72, 61
1, 87418, Note_on_c, 0, 55, 46
1, 87443, Note_on_c, 0, 60, 40
1, 87455, Note_on_c, 0, 43, 22
1, 87465, Control_c, 0, 67, 82
1, 87492, Note_off_c, 0, 60, 56
1, 87510, Control_c, 0, 67, 81
1, 87515, Note_off_c, 0, 72, 61
1, 87524, Control_c, 0, 67, 81
1, 87525, Note_off_c, 0, 43, 41
1, 87536, Note_off_c, 0, 55, 51
1, 87537, Note_on_c, 0, 51, 36
1, 87545, Note_on_c, 0, 48, 29
1, 87545, Note_on_c, 0, 63, 45
1, 87551, Note_on_c, 0, 67, 51
1, 87554, Control_c, 0, 67, 80
1, 87568, Control_c, 0, 67, 79
1, 87573, Note_off_c, 0, 63, 53
1, 87579, Note_off_c, 0, 67, 64
1, 87583, Control_c, 0, 67, 79
1, 87613, Control_c, 0, 67, 78
1, 87628, Control_c, 0, 67, 77
1, 87642, Control_c, 0, 67, 76
1, 87645, Note_off_c, 0, 48, 47
1, 87657, Control_c, 0, 67, 74
1, 87672, Control_c, 0, 67, 72
1, 87674, Note_on_c, 0, 75, 74
1, 87676, Note_on_c, 0, 63, 58
1, 87680, Note_off_c, 0, 51, 34
1, 87686, Control_c, 0, 67, 71
1, 87688, Note_on_c, 0, 55, 44
1, 87701, Control_c, 0, 67, 68
1, 87708, Note_on_c, 0, 43, 37
1, 87716, Control_c, 0, 67, 66
1, 87717, Note_off_c, 0, 63, 63
1, 87731, Control_c, 0, 67, 64
1, 87746, Control_c, 0, 67, 63
1, 87754, Note_off_c, 0, 75, 62
1, 87761, Control_c, 0, 67, 62
1, 87773, Note_on_c, 0, 67, 40
1, 87776, Control_c, 0, 67, 61
1, 87790, Control_c, 0, 67, 60
1, 87796, Note_off_c, 0, 55, 49
1, 87811, Note_off_c, 0, 43, 49
1, 87813, Control_c, 0, 67, 59
1, 87814, Note_on_c, 0, 72, 64
1, 87816, Note_on_c, 0, 51, 48
1, 87820, Note_off_c, 0, 67, 64
1, 87826, Note_on_c, 0, 48, 38
1, 87828, Control_c, 0, 67, 58
1, 87842, Control_c, 0, 67, 57
1, 87852, Note_off_c, 0, 72, 64
1, 87857, Control_c, 0, 67, 56
1, 87873, Control_c, 0, 67, 52
1, 87887, Control_c, 0, 67, 47
1, 87902, Control_c, 0, 67, 41
1, 87916, Note_off_c, 0, 48, 53
1, 87917, Control_c, 0, 67, 34
1, 87925, Note_off_c, 0, 51, 57
1, 87932, Control_c, 0, 67, 28
1, 87947, Control_c, 0, 67, 24
1, 87950, Note_on_c, 0, 79, 80
1, 87954, Note_on_c, 0, 67, 64
1, 87961, Control_c, 0, 67, 19
1, 87966, Note_on_c, 0, 43, 45
1, 87968, Note_on_c, 0, 55, 41
1, 87976, Control_c, 0, 67, 12
1, 87991, Control_c, 0, 67, 0
1, 88002, Note_off_c, 0, 67, 55
1, 88060, Note_off_c, 0, 55, 52
1, 88065, Note_on_c, 0, 51, 50
1, 88068, Note_off_c, 0, 43, 56
1, 88069, Note_on_c, 0, 75, 70
1, 88078, Note_on_c, 0, 48, 42
1, 88083, Note_off_c, 0, 79, 49
1, 88097, Note_off_c, 0, 75, 66
1, 88160, Note_off_c, 0, 48, 48
1, 88174, Note_off_c, 0, 51, 55
1, 88211, Note_on_c, 0, 84, 81
1, 88223, Note_on_c, 0, 72, 70
1, 88226, Note_on_c, 0, 55, 38
1, 88226, Note_on_c, 0, 43, 46
1, 88254, Note_off_c, 0, 72, 61
1, 88307, Note_off_c, 0, 55, 51
1, 88314, Note_off_c, 0, 43, 52
1, 88332, Note_on_c, 0, 79, 64
1, 88336, Note_on_c, 0, 51, 40
1, 88344, Note_on_c, 0, 48, 31
1, 88345, Note_off_c, 0, 84, 56
1, 88369, Note_off_c, 0, 79, 64
1, 88427, Note_off_c, 0, 48, 50
1, 88440, Note_off_c, 0, 51, 50
1, 88479, Note_on_c, 0, 87, 78
1, 88490, Note_on_c, 0, 75, 68
1, 88492, Note_on_c, 0, 55, 41
1, 88504, Note_on_c, 0, 43, 35
1, 88575, Note_off_c, 0, 55, 54
1, 88575, Note_off_c, 0, 75, 58
1, 88583, Note_off_c, 0, 87, 64
1, 88598, Note_on_c, 0, 51, 44
1, 88602, Note_on_c, 0, 79, 52
1, 88613, Note_on_c, 0, 48, 46
1, 88626, Note_on_c, 0, 84, 61
1, 88630, Note_off_c, 0, 51, 64
1, 88642, Note_off_c, 0, 48, 59
1, 88656, Note_off_c, 0, 43, 53
1, 88656, Note_off_c, 0, 79, 61
1, 88701, Note_off_c, 0, 84, 56
1, 88755, Control_c, 0, 64, 76
1, 88770, Control_c, 0, 64, 57
1, 88784, Control_c, 0, 64, 0
1, 88795, Note_on_c, 0, 86, 70
1, 88801, Note_on_c, 0, 43, 50
1, 88802, Note_on_c, 0, 74, 62
1, 88818, Note_on_c, 0, 31, 52
1, 88829, Control_c, 0, 64, 27
1, 88844, Control_c, 0, 64, 59
1, 88852, Note_off_c, 0, 31, 61
1, 88858, Control_c, 0, 64, 68
1, 88873, Control_c, 0, 64, 81
1, 88884, Note_off_c, 0, 43, 61
1, 88888, Control_c, 0, 64, 120
1, 88903, Control_c, 0, 64, 127
1, 88959, Note_off_c, 0, 86, 56
1, 88983, Note_on_c, 0, 83, 59
1, 89001, Note_on_c, 0, 79, 39
1, 89002, Note_off_c, 0, 74, 24
1, 89015, Note_off_c, 0, 83, 66
1, 89021, Note_on_c, 0, 47, 32
1, 89028, Note_off_c, 0, 79, 55
1, 89030, Note_on_c, 0, 50, 31
1, 89073, Note_off_c, 0, 47, 47
1, 89089, Note_off_c, 0, 50, 46
1, 89126, Control_c, 0, 64, 102
1, 89131, Note_on_c, 0, 83, 65
1, 89135, Note_on_c, 0, 43, 40
1, 89141, Control_c, 0, 64, 93
1, 89141, Note_on_c, 0, 71, 60
1, 89153, Note_on_c, 0, 55, 50
1, 89156, Control_c, 0, 64, 92
1, 89171, Control_c, 0, 64, 94
1, 89186, Control_c, 0, 64, 97
1, 89188, Note_off_c, 0, 71, 52
1, 89200, Control_c, 0, 64, 100
1, 89210, Note_off_c, 0, 43, 52
1, 89214, Note_off_c, 0, 55, 56
1, 89215, Control_c, 0, 64, 104
1, 89223, Note_off_c, 0, 83, 59
1, 89230, Control_c, 0, 64, 108
1, 89240, Note_on_c, 0, 47, 30
1, 89241, Note_on_c, 0, 50, 38
1, 89241, Note_on_c, 0, 74, 44
1, 89245, Control_c, 0, 64, 116
1, 89248, Note_on_c, 0, 79, 51
1, 89260, Control_c, 0, 64, 127
1, 89268, Note_off_c, 0, 74, 62
1, 89269, Note_off_c, 0, 79, 63
1, 89326, Note_off_c, 0, 47, 48
1, 89346, Note_off_c, 0, 50, 50
1, 89355, Control_c, 0, 64, 107
1, 89370, Control_c, 0, 64, 93
1, 89379, Note_on_c, 0, 79, 64
1, 89385, Control_c, 0, 64, 83
1, 89391, Note_on_c, 0, 43, 39
1, 89391, Note_on_c, 0, 67, 64
1, 89400, Control_c, 0, 64, 80
1, 89410, Note_on_c, 0, 55, 34
1, 89415, Control_c, 0, 64, 81
1, 89430, Control_c, 0, 64, 83
1, 89435, Note_off_c, 0, 67, 55
1, 89445, Control_c, 0, 64, 85
1, 89460, Control_c, 0, 64, 89
1, 89470, Note_off_c, 0, 55, 43
1, 89474, Note_off_c, 0, 79, 60
1, 89475, Control_c, 0, 64, 93
1, 89489, Control_c, 0, 64, 99
1, 89504, Control_c, 0, 64, 109
1, 89505, Note_on_c, 0, 71, 50
1, 89506, Note_on_c, 0, 74, 49
1, 89509, Note_on_c, 0, 47, 37
1, 89510, Note_on_c, 0, 50, 37
1, 89519, Control_c, 0, 64, 127
1, 89520, Note_off_c, 0, 43, 35
1, 89528, Note_off_c, 0, 71, 62
1, 89528, Note_off_c, 0, 74, 61
1, 89586, Note_off_c, 0, 47, 46
1, 89618, Note_off_c, 0, 50, 37
1, 89630, Note_on_c, 0, 74, 64
1, 89663, Note_on_c, 0, 43, 38
1, 89665, Note_on_c, 0, 62, 33
1, 89671, Note_on_c, 0, 55, 34
1, 89696, Control_c, 0, 67, 20
1, 89711, Control_c, 0, 67, 34
1, 89726, Control_c, 0, 67, 46
1, 89727, Note_off_c, 0, 62, 39
1, 89737, Note_off_c, 0, 55, 53
1, 89737, Note_off_c, 0, 74, 61
1, 89740, Control_c, 0, 67, 56
1, 89751, Note_on_c, 0, 71, 44
1, 89751, Note_off_c, 0, 43, 44
1, 89755, Control_c, 0, 67, 63
1, 89767, Note_on_c, 0, 47, 30
1, 89770, Control_c, 0, 67, 65
1, 89771, Note_on_c, 0, 50, 34
1, 89776, Note_off_c, 0, 71, 56
1, 89816, Control_c, 0, 67, 64
1, 89820, Poly_aftertouch_c, 0, 67, 0
1, 89830, Control_c, 0, 67, 62
1, 89838, Note_off_c, 0, 47, 40
1, 89845, Control_c, 0, 67, 61
1, 89860, Control_c, 0, 67, 59
1, 89868, Note_on_c, 0, 71, 65
1, 89875, Control_c, 0, 67, 56
1, 89890, Control_c, 0, 67, 53
1, 89901, Note_on_c, 0, 59, 35
1, 89905, Control_c, 0, 67, 51
1, 89909, Note_off_c, 0, 50, 0
1, 89920, Control_c, 0, 67, 47
1, 89935, Control_c, 0, 67, 44
1, 89937, Note_off_c, 0, 59, 50
1, 89946, Poly_aftertouch_c, 0, 43, 127
1, 89946, Poly_aftertouch_c, 0, 50, 127
1, 89950, Control_c, 0, 67, 41
1, 89964, Control_c, 0, 67, 39
1, 89979, Note_off_c, 0, 71, 60
1, 89979, Control_c, 0, 67, 36
1, 89985, Poly_aftertouch_c, 0, 43, 0
1, 89994, Control_c, 0, 67, 30
1, 90002, Note_on_c, 0, 67, 44
1, 90004, Note_on_c, 0, 62, 38
1, 90009, Poly_aftertouch_c, 0, 47, 127
1, 90009, Control_c, 0, 67, 22
1, 90024, Control_c, 0, 67, 14
1, 90026, Note_off_c, 0, 67, 60
1, 90032, Note_off_c, 0, 62, 52
1, 90038, Control_c, 0, 67, 10
1, 90053, Control_c, 0, 67, 8
1, 90076, Control_c, 0, 67, 0
1, 90104, Note_on_c, 0, 43, 56
1, 90121, Note_on_c, 0, 67, 63
1, 90132, Poly_aftertouch_c, 0, 47, 0
1, 90133, Poly_aftertouch_c, 0, 50, 0
1, 90135, Note_off_c, 0, 43, 63
1, 90142, Note_on_c, 0, 55, 56
1, 90174, Note_off_c, 0, 55, 63
1, 90227, Note_off_c, 0, 67, 55
1, 90254, Note_on_c, 0, 62, 53
1, 90256, Note_on_c, 0, 59, 34
1, 90283, Control_c, 0, 64, 115
1, 90286, Note_off_c, 0, 62, 65
1, 90289, Note_off_c, 0, 59, 47
1, 90298, Control_c, 0, 64, 76
1, 90312, Control_c, 0, 64, 55
1, 90327, Control_c, 0, 64, 0
1, 90359, Note_on_c, 0, 36, 65
1, 90372, Control_c, 0, 64, 52
1, 90386, Note_off_c, 0, 36, 63
1, 90387, Control_c, 0, 64, 67
1, 90402, Control_c, 0, 64, 85
1, 90417, Control_c, 0, 64, 127
1, 90486, Note_on_c, 0, 70, 60
1, 90494, Note_on_c, 0, 67, 48
1, 90509, Note_on_c, 0, 48, 48
1, 90514, Note_on_c, 0, 46, 47
1, 90539, Note_off_c, 0, 67, 56
1, 90586, Note_off_c, 0, 46, 53
1, 90594, Note_off_c, 0, 48, 56
1, 90597, Note_off_c, 0, 70, 51
1, 90604, Note_on_c, 0, 76, 72
1, 90616, Note_on_c, 0, 64, 63
1, 90621, Note_on_c, 0, 43, 50
1, 90625, Note_on_c, 0, 52, 44
1, 90652, Note_off_c, 0, 64, 63
1, 90714, Note_on_c, 0, 70, 73
1, 90718, Note_off_c, 0, 76, 60
1, 90721, Note_off_c, 0, 52, 61
1, 90727, Note_off_c, 0, 43, 60
1, 90730, Note_on_c, 0, 46, 48
1, 90740, Note_on_c, 0, 48, 48
1, 90741, Note_off_c, 0, 70, 70
1, 90833, Note_off_c, 0, 46, 56
1, 90836, Note_off_c, 0, 48, 60
1, 90840, Note_on_c, 0, 79, 84
1, 90845, Note_on_c, 0, 67, 76
1, 90858, Note_on_c, 0, 43, 58
1, 90861, Note_on_c, 0, 52, 50
1, 90906, Note_off_c, 0, 67, 54
1, 90939, Note_on_c, 0, 70, 71
1, 90950, Note_off_c, 0, 52, 59
1, 90958, Note_on_c, 0, 76, 68
1, 90959, Note_off_c, 0, 79, 61
1, 90968, Note_off_c, 0, 70, 66
1, 90974, Note_on_c, 0, 46, 48
1, 90975, Note_on_c, 0, 48, 49
1, 90979, Note_off_c, 0, 43, 58
1, 90990, Note_off_c, 0, 76, 66
1, 91069, Note_off_c, 0, 46, 55
1, 91071, Note_off_c, 0, 48, 59
1, 91075, Note_on_c, 0, 82, 91
1, 91080, Note_on_c, 0, 70, 81
1, 91092, Note_on_c, 0, 52, 52
1, 91108, Note_on_c, 0, 43, 56
1, 91123, Note_off_c, 0, 70, 64
1, 91194, Note_off_c, 0, 82, 59
1, 91196, Note_off_c, 0, 52, 59
1, 91197, Note_on_c, 0, 76, 66
1, 91204, Note_on_c, 0, 79, 74
1, 91207, Note_on_c, 0, 46, 52
1, 91213, Note_off_c, 0, 43, 57
1, 91217, Note_on_c, 0, 48, 52
1, 91224, Note_off_c, 0, 76, 67
1, 91239, Note_off_c, 0, 79, 64
1, 91325, Note_off_c, 0, 46, 57
1, 91332, Note_off_c, 0, 48, 59
1, 91338, Note_on_c, 0, 76, 74
1, 91344, Note_on_c, 0, 52, 51
1, 91344, Note_on_c, 0, 88, 81
1, 91354, Note_on_c, 0, 43, 51
1, 91409, Note_off_c, 0, 76, 59
1, 91451, Note_off_c, 0, 52, 59
1, 91460, Note_on_c, 0, 79, 51
1, 91463, Note_off_c, 0, 43, 58
1, 91469, Note_on_c, 0, 46, 49
1, 91469, Note_on_c, 0, 82, 68
1, 91479, Note_off_c, 0, 79, 61
1, 91481, Note_on_c, 0, 48, 41
1, 91482, Note_off_c, 0, 88, 59
1, 91500, Note_off_c, 0, 82, 64
1, 91585, Note_off_c, 0, 48, 56
1, 91612, Note_on_c, 0, 91, 83
1, 91616, Note_on_c, 0, 52, 44
1, 91618, Note_on_c, 0, 79, 67
1, 91623, Note_off_c, 0, 46, 35
1, 91630, Note_on_c, 0, 43, 41
1, 91696, Note_off_c, 0, 79, 53
1, 91714, Note_off_c, 0, 52, 52
1, 91743, Note_on_c, 0, 88, 63
1, 91743, Note_off_c, 0, 91, 58
1, 91746, Note_on_c, 0, 82, 68
1, 91750, Control_c, 0, 67, 29
1, 91758, Note_on_c, 0, 46, 49
1, 91765, Control_c, 0, 67, 54
1, 91780, Control_c, 0, 67, 76
1, 91784, Note_off_c, 0, 82, 59
1, 91788, Note_off_c, 0, 46, 62
1, 91789, Note_off_c, 0, 88, 61
1, 91795, Control_c, 0, 67, 94
1, 91796, Note_off_c, 0, 43, 46
1, 91809, Control_c, 0, 67, 109
1, 91824, Control_c, 0, 67, 121
1, 91839, Control_c, 0, 67, 127
1, 91883, Control_c, 0, 64, 90
1, 91898, Control_c, 0, 64, 66
1, 91913, Control_c, 0, 64, 0
1, 91937, Note_on_c, 0, 89, 76
1, 91948, Note_on_c, 0, 77, 69
1, 91955, Note_on_c, 0, 41, 56
1, 91961, Note_on_c, 0, 29, 51
1, 91988, Control_c, 0, 64, 40
1, 91996, Note_off_c, 0, 29, 60
1, 92002, Control_c, 0, 64, 61
1, 92009, Note_off_c, 0, 41, 64
1, 92017, Control_c, 0, 64, 71
1, 92032, Control_c, 0, 64, 88
1, 92047, Control_c, 0, 64, 127
1, 92047, Control_c, 0, 67, 126
1, 92062, Control_c, 0, 67, 124
1, 92077, Control_c, 0, 67, 122
1, 92078, Note_off_c, 0, 89, 53
1, 92091, Control_c, 0, 67, 120
1, 92106, Control_c, 0, 67, 119
1, 92135, Control_c, 0, 67, 119
1, 92144, Note_off_c, 0, 77, 36
1, 92150, Control_c, 0, 67, 118
1, 92156, Note_on_c, 0, 48, 53
1, 92157, Note_on_c, 0, 84, 60
1, 92165, Control_c, 0, 67, 117
1, 92171, Note_on_c, 0, 81, 45
1, 92177, Note_on_c, 0, 45, 40
1, 92180, Control_c, 0, 67, 117
1, 92182, Note_off_c, 0, 84, 65
1, 92193, Note_off_c, 0, 81, 61
1, 92211, Control_c, 0, 67, 116
1, 92242, Note_off_c, 0, 45, 56
1, 92250, Note_off_c, 0, 48, 56
1, 92255, Control_c, 0, 67, 115
1, 92285, Control_c, 0, 67, 115
1, 92311, Note_on_c, 0, 53, 52
1, 92321, Note_on_c, 0, 84, 72
1, 92321, Control_c, 0, 67, 114
1, 92322, Note_on_c, 0, 41, 41
1, 92328, Note_on_c, 0, 72, 60
1, 92364, Note_off_c, 0, 72, 62
1, 92381, Control_c, 0, 67, 114
1, 92399, Note_off_c, 0, 53, 54
1, 92408, Note_off_c, 0, 41, 50
1, 92411, Control_c, 0, 67, 113
1, 92424, Note_off_c, 0, 84, 59
1, 92426, Note_on_c, 0, 48, 40
1, 92437, Note_on_c, 0, 81, 60
1, 92440, Control_c, 0, 67, 112
1, 92447, Note_on_c, 0, 45, 31
1, 92452, Note_on_c, 0, 76, 46
1, 92455, Control_c, 0, 67, 112
1, 92469, Note_off_c, 0, 81, 65
1, 92475, Note_off_c, 0, 76, 54
1, 92514, Control_c, 0, 67, 111
1, 92533, Note_off_c, 0, 45, 53
1, 92540, Note_off_c, 0, 48, 57
1, 92544, Control_c, 0, 67, 110
1, 92572, Note_on_c, 0, 81, 69
1, 92573, Control_c, 0, 67, 110
1, 92582, Note_on_c, 0, 41, 38
1, 92585, Note_on_c, 0, 69, 57
1, 92590, Note_on_c, 0, 53, 40
1, 92623, Note_off_c, 0, 69, 57
1, 92632, Control_c, 0, 67, 109
1, 92667, Note_off_c, 0, 53, 52
1, 92668, Note_off_c, 0, 81, 62
1, 92682, Note_off_c, 0, 41, 54
1, 92692, Note_on_c, 0, 72, 55
1, 92695, Note_on_c, 0, 48, 40
1, 92697, Note_on_c, 0, 45, 34
1, 92718, Note_off_c, 0, 72, 65
1, 92788, Note_off_c, 0, 45, 48
1, 92789, Note_off_c, 0, 48, 54
1, 92825, Control_c, 0, 67, 109
1, 92829, Note_on_c, 0, 77, 46
1, 92832, Note_on_c, 0, 41, 44
1, 92838, Note_on_c, 0, 65, 44
1, 92848, Note_on_c, 0, 53, 32
1, 92861, Note_on_c, 0, 76, 48
1, 92869, Note_off_c, 0, 65, 51
1, 92870, Note_off_c, 0, 77, 0
1, 92870, Note_on_c, 0, 77, 13
1, 92890, Note_off_c, 0, 76, 50
1, 92899, Control_c, 0, 67, 108
1, 92914, Note_off_c, 0, 77, 56
1, 92929, Control_c, 0, 67, 107
1, 92934, Note_on_c, 0, 72, 47
1, 92937, Note_on_c, 0, 69, 45
1, 92944, Note_off_c, 0, 41, 59
1, 92954, Note_off_c, 0, 72, 61
1, 92957, Note_on_c, 0, 45, 33
1, 92957, Note_on_c, 0, 48, 38
1, 92958, Note_off_c, 0, 69, 59
1, 92992, Note_off_c, 0, 53, 28
1, 93034, Control_c, 0, 67, 107
1, 93064, Note_off_c, 0, 45, 45
1, 93067, Note_on_c, 0, 72, 54
1, 93070, Control_c, 0, 67, 106
1, 93090, Note_on_c, 0, 60, 45
1, 93092, Note_on_c, 0, 41, 48
1, 93100, Control_c, 0, 67, 105
1, 93102, Note_off_c, 0, 48, 35
1, 93114, Control_c, 0, 67, 105
1, 93117, Note_off_c, 0, 60, 54
1, 93129, Control_c, 0, 67, 104
1, 93144, Control_c, 0, 67, 100
1, 93159, Control_c, 0, 67, 93
1, 93169, Note_off_c, 0, 72, 62
1, 93174, Control_c, 0, 67, 86
1, 93186, Note_on_c, 0, 69, 57
1, 93188, Control_c, 0, 67, 80
1, 93189, Note_off_c, 0, 41, 59
1, 93203, Control_c, 0, 67, 76
1, 93206, Note_on_c, 0, 65, 31
1, 93218, Control_c, 0, 67, 72
1, 93221, Note_off_c, 0, 69, 62
1, 93233, Control_c, 0, 67, 69
1, 93237, Note_off_c, 0, 65, 50
1, 93241, Note_on_c, 0, 48, 45
1, 93248, Control_c, 0, 67, 67
1, 93251, Note_on_c, 0, 45, 33
1, 93262, Control_c, 0, 67, 67
1, 93277, Control_c, 0, 67, 66
1, 93292, Control_c, 0, 67, 65
1, 93307, Control_c, 0, 67, 64
1, 93319, Note_on_c, 0, 69, 65
1, 93322, Control_c, 0, 67, 64
1, 93326, Note_on_c, 0, 41, 52
1, 93326, Note_off_c, 0, 45, 60
1, 93326, Note_off_c, 0, 48, 58
1, 93336, Control_c, 0, 67, 62
1, 93349, Note_on_c, 0, 57, 43
1, 93351, Control_c, 0, 67, 61
1, 93361, Note_off_c, 0, 41, 63
1, 93366, Control_c, 0, 67, 59
1, 93380, Control_c, 0, 67, 58
1, 93381, Note_off_c, 0, 57, 54
1, 93395, Control_c, 0, 67, 57
1, 93410, Control_c, 0, 67, 56
1, 93414, Note_off_c, 0, 69, 56
1, 93425, Control_c, 0, 67, 56
1, 93428, Note_on_c, 0, 60, 56
1, 93435, Note_on_c, 0, 65, 57
1, 93440, Control_c, 0, 67, 55
1, 93459, Note_off_c, 0, 60, 66
1, 93490, Note_off_c, 0, 65, 61
1, 93499, Control_c, 0, 64, 100
1, 93514, Control_c, 0, 64, 66
1, 93529, Control_c, 0, 64, 0
1, 93529, Control_c, 0, 67, 54
1, 93565, Note_on_c, 0, 38, 65
1, 93588, Control_c, 0, 64, 48
1, 93595, Note_off_c, 0, 38, 63
1, 93603, Control_c, 0, 64, 64
1, 93618, Control_c, 0, 64, 75
1, 93633, Control_c, 0, 64, 105
1, 93647, Control_c, 0, 64, 127
1, 93677, Control_c, 0, 67, 54
1, 93690, Note_on_c, 0, 66, 58
1, 93713, Note_on_c, 0, 69, 40
1, 93727, Note_off_c, 0, 66, 60
1, 93731, Note_on_c, 0, 48, 32
1, 93736, Control_c, 0, 67, 53
1, 93749, Note_on_c, 0, 50, 34
1, 93766, Control_c, 0, 67, 52
1, 93773, Note_off_c, 0, 69, 50
1, 93780, Control_c, 0, 67, 50
1, 93782, Note_off_c, 0, 48, 48
1, 93785, Note_off_c, 0, 50, 57
1, 93795, Control_c, 0, 67, 48
1, 93818, Control_c, 0, 67, 38
1, 93819, Note_on_c, 0, 72, 71
1, 93821, Note_on_c, 0, 45, 52
1, 93827, Note_on_c, 0, 54, 42
1, 93829, Note_on_c, 0, 60, 54
1, 93833, Control_c, 0, 67, 19
1, 93848, Control_c, 0, 67, 0
1, 93866, Note_off_c, 0, 60, 61
1, 93919, Note_off_c, 0, 72, 62
1, 93923, Note_off_c, 0, 45, 52
1, 93926, Note_off_c, 0, 54, 51
1, 93928, Note_on_c, 0, 48, 51
1, 93930, Note_on_c, 0, 50, 46
1, 93941, Note_on_c, 0, 69, 62
1, 93946, Note_on_c, 0, 66, 37
1, 93969, Note_off_c, 0, 69, 66
1, 93974, Note_off_c, 0, 66, 54
1, 94024, Note_off_c, 0, 48, 57
1, 94034, Note_off_c, 0, 50, 59
1, 94051, Note_on_c, 0, 66, 76
1, 94056, Note_on_c, 0, 45, 59
1, 94059, Note_on_c, 0, 78, 83
1, 94068, Note_on_c, 0, 54, 50
1, 94095, Note_off_c, 0, 66, 61
1, 94140, Note_off_c, 0, 78, 63
1, 94158, Note_on_c, 0, 69, 45
1, 94167, Note_off_c, 0, 45, 58
1, 94170, Note_on_c, 0, 48, 55
1, 94173, Note_off_c, 0, 54, 57
1, 94176, Note_on_c, 0, 72, 74
1, 94176, Note_on_c, 0, 50, 56
1, 94181, Note_off_c, 0, 69, 59
1, 94209, Note_off_c, 0, 72, 65
1, 94283, Note_off_c, 0, 48, 61
1, 94295, Note_on_c, 0, 45, 65
1, 94299, Note_off_c, 0, 50, 61
1, 94305, Note_on_c, 0, 81, 86
1, 94309, Note_on_c, 0, 69, 72
1, 94310, Note_on_c, 0, 54, 60
1, 94375, Note_off_c, 0, 69, 55
1, 94417, Note_on_c, 0, 72, 58
1, 94419, Note_on_c, 0, 78, 77
1, 94426, Note_on_c, 0, 50, 63
1, 94431, Note_on_c, 0, 48, 58
1, 94433, Note_off_c, 0, 72, 66
1, 94437, Note_off_c, 0, 45, 57
1, 94441, Note_off_c, 0, 54, 60
1, 94453, Note_off_c, 0, 81, 62
1, 94475, Note_off_c, 0, 78, 64
1, 94542, Note_off_c, 0, 48, 60
1, 94561, Note_on_c, 0, 72, 79
1, 94562, Note_on_c, 0, 84, 92
1, 94563, Note_on_c, 0, 45, 68
1, 94566, Note_on_c, 0, 54, 67
1, 94572, Note_off_c, 0, 50, 60
1, 94684, Note_off_c, 0, 72, 61
1, 94692, Note_on_c, 0, 78, 73
1, 94700, Note_on_c, 0, 50, 70
1, 94703, Note_off_c, 0, 45, 61
1, 94709, Note_on_c, 0, 81, 74
1, 94709, Note_off_c, 0, 84, 61
1, 94709, Note_on_c, 0, 48, 60
1, 94715, Note_off_c, 0, 54, 60
1, 94724, Note_off_c, 0, 78, 66
1, 94750, Note_off_c, 0, 81, 64
1, 94840, Note_off_c, 0, 48, 58
1, 94843, Note_on_c, 0, 54, 74
1, 94849, Note_on_c, 0, 45, 66
1, 94851, Note_off_c, 0, 50, 60
1, 94856, Note_on_c, 0, 78, 97
1, 94865, Note_on_c, 0, 90, 82
1, 94991, Note_off_c, 0, 78, 54
1, 94998, Note_on_c, 0, 50, 69
1, 95008, Note_on_c, 0, 81, 66
1, 95020, Note_on_c, 0, 84, 88
1, 95025, Note_off_c, 0, 45, 60
1, 95037, Note_on_c, 0, 48, 15
1, 95037, Note_off_c, 0, 90, 58
1, 95047, Note_off_c, 0, 81, 64
1, 95056, Note_off_c, 0, 54, 61
1, 95072, Note_off_c, 0, 48, 51
1, 95082, Note_off_c, 0, 84, 64
1, 95234, Note_on_c, 0, 55, 73
1, 95238, Note_on_c, 0, 91, 95
1, 95243, Note_on_c, 0, 43, 69
1, 95243, Note_on_c, 0, 79, 90
1, 95264, Control_c, 0, 64, 81
1, 95273, Note_off_c, 0, 50, 59
1, 95279, Control_c, 0, 64, 59
1, 95301, Control_c, 0, 64, 0
1, 95451, Control_c, 0, 64, 47
1, 95457, Note_on_c, 0, 83, 74
1, 95457, Note_on_c, 0, 50, 65
1, 95459, Note_on_c, 0, 47, 60
1, 95463, Note_on_c, 0, 86, 75
1, 95466, Control_c, 0, 64, 63
1, 95480, Note_off_c, 0, 43, 63
1, 95481, Control_c, 0, 64, 72
1, 95486, Note_off_c, 0, 91, 62
1, 95496, Control_c, 0, 64, 93
1, 95511, Control_c, 0, 64, 127
1, 95526, Note_off_c, 0, 55, 57
1, 95531, Note_off_c, 0, 79, 62
1, 95557, Note_off_c, 0, 83, 59
1, 95563, Note_off_c, 0, 86, 62
1, 95759, Note_on_c, 0, 92, 94
1, 95767, Note_on_c, 0, 80, 89
1, 95782, Note_on_c, 0, 83, 51
1, 95790, Note_on_c, 0, 41, 71
1, 95790, Note_on_c, 0, 53, 68
1, 95795, Note_off_c, 0, 47, 55
1, 95804, Note_off_c, 0, 83, 58
1, 95806, Control_c, 0, 64, 102
1, 95821, Control_c, 0, 64, 82
1, 95836, Control_c, 0, 64, 66
1, 95837, Note_off_c, 0, 50, 46
1, 95851, Control_c, 0, 64, 51
1, 95866, Control_c, 0, 64, 0
1, 95999, Control_c, 0, 64, 25
1, 96013, Note_on_c, 0, 86, 61
1, 96014, Control_c, 0, 64, 53
1, 96017, Note_on_c, 0, 83, 47
1, 96026, Note_on_c, 0, 47, 45
1, 96029, Control_c, 0, 64, 63
1, 96033, Note_on_c, 0, 50, 51
1, 96051, Control_c, 0, 64, 70
1, 96065, Control_c, 0, 64, 84
1, 96080, Control_c, 0, 64, 127
1, 96098, Note_off_c, 0, 41, 56
1, 96101, Note_off_c, 0, 92, 57
1, 96102, Note_off_c, 0, 83, 51
1, 96110, Note_off_c, 0, 80, 58
1, 96114, Note_off_c, 0, 50, 58
1, 96125, Note_off_c, 0, 53, 58
1, 96130, Note_off_c, 0, 86, 59
1, 96138, Note_off_c, 0, 47, 60
1, 96209, Note_on_c, 0, 92, 90
1, 96214, Note_on_c, 0, 80, 83
1, 96232, Note_on_c, 0, 41, 57
1, 96243, Note_on_c, 0, 53, 62
1, 96346, Note_off_c, 0, 80, 53
1, 96346, Note_off_c, 0, 92, 60
1, 96375, Note_on_c, 0, 86, 69
1, 96390, Note_off_c, 0, 53, 61
1, 96392, Note_off_c, 0, 41, 62
1, 96395, Note_on_c, 0, 47, 45
1, 96397, Note_on_c, 0, 50, 46
1, 96399, Note_on_c, 0, 83, 43
1, 96446, Note_off_c, 0, 83, 43
1, 96447, Note_off_c, 0, 47, 54
1, 96451, Note_off_c, 0, 50, 51
1, 96540, Note_on_c, 0, 91, 93
1, 96541, Control_c, 0, 64, 104
1, 96542, Note_on_c, 0, 83, 41
1, 96545, Note_on_c, 0, 79, 78
1, 96555, Control_c, 0, 64, 77
1, 96556, Note_on_c, 0, 55, 66
1, 96561, Note_on_c, 0, 43, 62
1, 96564, Note_off_c, 0, 86, 60
1, 96570, Control_c, 0, 64, 59
1, 96581, Note_off_c, 0, 83, 63
1, 96585, Control_c, 0, 64, 36
1, 96599, Control_c, 0, 64, 37
1, 96614, Control_c, 0, 64, 48
1, 96629, Control_c, 0, 64, 60
1, 96644, Control_c, 0, 64, 67
1, 96655, Note_off_c, 0, 55, 61
1, 96659, Control_c, 0, 64, 78
1, 96674, Control_c, 0, 64, 117
1, 96677, Note_off_c, 0, 91, 58
1, 96688, Control_c, 0, 64, 127
1, 96690, Note_off_c, 0, 79, 62
1, 96694, Note_off_c, 0, 43, 60
1, 96705, Note_on_c, 0, 47, 51
1, 96712, Note_on_c, 0, 86, 52
1, 96720, Note_on_c, 0, 83, 41
1, 96730, Note_on_c, 0, 50, 40
1, 96764, Note_off_c, 0, 83, 47
1, 96772, Note_off_c, 0, 86, 49
1, 96813, Note_off_c, 0, 47, 53
1, 96854, Note_on_c, 0, 89, 87
1, 96858, Control_c, 0, 64, 78
1, 96864, Note_on_c, 0, 77, 81
1, 96867, Note_off_c, 0, 50, 34
1, 96870, Note_on_c, 0, 56, 60
1, 96873, Note_on_c, 0, 44, 57
1, 96873, Control_c, 0, 64, 58
1, 96888, Control_c, 0, 64, 0
1, 96947, Control_c, 0, 64, 18
1, 96962, Control_c, 0, 64, 56
1, 96977, Control_c, 0, 64, 69
1, 96992, Control_c, 0, 64, 85
1, 97007, Control_c, 0, 64, 127
1, 97016, Note_on_c, 0, 86, 63
1, 97019, Note_on_c, 0, 50, 43
1, 97025, Note_on_c, 0, 47, 47
1, 97034, Note_on_c, 0, 83, 30
1, 97042, Note_off_c, 0, 77, 57
1, 97046, Note_off_c, 0, 89, 60
1, 97055, Note_off_c, 0, 44, 56
1, 97061, Note_off_c, 0, 56, 60
1, 97094, Note_off_c, 0, 83, 43
1, 97099, Note_off_c, 0, 86, 56
1, 97153, Note_on_c, 0, 91, 94
1, 97153, Note_off_c, 0, 50, 59
1, 97154, Note_off_c, 0, 47, 56
1, 97162, Note_on_c, 0, 79, 74
1, 97168, Note_on_c, 0, 55, 65
1, 97170, Control_c, 0, 64, 85
1, 97176, Note_on_c, 0, 43, 56
1, 97185, Control_c, 0, 64, 67
1, 97200, Control_c, 0, 64, 49
1, 97215, Control_c, 0, 64, 0
1, 97229, Control_c, 0, 64, 11
1, 97244, Control_c, 0, 64, 36
1, 97259, Control_c, 0, 64, 55
1, 97274, Control_c, 0, 64, 64
1, 97285, Note_off_c, 0, 79, 64
1, 97285, Note_on_c, 0, 83, 32
1, 97289, Note_off_c, 0, 55, 62
1, 97289, Control_c, 0, 64, 71
1, 97297, Note_off_c, 0, 91, 63
1, 97299, Note_on_c, 0, 50, 48
1, 97300, Note_on_c, 0, 86, 57
1, 97301, Note_on_c, 0, 47, 56
1, 97303, Control_c, 0, 64, 86
1, 97314, Note_off_c, 0, 43, 58
1, 97318, Control_c, 0, 64, 127
1, 97340, Note_off_c, 0, 83, 54
1, 97355, Note_off_c, 0, 86, 55
1, 97362, Note_off_c, 0, 50, 54
1, 97454, Note_off_c, 0, 47, 26
1, 97466, Control_c, 0, 64, 101
1, 97480, Note_on_c, 0, 92, 86
1, 97481, Control_c, 0, 64, 76
1, 97490, Note_on_c, 0, 80, 64
1, 97496, Control_c, 0, 64, 62
1, 97500, Note_on_c, 0, 41, 51
1, 97501, Note_on_c, 0, 53, 49
1, 97511, Control_c, 0, 64, 0
1, 97607, Control_c, 0, 64, 45
1, 97622, Control_c, 0, 64, 61
1, 97636, Control_c, 0, 64, 68
1, 97649, Note_on_c, 0, 83, 25
1, 97651, Control_c, 0, 64, 78
1, 97652, Note_off_c, 0, 53, 54
1, 97663, Note_on_c, 0, 86, 56
1, 97666, Note_off_c, 0, 41, 54
1, 97666, Control_c, 0, 64, 101
1, 97668, Note_on_c, 0, 47, 40
1, 97675, Note_on_c, 0, 50, 36
1, 97681, Control_c, 0, 64, 127
1, 97689, Note_off_c, 0, 80, 61
1, 97701, Note_off_c, 0, 92, 65
1, 97815, Control_c, 0, 64, 94
1, 97821, Note_on_c, 0, 91, 74
1, 97829, Note_off_c, 0, 50, 47
1, 97830, Note_on_c, 0, 79, 58
1, 97830, Control_c, 0, 64, 74
1, 97840, Note_off_c, 0, 86, 51
1, 97842, Note_off_c, 0, 47, 40
1, 97845, Control_c, 0, 64, 61
1, 97848, Note_on_c, 0, 55, 42
1, 97851, Note_on_c, 0, 43, 43
1, 97860, Control_c, 0, 64, 43
1, 97875, Control_c, 0, 64, 41
1, 97890, Control_c, 0, 64, 49
1, 97905, Control_c, 0, 64, 58
1, 97920, Control_c, 0, 64, 64
1, 97926, Note_off_c, 0, 55, 57
1, 97934, Control_c, 0, 64, 69
1, 97941, Note_off_c, 0, 83, 0
1, 97949, Note_off_c, 0, 43, 62
1, 97949, Control_c, 0, 64, 77
1, 97951, Note_off_c, 0, 91, 61
1, 97959, Note_on_c, 0, 83, 27
1, 97959, Note_off_c, 0, 79, 58
1, 97961, Note_on_c, 0, 50, 42
1, 97964, Control_c, 0, 64, 91
1, 97967, Note_on_c, 0, 86, 64
1, 97971, Note_on_c, 0, 47, 43
1, 97979, Control_c, 0, 64, 127
1, 98019, Note_off_c, 0, 86, 47
1, 98024, Note_off_c, 0, 47, 55
1, 98033, Note_off_c, 0, 83, 42
1, 98051, Note_off_c, 0, 50, 51
1, 98067, Control_c, 0, 64, 125
1, 98082, Control_c, 0, 64, 89
1, 98097, Control_c, 0, 64, 71
1, 98103, Note_on_c, 0, 89, 72
1, 98112, Note_on_c, 0, 77, 60
1, 98112, Control_c, 0, 64, 59
1, 98113, Note_on_c, 0, 56, 45
1, 98120, Note_on_c, 0, 44, 46
1, 98126, Control_c, 0, 64, 40
1, 98141, Control_c, 0, 64, 36
1, 98156, Control_c, 0, 64, 42
1, 98170, Control_c, 0, 64, 50
1, 98185, Control_c, 0, 64, 58
1, 98189, Note_off_c, 0, 77, 51
1, 98191, Note_off_c, 0, 56, 60
1, 98200, Control_c, 0, 64, 64
1, 98215, Control_c, 0, 64, 69
1, 98217, Note_off_c, 0, 89, 62
1, 98227, Note_off_c, 0, 44, 61
1, 98230, Control_c, 0, 64, 79
1, 98239, Note_on_c, 0, 86, 53
1, 98241, Note_on_c, 0, 50, 37
1, 98244, Control_c, 0, 64, 98
1, 98258, Poly_aftertouch_c, 0, 83, 127
1, 98259, Control_c, 0, 64, 127
1, 98262, Note_on_c, 0, 47, 38
1, 98283, Note_off_c, 0, 86, 60
1, 98307, Poly_aftertouch_c, 0, 83, 0
1, 98310, Note_off_c, 0, 50, 51
1, 98330, Note_off_c, 0, 47, 50
1, 98356, Control_c, 0, 64, 125
1, 98370, Control_c, 0, 64, 87
1, 98385, Control_c, 0, 64, 70
1, 98389, Note_on_c, 0, 92, 74
1, 98397, Note_on_c, 0, 41, 48
1, 98400, Control_c, 0, 64, 58
1, 98405, Note_on_c, 0, 80, 49
1, 98413, Note_on_c, 0, 53, 41
1, 98415, Control_c, 0, 64, 42
1, 98430, Control_c, 0, 64, 43
1, 98445, Control_c, 0, 64, 51
1, 98459, Control_c, 0, 64, 60
1, 98474, Control_c, 0, 64, 65
1, 98489, Control_c, 0, 64, 70
1, 98501, Note_off_c, 0, 53, 54
1, 98504, Control_c, 0, 64, 79
1, 98505, Note_off_c, 0, 41, 57
1, 98516, Note_on_c, 0, 86, 55
1, 98519, Control_c, 0, 64, 92
1, 98522, Note_off_c, 0, 92, 64
1, 98534, Control_c, 0, 64, 127
1, 98540, Note_off_c, 0, 80, 34
1, 98546, Note_on_c, 0, 50, 38
1, 98548, Poly_aftertouch_c, 0, 83, 127
1, 98550, Note_on_c, 0, 47, 35
1, 98638, Control_c, 0, 64, 95
1, 98653, Control_c, 0, 64, 76
1, 98668, Control_c, 0, 64, 63
1, 98668, Control_c, 0, 67, 14
1, 98675, Note_on_c, 0, 91, 68
1, 98683, Control_c, 0, 64, 47
1, 98683, Control_c, 0, 67, 32
1, 98683, Note_off_c, 0, 47, 36
1, 98689, Note_on_c, 0, 79, 50
1, 98691, Note_on_c, 0, 55, 44
1, 98696, Note_on_c, 0, 43, 45
1, 98696, Note_off_c, 0, 50, 36
1, 98698, Control_c, 0, 64, 36
1, 98698, Control_c, 0, 67, 47
1, 98698, Note_off_c, 0, 86, 42
1, 98712, Control_c, 0, 64, 41
1, 98712, Control_c, 0, 67, 62
1, 98727, Control_c, 0, 64, 50
1, 98727, Control_c, 0, 67, 70
1, 98742, Control_c, 0, 64, 59
1, 98742, Control_c, 0, 67, 76
1, 98757, Control_c, 0, 64, 65
1, 98757, Control_c, 0, 67, 81
1, 98772, Control_c, 0, 64, 70
1, 98772, Control_c, 0, 67, 84
1, 98787, Control_c, 0, 64, 78
1, 98787, Control_c, 0, 67, 87
1, 98793, Note_off_c, 0, 91, 56
1, 98797, Note_off_c, 0, 79, 59
1, 98801, Control_c, 0, 64, 91
1, 98801, Control_c, 0, 67, 91
1, 98802, Poly_aftertouch_c, 0, 83, 0
1, 98814, Note_off_c, 0, 43, 56
1, 98816, Control_c, 0, 64, 127
1, 98816, Control_c, 0, 67, 101
1, 98817, Note_on_c, 0, 86, 59
1, 98822, Note_off_c, 0, 55, 52
1, 98823, Note_on_c, 0, 50, 50
1, 98827, Note_on_c, 0, 47, 36
1, 98831, Control_c, 0, 67, 110
1, 98839, Poly_aftertouch_c, 0, 83, 127
1, 98846, Control_c, 0, 67, 120
1, 98853, Note_off_c, 0, 50, 62
1, 98861, Control_c, 0, 67, 127
1, 98862, Note_off_c, 0, 47, 45
1, 98885, Poly_aftertouch_c, 0, 83, 0
1, 98920, Control_c, 0, 64, 101
1, 98935, Control_c, 0, 64, 81
1, 98949, Control_c, 0, 64, 66
1, 98964, Control_c, 0, 64, 52
1, 98966, Note_on_c, 0, 89, 65
1, 98974, Note_on_c, 0, 47, 41
1, 98979, Control_c, 0, 64, 25
1, 98980, Note_on_c, 0, 77, 48
1, 98987, Note_on_c, 0, 59, 49
1, 98993, Control_c, 0, 64, 24
1, 98994, Note_off_c, 0, 86, 34
1, 99008, Control_c, 0, 64, 33
1, 99023, Control_c, 0, 64, 45
1, 99046, Control_c, 0, 64, 57
1, 99060, Note_off_c, 0, 77, 53
1, 99061, Control_c, 0, 64, 63
1, 99075, Control_c, 0, 64, 68
1, 99090, Control_c, 0, 64, 76
1, 99100, Note_off_c, 0, 89, 61
1, 99106, Control_c, 0, 64, 87
1, 99108, Note_on_c, 0, 86, 67
1, 99110, Note_off_c, 0, 59, 51
1, 99114, Note_on_c, 0, 50, 45
1, 99118, Note_on_c, 0, 55, 51
1, 99121, Control_c, 0, 64, 100
1, 99132, Note_off_c, 0, 47, 59
1, 99136, Control_c, 0, 64, 125
1, 99136, Note_off_c, 0, 86, 67
1, 99148, Note_off_c, 0, 50, 64
1, 99150, Control_c, 0, 64, 127
1, 99167, Note_off_c, 0, 55, 58
1, 99194, Control_c, 0, 64, 110
1, 99209, Control_c, 0, 64, 100
1, 99224, Control_c, 0, 64, 89
1, 99239, Control_c, 0, 64, 78
1, 99254, Control_c, 0, 64, 67
1, 99267, Note_on_c, 0, 87, 63
1, 99269, Control_c, 0, 64, 60
1, 99279, Note_on_c, 0, 75, 60
1, 99283, Control_c, 0, 64, 54
1, 99287, Note_on_c, 0, 60, 46
1, 99298, Note_on_c, 0, 48, 35
1, 99298, Control_c, 0, 64, 56
1, 99313, Control_c, 0, 64, 58
1, 99328, Control_c, 0, 64, 62
1, 99342, Control_c, 0, 64, 65
1, 99357, Control_c, 0, 64, 69
1, 99362, Note_off_c, 0, 87, 64
1, 99369, Note_off_c, 0, 75, 50
1, 99372, Control_c, 0, 64, 77
1, 99387, Control_c, 0, 64, 87
1, 99403, Control_c, 0, 64, 99
1, 99404, Note_off_c, 0, 60, 56
1, 99418, Control_c, 0, 64, 120
1, 99424, Note_on_c, 0, 51, 53
1, 99432, Note_on_c, 0, 55, 42
1, 99432, Note_on_c, 0, 84, 58
1, 99432, Control_c, 0, 64, 127
1, 99446, Note_on_c, 0, 79, 32
1, 99464, Note_off_c, 0, 55, 54
1, 99464, Note_off_c, 0, 51, 63
1, 99476, Note_off_c, 0, 48, 48
1, 99491, Note_off_c, 0, 79, 45
1, 99506, Control_c, 0, 64, 116
1, 99521, Control_c, 0, 64, 102
1, 99536, Control_c, 0, 64, 86
1, 99541, Note_off_c, 0, 84, 54
1, 99551, Control_c, 0, 64, 70
1, 99566, Control_c, 0, 64, 58
1, 99580, Note_on_c, 0, 86, 65
1, 99580, Control_c, 0, 64, 36
1, 99584, Note_on_c, 0, 55, 43
1, 99594, Note_on_c, 0, 74, 52
1, 99595, Control_c, 0, 64, 24
1, 99610, Control_c, 0, 64, 29
1, 99625, Control_c, 0, 64, 38
1, 99626, Note_on_c, 0, 43, 26
1, 99640, Control_c, 0, 64, 49
1, 99654, Control_c, 0, 64, 58
1, 99669, Control_c, 0, 64, 63
1, 99684, Control_c, 0, 64, 67
1, 99699, Control_c, 0, 64, 72
1, 99714, Control_c, 0, 64, 78
1, 99720, Note_off_c, 0, 86, 36
1, 99729, Control_c, 0, 64, 87
1, 99741, Note_off_c, 0, 55, 35
1, 99744, Control_c, 0, 64, 100
1, 99748, Note_off_c, 0, 74, 43
1, 99756, Note_on_c, 0, 77, 31
1, 99758, Note_on_c, 0, 79, 40
1, 99759, Control_c, 0, 64, 122
1, 99768, Note_on_c, 0, 47, 30
1, 99773, Control_c, 0, 64, 127
1, 99785, Note_off_c, 0, 77, 53
1, 99787, Note_off_c, 0, 79, 54
1, 99790, Poly_aftertouch_c, 0, 50, 127
1, 99815, Note_off_c, 0, 47, 42
1, 99821, Note_off_c, 0, 43, 43
1, 99839, Poly_aftertouch_c, 0, 50, 0
1, 99884, Control_c, 0, 64, 115
1, 99899, Control_c, 0, 64, 102
1, 99914, Control_c, 0, 64, 85
1, 99923, Note_on_c, 0, 84, 64
1, 99929, Control_c, 0, 64, 68
1, 99941, Note_on_c, 0, 48, 50
1, 99941, Note_on_c, 0, 72, 47
1, 99944, Control_c, 0, 64, 56
1, 99954, Note_on_c, 0, 36, 36
1, 99958, Control_c, 0, 64, 36
1, 99973, Control_c, 0, 64, 33
1, 99988, Control_c, 0, 64, 39
1, 100003, Control_c, 0, 64, 48
1, 100017, Control_c, 0, 64, 57
1, 100032, Control_c, 0, 64, 64
1, 100047, Control_c, 0, 64, 67
1, 100062, Control_c, 0, 64, 72
1, 100063, Note_off_c, 0, 48, 51
1, 100070, Note_off_c, 0, 84, 53
1, 100077, Control_c, 0, 64, 78
1, 100092, Control_c, 0, 64, 86
1, 100099, Note_on_c, 0, 79, 49
1, 100100, Note_on_c, 0, 39, 45
1, 100107, Control_c, 0, 64, 95
1, 100114, Note_on_c, 0, 75, 45
1, 100119, Note_off_c, 0, 72, 19
1, 100120, Note_on_c, 0, 43, 21
1, 100122, Control_c, 0, 64, 111
1, 100128, Note_off_c, 0, 79, 63
1, 100137, Control_c, 0, 64, 127
1, 100137, Note_off_c, 0, 39, 61
1, 100145, Note_off_c, 0, 75, 56
1, 100161, Note_off_c, 0, 36, 38
1, 100162, Note_off_c, 0, 43, 52
1, 100242, Control_c, 0, 64, 120
1, 100256, Control_c, 0, 64, 111
1, 100271, Control_c, 0, 64, 102
1, 100286, Control_c, 0, 64, 91
1, 100298, Note_on_c, 0, 43, 41
1, 100299, Note_on_c, 0, 83, 59
1, 100301, Control_c, 0, 64, 75
1, 100316, Control_c, 0, 64, 64
1, 100323, Note_on_c, 0, 31, 41
1, 100324, Note_on_c, 0, 71, 34
1, 100330, Control_c, 0, 64, 46
1, 100345, Control_c, 0, 64, 9
1, 100360, Control_c, 0, 64, 0
1, 100404, Control_c, 0, 64, 14
1, 100419, Control_c, 0, 64, 24
1, 100434, Control_c, 0, 64, 37
1, 100448, Control_c, 0, 64, 49
1, 100463, Control_c, 0, 64, 58
1, 100478, Control_c, 0, 64, 62
1, 100493, Control_c, 0, 64, 65
1, 100508, Control_c, 0, 64, 68
1, 100519, Note_on_c, 0, 74, 31
1, 100522, Control_c, 0, 64, 72
1, 100523, Note_on_c, 0, 79, 39
1, 100527, Note_off_c, 0, 43, 52
1, 100530, Note_on_c, 0, 38, 35
1, 100533, Note_on_c, 0, 35, 30
1, 100537, Control_c, 0, 64, 77
1, 100560, Control_c, 0, 64, 84
1, 100566, Note_off_c, 0, 74, 51
1, 100574, Note_off_c, 0, 71, 40
1, 100575, Control_c, 0, 64, 92
1, 100581, Note_off_c, 0, 38, 61
1, 100582, Note_off_c, 0, 31, 40
1, 100583, Note_off_c, 0, 79, 61
1, 100587, Note_off_c, 0, 35, 51
1, 100590, Control_c, 0, 64, 103
1, 100604, Control_c, 0, 64, 115
1, 100619, Control_c, 0, 64, 127
1, 100650, Note_off_c, 0, 83, 40
1, 100915, Control_c, 0, 64, 114
1, 100930, Control_c, 0, 64, 99
1, 100945, Control_c, 0, 64, 86
1, 100951, Note_on_c, 0, 84, 54
1, 100958, Note_on_c, 0, 75, 40
1, 100960, Control_c, 0, 64, 73
1, 100974, Control_c, 0, 64, 64
1, 100982, Note_on_c, 0, 79, 38
1, 100984, Note_on_c, 0, 43, 27
1, 100984, Note_on_c, 0, 72, 41
1, 100989, Control_c, 0, 64, 52
1, 100991, Note_on_c, 0, 36, 32
1, 101000, Note_on_c, 0, 39, 29
1, 101002, Note_on_c, 0, 48, 27
1, 101005, Control_c, 0, 64, 36
1, 101020, Control_c, 0, 64, 22
1, 101035, Control_c, 0, 64, 16
1, 101049, Control_c, 0, 64, 0
1, 101213, Control_c, 0, 64, 41
1, 101227, Control_c, 0, 64, 59
1, 101242, Control_c, 0, 64, 64
1, 101257, Control_c, 0, 64, 69
1, 101271, Control_c, 0, 64, 75
1, 101286, Control_c, 0, 64, 84
1, 101309, Control_c, 0, 64, 96
1, 101324, Control_c, 0, 64, 112
1, 101339, Control_c, 0, 64, 127
1, 101344, Note_off_c, 0, 84, 41
1, 101351, Note_off_c, 0, 36, 40
1, 101360, Note_off_c, 0, 48, 40
1, 101375, Note_off_c, 0, 79, 43
1, 101382, Note_off_c, 0, 43, 37
1, 101387, Note_off_c, 0, 72, 43
1, 101387, Note_off_c, 0, 75, 40
1, 101416, Note_off_c, 0, 39, 42
1, 101738, Control_c, 0, 64, 106
1, 101752, Control_c, 0, 64, 94
1, 101767, Control_c, 0, 64, 85
1, 101782, Control_c, 0, 64, 77
1, 101798, Control_c, 0, 64, 71
1, 101813, Control_c, 0, 64, 67
1, 101828, Control_c, 0, 64, 64
1, 101842, Control_c, 0, 64, 63
1, 101857, Control_c, 0, 64, 61
1, 101872, Control_c, 0, 64, 60
1, 101886, Control_c, 0, 64, 59
1, 101901, Control_c, 0, 64, 57
1, 101916, Control_c, 0, 64, 53
1, 101931, Control_c, 0, 64, 47
1, 101946, Control_c, 0, 64, 39
1, 101960, Control_c, 0, 64, 32
1, 101975, Control_c, 0, 64, 27
1, 101990, Control_c, 0, 64, 23
1, 102005, Control_c, 0, 64, 21
1, 102057, Control_c, 0, 64, 22
1, 102072, Control_c, 0, 64, 30
1, 102087, Control_c, 0, 64, 39
1, 102101, Control_c, 0, 64, 49
1, 102116, Control_c, 0, 64, 57
1, 102131, Control_c, 0, 64, 61
1, 102135, Note_on_c, 0, 60, 40
1, 102146, Control_c, 0, 64, 64
1, 102153, Note_on_c, 0, 67, 33
1, 102161, Control_c, 0, 64, 66
1, 102175, Control_c, 0, 64, 69
1, 102190, Control_c, 0, 64, 72
1, 102205, Control_c, 0, 64, 75
1, 102219, Control_c, 0, 64, 79
1, 102234, Control_c, 0, 64, 83
1, 102245, Note_off_c, 0, 67, 50
1, 102249, Control_c, 0, 64, 87
1, 102264, Control_c, 0, 64, 91
1, 102279, Control_c, 0, 64, 92
1, 102287, Note_on_c, 0, 68, 36
1, 102304, Note_off_c, 0, 60, 47
1, 102317, Note_on_c, 0, 63, 47
1, 102363, Note_off_c, 0, 68, 39
1, 102382, Control_c, 0, 64, 91
1, 102384, Note_on_c, 0, 67, 48
1, 102397, Control_c, 0, 64, 90
1, 102412, Control_c, 0, 64, 87
1, 102427, Control_c, 0, 64, 83
1, 102436, Note_off_c, 0, 67, 57
1, 102442, Control_c, 0, 64, 75
1, 102456, Control_c, 0, 64, 67
1, 102471, Control_c, 0, 64, 60
1, 102486, Note_on_c, 0, 60, 43
1, 102486, Control_c, 0, 64, 52
1, 102495, Note_off_c, 0, 63, 42
1, 102497, Note_on_c, 0, 68, 46
1, 102501, Control_c, 0, 64, 50
1, 102516, Control_c, 0, 64, 52
1, 102531, Control_c, 0, 64, 56
1, 102546, Control_c, 0, 64, 60
1, 102561, Control_c, 0, 64, 62
1, 102575, Control_c, 0, 64, 64
1, 102590, Note_off_c, 0, 68, 57
1, 102591, Control_c, 0, 64, 66
1, 102603, Note_on_c, 0, 67, 44
1, 102604, Note_off_c, 0, 60, 63
1, 102606, Control_c, 0, 64, 69
1, 102620, Control_c, 0, 64, 72
1, 102635, Control_c, 0, 64, 76
1, 102650, Control_c, 0, 64, 81
1, 102659, Note_on_c, 0, 63, 27
1, 102665, Control_c, 0, 64, 86
1, 102670, Note_off_c, 0, 67, 57
1, 102680, Control_c, 0, 64, 90
1, 102695, Control_c, 0, 64, 93
1, 102707, Note_on_c, 0, 68, 54
1, 102709, Control_c, 0, 64, 95
1, 102724, Control_c, 0, 64, 96
1, 102820, Control_c, 0, 64, 95
1, 102835, Control_c, 0, 64, 94
1, 102841, Note_off_c, 0, 63, 35
1, 102850, Control_c, 0, 64, 93
1, 102865, Control_c, 0, 64, 92
1, 102880, Control_c, 0, 64, 90
1, 102886, Note_on_c, 0, 60, 45
1, 102895, Control_c, 0, 64, 88
1, 102910, Control_c, 0, 64, 85
1, 102917, Note_on_c, 0, 75, 72
1, 102924, Control_c, 0, 64, 82
1, 102939, Control_c, 0, 64, 78
1, 102944, Note_off_c, 0, 68, 60
1, 102948, Note_on_c, 0, 67, 56
1, 102954, Control_c, 0, 64, 73
1, 102969, Control_c, 0, 64, 67
1, 102984, Control_c, 0, 64, 61
1, 102998, Control_c, 0, 64, 51
1, 103013, Control_c, 0, 64, 40
1, 103028, Control_c, 0, 64, 31
1, 103042, Control_c, 0, 64, 29
1, 103057, Control_c, 0, 64, 29
1, 103072, Control_c, 0, 64, 29
1, 103087, Control_c, 0, 64, 33
1, 103102, Control_c, 0, 64, 41
1, 103106, Note_off_c, 0, 67, 36
1, 103114, Note_on_c, 0, 68, 47
1, 103117, Control_c, 0, 64, 51
1, 103131, Control_c, 0, 64, 59
1, 103140, Note_off_c, 0, 60, 51
1, 103146, Control_c, 0, 64, 63
1, 103155, Note_on_c, 0, 63, 43
1, 103161, Control_c, 0, 64, 66
1, 103176, Control_c, 0, 64, 69
1, 103190, Control_c, 0, 64, 74
1, 103205, Control_c, 0, 64, 79
1, 103212, Note_off_c, 0, 68, 54
1, 103220, Control_c, 0, 64, 84
1, 103226, Note_on_c, 0, 67, 48
1, 103235, Control_c, 0, 64, 90
1, 103249, Control_c, 0, 64, 95
1, 103264, Control_c, 0, 64, 98
1, 103305, Note_off_c, 0, 67, 49
1, 103309, Control_c, 0, 64, 96
1, 103324, Control_c, 0, 64, 94
1, 103339, Control_c, 0, 64, 90
1, 103354, Control_c, 0, 64, 84
1, 103355, Note_on_c, 0, 68, 44
1, 103364, Note_off_c, 0, 63, 36
1, 103369, Control_c, 0, 64, 74
1, 103378, Note_on_c, 0, 60, 39
1, 103384, Control_c, 0, 64, 67
1, 103399, Control_c, 0, 64, 61
1, 103413, Control_c, 0, 64, 60
1, 103428, Control_c, 0, 64, 61
1, 103431, Note_off_c, 0, 68, 50
1, 103443, Control_c, 0, 64, 62
1, 103456, Note_on_c, 0, 67, 43
1, 103458, Control_c, 0, 64, 65
1, 103473, Control_c, 0, 64, 67
1, 103488, Control_c, 0, 64, 70
1, 103503, Control_c, 0, 64, 74
1, 103518, Control_c, 0, 64, 79
1, 103521, Note_off_c, 0, 67, 55
1, 103539, Control_c, 0, 64, 84
1, 103547, Note_on_c, 0, 63, 31
1, 103554, Control_c, 0, 64, 91
1, 103569, Control_c, 0, 64, 98
1, 103574, Note_off_c, 0, 60, 31
1, 103580, Note_on_c, 0, 68, 43
1, 103584, Control_c, 0, 64, 102
1, 103628, Control_c, 0, 64, 100
1, 103643, Control_c, 0, 64, 97
1, 103658, Control_c, 0, 64, 90
1, 103668, Note_off_c, 0, 75, 62
1, 103672, Control_c, 0, 64, 81
1, 103687, Control_c, 0, 64, 70
1, 103690, Note_on_c, 0, 72, 54
1, 103701, Note_on_c, 0, 67, 39
1, 103701, Note_off_c, 0, 63, 41
1, 103702, Control_c, 0, 64, 61
1, 103703, Note_off_c, 0, 68, 37
1, 103717, Control_c, 0, 64, 45
1, 103720, Note_on_c, 0, 60, 42
1, 103732, Control_c, 0, 64, 31
1, 103761, Control_c, 0, 64, 36
1, 103776, Control_c, 0, 64, 43
1, 103791, Control_c, 0, 64, 51
1, 103806, Control_c, 0, 64, 58
1, 103811, Note_off_c, 0, 67, 58
1, 103820, Control_c, 0, 64, 63
1, 103835, Control_c, 0, 64, 67
1, 103841, Note_on_c, 0, 68, 43
1, 103848, Note_off_c, 0, 60, 52
1, 103850, Control_c, 0, 64, 71
1, 103863, Note_on_c, 0, 63, 28
1, 103864, Control_c, 0, 64, 76
1, 103879, Control_c, 0, 64, 84
1, 103894, Control_c, 0, 64, 91
1, 103895, Note_off_c, 0, 68, 56
1, 103909, Control_c, 0, 64, 99
1, 103924, Control_c, 0, 64, 103
1, 103938, Control_c, 0, 64, 104
1, 103947, Note_on_c, 0, 67, 48
1, 103968, Control_c, 0, 64, 103
1, 103983, Control_c, 0, 64, 103
1, 103992, Note_off_c, 0, 67, 60
1, 103998, Control_c, 0, 64, 101
1, 104013, Control_c, 0, 64, 100
1, 104027, Control_c, 0, 64, 95
1, 104031, Note_off_c, 0, 63, 42
1, 104036, Note_on_c, 0, 68, 48
1, 104037, Note_on_c, 0, 60, 39
1, 104042, Control_c, 0, 64, 88
1, 104057, Control_c, 0, 64, 78
1, 104072, Control_c, 0, 64, 67
1, 104087, Control_c, 0, 64, 58
1, 104102, Control_c, 0, 64, 49
1, 104117, Control_c, 0, 64, 51
1, 104125, Note_off_c, 0, 68, 53
1, 104132, Control_c, 0, 64, 55
1, 104146, Control_c, 0, 64, 60
1, 104155, Note_on_c, 0, 67, 38
1, 104161, Control_c, 0, 64, 64
1, 104162, Note_off_c, 0, 60, 63
1, 104176, Control_c, 0, 64, 67
1, 104188, Note_on_c, 0, 63, 41
1, 104191, Control_c, 0, 64, 71
1, 104206, Control_c, 0, 64, 78
1, 104221, Control_c, 0, 64, 87
1, 104235, Note_off_c, 0, 63, 61
1, 104236, Control_c, 0, 64, 100
1, 104238, Note_off_c, 0, 67, 50
1, 104251, Control_c, 0, 64, 127
1, 104277, Note_on_c, 0, 68, 46
1, 104321, Note_off_c, 0, 68, 58
1, 104323, Note_off_c, 0, 72, 10
1, 104391, Control_c, 0, 64, 122
1, 104406, Control_c, 0, 64, 93
1, 104421, Control_c, 0, 64, 77
1, 104436, Control_c, 0, 64, 65
1, 104443, Note_on_c, 0, 59, 41
1, 104445, Note_on_c, 0, 67, 44
1, 104451, Control_c, 0, 64, 51
1, 104466, Control_c, 0, 64, 32
1, 104481, Control_c, 0, 64, 30
1, 104495, Control_c, 0, 64, 31
1, 104510, Control_c, 0, 64, 36
1, 104525, Control_c, 0, 64, 43
1, 104528, Note_off_c, 0, 67, 45
1, 104540, Control_c, 0, 64, 53
1, 104555, Control_c, 0, 64, 60
1, 104568, Note_on_c, 0, 68, 39
1, 104569, Control_c, 0, 64, 64
1, 104584, Control_c, 0, 64, 68
1, 104597, Note_off_c, 0, 59, 56
1, 104599, Control_c, 0, 64, 72
1, 104614, Control_c, 0, 64, 78
1, 104628, Control_c, 0, 64, 84
1, 104636, Note_on_c, 0, 62, 39
1, 104643, Control_c, 0, 64, 91
1, 104653, Note_off_c, 0, 68, 55
1, 104658, Control_c, 0, 64, 96
1, 104672, Note_on_c, 0, 67, 54
1, 104673, Control_c, 0, 64, 98
1, 104687, Control_c, 0, 64, 97
1, 104702, Control_c, 0, 64, 96
1, 104717, Control_c, 0, 64, 94
1, 104732, Control_c, 0, 64, 90
1, 104739, Note_off_c, 0, 67, 51
1, 104747, Control_c, 0, 64, 84
1, 104761, Control_c, 0, 64, 75
1, 104776, Control_c, 0, 64, 66
1, 104782, Note_on_c, 0, 68, 51
1, 104784, Note_on_c, 0, 59, 32
1, 104791, Control_c, 0, 64, 60
1, 104797, Note_off_c, 0, 62, 39
1, 104805, Control_c, 0, 64, 59
1, 104820, Control_c, 0, 64, 61
1, 104835, Control_c, 0, 64, 63
1, 104840, Note_off_c, 0, 68, 55
1, 104850, Control_c, 0, 64, 65
1, 104865, Control_c, 0, 64, 70
1, 104865, Control_c, 0, 67, 126
1, 104871, Note_on_c, 0, 67, 57
1, 104880, Control_c, 0, 64, 76
1, 104880, Control_c, 0, 67, 124
1, 104895, Control_c, 0, 64, 85
1, 104895, Control_c, 0, 67, 122
1, 104910, Control_c, 0, 64, 99
1, 104910, Control_c, 0, 67, 120
1, 104916, Note_off_c, 0, 59, 47
1, 104925, Control_c, 0, 64, 127
1, 104926, Note_off_c, 0, 67, 57
1, 104928, Note_on_c, 0, 62, 47
1, 104940, Control_c, 0, 67, 120
1, 104965, Note_on_c, 0, 68, 70
1, 105096, Control_c, 0, 67, 120
1, 105111, Control_c, 0, 67, 121
1, 105125, Control_c, 0, 67, 122
1, 105138, Note_on_c, 0, 59, 44
1, 105170, Control_c, 0, 67, 122
1, 105185, Control_c, 0, 64, 105
1, 105185, Control_c, 0, 67, 123
1, 105188, Note_on_c, 0, 74, 71
1, 105191, Note_off_c, 0, 62, 35
1, 105199, Control_c, 0, 64, 89
1, 105199, Control_c, 0, 67, 124
1, 105214, Note_on_c, 0, 67, 56
1, 105214, Control_c, 0, 64, 76
1, 105214, Control_c, 0, 67, 125
1, 105229, Control_c, 0, 64, 65
1, 105229, Control_c, 0, 67, 125
1, 105235, Note_off_c, 0, 68, 60
1, 105244, Control_c, 0, 64, 49
1, 105244, Control_c, 0, 67, 127
1, 105259, Control_c, 0, 64, 22
1, 105259, Control_c, 0, 67, 127
1, 105273, Control_c, 0, 64, 9
1, 105303, Control_c, 0, 64, 11
1, 105312, Note_off_c, 0, 67, 53
1, 105318, Control_c, 0, 64, 19
1, 105333, Control_c, 0, 64, 31
1, 105348, Control_c, 0, 64, 45
1, 105363, Control_c, 0, 64, 57
1, 105378, Control_c, 0, 64, 63
1, 105381, Note_on_c, 0, 68, 47
1, 105392, Control_c, 0, 64, 66
1, 105407, Control_c, 0, 64, 70
1, 105422, Control_c, 0, 64, 76
1, 105431, Note_off_c, 0, 59, 37
1, 105436, Control_c, 0, 64, 81
1, 105443, Note_on_c, 0, 62, 38
1, 105451, Control_c, 0, 64, 87
1, 105461, Note_off_c, 0, 68, 55
1, 105466, Control_c, 0, 64, 94
1, 105481, Control_c, 0, 64, 100
1, 105494, Note_on_c, 0, 67, 40
1, 105496, Control_c, 0, 64, 106
1, 105510, Control_c, 0, 64, 109
1, 105540, Control_c, 0, 64, 108
1, 105555, Control_c, 0, 64, 103
1, 105562, Note_off_c, 0, 67, 54
1, 105570, Control_c, 0, 64, 96
1, 105584, Control_c, 0, 64, 89
1, 105599, Control_c, 0, 64, 81
1, 105608, Note_on_c, 0, 68, 36
1, 105613, Note_on_c, 0, 59, 39
1, 105614, Control_c, 0, 64, 75
1, 105628, Control_c, 0, 64, 74
1, 105637, Note_off_c, 0, 62, 38
1, 105643, Control_c, 0, 64, 76
1, 105658, Control_c, 0, 64, 78
1, 105673, Control_c, 0, 64, 80
1, 105685, Note_off_c, 0, 68, 55
1, 105688, Control_c, 0, 64, 84
1, 105703, Control_c, 0, 64, 89
1, 105708, Note_on_c, 0, 67, 46
1, 105718, Control_c, 0, 64, 95
1, 105730, Note_off_c, 0, 59, 57
1, 105732, Control_c, 0, 64, 103
1, 105732, Control_c, 0, 67, 127
1, 105747, Control_c, 0, 64, 113
1, 105762, Control_c, 0, 64, 127
1, 105762, Control_c, 0, 67, 126
1, 105768, Note_off_c, 0, 67, 56
1, 105791, Note_on_c, 0, 62, 40
1, 105838, Note_on_c, 0, 68, 49
1, 105857, Note_off_c, 0, 74, 57
1, 105873, Note_off_c, 0, 68, 60
1, 105889, Control_c, 0, 64, 125
1, 105904, Control_c, 0, 64, 109
1, 105916, Note_off_c, 0, 62, 44
1, 105919, Control_c, 0, 64, 96
1, 105934, Control_c, 0, 64, 83
1, 105941, Note_on_c, 0, 59, 32
1, 105948, Control_c, 0, 64, 71
1, 105963, Control_c, 0, 64, 62
1, 105965, Note_on_c, 0, 79, 66
1, 105978, Control_c, 0, 64, 52
1, 105993, Control_c, 0, 64, 54
1, 105998, Note_on_c, 0, 67, 43
1, 106008, Control_c, 0, 64, 56
1, 106022, Control_c, 0, 64, 60
1, 106037, Note_off_c, 0, 79, 56
1, 106037, Control_c, 0, 64, 63
1, 106052, Control_c, 0, 64, 65
1, 106066, Control_c, 0, 64, 68
1, 106066, Control_c, 0, 67, 125
1, 106081, Control_c, 0, 64, 71
1, 106096, Control_c, 0, 64, 75
1, 106096, Control_c, 0, 67, 125
1, 106111, Control_c, 0, 64, 79
1, 106111, Control_c, 0, 67, 124
1, 106112, Note_off_c, 0, 67, 58
1, 106116, Note_off_c, 0, 59, 42
1, 106126, Control_c, 0, 64, 84
1, 106131, Note_on_c, 0, 62, 37
1, 106131, Note_on_c, 0, 68, 43
1, 106141, Control_c, 0, 64, 89
1, 106156, Control_c, 0, 64, 93
1, 106171, Control_c, 0, 64, 96
1, 106187, Note_off_c, 0, 68, 55
1, 106200, Control_c, 0, 67, 124
1, 106244, Note_on_c, 0, 67, 42
1, 106245, Control_c, 0, 64, 95
1, 106259, Control_c, 0, 64, 94
1, 106270, Note_off_c, 0, 67, 57
1, 106274, Control_c, 0, 64, 92
1, 106278, Note_on_c, 0, 59, 37
1, 106289, Control_c, 0, 64, 90
1, 106304, Control_c, 0, 64, 85
1, 106304, Control_c, 0, 67, 123
1, 106314, Note_on_c, 0, 68, 51
1, 106319, Control_c, 0, 64, 78
1, 106319, Control_c, 0, 67, 122
1, 106323, Note_off_c, 0, 62, 37
1, 106333, Control_c, 0, 64, 69
1, 106333, Control_c, 0, 67, 122
1, 106348, Control_c, 0, 64, 60
1, 106363, Control_c, 0, 64, 54
1, 106368, Note_off_c, 0, 68, 57
1, 106378, Control_c, 0, 64, 56
1, 106393, Control_c, 0, 64, 58
1, 106396, Note_on_c, 0, 67, 42
1, 106407, Control_c, 0, 64, 61
1, 106422, Control_c, 0, 64, 64
1, 106432, Note_off_c, 0, 59, 58
1, 106437, Control_c, 0, 64, 67
1, 106437, Control_c, 0, 67, 121
1, 106452, Control_c, 0, 64, 71
1, 106452, Control_c, 0, 67, 120
1, 106458, Note_off_c, 0, 67, 60
1, 106460, Note_on_c, 0, 62, 49
1, 106466, Control_c, 0, 64, 77
1, 106466, Control_c, 0, 67, 120
1, 106481, Control_c, 0, 64, 85
1, 106481, Control_c, 0, 67, 119
1, 106496, Note_on_c, 0, 68, 56
1, 106496, Control_c, 0, 64, 95
1, 106511, Control_c, 0, 64, 111
1, 106533, Control_c, 0, 64, 127
1, 106544, Note_off_c, 0, 62, 52
1, 106566, Note_off_c, 0, 68, 53
1, 106578, Control_c, 0, 64, 116
1, 106594, Control_c, 0, 64, 100
1, 106606, Note_on_c, 0, 67, 53
1, 106609, Control_c, 0, 64, 86
1, 106609, Control_c, 0, 67, 119
1, 106624, Control_c, 0, 64, 71
1, 106639, Note_on_c, 0, 58, 45
1, 106639, Control_c, 0, 64, 56
1, 106654, Control_c, 0, 64, 0
1, 106690, Note_off_c, 0, 67, 59
1, 106710, Note_on_c, 0, 69, 51
1, 106713, Control_c, 0, 64, 29
1, 106728, Control_c, 0, 64, 51
1, 106743, Control_c, 0, 64, 61
1, 106758, Control_c, 0, 64, 66
1, 106772, Control_c, 0, 64, 70
1, 106772, Control_c, 0, 67, 118
1, 106775, Note_off_c, 0, 58, 60
1, 106784, Note_off_c, 0, 69, 59
1, 106787, Control_c, 0, 64, 76
1, 106801, Note_on_c, 0, 61, 43
1, 106802, Control_c, 0, 64, 83
1, 106802, Control_c, 0, 67, 117
1, 106817, Control_c, 0, 64, 91
1, 106818, Note_on_c, 0, 67, 53
1, 106832, Control_c, 0, 64, 100
1, 106832, Control_c, 0, 67, 117
1, 106846, Control_c, 0, 64, 109
1, 106861, Control_c, 0, 64, 111
1, 106864, Note_off_c, 0, 67, 57
1, 106876, Control_c, 0, 64, 110
1, 106876, Control_c, 0, 67, 116
1, 106890, Control_c, 0, 64, 106
1, 106905, Control_c, 0, 64, 101
1, 106909, Note_on_c, 0, 69, 59
1, 106920, Control_c, 0, 64, 94
1, 106935, Note_on_c, 0, 58, 51
1, 106935, Control_c, 0, 64, 83
1, 106935, Control_c, 0, 67, 115
1, 106945, Note_off_c, 0, 61, 46
1, 106950, Control_c, 0, 64, 72
1, 106964, Control_c, 0, 64, 63
1, 106964, Control_c, 0, 67, 115
1, 106970, Note_off_c, 0, 69, 59
1, 106979, Control_c, 0, 64, 56
1, 106987, Note_on_c, 0, 67, 61
1, 106994, Control_c, 0, 64, 57
1, 106994, Control_c, 0, 67, 114
1, 107009, Control_c, 0, 64, 61
1, 107009, Control_c, 0, 67, 107
1, 107024, Control_c, 0, 64, 64
1, 107024, Control_c, 0, 67, 98
1, 107038, Control_c, 0, 64, 69
1, 107038, Control_c, 0, 67, 89
1, 107053, Control_c, 0, 64, 76
1, 107053, Control_c, 0, 67, 79
1, 107068, Control_c, 0, 64, 87
1, 107068, Control_c, 0, 67, 70
1, 107081, Note_off_c, 0, 67, 56
1, 107083, Control_c, 0, 64, 105
1, 107083, Control_c, 0, 67, 59
1, 107089, Note_on_c, 0, 69, 70
1, 107095, Note_off_c, 0, 58, 58
1, 107098, Control_c, 0, 64, 127
1, 107098, Control_c, 0, 67, 51
1, 107101, Note_on_c, 0, 61, 55
1, 107113, Control_c, 0, 67, 42
1, 107128, Control_c, 0, 67, 36
1, 107142, Control_c, 0, 67, 32
1, 107157, Control_c, 0, 67, 31
1, 107172, Control_c, 0, 67, 30
1, 107276, Control_c, 0, 67, 31
1, 107297, Control_c, 0, 67, 31
1, 107307, Note_on_c, 0, 58, 51
1, 107342, Control_c, 0, 64, 122
1, 107342, Control_c, 0, 67, 32
1, 107348, Note_off_c, 0, 61, 34
1, 107356, Note_on_c, 0, 75, 76
1, 107356, Control_c, 0, 64, 98
1, 107371, Control_c, 0, 64, 82
1, 107371, Control_c, 0, 67, 32
1, 107378, Note_on_c, 0, 67, 53
1, 107387, Control_c, 0, 64, 67
1, 107387, Control_c, 0, 67, 33
1, 107402, Control_c, 0, 64, 55
1, 107402, Control_c, 0, 67, 34
1, 107405, Note_off_c, 0, 69, 60
1, 107417, Control_c, 0, 64, 25
1, 107417, Control_c, 0, 67, 34
1, 107432, Control_c, 0, 64, 0
1, 107432, Control_c, 0, 67, 35
1, 107510, Note_off_c, 0, 67, 54
1, 107520, Control_c, 0, 64, 35
1, 107520, Control_c, 0, 67, 36
1, 107535, Control_c, 0, 64, 54
1, 107535, Control_c, 0, 67, 36
1, 107542, Note_on_c, 0, 69, 49
1, 107550, Control_c, 0, 64, 63
1, 107550, Control_c, 0, 67, 38
1, 107565, Control_c, 0, 64, 69
1, 107565, Control_c, 0, 67, 39
1, 107567, Note_off_c, 0, 58, 50
1, 107568, Note_on_c, 0, 61, 42
1, 107579, Control_c, 0, 64, 75
1, 107579, Control_c, 0, 67, 41
1, 107594, Control_c, 0, 64, 83
1, 107594, Control_c, 0, 67, 42
1, 107607, Note_off_c, 0, 69, 53
1, 107609, Control_c, 0, 64, 91
1, 107609, Control_c, 0, 67, 43
1, 107624, Control_c, 0, 64, 97
1, 107624, Control_c, 0, 67, 45
1, 107639, Control_c, 0, 64, 100
1, 107639, Control_c, 0, 67, 47
1, 107642, Note_on_c, 0, 67, 57
1, 107654, Control_c, 0, 64, 100
1, 107654, Control_c, 0, 67, 50
1, 107668, Control_c, 0, 67, 53
1, 107683, Control_c, 0, 64, 100
1, 107683, Control_c, 0, 67, 56
1, 107686, Note_off_c, 0, 67, 58
1, 107698, Control_c, 0, 64, 98
1, 107698, Control_c, 0, 67, 57
1, 107712, Control_c, 0, 64, 95
1, 107712, Control_c, 0, 67, 59
1, 107727, Control_c, 0, 64, 90
1, 107727, Control_c, 0, 67, 64
1, 107737, Note_on_c, 0, 69, 56
1, 107742, Note_on_c, 0, 58, 43
1, 107742, Control_c, 0, 64, 82
1, 107742, Control_c, 0, 67, 71
1, 107757, Control_c, 0, 64, 73
1, 107757, Control_c, 0, 67, 77
1, 107768, Note_off_c, 0, 61, 33
1, 107772, Control_c, 0, 64, 64
1, 107772, Control_c, 0, 67, 83
1, 107777, Note_off_c, 0, 69, 61
1, 107786, Control_c, 0, 64, 55
1, 107786, Control_c, 0, 67, 87
1, 107801, Control_c, 0, 64, 48
1, 107801, Control_c, 0, 67, 87
1, 107816, Control_c, 0, 64, 50
1, 107821, Note_on_c, 0, 67, 43
1, 107831, Control_c, 0, 64, 54
1, 107846, Control_c, 0, 64, 60
1, 107846, Control_c, 0, 67, 86
1, 107861, Control_c, 0, 64, 64
1, 107861, Control_c, 0, 67, 84
1, 107875, Note_off_c, 0, 67, 59
1, 107876, Control_c, 0, 64, 67
1, 107876, Control_c, 0, 67, 82
1, 107891, Control_c, 0, 64, 71
1, 107891, Control_c, 0, 67, 82
1, 107905, Control_c, 0, 64, 77
1, 107905, Control_c, 0, 67, 81
1, 107906, Note_off_c, 0, 58, 38
1, 107910, Note_on_c, 0, 61, 46
1, 107910, Note_on_c, 0, 69, 49
1, 107920, Control_c, 0, 64, 85
1, 107935, Control_c, 0, 64, 95
1, 107950, Control_c, 0, 64, 103
1, 107950, Control_c, 0, 67, 82
1, 107962, Note_off_c, 0, 75, 50
1, 107965, Control_c, 0, 64, 104
1, 107965, Control_c, 0, 67, 84
1, 107979, Control_c, 0, 64, 102
1, 107979, Control_c, 0, 67, 85
1, 107988, Note_off_c, 0, 69, 46
1, 107994, Control_c, 0, 64, 98
1, 107994, Control_c, 0, 67, 86
1, 108009, Control_c, 0, 64, 92
1, 108009, Control_c, 0, 67, 88
1, 108024, Control_c, 0, 64, 82
1, 108024, Control_c, 0, 67, 89
1, 108040, Note_on_c, 0, 76, 56
1, 108046, Control_c, 0, 64, 71
1, 108046, Control_c, 0, 67, 91
1, 108052, Note_off_c, 0, 61, 45
1, 108053, Note_on_c, 0, 67, 42
1, 108061, Control_c, 0, 64, 62
1, 108061, Control_c, 0, 67, 94
1, 108062, Note_on_c, 0, 58, 36
1, 108075, Control_c, 0, 64, 47
1, 108075, Control_c, 0, 67, 106
1, 108090, Control_c, 0, 64, 36
1, 108090, Control_c, 0, 67, 120
1, 108105, Control_c, 0, 64, 37
1, 108105, Control_c, 0, 67, 127
1, 108120, Control_c, 0, 64, 42
1, 108135, Control_c, 0, 64, 48
1, 108137, Note_off_c, 0, 67, 55
1, 108150, Control_c, 0, 64, 55
1, 108165, Control_c, 0, 64, 60
1, 108180, Control_c, 0, 64, 64
1, 108191, Note_on_c, 0, 69, 36
1, 108195, Control_c, 0, 64, 67
1, 108208, Note_off_c, 0, 58, 55
1, 108210, Control_c, 0, 64, 73
1, 108225, Note_on_c, 0, 61, 36
1, 108225, Control_c, 0, 64, 79
1, 108239, Control_c, 0, 64, 87
1, 108245, Note_off_c, 0, 69, 58
1, 108254, Control_c, 0, 64, 96
1, 108269, Control_c, 0, 64, 104
1, 108278, Note_on_c, 0, 67, 47
1, 108284, Control_c, 0, 64, 107
1, 108314, Control_c, 0, 64, 106
1, 108327, Note_off_c, 0, 67, 59
1, 108328, Control_c, 0, 64, 105
1, 108343, Control_c, 0, 64, 102
1, 108358, Control_c, 0, 64, 98
1, 108373, Control_c, 0, 64, 92
1, 108376, Note_on_c, 0, 69, 51
1, 108388, Note_on_c, 0, 58, 44
1, 108388, Control_c, 0, 64, 84
1, 108402, Control_c, 0, 64, 72
1, 108417, Control_c, 0, 64, 64
1, 108419, Note_off_c, 0, 61, 32
1, 108432, Control_c, 0, 64, 57
1, 108433, Note_off_c, 0, 69, 53
1, 108447, Control_c, 0, 64, 56
1, 108461, Control_c, 0, 64, 58
1, 108476, Control_c, 0, 64, 61
1, 108486, Note_on_c, 0, 67, 34
1, 108491, Control_c, 0, 64, 63
1, 108506, Control_c, 0, 64, 66
1, 108515, Note_off_c, 0, 58, 59
1, 108521, Control_c, 0, 64, 69
1, 108535, Control_c, 0, 64, 73
1, 108550, Note_on_c, 0, 61, 42
1, 108550, Control_c, 0, 64, 78
1, 108565, Control_c, 0, 64, 86
1, 108566, Note_off_c, 0, 67, 59
1, 108580, Control_c, 0, 64, 97
1, 108591, Note_on_c, 0, 69, 49
1, 108595, Control_c, 0, 64, 111
1, 108609, Control_c, 0, 64, 127
1, 108627, Note_off_c, 0, 69, 64
1, 108669, Control_c, 0, 64, 125
1, 108673, Note_off_c, 0, 61, 55
1, 108684, Control_c, 0, 64, 110
1, 108698, Control_c, 0, 64, 100
1, 108713, Control_c, 0, 64, 90
1, 108715, Note_off_c, 0, 76, 48
1, 108728, Control_c, 0, 64, 78
1, 108743, Control_c, 0, 64, 67
1, 108755, Note_on_c, 0, 69, 35
1, 108758, Control_c, 0, 64, 58
1, 108770, Note_on_c, 0, 57, 38
1, 108773, Control_c, 0, 64, 44
1, 108795, Control_c, 0, 64, 41
1, 108824, Control_c, 0, 64, 43
1, 108839, Control_c, 0, 64, 46
1, 108854, Control_c, 0, 64, 51
1, 108859, Note_off_c, 0, 69, 55
1, 108868, Control_c, 0, 64, 59
1, 108883, Note_on_c, 0, 70, 41
1, 108883, Control_c, 0, 64, 63
1, 108883, Control_c, 0, 67, 126
1, 108898, Control_c, 0, 64, 66
1, 108898, Control_c, 0, 67, 124
1, 108913, Control_c, 0, 64, 70
1, 108913, Control_c, 0, 67, 122
1, 108928, Control_c, 0, 64, 76
1, 108928, Control_c, 0, 67, 120
1, 108943, Note_off_c, 0, 70, 58
1, 108943, Control_c, 0, 64, 83
1, 108943, Control_c, 0, 67, 119
1, 108943, Note_off_c, 0, 57, 50
1, 108955, Note_on_c, 0, 60, 39
1, 108958, Control_c, 0, 64, 92
1, 108958, Control_c, 0, 67, 117
1, 108973, Control_c, 0, 64, 106
1, 108973, Control_c, 0, 67, 117
1, 108988, Control_c, 0, 64, 127
1, 109006, Note_on_c, 0, 69, 45
1, 109056, Note_off_c, 0, 69, 60
1, 109078, Note_on_c, 0, 70, 50
1, 109092, Control_c, 0, 67, 116
1, 109098, Note_on_c, 0, 57, 45
1, 109099, Note_off_c, 0, 60, 35
1, 109122, Control_c, 0, 67, 115
1, 109181, Control_c, 0, 67, 115
1, 109183, Note_off_c, 0, 70, 58
1, 109194, Note_on_c, 0, 69, 48
1, 109211, Control_c, 0, 67, 114
1, 109243, Note_on_c, 0, 60, 40
1, 109251, Note_off_c, 0, 69, 58
1, 109259, Note_off_c, 0, 57, 34
1, 109287, Note_on_c, 0, 70, 54
1, 109299, Control_c, 0, 67, 115
1, 109329, Control_c, 0, 67, 116
1, 109344, Control_c, 0, 67, 117
1, 109358, Control_c, 0, 67, 119
1, 109373, Control_c, 0, 67, 120
1, 109388, Control_c, 0, 67, 121
1, 109403, Control_c, 0, 67, 122
1, 109418, Control_c, 0, 67, 124
1, 109432, Control_c, 0, 67, 125
1, 109447, Note_on_c, 0, 57, 39
1, 109447, Control_c, 0, 67, 126
1, 109462, Control_c, 0, 67, 127
1, 109477, Control_c, 0, 67, 127
1, 109531, Note_off_c, 0, 60, 38
1, 109548, Note_on_c, 0, 76, 74
1, 109567, Note_on_c, 0, 69, 53
1, 109573, Control_c, 0, 64, 119
1, 109588, Note_off_c, 0, 70, 58
1, 109588, Control_c, 0, 64, 98
1, 109603, Control_c, 0, 64, 83
1, 109618, Control_c, 0, 64, 68
1, 109632, Control_c, 0, 64, 57
1, 109647, Control_c, 0, 64, 31
1, 109662, Control_c, 0, 64, 0
1, 109706, Control_c, 0, 64, 19
1, 109712, Note_off_c, 0, 69, 42
1, 109721, Control_c, 0, 64, 31
1, 109726, Note_on_c, 0, 70, 47
1, 109736, Control_c, 0, 64, 44
1, 109751, Control_c, 0, 64, 56
1, 109766, Control_c, 0, 64, 63
1, 109781, Control_c, 0, 64, 66
1, 109792, Note_on_c, 0, 60, 25
1, 109796, Control_c, 0, 64, 70
1, 109809, Note_off_c, 0, 57, 41
1, 109811, Control_c, 0, 64, 75
1, 109821, Note_off_c, 0, 70, 54
1, 109826, Control_c, 0, 64, 80
1, 109834, Note_on_c, 0, 69, 50
1, 109841, Control_c, 0, 64, 86
1, 109855, Control_c, 0, 64, 91
1, 109870, Control_c, 0, 64, 95
1, 109885, Control_c, 0, 64, 97
1, 109945, Note_off_c, 0, 69, 38
1, 109945, Control_c, 0, 64, 96
1, 109959, Control_c, 0, 64, 95
1, 109962, Note_on_c, 0, 70, 47
1, 109970, Note_on_c, 0, 57, 35
1, 109974, Control_c, 0, 64, 92
1, 109989, Control_c, 0, 64, 87
1, 109992, Note_off_c, 0, 60, 36
1, 110004, Control_c, 0, 64, 80
1, 110019, Control_c, 0, 64, 72
1, 110034, Control_c, 0, 64, 66
1, 110046, Note_off_c, 0, 70, 56
1, 110049, Control_c, 0, 64, 63
1, 110063, Control_c, 0, 64, 63
1, 110078, Control_c, 0, 64, 64
1, 110085, Note_on_c, 0, 69, 39
1, 110093, Control_c, 0, 64, 65
1, 110107, Control_c, 0, 64, 66
1, 110122, Control_c, 0, 64, 68
1, 110135, Note_off_c, 0, 69, 58
1, 110137, Control_c, 0, 64, 71
1, 110144, Note_off_c, 0, 57, 36
1, 110146, Note_on_c, 0, 60, 27
1, 110152, Control_c, 0, 64, 74
1, 110167, Control_c, 0, 64, 79
1, 110181, Control_c, 0, 64, 84
1, 110189, Note_on_c, 0, 70, 44
1, 110196, Control_c, 0, 64, 89
1, 110211, Control_c, 0, 64, 94
1, 110219, Note_off_c, 0, 76, 53
1, 110226, Control_c, 0, 64, 95
1, 110238, Note_off_c, 0, 70, 56
1, 110255, Control_c, 0, 64, 94
1, 110278, Control_c, 0, 64, 92
1, 110293, Control_c, 0, 64, 91
1, 110304, Note_on_c, 0, 57, 34
1, 110304, Note_on_c, 0, 77, 58
1, 110307, Control_c, 0, 64, 88
1, 110317, Note_on_c, 0, 69, 38
1, 110322, Control_c, 0, 64, 83
1, 110325, Note_off_c, 0, 60, 40
1, 110338, Control_c, 0, 64, 75
1, 110353, Control_c, 0, 64, 66
1, 110368, Control_c, 0, 64, 57
1, 110368, Control_c, 0, 67, 127
1, 110374, Note_off_c, 0, 69, 51
1, 110382, Control_c, 0, 64, 49
1, 110397, Control_c, 0, 64, 50
1, 110397, Control_c, 0, 67, 126
1, 110412, Control_c, 0, 64, 53
1, 110427, Control_c, 0, 64, 57
1, 110427, Control_c, 0, 67, 125
1, 110435, Note_on_c, 0, 70, 35
1, 110441, Control_c, 0, 64, 61
1, 110456, Control_c, 0, 64, 64
1, 110456, Control_c, 0, 67, 124
1, 110471, Control_c, 0, 64, 67
1, 110471, Control_c, 0, 67, 123
1, 110477, Note_off_c, 0, 57, 39
1, 110479, Note_on_c, 0, 60, 27
1, 110480, Note_off_c, 0, 70, 57
1, 110486, Control_c, 0, 64, 70
1, 110486, Control_c, 0, 67, 122
1, 110501, Control_c, 0, 64, 75
1, 110501, Control_c, 0, 67, 120
1, 110515, Control_c, 0, 64, 80
1, 110515, Control_c, 0, 67, 119
1, 110523, Note_on_c, 0, 69, 48
1, 110530, Control_c, 0, 64, 86
1, 110530, Control_c, 0, 67, 118
1, 110545, Control_c, 0, 64, 96
1, 110545, Control_c, 0, 67, 117
1, 110560, Control_c, 0, 64, 107
1, 110560, Control_c, 0, 67, 116
1, 110575, Note_off_c, 0, 69, 58
1, 110575, Control_c, 0, 64, 127
1, 110575, Control_c, 0, 67, 115
1, 110591, Control_c, 0, 67, 114
1, 110605, Control_c, 0, 67, 112
1, 110620, Control_c, 0, 67, 111
1, 110621, Note_on_c, 0, 70, 42
1, 110628, Note_on_c, 0, 57, 42
1, 110635, Control_c, 0, 67, 109
1, 110647, Note_off_c, 0, 60, 44
1, 110650, Control_c, 0, 67, 103
1, 110665, Control_c, 0, 67, 93
1, 110679, Control_c, 0, 67, 84
1, 110694, Control_c, 0, 67, 74
1, 110698, Note_off_c, 0, 70, 49
1, 110709, Control_c, 0, 67, 63
1, 110717, Note_off_c, 0, 57, 62
1, 110723, Note_on_c, 0, 69, 51
1, 110724, Control_c, 0, 67, 52
1, 110738, Control_c, 0, 67, 39
1, 110753, Control_c, 0, 67, 27
1, 110758, Note_on_c, 0, 60, 56
1, 110768, Control_c, 0, 67, 16
1, 110781, Note_off_c, 0, 69, 57
1, 110783, Control_c, 0, 67, 0
1, 110814, Note_off_c, 0, 60, 56
1, 110829, Note_on_c, 0, 70, 56
1, 110870, Note_off_c, 0, 70, 59
1, 110916, Control_c, 0, 64, 116
1, 110931, Control_c, 0, 64, 87
1, 110942, Note_on_c, 0, 60, 59
1, 110946, Control_c, 0, 64, 70
1, 110947, Note_on_c, 0, 69, 52
1, 110961, Control_c, 0, 64, 56
1, 110976, Control_c, 0, 64, 30
1, 110991, Control_c, 0, 64, 27
1, 110997, Note_off_c, 0, 69, 55
1, 111006, Control_c, 0, 64, 37
1, 111021, Control_c, 0, 64, 49
1, 111043, Control_c, 0, 64, 59
1, 111057, Control_c, 0, 64, 64
1, 111068, Note_on_c, 0, 70, 47
1, 111072, Control_c, 0, 64, 69
1, 111083, Note_off_c, 0, 60, 59
1, 111087, Control_c, 0, 64, 75
1, 111091, Note_off_c, 0, 77, 16
1, 111102, Control_c, 0, 64, 85
1, 111104, Note_on_c, 0, 63, 53
1, 111116, Note_off_c, 0, 70, 62
1, 111117, Control_c, 0, 64, 96
1, 111131, Control_c, 0, 64, 112
1, 111146, Control_c, 0, 64, 127
1, 111161, Note_on_c, 0, 69, 58
1, 111218, Note_off_c, 0, 69, 56
1, 111235, Control_c, 0, 64, 107
1, 111239, Note_on_c, 0, 70, 61
1, 111250, Control_c, 0, 64, 91
1, 111253, Note_on_c, 0, 60, 52
1, 111265, Control_c, 0, 64, 78
1, 111273, Note_off_c, 0, 63, 40
1, 111280, Control_c, 0, 64, 67
1, 111295, Control_c, 0, 64, 59
1, 111310, Control_c, 0, 64, 58
1, 111315, Note_off_c, 0, 70, 61
1, 111324, Control_c, 0, 64, 61
1, 111339, Control_c, 0, 64, 64
1, 111340, Note_on_c, 0, 69, 60
1, 111354, Control_c, 0, 64, 69
1, 111369, Control_c, 0, 64, 78
1, 111373, Note_off_c, 0, 60, 62
1, 111384, Control_c, 0, 64, 102
1, 111399, Control_c, 0, 64, 127
1, 111400, Note_on_c, 0, 63, 47
1, 111416, Note_off_c, 0, 69, 61
1, 111435, Note_on_c, 0, 70, 66
1, 111596, Note_on_c, 0, 60, 56
1, 111628, Note_on_c, 0, 77, 81
1, 111636, Control_c, 0, 64, 92
1, 111651, Note_on_c, 0, 69, 63
1, 111651, Control_c, 0, 64, 72
1, 111653, Note_off_c, 0, 70, 59
1, 111666, Control_c, 0, 64, 60
1, 111669, Note_off_c, 0, 63, 33
1, 111680, Control_c, 0, 64, 32
1, 111695, Control_c, 0, 64, 0
1, 111781, Note_off_c, 0, 69, 58
1, 111807, Control_c, 0, 64, 27
1, 111812, Note_on_c, 0, 70, 46
1, 111822, Control_c, 0, 64, 50
1, 111831, Note_off_c, 0, 60, 56
1, 111835, Control_c, 0, 64, 61
1, 111843, Note_on_c, 0, 63, 27
1, 111850, Control_c, 0, 64, 67
1, 111865, Control_c, 0, 64, 72
1, 111879, Control_c, 0, 64, 80
1, 111888, Note_off_c, 0, 70, 60
1, 111894, Control_c, 0, 64, 89
1, 111907, Note_on_c, 0, 69, 59
1, 111909, Control_c, 0, 64, 99
1, 111924, Control_c, 0, 64, 112
1, 111939, Control_c, 0, 64, 127
1, 111983, Note_off_c, 0, 69, 57
1, 111983, Control_c, 0, 64, 120
1, 111998, Control_c, 0, 64, 109
1, 112013, Note_on_c, 0, 60, 44
1, 112013, Control_c, 0, 64, 98
1, 112016, Note_on_c, 0, 70, 57
1, 112028, Control_c, 0, 64, 86
1, 112039, Note_off_c, 0, 63, 36
1, 112043, Control_c, 0, 64, 74
1, 112058, Control_c, 0, 64, 66
1, 112073, Control_c, 0, 64, 61
1, 112087, Control_c, 0, 64, 62
1, 112095, Note_off_c, 0, 70, 63
1, 112102, Control_c, 0, 64, 64
1, 112113, Note_on_c, 0, 69, 58
1, 112117, Control_c, 0, 64, 66
1, 112132, Control_c, 0, 64, 71
1, 112146, Control_c, 0, 64, 78
1, 112150, Note_off_c, 0, 60, 56
1, 112159, Note_on_c, 0, 63, 53
1, 112161, Control_c, 0, 64, 91
1, 112177, Control_c, 0, 64, 127
1, 112187, Note_off_c, 0, 69, 61
1, 112213, Note_on_c, 0, 70, 62
1, 112250, Note_off_c, 0, 77, 61
1, 112251, Note_off_c, 0, 70, 61
1, 112296, Control_c, 0, 64, 114
1, 112310, Control_c, 0, 64, 83
1, 112318, Note_on_c, 0, 78, 89
1, 112320, Note_on_c, 0, 60, 54
1, 112325, Control_c, 0, 64, 67
1, 112328, Note_on_c, 0, 69, 61
1, 112340, Control_c, 0, 64, 47
1, 112344, Note_off_c, 0, 63, 54
1, 112355, Control_c, 0, 64, 0
1, 112438, Note_off_c, 0, 69, 55
1, 112444, Control_c, 0, 64, 34
1, 112458, Control_c, 0, 64, 57
1, 112466, Note_on_c, 0, 70, 54
1, 112473, Control_c, 0, 64, 65
1, 112481, Note_on_c, 0, 63, 52
1, 112488, Control_c, 0, 64, 73
1, 112502, Control_c, 0, 64, 91
1, 112515, Note_off_c, 0, 70, 59
1, 112517, Control_c, 0, 64, 127
1, 112547, Note_off_c, 0, 60, 37
1, 112560, Note_on_c, 0, 69, 67
1, 112621, Note_on_c, 0, 60, 47
1, 112622, Note_off_c, 0, 69, 57
1, 112643, Note_off_c, 0, 63, 53
1, 112651, Note_on_c, 0, 70, 63
1, 112729, Note_off_c, 0, 70, 62
1, 112744, Note_on_c, 0, 69, 63
1, 112781, Note_on_c, 0, 63, 53
1, 112830, Note_off_c, 0, 69, 61
1, 112846, Note_on_c, 0, 70, 73
1, 112896, Note_off_c, 0, 78, 62
1, 112964, Note_off_c, 0, 63, 60
1, 112967, Note_on_c, 0, 62, 61
1, 112985, Control_c, 0, 64, 104
1, 112993, Note_off_c, 0, 60, 56
1, 113000, Control_c, 0, 64, 81
1, 113010, Note_on_c, 0, 79, 91
1, 113014, Note_off_c, 0, 70, 59
1, 113015, Control_c, 0, 64, 66
1, 113018, Note_on_c, 0, 71, 75
1, 113030, Control_c, 0, 64, 47
1, 113045, Control_c, 0, 64, 0
1, 113163, Control_c, 0, 64, 44
1, 113165, Note_off_c, 0, 71, 60
1, 113178, Control_c, 0, 64, 59
1, 113179, Note_on_c, 0, 72, 66
1, 113193, Control_c, 0, 64, 64
1, 113206, Note_on_c, 0, 65, 49
1, 113207, Control_c, 0, 64, 68
1, 113222, Control_c, 0, 64, 73
1, 113235, Note_off_c, 0, 62, 57
1, 113237, Control_c, 0, 64, 81
1, 113252, Control_c, 0, 64, 88
1, 113256, Note_off_c, 0, 72, 61
1, 113267, Control_c, 0, 64, 95
1, 113277, Note_on_c, 0, 71, 66
1, 113289, Control_c, 0, 64, 103
1, 113304, Control_c, 0, 64, 111
1, 113319, Control_c, 0, 64, 120
1, 113332, Control_c, 0, 64, 127
1, 113336, Note_off_c, 0, 71, 61
1, 113369, Note_on_c, 0, 72, 63
1, 113393, Note_on_c, 0, 62, 45
1, 113408, Note_off_c, 0, 79, 60
1, 113434, Note_off_c, 0, 65, 32
1, 113468, Note_on_c, 0, 71, 64
1, 113475, Note_off_c, 0, 72, 38
1, 113546, Note_off_c, 0, 71, 60
1, 113557, Note_off_c, 0, 62, 55
1, 113560, Note_on_c, 0, 65, 47
1, 113594, Note_on_c, 0, 72, 64
1, 113599, Control_c, 0, 67, 12
1, 113614, Control_c, 0, 67, 19
1, 113629, Control_c, 0, 67, 25
1, 113644, Control_c, 0, 67, 29
1, 113658, Control_c, 0, 67, 33
1, 113673, Control_c, 0, 67, 36
1, 113688, Control_c, 0, 67, 39
1, 113703, Control_c, 0, 67, 41
1, 113718, Control_c, 0, 67, 42
1, 113732, Control_c, 0, 67, 44
1, 113747, Control_c, 0, 67, 49
1, 113762, Control_c, 0, 67, 53
1, 113778, Control_c, 0, 67, 57
1, 113792, Note_off_c, 0, 72, 21
1, 113793, Control_c, 0, 67, 62
1, 113802, Note_on_c, 0, 62, 41
1, 113808, Control_c, 0, 67, 66
1, 113822, Control_c, 0, 67, 69
1, 113837, Control_c, 0, 67, 73
1, 113842, Note_off_c, 0, 65, 31
1, 113852, Control_c, 0, 67, 75
1, 113867, Control_c, 0, 67, 76
1, 113882, Control_c, 0, 64, 119
1, 113896, Control_c, 0, 64, 104
1, 113896, Control_c, 0, 67, 77
1, 113905, Note_on_c, 0, 80, 86
1, 113911, Control_c, 0, 64, 93
1, 113926, Control_c, 0, 64, 81
1, 113926, Control_c, 0, 67, 77
1, 113927, Note_on_c, 0, 71, 64
1, 113940, Control_c, 0, 64, 69
1, 113940, Control_c, 0, 67, 78
1, 113955, Control_c, 0, 64, 59
1, 113970, Control_c, 0, 64, 38
1, 113970, Control_c, 0, 67, 79
1, 113985, Control_c, 0, 64, 0
1, 114067, Control_c, 0, 67, 79
1, 114097, Note_off_c, 0, 71, 56
1, 114111, Control_c, 0, 64, 21
1, 114121, Note_on_c, 0, 72, 46
1, 114126, Control_c, 0, 64, 41
1, 114126, Control_c, 0, 67, 79
1, 114141, Control_c, 0, 64, 54
1, 114155, Control_c, 0, 64, 61
1, 114170, Control_c, 0, 64, 64
1, 114170, Control_c, 0, 67, 78
1, 114183, Note_off_c, 0, 62, 40
1, 114185, Control_c, 0, 64, 66
1, 114194, Note_on_c, 0, 65, 37
1, 114200, Control_c, 0, 64, 68
1, 114213, Note_off_c, 0, 72, 59
1, 114215, Control_c, 0, 64, 70
1, 114229, Control_c, 0, 64, 71
1, 114234, Note_on_c, 0, 71, 48
1, 114244, Control_c, 0, 64, 72
1, 114259, Control_c, 0, 64, 72
1, 114273, Control_c, 0, 67, 79
1, 114303, Control_c, 0, 67, 79
1, 114318, Control_c, 0, 67, 80
1, 114331, Note_off_c, 0, 71, 57
1, 114333, Control_c, 0, 64, 72
1, 114333, Control_c, 0, 67, 81
1, 114347, Control_c, 0, 67, 81
1, 114358, Note_on_c, 0, 72, 48
1, 114362, Control_c, 0, 64, 71
1, 114362, Control_c, 0, 67, 82
1, 114377, Control_c, 0, 64, 71
1, 114380, Note_off_c, 0, 65, 40
1, 114386, Note_on_c, 0, 62, 31
1, 114392, Control_c, 0, 64, 71
1, 114422, Control_c, 0, 64, 72
1, 114446, Note_off_c, 0, 72, 58
1, 114452, Control_c, 0, 64, 72
1, 114452, Control_c, 0, 67, 84
1, 114467, Control_c, 0, 64, 73
1, 114467, Control_c, 0, 67, 90
1, 114480, Note_on_c, 0, 71, 43
1, 114481, Control_c, 0, 64, 75
1, 114481, Control_c, 0, 67, 97
1, 114496, Control_c, 0, 64, 76
1, 114496, Control_c, 0, 67, 106
1, 114511, Control_c, 0, 64, 77
1, 114511, Control_c, 0, 67, 115
1, 114526, Control_c, 0, 64, 78
1, 114526, Control_c, 0, 67, 124
1, 114541, Control_c, 0, 64, 80
1, 114541, Control_c, 0, 67, 127
1, 114550, Note_off_c, 0, 62, 36
1, 114555, Control_c, 0, 64, 81
1, 114557, Note_on_c, 0, 65, 31
1, 114560, Note_off_c, 0, 71, 57
1, 114571, Control_c, 0, 64, 82
1, 114586, Control_c, 0, 64, 82
1, 114595, Note_on_c, 0, 72, 43
1, 114665, Note_off_c, 0, 72, 57
1, 114696, Note_on_c, 0, 71, 49
1, 114705, Note_on_c, 0, 62, 31
1, 114706, Note_off_c, 0, 65, 31
1, 114719, Control_c, 0, 64, 83
1, 114747, Note_off_c, 0, 71, 59
1, 114822, Note_on_c, 0, 72, 43
1, 114830, Control_c, 0, 64, 83
1, 114845, Control_c, 0, 64, 84
1, 114862, Note_on_c, 0, 65, 35
1, 114862, Note_off_c, 0, 72, 61
1, 114875, Control_c, 0, 64, 84
1, 114882, Note_off_c, 0, 62, 33
1, 114890, Control_c, 0, 64, 85
1, 114893, Note_on_c, 0, 71, 46
1, 114919, Control_c, 0, 64, 85
1, 114952, Note_off_c, 0, 71, 58
1, 114991, Note_on_c, 0, 72, 43
1, 115023, Control_c, 0, 64, 86
1, 115043, Note_on_c, 0, 62, 32
1, 115043, Note_off_c, 0, 65, 40
1, 115063, Note_off_c, 0, 72, 55
1, 115082, Control_c, 0, 64, 86
1, 115105, Note_on_c, 0, 71, 45
1, 115141, Control_c, 0, 64, 87
1, 115158, Note_off_c, 0, 71, 59
1, 115188, Note_on_c, 0, 65, 32
1, 115215, Control_c, 0, 64, 86
1, 115218, Note_on_c, 0, 72, 43
1, 115245, Control_c, 0, 64, 86
1, 115259, Control_c, 0, 64, 85
1, 115274, Control_c, 0, 64, 84
1, 115289, Control_c, 0, 64, 82
1, 115290, Note_off_c, 0, 72, 47
1, 115297, Note_off_c, 0, 62, 18
1, 115304, Control_c, 0, 64, 79
1, 115319, Control_c, 0, 64, 74
1, 115334, Control_c, 0, 64, 67
1, 115346, Note_on_c, 0, 71, 45
1, 115349, Control_c, 0, 64, 59
1, 115349, Note_off_c, 0, 65, 39
1, 115352, Note_on_c, 0, 55, 38
1, 115364, Control_c, 0, 64, 47
1, 115379, Control_c, 0, 64, 38
1, 115394, Control_c, 0, 64, 38
1, 115409, Control_c, 0, 64, 41
1, 115423, Control_c, 0, 64, 46
1, 115438, Control_c, 0, 64, 52
1, 115453, Note_off_c, 0, 71, 53
1, 115453, Control_c, 0, 64, 58
1, 115468, Control_c, 0, 64, 62
1, 115483, Control_c, 0, 64, 65
1, 115495, Note_on_c, 0, 72, 39
1, 115498, Control_c, 0, 64, 67
1, 115513, Control_c, 0, 64, 69
1, 115525, Note_off_c, 0, 55, 53
1, 115534, Control_c, 0, 64, 73
1, 115545, Note_on_c, 0, 65, 26
1, 115549, Control_c, 0, 64, 77
1, 115550, Note_off_c, 0, 72, 60
1, 115564, Control_c, 0, 64, 82
1, 115579, Control_c, 0, 64, 90
1, 115594, Control_c, 0, 64, 95
1, 115598, Note_on_c, 0, 71, 49
1, 115608, Control_c, 0, 64, 99
1, 115623, Control_c, 0, 64, 102
1, 115638, Control_c, 0, 64, 102
1, 115659, Note_off_c, 0, 71, 53
1, 115668, Control_c, 0, 64, 103
1, 115683, Control_c, 0, 64, 104
1, 115698, Control_c, 0, 64, 104
1, 115705, Note_on_c, 0, 55, 38
1, 115711, Note_on_c, 0, 72, 43
1, 115713, Control_c, 0, 64, 105
1, 115727, Control_c, 0, 64, 107
1, 115732, Note_off_c, 0, 65, 37
1, 115742, Control_c, 0, 64, 110
1, 115757, Control_c, 0, 64, 115
1, 115772, Control_c, 0, 64, 127
1, 115784, Note_off_c, 0, 72, 53
1, 115814, Note_on_c, 0, 71, 47
1, 115885, Note_off_c, 0, 55, 36
1, 115889, Note_on_c, 0, 65, 31
1, 115900, Note_off_c, 0, 71, 58
1, 115930, Note_on_c, 0, 72, 54
1, 115974, Note_off_c, 0, 80, 63
1, 116112, Note_on_c, 0, 55, 40
1, 116112, Control_c, 0, 64, 105
1, 116127, Control_c, 0, 64, 90
1, 116142, Control_c, 0, 64, 79
1, 116142, Note_off_c, 0, 65, 38
1, 116157, Control_c, 0, 64, 69
1, 116169, Note_on_c, 0, 77, 64
1, 116172, Control_c, 0, 64, 60
1, 116182, Note_off_c, 0, 72, 42
1, 116185, Note_on_c, 0, 71, 49
1, 116187, Control_c, 0, 64, 44
1, 116202, Control_c, 0, 64, 27
1, 116216, Control_c, 0, 64, 25
1, 116231, Control_c, 0, 64, 27
1, 116246, Control_c, 0, 64, 31
1, 116261, Control_c, 0, 64, 39
1, 116284, Control_c, 0, 64, 51
1, 116298, Control_c, 0, 64, 60
1, 116313, Control_c, 0, 64, 64
1, 116321, Note_off_c, 0, 71, 47
1, 116328, Control_c, 0, 64, 68
1, 116343, Control_c, 0, 64, 73
1, 116350, Note_on_c, 0, 72, 37
1, 116350, Note_off_c, 0, 55, 56
1, 116357, Control_c, 0, 64, 79
1, 116365, Note_on_c, 0, 65, 32
1, 116372, Control_c, 0, 64, 85
1, 116387, Control_c, 0, 64, 93
1, 116402, Control_c, 0, 64, 101
1, 116406, Note_off_c, 0, 72, 60
1, 116417, Control_c, 0, 64, 112
1, 116431, Control_c, 0, 64, 119
1, 116456, Note_on_c, 0, 71, 43
1, 116461, Control_c, 0, 64, 115
1, 116476, Control_c, 0, 64, 107
1, 116488, Note_off_c, 0, 71, 57
1, 116491, Control_c, 0, 64, 97
1, 116505, Control_c, 0, 64, 85
1, 116520, Control_c, 0, 64, 75
1, 116526, Note_on_c, 0, 72, 51
1, 116535, Note_on_c, 0, 55, 32
1, 116535, Control_c, 0, 64, 69
1, 116541, Note_off_c, 0, 65, 31
1, 116550, Control_c, 0, 64, 67
1, 116565, Note_off_c, 0, 72, 65
1, 116565, Control_c, 0, 64, 67
1, 116580, Control_c, 0, 64, 68
1, 116587, Note_on_c, 0, 71, 48
1, 116595, Control_c, 0, 64, 70
1, 116610, Control_c, 0, 64, 72
1, 116625, Control_c, 0, 64, 76
1, 116640, Control_c, 0, 64, 80
1, 116651, Note_off_c, 0, 71, 56
1, 116655, Control_c, 0, 64, 84
1, 116669, Control_c, 0, 64, 90
1, 116678, Note_on_c, 0, 72, 47
1, 116684, Control_c, 0, 64, 97
1, 116699, Control_c, 0, 64, 104
1, 116700, Note_on_c, 0, 65, 35
1, 116712, Note_off_c, 0, 55, 44
1, 116714, Control_c, 0, 64, 113
1, 116729, Control_c, 0, 64, 127
1, 116764, Note_off_c, 0, 72, 57
1, 116780, Note_off_c, 0, 77, 54
1, 116832, Control_c, 0, 64, 122
1, 116847, Control_c, 0, 64, 113
1, 116861, Control_c, 0, 64, 104
1, 116866, Note_on_c, 0, 55, 34
1, 116876, Control_c, 0, 64, 89
1, 116886, Note_off_c, 0, 65, 36
1, 116891, Control_c, 0, 64, 76
1, 116893, Note_on_c, 0, 79, 60
1, 116906, Control_c, 0, 64, 64
1, 116914, Note_on_c, 0, 71, 21
1, 116921, Control_c, 0, 64, 51
1, 116936, Control_c, 0, 64, 34
1, 116950, Control_c, 0, 64, 32
1, 116966, Control_c, 0, 64, 37
1, 116980, Note_off_c, 0, 71, 56
1, 116981, Control_c, 0, 64, 43
1, 116996, Control_c, 0, 64, 52
1, 117011, Control_c, 0, 64, 59
1, 117024, Note_on_c, 0, 72, 47
1, 117033, Control_c, 0, 64, 63
1, 117048, Control_c, 0, 64, 66
1, 117061, Note_off_c, 0, 72, 65
1, 117063, Control_c, 0, 64, 69
1, 117078, Control_c, 0, 64, 73
1, 117093, Control_c, 0, 64, 77
1, 117108, Note_on_c, 0, 62, 32
1, 117108, Control_c, 0, 64, 82
1, 117114, Note_on_c, 0, 71, 44
1, 117119, Note_off_c, 0, 55, 45
1, 117122, Control_c, 0, 64, 87
1, 117137, Control_c, 0, 64, 91
1, 117140, Note_off_c, 0, 71, 56
1, 117152, Control_c, 0, 64, 93
1, 117158, Note_on_c, 0, 72, 57
1, 117167, Control_c, 0, 64, 94
1, 117181, Control_c, 0, 64, 95
1, 117195, Note_off_c, 0, 72, 64
1, 117196, Control_c, 0, 64, 95
1, 117228, Note_on_c, 0, 71, 58
1, 117255, Control_c, 0, 64, 93
1, 117266, Note_off_c, 0, 71, 65
1, 117267, Note_off_c, 0, 62, 34
1, 117270, Control_c, 0, 64, 90
1, 117271, Note_on_c, 0, 55, 37
1, 117285, Control_c, 0, 64, 88
1, 117287, Note_on_c, 0, 72, 58
1, 117300, Control_c, 0, 64, 87
1, 117315, Control_c, 0, 64, 88
1, 117324, Note_off_c, 0, 72, 64
1, 117329, Control_c, 0, 64, 89
1, 117344, Control_c, 0, 64, 90
1, 117350, Note_on_c, 0, 71, 51
1, 117359, Control_c, 0, 64, 92
1, 117373, Control_c, 0, 64, 94
1, 117388, Control_c, 0, 64, 96
1, 117390, Note_off_c, 0, 71, 62
1, 117403, Control_c, 0, 64, 100
1, 117411, Note_on_c, 0, 72, 60
1, 117418, Control_c, 0, 64, 106
1, 117433, Control_c, 0, 64, 125
1, 117447, Control_c, 0, 64, 127
1, 117450, Note_off_c, 0, 72, 63
1, 117456, Note_on_c, 0, 62, 41
1, 117477, Control_c, 0, 67, 117
1, 117489, Note_on_c, 0, 71, 53
1, 117492, Control_c, 0, 67, 96
1, 117507, Control_c, 0, 67, 72
1, 117522, Control_c, 0, 67, 55
1, 117534, Note_off_c, 0, 71, 61
1, 117537, Control_c, 0, 67, 42
1, 117541, Note_on_c, 0, 72, 58
1, 117552, Control_c, 0, 67, 34
1, 117566, Control_c, 0, 67, 29
1, 117570, Note_off_c, 0, 72, 63
1, 117572, Note_off_c, 0, 79, 36
1, 117596, Note_off_c, 0, 55, 41
1, 117608, Note_on_c, 0, 71, 55
1, 117611, Control_c, 0, 67, 32
1, 117626, Control_c, 0, 67, 36
1, 117640, Control_c, 0, 67, 40
1, 117651, Note_off_c, 0, 71, 55
1, 117655, Control_c, 0, 67, 44
1, 117670, Control_c, 0, 67, 47
1, 117684, Note_off_c, 0, 62, 34
1, 117685, Control_c, 0, 64, 109
1, 117685, Control_c, 0, 67, 52
1, 117694, Note_on_c, 0, 79, 65
1, 117699, Control_c, 0, 64, 89
1, 117699, Control_c, 0, 67, 56
1, 117701, Note_on_c, 0, 60, 42
1, 117714, Control_c, 0, 64, 72
1, 117714, Control_c, 0, 67, 62
1, 117729, Control_c, 0, 64, 61
1, 117729, Control_c, 0, 67, 72
1, 117730, Note_on_c, 0, 72, 19
1, 117744, Control_c, 0, 64, 40
1, 117744, Control_c, 0, 67, 88
1, 117767, Control_c, 0, 64, 0
1, 117767, Control_c, 0, 67, 109
1, 117782, Control_c, 0, 67, 127
1, 117871, Control_c, 0, 64, 22
1, 117877, Note_off_c, 0, 72, 57
1, 117886, Control_c, 0, 64, 44
1, 117901, Control_c, 0, 64, 59
1, 117904, Note_on_c, 0, 74, 47
1, 117914, Note_off_c, 0, 60, 55
1, 117915, Control_c, 0, 64, 64
1, 117930, Control_c, 0, 64, 67
1, 117945, Control_c, 0, 64, 71
1, 117946, Note_on_c, 0, 63, 34
1, 117952, Note_off_c, 0, 74, 60
1, 117960, Control_c, 0, 64, 75
1, 117975, Control_c, 0, 64, 80
1, 117982, Note_on_c, 0, 72, 54
1, 117990, Control_c, 0, 64, 86
1, 118004, Control_c, 0, 64, 91
1, 118014, Note_off_c, 0, 72, 66
1, 118019, Control_c, 0, 64, 93
1, 118034, Control_c, 0, 64, 94
1, 118049, Control_c, 0, 64, 93
1, 118059, Note_on_c, 0, 74, 46
1, 118064, Control_c, 0, 64, 91
1, 118078, Control_c, 0, 64, 88
1, 118085, Note_off_c, 0, 74, 57
1, 118090, Note_on_c, 0, 60, 44
1, 118093, Control_c, 0, 64, 85
1, 118101, Note_off_c, 0, 63, 31
1, 118103, Note_on_c, 0, 72, 56
1, 118108, Control_c, 0, 64, 84
1, 118122, Control_c, 0, 64, 84
1, 118137, Control_c, 0, 64, 85
1, 118140, Note_off_c, 0, 72, 64
1, 118152, Control_c, 0, 64, 86
1, 118167, Control_c, 0, 64, 87
1, 118179, Note_on_c, 0, 74, 56
1, 118182, Note_off_c, 0, 79, 43
1, 118182, Control_c, 0, 64, 87
1, 118196, Control_c, 0, 64, 88
1, 118202, Note_off_c, 0, 74, 60
1, 118211, Control_c, 0, 64, 88
1, 118226, Control_c, 0, 64, 89
1, 118231, Note_on_c, 0, 72, 59
1, 118241, Control_c, 0, 64, 89
1, 118256, Note_off_c, 0, 72, 62
1, 118256, Control_c, 0, 64, 90
1, 118280, Note_on_c, 0, 74, 63
1, 118290, Note_off_c, 0, 60, 36
1, 118310, Note_on_c, 0, 63, 34
1, 118319, Note_off_c, 0, 74, 58
1, 118340, Note_on_c, 0, 72, 60
1, 118345, Control_c, 0, 64, 89
1, 118360, Control_c, 0, 64, 89
1, 118373, Note_off_c, 0, 72, 65
1, 118375, Control_c, 0, 64, 88
1, 118389, Control_c, 0, 64, 87
1, 118404, Control_c, 0, 64, 86
1, 118407, Note_on_c, 0, 74, 53
1, 118419, Control_c, 0, 64, 84
1, 118431, Note_off_c, 0, 74, 59
1, 118434, Control_c, 0, 64, 81
1, 118447, Note_off_c, 0, 63, 58
1, 118449, Control_c, 0, 64, 73
1, 118463, Control_c, 0, 64, 66
1, 118469, Note_on_c, 0, 72, 57
1, 118478, Control_c, 0, 64, 59
1, 118493, Control_c, 0, 64, 44
1, 118508, Control_c, 0, 64, 24
1, 118525, Note_off_c, 0, 72, 57
1, 118530, Control_c, 0, 64, 0
1, 118550, Note_on_c, 0, 55, 41
1, 118569, Note_on_c, 0, 71, 59
1, 118649, Control_c, 0, 64, 12
1, 118655, Note_off_c, 0, 71, 61
1, 118664, Control_c, 0, 64, 44
1, 118679, Control_c, 0, 64, 58
1, 118689, Note_on_c, 0, 72, 50
1, 118693, Control_c, 0, 64, 64
1, 118708, Control_c, 0, 64, 68
1, 118723, Control_c, 0, 64, 71
1, 118735, Note_off_c, 0, 72, 61
1, 118738, Control_c, 0, 64, 75
1, 118747, Note_off_c, 0, 55, 53
1, 118753, Control_c, 0, 64, 77
1, 118768, Control_c, 0, 64, 78
1, 118783, Control_c, 0, 64, 79
1, 118784, Note_on_c, 0, 71, 51
1, 118801, Note_on_c, 0, 62, 34
1, 118808, Note_off_c, 0, 71, 58
1, 118852, Note_on_c, 0, 72, 48
1, 118881, Note_off_c, 0, 72, 55
1, 118895, Note_on_c, 0, 71, 59
1, 118916, Control_c, 0, 64, 78
1, 118931, Control_c, 0, 64, 78
1, 118939, Note_off_c, 0, 71, 59
1, 118945, Control_c, 0, 64, 77
1, 118960, Control_c, 0, 64, 76
1, 118970, Note_on_c, 0, 72, 53
1, 118975, Control_c, 0, 64, 74
1, 118990, Control_c, 0, 64, 72
1, 119000, Note_off_c, 0, 72, 60
1, 119005, Control_c, 0, 64, 67
1, 119011, Note_off_c, 0, 62, 30
1, 119012, Note_on_c, 0, 55, 35
1, 119019, Control_c, 0, 64, 58
1, 119034, Control_c, 0, 64, 44
1, 119046, Note_on_c, 0, 71, 47
1, 119049, Control_c, 0, 64, 32
1, 119064, Control_c, 0, 64, 32
1, 119070, Note_off_c, 0, 71, 57
1, 119079, Control_c, 0, 64, 33
1, 119089, Note_on_c, 0, 72, 52
1, 119093, Control_c, 0, 64, 38
1, 119108, Control_c, 0, 64, 46
1, 119120, Note_off_c, 0, 72, 64
1, 119123, Control_c, 0, 64, 54
1, 119138, Control_c, 0, 64, 60
1, 119149, Note_on_c, 0, 71, 54
1, 119153, Control_c, 0, 64, 63
1, 119167, Control_c, 0, 64, 65
1, 119182, Control_c, 0, 64, 66
1, 119185, Note_off_c, 0, 71, 66
1, 119197, Control_c, 0, 64, 68
1, 119208, Note_on_c, 0, 72, 54
1, 119212, Control_c, 0, 64, 70
1, 119227, Control_c, 0, 64, 72
1, 119242, Control_c, 0, 64, 75
1, 119254, Note_off_c, 0, 72, 58
1, 119257, Control_c, 0, 64, 78
1, 119260, Note_off_c, 0, 55, 41
1, 119279, Control_c, 0, 64, 82
1, 119293, Control_c, 0, 64, 86
1, 119295, Note_on_c, 0, 71, 51
1, 119301, Note_on_c, 0, 62, 35
1, 119308, Control_c, 0, 64, 90
1, 119323, Control_c, 0, 64, 94
1, 119334, Note_off_c, 0, 71, 65
1, 119338, Control_c, 0, 64, 97
1, 119352, Control_c, 0, 64, 99
1, 119355, Note_off_c, 0, 62, 57
1, 119368, Control_c, 0, 64, 100
1, 119382, Note_on_c, 0, 72, 44
1, 119398, Control_c, 0, 64, 101
1, 119409, Note_off_c, 0, 72, 58
1, 119413, Control_c, 0, 64, 101
1, 119452, Note_on_c, 0, 71, 43
1, 119516, Control_c, 0, 64, 101
1, 119531, Control_c, 0, 64, 100
1, 119546, Control_c, 0, 64, 99
1, 119561, Control_c, 0, 64, 99
1, 119576, Control_c, 0, 64, 97
1, 119591, Control_c, 0, 64, 96
1, 119606, Control_c, 0, 64, 94
1, 119621, Control_c, 0, 64, 93
1, 119635, Control_c, 0, 64, 91
1, 119650, Control_c, 0, 64, 88
1, 119665, Control_c, 0, 64, 82
1, 119680, Control_c, 0, 64, 77
1, 119695, Control_c, 0, 64, 71
1, 119710, Control_c, 0, 64, 66
1, 119717, Note_on_c, 0, 72, 45
1, 119724, Control_c, 0, 64, 62
1, 119727, Note_on_c, 0, 48, 28
1, 119728, Note_off_c, 0, 71, 52
1, 119739, Control_c, 0, 64, 57
1, 119746, Note_on_c, 0, 60, 30
1, 119754, Control_c, 0, 64, 53
1, 119768, Control_c, 0, 64, 48
1, 119783, Control_c, 0, 64, 44
1, 119798, Control_c, 0, 64, 35
1, 119813, Control_c, 0, 64, 17
1, 119828, Control_c, 0, 64, 0
1, 119931, Control_c, 0, 64, 24
1, 119946, Control_c, 0, 64, 47
1, 119960, Control_c, 0, 64, 58
1, 119975, Control_c, 0, 64, 63
1, 119990, Control_c, 0, 64, 66
1, 120005, Control_c, 0, 64, 69
1, 120027, Note_off_c, 0, 60, 42
1, 120028, Control_c, 0, 64, 72
1, 120042, Control_c, 0, 64, 77
1, 120057, Control_c, 0, 64, 82
1, 120072, Control_c, 0, 64, 87
1, 120087, Control_c, 0, 64, 93
1, 120096, Note_off_c, 0, 72, 55
1, 120101, Control_c, 0, 64, 99
1, 120116, Control_c, 0, 64, 106
1, 120130, Note_off_c, 0, 48, 38
1, 120131, Control_c, 0, 64, 112
1, 120131, Control_c, 0, 67, 124
1, 120146, Control_c, 0, 64, 115
1, 120146, Control_c, 0, 67, 118
1, 120161, Control_c, 0, 64, 116
1, 120161, Control_c, 0, 67, 113
1, 120177, Control_c, 0, 64, 119
1, 120177, Control_c, 0, 67, 109
1, 120191, Control_c, 0, 64, 127
1, 120191, Control_c, 0, 67, 106
1, 120206, Control_c, 0, 67, 102
1, 120221, Control_c, 0, 67, 95
1, 120236, Control_c, 0, 67, 73
1, 120251, Control_c, 0, 67, 34
1, 120265, Control_c, 0, 67, 0
1, 120295, Control_c, 0, 64, 117
1, 120310, Control_c, 0, 64, 82
1, 120325, Control_c, 0, 64, 61
1, 120339, Control_c, 0, 64, 0
1, 120458, Note_on_c, 0, 36, 76
1, 120458, Control_c, 0, 64, 37
1, 120473, Control_c, 0, 64, 62
1, 120488, Control_c, 0, 64, 69
1, 120489, Note_on_c, 0, 31, 64
1, 120503, Control_c, 0, 64, 79
1, 120518, Control_c, 0, 64, 82
1, 120525, Note_off_c, 0, 36, 61
1, 120532, Control_c, 0, 64, 79
1, 120547, Control_c, 0, 64, 75
1, 120562, Control_c, 0, 64, 70
1, 120577, Control_c, 0, 64, 64
1, 120583, Note_on_c, 0, 33, 70
1, 120591, Control_c, 0, 64, 52
1, 120606, Control_c, 0, 64, 25
1, 120621, Control_c, 0, 64, 0
1, 120640, Note_on_c, 0, 35, 69
1, 120660, Note_off_c, 0, 31, 57
1, 120690, Note_off_c, 0, 33, 63
1, 120703, Note_on_c, 0, 36, 72
1, 120714, Note_on_c, 0, 79, 97
1, 120720, Note_on_c, 0, 67, 87
1, 120728, Note_off_c, 0, 35, 60
1, 120775, Note_on_c, 0, 31, 74
1, 120782, Note_off_c, 0, 36, 61
1, 120841, Note_on_c, 0, 33, 62
1, 120908, Note_off_c, 0, 31, 63
1, 120909, Note_on_c, 0, 35, 71
1, 120941, Note_off_c, 0, 33, 63
1, 120962, Note_on_c, 0, 36, 67
1, 120979, Note_off_c, 0, 35, 61
1, 121010, Note_on_c, 0, 31, 79
1, 121010, Note_off_c, 0, 79, 57
1, 121025, Note_off_c, 0, 36, 63
1, 121052, Note_off_c, 0, 67, 61
1, 121069, Note_on_c, 0, 33, 70
1, 121140, Note_off_c, 0, 31, 62
1, 121141, Note_on_c, 0, 35, 71
1, 121184, Note_off_c, 0, 33, 62
1, 121196, Note_on_c, 0, 36, 72
1, 121209, Note_on_c, 0, 77, 92
1, 121213, Note_on_c, 0, 65, 88
1, 121220, Note_off_c, 0, 35, 61
1, 121236, Note_off_c, 0, 65, 67
1, 121237, Note_off_c, 0, 77, 65
1, 121254, Note_on_c, 0, 31, 72
1, 121257, Note_off_c, 0, 36, 64
1, 121310, Note_on_c, 0, 33, 69
1, 121377, Note_on_c, 0, 35, 69
1, 121379, Note_off_c, 0, 31, 62
1, 121415, Note_off_c, 0, 33, 62
1, 121439, Note_on_c, 0, 36, 68
1, 121448, Note_on_c, 0, 75, 96
1, 121451, Note_on_c, 0, 63, 91
1, 121463, Note_off_c, 0, 35, 60
1, 121475, Note_off_c, 0, 63, 67
1, 121477, Note_off_c, 0, 75, 63
1, 121488, Note_on_c, 0, 31, 71
1, 121495, Note_off_c, 0, 36, 61
1, 121543, Note_on_c, 0, 33, 72
1, 121588, Note_off_c, 0, 31, 63
1, 121624, Note_on_c, 0, 35, 68
1, 121643, Note_off_c, 0, 33, 63
1, 121686, Note_off_c, 0, 35, 61
1, 121689, Note_on_c, 0, 36, 68
1, 121713, Note_on_c, 0, 72, 95
1, 121715, Note_on_c, 0, 60, 88
1, 121739, Note_off_c, 0, 60, 66
1, 121754, Note_off_c, 0, 72, 65
1, 121756, Note_off_c, 0, 36, 53
1, 121769, Note_on_c, 0, 38, 70
1, 121805, Note_on_c, 0, 39, 72
1, 121846, Note_off_c, 0, 38, 61
1, 121878, Note_on_c, 0, 42, 76
1, 121914, Note_off_c, 0, 39, 61
1, 121945, Note_on_c, 0, 43, 80
1, 121955, Note_on_c, 0, 71, 93
1, 121956, Note_on_c, 0, 59, 87
1, 121972, Note_off_c, 0, 42, 62
1, 121975, Note_off_c, 0, 59, 72
1, 121990, Note_off_c, 0, 71, 63
1, 121991, Note_on_c, 0, 38, 67
1, 122000, Note_off_c, 0, 43, 62
1, 122061, Note_on_c, 0, 40, 76
1, 122124, Note_on_c, 0, 42, 79
1, 122129, Note_off_c, 0, 38, 62
1, 122173, Note_off_c, 0, 40, 57
1, 122188, Note_on_c, 0, 43, 82
1, 122206, Note_on_c, 0, 86, 102
1, 122208, Note_on_c, 0, 74, 99
1, 122224, Note_off_c, 0, 42, 62
1, 122245, Note_on_c, 0, 38, 75
1, 122262, Note_off_c, 0, 43, 62
1, 122318, Note_on_c, 0, 40, 74
1, 122381, Note_on_c, 0, 42, 69
1, 122385, Note_off_c, 0, 38, 61
1, 122423, Control_c, 0, 64, 27
1, 122437, Control_c, 0, 64, 46
1, 122443, Note_off_c, 0, 40, 47
1, 122447, Note_on_c, 0, 43, 80
1, 122452, Control_c, 0, 64, 53
1, 122467, Control_c, 0, 64, 54
1, 122473, Note_off_c, 0, 42, 63
1, 122482, Control_c, 0, 64, 54
1, 122497, Control_c, 0, 64, 53
1, 122508, Note_on_c, 0, 38, 73
1, 122512, Control_c, 0, 64, 52
1, 122512, Note_off_c, 0, 43, 63
1, 122512, Note_off_c, 0, 86, 58
1, 122573, Note_on_c, 0, 40, 71
1, 122576, Note_off_c, 0, 74, 61
1, 122616, Control_c, 0, 64, 52
1, 122631, Control_c, 0, 64, 50
1, 122640, Note_on_c, 0, 42, 69
1, 122646, Control_c, 0, 64, 38
1, 122655, Note_off_c, 0, 38, 60
1, 122660, Control_c, 0, 64, 0
1, 122710, Note_on_c, 0, 43, 76
1, 122712, Note_off_c, 0, 40, 58
1, 122713, Note_on_c, 0, 84, 94
1, 122715, Note_on_c, 0, 72, 88
1, 122733, Note_off_c, 0, 42, 63
1, 122744, Note_off_c, 0, 72, 67
1, 122744, Note_off_c, 0, 84, 69
1, 122769, Note_on_c, 0, 38, 73
1, 122772, Note_off_c, 0, 43, 63
1, 122831, Note_on_c, 0, 40, 67
1, 122897, Note_off_c, 0, 38, 60
1, 122898, Note_on_c, 0, 42, 72
1, 122950, Note_off_c, 0, 40, 57
1, 122963, Note_on_c, 0, 43, 67
1, 122963, Note_on_c, 0, 71, 89
1, 122966, Note_on_c, 0, 83, 90
1, 122988, Note_off_c, 0, 42, 63
1, 123000, Note_off_c, 0, 83, 66
1, 123004, Note_off_c, 0, 71, 64
1, 123013, Note_on_c, 0, 38, 70
1, 123027, Note_off_c, 0, 43, 60
1, 123071, Note_on_c, 0, 40, 71
1, 123107, Note_off_c, 0, 38, 62
1, 123134, Note_on_c, 0, 42, 72
1, 123165, Note_off_c, 0, 40, 63
1, 123198, Note_on_c, 0, 43, 66
1, 123200, Note_off_c, 0, 42, 64
1, 123214, Note_on_c, 0, 79, 89
1, 123216, Note_on_c, 0, 67, 83
1, 123247, Note_off_c, 0, 67, 65
1, 123249, Note_off_c, 0, 43, 60
1, 123265, Note_on_c, 0, 45, 73
1, 123265, Note_off_c, 0, 79, 64
1, 123323, Note_on_c, 0, 47, 67
1, 123340, Note_off_c, 0, 45, 58
1, 123368, Note_on_c, 0, 43, 75
1, 123386, Note_off_c, 0, 47, 61
1, 123457, Note_on_c, 0, 48, 81
1, 123457, Note_off_c, 0, 43, 63
1, 123517, Note_on_c, 0, 43, 74
1, 123517, Note_off_c, 0, 48, 62
1, 123588, Note_on_c, 0, 45, 73
1, 123636, Note_off_c, 0, 43, 61
1, 123655, Note_on_c, 0, 47, 68
1, 123685, Note_off_c, 0, 45, 63
1, 123697, Note_on_c, 0, 85, 102
1, 123698, Note_on_c, 0, 48, 79
1, 123698, Note_on_c, 0, 73, 103
1, 123720, Note_off_c, 0, 47, 63
1, 123754, Note_on_c, 0, 43, 79
1, 123769, Note_off_c, 0, 48, 62
1, 123825, Note_on_c, 0, 45, 75
1, 123892, Note_off_c, 0, 43, 62
1, 123898, Note_on_c, 0, 47, 72
1, 123932, Note_off_c, 0, 45, 63
1, 123960, Note_on_c, 0, 48, 79
1, 123980, Note_off_c, 0, 47, 63
1, 124018, Note_on_c, 0, 43, 78
1, 124024, Note_off_c, 0, 48, 64
1, 124025, Note_off_c, 0, 85, 64
1, 124062, Note_off_c, 0, 73, 57
1, 124095, Note_on_c, 0, 45, 67
1, 124140, Note_off_c, 0, 43, 60
1, 124151, Note_on_c, 0, 47, 36
1, 124200, Note_off_c, 0, 45, 63
1, 124230, Note_on_c, 0, 48, 73
1, 124233, Note_on_c, 0, 72, 88
1, 124236, Note_on_c, 0, 84, 91
1, 124252, Note_off_c, 0, 47, 62
1, 124264, Note_off_c, 0, 72, 65
1, 124271, Note_off_c, 0, 84, 67
1, 124280, Note_off_c, 0, 48, 61
1, 124282, Note_on_c, 0, 43, 75
1, 124340, Note_on_c, 0, 45, 71
1, 124399, Note_off_c, 0, 43, 62
1, 124406, Note_on_c, 0, 47, 70
1, 124447, Note_off_c, 0, 45, 57
1, 124470, Note_on_c, 0, 48, 70
1, 124476, Note_on_c, 0, 70, 93
1, 124476, Note_on_c, 0, 82, 89
1, 124488, Note_off_c, 0, 47, 61
1, 124497, Note_off_c, 0, 82, 71
1, 124530, Note_on_c, 0, 43, 73
1, 124533, Note_off_c, 0, 70, 63
1, 124539, Note_off_c, 0, 48, 62
1, 124585, Note_on_c, 0, 45, 73
1, 124628, Note_off_c, 0, 43, 62
1, 124649, Note_on_c, 0, 47, 72
1, 124672, Note_off_c, 0, 45, 63
1, 124714, Note_on_c, 0, 48, 72
1, 124714, Note_off_c, 0, 47, 64
1, 124731, Note_on_c, 0, 60, 84
1, 124732, Note_on_c, 0, 67, 77
1, 124733, Note_on_c, 0, 72, 84
1, 124753, Note_off_c, 0, 60, 70
1, 124757, Note_off_c, 0, 67, 69
1, 124774, Note_off_c, 0, 48, 60
1, 124784, Note_off_c, 0, 72, 65
1, 124787, Note_on_c, 0, 50, 80
1, 124842, Note_on_c, 0, 52, 65
1, 124862, Note_off_c, 0, 50, 55
1, 124893, Note_on_c, 0, 48, 76
1, 124896, Note_off_c, 0, 52, 65
1, 124971, Note_off_c, 0, 48, 63
1, 124973, Note_on_c, 0, 53, 83
1, 125028, Note_on_c, 0, 48, 69
1, 125032, Note_off_c, 0, 53, 62
1, 125104, Note_on_c, 0, 50, 71
1, 125149, Note_off_c, 0, 48, 62
1, 125165, Note_on_c, 0, 52, 69
1, 125190, Note_off_c, 0, 50, 63
1, 125204, Note_on_c, 0, 84, 102
1, 125208, Note_on_c, 0, 53, 74
1, 125208, Note_on_c, 0, 72, 90
1, 125225, Note_off_c, 0, 52, 64
1, 125274, Note_on_c, 0, 48, 75
1, 125274, Note_off_c, 0, 53, 63
1, 125335, Note_on_c, 0, 50, 73
1, 125390, Note_off_c, 0, 48, 61
1, 125407, Note_on_c, 0, 52, 69
1, 125463, Note_off_c, 0, 50, 60
1, 125466, Note_on_c, 0, 53, 78
1, 125479, Note_off_c, 0, 52, 65
1, 125523, Note_on_c, 0, 48, 71
1, 125524, Note_off_c, 0, 72, 62
1, 125529, Note_off_c, 0, 53, 63
1, 125591, Note_on_c, 0, 50, 71
1, 125627, Note_off_c, 0, 48, 62
1, 125647, Note_off_c, 0, 84, 54
1, 125664, Note_on_c, 0, 52, 72
1, 125693, Note_off_c, 0, 50, 62
1, 125711, Note_on_c, 0, 82, 84
1, 125712, Note_on_c, 0, 70, 85
1, 125723, Note_on_c, 0, 53, 77
1, 125734, Note_off_c, 0, 52, 63
1, 125749, Note_off_c, 0, 70, 63
1, 125750, Note_off_c, 0, 82, 66
1, 125782, Note_on_c, 0, 48, 73
1, 125782, Note_off_c, 0, 53, 62
1, 125844, Note_on_c, 0, 50, 71
1, 125886, Note_off_c, 0, 48, 62
1, 125911, Note_on_c, 0, 52, 72
1, 125946, Note_off_c, 0, 50, 62
1, 125958, Note_on_c, 0, 81, 87
1, 125959, Note_on_c, 0, 69, 88
1, 125969, Note_on_c, 0, 53, 73
1, 125984, Note_off_c, 0, 52, 64
1, 126001, Note_off_c, 0, 69, 64
1, 126005, Note_off_c, 0, 81, 67
1, 126029, Note_on_c, 0, 48, 68
1, 126038, Note_off_c, 0, 53, 62
1, 126080, Note_on_c, 0, 50, 68
1, 126115, Note_off_c, 0, 48, 63
1, 126148, Note_on_c, 0, 52, 71
1, 126174, Note_off_c, 0, 50, 65
1, 126203, Note_on_c, 0, 65, 82
1, 126203, Note_on_c, 0, 77, 92
1, 126210, Note_off_c, 0, 52, 66
1, 126213, Note_on_c, 0, 53, 74
1, 126240, Note_off_c, 0, 65, 62
1, 126260, Note_off_c, 0, 77, 63
1, 126270, Note_off_c, 0, 53, 58
1, 126290, Note_on_c, 0, 55, 70
1, 126349, Note_on_c, 0, 57, 59
1, 126363, Note_off_c, 0, 55, 59
1, 126380, Note_off_c, 0, 57, 66
1, 126391, Note_on_c, 0, 53, 43
1, 126420, Note_off_c, 0, 53, 56
1, 126432, Note_on_c, 0, 57, 81
1, 126489, Note_off_c, 0, 57, 65
1, 126521, Note_on_c, 0, 53, 46
1, 126554, Note_on_c, 0, 54, 12
1, 126579, Note_on_c, 0, 57, 78
1, 126588, Note_off_c, 0, 54, 54
1, 126594, Note_off_c, 0, 53, 61
1, 126647, Note_on_c, 0, 59, 60
1, 126667, Note_on_c, 0, 60, 81
1, 126673, Note_on_c, 0, 87, 103
1, 126674, Note_on_c, 0, 75, 109
1, 126680, Note_off_c, 0, 57, 60
1, 126693, Note_off_c, 0, 59, 60
1, 126737, Note_on_c, 0, 54, 72
1, 126745, Note_off_c, 0, 60, 64
1, 126812, Note_on_c, 0, 57, 71
1, 126840, Control_c, 0, 64, 19
1, 126855, Control_c, 0, 64, 24
1, 126858, Note_off_c, 0, 54, 64
1, 126870, Control_c, 0, 64, 27
1, 126880, Note_on_c, 0, 59, 71
1, 126885, Control_c, 0, 64, 30
1, 126900, Control_c, 0, 64, 31
1, 126915, Control_c, 0, 64, 32
1, 126920, Note_off_c, 0, 57, 61
1, 126924, Note_on_c, 0, 60, 84
1, 126930, Control_c, 0, 64, 33
1, 126945, Control_c, 0, 64, 33
1, 126946, Note_off_c, 0, 59, 64
1, 126977, Note_on_c, 0, 54, 77
1, 126982, Note_off_c, 0, 87, 61
1, 126989, Note_off_c, 0, 60, 63
1, 127017, Note_off_c, 0, 75, 60
1, 127040, Note_on_c, 0, 57, 72
1, 127092, Note_off_c, 0, 54, 63
1, 127098, Note_on_c, 0, 59, 69
1, 127159, Note_on_c, 0, 74, 92
1, 127159, Note_on_c, 0, 86, 91
1, 127162, Note_on_c, 0, 60, 79
1, 127165, Note_off_c, 0, 57, 58
1, 127183, Note_off_c, 0, 59, 64
1, 127200, Note_off_c, 0, 74, 64
1, 127202, Note_off_c, 0, 86, 67
1, 127218, Note_on_c, 0, 54, 80
1, 127237, Note_off_c, 0, 60, 58
1, 127275, Note_on_c, 0, 57, 73
1, 127329, Note_off_c, 0, 54, 62
1, 127335, Note_on_c, 0, 59, 71
1, 127395, Note_off_c, 0, 57, 60
1, 127398, Note_on_c, 0, 72, 91
1, 127398, Note_on_c, 0, 84, 95
1, 127405, Note_on_c, 0, 60, 77
1, 127421, Note_off_c, 0, 59, 63
1, 127437, Note_off_c, 0, 84, 66
1, 127439, Note_off_c, 0, 72, 64
1, 127460, Note_on_c, 0, 54, 74
1, 127485, Note_off_c, 0, 60, 56
1, 127526, Note_on_c, 0, 57, 70
1, 127577, Note_on_c, 0, 59, 66
1, 127579, Note_off_c, 0, 54, 64
1, 127632, Note_on_c, 0, 81, 92
1, 127633, Note_on_c, 0, 69, 89
1, 127639, Note_off_c, 0, 57, 60
1, 127648, Note_on_c, 0, 60, 72
1, 127663, Note_off_c, 0, 59, 64
1, 127665, Note_off_c, 0, 69, 65
1, 127679, Note_off_c, 0, 81, 66
1, 127691, Note_on_c, 0, 54, 84
1, 127708, Control_c, 0, 64, 33
1, 127709, Note_off_c, 0, 60, 62
1, 127746, Note_on_c, 0, 57, 74
1, 127788, Note_off_c, 0, 54, 61
1, 127809, Note_on_c, 0, 60, 78
1, 127831, Note_off_c, 0, 57, 64
1, 127867, Note_off_c, 0, 60, 65
1, 127875, Note_on_c, 0, 62, 71
1, 127916, Control_c, 0, 64, 32
1, 127927, Note_on_c, 0, 59, 76
1, 127946, Note_off_c, 0, 62, 61
1, 127976, Note_on_c, 0, 62, 55
1, 128031, Note_off_c, 0, 59, 63
1, 128041, Note_on_c, 0, 63, 73
1, 128065, Note_off_c, 0, 62, 64
1, 128093, Note_on_c, 0, 65, 80
1, 128093, Control_c, 0, 64, 32
1, 128098, Note_off_c, 0, 63, 64
1, 128100, Note_on_c, 0, 92, 108
1, 128101, Note_on_c, 0, 80, 112
1, 128108, Control_c, 0, 64, 31
1, 128123, Control_c, 0, 64, 29
1, 128137, Control_c, 0, 64, 24
1, 128153, Control_c, 0, 64, 14
1, 128156, Note_on_c, 0, 62, 79
1, 128168, Control_c, 0, 64, 0
1, 128171, Note_off_c, 0, 65, 61
1, 128219, Note_on_c, 0, 65, 69
1, 128242, Note_off_c, 0, 62, 65
1, 128302, Note_on_c, 0, 67, 73
1, 128304, Note_off_c, 0, 65, 63
1, 128352, Control_c, 0, 64, 30
1, 128365, Note_on_c, 0, 68, 78
1, 128367, Control_c, 0, 64, 42
1, 128382, Control_c, 0, 64, 46
1, 128392, Note_off_c, 0, 67, 58
1, 128397, Control_c, 0, 64, 46
1, 128412, Note_on_c, 0, 62, 74
1, 128432, Note_off_c, 0, 68, 55
1, 128434, Note_off_c, 0, 92, 63
1, 128468, Note_off_c, 0, 80, 61
1, 128486, Note_on_c, 0, 65, 77
1, 128526, Note_off_c, 0, 62, 63
1, 128546, Note_on_c, 0, 67, 59
1, 128581, Note_off_c, 0, 65, 63
1, 128590, Note_on_c, 0, 68, 86
1, 128594, Note_on_c, 0, 91, 92
1, 128596, Note_on_c, 0, 79, 89
1, 128616, Note_off_c, 0, 67, 62
1, 128634, Control_c, 0, 64, 46
1, 128635, Note_off_c, 0, 79, 66
1, 128637, Note_off_c, 0, 91, 67
1, 128653, Note_on_c, 0, 62, 73
1, 128654, Note_off_c, 0, 68, 55
1, 128664, Control_c, 0, 64, 45
1, 128709, Note_on_c, 0, 65, 69
1, 128755, Note_off_c, 0, 62, 60
1, 128787, Note_on_c, 0, 67, 72
1, 128811, Control_c, 0, 64, 45
1, 128822, Note_off_c, 0, 65, 63
1, 128836, Note_on_c, 0, 68, 76
1, 128841, Note_on_c, 0, 89, 97
1, 128842, Note_on_c, 0, 77, 94
1, 128864, Note_off_c, 0, 67, 62
1, 128875, Note_off_c, 0, 77, 64
1, 128876, Note_off_c, 0, 89, 65
1, 128885, Control_c, 0, 64, 44
1, 128898, Note_on_c, 0, 62, 75
1, 128936, Note_off_c, 0, 68, 56
1, 128966, Note_on_c, 0, 65, 70
1, 129022, Note_off_c, 0, 62, 58
1, 129046, Note_on_c, 0, 67, 68
1, 129090, Note_off_c, 0, 65, 62
1, 129091, Note_on_c, 0, 86, 100
1, 129092, Note_on_c, 0, 74, 93
1, 129093, Note_on_c, 0, 68, 84
1, 129125, Note_off_c, 0, 67, 63
1, 129128, Note_off_c, 0, 74, 65
1, 129130, Note_off_c, 0, 86, 67
1, 129138, Note_off_c, 0, 68, 61
1, 129148, Note_on_c, 0, 62, 61
1, 129196, Note_on_c, 0, 65, 71
1, 129235, Note_off_c, 0, 62, 64
1, 129252, Note_off_c, 0, 65, 63
1, 129266, Note_on_c, 0, 67, 70
1, 129329, Note_off_c, 0, 67, 59
1, 129335, Note_on_c, 0, 68, 80
1, 129360, Note_off_c, 0, 68, 63
1, 129403, Note_on_c, 0, 67, 71
1, 129449, Note_off_c, 0, 67, 61
1, 129466, Note_on_c, 0, 65, 76
1, 129501, Control_c, 0, 64, 44
1, 129530, Note_on_c, 0, 63, 69
1, 129536, Note_off_c, 0, 65, 62
1, 129561, Control_c, 0, 64, 43
1, 129575, Control_c, 0, 64, 38
1, 129583, Note_on_c, 0, 62, 73
1, 129589, Note_off_c, 0, 63, 63
1, 129590, Control_c, 0, 64, 28
1, 129592, Note_on_c, 0, 71, 98
1, 129592, Note_on_c, 0, 83, 100
1, 129605, Control_c, 0, 64, 12
1, 129619, Control_c, 0, 64, 0
1, 129641, Note_on_c, 0, 63, 70
1, 129660, Note_off_c, 0, 62, 62
1, 129664, Control_c, 0, 64, 11
1, 129679, Control_c, 0, 64, 18
1, 129693, Control_c, 0, 64, 22
1, 129708, Control_c, 0, 64, 24
1, 129723, Control_c, 0, 64, 25
1, 129724, Note_on_c, 0, 65, 73
1, 129729, Note_off_c, 0, 63, 63
1, 129747, Control_c, 0, 64, 25
1, 129762, Control_c, 0, 64, 26
1, 129776, Control_c, 0, 64, 26
1, 129782, Note_off_c, 0, 65, 62
1, 129790, Note_on_c, 0, 67, 73
1, 129791, Control_c, 0, 64, 27
1, 129821, Note_off_c, 0, 71, 61
1, 129857, Note_off_c, 0, 83, 63
1, 129860, Note_on_c, 0, 65, 80
1, 129863, Note_off_c, 0, 67, 62
1, 129881, Control_c, 0, 64, 27
1, 129902, Note_on_c, 0, 63, 76
1, 129911, Note_off_c, 0, 65, 59
1, 129965, Note_on_c, 0, 62, 78
1, 129967, Note_off_c, 0, 63, 64
1, 130000, Control_c, 0, 64, 28
1, 130034, Note_off_c, 0, 62, 64
1, 130045, Note_on_c, 0, 60, 72
1, 130088, Control_c, 0, 64, 24
1, 130103, Control_c, 0, 64, 0
1, 130110, Note_off_c, 0, 60, 65
1, 130110, Note_on_c, 0, 59, 80
1, 130128, Note_on_c, 0, 86, 101
1, 130131, Note_on_c, 0, 74, 97
1, 130181, Note_on_c, 0, 60, 82
1, 130183, Note_off_c, 0, 59, 64
1, 130192, Control_c, 0, 64, 11
1, 130206, Control_c, 0, 64, 46
1, 130221, Control_c, 0, 64, 58
1, 130236, Control_c, 0, 64, 62
1, 130242, Note_off_c, 0, 60, 64
1, 130250, Control_c, 0, 64, 64
1, 130265, Note_on_c, 0, 62, 78
1, 130265, Control_c, 0, 64, 64
1, 130310, Control_c, 0, 64, 64
1, 130316, Note_off_c, 0, 86, 61
1, 130325, Note_on_c, 0, 63, 80
1, 130328, Note_off_c, 0, 62, 65
1, 130340, Control_c, 0, 64, 63
1, 130355, Control_c, 0, 64, 62
1, 130355, Note_off_c, 0, 74, 61
1, 130369, Control_c, 0, 64, 61
1, 130384, Control_c, 0, 64, 58
1, 130386, Note_off_c, 0, 63, 62
1, 130399, Control_c, 0, 64, 54
1, 130408, Note_on_c, 0, 62, 78
1, 130414, Control_c, 0, 64, 50
1, 130429, Control_c, 0, 64, 47
1, 130443, Control_c, 0, 64, 46
1, 130447, Note_off_c, 0, 62, 60
1, 130466, Note_on_c, 0, 60, 80
1, 130538, Note_off_c, 0, 60, 64
1, 130540, Note_on_c, 0, 59, 75
1, 130594, Note_off_c, 0, 59, 64
1, 130597, Note_on_c, 0, 56, 72
1, 130615, Control_c, 0, 64, 47
1, 130642, Note_off_c, 0, 56, 62
1, 130644, Control_c, 0, 64, 46
1, 130653, Note_on_c, 0, 59, 97
1, 130655, Note_on_c, 0, 55, 77
1, 130656, Note_on_c, 0, 62, 90
1, 130658, Note_on_c, 0, 71, 91
1, 130659, Control_c, 0, 64, 43
1, 130669, Note_on_c, 0, 67, 69
1, 130674, Control_c, 0, 64, 38
1, 130683, Note_off_c, 0, 62, 66
1, 130689, Control_c, 0, 64, 30
1, 130689, Note_off_c, 0, 59, 65
1, 130695, Note_off_c, 0, 67, 68
1, 130704, Control_c, 0, 64, 14
1, 130716, Note_off_c, 0, 55, 63
1, 130718, Note_off_c, 0, 71, 62
1, 130718, Control_c, 0, 64, 0
1, 130721, Note_on_c, 0, 53, 79
1, 130788, Note_on_c, 0, 51, 82
1, 130792, Note_off_c, 0, 53, 64
1, 130837, Control_c, 0, 64, 12
1, 130846, Note_on_c, 0, 50, 61
1, 130852, Control_c, 0, 64, 43
1, 130867, Control_c, 0, 64, 57
1, 130877, Note_off_c, 0, 51, 63
1, 130881, Control_c, 0, 64, 62
1, 130895, Note_on_c, 0, 48, 84
1, 130896, Control_c, 0, 64, 62
1, 130911, Control_c, 0, 64, 61
1, 130912, Note_off_c, 0, 50, 63
1, 130915, Note_on_c, 0, 60, 101
1, 130918, Note_on_c, 0, 63, 92
1, 130919, Note_on_c, 0, 67, 81
1, 130921, Note_on_c, 0, 72, 85
1, 130926, Control_c, 0, 64, 59
1, 130941, Control_c, 0, 64, 54
1, 130955, Control_c, 0, 64, 48
1, 130968, Note_on_c, 0, 51, 83
1, 130970, Control_c, 0, 64, 41
1, 130985, Control_c, 0, 64, 38
1, 131003, Note_off_c, 0, 48, 61
1, 131042, Note_on_c, 0, 55, 79
1, 131046, Note_off_c, 0, 51, 64
1, 131059, Control_c, 0, 64, 38
1, 131073, Control_c, 0, 64, 37
1, 131088, Control_c, 0, 64, 36
1, 131103, Note_off_c, 0, 72, 60
1, 131103, Control_c, 0, 64, 36
1, 131110, Note_on_c, 0, 53, 81
1, 131117, Note_off_c, 0, 55, 64
1, 131118, Control_c, 0, 64, 35
1, 131126, Note_off_c, 0, 67, 62
1, 131133, Control_c, 0, 64, 34
1, 131148, Note_off_c, 0, 63, 61
1, 131148, Control_c, 0, 64, 34
1, 131157, Note_off_c, 0, 60, 63
1, 131168, Note_on_c, 0, 51, 82
1, 131177, Note_off_c, 0, 53, 60
1, 131192, Control_c, 0, 64, 33
1, 131237, Note_on_c, 0, 50, 80
1, 131240, Note_off_c, 0, 51, 65
1, 131259, Control_c, 0, 64, 34
1, 131288, Control_c, 0, 64, 34
1, 131303, Control_c, 0, 64, 35
1, 131307, Note_off_c, 0, 50, 64
1, 131316, Note_on_c, 0, 48, 71
1, 131370, Note_on_c, 0, 47, 78
1, 131374, Note_off_c, 0, 48, 64
1, 131437, Note_on_c, 0, 48, 77
1, 131447, Note_off_c, 0, 47, 64
1, 131482, Control_c, 0, 64, 34
1, 131487, Note_off_c, 0, 48, 66
1, 131488, Note_on_c, 0, 50, 74
1, 131496, Control_c, 0, 64, 34
1, 131525, Note_off_c, 0, 50, 65
1, 131560, Note_on_c, 0, 51, 76
1, 131622, Note_on_c, 0, 50, 81
1, 131622, Note_off_c, 0, 51, 65
1, 131663, Note_off_c, 0, 50, 62
1, 131689, Note_on_c, 0, 48, 69
1, 131747, Note_on_c, 0, 46, 79
1, 131755, Note_off_c, 0, 48, 61
1, 131826, Note_on_c, 0, 45, 55
1, 131840, Note_off_c, 0, 46, 62
1, 131860, Note_off_c, 0, 45, 64
1, 131867, Note_on_c, 0, 43, 76
1, 131933, Note_on_c, 0, 44, 91
1, 131944, Note_off_c, 0, 43, 64
1, 131958, Note_off_c, 0, 44, 69
1, 132006, Note_on_c, 0, 43, 68
1, 132078, Note_on_c, 0, 41, 76
1, 132078, Note_off_c, 0, 43, 63
1, 132146, Note_on_c, 0, 39, 64
1, 132149, Note_off_c, 0, 41, 64
1, 132187, Control_c, 0, 64, 33
1, 132192, Note_on_c, 0, 38, 71
1, 132223, Note_off_c, 0, 39, 0
1, 132231, Control_c, 0, 64, 33
1, 132245, Control_c, 0, 64, 32
1, 132260, Poly_aftertouch_c, 0, 39, 127
1, 132260, Control_c, 0, 64, 31
1, 132274, Note_off_c, 0, 38, 61
1, 132275, Control_c, 0, 64, 28
1, 132290, Control_c, 0, 64, 17
1, 132305, Control_c, 0, 64, 0
1, 132309, Note_on_c, 0, 41, 78
1, 132329, Poly_aftertouch_c, 0, 39, 0
1, 132374, Note_on_c, 0, 43, 70
1, 132420, Note_on_c, 0, 60, 89
1, 132424, Note_on_c, 0, 36, 91
1, 132433, Note_off_c, 0, 41, 64
1, 132442, Note_off_c, 0, 43, 64
1, 132464, Note_off_c, 0, 36, 61
1, 132504, Note_on_c, 0, 55, 72
1, 132513, Note_off_c, 0, 60, 51
1, 132561, Note_off_c, 0, 55, 63
1, 132563, Note_on_c, 0, 57, 69
1, 132620, Note_on_c, 0, 59, 79
1, 132630, Note_off_c, 0, 57, 62
1, 132692, Note_on_c, 0, 60, 83
1, 132698, Note_on_c, 0, 43, 99
1, 132700, Note_off_c, 0, 59, 64
1, 132763, Note_on_c, 0, 55, 75
1, 132775, Note_off_c, 0, 60, 61
1, 132835, Note_on_c, 0, 57, 64
1, 132837, Note_off_c, 0, 55, 63
1, 132892, Note_on_c, 0, 59, 78
1, 132903, Note_off_c, 0, 57, 62
1, 132933, Control_c, 0, 64, 36
1, 132949, Control_c, 0, 64, 59
1, 132964, Control_c, 0, 64, 69
1, 132966, Note_on_c, 0, 60, 86
1, 132971, Note_off_c, 0, 59, 65
1, 132979, Control_c, 0, 64, 92
1, 132994, Control_c, 0, 64, 127
1, 133024, Note_on_c, 0, 55, 76
1, 133030, Note_off_c, 0, 60, 61
1, 133092, Note_off_c, 0, 55, 63
1, 133100, Note_on_c, 0, 57, 71
1, 133142, Control_c, 0, 64, 102
1, 133153, Note_on_c, 0, 59, 77
1, 133157, Control_c, 0, 64, 77
1, 133160, Note_off_c, 0, 57, 63
1, 133172, Control_c, 0, 64, 55
1, 133187, Control_c, 0, 64, 0
1, 133201, Note_on_c, 0, 41, 83
1, 133212, Note_off_c, 0, 43, 65
1, 133214, Note_on_c, 0, 60, 86
1, 133227, Note_off_c, 0, 59, 65
1, 133247, Note_off_c, 0, 41, 64
1, 133274, Note_on_c, 0, 55, 80
1, 133285, Note_off_c, 0, 60, 58
1, 133341, Note_off_c, 0, 55, 63
1, 133352, Note_on_c, 0, 57, 65
1, 133399, Note_off_c, 0, 57, 60
1, 133404, Note_on_c, 0, 59, 66
1, 133450, Note_on_c, 0, 60, 78
1, 133452, Note_on_c, 0, 39, 79
1, 133458, Note_off_c, 0, 59, 64
1, 133504, Note_off_c, 0, 39, 64
1, 133510, Note_on_c, 0, 55, 75
1, 133519, Note_off_c, 0, 60, 63
1, 133574, Note_off_c, 0, 55, 63
1, 133575, Note_on_c, 0, 57, 63
1, 133622, Note_off_c, 0, 57, 62
1, 133637, Note_on_c, 0, 59, 70
1, 133667, Note_off_c, 0, 59, 68
1, 133694, Note_on_c, 0, 36, 79
1, 133708, Note_on_c, 0, 60, 72
1, 133734, Note_off_c, 0, 36, 62
1, 133760, Note_off_c, 0, 60, 66
1, 133768, Note_on_c, 0, 62, 68
1, 133823, Note_on_c, 0, 63, 66
1, 133853, Note_off_c, 0, 62, 60
1, 133878, Note_off_c, 0, 63, 64
1, 133881, Note_on_c, 0, 66, 74
1, 133934, Note_on_c, 0, 35, 90
1, 133942, Note_on_c, 0, 67, 88
1, 133974, Note_off_c, 0, 66, 61
1, 133991, Note_off_c, 0, 35, 59
1, 133999, Note_on_c, 0, 62, 77
1, 134072, Note_off_c, 0, 62, 62
1, 134082, Note_on_c, 0, 64, 71
1, 134122, Note_off_c, 0, 67, 55
1, 134139, Note_off_c, 0, 64, 65
1, 134143, Note_on_c, 0, 66, 73
1, 134196, Note_on_c, 0, 50, 100
1, 134197, Note_on_c, 0, 67, 90
1, 134200, Note_on_c, 0, 38, 88
1, 134206, Note_off_c, 0, 66, 62
1, 134262, Note_on_c, 0, 62, 63
1, 134298, Note_off_c, 0, 67, 56
1, 134328, Note_on_c, 0, 64, 67
1, 134346, Note_off_c, 0, 62, 63
1, 134396, Note_on_c, 0, 66, 75
1, 134412, Note_off_c, 0, 64, 60
1, 134417, Control_c, 0, 64, 9
1, 134432, Control_c, 0, 64, 44
1, 134447, Control_c, 0, 64, 58
1, 134450, Note_on_c, 0, 67, 82
1, 134462, Control_c, 0, 64, 65
1, 134467, Note_off_c, 0, 66, 63
1, 134477, Control_c, 0, 64, 74
1, 134491, Control_c, 0, 64, 87
1, 134506, Control_c, 0, 64, 110
1, 134512, Note_off_c, 0, 67, 63
1, 134513, Note_on_c, 0, 62, 76
1, 134521, Control_c, 0, 64, 127
1, 134547, Note_off_c, 0, 50, 54
1, 134575, Note_off_c, 0, 62, 64
1, 134580, Note_on_c, 0, 64, 73
1, 134636, Note_off_c, 0, 38, 35
1, 134638, Note_on_c, 0, 66, 74
1, 134641, Control_c, 0, 64, 93
1, 134655, Control_c, 0, 64, 62
1, 134661, Note_off_c, 0, 64, 59
1, 134670, Control_c, 0, 64, 0
1, 134692, Note_on_c, 0, 48, 89
1, 134693, Note_on_c, 0, 67, 83
1, 134699, Note_on_c, 0, 36, 81
1, 134712, Note_off_c, 0, 66, 62
1, 134734, Note_off_c, 0, 36, 65
1, 134737, Note_off_c, 0, 48, 65
1, 134760, Note_on_c, 0, 62, 74
1, 134764, Note_off_c, 0, 67, 60
1, 134823, Note_off_c, 0, 62, 62
1, 134828, Note_on_c, 0, 64, 67
1, 134876, Note_on_c, 0, 66, 70
1, 134895, Note_off_c, 0, 64, 60
1, 134930, Note_on_c, 0, 67, 80
1, 134936, Note_on_c, 0, 47, 87
1, 134943, Note_on_c, 0, 35, 75
1, 134950, Note_off_c, 0, 66, 62
1, 134978, Note_off_c, 0, 47, 65
1, 134978, Note_off_c, 0, 35, 65
1, 134996, Note_on_c, 0, 62, 72
1, 135017, Note_off_c, 0, 67, 58
1, 135050, Note_on_c, 0, 64, 68
1, 135056, Note_off_c, 0, 62, 63
1, 135109, Note_on_c, 0, 66, 76
1, 135110, Note_off_c, 0, 64, 64
1, 135134, Note_off_c, 0, 66, 69
1, 135178, Note_on_c, 0, 43, 88
1, 135181, Note_on_c, 0, 31, 81
1, 135181, Note_on_c, 0, 67, 74
1, 135213, Note_off_c, 0, 31, 68
1, 135235, Note_off_c, 0, 43, 64
1, 135245, Note_off_c, 0, 67, 63
1, 135251, Note_on_c, 0, 69, 70
1, 135297, Note_on_c, 0, 71, 74
1, 135309, Note_off_c, 0, 69, 59
1, 135350, Note_on_c, 0, 67, 77
1, 135355, Note_off_c, 0, 71, 63
1, 135411, Note_off_c, 0, 67, 62
1, 135425, Note_on_c, 0, 72, 88
1, 135492, Note_on_c, 0, 67, 78
1, 135494, Note_off_c, 0, 72, 63
1, 135545, Note_on_c, 0, 69, 74
1, 135548, Note_off_c, 0, 67, 63
1, 135603, Note_on_c, 0, 71, 83
1, 135620, Note_off_c, 0, 69, 59
1, 135666, Note_on_c, 0, 72, 95
1, 135671, Note_on_c, 0, 55, 104
1, 135677, Note_on_c, 0, 43, 90
1, 135678, Note_off_c, 0, 71, 64
1, 135726, Note_on_c, 0, 67, 84
1, 135764, Note_off_c, 0, 72, 63
1, 135810, Note_on_c, 0, 69, 73
1, 135821, Note_off_c, 0, 67, 58
1, 135859, Note_on_c, 0, 71, 83
1, 135875, Note_off_c, 0, 69, 60
1, 135914, Control_c, 0, 64, 31
1, 135929, Control_c, 0, 64, 54
1, 135929, Note_on_c, 0, 72, 85
1, 135941, Note_off_c, 0, 71, 64
1, 135943, Control_c, 0, 64, 64
1, 135958, Control_c, 0, 64, 73
1, 135973, Control_c, 0, 64, 89
1, 135986, Note_on_c, 0, 67, 86
1, 135988, Control_c, 0, 64, 127
1, 135994, Note_off_c, 0, 72, 58
1, 136004, Note_off_c, 0, 43, 62
1, 136010, Note_off_c, 0, 55, 59
1, 136055, Note_off_c, 0, 67, 62
1, 136061, Note_on_c, 0, 69, 77
1, 136112, Note_on_c, 0, 71, 76
1, 136129, Note_off_c, 0, 69, 61
1, 136166, Control_c, 0, 64, 122
1, 136177, Note_on_c, 0, 72, 91
1, 136181, Control_c, 0, 64, 77
1, 136185, Note_on_c, 0, 53, 99
1, 136188, Note_on_c, 0, 41, 84
1, 136188, Note_off_c, 0, 71, 63
1, 136196, Control_c, 0, 64, 58
1, 136211, Control_c, 0, 64, 0
1, 136234, Note_off_c, 0, 53, 65
1, 136236, Note_off_c, 0, 41, 64
1, 136241, Note_on_c, 0, 67, 78
1, 136245, Note_off_c, 0, 72, 59
1, 136308, Note_on_c, 0, 69, 69
1, 136310, Note_off_c, 0, 67, 60
1, 136366, Note_on_c, 0, 71, 78
1, 136380, Note_off_c, 0, 69, 62
1, 136430, Note_on_c, 0, 72, 81
1, 136436, Note_off_c, 0, 71, 63
1, 136439, Note_on_c, 0, 52, 85
1, 136445, Note_on_c, 0, 40, 76
1, 136479, Note_off_c, 0, 40, 68
1, 136487, Note_off_c, 0, 52, 64
1, 136494, Note_on_c, 0, 67, 74
1, 136495, Note_off_c, 0, 72, 61
1, 136553, Note_off_c, 0, 67, 63
1, 136555, Note_on_c, 0, 69, 70
1, 136614, Note_off_c, 0, 69, 64
1, 136620, Note_on_c, 0, 71, 75
1, 136645, Note_off_c, 0, 71, 68
1, 136684, Note_on_c, 0, 48, 80
1, 136687, Note_on_c, 0, 36, 71
1, 136695, Note_on_c, 0, 72, 79
1, 136722, Note_off_c, 0, 36, 66
1, 136728, Note_off_c, 0, 48, 62
1, 136755, Note_off_c, 0, 72, 65
1, 136759, Note_on_c, 0, 74, 68
1, 136813, Note_on_c, 0, 76, 73
1, 136814, Note_off_c, 0, 74, 63
1, 136863, Note_on_c, 0, 72, 67
1, 136864, Note_off_c, 0, 76, 62
1, 136925, Note_off_c, 0, 72, 62
1, 136937, Note_on_c, 0, 77, 82
1, 137003, Note_on_c, 0, 72, 66
1, 137010, Note_off_c, 0, 77, 62
1, 137058, Note_on_c, 0, 74, 73
1, 137062, Note_off_c, 0, 72, 61
1, 137117, Note_on_c, 0, 76, 77
1, 137121, Note_off_c, 0, 74, 63
1, 137175, Note_on_c, 0, 77, 86
1, 137178, Note_on_c, 0, 60, 90
1, 137187, Note_on_c, 0, 48, 80
1, 137190, Note_off_c, 0, 76, 65
1, 137247, Note_on_c, 0, 72, 81
1, 137267, Note_off_c, 0, 77, 62
1, 137317, Note_on_c, 0, 74, 68
1, 137327, Note_off_c, 0, 72, 62
1, 137374, Note_on_c, 0, 76, 75
1, 137390, Note_off_c, 0, 74, 56
1, 137427, Control_c, 0, 64, 35
1, 137431, Note_on_c, 0, 77, 86
1, 137441, Control_c, 0, 64, 55
1, 137444, Note_off_c, 0, 76, 65
1, 137453, Note_off_c, 0, 60, 65
1, 137456, Control_c, 0, 64, 65
1, 137463, Note_off_c, 0, 48, 63
1, 137471, Control_c, 0, 64, 71
1, 137486, Control_c, 0, 64, 81
1, 137489, Note_off_c, 0, 77, 60
1, 137497, Note_on_c, 0, 72, 81
1, 137501, Control_c, 0, 64, 99
1, 137515, Control_c, 0, 64, 127
1, 137559, Note_off_c, 0, 72, 63
1, 137566, Note_on_c, 0, 74, 69
1, 137610, Note_on_c, 0, 76, 76
1, 137624, Note_off_c, 0, 74, 61
1, 137649, Control_c, 0, 64, 110
1, 137664, Control_c, 0, 64, 75
1, 137668, Note_on_c, 0, 77, 91
1, 137678, Note_on_c, 0, 46, 78
1, 137679, Note_on_c, 0, 58, 83
1, 137679, Control_c, 0, 64, 54
1, 137682, Note_off_c, 0, 76, 65
1, 137694, Control_c, 0, 64, 0
1, 137709, Note_off_c, 0, 58, 65
1, 137712, Note_off_c, 0, 46, 65
1, 137730, Note_off_c, 0, 77, 58
1, 137732, Note_on_c, 0, 72, 78
1, 137794, Note_on_c, 0, 74, 70
1, 137798, Note_off_c, 0, 72, 62
1, 137853, Note_on_c, 0, 76, 74
1, 137866, Note_off_c, 0, 74, 61
1, 137908, Note_on_c, 0, 77, 86
1, 137910, Note_on_c, 0, 45, 78
1, 137910, Note_on_c, 0, 57, 82
1, 137921, Note_off_c, 0, 76, 64
1, 137944, Note_off_c, 0, 45, 65
1, 137944, Note_off_c, 0, 57, 65
1, 137965, Note_on_c, 0, 72, 72
1, 137979, Note_off_c, 0, 77, 59
1, 138028, Note_on_c, 0, 74, 69
1, 138035, Note_off_c, 0, 72, 63
1, 138083, Note_off_c, 0, 74, 63
1, 138087, Note_on_c, 0, 76, 77
1, 138114, Note_off_c, 0, 76, 69
1, 138146, Note_on_c, 0, 53, 89
1, 138147, Note_on_c, 0, 41, 78
1, 138158, Note_on_c, 0, 77, 84
1, 138193, Note_off_c, 0, 41, 62
1, 138200, Note_off_c, 0, 53, 65
1, 138229, Note_off_c, 0, 77, 65
1, 138241, Note_on_c, 0, 79, 55
1, 138268, Note_on_c, 0, 81, 71
1, 138291, Note_off_c, 0, 79, 62
1, 138326, Note_off_c, 0, 81, 65
1, 138333, Note_on_c, 0, 77, 82
1, 138408, Note_off_c, 0, 77, 63
1, 138409, Note_on_c, 0, 78, 85
1, 138466, Note_off_c, 0, 78, 64
1, 138493, Note_on_c, 0, 79, 74
1, 138551, Note_on_c, 0, 81, 79
1, 138553, Note_off_c, 0, 79, 64
1, 138616, Note_on_c, 0, 83, 87
1, 138637, Note_off_c, 0, 81, 64
1, 138641, Note_on_c, 0, 63, 97
1, 138649, Note_on_c, 0, 51, 90
1, 138664, Note_on_c, 0, 84, 82
1, 138685, Note_off_c, 0, 83, 61
1, 138719, Note_on_c, 0, 78, 88
1, 138738, Note_off_c, 0, 84, 58
1, 138796, Note_on_c, 0, 81, 67
1, 138801, Note_off_c, 0, 78, 64
1, 138856, Note_on_c, 0, 83, 79
1, 138865, Control_c, 0, 64, 21
1, 138880, Control_c, 0, 64, 50
1, 138894, Control_c, 0, 64, 62
1, 138895, Note_off_c, 0, 81, 65
1, 138909, Control_c, 0, 64, 68
1, 138913, Note_on_c, 0, 84, 76
1, 138924, Control_c, 0, 64, 76
1, 138936, Note_off_c, 0, 83, 65
1, 138939, Control_c, 0, 64, 95
1, 138942, Note_off_c, 0, 63, 58
1, 138954, Control_c, 0, 64, 127
1, 138958, Note_off_c, 0, 51, 61
1, 138965, Note_on_c, 0, 78, 81
1, 139007, Note_off_c, 0, 84, 60
1, 139023, Note_on_c, 0, 81, 76
1, 139040, Note_off_c, 0, 78, 64
1, 139081, Note_on_c, 0, 83, 78
1, 139099, Note_on_c, 0, 62, 95
1, 139100, Note_on_c, 0, 50, 87
1, 139101, Control_c, 0, 64, 84
1, 139116, Control_c, 0, 64, 62
1, 139117, Note_off_c, 0, 81, 65
1, 139123, Note_on_c, 0, 84, 82
1, 139131, Control_c, 0, 64, 0
1, 139146, Note_off_c, 0, 62, 65
1, 139149, Note_off_c, 0, 50, 64
1, 139152, Note_off_c, 0, 83, 65
1, 139193, Note_on_c, 0, 78, 82
1, 139239, Note_on_c, 0, 81, 75
1, 139244, Note_off_c, 0, 84, 58
1, 139263, Note_off_c, 0, 78, 63
1, 139300, Note_on_c, 0, 83, 77
1, 139333, Note_on_c, 0, 60, 94
1, 139339, Note_on_c, 0, 48, 80
1, 139350, Note_off_c, 0, 81, 63
1, 139358, Note_on_c, 0, 84, 82
1, 139378, Note_off_c, 0, 48, 62
1, 139381, Note_off_c, 0, 60, 66
1, 139392, Note_off_c, 0, 83, 63
1, 139427, Note_on_c, 0, 78, 81
1, 139455, Note_off_c, 0, 84, 61
1, 139468, Note_on_c, 0, 81, 71
1, 139512, Note_off_c, 0, 78, 63
1, 139531, Note_on_c, 0, 83, 71
1, 139569, Note_on_c, 0, 57, 92
1, 139571, Note_on_c, 0, 45, 82
1, 139579, Note_on_c, 0, 84, 85
1, 139584, Control_c, 0, 64, 33
1, 139599, Control_c, 0, 64, 45
1, 139602, Note_off_c, 0, 81, 46
1, 139605, Note_off_c, 0, 45, 65
1, 139613, Control_c, 0, 64, 45
1, 139616, Note_off_c, 0, 83, 62
1, 139624, Note_off_c, 0, 57, 67
1, 139640, Note_on_c, 0, 78, 81
1, 139658, Control_c, 0, 64, 46
1, 139676, Note_off_c, 0, 84, 61
1, 139701, Note_on_c, 0, 81, 78
1, 139701, Note_off_c, 0, 78, 66
1, 139747, Control_c, 0, 64, 45
1, 139759, Note_on_c, 0, 84, 83
1, 139762, Control_c, 0, 64, 44
1, 139763, Note_off_c, 0, 81, 66
1, 139777, Control_c, 0, 64, 42
1, 139783, Note_off_c, 0, 84, 66
1, 139791, Control_c, 0, 64, 40
1, 139806, Control_c, 0, 64, 38
1, 139821, Control_c, 0, 64, 36
1, 139830, Note_on_c, 0, 83, 89
1, 139899, Note_on_c, 0, 84, 82
1, 139904, Note_off_c, 0, 83, 64
1, 139945, Note_on_c, 0, 86, 73
1, 139983, Note_off_c, 0, 84, 64
1, 140001, Note_on_c, 0, 87, 82
1, 140013, Control_c, 0, 64, 30
1, 140028, Control_c, 0, 64, 0
1, 140035, Note_off_c, 0, 86, 63
1, 140055, Note_on_c, 0, 89, 91
1, 140061, Note_on_c, 0, 68, 96
1, 140069, Note_on_c, 0, 56, 84
1, 140078, Note_off_c, 0, 87, 64
1, 140119, Note_on_c, 0, 83, 84
1, 140162, Control_c, 0, 64, 15
1, 140177, Control_c, 0, 64, 45
1, 140183, Note_on_c, 0, 86, 77
1, 140192, Control_c, 0, 64, 58
1, 140205, Note_off_c, 0, 83, 63
1, 140207, Control_c, 0, 64, 64
1, 140217, Note_off_c, 0, 89, 61
1, 140222, Control_c, 0, 64, 68
1, 140244, Control_c, 0, 64, 76
1, 140245, Note_on_c, 0, 87, 77
1, 140259, Control_c, 0, 64, 89
1, 140274, Control_c, 0, 64, 127
1, 140284, Note_off_c, 0, 56, 61
1, 140287, Note_off_c, 0, 86, 62
1, 140299, Note_off_c, 0, 68, 56
1, 140306, Note_on_c, 0, 89, 86
1, 140321, Note_off_c, 0, 87, 64
1, 140343, Note_off_c, 0, 89, 66
1, 140381, Note_on_c, 0, 86, 81
1, 140442, Note_on_c, 0, 89, 82
1, 140455, Note_off_c, 0, 86, 63
1, 140498, Note_on_c, 0, 91, 80
1, 140540, Control_c, 0, 64, 115
1, 140541, Note_on_c, 0, 92, 97
1, 140541, Note_off_c, 0, 89, 61
1, 140546, Note_on_c, 0, 65, 92
1, 140553, Note_on_c, 0, 53, 85
1, 140555, Control_c, 0, 64, 74
1, 140564, Note_off_c, 0, 91, 65
1, 140570, Control_c, 0, 64, 48
1, 140585, Control_c, 0, 64, 0
1, 140605, Note_on_c, 0, 86, 80
1, 140667, Note_on_c, 0, 89, 78
1, 140678, Note_off_c, 0, 92, 52
1, 140703, Control_c, 0, 64, 40
1, 140704, Note_off_c, 0, 86, 57
1, 140718, Control_c, 0, 64, 58
1, 140732, Control_c, 0, 64, 64
1, 140735, Note_on_c, 0, 91, 76
1, 140747, Control_c, 0, 64, 70
1, 140762, Control_c, 0, 64, 78
1, 140773, Note_off_c, 0, 89, 64
1, 140777, Control_c, 0, 64, 90
1, 140784, Note_off_c, 0, 65, 60
1, 140788, Note_on_c, 0, 92, 89
1, 140792, Control_c, 0, 64, 115
1, 140806, Control_c, 0, 64, 127
1, 140808, Note_off_c, 0, 91, 64
1, 140813, Note_off_c, 0, 53, 63
1, 140841, Note_on_c, 0, 86, 79
1, 140900, Note_on_c, 0, 89, 74
1, 140910, Note_off_c, 0, 92, 57
1, 140928, Note_off_c, 0, 86, 58
1, 140966, Note_on_c, 0, 91, 83
1, 141014, Note_off_c, 0, 89, 63
1, 141033, Note_on_c, 0, 62, 92
1, 141033, Note_on_c, 0, 92, 91
1, 141038, Control_c, 0, 64, 120
1, 141040, Note_on_c, 0, 50, 89
1, 141050, Note_off_c, 0, 91, 65
1, 141053, Control_c, 0, 64, 78
1, 141068, Control_c, 0, 64, 57
1, 141083, Control_c, 0, 64, 0
1, 141092, Note_on_c, 0, 86, 72
1, 141158, Note_on_c, 0, 89, 76
1, 141172, Note_off_c, 0, 86, 63
1, 141194, Note_off_c, 0, 92, 55
1, 141216, Control_c, 0, 64, 43
1, 141218, Note_on_c, 0, 91, 78
1, 141230, Control_c, 0, 64, 60
1, 141245, Control_c, 0, 64, 67
1, 141253, Note_off_c, 0, 89, 64
1, 141259, Note_off_c, 0, 62, 62
1, 141260, Control_c, 0, 64, 81
1, 141270, Note_off_c, 0, 50, 64
1, 141275, Control_c, 0, 64, 125
1, 141279, Note_off_c, 0, 91, 66
1, 141281, Note_on_c, 0, 92, 93
1, 141289, Control_c, 0, 64, 127
1, 141347, Note_on_c, 0, 91, 86
1, 141379, Note_off_c, 0, 92, 64
1, 141394, Note_off_c, 0, 91, 65
1, 141402, Note_on_c, 0, 89, 80
1, 141449, Note_off_c, 0, 89, 62
1, 141479, Note_on_c, 0, 87, 86
1, 141527, Control_c, 0, 64, 80
1, 141533, Note_on_c, 0, 86, 87
1, 141535, Note_on_c, 0, 59, 93
1, 141539, Note_off_c, 0, 87, 64
1, 141542, Control_c, 0, 64, 41
1, 141542, Note_on_c, 0, 47, 82
1, 141556, Control_c, 0, 64, 0
1, 141589, Note_on_c, 0, 87, 74
1, 141620, Note_off_c, 0, 86, 66
1, 141655, Note_off_c, 0, 87, 65
1, 141659, Note_on_c, 0, 89, 80
1, 141757, Control_c, 0, 64, 40
1, 141772, Control_c, 0, 64, 57
1, 141787, Control_c, 0, 64, 64
1, 141793, Note_off_c, 0, 59, 60
1, 141801, Control_c, 0, 64, 71
1, 141810, Note_off_c, 0, 47, 63
1, 141816, Control_c, 0, 64, 86
1, 141829, Note_on_c, 0, 87, 79
1, 141831, Control_c, 0, 64, 127
1, 141882, Note_on_c, 0, 86, 85
1, 141897, Note_off_c, 0, 89, 62
1, 141910, Note_off_c, 0, 87, 64
1, 141936, Note_off_c, 0, 86, 65
1, 141952, Note_on_c, 0, 84, 79
1, 142009, Control_c, 0, 64, 75
1, 142013, Note_on_c, 0, 83, 87
1, 142024, Control_c, 0, 64, 44
1, 142027, Note_on_c, 0, 55, 102
1, 142030, Note_off_c, 0, 84, 60
1, 142035, Note_on_c, 0, 43, 83
1, 142039, Control_c, 0, 64, 0
1, 142069, Note_off_c, 0, 83, 63
1, 142088, Note_on_c, 0, 84, 72
1, 142142, Control_c, 0, 64, 36
1, 142154, Note_on_c, 0, 86, 84
1, 142156, Note_off_c, 0, 84, 65
1, 142157, Control_c, 0, 64, 57
1, 142172, Control_c, 0, 64, 67
1, 142186, Control_c, 0, 64, 79
1, 142193, Note_off_c, 0, 55, 60
1, 142201, Control_c, 0, 64, 127
1, 142218, Note_on_c, 0, 87, 85
1, 142220, Note_off_c, 0, 86, 63
1, 142231, Note_off_c, 0, 43, 63
1, 142289, Note_on_c, 0, 86, 77
1, 142311, Note_off_c, 0, 87, 64
1, 142337, Note_on_c, 0, 84, 81
1, 142338, Note_off_c, 0, 86, 65
1, 142385, Note_off_c, 0, 84, 63
1, 142413, Note_on_c, 0, 83, 79
1, 142462, Note_on_c, 0, 80, 81
1, 142523, Note_off_c, 0, 83, 61
1, 142528, Note_on_c, 0, 79, 82
1, 142534, Note_on_c, 0, 43, 94
1, 142535, Control_c, 0, 64, 105
1, 142536, Note_on_c, 0, 31, 79
1, 142550, Control_c, 0, 64, 74
1, 142562, Note_off_c, 0, 80, 63
1, 142564, Note_off_c, 0, 31, 68
1, 142565, Control_c, 0, 64, 57
1, 142580, Control_c, 0, 64, 0
1, 142590, Note_off_c, 0, 43, 66
1, 142593, Note_on_c, 0, 77, 85
1, 142597, Note_off_c, 0, 79, 64
1, 142648, Note_off_c, 0, 77, 58
1, 142666, Note_on_c, 0, 75, 79
1, 142728, Note_on_c, 0, 74, 75
1, 142731, Note_off_c, 0, 75, 63
1, 142767, Note_off_c, 0, 74, 60
1, 142773, Control_c, 0, 64, 44
1, 142788, Control_c, 0, 64, 66
1, 142802, Control_c, 0, 64, 96
1, 142809, Note_on_c, 0, 75, 90
1, 142812, Note_on_c, 0, 48, 101
1, 142817, Control_c, 0, 64, 127
1, 142823, Note_on_c, 0, 36, 83
1, 142887, Note_on_c, 0, 72, 77
1, 142921, Control_c, 0, 64, 103
1, 142922, Note_off_c, 0, 75, 61
1, 142935, Control_c, 0, 64, 88
1, 142950, Control_c, 0, 64, 76
1, 142954, Note_off_c, 0, 72, 65
1, 142965, Control_c, 0, 64, 67
1, 142975, Note_on_c, 0, 71, 74
1, 142980, Control_c, 0, 64, 61
1, 142995, Control_c, 0, 64, 53
1, 143009, Control_c, 0, 64, 47
1, 143024, Control_c, 0, 64, 44
1, 143027, Note_off_c, 0, 71, 57
1, 143039, Control_c, 0, 64, 41
1, 143040, Note_on_c, 0, 68, 77
1, 143054, Control_c, 0, 64, 36
1, 143069, Control_c, 0, 64, 24
1, 143083, Control_c, 0, 64, 12
1, 143098, Control_c, 0, 64, 0
1, 143103, Note_on_c, 0, 67, 81
1, 143111, Note_off_c, 0, 68, 60
1, 143146, Note_off_c, 0, 67, 62
1, 143173, Note_on_c, 0, 65, 72
1, 143229, Note_off_c, 0, 65, 57
1, 143237, Note_on_c, 0, 63, 78
1, 143298, Note_on_c, 0, 62, 78
1, 143312, Note_off_c, 0, 63, 62
1, 143347, Note_off_c, 0, 62, 62
1, 143369, Note_on_c, 0, 60, 72
1, 143419, Note_off_c, 0, 48, 60
1, 143425, Note_on_c, 0, 59, 72
1, 143427, Note_off_c, 0, 36, 61
1, 143427, Note_off_c, 0, 60, 63
1, 143479, Note_on_c, 0, 56, 78
1, 143508, Note_off_c, 0, 59, 59
1, 143550, Note_on_c, 0, 55, 76
1, 143562, Note_off_c, 0, 56, 64
1, 143608, Note_off_c, 0, 55, 61
1, 143617, Note_on_c, 0, 53, 76
1, 143675, Note_off_c, 0, 53, 60
1, 143685, Note_on_c, 0, 51, 75
1, 143713, Control_c, 0, 67, 12
1, 143728, Control_c, 0, 67, 21
1, 143735, Note_on_c, 0, 50, 70
1, 143743, Control_c, 0, 67, 33
1, 143751, Note_off_c, 0, 51, 64
1, 143757, Control_c, 0, 67, 46
1, 143772, Control_c, 0, 67, 58
1, 143784, Note_off_c, 0, 50, 63
1, 143787, Control_c, 0, 67, 68
1, 143802, Control_c, 0, 67, 79
1, 143813, Note_on_c, 0, 48, 69
1, 143817, Control_c, 0, 67, 87
1, 143831, Control_c, 0, 67, 95
1, 143846, Control_c, 0, 67, 102
1, 143861, Control_c, 0, 67, 108
1, 143876, Control_c, 0, 67, 113
1, 143877, Note_off_c, 0, 48, 60
1, 143881, Note_on_c, 0, 47, 64
1, 143891, Control_c, 0, 67, 120
1, 143906, Control_c, 0, 67, 126
1, 143921, Control_c, 0, 67, 127
1, 143958, Note_on_c, 0, 44, 56
1, 143963, Note_off_c, 0, 47, 59
1, 144040, Note_on_c, 0, 43, 55
1, 144040, Note_off_c, 0, 44, 59
1, 144127, Note_on_c, 0, 41, 56
1, 144135, Note_off_c, 0, 43, 58
1, 144207, Note_on_c, 0, 39, 54
1, 144227, Note_off_c, 0, 41, 57
1, 144306, Note_off_c, 0, 39, 62
1, 144309, Note_on_c, 0, 38, 49
1, 144388, Control_c, 0, 67, 127
1, 144403, Control_c, 0, 67, 123
1, 144418, Control_c, 0, 67, 119
1, 144432, Note_off_c, 0, 38, 56
1, 144433, Control_c, 0, 67, 115
1, 144443, Note_on_c, 0, 36, 52
1, 144447, Control_c, 0, 67, 114
1, 144462, Control_c, 0, 67, 113
1, 144477, Control_c, 0, 67, 112
1, 144625, Control_c, 0, 67, 112
1, 144654, Control_c, 0, 67, 111
1, 144669, Control_c, 0, 67, 110
1, 144684, Control_c, 0, 67, 110
1, 144714, Control_c, 0, 67, 109
1, 144766, Control_c, 0, 67, 109
1, 144841, Control_c, 0, 67, 108
1, 145004, Control_c, 0, 67, 107
1, 145064, Control_c, 0, 67, 107
1, 145093, Control_c, 0, 67, 106
1, 145125, Note_on_c, 0, 60, 57
1, 145142, Note_on_c, 0, 55, 31
1, 145143, Note_on_c, 0, 43, 34
1, 145144, Note_on_c, 0, 52, 41
1, 145152, Control_c, 0, 67, 105
1, 145167, Control_c, 0, 64, 11
1, 145167, Control_c, 0, 67, 104
1, 145182, Control_c, 0, 64, 19
1, 145182, Control_c, 0, 67, 94
1, 145197, Control_c, 0, 64, 25
1, 145197, Control_c, 0, 67, 85
1, 145212, Control_c, 0, 64, 34
1, 145212, Control_c, 0, 67, 79
1, 145226, Control_c, 0, 64, 42
1, 145226, Control_c, 0, 67, 75
1, 145241, Control_c, 0, 64, 49
1, 145241, Control_c, 0, 67, 72
1, 145256, Control_c, 0, 64, 54
1, 145256, Control_c, 0, 67, 71
1, 145271, Control_c, 0, 64, 58
1, 145271, Control_c, 0, 67, 69
1, 145286, Control_c, 0, 64, 61
1, 145286, Control_c, 0, 67, 68
1, 145301, Control_c, 0, 64, 62
1, 145301, Control_c, 0, 67, 67
1, 145316, Control_c, 0, 64, 64
1, 145330, Control_c, 0, 64, 65
1, 145330, Control_c, 0, 67, 66
1, 145345, Control_c, 0, 64, 67
1, 145360, Control_c, 0, 64, 71
1, 145375, Control_c, 0, 64, 74
1, 145390, Control_c, 0, 64, 79
1, 145404, Control_c, 0, 64, 84
1, 145419, Control_c, 0, 64, 89
1, 145434, Control_c, 0, 64, 96
1, 145449, Control_c, 0, 64, 106
1, 145464, Control_c, 0, 64, 127
1, 145534, Note_off_c, 0, 36, 39
1, 145764, Note_off_c, 0, 60, 40
1, 145826, Control_c, 0, 67, 66
1, 145828, Note_on_c, 0, 48, 38
1, 145870, Control_c, 0, 67, 65
1, 145900, Control_c, 0, 67, 64
1, 145906, Note_off_c, 0, 52, 50
1, 145926, Note_off_c, 0, 55, 43
1, 145937, Note_off_c, 0, 43, 36
1, 145945, Control_c, 0, 67, 64
1, 146018, Control_c, 0, 67, 63
1, 146033, Control_c, 0, 67, 62
1, 146063, Control_c, 0, 67, 62
1, 146137, Control_c, 0, 67, 61
1, 146151, Control_c, 0, 67, 49
1, 146166, Control_c, 0, 67, 40
1, 146181, Control_c, 0, 67, 34
1, 146196, Control_c, 0, 67, 29
1, 146211, Control_c, 0, 67, 27
1, 146233, Control_c, 0, 67, 26
1, 146248, Control_c, 0, 67, 26
1, 146329, Note_on_c, 0, 64, 64
1, 146385, Note_off_c, 0, 48, 38
1, 146398, Note_off_c, 0, 64, 58
1, 146425, Control_c, 0, 67, 26
1, 146470, Control_c, 0, 67, 27
1, 146508, Note_on_c, 0, 62, 67
1, 146514, Note_on_c, 0, 55, 51
1, 146530, Control_c, 0, 64, 95
1, 146532, Note_on_c, 0, 50, 49
1, 146545, Control_c, 0, 64, 76
1, 146547, Note_on_c, 0, 35, 40
1, 146560, Control_c, 0, 64, 62
1, 146574, Control_c, 0, 64, 15
1, 146589, Control_c, 0, 64, 0
1, 146589, Control_c, 0, 67, 27
1, 146663, Control_c, 0, 67, 27
1, 146678, Control_c, 0, 67, 26
1, 146693, Control_c, 0, 67, 26
1, 146708, Control_c, 0, 64, 42
1, 146708, Control_c, 0, 67, 25
1, 146723, Control_c, 0, 64, 59
1, 146723, Control_c, 0, 67, 24
1, 146738, Control_c, 0, 64, 66
1, 146738, Control_c, 0, 67, 24
1, 146753, Control_c, 0, 64, 76
1, 146753, Control_c, 0, 67, 23
1, 146768, Control_c, 0, 64, 91
1, 146768, Control_c, 0, 67, 22
1, 146782, Control_c, 0, 64, 127
1, 146782, Control_c, 0, 67, 22
1, 146797, Control_c, 0, 67, 21
1, 146812, Control_c, 0, 67, 21
1, 146827, Control_c, 0, 67, 19
1, 146841, Control_c, 0, 67, 17
1, 146856, Control_c, 0, 67, 0
1, 146898, Note_off_c, 0, 55, 37
1, 147207, Note_on_c, 0, 55, 58
1, 147234, Control_c, 0, 64, 101
1, 147244, Note_on_c, 0, 43, 37
1, 147248, Control_c, 0, 64, 90
1, 147263, Control_c, 0, 64, 81
1, 147278, Control_c, 0, 64, 73
1, 147292, Control_c, 0, 64, 65
1, 147307, Control_c, 0, 64, 57
1, 147324, Control_c, 0, 64, 40
1, 147339, Control_c, 0, 64, 22
1, 147353, Control_c, 0, 64, 14
1, 147368, Control_c, 0, 64, 13
1, 147397, Control_c, 0, 64, 14
1, 147412, Control_c, 0, 64, 22
1, 147427, Control_c, 0, 64, 34
1, 147442, Control_c, 0, 64, 48
1, 147457, Control_c, 0, 64, 59
1, 147471, Control_c, 0, 64, 64
1, 147486, Control_c, 0, 64, 68
1, 147501, Control_c, 0, 64, 74
1, 147516, Control_c, 0, 64, 81
1, 147531, Control_c, 0, 64, 89
1, 147546, Control_c, 0, 64, 102
1, 147557, Note_off_c, 0, 35, 28
1, 147561, Control_c, 0, 64, 127
1, 147611, Note_off_c, 0, 50, 38
1, 147781, Note_off_c, 0, 55, 51
1, 147897, Note_off_c, 0, 62, 56
1, 147916, Note_on_c, 0, 47, 52
1, 148187, Note_off_c, 0, 43, 39
1, 148383, Note_on_c, 0, 62, 73
1, 148575, Note_on_c, 0, 64, 71
1, 148597, Note_on_c, 0, 55, 50
1, 148599, Note_on_c, 0, 58, 60
1, 148628, Control_c, 0, 64, 100
1, 148631, Note_on_c, 0, 37, 44
1, 148634, Note_off_c, 0, 62, 57
1, 148643, Control_c, 0, 64, 82
1, 148658, Control_c, 0, 64, 67
1, 148673, Control_c, 0, 64, 53
1, 148688, Control_c, 0, 64, 0
1, 148693, Note_off_c, 0, 47, 57
1, 148836, Control_c, 0, 64, 31
1, 148851, Control_c, 0, 64, 51
1, 148866, Control_c, 0, 64, 61
1, 148881, Control_c, 0, 64, 66
1, 148895, Control_c, 0, 64, 72
1, 148910, Control_c, 0, 64, 79
1, 148926, Control_c, 0, 64, 87
1, 148941, Control_c, 0, 64, 100
1, 148956, Control_c, 0, 64, 127
1, 148978, Note_off_c, 0, 55, 59
1, 149007, Note_off_c, 0, 64, 59
1, 149311, Note_on_c, 0, 64, 63
1, 149328, Note_on_c, 0, 55, 45
1, 149332, Control_c, 0, 64, 115
1, 149337, Note_on_c, 0, 57, 46
1, 149347, Note_on_c, 0, 45, 39
1, 149347, Control_c, 0, 64, 100
1, 149362, Control_c, 0, 64, 87
1, 149376, Control_c, 0, 64, 74
1, 149391, Control_c, 0, 64, 65
1, 149406, Control_c, 0, 64, 56
1, 149421, Control_c, 0, 64, 44
1, 149436, Note_off_c, 0, 58, 53
1, 149436, Control_c, 0, 64, 28
1, 149450, Control_c, 0, 64, 0
1, 149599, Control_c, 0, 64, 30
1, 149614, Control_c, 0, 64, 48
1, 149629, Control_c, 0, 64, 59
1, 149643, Control_c, 0, 64, 64
1, 149658, Control_c, 0, 64, 66
1, 149673, Control_c, 0, 64, 68
1, 149688, Control_c, 0, 64, 70
1, 149702, Control_c, 0, 64, 73
1, 149719, Control_c, 0, 64, 76
1, 149734, Control_c, 0, 64, 82
1, 149748, Control_c, 0, 64, 88
1, 149763, Control_c, 0, 64, 97
1, 149778, Control_c, 0, 64, 109
1, 149792, Control_c, 0, 64, 127
1, 149862, Note_off_c, 0, 37, 37
1, 150008, Note_off_c, 0, 57, 26
1, 150021, Note_off_c, 0, 55, 29
1, 150045, Note_on_c, 0, 49, 36
1, 150081, Note_off_c, 0, 64, 34
1, 150131, Note_off_c, 0, 45, 35
1, 150258, Note_off_c, 0, 49, 30
1, 150562, Note_on_c, 0, 67, 62
1, 150598, Note_off_c, 0, 67, 59
1, 150750, Note_on_c, 0, 64, 58
1, 150756, Control_c, 0, 64, 117
1, 150771, Control_c, 0, 64, 90
1, 150771, Note_on_c, 0, 53, 48
1, 150772, Note_on_c, 0, 38, 38
1, 150776, Note_on_c, 0, 57, 41
1, 150786, Control_c, 0, 64, 75
1, 150801, Control_c, 0, 64, 63
1, 150815, Control_c, 0, 64, 39
1, 150830, Control_c, 0, 64, 0
1, 150948, Control_c, 0, 64, 26
1, 150963, Control_c, 0, 64, 49
1, 150971, Note_off_c, 0, 57, 0
1, 150978, Control_c, 0, 64, 60
1, 150993, Control_c, 0, 64, 64
1, 151008, Control_c, 0, 64, 67
1, 151009, Poly_aftertouch_c, 0, 57, 127
1, 151022, Control_c, 0, 64, 70
1, 151037, Control_c, 0, 64, 74
1, 151052, Control_c, 0, 64, 78
1, 151067, Control_c, 0, 64, 82
1, 151082, Control_c, 0, 64, 88
1, 151096, Control_c, 0, 64, 96
1, 151111, Control_c, 0, 64, 108
1, 151120, Note_off_c, 0, 64, 54
1, 151126, Control_c, 0, 64, 127
1, 151442, Note_on_c, 0, 65, 50
1, 151467, Note_on_c, 0, 45, 34
1, 151490, Control_c, 0, 64, 111
1, 151505, Control_c, 0, 64, 95
1, 151519, Control_c, 0, 64, 83
1, 151534, Control_c, 0, 64, 73
1, 151549, Control_c, 0, 64, 64
1, 151564, Control_c, 0, 64, 55
1, 151579, Control_c, 0, 64, 40
1, 151594, Control_c, 0, 64, 16
1, 151609, Control_c, 0, 64, 0
1, 151742, Control_c, 0, 64, 27
1, 151757, Control_c, 0, 64, 48
1, 151771, Control_c, 0, 64, 60
1, 151786, Control_c, 0, 64, 65
1, 151801, Control_c, 0, 64, 68
1, 151816, Control_c, 0, 64, 72
1, 151831, Control_c, 0, 64, 78
1, 151845, Control_c, 0, 64, 85
1, 151860, Control_c, 0, 64, 96
1, 151875, Control_c, 0, 64, 127
1, 151978, Poly_aftertouch_c, 0, 57, 0
1, 151994, Note_off_c, 0, 53, 41
1, 152084, Note_off_c, 0, 65, 54
1, 152120, Note_on_c, 0, 50, 51
1, 152127, Note_off_c, 0, 38, 35
1, 152294, Note_off_c, 0, 45, 41
1, 152605, Note_on_c, 0, 65, 73
1, 152773, Note_on_c, 0, 66, 66
1, 152786, Note_on_c, 0, 60, 53
1, 152801, Note_on_c, 0, 57, 48
1, 152808, Note_on_c, 0, 39, 53
1, 152824, Note_off_c, 0, 65, 50
1, 152832, Control_c, 0, 64, 98
1, 152846, Note_off_c, 0, 50, 60
1, 152847, Control_c, 0, 64, 82
1, 152861, Control_c, 0, 64, 67
1, 152876, Control_c, 0, 64, 50
1, 152891, Control_c, 0, 64, 0
1, 153033, Control_c, 0, 64, 11
1, 153048, Control_c, 0, 64, 45
1, 153063, Control_c, 0, 64, 59
1, 153078, Control_c, 0, 64, 66
1, 153092, Control_c, 0, 64, 73
1, 153107, Control_c, 0, 64, 82
1, 153122, Control_c, 0, 64, 96
1, 153137, Control_c, 0, 64, 127
1, 153165, Note_off_c, 0, 66, 49
1, 153504, Note_on_c, 0, 66, 69
1, 153531, Note_on_c, 0, 48, 45
1, 153551, Control_c, 0, 64, 95
1, 153566, Control_c, 0, 64, 80
1, 153581, Control_c, 0, 64, 69
1, 153596, Control_c, 0, 64, 60
1, 153610, Control_c, 0, 64, 41
1, 153625, Control_c, 0, 64, 0
1, 153752, Control_c, 0, 64, 35
1, 153767, Control_c, 0, 64, 53
1, 153782, Control_c, 0, 64, 62
1, 153796, Control_c, 0, 64, 66
1, 153811, Control_c, 0, 64, 70
1, 153826, Control_c, 0, 64, 75
1, 153840, Control_c, 0, 64, 82
1, 153855, Control_c, 0, 64, 91
1, 153870, Control_c, 0, 64, 104
1, 153885, Control_c, 0, 64, 127
1, 153928, Note_off_c, 0, 66, 48
1, 154107, Note_off_c, 0, 57, 37
1, 154136, Note_off_c, 0, 39, 35
1, 154159, Note_on_c, 0, 51, 63
1, 154235, Note_off_c, 0, 60, 31
1, 154288, Note_off_c, 0, 51, 53
1, 154626, Note_on_c, 0, 66, 82
1, 154825, Note_off_c, 0, 66, 59
1, 154848, Note_on_c, 0, 67, 84
1, 154861, Note_on_c, 0, 55, 74
1, 154864, Note_on_c, 0, 60, 65
1, 154866, Note_off_c, 0, 48, 33
1, 154868, Note_on_c, 0, 40, 61
1, 154885, Control_c, 0, 64, 89
1, 154900, Control_c, 0, 64, 68
1, 154915, Control_c, 0, 64, 47
1, 154929, Control_c, 0, 64, 0
1, 155034, Control_c, 0, 64, 19
1, 155049, Control_c, 0, 64, 54
1, 155063, Control_c, 0, 64, 65
1, 155078, Control_c, 0, 64, 73
1, 155093, Control_c, 0, 64, 90
1, 155107, Note_off_c, 0, 55, 37
1, 155108, Control_c, 0, 64, 127
1, 155118, Note_off_c, 0, 40, 56
1, 155143, Note_off_c, 0, 67, 57
1, 155180, Note_off_c, 0, 60, 53
1, 155639, Note_on_c, 0, 69, 82
1, 155651, Note_on_c, 0, 57, 66
1, 155656, Note_on_c, 0, 62, 65
1, 155660, Note_on_c, 0, 60, 65
1, 155677, Note_on_c, 0, 41, 51
1, 155682, Note_on_c, 0, 29, 50
1, 155708, Control_c, 0, 64, 93
1, 155723, Control_c, 0, 64, 73
1, 155738, Control_c, 0, 64, 59
1, 155752, Control_c, 0, 64, 23
1, 155767, Control_c, 0, 64, 0
1, 155901, Control_c, 0, 64, 27
1, 155916, Control_c, 0, 64, 49
1, 155931, Control_c, 0, 64, 61
1, 155946, Control_c, 0, 64, 66
1, 155967, Control_c, 0, 64, 73
1, 155982, Control_c, 0, 64, 85
1, 155997, Control_c, 0, 64, 103
1, 156011, Control_c, 0, 64, 127
1, 156081, Note_off_c, 0, 41, 60
1, 156095, Note_off_c, 0, 29, 40
1, 156441, Control_c, 0, 64, 115
1, 156456, Control_c, 0, 64, 101
1, 156471, Control_c, 0, 64, 91
1, 156478, Note_on_c, 0, 42, 41
1, 156486, Control_c, 0, 64, 83
1, 156498, Note_on_c, 0, 30, 35
1, 156501, Control_c, 0, 64, 77
1, 156515, Control_c, 0, 64, 72
1, 156530, Control_c, 0, 64, 67
1, 156545, Control_c, 0, 64, 64
1, 156560, Control_c, 0, 64, 62
1, 156575, Control_c, 0, 64, 61
1, 156605, Control_c, 0, 64, 61
1, 156620, Control_c, 0, 64, 60
1, 156634, Control_c, 0, 64, 57
1, 156649, Control_c, 0, 64, 51
1, 156664, Control_c, 0, 64, 46
1, 156679, Control_c, 0, 64, 42
1, 156694, Control_c, 0, 64, 40
1, 156715, Control_c, 0, 64, 37
1, 156730, Control_c, 0, 64, 29
1, 156730, Control_c, 0, 67, 10
1, 156745, Control_c, 0, 64, 17
1, 156745, Control_c, 0, 67, 19
1, 156760, Control_c, 0, 64, 0
1, 156760, Control_c, 0, 67, 26
1, 156775, Control_c, 0, 67, 32
1, 156789, Control_c, 0, 67, 36
1, 156804, Control_c, 0, 67, 37
1, 156819, Control_c, 0, 67, 38
1, 156864, Control_c, 0, 67, 37
1, 156879, Control_c, 0, 67, 37
1, 156894, Control_c, 0, 67, 35
1, 156909, Control_c, 0, 67, 34
1, 156924, Control_c, 0, 67, 34
1, 156938, Control_c, 0, 67, 32
1, 156953, Control_c, 0, 64, 12
1, 156953, Control_c, 0, 67, 32
1, 156968, Control_c, 0, 64, 35
1, 156968, Control_c, 0, 67, 30
1, 156983, Control_c, 0, 64, 49
1, 156983, Control_c, 0, 67, 28
1, 156998, Control_c, 0, 64, 59
1, 156998, Control_c, 0, 67, 27
1, 157013, Control_c, 0, 64, 63
1, 157013, Control_c, 0, 67, 26
1, 157028, Control_c, 0, 64, 65
1, 157028, Control_c, 0, 67, 26
1, 157043, Control_c, 0, 64, 67
1, 157043, Control_c, 0, 67, 24
1, 157057, Control_c, 0, 64, 70
1, 157057, Control_c, 0, 67, 24
1, 157072, Control_c, 0, 64, 73
1, 157087, Control_c, 0, 64, 78
1, 157102, Control_c, 0, 64, 86
1, 157117, Control_c, 0, 64, 95
1, 157117, Control_c, 0, 67, 24
1, 157131, Control_c, 0, 64, 108
1, 157131, Control_c, 0, 67, 26
1, 157146, Control_c, 0, 64, 127
1, 157146, Control_c, 0, 67, 27
1, 157161, Control_c, 0, 67, 27
1, 157162, Note_off_c, 0, 57, 40
1, 157172, Note_off_c, 0, 62, 56
1, 157176, Control_c, 0, 67, 29
1, 157182, Note_off_c, 0, 60, 56
1, 157191, Control_c, 0, 67, 29
1, 157205, Control_c, 0, 67, 30
1, 157220, Control_c, 0, 67, 31
1, 157235, Control_c, 0, 67, 32
1, 157249, Control_c, 0, 67, 32
1, 157264, Control_c, 0, 67, 34
1, 157266, Note_off_c, 0, 69, 49
1, 157279, Control_c, 0, 67, 34
1, 157309, Control_c, 0, 67, 35
1, 157323, Control_c, 0, 67, 36
1, 157338, Control_c, 0, 67, 36
1, 157353, Control_c, 0, 67, 37
1, 157368, Control_c, 0, 67, 37
1, 157383, Control_c, 0, 67, 38
1, 157412, Control_c, 0, 67, 39
1, 157442, Control_c, 0, 67, 39
1, 157464, Control_c, 0, 67, 40
1, 157470, Note_off_c, 0, 30, 35
1, 157479, Control_c, 0, 67, 41
1, 157494, Control_c, 0, 67, 41
1, 157509, Control_c, 0, 67, 42
1, 157538, Control_c, 0, 67, 45
1, 157553, Control_c, 0, 67, 55
1, 157568, Control_c, 0, 67, 66
1, 157582, Control_c, 0, 67, 76
1, 157597, Note_off_c, 0, 42, 41
1, 157597, Control_c, 0, 67, 85
1, 157612, Control_c, 0, 67, 94
1, 157627, Control_c, 0, 67, 99
1, 157642, Control_c, 0, 67, 104
1, 157657, Control_c, 0, 67, 107
1, 157672, Control_c, 0, 67, 109
1, 157686, Note_on_c, 0, 69, 55
1, 157687, Control_c, 0, 67, 110
1, 157702, Control_c, 0, 67, 111
1, 157821, Control_c, 0, 67, 110
1, 157822, Note_off_c, 0, 69, 55
1, 157836, Control_c, 0, 67, 110
1, 157842, Note_on_c, 0, 65, 50
1, 157851, Control_c, 0, 64, 106
1, 157858, Note_on_c, 0, 59, 36
1, 157861, Note_on_c, 0, 62, 35
1, 157866, Control_c, 0, 64, 93
1, 157880, Control_c, 0, 64, 83
1, 157895, Note_on_c, 0, 43, 28
1, 157895, Control_c, 0, 64, 75
1, 157901, Note_on_c, 0, 31, 20
1, 157910, Control_c, 0, 64, 68
1, 157910, Control_c, 0, 67, 109
1, 157925, Control_c, 0, 64, 62
1, 157940, Control_c, 0, 64, 55
1, 157954, Control_c, 0, 64, 48
1, 157969, Control_c, 0, 64, 43
1, 157984, Control_c, 0, 64, 36
1, 157984, Control_c, 0, 67, 109
1, 157998, Control_c, 0, 64, 21
1, 158013, Control_c, 0, 64, 0
1, 158028, Control_c, 0, 67, 108
1, 158043, Control_c, 0, 67, 107
1, 158073, Control_c, 0, 67, 107
1, 158087, Control_c, 0, 67, 106
1, 158102, Control_c, 0, 67, 105
1, 158117, Control_c, 0, 64, 33
1, 158117, Control_c, 0, 67, 104
1, 158132, Control_c, 0, 64, 49
1, 158132, Control_c, 0, 67, 103
1, 158147, Control_c, 0, 64, 58
1, 158147, Control_c, 0, 67, 102
1, 158161, Control_c, 0, 64, 62
1, 158161, Control_c, 0, 67, 101
1, 158176, Control_c, 0, 64, 64
1, 158176, Control_c, 0, 67, 99
1, 158191, Control_c, 0, 64, 65
1, 158191, Control_c, 0, 67, 96
1, 158213, Control_c, 0, 64, 66
1, 158213, Control_c, 0, 67, 93
1, 158228, Control_c, 0, 64, 67
1, 158228, Control_c, 0, 67, 92
1, 158243, Control_c, 0, 64, 68
1, 158258, Control_c, 0, 64, 70
1, 158273, Control_c, 0, 64, 73
1, 158273, Control_c, 0, 67, 92
1, 158287, Control_c, 0, 64, 76
1, 158302, Control_c, 0, 64, 79
1, 158302, Control_c, 0, 67, 91
1, 158317, Control_c, 0, 64, 81
1, 158317, Control_c, 0, 67, 90
1, 158332, Control_c, 0, 64, 82
1, 158347, Control_c, 0, 64, 83
1, 158361, Control_c, 0, 64, 84
1, 158405, Control_c, 0, 67, 91
1, 158420, Control_c, 0, 64, 83
1, 158435, Control_c, 0, 67, 92
1, 158450, Control_c, 0, 64, 83
1, 158465, Control_c, 0, 64, 82
1, 158465, Control_c, 0, 67, 92
1, 158480, Control_c, 0, 64, 81
1, 158480, Control_c, 0, 67, 93
1, 158494, Control_c, 0, 64, 80
1, 158494, Control_c, 0, 67, 94
1, 158510, Control_c, 0, 64, 79
1, 158510, Control_c, 0, 67, 95
1, 158525, Control_c, 0, 64, 76
1, 158525, Control_c, 0, 67, 95
1, 158538, Note_on_c, 0, 67, 47
1, 158540, Control_c, 0, 64, 72
1, 158540, Control_c, 0, 67, 96
1, 158555, Control_c, 0, 64, 65
1, 158555, Control_c, 0, 67, 97
1, 158570, Control_c, 0, 64, 56
1, 158584, Control_c, 0, 64, 28
1, 158599, Control_c, 0, 64, 0
1, 158658, Control_c, 0, 64, 14
1, 158663, Note_off_c, 0, 65, 34
1, 158673, Control_c, 0, 64, 33
1, 158688, Control_c, 0, 64, 48
1, 158688, Control_c, 0, 67, 96
1, 158703, Control_c, 0, 64, 58
1, 158703, Control_c, 0, 67, 95
1, 158718, Control_c, 0, 64, 63
1, 158718, Control_c, 0, 67, 95
1, 158733, Control_c, 0, 64, 65
1, 158733, Control_c, 0, 67, 94
1, 158748, Control_c, 0, 64, 67
1, 158763, Control_c, 0, 64, 69
1, 158763, Note_off_c, 0, 62, 39
1, 158777, Control_c, 0, 64, 71
1, 158792, Control_c, 0, 64, 73
1, 158807, Control_c, 0, 64, 76
1, 158822, Control_c, 0, 64, 79
1, 158836, Control_c, 0, 64, 82
1, 158851, Control_c, 0, 64, 85
1, 158866, Control_c, 0, 64, 89
1, 158881, Control_c, 0, 64, 92
1, 158896, Control_c, 0, 64, 94
1, 158910, Control_c, 0, 64, 96
1, 158910, Control_c, 0, 67, 95
1, 158925, Control_c, 0, 64, 97
1, 158940, Control_c, 0, 64, 99
1, 158940, Control_c, 0, 67, 95
1, 158962, Control_c, 0, 64, 100
1, 158977, Control_c, 0, 64, 101
1, 158977, Control_c, 0, 67, 96
1, 158992, Control_c, 0, 64, 102
1, 159022, Control_c, 0, 67, 97
1, 159096, Control_c, 0, 64, 101
1, 159096, Control_c, 0, 67, 97
1, 159110, Control_c, 0, 64, 100
1, 159125, Control_c, 0, 64, 100
1, 159140, Control_c, 0, 64, 99
1, 159155, Control_c, 0, 64, 98
1, 159170, Control_c, 0, 64, 97
1, 159173, Note_on_c, 0, 60, 43
1, 159184, Control_c, 0, 64, 96
1, 159199, Control_c, 0, 64, 94
1, 159199, Control_c, 0, 67, 98
1, 159214, Control_c, 0, 64, 92
1, 159214, Control_c, 0, 67, 99
1, 159228, Control_c, 0, 64, 90
1, 159243, Control_c, 0, 64, 85
1, 159258, Control_c, 0, 64, 79
1, 159258, Control_c, 0, 67, 99
1, 159270, Note_off_c, 0, 59, 37
1, 159273, Control_c, 0, 64, 73
1, 159273, Control_c, 0, 67, 100
1, 159285, Note_off_c, 0, 67, 36
1, 159288, Control_c, 0, 64, 67
1, 159304, Control_c, 0, 64, 62
1, 159304, Control_c, 0, 67, 100
1, 159319, Control_c, 0, 64, 56
1, 159319, Control_c, 0, 67, 101
1, 159333, Control_c, 0, 64, 53
1, 159333, Control_c, 0, 67, 102
1, 159348, Control_c, 0, 64, 52
1, 159348, Control_c, 0, 67, 102
1, 159363, Control_c, 0, 64, 49
1, 159378, Control_c, 0, 64, 43
1, 159393, Control_c, 0, 64, 29
1, 159393, Control_c, 0, 67, 103
1, 159407, Control_c, 0, 64, 0
1, 159496, Control_c, 0, 67, 102
1, 159511, Control_c, 0, 64, 25
1, 159511, Control_c, 0, 67, 102
1, 159526, Control_c, 0, 64, 38
1, 159541, Control_c, 0, 64, 50
1, 159556, Control_c, 0, 64, 56
1, 159556, Control_c, 0, 67, 101
1, 159571, Control_c, 0, 64, 60
1, 159586, Control_c, 0, 64, 62
1, 159600, Control_c, 0, 64, 63
1, 159615, Control_c, 0, 64, 64
1, 159630, Control_c, 0, 64, 65
1, 159645, Control_c, 0, 64, 66
1, 159659, Control_c, 0, 64, 67
1, 159674, Control_c, 0, 64, 69
1, 159689, Control_c, 0, 64, 71
1, 159711, Control_c, 0, 64, 72
1, 159726, Control_c, 0, 64, 74
1, 159741, Control_c, 0, 64, 75
1, 159755, Control_c, 0, 64, 76
1, 159770, Control_c, 0, 64, 76
1, 159773, Note_off_c, 0, 60, 32
1, 159785, Control_c, 0, 67, 102
1, 159815, Control_c, 0, 67, 102
1, 159845, Control_c, 0, 64, 76
1, 159857, Note_on_c, 0, 40, 31
1, 159874, Control_c, 0, 64, 75
1, 159874, Control_c, 0, 67, 103
1, 159889, Control_c, 0, 67, 104
1, 159904, Control_c, 0, 64, 75
1, 159919, Control_c, 0, 64, 74
1, 159919, Control_c, 0, 67, 104
1, 159933, Control_c, 0, 64, 73
1, 159948, Control_c, 0, 64, 73
1, 159948, Control_c, 0, 67, 105
1, 159963, Control_c, 0, 64, 72
1, 159977, Control_c, 0, 64, 69
1, 159977, Control_c, 0, 67, 105
1, 159984, Note_off_c, 0, 43, 24
1, 159990, Note_off_c, 0, 31, 33
1, 159992, Control_c, 0, 64, 67
1, 160007, Control_c, 0, 64, 65
1, 160007, Control_c, 0, 67, 106
1, 160022, Control_c, 0, 64, 62
1, 160037, Control_c, 0, 64, 60
1, 160037, Control_c, 0, 67, 107
1, 160051, Control_c, 0, 64, 59
1, 160066, Control_c, 0, 64, 58
1, 160081, Control_c, 0, 64, 57
1, 160081, Control_c, 0, 67, 107
1, 160097, Control_c, 0, 64, 56
1, 160112, Control_c, 0, 64, 55
1, 160127, Control_c, 0, 64, 54
1, 160127, Control_c, 0, 67, 108
1, 160142, Control_c, 0, 64, 52
1, 160156, Control_c, 0, 64, 50
1, 160156, Control_c, 0, 67, 109
1, 160171, Control_c, 0, 64, 48
1, 160186, Control_c, 0, 64, 47
1, 160186, Control_c, 0, 67, 109
1, 160201, Control_c, 0, 64, 45
1, 160216, Control_c, 0, 64, 43
1, 160230, Control_c, 0, 64, 41
1, 160230, Control_c, 0, 67, 110
1, 160245, Control_c, 0, 64, 40
1, 160260, Control_c, 0, 64, 38
1, 160274, Control_c, 0, 64, 37
1, 160289, Control_c, 0, 64, 36
1, 160304, Control_c, 0, 64, 35
1, 160319, Control_c, 0, 64, 34
1, 160334, Control_c, 0, 64, 33
1, 160334, Control_c, 0, 67, 110
1, 160349, Control_c, 0, 64, 32
1, 160364, Control_c, 0, 64, 31
1, 160378, Control_c, 0, 64, 31
1, 160378, Control_c, 0, 67, 111
1, 160393, Control_c, 0, 64, 30
1, 160408, Control_c, 0, 64, 30
1, 160408, Control_c, 0, 67, 112
1, 160460, Control_c, 0, 64, 29
1, 160489, Control_c, 0, 64, 29
1, 160489, Control_c, 0, 67, 112
1, 160505, Note_on_c, 0, 36, 27
1, 160563, Control_c, 0, 64, 28
1, 160643, Note_off_c, 0, 40, 40
1, 160657, Note_on_c, 0, 67, 36
1, 160668, Control_c, 0, 67, 112
1, 160682, Control_c, 0, 67, 111
1, 160697, Control_c, 0, 67, 110
1, 160712, Control_c, 0, 67, 110
1, 160727, Control_c, 0, 67, 109
1, 160742, Control_c, 0, 67, 108
1, 160771, Control_c, 0, 67, 107
1, 160786, Control_c, 0, 67, 106
1, 160800, Control_c, 0, 67, 105
1, 160809, Note_on_c, 0, 69, 51
1, 160815, Control_c, 0, 67, 104
1, 160845, Control_c, 0, 67, 103
1, 160846, Note_off_c, 0, 67, 32
1, 160860, Control_c, 0, 67, 102
1, 160874, Control_c, 0, 67, 102
1, 160889, Control_c, 0, 67, 101
1, 160905, Control_c, 0, 67, 100
1, 160954, Note_on_c, 0, 71, 46
1, 160975, Note_off_c, 0, 69, 36
1, 160979, Control_c, 0, 67, 100
1, 161083, Control_c, 0, 67, 100
1, 161099, Note_on_c, 0, 72, 51
1, 161104, Note_off_c, 0, 71, 54
1, 161112, Control_c, 0, 67, 101
1, 161118, Note_off_c, 0, 36, 43
1, 161243, Note_off_c, 0, 72, 60
1, 161261, Note_on_c, 0, 67, 46
1, 161268, Control_c, 0, 64, 29
1, 161394, Note_on_c, 0, 72, 49
1, 161411, Note_off_c, 0, 67, 53
1, 161431, Control_c, 0, 67, 102
1, 161460, Control_c, 0, 67, 102
1, 161490, Control_c, 0, 67, 103
1, 161520, Control_c, 0, 67, 104
1, 161535, Control_c, 0, 67, 104
1, 161541, Note_off_c, 0, 72, 58
1, 161555, Note_on_c, 0, 74, 46
1, 161579, Control_c, 0, 67, 105
1, 161594, Control_c, 0, 67, 105
1, 161609, Control_c, 0, 67, 106
1, 161638, Control_c, 0, 67, 107
1, 161653, Control_c, 0, 67, 107
1, 161668, Control_c, 0, 67, 108
1, 161699, Control_c, 0, 67, 109
1, 161708, Note_on_c, 0, 60, 53
1, 161714, Control_c, 0, 67, 109
1, 161714, Note_on_c, 0, 76, 44
1, 161722, Note_off_c, 0, 74, 36
1, 161743, Control_c, 0, 67, 110
1, 161758, Control_c, 0, 67, 110
1, 161788, Control_c, 0, 67, 111
1, 161802, Control_c, 0, 67, 112
1, 161832, Control_c, 0, 67, 112
1, 161847, Note_on_c, 0, 74, 46
1, 161853, Note_off_c, 0, 76, 54
1, 161861, Control_c, 0, 67, 113
1, 161876, Control_c, 0, 67, 114
1, 161906, Control_c, 0, 67, 114
1, 161935, Control_c, 0, 67, 115
1, 161973, Control_c, 0, 67, 115
1, 161988, Control_c, 0, 67, 116
1, 162016, Note_on_c, 0, 72, 43
1, 162040, Note_off_c, 0, 74, 46
1, 162046, Control_c, 0, 67, 118
1, 162061, Control_c, 0, 67, 127
1, 162138, Note_off_c, 0, 72, 55
1, 162152, Note_on_c, 0, 71, 45
1, 162253, Control_c, 0, 64, 31
1, 162268, Control_c, 0, 64, 33
1, 162283, Note_off_c, 0, 71, 57
1, 162283, Control_c, 0, 64, 36
1, 162298, Control_c, 0, 64, 40
1, 162304, Note_on_c, 0, 72, 43
1, 162313, Control_c, 0, 64, 43
1, 162328, Control_c, 0, 64, 46
1, 162343, Control_c, 0, 64, 47
1, 162358, Control_c, 0, 64, 48
1, 162373, Control_c, 0, 64, 49
1, 162402, Control_c, 0, 67, 127
1, 162417, Control_c, 0, 67, 125
1, 162432, Control_c, 0, 67, 124
1, 162438, Note_off_c, 0, 72, 58
1, 162444, Note_on_c, 0, 67, 51
1, 162446, Control_c, 0, 67, 124
1, 162461, Control_c, 0, 64, 49
1, 162461, Control_c, 0, 67, 123
1, 162476, Control_c, 0, 64, 50
1, 162476, Control_c, 0, 67, 122
1, 162491, Control_c, 0, 64, 52
1, 162491, Control_c, 0, 67, 120
1, 162507, Control_c, 0, 64, 54
1, 162507, Control_c, 0, 67, 119
1, 162522, Control_c, 0, 64, 56
1, 162522, Control_c, 0, 67, 117
1, 162537, Control_c, 0, 64, 57
1, 162537, Control_c, 0, 67, 117
1, 162551, Control_c, 0, 64, 59
1, 162566, Control_c, 0, 64, 60
1, 162566, Control_c, 0, 67, 115
1, 162581, Note_on_c, 0, 76, 59
1, 162581, Control_c, 0, 64, 62
1, 162581, Control_c, 0, 67, 114
1, 162596, Control_c, 0, 64, 62
1, 162596, Control_c, 0, 67, 112
1, 162608, Note_off_c, 0, 67, 54
1, 162611, Control_c, 0, 64, 63
1, 162611, Control_c, 0, 67, 111
1, 162625, Control_c, 0, 64, 64
1, 162640, Control_c, 0, 64, 64
1, 162640, Control_c, 0, 67, 110
1, 162712, Note_on_c, 0, 72, 57
1, 162728, Note_on_c, 0, 64, 46
1, 162728, Note_off_c, 0, 76, 57
1, 162736, Control_c, 0, 64, 64
1, 162736, Control_c, 0, 67, 110
1, 162751, Control_c, 0, 64, 63
1, 162781, Control_c, 0, 64, 63
1, 162796, Control_c, 0, 64, 62
1, 162796, Control_c, 0, 67, 109
1, 162811, Control_c, 0, 64, 61
1, 162825, Control_c, 0, 64, 59
1, 162840, Control_c, 0, 64, 57
1, 162852, Note_off_c, 0, 72, 60
1, 162855, Control_c, 0, 64, 55
1, 162867, Note_on_c, 0, 71, 53
1, 162869, Note_on_c, 0, 62, 50
1, 162869, Control_c, 0, 64, 53
1, 162869, Control_c, 0, 67, 109
1, 162884, Control_c, 0, 64, 51
1, 162899, Control_c, 0, 64, 50
1, 162912, Note_off_c, 0, 64, 49
1, 162914, Control_c, 0, 64, 48
1, 162929, Control_c, 0, 64, 45
1, 162929, Control_c, 0, 67, 108
1, 162943, Control_c, 0, 64, 43
1, 162956, Note_off_c, 0, 60, 37
1, 162958, Control_c, 0, 64, 40
1, 162973, Control_c, 0, 64, 39
1, 162988, Control_c, 0, 64, 39
1, 162988, Control_c, 0, 67, 107
1, 162998, Note_off_c, 0, 71, 60
1, 163003, Control_c, 0, 64, 38
1, 163017, Control_c, 0, 64, 38
1, 163019, Note_on_c, 0, 69, 50
1, 163032, Control_c, 0, 64, 37
1, 163047, Control_c, 0, 64, 37
1, 163076, Control_c, 0, 64, 36
1, 163166, Control_c, 0, 64, 37
1, 163166, Note_on_c, 0, 71, 54
1, 163180, Control_c, 0, 64, 39
1, 163195, Control_c, 0, 64, 42
1, 163210, Control_c, 0, 64, 46
1, 163225, Control_c, 0, 64, 50
1, 163240, Control_c, 0, 64, 54
1, 163255, Control_c, 0, 64, 57
1, 163269, Control_c, 0, 64, 59
1, 163284, Control_c, 0, 64, 59
1, 163284, Control_c, 0, 67, 108
1, 163289, Note_off_c, 0, 71, 52
1, 163300, Note_on_c, 0, 72, 50
1, 163300, Control_c, 0, 64, 60
1, 163300, Control_c, 0, 67, 109
1, 163315, Control_c, 0, 67, 110
1, 163316, Note_off_c, 0, 69, 20
1, 163330, Control_c, 0, 67, 111
1, 163344, Control_c, 0, 67, 113
1, 163359, Control_c, 0, 67, 114
1, 163374, Control_c, 0, 67, 115
1, 163389, Control_c, 0, 67, 117
1, 163404, Control_c, 0, 67, 118
1, 163416, Note_off_c, 0, 72, 55
1, 163419, Control_c, 0, 64, 59
1, 163419, Control_c, 0, 67, 119
1, 163434, Control_c, 0, 64, 59
1, 163449, Note_on_c, 0, 74, 50
1, 163455, Control_c, 0, 64, 58
1, 163461, Note_on_c, 0, 55, 49
1, 163470, Control_c, 0, 64, 57
1, 163485, Control_c, 0, 64, 57
1, 163500, Control_c, 0, 64, 56
1, 163515, Control_c, 0, 64, 54
1, 163530, Control_c, 0, 64, 53
1, 163545, Control_c, 0, 64, 52
1, 163560, Control_c, 0, 64, 50
1, 163574, Control_c, 0, 64, 48
1, 163589, Note_off_c, 0, 74, 55
1, 163589, Control_c, 0, 64, 47
1, 163602, Note_on_c, 0, 72, 47
1, 163604, Control_c, 0, 64, 45
1, 163604, Control_c, 0, 67, 118
1, 163619, Control_c, 0, 64, 42
1, 163634, Control_c, 0, 64, 39
1, 163648, Control_c, 0, 64, 37
1, 163648, Control_c, 0, 67, 117
1, 163663, Control_c, 0, 64, 34
1, 163678, Note_off_c, 0, 62, 27
1, 163678, Control_c, 0, 64, 31
1, 163678, Control_c, 0, 67, 117
1, 163693, Control_c, 0, 64, 27
1, 163708, Control_c, 0, 64, 22
1, 163723, Control_c, 0, 64, 15
1, 163738, Control_c, 0, 64, 0
1, 163750, Note_on_c, 0, 71, 47
1, 163768, Control_c, 0, 67, 116
1, 163808, Note_off_c, 0, 72, 29
1, 163856, Control_c, 0, 67, 115
1, 163884, Note_off_c, 0, 71, 54
1, 163893, Note_on_c, 0, 69, 46
1, 164028, Note_on_c, 0, 67, 51
1, 164033, Control_c, 0, 67, 115
1, 164036, Note_off_c, 0, 69, 49
1, 164078, Control_c, 0, 67, 114
1, 164123, Control_c, 0, 67, 114
1, 164168, Control_c, 0, 64, 33
1, 164169, Note_on_c, 0, 69, 59
1, 164183, Control_c, 0, 64, 45
1, 164185, Note_off_c, 0, 67, 56
1, 164205, Control_c, 0, 64, 53
1, 164205, Control_c, 0, 67, 113
1, 164220, Control_c, 0, 64, 57
1, 164235, Control_c, 0, 64, 59
1, 164249, Control_c, 0, 64, 60
1, 164249, Control_c, 0, 67, 112
1, 164264, Control_c, 0, 64, 61
1, 164278, Control_c, 0, 64, 62
1, 164293, Control_c, 0, 64, 63
1, 164308, Control_c, 0, 64, 63
1, 164308, Control_c, 0, 67, 112
1, 164316, Note_off_c, 0, 69, 57
1, 164322, Note_on_c, 0, 71, 54
1, 164322, Control_c, 0, 64, 64
1, 164337, Control_c, 0, 64, 65
1, 164367, Control_c, 0, 64, 65
1, 164367, Control_c, 0, 67, 111
1, 164381, Note_off_c, 0, 71, 59
1, 164382, Control_c, 0, 64, 66
1, 164443, Note_on_c, 0, 67, 60
1, 164447, Note_on_c, 0, 62, 61
1, 164456, Control_c, 0, 64, 65
1, 164456, Control_c, 0, 67, 112
1, 164471, Control_c, 0, 67, 112
1, 164486, Control_c, 0, 64, 65
1, 164486, Control_c, 0, 67, 113
1, 164501, Control_c, 0, 64, 64
1, 164501, Control_c, 0, 67, 114
1, 164513, Note_off_c, 0, 55, 34
1, 164516, Control_c, 0, 64, 61
1, 164516, Control_c, 0, 67, 115
1, 164530, Control_c, 0, 64, 52
1, 164530, Control_c, 0, 67, 116
1, 164545, Control_c, 0, 64, 0
1, 164545, Control_c, 0, 67, 117
1, 164559, Note_off_c, 0, 67, 58
1, 164591, Note_on_c, 0, 73, 63
1, 164592, Note_on_c, 0, 64, 64
1, 164604, Control_c, 0, 67, 116
1, 164607, Note_off_c, 0, 62, 63
1, 164619, Control_c, 0, 67, 115
1, 164634, Control_c, 0, 67, 115
1, 164678, Control_c, 0, 67, 114
1, 164684, Note_off_c, 0, 73, 65
1, 164708, Control_c, 0, 67, 114
1, 164731, Note_on_c, 0, 70, 64
1, 164737, Control_c, 0, 67, 113
1, 164752, Control_c, 0, 67, 112
1, 164782, Control_c, 0, 67, 112
1, 164796, Control_c, 0, 64, 24
1, 164796, Control_c, 0, 67, 111
1, 164811, Control_c, 0, 64, 44
1, 164811, Control_c, 0, 67, 110
1, 164826, Control_c, 0, 64, 57
1, 164826, Control_c, 0, 67, 110
1, 164841, Control_c, 0, 64, 62
1, 164841, Control_c, 0, 67, 109
1, 164856, Control_c, 0, 64, 66
1, 164856, Control_c, 0, 67, 109
1, 164871, Control_c, 0, 64, 69
1, 164871, Control_c, 0, 67, 108
1, 164874, Note_on_c, 0, 73, 74
1, 164886, Control_c, 0, 64, 73
1, 164886, Control_c, 0, 67, 107
1, 164900, Note_off_c, 0, 70, 60
1, 164901, Control_c, 0, 64, 78
1, 164901, Control_c, 0, 67, 107
1, 164916, Control_c, 0, 64, 85
1, 164916, Control_c, 0, 67, 105
1, 164919, Note_off_c, 0, 64, 57
1, 164931, Control_c, 0, 64, 92
1, 164931, Control_c, 0, 67, 104
1, 164953, Control_c, 0, 64, 101
1, 164953, Control_c, 0, 67, 102
1, 164968, Control_c, 0, 64, 113
1, 164968, Control_c, 0, 67, 94
1, 164983, Control_c, 0, 64, 127
1, 164983, Control_c, 0, 67, 74
1, 164998, Control_c, 0, 67, 54
1, 165008, Note_on_c, 0, 76, 73
1, 165013, Control_c, 0, 67, 39
1, 165027, Control_c, 0, 67, 29
1, 165028, Note_off_c, 0, 73, 63
1, 165042, Control_c, 0, 67, 22
1, 165057, Control_c, 0, 67, 21
1, 165131, Control_c, 0, 67, 22
1, 165145, Control_c, 0, 64, 109
1, 165145, Control_c, 0, 67, 22
1, 165154, Note_off_c, 0, 76, 57
1, 165156, Note_on_c, 0, 79, 69
1, 165160, Control_c, 0, 64, 98
1, 165160, Control_c, 0, 67, 24
1, 165172, Note_on_c, 0, 64, 65
1, 165175, Control_c, 0, 64, 86
1, 165175, Control_c, 0, 67, 25
1, 165190, Control_c, 0, 64, 74
1, 165190, Control_c, 0, 67, 27
1, 165205, Control_c, 0, 64, 66
1, 165205, Control_c, 0, 67, 29
1, 165219, Control_c, 0, 64, 60
1, 165219, Control_c, 0, 67, 31
1, 165234, Control_c, 0, 64, 53
1, 165234, Control_c, 0, 67, 32
1, 165249, Control_c, 0, 64, 49
1, 165249, Control_c, 0, 67, 34
1, 165264, Note_off_c, 0, 79, 61
1, 165264, Control_c, 0, 64, 48
1, 165264, Control_c, 0, 67, 35
1, 165279, Control_c, 0, 64, 48
1, 165279, Control_c, 0, 67, 37
1, 165294, Control_c, 0, 64, 46
1, 165294, Control_c, 0, 67, 38
1, 165305, Note_on_c, 0, 76, 59
1, 165309, Control_c, 0, 64, 41
1, 165309, Control_c, 0, 67, 40
1, 165324, Control_c, 0, 64, 34
1, 165324, Control_c, 0, 67, 41
1, 165339, Control_c, 0, 64, 27
1, 165339, Control_c, 0, 67, 42
1, 165353, Control_c, 0, 64, 22
1, 165353, Control_c, 0, 67, 44
1, 165368, Control_c, 0, 64, 19
1, 165368, Control_c, 0, 67, 45
1, 165383, Control_c, 0, 64, 19
1, 165383, Control_c, 0, 67, 46
1, 165398, Control_c, 0, 64, 18
1, 165398, Control_c, 0, 67, 47
1, 165413, Control_c, 0, 64, 17
1, 165413, Control_c, 0, 67, 48
1, 165427, Control_c, 0, 64, 15
1, 165427, Control_c, 0, 67, 49
1, 165442, Control_c, 0, 64, 14
1, 165442, Control_c, 0, 67, 51
1, 165457, Control_c, 0, 67, 55
1, 165459, Note_on_c, 0, 82, 60
1, 165471, Control_c, 0, 64, 13
1, 165471, Control_c, 0, 67, 59
1, 165472, Note_off_c, 0, 76, 55
1, 165486, Control_c, 0, 67, 62
1, 165501, Control_c, 0, 67, 64
1, 165516, Control_c, 0, 67, 67
1, 165531, Control_c, 0, 64, 12
1, 165531, Control_c, 0, 67, 69
1, 165545, Control_c, 0, 67, 72
1, 165560, Control_c, 0, 67, 77
1, 165575, Control_c, 0, 67, 83
1, 165590, Control_c, 0, 67, 90
1, 165598, Note_on_c, 0, 79, 58
1, 165605, Control_c, 0, 67, 99
1, 165606, Note_off_c, 0, 82, 56
1, 165619, Control_c, 0, 67, 107
1, 165634, Control_c, 0, 67, 115
1, 165649, Control_c, 0, 67, 120
1, 165664, Control_c, 0, 67, 122
1, 165678, Control_c, 0, 64, 11
1, 165678, Control_c, 0, 67, 124
1, 165732, Control_c, 0, 67, 123
1, 165747, Note_on_c, 0, 82, 57
1, 165747, Control_c, 0, 67, 121
1, 165750, Note_off_c, 0, 79, 59
1, 165762, Control_c, 0, 67, 119
1, 165776, Control_c, 0, 67, 117
1, 165791, Control_c, 0, 67, 114
1, 165806, Control_c, 0, 67, 112
1, 165821, Control_c, 0, 67, 110
1, 165836, Control_c, 0, 67, 109
1, 165850, Control_c, 0, 67, 107
1, 165865, Control_c, 0, 67, 104
1, 165880, Control_c, 0, 67, 103
1, 165892, Note_on_c, 0, 79, 54
1, 165894, Control_c, 0, 67, 102
1, 165899, Note_off_c, 0, 82, 59
1, 165909, Control_c, 0, 67, 101
1, 165924, Control_c, 0, 67, 100
1, 165939, Control_c, 0, 64, 12
1, 165939, Control_c, 0, 67, 99
1, 165954, Control_c, 0, 64, 19
1, 165968, Control_c, 0, 64, 25
1, 165968, Control_c, 0, 67, 99
1, 165983, Control_c, 0, 64, 34
1, 165983, Control_c, 0, 67, 98
1, 165998, Control_c, 0, 64, 44
1, 165998, Control_c, 0, 67, 97
1, 166013, Control_c, 0, 64, 53
1, 166013, Control_c, 0, 67, 97
1, 166028, Control_c, 0, 64, 60
1, 166030, Note_off_c, 0, 79, 60
1, 166038, Note_on_c, 0, 76, 52
1, 166042, Control_c, 0, 64, 63
1, 166042, Control_c, 0, 67, 96
1, 166057, Control_c, 0, 64, 65
1, 166072, Control_c, 0, 64, 66
1, 166072, Control_c, 0, 67, 95
1, 166087, Control_c, 0, 64, 68
1, 166087, Control_c, 0, 67, 95
1, 166102, Control_c, 0, 64, 71
1, 166117, Control_c, 0, 64, 74
1, 166132, Control_c, 0, 64, 77
1, 166135, Note_off_c, 0, 76, 56
1, 166146, Control_c, 0, 64, 79
1, 166157, Note_on_c, 0, 73, 59
1, 166161, Control_c, 0, 64, 81
1, 166172, Note_on_c, 0, 67, 55
1, 166176, Control_c, 0, 67, 97
1, 166188, Note_off_c, 0, 64, 56
1, 166191, Control_c, 0, 64, 80
1, 166191, Control_c, 0, 67, 98
1, 166206, Control_c, 0, 64, 80
1, 166206, Control_c, 0, 67, 100
1, 166221, Control_c, 0, 64, 79
1, 166221, Control_c, 0, 67, 101
1, 166236, Control_c, 0, 64, 78
1, 166236, Control_c, 0, 67, 102
1, 166250, Control_c, 0, 64, 77
1, 166250, Control_c, 0, 67, 105
1, 166265, Control_c, 0, 64, 76
1, 166265, Control_c, 0, 67, 107
1, 166280, Control_c, 0, 64, 73
1, 166280, Control_c, 0, 67, 109
1, 166290, Note_on_c, 0, 82, 55
1, 166294, Control_c, 0, 64, 69
1, 166294, Control_c, 0, 67, 110
1, 166309, Control_c, 0, 64, 64
1, 166309, Control_c, 0, 67, 112
1, 166323, Note_on_c, 0, 64, 54
1, 166324, Control_c, 0, 64, 59
1, 166324, Control_c, 0, 67, 114
1, 166339, Control_c, 0, 64, 53
1, 166339, Control_c, 0, 67, 117
1, 166354, Control_c, 0, 64, 47
1, 166354, Control_c, 0, 67, 118
1, 166355, Note_off_c, 0, 67, 56
1, 166368, Control_c, 0, 64, 44
1, 166368, Control_c, 0, 67, 119
1, 166383, Control_c, 0, 64, 41
1, 166383, Control_c, 0, 67, 120
1, 166398, Control_c, 0, 64, 33
1, 166398, Control_c, 0, 67, 122
1, 166412, Control_c, 0, 64, 0
1, 166412, Control_c, 0, 67, 122
1, 166465, Note_on_c, 0, 79, 54
1, 166467, Note_off_c, 0, 82, 59
1, 166484, Note_off_c, 0, 73, 19
1, 166523, Control_c, 0, 67, 122
1, 166538, Control_c, 0, 67, 121
1, 166553, Control_c, 0, 64, 31
1, 166568, Control_c, 0, 64, 47
1, 166583, Control_c, 0, 64, 57
1, 166583, Control_c, 0, 67, 120
1, 166595, Note_on_c, 0, 76, 51
1, 166596, Note_off_c, 0, 79, 59
1, 166597, Control_c, 0, 64, 62
1, 166597, Control_c, 0, 67, 120
1, 166612, Control_c, 0, 64, 64
1, 166612, Control_c, 0, 67, 119
1, 166627, Control_c, 0, 64, 65
1, 166627, Control_c, 0, 67, 119
1, 166642, Control_c, 0, 64, 66
1, 166642, Control_c, 0, 67, 117
1, 166657, Control_c, 0, 64, 66
1, 166657, Control_c, 0, 67, 117
1, 166671, Control_c, 0, 64, 67
1, 166686, Control_c, 0, 64, 67
1, 166701, Control_c, 0, 64, 68
1, 166701, Control_c, 0, 67, 116
1, 166713, Note_off_c, 0, 76, 60
1, 166731, Control_c, 0, 67, 115
1, 166740, Note_on_c, 0, 73, 49
1, 166820, Control_c, 0, 64, 67
1, 166835, Control_c, 0, 64, 67
1, 166850, Control_c, 0, 64, 66
1, 166855, Note_off_c, 0, 73, 62
1, 166864, Control_c, 0, 64, 65
1, 166879, Control_c, 0, 64, 64
1, 166889, Note_on_c, 0, 81, 56
1, 166894, Control_c, 0, 64, 61
1, 166908, Note_on_c, 0, 65, 45
1, 166909, Control_c, 0, 64, 57
1, 166923, Control_c, 0, 64, 52
1, 166938, Control_c, 0, 64, 46
1, 166942, Note_off_c, 0, 64, 36
1, 166953, Control_c, 0, 64, 41
1, 166968, Control_c, 0, 64, 36
1, 166983, Control_c, 0, 64, 22
1, 166983, Control_c, 0, 67, 115
1, 166997, Control_c, 0, 64, 0
1, 167012, Control_c, 0, 67, 114
1, 167036, Note_on_c, 0, 77, 55
1, 167086, Control_c, 0, 67, 114
1, 167101, Control_c, 0, 67, 112
1, 167115, Control_c, 0, 67, 112
1, 167130, Control_c, 0, 67, 111
1, 167145, Control_c, 0, 64, 24
1, 167145, Control_c, 0, 67, 110
1, 167160, Control_c, 0, 64, 43
1, 167160, Control_c, 0, 67, 109
1, 167172, Note_on_c, 0, 74, 49
1, 167175, Control_c, 0, 64, 55
1, 167175, Control_c, 0, 67, 108
1, 167197, Control_c, 0, 64, 61
1, 167197, Control_c, 0, 67, 106
1, 167202, Note_off_c, 0, 77, 52
1, 167212, Control_c, 0, 64, 63
1, 167212, Control_c, 0, 67, 104
1, 167227, Control_c, 0, 64, 65
1, 167227, Control_c, 0, 67, 102
1, 167242, Control_c, 0, 64, 66
1, 167242, Control_c, 0, 67, 100
1, 167257, Control_c, 0, 64, 68
1, 167257, Control_c, 0, 67, 99
1, 167262, Note_off_c, 0, 81, 38
1, 167272, Control_c, 0, 64, 70
1, 167272, Control_c, 0, 67, 98
1, 167288, Control_c, 0, 64, 73
1, 167288, Control_c, 0, 67, 97
1, 167303, Control_c, 0, 64, 78
1, 167303, Control_c, 0, 67, 95
1, 167315, Note_on_c, 0, 69, 55
1, 167318, Control_c, 0, 64, 83
1, 167318, Control_c, 0, 67, 94
1, 167333, Control_c, 0, 64, 91
1, 167333, Control_c, 0, 67, 93
1, 167347, Control_c, 0, 64, 97
1, 167347, Control_c, 0, 67, 92
1, 167362, Control_c, 0, 64, 104
1, 167362, Control_c, 0, 67, 91
1, 167377, Control_c, 0, 64, 108
1, 167377, Control_c, 0, 67, 87
1, 167380, Note_off_c, 0, 74, 34
1, 167392, Control_c, 0, 64, 110
1, 167392, Control_c, 0, 67, 78
1, 167407, Control_c, 0, 64, 110
1, 167407, Control_c, 0, 67, 69
1, 167421, Control_c, 0, 67, 61
1, 167436, Control_c, 0, 64, 111
1, 167436, Control_c, 0, 67, 54
1, 167450, Note_on_c, 0, 81, 64
1, 167451, Control_c, 0, 67, 47
1, 167466, Control_c, 0, 67, 40
1, 167472, Note_off_c, 0, 69, 31
1, 167481, Control_c, 0, 67, 33
1, 167495, Control_c, 0, 67, 27
1, 167510, Control_c, 0, 67, 21
1, 167525, Control_c, 0, 67, 16
1, 167539, Control_c, 0, 67, 10
1, 167553, Note_off_c, 0, 81, 61
1, 167554, Control_c, 0, 67, 0
1, 167568, Note_off_c, 0, 65, 37
1, 167577, Note_on_c, 0, 74, 60
1, 167584, Control_c, 0, 64, 110
1, 167599, Control_c, 0, 64, 110
1, 167613, Control_c, 0, 64, 109
1, 167628, Control_c, 0, 64, 107
1, 167643, Control_c, 0, 64, 104
1, 167658, Control_c, 0, 64, 101
1, 167673, Control_c, 0, 64, 96
1, 167688, Control_c, 0, 64, 88
1, 167703, Control_c, 0, 64, 77
1, 167717, Control_c, 0, 64, 68
1, 167718, Note_on_c, 0, 83, 76
1, 167732, Control_c, 0, 64, 62
1, 167734, Note_off_c, 0, 74, 58
1, 167747, Control_c, 0, 64, 60
1, 167762, Control_c, 0, 64, 61
1, 167777, Control_c, 0, 64, 63
1, 167792, Control_c, 0, 64, 66
1, 167806, Control_c, 0, 64, 71
1, 167821, Control_c, 0, 64, 79
1, 167836, Control_c, 0, 64, 92
1, 167841, Note_on_c, 0, 65, 77
1, 167845, Note_on_c, 0, 74, 77
1, 167851, Control_c, 0, 64, 127
1, 167879, Note_off_c, 0, 83, 58
1, 167881, Note_off_c, 0, 74, 59
1, 167890, Note_off_c, 0, 65, 63
1, 167992, Control_c, 0, 64, 98
1, 168004, Note_on_c, 0, 84, 74
1, 168007, Control_c, 0, 64, 81
1, 168016, Note_on_c, 0, 66, 65
1, 168021, Control_c, 0, 64, 69
1, 168036, Control_c, 0, 64, 60
1, 168051, Control_c, 0, 64, 47
1, 168065, Control_c, 0, 64, 35
1, 168080, Control_c, 0, 64, 18
1, 168096, Control_c, 0, 64, 0
1, 168156, Note_on_c, 0, 81, 62
1, 168274, Control_c, 0, 64, 34
1, 168288, Control_c, 0, 64, 53
1, 168299, Note_off_c, 0, 84, 51
1, 168303, Control_c, 0, 64, 61
1, 168308, Note_on_c, 0, 78, 63
1, 168318, Control_c, 0, 64, 65
1, 168333, Control_c, 0, 64, 69
1, 168348, Control_c, 0, 64, 72
1, 168355, Note_off_c, 0, 81, 58
1, 168362, Control_c, 0, 64, 76
1, 168377, Control_c, 0, 64, 81
1, 168392, Control_c, 0, 64, 86
1, 168407, Control_c, 0, 64, 92
1, 168422, Control_c, 0, 64, 99
1, 168426, Note_off_c, 0, 66, 58
1, 168428, Note_on_c, 0, 75, 65
1, 168436, Control_c, 0, 64, 110
1, 168451, Control_c, 0, 64, 127
1, 168514, Note_off_c, 0, 78, 32
1, 168600, Control_c, 0, 64, 112
1, 168613, Note_on_c, 0, 66, 59
1, 168615, Control_c, 0, 64, 103
1, 168621, Note_on_c, 0, 83, 45
1, 168629, Control_c, 0, 64, 94
1, 168631, Note_on_c, 0, 84, 32
1, 168644, Control_c, 0, 64, 82
1, 168658, Note_off_c, 0, 75, 29
1, 168659, Control_c, 0, 64, 73
1, 168662, Note_off_c, 0, 84, 49
1, 168674, Control_c, 0, 64, 66
1, 168695, Control_c, 0, 64, 60
1, 168710, Control_c, 0, 64, 53
1, 168725, Control_c, 0, 64, 50
1, 168740, Control_c, 0, 64, 49
1, 168755, Note_on_c, 0, 81, 57
1, 168755, Control_c, 0, 64, 48
1, 168770, Control_c, 0, 64, 45
1, 168785, Control_c, 0, 64, 37
1, 168785, Control_c, 0, 67, 19
1, 168799, Control_c, 0, 64, 21
1, 168799, Control_c, 0, 67, 32
1, 168814, Control_c, 0, 64, 0
1, 168814, Control_c, 0, 67, 45
1, 168829, Control_c, 0, 67, 56
1, 168842, Note_off_c, 0, 83, 31
1, 168844, Control_c, 0, 67, 65
1, 168859, Control_c, 0, 67, 72
1, 168874, Control_c, 0, 67, 74
1, 168898, Note_on_c, 0, 78, 53
1, 168904, Control_c, 0, 67, 74
1, 168919, Control_c, 0, 67, 72
1, 168932, Note_off_c, 0, 81, 53
1, 168934, Control_c, 0, 67, 71
1, 168949, Control_c, 0, 67, 70
1, 168963, Control_c, 0, 67, 69
1, 168978, Control_c, 0, 64, 12
1, 168978, Control_c, 0, 67, 67
1, 168993, Control_c, 0, 64, 22
1, 168993, Control_c, 0, 67, 66
1, 169008, Control_c, 0, 64, 28
1, 169008, Control_c, 0, 67, 65
1, 169023, Control_c, 0, 64, 33
1, 169023, Control_c, 0, 67, 64
1, 169026, Note_on_c, 0, 75, 53
1, 169038, Control_c, 0, 64, 35
1, 169038, Control_c, 0, 67, 64
1, 169053, Control_c, 0, 64, 36
1, 169067, Control_c, 0, 64, 37
1, 169082, Control_c, 0, 64, 37
1, 169082, Control_c, 0, 67, 63
1, 169097, Control_c, 0, 64, 38
1, 169126, Control_c, 0, 64, 38
1, 169126, Control_c, 0, 67, 62
1, 169156, Control_c, 0, 64, 39
1, 169171, Control_c, 0, 64, 41
1, 169171, Control_c, 0, 67, 62
1, 169176, Note_on_c, 0, 83, 51
1, 169185, Control_c, 0, 64, 46
1, 169200, Control_c, 0, 64, 53
1, 169215, Control_c, 0, 64, 58
1, 169230, Control_c, 0, 64, 61
1, 169245, Control_c, 0, 64, 62
1, 169245, Control_c, 0, 67, 61
1, 169246, Note_off_c, 0, 78, 25
1, 169259, Control_c, 0, 64, 64
1, 169259, Control_c, 0, 67, 61
1, 169274, Control_c, 0, 64, 65
1, 169274, Control_c, 0, 67, 60
1, 169289, Control_c, 0, 64, 67
1, 169303, Note_off_c, 0, 83, 55
1, 169304, Control_c, 0, 64, 69
1, 169316, Note_on_c, 0, 81, 51
1, 169318, Control_c, 0, 64, 71
1, 169333, Control_c, 0, 64, 74
1, 169348, Control_c, 0, 64, 78
1, 169363, Note_off_c, 0, 75, 17
1, 169363, Control_c, 0, 64, 81
1, 169378, Control_c, 0, 64, 85
1, 169393, Control_c, 0, 64, 88
1, 169408, Control_c, 0, 64, 91
1, 169422, Control_c, 0, 64, 93
1, 169437, Note_off_c, 0, 66, 34
1, 169445, Control_c, 0, 64, 95
1, 169459, Control_c, 0, 64, 97
1, 169473, Note_on_c, 0, 78, 63
1, 169474, Control_c, 0, 64, 98
1, 169489, Control_c, 0, 64, 98
1, 169489, Control_c, 0, 67, 61
1, 169504, Control_c, 0, 64, 99
1, 169518, Control_c, 0, 64, 99
1, 169533, Control_c, 0, 64, 100
1, 169533, Control_c, 0, 67, 61
1, 169548, Control_c, 0, 64, 100
1, 169572, Note_on_c, 0, 66, 61
1, 169578, Note_off_c, 0, 81, 24
1, 169592, Note_on_c, 0, 75, 63
1, 169602, Note_off_c, 0, 78, 53
1, 169607, Control_c, 0, 64, 100
1, 169622, Control_c, 0, 64, 98
1, 169637, Control_c, 0, 64, 97
1, 169637, Control_c, 0, 67, 61
1, 169646, Note_off_c, 0, 66, 60
1, 169652, Control_c, 0, 64, 94
1, 169667, Control_c, 0, 64, 91
1, 169667, Control_c, 0, 67, 60
1, 169681, Note_off_c, 0, 75, 60
1, 169682, Control_c, 0, 64, 86
1, 169697, Control_c, 0, 64, 79
1, 169712, Control_c, 0, 64, 71
1, 169712, Control_c, 0, 67, 59
1, 169727, Control_c, 0, 64, 63
1, 169727, Control_c, 0, 67, 59
1, 169741, Control_c, 0, 64, 51
1, 169742, Note_on_c, 0, 83, 63
1, 169755, Note_on_c, 0, 67, 69
1, 169756, Control_c, 0, 64, 17
1, 169756, Control_c, 0, 67, 58
1, 169771, Control_c, 0, 64, 0
1, 169771, Control_c, 0, 67, 57
1, 169786, Control_c, 0, 67, 56
1, 169801, Control_c, 0, 67, 55
1, 169816, Control_c, 0, 67, 54
1, 169831, Control_c, 0, 67, 52
1, 169846, Control_c, 0, 67, 50
1, 169861, Control_c, 0, 67, 48
1, 169876, Control_c, 0, 67, 46
1, 169879, Note_off_c, 0, 83, 60
1, 169889, Note_on_c, 0, 76, 64
1, 169890, Control_c, 0, 64, 28
1, 169890, Control_c, 0, 67, 43
1, 169905, Control_c, 0, 64, 43
1, 169905, Control_c, 0, 67, 34
1, 169920, Control_c, 0, 64, 53
1, 169920, Control_c, 0, 67, 26
1, 169934, Control_c, 0, 64, 59
1, 169934, Control_c, 0, 67, 16
1, 169949, Control_c, 0, 64, 62
1, 169949, Control_c, 0, 67, 0
1, 169964, Control_c, 0, 64, 63
1, 169979, Control_c, 0, 64, 64
1, 169994, Control_c, 0, 64, 65
1, 170008, Control_c, 0, 64, 66
1, 170023, Control_c, 0, 64, 67
1, 170026, Note_on_c, 0, 82, 64
1, 170028, Note_off_c, 0, 76, 58
1, 170038, Control_c, 0, 64, 69
1, 170053, Control_c, 0, 64, 70
1, 170068, Control_c, 0, 64, 72
1, 170082, Control_c, 0, 64, 73
1, 170097, Control_c, 0, 64, 74
1, 170112, Control_c, 0, 64, 74
1, 170127, Control_c, 0, 64, 75
1, 170156, Note_on_c, 0, 74, 62
1, 170162, Note_off_c, 0, 82, 62
1, 170296, Control_c, 0, 64, 74
1, 170326, Control_c, 0, 64, 74
1, 170341, Control_c, 0, 64, 73
1, 170357, Note_off_c, 0, 74, 56
1, 170385, Control_c, 0, 64, 73
1, 170393, Note_on_c, 0, 73, 51
1, 170400, Control_c, 0, 64, 72
1, 170403, Note_on_c, 0, 69, 59
1, 170415, Control_c, 0, 64, 72
1, 170430, Control_c, 0, 64, 71
1, 170445, Control_c, 0, 64, 69
1, 170459, Control_c, 0, 64, 67
1, 170474, Control_c, 0, 64, 64
1, 170490, Control_c, 0, 64, 61
1, 170505, Control_c, 0, 64, 58
1, 170505, Control_c, 0, 67, 11
1, 170519, Control_c, 0, 64, 56
1, 170519, Control_c, 0, 67, 17
1, 170534, Control_c, 0, 64, 55
1, 170534, Control_c, 0, 67, 22
1, 170548, Note_off_c, 0, 67, 49
1, 170549, Control_c, 0, 64, 53
1, 170549, Control_c, 0, 67, 27
1, 170564, Control_c, 0, 64, 52
1, 170564, Control_c, 0, 67, 32
1, 170564, Note_off_c, 0, 73, 60
1, 170579, Control_c, 0, 64, 50
1, 170579, Control_c, 0, 67, 39
1, 170581, Note_on_c, 0, 76, 56
1, 170594, Control_c, 0, 64, 48
1, 170594, Control_c, 0, 67, 45
1, 170609, Control_c, 0, 64, 46
1, 170609, Control_c, 0, 67, 51
1, 170624, Control_c, 0, 64, 44
1, 170624, Control_c, 0, 67, 57
1, 170638, Control_c, 0, 64, 41
1, 170638, Control_c, 0, 67, 64
1, 170653, Control_c, 0, 64, 39
1, 170653, Control_c, 0, 67, 70
1, 170668, Control_c, 0, 64, 37
1, 170668, Control_c, 0, 67, 76
1, 170683, Control_c, 0, 64, 34
1, 170683, Control_c, 0, 67, 81
1, 170698, Control_c, 0, 64, 30
1, 170698, Control_c, 0, 67, 85
1, 170712, Control_c, 0, 64, 26
1, 170712, Control_c, 0, 67, 89
1, 170720, Note_on_c, 0, 77, 50
1, 170727, Control_c, 0, 64, 21
1, 170727, Control_c, 0, 67, 93
1, 170731, Note_off_c, 0, 76, 54
1, 170742, Control_c, 0, 64, 13
1, 170742, Control_c, 0, 67, 97
1, 170756, Control_c, 0, 64, 0
1, 170756, Control_c, 0, 67, 101
1, 170771, Control_c, 0, 67, 105
1, 170786, Control_c, 0, 67, 107
1, 170801, Control_c, 0, 67, 109
1, 170816, Control_c, 0, 67, 111
1, 170830, Control_c, 0, 67, 114
1, 170845, Control_c, 0, 67, 116
1, 170860, Control_c, 0, 67, 120
1, 170865, Note_on_c, 0, 79, 55
1, 170870, Note_off_c, 0, 77, 56
1, 170875, Control_c, 0, 67, 125
1, 170889, Control_c, 0, 67, 127
1, 171014, Note_on_c, 0, 81, 52
1, 171076, Note_off_c, 0, 79, 34
1, 171151, Note_on_c, 0, 73, 53
1, 171160, Note_off_c, 0, 81, 54
1, 171285, Note_off_c, 0, 73, 60
1, 171304, Note_on_c, 0, 74, 54
1, 171435, Note_off_c, 0, 74, 57
1, 171438, Note_on_c, 0, 76, 55
1, 171588, Note_on_c, 0, 77, 54
1, 171615, Note_off_c, 0, 76, 50
1, 171733, Note_on_c, 0, 79, 55
1, 171736, Note_off_c, 0, 77, 55
1, 171760, Note_off_c, 0, 69, 24
1, 171765, Control_c, 0, 64, 27
1, 171780, Control_c, 0, 64, 39
1, 171795, Control_c, 0, 64, 49
1, 171810, Control_c, 0, 64, 57
1, 171825, Control_c, 0, 64, 60
1, 171840, Control_c, 0, 64, 62
1, 171855, Control_c, 0, 64, 64
1, 171869, Control_c, 0, 64, 66
1, 171881, Note_on_c, 0, 81, 56
1, 171884, Control_c, 0, 64, 67
1, 171899, Control_c, 0, 64, 70
1, 171913, Control_c, 0, 64, 74
1, 171928, Control_c, 0, 64, 78
1, 171943, Control_c, 0, 64, 83
1, 171958, Control_c, 0, 64, 88
1, 171958, Control_c, 0, 67, 125
1, 171973, Control_c, 0, 64, 93
1, 171973, Control_c, 0, 67, 120
1, 171975, Note_off_c, 0, 79, 23
1, 171987, Control_c, 0, 64, 97
1, 171987, Control_c, 0, 67, 114
1, 172002, Control_c, 0, 64, 98
1, 172002, Control_c, 0, 67, 107
1, 172003, Note_off_c, 0, 81, 59
1, 172010, Note_on_c, 0, 69, 60
1, 172012, Note_on_c, 0, 77, 63
1, 172017, Control_c, 0, 67, 96
1, 172032, Control_c, 0, 67, 81
1, 172047, Control_c, 0, 64, 97
1, 172047, Control_c, 0, 67, 61
1, 172061, Control_c, 0, 64, 96
1, 172061, Control_c, 0, 67, 41
1, 172076, Control_c, 0, 64, 96
1, 172076, Control_c, 0, 67, 22
1, 172087, Note_off_c, 0, 69, 51
1, 172092, Control_c, 0, 64, 94
1, 172092, Control_c, 0, 67, 14
1, 172107, Control_c, 0, 64, 92
1, 172107, Control_c, 0, 67, 11
1, 172122, Control_c, 0, 64, 91
1, 172134, Note_off_c, 0, 77, 44
1, 172136, Control_c, 0, 64, 88
1, 172150, Note_on_c, 0, 76, 63
1, 172151, Control_c, 0, 64, 85
1, 172151, Control_c, 0, 67, 11
1, 172166, Control_c, 0, 64, 79
1, 172166, Control_c, 0, 67, 14
1, 172168, Note_on_c, 0, 65, 52
1, 172181, Control_c, 0, 64, 71
1, 172181, Control_c, 0, 67, 15
1, 172196, Control_c, 0, 64, 64
1, 172196, Control_c, 0, 67, 17
1, 172210, Control_c, 0, 64, 56
1, 172210, Control_c, 0, 67, 17
1, 172225, Control_c, 0, 64, 48
1, 172225, Control_c, 0, 67, 18
1, 172240, Control_c, 0, 64, 43
1, 172240, Control_c, 0, 67, 19
1, 172255, Note_off_c, 0, 76, 55
1, 172255, Control_c, 0, 64, 39
1, 172270, Control_c, 0, 64, 30
1, 172284, Control_c, 0, 64, 9
1, 172284, Control_c, 0, 67, 18
1, 172290, Note_on_c, 0, 74, 60
1, 172299, Control_c, 0, 64, 0
1, 172299, Control_c, 0, 67, 17
1, 172314, Control_c, 0, 67, 17
1, 172329, Control_c, 0, 67, 16
1, 172344, Control_c, 0, 67, 15
1, 172359, Control_c, 0, 67, 12
1, 172374, Control_c, 0, 64, 11
1, 172374, Control_c, 0, 67, 8
1, 172388, Control_c, 0, 64, 31
1, 172388, Control_c, 0, 67, 0
1, 172403, Control_c, 0, 64, 46
1, 172409, Note_off_c, 0, 74, 62
1, 172418, Control_c, 0, 64, 55
1, 172422, Note_on_c, 0, 77, 61
1, 172440, Control_c, 0, 64, 60
1, 172455, Control_c, 0, 64, 62
1, 172470, Control_c, 0, 64, 64
1, 172543, Control_c, 0, 64, 63
1, 172549, Note_off_c, 0, 77, 57
1, 172565, Note_on_c, 0, 69, 57
1, 172573, Control_c, 0, 64, 63
1, 172588, Control_c, 0, 64, 62
1, 172603, Control_c, 0, 64, 61
1, 172618, Control_c, 0, 64, 60
1, 172633, Control_c, 0, 64, 57
1, 172648, Control_c, 0, 64, 53
1, 172663, Control_c, 0, 64, 48
1, 172678, Control_c, 0, 64, 44
1, 172692, Control_c, 0, 64, 40
1, 172707, Control_c, 0, 64, 35
1, 172718, Note_off_c, 0, 69, 37
1, 172719, Note_on_c, 0, 67, 50
1, 172722, Control_c, 0, 64, 29
1, 172722, Note_on_c, 0, 72, 51
1, 172736, Control_c, 0, 64, 23
1, 172751, Control_c, 0, 64, 12
1, 172766, Control_c, 0, 64, 0
1, 172785, Note_off_c, 0, 65, 33
1, 172840, Control_c, 0, 67, 9
1, 172852, Note_off_c, 0, 72, 55
1, 172854, Control_c, 0, 67, 21
1, 172859, Note_on_c, 0, 71, 56
1, 172869, Control_c, 0, 67, 31
1, 172886, Control_c, 0, 67, 41
1, 172901, Control_c, 0, 67, 51
1, 172915, Control_c, 0, 67, 61
1, 172930, Control_c, 0, 67, 72
1, 172945, Control_c, 0, 67, 82
1, 172959, Control_c, 0, 67, 91
1, 172974, Control_c, 0, 67, 100
1, 172989, Control_c, 0, 67, 110
1, 173002, Note_off_c, 0, 71, 59
1, 173004, Control_c, 0, 67, 122
1, 173019, Control_c, 0, 67, 127
1, 173020, Note_on_c, 0, 74, 52
1, 173149, Note_off_c, 0, 74, 56
1, 173150, Note_on_c, 0, 71, 48
1, 173324, Note_off_c, 0, 71, 55
1, 173328, Note_on_c, 0, 60, 45
1, 173331, Note_on_c, 0, 72, 47
1, 173396, Note_off_c, 0, 67, 35
1, 173457, Note_off_c, 0, 72, 57
1, 173484, Note_on_c, 0, 67, 38
1, 173593, Note_off_c, 0, 67, 57
1, 173613, Note_on_c, 0, 69, 48
1, 173733, Note_off_c, 0, 69, 56
1, 173743, Note_on_c, 0, 67, 50
1, 173869, Note_off_c, 0, 67, 54
1, 173884, Note_on_c, 0, 69, 47
1, 174009, Note_off_c, 0, 69, 58
1, 174022, Note_on_c, 0, 67, 50
1, 174088, Note_off_c, 0, 67, 49
1, 174163, Note_on_c, 0, 69, 48
1, 174210, Note_off_c, 0, 60, 53
1, 174287, Note_off_c, 0, 69, 52
1, 174300, Note_on_c, 0, 71, 49
1, 174398, Note_off_c, 0, 71, 47
1, 174441, Note_on_c, 0, 72, 54
1, 174457, Note_on_c, 0, 67, 41
1, 174479, Note_off_c, 0, 72, 64
1, 174485, Note_off_c, 0, 67, 53
1, 174566, Note_on_c, 0, 67, 58
1, 174573, Note_on_c, 0, 71, 61
1, 174603, Note_off_c, 0, 67, 63
1, 174607, Note_off_c, 0, 71, 63
1, 174717, Note_on_c, 0, 69, 61
1, 174728, Note_on_c, 0, 72, 61
1, 174753, Note_off_c, 0, 69, 62
1, 174767, Note_off_c, 0, 72, 63
1, 174894, Control_c, 0, 67, 127
1, 174923, Note_on_c, 0, 76, 56
1, 174924, Control_c, 0, 67, 126
1, 174932, Note_on_c, 0, 71, 36
1, 174938, Control_c, 0, 67, 125
1, 174945, Note_on_c, 0, 72, 32
1, 174953, Control_c, 0, 67, 125
1, 174959, Note_off_c, 0, 71, 54
1, 174964, Note_off_c, 0, 76, 46
1, 174968, Control_c, 0, 67, 124
1, 174975, Note_off_c, 0, 72, 52
1, 174983, Control_c, 0, 67, 123
1, 174998, Control_c, 0, 67, 119
1, 175012, Control_c, 0, 67, 114
1, 175027, Control_c, 0, 67, 108
1, 175042, Control_c, 0, 67, 103
1, 175057, Control_c, 0, 67, 99
1, 175070, Note_on_c, 0, 76, 72
1, 175071, Note_on_c, 0, 72, 64
1, 175072, Control_c, 0, 67, 96
1, 175087, Control_c, 0, 67, 92
1, 175102, Control_c, 0, 67, 89
1, 175110, Note_off_c, 0, 72, 65
1, 175117, Control_c, 0, 67, 86
1, 175124, Note_off_c, 0, 76, 61
1, 175131, Control_c, 0, 67, 84
1, 175146, Control_c, 0, 67, 82
1, 175161, Control_c, 0, 67, 81
1, 175176, Control_c, 0, 67, 81
1, 175191, Control_c, 0, 67, 80
1, 175209, Note_on_c, 0, 74, 67
1, 175233, Note_on_c, 0, 71, 51
1, 175240, Note_off_c, 0, 74, 64
1, 175258, Note_off_c, 0, 71, 62
1, 175358, Note_on_c, 0, 76, 61
1, 175367, Note_on_c, 0, 72, 49
1, 175369, Control_c, 0, 67, 79
1, 175393, Note_off_c, 0, 72, 60
1, 175413, Note_off_c, 0, 76, 60
1, 175531, Note_on_c, 0, 77, 72
1, 175573, Note_on_c, 0, 74, 50
1, 175584, Control_c, 0, 67, 79
1, 175593, Note_off_c, 0, 74, 61
1, 175599, Note_off_c, 0, 77, 59
1, 175629, Control_c, 0, 64, 9
1, 175629, Control_c, 0, 67, 78
1, 175644, Control_c, 0, 67, 77
1, 175693, Note_on_c, 0, 79, 66
1, 175696, Note_on_c, 0, 48, 49
1, 175697, Note_on_c, 0, 52, 51
1, 175703, Control_c, 0, 64, 11
1, 175718, Control_c, 0, 64, 12
1, 175718, Control_c, 0, 67, 77
1, 175736, Note_on_c, 0, 76, 41
1, 175748, Control_c, 0, 64, 13
1, 175762, Note_off_c, 0, 76, 36
1, 175762, Control_c, 0, 64, 15
1, 175772, Note_off_c, 0, 79, 62
1, 175777, Control_c, 0, 64, 16
1, 175777, Control_c, 0, 67, 76
1, 175792, Control_c, 0, 64, 18
1, 175807, Control_c, 0, 64, 21
1, 175807, Control_c, 0, 67, 76
1, 175822, Control_c, 0, 64, 25
1, 175836, Control_c, 0, 64, 31
1, 175851, Control_c, 0, 64, 39
1, 175855, Note_on_c, 0, 77, 51
1, 175860, Note_on_c, 0, 74, 58
1, 175866, Control_c, 0, 64, 46
1, 175881, Control_c, 0, 64, 51
1, 175887, Note_off_c, 0, 77, 63
1, 175894, Note_off_c, 0, 74, 66
1, 175895, Control_c, 0, 64, 54
1, 175910, Control_c, 0, 64, 55
1, 175940, Control_c, 0, 64, 56
1, 175985, Note_on_c, 0, 76, 61
1, 176016, Note_on_c, 0, 72, 28
1, 176028, Note_off_c, 0, 76, 64
1, 176028, Control_c, 0, 67, 76
1, 176043, Control_c, 0, 64, 55
1, 176046, Note_off_c, 0, 72, 46
1, 176074, Control_c, 0, 67, 77
1, 176104, Control_c, 0, 64, 55
1, 176112, Note_on_c, 0, 74, 62
1, 176116, Note_on_c, 0, 71, 62
1, 176119, Control_c, 0, 67, 77
1, 176142, Note_off_c, 0, 74, 66
1, 176146, Note_off_c, 0, 71, 66
1, 176163, Control_c, 0, 64, 54
1, 176230, Control_c, 0, 64, 54
1, 176230, Control_c, 0, 67, 78
1, 176248, Note_on_c, 0, 76, 65
1, 176259, Note_on_c, 0, 72, 55
1, 176274, Control_c, 0, 64, 53
1, 176274, Control_c, 0, 67, 79
1, 176287, Note_off_c, 0, 72, 65
1, 176302, Note_off_c, 0, 76, 62
1, 176304, Control_c, 0, 64, 53
1, 176319, Control_c, 0, 64, 52
1, 176333, Control_c, 0, 64, 48
1, 176348, Control_c, 0, 64, 42
1, 176363, Control_c, 0, 64, 30
1, 176363, Control_c, 0, 67, 79
1, 176377, Note_on_c, 0, 74, 71
1, 176377, Control_c, 0, 64, 16
1, 176392, Note_on_c, 0, 71, 55
1, 176392, Control_c, 0, 64, 11
1, 176413, Note_off_c, 0, 74, 60
1, 176429, Note_off_c, 0, 71, 65
1, 176437, Control_c, 0, 64, 14
1, 176451, Control_c, 0, 64, 23
1, 176466, Control_c, 0, 64, 31
1, 176481, Control_c, 0, 64, 40
1, 176481, Control_c, 0, 67, 79
1, 176496, Control_c, 0, 64, 49
1, 176511, Control_c, 0, 64, 56
1, 176511, Control_c, 0, 67, 78
1, 176516, Note_on_c, 0, 76, 69
1, 176521, Note_on_c, 0, 72, 58
1, 176526, Control_c, 0, 64, 60
1, 176532, Note_off_c, 0, 52, 58
1, 176541, Control_c, 0, 64, 62
1, 176548, Note_off_c, 0, 72, 65
1, 176556, Control_c, 0, 64, 63
1, 176556, Control_c, 0, 67, 77
1, 176571, Control_c, 0, 64, 64
1, 176571, Control_c, 0, 67, 77
1, 176571, Note_off_c, 0, 76, 64
1, 176585, Control_c, 0, 64, 65
1, 176600, Control_c, 0, 64, 65
1, 176615, Control_c, 0, 64, 66
1, 176642, Note_on_c, 0, 76, 63
1, 176645, Control_c, 0, 64, 67
1, 176647, Note_on_c, 0, 73, 60
1, 176648, Note_on_c, 0, 55, 58
1, 176650, Note_on_c, 0, 52, 61
1, 176659, Control_c, 0, 64, 66
1, 176674, Control_c, 0, 67, 76
1, 176677, Note_off_c, 0, 73, 66
1, 176681, Note_off_c, 0, 76, 65
1, 176681, Note_off_c, 0, 52, 65
1, 176686, Note_off_c, 0, 55, 64
1, 176689, Control_c, 0, 64, 66
1, 176693, Note_off_c, 0, 48, 42
1, 176718, Control_c, 0, 64, 65
1, 176733, Control_c, 0, 64, 65
1, 176748, Control_c, 0, 64, 64
1, 176763, Control_c, 0, 64, 62
1, 176777, Control_c, 0, 64, 59
1, 176777, Control_c, 0, 67, 76
1, 176781, Note_on_c, 0, 77, 69
1, 176792, Control_c, 0, 64, 55
1, 176793, Note_on_c, 0, 74, 59
1, 176798, Note_on_c, 0, 53, 54
1, 176804, Note_on_c, 0, 50, 50
1, 176807, Control_c, 0, 64, 51
1, 176807, Control_c, 0, 67, 75
1, 176822, Control_c, 0, 64, 46
1, 176826, Note_off_c, 0, 74, 66
1, 176837, Control_c, 0, 64, 37
1, 176850, Note_off_c, 0, 77, 57
1, 176851, Control_c, 0, 64, 26
1, 176867, Control_c, 0, 64, 12
1, 176882, Control_c, 0, 64, 0
1, 176897, Control_c, 0, 67, 76
1, 176933, Note_on_c, 0, 76, 63
1, 176938, Note_on_c, 0, 73, 53
1, 176972, Note_off_c, 0, 73, 65
1, 176991, Note_off_c, 0, 76, 61
1, 177066, Note_on_c, 0, 77, 69
1, 177068, Control_c, 0, 64, 16
1, 177074, Note_on_c, 0, 74, 55
1, 177082, Control_c, 0, 64, 30
1, 177097, Note_off_c, 0, 50, 64
1, 177097, Control_c, 0, 64, 42
1, 177109, Note_off_c, 0, 74, 66
1, 177112, Control_c, 0, 64, 52
1, 177127, Control_c, 0, 64, 57
1, 177128, Note_off_c, 0, 77, 63
1, 177142, Control_c, 0, 64, 60
1, 177156, Control_c, 0, 64, 62
1, 177171, Control_c, 0, 64, 62
1, 177186, Control_c, 0, 64, 63
1, 177200, Control_c, 0, 64, 63
1, 177200, Control_c, 0, 67, 76
1, 177206, Note_on_c, 0, 76, 58
1, 177211, Note_on_c, 0, 79, 59
1, 177215, Control_c, 0, 67, 77
1, 177230, Control_c, 0, 67, 77
1, 177242, Note_off_c, 0, 76, 65
1, 177245, Control_c, 0, 67, 79
1, 177254, Note_off_c, 0, 79, 62
1, 177274, Control_c, 0, 64, 63
1, 177274, Control_c, 0, 67, 79
1, 177289, Control_c, 0, 67, 80
1, 177304, Control_c, 0, 64, 62
1, 177319, Control_c, 0, 64, 62
1, 177319, Control_c, 0, 67, 81
1, 177334, Control_c, 0, 64, 61
1, 177334, Control_c, 0, 67, 81
1, 177349, Control_c, 0, 64, 61
1, 177349, Note_on_c, 0, 81, 59
1, 177353, Note_on_c, 0, 77, 57
1, 177361, Note_on_c, 0, 43, 47
1, 177364, Control_c, 0, 64, 60
1, 177369, Note_on_c, 0, 50, 49
1, 177371, Note_off_c, 0, 53, 58
1, 177379, Control_c, 0, 64, 58
1, 177379, Control_c, 0, 67, 82
1, 177393, Note_off_c, 0, 77, 61
1, 177393, Control_c, 0, 64, 55
1, 177404, Note_off_c, 0, 81, 58
1, 177408, Control_c, 0, 64, 52
1, 177423, Control_c, 0, 64, 49
1, 177438, Control_c, 0, 64, 46
1, 177453, Control_c, 0, 64, 45
1, 177468, Control_c, 0, 64, 43
1, 177482, Control_c, 0, 64, 42
1, 177497, Control_c, 0, 64, 41
1, 177500, Note_on_c, 0, 79, 56
1, 177504, Note_on_c, 0, 76, 53
1, 177526, Control_c, 0, 64, 41
1, 177548, Note_off_c, 0, 76, 61
1, 177566, Note_off_c, 0, 79, 58
1, 177630, Note_on_c, 0, 77, 67
1, 177642, Note_on_c, 0, 74, 55
1, 177645, Control_c, 0, 67, 81
1, 177660, Control_c, 0, 67, 81
1, 177661, Note_off_c, 0, 77, 65
1, 177683, Control_c, 0, 67, 80
1, 177686, Note_off_c, 0, 74, 65
1, 177712, Control_c, 0, 67, 79
1, 177726, Control_c, 0, 67, 79
1, 177756, Control_c, 0, 67, 78
1, 177770, Control_c, 0, 67, 77
1, 177775, Note_on_c, 0, 76, 58
1, 177781, Note_on_c, 0, 72, 50
1, 177785, Control_c, 0, 67, 77
1, 177800, Control_c, 0, 67, 76
1, 177808, Note_off_c, 0, 72, 60
1, 177815, Control_c, 0, 67, 76
1, 177823, Note_off_c, 0, 76, 63
1, 177829, Control_c, 0, 67, 74
1, 177844, Control_c, 0, 67, 74
1, 177859, Control_c, 0, 67, 72
1, 177874, Control_c, 0, 64, 40
1, 177889, Control_c, 0, 64, 35
1, 177889, Control_c, 0, 67, 72
1, 177903, Control_c, 0, 64, 0
1, 177903, Control_c, 0, 67, 70
1, 177906, Note_on_c, 0, 74, 66
1, 177913, Note_on_c, 0, 71, 61
1, 177918, Control_c, 0, 67, 66
1, 177933, Control_c, 0, 67, 38
1, 177943, Note_off_c, 0, 74, 62
1, 177944, Note_off_c, 0, 71, 66
1, 177948, Control_c, 0, 67, 0
1, 178007, Control_c, 0, 64, 33
1, 178022, Control_c, 0, 64, 48
1, 178037, Note_on_c, 0, 76, 65
1, 178037, Control_c, 0, 64, 57
1, 178049, Note_on_c, 0, 72, 51
1, 178052, Control_c, 0, 64, 61
1, 178067, Control_c, 0, 64, 63
1, 178068, Note_off_c, 0, 43, 60
1, 178073, Note_off_c, 0, 72, 63
1, 178082, Control_c, 0, 64, 65
1, 178083, Note_off_c, 0, 50, 64
1, 178086, Note_off_c, 0, 76, 61
1, 178096, Control_c, 0, 64, 66
1, 178111, Control_c, 0, 64, 67
1, 178126, Control_c, 0, 64, 68
1, 178141, Control_c, 0, 64, 69
1, 178155, Control_c, 0, 64, 70
1, 178170, Control_c, 0, 64, 71
1, 178179, Note_on_c, 0, 77, 68
1, 178183, Note_on_c, 0, 74, 60
1, 178185, Control_c, 0, 64, 72
1, 178200, Control_c, 0, 64, 72
1, 178215, Note_off_c, 0, 74, 66
1, 178215, Control_c, 0, 64, 73
1, 178229, Control_c, 0, 64, 74
1, 178241, Note_off_c, 0, 77, 62
1, 178244, Control_c, 0, 64, 75
1, 178259, Control_c, 0, 64, 76
1, 178274, Control_c, 0, 64, 76
1, 178289, Control_c, 0, 64, 77
1, 178303, Note_on_c, 0, 50, 63
1, 178309, Note_on_c, 0, 79, 74
1, 178315, Note_on_c, 0, 53, 52
1, 178315, Note_on_c, 0, 71, 64
1, 178318, Control_c, 0, 64, 76
1, 178332, Note_off_c, 0, 71, 66
1, 178333, Control_c, 0, 64, 76
1, 178343, Note_off_c, 0, 53, 60
1, 178344, Note_off_c, 0, 79, 57
1, 178347, Control_c, 0, 64, 75
1, 178362, Note_off_c, 0, 50, 55
1, 178362, Control_c, 0, 64, 75
1, 178377, Control_c, 0, 64, 74
1, 178392, Control_c, 0, 64, 74
1, 178407, Control_c, 0, 64, 72
1, 178429, Control_c, 0, 64, 69
1, 178444, Control_c, 0, 64, 64
1, 178451, Note_on_c, 0, 70, 73
1, 178453, Note_on_c, 0, 79, 70
1, 178459, Control_c, 0, 64, 56
1, 178463, Note_on_c, 0, 55, 58
1, 178464, Note_on_c, 0, 52, 55
1, 178475, Control_c, 0, 64, 41
1, 178488, Note_off_c, 0, 70, 61
1, 178490, Control_c, 0, 64, 11
1, 178501, Note_off_c, 0, 79, 59
1, 178505, Control_c, 0, 64, 0
1, 178597, Note_on_c, 0, 76, 74
1, 178597, Note_on_c, 0, 79, 77
1, 178624, Control_c, 0, 64, 26
1, 178626, Note_off_c, 0, 76, 67
1, 178632, Note_off_c, 0, 79, 64
1, 178639, Control_c, 0, 64, 47
1, 178653, Control_c, 0, 64, 57
1, 178668, Control_c, 0, 64, 62
1, 178683, Control_c, 0, 64, 64
1, 178736, Note_on_c, 0, 82, 71
1, 178743, Note_on_c, 0, 79, 65
1, 178771, Control_c, 0, 64, 63
1, 178777, Note_off_c, 0, 79, 61
1, 178797, Note_off_c, 0, 82, 63
1, 178801, Control_c, 0, 64, 63
1, 178824, Note_off_c, 0, 55, 56
1, 178831, Control_c, 0, 64, 62
1, 178836, Note_off_c, 0, 52, 61
1, 178845, Control_c, 0, 64, 62
1, 178860, Control_c, 0, 64, 61
1, 178866, Note_on_c, 0, 81, 71
1, 178867, Note_on_c, 0, 77, 68
1, 178875, Control_c, 0, 64, 60
1, 178890, Control_c, 0, 64, 59
1, 178902, Note_off_c, 0, 81, 65
1, 178905, Control_c, 0, 64, 58
1, 178906, Note_off_c, 0, 77, 61
1, 178920, Control_c, 0, 64, 57
1, 178920, Control_c, 0, 67, 12
1, 178935, Control_c, 0, 64, 56
1, 178935, Control_c, 0, 67, 24
1, 178949, Control_c, 0, 64, 55
1, 178949, Control_c, 0, 67, 34
1, 178964, Control_c, 0, 64, 55
1, 178964, Control_c, 0, 67, 42
1, 178979, Control_c, 0, 64, 54
1, 178979, Control_c, 0, 67, 51
1, 178994, Control_c, 0, 64, 53
1, 178994, Control_c, 0, 67, 60
1, 179006, Note_on_c, 0, 79, 69
1, 179009, Note_on_c, 0, 55, 51
1, 179009, Control_c, 0, 64, 53
1, 179009, Control_c, 0, 67, 69
1, 179014, Note_on_c, 0, 52, 49
1, 179024, Control_c, 0, 64, 52
1, 179024, Control_c, 0, 67, 79
1, 179035, Note_on_c, 0, 76, 44
1, 179039, Control_c, 0, 64, 52
1, 179039, Control_c, 0, 67, 89
1, 179053, Control_c, 0, 64, 51
1, 179053, Control_c, 0, 67, 99
1, 179058, Note_off_c, 0, 76, 52
1, 179068, Control_c, 0, 64, 50
1, 179068, Control_c, 0, 67, 108
1, 179070, Note_off_c, 0, 79, 64
1, 179083, Control_c, 0, 64, 49
1, 179083, Control_c, 0, 67, 117
1, 179098, Control_c, 0, 64, 48
1, 179098, Control_c, 0, 67, 124
1, 179113, Control_c, 0, 64, 47
1, 179113, Control_c, 0, 67, 127
1, 179127, Control_c, 0, 64, 46
1, 179142, Control_c, 0, 64, 46
1, 179151, Note_on_c, 0, 74, 51
1, 179151, Note_on_c, 0, 77, 59
1, 179157, Control_c, 0, 64, 45
1, 179179, Control_c, 0, 64, 44
1, 179193, Note_off_c, 0, 74, 61
1, 179194, Control_c, 0, 64, 44
1, 179203, Note_off_c, 0, 77, 59
1, 179209, Control_c, 0, 64, 43
1, 179224, Control_c, 0, 64, 42
1, 179239, Control_c, 0, 64, 42
1, 179278, Note_on_c, 0, 76, 68
1, 179297, Note_on_c, 0, 72, 54
1, 179314, Note_off_c, 0, 76, 64
1, 179330, Note_off_c, 0, 72, 65
1, 179417, Note_on_c, 0, 74, 63
1, 179438, Note_on_c, 0, 70, 56
1, 179469, Note_off_c, 0, 70, 65
1, 179473, Note_off_c, 0, 74, 58
1, 179476, Control_c, 0, 67, 126
1, 179491, Control_c, 0, 67, 125
1, 179536, Control_c, 0, 67, 125
1, 179550, Control_c, 0, 67, 124
1, 179552, Note_on_c, 0, 72, 65
1, 179565, Control_c, 0, 67, 124
1, 179568, Note_on_c, 0, 69, 55
1, 179580, Control_c, 0, 67, 123
1, 179594, Control_c, 0, 67, 122
1, 179598, Note_off_c, 0, 69, 65
1, 179609, Control_c, 0, 67, 122
1, 179618, Note_off_c, 0, 72, 61
1, 179624, Control_c, 0, 67, 120
1, 179639, Control_c, 0, 67, 120
1, 179654, Control_c, 0, 67, 119
1, 179668, Control_c, 0, 67, 117
1, 179683, Control_c, 0, 67, 117
1, 179687, Note_on_c, 0, 70, 68
1, 179692, Note_on_c, 0, 67, 58
1, 179713, Control_c, 0, 67, 116
1, 179731, Note_off_c, 0, 67, 63
1, 179738, Note_off_c, 0, 70, 60
1, 179757, Control_c, 0, 67, 115
1, 179814, Note_on_c, 0, 69, 69
1, 179817, Control_c, 0, 67, 115
1, 179826, Note_off_c, 0, 55, 56
1, 179828, Note_on_c, 0, 65, 56
1, 179850, Note_off_c, 0, 69, 65
1, 179861, Control_c, 0, 64, 42
1, 179863, Note_off_c, 0, 65, 65
1, 179876, Control_c, 0, 64, 43
1, 179891, Control_c, 0, 64, 47
1, 179891, Control_c, 0, 67, 114
1, 179906, Control_c, 0, 64, 52
1, 179927, Control_c, 0, 64, 57
1, 179927, Control_c, 0, 67, 113
1, 179942, Control_c, 0, 64, 61
1, 179942, Control_c, 0, 67, 112
1, 179948, Note_on_c, 0, 67, 67
1, 179956, Note_on_c, 0, 64, 62
1, 179957, Control_c, 0, 64, 63
1, 179957, Control_c, 0, 67, 111
1, 179964, Note_on_c, 0, 58, 60
1, 179965, Note_off_c, 0, 52, 60
1, 179970, Note_on_c, 0, 55, 57
1, 179972, Control_c, 0, 64, 64
1, 179972, Control_c, 0, 67, 109
1, 179978, Note_off_c, 0, 67, 66
1, 179986, Note_off_c, 0, 64, 66
1, 179987, Control_c, 0, 64, 65
1, 179987, Control_c, 0, 67, 108
1, 179994, Note_off_c, 0, 58, 65
1, 180002, Control_c, 0, 67, 107
1, 180011, Note_off_c, 0, 55, 61
1, 180017, Control_c, 0, 67, 105
1, 180032, Control_c, 0, 67, 104
1, 180046, Control_c, 0, 64, 65
1, 180046, Control_c, 0, 67, 102
1, 180061, Control_c, 0, 64, 64
1, 180061, Control_c, 0, 67, 101
1, 180077, Control_c, 0, 67, 100
1, 180092, Control_c, 0, 64, 63
1, 180092, Control_c, 0, 67, 98
1, 180100, Note_on_c, 0, 55, 67
1, 180104, Note_on_c, 0, 52, 63
1, 180106, Control_c, 0, 64, 62
1, 180106, Control_c, 0, 67, 96
1, 180121, Control_c, 0, 64, 61
1, 180121, Control_c, 0, 67, 94
1, 180136, Control_c, 0, 64, 58
1, 180136, Control_c, 0, 67, 92
1, 180151, Control_c, 0, 64, 55
1, 180151, Control_c, 0, 67, 90
1, 180166, Control_c, 0, 64, 52
1, 180166, Control_c, 0, 67, 89
1, 180181, Control_c, 0, 64, 50
1, 180181, Control_c, 0, 67, 87
1, 180195, Control_c, 0, 64, 48
1, 180195, Control_c, 0, 67, 86
1, 180210, Control_c, 0, 64, 46
1, 180210, Control_c, 0, 67, 84
1, 180225, Control_c, 0, 64, 42
1, 180225, Control_c, 0, 67, 82
1, 180234, Note_on_c, 0, 79, 67
1, 180236, Note_on_c, 0, 82, 66
1, 180240, Control_c, 0, 64, 35
1, 180240, Control_c, 0, 67, 82
1, 180255, Control_c, 0, 64, 19
1, 180255, Control_c, 0, 67, 81
1, 180270, Control_c, 0, 64, 0
1, 180270, Control_c, 0, 67, 81
1, 180273, Note_off_c, 0, 79, 65
1, 180285, Control_c, 0, 67, 80
1, 180296, Note_off_c, 0, 82, 60
1, 180344, Control_c, 0, 67, 79
1, 180368, Note_on_c, 0, 84, 70
1, 180374, Note_on_c, 0, 81, 65
1, 180407, Note_off_c, 0, 81, 64
1, 180433, Note_off_c, 0, 84, 58
1, 180447, Control_c, 0, 64, 20
1, 180447, Control_c, 0, 67, 79
1, 180462, Control_c, 0, 64, 43
1, 180477, Control_c, 0, 64, 54
1, 180491, Control_c, 0, 64, 60
1, 180491, Control_c, 0, 67, 78
1, 180496, Note_on_c, 0, 82, 73
1, 180504, Note_on_c, 0, 79, 58
1, 180506, Control_c, 0, 64, 62
1, 180521, Control_c, 0, 64, 63
1, 180521, Control_c, 0, 67, 77
1, 180536, Control_c, 0, 64, 63
1, 180539, Note_off_c, 0, 79, 66
1, 180544, Note_off_c, 0, 82, 61
1, 180595, Control_c, 0, 64, 63
1, 180610, Control_c, 0, 64, 62
1, 180615, Note_off_c, 0, 55, 33
1, 180625, Control_c, 0, 64, 62
1, 180625, Control_c, 0, 67, 77
1, 180632, Note_on_c, 0, 81, 74
1, 180637, Note_on_c, 0, 57, 58
1, 180640, Note_off_c, 0, 52, 57
1, 180640, Control_c, 0, 64, 60
1, 180641, Note_on_c, 0, 53, 57
1, 180649, Note_on_c, 0, 76, 53
1, 180655, Control_c, 0, 64, 58
1, 180677, Control_c, 0, 64, 56
1, 180685, Note_off_c, 0, 76, 62
1, 180690, Note_off_c, 0, 81, 61
1, 180692, Control_c, 0, 64, 52
1, 180706, Control_c, 0, 64, 50
1, 180720, Control_c, 0, 64, 48
1, 180735, Control_c, 0, 64, 47
1, 180750, Control_c, 0, 64, 45
1, 180763, Note_on_c, 0, 80, 72
1, 180765, Control_c, 0, 64, 44
1, 180780, Control_c, 0, 64, 42
1, 180780, Control_c, 0, 67, 76
1, 180795, Control_c, 0, 64, 41
1, 180810, Control_c, 0, 64, 41
1, 180823, Note_off_c, 0, 80, 62
1, 180824, Control_c, 0, 64, 40
1, 180839, Control_c, 0, 64, 40
1, 180854, Control_c, 0, 64, 39
1, 180869, Control_c, 0, 64, 39
1, 180899, Control_c, 0, 67, 76
1, 180907, Note_on_c, 0, 77, 62
1, 180910, Note_on_c, 0, 81, 64
1, 180938, Note_off_c, 0, 77, 65
1, 180959, Control_c, 0, 67, 75
1, 180972, Note_off_c, 0, 81, 64
1, 180973, Control_c, 0, 67, 74
1, 180988, Control_c, 0, 67, 74
1, 181018, Control_c, 0, 64, 39
1, 181018, Control_c, 0, 67, 73
1, 181033, Control_c, 0, 64, 40
1, 181033, Control_c, 0, 67, 72
1, 181036, Note_on_c, 0, 83, 77
1, 181047, Control_c, 0, 64, 40
1, 181047, Control_c, 0, 67, 72
1, 181049, Note_on_c, 0, 80, 55
1, 181062, Control_c, 0, 67, 66
1, 181072, Note_off_c, 0, 80, 63
1, 181077, Control_c, 0, 67, 50
1, 181090, Note_off_c, 0, 83, 64
1, 181092, Control_c, 0, 67, 32
1, 181107, Control_c, 0, 67, 20
1, 181121, Control_c, 0, 67, 10
1, 181136, Control_c, 0, 67, 0
1, 181172, Note_on_c, 0, 84, 75
1, 181176, Note_on_c, 0, 81, 66
1, 181212, Note_off_c, 0, 81, 62
1, 181233, Note_off_c, 0, 84, 63
1, 181307, Note_on_c, 0, 83, 76
1, 181311, Note_on_c, 0, 80, 66
1, 181342, Note_off_c, 0, 80, 67
1, 181358, Control_c, 0, 64, 40
1, 181363, Note_off_c, 0, 83, 64
1, 181388, Control_c, 0, 64, 39
1, 181440, Control_c, 0, 64, 40
1, 181449, Note_on_c, 0, 84, 78
1, 181453, Note_on_c, 0, 81, 72
1, 181454, Control_c, 0, 64, 42
1, 181469, Control_c, 0, 64, 46
1, 181484, Control_c, 0, 64, 53
1, 181497, Note_off_c, 0, 81, 63
1, 181499, Control_c, 0, 64, 58
1, 181513, Note_off_c, 0, 53, 62
1, 181514, Control_c, 0, 64, 62
1, 181518, Note_off_c, 0, 84, 62
1, 181522, Note_off_c, 0, 57, 60
1, 181528, Control_c, 0, 64, 64
1, 181543, Control_c, 0, 64, 66
1, 181558, Control_c, 0, 64, 68
1, 181573, Control_c, 0, 64, 70
1, 181581, Note_on_c, 0, 83, 83
1, 181586, Note_on_c, 0, 80, 75
1, 181587, Note_on_c, 0, 57, 57
1, 181588, Note_on_c, 0, 53, 69
1, 181588, Control_c, 0, 64, 71
1, 181602, Control_c, 0, 64, 72
1, 181615, Note_off_c, 0, 80, 64
1, 181625, Note_off_c, 0, 53, 65
1, 181632, Control_c, 0, 64, 71
1, 181638, Note_off_c, 0, 83, 63
1, 181644, Note_off_c, 0, 57, 63
1, 181647, Control_c, 0, 64, 71
1, 181662, Control_c, 0, 64, 70
1, 181677, Control_c, 0, 64, 68
1, 181692, Control_c, 0, 64, 66
1, 181707, Control_c, 0, 64, 62
1, 181722, Control_c, 0, 64, 57
1, 181724, Note_on_c, 0, 84, 79
1, 181728, Note_on_c, 0, 81, 74
1, 181734, Note_on_c, 0, 54, 73
1, 181737, Control_c, 0, 64, 52
1, 181739, Note_on_c, 0, 57, 68
1, 181752, Control_c, 0, 64, 47
1, 181766, Control_c, 0, 64, 44
1, 181772, Note_off_c, 0, 81, 64
1, 181781, Control_c, 0, 64, 42
1, 181788, Note_off_c, 0, 84, 63
1, 181796, Control_c, 0, 64, 38
1, 181811, Control_c, 0, 64, 31
1, 181826, Control_c, 0, 64, 23
1, 181841, Control_c, 0, 64, 15
1, 181856, Control_c, 0, 64, 0
1, 181863, Note_on_c, 0, 83, 77
1, 181871, Note_on_c, 0, 80, 63
1, 181901, Note_off_c, 0, 80, 65
1, 181927, Note_off_c, 0, 83, 61
1, 182005, Note_on_c, 0, 81, 75
1, 182011, Note_on_c, 0, 84, 76
1, 182059, Note_off_c, 0, 81, 65
1, 182079, Note_off_c, 0, 84, 62
1, 182092, Control_c, 0, 64, 35
1, 182107, Control_c, 0, 64, 48
1, 182122, Control_c, 0, 64, 55
1, 182136, Note_on_c, 0, 83, 76
1, 182136, Control_c, 0, 64, 59
1, 182142, Note_on_c, 0, 80, 67
1, 182151, Control_c, 0, 64, 60
1, 182183, Note_off_c, 0, 80, 63
1, 182190, Note_off_c, 0, 57, 59
1, 182205, Note_off_c, 0, 54, 63
1, 182208, Note_off_c, 0, 83, 62
1, 182234, Control_c, 0, 64, 59
1, 182249, Control_c, 0, 64, 58
1, 182264, Control_c, 0, 64, 55
1, 182278, Control_c, 0, 64, 48
1, 182291, Note_on_c, 0, 81, 65
1, 182291, Note_on_c, 0, 84, 69
1, 182293, Control_c, 0, 64, 36
1, 182301, Note_on_c, 0, 54, 60
1, 182303, Note_on_c, 0, 57, 62
1, 182308, Control_c, 0, 64, 25
1, 182323, Control_c, 0, 64, 24
1, 182327, Note_off_c, 0, 81, 61
1, 182338, Control_c, 0, 64, 26
1, 182352, Control_c, 0, 64, 32
1, 182358, Note_off_c, 0, 84, 59
1, 182367, Control_c, 0, 64, 38
1, 182382, Control_c, 0, 64, 44
1, 182396, Control_c, 0, 64, 47
1, 182411, Control_c, 0, 64, 48
1, 182427, Note_on_c, 0, 83, 68
1, 182429, Note_on_c, 0, 79, 62
1, 182441, Control_c, 0, 64, 47
1, 182456, Control_c, 0, 64, 46
1, 182459, Note_off_c, 0, 79, 68
1, 182467, Note_off_c, 0, 83, 65
1, 182472, Control_c, 0, 64, 46
1, 182486, Control_c, 0, 64, 45
1, 182501, Control_c, 0, 64, 45
1, 182516, Control_c, 0, 64, 44
1, 182531, Control_c, 0, 64, 43
1, 182546, Control_c, 0, 64, 41
1, 182561, Control_c, 0, 64, 39
1, 182562, Note_on_c, 0, 81, 70
1, 182570, Note_on_c, 0, 78, 63
1, 182575, Control_c, 0, 64, 38
1, 182590, Control_c, 0, 64, 35
1, 182605, Control_c, 0, 64, 33
1, 182606, Note_off_c, 0, 78, 64
1, 182619, Control_c, 0, 64, 30
1, 182626, Note_off_c, 0, 81, 60
1, 182634, Control_c, 0, 64, 29
1, 182649, Control_c, 0, 64, 27
1, 182664, Control_c, 0, 64, 25
1, 182679, Control_c, 0, 64, 24
1, 182690, Note_on_c, 0, 79, 66
1, 182693, Note_on_c, 0, 76, 65
1, 182693, Control_c, 0, 64, 24
1, 182708, Control_c, 0, 64, 23
1, 182723, Control_c, 0, 64, 23
1, 182726, Note_off_c, 0, 76, 66
1, 182728, Note_off_c, 0, 79, 65
1, 182753, Control_c, 0, 64, 22
1, 182828, Note_on_c, 0, 78, 70
1, 182829, Note_on_c, 0, 75, 65
1, 182862, Note_off_c, 0, 75, 64
1, 182878, Note_off_c, 0, 78, 50
1, 182962, Note_on_c, 0, 84, 73
1, 182978, Note_on_c, 0, 81, 54
1, 182983, Control_c, 0, 64, 21
1, 182998, Control_c, 0, 64, 18
1, 183012, Note_off_c, 0, 81, 63
1, 183012, Control_c, 0, 64, 0
1, 183036, Note_off_c, 0, 84, 59
1, 183067, Note_off_c, 0, 57, 41
1, 183077, Note_off_c, 0, 54, 57
1, 183099, Note_on_c, 0, 83, 76
1, 183107, Note_on_c, 0, 79, 65
1, 183137, Note_off_c, 0, 79, 66
1, 183146, Control_c, 0, 64, 30
1, 183161, Control_c, 0, 64, 49
1, 183175, Control_c, 0, 64, 58
1, 183190, Control_c, 0, 64, 62
1, 183194, Note_off_c, 0, 83, 58
1, 183205, Control_c, 0, 64, 64
1, 183219, Note_on_c, 0, 78, 75
1, 183219, Control_c, 0, 64, 66
1, 183224, Note_on_c, 0, 81, 68
1, 183228, Note_on_c, 0, 54, 64
1, 183234, Control_c, 0, 64, 67
1, 183235, Note_on_c, 0, 57, 58
1, 183249, Control_c, 0, 64, 68
1, 183254, Note_off_c, 0, 78, 63
1, 183257, Note_off_c, 0, 81, 65
1, 183265, Control_c, 0, 64, 69
1, 183272, Note_off_c, 0, 54, 60
1, 183275, Note_off_c, 0, 57, 65
1, 183310, Control_c, 0, 64, 68
1, 183324, Control_c, 0, 64, 67
1, 183339, Control_c, 0, 64, 66
1, 183354, Control_c, 0, 64, 63
1, 183369, Note_on_c, 0, 79, 71
1, 183369, Control_c, 0, 64, 59
1, 183372, Note_on_c, 0, 76, 68
1, 183384, Note_on_c, 0, 59, 62
1, 183384, Control_c, 0, 64, 53
1, 183388, Note_on_c, 0, 55, 58
1, 183399, Control_c, 0, 64, 46
1, 183406, Note_off_c, 0, 76, 64
1, 183414, Control_c, 0, 64, 40
1, 183429, Control_c, 0, 64, 34
1, 183441, Note_off_c, 0, 79, 61
1, 183443, Control_c, 0, 64, 27
1, 183458, Control_c, 0, 64, 18
1, 183473, Control_c, 0, 64, 0
1, 183504, Note_on_c, 0, 78, 68
1, 183510, Note_on_c, 0, 75, 61
1, 183544, Note_off_c, 0, 75, 63
1, 183554, Note_off_c, 0, 78, 55
1, 183642, Note_on_c, 0, 76, 70
1, 183644, Note_on_c, 0, 79, 67
1, 183689, Note_off_c, 0, 76, 62
1, 183729, Note_off_c, 0, 79, 61
1, 183762, Control_c, 0, 64, 19
1, 183776, Control_c, 0, 64, 35
1, 183790, Note_on_c, 0, 74, 63
1, 183791, Control_c, 0, 64, 46
1, 183793, Note_on_c, 0, 77, 65
1, 183806, Control_c, 0, 64, 53
1, 183821, Control_c, 0, 64, 57
1, 183827, Note_off_c, 0, 74, 62
1, 183835, Note_off_c, 0, 77, 60
1, 183836, Control_c, 0, 64, 58
1, 183939, Control_c, 0, 64, 57
1, 183954, Control_c, 0, 64, 57
1, 183958, Note_on_c, 0, 76, 64
1, 183963, Note_on_c, 0, 60, 47
1, 183966, Note_on_c, 0, 72, 51
1, 183975, Note_off_c, 0, 55, 53
1, 183978, Note_on_c, 0, 57, 45
1, 183984, Control_c, 0, 64, 56
1, 183998, Note_off_c, 0, 59, 30
1, 183999, Control_c, 0, 64, 55
1, 184000, Note_off_c, 0, 72, 66
1, 184007, Note_off_c, 0, 76, 63
1, 184014, Control_c, 0, 64, 54
1, 184029, Control_c, 0, 64, 53
1, 184043, Control_c, 0, 64, 52
1, 184058, Control_c, 0, 64, 50
1, 184074, Control_c, 0, 64, 49
1, 184089, Control_c, 0, 64, 47
1, 184103, Control_c, 0, 64, 45
1, 184118, Control_c, 0, 64, 43
1, 184119, Note_on_c, 0, 74, 56
1, 184127, Note_on_c, 0, 77, 60
1, 184133, Control_c, 0, 64, 42
1, 184148, Control_c, 0, 64, 40
1, 184155, Note_off_c, 0, 74, 64
1, 184163, Control_c, 0, 64, 39
1, 184167, Note_off_c, 0, 77, 62
1, 184178, Control_c, 0, 64, 38
1, 184193, Control_c, 0, 64, 37
1, 184208, Control_c, 0, 64, 36
1, 184222, Control_c, 0, 64, 35
1, 184237, Control_c, 0, 64, 35
1, 184252, Control_c, 0, 64, 34
1, 184261, Note_on_c, 0, 76, 67
1, 184261, Note_on_c, 0, 79, 64
1, 184266, Control_c, 0, 64, 33
1, 184281, Control_c, 0, 64, 33
1, 184294, Note_off_c, 0, 76, 64
1, 184296, Control_c, 0, 64, 32
1, 184297, Note_off_c, 0, 79, 62
1, 184311, Control_c, 0, 64, 32
1, 184326, Control_c, 0, 64, 31
1, 184355, Control_c, 0, 64, 31
1, 184355, Control_c, 0, 67, 11
1, 184370, Control_c, 0, 67, 16
1, 184384, Control_c, 0, 64, 30
1, 184384, Control_c, 0, 67, 17
1, 184394, Note_on_c, 0, 81, 67
1, 184395, Note_on_c, 0, 77, 63
1, 184435, Note_off_c, 0, 77, 65
1, 184437, Control_c, 0, 64, 30
1, 184437, Control_c, 0, 67, 16
1, 184442, Note_off_c, 0, 81, 65
1, 184452, Control_c, 0, 67, 14
1, 184466, Control_c, 0, 67, 12
1, 184481, Control_c, 0, 67, 10
1, 184496, Control_c, 0, 67, 9
1, 184511, Control_c, 0, 67, 0
1, 184526, Control_c, 0, 64, 29
1, 184536, Note_on_c, 0, 83, 70
1, 184537, Note_on_c, 0, 79, 63
1, 184569, Note_off_c, 0, 79, 67
1, 184580, Note_off_c, 0, 83, 64
1, 184670, Note_on_c, 0, 84, 72
1, 184678, Note_on_c, 0, 81, 58
1, 184703, Note_off_c, 0, 81, 65
1, 184715, Note_off_c, 0, 84, 65
1, 184804, Note_on_c, 0, 86, 75
1, 184806, Note_on_c, 0, 83, 67
1, 184837, Note_off_c, 0, 83, 63
1, 184850, Note_off_c, 0, 86, 61
1, 184938, Note_on_c, 0, 88, 76
1, 184941, Note_on_c, 0, 84, 70
1, 184971, Note_off_c, 0, 84, 62
1, 184991, Note_off_c, 0, 88, 64
1, 185030, Control_c, 0, 64, 29
1, 185084, Note_on_c, 0, 89, 79
1, 185087, Note_on_c, 0, 86, 70
1, 185119, Note_off_c, 0, 86, 62
1, 185134, Note_off_c, 0, 89, 62
1, 185200, Control_c, 0, 64, 29
1, 185214, Control_c, 0, 64, 33
1, 185224, Note_on_c, 0, 91, 76
1, 185227, Note_on_c, 0, 88, 69
1, 185229, Control_c, 0, 64, 38
1, 185244, Control_c, 0, 64, 44
1, 185259, Control_c, 0, 64, 51
1, 185260, Note_off_c, 0, 88, 62
1, 185269, Note_off_c, 0, 91, 64
1, 185274, Control_c, 0, 64, 56
1, 185288, Control_c, 0, 64, 59
1, 185303, Control_c, 0, 64, 61
1, 185318, Control_c, 0, 64, 62
1, 185333, Control_c, 0, 64, 63
1, 185348, Control_c, 0, 64, 64
1, 185354, Note_on_c, 0, 93, 81
1, 185361, Note_on_c, 0, 89, 70
1, 185362, Control_c, 0, 64, 65
1, 185377, Control_c, 0, 64, 66
1, 185392, Note_off_c, 0, 89, 60
1, 185392, Control_c, 0, 64, 66
1, 185400, Note_off_c, 0, 57, 58
1, 185402, Note_off_c, 0, 60, 39
1, 185404, Note_off_c, 0, 93, 65
1, 185407, Control_c, 0, 64, 67
1, 185436, Control_c, 0, 64, 66
1, 185466, Control_c, 0, 64, 66
1, 185494, Note_on_c, 0, 91, 63
1, 185496, Note_on_c, 0, 60, 57
1, 185496, Control_c, 0, 64, 65
1, 185498, Note_on_c, 0, 88, 58
1, 185519, Note_off_c, 0, 88, 62
1, 185525, Note_on_c, 0, 57, 49
1, 185525, Control_c, 0, 64, 65
1, 185532, Note_off_c, 0, 91, 62
1, 185536, Note_off_c, 0, 60, 64
1, 185540, Control_c, 0, 64, 64
1, 185555, Control_c, 0, 64, 64
1, 185570, Control_c, 0, 64, 62
1, 185570, Note_off_c, 0, 57, 52
1, 185585, Control_c, 0, 64, 61
1, 185600, Control_c, 0, 64, 59
1, 185614, Control_c, 0, 64, 57
1, 185620, Note_on_c, 0, 86, 71
1, 185621, Note_on_c, 0, 89, 65
1, 185629, Control_c, 0, 64, 56
1, 185631, Poly_aftertouch_c, 0, 57, 127
1, 185644, Control_c, 0, 64, 54
1, 185650, Note_on_c, 0, 53, 44
1, 185656, Note_off_c, 0, 86, 62
1, 185659, Control_c, 0, 64, 53
1, 185663, Note_off_c, 0, 89, 62
1, 185674, Control_c, 0, 64, 51
1, 185689, Control_c, 0, 64, 50
1, 185704, Control_c, 0, 64, 49
1, 185719, Control_c, 0, 64, 48
1, 185734, Control_c, 0, 64, 47
1, 185734, Control_c, 0, 67, 14
1, 185749, Control_c, 0, 64, 46
1, 185749, Control_c, 0, 67, 23
1, 185758, Note_on_c, 0, 84, 64
1, 185758, Note_on_c, 0, 88, 65
1, 185764, Control_c, 0, 64, 45
1, 185764, Control_c, 0, 67, 34
1, 185779, Control_c, 0, 64, 44
1, 185779, Control_c, 0, 67, 47
1, 185789, Note_off_c, 0, 84, 63
1, 185793, Note_off_c, 0, 88, 63
1, 185793, Control_c, 0, 64, 43
1, 185793, Control_c, 0, 67, 62
1, 185808, Control_c, 0, 64, 42
1, 185808, Control_c, 0, 67, 76
1, 185823, Control_c, 0, 64, 41
1, 185823, Control_c, 0, 67, 92
1, 185837, Control_c, 0, 64, 41
1, 185837, Control_c, 0, 67, 108
1, 185852, Control_c, 0, 64, 40
1, 185852, Control_c, 0, 67, 124
1, 185867, Control_c, 0, 67, 127
1, 185882, Control_c, 0, 64, 40
1, 185900, Note_on_c, 0, 86, 62
1, 185909, Note_on_c, 0, 83, 56
1, 185939, Note_off_c, 0, 83, 64
1, 185945, Note_off_c, 0, 86, 61
1, 185949, Control_c, 0, 64, 39
1, 185979, Control_c, 0, 64, 39
1, 186045, Note_on_c, 0, 84, 62
1, 186046, Note_on_c, 0, 81, 62
1, 186078, Note_off_c, 0, 81, 64
1, 186078, Note_off_c, 0, 84, 63
1, 186083, Control_c, 0, 64, 38
1, 186169, Note_on_c, 0, 59, 52
1, 186175, Note_on_c, 0, 55, 41
1, 186178, Poly_aftertouch_c, 0, 57, 0
1, 186182, Note_off_c, 0, 53, 43
1, 186186, Note_on_c, 0, 83, 64
1, 186187, Note_on_c, 0, 79, 61
1, 186219, Note_off_c, 0, 79, 66
1, 186223, Note_off_c, 0, 83, 62
1, 186260, Control_c, 0, 64, 38
1, 186318, Note_on_c, 0, 81, 63
1, 186321, Note_on_c, 0, 77, 62
1, 186354, Note_off_c, 0, 77, 65
1, 186354, Note_off_c, 0, 81, 63
1, 186458, Note_on_c, 0, 79, 64
1, 186459, Note_on_c, 0, 76, 63
1, 186492, Note_off_c, 0, 59, 63
1, 186494, Note_off_c, 0, 76, 63
1, 186499, Note_off_c, 0, 79, 64
1, 186506, Note_off_c, 0, 55, 63
1, 186597, Note_on_c, 0, 77, 61
1, 186603, Note_on_c, 0, 74, 51
1, 186626, Note_off_c, 0, 74, 60
1, 186632, Note_off_c, 0, 77, 63
1, 186750, Note_on_c, 0, 72, 54
1, 186751, Note_on_c, 0, 76, 61
1, 186753, Note_on_c, 0, 60, 45
1, 186755, Note_on_c, 0, 48, 45
1, 186786, Note_off_c, 0, 72, 62
1, 186792, Note_off_c, 0, 76, 62
1, 186889, Note_on_c, 0, 71, 56
1, 186890, Note_on_c, 0, 74, 60
1, 186926, Note_off_c, 0, 71, 62
1, 186928, Note_off_c, 0, 74, 63
1, 187026, Note_on_c, 0, 69, 61
1, 187036, Note_on_c, 0, 72, 60
1, 187065, Note_off_c, 0, 69, 61
1, 187069, Note_off_c, 0, 72, 65
1, 187169, Note_on_c, 0, 71, 61
1, 187180, Note_on_c, 0, 67, 49
1, 187207, Note_off_c, 0, 67, 61
1, 187210, Note_off_c, 0, 71, 62
1, 187314, Note_on_c, 0, 69, 64
1, 187315, Note_on_c, 0, 65, 59
1, 187359, Note_off_c, 0, 65, 59
1, 187362, Note_off_c, 0, 60, 61
1, 187365, Note_off_c, 0, 69, 57
1, 187440, Note_off_c, 0, 48, 59
1, 187466, Note_on_c, 0, 67, 56
1, 187476, Note_on_c, 0, 64, 55
1, 187508, Note_off_c, 0, 64, 65
1, 187513, Note_off_c, 0, 67, 57
1, 187626, Note_on_c, 0, 69, 54
1, 187633, Note_on_c, 0, 65, 41
1, 187661, Note_off_c, 0, 65, 54
1, 187662, Note_off_c, 0, 69, 65
1, 187791, Note_on_c, 0, 43, 34
1, 187793, Note_on_c, 0, 71, 48
1, 187794, Note_on_c, 0, 62, 44
1, 187827, Note_off_c, 0, 62, 61
1, 187838, Note_off_c, 0, 71, 61
1, 187847, Note_off_c, 0, 43, 56
1, 188055, Control_c, 0, 64, 40
1, 188059, Note_on_c, 0, 72, 44
1, 188065, Note_on_c, 0, 64, 45
1, 188070, Control_c, 0, 64, 43
1, 188075, Note_on_c, 0, 36, 28
1, 188085, Control_c, 0, 64, 47
1, 188099, Control_c, 0, 64, 54
1, 188114, Control_c, 0, 64, 59
1, 188129, Control_c, 0, 64, 62
1, 188144, Control_c, 0, 64, 64
1, 188166, Control_c, 0, 64, 67
1, 188181, Control_c, 0, 64, 70
1, 188196, Control_c, 0, 64, 75
1, 188209, Control_c, 0, 64, 81
1, 188224, Control_c, 0, 64, 88
1, 188238, Control_c, 0, 64, 96
1, 188253, Control_c, 0, 64, 106
1, 188254, Note_off_c, 0, 64, 37
1, 188268, Control_c, 0, 64, 125
1, 188274, Note_off_c, 0, 72, 59
1, 188283, Control_c, 0, 64, 127
1, 188310, Note_off_c, 0, 36, 35
1, 188659, Note_on_c, 0, 36, 40
1, 188854, Note_off_c, 0, 36, 27
1, 188866, Note_on_c, 0, 69, 53
1, 188874, Note_on_c, 0, 57, 48
1, 188888, Note_on_c, 0, 43, 24
1, 188928, Note_off_c, 0, 57, 59
1, 188941, Note_off_c, 0, 69, 59
1, 189053, Note_on_c, 0, 67, 61
1, 189055, Note_off_c, 0, 43, 33
1, 189060, Note_on_c, 0, 55, 51
1, 189066, Note_on_c, 0, 52, 41
1, 189121, Control_c, 0, 64, 108
1, 189135, Control_c, 0, 64, 91
1, 189141, Note_off_c, 0, 52, 53
1, 189150, Control_c, 0, 64, 75
1, 189165, Control_c, 0, 64, 63
1, 189180, Control_c, 0, 64, 48
1, 189195, Control_c, 0, 64, 40
1, 189202, Note_off_c, 0, 55, 41
1, 189210, Control_c, 0, 64, 44
1, 189210, Note_on_c, 0, 36, 50
1, 189225, Control_c, 0, 64, 51
1, 189240, Control_c, 0, 64, 57
1, 189254, Control_c, 0, 64, 61
1, 189269, Control_c, 0, 64, 64
1, 189269, Control_c, 0, 67, 120
1, 189284, Control_c, 0, 64, 67
1, 189284, Control_c, 0, 67, 104
1, 189299, Control_c, 0, 64, 70
1, 189299, Control_c, 0, 67, 84
1, 189314, Control_c, 0, 64, 76
1, 189314, Control_c, 0, 67, 63
1, 189328, Control_c, 0, 64, 84
1, 189328, Control_c, 0, 67, 44
1, 189343, Control_c, 0, 64, 95
1, 189343, Control_c, 0, 67, 25
1, 189358, Control_c, 0, 64, 117
1, 189358, Control_c, 0, 67, 9
1, 189371, Note_on_c, 0, 71, 77
1, 189373, Note_off_c, 0, 36, 50
1, 189373, Control_c, 0, 64, 127
1, 189373, Control_c, 0, 67, 0
1, 189385, Note_on_c, 0, 59, 53
1, 189387, Note_on_c, 0, 43, 43
1, 189398, Note_off_c, 0, 67, 56
1, 189421, Note_off_c, 0, 59, 63
1, 189454, Note_off_c, 0, 71, 61
1, 189539, Note_on_c, 0, 72, 81
1, 189550, Control_c, 0, 64, 120
1, 189553, Note_on_c, 0, 52, 55
1, 189557, Note_on_c, 0, 60, 63
1, 189565, Control_c, 0, 64, 98
1, 189580, Control_c, 0, 64, 80
1, 189595, Control_c, 0, 64, 68
1, 189609, Control_c, 0, 64, 57
1, 189618, Note_off_c, 0, 43, 27
1, 189624, Control_c, 0, 64, 39
1, 189639, Control_c, 0, 64, 30
1, 189656, Note_off_c, 0, 52, 58
1, 189663, Control_c, 0, 64, 31
1, 189678, Control_c, 0, 64, 37
1, 189692, Control_c, 0, 64, 44
1, 189708, Control_c, 0, 64, 53
1, 189718, Note_on_c, 0, 36, 58
1, 189722, Control_c, 0, 64, 60
1, 189737, Control_c, 0, 64, 64
1, 189743, Note_off_c, 0, 60, 57
1, 189752, Control_c, 0, 64, 67
1, 189767, Control_c, 0, 64, 72
1, 189782, Control_c, 0, 64, 78
1, 189797, Control_c, 0, 64, 85
1, 189812, Control_c, 0, 64, 95
1, 189827, Control_c, 0, 64, 109
1, 189841, Control_c, 0, 64, 127
1, 189886, Note_on_c, 0, 74, 80
1, 189895, Note_on_c, 0, 43, 49
1, 189898, Note_on_c, 0, 62, 61
1, 189898, Note_off_c, 0, 36, 37
1, 189925, Note_off_c, 0, 72, 62
1, 189938, Note_off_c, 0, 62, 58
1, 189981, Note_off_c, 0, 74, 61
1, 190092, Control_c, 0, 64, 113
1, 190094, Note_on_c, 0, 76, 79
1, 190100, Note_on_c, 0, 52, 43
1, 190107, Control_c, 0, 64, 96
1, 190115, Note_off_c, 0, 43, 27
1, 190116, Note_on_c, 0, 64, 55
1, 190122, Control_c, 0, 64, 81
1, 190137, Control_c, 0, 64, 68
1, 190152, Control_c, 0, 64, 49
1, 190152, Note_off_c, 0, 52, 52
1, 190167, Control_c, 0, 64, 0
1, 190271, Control_c, 0, 64, 29
1, 190283, Note_on_c, 0, 35, 48
1, 190285, Control_c, 0, 64, 51
1, 190300, Control_c, 0, 64, 61
1, 190315, Control_c, 0, 64, 65
1, 190328, Note_off_c, 0, 76, 61
1, 190330, Control_c, 0, 64, 71
1, 190345, Control_c, 0, 64, 77
1, 190347, Note_off_c, 0, 64, 63
1, 190359, Control_c, 0, 64, 85
1, 190374, Control_c, 0, 64, 93
1, 190389, Control_c, 0, 64, 102
1, 190411, Control_c, 0, 64, 114
1, 190426, Control_c, 0, 64, 127
1, 190467, Note_off_c, 0, 35, 35
1, 190469, Note_on_c, 0, 74, 66
1, 190475, Note_on_c, 0, 43, 45
1, 190498, Note_on_c, 0, 62, 32
1, 190515, Control_c, 0, 64, 122
1, 190526, Note_off_c, 0, 74, 61
1, 190530, Control_c, 0, 64, 116
1, 190532, Note_off_c, 0, 62, 47
1, 190545, Control_c, 0, 64, 113
1, 190560, Control_c, 0, 64, 110
1, 190575, Control_c, 0, 64, 106
1, 190575, Control_c, 0, 67, 9
1, 190590, Control_c, 0, 64, 102
1, 190590, Control_c, 0, 67, 10
1, 190605, Control_c, 0, 64, 97
1, 190620, Control_c, 0, 64, 87
1, 190625, Note_on_c, 0, 72, 69
1, 190634, Control_c, 0, 64, 76
1, 190634, Control_c, 0, 67, 9
1, 190649, Control_c, 0, 64, 65
1, 190649, Control_c, 0, 67, 8
1, 190649, Note_on_c, 0, 50, 48
1, 190654, Note_on_c, 0, 60, 35
1, 190664, Control_c, 0, 64, 50
1, 190664, Control_c, 0, 67, 0
1, 190667, Note_off_c, 0, 43, 39
1, 190679, Control_c, 0, 64, 14
1, 190694, Control_c, 0, 64, 0
1, 190727, Note_off_c, 0, 50, 51
1, 190753, Control_c, 0, 64, 11
1, 190768, Control_c, 0, 64, 31
1, 190782, Control_c, 0, 64, 47
1, 190797, Control_c, 0, 64, 59
1, 190812, Control_c, 0, 64, 64
1, 190815, Note_on_c, 0, 35, 42
1, 190827, Control_c, 0, 64, 67
1, 190842, Control_c, 0, 64, 70
1, 190855, Note_off_c, 0, 72, 57
1, 190856, Control_c, 0, 64, 75
1, 190857, Note_off_c, 0, 60, 63
1, 190871, Control_c, 0, 64, 80
1, 190886, Control_c, 0, 64, 87
1, 190900, Control_c, 0, 64, 93
1, 190915, Control_c, 0, 64, 102
1, 190930, Control_c, 0, 64, 112
1, 190945, Control_c, 0, 64, 127
1, 190979, Note_on_c, 0, 71, 68
1, 190990, Note_on_c, 0, 43, 41
1, 190994, Note_off_c, 0, 35, 36
1, 191001, Note_on_c, 0, 59, 46
1, 191028, Note_off_c, 0, 71, 54
1, 191031, Note_off_c, 0, 59, 62
1, 191079, Control_c, 0, 64, 125
1, 191094, Control_c, 0, 64, 113
1, 191108, Control_c, 0, 64, 107
1, 191123, Control_c, 0, 64, 101
1, 191138, Control_c, 0, 64, 93
1, 191156, Note_on_c, 0, 69, 66
1, 191160, Control_c, 0, 64, 82
1, 191169, Note_on_c, 0, 57, 44
1, 191175, Control_c, 0, 64, 68
1, 191177, Note_on_c, 0, 50, 44
1, 191180, Note_off_c, 0, 43, 33
1, 191189, Control_c, 0, 64, 56
1, 191204, Control_c, 0, 64, 28
1, 191219, Control_c, 0, 64, 0
1, 191252, Note_off_c, 0, 50, 52
1, 191264, Control_c, 0, 64, 19
1, 191278, Control_c, 0, 64, 33
1, 191293, Control_c, 0, 64, 46
1, 191308, Control_c, 0, 64, 57
1, 191312, Note_off_c, 0, 57, 62
1, 191323, Control_c, 0, 64, 63
1, 191326, Note_on_c, 0, 35, 43
1, 191338, Control_c, 0, 64, 66
1, 191353, Control_c, 0, 64, 70
1, 191368, Control_c, 0, 64, 73
1, 191383, Control_c, 0, 64, 78
1, 191398, Control_c, 0, 64, 83
1, 191412, Control_c, 0, 64, 89
1, 191427, Control_c, 0, 64, 95
1, 191442, Control_c, 0, 64, 102
1, 191456, Control_c, 0, 64, 109
1, 191463, Note_off_c, 0, 35, 0
1, 191467, Note_off_c, 0, 69, 36
1, 191471, Control_c, 0, 64, 112
1, 191476, Note_on_c, 0, 43, 49
1, 191478, Note_on_c, 0, 66, 62
1, 191486, Control_c, 0, 64, 114
1, 191487, Note_on_c, 0, 54, 58
1, 191494, Poly_aftertouch_c, 0, 35, 0
1, 191501, Control_c, 0, 64, 115
1, 191516, Control_c, 0, 64, 116
1, 191530, Control_c, 0, 64, 117
1, 191544, Note_off_c, 0, 43, 58
1, 191552, Note_off_c, 0, 54, 60
1, 191575, Control_c, 0, 64, 116
1, 191590, Control_c, 0, 64, 114
1, 191591, Note_off_c, 0, 66, 57
1, 191604, Control_c, 0, 64, 111
1, 191619, Control_c, 0, 64, 108
1, 191634, Control_c, 0, 64, 103
1, 191637, Note_on_c, 0, 67, 69
1, 191646, Note_on_c, 0, 50, 43
1, 191648, Control_c, 0, 64, 99
1, 191651, Note_on_c, 0, 55, 57
1, 191663, Control_c, 0, 64, 90
1, 191678, Control_c, 0, 64, 76
1, 191693, Control_c, 0, 64, 62
1, 191708, Control_c, 0, 64, 33
1, 191723, Control_c, 0, 64, 0
1, 191743, Note_off_c, 0, 50, 56
1, 191797, Control_c, 0, 64, 25
1, 191801, Note_off_c, 0, 55, 56
1, 191808, Note_on_c, 0, 37, 62
1, 191812, Control_c, 0, 64, 50
1, 191827, Control_c, 0, 64, 60
1, 191842, Control_c, 0, 64, 64
1, 191856, Control_c, 0, 64, 67
1, 191871, Control_c, 0, 64, 71
1, 191886, Control_c, 0, 64, 74
1, 191908, Control_c, 0, 64, 78
1, 191923, Control_c, 0, 64, 84
1, 191937, Control_c, 0, 64, 90
1, 191952, Control_c, 0, 64, 97
1, 191965, Note_off_c, 0, 37, 60
1, 191967, Control_c, 0, 64, 102
1, 191972, Note_on_c, 0, 43, 55
1, 191975, Note_on_c, 0, 70, 74
1, 191982, Control_c, 0, 64, 107
1, 191988, Note_on_c, 0, 58, 55
1, 191997, Control_c, 0, 64, 113
1, 192009, Note_off_c, 0, 67, 54
1, 192012, Control_c, 0, 64, 127
1, 192034, Note_off_c, 0, 58, 62
1, 192053, Note_off_c, 0, 70, 66
1, 192101, Control_c, 0, 64, 125
1, 192116, Control_c, 0, 64, 113
1, 192131, Control_c, 0, 64, 106
1, 192143, Note_on_c, 0, 52, 56
1, 192146, Control_c, 0, 64, 97
1, 192149, Note_on_c, 0, 69, 83
1, 192161, Note_on_c, 0, 57, 66
1, 192161, Control_c, 0, 64, 81
1, 192176, Control_c, 0, 64, 64
1, 192191, Control_c, 0, 64, 0
1, 192205, Note_off_c, 0, 43, 54
1, 192212, Note_off_c, 0, 52, 57
1, 192265, Control_c, 0, 64, 38
1, 192279, Control_c, 0, 64, 56
1, 192294, Control_c, 0, 64, 64
1, 192301, Note_off_c, 0, 57, 63
1, 192309, Control_c, 0, 64, 69
1, 192311, Note_on_c, 0, 37, 66
1, 192324, Control_c, 0, 64, 75
1, 192339, Control_c, 0, 64, 85
1, 192340, Note_off_c, 0, 69, 64
1, 192353, Control_c, 0, 64, 97
1, 192368, Control_c, 0, 64, 127
1, 192458, Note_on_c, 0, 75, 81
1, 192465, Note_on_c, 0, 45, 58
1, 192468, Note_on_c, 0, 63, 68
1, 192492, Note_off_c, 0, 37, 58
1, 192526, Note_off_c, 0, 63, 62
1, 192549, Note_off_c, 0, 75, 61
1, 192635, Control_c, 0, 64, 115
1, 192636, Note_on_c, 0, 76, 90
1, 192638, Note_on_c, 0, 64, 79
1, 192640, Note_on_c, 0, 52, 52
1, 192657, Control_c, 0, 64, 88
1, 192672, Control_c, 0, 64, 70
1, 192682, Note_off_c, 0, 45, 52
1, 192686, Control_c, 0, 64, 53
1, 192701, Control_c, 0, 64, 0
1, 192733, Note_off_c, 0, 52, 60
1, 192810, Note_off_c, 0, 64, 59
1, 192820, Control_c, 0, 64, 36
1, 192820, Note_on_c, 0, 37, 61
1, 192835, Control_c, 0, 64, 53
1, 192850, Control_c, 0, 64, 61
1, 192865, Control_c, 0, 64, 64
1, 192880, Control_c, 0, 64, 66
1, 192895, Control_c, 0, 64, 69
1, 192909, Control_c, 0, 64, 71
1, 192924, Control_c, 0, 64, 75
1, 192939, Control_c, 0, 64, 80
1, 192954, Control_c, 0, 64, 86
1, 192963, Note_on_c, 0, 77, 86
1, 192969, Control_c, 0, 64, 93
1, 192971, Note_on_c, 0, 65, 67
1, 192975, Note_off_c, 0, 37, 59
1, 192976, Note_on_c, 0, 45, 54
1, 192984, Control_c, 0, 64, 100
1, 192998, Control_c, 0, 64, 106
1, 193001, Note_off_c, 0, 76, 62
1, 193010, Note_off_c, 0, 65, 58
1, 193013, Control_c, 0, 64, 108
1, 193028, Control_c, 0, 64, 109
1, 193057, Note_off_c, 0, 77, 64
1, 193088, Control_c, 0, 64, 108
1, 193102, Control_c, 0, 64, 106
1, 193117, Control_c, 0, 64, 102
1, 193132, Control_c, 0, 64, 98
1, 193147, Control_c, 0, 64, 93
1, 193148, Note_on_c, 0, 79, 78
1, 193150, Note_off_c, 0, 45, 52
1, 193160, Note_on_c, 0, 52, 45
1, 193162, Control_c, 0, 64, 86
1, 193169, Note_on_c, 0, 67, 54
1, 193176, Control_c, 0, 64, 76
1, 193191, Control_c, 0, 64, 66
1, 193206, Control_c, 0, 64, 49
1, 193221, Control_c, 0, 64, 0
1, 193233, Note_off_c, 0, 52, 51
1, 193324, Control_c, 0, 64, 26
1, 193335, Note_on_c, 0, 38, 50
1, 193339, Control_c, 0, 64, 48
1, 193354, Control_c, 0, 64, 59
1, 193361, Note_off_c, 0, 79, 58
1, 193368, Control_c, 0, 64, 63
1, 193383, Control_c, 0, 64, 66
1, 193387, Note_off_c, 0, 67, 63
1, 193406, Control_c, 0, 64, 69
1, 193421, Control_c, 0, 64, 72
1, 193435, Control_c, 0, 64, 75
1, 193451, Control_c, 0, 64, 79
1, 193466, Control_c, 0, 64, 82
1, 193481, Control_c, 0, 64, 86
1, 193492, Note_off_c, 0, 38, 37
1, 193496, Control_c, 0, 64, 88
1, 193510, Control_c, 0, 64, 89
1, 193520, Note_on_c, 0, 76, 65
1, 193525, Control_c, 0, 64, 89
1, 193528, Note_on_c, 0, 64, 58
1, 193535, Note_on_c, 0, 45, 40
1, 193567, Note_off_c, 0, 64, 61
1, 193593, Note_off_c, 0, 76, 62
1, 193628, Control_c, 0, 64, 88
1, 193645, Control_c, 0, 64, 87
1, 193646, Note_off_c, 0, 45, 47
1, 193660, Control_c, 0, 64, 86
1, 193674, Control_c, 0, 64, 84
1, 193689, Control_c, 0, 64, 80
1, 193695, Note_on_c, 0, 77, 67
1, 193699, Note_on_c, 0, 53, 47
1, 193704, Control_c, 0, 64, 75
1, 193714, Note_on_c, 0, 65, 42
1, 193719, Control_c, 0, 64, 68
1, 193719, Control_c, 0, 67, 9
1, 193733, Control_c, 0, 64, 60
1, 193733, Control_c, 0, 67, 9
1, 193748, Control_c, 0, 64, 40
1, 193748, Control_c, 0, 67, 10
1, 193763, Control_c, 0, 64, 0
1, 193776, Note_off_c, 0, 53, 49
1, 193793, Control_c, 0, 67, 9
1, 193807, Control_c, 0, 67, 8
1, 193822, Control_c, 0, 67, 0
1, 193852, Control_c, 0, 64, 26
1, 193867, Control_c, 0, 64, 45
1, 193872, Note_on_c, 0, 38, 47
1, 193881, Control_c, 0, 64, 58
1, 193896, Control_c, 0, 64, 63
1, 193901, Note_off_c, 0, 77, 50
1, 193911, Control_c, 0, 64, 65
1, 193926, Control_c, 0, 64, 67
1, 193927, Note_off_c, 0, 65, 59
1, 193940, Control_c, 0, 64, 69
1, 193955, Control_c, 0, 64, 70
1, 193970, Control_c, 0, 64, 73
1, 193985, Control_c, 0, 64, 75
1, 193993, Note_off_c, 0, 38, 54
1, 194000, Control_c, 0, 64, 77
1, 194015, Control_c, 0, 64, 79
1, 194030, Control_c, 0, 64, 81
1, 194040, Note_on_c, 0, 45, 43
1, 194044, Control_c, 0, 64, 82
1, 194048, Note_on_c, 0, 76, 63
1, 194059, Control_c, 0, 64, 82
1, 194070, Note_on_c, 0, 64, 38
1, 194089, Note_off_c, 0, 76, 59
1, 194101, Note_off_c, 0, 64, 53
1, 194170, Control_c, 0, 64, 82
1, 194173, Note_off_c, 0, 45, 50
1, 194185, Control_c, 0, 64, 81
1, 194200, Control_c, 0, 64, 80
1, 194210, Note_on_c, 0, 74, 62
1, 194215, Control_c, 0, 64, 79
1, 194221, Note_on_c, 0, 53, 49
1, 194224, Note_on_c, 0, 62, 46
1, 194230, Control_c, 0, 64, 76
1, 194244, Control_c, 0, 64, 68
1, 194259, Control_c, 0, 64, 57
1, 194274, Control_c, 0, 64, 18
1, 194289, Control_c, 0, 64, 0
1, 194291, Note_off_c, 0, 53, 51
1, 194357, Note_off_c, 0, 62, 54
1, 194363, Control_c, 0, 64, 36
1, 194378, Control_c, 0, 64, 51
1, 194385, Note_on_c, 0, 38, 52
1, 194393, Control_c, 0, 64, 60
1, 194407, Control_c, 0, 64, 63
1, 194422, Control_c, 0, 64, 66
1, 194437, Control_c, 0, 64, 69
1, 194453, Control_c, 0, 64, 71
1, 194468, Control_c, 0, 64, 74
1, 194483, Control_c, 0, 64, 77
1, 194497, Control_c, 0, 64, 81
1, 194512, Control_c, 0, 64, 84
1, 194518, Note_off_c, 0, 74, 56
1, 194527, Control_c, 0, 64, 87
1, 194528, Note_off_c, 0, 38, 52
1, 194534, Note_on_c, 0, 76, 67
1, 194542, Control_c, 0, 64, 89
1, 194546, Note_on_c, 0, 45, 49
1, 194549, Note_on_c, 0, 64, 61
1, 194556, Control_c, 0, 64, 91
1, 194571, Control_c, 0, 64, 93
1, 194576, Note_off_c, 0, 76, 60
1, 194582, Note_off_c, 0, 64, 66
1, 194586, Control_c, 0, 64, 94
1, 194601, Control_c, 0, 64, 95
1, 194616, Control_c, 0, 64, 96
1, 194617, Note_off_c, 0, 45, 59
1, 194690, Control_c, 0, 64, 95
1, 194694, Note_on_c, 0, 53, 56
1, 194705, Note_on_c, 0, 72, 70
1, 194705, Control_c, 0, 64, 94
1, 194718, Note_on_c, 0, 60, 61
1, 194720, Control_c, 0, 64, 93
1, 194735, Control_c, 0, 64, 91
1, 194749, Control_c, 0, 64, 90
1, 194753, Note_off_c, 0, 53, 56
1, 194764, Control_c, 0, 64, 86
1, 194779, Control_c, 0, 64, 80
1, 194794, Control_c, 0, 64, 67
1, 194809, Control_c, 0, 64, 50
1, 194823, Control_c, 0, 64, 0
1, 194845, Note_off_c, 0, 60, 61
1, 194859, Note_on_c, 0, 39, 68
1, 194920, Control_c, 0, 64, 33
1, 194935, Control_c, 0, 64, 52
1, 194949, Control_c, 0, 64, 61
1, 194964, Control_c, 0, 64, 65
1, 194979, Control_c, 0, 64, 69
1, 194994, Control_c, 0, 64, 75
1, 195009, Control_c, 0, 64, 82
1, 195020, Note_on_c, 0, 70, 71
1, 195022, Note_on_c, 0, 47, 57
1, 195023, Control_c, 0, 64, 90
1, 195024, Note_on_c, 0, 58, 64
1, 195031, Note_off_c, 0, 72, 44
1, 195038, Control_c, 0, 64, 104
1, 195053, Control_c, 0, 64, 127
1, 195082, Note_off_c, 0, 58, 61
1, 195116, Note_off_c, 0, 39, 37
1, 195122, Note_off_c, 0, 70, 61
1, 195186, Note_on_c, 0, 71, 83
1, 195193, Note_on_c, 0, 54, 55
1, 195195, Note_on_c, 0, 59, 70
1, 195216, Note_off_c, 0, 47, 56
1, 195231, Control_c, 0, 64, 94
1, 195246, Control_c, 0, 64, 71
1, 195261, Control_c, 0, 64, 50
1, 195276, Control_c, 0, 64, 0
1, 195278, Note_off_c, 0, 54, 58
1, 195321, Note_off_c, 0, 59, 56
1, 195335, Control_c, 0, 64, 39
1, 195346, Note_on_c, 0, 39, 67
1, 195350, Control_c, 0, 64, 57
1, 195365, Control_c, 0, 64, 65
1, 195380, Control_c, 0, 64, 71
1, 195380, Note_off_c, 0, 71, 62
1, 195395, Control_c, 0, 64, 80
1, 195410, Control_c, 0, 64, 92
1, 195425, Control_c, 0, 64, 111
1, 195440, Control_c, 0, 64, 127
1, 195505, Note_on_c, 0, 47, 59
1, 195509, Note_on_c, 0, 77, 84
1, 195518, Note_on_c, 0, 65, 65
1, 195563, Note_off_c, 0, 65, 60
1, 195581, Note_off_c, 0, 77, 62
1, 195613, Note_off_c, 0, 39, 36
1, 195679, Note_on_c, 0, 78, 92
1, 195684, Note_on_c, 0, 54, 60
1, 195688, Note_on_c, 0, 66, 78
1, 195727, Control_c, 0, 64, 112
1, 195742, Control_c, 0, 64, 84
1, 195757, Control_c, 0, 64, 65
1, 195764, Note_off_c, 0, 47, 52
1, 195769, Note_off_c, 0, 54, 62
1, 195772, Control_c, 0, 64, 28
1, 195786, Control_c, 0, 64, 0
1, 195828, Note_on_c, 0, 39, 71
1, 195846, Control_c, 0, 64, 22
1, 195860, Control_c, 0, 64, 49
1, 195875, Control_c, 0, 64, 60
1, 195890, Control_c, 0, 64, 66
1, 195905, Control_c, 0, 64, 71
1, 195920, Control_c, 0, 64, 80
1, 195926, Note_off_c, 0, 78, 62
1, 195935, Control_c, 0, 64, 90
1, 195938, Note_off_c, 0, 66, 61
1, 195950, Control_c, 0, 64, 104
1, 195964, Control_c, 0, 64, 127
1, 195990, Note_on_c, 0, 48, 67
1, 195991, Note_on_c, 0, 79, 89
1, 195994, Note_on_c, 0, 67, 77
1, 196016, Note_off_c, 0, 39, 59
1, 196050, Note_off_c, 0, 67, 61
1, 196078, Note_off_c, 0, 79, 64
1, 196149, Note_on_c, 0, 54, 65
1, 196158, Note_on_c, 0, 81, 89
1, 196167, Note_on_c, 0, 69, 84
1, 196179, Note_off_c, 0, 48, 56
1, 196217, Control_c, 0, 64, 104
1, 196223, Note_off_c, 0, 54, 62
1, 196232, Control_c, 0, 64, 80
1, 196247, Control_c, 0, 64, 61
1, 196262, Control_c, 0, 64, 0
1, 196325, Note_on_c, 0, 40, 78
1, 196350, Control_c, 0, 64, 14
1, 196356, Note_off_c, 0, 81, 58
1, 196365, Control_c, 0, 64, 51
1, 196380, Control_c, 0, 64, 65
1, 196402, Note_off_c, 0, 69, 61
1, 196402, Control_c, 0, 64, 74
1, 196417, Control_c, 0, 64, 91
1, 196432, Control_c, 0, 64, 127
1, 196504, Note_on_c, 0, 79, 89
1, 196505, Note_on_c, 0, 67, 86
1, 196515, Note_on_c, 0, 48, 69
1, 196523, Note_off_c, 0, 40, 58
1, 196553, Note_off_c, 0, 67, 63
1, 196581, Note_off_c, 0, 79, 63
1, 196690, Note_on_c, 0, 82, 102
1, 196695, Note_on_c, 0, 70, 93
1, 196697, Note_on_c, 0, 55, 64
1, 196717, Note_off_c, 0, 48, 57
1, 196757, Control_c, 0, 64, 110
1, 196772, Control_c, 0, 64, 79
1, 196787, Control_c, 0, 64, 60
1, 196802, Control_c, 0, 64, 0
1, 196805, Note_off_c, 0, 55, 58
1, 196867, Note_on_c, 0, 41, 84
1, 196906, Control_c, 0, 64, 35
1, 196921, Control_c, 0, 64, 57
1, 196925, Note_off_c, 0, 82, 57
1, 196936, Control_c, 0, 64, 65
1, 196951, Control_c, 0, 64, 74
1, 196959, Note_off_c, 0, 70, 61
1, 196966, Control_c, 0, 64, 90
1, 196981, Control_c, 0, 64, 127
1, 197038, Note_on_c, 0, 48, 72
1, 197042, Note_on_c, 0, 69, 91
1, 197043, Note_on_c, 0, 81, 93
1, 197062, Note_off_c, 0, 41, 62
1, 197088, Note_off_c, 0, 69, 66
1, 197109, Note_off_c, 0, 81, 64
1, 197216, Note_off_c, 0, 48, 61
1, 197245, Note_on_c, 0, 57, 67
1, 197266, Note_on_c, 0, 81, 92
1, 197268, Note_on_c, 0, 69, 93
1, 197315, Control_c, 0, 64, 81
1, 197330, Control_c, 0, 64, 63
1, 197344, Control_c, 0, 64, 0
1, 197388, Note_off_c, 0, 57, 39
1, 197448, Control_c, 0, 64, 22
1, 197462, Note_on_c, 0, 41, 80
1, 197463, Control_c, 0, 64, 53
1, 197475, Note_off_c, 0, 69, 63
1, 197477, Control_c, 0, 64, 64
1, 197492, Control_c, 0, 64, 72
1, 197507, Control_c, 0, 64, 92
1, 197512, Note_off_c, 0, 81, 66
1, 197522, Control_c, 0, 64, 127
1, 197713, Note_on_c, 0, 93, 96
1, 197719, Note_on_c, 0, 81, 81
1, 197732, Note_on_c, 0, 49, 58
1, 197751, Note_off_c, 0, 41, 56
1, 197823, Note_off_c, 0, 81, 55
1, 197838, Note_off_c, 0, 93, 63
1, 197991, Note_on_c, 0, 57, 49
1, 197994, Note_on_c, 0, 93, 87
1, 198006, Note_on_c, 0, 81, 77
1, 198020, Note_off_c, 0, 49, 50
1, 198034, Control_c, 0, 64, 99
1, 198048, Control_c, 0, 64, 82
1, 198063, Control_c, 0, 64, 67
1, 198078, Control_c, 0, 64, 54
1, 198093, Control_c, 0, 64, 0
1, 198132, Note_off_c, 0, 57, 41
1, 198206, Note_on_c, 0, 41, 52
1, 198212, Control_c, 0, 64, 37
1, 198227, Control_c, 0, 64, 55
1, 198241, Control_c, 0, 64, 63
1, 198251, Note_off_c, 0, 93, 56
1, 198256, Control_c, 0, 64, 67
1, 198271, Control_c, 0, 64, 70
1, 198286, Note_off_c, 0, 81, 63
1, 198286, Control_c, 0, 64, 74
1, 198300, Control_c, 0, 64, 78
1, 198315, Control_c, 0, 64, 82
1, 198330, Control_c, 0, 64, 87
1, 198345, Control_c, 0, 64, 92
1, 198360, Control_c, 0, 64, 96
1, 198374, Control_c, 0, 64, 100
1, 198383, Note_off_c, 0, 41, 35
1, 198389, Control_c, 0, 64, 101
1, 198404, Control_c, 0, 64, 102
1, 198409, Note_on_c, 0, 91, 76
1, 198421, Note_on_c, 0, 79, 57
1, 198426, Note_on_c, 0, 50, 46
1, 198458, Note_off_c, 0, 79, 63
1, 198464, Note_off_c, 0, 91, 59
1, 198523, Control_c, 0, 64, 101
1, 198538, Control_c, 0, 64, 99
1, 198553, Control_c, 0, 64, 96
1, 198568, Control_c, 0, 64, 93
1, 198583, Control_c, 0, 64, 86
1, 198590, Note_on_c, 0, 89, 72
1, 198597, Control_c, 0, 64, 77
1, 198603, Note_on_c, 0, 77, 58
1, 198607, Note_on_c, 0, 57, 42
1, 198612, Control_c, 0, 64, 65
1, 198615, Note_off_c, 0, 50, 35
1, 198627, Control_c, 0, 64, 47
1, 198650, Control_c, 0, 64, 0
1, 198664, Note_off_c, 0, 57, 52
1, 198737, Control_c, 0, 64, 30
1, 198752, Control_c, 0, 64, 54
1, 198766, Control_c, 0, 64, 64
1, 198775, Note_on_c, 0, 43, 46
1, 198781, Note_off_c, 0, 89, 57
1, 198781, Control_c, 0, 64, 70
1, 198796, Control_c, 0, 64, 78
1, 198806, Note_off_c, 0, 77, 63
1, 198811, Control_c, 0, 64, 91
1, 198826, Control_c, 0, 64, 105
1, 198841, Control_c, 0, 64, 127
1, 198924, Note_off_c, 0, 43, 37
1, 198933, Note_on_c, 0, 88, 69
1, 198935, Note_on_c, 0, 76, 60
1, 198940, Note_on_c, 0, 50, 45
1, 198970, Note_off_c, 0, 76, 63
1, 198995, Note_off_c, 0, 88, 63
1, 199002, Note_off_c, 0, 50, 61
1, 199097, Note_on_c, 0, 89, 75
1, 199100, Note_on_c, 0, 59, 52
1, 199103, Note_on_c, 0, 77, 70
1, 199134, Note_off_c, 0, 77, 64
1, 199136, Note_off_c, 0, 89, 55
1, 199136, Control_c, 0, 64, 120
1, 199139, Note_off_c, 0, 59, 63
1, 199151, Control_c, 0, 64, 116
1, 199166, Control_c, 0, 64, 110
1, 199181, Control_c, 0, 64, 105
1, 199196, Control_c, 0, 64, 100
1, 199211, Control_c, 0, 64, 88
1, 199226, Control_c, 0, 64, 72
1, 199241, Control_c, 0, 64, 56
1, 199256, Control_c, 0, 64, 0
1, 199274, Note_on_c, 0, 43, 46
1, 199276, Note_on_c, 0, 86, 75
1, 199279, Note_on_c, 0, 74, 67
1, 199300, Control_c, 0, 64, 38
1, 199315, Control_c, 0, 64, 57
1, 199326, Note_off_c, 0, 74, 58
1, 199330, Control_c, 0, 64, 64
1, 199345, Control_c, 0, 64, 70
1, 199360, Note_off_c, 0, 86, 61
1, 199360, Control_c, 0, 64, 79
1, 199375, Control_c, 0, 64, 88
1, 199397, Control_c, 0, 64, 98
1, 199412, Control_c, 0, 64, 107
1, 199426, Control_c, 0, 64, 115
1, 199441, Control_c, 0, 64, 127
1, 199443, Note_off_c, 0, 43, 37
1, 199463, Note_on_c, 0, 53, 53
1, 199467, Note_on_c, 0, 91, 84
1, 199482, Note_on_c, 0, 79, 68
1, 199519, Note_off_c, 0, 79, 61
1, 199556, Note_off_c, 0, 91, 57
1, 199620, Note_off_c, 0, 53, 38
1, 199676, Note_on_c, 0, 91, 72
1, 199678, Note_on_c, 0, 59, 42
1, 199688, Note_on_c, 0, 79, 63
1, 199708, Control_c, 0, 64, 117
1, 199708, Note_off_c, 0, 59, 58
1, 199723, Control_c, 0, 64, 108
1, 199737, Control_c, 0, 64, 97
1, 199752, Control_c, 0, 64, 84
1, 199767, Control_c, 0, 64, 70
1, 199782, Control_c, 0, 64, 54
1, 199797, Control_c, 0, 64, 0
1, 199885, Control_c, 0, 64, 40
1, 199886, Note_off_c, 0, 91, 62
1, 199887, Note_on_c, 0, 52, 44
1, 199899, Note_on_c, 0, 60, 44
1, 199900, Control_c, 0, 64, 57
1, 199902, Note_on_c, 0, 48, 37
1, 199908, Note_off_c, 0, 79, 64
1, 199915, Control_c, 0, 64, 65
1, 199930, Control_c, 0, 64, 70
1, 199944, Control_c, 0, 64, 76
1, 199959, Control_c, 0, 64, 82
1, 199974, Control_c, 0, 64, 89
1, 199989, Control_c, 0, 64, 94
1, 200004, Control_c, 0, 64, 98
1, 200018, Control_c, 0, 64, 98
1, 200078, Note_on_c, 0, 84, 68
1, 200093, Note_on_c, 0, 72, 43
1, 200122, Note_off_c, 0, 72, 55
1, 200125, Note_off_c, 0, 84, 50
1, 200146, Control_c, 0, 64, 98
1, 200190, Control_c, 0, 64, 97
1, 200205, Control_c, 0, 64, 97
1, 200220, Control_c, 0, 64, 96
1, 200249, Control_c, 0, 64, 96
1, 200258, Note_on_c, 0, 83, 68
1, 200259, Note_on_c, 0, 71, 61
1, 200264, Control_c, 0, 64, 95
1, 200279, Control_c, 0, 64, 94
1, 200294, Note_off_c, 0, 71, 64
1, 200294, Control_c, 0, 64, 93
1, 200309, Control_c, 0, 64, 92
1, 200323, Note_off_c, 0, 83, 60
1, 200323, Control_c, 0, 64, 90
1, 200338, Control_c, 0, 64, 87
1, 200353, Control_c, 0, 64, 79
1, 200367, Control_c, 0, 64, 68
1, 200382, Control_c, 0, 64, 57
1, 200385, Note_off_c, 0, 48, 57
1, 200397, Control_c, 0, 64, 46
1, 200411, Note_off_c, 0, 52, 64
1, 200412, Control_c, 0, 64, 51
1, 200427, Control_c, 0, 64, 57
1, 200439, Note_on_c, 0, 84, 71
1, 200442, Control_c, 0, 64, 63
1, 200451, Note_on_c, 0, 72, 60
1, 200457, Control_c, 0, 64, 67
1, 200459, Note_off_c, 0, 60, 64
1, 200472, Control_c, 0, 64, 73
1, 200486, Control_c, 0, 64, 82
1, 200495, Note_off_c, 0, 72, 56
1, 200501, Control_c, 0, 64, 90
1, 200516, Control_c, 0, 64, 94
1, 200546, Control_c, 0, 64, 92
1, 200560, Control_c, 0, 64, 89
1, 200575, Control_c, 0, 64, 86
1, 200590, Control_c, 0, 64, 81
1, 200601, Note_off_c, 0, 84, 52
1, 200605, Control_c, 0, 64, 75
1, 200613, Note_on_c, 0, 69, 54
1, 200613, Note_on_c, 0, 81, 63
1, 200620, Control_c, 0, 64, 68
1, 200634, Control_c, 0, 64, 63
1, 200649, Control_c, 0, 64, 56
1, 200664, Control_c, 0, 64, 50
1, 200679, Control_c, 0, 64, 48
1, 200693, Control_c, 0, 64, 47
1, 200693, Control_c, 0, 67, 9
1, 200708, Control_c, 0, 64, 46
1, 200708, Control_c, 0, 67, 24
1, 200723, Control_c, 0, 64, 41
1, 200723, Control_c, 0, 67, 39
1, 200738, Control_c, 0, 64, 34
1, 200738, Control_c, 0, 67, 51
1, 200753, Control_c, 0, 64, 17
1, 200753, Control_c, 0, 67, 62
1, 200767, Control_c, 0, 64, 0
1, 200767, Control_c, 0, 67, 74
1, 200776, Note_on_c, 0, 79, 61
1, 200778, Note_on_c, 0, 67, 47
1, 200782, Control_c, 0, 67, 84
1, 200785, Note_off_c, 0, 69, 46
1, 200797, Control_c, 0, 67, 94
1, 200812, Control_c, 0, 67, 102
1, 200813, Note_off_c, 0, 81, 60
1, 200827, Control_c, 0, 67, 105
1, 200843, Control_c, 0, 67, 105
1, 200942, Note_off_c, 0, 67, 55
1, 200942, Note_off_c, 0, 79, 61
1, 200957, Note_on_c, 0, 65, 45
1, 200959, Note_on_c, 0, 77, 62
1, 200969, Control_c, 0, 67, 105
1, 200984, Control_c, 0, 67, 104
1, 200998, Control_c, 0, 67, 104
1, 201013, Control_c, 0, 67, 103
1, 201028, Control_c, 0, 67, 102
1, 201043, Control_c, 0, 67, 102
1, 201058, Control_c, 0, 67, 101
1, 201072, Control_c, 0, 67, 100
1, 201087, Control_c, 0, 67, 99
1, 201089, Note_off_c, 0, 77, 55
1, 201098, Note_off_c, 0, 65, 54
1, 201102, Control_c, 0, 67, 98
1, 201116, Control_c, 0, 67, 97
1, 201125, Note_on_c, 0, 74, 55
1, 201130, Note_on_c, 0, 62, 44
1, 201131, Control_c, 0, 67, 95
1, 201146, Control_c, 0, 67, 94
1, 201161, Control_c, 0, 67, 93
1, 201176, Control_c, 0, 67, 92
1, 201186, Note_off_c, 0, 74, 51
1, 201190, Control_c, 0, 67, 92
1, 201205, Control_c, 0, 67, 91
1, 201220, Control_c, 0, 67, 90
1, 201235, Control_c, 0, 67, 88
1, 201250, Control_c, 0, 67, 87
1, 201256, Note_off_c, 0, 62, 63
1, 201264, Control_c, 0, 67, 86
1, 201279, Control_c, 0, 64, 31
1, 201279, Control_c, 0, 67, 86
1, 201294, Control_c, 0, 64, 54
1, 201294, Control_c, 0, 67, 85
1, 201309, Control_c, 0, 64, 63
1, 201318, Note_on_c, 0, 79, 57
1, 201324, Control_c, 0, 64, 69
1, 201330, Note_on_c, 0, 67, 49
1, 201339, Control_c, 0, 64, 75
1, 201354, Control_c, 0, 64, 82
1, 201354, Note_off_c, 0, 79, 64
1, 201369, Control_c, 0, 64, 87
1, 201369, Note_off_c, 0, 67, 65
1, 201384, Control_c, 0, 64, 90
1, 201398, Control_c, 0, 64, 92
1, 201413, Control_c, 0, 64, 92
1, 201487, Control_c, 0, 64, 91
1, 201502, Control_c, 0, 64, 88
1, 201516, Control_c, 0, 64, 81
1, 201516, Control_c, 0, 67, 84
1, 201531, Control_c, 0, 64, 72
1, 201531, Control_c, 0, 67, 84
1, 201546, Control_c, 0, 64, 64
1, 201546, Control_c, 0, 67, 82
1, 201561, Control_c, 0, 64, 58
1, 201561, Control_c, 0, 67, 82
1, 201567, Note_on_c, 0, 72, 56
1, 201569, Note_on_c, 0, 36, 43
1, 201576, Control_c, 0, 64, 60
1, 201576, Control_c, 0, 67, 81
1, 201588, Note_on_c, 0, 60, 46
1, 201590, Control_c, 0, 64, 63
1, 201605, Control_c, 0, 64, 66
1, 201620, Control_c, 0, 64, 71
1, 201627, Note_off_c, 0, 72, 64
1, 201631, Note_off_c, 0, 60, 64
1, 201643, Control_c, 0, 64, 80
1, 201658, Control_c, 0, 64, 93
1, 201673, Control_c, 0, 64, 127
1, 201772, Note_on_c, 0, 55, 54
1, 201774, Note_on_c, 0, 67, 58
1, 201799, Note_off_c, 0, 55, 61
1, 201812, Note_off_c, 0, 67, 60
1, 201821, Control_c, 0, 67, 81
1, 201834, Note_on_c, 0, 43, 42
1, 201836, Control_c, 0, 67, 80
1, 201861, Note_off_c, 0, 36, 33
1, 201910, Note_on_c, 0, 69, 65
1, 201919, Note_on_c, 0, 57, 49
1, 201939, Note_off_c, 0, 69, 65
1, 201943, Note_off_c, 0, 57, 58
1, 201969, Control_c, 0, 67, 81
1, 201984, Control_c, 0, 67, 81
1, 202001, Note_on_c, 0, 52, 48
1, 202026, Note_off_c, 0, 43, 36
1, 202028, Control_c, 0, 64, 100
1, 202033, Note_on_c, 0, 67, 71
1, 202035, Note_on_c, 0, 55, 62
1, 202043, Control_c, 0, 64, 78
1, 202058, Control_c, 0, 64, 63
1, 202069, Note_off_c, 0, 52, 54
1, 202073, Control_c, 0, 64, 35
1, 202085, Note_off_c, 0, 55, 55
1, 202087, Control_c, 0, 64, 0
1, 202117, Control_c, 0, 64, 26
1, 202132, Control_c, 0, 64, 41
1, 202132, Control_c, 0, 67, 81
1, 202132, Note_off_c, 0, 67, 59
1, 202147, Control_c, 0, 64, 53
1, 202147, Control_c, 0, 67, 79
1, 202158, Note_on_c, 0, 36, 59
1, 202162, Control_c, 0, 64, 61
1, 202162, Control_c, 0, 67, 79
1, 202177, Control_c, 0, 64, 65
1, 202177, Control_c, 0, 67, 77
1, 202192, Control_c, 0, 64, 68
1, 202192, Control_c, 0, 67, 77
1, 202206, Control_c, 0, 64, 72
1, 202206, Control_c, 0, 67, 76
1, 202221, Control_c, 0, 64, 77
1, 202236, Control_c, 0, 64, 83
1, 202251, Control_c, 0, 64, 91
1, 202258, Note_on_c, 0, 71, 74
1, 202260, Note_on_c, 0, 59, 64
1, 202266, Control_c, 0, 64, 98
1, 202281, Control_c, 0, 64, 105
1, 202292, Note_off_c, 0, 59, 65
1, 202295, Control_c, 0, 64, 108
1, 202295, Control_c, 0, 67, 76
1, 202296, Note_off_c, 0, 71, 56
1, 202319, Note_off_c, 0, 36, 52
1, 202322, Note_on_c, 0, 43, 49
1, 202354, Control_c, 0, 64, 108
1, 202369, Control_c, 0, 64, 107
1, 202391, Control_c, 0, 64, 105
1, 202398, Note_on_c, 0, 74, 81
1, 202406, Control_c, 0, 64, 103
1, 202412, Note_on_c, 0, 62, 64
1, 202421, Control_c, 0, 64, 101
1, 202436, Control_c, 0, 64, 99
1, 202442, Note_off_c, 0, 62, 67
1, 202451, Control_c, 0, 64, 98
1, 202452, Note_off_c, 0, 74, 59
1, 202466, Control_c, 0, 64, 96
1, 202466, Control_c, 0, 67, 76
1, 202481, Control_c, 0, 64, 94
1, 202490, Note_on_c, 0, 52, 51
1, 202496, Control_c, 0, 64, 92
1, 202511, Control_c, 0, 64, 89
1, 202511, Control_c, 0, 67, 77
1, 202525, Control_c, 0, 64, 82
1, 202528, Note_on_c, 0, 60, 68
1, 202530, Note_on_c, 0, 74, 60
1, 202535, Note_on_c, 0, 72, 60
1, 202540, Control_c, 0, 64, 69
1, 202555, Control_c, 0, 64, 56
1, 202557, Note_off_c, 0, 52, 59
1, 202564, Note_off_c, 0, 43, 27
1, 202566, Note_off_c, 0, 74, 64
1, 202570, Control_c, 0, 64, 0
1, 202592, Note_off_c, 0, 60, 62
1, 202615, Control_c, 0, 67, 76
1, 202619, Note_off_c, 0, 72, 55
1, 202629, Note_on_c, 0, 36, 65
1, 202630, Control_c, 0, 67, 76
1, 202644, Control_c, 0, 67, 75
1, 202659, Control_c, 0, 67, 74
1, 202674, Control_c, 0, 64, 38
1, 202674, Control_c, 0, 67, 72
1, 202689, Control_c, 0, 64, 55
1, 202689, Control_c, 0, 67, 70
1, 202704, Control_c, 0, 64, 62
1, 202704, Control_c, 0, 67, 61
1, 202718, Control_c, 0, 64, 66
1, 202718, Control_c, 0, 67, 50
1, 202733, Control_c, 0, 64, 69
1, 202733, Control_c, 0, 67, 40
1, 202748, Control_c, 0, 64, 72
1, 202748, Control_c, 0, 67, 32
1, 202755, Note_on_c, 0, 72, 71
1, 202761, Note_on_c, 0, 60, 66
1, 202762, Control_c, 0, 64, 75
1, 202762, Control_c, 0, 67, 27
1, 202773, Note_on_c, 0, 43, 54
1, 202777, Control_c, 0, 64, 79
1, 202777, Control_c, 0, 67, 22
1, 202791, Note_off_c, 0, 60, 67
1, 202792, Control_c, 0, 64, 84
1, 202792, Control_c, 0, 67, 16
1, 202800, Note_off_c, 0, 72, 61
1, 202803, Note_off_c, 0, 36, 37
1, 202807, Control_c, 0, 64, 89
1, 202807, Control_c, 0, 67, 12
1, 202822, Control_c, 0, 64, 91
1, 202822, Control_c, 0, 67, 9
1, 202836, Control_c, 0, 64, 92
1, 202836, Control_c, 0, 67, 0
1, 202876, Note_on_c, 0, 74, 78
1, 202880, Note_on_c, 0, 62, 70
1, 202904, Note_off_c, 0, 74, 60
1, 202907, Note_off_c, 0, 62, 68
1, 202925, Control_c, 0, 64, 91
1, 202928, Note_on_c, 0, 52, 50
1, 202940, Control_c, 0, 64, 91
1, 202955, Control_c, 0, 64, 90
1, 202970, Control_c, 0, 64, 88
1, 202984, Control_c, 0, 64, 87
1, 202987, Note_on_c, 0, 76, 82
1, 202991, Note_on_c, 0, 64, 72
1, 202993, Note_off_c, 0, 52, 57
1, 202996, Note_off_c, 0, 43, 28
1, 202999, Control_c, 0, 64, 84
1, 203014, Control_c, 0, 64, 80
1, 203029, Control_c, 0, 64, 70
1, 203044, Control_c, 0, 64, 58
1, 203056, Note_off_c, 0, 64, 61
1, 203059, Control_c, 0, 64, 0
1, 203094, Note_off_c, 0, 76, 62
1, 203106, Note_on_c, 0, 35, 52
1, 203155, Control_c, 0, 64, 25
1, 203169, Control_c, 0, 64, 49
1, 203184, Control_c, 0, 64, 61
1, 203199, Control_c, 0, 64, 65
1, 203214, Control_c, 0, 64, 68
1, 203229, Control_c, 0, 64, 70
1, 203232, Note_on_c, 0, 76, 70
1, 203242, Note_on_c, 0, 64, 61
1, 203245, Control_c, 0, 64, 72
1, 203248, Note_off_c, 0, 35, 55
1, 203259, Control_c, 0, 64, 75
1, 203262, Note_off_c, 0, 76, 65
1, 203274, Note_off_c, 0, 64, 65
1, 203274, Control_c, 0, 64, 77
1, 203278, Note_on_c, 0, 43, 46
1, 203289, Control_c, 0, 64, 78
1, 203304, Control_c, 0, 64, 79
1, 203319, Control_c, 0, 64, 79
1, 203319, Control_c, 0, 67, 8
1, 203333, Control_c, 0, 67, 9
1, 203348, Control_c, 0, 64, 80
1, 203358, Note_on_c, 0, 74, 58
1, 203363, Note_on_c, 0, 62, 62
1, 203363, Control_c, 0, 67, 9
1, 203385, Note_off_c, 0, 74, 49
1, 203392, Note_off_c, 0, 62, 64
1, 203415, Note_off_c, 0, 43, 52
1, 203423, Control_c, 0, 64, 79
1, 203423, Control_c, 0, 67, 10
1, 203438, Control_c, 0, 67, 11
1, 203452, Control_c, 0, 64, 79
1, 203452, Control_c, 0, 67, 11
1, 203454, Note_on_c, 0, 50, 43
1, 203467, Control_c, 0, 64, 78
1, 203473, Note_on_c, 0, 60, 61
1, 203482, Control_c, 0, 64, 78
1, 203485, Note_on_c, 0, 74, 34
1, 203493, Note_on_c, 0, 72, 47
1, 203497, Control_c, 0, 64, 77
1, 203509, Note_off_c, 0, 60, 55
1, 203512, Control_c, 0, 64, 76
1, 203513, Note_off_c, 0, 50, 57
1, 203513, Note_off_c, 0, 74, 47
1, 203526, Note_off_c, 0, 72, 49
1, 203527, Control_c, 0, 64, 75
1, 203541, Control_c, 0, 64, 70
1, 203556, Control_c, 0, 64, 58
1, 203565, Poly_aftertouch_c, 0, 62, 0
1, 203571, Control_c, 0, 64, 0
1, 203571, Control_c, 0, 67, 11
1, 203595, Note_on_c, 0, 35, 48
1, 203600, Control_c, 0, 67, 10
1, 203630, Control_c, 0, 67, 9
1, 203645, Control_c, 0, 64, 32
1, 203659, Control_c, 0, 64, 51
1, 203674, Control_c, 0, 64, 61
1, 203689, Control_c, 0, 64, 65
1, 203704, Control_c, 0, 64, 68
1, 203712, Note_on_c, 0, 72, 64
1, 203718, Control_c, 0, 64, 72
1, 203720, Note_off_c, 0, 35, 52
1, 203727, Note_on_c, 0, 60, 50
1, 203733, Control_c, 0, 64, 76
1, 203748, Note_on_c, 0, 43, 44
1, 203748, Note_off_c, 0, 72, 60
1, 203748, Control_c, 0, 64, 80
1, 203754, Note_off_c, 0, 60, 57
1, 203763, Control_c, 0, 64, 84
1, 203777, Control_c, 0, 64, 88
1, 203792, Control_c, 0, 64, 92
1, 203807, Control_c, 0, 64, 95
1, 203807, Control_c, 0, 67, 10
1, 203822, Control_c, 0, 64, 96
1, 203822, Control_c, 0, 67, 11
1, 203837, Control_c, 0, 64, 96
1, 203837, Control_c, 0, 67, 11
1, 203856, Note_on_c, 0, 59, 68
1, 203858, Note_on_c, 0, 71, 61
1, 203867, Control_c, 0, 64, 97
1, 203887, Note_off_c, 0, 71, 57
1, 203889, Control_c, 0, 67, 12
1, 203894, Note_off_c, 0, 59, 66
1, 203931, Note_on_c, 0, 50, 32
1, 203948, Control_c, 0, 64, 96
1, 203948, Control_c, 0, 67, 12
1, 203963, Control_c, 0, 64, 95
1, 203978, Control_c, 0, 64, 94
1, 203983, Note_off_c, 0, 43, 27
1, 203986, Note_on_c, 0, 69, 69
1, 203989, Note_on_c, 0, 57, 66
1, 203989, Note_off_c, 0, 50, 47
1, 203992, Control_c, 0, 64, 93
1, 204007, Control_c, 0, 64, 92
1, 204022, Note_off_c, 0, 57, 65
1, 204022, Note_off_c, 0, 69, 56
1, 204022, Control_c, 0, 64, 89
1, 204038, Control_c, 0, 64, 81
1, 204053, Control_c, 0, 64, 68
1, 204068, Control_c, 0, 64, 54
1, 204076, Note_on_c, 0, 35, 51
1, 204082, Control_c, 0, 64, 14
1, 204097, Control_c, 0, 64, 0
1, 204112, Control_c, 0, 64, 22
1, 204127, Control_c, 0, 64, 41
1, 204142, Control_c, 0, 64, 54
1, 204156, Control_c, 0, 64, 61
1, 204171, Control_c, 0, 64, 65
1, 204186, Control_c, 0, 64, 68
1, 204192, Note_on_c, 0, 69, 63
1, 204201, Control_c, 0, 64, 73
1, 204202, Note_on_c, 0, 57, 53
1, 204216, Control_c, 0, 64, 80
1, 204221, Note_off_c, 0, 69, 61
1, 204230, Control_c, 0, 64, 87
1, 204233, Note_off_c, 0, 57, 65
1, 204239, Note_on_c, 0, 43, 51
1, 204245, Note_off_c, 0, 35, 34
1, 204245, Control_c, 0, 64, 94
1, 204260, Control_c, 0, 64, 104
1, 204275, Control_c, 0, 64, 122
1, 204290, Control_c, 0, 64, 127
1, 204290, Control_c, 0, 67, 13
1, 204305, Control_c, 0, 67, 14
1, 204322, Note_on_c, 0, 66, 75
1, 204335, Note_on_c, 0, 54, 65
1, 204338, Note_off_c, 0, 43, 61
1, 204361, Note_off_c, 0, 66, 55
1, 204364, Note_off_c, 0, 54, 67
1, 204377, Note_on_c, 0, 50, 52
1, 204394, Control_c, 0, 67, 14
1, 204441, Note_on_c, 0, 67, 74
1, 204442, Note_on_c, 0, 55, 66
1, 204442, Note_off_c, 0, 50, 58
1, 204482, Note_off_c, 0, 55, 61
1, 204523, Note_off_c, 0, 67, 59
1, 204526, Control_c, 0, 64, 103
1, 204541, Control_c, 0, 64, 79
1, 204545, Note_on_c, 0, 37, 68
1, 204556, Control_c, 0, 64, 61
1, 204571, Control_c, 0, 64, 0
1, 204571, Control_c, 0, 67, 14
1, 204586, Control_c, 0, 67, 13
1, 204668, Control_c, 0, 64, 45
1, 204682, Control_c, 0, 64, 59
1, 204682, Control_c, 0, 67, 12
1, 204684, Note_on_c, 0, 55, 71
1, 204688, Note_on_c, 0, 67, 68
1, 204697, Control_c, 0, 64, 65
1, 204697, Control_c, 0, 67, 12
1, 204710, Note_off_c, 0, 55, 66
1, 204712, Control_c, 0, 64, 69
1, 204712, Control_c, 0, 67, 11
1, 204715, Note_off_c, 0, 67, 67
1, 204727, Control_c, 0, 64, 74
1, 204727, Control_c, 0, 67, 10
1, 204730, Note_on_c, 0, 43, 55
1, 204741, Control_c, 0, 64, 79
1, 204741, Control_c, 0, 67, 9
1, 204756, Control_c, 0, 64, 84
1, 204756, Control_c, 0, 67, 9
1, 204769, Note_off_c, 0, 37, 61
1, 204771, Control_c, 0, 64, 88
1, 204786, Control_c, 0, 64, 91
1, 204786, Control_c, 0, 67, 8
1, 204799, Note_on_c, 0, 70, 74
1, 204801, Control_c, 0, 67, 0
1, 204810, Note_on_c, 0, 58, 65
1, 204824, Note_off_c, 0, 70, 68
1, 204838, Note_off_c, 0, 58, 64
1, 204878, Note_on_c, 0, 52, 56
1, 204891, Control_c, 0, 64, 90
1, 204913, Note_on_c, 0, 69, 82
1, 204918, Note_off_c, 0, 52, 60
1, 204920, Control_c, 0, 64, 89
1, 204922, Note_on_c, 0, 57, 71
1, 204935, Control_c, 0, 64, 88
1, 204950, Control_c, 0, 64, 86
1, 204953, Note_off_c, 0, 43, 57
1, 204958, Note_off_c, 0, 57, 62
1, 204964, Control_c, 0, 64, 82
1, 204979, Control_c, 0, 64, 75
1, 204994, Control_c, 0, 64, 64
1, 205005, Note_off_c, 0, 69, 59
1, 205009, Control_c, 0, 64, 31
1, 205024, Control_c, 0, 64, 0
1, 205030, Note_on_c, 0, 37, 70
1, 205113, Control_c, 0, 64, 50
1, 205128, Control_c, 0, 64, 64
1, 205143, Control_c, 0, 64, 75
1, 205150, Note_on_c, 0, 57, 77
1, 205150, Note_on_c, 0, 69, 79
1, 205157, Control_c, 0, 64, 92
1, 205170, Note_off_c, 0, 37, 61
1, 205172, Control_c, 0, 64, 127
1, 205174, Note_off_c, 0, 57, 67
1, 205175, Note_on_c, 0, 45, 65
1, 205190, Note_off_c, 0, 69, 61
1, 205276, Note_on_c, 0, 75, 85
1, 205279, Note_on_c, 0, 63, 84
1, 205303, Note_off_c, 0, 63, 66
1, 205316, Note_off_c, 0, 75, 54
1, 205354, Note_on_c, 0, 52, 62
1, 205402, Note_off_c, 0, 45, 60
1, 205406, Note_on_c, 0, 76, 89
1, 205408, Note_on_c, 0, 64, 82
1, 205485, Note_off_c, 0, 64, 58
1, 205491, Control_c, 0, 64, 99
1, 205506, Control_c, 0, 64, 72
1, 205510, Note_off_c, 0, 52, 60
1, 205512, Note_off_c, 0, 76, 61
1, 205521, Control_c, 0, 64, 52
1, 205536, Control_c, 0, 64, 0
1, 205551, Note_on_c, 0, 38, 66
1, 205625, Control_c, 0, 64, 37
1, 205637, Note_off_c, 0, 38, 59
1, 205640, Control_c, 0, 64, 57
1, 205649, Note_on_c, 0, 76, 77
1, 205650, Note_on_c, 0, 64, 76
1, 205655, Control_c, 0, 64, 64
1, 205670, Control_c, 0, 64, 70
1, 205685, Note_off_c, 0, 64, 60
1, 205685, Control_c, 0, 64, 79
1, 205700, Control_c, 0, 64, 96
1, 205707, Note_off_c, 0, 76, 61
1, 205715, Control_c, 0, 64, 127
1, 205772, Note_on_c, 0, 45, 59
1, 205792, Note_on_c, 0, 77, 86
1, 205795, Note_on_c, 0, 65, 72
1, 205801, Poly_aftertouch_c, 0, 43, 127
1, 205822, Note_off_c, 0, 65, 67
1, 205843, Note_off_c, 0, 77, 62
1, 205916, Note_on_c, 0, 79, 84
1, 205924, Note_on_c, 0, 67, 74
1, 205939, Poly_aftertouch_c, 0, 43, 0
1, 205969, Note_off_c, 0, 45, 33
1, 205980, Control_c, 0, 64, 108
1, 205986, Note_off_c, 0, 67, 57
1, 205995, Control_c, 0, 64, 79
1, 206010, Control_c, 0, 64, 62
1, 206024, Poly_aftertouch_c, 0, 52, 0
1, 206025, Control_c, 0, 64, 14
1, 206028, Note_off_c, 0, 79, 61
1, 206040, Control_c, 0, 64, 0
1, 206055, Note_on_c, 0, 38, 55
1, 206085, Control_c, 0, 64, 43
1, 206100, Control_c, 0, 64, 57
1, 206114, Control_c, 0, 64, 64
1, 206136, Control_c, 0, 64, 68
1, 206151, Control_c, 0, 64, 72
1, 206163, Note_on_c, 0, 79, 69
1, 206166, Control_c, 0, 64, 77
1, 206180, Control_c, 0, 64, 81
1, 206182, Note_on_c, 0, 67, 49
1, 206189, Note_off_c, 0, 79, 68
1, 206192, Note_off_c, 0, 38, 36
1, 206195, Control_c, 0, 64, 86
1, 206205, Note_off_c, 0, 67, 58
1, 206210, Control_c, 0, 64, 89
1, 206213, Note_on_c, 0, 45, 45
1, 206225, Control_c, 0, 64, 93
1, 206240, Control_c, 0, 64, 95
1, 206254, Control_c, 0, 64, 95
1, 206302, Note_on_c, 0, 64, 58
1, 206303, Note_on_c, 0, 76, 64
1, 206324, Note_off_c, 0, 64, 62
1, 206332, Note_off_c, 0, 76, 65
1, 206353, Note_on_c, 0, 53, 44
1, 206362, Note_off_c, 0, 45, 33
1, 206373, Control_c, 0, 64, 95
1, 206387, Control_c, 0, 64, 94
1, 206402, Control_c, 0, 64, 94
1, 206414, Note_off_c, 0, 53, 57
1, 206417, Control_c, 0, 64, 93
1, 206427, Note_on_c, 0, 77, 73
1, 206433, Control_c, 0, 64, 92
1, 206448, Control_c, 0, 64, 91
1, 206451, Note_on_c, 0, 65, 48
1, 206463, Control_c, 0, 64, 90
1, 206477, Control_c, 0, 64, 88
1, 206492, Control_c, 0, 64, 83
1, 206507, Control_c, 0, 64, 73
1, 206515, Note_off_c, 0, 65, 49
1, 206522, Control_c, 0, 64, 63
1, 206529, Note_off_c, 0, 77, 58
1, 206535, Note_on_c, 0, 38, 49
1, 206537, Control_c, 0, 64, 40
1, 206551, Control_c, 0, 64, 15
1, 206566, Control_c, 0, 64, 18
1, 206581, Control_c, 0, 64, 29
1, 206596, Control_c, 0, 64, 42
1, 206610, Control_c, 0, 64, 53
1, 206625, Control_c, 0, 64, 60
1, 206640, Control_c, 0, 64, 63
1, 206655, Note_off_c, 0, 38, 51
1, 206655, Control_c, 0, 64, 65
1, 206660, Note_on_c, 0, 77, 67
1, 206663, Note_on_c, 0, 65, 63
1, 206669, Control_c, 0, 64, 67
1, 206681, Note_on_c, 0, 45, 42
1, 206684, Control_c, 0, 64, 69
1, 206691, Note_off_c, 0, 77, 63
1, 206693, Note_off_c, 0, 65, 64
1, 206699, Control_c, 0, 64, 71
1, 206714, Control_c, 0, 64, 75
1, 206729, Control_c, 0, 64, 79
1, 206744, Control_c, 0, 64, 84
1, 206758, Control_c, 0, 64, 88
1, 206773, Control_c, 0, 64, 91
1, 206775, Note_on_c, 0, 76, 76
1, 206782, Note_on_c, 0, 64, 67
1, 206788, Control_c, 0, 64, 93
1, 206803, Control_c, 0, 64, 94
1, 206809, Note_off_c, 0, 64, 68
1, 206812, Note_off_c, 0, 76, 56
1, 206818, Control_c, 0, 64, 95
1, 206833, Control_c, 0, 64, 95
1, 206848, Control_c, 0, 64, 96
1, 206871, Note_on_c, 0, 53, 42
1, 206888, Note_off_c, 0, 45, 32
1, 206898, Note_on_c, 0, 74, 73
1, 206901, Note_on_c, 0, 62, 67
1, 206914, Control_c, 0, 64, 95
1, 206919, Note_off_c, 0, 53, 52
1, 206929, Control_c, 0, 64, 94
1, 206941, Note_off_c, 0, 62, 56
1, 206943, Control_c, 0, 64, 92
1, 206958, Control_c, 0, 64, 90
1, 206968, Note_off_c, 0, 74, 60
1, 206973, Control_c, 0, 64, 84
1, 206988, Control_c, 0, 64, 72
1, 207002, Note_on_c, 0, 38, 55
1, 207003, Control_c, 0, 64, 54
1, 207018, Control_c, 0, 64, 0
1, 207077, Control_c, 0, 64, 41
1, 207092, Control_c, 0, 64, 58
1, 207107, Control_c, 0, 64, 64
1, 207122, Control_c, 0, 64, 69
1, 207125, Note_on_c, 0, 74, 68
1, 207126, Note_off_c, 0, 38, 55
1, 207129, Note_on_c, 0, 62, 57
1, 207136, Control_c, 0, 64, 74
1, 207150, Note_on_c, 0, 45, 47
1, 207151, Control_c, 0, 64, 81
1, 207157, Note_off_c, 0, 74, 64
1, 207158, Note_off_c, 0, 62, 62
1, 207166, Control_c, 0, 64, 87
1, 207181, Control_c, 0, 64, 95
1, 207196, Control_c, 0, 64, 102
1, 207210, Control_c, 0, 64, 109
1, 207226, Control_c, 0, 64, 113
1, 207241, Control_c, 0, 64, 114
1, 207245, Note_on_c, 0, 76, 79
1, 207248, Note_on_c, 0, 64, 71
1, 207256, Control_c, 0, 64, 115
1, 207259, Note_off_c, 0, 45, 61
1, 207268, Note_off_c, 0, 76, 70
1, 207271, Control_c, 0, 64, 115
1, 207276, Note_off_c, 0, 64, 69
1, 207286, Control_c, 0, 64, 117
1, 207300, Control_c, 0, 64, 119
1, 207307, Note_on_c, 0, 53, 53
1, 207315, Control_c, 0, 64, 120
1, 207364, Note_off_c, 0, 53, 53
1, 207367, Note_on_c, 0, 72, 82
1, 207372, Note_on_c, 0, 60, 73
1, 207374, Control_c, 0, 64, 119
1, 207389, Control_c, 0, 64, 116
1, 207400, Note_off_c, 0, 60, 68
1, 207404, Control_c, 0, 64, 114
1, 207419, Control_c, 0, 64, 110
1, 207433, Control_c, 0, 64, 108
1, 207448, Control_c, 0, 64, 105
1, 207463, Note_off_c, 0, 72, 59
1, 207463, Control_c, 0, 64, 101
1, 207478, Control_c, 0, 64, 92
1, 207482, Note_on_c, 0, 39, 70
1, 207493, Control_c, 0, 64, 76
1, 207507, Control_c, 0, 64, 61
1, 207522, Control_c, 0, 64, 0
1, 207596, Control_c, 0, 64, 31
1, 207608, Note_on_c, 0, 72, 71
1, 207611, Control_c, 0, 64, 53
1, 207613, Note_on_c, 0, 60, 66
1, 207633, Control_c, 0, 64, 62
1, 207647, Note_off_c, 0, 72, 65
1, 207648, Control_c, 0, 64, 67
1, 207650, Note_off_c, 0, 60, 68
1, 207663, Control_c, 0, 64, 73
1, 207676, Note_on_c, 0, 47, 57
1, 207678, Control_c, 0, 64, 80
1, 207693, Control_c, 0, 64, 89
1, 207707, Control_c, 0, 64, 98
1, 207722, Control_c, 0, 64, 111
1, 207737, Control_c, 0, 64, 127
1, 207743, Note_on_c, 0, 70, 78
1, 207747, Note_on_c, 0, 58, 76
1, 207760, Note_off_c, 0, 39, 36
1, 207796, Note_off_c, 0, 70, 63
1, 207802, Note_off_c, 0, 58, 63
1, 207833, Note_on_c, 0, 54, 60
1, 207855, Control_c, 0, 64, 120
1, 207858, Note_on_c, 0, 71, 82
1, 207863, Note_on_c, 0, 59, 77
1, 207870, Control_c, 0, 64, 115
1, 207885, Control_c, 0, 64, 111
1, 207900, Control_c, 0, 64, 108
1, 207915, Control_c, 0, 64, 105
1, 207918, Note_off_c, 0, 59, 61
1, 207925, Note_off_c, 0, 54, 55
1, 207930, Control_c, 0, 64, 102
1, 207945, Control_c, 0, 64, 93
1, 207954, Note_off_c, 0, 71, 61
1, 207959, Control_c, 0, 64, 75
1, 207966, Note_off_c, 0, 47, 33
1, 207974, Control_c, 0, 64, 58
1, 207982, Note_on_c, 0, 39, 71
1, 207989, Control_c, 0, 64, 0
1, 208049, Control_c, 0, 64, 32
1, 208064, Control_c, 0, 64, 55
1, 208079, Control_c, 0, 64, 63
1, 208080, Note_on_c, 0, 71, 78
1, 208082, Note_on_c, 0, 59, 77
1, 208094, Control_c, 0, 64, 68
1, 208109, Note_off_c, 0, 59, 68
1, 208109, Control_c, 0, 64, 76
1, 208123, Control_c, 0, 64, 85
1, 208131, Note_off_c, 0, 71, 62
1, 208138, Control_c, 0, 64, 96
1, 208153, Control_c, 0, 64, 109
1, 208165, Note_on_c, 0, 47, 60
1, 208168, Control_c, 0, 64, 127
1, 208209, Note_off_c, 0, 39, 61
1, 208226, Note_on_c, 0, 77, 86
1, 208230, Note_on_c, 0, 65, 82
1, 208259, Note_off_c, 0, 65, 63
1, 208273, Note_off_c, 0, 77, 62
1, 208308, Note_on_c, 0, 54, 61
1, 208356, Note_on_c, 0, 78, 96
1, 208362, Note_on_c, 0, 66, 83
1, 208425, Note_off_c, 0, 54, 60
1, 208442, Control_c, 0, 64, 117
1, 208447, Note_off_c, 0, 66, 47
1, 208456, Control_c, 0, 64, 89
1, 208466, Note_off_c, 0, 78, 55
1, 208469, Note_on_c, 0, 39, 77
1, 208471, Note_off_c, 0, 47, 33
1, 208471, Control_c, 0, 64, 68
1, 208486, Control_c, 0, 64, 34
1, 208501, Control_c, 0, 64, 0
1, 208545, Control_c, 0, 64, 29
1, 208560, Control_c, 0, 64, 53
1, 208574, Note_on_c, 0, 78, 89
1, 208575, Control_c, 0, 64, 63
1, 208576, Note_on_c, 0, 66, 83
1, 208589, Control_c, 0, 64, 69
1, 208604, Control_c, 0, 64, 76
1, 208619, Control_c, 0, 64, 84
1, 208628, Note_off_c, 0, 66, 64
1, 208634, Control_c, 0, 64, 93
1, 208636, Note_off_c, 0, 78, 64
1, 208648, Note_on_c, 0, 48, 69
1, 208649, Control_c, 0, 64, 100
1, 208663, Control_c, 0, 64, 107
1, 208675, Note_off_c, 0, 39, 60
1, 208678, Control_c, 0, 64, 110
1, 208693, Control_c, 0, 64, 112
1, 208707, Note_on_c, 0, 79, 88
1, 208708, Note_on_c, 0, 67, 80
1, 208708, Control_c, 0, 64, 112
1, 208738, Note_off_c, 0, 67, 60
1, 208758, Note_off_c, 0, 79, 66
1, 208789, Note_on_c, 0, 54, 66
1, 208812, Control_c, 0, 64, 112
1, 208827, Control_c, 0, 64, 111
1, 208838, Note_on_c, 0, 81, 91
1, 208841, Note_on_c, 0, 69, 86
1, 208842, Control_c, 0, 64, 109
1, 208848, Note_off_c, 0, 48, 53
1, 208857, Control_c, 0, 64, 107
1, 208871, Note_off_c, 0, 54, 64
1, 208872, Control_c, 0, 64, 104
1, 208887, Control_c, 0, 64, 102
1, 208902, Control_c, 0, 64, 99
1, 208916, Control_c, 0, 64, 97
1, 208931, Control_c, 0, 64, 94
1, 208946, Control_c, 0, 64, 89
1, 208958, Note_off_c, 0, 69, 58
1, 208961, Control_c, 0, 64, 84
1, 208969, Note_off_c, 0, 81, 57
1, 208973, Note_on_c, 0, 40, 78
1, 208976, Control_c, 0, 64, 78
1, 208991, Control_c, 0, 64, 70
1, 209005, Control_c, 0, 64, 58
1, 209020, Control_c, 0, 64, 0
1, 209089, Note_on_c, 0, 69, 85
1, 209091, Note_on_c, 0, 81, 85
1, 209094, Control_c, 0, 64, 35
1, 209109, Control_c, 0, 64, 55
1, 209131, Control_c, 0, 64, 63
1, 209146, Note_off_c, 0, 69, 64
1, 209146, Control_c, 0, 64, 68
1, 209151, Note_off_c, 0, 81, 67
1, 209161, Control_c, 0, 64, 71
1, 209176, Control_c, 0, 64, 75
1, 209191, Control_c, 0, 64, 79
1, 209194, Note_off_c, 0, 40, 55
1, 209197, Note_on_c, 0, 48, 77
1, 209206, Control_c, 0, 64, 84
1, 209221, Control_c, 0, 64, 89
1, 209235, Control_c, 0, 64, 95
1, 209248, Note_on_c, 0, 78, 94
1, 209250, Control_c, 0, 64, 101
1, 209255, Note_on_c, 0, 66, 81
1, 209265, Control_c, 0, 64, 104
1, 209280, Control_c, 0, 64, 106
1, 209291, Note_off_c, 0, 66, 58
1, 209295, Control_c, 0, 64, 107
1, 209304, Note_off_c, 0, 78, 62
1, 209371, Note_on_c, 0, 55, 68
1, 209371, Note_on_c, 0, 79, 94
1, 209376, Note_on_c, 0, 67, 88
1, 209384, Control_c, 0, 64, 107
1, 209402, Note_off_c, 0, 48, 50
1, 209428, Control_c, 0, 64, 106
1, 209437, Note_off_c, 0, 67, 63
1, 209443, Control_c, 0, 64, 104
1, 209458, Note_off_c, 0, 79, 64
1, 209458, Control_c, 0, 64, 102
1, 209463, Note_off_c, 0, 55, 59
1, 209472, Control_c, 0, 64, 99
1, 209487, Control_c, 0, 64, 96
1, 209498, Note_on_c, 0, 41, 86
1, 209502, Control_c, 0, 64, 85
1, 209517, Control_c, 0, 64, 66
1, 209532, Control_c, 0, 64, 31
1, 209546, Control_c, 0, 64, 0
1, 209599, Note_on_c, 0, 68, 90
1, 209599, Note_on_c, 0, 80, 91
1, 209620, Control_c, 0, 64, 45
1, 209636, Control_c, 0, 64, 61
1, 209651, Control_c, 0, 64, 68
1, 209657, Note_off_c, 0, 68, 62
1, 209666, Control_c, 0, 64, 76
1, 209681, Control_c, 0, 64, 89
1, 209696, Control_c, 0, 64, 107
1, 209707, Note_on_c, 0, 48, 73
1, 209707, Note_off_c, 0, 80, 61
1, 209710, Control_c, 0, 64, 120
1, 209725, Control_c, 0, 64, 122
1, 209769, Note_off_c, 0, 41, 60
1, 209784, Note_on_c, 0, 71, 91
1, 209784, Note_on_c, 0, 83, 92
1, 209784, Control_c, 0, 64, 127
1, 209848, Note_off_c, 0, 83, 62
1, 209850, Note_off_c, 0, 71, 62
1, 209893, Note_on_c, 0, 57, 64
1, 209905, Note_off_c, 0, 48, 56
1, 209954, Note_on_c, 0, 81, 89
1, 209958, Note_on_c, 0, 69, 87
1, 209969, Control_c, 0, 64, 119
1, 209983, Control_c, 0, 64, 113
1, 209998, Control_c, 0, 64, 109
1, 210013, Control_c, 0, 64, 105
1, 210027, Control_c, 0, 64, 100
1, 210031, Note_off_c, 0, 57, 30
1, 210042, Control_c, 0, 64, 91
1, 210057, Control_c, 0, 64, 76
1, 210072, Control_c, 0, 64, 56
1, 210087, Control_c, 0, 64, 0
1, 210109, Note_on_c, 0, 41, 78
1, 210171, Note_off_c, 0, 81, 60
1, 210205, Control_c, 0, 64, 41
1, 210206, Note_off_c, 0, 69, 61
1, 210219, Control_c, 0, 64, 57
1, 210234, Control_c, 0, 64, 64
1, 210249, Control_c, 0, 64, 69
1, 210264, Control_c, 0, 64, 77
1, 210279, Control_c, 0, 64, 89
1, 210286, Note_on_c, 0, 69, 78
1, 210286, Note_on_c, 0, 81, 87
1, 210294, Control_c, 0, 64, 109
1, 210309, Control_c, 0, 64, 127
1, 210317, Note_off_c, 0, 69, 63
1, 210344, Note_off_c, 0, 81, 65
1, 210427, Note_on_c, 0, 49, 50
1, 210449, Note_off_c, 0, 41, 33
1, 210545, Note_on_c, 0, 93, 90
1, 210556, Note_on_c, 0, 81, 75
1, 210645, Note_off_c, 0, 81, 60
1, 210687, Note_on_c, 0, 57, 39
1, 210687, Note_off_c, 0, 93, 62
1, 210811, Note_on_c, 0, 93, 71
1, 210821, Note_on_c, 0, 81, 61
1, 210824, Note_off_c, 0, 57, 38
1, 210824, Note_off_c, 0, 49, 39
1, 210924, Control_c, 0, 64, 120
1, 210939, Control_c, 0, 64, 88
1, 210954, Control_c, 0, 64, 68
1, 210968, Control_c, 0, 64, 46
1, 210983, Control_c, 0, 64, 0
1, 210993, Note_on_c, 0, 41, 49
1, 210999, Note_off_c, 0, 81, 57
1, 211035, Note_off_c, 0, 93, 58
1, 211042, Control_c, 0, 64, 28
1, 211057, Control_c, 0, 64, 49
1, 211072, Control_c, 0, 64, 59
1, 211087, Control_c, 0, 64, 64
1, 211102, Control_c, 0, 64, 67
1, 211116, Control_c, 0, 64, 71
1, 211131, Control_c, 0, 64, 75
1, 211146, Control_c, 0, 64, 80
1, 211161, Control_c, 0, 64, 86
1, 211164, Note_on_c, 0, 93, 63
1, 211172, Note_on_c, 0, 81, 52
1, 211176, Control_c, 0, 64, 94
1, 211182, Note_off_c, 0, 41, 30
1, 211191, Control_c, 0, 64, 104
1, 211202, Note_off_c, 0, 81, 57
1, 211206, Control_c, 0, 64, 109
1, 211209, Note_off_c, 0, 93, 58
1, 211221, Control_c, 0, 64, 111
1, 211236, Control_c, 0, 64, 112
1, 211251, Control_c, 0, 64, 112
1, 211257, Note_on_c, 0, 50, 42
1, 211265, Control_c, 0, 64, 113
1, 211280, Control_c, 0, 64, 115
1, 211295, Control_c, 0, 64, 115
1, 211310, Control_c, 0, 64, 117
1, 211311, Note_on_c, 0, 91, 70
1, 211328, Note_on_c, 0, 79, 48
1, 211343, Note_off_c, 0, 91, 61
1, 211349, Note_off_c, 0, 79, 60
1, 211355, Control_c, 0, 67, 10
1, 211377, Control_c, 0, 67, 14
1, 211392, Control_c, 0, 67, 19
1, 211406, Control_c, 0, 64, 116
1, 211406, Control_c, 0, 67, 24
1, 211421, Control_c, 0, 64, 115
1, 211421, Control_c, 0, 67, 30
1, 211436, Control_c, 0, 64, 112
1, 211436, Control_c, 0, 67, 37
1, 211447, Note_off_c, 0, 50, 42
1, 211451, Control_c, 0, 64, 109
1, 211451, Control_c, 0, 67, 43
1, 211457, Note_on_c, 0, 89, 72
1, 211458, Note_on_c, 0, 57, 33
1, 211464, Note_on_c, 0, 77, 65
1, 211466, Control_c, 0, 64, 103
1, 211466, Control_c, 0, 67, 50
1, 211480, Control_c, 0, 64, 98
1, 211480, Control_c, 0, 67, 57
1, 211495, Control_c, 0, 64, 86
1, 211495, Control_c, 0, 67, 66
1, 211501, Note_off_c, 0, 77, 62
1, 211510, Control_c, 0, 64, 71
1, 211510, Control_c, 0, 67, 75
1, 211519, Note_off_c, 0, 57, 41
1, 211525, Control_c, 0, 64, 57
1, 211525, Control_c, 0, 67, 85
1, 211535, Note_off_c, 0, 89, 55
1, 211540, Control_c, 0, 64, 0
1, 211540, Control_c, 0, 67, 89
1, 211555, Control_c, 0, 67, 90
1, 211590, Note_on_c, 0, 43, 46
1, 211599, Control_c, 0, 64, 37
1, 211599, Control_c, 0, 67, 89
1, 211614, Control_c, 0, 64, 53
1, 211614, Control_c, 0, 67, 87
1, 211629, Control_c, 0, 64, 61
1, 211629, Control_c, 0, 67, 86
1, 211644, Control_c, 0, 64, 65
1, 211644, Control_c, 0, 67, 84
1, 211659, Control_c, 0, 64, 69
1, 211659, Control_c, 0, 67, 83
1, 211673, Control_c, 0, 64, 74
1, 211673, Control_c, 0, 67, 82
1, 211688, Control_c, 0, 64, 79
1, 211688, Control_c, 0, 67, 81
1, 211694, Note_on_c, 0, 89, 64
1, 211703, Control_c, 0, 64, 84
1, 211706, Note_on_c, 0, 77, 52
1, 211718, Control_c, 0, 64, 91
1, 211727, Note_off_c, 0, 89, 65
1, 211727, Note_off_c, 0, 77, 58
1, 211733, Control_c, 0, 64, 99
1, 211747, Control_c, 0, 64, 105
1, 211747, Control_c, 0, 67, 81
1, 211762, Control_c, 0, 64, 107
1, 211762, Control_c, 0, 67, 80
1, 211776, Note_off_c, 0, 43, 35
1, 211777, Control_c, 0, 67, 79
1, 211780, Note_on_c, 0, 50, 47
1, 211791, Control_c, 0, 64, 107
1, 211806, Control_c, 0, 64, 108
1, 211821, Control_c, 0, 64, 109
1, 211836, Control_c, 0, 64, 109
1, 211838, Note_on_c, 0, 88, 71
1, 211842, Note_on_c, 0, 76, 60
1, 211852, Note_off_c, 0, 50, 58
1, 211866, Note_off_c, 0, 76, 63
1, 211876, Note_off_c, 0, 88, 58
1, 211925, Control_c, 0, 64, 109
1, 211937, Note_on_c, 0, 59, 42
1, 211954, Control_c, 0, 64, 108
1, 211969, Control_c, 0, 64, 108
1, 211975, Note_on_c, 0, 89, 76
1, 211982, Note_on_c, 0, 77, 64
1, 211984, Control_c, 0, 64, 107
1, 211999, Control_c, 0, 64, 104
1, 212003, Note_off_c, 0, 59, 61
1, 212014, Control_c, 0, 64, 101
1, 212018, Note_off_c, 0, 77, 64
1, 212025, Note_off_c, 0, 89, 57
1, 212029, Control_c, 0, 64, 96
1, 212029, Control_c, 0, 67, 79
1, 212044, Control_c, 0, 64, 87
1, 212044, Control_c, 0, 67, 78
1, 212059, Control_c, 0, 64, 73
1, 212059, Control_c, 0, 67, 77
1, 212074, Control_c, 0, 64, 59
1, 212074, Control_c, 0, 67, 77
1, 212088, Control_c, 0, 64, 19
1, 212088, Control_c, 0, 67, 76
1, 212103, Note_on_c, 0, 43, 49
1, 212103, Control_c, 0, 64, 0
1, 212103, Control_c, 0, 67, 76
1, 212141, Control_c, 0, 67, 75
1, 212156, Control_c, 0, 64, 31
1, 212156, Control_c, 0, 67, 74
1, 212170, Control_c, 0, 64, 49
1, 212184, Control_c, 0, 64, 59
1, 212199, Control_c, 0, 64, 64
1, 212214, Control_c, 0, 64, 67
1, 212228, Control_c, 0, 64, 69
1, 212236, Note_on_c, 0, 86, 63
1, 212239, Note_on_c, 0, 74, 60
1, 212243, Control_c, 0, 64, 72
1, 212243, Control_c, 0, 67, 74
1, 212258, Control_c, 0, 64, 76
1, 212269, Note_off_c, 0, 74, 63
1, 212273, Control_c, 0, 64, 80
1, 212274, Note_off_c, 0, 43, 31
1, 212288, Control_c, 0, 64, 85
1, 212291, Note_off_c, 0, 86, 60
1, 212303, Control_c, 0, 64, 89
1, 212318, Control_c, 0, 64, 91
1, 212345, Note_on_c, 0, 53, 40
1, 212347, Control_c, 0, 64, 91
1, 212362, Control_c, 0, 64, 92
1, 212362, Control_c, 0, 67, 74
1, 212377, Control_c, 0, 64, 92
1, 212392, Control_c, 0, 64, 93
1, 212392, Control_c, 0, 67, 75
1, 212407, Control_c, 0, 64, 94
1, 212407, Control_c, 0, 67, 76
1, 212421, Control_c, 0, 64, 95
1, 212421, Control_c, 0, 67, 76
1, 212428, Note_on_c, 0, 91, 73
1, 212436, Control_c, 0, 67, 77
1, 212443, Note_on_c, 0, 79, 56
1, 212466, Control_c, 0, 64, 95
1, 212466, Control_c, 0, 67, 77
1, 212474, Note_off_c, 0, 79, 64
1, 212491, Note_off_c, 0, 91, 60
1, 212516, Note_on_c, 0, 59, 48
1, 212521, Note_off_c, 0, 53, 40
1, 212540, Control_c, 0, 64, 96
1, 212540, Control_c, 0, 67, 78
1, 212588, Note_off_c, 0, 59, 55
1, 212607, Note_on_c, 0, 91, 69
1, 212610, Note_on_c, 0, 79, 54
1, 212643, Control_c, 0, 64, 95
1, 212658, Control_c, 0, 64, 94
1, 212659, Note_off_c, 0, 79, 59
1, 212673, Control_c, 0, 64, 93
1, 212687, Note_off_c, 0, 91, 54
1, 212687, Control_c, 0, 64, 92
1, 212702, Control_c, 0, 64, 90
1, 212717, Control_c, 0, 64, 87
1, 212732, Control_c, 0, 64, 80
1, 212747, Control_c, 0, 64, 69
1, 212762, Control_c, 0, 64, 55
1, 212777, Control_c, 0, 64, 14
1, 212778, Note_on_c, 0, 60, 45
1, 212785, Note_on_c, 0, 52, 36
1, 212786, Note_on_c, 0, 48, 36
1, 212792, Control_c, 0, 64, 0
1, 212851, Control_c, 0, 64, 25
1, 212874, Control_c, 0, 64, 46
1, 212889, Control_c, 0, 64, 58
1, 212904, Control_c, 0, 64, 63
1, 212918, Control_c, 0, 64, 66
1, 212934, Control_c, 0, 64, 69
1, 212934, Control_c, 0, 67, 77
1, 212949, Control_c, 0, 64, 72
1, 212964, Control_c, 0, 64, 75
1, 212964, Control_c, 0, 67, 77
1, 212968, Note_on_c, 0, 91, 59
1, 212979, Note_on_c, 0, 79, 55
1, 212979, Control_c, 0, 64, 77
1, 212993, Control_c, 0, 64, 79
1, 212998, Note_off_c, 0, 91, 57
1, 213008, Control_c, 0, 64, 80
1, 213018, Note_off_c, 0, 79, 65
1, 213023, Control_c, 0, 64, 81
1, 213038, Control_c, 0, 64, 82
1, 213112, Control_c, 0, 64, 81
1, 213126, Control_c, 0, 64, 80
1, 213141, Control_c, 0, 64, 78
1, 213151, Note_on_c, 0, 84, 73
1, 213155, Note_on_c, 0, 72, 63
1, 213156, Control_c, 0, 64, 73
1, 213156, Control_c, 0, 67, 76
1, 213171, Control_c, 0, 64, 68
1, 213171, Control_c, 0, 67, 76
1, 213186, Control_c, 0, 64, 64
1, 213188, Note_off_c, 0, 72, 65
1, 213197, Note_off_c, 0, 84, 55
1, 213200, Control_c, 0, 64, 63
1, 213200, Control_c, 0, 67, 75
1, 213215, Control_c, 0, 64, 63
1, 213230, Control_c, 0, 64, 62
1, 213245, Control_c, 0, 64, 59
1, 213260, Control_c, 0, 64, 50
1, 213275, Control_c, 0, 64, 37
1, 213275, Control_c, 0, 67, 74
1, 213289, Control_c, 0, 64, 36
1, 213289, Control_c, 0, 67, 72
1, 213295, Note_on_c, 0, 71, 64
1, 213304, Control_c, 0, 64, 41
1, 213304, Control_c, 0, 67, 72
1, 213310, Note_on_c, 0, 83, 53
1, 213316, Note_on_c, 0, 84, 54
1, 213319, Control_c, 0, 64, 50
1, 213319, Control_c, 0, 67, 71
1, 213324, Note_off_c, 0, 71, 65
1, 213334, Control_c, 0, 64, 61
1, 213334, Control_c, 0, 67, 70
1, 213349, Control_c, 0, 64, 66
1, 213349, Note_off_c, 0, 84, 60
1, 213353, Note_off_c, 0, 83, 62
1, 213364, Control_c, 0, 64, 69
1, 213364, Control_c, 0, 67, 69
1, 213378, Control_c, 0, 64, 70
1, 213393, Control_c, 0, 64, 67
1, 213408, Control_c, 0, 64, 63
1, 213423, Control_c, 0, 64, 51
1, 213438, Control_c, 0, 64, 37
1, 213452, Control_c, 0, 64, 30
1, 213467, Control_c, 0, 64, 33
1, 213482, Control_c, 0, 64, 44
1, 213482, Control_c, 0, 67, 71
1, 213495, Note_off_c, 0, 48, 53
1, 213497, Control_c, 0, 64, 57
1, 213497, Control_c, 0, 67, 72
1, 213506, Note_on_c, 0, 86, 66
1, 213508, Note_on_c, 0, 74, 64
1, 213512, Control_c, 0, 64, 66
1, 213512, Control_c, 0, 67, 73
1, 213526, Control_c, 0, 64, 73
1, 213526, Control_c, 0, 67, 74
1, 213541, Control_c, 0, 64, 84
1, 213541, Control_c, 0, 67, 74
1, 213542, Note_off_c, 0, 52, 56
1, 213553, Note_off_c, 0, 86, 50
1, 213556, Control_c, 0, 64, 99
1, 213556, Control_c, 0, 67, 76
1, 213558, Note_off_c, 0, 74, 54
1, 213570, Control_c, 0, 64, 127
1, 213570, Control_c, 0, 67, 77
1, 213581, Note_off_c, 0, 60, 60
1, 213585, Control_c, 0, 67, 79
1, 213600, Control_c, 0, 67, 81
1, 213623, Control_c, 0, 67, 82
1, 213638, Control_c, 0, 67, 84
1, 213653, Control_c, 0, 67, 85
1, 213668, Control_c, 0, 67, 86
1, 213683, Control_c, 0, 64, 114
1, 213683, Control_c, 0, 67, 87
1, 213698, Control_c, 0, 64, 103
1, 213698, Control_c, 0, 67, 87
1, 213702, Note_on_c, 0, 72, 63
1, 213713, Control_c, 0, 64, 91
1, 213713, Control_c, 0, 67, 89
1, 213715, Note_on_c, 0, 84, 54
1, 213728, Control_c, 0, 64, 80
1, 213728, Control_c, 0, 67, 90
1, 213734, Note_off_c, 0, 72, 65
1, 213742, Control_c, 0, 64, 70
1, 213742, Control_c, 0, 67, 92
1, 213752, Note_off_c, 0, 84, 51
1, 213757, Control_c, 0, 64, 62
1, 213757, Control_c, 0, 67, 93
1, 213772, Control_c, 0, 64, 50
1, 213772, Control_c, 0, 67, 94
1, 213787, Control_c, 0, 64, 37
1, 213787, Control_c, 0, 67, 94
1, 213802, Control_c, 0, 64, 32
1, 213816, Control_c, 0, 64, 31
1, 213816, Control_c, 0, 67, 95
1, 213831, Control_c, 0, 64, 28
1, 213846, Control_c, 0, 64, 19
1, 213846, Control_c, 0, 67, 100
1, 213861, Control_c, 0, 64, 0
1, 213861, Control_c, 0, 67, 110
1, 213873, Note_on_c, 0, 79, 55
1, 213875, Control_c, 0, 67, 122
1, 213883, Note_on_c, 0, 67, 38
1, 213890, Control_c, 0, 67, 127
1, 213907, Note_off_c, 0, 79, 65
1, 213910, Note_off_c, 0, 67, 57
1, 214049, Note_on_c, 0, 76, 53
1, 214060, Note_on_c, 0, 64, 46
1, 214089, Note_off_c, 0, 76, 61
1, 214097, Note_off_c, 0, 64, 64
1, 214335, Note_on_c, 0, 72, 39
1, 214345, Note_on_c, 0, 60, 36
1, 214372, Control_c, 0, 64, 30
1, 214386, Control_c, 0, 64, 45
1, 214401, Control_c, 0, 64, 55
1, 214417, Control_c, 0, 64, 60
1, 214432, Control_c, 0, 64, 63
1, 214446, Control_c, 0, 64, 65
1, 214461, Control_c, 0, 64, 66
1, 214476, Control_c, 0, 64, 67
1, 214491, Control_c, 0, 64, 68
1, 214501, Note_off_c, 0, 72, 35
1, 214506, Control_c, 0, 64, 70
1, 214521, Note_off_c, 0, 60, 30
1, 214521, Control_c, 0, 64, 72
1, 214535, Control_c, 0, 64, 75
1, 214550, Control_c, 0, 64, 79
1, 214565, Control_c, 0, 64, 82
1, 214580, Control_c, 0, 64, 85
1, 214595, Control_c, 0, 64, 88
1, 214610, Control_c, 0, 64, 90
1, 214624, Control_c, 0, 64, 91
1, 214639, Control_c, 0, 64, 93
1, 214654, Control_c, 0, 64, 94
1, 214669, Control_c, 0, 64, 94
1, 214684, Control_c, 0, 64, 95
1, 214698, Control_c, 0, 64, 95
1, 214728, Control_c, 0, 64, 96
1, 214861, Control_c, 0, 64, 95
1, 214876, Control_c, 0, 64, 95
1, 214890, Control_c, 0, 64, 94
1, 214905, Control_c, 0, 64, 92
1, 214920, Control_c, 0, 64, 90
1, 214935, Control_c, 0, 64, 88
1, 214950, Control_c, 0, 64, 85
1, 214965, Control_c, 0, 64, 81
1, 214980, Control_c, 0, 64, 76
1, 214995, Control_c, 0, 64, 72
1, 215009, Control_c, 0, 64, 66
1, 215024, Control_c, 0, 64, 63
1, 215039, Control_c, 0, 64, 59
1, 215054, Control_c, 0, 64, 56
1, 215069, Control_c, 0, 64, 50
1, 215083, Control_c, 0, 64, 42
1, 215098, Control_c, 0, 64, 28
1, 215120, Control_c, 0, 64, 0
1, 215254, Control_c, 0, 64, 17
1, 215269, Control_c, 0, 64, 36
1, 215284, Control_c, 0, 64, 52
1, 215299, Control_c, 0, 64, 59
1, 215313, Control_c, 0, 64, 62
1, 215328, Control_c, 0, 64, 64
1, 215343, Control_c, 0, 64, 66
1, 215346, Note_on_c, 0, 48, 37
1, 215358, Control_c, 0, 64, 68
1, 215373, Control_c, 0, 64, 71
1, 215388, Control_c, 0, 64, 76
1, 215403, Control_c, 0, 64, 83
1, 215418, Control_c, 0, 64, 92
1, 215427, Note_off_c, 0, 48, 62
1, 215433, Control_c, 0, 64, 106
1, 215447, Control_c, 0, 64, 127
1, 215681, Note_on_c, 0, 63, 28
1, 215855, Note_off_c, 0, 63, 41
1, 215889, Note_on_c, 0, 60, 45
1, 216026, Note_on_c, 0, 63, 35
1, 216151, Note_off_c, 0, 60, 26
1, 216173, Note_off_c, 0, 63, 34
1, 216178, Note_on_c, 0, 55, 36
1, 216222, Note_on_c, 0, 84, 71
1, 216360, Note_on_c, 0, 63, 28
1, 216493, Note_on_c, 0, 60, 40
1, 216509, Note_off_c, 0, 63, 33
1, 216512, Note_off_c, 0, 55, 37
1, 216639, Note_on_c, 0, 63, 41
1, 216684, Note_off_c, 0, 63, 56
1, 216702, Note_off_c, 0, 60, 35
1, 216732, Note_on_c, 0, 55, 45
1, 216822, Note_off_c, 0, 55, 56
1, 216845, Note_on_c, 0, 63, 41
1, 216957, Note_off_c, 0, 63, 48
1, 216996, Note_on_c, 0, 87, 70
1, 217004, Note_on_c, 0, 60, 46
1, 217030, Note_off_c, 0, 84, 60
1, 217123, Note_off_c, 0, 60, 56
1, 217126, Note_off_c, 0, 87, 61
1, 217141, Note_on_c, 0, 63, 46
1, 217178, Note_off_c, 0, 63, 64
1, 217367, Control_c, 0, 64, 86
1, 217376, Note_on_c, 0, 86, 69
1, 217382, Control_c, 0, 64, 67
1, 217387, Note_on_c, 0, 43, 50
1, 217397, Control_c, 0, 64, 49
1, 217412, Control_c, 0, 64, 0
1, 217426, Control_c, 0, 64, 25
1, 217441, Control_c, 0, 64, 50
1, 217456, Control_c, 0, 64, 65
1, 217470, Note_off_c, 0, 43, 63
1, 217471, Control_c, 0, 64, 78
1, 217485, Control_c, 0, 64, 127
1, 217610, Note_on_c, 0, 62, 44
1, 217718, Note_off_c, 0, 62, 53
1, 217725, Note_on_c, 0, 84, 70
1, 217737, Note_on_c, 0, 59, 48
1, 217747, Note_off_c, 0, 86, 62
1, 217766, Note_off_c, 0, 84, 61
1, 217799, Note_off_c, 0, 59, 54
1, 217869, Note_on_c, 0, 62, 38
1, 217930, Note_off_c, 0, 62, 55
1, 217964, Note_on_c, 0, 86, 68
1, 217973, Note_on_c, 0, 83, 69
1, 217975, Note_on_c, 0, 55, 43
1, 218067, Note_off_c, 0, 83, 58
1, 218069, Note_on_c, 0, 62, 46
1, 218090, Note_off_c, 0, 55, 52
1, 218203, Note_off_c, 0, 62, 57
1, 218207, Note_on_c, 0, 59, 49
1, 218211, Note_on_c, 0, 81, 71
1, 218238, Note_off_c, 0, 86, 59
1, 218249, Control_c, 0, 67, 123
1, 218264, Control_c, 0, 67, 119
1, 218279, Control_c, 0, 67, 116
1, 218289, Note_off_c, 0, 59, 56
1, 218294, Control_c, 0, 67, 114
1, 218306, Note_off_c, 0, 81, 56
1, 218309, Control_c, 0, 67, 111
1, 218323, Control_c, 0, 67, 110
1, 218330, Note_on_c, 0, 62, 51
1, 218338, Control_c, 0, 67, 108
1, 218353, Control_c, 0, 67, 107
1, 218368, Control_c, 0, 67, 104
1, 218383, Control_c, 0, 67, 102
1, 218397, Control_c, 0, 67, 99
1, 218413, Control_c, 0, 67, 97
1, 218428, Control_c, 0, 67, 96
1, 218436, Note_off_c, 0, 62, 56
1, 218443, Control_c, 0, 67, 95
1, 218455, Note_on_c, 0, 55, 57
1, 218457, Control_c, 0, 67, 94
1, 218470, Note_on_c, 0, 83, 78
1, 218472, Control_c, 0, 67, 93
1, 218487, Control_c, 0, 67, 92
1, 218502, Control_c, 0, 67, 90
1, 218517, Control_c, 0, 67, 90
1, 218531, Control_c, 0, 67, 89
1, 218534, Note_off_c, 0, 83, 63
1, 218542, Note_off_c, 0, 55, 60
1, 218546, Control_c, 0, 67, 88
1, 218561, Control_c, 0, 67, 86
1, 218569, Note_on_c, 0, 62, 55
1, 218576, Control_c, 0, 67, 83
1, 218591, Control_c, 0, 67, 81
1, 218605, Control_c, 0, 67, 77
1, 218620, Control_c, 0, 67, 74
1, 218635, Control_c, 0, 67, 71
1, 218650, Control_c, 0, 67, 67
1, 218664, Control_c, 0, 67, 62
1, 218679, Control_c, 0, 67, 59
1, 218694, Note_off_c, 0, 62, 56
1, 218694, Control_c, 0, 67, 54
1, 218709, Note_on_c, 0, 59, 50
1, 218709, Control_c, 0, 67, 49
1, 218721, Note_on_c, 0, 89, 85
1, 218724, Control_c, 0, 67, 41
1, 218727, Note_on_c, 0, 79, 67
1, 218739, Control_c, 0, 67, 29
1, 218753, Control_c, 0, 67, 12
1, 218768, Control_c, 0, 67, 0
1, 218794, Note_off_c, 0, 59, 62
1, 218828, Note_off_c, 0, 79, 57
1, 218836, Note_off_c, 0, 89, 59
1, 218848, Note_on_c, 0, 62, 52
1, 218901, Note_off_c, 0, 62, 57
1, 219042, Note_on_c, 0, 88, 82
1, 219058, Control_c, 0, 64, 100
1, 219060, Note_on_c, 0, 48, 63
1, 219072, Control_c, 0, 64, 73
1, 219087, Control_c, 0, 64, 56
1, 219102, Control_c, 0, 64, 0
1, 219161, Control_c, 0, 64, 40
1, 219176, Control_c, 0, 64, 56
1, 219191, Control_c, 0, 64, 63
1, 219207, Control_c, 0, 64, 67
1, 219221, Control_c, 0, 64, 71
1, 219225, Note_on_c, 0, 61, 58
1, 219236, Control_c, 0, 64, 75
1, 219251, Control_c, 0, 64, 80
1, 219252, Note_off_c, 0, 48, 37
1, 219266, Control_c, 0, 64, 86
1, 219280, Control_c, 0, 64, 95
1, 219295, Control_c, 0, 64, 106
1, 219310, Control_c, 0, 64, 125
1, 219325, Control_c, 0, 64, 127
1, 219370, Note_on_c, 0, 89, 89
1, 219373, Note_on_c, 0, 58, 59
1, 219374, Note_off_c, 0, 61, 58
1, 219406, Note_off_c, 0, 88, 63
1, 219500, Note_on_c, 0, 61, 57
1, 219677, Note_off_c, 0, 61, 32
1, 219687, Note_on_c, 0, 55, 47
1, 219687, Control_c, 0, 64, 101
1, 219698, Note_on_c, 0, 91, 77
1, 219702, Note_on_c, 0, 82, 64
1, 219702, Control_c, 0, 64, 82
1, 219717, Control_c, 0, 64, 67
1, 219732, Control_c, 0, 64, 52
1, 219738, Note_off_c, 0, 58, 38
1, 219745, Note_off_c, 0, 89, 55
1, 219747, Control_c, 0, 64, 0
1, 219821, Control_c, 0, 64, 31
1, 219836, Control_c, 0, 64, 47
1, 219850, Note_on_c, 0, 61, 47
1, 219850, Control_c, 0, 64, 59
1, 219865, Control_c, 0, 64, 63
1, 219866, Note_off_c, 0, 55, 52
1, 219880, Control_c, 0, 64, 66
1, 219895, Control_c, 0, 64, 69
1, 219910, Control_c, 0, 64, 72
1, 219925, Control_c, 0, 64, 75
1, 219940, Control_c, 0, 64, 79
1, 219955, Control_c, 0, 64, 82
1, 219969, Control_c, 0, 64, 86
1, 219984, Control_c, 0, 64, 90
1, 219987, Note_off_c, 0, 61, 58
1, 219988, Note_on_c, 0, 89, 68
1, 219996, Note_on_c, 0, 55, 53
1, 219999, Control_c, 0, 64, 94
1, 220014, Control_c, 0, 64, 98
1, 220018, Note_off_c, 0, 91, 62
1, 220029, Control_c, 0, 64, 102
1, 220044, Control_c, 0, 64, 105
1, 220059, Control_c, 0, 64, 107
1, 220059, Control_c, 0, 67, 19
1, 220074, Control_c, 0, 64, 108
1, 220074, Control_c, 0, 67, 33
1, 220089, Control_c, 0, 64, 108
1, 220089, Control_c, 0, 67, 45
1, 220095, Note_off_c, 0, 55, 55
1, 220103, Control_c, 0, 67, 56
1, 220117, Note_on_c, 0, 61, 50
1, 220118, Control_c, 0, 67, 66
1, 220133, Control_c, 0, 64, 107
1, 220133, Control_c, 0, 67, 77
1, 220148, Control_c, 0, 64, 105
1, 220148, Control_c, 0, 67, 87
1, 220163, Control_c, 0, 64, 102
1, 220163, Control_c, 0, 67, 97
1, 220170, Note_off_c, 0, 61, 54
1, 220177, Control_c, 0, 64, 97
1, 220177, Control_c, 0, 67, 105
1, 220192, Control_c, 0, 64, 87
1, 220192, Control_c, 0, 67, 110
1, 220207, Control_c, 0, 64, 75
1, 220207, Control_c, 0, 67, 112
1, 220222, Control_c, 0, 64, 62
1, 220226, Note_on_c, 0, 88, 65
1, 220234, Note_on_c, 0, 55, 51
1, 220237, Control_c, 0, 64, 48
1, 220249, Note_off_c, 0, 89, 56
1, 220251, Control_c, 0, 64, 43
1, 220251, Control_c, 0, 67, 111
1, 220266, Control_c, 0, 64, 48
1, 220266, Control_c, 0, 67, 110
1, 220281, Control_c, 0, 64, 55
1, 220281, Control_c, 0, 67, 110
1, 220296, Control_c, 0, 64, 61
1, 220296, Control_c, 0, 67, 109
1, 220310, Control_c, 0, 64, 65
1, 220310, Control_c, 0, 67, 109
1, 220325, Control_c, 0, 64, 68
1, 220325, Control_c, 0, 67, 107
1, 220329, Note_off_c, 0, 55, 56
1, 220340, Control_c, 0, 64, 71
1, 220340, Control_c, 0, 67, 106
1, 220341, Note_on_c, 0, 60, 43
1, 220346, Note_off_c, 0, 88, 56
1, 220363, Control_c, 0, 64, 75
1, 220363, Control_c, 0, 67, 105
1, 220378, Control_c, 0, 64, 79
1, 220381, Note_off_c, 0, 82, 55
1, 220392, Control_c, 0, 64, 84
1, 220407, Control_c, 0, 64, 90
1, 220413, Note_off_c, 0, 60, 55
1, 220421, Control_c, 0, 64, 95
1, 220435, Control_c, 0, 64, 100
1, 220450, Control_c, 0, 64, 104
1, 220462, Note_on_c, 0, 58, 50
1, 220465, Control_c, 0, 64, 108
1, 220474, Note_on_c, 0, 85, 56
1, 220478, Note_on_c, 0, 88, 64
1, 220480, Control_c, 0, 64, 110
1, 220495, Control_c, 0, 64, 116
1, 220509, Control_c, 0, 64, 127
1, 220548, Note_off_c, 0, 58, 61
1, 220549, Note_off_c, 0, 85, 50
1, 220554, Note_off_c, 0, 88, 58
1, 220587, Note_on_c, 0, 60, 50
1, 220620, Note_off_c, 0, 60, 65
1, 220673, Control_c, 0, 67, 105
1, 220732, Control_c, 0, 64, 109
1, 220747, Control_c, 0, 64, 94
1, 220762, Control_c, 0, 64, 77
1, 220777, Control_c, 0, 64, 62
1, 220780, Note_on_c, 0, 89, 63
1, 220781, Note_on_c, 0, 41, 52
1, 220786, Note_on_c, 0, 84, 51
1, 220791, Control_c, 0, 64, 39
1, 220807, Control_c, 0, 64, 22
1, 220822, Control_c, 0, 64, 29
1, 220837, Control_c, 0, 64, 44
1, 220850, Note_off_c, 0, 41, 65
1, 220852, Control_c, 0, 64, 57
1, 220866, Control_c, 0, 64, 64
1, 220881, Control_c, 0, 64, 69
1, 220881, Control_c, 0, 67, 104
1, 220887, Note_off_c, 0, 84, 55
1, 220896, Control_c, 0, 64, 74
1, 220896, Control_c, 0, 67, 104
1, 220911, Control_c, 0, 64, 79
1, 220911, Control_c, 0, 67, 103
1, 220925, Control_c, 0, 64, 85
1, 220925, Control_c, 0, 67, 102
1, 220940, Control_c, 0, 64, 90
1, 220940, Control_c, 0, 67, 102
1, 220955, Control_c, 0, 64, 97
1, 220955, Control_c, 0, 67, 101
1, 220970, Control_c, 0, 64, 106
1, 220985, Control_c, 0, 64, 114
1, 220985, Control_c, 0, 67, 100
1, 220993, Note_on_c, 0, 60, 41
1, 220999, Control_c, 0, 64, 125
1, 220999, Control_c, 0, 67, 99
1, 221014, Control_c, 0, 64, 127
1, 221014, Control_c, 0, 67, 99
1, 221029, Control_c, 0, 67, 98
1, 221046, Note_off_c, 0, 89, 33
1, 221058, Control_c, 0, 67, 97
1, 221073, Control_c, 0, 67, 97
1, 221088, Control_c, 0, 67, 96
1, 221092, Note_off_c, 0, 60, 55
1, 221110, Note_on_c, 0, 82, 65
1, 221126, Control_c, 0, 67, 95
1, 221139, Note_on_c, 0, 57, 35
1, 221143, Note_off_c, 0, 82, 65
1, 221155, Control_c, 0, 67, 95
1, 221204, Note_off_c, 0, 57, 52
1, 221237, Note_on_c, 0, 60, 51
1, 221302, Note_off_c, 0, 60, 47
1, 221332, Control_c, 0, 64, 105
1, 221347, Control_c, 0, 64, 86
1, 221360, Note_on_c, 0, 81, 61
1, 221362, Control_c, 0, 64, 72
1, 221370, Note_on_c, 0, 53, 47
1, 221377, Control_c, 0, 64, 62
1, 221378, Note_on_c, 0, 69, 45
1, 221392, Control_c, 0, 64, 51
1, 221406, Control_c, 0, 64, 49
1, 221421, Control_c, 0, 64, 52
1, 221436, Control_c, 0, 64, 57
1, 221451, Control_c, 0, 64, 61
1, 221466, Control_c, 0, 64, 64
1, 221466, Note_on_c, 0, 60, 43
1, 221481, Control_c, 0, 64, 66
1, 221481, Control_c, 0, 67, 94
1, 221496, Control_c, 0, 64, 67
1, 221511, Control_c, 0, 64, 69
1, 221511, Control_c, 0, 67, 94
1, 221525, Control_c, 0, 64, 72
1, 221525, Control_c, 0, 67, 93
1, 221540, Control_c, 0, 64, 76
1, 221540, Control_c, 0, 67, 92
1, 221555, Control_c, 0, 64, 80
1, 221555, Control_c, 0, 67, 92
1, 221570, Control_c, 0, 64, 84
1, 221570, Control_c, 0, 67, 90
1, 221585, Control_c, 0, 64, 88
1, 221585, Control_c, 0, 67, 89
1, 221587, Note_on_c, 0, 57, 45
1, 221590, Note_off_c, 0, 60, 36
1, 221600, Note_on_c, 0, 79, 67
1, 221600, Control_c, 0, 64, 91
1, 221600, Control_c, 0, 67, 88
1, 221610, Note_off_c, 0, 81, 52
1, 221615, Control_c, 0, 64, 95
1, 221615, Control_c, 0, 67, 86
1, 221630, Control_c, 0, 64, 97
1, 221630, Control_c, 0, 67, 84
1, 221643, Note_off_c, 0, 53, 19
1, 221645, Control_c, 0, 64, 99
1, 221645, Control_c, 0, 67, 83
1, 221660, Control_c, 0, 64, 102
1, 221660, Control_c, 0, 67, 81
1, 221674, Control_c, 0, 64, 106
1, 221674, Control_c, 0, 67, 75
1, 221689, Control_c, 0, 64, 110
1, 221689, Control_c, 0, 67, 68
1, 221704, Control_c, 0, 64, 116
1, 221704, Control_c, 0, 67, 59
1, 221713, Note_on_c, 0, 60, 55
1, 221719, Control_c, 0, 64, 125
1, 221719, Control_c, 0, 67, 50
1, 221734, Control_c, 0, 64, 127
1, 221734, Control_c, 0, 67, 39
1, 221749, Control_c, 0, 67, 27
1, 221763, Control_c, 0, 67, 0
1, 221820, Note_off_c, 0, 60, 48
1, 221833, Note_on_c, 0, 53, 54
1, 221839, Note_on_c, 0, 81, 72
1, 221860, Note_off_c, 0, 79, 58
1, 221871, Note_off_c, 0, 57, 15
1, 221919, Note_off_c, 0, 53, 58
1, 221949, Note_on_c, 0, 60, 50
1, 221981, Note_off_c, 0, 81, 59
1, 222063, Note_on_c, 0, 57, 55
1, 222075, Note_off_c, 0, 60, 56
1, 222083, Note_on_c, 0, 77, 75
1, 222090, Note_on_c, 0, 72, 64
1, 222095, Note_off_c, 0, 69, 32
1, 222137, Note_off_c, 0, 57, 63
1, 222154, Note_off_c, 0, 72, 62
1, 222194, Note_on_c, 0, 60, 54
1, 222199, Note_off_c, 0, 77, 57
1, 222342, Note_off_c, 0, 60, 34
1, 222348, Control_c, 0, 64, 92
1, 222351, Note_on_c, 0, 50, 62
1, 222354, Note_on_c, 0, 75, 79
1, 222363, Control_c, 0, 64, 71
1, 222378, Control_c, 0, 64, 55
1, 222393, Control_c, 0, 64, 0
1, 222438, Control_c, 0, 64, 22
1, 222453, Control_c, 0, 64, 52
1, 222468, Control_c, 0, 64, 63
1, 222483, Control_c, 0, 64, 69
1, 222488, Note_on_c, 0, 62, 59
1, 222497, Control_c, 0, 64, 78
1, 222512, Control_c, 0, 64, 94
1, 222521, Note_off_c, 0, 50, 56
1, 222527, Control_c, 0, 64, 127
1, 222628, Note_off_c, 0, 62, 61
1, 222631, Note_on_c, 0, 74, 79
1, 222632, Note_on_c, 0, 60, 63
1, 222666, Note_off_c, 0, 75, 61
1, 222730, Note_off_c, 0, 74, 56
1, 222747, Note_on_c, 0, 62, 62
1, 222899, Note_off_c, 0, 62, 56
1, 222913, Note_on_c, 0, 57, 55
1, 222920, Note_on_c, 0, 78, 83
1, 222933, Control_c, 0, 64, 125
1, 222936, Note_on_c, 0, 72, 64
1, 222948, Control_c, 0, 64, 97
1, 222963, Control_c, 0, 64, 82
1, 222977, Control_c, 0, 64, 69
1, 222986, Note_off_c, 0, 60, 35
1, 222992, Control_c, 0, 64, 56
1, 223007, Control_c, 0, 64, 0
1, 223047, Note_on_c, 0, 62, 51
1, 223126, Control_c, 0, 64, 25
1, 223141, Control_c, 0, 64, 47
1, 223141, Note_off_c, 0, 72, 56
1, 223156, Control_c, 0, 64, 58
1, 223159, Note_off_c, 0, 62, 59
1, 223170, Control_c, 0, 64, 63
1, 223176, Note_on_c, 0, 71, 65
1, 223177, Note_on_c, 0, 60, 50
1, 223185, Control_c, 0, 64, 67
1, 223201, Control_c, 0, 64, 71
1, 223215, Note_off_c, 0, 57, 53
1, 223216, Control_c, 0, 64, 76
1, 223231, Control_c, 0, 64, 81
1, 223246, Control_c, 0, 64, 86
1, 223261, Control_c, 0, 64, 91
1, 223275, Control_c, 0, 64, 95
1, 223283, Note_on_c, 0, 62, 60
1, 223290, Control_c, 0, 64, 96
1, 223305, Control_c, 0, 64, 95
1, 223319, Control_c, 0, 64, 94
1, 223334, Control_c, 0, 64, 93
1, 223356, Control_c, 0, 64, 91
1, 223371, Control_c, 0, 64, 86
1, 223386, Control_c, 0, 64, 74
1, 223398, Note_off_c, 0, 62, 58
1, 223401, Control_c, 0, 64, 63
1, 223413, Note_on_c, 0, 57, 66
1, 223416, Control_c, 0, 64, 37
1, 223417, Note_on_c, 0, 72, 80
1, 223430, Control_c, 0, 64, 0
1, 223443, Note_off_c, 0, 71, 48
1, 223460, Control_c, 0, 64, 24
1, 223466, Note_off_c, 0, 60, 42
1, 223471, Note_off_c, 0, 78, 59
1, 223475, Control_c, 0, 64, 50
1, 223490, Control_c, 0, 64, 61
1, 223505, Control_c, 0, 64, 67
1, 223520, Control_c, 0, 64, 72
1, 223522, Note_on_c, 0, 62, 66
1, 223534, Control_c, 0, 64, 80
1, 223549, Control_c, 0, 64, 91
1, 223564, Control_c, 0, 64, 107
1, 223579, Control_c, 0, 64, 127
1, 223646, Note_off_c, 0, 57, 63
1, 223650, Note_on_c, 0, 69, 86
1, 223651, Note_on_c, 0, 81, 86
1, 223655, Note_on_c, 0, 60, 74
1, 223662, Note_off_c, 0, 62, 60
1, 223669, Note_off_c, 0, 72, 64
1, 223695, Note_off_c, 0, 69, 63
1, 223729, Note_off_c, 0, 81, 63
1, 223732, Note_off_c, 0, 60, 63
1, 223770, Note_on_c, 0, 62, 73
1, 223887, Note_off_c, 0, 62, 60
1, 223934, Control_c, 0, 64, 114
1, 223949, Control_c, 0, 64, 91
1, 223951, Note_on_c, 0, 86, 92
1, 223952, Note_on_c, 0, 77, 78
1, 223961, Note_on_c, 0, 59, 71
1, 223962, Note_on_c, 0, 74, 78
1, 223964, Control_c, 0, 64, 74
1, 223979, Control_c, 0, 64, 59
1, 223994, Control_c, 0, 64, 0
1, 224118, Note_on_c, 0, 62, 63
1, 224120, Control_c, 0, 64, 31
1, 224135, Control_c, 0, 64, 51
1, 224149, Control_c, 0, 64, 58
1, 224165, Control_c, 0, 64, 61
1, 224180, Control_c, 0, 64, 63
1, 224195, Control_c, 0, 64, 63
1, 224224, Control_c, 0, 64, 63
1, 224250, Note_off_c, 0, 77, 35
1, 224259, Note_on_c, 0, 84, 84
1, 224267, Note_on_c, 0, 65, 69
1, 224283, Control_c, 0, 64, 63
1, 224303, Note_off_c, 0, 62, 53
1, 224304, Note_off_c, 0, 86, 63
1, 224313, Control_c, 0, 64, 65
1, 224328, Control_c, 0, 64, 66
1, 224343, Control_c, 0, 64, 70
1, 224346, Note_off_c, 0, 74, 58
1, 224358, Control_c, 0, 64, 77
1, 224372, Control_c, 0, 64, 88
1, 224387, Control_c, 0, 64, 120
1, 224395, Note_off_c, 0, 65, 63
1, 224396, Note_off_c, 0, 84, 59
1, 224402, Control_c, 0, 64, 127
1, 224408, Note_on_c, 0, 68, 72
1, 224432, Note_off_c, 0, 59, 62
1, 224476, Note_off_c, 0, 68, 59
1, 224668, Note_on_c, 0, 83, 65
1, 224677, Note_on_c, 0, 53, 80
1, 224683, Control_c, 0, 64, 110
1, 224698, Control_c, 0, 64, 91
1, 224713, Control_c, 0, 64, 77
1, 224728, Control_c, 0, 64, 68
1, 224743, Control_c, 0, 64, 60
1, 224757, Control_c, 0, 64, 52
1, 224772, Control_c, 0, 64, 48
1, 224787, Control_c, 0, 64, 47
1, 224818, Control_c, 0, 64, 46
1, 224833, Control_c, 0, 64, 44
1, 224855, Control_c, 0, 64, 39
1, 224870, Control_c, 0, 64, 35
1, 224885, Control_c, 0, 64, 30
1, 224899, Control_c, 0, 64, 27
1, 224903, Note_on_c, 0, 86, 61
1, 224914, Control_c, 0, 64, 25
1, 224929, Control_c, 0, 64, 22
1, 224944, Control_c, 0, 64, 18
1, 224944, Control_c, 0, 67, 15
1, 224959, Control_c, 0, 64, 12
1, 224959, Control_c, 0, 67, 22
1, 224963, Note_off_c, 0, 83, 59
1, 224973, Control_c, 0, 64, 0
1, 224973, Control_c, 0, 67, 27
1, 224988, Control_c, 0, 67, 31
1, 225003, Control_c, 0, 67, 33
1, 225042, Note_on_c, 0, 80, 55
1, 225047, Control_c, 0, 67, 32
1, 225062, Control_c, 0, 67, 31
1, 225077, Control_c, 0, 67, 29
1, 225078, Note_off_c, 0, 86, 53
1, 225092, Control_c, 0, 67, 27
1, 225106, Control_c, 0, 67, 24
1, 225121, Control_c, 0, 67, 22
1, 225136, Control_c, 0, 67, 22
1, 225151, Control_c, 0, 67, 21
1, 225166, Control_c, 0, 67, 21
1, 225175, Note_on_c, 0, 83, 62
1, 225180, Control_c, 0, 67, 19
1, 225195, Control_c, 0, 67, 18
1, 225210, Control_c, 0, 67, 17
1, 225225, Control_c, 0, 67, 16
1, 225234, Note_off_c, 0, 80, 52
1, 225255, Control_c, 0, 67, 16
1, 225270, Control_c, 0, 67, 15
1, 225285, Control_c, 0, 67, 14
1, 225299, Control_c, 0, 67, 12
1, 225310, Note_on_c, 0, 77, 60
1, 225314, Control_c, 0, 67, 12
1, 225329, Control_c, 0, 67, 11
1, 225344, Control_c, 0, 67, 11
1, 225359, Control_c, 0, 64, 24
1, 225359, Control_c, 0, 67, 10
1, 225373, Control_c, 0, 64, 49
1, 225373, Control_c, 0, 67, 9
1, 225388, Control_c, 0, 64, 61
1, 225388, Control_c, 0, 67, 9
1, 225403, Note_off_c, 0, 83, 55
1, 225403, Control_c, 0, 64, 66
1, 225403, Control_c, 0, 67, 0
1, 225418, Control_c, 0, 64, 70
1, 225427, Note_off_c, 0, 77, 60
1, 225433, Control_c, 0, 64, 77
1, 225434, Note_on_c, 0, 80, 60
1, 225447, Control_c, 0, 64, 83
1, 225462, Control_c, 0, 64, 90
1, 225476, Note_off_c, 0, 80, 61
1, 225477, Control_c, 0, 64, 96
1, 225492, Control_c, 0, 64, 100
1, 225536, Control_c, 0, 64, 99
1, 225551, Control_c, 0, 64, 96
1, 225566, Control_c, 0, 64, 91
1, 225580, Control_c, 0, 64, 82
1, 225590, Note_off_c, 0, 53, 56
1, 225601, Note_on_c, 0, 56, 67
1, 225604, Control_c, 0, 64, 71
1, 225604, Note_on_c, 0, 74, 48
1, 225618, Control_c, 0, 64, 60
1, 225633, Control_c, 0, 64, 37
1, 225648, Control_c, 0, 64, 29
1, 225663, Control_c, 0, 64, 35
1, 225678, Control_c, 0, 64, 45
1, 225693, Control_c, 0, 64, 56
1, 225708, Control_c, 0, 64, 62
1, 225723, Control_c, 0, 64, 67
1, 225730, Note_on_c, 0, 77, 61
1, 225737, Control_c, 0, 64, 71
1, 225738, Note_off_c, 0, 74, 56
1, 225752, Control_c, 0, 64, 77
1, 225767, Control_c, 0, 64, 83
1, 225782, Control_c, 0, 64, 89
1, 225794, Note_off_c, 0, 56, 64
1, 225796, Control_c, 0, 64, 92
1, 225811, Control_c, 0, 64, 93
1, 225826, Control_c, 0, 64, 92
1, 225841, Control_c, 0, 64, 90
1, 225856, Control_c, 0, 64, 87
1, 225858, Note_off_c, 0, 77, 48
1, 225870, Control_c, 0, 64, 82
1, 225885, Control_c, 0, 64, 73
1, 225886, Note_on_c, 0, 71, 62
1, 225892, Note_on_c, 0, 56, 74
1, 225900, Control_c, 0, 64, 63
1, 225915, Control_c, 0, 64, 37
1, 225929, Control_c, 0, 64, 0
1, 226003, Control_c, 0, 64, 31
1, 226018, Control_c, 0, 64, 51
1, 226024, Note_on_c, 0, 74, 55
1, 226033, Control_c, 0, 64, 61
1, 226048, Control_c, 0, 64, 66
1, 226060, Note_off_c, 0, 71, 59
1, 226063, Control_c, 0, 64, 69
1, 226078, Control_c, 0, 64, 73
1, 226092, Control_c, 0, 64, 76
1, 226107, Control_c, 0, 64, 78
1, 226133, Note_off_c, 0, 74, 57
1, 226152, Control_c, 0, 64, 78
1, 226167, Control_c, 0, 64, 77
1, 226182, Note_on_c, 0, 71, 65
1, 226182, Control_c, 0, 64, 75
1, 226184, Note_on_c, 0, 55, 74
1, 226187, Note_off_c, 0, 56, 64
1, 226196, Control_c, 0, 64, 72
1, 226211, Control_c, 0, 64, 65
1, 226226, Control_c, 0, 64, 50
1, 226241, Control_c, 0, 64, 0
1, 226300, Control_c, 0, 64, 11
1, 226315, Control_c, 0, 64, 41
1, 226329, Control_c, 0, 64, 56
1, 226346, Note_on_c, 0, 74, 59
1, 226352, Control_c, 0, 64, 63
1, 226354, Note_off_c, 0, 71, 59
1, 226367, Control_c, 0, 64, 68
1, 226382, Control_c, 0, 64, 73
1, 226384, Note_off_c, 0, 55, 59
1, 226396, Note_off_c, 0, 74, 52
1, 226396, Control_c, 0, 64, 80
1, 226412, Control_c, 0, 64, 87
1, 226426, Control_c, 0, 64, 95
1, 226441, Control_c, 0, 64, 105
1, 226456, Control_c, 0, 64, 122
1, 226471, Control_c, 0, 64, 127
1, 226531, Control_c, 0, 64, 120
1, 226543, Note_on_c, 0, 74, 50
1, 226546, Control_c, 0, 64, 110
1, 226560, Control_c, 0, 64, 102
1, 226566, Note_on_c, 0, 71, 49
1, 226572, Note_on_c, 0, 67, 46
1, 226575, Control_c, 0, 64, 94
1, 226577, Note_on_c, 0, 41, 64
1, 226583, Note_on_c, 0, 53, 64
1, 226590, Control_c, 0, 64, 85
1, 226605, Control_c, 0, 64, 77
1, 226619, Control_c, 0, 64, 69
1, 226634, Control_c, 0, 64, 63
1, 226649, Control_c, 0, 64, 54
1, 226664, Control_c, 0, 64, 48
1, 226679, Control_c, 0, 64, 44
1, 226694, Control_c, 0, 64, 42
1, 226708, Control_c, 0, 64, 39
1, 226723, Control_c, 0, 64, 32
1, 226732, Note_off_c, 0, 74, 55
1, 226738, Control_c, 0, 64, 12
1, 226746, Note_on_c, 0, 79, 53
1, 226752, Control_c, 0, 64, 0
1, 226753, Note_off_c, 0, 71, 55
1, 226766, Note_off_c, 0, 67, 41
1, 226856, Control_c, 0, 67, 9
1, 226870, Control_c, 0, 67, 11
1, 226879, Note_off_c, 0, 79, 60
1, 226885, Control_c, 0, 67, 12
1, 226900, Control_c, 0, 67, 14
1, 226901, Note_on_c, 0, 67, 38
1, 226908, Note_on_c, 0, 71, 50
1, 226908, Note_on_c, 0, 74, 36
1, 226915, Control_c, 0, 67, 15
1, 226927, Note_on_c, 0, 51, 56
1, 226930, Control_c, 0, 67, 17
1, 226945, Control_c, 0, 67, 21
1, 226951, Note_off_c, 0, 53, 60
1, 226960, Control_c, 0, 67, 27
1, 226975, Control_c, 0, 67, 33
1, 226990, Control_c, 0, 67, 40
1, 227005, Control_c, 0, 67, 49
1, 227019, Control_c, 0, 67, 61
1, 227034, Note_off_c, 0, 74, 58
1, 227034, Control_c, 0, 67, 69
1, 227045, Note_on_c, 0, 79, 51
1, 227049, Control_c, 0, 67, 76
1, 227061, Note_off_c, 0, 71, 41
1, 227064, Control_c, 0, 67, 82
1, 227066, Note_off_c, 0, 67, 38
1, 227078, Control_c, 0, 67, 87
1, 227100, Control_c, 0, 67, 90
1, 227115, Control_c, 0, 67, 93
1, 227130, Control_c, 0, 67, 94
1, 227145, Control_c, 0, 67, 94
1, 227183, Note_off_c, 0, 79, 59
1, 227189, Control_c, 0, 67, 94
1, 227204, Control_c, 0, 67, 92
1, 227206, Note_on_c, 0, 71, 44
1, 227211, Note_on_c, 0, 74, 39
1, 227212, Note_on_c, 0, 67, 35
1, 227219, Note_on_c, 0, 53, 53
1, 227219, Control_c, 0, 67, 90
1, 227220, Note_off_c, 0, 51, 60
1, 227234, Control_c, 0, 67, 89
1, 227249, Control_c, 0, 67, 88
1, 227264, Control_c, 0, 64, 34
1, 227264, Control_c, 0, 67, 87
1, 227279, Control_c, 0, 64, 53
1, 227279, Control_c, 0, 67, 86
1, 227294, Control_c, 0, 64, 62
1, 227294, Control_c, 0, 67, 84
1, 227309, Control_c, 0, 64, 66
1, 227323, Control_c, 0, 64, 69
1, 227323, Control_c, 0, 67, 84
1, 227329, Note_off_c, 0, 71, 57
1, 227332, Note_off_c, 0, 74, 58
1, 227338, Control_c, 0, 64, 72
1, 227341, Note_off_c, 0, 41, 37
1, 227342, Note_off_c, 0, 67, 56
1, 227344, Note_on_c, 0, 79, 48
1, 227353, Control_c, 0, 64, 74
1, 227368, Control_c, 0, 64, 77
1, 227368, Control_c, 0, 67, 83
1, 227382, Control_c, 0, 64, 78
1, 227397, Control_c, 0, 64, 79
1, 227412, Control_c, 0, 64, 80
1, 227427, Control_c, 0, 64, 79
1, 227456, Control_c, 0, 64, 78
1, 227471, Control_c, 0, 64, 76
1, 227486, Control_c, 0, 64, 70
1, 227488, Note_off_c, 0, 53, 54
1, 227500, Note_on_c, 0, 67, 37
1, 227501, Control_c, 0, 64, 62
1, 227503, Note_on_c, 0, 71, 40
1, 227505, Note_on_c, 0, 74, 35
1, 227508, Note_off_c, 0, 79, 50
1, 227511, Note_on_c, 0, 50, 48
1, 227516, Control_c, 0, 64, 46
1, 227531, Control_c, 0, 64, 20
1, 227531, Control_c, 0, 67, 82
1, 227532, Note_on_c, 0, 43, 43
1, 227546, Control_c, 0, 64, 16
1, 227561, Control_c, 0, 64, 25
1, 227561, Control_c, 0, 67, 82
1, 227575, Control_c, 0, 64, 41
1, 227590, Control_c, 0, 64, 54
1, 227590, Control_c, 0, 67, 81
1, 227605, Control_c, 0, 64, 62
1, 227605, Control_c, 0, 67, 80
1, 227620, Control_c, 0, 64, 66
1, 227620, Control_c, 0, 67, 79
1, 227627, Note_off_c, 0, 50, 63
1, 227635, Note_off_c, 0, 74, 59
1, 227635, Control_c, 0, 64, 69
1, 227635, Control_c, 0, 67, 79
1, 227639, Note_off_c, 0, 71, 55
1, 227649, Control_c, 0, 64, 74
1, 227664, Control_c, 0, 64, 79
1, 227666, Note_on_c, 0, 79, 52
1, 227670, Note_off_c, 0, 43, 62
1, 227679, Control_c, 0, 64, 84
1, 227693, Note_off_c, 0, 67, 36
1, 227693, Control_c, 0, 64, 89
1, 227708, Control_c, 0, 64, 92
1, 227708, Control_c, 0, 67, 79
1, 227723, Control_c, 0, 64, 95
1, 227723, Control_c, 0, 67, 80
1, 227738, Control_c, 0, 64, 96
1, 227738, Control_c, 0, 67, 81
1, 227753, Control_c, 0, 64, 96
1, 227753, Control_c, 0, 67, 81
1, 227768, Control_c, 0, 67, 82
1, 227783, Control_c, 0, 67, 83
1, 227798, Control_c, 0, 67, 84
1, 227812, Control_c, 0, 64, 96
1, 227812, Control_c, 0, 67, 84
1, 227827, Control_c, 0, 64, 95
1, 227827, Control_c, 0, 67, 85
1, 227849, Control_c, 0, 64, 93
1, 227849, Control_c, 0, 67, 86
1, 227863, Note_off_c, 0, 79, 41
1, 227864, Control_c, 0, 64, 90
1, 227864, Control_c, 0, 67, 87
1, 227879, Control_c, 0, 64, 87
1, 227879, Control_c, 0, 67, 87
1, 227888, Note_on_c, 0, 67, 35
1, 227888, Note_on_c, 0, 72, 47
1, 227893, Control_c, 0, 64, 82
1, 227893, Control_c, 0, 67, 88
1, 227903, Note_on_c, 0, 48, 45
1, 227905, Note_on_c, 0, 75, 39
1, 227909, Control_c, 0, 64, 76
1, 227909, Control_c, 0, 67, 89
1, 227911, Note_on_c, 0, 43, 47
1, 227924, Control_c, 0, 64, 69
1, 227939, Control_c, 0, 64, 64
1, 227939, Control_c, 0, 67, 89
1, 227954, Control_c, 0, 64, 57
1, 227954, Control_c, 0, 67, 90
1, 227968, Control_c, 0, 64, 54
1, 227968, Control_c, 0, 67, 91
1, 227983, Control_c, 0, 64, 53
1, 227999, Control_c, 0, 67, 92
1, 228014, Control_c, 0, 64, 53
1, 228029, Control_c, 0, 64, 52
1, 228029, Control_c, 0, 67, 92
1, 228044, Control_c, 0, 64, 50
1, 228059, Control_c, 0, 64, 48
1, 228059, Control_c, 0, 67, 93
1, 228073, Control_c, 0, 64, 46
1, 228073, Control_c, 0, 67, 94
1, 228077, Note_on_c, 0, 79, 51
1, 228085, Note_off_c, 0, 67, 50
1, 228088, Control_c, 0, 64, 44
1, 228092, Note_off_c, 0, 72, 39
1, 228103, Control_c, 0, 64, 43
1, 228105, Note_off_c, 0, 75, 38
1, 228117, Control_c, 0, 64, 43
1, 228117, Control_c, 0, 67, 94
1, 228132, Control_c, 0, 64, 42
1, 228147, Control_c, 0, 64, 41
1, 228162, Control_c, 0, 64, 39
1, 228162, Control_c, 0, 67, 95
1, 228177, Control_c, 0, 64, 37
1, 228192, Control_c, 0, 64, 36
1, 228206, Control_c, 0, 64, 34
1, 228206, Control_c, 0, 67, 95
1, 228214, Note_off_c, 0, 79, 56
1, 228221, Control_c, 0, 64, 31
1, 228233, Note_on_c, 0, 75, 41
1, 228236, Control_c, 0, 64, 29
1, 228239, Note_on_c, 0, 41, 41
1, 228240, Note_on_c, 0, 72, 37
1, 228249, Note_on_c, 0, 67, 41
1, 228251, Control_c, 0, 64, 27
1, 228251, Control_c, 0, 67, 96
1, 228266, Control_c, 0, 64, 24
1, 228280, Control_c, 0, 64, 23
1, 228280, Control_c, 0, 67, 97
1, 228295, Control_c, 0, 64, 23
1, 228310, Control_c, 0, 64, 22
1, 228325, Control_c, 0, 67, 97
1, 228340, Control_c, 0, 64, 22
1, 228381, Note_off_c, 0, 75, 54
1, 228385, Control_c, 0, 64, 21
1, 228385, Control_c, 0, 67, 98
1, 228398, Note_on_c, 0, 79, 43
1, 228399, Note_off_c, 0, 67, 56
1, 228415, Note_off_c, 0, 72, 38
1, 228444, Control_c, 0, 67, 99
1, 228549, Note_off_c, 0, 79, 56
1, 228560, Note_on_c, 0, 75, 39
1, 228569, Note_on_c, 0, 72, 30
1, 228570, Note_on_c, 0, 67, 43
1, 228582, Note_on_c, 0, 39, 37
1, 228722, Note_off_c, 0, 67, 47
1, 228727, Note_off_c, 0, 75, 54
1, 228734, Note_off_c, 0, 43, 7
1, 228740, Note_off_c, 0, 72, 46
1, 228742, Note_on_c, 0, 79, 45
1, 228793, Control_c, 0, 67, 99
1, 228882, Control_c, 0, 64, 20
1, 228899, Note_off_c, 0, 79, 56
1, 228914, Note_on_c, 0, 75, 40
1, 228916, Note_on_c, 0, 67, 32
1, 228927, Note_on_c, 0, 72, 33
1, 228933, Note_on_c, 0, 38, 36
1, 229002, Note_off_c, 0, 41, 34
1, 229006, Note_off_c, 0, 39, 44
1, 229047, Note_off_c, 0, 67, 55
1, 229052, Note_off_c, 0, 75, 53
1, 229070, Note_on_c, 0, 79, 42
1, 229076, Note_off_c, 0, 72, 35
1, 229252, Control_c, 0, 67, 99
1, 229270, Note_off_c, 0, 79, 51
1, 229284, Note_on_c, 0, 39, 39
1, 229288, Note_on_c, 0, 75, 39
1, 229291, Note_on_c, 0, 67, 34
1, 229292, Note_on_c, 0, 72, 33
1, 229407, Note_off_c, 0, 38, 40
1, 229467, Note_off_c, 0, 67, 51
1, 229470, Note_off_c, 0, 75, 52
1, 229479, Note_on_c, 0, 79, 45
1, 229482, Note_off_c, 0, 72, 43
1, 229555, Control_c, 0, 67, 98
1, 229616, Control_c, 0, 67, 97
1, 229645, Control_c, 0, 67, 97
1, 229675, Control_c, 0, 64, 23
1, 229684, Note_off_c, 0, 79, 56
1, 229690, Control_c, 0, 64, 28
1, 229690, Control_c, 0, 67, 96
1, 229699, Note_on_c, 0, 75, 34
1, 229705, Control_c, 0, 64, 34
1, 229709, Note_on_c, 0, 67, 34
1, 229710, Note_on_c, 0, 72, 35
1, 229711, Note_on_c, 0, 36, 35
1, 229719, Control_c, 0, 64, 43
1, 229734, Control_c, 0, 64, 49
1, 229749, Control_c, 0, 64, 54
1, 229749, Control_c, 0, 67, 95
1, 229763, Control_c, 0, 64, 58
1, 229763, Control_c, 0, 67, 95
1, 229778, Control_c, 0, 64, 60
1, 229778, Control_c, 0, 67, 94
1, 229793, Control_c, 0, 64, 61
1, 229808, Control_c, 0, 64, 62
1, 229823, Control_c, 0, 64, 63
1, 229837, Control_c, 0, 64, 65
1, 229852, Control_c, 0, 64, 66
1, 229867, Control_c, 0, 64, 68
1, 229882, Control_c, 0, 64, 72
1, 229897, Control_c, 0, 64, 76
1, 229900, Note_off_c, 0, 75, 54
1, 229911, Control_c, 0, 64, 81
1, 229913, Note_on_c, 0, 79, 55
1, 229916, Note_off_c, 0, 48, 38
1, 229926, Control_c, 0, 64, 87
1, 229935, Note_off_c, 0, 36, 40
1, 229941, Control_c, 0, 64, 94
1, 229948, Note_off_c, 0, 79, 65
1, 229954, Note_off_c, 0, 72, 40
1, 229956, Control_c, 0, 64, 104
1, 229967, Note_off_c, 0, 67, 41
1, 229971, Control_c, 0, 64, 120
1, 229984, Note_off_c, 0, 39, 14
1, 229986, Control_c, 0, 64, 127
1, 230060, Control_c, 0, 67, 94
1, 230096, Control_c, 0, 67, 93
1, 230111, Control_c, 0, 67, 92
1, 230126, Control_c, 0, 67, 92
1, 230141, Control_c, 0, 67, 90
1, 230156, Control_c, 0, 67, 87
1, 230170, Control_c, 0, 64, 86
1, 230170, Control_c, 0, 67, 79
1, 230185, Control_c, 0, 64, 57
1, 230185, Control_c, 0, 67, 57
1, 230197, Note_on_c, 0, 63, 96
1, 230200, Note_on_c, 0, 60, 102
1, 230200, Control_c, 0, 64, 38
1, 230200, Control_c, 0, 67, 11
1, 230203, Note_on_c, 0, 43, 92
1, 230205, Note_on_c, 0, 48, 95
1, 230207, Note_on_c, 0, 72, 88
1, 230210, Note_on_c, 0, 39, 84
1, 230212, Note_on_c, 0, 36, 79
1, 230215, Control_c, 0, 64, 53
1, 230215, Control_c, 0, 67, 0
1, 230230, Control_c, 0, 64, 65
1, 230245, Control_c, 0, 64, 92
1, 230260, Control_c, 0, 64, 127
1, 230262, Note_off_c, 0, 72, 65
1, 230283, Note_off_c, 0, 60, 62
1, 230295, Note_off_c, 0, 63, 62
1, 230513, Control_c, 0, 64, 77
1, 230528, Control_c, 0, 64, 52
1, 230534, Note_on_c, 0, 60, 91
1, 230542, Control_c, 0, 64, 0
1, 230576, Note_off_c, 0, 60, 65
1, 230674, Note_on_c, 0, 62, 79
1, 230722, Note_off_c, 0, 62, 62
1, 230808, Control_c, 0, 64, 37
1, 230813, Note_on_c, 0, 63, 83
1, 230823, Control_c, 0, 64, 70
1, 230846, Control_c, 0, 64, 95
1, 230861, Control_c, 0, 64, 127
1, 230862, Note_off_c, 0, 63, 66
1, 230875, Control_c, 0, 64, 104
1, 230879, Note_on_c, 0, 65, 80
1, 230890, Control_c, 0, 64, 85
1, 230904, Control_c, 0, 64, 75
1, 230918, Control_c, 0, 64, 70
1, 230933, Control_c, 0, 64, 69
1, 230937, Note_on_c, 0, 67, 80
1, 230939, Note_off_c, 0, 65, 62
1, 230963, Control_c, 0, 64, 68
1, 230969, Note_on_c, 0, 69, 74
1, 230992, Control_c, 0, 64, 67
1, 230994, Note_off_c, 0, 67, 62
1, 231007, Control_c, 0, 64, 66
1, 231022, Control_c, 0, 64, 66
1, 231023, Note_on_c, 0, 71, 81
1, 231026, Note_off_c, 0, 69, 64
1, 231037, Control_c, 0, 64, 65
1, 231044, Note_off_c, 0, 71, 71
1, 231052, Control_c, 0, 64, 64
1, 231066, Control_c, 0, 64, 64
1, 231081, Control_c, 0, 64, 63
1, 231094, Note_on_c, 0, 72, 81
1, 231096, Control_c, 0, 64, 62
1, 231111, Control_c, 0, 64, 61
1, 231131, Note_on_c, 0, 74, 81
1, 231140, Control_c, 0, 64, 61
1, 231141, Note_off_c, 0, 72, 65
1, 231155, Control_c, 0, 64, 60
1, 231170, Control_c, 0, 64, 58
1, 231186, Note_on_c, 0, 75, 80
1, 231186, Control_c, 0, 64, 55
1, 231189, Note_off_c, 0, 74, 64
1, 231201, Control_c, 0, 64, 50
1, 231211, Note_off_c, 0, 75, 69
1, 231215, Control_c, 0, 64, 44
1, 231230, Control_c, 0, 64, 38
1, 231245, Control_c, 0, 64, 29
1, 231249, Note_on_c, 0, 77, 78
1, 231260, Control_c, 0, 64, 0
1, 231300, Note_on_c, 0, 79, 79
1, 231311, Note_off_c, 0, 77, 63
1, 231335, Note_on_c, 0, 81, 74
1, 231356, Note_off_c, 0, 79, 67
1, 231376, Note_on_c, 0, 83, 86
1, 231389, Note_off_c, 0, 81, 65
1, 231411, Note_on_c, 0, 84, 102
1, 231422, Control_c, 0, 64, 39
1, 231432, Note_off_c, 0, 83, 67
1, 231437, Control_c, 0, 64, 63
1, 231452, Control_c, 0, 64, 80
1, 231467, Control_c, 0, 64, 127
1, 231610, Note_off_c, 0, 48, 59
1, 231618, Note_off_c, 0, 43, 61
1, 231644, Note_off_c, 0, 84, 63
1, 231651, Note_off_c, 0, 39, 59
1, 231665, Note_off_c, 0, 36, 61
1, 232009, Note_on_c, 0, 43, 96
1, 232010, Control_c, 0, 64, 115
1, 232012, Note_on_c, 0, 38, 85
1, 232013, Note_on_c, 0, 35, 81
1, 232017, Note_on_c, 0, 31, 81
1, 232024, Control_c, 0, 64, 70
1, 232039, Control_c, 0, 64, 0
1, 232290, Note_on_c, 0, 62, 83
1, 232327, Note_off_c, 0, 62, 63
1, 232439, Note_on_c, 0, 63, 85
1, 232483, Note_off_c, 0, 63, 65
1, 232550, Control_c, 0, 64, 39
1, 232564, Control_c, 0, 64, 60
1, 232565, Note_on_c, 0, 65, 86
1, 232579, Control_c, 0, 64, 62
1, 232594, Control_c, 0, 64, 62
1, 232609, Note_on_c, 0, 67, 80
1, 232609, Control_c, 0, 64, 61
1, 232620, Note_off_c, 0, 65, 61
1, 232624, Control_c, 0, 64, 61
1, 232659, Note_on_c, 0, 69, 72
1, 232680, Note_off_c, 0, 67, 60
1, 232700, Note_on_c, 0, 71, 81
1, 232708, Note_off_c, 0, 69, 63
1, 232719, Note_off_c, 0, 71, 71
1, 232743, Control_c, 0, 64, 60
1, 232762, Note_on_c, 0, 72, 65
1, 232805, Note_on_c, 0, 74, 79
1, 232816, Note_off_c, 0, 72, 65
1, 232861, Note_on_c, 0, 75, 84
1, 232863, Note_off_c, 0, 74, 63
1, 232881, Note_off_c, 0, 75, 71
1, 232892, Control_c, 0, 64, 60
1, 232933, Note_on_c, 0, 77, 71
1, 232966, Note_on_c, 0, 79, 79
1, 232980, Note_off_c, 0, 77, 65
1, 232995, Control_c, 0, 64, 59
1, 233024, Note_off_c, 0, 79, 65
1, 233029, Note_on_c, 0, 81, 76
1, 233054, Note_off_c, 0, 81, 68
1, 233106, Note_on_c, 0, 83, 70
1, 233145, Note_off_c, 0, 83, 66
1, 233148, Note_on_c, 0, 84, 87
1, 233165, Control_c, 0, 64, 59
1, 233180, Control_c, 0, 64, 57
1, 233191, Note_on_c, 0, 86, 98
1, 233194, Control_c, 0, 64, 50
1, 233208, Note_off_c, 0, 84, 67
1, 233209, Control_c, 0, 64, 11
1, 233224, Control_c, 0, 64, 0
1, 233327, Control_c, 0, 64, 20
1, 233342, Control_c, 0, 64, 54
1, 233357, Control_c, 0, 64, 65
1, 233372, Control_c, 0, 64, 75
1, 233387, Control_c, 0, 64, 111
1, 233390, Note_off_c, 0, 31, 59
1, 233396, Note_off_c, 0, 35, 60
1, 233402, Control_c, 0, 64, 127
1, 233417, Note_off_c, 0, 38, 61
1, 233431, Note_off_c, 0, 86, 62
1, 233456, Note_off_c, 0, 43, 63
1, 233771, Note_on_c, 0, 46, 90
1, 233771, Note_on_c, 0, 48, 94
1, 233776, Note_on_c, 0, 43, 83
1, 233777, Note_on_c, 0, 36, 80
1, 233780, Note_on_c, 0, 40, 76
1, 233788, Control_c, 0, 64, 101
1, 233803, Control_c, 0, 64, 69
1, 233817, Control_c, 0, 64, 45
1, 233840, Control_c, 0, 64, 0
1, 234084, Note_on_c, 0, 64, 86
1, 234123, Note_off_c, 0, 64, 66
1, 234227, Note_on_c, 0, 65, 80
1, 234254, Note_off_c, 0, 65, 67
1, 234328, Control_c, 0, 64, 29
1, 234343, Control_c, 0, 64, 57
1, 234358, Control_c, 0, 64, 63
1, 234362, Note_on_c, 0, 67, 87
1, 234373, Control_c, 0, 64, 65
1, 234388, Control_c, 0, 64, 64
1, 234403, Note_on_c, 0, 69, 83
1, 234403, Control_c, 0, 64, 63
1, 234405, Note_off_c, 0, 67, 66
1, 234433, Control_c, 0, 64, 63
1, 234460, Note_off_c, 0, 69, 63
1, 234463, Note_on_c, 0, 70, 80
1, 234484, Note_off_c, 0, 70, 72
1, 234533, Note_on_c, 0, 72, 71
1, 234569, Note_on_c, 0, 74, 81
1, 234584, Note_off_c, 0, 72, 59
1, 234625, Note_off_c, 0, 74, 59
1, 234627, Note_on_c, 0, 76, 78
1, 234651, Note_off_c, 0, 76, 70
1, 234663, Control_c, 0, 64, 62
1, 234696, Note_on_c, 0, 77, 77
1, 234737, Control_c, 0, 64, 62
1, 234740, Note_on_c, 0, 79, 76
1, 234759, Note_off_c, 0, 77, 63
1, 234788, Note_on_c, 0, 81, 75
1, 234803, Note_off_c, 0, 79, 64
1, 234826, Note_on_c, 0, 82, 78
1, 234831, Note_off_c, 0, 81, 65
1, 234846, Note_off_c, 0, 82, 70
1, 234855, Control_c, 0, 64, 61
1, 234870, Control_c, 0, 64, 57
1, 234885, Control_c, 0, 64, 39
1, 234887, Note_on_c, 0, 84, 76
1, 234900, Control_c, 0, 64, 0
1, 234928, Note_on_c, 0, 86, 86
1, 234928, Note_off_c, 0, 84, 66
1, 234964, Note_off_c, 0, 86, 68
1, 234973, Note_on_c, 0, 88, 100
1, 234988, Control_c, 0, 64, 60
1, 235003, Control_c, 0, 64, 83
1, 235004, Note_off_c, 0, 88, 71
1, 235018, Control_c, 0, 64, 127
1, 235065, Note_off_c, 0, 48, 61
1, 235066, Note_off_c, 0, 43, 61
1, 235072, Note_off_c, 0, 46, 61
1, 235086, Note_off_c, 0, 40, 59
1, 235116, Note_off_c, 0, 36, 61
1, 235578, Note_on_c, 0, 41, 99
1, 235583, Note_on_c, 0, 36, 85
1, 235584, Note_on_c, 0, 33, 83
1, 235587, Note_on_c, 0, 29, 80
1, 235605, Control_c, 0, 64, 94
1, 235619, Control_c, 0, 64, 69
1, 235634, Control_c, 0, 64, 46
1, 235649, Control_c, 0, 64, 0
1, 235889, Note_on_c, 0, 65, 85
1, 235932, Note_off_c, 0, 65, 62
1, 236022, Note_on_c, 0, 67, 79
1, 236052, Note_off_c, 0, 67, 65
1, 236147, Control_c, 0, 64, 54
1, 236161, Note_on_c, 0, 69, 86
1, 236161, Control_c, 0, 64, 64
1, 236176, Control_c, 0, 64, 70
1, 236191, Control_c, 0, 64, 75
1, 236195, Note_on_c, 0, 70, 84
1, 236201, Note_off_c, 0, 69, 57
1, 236205, Control_c, 0, 64, 76
1, 236217, Note_off_c, 0, 70, 70
1, 236220, Control_c, 0, 64, 74
1, 236235, Control_c, 0, 64, 72
1, 236250, Control_c, 0, 64, 72
1, 236274, Note_on_c, 0, 72, 63
1, 236309, Control_c, 0, 64, 71
1, 236310, Note_on_c, 0, 74, 83
1, 236324, Control_c, 0, 64, 71
1, 236328, Note_off_c, 0, 72, 65
1, 236339, Control_c, 0, 64, 70
1, 236353, Control_c, 0, 64, 70
1, 236368, Note_off_c, 0, 74, 63
1, 236368, Control_c, 0, 64, 69
1, 236369, Note_on_c, 0, 76, 82
1, 236383, Control_c, 0, 64, 67
1, 236391, Note_off_c, 0, 76, 70
1, 236398, Control_c, 0, 64, 66
1, 236412, Control_c, 0, 64, 64
1, 236427, Control_c, 0, 64, 62
1, 236442, Control_c, 0, 64, 61
1, 236445, Note_on_c, 0, 77, 78
1, 236457, Control_c, 0, 64, 60
1, 236472, Control_c, 0, 64, 59
1, 236478, Note_on_c, 0, 79, 82
1, 236487, Control_c, 0, 64, 58
1, 236495, Note_off_c, 0, 77, 65
1, 236502, Control_c, 0, 64, 57
1, 236517, Control_c, 0, 64, 56
1, 236518, Note_on_c, 0, 81, 74
1, 236531, Control_c, 0, 64, 53
1, 236539, Note_off_c, 0, 79, 64
1, 236546, Control_c, 0, 64, 49
1, 236555, Note_on_c, 0, 82, 82
1, 236561, Control_c, 0, 64, 43
1, 236566, Note_off_c, 0, 81, 65
1, 236574, Note_off_c, 0, 82, 71
1, 236576, Control_c, 0, 64, 33
1, 236591, Control_c, 0, 64, 0
1, 236624, Note_on_c, 0, 84, 76
1, 236666, Note_off_c, 0, 84, 66
1, 236668, Note_on_c, 0, 86, 77
1, 236711, Note_on_c, 0, 88, 78
1, 236733, Note_off_c, 0, 86, 66
1, 236738, Control_c, 0, 64, 22
1, 236749, Note_on_c, 0, 89, 107
1, 236753, Control_c, 0, 64, 57
1, 236761, Note_off_c, 0, 88, 68
1, 236768, Control_c, 0, 64, 71
1, 236778, Note_off_c, 0, 89, 69
1, 236784, Control_c, 0, 64, 127
1, 236790, Note_off_c, 0, 29, 61
1, 236796, Note_off_c, 0, 33, 60
1, 236799, Note_off_c, 0, 36, 60
1, 236835, Note_off_c, 0, 41, 64
1, 237327, Note_on_c, 0, 42, 88
1, 237327, Note_on_c, 0, 45, 91
1, 237327, Note_on_c, 0, 50, 99
1, 237336, Note_on_c, 0, 38, 81
1, 237339, Control_c, 0, 64, 83
1, 237354, Control_c, 0, 64, 56
1, 237369, Control_c, 0, 64, 0
1, 237642, Note_on_c, 0, 66, 82
1, 237687, Note_off_c, 0, 66, 65
1, 237781, Note_on_c, 0, 67, 84
1, 237815, Note_off_c, 0, 67, 65
1, 237880, Control_c, 0, 64, 30
1, 237895, Control_c, 0, 64, 58
1, 237910, Control_c, 0, 64, 68
1, 237918, Note_on_c, 0, 69, 88
1, 237924, Control_c, 0, 64, 79
1, 237939, Control_c, 0, 64, 90
1, 237951, Note_on_c, 0, 71, 85
1, 237954, Control_c, 0, 64, 90
1, 237960, Note_off_c, 0, 69, 65
1, 237969, Control_c, 0, 64, 88
1, 237983, Control_c, 0, 64, 86
1, 237998, Control_c, 0, 64, 85
1, 238011, Note_off_c, 0, 71, 62
1, 238013, Control_c, 0, 64, 85
1, 238022, Note_on_c, 0, 72, 75
1, 238028, Control_c, 0, 64, 84
1, 238043, Control_c, 0, 64, 83
1, 238047, Note_off_c, 0, 72, 70
1, 238058, Control_c, 0, 64, 81
1, 238073, Control_c, 0, 64, 79
1, 238092, Note_on_c, 0, 74, 73
1, 238103, Control_c, 0, 64, 79
1, 238117, Control_c, 0, 64, 78
1, 238126, Note_off_c, 0, 74, 63
1, 238129, Note_on_c, 0, 76, 81
1, 238132, Control_c, 0, 64, 78
1, 238147, Control_c, 0, 64, 77
1, 238162, Control_c, 0, 64, 76
1, 238174, Note_on_c, 0, 78, 84
1, 238176, Note_off_c, 0, 76, 62
1, 238176, Control_c, 0, 64, 74
1, 238191, Control_c, 0, 64, 72
1, 238204, Note_off_c, 0, 78, 67
1, 238206, Control_c, 0, 64, 68
1, 238221, Control_c, 0, 64, 64
1, 238236, Control_c, 0, 64, 60
1, 238250, Control_c, 0, 64, 55
1, 238255, Note_on_c, 0, 79, 66
1, 238265, Control_c, 0, 64, 49
1, 238280, Control_c, 0, 64, 41
1, 238281, Note_on_c, 0, 81, 65
1, 238295, Control_c, 0, 64, 33
1, 238299, Note_off_c, 0, 79, 65
1, 238310, Control_c, 0, 64, 23
1, 238332, Control_c, 0, 64, 0
1, 238342, Note_off_c, 0, 81, 67
1, 238343, Note_on_c, 0, 83, 76
1, 238364, Note_off_c, 0, 83, 70
1, 238424, Note_on_c, 0, 84, 75
1, 238460, Note_on_c, 0, 86, 78
1, 238460, Note_off_c, 0, 84, 65
1, 238496, Note_on_c, 0, 88, 76
1, 238510, Note_off_c, 0, 86, 67
1, 238511, Control_c, 0, 64, 57
1, 238513, Note_on_c, 0, 90, 94
1, 238526, Control_c, 0, 64, 78
1, 238532, Note_off_c, 0, 88, 68
1, 238536, Note_off_c, 0, 50, 63
1, 238538, Note_off_c, 0, 45, 64
1, 238541, Control_c, 0, 64, 127
1, 238550, Note_off_c, 0, 90, 67
1, 238551, Note_off_c, 0, 42, 63
1, 238569, Note_off_c, 0, 38, 62
1, 238771, Note_on_c, 0, 79, 74
1, 238792, Control_c, 0, 64, 97
1, 238806, Control_c, 0, 64, 66
1, 238807, Note_on_c, 0, 81, 73
1, 238816, Note_off_c, 0, 79, 64
1, 238821, Control_c, 0, 64, 0
1, 238851, Note_on_c, 0, 83, 81
1, 238855, Note_off_c, 0, 81, 65
1, 238875, Note_off_c, 0, 83, 67
1, 238924, Note_on_c, 0, 84, 77
1, 238966, Note_on_c, 0, 86, 78
1, 238979, Note_off_c, 0, 84, 65
1, 239009, Note_on_c, 0, 88, 56
1, 239023, Note_off_c, 0, 86, 66
1, 239026, Note_on_c, 0, 90, 73
1, 239033, Note_on_c, 0, 89, 40
1, 239044, Control_c, 0, 64, 38
1, 239059, Control_c, 0, 64, 68
1, 239062, Note_off_c, 0, 89, 34
1, 239068, Note_off_c, 0, 88, 63
1, 239072, Note_on_c, 0, 91, 109
1, 239080, Control_c, 0, 64, 127
1, 239084, Note_on_c, 0, 31, 86
1, 239084, Note_on_c, 0, 43, 89
1, 239113, Note_off_c, 0, 90, 64
1, 239125, Note_off_c, 0, 31, 64
1, 239142, Note_off_c, 0, 43, 64
1, 239142, Note_off_c, 0, 91, 65
1, 239346, Note_on_c, 0, 80, 71
1, 239347, Poly_aftertouch_c, 0, 85, 0
1, 239393, Note_off_c, 0, 80, 60
1, 239393, Control_c, 0, 64, 89
1, 239397, Note_on_c, 0, 82, 79
1, 239408, Control_c, 0, 64, 68
1, 239418, Note_off_c, 0, 82, 71
1, 239423, Control_c, 0, 64, 46
1, 239438, Control_c, 0, 64, 0
1, 239455, Note_on_c, 0, 84, 77
1, 239498, Note_on_c, 0, 86, 81
1, 239498, Note_off_c, 0, 84, 66
1, 239548, Note_off_c, 0, 86, 64
1, 239550, Note_on_c, 0, 87, 80
1, 239575, Note_off_c, 0, 87, 66
1, 239629, Note_on_c, 0, 89, 76
1, 239660, Note_on_c, 0, 91, 90
1, 239660, Control_c, 0, 64, 11
1, 239668, Note_off_c, 0, 89, 64
1, 239675, Control_c, 0, 64, 75
1, 239679, Note_on_c, 0, 32, 80
1, 239679, Note_on_c, 0, 44, 94
1, 239690, Note_on_c, 0, 92, 107
1, 239690, Control_c, 0, 64, 127
1, 239706, Note_off_c, 0, 91, 67
1, 239709, Note_off_c, 0, 32, 67
1, 239721, Note_off_c, 0, 92, 70
1, 239726, Note_off_c, 0, 44, 64
1, 240007, Note_on_c, 0, 77, 74
1, 240052, Note_on_c, 0, 79, 71
1, 240053, Control_c, 0, 64, 94
1, 240068, Control_c, 0, 64, 78
1, 240083, Note_off_c, 0, 77, 63
1, 240083, Control_c, 0, 64, 67
1, 240094, Note_on_c, 0, 80, 68
1, 240098, Control_c, 0, 64, 60
1, 240113, Control_c, 0, 64, 54
1, 240116, Note_off_c, 0, 79, 65
1, 240126, Note_on_c, 0, 82, 81
1, 240127, Control_c, 0, 64, 50
1, 240142, Control_c, 0, 64, 47
1, 240150, Note_off_c, 0, 80, 64
1, 240154, Note_off_c, 0, 82, 66
1, 240157, Control_c, 0, 64, 42
1, 240159, Note_on_c, 0, 84, 76
1, 240172, Control_c, 0, 64, 31
1, 240187, Control_c, 0, 64, 9
1, 240198, Note_on_c, 0, 86, 81
1, 240201, Control_c, 0, 64, 0
1, 240213, Note_off_c, 0, 84, 63
1, 240233, Note_on_c, 0, 87, 84
1, 240262, Note_off_c, 0, 86, 65
1, 240270, Note_on_c, 0, 89, 97
1, 240303, Note_off_c, 0, 87, 66
1, 240409, Control_c, 0, 64, 13
1, 240424, Control_c, 0, 64, 51
1, 240439, Control_c, 0, 64, 63
1, 240453, Control_c, 0, 64, 70
1, 240468, Control_c, 0, 64, 80
1, 240483, Control_c, 0, 64, 96
1, 240498, Control_c, 0, 64, 127
1, 240499, Note_off_c, 0, 89, 56
1, 240508, Note_on_c, 0, 74, 66
1, 240553, Note_on_c, 0, 75, 81
1, 240584, Note_off_c, 0, 74, 62
1, 240601, Note_on_c, 0, 77, 76
1, 240624, Control_c, 0, 64, 107
1, 240637, Note_off_c, 0, 75, 63
1, 240639, Control_c, 0, 64, 91
1, 240653, Note_on_c, 0, 79, 76
1, 240653, Control_c, 0, 64, 76
1, 240664, Note_on_c, 0, 81, 71
1, 240668, Control_c, 0, 64, 65
1, 240683, Control_c, 0, 64, 52
1, 240684, Note_off_c, 0, 77, 62
1, 240695, Note_off_c, 0, 79, 64
1, 240698, Control_c, 0, 64, 32
1, 240713, Control_c, 0, 64, 23
1, 240715, Note_on_c, 0, 83, 76
1, 240720, Note_off_c, 0, 81, 65
1, 240727, Control_c, 0, 64, 17
1, 240742, Control_c, 0, 64, 0
1, 240752, Note_on_c, 0, 84, 83
1, 240776, Note_off_c, 0, 83, 66
1, 240799, Note_on_c, 0, 86, 99
1, 240818, Note_off_c, 0, 84, 65
1, 240980, Control_c, 0, 64, 33
1, 240994, Control_c, 0, 64, 54
1, 241009, Control_c, 0, 64, 64
1, 241015, Note_off_c, 0, 86, 62
1, 241024, Control_c, 0, 64, 71
1, 241039, Control_c, 0, 64, 82
1, 241054, Control_c, 0, 64, 104
1, 241069, Control_c, 0, 64, 127
1, 241091, Note_on_c, 0, 68, 71
1, 241143, Note_on_c, 0, 70, 77
1, 241173, Control_c, 0, 64, 109
1, 241179, Note_off_c, 0, 68, 62
1, 241187, Note_on_c, 0, 72, 75
1, 241188, Control_c, 0, 64, 86
1, 241202, Control_c, 0, 64, 71
1, 241217, Control_c, 0, 64, 62
1, 241221, Note_off_c, 0, 70, 63
1, 241222, Note_on_c, 0, 75, 64
1, 241232, Control_c, 0, 64, 52
1, 241237, Note_on_c, 0, 74, 68
1, 241247, Control_c, 0, 64, 45
1, 241256, Note_off_c, 0, 72, 64
1, 241262, Control_c, 0, 64, 38
1, 241263, Note_off_c, 0, 74, 67
1, 241276, Control_c, 0, 64, 25
1, 241289, Note_on_c, 0, 77, 72
1, 241289, Note_off_c, 0, 75, 63
1, 241291, Control_c, 0, 64, 0
1, 241333, Note_on_c, 0, 79, 74
1, 241358, Note_off_c, 0, 77, 63
1, 241387, Note_on_c, 0, 80, 98
1, 241415, Note_off_c, 0, 79, 66
1, 241535, Control_c, 0, 64, 44
1, 241549, Control_c, 0, 64, 58
1, 241564, Control_c, 0, 64, 64
1, 241580, Control_c, 0, 64, 68
1, 241595, Control_c, 0, 64, 72
1, 241610, Control_c, 0, 64, 76
1, 241616, Note_off_c, 0, 80, 62
1, 241624, Control_c, 0, 64, 78
1, 241639, Control_c, 0, 64, 80
1, 241654, Control_c, 0, 64, 81
1, 241671, Note_on_c, 0, 67, 70
1, 241698, Control_c, 0, 64, 80
1, 241709, Note_on_c, 0, 69, 75
1, 241713, Control_c, 0, 64, 79
1, 241728, Control_c, 0, 64, 77
1, 241741, Note_off_c, 0, 67, 58
1, 241743, Control_c, 0, 64, 75
1, 241753, Note_on_c, 0, 71, 77
1, 241758, Control_c, 0, 64, 71
1, 241772, Control_c, 0, 64, 65
1, 241787, Control_c, 0, 64, 58
1, 241802, Control_c, 0, 64, 49
1, 241808, Note_off_c, 0, 69, 61
1, 241810, Note_on_c, 0, 72, 62
1, 241810, Note_on_c, 0, 74, 65
1, 241817, Control_c, 0, 64, 43
1, 241832, Control_c, 0, 64, 41
1, 241833, Note_off_c, 0, 71, 53
1, 241833, Note_off_c, 0, 72, 68
1, 241847, Control_c, 0, 64, 38
1, 241852, Note_on_c, 0, 75, 75
1, 241861, Control_c, 0, 64, 30
1, 241863, Note_off_c, 0, 74, 63
1, 241876, Control_c, 0, 64, 12
1, 241891, Control_c, 0, 64, 0
1, 241893, Note_on_c, 0, 77, 79
1, 241913, Note_off_c, 0, 75, 64
1, 241944, Note_on_c, 0, 79, 101
1, 241966, Note_off_c, 0, 77, 65
1, 242076, Control_c, 0, 64, 42
1, 242091, Control_c, 0, 64, 57
1, 242106, Control_c, 0, 64, 65
1, 242121, Control_c, 0, 64, 70
1, 242135, Control_c, 0, 64, 76
1, 242148, Note_off_c, 0, 79, 62
1, 242150, Control_c, 0, 64, 83
1, 242165, Control_c, 0, 64, 89
1, 242179, Control_c, 0, 64, 94
1, 242194, Control_c, 0, 64, 98
1, 242209, Control_c, 0, 64, 100
1, 242223, Control_c, 0, 64, 101
1, 242236, Note_on_c, 0, 60, 64
1, 242283, Control_c, 0, 64, 100
1, 242285, Note_on_c, 0, 62, 69
1, 242297, Control_c, 0, 64, 98
1, 242302, Note_off_c, 0, 60, 63
1, 242312, Control_c, 0, 64, 96
1, 242327, Control_c, 0, 64, 94
1, 242332, Note_on_c, 0, 63, 74
1, 242342, Control_c, 0, 64, 88
1, 242356, Note_off_c, 0, 62, 61
1, 242357, Control_c, 0, 64, 79
1, 242358, Note_on_c, 0, 65, 78
1, 242370, Note_on_c, 0, 67, 68
1, 242373, Control_c, 0, 64, 69
1, 242388, Control_c, 0, 64, 63
1, 242392, Note_off_c, 0, 65, 66
1, 242394, Note_off_c, 0, 63, 62
1, 242402, Control_c, 0, 64, 55
1, 242417, Note_off_c, 0, 67, 61
1, 242417, Control_c, 0, 64, 43
1, 242422, Note_on_c, 0, 69, 76
1, 242432, Control_c, 0, 64, 23
1, 242446, Control_c, 0, 64, 0
1, 242457, Note_on_c, 0, 71, 82
1, 242479, Note_off_c, 0, 69, 64
1, 242507, Note_on_c, 0, 72, 99
1, 242530, Note_off_c, 0, 71, 63
1, 242654, Control_c, 0, 64, 27
1, 242669, Control_c, 0, 64, 52
1, 242684, Control_c, 0, 64, 63
1, 242699, Control_c, 0, 64, 70
1, 242704, Note_off_c, 0, 72, 60
1, 242713, Control_c, 0, 64, 79
1, 242728, Control_c, 0, 64, 93
1, 242743, Control_c, 0, 64, 125
1, 242758, Control_c, 0, 64, 127
1, 242790, Note_on_c, 0, 48, 61
1, 242845, Note_on_c, 0, 50, 68
1, 242876, Note_off_c, 0, 48, 61
1, 242896, Note_on_c, 0, 51, 75
1, 242899, Control_c, 0, 64, 104
1, 242914, Control_c, 0, 64, 89
1, 242922, Note_on_c, 0, 53, 74
1, 242929, Control_c, 0, 64, 76
1, 242943, Control_c, 0, 64, 64
1, 242944, Note_off_c, 0, 50, 52
1, 242945, Note_on_c, 0, 55, 68
1, 242958, Note_off_c, 0, 53, 65
1, 242958, Control_c, 0, 64, 51
1, 242967, Note_off_c, 0, 51, 63
1, 242973, Control_c, 0, 64, 31
1, 242988, Control_c, 0, 64, 0
1, 242991, Note_off_c, 0, 55, 62
1, 242994, Note_on_c, 0, 57, 76
1, 243031, Note_on_c, 0, 59, 78
1, 243054, Note_off_c, 0, 57, 64
1, 243078, Note_on_c, 0, 60, 99
1, 243098, Note_off_c, 0, 59, 63
1, 243241, Control_c, 0, 64, 33
1, 243256, Control_c, 0, 64, 54
1, 243268, Note_off_c, 0, 60, 63
1, 243270, Control_c, 0, 64, 64
1, 243285, Control_c, 0, 64, 72
1, 243300, Control_c, 0, 64, 88
1, 243315, Control_c, 0, 64, 127
1, 243361, Note_on_c, 0, 36, 67
1, 243409, Note_on_c, 0, 38, 70
1, 243433, Control_c, 0, 64, 96
1, 243436, Note_off_c, 0, 36, 60
1, 243441, Note_on_c, 0, 39, 75
1, 243448, Control_c, 0, 64, 79
1, 243463, Control_c, 0, 64, 67
1, 243467, Note_on_c, 0, 41, 58
1, 243468, Note_on_c, 0, 43, 65
1, 243469, Note_off_c, 0, 38, 62
1, 243477, Control_c, 0, 64, 59
1, 243485, Note_off_c, 0, 39, 63
1, 243492, Control_c, 0, 64, 51
1, 243500, Note_off_c, 0, 41, 63
1, 243507, Control_c, 0, 64, 47
1, 243519, Note_on_c, 0, 45, 68
1, 243522, Control_c, 0, 64, 44
1, 243531, Note_off_c, 0, 43, 63
1, 243537, Control_c, 0, 64, 38
1, 243552, Control_c, 0, 64, 20
1, 243564, Note_on_c, 0, 47, 90
1, 243574, Control_c, 0, 64, 0
1, 243588, Note_off_c, 0, 45, 66
1, 243590, Note_off_c, 0, 47, 69
1, 243629, Note_on_c, 0, 48, 104
1, 243751, Control_c, 0, 64, 40
1, 243766, Control_c, 0, 64, 58
1, 243781, Control_c, 0, 64, 67
1, 243795, Control_c, 0, 64, 73
1, 243808, Note_off_c, 0, 48, 67
1, 243810, Control_c, 0, 64, 84
1, 243825, Control_c, 0, 64, 100
1, 243840, Control_c, 0, 64, 127
1, 243958, Control_c, 0, 64, 105
1, 243974, Control_c, 0, 64, 87
1, 243989, Control_c, 0, 64, 71
1, 244004, Control_c, 0, 64, 57
1, 244019, Control_c, 0, 64, 0
1, 244127, Note_on_c, 0, 48, 95
1, 244127, Note_on_c, 0, 43, 87
1, 244131, Note_on_c, 0, 55, 84
1, 244137, Control_c, 0, 64, 60
1, 244140, Note_on_c, 0, 36, 77
1, 244142, Note_on_c, 0, 39, 76
1, 244152, Control_c, 0, 64, 79
1, 244166, Control_c, 0, 64, 127
1, 244201, Note_off_c, 0, 55, 62
1, 244204, Note_on_c, 0, 60, 76
1, 244258, Note_on_c, 0, 63, 79
1, 244261, Note_off_c, 0, 60, 64
1, 244282, Note_off_c, 0, 63, 71
1, 244364, Note_on_c, 0, 67, 76
1, 244377, Note_off_c, 0, 36, 59
1, 244419, Note_off_c, 0, 67, 62
1, 244423, Note_off_c, 0, 48, 58
1, 244428, Note_on_c, 0, 72, 62
1, 244433, Note_off_c, 0, 43, 61
1, 244434, Note_off_c, 0, 39, 58
1, 244498, Note_on_c, 0, 75, 71
1, 244503, Note_off_c, 0, 72, 61
1, 244556, Note_on_c, 0, 79, 84
1, 244559, Note_off_c, 0, 75, 62
1, 244559, Control_c, 0, 64, 98
1, 244574, Control_c, 0, 64, 67
1, 244589, Control_c, 0, 64, 27
1, 244604, Control_c, 0, 64, 0
1, 244627, Note_on_c, 0, 75, 64
1, 244646, Note_off_c, 0, 79, 61
1, 244681, Note_off_c, 0, 75, 61
1, 244694, Note_on_c, 0, 72, 57
1, 244748, Note_off_c, 0, 72, 60
1, 244759, Note_on_c, 0, 63, 59
1, 244766, Note_on_c, 0, 79, 71
1, 244789, Note_on_c, 0, 60, 53
1, 244837, Note_on_c, 0, 75, 60
1, 244852, Note_off_c, 0, 79, 58
1, 244896, Note_on_c, 0, 72, 57
1, 244910, Note_off_c, 0, 75, 57
1, 244959, Note_off_c, 0, 72, 60
1, 244973, Note_on_c, 0, 79, 67
1, 244991, Note_on_c, 0, 59, 56
1, 244991, Note_off_c, 0, 63, 41
1, 244998, Note_on_c, 0, 62, 50
1, 245031, Note_off_c, 0, 60, 36
1, 245043, Note_on_c, 0, 74, 58
1, 245052, Note_off_c, 0, 79, 58
1, 245122, Note_on_c, 0, 71, 53
1, 245122, Note_off_c, 0, 74, 58
1, 245185, Note_off_c, 0, 71, 61
1, 245186, Note_off_c, 0, 59, 61
1, 245196, Note_on_c, 0, 63, 68
1, 245199, Note_on_c, 0, 60, 56
1, 245206, Note_on_c, 0, 79, 73
1, 245206, Note_off_c, 0, 62, 59
1, 245225, Note_off_c, 0, 63, 65
1, 245229, Note_off_c, 0, 60, 66
1, 245274, Note_on_c, 0, 75, 68
1, 245298, Note_off_c, 0, 79, 61
1, 245343, Note_off_c, 0, 75, 62
1, 245352, Note_on_c, 0, 72, 67
1, 245379, Note_off_c, 0, 72, 67
1, 245411, Note_on_c, 0, 79, 88
1, 245420, Note_on_c, 0, 62, 94
1, 245424, Note_on_c, 0, 55, 76
1, 245424, Note_on_c, 0, 59, 83
1, 245441, Control_c, 0, 64, 26
1, 245456, Control_c, 0, 64, 56
1, 245471, Control_c, 0, 64, 63
1, 245480, Note_on_c, 0, 74, 79
1, 245486, Control_c, 0, 64, 68
1, 245501, Control_c, 0, 64, 78
1, 245515, Control_c, 0, 64, 107
1, 245522, Note_off_c, 0, 79, 61
1, 245530, Control_c, 0, 64, 127
1, 245570, Note_on_c, 0, 71, 79
1, 245592, Note_off_c, 0, 74, 62
1, 245598, Note_off_c, 0, 62, 61
1, 245626, Note_off_c, 0, 71, 64
1, 245629, Note_off_c, 0, 59, 63
1, 245645, Note_off_c, 0, 55, 63
1, 245647, Note_on_c, 0, 67, 58
1, 245678, Note_off_c, 0, 67, 65
1, 245728, Note_on_c, 0, 62, 75
1, 245793, Note_off_c, 0, 62, 60
1, 245807, Note_on_c, 0, 59, 68
1, 245843, Note_off_c, 0, 59, 64
1, 245865, Note_on_c, 0, 67, 80
1, 245879, Control_c, 0, 64, 80
1, 245894, Control_c, 0, 64, 58
1, 245909, Control_c, 0, 64, 0
1, 245938, Note_on_c, 0, 62, 66
1, 245948, Note_off_c, 0, 67, 57
1, 245989, Note_off_c, 0, 62, 62
1, 246009, Note_on_c, 0, 59, 62
1, 246049, Note_off_c, 0, 59, 61
1, 246073, Note_on_c, 0, 50, 54
1, 246080, Note_on_c, 0, 47, 42
1, 246080, Note_on_c, 0, 67, 69
1, 246147, Note_on_c, 0, 62, 60
1, 246153, Note_off_c, 0, 67, 58
1, 246207, Note_off_c, 0, 62, 62
1, 246214, Note_on_c, 0, 59, 61
1, 246235, Note_off_c, 0, 50, 44
1, 246261, Note_off_c, 0, 59, 62
1, 246263, Note_on_c, 0, 49, 56
1, 246282, Note_on_c, 0, 46, 56
1, 246286, Note_off_c, 0, 47, 44
1, 246288, Note_on_c, 0, 67, 71
1, 246344, Note_on_c, 0, 61, 56
1, 246374, Note_off_c, 0, 67, 60
1, 246396, Note_on_c, 0, 58, 72
1, 246408, Note_off_c, 0, 61, 54
1, 246427, Note_off_c, 0, 58, 68
1, 246451, Note_on_c, 0, 47, 37
1, 246459, Note_off_c, 0, 46, 59
1, 246464, Note_on_c, 0, 50, 58
1, 246464, Note_off_c, 0, 49, 54
1, 246477, Note_off_c, 0, 47, 53
1, 246483, Note_on_c, 0, 67, 72
1, 246499, Note_off_c, 0, 50, 64
1, 246542, Note_on_c, 0, 62, 66
1, 246550, Note_off_c, 0, 67, 59
1, 246601, Note_on_c, 0, 59, 74
1, 246622, Note_off_c, 0, 62, 62
1, 246628, Note_off_c, 0, 59, 67
1, 246679, Note_on_c, 0, 46, 88
1, 246679, Note_on_c, 0, 48, 89
1, 246682, Note_on_c, 0, 43, 83
1, 246688, Note_on_c, 0, 36, 76
1, 246688, Control_c, 0, 64, 43
1, 246702, Control_c, 0, 64, 57
1, 246708, Note_on_c, 0, 64, 84
1, 246717, Control_c, 0, 64, 62
1, 246732, Control_c, 0, 64, 66
1, 246747, Control_c, 0, 64, 72
1, 246762, Control_c, 0, 64, 86
1, 246768, Note_on_c, 0, 70, 77
1, 246777, Control_c, 0, 64, 127
1, 246783, Note_off_c, 0, 64, 60
1, 246828, Note_on_c, 0, 73, 78
1, 246835, Note_off_c, 0, 70, 65
1, 246839, Note_off_c, 0, 36, 58
1, 246860, Note_off_c, 0, 73, 65
1, 246890, Note_off_c, 0, 48, 60
1, 246900, Note_off_c, 0, 43, 62
1, 246920, Note_on_c, 0, 76, 75
1, 246927, Note_off_c, 0, 46, 63
1, 246976, Note_on_c, 0, 82, 71
1, 246990, Note_off_c, 0, 76, 62
1, 247036, Note_on_c, 0, 85, 69
1, 247052, Note_off_c, 0, 82, 63
1, 247087, Control_c, 0, 64, 103
1, 247094, Note_on_c, 0, 88, 83
1, 247102, Note_off_c, 0, 85, 64
1, 247102, Control_c, 0, 64, 72
1, 247117, Control_c, 0, 64, 52
1, 247132, Control_c, 0, 64, 0
1, 247161, Note_on_c, 0, 85, 62
1, 247162, Note_off_c, 0, 88, 63
1, 247233, Note_on_c, 0, 82, 65
1, 247233, Note_off_c, 0, 85, 59
1, 247273, Note_off_c, 0, 82, 62
1, 247304, Note_on_c, 0, 88, 64
1, 247308, Note_on_c, 0, 73, 55
1, 247309, Note_on_c, 0, 70, 52
1, 247379, Note_off_c, 0, 88, 63
1, 247388, Note_on_c, 0, 85, 53
1, 247458, Note_on_c, 0, 82, 54
1, 247461, Note_off_c, 0, 85, 60
1, 247518, Note_off_c, 0, 82, 57
1, 247529, Note_on_c, 0, 88, 60
1, 247543, Note_on_c, 0, 72, 47
1, 247547, Note_off_c, 0, 70, 57
1, 247553, Note_off_c, 0, 73, 28
1, 247564, Note_on_c, 0, 69, 31
1, 247610, Note_off_c, 0, 88, 62
1, 247618, Note_on_c, 0, 84, 60
1, 247677, Note_on_c, 0, 81, 43
1, 247681, Note_off_c, 0, 84, 60
1, 247710, Note_off_c, 0, 81, 65
1, 247722, Note_off_c, 0, 69, 58
1, 247731, Note_on_c, 0, 88, 64
1, 247744, Note_on_c, 0, 70, 61
1, 247750, Note_on_c, 0, 73, 59
1, 247752, Note_off_c, 0, 72, 65
1, 247771, Note_off_c, 0, 88, 66
1, 247773, Note_off_c, 0, 70, 64
1, 247784, Note_off_c, 0, 73, 63
1, 247826, Note_on_c, 0, 85, 28
1, 247839, Note_on_c, 0, 82, 64
1, 247856, Note_off_c, 0, 85, 33
1, 247865, Note_off_c, 0, 82, 67
1, 247916, Note_on_c, 0, 89, 81
1, 247931, Note_on_c, 0, 72, 91
1, 247934, Note_on_c, 0, 69, 75
1, 247936, Note_on_c, 0, 65, 73
1, 247940, Control_c, 0, 64, 37
1, 247955, Control_c, 0, 64, 59
1, 247971, Control_c, 0, 64, 67
1, 247983, Note_on_c, 0, 84, 81
1, 247986, Control_c, 0, 64, 80
1, 248001, Control_c, 0, 64, 127
1, 248016, Note_off_c, 0, 72, 62
1, 248028, Note_off_c, 0, 89, 61
1, 248040, Note_off_c, 0, 65, 60
1, 248053, Note_off_c, 0, 69, 61
1, 248068, Note_on_c, 0, 81, 74
1, 248099, Note_off_c, 0, 84, 65
1, 248133, Note_off_c, 0, 81, 65
1, 248153, Note_on_c, 0, 77, 61
1, 248184, Note_off_c, 0, 77, 66
1, 248235, Note_on_c, 0, 72, 68
1, 248282, Note_off_c, 0, 72, 43
1, 248297, Note_on_c, 0, 69, 76
1, 248332, Note_off_c, 0, 69, 62
1, 248348, Control_c, 0, 64, 82
1, 248354, Note_on_c, 0, 77, 80
1, 248363, Control_c, 0, 64, 63
1, 248378, Control_c, 0, 64, 25
1, 248393, Control_c, 0, 64, 0
1, 248419, Note_on_c, 0, 72, 56
1, 248439, Note_off_c, 0, 77, 56
1, 248479, Note_off_c, 0, 72, 63
1, 248490, Note_on_c, 0, 69, 62
1, 248530, Note_off_c, 0, 69, 62
1, 248545, Note_on_c, 0, 57, 52
1, 248547, Note_on_c, 0, 60, 53
1, 248557, Note_on_c, 0, 77, 73
1, 248626, Note_off_c, 0, 77, 60
1, 248628, Note_on_c, 0, 72, 60
1, 248679, Note_off_c, 0, 72, 61
1, 248689, Note_on_c, 0, 69, 63
1, 248726, Note_off_c, 0, 69, 62
1, 248753, Note_off_c, 0, 60, 30
1, 248754, Note_on_c, 0, 77, 74
1, 248755, Note_off_c, 0, 57, 35
1, 248756, Note_on_c, 0, 59, 57
1, 248756, Note_on_c, 0, 56, 67
1, 248834, Note_on_c, 0, 71, 58
1, 248854, Note_off_c, 0, 77, 60
1, 248874, Note_on_c, 0, 68, 68
1, 248905, Note_off_c, 0, 71, 51
1, 248908, Note_off_c, 0, 68, 66
1, 248952, Note_on_c, 0, 57, 65
1, 248958, Note_on_c, 0, 60, 71
1, 248961, Note_on_c, 0, 77, 77
1, 248977, Note_off_c, 0, 59, 28
1, 248980, Note_off_c, 0, 57, 66
1, 248986, Note_off_c, 0, 56, 54
1, 249013, Note_on_c, 0, 72, 58
1, 249024, Note_off_c, 0, 77, 62
1, 249025, Note_off_c, 0, 60, 63
1, 249050, Note_off_c, 0, 72, 66
1, 249066, Note_on_c, 0, 69, 76
1, 249137, Note_off_c, 0, 69, 58
1, 249147, Note_on_c, 0, 66, 74
1, 249157, Note_on_c, 0, 60, 93
1, 249163, Note_on_c, 0, 54, 78
1, 249164, Note_on_c, 0, 57, 80
1, 249165, Note_on_c, 0, 50, 77
1, 249174, Note_off_c, 0, 66, 68
1, 249201, Control_c, 0, 64, 43
1, 249216, Control_c, 0, 64, 60
1, 249230, Note_on_c, 0, 69, 74
1, 249230, Control_c, 0, 64, 67
1, 249245, Control_c, 0, 64, 78
1, 249260, Control_c, 0, 64, 106
1, 249275, Control_c, 0, 64, 127
1, 249281, Note_off_c, 0, 69, 61
1, 249293, Note_on_c, 0, 72, 79
1, 249355, Note_off_c, 0, 72, 64
1, 249370, Note_off_c, 0, 50, 63
1, 249376, Note_on_c, 0, 78, 79
1, 249399, Note_off_c, 0, 78, 68
1, 249407, Note_off_c, 0, 60, 61
1, 249410, Note_off_c, 0, 57, 63
1, 249421, Note_off_c, 0, 54, 62
1, 249457, Note_on_c, 0, 81, 75
1, 249519, Note_off_c, 0, 81, 63
1, 249539, Note_on_c, 0, 84, 68
1, 249573, Note_on_c, 0, 90, 75
1, 249573, Note_off_c, 0, 84, 68
1, 249594, Control_c, 0, 64, 81
1, 249609, Control_c, 0, 64, 60
1, 249624, Control_c, 0, 64, 0
1, 249659, Note_on_c, 0, 84, 70
1, 249664, Note_off_c, 0, 90, 62
1, 249716, Note_off_c, 0, 84, 62
1, 249720, Note_on_c, 0, 81, 68
1, 249782, Note_on_c, 0, 75, 62
1, 249785, Note_off_c, 0, 81, 63
1, 249786, Note_on_c, 0, 90, 68
1, 249790, Note_on_c, 0, 72, 56
1, 249858, Note_on_c, 0, 84, 55
1, 249871, Note_off_c, 0, 90, 61
1, 249919, Note_on_c, 0, 81, 56
1, 249946, Note_off_c, 0, 84, 62
1, 249970, Note_off_c, 0, 81, 60
1, 249988, Note_on_c, 0, 90, 74
1, 249996, Note_on_c, 0, 74, 71
1, 249999, Note_on_c, 0, 71, 75
1, 250017, Note_off_c, 0, 75, 55
1, 250019, Note_off_c, 0, 72, 32
1, 250069, Note_on_c, 0, 86, 69
1, 250093, Note_off_c, 0, 90, 60
1, 250131, Note_off_c, 0, 86, 63
1, 250132, Note_on_c, 0, 83, 69
1, 250188, Note_off_c, 0, 71, 62
1, 250193, Note_on_c, 0, 72, 74
1, 250196, Note_on_c, 0, 75, 75
1, 250206, Note_on_c, 0, 90, 88
1, 250206, Note_off_c, 0, 83, 62
1, 250208, Note_off_c, 0, 74, 63
1, 250229, Note_off_c, 0, 72, 65
1, 250256, Note_off_c, 0, 75, 62
1, 250271, Note_on_c, 0, 87, 72
1, 250339, Note_off_c, 0, 90, 60
1, 250347, Note_on_c, 0, 84, 72
1, 250355, Note_off_c, 0, 87, 63
1, 250418, Control_c, 0, 64, 46
1, 250422, Note_off_c, 0, 84, 61
1, 250425, Note_on_c, 0, 91, 105
1, 250433, Note_on_c, 0, 71, 85
1, 250433, Note_on_c, 0, 74, 94
1, 250433, Control_c, 0, 64, 69
1, 250437, Note_on_c, 0, 67, 74
1, 250448, Control_c, 0, 64, 93
1, 250463, Control_c, 0, 64, 127
1, 250467, Note_off_c, 0, 67, 64
1, 250473, Note_off_c, 0, 71, 61
1, 250473, Note_off_c, 0, 74, 66
1, 250498, Note_on_c, 0, 86, 78
1, 250540, Note_off_c, 0, 91, 62
1, 250555, Note_off_c, 0, 86, 62
1, 250585, Note_on_c, 0, 83, 68
1, 250643, Note_off_c, 0, 83, 63
1, 250668, Note_on_c, 0, 92, 84
1, 250673, Note_on_c, 0, 80, 84
1, 250718, Note_off_c, 0, 80, 63
1, 250736, Note_on_c, 0, 89, 68
1, 250754, Note_off_c, 0, 92, 61
1, 250774, Control_c, 0, 64, 98
1, 250789, Control_c, 0, 64, 83
1, 250798, Note_off_c, 0, 89, 64
1, 250804, Control_c, 0, 64, 73
1, 250818, Control_c, 0, 64, 66
1, 250819, Note_on_c, 0, 86, 67
1, 250833, Control_c, 0, 64, 60
1, 250848, Control_c, 0, 64, 49
1, 250851, Note_off_c, 0, 86, 64
1, 250862, Control_c, 0, 64, 42
1, 250875, Note_on_c, 0, 77, 78
1, 250877, Control_c, 0, 64, 37
1, 250886, Note_on_c, 0, 89, 79
1, 250892, Control_c, 0, 64, 32
1, 250900, Note_off_c, 0, 77, 68
1, 250907, Control_c, 0, 64, 25
1, 250922, Control_c, 0, 64, 11
1, 250936, Control_c, 0, 64, 0
1, 250946, Note_on_c, 0, 86, 71
1, 250950, Note_off_c, 0, 89, 64
1, 250999, Note_off_c, 0, 86, 62
1, 251021, Note_on_c, 0, 83, 66
1, 251070, Note_off_c, 0, 83, 60
1, 251090, Note_on_c, 0, 74, 71
1, 251096, Note_on_c, 0, 86, 74
1, 251112, Note_off_c, 0, 74, 63
1, 251152, Note_off_c, 0, 86, 64
1, 251159, Note_on_c, 0, 83, 75
1, 251204, Note_off_c, 0, 83, 64
1, 251228, Note_on_c, 0, 80, 72
1, 251259, Note_off_c, 0, 80, 64
1, 251295, Note_on_c, 0, 71, 80
1, 251305, Note_on_c, 0, 83, 85
1, 251335, Note_off_c, 0, 71, 61
1, 251368, Note_on_c, 0, 80, 74
1, 251385, Note_off_c, 0, 83, 62
1, 251427, Note_off_c, 0, 80, 63
1, 251438, Note_on_c, 0, 77, 75
1, 251475, Note_off_c, 0, 77, 60
1, 251499, Note_on_c, 0, 68, 83
1, 251499, Note_on_c, 0, 80, 84
1, 251549, Note_off_c, 0, 68, 64
1, 251565, Note_on_c, 0, 77, 83
1, 251591, Note_off_c, 0, 80, 62
1, 251617, Note_off_c, 0, 77, 65
1, 251636, Note_on_c, 0, 74, 66
1, 251667, Note_off_c, 0, 74, 63
1, 251695, Note_on_c, 0, 65, 81
1, 251704, Note_on_c, 0, 77, 90
1, 251719, Note_off_c, 0, 65, 69
1, 251764, Note_on_c, 0, 74, 74
1, 251788, Note_off_c, 0, 77, 61
1, 251833, Note_off_c, 0, 74, 63
1, 251848, Note_on_c, 0, 71, 76
1, 251890, Note_off_c, 0, 71, 52
1, 251901, Note_on_c, 0, 62, 78
1, 251913, Note_on_c, 0, 74, 89
1, 251951, Note_off_c, 0, 62, 64
1, 251977, Note_off_c, 0, 74, 64
1, 251979, Note_on_c, 0, 71, 78
1, 252026, Note_off_c, 0, 71, 62
1, 252041, Note_on_c, 0, 68, 77
1, 252063, Note_off_c, 0, 68, 69
1, 252100, Note_on_c, 0, 59, 81
1, 252116, Note_on_c, 0, 71, 86
1, 252145, Note_off_c, 0, 59, 63
1, 252182, Note_on_c, 0, 68, 74
1, 252214, Note_off_c, 0, 71, 62
1, 252244, Note_on_c, 0, 65, 74
1, 252259, Note_off_c, 0, 68, 61
1, 252303, Note_off_c, 0, 65, 53
1, 252310, Note_on_c, 0, 71, 89
1, 252311, Note_on_c, 0, 56, 81
1, 252339, Note_off_c, 0, 56, 68
1, 252372, Note_on_c, 0, 68, 76
1, 252403, Note_off_c, 0, 71, 63
1, 252434, Note_on_c, 0, 65, 73
1, 252439, Note_off_c, 0, 68, 62
1, 252485, Note_off_c, 0, 65, 59
1, 252509, Note_on_c, 0, 55, 78
1, 252512, Note_on_c, 0, 72, 91
1, 252532, Note_on_c, 0, 71, 55
1, 252557, Note_off_c, 0, 55, 62
1, 252566, Note_off_c, 0, 71, 38
1, 252587, Note_on_c, 0, 67, 75
1, 252605, Note_off_c, 0, 72, 61
1, 252639, Note_off_c, 0, 67, 63
1, 252658, Note_on_c, 0, 63, 77
1, 252682, Note_off_c, 0, 63, 68
1, 252725, Note_on_c, 0, 43, 88
1, 252738, Note_on_c, 0, 71, 93
1, 252768, Note_off_c, 0, 43, 61
1, 252807, Note_on_c, 0, 65, 80
1, 252833, Note_off_c, 0, 71, 63
1, 252866, Note_on_c, 0, 62, 76
1, 252872, Note_off_c, 0, 65, 63
1, 252919, Note_off_c, 0, 62, 63
1, 252936, Note_on_c, 0, 72, 93
1, 252937, Note_on_c, 0, 48, 65
1, 252961, Note_on_c, 0, 47, 47
1, 252972, Note_off_c, 0, 48, 63
1, 252990, Note_off_c, 0, 47, 35
1, 253001, Note_on_c, 0, 63, 87
1, 253048, Note_off_c, 0, 72, 63
1, 253068, Note_off_c, 0, 63, 65
1, 253079, Note_on_c, 0, 60, 76
1, 253106, Note_off_c, 0, 60, 68
1, 253135, Note_on_c, 0, 43, 80
1, 253154, Note_on_c, 0, 74, 90
1, 253192, Note_off_c, 0, 43, 63
1, 253199, Note_on_c, 0, 65, 70
1, 253243, Note_off_c, 0, 74, 62
1, 253263, Note_off_c, 0, 65, 62
1, 253317, Note_on_c, 0, 62, 47
1, 253341, Note_off_c, 0, 62, 58
1, 253350, Note_on_c, 0, 43, 72
1, 253365, Note_on_c, 0, 75, 93
1, 253412, Note_off_c, 0, 43, 62
1, 253424, Note_on_c, 0, 67, 76
1, 253464, Note_off_c, 0, 75, 63
1, 253490, Note_on_c, 0, 63, 77
1, 253495, Note_off_c, 0, 67, 64
1, 253514, Note_off_c, 0, 63, 69
1, 253562, Note_on_c, 0, 31, 87
1, 253578, Note_on_c, 0, 71, 92
1, 253641, Note_off_c, 0, 31, 55
1, 253648, Note_on_c, 0, 62, 76
1, 253692, Note_off_c, 0, 71, 58
1, 253699, Note_on_c, 0, 59, 69
1, 253706, Note_off_c, 0, 62, 65
1, 253727, Note_off_c, 0, 59, 66
1, 253780, Note_on_c, 0, 60, 102
1, 253782, Note_on_c, 0, 63, 94
1, 253784, Note_on_c, 0, 36, 100
1, 253786, Note_on_c, 0, 72, 95
1, 253886, Control_c, 0, 64, 49
1, 253901, Control_c, 0, 64, 60
1, 253916, Control_c, 0, 64, 65
1, 253931, Control_c, 0, 64, 72
1, 253945, Control_c, 0, 64, 84
1, 253960, Control_c, 0, 64, 117
1, 253968, Note_off_c, 0, 60, 62
1, 253975, Control_c, 0, 64, 127
1, 254009, Note_off_c, 0, 63, 61
1, 254018, Note_off_c, 0, 72, 60
1, 254021, Note_off_c, 0, 36, 59
1, 254056, Control_c, 0, 64, 82
1, 254071, Control_c, 0, 64, 57
1, 254086, Control_c, 0, 64, 0
1, 254238, Note_on_c, 0, 36, 77
1, 254310, Note_off_c, 0, 36, 61
1, 254311, Note_on_c, 0, 35, 70
1, 254373, Note_on_c, 0, 36, 62
1, 254378, Note_off_c, 0, 35, 62
1, 254453, Note_on_c, 0, 38, 64
1, 254453, Note_off_c, 0, 36, 62
1, 254456, Note_on_c, 0, 84, 82
1, 254458, Note_on_c, 0, 79, 72
1, 254463, Note_on_c, 0, 72, 78
1, 254465, Note_on_c, 0, 75, 72
1, 254495, Note_on_c, 0, 36, 53
1, 254497, Note_off_c, 0, 38, 64
1, 254552, Note_off_c, 0, 36, 62
1, 254574, Note_on_c, 0, 38, 73
1, 254632, Note_off_c, 0, 38, 62
1, 254644, Note_on_c, 0, 39, 71
1, 254702, Note_on_c, 0, 38, 69
1, 254705, Note_off_c, 0, 39, 63
1, 254727, Note_off_c, 0, 72, 58
1, 254729, Note_off_c, 0, 79, 61
1, 254740, Note_off_c, 0, 84, 48
1, 254740, Note_off_c, 0, 75, 57
1, 254775, Note_on_c, 0, 39, 75
1, 254787, Note_off_c, 0, 38, 63
1, 254858, Note_on_c, 0, 41, 85
1, 254875, Note_off_c, 0, 39, 63
1, 254879, Note_on_c, 0, 75, 90
1, 254880, Note_on_c, 0, 72, 101
1, 254881, Note_on_c, 0, 79, 80
1, 254881, Note_on_c, 0, 84, 84
1, 254933, Note_on_c, 0, 39, 69
1, 254938, Note_off_c, 0, 41, 62
1, 255003, Note_on_c, 0, 41, 69
1, 255028, Note_off_c, 0, 39, 62
1, 255073, Note_on_c, 0, 43, 97
1, 255077, Note_off_c, 0, 72, 62
1, 255083, Note_off_c, 0, 79, 60
1, 255083, Note_off_c, 0, 84, 50
1, 255099, Note_off_c, 0, 75, 59
1, 255103, Note_off_c, 0, 41, 65
1, 255118, Note_off_c, 0, 43, 63
1, 255284, Note_on_c, 0, 36, 88
1, 255285, Note_on_c, 0, 84, 86
1, 255287, Note_on_c, 0, 75, 85
1, 255290, Note_on_c, 0, 72, 91
1, 255322, Note_off_c, 0, 72, 65
1, 255323, Note_off_c, 0, 36, 59
1, 255324, Note_off_c, 0, 75, 61
1, 255326, Note_off_c, 0, 84, 66
1, 255496, Note_on_c, 0, 43, 69
1, 255532, Note_on_c, 0, 41, 26
1, 255553, Note_on_c, 0, 42, 68
1, 255556, Note_off_c, 0, 43, 62
1, 255586, Note_off_c, 0, 41, 31
1, 255640, Note_on_c, 0, 43, 66
1, 255645, Note_off_c, 0, 42, 63
1, 255689, Note_on_c, 0, 45, 70
1, 255696, Note_off_c, 0, 43, 61
1, 255721, Note_on_c, 0, 74, 71
1, 255721, Note_on_c, 0, 83, 77
1, 255722, Note_on_c, 0, 71, 76
1, 255724, Note_on_c, 0, 79, 67
1, 255743, Note_off_c, 0, 45, 60
1, 255764, Note_on_c, 0, 43, 66
1, 255839, Note_off_c, 0, 43, 63
1, 255845, Note_on_c, 0, 45, 71
1, 255907, Note_off_c, 0, 45, 63
1, 255908, Note_on_c, 0, 47, 73
1, 255967, Note_off_c, 0, 47, 63
1, 255973, Note_on_c, 0, 45, 73
1, 255978, Note_off_c, 0, 79, 57
1, 255986, Note_off_c, 0, 83, 56
1, 256007, Note_off_c, 0, 71, 53
1, 256010, Note_off_c, 0, 74, 58
1, 256049, Note_on_c, 0, 47, 77
1, 256064, Note_off_c, 0, 45, 62
1, 256122, Note_on_c, 0, 48, 86
1, 256128, Note_on_c, 0, 71, 97
1, 256130, Note_on_c, 0, 74, 87
1, 256131, Note_on_c, 0, 83, 89
1, 256131, Note_off_c, 0, 47, 63
1, 256134, Note_on_c, 0, 79, 79
1, 256194, Note_on_c, 0, 47, 78
1, 256194, Note_off_c, 0, 48, 63
1, 256261, Note_on_c, 0, 48, 78
1, 256279, Note_off_c, 0, 47, 62
1, 256289, Note_off_c, 0, 79, 59
1, 256315, Note_off_c, 0, 74, 57
1, 256319, Note_off_c, 0, 83, 57
1, 256331, Note_off_c, 0, 71, 58
1, 256336, Note_on_c, 0, 50, 103
1, 256364, Note_off_c, 0, 48, 63
1, 256376, Note_off_c, 0, 50, 65
1, 256548, Note_on_c, 0, 43, 87
1, 256552, Note_on_c, 0, 71, 95
1, 256552, Note_on_c, 0, 83, 88
1, 256554, Note_on_c, 0, 74, 83
1, 256569, Note_on_c, 0, 79, 59
1, 256583, Note_off_c, 0, 71, 65
1, 256586, Note_off_c, 0, 74, 63
1, 256587, Note_off_c, 0, 79, 65
1, 256594, Note_off_c, 0, 43, 61
1, 256602, Note_off_c, 0, 83, 63
1, 256753, Note_on_c, 0, 48, 76
1, 256808, Note_off_c, 0, 48, 62
1, 256811, Note_on_c, 0, 47, 70
1, 256881, Note_on_c, 0, 48, 67
1, 256891, Note_off_c, 0, 47, 62
1, 256957, Note_on_c, 0, 82, 81
1, 256959, Note_off_c, 0, 48, 63
1, 256960, Note_on_c, 0, 50, 73
1, 256963, Note_on_c, 0, 70, 74
1, 256965, Note_on_c, 0, 76, 63
1, 256969, Note_on_c, 0, 72, 69
1, 256974, Note_on_c, 0, 79, 63
1, 257019, Note_off_c, 0, 50, 62
1, 257030, Note_on_c, 0, 48, 63
1, 257110, Note_on_c, 0, 50, 68
1, 257112, Note_off_c, 0, 48, 63
1, 257177, Note_off_c, 0, 50, 64
1, 257182, Note_on_c, 0, 52, 72
1, 257235, Note_off_c, 0, 79, 33
1, 257241, Note_on_c, 0, 50, 66
1, 257267, Note_off_c, 0, 52, 0
1, 257270, Note_off_c, 0, 76, 56
1, 257280, Note_off_c, 0, 72, 39
1, 257280, Note_off_c, 0, 82, 55
1, 257282, Note_off_c, 0, 70, 47
1, 257304, Poly_aftertouch_c, 0, 52, 127
1, 257310, Note_on_c, 0, 52, 8
1, 257322, Note_off_c, 0, 50, 64
1, 257392, Note_off_c, 0, 52, 64
1, 257395, Note_on_c, 0, 53, 78
1, 257402, Note_on_c, 0, 82, 80
1, 257410, Note_on_c, 0, 72, 74
1, 257413, Note_on_c, 0, 70, 84
1, 257420, Note_on_c, 0, 76, 66
1, 257452, Note_off_c, 0, 53, 63
1, 257453, Note_on_c, 0, 79, 29
1, 257460, Note_on_c, 0, 52, 69
1, 257493, Note_off_c, 0, 79, 47
1, 257535, Note_off_c, 0, 52, 65
1, 257538, Note_on_c, 0, 53, 77
1, 257592, Note_off_c, 0, 76, 60
1, 257592, Note_off_c, 0, 82, 59
1, 257599, Note_off_c, 0, 70, 55
1, 257603, Note_on_c, 0, 55, 87
1, 257607, Note_off_c, 0, 72, 57
1, 257608, Note_off_c, 0, 53, 61
1, 257636, Note_off_c, 0, 55, 64
1, 257809, Note_on_c, 0, 82, 84
1, 257813, Note_on_c, 0, 70, 84
1, 257814, Note_on_c, 0, 48, 86
1, 257816, Note_on_c, 0, 72, 71
1, 257819, Note_on_c, 0, 76, 59
1, 257843, Note_off_c, 0, 48, 67
1, 257851, Note_off_c, 0, 76, 66
1, 257852, Note_off_c, 0, 72, 57
1, 257854, Note_off_c, 0, 70, 62
1, 257866, Note_off_c, 0, 82, 65
1, 258015, Note_on_c, 0, 53, 80
1, 258071, Note_off_c, 0, 53, 63
1, 258072, Note_on_c, 0, 52, 74
1, 258151, Note_on_c, 0, 53, 74
1, 258155, Note_off_c, 0, 52, 65
1, 258215, Note_on_c, 0, 69, 78
1, 258217, Note_on_c, 0, 81, 75
1, 258218, Note_on_c, 0, 72, 68
1, 258219, Note_on_c, 0, 77, 70
1, 258226, Note_off_c, 0, 53, 64
1, 258227, Note_on_c, 0, 55, 74
1, 258286, Note_off_c, 0, 55, 61
1, 258295, Note_on_c, 0, 53, 64
1, 258346, Note_on_c, 0, 55, 66
1, 258351, Note_off_c, 0, 53, 63
1, 258416, Note_off_c, 0, 55, 63
1, 258423, Note_on_c, 0, 57, 70
1, 258471, Note_off_c, 0, 69, 56
1, 258472, Note_off_c, 0, 57, 61
1, 258480, Note_on_c, 0, 55, 70
1, 258482, Note_off_c, 0, 77, 56
1, 258492, Note_off_c, 0, 81, 56
1, 258495, Note_off_c, 0, 72, 62
1, 258522, Note_off_c, 0, 55, 63
1, 258557, Note_on_c, 0, 57, 76
1, 258624, Note_off_c, 0, 57, 63
1, 258629, Note_on_c, 0, 58, 82
1, 258635, Note_on_c, 0, 81, 83
1, 258635, Note_on_c, 0, 77, 83
1, 258636, Note_on_c, 0, 69, 88
1, 258640, Note_on_c, 0, 72, 76
1, 258698, Note_on_c, 0, 57, 78
1, 258704, Note_off_c, 0, 58, 64
1, 258764, Note_on_c, 0, 58, 77
1, 258779, Note_off_c, 0, 57, 64
1, 258820, Note_off_c, 0, 81, 59
1, 258832, Note_on_c, 0, 60, 99
1, 258832, Note_off_c, 0, 69, 60
1, 258840, Note_off_c, 0, 77, 58
1, 258845, Note_off_c, 0, 72, 60
1, 258859, Note_off_c, 0, 58, 63
1, 258877, Note_off_c, 0, 60, 65
1, 259040, Note_on_c, 0, 69, 88
1, 259040, Note_on_c, 0, 81, 83
1, 259042, Note_on_c, 0, 72, 82
1, 259043, Note_on_c, 0, 77, 71
1, 259044, Note_on_c, 0, 53, 90
1, 259072, Note_off_c, 0, 53, 66
1, 259072, Note_off_c, 0, 69, 65
1, 259076, Note_off_c, 0, 72, 62
1, 259077, Note_off_c, 0, 77, 64
1, 259099, Note_off_c, 0, 81, 64
1, 259247, Note_on_c, 0, 57, 83
1, 259313, Note_off_c, 0, 57, 63
1, 259319, Note_on_c, 0, 55, 77
1, 259377, Note_on_c, 0, 57, 71
1, 259389, Note_off_c, 0, 55, 62
1, 259448, Note_on_c, 0, 59, 79
1, 259451, Note_on_c, 0, 66, 87
1, 259451, Note_off_c, 0, 57, 65
1, 259453, Note_on_c, 0, 78, 93
1, 259456, Note_on_c, 0, 72, 78
1, 259458, Note_on_c, 0, 75, 70
1, 259507, Note_off_c, 0, 59, 62
1, 259519, Note_on_c, 0, 57, 74
1, 259586, Note_on_c, 0, 59, 78
1, 259592, Note_off_c, 0, 57, 64
1, 259651, Note_off_c, 0, 59, 64
1, 259657, Note_on_c, 0, 60, 82
1, 259710, Note_off_c, 0, 72, 58
1, 259714, Note_off_c, 0, 75, 59
1, 259715, Note_off_c, 0, 60, 62
1, 259716, Note_off_c, 0, 66, 58
1, 259723, Note_off_c, 0, 78, 55
1, 259728, Note_on_c, 0, 59, 81
1, 259800, Note_off_c, 0, 59, 63
1, 259801, Note_on_c, 0, 60, 78
1, 259853, Note_on_c, 0, 62, 84
1, 259859, Note_on_c, 0, 66, 98
1, 259860, Note_on_c, 0, 78, 96
1, 259863, Note_on_c, 0, 72, 85
1, 259863, Note_off_c, 0, 60, 67
1, 259867, Note_on_c, 0, 75, 75
1, 259919, Note_on_c, 0, 60, 74
1, 259921, Note_off_c, 0, 62, 65
1, 259997, Note_off_c, 0, 60, 65
1, 259997, Note_on_c, 0, 62, 78
1, 260061, Note_off_c, 0, 72, 56
1, 260063, Note_off_c, 0, 66, 51
1, 260066, Note_off_c, 0, 75, 59
1, 260071, Note_on_c, 0, 63, 97
1, 260094, Note_off_c, 0, 78, 45
1, 260102, Note_off_c, 0, 62, 62
1, 260124, Note_off_c, 0, 63, 56
1, 260262, Note_on_c, 0, 72, 85
1, 260263, Note_on_c, 0, 66, 89
1, 260268, Note_on_c, 0, 78, 92
1, 260272, Note_on_c, 0, 57, 100
1, 260300, Note_off_c, 0, 72, 66
1, 260304, Note_off_c, 0, 66, 63
1, 260316, Note_off_c, 0, 57, 66
1, 260333, Note_off_c, 0, 78, 66
1, 260480, Note_on_c, 0, 67, 97
1, 260486, Note_on_c, 0, 79, 89
1, 260487, Note_on_c, 0, 59, 93
1, 260492, Note_on_c, 0, 74, 72
1, 260501, Note_on_c, 0, 73, 67
1, 260518, Note_off_c, 0, 73, 62
1, 260542, Note_off_c, 0, 59, 64
1, 260547, Note_on_c, 0, 57, 77
1, 260623, Note_on_c, 0, 59, 81
1, 260635, Note_off_c, 0, 57, 63
1, 260663, Note_off_c, 0, 79, 61
1, 260668, Note_off_c, 0, 67, 61
1, 260695, Note_off_c, 0, 59, 65
1, 260698, Note_on_c, 0, 60, 78
1, 260704, Note_off_c, 0, 74, 62
1, 260755, Note_off_c, 0, 60, 61
1, 260763, Note_on_c, 0, 59, 77
1, 260833, Note_on_c, 0, 60, 73
1, 260834, Note_off_c, 0, 59, 64
1, 260903, Note_on_c, 0, 71, 100
1, 260904, Note_off_c, 0, 60, 65
1, 260905, Note_on_c, 0, 62, 76
1, 260906, Note_on_c, 0, 74, 90
1, 260906, Note_on_c, 0, 80, 85
1, 260907, Note_on_c, 0, 83, 92
1, 260916, Note_on_c, 0, 77, 81
1, 260960, Note_on_c, 0, 60, 68
1, 260962, Note_off_c, 0, 62, 63
1, 261018, Note_off_c, 0, 60, 65
1, 261031, Note_off_c, 0, 83, 56
1, 261044, Note_on_c, 0, 62, 80
1, 261059, Note_off_c, 0, 71, 54
1, 261062, Note_off_c, 0, 77, 58
1, 261069, Note_off_c, 0, 80, 61
1, 261079, Note_off_c, 0, 74, 59
1, 261109, Note_off_c, 0, 62, 65
1, 261112, Note_on_c, 0, 63, 78
1, 261180, Note_on_c, 0, 62, 72
1, 261181, Note_off_c, 0, 63, 62
1, 261250, Note_on_c, 0, 63, 75
1, 261252, Note_off_c, 0, 62, 64
1, 261310, Note_off_c, 0, 63, 62
1, 261314, Note_on_c, 0, 65, 76
1, 261379, Note_on_c, 0, 63, 71
1, 261381, Note_off_c, 0, 65, 61
1, 261437, Note_on_c, 0, 65, 62
1, 261443, Note_off_c, 0, 63, 62
1, 261496, Note_off_c, 0, 65, 64
1, 261505, Note_on_c, 0, 67, 78
1, 261568, Note_on_c, 0, 65, 73
1, 261577, Note_off_c, 0, 67, 62
1, 261641, Note_off_c, 0, 65, 64
1, 261648, Note_on_c, 0, 67, 84
1, 261695, Control_c, 0, 64, 40
1, 261696, Note_off_c, 0, 67, 61
1, 261707, Note_on_c, 0, 68, 94
1, 261710, Control_c, 0, 64, 52
1, 261724, Control_c, 0, 64, 54
1, 261739, Control_c, 0, 64, 53
1, 261754, Control_c, 0, 64, 51
1, 261768, Control_c, 0, 64, 49
1, 261771, Note_on_c, 0, 70, 83
1, 261773, Note_off_c, 0, 68, 62
1, 261783, Control_c, 0, 64, 46
1, 261798, Control_c, 0, 64, 44
1, 261813, Control_c, 0, 64, 44
1, 261826, Note_off_c, 0, 70, 66
1, 261828, Control_c, 0, 64, 43
1, 261845, Note_on_c, 0, 68, 78
1, 261891, Note_off_c, 0, 68, 62
1, 261902, Control_c, 0, 64, 43
1, 261910, Note_on_c, 0, 67, 77
1, 261917, Control_c, 0, 64, 42
1, 261932, Control_c, 0, 64, 42
1, 261947, Control_c, 0, 64, 41
1, 261951, Note_off_c, 0, 67, 57
1, 261962, Control_c, 0, 64, 41
1, 261963, Note_on_c, 0, 68, 68
1, 261976, Control_c, 0, 64, 40
1, 262033, Note_on_c, 0, 67, 79
1, 262036, Control_c, 0, 64, 40
1, 262037, Note_off_c, 0, 68, 63
1, 262050, Control_c, 0, 64, 39
1, 262063, Note_off_c, 0, 67, 61
1, 262065, Control_c, 0, 64, 39
1, 262080, Control_c, 0, 64, 38
1, 262093, Note_on_c, 0, 65, 78
1, 262095, Control_c, 0, 64, 38
1, 262110, Control_c, 0, 64, 37
1, 262124, Control_c, 0, 64, 36
1, 262139, Control_c, 0, 64, 35
1, 262143, Note_off_c, 0, 65, 62
1, 262154, Control_c, 0, 64, 34
1, 262155, Note_on_c, 0, 67, 79
1, 262168, Control_c, 0, 64, 33
1, 262183, Control_c, 0, 64, 33
1, 262198, Control_c, 0, 64, 32
1, 262212, Note_off_c, 0, 67, 63
1, 262222, Note_on_c, 0, 65, 63
1, 262257, Control_c, 0, 64, 32
1, 262281, Note_off_c, 0, 65, 64
1, 262283, Note_on_c, 0, 63, 74
1, 262310, Control_c, 0, 64, 31
1, 262339, Control_c, 0, 64, 31
1, 262343, Note_off_c, 0, 63, 62
1, 262354, Control_c, 0, 64, 30
1, 262356, Note_on_c, 0, 65, 64
1, 262418, Note_off_c, 0, 65, 61
1, 262420, Note_on_c, 0, 63, 72
1, 262428, Control_c, 0, 64, 31
1, 262443, Control_c, 0, 64, 37
1, 262458, Control_c, 0, 64, 46
1, 262459, Note_on_c, 0, 71, 100
1, 262462, Note_on_c, 0, 74, 84
1, 262463, Note_on_c, 0, 80, 83
1, 262467, Note_on_c, 0, 83, 88
1, 262468, Note_on_c, 0, 77, 75
1, 262472, Control_c, 0, 64, 55
1, 262476, Note_on_c, 0, 62, 73
1, 262478, Note_off_c, 0, 63, 62
1, 262487, Control_c, 0, 64, 59
1, 262502, Control_c, 0, 64, 60
1, 262517, Control_c, 0, 64, 59
1, 262532, Control_c, 0, 64, 58
1, 262543, Note_on_c, 0, 63, 73
1, 262546, Note_off_c, 0, 62, 64
1, 262546, Control_c, 0, 64, 57
1, 262561, Control_c, 0, 64, 57
1, 262576, Control_c, 0, 64, 55
1, 262584, Note_off_c, 0, 71, 59
1, 262587, Note_off_c, 0, 77, 60
1, 262590, Note_off_c, 0, 74, 59
1, 262591, Control_c, 0, 64, 54
1, 262595, Note_off_c, 0, 63, 63
1, 262606, Note_on_c, 0, 62, 50
1, 262641, Note_off_c, 0, 80, 62
1, 262650, Control_c, 0, 64, 53
1, 262656, Note_off_c, 0, 62, 62
1, 262665, Control_c, 0, 64, 51
1, 262666, Note_off_c, 0, 83, 55
1, 262671, Note_on_c, 0, 60, 71
1, 262680, Control_c, 0, 64, 48
1, 262695, Control_c, 0, 64, 46
1, 262710, Control_c, 0, 64, 45
1, 262725, Control_c, 0, 64, 44
1, 262728, Note_off_c, 0, 60, 64
1, 262737, Note_on_c, 0, 62, 73
1, 262769, Control_c, 0, 64, 44
1, 262780, Note_off_c, 0, 62, 57
1, 262794, Note_on_c, 0, 60, 64
1, 262798, Control_c, 0, 64, 43
1, 262813, Control_c, 0, 64, 43
1, 262828, Control_c, 0, 64, 42
1, 262843, Control_c, 0, 64, 42
1, 262850, Note_off_c, 0, 60, 64
1, 262853, Note_on_c, 0, 59, 70
1, 262890, Note_off_c, 0, 59, 61
1, 262902, Control_c, 0, 64, 41
1, 262916, Note_on_c, 0, 60, 71
1, 262946, Control_c, 0, 64, 41
1, 262980, Note_off_c, 0, 60, 64
1, 262990, Note_on_c, 0, 59, 71
1, 263027, Note_off_c, 0, 59, 64
1, 263051, Note_on_c, 0, 56, 73
1, 263072, Control_c, 0, 64, 40
1, 263087, Control_c, 0, 64, 40
1, 263101, Control_c, 0, 64, 39
1, 263106, Note_off_c, 0, 56, 63
1, 263116, Note_on_c, 0, 58, 80
1, 263147, Control_c, 0, 64, 38
1, 263162, Control_c, 0, 64, 37
1, 263176, Control_c, 0, 64, 36
1, 263191, Control_c, 0, 64, 35
1, 263192, Note_on_c, 0, 56, 53
1, 263193, Note_off_c, 0, 58, 58
1, 263206, Note_on_c, 0, 57, 57
1, 263206, Control_c, 0, 64, 36
1, 263220, Control_c, 0, 64, 46
1, 263234, Note_off_c, 0, 57, 65
1, 263235, Control_c, 0, 64, 61
1, 263238, Note_on_c, 0, 75, 101
1, 263238, Note_on_c, 0, 79, 82
1, 263238, Note_on_c, 0, 84, 90
1, 263239, Note_on_c, 0, 72, 102
1, 263240, Note_off_c, 0, 56, 65
1, 263242, Note_on_c, 0, 55, 83
1, 263250, Control_c, 0, 64, 69
1, 263264, Note_on_c, 0, 81, 62
1, 263265, Control_c, 0, 64, 79
1, 263280, Control_c, 0, 64, 84
1, 263281, Note_off_c, 0, 81, 67
1, 263294, Control_c, 0, 64, 81
1, 263309, Control_c, 0, 64, 76
1, 263314, Note_on_c, 0, 56, 80
1, 263315, Note_off_c, 0, 55, 63
1, 263324, Control_c, 0, 64, 69
1, 263330, Note_off_c, 0, 84, 64
1, 263339, Control_c, 0, 64, 64
1, 263354, Control_c, 0, 64, 57
1, 263357, Note_off_c, 0, 79, 64
1, 263369, Control_c, 0, 64, 48
1, 263372, Note_off_c, 0, 56, 64
1, 263379, Note_on_c, 0, 55, 78
1, 263384, Control_c, 0, 64, 43
1, 263395, Note_off_c, 0, 72, 60
1, 263395, Note_off_c, 0, 75, 59
1, 263398, Control_c, 0, 64, 42
1, 263428, Control_c, 0, 64, 41
1, 263443, Control_c, 0, 64, 41
1, 263449, Note_off_c, 0, 55, 63
1, 263456, Note_on_c, 0, 53, 81
1, 263458, Control_c, 0, 64, 40
1, 263473, Control_c, 0, 64, 39
1, 263487, Control_c, 0, 64, 39
1, 263502, Control_c, 0, 64, 38
1, 263517, Control_c, 0, 64, 36
1, 263518, Note_off_c, 0, 53, 63
1, 263532, Control_c, 0, 64, 35
1, 263542, Note_on_c, 0, 55, 70
1, 263547, Control_c, 0, 64, 34
1, 263561, Control_c, 0, 64, 34
1, 263583, Note_off_c, 0, 55, 61
1, 263584, Note_on_c, 0, 53, 71
1, 263606, Control_c, 0, 64, 33
1, 263649, Note_on_c, 0, 51, 74
1, 263652, Note_off_c, 0, 53, 64
1, 263680, Control_c, 0, 64, 33
1, 263694, Control_c, 0, 64, 32
1, 263709, Control_c, 0, 64, 31
1, 263714, Note_off_c, 0, 51, 64
1, 263723, Note_on_c, 0, 53, 71
1, 263792, Note_on_c, 0, 51, 75
1, 263794, Note_off_c, 0, 53, 64
1, 263847, Note_off_c, 0, 51, 63
1, 263850, Note_on_c, 0, 50, 68
1, 263850, Control_c, 0, 64, 31
1, 263880, Control_c, 0, 64, 30
1, 263915, Note_on_c, 0, 51, 77
1, 263917, Note_off_c, 0, 50, 64
1, 263940, Control_c, 0, 64, 31
1, 263974, Note_on_c, 0, 50, 65
1, 263974, Note_off_c, 0, 51, 66
1, 263984, Control_c, 0, 64, 31
1, 263999, Control_c, 0, 64, 30
1, 264011, Note_on_c, 0, 48, 88
1, 264013, Note_on_c, 0, 60, 90
1, 264014, Control_c, 0, 64, 0
1, 264023, Note_off_c, 0, 50, 63
1, 264035, Note_off_c, 0, 48, 69
1, 264060, Note_off_c, 0, 60, 65
1, 264071, Note_on_c, 0, 59, 78
1, 264135, Note_off_c, 0, 59, 63
1, 264137, Note_on_c, 0, 60, 78
1, 264198, Note_off_c, 0, 60, 62
1, 264207, Note_on_c, 0, 62, 81
1, 264227, Note_on_c, 0, 48, 94
1, 264235, Note_on_c, 0, 36, 76
1, 264241, Note_on_c, 0, 43, 65
1, 264244, Note_off_c, 0, 62, 61
1, 264245, Note_on_c, 0, 39, 71
1, 264275, Note_on_c, 0, 60, 79
1, 264339, Note_off_c, 0, 60, 66
1, 264346, Note_on_c, 0, 62, 78
1, 264399, Note_off_c, 0, 62, 63
1, 264402, Note_on_c, 0, 63, 77
1, 264414, Control_c, 0, 64, 28
1, 264429, Control_c, 0, 64, 53
1, 264442, Note_off_c, 0, 63, 63
1, 264443, Control_c, 0, 64, 65
1, 264458, Control_c, 0, 64, 72
1, 264467, Note_on_c, 0, 62, 70
1, 264473, Control_c, 0, 64, 84
1, 264488, Control_c, 0, 64, 100
1, 264491, Note_off_c, 0, 48, 56
1, 264498, Note_off_c, 0, 39, 59
1, 264503, Control_c, 0, 64, 122
1, 264507, Note_off_c, 0, 36, 53
1, 264511, Note_off_c, 0, 43, 57
1, 264517, Control_c, 0, 64, 127
1, 264523, Note_off_c, 0, 62, 65
1, 264545, Note_on_c, 0, 63, 69
1, 264593, Note_off_c, 0, 63, 54
1, 264598, Control_c, 0, 64, 125
1, 264613, Control_c, 0, 64, 78
1, 264619, Note_on_c, 0, 65, 78
1, 264622, Note_on_c, 0, 48, 91
1, 264624, Note_on_c, 0, 43, 75
1, 264628, Control_c, 0, 64, 48
1, 264629, Note_on_c, 0, 39, 73
1, 264633, Note_on_c, 0, 36, 77
1, 264642, Control_c, 0, 64, 0
1, 264671, Poly_aftertouch_c, 0, 66, 0
1, 264676, Note_off_c, 0, 65, 61
1, 264683, Note_on_c, 0, 63, 81
1, 264755, Note_on_c, 0, 65, 81
1, 264762, Note_off_c, 0, 63, 62
1, 264824, Note_on_c, 0, 67, 96
1, 264826, Note_off_c, 0, 65, 66
1, 264838, Note_off_c, 0, 48, 60
1, 264842, Note_off_c, 0, 36, 62
1, 264842, Note_off_c, 0, 39, 65
1, 264847, Note_off_c, 0, 43, 64
1, 264857, Note_off_c, 0, 67, 62
1, 265027, Note_on_c, 0, 39, 80
1, 265027, Note_on_c, 0, 60, 87
1, 265033, Note_on_c, 0, 48, 80
1, 265034, Note_on_c, 0, 36, 76
1, 265041, Note_on_c, 0, 43, 52
1, 265058, Note_off_c, 0, 48, 67
1, 265062, Note_off_c, 0, 39, 65
1, 265065, Note_off_c, 0, 36, 66
1, 265069, Note_off_c, 0, 60, 65
1, 265073, Note_off_c, 0, 43, 35
1, 265228, Note_on_c, 0, 67, 82
1, 265260, Note_off_c, 0, 67, 68
1, 265273, Note_on_c, 0, 66, 77
1, 265334, Note_off_c, 0, 66, 64
1, 265354, Note_on_c, 0, 67, 76
1, 265398, Note_off_c, 0, 67, 57
1, 265411, Note_on_c, 0, 69, 84
1, 265434, Note_on_c, 0, 43, 81
1, 265437, Note_on_c, 0, 31, 74
1, 265440, Note_on_c, 0, 35, 70
1, 265441, Note_on_c, 0, 38, 71
1, 265465, Note_off_c, 0, 69, 63
1, 265480, Note_on_c, 0, 67, 77
1, 265539, Note_off_c, 0, 67, 58
1, 265545, Note_on_c, 0, 69, 79
1, 265601, Control_c, 0, 64, 9
1, 265609, Note_off_c, 0, 69, 61
1, 265610, Note_on_c, 0, 71, 91
1, 265615, Control_c, 0, 64, 45
1, 265630, Control_c, 0, 64, 56
1, 265634, Note_off_c, 0, 43, 63
1, 265642, Note_off_c, 0, 35, 61
1, 265644, Note_off_c, 0, 38, 61
1, 265645, Note_off_c, 0, 31, 59
1, 265645, Control_c, 0, 64, 57
1, 265646, Note_off_c, 0, 71, 60
1, 265660, Control_c, 0, 64, 56
1, 265674, Note_on_c, 0, 69, 79
1, 265689, Control_c, 0, 64, 55
1, 265741, Note_off_c, 0, 69, 64
1, 265745, Note_on_c, 0, 71, 80
1, 265763, Control_c, 0, 64, 55
1, 265778, Control_c, 0, 64, 51
1, 265793, Control_c, 0, 64, 38
1, 265802, Note_off_c, 0, 71, 62
1, 265806, Note_on_c, 0, 72, 82
1, 265807, Control_c, 0, 64, 0
1, 265810, Note_on_c, 0, 43, 86
1, 265814, Note_on_c, 0, 35, 74
1, 265815, Note_on_c, 0, 31, 75
1, 265821, Note_on_c, 0, 38, 70
1, 265854, Note_off_c, 0, 72, 64
1, 265885, Note_on_c, 0, 71, 84
1, 265947, Note_on_c, 0, 72, 76
1, 265949, Note_off_c, 0, 71, 61
1, 265971, Control_c, 0, 64, 24
1, 265986, Control_c, 0, 64, 45
1, 265992, Note_on_c, 0, 74, 102
1, 265997, Note_off_c, 0, 72, 67
1, 266001, Control_c, 0, 64, 47
1, 266010, Note_off_c, 0, 43, 63
1, 266011, Note_off_c, 0, 74, 69
1, 266013, Note_off_c, 0, 31, 63
1, 266013, Note_off_c, 0, 35, 61
1, 266015, Control_c, 0, 64, 44
1, 266037, Control_c, 0, 64, 39
1, 266045, Note_off_c, 0, 38, 57
1, 266052, Control_c, 0, 64, 34
1, 266067, Control_c, 0, 64, 30
1, 266082, Control_c, 0, 64, 27
1, 266096, Control_c, 0, 64, 26
1, 266200, Control_c, 0, 64, 24
1, 266203, Note_on_c, 0, 67, 83
1, 266209, Note_on_c, 0, 35, 71
1, 266210, Note_on_c, 0, 31, 70
1, 266210, Note_on_c, 0, 43, 87
1, 266215, Control_c, 0, 64, 19
1, 266215, Note_on_c, 0, 38, 59
1, 266230, Control_c, 0, 64, 0
1, 266235, Note_off_c, 0, 67, 65
1, 266236, Note_off_c, 0, 35, 63
1, 266239, Note_off_c, 0, 31, 63
1, 266241, Note_off_c, 0, 43, 69
1, 266248, Note_off_c, 0, 38, 63
1, 266406, Note_on_c, 0, 72, 79
1, 266441, Note_off_c, 0, 72, 62
1, 266458, Note_on_c, 0, 71, 71
1, 266508, Note_off_c, 0, 71, 51
1, 266529, Note_on_c, 0, 72, 70
1, 266564, Note_off_c, 0, 72, 62
1, 266584, Note_on_c, 0, 74, 73
1, 266607, Note_on_c, 0, 55, 68
1, 266609, Note_off_c, 0, 74, 67
1, 266612, Note_on_c, 0, 46, 61
1, 266612, Note_on_c, 0, 52, 63
1, 266619, Note_on_c, 0, 48, 59
1, 266651, Note_on_c, 0, 72, 75
1, 266708, Note_off_c, 0, 72, 65
1, 266710, Note_on_c, 0, 74, 75
1, 266770, Note_off_c, 0, 74, 63
1, 266773, Note_on_c, 0, 76, 77
1, 266808, Note_off_c, 0, 55, 64
1, 266812, Note_off_c, 0, 48, 61
1, 266812, Note_off_c, 0, 76, 64
1, 266816, Note_off_c, 0, 52, 62
1, 266821, Note_off_c, 0, 46, 59
1, 266844, Note_on_c, 0, 74, 74
1, 266904, Note_on_c, 0, 76, 83
1, 266905, Note_off_c, 0, 74, 64
1, 266960, Note_off_c, 0, 76, 64
1, 266964, Note_on_c, 0, 77, 70
1, 266975, Note_on_c, 0, 52, 66
1, 266977, Note_on_c, 0, 55, 77
1, 266985, Note_on_c, 0, 46, 66
1, 266986, Note_on_c, 0, 48, 63
1, 267014, Note_off_c, 0, 77, 62
1, 267032, Note_on_c, 0, 76, 82
1, 267096, Note_on_c, 0, 77, 79
1, 267097, Note_off_c, 0, 76, 63
1, 267154, Note_on_c, 0, 79, 97
1, 267155, Note_off_c, 0, 77, 67
1, 267167, Note_off_c, 0, 48, 63
1, 267170, Note_off_c, 0, 46, 62
1, 267171, Note_off_c, 0, 55, 64
1, 267175, Note_off_c, 0, 79, 68
1, 267185, Note_off_c, 0, 52, 64
1, 267350, Note_on_c, 0, 72, 84
1, 267356, Note_on_c, 0, 46, 73
1, 267357, Note_on_c, 0, 55, 73
1, 267358, Note_on_c, 0, 52, 68
1, 267360, Note_on_c, 0, 48, 70
1, 267384, Note_off_c, 0, 52, 67
1, 267384, Note_off_c, 0, 55, 66
1, 267385, Note_off_c, 0, 48, 66
1, 267387, Note_off_c, 0, 72, 65
1, 267390, Note_off_c, 0, 46, 66
1, 267545, Note_on_c, 0, 77, 80
1, 267591, Note_off_c, 0, 77, 60
1, 267594, Control_c, 0, 64, 18
1, 267600, Note_on_c, 0, 76, 78
1, 267609, Control_c, 0, 64, 27
1, 267624, Control_c, 0, 64, 30
1, 267639, Control_c, 0, 64, 32
1, 267654, Control_c, 0, 64, 34
1, 267664, Note_off_c, 0, 76, 62
1, 267670, Note_on_c, 0, 77, 81
1, 267683, Control_c, 0, 64, 34
1, 267713, Control_c, 0, 64, 34
1, 267726, Note_off_c, 0, 77, 62
1, 267728, Control_c, 0, 64, 30
1, 267734, Note_on_c, 0, 79, 81
1, 267742, Control_c, 0, 64, 22
1, 267757, Note_on_c, 0, 57, 75
1, 267757, Control_c, 0, 64, 0
1, 267758, Note_on_c, 0, 53, 70
1, 267765, Note_off_c, 0, 79, 68
1, 267765, Note_on_c, 0, 45, 67
1, 267767, Note_on_c, 0, 48, 63
1, 267808, Note_on_c, 0, 77, 78
1, 267846, Control_c, 0, 64, 12
1, 267861, Control_c, 0, 64, 14
1, 267867, Note_on_c, 0, 79, 77
1, 267868, Note_off_c, 0, 77, 63
1, 267876, Control_c, 0, 64, 15
1, 267891, Control_c, 0, 64, 16
1, 267920, Control_c, 0, 64, 17
1, 267928, Note_off_c, 0, 79, 65
1, 267929, Note_on_c, 0, 81, 82
1, 267936, Control_c, 0, 64, 18
1, 267951, Control_c, 0, 64, 19
1, 267959, Note_off_c, 0, 81, 63
1, 267965, Control_c, 0, 64, 20
1, 267980, Control_c, 0, 64, 21
1, 267983, Note_off_c, 0, 57, 61
1, 267989, Note_off_c, 0, 48, 61
1, 267995, Control_c, 0, 64, 22
1, 267998, Note_on_c, 0, 79, 81
1, 267998, Note_off_c, 0, 45, 57
1, 268000, Note_off_c, 0, 53, 58
1, 268025, Control_c, 0, 64, 23
1, 268040, Control_c, 0, 64, 23
1, 268062, Note_off_c, 0, 79, 66
1, 268066, Note_on_c, 0, 81, 78
1, 268123, Note_off_c, 0, 81, 67
1, 268123, Note_on_c, 0, 82, 82
1, 268129, Note_on_c, 0, 53, 78
1, 268132, Note_on_c, 0, 57, 78
1, 268138, Note_on_c, 0, 45, 67
1, 268140, Note_on_c, 0, 48, 68
1, 268187, Note_off_c, 0, 82, 64
1, 268193, Note_on_c, 0, 81, 77
1, 268255, Note_on_c, 0, 82, 81
1, 268284, Note_off_c, 0, 81, 64
1, 268323, Note_on_c, 0, 84, 100
1, 268334, Note_off_c, 0, 82, 66
1, 268343, Note_off_c, 0, 48, 63
1, 268344, Control_c, 0, 64, 22
1, 268345, Note_off_c, 0, 57, 63
1, 268350, Note_off_c, 0, 45, 60
1, 268353, Note_off_c, 0, 53, 63
1, 268356, Note_off_c, 0, 84, 67
1, 268358, Control_c, 0, 64, 19
1, 268373, Control_c, 0, 64, 17
1, 268388, Control_c, 0, 64, 15
1, 268403, Control_c, 0, 64, 13
1, 268447, Control_c, 0, 64, 12
1, 268525, Note_on_c, 0, 53, 75
1, 268525, Note_on_c, 0, 77, 86
1, 268526, Note_on_c, 0, 57, 78
1, 268527, Note_on_c, 0, 45, 75
1, 268534, Note_on_c, 0, 48, 63
1, 268555, Note_off_c, 0, 53, 68
1, 268558, Note_off_c, 0, 57, 64
1, 268560, Note_off_c, 0, 48, 65
1, 268561, Note_off_c, 0, 45, 67
1, 268565, Control_c, 0, 64, 11
1, 268573, Note_off_c, 0, 77, 65
1, 268711, Note_on_c, 0, 78, 82
1, 268729, Control_c, 0, 64, 18
1, 268744, Control_c, 0, 64, 25
1, 268759, Control_c, 0, 64, 33
1, 268774, Control_c, 0, 64, 39
1, 268780, Note_off_c, 0, 78, 61
1, 268786, Note_on_c, 0, 77, 79
1, 268788, Control_c, 0, 64, 44
1, 268803, Control_c, 0, 64, 47
1, 268818, Control_c, 0, 64, 49
1, 268833, Control_c, 0, 64, 50
1, 268848, Control_c, 0, 64, 50
1, 268849, Note_off_c, 0, 77, 62
1, 268862, Note_on_c, 0, 78, 62
1, 268862, Control_c, 0, 64, 51
1, 268877, Control_c, 0, 64, 51
1, 268889, Note_off_c, 0, 78, 63
1, 268895, Note_on_c, 0, 79, 77
1, 268907, Control_c, 0, 64, 50
1, 268921, Note_on_c, 0, 60, 80
1, 268922, Control_c, 0, 64, 45
1, 268922, Note_on_c, 0, 57, 74
1, 268924, Note_on_c, 0, 54, 72
1, 268932, Note_on_c, 0, 50, 68
1, 268937, Control_c, 0, 64, 34
1, 268952, Control_c, 0, 64, 22
1, 268959, Note_on_c, 0, 78, 83
1, 268960, Note_off_c, 0, 79, 64
1, 268981, Control_c, 0, 64, 24
1, 268996, Control_c, 0, 64, 32
1, 269011, Control_c, 0, 64, 41
1, 269025, Note_off_c, 0, 78, 63
1, 269026, Control_c, 0, 64, 48
1, 269034, Note_on_c, 0, 79, 78
1, 269047, Control_c, 0, 64, 52
1, 269088, Note_off_c, 0, 79, 65
1, 269092, Control_c, 0, 64, 52
1, 269099, Note_on_c, 0, 81, 80
1, 269107, Control_c, 0, 64, 51
1, 269137, Control_c, 0, 64, 50
1, 269158, Note_off_c, 0, 81, 65
1, 269158, Note_off_c, 0, 57, 60
1, 269161, Note_on_c, 0, 80, 79
1, 269165, Note_off_c, 0, 60, 56
1, 269177, Note_off_c, 0, 50, 58
1, 269178, Note_off_c, 0, 54, 59
1, 269211, Control_c, 0, 64, 50
1, 269215, Note_off_c, 0, 80, 64
1, 269224, Note_on_c, 0, 81, 80
1, 269226, Control_c, 0, 64, 49
1, 269240, Control_c, 0, 64, 48
1, 269255, Control_c, 0, 64, 46
1, 269268, Note_off_c, 0, 81, 56
1, 269270, Control_c, 0, 64, 41
1, 269285, Note_on_c, 0, 83, 88
1, 269285, Control_c, 0, 64, 32
1, 269292, Note_on_c, 0, 60, 85
1, 269293, Note_on_c, 0, 57, 73
1, 269297, Note_on_c, 0, 54, 78
1, 269298, Note_on_c, 0, 50, 71
1, 269300, Control_c, 0, 64, 20
1, 269314, Control_c, 0, 64, 0
1, 269344, Note_off_c, 0, 83, 65
1, 269360, Note_on_c, 0, 81, 87
1, 269427, Note_on_c, 0, 83, 86
1, 269445, Note_off_c, 0, 81, 64
1, 269483, Note_on_c, 0, 84, 100
1, 269491, Note_off_c, 0, 50, 61
1, 269494, Note_off_c, 0, 83, 66
1, 269503, Note_off_c, 0, 60, 60
1, 269510, Note_off_c, 0, 57, 62
1, 269514, Note_off_c, 0, 84, 67
1, 269518, Note_off_c, 0, 54, 60
1, 269682, Note_on_c, 0, 78, 91
1, 269690, Note_on_c, 0, 54, 74
1, 269691, Note_on_c, 0, 60, 82
1, 269697, Note_on_c, 0, 50, 68
1, 269697, Note_on_c, 0, 57, 71
1, 269718, Note_off_c, 0, 60, 66
1, 269721, Note_off_c, 0, 54, 69
1, 269722, Note_off_c, 0, 57, 68
1, 269726, Note_off_c, 0, 78, 65
1, 269728, Note_off_c, 0, 50, 64
1, 269888, Note_on_c, 0, 79, 85
1, 269933, Note_off_c, 0, 79, 65
1, 269942, Note_on_c, 0, 81, 71
1, 269995, Note_off_c, 0, 81, 51
1, 270016, Note_on_c, 0, 79, 70
1, 270065, Note_off_c, 0, 79, 58
1, 270082, Note_on_c, 0, 77, 75
1, 270085, Note_on_c, 0, 65, 70
1, 270090, Note_on_c, 0, 62, 64
1, 270091, Note_on_c, 0, 59, 63
1, 270094, Note_on_c, 0, 55, 62
1, 270138, Note_off_c, 0, 77, 63
1, 270142, Note_on_c, 0, 79, 68
1, 270167, Control_c, 0, 64, 18
1, 270181, Control_c, 0, 64, 41
1, 270183, Note_off_c, 0, 79, 64
1, 270196, Control_c, 0, 64, 53
1, 270203, Note_on_c, 0, 77, 75
1, 270211, Control_c, 0, 64, 59
1, 270226, Control_c, 0, 64, 61
1, 270241, Control_c, 0, 64, 62
1, 270245, Note_off_c, 0, 77, 58
1, 270255, Control_c, 0, 64, 63
1, 270278, Note_on_c, 0, 80, 81
1, 270297, Note_off_c, 0, 65, 58
1, 270300, Note_off_c, 0, 59, 60
1, 270314, Note_off_c, 0, 62, 58
1, 270317, Note_off_c, 0, 55, 59
1, 270331, Control_c, 0, 64, 62
1, 270336, Note_off_c, 0, 80, 64
1, 270340, Note_on_c, 0, 82, 85
1, 270360, Control_c, 0, 64, 62
1, 270375, Control_c, 0, 64, 61
1, 270390, Control_c, 0, 64, 58
1, 270393, Note_off_c, 0, 82, 67
1, 270405, Control_c, 0, 64, 49
1, 270412, Note_on_c, 0, 80, 81
1, 270420, Control_c, 0, 64, 29
1, 270434, Control_c, 0, 64, 0
1, 270477, Note_off_c, 0, 80, 64
1, 270478, Note_on_c, 0, 79, 82
1, 270485, Note_on_c, 0, 59, 76
1, 270486, Note_on_c, 0, 65, 83
1, 270490, Note_on_c, 0, 62, 76
1, 270498, Note_on_c, 0, 55, 66
1, 270553, Note_off_c, 0, 79, 63
1, 270556, Note_on_c, 0, 80, 80
1, 270560, Control_c, 0, 64, 33
1, 270575, Control_c, 0, 64, 51
1, 270590, Control_c, 0, 64, 61
1, 270605, Control_c, 0, 64, 64
1, 270620, Control_c, 0, 64, 66
1, 270621, Note_on_c, 0, 79, 73
1, 270632, Note_off_c, 0, 80, 65
1, 270634, Control_c, 0, 64, 69
1, 270649, Control_c, 0, 64, 71
1, 270664, Control_c, 0, 64, 74
1, 270678, Control_c, 0, 64, 75
1, 270680, Note_off_c, 0, 79, 65
1, 270693, Note_on_c, 0, 77, 86
1, 270693, Control_c, 0, 64, 74
1, 270698, Note_off_c, 0, 59, 62
1, 270699, Note_off_c, 0, 65, 61
1, 270703, Note_off_c, 0, 55, 60
1, 270708, Note_off_c, 0, 62, 62
1, 270708, Control_c, 0, 64, 69
1, 270723, Control_c, 0, 64, 62
1, 270738, Control_c, 0, 64, 40
1, 270746, Note_off_c, 0, 77, 60
1, 270752, Control_c, 0, 64, 0
1, 270758, Note_on_c, 0, 79, 74
1, 270809, Note_off_c, 0, 79, 65
1, 270832, Note_on_c, 0, 77, 83
1, 270872, Control_c, 0, 64, 26
1, 270883, Note_on_c, 0, 65, 87
1, 270886, Control_c, 0, 64, 55
1, 270887, Note_on_c, 0, 62, 77
1, 270888, Note_on_c, 0, 59, 77
1, 270891, Note_on_c, 0, 75, 83
1, 270894, Note_on_c, 0, 55, 74
1, 270899, Note_off_c, 0, 77, 63
1, 270901, Control_c, 0, 64, 65
1, 270908, Note_off_c, 0, 65, 67
1, 270911, Note_off_c, 0, 62, 69
1, 270916, Control_c, 0, 64, 74
1, 270916, Note_off_c, 0, 59, 68
1, 270931, Control_c, 0, 64, 92
1, 270943, Note_off_c, 0, 55, 63
1, 270946, Control_c, 0, 64, 127
1, 270949, Note_on_c, 0, 77, 77
1, 270957, Note_off_c, 0, 75, 63
1, 271030, Note_on_c, 0, 75, 87
1, 271031, Note_off_c, 0, 77, 63
1, 271089, Note_on_c, 0, 74, 89
1, 271098, Note_off_c, 0, 75, 63
1, 271108, Control_c, 0, 64, 119
1, 271124, Control_c, 0, 64, 73
1, 271138, Note_off_c, 0, 74, 59
1, 271139, Control_c, 0, 64, 40
1, 271154, Control_c, 0, 64, 0
1, 271155, Note_on_c, 0, 75, 80
1, 271225, Note_on_c, 0, 74, 86
1, 271229, Note_off_c, 0, 75, 64
1, 271298, Note_on_c, 0, 55, 93
1, 271298, Note_on_c, 0, 72, 91
1, 271301, Note_off_c, 0, 74, 63
1, 271304, Note_on_c, 0, 50, 77
1, 271304, Note_on_c, 0, 43, 75
1, 271306, Note_on_c, 0, 47, 74
1, 271324, Control_c, 0, 64, 51
1, 271339, Control_c, 0, 64, 61
1, 271351, Note_off_c, 0, 72, 60
1, 271354, Control_c, 0, 64, 64
1, 271366, Note_on_c, 0, 74, 79
1, 271369, Control_c, 0, 64, 67
1, 271383, Control_c, 0, 64, 72
1, 271398, Control_c, 0, 64, 80
1, 271413, Control_c, 0, 64, 90
1, 271427, Control_c, 0, 64, 106
1, 271440, Note_on_c, 0, 72, 86
1, 271440, Note_off_c, 0, 74, 64
1, 271442, Control_c, 0, 64, 117
1, 271457, Control_c, 0, 64, 115
1, 271472, Control_c, 0, 64, 107
1, 271487, Control_c, 0, 64, 93
1, 271501, Note_on_c, 0, 71, 86
1, 271501, Note_off_c, 0, 72, 64
1, 271501, Control_c, 0, 64, 77
1, 271515, Note_off_c, 0, 43, 62
1, 271515, Note_off_c, 0, 55, 61
1, 271516, Control_c, 0, 64, 60
1, 271525, Note_off_c, 0, 47, 61
1, 271531, Control_c, 0, 64, 0
1, 271537, Note_off_c, 0, 50, 60
1, 271546, Note_off_c, 0, 71, 61
1, 271568, Note_on_c, 0, 72, 80
1, 271620, Note_off_c, 0, 72, 65
1, 271631, Note_on_c, 0, 71, 91
1, 271697, Note_on_c, 0, 68, 84
1, 271697, Note_off_c, 0, 71, 64
1, 271702, Note_on_c, 0, 55, 89
1, 271707, Note_on_c, 0, 47, 75
1, 271709, Note_on_c, 0, 50, 77
1, 271712, Note_on_c, 0, 43, 73
1, 271739, Control_c, 0, 64, 25
1, 271752, Note_off_c, 0, 68, 63
1, 271753, Note_on_c, 0, 70, 84
1, 271754, Control_c, 0, 64, 54
1, 271769, Control_c, 0, 64, 61
1, 271783, Control_c, 0, 64, 65
1, 271798, Control_c, 0, 64, 72
1, 271808, Note_off_c, 0, 70, 64
1, 271813, Control_c, 0, 64, 83
1, 271817, Note_on_c, 0, 68, 86
1, 271827, Control_c, 0, 64, 108
1, 271842, Control_c, 0, 64, 127
1, 271884, Note_on_c, 0, 67, 84
1, 271886, Note_off_c, 0, 47, 58
1, 271888, Note_off_c, 0, 68, 62
1, 271889, Note_off_c, 0, 50, 60
1, 271894, Note_off_c, 0, 55, 50
1, 271905, Note_off_c, 0, 43, 59
1, 271954, Note_off_c, 0, 67, 52
1, 271960, Note_on_c, 0, 68, 90
1, 272005, Note_off_c, 0, 68, 66
1, 272016, Note_on_c, 0, 67, 71
1, 272045, Note_off_c, 0, 67, 70
1, 272067, Note_on_c, 0, 55, 82
1, 272073, Note_on_c, 0, 47, 69
1, 272078, Note_on_c, 0, 43, 75
1, 272097, Note_off_c, 0, 55, 67
1, 272098, Note_off_c, 0, 47, 66
1, 272122, Note_on_c, 0, 83, 99
1, 272122, Note_off_c, 0, 43, 62
1, 272188, Note_on_c, 0, 84, 78
1, 272188, Note_off_c, 0, 83, 60
1, 272234, Note_off_c, 0, 84, 68
1, 272246, Note_on_c, 0, 83, 75
1, 272269, Note_off_c, 0, 83, 68
1, 272318, Note_on_c, 0, 84, 109
1, 272324, Note_on_c, 0, 47, 89
1, 272324, Note_on_c, 0, 41, 73
1, 272324, Control_c, 0, 64, 79
1, 272333, Note_on_c, 0, 37, 67
1, 272339, Control_c, 0, 64, 58
1, 272343, Note_on_c, 0, 35, 62
1, 272354, Control_c, 0, 64, 0
1, 272362, Note_off_c, 0, 41, 64
1, 272377, Note_off_c, 0, 37, 63
1, 272379, Note_off_c, 0, 35, 61
1, 272400, Note_on_c, 0, 86, 84
1, 272404, Note_off_c, 0, 84, 62
1, 272454, Note_on_c, 0, 35, 52
1, 272454, Note_on_c, 0, 36, 46
1, 272454, Note_off_c, 0, 47, 57
1, 272469, Note_on_c, 0, 84, 90
1, 272473, Note_on_c, 0, 39, 34
1, 272473, Note_off_c, 0, 86, 66
1, 272485, Note_off_c, 0, 35, 58
1, 272507, Note_on_c, 0, 43, 59
1, 272528, Note_off_c, 0, 84, 58
1, 272544, Note_on_c, 0, 48, 69
1, 272547, Control_c, 0, 64, 29
1, 272553, Note_on_c, 0, 79, 78
1, 272562, Control_c, 0, 64, 45
1, 272576, Control_c, 0, 64, 54
1, 272591, Control_c, 0, 64, 57
1, 272606, Control_c, 0, 64, 58
1, 272621, Note_off_c, 0, 79, 64
1, 272625, Note_on_c, 0, 80, 74
1, 272636, Control_c, 0, 64, 58
1, 272665, Control_c, 0, 64, 57
1, 272671, Note_off_c, 0, 80, 63
1, 272680, Control_c, 0, 64, 57
1, 272691, Note_on_c, 0, 79, 73
1, 272695, Control_c, 0, 64, 56
1, 272710, Control_c, 0, 64, 54
1, 272726, Control_c, 0, 64, 51
1, 272741, Control_c, 0, 64, 48
1, 272747, Note_on_c, 0, 75, 73
1, 272752, Note_off_c, 0, 79, 65
1, 272755, Control_c, 0, 64, 45
1, 272777, Control_c, 0, 64, 43
1, 272792, Control_c, 0, 64, 42
1, 272807, Control_c, 0, 64, 42
1, 272821, Note_off_c, 0, 75, 62
1, 272822, Control_c, 0, 64, 39
1, 272824, Note_on_c, 0, 77, 80
1, 272836, Control_c, 0, 64, 32
1, 272851, Control_c, 0, 64, 22
1, 272866, Control_c, 0, 64, 19
1, 272887, Note_on_c, 0, 75, 74
1, 272892, Note_off_c, 0, 77, 64
1, 272896, Control_c, 0, 64, 25
1, 272911, Control_c, 0, 64, 33
1, 272925, Control_c, 0, 64, 44
1, 272940, Control_c, 0, 64, 49
1, 272951, Note_off_c, 0, 75, 64
1, 272955, Control_c, 0, 64, 51
1, 272958, Note_on_c, 0, 72, 81
1, 272970, Control_c, 0, 64, 51
1, 273000, Control_c, 0, 64, 52
1, 273012, Note_off_c, 0, 72, 65
1, 273023, Note_on_c, 0, 74, 79
1, 273044, Control_c, 0, 64, 48
1, 273059, Control_c, 0, 64, 26
1, 273073, Control_c, 0, 64, 0
1, 273077, Note_off_c, 0, 74, 64
1, 273086, Note_on_c, 0, 72, 73
1, 273126, Note_off_c, 0, 72, 62
1, 273152, Note_on_c, 0, 67, 82
1, 273164, Note_off_c, 0, 36, 63
1, 273167, Note_off_c, 0, 48, 64
1, 273175, Note_off_c, 0, 43, 63
1, 273182, Note_off_c, 0, 39, 55
1, 273212, Note_off_c, 0, 67, 61
1, 273224, Note_on_c, 0, 68, 77
1, 273268, Note_off_c, 0, 68, 63
1, 273297, Note_on_c, 0, 67, 74
1, 273352, Note_on_c, 0, 63, 81
1, 273354, Note_off_c, 0, 67, 62
1, 273402, Note_off_c, 0, 63, 62
1, 273413, Note_on_c, 0, 65, 68
1, 273474, Note_on_c, 0, 63, 84
1, 273474, Note_off_c, 0, 65, 64
1, 273541, Control_c, 0, 64, 43
1, 273556, Control_c, 0, 64, 60
1, 273560, Note_off_c, 0, 63, 63
1, 273571, Control_c, 0, 64, 70
1, 273572, Note_on_c, 0, 60, 92
1, 273576, Note_on_c, 0, 72, 86
1, 273584, Control_c, 0, 64, 83
1, 273599, Control_c, 0, 64, 96
1, 273614, Control_c, 0, 64, 95
1, 273616, Note_off_c, 0, 60, 66
1, 273629, Control_c, 0, 64, 90
1, 273639, Note_off_c, 0, 72, 64
1, 273644, Control_c, 0, 64, 85
1, 273659, Control_c, 0, 64, 79
1, 273674, Control_c, 0, 64, 74
1, 273689, Control_c, 0, 64, 67
1, 273703, Control_c, 0, 64, 59
1, 273718, Control_c, 0, 64, 36
1, 273733, Control_c, 0, 64, 0
1, 273792, Note_on_c, 0, 74, 97
1, 273793, Note_on_c, 0, 62, 93
1, 273829, Note_off_c, 0, 74, 67
1, 273831, Note_off_c, 0, 62, 64
1, 274001, Note_on_c, 0, 63, 96
1, 274002, Note_on_c, 0, 75, 95
1, 274006, Note_on_c, 0, 48, 95
1, 274011, Note_on_c, 0, 36, 80
1, 274039, Note_off_c, 0, 63, 66
1, 274040, Note_on_c, 0, 76, 48
1, 274042, Note_off_c, 0, 36, 69
1, 274053, Note_off_c, 0, 75, 56
1, 274063, Note_off_c, 0, 48, 64
1, 274063, Note_off_c, 0, 76, 37
1, 274214, Note_on_c, 0, 65, 92
1, 274216, Note_on_c, 0, 77, 99
1, 274217, Note_on_c, 0, 50, 92
1, 274227, Note_on_c, 0, 38, 72
1, 274254, Note_off_c, 0, 38, 62
1, 274258, Note_off_c, 0, 65, 65
1, 274261, Note_off_c, 0, 77, 68
1, 274282, Note_off_c, 0, 50, 64
1, 274407, Control_c, 0, 64, 34
1, 274422, Control_c, 0, 64, 55
1, 274434, Note_on_c, 0, 51, 103
1, 274437, Control_c, 0, 64, 63
1, 274440, Note_on_c, 0, 39, 85
1, 274440, Note_on_c, 0, 79, 103
1, 274443, Note_on_c, 0, 67, 101
1, 274452, Control_c, 0, 64, 67
1, 274467, Control_c, 0, 64, 68
1, 274481, Control_c, 0, 64, 66
1, 274482, Note_off_c, 0, 51, 64
1, 274491, Note_off_c, 0, 39, 62
1, 274496, Control_c, 0, 64, 64
1, 274511, Control_c, 0, 64, 62
1, 274526, Control_c, 0, 64, 58
1, 274541, Control_c, 0, 64, 54
1, 274556, Control_c, 0, 64, 48
1, 274571, Control_c, 0, 64, 42
1, 274586, Control_c, 0, 64, 39
1, 274600, Control_c, 0, 64, 35
1, 274615, Control_c, 0, 64, 29
1, 274630, Control_c, 0, 64, 15
1, 274635, Note_on_c, 0, 53, 95
1, 274640, Note_on_c, 0, 41, 84
1, 274644, Control_c, 0, 64, 0
1, 274673, Note_off_c, 0, 41, 66
1, 274675, Note_off_c, 0, 53, 65
1, 274737, Note_off_c, 0, 79, 35
1, 274746, Note_off_c, 0, 67, 57
1, 274848, Note_on_c, 0, 67, 94
1, 274848, Note_on_c, 0, 79, 97
1, 274851, Control_c, 0, 64, 40
1, 274854, Note_on_c, 0, 55, 100
1, 274860, Note_on_c, 0, 43, 93
1, 274866, Control_c, 0, 64, 56
1, 274881, Control_c, 0, 64, 61
1, 274896, Note_off_c, 0, 67, 64
1, 274896, Control_c, 0, 64, 63
1, 274911, Control_c, 0, 64, 64
1, 274924, Note_off_c, 0, 79, 63
1, 274926, Control_c, 0, 64, 65
1, 274941, Control_c, 0, 64, 66
1, 274955, Control_c, 0, 64, 67
1, 274970, Control_c, 0, 64, 69
1, 274985, Control_c, 0, 64, 71
1, 275000, Control_c, 0, 64, 75
1, 275010, Note_off_c, 0, 55, 61
1, 275015, Control_c, 0, 64, 79
1, 275037, Control_c, 0, 64, 82
1, 275048, Note_off_c, 0, 43, 63
1, 275051, Control_c, 0, 64, 83
1, 275063, Note_on_c, 0, 69, 96
1, 275063, Note_on_c, 0, 81, 94
1, 275066, Control_c, 0, 64, 84
1, 275081, Control_c, 0, 64, 85
1, 275110, Control_c, 0, 64, 85
1, 275112, Note_off_c, 0, 69, 64
1, 275133, Note_off_c, 0, 81, 65
1, 275140, Control_c, 0, 64, 86
1, 275170, Control_c, 0, 64, 85
1, 275185, Control_c, 0, 64, 84
1, 275200, Control_c, 0, 64, 83
1, 275215, Control_c, 0, 64, 79
1, 275230, Control_c, 0, 64, 71
1, 275245, Control_c, 0, 64, 60
1, 275259, Control_c, 0, 64, 38
1, 275271, Note_on_c, 0, 83, 95
1, 275271, Note_on_c, 0, 71, 96
1, 275272, Note_on_c, 0, 31, 81
1, 275272, Note_on_c, 0, 43, 87
1, 275274, Control_c, 0, 64, 0
1, 275313, Note_off_c, 0, 71, 66
1, 275325, Note_off_c, 0, 31, 64
1, 275332, Note_off_c, 0, 43, 62
1, 275332, Note_off_c, 0, 83, 60
1, 275471, Note_on_c, 0, 45, 89
1, 275478, Note_on_c, 0, 33, 81
1, 275479, Note_on_c, 0, 84, 97
1, 275480, Note_on_c, 0, 72, 95
1, 275511, Note_off_c, 0, 33, 66
1, 275522, Note_off_c, 0, 45, 62
1, 275525, Note_off_c, 0, 72, 65
1, 275548, Note_off_c, 0, 84, 61
1, 275674, Control_c, 0, 64, 9
1, 275689, Control_c, 0, 64, 44
1, 275697, Note_on_c, 0, 47, 97
1, 275697, Note_on_c, 0, 74, 102
1, 275697, Note_on_c, 0, 86, 99
1, 275702, Note_on_c, 0, 35, 84
1, 275704, Control_c, 0, 64, 62
1, 275719, Control_c, 0, 64, 68
1, 275733, Control_c, 0, 64, 71
1, 275742, Note_off_c, 0, 47, 65
1, 275748, Control_c, 0, 64, 70
1, 275749, Note_off_c, 0, 35, 61
1, 275770, Control_c, 0, 64, 68
1, 275785, Control_c, 0, 64, 66
1, 275800, Control_c, 0, 64, 62
1, 275815, Control_c, 0, 64, 55
1, 275829, Control_c, 0, 64, 48
1, 275844, Control_c, 0, 64, 43
1, 275859, Control_c, 0, 64, 41
1, 275874, Control_c, 0, 64, 37
1, 275888, Control_c, 0, 64, 22
1, 275893, Note_off_c, 0, 86, 64
1, 275903, Control_c, 0, 64, 0
1, 275912, Note_on_c, 0, 48, 95
1, 275919, Note_on_c, 0, 36, 83
1, 275928, Note_off_c, 0, 74, 64
1, 275965, Note_off_c, 0, 36, 60
1, 275975, Note_off_c, 0, 48, 56
1, 276130, Note_on_c, 0, 58, 96
1, 276130, Note_on_c, 0, 70, 93
1, 276136, Note_on_c, 0, 49, 102
1, 276151, Note_on_c, 0, 37, 83
1, 276175, Note_on_c, 0, 71, 31
1, 276196, Note_off_c, 0, 58, 66
1, 276211, Note_off_c, 0, 71, 51
1, 276216, Control_c, 0, 64, 22
1, 276231, Control_c, 0, 64, 53
1, 276245, Control_c, 0, 64, 64
1, 276257, Note_off_c, 0, 70, 57
1, 276260, Control_c, 0, 64, 73
1, 276275, Control_c, 0, 64, 91
1, 276289, Control_c, 0, 64, 127
1, 276341, Note_on_c, 0, 60, 95
1, 276345, Note_on_c, 0, 72, 93
1, 276349, Note_off_c, 0, 49, 59
1, 276371, Note_off_c, 0, 37, 60
1, 276393, Note_off_c, 0, 60, 65
1, 276404, Note_off_c, 0, 72, 65
1, 276467, Control_c, 0, 64, 122
1, 276482, Control_c, 0, 64, 108
1, 276497, Control_c, 0, 64, 91
1, 276519, Control_c, 0, 64, 74
1, 276534, Control_c, 0, 64, 61
1, 276549, Control_c, 0, 64, 19
1, 276554, Note_on_c, 0, 61, 95
1, 276554, Note_on_c, 0, 73, 98
1, 276557, Note_on_c, 0, 46, 87
1, 276561, Note_on_c, 0, 34, 75
1, 276564, Control_c, 0, 64, 0
1, 276596, Note_off_c, 0, 61, 65
1, 276597, Note_off_c, 0, 34, 65
1, 276609, Note_off_c, 0, 46, 64
1, 276610, Note_off_c, 0, 73, 62
1, 276749, Note_on_c, 0, 48, 90
1, 276750, Note_on_c, 0, 63, 88
1, 276750, Note_on_c, 0, 75, 91
1, 276756, Note_on_c, 0, 36, 76
1, 276789, Note_off_c, 0, 36, 67
1, 276789, Note_off_c, 0, 48, 61
1, 276793, Note_off_c, 0, 63, 65
1, 276824, Note_off_c, 0, 75, 45
1, 276955, Note_on_c, 0, 49, 95
1, 276957, Note_on_c, 0, 65, 97
1, 276958, Note_on_c, 0, 77, 98
1, 276962, Note_on_c, 0, 37, 84
1, 276995, Note_off_c, 0, 49, 62
1, 276999, Note_off_c, 0, 37, 60
1, 277156, Note_on_c, 0, 51, 99
1, 277164, Note_on_c, 0, 39, 82
1, 277200, Note_off_c, 0, 51, 65
1, 277200, Note_off_c, 0, 39, 60
1, 277201, Note_off_c, 0, 77, 51
1, 277220, Note_off_c, 0, 65, 57
1, 277373, Control_c, 0, 64, 21
1, 277385, Note_on_c, 0, 65, 98
1, 277386, Note_on_c, 0, 53, 100
1, 277386, Note_on_c, 0, 77, 97
1, 277388, Control_c, 0, 64, 51
1, 277391, Note_on_c, 0, 41, 88
1, 277403, Control_c, 0, 64, 62
1, 277418, Control_c, 0, 64, 69
1, 277433, Control_c, 0, 64, 77
1, 277433, Note_off_c, 0, 65, 64
1, 277447, Control_c, 0, 64, 86
1, 277453, Note_off_c, 0, 77, 58
1, 277462, Control_c, 0, 64, 95
1, 277477, Control_c, 0, 64, 101
1, 277492, Control_c, 0, 64, 101
1, 277522, Control_c, 0, 64, 99
1, 277537, Control_c, 0, 64, 97
1, 277552, Control_c, 0, 64, 96
1, 277567, Control_c, 0, 64, 95
1, 277582, Control_c, 0, 64, 94
1, 277588, Note_on_c, 0, 79, 101
1, 277591, Note_on_c, 0, 67, 95
1, 277596, Control_c, 0, 64, 93
1, 277611, Control_c, 0, 64, 92
1, 277629, Note_off_c, 0, 41, 50
1, 277632, Note_off_c, 0, 67, 66
1, 277640, Note_off_c, 0, 79, 65
1, 277641, Control_c, 0, 64, 92
1, 277646, Note_off_c, 0, 53, 55
1, 277656, Control_c, 0, 64, 91
1, 277670, Control_c, 0, 64, 90
1, 277685, Control_c, 0, 64, 86
1, 277700, Control_c, 0, 64, 76
1, 277715, Control_c, 0, 64, 65
1, 277730, Control_c, 0, 64, 47
1, 277744, Control_c, 0, 64, 0
1, 277785, Note_on_c, 0, 68, 100
1, 277786, Note_on_c, 0, 80, 98
1, 277787, Note_on_c, 0, 41, 79
1, 277788, Note_on_c, 0, 53, 95
1, 277824, Note_off_c, 0, 41, 66
1, 277832, Note_off_c, 0, 68, 62
1, 277844, Note_off_c, 0, 80, 62
1, 277851, Note_off_c, 0, 53, 63
1, 277987, Note_on_c, 0, 70, 96
1, 277990, Note_on_c, 0, 82, 96
1, 277993, Note_on_c, 0, 55, 89
1, 278002, Note_on_c, 0, 43, 73
1, 278036, Note_off_c, 0, 43, 65
1, 278045, Note_off_c, 0, 55, 61
1, 278047, Note_off_c, 0, 70, 63
1, 278091, Note_off_c, 0, 82, 58
1, 278211, Control_c, 0, 64, 32
1, 278214, Note_on_c, 0, 56, 100
1, 278220, Note_on_c, 0, 72, 91
1, 278220, Note_on_c, 0, 84, 103
1, 278222, Note_on_c, 0, 44, 78
1, 278225, Control_c, 0, 64, 52
1, 278240, Control_c, 0, 64, 59
1, 278243, Note_on_c, 0, 46, 44
1, 278250, Note_off_c, 0, 44, 66
1, 278255, Control_c, 0, 64, 60
1, 278260, Note_off_c, 0, 56, 64
1, 278267, Note_on_c, 0, 58, 16
1, 278268, Note_off_c, 0, 58, 127
1, 278270, Control_c, 0, 64, 59
1, 278271, Note_off_c, 0, 46, 53
1, 278285, Control_c, 0, 64, 58
1, 278375, Control_c, 0, 64, 58
1, 278389, Control_c, 0, 64, 57
1, 278404, Control_c, 0, 64, 56
1, 278409, Note_off_c, 0, 84, 62
1, 278415, Note_on_c, 0, 58, 94
1, 278419, Note_on_c, 0, 46, 84
1, 278419, Control_c, 0, 64, 53
1, 278434, Control_c, 0, 64, 50
1, 278443, Note_off_c, 0, 72, 61
1, 278449, Control_c, 0, 64, 47
1, 278462, Note_off_c, 0, 58, 63
1, 278464, Control_c, 0, 64, 45
1, 278469, Note_off_c, 0, 46, 62
1, 278479, Control_c, 0, 64, 45
1, 278493, Control_c, 0, 64, 44
1, 278508, Control_c, 0, 64, 43
1, 278523, Control_c, 0, 64, 38
1, 278538, Control_c, 0, 64, 0
1, 278621, Note_on_c, 0, 69, 100
1, 278622, Note_on_c, 0, 81, 97
1, 278627, Note_on_c, 0, 60, 98
1, 278633, Note_on_c, 0, 48, 87
1, 278656, Control_c, 0, 64, 24
1, 278671, Note_off_c, 0, 69, 66
1, 278671, Control_c, 0, 64, 49
1, 278685, Control_c, 0, 64, 62
1, 278698, Note_off_c, 0, 81, 64
1, 278700, Control_c, 0, 64, 67
1, 278715, Control_c, 0, 64, 72
1, 278730, Control_c, 0, 64, 80
1, 278745, Control_c, 0, 64, 87
1, 278767, Control_c, 0, 64, 93
1, 278782, Control_c, 0, 64, 94
1, 278793, Note_off_c, 0, 60, 60
1, 278806, Note_off_c, 0, 48, 63
1, 278827, Control_c, 0, 64, 95
1, 278847, Note_on_c, 0, 83, 98
1, 278849, Note_on_c, 0, 71, 98
1, 278891, Note_off_c, 0, 71, 66
1, 278911, Note_off_c, 0, 83, 60
1, 278930, Control_c, 0, 64, 94
1, 278945, Control_c, 0, 64, 94
1, 278960, Control_c, 0, 64, 93
1, 278974, Control_c, 0, 64, 93
1, 279004, Control_c, 0, 64, 92
1, 279019, Control_c, 0, 64, 88
1, 279034, Control_c, 0, 64, 77
1, 279048, Control_c, 0, 64, 64
1, 279053, Note_on_c, 0, 45, 82
1, 279053, Note_on_c, 0, 57, 89
1, 279056, Note_on_c, 0, 84, 99
1, 279057, Note_on_c, 0, 72, 95
1, 279063, Control_c, 0, 64, 34
1, 279078, Control_c, 0, 64, 0
1, 279098, Note_off_c, 0, 72, 66
1, 279104, Note_off_c, 0, 45, 64
1, 279108, Note_off_c, 0, 57, 64
1, 279109, Note_off_c, 0, 84, 63
1, 279253, Note_on_c, 0, 59, 90
1, 279255, Note_on_c, 0, 74, 90
1, 279256, Note_on_c, 0, 47, 80
1, 279256, Note_on_c, 0, 86, 97
1, 279288, Note_off_c, 0, 47, 64
1, 279296, Note_off_c, 0, 59, 64
1, 279306, Note_off_c, 0, 74, 62
1, 279318, Note_off_c, 0, 86, 62
1, 279460, Note_on_c, 0, 75, 112
1, 279461, Note_on_c, 0, 87, 100
1, 279464, Note_on_c, 0, 60, 97
1, 279470, Note_on_c, 0, 48, 87
1, 279513, Note_off_c, 0, 48, 64
1, 279514, Note_off_c, 0, 60, 67
1, 279672, Note_on_c, 0, 62, 93
1, 279674, Note_off_c, 0, 87, 61
1, 279674, Note_on_c, 0, 50, 87
1, 279690, Note_off_c, 0, 75, 59
1, 279726, Note_off_c, 0, 50, 56
1, 279756, Note_off_c, 0, 62, 61
1, 279892, Note_on_c, 0, 63, 112
1, 279899, Note_on_c, 0, 51, 90
1, 279899, Note_on_c, 0, 71, 102
1, 279899, Note_on_c, 0, 83, 95
1, 279916, Control_c, 0, 64, 38
1, 279931, Control_c, 0, 64, 57
1, 279945, Control_c, 0, 64, 66
1, 279960, Control_c, 0, 64, 75
1, 279963, Note_off_c, 0, 71, 59
1, 279975, Control_c, 0, 64, 98
1, 279978, Note_off_c, 0, 83, 62
1, 279990, Control_c, 0, 64, 127
1, 280046, Note_off_c, 0, 63, 57
1, 280077, Note_off_c, 0, 51, 63
1, 280146, Note_on_c, 0, 84, 94
1, 280148, Note_on_c, 0, 72, 95
1, 280195, Note_off_c, 0, 72, 65
1, 280209, Note_off_c, 0, 84, 59
1, 280339, Control_c, 0, 64, 90
1, 280354, Control_c, 0, 64, 65
1, 280360, Note_on_c, 0, 59, 90
1, 280362, Note_on_c, 0, 47, 79
1, 280363, Note_on_c, 0, 86, 94
1, 280365, Note_on_c, 0, 74, 92
1, 280369, Control_c, 0, 64, 0
1, 280410, Note_off_c, 0, 74, 64
1, 280415, Note_off_c, 0, 47, 64
1, 280416, Note_off_c, 0, 86, 65
1, 280418, Note_off_c, 0, 59, 63
1, 280557, Note_on_c, 0, 75, 96
1, 280557, Note_on_c, 0, 87, 97
1, 280565, Note_on_c, 0, 60, 91
1, 280569, Note_on_c, 0, 48, 82
1, 280610, Note_off_c, 0, 48, 61
1, 280613, Note_off_c, 0, 60, 65
1, 280616, Note_off_c, 0, 75, 61
1, 280662, Note_off_c, 0, 87, 55
1, 280767, Note_on_c, 0, 62, 91
1, 280769, Note_on_c, 0, 77, 95
1, 280770, Note_on_c, 0, 50, 87
1, 280771, Note_on_c, 0, 89, 100
1, 280815, Note_off_c, 0, 50, 63
1, 280820, Note_off_c, 0, 77, 65
1, 280822, Note_off_c, 0, 62, 58
1, 280839, Note_off_c, 0, 89, 63
1, 280977, Note_on_c, 0, 63, 96
1, 280984, Note_on_c, 0, 51, 85
1, 280985, Note_on_c, 0, 79, 97
1, 280985, Note_on_c, 0, 91, 98
1, 281027, Note_off_c, 0, 51, 66
1, 281040, Note_off_c, 0, 91, 66
1, 281041, Note_off_c, 0, 79, 66
1, 281053, Note_off_c, 0, 63, 61
1, 281209, Note_on_c, 0, 65, 99
1, 281212, Note_on_c, 0, 53, 86
1, 281217, Note_on_c, 0, 80, 114
1, 281220, Note_on_c, 0, 92, 106
1, 281259, Note_off_c, 0, 53, 65
1, 281266, Note_off_c, 0, 65, 59
1, 281450, Note_on_c, 0, 67, 99
1, 281455, Note_on_c, 0, 55, 93
1, 281498, Note_off_c, 0, 55, 66
1, 281530, Note_off_c, 0, 67, 45
1, 281749, Note_on_c, 0, 68, 108
1, 281763, Control_c, 0, 64, 38
1, 281764, Note_on_c, 0, 56, 89
1, 281778, Control_c, 0, 64, 59
1, 281786, Note_off_c, 0, 92, 63
1, 281792, Control_c, 0, 64, 68
1, 281807, Control_c, 0, 64, 78
1, 281822, Control_c, 0, 64, 103
1, 281837, Control_c, 0, 64, 127
1, 281871, Note_off_c, 0, 80, 59
1, 281992, Note_on_c, 0, 91, 90
1, 281996, Note_on_c, 0, 79, 85
1, 282056, Note_off_c, 0, 91, 60
1, 282062, Note_off_c, 0, 79, 60
1, 282178, Note_off_c, 0, 68, 57
1, 282191, Note_off_c, 0, 56, 59
1, 282210, Note_on_c, 0, 89, 95
1, 282213, Note_on_c, 0, 77, 82
1, 282258, Note_off_c, 0, 89, 64
1, 282265, Note_off_c, 0, 77, 63
1, 282381, Note_on_c, 0, 60, 43
1, 282411, Note_off_c, 0, 60, 63
1, 282413, Note_on_c, 0, 75, 92
1, 282414, Note_on_c, 0, 87, 91
1, 282415, Control_c, 0, 64, 92
1, 282420, Note_on_c, 0, 67, 83
1, 282422, Note_on_c, 0, 55, 76
1, 282430, Control_c, 0, 64, 77
1, 282445, Control_c, 0, 64, 68
1, 282460, Control_c, 0, 64, 61
1, 282465, Note_off_c, 0, 55, 56
1, 282475, Control_c, 0, 64, 56
1, 282479, Note_off_c, 0, 87, 65
1, 282481, Note_off_c, 0, 75, 61
1, 282485, Note_off_c, 0, 67, 59
1, 282489, Control_c, 0, 64, 54
1, 282512, Control_c, 0, 64, 55
1, 282541, Control_c, 0, 64, 54
1, 282556, Control_c, 0, 64, 54
1, 282571, Control_c, 0, 64, 52
1, 282586, Control_c, 0, 64, 51
1, 282601, Control_c, 0, 64, 47
1, 282615, Control_c, 0, 64, 40
1, 282630, Control_c, 0, 64, 25
1, 282644, Note_on_c, 0, 65, 87
1, 282645, Control_c, 0, 64, 0
1, 282647, Note_on_c, 0, 53, 80
1, 282650, Note_on_c, 0, 74, 87
1, 282652, Note_on_c, 0, 86, 92
1, 282692, Note_off_c, 0, 53, 61
1, 282697, Note_off_c, 0, 65, 62
1, 282699, Note_off_c, 0, 74, 65
1, 282703, Note_off_c, 0, 86, 66
1, 282868, Note_on_c, 0, 72, 93
1, 282870, Note_on_c, 0, 84, 94
1, 282872, Note_on_c, 0, 63, 89
1, 282874, Note_on_c, 0, 51, 87
1, 282918, Note_off_c, 0, 72, 64
1, 282919, Note_off_c, 0, 84, 65
1, 282924, Note_off_c, 0, 63, 62
1, 282957, Note_off_c, 0, 51, 59
1, 283089, Note_on_c, 0, 62, 87
1, 283090, Note_on_c, 0, 50, 87
1, 283096, Note_on_c, 0, 71, 91
1, 283096, Note_on_c, 0, 83, 93
1, 283150, Note_off_c, 0, 71, 64
1, 283151, Note_off_c, 0, 62, 61
1, 283175, Note_off_c, 0, 83, 61
1, 283183, Note_off_c, 0, 50, 61
1, 283336, Note_on_c, 0, 60, 94
1, 283338, Note_on_c, 0, 84, 93
1, 283339, Note_on_c, 0, 48, 85
1, 283339, Note_on_c, 0, 72, 97
1, 283401, Note_off_c, 0, 72, 60
1, 283406, Note_off_c, 0, 60, 59
1, 283419, Note_off_c, 0, 84, 62
1, 283427, Note_off_c, 0, 48, 61
1, 283574, Note_on_c, 0, 59, 97
1, 283579, Note_on_c, 0, 47, 86
1, 283663, Note_off_c, 0, 47, 58
1, 283682, Note_off_c, 0, 59, 62
1, 283859, Note_on_c, 0, 60, 93
1, 283865, Note_on_c, 0, 48, 85
1, 284062, Note_off_c, 0, 60, 58
1, 284098, Note_off_c, 0, 48, 58
1, 284572, Control_c, 0, 67, 27
1, 284587, Control_c, 0, 67, 50
1, 284602, Control_c, 0, 67, 76
1, 284617, Control_c, 0, 67, 97
1, 284631, Control_c, 0, 67, 114
1, 284646, Control_c, 0, 67, 127
1, 284706, Control_c, 0, 64, 12
1, 284721, Control_c, 0, 64, 27
1, 284736, Control_c, 0, 64, 38
1, 284751, Control_c, 0, 64, 45
1, 284773, Control_c, 0, 64, 51
1, 284788, Control_c, 0, 64, 54
1, 284803, Control_c, 0, 64, 57
1, 284816, Control_c, 0, 64, 60
1, 284831, Control_c, 0, 64, 61
1, 284846, Control_c, 0, 64, 63
1, 284861, Control_c, 0, 64, 64
1, 284876, Control_c, 0, 64, 65
1, 284891, Control_c, 0, 64, 66
1, 284906, Control_c, 0, 64, 67
1, 284921, Control_c, 0, 64, 69
1, 284935, Control_c, 0, 64, 72
1, 284950, Control_c, 0, 64, 76
1, 284951, Note_on_c, 0, 63, 39
1, 284965, Note_on_c, 0, 55, 35
1, 284965, Control_c, 0, 64, 81
1, 284974, Note_on_c, 0, 36, 27
1, 284980, Control_c, 0, 64, 87
1, 284995, Control_c, 0, 64, 96
1, 285009, Control_c, 0, 64, 109
1, 285024, Control_c, 0, 64, 127
1, 285104, Note_off_c, 0, 36, 0
1, 285131, Note_off_c, 0, 63, 33
1, 285137, Poly_aftertouch_c, 0, 36, 0
1, 285156, Note_off_c, 0, 55, 43
1, 285180, Note_on_c, 0, 67, 26
1, 285329, Note_on_c, 0, 55, 30
1, 285341, Note_on_c, 0, 63, 37
1, 285345, Note_on_c, 0, 36, 23
1, 285363, Note_off_c, 0, 67, 39
1, 285433, Note_off_c, 0, 63, 53
1, 285463, Note_off_c, 0, 36, 36
1, 285474, Note_on_c, 0, 67, 42
1, 285492, Note_off_c, 0, 55, 33
1, 285613, Note_on_c, 0, 63, 42
1, 285626, Note_off_c, 0, 67, 33
1, 285636, Note_on_c, 0, 55, 45
1, 285641, Note_on_c, 0, 36, 38
1, 285706, Note_off_c, 0, 63, 51
1, 285708, Note_off_c, 0, 36, 46
1, 285719, Note_off_c, 0, 55, 57
1, 285743, Note_on_c, 0, 67, 47
1, 285842, Note_off_c, 0, 67, 53
1, 285869, Note_on_c, 0, 63, 46
1, 285873, Note_on_c, 0, 55, 39
1, 285891, Note_on_c, 0, 36, 37
1, 285953, Note_off_c, 0, 36, 52
1, 285979, Note_off_c, 0, 63, 46
1, 285988, Note_off_c, 0, 55, 56
1, 286000, Note_on_c, 0, 67, 48
1, 286119, Note_off_c, 0, 67, 46
1, 286134, Note_on_c, 0, 63, 48
1, 286146, Note_on_c, 0, 55, 39
1, 286157, Note_on_c, 0, 36, 39
1, 286242, Note_off_c, 0, 63, 52
1, 286269, Note_on_c, 0, 67, 48
1, 286271, Note_off_c, 0, 55, 55
1, 286277, Note_off_c, 0, 36, 36
1, 286429, Note_off_c, 0, 67, 37
1, 286431, Note_on_c, 0, 63, 40
1, 286436, Note_on_c, 0, 55, 42
1, 286443, Note_on_c, 0, 36, 42
1, 286561, Note_off_c, 0, 63, 54
1, 286573, Note_on_c, 0, 67, 48
1, 286581, Note_off_c, 0, 55, 52
1, 286802, Control_c, 0, 64, 99
1, 286808, Note_off_c, 0, 67, 27
1, 286816, Note_on_c, 0, 62, 47
1, 286817, Control_c, 0, 64, 85
1, 286823, Note_on_c, 0, 55, 45
1, 286824, Note_on_c, 0, 35, 48
1, 286832, Control_c, 0, 64, 72
1, 286846, Control_c, 0, 64, 61
1, 286856, Note_off_c, 0, 36, 43
1, 286861, Control_c, 0, 64, 33
1, 286876, Control_c, 0, 64, 0
1, 286980, Control_c, 0, 64, 22
1, 287002, Control_c, 0, 64, 49
1, 287017, Control_c, 0, 64, 61
1, 287032, Control_c, 0, 64, 66
1, 287047, Control_c, 0, 64, 72
1, 287061, Control_c, 0, 64, 80
1, 287064, Note_off_c, 0, 55, 52
1, 287071, Note_on_c, 0, 67, 45
1, 287073, Note_off_c, 0, 62, 35
1, 287076, Control_c, 0, 64, 90
1, 287091, Control_c, 0, 64, 100
1, 287096, Note_off_c, 0, 35, 52
1, 287107, Control_c, 0, 64, 115
1, 287122, Control_c, 0, 64, 127
1, 287219, Note_on_c, 0, 55, 39
1, 287224, Note_off_c, 0, 67, 33
1, 287227, Note_on_c, 0, 62, 39
1, 287235, Note_on_c, 0, 35, 33
1, 287313, Note_off_c, 0, 35, 45
1, 287322, Note_off_c, 0, 62, 51
1, 287327, Note_off_c, 0, 55, 50
1, 287361, Note_on_c, 0, 67, 36
1, 287435, Note_off_c, 0, 67, 48
1, 287491, Note_on_c, 0, 62, 39
1, 287505, Note_on_c, 0, 35, 38
1, 287508, Note_on_c, 0, 55, 40
1, 287570, Note_off_c, 0, 62, 52
1, 287577, Note_off_c, 0, 55, 54
1, 287612, Note_off_c, 0, 35, 36
1, 287624, Note_on_c, 0, 67, 39
1, 287700, Note_off_c, 0, 67, 51
1, 287761, Note_on_c, 0, 62, 36
1, 287762, Note_on_c, 0, 35, 51
1, 287768, Note_on_c, 0, 55, 36
1, 287842, Note_off_c, 0, 62, 52
1, 287842, Note_off_c, 0, 35, 48
1, 287861, Note_off_c, 0, 55, 55
1, 287878, Note_on_c, 0, 67, 44
1, 287967, Note_off_c, 0, 67, 47
1, 288015, Note_on_c, 0, 62, 45
1, 288021, Note_on_c, 0, 55, 43
1, 288022, Note_on_c, 0, 35, 45
1, 288034, Control_c, 0, 67, 122
1, 288049, Control_c, 0, 67, 114
1, 288064, Control_c, 0, 67, 106
1, 288079, Control_c, 0, 67, 99
1, 288094, Control_c, 0, 67, 93
1, 288108, Control_c, 0, 67, 87
1, 288112, Note_off_c, 0, 55, 53
1, 288112, Note_off_c, 0, 62, 53
1, 288123, Control_c, 0, 67, 79
1, 288134, Note_on_c, 0, 67, 48
1, 288138, Control_c, 0, 67, 69
1, 288140, Note_off_c, 0, 35, 36
1, 288152, Control_c, 0, 67, 54
1, 288167, Control_c, 0, 67, 37
1, 288182, Control_c, 0, 67, 14
1, 288197, Control_c, 0, 67, 0
1, 288280, Note_on_c, 0, 62, 40
1, 288291, Note_on_c, 0, 55, 38
1, 288295, Note_on_c, 0, 35, 41
1, 288298, Note_off_c, 0, 67, 38
1, 288361, Note_off_c, 0, 35, 56
1, 288396, Note_off_c, 0, 62, 56
1, 288429, Note_on_c, 0, 67, 48
1, 288441, Note_off_c, 0, 55, 34
1, 288620, Control_c, 0, 67, 22
1, 288634, Control_c, 0, 64, 107
1, 288634, Control_c, 0, 67, 44
1, 288635, Note_off_c, 0, 67, 38
1, 288649, Control_c, 0, 64, 82
1, 288649, Control_c, 0, 67, 68
1, 288664, Control_c, 0, 64, 66
1, 288664, Control_c, 0, 67, 88
1, 288665, Note_on_c, 0, 64, 50
1, 288670, Note_on_c, 0, 61, 41
1, 288671, Note_on_c, 0, 55, 35
1, 288677, Note_on_c, 0, 34, 44
1, 288679, Control_c, 0, 64, 45
1, 288679, Control_c, 0, 67, 105
1, 288694, Control_c, 0, 64, 0
1, 288694, Control_c, 0, 67, 120
1, 288709, Control_c, 0, 67, 127
1, 288783, Control_c, 0, 64, 31
1, 288798, Control_c, 0, 64, 53
1, 288813, Control_c, 0, 64, 62
1, 288828, Control_c, 0, 64, 67
1, 288843, Control_c, 0, 64, 72
1, 288857, Control_c, 0, 64, 78
1, 288869, Note_off_c, 0, 64, 54
1, 288872, Control_c, 0, 64, 86
1, 288887, Control_c, 0, 64, 94
1, 288888, Note_off_c, 0, 34, 40
1, 288902, Control_c, 0, 64, 104
1, 288916, Note_on_c, 0, 67, 41
1, 288917, Control_c, 0, 64, 116
1, 288922, Note_off_c, 0, 55, 33
1, 288925, Note_off_c, 0, 61, 32
1, 288931, Control_c, 0, 64, 127
1, 288984, Note_off_c, 0, 67, 52
1, 289020, Control_c, 0, 67, 127
1, 289031, Note_on_c, 0, 34, 38
1, 289042, Note_on_c, 0, 61, 10
1, 289043, Note_on_c, 0, 64, 37
1, 289067, Note_on_c, 0, 55, 38
1, 289079, Control_c, 0, 67, 126
1, 289109, Control_c, 0, 67, 125
1, 289124, Control_c, 0, 67, 125
1, 289137, Note_off_c, 0, 64, 54
1, 289139, Control_c, 0, 67, 124
1, 289150, Note_off_c, 0, 55, 53
1, 289161, Note_off_c, 0, 34, 35
1, 289186, Note_off_c, 0, 61, 40
1, 289189, Note_on_c, 0, 67, 46
1, 289258, Note_off_c, 0, 67, 55
1, 289302, Note_on_c, 0, 34, 44
1, 289314, Note_on_c, 0, 61, 38
1, 289320, Note_on_c, 0, 64, 33
1, 289324, Note_on_c, 0, 55, 43
1, 289353, Control_c, 0, 67, 124
1, 289398, Control_c, 0, 67, 123
1, 289404, Note_off_c, 0, 34, 52
1, 289415, Note_off_c, 0, 55, 53
1, 289425, Note_off_c, 0, 61, 52
1, 289430, Note_off_c, 0, 64, 53
1, 289443, Control_c, 0, 67, 122
1, 289463, Note_on_c, 0, 67, 46
1, 289487, Control_c, 0, 67, 122
1, 289534, Note_off_c, 0, 67, 52
1, 289567, Note_on_c, 0, 34, 45
1, 289582, Note_on_c, 0, 64, 47
1, 289592, Note_on_c, 0, 55, 35
1, 289594, Note_on_c, 0, 61, 38
1, 289621, Control_c, 0, 67, 121
1, 289657, Note_off_c, 0, 34, 49
1, 289675, Note_off_c, 0, 61, 48
1, 289675, Note_off_c, 0, 64, 53
1, 289676, Note_off_c, 0, 55, 54
1, 289684, Note_on_c, 0, 67, 46
1, 289725, Control_c, 0, 67, 120
1, 289778, Note_off_c, 0, 67, 54
1, 289818, Note_on_c, 0, 34, 40
1, 289820, Note_on_c, 0, 61, 40
1, 289835, Note_on_c, 0, 55, 41
1, 289841, Note_on_c, 0, 64, 40
1, 289928, Note_off_c, 0, 55, 52
1, 289932, Note_off_c, 0, 34, 36
1, 289937, Note_off_c, 0, 64, 55
1, 289959, Note_on_c, 0, 67, 40
1, 289960, Note_off_c, 0, 61, 36
1, 290104, Note_off_c, 0, 67, 35
1, 290106, Note_on_c, 0, 34, 43
1, 290112, Note_on_c, 0, 61, 46
1, 290113, Note_on_c, 0, 64, 40
1, 290119, Note_on_c, 0, 55, 37
1, 290218, Note_off_c, 0, 61, 47
1, 290225, Note_off_c, 0, 55, 43
1, 290227, Note_off_c, 0, 64, 50
1, 290266, Note_on_c, 0, 67, 36
1, 290392, Note_off_c, 0, 34, 31
1, 290405, Note_off_c, 0, 67, 36
1, 290443, Control_c, 0, 64, 116
1, 290458, Control_c, 0, 64, 107
1, 290473, Control_c, 0, 64, 96
1, 290480, Note_on_c, 0, 64, 43
1, 290487, Note_on_c, 0, 33, 43
1, 290488, Control_c, 0, 64, 84
1, 290493, Note_on_c, 0, 55, 43
1, 290498, Note_on_c, 0, 60, 38
1, 290502, Control_c, 0, 64, 71
1, 290517, Control_c, 0, 64, 54
1, 290517, Control_c, 0, 67, 121
1, 290532, Control_c, 0, 64, 0
1, 290635, Control_c, 0, 64, 17
1, 290650, Control_c, 0, 64, 47
1, 290665, Control_c, 0, 64, 60
1, 290665, Control_c, 0, 67, 122
1, 290680, Control_c, 0, 64, 65
1, 290695, Control_c, 0, 64, 69
1, 290709, Control_c, 0, 64, 72
1, 290713, Note_off_c, 0, 64, 55
1, 290724, Note_off_c, 0, 60, 46
1, 290724, Control_c, 0, 64, 75
1, 290736, Note_on_c, 0, 67, 48
1, 290746, Control_c, 0, 64, 78
1, 290759, Note_off_c, 0, 55, 32
1, 290761, Control_c, 0, 64, 81
1, 290776, Control_c, 0, 64, 84
1, 290789, Note_off_c, 0, 33, 36
1, 290791, Control_c, 0, 64, 88
1, 290806, Control_c, 0, 64, 91
1, 290820, Control_c, 0, 64, 92
1, 290835, Control_c, 0, 64, 92
1, 290894, Control_c, 0, 64, 93
1, 290896, Note_off_c, 0, 67, 32
1, 290907, Note_on_c, 0, 64, 31
1, 290908, Note_on_c, 0, 55, 38
1, 290909, Control_c, 0, 64, 93
1, 290911, Note_on_c, 0, 60, 35
1, 290922, Note_on_c, 0, 33, 43
1, 290924, Control_c, 0, 64, 95
1, 290939, Control_c, 0, 64, 96
1, 290954, Control_c, 0, 64, 97
1, 290969, Control_c, 0, 64, 98
1, 290981, Note_off_c, 0, 33, 55
1, 290984, Control_c, 0, 64, 99
1, 290999, Control_c, 0, 64, 99
1, 291054, Note_on_c, 0, 67, 43
1, 291064, Note_off_c, 0, 55, 33
1, 291066, Note_off_c, 0, 64, 39
1, 291101, Note_off_c, 0, 60, 38
1, 291118, Control_c, 0, 64, 99
1, 291133, Control_c, 0, 64, 98
1, 291148, Control_c, 0, 64, 97
1, 291163, Control_c, 0, 64, 96
1, 291177, Control_c, 0, 64, 93
1, 291192, Control_c, 0, 64, 89
1, 291207, Control_c, 0, 64, 79
1, 291213, Note_on_c, 0, 55, 43
1, 291215, Note_on_c, 0, 60, 37
1, 291221, Note_off_c, 0, 67, 28
1, 291222, Control_c, 0, 64, 68
1, 291227, Note_on_c, 0, 65, 40
1, 291228, Note_on_c, 0, 33, 39
1, 291237, Control_c, 0, 64, 54
1, 291251, Control_c, 0, 64, 0
1, 291311, Control_c, 0, 64, 22
1, 291325, Control_c, 0, 64, 40
1, 291340, Control_c, 0, 64, 54
1, 291355, Control_c, 0, 64, 62
1, 291358, Note_off_c, 0, 60, 52
1, 291359, Note_off_c, 0, 65, 55
1, 291369, Control_c, 0, 64, 65
1, 291377, Note_on_c, 0, 67, 40
1, 291381, Note_off_c, 0, 33, 46
1, 291384, Control_c, 0, 64, 67
1, 291399, Control_c, 0, 64, 69
1, 291404, Note_off_c, 0, 55, 34
1, 291414, Control_c, 0, 64, 72
1, 291429, Control_c, 0, 64, 74
1, 291443, Control_c, 0, 64, 77
1, 291458, Control_c, 0, 64, 80
1, 291473, Control_c, 0, 64, 81
1, 291486, Note_off_c, 0, 67, 53
1, 291488, Control_c, 0, 64, 82
1, 291511, Control_c, 0, 64, 83
1, 291525, Control_c, 0, 64, 84
1, 291538, Note_on_c, 0, 65, 40
1, 291539, Note_on_c, 0, 33, 31
1, 291540, Control_c, 0, 64, 85
1, 291549, Note_on_c, 0, 60, 35
1, 291553, Note_on_c, 0, 55, 38
1, 291555, Control_c, 0, 64, 87
1, 291570, Control_c, 0, 64, 88
1, 291584, Control_c, 0, 64, 90
1, 291599, Control_c, 0, 64, 92
1, 291613, Note_off_c, 0, 33, 41
1, 291614, Control_c, 0, 64, 93
1, 291629, Control_c, 0, 64, 93
1, 291630, Note_off_c, 0, 55, 46
1, 291643, Note_off_c, 0, 60, 31
1, 291643, Control_c, 0, 64, 94
1, 291658, Control_c, 0, 64, 94
1, 291663, Note_on_c, 0, 67, 44
1, 291678, Note_off_c, 0, 65, 35
1, 291688, Control_c, 0, 67, 121
1, 291717, Control_c, 0, 64, 95
1, 291756, Note_off_c, 0, 67, 47
1, 291762, Control_c, 0, 67, 120
1, 291806, Control_c, 0, 64, 95
1, 291815, Note_on_c, 0, 55, 37
1, 291815, Note_on_c, 0, 60, 25
1, 291820, Note_on_c, 0, 65, 45
1, 291821, Control_c, 0, 64, 96
1, 291830, Note_on_c, 0, 33, 32
1, 291836, Control_c, 0, 64, 97
1, 291851, Control_c, 0, 64, 99
1, 291866, Control_c, 0, 64, 100
1, 291881, Control_c, 0, 64, 101
1, 291885, Note_off_c, 0, 33, 53
1, 291896, Control_c, 0, 64, 102
1, 291905, Note_off_c, 0, 55, 49
1, 291914, Note_off_c, 0, 65, 51
1, 291918, Note_off_c, 0, 60, 37
1, 291941, Control_c, 0, 64, 102
1, 291941, Note_on_c, 0, 67, 45
1, 291956, Control_c, 0, 67, 120
1, 292030, Control_c, 0, 64, 103
1, 292033, Note_off_c, 0, 67, 50
1, 292077, Note_on_c, 0, 65, 43
1, 292089, Control_c, 0, 64, 104
1, 292091, Note_on_c, 0, 55, 36
1, 292098, Note_on_c, 0, 33, 45
1, 292099, Note_on_c, 0, 60, 29
1, 292104, Control_c, 0, 64, 105
1, 292119, Control_c, 0, 64, 108
1, 292134, Control_c, 0, 64, 110
1, 292148, Control_c, 0, 64, 112
1, 292153, Note_off_c, 0, 33, 58
1, 292163, Control_c, 0, 64, 113
1, 292178, Control_c, 0, 64, 114
1, 292183, Note_off_c, 0, 65, 54
1, 292192, Control_c, 0, 64, 115
1, 292207, Control_c, 0, 64, 115
1, 292220, Note_off_c, 0, 55, 44
1, 292222, Control_c, 0, 64, 116
1, 292227, Note_on_c, 0, 67, 47
1, 292269, Note_off_c, 0, 60, 36
1, 292364, Control_c, 0, 64, 115
1, 292379, Control_c, 0, 64, 114
1, 292393, Control_c, 0, 64, 113
1, 292408, Control_c, 0, 64, 112
1, 292418, Note_off_c, 0, 67, 41
1, 292423, Control_c, 0, 64, 110
1, 292438, Control_c, 0, 64, 109
1, 292453, Control_c, 0, 64, 106
1, 292468, Control_c, 0, 64, 102
1, 292482, Control_c, 0, 64, 98
1, 292486, Note_on_c, 0, 66, 45
1, 292497, Control_c, 0, 64, 91
1, 292498, Note_on_c, 0, 60, 47
1, 292501, Note_on_c, 0, 32, 48
1, 292504, Note_on_c, 0, 55, 44
1, 292512, Control_c, 0, 64, 79
1, 292526, Control_c, 0, 64, 66
1, 292541, Control_c, 0, 64, 41
1, 292556, Control_c, 0, 64, 0
1, 292660, Control_c, 0, 64, 27
1, 292674, Control_c, 0, 64, 51
1, 292690, Control_c, 0, 64, 62
1, 292705, Control_c, 0, 64, 66
1, 292716, Note_off_c, 0, 66, 54
1, 292720, Control_c, 0, 64, 70
1, 292735, Control_c, 0, 64, 74
1, 292746, Note_off_c, 0, 32, 56
1, 292748, Note_on_c, 0, 67, 49
1, 292750, Control_c, 0, 64, 79
1, 292764, Control_c, 0, 64, 83
1, 292764, Control_c, 0, 67, 119
1, 292779, Control_c, 0, 64, 87
1, 292790, Note_off_c, 0, 55, 34
1, 292794, Control_c, 0, 64, 90
1, 292809, Control_c, 0, 64, 93
1, 292823, Control_c, 0, 64, 95
1, 292838, Control_c, 0, 64, 98
1, 292853, Control_c, 0, 64, 99
1, 292868, Control_c, 0, 64, 100
1, 292883, Note_off_c, 0, 67, 55
1, 292883, Control_c, 0, 64, 101
1, 292897, Note_on_c, 0, 66, 49
1, 292903, Note_on_c, 0, 32, 43
1, 292912, Note_on_c, 0, 55, 40
1, 292912, Control_c, 0, 64, 102
1, 292927, Control_c, 0, 64, 104
1, 292942, Control_c, 0, 64, 105
1, 292957, Control_c, 0, 64, 107
1, 292972, Control_c, 0, 64, 108
1, 292987, Control_c, 0, 64, 109
1, 293003, Note_off_c, 0, 32, 47
1, 293009, Control_c, 0, 64, 109
1, 293009, Control_c, 0, 67, 119
1, 293023, Control_c, 0, 64, 110
1, 293027, Note_off_c, 0, 55, 46
1, 293032, Note_off_c, 0, 66, 52
1, 293038, Control_c, 0, 64, 110
1, 293040, Note_off_c, 0, 60, 40
1, 293047, Note_on_c, 0, 67, 47
1, 293068, Control_c, 0, 64, 111
1, 293097, Control_c, 0, 67, 118
1, 293127, Control_c, 0, 64, 112
1, 293127, Control_c, 0, 67, 117
1, 293157, Control_c, 0, 67, 117
1, 293160, Note_off_c, 0, 67, 55
1, 293172, Control_c, 0, 67, 116
1, 293187, Control_c, 0, 67, 115
1, 293188, Note_on_c, 0, 60, 41
1, 293190, Note_on_c, 0, 55, 44
1, 293193, Note_on_c, 0, 66, 49
1, 293193, Note_on_c, 0, 32, 51
1, 293202, Control_c, 0, 67, 114
1, 293216, Control_c, 0, 67, 112
1, 293231, Control_c, 0, 67, 111
1, 293246, Control_c, 0, 67, 110
1, 293261, Control_c, 0, 67, 109
1, 293276, Control_c, 0, 67, 109
1, 293291, Control_c, 0, 64, 112
1, 293291, Control_c, 0, 67, 108
1, 293303, Note_off_c, 0, 55, 48
1, 293320, Control_c, 0, 67, 107
1, 293321, Note_off_c, 0, 32, 56
1, 293325, Note_on_c, 0, 67, 46
1, 293327, Note_off_c, 0, 60, 36
1, 293335, Control_c, 0, 67, 107
1, 293344, Note_off_c, 0, 66, 36
1, 293349, Control_c, 0, 67, 105
1, 293364, Control_c, 0, 67, 102
1, 293379, Control_c, 0, 67, 100
1, 293394, Control_c, 0, 67, 99
1, 293409, Control_c, 0, 67, 99
1, 293434, Note_off_c, 0, 67, 57
1, 293438, Control_c, 0, 67, 98
1, 293464, Note_on_c, 0, 32, 51
1, 293464, Note_on_c, 0, 66, 47
1, 293467, Note_on_c, 0, 60, 50
1, 293467, Note_on_c, 0, 55, 44
1, 293468, Control_c, 0, 67, 97
1, 293528, Control_c, 0, 67, 97
1, 293562, Note_off_c, 0, 60, 50
1, 293565, Note_off_c, 0, 55, 54
1, 293576, Note_off_c, 0, 32, 54
1, 293591, Note_on_c, 0, 67, 51
1, 293601, Note_off_c, 0, 66, 50
1, 293602, Control_c, 0, 64, 113
1, 293709, Note_off_c, 0, 67, 56
1, 293732, Note_on_c, 0, 55, 46
1, 293746, Note_on_c, 0, 66, 53
1, 293747, Note_on_c, 0, 60, 47
1, 293750, Note_on_c, 0, 32, 50
1, 293857, Note_off_c, 0, 55, 51
1, 293860, Control_c, 0, 64, 114
1, 293863, Note_off_c, 0, 60, 50
1, 293884, Note_on_c, 0, 67, 55
1, 293890, Note_off_c, 0, 66, 50
1, 293890, Control_c, 0, 64, 115
1, 293905, Control_c, 0, 64, 117
1, 293920, Control_c, 0, 64, 125
1, 293923, Note_off_c, 0, 32, 54
1, 293935, Control_c, 0, 64, 127
1, 293979, Control_c, 0, 67, 96
1, 294016, Note_off_c, 0, 67, 56
1, 294039, Note_on_c, 0, 55, 45
1, 294039, Note_on_c, 0, 66, 54
1, 294041, Note_on_c, 0, 60, 47
1, 294051, Note_on_c, 0, 32, 60
1, 294068, Control_c, 0, 67, 95
1, 294113, Control_c, 0, 67, 95
1, 294165, Note_off_c, 0, 60, 46
1, 294178, Note_on_c, 0, 67, 58
1, 294181, Note_off_c, 0, 66, 37
1, 294232, Note_off_c, 0, 55, 34
1, 294350, Control_c, 0, 64, 125
1, 294365, Control_c, 0, 64, 108
1, 294380, Control_c, 0, 64, 98
1, 294389, Note_off_c, 0, 67, 56
1, 294394, Control_c, 0, 64, 86
1, 294398, Note_on_c, 0, 31, 61
1, 294401, Note_on_c, 0, 59, 57
1, 294403, Note_on_c, 0, 62, 57
1, 294409, Control_c, 0, 64, 75
1, 294415, Note_on_c, 0, 55, 36
1, 294424, Control_c, 0, 64, 62
1, 294439, Control_c, 0, 64, 35
1, 294442, Note_off_c, 0, 32, 58
1, 294454, Control_c, 0, 64, 0
1, 294594, Control_c, 0, 64, 45
1, 294609, Control_c, 0, 64, 59
1, 294609, Control_c, 0, 67, 95
1, 294624, Control_c, 0, 64, 66
1, 294631, Note_on_c, 0, 67, 58
1, 294639, Control_c, 0, 64, 73
1, 294640, Note_off_c, 0, 62, 56
1, 294649, Note_off_c, 0, 59, 57
1, 294653, Note_off_c, 0, 55, 53
1, 294654, Control_c, 0, 64, 84
1, 294668, Control_c, 0, 64, 101
1, 294683, Control_c, 0, 64, 127
1, 294690, Note_off_c, 0, 31, 62
1, 294807, Note_off_c, 0, 67, 55
1, 294811, Note_on_c, 0, 59, 49
1, 294813, Note_on_c, 0, 62, 48
1, 294814, Note_on_c, 0, 31, 53
1, 294814, Note_on_c, 0, 55, 42
1, 294832, Control_c, 0, 67, 95
1, 294847, Control_c, 0, 67, 92
1, 294862, Control_c, 0, 67, 90
1, 294876, Control_c, 0, 67, 79
1, 294891, Control_c, 0, 67, 50
1, 294906, Control_c, 0, 67, 19
1, 294921, Control_c, 0, 67, 0
1, 294997, Note_on_c, 0, 67, 57
1, 295007, Note_off_c, 0, 62, 56
1, 295011, Note_off_c, 0, 59, 57
1, 295020, Note_off_c, 0, 55, 33
1, 295382, Note_on_c, 0, 59, 48
1, 295384, Note_on_c, 0, 62, 52
1, 295387, Control_c, 0, 64, 108
1, 295398, Note_on_c, 0, 55, 46
1, 295402, Control_c, 0, 64, 88
1, 295412, Note_off_c, 0, 67, 56
1, 295413, Note_on_c, 0, 29, 58
1, 295416, Control_c, 0, 64, 74
1, 295431, Control_c, 0, 64, 64
1, 295446, Control_c, 0, 64, 47
1, 295461, Control_c, 0, 64, 12
1, 295461, Control_c, 0, 67, 11
1, 295476, Control_c, 0, 64, 0
1, 295476, Control_c, 0, 67, 26
1, 295481, Note_off_c, 0, 31, 44
1, 295491, Control_c, 0, 67, 42
1, 295506, Control_c, 0, 67, 62
1, 295521, Control_c, 0, 67, 79
1, 295536, Control_c, 0, 67, 95
1, 295550, Control_c, 0, 67, 107
1, 295565, Control_c, 0, 67, 114
1, 295580, Control_c, 0, 67, 115
1, 295595, Control_c, 0, 67, 114
1, 295609, Control_c, 0, 67, 112
1, 295624, Control_c, 0, 67, 110
1, 295639, Control_c, 0, 67, 109
1, 295654, Control_c, 0, 64, 36
1, 295654, Control_c, 0, 67, 106
1, 295669, Control_c, 0, 64, 53
1, 295669, Control_c, 0, 67, 105
1, 295683, Control_c, 0, 64, 61
1, 295683, Control_c, 0, 67, 104
1, 295698, Control_c, 0, 64, 65
1, 295698, Control_c, 0, 67, 104
1, 295713, Control_c, 0, 64, 69
1, 295713, Control_c, 0, 67, 102
1, 295728, Control_c, 0, 64, 72
1, 295728, Control_c, 0, 67, 101
1, 295743, Control_c, 0, 64, 76
1, 295743, Control_c, 0, 67, 100
1, 295756, Note_on_c, 0, 68, 48
1, 295758, Control_c, 0, 64, 79
1, 295765, Note_off_c, 0, 62, 56
1, 295772, Control_c, 0, 64, 83
1, 295787, Control_c, 0, 64, 87
1, 295795, Note_off_c, 0, 55, 33
1, 295802, Control_c, 0, 64, 93
1, 295802, Control_c, 0, 67, 100
1, 295803, Note_off_c, 0, 59, 34
1, 295816, Control_c, 0, 64, 101
1, 295816, Control_c, 0, 67, 101
1, 295831, Control_c, 0, 64, 107
1, 295831, Control_c, 0, 67, 102
1, 295846, Control_c, 0, 64, 110
1, 295846, Control_c, 0, 67, 103
1, 295852, Note_off_c, 0, 29, 35
1, 295861, Control_c, 0, 64, 111
1, 295861, Control_c, 0, 67, 104
1, 295876, Control_c, 0, 67, 105
1, 295892, Control_c, 0, 67, 107
1, 295907, Control_c, 0, 67, 107
1, 295921, Control_c, 0, 67, 109
1, 295936, Control_c, 0, 67, 110
1, 295951, Control_c, 0, 64, 110
1, 295951, Control_c, 0, 67, 111
1, 295953, Note_on_c, 0, 59, 36
1, 295966, Control_c, 0, 67, 112
1, 295969, Note_off_c, 0, 68, 34
1, 295970, Note_on_c, 0, 55, 36
1, 295971, Note_on_c, 0, 62, 26
1, 295981, Control_c, 0, 64, 110
1, 295981, Control_c, 0, 67, 114
1, 296003, Control_c, 0, 64, 109
1, 296003, Control_c, 0, 67, 115
1, 296006, Note_on_c, 0, 29, 45
1, 296018, Control_c, 0, 64, 109
1, 296018, Control_c, 0, 67, 117
1, 296033, Control_c, 0, 64, 108
1, 296033, Control_c, 0, 67, 118
1, 296047, Control_c, 0, 67, 120
1, 296062, Control_c, 0, 67, 127
1, 296126, Note_off_c, 0, 55, 34
1, 296139, Note_on_c, 0, 68, 46
1, 296140, Note_off_c, 0, 59, 38
1, 296147, Note_off_c, 0, 62, 42
1, 296177, Note_off_c, 0, 29, 46
1, 296288, Note_off_c, 0, 68, 37
1, 296298, Note_on_c, 0, 62, 41
1, 296307, Note_on_c, 0, 59, 36
1, 296311, Note_on_c, 0, 55, 27
1, 296323, Note_on_c, 0, 29, 38
1, 296420, Note_off_c, 0, 62, 57
1, 296421, Note_off_c, 0, 59, 51
1, 296459, Note_on_c, 0, 68, 46
1, 296460, Note_off_c, 0, 55, 36
1, 296476, Note_off_c, 0, 29, 37
1, 296573, Note_off_c, 0, 68, 52
1, 296608, Note_on_c, 0, 62, 36
1, 296610, Control_c, 0, 64, 108
1, 296618, Note_on_c, 0, 59, 29
1, 296619, Note_on_c, 0, 55, 29
1, 296630, Note_on_c, 0, 29, 41
1, 296701, Note_off_c, 0, 29, 48
1, 296710, Note_off_c, 0, 55, 53
1, 296728, Note_off_c, 0, 62, 52
1, 296761, Note_off_c, 0, 59, 36
1, 296771, Note_on_c, 0, 68, 37
1, 296930, Note_on_c, 0, 59, 29
1, 296930, Note_on_c, 0, 62, 37
1, 296954, Note_off_c, 0, 68, 35
1, 296957, Note_on_c, 0, 29, 39
1, 296960, Note_on_c, 0, 55, 34
1, 297056, Note_off_c, 0, 62, 51
1, 297057, Note_off_c, 0, 29, 45
1, 297060, Note_off_c, 0, 55, 51
1, 297068, Note_off_c, 0, 59, 37
1, 297082, Note_on_c, 0, 68, 41
1, 297266, Note_on_c, 0, 59, 37
1, 297271, Note_on_c, 0, 62, 37
1, 297276, Note_on_c, 0, 55, 35
1, 297282, Note_on_c, 0, 29, 34
1, 297303, Note_off_c, 0, 68, 27
1, 297425, Note_off_c, 0, 59, 34
1, 297429, Note_off_c, 0, 62, 33
1, 297432, Note_off_c, 0, 55, 35
1, 297435, Note_on_c, 0, 68, 44
1, 297454, Note_off_c, 0, 29, 43
1, 297490, Note_off_c, 0, 68, 55
1, 297515, Control_c, 0, 64, 107
1, 297545, Control_c, 0, 64, 106
1, 297560, Control_c, 0, 64, 105
1, 297575, Control_c, 0, 64, 103
1, 297589, Control_c, 0, 64, 101
1, 297604, Control_c, 0, 64, 97
1, 297619, Control_c, 0, 64, 90
1, 297631, Note_on_c, 0, 62, 38
1, 297634, Control_c, 0, 64, 78
1, 297636, Note_on_c, 0, 55, 36
1, 297645, Note_on_c, 0, 59, 39
1, 297649, Note_on_c, 0, 32, 40
1, 297649, Control_c, 0, 64, 65
1, 297664, Control_c, 0, 64, 47
1, 297679, Control_c, 0, 64, 0
1, 297753, Control_c, 0, 64, 19
1, 297767, Control_c, 0, 64, 45
1, 297782, Control_c, 0, 64, 60
1, 297797, Control_c, 0, 64, 65
1, 297811, Control_c, 0, 64, 69
1, 297817, Note_off_c, 0, 62, 52
1, 297826, Control_c, 0, 64, 73
1, 297829, Note_on_c, 0, 65, 40
1, 297841, Control_c, 0, 64, 76
1, 297849, Note_off_c, 0, 59, 36
1, 297856, Control_c, 0, 64, 79
1, 297857, Note_off_c, 0, 55, 38
1, 297871, Control_c, 0, 64, 83
1, 297881, Note_off_c, 0, 32, 42
1, 297885, Control_c, 0, 64, 85
1, 297900, Control_c, 0, 64, 87
1, 297915, Control_c, 0, 64, 88
1, 297930, Control_c, 0, 64, 89
1, 297945, Control_c, 0, 64, 89
1, 297959, Control_c, 0, 64, 90
1, 297974, Note_off_c, 0, 65, 34
1, 297974, Control_c, 0, 64, 90
1, 298002, Note_on_c, 0, 62, 36
1, 298004, Note_on_c, 0, 59, 33
1, 298004, Control_c, 0, 64, 91
1, 298009, Note_on_c, 0, 55, 33
1, 298011, Note_on_c, 0, 32, 45
1, 298019, Control_c, 0, 64, 91
1, 298034, Control_c, 0, 64, 92
1, 298054, Note_off_c, 0, 32, 58
1, 298159, Note_off_c, 0, 62, 25
1, 298165, Note_on_c, 0, 65, 44
1, 298170, Note_off_c, 0, 59, 40
1, 298181, Note_off_c, 0, 55, 31
1, 298236, Note_off_c, 0, 65, 53
1, 298278, Control_c, 0, 64, 92
1, 298294, Control_c, 0, 64, 91
1, 298309, Control_c, 0, 64, 90
1, 298323, Control_c, 0, 64, 89
1, 298338, Control_c, 0, 64, 86
1, 298353, Control_c, 0, 64, 80
1, 298358, Note_on_c, 0, 62, 43
1, 298368, Control_c, 0, 64, 70
1, 298374, Note_on_c, 0, 59, 37
1, 298378, Note_on_c, 0, 31, 35
1, 298383, Control_c, 0, 64, 59
1, 298386, Note_on_c, 0, 55, 29
1, 298397, Control_c, 0, 64, 25
1, 298412, Control_c, 0, 64, 0
1, 298487, Control_c, 0, 64, 40
1, 298502, Control_c, 0, 64, 56
1, 298511, Note_off_c, 0, 62, 55
1, 298516, Control_c, 0, 64, 64
1, 298531, Control_c, 0, 64, 67
1, 298536, Note_on_c, 0, 67, 47
1, 298536, Note_off_c, 0, 59, 37
1, 298546, Control_c, 0, 64, 70
1, 298561, Control_c, 0, 64, 73
1, 298567, Note_off_c, 0, 55, 42
1, 298575, Note_off_c, 0, 31, 40
1, 298576, Control_c, 0, 64, 75
1, 298590, Control_c, 0, 64, 78
1, 298605, Control_c, 0, 64, 80
1, 298620, Control_c, 0, 64, 82
1, 298634, Control_c, 0, 64, 83
1, 298649, Control_c, 0, 64, 84
1, 298664, Control_c, 0, 64, 84
1, 298705, Note_off_c, 0, 67, 42
1, 298708, Control_c, 0, 64, 85
1, 298710, Note_on_c, 0, 55, 29
1, 298725, Note_on_c, 0, 31, 31
1, 298726, Note_on_c, 0, 59, 34
1, 298738, Control_c, 0, 64, 85
1, 298742, Note_on_c, 0, 62, 37
1, 298753, Control_c, 0, 64, 87
1, 298768, Control_c, 0, 64, 88
1, 298782, Control_c, 0, 64, 90
1, 298797, Control_c, 0, 64, 92
1, 298812, Control_c, 0, 64, 93
1, 298823, Note_off_c, 0, 62, 51
1, 298827, Control_c, 0, 64, 94
1, 298841, Control_c, 0, 64, 95
1, 298845, Note_off_c, 0, 59, 49
1, 298856, Control_c, 0, 64, 96
1, 298865, Note_on_c, 0, 67, 44
1, 298871, Control_c, 0, 64, 97
1, 298886, Control_c, 0, 64, 98
1, 298889, Note_off_c, 0, 55, 44
1, 298897, Note_off_c, 0, 31, 40
1, 299005, Note_off_c, 0, 67, 30
1, 299041, Control_c, 0, 64, 98
1, 299056, Control_c, 0, 64, 97
1, 299071, Control_c, 0, 64, 96
1, 299087, Control_c, 0, 64, 95
1, 299102, Control_c, 0, 64, 93
1, 299117, Control_c, 0, 64, 90
1, 299130, Note_on_c, 0, 63, 44
1, 299131, Control_c, 0, 64, 84
1, 299139, Note_on_c, 0, 60, 45
1, 299146, Control_c, 0, 64, 74
1, 299151, Note_on_c, 0, 55, 37
1, 299161, Control_c, 0, 64, 63
1, 299164, Note_on_c, 0, 36, 34
1, 299176, Control_c, 0, 64, 34
1, 299191, Control_c, 0, 64, 0
1, 299250, Control_c, 0, 64, 30
1, 299265, Control_c, 0, 64, 50
1, 299280, Control_c, 0, 64, 60
1, 299294, Control_c, 0, 64, 64
1, 299309, Control_c, 0, 64, 67
1, 299324, Control_c, 0, 64, 71
1, 299339, Control_c, 0, 64, 74
1, 299342, Note_off_c, 0, 63, 55
1, 299354, Control_c, 0, 64, 77
1, 299363, Note_off_c, 0, 36, 39
1, 299363, Note_off_c, 0, 60, 36
1, 299369, Control_c, 0, 64, 81
1, 299384, Control_c, 0, 64, 84
1, 299389, Note_on_c, 0, 67, 41
1, 299390, Note_off_c, 0, 55, 42
1, 299399, Control_c, 0, 64, 87
1, 299413, Control_c, 0, 64, 90
1, 299428, Control_c, 0, 64, 91
1, 299443, Control_c, 0, 64, 91
1, 299457, Control_c, 0, 64, 92
1, 299472, Control_c, 0, 64, 92
1, 299487, Control_c, 0, 64, 93
1, 299501, Note_off_c, 0, 67, 52
1, 299502, Control_c, 0, 64, 93
1, 299517, Control_c, 0, 64, 94
1, 299531, Control_c, 0, 64, 95
1, 299532, Note_on_c, 0, 36, 33
1, 299539, Note_on_c, 0, 63, 31
1, 299542, Note_on_c, 0, 55, 37
1, 299544, Note_on_c, 0, 60, 29
1, 299546, Control_c, 0, 64, 96
1, 299561, Control_c, 0, 64, 97
1, 299576, Control_c, 0, 64, 99
1, 299590, Control_c, 0, 64, 100
1, 299605, Control_c, 0, 64, 100
1, 299635, Control_c, 0, 64, 101
1, 299656, Note_off_c, 0, 55, 40
1, 299677, Note_off_c, 0, 63, 35
1, 299679, Note_off_c, 0, 36, 33
1, 299688, Note_on_c, 0, 67, 45
1, 299690, Note_off_c, 0, 60, 35
1, 299776, Control_c, 0, 64, 100
1, 299791, Control_c, 0, 64, 100
1, 299806, Control_c, 0, 64, 98
1, 299821, Control_c, 0, 64, 96
1, 299836, Control_c, 0, 64, 92
1, 299851, Control_c, 0, 64, 87
1, 299855, Note_off_c, 0, 67, 31
1, 299865, Control_c, 0, 64, 78
1, 299879, Note_on_c, 0, 62, 42
1, 299881, Control_c, 0, 64, 68
1, 299883, Note_on_c, 0, 59, 39
1, 299896, Control_c, 0, 64, 59
1, 299901, Note_on_c, 0, 55, 27
1, 299906, Note_on_c, 0, 31, 35
1, 299911, Control_c, 0, 64, 46
1, 299926, Control_c, 0, 64, 41
1, 299941, Control_c, 0, 64, 43
1, 299955, Control_c, 0, 64, 45
1, 299970, Control_c, 0, 64, 48
1, 299985, Control_c, 0, 64, 53
1, 300000, Control_c, 0, 64, 58
1, 300010, Note_off_c, 0, 62, 56
1, 300010, Note_off_c, 0, 59, 53
1, 300015, Control_c, 0, 64, 61
1, 300029, Control_c, 0, 64, 63
1, 300044, Control_c, 0, 64, 65
1, 300050, Note_on_c, 0, 67, 38
1, 300052, Note_off_c, 0, 55, 35
1, 300059, Control_c, 0, 64, 66
1, 300070, Note_off_c, 0, 31, 38
1, 300074, Control_c, 0, 64, 67
1, 300088, Control_c, 0, 64, 69
1, 300103, Control_c, 0, 64, 70
1, 300118, Control_c, 0, 64, 72
1, 300133, Control_c, 0, 64, 74
1, 300148, Control_c, 0, 64, 75
1, 300162, Control_c, 0, 64, 76
1, 300177, Control_c, 0, 64, 77
1, 300192, Note_off_c, 0, 67, 30
1, 300192, Control_c, 0, 64, 78
1, 300207, Control_c, 0, 64, 79
1, 300222, Control_c, 0, 64, 80
1, 300224, Note_on_c, 0, 55, 31
1, 300230, Note_on_c, 0, 62, 29
1, 300233, Note_on_c, 0, 59, 24
1, 300235, Note_on_c, 0, 31, 21
1, 300236, Control_c, 0, 64, 81
1, 300251, Control_c, 0, 64, 83
1, 300266, Control_c, 0, 64, 84
1, 300281, Control_c, 0, 64, 87
1, 300296, Control_c, 0, 64, 89
1, 300311, Control_c, 0, 64, 91
1, 300326, Control_c, 0, 64, 93
1, 300341, Control_c, 0, 64, 95
1, 300355, Control_c, 0, 64, 96
1, 300370, Note_off_c, 0, 59, 35
1, 300370, Control_c, 0, 64, 96
1, 300383, Note_off_c, 0, 62, 36
1, 300383, Note_off_c, 0, 31, 33
1, 300385, Control_c, 0, 64, 97
1, 300388, Note_off_c, 0, 55, 30
1, 300400, Note_on_c, 0, 67, 41
1, 300531, Note_off_c, 0, 67, 35
1, 300540, Control_c, 0, 64, 96
1, 300555, Control_c, 0, 64, 95
1, 300569, Control_c, 0, 64, 94
1, 300584, Control_c, 0, 64, 92
1, 300599, Control_c, 0, 64, 88
1, 300613, Control_c, 0, 64, 83
1, 300619, Note_on_c, 0, 63, 38
1, 300628, Note_on_c, 0, 60, 40
1, 300628, Control_c, 0, 64, 75
1, 300639, Note_on_c, 0, 55, 34
1, 300643, Control_c, 0, 64, 66
1, 300648, Note_on_c, 0, 36, 32
1, 300658, Control_c, 0, 64, 52
1, 300673, Control_c, 0, 64, 33
1, 300689, Control_c, 0, 64, 28
1, 300703, Control_c, 0, 64, 30
1, 300718, Control_c, 0, 64, 34
1, 300733, Control_c, 0, 64, 40
1, 300748, Control_c, 0, 64, 49
1, 300763, Control_c, 0, 64, 57
1, 300778, Control_c, 0, 64, 62
1, 300792, Control_c, 0, 64, 64
1, 300807, Control_c, 0, 64, 66
1, 300821, Note_off_c, 0, 36, 43
1, 300822, Control_c, 0, 64, 68
1, 300836, Control_c, 0, 64, 70
1, 300839, Note_off_c, 0, 63, 34
1, 300851, Note_off_c, 0, 60, 33
1, 300851, Control_c, 0, 64, 73
1, 300856, Note_on_c, 0, 67, 36
1, 300858, Note_off_c, 0, 55, 33
1, 300866, Control_c, 0, 64, 75
1, 300881, Control_c, 0, 64, 78
1, 300896, Control_c, 0, 64, 81
1, 300910, Control_c, 0, 64, 84
1, 300925, Control_c, 0, 64, 86
1, 300940, Control_c, 0, 64, 87
1, 300955, Control_c, 0, 64, 87
1, 300970, Control_c, 0, 64, 88
1, 300985, Control_c, 0, 64, 88
1, 301000, Control_c, 0, 64, 89
1, 301014, Control_c, 0, 64, 90
1, 301029, Control_c, 0, 64, 90
1, 301044, Control_c, 0, 64, 91
1, 301079, Note_off_c, 0, 67, 37
1, 301101, Note_on_c, 0, 63, 27
1, 301103, Note_on_c, 0, 60, 31
1, 301103, Control_c, 0, 64, 92
1, 301104, Note_on_c, 0, 55, 34
1, 301118, Control_c, 0, 64, 93
1, 301121, Note_on_c, 0, 36, 31
1, 301133, Control_c, 0, 64, 95
1, 301148, Control_c, 0, 64, 97
1, 301163, Control_c, 0, 64, 99
1, 301177, Control_c, 0, 64, 100
1, 301192, Control_c, 0, 64, 100
1, 301207, Control_c, 0, 64, 101
1, 301229, Control_c, 0, 64, 102
1, 301244, Control_c, 0, 64, 102
1, 301247, Note_off_c, 0, 36, 36
1, 301259, Control_c, 0, 64, 103
1, 301289, Control_c, 0, 64, 103
1, 301345, Note_off_c, 0, 55, 34
1, 301421, Note_on_c, 0, 67, 38
1, 301472, Note_off_c, 0, 60, 40
1, 301476, Note_off_c, 0, 63, 38
1, 301512, Control_c, 0, 64, 104
1, 301527, Note_off_c, 0, 67, 52
1, 301556, Control_c, 0, 64, 104
1, 301719, Control_c, 0, 67, 126
1, 301733, Control_c, 0, 67, 124
1, 301748, Control_c, 0, 67, 121
1, 301763, Control_c, 0, 64, 103
1, 301763, Control_c, 0, 67, 119
1, 301778, Control_c, 0, 64, 96
1, 301778, Control_c, 0, 67, 117
1, 301793, Control_c, 0, 64, 86
1, 301793, Control_c, 0, 67, 114
1, 301807, Control_c, 0, 64, 74
1, 301807, Control_c, 0, 67, 112
1, 301816, Note_on_c, 0, 63, 57
1, 301822, Control_c, 0, 64, 64
1, 301822, Control_c, 0, 67, 108
1, 301837, Control_c, 0, 64, 48
1, 301837, Control_c, 0, 67, 104
1, 301852, Control_c, 0, 64, 0
1, 301852, Control_c, 0, 67, 100
1, 301859, Note_off_c, 0, 63, 61
1, 301867, Control_c, 0, 67, 98
1, 301882, Control_c, 0, 67, 97
1, 301930, Note_on_c, 0, 67, 63
1, 301941, Control_c, 0, 67, 96
1, 301969, Note_off_c, 0, 67, 62
1, 301978, Control_c, 0, 67, 95
1, 302052, Control_c, 0, 67, 96
1, 302056, Note_on_c, 0, 71, 70
1, 302094, Note_off_c, 0, 71, 63
1, 302097, Control_c, 0, 67, 97
1, 302175, Note_on_c, 0, 72, 79
1, 302183, Note_on_c, 0, 60, 54
1, 302184, Note_on_c, 0, 63, 49
1, 302186, Note_on_c, 0, 67, 54
1, 302186, Control_c, 0, 67, 96
1, 302200, Control_c, 0, 67, 95
1, 302207, Note_off_c, 0, 72, 64
1, 302214, Note_off_c, 0, 63, 61
1, 302215, Control_c, 0, 67, 94
1, 302219, Note_off_c, 0, 67, 65
1, 302222, Note_off_c, 0, 60, 64
1, 302230, Control_c, 0, 67, 94
1, 302245, Control_c, 0, 67, 93
1, 302259, Control_c, 0, 67, 92
1, 302274, Control_c, 0, 67, 88
1, 302290, Control_c, 0, 67, 79
1, 302292, Note_on_c, 0, 72, 72
1, 302297, Note_on_c, 0, 60, 54
1, 302300, Note_on_c, 0, 67, 53
1, 302305, Note_on_c, 0, 63, 47
1, 302305, Control_c, 0, 67, 72
1, 302318, Note_off_c, 0, 72, 67
1, 302320, Control_c, 0, 67, 67
1, 302329, Note_off_c, 0, 67, 61
1, 302334, Note_off_c, 0, 63, 57
1, 302335, Control_c, 0, 67, 65
1, 302338, Note_off_c, 0, 60, 61
1, 302350, Control_c, 0, 67, 64
1, 302364, Control_c, 0, 67, 62
1, 302393, Note_on_c, 0, 72, 64
1, 302394, Control_c, 0, 67, 61
1, 302407, Note_on_c, 0, 60, 47
1, 302409, Control_c, 0, 67, 61
1, 302414, Note_on_c, 0, 67, 48
1, 302415, Note_on_c, 0, 63, 48
1, 302424, Control_c, 0, 67, 59
1, 302434, Note_off_c, 0, 72, 61
1, 302438, Note_off_c, 0, 67, 57
1, 302438, Control_c, 0, 67, 57
1, 302441, Note_off_c, 0, 60, 60
1, 302443, Note_off_c, 0, 63, 57
1, 302453, Control_c, 0, 67, 52
1, 302468, Control_c, 0, 67, 49
1, 302482, Control_c, 0, 67, 47
1, 302497, Control_c, 0, 67, 46
1, 302512, Control_c, 0, 67, 44
1, 302519, Note_on_c, 0, 67, 63
1, 302522, Note_on_c, 0, 72, 74
1, 302527, Control_c, 0, 67, 42
1, 302528, Note_on_c, 0, 63, 65
1, 302529, Note_on_c, 0, 60, 59
1, 302542, Control_c, 0, 67, 40
1, 302548, Note_off_c, 0, 67, 66
1, 302556, Control_c, 0, 67, 39
1, 302559, Note_off_c, 0, 72, 64
1, 302562, Note_off_c, 0, 60, 66
1, 302562, Note_off_c, 0, 63, 63
1, 302571, Control_c, 0, 67, 38
1, 302586, Control_c, 0, 67, 37
1, 302601, Control_c, 0, 67, 36
1, 302616, Control_c, 0, 67, 34
1, 302630, Control_c, 0, 67, 30
1, 302643, Note_on_c, 0, 74, 66
1, 302645, Control_c, 0, 67, 26
1, 302660, Control_c, 0, 67, 24
1, 302675, Control_c, 0, 67, 23
1, 302681, Note_off_c, 0, 74, 62
1, 302690, Control_c, 0, 67, 22
1, 302705, Control_c, 0, 67, 21
1, 302742, Control_c, 0, 67, 21
1, 302770, Note_on_c, 0, 75, 67
1, 302811, Note_off_c, 0, 75, 60
1, 302830, Control_c, 0, 67, 20
1, 302892, Note_on_c, 0, 74, 77
1, 302919, Control_c, 0, 67, 19
1, 302926, Note_off_c, 0, 74, 60
1, 302934, Control_c, 0, 67, 19
1, 303006, Note_on_c, 0, 71, 54
1, 303039, Note_off_c, 0, 71, 66
1, 303053, Control_c, 0, 67, 18
1, 303083, Control_c, 0, 67, 17
1, 303125, Note_on_c, 0, 67, 58
1, 303143, Control_c, 0, 67, 17
1, 303158, Note_off_c, 0, 67, 65
1, 303173, Control_c, 0, 67, 16
1, 303234, Note_on_c, 0, 67, 79
1, 303235, Note_on_c, 0, 62, 62
1, 303240, Note_on_c, 0, 59, 57
1, 303276, Note_off_c, 0, 62, 62
1, 303276, Control_c, 0, 67, 14
1, 303281, Note_off_c, 0, 59, 63
1, 303281, Note_off_c, 0, 67, 64
1, 303291, Control_c, 0, 67, 11
1, 303305, Control_c, 0, 67, 8
1, 303320, Control_c, 0, 67, 0
1, 303339, Note_on_c, 0, 67, 67
1, 303366, Note_on_c, 0, 59, 46
1, 303368, Note_on_c, 0, 62, 47
1, 303375, Note_off_c, 0, 67, 64
1, 303401, Note_off_c, 0, 62, 61
1, 303404, Note_off_c, 0, 59, 62
1, 303465, Note_on_c, 0, 67, 66
1, 303504, Note_on_c, 0, 62, 43
1, 303504, Note_off_c, 0, 67, 65
1, 303521, Note_on_c, 0, 59, 29
1, 303532, Note_off_c, 0, 62, 56
1, 303551, Note_off_c, 0, 59, 47
1, 303578, Note_on_c, 0, 68, 76
1, 303596, Note_on_c, 0, 59, 53
1, 303597, Note_on_c, 0, 67, 70
1, 303599, Note_off_c, 0, 68, 67
1, 303606, Note_on_c, 0, 62, 64
1, 303628, Note_off_c, 0, 59, 65
1, 303635, Note_off_c, 0, 62, 64
1, 303649, Note_off_c, 0, 67, 60
1, 303712, Note_on_c, 0, 66, 56
1, 303743, Note_off_c, 0, 66, 63
1, 303827, Note_on_c, 0, 67, 67
1, 303861, Note_off_c, 0, 67, 63
1, 303957, Note_on_c, 0, 67, 67
1, 303986, Note_off_c, 0, 67, 67
1, 304067, Note_on_c, 0, 70, 66
1, 304103, Note_off_c, 0, 70, 64
1, 304179, Note_on_c, 0, 73, 71
1, 304234, Note_off_c, 0, 73, 64
1, 304296, Note_on_c, 0, 76, 78
1, 304301, Note_on_c, 0, 70, 61
1, 304311, Note_on_c, 0, 73, 47
1, 304312, Note_on_c, 0, 67, 55
1, 304338, Note_off_c, 0, 73, 60
1, 304338, Note_off_c, 0, 76, 63
1, 304340, Note_off_c, 0, 70, 62
1, 304352, Note_off_c, 0, 67, 62
1, 304405, Note_on_c, 0, 70, 55
1, 304408, Note_on_c, 0, 76, 83
1, 304419, Note_on_c, 0, 67, 58
1, 304421, Note_on_c, 0, 73, 59
1, 304443, Note_off_c, 0, 76, 66
1, 304451, Note_off_c, 0, 70, 59
1, 304453, Note_off_c, 0, 73, 63
1, 304457, Note_off_c, 0, 67, 60
1, 304524, Note_on_c, 0, 76, 75
1, 304525, Note_on_c, 0, 70, 50
1, 304530, Note_on_c, 0, 73, 60
1, 304535, Note_on_c, 0, 67, 44
1, 304551, Note_off_c, 0, 76, 64
1, 304568, Note_off_c, 0, 73, 61
1, 304572, Note_off_c, 0, 70, 60
1, 304573, Note_off_c, 0, 67, 62
1, 304634, Note_on_c, 0, 76, 66
1, 304661, Note_on_c, 0, 70, 41
1, 304669, Note_on_c, 0, 73, 45
1, 304673, Note_on_c, 0, 67, 41
1, 304675, Note_off_c, 0, 76, 63
1, 304696, Note_off_c, 0, 73, 58
1, 304702, Note_off_c, 0, 67, 58
1, 304723, Note_off_c, 0, 70, 60
1, 304760, Note_on_c, 0, 77, 67
1, 304793, Note_off_c, 0, 77, 64
1, 304882, Note_on_c, 0, 79, 68
1, 304909, Note_off_c, 0, 79, 68
1, 305014, Note_on_c, 0, 77, 76
1, 305051, Note_off_c, 0, 77, 60
1, 305119, Note_on_c, 0, 81, 68
1, 305158, Note_off_c, 0, 81, 65
1, 305241, Note_on_c, 0, 84, 77
1, 305276, Note_off_c, 0, 84, 66
1, 305358, Note_on_c, 0, 84, 81
1, 305360, Note_on_c, 0, 72, 60
1, 305361, Note_on_c, 0, 69, 57
1, 305363, Note_on_c, 0, 77, 59
1, 305383, Note_off_c, 0, 84, 66
1, 305397, Note_off_c, 0, 69, 62
1, 305398, Note_off_c, 0, 72, 64
1, 305399, Note_off_c, 0, 77, 64
1, 305468, Note_on_c, 0, 72, 58
1, 305469, Note_on_c, 0, 84, 75
1, 305474, Note_on_c, 0, 77, 65
1, 305478, Note_on_c, 0, 69, 54
1, 305493, Note_off_c, 0, 84, 69
1, 305504, Note_off_c, 0, 77, 66
1, 305505, Note_off_c, 0, 69, 63
1, 305510, Note_off_c, 0, 72, 61
1, 305575, Note_on_c, 0, 84, 75
1, 305581, Note_on_c, 0, 72, 54
1, 305584, Note_on_c, 0, 69, 62
1, 305584, Note_on_c, 0, 77, 61
1, 305614, Note_off_c, 0, 84, 65
1, 305616, Note_off_c, 0, 77, 63
1, 305627, Note_off_c, 0, 72, 62
1, 305661, Note_off_c, 0, 69, 0
1, 305669, Note_on_c, 0, 86, 75
1, 305676, Note_on_c, 0, 69, 49
1, 305689, Note_on_c, 0, 77, 67
1, 305697, Note_off_c, 0, 86, 67
1, 305700, Note_on_c, 0, 72, 47
1, 305701, Note_on_c, 0, 84, 77
1, 305723, Note_off_c, 0, 69, 62
1, 305726, Note_off_c, 0, 77, 64
1, 305739, Note_off_c, 0, 72, 66
1, 305757, Note_off_c, 0, 84, 62
1, 305809, Note_on_c, 0, 83, 62
1, 305852, Note_off_c, 0, 83, 63
1, 305918, Note_on_c, 0, 84, 69
1, 305943, Note_off_c, 0, 84, 69
1, 306028, Note_on_c, 0, 78, 78
1, 306069, Note_off_c, 0, 78, 62
1, 306133, Note_on_c, 0, 81, 74
1, 306169, Note_off_c, 0, 81, 65
1, 306243, Note_on_c, 0, 84, 74
1, 306283, Note_off_c, 0, 84, 66
1, 306354, Note_on_c, 0, 81, 76
1, 306355, Note_on_c, 0, 87, 88
1, 306357, Note_on_c, 0, 78, 74
1, 306360, Note_on_c, 0, 72, 71
1, 306391, Note_off_c, 0, 81, 62
1, 306392, Note_off_c, 0, 78, 64
1, 306397, Note_off_c, 0, 72, 63
1, 306404, Note_off_c, 0, 87, 66
1, 306464, Note_on_c, 0, 87, 81
1, 306465, Note_on_c, 0, 81, 65
1, 306478, Note_on_c, 0, 78, 65
1, 306480, Note_on_c, 0, 72, 56
1, 306506, Note_off_c, 0, 81, 60
1, 306511, Note_off_c, 0, 78, 65
1, 306512, Note_off_c, 0, 87, 65
1, 306514, Note_off_c, 0, 72, 65
1, 306581, Note_on_c, 0, 87, 84
1, 306583, Note_on_c, 0, 78, 69
1, 306586, Note_on_c, 0, 72, 65
1, 306588, Note_on_c, 0, 81, 64
1, 306617, Note_off_c, 0, 72, 64
1, 306617, Note_off_c, 0, 81, 66
1, 306625, Note_off_c, 0, 87, 64
1, 306627, Note_off_c, 0, 78, 59
1, 306685, Note_on_c, 0, 89, 87
1, 306706, Note_on_c, 0, 87, 84
1, 306720, Note_off_c, 0, 89, 65
1, 306744, Note_off_c, 0, 87, 66
1, 306815, Note_on_c, 0, 86, 69
1, 306840, Note_off_c, 0, 86, 68
1, 306935, Note_on_c, 0, 87, 26
1, 306947, Note_off_c, 0, 87, 41
1, 307029, Note_on_c, 0, 83, 71
1, 307072, Note_off_c, 0, 83, 61
1, 307143, Note_on_c, 0, 86, 69
1, 307186, Note_off_c, 0, 86, 60
1, 307252, Note_on_c, 0, 89, 72
1, 307279, Note_off_c, 0, 89, 68
1, 307338, Control_c, 0, 64, 29
1, 307352, Control_c, 0, 64, 59
1, 307366, Note_on_c, 0, 80, 82
1, 307367, Note_on_c, 0, 94, 96
1, 307367, Note_on_c, 0, 77, 75
1, 307367, Note_on_c, 0, 92, 100
1, 307367, Control_c, 0, 64, 75
1, 307368, Note_on_c, 0, 74, 73
1, 307370, Note_on_c, 0, 71, 68
1, 307382, Control_c, 0, 64, 127
1, 307386, Note_off_c, 0, 80, 70
1, 307391, Note_off_c, 0, 77, 69
1, 307398, Note_off_c, 0, 74, 64
1, 307403, Note_off_c, 0, 71, 65
1, 307415, Note_off_c, 0, 92, 65
1, 307418, Note_off_c, 0, 94, 65
1, 307426, Control_c, 0, 64, 93
1, 307441, Control_c, 0, 64, 74
1, 307456, Control_c, 0, 64, 61
1, 307471, Control_c, 0, 64, 50
1, 307480, Note_on_c, 0, 91, 73
1, 307486, Control_c, 0, 64, 45
1, 307501, Control_c, 0, 64, 44
1, 307511, Note_off_c, 0, 91, 65
1, 307560, Control_c, 0, 64, 44
1, 307575, Control_c, 0, 64, 42
1, 307590, Control_c, 0, 64, 41
1, 307594, Note_on_c, 0, 89, 65
1, 307605, Control_c, 0, 64, 39
1, 307619, Control_c, 0, 64, 37
1, 307634, Control_c, 0, 64, 34
1, 307636, Note_off_c, 0, 89, 66
1, 307649, Control_c, 0, 64, 30
1, 307663, Control_c, 0, 64, 26
1, 307678, Control_c, 0, 64, 22
1, 307693, Control_c, 0, 64, 16
1, 307705, Note_on_c, 0, 91, 80
1, 307708, Control_c, 0, 64, 0
1, 307727, Note_on_c, 0, 89, 72
1, 307748, Note_off_c, 0, 91, 64
1, 307774, Note_off_c, 0, 89, 63
1, 307826, Note_on_c, 0, 87, 58
1, 307870, Note_off_c, 0, 87, 58
1, 307931, Control_c, 0, 67, 11
1, 307946, Control_c, 0, 67, 21
1, 307953, Note_on_c, 0, 86, 56
1, 307961, Control_c, 0, 67, 30
1, 307983, Control_c, 0, 67, 40
1, 307990, Note_off_c, 0, 86, 67
1, 307998, Control_c, 0, 67, 50
1, 308013, Control_c, 0, 67, 57
1, 308028, Control_c, 0, 67, 64
1, 308043, Control_c, 0, 67, 70
1, 308057, Control_c, 0, 67, 75
1, 308067, Note_on_c, 0, 82, 86
1, 308072, Control_c, 0, 67, 77
1, 308079, Note_on_c, 0, 80, 80
1, 308113, Note_off_c, 0, 82, 67
1, 308129, Note_off_c, 0, 80, 63
1, 308131, Control_c, 0, 67, 76
1, 308146, Control_c, 0, 67, 75
1, 308161, Control_c, 0, 67, 74
1, 308175, Control_c, 0, 67, 72
1, 308189, Note_on_c, 0, 79, 61
1, 308190, Control_c, 0, 67, 71
1, 308205, Control_c, 0, 67, 71
1, 308222, Note_off_c, 0, 79, 66
1, 308235, Control_c, 0, 67, 70
1, 308279, Control_c, 0, 67, 69
1, 308306, Note_on_c, 0, 77, 61
1, 308342, Note_off_c, 0, 77, 65
1, 308383, Control_c, 0, 67, 69
1, 308413, Control_c, 0, 67, 68
1, 308425, Note_on_c, 0, 79, 80
1, 308442, Control_c, 0, 67, 67
1, 308444, Note_on_c, 0, 77, 73
1, 308457, Control_c, 0, 67, 67
1, 308464, Note_off_c, 0, 79, 63
1, 308494, Note_off_c, 0, 77, 62
1, 308546, Control_c, 0, 67, 66
1, 308553, Note_on_c, 0, 75, 47
1, 308575, Control_c, 0, 67, 66
1, 308582, Note_off_c, 0, 75, 59
1, 308663, Note_on_c, 0, 74, 50
1, 308680, Control_c, 0, 67, 65
1, 308695, Note_off_c, 0, 74, 63
1, 308710, Control_c, 0, 67, 64
1, 308791, Note_on_c, 0, 68, 77
1, 308818, Note_on_c, 0, 67, 72
1, 308828, Note_off_c, 0, 68, 61
1, 308855, Note_off_c, 0, 67, 62
1, 308935, Note_on_c, 0, 65, 61
1, 308954, Control_c, 0, 67, 64
1, 308977, Note_off_c, 0, 65, 58
1, 309013, Control_c, 0, 67, 63
1, 309028, Control_c, 0, 67, 62
1, 309043, Control_c, 0, 67, 62
1, 309048, Note_on_c, 0, 63, 55
1, 309087, Note_off_c, 0, 63, 64
1, 309131, Control_c, 0, 67, 61
1, 309154, Note_on_c, 0, 65, 76
1, 309174, Note_on_c, 0, 63, 63
1, 309176, Control_c, 0, 67, 61
1, 309201, Note_off_c, 0, 65, 60
1, 309207, Note_off_c, 0, 63, 65
1, 309221, Control_c, 0, 67, 60
1, 309265, Control_c, 0, 67, 59
1, 309280, Control_c, 0, 67, 59
1, 309286, Note_on_c, 0, 62, 51
1, 309295, Control_c, 0, 67, 58
1, 309310, Control_c, 0, 67, 57
1, 309320, Note_off_c, 0, 62, 65
1, 309324, Control_c, 0, 67, 56
1, 309339, Control_c, 0, 67, 53
1, 309354, Control_c, 0, 64, 26
1, 309354, Control_c, 0, 67, 51
1, 309369, Control_c, 0, 64, 41
1, 309369, Control_c, 0, 67, 47
1, 309384, Control_c, 0, 64, 52
1, 309384, Control_c, 0, 67, 36
1, 309398, Control_c, 0, 64, 58
1, 309398, Control_c, 0, 67, 14
1, 309402, Note_on_c, 0, 60, 53
1, 309413, Control_c, 0, 64, 62
1, 309413, Control_c, 0, 67, 0
1, 309428, Control_c, 0, 64, 62
1, 309431, Note_off_c, 0, 60, 64
1, 309466, Control_c, 0, 64, 62
1, 309495, Control_c, 0, 64, 61
1, 309510, Control_c, 0, 64, 60
1, 309525, Note_on_c, 0, 53, 72
1, 309525, Control_c, 0, 64, 59
1, 309540, Control_c, 0, 64, 57
1, 309552, Note_on_c, 0, 51, 75
1, 309555, Control_c, 0, 64, 53
1, 309561, Note_off_c, 0, 53, 61
1, 309570, Control_c, 0, 64, 49
1, 309585, Control_c, 0, 64, 44
1, 309599, Control_c, 0, 64, 37
1, 309608, Note_off_c, 0, 51, 63
1, 309614, Control_c, 0, 64, 30
1, 309629, Control_c, 0, 64, 24
1, 309644, Control_c, 0, 64, 18
1, 309659, Control_c, 0, 64, 0
1, 309666, Note_on_c, 0, 50, 61
1, 309698, Note_off_c, 0, 50, 64
1, 309703, Control_c, 0, 67, 24
1, 309718, Control_c, 0, 67, 44
1, 309733, Control_c, 0, 67, 64
1, 309747, Control_c, 0, 67, 82
1, 309762, Control_c, 0, 67, 97
1, 309776, Note_on_c, 0, 48, 52
1, 309777, Control_c, 0, 67, 109
1, 309792, Control_c, 0, 67, 114
1, 309807, Control_c, 0, 67, 118
1, 309812, Note_off_c, 0, 48, 64
1, 309821, Control_c, 0, 67, 121
1, 309836, Control_c, 0, 67, 123
1, 309851, Control_c, 0, 67, 125
1, 309866, Control_c, 0, 67, 125
1, 309881, Control_c, 0, 67, 127
1, 309909, Note_on_c, 0, 41, 57
1, 309910, Control_c, 0, 67, 127
1, 309943, Note_off_c, 0, 41, 64
1, 309949, Note_on_c, 0, 39, 62
1, 309991, Note_off_c, 0, 39, 64
1, 310064, Note_on_c, 0, 38, 49
1, 310103, Note_off_c, 0, 38, 63
1, 310229, Note_on_c, 0, 36, 42
1, 310276, Note_off_c, 0, 36, 60
1, 310528, Note_on_c, 0, 75, 49
1, 310547, Note_on_c, 0, 36, 42
1, 310667, Note_on_c, 0, 67, 46
1, 310680, Note_off_c, 0, 36, 58
1, 310722, Note_off_c, 0, 67, 58
1, 310753, Note_off_c, 0, 75, 32
1, 310754, Note_on_c, 0, 70, 53
1, 310786, Note_on_c, 0, 68, 55
1, 310804, Note_off_c, 0, 70, 57
1, 310865, Note_off_c, 0, 68, 60
1, 310880, Note_on_c, 0, 67, 50
1, 310985, Note_off_c, 0, 67, 54
1, 311006, Note_on_c, 0, 75, 60
1, 311018, Note_on_c, 0, 36, 39
1, 311051, Control_c, 0, 67, 127
1, 311067, Control_c, 0, 67, 126
1, 311082, Control_c, 0, 67, 125
1, 311097, Control_c, 0, 67, 125
1, 311120, Note_on_c, 0, 67, 50
1, 311126, Control_c, 0, 67, 124
1, 311150, Note_off_c, 0, 36, 50
1, 311156, Control_c, 0, 67, 124
1, 311175, Note_off_c, 0, 67, 57
1, 311182, Note_off_c, 0, 75, 33
1, 311201, Note_on_c, 0, 70, 60
1, 311230, Control_c, 0, 67, 123
1, 311248, Note_on_c, 0, 68, 56
1, 311260, Note_off_c, 0, 70, 50
1, 311290, Control_c, 0, 67, 122
1, 311322, Note_off_c, 0, 68, 61
1, 311332, Note_on_c, 0, 67, 57
1, 311364, Control_c, 0, 67, 122
1, 311435, Note_off_c, 0, 67, 55
1, 311459, Note_on_c, 0, 75, 64
1, 311484, Note_on_c, 0, 36, 36
1, 311511, Control_c, 0, 67, 121
1, 311570, Note_on_c, 0, 67, 52
1, 311620, Note_off_c, 0, 75, 48
1, 311638, Note_off_c, 0, 36, 48
1, 311638, Note_off_c, 0, 67, 57
1, 311675, Note_on_c, 0, 70, 53
1, 311699, Note_on_c, 0, 68, 61
1, 311743, Note_off_c, 0, 70, 56
1, 311796, Note_on_c, 0, 67, 56
1, 311799, Note_off_c, 0, 68, 58
1, 311951, Note_off_c, 0, 67, 57
1, 311962, Note_on_c, 0, 74, 54
1, 311985, Note_on_c, 0, 35, 36
1, 312083, Note_on_c, 0, 67, 46
1, 312101, Note_off_c, 0, 74, 55
1, 312175, Note_on_c, 0, 71, 52
1, 312175, Note_off_c, 0, 67, 60
1, 312178, Note_off_c, 0, 35, 46
1, 312218, Note_on_c, 0, 69, 51
1, 312232, Note_off_c, 0, 71, 50
1, 312289, Note_off_c, 0, 69, 64
1, 312309, Note_on_c, 0, 67, 56
1, 312320, Control_c, 0, 67, 120
1, 312349, Control_c, 0, 67, 120
1, 312389, Note_off_c, 0, 67, 62
1, 312408, Control_c, 0, 67, 119
1, 312416, Note_on_c, 0, 66, 53
1, 312475, Control_c, 0, 64, 17
1, 312490, Control_c, 0, 64, 33
1, 312505, Control_c, 0, 64, 38
1, 312511, Note_off_c, 0, 66, 63
1, 312520, Control_c, 0, 64, 39
1, 312535, Control_c, 0, 64, 40
1, 312535, Control_c, 0, 67, 119
1, 312539, Note_on_c, 0, 67, 61
1, 312579, Control_c, 0, 67, 118
1, 312631, Note_off_c, 0, 67, 60
1, 312650, Note_on_c, 0, 71, 63
1, 312684, Control_c, 0, 64, 39
1, 312713, Control_c, 0, 64, 39
1, 312722, Note_off_c, 0, 71, 64
1, 312728, Control_c, 0, 67, 119
1, 312743, Control_c, 0, 67, 119
1, 312747, Note_on_c, 0, 74, 59
1, 312758, Control_c, 0, 64, 38
1, 312758, Control_c, 0, 67, 120
1, 312780, Note_off_c, 0, 74, 65
1, 312787, Control_c, 0, 67, 120
1, 312802, Control_c, 0, 64, 38
1, 312817, Control_c, 0, 64, 37
1, 312832, Control_c, 0, 64, 37
1, 312832, Control_c, 0, 67, 121
1, 312861, Control_c, 0, 64, 36
1, 312864, Note_on_c, 0, 79, 62
1, 312876, Control_c, 0, 64, 35
1, 312891, Control_c, 0, 64, 34
1, 312906, Control_c, 0, 64, 32
1, 312920, Control_c, 0, 64, 31
1, 312935, Control_c, 0, 64, 30
1, 312950, Control_c, 0, 64, 29
1, 312957, Note_off_c, 0, 79, 56
1, 312968, Note_on_c, 0, 83, 62
1, 313010, Control_c, 0, 64, 30
1, 313025, Control_c, 0, 64, 33
1, 313039, Control_c, 0, 64, 37
1, 313054, Control_c, 0, 64, 44
1, 313065, Note_off_c, 0, 83, 63
1, 313069, Control_c, 0, 64, 52
1, 313069, Control_c, 0, 67, 122
1, 313083, Control_c, 0, 64, 58
1, 313083, Control_c, 0, 67, 122
1, 313098, Control_c, 0, 64, 62
1, 313098, Control_c, 0, 67, 123
1, 313101, Note_on_c, 0, 86, 57
1, 313113, Control_c, 0, 64, 64
1, 313113, Control_c, 0, 67, 124
1, 313128, Control_c, 0, 64, 67
1, 313128, Control_c, 0, 67, 125
1, 313143, Control_c, 0, 64, 69
1, 313143, Control_c, 0, 67, 126
1, 313157, Control_c, 0, 64, 72
1, 313157, Control_c, 0, 67, 127
1, 313172, Control_c, 0, 64, 75
1, 313187, Control_c, 0, 64, 78
1, 313190, Note_off_c, 0, 86, 62
1, 313202, Control_c, 0, 64, 80
1, 313213, Note_on_c, 0, 79, 65
1, 313224, Control_c, 0, 64, 81
1, 313239, Control_c, 0, 64, 82
1, 313240, Note_off_c, 0, 79, 68
1, 313283, Control_c, 0, 64, 81
1, 313298, Control_c, 0, 64, 80
1, 313313, Control_c, 0, 64, 78
1, 313328, Control_c, 0, 64, 76
1, 313343, Control_c, 0, 64, 71
1, 313347, Note_on_c, 0, 34, 51
1, 313351, Note_on_c, 0, 73, 61
1, 313358, Control_c, 0, 64, 66
1, 313372, Control_c, 0, 64, 59
1, 313387, Control_c, 0, 64, 50
1, 313402, Control_c, 0, 64, 43
1, 313417, Control_c, 0, 64, 42
1, 313432, Control_c, 0, 64, 42
1, 313446, Control_c, 0, 64, 41
1, 313449, Note_off_c, 0, 73, 63
1, 313455, Note_on_c, 0, 64, 62
1, 313462, Control_c, 0, 64, 39
1, 313477, Control_c, 0, 64, 36
1, 313492, Control_c, 0, 64, 32
1, 313507, Control_c, 0, 64, 29
1, 313519, Note_off_c, 0, 64, 60
1, 313522, Control_c, 0, 64, 25
1, 313536, Control_c, 0, 64, 22
1, 313543, Note_off_c, 0, 34, 58
1, 313551, Control_c, 0, 64, 19
1, 313554, Note_on_c, 0, 67, 61
1, 313566, Control_c, 0, 64, 18
1, 313581, Control_c, 0, 64, 16
1, 313585, Note_on_c, 0, 65, 61
1, 313595, Control_c, 0, 64, 15
1, 313605, Note_off_c, 0, 67, 52
1, 313610, Control_c, 0, 64, 14
1, 313610, Control_c, 0, 67, 127
1, 313625, Control_c, 0, 64, 13
1, 313625, Control_c, 0, 67, 126
1, 313640, Control_c, 0, 67, 125
1, 313655, Control_c, 0, 64, 12
1, 313655, Control_c, 0, 67, 124
1, 313668, Note_off_c, 0, 65, 58
1, 313669, Control_c, 0, 67, 124
1, 313681, Note_on_c, 0, 64, 64
1, 313684, Control_c, 0, 67, 123
1, 313699, Control_c, 0, 67, 122
1, 313713, Control_c, 0, 67, 122
1, 313728, Control_c, 0, 67, 120
1, 313743, Control_c, 0, 67, 120
1, 313758, Control_c, 0, 64, 11
1, 313758, Control_c, 0, 67, 119
1, 313771, Note_off_c, 0, 64, 61
1, 313773, Control_c, 0, 67, 119
1, 313788, Control_c, 0, 64, 9
1, 313794, Note_on_c, 0, 73, 69
1, 313803, Control_c, 0, 64, 0
1, 313806, Note_on_c, 0, 34, 52
1, 313817, Control_c, 0, 67, 118
1, 313832, Control_c, 0, 67, 112
1, 313847, Control_c, 0, 67, 102
1, 313862, Control_c, 0, 67, 92
1, 313877, Control_c, 0, 67, 86
1, 313892, Control_c, 0, 67, 81
1, 313901, Note_on_c, 0, 64, 60
1, 313906, Control_c, 0, 67, 76
1, 313921, Control_c, 0, 67, 72
1, 313936, Control_c, 0, 67, 69
1, 313943, Note_off_c, 0, 73, 54
1, 313958, Control_c, 0, 67, 66
1, 313973, Control_c, 0, 67, 65
1, 313976, Note_off_c, 0, 64, 61
1, 313987, Control_c, 0, 67, 64
1, 314003, Note_off_c, 0, 34, 58
1, 314005, Note_on_c, 0, 67, 63
1, 314017, Control_c, 0, 67, 64
1, 314035, Note_on_c, 0, 65, 65
1, 314065, Note_off_c, 0, 67, 57
1, 314113, Note_off_c, 0, 65, 60
1, 314120, Note_on_c, 0, 64, 65
1, 314166, Control_c, 0, 67, 63
1, 314223, Note_off_c, 0, 64, 58
1, 314247, Note_on_c, 0, 73, 68
1, 314259, Note_on_c, 0, 34, 46
1, 314352, Note_on_c, 0, 64, 58
1, 314387, Note_off_c, 0, 73, 63
1, 314444, Note_off_c, 0, 64, 60
1, 314461, Note_off_c, 0, 34, 56
1, 314463, Control_c, 0, 67, 64
1, 314467, Note_on_c, 0, 67, 47
1, 314478, Control_c, 0, 67, 65
1, 314484, Note_on_c, 0, 65, 60
1, 314492, Control_c, 0, 67, 66
1, 314507, Control_c, 0, 67, 66
1, 314522, Control_c, 0, 67, 67
1, 314536, Control_c, 0, 67, 69
1, 314541, Note_off_c, 0, 67, 58
1, 314551, Control_c, 0, 67, 70
1, 314566, Control_c, 0, 67, 71
1, 314574, Note_on_c, 0, 64, 58
1, 314578, Note_off_c, 0, 65, 58
1, 314581, Control_c, 0, 67, 72
1, 314596, Control_c, 0, 67, 73
1, 314610, Control_c, 0, 67, 74
1, 314625, Control_c, 0, 67, 75
1, 314640, Control_c, 0, 67, 76
1, 314655, Control_c, 0, 67, 77
1, 314670, Control_c, 0, 67, 79
1, 314685, Control_c, 0, 67, 79
1, 314693, Note_off_c, 0, 64, 60
1, 314700, Control_c, 0, 67, 81
1, 314722, Control_c, 0, 67, 82
1, 314727, Note_on_c, 0, 72, 57
1, 314736, Control_c, 0, 67, 82
1, 314745, Note_on_c, 0, 33, 40
1, 314751, Control_c, 0, 67, 84
1, 314766, Control_c, 0, 67, 84
1, 314781, Control_c, 0, 67, 86
1, 314796, Control_c, 0, 67, 86
1, 314810, Control_c, 0, 67, 87
1, 314825, Control_c, 0, 67, 88
1, 314840, Control_c, 0, 67, 89
1, 314843, Note_on_c, 0, 65, 53
1, 314855, Control_c, 0, 67, 89
1, 314870, Control_c, 0, 67, 90
1, 314885, Control_c, 0, 67, 90
1, 314900, Control_c, 0, 67, 91
1, 314912, Note_off_c, 0, 72, 34
1, 314914, Control_c, 0, 67, 92
1, 314929, Note_off_c, 0, 65, 58
1, 314929, Control_c, 0, 67, 92
1, 314950, Note_on_c, 0, 69, 49
1, 314974, Note_on_c, 0, 67, 55
1, 314989, Control_c, 0, 67, 92
1, 315004, Control_c, 0, 67, 90
1, 315007, Note_off_c, 0, 69, 55
1, 315018, Control_c, 0, 67, 89
1, 315033, Control_c, 0, 67, 87
1, 315039, Note_off_c, 0, 33, 51
1, 315045, Note_off_c, 0, 67, 62
1, 315048, Control_c, 0, 67, 86
1, 315063, Note_on_c, 0, 65, 55
1, 315063, Control_c, 0, 67, 84
1, 315078, Control_c, 0, 67, 82
1, 315093, Control_c, 0, 67, 81
1, 315108, Control_c, 0, 67, 79
1, 315123, Control_c, 0, 67, 79
1, 315138, Control_c, 0, 67, 77
1, 315152, Control_c, 0, 67, 77
1, 315156, Note_off_c, 0, 65, 60
1, 315167, Control_c, 0, 67, 76
1, 315179, Note_on_c, 0, 64, 55
1, 315182, Control_c, 0, 67, 76
1, 315197, Control_c, 0, 67, 75
1, 315212, Control_c, 0, 67, 74
1, 315241, Control_c, 0, 67, 74
1, 315250, Note_off_c, 0, 64, 62
1, 315286, Control_c, 0, 64, 11
1, 315286, Control_c, 0, 67, 73
1, 315295, Note_on_c, 0, 65, 63
1, 315301, Control_c, 0, 64, 31
1, 315301, Control_c, 0, 67, 72
1, 315315, Control_c, 0, 64, 41
1, 315315, Control_c, 0, 67, 72
1, 315330, Control_c, 0, 64, 47
1, 315345, Control_c, 0, 64, 50
1, 315345, Control_c, 0, 67, 71
1, 315359, Control_c, 0, 64, 51
1, 315359, Control_c, 0, 67, 71
1, 315374, Control_c, 0, 67, 70
1, 315396, Note_off_c, 0, 65, 59
1, 315412, Note_on_c, 0, 69, 68
1, 315419, Control_c, 0, 67, 69
1, 315483, Note_off_c, 0, 69, 63
1, 315486, Control_c, 0, 67, 69
1, 315501, Control_c, 0, 64, 50
1, 315515, Control_c, 0, 64, 50
1, 315521, Note_on_c, 0, 72, 54
1, 315544, Note_off_c, 0, 72, 65
1, 315545, Control_c, 0, 64, 49
1, 315545, Control_c, 0, 67, 68
1, 315559, Control_c, 0, 64, 49
1, 315574, Control_c, 0, 64, 48
1, 315589, Control_c, 0, 64, 47
1, 315589, Control_c, 0, 67, 67
1, 315604, Control_c, 0, 64, 45
1, 315619, Control_c, 0, 64, 38
1, 315633, Control_c, 0, 64, 26
1, 315635, Note_on_c, 0, 77, 73
1, 315648, Control_c, 0, 64, 0
1, 315648, Control_c, 0, 67, 67
1, 315693, Control_c, 0, 67, 66
1, 315722, Control_c, 0, 67, 66
1, 315731, Note_off_c, 0, 77, 58
1, 315737, Control_c, 0, 67, 65
1, 315749, Note_on_c, 0, 81, 69
1, 315752, Control_c, 0, 67, 64
1, 315767, Control_c, 0, 67, 62
1, 315782, Control_c, 0, 64, 19
1, 315782, Control_c, 0, 67, 61
1, 315797, Control_c, 0, 64, 34
1, 315797, Control_c, 0, 67, 58
1, 315812, Control_c, 0, 64, 47
1, 315812, Control_c, 0, 67, 44
1, 315827, Control_c, 0, 64, 57
1, 315827, Control_c, 0, 67, 21
1, 315841, Control_c, 0, 64, 62
1, 315841, Control_c, 0, 67, 0
1, 315846, Note_off_c, 0, 81, 65
1, 315854, Note_on_c, 0, 84, 73
1, 315856, Control_c, 0, 64, 64
1, 315871, Control_c, 0, 64, 66
1, 315886, Control_c, 0, 64, 67
1, 315896, Note_off_c, 0, 84, 59
1, 315901, Control_c, 0, 64, 68
1, 315916, Control_c, 0, 64, 70
1, 315931, Control_c, 0, 64, 72
1, 315946, Control_c, 0, 64, 73
1, 315961, Note_on_c, 0, 77, 64
1, 316005, Control_c, 0, 64, 73
1, 316020, Control_c, 0, 64, 72
1, 316035, Control_c, 0, 64, 72
1, 316049, Control_c, 0, 64, 71
1, 316050, Note_off_c, 0, 77, 61
1, 316064, Control_c, 0, 64, 70
1, 316079, Control_c, 0, 64, 67
1, 316080, Note_on_c, 0, 32, 58
1, 316083, Note_on_c, 0, 78, 71
1, 316094, Control_c, 0, 64, 61
1, 316109, Control_c, 0, 64, 36
1, 316124, Control_c, 0, 64, 0
1, 316211, Note_on_c, 0, 72, 66
1, 316254, Note_off_c, 0, 78, 52
1, 316280, Note_off_c, 0, 72, 62
1, 316292, Note_off_c, 0, 32, 61
1, 316304, Note_on_c, 0, 75, 72
1, 316336, Note_on_c, 0, 74, 72
1, 316374, Note_off_c, 0, 75, 63
1, 316416, Note_off_c, 0, 74, 62
1, 316419, Note_on_c, 0, 72, 67
1, 316524, Note_off_c, 0, 72, 58
1, 316549, Note_on_c, 0, 78, 76
1, 316560, Note_on_c, 0, 32, 62
1, 316664, Note_on_c, 0, 72, 65
1, 316707, Note_off_c, 0, 78, 50
1, 316741, Note_off_c, 0, 72, 62
1, 316766, Note_off_c, 0, 32, 60
1, 316770, Note_on_c, 0, 75, 74
1, 316793, Note_on_c, 0, 74, 74
1, 316846, Note_off_c, 0, 75, 62
1, 316879, Note_on_c, 0, 72, 75
1, 316888, Note_off_c, 0, 74, 61
1, 316995, Note_off_c, 0, 72, 57
1, 317012, Note_on_c, 0, 78, 84
1, 317022, Note_on_c, 0, 32, 65
1, 317119, Note_on_c, 0, 72, 70
1, 317186, Note_off_c, 0, 78, 58
1, 317210, Note_off_c, 0, 72, 61
1, 317222, Note_on_c, 0, 75, 78
1, 317238, Note_off_c, 0, 32, 62
1, 317245, Note_on_c, 0, 74, 84
1, 317300, Note_off_c, 0, 75, 60
1, 317325, Note_on_c, 0, 72, 77
1, 317369, Note_off_c, 0, 74, 54
1, 317453, Note_on_c, 0, 79, 86
1, 317463, Note_on_c, 0, 31, 67
1, 317486, Note_off_c, 0, 72, 62
1, 317568, Note_on_c, 0, 72, 70
1, 317651, Note_off_c, 0, 72, 61
1, 317657, Note_on_c, 0, 75, 78
1, 317657, Note_off_c, 0, 79, 61
1, 317666, Note_off_c, 0, 31, 63
1, 317682, Note_on_c, 0, 74, 80
1, 317742, Note_off_c, 0, 75, 63
1, 317785, Note_on_c, 0, 72, 79
1, 317805, Note_off_c, 0, 74, 54
1, 317970, Note_on_c, 0, 80, 80
1, 317991, Note_off_c, 0, 72, 60
1, 317994, Note_on_c, 0, 29, 54
1, 318056, Control_c, 0, 64, 21
1, 318071, Control_c, 0, 64, 47
1, 318086, Control_c, 0, 64, 58
1, 318101, Control_c, 0, 64, 63
1, 318109, Note_on_c, 0, 72, 61
1, 318116, Control_c, 0, 64, 65
1, 318131, Control_c, 0, 64, 66
1, 318146, Control_c, 0, 64, 67
1, 318160, Control_c, 0, 64, 69
1, 318175, Control_c, 0, 64, 70
1, 318180, Note_off_c, 0, 72, 62
1, 318190, Control_c, 0, 64, 71
1, 318218, Note_on_c, 0, 74, 62
1, 318234, Control_c, 0, 64, 70
1, 318250, Control_c, 0, 64, 70
1, 318253, Note_off_c, 0, 74, 65
1, 318259, Note_off_c, 0, 80, 34
1, 318265, Control_c, 0, 64, 69
1, 318280, Control_c, 0, 64, 69
1, 318295, Control_c, 0, 64, 68
1, 318310, Control_c, 0, 64, 68
1, 318324, Control_c, 0, 64, 66
1, 318328, Note_off_c, 0, 29, 59
1, 318339, Control_c, 0, 64, 64
1, 318339, Control_c, 0, 67, 10
1, 318353, Note_on_c, 0, 77, 61
1, 318354, Control_c, 0, 64, 62
1, 318354, Control_c, 0, 67, 29
1, 318369, Control_c, 0, 64, 59
1, 318369, Control_c, 0, 67, 47
1, 318383, Control_c, 0, 64, 57
1, 318383, Control_c, 0, 67, 64
1, 318398, Control_c, 0, 64, 54
1, 318398, Control_c, 0, 67, 81
1, 318413, Control_c, 0, 64, 51
1, 318413, Control_c, 0, 67, 96
1, 318414, Note_off_c, 0, 77, 57
1, 318428, Control_c, 0, 64, 48
1, 318428, Control_c, 0, 67, 108
1, 318443, Note_on_c, 0, 80, 65
1, 318443, Control_c, 0, 64, 43
1, 318443, Control_c, 0, 67, 119
1, 318465, Control_c, 0, 64, 38
1, 318465, Control_c, 0, 67, 127
1, 318480, Control_c, 0, 64, 33
1, 318494, Control_c, 0, 64, 29
1, 318510, Control_c, 0, 64, 25
1, 318525, Control_c, 0, 64, 23
1, 318526, Note_off_c, 0, 80, 65
1, 318539, Control_c, 0, 64, 19
1, 318554, Control_c, 0, 64, 15
1, 318565, Note_on_c, 0, 84, 66
1, 318569, Control_c, 0, 64, 11
1, 318584, Control_c, 0, 64, 0
1, 318596, Note_off_c, 0, 84, 63
1, 318675, Note_on_c, 0, 86, 66
1, 318727, Note_off_c, 0, 86, 59
1, 318775, Note_on_c, 0, 89, 62
1, 318823, Note_off_c, 0, 89, 60
1, 318888, Note_on_c, 0, 92, 71
1, 318969, Note_off_c, 0, 92, 64
1, 318995, Note_on_c, 0, 91, 56
1, 319051, Note_off_c, 0, 91, 60
1, 319114, Note_on_c, 0, 89, 53
1, 319210, Note_off_c, 0, 89, 60
1, 319229, Note_on_c, 0, 87, 53
1, 319290, Note_off_c, 0, 87, 55
1, 319344, Note_on_c, 0, 86, 60
1, 319347, Note_on_c, 0, 72, 43
1, 319350, Note_on_c, 0, 74, 46
1, 319353, Note_on_c, 0, 68, 43
1, 319358, Note_on_c, 0, 65, 43
1, 319438, Note_off_c, 0, 86, 60
1, 319459, Note_on_c, 0, 87, 50
1, 319461, Note_off_c, 0, 65, 59
1, 319465, Note_off_c, 0, 68, 59
1, 319475, Note_off_c, 0, 74, 54
1, 319484, Note_off_c, 0, 72, 57
1, 319565, Note_off_c, 0, 87, 56
1, 319576, Note_on_c, 0, 89, 55
1, 319652, Note_off_c, 0, 89, 63
1, 319691, Note_on_c, 0, 84, 53
1, 319763, Note_off_c, 0, 84, 40
1, 319801, Note_on_c, 0, 83, 56
1, 319806, Note_on_c, 0, 67, 43
1, 319809, Note_on_c, 0, 71, 45
1, 319809, Note_on_c, 0, 74, 39
1, 319888, Note_off_c, 0, 83, 61
1, 319902, Note_off_c, 0, 74, 58
1, 319906, Note_off_c, 0, 71, 61
1, 319914, Note_on_c, 0, 84, 57
1, 319922, Note_off_c, 0, 67, 61
1, 320023, Note_off_c, 0, 84, 60
1, 320045, Note_on_c, 0, 86, 59
1, 320104, Note_off_c, 0, 86, 61
1, 320143, Note_on_c, 0, 77, 54
1, 320192, Note_off_c, 0, 77, 58
1, 320271, Note_on_c, 0, 75, 60
1, 320277, Note_on_c, 0, 72, 47
1, 320279, Note_on_c, 0, 67, 42
1, 320283, Note_on_c, 0, 60, 44
1, 320286, Note_on_c, 0, 63, 44
1, 320304, Control_c, 0, 64, 19
1, 320319, Control_c, 0, 64, 31
1, 320334, Control_c, 0, 64, 41
1, 320348, Control_c, 0, 64, 46
1, 320363, Control_c, 0, 64, 48
1, 320368, Note_off_c, 0, 75, 58
1, 320392, Note_on_c, 0, 77, 59
1, 320397, Note_off_c, 0, 72, 61
1, 320406, Note_off_c, 0, 67, 61
1, 320427, Note_off_c, 0, 63, 61
1, 320442, Note_off_c, 0, 60, 61
1, 320483, Note_off_c, 0, 77, 60
1, 320509, Note_on_c, 0, 79, 56
1, 320511, Control_c, 0, 64, 47
1, 320541, Control_c, 0, 64, 47
1, 320570, Control_c, 0, 64, 46
1, 320614, Note_on_c, 0, 72, 57
1, 320615, Control_c, 0, 64, 46
1, 320641, Note_off_c, 0, 79, 37
1, 320645, Control_c, 0, 64, 45
1, 320674, Note_off_c, 0, 72, 57
1, 320675, Control_c, 0, 64, 45
1, 320712, Control_c, 0, 64, 44
1, 320727, Control_c, 0, 64, 43
1, 320738, Note_on_c, 0, 63, 50
1, 320757, Control_c, 0, 64, 42
1, 320772, Control_c, 0, 64, 41
1, 320786, Control_c, 0, 64, 41
1, 320801, Control_c, 0, 64, 40
1, 320816, Control_c, 0, 64, 40
1, 320846, Note_on_c, 0, 65, 50
1, 320871, Note_off_c, 0, 63, 52
1, 320875, Control_c, 0, 64, 39
1, 320959, Note_on_c, 0, 67, 41
1, 320963, Note_off_c, 0, 65, 53
1, 321059, Note_on_c, 0, 60, 53
1, 321094, Note_off_c, 0, 67, 61
1, 321177, Note_off_c, 0, 60, 64
1, 321190, Note_on_c, 0, 51, 58
1, 321231, Control_c, 0, 64, 39
1, 321290, Note_off_c, 0, 51, 62
1, 321301, Note_on_c, 0, 53, 55
1, 321421, Note_on_c, 0, 55, 60
1, 321434, Note_off_c, 0, 53, 61
1, 321461, Control_c, 0, 64, 38
1, 321468, Note_off_c, 0, 55, 67
1, 321475, Control_c, 0, 64, 38
1, 321490, Control_c, 0, 64, 37
1, 321505, Control_c, 0, 64, 36
1, 321517, Note_on_c, 0, 48, 50
1, 321520, Control_c, 0, 64, 35
1, 321535, Control_c, 0, 64, 30
1, 321549, Control_c, 0, 64, 11
1, 321560, Note_off_c, 0, 48, 61
1, 321564, Control_c, 0, 64, 0
1, 321641, Note_on_c, 0, 78, 36
1, 321653, Control_c, 0, 64, 58
1, 321667, Note_off_c, 0, 78, 49
1, 321668, Control_c, 0, 64, 88
1, 321675, Note_on_c, 0, 48, 97
1, 321678, Note_on_c, 0, 36, 78
1, 321682, Note_on_c, 0, 72, 103
1, 321682, Control_c, 0, 64, 127
1, 321683, Note_on_c, 0, 39, 85
1, 321687, Note_on_c, 0, 84, 90
1, 321692, Note_on_c, 0, 43, 72
1, 321693, Note_on_c, 0, 76, 87
1, 321704, Note_on_c, 0, 82, 58
1, 321705, Note_on_c, 0, 75, 54
1, 321710, Note_off_c, 0, 36, 65
1, 321712, Control_c, 0, 67, 102
1, 321718, Note_off_c, 0, 43, 65
1, 321724, Note_off_c, 0, 82, 41
1, 321727, Note_off_c, 0, 75, 38
1, 321727, Control_c, 0, 67, 27
1, 321729, Note_off_c, 0, 84, 65
1, 321729, Note_off_c, 0, 39, 64
1, 321729, Note_off_c, 0, 48, 66
1, 321730, Note_off_c, 0, 76, 61
1, 321742, Control_c, 0, 67, 0
1, 321871, Note_off_c, 0, 72, 55
1, 321898, Note_on_c, 0, 63, 68
1, 321902, Note_on_c, 0, 60, 69
1, 321907, Note_on_c, 0, 75, 81
1, 321909, Note_on_c, 0, 79, 82
1, 321943, Note_off_c, 0, 63, 59
1, 321952, Note_off_c, 0, 60, 64
1, 321956, Note_off_c, 0, 75, 63
1, 321966, Note_off_c, 0, 79, 64
1, 322004, Note_on_c, 0, 77, 99
1, 322007, Note_on_c, 0, 74, 94
1, 322008, Note_on_c, 0, 65, 92
1, 322016, Note_on_c, 0, 62, 84
1, 322038, Control_c, 0, 64, 83
1, 322046, Note_off_c, 0, 74, 63
1, 322051, Note_off_c, 0, 65, 63
1, 322053, Control_c, 0, 64, 64
1, 322055, Note_off_c, 0, 62, 60
1, 322057, Note_off_c, 0, 77, 62
1, 322067, Control_c, 0, 64, 0
1, 322110, Note_on_c, 0, 75, 99
1, 322114, Note_on_c, 0, 72, 90
1, 322116, Note_on_c, 0, 67, 90
1, 322117, Note_on_c, 0, 63, 84
1, 322143, Note_off_c, 0, 72, 66
1, 322161, Note_off_c, 0, 67, 65
1, 322162, Note_off_c, 0, 63, 59
1, 322167, Note_off_c, 0, 75, 65
1, 322335, Note_on_c, 0, 75, 80
1, 322341, Note_on_c, 0, 60, 81
1, 322341, Note_on_c, 0, 79, 78
1, 322343, Note_on_c, 0, 63, 82
1, 322371, Note_off_c, 0, 63, 68
1, 322382, Note_off_c, 0, 75, 66
1, 322400, Note_off_c, 0, 60, 60
1, 322408, Note_off_c, 0, 79, 56
1, 322560, Note_on_c, 0, 77, 88
1, 322563, Note_on_c, 0, 65, 75
1, 322563, Note_on_c, 0, 74, 88
1, 322566, Note_on_c, 0, 62, 77
1, 322595, Note_off_c, 0, 74, 62
1, 322600, Note_off_c, 0, 77, 65
1, 322605, Note_off_c, 0, 62, 60
1, 322617, Note_off_c, 0, 65, 51
1, 322769, Note_on_c, 0, 63, 81
1, 322772, Note_on_c, 0, 75, 83
1, 322775, Note_on_c, 0, 67, 73
1, 322775, Note_on_c, 0, 72, 83
1, 322794, Note_off_c, 0, 63, 69
1, 322798, Note_off_c, 0, 75, 68
1, 322799, Note_off_c, 0, 67, 69
1, 322817, Note_off_c, 0, 72, 57
1, 322936, Control_c, 0, 64, 39
1, 322957, Control_c, 0, 64, 60
1, 322972, Control_c, 0, 64, 72
1, 322985, Note_on_c, 0, 55, 97
1, 322987, Control_c, 0, 64, 127
1, 322989, Note_on_c, 0, 74, 98
1, 322991, Note_on_c, 0, 86, 103
1, 322992, Note_on_c, 0, 43, 84
1, 323020, Note_off_c, 0, 43, 67
1, 323026, Note_off_c, 0, 86, 67
1, 323033, Note_off_c, 0, 55, 66
1, 323040, Note_off_c, 0, 74, 67
1, 323202, Note_on_c, 0, 59, 72
1, 323207, Note_on_c, 0, 55, 70
1, 323207, Note_on_c, 0, 74, 81
1, 323222, Note_on_c, 0, 71, 67
1, 323234, Note_off_c, 0, 55, 60
1, 323236, Note_off_c, 0, 59, 64
1, 323240, Note_off_c, 0, 71, 65
1, 323249, Note_off_c, 0, 74, 60
1, 323303, Note_on_c, 0, 69, 63
1, 323303, Note_on_c, 0, 72, 84
1, 323311, Note_on_c, 0, 60, 86
1, 323316, Note_on_c, 0, 57, 76
1, 323328, Note_off_c, 0, 69, 66
1, 323329, Control_c, 0, 64, 87
1, 323344, Note_off_c, 0, 57, 68
1, 323344, Control_c, 0, 64, 66
1, 323346, Note_off_c, 0, 60, 62
1, 323352, Note_off_c, 0, 72, 67
1, 323359, Control_c, 0, 64, 43
1, 323373, Control_c, 0, 64, 0
1, 323417, Note_on_c, 0, 71, 102
1, 323420, Note_on_c, 0, 62, 86
1, 323420, Note_on_c, 0, 67, 89
1, 323422, Note_on_c, 0, 59, 87
1, 323450, Note_off_c, 0, 59, 61
1, 323450, Note_off_c, 0, 67, 64
1, 323461, Note_off_c, 0, 71, 59
1, 323462, Note_off_c, 0, 62, 62
1, 323641, Note_on_c, 0, 74, 87
1, 323643, Note_on_c, 0, 55, 75
1, 323643, Note_on_c, 0, 71, 81
1, 323646, Note_on_c, 0, 59, 75
1, 323666, Note_off_c, 0, 71, 68
1, 323678, Note_off_c, 0, 59, 63
1, 323681, Note_off_c, 0, 74, 65
1, 323708, Note_off_c, 0, 55, 62
1, 323872, Note_on_c, 0, 72, 89
1, 323873, Note_on_c, 0, 69, 90
1, 323875, Note_on_c, 0, 60, 75
1, 323880, Note_on_c, 0, 57, 70
1, 323905, Note_off_c, 0, 69, 64
1, 323910, Note_off_c, 0, 57, 66
1, 323915, Note_off_c, 0, 72, 65
1, 323918, Note_off_c, 0, 60, 57
1, 324078, Note_on_c, 0, 67, 81
1, 324081, Note_on_c, 0, 62, 63
1, 324081, Note_on_c, 0, 59, 72
1, 324084, Note_on_c, 0, 71, 84
1, 324105, Note_off_c, 0, 67, 66
1, 324107, Note_off_c, 0, 59, 67
1, 324111, Note_off_c, 0, 62, 65
1, 324111, Note_off_c, 0, 71, 65
1, 324270, Control_c, 0, 64, 49
1, 324285, Control_c, 0, 64, 68
1, 324295, Note_on_c, 0, 88, 95
1, 324296, Note_on_c, 0, 76, 97
1, 324300, Note_on_c, 0, 48, 98
1, 324300, Control_c, 0, 64, 112
1, 324303, Note_on_c, 0, 36, 75
1, 324315, Control_c, 0, 64, 127
1, 324327, Note_off_c, 0, 88, 70
1, 324331, Note_off_c, 0, 36, 65
1, 324341, Note_on_c, 0, 77, 25
1, 324342, Note_off_c, 0, 77, 127
1, 324345, Note_off_c, 0, 76, 68
1, 324348, Note_off_c, 0, 48, 66
1, 324518, Note_on_c, 0, 55, 71
1, 324528, Note_on_c, 0, 73, 81
1, 324529, Note_on_c, 0, 70, 76
1, 324556, Note_off_c, 0, 70, 66
1, 324577, Note_off_c, 0, 55, 61
1, 324584, Note_off_c, 0, 73, 63
1, 324620, Note_on_c, 0, 72, 80
1, 324623, Note_on_c, 0, 60, 79
1, 324623, Note_on_c, 0, 68, 78
1, 324628, Note_on_c, 0, 56, 75
1, 324649, Note_off_c, 0, 68, 67
1, 324654, Note_off_c, 0, 60, 65
1, 324664, Note_off_c, 0, 72, 65
1, 324665, Note_off_c, 0, 56, 65
1, 324708, Control_c, 0, 64, 107
1, 324720, Note_on_c, 0, 70, 96
1, 324722, Note_on_c, 0, 61, 93
1, 324723, Note_on_c, 0, 67, 88
1, 324723, Control_c, 0, 64, 72
1, 324728, Note_on_c, 0, 58, 84
1, 324738, Control_c, 0, 64, 48
1, 324751, Note_off_c, 0, 67, 66
1, 324753, Control_c, 0, 64, 0
1, 324763, Note_off_c, 0, 61, 63
1, 324774, Note_off_c, 0, 70, 61
1, 324783, Note_off_c, 0, 58, 56
1, 324946, Note_on_c, 0, 70, 73
1, 324952, Note_on_c, 0, 73, 85
1, 324956, Note_on_c, 0, 58, 78
1, 324958, Note_on_c, 0, 55, 70
1, 324983, Note_off_c, 0, 70, 64
1, 324990, Note_off_c, 0, 55, 67
1, 324996, Note_off_c, 0, 58, 59
1, 324997, Note_off_c, 0, 73, 68
1, 325170, Note_on_c, 0, 68, 87
1, 325172, Note_on_c, 0, 56, 75
1, 325172, Note_on_c, 0, 72, 81
1, 325175, Note_on_c, 0, 60, 70
1, 325210, Note_off_c, 0, 60, 67
1, 325217, Note_off_c, 0, 68, 59
1, 325217, Note_off_c, 0, 72, 63
1, 325219, Note_off_c, 0, 56, 63
1, 325390, Note_on_c, 0, 70, 89
1, 325391, Note_on_c, 0, 67, 81
1, 325394, Note_on_c, 0, 61, 67
1, 325395, Note_on_c, 0, 58, 62
1, 325412, Note_off_c, 0, 70, 70
1, 325415, Note_off_c, 0, 67, 67
1, 325416, Note_off_c, 0, 58, 63
1, 325422, Note_off_c, 0, 61, 66
1, 325589, Control_c, 0, 64, 49
1, 325604, Control_c, 0, 64, 66
1, 325611, Note_on_c, 0, 53, 98
1, 325611, Note_on_c, 0, 89, 101
1, 325612, Note_on_c, 0, 77, 100
1, 325617, Note_on_c, 0, 41, 84
1, 325619, Control_c, 0, 64, 103
1, 325634, Control_c, 0, 64, 127
1, 325643, Note_off_c, 0, 89, 65
1, 325648, Note_off_c, 0, 41, 68
1, 325656, Note_off_c, 0, 77, 68
1, 325664, Note_off_c, 0, 53, 66
1, 325837, Note_on_c, 0, 56, 66
1, 325844, Note_on_c, 0, 53, 66
1, 325848, Note_on_c, 0, 68, 76
1, 325850, Note_on_c, 0, 72, 73
1, 325874, Note_off_c, 0, 56, 64
1, 325881, Note_off_c, 0, 68, 61
1, 325884, Note_off_c, 0, 53, 63
1, 325900, Note_off_c, 0, 72, 60
1, 325934, Note_on_c, 0, 70, 89
1, 325943, Note_on_c, 0, 58, 85
1, 325954, Note_on_c, 0, 55, 73
1, 325954, Note_on_c, 0, 67, 76
1, 325977, Note_off_c, 0, 67, 69
1, 325984, Note_off_c, 0, 55, 68
1, 325988, Note_off_c, 0, 58, 61
1, 325991, Note_off_c, 0, 70, 64
1, 326012, Control_c, 0, 64, 73
1, 326027, Control_c, 0, 64, 38
1, 326042, Control_c, 0, 64, 0
1, 326048, Note_on_c, 0, 68, 102
1, 326049, Note_on_c, 0, 56, 91
1, 326051, Note_on_c, 0, 60, 89
1, 326055, Note_on_c, 0, 65, 85
1, 326082, Note_off_c, 0, 65, 63
1, 326093, Note_off_c, 0, 60, 65
1, 326102, Note_off_c, 0, 56, 64
1, 326102, Note_off_c, 0, 68, 62
1, 326284, Note_on_c, 0, 68, 85
1, 326286, Note_on_c, 0, 72, 83
1, 326287, Note_on_c, 0, 53, 72
1, 326287, Note_on_c, 0, 56, 76
1, 326327, Note_off_c, 0, 68, 61
1, 326328, Note_off_c, 0, 72, 63
1, 326329, Note_off_c, 0, 53, 64
1, 326331, Note_off_c, 0, 56, 59
1, 326501, Note_on_c, 0, 70, 87
1, 326504, Note_on_c, 0, 58, 79
1, 326506, Note_on_c, 0, 67, 82
1, 326510, Note_on_c, 0, 55, 67
1, 326533, Note_off_c, 0, 67, 63
1, 326533, Note_off_c, 0, 70, 68
1, 326534, Note_off_c, 0, 58, 64
1, 326537, Note_off_c, 0, 55, 66
1, 326720, Note_on_c, 0, 65, 80
1, 326720, Note_on_c, 0, 68, 84
1, 326721, Note_on_c, 0, 60, 67
1, 326726, Note_on_c, 0, 56, 61
1, 326746, Note_off_c, 0, 65, 66
1, 326747, Note_off_c, 0, 60, 67
1, 326749, Note_off_c, 0, 56, 62
1, 326750, Note_off_c, 0, 68, 67
1, 326924, Control_c, 0, 64, 51
1, 326939, Control_c, 0, 64, 66
1, 326949, Note_on_c, 0, 78, 109
1, 326951, Note_on_c, 0, 90, 99
1, 326953, Note_on_c, 0, 50, 104
1, 326954, Control_c, 0, 64, 87
1, 326957, Note_on_c, 0, 38, 80
1, 326969, Control_c, 0, 64, 127
1, 326987, Note_off_c, 0, 90, 67
1, 326987, Note_off_c, 0, 38, 67
1, 327005, Note_off_c, 0, 50, 67
1, 327008, Note_off_c, 0, 78, 60
1, 327170, Note_on_c, 0, 57, 64
1, 327171, Note_on_c, 0, 72, 77
1, 327172, Note_on_c, 0, 75, 80
1, 327202, Note_on_c, 0, 60, 30
1, 327205, Note_off_c, 0, 72, 61
1, 327220, Note_off_c, 0, 57, 61
1, 327220, Note_off_c, 0, 75, 63
1, 327236, Note_off_c, 0, 60, 47
1, 327237, Poly_aftertouch_c, 0, 59, 0
1, 327261, Note_on_c, 0, 57, 46
1, 327262, Note_on_c, 0, 74, 86
1, 327274, Note_on_c, 0, 71, 79
1, 327275, Poly_aftertouch_c, 0, 59, 127
1, 327277, Note_on_c, 0, 59, 26
1, 327285, Note_off_c, 0, 57, 60
1, 327296, Note_off_c, 0, 71, 70
1, 327312, Note_off_c, 0, 74, 64
1, 327312, Note_off_c, 0, 59, 56
1, 327357, Poly_aftertouch_c, 0, 61, 127
1, 327363, Note_on_c, 0, 72, 99
1, 327368, Note_on_c, 0, 63, 87
1, 327369, Note_on_c, 0, 69, 90
1, 327369, Note_on_c, 0, 60, 83
1, 327384, Control_c, 0, 64, 69
1, 327399, Control_c, 0, 64, 30
1, 327400, Note_off_c, 0, 63, 60
1, 327409, Poly_aftertouch_c, 0, 61, 0
1, 327412, Note_off_c, 0, 69, 63
1, 327413, Note_off_c, 0, 72, 61
1, 327413, Control_c, 0, 64, 0
1, 327419, Note_off_c, 0, 60, 62
1, 327591, Note_on_c, 0, 75, 86
1, 327598, Note_on_c, 0, 60, 78
1, 327600, Note_on_c, 0, 57, 70
1, 327604, Note_on_c, 0, 72, 71
1, 327628, Note_off_c, 0, 72, 68
1, 327634, Note_off_c, 0, 57, 66
1, 327639, Note_off_c, 0, 75, 68
1, 327646, Note_off_c, 0, 60, 58
1, 327810, Note_on_c, 0, 74, 87
1, 327812, Note_on_c, 0, 59, 75
1, 327812, Note_on_c, 0, 71, 85
1, 327816, Note_on_c, 0, 62, 73
1, 327838, Note_off_c, 0, 71, 65
1, 327846, Note_off_c, 0, 62, 65
1, 327852, Note_off_c, 0, 74, 65
1, 327863, Note_off_c, 0, 59, 62
1, 328020, Note_on_c, 0, 69, 83
1, 328022, Note_on_c, 0, 63, 61
1, 328022, Note_on_c, 0, 72, 84
1, 328023, Note_on_c, 0, 60, 45
1, 328047, Note_off_c, 0, 69, 66
1, 328048, Note_off_c, 0, 60, 53
1, 328052, Note_off_c, 0, 63, 65
1, 328056, Note_off_c, 0, 72, 65
1, 328213, Control_c, 0, 64, 49
1, 328228, Control_c, 0, 64, 72
1, 328242, Note_on_c, 0, 55, 98
1, 328242, Control_c, 0, 64, 119
1, 328247, Note_on_c, 0, 91, 104
1, 328248, Note_on_c, 0, 43, 75
1, 328250, Note_on_c, 0, 79, 101
1, 328257, Control_c, 0, 64, 127
1, 328275, Note_off_c, 0, 43, 65
1, 328284, Note_off_c, 0, 55, 68
1, 328287, Note_off_c, 0, 79, 67
1, 328293, Note_off_c, 0, 91, 67
1, 328466, Note_on_c, 0, 77, 69
1, 328474, Note_on_c, 0, 80, 79
1, 328475, Note_on_c, 0, 89, 87
1, 328478, Note_on_c, 0, 86, 73
1, 328480, Control_c, 0, 64, 115
1, 328495, Control_c, 0, 64, 73
1, 328505, Note_off_c, 0, 80, 57
1, 328509, Control_c, 0, 64, 54
1, 328513, Note_off_c, 0, 86, 66
1, 328524, Control_c, 0, 64, 0
1, 328541, Note_off_c, 0, 89, 51
1, 328568, Note_on_c, 0, 79, 69
1, 328572, Note_on_c, 0, 87, 77
1, 328574, Note_on_c, 0, 91, 78
1, 328577, Note_on_c, 0, 75, 56
1, 328579, Note_off_c, 0, 77, 32
1, 328606, Note_off_c, 0, 79, 64
1, 328614, Note_off_c, 0, 75, 62
1, 328623, Note_off_c, 0, 87, 65
1, 328626, Note_off_c, 0, 91, 63
1, 328673, Control_c, 0, 64, 49
1, 328674, Note_on_c, 0, 92, 100
1, 328678, Note_on_c, 0, 74, 81
1, 328683, Note_on_c, 0, 77, 83
1, 328688, Control_c, 0, 64, 66
1, 328689, Note_on_c, 0, 89, 69
1, 328703, Control_c, 0, 64, 81
1, 328705, Note_off_c, 0, 77, 70
1, 328717, Note_off_c, 0, 89, 66
1, 328718, Control_c, 0, 64, 127
1, 328725, Note_off_c, 0, 74, 65
1, 328728, Note_off_c, 0, 92, 67
1, 328836, Control_c, 0, 64, 87
1, 328851, Control_c, 0, 64, 67
1, 328865, Control_c, 0, 64, 35
1, 328880, Control_c, 0, 64, 0
1, 328898, Note_on_c, 0, 74, 70
1, 328902, Note_on_c, 0, 86, 82
1, 328909, Note_on_c, 0, 77, 66
1, 328909, Note_on_c, 0, 83, 69
1, 328943, Note_off_c, 0, 83, 67
1, 328946, Note_off_c, 0, 77, 65
1, 328963, Note_off_c, 0, 74, 53
1, 328964, Note_off_c, 0, 86, 60
1, 329008, Note_on_c, 0, 75, 64
1, 329008, Note_on_c, 0, 87, 78
1, 329015, Note_on_c, 0, 84, 74
1, 329044, Note_on_c, 0, 72, 26
1, 329046, Note_off_c, 0, 75, 62
1, 329058, Note_off_c, 0, 84, 64
1, 329071, Note_off_c, 0, 87, 62
1, 329077, Note_off_c, 0, 72, 45
1, 329110, Control_c, 0, 64, 30
1, 329116, Note_on_c, 0, 89, 104
1, 329125, Note_on_c, 0, 74, 83
1, 329125, Control_c, 0, 64, 57
1, 329127, Note_on_c, 0, 71, 82
1, 329139, Control_c, 0, 64, 67
1, 329146, Note_off_c, 0, 74, 70
1, 329154, Control_c, 0, 64, 82
1, 329162, Note_on_c, 0, 84, 30
1, 329169, Note_off_c, 0, 71, 64
1, 329169, Control_c, 0, 64, 127
1, 329179, Note_off_c, 0, 89, 64
1, 329193, Note_off_c, 0, 84, 34
1, 329303, Control_c, 0, 64, 104
1, 329318, Control_c, 0, 64, 74
1, 329332, Control_c, 0, 64, 47
1, 329334, Note_on_c, 0, 77, 80
1, 329339, Note_on_c, 0, 68, 66
1, 329342, Note_on_c, 0, 74, 66
1, 329346, Note_on_c, 0, 65, 64
1, 329347, Control_c, 0, 64, 0
1, 329371, Note_off_c, 0, 74, 66
1, 329372, Note_off_c, 0, 68, 64
1, 329378, Note_off_c, 0, 77, 58
1, 329391, Note_off_c, 0, 65, 56
1, 329422, Note_on_c, 0, 80, 62
1, 329438, Note_on_c, 0, 67, 64
1, 329443, Note_off_c, 0, 80, 59
1, 329444, Note_on_c, 0, 75, 54
1, 329450, Note_on_c, 0, 79, 64
1, 329454, Note_on_c, 0, 63, 51
1, 329465, Note_off_c, 0, 75, 62
1, 329473, Note_off_c, 0, 67, 63
1, 329479, Note_off_c, 0, 79, 68
1, 329487, Note_off_c, 0, 63, 64
1, 329537, Note_on_c, 0, 80, 89
1, 329543, Note_on_c, 0, 62, 75
1, 329543, Note_on_c, 0, 65, 83
1, 329544, Note_on_c, 0, 77, 78
1, 329555, Control_c, 0, 64, 33
1, 329566, Note_off_c, 0, 65, 69
1, 329569, Note_off_c, 0, 77, 67
1, 329570, Control_c, 0, 64, 56
1, 329585, Note_off_c, 0, 62, 61
1, 329585, Control_c, 0, 64, 64
1, 329600, Control_c, 0, 64, 70
1, 329601, Note_off_c, 0, 80, 64
1, 329615, Control_c, 0, 64, 81
1, 329629, Control_c, 0, 64, 92
1, 329644, Control_c, 0, 64, 102
1, 329659, Control_c, 0, 64, 108
1, 329696, Control_c, 0, 64, 105
1, 329711, Control_c, 0, 64, 98
1, 329726, Control_c, 0, 64, 86
1, 329741, Control_c, 0, 64, 68
1, 329756, Note_on_c, 0, 65, 67
1, 329756, Control_c, 0, 64, 29
1, 329758, Note_on_c, 0, 62, 65
1, 329762, Note_on_c, 0, 74, 75
1, 329771, Note_on_c, 0, 71, 65
1, 329771, Control_c, 0, 64, 0
1, 329786, Note_off_c, 0, 65, 63
1, 329790, Note_off_c, 0, 62, 64
1, 329798, Note_off_c, 0, 74, 62
1, 329800, Note_off_c, 0, 71, 67
1, 329849, Note_on_c, 0, 63, 68
1, 329852, Note_on_c, 0, 75, 79
1, 329853, Note_on_c, 0, 60, 66
1, 329853, Note_on_c, 0, 72, 74
1, 329886, Note_off_c, 0, 63, 62
1, 329888, Note_off_c, 0, 60, 63
1, 329899, Note_off_c, 0, 72, 61
1, 329916, Note_off_c, 0, 75, 60
1, 329959, Note_on_c, 0, 62, 80
1, 329959, Note_on_c, 0, 77, 103
1, 329962, Note_on_c, 0, 59, 76
1, 329963, Control_c, 0, 64, 20
1, 329977, Note_on_c, 0, 74, 61
1, 329978, Control_c, 0, 64, 62
1, 329983, Note_off_c, 0, 62, 70
1, 329993, Control_c, 0, 64, 69
1, 329994, Note_off_c, 0, 74, 64
1, 330003, Note_off_c, 0, 59, 62
1, 330008, Control_c, 0, 64, 80
1, 330022, Note_off_c, 0, 77, 63
1, 330022, Control_c, 0, 64, 103
1, 330037, Control_c, 0, 64, 127
1, 330161, Note_on_c, 0, 56, 74
1, 330171, Control_c, 0, 64, 90
1, 330178, Note_on_c, 0, 65, 63
1, 330180, Note_on_c, 0, 59, 64
1, 330186, Control_c, 0, 64, 70
1, 330200, Control_c, 0, 64, 53
1, 330201, Note_off_c, 0, 56, 62
1, 330201, Note_off_c, 0, 65, 60
1, 330205, Note_on_c, 0, 62, 8
1, 330215, Control_c, 0, 64, 0
1, 330218, Note_off_c, 0, 59, 58
1, 330251, Note_off_c, 0, 62, 37
1, 330268, Note_on_c, 0, 68, 73
1, 330273, Note_on_c, 0, 53, 67
1, 330275, Note_on_c, 0, 59, 41
1, 330298, Note_off_c, 0, 59, 58
1, 330305, Note_off_c, 0, 53, 64
1, 330308, Note_off_c, 0, 68, 63
1, 330364, Control_c, 0, 64, 39
1, 330373, Note_on_c, 0, 67, 78
1, 330376, Note_on_c, 0, 59, 66
1, 330376, Note_on_c, 0, 50, 72
1, 330379, Control_c, 0, 64, 59
1, 330392, Note_on_c, 0, 65, 67
1, 330394, Control_c, 0, 64, 67
1, 330408, Note_off_c, 0, 50, 69
1, 330409, Control_c, 0, 64, 78
1, 330418, Note_off_c, 0, 59, 60
1, 330424, Control_c, 0, 64, 107
1, 330443, Note_off_c, 0, 65, 52
1, 330447, Control_c, 0, 64, 127
1, 330463, Note_off_c, 0, 67, 61
1, 330585, Note_on_c, 0, 47, 67
1, 330592, Note_on_c, 0, 67, 70
1, 330593, Note_on_c, 0, 65, 63
1, 330594, Control_c, 0, 64, 88
1, 330605, Note_on_c, 0, 62, 62
1, 330609, Control_c, 0, 64, 69
1, 330624, Control_c, 0, 64, 50
1, 330636, Note_off_c, 0, 47, 56
1, 330636, Note_off_c, 0, 65, 56
1, 330639, Control_c, 0, 64, 0
1, 330639, Note_off_c, 0, 62, 61
1, 330652, Note_off_c, 0, 67, 58
1, 330666, Note_on_c, 0, 43, 59
1, 330681, Note_on_c, 0, 71, 77
1, 330700, Note_on_c, 0, 62, 62
1, 330718, Note_off_c, 0, 43, 63
1, 330722, Note_off_c, 0, 71, 62
1, 330729, Note_off_c, 0, 62, 66
1, 330800, Note_on_c, 0, 72, 91
1, 330802, Note_on_c, 0, 60, 94
1, 330802, Control_c, 0, 64, 12
1, 330803, Note_on_c, 0, 48, 86
1, 330805, Note_on_c, 0, 63, 88
1, 330817, Control_c, 0, 64, 54
1, 330831, Control_c, 0, 64, 66
1, 330846, Control_c, 0, 64, 77
1, 330861, Control_c, 0, 64, 106
1, 330871, Note_off_c, 0, 60, 50
1, 330876, Control_c, 0, 64, 127
1, 330882, Note_off_c, 0, 48, 60
1, 330883, Note_off_c, 0, 63, 53
1, 330895, Note_off_c, 0, 72, 60
1, 330999, Note_on_c, 0, 60, 85
1, 331000, Note_on_c, 0, 48, 80
1, 331007, Note_on_c, 0, 63, 63
1, 331008, Note_on_c, 0, 72, 77
1, 331009, Control_c, 0, 64, 88
1, 331024, Control_c, 0, 64, 66
1, 331035, Note_off_c, 0, 63, 56
1, 331038, Note_off_c, 0, 72, 65
1, 331040, Control_c, 0, 64, 38
1, 331047, Note_off_c, 0, 60, 63
1, 331047, Note_off_c, 0, 48, 63
1, 331054, Control_c, 0, 64, 0
1, 331103, Note_on_c, 0, 43, 80
1, 331112, Note_on_c, 0, 62, 88
1, 331115, Note_on_c, 0, 74, 90
1, 331137, Note_off_c, 0, 74, 67
1, 331139, Note_off_c, 0, 62, 66
1, 331173, Control_c, 0, 64, 26
1, 331187, Note_off_c, 0, 43, 60
1, 331196, Control_c, 0, 64, 62
1, 331210, Control_c, 0, 64, 80
1, 331217, Note_on_c, 0, 36, 98
1, 331221, Note_on_c, 0, 63, 107
1, 331221, Note_on_c, 0, 75, 108
1, 331225, Control_c, 0, 64, 127
1, 331259, Note_off_c, 0, 36, 64
1, 331268, Note_off_c, 0, 63, 67
1, 331279, Note_off_c, 0, 75, 57
1, 331436, Note_on_c, 0, 67, 70
1, 331441, Note_on_c, 0, 69, 76
1, 331446, Note_on_c, 0, 36, 74
1, 331446, Note_on_c, 0, 79, 62
1, 331447, Control_c, 0, 64, 102
1, 331451, Note_on_c, 0, 81, 69
1, 331461, Control_c, 0, 64, 74
1, 331462, Note_off_c, 0, 67, 69
1, 331464, Note_off_c, 0, 69, 70
1, 331476, Note_off_c, 0, 79, 67
1, 331476, Note_off_c, 0, 81, 67
1, 331476, Control_c, 0, 64, 52
1, 331491, Control_c, 0, 64, 0
1, 331503, Note_off_c, 0, 36, 52
1, 331530, Note_on_c, 0, 31, 77
1, 331539, Note_on_c, 0, 71, 92
1, 331544, Note_on_c, 0, 83, 81
1, 331564, Note_off_c, 0, 31, 67
1, 331575, Note_off_c, 0, 83, 64
1, 331580, Note_off_c, 0, 71, 64
1, 331610, Control_c, 0, 64, 60
1, 331625, Control_c, 0, 64, 101
1, 331635, Note_on_c, 0, 36, 93
1, 331637, Note_on_c, 0, 24, 92
1, 331640, Control_c, 0, 64, 127
1, 331642, Note_on_c, 0, 72, 98
1, 331644, Note_on_c, 0, 75, 103
1, 331644, Note_on_c, 0, 84, 100
1, 331663, Note_off_c, 0, 24, 63
1, 331677, Note_off_c, 0, 84, 66
1, 331682, Note_off_c, 0, 36, 62
1, 331685, Note_off_c, 0, 72, 56
1, 331689, Note_off_c, 0, 75, 61
1, 331988, Control_c, 0, 64, 73
1, 332003, Control_c, 0, 64, 0
1, 332073, Note_on_c, 0, 48, 108
1, 332078, Note_on_c, 0, 39, 89
1, 332081, Note_on_c, 0, 43, 78
1, 332082, Note_on_c, 0, 36, 81
1, 332091, Control_c, 0, 64, 47
1, 332106, Control_c, 0, 64, 84
1, 332108, Note_off_c, 0, 36, 64
1, 332114, Note_off_c, 0, 43, 67
1, 332121, Control_c, 0, 64, 127
1, 332128, Note_off_c, 0, 48, 63
1, 332137, Note_off_c, 0, 39, 66
1, 332173, Note_on_c, 0, 75, 85
1, 332187, Note_on_c, 0, 72, 78
1, 332233, Note_off_c, 0, 72, 61
1, 332240, Note_off_c, 0, 75, 62
1, 332290, Note_on_c, 0, 72, 81
1, 332296, Note_on_c, 0, 69, 81
1, 332326, Note_off_c, 0, 69, 63
1, 332341, Note_off_c, 0, 72, 61
1, 332388, Note_on_c, 0, 74, 79
1, 332391, Note_on_c, 0, 71, 79
1, 332403, Control_c, 0, 64, 81
1, 332418, Control_c, 0, 64, 64
1, 332421, Note_off_c, 0, 71, 63
1, 332432, Control_c, 0, 64, 41
1, 332441, Note_off_c, 0, 74, 64
1, 332447, Control_c, 0, 64, 0
1, 332499, Note_on_c, 0, 72, 87
1, 332501, Note_on_c, 0, 75, 91
1, 332612, Note_on_c, 0, 63, 80
1, 332627, Note_on_c, 0, 60, 63
1, 332645, Note_off_c, 0, 63, 64
1, 332657, Note_off_c, 0, 72, 63
1, 332665, Note_off_c, 0, 60, 57
1, 332699, Note_off_c, 0, 75, 63
1, 332712, Note_on_c, 0, 60, 69
1, 332719, Note_on_c, 0, 57, 72
1, 332765, Note_off_c, 0, 57, 60
1, 332767, Note_off_c, 0, 60, 64
1, 332821, Note_on_c, 0, 62, 85
1, 332827, Note_on_c, 0, 59, 75
1, 332860, Note_off_c, 0, 59, 66
1, 332870, Note_off_c, 0, 62, 62
1, 332926, Note_on_c, 0, 63, 93
1, 332928, Note_on_c, 0, 60, 91
1, 333009, Note_on_c, 0, 87, 82
1, 333013, Note_on_c, 0, 84, 80
1, 333060, Note_off_c, 0, 84, 61
1, 333061, Note_off_c, 0, 63, 62
1, 333064, Note_off_c, 0, 60, 65
1, 333074, Note_off_c, 0, 87, 65
1, 333126, Note_on_c, 0, 83, 89
1, 333128, Note_on_c, 0, 86, 90
1, 333174, Note_off_c, 0, 83, 64
1, 333217, Note_off_c, 0, 86, 56
1, 333221, Note_on_c, 0, 84, 85
1, 333223, Note_on_c, 0, 81, 79
1, 333258, Note_off_c, 0, 84, 67
1, 333269, Note_off_c, 0, 81, 65
1, 333299, Control_c, 0, 64, 51
1, 333314, Control_c, 0, 64, 66
1, 333329, Control_c, 0, 64, 80
1, 333330, Note_on_c, 0, 55, 101
1, 333336, Note_on_c, 0, 43, 81
1, 333336, Note_on_c, 0, 47, 87
1, 333336, Note_on_c, 0, 50, 89
1, 333344, Control_c, 0, 64, 127
1, 333366, Note_off_c, 0, 43, 68
1, 333373, Note_off_c, 0, 50, 60
1, 333383, Note_off_c, 0, 47, 63
1, 333401, Note_off_c, 0, 55, 61
1, 333418, Note_on_c, 0, 74, 88
1, 333432, Note_on_c, 0, 71, 84
1, 333466, Note_off_c, 0, 71, 62
1, 333477, Note_off_c, 0, 74, 62
1, 333534, Note_on_c, 0, 71, 93
1, 333546, Note_on_c, 0, 67, 79
1, 333575, Note_off_c, 0, 67, 63
1, 333576, Note_off_c, 0, 71, 66
1, 333590, Control_c, 0, 64, 102
1, 333605, Control_c, 0, 64, 77
1, 333620, Control_c, 0, 64, 59
1, 333635, Control_c, 0, 64, 17
1, 333640, Note_on_c, 0, 72, 88
1, 333647, Note_on_c, 0, 69, 77
1, 333649, Control_c, 0, 64, 0
1, 333668, Note_off_c, 0, 69, 71
1, 333689, Note_off_c, 0, 72, 65
1, 333744, Note_on_c, 0, 74, 92
1, 333747, Note_on_c, 0, 71, 88
1, 333851, Note_on_c, 0, 59, 80
1, 333855, Note_on_c, 0, 62, 79
1, 333885, Note_off_c, 0, 62, 67
1, 333889, Note_off_c, 0, 59, 63
1, 333930, Note_off_c, 0, 71, 55
1, 333947, Note_on_c, 0, 59, 80
1, 333950, Note_on_c, 0, 55, 82
1, 333976, Note_off_c, 0, 74, 63
1, 333982, Note_off_c, 0, 59, 67
1, 334002, Note_off_c, 0, 55, 63
1, 334049, Note_on_c, 0, 60, 94
1, 334058, Note_on_c, 0, 57, 78
1, 334087, Note_off_c, 0, 57, 66
1, 334089, Note_off_c, 0, 60, 66
1, 334152, Note_on_c, 0, 59, 97
1, 334153, Note_on_c, 0, 62, 92
1, 334265, Note_on_c, 0, 86, 95
1, 334268, Note_off_c, 0, 62, 62
1, 334269, Note_on_c, 0, 83, 85
1, 334282, Note_off_c, 0, 59, 65
1, 334316, Note_off_c, 0, 83, 61
1, 334346, Note_off_c, 0, 86, 54
1, 334367, Note_on_c, 0, 81, 87
1, 334374, Note_on_c, 0, 84, 84
1, 334408, Note_off_c, 0, 81, 66
1, 334430, Note_off_c, 0, 84, 56
1, 334470, Note_on_c, 0, 79, 83
1, 334470, Note_on_c, 0, 83, 85
1, 334501, Note_off_c, 0, 83, 67
1, 334508, Note_off_c, 0, 79, 67
1, 334561, Control_c, 0, 64, 38
1, 334571, Note_on_c, 0, 48, 97
1, 334576, Control_c, 0, 64, 62
1, 334577, Note_on_c, 0, 36, 79
1, 334579, Note_on_c, 0, 43, 83
1, 334580, Note_on_c, 0, 40, 80
1, 334591, Control_c, 0, 64, 76
1, 334606, Control_c, 0, 64, 127
1, 334620, Note_off_c, 0, 36, 60
1, 334625, Note_on_c, 0, 75, 54
1, 334651, Note_off_c, 0, 40, 64
1, 334652, Note_off_c, 0, 48, 59
1, 334654, Note_off_c, 0, 43, 63
1, 334657, Note_off_c, 0, 75, 49
1, 334675, Note_on_c, 0, 70, 88
1, 334678, Note_on_c, 0, 76, 87
1, 334723, Note_off_c, 0, 76, 62
1, 334724, Note_off_c, 0, 70, 65
1, 334789, Note_on_c, 0, 76, 83
1, 334792, Note_on_c, 0, 67, 85
1, 334814, Control_c, 0, 64, 115
1, 334824, Note_off_c, 0, 67, 62
1, 334828, Control_c, 0, 64, 79
1, 334837, Note_off_c, 0, 76, 62
1, 334843, Control_c, 0, 64, 64
1, 334858, Control_c, 0, 64, 41
1, 334872, Control_c, 0, 64, 0
1, 334882, Note_on_c, 0, 68, 87
1, 334891, Note_on_c, 0, 76, 73
1, 334916, Note_off_c, 0, 68, 63
1, 334936, Note_off_c, 0, 76, 61
1, 334993, Note_on_c, 0, 70, 94
1, 335000, Note_on_c, 0, 76, 80
1, 335005, Note_on_c, 0, 73, 75
1, 335098, Note_on_c, 0, 61, 79
1, 335103, Note_on_c, 0, 58, 77
1, 335137, Note_off_c, 0, 61, 61
1, 335150, Note_off_c, 0, 58, 56
1, 335204, Note_on_c, 0, 55, 74
1, 335204, Note_on_c, 0, 58, 64
1, 335244, Note_off_c, 0, 58, 65
1, 335256, Note_off_c, 0, 76, 54
1, 335260, Note_off_c, 0, 55, 62
1, 335274, Note_off_c, 0, 70, 53
1, 335277, Note_off_c, 0, 73, 53
1, 335302, Note_on_c, 0, 60, 79
1, 335310, Note_on_c, 0, 56, 73
1, 335340, Note_off_c, 0, 60, 64
1, 335343, Note_off_c, 0, 56, 68
1, 335409, Note_on_c, 0, 61, 92
1, 335414, Note_on_c, 0, 58, 88
1, 335504, Note_on_c, 0, 70, 78
1, 335512, Note_on_c, 0, 76, 72
1, 335525, Note_off_c, 0, 61, 60
1, 335538, Note_off_c, 0, 70, 61
1, 335539, Note_off_c, 0, 58, 64
1, 335547, Note_off_c, 0, 76, 64
1, 335612, Note_on_c, 0, 76, 69
1, 335618, Note_on_c, 0, 68, 60
1, 335648, Note_off_c, 0, 68, 63
1, 335656, Note_off_c, 0, 76, 60
1, 335705, Note_on_c, 0, 76, 68
1, 335711, Note_on_c, 0, 67, 78
1, 335747, Note_off_c, 0, 67, 62
1, 335773, Note_off_c, 0, 76, 59
1, 335815, Note_on_c, 0, 53, 91
1, 335820, Note_on_c, 0, 48, 70
1, 335821, Control_c, 0, 64, 46
1, 335823, Note_on_c, 0, 41, 73
1, 335831, Note_on_c, 0, 44, 62
1, 335837, Control_c, 0, 64, 63
1, 335852, Control_c, 0, 64, 73
1, 335855, Note_off_c, 0, 41, 64
1, 335864, Note_off_c, 0, 44, 64
1, 335865, Note_off_c, 0, 48, 62
1, 335867, Control_c, 0, 64, 108
1, 335881, Control_c, 0, 64, 127
1, 335901, Note_off_c, 0, 53, 61
1, 335910, Note_on_c, 0, 77, 82
1, 335912, Note_on_c, 0, 72, 58
1, 335913, Note_on_c, 0, 68, 82
1, 335939, Note_off_c, 0, 68, 66
1, 335939, Note_off_c, 0, 72, 65
1, 335956, Note_off_c, 0, 77, 65
1, 335999, Control_c, 0, 64, 125
1, 336014, Control_c, 0, 64, 92
1, 336016, Note_on_c, 0, 65, 84
1, 336027, Note_on_c, 0, 77, 66
1, 336029, Control_c, 0, 64, 78
1, 336043, Note_off_c, 0, 65, 65
1, 336044, Control_c, 0, 64, 66
1, 336055, Note_off_c, 0, 77, 54
1, 336057, Note_on_c, 0, 76, 34
1, 336059, Control_c, 0, 64, 58
1, 336073, Control_c, 0, 64, 50
1, 336086, Note_off_c, 0, 76, 34
1, 336088, Control_c, 0, 64, 47
1, 336116, Note_on_c, 0, 67, 82
1, 336121, Note_on_c, 0, 77, 82
1, 336132, Control_c, 0, 64, 47
1, 336147, Control_c, 0, 64, 46
1, 336155, Note_off_c, 0, 77, 62
1, 336158, Note_off_c, 0, 67, 65
1, 336162, Control_c, 0, 64, 44
1, 336177, Control_c, 0, 64, 43
1, 336192, Control_c, 0, 64, 42
1, 336207, Control_c, 0, 64, 40
1, 336222, Control_c, 0, 64, 39
1, 336222, Note_on_c, 0, 72, 80
1, 336223, Note_on_c, 0, 68, 94
1, 336228, Note_on_c, 0, 77, 83
1, 336237, Control_c, 0, 64, 37
1, 336251, Control_c, 0, 64, 36
1, 336266, Control_c, 0, 64, 35
1, 336281, Control_c, 0, 64, 34
1, 336296, Control_c, 0, 64, 33
1, 336322, Note_on_c, 0, 56, 73
1, 336323, Note_on_c, 0, 60, 72
1, 336325, Control_c, 0, 64, 32
1, 336340, Control_c, 0, 64, 31
1, 336355, Control_c, 0, 64, 31
1, 336356, Note_off_c, 0, 60, 68
1, 336362, Note_off_c, 0, 56, 58
1, 336370, Control_c, 0, 64, 29
1, 336385, Control_c, 0, 64, 28
1, 336399, Control_c, 0, 64, 27
1, 336414, Control_c, 0, 64, 26
1, 336431, Note_on_c, 0, 53, 73
1, 336434, Note_on_c, 0, 56, 62
1, 336451, Control_c, 0, 64, 26
1, 336470, Note_off_c, 0, 56, 67
1, 336481, Control_c, 0, 64, 25
1, 336485, Note_off_c, 0, 53, 62
1, 336507, Note_off_c, 0, 77, 42
1, 336511, Control_c, 0, 64, 24
1, 336523, Note_off_c, 0, 72, 47
1, 336526, Control_c, 0, 64, 24
1, 336537, Note_on_c, 0, 58, 78
1, 336540, Control_c, 0, 64, 23
1, 336547, Note_on_c, 0, 55, 68
1, 336555, Control_c, 0, 64, 21
1, 336570, Control_c, 0, 64, 15
1, 336579, Note_off_c, 0, 68, 47
1, 336580, Note_off_c, 0, 55, 64
1, 336584, Note_off_c, 0, 58, 62
1, 336585, Control_c, 0, 64, 0
1, 336648, Note_on_c, 0, 56, 85
1, 336648, Note_on_c, 0, 60, 93
1, 336747, Note_on_c, 0, 68, 81
1, 336754, Note_on_c, 0, 77, 74
1, 336771, Note_off_c, 0, 60, 63
1, 336792, Note_off_c, 0, 56, 64
1, 336812, Note_off_c, 0, 68, 60
1, 336812, Note_off_c, 0, 77, 61
1, 336872, Note_on_c, 0, 67, 76
1, 336883, Note_on_c, 0, 77, 59
1, 336898, Note_off_c, 0, 67, 66
1, 336919, Note_off_c, 0, 77, 62
1, 336969, Note_on_c, 0, 65, 83
1, 336969, Note_on_c, 0, 77, 89
1, 337015, Note_off_c, 0, 65, 63
1, 337018, Note_off_c, 0, 77, 64
1, 337068, Note_on_c, 0, 50, 101
1, 337073, Note_on_c, 0, 42, 79
1, 337074, Control_c, 0, 64, 15
1, 337076, Note_on_c, 0, 38, 79
1, 337079, Note_on_c, 0, 45, 74
1, 337089, Control_c, 0, 64, 52
1, 337104, Control_c, 0, 64, 64
1, 337111, Note_off_c, 0, 38, 65
1, 337119, Control_c, 0, 64, 73
1, 337132, Note_off_c, 0, 45, 59
1, 337134, Control_c, 0, 64, 93
1, 337143, Note_off_c, 0, 42, 63
1, 337148, Control_c, 0, 64, 127
1, 337158, Note_off_c, 0, 50, 61
1, 337164, Note_on_c, 0, 72, 78
1, 337166, Note_on_c, 0, 78, 90
1, 337203, Note_off_c, 0, 72, 65
1, 337226, Note_off_c, 0, 78, 62
1, 337284, Note_on_c, 0, 69, 92
1, 337284, Note_on_c, 0, 78, 92
1, 337326, Note_off_c, 0, 69, 64
1, 337331, Note_off_c, 0, 78, 64
1, 337334, Control_c, 0, 64, 98
1, 337349, Control_c, 0, 64, 78
1, 337364, Control_c, 0, 64, 68
1, 337379, Control_c, 0, 64, 60
1, 337384, Note_on_c, 0, 78, 92
1, 337385, Note_on_c, 0, 71, 98
1, 337393, Control_c, 0, 64, 51
1, 337408, Control_c, 0, 64, 46
1, 337432, Note_off_c, 0, 71, 64
1, 337435, Note_off_c, 0, 78, 63
1, 337439, Control_c, 0, 64, 46
1, 337453, Control_c, 0, 64, 44
1, 337468, Control_c, 0, 64, 42
1, 337483, Control_c, 0, 64, 37
1, 337486, Note_on_c, 0, 78, 100
1, 337488, Note_on_c, 0, 72, 94
1, 337498, Control_c, 0, 64, 31
1, 337501, Note_on_c, 0, 75, 82
1, 337513, Control_c, 0, 64, 28
1, 337528, Control_c, 0, 64, 26
1, 337542, Control_c, 0, 64, 26
1, 337587, Control_c, 0, 64, 25
1, 337605, Note_on_c, 0, 63, 81
1, 337617, Note_on_c, 0, 60, 66
1, 337650, Note_off_c, 0, 63, 62
1, 337651, Note_off_c, 0, 60, 63
1, 337661, Control_c, 0, 64, 25
1, 337691, Control_c, 0, 64, 24
1, 337705, Control_c, 0, 64, 24
1, 337708, Note_on_c, 0, 57, 73
1, 337718, Note_on_c, 0, 60, 73
1, 337752, Note_off_c, 0, 78, 51
1, 337760, Note_off_c, 0, 60, 61
1, 337765, Control_c, 0, 64, 23
1, 337769, Note_off_c, 0, 57, 64
1, 337779, Control_c, 0, 64, 16
1, 337794, Control_c, 0, 64, 0
1, 337815, Note_off_c, 0, 72, 45
1, 337818, Note_on_c, 0, 62, 79
1, 337827, Note_on_c, 0, 59, 75
1, 337868, Control_c, 0, 64, 24
1, 337871, Note_off_c, 0, 59, 60
1, 337875, Note_off_c, 0, 62, 62
1, 337883, Control_c, 0, 64, 43
1, 337888, Note_off_c, 0, 75, 29
1, 337897, Control_c, 0, 64, 57
1, 337912, Control_c, 0, 64, 61
1, 337935, Control_c, 0, 64, 61
1, 337937, Note_on_c, 0, 60, 87
1, 337938, Note_on_c, 0, 63, 91
1, 337993, Control_c, 0, 64, 61
1, 338013, Note_on_c, 0, 78, 81
1, 338015, Note_on_c, 0, 72, 75
1, 338022, Control_c, 0, 64, 60
1, 338052, Control_c, 0, 64, 60
1, 338060, Note_off_c, 0, 72, 62
1, 338061, Note_off_c, 0, 60, 65
1, 338061, Note_off_c, 0, 63, 62
1, 338061, Note_off_c, 0, 78, 61
1, 338082, Control_c, 0, 64, 59
1, 338096, Control_c, 0, 64, 59
1, 338111, Control_c, 0, 64, 58
1, 338120, Note_on_c, 0, 78, 79
1, 338126, Control_c, 0, 64, 57
1, 338141, Control_c, 0, 64, 57
1, 338144, Note_on_c, 0, 71, 58
1, 338162, Note_off_c, 0, 71, 61
1, 338181, Note_off_c, 0, 78, 59
1, 338232, Note_on_c, 0, 69, 75
1, 338238, Note_on_c, 0, 78, 25
1, 338250, Note_on_c, 0, 79, 61
1, 338261, Control_c, 0, 64, 56
1, 338275, Control_c, 0, 64, 39
1, 338277, Note_off_c, 0, 78, 42
1, 338279, Note_off_c, 0, 79, 66
1, 338289, Note_off_c, 0, 69, 59
1, 338290, Control_c, 0, 64, 0
1, 338341, Note_on_c, 0, 55, 102
1, 338345, Note_on_c, 0, 43, 79
1, 338347, Note_on_c, 0, 80, 92
1, 338355, Note_on_c, 0, 50, 80
1, 338356, Note_on_c, 0, 47, 73
1, 338364, Control_c, 0, 64, 53
1, 338379, Control_c, 0, 64, 67
1, 338383, Note_off_c, 0, 43, 64
1, 338390, Note_off_c, 0, 47, 66
1, 338394, Control_c, 0, 64, 82
1, 338398, Note_off_c, 0, 50, 61
1, 338404, Note_off_c, 0, 80, 61
1, 338408, Control_c, 0, 64, 127
1, 338416, Note_off_c, 0, 55, 62
1, 338454, Note_on_c, 0, 80, 58
1, 338455, Note_on_c, 0, 78, 85
1, 338473, Note_on_c, 0, 77, 70
1, 338481, Note_off_c, 0, 78, 58
1, 338493, Note_off_c, 0, 80, 60
1, 338505, Note_off_c, 0, 77, 65
1, 338556, Note_on_c, 0, 74, 48
1, 338571, Note_on_c, 0, 75, 73
1, 338571, Control_c, 0, 64, 109
1, 338576, Note_on_c, 0, 77, 61
1, 338586, Note_off_c, 0, 74, 64
1, 338586, Control_c, 0, 64, 91
1, 338593, Note_on_c, 0, 76, 36
1, 338601, Control_c, 0, 64, 77
1, 338607, Note_off_c, 0, 77, 61
1, 338616, Control_c, 0, 64, 66
1, 338616, Note_off_c, 0, 75, 51
1, 338623, Note_off_c, 0, 76, 44
1, 338630, Control_c, 0, 64, 58
1, 338645, Control_c, 0, 64, 48
1, 338660, Control_c, 0, 64, 46
1, 338672, Note_on_c, 0, 79, 77
1, 338688, Note_on_c, 0, 77, 54
1, 338697, Control_c, 0, 64, 45
1, 338709, Note_off_c, 0, 77, 59
1, 338712, Control_c, 0, 64, 44
1, 338715, Note_off_c, 0, 79, 64
1, 338726, Control_c, 0, 64, 41
1, 338741, Control_c, 0, 64, 39
1, 338756, Control_c, 0, 64, 38
1, 338769, Note_on_c, 0, 80, 93
1, 338774, Note_on_c, 0, 77, 87
1, 338865, Note_on_c, 0, 68, 82
1, 338870, Note_on_c, 0, 65, 73
1, 338905, Control_c, 0, 64, 38
1, 338907, Note_off_c, 0, 68, 62
1, 338925, Note_off_c, 0, 65, 56
1, 338930, Note_off_c, 0, 77, 63
1, 338934, Control_c, 0, 64, 37
1, 338935, Note_off_c, 0, 80, 61
1, 338949, Control_c, 0, 64, 37
1, 338973, Note_on_c, 0, 62, 72
1, 338974, Note_on_c, 0, 65, 57
1, 338979, Control_c, 0, 64, 36
1, 338993, Control_c, 0, 64, 35
1, 339008, Control_c, 0, 64, 30
1, 339017, Note_off_c, 0, 65, 64
1, 339024, Control_c, 0, 64, 14
1, 339030, Note_off_c, 0, 62, 62
1, 339039, Control_c, 0, 64, 0
1, 339081, Note_on_c, 0, 67, 82
1, 339091, Note_on_c, 0, 63, 70
1, 339123, Note_off_c, 0, 63, 64
1, 339128, Control_c, 0, 64, 32
1, 339130, Note_off_c, 0, 67, 62
1, 339142, Control_c, 0, 64, 55
1, 339157, Control_c, 0, 64, 65
1, 339172, Control_c, 0, 64, 74
1, 339179, Note_on_c, 0, 68, 98
1, 339183, Note_on_c, 0, 65, 85
1, 339187, Control_c, 0, 64, 88
1, 339202, Control_c, 0, 64, 102
1, 339216, Control_c, 0, 64, 100
1, 339221, Note_off_c, 0, 68, 63
1, 339227, Note_off_c, 0, 65, 66
1, 339231, Control_c, 0, 64, 95
1, 339246, Control_c, 0, 64, 90
1, 339251, Note_on_c, 0, 66, 9
1, 339261, Control_c, 0, 64, 86
1, 339276, Control_c, 0, 64, 81
1, 339277, Note_on_c, 0, 68, 64
1, 339290, Control_c, 0, 64, 75
1, 339305, Control_c, 0, 64, 69
1, 339307, Note_on_c, 0, 65, 72
1, 339320, Control_c, 0, 64, 64
1, 339334, Note_off_c, 0, 68, 62
1, 339335, Control_c, 0, 64, 58
1, 339339, Note_off_c, 0, 65, 61
1, 339346, Note_off_c, 0, 66, 50
1, 339349, Control_c, 0, 64, 52
1, 339364, Control_c, 0, 64, 49
1, 339379, Control_c, 0, 64, 47
1, 339394, Control_c, 0, 64, 44
1, 339403, Note_on_c, 0, 65, 67
1, 339404, Note_on_c, 0, 62, 74
1, 339409, Control_c, 0, 64, 41
1, 339431, Control_c, 0, 64, 31
1, 339442, Note_off_c, 0, 62, 65
1, 339444, Note_off_c, 0, 65, 61
1, 339446, Control_c, 0, 64, 0
1, 339502, Note_on_c, 0, 63, 66
1, 339509, Note_on_c, 0, 67, 68
1, 339533, Note_off_c, 0, 63, 65
1, 339540, Note_off_c, 0, 67, 66
1, 339602, Note_on_c, 0, 65, 82
1, 339602, Note_on_c, 0, 68, 91
1, 339609, Control_c, 0, 64, 17
1, 339623, Control_c, 0, 64, 49
1, 339638, Control_c, 0, 64, 62
1, 339653, Control_c, 0, 64, 68
1, 339656, Note_off_c, 0, 65, 63
1, 339668, Control_c, 0, 64, 74
1, 339674, Note_off_c, 0, 68, 60
1, 339683, Control_c, 0, 64, 76
1, 339698, Control_c, 0, 64, 74
1, 339701, Note_on_c, 0, 56, 83
1, 339710, Note_on_c, 0, 53, 78
1, 339713, Control_c, 0, 64, 73
1, 339727, Control_c, 0, 64, 71
1, 339742, Control_c, 0, 64, 69
1, 339748, Note_off_c, 0, 56, 64
1, 339757, Control_c, 0, 64, 67
1, 339758, Note_off_c, 0, 53, 58
1, 339772, Control_c, 0, 64, 63
1, 339787, Control_c, 0, 64, 60
1, 339802, Control_c, 0, 64, 59
1, 339803, Note_on_c, 0, 53, 55
1, 339806, Note_on_c, 0, 50, 69
1, 339817, Control_c, 0, 64, 58
1, 339832, Control_c, 0, 64, 56
1, 339847, Control_c, 0, 64, 51
1, 339848, Note_off_c, 0, 53, 63
1, 339862, Control_c, 0, 64, 23
1, 339863, Note_off_c, 0, 50, 62
1, 339877, Control_c, 0, 64, 0
1, 339915, Note_on_c, 0, 55, 80
1, 339921, Note_on_c, 0, 51, 78
1, 339965, Control_c, 0, 64, 39
1, 339980, Control_c, 0, 64, 61
1, 339985, Note_off_c, 0, 51, 58
1, 339995, Control_c, 0, 64, 70
1, 339996, Note_on_c, 0, 56, 52
1, 340010, Control_c, 0, 64, 87
1, 340019, Note_off_c, 0, 55, 59
1, 340025, Control_c, 0, 64, 127
1, 340026, Note_on_c, 0, 53, 73
1, 340032, Note_off_c, 0, 56, 63
1, 340055, Note_off_c, 0, 53, 66
1, 340106, Note_on_c, 0, 53, 80
1, 340108, Note_on_c, 0, 56, 77
1, 340128, Control_c, 0, 64, 111
1, 340143, Control_c, 0, 64, 94
1, 340147, Note_off_c, 0, 53, 58
1, 340148, Note_off_c, 0, 56, 59
1, 340158, Control_c, 0, 64, 82
1, 340180, Control_c, 0, 64, 73
1, 340195, Control_c, 0, 64, 67
1, 340210, Control_c, 0, 64, 61
1, 340218, Note_on_c, 0, 53, 71
1, 340221, Note_on_c, 0, 50, 76
1, 340225, Control_c, 0, 64, 53
1, 340240, Control_c, 0, 64, 46
1, 340251, Note_off_c, 0, 50, 69
1, 340254, Control_c, 0, 64, 37
1, 340269, Note_off_c, 0, 53, 59
1, 340269, Control_c, 0, 64, 26
1, 340284, Control_c, 0, 64, 13
1, 340298, Control_c, 0, 64, 0
1, 340321, Note_on_c, 0, 55, 80
1, 340323, Note_on_c, 0, 51, 74
1, 340356, Note_off_c, 0, 51, 67
1, 340372, Control_c, 0, 64, 9
1, 340377, Note_off_c, 0, 55, 64
1, 340402, Control_c, 0, 64, 11
1, 340420, Note_on_c, 0, 56, 91
1, 340425, Note_on_c, 0, 53, 77
1, 340461, Note_off_c, 0, 53, 67
1, 340513, Note_off_c, 0, 56, 67
1, 340521, Note_on_c, 0, 44, 85
1, 340531, Note_on_c, 0, 41, 72
1, 340578, Note_off_c, 0, 44, 63
1, 340582, Note_off_c, 0, 41, 59
1, 340595, Control_c, 0, 64, 9
1, 340625, Control_c, 0, 64, 0
1, 340637, Note_on_c, 0, 59, 88
1, 340639, Note_on_c, 0, 50, 88
1, 340640, Note_on_c, 0, 53, 78
1, 340642, Note_on_c, 0, 43, 62
1, 340684, Note_off_c, 0, 53, 62
1, 340692, Note_off_c, 0, 43, 62
1, 340699, Note_off_c, 0, 50, 62
1, 340723, Note_off_c, 0, 59, 64
1, 340750, Note_on_c, 0, 41, 86
1, 340752, Note_on_c, 0, 38, 77
1, 340812, Note_off_c, 0, 41, 65
1, 340828, Note_off_c, 0, 38, 63
1, 340877, Note_on_c, 0, 60, 93
1, 340878, Note_on_c, 0, 51, 99
1, 340884, Note_on_c, 0, 55, 73
1, 340996, Note_on_c, 0, 39, 86
1, 341055, Note_off_c, 0, 51, 64
1, 341057, Note_off_c, 0, 39, 63
1, 341063, Note_off_c, 0, 60, 55
1, 341066, Note_off_c, 0, 55, 49
1, 341118, Note_on_c, 0, 38, 85
1, 341179, Note_off_c, 0, 38, 63
1, 341222, Note_on_c, 0, 36, 90
1, 341289, Note_off_c, 0, 36, 61
1, 341336, Note_on_c, 0, 62, 86
1, 341337, Note_on_c, 0, 53, 90
1, 341338, Note_on_c, 0, 55, 90
1, 341447, Note_on_c, 0, 35, 82
1, 341509, Note_off_c, 0, 35, 62
1, 341538, Note_off_c, 0, 62, 58
1, 341562, Note_off_c, 0, 53, 61
1, 341567, Note_on_c, 0, 33, 89
1, 341582, Note_off_c, 0, 55, 58
1, 341623, Note_off_c, 0, 33, 63
1, 341681, Note_on_c, 0, 31, 91
1, 341752, Note_off_c, 0, 31, 63
1, 341839, Note_on_c, 0, 60, 97
1, 341841, Note_on_c, 0, 51, 98
1, 341844, Note_on_c, 0, 55, 80
1, 342138, Control_c, 0, 64, 45
1, 342152, Control_c, 0, 64, 60
1, 342160, Note_on_c, 0, 36, 86
1, 342167, Control_c, 0, 64, 65
1, 342182, Control_c, 0, 64, 70
1, 342197, Control_c, 0, 64, 77
1, 342213, Control_c, 0, 64, 87
1, 342228, Control_c, 0, 64, 127
1, 342238, Note_off_c, 0, 51, 63
1, 342265, Note_off_c, 0, 55, 60
1, 342270, Note_off_c, 0, 60, 58
1, 342383, Note_off_c, 0, 36, 60
1, 342471, Control_c, 0, 64, 103
1, 342486, Control_c, 0, 64, 82
1, 342501, Control_c, 0, 64, 68
1, 342515, Control_c, 0, 64, 57
1, 342530, Control_c, 0, 64, 39
1, 342545, Control_c, 0, 64, 30
1, 342560, Control_c, 0, 64, 29
1, 342574, Control_c, 0, 64, 26
1, 342589, Control_c, 0, 64, 14
1, 342604, Control_c, 0, 64, 0
1, 343153, Control_c, 0, 67, 26
1, 343176, Control_c, 0, 67, 49
1, 343190, Control_c, 0, 67, 74
1, 343205, Control_c, 0, 67, 99
1, 343220, Control_c, 0, 67, 127
1, 343353, Control_c, 0, 64, 13
1, 343368, Control_c, 0, 64, 23
1, 343383, Control_c, 0, 64, 34
1, 343397, Control_c, 0, 64, 45
1, 343412, Control_c, 0, 64, 53
1, 343427, Control_c, 0, 64, 58
1, 343442, Control_c, 0, 64, 61
1, 343457, Control_c, 0, 64, 63
1, 343467, Note_on_c, 0, 79, 58
1, 343471, Control_c, 0, 64, 65
1, 343486, Control_c, 0, 64, 66
1, 343489, Note_on_c, 0, 48, 36
1, 343501, Control_c, 0, 64, 68
1, 343516, Control_c, 0, 64, 71
1, 343531, Control_c, 0, 64, 76
1, 343546, Control_c, 0, 64, 82
1, 343561, Control_c, 0, 64, 91
1, 343576, Control_c, 0, 64, 103
1, 343590, Control_c, 0, 64, 127
1, 343600, Note_off_c, 0, 48, 54
1, 343771, Note_on_c, 0, 63, 30
1, 343934, Note_off_c, 0, 63, 35
1, 343941, Note_on_c, 0, 60, 34
1, 344062, Note_on_c, 0, 63, 45
1, 344152, Note_off_c, 0, 63, 38
1, 344175, Note_off_c, 0, 60, 35
1, 344210, Note_on_c, 0, 87, 66
1, 344248, Note_on_c, 0, 55, 31
1, 344338, Note_off_c, 0, 79, 49
1, 344368, Note_on_c, 0, 63, 39
1, 344419, Note_off_c, 0, 87, 55
1, 344426, Note_off_c, 0, 55, 30
1, 344445, Note_off_c, 0, 63, 49
1, 344488, Note_on_c, 0, 60, 32
1, 344600, Note_on_c, 0, 63, 42
1, 344667, Note_off_c, 0, 63, 55
1, 344697, Note_on_c, 0, 84, 63
1, 344710, Note_off_c, 0, 60, 37
1, 344711, Note_on_c, 0, 55, 45
1, 344806, Note_off_c, 0, 55, 55
1, 344823, Note_on_c, 0, 63, 42
1, 344856, Note_off_c, 0, 84, 62
1, 344914, Note_off_c, 0, 63, 54
1, 344950, Note_on_c, 0, 60, 45
1, 345026, Note_off_c, 0, 60, 63
1, 345048, Note_on_c, 0, 63, 56
1, 345081, Note_off_c, 0, 63, 64
1, 345222, Control_c, 0, 64, 87
1, 345236, Control_c, 0, 64, 66
1, 345242, Note_on_c, 0, 83, 72
1, 345251, Control_c, 0, 64, 19
1, 345266, Control_c, 0, 64, 0
1, 345290, Note_on_c, 0, 43, 47
1, 345311, Control_c, 0, 64, 37
1, 345326, Control_c, 0, 64, 59
1, 345341, Control_c, 0, 64, 67
1, 345355, Control_c, 0, 64, 79
1, 345361, Note_off_c, 0, 43, 63
1, 345370, Control_c, 0, 64, 102
1, 345385, Control_c, 0, 64, 127
1, 345482, Note_on_c, 0, 62, 59
1, 345594, Note_off_c, 0, 62, 51
1, 345612, Note_on_c, 0, 59, 49
1, 345671, Note_off_c, 0, 59, 56
1, 345747, Note_on_c, 0, 62, 36
1, 345789, Note_off_c, 0, 62, 59
1, 345800, Note_on_c, 0, 86, 76
1, 345826, Note_on_c, 0, 55, 46
1, 345855, Note_off_c, 0, 83, 58
1, 345903, Note_off_c, 0, 55, 53
1, 345922, Note_on_c, 0, 62, 42
1, 345941, Control_c, 0, 67, 125
1, 345956, Control_c, 0, 67, 124
1, 345971, Control_c, 0, 67, 122
1, 345985, Control_c, 0, 67, 120
1, 345995, Note_off_c, 0, 62, 55
1, 346000, Control_c, 0, 67, 118
1, 346015, Control_c, 0, 67, 117
1, 346020, Note_on_c, 0, 59, 51
1, 346030, Control_c, 0, 67, 115
1, 346045, Control_c, 0, 67, 114
1, 346059, Control_c, 0, 67, 112
1, 346074, Control_c, 0, 67, 108
1, 346083, Note_off_c, 0, 59, 53
1, 346089, Control_c, 0, 67, 104
1, 346104, Control_c, 0, 67, 99
1, 346119, Control_c, 0, 67, 96
1, 346130, Note_on_c, 0, 62, 51
1, 346133, Control_c, 0, 67, 92
1, 346148, Control_c, 0, 67, 89
1, 346171, Control_c, 0, 67, 87
1, 346186, Control_c, 0, 67, 85
1, 346200, Control_c, 0, 67, 84
1, 346203, Note_off_c, 0, 62, 51
1, 346215, Control_c, 0, 67, 82
1, 346230, Control_c, 0, 67, 79
1, 346243, Note_on_c, 0, 79, 74
1, 346245, Control_c, 0, 67, 76
1, 346256, Note_on_c, 0, 55, 46
1, 346260, Control_c, 0, 67, 72
1, 346275, Control_c, 0, 67, 69
1, 346289, Control_c, 0, 67, 65
1, 346304, Control_c, 0, 67, 61
1, 346319, Control_c, 0, 67, 56
1, 346328, Note_off_c, 0, 55, 54
1, 346334, Control_c, 0, 67, 51
1, 346348, Note_on_c, 0, 62, 51
1, 346349, Control_c, 0, 67, 46
1, 346358, Note_off_c, 0, 86, 56
1, 346363, Control_c, 0, 67, 41
1, 346378, Control_c, 0, 67, 36
1, 346393, Control_c, 0, 67, 32
1, 346408, Control_c, 0, 67, 28
1, 346423, Control_c, 0, 67, 25
1, 346437, Control_c, 0, 67, 23
1, 346443, Note_off_c, 0, 62, 54
1, 346452, Control_c, 0, 67, 21
1, 346459, Note_on_c, 0, 59, 55
1, 346467, Control_c, 0, 67, 19
1, 346482, Control_c, 0, 67, 17
1, 346497, Control_c, 0, 67, 15
1, 346503, Note_off_c, 0, 59, 62
1, 346512, Control_c, 0, 67, 12
1, 346527, Control_c, 0, 67, 11
1, 346541, Control_c, 0, 67, 10
1, 346556, Control_c, 0, 67, 9
1, 346571, Control_c, 0, 67, 0
1, 346589, Note_on_c, 0, 62, 34
1, 346619, Note_off_c, 0, 62, 54
1, 346762, Note_on_c, 0, 82, 74
1, 346763, Control_c, 0, 64, 89
1, 346778, Control_c, 0, 64, 67
1, 346789, Note_off_c, 0, 79, 63
1, 346793, Control_c, 0, 64, 34
1, 346794, Note_on_c, 0, 48, 44
1, 346807, Control_c, 0, 64, 0
1, 346867, Control_c, 0, 64, 44
1, 346867, Control_c, 0, 67, 9
1, 346882, Control_c, 0, 64, 61
1, 346882, Control_c, 0, 67, 10
1, 346897, Control_c, 0, 64, 69
1, 346897, Control_c, 0, 67, 12
1, 346908, Note_off_c, 0, 48, 60
1, 346919, Control_c, 0, 64, 80
1, 346919, Control_c, 0, 67, 14
1, 346934, Control_c, 0, 64, 127
1, 346934, Control_c, 0, 67, 16
1, 346948, Control_c, 0, 67, 17
1, 346963, Control_c, 0, 67, 20
1, 346978, Control_c, 0, 67, 22
1, 346993, Control_c, 0, 67, 24
1, 346999, Note_on_c, 0, 64, 50
1, 347009, Control_c, 0, 67, 26
1, 347024, Control_c, 0, 67, 28
1, 347038, Control_c, 0, 67, 30
1, 347053, Control_c, 0, 67, 32
1, 347068, Control_c, 0, 67, 34
1, 347083, Control_c, 0, 67, 39
1, 347087, Note_off_c, 0, 64, 47
1, 347098, Control_c, 0, 67, 48
1, 347113, Control_c, 0, 67, 57
1, 347114, Note_on_c, 0, 58, 50
1, 347127, Control_c, 0, 67, 66
1, 347142, Control_c, 0, 67, 76
1, 347156, Control_c, 0, 67, 84
1, 347171, Control_c, 0, 67, 92
1, 347186, Control_c, 0, 67, 93
1, 347216, Control_c, 0, 67, 92
1, 347227, Note_on_c, 0, 64, 49
1, 347230, Control_c, 0, 67, 91
1, 347245, Control_c, 0, 67, 90
1, 347260, Control_c, 0, 67, 89
1, 347334, Note_off_c, 0, 64, 48
1, 347335, Control_c, 0, 67, 90
1, 347350, Control_c, 0, 67, 90
1, 347358, Note_on_c, 0, 85, 75
1, 347364, Control_c, 0, 67, 91
1, 347369, Note_on_c, 0, 55, 44
1, 347376, Note_off_c, 0, 58, 24
1, 347379, Control_c, 0, 67, 92
1, 347394, Control_c, 0, 67, 92
1, 347420, Note_off_c, 0, 82, 57
1, 347424, Control_c, 0, 67, 93
1, 347438, Control_c, 0, 67, 94
1, 347480, Note_on_c, 0, 64, 45
1, 347542, Control_c, 0, 67, 93
1, 347550, Note_off_c, 0, 64, 50
1, 347556, Control_c, 0, 67, 92
1, 347571, Control_c, 0, 67, 92
1, 347586, Control_c, 0, 67, 91
1, 347587, Note_on_c, 0, 58, 38
1, 347601, Control_c, 0, 67, 90
1, 347616, Control_c, 0, 67, 89
1, 347630, Control_c, 0, 67, 88
1, 347636, Note_off_c, 0, 55, 40
1, 347645, Control_c, 0, 67, 87
1, 347668, Control_c, 0, 67, 86
1, 347683, Control_c, 0, 67, 85
1, 347698, Control_c, 0, 67, 84
1, 347707, Note_on_c, 0, 64, 44
1, 347712, Control_c, 0, 67, 84
1, 347727, Control_c, 0, 67, 82
1, 347742, Control_c, 0, 67, 81
1, 347757, Control_c, 0, 67, 80
1, 347770, Note_off_c, 0, 64, 54
1, 347771, Control_c, 0, 67, 79
1, 347786, Control_c, 0, 67, 78
1, 347801, Control_c, 0, 67, 77
1, 347810, Note_on_c, 0, 82, 67
1, 347817, Control_c, 0, 67, 76
1, 347818, Note_on_c, 0, 55, 37
1, 347832, Control_c, 0, 67, 74
1, 347847, Control_c, 0, 67, 72
1, 347859, Note_off_c, 0, 85, 57
1, 347862, Control_c, 0, 67, 72
1, 347876, Control_c, 0, 67, 71
1, 347886, Note_off_c, 0, 58, 32
1, 347891, Control_c, 0, 67, 70
1, 347906, Control_c, 0, 67, 68
1, 347921, Control_c, 0, 67, 66
1, 347935, Control_c, 0, 67, 64
1, 347942, Note_on_c, 0, 64, 35
1, 347950, Control_c, 0, 67, 63
1, 347965, Control_c, 0, 67, 61
1, 347979, Control_c, 0, 67, 57
1, 347994, Control_c, 0, 67, 54
1, 348009, Control_c, 0, 67, 52
1, 348024, Control_c, 0, 67, 51
1, 348032, Note_on_c, 0, 58, 43
1, 348032, Note_off_c, 0, 64, 52
1, 348068, Control_c, 0, 67, 52
1, 348083, Control_c, 0, 67, 53
1, 348089, Note_off_c, 0, 55, 38
1, 348098, Control_c, 0, 67, 55
1, 348113, Control_c, 0, 67, 57
1, 348128, Control_c, 0, 67, 58
1, 348143, Control_c, 0, 67, 59
1, 348157, Control_c, 0, 67, 61
1, 348169, Note_on_c, 0, 64, 42
1, 348172, Control_c, 0, 67, 62
1, 348187, Control_c, 0, 67, 64
1, 348202, Control_c, 0, 67, 66
1, 348217, Control_c, 0, 67, 67
1, 348232, Control_c, 0, 67, 69
1, 348247, Control_c, 0, 67, 70
1, 348253, Note_off_c, 0, 58, 33
1, 348261, Control_c, 0, 67, 71
1, 348269, Note_off_c, 0, 64, 52
1, 348276, Control_c, 0, 67, 72
1, 348291, Control_c, 0, 67, 74
1, 348306, Control_c, 0, 67, 75
1, 348321, Control_c, 0, 67, 76
1, 348333, Note_on_c, 0, 81, 67
1, 348335, Control_c, 0, 67, 77
1, 348342, Note_on_c, 0, 53, 42
1, 348350, Control_c, 0, 64, 103
1, 348350, Control_c, 0, 67, 77
1, 348365, Control_c, 0, 64, 88
1, 348379, Control_c, 0, 64, 76
1, 348379, Control_c, 0, 67, 78
1, 348381, Note_off_c, 0, 82, 55
1, 348394, Control_c, 0, 64, 65
1, 348417, Control_c, 0, 64, 50
1, 348432, Control_c, 0, 64, 0
1, 348520, Control_c, 0, 67, 77
1, 348530, Note_on_c, 0, 65, 38
1, 348549, Control_c, 0, 64, 21
1, 348549, Control_c, 0, 67, 77
1, 348564, Control_c, 0, 64, 46
1, 348564, Control_c, 0, 67, 76
1, 348579, Control_c, 0, 64, 58
1, 348579, Control_c, 0, 67, 74
1, 348593, Control_c, 0, 64, 63
1, 348593, Control_c, 0, 67, 74
1, 348597, Note_off_c, 0, 65, 54
1, 348609, Control_c, 0, 64, 67
1, 348609, Control_c, 0, 67, 73
1, 348624, Control_c, 0, 64, 70
1, 348624, Control_c, 0, 67, 72
1, 348631, Note_on_c, 0, 60, 34
1, 348639, Control_c, 0, 64, 74
1, 348639, Control_c, 0, 67, 72
1, 348654, Control_c, 0, 64, 79
1, 348654, Control_c, 0, 67, 71
1, 348669, Control_c, 0, 64, 83
1, 348683, Control_c, 0, 64, 88
1, 348698, Control_c, 0, 64, 95
1, 348698, Control_c, 0, 67, 71
1, 348713, Control_c, 0, 64, 101
1, 348728, Control_c, 0, 64, 106
1, 348743, Control_c, 0, 64, 111
1, 348743, Control_c, 0, 67, 70
1, 348746, Note_on_c, 0, 65, 47
1, 348757, Control_c, 0, 64, 115
1, 348757, Control_c, 0, 67, 69
1, 348772, Control_c, 0, 64, 119
1, 348787, Control_c, 0, 64, 127
1, 348787, Control_c, 0, 67, 69
1, 348801, Control_c, 0, 67, 68
1, 348802, Note_off_c, 0, 65, 55
1, 348816, Control_c, 0, 67, 67
1, 348846, Control_c, 0, 67, 66
1, 348851, Note_on_c, 0, 84, 66
1, 348861, Control_c, 0, 67, 66
1, 348862, Note_off_c, 0, 60, 20
1, 348870, Note_on_c, 0, 57, 41
1, 348876, Control_c, 0, 67, 64
1, 348891, Control_c, 0, 67, 64
1, 348906, Control_c, 0, 67, 63
1, 348908, Note_off_c, 0, 81, 56
1, 348921, Control_c, 0, 67, 62
1, 348935, Control_c, 0, 67, 62
1, 348962, Note_on_c, 0, 65, 43
1, 348965, Control_c, 0, 67, 61
1, 348995, Control_c, 0, 67, 61
1, 349009, Control_c, 0, 67, 60
1, 349024, Note_off_c, 0, 65, 56
1, 349024, Control_c, 0, 67, 59
1, 349039, Control_c, 0, 67, 58
1, 349062, Note_on_c, 0, 60, 43
1, 349069, Control_c, 0, 67, 57
1, 349083, Control_c, 0, 67, 57
1, 349098, Control_c, 0, 67, 56
1, 349113, Control_c, 0, 67, 55
1, 349118, Note_off_c, 0, 57, 32
1, 349128, Control_c, 0, 67, 54
1, 349143, Control_c, 0, 67, 53
1, 349165, Control_c, 0, 67, 52
1, 349174, Note_on_c, 0, 65, 50
1, 349180, Control_c, 0, 67, 51
1, 349195, Control_c, 0, 67, 51
1, 349209, Control_c, 0, 67, 50
1, 349224, Control_c, 0, 67, 49
1, 349254, Control_c, 0, 67, 49
1, 349268, Note_off_c, 0, 65, 52
1, 349269, Control_c, 0, 67, 48
1, 349283, Control_c, 0, 67, 47
1, 349298, Note_on_c, 0, 77, 70
1, 349298, Control_c, 0, 67, 47
1, 349313, Control_c, 0, 67, 46
1, 349327, Note_on_c, 0, 57, 35
1, 349327, Control_c, 0, 67, 46
1, 349339, Note_off_c, 0, 60, 37
1, 349342, Control_c, 0, 67, 41
1, 349357, Control_c, 0, 67, 31
1, 349372, Control_c, 0, 67, 23
1, 349377, Note_off_c, 0, 84, 59
1, 349387, Control_c, 0, 67, 15
1, 349403, Control_c, 0, 67, 0
1, 349409, Note_on_c, 0, 65, 53
1, 349505, Note_off_c, 0, 65, 54
1, 349521, Note_off_c, 0, 57, 44
1, 349528, Note_on_c, 0, 60, 48
1, 349545, Note_off_c, 0, 53, 41
1, 349576, Note_off_c, 0, 60, 63
1, 349620, Note_on_c, 0, 65, 46
1, 349666, Note_off_c, 0, 77, 59
1, 349675, Note_off_c, 0, 65, 59
1, 349776, Note_on_c, 0, 78, 76
1, 349786, Note_on_c, 0, 50, 50
1, 349803, Control_c, 0, 64, 122
1, 349818, Control_c, 0, 64, 86
1, 349832, Control_c, 0, 64, 68
1, 349847, Control_c, 0, 64, 51
1, 349862, Control_c, 0, 64, 0
1, 349928, Control_c, 0, 64, 19
1, 349943, Control_c, 0, 64, 40
1, 349955, Note_on_c, 0, 60, 45
1, 349958, Control_c, 0, 64, 54
1, 349973, Control_c, 0, 64, 61
1, 349988, Control_c, 0, 64, 65
1, 350003, Control_c, 0, 64, 69
1, 350018, Control_c, 0, 64, 75
1, 350032, Control_c, 0, 64, 81
1, 350047, Control_c, 0, 64, 88
1, 350054, Note_off_c, 0, 60, 58
1, 350062, Control_c, 0, 64, 97
1, 350068, Note_on_c, 0, 57, 48
1, 350077, Control_c, 0, 64, 108
1, 350092, Control_c, 0, 64, 127
1, 350132, Note_off_c, 0, 57, 55
1, 350179, Note_on_c, 0, 60, 54
1, 350211, Control_c, 0, 64, 120
1, 350226, Control_c, 0, 64, 110
1, 350241, Control_c, 0, 64, 102
1, 350255, Control_c, 0, 64, 91
1, 350256, Note_off_c, 0, 60, 52
1, 350263, Note_on_c, 0, 75, 74
1, 350270, Control_c, 0, 64, 77
1, 350285, Control_c, 0, 64, 63
1, 350292, Note_on_c, 0, 54, 50
1, 350300, Control_c, 0, 64, 46
1, 350315, Control_c, 0, 64, 24
1, 350329, Control_c, 0, 64, 25
1, 350344, Control_c, 0, 64, 33
1, 350359, Control_c, 0, 64, 43
1, 350374, Control_c, 0, 64, 54
1, 350377, Note_off_c, 0, 78, 62
1, 350384, Note_on_c, 0, 60, 57
1, 350388, Control_c, 0, 64, 60
1, 350403, Control_c, 0, 64, 63
1, 350418, Control_c, 0, 64, 66
1, 350433, Control_c, 0, 64, 69
1, 350447, Control_c, 0, 64, 73
1, 350459, Note_off_c, 0, 60, 58
1, 350462, Control_c, 0, 64, 78
1, 350477, Control_c, 0, 64, 83
1, 350489, Note_on_c, 0, 57, 47
1, 350492, Control_c, 0, 64, 90
1, 350507, Control_c, 0, 64, 96
1, 350522, Control_c, 0, 64, 104
1, 350536, Control_c, 0, 64, 114
1, 350551, Control_c, 0, 64, 127
1, 350584, Note_on_c, 0, 60, 58
1, 350599, Note_off_c, 0, 54, 34
1, 350669, Poly_aftertouch_c, 0, 71, 127
1, 350692, Control_c, 0, 64, 125
1, 350707, Control_c, 0, 64, 108
1, 350710, Note_on_c, 0, 72, 79
1, 350722, Control_c, 0, 64, 94
1, 350728, Note_on_c, 0, 54, 56
1, 350730, Note_off_c, 0, 60, 56
1, 350736, Control_c, 0, 64, 78
1, 350750, Poly_aftertouch_c, 0, 71, 0
1, 350751, Control_c, 0, 64, 63
1, 350766, Control_c, 0, 64, 43
1, 350773, Note_off_c, 0, 57, 45
1, 350781, Control_c, 0, 64, 13
1, 350796, Control_c, 0, 64, 12
1, 350796, Note_off_c, 0, 75, 61
1, 350810, Control_c, 0, 64, 23
1, 350825, Control_c, 0, 64, 34
1, 350840, Control_c, 0, 64, 48
1, 350842, Note_on_c, 0, 60, 58
1, 350855, Control_c, 0, 64, 58
1, 350870, Control_c, 0, 64, 63
1, 350885, Control_c, 0, 64, 66
1, 350900, Control_c, 0, 64, 70
1, 350915, Control_c, 0, 64, 74
1, 350929, Control_c, 0, 64, 81
1, 350941, Note_off_c, 0, 60, 59
1, 350944, Control_c, 0, 64, 92
1, 350959, Control_c, 0, 64, 108
1, 350970, Note_on_c, 0, 57, 53
1, 350973, Control_c, 0, 64, 127
1, 351031, Note_off_c, 0, 54, 59
1, 351044, Note_off_c, 0, 50, 39
1, 351052, Note_off_c, 0, 57, 64
1, 351070, Note_on_c, 0, 60, 61
1, 351106, Note_off_c, 0, 60, 65
1, 351324, Note_on_c, 0, 71, 75
1, 351330, Control_c, 0, 64, 109
1, 351344, Note_on_c, 0, 43, 54
1, 351345, Control_c, 0, 64, 89
1, 351359, Control_c, 0, 64, 73
1, 351374, Control_c, 0, 64, 61
1, 351379, Note_off_c, 0, 72, 60
1, 351389, Control_c, 0, 64, 22
1, 351411, Control_c, 0, 64, 0
1, 351515, Control_c, 0, 64, 25
1, 351530, Control_c, 0, 64, 50
1, 351545, Control_c, 0, 64, 61
1, 351559, Control_c, 0, 64, 66
1, 351574, Control_c, 0, 64, 70
1, 351583, Note_off_c, 0, 43, 37
1, 351586, Note_on_c, 0, 56, 41
1, 351589, Control_c, 0, 64, 76
1, 351603, Control_c, 0, 64, 82
1, 351618, Control_c, 0, 64, 90
1, 351633, Control_c, 0, 64, 101
1, 351648, Control_c, 0, 64, 127
1, 351691, Note_off_c, 0, 56, 52
1, 351707, Note_on_c, 0, 53, 49
1, 351767, Control_c, 0, 67, 9
1, 351782, Control_c, 0, 67, 14
1, 351797, Control_c, 0, 67, 17
1, 351807, Note_on_c, 0, 56, 50
1, 351812, Control_c, 0, 67, 19
1, 351876, Note_off_c, 0, 71, 48
1, 351901, Control_c, 0, 64, 103
1, 351916, Control_c, 0, 64, 83
1, 351925, Note_on_c, 0, 68, 68
1, 351931, Control_c, 0, 64, 68
1, 351931, Note_off_c, 0, 56, 36
1, 351944, Note_on_c, 0, 50, 44
1, 351946, Control_c, 0, 64, 54
1, 351946, Control_c, 0, 67, 18
1, 351959, Note_off_c, 0, 53, 42
1, 351961, Control_c, 0, 64, 12
1, 351961, Control_c, 0, 67, 17
1, 351975, Control_c, 0, 64, 0
1, 351975, Control_c, 0, 67, 17
1, 351990, Control_c, 0, 64, 21
1, 351990, Control_c, 0, 67, 16
1, 352005, Control_c, 0, 64, 35
1, 352005, Control_c, 0, 67, 16
1, 352019, Control_c, 0, 64, 47
1, 352019, Control_c, 0, 67, 15
1, 352034, Control_c, 0, 64, 56
1, 352049, Control_c, 0, 64, 62
1, 352056, Note_on_c, 0, 56, 52
1, 352064, Control_c, 0, 64, 64
1, 352079, Control_c, 0, 64, 66
1, 352079, Control_c, 0, 67, 14
1, 352093, Control_c, 0, 64, 68
1, 352108, Control_c, 0, 64, 70
1, 352108, Control_c, 0, 67, 14
1, 352123, Control_c, 0, 64, 73
1, 352137, Note_off_c, 0, 56, 53
1, 352138, Control_c, 0, 64, 77
1, 352161, Control_c, 0, 64, 82
1, 352175, Control_c, 0, 64, 87
1, 352177, Note_on_c, 0, 53, 49
1, 352190, Control_c, 0, 64, 92
1, 352206, Control_c, 0, 64, 95
1, 352220, Control_c, 0, 64, 96
1, 352235, Control_c, 0, 64, 97
1, 352235, Control_c, 0, 67, 13
1, 352250, Control_c, 0, 64, 97
1, 352263, Note_off_c, 0, 50, 38
1, 352282, Note_on_c, 0, 56, 53
1, 352324, Control_c, 0, 64, 97
1, 352339, Control_c, 0, 64, 96
1, 352353, Control_c, 0, 64, 94
1, 352355, Note_off_c, 0, 56, 51
1, 352368, Control_c, 0, 64, 92
1, 352383, Control_c, 0, 64, 90
1, 352393, Note_on_c, 0, 50, 52
1, 352394, Note_on_c, 0, 65, 64
1, 352398, Control_c, 0, 64, 83
1, 352413, Control_c, 0, 64, 73
1, 352413, Control_c, 0, 67, 12
1, 352427, Control_c, 0, 64, 61
1, 352429, Note_off_c, 0, 53, 34
1, 352442, Control_c, 0, 64, 42
1, 352457, Control_c, 0, 64, 27
1, 352472, Control_c, 0, 64, 30
1, 352487, Control_c, 0, 64, 36
1, 352501, Control_c, 0, 64, 43
1, 352506, Note_off_c, 0, 68, 48
1, 352510, Note_on_c, 0, 56, 45
1, 352516, Control_c, 0, 64, 53
1, 352516, Control_c, 0, 67, 12
1, 352531, Control_c, 0, 64, 58
1, 352546, Control_c, 0, 64, 62
1, 352560, Control_c, 0, 64, 64
1, 352560, Control_c, 0, 67, 11
1, 352575, Control_c, 0, 64, 65
1, 352590, Control_c, 0, 64, 67
1, 352590, Control_c, 0, 67, 10
1, 352606, Note_off_c, 0, 56, 58
1, 352606, Control_c, 0, 64, 69
1, 352606, Control_c, 0, 67, 9
1, 352621, Control_c, 0, 64, 71
1, 352621, Control_c, 0, 67, 9
1, 352636, Control_c, 0, 64, 75
1, 352641, Note_on_c, 0, 53, 41
1, 352650, Control_c, 0, 64, 80
1, 352665, Control_c, 0, 64, 85
1, 352680, Control_c, 0, 64, 91
1, 352695, Control_c, 0, 64, 94
1, 352708, Note_off_c, 0, 50, 31
1, 352710, Control_c, 0, 64, 96
1, 352710, Control_c, 0, 67, 8
1, 352748, Note_on_c, 0, 56, 49
1, 352785, Note_off_c, 0, 53, 29
1, 352814, Control_c, 0, 64, 95
1, 352829, Control_c, 0, 64, 94
1, 352843, Control_c, 0, 64, 92
1, 352858, Control_c, 0, 64, 90
1, 352873, Control_c, 0, 64, 86
1, 352875, Note_on_c, 0, 62, 70
1, 352876, Note_off_c, 0, 56, 36
1, 352888, Control_c, 0, 64, 78
1, 352910, Note_on_c, 0, 47, 37
1, 352910, Control_c, 0, 64, 68
1, 352913, Note_off_c, 0, 65, 51
1, 352924, Control_c, 0, 64, 57
1, 352939, Control_c, 0, 64, 25
1, 352954, Control_c, 0, 64, 0
1, 353008, Note_on_c, 0, 56, 47
1, 353028, Control_c, 0, 64, 30
1, 353043, Control_c, 0, 64, 47
1, 353057, Control_c, 0, 64, 57
1, 353072, Control_c, 0, 64, 62
1, 353087, Control_c, 0, 64, 64
1, 353102, Control_c, 0, 64, 66
1, 353115, Note_off_c, 0, 56, 58
1, 353117, Control_c, 0, 64, 68
1, 353117, Control_c, 0, 67, 9
1, 353131, Control_c, 0, 64, 70
1, 353136, Note_off_c, 0, 47, 37
1, 353146, Control_c, 0, 64, 73
1, 353150, Note_on_c, 0, 53, 44
1, 353161, Control_c, 0, 64, 76
1, 353175, Control_c, 0, 64, 82
1, 353190, Control_c, 0, 64, 87
1, 353204, Note_off_c, 0, 53, 61
1, 353205, Control_c, 0, 64, 93
1, 353220, Control_c, 0, 64, 100
1, 353235, Control_c, 0, 64, 109
1, 353249, Control_c, 0, 64, 119
1, 353252, Note_on_c, 0, 56, 50
1, 353264, Control_c, 0, 64, 127
1, 353279, Control_c, 0, 67, 8
1, 353305, Note_off_c, 0, 56, 60
1, 353338, Control_c, 0, 64, 125
1, 353353, Control_c, 0, 64, 116
1, 353368, Control_c, 0, 64, 112
1, 353383, Control_c, 0, 64, 108
1, 353399, Control_c, 0, 64, 104
1, 353414, Control_c, 0, 64, 99
1, 353416, Note_on_c, 0, 53, 68
1, 353420, Note_off_c, 0, 62, 53
1, 353428, Control_c, 0, 64, 94
1, 353443, Control_c, 0, 64, 88
1, 353444, Note_on_c, 0, 44, 43
1, 353458, Control_c, 0, 64, 78
1, 353472, Control_c, 0, 64, 68
1, 353487, Control_c, 0, 64, 58
1, 353502, Control_c, 0, 64, 31
1, 353517, Control_c, 0, 64, 0
1, 353612, Note_on_c, 0, 50, 36
1, 353636, Control_c, 0, 64, 11
1, 353658, Control_c, 0, 64, 40
1, 353672, Control_c, 0, 64, 54
1, 353687, Control_c, 0, 64, 61
1, 353702, Control_c, 0, 64, 64
1, 353717, Note_off_c, 0, 50, 58
1, 353717, Control_c, 0, 64, 66
1, 353732, Control_c, 0, 64, 68
1, 353742, Note_on_c, 0, 47, 43
1, 353747, Control_c, 0, 64, 69
1, 353762, Control_c, 0, 64, 70
1, 353776, Control_c, 0, 64, 71
1, 353776, Control_c, 0, 67, 9
1, 353791, Control_c, 0, 67, 9
1, 353806, Note_off_c, 0, 44, 39
1, 353821, Control_c, 0, 67, 10
1, 353836, Control_c, 0, 67, 11
1, 353843, Note_off_c, 0, 47, 55
1, 353851, Control_c, 0, 67, 11
1, 353863, Note_on_c, 0, 50, 48
1, 353866, Control_c, 0, 67, 12
1, 353895, Control_c, 0, 67, 12
1, 353910, Control_c, 0, 67, 13
1, 353925, Control_c, 0, 67, 14
1, 353940, Control_c, 0, 67, 14
1, 353954, Control_c, 0, 64, 70
1, 353969, Control_c, 0, 64, 70
1, 353969, Control_c, 0, 67, 15
1, 353984, Control_c, 0, 64, 69
1, 353990, Note_on_c, 0, 55, 62
1, 353998, Control_c, 0, 64, 68
1, 353998, Control_c, 0, 67, 16
1, 354009, Note_on_c, 0, 43, 37
1, 354013, Control_c, 0, 64, 66
1, 354013, Control_c, 0, 67, 17
1, 354028, Control_c, 0, 64, 64
1, 354028, Control_c, 0, 67, 17
1, 354030, Note_off_c, 0, 50, 25
1, 354043, Control_c, 0, 64, 60
1, 354043, Control_c, 0, 67, 18
1, 354058, Control_c, 0, 64, 55
1, 354058, Control_c, 0, 67, 19
1, 354066, Note_off_c, 0, 53, 26
1, 354072, Control_c, 0, 64, 47
1, 354072, Control_c, 0, 67, 20
1, 354087, Control_c, 0, 64, 41
1, 354087, Control_c, 0, 67, 21
1, 354102, Control_c, 0, 64, 35
1, 354102, Control_c, 0, 67, 22
1, 354117, Control_c, 0, 64, 30
1, 354117, Control_c, 0, 67, 23
1, 354132, Control_c, 0, 64, 21
1, 354132, Control_c, 0, 67, 24
1, 354134, Note_off_c, 0, 43, 51
1, 354137, Note_on_c, 0, 44, 45
1, 354146, Control_c, 0, 64, 0
1, 354146, Control_c, 0, 67, 31
1, 354161, Control_c, 0, 67, 46
1, 354176, Control_c, 0, 67, 61
1, 354191, Control_c, 0, 67, 74
1, 354207, Control_c, 0, 67, 89
1, 354221, Control_c, 0, 67, 101
1, 354236, Control_c, 0, 67, 110
1, 354251, Control_c, 0, 67, 114
1, 354253, Note_off_c, 0, 44, 62
1, 354266, Control_c, 0, 67, 115
1, 354274, Note_on_c, 0, 43, 50
1, 354340, Control_c, 0, 67, 115
1, 354379, Note_off_c, 0, 43, 57
1, 354385, Control_c, 0, 67, 114
1, 354404, Note_on_c, 0, 41, 49
1, 354581, Note_on_c, 0, 48, 57
1, 354595, Note_on_c, 0, 39, 43
1, 354596, Note_off_c, 0, 41, 37
1, 354629, Control_c, 0, 67, 114
1, 354650, Note_off_c, 0, 55, 32
1, 354758, Note_on_c, 0, 38, 39
1, 354763, Control_c, 0, 67, 113
1, 354767, Note_off_c, 0, 39, 40
1, 354777, Control_c, 0, 67, 112
1, 354836, Control_c, 0, 67, 112
1, 354866, Control_c, 0, 67, 111
1, 354892, Note_on_c, 0, 39, 40
1, 354910, Control_c, 0, 67, 110
1, 354925, Control_c, 0, 67, 110
1, 354927, Note_off_c, 0, 38, 35
1, 354940, Control_c, 0, 67, 109
1, 354955, Control_c, 0, 67, 109
1, 354969, Control_c, 0, 64, 22
1, 354969, Control_c, 0, 67, 107
1, 354984, Control_c, 0, 64, 36
1, 354984, Control_c, 0, 67, 107
1, 355000, Control_c, 0, 64, 48
1, 355000, Control_c, 0, 67, 106
1, 355015, Control_c, 0, 64, 57
1, 355030, Control_c, 0, 64, 62
1, 355030, Control_c, 0, 67, 105
1, 355044, Control_c, 0, 64, 64
1, 355044, Control_c, 0, 67, 105
1, 355051, Note_off_c, 0, 39, 51
1, 355058, Note_on_c, 0, 36, 42
1, 355059, Control_c, 0, 64, 65
1, 355074, Control_c, 0, 64, 67
1, 355089, Control_c, 0, 64, 69
1, 355091, Note_off_c, 0, 36, 58
1, 355104, Control_c, 0, 64, 71
1, 355118, Control_c, 0, 64, 73
1, 355133, Control_c, 0, 64, 75
1, 355156, Control_c, 0, 64, 76
1, 355186, Control_c, 0, 64, 75
1, 355200, Control_c, 0, 64, 75
1, 355200, Control_c, 0, 67, 105
1, 355215, Control_c, 0, 64, 74
1, 355215, Control_c, 0, 67, 106
1, 355230, Control_c, 0, 64, 73
1, 355237, Note_off_c, 0, 48, 18
1, 355241, Note_on_c, 0, 43, 53
1, 355245, Control_c, 0, 64, 72
1, 355245, Control_c, 0, 67, 107
1, 355259, Control_c, 0, 64, 70
1, 355259, Control_c, 0, 67, 107
1, 355266, Note_on_c, 0, 35, 39
1, 355274, Control_c, 0, 64, 67
1, 355289, Control_c, 0, 64, 64
1, 355304, Control_c, 0, 64, 60
1, 355319, Control_c, 0, 64, 56
1, 355319, Control_c, 0, 67, 108
1, 355333, Control_c, 0, 64, 55
1, 355348, Control_c, 0, 64, 54
1, 355363, Control_c, 0, 64, 53
1, 355378, Control_c, 0, 64, 52
1, 355378, Control_c, 0, 67, 109
1, 355392, Control_c, 0, 64, 49
1, 355407, Note_on_c, 0, 31, 41
1, 355407, Control_c, 0, 64, 45
1, 355422, Control_c, 0, 64, 43
1, 355431, Note_off_c, 0, 35, 43
1, 355437, Control_c, 0, 64, 42
1, 355452, Control_c, 0, 64, 41
1, 355452, Control_c, 0, 67, 109
1, 355467, Control_c, 0, 64, 40
1, 355482, Control_c, 0, 64, 38
1, 355496, Control_c, 0, 64, 36
1, 355496, Control_c, 0, 67, 110
1, 355511, Control_c, 0, 64, 35
1, 355526, Control_c, 0, 64, 34
1, 355541, Control_c, 0, 67, 110
1, 355586, Control_c, 0, 67, 111
1, 355603, Note_off_c, 0, 31, 46
1, 355610, Note_on_c, 0, 33, 42
1, 355796, Note_on_c, 0, 35, 36
1, 355811, Note_off_c, 0, 33, 38
1, 355935, Control_c, 0, 64, 34
1, 356125, Note_on_c, 0, 48, 41
1, 356149, Note_on_c, 0, 36, 29
1, 356176, Note_off_c, 0, 43, 54
1, 356211, Note_off_c, 0, 35, 39
1, 356261, Control_c, 0, 64, 33
1, 356275, Control_c, 0, 64, 32
1, 356290, Control_c, 0, 64, 27
1, 356305, Control_c, 0, 64, 19
1, 356320, Control_c, 0, 64, 0
1, 356364, Control_c, 0, 67, 110
1, 356379, Control_c, 0, 64, 18
1, 356379, Control_c, 0, 67, 110
1, 356394, Control_c, 0, 64, 30
1, 356394, Control_c, 0, 67, 109
1, 356409, Control_c, 0, 64, 44
1, 356424, Control_c, 0, 64, 55
1, 356438, Control_c, 0, 64, 62
1, 356438, Control_c, 0, 67, 109
1, 356453, Control_c, 0, 64, 66
1, 356468, Control_c, 0, 64, 69
1, 356468, Control_c, 0, 67, 107
1, 356483, Control_c, 0, 64, 74
1, 356492, Note_off_c, 0, 36, 55
1, 356498, Control_c, 0, 64, 79
1, 356498, Control_c, 0, 67, 107
1, 356513, Control_c, 0, 64, 86
1, 356528, Control_c, 0, 64, 96
1, 356542, Control_c, 0, 64, 106
1, 356542, Control_c, 0, 67, 106
1, 356557, Control_c, 0, 64, 120
1, 356561, Note_off_c, 0, 48, 56
1, 356572, Control_c, 0, 64, 127
1, 356684, Control_c, 0, 64, 120
1, 356698, Control_c, 0, 64, 115
1, 356713, Control_c, 0, 64, 109
1, 356728, Control_c, 0, 64, 105
1, 356742, Control_c, 0, 64, 101
1, 356757, Control_c, 0, 64, 98
1, 356772, Control_c, 0, 64, 95
1, 356787, Control_c, 0, 64, 91
1, 356802, Control_c, 0, 64, 84
1, 356816, Control_c, 0, 64, 71
1, 356831, Control_c, 0, 64, 51
1, 356846, Control_c, 0, 64, 0
1, 356846, Control_c, 0, 67, 105
1, 356861, Control_c, 0, 67, 103
1, 356876, Control_c, 0, 67, 95
1, 356890, Control_c, 0, 64, 34
1, 356890, Control_c, 0, 67, 75
1, 356899, Note_on_c, 0, 39, 75
1, 356903, Note_on_c, 0, 84, 90
1, 356905, Control_c, 0, 64, 61
1, 356905, Control_c, 0, 67, 24
1, 356920, Control_c, 0, 64, 73
1, 356920, Control_c, 0, 67, 0
1, 356935, Control_c, 0, 64, 115
1, 356950, Control_c, 0, 64, 127
1, 356966, Note_off_c, 0, 39, 63
1, 356966, Note_off_c, 0, 84, 65
1, 356974, Note_on_c, 0, 36, 73
1, 356976, Note_on_c, 0, 87, 86
1, 357034, Note_on_c, 0, 39, 70
1, 357038, Note_on_c, 0, 84, 78
1, 357069, Note_off_c, 0, 36, 61
1, 357072, Note_off_c, 0, 87, 62
1, 357091, Note_off_c, 0, 39, 63
1, 357100, Note_on_c, 0, 43, 77
1, 357110, Note_off_c, 0, 84, 63
1, 357115, Note_on_c, 0, 79, 78
1, 357127, Control_c, 0, 64, 102
1, 357142, Control_c, 0, 64, 90
1, 357157, Control_c, 0, 64, 81
1, 357169, Note_off_c, 0, 43, 60
1, 357171, Note_off_c, 0, 79, 62
1, 357172, Control_c, 0, 64, 74
1, 357187, Control_c, 0, 64, 69
1, 357188, Note_on_c, 0, 84, 86
1, 357190, Note_on_c, 0, 39, 76
1, 357202, Control_c, 0, 64, 66
1, 357216, Control_c, 0, 64, 64
1, 357229, Note_on_c, 0, 43, 53
1, 357231, Control_c, 0, 64, 63
1, 357254, Note_on_c, 0, 79, 77
1, 357267, Note_off_c, 0, 84, 63
1, 357276, Control_c, 0, 64, 63
1, 357282, Note_off_c, 0, 39, 59
1, 357305, Control_c, 0, 64, 62
1, 357306, Note_off_c, 0, 79, 65
1, 357312, Note_off_c, 0, 43, 63
1, 357319, Note_on_c, 0, 48, 65
1, 357320, Note_on_c, 0, 75, 82
1, 357335, Control_c, 0, 64, 62
1, 357343, Note_off_c, 0, 75, 66
1, 357350, Control_c, 0, 64, 61
1, 357364, Control_c, 0, 64, 61
1, 357379, Control_c, 0, 64, 60
1, 357381, Note_off_c, 0, 48, 58
1, 357400, Note_on_c, 0, 79, 89
1, 357402, Control_c, 0, 64, 59
1, 357414, Note_on_c, 0, 43, 63
1, 357417, Control_c, 0, 64, 59
1, 357432, Control_c, 0, 64, 58
1, 357446, Control_c, 0, 64, 58
1, 357473, Note_on_c, 0, 75, 79
1, 357483, Note_off_c, 0, 43, 63
1, 357484, Note_on_c, 0, 48, 66
1, 357490, Note_off_c, 0, 79, 66
1, 357520, Control_c, 0, 64, 57
1, 357522, Note_off_c, 0, 48, 64
1, 357541, Note_off_c, 0, 75, 63
1, 357550, Note_on_c, 0, 51, 66
1, 357551, Note_on_c, 0, 72, 81
1, 357578, Note_off_c, 0, 51, 66
1, 357580, Control_c, 0, 64, 58
1, 357621, Note_off_c, 0, 72, 60
1, 357628, Note_on_c, 0, 74, 74
1, 357634, Note_on_c, 0, 48, 65
1, 357659, Note_on_c, 0, 73, 44
1, 357684, Note_on_c, 0, 72, 49
1, 357684, Note_off_c, 0, 73, 54
1, 357696, Note_off_c, 0, 74, 59
1, 357705, Note_on_c, 0, 51, 58
1, 357743, Control_c, 0, 64, 57
1, 357758, Control_c, 0, 64, 57
1, 357759, Note_off_c, 0, 72, 65
1, 357765, Note_on_c, 0, 67, 77
1, 357773, Control_c, 0, 64, 51
1, 357786, Note_on_c, 0, 55, 67
1, 357788, Control_c, 0, 64, 21
1, 357802, Control_c, 0, 64, 0
1, 357804, Note_on_c, 0, 57, 57
1, 357818, Note_off_c, 0, 51, 0
1, 357830, Note_off_c, 0, 57, 37
1, 357831, Note_off_c, 0, 67, 57
1, 357836, Note_off_c, 0, 55, 62
1, 357839, Note_on_c, 0, 72, 82
1, 357839, Note_on_c, 0, 51, 36
1, 357878, Note_on_c, 0, 55, 55
1, 357906, Control_c, 0, 64, 46
1, 357917, Note_off_c, 0, 72, 63
1, 357920, Control_c, 0, 64, 62
1, 357926, Note_on_c, 0, 66, 39
1, 357926, Note_on_c, 0, 67, 48
1, 357927, Note_on_c, 0, 65, 33
1, 357935, Control_c, 0, 64, 67
1, 357950, Control_c, 0, 64, 75
1, 357951, Note_off_c, 0, 67, 58
1, 357962, Note_off_c, 0, 65, 45
1, 357962, Note_off_c, 0, 66, 62
1, 357965, Control_c, 0, 64, 86
1, 357968, Note_on_c, 0, 63, 90
1, 357972, Note_on_c, 0, 60, 87
1, 357980, Control_c, 0, 64, 106
1, 357994, Control_c, 0, 64, 127
1, 358008, Note_off_c, 0, 55, 62
1, 358012, Note_off_c, 0, 63, 64
1, 358015, Note_off_c, 0, 60, 63
1, 358021, Note_off_c, 0, 51, 58
1, 358034, Note_off_c, 0, 48, 62
1, 358045, Note_on_c, 0, 67, 75
1, 358114, Note_on_c, 0, 63, 81
1, 358117, Note_off_c, 0, 67, 64
1, 358194, Note_on_c, 0, 67, 86
1, 358196, Note_on_c, 0, 59, 97
1, 358196, Note_off_c, 0, 63, 62
1, 358196, Control_c, 0, 64, 105
1, 358201, Note_on_c, 0, 47, 91
1, 358211, Control_c, 0, 64, 75
1, 358224, Note_off_c, 0, 67, 64
1, 358225, Control_c, 0, 64, 58
1, 358228, Note_off_c, 0, 47, 66
1, 358233, Note_off_c, 0, 59, 66
1, 358240, Control_c, 0, 64, 0
1, 358269, Note_on_c, 0, 62, 80
1, 358341, Note_off_c, 0, 62, 62
1, 358342, Note_on_c, 0, 67, 64
1, 358421, Note_off_c, 0, 67, 63
1, 358423, Note_on_c, 0, 71, 80
1, 358430, Note_on_c, 0, 55, 90
1, 358433, Note_on_c, 0, 43, 81
1, 358455, Note_off_c, 0, 71, 65
1, 358467, Note_off_c, 0, 55, 64
1, 358468, Note_off_c, 0, 43, 64
1, 358501, Note_on_c, 0, 67, 78
1, 358563, Note_off_c, 0, 67, 63
1, 358572, Note_on_c, 0, 71, 70
1, 358638, Note_off_c, 0, 71, 62
1, 358647, Note_on_c, 0, 74, 82
1, 358648, Note_on_c, 0, 50, 91
1, 358653, Note_on_c, 0, 38, 80
1, 358689, Note_off_c, 0, 50, 67
1, 358698, Note_off_c, 0, 38, 62
1, 358700, Note_off_c, 0, 74, 64
1, 358740, Note_on_c, 0, 69, 66
1, 358744, Note_on_c, 0, 71, 66
1, 358780, Note_off_c, 0, 69, 65
1, 358790, Note_off_c, 0, 71, 62
1, 358799, Note_on_c, 0, 74, 58
1, 358814, Note_on_c, 0, 72, 60
1, 358834, Note_off_c, 0, 72, 62
1, 358856, Note_off_c, 0, 74, 63
1, 358863, Note_on_c, 0, 79, 87
1, 358873, Note_on_c, 0, 47, 84
1, 358877, Note_on_c, 0, 35, 76
1, 358916, Note_off_c, 0, 79, 66
1, 358918, Note_off_c, 0, 35, 66
1, 358922, Note_off_c, 0, 47, 64
1, 358959, Note_on_c, 0, 74, 79
1, 359026, Note_off_c, 0, 74, 61
1, 359029, Note_on_c, 0, 79, 77
1, 359081, Note_off_c, 0, 79, 64
1, 359093, Note_on_c, 0, 43, 95
1, 359096, Note_on_c, 0, 31, 83
1, 359100, Note_on_c, 0, 83, 85
1, 359108, Control_c, 0, 64, 58
1, 359123, Control_c, 0, 64, 69
1, 359138, Control_c, 0, 64, 89
1, 359153, Control_c, 0, 64, 127
1, 359169, Note_on_c, 0, 79, 81
1, 359169, Note_off_c, 0, 83, 64
1, 359236, Note_off_c, 0, 79, 63
1, 359251, Note_on_c, 0, 83, 82
1, 359271, Note_off_c, 0, 31, 60
1, 359306, Note_off_c, 0, 43, 65
1, 359325, Note_on_c, 0, 86, 86
1, 359327, Note_off_c, 0, 83, 66
1, 359400, Note_off_c, 0, 86, 63
1, 359413, Note_on_c, 0, 82, 69
1, 359491, Note_off_c, 0, 82, 64
1, 359516, Note_on_c, 0, 85, 74
1, 359536, Note_on_c, 0, 34, 75
1, 359538, Note_on_c, 0, 37, 69
1, 359538, Control_c, 0, 64, 95
1, 359545, Note_on_c, 0, 86, 55
1, 359553, Control_c, 0, 64, 69
1, 359566, Note_off_c, 0, 86, 59
1, 359567, Note_on_c, 0, 82, 88
1, 359567, Control_c, 0, 64, 50
1, 359582, Control_c, 0, 64, 0
1, 359593, Note_off_c, 0, 85, 64
1, 359628, Note_off_c, 0, 37, 62
1, 359645, Note_off_c, 0, 82, 65
1, 359664, Note_on_c, 0, 78, 78
1, 359673, Note_on_c, 0, 42, 68
1, 359691, Note_on_c, 0, 85, 33
1, 359691, Note_off_c, 0, 34, 62
1, 359717, Note_off_c, 0, 85, 45
1, 359726, Note_off_c, 0, 78, 37
1, 359735, Note_off_c, 0, 42, 64
1, 359754, Note_on_c, 0, 37, 65
1, 359762, Note_on_c, 0, 82, 64
1, 359766, Note_on_c, 0, 84, 15
1, 359768, Note_on_c, 0, 39, 44
1, 359781, Control_c, 0, 64, 12
1, 359790, Note_off_c, 0, 84, 33
1, 359796, Note_on_c, 0, 78, 66
1, 359797, Control_c, 0, 64, 14
1, 359800, Note_off_c, 0, 82, 62
1, 359812, Control_c, 0, 64, 15
1, 359846, Note_on_c, 0, 42, 61
1, 359851, Note_off_c, 0, 39, 61
1, 359855, Note_on_c, 0, 73, 81
1, 359858, Note_on_c, 0, 46, 69
1, 359871, Note_off_c, 0, 37, 61
1, 359872, Note_off_c, 0, 78, 64
1, 359884, Note_off_c, 0, 42, 64
1, 359900, Note_off_c, 0, 73, 59
1, 359921, Note_off_c, 0, 46, 62
1, 359930, Control_c, 0, 64, 16
1, 359946, Note_on_c, 0, 78, 67
1, 359954, Note_on_c, 0, 42, 69
1, 359974, Note_on_c, 0, 79, 56
1, 359995, Note_off_c, 0, 79, 61
1, 360000, Note_on_c, 0, 41, 38
1, 360002, Note_on_c, 0, 73, 78
1, 360013, Note_off_c, 0, 78, 59
1, 360020, Note_on_c, 0, 46, 69
1, 360032, Note_on_c, 0, 40, 11
1, 360040, Note_off_c, 0, 41, 53
1, 360048, Control_c, 0, 64, 17
1, 360053, Note_off_c, 0, 42, 60
1, 360063, Control_c, 0, 64, 18
1, 360067, Note_off_c, 0, 73, 62
1, 360072, Note_on_c, 0, 49, 73
1, 360073, Note_on_c, 0, 70, 76
1, 360084, Note_off_c, 0, 40, 53
1, 360088, Note_off_c, 0, 46, 63
1, 360107, Note_off_c, 0, 70, 58
1, 360119, Note_off_c, 0, 49, 61
1, 360155, Note_on_c, 0, 73, 75
1, 360158, Note_on_c, 0, 46, 68
1, 360168, Control_c, 0, 64, 19
1, 360182, Control_c, 0, 64, 19
1, 360213, Note_on_c, 0, 70, 76
1, 360225, Note_on_c, 0, 49, 73
1, 360246, Note_off_c, 0, 73, 63
1, 360263, Note_off_c, 0, 46, 63
1, 360271, Control_c, 0, 64, 20
1, 360280, Note_on_c, 0, 66, 78
1, 360286, Note_on_c, 0, 54, 70
1, 360287, Note_off_c, 0, 70, 64
1, 360290, Note_off_c, 0, 49, 63
1, 360318, Note_off_c, 0, 54, 66
1, 360337, Note_off_c, 0, 66, 59
1, 360340, Note_on_c, 0, 70, 69
1, 360355, Note_on_c, 0, 49, 67
1, 360404, Note_on_c, 0, 66, 68
1, 360427, Control_c, 0, 64, 21
1, 360430, Note_on_c, 0, 54, 76
1, 360440, Note_off_c, 0, 70, 61
1, 360456, Control_c, 0, 64, 17
1, 360471, Control_c, 0, 64, 0
1, 360478, Note_on_c, 0, 61, 83
1, 360488, Note_off_c, 0, 66, 63
1, 360490, Note_on_c, 0, 58, 84
1, 360543, Note_on_c, 0, 66, 71
1, 360549, Note_off_c, 0, 58, 63
1, 360551, Note_off_c, 0, 61, 62
1, 360591, Control_c, 0, 64, 41
1, 360606, Control_c, 0, 64, 60
1, 360608, Note_off_c, 0, 49, 63
1, 360615, Note_on_c, 0, 58, 80
1, 360620, Control_c, 0, 64, 71
1, 360627, Note_on_c, 0, 61, 81
1, 360628, Note_off_c, 0, 66, 63
1, 360633, Note_off_c, 0, 54, 60
1, 360635, Control_c, 0, 64, 88
1, 360641, Note_off_c, 0, 58, 68
1, 360650, Control_c, 0, 64, 127
1, 360657, Note_off_c, 0, 61, 65
1, 360697, Note_on_c, 0, 65, 90
1, 360702, Note_on_c, 0, 57, 95
1, 360720, Note_on_c, 0, 47, 70
1, 360724, Control_c, 0, 64, 75
1, 360725, Note_on_c, 0, 45, 38
1, 360738, Control_c, 0, 64, 47
1, 360747, Note_off_c, 0, 47, 65
1, 360748, Note_off_c, 0, 57, 61
1, 360753, Control_c, 0, 64, 0
1, 360756, Note_off_c, 0, 45, 55
1, 360783, Note_on_c, 0, 60, 73
1, 360783, Note_off_c, 0, 65, 60
1, 360794, Note_on_c, 0, 59, 55
1, 360816, Note_off_c, 0, 59, 60
1, 360842, Note_off_c, 0, 60, 63
1, 360851, Note_on_c, 0, 65, 69
1, 360922, Note_on_c, 0, 69, 84
1, 360922, Note_on_c, 0, 53, 85
1, 360924, Note_off_c, 0, 65, 65
1, 360928, Note_on_c, 0, 41, 76
1, 360954, Note_off_c, 0, 69, 67
1, 360962, Note_off_c, 0, 53, 61
1, 360966, Note_off_c, 0, 41, 66
1, 361003, Note_on_c, 0, 65, 78
1, 361063, Note_on_c, 0, 69, 71
1, 361068, Note_off_c, 0, 65, 61
1, 361145, Note_on_c, 0, 48, 89
1, 361148, Note_on_c, 0, 72, 84
1, 361149, Note_on_c, 0, 36, 79
1, 361152, Note_off_c, 0, 69, 59
1, 361184, Note_off_c, 0, 36, 66
1, 361185, Note_off_c, 0, 48, 64
1, 361196, Note_off_c, 0, 72, 65
1, 361229, Note_on_c, 0, 69, 79
1, 361292, Note_on_c, 0, 72, 78
1, 361294, Note_off_c, 0, 69, 63
1, 361363, Note_on_c, 0, 45, 85
1, 361363, Note_on_c, 0, 77, 88
1, 361363, Note_off_c, 0, 72, 64
1, 361366, Note_on_c, 0, 33, 76
1, 361402, Note_off_c, 0, 33, 66
1, 361402, Note_off_c, 0, 77, 66
1, 361405, Note_off_c, 0, 45, 63
1, 361446, Note_on_c, 0, 72, 77
1, 361501, Note_on_c, 0, 77, 71
1, 361507, Note_off_c, 0, 72, 63
1, 361561, Control_c, 0, 64, 25
1, 361564, Note_off_c, 0, 77, 61
1, 361572, Note_on_c, 0, 41, 91
1, 361572, Note_on_c, 0, 81, 86
1, 361576, Control_c, 0, 64, 58
1, 361578, Note_on_c, 0, 29, 69
1, 361590, Note_on_c, 0, 28, 62
1, 361591, Control_c, 0, 64, 68
1, 361606, Control_c, 0, 64, 85
1, 361611, Note_off_c, 0, 29, 66
1, 361621, Control_c, 0, 64, 127
1, 361623, Note_off_c, 0, 28, 54
1, 361636, Note_off_c, 0, 41, 64
1, 361642, Note_on_c, 0, 77, 83
1, 361642, Note_off_c, 0, 81, 65
1, 361709, Note_off_c, 0, 77, 65
1, 361721, Note_on_c, 0, 81, 78
1, 361805, Note_off_c, 0, 81, 67
1, 361807, Note_on_c, 0, 86, 75
1, 361818, Note_on_c, 0, 84, 71
1, 361863, Note_off_c, 0, 86, 59
1, 361865, Note_on_c, 0, 81, 78
1, 361866, Note_off_c, 0, 84, 58
1, 361926, Note_off_c, 0, 81, 65
1, 361998, Note_on_c, 0, 51, 85
1, 362021, Note_on_c, 0, 71, 71
1, 362052, Note_off_c, 0, 71, 63
1, 362068, Note_off_c, 0, 51, 63
1, 362072, Note_on_c, 0, 66, 55
1, 362078, Note_on_c, 0, 56, 75
1, 362117, Control_c, 0, 64, 101
1, 362132, Control_c, 0, 64, 81
1, 362135, Note_on_c, 0, 58, 3
1, 362140, Note_off_c, 0, 66, 64
1, 362143, Note_on_c, 0, 51, 77
1, 362143, Note_off_c, 0, 56, 64
1, 362147, Control_c, 0, 64, 68
1, 362150, Note_on_c, 0, 72, 70
1, 362161, Control_c, 0, 64, 59
1, 362174, Note_off_c, 0, 58, 34
1, 362174, Poly_aftertouch_c, 0, 65, 0
1, 362176, Control_c, 0, 64, 48
1, 362192, Control_c, 0, 64, 42
1, 362197, Note_off_c, 0, 51, 63
1, 362198, Note_on_c, 0, 48, 58
1, 362204, Note_off_c, 0, 72, 62
1, 362206, Control_c, 0, 64, 42
1, 362213, Note_on_c, 0, 75, 78
1, 362221, Control_c, 0, 64, 40
1, 362236, Control_c, 0, 64, 35
1, 362240, Note_off_c, 0, 75, 61
1, 362251, Control_c, 0, 64, 27
1, 362263, Note_on_c, 0, 74, 37
1, 362264, Note_off_c, 0, 74, 127
1, 362264, Note_off_c, 0, 48, 64
1, 362266, Control_c, 0, 64, 19
1, 362281, Control_c, 0, 64, 15
1, 362290, Note_on_c, 0, 72, 73
1, 362292, Note_on_c, 0, 51, 72
1, 362296, Control_c, 0, 64, 14
1, 362310, Control_c, 0, 64, 12
1, 362325, Note_off_c, 0, 51, 66
1, 362325, Control_c, 0, 64, 11
1, 362340, Control_c, 0, 64, 0
1, 362348, Note_on_c, 0, 75, 80
1, 362356, Note_off_c, 0, 72, 64
1, 362369, Note_on_c, 0, 48, 73
1, 362384, Control_c, 0, 64, 16
1, 362399, Control_c, 0, 64, 29
1, 362414, Control_c, 0, 64, 42
1, 362427, Note_off_c, 0, 75, 63
1, 362429, Control_c, 0, 64, 53
1, 362433, Note_on_c, 0, 44, 66
1, 362436, Note_off_c, 0, 48, 62
1, 362441, Note_on_c, 0, 79, 60
1, 362444, Control_c, 0, 64, 58
1, 362457, Note_off_c, 0, 79, 65
1, 362458, Control_c, 0, 64, 60
1, 362469, Note_off_c, 0, 44, 64
1, 362495, Note_on_c, 0, 48, 68
1, 362497, Note_on_c, 0, 75, 76
1, 362532, Control_c, 0, 64, 60
1, 362547, Control_c, 0, 64, 59
1, 362556, Note_off_c, 0, 48, 62
1, 362562, Control_c, 0, 64, 57
1, 362570, Note_on_c, 0, 78, 75
1, 362571, Note_off_c, 0, 75, 60
1, 362573, Note_on_c, 0, 44, 74
1, 362577, Control_c, 0, 64, 50
1, 362591, Control_c, 0, 64, 40
1, 362606, Control_c, 0, 64, 34
1, 362621, Control_c, 0, 64, 36
1, 362644, Control_c, 0, 64, 42
1, 362645, Note_on_c, 0, 39, 67
1, 362648, Note_on_c, 0, 84, 84
1, 362651, Note_off_c, 0, 44, 64
1, 362657, Note_off_c, 0, 78, 65
1, 362659, Control_c, 0, 64, 52
1, 362673, Control_c, 0, 64, 61
1, 362686, Note_off_c, 0, 84, 65
1, 362688, Control_c, 0, 64, 64
1, 362703, Control_c, 0, 64, 66
1, 362704, Note_off_c, 0, 39, 60
1, 362717, Note_on_c, 0, 44, 64
1, 362717, Control_c, 0, 64, 67
1, 362719, Note_on_c, 0, 78, 73
1, 362747, Control_c, 0, 64, 66
1, 362761, Note_on_c, 0, 85, 66
1, 362762, Control_c, 0, 64, 66
1, 362779, Note_off_c, 0, 78, 64
1, 362782, Note_off_c, 0, 44, 63
1, 362786, Note_on_c, 0, 39, 73
1, 362791, Control_c, 0, 64, 65
1, 362806, Control_c, 0, 64, 63
1, 362821, Control_c, 0, 64, 56
1, 362835, Control_c, 0, 64, 45
1, 362850, Control_c, 0, 64, 41
1, 362851, Note_off_c, 0, 85, 67
1, 362852, Note_on_c, 0, 87, 79
1, 362858, Note_on_c, 0, 36, 72
1, 362864, Note_off_c, 0, 39, 61
1, 362865, Control_c, 0, 64, 42
1, 362880, Control_c, 0, 64, 45
1, 362895, Control_c, 0, 64, 48
1, 362902, Note_off_c, 0, 36, 58
1, 362910, Note_off_c, 0, 87, 67
1, 362910, Control_c, 0, 64, 53
1, 362925, Control_c, 0, 64, 56
1, 362927, Note_on_c, 0, 84, 80
1, 362940, Control_c, 0, 64, 59
1, 362940, Note_on_c, 0, 39, 64
1, 362955, Control_c, 0, 64, 59
1, 362990, Note_off_c, 0, 39, 63
1, 362993, Note_on_c, 0, 87, 84
1, 362999, Note_off_c, 0, 84, 65
1, 363002, Note_on_c, 0, 36, 70
1, 363029, Control_c, 0, 64, 57
1, 363044, Control_c, 0, 64, 49
1, 363054, Note_off_c, 0, 87, 63
1, 363055, Note_on_c, 0, 90, 85
1, 363059, Control_c, 0, 64, 34
1, 363062, Note_on_c, 0, 32, 75
1, 363070, Note_off_c, 0, 36, 63
1, 363074, Control_c, 0, 64, 25
1, 363089, Control_c, 0, 64, 28
1, 363104, Control_c, 0, 64, 35
1, 363119, Control_c, 0, 64, 43
1, 363131, Note_on_c, 0, 87, 88
1, 363132, Note_on_c, 0, 36, 68
1, 363133, Control_c, 0, 64, 54
1, 363138, Note_off_c, 0, 32, 63
1, 363142, Note_off_c, 0, 90, 63
1, 363148, Control_c, 0, 64, 59
1, 363163, Control_c, 0, 64, 61
1, 363176, Poly_aftertouch_c, 0, 37, 127
1, 363178, Control_c, 0, 64, 62
1, 363196, Note_on_c, 0, 90, 86
1, 363196, Note_off_c, 0, 87, 63
1, 363203, Note_on_c, 0, 32, 72
1, 363205, Note_off_c, 0, 36, 62
1, 363224, Poly_aftertouch_c, 0, 37, 0
1, 363237, Control_c, 0, 64, 62
1, 363266, Note_on_c, 0, 36, 76
1, 363267, Control_c, 0, 64, 61
1, 363272, Note_on_c, 0, 87, 89
1, 363286, Note_off_c, 0, 32, 62
1, 363296, Control_c, 0, 64, 61
1, 363298, Note_off_c, 0, 90, 64
1, 363311, Control_c, 0, 64, 59
1, 363326, Control_c, 0, 64, 57
1, 363328, Note_on_c, 0, 39, 77
1, 363331, Note_on_c, 0, 84, 84
1, 363334, Note_off_c, 0, 87, 64
1, 363340, Control_c, 0, 64, 54
1, 363342, Note_off_c, 0, 36, 62
1, 363355, Control_c, 0, 64, 52
1, 363387, Note_off_c, 0, 39, 59
1, 363411, Note_on_c, 0, 36, 72
1, 363420, Note_on_c, 0, 87, 92
1, 363422, Control_c, 0, 64, 52
1, 363431, Note_off_c, 0, 84, 65
1, 363437, Control_c, 0, 64, 49
1, 363452, Control_c, 0, 64, 38
1, 363466, Control_c, 0, 64, 0
1, 363485, Note_on_c, 0, 91, 93
1, 363485, Note_off_c, 0, 36, 62
1, 363493, Note_on_c, 0, 31, 68
1, 363494, Note_off_c, 0, 87, 65
1, 363504, Note_on_c, 0, 29, 55
1, 363541, Note_off_c, 0, 29, 51
1, 363558, Note_on_c, 0, 36, 80
1, 363561, Note_on_c, 0, 87, 93
1, 363573, Note_off_c, 0, 91, 66
1, 363576, Note_off_c, 0, 31, 63
1, 363614, Control_c, 0, 64, 41
1, 363629, Control_c, 0, 64, 58
1, 363634, Note_on_c, 0, 91, 93
1, 363635, Note_off_c, 0, 87, 65
1, 363640, Note_on_c, 0, 31, 79
1, 363642, Note_off_c, 0, 36, 62
1, 363644, Control_c, 0, 64, 67
1, 363658, Control_c, 0, 64, 81
1, 363673, Control_c, 0, 64, 127
1, 363712, Note_on_c, 0, 86, 98
1, 363713, Note_on_c, 0, 36, 83
1, 363734, Note_off_c, 0, 31, 63
1, 363740, Note_off_c, 0, 91, 64
1, 363765, Note_on_c, 0, 38, 78
1, 363769, Note_off_c, 0, 36, 65
1, 363792, Note_on_c, 0, 84, 92
1, 363795, Note_off_c, 0, 86, 66
1, 363823, Control_c, 0, 64, 96
1, 363837, Control_c, 0, 64, 80
1, 363840, Note_on_c, 0, 36, 82
1, 363852, Note_off_c, 0, 38, 57
1, 363852, Control_c, 0, 64, 70
1, 363867, Control_c, 0, 64, 62
1, 363872, Note_on_c, 0, 86, 93
1, 363879, Note_off_c, 0, 84, 65
1, 363882, Control_c, 0, 64, 54
1, 363897, Control_c, 0, 64, 50
1, 363910, Note_off_c, 0, 36, 62
1, 363912, Control_c, 0, 64, 50
1, 363915, Note_on_c, 0, 29, 82
1, 363938, Note_on_c, 0, 92, 101
1, 363941, Control_c, 0, 64, 49
1, 363944, Note_off_c, 0, 86, 64
1, 363956, Control_c, 0, 64, 47
1, 363971, Control_c, 0, 64, 43
1, 363986, Control_c, 0, 64, 40
1, 363992, Note_on_c, 0, 36, 83
1, 363997, Note_on_c, 0, 86, 81
1, 364001, Control_c, 0, 64, 39
1, 364009, Note_off_c, 0, 29, 62
1, 364028, Note_off_c, 0, 92, 65
1, 364045, Control_c, 0, 64, 38
1, 364064, Note_off_c, 0, 36, 61
1, 364066, Note_off_c, 0, 86, 63
1, 364067, Note_on_c, 0, 92, 84
1, 364073, Note_on_c, 0, 29, 78
1, 364142, Note_on_c, 0, 86, 86
1, 364150, Note_on_c, 0, 36, 80
1, 364171, Control_c, 0, 64, 39
1, 364173, Note_off_c, 0, 29, 63
1, 364174, Note_off_c, 0, 92, 64
1, 364186, Control_c, 0, 64, 40
1, 364209, Note_off_c, 0, 86, 66
1, 364210, Note_on_c, 0, 84, 82
1, 364218, Note_on_c, 0, 38, 70
1, 364222, Note_off_c, 0, 36, 63
1, 364285, Note_on_c, 0, 86, 89
1, 364288, Note_on_c, 0, 36, 73
1, 364290, Note_off_c, 0, 38, 62
1, 364292, Note_off_c, 0, 84, 64
1, 364319, Control_c, 0, 64, 40
1, 364351, Note_on_c, 0, 29, 78
1, 364352, Note_on_c, 0, 92, 97
1, 364353, Note_off_c, 0, 36, 63
1, 364353, Note_off_c, 0, 86, 64
1, 364427, Note_on_c, 0, 86, 91
1, 364428, Note_on_c, 0, 36, 74
1, 364440, Note_off_c, 0, 92, 64
1, 364445, Note_off_c, 0, 29, 62
1, 364452, Control_c, 0, 64, 41
1, 364495, Note_on_c, 0, 92, 89
1, 364496, Note_off_c, 0, 86, 65
1, 364498, Note_off_c, 0, 36, 62
1, 364508, Note_on_c, 0, 29, 73
1, 364511, Control_c, 0, 64, 41
1, 364567, Note_on_c, 0, 86, 88
1, 364570, Control_c, 0, 64, 42
1, 364581, Note_on_c, 0, 36, 78
1, 364593, Note_off_c, 0, 92, 63
1, 364600, Note_off_c, 0, 29, 62
1, 364616, Control_c, 0, 64, 42
1, 364636, Note_off_c, 0, 86, 66
1, 364639, Note_on_c, 0, 84, 83
1, 364645, Note_off_c, 0, 36, 64
1, 364648, Note_on_c, 0, 38, 69
1, 364716, Note_on_c, 0, 36, 71
1, 364719, Note_off_c, 0, 38, 62
1, 364719, Control_c, 0, 64, 43
1, 364720, Note_off_c, 0, 84, 59
1, 364721, Note_on_c, 0, 86, 85
1, 364764, Control_c, 0, 64, 43
1, 364779, Control_c, 0, 64, 44
1, 364780, Note_off_c, 0, 36, 63
1, 364783, Note_on_c, 0, 92, 92
1, 364785, Note_on_c, 0, 29, 80
1, 364785, Note_off_c, 0, 86, 65
1, 364794, Control_c, 0, 64, 45
1, 364809, Control_c, 0, 64, 46
1, 364824, Control_c, 0, 64, 46
1, 364839, Control_c, 0, 64, 47
1, 364853, Note_on_c, 0, 36, 69
1, 364853, Note_on_c, 0, 86, 86
1, 364861, Note_off_c, 0, 92, 65
1, 364862, Note_off_c, 0, 29, 62
1, 364868, Control_c, 0, 64, 47
1, 364917, Note_off_c, 0, 36, 62
1, 364919, Control_c, 0, 64, 47
1, 364928, Note_off_c, 0, 86, 63
1, 364932, Note_on_c, 0, 92, 93
1, 364934, Control_c, 0, 64, 46
1, 364939, Note_on_c, 0, 29, 73
1, 364994, Control_c, 0, 64, 50
1, 365003, Note_on_c, 0, 86, 88
1, 365008, Note_on_c, 0, 36, 76
1, 365009, Control_c, 0, 64, 55
1, 365023, Control_c, 0, 64, 60
1, 365028, Note_off_c, 0, 29, 62
1, 365031, Note_off_c, 0, 92, 62
1, 365038, Control_c, 0, 64, 62
1, 365053, Control_c, 0, 64, 63
1, 365059, Note_on_c, 0, 38, 69
1, 365065, Note_off_c, 0, 36, 63
1, 365068, Control_c, 0, 64, 62
1, 365070, Note_on_c, 0, 84, 82
1, 365070, Note_off_c, 0, 86, 65
1, 365083, Control_c, 0, 64, 61
1, 365098, Control_c, 0, 64, 61
1, 365112, Control_c, 0, 64, 60
1, 365131, Note_off_c, 0, 38, 61
1, 365137, Note_on_c, 0, 36, 68
1, 365143, Note_off_c, 0, 84, 65
1, 365145, Note_on_c, 0, 86, 83
1, 365198, Note_off_c, 0, 36, 63
1, 365201, Control_c, 0, 64, 60
1, 365208, Note_on_c, 0, 92, 92
1, 365214, Note_off_c, 0, 86, 64
1, 365217, Note_on_c, 0, 32, 58
1, 365229, Note_on_c, 0, 29, 71
1, 365246, Control_c, 0, 64, 59
1, 365256, Note_off_c, 0, 32, 58
1, 365279, Note_on_c, 0, 89, 83
1, 365293, Note_on_c, 0, 32, 63
1, 365296, Note_off_c, 0, 92, 63
1, 365303, Note_off_c, 0, 29, 62
1, 365334, Control_c, 0, 64, 58
1, 365349, Control_c, 0, 64, 56
1, 365352, Note_on_c, 0, 92, 82
1, 365359, Note_off_c, 0, 89, 64
1, 365364, Control_c, 0, 64, 53
1, 365384, Note_on_c, 0, 29, 71
1, 365385, Note_off_c, 0, 32, 59
1, 365395, Control_c, 0, 64, 54
1, 365409, Control_c, 0, 64, 57
1, 365424, Control_c, 0, 64, 60
1, 365425, Note_on_c, 0, 86, 87
1, 365435, Note_off_c, 0, 92, 65
1, 365439, Control_c, 0, 64, 62
1, 365441, Note_on_c, 0, 35, 73
1, 365454, Control_c, 0, 64, 63
1, 365462, Note_off_c, 0, 29, 62
1, 365469, Control_c, 0, 64, 63
1, 365483, Control_c, 0, 64, 62
1, 365497, Note_on_c, 0, 83, 80
1, 365498, Control_c, 0, 64, 60
1, 365500, Note_off_c, 0, 35, 61
1, 365503, Note_off_c, 0, 86, 63
1, 365511, Note_on_c, 0, 38, 57
1, 365513, Control_c, 0, 64, 58
1, 365527, Control_c, 0, 64, 56
1, 365542, Control_c, 0, 64, 54
1, 365557, Control_c, 0, 64, 53
1, 365563, Note_off_c, 0, 83, 51
1, 365569, Note_off_c, 0, 38, 59
1, 365570, Note_on_c, 0, 35, 68
1, 365581, Note_on_c, 0, 86, 83
1, 365617, Control_c, 0, 64, 52
1, 365639, Control_c, 0, 64, 45
1, 365647, Note_off_c, 0, 35, 61
1, 365653, Note_on_c, 0, 91, 91
1, 365654, Control_c, 0, 64, 0
1, 365656, Note_on_c, 0, 31, 75
1, 365656, Note_off_c, 0, 86, 64
1, 365737, Note_on_c, 0, 87, 82
1, 365742, Note_off_c, 0, 91, 65
1, 365742, Control_c, 0, 64, 48
1, 365745, Note_on_c, 0, 33, 68
1, 365757, Control_c, 0, 64, 61
1, 365772, Control_c, 0, 64, 66
1, 365776, Note_off_c, 0, 31, 63
1, 365778, Note_off_c, 0, 33, 63
1, 365787, Control_c, 0, 64, 71
1, 365796, Note_off_c, 0, 87, 64
1, 365801, Control_c, 0, 64, 75
1, 365814, Note_on_c, 0, 91, 90
1, 365816, Control_c, 0, 64, 76
1, 365831, Control_c, 0, 64, 73
1, 365846, Control_c, 0, 64, 68
1, 365861, Control_c, 0, 64, 60
1, 365876, Control_c, 0, 64, 52
1, 365878, Note_on_c, 0, 87, 91
1, 365891, Control_c, 0, 64, 54
1, 365894, Note_off_c, 0, 91, 64
1, 365897, Note_on_c, 0, 36, 56
1, 365906, Control_c, 0, 64, 58
1, 365915, Note_on_c, 0, 38, 53
1, 365921, Control_c, 0, 64, 64
1, 365935, Control_c, 0, 64, 70
1, 365942, Note_off_c, 0, 87, 65
1, 365947, Note_off_c, 0, 38, 54
1, 365947, Note_on_c, 0, 39, 66
1, 365950, Control_c, 0, 64, 79
1, 365953, Note_off_c, 0, 36, 62
1, 365958, Note_on_c, 0, 79, 75
1, 365965, Control_c, 0, 64, 92
1, 365980, Control_c, 0, 64, 111
1, 365991, Note_off_c, 0, 39, 61
1, 365995, Control_c, 0, 64, 127
1, 366001, Note_off_c, 0, 79, 58
1, 366009, Control_c, 0, 64, 122
1, 366019, Note_on_c, 0, 45, 30
1, 366024, Control_c, 0, 64, 106
1, 366026, Note_on_c, 0, 84, 91
1, 366039, Control_c, 0, 64, 97
1, 366049, Note_on_c, 0, 43, 14
1, 366053, Control_c, 0, 64, 83
1, 366057, Note_off_c, 0, 45, 47
1, 366068, Control_c, 0, 64, 67
1, 366083, Control_c, 0, 64, 45
1, 366085, Note_off_c, 0, 43, 43
1, 366093, Note_off_c, 0, 84, 63
1, 366098, Control_c, 0, 64, 16
1, 366113, Control_c, 0, 64, 36
1, 366114, Note_on_c, 0, 75, 88
1, 366127, Control_c, 0, 64, 54
1, 366135, Note_on_c, 0, 41, 12
1, 366142, Control_c, 0, 64, 63
1, 366157, Control_c, 0, 64, 69
1, 366162, Note_off_c, 0, 75, 63
1, 366172, Control_c, 0, 64, 78
1, 366183, Note_off_c, 0, 41, 28
1, 366187, Note_on_c, 0, 77, 79
1, 366188, Control_c, 0, 64, 87
1, 366203, Control_c, 0, 64, 86
1, 366218, Control_c, 0, 64, 81
1, 366232, Control_c, 0, 64, 74
1, 366247, Control_c, 0, 64, 66
1, 366254, Note_on_c, 0, 80, 80
1, 366262, Control_c, 0, 64, 53
1, 366266, Note_off_c, 0, 77, 63
1, 366277, Control_c, 0, 64, 0
1, 366296, Note_on_c, 0, 43, 68
1, 366301, Note_off_c, 0, 80, 66
1, 366328, Note_on_c, 0, 74, 80
1, 366365, Control_c, 0, 64, 27
1, 366387, Note_on_c, 0, 47, 66
1, 366388, Control_c, 0, 64, 51
1, 366403, Control_c, 0, 64, 63
1, 366418, Control_c, 0, 64, 67
1, 366428, Note_off_c, 0, 43, 62
1, 366432, Control_c, 0, 64, 71
1, 366445, Note_off_c, 0, 74, 63
1, 366447, Control_c, 0, 64, 73
1, 366449, Note_off_c, 0, 47, 63
1, 366457, Note_on_c, 0, 50, 71
1, 366469, Note_on_c, 0, 77, 77
1, 366477, Control_c, 0, 64, 72
1, 366491, Control_c, 0, 64, 71
1, 366499, Note_off_c, 0, 50, 62
1, 366506, Control_c, 0, 64, 69
1, 366521, Control_c, 0, 64, 65
1, 366536, Control_c, 0, 64, 57
1, 366538, Note_off_c, 0, 77, 62
1, 366541, Note_on_c, 0, 71, 74
1, 366542, Note_on_c, 0, 43, 73
1, 366551, Control_c, 0, 64, 46
1, 366565, Control_c, 0, 64, 44
1, 366580, Control_c, 0, 64, 49
1, 366595, Control_c, 0, 64, 54
1, 366610, Control_c, 0, 64, 60
1, 366611, Note_on_c, 0, 72, 74
1, 366612, Note_on_c, 0, 50, 74
1, 366612, Note_off_c, 0, 71, 63
1, 366625, Control_c, 0, 64, 64
1, 366634, Note_off_c, 0, 43, 62
1, 366639, Control_c, 0, 64, 67
1, 366654, Control_c, 0, 64, 68
1, 366669, Note_off_c, 0, 50, 61
1, 366680, Note_off_c, 0, 72, 63
1, 366681, Note_on_c, 0, 53, 70
1, 366684, Control_c, 0, 64, 68
1, 366690, Note_on_c, 0, 75, 74
1, 366699, Control_c, 0, 64, 67
1, 366714, Control_c, 0, 64, 66
1, 366728, Control_c, 0, 64, 66
1, 366743, Control_c, 0, 64, 64
1, 366750, Note_off_c, 0, 75, 62
1, 366758, Control_c, 0, 64, 58
1, 366761, Note_off_c, 0, 53, 63
1, 366773, Control_c, 0, 64, 48
1, 366776, Note_on_c, 0, 67, 76
1, 366788, Control_c, 0, 64, 39
1, 366791, Note_on_c, 0, 48, 67
1, 366818, Control_c, 0, 64, 43
1, 366832, Control_c, 0, 64, 49
1, 366843, Note_off_c, 0, 67, 61
1, 366847, Control_c, 0, 64, 57
1, 366862, Control_c, 0, 64, 62
1, 366864, Note_on_c, 0, 51, 66
1, 366874, Note_on_c, 0, 63, 73
1, 366876, Control_c, 0, 64, 65
1, 366891, Control_c, 0, 64, 65
1, 366921, Control_c, 0, 64, 65
1, 366928, Note_off_c, 0, 48, 58
1, 366936, Control_c, 0, 64, 64
1, 366950, Control_c, 0, 64, 64
1, 366958, Note_on_c, 0, 67, 69
1, 366962, Note_on_c, 0, 55, 55
1, 366962, Note_off_c, 0, 63, 57
1, 366965, Control_c, 0, 64, 63
1, 366981, Control_c, 0, 64, 62
1, 366996, Control_c, 0, 64, 59
1, 367011, Control_c, 0, 64, 51
1, 367011, Control_c, 0, 67, 8
1, 367014, Note_off_c, 0, 51, 35
1, 367026, Control_c, 0, 64, 29
1, 367026, Control_c, 0, 67, 35
1, 367041, Control_c, 0, 64, 0
1, 367041, Control_c, 0, 67, 59
1, 367055, Control_c, 0, 67, 76
1, 367058, Note_off_c, 0, 55, 56
1, 367062, Note_off_c, 0, 67, 54
1, 367069, Note_on_c, 0, 60, 72
1, 367070, Control_c, 0, 67, 86
1, 367073, Note_on_c, 0, 48, 57
1, 367085, Control_c, 0, 67, 87
1, 367099, Control_c, 0, 67, 86
1, 367114, Control_c, 0, 67, 84
1, 367131, Note_on_c, 0, 51, 64
1, 367137, Control_c, 0, 64, 33
1, 367137, Control_c, 0, 67, 81
1, 367152, Control_c, 0, 64, 54
1, 367152, Control_c, 0, 67, 78
1, 367161, Note_off_c, 0, 60, 54
1, 367167, Control_c, 0, 64, 63
1, 367167, Control_c, 0, 67, 75
1, 367181, Control_c, 0, 64, 67
1, 367181, Control_c, 0, 67, 71
1, 367188, Note_off_c, 0, 48, 59
1, 367196, Control_c, 0, 64, 73
1, 367196, Control_c, 0, 67, 69
1, 367201, Note_off_c, 0, 51, 63
1, 367208, Note_on_c, 0, 63, 61
1, 367211, Control_c, 0, 64, 81
1, 367211, Control_c, 0, 67, 67
1, 367226, Control_c, 0, 64, 91
1, 367226, Control_c, 0, 67, 65
1, 367226, Note_on_c, 0, 55, 50
1, 367241, Control_c, 0, 64, 122
1, 367241, Control_c, 0, 67, 62
1, 367255, Control_c, 0, 64, 127
1, 367255, Control_c, 0, 67, 56
1, 367270, Control_c, 0, 67, 38
1, 367279, Note_off_c, 0, 55, 56
1, 367285, Control_c, 0, 67, 17
1, 367300, Control_c, 0, 67, 0
1, 367301, Note_off_c, 0, 63, 57
1, 367308, Note_on_c, 0, 60, 62
1, 367370, Note_off_c, 0, 60, 61
1, 367433, Control_c, 0, 64, 101
1, 367448, Control_c, 0, 64, 80
1, 367462, Control_c, 0, 64, 66
1, 367477, Control_c, 0, 64, 54
1, 367492, Control_c, 0, 64, 36
1, 367507, Control_c, 0, 64, 26
1, 367521, Control_c, 0, 64, 25
1, 367536, Control_c, 0, 64, 20
1, 367551, Control_c, 0, 64, 0
1, 367626, Control_c, 0, 67, 12
1, 367641, Control_c, 0, 67, 24
1, 367655, Control_c, 0, 67, 28
1, 367670, Note_on_c, 0, 60, 46
1, 367670, Control_c, 0, 67, 29
1, 367684, Note_on_c, 0, 55, 43
1, 367688, Note_on_c, 0, 51, 35
1, 367691, Note_on_c, 0, 48, 32
1, 367729, Control_c, 0, 67, 27
1, 367744, Control_c, 0, 67, 27
1, 367759, Control_c, 0, 67, 26
1, 367775, Control_c, 0, 67, 24
1, 367790, Control_c, 0, 67, 21
1, 367804, Control_c, 0, 64, 30
1, 367804, Control_c, 0, 67, 19
1, 367819, Control_c, 0, 64, 51
1, 367819, Control_c, 0, 67, 17
1, 367834, Control_c, 0, 64, 61
1, 367834, Control_c, 0, 67, 14
1, 367849, Control_c, 0, 64, 66
1, 367849, Control_c, 0, 67, 12
1, 367864, Control_c, 0, 64, 70
1, 367864, Control_c, 0, 67, 9
1, 367885, Control_c, 0, 64, 76
1, 367885, Control_c, 0, 67, 0
1, 367900, Control_c, 0, 64, 82
1, 367915, Control_c, 0, 64, 89
1, 367930, Control_c, 0, 64, 98
1, 367945, Control_c, 0, 64, 110
1, 367945, Note_off_c, 0, 60, 37
1, 367960, Control_c, 0, 64, 127
1, 367997, Note_off_c, 0, 55, 53
1, 368055, Note_off_c, 0, 51, 42
1, 368254, Note_off_c, 0, 48, 39
1, 368344, Control_c, 0, 64, 109
1, 368359, Control_c, 0, 64, 98
1, 368374, Control_c, 0, 64, 87
1, 368387, Note_on_c, 0, 59, 49
1, 368389, Control_c, 0, 64, 74
1, 368392, Note_on_c, 0, 55, 46
1, 368404, Control_c, 0, 64, 63
1, 368416, Note_on_c, 0, 50, 27
1, 368419, Control_c, 0, 64, 45
1, 368421, Note_on_c, 0, 53, 39
1, 368434, Control_c, 0, 64, 0
1, 368522, Control_c, 0, 64, 20
1, 368537, Control_c, 0, 64, 45
1, 368552, Control_c, 0, 64, 57
1, 368568, Control_c, 0, 64, 63
1, 368583, Control_c, 0, 64, 66
1, 368598, Control_c, 0, 64, 69
1, 368612, Control_c, 0, 64, 72
1, 368634, Control_c, 0, 64, 77
1, 368649, Control_c, 0, 64, 83
1, 368664, Control_c, 0, 64, 91
1, 368679, Control_c, 0, 64, 102
1, 368694, Control_c, 0, 64, 127
1, 368741, Note_off_c, 0, 55, 42
1, 368958, Poly_aftertouch_c, 0, 64, 127
1, 369018, Note_on_c, 0, 60, 56
1, 369020, Control_c, 0, 64, 105
1, 369026, Note_on_c, 0, 55, 49
1, 369034, Control_c, 0, 64, 91
1, 369037, Note_on_c, 0, 51, 44
1, 369038, Note_on_c, 0, 48, 42
1, 369044, Poly_aftertouch_c, 0, 64, 0
1, 369049, Control_c, 0, 64, 79
1, 369064, Control_c, 0, 64, 68
1, 369074, Note_off_c, 0, 59, 58
1, 369079, Control_c, 0, 64, 58
1, 369094, Control_c, 0, 64, 22
1, 369108, Control_c, 0, 64, 0
1, 369122, Note_off_c, 0, 50, 41
1, 369163, Note_off_c, 0, 53, 38
1, 369212, Control_c, 0, 64, 34
1, 369226, Control_c, 0, 64, 51
1, 369241, Control_c, 0, 64, 60
1, 369256, Control_c, 0, 64, 64
1, 369271, Control_c, 0, 64, 67
1, 369274, Note_off_c, 0, 55, 50
1, 369286, Control_c, 0, 64, 70
1, 369301, Control_c, 0, 64, 73
1, 369316, Control_c, 0, 64, 78
1, 369331, Control_c, 0, 64, 84
1, 369345, Control_c, 0, 64, 92
1, 369360, Control_c, 0, 64, 101
1, 369383, Control_c, 0, 64, 122
1, 369398, Control_c, 0, 64, 127
1, 369465, Note_off_c, 0, 60, 52
1, 369641, Note_off_c, 0, 51, 30
1, 369754, Control_c, 0, 64, 107
1, 369760, Note_on_c, 0, 61, 51
1, 369768, Control_c, 0, 64, 95
1, 369783, Control_c, 0, 64, 84
1, 369786, Note_on_c, 0, 56, 37
1, 369795, Note_on_c, 0, 53, 42
1, 369798, Control_c, 0, 64, 74
1, 369808, Note_on_c, 0, 47, 39
1, 369813, Control_c, 0, 64, 66
1, 369828, Control_c, 0, 64, 59
1, 369842, Control_c, 0, 64, 43
1, 369857, Control_c, 0, 64, 14
1, 369872, Control_c, 0, 64, 0
1, 369884, Note_off_c, 0, 48, 32
1, 369990, Control_c, 0, 64, 18
1, 370005, Control_c, 0, 64, 42
1, 370020, Control_c, 0, 64, 57
1, 370035, Control_c, 0, 64, 63
1, 370049, Control_c, 0, 64, 66
1, 370064, Control_c, 0, 64, 68
1, 370079, Control_c, 0, 64, 72
1, 370094, Control_c, 0, 64, 75
1, 370109, Control_c, 0, 64, 82
1, 370131, Control_c, 0, 64, 89
1, 370146, Control_c, 0, 64, 99
1, 370158, Note_off_c, 0, 56, 37
1, 370161, Control_c, 0, 64, 113
1, 370175, Control_c, 0, 64, 127
1, 370228, Note_off_c, 0, 61, 29
1, 370273, Note_off_c, 0, 53, 37
1, 370412, Control_c, 0, 64, 119
1, 370427, Control_c, 0, 64, 102
1, 370442, Control_c, 0, 64, 89
1, 370446, Note_off_c, 0, 47, 0
1, 370457, Control_c, 0, 64, 77
1, 370458, Note_on_c, 0, 62, 42
1, 370471, Control_c, 0, 64, 67
1, 370478, Note_on_c, 0, 56, 23
1, 370483, Poly_aftertouch_c, 0, 47, 127
1, 370486, Control_c, 0, 64, 55
1, 370501, Control_c, 0, 64, 38
1, 370515, Control_c, 0, 64, 12
1, 370520, Note_on_c, 0, 53, 34
1, 370530, Control_c, 0, 64, 0
1, 370589, Control_c, 0, 64, 19
1, 370604, Control_c, 0, 64, 33
1, 370619, Control_c, 0, 64, 47
1, 370634, Control_c, 0, 64, 58
1, 370649, Control_c, 0, 64, 63
1, 370663, Control_c, 0, 64, 66
1, 370678, Control_c, 0, 64, 70
1, 370693, Control_c, 0, 64, 74
1, 370708, Control_c, 0, 64, 80
1, 370723, Control_c, 0, 64, 89
1, 370738, Control_c, 0, 64, 103
1, 370753, Note_off_c, 0, 62, 47
1, 370753, Control_c, 0, 64, 127
1, 370786, Note_off_c, 0, 53, 40
1, 370786, Note_off_c, 0, 56, 39
1, 370791, Poly_aftertouch_c, 0, 47, 0
1, 371132, Control_c, 0, 64, 105
1, 371140, Note_on_c, 0, 56, 45
1, 371141, Note_on_c, 0, 62, 51
1, 371146, Control_c, 0, 64, 87
1, 371161, Control_c, 0, 64, 75
1, 371173, Note_on_c, 0, 53, 37
1, 371174, Note_on_c, 0, 47, 34
1, 371176, Control_c, 0, 64, 64
1, 371191, Control_c, 0, 64, 52
1, 371206, Control_c, 0, 64, 37
1, 371221, Control_c, 0, 64, 34
1, 371236, Control_c, 0, 64, 36
1, 371251, Control_c, 0, 64, 39
1, 371265, Control_c, 0, 64, 43
1, 371280, Control_c, 0, 64, 50
1, 371295, Control_c, 0, 64, 57
1, 371310, Control_c, 0, 64, 62
1, 371325, Control_c, 0, 64, 65
1, 371340, Control_c, 0, 64, 67
1, 371354, Control_c, 0, 64, 70
1, 371369, Control_c, 0, 64, 73
1, 371384, Control_c, 0, 64, 77
1, 371399, Control_c, 0, 64, 83
1, 371413, Control_c, 0, 64, 90
1, 371416, Note_off_c, 0, 56, 41
1, 371428, Control_c, 0, 64, 100
1, 371443, Control_c, 0, 64, 115
1, 371451, Note_off_c, 0, 47, 40
1, 371458, Control_c, 0, 64, 127
1, 371513, Note_off_c, 0, 53, 42
1, 371878, Note_on_c, 0, 63, 60
1, 371881, Control_c, 0, 64, 109
1, 371895, Note_on_c, 0, 55, 43
1, 371896, Control_c, 0, 64, 93
1, 371911, Control_c, 0, 64, 80
1, 371912, Note_on_c, 0, 46, 37
1, 371915, Note_on_c, 0, 48, 35
1, 371918, Note_off_c, 0, 62, 55
1, 371925, Control_c, 0, 64, 70
1, 371940, Control_c, 0, 64, 63
1, 371955, Control_c, 0, 64, 53
1, 371969, Control_c, 0, 64, 43
1, 371984, Control_c, 0, 64, 35
1, 371999, Control_c, 0, 64, 30
1, 372014, Control_c, 0, 64, 25
1, 372029, Control_c, 0, 64, 23
1, 372043, Control_c, 0, 64, 23
1, 372073, Control_c, 0, 64, 28
1, 372088, Control_c, 0, 64, 35
1, 372103, Control_c, 0, 64, 43
1, 372118, Control_c, 0, 64, 52
1, 372133, Control_c, 0, 64, 58
1, 372148, Control_c, 0, 64, 62
1, 372163, Control_c, 0, 64, 64
1, 372177, Control_c, 0, 64, 66
1, 372192, Control_c, 0, 64, 68
1, 372207, Control_c, 0, 64, 71
1, 372222, Control_c, 0, 64, 74
1, 372237, Control_c, 0, 64, 79
1, 372251, Control_c, 0, 64, 86
1, 372266, Control_c, 0, 64, 93
1, 372281, Control_c, 0, 64, 103
1, 372295, Control_c, 0, 64, 120
1, 372307, Note_off_c, 0, 48, 38
1, 372310, Control_c, 0, 64, 127
1, 372324, Note_off_c, 0, 46, 38
1, 372371, Note_off_c, 0, 55, 37
1, 372385, Note_off_c, 0, 63, 25
1, 372636, Note_on_c, 0, 64, 50
1, 372645, Control_c, 0, 64, 114
1, 372660, Control_c, 0, 64, 96
1, 372663, Note_on_c, 0, 55, 38
1, 372674, Control_c, 0, 64, 81
1, 372681, Note_on_c, 0, 46, 34
1, 372683, Note_on_c, 0, 48, 36
1, 372689, Control_c, 0, 64, 68
1, 372704, Control_c, 0, 64, 56
1, 372719, Control_c, 0, 64, 26
1, 372734, Control_c, 0, 64, 0
1, 372778, Control_c, 0, 64, 12
1, 372792, Control_c, 0, 64, 26
1, 372807, Control_c, 0, 64, 39
1, 372822, Control_c, 0, 64, 53
1, 372837, Control_c, 0, 64, 60
1, 372852, Control_c, 0, 64, 63
1, 372866, Control_c, 0, 64, 65
1, 372881, Control_c, 0, 64, 67
1, 372896, Control_c, 0, 64, 69
1, 372911, Control_c, 0, 64, 72
1, 372915, Note_off_c, 0, 48, 38
1, 372926, Control_c, 0, 64, 75
1, 372932, Note_off_c, 0, 46, 35
1, 372932, Note_off_c, 0, 64, 49
1, 372939, Note_off_c, 0, 55, 35
1, 372941, Control_c, 0, 64, 79
1, 372956, Control_c, 0, 64, 83
1, 372971, Control_c, 0, 64, 87
1, 372985, Control_c, 0, 64, 92
1, 373000, Control_c, 0, 64, 97
1, 373015, Control_c, 0, 64, 100
1, 373030, Control_c, 0, 64, 101
1, 373045, Control_c, 0, 64, 102
1, 373074, Control_c, 0, 64, 104
1, 373089, Control_c, 0, 64, 106
1, 373104, Control_c, 0, 64, 108
1, 373104, Control_c, 0, 67, 11
1, 373126, Control_c, 0, 64, 109
1, 373126, Control_c, 0, 67, 21
1, 373140, Control_c, 0, 64, 110
1, 373140, Control_c, 0, 67, 29
1, 373155, Control_c, 0, 64, 111
1, 373155, Control_c, 0, 67, 36
1, 373170, Control_c, 0, 64, 112
1, 373170, Control_c, 0, 67, 40
1, 373185, Control_c, 0, 64, 113
1, 373185, Control_c, 0, 67, 42
1, 373200, Control_c, 0, 64, 115
1, 373200, Control_c, 0, 67, 42
1, 373215, Control_c, 0, 64, 116
1, 373230, Control_c, 0, 64, 119
1, 373230, Control_c, 0, 67, 42
1, 373245, Control_c, 0, 64, 120
1, 373245, Control_c, 0, 67, 41
1, 373260, Control_c, 0, 64, 122
1, 373260, Control_c, 0, 67, 39
1, 373274, Control_c, 0, 67, 37
1, 373289, Control_c, 0, 67, 36
1, 373304, Control_c, 0, 67, 34
1, 373316, Note_on_c, 0, 64, 53
1, 373318, Control_c, 0, 67, 32
1, 373327, Note_on_c, 0, 55, 40
1, 373331, Note_on_c, 0, 48, 41
1, 373333, Control_c, 0, 67, 31
1, 373338, Note_on_c, 0, 46, 31
1, 373348, Control_c, 0, 64, 127
1, 373348, Control_c, 0, 67, 30
1, 373364, Control_c, 0, 67, 29
1, 373379, Control_c, 0, 67, 28
1, 373394, Control_c, 0, 67, 27
1, 373409, Control_c, 0, 67, 26
1, 373423, Control_c, 0, 67, 26
1, 373438, Control_c, 0, 67, 25
1, 373453, Control_c, 0, 67, 24
1, 373483, Control_c, 0, 67, 24
1, 373497, Control_c, 0, 67, 23
1, 373512, Control_c, 0, 67, 22
1, 373525, Note_off_c, 0, 55, 41
1, 373542, Control_c, 0, 67, 22
1, 373570, Note_off_c, 0, 46, 37
1, 373645, Control_c, 0, 67, 21
1, 373719, Note_off_c, 0, 64, 29
1, 373734, Control_c, 0, 67, 21
1, 373749, Note_off_c, 0, 48, 33
1, 373904, Control_c, 0, 67, 20
1, 374111, Control_c, 0, 64, 110
1, 374126, Control_c, 0, 64, 96
1, 374127, Note_on_c, 0, 64, 52
1, 374137, Note_on_c, 0, 60, 46
1, 374140, Control_c, 0, 64, 84
1, 374146, Note_on_c, 0, 48, 39
1, 374155, Control_c, 0, 64, 73
1, 374158, Note_on_c, 0, 45, 38
1, 374171, Control_c, 0, 64, 64
1, 374186, Control_c, 0, 64, 51
1, 374201, Control_c, 0, 64, 28
1, 374216, Control_c, 0, 64, 16
1, 374239, Note_off_c, 0, 60, 0
1, 374275, Control_c, 0, 64, 18
1, 374276, Poly_aftertouch_c, 0, 60, 127
1, 374290, Control_c, 0, 64, 26
1, 374305, Control_c, 0, 64, 36
1, 374319, Control_c, 0, 64, 45
1, 374334, Control_c, 0, 64, 54
1, 374349, Control_c, 0, 64, 59
1, 374363, Control_c, 0, 64, 62
1, 374378, Control_c, 0, 64, 64
1, 374393, Control_c, 0, 64, 65
1, 374408, Control_c, 0, 64, 67
1, 374423, Control_c, 0, 64, 69
1, 374437, Control_c, 0, 64, 72
1, 374452, Control_c, 0, 64, 76
1, 374467, Control_c, 0, 64, 80
1, 374482, Control_c, 0, 64, 85
1, 374492, Note_off_c, 0, 45, 34
1, 374497, Control_c, 0, 64, 90
1, 374512, Control_c, 0, 64, 95
1, 374527, Control_c, 0, 64, 99
1, 374538, Note_off_c, 0, 64, 35
1, 374539, Note_off_c, 0, 48, 22
1, 374541, Control_c, 0, 64, 105
1, 374556, Control_c, 0, 64, 113
1, 374569, Poly_aftertouch_c, 0, 60, 0
1, 374571, Control_c, 0, 64, 127
1, 374890, Control_c, 0, 64, 113
1, 374899, Note_on_c, 0, 65, 45
1, 374905, Control_c, 0, 64, 104
1, 374911, Note_on_c, 0, 45, 35
1, 374912, Note_on_c, 0, 60, 39
1, 374920, Control_c, 0, 64, 94
1, 374923, Note_on_c, 0, 48, 35
1, 374935, Control_c, 0, 64, 82
1, 374950, Control_c, 0, 64, 69
1, 374965, Control_c, 0, 64, 58
1, 374980, Control_c, 0, 64, 39
1, 374995, Control_c, 0, 64, 25
1, 375024, Control_c, 0, 64, 26
1, 375039, Control_c, 0, 64, 30
1, 375054, Control_c, 0, 64, 37
1, 375069, Control_c, 0, 64, 46
1, 375084, Control_c, 0, 64, 55
1, 375099, Control_c, 0, 64, 61
1, 375114, Control_c, 0, 64, 64
1, 375129, Control_c, 0, 64, 66
1, 375143, Control_c, 0, 64, 69
1, 375158, Control_c, 0, 64, 73
1, 375173, Control_c, 0, 64, 76
1, 375179, Note_off_c, 0, 45, 35
1, 375185, Note_off_c, 0, 48, 34
1, 375187, Control_c, 0, 64, 80
1, 375194, Note_off_c, 0, 60, 27
1, 375202, Control_c, 0, 64, 86
1, 375217, Control_c, 0, 64, 92
1, 375227, Note_off_c, 0, 65, 31
1, 375232, Control_c, 0, 64, 102
1, 375247, Control_c, 0, 64, 115
1, 375261, Control_c, 0, 64, 127
1, 375306, Control_c, 0, 67, 19
1, 375402, Control_c, 0, 67, 19
1, 375491, Control_c, 0, 67, 18
1, 375556, Note_on_c, 0, 65, 48
1, 375574, Note_on_c, 0, 45, 39
1, 375580, Control_c, 0, 67, 17
1, 375585, Note_on_c, 0, 60, 37
1, 375586, Note_on_c, 0, 48, 38
1, 375830, Note_off_c, 0, 48, 40
1, 375886, Note_off_c, 0, 45, 33
1, 375888, Note_off_c, 0, 65, 33
1, 375895, Note_off_c, 0, 60, 36
1, 376136, Control_c, 0, 67, 18
1, 376196, Control_c, 0, 67, 19
1, 376240, Control_c, 0, 67, 19
1, 376270, Control_c, 0, 64, 109
1, 376275, Note_on_c, 0, 66, 55
1, 376285, Control_c, 0, 64, 91
1, 376287, Note_on_c, 0, 51, 52
1, 376294, Note_on_c, 0, 44, 47
1, 376297, Note_on_c, 0, 60, 43
1, 376300, Control_c, 0, 64, 78
1, 376315, Control_c, 0, 64, 67
1, 376330, Control_c, 0, 64, 56
1, 376330, Control_c, 0, 67, 20
1, 376344, Control_c, 0, 64, 34
1, 376359, Control_c, 0, 64, 0
1, 376404, Control_c, 0, 64, 12
1, 376418, Control_c, 0, 64, 23
1, 376433, Control_c, 0, 64, 35
1, 376448, Control_c, 0, 64, 51
1, 376463, Control_c, 0, 64, 59
1, 376478, Control_c, 0, 64, 64
1, 376492, Control_c, 0, 64, 66
1, 376492, Control_c, 0, 67, 21
1, 376507, Control_c, 0, 64, 70
1, 376522, Control_c, 0, 64, 73
1, 376536, Control_c, 0, 64, 79
1, 376551, Control_c, 0, 64, 84
1, 376563, Note_off_c, 0, 44, 29
1, 376568, Control_c, 0, 64, 92
1, 376583, Control_c, 0, 64, 102
1, 376597, Control_c, 0, 64, 127
1, 376629, Note_off_c, 0, 60, 40
1, 376641, Control_c, 0, 67, 20
1, 376686, Control_c, 0, 67, 19
1, 376687, Note_off_c, 0, 66, 51
1, 376712, Note_off_c, 0, 51, 23
1, 376804, Control_c, 0, 67, 19
1, 376983, Note_on_c, 0, 66, 69
1, 376998, Note_on_c, 0, 62, 56
1, 377004, Note_on_c, 0, 50, 55
1, 377004, Control_c, 0, 64, 96
1, 377014, Note_on_c, 0, 44, 47
1, 377019, Control_c, 0, 64, 81
1, 377033, Control_c, 0, 64, 69
1, 377048, Control_c, 0, 64, 57
1, 377063, Control_c, 0, 64, 30
1, 377078, Control_c, 0, 64, 0
1, 377093, Control_c, 0, 67, 19
1, 377138, Control_c, 0, 64, 11
1, 377153, Control_c, 0, 64, 25
1, 377167, Control_c, 0, 64, 39
1, 377182, Control_c, 0, 64, 51
1, 377197, Control_c, 0, 64, 59
1, 377212, Control_c, 0, 64, 62
1, 377227, Control_c, 0, 64, 64
1, 377241, Control_c, 0, 64, 65
1, 377256, Control_c, 0, 64, 67
1, 377271, Control_c, 0, 64, 69
1, 377271, Control_c, 0, 67, 19
1, 377286, Control_c, 0, 64, 72
1, 377301, Control_c, 0, 64, 76
1, 377315, Control_c, 0, 64, 81
1, 377330, Control_c, 0, 64, 87
1, 377345, Control_c, 0, 64, 95
1, 377351, Note_off_c, 0, 66, 54
1, 377361, Control_c, 0, 64, 104
1, 377376, Control_c, 0, 64, 122
1, 377390, Control_c, 0, 64, 127
1, 377447, Note_off_c, 0, 44, 25
1, 377509, Control_c, 0, 67, 18
1, 377734, Note_on_c, 0, 66, 64
1, 377743, Note_on_c, 0, 63, 70
1, 377759, Note_on_c, 0, 48, 56
1, 377766, Note_on_c, 0, 44, 45
1, 377807, Note_off_c, 0, 62, 57
1, 377811, Control_c, 0, 64, 100
1, 377826, Control_c, 0, 64, 85
1, 377830, Note_off_c, 0, 50, 55
1, 377841, Control_c, 0, 64, 72
1, 377856, Control_c, 0, 64, 62
1, 377871, Control_c, 0, 64, 46
1, 377886, Control_c, 0, 64, 0
1, 378034, Control_c, 0, 64, 39
1, 378049, Control_c, 0, 64, 55
1, 378049, Control_c, 0, 67, 17
1, 378063, Control_c, 0, 64, 62
1, 378063, Control_c, 0, 67, 16
1, 378078, Control_c, 0, 64, 67
1, 378078, Control_c, 0, 67, 14
1, 378093, Control_c, 0, 64, 71
1, 378093, Control_c, 0, 67, 12
1, 378107, Control_c, 0, 64, 77
1, 378107, Control_c, 0, 67, 9
1, 378122, Control_c, 0, 64, 86
1, 378122, Control_c, 0, 67, 0
1, 378137, Control_c, 0, 64, 98
1, 378152, Control_c, 0, 64, 127
1, 378178, Note_off_c, 0, 66, 47
1, 378248, Note_off_c, 0, 44, 39
1, 378584, Note_on_c, 0, 67, 67
1, 378595, Note_on_c, 0, 50, 46
1, 378598, Note_on_c, 0, 43, 42
1, 378608, Note_on_c, 0, 59, 43
1, 378634, Control_c, 0, 64, 105
1, 378649, Control_c, 0, 64, 85
1, 378664, Control_c, 0, 64, 71
1, 378672, Note_off_c, 0, 48, 35
1, 378679, Control_c, 0, 64, 58
1, 378688, Note_off_c, 0, 63, 55
1, 378694, Control_c, 0, 64, 36
1, 378709, Control_c, 0, 64, 0
1, 378857, Control_c, 0, 64, 12
1, 378872, Control_c, 0, 64, 43
1, 378886, Control_c, 0, 64, 56
1, 378901, Control_c, 0, 64, 63
1, 378916, Control_c, 0, 64, 66
1, 378930, Control_c, 0, 64, 69
1, 378945, Control_c, 0, 64, 72
1, 378962, Control_c, 0, 64, 78
1, 378976, Control_c, 0, 64, 84
1, 378991, Control_c, 0, 64, 92
1, 379006, Control_c, 0, 64, 104
1, 379021, Control_c, 0, 64, 127
1, 379070, Note_off_c, 0, 43, 33
1, 379180, Note_off_c, 0, 59, 31
1, 379196, Note_off_c, 0, 67, 55
1, 379226, Note_off_c, 0, 50, 35
1, 379281, Control_c, 0, 67, 10
1, 379296, Control_c, 0, 67, 20
1, 379310, Control_c, 0, 67, 29
1, 379325, Control_c, 0, 67, 37
1, 379340, Control_c, 0, 67, 46
1, 379355, Control_c, 0, 67, 54
1, 379369, Control_c, 0, 67, 62
1, 379384, Control_c, 0, 67, 72
1, 379399, Control_c, 0, 67, 82
1, 379414, Control_c, 0, 67, 90
1, 379429, Control_c, 0, 67, 99
1, 379443, Control_c, 0, 67, 107
1, 379458, Control_c, 0, 67, 114
1, 379473, Control_c, 0, 67, 120
1, 379488, Control_c, 0, 67, 125
1, 379503, Control_c, 0, 67, 127
1, 379624, Note_on_c, 0, 68, 56
1, 379648, Note_on_c, 0, 41, 43
1, 379651, Control_c, 0, 64, 109
1, 379653, Note_on_c, 0, 59, 39
1, 379657, Note_on_c, 0, 50, 43
1, 379666, Control_c, 0, 64, 96
1, 379681, Control_c, 0, 64, 86
1, 379695, Control_c, 0, 64, 76
1, 379710, Control_c, 0, 64, 65
1, 379725, Control_c, 0, 64, 53
1, 379740, Control_c, 0, 64, 19
1, 379755, Control_c, 0, 64, 0
1, 379866, Control_c, 0, 64, 24
1, 379881, Control_c, 0, 64, 42
1, 379896, Control_c, 0, 64, 56
1, 379911, Control_c, 0, 64, 62
1, 379926, Control_c, 0, 64, 64
1, 379940, Control_c, 0, 64, 66
1, 379955, Control_c, 0, 64, 68
1, 379970, Control_c, 0, 64, 70
1, 379985, Control_c, 0, 64, 73
1, 379999, Control_c, 0, 64, 78
1, 380014, Control_c, 0, 64, 83
1, 380029, Control_c, 0, 64, 88
1, 380032, Note_off_c, 0, 41, 0
1, 380044, Control_c, 0, 64, 94
1, 380049, Note_off_c, 0, 59, 34
1, 380059, Control_c, 0, 64, 99
1, 380068, Poly_aftertouch_c, 0, 41, 127
1, 380074, Control_c, 0, 64, 105
1, 380084, Note_off_c, 0, 50, 22
1, 380089, Control_c, 0, 64, 110
1, 380104, Control_c, 0, 64, 116
1, 380119, Control_c, 0, 64, 127
1, 380136, Poly_aftertouch_c, 0, 41, 0
1, 380176, Note_off_c, 0, 68, 16
1, 380475, Note_on_c, 0, 68, 23
1, 380521, Note_on_c, 0, 59, 34
1, 380521, Note_on_c, 0, 50, 27
1, 380522, Note_on_c, 0, 41, 27
1, 380685, Note_off_c, 0, 59, 30
1, 380742, Note_off_c, 0, 68, 34
1, 380763, Note_off_c, 0, 41, 37
1, 380763, Note_off_c, 0, 50, 32
1, 381275, Note_on_c, 0, 68, 38
1, 381292, Note_on_c, 0, 59, 24
1, 381297, Note_on_c, 0, 50, 20
1, 381308, Note_on_c, 0, 41, 22
1, 381499, Note_off_c, 0, 59, 37
1, 381563, Note_off_c, 0, 68, 31
1, 381605, Note_off_c, 0, 50, 21
1, 381726, Note_off_c, 0, 41, 33
1, 382062, Note_on_c, 0, 65, 43
1, 382079, Note_on_c, 0, 50, 20
1, 382086, Note_on_c, 0, 59, 39
1, 382089, Control_c, 0, 64, 101
1, 382109, Note_on_c, 0, 44, 29
1, 382110, Control_c, 0, 64, 87
1, 382125, Control_c, 0, 64, 74
1, 382140, Control_c, 0, 64, 65
1, 382156, Control_c, 0, 64, 53
1, 382171, Control_c, 0, 64, 32
1, 382186, Control_c, 0, 64, 13
1, 382215, Control_c, 0, 64, 14
1, 382230, Control_c, 0, 64, 21
1, 382245, Control_c, 0, 64, 28
1, 382259, Control_c, 0, 64, 39
1, 382274, Control_c, 0, 64, 51
1, 382289, Control_c, 0, 64, 59
1, 382304, Control_c, 0, 64, 63
1, 382319, Control_c, 0, 64, 66
1, 382334, Control_c, 0, 64, 69
1, 382348, Control_c, 0, 64, 72
1, 382363, Control_c, 0, 64, 76
1, 382378, Control_c, 0, 64, 81
1, 382387, Note_off_c, 0, 65, 31
1, 382393, Control_c, 0, 64, 87
1, 382395, Note_off_c, 0, 44, 40
1, 382408, Control_c, 0, 64, 97
1, 382417, Note_off_c, 0, 59, 33
1, 382423, Control_c, 0, 64, 111
1, 382438, Control_c, 0, 64, 127
1, 382541, Note_off_c, 0, 50, 17
1, 382883, Note_on_c, 0, 67, 39
1, 382889, Control_c, 0, 64, 115
1, 382899, Note_on_c, 0, 43, 33
1, 382903, Note_on_c, 0, 50, 25
1, 382903, Note_on_c, 0, 59, 35
1, 382905, Control_c, 0, 64, 99
1, 382920, Control_c, 0, 64, 85
1, 382934, Control_c, 0, 64, 72
1, 382949, Control_c, 0, 64, 62
1, 382965, Control_c, 0, 64, 45
1, 382980, Control_c, 0, 64, 33
1, 383010, Control_c, 0, 64, 34
1, 383025, Control_c, 0, 64, 36
1, 383039, Control_c, 0, 64, 39
1, 383054, Control_c, 0, 64, 45
1, 383069, Control_c, 0, 64, 53
1, 383083, Control_c, 0, 64, 59
1, 383098, Control_c, 0, 64, 62
1, 383113, Control_c, 0, 64, 64
1, 383128, Control_c, 0, 64, 66
1, 383143, Control_c, 0, 64, 68
1, 383157, Control_c, 0, 64, 71
1, 383172, Control_c, 0, 64, 74
1, 383176, Note_off_c, 0, 59, 38
1, 383187, Control_c, 0, 64, 78
1, 383192, Note_off_c, 0, 67, 31
1, 383202, Control_c, 0, 64, 82
1, 383217, Control_c, 0, 64, 88
1, 383231, Note_off_c, 0, 43, 36
1, 383231, Control_c, 0, 64, 95
1, 383233, Note_off_c, 0, 50, 41
1, 383246, Control_c, 0, 64, 105
1, 383261, Control_c, 0, 64, 119
1, 383275, Control_c, 0, 64, 127
1, 383702, Note_on_c, 0, 67, 46
1, 383713, Control_c, 0, 64, 106
1, 383720, Note_on_c, 0, 60, 40
1, 383726, Note_on_c, 0, 48, 35
1, 383726, Note_on_c, 0, 51, 37
1, 383728, Control_c, 0, 64, 94
1, 383743, Control_c, 0, 64, 84
1, 383758, Control_c, 0, 64, 74
1, 383773, Control_c, 0, 64, 65
1, 383788, Control_c, 0, 64, 56
1, 383803, Control_c, 0, 64, 44
1, 383818, Control_c, 0, 64, 41
1, 383862, Control_c, 0, 64, 42
1, 383877, Control_c, 0, 64, 44
1, 383892, Control_c, 0, 64, 47
1, 383906, Control_c, 0, 64, 53
1, 383921, Control_c, 0, 64, 57
1, 383936, Control_c, 0, 64, 60
1, 383951, Control_c, 0, 64, 62
1, 383966, Control_c, 0, 64, 64
1, 383980, Control_c, 0, 64, 66
1, 383995, Control_c, 0, 64, 68
1, 384010, Control_c, 0, 64, 70
1, 384024, Control_c, 0, 64, 73
1, 384039, Control_c, 0, 64, 78
1, 384054, Control_c, 0, 64, 83
1, 384069, Control_c, 0, 64, 88
1, 384084, Control_c, 0, 64, 94
1, 384095, Note_off_c, 0, 51, 42
1, 384098, Control_c, 0, 64, 99
1, 384113, Control_c, 0, 64, 104
1, 384123, Note_off_c, 0, 67, 25
1, 384128, Control_c, 0, 64, 109
1, 384143, Control_c, 0, 64, 115
1, 384158, Control_c, 0, 64, 127
1, 384159, Note_off_c, 0, 60, 16
1, 384298, Note_off_c, 0, 48, 35
1, 384581, Control_c, 0, 64, 117
1, 384595, Control_c, 0, 64, 109
1, 384610, Control_c, 0, 64, 101
1, 384611, Note_on_c, 0, 67, 37
1, 384625, Control_c, 0, 64, 92
1, 384633, Note_on_c, 0, 50, 34
1, 384638, Note_on_c, 0, 59, 28
1, 384640, Control_c, 0, 64, 81
1, 384643, Note_on_c, 0, 43, 26
1, 384654, Control_c, 0, 64, 72
1, 384669, Control_c, 0, 64, 63
1, 384684, Control_c, 0, 64, 52
1, 384699, Control_c, 0, 64, 40
1, 384714, Control_c, 0, 64, 38
1, 384728, Control_c, 0, 64, 38
1, 384743, Control_c, 0, 64, 40
1, 384758, Control_c, 0, 64, 42
1, 384773, Control_c, 0, 64, 46
1, 384788, Control_c, 0, 64, 51
1, 384802, Control_c, 0, 64, 56
1, 384817, Control_c, 0, 64, 60
1, 384832, Control_c, 0, 64, 62
1, 384846, Control_c, 0, 64, 64
1, 384861, Control_c, 0, 64, 65
1, 384876, Control_c, 0, 64, 67
1, 384891, Control_c, 0, 64, 69
1, 384906, Control_c, 0, 64, 71
1, 384921, Control_c, 0, 64, 75
1, 384923, Note_off_c, 0, 59, 37
1, 384936, Control_c, 0, 64, 78
1, 384938, Note_off_c, 0, 67, 29
1, 384951, Control_c, 0, 64, 82
1, 384957, Note_off_c, 0, 50, 34
1, 384960, Note_off_c, 0, 43, 33
1, 384966, Control_c, 0, 64, 86
1, 384981, Control_c, 0, 64, 90
1, 384995, Control_c, 0, 64, 95
1, 385010, Control_c, 0, 64, 100
1, 385025, Control_c, 0, 64, 105
1, 385040, Control_c, 0, 64, 110
1, 385054, Control_c, 0, 64, 117
1, 385069, Control_c, 0, 64, 127
1, 385648, Note_on_c, 0, 67, 37
1, 385654, Note_on_c, 0, 60, 36
1, 385655, Control_c, 0, 64, 116
1, 385669, Control_c, 0, 64, 105
1, 385672, Note_on_c, 0, 36, 29
1, 385678, Note_on_c, 0, 48, 31
1, 385684, Control_c, 0, 64, 97
1, 385699, Control_c, 0, 64, 89
1, 385714, Control_c, 0, 64, 81
1, 385729, Control_c, 0, 64, 74
1, 385744, Control_c, 0, 64, 68
1, 385759, Control_c, 0, 64, 62
1, 385773, Control_c, 0, 64, 55
1, 385788, Control_c, 0, 64, 50
1, 385803, Control_c, 0, 64, 45
1, 385818, Control_c, 0, 64, 40
1, 385833, Control_c, 0, 64, 30
1, 385855, Control_c, 0, 64, 0
1, 385988, Control_c, 0, 64, 27
1, 386003, Control_c, 0, 64, 40
1, 386018, Control_c, 0, 64, 51
1, 386033, Control_c, 0, 64, 57
1, 386048, Control_c, 0, 64, 61
1, 386063, Control_c, 0, 64, 63
1, 386077, Control_c, 0, 64, 64
1, 386092, Control_c, 0, 64, 65
1, 386107, Control_c, 0, 64, 66
1, 386122, Control_c, 0, 64, 67
1, 386137, Control_c, 0, 64, 70
1, 386152, Control_c, 0, 64, 72
1, 386167, Control_c, 0, 64, 76
1, 386182, Control_c, 0, 64, 80
1, 386197, Control_c, 0, 64, 84
1, 386212, Control_c, 0, 64, 89
1, 386227, Control_c, 0, 64, 94
1, 386236, Note_off_c, 0, 67, 27
1, 386241, Control_c, 0, 64, 100
1, 386256, Control_c, 0, 64, 106
1, 386261, Note_off_c, 0, 36, 30
1, 386271, Note_off_c, 0, 60, 13
1, 386271, Control_c, 0, 64, 115
1, 386272, Note_off_c, 0, 48, 32
1, 386286, Control_c, 0, 64, 127
1, 386743, Note_on_c, 0, 36, 29
1, 386903, Note_on_c, 0, 39, 36
1, 387031, Note_off_c, 0, 36, 35
1, 387043, Note_on_c, 0, 43, 33
1, 387102, Note_off_c, 0, 39, 42
1, 387144, Note_on_c, 0, 48, 18
1, 387195, Note_off_c, 0, 43, 32
1, 387207, Note_off_c, 0, 48, 40
1, 387223, Note_on_c, 0, 36, 25
1, 387276, Note_on_c, 0, 39, 33
1, 387376, Note_off_c, 0, 36, 26
1, 387380, Note_on_c, 0, 43, 32
1, 387448, Note_off_c, 0, 39, 40
1, 387478, Note_on_c, 0, 48, 26
1, 387513, Note_off_c, 0, 43, 36
1, 387565, Note_off_c, 0, 48, 36
1, 387569, Note_on_c, 0, 36, 29
1, 387622, Note_on_c, 0, 72, 58
1, 387631, Note_on_c, 0, 39, 29
1, 387648, Note_on_c, 0, 60, 45
1, 387762, Note_on_c, 0, 43, 39
1, 387789, Note_off_c, 0, 36, 34
1, 387814, Note_off_c, 0, 39, 42
1, 387854, Note_off_c, 0, 43, 49
1, 387878, Note_on_c, 0, 48, 25
1, 387934, Note_off_c, 0, 48, 44
1, 387959, Note_on_c, 0, 39, 33
1, 387961, Note_on_c, 0, 36, 27
1, 388056, Note_off_c, 0, 36, 36
1, 388061, Note_on_c, 0, 43, 33
1, 388136, Note_off_c, 0, 39, 43
1, 388161, Note_on_c, 0, 48, 31
1, 388193, Note_off_c, 0, 43, 37
1, 388212, Note_off_c, 0, 48, 45
1, 388227, Note_off_c, 0, 60, 55
1, 388243, Note_on_c, 0, 36, 27
1, 388265, Note_on_c, 0, 39, 44
1, 388287, Note_off_c, 0, 72, 61
1, 388358, Note_on_c, 0, 43, 31
1, 388379, Note_off_c, 0, 39, 50
1, 388406, Note_off_c, 0, 36, 36
1, 388461, Note_on_c, 0, 48, 22
1, 388516, Note_off_c, 0, 48, 44
1, 388527, Note_off_c, 0, 43, 39
1, 388564, Note_on_c, 0, 36, 32
1, 388573, Note_on_c, 0, 39, 29
1, 388668, Note_off_c, 0, 36, 35
1, 388703, Note_off_c, 0, 39, 28
1, 388736, Poly_aftertouch_c, 0, 43, 127
1, 388748, Note_on_c, 0, 48, 30
1, 388799, Note_on_c, 0, 75, 55
1, 388803, Note_on_c, 0, 63, 49
1, 388805, Poly_aftertouch_c, 0, 43, 0
1, 388829, Note_off_c, 0, 75, 65
1, 388831, Note_off_c, 0, 63, 63
1, 388865, Note_off_c, 0, 48, 36
1, 388893, Note_on_c, 0, 74, 56
1, 388894, Control_c, 0, 64, 107
1, 388904, Note_on_c, 0, 62, 41
1, 388909, Control_c, 0, 64, 86
1, 388924, Control_c, 0, 64, 68
1, 388930, Note_on_c, 0, 36, 33
1, 388939, Control_c, 0, 64, 52
1, 388954, Control_c, 0, 64, 0
1, 388988, Note_on_c, 0, 38, 20
1, 389035, Note_on_c, 0, 41, 37
1, 389043, Control_c, 0, 64, 22
1, 389058, Control_c, 0, 64, 47
1, 389073, Control_c, 0, 64, 60
1, 389088, Control_c, 0, 64, 65
1, 389102, Control_c, 0, 64, 69
1, 389117, Control_c, 0, 64, 75
1, 389127, Note_on_c, 0, 43, 32
1, 389132, Control_c, 0, 64, 81
1, 389139, Note_off_c, 0, 38, 35
1, 389147, Control_c, 0, 64, 88
1, 389154, Note_off_c, 0, 36, 32
1, 389161, Control_c, 0, 64, 95
1, 389176, Control_c, 0, 64, 103
1, 389191, Control_c, 0, 64, 112
1, 389194, Note_on_c, 0, 47, 28
1, 389199, Note_off_c, 0, 41, 31
1, 389206, Control_c, 0, 64, 127
1, 389246, Note_on_c, 0, 36, 13
1, 389247, Note_off_c, 0, 47, 45
1, 389252, Note_off_c, 0, 43, 37
1, 389291, Note_on_c, 0, 38, 35
1, 389337, Note_on_c, 0, 41, 39
1, 389431, Note_on_c, 0, 43, 23
1, 389441, Note_off_c, 0, 38, 33
1, 389457, Note_off_c, 0, 41, 55
1, 389503, Note_on_c, 0, 47, 23
1, 389512, Note_off_c, 0, 36, 0
1, 389529, Note_off_c, 0, 43, 36
1, 389550, Poly_aftertouch_c, 0, 36, 127
1, 389553, Note_off_c, 0, 47, 45
1, 389576, Note_on_c, 0, 67, 60
1, 389584, Note_on_c, 0, 38, 31
1, 389614, Control_c, 0, 64, 100
1, 389629, Control_c, 0, 64, 82
1, 389642, Note_on_c, 0, 41, 43
1, 389644, Control_c, 0, 64, 69
1, 389659, Control_c, 0, 64, 61
1, 389673, Control_c, 0, 64, 53
1, 389688, Control_c, 0, 64, 55
1, 389703, Control_c, 0, 64, 57
1, 389717, Control_c, 0, 64, 61
1, 389732, Control_c, 0, 64, 64
1, 389735, Note_on_c, 0, 43, 28
1, 389747, Control_c, 0, 64, 66
1, 389752, Note_off_c, 0, 38, 42
1, 389762, Control_c, 0, 64, 70
1, 389777, Control_c, 0, 64, 73
1, 389792, Control_c, 0, 64, 77
1, 389797, Note_on_c, 0, 47, 26
1, 389807, Control_c, 0, 64, 82
1, 389822, Control_c, 0, 64, 88
1, 389823, Note_off_c, 0, 41, 39
1, 389825, Poly_aftertouch_c, 0, 36, 0
1, 389836, Control_c, 0, 64, 93
1, 389847, Note_on_c, 0, 36, 13
1, 389848, Note_off_c, 0, 43, 33
1, 389851, Control_c, 0, 64, 100
1, 389859, Note_off_c, 0, 47, 40
1, 389866, Control_c, 0, 64, 107
1, 389881, Control_c, 0, 64, 113
1, 389896, Control_c, 0, 64, 117
1, 389904, Note_on_c, 0, 38, 38
1, 389911, Control_c, 0, 64, 125
1, 389925, Control_c, 0, 64, 127
1, 389943, Note_on_c, 0, 41, 36
1, 389971, Note_off_c, 0, 62, 38
1, 390035, Note_on_c, 0, 43, 34
1, 390048, Note_off_c, 0, 38, 33
1, 390074, Note_off_c, 0, 41, 54
1, 390100, Note_on_c, 0, 47, 22
1, 390102, Note_off_c, 0, 36, 0
1, 390108, Note_off_c, 0, 43, 49
1, 390123, Note_off_c, 0, 67, 47
1, 390129, Note_on_c, 0, 36, 6
1, 390157, Note_off_c, 0, 47, 43
1, 390188, Note_on_c, 0, 38, 29
1, 390204, Note_off_c, 0, 74, 42
1, 390242, Note_on_c, 0, 41, 41
1, 390323, Note_on_c, 0, 43, 32
1, 390325, Note_off_c, 0, 38, 35
1, 390367, Note_off_c, 0, 36, 30
1, 390382, Note_off_c, 0, 41, 53
1, 390400, Note_on_c, 0, 47, 22
1, 390425, Note_off_c, 0, 43, 37
1, 390447, Note_off_c, 0, 47, 47
1, 390448, Note_on_c, 0, 36, 15
1, 390489, Note_on_c, 0, 38, 36
1, 390519, Note_on_c, 0, 41, 17
1, 390523, Note_on_c, 0, 67, 56
1, 390535, Note_off_c, 0, 38, 56
1, 390557, Note_off_c, 0, 67, 65
1, 390573, Note_on_c, 0, 69, 62
1, 390575, Note_off_c, 0, 41, 49
1, 390596, Note_on_c, 0, 43, 30
1, 390600, Note_off_c, 0, 36, 32
1, 390606, Note_off_c, 0, 69, 65
1, 390623, Note_on_c, 0, 71, 68
1, 390640, Note_off_c, 0, 43, 50
1, 390652, Note_off_c, 0, 71, 68
1, 390689, Note_on_c, 0, 72, 69
1, 390689, Poly_aftertouch_c, 0, 47, 0
1, 390730, Note_off_c, 0, 72, 62
1, 390737, Note_on_c, 0, 74, 74
1, 390777, Note_on_c, 0, 36, 43
1, 390778, Control_c, 0, 64, 101
1, 390793, Control_c, 0, 64, 81
1, 390807, Note_off_c, 0, 74, 60
1, 390808, Control_c, 0, 64, 66
1, 390809, Note_on_c, 0, 76, 77
1, 390823, Control_c, 0, 64, 46
1, 390838, Control_c, 0, 64, 0
1, 390880, Note_on_c, 0, 40, 34
1, 390927, Control_c, 0, 64, 13
1, 390942, Control_c, 0, 64, 46
1, 390957, Note_off_c, 0, 40, 55
1, 390957, Control_c, 0, 64, 60
1, 390963, Note_off_c, 0, 36, 42
1, 390968, Note_on_c, 0, 43, 33
1, 390972, Control_c, 0, 64, 66
1, 390987, Control_c, 0, 64, 71
1, 391002, Control_c, 0, 64, 77
1, 391017, Control_c, 0, 64, 85
1, 391020, Note_off_c, 0, 76, 61
1, 391023, Note_on_c, 0, 46, 44
1, 391025, Note_off_c, 0, 43, 57
1, 391031, Control_c, 0, 64, 94
1, 391046, Control_c, 0, 64, 106
1, 391061, Control_c, 0, 64, 127
1, 391099, Note_off_c, 0, 46, 53
1, 391132, Note_on_c, 0, 36, 34
1, 391148, Note_on_c, 0, 40, 39
1, 391197, Note_off_c, 0, 36, 39
1, 391199, Note_on_c, 0, 43, 41
1, 391240, Note_off_c, 0, 40, 53
1, 391246, Note_off_c, 0, 43, 61
1, 391276, Note_on_c, 0, 46, 49
1, 391317, Note_off_c, 0, 46, 61
1, 391431, Note_on_c, 0, 36, 32
1, 391481, Note_on_c, 0, 76, 68
1, 391492, Note_on_c, 0, 40, 23
1, 391500, Note_on_c, 0, 64, 54
1, 391568, Note_on_c, 0, 43, 34
1, 391600, Note_off_c, 0, 36, 37
1, 391664, Note_off_c, 0, 40, 43
1, 391676, Note_off_c, 0, 43, 52
1, 391695, Poly_aftertouch_c, 0, 46, 127
1, 391700, Note_on_c, 0, 48, 44
1, 391740, Poly_aftertouch_c, 0, 46, 0
1, 391756, Note_on_c, 0, 36, 38
1, 391760, Note_off_c, 0, 48, 53
1, 391804, Note_on_c, 0, 40, 40
1, 391865, Note_on_c, 0, 43, 41
1, 391931, Note_off_c, 0, 36, 33
1, 391945, Note_off_c, 0, 40, 35
1, 391998, Note_off_c, 0, 43, 35
1, 392001, Note_on_c, 0, 48, 35
1, 392056, Note_on_c, 0, 36, 33
1, 392066, Note_off_c, 0, 64, 42
1, 392067, Note_off_c, 0, 48, 43
1, 392115, Note_on_c, 0, 40, 33
1, 392128, Note_off_c, 0, 76, 59
1, 392172, Note_on_c, 0, 43, 34
1, 392229, Note_off_c, 0, 36, 37
1, 392235, Note_on_c, 0, 46, 35
1, 392248, Note_off_c, 0, 40, 35
1, 392288, Note_off_c, 0, 43, 53
1, 392310, Note_off_c, 0, 46, 54
1, 392312, Note_on_c, 0, 48, 39
1, 392382, Note_on_c, 0, 36, 42
1, 392411, Note_on_c, 0, 40, 37
1, 392414, Note_off_c, 0, 48, 37
1, 392469, Note_on_c, 0, 43, 34
1, 392506, Note_off_c, 0, 36, 32
1, 392516, Note_on_c, 0, 46, 45
1, 392521, Note_off_c, 0, 40, 37
1, 392534, Note_off_c, 0, 43, 57
1, 392594, Note_off_c, 0, 46, 55
1, 392608, Note_on_c, 0, 48, 43
1, 392623, Note_on_c, 0, 79, 58
1, 392630, Note_on_c, 0, 67, 50
1, 392650, Note_off_c, 0, 79, 66
1, 392652, Note_off_c, 0, 67, 61
1, 392692, Note_off_c, 0, 48, 48
1, 392713, Control_c, 0, 64, 96
1, 392723, Note_on_c, 0, 77, 70
1, 392725, Note_on_c, 0, 65, 61
1, 392728, Control_c, 0, 64, 77
1, 392742, Control_c, 0, 64, 60
1, 392757, Control_c, 0, 64, 0
1, 392762, Note_on_c, 0, 36, 38
1, 392844, Note_on_c, 0, 41, 40
1, 392860, Control_c, 0, 64, 19
1, 392875, Control_c, 0, 64, 46
1, 392890, Control_c, 0, 64, 58
1, 392902, Note_off_c, 0, 36, 54
1, 392905, Control_c, 0, 64, 63
1, 392916, Note_on_c, 0, 45, 38
1, 392920, Control_c, 0, 64, 66
1, 392934, Control_c, 0, 64, 69
1, 392949, Control_c, 0, 64, 72
1, 392964, Control_c, 0, 64, 76
1, 392979, Control_c, 0, 64, 79
1, 392994, Control_c, 0, 64, 83
1, 393008, Control_c, 0, 64, 86
1, 393011, Note_off_c, 0, 45, 52
1, 393023, Control_c, 0, 64, 89
1, 393038, Control_c, 0, 64, 90
1, 393044, Note_off_c, 0, 41, 38
1, 393044, Note_on_c, 0, 48, 7
1, 393053, Control_c, 0, 64, 91
1, 393068, Control_c, 0, 64, 92
1, 393071, Note_on_c, 0, 36, 44
1, 393083, Control_c, 0, 64, 93
1, 393098, Control_c, 0, 64, 94
1, 393098, Note_off_c, 0, 48, 48
1, 393112, Control_c, 0, 64, 97
1, 393122, Note_off_c, 0, 65, 34
1, 393127, Control_c, 0, 64, 99
1, 393133, Note_on_c, 0, 41, 38
1, 393142, Control_c, 0, 64, 101
1, 393157, Control_c, 0, 64, 105
1, 393166, Note_off_c, 0, 36, 43
1, 393172, Control_c, 0, 64, 109
1, 393187, Control_c, 0, 64, 115
1, 393192, Note_on_c, 0, 45, 39
1, 393202, Control_c, 0, 64, 122
1, 393216, Control_c, 0, 64, 127
1, 393254, Note_on_c, 0, 48, 30
1, 393290, Note_off_c, 0, 41, 33
1, 393291, Note_off_c, 0, 45, 48
1, 393325, Note_off_c, 0, 48, 47
1, 393357, Note_on_c, 0, 65, 57
1, 393360, Note_on_c, 0, 36, 42
1, 393452, Note_on_c, 0, 41, 27
1, 393476, Note_on_c, 0, 45, 39
1, 393510, Note_off_c, 0, 36, 32
1, 393583, Note_off_c, 0, 41, 35
1, 393602, Poly_aftertouch_c, 0, 48, 127
1, 393622, Note_off_c, 0, 45, 34
1, 393634, Note_on_c, 0, 36, 39
1, 393641, Poly_aftertouch_c, 0, 48, 0
1, 393690, Note_on_c, 0, 41, 39
1, 393728, Note_off_c, 0, 36, 53
1, 393777, Note_on_c, 0, 45, 34
1, 393797, Note_off_c, 0, 41, 52
1, 393810, Note_on_c, 0, 48, 17
1, 393822, Note_off_c, 0, 65, 38
1, 393828, Note_off_c, 0, 45, 55
1, 393868, Note_off_c, 0, 48, 44
1, 393900, Note_on_c, 0, 36, 38
1, 393930, Note_on_c, 0, 41, 40
1, 393965, Note_off_c, 0, 36, 52
1, 393970, Note_off_c, 0, 77, 57
1, 394010, Note_on_c, 0, 45, 40
1, 394048, Note_off_c, 0, 41, 54
1, 394094, Note_on_c, 0, 48, 14
1, 394099, Note_off_c, 0, 45, 52
1, 394105, Control_c, 0, 67, 125
1, 394120, Control_c, 0, 67, 108
1, 394126, Note_on_c, 0, 36, 43
1, 394136, Control_c, 0, 67, 89
1, 394142, Note_off_c, 0, 48, 50
1, 394152, Control_c, 0, 67, 71
1, 394163, Note_on_c, 0, 41, 44
1, 394167, Control_c, 0, 67, 54
1, 394182, Control_c, 0, 67, 37
1, 394196, Control_c, 0, 67, 22
1, 394211, Control_c, 0, 67, 11
1, 394218, Note_on_c, 0, 72, 58
1, 394226, Control_c, 0, 67, 0
1, 394252, Note_off_c, 0, 41, 62
1, 394260, Note_on_c, 0, 74, 67
1, 394260, Note_off_c, 0, 72, 59
1, 394274, Note_on_c, 0, 45, 26
1, 394291, Note_off_c, 0, 36, 35
1, 394312, Note_on_c, 0, 48, 40
1, 394312, Note_on_c, 0, 76, 71
1, 394319, Note_off_c, 0, 45, 50
1, 394361, Note_off_c, 0, 74, 60
1, 394373, Note_on_c, 0, 77, 71
1, 394401, Note_off_c, 0, 76, 62
1, 394448, Note_on_c, 0, 78, 81
1, 394463, Control_c, 0, 64, 122
1, 394465, Note_on_c, 0, 66, 56
1, 394473, Note_on_c, 0, 36, 49
1, 394478, Control_c, 0, 64, 89
1, 394481, Note_off_c, 0, 77, 60
1, 394484, Note_off_c, 0, 48, 43
1, 394493, Control_c, 0, 64, 71
1, 394507, Control_c, 0, 64, 49
1, 394522, Control_c, 0, 64, 0
1, 394537, Note_on_c, 0, 39, 38
1, 394591, Note_on_c, 0, 42, 46
1, 394611, Control_c, 0, 64, 42
1, 394626, Control_c, 0, 64, 57
1, 394629, Note_on_c, 0, 45, 36
1, 394641, Control_c, 0, 64, 64
1, 394642, Note_off_c, 0, 36, 35
1, 394655, Control_c, 0, 64, 68
1, 394665, Note_off_c, 0, 39, 36
1, 394670, Control_c, 0, 64, 73
1, 394674, Note_off_c, 0, 42, 58
1, 394685, Control_c, 0, 64, 80
1, 394689, Note_on_c, 0, 48, 48
1, 394700, Control_c, 0, 64, 88
1, 394701, Note_off_c, 0, 45, 53
1, 394714, Control_c, 0, 64, 97
1, 394729, Control_c, 0, 64, 109
1, 394744, Control_c, 0, 64, 127
1, 394763, Note_off_c, 0, 48, 51
1, 394776, Note_on_c, 0, 36, 40
1, 394794, Note_on_c, 0, 39, 48
1, 394835, Note_off_c, 0, 66, 28
1, 394850, Note_on_c, 0, 42, 44
1, 394915, Note_on_c, 0, 45, 42
1, 394953, Note_off_c, 0, 36, 29
1, 394967, Note_off_c, 0, 42, 55
1, 394973, Note_off_c, 0, 39, 42
1, 394987, Note_on_c, 0, 48, 43
1, 395005, Note_off_c, 0, 45, 51
1, 395018, Control_c, 0, 67, 8
1, 395063, Control_c, 0, 67, 9
1, 395077, Note_off_c, 0, 48, 50
1, 395091, Note_on_c, 0, 36, 31
1, 395092, Control_c, 0, 67, 9
1, 395101, Note_on_c, 0, 66, 69
1, 395109, Note_on_c, 0, 39, 47
1, 395122, Control_c, 0, 67, 10
1, 395137, Control_c, 0, 67, 11
1, 395151, Control_c, 0, 67, 11
1, 395166, Control_c, 0, 67, 12
1, 395170, Note_on_c, 0, 42, 45
1, 395181, Control_c, 0, 67, 14
1, 395196, Control_c, 0, 67, 14
1, 395211, Control_c, 0, 67, 15
1, 395226, Control_c, 0, 67, 16
1, 395231, Note_on_c, 0, 45, 44
1, 395241, Control_c, 0, 67, 17
1, 395254, Note_off_c, 0, 36, 40
1, 395256, Control_c, 0, 67, 17
1, 395265, Note_off_c, 0, 39, 33
1, 395271, Control_c, 0, 67, 18
1, 395278, Note_off_c, 0, 42, 55
1, 395285, Control_c, 0, 67, 19
1, 395303, Note_on_c, 0, 48, 36
1, 395318, Note_off_c, 0, 45, 51
1, 395379, Note_off_c, 0, 66, 57
1, 395398, Note_on_c, 0, 36, 37
1, 395399, Note_on_c, 0, 39, 47
1, 395399, Note_off_c, 0, 48, 37
1, 395453, Note_on_c, 0, 42, 36
1, 395463, Control_c, 0, 67, 19
1, 395500, Note_on_c, 0, 45, 35
1, 395518, Note_off_c, 0, 36, 30
1, 395561, Note_off_c, 0, 39, 32
1, 395593, Note_on_c, 0, 48, 34
1, 395604, Note_off_c, 0, 45, 54
1, 395604, Control_c, 0, 67, 19
1, 395618, Control_c, 0, 67, 17
1, 395622, Note_off_c, 0, 42, 32
1, 395633, Control_c, 0, 67, 16
1, 395648, Control_c, 0, 67, 14
1, 395653, Note_off_c, 0, 48, 47
1, 395662, Control_c, 0, 67, 12
1, 395670, Note_off_c, 0, 78, 57
1, 395677, Control_c, 0, 67, 9
1, 395685, Note_on_c, 0, 39, 36
1, 395689, Note_on_c, 0, 36, 40
1, 395692, Control_c, 0, 67, 0
1, 395771, Note_on_c, 0, 42, 46
1, 395830, Note_on_c, 0, 45, 41
1, 395879, Note_off_c, 0, 36, 36
1, 395891, Note_off_c, 0, 39, 38
1, 395907, Note_on_c, 0, 48, 30
1, 395937, Note_off_c, 0, 42, 32
1, 395954, Note_off_c, 0, 48, 46
1, 395960, Note_off_c, 0, 45, 37
1, 395981, Note_on_c, 0, 39, 39
1, 395996, Note_on_c, 0, 36, 40
1, 396052, Note_on_c, 0, 42, 32
1, 396091, Note_on_c, 0, 45, 46
1, 396096, Note_on_c, 0, 72, 61
1, 396117, Note_off_c, 0, 36, 34
1, 396120, Note_off_c, 0, 42, 56
1, 396135, Note_on_c, 0, 74, 69
1, 396144, Note_off_c, 0, 45, 59
1, 396147, Note_off_c, 0, 39, 41
1, 396149, Note_off_c, 0, 72, 56
1, 396153, Note_on_c, 0, 48, 36
1, 396185, Note_on_c, 0, 75, 70
1, 396223, Note_off_c, 0, 74, 62
1, 396242, Note_on_c, 0, 78, 78
1, 396254, Note_off_c, 0, 75, 62
1, 396300, Control_c, 0, 64, 98
1, 396315, Control_c, 0, 64, 79
1, 396338, Control_c, 0, 64, 64
1, 396338, Note_on_c, 0, 79, 76
1, 396344, Note_on_c, 0, 67, 41
1, 396345, Note_off_c, 0, 48, 39
1, 396347, Note_on_c, 0, 36, 43
1, 396353, Control_c, 0, 64, 37
1, 396367, Control_c, 0, 64, 0
1, 396386, Note_off_c, 0, 78, 63
1, 396418, Note_on_c, 0, 40, 39
1, 396471, Control_c, 0, 64, 17
1, 396485, Control_c, 0, 64, 45
1, 396487, Note_on_c, 0, 43, 41
1, 396500, Control_c, 0, 64, 58
1, 396515, Control_c, 0, 64, 63
1, 396531, Control_c, 0, 64, 66
1, 396539, Note_off_c, 0, 36, 33
1, 396546, Control_c, 0, 64, 69
1, 396559, Note_on_c, 0, 46, 43
1, 396561, Control_c, 0, 64, 72
1, 396575, Control_c, 0, 64, 76
1, 396590, Control_c, 0, 64, 80
1, 396597, Note_off_c, 0, 40, 46
1, 396605, Control_c, 0, 64, 84
1, 396617, Note_off_c, 0, 43, 52
1, 396620, Control_c, 0, 64, 88
1, 396635, Control_c, 0, 64, 94
1, 396650, Control_c, 0, 64, 101
1, 396662, Note_on_c, 0, 48, 32
1, 396664, Control_c, 0, 64, 107
1, 396679, Control_c, 0, 64, 115
1, 396694, Control_c, 0, 64, 127
1, 396701, Note_off_c, 0, 46, 34
1, 396710, Note_off_c, 0, 67, 58
1, 396722, Note_on_c, 0, 36, 42
1, 396755, Note_on_c, 0, 40, 26
1, 396760, Note_off_c, 0, 79, 59
1, 396782, Control_c, 0, 67, 12
1, 396790, Note_off_c, 0, 48, 26
1, 396797, Control_c, 0, 67, 20
1, 396812, Control_c, 0, 67, 27
1, 396813, Note_on_c, 0, 43, 39
1, 396827, Control_c, 0, 67, 34
1, 396842, Control_c, 0, 67, 41
1, 396856, Control_c, 0, 67, 49
1, 396871, Control_c, 0, 67, 56
1, 396886, Control_c, 0, 67, 64
1, 396892, Note_off_c, 0, 36, 31
1, 396901, Control_c, 0, 67, 72
1, 396904, Note_on_c, 0, 46, 39
1, 396916, Control_c, 0, 67, 81
1, 396921, Note_off_c, 0, 40, 39
1, 396931, Control_c, 0, 67, 89
1, 396946, Control_c, 0, 67, 98
1, 396961, Control_c, 0, 67, 105
1, 396965, Note_off_c, 0, 43, 35
1, 396975, Control_c, 0, 67, 112
1, 396990, Control_c, 0, 67, 117
1, 396991, Note_off_c, 0, 46, 58
1, 397005, Note_on_c, 0, 48, 44
1, 397005, Control_c, 0, 67, 119
1, 397116, Control_c, 0, 67, 118
1, 397131, Control_c, 0, 67, 117
1, 397146, Control_c, 0, 67, 117
1, 397161, Control_c, 0, 67, 116
1, 397190, Control_c, 0, 67, 115
1, 397197, Note_on_c, 0, 80, 70
1, 397205, Control_c, 0, 64, 108
1, 397210, Note_on_c, 0, 68, 56
1, 397220, Control_c, 0, 64, 93
1, 397235, Control_c, 0, 64, 82
1, 397236, Note_on_c, 0, 36, 43
1, 397250, Control_c, 0, 64, 72
1, 397264, Control_c, 0, 64, 63
1, 397279, Control_c, 0, 64, 53
1, 397279, Control_c, 0, 67, 115
1, 397282, Note_off_c, 0, 48, 32
1, 397294, Control_c, 0, 64, 33
1, 397308, Control_c, 0, 64, 0
1, 397339, Control_c, 0, 67, 114
1, 397365, Note_on_c, 0, 41, 42
1, 397399, Control_c, 0, 67, 114
1, 397413, Control_c, 0, 67, 113
1, 397428, Control_c, 0, 67, 112
1, 397443, Control_c, 0, 64, 36
1, 397443, Control_c, 0, 67, 112
1, 397458, Control_c, 0, 64, 54
1, 397468, Note_off_c, 0, 36, 34
1, 397473, Control_c, 0, 64, 62
1, 397473, Control_c, 0, 67, 111
1, 397483, Note_on_c, 0, 44, 31
1, 397487, Control_c, 0, 64, 66
1, 397502, Control_c, 0, 64, 70
1, 397502, Control_c, 0, 67, 110
1, 397517, Control_c, 0, 64, 73
1, 397517, Control_c, 0, 67, 110
1, 397531, Control_c, 0, 64, 78
1, 397531, Control_c, 0, 67, 109
1, 397541, Note_off_c, 0, 41, 53
1, 397546, Control_c, 0, 64, 82
1, 397546, Control_c, 0, 67, 109
1, 397561, Control_c, 0, 64, 89
1, 397572, Note_on_c, 0, 48, 25
1, 397576, Control_c, 0, 64, 97
1, 397591, Control_c, 0, 64, 112
1, 397596, Note_off_c, 0, 44, 36
1, 397605, Control_c, 0, 64, 127
1, 397605, Control_c, 0, 67, 108
1, 397620, Control_c, 0, 67, 107
1, 397629, Note_on_c, 0, 36, 35
1, 397635, Control_c, 0, 67, 107
1, 397652, Note_off_c, 0, 48, 36
1, 397665, Control_c, 0, 67, 106
1, 397705, Note_on_c, 0, 41, 38
1, 397739, Control_c, 0, 67, 105
1, 397741, Note_off_c, 0, 36, 46
1, 397761, Note_on_c, 0, 44, 34
1, 397848, Note_on_c, 0, 48, 30
1, 397854, Note_off_c, 0, 41, 35
1, 397903, Note_off_c, 0, 44, 32
1, 397935, Note_on_c, 0, 36, 38
1, 397968, Note_off_c, 0, 48, 32
1, 398010, Note_on_c, 0, 41, 38
1, 398027, Note_on_c, 0, 44, 22
1, 398028, Control_c, 0, 67, 105
1, 398049, Note_off_c, 0, 36, 34
1, 398088, Control_c, 0, 67, 104
1, 398098, Note_off_c, 0, 41, 52
1, 398103, Control_c, 0, 67, 104
1, 398117, Control_c, 0, 67, 103
1, 398133, Control_c, 0, 67, 102
1, 398135, Note_on_c, 0, 48, 35
1, 398148, Control_c, 0, 67, 100
1, 398162, Control_c, 0, 67, 99
1, 398177, Control_c, 0, 67, 97
1, 398192, Control_c, 0, 67, 95
1, 398194, Note_off_c, 0, 44, 38
1, 398207, Control_c, 0, 67, 94
1, 398217, Note_on_c, 0, 36, 42
1, 398222, Control_c, 0, 67, 93
1, 398231, Note_off_c, 0, 48, 48
1, 398237, Control_c, 0, 67, 91
1, 398252, Control_c, 0, 67, 89
1, 398261, Note_on_c, 0, 41, 43
1, 398266, Control_c, 0, 67, 87
1, 398281, Control_c, 0, 67, 84
1, 398296, Control_c, 0, 67, 81
1, 398311, Control_c, 0, 67, 79
1, 398326, Control_c, 0, 67, 78
1, 398341, Control_c, 0, 67, 77
1, 398363, Note_on_c, 0, 44, 21
1, 398389, Note_off_c, 0, 41, 54
1, 398393, Note_off_c, 0, 36, 28
1, 398407, Note_on_c, 0, 48, 44
1, 398418, Note_off_c, 0, 44, 45
1, 398459, Control_c, 0, 64, 113
1, 398466, Note_on_c, 0, 36, 29
1, 398474, Control_c, 0, 64, 88
1, 398477, Note_off_c, 0, 48, 53
1, 398489, Control_c, 0, 64, 72
1, 398503, Control_c, 0, 64, 62
1, 398517, Note_on_c, 0, 38, 42
1, 398518, Control_c, 0, 64, 50
1, 398547, Control_c, 0, 64, 54
1, 398562, Control_c, 0, 64, 59
1, 398582, Note_on_c, 0, 41, 40
1, 398585, Control_c, 0, 64, 62
1, 398600, Control_c, 0, 64, 65
1, 398615, Control_c, 0, 64, 68
1, 398630, Control_c, 0, 64, 71
1, 398643, Control_c, 0, 64, 75
1, 398643, Control_c, 0, 67, 77
1, 398657, Note_on_c, 0, 44, 42
1, 398658, Control_c, 0, 64, 81
1, 398673, Control_c, 0, 64, 89
1, 398673, Control_c, 0, 67, 76
1, 398682, Note_off_c, 0, 38, 33
1, 398688, Control_c, 0, 64, 99
1, 398700, Note_off_c, 0, 41, 50
1, 398702, Control_c, 0, 64, 125
1, 398716, Note_off_c, 0, 44, 53
1, 398717, Control_c, 0, 64, 127
1, 398717, Control_c, 0, 67, 76
1, 398720, Note_off_c, 0, 80, 52
1, 398724, Note_on_c, 0, 47, 42
1, 398741, Note_off_c, 0, 68, 37
1, 398753, Note_off_c, 0, 36, 0
1, 398761, Control_c, 0, 67, 75
1, 398775, Note_on_c, 0, 36, 19
1, 398782, Note_off_c, 0, 47, 53
1, 398823, Note_on_c, 0, 38, 42
1, 398836, Control_c, 0, 67, 74
1, 398853, Note_on_c, 0, 41, 42
1, 398904, Note_off_c, 0, 38, 51
1, 398913, Note_on_c, 0, 44, 49
1, 398925, Control_c, 0, 67, 76
1, 398940, Control_c, 0, 67, 76
1, 398955, Control_c, 0, 67, 77
1, 398958, Note_off_c, 0, 36, 30
1, 398970, Note_on_c, 0, 80, 64
1, 398970, Control_c, 0, 67, 79
1, 398975, Note_on_c, 0, 68, 60
1, 398985, Control_c, 0, 67, 80
1, 398991, Note_on_c, 0, 47, 48
1, 398993, Note_off_c, 0, 44, 57
1, 398997, Note_off_c, 0, 80, 69
1, 399000, Control_c, 0, 67, 81
1, 399006, Note_off_c, 0, 68, 65
1, 399015, Control_c, 0, 67, 82
1, 399028, Note_off_c, 0, 41, 39
1, 399030, Control_c, 0, 67, 82
1, 399044, Control_c, 0, 67, 84
1, 399059, Control_c, 0, 67, 84
1, 399069, Note_off_c, 0, 47, 53
1, 399074, Control_c, 0, 64, 106
1, 399074, Control_c, 0, 67, 85
1, 399075, Note_on_c, 0, 77, 68
1, 399088, Note_on_c, 0, 65, 53
1, 399089, Control_c, 0, 64, 84
1, 399089, Control_c, 0, 67, 86
1, 399101, Note_on_c, 0, 36, 43
1, 399104, Control_c, 0, 64, 68
1, 399104, Control_c, 0, 67, 86
1, 399114, Note_on_c, 0, 38, 36
1, 399119, Control_c, 0, 64, 53
1, 399119, Control_c, 0, 67, 87
1, 399133, Control_c, 0, 64, 0
1, 399148, Control_c, 0, 67, 87
1, 399161, Note_on_c, 0, 41, 44
1, 399207, Control_c, 0, 64, 30
1, 399217, Note_off_c, 0, 38, 54
1, 399222, Control_c, 0, 64, 46
1, 399222, Control_c, 0, 67, 87
1, 399234, Note_on_c, 0, 43, 41
1, 399237, Control_c, 0, 64, 57
1, 399237, Control_c, 0, 67, 86
1, 399242, Note_off_c, 0, 36, 34
1, 399251, Control_c, 0, 64, 63
1, 399259, Note_off_c, 0, 41, 56
1, 399266, Control_c, 0, 64, 66
1, 399281, Control_c, 0, 64, 68
1, 399295, Control_c, 0, 64, 70
1, 399300, Note_on_c, 0, 47, 23
1, 399301, Note_off_c, 0, 43, 56
1, 399310, Control_c, 0, 64, 72
1, 399333, Control_c, 0, 64, 75
1, 399348, Control_c, 0, 64, 77
1, 399363, Control_c, 0, 64, 79
1, 399367, Note_off_c, 0, 47, 40
1, 399377, Control_c, 0, 64, 81
1, 399378, Note_on_c, 0, 36, 32
1, 399392, Control_c, 0, 64, 82
1, 399402, Note_off_c, 0, 65, 35
1, 399407, Control_c, 0, 64, 83
1, 399408, Note_on_c, 0, 38, 29
1, 399422, Control_c, 0, 64, 84
1, 399437, Control_c, 0, 64, 86
1, 399440, Note_on_c, 0, 41, 36
1, 399451, Control_c, 0, 64, 88
1, 399451, Control_c, 0, 67, 87
1, 399466, Control_c, 0, 64, 90
1, 399481, Control_c, 0, 64, 90
1, 399496, Control_c, 0, 67, 87
1, 399510, Control_c, 0, 64, 91
1, 399523, Note_on_c, 0, 43, 45
1, 399540, Control_c, 0, 64, 91
1, 399540, Control_c, 0, 67, 88
1, 399541, Note_off_c, 0, 38, 32
1, 399550, Note_off_c, 0, 36, 40
1, 399555, Control_c, 0, 67, 89
1, 399584, Control_c, 0, 67, 89
1, 399599, Control_c, 0, 64, 91
1, 399605, Note_off_c, 0, 43, 50
1, 399607, Note_on_c, 0, 47, 41
1, 399611, Note_off_c, 0, 41, 38
1, 399614, Control_c, 0, 64, 90
1, 399629, Control_c, 0, 64, 88
1, 399629, Control_c, 0, 67, 90
1, 399644, Control_c, 0, 64, 86
1, 399650, Note_off_c, 0, 77, 38
1, 399659, Control_c, 0, 64, 85
1, 399669, Note_off_c, 0, 47, 53
1, 399670, Note_on_c, 0, 79, 62
1, 399673, Control_c, 0, 64, 82
1, 399680, Note_on_c, 0, 67, 52
1, 399688, Control_c, 0, 64, 76
1, 399689, Note_on_c, 0, 36, 41
1, 399703, Control_c, 0, 64, 67
1, 399713, Note_on_c, 0, 38, 29
1, 399718, Control_c, 0, 64, 55
1, 399734, Control_c, 0, 64, 39
1, 399748, Control_c, 0, 64, 36
1, 399756, Note_on_c, 0, 41, 41
1, 399763, Control_c, 0, 64, 39
1, 399778, Control_c, 0, 64, 43
1, 399793, Control_c, 0, 64, 49
1, 399808, Control_c, 0, 64, 55
1, 399819, Note_off_c, 0, 38, 45
1, 399822, Control_c, 0, 64, 60
1, 399822, Control_c, 0, 67, 89
1, 399825, Note_off_c, 0, 36, 34
1, 399829, Note_on_c, 0, 43, 32
1, 399837, Control_c, 0, 64, 63
1, 399837, Control_c, 0, 67, 89
1, 399852, Control_c, 0, 64, 65
1, 399861, Note_off_c, 0, 41, 53
1, 399867, Control_c, 0, 64, 66
1, 399867, Control_c, 0, 67, 88
1, 399881, Note_on_c, 0, 47, 43
1, 399882, Control_c, 0, 64, 68
1, 399882, Control_c, 0, 67, 87
1, 399887, Note_off_c, 0, 79, 57
1, 399891, Note_off_c, 0, 43, 51
1, 399897, Control_c, 0, 64, 71
1, 399897, Control_c, 0, 67, 87
1, 399912, Control_c, 0, 64, 75
1, 399927, Control_c, 0, 64, 79
1, 399927, Control_c, 0, 67, 86
1, 399942, Control_c, 0, 64, 84
1, 399947, Note_off_c, 0, 47, 50
1, 399956, Control_c, 0, 64, 90
1, 399971, Control_c, 0, 64, 95
1, 399971, Control_c, 0, 67, 86
1, 399985, Note_on_c, 0, 36, 38
1, 399986, Control_c, 0, 64, 100
1, 400000, Control_c, 0, 64, 106
1, 400003, Note_on_c, 0, 38, 25
1, 400015, Control_c, 0, 64, 114
1, 400030, Control_c, 0, 64, 127
1, 400034, Note_on_c, 0, 41, 45
1, 400061, Note_off_c, 0, 67, 53
1, 400087, Note_off_c, 0, 38, 46
1, 400124, Note_on_c, 0, 43, 35
1, 400134, Note_off_c, 0, 41, 55
1, 400151, Note_off_c, 0, 36, 32
1, 400168, Note_on_c, 0, 47, 35
1, 400243, Note_off_c, 0, 47, 48
1, 400286, Note_on_c, 0, 72, 53
1, 400288, Note_off_c, 0, 43, 22
1, 400289, Control_c, 0, 64, 95
1, 400290, Note_on_c, 0, 36, 45
1, 400304, Control_c, 0, 64, 78
1, 400319, Control_c, 0, 64, 66
1, 400319, Control_c, 0, 67, 85
1, 400333, Control_c, 0, 64, 55
1, 400333, Control_c, 0, 67, 84
1, 400348, Control_c, 0, 64, 51
1, 400363, Control_c, 0, 64, 54
1, 400371, Note_off_c, 0, 72, 62
1, 400378, Control_c, 0, 64, 58
1, 400385, Note_on_c, 0, 71, 55
1, 400390, Note_on_c, 0, 39, 38
1, 400393, Control_c, 0, 64, 61
1, 400407, Control_c, 0, 64, 64
1, 400422, Control_c, 0, 64, 66
1, 400422, Control_c, 0, 67, 83
1, 400437, Control_c, 0, 64, 68
1, 400437, Control_c, 0, 67, 82
1, 400452, Control_c, 0, 64, 70
1, 400452, Control_c, 0, 67, 82
1, 400456, Note_on_c, 0, 43, 38
1, 400467, Control_c, 0, 64, 74
1, 400467, Control_c, 0, 67, 81
1, 400469, Note_off_c, 0, 39, 49
1, 400470, Note_on_c, 0, 69, 49
1, 400481, Note_off_c, 0, 36, 35
1, 400481, Control_c, 0, 64, 79
1, 400481, Control_c, 0, 67, 81
1, 400489, Note_off_c, 0, 71, 52
1, 400496, Control_c, 0, 64, 85
1, 400496, Control_c, 0, 67, 80
1, 400511, Control_c, 0, 64, 92
1, 400511, Control_c, 0, 67, 79
1, 400523, Note_off_c, 0, 69, 58
1, 400527, Control_c, 0, 64, 100
1, 400530, Note_on_c, 0, 67, 57
1, 400542, Control_c, 0, 64, 108
1, 400542, Control_c, 0, 67, 79
1, 400547, Note_on_c, 0, 48, 36
1, 400556, Control_c, 0, 64, 112
1, 400556, Control_c, 0, 67, 78
1, 400563, Note_off_c, 0, 67, 66
1, 400579, Note_off_c, 0, 43, 36
1, 400586, Control_c, 0, 64, 113
1, 400600, Note_on_c, 0, 65, 60
1, 400601, Control_c, 0, 64, 114
1, 400616, Control_c, 0, 64, 115
1, 400630, Note_off_c, 0, 48, 55
1, 400630, Control_c, 0, 64, 115
1, 400650, Note_on_c, 0, 36, 32
1, 400663, Note_off_c, 0, 65, 52
1, 400671, Note_on_c, 0, 63, 58
1, 400675, Note_on_c, 0, 39, 35
1, 400675, Control_c, 0, 64, 116
1, 400702, Note_off_c, 0, 36, 44
1, 400705, Control_c, 0, 67, 79
1, 400725, Note_on_c, 0, 62, 63
1, 400733, Note_off_c, 0, 63, 50
1, 400735, Note_off_c, 0, 39, 45
1, 400735, Control_c, 0, 64, 115
1, 400735, Note_on_c, 0, 43, 37
1, 400749, Control_c, 0, 64, 112
1, 400749, Control_c, 0, 67, 79
1, 400764, Control_c, 0, 64, 109
1, 400764, Control_c, 0, 67, 80
1, 400779, Control_c, 0, 64, 104
1, 400782, Note_on_c, 0, 48, 41
1, 400782, Note_off_c, 0, 62, 60
1, 400794, Control_c, 0, 64, 97
1, 400801, Note_on_c, 0, 60, 66
1, 400806, Note_off_c, 0, 43, 49
1, 400809, Control_c, 0, 64, 84
1, 400830, Control_c, 0, 64, 69
1, 400845, Control_c, 0, 64, 51
1, 400850, Note_off_c, 0, 48, 51
1, 400857, Note_off_c, 0, 60, 62
1, 400860, Control_c, 0, 64, 21
1, 400872, Note_on_c, 0, 36, 38
1, 400872, Note_on_c, 0, 62, 59
1, 400875, Control_c, 0, 64, 22
1, 400890, Control_c, 0, 64, 31
1, 400905, Control_c, 0, 64, 43
1, 400905, Control_c, 0, 67, 81
1, 400913, Note_on_c, 0, 39, 22
1, 400915, Note_off_c, 0, 62, 61
1, 400919, Control_c, 0, 64, 54
1, 400934, Control_c, 0, 64, 61
1, 400939, Note_on_c, 0, 63, 59
1, 400949, Control_c, 0, 64, 65
1, 400949, Control_c, 0, 67, 79
1, 400964, Control_c, 0, 64, 68
1, 400964, Control_c, 0, 67, 79
1, 400966, Note_off_c, 0, 63, 66
1, 400979, Control_c, 0, 64, 71
1, 400979, Control_c, 0, 67, 77
1, 400984, Note_on_c, 0, 43, 36
1, 400994, Control_c, 0, 64, 75
1, 400994, Control_c, 0, 67, 76
1, 401009, Control_c, 0, 64, 79
1, 401009, Control_c, 0, 67, 74
1, 401012, Note_on_c, 0, 65, 66
1, 401019, Note_off_c, 0, 36, 33
1, 401021, Note_off_c, 0, 39, 35
1, 401023, Control_c, 0, 64, 82
1, 401023, Control_c, 0, 67, 71
1, 401038, Control_c, 0, 64, 86
1, 401038, Control_c, 0, 67, 67
1, 401042, Note_on_c, 0, 48, 42
1, 401053, Control_c, 0, 64, 89
1, 401053, Control_c, 0, 67, 41
1, 401057, Note_off_c, 0, 65, 60
1, 401068, Control_c, 0, 64, 93
1, 401068, Control_c, 0, 67, 0
1, 401077, Note_on_c, 0, 67, 61
1, 401083, Control_c, 0, 64, 97
1, 401097, Control_c, 0, 64, 100
1, 401108, Note_off_c, 0, 48, 48
1, 401112, Control_c, 0, 64, 101
1, 401124, Note_on_c, 0, 69, 65
1, 401137, Note_off_c, 0, 67, 53
1, 401142, Control_c, 0, 64, 101
1, 401149, Note_off_c, 0, 43, 36
1, 401161, Note_on_c, 0, 36, 34
1, 401161, Note_on_c, 0, 39, 54
1, 401177, Note_off_c, 0, 69, 56
1, 401191, Note_on_c, 0, 71, 67
1, 401218, Note_off_c, 0, 71, 67
1, 401226, Note_off_c, 0, 39, 53
1, 401229, Note_off_c, 0, 36, 44
1, 401260, Note_on_c, 0, 43, 26
1, 401260, Control_c, 0, 64, 102
1, 401262, Note_on_c, 0, 72, 69
1, 401289, Note_on_c, 0, 48, 36
1, 401289, Control_c, 0, 64, 102
1, 401316, Note_off_c, 0, 72, 64
1, 401322, Note_on_c, 0, 74, 67
1, 401339, Note_off_c, 0, 48, 52
1, 401367, Note_off_c, 0, 74, 60
1, 401373, Note_on_c, 0, 36, 42
1, 401376, Note_off_c, 0, 43, 36
1, 401379, Control_c, 0, 64, 103
1, 401390, Note_on_c, 0, 75, 74
1, 401394, Control_c, 0, 64, 103
1, 401396, Note_on_c, 0, 39, 41
1, 401409, Control_c, 0, 64, 104
1, 401420, Note_off_c, 0, 75, 65
1, 401447, Note_off_c, 0, 36, 54
1, 401456, Note_off_c, 0, 39, 57
1, 401457, Note_on_c, 0, 77, 77
1, 401477, Note_on_c, 0, 43, 27
1, 401510, Note_off_c, 0, 77, 63
1, 401516, Note_on_c, 0, 48, 43
1, 401519, Note_on_c, 0, 79, 69
1, 401528, Control_c, 0, 64, 103
1, 401543, Control_c, 0, 64, 103
1, 401558, Control_c, 0, 64, 102
1, 401574, Note_on_c, 0, 81, 66
1, 401579, Note_off_c, 0, 43, 45
1, 401580, Control_c, 0, 64, 101
1, 401584, Note_off_c, 0, 48, 52
1, 401595, Control_c, 0, 64, 99
1, 401597, Note_off_c, 0, 79, 64
1, 401608, Note_on_c, 0, 36, 44
1, 401610, Control_c, 0, 64, 96
1, 401625, Control_c, 0, 64, 93
1, 401637, Note_off_c, 0, 81, 60
1, 401638, Note_on_c, 0, 83, 76
1, 401639, Note_on_c, 0, 39, 43
1, 401641, Control_c, 0, 64, 84
1, 401655, Control_c, 0, 64, 72
1, 401670, Control_c, 0, 64, 61
1, 401685, Control_c, 0, 64, 39
1, 401700, Control_c, 0, 64, 33
1, 401706, Note_off_c, 0, 83, 64
1, 401707, Note_off_c, 0, 39, 57
1, 401708, Note_on_c, 0, 84, 77
1, 401709, Note_off_c, 0, 36, 50
1, 401715, Control_c, 0, 64, 38
1, 401729, Control_c, 0, 64, 46
1, 401744, Control_c, 0, 64, 55
1, 401759, Note_on_c, 0, 48, 34
1, 401759, Control_c, 0, 64, 60
1, 401773, Control_c, 0, 64, 64
1, 401784, Note_on_c, 0, 83, 69
1, 401786, Poly_aftertouch_c, 0, 43, 127
1, 401788, Control_c, 0, 64, 66
1, 401803, Control_c, 0, 64, 69
1, 401814, Note_off_c, 0, 48, 44
1, 401818, Control_c, 0, 64, 71
1, 401824, Poly_aftertouch_c, 0, 43, 0
1, 401824, Note_off_c, 0, 84, 63
1, 401828, Note_on_c, 0, 81, 69
1, 401833, Control_c, 0, 64, 75
1, 401847, Control_c, 0, 64, 79
1, 401850, Note_on_c, 0, 39, 39
1, 401855, Note_on_c, 0, 36, 34
1, 401862, Control_c, 0, 64, 87
1, 401866, Note_off_c, 0, 83, 63
1, 401877, Control_c, 0, 64, 95
1, 401888, Note_on_c, 0, 79, 65
1, 401892, Control_c, 0, 64, 106
1, 401893, Note_off_c, 0, 81, 64
1, 401903, Note_off_c, 0, 36, 49
1, 401907, Control_c, 0, 64, 122
1, 401917, Note_off_c, 0, 39, 53
1, 401921, Control_c, 0, 64, 127
1, 401929, Note_off_c, 0, 79, 63
1, 401939, Note_on_c, 0, 43, 42
1, 401950, Note_on_c, 0, 77, 65
1, 401975, Note_on_c, 0, 48, 43
1, 402001, Note_off_c, 0, 43, 50
1, 402004, Note_off_c, 0, 77, 51
1, 402015, Note_on_c, 0, 75, 66
1, 402024, Note_off_c, 0, 48, 57
1, 402068, Note_on_c, 0, 74, 66
1, 402070, Note_on_c, 0, 36, 40
1, 402070, Note_off_c, 0, 75, 57
1, 402094, Note_on_c, 0, 39, 38
1, 402125, Note_off_c, 0, 74, 63
1, 402138, Note_on_c, 0, 72, 67
1, 402155, Note_off_c, 0, 39, 55
1, 402171, Note_off_c, 0, 36, 38
1, 402174, Note_on_c, 0, 43, 46
1, 402176, Note_off_c, 0, 72, 61
1, 402188, Note_on_c, 0, 74, 63
1, 402215, Note_on_c, 0, 48, 21
1, 402223, Note_off_c, 0, 74, 60
1, 402240, Note_on_c, 0, 75, 74
1, 402245, Note_off_c, 0, 43, 53
1, 402258, Note_off_c, 0, 48, 49
1, 402264, Note_off_c, 0, 75, 67
1, 402297, Note_on_c, 0, 36, 41
1, 402302, Note_on_c, 0, 39, 40
1, 402314, Note_on_c, 0, 77, 72
1, 402369, Note_off_c, 0, 77, 62
1, 402371, Note_on_c, 0, 79, 70
1, 402384, Note_off_c, 0, 36, 40
1, 402398, Note_off_c, 0, 39, 45
1, 402410, Note_on_c, 0, 48, 44
1, 402412, Note_on_c, 0, 81, 67
1, 402421, Note_on_c, 0, 43, 29
1, 402441, Note_off_c, 0, 79, 65
1, 402468, Note_off_c, 0, 48, 52
1, 402480, Note_on_c, 0, 83, 75
1, 402484, Note_off_c, 0, 81, 60
1, 402487, Note_off_c, 0, 43, 55
1, 402523, Note_on_c, 0, 36, 48
1, 402544, Note_on_c, 0, 84, 81
1, 402544, Note_off_c, 0, 83, 64
1, 402546, Note_on_c, 0, 39, 48
1, 402591, Note_off_c, 0, 36, 54
1, 402595, Note_off_c, 0, 39, 55
1, 402607, Note_on_c, 0, 83, 76
1, 402639, Note_on_c, 0, 48, 47
1, 402642, Note_on_c, 0, 81, 74
1, 402665, Note_on_c, 0, 43, 3
1, 402669, Note_off_c, 0, 84, 60
1, 402687, Note_off_c, 0, 48, 58
1, 402690, Note_on_c, 0, 79, 75
1, 402693, Note_off_c, 0, 83, 63
1, 402705, Note_off_c, 0, 43, 51
1, 402707, Note_off_c, 0, 81, 63
1, 402721, Note_off_c, 0, 79, 61
1, 402745, Note_on_c, 0, 36, 39
1, 402747, Note_on_c, 0, 39, 33
1, 402750, Note_on_c, 0, 77, 74
1, 402797, Note_off_c, 0, 77, 54
1, 402812, Note_on_c, 0, 75, 73
1, 402812, Note_off_c, 0, 36, 47
1, 402824, Note_off_c, 0, 39, 49
1, 402826, Note_on_c, 0, 43, 37
1, 402828, Note_on_c, 0, 48, 53
1, 402846, Note_on_c, 0, 74, 69
1, 402859, Note_off_c, 0, 75, 58
1, 402882, Note_off_c, 0, 74, 63
1, 402905, Note_off_c, 0, 43, 44
1, 402914, Note_on_c, 0, 72, 71
1, 402922, Note_off_c, 0, 48, 57
1, 402967, Note_off_c, 0, 72, 63
1, 402984, Note_on_c, 0, 36, 58
1, 402984, Note_on_c, 0, 86, 86
1, 402996, Control_c, 0, 64, 95
1, 403011, Control_c, 0, 64, 73
1, 403015, Note_on_c, 0, 38, 51
1, 403025, Control_c, 0, 64, 59
1, 403037, Note_on_c, 0, 84, 73
1, 403040, Control_c, 0, 64, 33
1, 403055, Control_c, 0, 64, 30
1, 403078, Control_c, 0, 64, 38
1, 403087, Note_on_c, 0, 41, 50
1, 403093, Control_c, 0, 64, 50
1, 403093, Note_off_c, 0, 86, 61
1, 403107, Control_c, 0, 64, 59
1, 403116, Note_on_c, 0, 83, 72
1, 403122, Control_c, 0, 64, 64
1, 403135, Note_off_c, 0, 38, 58
1, 403137, Control_c, 0, 64, 67
1, 403152, Note_on_c, 0, 43, 42
1, 403152, Control_c, 0, 64, 71
1, 403155, Note_off_c, 0, 84, 61
1, 403163, Note_on_c, 0, 80, 65
1, 403167, Control_c, 0, 64, 78
1, 403168, Note_off_c, 0, 36, 42
1, 403176, Note_off_c, 0, 83, 62
1, 403181, Control_c, 0, 64, 85
1, 403185, Note_off_c, 0, 41, 54
1, 403196, Control_c, 0, 64, 93
1, 403201, Note_on_c, 0, 47, 45
1, 403204, Note_off_c, 0, 43, 56
1, 403207, Note_off_c, 0, 80, 53
1, 403211, Control_c, 0, 64, 103
1, 403218, Note_on_c, 0, 79, 67
1, 403225, Control_c, 0, 64, 119
1, 403240, Control_c, 0, 64, 127
1, 403248, Note_off_c, 0, 47, 57
1, 403275, Note_off_c, 0, 79, 61
1, 403276, Note_on_c, 0, 36, 43
1, 403279, Note_on_c, 0, 77, 76
1, 403293, Note_on_c, 0, 38, 38
1, 403330, Note_on_c, 0, 41, 49
1, 403337, Note_off_c, 0, 38, 50
1, 403341, Note_on_c, 0, 75, 73
1, 403343, Note_off_c, 0, 77, 61
1, 403361, Note_off_c, 0, 36, 50
1, 403375, Note_off_c, 0, 41, 57
1, 403376, Note_off_c, 0, 75, 59
1, 403389, Note_on_c, 0, 43, 26
1, 403400, Note_on_c, 0, 47, 42
1, 403403, Note_on_c, 0, 74, 76
1, 403432, Note_off_c, 0, 43, 50
1, 403457, Note_off_c, 0, 74, 63
1, 403464, Note_off_c, 0, 47, 56
1, 403465, Note_on_c, 0, 75, 78
1, 403481, Note_on_c, 0, 36, 45
1, 403501, Note_on_c, 0, 38, 30
1, 403513, Note_off_c, 0, 75, 61
1, 403522, Note_on_c, 0, 77, 75
1, 403539, Note_on_c, 0, 41, 43
1, 403564, Note_off_c, 0, 38, 48
1, 403568, Note_off_c, 0, 77, 65
1, 403572, Note_off_c, 0, 36, 51
1, 403581, Note_on_c, 0, 43, 35
1, 403602, Note_on_c, 0, 79, 75
1, 403614, Note_off_c, 0, 41, 55
1, 403621, Note_on_c, 0, 47, 50
1, 403647, Note_off_c, 0, 43, 55
1, 403654, Note_off_c, 0, 79, 65
1, 403659, Note_on_c, 0, 81, 75
1, 403697, Note_off_c, 0, 47, 57
1, 403706, Note_on_c, 0, 36, 39
1, 403710, Note_on_c, 0, 83, 65
1, 403725, Note_on_c, 0, 38, 44
1, 403725, Note_off_c, 0, 81, 65
1, 403750, Note_on_c, 0, 41, 45
1, 403766, Note_on_c, 0, 84, 84
1, 403775, Note_off_c, 0, 83, 60
1, 403788, Note_off_c, 0, 38, 54
1, 403796, Note_on_c, 0, 43, 44
1, 403844, Note_on_c, 0, 47, 52
1, 403851, Note_on_c, 0, 86, 85
1, 403851, Note_off_c, 0, 36, 32
1, 403853, Note_off_c, 0, 84, 65
1, 403854, Note_off_c, 0, 41, 57
1, 403885, Note_off_c, 0, 43, 54
1, 403908, Note_off_c, 0, 47, 55
1, 403909, Note_on_c, 0, 84, 79
1, 403918, Note_on_c, 0, 36, 45
1, 403942, Note_on_c, 0, 38, 43
1, 403962, Note_on_c, 0, 83, 79
1, 403972, Note_on_c, 0, 41, 38
1, 403983, Note_off_c, 0, 86, 54
1, 404004, Note_off_c, 0, 38, 57
1, 404012, Note_off_c, 0, 84, 64
1, 404014, Note_on_c, 0, 80, 76
1, 404023, Note_off_c, 0, 36, 53
1, 404026, Note_off_c, 0, 83, 62
1, 404041, Note_on_c, 0, 47, 51
1, 404059, Note_on_c, 0, 79, 70
1, 404061, Note_off_c, 0, 80, 62
1, 404079, Note_off_c, 0, 41, 35
1, 404097, Poly_aftertouch_c, 0, 43, 127
1, 404107, Note_off_c, 0, 79, 55
1, 404117, Note_off_c, 0, 47, 47
1, 404124, Note_on_c, 0, 77, 79
1, 404125, Note_on_c, 0, 36, 49
1, 404169, Note_on_c, 0, 75, 78
1, 404175, Note_off_c, 0, 77, 63
1, 404206, Note_off_c, 0, 75, 62
1, 404216, Note_off_c, 0, 36, 58
1, 404222, Note_on_c, 0, 74, 79
1, 404273, Note_off_c, 0, 74, 64
1, 404299, Note_on_c, 0, 88, 90
1, 404301, Control_c, 0, 64, 95
1, 404315, Control_c, 0, 64, 70
1, 404321, Note_on_c, 0, 36, 63
1, 404325, Poly_aftertouch_c, 0, 43, 0
1, 404330, Control_c, 0, 64, 49
1, 404345, Control_c, 0, 64, 0
1, 404358, Note_on_c, 0, 86, 78
1, 404374, Note_on_c, 0, 40, 56
1, 404374, Control_c, 0, 64, 12
1, 404389, Control_c, 0, 64, 50
1, 404404, Control_c, 0, 64, 64
1, 404408, Note_off_c, 0, 88, 64
1, 404419, Control_c, 0, 64, 72
1, 404431, Note_on_c, 0, 84, 78
1, 404432, Note_off_c, 0, 36, 53
1, 404434, Control_c, 0, 64, 88
1, 404440, Note_on_c, 0, 43, 53
1, 404449, Control_c, 0, 64, 127
1, 404457, Note_off_c, 0, 40, 60
1, 404476, Note_off_c, 0, 86, 62
1, 404482, Note_on_c, 0, 82, 76
1, 404491, Note_on_c, 0, 46, 53
1, 404507, Note_off_c, 0, 84, 63
1, 404515, Note_off_c, 0, 43, 60
1, 404542, Note_off_c, 0, 82, 64
1, 404553, Note_on_c, 0, 81, 71
1, 404575, Note_off_c, 0, 46, 61
1, 404587, Note_on_c, 0, 36, 55
1, 404607, Note_off_c, 0, 81, 58
1, 404620, Note_on_c, 0, 79, 78
1, 404633, Note_on_c, 0, 40, 46
1, 404674, Note_on_c, 0, 77, 78
1, 404680, Note_off_c, 0, 79, 63
1, 404681, Note_off_c, 0, 36, 57
1, 404687, Note_off_c, 0, 40, 60
1, 404705, Note_on_c, 0, 46, 52
1, 404729, Note_off_c, 0, 77, 64
1, 404733, Note_on_c, 0, 76, 78
1, 404750, Note_off_c, 0, 46, 62
1, 404785, Note_on_c, 0, 36, 64
1, 404792, Note_off_c, 0, 76, 66
1, 404795, Note_on_c, 0, 77, 78
1, 404833, Note_on_c, 0, 79, 73
1, 404849, Note_off_c, 0, 77, 60
1, 404853, Note_on_c, 0, 40, 57
1, 404899, Note_on_c, 0, 81, 71
1, 404908, Note_off_c, 0, 79, 66
1, 404935, Note_on_c, 0, 43, 56
1, 404939, Note_off_c, 0, 40, 61
1, 404959, Note_off_c, 0, 81, 66
1, 404960, Note_on_c, 0, 82, 81
1, 404971, Note_off_c, 0, 36, 30
1, 404984, Note_off_c, 0, 82, 68
1, 405009, Note_on_c, 0, 46, 53
1, 405009, Note_off_c, 0, 43, 61
1, 405044, Note_on_c, 0, 84, 77
1, 405051, Note_off_c, 0, 46, 59
1, 405051, Note_on_c, 0, 86, 70
1, 405090, Note_on_c, 0, 36, 62
1, 405090, Note_off_c, 0, 84, 64
1, 405146, Note_on_c, 0, 40, 45
1, 405150, Note_off_c, 0, 86, 60
1, 405153, Note_on_c, 0, 88, 84
1, 405161, Note_off_c, 0, 36, 56
1, 405167, Note_on_c, 0, 43, 58
1, 405185, Note_off_c, 0, 40, 62
1, 405203, Note_off_c, 0, 88, 58
1, 405212, Note_on_c, 0, 46, 48
1, 405212, Note_on_c, 0, 86, 89
1, 405257, Note_off_c, 0, 86, 65
1, 405265, Note_off_c, 0, 46, 58
1, 405279, Note_on_c, 0, 84, 70
1, 405287, Note_on_c, 0, 36, 65
1, 405340, Note_off_c, 0, 43, 0
1, 405345, Note_on_c, 0, 82, 82
1, 405354, Poly_aftertouch_c, 0, 40, 127
1, 405356, Note_on_c, 0, 43, 37
1, 405356, Note_off_c, 0, 84, 62
1, 405358, Note_on_c, 0, 40, 2
1, 405390, Note_off_c, 0, 36, 54
1, 405391, Note_on_c, 0, 46, 59
1, 405393, Note_on_c, 0, 81, 71
1, 405447, Note_on_c, 0, 79, 84
1, 405468, Note_off_c, 0, 81, 65
1, 405469, Note_off_c, 0, 82, 61
1, 405489, Note_off_c, 0, 46, 53
1, 405510, Note_on_c, 0, 36, 63
1, 405510, Note_off_c, 0, 79, 64
1, 405516, Note_off_c, 0, 40, 26
1, 405537, Note_on_c, 0, 76, 75
1, 405567, Note_off_c, 0, 36, 59
1, 405573, Note_on_c, 0, 46, 46
1, 405576, Note_on_c, 0, 77, 8
1, 405588, Note_off_c, 0, 76, 63
1, 405597, Note_off_c, 0, 43, 39
1, 405605, Note_off_c, 0, 46, 65
1, 405623, Note_off_c, 0, 77, 28
1, 405626, Note_on_c, 0, 89, 100
1, 405636, Control_c, 0, 64, 78
1, 405643, Note_on_c, 0, 36, 70
1, 405651, Control_c, 0, 64, 54
1, 405666, Control_c, 0, 64, 0
1, 405699, Note_on_c, 0, 88, 73
1, 405701, Note_on_c, 0, 41, 66
1, 405725, Control_c, 0, 64, 47
1, 405732, Note_off_c, 0, 36, 54
1, 405740, Control_c, 0, 64, 62
1, 405750, Note_off_c, 0, 89, 63
1, 405755, Control_c, 0, 64, 69
1, 405769, Control_c, 0, 64, 78
1, 405771, Note_on_c, 0, 86, 78
1, 405773, Note_on_c, 0, 45, 52
1, 405784, Control_c, 0, 64, 102
1, 405799, Control_c, 0, 64, 127
1, 405808, Note_off_c, 0, 88, 65
1, 405834, Note_on_c, 0, 48, 59
1, 405837, Note_on_c, 0, 84, 74
1, 405837, Note_off_c, 0, 86, 66
1, 405879, Note_off_c, 0, 84, 61
1, 405884, Note_off_c, 0, 45, 52
1, 405889, Note_off_c, 0, 41, 28
1, 405898, Note_off_c, 0, 48, 60
1, 405907, Note_on_c, 0, 36, 59
1, 405913, Note_on_c, 0, 82, 83
1, 405964, Note_on_c, 0, 41, 44
1, 405973, Note_on_c, 0, 81, 78
1, 406002, Note_off_c, 0, 36, 58
1, 406009, Note_on_c, 0, 45, 61
1, 406020, Note_on_c, 0, 79, 81
1, 406038, Note_off_c, 0, 82, 51
1, 406038, Note_off_c, 0, 81, 64
1, 406070, Note_on_c, 0, 48, 42
1, 406073, Note_off_c, 0, 41, 47
1, 406080, Note_off_c, 0, 45, 59
1, 406090, Note_on_c, 0, 77, 88
1, 406092, Note_off_c, 0, 79, 65
1, 406103, Note_off_c, 0, 48, 63
1, 406114, Note_on_c, 0, 36, 62
1, 406154, Note_off_c, 0, 77, 64
1, 406154, Note_on_c, 0, 79, 77
1, 406169, Note_on_c, 0, 41, 52
1, 406200, Note_on_c, 0, 45, 59
1, 406203, Note_on_c, 0, 81, 77
1, 406204, Note_off_c, 0, 36, 57
1, 406220, Note_off_c, 0, 79, 65
1, 406261, Note_on_c, 0, 48, 53
1, 406263, Note_off_c, 0, 41, 49
1, 406270, Note_on_c, 0, 82, 85
1, 406277, Note_off_c, 0, 81, 66
1, 406298, Note_off_c, 0, 82, 67
1, 406301, Note_off_c, 0, 45, 59
1, 406327, Note_off_c, 0, 48, 58
1, 406331, Note_on_c, 0, 36, 61
1, 406349, Note_on_c, 0, 84, 79
1, 406394, Note_on_c, 0, 86, 79
1, 406397, Note_off_c, 0, 84, 65
1, 406401, Note_off_c, 0, 36, 59
1, 406423, Note_on_c, 0, 45, 53
1, 406449, Note_on_c, 0, 88, 63
1, 406457, Note_off_c, 0, 86, 59
1, 406457, Poly_aftertouch_c, 0, 41, 127
1, 406467, Note_off_c, 0, 45, 58
1, 406485, Note_on_c, 0, 89, 98
1, 406488, Poly_aftertouch_c, 0, 41, 0
1, 406495, Note_off_c, 0, 88, 66
1, 406505, Note_on_c, 0, 36, 73
1, 406547, Poly_aftertouch_c, 0, 48, 0
1, 406554, Note_on_c, 0, 88, 82
1, 406581, Note_on_c, 0, 41, 56
1, 406586, Note_on_c, 0, 45, 52
1, 406586, Note_off_c, 0, 36, 56
1, 406601, Note_off_c, 0, 89, 61
1, 406613, Note_on_c, 0, 86, 67
1, 406626, Note_off_c, 0, 88, 65
1, 406640, Note_off_c, 0, 41, 53
1, 406644, Note_off_c, 0, 86, 64
1, 406654, Note_on_c, 0, 48, 48
1, 406656, Note_on_c, 0, 84, 75
1, 406667, Note_off_c, 0, 45, 51
1, 406693, Note_off_c, 0, 48, 56
1, 406699, Note_off_c, 0, 84, 60
1, 406712, Note_on_c, 0, 36, 66
1, 406727, Note_on_c, 0, 82, 79
1, 406762, Note_on_c, 0, 41, 49
1, 406774, Note_on_c, 0, 81, 67
1, 406826, Note_on_c, 0, 79, 78
1, 406833, Note_on_c, 0, 45, 40
1, 406833, Note_off_c, 0, 81, 65
1, 406837, Note_off_c, 0, 82, 62
1, 406843, Note_off_c, 0, 41, 62
1, 406854, Note_off_c, 0, 36, 49
1, 406866, Note_off_c, 0, 79, 65
1, 406871, Note_off_c, 0, 45, 64
1, 406872, Note_on_c, 0, 77, 82
1, 406884, Note_on_c, 0, 48, 60
1, 406911, Control_c, 0, 64, 71
1, 406916, Note_off_c, 0, 77, 63
1, 406918, Note_off_c, 0, 48, 63
1, 406927, Control_c, 0, 64, 0
1, 406943, Note_on_c, 0, 90, 97
1, 406959, Note_on_c, 0, 36, 76
1, 406971, Control_c, 0, 64, 44
1, 406986, Control_c, 0, 64, 69
1, 407000, Control_c, 0, 64, 127
1, 407024, Note_on_c, 0, 39, 59
1, 407030, Note_on_c, 0, 87, 81
1, 407082, Note_on_c, 0, 42, 61
1, 407092, Note_off_c, 0, 90, 62
1, 407097, Note_on_c, 0, 86, 78
1, 407114, Note_off_c, 0, 36, 50
1, 407125, Note_off_c, 0, 39, 60
1, 407129, Note_on_c, 0, 45, 57
1, 407136, Note_off_c, 0, 87, 63
1, 407144, Note_off_c, 0, 42, 56
1, 407151, Note_off_c, 0, 86, 64
1, 407159, Note_on_c, 0, 84, 82
1, 407174, Note_on_c, 0, 48, 57
1, 407185, Note_off_c, 0, 45, 57
1, 407200, Note_off_c, 0, 84, 61
1, 407221, Note_off_c, 0, 48, 58
1, 407223, Note_on_c, 0, 82, 83
1, 407243, Note_on_c, 0, 36, 62
1, 407268, Note_on_c, 0, 39, 46
1, 407277, Note_on_c, 0, 81, 75
1, 407280, Note_off_c, 0, 82, 65
1, 407302, Note_off_c, 0, 81, 68
1, 407310, Note_off_c, 0, 36, 57
1, 407311, Note_on_c, 0, 42, 53
1, 407314, Note_off_c, 0, 39, 58
1, 407331, Note_on_c, 0, 45, 48
1, 407335, Note_on_c, 0, 79, 78
1, 407349, Note_off_c, 0, 42, 63
1, 407357, Note_on_c, 0, 48, 55
1, 407370, Note_off_c, 0, 45, 61
1, 407385, Note_off_c, 0, 79, 60
1, 407404, Note_off_c, 0, 48, 58
1, 407425, Note_on_c, 0, 77, 42
1, 407430, Note_on_c, 0, 36, 66
1, 407451, Note_off_c, 0, 77, 55
1, 407456, Note_on_c, 0, 39, 35
1, 407471, Note_on_c, 0, 79, 73
1, 407503, Note_off_c, 0, 36, 54
1, 407505, Note_on_c, 0, 42, 50
1, 407513, Note_off_c, 0, 79, 62
1, 407516, Note_off_c, 0, 39, 57
1, 407527, Note_on_c, 0, 81, 82
1, 407531, Note_on_c, 0, 45, 51
1, 407545, Note_off_c, 0, 42, 61
1, 407548, Note_on_c, 0, 48, 49
1, 407585, Note_on_c, 0, 82, 84
1, 407585, Note_off_c, 0, 81, 65
1, 407590, Note_off_c, 0, 45, 54
1, 407605, Note_off_c, 0, 48, 57
1, 407605, Note_off_c, 0, 82, 72
1, 407636, Note_on_c, 0, 36, 66
1, 407639, Note_on_c, 0, 39, 53
1, 407664, Note_on_c, 0, 84, 80
1, 407688, Note_off_c, 0, 36, 53
1, 407699, Note_on_c, 0, 86, 84
1, 407703, Note_off_c, 0, 39, 57
1, 407705, Note_off_c, 0, 84, 66
1, 407723, Note_on_c, 0, 42, 36
1, 407723, Note_on_c, 0, 45, 50
1, 407734, Note_on_c, 0, 48, 55
1, 407761, Note_off_c, 0, 42, 52
1, 407764, Note_off_c, 0, 45, 63
1, 407779, Note_on_c, 0, 87, 24
1, 407780, Note_off_c, 0, 86, 64
1, 407781, Note_off_c, 0, 48, 62
1, 407809, Note_on_c, 0, 36, 72
1, 407810, Note_on_c, 0, 90, 77
1, 407814, Note_off_c, 0, 87, 48
1, 407817, Note_on_c, 0, 39, 59
1, 407878, Note_on_c, 0, 87, 90
1, 407886, Note_on_c, 0, 45, 46
1, 407887, Note_off_c, 0, 36, 58
1, 407892, Note_on_c, 0, 42, 44
1, 407901, Note_off_c, 0, 39, 60
1, 407903, Note_on_c, 0, 48, 53
1, 407934, Note_on_c, 0, 86, 75
1, 407939, Note_off_c, 0, 90, 62
1, 407954, Note_off_c, 0, 87, 63
1, 407955, Note_off_c, 0, 48, 59
1, 407957, Note_off_c, 0, 42, 52
1, 407981, Note_off_c, 0, 86, 64
1, 407986, Note_on_c, 0, 84, 82
1, 407997, Note_off_c, 0, 45, 33
1, 408003, Note_on_c, 0, 36, 70
1, 408012, Note_on_c, 0, 39, 54
1, 408038, Note_off_c, 0, 84, 62
1, 408044, Note_on_c, 0, 82, 84
1, 408068, Note_on_c, 0, 42, 56
1, 408080, Note_off_c, 0, 36, 54
1, 408080, Note_off_c, 0, 39, 58
1, 408103, Note_on_c, 0, 48, 57
1, 408103, Note_on_c, 0, 45, 56
1, 408103, Note_on_c, 0, 81, 76
1, 408109, Note_off_c, 0, 82, 64
1, 408118, Note_off_c, 0, 42, 52
1, 408138, Note_off_c, 0, 81, 63
1, 408155, Note_off_c, 0, 45, 62
1, 408160, Note_on_c, 0, 79, 75
1, 408208, Note_off_c, 0, 48, 60
1, 408214, Note_on_c, 0, 78, 89
1, 408219, Note_off_c, 0, 79, 67
1, 408238, Control_c, 0, 64, 94
1, 408247, Note_off_c, 0, 78, 65
1, 408253, Control_c, 0, 64, 60
1, 408268, Control_c, 0, 64, 0
1, 408283, Note_on_c, 0, 36, 77
1, 408297, Control_c, 0, 64, 48
1, 408303, Note_on_c, 0, 91, 94
1, 408308, Note_on_c, 0, 89, 78
1, 408320, Control_c, 0, 64, 71
1, 408335, Control_c, 0, 64, 127
1, 408363, Note_on_c, 0, 40, 59
1, 408372, Note_on_c, 0, 43, 45
1, 408395, Poly_aftertouch_c, 0, 38, 0
1, 408414, Note_off_c, 0, 36, 61
1, 408432, Note_off_c, 0, 91, 64
1, 408456, Note_off_c, 0, 40, 62
1, 408460, Note_on_c, 0, 88, 74
1, 408485, Note_on_c, 0, 46, 41
1, 408510, Note_on_c, 0, 86, 83
1, 408515, Note_off_c, 0, 89, 63
1, 408520, Note_off_c, 0, 46, 55
1, 408533, Note_off_c, 0, 88, 65
1, 408534, Note_on_c, 0, 36, 66
1, 408539, Note_off_c, 0, 43, 53
1, 408560, Note_off_c, 0, 86, 64
1, 408581, Note_on_c, 0, 84, 78
1, 408583, Note_on_c, 0, 40, 55
1, 408621, Note_on_c, 0, 46, 66
1, 408627, Note_off_c, 0, 84, 65
1, 408632, Note_off_c, 0, 36, 58
1, 408643, Note_on_c, 0, 82, 82
1, 408654, Note_on_c, 0, 43, 38
1, 408659, Note_off_c, 0, 40, 61
1, 408688, Note_off_c, 0, 43, 51
1, 408695, Note_off_c, 0, 46, 63
1, 408698, Note_on_c, 0, 80, 81
1, 408706, Control_c, 0, 64, 71
1, 408714, Note_off_c, 0, 82, 59
1, 408720, Control_c, 0, 64, 0
1, 408735, Note_on_c, 0, 36, 78
1, 408762, Note_off_c, 0, 80, 64
1, 408762, Note_on_c, 0, 79, 85
1, 408795, Control_c, 0, 64, 25
1, 408804, Note_on_c, 0, 41, 72
1, 408810, Control_c, 0, 64, 62
1, 408814, Note_off_c, 0, 79, 60
1, 408825, Control_c, 0, 64, 78
1, 408826, Note_on_c, 0, 80, 83
1, 408839, Control_c, 0, 64, 127
1, 408851, Note_on_c, 0, 44, 71
1, 408855, Note_off_c, 0, 36, 56
1, 408881, Note_off_c, 0, 80, 64
1, 408889, Note_on_c, 0, 82, 81
1, 408908, Note_off_c, 0, 82, 72
1, 408920, Note_on_c, 0, 48, 72
1, 408925, Note_off_c, 0, 41, 58
1, 408950, Note_off_c, 0, 44, 57
1, 408953, Note_on_c, 0, 84, 86
1, 408995, Note_on_c, 0, 36, 71
1, 409000, Note_off_c, 0, 48, 62
1, 409005, Note_on_c, 0, 86, 85
1, 409009, Note_off_c, 0, 84, 65
1, 409072, Note_on_c, 0, 41, 65
1, 409072, Note_on_c, 0, 87, 86
1, 409072, Note_off_c, 0, 86, 63
1, 409094, Note_off_c, 0, 87, 69
1, 409095, Note_on_c, 0, 44, 69
1, 409146, Note_on_c, 0, 89, 86
1, 409146, Note_off_c, 0, 36, 34
1, 409151, Note_off_c, 0, 41, 59
1, 409155, Note_on_c, 0, 48, 64
1, 409193, Note_on_c, 0, 91, 87
1, 409197, Note_off_c, 0, 89, 65
1, 409198, Note_off_c, 0, 44, 56
1, 409221, Note_off_c, 0, 48, 63
1, 409235, Note_on_c, 0, 36, 82
1, 409247, Note_on_c, 0, 92, 101
1, 409255, Note_off_c, 0, 91, 65
1, 409302, Note_on_c, 0, 41, 74
1, 409324, Note_off_c, 0, 92, 67
1, 409326, Note_on_c, 0, 91, 93
1, 409338, Note_off_c, 0, 36, 59
1, 409341, Note_on_c, 0, 44, 64
1, 409380, Note_off_c, 0, 91, 64
1, 409385, Note_on_c, 0, 89, 81
1, 409394, Note_off_c, 0, 41, 61
1, 409408, Note_on_c, 0, 48, 63
1, 409418, Note_off_c, 0, 44, 60
1, 409439, Note_off_c, 0, 89, 59
1, 409448, Note_on_c, 0, 87, 85
1, 409466, Note_off_c, 0, 48, 57
1, 409469, Note_on_c, 0, 36, 57
1, 409508, Note_on_c, 0, 41, 63
1, 409513, Note_on_c, 0, 86, 78
1, 409518, Note_off_c, 0, 87, 64
1, 409550, Note_off_c, 0, 86, 61
1, 409555, Note_on_c, 0, 44, 52
1, 409574, Note_on_c, 0, 84, 71
1, 409586, Note_off_c, 0, 36, 57
1, 409600, Note_off_c, 0, 84, 65
1, 409609, Note_on_c, 0, 48, 64
1, 409614, Note_on_c, 0, 83, 43
1, 409639, Note_on_c, 0, 82, 84
1, 409640, Note_off_c, 0, 41, 60
1, 409640, Note_off_c, 0, 83, 56
1, 409656, Note_off_c, 0, 44, 57
1, 409669, Note_off_c, 0, 48, 61
1, 409692, Control_c, 0, 64, 68
1, 409693, Note_on_c, 0, 80, 78
1, 409695, Note_on_c, 0, 36, 79
1, 409707, Control_c, 0, 64, 0
1, 409713, Note_off_c, 0, 82, 63
1, 409731, Note_on_c, 0, 38, 58
1, 409764, Note_on_c, 0, 83, 95
1, 409766, Control_c, 0, 64, 18
1, 409775, Note_off_c, 0, 80, 64
1, 409781, Control_c, 0, 64, 64
1, 409788, Note_on_c, 0, 41, 65
1, 409795, Control_c, 0, 64, 91
1, 409817, Control_c, 0, 64, 127
1, 409844, Note_on_c, 0, 80, 84
1, 409857, Note_on_c, 0, 44, 68
1, 409861, Note_off_c, 0, 36, 59
1, 409867, Note_off_c, 0, 38, 60
1, 409879, Note_off_c, 0, 83, 64
1, 409907, Note_on_c, 0, 47, 68
1, 409919, Note_on_c, 0, 79, 75
1, 409922, Note_off_c, 0, 41, 56
1, 409945, Note_off_c, 0, 80, 63
1, 409958, Note_off_c, 0, 44, 58
1, 409971, Note_on_c, 0, 77, 79
1, 409974, Note_off_c, 0, 79, 65
1, 409981, Note_off_c, 0, 47, 60
1, 409982, Note_on_c, 0, 36, 67
1, 409995, Note_on_c, 0, 38, 65
1, 410024, Note_off_c, 0, 77, 61
1, 410042, Note_on_c, 0, 41, 65
1, 410044, Note_on_c, 0, 75, 88
1, 410072, Poly_aftertouch_c, 0, 76, 0
1, 410113, Note_on_c, 0, 74, 85
1, 410124, Note_off_c, 0, 75, 61
1, 410142, Note_on_c, 0, 47, 61
1, 410147, Note_off_c, 0, 36, 60
1, 410154, Note_off_c, 0, 38, 53
1, 410174, Note_off_c, 0, 74, 64
1, 410178, Note_on_c, 0, 72, 83
1, 410190, Note_off_c, 0, 41, 59
1, 410205, Note_off_c, 0, 47, 60
1, 410218, Note_off_c, 0, 72, 66
1, 410218, Control_c, 0, 64, 101
1, 410233, Control_c, 0, 64, 62
1, 410248, Control_c, 0, 64, 0
1, 410250, Note_on_c, 0, 36, 85
1, 410256, Note_on_c, 0, 71, 102
1, 410276, Note_on_c, 0, 38, 58
1, 410322, Control_c, 0, 64, 62
1, 410337, Control_c, 0, 64, 120
1, 410341, Note_off_c, 0, 71, 59
1, 410350, Note_on_c, 0, 72, 88
1, 410352, Control_c, 0, 64, 127
1, 410356, Note_on_c, 0, 41, 68
1, 410369, Note_on_c, 0, 43, 61
1, 410402, Note_off_c, 0, 36, 59
1, 410408, Note_off_c, 0, 38, 61
1, 410411, Note_off_c, 0, 72, 58
1, 410432, Note_on_c, 0, 74, 89
1, 410437, Note_on_c, 0, 47, 53
1, 410452, Note_off_c, 0, 41, 58
1, 410488, Note_off_c, 0, 74, 63
1, 410491, Note_on_c, 0, 75, 83
1, 410494, Note_off_c, 0, 43, 57
1, 410503, Note_on_c, 0, 36, 71
1, 410503, Note_off_c, 0, 47, 61
1, 410522, Note_on_c, 0, 38, 67
1, 410536, Note_off_c, 0, 75, 66
1, 410581, Note_on_c, 0, 77, 83
1, 410601, Note_on_c, 0, 41, 53
1, 410609, Note_off_c, 0, 36, 59
1, 410610, Note_on_c, 0, 43, 62
1, 410612, Note_off_c, 0, 38, 59
1, 410629, Note_on_c, 0, 79, 79
1, 410637, Note_on_c, 0, 47, 71
1, 410667, Note_off_c, 0, 41, 52
1, 410677, Note_on_c, 0, 81, 81
1, 410680, Note_off_c, 0, 77, 60
1, 410702, Note_off_c, 0, 43, 61
1, 410712, Note_off_c, 0, 79, 56
1, 410718, Note_off_c, 0, 47, 60
1, 410724, Note_on_c, 0, 36, 68
1, 410734, Note_on_c, 0, 38, 66
1, 410737, Note_on_c, 0, 83, 82
1, 410745, Note_off_c, 0, 81, 65
1, 410760, Note_off_c, 0, 83, 67
1, 410768, Note_on_c, 0, 41, 64
1, 410812, Note_on_c, 0, 84, 84
1, 410812, Note_off_c, 0, 36, 59
1, 410815, Note_off_c, 0, 38, 60
1, 410824, Note_on_c, 0, 43, 60
1, 410830, Note_on_c, 0, 47, 73
1, 410861, Note_off_c, 0, 41, 59
1, 410870, Note_on_c, 0, 86, 87
1, 410874, Note_off_c, 0, 84, 66
1, 410905, Note_off_c, 0, 43, 54
1, 410906, Note_off_c, 0, 47, 59
1, 410924, Note_on_c, 0, 36, 74
1, 410934, Note_on_c, 0, 38, 68
1, 410935, Note_on_c, 0, 87, 86
1, 410943, Note_off_c, 0, 86, 64
1, 410953, Note_on_c, 0, 41, 65
1, 410976, Note_off_c, 0, 87, 66
1, 411019, Note_on_c, 0, 89, 84
1, 411032, Note_on_c, 0, 43, 58
1, 411037, Note_off_c, 0, 38, 58
1, 411052, Note_on_c, 0, 47, 67
1, 411052, Note_off_c, 0, 36, 58
1, 411063, Note_off_c, 0, 41, 62
1, 411090, Note_on_c, 0, 91, 94
1, 411095, Note_off_c, 0, 89, 64
1, 411112, Note_off_c, 0, 47, 62
1, 411144, Note_off_c, 0, 43, 37
1, 411160, Control_c, 0, 64, 78
1, 411168, Note_on_c, 0, 93, 89
1, 411175, Control_c, 0, 64, 43
1, 411187, Note_off_c, 0, 91, 66
1, 411189, Control_c, 0, 64, 0
1, 411243, Note_on_c, 0, 95, 95
1, 411260, Note_off_c, 0, 93, 64
1, 411263, Control_c, 0, 64, 37
1, 411278, Control_c, 0, 64, 127
1, 411314, Note_on_c, 0, 96, 103
1, 411317, Note_on_c, 0, 48, 103
1, 411319, Note_on_c, 0, 36, 81
1, 411321, Note_on_c, 0, 39, 80
1, 411339, Note_on_c, 0, 43, 48
1, 411349, Note_off_c, 0, 36, 64
1, 411352, Note_off_c, 0, 95, 62
1, 411356, Note_off_c, 0, 39, 65
1, 411367, Note_off_c, 0, 43, 55
1, 411379, Note_off_c, 0, 48, 67
1, 411415, Note_on_c, 0, 91, 86
1, 411442, Note_off_c, 0, 96, 65
1, 411481, Note_off_c, 0, 91, 63
1, 411492, Note_on_c, 0, 89, 86
1, 411579, Note_on_c, 0, 87, 87
1, 411583, Note_off_c, 0, 89, 62
1, 411594, Note_on_c, 0, 63, 80
1, 411595, Note_on_c, 0, 67, 88
1, 411650, Note_off_c, 0, 67, 61
1, 411663, Note_off_c, 0, 63, 54
1, 411664, Note_on_c, 0, 86, 87
1, 411685, Note_off_c, 0, 87, 59
1, 411746, Note_off_c, 0, 86, 66
1, 411747, Note_on_c, 0, 84, 83
1, 411818, Note_on_c, 0, 87, 91
1, 411824, Note_on_c, 0, 60, 80
1, 411824, Note_on_c, 0, 63, 88
1, 411830, Note_off_c, 0, 84, 64
1, 411836, Control_c, 0, 64, 73
1, 411850, Control_c, 0, 64, 0
1, 411894, Note_off_c, 0, 60, 59
1, 411895, Note_off_c, 0, 63, 57
1, 411898, Note_on_c, 0, 91, 87
1, 411908, Note_off_c, 0, 87, 64
1, 411985, Note_on_c, 0, 89, 86
1, 412023, Note_off_c, 0, 91, 64
1, 412071, Note_on_c, 0, 87, 92
1, 412076, Note_on_c, 0, 63, 82
1, 412080, Note_on_c, 0, 67, 87
1, 412113, Note_off_c, 0, 89, 61
1, 412124, Note_off_c, 0, 67, 63
1, 412131, Note_off_c, 0, 63, 64
1, 412155, Note_on_c, 0, 86, 86
1, 412187, Note_off_c, 0, 87, 63
1, 412232, Note_on_c, 0, 84, 83
1, 412239, Note_off_c, 0, 86, 64
1, 412303, Note_off_c, 0, 84, 49
1, 412309, Note_on_c, 0, 87, 92
1, 412313, Note_on_c, 0, 60, 77
1, 412315, Note_on_c, 0, 63, 83
1, 412366, Note_off_c, 0, 63, 63
1, 412384, Note_off_c, 0, 60, 54
1, 412392, Note_on_c, 0, 91, 88
1, 412399, Note_off_c, 0, 87, 64
1, 412475, Note_on_c, 0, 89, 87
1, 412521, Note_off_c, 0, 91, 63
1, 412548, Note_on_c, 0, 87, 85
1, 412551, Note_on_c, 0, 63, 83
1, 412553, Note_on_c, 0, 67, 85
1, 412589, Note_off_c, 0, 67, 63
1, 412591, Note_off_c, 0, 89, 61
1, 412593, Note_off_c, 0, 63, 66
1, 412631, Note_on_c, 0, 86, 82
1, 412661, Note_off_c, 0, 87, 64
1, 412700, Note_on_c, 0, 84, 84
1, 412704, Note_off_c, 0, 86, 65
1, 412733, Control_c, 0, 64, 30
1, 412745, Note_off_c, 0, 84, 64
1, 412748, Control_c, 0, 64, 60
1, 412762, Control_c, 0, 64, 73
1, 412777, Control_c, 0, 64, 103
1, 412784, Note_on_c, 0, 83, 93
1, 412788, Note_on_c, 0, 62, 101
1, 412792, Control_c, 0, 64, 127
1, 412792, Note_on_c, 0, 55, 87
1, 412828, Control_c, 0, 64, 93
1, 412832, Note_off_c, 0, 62, 67
1, 412843, Control_c, 0, 64, 69
1, 412844, Note_off_c, 0, 55, 63
1, 412858, Control_c, 0, 64, 44
1, 412861, Note_off_c, 0, 83, 66
1, 412873, Control_c, 0, 64, 0
1, 412882, Note_on_c, 0, 86, 70
1, 412884, Note_on_c, 0, 88, 68
1, 412959, Note_on_c, 0, 84, 82
1, 412960, Note_off_c, 0, 88, 64
1, 412988, Note_off_c, 0, 86, 64
1, 413046, Note_on_c, 0, 83, 90
1, 413052, Note_on_c, 0, 65, 87
1, 413053, Note_on_c, 0, 62, 87
1, 413081, Note_off_c, 0, 84, 64
1, 413085, Note_off_c, 0, 65, 63
1, 413096, Note_off_c, 0, 62, 60
1, 413121, Note_on_c, 0, 81, 84
1, 413144, Note_off_c, 0, 83, 64
1, 413200, Note_on_c, 0, 79, 85
1, 413205, Note_off_c, 0, 81, 67
1, 413252, Note_off_c, 0, 79, 65
1, 413280, Note_on_c, 0, 83, 87
1, 413284, Note_on_c, 0, 62, 96
1, 413296, Note_on_c, 0, 55, 68
1, 413308, Note_on_c, 0, 57, 55
1, 413330, Note_off_c, 0, 57, 61
1, 413330, Note_off_c, 0, 62, 65
1, 413330, Note_off_c, 0, 55, 68
1, 413354, Note_off_c, 0, 83, 65
1, 413356, Note_on_c, 0, 86, 82
1, 413444, Note_on_c, 0, 84, 87
1, 413470, Note_off_c, 0, 86, 64
1, 413518, Note_on_c, 0, 83, 83
1, 413527, Note_on_c, 0, 62, 82
1, 413529, Note_on_c, 0, 65, 82
1, 413561, Note_off_c, 0, 65, 67
1, 413573, Note_off_c, 0, 84, 59
1, 413582, Note_off_c, 0, 62, 62
1, 413599, Note_on_c, 0, 81, 85
1, 413618, Note_off_c, 0, 83, 64
1, 413660, Note_off_c, 0, 81, 65
1, 413675, Note_on_c, 0, 79, 68
1, 413749, Note_on_c, 0, 77, 85
1, 413756, Note_on_c, 0, 62, 94
1, 413756, Note_off_c, 0, 79, 63
1, 413759, Note_on_c, 0, 55, 84
1, 413801, Note_off_c, 0, 62, 66
1, 413815, Note_off_c, 0, 55, 63
1, 413829, Note_off_c, 0, 77, 64
1, 413832, Note_on_c, 0, 80, 76
1, 413895, Note_on_c, 0, 79, 72
1, 413931, Note_off_c, 0, 80, 61
1, 413985, Note_on_c, 0, 77, 83
1, 413991, Note_on_c, 0, 62, 80
1, 413992, Note_on_c, 0, 65, 83
1, 414015, Note_off_c, 0, 65, 71
1, 414018, Note_off_c, 0, 79, 65
1, 414021, Note_off_c, 0, 62, 67
1, 414057, Note_on_c, 0, 75, 78
1, 414083, Note_off_c, 0, 77, 63
1, 414134, Note_on_c, 0, 74, 76
1, 414139, Note_off_c, 0, 75, 63
1, 414170, Control_c, 0, 64, 33
1, 414185, Control_c, 0, 64, 59
1, 414197, Note_off_c, 0, 74, 57
1, 414199, Control_c, 0, 64, 73
1, 414214, Note_on_c, 0, 48, 76
1, 414214, Control_c, 0, 64, 127
1, 414215, Note_on_c, 0, 51, 85
1, 414217, Note_on_c, 0, 75, 92
1, 414259, Control_c, 0, 64, 76
1, 414267, Note_off_c, 0, 51, 62
1, 414274, Control_c, 0, 64, 57
1, 414289, Control_c, 0, 64, 0
1, 414293, Note_off_c, 0, 48, 58
1, 414296, Note_on_c, 0, 79, 84
1, 414313, Note_off_c, 0, 75, 63
1, 414384, Note_on_c, 0, 77, 86
1, 414416, Note_off_c, 0, 79, 63
1, 414460, Note_on_c, 0, 75, 89
1, 414465, Note_on_c, 0, 51, 80
1, 414468, Note_on_c, 0, 55, 82
1, 414500, Note_off_c, 0, 55, 66
1, 414503, Note_off_c, 0, 51, 61
1, 414506, Note_off_c, 0, 77, 60
1, 414538, Note_on_c, 0, 74, 86
1, 414572, Note_off_c, 0, 75, 61
1, 414622, Note_on_c, 0, 72, 81
1, 414627, Note_off_c, 0, 74, 63
1, 414693, Note_off_c, 0, 72, 47
1, 414697, Note_on_c, 0, 75, 89
1, 414701, Note_on_c, 0, 51, 86
1, 414703, Note_on_c, 0, 48, 70
1, 414751, Note_off_c, 0, 51, 63
1, 414758, Note_off_c, 0, 48, 61
1, 414781, Note_on_c, 0, 79, 83
1, 414787, Note_off_c, 0, 75, 63
1, 414861, Note_on_c, 0, 77, 85
1, 414900, Note_off_c, 0, 79, 62
1, 414937, Note_on_c, 0, 75, 85
1, 414944, Note_on_c, 0, 51, 77
1, 414948, Note_on_c, 0, 55, 77
1, 414981, Note_off_c, 0, 77, 59
1, 414983, Note_off_c, 0, 55, 64
1, 414986, Note_off_c, 0, 51, 59
1, 415014, Note_on_c, 0, 74, 83
1, 415057, Note_off_c, 0, 75, 61
1, 415098, Note_on_c, 0, 72, 79
1, 415107, Note_off_c, 0, 74, 63
1, 415163, Note_off_c, 0, 72, 55
1, 415177, Note_on_c, 0, 75, 86
1, 415183, Note_on_c, 0, 48, 68
1, 415186, Note_on_c, 0, 51, 71
1, 415222, Note_off_c, 0, 51, 65
1, 415248, Note_off_c, 0, 48, 60
1, 415263, Note_on_c, 0, 79, 80
1, 415267, Note_off_c, 0, 75, 64
1, 415338, Note_on_c, 0, 77, 83
1, 415374, Note_off_c, 0, 79, 63
1, 415404, Note_on_c, 0, 51, 67
1, 415409, Note_on_c, 0, 55, 74
1, 415412, Note_on_c, 0, 75, 82
1, 415433, Note_off_c, 0, 51, 66
1, 415447, Note_off_c, 0, 55, 65
1, 415483, Note_off_c, 0, 77, 59
1, 415495, Note_on_c, 0, 74, 81
1, 415530, Note_off_c, 0, 75, 62
1, 415557, Note_off_c, 0, 74, 64
1, 415561, Note_on_c, 0, 72, 77
1, 415625, Note_on_c, 0, 50, 91
1, 415631, Note_on_c, 0, 43, 79
1, 415634, Note_on_c, 0, 71, 91
1, 415676, Note_off_c, 0, 72, 58
1, 415687, Note_off_c, 0, 50, 55
1, 415688, Note_off_c, 0, 43, 64
1, 415709, Note_off_c, 0, 71, 65
1, 415713, Note_on_c, 0, 74, 80
1, 415789, Note_on_c, 0, 72, 84
1, 415824, Note_off_c, 0, 74, 63
1, 415869, Note_on_c, 0, 71, 81
1, 415878, Note_on_c, 0, 53, 80
1, 415881, Note_on_c, 0, 50, 76
1, 415907, Note_off_c, 0, 53, 68
1, 415928, Note_off_c, 0, 50, 59
1, 415947, Note_on_c, 0, 69, 88
1, 415963, Note_off_c, 0, 72, 50
1, 415976, Note_off_c, 0, 71, 62
1, 416030, Note_on_c, 0, 67, 79
1, 416030, Note_off_c, 0, 69, 62
1, 416097, Note_on_c, 0, 50, 86
1, 416099, Note_off_c, 0, 67, 54
1, 416103, Note_on_c, 0, 43, 72
1, 416108, Note_on_c, 0, 71, 85
1, 416143, Note_off_c, 0, 43, 64
1, 416151, Note_off_c, 0, 50, 62
1, 416182, Note_on_c, 0, 74, 80
1, 416183, Note_off_c, 0, 71, 65
1, 416262, Note_on_c, 0, 72, 82
1, 416292, Note_off_c, 0, 74, 61
1, 416339, Note_on_c, 0, 71, 83
1, 416340, Note_on_c, 0, 53, 78
1, 416345, Note_on_c, 0, 50, 74
1, 416372, Note_off_c, 0, 53, 66
1, 416381, Note_off_c, 0, 50, 65
1, 416393, Note_off_c, 0, 72, 60
1, 416416, Note_on_c, 0, 69, 84
1, 416438, Note_off_c, 0, 71, 63
1, 416477, Note_off_c, 0, 69, 62
1, 416487, Note_on_c, 0, 67, 75
1, 416574, Note_on_c, 0, 65, 84
1, 416581, Note_on_c, 0, 50, 78
1, 416581, Note_on_c, 0, 43, 69
1, 416589, Note_off_c, 0, 67, 58
1, 416621, Note_off_c, 0, 50, 61
1, 416633, Note_off_c, 0, 43, 60
1, 416647, Note_off_c, 0, 65, 61
1, 416655, Note_on_c, 0, 68, 70
1, 416713, Note_on_c, 0, 67, 67
1, 416753, Note_off_c, 0, 68, 52
1, 416802, Note_on_c, 0, 50, 75
1, 416803, Note_on_c, 0, 53, 77
1, 416808, Note_on_c, 0, 65, 76
1, 416832, Note_off_c, 0, 50, 67
1, 416835, Note_off_c, 0, 53, 66
1, 416850, Note_off_c, 0, 67, 60
1, 416871, Note_on_c, 0, 63, 75
1, 416902, Note_off_c, 0, 65, 63
1, 416946, Note_off_c, 0, 63, 61
1, 416953, Note_on_c, 0, 62, 68
1, 417024, Note_on_c, 0, 51, 75
1, 417025, Note_on_c, 0, 63, 74
1, 417027, Note_off_c, 0, 62, 61
1, 417028, Note_on_c, 0, 48, 63
1, 417062, Note_off_c, 0, 51, 62
1, 417077, Note_off_c, 0, 48, 58
1, 417100, Note_on_c, 0, 67, 73
1, 417102, Note_off_c, 0, 63, 63
1, 417171, Note_on_c, 0, 65, 77
1, 417189, Note_off_c, 0, 67, 59
1, 417237, Note_on_c, 0, 63, 76
1, 417247, Note_on_c, 0, 51, 66
1, 417254, Note_on_c, 0, 55, 60
1, 417281, Note_off_c, 0, 51, 66
1, 417285, Note_off_c, 0, 65, 58
1, 417285, Note_off_c, 0, 55, 65
1, 417321, Note_on_c, 0, 62, 78
1, 417344, Note_off_c, 0, 63, 63
1, 417387, Note_on_c, 0, 60, 81
1, 417412, Note_off_c, 0, 62, 62
1, 417453, Note_off_c, 0, 60, 65
1, 417455, Note_on_c, 0, 43, 77
1, 417514, Control_c, 0, 64, 54
1, 417523, Note_on_c, 0, 50, 76
1, 417529, Control_c, 0, 64, 62
1, 417544, Control_c, 0, 64, 66
1, 417558, Control_c, 0, 64, 72
1, 417568, Note_on_c, 0, 53, 77
1, 417573, Control_c, 0, 64, 87
1, 417588, Control_c, 0, 64, 127
1, 417652, Note_on_c, 0, 59, 92
1, 417659, Note_on_c, 0, 56, 102
1, 417691, Control_c, 0, 64, 80
1, 417706, Control_c, 0, 64, 55
1, 417721, Control_c, 0, 64, 0
1, 417732, Note_on_c, 0, 62, 79
1, 417765, Control_c, 0, 64, 21
1, 417780, Control_c, 0, 64, 56
1, 417795, Control_c, 0, 64, 69
1, 417803, Note_off_c, 0, 59, 47
1, 417810, Control_c, 0, 64, 87
1, 417817, Note_on_c, 0, 65, 73
1, 417824, Control_c, 0, 64, 127
1, 417869, Note_off_c, 0, 62, 62
1, 417895, Note_on_c, 0, 68, 81
1, 417899, Control_c, 0, 64, 87
1, 417905, Note_off_c, 0, 65, 62
1, 417914, Control_c, 0, 64, 65
1, 417928, Control_c, 0, 64, 44
1, 417943, Control_c, 0, 64, 40
1, 417958, Control_c, 0, 64, 49
1, 417973, Control_c, 0, 64, 61
1, 417979, Note_on_c, 0, 65, 73
1, 417988, Control_c, 0, 64, 68
1, 418003, Control_c, 0, 64, 81
1, 418017, Control_c, 0, 64, 127
1, 418048, Note_off_c, 0, 56, 61
1, 418057, Note_off_c, 0, 68, 58
1, 418064, Note_on_c, 0, 62, 78
1, 418086, Note_off_c, 0, 65, 62
1, 418122, Note_on_c, 0, 55, 88
1, 418129, Control_c, 0, 64, 74
1, 418133, Note_off_c, 0, 43, 61
1, 418133, Note_off_c, 0, 50, 59
1, 418137, Note_on_c, 0, 67, 84
1, 418144, Control_c, 0, 64, 39
1, 418152, Note_off_c, 0, 62, 61
1, 418159, Control_c, 0, 64, 0
1, 418169, Note_off_c, 0, 53, 61
1, 418196, Note_on_c, 0, 65, 73
1, 418209, Note_off_c, 0, 55, 52
1, 418238, Note_off_c, 0, 67, 61
1, 418268, Note_off_c, 0, 65, 63
1, 418277, Note_on_c, 0, 62, 73
1, 418339, Note_on_c, 0, 51, 88
1, 418343, Note_off_c, 0, 62, 62
1, 418343, Note_on_c, 0, 48, 73
1, 418349, Note_on_c, 0, 63, 76
1, 418387, Note_off_c, 0, 51, 63
1, 418391, Note_off_c, 0, 48, 58
1, 418421, Note_off_c, 0, 63, 63
1, 418427, Note_on_c, 0, 67, 65
1, 418501, Note_on_c, 0, 65, 72
1, 418504, Note_off_c, 0, 67, 61
1, 418561, Note_on_c, 0, 55, 75
1, 418564, Note_on_c, 0, 51, 67
1, 418564, Note_on_c, 0, 63, 74
1, 418590, Note_off_c, 0, 51, 66
1, 418592, Note_off_c, 0, 55, 68
1, 418608, Note_off_c, 0, 65, 60
1, 418648, Note_on_c, 0, 62, 74
1, 418673, Note_off_c, 0, 63, 62
1, 418712, Note_on_c, 0, 60, 74
1, 418726, Note_off_c, 0, 62, 60
1, 418765, Note_off_c, 0, 60, 63
1, 418774, Note_on_c, 0, 43, 78
1, 418847, Control_c, 0, 64, 31
1, 418848, Note_on_c, 0, 50, 72
1, 418862, Control_c, 0, 64, 48
1, 418877, Control_c, 0, 64, 57
1, 418892, Control_c, 0, 64, 62
1, 418908, Note_on_c, 0, 53, 75
1, 418908, Control_c, 0, 64, 66
1, 418922, Control_c, 0, 64, 71
1, 418937, Control_c, 0, 64, 80
1, 418952, Control_c, 0, 64, 94
1, 418967, Control_c, 0, 64, 127
1, 418975, Note_on_c, 0, 59, 96
1, 418991, Note_on_c, 0, 56, 100
1, 418996, Control_c, 0, 64, 106
1, 419011, Control_c, 0, 64, 73
1, 419026, Control_c, 0, 64, 44
1, 419041, Control_c, 0, 64, 0
1, 419052, Note_on_c, 0, 62, 82
1, 419092, Note_off_c, 0, 59, 56
1, 419100, Control_c, 0, 64, 53
1, 419115, Control_c, 0, 64, 66
1, 419130, Control_c, 0, 64, 79
1, 419139, Note_on_c, 0, 65, 71
1, 419145, Control_c, 0, 64, 127
1, 419183, Note_off_c, 0, 62, 61
1, 419212, Note_on_c, 0, 68, 78
1, 419219, Control_c, 0, 64, 117
1, 419223, Note_off_c, 0, 65, 61
1, 419234, Control_c, 0, 64, 79
1, 419249, Control_c, 0, 64, 62
1, 419264, Control_c, 0, 64, 42
1, 419278, Control_c, 0, 64, 45
1, 419293, Control_c, 0, 64, 55
1, 419294, Note_on_c, 0, 65, 69
1, 419308, Control_c, 0, 64, 64
1, 419322, Control_c, 0, 64, 72
1, 419337, Control_c, 0, 64, 90
1, 419350, Note_off_c, 0, 68, 59
1, 419352, Control_c, 0, 64, 127
1, 419365, Note_on_c, 0, 62, 75
1, 419371, Note_off_c, 0, 56, 62
1, 419392, Note_off_c, 0, 65, 62
1, 419396, Control_c, 0, 64, 110
1, 419411, Control_c, 0, 64, 71
1, 419426, Control_c, 0, 64, 36
1, 419435, Note_on_c, 0, 67, 82
1, 419436, Note_on_c, 0, 55, 88
1, 419440, Control_c, 0, 64, 0
1, 419447, Note_off_c, 0, 62, 62
1, 419470, Control_c, 0, 64, 20
1, 419475, Note_off_c, 0, 43, 59
1, 419485, Control_c, 0, 64, 57
1, 419488, Note_off_c, 0, 50, 63
1, 419500, Control_c, 0, 64, 70
1, 419510, Note_on_c, 0, 65, 75
1, 419514, Control_c, 0, 64, 93
1, 419529, Control_c, 0, 64, 127
1, 419556, Note_off_c, 0, 67, 60
1, 419586, Note_off_c, 0, 65, 63
1, 419595, Note_on_c, 0, 62, 67
1, 419610, Note_off_c, 0, 55, 55
1, 419610, Control_c, 0, 64, 94
1, 419615, Note_off_c, 0, 53, 24
1, 419625, Control_c, 0, 64, 69
1, 419640, Control_c, 0, 64, 50
1, 419654, Control_c, 0, 64, 0
1, 419663, Note_on_c, 0, 48, 71
1, 419663, Note_off_c, 0, 62, 60
1, 419664, Note_on_c, 0, 51, 78
1, 419670, Note_on_c, 0, 63, 76
1, 419711, Note_off_c, 0, 51, 59
1, 419722, Note_off_c, 0, 48, 62
1, 419735, Note_off_c, 0, 63, 64
1, 419741, Note_on_c, 0, 67, 72
1, 419807, Note_on_c, 0, 65, 73
1, 419834, Note_off_c, 0, 67, 60
1, 419872, Note_on_c, 0, 63, 73
1, 419893, Note_on_c, 0, 51, 66
1, 419896, Note_on_c, 0, 55, 63
1, 419919, Note_off_c, 0, 65, 61
1, 419924, Note_off_c, 0, 51, 66
1, 419932, Note_off_c, 0, 55, 63
1, 419942, Note_on_c, 0, 62, 75
1, 419972, Note_off_c, 0, 63, 63
1, 420004, Note_on_c, 0, 60, 66
1, 420016, Note_off_c, 0, 62, 62
1, 420042, Note_off_c, 0, 60, 64
1, 420093, Note_on_c, 0, 43, 71
1, 420099, Note_on_c, 0, 59, 71
1, 420144, Control_c, 0, 64, 29
1, 420159, Control_c, 0, 64, 55
1, 420161, Note_on_c, 0, 50, 62
1, 420163, Note_on_c, 0, 62, 64
1, 420169, Note_off_c, 0, 59, 63
1, 420174, Control_c, 0, 64, 65
1, 420189, Control_c, 0, 64, 74
1, 420204, Control_c, 0, 64, 99
1, 420218, Control_c, 0, 64, 127
1, 420223, Note_on_c, 0, 53, 75
1, 420237, Note_on_c, 0, 65, 72
1, 420247, Note_off_c, 0, 62, 61
1, 420315, Control_c, 0, 64, 81
1, 420319, Note_off_c, 0, 65, 56
1, 420329, Note_on_c, 0, 68, 76
1, 420330, Control_c, 0, 64, 61
1, 420331, Note_on_c, 0, 56, 87
1, 420345, Control_c, 0, 64, 0
1, 420390, Control_c, 0, 64, 40
1, 420405, Control_c, 0, 64, 60
1, 420419, Note_on_c, 0, 65, 60
1, 420419, Control_c, 0, 64, 67
1, 420429, Note_off_c, 0, 68, 59
1, 420434, Control_c, 0, 64, 78
1, 420449, Control_c, 0, 64, 101
1, 420464, Control_c, 0, 64, 127
1, 420470, Note_on_c, 0, 62, 67
1, 420523, Note_off_c, 0, 65, 60
1, 420539, Control_c, 0, 64, 115
1, 420546, Note_on_c, 0, 71, 74
1, 420554, Control_c, 0, 64, 78
1, 420561, Note_off_c, 0, 62, 61
1, 420568, Control_c, 0, 64, 62
1, 420583, Control_c, 0, 64, 43
1, 420598, Control_c, 0, 64, 48
1, 420613, Control_c, 0, 64, 55
1, 420622, Note_on_c, 0, 68, 68
1, 420626, Note_off_c, 0, 71, 58
1, 420628, Control_c, 0, 64, 63
1, 420642, Control_c, 0, 64, 69
1, 420657, Control_c, 0, 64, 80
1, 420672, Control_c, 0, 64, 127
1, 420676, Note_off_c, 0, 68, 62
1, 420698, Note_on_c, 0, 65, 70
1, 420746, Control_c, 0, 64, 102
1, 420750, Note_off_c, 0, 65, 57
1, 420761, Control_c, 0, 64, 75
1, 420775, Control_c, 0, 64, 58
1, 420790, Control_c, 0, 64, 48
1, 420796, Note_on_c, 0, 74, 60
1, 420805, Note_on_c, 0, 76, 44
1, 420805, Control_c, 0, 64, 53
1, 420820, Control_c, 0, 64, 59
1, 420831, Note_off_c, 0, 76, 54
1, 420835, Control_c, 0, 64, 65
1, 420848, Note_off_c, 0, 74, 60
1, 420850, Control_c, 0, 64, 73
1, 420865, Control_c, 0, 64, 95
1, 420880, Control_c, 0, 64, 127
1, 420881, Note_on_c, 0, 70, 40
1, 420881, Note_off_c, 0, 53, 54
1, 420903, Note_off_c, 0, 43, 40
1, 420915, Note_off_c, 0, 70, 65
1, 420915, Note_off_c, 0, 50, 40
1, 420922, Note_off_c, 0, 56, 62
1, 420935, Note_on_c, 0, 68, 56
1, 420958, Note_off_c, 0, 68, 60
1, 420983, Control_c, 0, 64, 103
1, 420998, Control_c, 0, 64, 74
1, 421013, Control_c, 0, 64, 56
1, 421014, Note_on_c, 0, 77, 66
1, 421014, Note_on_c, 0, 79, 65
1, 421018, Poly_aftertouch_c, 0, 67, 0
1, 421028, Control_c, 0, 64, 0
1, 421049, Control_c, 0, 64, 19
1, 421064, Control_c, 0, 64, 42
1, 421079, Control_c, 0, 64, 60
1, 421084, Note_off_c, 0, 79, 60
1, 421088, Note_on_c, 0, 74, 60
1, 421094, Control_c, 0, 64, 68
1, 421095, Note_off_c, 0, 77, 61
1, 421109, Control_c, 0, 64, 79
1, 421118, Note_off_c, 0, 74, 66
1, 421124, Control_c, 0, 64, 107
1, 421139, Control_c, 0, 64, 127
1, 421162, Note_on_c, 0, 71, 63
1, 421213, Control_c, 0, 64, 122
1, 421225, Note_off_c, 0, 71, 57
1, 421228, Control_c, 0, 64, 82
1, 421240, Note_on_c, 0, 80, 72
1, 421243, Control_c, 0, 64, 62
1, 421257, Control_c, 0, 64, 36
1, 421272, Control_c, 0, 64, 29
1, 421287, Control_c, 0, 64, 40
1, 421303, Control_c, 0, 64, 53
1, 421317, Control_c, 0, 64, 62
1, 421318, Note_on_c, 0, 77, 67
1, 421327, Note_off_c, 0, 80, 63
1, 421332, Control_c, 0, 64, 67
1, 421347, Control_c, 0, 64, 73
1, 421362, Control_c, 0, 64, 80
1, 421377, Control_c, 0, 64, 87
1, 421391, Control_c, 0, 64, 88
1, 421398, Note_on_c, 0, 74, 61
1, 421404, Note_off_c, 0, 77, 60
1, 421406, Control_c, 0, 64, 82
1, 421421, Control_c, 0, 64, 70
1, 421436, Control_c, 0, 64, 59
1, 421440, Note_off_c, 0, 74, 58
1, 421451, Control_c, 0, 64, 46
1, 421459, Note_on_c, 0, 83, 75
1, 421465, Control_c, 0, 64, 48
1, 421480, Control_c, 0, 64, 53
1, 421495, Control_c, 0, 64, 59
1, 421510, Control_c, 0, 64, 64
1, 421524, Control_c, 0, 64, 67
1, 421538, Note_on_c, 0, 80, 72
1, 421539, Control_c, 0, 64, 71
1, 421540, Note_off_c, 0, 83, 63
1, 421554, Control_c, 0, 64, 74
1, 421569, Control_c, 0, 64, 74
1, 421584, Control_c, 0, 64, 74
1, 421586, Note_off_c, 0, 80, 64
1, 421598, Control_c, 0, 64, 72
1, 421609, Note_on_c, 0, 77, 70
1, 421613, Control_c, 0, 64, 71
1, 421628, Control_c, 0, 64, 70
1, 421643, Control_c, 0, 64, 67
1, 421658, Control_c, 0, 64, 64
1, 421673, Control_c, 0, 64, 61
1, 421684, Note_off_c, 0, 77, 57
1, 421687, Control_c, 0, 64, 57
1, 421698, Note_on_c, 0, 86, 66
1, 421702, Control_c, 0, 64, 55
1, 421717, Control_c, 0, 64, 54
1, 421732, Control_c, 0, 64, 53
1, 421747, Control_c, 0, 64, 52
1, 421762, Control_c, 0, 64, 52
1, 421762, Note_off_c, 0, 86, 63
1, 421774, Note_on_c, 0, 83, 62
1, 421777, Control_c, 0, 64, 51
1, 421798, Control_c, 0, 64, 50
1, 421813, Control_c, 0, 64, 49
1, 421828, Control_c, 0, 64, 48
1, 421843, Control_c, 0, 64, 47
1, 421845, Note_on_c, 0, 80, 68
1, 421846, Note_off_c, 0, 83, 63
1, 421858, Control_c, 0, 64, 46
1, 421872, Control_c, 0, 64, 45
1, 421887, Control_c, 0, 64, 45
1, 421898, Note_off_c, 0, 80, 63
1, 421902, Control_c, 0, 64, 44
1, 421914, Note_on_c, 0, 89, 76
1, 421917, Control_c, 0, 64, 43
1, 421932, Control_c, 0, 64, 43
1, 421947, Control_c, 0, 64, 42
1, 421962, Control_c, 0, 64, 42
1, 421991, Note_off_c, 0, 89, 61
1, 421993, Note_on_c, 0, 86, 60
1, 422006, Control_c, 0, 64, 41
1, 422026, Note_off_c, 0, 86, 65
1, 422063, Note_on_c, 0, 83, 62
1, 422126, Note_off_c, 0, 83, 58
1, 422132, Note_on_c, 0, 92, 78
1, 422216, Note_on_c, 0, 89, 69
1, 422237, Note_off_c, 0, 92, 65
1, 422274, Control_c, 0, 67, 8
1, 422288, Control_c, 0, 67, 17
1, 422290, Note_on_c, 0, 86, 71
1, 422303, Note_off_c, 0, 89, 61
1, 422303, Control_c, 0, 67, 29
1, 422318, Control_c, 0, 67, 39
1, 422333, Control_c, 0, 67, 51
1, 422345, Note_off_c, 0, 86, 60
1, 422347, Control_c, 0, 67, 62
1, 422358, Note_on_c, 0, 83, 68
1, 422362, Control_c, 0, 67, 72
1, 422377, Control_c, 0, 67, 79
1, 422392, Control_c, 0, 67, 84
1, 422407, Control_c, 0, 67, 89
1, 422419, Note_off_c, 0, 83, 64
1, 422421, Control_c, 0, 67, 92
1, 422436, Control_c, 0, 67, 94
1, 422440, Note_on_c, 0, 86, 65
1, 422451, Control_c, 0, 67, 95
1, 422465, Control_c, 0, 67, 95
1, 422492, Note_on_c, 0, 89, 74
1, 422508, Note_off_c, 0, 86, 62
1, 422547, Control_c, 0, 67, 96
1, 422562, Control_c, 0, 67, 97
1, 422578, Note_off_c, 0, 89, 59
1, 422591, Note_on_c, 0, 80, 73
1, 422592, Control_c, 0, 67, 97
1, 422635, Note_off_c, 0, 80, 56
1, 422636, Control_c, 0, 67, 98
1, 422651, Control_c, 0, 67, 99
1, 422654, Note_on_c, 0, 83, 64
1, 422680, Control_c, 0, 67, 99
1, 422695, Control_c, 0, 67, 102
1, 422710, Control_c, 0, 67, 103
1, 422731, Note_off_c, 0, 83, 65
1, 422740, Note_on_c, 0, 86, 63
1, 422784, Control_c, 0, 67, 102
1, 422799, Note_off_c, 0, 86, 59
1, 422799, Control_c, 0, 67, 101
1, 422813, Note_on_c, 0, 77, 61
1, 422814, Control_c, 0, 67, 100
1, 422844, Control_c, 0, 67, 100
1, 422871, Note_off_c, 0, 77, 63
1, 422873, Control_c, 0, 67, 99
1, 422874, Note_on_c, 0, 80, 69
1, 422904, Control_c, 0, 67, 99
1, 422944, Note_off_c, 0, 80, 63
1, 422963, Control_c, 0, 67, 98
1, 422966, Note_on_c, 0, 83, 54
1, 422993, Control_c, 0, 67, 97
1, 423008, Control_c, 0, 67, 97
1, 423020, Note_off_c, 0, 83, 51
1, 423032, Note_on_c, 0, 74, 60
1, 423037, Control_c, 0, 67, 96
1, 423067, Control_c, 0, 67, 95
1, 423098, Note_off_c, 0, 74, 63
1, 423106, Note_on_c, 0, 77, 65
1, 423141, Control_c, 0, 67, 95
1, 423171, Note_off_c, 0, 77, 63
1, 423181, Note_on_c, 0, 80, 63
1, 423215, Control_c, 0, 67, 94
1, 423230, Control_c, 0, 67, 94
1, 423244, Control_c, 0, 67, 93
1, 423246, Note_off_c, 0, 80, 62
1, 423259, Control_c, 0, 67, 92
1, 423270, Note_on_c, 0, 71, 61
1, 423274, Control_c, 0, 67, 92
1, 423311, Control_c, 0, 67, 91
1, 423333, Note_off_c, 0, 71, 59
1, 423341, Control_c, 0, 67, 90
1, 423343, Note_on_c, 0, 74, 57
1, 423395, Note_off_c, 0, 74, 61
1, 423400, Note_on_c, 0, 77, 67
1, 423444, Control_c, 0, 67, 92
1, 423458, Note_off_c, 0, 77, 59
1, 423474, Control_c, 0, 67, 92
1, 423489, Control_c, 0, 67, 93
1, 423489, Note_on_c, 0, 68, 73
1, 423545, Note_off_c, 0, 68, 63
1, 423552, Note_on_c, 0, 71, 69
1, 423577, Control_c, 0, 67, 94
1, 423642, Note_off_c, 0, 71, 63
1, 423648, Note_on_c, 0, 74, 65
1, 423694, Note_off_c, 0, 74, 58
1, 423707, Note_on_c, 0, 67, 63
1, 423712, Control_c, 0, 67, 93
1, 423726, Control_c, 0, 64, 41
1, 423726, Control_c, 0, 67, 92
1, 423756, Control_c, 0, 67, 92
1, 423777, Note_off_c, 0, 67, 62
1, 423783, Note_on_c, 0, 68, 70
1, 423801, Control_c, 0, 64, 40
1, 423831, Control_c, 0, 67, 91
1, 423846, Note_off_c, 0, 68, 61
1, 423861, Note_on_c, 0, 67, 66
1, 423890, Control_c, 0, 67, 90
1, 423921, Note_off_c, 0, 67, 61
1, 423931, Note_on_c, 0, 68, 65
1, 423949, Control_c, 0, 64, 40
1, 423964, Control_c, 0, 67, 90
1, 423986, Note_off_c, 0, 68, 60
1, 423993, Control_c, 0, 64, 39
1, 424007, Note_on_c, 0, 70, 60
1, 424081, Note_on_c, 0, 68, 61
1, 424090, Note_off_c, 0, 70, 59
1, 424133, Note_off_c, 0, 68, 59
1, 424155, Note_on_c, 0, 67, 59
1, 424212, Note_off_c, 0, 67, 60
1, 424227, Note_on_c, 0, 68, 60
1, 424266, Control_c, 0, 64, 39
1, 424275, Note_off_c, 0, 68, 59
1, 424302, Note_on_c, 0, 67, 55
1, 424311, Control_c, 0, 67, 89
1, 424340, Control_c, 0, 64, 38
1, 424355, Note_off_c, 0, 67, 59
1, 424370, Control_c, 0, 64, 38
1, 424370, Control_c, 0, 67, 89
1, 424382, Note_on_c, 0, 68, 64
1, 424400, Control_c, 0, 64, 37
1, 424422, Note_off_c, 0, 68, 63
1, 424445, Control_c, 0, 64, 37
1, 424454, Note_on_c, 0, 70, 55
1, 424527, Note_on_c, 0, 68, 60
1, 424535, Note_off_c, 0, 70, 55
1, 424570, Note_off_c, 0, 68, 61
1, 424603, Note_on_c, 0, 67, 52
1, 424654, Note_off_c, 0, 67, 60
1, 424674, Note_on_c, 0, 68, 59
1, 424728, Note_off_c, 0, 68, 58
1, 424756, Note_on_c, 0, 67, 59
1, 424812, Note_off_c, 0, 67, 57
1, 424840, Note_on_c, 0, 68, 66
1, 424884, Note_off_c, 0, 68, 57
1, 424908, Note_on_c, 0, 70, 63
1, 424956, Control_c, 0, 67, 88
1, 424979, Note_on_c, 0, 68, 62
1, 424990, Note_off_c, 0, 70, 56
1, 425026, Note_off_c, 0, 68, 58
1, 425048, Note_on_c, 0, 67, 63
1, 425104, Control_c, 0, 64, 37
1, 425118, Note_off_c, 0, 67, 62
1, 425119, Control_c, 0, 64, 38
1, 425133, Note_on_c, 0, 68, 67
1, 425133, Control_c, 0, 64, 38
1, 425148, Control_c, 0, 64, 39
1, 425178, Control_c, 0, 64, 39
1, 425193, Control_c, 0, 64, 40
1, 425193, Control_c, 0, 67, 87
1, 425200, Note_off_c, 0, 68, 62
1, 425208, Note_on_c, 0, 67, 64
1, 425278, Note_off_c, 0, 67, 62
1, 425290, Note_on_c, 0, 68, 65
1, 425298, Control_c, 0, 64, 40
1, 425354, Note_off_c, 0, 68, 62
1, 425375, Note_on_c, 0, 70, 63
1, 425449, Note_on_c, 0, 68, 69
1, 425449, Note_off_c, 0, 70, 60
1, 425557, Note_off_c, 0, 68, 57
1, 425572, Note_on_c, 0, 70, 64
1, 425646, Control_c, 0, 67, 88
1, 425658, Note_off_c, 0, 70, 59
1, 425661, Control_c, 0, 67, 89
1, 425664, Note_on_c, 0, 69, 64
1, 425691, Control_c, 0, 67, 89
1, 425706, Control_c, 0, 67, 90
1, 425720, Control_c, 0, 67, 90
1, 425735, Control_c, 0, 67, 92
1, 425750, Control_c, 0, 67, 92
1, 425764, Control_c, 0, 67, 94
1, 425779, Control_c, 0, 67, 94
1, 425794, Control_c, 0, 67, 95
1, 425809, Control_c, 0, 67, 97
1, 425824, Control_c, 0, 67, 98
1, 425828, Note_on_c, 0, 70, 54
1, 425838, Control_c, 0, 67, 99
1, 425840, Note_off_c, 0, 69, 57
1, 425853, Control_c, 0, 67, 100
1, 425868, Control_c, 0, 67, 101
1, 425883, Control_c, 0, 67, 102
1, 425890, Note_off_c, 0, 70, 61
1, 425897, Control_c, 0, 64, 42
1, 425912, Control_c, 0, 64, 48
1, 425920, Note_on_c, 0, 72, 54
1, 425927, Control_c, 0, 64, 55
1, 425942, Control_c, 0, 64, 61
1, 425957, Control_c, 0, 64, 64
1, 425971, Note_on_c, 0, 70, 47
1, 425971, Control_c, 0, 64, 65
1, 425971, Control_c, 0, 67, 101
1, 425986, Control_c, 0, 64, 66
1, 425986, Control_c, 0, 67, 100
1, 425995, Note_off_c, 0, 72, 58
1, 426001, Control_c, 0, 67, 100
1, 426016, Control_c, 0, 67, 99
1, 426045, Control_c, 0, 64, 65
1, 426046, Note_off_c, 0, 70, 65
1, 426072, Note_on_c, 0, 71, 49
1, 426075, Control_c, 0, 64, 65
1, 426091, Control_c, 0, 64, 64
1, 426091, Control_c, 0, 67, 100
1, 426106, Control_c, 0, 64, 64
1, 426106, Control_c, 0, 67, 100
1, 426111, Note_off_c, 0, 71, 62
1, 426121, Control_c, 0, 64, 63
1, 426121, Control_c, 0, 67, 101
1, 426126, Note_on_c, 0, 72, 54
1, 426135, Control_c, 0, 64, 62
1, 426150, Control_c, 0, 64, 61
1, 426150, Control_c, 0, 67, 102
1, 426165, Control_c, 0, 64, 58
1, 426165, Control_c, 0, 67, 102
1, 426176, Note_off_c, 0, 72, 64
1, 426180, Control_c, 0, 64, 56
1, 426180, Control_c, 0, 67, 103
1, 426190, Note_on_c, 0, 71, 72
1, 426195, Control_c, 0, 64, 54
1, 426195, Control_c, 0, 67, 104
1, 426209, Control_c, 0, 64, 54
1, 426209, Control_c, 0, 67, 105
1, 426224, Control_c, 0, 64, 52
1, 426224, Control_c, 0, 67, 105
1, 426239, Note_off_c, 0, 71, 63
1, 426239, Control_c, 0, 64, 51
1, 426239, Control_c, 0, 67, 106
1, 426254, Control_c, 0, 64, 48
1, 426254, Control_c, 0, 67, 107
1, 426269, Control_c, 0, 64, 47
1, 426291, Control_c, 0, 64, 46
1, 426294, Note_on_c, 0, 67, 62
1, 426306, Control_c, 0, 64, 45
1, 426321, Control_c, 0, 64, 44
1, 426321, Control_c, 0, 67, 110
1, 426332, Note_off_c, 0, 67, 63
1, 426336, Control_c, 0, 64, 44
1, 426336, Control_c, 0, 67, 117
1, 426350, Control_c, 0, 64, 43
1, 426350, Control_c, 0, 67, 123
1, 426364, Control_c, 0, 64, 43
1, 426364, Control_c, 0, 67, 127
1, 426367, Note_on_c, 0, 68, 62
1, 426379, Control_c, 0, 67, 127
1, 426394, Control_c, 0, 64, 42
1, 426414, Note_off_c, 0, 68, 60
1, 426424, Control_c, 0, 64, 42
1, 426430, Note_on_c, 0, 67, 69
1, 426439, Control_c, 0, 64, 41
1, 426454, Control_c, 0, 64, 41
1, 426459, Note_off_c, 0, 67, 64
1, 426468, Control_c, 0, 64, 40
1, 426483, Control_c, 0, 64, 39
1, 426498, Control_c, 0, 64, 38
1, 426510, Note_on_c, 0, 63, 65
1, 426512, Control_c, 0, 64, 37
1, 426514, Note_on_c, 0, 60, 59
1, 426516, Note_on_c, 0, 67, 57
1, 426522, Note_on_c, 0, 72, 70
1, 426527, Control_c, 0, 64, 36
1, 426527, Control_c, 0, 67, 125
1, 426540, Note_off_c, 0, 63, 64
1, 426542, Control_c, 0, 67, 122
1, 426548, Note_off_c, 0, 60, 65
1, 426549, Note_off_c, 0, 67, 65
1, 426552, Note_off_c, 0, 72, 62
1, 426557, Control_c, 0, 64, 36
1, 426557, Control_c, 0, 67, 120
1, 426572, Control_c, 0, 67, 118
1, 426586, Control_c, 0, 67, 117
1, 426601, Control_c, 0, 67, 115
1, 426616, Control_c, 0, 67, 114
1, 426631, Control_c, 0, 67, 113
1, 426636, Note_on_c, 0, 71, 63
1, 426646, Control_c, 0, 67, 112
1, 426660, Control_c, 0, 67, 110
1, 426675, Control_c, 0, 67, 109
1, 426749, Note_off_c, 0, 71, 58
1, 426758, Note_on_c, 0, 72, 60
1, 426790, Note_off_c, 0, 72, 66
1, 426894, Note_on_c, 0, 74, 55
1, 426987, Control_c, 0, 67, 109
1, 427005, Note_off_c, 0, 74, 58
1, 427016, Note_on_c, 0, 60, 37
1, 427017, Note_on_c, 0, 67, 35
1, 427017, Note_on_c, 0, 75, 60
1, 427032, Note_on_c, 0, 63, 41
1, 427039, Control_c, 0, 67, 108
1, 427058, Note_off_c, 0, 75, 65
1, 427086, Note_off_c, 0, 63, 60
1, 427094, Note_off_c, 0, 60, 60
1, 427098, Control_c, 0, 67, 107
1, 427101, Note_off_c, 0, 67, 57
1, 427128, Control_c, 0, 67, 107
1, 427151, Note_on_c, 0, 78, 65
1, 427157, Control_c, 0, 67, 106
1, 427172, Control_c, 0, 67, 105
1, 427202, Control_c, 0, 67, 105
1, 427232, Control_c, 0, 67, 104
1, 427282, Note_on_c, 0, 79, 65
1, 427289, Note_off_c, 0, 78, 64
1, 427314, Note_off_c, 0, 79, 65
1, 427395, Control_c, 0, 67, 105
1, 427410, Note_on_c, 0, 83, 68
1, 427439, Control_c, 0, 67, 105
1, 427469, Control_c, 0, 67, 106
1, 427528, Control_c, 0, 67, 107
1, 427545, Note_on_c, 0, 84, 63
1, 427548, Note_off_c, 0, 83, 63
1, 427572, Control_c, 0, 67, 107
1, 427574, Note_off_c, 0, 84, 68
1, 427616, Control_c, 0, 67, 108
1, 427676, Control_c, 0, 67, 109
1, 427679, Note_on_c, 0, 86, 59
1, 427765, Control_c, 0, 64, 37
1, 427788, Control_c, 0, 64, 41
1, 427803, Control_c, 0, 64, 49
1, 427805, Note_off_c, 0, 86, 62
1, 427814, Note_on_c, 0, 87, 62
1, 427818, Control_c, 0, 64, 57
1, 427818, Control_c, 0, 67, 109
1, 427832, Control_c, 0, 64, 63
1, 427832, Control_c, 0, 67, 110
1, 427843, Note_off_c, 0, 87, 67
1, 427848, Control_c, 0, 64, 67
1, 427863, Control_c, 0, 64, 72
1, 427878, Control_c, 0, 64, 79
1, 427878, Control_c, 0, 67, 109
1, 427893, Control_c, 0, 64, 88
1, 427893, Control_c, 0, 67, 109
1, 427907, Control_c, 0, 64, 99
1, 427922, Control_c, 0, 64, 114
1, 427922, Control_c, 0, 67, 108
1, 427937, Control_c, 0, 64, 119
1, 427937, Control_c, 0, 67, 107
1, 427938, Note_on_c, 0, 60, 67
1, 427938, Note_on_c, 0, 63, 67
1, 427938, Note_on_c, 0, 72, 73
1, 427941, Note_on_c, 0, 67, 66
1, 427952, Control_c, 0, 64, 106
1, 427952, Control_c, 0, 67, 107
1, 427964, Note_off_c, 0, 72, 67
1, 427966, Control_c, 0, 64, 95
1, 427966, Control_c, 0, 67, 106
1, 427972, Note_off_c, 0, 67, 64
1, 427974, Note_off_c, 0, 63, 59
1, 427975, Note_off_c, 0, 60, 62
1, 427981, Control_c, 0, 64, 82
1, 427981, Control_c, 0, 67, 105
1, 427996, Control_c, 0, 64, 71
1, 427996, Control_c, 0, 67, 104
1, 428011, Control_c, 0, 64, 62
1, 428026, Control_c, 0, 64, 50
1, 428026, Control_c, 0, 67, 104
1, 428040, Control_c, 0, 64, 44
1, 428061, Note_on_c, 0, 74, 70
1, 428064, Note_on_c, 0, 59, 65
1, 428066, Note_on_c, 0, 67, 64
1, 428069, Note_on_c, 0, 62, 58
1, 428085, Control_c, 0, 67, 103
1, 428096, Note_off_c, 0, 67, 63
1, 428100, Control_c, 0, 64, 43
1, 428100, Control_c, 0, 67, 102
1, 428102, Note_off_c, 0, 62, 64
1, 428105, Note_off_c, 0, 59, 60
1, 428108, Note_off_c, 0, 74, 53
1, 428114, Control_c, 0, 64, 42
1, 428114, Control_c, 0, 67, 102
1, 428129, Control_c, 0, 64, 41
1, 428129, Control_c, 0, 67, 100
1, 428144, Control_c, 0, 64, 41
1, 428144, Control_c, 0, 67, 99
1, 428159, Control_c, 0, 64, 40
1, 428159, Control_c, 0, 67, 98
1, 428174, Control_c, 0, 64, 40
1, 428189, Control_c, 0, 67, 97
1, 428192, Note_on_c, 0, 73, 67
1, 428219, Control_c, 0, 67, 97
1, 428248, Control_c, 0, 67, 96
1, 428263, Control_c, 0, 64, 39
1, 428263, Control_c, 0, 67, 95
1, 428314, Note_on_c, 0, 74, 64
1, 428321, Note_off_c, 0, 73, 64
1, 428347, Note_off_c, 0, 74, 65
1, 428352, Control_c, 0, 67, 95
1, 428444, Note_on_c, 0, 76, 69
1, 428455, Control_c, 0, 64, 39
1, 428470, Control_c, 0, 67, 94
1, 428516, Control_c, 0, 67, 94
1, 428573, Note_off_c, 0, 76, 63
1, 428573, Note_on_c, 0, 77, 67
1, 428586, Note_on_c, 0, 59, 54
1, 428587, Note_on_c, 0, 67, 58
1, 428592, Note_on_c, 0, 62, 54
1, 428601, Note_off_c, 0, 77, 66
1, 428630, Note_off_c, 0, 62, 63
1, 428636, Note_off_c, 0, 67, 56
1, 428638, Note_off_c, 0, 59, 60
1, 428698, Note_on_c, 0, 82, 74
1, 428804, Control_c, 0, 64, 38
1, 428831, Note_on_c, 0, 83, 70
1, 428845, Note_off_c, 0, 82, 64
1, 428861, Note_off_c, 0, 83, 65
1, 428908, Control_c, 0, 67, 94
1, 428952, Note_on_c, 0, 85, 76
1, 429056, Control_c, 0, 67, 95
1, 429080, Note_on_c, 0, 86, 73
1, 429086, Control_c, 0, 67, 95
1, 429092, Note_off_c, 0, 85, 65
1, 429114, Note_off_c, 0, 86, 65
1, 429115, Control_c, 0, 67, 96
1, 429130, Control_c, 0, 67, 97
1, 429160, Control_c, 0, 67, 97
1, 429202, Note_on_c, 0, 88, 75
1, 429219, Control_c, 0, 67, 98
1, 429316, Control_c, 0, 64, 42
1, 429327, Note_off_c, 0, 88, 64
1, 429331, Control_c, 0, 64, 50
1, 429333, Note_on_c, 0, 89, 72
1, 429346, Control_c, 0, 64, 57
1, 429359, Note_off_c, 0, 89, 67
1, 429360, Control_c, 0, 64, 63
1, 429375, Control_c, 0, 64, 66
1, 429390, Control_c, 0, 64, 71
1, 429390, Control_c, 0, 67, 97
1, 429405, Control_c, 0, 64, 77
1, 429405, Control_c, 0, 67, 97
1, 429420, Control_c, 0, 64, 84
1, 429420, Control_c, 0, 67, 96
1, 429435, Control_c, 0, 64, 92
1, 429435, Control_c, 0, 67, 95
1, 429450, Control_c, 0, 64, 95
1, 429457, Note_on_c, 0, 74, 82
1, 429460, Note_on_c, 0, 59, 61
1, 429461, Note_on_c, 0, 62, 65
1, 429462, Note_on_c, 0, 67, 69
1, 429465, Control_c, 0, 64, 94
1, 429465, Control_c, 0, 67, 95
1, 429479, Control_c, 0, 64, 90
1, 429487, Note_off_c, 0, 74, 61
1, 429489, Note_off_c, 0, 67, 67
1, 429490, Note_off_c, 0, 59, 66
1, 429494, Control_c, 0, 64, 85
1, 429494, Control_c, 0, 67, 94
1, 429503, Note_off_c, 0, 62, 60
1, 429509, Control_c, 0, 64, 77
1, 429524, Control_c, 0, 64, 68
1, 429538, Control_c, 0, 64, 61
1, 429553, Control_c, 0, 64, 52
1, 429568, Control_c, 0, 64, 46
1, 429572, Note_on_c, 0, 60, 57
1, 429573, Note_on_c, 0, 76, 78
1, 429576, Note_on_c, 0, 67, 72
1, 429581, Note_on_c, 0, 64, 59
1, 429583, Control_c, 0, 64, 45
1, 429584, Note_on_c, 0, 58, 68
1, 429607, Note_off_c, 0, 67, 63
1, 429620, Note_off_c, 0, 64, 64
1, 429623, Note_off_c, 0, 58, 60
1, 429624, Note_off_c, 0, 60, 60
1, 429627, Control_c, 0, 64, 45
1, 429642, Control_c, 0, 64, 44
1, 429642, Control_c, 0, 67, 94
1, 429657, Control_c, 0, 64, 43
1, 429657, Control_c, 0, 67, 93
1, 429661, Note_off_c, 0, 76, 53
1, 429672, Control_c, 0, 64, 43
1, 429672, Control_c, 0, 67, 92
1, 429686, Control_c, 0, 64, 42
1, 429696, Note_on_c, 0, 75, 74
1, 429701, Control_c, 0, 67, 92
1, 429716, Control_c, 0, 64, 41
1, 429760, Control_c, 0, 67, 91
1, 429775, Control_c, 0, 67, 90
1, 429790, Control_c, 0, 67, 88
1, 429804, Control_c, 0, 67, 87
1, 429813, Note_on_c, 0, 76, 64
1, 429824, Note_off_c, 0, 75, 62
1, 429834, Control_c, 0, 67, 86
1, 429849, Note_off_c, 0, 76, 67
1, 429879, Control_c, 0, 67, 86
1, 429909, Control_c, 0, 67, 85
1, 429949, Note_on_c, 0, 78, 74
1, 429983, Control_c, 0, 67, 84
1, 429997, Control_c, 0, 67, 84
1, 430012, Control_c, 0, 67, 81
1, 430034, Control_c, 0, 67, 70
1, 430049, Control_c, 0, 67, 54
1, 430064, Control_c, 0, 67, 37
1, 430078, Note_on_c, 0, 79, 73
1, 430079, Control_c, 0, 64, 41
1, 430079, Control_c, 0, 67, 18
1, 430082, Note_off_c, 0, 78, 64
1, 430088, Note_on_c, 0, 67, 67
1, 430094, Note_on_c, 0, 64, 61
1, 430094, Control_c, 0, 67, 0
1, 430097, Note_on_c, 0, 58, 59
1, 430097, Note_on_c, 0, 60, 59
1, 430114, Note_off_c, 0, 79, 65
1, 430128, Note_off_c, 0, 67, 58
1, 430135, Note_off_c, 0, 64, 61
1, 430140, Note_off_c, 0, 58, 60
1, 430144, Note_off_c, 0, 60, 62
1, 430210, Note_on_c, 0, 83, 80
1, 430326, Note_off_c, 0, 83, 63
1, 430331, Note_on_c, 0, 84, 75
1, 430363, Note_off_c, 0, 84, 62
1, 430451, Note_on_c, 0, 87, 81
1, 430579, Note_on_c, 0, 88, 74
1, 430589, Note_off_c, 0, 87, 62
1, 430611, Note_off_c, 0, 88, 66
1, 430702, Note_on_c, 0, 90, 80
1, 430812, Control_c, 0, 64, 44
1, 430827, Control_c, 0, 64, 50
1, 430832, Note_off_c, 0, 90, 58
1, 430834, Note_on_c, 0, 91, 74
1, 430842, Control_c, 0, 64, 57
1, 430857, Control_c, 0, 64, 62
1, 430862, Note_off_c, 0, 91, 67
1, 430872, Control_c, 0, 64, 66
1, 430887, Control_c, 0, 64, 69
1, 430902, Control_c, 0, 64, 75
1, 430917, Control_c, 0, 64, 86
1, 430931, Control_c, 0, 64, 101
1, 430946, Control_c, 0, 64, 127
1, 430951, Note_on_c, 0, 58, 72
1, 430957, Note_on_c, 0, 67, 67
1, 430959, Note_on_c, 0, 64, 58
1, 430959, Note_on_c, 0, 76, 88
1, 430969, Note_on_c, 0, 60, 60
1, 430988, Note_off_c, 0, 64, 65
1, 430988, Note_off_c, 0, 67, 65
1, 430995, Note_off_c, 0, 76, 62
1, 430999, Note_off_c, 0, 60, 65
1, 431009, Note_off_c, 0, 58, 65
1, 431021, Control_c, 0, 64, 96
1, 431036, Control_c, 0, 64, 81
1, 431050, Control_c, 0, 64, 69
1, 431065, Control_c, 0, 64, 60
1, 431080, Control_c, 0, 64, 46
1, 431080, Note_on_c, 0, 60, 77
1, 431080, Note_on_c, 0, 77, 87
1, 431083, Note_on_c, 0, 65, 78
1, 431085, Note_on_c, 0, 57, 73
1, 431095, Control_c, 0, 64, 40
1, 431128, Note_off_c, 0, 60, 63
1, 431134, Note_off_c, 0, 65, 61
1, 431139, Control_c, 0, 64, 39
1, 431144, Note_off_c, 0, 57, 63
1, 431154, Control_c, 0, 64, 38
1, 431169, Control_c, 0, 64, 38
1, 431170, Note_off_c, 0, 77, 52
1, 431183, Control_c, 0, 64, 37
1, 431200, Note_on_c, 0, 76, 77
1, 431317, Note_off_c, 0, 76, 61
1, 431318, Note_on_c, 0, 77, 75
1, 431361, Note_off_c, 0, 77, 63
1, 431441, Note_on_c, 0, 80, 80
1, 431581, Note_on_c, 0, 81, 76
1, 431586, Note_on_c, 0, 60, 67
1, 431588, Note_on_c, 0, 65, 69
1, 431592, Note_off_c, 0, 80, 63
1, 431594, Note_on_c, 0, 57, 61
1, 431626, Note_off_c, 0, 60, 64
1, 431628, Note_off_c, 0, 81, 65
1, 431629, Note_off_c, 0, 65, 59
1, 431638, Note_off_c, 0, 57, 63
1, 431706, Note_on_c, 0, 83, 83
1, 431828, Note_off_c, 0, 83, 63
1, 431831, Note_on_c, 0, 84, 76
1, 431868, Note_off_c, 0, 84, 65
1, 431957, Note_on_c, 0, 87, 81
1, 432080, Note_on_c, 0, 88, 71
1, 432087, Note_off_c, 0, 87, 64
1, 432111, Note_off_c, 0, 88, 66
1, 432202, Note_on_c, 0, 92, 94
1, 432335, Note_on_c, 0, 93, 81
1, 432335, Note_off_c, 0, 92, 63
1, 432340, Control_c, 0, 64, 40
1, 432355, Control_c, 0, 64, 45
1, 432366, Note_off_c, 0, 93, 65
1, 432370, Control_c, 0, 64, 51
1, 432385, Control_c, 0, 64, 56
1, 432400, Control_c, 0, 64, 59
1, 432414, Control_c, 0, 64, 62
1, 432429, Control_c, 0, 64, 63
1, 432444, Control_c, 0, 64, 65
1, 432459, Control_c, 0, 64, 67
1, 432461, Note_on_c, 0, 60, 73
1, 432469, Note_on_c, 0, 77, 91
1, 432472, Note_on_c, 0, 57, 61
1, 432475, Control_c, 0, 64, 68
1, 432479, Note_on_c, 0, 65, 61
1, 432490, Control_c, 0, 64, 70
1, 432502, Note_off_c, 0, 57, 66
1, 432505, Note_off_c, 0, 65, 63
1, 432510, Note_off_c, 0, 77, 61
1, 432519, Control_c, 0, 64, 69
1, 432523, Note_off_c, 0, 60, 65
1, 432534, Control_c, 0, 64, 68
1, 432549, Control_c, 0, 64, 68
1, 432564, Control_c, 0, 64, 67
1, 432578, Control_c, 0, 64, 65
1, 432581, Note_on_c, 0, 66, 83
1, 432586, Note_on_c, 0, 56, 72
1, 432587, Note_on_c, 0, 60, 54
1, 432587, Note_on_c, 0, 78, 94
1, 432588, Note_on_c, 0, 63, 70
1, 432593, Control_c, 0, 64, 63
1, 432608, Control_c, 0, 64, 60
1, 432622, Control_c, 0, 64, 56
1, 432632, Note_off_c, 0, 66, 62
1, 432637, Control_c, 0, 64, 53
1, 432644, Note_off_c, 0, 63, 59
1, 432651, Note_off_c, 0, 60, 64
1, 432652, Control_c, 0, 64, 50
1, 432658, Note_off_c, 0, 56, 62
1, 432666, Note_off_c, 0, 78, 58
1, 432667, Control_c, 0, 64, 49
1, 432682, Control_c, 0, 64, 48
1, 432711, Control_c, 0, 64, 47
1, 432714, Note_on_c, 0, 77, 84
1, 432741, Control_c, 0, 64, 47
1, 432800, Control_c, 0, 64, 46
1, 432830, Control_c, 0, 64, 46
1, 432835, Note_on_c, 0, 78, 90
1, 432845, Note_off_c, 0, 77, 57
1, 432860, Control_c, 0, 64, 45
1, 432874, Note_off_c, 0, 78, 68
1, 432890, Control_c, 0, 64, 45
1, 432904, Control_c, 0, 64, 44
1, 432934, Control_c, 0, 64, 44
1, 432954, Note_on_c, 0, 83, 91
1, 432978, Control_c, 0, 64, 43
1, 433074, Control_c, 0, 64, 43
1, 433083, Note_on_c, 0, 84, 86
1, 433089, Note_on_c, 0, 60, 72
1, 433089, Note_on_c, 0, 66, 79
1, 433092, Note_off_c, 0, 83, 63
1, 433093, Note_on_c, 0, 63, 72
1, 433096, Note_on_c, 0, 56, 69
1, 433104, Control_c, 0, 64, 42
1, 433119, Control_c, 0, 64, 42
1, 433131, Note_off_c, 0, 84, 65
1, 433141, Note_off_c, 0, 60, 63
1, 433143, Note_off_c, 0, 66, 62
1, 433149, Control_c, 0, 64, 41
1, 433149, Note_off_c, 0, 63, 58
1, 433152, Note_off_c, 0, 56, 54
1, 433206, Note_on_c, 0, 86, 90
1, 433208, Control_c, 0, 64, 41
1, 433267, Control_c, 0, 64, 40
1, 433298, Control_c, 0, 64, 40
1, 433333, Note_on_c, 0, 87, 87
1, 433338, Note_off_c, 0, 86, 65
1, 433373, Note_off_c, 0, 87, 66
1, 433386, Control_c, 0, 64, 39
1, 433450, Note_on_c, 0, 89, 94
1, 433519, Control_c, 0, 64, 39
1, 433578, Note_on_c, 0, 90, 89
1, 433588, Note_off_c, 0, 89, 61
1, 433626, Note_off_c, 0, 90, 66
1, 433653, Control_c, 0, 64, 38
1, 433690, Note_on_c, 0, 89, 92
1, 433787, Note_off_c, 0, 89, 55
1, 433793, Control_c, 0, 64, 39
1, 433808, Control_c, 0, 64, 44
1, 433823, Control_c, 0, 64, 50
1, 433826, Note_on_c, 0, 90, 85
1, 433838, Control_c, 0, 64, 56
1, 433852, Control_c, 0, 64, 60
1, 433867, Control_c, 0, 64, 63
1, 433881, Note_off_c, 0, 90, 64
1, 433882, Control_c, 0, 64, 66
1, 433897, Control_c, 0, 64, 71
1, 433912, Control_c, 0, 64, 77
1, 433927, Control_c, 0, 64, 86
1, 433942, Control_c, 0, 64, 95
1, 433946, Note_on_c, 0, 90, 90
1, 433954, Note_on_c, 0, 60, 72
1, 433957, Note_on_c, 0, 66, 75
1, 433957, Control_c, 0, 64, 103
1, 433958, Note_on_c, 0, 63, 74
1, 433959, Note_on_c, 0, 56, 63
1, 433972, Control_c, 0, 64, 103
1, 433983, Note_off_c, 0, 66, 67
1, 433986, Control_c, 0, 64, 96
1, 433992, Note_off_c, 0, 56, 64
1, 434001, Control_c, 0, 64, 89
1, 434005, Note_off_c, 0, 60, 59
1, 434016, Note_off_c, 0, 63, 58
1, 434016, Control_c, 0, 64, 81
1, 434031, Control_c, 0, 64, 72
1, 434046, Control_c, 0, 64, 64
1, 434059, Note_on_c, 0, 91, 94
1, 434060, Control_c, 0, 64, 51
1, 434064, Note_on_c, 0, 67, 91
1, 434070, Note_on_c, 0, 55, 77
1, 434072, Note_on_c, 0, 63, 57
1, 434073, Note_off_c, 0, 90, 64
1, 434076, Control_c, 0, 64, 29
1, 434081, Note_on_c, 0, 60, 60
1, 434091, Control_c, 0, 64, 0
1, 434130, Note_off_c, 0, 67, 59
1, 434131, Note_off_c, 0, 60, 62
1, 434131, Note_off_c, 0, 91, 63
1, 434133, Note_off_c, 0, 55, 62
1, 434138, Note_off_c, 0, 63, 54
1, 434184, Note_on_c, 0, 79, 69
1, 434298, Note_off_c, 0, 79, 59
1, 434314, Note_on_c, 0, 80, 72
1, 434375, Note_off_c, 0, 80, 63
1, 434431, Note_on_c, 0, 79, 63
1, 434446, Control_c, 0, 64, 13
1, 434461, Control_c, 0, 64, 46
1, 434475, Control_c, 0, 64, 58
1, 434489, Note_off_c, 0, 79, 60
1, 434490, Control_c, 0, 64, 63
1, 434505, Control_c, 0, 64, 66
1, 434528, Control_c, 0, 64, 69
1, 434543, Control_c, 0, 64, 72
1, 434557, Control_c, 0, 64, 75
1, 434570, Note_on_c, 0, 80, 95
1, 434572, Control_c, 0, 64, 75
1, 434580, Note_on_c, 0, 65, 78
1, 434584, Note_on_c, 0, 74, 74
1, 434585, Note_on_c, 0, 60, 71
1, 434586, Control_c, 0, 64, 74
1, 434592, Note_on_c, 0, 53, 66
1, 434594, Note_on_c, 0, 56, 62
1, 434600, Control_c, 0, 64, 73
1, 434615, Control_c, 0, 64, 72
1, 434630, Control_c, 0, 64, 69
1, 434645, Control_c, 0, 64, 65
1, 434660, Control_c, 0, 64, 62
1, 434674, Control_c, 0, 64, 57
1, 434675, Note_off_c, 0, 74, 52
1, 434689, Control_c, 0, 64, 54
1, 434704, Control_c, 0, 64, 52
1, 434713, Note_on_c, 0, 72, 59
1, 434719, Control_c, 0, 64, 52
1, 434734, Control_c, 0, 64, 50
1, 434748, Control_c, 0, 64, 47
1, 434763, Control_c, 0, 64, 42
1, 434778, Control_c, 0, 64, 38
1, 434793, Control_c, 0, 64, 33
1, 434807, Control_c, 0, 64, 30
1, 434822, Control_c, 0, 64, 29
1, 434828, Note_on_c, 0, 74, 59
1, 434836, Note_off_c, 0, 72, 61
1, 434837, Control_c, 0, 64, 27
1, 434852, Control_c, 0, 64, 25
1, 434867, Control_c, 0, 64, 23
1, 434883, Control_c, 0, 64, 20
1, 434897, Control_c, 0, 64, 19
1, 434912, Control_c, 0, 64, 16
1, 434927, Control_c, 0, 64, 14
1, 434931, Note_off_c, 0, 53, 54
1, 434942, Control_c, 0, 64, 12
1, 434955, Note_off_c, 0, 65, 48
1, 434957, Control_c, 0, 64, 9
1, 434964, Note_off_c, 0, 74, 60
1, 434965, Note_on_c, 0, 72, 56
1, 434971, Control_c, 0, 64, 0
1, 434972, Note_off_c, 0, 60, 48
1, 435011, Note_off_c, 0, 56, 50
1, 435088, Note_off_c, 0, 72, 59
1, 435096, Note_on_c, 0, 74, 55
1, 435104, Control_c, 0, 67, 20
1, 435119, Control_c, 0, 67, 35
1, 435134, Control_c, 0, 67, 49
1, 435149, Control_c, 0, 67, 64
1, 435164, Control_c, 0, 67, 79
1, 435179, Control_c, 0, 67, 94
1, 435194, Control_c, 0, 67, 107
1, 435203, Note_off_c, 0, 74, 58
1, 435209, Control_c, 0, 67, 117
1, 435219, Note_on_c, 0, 72, 50
1, 435223, Control_c, 0, 67, 124
1, 435238, Control_c, 0, 67, 126
1, 435253, Control_c, 0, 67, 127
1, 435345, Note_off_c, 0, 72, 60
1, 435358, Note_on_c, 0, 74, 47
1, 435409, Control_c, 0, 67, 126
1, 435460, Note_off_c, 0, 74, 59
1, 435486, Note_on_c, 0, 72, 45
1, 435498, Control_c, 0, 67, 125
1, 435543, Control_c, 0, 67, 125
1, 435572, Control_c, 0, 67, 124
1, 435596, Note_off_c, 0, 72, 58
1, 435614, Note_on_c, 0, 74, 44
1, 435617, Control_c, 0, 67, 124
1, 435631, Control_c, 0, 67, 123
1, 435661, Control_c, 0, 67, 122
1, 435692, Control_c, 0, 64, 11
1, 435707, Control_c, 0, 64, 33
1, 435707, Control_c, 0, 67, 122
1, 435710, Note_off_c, 0, 74, 59
1, 435721, Control_c, 0, 64, 46
1, 435736, Control_c, 0, 64, 54
1, 435738, Note_on_c, 0, 72, 42
1, 435751, Control_c, 0, 64, 58
1, 435766, Control_c, 0, 64, 61
1, 435766, Control_c, 0, 67, 121
1, 435781, Control_c, 0, 64, 62
1, 435781, Control_c, 0, 67, 120
1, 435795, Control_c, 0, 64, 63
1, 435802, Note_off_c, 0, 80, 48
1, 435810, Control_c, 0, 64, 64
1, 435825, Control_c, 0, 64, 64
1, 435828, Note_off_c, 0, 72, 57
1, 435840, Control_c, 0, 64, 65
1, 435854, Control_c, 0, 64, 67
1, 435862, Note_on_c, 0, 74, 41
1, 435869, Control_c, 0, 64, 68
1, 435884, Control_c, 0, 64, 71
1, 435899, Control_c, 0, 64, 73
1, 435912, Note_off_c, 0, 74, 60
1, 435914, Control_c, 0, 64, 75
1, 435928, Control_c, 0, 64, 77
1, 435943, Control_c, 0, 64, 79
1, 435958, Control_c, 0, 64, 79
1, 435972, Control_c, 0, 64, 79
1, 435983, Note_on_c, 0, 80, 63
1, 435985, Note_on_c, 0, 65, 57
1, 435987, Control_c, 0, 64, 78
1, 435992, Note_on_c, 0, 72, 52
1, 436002, Control_c, 0, 64, 76
1, 436025, Control_c, 0, 64, 73
1, 436025, Control_c, 0, 67, 120
1, 436033, Note_off_c, 0, 65, 63
1, 436040, Control_c, 0, 64, 67
1, 436040, Control_c, 0, 67, 119
1, 436043, Note_off_c, 0, 72, 62
1, 436054, Control_c, 0, 64, 62
1, 436059, Note_off_c, 0, 80, 63
1, 436069, Control_c, 0, 64, 54
1, 436084, Control_c, 0, 64, 43
1, 436099, Control_c, 0, 64, 37
1, 436104, Note_on_c, 0, 74, 57
1, 436109, Note_on_c, 0, 68, 52
1, 436114, Control_c, 0, 64, 36
1, 436115, Note_on_c, 0, 77, 56
1, 436128, Control_c, 0, 64, 35
1, 436143, Control_c, 0, 64, 33
1, 436152, Note_off_c, 0, 68, 60
1, 436158, Control_c, 0, 64, 29
1, 436158, Control_c, 0, 67, 119
1, 436172, Control_c, 0, 64, 24
1, 436172, Control_c, 0, 67, 118
1, 436180, Note_off_c, 0, 74, 57
1, 436187, Control_c, 0, 64, 20
1, 436202, Control_c, 0, 64, 18
1, 436202, Control_c, 0, 67, 117
1, 436217, Control_c, 0, 64, 17
1, 436217, Control_c, 0, 67, 117
1, 436228, Note_on_c, 0, 72, 52
1, 436232, Control_c, 0, 64, 16
1, 436235, Note_off_c, 0, 77, 53
1, 436246, Control_c, 0, 67, 116
1, 436261, Control_c, 0, 67, 115
1, 436276, Control_c, 0, 67, 115
1, 436291, Control_c, 0, 67, 114
1, 436336, Note_off_c, 0, 72, 59
1, 436362, Note_on_c, 0, 74, 43
1, 436410, Control_c, 0, 67, 114
1, 436429, Note_off_c, 0, 74, 55
1, 436478, Note_on_c, 0, 72, 40
1, 436500, Control_c, 0, 67, 113
1, 436514, Control_c, 0, 67, 112
1, 436574, Note_off_c, 0, 72, 53
1, 436603, Note_on_c, 0, 74, 36
1, 436605, Note_on_c, 0, 79, 46
1, 436614, Note_on_c, 0, 67, 38
1, 436633, Control_c, 0, 67, 112
1, 436691, Note_off_c, 0, 74, 54
1, 436693, Note_off_c, 0, 79, 51
1, 436707, Control_c, 0, 67, 111
1, 436717, Note_on_c, 0, 72, 45
1, 436725, Note_off_c, 0, 67, 54
1, 436737, Control_c, 0, 67, 110
1, 436774, Control_c, 0, 67, 110
1, 436803, Control_c, 0, 67, 109
1, 436836, Note_off_c, 0, 72, 55
1, 436845, Note_on_c, 0, 74, 43
1, 436891, Control_c, 0, 67, 109
1, 436936, Control_c, 0, 67, 108
1, 436953, Note_off_c, 0, 74, 57
1, 436980, Control_c, 0, 67, 107
1, 436985, Note_on_c, 0, 72, 42
1, 437024, Control_c, 0, 67, 107
1, 437063, Note_off_c, 0, 72, 53
1, 437069, Control_c, 0, 67, 106
1, 437096, Note_on_c, 0, 74, 48
1, 437128, Control_c, 0, 64, 17
1, 437143, Control_c, 0, 64, 22
1, 437143, Control_c, 0, 67, 105
1, 437150, Note_off_c, 0, 74, 53
1, 437158, Control_c, 0, 64, 30
1, 437173, Control_c, 0, 64, 40
1, 437173, Control_c, 0, 67, 105
1, 437188, Control_c, 0, 64, 49
1, 437188, Control_c, 0, 67, 104
1, 437202, Control_c, 0, 64, 56
1, 437202, Control_c, 0, 67, 104
1, 437213, Note_on_c, 0, 72, 44
1, 437217, Control_c, 0, 64, 60
1, 437217, Control_c, 0, 67, 103
1, 437232, Control_c, 0, 64, 62
1, 437232, Control_c, 0, 67, 102
1, 437247, Control_c, 0, 64, 64
1, 437247, Control_c, 0, 67, 100
1, 437263, Control_c, 0, 64, 66
1, 437263, Control_c, 0, 67, 99
1, 437278, Control_c, 0, 64, 67
1, 437278, Control_c, 0, 67, 99
1, 437292, Control_c, 0, 64, 69
1, 437292, Control_c, 0, 67, 98
1, 437294, Note_off_c, 0, 72, 56
1, 437307, Control_c, 0, 64, 72
1, 437322, Control_c, 0, 64, 76
1, 437322, Control_c, 0, 67, 97
1, 437337, Control_c, 0, 64, 81
1, 437337, Control_c, 0, 67, 97
1, 437346, Note_on_c, 0, 74, 50
1, 437352, Control_c, 0, 64, 85
1, 437352, Control_c, 0, 67, 96
1, 437366, Control_c, 0, 64, 88
1, 437366, Control_c, 0, 67, 95
1, 437377, Note_off_c, 0, 74, 58
1, 437381, Control_c, 0, 64, 90
1, 437381, Control_c, 0, 67, 94
1, 437382, Note_on_c, 0, 80, 47
1, 437396, Control_c, 0, 64, 91
1, 437396, Control_c, 0, 67, 89
1, 437410, Control_c, 0, 67, 84
1, 437425, Control_c, 0, 67, 81
1, 437440, Control_c, 0, 64, 90
1, 437440, Control_c, 0, 67, 79
1, 437442, Note_off_c, 0, 80, 0
1, 437455, Control_c, 0, 64, 89
1, 437463, Note_on_c, 0, 65, 51
1, 437465, Note_on_c, 0, 80, 28
1, 437470, Control_c, 0, 64, 88
1, 437471, Note_on_c, 0, 72, 64
1, 437485, Control_c, 0, 64, 86
1, 437499, Control_c, 0, 64, 83
1, 437518, Note_off_c, 0, 80, 63
1, 437519, Note_off_c, 0, 72, 58
1, 437522, Control_c, 0, 64, 79
1, 437522, Control_c, 0, 67, 80
1, 437526, Note_on_c, 0, 77, 39
1, 437530, Note_off_c, 0, 65, 56
1, 437537, Control_c, 0, 64, 73
1, 437537, Control_c, 0, 67, 82
1, 437552, Control_c, 0, 64, 66
1, 437552, Control_c, 0, 67, 83
1, 437567, Control_c, 0, 64, 61
1, 437567, Control_c, 0, 67, 85
1, 437581, Control_c, 0, 64, 54
1, 437581, Control_c, 0, 67, 87
1, 437593, Note_off_c, 0, 77, 0
1, 437596, Control_c, 0, 64, 50
1, 437596, Control_c, 0, 67, 89
1, 437605, Note_on_c, 0, 77, 42
1, 437611, Note_on_c, 0, 68, 52
1, 437611, Control_c, 0, 64, 49
1, 437611, Control_c, 0, 67, 91
1, 437625, Control_c, 0, 67, 93
1, 437629, Note_on_c, 0, 74, 24
1, 437640, Control_c, 0, 64, 49
1, 437640, Control_c, 0, 67, 95
1, 437655, Control_c, 0, 64, 47
1, 437655, Control_c, 0, 67, 97
1, 437666, Note_off_c, 0, 68, 55
1, 437670, Control_c, 0, 64, 45
1, 437670, Control_c, 0, 67, 100
1, 437674, Note_off_c, 0, 74, 46
1, 437684, Note_off_c, 0, 77, 56
1, 437685, Control_c, 0, 64, 43
1, 437685, Control_c, 0, 67, 102
1, 437699, Control_c, 0, 64, 42
1, 437699, Control_c, 0, 67, 105
1, 437714, Control_c, 0, 64, 40
1, 437714, Control_c, 0, 67, 107
1, 437729, Control_c, 0, 64, 39
1, 437729, Control_c, 0, 67, 110
1, 437744, Control_c, 0, 64, 38
1, 437744, Control_c, 0, 67, 117
1, 437758, Note_on_c, 0, 72, 48
1, 437759, Control_c, 0, 64, 36
1, 437759, Control_c, 0, 67, 127
1, 437773, Control_c, 0, 64, 35
1, 437773, Control_c, 0, 67, 127
1, 437788, Control_c, 0, 64, 35
1, 437803, Control_c, 0, 64, 34
1, 437808, Note_off_c, 0, 72, 59
1, 437832, Control_c, 0, 64, 33
1, 437847, Control_c, 0, 64, 33
1, 437865, Note_on_c, 0, 74, 47
1, 437892, Control_c, 0, 64, 32
1, 437907, Control_c, 0, 64, 32
1, 437920, Note_off_c, 0, 74, 54
1, 437921, Control_c, 0, 64, 31
1, 437978, Note_on_c, 0, 72, 43
1, 438032, Note_off_c, 0, 72, 59
1, 438076, Note_on_c, 0, 74, 44
1, 438084, Note_on_c, 0, 67, 30
1, 438103, Note_on_c, 0, 79, 45
1, 438159, Note_off_c, 0, 74, 50
1, 438175, Note_off_c, 0, 79, 52
1, 438200, Note_on_c, 0, 72, 41
1, 438202, Note_off_c, 0, 67, 50
1, 438311, Note_off_c, 0, 72, 57
1, 438335, Note_on_c, 0, 74, 41
1, 438418, Note_off_c, 0, 74, 57
1, 438452, Note_on_c, 0, 72, 45
1, 438478, Control_c, 0, 64, 31
1, 438522, Control_c, 0, 64, 30
1, 438546, Note_off_c, 0, 72, 60
1, 438572, Note_on_c, 0, 74, 47
1, 438596, Control_c, 0, 64, 31
1, 438611, Control_c, 0, 64, 35
1, 438626, Control_c, 0, 64, 39
1, 438637, Note_off_c, 0, 74, 56
1, 438640, Control_c, 0, 64, 47
1, 438655, Control_c, 0, 64, 53
1, 438670, Control_c, 0, 64, 57
1, 438685, Control_c, 0, 64, 60
1, 438686, Note_on_c, 0, 72, 53
1, 438700, Control_c, 0, 64, 61
1, 438714, Control_c, 0, 64, 62
1, 438729, Control_c, 0, 64, 63
1, 438744, Control_c, 0, 64, 64
1, 438759, Control_c, 0, 64, 65
1, 438762, Note_off_c, 0, 72, 55
1, 438774, Control_c, 0, 64, 65
1, 438789, Control_c, 0, 64, 66
1, 438804, Control_c, 0, 64, 66
1, 438819, Note_on_c, 0, 74, 44
1, 438843, Note_on_c, 0, 80, 42
1, 438855, Note_off_c, 0, 74, 62
1, 438872, Note_off_c, 0, 80, 55
1, 438950, Note_on_c, 0, 80, 69
1, 438953, Control_c, 0, 64, 66
1, 438955, Note_on_c, 0, 65, 53
1, 438983, Control_c, 0, 64, 65
1, 438985, Note_on_c, 0, 74, 20
1, 438998, Control_c, 0, 64, 64
1, 439006, Note_off_c, 0, 74, 48
1, 439009, Note_on_c, 0, 72, 35
1, 439019, Note_off_c, 0, 65, 58
1, 439019, Control_c, 0, 64, 63
1, 439034, Control_c, 0, 64, 61
1, 439039, Note_off_c, 0, 80, 63
1, 439045, Note_off_c, 0, 72, 52
1, 439049, Control_c, 0, 64, 57
1, 439063, Control_c, 0, 64, 54
1, 439079, Control_c, 0, 64, 51
1, 439084, Note_on_c, 0, 68, 60
1, 439087, Note_on_c, 0, 77, 65
1, 439094, Control_c, 0, 64, 50
1, 439106, Note_on_c, 0, 74, 52
1, 439109, Control_c, 0, 64, 49
1, 439124, Control_c, 0, 64, 48
1, 439125, Note_off_c, 0, 68, 59
1, 439138, Control_c, 0, 64, 47
1, 439150, Note_off_c, 0, 74, 60
1, 439153, Control_c, 0, 64, 46
1, 439168, Control_c, 0, 64, 45
1, 439183, Control_c, 0, 64, 44
1, 439198, Note_off_c, 0, 77, 52
1, 439198, Control_c, 0, 64, 43
1, 439199, Note_on_c, 0, 72, 46
1, 439293, Note_off_c, 0, 72, 58
1, 439337, Note_on_c, 0, 74, 54
1, 439394, Note_off_c, 0, 74, 54
1, 439436, Note_on_c, 0, 72, 48
1, 439549, Note_off_c, 0, 72, 58
1, 439576, Note_on_c, 0, 79, 48
1, 439578, Note_on_c, 0, 67, 44
1, 439580, Note_on_c, 0, 74, 40
1, 439654, Note_off_c, 0, 74, 53
1, 439690, Note_on_c, 0, 71, 53
1, 439710, Note_off_c, 0, 79, 31
1, 439720, Note_off_c, 0, 67, 51
1, 439821, Note_off_c, 0, 71, 48
1, 439827, Note_on_c, 0, 74, 50
1, 439910, Note_off_c, 0, 74, 60
1, 439945, Note_on_c, 0, 71, 56
1, 440038, Note_off_c, 0, 71, 57
1, 440072, Note_on_c, 0, 60, 49
1, 440074, Note_on_c, 0, 72, 45
1, 440186, Note_off_c, 0, 72, 51
1, 440188, Note_on_c, 0, 75, 56
1, 440285, Note_off_c, 0, 75, 57
1, 440288, Control_c, 0, 64, 43
1, 440316, Note_on_c, 0, 79, 50
1, 440421, Note_on_c, 0, 75, 52
1, 440426, Note_off_c, 0, 79, 47
1, 440551, Note_off_c, 0, 75, 56
1, 440561, Note_on_c, 0, 72, 52
1, 440651, Note_off_c, 0, 72, 62
1, 440672, Note_on_c, 0, 75, 55
1, 440695, Control_c, 0, 64, 45
1, 440710, Control_c, 0, 64, 48
1, 440724, Control_c, 0, 64, 52
1, 440739, Control_c, 0, 64, 57
1, 440754, Control_c, 0, 64, 60
1, 440769, Control_c, 0, 64, 63
1, 440776, Note_off_c, 0, 75, 59
1, 440783, Control_c, 0, 64, 65
1, 440788, Note_on_c, 0, 72, 55
1, 440798, Control_c, 0, 64, 67
1, 440813, Control_c, 0, 64, 69
1, 440828, Control_c, 0, 64, 72
1, 440843, Control_c, 0, 64, 76
1, 440848, Note_off_c, 0, 72, 57
1, 440858, Control_c, 0, 64, 80
1, 440873, Control_c, 0, 64, 84
1, 440887, Control_c, 0, 64, 88
1, 440900, Note_on_c, 0, 67, 61
1, 440902, Control_c, 0, 64, 89
1, 440947, Control_c, 0, 64, 89
1, 440962, Control_c, 0, 64, 88
1, 440964, Note_off_c, 0, 60, 38
1, 440977, Control_c, 0, 64, 87
1, 440991, Control_c, 0, 64, 85
1, 441002, Note_off_c, 0, 67, 55
1, 441006, Control_c, 0, 64, 82
1, 441021, Control_c, 0, 64, 79
1, 441022, Note_on_c, 0, 63, 61
1, 441035, Control_c, 0, 64, 74
1, 441050, Control_c, 0, 64, 69
1, 441065, Control_c, 0, 64, 62
1, 441080, Control_c, 0, 64, 56
1, 441095, Control_c, 0, 64, 51
1, 441109, Control_c, 0, 64, 50
1, 441120, Note_off_c, 0, 63, 59
1, 441128, Note_on_c, 0, 67, 58
1, 441139, Control_c, 0, 64, 49
1, 441154, Control_c, 0, 64, 47
1, 441169, Control_c, 0, 64, 44
1, 441183, Control_c, 0, 64, 41
1, 441198, Control_c, 0, 64, 41
1, 441213, Control_c, 0, 64, 40
1, 441228, Control_c, 0, 64, 40
1, 441239, Note_off_c, 0, 67, 59
1, 441249, Note_on_c, 0, 63, 55
1, 441266, Control_c, 0, 64, 39
1, 441367, Note_on_c, 0, 60, 53
1, 441367, Note_off_c, 0, 63, 53
1, 441469, Note_off_c, 0, 60, 57
1, 441498, Note_on_c, 0, 62, 51
1, 441591, Note_off_c, 0, 62, 59
1, 441601, Note_on_c, 0, 60, 58
1, 441714, Note_off_c, 0, 60, 58
1, 441724, Note_on_c, 0, 62, 52
1, 441805, Note_off_c, 0, 62, 59
1, 441840, Note_on_c, 0, 60, 55
1, 441847, Note_on_c, 0, 44, 62
1, 441894, Note_off_c, 0, 44, 59
1, 441907, Note_off_c, 0, 60, 53
1, 441955, Note_on_c, 0, 62, 47
1, 441968, Note_on_c, 0, 41, 58
1, 442068, Note_off_c, 0, 62, 58
1, 442092, Note_on_c, 0, 60, 51
1, 442104, Note_off_c, 0, 41, 60
1, 442189, Note_off_c, 0, 60, 59
1, 442211, Note_on_c, 0, 62, 49
1, 442315, Note_off_c, 0, 62, 51
1, 442333, Note_on_c, 0, 68, 59
1, 442338, Note_on_c, 0, 60, 51
1, 442390, Note_off_c, 0, 60, 59
1, 442433, Note_off_c, 0, 68, 62
1, 442452, Note_on_c, 0, 65, 54
1, 442460, Note_on_c, 0, 62, 43
1, 442466, Note_on_c, 0, 43, 39
1, 442528, Note_off_c, 0, 62, 53
1, 442561, Note_on_c, 0, 60, 47
1, 442610, Note_off_c, 0, 65, 36
1, 442631, Note_off_c, 0, 43, 36
1, 442670, Note_off_c, 0, 60, 56
1, 442691, Note_on_c, 0, 62, 40
1, 442717, Note_on_c, 0, 67, 40
1, 442781, Note_off_c, 0, 62, 50
1, 442811, Note_on_c, 0, 60, 54
1, 442822, Note_off_c, 0, 67, 35
1, 442935, Note_off_c, 0, 60, 47
1, 442947, Note_on_c, 0, 62, 43
1, 443030, Note_off_c, 0, 62, 53
1, 443068, Note_on_c, 0, 60, 52
1, 443163, Note_off_c, 0, 60, 53
1, 443182, Note_on_c, 0, 62, 48
1, 443248, Note_off_c, 0, 62, 55
1, 443293, Note_on_c, 0, 60, 55
1, 443300, Note_on_c, 0, 44, 62
1, 443347, Note_off_c, 0, 44, 63
1, 443403, Note_off_c, 0, 60, 58
1, 443413, Note_on_c, 0, 41, 59
1, 443417, Note_on_c, 0, 62, 54
1, 443518, Note_off_c, 0, 62, 59
1, 443534, Note_on_c, 0, 60, 60
1, 443552, Note_off_c, 0, 41, 61
1, 443618, Note_off_c, 0, 60, 58
1, 443648, Note_on_c, 0, 62, 50
1, 443748, Note_off_c, 0, 62, 52
1, 443767, Note_on_c, 0, 68, 55
1, 443779, Note_on_c, 0, 60, 50
1, 443840, Note_off_c, 0, 60, 54
1, 443871, Note_off_c, 0, 68, 60
1, 443901, Note_on_c, 0, 65, 46
1, 443902, Note_on_c, 0, 62, 34
1, 443916, Note_on_c, 0, 43, 32
1, 443975, Note_off_c, 0, 62, 52
1, 444011, Note_on_c, 0, 60, 49
1, 444072, Note_off_c, 0, 65, 34
1, 444095, Note_off_c, 0, 43, 37
1, 444131, Note_off_c, 0, 60, 58
1, 444153, Note_on_c, 0, 67, 45
1, 444166, Note_on_c, 0, 62, 32
1, 444259, Note_off_c, 0, 62, 51
1, 444282, Note_on_c, 0, 60, 51
1, 444363, Note_off_c, 0, 67, 35
1, 444415, Note_on_c, 0, 62, 43
1, 444419, Note_off_c, 0, 60, 44
1, 444509, Note_off_c, 0, 62, 59
1, 444545, Note_on_c, 0, 60, 49
1, 444636, Note_off_c, 0, 60, 55
1, 444653, Note_on_c, 0, 62, 44
1, 444724, Note_off_c, 0, 62, 54
1, 444769, Note_on_c, 0, 44, 46
1, 444781, Note_on_c, 0, 60, 41
1, 444826, Note_off_c, 0, 44, 53
1, 444860, Note_off_c, 0, 60, 53
1, 444903, Note_on_c, 0, 62, 38
1, 444910, Note_on_c, 0, 41, 29
1, 445008, Note_off_c, 0, 62, 56
1, 445032, Note_on_c, 0, 60, 44
1, 445088, Note_off_c, 0, 41, 39
1, 445104, Note_off_c, 0, 60, 55
1, 445147, Note_on_c, 0, 62, 48
1, 445215, Note_off_c, 0, 62, 51
1, 445260, Note_on_c, 0, 68, 53
1, 445287, Note_on_c, 0, 60, 41
1, 445348, Note_off_c, 0, 60, 56
1, 445365, Note_off_c, 0, 68, 57
1, 445395, Note_on_c, 0, 62, 35
1, 445395, Note_on_c, 0, 65, 45
1, 445472, Note_off_c, 0, 62, 50
1, 445508, Note_on_c, 0, 60, 40
1, 445585, Note_off_c, 0, 65, 27
1, 445635, Note_off_c, 0, 60, 56
1, 445644, Note_on_c, 0, 62, 42
1, 445717, Note_off_c, 0, 62, 56
1, 445761, Note_on_c, 0, 60, 53
1, 445826, Note_off_c, 0, 60, 53
1, 445884, Note_on_c, 0, 62, 42
1, 445976, Note_off_c, 0, 62, 51
1, 446000, Note_on_c, 0, 59, 48
1, 446104, Note_off_c, 0, 59, 52
1, 446125, Note_on_c, 0, 62, 45
1, 446212, Note_off_c, 0, 62, 58
1, 446241, Note_on_c, 0, 59, 47
1, 446260, Note_on_c, 0, 43, 45
1, 446302, Note_off_c, 0, 43, 61
1, 446340, Note_off_c, 0, 59, 47
1, 446375, Note_on_c, 0, 31, 45
1, 446384, Note_on_c, 0, 62, 45
1, 446474, Note_off_c, 0, 62, 56
1, 446518, Note_on_c, 0, 59, 41
1, 446623, Note_off_c, 0, 59, 52
1, 446641, Note_on_c, 0, 62, 44
1, 446644, Note_off_c, 0, 31, 35
1, 446754, Note_off_c, 0, 62, 56
1, 446776, Note_on_c, 0, 66, 48
1, 446788, Note_on_c, 0, 59, 29
1, 446878, Control_c, 0, 64, 39
1, 446912, Note_off_c, 0, 59, 37
1, 446915, Note_on_c, 0, 67, 45
1, 446924, Note_off_c, 0, 66, 34
1, 446940, Note_on_c, 0, 62, 37
1, 446990, Note_off_c, 0, 62, 58
1, 447070, Note_on_c, 0, 59, 32
1, 447129, Note_off_c, 0, 59, 55
1, 447138, Note_on_c, 0, 62, 26
1, 447159, Control_c, 0, 64, 40
1, 447174, Control_c, 0, 64, 42
1, 447189, Control_c, 0, 64, 46
1, 447204, Control_c, 0, 64, 51
1, 447219, Control_c, 0, 64, 56
1, 447234, Control_c, 0, 64, 59
1, 447238, Note_off_c, 0, 62, 0
1, 447238, Note_on_c, 0, 62, 3
1, 447256, Control_c, 0, 64, 61
1, 447271, Control_c, 0, 64, 63
1, 447285, Control_c, 0, 64, 65
1, 447300, Control_c, 0, 64, 68
1, 447304, Note_on_c, 0, 59, 40
1, 447314, Control_c, 0, 64, 73
1, 447329, Control_c, 0, 64, 79
1, 447344, Control_c, 0, 64, 86
1, 447350, Note_off_c, 0, 59, 59
1, 447351, Note_off_c, 0, 67, 38
1, 447359, Control_c, 0, 64, 92
1, 447374, Control_c, 0, 64, 98
1, 447386, Note_off_c, 0, 62, 36
1, 447389, Control_c, 0, 64, 101
1, 447419, Control_c, 0, 64, 100
1, 447433, Control_c, 0, 64, 98
1, 447448, Control_c, 0, 64, 93
1, 447463, Control_c, 0, 64, 87
1, 447466, Note_on_c, 0, 36, 47
1, 447471, Note_on_c, 0, 67, 55
1, 447477, Control_c, 0, 64, 80
1, 447492, Control_c, 0, 64, 70
1, 447507, Control_c, 0, 64, 62
1, 447517, Note_off_c, 0, 36, 58
1, 447522, Control_c, 0, 64, 52
1, 447537, Control_c, 0, 64, 42
1, 447549, Note_off_c, 0, 67, 61
1, 447551, Control_c, 0, 64, 39
1, 447579, Note_on_c, 0, 63, 49
1, 447580, Note_on_c, 0, 60, 36
1, 447611, Control_c, 0, 64, 39
1, 447624, Note_off_c, 0, 60, 61
1, 447630, Note_off_c, 0, 63, 59
1, 447640, Control_c, 0, 64, 38
1, 447669, Note_on_c, 0, 67, 49
1, 447717, Note_off_c, 0, 67, 59
1, 447755, Note_on_c, 0, 60, 34
1, 447758, Note_on_c, 0, 63, 47
1, 447806, Note_off_c, 0, 60, 60
1, 447810, Note_off_c, 0, 63, 58
1, 447843, Note_on_c, 0, 67, 54
1, 447923, Note_off_c, 0, 67, 60
1, 447927, Note_on_c, 0, 43, 50
1, 447933, Note_on_c, 0, 63, 54
1, 447956, Note_on_c, 0, 60, 36
1, 447972, Note_off_c, 0, 43, 57
1, 447982, Control_c, 0, 64, 38
1, 447991, Note_off_c, 0, 60, 59
1, 448001, Note_off_c, 0, 63, 55
1, 448004, Control_c, 0, 64, 37
1, 448019, Control_c, 0, 64, 35
1, 448033, Note_on_c, 0, 39, 62
1, 448034, Control_c, 0, 64, 29
1, 448049, Note_on_c, 0, 67, 60
1, 448049, Control_c, 0, 64, 0
1, 448101, Note_off_c, 0, 67, 57
1, 448121, Note_off_c, 0, 39, 60
1, 448128, Note_on_c, 0, 63, 53
1, 448130, Note_on_c, 0, 60, 42
1, 448189, Note_off_c, 0, 60, 62
1, 448210, Note_off_c, 0, 63, 59
1, 448224, Note_on_c, 0, 67, 60
1, 448289, Note_off_c, 0, 67, 58
1, 448328, Note_on_c, 0, 63, 50
1, 448333, Note_on_c, 0, 60, 36
1, 448375, Note_off_c, 0, 60, 64
1, 448375, Note_off_c, 0, 63, 61
1, 448409, Note_on_c, 0, 67, 61
1, 448477, Note_off_c, 0, 67, 61
1, 448489, Note_on_c, 0, 48, 61
1, 448491, Note_on_c, 0, 63, 64
1, 448494, Note_on_c, 0, 60, 59
1, 448523, Note_off_c, 0, 48, 62
1, 448547, Note_off_c, 0, 60, 59
1, 448560, Note_off_c, 0, 63, 60
1, 448573, Note_on_c, 0, 43, 65
1, 448583, Note_on_c, 0, 67, 67
1, 448656, Note_off_c, 0, 67, 61
1, 448675, Note_on_c, 0, 60, 50
1, 448675, Note_on_c, 0, 63, 60
1, 448703, Note_off_c, 0, 43, 57
1, 448726, Note_off_c, 0, 60, 62
1, 448734, Note_off_c, 0, 63, 58
1, 448772, Note_on_c, 0, 67, 64
1, 448838, Note_off_c, 0, 67, 62
1, 448855, Note_on_c, 0, 63, 65
1, 448858, Note_on_c, 0, 60, 58
1, 448906, Note_off_c, 0, 60, 60
1, 448913, Note_off_c, 0, 63, 59
1, 448936, Note_on_c, 0, 67, 68
1, 449022, Note_on_c, 0, 63, 74
1, 449022, Note_off_c, 0, 67, 62
1, 449026, Note_on_c, 0, 60, 68
1, 449040, Note_on_c, 0, 51, 68
1, 449069, Note_off_c, 0, 51, 65
1, 449095, Note_off_c, 0, 63, 62
1, 449102, Note_off_c, 0, 60, 63
1, 449115, Note_on_c, 0, 67, 77
1, 449116, Note_on_c, 0, 48, 73
1, 449197, Note_off_c, 0, 67, 63
1, 449207, Note_on_c, 0, 63, 71
1, 449222, Note_on_c, 0, 60, 61
1, 449234, Note_off_c, 0, 48, 60
1, 449271, Note_off_c, 0, 60, 60
1, 449282, Note_off_c, 0, 63, 62
1, 449300, Note_on_c, 0, 67, 70
1, 449317, Control_c, 0, 67, 127
1, 449332, Control_c, 0, 67, 126
1, 449361, Control_c, 0, 64, 19
1, 449361, Control_c, 0, 67, 125
1, 449365, Note_off_c, 0, 67, 63
1, 449376, Control_c, 0, 64, 43
1, 449380, Note_on_c, 0, 63, 71
1, 449391, Control_c, 0, 64, 55
1, 449391, Control_c, 0, 67, 125
1, 449392, Note_on_c, 0, 60, 59
1, 449406, Control_c, 0, 64, 61
1, 449406, Control_c, 0, 67, 124
1, 449420, Control_c, 0, 64, 63
1, 449435, Control_c, 0, 64, 65
1, 449435, Control_c, 0, 67, 123
1, 449442, Note_off_c, 0, 60, 60
1, 449448, Note_off_c, 0, 63, 61
1, 449450, Control_c, 0, 64, 66
1, 449450, Control_c, 0, 67, 122
1, 449463, Note_on_c, 0, 67, 71
1, 449465, Control_c, 0, 64, 67
1, 449465, Control_c, 0, 67, 122
1, 449480, Control_c, 0, 64, 68
1, 449480, Control_c, 0, 67, 121
1, 449502, Control_c, 0, 64, 69
1, 449502, Control_c, 0, 67, 120
1, 449517, Control_c, 0, 64, 71
1, 449517, Control_c, 0, 67, 120
1, 449529, Note_off_c, 0, 67, 64
1, 449532, Control_c, 0, 64, 72
1, 449532, Control_c, 0, 67, 119
1, 449537, Note_on_c, 0, 63, 75
1, 449547, Control_c, 0, 64, 74
1, 449555, Note_on_c, 0, 55, 47
1, 449559, Note_on_c, 0, 60, 65
1, 449561, Control_c, 0, 64, 74
1, 449561, Control_c, 0, 67, 119
1, 449568, Note_off_c, 0, 63, 61
1, 449576, Control_c, 0, 67, 118
1, 449590, Note_off_c, 0, 60, 67
1, 449591, Control_c, 0, 64, 74
1, 449591, Control_c, 0, 67, 117
1, 449602, Note_off_c, 0, 55, 55
1, 449606, Control_c, 0, 64, 73
1, 449621, Control_c, 0, 64, 71
1, 449621, Control_c, 0, 67, 115
1, 449626, Note_on_c, 0, 51, 84
1, 449635, Control_c, 0, 64, 67
1, 449635, Control_c, 0, 67, 115
1, 449644, Note_on_c, 0, 72, 76
1, 449650, Control_c, 0, 64, 62
1, 449650, Control_c, 0, 67, 114
1, 449665, Control_c, 0, 64, 53
1, 449665, Control_c, 0, 67, 112
1, 449679, Control_c, 0, 64, 40
1, 449679, Control_c, 0, 67, 112
1, 449694, Control_c, 0, 64, 31
1, 449709, Control_c, 0, 64, 29
1, 449717, Note_on_c, 0, 67, 65
1, 449724, Control_c, 0, 64, 28
1, 449727, Note_off_c, 0, 72, 64
1, 449731, Note_on_c, 0, 63, 65
1, 449739, Control_c, 0, 64, 24
1, 449753, Control_c, 0, 64, 17
1, 449768, Control_c, 0, 64, 0
1, 449783, Control_c, 0, 67, 111
1, 449785, Note_off_c, 0, 51, 60
1, 449791, Note_off_c, 0, 63, 56
1, 449799, Note_off_c, 0, 67, 56
1, 449815, Note_on_c, 0, 72, 72
1, 449842, Note_on_c, 0, 73, 18
1, 449843, Note_off_c, 0, 73, 127
1, 449878, Note_off_c, 0, 72, 64
1, 449888, Note_on_c, 0, 67, 69
1, 449907, Note_on_c, 0, 63, 55
1, 449943, Note_off_c, 0, 63, 63
1, 449961, Control_c, 0, 64, 17
1, 449973, Note_off_c, 0, 67, 61
1, 449974, Note_on_c, 0, 72, 81
1, 449976, Control_c, 0, 64, 42
1, 449991, Control_c, 0, 64, 56
1, 450006, Control_c, 0, 64, 63
1, 450020, Control_c, 0, 64, 66
1, 450030, Note_on_c, 0, 60, 59
1, 450035, Control_c, 0, 64, 69
1, 450044, Note_on_c, 0, 63, 72
1, 450051, Control_c, 0, 64, 73
1, 450053, Note_off_c, 0, 72, 64
1, 450054, Note_on_c, 0, 67, 74
1, 450065, Note_off_c, 0, 60, 65
1, 450066, Control_c, 0, 64, 77
1, 450081, Control_c, 0, 64, 81
1, 450081, Control_c, 0, 67, 112
1, 450095, Control_c, 0, 64, 86
1, 450095, Control_c, 0, 67, 112
1, 450096, Note_off_c, 0, 63, 64
1, 450110, Control_c, 0, 64, 87
1, 450110, Control_c, 0, 67, 114
1, 450125, Control_c, 0, 64, 87
1, 450125, Control_c, 0, 67, 115
1, 450134, Note_off_c, 0, 67, 59
1, 450138, Note_on_c, 0, 71, 91
1, 450140, Control_c, 0, 64, 83
1, 450143, Note_on_c, 0, 43, 71
1, 450155, Control_c, 0, 64, 76
1, 450155, Control_c, 0, 67, 115
1, 450169, Control_c, 0, 64, 65
1, 450184, Control_c, 0, 64, 0
1, 450184, Control_c, 0, 67, 115
1, 450214, Control_c, 0, 67, 114
1, 450225, Note_off_c, 0, 71, 62
1, 450227, Note_on_c, 0, 67, 77
1, 450228, Note_on_c, 0, 62, 73
1, 450250, Control_c, 0, 67, 114
1, 450260, Note_off_c, 0, 43, 63
1, 450265, Control_c, 0, 67, 113
1, 450295, Control_c, 0, 67, 112
1, 450307, Note_off_c, 0, 62, 56
1, 450310, Note_off_c, 0, 67, 62
1, 450310, Control_c, 0, 67, 111
1, 450318, Note_on_c, 0, 71, 84
1, 450325, Control_c, 0, 67, 110
1, 450340, Control_c, 0, 67, 110
1, 450355, Control_c, 0, 67, 109
1, 450391, Note_off_c, 0, 71, 64
1, 450399, Note_on_c, 0, 67, 74
1, 450399, Control_c, 0, 67, 109
1, 450410, Note_on_c, 0, 62, 72
1, 450414, Control_c, 0, 67, 108
1, 450429, Control_c, 0, 67, 107
1, 450444, Control_c, 0, 67, 105
1, 450459, Control_c, 0, 67, 104
1, 450469, Note_off_c, 0, 62, 62
1, 450474, Control_c, 0, 67, 102
1, 450481, Note_on_c, 0, 71, 86
1, 450483, Note_off_c, 0, 67, 61
1, 450489, Control_c, 0, 64, 34
1, 450489, Control_c, 0, 67, 100
1, 450503, Control_c, 0, 64, 54
1, 450503, Control_c, 0, 67, 99
1, 450518, Control_c, 0, 64, 63
1, 450518, Control_c, 0, 67, 99
1, 450533, Control_c, 0, 64, 68
1, 450533, Control_c, 0, 67, 98
1, 450540, Note_on_c, 0, 67, 76
1, 450542, Note_off_c, 0, 71, 64
1, 450547, Note_on_c, 0, 53, 63
1, 450548, Control_c, 0, 64, 75
1, 450548, Control_c, 0, 67, 97
1, 450563, Control_c, 0, 64, 93
1, 450563, Control_c, 0, 67, 96
1, 450567, Note_off_c, 0, 67, 68
1, 450577, Control_c, 0, 64, 127
1, 450577, Control_c, 0, 67, 94
1, 450588, Note_on_c, 0, 64, 30
1, 450590, Note_on_c, 0, 62, 13
1, 450592, Control_c, 0, 67, 92
1, 450607, Control_c, 0, 67, 87
1, 450608, Note_off_c, 0, 53, 54
1, 450620, Note_off_c, 0, 64, 53
1, 450622, Control_c, 0, 67, 79
1, 450633, Note_off_c, 0, 62, 40
1, 450637, Control_c, 0, 67, 65
1, 450640, Note_on_c, 0, 48, 91
1, 450651, Control_c, 0, 67, 49
1, 450666, Note_on_c, 0, 79, 85
1, 450666, Control_c, 0, 67, 36
1, 450681, Control_c, 0, 64, 110
1, 450681, Control_c, 0, 67, 27
1, 450695, Control_c, 0, 64, 85
1, 450695, Control_c, 0, 67, 23
1, 450710, Control_c, 0, 64, 69
1, 450710, Control_c, 0, 67, 21
1, 450725, Control_c, 0, 64, 57
1, 450725, Control_c, 0, 67, 19
1, 450740, Control_c, 0, 64, 38
1, 450740, Control_c, 0, 67, 19
1, 450742, Note_off_c, 0, 79, 65
1, 450752, Note_on_c, 0, 75, 74
1, 450755, Control_c, 0, 64, 26
1, 450755, Control_c, 0, 67, 17
1, 450757, Note_on_c, 0, 72, 71
1, 450769, Control_c, 0, 64, 25
1, 450769, Control_c, 0, 67, 11
1, 450775, Note_off_c, 0, 48, 56
1, 450784, Control_c, 0, 64, 23
1, 450784, Control_c, 0, 67, 0
1, 450799, Control_c, 0, 64, 16
1, 450814, Note_off_c, 0, 72, 63
1, 450814, Control_c, 0, 64, 0
1, 450830, Note_on_c, 0, 79, 82
1, 450830, Note_off_c, 0, 75, 60
1, 450908, Note_off_c, 0, 79, 65
1, 450915, Note_on_c, 0, 75, 81
1, 450918, Note_on_c, 0, 72, 78
1, 450978, Note_off_c, 0, 72, 61
1, 450998, Note_on_c, 0, 79, 88
1, 451000, Note_off_c, 0, 75, 62
1, 451082, Note_on_c, 0, 75, 89
1, 451082, Note_off_c, 0, 79, 65
1, 451084, Note_on_c, 0, 55, 74
1, 451090, Note_on_c, 0, 72, 83
1, 451160, Note_off_c, 0, 55, 55
1, 451167, Note_off_c, 0, 72, 61
1, 451169, Note_on_c, 0, 79, 90
1, 451172, Note_off_c, 0, 75, 62
1, 451173, Note_on_c, 0, 51, 91
1, 451261, Note_off_c, 0, 79, 65
1, 451263, Note_on_c, 0, 75, 84
1, 451267, Note_on_c, 0, 72, 78
1, 451297, Note_off_c, 0, 51, 64
1, 451332, Note_off_c, 0, 72, 62
1, 451341, Note_off_c, 0, 75, 61
1, 451341, Note_on_c, 0, 79, 84
1, 451422, Note_off_c, 0, 79, 65
1, 451428, Note_on_c, 0, 75, 84
1, 451432, Note_on_c, 0, 72, 81
1, 451503, Note_on_c, 0, 79, 90
1, 451503, Note_off_c, 0, 75, 62
1, 451503, Note_off_c, 0, 72, 62
1, 451589, Note_on_c, 0, 75, 90
1, 451592, Note_on_c, 0, 72, 89
1, 451592, Note_off_c, 0, 79, 65
1, 451610, Note_on_c, 0, 60, 69
1, 451660, Note_off_c, 0, 60, 58
1, 451678, Note_on_c, 0, 55, 95
1, 451678, Note_on_c, 0, 79, 92
1, 451684, Note_off_c, 0, 75, 62
1, 451691, Note_off_c, 0, 72, 64
1, 451781, Note_off_c, 0, 79, 65
1, 451783, Note_on_c, 0, 75, 86
1, 451785, Note_on_c, 0, 72, 83
1, 451824, Note_off_c, 0, 55, 59
1, 451865, Note_off_c, 0, 72, 64
1, 451866, Note_on_c, 0, 79, 90
1, 451872, Note_off_c, 0, 75, 62
1, 451953, Note_on_c, 0, 72, 85
1, 451953, Note_off_c, 0, 79, 65
1, 451956, Note_on_c, 0, 75, 82
1, 452033, Note_on_c, 0, 79, 92
1, 452033, Note_off_c, 0, 75, 61
1, 452044, Note_off_c, 0, 72, 64
1, 452121, Note_on_c, 0, 75, 95
1, 452123, Note_off_c, 0, 79, 66
1, 452124, Note_on_c, 0, 72, 89
1, 452132, Note_on_c, 0, 63, 87
1, 452179, Note_off_c, 0, 63, 64
1, 452206, Note_on_c, 0, 79, 94
1, 452212, Note_off_c, 0, 75, 63
1, 452215, Note_on_c, 0, 60, 95
1, 452218, Note_off_c, 0, 72, 64
1, 452300, Note_on_c, 0, 75, 84
1, 452300, Note_off_c, 0, 79, 65
1, 452305, Note_on_c, 0, 72, 82
1, 452340, Note_off_c, 0, 60, 65
1, 452388, Note_on_c, 0, 79, 88
1, 452388, Note_off_c, 0, 75, 63
1, 452395, Note_off_c, 0, 72, 64
1, 452471, Note_on_c, 0, 75, 84
1, 452472, Note_off_c, 0, 79, 66
1, 452482, Note_on_c, 0, 72, 76
1, 452558, Note_on_c, 0, 79, 85
1, 452560, Note_off_c, 0, 72, 62
1, 452560, Note_off_c, 0, 75, 63
1, 452586, Control_c, 0, 64, 29
1, 452601, Control_c, 0, 64, 44
1, 452616, Control_c, 0, 64, 54
1, 452629, Note_on_c, 0, 75, 82
1, 452629, Note_off_c, 0, 79, 66
1, 452631, Control_c, 0, 64, 59
1, 452641, Note_on_c, 0, 67, 67
1, 452645, Control_c, 0, 64, 62
1, 452660, Control_c, 0, 64, 64
1, 452668, Note_on_c, 0, 72, 61
1, 452675, Control_c, 0, 64, 66
1, 452676, Note_off_c, 0, 75, 63
1, 452684, Note_off_c, 0, 67, 60
1, 452687, Note_off_c, 0, 72, 65
1, 452690, Control_c, 0, 64, 68
1, 452704, Control_c, 0, 64, 70
1, 452719, Note_on_c, 0, 63, 94
1, 452719, Control_c, 0, 64, 72
1, 452740, Note_on_c, 0, 84, 93
1, 452749, Control_c, 0, 64, 69
1, 452764, Control_c, 0, 64, 61
1, 452778, Control_c, 0, 64, 0
1, 452826, Note_on_c, 0, 79, 71
1, 452835, Note_on_c, 0, 75, 84
1, 452841, Note_off_c, 0, 84, 66
1, 452894, Note_off_c, 0, 75, 62
1, 452908, Note_off_c, 0, 63, 57
1, 452916, Note_on_c, 0, 84, 94
1, 452922, Note_off_c, 0, 79, 65
1, 452989, Note_on_c, 0, 79, 77
1, 452993, Note_on_c, 0, 75, 84
1, 452994, Note_off_c, 0, 84, 65
1, 453049, Note_off_c, 0, 75, 62
1, 453077, Note_on_c, 0, 84, 91
1, 453081, Note_off_c, 0, 79, 66
1, 453089, Control_c, 0, 64, 39
1, 453104, Control_c, 0, 64, 58
1, 453119, Control_c, 0, 64, 66
1, 453134, Control_c, 0, 64, 74
1, 453149, Note_on_c, 0, 75, 92
1, 453149, Control_c, 0, 64, 90
1, 453158, Note_off_c, 0, 84, 65
1, 453162, Note_on_c, 0, 79, 74
1, 453164, Control_c, 0, 64, 127
1, 453169, Note_on_c, 0, 72, 53
1, 453191, Note_off_c, 0, 72, 64
1, 453210, Note_off_c, 0, 75, 65
1, 453256, Note_on_c, 0, 83, 106
1, 453270, Note_off_c, 0, 79, 62
1, 453276, Control_c, 0, 64, 101
1, 453277, Note_on_c, 0, 55, 79
1, 453291, Control_c, 0, 64, 82
1, 453306, Control_c, 0, 64, 69
1, 453321, Control_c, 0, 64, 58
1, 453336, Control_c, 0, 64, 34
1, 453342, Note_on_c, 0, 74, 81
1, 453351, Control_c, 0, 64, 0
1, 453351, Note_on_c, 0, 79, 72
1, 453354, Note_off_c, 0, 83, 60
1, 453417, Note_off_c, 0, 74, 61
1, 453425, Note_off_c, 0, 79, 61
1, 453431, Note_on_c, 0, 83, 88
1, 453461, Note_off_c, 0, 55, 61
1, 453509, Note_on_c, 0, 79, 78
1, 453514, Control_c, 0, 64, 14
1, 453515, Note_on_c, 0, 74, 83
1, 453517, Note_off_c, 0, 83, 64
1, 453528, Control_c, 0, 64, 42
1, 453543, Control_c, 0, 64, 58
1, 453558, Control_c, 0, 64, 64
1, 453573, Control_c, 0, 64, 69
1, 453576, Note_off_c, 0, 74, 61
1, 453588, Control_c, 0, 64, 75
1, 453589, Note_on_c, 0, 83, 93
1, 453592, Note_off_c, 0, 79, 65
1, 453602, Control_c, 0, 64, 83
1, 453617, Control_c, 0, 64, 95
1, 453632, Control_c, 0, 64, 127
1, 453657, Note_on_c, 0, 65, 54
1, 453668, Note_on_c, 0, 74, 87
1, 453669, Note_on_c, 0, 79, 81
1, 453678, Note_off_c, 0, 83, 64
1, 453683, Note_off_c, 0, 65, 63
1, 453736, Note_off_c, 0, 74, 61
1, 453773, Note_on_c, 0, 84, 99
1, 453780, Control_c, 0, 64, 99
1, 453792, Note_on_c, 0, 48, 61
1, 453795, Control_c, 0, 64, 78
1, 453798, Note_off_c, 0, 79, 50
1, 453810, Control_c, 0, 64, 62
1, 453825, Control_c, 0, 64, 0
1, 453879, Note_on_c, 0, 51, 64
1, 453913, Control_c, 0, 64, 35
1, 453928, Control_c, 0, 64, 58
1, 453943, Control_c, 0, 64, 67
1, 453958, Control_c, 0, 64, 77
1, 453963, Note_on_c, 0, 55, 70
1, 453973, Control_c, 0, 64, 101
1, 453981, Note_off_c, 0, 51, 62
1, 453994, Control_c, 0, 64, 127
1, 454002, Note_off_c, 0, 48, 60
1, 454035, Note_off_c, 0, 55, 62
1, 454036, Note_on_c, 0, 60, 68
1, 454097, Note_off_c, 0, 60, 63
1, 454108, Note_on_c, 0, 55, 58
1, 454149, Note_off_c, 0, 55, 63
1, 454154, Note_on_c, 0, 51, 73
1, 454206, Note_off_c, 0, 51, 64
1, 454233, Control_c, 0, 64, 117
1, 454248, Control_c, 0, 64, 78
1, 454263, Control_c, 0, 64, 59
1, 454271, Note_on_c, 0, 75, 98
1, 454278, Note_on_c, 0, 43, 70
1, 454278, Control_c, 0, 64, 40
1, 454286, Note_off_c, 0, 84, 24
1, 454293, Control_c, 0, 64, 53
1, 454307, Control_c, 0, 64, 63
1, 454316, Note_off_c, 0, 43, 62
1, 454322, Control_c, 0, 64, 76
1, 454337, Control_c, 0, 64, 127
1, 454410, Note_on_c, 0, 51, 64
1, 454479, Note_off_c, 0, 51, 63
1, 454498, Note_off_c, 0, 75, 56
1, 454527, Note_on_c, 0, 60, 73
1, 454604, Note_on_c, 0, 55, 72
1, 454609, Note_off_c, 0, 60, 64
1, 454702, Note_on_c, 0, 51, 74
1, 454709, Note_off_c, 0, 55, 61
1, 454759, Control_c, 0, 64, 115
1, 454774, Control_c, 0, 64, 81
1, 454781, Note_on_c, 0, 79, 99
1, 454788, Note_off_c, 0, 51, 62
1, 454789, Control_c, 0, 64, 62
1, 454793, Note_on_c, 0, 48, 72
1, 454804, Control_c, 0, 64, 0
1, 454897, Note_on_c, 0, 51, 78
1, 454923, Control_c, 0, 64, 40
1, 454938, Control_c, 0, 64, 60
1, 454953, Control_c, 0, 64, 67
1, 454967, Control_c, 0, 64, 76
1, 454982, Control_c, 0, 64, 93
1, 454994, Note_off_c, 0, 51, 64
1, 454997, Note_on_c, 0, 55, 64
1, 454997, Control_c, 0, 64, 127
1, 455042, Note_off_c, 0, 55, 63
1, 455050, Note_on_c, 0, 60, 72
1, 455083, Note_off_c, 0, 79, 56
1, 455121, Note_on_c, 0, 55, 74
1, 455124, Note_off_c, 0, 48, 47
1, 455134, Note_off_c, 0, 60, 62
1, 455211, Note_on_c, 0, 51, 75
1, 455218, Note_off_c, 0, 55, 61
1, 455303, Note_on_c, 0, 50, 78
1, 455309, Control_c, 0, 64, 110
1, 455315, Note_on_c, 0, 77, 100
1, 455323, Control_c, 0, 64, 77
1, 455324, Note_off_c, 0, 51, 63
1, 455338, Control_c, 0, 64, 56
1, 455353, Control_c, 0, 64, 0
1, 455393, Note_on_c, 0, 53, 70
1, 455441, Control_c, 0, 64, 20
1, 455456, Control_c, 0, 64, 52
1, 455471, Note_on_c, 0, 55, 70
1, 455471, Control_c, 0, 64, 64
1, 455493, Control_c, 0, 64, 71
1, 455508, Control_c, 0, 64, 90
1, 455515, Note_off_c, 0, 53, 61
1, 455523, Control_c, 0, 64, 127
1, 455550, Note_off_c, 0, 55, 62
1, 455552, Note_on_c, 0, 59, 72
1, 455589, Note_off_c, 0, 50, 52
1, 455616, Note_off_c, 0, 59, 63
1, 455628, Note_on_c, 0, 55, 69
1, 455682, Note_on_c, 0, 53, 76
1, 455688, Note_off_c, 0, 55, 63
1, 455702, Note_off_c, 0, 77, 56
1, 455735, Note_off_c, 0, 53, 63
1, 455738, Note_on_c, 0, 75, 90
1, 455783, Note_off_c, 0, 75, 67
1, 455789, Control_c, 0, 64, 81
1, 455804, Control_c, 0, 64, 57
1, 455815, Note_on_c, 0, 43, 69
1, 455819, Note_on_c, 0, 74, 97
1, 455819, Control_c, 0, 64, 0
1, 455849, Note_off_c, 0, 43, 62
1, 455878, Control_c, 0, 64, 33
1, 455893, Control_c, 0, 64, 56
1, 455908, Control_c, 0, 64, 65
1, 455923, Control_c, 0, 64, 72
1, 455937, Control_c, 0, 64, 85
1, 455941, Note_on_c, 0, 53, 76
1, 455952, Control_c, 0, 64, 115
1, 455967, Control_c, 0, 64, 127
1, 456008, Note_off_c, 0, 53, 62
1, 456014, Note_on_c, 0, 55, 69
1, 456072, Note_off_c, 0, 55, 64
1, 456077, Note_on_c, 0, 59, 73
1, 456153, Note_off_c, 0, 59, 62
1, 456161, Note_on_c, 0, 55, 71
1, 456228, Note_on_c, 0, 53, 69
1, 456310, Note_off_c, 0, 55, 31
1, 456323, Note_on_c, 0, 50, 72
1, 456324, Note_off_c, 0, 53, 61
1, 456344, Control_c, 0, 64, 96
1, 456352, Note_on_c, 0, 79, 96
1, 456359, Control_c, 0, 64, 73
1, 456371, Note_off_c, 0, 74, 60
1, 456374, Control_c, 0, 64, 54
1, 456388, Control_c, 0, 64, 0
1, 456427, Note_on_c, 0, 53, 64
1, 456493, Control_c, 0, 64, 43
1, 456508, Control_c, 0, 64, 60
1, 456523, Control_c, 0, 64, 69
1, 456532, Note_on_c, 0, 55, 70
1, 456537, Control_c, 0, 64, 80
1, 456552, Note_off_c, 0, 53, 61
1, 456552, Control_c, 0, 64, 108
1, 456564, Note_off_c, 0, 79, 63
1, 456567, Control_c, 0, 64, 127
1, 456595, Note_off_c, 0, 55, 63
1, 456597, Note_on_c, 0, 59, 69
1, 456683, Note_on_c, 0, 55, 70
1, 456685, Note_off_c, 0, 59, 63
1, 456711, Note_off_c, 0, 50, 51
1, 456748, Note_on_c, 0, 53, 68
1, 456761, Note_off_c, 0, 55, 58
1, 456852, Note_off_c, 0, 53, 63
1, 456857, Note_on_c, 0, 48, 75
1, 456861, Note_on_c, 0, 72, 97
1, 456862, Note_on_c, 0, 60, 96
1, 456878, Control_c, 0, 64, 85
1, 456893, Control_c, 0, 64, 56
1, 456908, Control_c, 0, 64, 0
1, 456953, Note_on_c, 0, 51, 76
1, 456990, Control_c, 0, 64, 45
1, 457005, Control_c, 0, 64, 62
1, 457019, Control_c, 0, 64, 70
1, 457034, Control_c, 0, 64, 84
1, 457037, Note_off_c, 0, 60, 60
1, 457047, Note_on_c, 0, 55, 68
1, 457049, Control_c, 0, 64, 127
1, 457056, Note_off_c, 0, 51, 63
1, 457102, Note_off_c, 0, 48, 34
1, 457117, Note_off_c, 0, 55, 63
1, 457123, Note_on_c, 0, 60, 71
1, 457196, Note_off_c, 0, 60, 64
1, 457199, Note_on_c, 0, 55, 73
1, 457261, Note_on_c, 0, 51, 78
1, 457261, Note_off_c, 0, 55, 64
1, 457306, Note_off_c, 0, 51, 66
1, 457375, Control_c, 0, 64, 87
1, 457385, Note_on_c, 0, 63, 101
1, 457390, Control_c, 0, 64, 62
1, 457392, Note_on_c, 0, 43, 74
1, 457405, Control_c, 0, 64, 0
1, 457449, Control_c, 0, 64, 49
1, 457451, Note_off_c, 0, 43, 61
1, 457464, Control_c, 0, 64, 63
1, 457479, Control_c, 0, 64, 73
1, 457494, Control_c, 0, 64, 95
1, 457509, Control_c, 0, 64, 127
1, 457577, Note_on_c, 0, 50, 34
1, 457616, Note_off_c, 0, 50, 45
1, 457626, Note_on_c, 0, 55, 54
1, 457661, Note_off_c, 0, 55, 64
1, 457662, Note_on_c, 0, 60, 71
1, 457682, Note_off_c, 0, 63, 61
1, 457740, Note_on_c, 0, 55, 74
1, 457756, Note_off_c, 0, 60, 64
1, 457839, Note_on_c, 0, 51, 76
1, 457844, Note_off_c, 0, 55, 62
1, 457902, Control_c, 0, 64, 88
1, 457912, Note_on_c, 0, 67, 98
1, 457912, Note_off_c, 0, 51, 62
1, 457914, Note_on_c, 0, 48, 70
1, 457916, Control_c, 0, 64, 62
1, 457931, Control_c, 0, 64, 0
1, 458023, Note_on_c, 0, 51, 76
1, 458051, Control_c, 0, 64, 36
1, 458065, Control_c, 0, 64, 55
1, 458080, Control_c, 0, 64, 64
1, 458095, Control_c, 0, 64, 71
1, 458110, Control_c, 0, 64, 82
1, 458115, Note_off_c, 0, 72, 59
1, 458117, Note_off_c, 0, 51, 64
1, 458120, Note_on_c, 0, 55, 67
1, 458125, Control_c, 0, 64, 109
1, 458139, Control_c, 0, 64, 127
1, 458153, Note_off_c, 0, 48, 49
1, 458180, Note_on_c, 0, 60, 61
1, 458255, Note_off_c, 0, 67, 58
1, 458263, Note_off_c, 0, 60, 64
1, 458326, Note_on_c, 0, 51, 71
1, 458364, Note_off_c, 0, 55, 60
1, 458434, Note_on_c, 0, 65, 95
1, 458435, Note_on_c, 0, 50, 71
1, 458443, Note_on_c, 0, 71, 84
1, 458444, Note_off_c, 0, 51, 63
1, 458451, Control_c, 0, 64, 86
1, 458465, Control_c, 0, 64, 64
1, 458487, Control_c, 0, 64, 0
1, 458540, Note_on_c, 0, 53, 67
1, 458591, Control_c, 0, 64, 9
1, 458606, Control_c, 0, 64, 48
1, 458621, Control_c, 0, 64, 62
1, 458629, Note_on_c, 0, 55, 65
1, 458636, Control_c, 0, 64, 68
1, 458651, Note_off_c, 0, 53, 60
1, 458651, Control_c, 0, 64, 77
1, 458665, Control_c, 0, 64, 96
1, 458680, Control_c, 0, 64, 127
1, 458687, Note_on_c, 0, 59, 71
1, 458687, Note_off_c, 0, 55, 62
1, 458702, Note_off_c, 0, 65, 55
1, 458708, Note_off_c, 0, 50, 33
1, 458751, Note_on_c, 0, 55, 60
1, 458752, Note_off_c, 0, 59, 63
1, 458806, Note_on_c, 0, 53, 78
1, 458818, Note_off_c, 0, 55, 62
1, 458847, Note_on_c, 0, 63, 89
1, 458858, Note_off_c, 0, 53, 64
1, 458894, Note_off_c, 0, 63, 65
1, 458918, Control_c, 0, 64, 82
1, 458930, Note_on_c, 0, 62, 100
1, 458933, Control_c, 0, 64, 55
1, 458946, Note_on_c, 0, 43, 74
1, 458948, Control_c, 0, 64, 0
1, 458981, Note_off_c, 0, 43, 64
1, 458992, Control_c, 0, 64, 48
1, 459006, Control_c, 0, 64, 66
1, 459021, Control_c, 0, 64, 85
1, 459036, Control_c, 0, 64, 127
1, 459065, Note_on_c, 0, 53, 77
1, 459088, Note_off_c, 0, 62, 60
1, 459137, Note_off_c, 0, 53, 63
1, 459139, Note_on_c, 0, 55, 72
1, 459202, Note_off_c, 0, 55, 63
1, 459211, Note_on_c, 0, 59, 76
1, 459298, Note_on_c, 0, 55, 74
1, 459298, Note_off_c, 0, 59, 63
1, 459371, Note_on_c, 0, 53, 76
1, 459399, Control_c, 0, 64, 119
1, 459414, Control_c, 0, 64, 68
1, 459418, Note_off_c, 0, 55, 54
1, 459420, Note_off_c, 0, 71, 63
1, 459429, Control_c, 0, 64, 0
1, 459432, Note_on_c, 0, 50, 81
1, 459432, Note_on_c, 0, 67, 100
1, 459442, Note_off_c, 0, 53, 62
1, 459488, Control_c, 0, 64, 47
1, 459503, Control_c, 0, 64, 68
1, 459516, Note_on_c, 0, 53, 79
1, 459518, Control_c, 0, 64, 93
1, 459532, Control_c, 0, 64, 127
1, 459557, Note_off_c, 0, 50, 64
1, 459572, Note_off_c, 0, 67, 63
1, 459596, Note_on_c, 0, 55, 73
1, 459610, Note_off_c, 0, 53, 62
1, 459667, Note_on_c, 0, 59, 79
1, 459669, Note_off_c, 0, 55, 63
1, 459733, Note_off_c, 0, 59, 64
1, 459736, Note_on_c, 0, 55, 76
1, 459783, Note_on_c, 0, 53, 85
1, 459807, Note_off_c, 0, 55, 61
1, 459830, Note_off_c, 0, 53, 61
1, 459933, Control_c, 0, 64, 100
1, 459948, Control_c, 0, 64, 66
1, 459962, Control_c, 0, 64, 32
1, 459965, Note_on_c, 0, 60, 107
1, 459980, Note_on_c, 0, 36, 85
1, 459985, Control_c, 0, 64, 45
1, 460000, Control_c, 0, 64, 61
1, 460015, Control_c, 0, 64, 75
1, 460030, Control_c, 0, 64, 127
1, 460039, Note_off_c, 0, 36, 62
1, 460052, Note_off_c, 0, 60, 62
1, 460233, Note_on_c, 0, 50, 9
1, 460270, Poly_aftertouch_c, 0, 47, 0
1, 460279, Poly_aftertouch_c, 0, 48, 0
1, 460281, Note_off_c, 0, 50, 52
1, 460286, Note_on_c, 0, 55, 63
1, 460328, Note_on_c, 0, 43, 61
1, 460344, Note_on_c, 0, 49, 64
1, 460362, Note_off_c, 0, 55, 63
1, 460366, Note_on_c, 0, 51, 76
1, 460377, Note_on_c, 0, 48, 59
1, 460389, Note_off_c, 0, 43, 58
1, 460430, Control_c, 0, 64, 114
1, 460445, Control_c, 0, 64, 72
1, 460451, Note_off_c, 0, 49, 57
1, 460454, Note_off_c, 0, 51, 63
1, 460454, Note_off_c, 0, 48, 61
1, 460460, Control_c, 0, 64, 39
1, 460465, Note_on_c, 0, 43, 69
1, 460469, Note_on_c, 0, 55, 73
1, 460473, Note_on_c, 0, 84, 104
1, 460474, Note_on_c, 0, 72, 101
1, 460475, Control_c, 0, 64, 0
1, 460555, Note_off_c, 0, 55, 62
1, 460560, Note_on_c, 0, 48, 62
1, 460561, Note_on_c, 0, 51, 79
1, 460563, Note_off_c, 0, 43, 62
1, 460648, Note_off_c, 0, 51, 64
1, 460655, Note_off_c, 0, 48, 61
1, 460665, Note_on_c, 0, 55, 71
1, 460666, Note_on_c, 0, 43, 69
1, 460697, Control_c, 0, 64, 45
1, 460712, Control_c, 0, 64, 60
1, 460734, Control_c, 0, 64, 66
1, 460749, Control_c, 0, 64, 74
1, 460751, Note_on_c, 0, 48, 59
1, 460752, Note_off_c, 0, 55, 62
1, 460752, Note_off_c, 0, 43, 63
1, 460764, Note_on_c, 0, 51, 74
1, 460764, Control_c, 0, 64, 88
1, 460769, Note_off_c, 0, 72, 57
1, 460779, Control_c, 0, 64, 127
1, 460816, Note_off_c, 0, 84, 58
1, 460847, Note_off_c, 0, 51, 63
1, 460854, Note_off_c, 0, 48, 59
1, 460870, Note_on_c, 0, 55, 71
1, 460873, Note_on_c, 0, 43, 70
1, 460961, Note_off_c, 0, 43, 61
1, 460962, Note_off_c, 0, 55, 62
1, 460964, Note_on_c, 0, 48, 65
1, 460965, Note_on_c, 0, 51, 73
1, 461064, Note_off_c, 0, 48, 60
1, 461071, Note_off_c, 0, 51, 62
1, 461080, Note_on_c, 0, 55, 80
1, 461086, Note_on_c, 0, 43, 68
1, 461178, Note_on_c, 0, 51, 82
1, 461183, Note_on_c, 0, 48, 71
1, 461190, Note_off_c, 0, 55, 62
1, 461199, Note_on_c, 0, 75, 94
1, 461202, Note_on_c, 0, 87, 99
1, 461220, Note_off_c, 0, 48, 65
1, 461224, Note_off_c, 0, 51, 64
1, 461232, Note_off_c, 0, 43, 62
1, 461247, Note_off_c, 0, 87, 67
1, 461251, Note_off_c, 0, 75, 65
1, 461327, Control_c, 0, 64, 79
1, 461339, Note_on_c, 0, 72, 101
1, 461340, Note_on_c, 0, 84, 99
1, 461342, Note_on_c, 0, 48, 93
1, 461342, Control_c, 0, 64, 52
1, 461347, Note_on_c, 0, 36, 77
1, 461357, Control_c, 0, 64, 0
1, 461360, Note_on_c, 0, 82, 67
1, 461372, Control_c, 0, 64, 35
1, 461375, Note_off_c, 0, 36, 65
1, 461378, Note_off_c, 0, 82, 64
1, 461387, Control_c, 0, 64, 59
1, 461393, Note_off_c, 0, 48, 65
1, 461401, Control_c, 0, 64, 73
1, 461416, Control_c, 0, 64, 127
1, 461525, Note_on_c, 0, 48, 62
1, 461547, Note_on_c, 0, 51, 63
1, 461568, Note_off_c, 0, 84, 48
1, 461578, Note_off_c, 0, 72, 53
1, 461608, Note_off_c, 0, 48, 60
1, 461614, Note_on_c, 0, 55, 81
1, 461616, Note_off_c, 0, 51, 63
1, 461623, Note_on_c, 0, 43, 70
1, 461712, Note_on_c, 0, 48, 72
1, 461714, Note_on_c, 0, 51, 84
1, 461718, Note_off_c, 0, 55, 63
1, 461718, Note_off_c, 0, 43, 63
1, 461794, Control_c, 0, 64, 100
1, 461798, Note_on_c, 0, 84, 102
1, 461799, Note_on_c, 0, 72, 106
1, 461804, Note_off_c, 0, 51, 63
1, 461808, Control_c, 0, 64, 67
1, 461810, Note_on_c, 0, 43, 77
1, 461810, Note_off_c, 0, 48, 64
1, 461816, Note_on_c, 0, 55, 79
1, 461823, Control_c, 0, 64, 0
1, 461901, Note_off_c, 0, 43, 63
1, 461903, Note_on_c, 0, 48, 60
1, 461903, Note_off_c, 0, 55, 64
1, 461907, Note_on_c, 0, 51, 77
1, 461991, Note_off_c, 0, 51, 64
1, 462001, Note_off_c, 0, 48, 63
1, 462005, Note_on_c, 0, 55, 77
1, 462013, Note_on_c, 0, 43, 68
1, 462016, Control_c, 0, 64, 24
1, 462031, Control_c, 0, 64, 47
1, 462046, Control_c, 0, 64, 60
1, 462061, Control_c, 0, 64, 66
1, 462076, Control_c, 0, 64, 73
1, 462088, Note_off_c, 0, 72, 57
1, 462091, Control_c, 0, 64, 86
1, 462097, Note_off_c, 0, 43, 62
1, 462097, Note_off_c, 0, 55, 61
1, 462099, Note_on_c, 0, 48, 62
1, 462101, Note_on_c, 0, 51, 78
1, 462105, Control_c, 0, 64, 127
1, 462129, Note_off_c, 0, 84, 62
1, 462186, Note_off_c, 0, 51, 63
1, 462198, Note_off_c, 0, 48, 59
1, 462207, Note_on_c, 0, 55, 80
1, 462211, Note_on_c, 0, 43, 76
1, 462306, Note_on_c, 0, 51, 82
1, 462309, Note_on_c, 0, 48, 73
1, 462314, Note_off_c, 0, 43, 63
1, 462318, Note_off_c, 0, 55, 62
1, 462401, Note_off_c, 0, 51, 63
1, 462407, Note_off_c, 0, 48, 62
1, 462410, Note_on_c, 0, 55, 89
1, 462413, Note_on_c, 0, 43, 80
1, 462499, Note_on_c, 0, 51, 86
1, 462499, Note_on_c, 0, 48, 72
1, 462499, Note_off_c, 0, 55, 65
1, 462509, Note_on_c, 0, 75, 108
1, 462511, Note_on_c, 0, 87, 104
1, 462521, Note_off_c, 0, 51, 72
1, 462525, Note_off_c, 0, 48, 68
1, 462545, Note_off_c, 0, 43, 64
1, 462561, Note_off_c, 0, 75, 64
1, 462584, Note_off_c, 0, 87, 63
1, 462691, Control_c, 0, 64, 82
1, 462705, Control_c, 0, 64, 56
1, 462709, Note_on_c, 0, 43, 94
1, 462712, Note_on_c, 0, 31, 88
1, 462717, Note_on_c, 0, 79, 103
1, 462717, Note_on_c, 0, 91, 100
1, 462720, Control_c, 0, 64, 0
1, 462740, Note_off_c, 0, 31, 68
1, 462750, Control_c, 0, 64, 52
1, 462764, Control_c, 0, 64, 68
1, 462768, Note_off_c, 0, 43, 64
1, 462779, Control_c, 0, 64, 97
1, 462794, Control_c, 0, 64, 127
1, 462904, Note_on_c, 0, 47, 63
1, 462911, Note_on_c, 0, 50, 45
1, 462967, Note_off_c, 0, 47, 59
1, 462984, Note_off_c, 0, 50, 64
1, 462991, Note_on_c, 0, 43, 69
1, 462996, Control_c, 0, 64, 100
1, 463006, Note_on_c, 0, 55, 68
1, 463010, Control_c, 0, 64, 70
1, 463025, Control_c, 0, 64, 42
1, 463040, Control_c, 0, 64, 0
1, 463083, Note_off_c, 0, 43, 61
1, 463085, Note_on_c, 0, 47, 66
1, 463085, Note_on_c, 0, 50, 73
1, 463091, Note_off_c, 0, 55, 64
1, 463114, Control_c, 0, 64, 38
1, 463128, Control_c, 0, 64, 61
1, 463143, Control_c, 0, 64, 69
1, 463158, Control_c, 0, 64, 80
1, 463173, Control_c, 0, 64, 103
1, 463179, Note_off_c, 0, 50, 63
1, 463182, Note_off_c, 0, 47, 61
1, 463186, Note_on_c, 0, 43, 78
1, 463186, Note_on_c, 0, 55, 79
1, 463188, Control_c, 0, 64, 127
1, 463198, Note_off_c, 0, 79, 52
1, 463271, Note_on_c, 0, 47, 69
1, 463277, Control_c, 0, 64, 92
1, 463277, Note_on_c, 0, 50, 80
1, 463280, Note_off_c, 0, 43, 62
1, 463280, Note_off_c, 0, 55, 62
1, 463283, Note_off_c, 0, 91, 58
1, 463292, Control_c, 0, 64, 75
1, 463307, Control_c, 0, 64, 68
1, 463336, Control_c, 0, 64, 70
1, 463351, Control_c, 0, 64, 75
1, 463366, Control_c, 0, 64, 83
1, 463369, Note_on_c, 0, 92, 95
1, 463370, Note_on_c, 0, 80, 96
1, 463378, Note_off_c, 0, 47, 61
1, 463380, Control_c, 0, 64, 104
1, 463381, Note_on_c, 0, 55, 88
1, 463381, Note_off_c, 0, 50, 64
1, 463385, Note_on_c, 0, 43, 83
1, 463395, Control_c, 0, 64, 127
1, 463422, Note_off_c, 0, 92, 67
1, 463439, Note_off_c, 0, 80, 63
1, 463468, Note_on_c, 0, 47, 70
1, 463476, Note_on_c, 0, 50, 82
1, 463477, Note_off_c, 0, 43, 61
1, 463480, Note_off_c, 0, 55, 61
1, 463528, Control_c, 0, 64, 100
1, 463543, Control_c, 0, 64, 74
1, 463558, Control_c, 0, 64, 60
1, 463563, Note_off_c, 0, 50, 63
1, 463565, Note_off_c, 0, 47, 61
1, 463570, Note_on_c, 0, 77, 96
1, 463573, Control_c, 0, 64, 50
1, 463574, Note_on_c, 0, 89, 97
1, 463575, Note_on_c, 0, 55, 88
1, 463579, Note_on_c, 0, 43, 81
1, 463587, Control_c, 0, 64, 56
1, 463602, Control_c, 0, 64, 62
1, 463615, Note_off_c, 0, 89, 64
1, 463617, Control_c, 0, 64, 69
1, 463633, Control_c, 0, 64, 83
1, 463635, Note_off_c, 0, 77, 63
1, 463648, Control_c, 0, 64, 127
1, 463666, Note_on_c, 0, 47, 80
1, 463670, Note_on_c, 0, 50, 81
1, 463672, Note_off_c, 0, 43, 63
1, 463676, Note_off_c, 0, 55, 61
1, 463763, Note_off_c, 0, 50, 64
1, 463772, Note_off_c, 0, 47, 57
1, 463776, Note_on_c, 0, 55, 91
1, 463784, Note_on_c, 0, 74, 100
1, 463784, Note_on_c, 0, 43, 82
1, 463786, Note_on_c, 0, 86, 98
1, 463855, Note_off_c, 0, 55, 63
1, 463871, Note_on_c, 0, 47, 81
1, 463872, Note_on_c, 0, 50, 85
1, 463891, Note_off_c, 0, 86, 62
1, 463894, Note_off_c, 0, 43, 61
1, 463902, Note_off_c, 0, 74, 53
1, 463903, Note_off_c, 0, 50, 63
1, 463909, Note_off_c, 0, 47, 64
1, 463966, Control_c, 0, 64, 68
1, 463981, Control_c, 0, 64, 0
1, 464001, Note_on_c, 0, 48, 98
1, 464007, Note_on_c, 0, 36, 78
1, 464009, Note_on_c, 0, 74, 98
1, 464010, Note_on_c, 0, 86, 95
1, 464031, Note_off_c, 0, 36, 66
1, 464040, Control_c, 0, 64, 58
1, 464051, Note_off_c, 0, 48, 65
1, 464055, Control_c, 0, 64, 76
1, 464058, Note_off_c, 0, 74, 65
1, 464070, Control_c, 0, 64, 127
1, 464075, Note_off_c, 0, 86, 63
1, 464177, Note_on_c, 0, 51, 67
1, 464183, Note_on_c, 0, 48, 39
1, 464236, Note_off_c, 0, 48, 63
1, 464239, Note_off_c, 0, 51, 64
1, 464243, Note_on_c, 0, 55, 79
1, 464252, Note_on_c, 0, 43, 70
1, 464271, Note_on_c, 0, 87, 96
1, 464273, Note_on_c, 0, 75, 97
1, 464328, Note_off_c, 0, 75, 62
1, 464329, Note_off_c, 0, 87, 66
1, 464337, Note_on_c, 0, 51, 87
1, 464338, Note_on_c, 0, 48, 73
1, 464341, Note_off_c, 0, 55, 63
1, 464341, Note_off_c, 0, 43, 62
1, 464441, Control_c, 0, 64, 89
1, 464447, Note_off_c, 0, 51, 63
1, 464448, Note_off_c, 0, 48, 60
1, 464450, Note_on_c, 0, 55, 80
1, 464454, Note_on_c, 0, 43, 76
1, 464456, Control_c, 0, 64, 62
1, 464475, Note_on_c, 0, 72, 96
1, 464475, Note_on_c, 0, 84, 97
1, 464478, Control_c, 0, 64, 0
1, 464560, Note_on_c, 0, 51, 80
1, 464562, Note_off_c, 0, 43, 63
1, 464562, Note_on_c, 0, 48, 69
1, 464566, Note_off_c, 0, 55, 61
1, 464653, Note_off_c, 0, 51, 63
1, 464657, Note_off_c, 0, 48, 63
1, 464665, Note_on_c, 0, 55, 81
1, 464671, Note_on_c, 0, 43, 72
1, 464671, Control_c, 0, 64, 42
1, 464686, Control_c, 0, 64, 60
1, 464700, Control_c, 0, 64, 67
1, 464715, Control_c, 0, 64, 78
1, 464730, Control_c, 0, 64, 98
1, 464745, Control_c, 0, 64, 127
1, 464753, Note_off_c, 0, 72, 60
1, 464756, Note_off_c, 0, 43, 62
1, 464757, Note_on_c, 0, 48, 71
1, 464761, Note_on_c, 0, 51, 83
1, 464769, Note_off_c, 0, 55, 59
1, 464794, Note_off_c, 0, 84, 62
1, 464845, Note_off_c, 0, 51, 61
1, 464864, Note_off_c, 0, 48, 60
1, 464866, Note_on_c, 0, 43, 78
1, 464867, Note_on_c, 0, 55, 85
1, 464958, Note_on_c, 0, 48, 71
1, 464961, Note_on_c, 0, 51, 81
1, 464969, Note_off_c, 0, 43, 62
1, 464970, Note_off_c, 0, 55, 61
1, 465060, Note_on_c, 0, 55, 94
1, 465066, Note_on_c, 0, 43, 81
1, 465069, Note_off_c, 0, 48, 61
1, 465070, Note_off_c, 0, 51, 64
1, 465122, Note_on_c, 0, 75, 102
1, 465125, Note_on_c, 0, 87, 105
1, 465141, Note_off_c, 0, 55, 65
1, 465143, Note_on_c, 0, 51, 80
1, 465145, Note_on_c, 0, 48, 72
1, 465164, Note_off_c, 0, 51, 69
1, 465167, Note_off_c, 0, 75, 68
1, 465167, Note_off_c, 0, 48, 70
1, 465175, Note_off_c, 0, 43, 60
1, 465186, Note_off_c, 0, 87, 65
1, 465316, Control_c, 0, 64, 84
1, 465331, Control_c, 0, 64, 57
1, 465336, Note_on_c, 0, 43, 96
1, 465338, Note_on_c, 0, 79, 100
1, 465339, Note_on_c, 0, 91, 102
1, 465341, Note_on_c, 0, 31, 84
1, 465346, Control_c, 0, 64, 0
1, 465361, Control_c, 0, 64, 20
1, 465367, Note_off_c, 0, 31, 66
1, 465376, Control_c, 0, 64, 57
1, 465390, Note_off_c, 0, 43, 65
1, 465390, Control_c, 0, 64, 71
1, 465405, Control_c, 0, 64, 127
1, 465525, Note_on_c, 0, 50, 63
1, 465526, Note_on_c, 0, 47, 63
1, 465597, Note_off_c, 0, 47, 61
1, 465602, Note_off_c, 0, 50, 63
1, 465608, Note_on_c, 0, 55, 78
1, 465611, Note_on_c, 0, 43, 71
1, 465612, Control_c, 0, 64, 104
1, 465627, Control_c, 0, 64, 73
1, 465642, Control_c, 0, 64, 40
1, 465656, Control_c, 0, 64, 0
1, 465700, Note_on_c, 0, 47, 70
1, 465703, Note_off_c, 0, 43, 63
1, 465706, Note_on_c, 0, 50, 75
1, 465706, Note_off_c, 0, 55, 63
1, 465745, Control_c, 0, 64, 48
1, 465760, Control_c, 0, 64, 63
1, 465775, Control_c, 0, 64, 72
1, 465790, Control_c, 0, 64, 88
1, 465794, Note_off_c, 0, 50, 63
1, 465799, Note_on_c, 0, 55, 87
1, 465799, Note_off_c, 0, 47, 61
1, 465804, Note_off_c, 0, 79, 47
1, 465805, Note_on_c, 0, 43, 78
1, 465805, Control_c, 0, 64, 127
1, 465894, Note_off_c, 0, 91, 55
1, 465894, Control_c, 0, 64, 106
1, 465894, Note_on_c, 0, 47, 71
1, 465896, Note_off_c, 0, 43, 62
1, 465899, Note_on_c, 0, 50, 79
1, 465903, Note_off_c, 0, 55, 61
1, 465909, Control_c, 0, 64, 75
1, 465923, Control_c, 0, 64, 56
1, 465938, Control_c, 0, 64, 37
1, 465953, Control_c, 0, 64, 42
1, 465975, Control_c, 0, 64, 53
1, 465990, Control_c, 0, 64, 63
1, 465993, Note_on_c, 0, 92, 102
1, 465996, Note_on_c, 0, 80, 96
1, 465999, Note_off_c, 0, 50, 64
1, 466000, Note_on_c, 0, 55, 87
1, 466000, Note_off_c, 0, 47, 62
1, 466005, Note_on_c, 0, 43, 80
1, 466005, Control_c, 0, 64, 72
1, 466019, Control_c, 0, 64, 104
1, 466035, Control_c, 0, 64, 127
1, 466055, Note_off_c, 0, 92, 68
1, 466088, Note_on_c, 0, 47, 70
1, 466089, Note_on_c, 0, 50, 80
1, 466095, Note_off_c, 0, 43, 62
1, 466096, Note_off_c, 0, 80, 63
1, 466100, Note_off_c, 0, 55, 61
1, 466168, Control_c, 0, 64, 88
1, 466183, Control_c, 0, 64, 67
1, 466191, Note_off_c, 0, 50, 64
1, 466195, Note_off_c, 0, 47, 60
1, 466197, Note_on_c, 0, 55, 90
1, 466198, Control_c, 0, 64, 48
1, 466203, Note_on_c, 0, 43, 80
1, 466206, Note_on_c, 0, 77, 97
1, 466207, Note_on_c, 0, 89, 99
1, 466213, Control_c, 0, 64, 46
1, 466228, Control_c, 0, 64, 54
1, 466243, Control_c, 0, 64, 63
1, 466252, Note_off_c, 0, 89, 65
1, 466258, Note_off_c, 0, 77, 61
1, 466258, Control_c, 0, 64, 71
1, 466273, Control_c, 0, 64, 91
1, 466288, Control_c, 0, 64, 127
1, 466290, Note_on_c, 0, 50, 83
1, 466293, Note_on_c, 0, 47, 76
1, 466298, Note_off_c, 0, 55, 62
1, 466300, Note_off_c, 0, 43, 62
1, 466332, Control_c, 0, 64, 109
1, 466347, Control_c, 0, 64, 80
1, 466362, Control_c, 0, 64, 69
1, 466377, Control_c, 0, 64, 68
1, 466380, Note_off_c, 0, 50, 64
1, 466390, Note_on_c, 0, 55, 91
1, 466391, Note_off_c, 0, 47, 58
1, 466392, Control_c, 0, 64, 71
1, 466394, Note_on_c, 0, 86, 103
1, 466394, Note_on_c, 0, 74, 97
1, 466397, Note_on_c, 0, 43, 82
1, 466406, Control_c, 0, 64, 78
1, 466421, Control_c, 0, 64, 92
1, 466436, Control_c, 0, 64, 127
1, 466452, Note_off_c, 0, 74, 53
1, 466462, Note_off_c, 0, 55, 64
1, 466472, Note_on_c, 0, 47, 72
1, 466473, Note_on_c, 0, 50, 83
1, 466480, Note_off_c, 0, 86, 0
1, 466496, Note_off_c, 0, 43, 58
1, 466503, Note_off_c, 0, 50, 66
1, 466510, Poly_aftertouch_c, 0, 86, 0
1, 466513, Note_off_c, 0, 47, 64
1, 466540, Control_c, 0, 64, 83
1, 466554, Control_c, 0, 64, 56
1, 466569, Control_c, 0, 64, 0
1, 466598, Control_c, 0, 64, 47
1, 466601, Note_on_c, 0, 48, 97
1, 466601, Note_on_c, 0, 74, 98
1, 466603, Note_on_c, 0, 86, 104
1, 466608, Note_on_c, 0, 36, 83
1, 466613, Control_c, 0, 64, 68
1, 466628, Note_off_c, 0, 36, 67
1, 466628, Control_c, 0, 64, 101
1, 466643, Control_c, 0, 64, 127
1, 466645, Note_off_c, 0, 48, 67
1, 466654, Note_off_c, 0, 74, 66
1, 466672, Note_off_c, 0, 86, 63
1, 466765, Poly_aftertouch_c, 0, 36, 127
1, 466795, Poly_aftertouch_c, 0, 36, 0
1, 466804, Note_on_c, 0, 48, 23
1, 466812, Note_on_c, 0, 51, 61
1, 466845, Note_off_c, 0, 48, 58
1, 466856, Note_on_c, 0, 55, 77
1, 466860, Note_off_c, 0, 51, 63
1, 466862, Note_on_c, 0, 43, 71
1, 466864, Note_on_c, 0, 75, 100
1, 466866, Note_on_c, 0, 87, 96
1, 466899, Note_on_c, 0, 85, 42
1, 466907, Note_off_c, 0, 87, 67
1, 466916, Note_off_c, 0, 75, 62
1, 466923, Note_off_c, 0, 85, 58
1, 466949, Note_on_c, 0, 48, 75
1, 466955, Note_on_c, 0, 51, 87
1, 466957, Note_off_c, 0, 43, 62
1, 466964, Note_off_c, 0, 55, 61
1, 467021, Control_c, 0, 64, 90
1, 467036, Control_c, 0, 64, 69
1, 467051, Control_c, 0, 64, 55
1, 467052, Note_off_c, 0, 51, 65
1, 467053, Note_off_c, 0, 48, 63
1, 467057, Note_on_c, 0, 43, 77
1, 467060, Note_on_c, 0, 72, 94
1, 467060, Note_on_c, 0, 84, 100
1, 467062, Note_on_c, 0, 55, 82
1, 467066, Control_c, 0, 64, 0
1, 467149, Note_off_c, 0, 43, 62
1, 467152, Note_on_c, 0, 51, 81
1, 467164, Note_on_c, 0, 48, 64
1, 467165, Note_off_c, 0, 55, 61
1, 467243, Note_off_c, 0, 51, 62
1, 467251, Note_off_c, 0, 48, 62
1, 467255, Note_on_c, 0, 55, 81
1, 467261, Note_on_c, 0, 43, 69
1, 467302, Control_c, 0, 64, 44
1, 467317, Control_c, 0, 64, 60
1, 467332, Control_c, 0, 64, 66
1, 467344, Note_on_c, 0, 48, 62
1, 467346, Note_on_c, 0, 51, 81
1, 467347, Note_off_c, 0, 43, 63
1, 467347, Control_c, 0, 64, 73
1, 467352, Note_off_c, 0, 55, 62
1, 467362, Control_c, 0, 64, 85
1, 467376, Control_c, 0, 64, 109
1, 467389, Note_off_c, 0, 72, 59
1, 467391, Control_c, 0, 64, 127
1, 467423, Note_off_c, 0, 84, 63
1, 467427, Note_off_c, 0, 51, 63
1, 467443, Note_off_c, 0, 48, 62
1, 467444, Note_on_c, 0, 55, 81
1, 467446, Note_on_c, 0, 43, 77
1, 467541, Note_on_c, 0, 51, 88
1, 467546, Note_off_c, 0, 55, 63
1, 467549, Note_on_c, 0, 48, 70
1, 467568, Note_off_c, 0, 43, 60
1, 467636, Note_on_c, 0, 55, 90
1, 467642, Note_off_c, 0, 51, 63
1, 467643, Note_on_c, 0, 43, 69
1, 467670, Note_off_c, 0, 48, 58
1, 467736, Note_on_c, 0, 51, 72
1, 467739, Note_on_c, 0, 75, 98
1, 467742, Note_on_c, 0, 87, 99
1, 467751, Note_off_c, 0, 55, 58
1, 467772, Note_off_c, 0, 43, 56
1, 467784, Note_off_c, 0, 75, 65
1, 467785, Control_c, 0, 64, 113
1, 467786, Note_off_c, 0, 51, 64
1, 467799, Control_c, 0, 64, 71
1, 467805, Note_off_c, 0, 87, 63
1, 467814, Control_c, 0, 64, 35
1, 467829, Control_c, 0, 64, 0
1, 467859, Control_c, 0, 64, 42
1, 467874, Note_on_c, 0, 55, 99
1, 467874, Control_c, 0, 64, 80
1, 467878, Note_on_c, 0, 43, 85
1, 467879, Note_on_c, 0, 91, 108
1, 467881, Note_on_c, 0, 79, 102
1, 467888, Control_c, 0, 64, 127
1, 467891, Note_on_c, 0, 47, 64
1, 467909, Note_off_c, 0, 43, 67
1, 467918, Note_off_c, 0, 47, 65
1, 467920, Note_off_c, 0, 79, 67
1, 467927, Note_off_c, 0, 55, 66
1, 467933, Note_off_c, 0, 91, 65
1, 467950, Note_on_c, 0, 50, 5
1, 467985, Note_off_c, 0, 50, 37
1, 468110, Note_on_c, 0, 68, 92
1, 468118, Note_on_c, 0, 56, 73
1, 468150, Note_off_c, 0, 56, 67
1, 468155, Control_c, 0, 64, 101
1, 468157, Note_off_c, 0, 68, 63
1, 468170, Control_c, 0, 64, 77
1, 468185, Control_c, 0, 64, 71
1, 468199, Control_c, 0, 64, 73
1, 468219, Note_on_c, 0, 80, 88
1, 468220, Note_on_c, 0, 92, 93
1, 468222, Control_c, 0, 64, 79
1, 468237, Control_c, 0, 64, 96
1, 468251, Control_c, 0, 64, 127
1, 468265, Note_off_c, 0, 92, 66
1, 468275, Note_off_c, 0, 80, 64
1, 468315, Note_on_c, 0, 65, 94
1, 468315, Note_on_c, 0, 53, 83
1, 468324, Control_c, 0, 64, 89
1, 468339, Control_c, 0, 64, 66
1, 468354, Control_c, 0, 64, 60
1, 468368, Control_c, 0, 64, 62
1, 468377, Note_off_c, 0, 65, 60
1, 468383, Control_c, 0, 64, 66
1, 468387, Note_off_c, 0, 53, 63
1, 468398, Control_c, 0, 64, 74
1, 468399, Note_on_c, 0, 89, 91
1, 468401, Note_on_c, 0, 77, 86
1, 468413, Control_c, 0, 64, 103
1, 468429, Control_c, 0, 64, 127
1, 468448, Note_off_c, 0, 77, 63
1, 468450, Note_off_c, 0, 89, 65
1, 468493, Note_on_c, 0, 62, 92
1, 468497, Note_on_c, 0, 50, 85
1, 468503, Control_c, 0, 64, 86
1, 468518, Control_c, 0, 64, 67
1, 468533, Control_c, 0, 64, 57
1, 468547, Control_c, 0, 64, 60
1, 468562, Control_c, 0, 64, 64
1, 468566, Note_off_c, 0, 62, 59
1, 468577, Control_c, 0, 64, 73
1, 468581, Note_off_c, 0, 50, 62
1, 468586, Note_on_c, 0, 86, 91
1, 468589, Note_on_c, 0, 74, 86
1, 468592, Control_c, 0, 64, 104
1, 468607, Control_c, 0, 64, 127
1, 468633, Note_off_c, 0, 74, 63
1, 468636, Note_off_c, 0, 86, 66
1, 468677, Note_on_c, 0, 59, 96
1, 468680, Note_on_c, 0, 47, 90
1, 468681, Control_c, 0, 64, 99
1, 468696, Control_c, 0, 64, 72
1, 468711, Control_c, 0, 64, 56
1, 468726, Control_c, 0, 64, 52
1, 468740, Control_c, 0, 64, 57
1, 468752, Note_off_c, 0, 59, 62
1, 468755, Control_c, 0, 64, 64
1, 468762, Note_off_c, 0, 47, 62
1, 468770, Control_c, 0, 64, 71
1, 468775, Note_on_c, 0, 83, 92
1, 468776, Note_on_c, 0, 71, 85
1, 468785, Control_c, 0, 64, 87
1, 468799, Control_c, 0, 64, 127
1, 468822, Note_off_c, 0, 71, 63
1, 468824, Note_off_c, 0, 83, 65
1, 468871, Note_on_c, 0, 56, 95
1, 468878, Note_on_c, 0, 44, 89
1, 468888, Control_c, 0, 64, 91
1, 468903, Control_c, 0, 64, 68
1, 468918, Control_c, 0, 64, 59
1, 468933, Control_c, 0, 64, 58
1, 468947, Control_c, 0, 64, 62
1, 468953, Note_off_c, 0, 56, 60
1, 468954, Note_off_c, 0, 44, 62
1, 468970, Control_c, 0, 64, 67
1, 468971, Note_on_c, 0, 80, 93
1, 468973, Note_on_c, 0, 68, 94
1, 468985, Control_c, 0, 64, 78
1, 468999, Control_c, 0, 64, 127
1, 469024, Note_off_c, 0, 80, 65
1, 469025, Note_off_c, 0, 68, 62
1, 469073, Control_c, 0, 64, 111
1, 469074, Note_on_c, 0, 53, 99
1, 469078, Note_on_c, 0, 41, 85
1, 469088, Control_c, 0, 64, 70
1, 469103, Control_c, 0, 64, 54
1, 469114, Note_on_c, 0, 44, 37
1, 469118, Control_c, 0, 64, 46
1, 469133, Control_c, 0, 64, 54
1, 469146, Note_off_c, 0, 53, 63
1, 469147, Control_c, 0, 64, 62
1, 469154, Note_off_c, 0, 44, 31
1, 469162, Control_c, 0, 64, 70
1, 469163, Note_off_c, 0, 41, 63
1, 469164, Note_on_c, 0, 65, 89
1, 469164, Note_on_c, 0, 77, 93
1, 469177, Control_c, 0, 64, 93
1, 469192, Control_c, 0, 64, 127
1, 469207, Note_off_c, 0, 65, 65
1, 469207, Note_off_c, 0, 77, 65
1, 469260, Note_on_c, 0, 50, 94
1, 469262, Note_on_c, 0, 38, 87
1, 469267, Control_c, 0, 64, 81
1, 469282, Control_c, 0, 64, 63
1, 469296, Control_c, 0, 64, 55
1, 469311, Control_c, 0, 64, 59
1, 469317, Note_off_c, 0, 50, 62
1, 469322, Note_off_c, 0, 38, 61
1, 469326, Control_c, 0, 64, 64
1, 469341, Control_c, 0, 64, 75
1, 469356, Control_c, 0, 64, 127
1, 469358, Note_on_c, 0, 74, 91
1, 469361, Note_on_c, 0, 62, 90
1, 469397, Note_off_c, 0, 74, 67
1, 469403, Note_off_c, 0, 62, 66
1, 469443, Note_on_c, 0, 47, 98
1, 469444, Control_c, 0, 64, 108
1, 469448, Note_on_c, 0, 35, 84
1, 469459, Control_c, 0, 64, 71
1, 469474, Control_c, 0, 64, 62
1, 469489, Control_c, 0, 64, 64
1, 469501, Note_off_c, 0, 47, 62
1, 469504, Control_c, 0, 64, 69
1, 469504, Note_off_c, 0, 35, 61
1, 469519, Control_c, 0, 64, 89
1, 469534, Control_c, 0, 64, 127
1, 469539, Note_on_c, 0, 59, 96
1, 469539, Note_on_c, 0, 71, 90
1, 469577, Poly_aftertouch_c, 0, 37, 0
1, 469577, Note_off_c, 0, 59, 67
1, 469577, Note_off_c, 0, 71, 65
1, 469608, Control_c, 0, 64, 98
1, 469622, Control_c, 0, 64, 71
1, 469624, Note_on_c, 0, 44, 94
1, 469634, Note_on_c, 0, 32, 79
1, 469637, Control_c, 0, 64, 64
1, 469652, Control_c, 0, 64, 69
1, 469667, Control_c, 0, 64, 84
1, 469680, Note_off_c, 0, 32, 60
1, 469682, Control_c, 0, 64, 127
1, 469686, Note_off_c, 0, 44, 59
1, 469725, Note_on_c, 0, 68, 95
1, 469727, Note_on_c, 0, 56, 96
1, 469773, Note_off_c, 0, 56, 65
1, 469782, Note_off_c, 0, 68, 59
1, 469793, Control_c, 0, 64, 104
1, 469804, Note_on_c, 0, 43, 102
1, 469808, Control_c, 0, 64, 64
1, 469809, Note_on_c, 0, 31, 83
1, 469823, Control_c, 0, 64, 0
1, 469841, Note_off_c, 0, 31, 67
1, 469853, Control_c, 0, 64, 49
1, 469865, Note_off_c, 0, 43, 65
1, 469868, Control_c, 0, 64, 70
1, 469883, Control_c, 0, 64, 127
1, 469905, Note_on_c, 0, 55, 95
1, 469912, Note_on_c, 0, 67, 89
1, 469954, Note_off_c, 0, 55, 63
1, 469959, Note_off_c, 0, 67, 61
1, 470004, Note_on_c, 0, 50, 79
1, 470005, Note_on_c, 0, 55, 94
1, 470019, Note_on_c, 0, 47, 77
1, 470040, Note_off_c, 0, 50, 66
1, 470048, Note_off_c, 0, 55, 64
1, 470070, Note_off_c, 0, 47, 61
1, 470114, Note_on_c, 0, 62, 78
1, 470115, Note_on_c, 0, 59, 96
1, 470118, Note_on_c, 0, 71, 85
1, 470141, Note_off_c, 0, 62, 68
1, 470153, Note_off_c, 0, 59, 66
1, 470174, Note_off_c, 0, 71, 61
1, 470273, Note_on_c, 0, 60, 100
1, 470275, Note_on_c, 0, 63, 96
1, 470277, Note_on_c, 0, 48, 101
1, 470277, Note_on_c, 0, 72, 96
1, 470282, Note_on_c, 0, 43, 86
1, 470288, Note_on_c, 0, 39, 85
1, 470290, Note_on_c, 0, 36, 84
1, 470312, Control_c, 0, 64, 69
1, 470327, Control_c, 0, 64, 0
1, 470527, Control_c, 0, 64, 48
1, 470542, Control_c, 0, 64, 63
1, 470557, Control_c, 0, 64, 73
1, 470572, Control_c, 0, 64, 92
1, 470587, Control_c, 0, 64, 127
1, 470592, Note_off_c, 0, 72, 50
1, 470679, Note_off_c, 0, 48, 56
1, 470681, Note_off_c, 0, 36, 57
1, 470684, Note_off_c, 0, 63, 57
1, 470703, Note_off_c, 0, 60, 56
1, 470733, Note_off_c, 0, 43, 59
1, 470746, Note_off_c, 0, 39, 56
1, 470765, Control_c, 0, 64, 92
1, 470780, Control_c, 0, 64, 71
1, 470794, Control_c, 0, 64, 56
1, 470809, Control_c, 0, 64, 19
1, 470825, Control_c, 0, 64, 0
1, 471076, Control_c, 0, 67, 15
1, 471091, Control_c, 0, 67, 35
1, 471106, Control_c, 0, 67, 54
1, 471121, Control_c, 0, 67, 72
1, 471135, Control_c, 0, 67, 87
1, 471150, Control_c, 0, 67, 105
1, 471165, Control_c, 0, 67, 119
1, 471180, Control_c, 0, 67, 127
1, 471321, Control_c, 0, 64, 11
1, 471336, Control_c, 0, 64, 33
1, 471350, Control_c, 0, 64, 43
1, 471365, Control_c, 0, 64, 50
1, 471380, Control_c, 0, 64, 56
1, 471395, Control_c, 0, 64, 59
1, 471410, Control_c, 0, 64, 61
1, 471424, Control_c, 0, 64, 62
1, 471439, Note_on_c, 0, 59, 48
1, 471439, Control_c, 0, 64, 63
1, 471454, Control_c, 0, 64, 64
1, 471457, Note_on_c, 0, 43, 37
1, 471460, Note_on_c, 0, 50, 35
1, 471461, Note_on_c, 0, 55, 33
1, 471469, Control_c, 0, 64, 65
1, 471483, Control_c, 0, 64, 67
1, 471498, Control_c, 0, 64, 69
1, 471513, Control_c, 0, 64, 73
1, 471528, Control_c, 0, 64, 76
1, 471543, Control_c, 0, 64, 79
1, 471553, Note_off_c, 0, 43, 54
1, 471555, Note_off_c, 0, 59, 57
1, 471558, Control_c, 0, 64, 80
1, 471573, Note_off_c, 0, 55, 31
1, 471587, Control_c, 0, 64, 79
1, 471588, Note_off_c, 0, 50, 35
1, 471602, Control_c, 0, 64, 78
1, 471618, Control_c, 0, 64, 77
1, 471633, Control_c, 0, 64, 75
1, 471647, Control_c, 0, 64, 73
1, 471662, Control_c, 0, 64, 71
1, 471677, Control_c, 0, 64, 67
1, 471692, Control_c, 0, 64, 63
1, 471707, Control_c, 0, 64, 57
1, 471722, Control_c, 0, 64, 52
1, 471737, Control_c, 0, 64, 49
1, 471752, Control_c, 0, 64, 48
1, 471766, Control_c, 0, 64, 45
1, 471781, Control_c, 0, 64, 40
1, 471796, Control_c, 0, 64, 31
1, 471811, Control_c, 0, 64, 23
1, 471826, Control_c, 0, 64, 16
1, 471840, Control_c, 0, 64, 13
1, 471855, Control_c, 0, 64, 9
1, 471870, Control_c, 0, 64, 0
1, 472054, Control_c, 0, 64, 9
1, 472069, Control_c, 0, 64, 15
1, 472084, Control_c, 0, 64, 19
1, 472098, Control_c, 0, 64, 22
1, 472113, Control_c, 0, 64, 26
1, 472128, Control_c, 0, 64, 31
1, 472143, Control_c, 0, 64, 38
1, 472158, Control_c, 0, 64, 47
1, 472172, Control_c, 0, 64, 53
1, 472187, Control_c, 0, 64, 58
1, 472202, Control_c, 0, 64, 61
1, 472217, Control_c, 0, 64, 63
1, 472219, Note_on_c, 0, 60, 42
1, 472225, Note_on_c, 0, 55, 34
1, 472227, Note_on_c, 0, 51, 37
1, 472232, Control_c, 0, 64, 64
1, 472236, Note_on_c, 0, 43, 23
1, 472241, Note_on_c, 0, 48, 28
1, 472242, Note_on_c, 0, 36, 28
1, 472247, Control_c, 0, 64, 66
1, 472261, Control_c, 0, 64, 68
1, 472276, Control_c, 0, 64, 70
1, 472291, Control_c, 0, 64, 73
1, 472306, Control_c, 0, 64, 77
1, 472321, Control_c, 0, 64, 80
1, 472336, Control_c, 0, 64, 82
1, 472351, Control_c, 0, 64, 83
1, 472354, Note_off_c, 0, 60, 57
1, 472369, Note_off_c, 0, 43, 32
1, 472388, Note_off_c, 0, 55, 33
1, 472392, Note_off_c, 0, 48, 41
1, 472393, Note_off_c, 0, 51, 33
1, 472419, Note_off_c, 0, 36, 39
1, 472440, Control_c, 0, 64, 82
1, 472470, Control_c, 0, 64, 82
1, 472500, Control_c, 0, 64, 81
1, 472514, Control_c, 0, 64, 81
1, 472529, Control_c, 0, 64, 80
1, 472544, Control_c, 0, 64, 79
1, 472559, Control_c, 0, 64, 78
1, 472574, Control_c, 0, 64, 77
1, 472588, Control_c, 0, 64, 75
1, 472603, Control_c, 0, 64, 73
1, 472618, Control_c, 0, 64, 69
1, 472632, Control_c, 0, 64, 66
1, 472647, Control_c, 0, 64, 63
1, 472662, Control_c, 0, 64, 61
1, 472677, Control_c, 0, 64, 59
1, 472692, Control_c, 0, 64, 58
1, 472714, Control_c, 0, 64, 57
1, 472729, Control_c, 0, 64, 56
1, 472744, Control_c, 0, 64, 55
1, 472759, Control_c, 0, 64, 53
1, 472774, Control_c, 0, 64, 53
1, 472789, Control_c, 0, 64, 52
1, 472803, Control_c, 0, 64, 51
1, 472818, Control_c, 0, 64, 49
1, 472833, Control_c, 0, 64, 48
1, 472847, Control_c, 0, 64, 46
1, 472862, Control_c, 0, 64, 45
1, 472877, Control_c, 0, 64, 45
1, 472892, Control_c, 0, 64, 44
1, 472907, Control_c, 0, 64, 44
1, 472921, Control_c, 0, 64, 43
1, 473069, Control_c, 0, 64, 43
1, 474686, Control_c, 0, 64, 43
1, 475213, Control_c, 0, 64, 44
1, 475644, Control_c, 0, 64, 44
1, 475785, Control_c, 0, 64, 45
1, 475874, Control_c, 0, 64, 45
1, 476065, Control_c, 0, 64, 46
1, 476710, Control_c, 0, 64, 45
1, 476725, Control_c, 0, 64, 45
1, 476740, Control_c, 0, 64, 43
1, 476754, Control_c, 0, 64, 37
1, 476769, Control_c, 0, 64, 23
1, 476784, Control_c, 0, 64, 0
1, 482263, Control_c, 0, 67, 127
1, 482278, Control_c, 0, 67, 121
1, 482293, Control_c, 0, 67, 115
1, 482308, Control_c, 0, 67, 107
1, 482322, Control_c, 0, 67, 99
1, 482337, Control_c, 0, 67, 89
1, 482352, Control_c, 0, 67, 80
1, 482367, Control_c, 0, 67, 71
1, 482382, Control_c, 0, 67, 62
1, 482396, Control_c, 0, 67, 53
1, 482411, Control_c, 0, 67, 44
1, 482426, Control_c, 0, 67, 34
1, 482448, Control_c, 0, 67, 26
1, 482463, Control_c, 0, 67, 17
1, 482478, Control_c, 0, 67, 9
1, 482493, Control_c, 0, 67, 0
1, 482568, End_track
0, 0, End_of_file
