0, 0, Header, 0, 1, 384
1, 0, Start_track
1, 0, Title_t, "Mazurka Op. 17/4--A. Terenkova  "
1, 0, Text_t, "2009 Piano-e-Competition audition round"
1, 0, Text_t, "captured January 2009"
1, 0, Text_t, "http://www.piano-e-competition.com/"
1, 0, Text_t, "File processed for distribution by software from Zenph Studios, Inc., http://www.zenph.com"
1, 0, Instrument_name_t, "Yamaha Disklavier Pro Mark IV concert grand piano, model DCFIIISM4PRO"
1, 0, Sequencer_specific, 39, 67, 113, 0, 1, 0, 1, 0, 77, 97, 122, 117, 114, 107, 97, 32, 79, 112, 46, 32, 49, 55, 47, 52, 65, 46, 32, 84, 101, 114, 101, 110, 107, 111, 118, 97, 32, 32, 32, 32
1, 0, Sequencer_specific, 6, 67, 113, 0, 0, 0, 69
1, 0, System_exclusive, 21, 67, 113, 126, 21, 0, 2, 2, 0, 3, 14, 1, 4, 1, 13, 13, 10, 11, 9, 2, 7, 247
1, 0, Sequencer_specific, 5, 67, 123, 12, 2, 1
1, 0, Tempo, 512820
1, 0, Time_signature, 4, 2, 24, 8
1, 0, System_exclusive, 5, 126, 127, 9, 1, 247
1, 1, System_exclusive, 8, 67, 16, 76, 0, 0, 126, 0, 247
1, 2, System_exclusive, 8, 67, 16, 76, 8, 9, 7, 1, 247
1, 3, Control_c, 0, 0, 0
1, 3, Control_c, 1, 0, 0
1, 3, Control_c, 2, 0, 0
1, 3, Control_c, 3, 0, 0
1, 3, Control_c, 4, 0, 0
1, 3, Control_c, 5, 0, 0
1, 3, Control_c, 6, 0, 0
1, 3, Control_c, 7, 0, 0
1, 3, Control_c, 8, 0, 0
1, 3, Control_c, 9, 0, 127
1, 3, Control_c, 10, 0, 0
1, 3, Control_c, 11, 0, 0
1, 3, Control_c, 12, 0, 0
1, 3, Control_c, 13, 0, 0
1, 3, Control_c, 14, 0, 0
1, 3, Control_c, 15, 0, 0
1, 4, Control_c, 0, 32, 0
1, 4, Control_c, 1, 32, 0
1, 4, Control_c, 2, 32, 0
1, 4, Control_c, 3, 32, 0
1, 4, Control_c, 4, 32, 0
1, 4, Control_c, 5, 32, 0
1, 4, Control_c, 6, 32, 0
1, 4, Control_c, 7, 32, 0
1, 4, Control_c, 8, 32, 0
1, 4, Control_c, 9, 32, 0
1, 4, Control_c, 10, 32, 0
1, 4, Control_c, 11, 32, 0
1, 4, Control_c, 12, 32, 0
1, 4, Control_c, 13, 32, 0
1, 4, Control_c, 14, 32, 0
1, 4, Control_c, 15, 32, 0
1, 5, Program_c, 0, 0
1, 5, Program_c, 1, 0
1, 5, Program_c, 2, 0
1, 5, Program_c, 3, 0
1, 5, Program_c, 4, 0
1, 5, Program_c, 5, 0
1, 5, Program_c, 6, 0
1, 5, Program_c, 7, 0
1, 5, Program_c, 8, 0
1, 5, Program_c, 9, 0
1, 5, Program_c, 10, 0
1, 5, Program_c, 11, 0
1, 5, Program_c, 12, 0
1, 5, Program_c, 13, 0
1, 5, Program_c, 14, 0
1, 5, Program_c, 15, 0
1, 6, Control_c, 0, 7, 100
1, 6, Control_c, 1, 7, 100
1, 6, Control_c, 2, 7, 100
1, 6, Control_c, 3, 7, 100
1, 6, Control_c, 4, 7, 100
1, 6, Control_c, 5, 7, 100
1, 6, Control_c, 6, 7, 100
1, 6, Control_c, 7, 7, 100
1, 6, Control_c, 8, 7, 100
1, 6, Control_c, 9, 7, 100
1, 6, Control_c, 10, 7, 100
1, 6, Control_c, 11, 7, 100
1, 6, Control_c, 12, 7, 100
1, 6, Control_c, 13, 7, 100
1, 6, Control_c, 14, 7, 100
1, 6, Control_c, 15, 7, 100
1, 1129, Control_c, 0, 64, 17
1, 1129, Control_c, 0, 67, 65
1, 1135, Note_on_c, 0, 59, 34
1, 1139, Note_on_c, 0, 65, 35
1, 1144, Control_c, 0, 64, 32
1, 1144, Control_c, 0, 67, 64
1, 1147, Note_on_c, 0, 57, 34
1, 1159, Control_c, 0, 64, 43
1, 1174, Control_c, 0, 64, 51
1, 1174, Control_c, 0, 67, 64
1, 1189, Control_c, 0, 64, 55
1, 1203, Control_c, 0, 64, 57
1, 1218, Control_c, 0, 64, 59
1, 1218, Control_c, 0, 67, 63
1, 1233, Control_c, 0, 64, 62
1, 1248, Control_c, 0, 64, 64
1, 1248, Control_c, 0, 67, 64
1, 1262, Control_c, 0, 64, 66
1, 1277, Control_c, 0, 64, 68
1, 1277, Control_c, 0, 67, 64
1, 1292, Control_c, 0, 64, 70
1, 1292, Control_c, 0, 67, 65
1, 1307, Control_c, 0, 64, 73
1, 1307, Control_c, 0, 67, 66
1, 1322, Control_c, 0, 64, 75
1, 1322, Control_c, 0, 67, 67
1, 1336, Control_c, 0, 64, 77
1, 1336, Control_c, 0, 67, 69
1, 1351, Control_c, 0, 64, 79
1, 1351, Control_c, 0, 67, 70
1, 1366, Control_c, 0, 64, 80
1, 1366, Control_c, 0, 67, 71
1, 1381, Control_c, 0, 64, 81
1, 1381, Control_c, 0, 67, 71
1, 1395, Control_c, 0, 64, 81
1, 1395, Control_c, 0, 67, 72
1, 1410, Control_c, 0, 64, 82
1, 1410, Control_c, 0, 67, 72
1, 1425, Control_c, 0, 64, 83
1, 1425, Control_c, 0, 67, 73
1, 1454, Control_c, 0, 64, 83
1, 1454, Control_c, 0, 67, 73
1, 1460, Note_off_c, 0, 57, 33
1, 1469, Control_c, 0, 64, 84
1, 1484, Control_c, 0, 64, 84
1, 1508, Note_off_c, 0, 65, 31
1, 1514, Control_c, 0, 64, 85
1, 1514, Control_c, 0, 67, 73
1, 1544, Control_c, 0, 67, 72
1, 1558, Note_off_c, 0, 59, 35
1, 1558, Control_c, 0, 67, 72
1, 1573, Control_c, 0, 67, 71
1, 1604, Control_c, 0, 67, 71
1, 1648, Control_c, 0, 67, 70
1, 1708, Control_c, 0, 67, 70
1, 1722, Control_c, 0, 64, 84
1, 1752, Control_c, 0, 64, 84
1, 1767, Control_c, 0, 64, 83
1, 1789, Control_c, 0, 67, 69
1, 1804, Control_c, 0, 64, 83
1, 1819, Control_c, 0, 64, 82
1, 1848, Control_c, 0, 64, 82
1, 1848, Control_c, 0, 67, 69
1, 1863, Control_c, 0, 64, 81
1, 1877, Control_c, 0, 64, 81
1, 1892, Control_c, 0, 64, 80
1, 1907, Control_c, 0, 64, 80
1, 1907, Control_c, 0, 67, 68
1, 1922, Control_c, 0, 64, 79
1, 1937, Control_c, 0, 64, 79
1, 1967, Control_c, 0, 64, 78
1, 1967, Control_c, 0, 67, 68
1, 1982, Control_c, 0, 64, 77
1, 1997, Control_c, 0, 64, 77
1, 2011, Control_c, 0, 64, 76
1, 2026, Control_c, 0, 64, 73
1, 2028, Note_on_c, 0, 65, 33
1, 2029, Note_on_c, 0, 60, 36
1, 2041, Control_c, 0, 64, 70
1, 2046, Note_on_c, 0, 57, 28
1, 2056, Control_c, 0, 64, 66
1, 2071, Control_c, 0, 64, 62
1, 2085, Control_c, 0, 64, 55
1, 2100, Control_c, 0, 64, 44
1, 2115, Control_c, 0, 64, 28
1, 2130, Control_c, 0, 64, 17
1, 2145, Control_c, 0, 64, 29
1, 2145, Control_c, 0, 67, 67
1, 2159, Control_c, 0, 64, 47
1, 2174, Control_c, 0, 64, 58
1, 2174, Control_c, 0, 67, 67
1, 2189, Control_c, 0, 64, 63
1, 2203, Control_c, 0, 64, 66
1, 2203, Control_c, 0, 67, 66
1, 2218, Control_c, 0, 64, 69
1, 2233, Control_c, 0, 64, 72
1, 2233, Control_c, 0, 67, 66
1, 2248, Control_c, 0, 64, 74
1, 2263, Control_c, 0, 64, 76
1, 2277, Control_c, 0, 64, 77
1, 2292, Control_c, 0, 64, 77
1, 2304, Note_off_c, 0, 57, 39
1, 2307, Control_c, 0, 64, 78
1, 2337, Control_c, 0, 64, 78
1, 2351, Note_off_c, 0, 65, 39
1, 2390, Note_off_c, 0, 60, 40
1, 2397, Control_c, 0, 67, 65
1, 2471, Control_c, 0, 64, 78
1, 2523, Control_c, 0, 67, 65
1, 2538, Control_c, 0, 64, 77
1, 2553, Control_c, 0, 64, 76
1, 2567, Note_on_c, 0, 65, 38
1, 2568, Control_c, 0, 64, 74
1, 2569, Note_on_c, 0, 62, 45
1, 2569, Note_on_c, 0, 57, 36
1, 2582, Control_c, 0, 64, 71
1, 2597, Control_c, 0, 64, 66
1, 2612, Control_c, 0, 64, 59
1, 2626, Control_c, 0, 64, 48
1, 2641, Control_c, 0, 64, 33
1, 2656, Control_c, 0, 64, 32
1, 2671, Control_c, 0, 64, 43
1, 2686, Control_c, 0, 64, 56
1, 2700, Control_c, 0, 64, 63
1, 2715, Control_c, 0, 64, 67
1, 2730, Control_c, 0, 64, 72
1, 2730, Control_c, 0, 67, 64
1, 2745, Control_c, 0, 64, 76
1, 2760, Control_c, 0, 64, 78
1, 2775, Control_c, 0, 64, 79
1, 2790, Control_c, 0, 64, 80
1, 2796, Note_off_c, 0, 65, 36
1, 2799, Note_off_c, 0, 57, 41
1, 2805, Control_c, 0, 64, 81
1, 2825, Note_off_c, 0, 62, 47
1, 2908, Control_c, 0, 64, 80
1, 2923, Control_c, 0, 64, 79
1, 2924, Note_on_c, 0, 65, 42
1, 2937, Note_on_c, 0, 57, 34
1, 2938, Control_c, 0, 64, 76
1, 2941, Note_on_c, 0, 59, 51
1, 2953, Control_c, 0, 64, 73
1, 2968, Control_c, 0, 64, 67
1, 2968, Control_c, 0, 67, 65
1, 2982, Control_c, 0, 64, 60
1, 2997, Control_c, 0, 64, 48
1, 3012, Control_c, 0, 64, 38
1, 3026, Control_c, 0, 64, 45
1, 3041, Control_c, 0, 64, 57
1, 3041, Control_c, 0, 67, 64
1, 3056, Control_c, 0, 64, 63
1, 3071, Control_c, 0, 64, 67
1, 3086, Control_c, 0, 64, 70
1, 3100, Control_c, 0, 64, 74
1, 3115, Control_c, 0, 64, 77
1, 3130, Control_c, 0, 64, 78
1, 3145, Control_c, 0, 64, 78
1, 3151, Note_off_c, 0, 65, 49
1, 3158, Note_off_c, 0, 59, 59
1, 3163, Note_off_c, 0, 57, 43
1, 3271, Control_c, 0, 64, 78
1, 3286, Control_c, 0, 64, 77
1, 3301, Control_c, 0, 64, 75
1, 3306, Note_on_c, 0, 57, 35
1, 3311, Note_on_c, 0, 60, 54
1, 3311, Note_on_c, 0, 65, 41
1, 3316, Control_c, 0, 64, 72
1, 3330, Control_c, 0, 64, 66
1, 3345, Control_c, 0, 64, 57
1, 3360, Control_c, 0, 64, 41
1, 3375, Control_c, 0, 64, 18
1, 3390, Control_c, 0, 64, 15
1, 3404, Control_c, 0, 64, 35
1, 3419, Control_c, 0, 64, 51
1, 3434, Control_c, 0, 64, 61
1, 3448, Control_c, 0, 64, 65
1, 3463, Control_c, 0, 64, 67
1, 3478, Control_c, 0, 64, 70
1, 3493, Control_c, 0, 64, 72
1, 3508, Control_c, 0, 64, 74
1, 3523, Control_c, 0, 64, 75
1, 3538, Control_c, 0, 64, 76
1, 3545, Note_off_c, 0, 65, 33
1, 3557, Note_off_c, 0, 57, 36
1, 3591, Note_off_c, 0, 60, 32
1, 3716, Control_c, 0, 67, 65
1, 3741, Note_on_c, 0, 57, 30
1, 3745, Control_c, 0, 64, 74
1, 3746, Note_on_c, 0, 62, 43
1, 3746, Note_on_c, 0, 65, 37
1, 3760, Control_c, 0, 64, 71
1, 3774, Control_c, 0, 64, 65
1, 3789, Control_c, 0, 64, 57
1, 3804, Control_c, 0, 64, 40
1, 3819, Control_c, 0, 64, 0
1, 3848, Control_c, 0, 64, 24
1, 3863, Control_c, 0, 64, 46
1, 3878, Control_c, 0, 64, 59
1, 3893, Control_c, 0, 64, 63
1, 3908, Control_c, 0, 64, 65
1, 3922, Control_c, 0, 64, 67
1, 3937, Control_c, 0, 64, 70
1, 3952, Control_c, 0, 64, 72
1, 3967, Control_c, 0, 64, 73
1, 3967, Control_c, 0, 67, 64
1, 3982, Control_c, 0, 64, 74
1, 3998, Control_c, 0, 64, 74
1, 3999, Note_off_c, 0, 65, 39
1, 4013, Note_off_c, 0, 57, 41
1, 4035, Control_c, 0, 64, 75
1, 4062, Note_off_c, 0, 62, 53
1, 4198, Control_c, 0, 64, 74
1, 4239, Note_on_c, 0, 65, 35
1, 4242, Control_c, 0, 64, 74
1, 4244, Note_on_c, 0, 57, 32
1, 4247, Note_on_c, 0, 59, 40
1, 4257, Control_c, 0, 64, 73
1, 4271, Control_c, 0, 64, 71
1, 4286, Control_c, 0, 64, 69
1, 4301, Control_c, 0, 64, 66
1, 4316, Control_c, 0, 64, 61
1, 4331, Control_c, 0, 64, 52
1, 4346, Control_c, 0, 64, 34
1, 4361, Control_c, 0, 64, 25
1, 4375, Control_c, 0, 64, 34
1, 4390, Control_c, 0, 64, 49
1, 4405, Control_c, 0, 64, 58
1, 4420, Control_c, 0, 64, 62
1, 4435, Control_c, 0, 64, 65
1, 4450, Control_c, 0, 64, 68
1, 4465, Control_c, 0, 64, 70
1, 4479, Control_c, 0, 64, 73
1, 4494, Control_c, 0, 64, 74
1, 4509, Control_c, 0, 64, 75
1, 4524, Control_c, 0, 64, 75
1, 4534, Note_off_c, 0, 65, 37
1, 4539, Note_off_c, 0, 57, 34
1, 4553, Control_c, 0, 64, 76
1, 4590, Note_off_c, 0, 59, 38
1, 4732, Control_c, 0, 64, 75
1, 4992, Control_c, 0, 64, 75
1, 5036, Control_c, 0, 64, 74
1, 5095, Control_c, 0, 64, 74
1, 5097, Note_on_c, 0, 65, 33
1, 5097, Note_on_c, 0, 60, 36
1, 5107, Note_on_c, 0, 57, 29
1, 5140, Control_c, 0, 64, 73
1, 5169, Control_c, 0, 64, 73
1, 5199, Control_c, 0, 64, 72
1, 5213, Control_c, 0, 64, 72
1, 5228, Control_c, 0, 64, 71
1, 5243, Control_c, 0, 64, 70
1, 5258, Control_c, 0, 64, 68
1, 5273, Control_c, 0, 64, 65
1, 5288, Control_c, 0, 64, 62
1, 5303, Control_c, 0, 64, 58
1, 5317, Control_c, 0, 64, 54
1, 5332, Control_c, 0, 64, 50
1, 5347, Control_c, 0, 64, 45
1, 5362, Control_c, 0, 64, 38
1, 5377, Control_c, 0, 64, 22
1, 5377, Control_c, 0, 67, 65
1, 5392, Control_c, 0, 64, 0
1, 5451, Control_c, 0, 64, 21
1, 5466, Control_c, 0, 64, 37
1, 5481, Control_c, 0, 64, 51
1, 5495, Control_c, 0, 64, 58
1, 5510, Control_c, 0, 64, 61
1, 5532, Control_c, 0, 64, 63
1, 5547, Control_c, 0, 64, 64
1, 5562, Control_c, 0, 64, 66
1, 5577, Control_c, 0, 64, 68
1, 5577, Control_c, 0, 67, 64
1, 5592, Control_c, 0, 64, 69
1, 5607, Control_c, 0, 64, 71
1, 5622, Control_c, 0, 64, 72
1, 5637, Control_c, 0, 64, 73
1, 5651, Control_c, 0, 64, 75
1, 5666, Control_c, 0, 64, 75
1, 5681, Control_c, 0, 64, 76
1, 5696, Control_c, 0, 64, 76
1, 5741, Control_c, 0, 64, 77
1, 5863, Note_off_c, 0, 65, 37
1, 6461, Note_on_c, 0, 62, 36
1, 6671, Note_off_c, 0, 62, 44
1, 6817, Note_on_c, 0, 64, 36
1, 6861, Note_off_c, 0, 60, 36
1, 6925, Note_off_c, 0, 57, 40
1, 6953, Note_off_c, 0, 64, 42
1, 7085, Note_on_c, 0, 62, 38
1, 7259, Note_off_c, 0, 62, 39
1, 7504, Control_c, 0, 64, 76
1, 7652, Control_c, 0, 64, 76
1, 7729, Note_on_c, 0, 65, 31
1, 7750, Note_on_c, 0, 60, 19
1, 7757, Control_c, 0, 64, 75
1, 7774, Note_on_c, 0, 57, 27
1, 7823, Control_c, 0, 64, 75
1, 7853, Control_c, 0, 64, 74
1, 7868, Control_c, 0, 64, 73
1, 7883, Control_c, 0, 64, 72
1, 7897, Control_c, 0, 64, 70
1, 7912, Control_c, 0, 64, 67
1, 7927, Control_c, 0, 64, 64
1, 7942, Control_c, 0, 64, 61
1, 7957, Control_c, 0, 64, 56
1, 7971, Control_c, 0, 64, 52
1, 7987, Control_c, 0, 64, 48
1, 8002, Control_c, 0, 64, 45
1, 8017, Control_c, 0, 64, 42
1, 8032, Control_c, 0, 64, 38
1, 8046, Control_c, 0, 64, 35
1, 8061, Control_c, 0, 64, 32
1, 8076, Control_c, 0, 64, 30
1, 8091, Control_c, 0, 64, 29
1, 8106, Control_c, 0, 64, 27
1, 8120, Control_c, 0, 64, 25
1, 8135, Control_c, 0, 64, 23
1, 8150, Control_c, 0, 64, 21
1, 8165, Control_c, 0, 64, 19
1, 8180, Control_c, 0, 64, 18
1, 8194, Control_c, 0, 64, 17
1, 8209, Control_c, 0, 64, 16
1, 8224, Control_c, 0, 64, 15
1, 8239, Control_c, 0, 64, 14
1, 8254, Control_c, 0, 64, 13
1, 8269, Control_c, 0, 64, 13
1, 8461, Control_c, 0, 64, 12
1, 9003, Control_c, 0, 64, 15
1, 9017, Control_c, 0, 64, 18
1, 9032, Control_c, 0, 64, 22
1, 9047, Control_c, 0, 64, 27
1, 9061, Control_c, 0, 64, 36
1, 9076, Control_c, 0, 64, 45
1, 9091, Control_c, 0, 64, 51
1, 9106, Control_c, 0, 64, 56
1, 9121, Control_c, 0, 64, 59
1, 9136, Control_c, 0, 64, 61
1, 9151, Control_c, 0, 64, 62
1, 9151, Control_c, 0, 67, 64
1, 9166, Control_c, 0, 64, 64
1, 9181, Control_c, 0, 64, 66
1, 9195, Control_c, 0, 64, 67
1, 9210, Control_c, 0, 64, 68
1, 9225, Control_c, 0, 64, 69
1, 9225, Control_c, 0, 67, 63
1, 9240, Control_c, 0, 64, 71
1, 9255, Control_c, 0, 64, 72
1, 9276, Control_c, 0, 64, 73
1, 9291, Control_c, 0, 64, 74
1, 9306, Control_c, 0, 64, 74
1, 9306, Control_c, 0, 67, 63
1, 9321, Control_c, 0, 64, 75
1, 9336, Control_c, 0, 64, 76
1, 9351, Control_c, 0, 64, 76
1, 9351, Control_c, 0, 67, 62
1, 9365, Control_c, 0, 64, 77
1, 9365, Control_c, 0, 67, 62
1, 9380, Control_c, 0, 64, 77
1, 9395, Control_c, 0, 67, 61
1, 9410, Control_c, 0, 64, 78
1, 9425, Control_c, 0, 64, 78
1, 9425, Control_c, 0, 67, 61
1, 9440, Control_c, 0, 64, 79
1, 9455, Control_c, 0, 64, 79
1, 9469, Control_c, 0, 64, 80
1, 9484, Control_c, 0, 64, 80
1, 9514, Control_c, 0, 64, 81
1, 9558, Control_c, 0, 64, 81
1, 9840, Control_c, 0, 67, 61
1, 9935, Note_off_c, 0, 60, 35
1, 9959, Control_c, 0, 64, 81
1, 10114, Control_c, 0, 64, 80
1, 10188, Control_c, 0, 64, 80
1, 10263, Control_c, 0, 64, 79
1, 10307, Control_c, 0, 64, 79
1, 10352, Control_c, 0, 64, 78
1, 10381, Control_c, 0, 64, 78
1, 10427, Control_c, 0, 64, 77
1, 10438, Note_on_c, 0, 71, 41
1, 10486, Control_c, 0, 64, 77
1, 10490, Note_on_c, 0, 62, 28
1, 10501, Control_c, 0, 64, 76
1, 10515, Control_c, 0, 64, 76
1, 10530, Control_c, 0, 64, 75
1, 10545, Control_c, 0, 64, 72
1, 10560, Control_c, 0, 64, 67
1, 10575, Control_c, 0, 64, 56
1, 10589, Control_c, 0, 64, 35
1, 10604, Control_c, 0, 64, 0
1, 10619, Control_c, 0, 64, 21
1, 10633, Control_c, 0, 64, 43
1, 10633, Control_c, 0, 67, 61
1, 10648, Control_c, 0, 64, 56
1, 10662, Control_c, 0, 64, 62
1, 10677, Control_c, 0, 64, 65
1, 10677, Control_c, 0, 67, 60
1, 10692, Control_c, 0, 64, 67
1, 10706, Control_c, 0, 64, 69
1, 10721, Control_c, 0, 64, 72
1, 10736, Control_c, 0, 64, 74
1, 10736, Control_c, 0, 67, 60
1, 10758, Control_c, 0, 64, 76
1, 10773, Control_c, 0, 64, 77
1, 10787, Control_c, 0, 64, 78
1, 10801, Note_off_c, 0, 65, 31
1, 10802, Control_c, 0, 64, 79
1, 10817, Control_c, 0, 64, 80
1, 10832, Control_c, 0, 64, 80
1, 10841, Note_off_c, 0, 57, 37
1, 10847, Control_c, 0, 64, 81
1, 10910, Note_off_c, 0, 62, 41
1, 10921, Control_c, 0, 67, 60
1, 10990, Note_off_c, 0, 71, 54
1, 11205, Note_on_c, 0, 72, 47
1, 11351, Note_off_c, 0, 72, 53
1, 11366, Control_c, 0, 64, 80
1, 11381, Control_c, 0, 64, 80
1, 11384, Note_on_c, 0, 74, 48
1, 11396, Control_c, 0, 64, 79
1, 11411, Control_c, 0, 64, 76
1, 11423, Note_on_c, 0, 65, 34
1, 11426, Control_c, 0, 64, 73
1, 11428, Note_on_c, 0, 57, 34
1, 11436, Note_on_c, 0, 62, 37
1, 11441, Control_c, 0, 64, 69
1, 11455, Control_c, 0, 64, 64
1, 11470, Control_c, 0, 64, 54
1, 11485, Control_c, 0, 64, 34
1, 11500, Control_c, 0, 64, 0
1, 11537, Control_c, 0, 64, 30
1, 11552, Control_c, 0, 64, 48
1, 11567, Control_c, 0, 64, 58
1, 11582, Control_c, 0, 64, 63
1, 11597, Control_c, 0, 64, 64
1, 11611, Control_c, 0, 64, 66
1, 11626, Control_c, 0, 64, 68
1, 11641, Control_c, 0, 64, 69
1, 11655, Control_c, 0, 64, 70
1, 11670, Control_c, 0, 64, 71
1, 11685, Control_c, 0, 64, 72
1, 11700, Control_c, 0, 64, 73
1, 11715, Control_c, 0, 64, 74
1, 11716, Note_off_c, 0, 57, 40
1, 11729, Control_c, 0, 64, 74
1, 11762, Note_off_c, 0, 65, 39
1, 11783, Note_off_c, 0, 62, 39
1, 11789, Control_c, 0, 64, 75
1, 12056, Note_on_c, 0, 69, 49
1, 12086, Control_c, 0, 64, 74
1, 12102, Note_on_c, 0, 65, 18
1, 12102, Note_on_c, 0, 62, 29
1, 12107, Note_on_c, 0, 57, 22
1, 12157, Note_off_c, 0, 74, 41
1, 12182, Note_off_c, 0, 69, 62
1, 12276, Note_off_c, 0, 57, 38
1, 12279, Note_off_c, 0, 65, 41
1, 12389, Note_on_c, 0, 69, 45
1, 12394, Note_off_c, 0, 62, 38
1, 12464, Control_c, 0, 64, 73
1, 12479, Control_c, 0, 64, 72
1, 12483, Note_on_c, 0, 72, 52
1, 12493, Control_c, 0, 64, 68
1, 12502, Note_off_c, 0, 69, 44
1, 12508, Control_c, 0, 64, 64
1, 12523, Control_c, 0, 64, 56
1, 12528, Note_on_c, 0, 60, 28
1, 12531, Note_on_c, 0, 65, 7
1, 12538, Control_c, 0, 64, 41
1, 12549, Note_on_c, 0, 57, 15
1, 12553, Control_c, 0, 64, 0
1, 12612, Control_c, 0, 64, 30
1, 12627, Control_c, 0, 64, 49
1, 12641, Control_c, 0, 64, 59
1, 12656, Control_c, 0, 64, 63
1, 12671, Control_c, 0, 64, 65
1, 12686, Control_c, 0, 64, 68
1, 12701, Control_c, 0, 64, 70
1, 12716, Control_c, 0, 64, 72
1, 12731, Control_c, 0, 64, 74
1, 12746, Control_c, 0, 64, 76
1, 12760, Control_c, 0, 64, 77
1, 12776, Control_c, 0, 64, 78
1, 12791, Control_c, 0, 64, 79
1, 12794, Note_off_c, 0, 57, 38
1, 12795, Note_off_c, 0, 65, 40
1, 12796, Note_off_c, 0, 72, 57
1, 12820, Control_c, 0, 64, 79
1, 12835, Control_c, 0, 64, 80
1, 12841, Note_off_c, 0, 60, 38
1, 12850, Control_c, 0, 64, 81
1, 12865, Control_c, 0, 64, 81
1, 12880, Control_c, 0, 64, 82
1, 12895, Control_c, 0, 64, 82
1, 13101, Note_on_c, 0, 60, 32
1, 13118, Note_on_c, 0, 57, 31
1, 13122, Note_on_c, 0, 65, 26
1, 13344, Note_off_c, 0, 65, 42
1, 13353, Note_off_c, 0, 57, 41
1, 13367, Note_off_c, 0, 60, 41
1, 13473, Note_on_c, 0, 71, 53
1, 13491, Note_on_c, 0, 60, 43
1, 13500, Note_on_c, 0, 57, 25
1, 13501, Note_on_c, 0, 65, 24
1, 13634, Note_on_c, 0, 72, 61
1, 13642, Note_off_c, 0, 65, 41
1, 13646, Note_off_c, 0, 57, 40
1, 13649, Note_off_c, 0, 71, 35
1, 13651, Note_off_c, 0, 60, 49
1, 13683, Note_off_c, 0, 72, 55
1, 13768, Control_c, 0, 64, 82
1, 13783, Control_c, 0, 64, 79
1, 13783, Control_c, 0, 67, 61
1, 13798, Control_c, 0, 64, 74
1, 13804, Note_on_c, 0, 74, 64
1, 13810, Note_on_c, 0, 60, 18
1, 13813, Control_c, 0, 64, 67
1, 13821, Note_on_c, 0, 65, 38
1, 13828, Control_c, 0, 64, 57
1, 13833, Note_on_c, 0, 55, 35
1, 13843, Control_c, 0, 64, 41
1, 13857, Control_c, 0, 64, 27
1, 13872, Control_c, 0, 64, 34
1, 13887, Control_c, 0, 64, 50
1, 13902, Control_c, 0, 64, 60
1, 13917, Control_c, 0, 64, 64
1, 13931, Control_c, 0, 64, 66
1, 13946, Control_c, 0, 64, 68
1, 13961, Control_c, 0, 64, 70
1, 13972, Note_on_c, 0, 76, 62
1, 13976, Control_c, 0, 64, 72
1, 13991, Note_off_c, 0, 55, 40
1, 13991, Control_c, 0, 64, 74
1, 13992, Note_off_c, 0, 65, 46
1, 13998, Note_off_c, 0, 74, 55
1, 14090, Note_off_c, 0, 60, 37
1, 14090, Note_off_c, 0, 76, 58
1, 14198, Control_c, 0, 64, 73
1, 14212, Control_c, 0, 64, 72
1, 14227, Control_c, 0, 64, 71
1, 14230, Note_on_c, 0, 77, 49
1, 14242, Control_c, 0, 64, 69
1, 14245, Note_on_c, 0, 65, 26
1, 14257, Note_on_c, 0, 59, 36
1, 14257, Control_c, 0, 64, 65
1, 14260, Note_on_c, 0, 55, 23
1, 14272, Control_c, 0, 64, 60
1, 14287, Control_c, 0, 64, 45
1, 14302, Control_c, 0, 64, 15
1, 14317, Control_c, 0, 64, 0
1, 14361, Control_c, 0, 64, 27
1, 14376, Control_c, 0, 64, 49
1, 14391, Control_c, 0, 64, 61
1, 14406, Control_c, 0, 64, 64
1, 14421, Control_c, 0, 64, 66
1, 14436, Control_c, 0, 64, 69
1, 14451, Control_c, 0, 64, 71
1, 14466, Control_c, 0, 64, 73
1, 14473, Note_off_c, 0, 65, 41
1, 14475, Note_off_c, 0, 55, 37
1, 14480, Control_c, 0, 64, 74
1, 14502, Control_c, 0, 64, 76
1, 14511, Note_off_c, 0, 59, 42
1, 14517, Control_c, 0, 64, 76
1, 14794, Note_off_c, 0, 77, 29
1, 14902, Control_c, 0, 64, 76
1, 14932, Control_c, 0, 64, 75
1, 14947, Control_c, 0, 64, 75
1, 14950, Note_on_c, 0, 79, 35
1, 14961, Control_c, 0, 64, 74
1, 14976, Control_c, 0, 64, 73
1, 14981, Note_on_c, 0, 59, 28
1, 14984, Note_on_c, 0, 55, 23
1, 14991, Control_c, 0, 64, 72
1, 15005, Control_c, 0, 64, 70
1, 15020, Control_c, 0, 64, 67
1, 15030, Poly_aftertouch_c, 0, 65, 127
1, 15035, Control_c, 0, 64, 63
1, 15050, Control_c, 0, 64, 57
1, 15065, Control_c, 0, 64, 45
1, 15080, Control_c, 0, 64, 17
1, 15095, Control_c, 0, 64, 0
1, 15139, Control_c, 0, 64, 27
1, 15154, Control_c, 0, 64, 43
1, 15169, Control_c, 0, 64, 54
1, 15185, Control_c, 0, 64, 59
1, 15200, Control_c, 0, 64, 61
1, 15215, Control_c, 0, 64, 63
1, 15229, Control_c, 0, 64, 65
1, 15244, Control_c, 0, 64, 66
1, 15267, Control_c, 0, 64, 68
1, 15282, Control_c, 0, 64, 70
1, 15297, Control_c, 0, 64, 71
1, 15311, Control_c, 0, 64, 72
1, 15326, Control_c, 0, 64, 73
1, 15341, Control_c, 0, 64, 74
1, 15356, Control_c, 0, 64, 75
1, 15369, Poly_aftertouch_c, 0, 65, 0
1, 15385, Control_c, 0, 64, 75
1, 15407, Note_off_c, 0, 55, 27
1, 15415, Control_c, 0, 64, 76
1, 15484, Note_off_c, 0, 59, 35
1, 15823, Note_off_c, 0, 79, 38
1, 16205, Note_on_c, 0, 74, 36
1, 16312, Control_c, 0, 64, 75
1, 16322, Note_off_c, 0, 74, 56
1, 16371, Control_c, 0, 64, 75
1, 16415, Control_c, 0, 64, 74
1, 16430, Note_on_c, 0, 76, 40
1, 16460, Control_c, 0, 64, 74
1, 16475, Control_c, 0, 64, 73
1, 16489, Note_on_c, 0, 59, 28
1, 16490, Control_c, 0, 64, 73
1, 16495, Note_on_c, 0, 64, 22
1, 16499, Note_on_c, 0, 55, 21
1, 16505, Control_c, 0, 64, 72
1, 16520, Control_c, 0, 64, 71
1, 16534, Control_c, 0, 64, 69
1, 16549, Control_c, 0, 64, 65
1, 16564, Control_c, 0, 64, 61
1, 16578, Control_c, 0, 64, 54
1, 16582, Note_off_c, 0, 55, 0
1, 16593, Control_c, 0, 64, 41
1, 16608, Control_c, 0, 64, 10
1, 16608, Control_c, 0, 67, 61
1, 16620, Poly_aftertouch_c, 0, 55, 127
1, 16623, Control_c, 0, 64, 0
1, 16652, Control_c, 0, 64, 23
1, 16667, Control_c, 0, 64, 42
1, 16682, Control_c, 0, 64, 55
1, 16697, Control_c, 0, 64, 61
1, 16712, Control_c, 0, 64, 63
1, 16712, Control_c, 0, 67, 61
1, 16726, Control_c, 0, 64, 65
1, 16741, Control_c, 0, 64, 67
1, 16764, Control_c, 0, 64, 69
1, 16779, Control_c, 0, 64, 71
1, 16794, Control_c, 0, 64, 73
1, 16794, Control_c, 0, 67, 60
1, 16809, Control_c, 0, 64, 75
1, 16821, Poly_aftertouch_c, 0, 55, 0
1, 16824, Control_c, 0, 64, 76
1, 16839, Control_c, 0, 64, 77
1, 16854, Control_c, 0, 64, 77
1, 16868, Control_c, 0, 64, 78
1, 16883, Control_c, 0, 64, 78
1, 16898, Note_off_c, 0, 64, 39
1, 16898, Control_c, 0, 64, 79
1, 16928, Control_c, 0, 64, 79
1, 16934, Note_off_c, 0, 59, 41
1, 17293, Note_on_c, 0, 59, 28
1, 17305, Note_on_c, 0, 64, 32
1, 17308, Note_on_c, 0, 55, 29
1, 17539, Note_off_c, 0, 55, 39
1, 17564, Note_off_c, 0, 64, 42
1, 17578, Note_off_c, 0, 59, 42
1, 17765, Note_on_c, 0, 64, 32
1, 17766, Note_on_c, 0, 59, 26
1, 17784, Note_on_c, 0, 55, 34
1, 17947, Note_off_c, 0, 55, 38
1, 17977, Note_off_c, 0, 59, 42
1, 17978, Note_off_c, 0, 64, 41
1, 18001, Control_c, 0, 64, 79
1, 18105, Control_c, 0, 64, 78
1, 18179, Control_c, 0, 64, 78
1, 18223, Control_c, 0, 64, 77
1, 18260, Control_c, 0, 64, 77
1, 18263, Note_on_c, 0, 78, 61
1, 18290, Control_c, 0, 64, 76
1, 18305, Control_c, 0, 64, 76
1, 18313, Note_on_c, 0, 64, 21
1, 18314, Note_on_c, 0, 58, 36
1, 18320, Control_c, 0, 64, 75
1, 18329, Note_on_c, 0, 54, 27
1, 18335, Control_c, 0, 64, 73
1, 18349, Control_c, 0, 64, 71
1, 18364, Control_c, 0, 64, 69
1, 18380, Control_c, 0, 64, 65
1, 18395, Control_c, 0, 64, 59
1, 18398, Note_off_c, 0, 76, 42
1, 18410, Control_c, 0, 64, 47
1, 18424, Control_c, 0, 64, 0
1, 18484, Control_c, 0, 64, 29
1, 18499, Control_c, 0, 64, 47
1, 18514, Control_c, 0, 64, 58
1, 18528, Control_c, 0, 64, 62
1, 18543, Control_c, 0, 64, 64
1, 18558, Control_c, 0, 64, 65
1, 18573, Control_c, 0, 64, 67
1, 18588, Control_c, 0, 64, 69
1, 18588, Control_c, 0, 67, 60
1, 18602, Control_c, 0, 64, 70
1, 18617, Control_c, 0, 64, 72
1, 18632, Control_c, 0, 64, 73
1, 18646, Control_c, 0, 64, 73
1, 18647, Note_off_c, 0, 54, 37
1, 18678, Note_off_c, 0, 64, 37
1, 18706, Control_c, 0, 64, 74
1, 18708, Note_off_c, 0, 58, 38
1, 18973, Control_c, 0, 64, 73
1, 19020, Note_on_c, 0, 75, 52
1, 19040, Control_c, 0, 64, 73
1, 19054, Control_c, 0, 64, 72
1, 19069, Control_c, 0, 64, 72
1, 19070, Note_on_c, 0, 58, 13
1, 19077, Note_on_c, 0, 54, 26
1, 19083, Note_on_c, 0, 63, 12
1, 19084, Control_c, 0, 64, 71
1, 19099, Control_c, 0, 64, 70
1, 19114, Control_c, 0, 64, 68
1, 19128, Control_c, 0, 64, 64
1, 19143, Control_c, 0, 64, 60
1, 19158, Control_c, 0, 64, 52
1, 19158, Control_c, 0, 67, 60
1, 19173, Note_off_c, 0, 78, 44
1, 19174, Control_c, 0, 64, 39
1, 19189, Control_c, 0, 64, 0
1, 19248, Control_c, 0, 64, 23
1, 19263, Control_c, 0, 64, 44
1, 19277, Control_c, 0, 64, 56
1, 19292, Control_c, 0, 64, 62
1, 19307, Control_c, 0, 64, 63
1, 19322, Control_c, 0, 64, 65
1, 19337, Control_c, 0, 64, 67
1, 19337, Control_c, 0, 67, 60
1, 19352, Control_c, 0, 64, 69
1, 19366, Control_c, 0, 64, 70
1, 19381, Control_c, 0, 64, 72
1, 19396, Control_c, 0, 64, 73
1, 19411, Control_c, 0, 64, 74
1, 19426, Control_c, 0, 64, 74
1, 19441, Control_c, 0, 64, 75
1, 19455, Note_off_c, 0, 63, 40
1, 19458, Note_off_c, 0, 54, 38
1, 19470, Control_c, 0, 64, 76
1, 19504, Note_off_c, 0, 58, 35
1, 19530, Control_c, 0, 64, 76
1, 19751, Note_on_c, 0, 63, 34
1, 19752, Note_on_c, 0, 58, 32
1, 19754, Note_on_c, 0, 54, 34
1, 19848, Control_c, 0, 64, 76
1, 19942, Note_off_c, 0, 54, 42
1, 19989, Note_off_c, 0, 58, 41
1, 19997, Control_c, 0, 67, 60
1, 20005, Note_off_c, 0, 63, 42
1, 20145, Control_c, 0, 64, 75
1, 20160, Control_c, 0, 64, 75
1, 20167, Note_on_c, 0, 77, 60
1, 20174, Control_c, 0, 64, 74
1, 20189, Control_c, 0, 64, 73
1, 20204, Control_c, 0, 64, 72
1, 20217, Note_on_c, 0, 63, 28
1, 20219, Control_c, 0, 64, 70
1, 20228, Note_on_c, 0, 57, 35
1, 20234, Control_c, 0, 64, 67
1, 20238, Note_on_c, 0, 53, 26
1, 20249, Control_c, 0, 64, 63
1, 20264, Control_c, 0, 64, 56
1, 20279, Control_c, 0, 64, 43
1, 20293, Control_c, 0, 64, 0
1, 20314, Note_off_c, 0, 75, 57
1, 20353, Control_c, 0, 64, 11
1, 20367, Control_c, 0, 64, 38
1, 20382, Control_c, 0, 64, 53
1, 20397, Control_c, 0, 64, 60
1, 20412, Control_c, 0, 64, 63
1, 20412, Control_c, 0, 67, 60
1, 20426, Control_c, 0, 64, 65
1, 20441, Control_c, 0, 64, 67
1, 20456, Control_c, 0, 64, 70
1, 20471, Control_c, 0, 64, 73
1, 20486, Control_c, 0, 64, 75
1, 20508, Control_c, 0, 64, 76
1, 20517, Note_off_c, 0, 63, 41
1, 20520, Note_off_c, 0, 53, 38
1, 20567, Note_off_c, 0, 57, 36
1, 20797, Note_on_c, 0, 74, 55
1, 20805, Control_c, 0, 64, 76
1, 20835, Control_c, 0, 64, 75
1, 20842, Note_on_c, 0, 62, 33
1, 20845, Note_on_c, 0, 57, 34
1, 20849, Control_c, 0, 64, 74
1, 20853, Note_on_c, 0, 53, 32
1, 20864, Control_c, 0, 64, 72
1, 20879, Control_c, 0, 64, 69
1, 20894, Control_c, 0, 64, 62
1, 20908, Note_off_c, 0, 77, 58
1, 20909, Control_c, 0, 64, 50
1, 20923, Control_c, 0, 64, 22
1, 20938, Control_c, 0, 64, 0
1, 20968, Control_c, 0, 64, 26
1, 20983, Control_c, 0, 64, 46
1, 20997, Control_c, 0, 64, 59
1, 21012, Control_c, 0, 64, 63
1, 21027, Control_c, 0, 64, 65
1, 21042, Control_c, 0, 64, 67
1, 21057, Control_c, 0, 64, 69
1, 21071, Control_c, 0, 64, 71
1, 21075, Note_off_c, 0, 62, 45
1, 21083, Note_off_c, 0, 53, 43
1, 21086, Control_c, 0, 64, 73
1, 21086, Control_c, 0, 67, 59
1, 21101, Control_c, 0, 64, 74
1, 21105, Note_off_c, 0, 57, 40
1, 21116, Control_c, 0, 64, 75
1, 21131, Control_c, 0, 64, 76
1, 21146, Control_c, 0, 64, 76
1, 21161, Control_c, 0, 64, 77
1, 21176, Control_c, 0, 64, 77
1, 21190, Control_c, 0, 67, 60
1, 21205, Control_c, 0, 64, 78
1, 21256, Note_on_c, 0, 57, 27
1, 21256, Control_c, 0, 67, 60
1, 21267, Note_on_c, 0, 62, 37
1, 21274, Note_on_c, 0, 53, 29
1, 21316, Control_c, 0, 67, 61
1, 21322, Note_off_c, 0, 74, 50
1, 21417, Note_off_c, 0, 53, 40
1, 21420, Control_c, 0, 67, 61
1, 21438, Note_off_c, 0, 62, 39
1, 21451, Note_off_c, 0, 57, 40
1, 21538, Control_c, 0, 67, 62
1, 21643, Control_c, 0, 64, 77
1, 21670, Note_on_c, 0, 76, 53
1, 21687, Control_c, 0, 64, 77
1, 21702, Control_c, 0, 64, 76
1, 21709, Note_on_c, 0, 56, 35
1, 21714, Note_on_c, 0, 62, 29
1, 21716, Note_on_c, 0, 52, 34
1, 21717, Control_c, 0, 64, 76
1, 21732, Control_c, 0, 64, 75
1, 21746, Control_c, 0, 64, 73
1, 21746, Control_c, 0, 67, 62
1, 21761, Control_c, 0, 64, 71
1, 21776, Control_c, 0, 64, 68
1, 21776, Control_c, 0, 67, 63
1, 21791, Control_c, 0, 64, 64
1, 21806, Control_c, 0, 64, 59
1, 21806, Control_c, 0, 67, 63
1, 21820, Control_c, 0, 64, 53
1, 21835, Control_c, 0, 64, 43
1, 21835, Control_c, 0, 67, 64
1, 21850, Control_c, 0, 64, 24
1, 21855, Note_on_c, 0, 71, 51
1, 21864, Control_c, 0, 64, 0
1, 21894, Control_c, 0, 67, 64
1, 21961, Note_off_c, 0, 76, 57
1, 21969, Control_c, 0, 67, 64
1, 22005, Control_c, 0, 64, 24
1, 22005, Control_c, 0, 67, 63
1, 22020, Control_c, 0, 64, 45
1, 22035, Control_c, 0, 64, 59
1, 22035, Control_c, 0, 67, 63
1, 22050, Control_c, 0, 64, 63
1, 22050, Control_c, 0, 67, 62
1, 22065, Control_c, 0, 64, 64
1, 22079, Control_c, 0, 64, 66
1, 22079, Control_c, 0, 67, 62
1, 22094, Control_c, 0, 64, 68
1, 22109, Note_off_c, 0, 52, 31
1, 22109, Control_c, 0, 64, 71
1, 22124, Control_c, 0, 64, 74
1, 22124, Control_c, 0, 67, 61
1, 22139, Control_c, 0, 64, 76
1, 22144, Note_off_c, 0, 62, 41
1, 22152, Note_off_c, 0, 56, 37
1, 22154, Control_c, 0, 64, 77
1, 22168, Control_c, 0, 64, 79
1, 22183, Control_c, 0, 64, 80
1, 22198, Control_c, 0, 64, 81
1, 22213, Control_c, 0, 64, 82
1, 22228, Control_c, 0, 64, 83
1, 22243, Control_c, 0, 64, 84
1, 22258, Control_c, 0, 64, 85
1, 22272, Control_c, 0, 64, 86
1, 22287, Control_c, 0, 64, 87
1, 22302, Control_c, 0, 64, 88
1, 22317, Control_c, 0, 64, 88
1, 22332, Control_c, 0, 64, 89
1, 22346, Note_off_c, 0, 71, 34
1, 22346, Control_c, 0, 64, 90
1, 22361, Control_c, 0, 64, 90
1, 22394, Note_on_c, 0, 56, 25
1, 22396, Note_on_c, 0, 62, 38
1, 22407, Control_c, 0, 64, 91
1, 22422, Note_on_c, 0, 52, 25
1, 22436, Control_c, 0, 64, 91
1, 22451, Control_c, 0, 64, 92
1, 22540, Control_c, 0, 64, 92
1, 22579, Note_off_c, 0, 52, 40
1, 22597, Note_off_c, 0, 62, 42
1, 22614, Note_off_c, 0, 56, 41
1, 22787, Note_on_c, 0, 56, 21
1, 22803, Note_on_c, 0, 62, 30
1, 22827, Note_on_c, 0, 52, 27
1, 22955, Note_off_c, 0, 52, 38
1, 22961, Note_off_c, 0, 56, 39
1, 22979, Note_off_c, 0, 62, 42
1, 23035, Control_c, 0, 64, 92
1, 23080, Control_c, 0, 67, 61
1, 23139, Control_c, 0, 64, 90
1, 23154, Control_c, 0, 64, 88
1, 23157, Note_on_c, 0, 72, 47
1, 23170, Control_c, 0, 64, 83
1, 23176, Note_on_c, 0, 57, 35
1, 23185, Control_c, 0, 64, 76
1, 23185, Control_c, 0, 67, 61
1, 23187, Note_on_c, 0, 62, 20
1, 23194, Note_on_c, 0, 52, 34
1, 23199, Control_c, 0, 64, 66
1, 23214, Control_c, 0, 64, 56
1, 23229, Control_c, 0, 64, 39
1, 23243, Control_c, 0, 64, 25
1, 23258, Control_c, 0, 64, 32
1, 23273, Control_c, 0, 64, 44
1, 23288, Control_c, 0, 64, 54
1, 23303, Control_c, 0, 64, 60
1, 23317, Control_c, 0, 64, 63
1, 23330, Note_on_c, 0, 68, 50
1, 23332, Control_c, 0, 64, 65
1, 23347, Control_c, 0, 64, 67
1, 23347, Control_c, 0, 67, 61
1, 23349, Note_off_c, 0, 52, 41
1, 23362, Control_c, 0, 64, 69
1, 23370, Note_off_c, 0, 62, 42
1, 23377, Control_c, 0, 64, 71
1, 23391, Control_c, 0, 64, 71
1, 23394, Note_off_c, 0, 57, 41
1, 23406, Control_c, 0, 64, 72
1, 23532, Control_c, 0, 64, 71
1, 23543, Note_off_c, 0, 72, 23
1, 23547, Control_c, 0, 64, 70
1, 23550, Note_on_c, 0, 62, 25
1, 23562, Note_on_c, 0, 59, 36
1, 23562, Control_c, 0, 64, 67
1, 23577, Control_c, 0, 64, 62
1, 23586, Note_on_c, 0, 52, 19
1, 23591, Control_c, 0, 64, 51
1, 23606, Control_c, 0, 64, 28
1, 23621, Control_c, 0, 64, 0
1, 23650, Control_c, 0, 64, 20
1, 23665, Control_c, 0, 64, 43
1, 23680, Control_c, 0, 64, 57
1, 23695, Control_c, 0, 64, 63
1, 23710, Control_c, 0, 64, 65
1, 23724, Control_c, 0, 64, 67
1, 23739, Control_c, 0, 64, 70
1, 23754, Control_c, 0, 64, 73
1, 23768, Note_off_c, 0, 68, 55
1, 23769, Control_c, 0, 64, 75
1, 23784, Note_off_c, 0, 62, 44
1, 23784, Control_c, 0, 64, 76
1, 23792, Note_off_c, 0, 52, 42
1, 23792, Note_off_c, 0, 59, 50
1, 23799, Control_c, 0, 64, 77
1, 23814, Control_c, 0, 64, 79
1, 23829, Control_c, 0, 64, 79
1, 23843, Control_c, 0, 64, 80
1, 23858, Control_c, 0, 64, 81
1, 23888, Control_c, 0, 64, 81
1, 23903, Control_c, 0, 64, 82
1, 23975, Note_on_c, 0, 59, 7
1, 23975, Note_on_c, 0, 62, 37
1, 23990, Note_on_c, 0, 52, 23
1, 24127, Note_off_c, 0, 62, 42
1, 24157, Note_off_c, 0, 59, 53
1, 24216, Note_off_c, 0, 52, 40
1, 24280, Control_c, 0, 67, 61
1, 24458, Control_c, 0, 67, 62
1, 24473, Control_c, 0, 64, 81
1, 24488, Note_on_c, 0, 71, 49
1, 24488, Control_c, 0, 64, 80
1, 24503, Control_c, 0, 64, 78
1, 24503, Control_c, 0, 67, 62
1, 24517, Control_c, 0, 64, 75
1, 24517, Control_c, 0, 67, 63
1, 24530, Note_on_c, 0, 45, 32
1, 24532, Control_c, 0, 64, 71
1, 24547, Control_c, 0, 64, 64
1, 24562, Control_c, 0, 64, 51
1, 24577, Control_c, 0, 64, 23
1, 24577, Control_c, 0, 67, 63
1, 24591, Control_c, 0, 64, 0
1, 24608, Note_off_c, 0, 45, 0
1, 24608, Note_on_c, 0, 45, 21
1, 24621, Control_c, 0, 64, 23
1, 24636, Control_c, 0, 64, 43
1, 24651, Control_c, 0, 64, 57
1, 24665, Control_c, 0, 64, 62
1, 24680, Control_c, 0, 64, 64
1, 24695, Control_c, 0, 64, 66
1, 24695, Control_c, 0, 67, 63
1, 24710, Control_c, 0, 64, 67
1, 24722, Note_off_c, 0, 45, 60
1, 24725, Control_c, 0, 64, 69
1, 24739, Control_c, 0, 64, 70
1, 24744, Note_on_c, 0, 72, 56
1, 24746, Note_off_c, 0, 71, 57
1, 24755, Control_c, 0, 64, 71
1, 24770, Control_c, 0, 64, 71
1, 24881, Note_on_c, 0, 71, 61
1, 24916, Note_off_c, 0, 72, 52
1, 25000, Control_c, 0, 64, 70
1, 25000, Note_off_c, 0, 71, 61
1, 25009, Note_on_c, 0, 69, 61
1, 25014, Control_c, 0, 64, 65
1, 25029, Control_c, 0, 64, 57
1, 25034, Note_on_c, 0, 65, 38
1, 25044, Control_c, 0, 64, 44
1, 25049, Note_on_c, 0, 57, 38
1, 25054, Note_on_c, 0, 62, 36
1, 25074, Control_c, 0, 64, 52
1, 25088, Control_c, 0, 64, 57
1, 25103, Control_c, 0, 64, 60
1, 25118, Control_c, 0, 64, 62
1, 25128, Note_on_c, 0, 71, 63
1, 25133, Control_c, 0, 64, 64
1, 25147, Note_off_c, 0, 69, 51
1, 25148, Control_c, 0, 64, 66
1, 25162, Control_c, 0, 64, 67
1, 25162, Control_c, 0, 67, 62
1, 25177, Control_c, 0, 64, 68
1, 25192, Control_c, 0, 64, 69
1, 25233, Note_on_c, 0, 72, 63
1, 25236, Note_off_c, 0, 57, 42
1, 25251, Control_c, 0, 64, 69
1, 25266, Note_off_c, 0, 65, 40
1, 25273, Note_off_c, 0, 71, 59
1, 25286, Note_off_c, 0, 62, 42
1, 25426, Note_off_c, 0, 72, 52
1, 25437, Note_on_c, 0, 76, 50
1, 25444, Control_c, 0, 64, 69
1, 25474, Control_c, 0, 64, 68
1, 25480, Note_on_c, 0, 57, 33
1, 25481, Note_on_c, 0, 62, 10
1, 25486, Note_on_c, 0, 65, 26
1, 25488, Control_c, 0, 64, 67
1, 25503, Control_c, 0, 64, 65
1, 25518, Control_c, 0, 64, 60
1, 25533, Control_c, 0, 64, 50
1, 25533, Control_c, 0, 67, 63
1, 25548, Control_c, 0, 64, 21
1, 25564, Control_c, 0, 64, 0
1, 25608, Control_c, 0, 64, 33
1, 25623, Control_c, 0, 64, 50
1, 25638, Control_c, 0, 64, 59
1, 25653, Control_c, 0, 64, 63
1, 25668, Control_c, 0, 64, 65
1, 25668, Control_c, 0, 67, 62
1, 25683, Control_c, 0, 64, 66
1, 25698, Control_c, 0, 64, 68
1, 25698, Control_c, 0, 67, 62
1, 25712, Control_c, 0, 64, 70
1, 25734, Control_c, 0, 64, 71
1, 25749, Control_c, 0, 64, 72
1, 25763, Note_off_c, 0, 65, 36
1, 25764, Control_c, 0, 64, 73
1, 25779, Control_c, 0, 64, 74
1, 25793, Control_c, 0, 64, 75
1, 25799, Note_off_c, 0, 57, 34
1, 25816, Note_on_c, 0, 74, 47
1, 25823, Control_c, 0, 64, 75
1, 25912, Note_off_c, 0, 76, 0
1, 25946, Note_on_c, 0, 69, 50
1, 25948, Poly_aftertouch_c, 0, 76, 127
1, 25954, Note_off_c, 0, 62, 33
1, 26067, Poly_aftertouch_c, 0, 76, 0
1, 26071, Note_off_c, 0, 69, 60
1, 26091, Note_off_c, 0, 74, 39
1, 26149, Control_c, 0, 67, 61
1, 26155, Note_on_c, 0, 65, 36
1, 26176, Note_on_c, 0, 60, 35
1, 26178, Note_on_c, 0, 57, 29
1, 26223, Control_c, 0, 64, 74
1, 26237, Control_c, 0, 64, 74
1, 26252, Control_c, 0, 64, 72
1, 26264, Note_on_c, 0, 69, 55
1, 26267, Control_c, 0, 64, 70
1, 26282, Control_c, 0, 64, 67
1, 26297, Control_c, 0, 64, 63
1, 26297, Control_c, 0, 67, 62
1, 26312, Control_c, 0, 64, 57
1, 26327, Control_c, 0, 64, 45
1, 26342, Control_c, 0, 64, 17
1, 26357, Control_c, 0, 64, 0
1, 26389, Note_on_c, 0, 72, 58
1, 26407, Note_off_c, 0, 69, 63
1, 26446, Control_c, 0, 64, 22
1, 26461, Control_c, 0, 64, 47
1, 26476, Control_c, 0, 64, 58
1, 26498, Control_c, 0, 64, 63
1, 26513, Control_c, 0, 64, 65
1, 26513, Control_c, 0, 67, 61
1, 26528, Control_c, 0, 64, 68
1, 26542, Control_c, 0, 64, 71
1, 26557, Control_c, 0, 64, 76
1, 26572, Control_c, 0, 64, 79
1, 26587, Control_c, 0, 64, 82
1, 26587, Control_c, 0, 67, 61
1, 26600, Note_off_c, 0, 57, 40
1, 26602, Control_c, 0, 64, 85
1, 26605, Note_off_c, 0, 65, 40
1, 26616, Control_c, 0, 64, 88
1, 26629, Note_off_c, 0, 60, 39
1, 26631, Control_c, 0, 64, 91
1, 26646, Control_c, 0, 64, 93
1, 26661, Control_c, 0, 64, 97
1, 26676, Control_c, 0, 64, 100
1, 26690, Control_c, 0, 64, 103
1, 26705, Control_c, 0, 64, 108
1, 26720, Control_c, 0, 64, 111
1, 26735, Control_c, 0, 64, 114
1, 26741, Note_off_c, 0, 72, 53
1, 26750, Control_c, 0, 64, 115
1, 26752, Note_on_c, 0, 60, 44
1, 26754, Note_on_c, 0, 65, 36
1, 26759, Note_on_c, 0, 57, 31
1, 26765, Control_c, 0, 64, 115
1, 26780, Control_c, 0, 64, 117
1, 26794, Control_c, 0, 64, 120
1, 26809, Control_c, 0, 64, 127
1, 26868, Control_c, 0, 67, 61
1, 26971, Note_off_c, 0, 60, 55
1, 26977, Note_off_c, 0, 65, 38
1, 26980, Note_off_c, 0, 57, 40
1, 27093, Note_on_c, 0, 71, 57
1, 27108, Note_on_c, 0, 65, 34
1, 27116, Note_on_c, 0, 57, 29
1, 27123, Note_on_c, 0, 60, 39
1, 27195, Control_c, 0, 67, 62
1, 27263, Note_off_c, 0, 57, 51
1, 27273, Note_off_c, 0, 60, 60
1, 27273, Note_off_c, 0, 65, 35
1, 27299, Note_on_c, 0, 72, 64
1, 27314, Note_off_c, 0, 71, 55
1, 27424, Control_c, 0, 64, 119
1, 27439, Control_c, 0, 64, 113
1, 27454, Control_c, 0, 64, 106
1, 27469, Control_c, 0, 64, 96
1, 27483, Control_c, 0, 64, 86
1, 27495, Note_on_c, 0, 74, 56
1, 27498, Control_c, 0, 64, 73
1, 27499, Note_on_c, 0, 65, 38
1, 27510, Note_on_c, 0, 55, 39
1, 27511, Note_off_c, 0, 72, 57
1, 27513, Control_c, 0, 64, 62
1, 27519, Note_on_c, 0, 60, 38
1, 27528, Control_c, 0, 64, 46
1, 27543, Control_c, 0, 64, 17
1, 27558, Control_c, 0, 64, 0
1, 27588, Control_c, 0, 64, 27
1, 27603, Control_c, 0, 64, 42
1, 27617, Control_c, 0, 64, 54
1, 27620, Note_off_c, 0, 74, 62
1, 27632, Control_c, 0, 64, 60
1, 27641, Note_on_c, 0, 76, 58
1, 27647, Control_c, 0, 64, 63
1, 27662, Control_c, 0, 64, 64
1, 27677, Control_c, 0, 64, 65
1, 27677, Control_c, 0, 67, 61
1, 27691, Control_c, 0, 64, 67
1, 27706, Control_c, 0, 64, 67
1, 27721, Control_c, 0, 64, 68
1, 27726, Note_off_c, 0, 76, 59
1, 27731, Note_off_c, 0, 65, 43
1, 27733, Note_on_c, 0, 74, 63
1, 27736, Control_c, 0, 64, 68
1, 27744, Note_off_c, 0, 55, 36
1, 27796, Note_off_c, 0, 74, 62
1, 27812, Note_on_c, 0, 73, 61
1, 27824, Note_off_c, 0, 60, 40
1, 27839, Control_c, 0, 64, 68
1, 27839, Control_c, 0, 67, 62
1, 27854, Control_c, 0, 64, 66
1, 27863, Note_off_c, 0, 73, 60
1, 27869, Control_c, 0, 64, 61
1, 27871, Note_on_c, 0, 65, 33
1, 27883, Control_c, 0, 64, 52
1, 27883, Control_c, 0, 67, 62
1, 27886, Note_on_c, 0, 59, 43
1, 27887, Note_on_c, 0, 55, 31
1, 27895, Note_on_c, 0, 74, 61
1, 27898, Control_c, 0, 64, 32
1, 27913, Control_c, 0, 64, 0
1, 27913, Control_c, 0, 67, 63
1, 27942, Control_c, 0, 64, 20
1, 27943, Note_off_c, 0, 74, 62
1, 27953, Note_on_c, 0, 75, 63
1, 27958, Control_c, 0, 64, 41
1, 27973, Control_c, 0, 64, 52
1, 27995, Control_c, 0, 64, 57
1, 28002, Note_off_c, 0, 75, 63
1, 28010, Control_c, 0, 64, 59
1, 28025, Control_c, 0, 64, 59
1, 28039, Control_c, 0, 64, 60
1, 28040, Note_on_c, 0, 76, 64
1, 28096, Note_off_c, 0, 65, 47
1, 28097, Note_off_c, 0, 76, 62
1, 28098, Note_off_c, 0, 55, 38
1, 28115, Note_on_c, 0, 77, 58
1, 28122, Note_off_c, 0, 59, 61
1, 28128, Control_c, 0, 67, 63
1, 28158, Control_c, 0, 67, 64
1, 28174, Note_off_c, 0, 77, 62
1, 28190, Note_on_c, 0, 78, 53
1, 28202, Control_c, 0, 67, 64
1, 28232, Note_off_c, 0, 78, 63
1, 28247, Control_c, 0, 67, 65
1, 28269, Note_on_c, 0, 79, 61
1, 28285, Note_on_c, 0, 65, 28
1, 28285, Note_on_c, 0, 55, 20
1, 28285, Note_on_c, 0, 59, 30
1, 28306, Control_c, 0, 64, 59
1, 28321, Control_c, 0, 64, 58
1, 28336, Control_c, 0, 64, 55
1, 28336, Control_c, 0, 67, 65
1, 28351, Control_c, 0, 64, 49
1, 28354, Note_off_c, 0, 79, 59
1, 28365, Control_c, 0, 64, 35
1, 28366, Note_on_c, 0, 80, 49
1, 28380, Control_c, 0, 64, 12
1, 28395, Control_c, 0, 64, 0
1, 28410, Control_c, 0, 64, 13
1, 28425, Control_c, 0, 64, 23
1, 28439, Control_c, 0, 64, 35
1, 28454, Control_c, 0, 64, 47
1, 28456, Note_off_c, 0, 80, 58
1, 28469, Control_c, 0, 64, 57
1, 28469, Control_c, 0, 67, 65
1, 28484, Control_c, 0, 64, 61
1, 28485, Note_on_c, 0, 83, 45
1, 28499, Control_c, 0, 64, 62
1, 28513, Control_c, 0, 64, 63
1, 28513, Control_c, 0, 67, 64
1, 28528, Control_c, 0, 64, 64
1, 28543, Control_c, 0, 64, 65
1, 28543, Control_c, 0, 67, 64
1, 28558, Control_c, 0, 64, 67
1, 28573, Control_c, 0, 64, 69
1, 28586, Note_on_c, 0, 81, 48
1, 28587, Control_c, 0, 64, 70
1, 28602, Control_c, 0, 64, 71
1, 28617, Control_c, 0, 64, 73
1, 28617, Control_c, 0, 67, 63
1, 28618, Note_off_c, 0, 83, 35
1, 28631, Control_c, 0, 64, 74
1, 28646, Control_c, 0, 64, 74
1, 28663, Note_on_c, 0, 79, 54
1, 28670, Note_off_c, 0, 65, 34
1, 28676, Control_c, 0, 64, 75
1, 28706, Control_c, 0, 64, 75
1, 28708, Note_off_c, 0, 55, 38
1, 28718, Note_off_c, 0, 81, 42
1, 28720, Control_c, 0, 64, 76
1, 28743, Control_c, 0, 67, 63
1, 28765, Note_on_c, 0, 77, 47
1, 28776, Note_off_c, 0, 59, 39
1, 28795, Note_off_c, 0, 79, 34
1, 28938, Note_on_c, 0, 76, 49
1, 28980, Note_on_c, 0, 59, 16
1, 28981, Note_on_c, 0, 55, 29
1, 28981, Control_c, 0, 64, 75
1, 28990, Note_on_c, 0, 64, 17
1, 28996, Control_c, 0, 64, 74
1, 29010, Control_c, 0, 64, 73
1, 29023, Note_off_c, 0, 77, 34
1, 29025, Control_c, 0, 64, 70
1, 29040, Control_c, 0, 64, 67
1, 29040, Control_c, 0, 67, 63
1, 29054, Control_c, 0, 64, 61
1, 29069, Control_c, 0, 64, 52
1, 29084, Control_c, 0, 64, 29
1, 29099, Control_c, 0, 64, 0
1, 29129, Control_c, 0, 64, 21
1, 29144, Control_c, 0, 64, 40
1, 29159, Control_c, 0, 64, 54
1, 29174, Control_c, 0, 64, 63
1, 29174, Control_c, 0, 67, 63
1, 29188, Control_c, 0, 64, 65
1, 29203, Control_c, 0, 64, 68
1, 29218, Control_c, 0, 64, 71
1, 29218, Control_c, 0, 67, 62
1, 29233, Control_c, 0, 64, 75
1, 29248, Control_c, 0, 64, 78
1, 29248, Control_c, 0, 67, 62
1, 29262, Control_c, 0, 64, 81
1, 29264, Note_off_c, 0, 55, 37
1, 29264, Note_off_c, 0, 64, 43
1, 29277, Control_c, 0, 64, 83
1, 29292, Control_c, 0, 64, 85
1, 29307, Control_c, 0, 64, 87
1, 29308, Note_off_c, 0, 59, 41
1, 29322, Control_c, 0, 64, 89
1, 29336, Control_c, 0, 64, 90
1, 29336, Control_c, 0, 67, 61
1, 29351, Control_c, 0, 64, 91
1, 29366, Control_c, 0, 64, 92
1, 29381, Control_c, 0, 64, 94
1, 29396, Control_c, 0, 64, 96
1, 29411, Control_c, 0, 64, 97
1, 29426, Control_c, 0, 64, 97
1, 29441, Control_c, 0, 64, 98
1, 29455, Control_c, 0, 64, 99
1, 29470, Control_c, 0, 64, 101
1, 29493, Control_c, 0, 64, 101
1, 29507, Control_c, 0, 64, 102
1, 29522, Control_c, 0, 64, 103
1, 29528, Note_on_c, 0, 64, 22
1, 29537, Control_c, 0, 64, 104
1, 29540, Note_on_c, 0, 55, 27
1, 29543, Note_on_c, 0, 59, 25
1, 29552, Control_c, 0, 64, 106
1, 29567, Control_c, 0, 64, 108
1, 29582, Control_c, 0, 64, 110
1, 29597, Control_c, 0, 64, 112
1, 29612, Control_c, 0, 64, 115
1, 29612, Control_c, 0, 67, 61
1, 29627, Control_c, 0, 64, 118
1, 29642, Control_c, 0, 64, 124
1, 29656, Control_c, 0, 64, 127
1, 29734, Note_off_c, 0, 64, 43
1, 29740, Note_off_c, 0, 55, 37
1, 29755, Note_off_c, 0, 59, 50
1, 29903, Note_on_c, 0, 59, 24
1, 29910, Note_on_c, 0, 55, 34
1, 29913, Note_on_c, 0, 64, 33
1, 30061, Note_off_c, 0, 59, 52
1, 30065, Note_off_c, 0, 55, 36
1, 30079, Note_off_c, 0, 64, 51
1, 30341, Note_on_c, 0, 64, 37
1, 30345, Control_c, 0, 64, 118
1, 30350, Note_on_c, 0, 54, 32
1, 30351, Note_on_c, 0, 58, 38
1, 30361, Control_c, 0, 64, 106
1, 30375, Control_c, 0, 64, 96
1, 30390, Control_c, 0, 64, 81
1, 30405, Control_c, 0, 64, 68
1, 30420, Control_c, 0, 64, 56
1, 30435, Control_c, 0, 64, 40
1, 30449, Control_c, 0, 64, 41
1, 30464, Control_c, 0, 64, 55
1, 30479, Control_c, 0, 64, 63
1, 30494, Control_c, 0, 64, 67
1, 30509, Control_c, 0, 64, 72
1, 30524, Control_c, 0, 64, 76
1, 30539, Control_c, 0, 64, 79
1, 30539, Control_c, 0, 67, 60
1, 30554, Control_c, 0, 64, 82
1, 30569, Control_c, 0, 64, 83
1, 30583, Control_c, 0, 64, 84
1, 30598, Control_c, 0, 64, 84
1, 30626, Note_off_c, 0, 54, 40
1, 30630, Note_off_c, 0, 64, 44
1, 30649, Note_off_c, 0, 58, 37
1, 30843, Note_on_c, 0, 54, 18
1, 30846, Note_on_c, 0, 63, 36
1, 30848, Poly_aftertouch_c, 0, 58, 127
1, 30947, Note_on_c, 0, 78, 49
1, 31021, Note_off_c, 0, 76, 29
1, 31034, Control_c, 0, 64, 84
1, 31049, Control_c, 0, 64, 83
1, 31064, Control_c, 0, 64, 82
1, 31079, Control_c, 0, 64, 80
1, 31094, Control_c, 0, 64, 76
1, 31106, Note_on_c, 0, 75, 55
1, 31108, Control_c, 0, 64, 70
1, 31123, Control_c, 0, 64, 62
1, 31138, Control_c, 0, 64, 47
1, 31154, Control_c, 0, 64, 17
1, 31165, Note_off_c, 0, 78, 58
1, 31169, Control_c, 0, 64, 0
1, 31198, Control_c, 0, 64, 38
1, 31213, Control_c, 0, 64, 54
1, 31228, Control_c, 0, 64, 63
1, 31243, Control_c, 0, 64, 67
1, 31257, Control_c, 0, 64, 70
1, 31272, Control_c, 0, 64, 75
1, 31287, Control_c, 0, 64, 79
1, 31302, Control_c, 0, 64, 82
1, 31305, Note_off_c, 0, 63, 42
1, 31315, Note_off_c, 0, 54, 38
1, 31317, Control_c, 0, 64, 85
1, 31332, Control_c, 0, 64, 87
1, 31344, Poly_aftertouch_c, 0, 58, 0
1, 31347, Control_c, 0, 64, 89
1, 31362, Control_c, 0, 64, 90
1, 31376, Control_c, 0, 64, 90
1, 31391, Control_c, 0, 64, 91
1, 31421, Control_c, 0, 64, 91
1, 31435, Note_off_c, 0, 75, 57
1, 31501, Note_on_c, 0, 58, 19
1, 31508, Note_on_c, 0, 54, 26
1, 31516, Note_on_c, 0, 63, 37
1, 31689, Note_off_c, 0, 54, 39
1, 31692, Note_off_c, 0, 63, 41
1, 31710, Note_off_c, 0, 58, 41
1, 31754, Control_c, 0, 67, 61
1, 31898, Note_on_c, 0, 63, 29
1, 31904, Note_on_c, 0, 53, 28
1, 31910, Note_on_c, 0, 57, 36
1, 31962, Control_c, 0, 64, 91
1, 31977, Control_c, 0, 64, 90
1, 31992, Control_c, 0, 64, 87
1, 32007, Control_c, 0, 64, 82
1, 32009, Note_on_c, 0, 76, 45
1, 32022, Control_c, 0, 64, 76
1, 32036, Control_c, 0, 64, 67
1, 32051, Control_c, 0, 64, 56
1, 32066, Control_c, 0, 64, 38
1, 32080, Control_c, 0, 64, 15
1, 32095, Control_c, 0, 64, 19
1, 32110, Control_c, 0, 64, 36
1, 32125, Control_c, 0, 64, 51
1, 32140, Control_c, 0, 64, 59
1, 32154, Control_c, 0, 64, 63
1, 32169, Control_c, 0, 64, 65
1, 32171, Note_off_c, 0, 76, 57
1, 32184, Control_c, 0, 64, 67
1, 32191, Note_on_c, 0, 77, 49
1, 32199, Control_c, 0, 64, 69
1, 32214, Control_c, 0, 64, 71
1, 32229, Control_c, 0, 64, 72
1, 32244, Control_c, 0, 64, 73
1, 32259, Control_c, 0, 64, 73
1, 32265, Note_off_c, 0, 77, 62
1, 32285, Note_on_c, 0, 80, 56
1, 32288, Control_c, 0, 64, 74
1, 32303, Control_c, 0, 64, 75
1, 32303, Control_c, 0, 67, 61
1, 32318, Control_c, 0, 64, 75
1, 32339, Note_off_c, 0, 63, 42
1, 32348, Note_off_c, 0, 53, 36
1, 32364, Note_on_c, 0, 79, 56
1, 32406, Note_off_c, 0, 57, 36
1, 32413, Note_off_c, 0, 80, 32
1, 32426, Note_on_c, 0, 78, 61
1, 32429, Note_off_c, 0, 79, 50
1, 32497, Note_on_c, 0, 77, 64
1, 32498, Note_off_c, 0, 78, 63
1, 32584, Note_off_c, 0, 77, 54
1, 32606, Control_c, 0, 64, 74
1, 32618, Note_on_c, 0, 74, 57
1, 32621, Control_c, 0, 64, 73
1, 32628, Note_on_c, 0, 62, 35
1, 32631, Note_on_c, 0, 57, 31
1, 32636, Control_c, 0, 64, 71
1, 32642, Note_on_c, 0, 53, 29
1, 32651, Control_c, 0, 64, 68
1, 32666, Control_c, 0, 64, 62
1, 32680, Control_c, 0, 64, 54
1, 32687, Poly_aftertouch_c, 0, 76, 0
1, 32695, Control_c, 0, 64, 38
1, 32710, Control_c, 0, 64, 25
1, 32725, Control_c, 0, 64, 27
1, 32740, Control_c, 0, 64, 39
1, 32756, Control_c, 0, 64, 51
1, 32771, Control_c, 0, 64, 60
1, 32785, Control_c, 0, 64, 66
1, 32800, Control_c, 0, 64, 73
1, 32800, Control_c, 0, 67, 61
1, 32815, Control_c, 0, 64, 80
1, 32829, Control_c, 0, 64, 85
1, 32844, Control_c, 0, 64, 87
1, 32849, Note_off_c, 0, 74, 64
1, 32859, Control_c, 0, 64, 88
1, 32874, Note_off_c, 0, 62, 42
1, 32874, Control_c, 0, 64, 90
1, 32879, Note_off_c, 0, 53, 39
1, 32889, Control_c, 0, 64, 92
1, 32903, Control_c, 0, 64, 95
1, 32905, Note_off_c, 0, 57, 42
1, 32918, Control_c, 0, 64, 96
1, 32963, Control_c, 0, 64, 96
1, 33011, Note_on_c, 0, 62, 40
1, 33020, Note_on_c, 0, 57, 48
1, 33024, Note_on_c, 0, 53, 32
1, 33050, Note_off_c, 0, 62, 52
1, 33073, Note_off_c, 0, 57, 61
1, 33085, Note_off_c, 0, 53, 55
1, 33148, Note_on_c, 0, 80, 70
1, 33185, Control_c, 0, 67, 61
1, 33296, Control_c, 0, 64, 96
1, 33311, Control_c, 0, 64, 94
1, 33326, Control_c, 0, 64, 87
1, 33326, Control_c, 0, 67, 62
1, 33339, Note_on_c, 0, 84, 72
1, 33341, Control_c, 0, 64, 74
1, 33341, Control_c, 0, 67, 62
1, 33356, Control_c, 0, 64, 61
1, 33356, Control_c, 0, 67, 63
1, 33364, Note_on_c, 0, 40, 40
1, 33370, Note_on_c, 0, 52, 37
1, 33371, Control_c, 0, 64, 37
1, 33371, Control_c, 0, 67, 63
1, 33385, Note_off_c, 0, 80, 62
1, 33385, Control_c, 0, 64, 0
1, 33400, Control_c, 0, 64, 27
1, 33400, Control_c, 0, 67, 64
1, 33415, Control_c, 0, 64, 53
1, 33429, Control_c, 0, 64, 64
1, 33429, Control_c, 0, 67, 64
1, 33444, Control_c, 0, 64, 71
1, 33459, Control_c, 0, 64, 78
1, 33459, Control_c, 0, 67, 65
1, 33474, Control_c, 0, 64, 85
1, 33474, Control_c, 0, 67, 65
1, 33481, Note_off_c, 0, 40, 61
1, 33489, Control_c, 0, 64, 88
1, 33489, Control_c, 0, 67, 66
1, 33503, Control_c, 0, 64, 90
1, 33503, Control_c, 0, 67, 66
1, 33518, Control_c, 0, 64, 91
1, 33518, Control_c, 0, 67, 67
1, 33522, Note_off_c, 0, 52, 58
1, 33533, Control_c, 0, 64, 92
1, 33533, Control_c, 0, 67, 67
1, 33549, Control_c, 0, 67, 68
1, 33551, Note_off_c, 0, 84, 62
1, 33564, Control_c, 0, 67, 69
1, 33579, Control_c, 0, 67, 69
1, 33594, Control_c, 0, 67, 70
1, 33608, Control_c, 0, 67, 71
1, 33623, Control_c, 0, 67, 72
1, 33624, Note_on_c, 0, 83, 60
1, 33638, Control_c, 0, 67, 72
1, 33652, Control_c, 0, 67, 73
1, 33654, Note_off_c, 0, 83, 64
1, 33667, Control_c, 0, 67, 73
1, 33675, Note_on_c, 0, 84, 65
1, 33682, Control_c, 0, 67, 74
1, 33712, Control_c, 0, 67, 74
1, 33741, Control_c, 0, 67, 75
1, 33743, Note_on_c, 0, 83, 56
1, 33746, Note_off_c, 0, 84, 58
1, 33800, Control_c, 0, 64, 91
1, 33815, Control_c, 0, 64, 88
1, 33815, Control_c, 0, 67, 75
1, 33830, Note_off_c, 0, 83, 59
1, 33830, Control_c, 0, 64, 80
1, 33830, Control_c, 0, 67, 80
1, 33839, Note_on_c, 0, 80, 50
1, 33845, Control_c, 0, 64, 69
1, 33845, Control_c, 0, 67, 85
1, 33857, Note_on_c, 0, 52, 39
1, 33860, Control_c, 0, 64, 56
1, 33860, Control_c, 0, 67, 89
1, 33870, Note_on_c, 0, 62, 31
1, 33874, Control_c, 0, 64, 37
1, 33874, Control_c, 0, 67, 91
1, 33877, Note_on_c, 0, 59, 24
1, 33889, Control_c, 0, 67, 91
1, 33904, Control_c, 0, 64, 55
1, 33919, Control_c, 0, 64, 63
1, 33934, Control_c, 0, 64, 67
1, 33949, Control_c, 0, 64, 72
1, 33964, Control_c, 0, 64, 76
1, 33964, Control_c, 0, 67, 91
1, 33981, Note_off_c, 0, 80, 60
1, 33986, Control_c, 0, 64, 80
1, 33986, Control_c, 0, 67, 90
1, 34000, Control_c, 0, 64, 82
1, 34000, Control_c, 0, 67, 90
1, 34015, Control_c, 0, 64, 84
1, 34015, Control_c, 0, 67, 89
1, 34030, Control_c, 0, 64, 85
1, 34030, Control_c, 0, 67, 89
1, 34045, Control_c, 0, 64, 86
1, 34045, Control_c, 0, 67, 88
1, 34059, Control_c, 0, 64, 86
1, 34074, Control_c, 0, 64, 87
1, 34074, Control_c, 0, 67, 87
1, 34119, Note_off_c, 0, 52, 38
1, 34130, Note_off_c, 0, 62, 42
1, 34134, Control_c, 0, 64, 87
1, 34149, Control_c, 0, 67, 87
1, 34153, Note_off_c, 0, 59, 41
1, 34193, Control_c, 0, 67, 86
1, 34326, Control_c, 0, 64, 87
1, 34341, Control_c, 0, 67, 86
1, 34417, Control_c, 0, 67, 85
1, 34446, Control_c, 0, 67, 85
1, 34475, Control_c, 0, 67, 84
1, 34535, Control_c, 0, 67, 84
1, 34540, Note_on_c, 0, 68, 42
1, 34549, Control_c, 0, 64, 86
1, 34564, Control_c, 0, 64, 85
1, 34575, Note_on_c, 0, 52, 35
1, 34579, Control_c, 0, 64, 82
1, 34593, Control_c, 0, 64, 75
1, 34594, Note_on_c, 0, 62, 28
1, 34602, Note_on_c, 0, 59, 31
1, 34608, Control_c, 0, 64, 65
1, 34623, Control_c, 0, 64, 53
1, 34637, Control_c, 0, 64, 36
1, 34652, Control_c, 0, 64, 32
1, 34666, Control_c, 0, 64, 45
1, 34681, Control_c, 0, 64, 56
1, 34696, Control_c, 0, 64, 63
1, 34711, Control_c, 0, 64, 66
1, 34711, Control_c, 0, 67, 83
1, 34715, Note_off_c, 0, 62, 44
1, 34730, Note_off_c, 0, 52, 51
1, 34733, Control_c, 0, 64, 69
1, 34736, Note_off_c, 0, 59, 36
1, 34748, Control_c, 0, 64, 72
1, 34763, Control_c, 0, 64, 74
1, 34778, Control_c, 0, 64, 76
1, 34793, Control_c, 0, 64, 77
1, 34837, Control_c, 0, 64, 77
1, 34837, Control_c, 0, 67, 84
1, 34985, Control_c, 0, 64, 77
1, 34999, Control_c, 0, 64, 76
1, 35003, Note_on_c, 0, 69, 47
1, 35014, Control_c, 0, 64, 73
1, 35029, Control_c, 0, 64, 70
1, 35036, Note_on_c, 0, 45, 28
1, 35044, Control_c, 0, 64, 64
1, 35059, Control_c, 0, 64, 54
1, 35073, Control_c, 0, 64, 31
1, 35088, Control_c, 0, 64, 0
1, 35088, Control_c, 0, 67, 84
1, 35090, Note_off_c, 0, 68, 55
1, 35118, Control_c, 0, 67, 84
1, 35133, Control_c, 0, 64, 29
1, 35149, Control_c, 0, 64, 52
1, 35149, Control_c, 0, 67, 83
1, 35164, Control_c, 0, 64, 63
1, 35164, Control_c, 0, 67, 83
1, 35173, Note_off_c, 0, 45, 61
1, 35178, Control_c, 0, 64, 67
1, 35178, Control_c, 0, 67, 82
1, 35193, Control_c, 0, 64, 71
1, 35193, Control_c, 0, 67, 82
1, 35208, Control_c, 0, 64, 76
1, 35208, Control_c, 0, 67, 81
1, 35222, Control_c, 0, 64, 80
1, 35222, Control_c, 0, 67, 81
1, 35237, Control_c, 0, 64, 82
1, 35237, Control_c, 0, 67, 80
1, 35252, Control_c, 0, 64, 84
1, 35267, Control_c, 0, 64, 86
1, 35282, Control_c, 0, 64, 87
1, 35296, Control_c, 0, 64, 87
1, 35311, Control_c, 0, 64, 88
1, 35311, Control_c, 0, 67, 81
1, 35326, Control_c, 0, 64, 89
1, 35371, Control_c, 0, 67, 81
1, 35401, Control_c, 0, 64, 89
1, 35505, Note_on_c, 0, 60, 27
1, 35522, Note_on_c, 0, 57, 30
1, 35523, Note_on_c, 0, 52, 36
1, 35586, Control_c, 0, 67, 81
1, 35615, Control_c, 0, 67, 80
1, 35645, Control_c, 0, 67, 80
1, 35660, Control_c, 0, 67, 79
1, 35671, Note_off_c, 0, 57, 42
1, 35673, Note_off_c, 0, 52, 33
1, 35675, Control_c, 0, 64, 90
1, 35675, Control_c, 0, 67, 78
1, 35690, Control_c, 0, 64, 90
1, 35690, Control_c, 0, 67, 78
1, 35704, Control_c, 0, 64, 91
1, 35704, Control_c, 0, 67, 77
1, 35707, Note_off_c, 0, 60, 41
1, 35719, Control_c, 0, 64, 91
1, 35719, Control_c, 0, 67, 76
1, 35734, Control_c, 0, 64, 92
1, 35734, Control_c, 0, 67, 75
1, 35749, Control_c, 0, 64, 93
1, 35749, Control_c, 0, 67, 72
1, 35764, Control_c, 0, 64, 93
1, 35764, Control_c, 0, 67, 69
1, 35778, Control_c, 0, 64, 94
1, 35778, Control_c, 0, 67, 67
1, 35793, Control_c, 0, 67, 65
1, 35808, Control_c, 0, 64, 94
1, 35808, Control_c, 0, 67, 62
1, 35822, Control_c, 0, 67, 59
1, 35837, Control_c, 0, 64, 95
1, 35837, Control_c, 0, 67, 55
1, 35852, Control_c, 0, 64, 96
1, 35852, Control_c, 0, 67, 52
1, 35867, Control_c, 0, 67, 49
1, 35878, Note_off_c, 0, 69, 44
1, 35882, Control_c, 0, 67, 46
1, 35896, Control_c, 0, 67, 43
1, 35911, Control_c, 0, 64, 96
1, 35911, Control_c, 0, 67, 40
1, 35926, Control_c, 0, 67, 37
1, 35942, Control_c, 0, 67, 34
1, 35957, Control_c, 0, 64, 97
1, 35957, Control_c, 0, 67, 31
1, 35972, Control_c, 0, 67, 28
1, 35987, Control_c, 0, 67, 24
1, 36001, Control_c, 0, 67, 20
1, 36016, Control_c, 0, 64, 97
1, 36016, Control_c, 0, 67, 15
1, 36031, Control_c, 0, 67, 11
1, 36045, Control_c, 0, 67, 8
1, 36060, Control_c, 0, 67, 0
1, 36239, Note_on_c, 0, 60, 28
1, 36241, Note_on_c, 0, 57, 27
1, 36242, Note_on_c, 0, 64, 20
1, 36291, Control_c, 0, 64, 98
1, 36350, Control_c, 0, 64, 98
1, 36394, Control_c, 0, 64, 99
1, 36432, Note_off_c, 0, 60, 38
1, 36439, Control_c, 0, 64, 99
1, 36446, Note_off_c, 0, 57, 40
1, 36489, Note_off_c, 0, 64, 39
1, 36498, Control_c, 0, 64, 100
1, 36824, Note_on_c, 0, 71, 55
1, 36825, Control_c, 0, 64, 99
1, 36840, Control_c, 0, 64, 99
1, 36855, Control_c, 0, 64, 98
1, 36869, Control_c, 0, 64, 97
1, 36881, Note_on_c, 0, 65, 27
1, 36884, Control_c, 0, 64, 96
1, 36888, Note_on_c, 0, 62, 32
1, 36899, Note_on_c, 0, 57, 25
1, 36899, Control_c, 0, 64, 94
1, 36914, Control_c, 0, 64, 91
1, 36929, Control_c, 0, 64, 86
1, 36943, Control_c, 0, 64, 78
1, 36958, Control_c, 0, 64, 68
1, 36981, Control_c, 0, 64, 58
1, 36995, Control_c, 0, 64, 47
1, 37010, Control_c, 0, 64, 48
1, 37025, Control_c, 0, 64, 58
1, 37040, Control_c, 0, 64, 63
1, 37055, Control_c, 0, 64, 66
1, 37069, Control_c, 0, 64, 69
1, 37084, Control_c, 0, 64, 74
1, 37099, Control_c, 0, 64, 79
1, 37114, Control_c, 0, 64, 82
1, 37129, Control_c, 0, 64, 86
1, 37143, Control_c, 0, 64, 88
1, 37158, Control_c, 0, 64, 91
1, 37173, Control_c, 0, 64, 95
1, 37188, Control_c, 0, 64, 99
1, 37202, Control_c, 0, 64, 102
1, 37203, Note_off_c, 0, 57, 40
1, 37205, Note_off_c, 0, 65, 39
1, 37217, Control_c, 0, 64, 104
1, 37232, Control_c, 0, 64, 106
1, 37247, Control_c, 0, 64, 108
1, 37262, Control_c, 0, 64, 109
1, 37270, Note_off_c, 0, 62, 41
1, 37276, Control_c, 0, 64, 110
1, 37291, Control_c, 0, 64, 111
1, 37306, Control_c, 0, 64, 112
1, 37350, Control_c, 0, 64, 113
1, 37460, Note_off_c, 0, 71, 54
1, 37486, Note_on_c, 0, 72, 54
1, 37589, Control_c, 0, 64, 112
1, 37615, Note_off_c, 0, 72, 57
1, 37630, Note_on_c, 0, 74, 57
1, 37648, Control_c, 0, 64, 111
1, 37663, Control_c, 0, 64, 109
1, 37678, Control_c, 0, 64, 102
1, 37679, Note_on_c, 0, 57, 29
1, 37690, Note_on_c, 0, 65, 28
1, 37691, Note_on_c, 0, 62, 34
1, 37692, Control_c, 0, 64, 92
1, 37707, Control_c, 0, 64, 81
1, 37729, Control_c, 0, 64, 67
1, 37744, Control_c, 0, 64, 54
1, 37759, Control_c, 0, 64, 36
1, 37773, Control_c, 0, 64, 38
1, 37788, Control_c, 0, 64, 52
1, 37803, Control_c, 0, 64, 61
1, 37818, Control_c, 0, 64, 65
1, 37833, Control_c, 0, 64, 70
1, 37848, Control_c, 0, 64, 74
1, 37863, Control_c, 0, 64, 79
1, 37878, Control_c, 0, 64, 81
1, 37892, Control_c, 0, 64, 84
1, 37907, Control_c, 0, 64, 86
1, 37922, Control_c, 0, 64, 89
1, 37937, Control_c, 0, 64, 92
1, 37952, Control_c, 0, 64, 94
1, 37967, Control_c, 0, 64, 96
1, 37968, Note_off_c, 0, 65, 38
1, 37974, Note_off_c, 0, 57, 41
1, 37981, Control_c, 0, 64, 99
1, 37996, Control_c, 0, 64, 101
1, 37998, Note_off_c, 0, 62, 42
1, 38011, Control_c, 0, 64, 103
1, 38025, Control_c, 0, 64, 105
1, 38040, Control_c, 0, 64, 106
1, 38070, Control_c, 0, 64, 107
1, 38085, Control_c, 0, 64, 109
1, 38114, Control_c, 0, 64, 109
1, 38158, Note_on_c, 0, 69, 56
1, 38200, Note_on_c, 0, 62, 31
1, 38201, Note_on_c, 0, 57, 31
1, 38201, Note_on_c, 0, 65, 36
1, 38280, Note_off_c, 0, 74, 55
1, 38288, Note_off_c, 0, 69, 63
1, 38361, Note_off_c, 0, 57, 45
1, 38386, Note_off_c, 0, 65, 43
1, 38489, Note_on_c, 0, 69, 55
1, 38493, Note_off_c, 0, 62, 41
1, 38552, Control_c, 0, 64, 109
1, 38581, Note_on_c, 0, 72, 55
1, 38581, Control_c, 0, 64, 106
1, 38596, Control_c, 0, 64, 101
1, 38610, Note_on_c, 0, 65, 28
1, 38611, Control_c, 0, 64, 94
1, 38623, Note_on_c, 0, 60, 38
1, 38626, Note_off_c, 0, 69, 47
1, 38626, Control_c, 0, 64, 82
1, 38629, Note_on_c, 0, 57, 35
1, 38640, Control_c, 0, 64, 68
1, 38655, Control_c, 0, 64, 54
1, 38670, Control_c, 0, 64, 20
1, 38685, Control_c, 0, 64, 0
1, 38700, Control_c, 0, 64, 25
1, 38714, Control_c, 0, 64, 50
1, 38729, Control_c, 0, 64, 63
1, 38744, Control_c, 0, 64, 69
1, 38759, Control_c, 0, 64, 75
1, 38774, Control_c, 0, 64, 82
1, 38788, Control_c, 0, 64, 87
1, 38803, Control_c, 0, 64, 92
1, 38818, Control_c, 0, 64, 96
1, 38833, Control_c, 0, 64, 99
1, 38847, Control_c, 0, 64, 101
1, 38862, Control_c, 0, 64, 102
1, 38864, Note_off_c, 0, 57, 44
1, 38864, Note_off_c, 0, 65, 42
1, 38867, Note_off_c, 0, 72, 61
1, 38876, Note_off_c, 0, 60, 53
1, 38877, Control_c, 0, 64, 103
1, 38892, Control_c, 0, 64, 103
1, 38907, Control_c, 0, 64, 104
1, 38936, Control_c, 0, 64, 104
1, 39110, Note_on_c, 0, 65, 36
1, 39115, Note_on_c, 0, 60, 36
1, 39120, Note_on_c, 0, 57, 37
1, 39160, Control_c, 0, 64, 105
1, 39313, Note_off_c, 0, 57, 50
1, 39324, Note_off_c, 0, 65, 41
1, 39344, Note_off_c, 0, 60, 37
1, 39374, Control_c, 0, 64, 105
1, 39419, Note_on_c, 0, 71, 56
1, 39448, Note_on_c, 0, 65, 42
1, 39458, Note_on_c, 0, 57, 33
1, 39461, Note_on_c, 0, 60, 50
1, 39533, Note_off_c, 0, 57, 51
1, 39547, Note_off_c, 0, 65, 55
1, 39564, Note_off_c, 0, 60, 60
1, 39588, Note_on_c, 0, 72, 62
1, 39599, Note_off_c, 0, 71, 55
1, 39678, Note_off_c, 0, 72, 63
1, 39729, Note_on_c, 0, 65, 40
1, 39736, Note_on_c, 0, 60, 44
1, 39750, Note_on_c, 0, 55, 44
1, 39759, Control_c, 0, 64, 104
1, 39774, Control_c, 0, 64, 101
1, 39789, Control_c, 0, 64, 95
1, 39800, Note_on_c, 0, 74, 53
1, 39803, Control_c, 0, 64, 88
1, 39818, Control_c, 0, 64, 79
1, 39826, Note_off_c, 0, 74, 62
1, 39833, Control_c, 0, 64, 67
1, 39847, Note_on_c, 0, 76, 65
1, 39848, Control_c, 0, 64, 57
1, 39863, Control_c, 0, 64, 39
1, 39878, Control_c, 0, 64, 0
1, 39902, Note_on_c, 0, 74, 68
1, 39921, Note_off_c, 0, 76, 57
1, 39954, Control_c, 0, 64, 15
1, 39976, Control_c, 0, 64, 38
1, 39991, Control_c, 0, 64, 52
1, 40006, Control_c, 0, 64, 59
1, 40020, Control_c, 0, 64, 62
1, 40035, Control_c, 0, 64, 65
1, 40050, Control_c, 0, 64, 67
1, 40065, Control_c, 0, 64, 70
1, 40080, Control_c, 0, 64, 73
1, 40094, Control_c, 0, 64, 75
1, 40109, Control_c, 0, 64, 77
1, 40124, Control_c, 0, 64, 79
1, 40139, Control_c, 0, 64, 81
1, 40154, Control_c, 0, 64, 82
1, 40159, Note_off_c, 0, 74, 60
1, 40175, Note_off_c, 0, 65, 51
1, 40176, Note_on_c, 0, 73, 64
1, 40183, Control_c, 0, 64, 82
1, 40202, Note_off_c, 0, 55, 22
1, 40212, Control_c, 0, 64, 83
1, 40216, Note_off_c, 0, 60, 59
1, 40242, Control_c, 0, 64, 83
1, 40331, Control_c, 0, 64, 83
1, 40346, Control_c, 0, 64, 80
1, 40359, Note_on_c, 0, 74, 61
1, 40361, Control_c, 0, 64, 73
1, 40376, Control_c, 0, 64, 63
1, 40377, Note_on_c, 0, 65, 37
1, 40385, Note_on_c, 0, 55, 24
1, 40390, Note_on_c, 0, 59, 38
1, 40391, Control_c, 0, 64, 46
1, 40406, Control_c, 0, 64, 0
1, 40415, Note_off_c, 0, 73, 32
1, 40435, Control_c, 0, 64, 31
1, 40450, Control_c, 0, 64, 48
1, 40465, Control_c, 0, 64, 58
1, 40480, Control_c, 0, 64, 62
1, 40481, Note_off_c, 0, 74, 60
1, 40494, Control_c, 0, 64, 65
1, 40509, Control_c, 0, 64, 68
1, 40524, Control_c, 0, 64, 72
1, 40539, Control_c, 0, 64, 76
1, 40554, Control_c, 0, 64, 77
1, 40568, Control_c, 0, 64, 78
1, 40573, Note_on_c, 0, 76, 62
1, 40583, Control_c, 0, 64, 79
1, 40594, Note_off_c, 0, 65, 53
1, 40598, Control_c, 0, 64, 80
1, 40612, Control_c, 0, 64, 81
1, 40614, Note_off_c, 0, 55, 41
1, 40620, Note_off_c, 0, 59, 50
1, 40627, Control_c, 0, 64, 82
1, 40636, Note_off_c, 0, 76, 50
1, 40642, Control_c, 0, 64, 83
1, 40672, Control_c, 0, 64, 83
1, 40685, Note_on_c, 0, 77, 65
1, 40686, Control_c, 0, 64, 84
1, 40701, Control_c, 0, 64, 84
1, 40724, Control_c, 0, 64, 85
1, 40755, Note_off_c, 0, 77, 63
1, 40814, Control_c, 0, 64, 84
1, 40829, Control_c, 0, 64, 81
1, 40843, Control_c, 0, 64, 72
1, 40858, Control_c, 0, 64, 61
1, 40865, Note_on_c, 0, 79, 52
1, 40873, Control_c, 0, 64, 38
1, 40888, Control_c, 0, 64, 0
1, 40903, Note_on_c, 0, 59, 27
1, 40903, Note_on_c, 0, 65, 30
1, 40931, Note_on_c, 0, 55, 9
1, 40932, Control_c, 0, 64, 26
1, 40947, Control_c, 0, 64, 49
1, 40962, Control_c, 0, 64, 60
1, 40977, Control_c, 0, 64, 65
1, 40991, Control_c, 0, 64, 67
1, 41006, Control_c, 0, 64, 71
1, 41021, Control_c, 0, 64, 75
1, 41035, Control_c, 0, 64, 79
1, 41050, Control_c, 0, 64, 82
1, 41058, Note_off_c, 0, 79, 63
1, 41065, Control_c, 0, 64, 84
1, 41080, Control_c, 0, 64, 85
1, 41095, Control_c, 0, 64, 87
1, 41109, Control_c, 0, 64, 89
1, 41124, Control_c, 0, 64, 91
1, 41139, Control_c, 0, 64, 91
1, 41154, Control_c, 0, 64, 92
1, 41184, Control_c, 0, 64, 92
1, 41199, Control_c, 0, 64, 93
1, 41273, Control_c, 0, 64, 91
1, 41288, Control_c, 0, 64, 85
1, 41303, Control_c, 0, 64, 76
1, 41317, Control_c, 0, 64, 66
1, 41332, Control_c, 0, 64, 56
1, 41347, Control_c, 0, 64, 46
1, 41361, Control_c, 0, 64, 48
1, 41376, Control_c, 0, 64, 55
1, 41391, Control_c, 0, 64, 60
1, 41406, Control_c, 0, 64, 63
1, 41421, Control_c, 0, 64, 66
1, 41435, Control_c, 0, 64, 69
1, 41450, Control_c, 0, 64, 74
1, 41473, Control_c, 0, 64, 78
1, 41488, Control_c, 0, 64, 80
1, 41503, Control_c, 0, 64, 81
1, 41517, Control_c, 0, 64, 82
1, 41532, Control_c, 0, 64, 84
1, 41547, Control_c, 0, 64, 86
1, 41562, Control_c, 0, 64, 86
1, 41592, Control_c, 0, 64, 87
1, 41637, Control_c, 0, 64, 87
1, 41678, Note_off_c, 0, 65, 39
1, 41680, Note_on_c, 0, 74, 55
1, 41681, Note_off_c, 0, 55, 33
1, 41711, Control_c, 0, 64, 88
1, 41725, Note_off_c, 0, 59, 40
1, 41802, Note_off_c, 0, 74, 63
1, 41869, Note_on_c, 0, 76, 63
1, 41918, Control_c, 0, 64, 87
1, 41932, Control_c, 0, 64, 85
1, 41933, Note_on_c, 0, 59, 19
1, 41934, Note_on_c, 0, 64, 33
1, 41947, Control_c, 0, 64, 81
1, 41962, Control_c, 0, 64, 75
1, 41977, Control_c, 0, 64, 66
1, 41991, Control_c, 0, 64, 55
1, 42003, Poly_aftertouch_c, 0, 55, 127
1, 42006, Control_c, 0, 64, 38
1, 42021, Control_c, 0, 64, 32
1, 42036, Control_c, 0, 64, 43
1, 42051, Control_c, 0, 64, 57
1, 42066, Control_c, 0, 64, 63
1, 42081, Control_c, 0, 64, 67
1, 42096, Control_c, 0, 64, 72
1, 42111, Control_c, 0, 64, 79
1, 42126, Control_c, 0, 64, 84
1, 42140, Control_c, 0, 64, 88
1, 42155, Control_c, 0, 64, 91
1, 42170, Control_c, 0, 64, 96
1, 42184, Control_c, 0, 64, 102
1, 42199, Control_c, 0, 64, 109
1, 42221, Poly_aftertouch_c, 0, 55, 0
1, 42221, Control_c, 0, 64, 117
1, 42225, Note_off_c, 0, 64, 43
1, 42236, Control_c, 0, 64, 127
1, 42239, Note_off_c, 0, 59, 55
1, 42601, Note_on_c, 0, 64, 36
1, 42606, Note_on_c, 0, 59, 36
1, 42610, Note_on_c, 0, 55, 33
1, 42867, Note_off_c, 0, 55, 41
1, 42872, Note_off_c, 0, 64, 52
1, 42874, Note_off_c, 0, 59, 54
1, 43027, Note_on_c, 0, 59, 31
1, 43029, Note_on_c, 0, 64, 43
1, 43050, Note_on_c, 0, 55, 38
1, 43207, Note_off_c, 0, 55, 51
1, 43239, Note_off_c, 0, 64, 59
1, 43240, Note_off_c, 0, 59, 55
1, 43479, Note_on_c, 0, 78, 66
1, 43538, Note_on_c, 0, 64, 25
1, 43550, Note_on_c, 0, 58, 32
1, 43556, Note_on_c, 0, 54, 31
1, 43592, Control_c, 0, 64, 110
1, 43608, Control_c, 0, 64, 97
1, 43623, Control_c, 0, 64, 86
1, 43637, Control_c, 0, 64, 75
1, 43652, Control_c, 0, 64, 62
1, 43667, Control_c, 0, 64, 43
1, 43682, Control_c, 0, 64, 0
1, 43685, Note_off_c, 0, 76, 56
1, 43734, Control_c, 0, 64, 20
1, 43749, Control_c, 0, 64, 38
1, 43763, Control_c, 0, 64, 53
1, 43778, Control_c, 0, 64, 60
1, 43793, Control_c, 0, 64, 64
1, 43808, Control_c, 0, 64, 67
1, 43823, Control_c, 0, 64, 70
1, 43837, Control_c, 0, 64, 75
1, 43852, Control_c, 0, 64, 81
1, 43867, Control_c, 0, 64, 85
1, 43882, Control_c, 0, 64, 89
1, 43897, Control_c, 0, 64, 94
1, 43911, Control_c, 0, 64, 100
1, 43926, Control_c, 0, 64, 105
1, 43942, Control_c, 0, 64, 108
1, 43957, Control_c, 0, 64, 110
1, 43972, Control_c, 0, 64, 111
1, 43987, Note_off_c, 0, 58, 41
1, 43987, Control_c, 0, 64, 113
1, 43989, Note_off_c, 0, 54, 41
1, 43992, Note_off_c, 0, 64, 41
1, 44002, Control_c, 0, 64, 115
1, 44016, Control_c, 0, 64, 116
1, 44194, Control_c, 0, 64, 115
1, 44248, Note_on_c, 0, 75, 59
1, 44298, Control_c, 0, 64, 115
1, 44307, Note_on_c, 0, 54, 27
1, 44308, Note_on_c, 0, 58, 31
1, 44313, Note_on_c, 0, 63, 32
1, 44313, Control_c, 0, 64, 114
1, 44327, Control_c, 0, 64, 113
1, 44342, Control_c, 0, 64, 112
1, 44357, Control_c, 0, 64, 109
1, 44372, Control_c, 0, 64, 104
1, 44386, Control_c, 0, 64, 97
1, 44401, Control_c, 0, 64, 88
1, 44416, Control_c, 0, 64, 76
1, 44431, Control_c, 0, 64, 63
1, 44446, Control_c, 0, 64, 46
1, 44468, Control_c, 0, 64, 0
1, 44479, Note_off_c, 0, 78, 59
1, 44498, Control_c, 0, 64, 8
1, 44513, Control_c, 0, 64, 34
1, 44528, Control_c, 0, 64, 51
1, 44542, Control_c, 0, 64, 61
1, 44557, Control_c, 0, 64, 65
1, 44572, Control_c, 0, 64, 68
1, 44586, Control_c, 0, 64, 72
1, 44601, Control_c, 0, 64, 77
1, 44616, Control_c, 0, 64, 81
1, 44631, Control_c, 0, 64, 84
1, 44646, Control_c, 0, 64, 87
1, 44660, Control_c, 0, 64, 91
1, 44675, Control_c, 0, 64, 95
1, 44690, Control_c, 0, 64, 99
1, 44699, Note_off_c, 0, 54, 32
1, 44705, Control_c, 0, 64, 104
1, 44720, Control_c, 0, 64, 106
1, 44736, Control_c, 0, 64, 109
1, 44746, Note_off_c, 0, 63, 41
1, 44751, Control_c, 0, 64, 111
1, 44765, Control_c, 0, 64, 114
1, 44773, Note_off_c, 0, 58, 40
1, 44780, Control_c, 0, 64, 115
1, 44795, Control_c, 0, 64, 116
1, 44869, Control_c, 0, 64, 117
1, 44932, Note_on_c, 0, 58, 21
1, 44940, Note_on_c, 0, 63, 37
1, 44945, Note_on_c, 0, 54, 34
1, 45172, Note_off_c, 0, 54, 42
1, 45218, Note_off_c, 0, 63, 42
1, 45220, Note_off_c, 0, 58, 42
1, 45306, Control_c, 0, 64, 116
1, 45358, Note_on_c, 0, 77, 67
1, 45412, Note_on_c, 0, 63, 33
1, 45424, Control_c, 0, 64, 115
1, 45429, Note_on_c, 0, 57, 37
1, 45438, Note_on_c, 0, 53, 29
1, 45439, Control_c, 0, 64, 114
1, 45454, Control_c, 0, 64, 111
1, 45469, Control_c, 0, 64, 107
1, 45483, Control_c, 0, 64, 103
1, 45498, Control_c, 0, 64, 97
1, 45513, Control_c, 0, 64, 87
1, 45529, Control_c, 0, 64, 75
1, 45544, Control_c, 0, 64, 62
1, 45559, Control_c, 0, 64, 41
1, 45571, Note_off_c, 0, 75, 56
1, 45574, Control_c, 0, 64, 0
1, 45603, Control_c, 0, 64, 19
1, 45618, Control_c, 0, 64, 38
1, 45632, Control_c, 0, 64, 52
1, 45647, Control_c, 0, 64, 60
1, 45662, Control_c, 0, 64, 65
1, 45677, Control_c, 0, 64, 67
1, 45692, Control_c, 0, 64, 69
1, 45706, Control_c, 0, 64, 72
1, 45721, Control_c, 0, 64, 75
1, 45736, Control_c, 0, 64, 77
1, 45751, Control_c, 0, 64, 78
1, 45766, Control_c, 0, 64, 80
1, 45780, Control_c, 0, 64, 81
1, 45810, Control_c, 0, 64, 81
1, 45816, Note_off_c, 0, 53, 36
1, 45822, Note_off_c, 0, 63, 43
1, 45875, Note_off_c, 0, 57, 36
1, 46031, Note_on_c, 0, 74, 58
1, 46096, Note_on_c, 0, 57, 28
1, 46099, Note_on_c, 0, 62, 38
1, 46107, Note_on_c, 0, 53, 28
1, 46127, Control_c, 0, 64, 81
1, 46142, Control_c, 0, 64, 78
1, 46156, Control_c, 0, 64, 73
1, 46171, Control_c, 0, 64, 63
1, 46186, Control_c, 0, 64, 48
1, 46201, Control_c, 0, 64, 20
1, 46215, Note_off_c, 0, 77, 61
1, 46216, Control_c, 0, 64, 10
1, 46230, Control_c, 0, 64, 34
1, 46245, Control_c, 0, 64, 52
1, 46260, Control_c, 0, 64, 62
1, 46275, Control_c, 0, 64, 67
1, 46290, Control_c, 0, 64, 71
1, 46305, Control_c, 0, 64, 77
1, 46320, Control_c, 0, 64, 81
1, 46335, Control_c, 0, 64, 84
1, 46350, Control_c, 0, 64, 87
1, 46361, Note_off_c, 0, 53, 40
1, 46365, Control_c, 0, 64, 90
1, 46366, Note_off_c, 0, 62, 41
1, 46380, Control_c, 0, 64, 94
1, 46395, Control_c, 0, 64, 99
1, 46396, Note_off_c, 0, 57, 41
1, 46409, Control_c, 0, 64, 105
1, 46424, Control_c, 0, 64, 114
1, 46439, Control_c, 0, 64, 127
1, 46472, Note_off_c, 0, 74, 63
1, 46519, Note_on_c, 0, 57, 43
1, 46520, Note_on_c, 0, 53, 25
1, 46523, Note_on_c, 0, 62, 38
1, 46679, Note_off_c, 0, 53, 51
1, 46679, Note_off_c, 0, 57, 48
1, 46679, Note_off_c, 0, 62, 47
1, 46902, Note_on_c, 0, 76, 58
1, 46957, Note_on_c, 0, 62, 33
1, 46959, Note_on_c, 0, 56, 36
1, 46979, Note_on_c, 0, 52, 26
1, 47025, Control_c, 0, 64, 105
1, 47040, Control_c, 0, 64, 90
1, 47054, Control_c, 0, 64, 77
1, 47069, Note_on_c, 0, 71, 55
1, 47069, Control_c, 0, 64, 64
1, 47084, Control_c, 0, 64, 46
1, 47099, Control_c, 0, 64, 0
1, 47169, Note_off_c, 0, 76, 60
1, 47174, Control_c, 0, 64, 21
1, 47189, Control_c, 0, 64, 46
1, 47204, Control_c, 0, 64, 59
1, 47219, Control_c, 0, 64, 64
1, 47233, Control_c, 0, 64, 66
1, 47248, Control_c, 0, 64, 69
1, 47263, Control_c, 0, 64, 74
1, 47277, Control_c, 0, 64, 81
1, 47292, Control_c, 0, 64, 87
1, 47307, Control_c, 0, 64, 91
1, 47320, Note_off_c, 0, 52, 40
1, 47321, Note_off_c, 0, 62, 42
1, 47322, Control_c, 0, 64, 95
1, 47337, Control_c, 0, 64, 100
1, 47351, Note_off_c, 0, 56, 41
1, 47351, Control_c, 0, 64, 107
1, 47366, Control_c, 0, 64, 118
1, 47381, Control_c, 0, 64, 127
1, 47558, Note_on_c, 0, 62, 33
1, 47572, Poly_aftertouch_c, 0, 56, 127
1, 47578, Note_on_c, 0, 52, 30
1, 47583, Note_off_c, 0, 71, 34
1, 47792, Note_off_c, 0, 62, 47
1, 47801, Note_off_c, 0, 52, 38
1, 47810, Poly_aftertouch_c, 0, 56, 0
1, 47974, Note_on_c, 0, 62, 31
1, 47978, Note_on_c, 0, 56, 27
1, 47985, Note_on_c, 0, 52, 22
1, 48148, Note_off_c, 0, 56, 53
1, 48153, Note_off_c, 0, 62, 50
1, 48166, Note_off_c, 0, 52, 37
1, 48284, Note_on_c, 0, 72, 59
1, 48309, Note_on_c, 0, 62, 32
1, 48317, Note_on_c, 0, 52, 37
1, 48325, Note_on_c, 0, 57, 41
1, 48345, Control_c, 0, 64, 124
1, 48360, Control_c, 0, 64, 89
1, 48374, Control_c, 0, 64, 70
1, 48389, Control_c, 0, 64, 49
1, 48404, Control_c, 0, 64, 0
1, 48424, Note_on_c, 0, 68, 60
1, 48433, Control_c, 0, 64, 20
1, 48448, Control_c, 0, 64, 42
1, 48463, Control_c, 0, 64, 54
1, 48478, Control_c, 0, 64, 61
1, 48493, Control_c, 0, 64, 66
1, 48505, Note_off_c, 0, 52, 49
1, 48508, Control_c, 0, 64, 69
1, 48511, Note_off_c, 0, 62, 56
1, 48523, Control_c, 0, 64, 73
1, 48534, Note_off_c, 0, 57, 49
1, 48538, Control_c, 0, 64, 77
1, 48552, Control_c, 0, 64, 80
1, 48567, Control_c, 0, 64, 82
1, 48582, Control_c, 0, 64, 83
1, 48597, Control_c, 0, 64, 84
1, 48612, Control_c, 0, 64, 85
1, 48641, Control_c, 0, 64, 84
1, 48645, Note_on_c, 0, 62, 43
1, 48653, Note_off_c, 0, 72, 52
1, 48656, Control_c, 0, 64, 81
1, 48657, Note_on_c, 0, 52, 33
1, 48663, Note_on_c, 0, 59, 49
1, 48671, Control_c, 0, 64, 70
1, 48686, Control_c, 0, 64, 55
1, 48700, Control_c, 0, 64, 28
1, 48715, Control_c, 0, 64, 15
1, 48731, Control_c, 0, 64, 38
1, 48746, Control_c, 0, 64, 56
1, 48761, Control_c, 0, 64, 65
1, 48776, Control_c, 0, 64, 70
1, 48791, Control_c, 0, 64, 79
1, 48803, Note_off_c, 0, 68, 62
1, 48805, Control_c, 0, 64, 89
1, 48820, Control_c, 0, 64, 103
1, 48835, Control_c, 0, 64, 127
1, 48874, Note_off_c, 0, 52, 51
1, 48875, Note_off_c, 0, 59, 62
1, 48879, Note_off_c, 0, 62, 47
1, 49041, Note_on_c, 0, 52, 37
1, 49048, Note_on_c, 0, 59, 40
1, 49050, Note_on_c, 0, 62, 37
1, 49115, Note_off_c, 0, 62, 59
1, 49139, Note_off_c, 0, 59, 63
1, 49175, Note_off_c, 0, 52, 34
1, 49196, Control_c, 0, 67, 8
1, 49211, Control_c, 0, 67, 10
1, 49222, Note_on_c, 0, 71, 60
1, 49226, Control_c, 0, 67, 12
1, 49241, Control_c, 0, 67, 14
1, 49256, Control_c, 0, 67, 17
1, 49271, Control_c, 0, 67, 20
1, 49286, Control_c, 0, 67, 25
1, 49301, Control_c, 0, 67, 30
1, 49316, Control_c, 0, 67, 33
1, 49330, Control_c, 0, 67, 35
1, 49432, Note_off_c, 0, 71, 57
1, 49493, Control_c, 0, 64, 105
1, 49494, Note_on_c, 0, 71, 57
1, 49508, Control_c, 0, 64, 79
1, 49524, Control_c, 0, 64, 62
1, 49524, Note_on_c, 0, 45, 44
1, 49539, Control_c, 0, 64, 45
1, 49539, Control_c, 0, 67, 35
1, 49553, Control_c, 0, 67, 36
1, 49568, Control_c, 0, 64, 56
1, 49568, Control_c, 0, 67, 36
1, 49583, Control_c, 0, 64, 63
1, 49583, Control_c, 0, 67, 37
1, 49598, Control_c, 0, 64, 68
1, 49598, Control_c, 0, 67, 38
1, 49599, Note_off_c, 0, 71, 64
1, 49613, Control_c, 0, 64, 75
1, 49613, Control_c, 0, 67, 44
1, 49627, Control_c, 0, 64, 85
1, 49627, Control_c, 0, 67, 49
1, 49642, Control_c, 0, 64, 94
1, 49642, Control_c, 0, 67, 52
1, 49657, Control_c, 0, 64, 98
1, 49657, Control_c, 0, 67, 54
1, 49669, Note_on_c, 0, 71, 57
1, 49671, Control_c, 0, 64, 102
1, 49671, Control_c, 0, 67, 54
1, 49686, Control_c, 0, 64, 110
1, 49686, Control_c, 0, 67, 54
1, 49709, Control_c, 0, 64, 120
1, 49709, Control_c, 0, 67, 53
1, 49714, Note_off_c, 0, 71, 60
1, 49724, Control_c, 0, 64, 127
1, 49736, Note_off_c, 0, 45, 64
1, 49768, Control_c, 0, 67, 53
1, 49776, Note_on_c, 0, 71, 69
1, 49783, Control_c, 0, 67, 52
1, 49797, Control_c, 0, 67, 52
1, 49804, Note_off_c, 0, 71, 64
1, 49812, Control_c, 0, 67, 51
1, 49827, Control_c, 0, 67, 50
1, 49842, Control_c, 0, 67, 49
1, 49857, Control_c, 0, 67, 48
1, 49861, Note_on_c, 0, 71, 70
1, 49871, Control_c, 0, 67, 48
1, 49901, Control_c, 0, 67, 47
1, 49916, Control_c, 0, 67, 47
1, 49921, Note_off_c, 0, 71, 60
1, 49931, Control_c, 0, 67, 46
1, 49940, Note_on_c, 0, 72, 65
1, 49945, Control_c, 0, 67, 45
1, 49960, Control_c, 0, 67, 44
1, 49975, Control_c, 0, 67, 43
1, 49990, Control_c, 0, 67, 43
1, 50004, Control_c, 0, 67, 42
1, 50005, Note_off_c, 0, 72, 62
1, 50016, Note_on_c, 0, 71, 67
1, 50019, Control_c, 0, 67, 42
1, 50034, Control_c, 0, 67, 41
1, 50049, Control_c, 0, 67, 41
1, 50064, Control_c, 0, 67, 40
1, 50094, Control_c, 0, 67, 40
1, 50100, Note_off_c, 0, 71, 61
1, 50108, Control_c, 0, 64, 101
1, 50108, Control_c, 0, 67, 37
1, 50114, Note_on_c, 0, 69, 63
1, 50123, Control_c, 0, 64, 83
1, 50123, Control_c, 0, 67, 34
1, 50129, Note_on_c, 0, 62, 42
1, 50132, Note_on_c, 0, 57, 40
1, 50136, Note_on_c, 0, 65, 41
1, 50138, Control_c, 0, 64, 68
1, 50138, Control_c, 0, 67, 33
1, 50153, Control_c, 0, 64, 54
1, 50153, Control_c, 0, 67, 32
1, 50168, Control_c, 0, 64, 40
1, 50168, Control_c, 0, 67, 32
1, 50183, Control_c, 0, 64, 45
1, 50183, Control_c, 0, 67, 31
1, 50197, Control_c, 0, 64, 57
1, 50197, Control_c, 0, 67, 30
1, 50212, Control_c, 0, 64, 63
1, 50212, Control_c, 0, 67, 28
1, 50227, Control_c, 0, 64, 67
1, 50227, Control_c, 0, 67, 26
1, 50242, Control_c, 0, 64, 71
1, 50242, Control_c, 0, 67, 25
1, 50246, Note_on_c, 0, 71, 64
1, 50257, Control_c, 0, 64, 77
1, 50271, Control_c, 0, 64, 82
1, 50285, Note_off_c, 0, 69, 57
1, 50286, Control_c, 0, 64, 85
1, 50301, Control_c, 0, 64, 87
1, 50301, Control_c, 0, 67, 24
1, 50317, Control_c, 0, 64, 88
1, 50332, Control_c, 0, 64, 89
1, 50347, Control_c, 0, 64, 90
1, 50362, Control_c, 0, 64, 90
1, 50364, Note_on_c, 0, 72, 71
1, 50368, Note_off_c, 0, 65, 47
1, 50392, Control_c, 0, 64, 91
1, 50392, Note_off_c, 0, 57, 40
1, 50399, Note_off_c, 0, 62, 42
1, 50432, Note_off_c, 0, 71, 59
1, 50532, Control_c, 0, 64, 90
1, 50545, Note_on_c, 0, 76, 59
1, 50547, Control_c, 0, 64, 87
1, 50562, Control_c, 0, 64, 83
1, 50563, Note_on_c, 0, 62, 32
1, 50568, Note_on_c, 0, 57, 34
1, 50571, Note_on_c, 0, 65, 39
1, 50576, Control_c, 0, 64, 76
1, 50591, Control_c, 0, 64, 66
1, 50597, Note_off_c, 0, 72, 31
1, 50606, Control_c, 0, 64, 55
1, 50621, Control_c, 0, 64, 36
1, 50636, Control_c, 0, 64, 17
1, 50651, Control_c, 0, 64, 26
1, 50651, Control_c, 0, 67, 25
1, 50666, Control_c, 0, 64, 45
1, 50681, Control_c, 0, 64, 58
1, 50695, Control_c, 0, 64, 65
1, 50710, Control_c, 0, 64, 69
1, 50725, Control_c, 0, 64, 75
1, 50740, Control_c, 0, 64, 80
1, 50755, Control_c, 0, 64, 83
1, 50769, Control_c, 0, 64, 84
1, 50784, Control_c, 0, 64, 86
1, 50799, Control_c, 0, 64, 87
1, 50814, Control_c, 0, 64, 89
1, 50828, Control_c, 0, 64, 90
1, 50828, Control_c, 0, 67, 25
1, 50843, Control_c, 0, 64, 90
1, 50851, Note_on_c, 0, 74, 57
1, 50861, Note_off_c, 0, 65, 43
1, 50873, Control_c, 0, 64, 91
1, 50879, Note_off_c, 0, 57, 38
1, 50888, Control_c, 0, 67, 26
1, 50902, Control_c, 0, 64, 91
1, 50947, Control_c, 0, 67, 26
1, 50954, Note_on_c, 0, 69, 63
1, 50991, Control_c, 0, 67, 27
1, 51050, Control_c, 0, 67, 26
1, 51064, Note_off_c, 0, 76, 56
1, 51075, Note_off_c, 0, 62, 47
1, 51083, Note_off_c, 0, 69, 62
1, 51094, Note_off_c, 0, 74, 62
1, 51146, Note_on_c, 0, 57, 44
1, 51148, Note_on_c, 0, 65, 44
1, 51149, Note_on_c, 0, 60, 44
1, 51170, Control_c, 0, 67, 26
1, 51185, Control_c, 0, 64, 91
1, 51207, Control_c, 0, 64, 89
1, 51222, Control_c, 0, 64, 87
1, 51237, Control_c, 0, 64, 83
1, 51239, Note_on_c, 0, 69, 65
1, 51251, Control_c, 0, 64, 79
1, 51266, Control_c, 0, 64, 72
1, 51281, Control_c, 0, 64, 64
1, 51296, Control_c, 0, 64, 48
1, 51311, Control_c, 0, 64, 8
1, 51325, Control_c, 0, 64, 0
1, 51349, Note_on_c, 0, 72, 64
1, 51370, Control_c, 0, 64, 34
1, 51375, Note_off_c, 0, 69, 65
1, 51385, Control_c, 0, 64, 55
1, 51399, Control_c, 0, 64, 65
1, 51399, Control_c, 0, 67, 25
1, 51414, Control_c, 0, 64, 68
1, 51414, Control_c, 0, 67, 25
1, 51429, Control_c, 0, 64, 73
1, 51444, Control_c, 0, 64, 78
1, 51444, Control_c, 0, 67, 24
1, 51459, Control_c, 0, 64, 83
1, 51474, Control_c, 0, 64, 86
1, 51474, Control_c, 0, 67, 24
1, 51480, Note_off_c, 0, 65, 49
1, 51489, Control_c, 0, 64, 88
1, 51498, Note_off_c, 0, 57, 41
1, 51502, Note_off_c, 0, 60, 49
1, 51504, Control_c, 0, 64, 90
1, 51518, Control_c, 0, 64, 92
1, 51533, Control_c, 0, 64, 94
1, 51548, Control_c, 0, 64, 94
1, 51563, Control_c, 0, 64, 95
1, 51577, Control_c, 0, 64, 96
1, 51607, Control_c, 0, 64, 96
1, 51639, Note_on_c, 0, 65, 51
1, 51642, Note_on_c, 0, 60, 51
1, 51644, Note_on_c, 0, 57, 41
1, 51651, Control_c, 0, 64, 97
1, 51653, Note_off_c, 0, 72, 57
1, 51666, Control_c, 0, 64, 97
1, 51681, Control_c, 0, 64, 98
1, 51755, Note_off_c, 0, 57, 56
1, 51766, Note_off_c, 0, 60, 62
1, 51770, Note_off_c, 0, 65, 60
1, 51784, Control_c, 0, 67, 24
1, 51968, Note_on_c, 0, 71, 65
1, 51986, Control_c, 0, 64, 96
1, 51986, Control_c, 0, 67, 25
1, 52001, Control_c, 0, 64, 87
1, 52004, Note_on_c, 0, 65, 40
1, 52004, Note_on_c, 0, 56, 43
1, 52015, Note_on_c, 0, 60, 39
1, 52016, Control_c, 0, 64, 75
1, 52030, Control_c, 0, 64, 63
1, 52045, Control_c, 0, 64, 48
1, 52045, Control_c, 0, 67, 25
1, 52060, Control_c, 0, 64, 46
1, 52074, Control_c, 0, 64, 57
1, 52089, Control_c, 0, 64, 64
1, 52104, Control_c, 0, 64, 69
1, 52119, Control_c, 0, 64, 74
1, 52134, Control_c, 0, 64, 79
1, 52148, Control_c, 0, 64, 82
1, 52163, Control_c, 0, 64, 83
1, 52171, Note_on_c, 0, 72, 74
1, 52178, Control_c, 0, 64, 84
1, 52192, Control_c, 0, 64, 85
1, 52196, Note_off_c, 0, 71, 63
1, 52207, Control_c, 0, 64, 85
1, 52222, Control_c, 0, 64, 86
1, 52237, Control_c, 0, 64, 86
1, 52252, Control_c, 0, 64, 87
1, 52254, Note_off_c, 0, 65, 53
1, 52270, Note_off_c, 0, 60, 38
1, 52276, Note_off_c, 0, 56, 60
1, 52311, Control_c, 0, 67, 25
1, 52353, Note_on_c, 0, 74, 71
1, 52356, Control_c, 0, 64, 86
1, 52371, Control_c, 0, 64, 84
1, 52385, Note_off_c, 0, 72, 60
1, 52386, Control_c, 0, 64, 80
1, 52391, Note_on_c, 0, 55, 41
1, 52392, Note_on_c, 0, 60, 48
1, 52392, Note_on_c, 0, 65, 50
1, 52400, Control_c, 0, 64, 72
1, 52415, Control_c, 0, 64, 62
1, 52430, Control_c, 0, 64, 43
1, 52445, Control_c, 0, 64, 0
1, 52489, Control_c, 0, 64, 35
1, 52490, Note_off_c, 0, 74, 64
1, 52499, Note_on_c, 0, 76, 74
1, 52504, Control_c, 0, 64, 55
1, 52519, Control_c, 0, 64, 63
1, 52519, Control_c, 0, 67, 25
1, 52534, Control_c, 0, 64, 65
1, 52534, Control_c, 0, 67, 27
1, 52548, Control_c, 0, 64, 66
1, 52548, Control_c, 0, 67, 27
1, 52563, Control_c, 0, 64, 67
1, 52563, Control_c, 0, 67, 28
1, 52578, Control_c, 0, 64, 68
1, 52578, Control_c, 0, 67, 29
1, 52592, Note_on_c, 0, 74, 71
1, 52592, Control_c, 0, 64, 69
1, 52592, Control_c, 0, 67, 30
1, 52603, Note_off_c, 0, 76, 55
1, 52607, Control_c, 0, 64, 70
1, 52607, Control_c, 0, 67, 31
1, 52622, Control_c, 0, 67, 32
1, 52637, Control_c, 0, 67, 33
1, 52652, Control_c, 0, 67, 33
1, 52656, Note_off_c, 0, 55, 40
1, 52666, Control_c, 0, 67, 34
1, 52672, Note_off_c, 0, 74, 62
1, 52674, Note_on_c, 0, 73, 72
1, 52681, Control_c, 0, 67, 35
1, 52698, Note_off_c, 0, 65, 40
1, 52704, Control_c, 0, 64, 70
1, 52735, Control_c, 0, 67, 36
1, 52745, Note_off_c, 0, 73, 64
1, 52750, Control_c, 0, 67, 36
1, 52764, Control_c, 0, 67, 37
1, 52767, Note_on_c, 0, 74, 75
1, 52779, Control_c, 0, 67, 37
1, 52815, Note_off_c, 0, 60, 49
1, 52823, Control_c, 0, 67, 38
1, 52838, Control_c, 0, 64, 70
1, 52838, Control_c, 0, 67, 38
1, 52897, Control_c, 0, 64, 69
1, 52898, Note_on_c, 0, 83, 75
1, 52912, Control_c, 0, 64, 68
1, 52912, Control_c, 0, 67, 39
1, 52927, Control_c, 0, 64, 67
1, 52927, Control_c, 0, 67, 41
1, 52937, Note_off_c, 0, 74, 56
1, 52938, Note_on_c, 0, 55, 33
1, 52941, Note_on_c, 0, 59, 38
1, 52942, Control_c, 0, 64, 64
1, 52942, Control_c, 0, 67, 43
1, 52953, Note_on_c, 0, 65, 21
1, 52957, Control_c, 0, 64, 59
1, 52957, Control_c, 0, 67, 45
1, 52971, Control_c, 0, 64, 50
1, 52971, Control_c, 0, 67, 48
1, 52986, Control_c, 0, 64, 30
1, 52986, Control_c, 0, 67, 50
1, 53001, Control_c, 0, 64, 0
1, 53001, Control_c, 0, 67, 52
1, 53015, Control_c, 0, 67, 53
1, 53030, Control_c, 0, 67, 54
1, 53045, Control_c, 0, 67, 55
1, 53060, Control_c, 0, 64, 32
1, 53060, Control_c, 0, 67, 55
1, 53070, Note_on_c, 0, 77, 61
1, 53075, Control_c, 0, 64, 50
1, 53089, Control_c, 0, 64, 60
1, 53104, Control_c, 0, 64, 63
1, 53113, Note_off_c, 0, 83, 63
1, 53119, Control_c, 0, 64, 64
1, 53134, Control_c, 0, 64, 66
1, 53134, Control_c, 0, 67, 55
1, 53149, Control_c, 0, 64, 67
1, 53161, Note_off_c, 0, 77, 64
1, 53164, Control_c, 0, 64, 67
1, 53171, Note_on_c, 0, 81, 68
1, 53179, Control_c, 0, 64, 68
1, 53179, Control_c, 0, 67, 54
1, 53194, Control_c, 0, 64, 68
1, 53238, Note_off_c, 0, 81, 63
1, 53238, Control_c, 0, 64, 69
1, 53238, Control_c, 0, 67, 55
1, 53257, Note_on_c, 0, 76, 64
1, 53307, Note_off_c, 0, 76, 50
1, 53330, Note_off_c, 0, 55, 27
1, 53340, Note_on_c, 0, 79, 65
1, 53343, Note_off_c, 0, 65, 39
1, 53353, Note_off_c, 0, 59, 55
1, 53400, Control_c, 0, 67, 54
1, 53414, Control_c, 0, 67, 54
1, 53427, Note_on_c, 0, 74, 54
1, 53452, Note_off_c, 0, 79, 58
1, 53452, Control_c, 0, 67, 53
1, 53482, Control_c, 0, 64, 68
1, 53489, Note_on_c, 0, 59, 42
1, 53489, Note_on_c, 0, 65, 33
1, 53495, Note_on_c, 0, 55, 29
1, 53496, Control_c, 0, 64, 65
1, 53511, Control_c, 0, 64, 58
1, 53518, Note_off_c, 0, 74, 63
1, 53527, Control_c, 0, 64, 44
1, 53538, Note_on_c, 0, 77, 58
1, 53542, Control_c, 0, 64, 16
1, 53542, Control_c, 0, 67, 53
1, 53557, Control_c, 0, 64, 0
1, 53557, Control_c, 0, 67, 52
1, 53572, Control_c, 0, 64, 25
1, 53572, Control_c, 0, 67, 52
1, 53587, Control_c, 0, 64, 46
1, 53601, Control_c, 0, 64, 57
1, 53601, Control_c, 0, 67, 51
1, 53616, Control_c, 0, 64, 63
1, 53616, Control_c, 0, 67, 51
1, 53626, Note_off_c, 0, 77, 63
1, 53631, Control_c, 0, 64, 64
1, 53645, Control_c, 0, 64, 65
1, 53645, Control_c, 0, 67, 50
1, 53653, Note_on_c, 0, 69, 54
1, 53660, Control_c, 0, 64, 67
1, 53675, Control_c, 0, 64, 68
1, 53675, Control_c, 0, 67, 50
1, 53690, Control_c, 0, 64, 68
1, 53705, Control_c, 0, 67, 49
1, 53734, Control_c, 0, 64, 69
1, 53734, Control_c, 0, 67, 49
1, 53748, Note_off_c, 0, 69, 59
1, 53762, Note_on_c, 0, 67, 54
1, 53860, Note_off_c, 0, 65, 38
1, 53861, Note_off_c, 0, 67, 58
1, 53866, Note_on_c, 0, 74, 57
1, 53872, Note_off_c, 0, 55, 39
1, 53923, Note_off_c, 0, 59, 41
1, 53957, Note_off_c, 0, 74, 66
1, 54104, Note_on_c, 0, 76, 50
1, 54164, Control_c, 0, 64, 68
1, 54168, Note_on_c, 0, 59, 11
1, 54179, Control_c, 0, 64, 68
1, 54182, Note_on_c, 0, 55, 9
1, 54201, Control_c, 0, 64, 67
1, 54203, Note_on_c, 0, 64, 3
1, 54216, Control_c, 0, 64, 66
1, 54231, Control_c, 0, 64, 65
1, 54246, Control_c, 0, 64, 61
1, 54261, Control_c, 0, 64, 54
1, 54276, Control_c, 0, 64, 43
1, 54291, Control_c, 0, 64, 25
1, 54306, Control_c, 0, 64, 0
1, 54350, Control_c, 0, 67, 49
1, 54455, Control_c, 0, 67, 49
1, 54484, Control_c, 0, 64, 25
1, 54484, Control_c, 0, 67, 48
1, 54499, Control_c, 0, 64, 47
1, 54514, Control_c, 0, 64, 58
1, 54514, Control_c, 0, 67, 48
1, 54529, Control_c, 0, 64, 63
1, 54543, Control_c, 0, 64, 65
1, 54543, Control_c, 0, 67, 47
1, 54558, Control_c, 0, 64, 68
1, 54573, Control_c, 0, 64, 71
1, 54588, Control_c, 0, 64, 74
1, 54588, Control_c, 0, 67, 47
1, 54590, Note_off_c, 0, 55, 41
1, 54593, Note_off_c, 0, 64, 41
1, 54602, Control_c, 0, 64, 77
1, 54612, Note_off_c, 0, 59, 43
1, 54617, Control_c, 0, 64, 79
1, 54617, Control_c, 0, 67, 46
1, 54632, Control_c, 0, 64, 81
1, 54647, Control_c, 0, 64, 84
1, 54661, Control_c, 0, 64, 86
1, 54676, Control_c, 0, 64, 88
1, 54676, Control_c, 0, 67, 46
1, 54691, Control_c, 0, 64, 90
1, 54706, Control_c, 0, 64, 92
1, 54706, Control_c, 0, 67, 45
1, 54721, Control_c, 0, 64, 94
1, 54736, Control_c, 0, 64, 96
1, 54750, Control_c, 0, 64, 97
1, 54750, Control_c, 0, 67, 45
1, 54758, Note_on_c, 0, 59, 24
1, 54765, Control_c, 0, 64, 97
1, 54774, Note_on_c, 0, 64, 30
1, 54780, Note_on_c, 0, 55, 29
1, 54780, Control_c, 0, 64, 98
1, 54794, Control_c, 0, 67, 44
1, 54809, Control_c, 0, 64, 98
1, 54809, Control_c, 0, 67, 44
1, 54839, Control_c, 0, 64, 99
1, 54854, Control_c, 0, 67, 43
1, 54869, Control_c, 0, 67, 43
1, 54899, Control_c, 0, 64, 99
1, 54899, Control_c, 0, 67, 42
1, 54914, Control_c, 0, 67, 42
1, 54929, Control_c, 0, 67, 41
1, 54950, Control_c, 0, 67, 41
1, 54965, Control_c, 0, 67, 40
1, 54980, Control_c, 0, 67, 40
1, 54994, Control_c, 0, 64, 100
1, 54994, Control_c, 0, 67, 36
1, 55009, Control_c, 0, 67, 33
1, 55024, Control_c, 0, 64, 100
1, 55024, Control_c, 0, 67, 30
1, 55029, Note_off_c, 0, 55, 41
1, 55039, Note_off_c, 0, 64, 43
1, 55039, Control_c, 0, 64, 101
1, 55039, Control_c, 0, 67, 28
1, 55040, Note_off_c, 0, 59, 54
1, 55054, Control_c, 0, 64, 101
1, 55054, Control_c, 0, 67, 25
1, 55069, Control_c, 0, 64, 102
1, 55069, Control_c, 0, 67, 24
1, 55084, Control_c, 0, 64, 103
1, 55114, Control_c, 0, 64, 103
1, 55114, Control_c, 0, 67, 23
1, 55129, Control_c, 0, 64, 104
1, 55144, Control_c, 0, 64, 104
1, 55159, Control_c, 0, 64, 105
1, 55159, Control_c, 0, 67, 23
1, 55177, Note_on_c, 0, 59, 40
1, 55184, Note_on_c, 0, 64, 40
1, 55203, Note_on_c, 0, 55, 24
1, 55203, Control_c, 0, 67, 22
1, 55218, Control_c, 0, 67, 22
1, 55233, Control_c, 0, 67, 19
1, 55248, Control_c, 0, 67, 14
1, 55262, Control_c, 0, 67, 9
1, 55277, Control_c, 0, 67, 0
1, 55330, Note_off_c, 0, 55, 54
1, 55352, Note_off_c, 0, 59, 57
1, 55352, Note_off_c, 0, 64, 57
1, 55559, Control_c, 0, 64, 104
1, 55566, Note_on_c, 0, 64, 37
1, 55573, Control_c, 0, 64, 99
1, 55574, Note_on_c, 0, 58, 41
1, 55584, Note_on_c, 0, 54, 31
1, 55588, Control_c, 0, 64, 91
1, 55603, Control_c, 0, 64, 79
1, 55617, Control_c, 0, 64, 65
1, 55632, Control_c, 0, 64, 49
1, 55647, Control_c, 0, 64, 23
1, 55662, Control_c, 0, 64, 20
1, 55677, Control_c, 0, 64, 39
1, 55699, Control_c, 0, 64, 55
1, 55714, Control_c, 0, 64, 63
1, 55729, Control_c, 0, 64, 68
1, 55744, Control_c, 0, 64, 73
1, 55759, Control_c, 0, 64, 77
1, 55773, Control_c, 0, 64, 84
1, 55788, Control_c, 0, 64, 86
1, 55803, Control_c, 0, 64, 88
1, 55817, Control_c, 0, 64, 90
1, 55829, Note_off_c, 0, 54, 40
1, 55829, Note_off_c, 0, 64, 50
1, 55832, Control_c, 0, 64, 93
1, 55837, Note_off_c, 0, 58, 51
1, 55847, Control_c, 0, 64, 95
1, 55862, Control_c, 0, 64, 96
1, 55937, Control_c, 0, 64, 96
1, 56011, Control_c, 0, 64, 97
1, 56046, Note_on_c, 0, 58, 10
1, 56063, Note_on_c, 0, 54, 31
1, 56068, Note_on_c, 0, 63, 35
1, 56160, Control_c, 0, 64, 96
1, 56191, Note_on_c, 0, 78, 53
1, 56225, Note_off_c, 0, 76, 33
1, 56248, Control_c, 0, 64, 96
1, 56263, Control_c, 0, 64, 95
1, 56278, Control_c, 0, 64, 93
1, 56293, Control_c, 0, 64, 91
1, 56307, Control_c, 0, 64, 87
1, 56322, Control_c, 0, 64, 77
1, 56337, Control_c, 0, 64, 66
1, 56352, Control_c, 0, 64, 53
1, 56355, Note_on_c, 0, 75, 52
1, 56367, Control_c, 0, 64, 27
1, 56369, Note_off_c, 0, 78, 55
1, 56381, Control_c, 0, 64, 0
1, 56426, Control_c, 0, 64, 40
1, 56448, Control_c, 0, 64, 59
1, 56463, Control_c, 0, 64, 67
1, 56478, Control_c, 0, 64, 71
1, 56493, Control_c, 0, 64, 77
1, 56508, Control_c, 0, 64, 82
1, 56522, Control_c, 0, 64, 86
1, 56537, Control_c, 0, 64, 90
1, 56552, Control_c, 0, 64, 92
1, 56566, Control_c, 0, 64, 94
1, 56581, Control_c, 0, 64, 94
1, 56581, Control_c, 0, 67, 9
1, 56596, Control_c, 0, 67, 11
1, 56598, Note_off_c, 0, 63, 43
1, 56601, Note_off_c, 0, 54, 38
1, 56611, Control_c, 0, 67, 12
1, 56626, Control_c, 0, 67, 15
1, 56634, Note_off_c, 0, 58, 40
1, 56640, Control_c, 0, 67, 16
1, 56655, Control_c, 0, 67, 18
1, 56670, Control_c, 0, 67, 24
1, 56685, Control_c, 0, 67, 32
1, 56700, Control_c, 0, 67, 41
1, 56716, Control_c, 0, 67, 50
1, 56731, Control_c, 0, 67, 56
1, 56745, Control_c, 0, 67, 61
1, 56760, Control_c, 0, 67, 63
1, 56775, Control_c, 0, 67, 65
1, 56790, Control_c, 0, 67, 66
1, 56795, Note_off_c, 0, 75, 47
1, 56805, Control_c, 0, 67, 67
1, 56819, Control_c, 0, 67, 66
1, 56830, Note_on_c, 0, 54, 33
1, 56832, Note_on_c, 0, 58, 22
1, 56836, Note_on_c, 0, 63, 41
1, 56982, Control_c, 0, 67, 66
1, 57044, Note_off_c, 0, 54, 40
1, 57060, Note_off_c, 0, 63, 43
1, 57071, Note_off_c, 0, 58, 41
1, 57071, Control_c, 0, 67, 65
1, 57115, Control_c, 0, 67, 65
1, 57144, Control_c, 0, 67, 64
1, 57174, Control_c, 0, 67, 64
1, 57211, Control_c, 0, 67, 63
1, 57241, Control_c, 0, 64, 94
1, 57256, Control_c, 0, 64, 93
1, 57256, Control_c, 0, 67, 63
1, 57257, Note_on_c, 0, 63, 30
1, 57272, Note_on_c, 0, 53, 30
1, 57282, Note_on_c, 0, 57, 37
1, 57285, Control_c, 0, 64, 93
1, 57300, Control_c, 0, 64, 92
1, 57315, Control_c, 0, 64, 91
1, 57330, Control_c, 0, 64, 89
1, 57344, Control_c, 0, 64, 87
1, 57359, Control_c, 0, 64, 82
1, 57374, Note_on_c, 0, 76, 54
1, 57374, Control_c, 0, 64, 76
1, 57388, Control_c, 0, 64, 69
1, 57403, Control_c, 0, 64, 62
1, 57418, Control_c, 0, 64, 50
1, 57433, Control_c, 0, 64, 25
1, 57448, Control_c, 0, 64, 10
1, 57462, Control_c, 0, 64, 21
1, 57477, Control_c, 0, 64, 38
1, 57477, Control_c, 0, 67, 62
1, 57492, Control_c, 0, 64, 51
1, 57507, Control_c, 0, 64, 59
1, 57507, Control_c, 0, 67, 62
1, 57523, Control_c, 0, 64, 63
1, 57538, Control_c, 0, 64, 65
1, 57553, Control_c, 0, 64, 66
1, 57553, Control_c, 0, 67, 61
1, 57567, Control_c, 0, 64, 68
1, 57570, Note_off_c, 0, 76, 57
1, 57573, Note_on_c, 0, 77, 49
1, 57582, Control_c, 0, 64, 70
1, 57597, Control_c, 0, 64, 71
1, 57597, Control_c, 0, 67, 61
1, 57611, Control_c, 0, 64, 72
1, 57626, Control_c, 0, 64, 73
1, 57641, Control_c, 0, 64, 73
1, 57653, Note_off_c, 0, 77, 63
1, 57668, Note_on_c, 0, 80, 57
1, 57671, Control_c, 0, 64, 74
1, 57677, Note_off_c, 0, 63, 42
1, 57691, Note_off_c, 0, 53, 34
1, 57701, Control_c, 0, 67, 60
1, 57746, Note_on_c, 0, 79, 59
1, 57756, Note_off_c, 0, 57, 36
1, 57775, Control_c, 0, 67, 60
1, 57804, Note_on_c, 0, 78, 60
1, 57817, Note_off_c, 0, 79, 58
1, 57819, Control_c, 0, 67, 59
1, 57832, Note_off_c, 0, 80, 31
1, 57864, Note_on_c, 0, 77, 60
1, 57865, Note_off_c, 0, 78, 63
1, 57878, Control_c, 0, 67, 59
1, 57950, Note_off_c, 0, 77, 61
1, 57960, Control_c, 0, 64, 73
1, 57963, Note_on_c, 0, 74, 57
1, 57975, Control_c, 0, 64, 72
1, 57990, Control_c, 0, 64, 68
1, 57995, Note_on_c, 0, 62, 34
1, 57998, Note_on_c, 0, 57, 36
1, 58004, Note_on_c, 0, 53, 35
1, 58005, Control_c, 0, 64, 62
1, 58019, Control_c, 0, 64, 49
1, 58034, Control_c, 0, 64, 0
1, 58049, Control_c, 0, 67, 58
1, 58064, Control_c, 0, 64, 33
1, 58064, Control_c, 0, 67, 58
1, 58079, Control_c, 0, 64, 55
1, 58079, Control_c, 0, 67, 57
1, 58093, Control_c, 0, 64, 64
1, 58093, Control_c, 0, 67, 55
1, 58108, Control_c, 0, 64, 69
1, 58108, Control_c, 0, 67, 54
1, 58123, Control_c, 0, 64, 75
1, 58123, Control_c, 0, 67, 54
1, 58138, Control_c, 0, 64, 82
1, 58138, Control_c, 0, 67, 53
1, 58153, Control_c, 0, 64, 89
1, 58153, Control_c, 0, 67, 51
1, 58167, Control_c, 0, 64, 94
1, 58167, Control_c, 0, 67, 48
1, 58179, Note_off_c, 0, 74, 65
1, 58182, Control_c, 0, 64, 99
1, 58182, Control_c, 0, 67, 41
1, 58197, Control_c, 0, 64, 105
1, 58197, Control_c, 0, 67, 35
1, 58211, Control_c, 0, 64, 112
1, 58211, Control_c, 0, 67, 32
1, 58226, Control_c, 0, 64, 127
1, 58226, Control_c, 0, 67, 30
1, 58245, Note_off_c, 0, 62, 42
1, 58246, Note_off_c, 0, 53, 44
1, 58273, Note_off_c, 0, 57, 39
1, 58285, Control_c, 0, 67, 30
1, 58361, Control_c, 0, 67, 29
1, 58416, Note_on_c, 0, 57, 32
1, 58420, Control_c, 0, 67, 28
1, 58431, Note_on_c, 0, 62, 43
1, 58434, Note_on_c, 0, 53, 40
1, 58434, Control_c, 0, 67, 26
1, 58449, Control_c, 0, 67, 20
1, 58464, Control_c, 0, 67, 16
1, 58479, Control_c, 0, 67, 13
1, 58493, Note_off_c, 0, 62, 63
1, 58494, Control_c, 0, 67, 12
1, 58531, Note_off_c, 0, 57, 55
1, 58541, Note_off_c, 0, 53, 59
1, 58565, Note_on_c, 0, 80, 73
1, 58749, Note_on_c, 0, 84, 78
1, 58768, Control_c, 0, 64, 102
1, 58783, Control_c, 0, 64, 79
1, 58783, Control_c, 0, 67, 13
1, 58789, Note_on_c, 0, 40, 50
1, 58796, Note_on_c, 0, 52, 46
1, 58798, Control_c, 0, 64, 62
1, 58798, Control_c, 0, 67, 14
1, 58813, Note_off_c, 0, 80, 60
1, 58813, Control_c, 0, 64, 32
1, 58813, Control_c, 0, 67, 15
1, 58828, Control_c, 0, 64, 0
1, 58828, Control_c, 0, 67, 16
1, 58842, Control_c, 0, 64, 43
1, 58842, Control_c, 0, 67, 17
1, 58857, Control_c, 0, 64, 61
1, 58857, Control_c, 0, 67, 19
1, 58872, Control_c, 0, 64, 69
1, 58872, Control_c, 0, 67, 22
1, 58887, Control_c, 0, 64, 78
1, 58887, Control_c, 0, 67, 25
1, 58902, Control_c, 0, 64, 86
1, 58902, Control_c, 0, 67, 28
1, 58906, Note_off_c, 0, 40, 62
1, 58916, Control_c, 0, 64, 88
1, 58916, Control_c, 0, 67, 37
1, 58931, Control_c, 0, 64, 89
1, 58931, Control_c, 0, 67, 48
1, 58936, Note_off_c, 0, 52, 61
1, 58946, Control_c, 0, 67, 60
1, 58960, Control_c, 0, 67, 70
1, 58975, Control_c, 0, 67, 78
1, 58990, Control_c, 0, 67, 84
1, 59005, Control_c, 0, 67, 89
1, 59020, Control_c, 0, 67, 93
1, 59034, Control_c, 0, 67, 95
1, 59049, Control_c, 0, 67, 96
1, 59061, Note_off_c, 0, 84, 57
1, 59064, Control_c, 0, 67, 97
1, 59139, Control_c, 0, 67, 98
1, 59144, Note_on_c, 0, 83, 64
1, 59187, Note_off_c, 0, 83, 63
1, 59210, Note_on_c, 0, 84, 63
1, 59213, Control_c, 0, 67, 98
1, 59243, Control_c, 0, 67, 100
1, 59251, Note_off_c, 0, 84, 63
1, 59257, Control_c, 0, 67, 100
1, 59265, Note_on_c, 0, 83, 67
1, 59272, Control_c, 0, 64, 88
1, 59272, Control_c, 0, 67, 101
1, 59287, Control_c, 0, 64, 85
1, 59287, Control_c, 0, 67, 103
1, 59302, Control_c, 0, 64, 75
1, 59302, Control_c, 0, 67, 104
1, 59317, Control_c, 0, 64, 63
1, 59317, Control_c, 0, 67, 104
1, 59325, Note_off_c, 0, 83, 64
1, 59328, Note_on_c, 0, 80, 64
1, 59329, Note_on_c, 0, 52, 36
1, 59331, Control_c, 0, 64, 44
1, 59331, Control_c, 0, 67, 104
1, 59339, Note_on_c, 0, 62, 35
1, 59346, Note_on_c, 0, 59, 26
1, 59346, Control_c, 0, 64, 17
1, 59346, Control_c, 0, 67, 103
1, 59361, Control_c, 0, 64, 36
1, 59361, Control_c, 0, 67, 102
1, 59376, Control_c, 0, 64, 57
1, 59376, Control_c, 0, 67, 101
1, 59390, Control_c, 0, 64, 65
1, 59390, Control_c, 0, 67, 100
1, 59405, Control_c, 0, 64, 68
1, 59405, Control_c, 0, 67, 99
1, 59411, Note_off_c, 0, 80, 62
1, 59420, Control_c, 0, 64, 72
1, 59420, Control_c, 0, 67, 99
1, 59442, Control_c, 0, 64, 77
1, 59442, Control_c, 0, 67, 98
1, 59457, Control_c, 0, 64, 80
1, 59457, Control_c, 0, 67, 98
1, 59471, Control_c, 0, 64, 81
1, 59471, Control_c, 0, 67, 97
1, 59478, Note_off_c, 0, 52, 55
1, 59483, Note_off_c, 0, 62, 52
1, 59493, Note_off_c, 0, 59, 53
1, 59679, Control_c, 0, 67, 97
1, 59738, Control_c, 0, 64, 81
1, 59753, Control_c, 0, 64, 79
1, 59764, Note_on_c, 0, 68, 53
1, 59768, Control_c, 0, 64, 76
1, 59768, Control_c, 0, 67, 96
1, 59782, Control_c, 0, 64, 71
1, 59797, Control_c, 0, 64, 63
1, 59812, Control_c, 0, 64, 48
1, 59812, Control_c, 0, 67, 96
1, 59814, Note_on_c, 0, 62, 30
1, 59814, Note_on_c, 0, 59, 7
1, 59823, Note_on_c, 0, 52, 30
1, 59827, Control_c, 0, 64, 23
1, 59842, Control_c, 0, 64, 18
1, 59842, Control_c, 0, 67, 95
1, 59856, Control_c, 0, 64, 39
1, 59856, Control_c, 0, 67, 95
1, 59871, Control_c, 0, 64, 53
1, 59871, Control_c, 0, 67, 94
1, 59886, Control_c, 0, 64, 60
1, 59886, Control_c, 0, 67, 94
1, 59902, Control_c, 0, 64, 63
1, 59902, Control_c, 0, 67, 93
1, 59917, Control_c, 0, 64, 66
1, 59932, Control_c, 0, 64, 69
1, 59932, Control_c, 0, 67, 93
1, 59947, Control_c, 0, 64, 72
1, 59961, Control_c, 0, 64, 74
1, 59969, Note_off_c, 0, 59, 48
1, 59973, Note_off_c, 0, 62, 50
1, 59976, Control_c, 0, 64, 74
1, 59991, Control_c, 0, 64, 75
1, 59991, Control_c, 0, 67, 92
1, 60005, Control_c, 0, 64, 75
1, 60007, Note_off_c, 0, 52, 40
1, 60020, Control_c, 0, 64, 76
1, 60109, Control_c, 0, 67, 93
1, 60369, Control_c, 0, 64, 76
1, 60399, Control_c, 0, 64, 75
1, 60410, Note_on_c, 0, 69, 42
1, 60413, Control_c, 0, 64, 75
1, 60428, Control_c, 0, 64, 74
1, 60439, Note_on_c, 0, 45, 31
1, 60443, Control_c, 0, 64, 72
1, 60458, Control_c, 0, 64, 68
1, 60473, Control_c, 0, 64, 63
1, 60473, Control_c, 0, 67, 93
1, 60487, Control_c, 0, 64, 52
1, 60502, Control_c, 0, 64, 30
1, 60506, Note_off_c, 0, 68, 35
1, 60517, Control_c, 0, 64, 0
1, 60561, Control_c, 0, 64, 40
1, 60576, Control_c, 0, 64, 58
1, 60591, Control_c, 0, 64, 66
1, 60596, Note_off_c, 0, 45, 56
1, 60605, Control_c, 0, 64, 69
1, 60620, Control_c, 0, 64, 72
1, 60620, Control_c, 0, 67, 93
1, 60635, Control_c, 0, 64, 75
1, 60650, Control_c, 0, 64, 77
1, 60665, Control_c, 0, 64, 79
1, 60679, Control_c, 0, 64, 79
1, 60710, Control_c, 0, 64, 80
1, 60710, Control_c, 0, 67, 93
1, 60740, Control_c, 0, 67, 94
1, 60755, Control_c, 0, 67, 95
1, 60770, Control_c, 0, 67, 95
1, 60784, Control_c, 0, 67, 96
1, 60799, Control_c, 0, 67, 96
1, 60814, Control_c, 0, 67, 97
1, 60828, Control_c, 0, 67, 97
1, 60844, Control_c, 0, 67, 98
1, 60859, Control_c, 0, 67, 98
1, 60889, Control_c, 0, 67, 99
1, 60906, Note_off_c, 0, 69, 46
1, 60947, Note_on_c, 0, 52, 36
1, 60951, Note_on_c, 0, 60, 33
1, 60956, Control_c, 0, 67, 99
1, 61000, Control_c, 0, 67, 100
1, 61044, Control_c, 0, 67, 100
1, 61067, Note_off_c, 0, 52, 49
1, 61078, Note_off_c, 0, 60, 41
1, 61148, Control_c, 0, 67, 100
1, 61251, Control_c, 0, 64, 79
1, 61296, Control_c, 0, 64, 79
1, 61341, Control_c, 0, 64, 78
1, 61355, Control_c, 0, 64, 78
1, 61370, Control_c, 0, 64, 77
1, 61370, Control_c, 0, 67, 99
1, 61400, Control_c, 0, 64, 77
1, 61415, Control_c, 0, 64, 76
1, 61415, Control_c, 0, 67, 99
1, 61429, Control_c, 0, 64, 76
1, 61429, Control_c, 0, 67, 98
1, 61444, Control_c, 0, 64, 75
1, 61459, Control_c, 0, 64, 75
1, 61459, Control_c, 0, 67, 98
1, 61474, Control_c, 0, 64, 74
1, 61489, Control_c, 0, 64, 74
1, 61504, Control_c, 0, 64, 73
1, 61504, Control_c, 0, 67, 97
1, 61519, Control_c, 0, 64, 73
1, 61534, Control_c, 0, 64, 72
1, 61549, Control_c, 0, 64, 72
1, 61549, Control_c, 0, 67, 97
1, 61564, Control_c, 0, 64, 71
1, 61579, Control_c, 0, 64, 71
1, 61594, Control_c, 0, 64, 70
1, 61608, Control_c, 0, 64, 70
1, 61608, Control_c, 0, 67, 96
1, 61623, Control_c, 0, 64, 69
1, 61638, Control_c, 0, 64, 68
1, 61638, Control_c, 0, 67, 96
1, 61652, Control_c, 0, 64, 68
1, 61667, Control_c, 0, 64, 67
1, 61689, Control_c, 0, 64, 67
1, 61704, Control_c, 0, 64, 66
1, 61719, Control_c, 0, 64, 66
1, 61719, Control_c, 0, 67, 96
1, 61749, Control_c, 0, 64, 65
1, 61764, Control_c, 0, 64, 65
1, 61779, Control_c, 0, 64, 64
1, 61806, Note_on_c, 0, 64, 35
1, 61808, Control_c, 0, 64, 64
1, 61823, Control_c, 0, 64, 63
1, 61838, Control_c, 0, 64, 62
1, 61852, Control_c, 0, 64, 61
1, 61867, Control_c, 0, 64, 60
1, 61882, Control_c, 0, 64, 58
1, 61897, Control_c, 0, 64, 57
1, 61912, Control_c, 0, 64, 55
1, 61926, Control_c, 0, 64, 54
1, 61941, Control_c, 0, 64, 52
1, 61956, Control_c, 0, 64, 50
1, 61971, Control_c, 0, 64, 49
1, 61985, Control_c, 0, 64, 47
1, 62000, Control_c, 0, 64, 46
1, 62015, Control_c, 0, 64, 45
1, 62015, Control_c, 0, 67, 96
1, 62030, Control_c, 0, 64, 45
1, 62045, Control_c, 0, 64, 44
1, 62059, Control_c, 0, 64, 42
1, 62074, Control_c, 0, 64, 41
1, 62089, Control_c, 0, 64, 40
1, 62104, Control_c, 0, 64, 39
1, 62119, Control_c, 0, 64, 38
1, 62133, Control_c, 0, 64, 37
1, 62148, Control_c, 0, 64, 36
1, 62163, Control_c, 0, 64, 35
1, 62238, Control_c, 0, 67, 95
1, 62282, Control_c, 0, 64, 36
1, 62282, Control_c, 0, 67, 95
1, 62297, Control_c, 0, 64, 36
1, 62312, Control_c, 0, 64, 38
1, 62312, Control_c, 0, 67, 94
1, 62327, Control_c, 0, 64, 40
1, 62342, Control_c, 0, 64, 42
1, 62342, Control_c, 0, 67, 94
1, 62357, Control_c, 0, 64, 45
1, 62372, Control_c, 0, 64, 48
1, 62387, Control_c, 0, 64, 50
1, 62401, Control_c, 0, 64, 53
1, 62401, Control_c, 0, 67, 93
1, 62416, Control_c, 0, 64, 56
1, 62438, Control_c, 0, 64, 57
1, 62453, Control_c, 0, 64, 59
1, 62468, Control_c, 0, 64, 60
1, 62482, Control_c, 0, 64, 62
1, 62482, Control_c, 0, 67, 93
1, 62497, Control_c, 0, 64, 62
1, 62512, Control_c, 0, 64, 63
1, 62527, Control_c, 0, 64, 64
1, 62527, Control_c, 0, 67, 92
1, 62542, Control_c, 0, 64, 65
1, 62557, Control_c, 0, 64, 67
1, 62572, Control_c, 0, 64, 67
1, 62587, Control_c, 0, 64, 68
1, 62595, Note_on_c, 0, 76, 44
1, 62601, Control_c, 0, 64, 69
1, 62601, Control_c, 0, 67, 92
1, 62616, Control_c, 0, 64, 70
1, 62631, Note_on_c, 0, 47, 30
1, 62631, Control_c, 0, 64, 71
1, 62632, Note_on_c, 0, 56, 28
1, 62646, Control_c, 0, 64, 73
1, 62661, Control_c, 0, 64, 73
1, 62661, Control_c, 0, 67, 91
1, 62675, Control_c, 0, 64, 74
1, 62675, Control_c, 0, 67, 91
1, 62690, Control_c, 0, 64, 75
1, 62705, Control_c, 0, 64, 75
1, 62705, Control_c, 0, 67, 90
1, 62720, Control_c, 0, 64, 76
1, 62735, Control_c, 0, 64, 76
1, 62735, Control_c, 0, 67, 90
1, 62752, Note_off_c, 0, 64, 42
1, 62764, Control_c, 0, 64, 77
1, 62792, Note_off_c, 0, 56, 41
1, 62808, Control_c, 0, 67, 90
1, 62882, Control_c, 0, 67, 91
1, 62912, Control_c, 0, 67, 92
1, 62942, Control_c, 0, 67, 92
1, 62956, Control_c, 0, 67, 93
1, 62986, Control_c, 0, 67, 93
1, 63001, Control_c, 0, 67, 94
1, 63016, Control_c, 0, 67, 94
1, 63089, Note_off_c, 0, 76, 47
1, 63105, Control_c, 0, 67, 95
1, 63217, Control_c, 0, 64, 76
1, 63231, Control_c, 0, 64, 75
1, 63246, Control_c, 0, 64, 74
1, 63257, Note_on_c, 0, 75, 48
1, 63261, Control_c, 0, 64, 72
1, 63276, Control_c, 0, 64, 69
1, 63291, Control_c, 0, 64, 65
1, 63291, Control_c, 0, 67, 94
1, 63299, Note_on_c, 0, 40, 32
1, 63305, Control_c, 0, 64, 58
1, 63320, Control_c, 0, 64, 47
1, 63335, Control_c, 0, 64, 35
1, 63350, Control_c, 0, 64, 39
1, 63350, Control_c, 0, 67, 94
1, 63365, Control_c, 0, 64, 54
1, 63365, Control_c, 0, 67, 93
1, 63379, Control_c, 0, 64, 62
1, 63394, Control_c, 0, 64, 65
1, 63394, Control_c, 0, 67, 93
1, 63409, Control_c, 0, 64, 66
1, 63409, Control_c, 0, 67, 92
1, 63424, Control_c, 0, 64, 69
1, 63424, Control_c, 0, 67, 92
1, 63439, Control_c, 0, 64, 72
1, 63439, Control_c, 0, 67, 91
1, 63454, Control_c, 0, 64, 75
1, 63454, Control_c, 0, 67, 90
1, 63469, Control_c, 0, 64, 76
1, 63484, Control_c, 0, 64, 76
1, 63498, Note_off_c, 0, 40, 37
1, 63498, Control_c, 0, 67, 90
1, 63513, Control_c, 0, 67, 89
1, 63516, Note_off_c, 0, 75, 57
1, 63526, Note_on_c, 0, 71, 51
1, 63543, Control_c, 0, 67, 89
1, 63572, Control_c, 0, 67, 87
1, 63602, Control_c, 0, 64, 75
1, 63617, Control_c, 0, 64, 73
1, 63621, Note_off_c, 0, 71, 57
1, 63631, Control_c, 0, 64, 70
1, 63646, Control_c, 0, 64, 66
1, 63646, Control_c, 0, 67, 87
1, 63661, Control_c, 0, 64, 59
1, 63676, Control_c, 0, 64, 55
1, 63691, Control_c, 0, 64, 56
1, 63695, Note_on_c, 0, 74, 52
1, 63705, Control_c, 0, 64, 60
1, 63714, Note_on_c, 0, 40, 41
1, 63720, Control_c, 0, 64, 63
1, 63720, Control_c, 0, 67, 87
1, 63735, Control_c, 0, 64, 65
1, 63750, Control_c, 0, 64, 67
1, 63765, Control_c, 0, 64, 70
1, 63765, Control_c, 0, 67, 88
1, 63777, Note_off_c, 0, 40, 58
1, 63779, Control_c, 0, 64, 72
1, 63794, Control_c, 0, 64, 74
1, 63794, Control_c, 0, 67, 88
1, 63803, Note_off_c, 0, 47, 56
1, 63809, Control_c, 0, 64, 75
1, 63818, Note_off_c, 0, 74, 57
1, 63824, Control_c, 0, 64, 76
1, 63824, Control_c, 0, 67, 89
1, 63838, Control_c, 0, 64, 76
1, 63841, Note_on_c, 0, 71, 51
1, 63853, Control_c, 0, 67, 89
1, 63868, Control_c, 0, 64, 77
1, 63883, Control_c, 0, 64, 77
1, 63883, Control_c, 0, 67, 90
1, 63898, Control_c, 0, 64, 78
1, 63935, Control_c, 0, 64, 78
1, 63935, Control_c, 0, 67, 90
1, 63965, Control_c, 0, 67, 91
1, 63980, Control_c, 0, 64, 78
1, 63995, Control_c, 0, 64, 73
1, 64009, Control_c, 0, 64, 66
1, 64024, Control_c, 0, 64, 54
1, 64025, Note_on_c, 0, 48, 45
1, 64026, Note_on_c, 0, 74, 47
1, 64033, Note_on_c, 0, 57, 42
1, 64039, Control_c, 0, 64, 33
1, 64053, Control_c, 0, 64, 21
1, 64068, Control_c, 0, 64, 37
1, 64083, Control_c, 0, 64, 52
1, 64083, Control_c, 0, 67, 90
1, 64094, Note_off_c, 0, 57, 57
1, 64098, Control_c, 0, 64, 61
1, 64107, Note_off_c, 0, 74, 61
1, 64113, Control_c, 0, 64, 64
1, 64126, Note_on_c, 0, 76, 59
1, 64128, Control_c, 0, 64, 66
1, 64143, Control_c, 0, 64, 67
1, 64157, Control_c, 0, 64, 68
1, 64166, Note_off_c, 0, 71, 39
1, 64172, Control_c, 0, 64, 68
1, 64187, Control_c, 0, 67, 91
1, 64217, Control_c, 0, 67, 91
1, 64229, Note_on_c, 0, 74, 64
1, 64232, Control_c, 0, 67, 92
1, 64233, Note_off_c, 0, 76, 53
1, 64246, Control_c, 0, 64, 67
1, 64246, Control_c, 0, 67, 93
1, 64261, Control_c, 0, 64, 65
1, 64261, Control_c, 0, 67, 93
1, 64276, Control_c, 0, 64, 61
1, 64276, Control_c, 0, 67, 94
1, 64291, Control_c, 0, 64, 57
1, 64291, Control_c, 0, 67, 95
1, 64306, Control_c, 0, 64, 53
1, 64306, Control_c, 0, 67, 95
1, 64320, Control_c, 0, 64, 50
1, 64335, Control_c, 0, 64, 47
1, 64335, Control_c, 0, 67, 96
1, 64350, Control_c, 0, 64, 42
1, 64350, Control_c, 0, 67, 96
1, 64365, Control_c, 0, 64, 35
1, 64365, Control_c, 0, 67, 97
1, 64367, Note_on_c, 0, 72, 48
1, 64379, Control_c, 0, 64, 29
1, 64379, Control_c, 0, 67, 98
1, 64391, Note_on_c, 0, 40, 31
1, 64394, Control_c, 0, 64, 27
1, 64409, Control_c, 0, 67, 98
1, 64430, Note_off_c, 0, 74, 37
1, 64435, Note_off_c, 0, 72, 64
1, 64483, Control_c, 0, 64, 26
1, 64488, Note_off_c, 0, 40, 50
1, 64498, Control_c, 0, 67, 99
1, 64513, Control_c, 0, 67, 98
1, 64587, Control_c, 0, 64, 26
1, 64602, Control_c, 0, 67, 98
1, 64617, Control_c, 0, 64, 25
1, 64617, Control_c, 0, 67, 97
1, 64646, Control_c, 0, 64, 25
1, 64684, Control_c, 0, 67, 97
1, 64742, Note_on_c, 0, 81, 50
1, 64745, Control_c, 0, 64, 24
1, 64745, Control_c, 0, 67, 96
1, 64759, Control_c, 0, 64, 22
1, 64759, Control_c, 0, 67, 96
1, 64774, Control_c, 0, 64, 19
1, 64774, Control_c, 0, 67, 95
1, 64789, Control_c, 0, 64, 17
1, 64804, Control_c, 0, 64, 17
1, 64804, Control_c, 0, 67, 95
1, 64819, Control_c, 0, 67, 94
1, 64833, Control_c, 0, 64, 18
1, 64833, Control_c, 0, 67, 93
1, 64848, Control_c, 0, 64, 27
1, 64848, Control_c, 0, 67, 93
1, 64849, Note_on_c, 0, 69, 53
1, 64862, Note_on_c, 0, 40, 40
1, 64863, Control_c, 0, 64, 41
1, 64863, Control_c, 0, 67, 92
1, 64877, Control_c, 0, 64, 55
1, 64892, Control_c, 0, 64, 61
1, 64892, Control_c, 0, 67, 92
1, 64907, Control_c, 0, 64, 65
1, 64907, Control_c, 0, 67, 91
1, 64922, Control_c, 0, 64, 67
1, 64922, Control_c, 0, 67, 91
1, 64927, Note_off_c, 0, 40, 59
1, 64937, Control_c, 0, 64, 69
1, 64937, Control_c, 0, 67, 90
1, 64941, Note_off_c, 0, 48, 50
1, 64951, Control_c, 0, 64, 71
1, 64951, Control_c, 0, 67, 90
1, 64966, Control_c, 0, 64, 73
1, 64966, Control_c, 0, 67, 89
1, 64981, Control_c, 0, 64, 74
1, 64996, Control_c, 0, 64, 75
1, 64996, Control_c, 0, 67, 89
1, 65010, Control_c, 0, 64, 75
1, 65037, Note_off_c, 0, 69, 61
1, 65066, Note_off_c, 0, 81, 46
1, 65129, Control_c, 0, 64, 75
1, 65144, Control_c, 0, 64, 74
1, 65159, Control_c, 0, 64, 72
1, 65174, Control_c, 0, 64, 64
1, 65187, Note_on_c, 0, 76, 58
1, 65189, Control_c, 0, 64, 53
1, 65200, Note_on_c, 0, 47, 46
1, 65203, Control_c, 0, 64, 31
1, 65204, Note_on_c, 0, 56, 41
1, 65218, Control_c, 0, 64, 22
1, 65218, Control_c, 0, 67, 88
1, 65233, Control_c, 0, 64, 36
1, 65248, Control_c, 0, 64, 51
1, 65248, Control_c, 0, 67, 88
1, 65259, Note_off_c, 0, 56, 62
1, 65263, Control_c, 0, 64, 59
1, 65263, Control_c, 0, 67, 87
1, 65273, Note_off_c, 0, 76, 63
1, 65277, Control_c, 0, 64, 63
1, 65291, Note_on_c, 0, 77, 57
1, 65292, Control_c, 0, 64, 64
1, 65292, Control_c, 0, 67, 87
1, 65307, Control_c, 0, 64, 65
1, 65322, Control_c, 0, 64, 66
1, 65337, Control_c, 0, 64, 67
1, 65365, Note_on_c, 0, 76, 62
1, 65381, Control_c, 0, 67, 87
1, 65395, Control_c, 0, 64, 66
1, 65410, Control_c, 0, 64, 65
1, 65410, Control_c, 0, 67, 88
1, 65433, Control_c, 0, 64, 61
1, 65433, Control_c, 0, 67, 89
1, 65439, Note_off_c, 0, 77, 35
1, 65448, Control_c, 0, 64, 56
1, 65448, Control_c, 0, 67, 90
1, 65463, Control_c, 0, 64, 48
1, 65472, Note_on_c, 0, 75, 62
1, 65477, Control_c, 0, 64, 37
1, 65477, Control_c, 0, 67, 90
1, 65488, Note_on_c, 0, 40, 46
1, 65492, Control_c, 0, 64, 27
1, 65492, Control_c, 0, 67, 91
1, 65500, Note_off_c, 0, 76, 60
1, 65508, Control_c, 0, 64, 23
1, 65508, Control_c, 0, 67, 92
1, 65523, Control_c, 0, 67, 92
1, 65532, Note_off_c, 0, 75, 65
1, 65538, Control_c, 0, 67, 93
1, 65543, Note_off_c, 0, 40, 58
1, 65553, Control_c, 0, 67, 94
1, 65567, Control_c, 0, 67, 95
1, 65582, Control_c, 0, 67, 95
1, 65597, Control_c, 0, 67, 96
1, 65612, Control_c, 0, 64, 22
1, 65612, Control_c, 0, 67, 97
1, 65626, Control_c, 0, 64, 21
1, 65641, Control_c, 0, 64, 19
1, 65656, Control_c, 0, 64, 17
1, 65671, Control_c, 0, 64, 17
1, 65686, Control_c, 0, 64, 15
1, 65686, Control_c, 0, 67, 96
1, 65700, Control_c, 0, 64, 12
1, 65715, Control_c, 0, 64, 0
1, 65730, Control_c, 0, 67, 96
1, 65741, Note_on_c, 0, 71, 50
1, 65745, Control_c, 0, 67, 95
1, 65760, Control_c, 0, 67, 95
1, 65774, Control_c, 0, 67, 94
1, 65789, Control_c, 0, 67, 94
1, 65804, Control_c, 0, 64, 17
1, 65804, Control_c, 0, 67, 93
1, 65819, Control_c, 0, 64, 30
1, 65819, Control_c, 0, 67, 93
1, 65826, Note_on_c, 0, 74, 58
1, 65833, Control_c, 0, 64, 42
1, 65833, Control_c, 0, 67, 92
1, 65843, Note_on_c, 0, 40, 46
1, 65844, Note_off_c, 0, 71, 50
1, 65848, Control_c, 0, 64, 53
1, 65848, Control_c, 0, 67, 92
1, 65863, Control_c, 0, 64, 58
1, 65863, Control_c, 0, 67, 91
1, 65878, Control_c, 0, 64, 60
1, 65878, Control_c, 0, 67, 91
1, 65893, Control_c, 0, 64, 61
1, 65893, Control_c, 0, 67, 90
1, 65904, Note_off_c, 0, 47, 63
1, 65907, Control_c, 0, 64, 63
1, 65907, Control_c, 0, 67, 90
1, 65922, Control_c, 0, 64, 64
1, 65937, Control_c, 0, 64, 66
1, 65937, Control_c, 0, 67, 89
1, 65940, Note_off_c, 0, 40, 61
1, 65952, Control_c, 0, 64, 67
1, 65967, Control_c, 0, 64, 68
1, 65967, Control_c, 0, 67, 88
1, 65982, Control_c, 0, 64, 69
1, 65997, Control_c, 0, 64, 69
1, 65997, Control_c, 0, 67, 88
1, 66005, Note_off_c, 0, 74, 62
1, 66012, Control_c, 0, 64, 70
1, 66012, Control_c, 0, 67, 87
1, 66026, Control_c, 0, 67, 87
1, 66026, Note_on_c, 0, 71, 52
1, 66056, Control_c, 0, 67, 86
1, 66071, Control_c, 0, 64, 69
1, 66071, Control_c, 0, 67, 86
1, 66086, Control_c, 0, 64, 63
1, 66086, Control_c, 0, 67, 85
1, 66100, Control_c, 0, 64, 53
1, 66100, Control_c, 0, 67, 84
1, 66111, Note_on_c, 0, 74, 63
1, 66115, Control_c, 0, 64, 32
1, 66115, Control_c, 0, 67, 81
1, 66128, Note_on_c, 0, 54, 52
1, 66129, Note_on_c, 0, 45, 52
1, 66130, Control_c, 0, 64, 19
1, 66130, Control_c, 0, 67, 78
1, 66132, Note_off_c, 0, 71, 51
1, 66145, Control_c, 0, 64, 32
1, 66145, Control_c, 0, 67, 75
1, 66160, Control_c, 0, 64, 47
1, 66160, Control_c, 0, 67, 73
1, 66181, Control_c, 0, 64, 57
1, 66181, Control_c, 0, 67, 71
1, 66189, Note_off_c, 0, 74, 64
1, 66196, Control_c, 0, 64, 60
1, 66196, Control_c, 0, 67, 70
1, 66197, Note_on_c, 0, 76, 67
1, 66197, Note_off_c, 0, 54, 60
1, 66211, Control_c, 0, 64, 61
1, 66211, Control_c, 0, 67, 69
1, 66226, Control_c, 0, 64, 62
1, 66226, Control_c, 0, 67, 68
1, 66241, Control_c, 0, 64, 63
1, 66259, Note_on_c, 0, 74, 58
1, 66271, Control_c, 0, 67, 68
1, 66286, Control_c, 0, 64, 62
1, 66286, Control_c, 0, 67, 69
1, 66301, Control_c, 0, 64, 61
1, 66301, Control_c, 0, 67, 70
1, 66311, Note_off_c, 0, 76, 58
1, 66316, Control_c, 0, 64, 59
1, 66316, Control_c, 0, 67, 71
1, 66331, Control_c, 0, 64, 55
1, 66331, Control_c, 0, 67, 72
1, 66344, Note_on_c, 0, 73, 74
1, 66345, Control_c, 0, 64, 48
1, 66345, Control_c, 0, 67, 72
1, 66360, Control_c, 0, 64, 35
1, 66360, Control_c, 0, 67, 73
1, 66364, Note_off_c, 0, 74, 64
1, 66366, Note_on_c, 0, 40, 56
1, 66370, Note_off_c, 0, 73, 68
1, 66375, Control_c, 0, 64, 15
1, 66390, Control_c, 0, 64, 0
1, 66390, Control_c, 0, 67, 74
1, 66456, Note_off_c, 0, 40, 54
1, 66523, Control_c, 0, 67, 73
1, 66559, Note_on_c, 0, 72, 68
1, 66583, Control_c, 0, 67, 73
1, 66597, Control_c, 0, 67, 72
1, 66612, Control_c, 0, 64, 25
1, 66612, Control_c, 0, 67, 72
1, 66627, Control_c, 0, 64, 39
1, 66628, Note_on_c, 0, 63, 76
1, 66641, Control_c, 0, 64, 48
1, 66641, Control_c, 0, 67, 71
1, 66656, Control_c, 0, 64, 54
1, 66656, Control_c, 0, 67, 70
1, 66664, Note_on_c, 0, 40, 55
1, 66671, Control_c, 0, 64, 59
1, 66686, Control_c, 0, 64, 62
1, 66686, Control_c, 0, 67, 69
1, 66698, Note_off_c, 0, 40, 62
1, 66701, Control_c, 0, 64, 64
1, 66705, Note_off_c, 0, 45, 64
1, 66710, Note_off_c, 0, 63, 63
1, 66716, Control_c, 0, 64, 66
1, 66716, Control_c, 0, 67, 69
1, 66730, Control_c, 0, 64, 68
1, 66730, Control_c, 0, 67, 68
1, 66742, Note_off_c, 0, 72, 62
1, 66745, Control_c, 0, 64, 71
1, 66760, Control_c, 0, 64, 74
1, 66775, Control_c, 0, 64, 76
1, 66790, Control_c, 0, 64, 77
1, 66894, Control_c, 0, 64, 75
1, 66902, Note_on_c, 0, 47, 57
1, 66909, Control_c, 0, 64, 70
1, 66912, Note_on_c, 0, 56, 65
1, 66930, Control_c, 0, 64, 63
1, 66945, Control_c, 0, 64, 53
1, 66957, Note_on_c, 0, 64, 69
1, 66960, Control_c, 0, 64, 34
1, 66974, Control_c, 0, 64, 11
1, 66989, Control_c, 0, 64, 18
1, 67004, Control_c, 0, 64, 36
1, 67019, Control_c, 0, 64, 49
1, 67034, Control_c, 0, 64, 57
1, 67034, Control_c, 0, 67, 68
1, 67045, Note_off_c, 0, 56, 62
1, 67049, Control_c, 0, 64, 61
1, 67052, Note_on_c, 0, 76, 79
1, 67064, Control_c, 0, 64, 63
1, 67064, Control_c, 0, 67, 67
1, 67079, Control_c, 0, 64, 64
1, 67079, Control_c, 0, 67, 66
1, 67094, Control_c, 0, 64, 67
1, 67094, Control_c, 0, 67, 64
1, 67109, Control_c, 0, 64, 69
1, 67109, Control_c, 0, 67, 61
1, 67124, Control_c, 0, 64, 71
1, 67124, Control_c, 0, 67, 59
1, 67139, Control_c, 0, 64, 73
1, 67139, Control_c, 0, 67, 58
1, 67153, Control_c, 0, 64, 74
1, 67153, Control_c, 0, 67, 57
1, 67168, Control_c, 0, 64, 75
1, 67168, Control_c, 0, 67, 54
1, 67183, Control_c, 0, 64, 76
1, 67183, Control_c, 0, 67, 51
1, 67198, Control_c, 0, 67, 50
1, 67213, Control_c, 0, 64, 74
1, 67213, Control_c, 0, 67, 49
1, 67228, Control_c, 0, 64, 68
1, 67240, Note_on_c, 0, 75, 75
1, 67243, Control_c, 0, 64, 61
1, 67243, Control_c, 0, 67, 49
1, 67258, Control_c, 0, 64, 59
1, 67264, Note_off_c, 0, 64, 33
1, 67270, Note_on_c, 0, 40, 61
1, 67272, Control_c, 0, 64, 62
1, 67272, Control_c, 0, 67, 48
1, 67287, Control_c, 0, 64, 64
1, 67302, Control_c, 0, 64, 66
1, 67302, Control_c, 0, 67, 48
1, 67315, Note_off_c, 0, 76, 55
1, 67317, Control_c, 0, 64, 69
1, 67317, Control_c, 0, 67, 47
1, 67322, Note_on_c, 0, 71, 74
1, 67332, Control_c, 0, 64, 72
1, 67346, Control_c, 0, 64, 76
1, 67346, Control_c, 0, 67, 47
1, 67361, Control_c, 0, 64, 81
1, 67361, Control_c, 0, 67, 46
1, 67376, Control_c, 0, 64, 84
1, 67376, Control_c, 0, 67, 45
1, 67390, Control_c, 0, 64, 86
1, 67390, Control_c, 0, 67, 43
1, 67405, Control_c, 0, 64, 87
1, 67405, Control_c, 0, 67, 43
1, 67420, Control_c, 0, 67, 42
1, 67429, Note_off_c, 0, 40, 35
1, 67434, Note_off_c, 0, 71, 64
1, 67438, Note_off_c, 0, 75, 46
1, 67450, Control_c, 0, 64, 83
1, 67464, Control_c, 0, 64, 73
1, 67479, Control_c, 0, 64, 63
1, 67494, Control_c, 0, 64, 59
1, 67494, Control_c, 0, 67, 42
1, 67497, Note_on_c, 0, 74, 77
1, 67509, Control_c, 0, 64, 63
1, 67509, Control_c, 0, 67, 41
1, 67520, Note_on_c, 0, 40, 65
1, 67524, Control_c, 0, 64, 66
1, 67524, Control_c, 0, 67, 38
1, 67538, Control_c, 0, 64, 69
1, 67538, Control_c, 0, 67, 35
1, 67553, Control_c, 0, 64, 73
1, 67553, Control_c, 0, 67, 33
1, 67563, Note_off_c, 0, 47, 63
1, 67568, Control_c, 0, 64, 78
1, 67568, Control_c, 0, 67, 29
1, 67573, Note_off_c, 0, 40, 59
1, 67583, Control_c, 0, 64, 85
1, 67583, Control_c, 0, 67, 25
1, 67587, Note_on_c, 0, 71, 75
1, 67597, Control_c, 0, 64, 91
1, 67597, Control_c, 0, 67, 21
1, 67612, Control_c, 0, 64, 94
1, 67612, Control_c, 0, 67, 19
1, 67627, Control_c, 0, 64, 99
1, 67642, Control_c, 0, 64, 106
1, 67649, Note_off_c, 0, 74, 63
1, 67657, Control_c, 0, 64, 119
1, 67678, Control_c, 0, 64, 127
1, 67738, Control_c, 0, 64, 97
1, 67752, Control_c, 0, 64, 73
1, 67752, Control_c, 0, 67, 20
1, 67758, Note_on_c, 0, 74, 81
1, 67761, Note_on_c, 0, 57, 73
1, 67766, Note_on_c, 0, 48, 72
1, 67767, Control_c, 0, 64, 57
1, 67782, Control_c, 0, 64, 35
1, 67797, Control_c, 0, 64, 47
1, 67812, Control_c, 0, 64, 59
1, 67827, Control_c, 0, 64, 65
1, 67833, Note_off_c, 0, 57, 63
1, 67835, Note_on_c, 0, 76, 77
1, 67839, Note_off_c, 0, 71, 59
1, 67842, Control_c, 0, 64, 69
1, 67845, Note_off_c, 0, 74, 63
1, 67857, Control_c, 0, 64, 76
1, 67871, Control_c, 0, 64, 82
1, 67886, Control_c, 0, 64, 85
1, 67901, Control_c, 0, 64, 87
1, 67916, Control_c, 0, 64, 89
1, 67916, Control_c, 0, 67, 19
1, 67918, Note_on_c, 0, 74, 71
1, 67931, Control_c, 0, 64, 90
1, 67946, Control_c, 0, 64, 90
1, 67946, Control_c, 0, 67, 19
1, 67968, Note_off_c, 0, 76, 59
1, 67991, Control_c, 0, 64, 81
1, 67997, Note_on_c, 0, 72, 81
1, 68006, Control_c, 0, 64, 66
1, 68016, Note_off_c, 0, 74, 65
1, 68020, Control_c, 0, 64, 48
1, 68024, Note_off_c, 0, 72, 65
1, 68032, Note_on_c, 0, 40, 74
1, 68035, Control_c, 0, 64, 26
1, 68050, Control_c, 0, 64, 45
1, 68065, Control_c, 0, 64, 61
1, 68080, Control_c, 0, 64, 68
1, 68094, Control_c, 0, 64, 77
1, 68109, Control_c, 0, 64, 87
1, 68124, Control_c, 0, 64, 94
1, 68139, Note_off_c, 0, 40, 58
1, 68139, Control_c, 0, 64, 97
1, 68154, Control_c, 0, 64, 99
1, 68168, Control_c, 0, 64, 100
1, 68212, Control_c, 0, 64, 101
1, 68225, Note_on_c, 0, 84, 84
1, 68226, Note_on_c, 0, 76, 78
1, 68227, Control_c, 0, 64, 101
1, 68242, Control_c, 0, 64, 102
1, 68257, Control_c, 0, 64, 103
1, 68272, Control_c, 0, 64, 105
1, 68274, Note_off_c, 0, 76, 63
1, 68274, Note_off_c, 0, 84, 66
1, 68286, Control_c, 0, 64, 106
1, 68301, Control_c, 0, 64, 109
1, 68316, Control_c, 0, 64, 111
1, 68325, Note_on_c, 0, 69, 91
1, 68332, Control_c, 0, 64, 113
1, 68347, Control_c, 0, 64, 113
1, 68352, Note_on_c, 0, 40, 78
1, 68361, Control_c, 0, 64, 115
1, 68372, Note_off_c, 0, 69, 67
1, 68376, Control_c, 0, 64, 120
1, 68391, Control_c, 0, 64, 127
1, 68402, Note_off_c, 0, 40, 60
1, 68412, Note_off_c, 0, 48, 64
1, 68443, Control_c, 0, 67, 18
1, 68458, Control_c, 0, 67, 18
1, 68502, Control_c, 0, 67, 17
1, 68562, Control_c, 0, 67, 17
1, 68591, Control_c, 0, 67, 15
1, 68606, Control_c, 0, 67, 13
1, 68620, Control_c, 0, 67, 11
1, 68635, Control_c, 0, 67, 10
1, 68650, Control_c, 0, 67, 10
1, 68665, Control_c, 0, 67, 9
1, 68711, Control_c, 0, 64, 105
1, 68721, Note_on_c, 0, 70, 80
1, 68725, Control_c, 0, 64, 94
1, 68732, Note_on_c, 0, 67, 72
1, 68740, Control_c, 0, 64, 84
1, 68755, Control_c, 0, 64, 74
1, 68770, Control_c, 0, 64, 68
1, 68785, Control_c, 0, 64, 62
1, 68799, Control_c, 0, 64, 58
1, 68814, Control_c, 0, 64, 56
1, 68814, Control_c, 0, 67, 9
1, 68858, Control_c, 0, 64, 55
1, 68865, Note_on_c, 0, 76, 74
1, 68873, Control_c, 0, 67, 8
1, 68881, Note_on_c, 0, 66, 78
1, 68888, Control_c, 0, 64, 55
1, 68888, Control_c, 0, 67, 0
1, 68891, Note_off_c, 0, 67, 62
1, 68948, Control_c, 0, 64, 54
1, 68968, Note_on_c, 0, 74, 73
1, 68978, Control_c, 0, 64, 54
1, 68981, Note_on_c, 0, 65, 78
1, 68992, Note_on_c, 0, 69, 67
1, 68992, Control_c, 0, 64, 53
1, 68994, Note_off_c, 0, 70, 59
1, 69001, Note_off_c, 0, 66, 61
1, 69007, Control_c, 0, 64, 52
1, 69022, Control_c, 0, 64, 50
1, 69036, Control_c, 0, 64, 46
1, 69051, Control_c, 0, 64, 39
1, 69066, Control_c, 0, 64, 25
1, 69081, Control_c, 0, 64, 0
1, 69085, Note_on_c, 0, 71, 74
1, 69090, Note_off_c, 0, 65, 60
1, 69091, Note_on_c, 0, 68, 71
1, 69096, Note_off_c, 0, 69, 62
1, 69099, Note_off_c, 0, 76, 56
1, 69103, Note_on_c, 0, 64, 74
1, 69186, Note_off_c, 0, 74, 60
1, 69192, Control_c, 0, 64, 20
1, 69207, Control_c, 0, 64, 51
1, 69222, Control_c, 0, 64, 62
1, 69237, Control_c, 0, 64, 66
1, 69251, Control_c, 0, 64, 71
1, 69266, Control_c, 0, 64, 78
1, 69281, Control_c, 0, 64, 87
1, 69296, Control_c, 0, 64, 96
1, 69297, Note_off_c, 0, 71, 62
1, 69299, Note_off_c, 0, 68, 64
1, 69311, Control_c, 0, 64, 101
1, 69325, Control_c, 0, 64, 107
1, 69340, Control_c, 0, 64, 113
1, 69355, Control_c, 0, 64, 117
1, 69369, Control_c, 0, 64, 119
1, 69401, Note_off_c, 0, 64, 62
1, 69519, Control_c, 0, 64, 116
1, 69530, Note_on_c, 0, 71, 63
1, 69534, Control_c, 0, 64, 99
1, 69541, Note_on_c, 0, 68, 59
1, 69548, Control_c, 0, 64, 81
1, 69560, Note_on_c, 0, 64, 48
1, 69563, Control_c, 0, 64, 67
1, 69578, Control_c, 0, 64, 56
1, 69592, Control_c, 0, 64, 60
1, 69607, Control_c, 0, 64, 68
1, 69622, Control_c, 0, 64, 74
1, 69637, Control_c, 0, 64, 83
1, 69642, Note_off_c, 0, 64, 63
1, 69652, Control_c, 0, 64, 90
1, 69666, Control_c, 0, 64, 95
1, 69666, Control_c, 0, 67, 9
1, 69678, Note_off_c, 0, 68, 61
1, 69681, Control_c, 0, 64, 101
1, 69681, Control_c, 0, 67, 10
1, 69696, Control_c, 0, 64, 107
1, 69696, Control_c, 0, 67, 11
1, 69707, Note_off_c, 0, 71, 62
1, 69711, Control_c, 0, 64, 109
1, 69711, Control_c, 0, 67, 12
1, 69726, Control_c, 0, 67, 14
1, 69741, Control_c, 0, 67, 18
1, 69756, Control_c, 0, 67, 24
1, 69771, Control_c, 0, 67, 31
1, 69785, Control_c, 0, 67, 39
1, 69800, Control_c, 0, 67, 48
1, 69815, Control_c, 0, 67, 55
1, 69828, Control_c, 0, 67, 63
1, 69843, Control_c, 0, 67, 70
1, 69858, Control_c, 0, 67, 76
1, 69872, Control_c, 0, 67, 80
1, 69887, Control_c, 0, 67, 85
1, 69902, Control_c, 0, 67, 88
1, 69925, Control_c, 0, 67, 90
1, 69939, Control_c, 0, 64, 109
1, 69939, Control_c, 0, 67, 91
1, 69954, Control_c, 0, 67, 92
1, 69969, Control_c, 0, 67, 94
1, 69984, Control_c, 0, 64, 108
1, 69984, Control_c, 0, 67, 95
1, 69998, Control_c, 0, 64, 107
1, 70013, Control_c, 0, 64, 106
1, 70028, Control_c, 0, 64, 105
1, 70043, Control_c, 0, 64, 104
1, 70058, Control_c, 0, 64, 104
1, 70058, Control_c, 0, 67, 96
1, 70087, Control_c, 0, 64, 103
1, 70087, Control_c, 0, 67, 96
1, 70102, Control_c, 0, 64, 103
1, 70117, Control_c, 0, 64, 102
1, 70117, Control_c, 0, 67, 97
1, 70132, Control_c, 0, 64, 101
1, 70132, Control_c, 0, 67, 97
1, 70146, Control_c, 0, 64, 99
1, 70146, Control_c, 0, 67, 100
1, 70154, Note_on_c, 0, 70, 62
1, 70161, Control_c, 0, 64, 94
1, 70161, Control_c, 0, 67, 102
1, 70176, Control_c, 0, 64, 86
1, 70176, Control_c, 0, 67, 103
1, 70191, Control_c, 0, 64, 76
1, 70191, Control_c, 0, 67, 104
1, 70201, Note_on_c, 0, 67, 45
1, 70206, Control_c, 0, 64, 64
1, 70206, Control_c, 0, 67, 107
1, 70221, Control_c, 0, 64, 51
1, 70221, Control_c, 0, 67, 110
1, 70236, Control_c, 0, 64, 46
1, 70236, Control_c, 0, 67, 110
1, 70250, Control_c, 0, 64, 55
1, 70250, Control_c, 0, 67, 111
1, 70265, Control_c, 0, 64, 63
1, 70265, Control_c, 0, 67, 111
1, 70280, Control_c, 0, 64, 67
1, 70295, Control_c, 0, 64, 72
1, 70295, Control_c, 0, 67, 112
1, 70310, Control_c, 0, 64, 77
1, 70325, Control_c, 0, 64, 82
1, 70325, Control_c, 0, 67, 111
1, 70340, Control_c, 0, 64, 84
1, 70355, Control_c, 0, 64, 85
1, 70355, Control_c, 0, 67, 111
1, 70370, Control_c, 0, 64, 86
1, 70385, Control_c, 0, 64, 85
1, 70399, Control_c, 0, 64, 85
1, 70399, Control_c, 0, 67, 110
1, 70400, Note_on_c, 0, 76, 61
1, 70414, Control_c, 0, 64, 80
1, 70429, Control_c, 0, 64, 71
1, 70430, Note_on_c, 0, 66, 44
1, 70444, Control_c, 0, 64, 61
1, 70459, Control_c, 0, 64, 52
1, 70474, Control_c, 0, 64, 58
1, 70474, Control_c, 0, 67, 110
1, 70488, Control_c, 0, 64, 65
1, 70501, Note_off_c, 0, 66, 0
1, 70501, Note_on_c, 0, 66, 24
1, 70503, Control_c, 0, 64, 70
1, 70503, Control_c, 0, 67, 109
1, 70509, Note_off_c, 0, 67, 45
1, 70518, Control_c, 0, 64, 75
1, 70518, Control_c, 0, 67, 109
1, 70533, Control_c, 0, 64, 81
1, 70548, Control_c, 0, 64, 84
1, 70548, Control_c, 0, 67, 108
1, 70562, Control_c, 0, 64, 87
1, 70577, Control_c, 0, 64, 88
1, 70592, Control_c, 0, 67, 108
1, 70621, Control_c, 0, 67, 107
1, 70718, Control_c, 0, 64, 87
1, 70721, Note_on_c, 0, 74, 52
1, 70733, Control_c, 0, 64, 86
1, 70736, Note_on_c, 0, 69, 47
1, 70748, Control_c, 0, 64, 83
1, 70763, Control_c, 0, 64, 78
1, 70768, Note_on_c, 0, 65, 39
1, 70777, Control_c, 0, 64, 70
1, 70777, Control_c, 0, 67, 108
1, 70787, Note_off_c, 0, 66, 31
1, 70792, Control_c, 0, 64, 61
1, 70807, Control_c, 0, 64, 44
1, 70807, Control_c, 0, 67, 108
1, 70814, Note_off_c, 0, 70, 38
1, 70820, Note_off_c, 0, 76, 57
1, 70821, Control_c, 0, 64, 11
1, 70836, Control_c, 0, 64, 0
1, 70851, Control_c, 0, 64, 16
1, 70866, Control_c, 0, 64, 42
1, 70881, Control_c, 0, 64, 58
1, 70895, Control_c, 0, 64, 64
1, 70910, Control_c, 0, 64, 68
1, 70925, Control_c, 0, 64, 72
1, 70940, Control_c, 0, 64, 77
1, 70940, Control_c, 0, 67, 108
1, 70955, Control_c, 0, 64, 81
1, 70969, Control_c, 0, 64, 84
1, 70984, Control_c, 0, 64, 86
1, 70984, Control_c, 0, 67, 107
1, 70999, Control_c, 0, 64, 88
1, 71014, Control_c, 0, 64, 91
1, 71014, Control_c, 0, 67, 107
1, 71028, Control_c, 0, 64, 92
1, 71043, Control_c, 0, 64, 93
1, 71058, Note_off_c, 0, 74, 55
1, 71058, Control_c, 0, 67, 106
1, 71063, Note_off_c, 0, 65, 41
1, 71073, Control_c, 0, 64, 93
1, 71104, Control_c, 0, 64, 94
1, 71104, Control_c, 0, 67, 106
1, 71118, Control_c, 0, 64, 94
1, 71178, Control_c, 0, 67, 105
1, 71245, Note_off_c, 0, 69, 45
1, 71252, Control_c, 0, 67, 105
1, 71356, Control_c, 0, 67, 104
1, 71422, Control_c, 0, 64, 94
1, 71437, Control_c, 0, 67, 104
1, 71600, Control_c, 0, 67, 103
1, 71678, Note_on_c, 0, 71, 36
1, 71702, Note_on_c, 0, 68, 38
1, 71704, Control_c, 0, 64, 93
1, 71714, Note_on_c, 0, 64, 33
1, 71748, Control_c, 0, 64, 93
1, 71754, Note_off_c, 0, 68, 0
1, 71754, Note_on_c, 0, 68, 5
1, 71762, Control_c, 0, 64, 92
1, 71777, Control_c, 0, 64, 91
1, 71792, Control_c, 0, 64, 90
1, 71807, Control_c, 0, 64, 89
1, 71807, Control_c, 0, 67, 104
1, 71822, Control_c, 0, 64, 87
1, 71836, Control_c, 0, 64, 85
1, 71851, Control_c, 0, 64, 83
1, 71866, Control_c, 0, 64, 79
1, 71882, Control_c, 0, 64, 75
1, 71897, Control_c, 0, 64, 71
1, 71897, Control_c, 0, 67, 104
1, 71912, Control_c, 0, 64, 68
1, 71927, Control_c, 0, 64, 65
1, 71941, Control_c, 0, 64, 62
1, 71956, Control_c, 0, 64, 61
1, 71971, Control_c, 0, 64, 59
1, 71986, Control_c, 0, 64, 58
1, 72001, Control_c, 0, 64, 57
1, 72015, Control_c, 0, 64, 53
1, 72015, Control_c, 0, 67, 104
1, 72030, Control_c, 0, 64, 49
1, 72045, Control_c, 0, 64, 44
1, 72060, Control_c, 0, 64, 38
1, 72075, Control_c, 0, 64, 34
1, 72090, Control_c, 0, 64, 31
1, 72105, Control_c, 0, 64, 30
1, 72134, Control_c, 0, 64, 29
1, 72201, Control_c, 0, 67, 103
1, 72216, Control_c, 0, 64, 32
1, 72231, Control_c, 0, 64, 39
1, 72231, Control_c, 0, 67, 103
1, 72246, Control_c, 0, 64, 45
1, 72246, Control_c, 0, 67, 102
1, 72260, Control_c, 0, 64, 49
1, 72260, Control_c, 0, 67, 101
1, 72275, Control_c, 0, 64, 54
1, 72290, Control_c, 0, 64, 57
1, 72290, Control_c, 0, 67, 101
1, 72305, Control_c, 0, 64, 60
1, 72305, Control_c, 0, 67, 100
1, 72320, Control_c, 0, 64, 63
1, 72320, Control_c, 0, 67, 100
1, 72335, Control_c, 0, 64, 65
1, 72335, Control_c, 0, 67, 99
1, 72349, Control_c, 0, 64, 66
1, 72349, Control_c, 0, 67, 98
1, 72364, Control_c, 0, 64, 68
1, 72379, Control_c, 0, 64, 70
1, 72394, Control_c, 0, 64, 72
1, 72394, Control_c, 0, 67, 98
1, 72409, Control_c, 0, 64, 74
1, 72424, Control_c, 0, 64, 76
1, 72438, Control_c, 0, 64, 77
1, 72438, Control_c, 0, 67, 97
1, 72453, Control_c, 0, 64, 79
1, 72468, Control_c, 0, 64, 80
1, 72483, Control_c, 0, 64, 81
1, 72498, Control_c, 0, 64, 82
1, 72513, Control_c, 0, 64, 83
1, 72513, Control_c, 0, 67, 97
1, 72528, Control_c, 0, 64, 83
1, 72542, Control_c, 0, 64, 84
1, 72601, Control_c, 0, 64, 84
1, 72644, Note_off_c, 0, 64, 36
1, 72765, Control_c, 0, 67, 97
1, 72854, Control_c, 0, 67, 97
1, 73039, Control_c, 0, 67, 96
1, 73187, Control_c, 0, 67, 97
1, 73216, Control_c, 0, 64, 84
1, 73276, Control_c, 0, 64, 83
1, 73321, Control_c, 0, 64, 83
1, 73395, Control_c, 0, 64, 82
1, 73454, Control_c, 0, 64, 82
1, 73482, Note_on_c, 0, 57, 31
1, 73491, Note_on_c, 0, 65, 30
1, 73497, Note_on_c, 0, 62, 39
1, 73500, Control_c, 0, 64, 81
1, 73559, Control_c, 0, 64, 81
1, 73588, Control_c, 0, 64, 79
1, 73603, Control_c, 0, 64, 76
1, 73603, Control_c, 0, 67, 97
1, 73618, Control_c, 0, 64, 69
1, 73632, Control_c, 0, 64, 61
1, 73647, Control_c, 0, 64, 49
1, 73670, Control_c, 0, 64, 46
1, 73684, Control_c, 0, 64, 55
1, 73699, Control_c, 0, 64, 61
1, 73714, Control_c, 0, 64, 64
1, 73714, Control_c, 0, 67, 97
1, 73729, Control_c, 0, 64, 67
1, 73744, Control_c, 0, 64, 71
1, 73759, Control_c, 0, 64, 74
1, 73774, Control_c, 0, 64, 76
1, 73788, Control_c, 0, 64, 78
1, 73803, Control_c, 0, 64, 78
1, 73832, Control_c, 0, 67, 96
1, 73847, Control_c, 0, 64, 79
1, 73862, Control_c, 0, 64, 79
1, 73877, Control_c, 0, 64, 80
1, 73877, Control_c, 0, 67, 97
1, 73892, Control_c, 0, 64, 80
1, 73906, Control_c, 0, 64, 81
1, 73970, Note_off_c, 0, 65, 33
1, 73986, Note_off_c, 0, 57, 37
1, 73995, Control_c, 0, 64, 81
1, 74024, Note_off_c, 0, 62, 39
1, 74347, Note_on_c, 0, 72, 47
1, 74351, Note_off_c, 0, 71, 36
1, 74351, Control_c, 0, 64, 81
1, 74462, Control_c, 0, 67, 96
1, 74492, Control_c, 0, 64, 80
1, 74513, Note_off_c, 0, 72, 50
1, 74522, Control_c, 0, 64, 80
1, 74536, Control_c, 0, 64, 79
1, 74551, Control_c, 0, 64, 79
1, 74552, Note_on_c, 0, 74, 45
1, 74566, Control_c, 0, 64, 78
1, 74580, Control_c, 0, 64, 78
1, 74594, Note_on_c, 0, 62, 31
1, 74595, Control_c, 0, 64, 77
1, 74596, Note_on_c, 0, 57, 22
1, 74603, Note_on_c, 0, 65, 18
1, 74610, Control_c, 0, 64, 76
1, 74625, Control_c, 0, 64, 73
1, 74640, Control_c, 0, 64, 69
1, 74654, Control_c, 0, 64, 62
1, 74654, Control_c, 0, 67, 97
1, 74669, Control_c, 0, 64, 50
1, 74684, Control_c, 0, 64, 29
1, 74699, Control_c, 0, 64, 15
1, 74714, Control_c, 0, 64, 25
1, 74728, Control_c, 0, 64, 45
1, 74743, Control_c, 0, 64, 57
1, 74758, Control_c, 0, 64, 63
1, 74758, Control_c, 0, 67, 96
1, 74773, Control_c, 0, 64, 66
1, 74787, Control_c, 0, 64, 70
1, 74787, Control_c, 0, 67, 96
1, 74802, Control_c, 0, 64, 74
1, 74817, Control_c, 0, 64, 77
1, 74832, Control_c, 0, 64, 80
1, 74847, Control_c, 0, 64, 82
1, 74847, Control_c, 0, 67, 95
1, 74862, Control_c, 0, 64, 83
1, 74877, Control_c, 0, 64, 85
1, 74891, Note_off_c, 0, 65, 39
1, 74892, Control_c, 0, 64, 86
1, 74902, Note_off_c, 0, 57, 41
1, 74907, Control_c, 0, 64, 87
1, 74922, Control_c, 0, 64, 87
1, 74924, Note_off_c, 0, 62, 42
1, 74936, Control_c, 0, 64, 88
1, 74951, Control_c, 0, 64, 89
1, 74966, Control_c, 0, 64, 89
1, 74995, Control_c, 0, 64, 90
1, 75026, Note_off_c, 0, 68, 43
1, 75170, Note_on_c, 0, 57, 26
1, 75172, Note_on_c, 0, 65, 26
1, 75178, Note_on_c, 0, 62, 34
1, 75211, Control_c, 0, 67, 95
1, 75300, Note_on_c, 0, 69, 47
1, 75345, Control_c, 0, 67, 94
1, 75368, Note_off_c, 0, 65, 39
1, 75374, Note_off_c, 0, 57, 41
1, 75430, Note_off_c, 0, 62, 41
1, 75479, Control_c, 0, 64, 90
1, 75508, Control_c, 0, 64, 91
1, 75515, Note_off_c, 0, 74, 41
1, 75552, Control_c, 0, 64, 91
1, 75580, Note_off_c, 0, 69, 45
1, 75769, Note_on_c, 0, 69, 41
1, 75804, Control_c, 0, 67, 94
1, 75819, Control_c, 0, 64, 91
1, 75878, Note_on_c, 0, 72, 47
1, 75916, Control_c, 0, 64, 90
1, 75926, Note_off_c, 0, 69, 47
1, 75931, Control_c, 0, 64, 90
1, 75937, Note_on_c, 0, 60, 36
1, 75941, Note_on_c, 0, 65, 31
1, 75946, Control_c, 0, 64, 89
1, 75949, Note_on_c, 0, 57, 27
1, 75961, Control_c, 0, 64, 87
1, 75976, Control_c, 0, 64, 83
1, 75976, Control_c, 0, 67, 94
1, 75990, Control_c, 0, 64, 78
1, 76005, Control_c, 0, 64, 70
1, 76020, Control_c, 0, 64, 61
1, 76034, Control_c, 0, 64, 44
1, 76049, Control_c, 0, 64, 22
1, 76064, Control_c, 0, 64, 23
1, 76079, Control_c, 0, 64, 40
1, 76079, Control_c, 0, 67, 94
1, 76094, Control_c, 0, 64, 54
1, 76094, Control_c, 0, 67, 93
1, 76108, Control_c, 0, 64, 62
1, 76123, Control_c, 0, 64, 66
1, 76123, Control_c, 0, 67, 92
1, 76138, Control_c, 0, 64, 71
1, 76138, Control_c, 0, 67, 91
1, 76153, Control_c, 0, 64, 75
1, 76168, Control_c, 0, 64, 79
1, 76168, Control_c, 0, 67, 91
1, 76182, Control_c, 0, 64, 81
1, 76197, Control_c, 0, 64, 83
1, 76212, Control_c, 0, 64, 85
1, 76227, Control_c, 0, 64, 87
1, 76242, Control_c, 0, 64, 89
1, 76242, Control_c, 0, 67, 90
1, 76244, Note_off_c, 0, 57, 37
1, 76257, Control_c, 0, 64, 90
1, 76266, Note_off_c, 0, 65, 37
1, 76272, Control_c, 0, 64, 91
1, 76287, Control_c, 0, 64, 92
1, 76302, Control_c, 0, 64, 92
1, 76302, Control_c, 0, 67, 91
1, 76316, Control_c, 0, 64, 93
1, 76327, Note_off_c, 0, 60, 37
1, 76330, Note_off_c, 0, 72, 31
1, 76331, Control_c, 0, 64, 94
1, 76346, Control_c, 0, 64, 94
1, 76571, Note_on_c, 0, 65, 32
1, 76576, Note_on_c, 0, 60, 33
1, 76581, Note_on_c, 0, 57, 29
1, 76597, Control_c, 0, 67, 90
1, 76813, Control_c, 0, 67, 91
1, 76823, Note_off_c, 0, 65, 41
1, 76825, Note_off_c, 0, 57, 41
1, 76841, Note_off_c, 0, 60, 40
1, 76947, Note_on_c, 0, 71, 58
1, 76962, Note_on_c, 0, 65, 37
1, 76967, Note_on_c, 0, 57, 31
1, 76967, Note_on_c, 0, 60, 40
1, 76990, Control_c, 0, 64, 94
1, 77020, Control_c, 0, 64, 93
1, 77095, Control_c, 0, 64, 93
1, 77124, Note_off_c, 0, 60, 59
1, 77125, Note_on_c, 0, 72, 62
1, 77127, Note_off_c, 0, 57, 41
1, 77132, Note_off_c, 0, 65, 40
1, 77213, Control_c, 0, 67, 91
1, 77244, Note_off_c, 0, 71, 39
1, 77276, Note_off_c, 0, 72, 59
1, 77287, Note_on_c, 0, 65, 19
1, 77287, Control_c, 0, 64, 92
1, 77299, Note_on_c, 0, 60, 27
1, 77302, Control_c, 0, 67, 92
1, 77303, Note_on_c, 0, 55, 37
1, 77317, Control_c, 0, 64, 92
1, 77331, Control_c, 0, 64, 91
1, 77346, Control_c, 0, 64, 90
1, 77361, Control_c, 0, 64, 90
1, 77375, Control_c, 0, 64, 88
1, 77381, Note_on_c, 0, 74, 52
1, 77390, Control_c, 0, 64, 87
1, 77413, Control_c, 0, 64, 84
1, 77418, Note_off_c, 0, 74, 61
1, 77428, Control_c, 0, 64, 81
1, 77443, Note_on_c, 0, 76, 62
1, 77443, Control_c, 0, 64, 76
1, 77443, Control_c, 0, 67, 92
1, 77457, Control_c, 0, 64, 71
1, 77472, Control_c, 0, 64, 66
1, 77472, Control_c, 0, 67, 93
1, 77488, Control_c, 0, 64, 59
1, 77503, Control_c, 0, 64, 47
1, 77505, Note_on_c, 0, 74, 60
1, 77512, Note_off_c, 0, 76, 57
1, 77518, Control_c, 0, 64, 26
1, 77533, Control_c, 0, 64, 0
1, 77548, Control_c, 0, 67, 92
1, 77562, Control_c, 0, 64, 15
1, 77577, Control_c, 0, 64, 35
1, 77592, Control_c, 0, 64, 50
1, 77606, Control_c, 0, 64, 59
1, 77621, Control_c, 0, 64, 63
1, 77636, Control_c, 0, 64, 64
1, 77651, Control_c, 0, 64, 65
1, 77666, Control_c, 0, 64, 67
1, 77680, Control_c, 0, 64, 68
1, 77695, Control_c, 0, 64, 69
1, 77697, Note_off_c, 0, 55, 38
1, 77710, Control_c, 0, 64, 70
1, 77718, Note_off_c, 0, 65, 38
1, 77762, Note_off_c, 0, 74, 60
1, 77771, Note_off_c, 0, 60, 45
1, 77780, Note_on_c, 0, 73, 51
1, 77784, Control_c, 0, 64, 70
1, 77917, Control_c, 0, 67, 93
1, 77947, Control_c, 0, 64, 70
1, 77947, Control_c, 0, 67, 93
1, 77962, Control_c, 0, 64, 68
1, 77977, Control_c, 0, 64, 65
1, 77977, Control_c, 0, 67, 94
1, 77985, Note_on_c, 0, 74, 47
1, 77986, Note_on_c, 0, 59, 32
1, 77992, Control_c, 0, 64, 59
1, 77994, Note_on_c, 0, 65, 33
1, 77996, Note_on_c, 0, 55, 23
1, 78006, Control_c, 0, 64, 45
1, 78021, Control_c, 0, 64, 17
1, 78025, Note_off_c, 0, 73, 33
1, 78036, Control_c, 0, 64, 9
1, 78051, Control_c, 0, 64, 35
1, 78051, Control_c, 0, 67, 93
1, 78065, Control_c, 0, 64, 51
1, 78079, Control_c, 0, 64, 59
1, 78094, Control_c, 0, 64, 62
1, 78094, Control_c, 0, 67, 93
1, 78109, Control_c, 0, 64, 64
1, 78124, Control_c, 0, 64, 65
1, 78139, Control_c, 0, 64, 67
1, 78161, Control_c, 0, 64, 69
1, 78161, Control_c, 0, 67, 92
1, 78176, Control_c, 0, 64, 70
1, 78216, Note_off_c, 0, 55, 40
1, 78224, Note_on_c, 0, 76, 48
1, 78230, Note_off_c, 0, 74, 43
1, 78235, Control_c, 0, 64, 70
1, 78239, Note_off_c, 0, 65, 40
1, 78246, Note_off_c, 0, 59, 41
1, 78305, Note_off_c, 0, 76, 55
1, 78325, Control_c, 0, 67, 93
1, 78368, Note_on_c, 0, 77, 46
1, 78426, Note_off_c, 0, 77, 54
1, 78443, Control_c, 0, 64, 70
1, 78532, Control_c, 0, 64, 69
1, 78547, Control_c, 0, 64, 67
1, 78562, Control_c, 0, 64, 65
1, 78565, Note_on_c, 0, 79, 43
1, 78576, Control_c, 0, 64, 61
1, 78578, Note_on_c, 0, 59, 26
1, 78585, Note_on_c, 0, 65, 19
1, 78591, Control_c, 0, 64, 56
1, 78596, Note_on_c, 0, 55, 19
1, 78606, Control_c, 0, 64, 46
1, 78621, Control_c, 0, 64, 28
1, 78621, Control_c, 0, 67, 93
1, 78636, Control_c, 0, 64, 0
1, 78651, Control_c, 0, 64, 12
1, 78666, Control_c, 0, 64, 28
1, 78666, Control_c, 0, 67, 93
1, 78680, Control_c, 0, 64, 41
1, 78695, Control_c, 0, 64, 52
1, 78710, Control_c, 0, 64, 61
1, 78725, Control_c, 0, 64, 65
1, 78740, Control_c, 0, 64, 68
1, 78740, Control_c, 0, 67, 92
1, 78755, Control_c, 0, 64, 71
1, 78770, Control_c, 0, 64, 73
1, 78782, Note_off_c, 0, 79, 45
1, 78784, Control_c, 0, 64, 76
1, 78799, Control_c, 0, 64, 78
1, 78815, Control_c, 0, 64, 80
1, 78829, Control_c, 0, 64, 81
1, 78844, Control_c, 0, 64, 82
1, 78859, Control_c, 0, 64, 83
1, 78910, Control_c, 0, 67, 93
1, 78943, Note_off_c, 0, 65, 37
1, 78951, Note_off_c, 0, 55, 37
1, 78980, Note_off_c, 0, 59, 37
1, 79074, Control_c, 0, 64, 82
1, 79104, Control_c, 0, 64, 82
1, 79148, Control_c, 0, 64, 81
1, 79178, Control_c, 0, 64, 81
1, 79252, Control_c, 0, 64, 80
1, 79326, Control_c, 0, 64, 80
1, 79356, Control_c, 0, 64, 79
1, 79415, Control_c, 0, 64, 79
1, 79432, Note_on_c, 0, 74, 43
1, 79504, Control_c, 0, 64, 78
1, 79541, Note_off_c, 0, 74, 60
1, 79548, Control_c, 0, 64, 78
1, 79593, Control_c, 0, 64, 77
1, 79622, Control_c, 0, 64, 77
1, 79635, Note_on_c, 0, 76, 49
1, 79659, Control_c, 0, 64, 76
1, 79674, Control_c, 0, 64, 76
1, 79674, Control_c, 0, 67, 93
1, 79681, Note_on_c, 0, 64, 32
1, 79686, Note_on_c, 0, 59, 33
1, 79696, Note_on_c, 0, 55, 26
1, 79704, Control_c, 0, 64, 75
1, 79719, Control_c, 0, 64, 75
1, 79733, Control_c, 0, 64, 73
1, 79748, Control_c, 0, 64, 71
1, 79763, Control_c, 0, 64, 68
1, 79763, Control_c, 0, 67, 94
1, 79777, Control_c, 0, 64, 63
1, 79792, Control_c, 0, 64, 55
1, 79807, Control_c, 0, 64, 41
1, 79822, Control_c, 0, 64, 22
1, 79837, Control_c, 0, 64, 10
1, 79837, Control_c, 0, 67, 94
1, 79852, Control_c, 0, 64, 22
1, 79867, Control_c, 0, 64, 38
1, 79867, Control_c, 0, 67, 94
1, 79882, Control_c, 0, 64, 52
1, 79897, Control_c, 0, 64, 60
1, 79897, Control_c, 0, 67, 93
1, 79912, Control_c, 0, 64, 64
1, 79927, Control_c, 0, 64, 66
1, 79942, Control_c, 0, 64, 68
1, 79942, Control_c, 0, 67, 93
1, 79956, Control_c, 0, 64, 71
1, 79971, Control_c, 0, 64, 74
1, 79971, Control_c, 0, 67, 92
1, 79986, Control_c, 0, 64, 76
1, 80001, Control_c, 0, 64, 78
1, 80001, Control_c, 0, 67, 92
1, 80016, Control_c, 0, 64, 79
1, 80031, Control_c, 0, 64, 81
1, 80032, Note_off_c, 0, 64, 37
1, 80034, Note_off_c, 0, 55, 35
1, 80046, Control_c, 0, 64, 83
1, 80061, Control_c, 0, 64, 85
1, 80070, Note_off_c, 0, 59, 41
1, 80075, Control_c, 0, 64, 87
1, 80075, Control_c, 0, 67, 91
1, 80090, Control_c, 0, 64, 88
1, 80105, Control_c, 0, 64, 89
1, 80120, Control_c, 0, 64, 91
1, 80135, Control_c, 0, 64, 92
1, 80149, Control_c, 0, 64, 93
1, 80164, Control_c, 0, 64, 94
1, 80179, Control_c, 0, 64, 96
1, 80193, Control_c, 0, 64, 97
1, 80208, Control_c, 0, 64, 98
1, 80223, Control_c, 0, 64, 99
1, 80253, Control_c, 0, 64, 99
1, 80341, Note_on_c, 0, 64, 35
1, 80350, Note_on_c, 0, 59, 29
1, 80366, Note_on_c, 0, 55, 30
1, 80371, Control_c, 0, 67, 91
1, 80408, Control_c, 0, 67, 90
1, 80423, Control_c, 0, 64, 100
1, 80423, Control_c, 0, 67, 90
1, 80438, Control_c, 0, 67, 89
1, 80453, Control_c, 0, 64, 101
1, 80468, Control_c, 0, 64, 102
1, 80468, Control_c, 0, 67, 89
1, 80482, Control_c, 0, 64, 102
1, 80482, Control_c, 0, 67, 88
1, 80497, Control_c, 0, 64, 103
1, 80497, Control_c, 0, 67, 85
1, 80512, Control_c, 0, 67, 84
1, 80527, Control_c, 0, 64, 103
1, 80527, Control_c, 0, 67, 84
1, 80542, Control_c, 0, 64, 104
1, 80556, Control_c, 0, 64, 104
1, 80571, Control_c, 0, 64, 105
1, 80608, Note_off_c, 0, 55, 41
1, 80612, Note_off_c, 0, 64, 42
1, 80636, Note_off_c, 0, 59, 44
1, 80802, Note_on_c, 0, 64, 38
1, 80811, Note_on_c, 0, 59, 26
1, 80831, Note_on_c, 0, 55, 37
1, 80839, Control_c, 0, 67, 83
1, 80868, Control_c, 0, 67, 83
1, 80913, Control_c, 0, 67, 82
1, 80972, Control_c, 0, 67, 82
1, 80987, Control_c, 0, 67, 80
1, 81001, Note_off_c, 0, 55, 45
1, 81002, Control_c, 0, 67, 79
1, 81033, Note_off_c, 0, 64, 55
1, 81041, Note_off_c, 0, 59, 55
1, 81076, Control_c, 0, 67, 80
1, 81105, Control_c, 0, 67, 80
1, 81135, Control_c, 0, 67, 81
1, 81172, Control_c, 0, 64, 104
1, 81187, Control_c, 0, 64, 104
1, 81202, Control_c, 0, 67, 81
1, 81217, Control_c, 0, 64, 103
1, 81231, Control_c, 0, 64, 103
1, 81261, Control_c, 0, 64, 102
1, 81261, Control_c, 0, 67, 82
1, 81276, Control_c, 0, 64, 101
1, 81291, Control_c, 0, 64, 101
1, 81305, Control_c, 0, 64, 100
1, 81320, Control_c, 0, 64, 100
1, 81326, Note_on_c, 0, 78, 65
1, 81335, Control_c, 0, 64, 99
1, 81349, Control_c, 0, 64, 98
1, 81364, Control_c, 0, 64, 97
1, 81379, Control_c, 0, 64, 96
1, 81385, Note_on_c, 0, 64, 30
1, 81394, Control_c, 0, 64, 95
1, 81400, Note_on_c, 0, 58, 35
1, 81403, Note_on_c, 0, 54, 31
1, 81409, Control_c, 0, 64, 94
1, 81423, Control_c, 0, 64, 92
1, 81438, Control_c, 0, 64, 89
1, 81453, Control_c, 0, 64, 86
1, 81468, Control_c, 0, 64, 80
1, 81484, Control_c, 0, 64, 73
1, 81499, Control_c, 0, 64, 65
1, 81514, Control_c, 0, 64, 54
1, 81519, Note_off_c, 0, 76, 56
1, 81528, Control_c, 0, 64, 36
1, 81543, Control_c, 0, 64, 0
1, 81588, Control_c, 0, 64, 23
1, 81602, Control_c, 0, 64, 42
1, 81617, Control_c, 0, 64, 55
1, 81632, Control_c, 0, 64, 61
1, 81646, Control_c, 0, 64, 64
1, 81661, Control_c, 0, 64, 66
1, 81676, Control_c, 0, 64, 69
1, 81691, Control_c, 0, 64, 72
1, 81706, Control_c, 0, 64, 75
1, 81721, Control_c, 0, 64, 77
1, 81736, Control_c, 0, 64, 79
1, 81751, Control_c, 0, 64, 80
1, 81766, Control_c, 0, 64, 81
1, 81780, Control_c, 0, 64, 82
1, 81808, Control_c, 0, 64, 83
1, 81838, Control_c, 0, 67, 81
1, 81852, Control_c, 0, 64, 83
1, 81872, Note_off_c, 0, 54, 30
1, 81882, Note_off_c, 0, 58, 35
1, 81917, Note_off_c, 0, 64, 40
1, 82008, Control_c, 0, 67, 82
1, 82171, Control_c, 0, 64, 83
1, 82234, Note_on_c, 0, 75, 55
1, 82275, Control_c, 0, 64, 82
1, 82289, Note_on_c, 0, 54, 30
1, 82299, Note_on_c, 0, 58, 30
1, 82305, Note_on_c, 0, 63, 31
1, 82305, Control_c, 0, 64, 82
1, 82320, Control_c, 0, 64, 81
1, 82335, Control_c, 0, 64, 79
1, 82350, Control_c, 0, 64, 76
1, 82365, Control_c, 0, 64, 69
1, 82380, Control_c, 0, 64, 61
1, 82394, Control_c, 0, 64, 46
1, 82409, Control_c, 0, 64, 12
1, 82416, Note_off_c, 0, 78, 52
1, 82424, Control_c, 0, 64, 0
1, 82439, Control_c, 0, 64, 13
1, 82454, Control_c, 0, 64, 37
1, 82468, Control_c, 0, 64, 54
1, 82483, Control_c, 0, 64, 61
1, 82498, Control_c, 0, 64, 65
1, 82498, Control_c, 0, 67, 81
1, 82513, Control_c, 0, 64, 69
1, 82528, Control_c, 0, 64, 73
1, 82528, Control_c, 0, 67, 81
1, 82542, Control_c, 0, 64, 78
1, 82558, Control_c, 0, 64, 81
1, 82558, Control_c, 0, 67, 80
1, 82573, Control_c, 0, 64, 83
1, 82588, Control_c, 0, 64, 86
1, 82602, Control_c, 0, 64, 89
1, 82617, Control_c, 0, 64, 92
1, 82632, Control_c, 0, 64, 94
1, 82637, Note_off_c, 0, 54, 38
1, 82654, Control_c, 0, 64, 96
1, 82669, Control_c, 0, 64, 98
1, 82672, Note_off_c, 0, 63, 39
1, 82684, Control_c, 0, 64, 101
1, 82684, Control_c, 0, 67, 80
1, 82699, Control_c, 0, 64, 103
1, 82711, Note_off_c, 0, 58, 40
1, 82714, Control_c, 0, 64, 105
1, 82714, Control_c, 0, 67, 79
1, 82728, Control_c, 0, 64, 106
1, 82743, Control_c, 0, 64, 107
1, 82758, Control_c, 0, 64, 108
1, 82773, Control_c, 0, 64, 109
1, 82788, Control_c, 0, 64, 110
1, 82802, Control_c, 0, 64, 111
1, 82862, Control_c, 0, 64, 111
1, 82907, Note_on_c, 0, 54, 32
1, 82907, Note_on_c, 0, 58, 34
1, 82910, Note_on_c, 0, 63, 40
1, 83054, Control_c, 0, 67, 80
1, 83114, Control_c, 0, 64, 111
1, 83114, Control_c, 0, 67, 80
1, 83137, Note_off_c, 0, 54, 41
1, 83155, Note_off_c, 0, 58, 41
1, 83173, Note_off_c, 0, 63, 34
1, 83173, Control_c, 0, 67, 81
1, 83232, Control_c, 0, 67, 81
1, 83307, Control_c, 0, 67, 82
1, 83322, Control_c, 0, 64, 110
1, 83337, Control_c, 0, 64, 109
1, 83341, Note_on_c, 0, 77, 65
1, 83352, Control_c, 0, 64, 109
1, 83366, Control_c, 0, 64, 107
1, 83381, Control_c, 0, 64, 106
1, 83403, Control_c, 0, 64, 104
1, 83418, Control_c, 0, 64, 102
1, 83428, Note_on_c, 0, 63, 31
1, 83429, Note_on_c, 0, 57, 35
1, 83432, Control_c, 0, 64, 99
1, 83434, Note_on_c, 0, 53, 27
1, 83447, Control_c, 0, 64, 96
1, 83462, Control_c, 0, 64, 90
1, 83477, Control_c, 0, 64, 80
1, 83492, Control_c, 0, 64, 71
1, 83492, Control_c, 0, 67, 82
1, 83507, Control_c, 0, 64, 63
1, 83521, Control_c, 0, 64, 52
1, 83536, Control_c, 0, 64, 29
1, 83551, Control_c, 0, 64, 0
1, 83566, Control_c, 0, 67, 83
1, 83576, Note_off_c, 0, 75, 61
1, 83596, Control_c, 0, 64, 27
1, 83611, Control_c, 0, 64, 45
1, 83611, Control_c, 0, 67, 82
1, 83625, Control_c, 0, 64, 56
1, 83640, Control_c, 0, 64, 62
1, 83655, Control_c, 0, 64, 65
1, 83655, Control_c, 0, 67, 82
1, 83670, Control_c, 0, 64, 68
1, 83685, Control_c, 0, 64, 73
1, 83699, Control_c, 0, 64, 77
1, 83714, Control_c, 0, 64, 80
1, 83729, Control_c, 0, 64, 82
1, 83729, Control_c, 0, 67, 81
1, 83743, Control_c, 0, 64, 84
1, 83758, Control_c, 0, 64, 86
1, 83773, Control_c, 0, 64, 87
1, 83788, Control_c, 0, 64, 88
1, 83790, Note_off_c, 0, 63, 43
1, 83802, Note_off_c, 0, 53, 35
1, 83832, Control_c, 0, 64, 88
1, 83858, Note_off_c, 0, 57, 35
1, 83937, Control_c, 0, 67, 81
1, 83996, Control_c, 0, 67, 81
1, 84129, Note_on_c, 0, 74, 56
1, 84130, Control_c, 0, 67, 82
1, 84182, Control_c, 0, 67, 82
1, 84189, Note_on_c, 0, 57, 32
1, 84195, Note_on_c, 0, 53, 27
1, 84196, Control_c, 0, 64, 88
1, 84198, Note_on_c, 0, 62, 29
1, 84211, Control_c, 0, 64, 86
1, 84226, Control_c, 0, 64, 83
1, 84240, Control_c, 0, 64, 78
1, 84255, Control_c, 0, 64, 70
1, 84270, Control_c, 0, 64, 61
1, 84270, Control_c, 0, 67, 83
1, 84285, Control_c, 0, 64, 41
1, 84300, Control_c, 0, 64, 10
1, 84315, Control_c, 0, 64, 17
1, 84315, Control_c, 0, 67, 82
1, 84329, Control_c, 0, 64, 42
1, 84335, Note_off_c, 0, 77, 58
1, 84344, Control_c, 0, 64, 58
1, 84359, Control_c, 0, 64, 66
1, 84359, Control_c, 0, 67, 82
1, 84374, Control_c, 0, 64, 70
1, 84374, Control_c, 0, 67, 81
1, 84389, Control_c, 0, 64, 78
1, 84404, Control_c, 0, 64, 83
1, 84404, Control_c, 0, 67, 81
1, 84419, Control_c, 0, 64, 87
1, 84434, Control_c, 0, 64, 90
1, 84434, Control_c, 0, 67, 80
1, 84447, Note_off_c, 0, 53, 41
1, 84448, Control_c, 0, 64, 93
1, 84453, Note_off_c, 0, 62, 42
1, 84463, Control_c, 0, 64, 97
1, 84478, Control_c, 0, 64, 100
1, 84478, Control_c, 0, 67, 80
1, 84484, Note_off_c, 0, 57, 41
1, 84493, Control_c, 0, 64, 103
1, 84508, Control_c, 0, 64, 106
1, 84522, Control_c, 0, 64, 109
1, 84537, Control_c, 0, 64, 111
1, 84552, Control_c, 0, 64, 113
1, 84566, Control_c, 0, 64, 113
1, 84572, Note_off_c, 0, 74, 58
1, 84581, Control_c, 0, 64, 114
1, 84596, Control_c, 0, 64, 115
1, 84610, Note_on_c, 0, 57, 38
1, 84614, Note_on_c, 0, 62, 38
1, 84626, Control_c, 0, 64, 115
1, 84630, Note_on_c, 0, 53, 35
1, 84640, Control_c, 0, 64, 116
1, 84792, Note_off_c, 0, 53, 44
1, 84792, Note_off_c, 0, 57, 59
1, 84824, Note_off_c, 0, 62, 34
1, 84848, Control_c, 0, 64, 115
1, 84878, Control_c, 0, 67, 80
1, 84959, Control_c, 0, 64, 115
1, 84974, Control_c, 0, 64, 113
1, 84988, Control_c, 0, 64, 110
1, 85003, Control_c, 0, 64, 108
1, 85018, Control_c, 0, 64, 106
1, 85033, Control_c, 0, 64, 105
1, 85045, Note_on_c, 0, 76, 59
1, 85048, Control_c, 0, 64, 102
1, 85063, Control_c, 0, 64, 99
1, 85077, Control_c, 0, 64, 96
1, 85083, Note_on_c, 0, 62, 31
1, 85084, Note_on_c, 0, 56, 31
1, 85088, Note_on_c, 0, 52, 35
1, 85092, Control_c, 0, 64, 89
1, 85107, Control_c, 0, 64, 83
1, 85122, Control_c, 0, 64, 76
1, 85137, Control_c, 0, 64, 70
1, 85152, Control_c, 0, 64, 64
1, 85167, Control_c, 0, 64, 57
1, 85182, Control_c, 0, 64, 45
1, 85196, Control_c, 0, 64, 30
1, 85196, Control_c, 0, 67, 81
1, 85211, Control_c, 0, 64, 0
1, 85230, Note_on_c, 0, 71, 54
1, 85334, Note_off_c, 0, 76, 59
1, 85359, Control_c, 0, 64, 21
1, 85359, Control_c, 0, 67, 80
1, 85374, Control_c, 0, 64, 43
1, 85374, Control_c, 0, 67, 80
1, 85388, Control_c, 0, 64, 58
1, 85403, Control_c, 0, 64, 62
1, 85403, Control_c, 0, 67, 79
1, 85418, Control_c, 0, 64, 65
1, 85418, Control_c, 0, 67, 79
1, 85433, Control_c, 0, 64, 67
1, 85448, Control_c, 0, 64, 70
1, 85448, Control_c, 0, 67, 78
1, 85464, Control_c, 0, 64, 74
1, 85464, Control_c, 0, 67, 77
1, 85466, Note_off_c, 0, 52, 40
1, 85479, Control_c, 0, 64, 79
1, 85479, Control_c, 0, 67, 74
1, 85493, Control_c, 0, 64, 81
1, 85493, Control_c, 0, 67, 68
1, 85495, Note_off_c, 0, 62, 41
1, 85508, Control_c, 0, 64, 84
1, 85508, Control_c, 0, 67, 64
1, 85522, Note_off_c, 0, 56, 41
1, 85523, Control_c, 0, 64, 87
1, 85523, Control_c, 0, 67, 61
1, 85538, Control_c, 0, 64, 89
1, 85538, Control_c, 0, 67, 59
1, 85554, Control_c, 0, 64, 92
1, 85554, Control_c, 0, 67, 58
1, 85568, Control_c, 0, 64, 94
1, 85568, Control_c, 0, 67, 57
1, 85583, Control_c, 0, 64, 97
1, 85598, Control_c, 0, 64, 99
1, 85612, Control_c, 0, 64, 101
1, 85627, Control_c, 0, 64, 103
1, 85650, Control_c, 0, 64, 104
1, 85665, Control_c, 0, 64, 105
1, 85680, Control_c, 0, 64, 106
1, 85694, Control_c, 0, 64, 106
1, 85723, Note_off_c, 0, 71, 53
1, 85724, Control_c, 0, 64, 107
1, 85739, Control_c, 0, 64, 107
1, 85745, Note_on_c, 0, 56, 25
1, 85748, Note_on_c, 0, 62, 34
1, 85750, Note_on_c, 0, 52, 32
1, 85872, Control_c, 0, 64, 108
1, 85972, Note_off_c, 0, 62, 45
1, 85972, Note_off_c, 0, 52, 42
1, 86002, Note_off_c, 0, 56, 40
1, 86139, Control_c, 0, 67, 58
1, 86142, Note_on_c, 0, 56, 33
1, 86146, Note_on_c, 0, 62, 39
1, 86150, Note_on_c, 0, 52, 35
1, 86257, Control_c, 0, 67, 58
1, 86300, Note_off_c, 0, 62, 55
1, 86306, Note_off_c, 0, 52, 45
1, 86313, Note_off_c, 0, 56, 41
1, 86428, Control_c, 0, 67, 59
1, 86458, Control_c, 0, 64, 107
1, 86487, Control_c, 0, 64, 106
1, 86487, Control_c, 0, 67, 59
1, 86492, Note_on_c, 0, 72, 53
1, 86502, Control_c, 0, 64, 103
1, 86517, Control_c, 0, 64, 97
1, 86517, Control_c, 0, 67, 60
1, 86522, Note_on_c, 0, 57, 33
1, 86523, Note_on_c, 0, 62, 35
1, 86531, Note_on_c, 0, 52, 28
1, 86532, Control_c, 0, 64, 90
1, 86547, Control_c, 0, 64, 81
1, 86547, Control_c, 0, 67, 60
1, 86562, Control_c, 0, 64, 71
1, 86577, Control_c, 0, 64, 62
1, 86591, Control_c, 0, 64, 43
1, 86606, Control_c, 0, 64, 19
1, 86621, Control_c, 0, 64, 16
1, 86636, Control_c, 0, 64, 30
1, 86650, Control_c, 0, 64, 44
1, 86665, Control_c, 0, 64, 55
1, 86667, Note_on_c, 0, 68, 55
1, 86680, Control_c, 0, 64, 61
1, 86695, Note_off_c, 0, 52, 51
1, 86695, Control_c, 0, 64, 66
1, 86710, Control_c, 0, 64, 69
1, 86724, Control_c, 0, 64, 73
1, 86724, Control_c, 0, 67, 60
1, 86734, Note_off_c, 0, 62, 48
1, 86739, Control_c, 0, 64, 76
1, 86754, Control_c, 0, 64, 77
1, 86768, Control_c, 0, 64, 78
1, 86772, Note_off_c, 0, 57, 39
1, 86783, Control_c, 0, 64, 79
1, 86798, Control_c, 0, 64, 80
1, 86813, Control_c, 0, 64, 81
1, 86828, Control_c, 0, 64, 82
1, 86860, Note_on_c, 0, 62, 43
1, 86883, Note_on_c, 0, 59, 49
1, 86887, Control_c, 0, 64, 79
1, 86900, Note_on_c, 0, 52, 38
1, 86902, Control_c, 0, 64, 71
1, 86902, Control_c, 0, 67, 60
1, 86906, Note_off_c, 0, 72, 35
1, 86917, Control_c, 0, 64, 61
1, 86932, Control_c, 0, 64, 44
1, 86946, Control_c, 0, 64, 19
1, 86961, Control_c, 0, 64, 26
1, 86976, Control_c, 0, 64, 45
1, 86991, Control_c, 0, 64, 59
1, 87006, Control_c, 0, 64, 64
1, 87021, Control_c, 0, 64, 67
1, 87035, Control_c, 0, 64, 70
1, 87050, Control_c, 0, 64, 76
1, 87050, Control_c, 0, 67, 60
1, 87052, Note_off_c, 0, 68, 64
1, 87066, Control_c, 0, 64, 81
1, 87081, Control_c, 0, 64, 84
1, 87081, Control_c, 0, 67, 59
1, 87096, Control_c, 0, 64, 87
1, 87110, Control_c, 0, 64, 89
1, 87121, Note_off_c, 0, 52, 35
1, 87123, Note_off_c, 0, 59, 62
1, 87125, Control_c, 0, 64, 92
1, 87128, Note_off_c, 0, 62, 42
1, 87147, Control_c, 0, 64, 94
1, 87147, Control_c, 0, 67, 59
1, 87162, Control_c, 0, 64, 96
1, 87177, Control_c, 0, 64, 97
1, 87191, Control_c, 0, 64, 98
1, 87206, Control_c, 0, 64, 99
1, 87221, Control_c, 0, 64, 99
1, 87236, Control_c, 0, 64, 100
1, 87249, Note_on_c, 0, 62, 45
1, 87257, Note_on_c, 0, 52, 46
1, 87276, Note_on_c, 0, 59, 47
1, 87349, Note_off_c, 0, 62, 51
1, 87385, Note_off_c, 0, 59, 62
1, 87399, Control_c, 0, 67, 59
1, 87429, Control_c, 0, 67, 60
1, 87432, Note_on_c, 0, 71, 63
1, 87444, Control_c, 0, 67, 60
1, 87444, Note_off_c, 0, 52, 32
1, 87591, Control_c, 0, 67, 60
1, 87608, Note_off_c, 0, 71, 64
1, 87665, Control_c, 0, 64, 97
1, 87665, Control_c, 0, 67, 60
1, 87680, Control_c, 0, 64, 86
1, 87688, Note_on_c, 0, 71, 62
1, 87695, Control_c, 0, 64, 70
1, 87695, Control_c, 0, 67, 61
1, 87710, Control_c, 0, 64, 58
1, 87717, Note_on_c, 0, 45, 38
1, 87725, Control_c, 0, 64, 40
1, 87725, Control_c, 0, 67, 61
1, 87739, Control_c, 0, 64, 34
1, 87754, Control_c, 0, 64, 48
1, 87769, Control_c, 0, 64, 60
1, 87780, Note_off_c, 0, 71, 59
1, 87784, Control_c, 0, 64, 66
1, 87799, Control_c, 0, 64, 70
1, 87814, Control_c, 0, 64, 75
1, 87829, Control_c, 0, 64, 80
1, 87844, Control_c, 0, 64, 83
1, 87859, Control_c, 0, 64, 85
1, 87865, Note_on_c, 0, 71, 62
1, 87874, Control_c, 0, 64, 86
1, 87896, Control_c, 0, 64, 86
1, 87898, Note_off_c, 0, 45, 64
1, 87911, Control_c, 0, 64, 87
1, 87926, Control_c, 0, 67, 62
1, 87941, Control_c, 0, 64, 87
1, 87956, Control_c, 0, 67, 62
1, 87982, Note_off_c, 0, 71, 31
1, 88010, Note_on_c, 0, 72, 73
1, 88014, Control_c, 0, 64, 88
1, 88108, Note_on_c, 0, 71, 69
1, 88129, Note_off_c, 0, 72, 52
1, 88192, Control_c, 0, 67, 63
1, 88207, Control_c, 0, 64, 87
1, 88207, Control_c, 0, 67, 63
1, 88222, Control_c, 0, 64, 85
1, 88230, Note_off_c, 0, 71, 58
1, 88234, Note_on_c, 0, 69, 68
1, 88237, Control_c, 0, 64, 82
1, 88251, Note_on_c, 0, 65, 45
1, 88252, Control_c, 0, 64, 76
1, 88254, Note_on_c, 0, 57, 41
1, 88255, Note_on_c, 0, 62, 40
1, 88267, Control_c, 0, 64, 68
1, 88282, Control_c, 0, 64, 57
1, 88296, Control_c, 0, 64, 35
1, 88311, Control_c, 0, 64, 27
1, 88326, Control_c, 0, 64, 42
1, 88341, Control_c, 0, 64, 57
1, 88347, Note_on_c, 0, 71, 67
1, 88356, Control_c, 0, 64, 63
1, 88370, Control_c, 0, 64, 66
1, 88384, Note_off_c, 0, 69, 57
1, 88385, Control_c, 0, 64, 70
1, 88400, Control_c, 0, 64, 76
1, 88414, Control_c, 0, 64, 80
1, 88429, Control_c, 0, 64, 82
1, 88429, Control_c, 0, 67, 64
1, 88444, Control_c, 0, 64, 82
1, 88444, Control_c, 0, 67, 65
1, 88459, Control_c, 0, 64, 83
1, 88459, Control_c, 0, 67, 66
1, 88470, Note_off_c, 0, 65, 0
1, 88474, Control_c, 0, 67, 67
1, 88476, Note_on_c, 0, 72, 69
1, 88488, Control_c, 0, 64, 83
1, 88488, Control_c, 0, 67, 68
1, 88503, Control_c, 0, 67, 69
1, 88505, Poly_aftertouch_c, 0, 65, 0
1, 88508, Note_off_c, 0, 57, 30
1, 88518, Control_c, 0, 67, 70
1, 88525, Note_off_c, 0, 62, 42
1, 88533, Control_c, 0, 67, 70
1, 88547, Control_c, 0, 67, 71
1, 88560, Note_off_c, 0, 71, 58
1, 88562, Control_c, 0, 67, 71
1, 88592, Control_c, 0, 67, 72
1, 88606, Control_c, 0, 67, 73
1, 88621, Control_c, 0, 67, 78
1, 88643, Control_c, 0, 67, 82
1, 88659, Control_c, 0, 67, 84
1, 88674, Control_c, 0, 67, 85
1, 88689, Control_c, 0, 67, 86
1, 88690, Note_on_c, 0, 76, 60
1, 88704, Control_c, 0, 64, 82
1, 88704, Control_c, 0, 67, 86
1, 88708, Note_off_c, 0, 72, 51
1, 88710, Note_on_c, 0, 62, 36
1, 88711, Note_on_c, 0, 57, 34
1, 88711, Note_on_c, 0, 65, 44
1, 88718, Control_c, 0, 64, 81
1, 88733, Control_c, 0, 64, 78
1, 88748, Control_c, 0, 64, 72
1, 88763, Control_c, 0, 64, 64
1, 88763, Control_c, 0, 67, 87
1, 88778, Control_c, 0, 64, 52
1, 88792, Control_c, 0, 64, 33
1, 88807, Control_c, 0, 64, 29
1, 88822, Control_c, 0, 64, 45
1, 88836, Control_c, 0, 64, 58
1, 88851, Control_c, 0, 64, 63
1, 88866, Control_c, 0, 64, 65
1, 88881, Control_c, 0, 64, 67
1, 88896, Control_c, 0, 64, 71
1, 88911, Control_c, 0, 64, 75
1, 88926, Control_c, 0, 64, 76
1, 88941, Control_c, 0, 64, 77
1, 88956, Control_c, 0, 64, 77
1, 88971, Control_c, 0, 64, 78
1, 88978, Note_on_c, 0, 74, 64
1, 88985, Control_c, 0, 64, 78
1, 89000, Control_c, 0, 64, 79
1, 89015, Control_c, 0, 67, 87
1, 89027, Note_off_c, 0, 65, 37
1, 89035, Note_off_c, 0, 57, 40
1, 89059, Control_c, 0, 64, 79
1, 89059, Control_c, 0, 67, 87
1, 89089, Control_c, 0, 67, 86
1, 89091, Note_on_c, 0, 69, 67
1, 89118, Control_c, 0, 67, 86
1, 89133, Control_c, 0, 67, 85
1, 89135, Note_off_c, 0, 62, 38
1, 89148, Control_c, 0, 67, 85
1, 89177, Control_c, 0, 67, 84
1, 89192, Control_c, 0, 67, 84
1, 89194, Note_off_c, 0, 76, 56
1, 89207, Control_c, 0, 67, 83
1, 89209, Note_off_c, 0, 69, 61
1, 89222, Control_c, 0, 67, 83
1, 89227, Note_off_c, 0, 74, 61
1, 89236, Control_c, 0, 67, 82
1, 89272, Note_on_c, 0, 65, 46
1, 89275, Note_on_c, 0, 60, 44
1, 89285, Note_on_c, 0, 57, 46
1, 89297, Control_c, 0, 67, 82
1, 89326, Control_c, 0, 64, 79
1, 89341, Control_c, 0, 64, 77
1, 89355, Control_c, 0, 64, 75
1, 89370, Control_c, 0, 64, 71
1, 89371, Note_on_c, 0, 69, 69
1, 89393, Control_c, 0, 64, 67
1, 89408, Control_c, 0, 64, 60
1, 89423, Control_c, 0, 64, 48
1, 89437, Control_c, 0, 64, 21
1, 89452, Control_c, 0, 64, 0
1, 89491, Note_on_c, 0, 72, 69
1, 89504, Note_off_c, 0, 69, 65
1, 89513, Control_c, 0, 67, 81
1, 89542, Control_c, 0, 67, 80
1, 89557, Control_c, 0, 64, 33
1, 89572, Control_c, 0, 64, 50
1, 89572, Control_c, 0, 67, 80
1, 89587, Control_c, 0, 64, 59
1, 89587, Control_c, 0, 67, 79
1, 89602, Control_c, 0, 64, 63
1, 89602, Control_c, 0, 67, 79
1, 89616, Control_c, 0, 64, 65
1, 89616, Control_c, 0, 67, 78
1, 89631, Control_c, 0, 64, 68
1, 89631, Control_c, 0, 67, 78
1, 89646, Control_c, 0, 64, 72
1, 89646, Control_c, 0, 67, 77
1, 89660, Control_c, 0, 64, 75
1, 89670, Note_off_c, 0, 65, 58
1, 89673, Note_off_c, 0, 57, 55
1, 89675, Control_c, 0, 64, 78
1, 89675, Control_c, 0, 67, 77
1, 89690, Control_c, 0, 64, 80
1, 89691, Note_off_c, 0, 60, 56
1, 89705, Control_c, 0, 64, 81
1, 89720, Control_c, 0, 64, 83
1, 89734, Control_c, 0, 64, 84
1, 89749, Control_c, 0, 64, 84
1, 89782, Note_off_c, 0, 72, 59
1, 89803, Note_on_c, 0, 65, 49
1, 89805, Note_on_c, 0, 60, 46
1, 89812, Note_on_c, 0, 57, 51
1, 89823, Control_c, 0, 67, 77
1, 89954, Note_off_c, 0, 57, 55
1, 89966, Note_off_c, 0, 60, 61
1, 89972, Control_c, 0, 67, 78
1, 90005, Note_off_c, 0, 65, 34
1, 90120, Control_c, 0, 67, 77
1, 90153, Note_on_c, 0, 71, 65
1, 90164, Note_on_c, 0, 65, 34
1, 90172, Control_c, 0, 64, 84
1, 90186, Control_c, 0, 64, 83
1, 90188, Note_on_c, 0, 56, 42
1, 90190, Note_on_c, 0, 60, 35
1, 90201, Control_c, 0, 64, 82
1, 90216, Control_c, 0, 64, 80
1, 90231, Control_c, 0, 64, 78
1, 90246, Control_c, 0, 64, 73
1, 90261, Control_c, 0, 64, 68
1, 90276, Control_c, 0, 64, 59
1, 90276, Control_c, 0, 67, 78
1, 90291, Control_c, 0, 64, 43
1, 90306, Control_c, 0, 64, 0
1, 90351, Control_c, 0, 64, 36
1, 90365, Control_c, 0, 64, 53
1, 90371, Note_on_c, 0, 72, 74
1, 90380, Control_c, 0, 64, 61
1, 90395, Control_c, 0, 64, 64
1, 90409, Control_c, 0, 64, 66
1, 90411, Note_off_c, 0, 71, 59
1, 90424, Control_c, 0, 64, 67
1, 90424, Control_c, 0, 67, 77
1, 90439, Control_c, 0, 64, 69
1, 90454, Control_c, 0, 64, 70
1, 90454, Control_c, 0, 67, 77
1, 90469, Control_c, 0, 64, 71
1, 90476, Note_off_c, 0, 60, 37
1, 90483, Control_c, 0, 64, 71
1, 90509, Note_on_c, 0, 73, 70
1, 90513, Control_c, 0, 64, 72
1, 90513, Control_c, 0, 67, 76
1, 90528, Control_c, 0, 64, 72
1, 90535, Note_off_c, 0, 65, 42
1, 90543, Control_c, 0, 64, 73
1, 90544, Note_off_c, 0, 72, 58
1, 90554, Note_off_c, 0, 56, 57
1, 90632, Note_off_c, 0, 73, 63
1, 90640, Note_on_c, 0, 74, 71
1, 90643, Note_on_c, 0, 65, 48
1, 90646, Control_c, 0, 64, 70
1, 90646, Control_c, 0, 67, 77
1, 90661, Control_c, 0, 64, 65
1, 90665, Note_on_c, 0, 55, 42
1, 90673, Note_on_c, 0, 60, 30
1, 90676, Control_c, 0, 64, 56
1, 90690, Control_c, 0, 64, 36
1, 90705, Control_c, 0, 64, 17
1, 90720, Control_c, 0, 64, 34
1, 90735, Control_c, 0, 64, 51
1, 90750, Control_c, 0, 64, 59
1, 90763, Note_on_c, 0, 76, 70
1, 90765, Control_c, 0, 64, 62
1, 90769, Note_off_c, 0, 74, 63
1, 90780, Control_c, 0, 64, 64
1, 90795, Control_c, 0, 64, 66
1, 90809, Control_c, 0, 64, 68
1, 90824, Control_c, 0, 64, 69
1, 90839, Control_c, 0, 64, 70
1, 90839, Control_c, 0, 67, 76
1, 90854, Note_off_c, 0, 65, 53
1, 90854, Control_c, 0, 64, 70
1, 90858, Note_on_c, 0, 74, 62
1, 90872, Note_off_c, 0, 76, 57
1, 90887, Note_off_c, 0, 55, 35
1, 90905, Control_c, 0, 64, 71
1, 90920, Control_c, 0, 64, 71
1, 90933, Note_off_c, 0, 60, 55
1, 90938, Note_off_c, 0, 74, 64
1, 90948, Note_on_c, 0, 73, 62
1, 91007, Note_on_c, 0, 65, 38
1, 91009, Control_c, 0, 64, 69
1, 91009, Control_c, 0, 67, 77
1, 91009, Note_off_c, 0, 73, 63
1, 91019, Note_on_c, 0, 59, 44
1, 91021, Note_on_c, 0, 55, 44
1, 91024, Control_c, 0, 64, 62
1, 91029, Note_on_c, 0, 74, 59
1, 91039, Control_c, 0, 64, 51
1, 91039, Control_c, 0, 67, 77
1, 91054, Control_c, 0, 64, 29
1, 91054, Control_c, 0, 67, 78
1, 91069, Control_c, 0, 64, 0
1, 91084, Control_c, 0, 64, 25
1, 91084, Control_c, 0, 67, 78
1, 91096, Note_off_c, 0, 74, 64
1, 91098, Note_on_c, 0, 75, 63
1, 91099, Control_c, 0, 64, 47
1, 91099, Control_c, 0, 67, 79
1, 91114, Control_c, 0, 64, 59
1, 91114, Control_c, 0, 67, 79
1, 91129, Control_c, 0, 64, 62
1, 91129, Control_c, 0, 67, 80
1, 91144, Control_c, 0, 64, 63
1, 91144, Control_c, 0, 67, 80
1, 91158, Note_off_c, 0, 75, 62
1, 91158, Control_c, 0, 64, 64
1, 91173, Control_c, 0, 64, 65
1, 91173, Control_c, 0, 67, 81
1, 91183, Note_on_c, 0, 76, 67
1, 91188, Control_c, 0, 64, 65
1, 91188, Control_c, 0, 67, 82
1, 91203, Control_c, 0, 64, 66
1, 91203, Control_c, 0, 67, 83
1, 91218, Control_c, 0, 67, 84
1, 91232, Control_c, 0, 67, 84
1, 91247, Control_c, 0, 67, 85
1, 91248, Note_off_c, 0, 76, 61
1, 91262, Control_c, 0, 67, 86
1, 91265, Note_on_c, 0, 77, 57
1, 91277, Control_c, 0, 67, 87
1, 91303, Note_off_c, 0, 65, 41
1, 91304, Note_off_c, 0, 55, 34
1, 91306, Control_c, 0, 67, 87
1, 91321, Control_c, 0, 67, 88
1, 91322, Note_off_c, 0, 59, 56
1, 91330, Note_off_c, 0, 77, 61
1, 91336, Control_c, 0, 67, 88
1, 91340, Note_on_c, 0, 78, 60
1, 91351, Control_c, 0, 67, 89
1, 91366, Control_c, 0, 67, 92
1, 91380, Control_c, 0, 64, 65
1, 91380, Control_c, 0, 67, 95
1, 91391, Note_off_c, 0, 78, 58
1, 91395, Control_c, 0, 67, 97
1, 91424, Control_c, 0, 64, 65
1, 91424, Control_c, 0, 67, 97
1, 91429, Note_on_c, 0, 79, 59
1, 91439, Control_c, 0, 64, 64
1, 91454, Control_c, 0, 64, 64
1, 91454, Control_c, 0, 67, 98
1, 91484, Control_c, 0, 64, 63
1, 91484, Control_c, 0, 67, 99
1, 91498, Control_c, 0, 64, 63
1, 91498, Control_c, 0, 67, 100
1, 91511, Note_on_c, 0, 59, 7
1, 91513, Note_off_c, 0, 79, 59
1, 91513, Control_c, 0, 64, 62
1, 91521, Note_on_c, 0, 65, 30
1, 91525, Note_on_c, 0, 55, 27
1, 91528, Control_c, 0, 64, 62
1, 91531, Note_on_c, 0, 80, 48
1, 91558, Control_c, 0, 64, 61
1, 91603, Control_c, 0, 64, 61
1, 91618, Control_c, 0, 64, 60
1, 91639, Control_c, 0, 64, 60
1, 91654, Control_c, 0, 64, 59
1, 91669, Control_c, 0, 64, 59
1, 91669, Control_c, 0, 67, 99
1, 91684, Control_c, 0, 64, 58
1, 91699, Control_c, 0, 64, 57
1, 91713, Control_c, 0, 64, 55
1, 91728, Control_c, 0, 64, 52
1, 91728, Control_c, 0, 67, 99
1, 91743, Control_c, 0, 64, 44
1, 91752, Note_on_c, 0, 83, 44
1, 91758, Control_c, 0, 64, 30
1, 91773, Control_c, 0, 64, 0
1, 91773, Control_c, 0, 67, 98
1, 91787, Control_c, 0, 67, 98
1, 91805, Note_off_c, 0, 80, 44
1, 91817, Control_c, 0, 67, 97
1, 91832, Control_c, 0, 64, 26
1, 91832, Control_c, 0, 67, 96
1, 91847, Control_c, 0, 64, 44
1, 91847, Control_c, 0, 67, 96
1, 91862, Control_c, 0, 64, 55
1, 91862, Control_c, 0, 67, 95
1, 91877, Control_c, 0, 64, 60
1, 91877, Control_c, 0, 67, 95
1, 91892, Control_c, 0, 64, 62
1, 91892, Control_c, 0, 67, 94
1, 91907, Control_c, 0, 64, 63
1, 91907, Control_c, 0, 67, 93
1, 91922, Control_c, 0, 64, 65
1, 91937, Control_c, 0, 64, 66
1, 91937, Control_c, 0, 67, 93
1, 91951, Control_c, 0, 64, 67
1, 91951, Control_c, 0, 67, 92
1, 91966, Control_c, 0, 64, 68
1, 91981, Control_c, 0, 64, 70
1, 91981, Control_c, 0, 67, 92
1, 91996, Control_c, 0, 64, 71
1, 92011, Control_c, 0, 64, 72
1, 92011, Control_c, 0, 67, 91
1, 92026, Note_on_c, 0, 81, 44
1, 92026, Control_c, 0, 64, 73
1, 92041, Control_c, 0, 64, 74
1, 92041, Control_c, 0, 67, 91
1, 92056, Control_c, 0, 64, 75
1, 92070, Control_c, 0, 64, 76
1, 92085, Control_c, 0, 64, 77
1, 92097, Note_off_c, 0, 83, 37
1, 92100, Control_c, 0, 64, 79
1, 92100, Control_c, 0, 67, 90
1, 92115, Control_c, 0, 64, 79
1, 92129, Control_c, 0, 64, 80
1, 92144, Control_c, 0, 64, 81
1, 92145, Note_on_c, 0, 79, 48
1, 92152, Note_off_c, 0, 65, 38
1, 92161, Note_off_c, 0, 55, 36
1, 92188, Control_c, 0, 64, 81
1, 92188, Control_c, 0, 67, 90
1, 92214, Note_off_c, 0, 81, 33
1, 92230, Note_off_c, 0, 59, 41
1, 92247, Note_on_c, 0, 77, 47
1, 92294, Note_off_c, 0, 79, 34
1, 92418, Control_c, 0, 64, 81
1, 92435, Note_on_c, 0, 76, 48
1, 92448, Control_c, 0, 64, 80
1, 92459, Note_on_c, 0, 64, 29
1, 92462, Control_c, 0, 64, 79
1, 92467, Note_on_c, 0, 59, 20
1, 92467, Note_on_c, 0, 55, 24
1, 92477, Control_c, 0, 64, 79
1, 92477, Control_c, 0, 67, 90
1, 92492, Control_c, 0, 64, 78
1, 92499, Note_off_c, 0, 77, 35
1, 92507, Control_c, 0, 64, 76
1, 92522, Control_c, 0, 64, 72
1, 92536, Control_c, 0, 64, 67
1, 92551, Control_c, 0, 64, 61
1, 92566, Control_c, 0, 64, 49
1, 92580, Control_c, 0, 64, 27
1, 92595, Control_c, 0, 64, 0
1, 92610, Control_c, 0, 64, 18
1, 92625, Control_c, 0, 64, 43
1, 92625, Control_c, 0, 67, 90
1, 92640, Control_c, 0, 64, 57
1, 92656, Control_c, 0, 64, 65
1, 92671, Control_c, 0, 64, 68
1, 92671, Control_c, 0, 67, 89
1, 92685, Control_c, 0, 64, 72
1, 92700, Control_c, 0, 64, 76
1, 92700, Control_c, 0, 67, 89
1, 92715, Control_c, 0, 64, 79
1, 92715, Control_c, 0, 67, 88
1, 92730, Control_c, 0, 64, 82
1, 92745, Control_c, 0, 64, 84
1, 92745, Control_c, 0, 67, 88
1, 92759, Control_c, 0, 64, 86
1, 92774, Control_c, 0, 64, 88
1, 92789, Control_c, 0, 64, 89
1, 92794, Note_off_c, 0, 55, 40
1, 92796, Note_off_c, 0, 64, 41
1, 92804, Control_c, 0, 64, 90
1, 92819, Control_c, 0, 64, 92
1, 92826, Note_off_c, 0, 59, 42
1, 92834, Control_c, 0, 64, 93
1, 92849, Control_c, 0, 64, 94
1, 92864, Control_c, 0, 64, 95
1, 92878, Control_c, 0, 64, 96
1, 92893, Control_c, 0, 64, 96
1, 92908, Control_c, 0, 64, 97
1, 92923, Control_c, 0, 64, 97
1, 92938, Control_c, 0, 64, 98
1, 92952, Control_c, 0, 64, 98
1, 92967, Control_c, 0, 64, 99
1, 93011, Control_c, 0, 64, 99
1, 93026, Control_c, 0, 64, 100
1, 93084, Control_c, 0, 64, 100
1, 93099, Control_c, 0, 64, 101
1, 93100, Note_on_c, 0, 59, 26
1, 93106, Note_on_c, 0, 64, 24
1, 93109, Note_on_c, 0, 55, 24
1, 93181, Control_c, 0, 64, 101
1, 93240, Control_c, 0, 64, 102
1, 93240, Control_c, 0, 67, 87
1, 93311, Note_off_c, 0, 55, 41
1, 93314, Note_off_c, 0, 64, 43
1, 93320, Note_off_c, 0, 59, 52
1, 93388, Control_c, 0, 67, 88
1, 93515, Note_on_c, 0, 59, 15
1, 93515, Note_on_c, 0, 64, 31
1, 93522, Control_c, 0, 67, 87
1, 93532, Note_on_c, 0, 55, 29
1, 93582, Control_c, 0, 64, 101
1, 93674, Note_off_c, 0, 55, 49
1, 93700, Control_c, 0, 64, 101
1, 93702, Note_off_c, 0, 59, 56
1, 93704, Note_off_c, 0, 64, 47
1, 93730, Control_c, 0, 64, 100
1, 93745, Control_c, 0, 64, 100
1, 93745, Control_c, 0, 67, 88
1, 93774, Control_c, 0, 64, 99
1, 93804, Control_c, 0, 64, 99
1, 93819, Control_c, 0, 64, 98
1, 93848, Control_c, 0, 64, 98
1, 93863, Control_c, 0, 64, 97
1, 93901, Control_c, 0, 64, 97
1, 93915, Control_c, 0, 64, 96
1, 93945, Control_c, 0, 64, 96
1, 93960, Control_c, 0, 64, 95
1, 93975, Control_c, 0, 64, 95
1, 93989, Control_c, 0, 64, 94
1, 93989, Control_c, 0, 67, 88
1, 93990, Note_on_c, 0, 64, 34
1, 93991, Note_on_c, 0, 54, 31
1, 93994, Note_on_c, 0, 58, 33
1, 94004, Control_c, 0, 64, 92
1, 94019, Control_c, 0, 64, 88
1, 94033, Control_c, 0, 64, 80
1, 94048, Control_c, 0, 64, 70
1, 94063, Control_c, 0, 64, 60
1, 94078, Control_c, 0, 64, 46
1, 94093, Control_c, 0, 64, 33
1, 94107, Control_c, 0, 64, 37
1, 94122, Control_c, 0, 64, 52
1, 94122, Control_c, 0, 67, 88
1, 94137, Control_c, 0, 64, 63
1, 94151, Control_c, 0, 64, 68
1, 94166, Control_c, 0, 64, 71
1, 94181, Control_c, 0, 64, 75
1, 94196, Control_c, 0, 64, 78
1, 94211, Control_c, 0, 64, 79
1, 94211, Control_c, 0, 67, 87
1, 94226, Control_c, 0, 64, 80
1, 94241, Control_c, 0, 64, 81
1, 94271, Control_c, 0, 64, 81
1, 94278, Note_off_c, 0, 64, 41
1, 94279, Note_off_c, 0, 54, 40
1, 94286, Control_c, 0, 64, 82
1, 94317, Note_off_c, 0, 58, 36
1, 94345, Control_c, 0, 64, 82
1, 94405, Control_c, 0, 67, 88
1, 94561, Note_on_c, 0, 54, 27
1, 94563, Note_on_c, 0, 63, 28
1, 94572, Note_on_c, 0, 58, 22
1, 94679, Control_c, 0, 64, 82
1, 94679, Control_c, 0, 67, 88
1, 94690, Note_on_c, 0, 78, 47
1, 94718, Note_off_c, 0, 76, 33
1, 94842, Control_c, 0, 64, 81
1, 94856, Control_c, 0, 64, 80
1, 94856, Control_c, 0, 67, 89
1, 94871, Control_c, 0, 64, 77
1, 94883, Note_on_c, 0, 75, 48
1, 94886, Control_c, 0, 64, 72
1, 94901, Control_c, 0, 64, 65
1, 94901, Control_c, 0, 67, 89
1, 94916, Control_c, 0, 64, 55
1, 94930, Control_c, 0, 64, 36
1, 94945, Control_c, 0, 64, 0
1, 94950, Note_off_c, 0, 78, 27
1, 94974, Control_c, 0, 64, 34
1, 94989, Control_c, 0, 64, 53
1, 94989, Control_c, 0, 67, 89
1, 95004, Control_c, 0, 64, 64
1, 95019, Control_c, 0, 64, 68
1, 95034, Control_c, 0, 64, 73
1, 95034, Control_c, 0, 67, 88
1, 95050, Control_c, 0, 64, 76
1, 95065, Control_c, 0, 64, 79
1, 95079, Control_c, 0, 64, 82
1, 95079, Control_c, 0, 67, 88
1, 95094, Control_c, 0, 64, 84
1, 95109, Control_c, 0, 64, 85
1, 95124, Control_c, 0, 64, 87
1, 95139, Control_c, 0, 64, 88
1, 95149, Note_off_c, 0, 54, 37
1, 95153, Control_c, 0, 64, 88
1, 95157, Note_off_c, 0, 63, 42
1, 95168, Control_c, 0, 64, 89
1, 95184, Note_off_c, 0, 58, 41
1, 95198, Control_c, 0, 64, 90
1, 95242, Control_c, 0, 67, 88
1, 95349, Note_off_c, 0, 75, 36
1, 95446, Note_on_c, 0, 63, 23
1, 95451, Note_on_c, 0, 58, 26
1, 95452, Note_on_c, 0, 54, 26
1, 95604, Control_c, 0, 67, 89
1, 95617, Note_off_c, 0, 54, 38
1, 95630, Note_off_c, 0, 63, 42
1, 95650, Note_off_c, 0, 58, 37
1, 95664, Control_c, 0, 67, 89
1, 95833, Note_on_c, 0, 63, 23
1, 95841, Control_c, 0, 64, 89
1, 95847, Note_on_c, 0, 53, 29
1, 95851, Note_on_c, 0, 57, 30
1, 95901, Control_c, 0, 64, 89
1, 95931, Control_c, 0, 64, 88
1, 95946, Control_c, 0, 64, 87
1, 95961, Control_c, 0, 64, 85
1, 95967, Note_on_c, 0, 76, 47
1, 95976, Control_c, 0, 64, 81
1, 95991, Control_c, 0, 64, 73
1, 95991, Control_c, 0, 67, 90
1, 96005, Control_c, 0, 64, 64
1, 96020, Control_c, 0, 64, 51
1, 96035, Control_c, 0, 64, 26
1, 96035, Control_c, 0, 67, 90
1, 96050, Control_c, 0, 64, 25
1, 96065, Control_c, 0, 64, 43
1, 96080, Control_c, 0, 64, 57
1, 96094, Control_c, 0, 64, 63
1, 96094, Control_c, 0, 67, 91
1, 96109, Control_c, 0, 64, 66
1, 96131, Control_c, 0, 64, 69
1, 96146, Control_c, 0, 64, 72
1, 96155, Note_off_c, 0, 76, 56
1, 96161, Control_c, 0, 64, 74
1, 96171, Note_on_c, 0, 77, 46
1, 96175, Control_c, 0, 64, 76
1, 96190, Control_c, 0, 64, 76
1, 96220, Control_c, 0, 67, 91
1, 96235, Control_c, 0, 64, 77
1, 96246, Note_off_c, 0, 77, 59
1, 96250, Control_c, 0, 64, 77
1, 96250, Control_c, 0, 67, 92
1, 96253, Note_off_c, 0, 63, 43
1, 96265, Control_c, 0, 64, 78
1, 96269, Note_on_c, 0, 80, 55
1, 96277, Note_off_c, 0, 53, 34
1, 96342, Note_on_c, 0, 79, 60
1, 96342, Note_off_c, 0, 57, 36
1, 96369, Control_c, 0, 67, 91
1, 96413, Control_c, 0, 67, 91
1, 96416, Note_on_c, 0, 78, 61
1, 96416, Note_off_c, 0, 80, 29
1, 96429, Note_off_c, 0, 79, 58
1, 96457, Control_c, 0, 67, 90
1, 96475, Note_off_c, 0, 78, 61
1, 96484, Note_on_c, 0, 77, 62
1, 96557, Note_off_c, 0, 77, 60
1, 96566, Note_on_c, 0, 74, 61
1, 96590, Control_c, 0, 64, 77
1, 96604, Note_on_c, 0, 57, 36
1, 96605, Note_on_c, 0, 62, 35
1, 96605, Control_c, 0, 64, 74
1, 96606, Note_on_c, 0, 53, 31
1, 96620, Control_c, 0, 64, 69
1, 96634, Control_c, 0, 64, 62
1, 96650, Control_c, 0, 64, 47
1, 96665, Control_c, 0, 64, 27
1, 96680, Control_c, 0, 64, 28
1, 96695, Control_c, 0, 64, 47
1, 96710, Control_c, 0, 64, 61
1, 96710, Control_c, 0, 67, 90
1, 96724, Control_c, 0, 64, 68
1, 96739, Control_c, 0, 64, 74
1, 96739, Control_c, 0, 67, 89
1, 96754, Control_c, 0, 64, 82
1, 96769, Control_c, 0, 64, 87
1, 96769, Control_c, 0, 67, 89
1, 96785, Control_c, 0, 64, 91
1, 96799, Control_c, 0, 64, 95
1, 96799, Control_c, 0, 67, 88
1, 96804, Note_off_c, 0, 74, 65
1, 96814, Control_c, 0, 64, 98
1, 96829, Control_c, 0, 64, 100
1, 96843, Control_c, 0, 64, 101
1, 96857, Note_off_c, 0, 53, 39
1, 96857, Note_off_c, 0, 62, 43
1, 96877, Note_off_c, 0, 57, 48
1, 96881, Control_c, 0, 64, 102
1, 96881, Control_c, 0, 67, 89
1, 96896, Control_c, 0, 67, 89
1, 96989, Note_on_c, 0, 62, 45
1, 96997, Note_on_c, 0, 53, 40
1, 97000, Note_on_c, 0, 57, 45
1, 97040, Note_off_c, 0, 62, 55
1, 97067, Note_off_c, 0, 57, 57
1, 97090, Note_off_c, 0, 53, 53
1, 97120, Note_on_c, 0, 80, 62
1, 97132, Control_c, 0, 67, 90
1, 97162, Control_c, 0, 67, 90
1, 97192, Control_c, 0, 67, 91
1, 97251, Control_c, 0, 67, 91
1, 97311, Control_c, 0, 64, 101
1, 97325, Control_c, 0, 64, 96
1, 97325, Control_c, 0, 67, 92
1, 97335, Note_on_c, 0, 84, 69
1, 97340, Control_c, 0, 64, 87
1, 97355, Control_c, 0, 64, 73
1, 97355, Control_c, 0, 67, 92
1, 97369, Control_c, 0, 64, 61
1, 97384, Control_c, 0, 64, 40
1, 97384, Control_c, 0, 67, 93
1, 97391, Note_on_c, 0, 40, 39
1, 97393, Note_on_c, 0, 52, 33
1, 97399, Control_c, 0, 64, 12
1, 97399, Control_c, 0, 67, 93
1, 97414, Control_c, 0, 64, 34
1, 97417, Note_off_c, 0, 80, 62
1, 97429, Control_c, 0, 64, 58
1, 97429, Control_c, 0, 67, 94
1, 97445, Control_c, 0, 64, 66
1, 97445, Control_c, 0, 67, 95
1, 97460, Control_c, 0, 64, 73
1, 97460, Control_c, 0, 67, 98
1, 97474, Control_c, 0, 64, 78
1, 97474, Control_c, 0, 67, 99
1, 97489, Control_c, 0, 64, 80
1, 97489, Control_c, 0, 67, 100
1, 97499, Note_off_c, 0, 40, 62
1, 97504, Control_c, 0, 64, 82
1, 97504, Control_c, 0, 67, 101
1, 97519, Control_c, 0, 64, 84
1, 97519, Control_c, 0, 67, 102
1, 97526, Note_off_c, 0, 52, 54
1, 97534, Control_c, 0, 64, 85
1, 97534, Control_c, 0, 67, 106
1, 97548, Control_c, 0, 64, 85
1, 97563, Control_c, 0, 67, 107
1, 97578, Control_c, 0, 67, 107
1, 97688, Note_off_c, 0, 84, 57
1, 97719, Control_c, 0, 67, 107
1, 97721, Note_on_c, 0, 83, 62
1, 97743, Note_off_c, 0, 83, 61
1, 97778, Control_c, 0, 67, 106
1, 97807, Control_c, 0, 67, 106
1, 97809, Note_on_c, 0, 84, 53
1, 97837, Control_c, 0, 67, 105
1, 97860, Note_on_c, 0, 83, 47
1, 97867, Note_off_c, 0, 84, 44
1, 97881, Control_c, 0, 64, 85
1, 97896, Control_c, 0, 64, 83
1, 97896, Control_c, 0, 67, 105
1, 97911, Control_c, 0, 64, 80
1, 97926, Control_c, 0, 64, 74
1, 97926, Control_c, 0, 67, 104
1, 97940, Control_c, 0, 64, 66
1, 97940, Control_c, 0, 67, 104
1, 97943, Note_off_c, 0, 83, 58
1, 97945, Note_on_c, 0, 62, 29
1, 97949, Note_on_c, 0, 52, 26
1, 97949, Note_on_c, 0, 59, 29
1, 97955, Control_c, 0, 64, 52
1, 97957, Note_on_c, 0, 80, 47
1, 97970, Control_c, 0, 64, 29
1, 97970, Control_c, 0, 67, 103
1, 97985, Control_c, 0, 64, 0
1, 97985, Control_c, 0, 67, 102
1, 98000, Control_c, 0, 64, 23
1, 98000, Control_c, 0, 67, 102
1, 98015, Control_c, 0, 64, 46
1, 98015, Control_c, 0, 67, 101
1, 98029, Control_c, 0, 64, 59
1, 98029, Control_c, 0, 67, 101
1, 98044, Control_c, 0, 64, 64
1, 98059, Control_c, 0, 64, 68
1, 98059, Control_c, 0, 67, 100
1, 98074, Control_c, 0, 64, 71
1, 98074, Control_c, 0, 67, 100
1, 98086, Note_off_c, 0, 80, 62
1, 98089, Control_c, 0, 64, 74
1, 98104, Control_c, 0, 64, 76
1, 98104, Control_c, 0, 67, 99
1, 98119, Control_c, 0, 64, 78
1, 98134, Control_c, 0, 64, 79
1, 98148, Control_c, 0, 64, 80
1, 98148, Control_c, 0, 67, 100
1, 98162, Note_off_c, 0, 52, 44
1, 98170, Note_off_c, 0, 62, 42
1, 98189, Note_off_c, 0, 59, 41
1, 98193, Control_c, 0, 64, 81
1, 98297, Control_c, 0, 67, 100
1, 98630, Control_c, 0, 64, 80
1, 98645, Control_c, 0, 67, 100
1, 98675, Control_c, 0, 64, 80
1, 98704, Control_c, 0, 64, 79
1, 98745, Note_on_c, 0, 68, 36
1, 98778, Control_c, 0, 64, 79
1, 98791, Note_on_c, 0, 59, 23
1, 98793, Control_c, 0, 64, 78
1, 98794, Note_on_c, 0, 52, 34
1, 98796, Note_on_c, 0, 62, 33
1, 98808, Control_c, 0, 64, 78
1, 98822, Control_c, 0, 64, 76
1, 98837, Control_c, 0, 64, 72
1, 98852, Control_c, 0, 64, 66
1, 98867, Control_c, 0, 64, 56
1, 98882, Control_c, 0, 64, 44
1, 98897, Control_c, 0, 64, 39
1, 98897, Control_c, 0, 67, 99
1, 98912, Control_c, 0, 64, 49
1, 98912, Control_c, 0, 67, 99
1, 98927, Control_c, 0, 64, 59
1, 98941, Control_c, 0, 64, 64
1, 98941, Control_c, 0, 67, 98
1, 98956, Control_c, 0, 64, 68
1, 98971, Control_c, 0, 64, 71
1, 98971, Control_c, 0, 67, 98
1, 98977, Note_off_c, 0, 62, 42
1, 98986, Control_c, 0, 64, 74
1, 98986, Control_c, 0, 67, 97
1, 98995, Note_off_c, 0, 59, 42
1, 99001, Control_c, 0, 64, 76
1, 99015, Control_c, 0, 64, 78
1, 99019, Note_off_c, 0, 52, 28
1, 99029, Control_c, 0, 64, 78
1, 99045, Control_c, 0, 64, 79
1, 99045, Control_c, 0, 67, 97
1, 99090, Control_c, 0, 67, 97
1, 99349, Control_c, 0, 64, 78
1, 99362, Note_on_c, 0, 69, 39
1, 99379, Control_c, 0, 64, 78
1, 99408, Note_on_c, 0, 45, 21
1, 99408, Control_c, 0, 64, 77
1, 99423, Control_c, 0, 64, 76
1, 99438, Control_c, 0, 64, 74
1, 99452, Control_c, 0, 64, 71
1, 99467, Control_c, 0, 64, 65
1, 99475, Note_off_c, 0, 68, 36
1, 99480, Note_off_c, 0, 45, 0
1, 99482, Control_c, 0, 64, 55
1, 99497, Control_c, 0, 64, 33
1, 99497, Control_c, 0, 67, 98
1, 99512, Control_c, 0, 64, 0
1, 99517, Poly_aftertouch_c, 0, 45, 127
1, 99541, Control_c, 0, 64, 10
1, 99556, Control_c, 0, 64, 35
1, 99571, Control_c, 0, 64, 55
1, 99586, Control_c, 0, 64, 62
1, 99600, Control_c, 0, 64, 65
1, 99615, Control_c, 0, 64, 67
1, 99630, Control_c, 0, 64, 70
1, 99645, Control_c, 0, 64, 72
1, 99645, Control_c, 0, 67, 98
1, 99660, Control_c, 0, 64, 75
1, 99660, Control_c, 0, 67, 99
1, 99675, Control_c, 0, 64, 76
1, 99675, Control_c, 0, 67, 100
1, 99690, Control_c, 0, 64, 76
1, 99690, Control_c, 0, 67, 101
1, 99705, Control_c, 0, 64, 77
1, 99705, Control_c, 0, 67, 102
1, 99719, Control_c, 0, 64, 77
1, 99719, Control_c, 0, 67, 104
1, 99734, Control_c, 0, 67, 105
1, 99749, Control_c, 0, 67, 106
1, 99763, Control_c, 0, 67, 107
1, 99779, Control_c, 0, 67, 108
1, 99794, Control_c, 0, 67, 109
1, 99809, Control_c, 0, 67, 110
1, 99824, Control_c, 0, 67, 111
1, 99839, Control_c, 0, 64, 77
1, 99950, Control_c, 0, 67, 111
1, 99980, Control_c, 0, 67, 110
1, 99994, Control_c, 0, 67, 110
1, 100009, Control_c, 0, 67, 109
1, 100024, Control_c, 0, 67, 109
1, 100039, Control_c, 0, 67, 108
1, 100054, Control_c, 0, 67, 108
1, 100068, Control_c, 0, 67, 107
1, 100098, Control_c, 0, 67, 107
1, 100128, Control_c, 0, 67, 106
1, 100143, Control_c, 0, 67, 106
1, 100173, Control_c, 0, 67, 105
1, 100217, Control_c, 0, 67, 105
1, 100254, Note_on_c, 0, 61, 28
1, 100262, Control_c, 0, 67, 104
1, 100280, Note_on_c, 0, 57, 24
1, 100289, Note_on_c, 0, 52, 28
1, 100306, Control_c, 0, 67, 104
1, 100352, Note_off_c, 0, 52, 0
1, 100389, Poly_aftertouch_c, 0, 52, 127
1, 100479, Note_off_c, 0, 61, 36
1, 100528, Note_off_c, 0, 57, 36
1, 100557, Poly_aftertouch_c, 0, 52, 0
1, 100572, Control_c, 0, 67, 103
1, 100699, Control_c, 0, 67, 103
1, 101247, Control_c, 0, 67, 102
1, 101372, Note_on_c, 0, 61, 22
1, 101396, Note_on_c, 0, 52, 14
1, 101405, Note_on_c, 0, 57, 12
1, 101448, Control_c, 0, 67, 102
1, 101478, Control_c, 0, 67, 101
1, 101508, Control_c, 0, 67, 101
1, 101537, Control_c, 0, 67, 100
1, 101582, Control_c, 0, 67, 100
1, 101611, Control_c, 0, 67, 99
1, 101649, Note_off_c, 0, 57, 38
1, 101651, Note_off_c, 0, 61, 35
1, 101678, Poly_aftertouch_c, 0, 45, 0
1, 101700, Control_c, 0, 64, 77
1, 101700, Control_c, 0, 67, 99
1, 101736, Note_off_c, 0, 52, 36
1, 101759, Control_c, 0, 67, 98
1, 101954, Note_off_c, 0, 69, 43
1, 102331, Control_c, 0, 64, 77
1, 102389, Control_c, 0, 67, 99
1, 102419, Control_c, 0, 64, 76
1, 102537, Control_c, 0, 64, 76
1, 102578, Note_on_c, 0, 73, 37
1, 102614, Note_on_c, 0, 61, 31
1, 102615, Note_on_c, 0, 45, 30
1, 102626, Control_c, 0, 64, 75
1, 102641, Note_on_c, 0, 52, 28
1, 102641, Control_c, 0, 64, 74
1, 102656, Control_c, 0, 64, 71
1, 102671, Control_c, 0, 64, 65
1, 102686, Control_c, 0, 64, 55
1, 102701, Control_c, 0, 64, 47
1, 102715, Control_c, 0, 64, 51
1, 102730, Control_c, 0, 64, 59
1, 102745, Control_c, 0, 64, 64
1, 102760, Control_c, 0, 64, 67
1, 102775, Control_c, 0, 64, 71
1, 102789, Control_c, 0, 64, 74
1, 102804, Control_c, 0, 64, 77
1, 102819, Control_c, 0, 64, 78
1, 102834, Control_c, 0, 64, 79
1, 102839, Note_off_c, 0, 45, 40
1, 102907, Note_off_c, 0, 52, 38
1, 102977, Note_on_c, 0, 71, 42
1, 102989, Control_c, 0, 67, 99
1, 102993, Note_off_c, 0, 73, 38
1, 103040, Note_off_c, 0, 61, 37
1, 103112, Note_off_c, 0, 71, 47
1, 103198, Control_c, 0, 64, 77
1, 103212, Control_c, 0, 64, 73
1, 103215, Note_on_c, 0, 69, 42
1, 103227, Control_c, 0, 64, 67
1, 103236, Note_on_c, 0, 45, 27
1, 103236, Note_on_c, 0, 52, 30
1, 103242, Control_c, 0, 64, 60
1, 103246, Note_on_c, 0, 61, 29
1, 103257, Control_c, 0, 64, 53
1, 103271, Note_off_c, 0, 69, 0
1, 103271, Note_on_c, 0, 69, 6
1, 103272, Control_c, 0, 64, 55
1, 103286, Control_c, 0, 64, 62
1, 103286, Control_c, 0, 67, 99
1, 103301, Control_c, 0, 64, 64
1, 103316, Control_c, 0, 64, 67
1, 103331, Control_c, 0, 64, 69
1, 103346, Control_c, 0, 64, 73
1, 103360, Control_c, 0, 64, 76
1, 103375, Control_c, 0, 64, 78
1, 103390, Control_c, 0, 64, 79
1, 103405, Control_c, 0, 64, 80
1, 103420, Note_off_c, 0, 61, 39
1, 103422, Note_off_c, 0, 52, 38
1, 103437, Note_off_c, 0, 45, 38
1, 103449, Control_c, 0, 64, 80
1, 103451, Note_off_c, 0, 69, 55
1, 103464, Control_c, 0, 67, 99
1, 103479, Control_c, 0, 64, 81
1, 103493, Control_c, 0, 67, 100
1, 103523, Control_c, 0, 67, 100
1, 103568, Control_c, 0, 67, 101
1, 103568, Note_on_c, 0, 61, 36
1, 103580, Note_on_c, 0, 66, 45
1, 103583, Control_c, 0, 67, 101
1, 103595, Note_on_c, 0, 45, 21
1, 103612, Note_on_c, 0, 52, 25
1, 103619, Control_c, 0, 67, 102
1, 103666, Note_off_c, 0, 66, 37
1, 103679, Control_c, 0, 67, 102
1, 103723, Note_off_c, 0, 52, 36
1, 103727, Note_off_c, 0, 45, 40
1, 103768, Control_c, 0, 67, 102
1, 103783, Note_on_c, 0, 68, 49
1, 103812, Control_c, 0, 64, 80
1, 103842, Control_c, 0, 64, 80
1, 103857, Control_c, 0, 64, 79
1, 103872, Control_c, 0, 64, 78
1, 103872, Control_c, 0, 67, 102
1, 103876, Note_on_c, 0, 66, 58
1, 103887, Control_c, 0, 64, 75
1, 103896, Note_off_c, 0, 61, 39
1, 103902, Control_c, 0, 64, 73
1, 103902, Control_c, 0, 67, 103
1, 103917, Control_c, 0, 64, 70
1, 103917, Control_c, 0, 67, 103
1, 103932, Control_c, 0, 64, 66
1, 103932, Control_c, 0, 67, 104
1, 103943, Note_off_c, 0, 68, 48
1, 103947, Control_c, 0, 64, 62
1, 103961, Control_c, 0, 64, 56
1, 103961, Control_c, 0, 67, 105
1, 103967, Note_on_c, 0, 64, 45
1, 103972, Note_on_c, 0, 62, 41
1, 103973, Note_on_c, 0, 45, 27
1, 103976, Control_c, 0, 64, 51
1, 103976, Control_c, 0, 67, 105
1, 103982, Note_on_c, 0, 52, 30
1, 103991, Control_c, 0, 64, 47
1, 103991, Control_c, 0, 67, 106
1, 104006, Control_c, 0, 64, 44
1, 104006, Control_c, 0, 67, 107
1, 104021, Control_c, 0, 64, 38
1, 104021, Control_c, 0, 67, 108
1, 104026, Note_off_c, 0, 62, 55
1, 104031, Note_off_c, 0, 52, 54
1, 104035, Control_c, 0, 64, 30
1, 104035, Control_c, 0, 67, 109
1, 104037, Note_off_c, 0, 45, 57
1, 104050, Control_c, 0, 64, 19
1, 104050, Control_c, 0, 67, 110
1, 104051, Note_off_c, 0, 66, 35
1, 104065, Control_c, 0, 64, 13
1, 104065, Control_c, 0, 67, 110
1, 104080, Control_c, 0, 64, 13
1, 104080, Control_c, 0, 67, 111
1, 104095, Control_c, 0, 64, 11
1, 104095, Control_c, 0, 67, 112
1, 104109, Control_c, 0, 64, 0
1, 104109, Control_c, 0, 67, 113
1, 104124, Control_c, 0, 67, 116
1, 104139, Control_c, 0, 67, 117
1, 104154, Control_c, 0, 67, 117
1, 104160, Note_on_c, 0, 62, 48
1, 104169, Control_c, 0, 67, 118
1, 104222, Note_off_c, 0, 62, 59
1, 104242, Control_c, 0, 67, 117
1, 104272, Control_c, 0, 67, 117
1, 104302, Control_c, 0, 67, 116
1, 104316, Control_c, 0, 67, 116
1, 104331, Control_c, 0, 67, 115
1, 104346, Control_c, 0, 67, 114
1, 104368, Control_c, 0, 67, 114
1, 104383, Control_c, 0, 67, 113
1, 104398, Control_c, 0, 67, 113
1, 104413, Control_c, 0, 67, 112
1, 104426, Note_on_c, 0, 62, 38
1, 104428, Control_c, 0, 67, 111
1, 104442, Control_c, 0, 64, 8
1, 104442, Control_c, 0, 67, 110
1, 104445, Note_on_c, 0, 52, 27
1, 104450, Note_on_c, 0, 45, 12
1, 104457, Control_c, 0, 64, 20
1, 104457, Control_c, 0, 67, 109
1, 104472, Control_c, 0, 64, 29
1, 104472, Control_c, 0, 67, 109
1, 104487, Control_c, 0, 64, 41
1, 104487, Control_c, 0, 67, 108
1, 104502, Control_c, 0, 64, 49
1, 104502, Control_c, 0, 67, 107
1, 104516, Control_c, 0, 64, 54
1, 104516, Control_c, 0, 67, 106
1, 104531, Control_c, 0, 64, 57
1, 104531, Control_c, 0, 67, 106
1, 104546, Control_c, 0, 64, 60
1, 104546, Control_c, 0, 67, 105
1, 104561, Control_c, 0, 64, 62
1, 104561, Control_c, 0, 67, 105
1, 104576, Control_c, 0, 64, 64
1, 104576, Control_c, 0, 67, 104
1, 104589, Note_off_c, 0, 62, 55
1, 104590, Control_c, 0, 64, 66
1, 104601, Note_off_c, 0, 52, 49
1, 104605, Note_off_c, 0, 45, 54
1, 104605, Control_c, 0, 64, 68
1, 104605, Control_c, 0, 67, 104
1, 104620, Control_c, 0, 64, 70
1, 104636, Control_c, 0, 64, 71
1, 104651, Control_c, 0, 64, 72
1, 104665, Control_c, 0, 64, 73
1, 104680, Control_c, 0, 64, 74
1, 104695, Control_c, 0, 64, 74
1, 104739, Control_c, 0, 67, 103
1, 104755, Note_off_c, 0, 64, 33
1, 104778, Note_on_c, 0, 61, 40
1, 104838, Note_on_c, 0, 45, 16
1, 104840, Note_on_c, 0, 52, 21
1, 104844, Control_c, 0, 67, 103
1, 104848, Note_off_c, 0, 61, 55
1, 104888, Control_c, 0, 67, 102
1, 104907, Note_on_c, 0, 59, 54
1, 104907, Note_off_c, 0, 45, 42
1, 104912, Note_off_c, 0, 52, 42
1, 104929, Note_off_c, 0, 59, 64
1, 104932, Control_c, 0, 67, 101
1, 105050, Control_c, 0, 64, 73
1, 105050, Control_c, 0, 67, 102
1, 105064, Control_c, 0, 64, 70
1, 105073, Note_on_c, 0, 73, 60
1, 105076, Note_on_c, 0, 61, 53
1, 105079, Control_c, 0, 64, 63
1, 105094, Control_c, 0, 64, 54
1, 105094, Control_c, 0, 67, 101
1, 105097, Note_on_c, 0, 52, 17
1, 105109, Note_on_c, 0, 45, 24
1, 105117, Control_c, 0, 64, 41
1, 105132, Control_c, 0, 64, 37
1, 105146, Control_c, 0, 64, 45
1, 105146, Control_c, 0, 67, 101
1, 105161, Control_c, 0, 64, 53
1, 105161, Control_c, 0, 67, 100
1, 105176, Control_c, 0, 64, 58
1, 105176, Control_c, 0, 67, 100
1, 105190, Control_c, 0, 64, 61
1, 105190, Control_c, 0, 67, 98
1, 105205, Control_c, 0, 64, 64
1, 105220, Control_c, 0, 64, 66
1, 105225, Note_on_c, 0, 71, 55
1, 105235, Control_c, 0, 64, 68
1, 105250, Control_c, 0, 64, 69
1, 105264, Control_c, 0, 64, 70
1, 105265, Note_off_c, 0, 52, 46
1, 105266, Note_off_c, 0, 45, 55
1, 105279, Control_c, 0, 64, 70
1, 105279, Control_c, 0, 67, 99
1, 105285, Note_off_c, 0, 61, 35
1, 105294, Control_c, 0, 64, 71
1, 105309, Control_c, 0, 64, 72
1, 105309, Control_c, 0, 67, 99
1, 105323, Note_off_c, 0, 73, 31
1, 105324, Control_c, 0, 64, 72
1, 105368, Control_c, 0, 67, 100
1, 105398, Control_c, 0, 64, 71
1, 105410, Note_on_c, 0, 69, 52
1, 105413, Note_off_c, 0, 71, 55
1, 105413, Control_c, 0, 64, 68
1, 105416, Note_on_c, 0, 61, 46
1, 105427, Note_on_c, 0, 52, 25
1, 105428, Control_c, 0, 64, 63
1, 105443, Control_c, 0, 64, 55
1, 105448, Note_on_c, 0, 45, 23
1, 105458, Control_c, 0, 64, 42
1, 105473, Control_c, 0, 64, 32
1, 105488, Control_c, 0, 64, 38
1, 105503, Control_c, 0, 64, 53
1, 105517, Control_c, 0, 64, 60
1, 105532, Control_c, 0, 64, 64
1, 105545, Note_off_c, 0, 61, 54
1, 105547, Control_c, 0, 64, 66
1, 105562, Control_c, 0, 64, 69
1, 105570, Note_off_c, 0, 52, 46
1, 105577, Control_c, 0, 64, 71
1, 105583, Note_off_c, 0, 45, 53
1, 105592, Control_c, 0, 64, 74
1, 105606, Control_c, 0, 64, 74
1, 105621, Control_c, 0, 64, 75
1, 105651, Control_c, 0, 64, 75
1, 105695, Control_c, 0, 64, 76
1, 105709, Note_on_c, 0, 61, 40
1, 105717, Note_on_c, 0, 45, 37
1, 105717, Note_on_c, 0, 66, 44
1, 105732, Note_off_c, 0, 69, 45
1, 105742, Note_on_c, 0, 52, 19
1, 105755, Note_off_c, 0, 66, 49
1, 105811, Note_off_c, 0, 52, 41
1, 105836, Note_off_c, 0, 45, 35
1, 105862, Note_on_c, 0, 68, 57
1, 105880, Control_c, 0, 67, 100
1, 105909, Control_c, 0, 67, 101
1, 105912, Note_off_c, 0, 61, 38
1, 105935, Note_on_c, 0, 66, 54
1, 105954, Control_c, 0, 67, 101
1, 105968, Control_c, 0, 67, 102
1, 105983, Control_c, 0, 64, 75
1, 105983, Control_c, 0, 67, 102
1, 105998, Control_c, 0, 64, 74
1, 106009, Note_off_c, 0, 68, 40
1, 106012, Control_c, 0, 64, 73
1, 106012, Control_c, 0, 67, 103
1, 106026, Note_on_c, 0, 45, 35
1, 106027, Note_on_c, 0, 64, 52
1, 106027, Note_on_c, 0, 52, 35
1, 106027, Control_c, 0, 64, 71
1, 106033, Note_on_c, 0, 62, 57
1, 106042, Control_c, 0, 64, 69
1, 106042, Control_c, 0, 67, 103
1, 106057, Control_c, 0, 64, 66
1, 106072, Control_c, 0, 64, 64
1, 106072, Control_c, 0, 67, 104
1, 106075, Note_off_c, 0, 62, 62
1, 106087, Control_c, 0, 64, 61
1, 106087, Control_c, 0, 67, 104
1, 106090, Note_off_c, 0, 52, 54
1, 106102, Control_c, 0, 64, 58
1, 106102, Control_c, 0, 67, 105
1, 106112, Note_off_c, 0, 45, 56
1, 106117, Control_c, 0, 64, 55
1, 106117, Control_c, 0, 67, 105
1, 106122, Note_off_c, 0, 66, 33
1, 106125, Note_on_c, 0, 62, 59
1, 106132, Control_c, 0, 64, 53
1, 106132, Control_c, 0, 67, 106
1, 106146, Control_c, 0, 64, 52
1, 106146, Control_c, 0, 67, 106
1, 106158, Note_off_c, 0, 62, 52
1, 106161, Control_c, 0, 64, 50
1, 106161, Control_c, 0, 67, 107
1, 106176, Control_c, 0, 64, 48
1, 106176, Control_c, 0, 67, 107
1, 106191, Control_c, 0, 64, 46
1, 106191, Control_c, 0, 67, 108
1, 106205, Control_c, 0, 64, 43
1, 106213, Note_on_c, 0, 62, 58
1, 106220, Control_c, 0, 64, 42
1, 106220, Control_c, 0, 67, 108
1, 106236, Control_c, 0, 64, 40
1, 106236, Control_c, 0, 67, 109
1, 106245, Note_off_c, 0, 62, 61
1, 106251, Control_c, 0, 64, 37
1, 106266, Control_c, 0, 64, 31
1, 106281, Control_c, 0, 64, 21
1, 106296, Control_c, 0, 64, 0
1, 106296, Control_c, 0, 67, 109
1, 106340, Control_c, 0, 67, 109
1, 106369, Note_on_c, 0, 62, 39
1, 106370, Control_c, 0, 67, 108
1, 106384, Control_c, 0, 64, 13
1, 106384, Control_c, 0, 67, 108
1, 106395, Note_on_c, 0, 45, 28
1, 106399, Control_c, 0, 64, 29
1, 106399, Control_c, 0, 67, 107
1, 106403, Note_on_c, 0, 52, 25
1, 106414, Control_c, 0, 64, 39
1, 106414, Control_c, 0, 67, 106
1, 106428, Control_c, 0, 64, 49
1, 106428, Control_c, 0, 67, 105
1, 106443, Control_c, 0, 64, 57
1, 106443, Control_c, 0, 67, 105
1, 106458, Control_c, 0, 64, 61
1, 106458, Control_c, 0, 67, 104
1, 106473, Control_c, 0, 64, 64
1, 106473, Control_c, 0, 67, 104
1, 106488, Control_c, 0, 64, 66
1, 106496, Note_off_c, 0, 62, 56
1, 106502, Control_c, 0, 64, 70
1, 106507, Note_off_c, 0, 52, 52
1, 106517, Control_c, 0, 64, 72
1, 106522, Note_off_c, 0, 45, 51
1, 106532, Control_c, 0, 64, 74
1, 106532, Control_c, 0, 67, 103
1, 106547, Control_c, 0, 64, 76
1, 106562, Control_c, 0, 64, 77
1, 106576, Control_c, 0, 64, 78
1, 106614, Control_c, 0, 64, 78
1, 106629, Control_c, 0, 67, 103
1, 106678, Note_on_c, 0, 52, 38
1, 106692, Note_on_c, 0, 61, 46
1, 106693, Note_on_c, 0, 45, 27
1, 106703, Control_c, 0, 64, 78
1, 106761, Control_c, 0, 67, 102
1, 106800, Note_off_c, 0, 64, 27
1, 106805, Note_on_c, 0, 59, 51
1, 106820, Note_off_c, 0, 52, 43
1, 106825, Note_off_c, 0, 61, 34
1, 106829, Note_off_c, 0, 45, 40
1, 106829, Note_off_c, 0, 59, 63
1, 106880, Control_c, 0, 64, 76
1, 106895, Control_c, 0, 64, 73
1, 106910, Control_c, 0, 64, 66
1, 106924, Control_c, 0, 64, 60
1, 106939, Control_c, 0, 64, 52
1, 106945, Note_on_c, 0, 64, 40
1, 106947, Note_on_c, 0, 62, 49
1, 106951, Note_on_c, 0, 52, 34
1, 106954, Control_c, 0, 64, 53
1, 106969, Note_on_c, 0, 45, 25
1, 106969, Control_c, 0, 64, 59
1, 106984, Control_c, 0, 64, 63
1, 106984, Control_c, 0, 67, 102
1, 106999, Control_c, 0, 64, 65
1, 107014, Control_c, 0, 64, 66
1, 107029, Control_c, 0, 64, 68
1, 107029, Control_c, 0, 67, 101
1, 107035, Note_off_c, 0, 62, 52
1, 107042, Note_off_c, 0, 45, 52
1, 107044, Control_c, 0, 64, 70
1, 107053, Note_off_c, 0, 64, 58
1, 107056, Note_on_c, 0, 66, 58
1, 107059, Note_off_c, 0, 52, 57
1, 107059, Control_c, 0, 64, 71
1, 107074, Control_c, 0, 67, 101
1, 107133, Control_c, 0, 67, 101
1, 107148, Control_c, 0, 64, 70
1, 107163, Control_c, 0, 64, 69
1, 107178, Control_c, 0, 64, 66
1, 107178, Control_c, 0, 67, 102
1, 107181, Note_off_c, 0, 66, 55
1, 107193, Control_c, 0, 64, 62
1, 107207, Control_c, 0, 64, 50
1, 107212, Note_on_c, 0, 68, 51
1, 107220, Note_on_c, 0, 64, 38
1, 107222, Control_c, 0, 64, 30
1, 107228, Note_on_c, 0, 52, 37
1, 107237, Control_c, 0, 64, 0
1, 107237, Control_c, 0, 67, 102
1, 107240, Note_on_c, 0, 62, 26
1, 107247, Note_on_c, 0, 45, 33
1, 107251, Control_c, 0, 64, 8
1, 107267, Control_c, 0, 64, 34
1, 107267, Control_c, 0, 67, 103
1, 107282, Control_c, 0, 64, 49
1, 107282, Control_c, 0, 67, 103
1, 107297, Control_c, 0, 64, 59
1, 107297, Note_off_c, 0, 45, 61
1, 107298, Note_off_c, 0, 62, 45
1, 107302, Note_off_c, 0, 52, 63
1, 107312, Control_c, 0, 64, 63
1, 107312, Control_c, 0, 67, 104
1, 107326, Control_c, 0, 64, 65
1, 107326, Control_c, 0, 67, 104
1, 107341, Control_c, 0, 64, 67
1, 107341, Control_c, 0, 67, 105
1, 107363, Control_c, 0, 64, 68
1, 107378, Control_c, 0, 64, 71
1, 107392, Control_c, 0, 64, 72
1, 107407, Control_c, 0, 64, 74
1, 107413, Note_off_c, 0, 64, 0
1, 107422, Control_c, 0, 64, 75
1, 107437, Control_c, 0, 64, 75
1, 107450, Poly_aftertouch_c, 0, 64, 127
1, 107452, Control_c, 0, 64, 76
1, 107541, Control_c, 0, 64, 75
1, 107556, Control_c, 0, 64, 71
1, 107571, Control_c, 0, 64, 64
1, 107585, Control_c, 0, 64, 58
1, 107592, Note_on_c, 0, 69, 49
1, 107600, Control_c, 0, 64, 59
1, 107615, Control_c, 0, 64, 63
1, 107622, Note_on_c, 0, 62, 39
1, 107622, Note_on_c, 0, 52, 33
1, 107625, Note_on_c, 0, 45, 32
1, 107628, Poly_aftertouch_c, 0, 64, 0
1, 107630, Control_c, 0, 64, 65
1, 107630, Control_c, 0, 67, 104
1, 107645, Control_c, 0, 64, 67
1, 107655, Note_off_c, 0, 62, 55
1, 107659, Control_c, 0, 64, 69
1, 107664, Note_off_c, 0, 68, 26
1, 107667, Note_off_c, 0, 45, 60
1, 107672, Note_off_c, 0, 52, 64
1, 107674, Control_c, 0, 64, 71
1, 107674, Control_c, 0, 67, 104
1, 107679, Note_off_c, 0, 69, 66
1, 107689, Control_c, 0, 64, 74
1, 107704, Control_c, 0, 64, 76
1, 107719, Control_c, 0, 64, 77
1, 107734, Control_c, 0, 67, 103
1, 107763, Control_c, 0, 67, 103
1, 107807, Control_c, 0, 67, 103
1, 107838, Control_c, 0, 64, 76
1, 107853, Control_c, 0, 64, 71
1, 107853, Control_c, 0, 67, 103
1, 107868, Control_c, 0, 64, 65
1, 107868, Control_c, 0, 67, 102
1, 107882, Control_c, 0, 64, 57
1, 107882, Control_c, 0, 67, 101
1, 107897, Control_c, 0, 64, 53
1, 107897, Control_c, 0, 67, 101
1, 107901, Note_on_c, 0, 68, 28
1, 107906, Note_on_c, 0, 52, 25
1, 107908, Note_on_c, 0, 71, 52
1, 107912, Control_c, 0, 64, 57
1, 107912, Control_c, 0, 67, 100
1, 107918, Note_on_c, 0, 62, 31
1, 107919, Note_on_c, 0, 64, 19
1, 107923, Note_on_c, 0, 45, 30
1, 107927, Control_c, 0, 64, 61
1, 107942, Control_c, 0, 64, 62
1, 107942, Control_c, 0, 67, 100
1, 107956, Control_c, 0, 64, 64
1, 107961, Note_off_c, 0, 45, 56
1, 107965, Note_off_c, 0, 52, 62
1, 107971, Control_c, 0, 64, 67
1, 107986, Control_c, 0, 64, 70
1, 108001, Control_c, 0, 64, 73
1, 108001, Control_c, 0, 67, 99
1, 108005, Note_off_c, 0, 68, 52
1, 108014, Note_on_c, 0, 73, 62
1, 108015, Control_c, 0, 64, 73
1, 108030, Control_c, 0, 64, 74
1, 108030, Control_c, 0, 67, 99
1, 108055, Note_off_c, 0, 62, 38
1, 108061, Note_off_c, 0, 64, 43
1, 108075, Control_c, 0, 64, 72
1, 108090, Control_c, 0, 64, 67
1, 108090, Control_c, 0, 67, 99
1, 108112, Control_c, 0, 64, 61
1, 108112, Control_c, 0, 67, 100
1, 108123, Note_off_c, 0, 71, 25
1, 108127, Control_c, 0, 64, 61
1, 108127, Control_c, 0, 67, 100
1, 108142, Control_c, 0, 64, 64
1, 108142, Control_c, 0, 67, 101
1, 108149, Note_on_c, 0, 74, 64
1, 108156, Control_c, 0, 64, 65
1, 108158, Note_on_c, 0, 68, 38
1, 108165, Note_on_c, 0, 52, 53
1, 108171, Control_c, 0, 64, 67
1, 108171, Control_c, 0, 67, 101
1, 108177, Note_on_c, 0, 45, 30
1, 108183, Note_on_c, 0, 64, 36
1, 108186, Control_c, 0, 64, 70
1, 108192, Note_on_c, 0, 62, 33
1, 108200, Control_c, 0, 64, 73
1, 108201, Note_off_c, 0, 68, 62
1, 108203, Note_off_c, 0, 73, 32
1, 108205, Note_off_c, 0, 52, 63
1, 108213, Note_off_c, 0, 64, 55
1, 108215, Note_off_c, 0, 45, 42
1, 108215, Control_c, 0, 64, 76
1, 108215, Control_c, 0, 67, 102
1, 108226, Note_off_c, 0, 62, 46
1, 108230, Control_c, 0, 64, 78
1, 108245, Control_c, 0, 64, 79
1, 108260, Control_c, 0, 64, 79
1, 108275, Control_c, 0, 64, 80
1, 108290, Control_c, 0, 67, 102
1, 108305, Control_c, 0, 64, 80
1, 108320, Control_c, 0, 67, 103
1, 108334, Control_c, 0, 64, 81
1, 108349, Control_c, 0, 67, 103
1, 108364, Control_c, 0, 67, 104
1, 108394, Control_c, 0, 67, 104
1, 108408, Control_c, 0, 67, 105
1, 108423, Control_c, 0, 64, 79
1, 108438, Control_c, 0, 64, 74
1, 108448, Note_off_c, 0, 74, 52
1, 108453, Control_c, 0, 64, 65
1, 108467, Note_on_c, 0, 75, 59
1, 108468, Control_c, 0, 64, 54
1, 108468, Control_c, 0, 67, 104
1, 108482, Control_c, 0, 64, 45
1, 108482, Control_c, 0, 67, 104
1, 108492, Note_on_c, 0, 45, 42
1, 108493, Note_on_c, 0, 52, 34
1, 108497, Control_c, 0, 64, 51
1, 108497, Control_c, 0, 67, 103
1, 108499, Note_on_c, 0, 59, 49
1, 108499, Note_on_c, 0, 68, 39
1, 108505, Note_on_c, 0, 64, 40
1, 108507, Note_on_c, 0, 62, 42
1, 108512, Control_c, 0, 64, 61
1, 108512, Control_c, 0, 67, 103
1, 108526, Control_c, 0, 64, 65
1, 108526, Control_c, 0, 67, 102
1, 108536, Note_off_c, 0, 59, 65
1, 108540, Note_off_c, 0, 45, 61
1, 108541, Control_c, 0, 64, 68
1, 108546, Note_off_c, 0, 52, 63
1, 108556, Control_c, 0, 64, 72
1, 108571, Control_c, 0, 64, 75
1, 108579, Note_off_c, 0, 62, 48
1, 108586, Control_c, 0, 64, 77
1, 108599, Note_off_c, 0, 75, 60
1, 108600, Control_c, 0, 64, 77
1, 108617, Note_off_c, 0, 64, 33
1, 108631, Control_c, 0, 67, 102
1, 108691, Control_c, 0, 67, 101
1, 108720, Control_c, 0, 67, 101
1, 108730, Note_on_c, 0, 76, 66
1, 108735, Control_c, 0, 67, 100
1, 108749, Note_on_c, 0, 59, 44
1, 108750, Control_c, 0, 67, 99
1, 108753, Note_on_c, 0, 45, 49
1, 108753, Note_on_c, 0, 52, 49
1, 108765, Control_c, 0, 67, 99
1, 108791, Note_off_c, 0, 45, 51
1, 108792, Note_off_c, 0, 59, 53
1, 108792, Note_off_c, 0, 68, 42
1, 108796, Note_off_c, 0, 52, 62
1, 108823, Note_on_c, 0, 74, 67
1, 108861, Control_c, 0, 64, 76
1, 108876, Control_c, 0, 64, 72
1, 108887, Note_off_c, 0, 76, 56
1, 108891, Control_c, 0, 64, 65
1, 108905, Control_c, 0, 64, 57
1, 108905, Control_c, 0, 67, 99
1, 108920, Control_c, 0, 64, 57
1, 108935, Control_c, 0, 64, 61
1, 108947, Note_on_c, 0, 71, 64
1, 108950, Control_c, 0, 64, 63
1, 108950, Control_c, 0, 67, 100
1, 108957, Note_on_c, 0, 59, 52
1, 108960, Note_on_c, 0, 68, 53
1, 108960, Note_on_c, 0, 52, 44
1, 108965, Control_c, 0, 64, 65
1, 108965, Control_c, 0, 67, 100
1, 108978, Note_on_c, 0, 62, 43
1, 108978, Note_on_c, 0, 45, 38
1, 108979, Control_c, 0, 64, 67
1, 108979, Control_c, 0, 67, 101
1, 108986, Note_on_c, 0, 64, 33
1, 108987, Note_off_c, 0, 74, 62
1, 108994, Control_c, 0, 64, 70
1, 108994, Control_c, 0, 67, 101
1, 108997, Note_off_c, 0, 59, 65
1, 109004, Note_off_c, 0, 45, 51
1, 109006, Note_off_c, 0, 52, 65
1, 109006, Note_off_c, 0, 62, 58
1, 109009, Control_c, 0, 64, 72
1, 109009, Control_c, 0, 67, 102
1, 109018, Note_off_c, 0, 68, 63
1, 109019, Note_off_c, 0, 64, 48
1, 109024, Control_c, 0, 64, 74
1, 109032, Note_off_c, 0, 71, 64
1, 109038, Control_c, 0, 64, 75
1, 109038, Control_c, 0, 67, 102
1, 109053, Control_c, 0, 64, 75
1, 109068, Control_c, 0, 64, 76
1, 109083, Control_c, 0, 64, 77
1, 109098, Control_c, 0, 64, 78
1, 109112, Control_c, 0, 64, 79
1, 109112, Control_c, 0, 67, 103
1, 109142, Control_c, 0, 67, 103
1, 109187, Control_c, 0, 64, 77
1, 109202, Control_c, 0, 64, 70
1, 109217, Control_c, 0, 64, 59
1, 109229, Note_on_c, 0, 73, 59
1, 109231, Control_c, 0, 64, 41
1, 109231, Control_c, 0, 67, 103
1, 109246, Control_c, 0, 64, 15
1, 109248, Note_on_c, 0, 59, 44
1, 109253, Note_on_c, 0, 68, 49
1, 109254, Note_on_c, 0, 64, 30
1, 109258, Note_on_c, 0, 52, 8
1, 109261, Control_c, 0, 64, 23
1, 109261, Control_c, 0, 67, 102
1, 109262, Note_on_c, 0, 62, 47
1, 109273, Note_on_c, 0, 45, 43
1, 109276, Control_c, 0, 64, 45
1, 109276, Control_c, 0, 67, 102
1, 109291, Control_c, 0, 64, 59
1, 109291, Control_c, 0, 67, 101
1, 109305, Control_c, 0, 64, 65
1, 109305, Control_c, 0, 67, 101
1, 109310, Note_off_c, 0, 62, 53
1, 109320, Control_c, 0, 64, 69
1, 109324, Note_off_c, 0, 59, 65
1, 109327, Note_off_c, 0, 64, 42
1, 109327, Note_off_c, 0, 45, 58
1, 109335, Control_c, 0, 64, 73
1, 109335, Control_c, 0, 67, 101
1, 109337, Note_off_c, 0, 52, 58
1, 109348, Note_off_c, 0, 68, 64
1, 109350, Control_c, 0, 64, 76
1, 109353, Note_off_c, 0, 73, 61
1, 109364, Control_c, 0, 64, 78
1, 109379, Control_c, 0, 64, 79
1, 109409, Control_c, 0, 64, 79
1, 109454, Control_c, 0, 67, 101
1, 109499, Control_c, 0, 67, 100
1, 109513, Control_c, 0, 64, 78
1, 109513, Control_c, 0, 67, 100
1, 109527, Control_c, 0, 64, 73
1, 109527, Control_c, 0, 67, 99
1, 109542, Control_c, 0, 64, 65
1, 109542, Control_c, 0, 67, 99
1, 109548, Note_on_c, 0, 69, 47
1, 109557, Control_c, 0, 64, 53
1, 109563, Note_on_c, 0, 61, 46
1, 109572, Control_c, 0, 64, 30
1, 109572, Control_c, 0, 67, 98
1, 109580, Note_on_c, 0, 52, 18
1, 109586, Control_c, 0, 64, 15
1, 109589, Note_on_c, 0, 57, 35
1, 109589, Note_on_c, 0, 45, 34
1, 109609, Control_c, 0, 64, 35
1, 109609, Control_c, 0, 67, 98
1, 109624, Control_c, 0, 64, 57
1, 109639, Control_c, 0, 64, 64
1, 109653, Control_c, 0, 64, 67
1, 109661, Note_off_c, 0, 57, 60
1, 109668, Control_c, 0, 64, 71
1, 109683, Control_c, 0, 64, 75
1, 109688, Note_off_c, 0, 52, 56
1, 109698, Control_c, 0, 64, 79
1, 109713, Control_c, 0, 64, 81
1, 109718, Note_off_c, 0, 45, 50
1, 109727, Control_c, 0, 64, 82
1, 109737, Note_on_c, 0, 73, 51
1, 109777, Note_off_c, 0, 61, 53
1, 109786, Note_off_c, 0, 69, 43
1, 109802, Note_off_c, 0, 73, 64
1, 109846, Control_c, 0, 67, 97
1, 109905, Control_c, 0, 67, 98
1, 109935, Control_c, 0, 64, 81
1, 109950, Control_c, 0, 64, 81
1, 109965, Control_c, 0, 64, 79
1, 109965, Control_c, 0, 67, 98
1, 109979, Control_c, 0, 64, 77
1, 109981, Note_on_c, 0, 71, 52
1, 109994, Control_c, 0, 64, 73
1, 110007, Note_on_c, 0, 68, 38
1, 110009, Control_c, 0, 64, 67
1, 110010, Note_on_c, 0, 59, 36
1, 110022, Note_on_c, 0, 52, 35
1, 110024, Control_c, 0, 64, 55
1, 110025, Note_on_c, 0, 64, 36
1, 110039, Control_c, 0, 64, 35
1, 110039, Control_c, 0, 67, 99
1, 110048, Note_on_c, 0, 40, 39
1, 110053, Control_c, 0, 64, 0
1, 110113, Control_c, 0, 64, 38
1, 110113, Control_c, 0, 67, 98
1, 110127, Control_c, 0, 64, 59
1, 110142, Control_c, 0, 64, 66
1, 110142, Control_c, 0, 67, 98
1, 110157, Control_c, 0, 64, 70
1, 110160, Note_off_c, 0, 59, 56
1, 110171, Control_c, 0, 64, 76
1, 110186, Control_c, 0, 64, 81
1, 110186, Control_c, 0, 67, 97
1, 110201, Control_c, 0, 64, 86
1, 110201, Control_c, 0, 67, 97
1, 110216, Control_c, 0, 64, 90
1, 110232, Control_c, 0, 64, 92
1, 110237, Poly_aftertouch_c, 0, 47, 127
1, 110245, Note_off_c, 0, 40, 59
1, 110247, Control_c, 0, 64, 94
1, 110254, Note_off_c, 0, 68, 43
1, 110262, Note_off_c, 0, 52, 42
1, 110262, Note_off_c, 0, 71, 58
1, 110262, Control_c, 0, 64, 96
1, 110276, Control_c, 0, 64, 96
1, 110287, Poly_aftertouch_c, 0, 47, 0
1, 110291, Control_c, 0, 64, 97
1, 110291, Control_c, 0, 67, 97
1, 110315, Note_off_c, 0, 64, 42
1, 110321, Control_c, 0, 67, 98
1, 110336, Control_c, 0, 67, 98
1, 110373, Control_c, 0, 67, 99
1, 110402, Control_c, 0, 67, 99
1, 110430, Note_on_c, 0, 66, 40
1, 110462, Control_c, 0, 67, 99
1, 110471, Note_on_c, 0, 62, 47
1, 110476, Control_c, 0, 67, 98
1, 110521, Control_c, 0, 67, 98
1, 110550, Control_c, 0, 67, 97
1, 110556, Note_off_c, 0, 62, 63
1, 110589, Note_off_c, 0, 66, 57
1, 110595, Control_c, 0, 67, 97
1, 110669, Control_c, 0, 67, 96
1, 110802, Control_c, 0, 67, 96
1, 110906, Control_c, 0, 64, 96
1, 110921, Control_c, 0, 64, 94
1, 110923, Note_on_c, 0, 73, 51
1, 110936, Control_c, 0, 64, 90
1, 110950, Control_c, 0, 64, 83
1, 110953, Note_on_c, 0, 64, 37
1, 110965, Control_c, 0, 64, 72
1, 110967, Note_on_c, 0, 61, 41
1, 110970, Note_on_c, 0, 52, 38
1, 110975, Note_on_c, 0, 45, 32
1, 110980, Control_c, 0, 64, 62
1, 110994, Control_c, 0, 64, 50
1, 111010, Control_c, 0, 64, 45
1, 111026, Control_c, 0, 64, 55
1, 111026, Control_c, 0, 67, 95
1, 111041, Control_c, 0, 64, 62
1, 111041, Control_c, 0, 67, 95
1, 111056, Control_c, 0, 64, 65
1, 111071, Control_c, 0, 64, 68
1, 111086, Control_c, 0, 64, 71
1, 111107, Control_c, 0, 64, 75
1, 111122, Note_off_c, 0, 64, 39
1, 111122, Control_c, 0, 64, 78
1, 111137, Control_c, 0, 64, 79
1, 111146, Note_off_c, 0, 45, 52
1, 111181, Note_off_c, 0, 52, 40
1, 111189, Note_on_c, 0, 71, 53
1, 111196, Control_c, 0, 64, 79
1, 111221, Note_off_c, 0, 61, 41
1, 111226, Control_c, 0, 64, 80
1, 111241, Control_c, 0, 67, 95
1, 111274, Note_off_c, 0, 73, 32
1, 111300, Control_c, 0, 67, 96
1, 111315, Control_c, 0, 64, 78
1, 111330, Control_c, 0, 64, 72
1, 111345, Control_c, 0, 64, 64
1, 111346, Note_on_c, 0, 69, 54
1, 111359, Note_on_c, 0, 61, 34
1, 111360, Note_off_c, 0, 71, 36
1, 111360, Control_c, 0, 64, 54
1, 111361, Note_on_c, 0, 45, 31
1, 111362, Note_on_c, 0, 52, 27
1, 111374, Control_c, 0, 64, 47
1, 111389, Control_c, 0, 64, 53
1, 111404, Control_c, 0, 64, 60
1, 111419, Control_c, 0, 64, 63
1, 111433, Control_c, 0, 64, 66
1, 111448, Control_c, 0, 64, 70
1, 111453, Note_off_c, 0, 52, 51
1, 111463, Control_c, 0, 64, 75
1, 111464, Note_off_c, 0, 45, 54
1, 111475, Note_off_c, 0, 61, 45
1, 111478, Control_c, 0, 64, 78
1, 111493, Control_c, 0, 64, 80
1, 111507, Control_c, 0, 64, 81
1, 111522, Control_c, 0, 64, 82
1, 111522, Control_c, 0, 67, 95
1, 111537, Control_c, 0, 64, 83
1, 111552, Control_c, 0, 64, 84
1, 111567, Control_c, 0, 64, 85
1, 111567, Control_c, 0, 67, 96
1, 111581, Control_c, 0, 64, 85
1, 111596, Control_c, 0, 67, 96
1, 111611, Control_c, 0, 64, 86
1, 111611, Control_c, 0, 67, 97
1, 111617, Note_on_c, 0, 61, 48
1, 111618, Note_on_c, 0, 66, 55
1, 111618, Note_off_c, 0, 69, 56
1, 111625, Control_c, 0, 64, 87
1, 111625, Control_c, 0, 67, 97
1, 111640, Control_c, 0, 64, 88
1, 111641, Note_on_c, 0, 45, 40
1, 111646, Note_on_c, 0, 52, 35
1, 111670, Control_c, 0, 67, 98
1, 111682, Note_off_c, 0, 66, 54
1, 111700, Control_c, 0, 67, 98
1, 111702, Note_off_c, 0, 52, 49
1, 111713, Note_off_c, 0, 45, 54
1, 111715, Control_c, 0, 64, 89
1, 111744, Control_c, 0, 67, 99
1, 111759, Note_on_c, 0, 68, 53
1, 111759, Note_off_c, 0, 61, 62
1, 111774, Control_c, 0, 67, 99
1, 111804, Control_c, 0, 64, 88
1, 111804, Control_c, 0, 67, 100
1, 111805, Note_on_c, 0, 66, 58
1, 111834, Control_c, 0, 67, 100
1, 111856, Control_c, 0, 64, 87
1, 111857, Note_on_c, 0, 62, 51
1, 111871, Control_c, 0, 64, 85
1, 111873, Note_on_c, 0, 64, 67
1, 111886, Control_c, 0, 64, 82
1, 111894, Note_off_c, 0, 68, 33
1, 111901, Control_c, 0, 64, 76
1, 111916, Control_c, 0, 64, 70
1, 111930, Control_c, 0, 64, 64
1, 111932, Note_off_c, 0, 62, 62
1, 111945, Note_on_c, 0, 45, 34
1, 111945, Control_c, 0, 64, 60
1, 111947, Note_on_c, 0, 52, 39
1, 111960, Control_c, 0, 64, 58
1, 111975, Control_c, 0, 64, 55
1, 111975, Control_c, 0, 67, 101
1, 111987, Note_off_c, 0, 52, 54
1, 111990, Control_c, 0, 64, 52
1, 112000, Note_off_c, 0, 45, 60
1, 112004, Note_on_c, 0, 62, 55
1, 112004, Control_c, 0, 64, 49
1, 112004, Control_c, 0, 67, 101
1, 112019, Note_off_c, 0, 66, 34
1, 112019, Control_c, 0, 64, 46
1, 112034, Control_c, 0, 64, 45
1, 112049, Control_c, 0, 64, 45
1, 112049, Control_c, 0, 67, 102
1, 112055, Note_off_c, 0, 62, 61
1, 112064, Control_c, 0, 64, 44
1, 112078, Control_c, 0, 64, 41
1, 112093, Control_c, 0, 64, 38
1, 112108, Control_c, 0, 64, 33
1, 112123, Control_c, 0, 64, 30
1, 112138, Control_c, 0, 64, 27
1, 112153, Control_c, 0, 64, 23
1, 112153, Control_c, 0, 67, 101
1, 112168, Control_c, 0, 64, 20
1, 112168, Control_c, 0, 67, 101
1, 112182, Control_c, 0, 64, 19
1, 112182, Control_c, 0, 67, 100
1, 112185, Note_on_c, 0, 62, 48
1, 112197, Control_c, 0, 64, 19
1, 112197, Control_c, 0, 67, 100
1, 112212, Control_c, 0, 64, 26
1, 112212, Control_c, 0, 67, 99
1, 112214, Note_on_c, 0, 52, 36
1, 112225, Note_on_c, 0, 45, 28
1, 112227, Control_c, 0, 64, 38
1, 112227, Control_c, 0, 67, 98
1, 112242, Control_c, 0, 64, 48
1, 112242, Control_c, 0, 67, 98
1, 112256, Control_c, 0, 64, 57
1, 112256, Control_c, 0, 67, 97
1, 112271, Control_c, 0, 64, 62
1, 112271, Control_c, 0, 67, 97
1, 112284, Note_off_c, 0, 62, 59
1, 112286, Control_c, 0, 64, 65
1, 112298, Note_off_c, 0, 52, 54
1, 112301, Control_c, 0, 64, 68
1, 112310, Note_off_c, 0, 45, 57
1, 112316, Control_c, 0, 64, 70
1, 112330, Control_c, 0, 64, 73
1, 112345, Control_c, 0, 64, 74
1, 112374, Control_c, 0, 64, 75
1, 112457, Note_on_c, 0, 52, 38
1, 112460, Note_on_c, 0, 45, 38
1, 112467, Note_off_c, 0, 64, 52
1, 112468, Note_on_c, 0, 61, 46
1, 112523, Control_c, 0, 67, 96
1, 112529, Note_off_c, 0, 45, 58
1, 112531, Note_off_c, 0, 61, 62
1, 112536, Note_off_c, 0, 52, 54
1, 112552, Control_c, 0, 67, 96
1, 112571, Note_on_c, 0, 59, 59
1, 112591, Note_off_c, 0, 59, 65
1, 112650, Control_c, 0, 64, 74
1, 112665, Control_c, 0, 64, 71
1, 112665, Control_c, 0, 67, 96
1, 112679, Control_c, 0, 64, 66
1, 112694, Control_c, 0, 64, 60
1, 112709, Control_c, 0, 64, 51
1, 112720, Note_on_c, 0, 73, 60
1, 112724, Control_c, 0, 64, 50
1, 112729, Note_on_c, 0, 61, 48
1, 112739, Control_c, 0, 64, 59
1, 112740, Note_on_c, 0, 45, 33
1, 112749, Note_on_c, 0, 52, 28
1, 112753, Control_c, 0, 64, 63
1, 112768, Control_c, 0, 64, 64
1, 112783, Control_c, 0, 64, 66
1, 112783, Control_c, 0, 67, 96
1, 112797, Control_c, 0, 64, 68
1, 112812, Control_c, 0, 64, 71
1, 112820, Note_on_c, 0, 71, 65
1, 112825, Note_off_c, 0, 52, 51
1, 112827, Control_c, 0, 64, 73
1, 112827, Control_c, 0, 67, 95
1, 112834, Note_off_c, 0, 45, 57
1, 112842, Control_c, 0, 64, 73
1, 112855, Note_off_c, 0, 61, 36
1, 112857, Control_c, 0, 67, 95
1, 112931, Control_c, 0, 64, 73
1, 112945, Note_off_c, 0, 73, 27
1, 112946, Control_c, 0, 64, 70
1, 112951, Note_on_c, 0, 69, 59
1, 112961, Note_on_c, 0, 52, 49
1, 112961, Control_c, 0, 64, 65
1, 112973, Note_on_c, 0, 61, 52
1, 112976, Control_c, 0, 64, 57
1, 112990, Note_on_c, 0, 45, 38
1, 112991, Control_c, 0, 64, 45
1, 113020, Control_c, 0, 64, 55
1, 113025, Note_off_c, 0, 71, 34
1, 113035, Control_c, 0, 64, 63
1, 113050, Control_c, 0, 64, 67
1, 113061, Note_off_c, 0, 52, 60
1, 113061, Note_off_c, 0, 61, 58
1, 113065, Control_c, 0, 64, 71
1, 113071, Note_off_c, 0, 45, 61
1, 113079, Control_c, 0, 64, 75
1, 113094, Control_c, 0, 64, 79
1, 113109, Control_c, 0, 64, 82
1, 113124, Control_c, 0, 64, 83
1, 113139, Control_c, 0, 64, 84
1, 113153, Control_c, 0, 64, 85
1, 113168, Control_c, 0, 64, 85
1, 113183, Control_c, 0, 64, 86
1, 113207, Note_on_c, 0, 66, 57
1, 113217, Note_on_c, 0, 61, 50
1, 113226, Note_on_c, 0, 45, 44
1, 113227, Control_c, 0, 64, 86
1, 113227, Control_c, 0, 67, 95
1, 113238, Note_on_c, 0, 52, 48
1, 113242, Control_c, 0, 64, 87
1, 113247, Note_off_c, 0, 66, 64
1, 113247, Note_off_c, 0, 69, 45
1, 113257, Control_c, 0, 64, 87
1, 113286, Control_c, 0, 64, 88
1, 113305, Note_off_c, 0, 52, 52
1, 113322, Note_off_c, 0, 61, 63
1, 113327, Note_on_c, 0, 68, 74
1, 113331, Control_c, 0, 67, 96
1, 113335, Note_off_c, 0, 45, 32
1, 113353, Control_c, 0, 64, 88
1, 113368, Control_c, 0, 67, 97
1, 113397, Control_c, 0, 67, 97
1, 113420, Note_on_c, 0, 66, 65
1, 113428, Control_c, 0, 67, 98
1, 113435, Note_off_c, 0, 68, 34
1, 113443, Control_c, 0, 67, 99
1, 113458, Control_c, 0, 64, 88
1, 113458, Control_c, 0, 67, 99
1, 113473, Control_c, 0, 67, 100
1, 113488, Control_c, 0, 67, 100
1, 113493, Note_on_c, 0, 64, 69
1, 113502, Control_c, 0, 67, 101
1, 113504, Note_on_c, 0, 45, 45
1, 113510, Note_on_c, 0, 52, 51
1, 113517, Control_c, 0, 67, 101
1, 113518, Note_off_c, 0, 66, 59
1, 113518, Note_on_c, 0, 62, 71
1, 113532, Control_c, 0, 64, 87
1, 113532, Control_c, 0, 67, 102
1, 113547, Control_c, 0, 64, 85
1, 113547, Control_c, 0, 67, 102
1, 113549, Note_off_c, 0, 62, 65
1, 113551, Note_off_c, 0, 52, 63
1, 113562, Control_c, 0, 64, 82
1, 113562, Control_c, 0, 67, 103
1, 113564, Note_off_c, 0, 45, 61
1, 113576, Control_c, 0, 64, 80
1, 113576, Control_c, 0, 67, 104
1, 113591, Control_c, 0, 64, 77
1, 113591, Control_c, 0, 67, 105
1, 113602, Note_on_c, 0, 62, 70
1, 113606, Control_c, 0, 64, 74
1, 113606, Control_c, 0, 67, 105
1, 113617, Note_off_c, 0, 62, 70
1, 113620, Control_c, 0, 64, 72
1, 113620, Control_c, 0, 67, 106
1, 113635, Control_c, 0, 64, 69
1, 113635, Control_c, 0, 67, 107
1, 113650, Control_c, 0, 64, 66
1, 113650, Control_c, 0, 67, 107
1, 113665, Control_c, 0, 64, 64
1, 113671, Note_on_c, 0, 62, 75
1, 113680, Control_c, 0, 64, 62
1, 113694, Control_c, 0, 64, 61
1, 113701, Note_off_c, 0, 62, 59
1, 113709, Control_c, 0, 64, 59
1, 113724, Control_c, 0, 64, 55
1, 113739, Control_c, 0, 64, 44
1, 113754, Control_c, 0, 64, 26
1, 113768, Note_on_c, 0, 62, 61
1, 113769, Control_c, 0, 64, 0
1, 113813, Control_c, 0, 67, 106
1, 113825, Note_on_c, 0, 52, 43
1, 113827, Note_on_c, 0, 45, 40
1, 113828, Control_c, 0, 64, 34
1, 113828, Control_c, 0, 67, 106
1, 113843, Control_c, 0, 64, 54
1, 113843, Control_c, 0, 67, 105
1, 113858, Control_c, 0, 64, 62
1, 113858, Control_c, 0, 67, 105
1, 113873, Control_c, 0, 64, 65
1, 113873, Control_c, 0, 67, 104
1, 113880, Note_off_c, 0, 62, 60
1, 113888, Control_c, 0, 64, 67
1, 113888, Control_c, 0, 67, 104
1, 113889, Note_off_c, 0, 52, 60
1, 113891, Note_off_c, 0, 45, 57
1, 113902, Control_c, 0, 64, 70
1, 113902, Control_c, 0, 67, 103
1, 113917, Control_c, 0, 64, 73
1, 113932, Control_c, 0, 64, 75
1, 113932, Control_c, 0, 67, 103
1, 113947, Control_c, 0, 64, 77
1, 113962, Control_c, 0, 67, 102
1, 113976, Control_c, 0, 64, 77
1, 113991, Control_c, 0, 67, 102
1, 114020, Control_c, 0, 67, 101
1, 114035, Control_c, 0, 67, 101
1, 114038, Note_on_c, 0, 52, 50
1, 114046, Note_on_c, 0, 61, 56
1, 114050, Control_c, 0, 67, 100
1, 114063, Note_on_c, 0, 45, 28
1, 114065, Control_c, 0, 67, 100
1, 114080, Control_c, 0, 67, 99
1, 114116, Note_off_c, 0, 45, 46
1, 114117, Control_c, 0, 67, 98
1, 114129, Note_off_c, 0, 52, 50
1, 114131, Note_off_c, 0, 64, 42
1, 114147, Note_off_c, 0, 61, 61
1, 114150, Note_on_c, 0, 59, 60
1, 114180, Note_off_c, 0, 59, 67
1, 114191, Control_c, 0, 67, 98
1, 114222, Control_c, 0, 64, 77
1, 114237, Control_c, 0, 64, 74
1, 114251, Control_c, 0, 64, 68
1, 114251, Control_c, 0, 67, 98
1, 114266, Control_c, 0, 64, 60
1, 114273, Note_on_c, 0, 64, 59
1, 114281, Control_c, 0, 64, 45
1, 114290, Note_on_c, 0, 62, 56
1, 114296, Control_c, 0, 64, 31
1, 114299, Note_on_c, 0, 59, 33
1, 114306, Note_on_c, 0, 52, 35
1, 114311, Control_c, 0, 64, 39
1, 114325, Control_c, 0, 64, 52
1, 114330, Note_on_c, 0, 45, 38
1, 114340, Control_c, 0, 64, 59
1, 114340, Control_c, 0, 67, 98
1, 114355, Control_c, 0, 64, 63
1, 114370, Control_c, 0, 64, 65
1, 114370, Control_c, 0, 67, 97
1, 114382, Note_off_c, 0, 62, 55
1, 114385, Control_c, 0, 64, 68
1, 114391, Note_on_c, 0, 66, 68
1, 114396, Note_off_c, 0, 45, 58
1, 114396, Note_off_c, 0, 59, 63
1, 114399, Control_c, 0, 64, 71
1, 114409, Note_off_c, 0, 64, 58
1, 114414, Control_c, 0, 64, 74
1, 114418, Note_off_c, 0, 52, 56
1, 114429, Control_c, 0, 64, 75
1, 114458, Control_c, 0, 67, 98
1, 114473, Control_c, 0, 64, 74
1, 114488, Control_c, 0, 64, 70
1, 114500, Note_on_c, 0, 68, 68
1, 114503, Control_c, 0, 64, 61
1, 114503, Control_c, 0, 67, 98
1, 114517, Control_c, 0, 64, 42
1, 114526, Note_on_c, 0, 64, 58
1, 114532, Control_c, 0, 64, 0
1, 114532, Control_c, 0, 67, 99
1, 114535, Note_on_c, 0, 62, 53
1, 114535, Note_on_c, 0, 59, 48
1, 114551, Note_on_c, 0, 45, 27
1, 114552, Note_on_c, 0, 52, 54
1, 114562, Note_off_c, 0, 66, 32
1, 114562, Control_c, 0, 64, 35
1, 114562, Control_c, 0, 67, 99
1, 114566, Note_off_c, 0, 59, 61
1, 114574, Note_off_c, 0, 62, 61
1, 114576, Note_off_c, 0, 45, 47
1, 114576, Control_c, 0, 64, 53
1, 114581, Note_off_c, 0, 52, 66
1, 114591, Control_c, 0, 64, 61
1, 114591, Control_c, 0, 67, 100
1, 114606, Control_c, 0, 64, 65
1, 114621, Control_c, 0, 64, 69
1, 114621, Control_c, 0, 67, 100
1, 114636, Control_c, 0, 64, 75
1, 114651, Control_c, 0, 64, 80
1, 114651, Control_c, 0, 67, 101
1, 114666, Control_c, 0, 64, 83
1, 114681, Control_c, 0, 64, 86
1, 114686, Note_off_c, 0, 64, 0
1, 114686, Note_on_c, 0, 64, 13
1, 114696, Control_c, 0, 64, 88
1, 114711, Control_c, 0, 64, 90
1, 114725, Control_c, 0, 64, 91
1, 114725, Control_c, 0, 67, 101
1, 114740, Control_c, 0, 64, 93
1, 114740, Control_c, 0, 67, 102
1, 114755, Control_c, 0, 64, 93
1, 114769, Control_c, 0, 67, 103
1, 114784, Control_c, 0, 67, 103
1, 114808, Note_on_c, 0, 69, 69
1, 114828, Note_on_c, 0, 45, 47
1, 114828, Note_off_c, 0, 64, 56
1, 114830, Note_on_c, 0, 62, 47
1, 114834, Note_on_c, 0, 52, 47
1, 114835, Note_on_c, 0, 59, 44
1, 114861, Note_off_c, 0, 68, 63
1, 114863, Note_off_c, 0, 62, 58
1, 114868, Note_off_c, 0, 45, 53
1, 114868, Note_off_c, 0, 59, 58
1, 114879, Note_off_c, 0, 52, 63
1, 114880, Note_off_c, 0, 69, 66
1, 114910, Control_c, 0, 64, 94
1, 114940, Control_c, 0, 67, 103
1, 115073, Note_on_c, 0, 71, 64
1, 115074, Control_c, 0, 67, 102
1, 115083, Note_on_c, 0, 52, 15
1, 115089, Note_on_c, 0, 59, 45
1, 115103, Note_on_c, 0, 45, 39
1, 115104, Control_c, 0, 67, 102
1, 115105, Note_on_c, 0, 62, 45
1, 115108, Note_on_c, 0, 64, 36
1, 115134, Control_c, 0, 67, 101
1, 115143, Note_off_c, 0, 62, 65
1, 115148, Note_off_c, 0, 64, 54
1, 115164, Note_off_c, 0, 59, 62
1, 115176, Note_on_c, 0, 72, 73
1, 115178, Control_c, 0, 67, 101
1, 115180, Note_off_c, 0, 71, 64
1, 115196, Note_off_c, 0, 52, 51
1, 115226, Note_off_c, 0, 45, 42
1, 115266, Control_c, 0, 64, 93
1, 115266, Control_c, 0, 67, 100
1, 115281, Control_c, 0, 64, 92
1, 115296, Control_c, 0, 64, 88
1, 115297, Note_off_c, 0, 72, 59
1, 115311, Control_c, 0, 64, 79
1, 115312, Note_on_c, 0, 73, 68
1, 115326, Control_c, 0, 64, 67
1, 115326, Control_c, 0, 67, 101
1, 115340, Note_on_c, 0, 69, 45
1, 115340, Control_c, 0, 64, 48
1, 115343, Note_on_c, 0, 45, 43
1, 115343, Note_on_c, 0, 61, 47
1, 115346, Note_on_c, 0, 52, 45
1, 115355, Control_c, 0, 64, 15
1, 115370, Control_c, 0, 64, 18
1, 115370, Control_c, 0, 67, 100
1, 115385, Control_c, 0, 64, 40
1, 115385, Control_c, 0, 67, 100
1, 115399, Control_c, 0, 64, 55
1, 115399, Control_c, 0, 67, 99
1, 115414, Control_c, 0, 64, 62
1, 115414, Control_c, 0, 67, 98
1, 115423, Note_off_c, 0, 69, 59
1, 115429, Control_c, 0, 64, 66
1, 115429, Control_c, 0, 67, 97
1, 115444, Note_off_c, 0, 61, 53
1, 115444, Control_c, 0, 64, 71
1, 115444, Control_c, 0, 67, 95
1, 115459, Control_c, 0, 64, 75
1, 115459, Control_c, 0, 67, 95
1, 115465, Note_off_c, 0, 45, 58
1, 115470, Note_off_c, 0, 52, 61
1, 115474, Control_c, 0, 64, 77
1, 115474, Control_c, 0, 67, 94
1, 115489, Control_c, 0, 64, 79
1, 115489, Control_c, 0, 67, 92
1, 115504, Control_c, 0, 64, 80
1, 115504, Control_c, 0, 67, 90
1, 115518, Control_c, 0, 64, 81
1, 115518, Control_c, 0, 67, 86
1, 115527, Note_off_c, 0, 73, 58
1, 115533, Control_c, 0, 64, 81
1, 115533, Control_c, 0, 67, 82
1, 115548, Control_c, 0, 64, 82
1, 115548, Control_c, 0, 67, 79
1, 115563, Control_c, 0, 64, 83
1, 115563, Control_c, 0, 67, 74
1, 115570, Note_on_c, 0, 69, 61
1, 115573, Note_on_c, 0, 52, 64
1, 115578, Control_c, 0, 64, 84
1, 115578, Control_c, 0, 67, 70
1, 115598, Note_on_c, 0, 61, 33
1, 115599, Control_c, 0, 64, 85
1, 115599, Control_c, 0, 67, 67
1, 115611, Note_on_c, 0, 45, 41
1, 115614, Control_c, 0, 64, 86
1, 115614, Control_c, 0, 67, 64
1, 115620, Note_off_c, 0, 69, 65
1, 115629, Note_off_c, 0, 61, 49
1, 115629, Control_c, 0, 64, 86
1, 115629, Control_c, 0, 67, 64
1, 115642, Note_off_c, 0, 45, 52
1, 115644, Control_c, 0, 64, 87
1, 115646, Note_off_c, 0, 52, 58
1, 115659, Control_c, 0, 64, 88
1, 115673, Control_c, 0, 64, 89
1, 115688, Control_c, 0, 67, 64
1, 115694, Note_on_c, 0, 78, 77
1, 115703, Control_c, 0, 64, 90
1, 115703, Control_c, 0, 67, 65
1, 115718, Control_c, 0, 64, 90
1, 115718, Control_c, 0, 67, 65
1, 115719, Note_on_c, 0, 66, 41
1, 115723, Note_off_c, 0, 78, 62
1, 115733, Control_c, 0, 64, 91
1, 115733, Control_c, 0, 67, 66
1, 115748, Control_c, 0, 64, 91
1, 115748, Note_off_c, 0, 66, 55
1, 115792, Control_c, 0, 64, 92
1, 115792, Control_c, 0, 67, 65
1, 115814, Note_on_c, 0, 76, 70
1, 115830, Note_on_c, 0, 68, 55
1, 115833, Note_on_c, 0, 52, 41
1, 115833, Note_on_c, 0, 64, 57
1, 115837, Control_c, 0, 67, 65
1, 115844, Note_on_c, 0, 59, 51
1, 115846, Note_on_c, 0, 45, 48
1, 115852, Control_c, 0, 64, 92
1, 115852, Control_c, 0, 67, 64
1, 115867, Control_c, 0, 64, 93
1, 115867, Control_c, 0, 67, 64
1, 115882, Control_c, 0, 64, 94
1, 115882, Control_c, 0, 67, 63
1, 115889, Note_off_c, 0, 68, 57
1, 115897, Note_off_c, 0, 76, 60
1, 115897, Control_c, 0, 64, 95
1, 115899, Note_off_c, 0, 64, 51
1, 115912, Control_c, 0, 64, 96
1, 115927, Control_c, 0, 64, 97
1, 115929, Note_on_c, 0, 71, 64
1, 115942, Control_c, 0, 64, 98
1, 115951, Note_off_c, 0, 59, 61
1, 115957, Control_c, 0, 64, 99
1, 115957, Control_c, 0, 67, 64
1, 115970, Note_off_c, 0, 45, 63
1, 115971, Control_c, 0, 64, 100
1, 115971, Control_c, 0, 67, 64
1, 115975, Note_off_c, 0, 52, 61
1, 115986, Control_c, 0, 64, 101
1, 115986, Control_c, 0, 67, 65
1, 116001, Control_c, 0, 67, 65
1, 116015, Control_c, 0, 67, 66
1, 116030, Control_c, 0, 64, 100
1, 116040, Note_on_c, 0, 73, 70
1, 116045, Control_c, 0, 64, 96
1, 116045, Control_c, 0, 67, 66
1, 116053, Note_on_c, 0, 69, 61
1, 116060, Note_off_c, 0, 71, 60
1, 116060, Control_c, 0, 64, 80
1, 116066, Note_on_c, 0, 61, 56
1, 116075, Control_c, 0, 64, 65
1, 116088, Note_on_c, 0, 52, 49
1, 116089, Control_c, 0, 64, 46
1, 116094, Note_on_c, 0, 45, 46
1, 116104, Control_c, 0, 64, 16
1, 116119, Control_c, 0, 64, 31
1, 116119, Control_c, 0, 67, 66
1, 116134, Control_c, 0, 64, 50
1, 116134, Control_c, 0, 67, 65
1, 116149, Control_c, 0, 64, 61
1, 116149, Control_c, 0, 67, 65
1, 116155, Note_off_c, 0, 69, 63
1, 116163, Control_c, 0, 64, 66
1, 116163, Control_c, 0, 67, 64
1, 116178, Control_c, 0, 64, 71
1, 116178, Control_c, 0, 67, 64
1, 116182, Note_off_c, 0, 61, 62
1, 116193, Control_c, 0, 64, 76
1, 116193, Control_c, 0, 67, 63
1, 116199, Note_off_c, 0, 52, 64
1, 116201, Note_off_c, 0, 45, 60
1, 116208, Control_c, 0, 64, 79
1, 116208, Control_c, 0, 67, 63
1, 116222, Control_c, 0, 64, 81
1, 116222, Control_c, 0, 67, 61
1, 116237, Control_c, 0, 64, 82
1, 116237, Control_c, 0, 67, 55
1, 116252, Control_c, 0, 67, 48
1, 116267, Control_c, 0, 67, 40
1, 116282, Control_c, 0, 67, 35
1, 116288, Note_on_c, 0, 69, 68
1, 116293, Note_off_c, 0, 73, 46
1, 116296, Control_c, 0, 64, 83
1, 116296, Control_c, 0, 67, 31
1, 116299, Note_on_c, 0, 52, 64
1, 116309, Note_on_c, 0, 45, 51
1, 116311, Control_c, 0, 67, 27
1, 116315, Note_on_c, 0, 61, 41
1, 116326, Control_c, 0, 67, 23
1, 116340, Note_off_c, 0, 69, 66
1, 116348, Control_c, 0, 67, 20
1, 116355, Note_off_c, 0, 61, 48
1, 116360, Note_off_c, 0, 45, 60
1, 116363, Control_c, 0, 67, 17
1, 116378, Note_off_c, 0, 52, 58
1, 116378, Control_c, 0, 67, 16
1, 116393, Control_c, 0, 64, 83
1, 116408, Control_c, 0, 64, 84
1, 116415, Note_on_c, 0, 78, 74
1, 116441, Note_off_c, 0, 78, 68
1, 116448, Note_on_c, 0, 66, 23
1, 116467, Control_c, 0, 64, 85
1, 116482, Control_c, 0, 64, 86
1, 116487, Note_off_c, 0, 66, 47
1, 116496, Control_c, 0, 64, 86
1, 116511, Control_c, 0, 64, 87
1, 116541, Control_c, 0, 67, 16
1, 116556, Control_c, 0, 64, 85
1, 116556, Control_c, 0, 67, 15
1, 116568, Note_on_c, 0, 76, 71
1, 116571, Control_c, 0, 64, 76
1, 116571, Control_c, 0, 67, 15
1, 116586, Control_c, 0, 64, 66
1, 116600, Control_c, 0, 64, 54
1, 116600, Control_c, 0, 67, 13
1, 116605, Note_on_c, 0, 64, 32
1, 116609, Note_on_c, 0, 62, 49
1, 116609, Note_on_c, 0, 59, 45
1, 116612, Note_on_c, 0, 68, 56
1, 116615, Control_c, 0, 64, 38
1, 116615, Control_c, 0, 67, 10
1, 116618, Note_on_c, 0, 52, 43
1, 116619, Note_on_c, 0, 45, 37
1, 116631, Control_c, 0, 64, 42
1, 116631, Control_c, 0, 67, 8
1, 116645, Control_c, 0, 64, 56
1, 116645, Control_c, 0, 67, 0
1, 116660, Control_c, 0, 64, 64
1, 116675, Control_c, 0, 64, 67
1, 116690, Control_c, 0, 64, 72
1, 116699, Note_on_c, 0, 75, 80
1, 116701, Note_off_c, 0, 62, 32
1, 116705, Control_c, 0, 64, 76
1, 116714, Note_off_c, 0, 68, 60
1, 116720, Note_off_c, 0, 59, 64
1, 116720, Control_c, 0, 64, 79
1, 116721, Note_off_c, 0, 45, 57
1, 116723, Note_off_c, 0, 76, 63
1, 116735, Control_c, 0, 64, 80
1, 116737, Note_off_c, 0, 52, 61
1, 116741, Note_off_c, 0, 64, 26
1, 116776, Note_off_c, 0, 75, 64
1, 116794, Control_c, 0, 64, 78
1, 116809, Control_c, 0, 64, 71
1, 116810, Note_on_c, 0, 74, 75
1, 116824, Control_c, 0, 64, 63
1, 116838, Control_c, 0, 64, 53
1, 116842, Note_on_c, 0, 64, 47
1, 116844, Note_on_c, 0, 68, 58
1, 116848, Note_on_c, 0, 62, 56
1, 116848, Note_on_c, 0, 59, 51
1, 116853, Control_c, 0, 64, 56
1, 116863, Note_on_c, 0, 52, 46
1, 116867, Note_on_c, 0, 45, 49
1, 116868, Control_c, 0, 64, 63
1, 116883, Control_c, 0, 64, 67
1, 116898, Control_c, 0, 64, 72
1, 116912, Control_c, 0, 64, 81
1, 116920, Note_off_c, 0, 45, 64
1, 116922, Note_off_c, 0, 59, 65
1, 116927, Control_c, 0, 64, 89
1, 116936, Note_off_c, 0, 52, 63
1, 116938, Note_off_c, 0, 62, 61
1, 116940, Note_off_c, 0, 64, 61
1, 116942, Control_c, 0, 64, 97
1, 116957, Control_c, 0, 64, 106
1, 116964, Note_off_c, 0, 68, 63
1, 116972, Control_c, 0, 64, 120
1, 116986, Control_c, 0, 64, 127
1, 117066, Note_on_c, 0, 59, 52
1, 117067, Note_on_c, 0, 68, 64
1, 117077, Note_on_c, 0, 64, 26
1, 117088, Note_on_c, 0, 62, 34
1, 117089, Note_on_c, 0, 45, 43
1, 117093, Note_on_c, 0, 52, 50
1, 117095, Note_off_c, 0, 74, 63
1, 117128, Note_off_c, 0, 62, 52
1, 117131, Note_off_c, 0, 64, 49
1, 117149, Note_off_c, 0, 59, 63
1, 117155, Note_off_c, 0, 45, 54
1, 117161, Note_off_c, 0, 68, 64
1, 117164, Note_on_c, 0, 72, 70
1, 117168, Note_off_c, 0, 52, 60
1, 117235, Note_off_c, 0, 72, 62
1, 117333, Control_c, 0, 64, 105
1, 117348, Control_c, 0, 64, 81
1, 117354, Note_on_c, 0, 73, 59
1, 117362, Control_c, 0, 64, 61
1, 117370, Note_on_c, 0, 69, 45
1, 117374, Note_on_c, 0, 61, 35
1, 117377, Control_c, 0, 64, 39
1, 117379, Note_on_c, 0, 52, 28
1, 117392, Control_c, 0, 64, 25
1, 117394, Note_on_c, 0, 45, 38
1, 117408, Control_c, 0, 64, 42
1, 117423, Control_c, 0, 64, 58
1, 117438, Control_c, 0, 64, 65
1, 117453, Control_c, 0, 64, 71
1, 117467, Control_c, 0, 64, 81
1, 117477, Note_off_c, 0, 69, 63
1, 117482, Control_c, 0, 64, 88
1, 117497, Control_c, 0, 64, 92
1, 117505, Note_off_c, 0, 45, 58
1, 117508, Note_off_c, 0, 52, 55
1, 117512, Control_c, 0, 64, 94
1, 117526, Note_off_c, 0, 61, 48
1, 117527, Control_c, 0, 64, 95
1, 117539, Note_on_c, 0, 71, 56
1, 117556, Control_c, 0, 64, 95
1, 117571, Control_c, 0, 64, 91
1, 117586, Control_c, 0, 64, 79
1, 117600, Control_c, 0, 64, 67
1, 117615, Control_c, 0, 64, 59
1, 117630, Control_c, 0, 64, 61
1, 117631, Note_on_c, 0, 69, 56
1, 117644, Note_on_c, 0, 52, 36
1, 117644, Note_on_c, 0, 61, 43
1, 117645, Control_c, 0, 64, 66
1, 117650, Note_off_c, 0, 73, 35
1, 117659, Control_c, 0, 64, 69
1, 117660, Note_on_c, 0, 45, 42
1, 117674, Control_c, 0, 64, 73
1, 117689, Control_c, 0, 64, 77
1, 117704, Control_c, 0, 64, 82
1, 117719, Control_c, 0, 64, 88
1, 117724, Note_off_c, 0, 71, 28
1, 117733, Control_c, 0, 64, 92
1, 117739, Note_off_c, 0, 52, 52
1, 117743, Note_off_c, 0, 45, 58
1, 117744, Note_off_c, 0, 61, 58
1, 117749, Control_c, 0, 64, 94
1, 117764, Control_c, 0, 64, 95
1, 117793, Control_c, 0, 64, 95
1, 117823, Control_c, 0, 64, 96
1, 117849, Note_off_c, 0, 69, 56
1, 117856, Note_on_c, 0, 66, 65
1, 117876, Note_on_c, 0, 61, 63
1, 117894, Note_on_c, 0, 45, 40
1, 117900, Note_on_c, 0, 52, 41
1, 117923, Note_off_c, 0, 66, 62
1, 117966, Note_off_c, 0, 52, 48
1, 117981, Note_off_c, 0, 45, 54
1, 117982, Note_off_c, 0, 61, 63
1, 117990, Note_on_c, 0, 68, 56
1, 118031, Note_on_c, 0, 66, 62
1, 118047, Note_on_c, 0, 62, 55
1, 118053, Control_c, 0, 64, 95
1, 118082, Note_on_c, 0, 64, 65
1, 118082, Control_c, 0, 64, 93
1, 118097, Control_c, 0, 64, 90
1, 118100, Note_off_c, 0, 68, 34
1, 118112, Control_c, 0, 64, 86
1, 118118, Note_on_c, 0, 52, 50
1, 118127, Control_c, 0, 64, 81
1, 118130, Note_off_c, 0, 62, 65
1, 118133, Note_on_c, 0, 45, 49
1, 118142, Control_c, 0, 64, 76
1, 118157, Control_c, 0, 64, 71
1, 118171, Control_c, 0, 64, 68
1, 118172, Note_off_c, 0, 52, 59
1, 118178, Note_off_c, 0, 45, 62
1, 118186, Control_c, 0, 64, 65
1, 118201, Control_c, 0, 64, 63
1, 118201, Note_on_c, 0, 62, 68
1, 118213, Note_off_c, 0, 66, 35
1, 118216, Control_c, 0, 64, 61
1, 118231, Control_c, 0, 64, 59
1, 118243, Note_off_c, 0, 62, 58
1, 118246, Control_c, 0, 64, 57
1, 118261, Control_c, 0, 64, 55
1, 118276, Control_c, 0, 64, 50
1, 118291, Control_c, 0, 64, 39
1, 118306, Control_c, 0, 64, 15
1, 118320, Control_c, 0, 64, 0
1, 118341, Note_on_c, 0, 62, 63
1, 118350, Control_c, 0, 64, 27
1, 118365, Control_c, 0, 64, 52
1, 118368, Note_on_c, 0, 45, 44
1, 118368, Note_on_c, 0, 52, 43
1, 118380, Control_c, 0, 64, 63
1, 118395, Control_c, 0, 64, 68
1, 118409, Control_c, 0, 64, 73
1, 118424, Control_c, 0, 64, 78
1, 118430, Note_off_c, 0, 62, 62
1, 118434, Note_off_c, 0, 52, 60
1, 118439, Control_c, 0, 64, 82
1, 118450, Note_off_c, 0, 45, 57
1, 118454, Control_c, 0, 64, 84
1, 118469, Control_c, 0, 64, 86
1, 118483, Control_c, 0, 64, 87
1, 118498, Control_c, 0, 64, 88
1, 118543, Control_c, 0, 64, 88
1, 118571, Note_on_c, 0, 52, 53
1, 118571, Note_on_c, 0, 61, 64
1, 118594, Note_off_c, 0, 64, 50
1, 118596, Note_on_c, 0, 45, 52
1, 118640, Note_off_c, 0, 61, 54
1, 118651, Note_off_c, 0, 45, 57
1, 118663, Note_off_c, 0, 52, 57
1, 118687, Note_on_c, 0, 59, 62
1, 118714, Note_off_c, 0, 59, 67
1, 118743, Control_c, 0, 64, 88
1, 118758, Control_c, 0, 64, 87
1, 118772, Control_c, 0, 64, 78
1, 118787, Control_c, 0, 64, 68
1, 118802, Control_c, 0, 64, 60
1, 118803, Note_on_c, 0, 73, 69
1, 118803, Note_on_c, 0, 52, 50
1, 118816, Control_c, 0, 64, 58
1, 118818, Note_on_c, 0, 45, 39
1, 118827, Note_on_c, 0, 61, 49
1, 118831, Control_c, 0, 64, 63
1, 118846, Control_c, 0, 64, 66
1, 118861, Control_c, 0, 64, 67
1, 118876, Control_c, 0, 64, 70
1, 118890, Control_c, 0, 64, 72
1, 118899, Note_on_c, 0, 71, 70
1, 118905, Control_c, 0, 64, 75
1, 118920, Note_off_c, 0, 52, 60
1, 118920, Control_c, 0, 64, 77
1, 118926, Note_off_c, 0, 45, 64
1, 118927, Note_off_c, 0, 61, 49
1, 118935, Control_c, 0, 64, 78
1, 119006, Note_off_c, 0, 73, 29
1, 119025, Control_c, 0, 64, 77
1, 119027, Note_on_c, 0, 69, 76
1, 119039, Control_c, 0, 64, 71
1, 119041, Note_on_c, 0, 61, 65
1, 119045, Note_on_c, 0, 52, 54
1, 119054, Control_c, 0, 64, 64
1, 119059, Note_on_c, 0, 45, 43
1, 119066, Note_off_c, 0, 71, 59
1, 119069, Control_c, 0, 64, 53
1, 119084, Control_c, 0, 64, 46
1, 119099, Control_c, 0, 64, 52
1, 119113, Control_c, 0, 64, 60
1, 119125, Note_off_c, 0, 61, 55
1, 119127, Note_off_c, 0, 52, 57
1, 119128, Control_c, 0, 64, 65
1, 119143, Control_c, 0, 64, 68
1, 119152, Note_off_c, 0, 45, 61
1, 119158, Control_c, 0, 64, 73
1, 119173, Control_c, 0, 64, 79
1, 119188, Control_c, 0, 64, 83
1, 119203, Control_c, 0, 64, 86
1, 119218, Control_c, 0, 64, 88
1, 119232, Control_c, 0, 64, 90
1, 119238, Note_off_c, 0, 69, 58
1, 119247, Control_c, 0, 64, 92
1, 119248, Note_on_c, 0, 66, 64
1, 119248, Note_on_c, 0, 61, 65
1, 119262, Control_c, 0, 64, 93
1, 119266, Note_on_c, 0, 52, 60
1, 119277, Control_c, 0, 64, 95
1, 119286, Note_off_c, 0, 66, 64
1, 119290, Note_on_c, 0, 45, 47
1, 119292, Control_c, 0, 64, 96
1, 119306, Control_c, 0, 64, 97
1, 119321, Control_c, 0, 64, 98
1, 119343, Control_c, 0, 64, 99
1, 119350, Note_off_c, 0, 61, 62
1, 119361, Note_on_c, 0, 68, 73
1, 119368, Note_off_c, 0, 45, 51
1, 119380, Note_off_c, 0, 52, 45
1, 119417, Control_c, 0, 64, 100
1, 119433, Note_off_c, 0, 68, 51
1, 119441, Note_on_c, 0, 66, 64
1, 119512, Note_on_c, 0, 64, 67
1, 119523, Note_on_c, 0, 62, 67
1, 119525, Note_on_c, 0, 52, 59
1, 119543, Note_on_c, 0, 45, 46
1, 119549, Note_off_c, 0, 62, 67
1, 119566, Note_off_c, 0, 52, 63
1, 119580, Control_c, 0, 64, 100
1, 119581, Note_off_c, 0, 45, 61
1, 119599, Note_on_c, 0, 62, 66
1, 119606, Note_off_c, 0, 66, 27
1, 119620, Note_off_c, 0, 62, 63
1, 119672, Note_on_c, 0, 62, 64
1, 119694, Note_off_c, 0, 62, 60
1, 119699, Control_c, 0, 64, 100
1, 119713, Control_c, 0, 64, 95
1, 119728, Control_c, 0, 64, 84
1, 119743, Control_c, 0, 64, 69
1, 119756, Note_on_c, 0, 62, 75
1, 119757, Control_c, 0, 64, 51
1, 119772, Control_c, 0, 64, 0
1, 119778, Note_on_c, 0, 52, 58
1, 119795, Note_on_c, 0, 45, 42
1, 119802, Control_c, 0, 64, 33
1, 119818, Control_c, 0, 64, 54
1, 119832, Note_off_c, 0, 62, 61
1, 119832, Note_off_c, 0, 52, 61
1, 119833, Control_c, 0, 64, 63
1, 119837, Note_off_c, 0, 45, 59
1, 119848, Control_c, 0, 64, 66
1, 119862, Control_c, 0, 64, 71
1, 119877, Control_c, 0, 64, 77
1, 119892, Control_c, 0, 64, 80
1, 119907, Control_c, 0, 64, 81
1, 119988, Note_on_c, 0, 52, 57
1, 119988, Note_on_c, 0, 61, 69
1, 120006, Note_on_c, 0, 45, 39
1, 120033, Note_off_c, 0, 64, 61
1, 120042, Note_off_c, 0, 45, 51
1, 120055, Note_off_c, 0, 52, 56
1, 120065, Note_off_c, 0, 61, 62
1, 120085, Note_on_c, 0, 59, 68
1, 120114, Note_off_c, 0, 59, 67
1, 120166, Control_c, 0, 64, 76
1, 120181, Control_c, 0, 64, 64
1, 120195, Control_c, 0, 64, 49
1, 120204, Note_on_c, 0, 64, 63
1, 120209, Note_on_c, 0, 59, 48
1, 120209, Note_on_c, 0, 62, 65
1, 120210, Control_c, 0, 64, 33
1, 120223, Note_on_c, 0, 52, 39
1, 120225, Control_c, 0, 64, 45
1, 120236, Note_on_c, 0, 45, 42
1, 120240, Control_c, 0, 64, 57
1, 120255, Control_c, 0, 64, 63
1, 120269, Control_c, 0, 64, 67
1, 120275, Note_off_c, 0, 62, 59
1, 120281, Note_off_c, 0, 45, 62
1, 120282, Note_off_c, 0, 59, 65
1, 120284, Control_c, 0, 64, 72
1, 120297, Note_off_c, 0, 52, 62
1, 120299, Control_c, 0, 64, 76
1, 120301, Note_on_c, 0, 66, 77
1, 120314, Control_c, 0, 64, 80
1, 120322, Note_off_c, 0, 64, 60
1, 120329, Control_c, 0, 64, 83
1, 120343, Control_c, 0, 64, 83
1, 120358, Control_c, 0, 64, 83
1, 120373, Control_c, 0, 64, 74
1, 120387, Control_c, 0, 64, 64
1, 120402, Control_c, 0, 64, 53
1, 120406, Note_on_c, 0, 68, 77
1, 120417, Control_c, 0, 64, 54
1, 120432, Note_on_c, 0, 59, 59
1, 120432, Control_c, 0, 64, 61
1, 120434, Note_on_c, 0, 52, 60
1, 120435, Note_on_c, 0, 64, 57
1, 120436, Note_on_c, 0, 62, 36
1, 120440, Note_on_c, 0, 45, 49
1, 120443, Note_off_c, 0, 66, 60
1, 120447, Control_c, 0, 64, 64
1, 120458, Note_off_c, 0, 59, 68
1, 120461, Control_c, 0, 64, 67
1, 120464, Note_off_c, 0, 45, 52
1, 120464, Note_off_c, 0, 52, 64
1, 120470, Note_off_c, 0, 62, 53
1, 120476, Control_c, 0, 64, 70
1, 120491, Control_c, 0, 64, 74
1, 120506, Control_c, 0, 64, 79
1, 120521, Control_c, 0, 64, 82
1, 120535, Control_c, 0, 64, 84
1, 120550, Control_c, 0, 64, 85
1, 120565, Control_c, 0, 64, 87
1, 120580, Control_c, 0, 64, 91
1, 120595, Control_c, 0, 64, 94
1, 120610, Control_c, 0, 64, 95
1, 120640, Control_c, 0, 64, 95
1, 120655, Control_c, 0, 64, 96
1, 120670, Control_c, 0, 64, 96
1, 120682, Note_on_c, 0, 69, 77
1, 120684, Control_c, 0, 64, 97
1, 120686, Note_off_c, 0, 64, 60
1, 120694, Note_on_c, 0, 52, 59
1, 120694, Note_on_c, 0, 59, 73
1, 120701, Note_on_c, 0, 62, 65
1, 120711, Note_on_c, 0, 45, 48
1, 120718, Note_off_c, 0, 59, 68
1, 120720, Note_off_c, 0, 62, 64
1, 120726, Note_off_c, 0, 52, 64
1, 120729, Note_off_c, 0, 68, 49
1, 120732, Note_off_c, 0, 69, 65
1, 120740, Note_off_c, 0, 45, 54
1, 120818, Control_c, 0, 64, 96
1, 120840, Control_c, 0, 64, 92
1, 120855, Control_c, 0, 64, 83
1, 120870, Control_c, 0, 64, 74
1, 120884, Control_c, 0, 64, 69
1, 120899, Control_c, 0, 64, 70
1, 120914, Control_c, 0, 64, 73
1, 120920, Note_on_c, 0, 71, 82
1, 120929, Control_c, 0, 64, 76
1, 120936, Note_on_c, 0, 68, 56
1, 120938, Note_on_c, 0, 59, 56
1, 120941, Note_on_c, 0, 62, 47
1, 120944, Note_on_c, 0, 64, 43
1, 120944, Control_c, 0, 64, 80
1, 120955, Note_on_c, 0, 45, 45
1, 120958, Note_on_c, 0, 52, 47
1, 120959, Control_c, 0, 64, 83
1, 120968, Note_off_c, 0, 59, 52
1, 120973, Control_c, 0, 64, 86
1, 120977, Note_off_c, 0, 68, 63
1, 120987, Note_off_c, 0, 52, 56
1, 120988, Control_c, 0, 64, 88
1, 120990, Note_off_c, 0, 45, 53
1, 120998, Note_on_c, 0, 73, 84
1, 121003, Control_c, 0, 64, 88
1, 121009, Note_off_c, 0, 62, 38
1, 121018, Control_c, 0, 64, 89
1, 121033, Control_c, 0, 64, 91
1, 121040, Note_off_c, 0, 64, 35
1, 121048, Control_c, 0, 64, 91
1, 121052, Note_off_c, 0, 71, 61
1, 121078, Control_c, 0, 64, 90
1, 121092, Control_c, 0, 64, 83
1, 121093, Note_on_c, 0, 74, 87
1, 121103, Note_on_c, 0, 59, 69
1, 121106, Note_on_c, 0, 52, 58
1, 121107, Control_c, 0, 64, 77
1, 121109, Note_on_c, 0, 68, 63
1, 121113, Note_on_c, 0, 45, 61
1, 121122, Control_c, 0, 64, 76
1, 121124, Note_on_c, 0, 64, 43
1, 121129, Note_off_c, 0, 73, 64
1, 121137, Note_on_c, 0, 62, 29
1, 121137, Note_off_c, 0, 59, 67
1, 121137, Control_c, 0, 64, 76
1, 121146, Note_off_c, 0, 45, 65
1, 121146, Note_off_c, 0, 68, 65
1, 121147, Note_off_c, 0, 52, 65
1, 121149, Note_off_c, 0, 64, 58
1, 121152, Control_c, 0, 64, 78
1, 121166, Control_c, 0, 64, 81
1, 121174, Note_off_c, 0, 62, 45
1, 121180, Note_off_c, 0, 74, 61
1, 121181, Control_c, 0, 64, 84
1, 121196, Control_c, 0, 64, 86
1, 121210, Control_c, 0, 64, 89
1, 121225, Control_c, 0, 64, 92
1, 121240, Control_c, 0, 64, 94
1, 121270, Control_c, 0, 64, 95
1, 121314, Control_c, 0, 64, 93
1, 121329, Control_c, 0, 64, 84
1, 121343, Control_c, 0, 64, 71
1, 121358, Control_c, 0, 64, 58
1, 121371, Note_on_c, 0, 75, 87
1, 121373, Control_c, 0, 64, 38
1, 121385, Note_on_c, 0, 59, 73
1, 121388, Control_c, 0, 64, 47
1, 121390, Note_on_c, 0, 45, 67
1, 121391, Note_on_c, 0, 52, 68
1, 121391, Note_on_c, 0, 68, 46
1, 121394, Note_on_c, 0, 64, 58
1, 121397, Note_on_c, 0, 62, 64
1, 121404, Control_c, 0, 64, 60
1, 121418, Note_off_c, 0, 59, 67
1, 121419, Control_c, 0, 64, 67
1, 121421, Note_off_c, 0, 45, 66
1, 121424, Note_off_c, 0, 52, 66
1, 121433, Control_c, 0, 64, 74
1, 121448, Control_c, 0, 64, 84
1, 121450, Note_off_c, 0, 62, 52
1, 121463, Control_c, 0, 64, 94
1, 121468, Note_off_c, 0, 64, 44
1, 121478, Control_c, 0, 64, 100
1, 121494, Control_c, 0, 64, 103
1, 121508, Control_c, 0, 64, 106
1, 121514, Note_off_c, 0, 75, 63
1, 121523, Control_c, 0, 64, 108
1, 121538, Control_c, 0, 64, 108
1, 121590, Control_c, 0, 64, 108
1, 121605, Note_on_c, 0, 76, 83
1, 121620, Note_on_c, 0, 52, 60
1, 121623, Note_on_c, 0, 45, 64
1, 121623, Note_on_c, 0, 59, 68
1, 121634, Control_c, 0, 64, 107
1, 121649, Control_c, 0, 64, 106
1, 121655, Note_off_c, 0, 59, 63
1, 121664, Note_off_c, 0, 45, 55
1, 121666, Note_off_c, 0, 68, 48
1, 121670, Note_off_c, 0, 52, 61
1, 121692, Note_on_c, 0, 74, 77
1, 121725, Note_off_c, 0, 76, 61
1, 121787, Note_on_c, 0, 71, 79
1, 121799, Note_on_c, 0, 68, 64
1, 121799, Note_off_c, 0, 74, 63
1, 121812, Note_on_c, 0, 64, 47
1, 121814, Note_on_c, 0, 62, 69
1, 121817, Note_on_c, 0, 59, 73
1, 121820, Note_on_c, 0, 52, 70
1, 121827, Note_on_c, 0, 45, 56
1, 121856, Note_off_c, 0, 45, 63
1, 121859, Note_off_c, 0, 59, 54
1, 121867, Note_off_c, 0, 52, 56
1, 121887, Note_off_c, 0, 62, 59
1, 121887, Note_off_c, 0, 64, 57
1, 121897, Note_off_c, 0, 71, 63
1, 121905, Note_off_c, 0, 68, 55
1, 121930, Control_c, 0, 64, 106
1, 121945, Control_c, 0, 64, 105
1, 121960, Control_c, 0, 64, 102
1, 121975, Control_c, 0, 64, 101
1, 121990, Control_c, 0, 64, 100
1, 122000, Note_on_c, 0, 73, 78
1, 122010, Note_on_c, 0, 59, 72
1, 122011, Note_on_c, 0, 64, 58
1, 122014, Note_on_c, 0, 52, 66
1, 122017, Note_on_c, 0, 62, 58
1, 122018, Note_on_c, 0, 45, 61
1, 122029, Note_on_c, 0, 68, 59
1, 122050, Note_off_c, 0, 62, 48
1, 122063, Note_off_c, 0, 64, 43
1, 122065, Note_off_c, 0, 59, 64
1, 122074, Note_off_c, 0, 68, 63
1, 122088, Note_on_c, 0, 71, 79
1, 122100, Note_off_c, 0, 45, 61
1, 122100, Note_off_c, 0, 52, 60
1, 122123, Control_c, 0, 64, 99
1, 122138, Control_c, 0, 64, 89
1, 122141, Note_off_c, 0, 73, 60
1, 122152, Control_c, 0, 64, 72
1, 122167, Control_c, 0, 64, 56
1, 122182, Control_c, 0, 64, 0
1, 122195, Note_on_c, 0, 69, 78
1, 122202, Note_on_c, 0, 57, 77
1, 122207, Note_on_c, 0, 61, 69
1, 122208, Note_on_c, 0, 52, 72
1, 122213, Control_c, 0, 64, 27
1, 122218, Note_on_c, 0, 45, 65
1, 122222, Note_off_c, 0, 71, 64
1, 122228, Control_c, 0, 64, 54
1, 122236, Note_off_c, 0, 57, 65
1, 122240, Note_off_c, 0, 52, 67
1, 122243, Control_c, 0, 64, 64
1, 122257, Control_c, 0, 64, 70
1, 122272, Control_c, 0, 64, 78
1, 122276, Note_off_c, 0, 45, 65
1, 122287, Control_c, 0, 64, 88
1, 122291, Note_on_c, 0, 73, 74
1, 122302, Control_c, 0, 64, 96
1, 122304, Note_off_c, 0, 69, 67
1, 122310, Note_off_c, 0, 61, 60
1, 122317, Control_c, 0, 64, 105
1, 122339, Control_c, 0, 64, 127
1, 122347, Note_off_c, 0, 73, 64
1, 122457, Control_c, 0, 64, 101
1, 122471, Note_on_c, 0, 71, 87
1, 122472, Control_c, 0, 64, 74
1, 122476, Note_on_c, 0, 68, 73
1, 122487, Control_c, 0, 64, 51
1, 122488, Note_on_c, 0, 59, 65
1, 122494, Note_on_c, 0, 52, 71
1, 122500, Note_on_c, 0, 64, 56
1, 122502, Note_on_c, 0, 40, 64
1, 122502, Control_c, 0, 64, 0
1, 122531, Control_c, 0, 64, 12
1, 122546, Control_c, 0, 64, 45
1, 122561, Control_c, 0, 64, 60
1, 122576, Control_c, 0, 64, 67
1, 122590, Control_c, 0, 64, 78
1, 122605, Control_c, 0, 64, 97
1, 122613, Note_off_c, 0, 59, 64
1, 122620, Control_c, 0, 64, 127
1, 122636, Note_off_c, 0, 52, 63
1, 122645, Note_off_c, 0, 40, 62
1, 122705, Note_off_c, 0, 64, 57
1, 122756, Note_on_c, 0, 64, 33
1, 122884, Note_on_c, 0, 66, 76
1, 122895, Note_off_c, 0, 64, 61
1, 122896, Note_on_c, 0, 62, 66
1, 122899, Note_off_c, 0, 68, 34
1, 122906, Note_off_c, 0, 71, 30
1, 122941, Note_off_c, 0, 62, 65
1, 122962, Note_off_c, 0, 66, 63
1, 123161, Control_c, 0, 64, 85
1, 123165, Note_on_c, 0, 73, 69
1, 123176, Control_c, 0, 64, 65
1, 123190, Note_on_c, 0, 64, 41
1, 123191, Note_on_c, 0, 61, 45
1, 123191, Control_c, 0, 64, 44
1, 123204, Note_on_c, 0, 45, 42
1, 123205, Note_on_c, 0, 52, 46
1, 123206, Control_c, 0, 64, 48
1, 123221, Control_c, 0, 64, 62
1, 123236, Control_c, 0, 64, 68
1, 123251, Control_c, 0, 64, 76
1, 123266, Control_c, 0, 64, 87
1, 123280, Control_c, 0, 64, 96
1, 123295, Control_c, 0, 64, 104
1, 123307, Note_on_c, 0, 71, 69
1, 123308, Note_off_c, 0, 64, 52
1, 123310, Control_c, 0, 64, 110
1, 123325, Control_c, 0, 64, 113
1, 123325, Note_off_c, 0, 45, 63
1, 123328, Note_off_c, 0, 61, 61
1, 123355, Control_c, 0, 64, 113
1, 123360, Note_off_c, 0, 52, 58
1, 123369, Control_c, 0, 64, 98
1, 123384, Control_c, 0, 64, 79
1, 123399, Control_c, 0, 64, 63
1, 123401, Note_on_c, 0, 69, 74
1, 123413, Control_c, 0, 64, 56
1, 123420, Note_off_c, 0, 73, 53
1, 123428, Note_on_c, 0, 52, 42
1, 123428, Control_c, 0, 64, 62
1, 123431, Note_on_c, 0, 61, 51
1, 123442, Note_on_c, 0, 45, 41
1, 123443, Control_c, 0, 64, 68
1, 123458, Control_c, 0, 64, 74
1, 123464, Note_off_c, 0, 71, 61
1, 123473, Control_c, 0, 64, 81
1, 123487, Control_c, 0, 64, 88
1, 123502, Control_c, 0, 64, 94
1, 123504, Note_off_c, 0, 52, 63
1, 123516, Note_off_c, 0, 61, 62
1, 123517, Control_c, 0, 64, 98
1, 123527, Note_off_c, 0, 45, 59
1, 123532, Control_c, 0, 64, 103
1, 123547, Control_c, 0, 64, 109
1, 123561, Control_c, 0, 64, 111
1, 123576, Control_c, 0, 64, 112
1, 123619, Note_off_c, 0, 69, 65
1, 123623, Note_on_c, 0, 66, 70
1, 123632, Note_on_c, 0, 61, 71
1, 123635, Control_c, 0, 64, 113
1, 123642, Note_on_c, 0, 52, 57
1, 123643, Note_on_c, 0, 45, 52
1, 123680, Control_c, 0, 64, 112
1, 123681, Note_off_c, 0, 66, 60
1, 123714, Note_off_c, 0, 61, 63
1, 123737, Note_on_c, 0, 68, 70
1, 123739, Note_off_c, 0, 52, 55
1, 123756, Note_off_c, 0, 45, 58
1, 123793, Note_on_c, 0, 66, 60
1, 123799, Control_c, 0, 64, 111
1, 123814, Control_c, 0, 64, 111
1, 123820, Note_on_c, 0, 62, 58
1, 123835, Note_on_c, 0, 64, 73
1, 123836, Control_c, 0, 64, 109
1, 123844, Note_off_c, 0, 68, 52
1, 123851, Control_c, 0, 64, 106
1, 123866, Control_c, 0, 64, 103
1, 123871, Note_off_c, 0, 62, 65
1, 123878, Note_on_c, 0, 52, 62
1, 123881, Control_c, 0, 64, 100
1, 123889, Note_on_c, 0, 45, 54
1, 123896, Control_c, 0, 64, 97
1, 123910, Control_c, 0, 64, 94
1, 123925, Control_c, 0, 64, 91
1, 123930, Note_off_c, 0, 52, 60
1, 123937, Note_on_c, 0, 62, 73
1, 123939, Note_off_c, 0, 45, 60
1, 123940, Control_c, 0, 64, 87
1, 123955, Control_c, 0, 64, 84
1, 123970, Control_c, 0, 64, 81
1, 123972, Note_off_c, 0, 66, 32
1, 123984, Control_c, 0, 64, 76
1, 123989, Note_off_c, 0, 62, 62
1, 123999, Control_c, 0, 64, 69
1, 124014, Control_c, 0, 64, 61
1, 124029, Control_c, 0, 64, 47
1, 124044, Control_c, 0, 64, 23
1, 124057, Note_on_c, 0, 62, 62
1, 124059, Control_c, 0, 64, 0
1, 124082, Note_on_c, 0, 45, 43
1, 124083, Note_on_c, 0, 52, 47
1, 124089, Control_c, 0, 64, 30
1, 124103, Control_c, 0, 64, 52
1, 124118, Control_c, 0, 64, 63
1, 124133, Control_c, 0, 64, 69
1, 124148, Control_c, 0, 64, 75
1, 124151, Note_off_c, 0, 62, 64
1, 124161, Note_off_c, 0, 52, 60
1, 124163, Control_c, 0, 64, 81
1, 124175, Note_off_c, 0, 45, 59
1, 124178, Control_c, 0, 64, 84
1, 124192, Control_c, 0, 64, 87
1, 124207, Control_c, 0, 64, 89
1, 124222, Control_c, 0, 64, 91
1, 124251, Control_c, 0, 64, 91
1, 124285, Note_on_c, 0, 61, 66
1, 124287, Note_on_c, 0, 52, 58
1, 124312, Note_on_c, 0, 45, 45
1, 124324, Note_off_c, 0, 64, 46
1, 124336, Note_off_c, 0, 61, 54
1, 124352, Note_off_c, 0, 45, 53
1, 124354, Note_off_c, 0, 52, 55
1, 124354, Control_c, 0, 64, 92
1, 124369, Control_c, 0, 64, 93
1, 124370, Note_on_c, 0, 59, 66
1, 124384, Control_c, 0, 64, 94
1, 124396, Note_off_c, 0, 59, 67
1, 124414, Control_c, 0, 64, 93
1, 124428, Control_c, 0, 64, 86
1, 124443, Control_c, 0, 64, 74
1, 124458, Control_c, 0, 64, 64
1, 124473, Control_c, 0, 64, 63
1, 124474, Note_on_c, 0, 73, 73
1, 124485, Note_on_c, 0, 52, 60
1, 124487, Note_on_c, 0, 45, 49
1, 124488, Control_c, 0, 64, 68
1, 124494, Note_on_c, 0, 61, 61
1, 124502, Control_c, 0, 64, 74
1, 124517, Control_c, 0, 64, 79
1, 124532, Control_c, 0, 64, 82
1, 124546, Control_c, 0, 64, 86
1, 124559, Note_on_c, 0, 71, 76
1, 124561, Control_c, 0, 64, 91
1, 124583, Control_c, 0, 64, 96
1, 124598, Control_c, 0, 64, 99
1, 124600, Note_off_c, 0, 61, 57
1, 124607, Note_off_c, 0, 52, 58
1, 124613, Note_off_c, 0, 45, 61
1, 124614, Control_c, 0, 64, 100
1, 124658, Control_c, 0, 64, 96
1, 124673, Control_c, 0, 64, 81
1, 124679, Note_on_c, 0, 69, 80
1, 124688, Control_c, 0, 64, 67
1, 124694, Note_on_c, 0, 61, 66
1, 124697, Note_on_c, 0, 52, 57
1, 124700, Note_off_c, 0, 73, 34
1, 124703, Control_c, 0, 64, 51
1, 124706, Note_on_c, 0, 45, 46
1, 124720, Note_off_c, 0, 71, 62
1, 124732, Control_c, 0, 64, 61
1, 124747, Control_c, 0, 64, 67
1, 124762, Control_c, 0, 64, 74
1, 124775, Note_off_c, 0, 52, 62
1, 124777, Control_c, 0, 64, 84
1, 124785, Note_off_c, 0, 61, 63
1, 124789, Note_off_c, 0, 45, 58
1, 124792, Control_c, 0, 64, 95
1, 124807, Control_c, 0, 64, 109
1, 124822, Control_c, 0, 64, 127
1, 124861, Note_off_c, 0, 69, 60
1, 124886, Note_on_c, 0, 61, 75
1, 124887, Note_on_c, 0, 66, 68
1, 124903, Note_on_c, 0, 52, 66
1, 124920, Note_on_c, 0, 45, 54
1, 124926, Note_off_c, 0, 66, 62
1, 124984, Note_off_c, 0, 61, 60
1, 124987, Note_on_c, 0, 68, 77
1, 125019, Note_off_c, 0, 45, 47
1, 125030, Note_off_c, 0, 68, 55
1, 125034, Note_off_c, 0, 52, 33
1, 125072, Note_on_c, 0, 66, 74
1, 125145, Note_on_c, 0, 64, 79
1, 125159, Note_on_c, 0, 52, 64
1, 125161, Note_on_c, 0, 45, 57
1, 125169, Note_on_c, 0, 62, 68
1, 125171, Note_off_c, 0, 66, 61
1, 125191, Note_off_c, 0, 62, 67
1, 125201, Note_off_c, 0, 52, 63
1, 125209, Note_off_c, 0, 45, 62
1, 125234, Note_on_c, 0, 62, 80
1, 125262, Note_off_c, 0, 62, 62
1, 125342, Poly_aftertouch_c, 0, 62, 0
1, 125377, Control_c, 0, 64, 93
1, 125390, Note_on_c, 0, 62, 86
1, 125392, Control_c, 0, 64, 69
1, 125408, Control_c, 0, 64, 48
1, 125421, Note_on_c, 0, 52, 61
1, 125422, Note_on_c, 0, 45, 55
1, 125423, Control_c, 0, 64, 46
1, 125438, Control_c, 0, 64, 59
1, 125453, Control_c, 0, 64, 66
1, 125459, Note_off_c, 0, 52, 66
1, 125460, Note_off_c, 0, 45, 62
1, 125464, Note_off_c, 0, 62, 61
1, 125468, Control_c, 0, 64, 72
1, 125482, Control_c, 0, 64, 82
1, 125497, Control_c, 0, 64, 92
1, 125512, Control_c, 0, 64, 103
1, 125527, Control_c, 0, 64, 112
1, 125542, Control_c, 0, 64, 127
1, 125615, Note_on_c, 0, 52, 67
1, 125615, Note_on_c, 0, 61, 70
1, 125622, Note_on_c, 0, 45, 51
1, 125653, Note_off_c, 0, 64, 62
1, 125663, Note_off_c, 0, 45, 60
1, 125677, Note_off_c, 0, 52, 63
1, 125692, Note_off_c, 0, 61, 63
1, 125700, Note_on_c, 0, 59, 61
1, 125728, Note_off_c, 0, 59, 67
1, 125734, Control_c, 0, 64, 115
1, 125749, Control_c, 0, 64, 95
1, 125764, Control_c, 0, 64, 75
1, 125779, Control_c, 0, 64, 58
1, 125794, Control_c, 0, 64, 37
1, 125794, Note_on_c, 0, 64, 74
1, 125803, Note_on_c, 0, 59, 65
1, 125808, Control_c, 0, 64, 45
1, 125812, Note_on_c, 0, 62, 65
1, 125823, Note_on_c, 0, 45, 49
1, 125823, Control_c, 0, 64, 59
1, 125824, Note_on_c, 0, 52, 47
1, 125838, Control_c, 0, 64, 65
1, 125853, Control_c, 0, 64, 69
1, 125868, Control_c, 0, 64, 76
1, 125876, Note_off_c, 0, 62, 54
1, 125882, Control_c, 0, 64, 84
1, 125886, Note_on_c, 0, 66, 85
1, 125886, Note_off_c, 0, 59, 65
1, 125895, Note_off_c, 0, 45, 61
1, 125897, Control_c, 0, 64, 93
1, 125906, Note_off_c, 0, 52, 64
1, 125907, Note_off_c, 0, 64, 63
1, 125912, Control_c, 0, 64, 104
1, 125927, Control_c, 0, 64, 110
1, 125942, Control_c, 0, 64, 118
1, 125956, Control_c, 0, 64, 127
1, 125984, Note_on_c, 0, 68, 86
1, 126009, Note_on_c, 0, 59, 72
1, 126009, Note_on_c, 0, 62, 63
1, 126014, Note_on_c, 0, 45, 67
1, 126020, Note_on_c, 0, 52, 68
1, 126022, Note_on_c, 0, 64, 53
1, 126048, Note_off_c, 0, 45, 66
1, 126053, Note_off_c, 0, 59, 66
1, 126056, Note_off_c, 0, 52, 65
1, 126066, Note_off_c, 0, 62, 60
1, 126095, Note_off_c, 0, 66, 58
1, 126244, Note_on_c, 0, 69, 86
1, 126251, Note_on_c, 0, 62, 78
1, 126255, Note_on_c, 0, 59, 78
1, 126262, Note_on_c, 0, 52, 63
1, 126263, Note_on_c, 0, 45, 69
1, 126274, Note_off_c, 0, 62, 68
1, 126277, Note_off_c, 0, 68, 65
1, 126287, Note_off_c, 0, 69, 68
1, 126289, Note_off_c, 0, 59, 60
1, 126290, Note_off_c, 0, 52, 65
1, 126293, Note_off_c, 0, 45, 65
1, 126303, Note_off_c, 0, 64, 32
1, 126400, Note_on_c, 0, 52, 21
1, 126418, Poly_aftertouch_c, 0, 62, 0
1, 126434, Note_off_c, 0, 52, 47
1, 126438, Control_c, 0, 64, 91
1, 126449, Note_on_c, 0, 71, 82
1, 126453, Control_c, 0, 64, 71
1, 126464, Note_on_c, 0, 64, 49
1, 126468, Control_c, 0, 64, 66
1, 126473, Note_on_c, 0, 59, 71
1, 126478, Note_on_c, 0, 52, 55
1, 126480, Note_on_c, 0, 45, 56
1, 126482, Note_on_c, 0, 62, 56
1, 126482, Note_on_c, 0, 68, 34
1, 126483, Control_c, 0, 64, 69
1, 126497, Control_c, 0, 64, 78
1, 126509, Note_off_c, 0, 62, 52
1, 126509, Note_off_c, 0, 68, 57
1, 126512, Control_c, 0, 64, 84
1, 126523, Note_off_c, 0, 59, 59
1, 126525, Note_off_c, 0, 45, 58
1, 126526, Note_off_c, 0, 52, 61
1, 126527, Control_c, 0, 64, 90
1, 126534, Note_on_c, 0, 73, 83
1, 126542, Control_c, 0, 64, 99
1, 126557, Control_c, 0, 64, 127
1, 126586, Note_off_c, 0, 71, 61
1, 126596, Note_off_c, 0, 64, 24
1, 126619, Note_on_c, 0, 68, 66
1, 126622, Note_on_c, 0, 74, 83
1, 126628, Note_on_c, 0, 59, 82
1, 126632, Note_on_c, 0, 64, 50
1, 126633, Note_on_c, 0, 45, 68
1, 126633, Note_on_c, 0, 52, 71
1, 126636, Note_on_c, 0, 62, 56
1, 126653, Note_off_c, 0, 73, 65
1, 126684, Note_off_c, 0, 45, 61
1, 126688, Note_off_c, 0, 52, 59
1, 126706, Note_off_c, 0, 62, 55
1, 126707, Note_off_c, 0, 59, 56
1, 126719, Note_off_c, 0, 64, 54
1, 126825, Note_on_c, 0, 76, 88
1, 126832, Note_on_c, 0, 64, 69
1, 126839, Note_on_c, 0, 62, 56
1, 126840, Note_on_c, 0, 59, 77
1, 126841, Note_on_c, 0, 52, 64
1, 126857, Note_on_c, 0, 45, 52
1, 126871, Note_off_c, 0, 62, 61
1, 126873, Note_off_c, 0, 74, 58
1, 126880, Note_off_c, 0, 64, 54
1, 126885, Note_off_c, 0, 45, 60
1, 126916, Note_off_c, 0, 68, 65
1, 126922, Note_off_c, 0, 52, 64
1, 126923, Note_off_c, 0, 59, 60
1, 126950, Note_on_c, 0, 45, 79
1, 126954, Poly_aftertouch_c, 0, 74, 127
1, 126964, Note_on_c, 0, 64, 69
1, 126965, Note_on_c, 0, 62, 64
1, 126993, Note_off_c, 0, 76, 63
1, 127004, Poly_aftertouch_c, 0, 74, 0
1, 127017, Note_on_c, 0, 68, 80
1, 127019, Note_on_c, 0, 52, 41
1, 127030, Note_off_c, 0, 62, 64
1, 127033, Note_off_c, 0, 64, 64
1, 127048, Note_off_c, 0, 45, 64
1, 127067, Note_on_c, 0, 59, 81
1, 127083, Note_on_c, 0, 77, 92
1, 127085, Note_off_c, 0, 52, 64
1, 127093, Note_off_c, 0, 68, 66
1, 127111, Note_off_c, 0, 59, 64
1, 127254, Note_on_c, 0, 76, 89
1, 127258, Note_off_c, 0, 77, 64
1, 127263, Poly_aftertouch_c, 0, 63, 127
1, 127275, Note_on_c, 0, 64, 87
1, 127290, Poly_aftertouch_c, 0, 63, 0
1, 127419, Note_on_c, 0, 67, 67
1, 127434, Note_off_c, 0, 64, 64
1, 127436, Note_off_c, 0, 76, 64
1, 127442, Note_on_c, 0, 79, 76
1, 127448, Note_off_c, 0, 67, 62
1, 127469, Note_on_c, 0, 77, 86
1, 127475, Note_on_c, 0, 65, 93
1, 127514, Control_c, 0, 64, 75
1, 127528, Control_c, 0, 64, 51
1, 127543, Control_c, 0, 64, 0
1, 127549, Note_off_c, 0, 79, 64
1, 127624, Control_c, 0, 64, 24
1, 127639, Control_c, 0, 64, 57
1, 127654, Control_c, 0, 64, 68
1, 127669, Control_c, 0, 64, 75
1, 127683, Control_c, 0, 64, 90
1, 127698, Note_off_c, 0, 77, 67
1, 127698, Control_c, 0, 64, 127
1, 127939, Note_on_c, 0, 76, 87
1, 127946, Note_on_c, 0, 64, 78
1, 127965, Note_off_c, 0, 65, 59
1, 128060, Note_off_c, 0, 76, 61
1, 128062, Note_off_c, 0, 64, 65
1, 128063, Note_on_c, 0, 79, 71
1, 128082, Note_on_c, 0, 67, 52
1, 128097, Note_on_c, 0, 77, 89
1, 128104, Note_on_c, 0, 65, 84
1, 128112, Note_off_c, 0, 67, 65
1, 128114, Control_c, 0, 64, 97
1, 128129, Control_c, 0, 64, 69
1, 128143, Control_c, 0, 64, 44
1, 128158, Control_c, 0, 64, 0
1, 128160, Note_off_c, 0, 79, 59
1, 128202, Control_c, 0, 64, 44
1, 128217, Control_c, 0, 64, 62
1, 128232, Control_c, 0, 64, 70
1, 128245, Note_off_c, 0, 77, 67
1, 128247, Control_c, 0, 64, 82
1, 128262, Control_c, 0, 64, 103
1, 128277, Control_c, 0, 64, 127
1, 128501, Note_on_c, 0, 76, 86
1, 128524, Note_on_c, 0, 64, 59
1, 128592, Note_off_c, 0, 65, 61
1, 128634, Note_off_c, 0, 76, 65
1, 128682, Note_on_c, 0, 77, 89
1, 128685, Control_c, 0, 64, 101
1, 128700, Control_c, 0, 64, 90
1, 128715, Control_c, 0, 64, 81
1, 128723, Note_on_c, 0, 65, 58
1, 128730, Control_c, 0, 64, 74
1, 128745, Control_c, 0, 64, 69
1, 128760, Control_c, 0, 64, 63
1, 128774, Control_c, 0, 64, 53
1, 128789, Control_c, 0, 64, 36
1, 128804, Control_c, 0, 64, 12
1, 128819, Control_c, 0, 64, 0
1, 128875, Note_off_c, 0, 64, 57
1, 129700, Control_c, 0, 64, 8
1, 129714, Control_c, 0, 64, 16
1, 129729, Control_c, 0, 64, 25
1, 129744, Control_c, 0, 64, 32
1, 129759, Control_c, 0, 64, 38
1, 129773, Control_c, 0, 64, 42
1, 129788, Control_c, 0, 64, 46
1, 129803, Control_c, 0, 64, 49
1, 129826, Control_c, 0, 64, 51
1, 129841, Control_c, 0, 64, 53
1, 129855, Control_c, 0, 64, 55
1, 129870, Control_c, 0, 64, 56
1, 129885, Control_c, 0, 64, 57
1, 129900, Control_c, 0, 64, 58
1, 129915, Control_c, 0, 64, 59
1, 129929, Control_c, 0, 64, 61
1, 129944, Control_c, 0, 64, 63
1, 129959, Control_c, 0, 64, 63
1, 129973, Control_c, 0, 64, 64
1, 129988, Control_c, 0, 64, 64
1, 130003, Control_c, 0, 64, 66
1, 130018, Control_c, 0, 64, 67
1, 130033, Control_c, 0, 64, 68
1, 130047, Control_c, 0, 64, 69
1, 130062, Control_c, 0, 64, 69
1, 130077, Control_c, 0, 64, 70
1, 130092, Control_c, 0, 64, 71
1, 130107, Control_c, 0, 64, 72
1, 130122, Control_c, 0, 64, 73
1, 130166, Control_c, 0, 64, 73
1, 130196, Control_c, 0, 64, 74
1, 130959, Control_c, 0, 64, 74
1, 130989, Control_c, 0, 64, 75
1, 131004, Control_c, 0, 64, 75
1, 131019, Control_c, 0, 64, 76
1, 131049, Control_c, 0, 64, 76
1, 131064, Control_c, 0, 64, 77
1, 131079, Control_c, 0, 64, 77
1, 131226, Control_c, 0, 67, 8
1, 131237, Note_off_c, 0, 77, 36
1, 131241, Control_c, 0, 67, 9
1, 131256, Control_c, 0, 67, 10
1, 131271, Control_c, 0, 67, 10
1, 131285, Control_c, 0, 67, 11
1, 131300, Control_c, 0, 67, 11
1, 131323, Control_c, 0, 67, 12
1, 131338, Control_c, 0, 67, 12
1, 131353, Control_c, 0, 67, 13
1, 131367, Control_c, 0, 67, 13
1, 131382, Control_c, 0, 67, 14
1, 131397, Control_c, 0, 67, 15
1, 131412, Control_c, 0, 67, 17
1, 131426, Control_c, 0, 67, 18
1, 131441, Control_c, 0, 67, 20
1, 131456, Control_c, 0, 67, 21
1, 131471, Control_c, 0, 64, 77
1, 131471, Control_c, 0, 67, 23
1, 131486, Control_c, 0, 67, 25
1, 131500, Control_c, 0, 67, 26
1, 131515, Control_c, 0, 67, 28
1, 131530, Control_c, 0, 64, 76
1, 131530, Control_c, 0, 67, 30
1, 131544, Control_c, 0, 67, 33
1, 131559, Control_c, 0, 67, 35
1, 131574, Control_c, 0, 67, 37
1, 131589, Control_c, 0, 67, 38
1, 131604, Control_c, 0, 64, 76
1, 131604, Control_c, 0, 67, 40
1, 131618, Control_c, 0, 67, 43
1, 131633, Control_c, 0, 67, 46
1, 131648, Control_c, 0, 67, 48
1, 131663, Control_c, 0, 67, 51
1, 131678, Control_c, 0, 67, 54
1, 131693, Control_c, 0, 64, 75
1, 131693, Control_c, 0, 67, 57
1, 131708, Control_c, 0, 67, 58
1, 131723, Control_c, 0, 67, 58
1, 131738, Control_c, 0, 67, 59
1, 131827, Control_c, 0, 64, 75
1, 131872, Control_c, 0, 67, 58
1, 131931, Control_c, 0, 67, 58
1, 131976, Control_c, 0, 67, 57
1, 132006, Control_c, 0, 67, 57
1, 132021, Control_c, 0, 64, 74
1, 132035, Control_c, 0, 67, 56
1, 132087, Control_c, 0, 67, 56
1, 132146, Control_c, 0, 67, 55
1, 132250, Control_c, 0, 67, 55
1, 132319, Note_on_c, 0, 71, 29
1, 132398, Control_c, 0, 67, 54
1, 132516, Control_c, 0, 67, 55
1, 132546, Control_c, 0, 67, 55
1, 132561, Control_c, 0, 67, 56
1, 132575, Control_c, 0, 67, 56
1, 132591, Control_c, 0, 64, 74
1, 132591, Control_c, 0, 67, 57
1, 132606, Control_c, 0, 67, 57
1, 132621, Control_c, 0, 67, 58
1, 132636, Control_c, 0, 67, 58
1, 132665, Control_c, 0, 64, 73
1, 132665, Control_c, 0, 67, 59
1, 132680, Control_c, 0, 67, 59
1, 132695, Control_c, 0, 67, 60
1, 132710, Control_c, 0, 67, 60
1, 132725, Control_c, 0, 64, 73
1, 132739, Control_c, 0, 67, 61
1, 132754, Control_c, 0, 67, 65
1, 132769, Control_c, 0, 67, 70
1, 132784, Control_c, 0, 67, 74
1, 132799, Control_c, 0, 64, 72
1, 132799, Control_c, 0, 67, 77
1, 132821, Control_c, 0, 67, 78
1, 132895, Control_c, 0, 67, 78
1, 132939, Control_c, 0, 67, 77
1, 132984, Control_c, 0, 67, 77
1, 133058, Control_c, 0, 67, 76
1, 133103, Control_c, 0, 67, 76
1, 133133, Control_c, 0, 67, 75
1, 133221, Control_c, 0, 67, 75
1, 133323, Note_on_c, 0, 62, 27
1, 133342, Note_on_c, 0, 57, 4
1, 133533, Control_c, 0, 67, 75
1, 133548, Control_c, 0, 64, 73
1, 133585, Control_c, 0, 64, 73
1, 133600, Control_c, 0, 64, 74
1, 133614, Control_c, 0, 64, 74
1, 133629, Control_c, 0, 64, 75
1, 133644, Control_c, 0, 64, 76
1, 133659, Control_c, 0, 64, 77
1, 133674, Control_c, 0, 64, 77
1, 133688, Control_c, 0, 64, 78
1, 133688, Control_c, 0, 67, 75
1, 133703, Control_c, 0, 64, 78
1, 133718, Control_c, 0, 64, 79
1, 133733, Control_c, 0, 64, 79
1, 133748, Control_c, 0, 67, 74
1, 133750, Note_off_c, 0, 57, 39
1, 133777, Control_c, 0, 64, 80
1, 133807, Control_c, 0, 67, 74
1, 133869, Note_off_c, 0, 62, 36
1, 133926, Control_c, 0, 67, 73
1, 134118, Control_c, 0, 67, 73
1, 134230, Note_on_c, 0, 72, 38
1, 134237, Control_c, 0, 64, 79
1, 134300, Note_off_c, 0, 71, 40
1, 134367, Note_off_c, 0, 72, 43
1, 134379, Control_c, 0, 64, 79
1, 134393, Control_c, 0, 67, 72
1, 134438, Control_c, 0, 64, 78
1, 134439, Note_on_c, 0, 74, 44
1, 134482, Control_c, 0, 64, 78
1, 134497, Control_c, 0, 64, 77
1, 134511, Control_c, 0, 64, 77
1, 134512, Note_on_c, 0, 57, 18
1, 134513, Note_on_c, 0, 62, 28
1, 134526, Control_c, 0, 64, 76
1, 134541, Control_c, 0, 64, 73
1, 134556, Control_c, 0, 64, 68
1, 134570, Control_c, 0, 64, 62
1, 134585, Control_c, 0, 64, 52
1, 134600, Control_c, 0, 64, 36
1, 134615, Control_c, 0, 64, 31
1, 134630, Control_c, 0, 64, 43
1, 134644, Control_c, 0, 64, 56
1, 134644, Control_c, 0, 67, 72
1, 134659, Control_c, 0, 64, 63
1, 134674, Control_c, 0, 64, 65
1, 134689, Control_c, 0, 64, 67
1, 134689, Control_c, 0, 67, 71
1, 134704, Control_c, 0, 64, 70
1, 134718, Control_c, 0, 64, 74
1, 134733, Control_c, 0, 64, 77
1, 134733, Control_c, 0, 67, 71
1, 134748, Control_c, 0, 64, 78
1, 134763, Control_c, 0, 64, 79
1, 134778, Control_c, 0, 64, 80
1, 134793, Control_c, 0, 64, 80
1, 134808, Control_c, 0, 64, 81
1, 134823, Control_c, 0, 64, 81
1, 134835, Note_off_c, 0, 57, 41
1, 134864, Note_off_c, 0, 62, 42
1, 134867, Control_c, 0, 64, 82
1, 134882, Control_c, 0, 64, 82
1, 134969, Control_c, 0, 67, 71
1, 135138, Note_on_c, 0, 62, 31
1, 135141, Note_on_c, 0, 57, 22
1, 135259, Note_on_c, 0, 69, 46
1, 135322, Note_off_c, 0, 57, 38
1, 135371, Note_off_c, 0, 74, 39
1, 135430, Note_off_c, 0, 65, 35
1, 135482, Control_c, 0, 64, 83
1, 135484, Note_off_c, 0, 69, 43
1, 135893, Note_off_c, 0, 62, 40
1, 135956, Note_on_c, 0, 69, 42
1, 136039, Control_c, 0, 64, 82
1, 136072, Note_on_c, 0, 72, 47
1, 136083, Control_c, 0, 64, 82
1, 136098, Control_c, 0, 64, 81
1, 136119, Note_off_c, 0, 69, 41
1, 136122, Note_on_c, 0, 60, 29
1, 136128, Control_c, 0, 64, 81
1, 136131, Note_on_c, 0, 65, 19
1, 136139, Note_on_c, 0, 57, 29
1, 136143, Control_c, 0, 64, 80
1, 136158, Control_c, 0, 64, 79
1, 136172, Control_c, 0, 64, 76
1, 136187, Control_c, 0, 64, 72
1, 136202, Control_c, 0, 64, 66
1, 136216, Control_c, 0, 64, 58
1, 136231, Control_c, 0, 64, 43
1, 136246, Control_c, 0, 64, 14
1, 136246, Control_c, 0, 67, 72
1, 136261, Control_c, 0, 64, 0
1, 136276, Control_c, 0, 67, 71
1, 136290, Control_c, 0, 64, 30
1, 136305, Control_c, 0, 64, 46
1, 136320, Control_c, 0, 64, 57
1, 136335, Control_c, 0, 64, 63
1, 136335, Control_c, 0, 67, 71
1, 136350, Control_c, 0, 64, 65
1, 136364, Control_c, 0, 64, 68
1, 136379, Control_c, 0, 64, 72
1, 136394, Control_c, 0, 64, 75
1, 136394, Control_c, 0, 67, 70
1, 136409, Control_c, 0, 64, 78
1, 136424, Control_c, 0, 64, 80
1, 136438, Control_c, 0, 64, 81
1, 136453, Control_c, 0, 64, 83
1, 136468, Control_c, 0, 64, 84
1, 136476, Note_off_c, 0, 57, 39
1, 136483, Control_c, 0, 64, 85
1, 136489, Note_off_c, 0, 65, 36
1, 136513, Control_c, 0, 64, 85
1, 136528, Control_c, 0, 64, 86
1, 136541, Note_off_c, 0, 60, 37
1, 136542, Control_c, 0, 64, 86
1, 136610, Control_c, 0, 64, 87
1, 136610, Control_c, 0, 67, 71
1, 136796, Note_off_c, 0, 72, 56
1, 136862, Note_on_c, 0, 60, 26
1, 136864, Note_on_c, 0, 65, 32
1, 136870, Note_on_c, 0, 57, 24
1, 137134, Note_off_c, 0, 57, 41
1, 137138, Note_off_c, 0, 65, 42
1, 137152, Note_off_c, 0, 60, 41
1, 137288, Note_on_c, 0, 71, 49
1, 137299, Note_on_c, 0, 60, 16
1, 137316, Note_on_c, 0, 65, 32
1, 137321, Note_on_c, 0, 57, 28
1, 137470, Note_off_c, 0, 65, 44
1, 137473, Note_off_c, 0, 57, 47
1, 137488, Note_on_c, 0, 72, 53
1, 137509, Note_off_c, 0, 60, 40
1, 137522, Control_c, 0, 67, 71
1, 137536, Control_c, 0, 64, 86
1, 137591, Note_off_c, 0, 71, 29
1, 137616, Note_off_c, 0, 72, 56
1, 137635, Note_on_c, 0, 65, 29
1, 137640, Control_c, 0, 64, 86
1, 137649, Note_on_c, 0, 60, 41
1, 137655, Control_c, 0, 64, 85
1, 137657, Note_on_c, 0, 55, 36
1, 137670, Control_c, 0, 64, 85
1, 137699, Control_c, 0, 64, 84
1, 137714, Control_c, 0, 64, 83
1, 137728, Note_on_c, 0, 74, 47
1, 137729, Control_c, 0, 64, 83
1, 137744, Control_c, 0, 64, 82
1, 137754, Note_off_c, 0, 74, 60
1, 137759, Control_c, 0, 64, 81
1, 137774, Control_c, 0, 64, 78
1, 137774, Note_on_c, 0, 76, 59
1, 137788, Control_c, 0, 64, 74
1, 137803, Control_c, 0, 64, 68
1, 137818, Control_c, 0, 64, 61
1, 137823, Note_on_c, 0, 74, 60
1, 137830, Note_off_c, 0, 76, 48
1, 137833, Control_c, 0, 64, 50
1, 137848, Control_c, 0, 64, 33
1, 137862, Control_c, 0, 64, 12
1, 137877, Control_c, 0, 64, 9
1, 137877, Control_c, 0, 67, 71
1, 137892, Control_c, 0, 64, 26
1, 137907, Control_c, 0, 64, 43
1, 137907, Control_c, 0, 67, 70
1, 137922, Control_c, 0, 64, 56
1, 137936, Control_c, 0, 64, 63
1, 137936, Control_c, 0, 67, 70
1, 137951, Control_c, 0, 64, 65
1, 137951, Control_c, 0, 67, 69
1, 137966, Control_c, 0, 64, 68
1, 137980, Control_c, 0, 64, 71
1, 137980, Control_c, 0, 67, 69
1, 137995, Control_c, 0, 64, 73
1, 138010, Control_c, 0, 64, 75
1, 138025, Control_c, 0, 64, 76
1, 138040, Control_c, 0, 64, 77
1, 138044, Note_off_c, 0, 55, 37
1, 138062, Control_c, 0, 64, 77
1, 138087, Note_off_c, 0, 65, 40
1, 138111, Note_off_c, 0, 74, 62
1, 138125, Note_on_c, 0, 73, 61
1, 138214, Note_off_c, 0, 60, 40
1, 138285, Control_c, 0, 64, 76
1, 138300, Control_c, 0, 64, 74
1, 138315, Control_c, 0, 64, 70
1, 138322, Note_on_c, 0, 74, 58
1, 138330, Control_c, 0, 64, 64
1, 138345, Control_c, 0, 64, 56
1, 138345, Control_c, 0, 67, 69
1, 138348, Note_on_c, 0, 65, 30
1, 138355, Note_on_c, 0, 59, 36
1, 138359, Control_c, 0, 64, 38
1, 138364, Note_on_c, 0, 55, 25
1, 138374, Control_c, 0, 64, 0
1, 138375, Note_off_c, 0, 73, 30
1, 138418, Control_c, 0, 64, 30
1, 138433, Control_c, 0, 64, 48
1, 138448, Control_c, 0, 64, 59
1, 138448, Control_c, 0, 67, 69
1, 138463, Control_c, 0, 64, 63
1, 138471, Note_off_c, 0, 74, 55
1, 138477, Control_c, 0, 64, 65
1, 138492, Control_c, 0, 64, 67
1, 138507, Control_c, 0, 64, 69
1, 138522, Control_c, 0, 64, 71
1, 138532, Note_on_c, 0, 76, 60
1, 138537, Control_c, 0, 64, 72
1, 138552, Control_c, 0, 64, 73
1, 138567, Control_c, 0, 64, 73
1, 138570, Note_off_c, 0, 55, 42
1, 138582, Control_c, 0, 64, 74
1, 138595, Note_off_c, 0, 65, 41
1, 138596, Note_off_c, 0, 76, 58
1, 138613, Note_off_c, 0, 59, 55
1, 138664, Note_on_c, 0, 77, 63
1, 138715, Control_c, 0, 67, 69
1, 138742, Note_off_c, 0, 77, 62
1, 138854, Note_on_c, 0, 79, 56
1, 138871, Control_c, 0, 64, 73
1, 138885, Control_c, 0, 64, 72
1, 138892, Note_on_c, 0, 59, 25
1, 138900, Control_c, 0, 64, 70
1, 138901, Note_on_c, 0, 65, 32
1, 138908, Note_on_c, 0, 55, 32
1, 138915, Control_c, 0, 64, 66
1, 138915, Control_c, 0, 67, 70
1, 138930, Control_c, 0, 64, 60
1, 138944, Control_c, 0, 64, 49
1, 138959, Control_c, 0, 64, 21
1, 138974, Control_c, 0, 64, 0
1, 139005, Control_c, 0, 67, 69
1, 139034, Control_c, 0, 64, 30
1, 139034, Control_c, 0, 67, 69
1, 139049, Control_c, 0, 64, 48
1, 139064, Control_c, 0, 64, 58
1, 139079, Control_c, 0, 64, 62
1, 139079, Control_c, 0, 67, 68
1, 139094, Control_c, 0, 64, 64
1, 139108, Control_c, 0, 64, 66
1, 139108, Control_c, 0, 67, 68
1, 139123, Control_c, 0, 64, 67
1, 139138, Control_c, 0, 64, 69
1, 139153, Control_c, 0, 64, 70
1, 139155, Note_off_c, 0, 79, 64
1, 139168, Control_c, 0, 64, 71
1, 139182, Control_c, 0, 64, 72
1, 139197, Control_c, 0, 64, 73
1, 139212, Control_c, 0, 64, 74
1, 139226, Control_c, 0, 64, 74
1, 139226, Control_c, 0, 67, 68
1, 139256, Control_c, 0, 64, 75
1, 139271, Control_c, 0, 64, 76
1, 139330, Control_c, 0, 64, 74
1, 139345, Control_c, 0, 64, 69
1, 139360, Control_c, 0, 64, 65
1, 139375, Control_c, 0, 64, 64
1, 139434, Control_c, 0, 64, 65
1, 139449, Control_c, 0, 64, 67
1, 139464, Control_c, 0, 64, 70
1, 139464, Control_c, 0, 67, 68
1, 139479, Control_c, 0, 64, 73
1, 139494, Control_c, 0, 64, 75
1, 139508, Control_c, 0, 64, 76
1, 139523, Control_c, 0, 64, 77
1, 139538, Control_c, 0, 64, 77
1, 139559, Control_c, 0, 64, 79
1, 139574, Control_c, 0, 64, 81
1, 139589, Control_c, 0, 64, 83
1, 139604, Control_c, 0, 64, 83
1, 139619, Control_c, 0, 64, 84
1, 139634, Control_c, 0, 67, 68
1, 139649, Control_c, 0, 64, 85
1, 139664, Control_c, 0, 64, 85
1, 139670, Note_on_c, 0, 74, 55
1, 139679, Control_c, 0, 64, 86
1, 139685, Note_off_c, 0, 65, 41
1, 139690, Note_off_c, 0, 59, 41
1, 139715, Note_off_c, 0, 55, 37
1, 139834, Note_off_c, 0, 74, 61
1, 139902, Note_on_c, 0, 76, 62
1, 139960, Note_on_c, 0, 64, 36
1, 139961, Control_c, 0, 64, 85
1, 139961, Control_c, 0, 67, 69
1, 139975, Note_on_c, 0, 55, 30
1, 139976, Control_c, 0, 64, 84
1, 139977, Note_on_c, 0, 59, 38
1, 139990, Control_c, 0, 64, 82
1, 140005, Control_c, 0, 64, 80
1, 140020, Control_c, 0, 64, 78
1, 140020, Control_c, 0, 67, 69
1, 140035, Control_c, 0, 64, 74
1, 140050, Control_c, 0, 64, 69
1, 140064, Control_c, 0, 64, 63
1, 140079, Control_c, 0, 64, 53
1, 140094, Control_c, 0, 64, 31
1, 140109, Control_c, 0, 64, 0
1, 140138, Control_c, 0, 64, 10
1, 140153, Control_c, 0, 64, 30
1, 140168, Control_c, 0, 64, 48
1, 140182, Control_c, 0, 64, 60
1, 140182, Control_c, 0, 67, 69
1, 140197, Control_c, 0, 64, 65
1, 140212, Control_c, 0, 64, 67
1, 140227, Control_c, 0, 64, 70
1, 140242, Control_c, 0, 64, 74
1, 140256, Control_c, 0, 64, 79
1, 140268, Note_off_c, 0, 55, 35
1, 140271, Control_c, 0, 64, 84
1, 140286, Control_c, 0, 64, 87
1, 140308, Control_c, 0, 64, 89
1, 140308, Control_c, 0, 67, 68
1, 140323, Control_c, 0, 64, 91
1, 140337, Control_c, 0, 64, 95
1, 140352, Control_c, 0, 64, 99
1, 140359, Note_off_c, 0, 59, 41
1, 140364, Note_off_c, 0, 64, 41
1, 140367, Control_c, 0, 64, 103
1, 140382, Control_c, 0, 64, 106
1, 140397, Control_c, 0, 64, 109
1, 140412, Control_c, 0, 64, 111
1, 140427, Control_c, 0, 64, 115
1, 140442, Control_c, 0, 64, 118
1, 140456, Control_c, 0, 64, 120
1, 140471, Control_c, 0, 64, 127
1, 140486, Control_c, 0, 67, 68
1, 140560, Control_c, 0, 67, 67
1, 140699, Note_on_c, 0, 64, 37
1, 140716, Note_on_c, 0, 55, 36
1, 140721, Note_on_c, 0, 59, 37
1, 140872, Control_c, 0, 67, 67
1, 140965, Note_off_c, 0, 55, 41
1, 140968, Note_off_c, 0, 59, 54
1, 140975, Note_off_c, 0, 64, 49
1, 141071, Control_c, 0, 67, 67
1, 141159, Note_on_c, 0, 64, 43
1, 141172, Note_on_c, 0, 55, 42
1, 141180, Note_on_c, 0, 59, 37
1, 141307, Note_off_c, 0, 55, 54
1, 141350, Note_off_c, 0, 59, 60
1, 141366, Note_off_c, 0, 64, 44
1, 141563, Note_on_c, 0, 78, 69
1, 141575, Control_c, 0, 64, 122
1, 141590, Control_c, 0, 64, 115
1, 141605, Note_on_c, 0, 64, 37
1, 141605, Control_c, 0, 64, 109
1, 141614, Note_on_c, 0, 58, 38
1, 141615, Note_on_c, 0, 54, 35
1, 141619, Control_c, 0, 64, 102
1, 141619, Control_c, 0, 67, 68
1, 141634, Control_c, 0, 64, 93
1, 141634, Control_c, 0, 67, 68
1, 141649, Control_c, 0, 64, 82
1, 141649, Control_c, 0, 67, 69
1, 141664, Control_c, 0, 64, 69
1, 141664, Control_c, 0, 67, 69
1, 141679, Control_c, 0, 64, 57
1, 141694, Note_off_c, 0, 76, 55
1, 141694, Control_c, 0, 64, 31
1, 141694, Control_c, 0, 67, 70
1, 141709, Control_c, 0, 64, 0
1, 141753, Control_c, 0, 64, 36
1, 141768, Control_c, 0, 64, 53
1, 141783, Control_c, 0, 64, 62
1, 141783, Control_c, 0, 67, 69
1, 141805, Control_c, 0, 64, 66
1, 141820, Control_c, 0, 64, 69
1, 141834, Control_c, 0, 64, 72
1, 141834, Control_c, 0, 67, 69
1, 141849, Control_c, 0, 64, 77
1, 141864, Control_c, 0, 64, 81
1, 141864, Control_c, 0, 67, 68
1, 141879, Control_c, 0, 64, 83
1, 141894, Control_c, 0, 64, 85
1, 141908, Control_c, 0, 64, 86
1, 141923, Control_c, 0, 64, 88
1, 141923, Control_c, 0, 67, 68
1, 141938, Control_c, 0, 64, 90
1, 141953, Control_c, 0, 64, 91
1, 141953, Control_c, 0, 67, 67
1, 141953, Note_off_c, 0, 54, 38
1, 141967, Note_off_c, 0, 64, 36
1, 141968, Control_c, 0, 64, 91
1, 141995, Note_off_c, 0, 58, 40
1, 141998, Control_c, 0, 64, 92
1, 142013, Control_c, 0, 64, 92
1, 142027, Control_c, 0, 64, 93
1, 142042, Control_c, 0, 64, 93
1, 142309, Note_on_c, 0, 75, 54
1, 142368, Control_c, 0, 64, 93
1, 142368, Control_c, 0, 67, 68
1, 142375, Note_on_c, 0, 63, 40
1, 142383, Control_c, 0, 64, 91
1, 142385, Note_on_c, 0, 54, 29
1, 142398, Control_c, 0, 64, 89
1, 142398, Control_c, 0, 67, 68
1, 142407, Note_on_c, 0, 58, 34
1, 142413, Control_c, 0, 64, 87
1, 142428, Control_c, 0, 64, 83
1, 142428, Control_c, 0, 67, 69
1, 142442, Control_c, 0, 64, 79
1, 142442, Control_c, 0, 67, 69
1, 142458, Control_c, 0, 64, 71
1, 142458, Control_c, 0, 67, 70
1, 142473, Control_c, 0, 64, 61
1, 142475, Note_off_c, 0, 78, 50
1, 142488, Control_c, 0, 64, 44
1, 142488, Control_c, 0, 67, 70
1, 142503, Control_c, 0, 64, 0
1, 142570, Control_c, 0, 64, 26
1, 142584, Control_c, 0, 64, 47
1, 142599, Control_c, 0, 64, 60
1, 142614, Control_c, 0, 64, 64
1, 142629, Control_c, 0, 64, 65
1, 142629, Control_c, 0, 67, 70
1, 142644, Control_c, 0, 64, 67
1, 142658, Control_c, 0, 64, 70
1, 142673, Control_c, 0, 64, 74
1, 142673, Control_c, 0, 67, 69
1, 142688, Control_c, 0, 64, 77
1, 142703, Control_c, 0, 64, 79
1, 142718, Control_c, 0, 64, 80
1, 142732, Control_c, 0, 64, 81
1, 142747, Control_c, 0, 64, 83
1, 142762, Control_c, 0, 64, 84
1, 142773, Note_off_c, 0, 54, 35
1, 142776, Control_c, 0, 64, 85
1, 142791, Control_c, 0, 64, 85
1, 142806, Note_off_c, 0, 63, 39
1, 142806, Control_c, 0, 64, 86
1, 142821, Control_c, 0, 67, 70
1, 142826, Note_off_c, 0, 58, 38
1, 142836, Control_c, 0, 64, 87
1, 142865, Control_c, 0, 64, 87
1, 142865, Control_c, 0, 67, 70
1, 142895, Control_c, 0, 67, 71
1, 143086, Note_on_c, 0, 58, 27
1, 143089, Note_on_c, 0, 63, 38
1, 143092, Note_on_c, 0, 54, 31
1, 143178, Control_c, 0, 67, 71
1, 143192, Control_c, 0, 67, 72
1, 143207, Control_c, 0, 67, 72
1, 143237, Control_c, 0, 67, 73
1, 143252, Control_c, 0, 67, 73
1, 143266, Control_c, 0, 67, 74
1, 143303, Control_c, 0, 67, 74
1, 143317, Note_off_c, 0, 54, 42
1, 143343, Note_off_c, 0, 58, 41
1, 143359, Note_off_c, 0, 63, 40
1, 143378, Control_c, 0, 67, 75
1, 143527, Note_on_c, 0, 77, 55
1, 143555, Control_c, 0, 67, 75
1, 143570, Control_c, 0, 64, 87
1, 143585, Control_c, 0, 64, 86
1, 143585, Control_c, 0, 67, 76
1, 143590, Note_on_c, 0, 63, 27
1, 143592, Note_on_c, 0, 57, 36
1, 143595, Note_on_c, 0, 53, 29
1, 143599, Control_c, 0, 64, 82
1, 143599, Control_c, 0, 67, 76
1, 143614, Control_c, 0, 64, 74
1, 143614, Control_c, 0, 67, 77
1, 143629, Control_c, 0, 64, 64
1, 143629, Control_c, 0, 67, 77
1, 143640, Note_off_c, 0, 75, 47
1, 143644, Control_c, 0, 64, 49
1, 143644, Control_c, 0, 67, 78
1, 143659, Control_c, 0, 64, 10
1, 143659, Control_c, 0, 67, 78
1, 143673, Control_c, 0, 64, 0
1, 143673, Control_c, 0, 67, 79
1, 143688, Control_c, 0, 64, 17
1, 143703, Control_c, 0, 64, 49
1, 143703, Control_c, 0, 67, 79
1, 143718, Control_c, 0, 64, 61
1, 143718, Control_c, 0, 67, 80
1, 143733, Control_c, 0, 64, 66
1, 143733, Control_c, 0, 67, 80
1, 143748, Control_c, 0, 64, 70
1, 143748, Control_c, 0, 67, 84
1, 143762, Control_c, 0, 64, 76
1, 143762, Control_c, 0, 67, 89
1, 143778, Control_c, 0, 64, 81
1, 143778, Control_c, 0, 67, 93
1, 143793, Control_c, 0, 64, 84
1, 143793, Control_c, 0, 67, 94
1, 143808, Control_c, 0, 64, 86
1, 143808, Control_c, 0, 67, 94
1, 143822, Control_c, 0, 64, 87
1, 143822, Control_c, 0, 67, 96
1, 143837, Control_c, 0, 64, 87
1, 143837, Control_c, 0, 67, 99
1, 143852, Control_c, 0, 67, 101
1, 143867, Control_c, 0, 67, 101
1, 143882, Control_c, 0, 67, 102
1, 143894, Note_off_c, 0, 63, 43
1, 143903, Note_off_c, 0, 53, 35
1, 143926, Control_c, 0, 67, 101
1, 143941, Control_c, 0, 64, 88
1, 143941, Control_c, 0, 67, 101
1, 143950, Note_off_c, 0, 57, 36
1, 143956, Control_c, 0, 67, 100
1, 143971, Control_c, 0, 67, 100
1, 144001, Control_c, 0, 67, 99
1, 144015, Control_c, 0, 67, 99
1, 144030, Control_c, 0, 67, 98
1, 144067, Control_c, 0, 67, 98
1, 144096, Control_c, 0, 67, 97
1, 144111, Control_c, 0, 67, 97
1, 144141, Control_c, 0, 64, 87
1, 144156, Control_c, 0, 67, 96
1, 144186, Control_c, 0, 67, 96
1, 144230, Control_c, 0, 67, 95
1, 144300, Note_on_c, 0, 74, 44
1, 144334, Control_c, 0, 67, 95
1, 144357, Note_on_c, 0, 53, 28
1, 144357, Note_on_c, 0, 62, 39
1, 144368, Note_on_c, 0, 57, 37
1, 144378, Control_c, 0, 64, 86
1, 144393, Control_c, 0, 64, 85
1, 144408, Control_c, 0, 64, 81
1, 144422, Control_c, 0, 64, 74
1, 144422, Control_c, 0, 67, 95
1, 144427, Note_off_c, 0, 77, 57
1, 144437, Control_c, 0, 64, 65
1, 144452, Control_c, 0, 64, 54
1, 144467, Control_c, 0, 64, 35
1, 144482, Control_c, 0, 64, 23
1, 144482, Control_c, 0, 67, 95
1, 144496, Control_c, 0, 64, 35
1, 144511, Control_c, 0, 64, 54
1, 144511, Control_c, 0, 67, 94
1, 144526, Control_c, 0, 64, 62
1, 144541, Control_c, 0, 64, 65
1, 144541, Control_c, 0, 67, 94
1, 144555, Control_c, 0, 64, 68
1, 144572, Control_c, 0, 64, 72
1, 144572, Control_c, 0, 67, 93
1, 144587, Control_c, 0, 64, 76
1, 144587, Control_c, 0, 67, 93
1, 144601, Control_c, 0, 64, 79
1, 144616, Control_c, 0, 64, 80
1, 144616, Control_c, 0, 67, 92
1, 144631, Control_c, 0, 64, 81
1, 144645, Control_c, 0, 64, 81
1, 144645, Control_c, 0, 67, 92
1, 144660, Control_c, 0, 64, 82
1, 144675, Control_c, 0, 64, 83
1, 144704, Note_off_c, 0, 53, 29
1, 144749, Control_c, 0, 67, 91
1, 144771, Note_off_c, 0, 62, 37
1, 144802, Note_off_c, 0, 57, 40
1, 144875, Control_c, 0, 67, 92
1, 145082, Note_on_c, 0, 57, 33
1, 145085, Note_on_c, 0, 53, 34
1, 145088, Note_on_c, 0, 62, 31
1, 145201, Control_c, 0, 64, 82
1, 145244, Note_off_c, 0, 53, 41
1, 145245, Control_c, 0, 67, 91
1, 145248, Note_off_c, 0, 57, 46
1, 145276, Note_off_c, 0, 62, 39
1, 145290, Control_c, 0, 64, 82
1, 145409, Control_c, 0, 64, 81
1, 145482, Control_c, 0, 64, 81
1, 145511, Note_on_c, 0, 76, 47
1, 145512, Control_c, 0, 64, 80
1, 145549, Control_c, 0, 64, 80
1, 145560, Note_on_c, 0, 56, 30
1, 145564, Control_c, 0, 64, 79
1, 145566, Note_on_c, 0, 52, 31
1, 145579, Control_c, 0, 64, 79
1, 145587, Note_on_c, 0, 62, 27
1, 145594, Control_c, 0, 64, 78
1, 145608, Control_c, 0, 64, 78
1, 145623, Control_c, 0, 64, 77
1, 145638, Control_c, 0, 64, 75
1, 145653, Control_c, 0, 64, 72
1, 145668, Control_c, 0, 64, 68
1, 145682, Control_c, 0, 64, 62
1, 145697, Control_c, 0, 64, 50
1, 145712, Control_c, 0, 64, 17
1, 145712, Control_c, 0, 67, 92
1, 145720, Note_off_c, 0, 74, 32
1, 145724, Note_on_c, 0, 71, 50
1, 145727, Control_c, 0, 64, 0
1, 145806, Note_off_c, 0, 76, 58
1, 145816, Control_c, 0, 64, 28
1, 145816, Control_c, 0, 67, 91
1, 145831, Control_c, 0, 64, 48
1, 145846, Control_c, 0, 64, 58
1, 145846, Control_c, 0, 67, 91
1, 145861, Control_c, 0, 64, 62
1, 145875, Control_c, 0, 64, 64
1, 145890, Control_c, 0, 64, 67
1, 145890, Control_c, 0, 67, 90
1, 145905, Control_c, 0, 64, 70
1, 145920, Control_c, 0, 64, 75
1, 145935, Control_c, 0, 64, 77
1, 145949, Control_c, 0, 64, 79
1, 145964, Control_c, 0, 64, 81
1, 145964, Control_c, 0, 67, 90
1, 145971, Note_off_c, 0, 52, 37
1, 145978, Note_off_c, 0, 62, 41
1, 145979, Control_c, 0, 64, 82
1, 145993, Control_c, 0, 64, 83
1, 146008, Control_c, 0, 64, 84
1, 146013, Note_off_c, 0, 56, 39
1, 146023, Control_c, 0, 64, 85
1, 146053, Control_c, 0, 64, 85
1, 146270, Note_on_c, 0, 56, 22
1, 146292, Note_off_c, 0, 71, 31
1, 146296, Note_on_c, 0, 52, 26
1, 146299, Note_on_c, 0, 62, 31
1, 146403, Control_c, 0, 67, 90
1, 146512, Note_off_c, 0, 52, 38
1, 146520, Note_off_c, 0, 62, 42
1, 146539, Note_off_c, 0, 56, 37
1, 146699, Control_c, 0, 64, 85
1, 146745, Note_on_c, 0, 62, 30
1, 146746, Note_on_c, 0, 56, 33
1, 146755, Note_on_c, 0, 52, 33
1, 146817, Control_c, 0, 64, 84
1, 146877, Control_c, 0, 64, 84
1, 146918, Note_off_c, 0, 52, 43
1, 146927, Note_off_c, 0, 62, 42
1, 146934, Note_off_c, 0, 56, 41
1, 146950, Control_c, 0, 64, 83
1, 147062, Control_c, 0, 64, 83
1, 147119, Note_on_c, 0, 72, 48
1, 147122, Control_c, 0, 64, 82
1, 147137, Control_c, 0, 64, 82
1, 147142, Note_on_c, 0, 62, 31
1, 147151, Note_on_c, 0, 57, 33
1, 147152, Control_c, 0, 64, 81
1, 147161, Note_on_c, 0, 52, 32
1, 147166, Control_c, 0, 64, 79
1, 147181, Control_c, 0, 64, 76
1, 147196, Control_c, 0, 64, 69
1, 147211, Control_c, 0, 64, 61
1, 147226, Control_c, 0, 64, 45
1, 147226, Control_c, 0, 67, 91
1, 147240, Control_c, 0, 64, 25
1, 147255, Control_c, 0, 64, 19
1, 147270, Control_c, 0, 64, 34
1, 147274, Note_on_c, 0, 68, 57
1, 147285, Control_c, 0, 64, 51
1, 147300, Control_c, 0, 64, 60
1, 147300, Control_c, 0, 67, 90
1, 147315, Control_c, 0, 64, 64
1, 147317, Note_off_c, 0, 52, 50
1, 147329, Control_c, 0, 64, 66
1, 147344, Control_c, 0, 64, 68
1, 147353, Note_off_c, 0, 62, 41
1, 147359, Control_c, 0, 64, 69
1, 147373, Note_off_c, 0, 57, 50
1, 147373, Control_c, 0, 64, 70
1, 147388, Control_c, 0, 64, 71
1, 147388, Control_c, 0, 67, 90
1, 147469, Note_off_c, 0, 72, 32
1, 147507, Control_c, 0, 64, 70
1, 147513, Note_on_c, 0, 62, 22
1, 147518, Note_on_c, 0, 59, 43
1, 147521, Control_c, 0, 64, 67
1, 147524, Note_on_c, 0, 52, 17
1, 147536, Control_c, 0, 64, 63
1, 147551, Control_c, 0, 64, 53
1, 147551, Control_c, 0, 67, 90
1, 147566, Control_c, 0, 64, 28
1, 147581, Control_c, 0, 64, 0
1, 147626, Control_c, 0, 64, 32
1, 147640, Control_c, 0, 64, 51
1, 147640, Control_c, 0, 67, 90
1, 147655, Control_c, 0, 64, 61
1, 147670, Control_c, 0, 64, 65
1, 147670, Control_c, 0, 67, 89
1, 147685, Control_c, 0, 64, 68
1, 147700, Control_c, 0, 64, 72
1, 147714, Control_c, 0, 64, 75
1, 147729, Control_c, 0, 64, 78
1, 147729, Control_c, 0, 67, 89
1, 147744, Control_c, 0, 64, 79
1, 147760, Control_c, 0, 64, 80
1, 147763, Note_off_c, 0, 68, 58
1, 147769, Note_off_c, 0, 62, 45
1, 147773, Note_off_c, 0, 52, 42
1, 147775, Note_off_c, 0, 59, 57
1, 147775, Control_c, 0, 64, 81
1, 147796, Control_c, 0, 64, 82
1, 147811, Control_c, 0, 64, 82
1, 147826, Control_c, 0, 64, 83
1, 147870, Control_c, 0, 64, 83
1, 147910, Note_on_c, 0, 52, 40
1, 147927, Note_on_c, 0, 62, 16
1, 147933, Note_on_c, 0, 59, 44
1, 147989, Control_c, 0, 67, 88
1, 148004, Control_c, 0, 67, 88
1, 148019, Control_c, 0, 67, 87
1, 148023, Note_off_c, 0, 62, 33
1, 148034, Control_c, 0, 67, 86
1, 148049, Control_c, 0, 67, 84
1, 148063, Control_c, 0, 67, 81
1, 148074, Note_off_c, 0, 52, 39
1, 148078, Control_c, 0, 67, 80
1, 148093, Control_c, 0, 67, 78
1, 148094, Note_on_c, 0, 71, 58
1, 148101, Note_off_c, 0, 59, 36
1, 148108, Control_c, 0, 67, 77
1, 148123, Control_c, 0, 67, 75
1, 148137, Control_c, 0, 67, 75
1, 148226, Control_c, 0, 67, 74
1, 148300, Control_c, 0, 67, 74
1, 148315, Control_c, 0, 67, 73
1, 148330, Control_c, 0, 67, 72
1, 148344, Note_off_c, 0, 71, 64
1, 148344, Control_c, 0, 67, 68
1, 148359, Control_c, 0, 67, 65
1, 148374, Control_c, 0, 67, 63
1, 148389, Control_c, 0, 67, 61
1, 148404, Control_c, 0, 67, 60
1, 148419, Control_c, 0, 67, 60
1, 148428, Note_on_c, 0, 71, 61
1, 148448, Control_c, 0, 64, 82
1, 148463, Control_c, 0, 64, 80
1, 148469, Note_on_c, 0, 45, 37
1, 148478, Control_c, 0, 64, 74
1, 148493, Control_c, 0, 64, 66
1, 148493, Control_c, 0, 67, 60
1, 148508, Control_c, 0, 64, 56
1, 148522, Control_c, 0, 64, 35
1, 148544, Control_c, 0, 64, 27
1, 148559, Control_c, 0, 64, 37
1, 148575, Control_c, 0, 64, 51
1, 148590, Control_c, 0, 64, 59
1, 148605, Control_c, 0, 64, 64
1, 148605, Control_c, 0, 67, 61
1, 148619, Control_c, 0, 64, 67
1, 148634, Control_c, 0, 64, 70
1, 148649, Control_c, 0, 64, 73
1, 148649, Control_c, 0, 67, 61
1, 148664, Control_c, 0, 64, 75
1, 148679, Control_c, 0, 64, 76
1, 148689, Note_off_c, 0, 45, 59
1, 148693, Control_c, 0, 64, 77
1, 148708, Control_c, 0, 67, 62
1, 148738, Control_c, 0, 64, 77
1, 148738, Control_c, 0, 67, 62
1, 148753, Control_c, 0, 67, 63
1, 148758, Note_on_c, 0, 72, 63
1, 148783, Note_off_c, 0, 71, 58
1, 148906, Note_on_c, 0, 71, 65
1, 148958, Note_off_c, 0, 72, 56
1, 149005, Control_c, 0, 64, 77
1, 149019, Control_c, 0, 64, 74
1, 149031, Note_on_c, 0, 69, 66
1, 149033, Note_off_c, 0, 71, 54
1, 149034, Control_c, 0, 64, 68
1, 149049, Control_c, 0, 64, 61
1, 149064, Control_c, 0, 64, 50
1, 149066, Note_on_c, 0, 57, 31
1, 149069, Note_on_c, 0, 65, 33
1, 149078, Note_on_c, 0, 62, 35
1, 149079, Control_c, 0, 64, 43
1, 149093, Control_c, 0, 64, 50
1, 149108, Control_c, 0, 64, 58
1, 149123, Control_c, 0, 64, 62
1, 149137, Control_c, 0, 64, 65
1, 149147, Note_on_c, 0, 71, 68
1, 149152, Note_off_c, 0, 69, 59
1, 149152, Control_c, 0, 64, 67
1, 149167, Control_c, 0, 64, 70
1, 149182, Control_c, 0, 64, 72
1, 149197, Control_c, 0, 64, 73
1, 149211, Control_c, 0, 64, 74
1, 149216, Note_off_c, 0, 71, 63
1, 149229, Note_on_c, 0, 72, 68
1, 149260, Note_off_c, 0, 72, 64
1, 149271, Control_c, 0, 64, 74
1, 149272, Note_off_c, 0, 65, 37
1, 149280, Note_off_c, 0, 57, 40
1, 149318, Note_off_c, 0, 62, 42
1, 149327, Note_on_c, 0, 72, 72
1, 149441, Control_c, 0, 67, 63
1, 149483, Note_on_c, 0, 76, 62
1, 149487, Note_off_c, 0, 72, 61
1, 149516, Control_c, 0, 64, 74
1, 149517, Note_on_c, 0, 57, 29
1, 149520, Note_on_c, 0, 62, 25
1, 149531, Control_c, 0, 64, 73
1, 149535, Note_on_c, 0, 65, 31
1, 149545, Control_c, 0, 64, 70
1, 149560, Control_c, 0, 64, 67
1, 149575, Control_c, 0, 64, 61
1, 149575, Control_c, 0, 67, 64
1, 149590, Control_c, 0, 64, 49
1, 149605, Control_c, 0, 64, 27
1, 149620, Control_c, 0, 64, 0
1, 149664, Control_c, 0, 64, 26
1, 149679, Control_c, 0, 64, 45
1, 149694, Control_c, 0, 64, 57
1, 149708, Control_c, 0, 64, 62
1, 149723, Control_c, 0, 64, 65
1, 149738, Control_c, 0, 64, 67
1, 149753, Control_c, 0, 64, 69
1, 149753, Control_c, 0, 67, 63
1, 149767, Control_c, 0, 64, 71
1, 149782, Control_c, 0, 64, 73
1, 149797, Control_c, 0, 64, 74
1, 149812, Control_c, 0, 64, 76
1, 149827, Control_c, 0, 64, 77
1, 149841, Control_c, 0, 64, 77
1, 149856, Control_c, 0, 64, 78
1, 149901, Control_c, 0, 64, 78
1, 149907, Note_off_c, 0, 65, 35
1, 149915, Control_c, 0, 64, 79
1, 149927, Note_on_c, 0, 74, 54
1, 149960, Control_c, 0, 67, 64
1, 149969, Note_off_c, 0, 57, 39
1, 150053, Note_on_c, 0, 69, 59
1, 150194, Note_off_c, 0, 62, 40
1, 150201, Note_off_c, 0, 76, 35
1, 150204, Note_off_c, 0, 69, 61
1, 150210, Note_off_c, 0, 74, 57
1, 150255, Note_on_c, 0, 65, 36
1, 150260, Note_on_c, 0, 60, 39
1, 150263, Note_on_c, 0, 57, 37
1, 150339, Control_c, 0, 64, 77
1, 150354, Control_c, 0, 64, 75
1, 150358, Note_on_c, 0, 69, 62
1, 150369, Control_c, 0, 64, 71
1, 150383, Control_c, 0, 64, 66
1, 150398, Control_c, 0, 64, 59
1, 150413, Control_c, 0, 64, 45
1, 150428, Control_c, 0, 64, 0
1, 150473, Note_on_c, 0, 72, 64
1, 150481, Note_off_c, 0, 69, 65
1, 150547, Control_c, 0, 64, 19
1, 150547, Control_c, 0, 67, 63
1, 150562, Control_c, 0, 64, 39
1, 150577, Control_c, 0, 64, 53
1, 150591, Control_c, 0, 64, 61
1, 150591, Control_c, 0, 67, 63
1, 150606, Control_c, 0, 64, 64
1, 150621, Control_c, 0, 64, 67
1, 150636, Control_c, 0, 64, 71
1, 150651, Control_c, 0, 64, 75
1, 150665, Control_c, 0, 64, 79
1, 150680, Control_c, 0, 64, 81
1, 150695, Control_c, 0, 64, 83
1, 150696, Note_off_c, 0, 65, 42
1, 150696, Note_off_c, 0, 57, 41
1, 150697, Note_off_c, 0, 60, 54
1, 150710, Control_c, 0, 64, 84
1, 150725, Control_c, 0, 64, 86
1, 150739, Control_c, 0, 64, 87
1, 150769, Control_c, 0, 64, 87
1, 150796, Note_off_c, 0, 72, 58
1, 150806, Control_c, 0, 64, 88
1, 150836, Note_on_c, 0, 65, 46
1, 150842, Note_on_c, 0, 60, 53
1, 150845, Note_on_c, 0, 57, 42
1, 150851, Control_c, 0, 64, 88
1, 150851, Control_c, 0, 67, 62
1, 150880, Control_c, 0, 67, 62
1, 150985, Control_c, 0, 67, 61
1, 150994, Note_off_c, 0, 60, 62
1, 151005, Note_off_c, 0, 65, 59
1, 151013, Note_off_c, 0, 57, 37
1, 151162, Control_c, 0, 64, 88
1, 151166, Note_on_c, 0, 71, 68
1, 151192, Control_c, 0, 64, 85
1, 151194, Note_on_c, 0, 65, 38
1, 151207, Note_on_c, 0, 60, 36
1, 151207, Control_c, 0, 64, 78
1, 151217, Note_on_c, 0, 56, 46
1, 151221, Control_c, 0, 64, 69
1, 151236, Control_c, 0, 64, 59
1, 151251, Control_c, 0, 64, 47
1, 151266, Control_c, 0, 64, 52
1, 151281, Control_c, 0, 64, 59
1, 151281, Control_c, 0, 67, 61
1, 151295, Control_c, 0, 64, 63
1, 151310, Control_c, 0, 64, 65
1, 151325, Control_c, 0, 64, 68
1, 151340, Control_c, 0, 64, 71
1, 151355, Control_c, 0, 64, 75
1, 151370, Control_c, 0, 64, 77
1, 151370, Control_c, 0, 67, 60
1, 151382, Note_on_c, 0, 72, 76
1, 151385, Control_c, 0, 64, 78
1, 151414, Control_c, 0, 64, 78
1, 151429, Control_c, 0, 64, 79
1, 151433, Note_off_c, 0, 71, 48
1, 151444, Control_c, 0, 64, 79
1, 151483, Note_off_c, 0, 60, 39
1, 151526, Note_on_c, 0, 73, 73
1, 151567, Note_off_c, 0, 65, 48
1, 151572, Note_off_c, 0, 56, 57
1, 151575, Note_off_c, 0, 72, 60
1, 151599, Control_c, 0, 67, 61
1, 151674, Control_c, 0, 67, 61
1, 151718, Control_c, 0, 64, 79
1, 151727, Note_on_c, 0, 74, 64
1, 151733, Control_c, 0, 64, 78
1, 151733, Control_c, 0, 67, 62
1, 151747, Control_c, 0, 64, 76
1, 151748, Note_on_c, 0, 65, 35
1, 151763, Control_c, 0, 64, 73
1, 151765, Note_off_c, 0, 73, 61
1, 151769, Note_on_c, 0, 55, 37
1, 151771, Note_on_c, 0, 60, 35
1, 151778, Control_c, 0, 64, 68
1, 151793, Control_c, 0, 64, 63
1, 151808, Control_c, 0, 64, 55
1, 151823, Control_c, 0, 64, 39
1, 151837, Control_c, 0, 64, 0
1, 151837, Control_c, 0, 67, 62
1, 151852, Control_c, 0, 67, 63
1, 151867, Control_c, 0, 67, 63
1, 151882, Control_c, 0, 67, 64
1, 151911, Control_c, 0, 67, 64
1, 151941, Control_c, 0, 67, 65
1, 151956, Control_c, 0, 67, 65
1, 151971, Control_c, 0, 67, 66
1, 151985, Control_c, 0, 67, 66
1, 152000, Control_c, 0, 67, 67
1, 152030, Control_c, 0, 67, 68
1, 152042, Note_on_c, 0, 84, 63
1, 152044, Control_c, 0, 67, 68
1, 152059, Control_c, 0, 67, 69
1, 152074, Control_c, 0, 67, 70
1, 152089, Control_c, 0, 67, 71
1, 152104, Control_c, 0, 67, 72
1, 152118, Control_c, 0, 67, 73
1, 152124, Note_off_c, 0, 74, 66
1, 152133, Control_c, 0, 67, 74
1, 152148, Control_c, 0, 67, 75
1, 152163, Control_c, 0, 64, 34
1, 152163, Control_c, 0, 67, 75
1, 152178, Control_c, 0, 64, 53
1, 152178, Control_c, 0, 67, 78
1, 152191, Control_c, 0, 64, 60
1, 152191, Control_c, 0, 67, 80
1, 152206, Control_c, 0, 64, 63
1, 152206, Control_c, 0, 67, 82
1, 152221, Control_c, 0, 64, 65
1, 152221, Control_c, 0, 67, 84
1, 152235, Control_c, 0, 64, 67
1, 152235, Control_c, 0, 67, 86
1, 152250, Control_c, 0, 64, 71
1, 152250, Control_c, 0, 67, 90
1, 152265, Control_c, 0, 64, 74
1, 152265, Control_c, 0, 67, 92
1, 152288, Control_c, 0, 64, 76
1, 152288, Control_c, 0, 67, 93
1, 152303, Control_c, 0, 64, 77
1, 152303, Control_c, 0, 67, 95
1, 152317, Control_c, 0, 64, 77
1, 152317, Control_c, 0, 67, 99
1, 152332, Control_c, 0, 67, 103
1, 152347, Control_c, 0, 67, 106
1, 152361, Control_c, 0, 67, 108
1, 152376, Control_c, 0, 67, 110
1, 152391, Control_c, 0, 67, 111
1, 152406, Control_c, 0, 67, 112
1, 152421, Control_c, 0, 67, 113
1, 152428, Note_on_c, 0, 83, 62
1, 152435, Control_c, 0, 67, 113
1, 152500, Note_off_c, 0, 55, 32
1, 152505, Note_off_c, 0, 65, 39
1, 152509, Control_c, 0, 67, 113
1, 152539, Control_c, 0, 67, 112
1, 152550, Note_off_c, 0, 60, 46
1, 152555, Control_c, 0, 67, 111
1, 152584, Control_c, 0, 67, 111
1, 152599, Control_c, 0, 67, 110
1, 152603, Note_off_c, 0, 84, 50
1, 152629, Control_c, 0, 67, 110
1, 152658, Control_c, 0, 67, 109
1, 152703, Control_c, 0, 64, 76
1, 152712, Note_on_c, 0, 72, 51
1, 152718, Control_c, 0, 64, 74
1, 152718, Control_c, 0, 67, 109
1, 152726, Note_on_c, 0, 55, 27
1, 152726, Note_on_c, 0, 65, 33
1, 152727, Note_on_c, 0, 59, 32
1, 152732, Control_c, 0, 64, 69
1, 152747, Control_c, 0, 64, 62
1, 152755, Note_off_c, 0, 83, 59
1, 152762, Control_c, 0, 64, 42
1, 152777, Control_c, 0, 64, 0
1, 152836, Control_c, 0, 67, 108
1, 152851, Control_c, 0, 64, 36
1, 152866, Control_c, 0, 64, 53
1, 152866, Control_c, 0, 67, 108
1, 152881, Control_c, 0, 64, 60
1, 152881, Control_c, 0, 67, 107
1, 152896, Control_c, 0, 64, 61
1, 152911, Control_c, 0, 64, 61
1, 152926, Control_c, 0, 64, 62
1, 152926, Control_c, 0, 67, 107
1, 152941, Control_c, 0, 64, 63
1, 152941, Control_c, 0, 67, 106
1, 152956, Control_c, 0, 64, 64
1, 152967, Note_on_c, 0, 71, 46
1, 153002, Note_off_c, 0, 72, 36
1, 153037, Control_c, 0, 67, 106
1, 153066, Control_c, 0, 64, 64
1, 153066, Control_c, 0, 67, 105
1, 153081, Control_c, 0, 64, 65
1, 153096, Control_c, 0, 64, 66
1, 153111, Control_c, 0, 64, 66
1, 153126, Control_c, 0, 64, 67
1, 153140, Control_c, 0, 64, 67
1, 153155, Control_c, 0, 64, 68
1, 153165, Note_on_c, 0, 81, 44
1, 153170, Control_c, 0, 64, 68
1, 153179, Note_off_c, 0, 71, 55
1, 153182, Note_off_c, 0, 65, 47
1, 153185, Control_c, 0, 64, 69
1, 153193, Note_off_c, 0, 55, 40
1, 153200, Control_c, 0, 67, 105
1, 153206, Note_off_c, 0, 59, 49
1, 153215, Control_c, 0, 64, 69
1, 153274, Control_c, 0, 67, 104
1, 153320, Note_on_c, 0, 79, 54
1, 153336, Note_on_c, 0, 65, 25
1, 153340, Note_on_c, 0, 59, 37
1, 153350, Note_on_c, 0, 55, 25
1, 153396, Note_off_c, 0, 81, 33
1, 153450, Note_off_c, 0, 79, 58
1, 153475, Note_on_c, 0, 69, 52
1, 153512, Control_c, 0, 64, 70
1, 153527, Control_c, 0, 67, 104
1, 153542, Control_c, 0, 64, 70
1, 153556, Control_c, 0, 64, 71
1, 153571, Control_c, 0, 64, 72
1, 153571, Control_c, 0, 67, 103
1, 153586, Control_c, 0, 64, 73
1, 153594, Note_off_c, 0, 69, 59
1, 153600, Control_c, 0, 64, 74
1, 153600, Control_c, 0, 67, 103
1, 153608, Note_on_c, 0, 67, 52
1, 153615, Control_c, 0, 64, 76
1, 153615, Control_c, 0, 67, 102
1, 153630, Control_c, 0, 64, 77
1, 153630, Control_c, 0, 67, 102
1, 153645, Control_c, 0, 64, 79
1, 153645, Control_c, 0, 67, 101
1, 153660, Control_c, 0, 64, 81
1, 153660, Control_c, 0, 67, 101
1, 153670, Note_off_c, 0, 65, 37
1, 153675, Control_c, 0, 64, 82
1, 153675, Control_c, 0, 67, 100
1, 153679, Note_off_c, 0, 55, 36
1, 153689, Control_c, 0, 64, 83
1, 153689, Control_c, 0, 67, 100
1, 153704, Control_c, 0, 64, 84
1, 153717, Note_off_c, 0, 59, 40
1, 153719, Control_c, 0, 67, 99
1, 153734, Control_c, 0, 64, 85
1, 153749, Control_c, 0, 67, 99
1, 153898, Note_on_c, 0, 76, 54
1, 153937, Note_on_c, 0, 55, 31
1, 153948, Note_on_c, 0, 59, 31
1, 153948, Control_c, 0, 64, 84
1, 153948, Control_c, 0, 67, 99
1, 153950, Note_on_c, 0, 64, 24
1, 153963, Control_c, 0, 64, 82
1, 153978, Control_c, 0, 64, 80
1, 153993, Control_c, 0, 64, 77
1, 153993, Control_c, 0, 67, 100
1, 154008, Control_c, 0, 64, 71
1, 154023, Control_c, 0, 64, 64
1, 154038, Control_c, 0, 64, 52
1, 154053, Control_c, 0, 64, 26
1, 154053, Control_c, 0, 67, 100
1, 154067, Note_off_c, 0, 67, 60
1, 154067, Control_c, 0, 64, 0
1, 154082, Control_c, 0, 67, 100
1, 154141, Control_c, 0, 64, 16
1, 154141, Control_c, 0, 67, 99
1, 154157, Control_c, 0, 64, 41
1, 154172, Control_c, 0, 64, 55
1, 154172, Control_c, 0, 67, 98
1, 154187, Control_c, 0, 64, 60
1, 154202, Control_c, 0, 64, 62
1, 154202, Control_c, 0, 67, 98
1, 154217, Control_c, 0, 64, 64
1, 154217, Control_c, 0, 67, 97
1, 154231, Control_c, 0, 64, 67
1, 154231, Control_c, 0, 67, 96
1, 154246, Control_c, 0, 64, 69
1, 154246, Control_c, 0, 67, 95
1, 154261, Control_c, 0, 64, 73
1, 154276, Control_c, 0, 64, 76
1, 154291, Control_c, 0, 64, 78
1, 154291, Control_c, 0, 67, 95
1, 154305, Control_c, 0, 64, 80
1, 154306, Note_off_c, 0, 55, 33
1, 154320, Control_c, 0, 64, 82
1, 154335, Control_c, 0, 64, 84
1, 154350, Control_c, 0, 64, 85
1, 154360, Note_off_c, 0, 64, 42
1, 154365, Control_c, 0, 64, 87
1, 154379, Control_c, 0, 64, 88
1, 154394, Control_c, 0, 64, 89
1, 154399, Note_off_c, 0, 59, 42
1, 154409, Control_c, 0, 64, 90
1, 154423, Control_c, 0, 64, 90
1, 154438, Control_c, 0, 64, 91
1, 154453, Control_c, 0, 64, 93
1, 154468, Control_c, 0, 64, 95
1, 154483, Control_c, 0, 64, 96
1, 154497, Control_c, 0, 64, 98
1, 154512, Control_c, 0, 64, 99
1, 154535, Control_c, 0, 64, 102
1, 154550, Control_c, 0, 64, 103
1, 154564, Control_c, 0, 64, 105
1, 154579, Control_c, 0, 64, 107
1, 154594, Control_c, 0, 64, 110
1, 154609, Control_c, 0, 64, 113
1, 154624, Control_c, 0, 64, 116
1, 154638, Control_c, 0, 64, 122
1, 154653, Control_c, 0, 64, 127
1, 154696, Note_on_c, 0, 64, 26
1, 154698, Control_c, 0, 67, 94
1, 154702, Note_on_c, 0, 55, 25
1, 154703, Note_on_c, 0, 59, 32
1, 154935, Control_c, 0, 67, 95
1, 154944, Note_off_c, 0, 55, 40
1, 154962, Note_off_c, 0, 64, 42
1, 154983, Note_off_c, 0, 59, 42
1, 155009, Control_c, 0, 67, 95
1, 155150, Note_on_c, 0, 59, 16
1, 155156, Note_on_c, 0, 64, 30
1, 155162, Note_on_c, 0, 55, 31
1, 155319, Note_off_c, 0, 55, 43
1, 155343, Control_c, 0, 67, 96
1, 155348, Note_off_c, 0, 59, 56
1, 155358, Note_off_c, 0, 64, 39
1, 155387, Control_c, 0, 67, 96
1, 155417, Control_c, 0, 67, 97
1, 155594, Control_c, 0, 64, 118
1, 155609, Control_c, 0, 64, 111
1, 155624, Control_c, 0, 64, 105
1, 155627, Note_on_c, 0, 58, 32
1, 155629, Note_on_c, 0, 64, 28
1, 155639, Control_c, 0, 64, 98
1, 155639, Control_c, 0, 67, 97
1, 155641, Note_on_c, 0, 54, 24
1, 155653, Control_c, 0, 64, 90
1, 155668, Control_c, 0, 64, 81
1, 155683, Control_c, 0, 64, 72
1, 155698, Control_c, 0, 64, 64
1, 155713, Control_c, 0, 64, 52
1, 155728, Control_c, 0, 64, 32
1, 155743, Control_c, 0, 64, 11
1, 155758, Control_c, 0, 64, 23
1, 155773, Control_c, 0, 64, 46
1, 155788, Control_c, 0, 64, 58
1, 155802, Control_c, 0, 64, 64
1, 155817, Control_c, 0, 64, 68
1, 155817, Control_c, 0, 67, 97
1, 155832, Control_c, 0, 64, 74
1, 155847, Control_c, 0, 64, 81
1, 155862, Control_c, 0, 64, 86
1, 155877, Control_c, 0, 64, 89
1, 155892, Control_c, 0, 64, 91
1, 155907, Control_c, 0, 64, 92
1, 155922, Control_c, 0, 64, 93
1, 155936, Control_c, 0, 64, 94
1, 155947, Note_off_c, 0, 64, 39
1, 155950, Note_off_c, 0, 54, 38
1, 155950, Control_c, 0, 64, 95
1, 155965, Control_c, 0, 64, 96
1, 155973, Note_off_c, 0, 58, 38
1, 156297, Note_on_c, 0, 54, 26
1, 156305, Note_on_c, 0, 58, 13
1, 156318, Note_on_c, 0, 63, 30
1, 156438, Note_on_c, 0, 78, 43
1, 156445, Note_off_c, 0, 76, 33
1, 156476, Control_c, 0, 64, 95
1, 156491, Control_c, 0, 64, 95
1, 156506, Control_c, 0, 64, 94
1, 156521, Control_c, 0, 64, 93
1, 156535, Control_c, 0, 64, 91
1, 156551, Control_c, 0, 64, 89
1, 156551, Control_c, 0, 67, 97
1, 156566, Control_c, 0, 64, 85
1, 156580, Control_c, 0, 64, 79
1, 156583, Note_on_c, 0, 75, 48
1, 156595, Control_c, 0, 64, 72
1, 156607, Note_off_c, 0, 78, 0
1, 156610, Control_c, 0, 64, 64
1, 156625, Control_c, 0, 64, 52
1, 156625, Control_c, 0, 67, 98
1, 156640, Control_c, 0, 64, 29
1, 156649, Poly_aftertouch_c, 0, 78, 0
1, 156655, Control_c, 0, 64, 0
1, 156685, Control_c, 0, 64, 20
1, 156700, Control_c, 0, 64, 43
1, 156715, Control_c, 0, 64, 58
1, 156715, Control_c, 0, 67, 97
1, 156729, Control_c, 0, 64, 65
1, 156744, Control_c, 0, 64, 69
1, 156759, Control_c, 0, 64, 73
1, 156759, Control_c, 0, 67, 97
1, 156781, Control_c, 0, 64, 79
1, 156796, Control_c, 0, 64, 83
1, 156811, Control_c, 0, 64, 87
1, 156826, Control_c, 0, 64, 89
1, 156840, Control_c, 0, 64, 92
1, 156846, Note_off_c, 0, 54, 41
1, 156855, Note_off_c, 0, 63, 42
1, 156855, Control_c, 0, 64, 95
1, 156870, Control_c, 0, 64, 97
1, 156885, Note_off_c, 0, 58, 40
1, 156885, Control_c, 0, 64, 99
1, 156900, Control_c, 0, 64, 101
1, 156914, Control_c, 0, 64, 102
1, 156929, Control_c, 0, 64, 104
1, 156944, Control_c, 0, 64, 105
1, 156959, Control_c, 0, 64, 105
1, 156974, Control_c, 0, 64, 106
1, 157017, Note_off_c, 0, 75, 58
1, 157019, Control_c, 0, 64, 106
1, 157132, Note_on_c, 0, 63, 34
1, 157142, Note_on_c, 0, 54, 32
1, 157147, Note_on_c, 0, 58, 28
1, 157240, Control_c, 0, 67, 97
1, 157339, Note_off_c, 0, 54, 38
1, 157351, Note_off_c, 0, 63, 42
1, 157382, Note_off_c, 0, 58, 38
1, 157434, Control_c, 0, 64, 106
1, 157525, Note_on_c, 0, 63, 29
1, 157544, Note_on_c, 0, 57, 37
1, 157546, Note_on_c, 0, 53, 32
1, 157575, Control_c, 0, 64, 105
1, 157589, Control_c, 0, 64, 104
1, 157604, Control_c, 0, 64, 99
1, 157619, Control_c, 0, 64, 93
1, 157624, Note_on_c, 0, 76, 55
1, 157634, Control_c, 0, 64, 84
1, 157649, Control_c, 0, 64, 73
1, 157663, Control_c, 0, 64, 62
1, 157678, Control_c, 0, 64, 48
1, 157678, Control_c, 0, 67, 97
1, 157693, Control_c, 0, 64, 43
1, 157693, Control_c, 0, 67, 96
1, 157708, Control_c, 0, 64, 53
1, 157708, Control_c, 0, 67, 96
1, 157723, Control_c, 0, 64, 62
1, 157723, Control_c, 0, 67, 95
1, 157737, Control_c, 0, 64, 65
1, 157737, Control_c, 0, 67, 94
1, 157752, Control_c, 0, 64, 68
1, 157752, Control_c, 0, 67, 94
1, 157767, Control_c, 0, 64, 73
1, 157767, Control_c, 0, 67, 93
1, 157782, Control_c, 0, 64, 78
1, 157782, Control_c, 0, 67, 91
1, 157797, Control_c, 0, 64, 82
1, 157797, Control_c, 0, 67, 89
1, 157803, Note_on_c, 0, 77, 57
1, 157806, Note_off_c, 0, 76, 57
1, 157811, Control_c, 0, 64, 85
1, 157811, Control_c, 0, 67, 88
1, 157826, Control_c, 0, 64, 86
1, 157841, Control_c, 0, 64, 87
1, 157856, Control_c, 0, 64, 89
1, 157871, Control_c, 0, 64, 90
1, 157886, Control_c, 0, 64, 92
1, 157889, Note_off_c, 0, 77, 63
1, 157899, Note_on_c, 0, 80, 58
1, 157901, Control_c, 0, 64, 92
1, 157912, Note_off_c, 0, 53, 35
1, 157934, Note_off_c, 0, 63, 43
1, 157960, Control_c, 0, 64, 93
1, 157981, Note_on_c, 0, 79, 61
1, 158006, Note_off_c, 0, 57, 40
1, 158050, Note_on_c, 0, 78, 61
1, 158071, Note_off_c, 0, 79, 61
1, 158084, Note_off_c, 0, 80, 41
1, 158109, Note_on_c, 0, 77, 66
1, 158111, Note_off_c, 0, 78, 62
1, 158183, Control_c, 0, 64, 92
1, 158193, Note_on_c, 0, 74, 68
1, 158197, Note_off_c, 0, 77, 58
1, 158212, Control_c, 0, 64, 89
1, 158213, Note_on_c, 0, 62, 47
1, 158221, Note_on_c, 0, 57, 37
1, 158227, Control_c, 0, 64, 81
1, 158229, Note_on_c, 0, 53, 39
1, 158242, Control_c, 0, 64, 70
1, 158242, Control_c, 0, 67, 88
1, 158257, Control_c, 0, 64, 58
1, 158279, Control_c, 0, 64, 36
1, 158294, Control_c, 0, 64, 24
1, 158309, Control_c, 0, 64, 42
1, 158324, Control_c, 0, 64, 57
1, 158324, Control_c, 0, 67, 87
1, 158339, Control_c, 0, 64, 65
1, 158339, Control_c, 0, 67, 86
1, 158353, Control_c, 0, 64, 70
1, 158353, Control_c, 0, 67, 85
1, 158368, Control_c, 0, 64, 77
1, 158383, Control_c, 0, 64, 84
1, 158398, Control_c, 0, 64, 90
1, 158398, Control_c, 0, 67, 85
1, 158412, Control_c, 0, 64, 93
1, 158419, Note_off_c, 0, 74, 64
1, 158427, Control_c, 0, 64, 97
1, 158442, Control_c, 0, 64, 100
1, 158457, Control_c, 0, 64, 104
1, 158472, Control_c, 0, 64, 106
1, 158486, Control_c, 0, 64, 108
1, 158493, Note_off_c, 0, 62, 56
1, 158501, Control_c, 0, 64, 111
1, 158516, Control_c, 0, 64, 113
1, 158521, Note_off_c, 0, 53, 38
1, 158521, Note_off_c, 0, 57, 51
1, 158531, Control_c, 0, 64, 113
1, 158560, Control_c, 0, 64, 114
1, 158631, Note_on_c, 0, 53, 50
1, 158633, Note_on_c, 0, 62, 54
1, 158639, Note_on_c, 0, 57, 52
1, 158664, Control_c, 0, 64, 115
1, 158694, Control_c, 0, 64, 115
1, 158709, Control_c, 0, 64, 117
1, 158709, Control_c, 0, 67, 85
1, 158724, Control_c, 0, 64, 118
1, 158739, Control_c, 0, 64, 119
1, 158741, Note_off_c, 0, 62, 56
1, 158778, Note_on_c, 0, 80, 70
1, 158779, Note_off_c, 0, 57, 60
1, 158783, Control_c, 0, 64, 120
1, 158783, Control_c, 0, 67, 86
1, 158792, Note_off_c, 0, 53, 59
1, 158797, Control_c, 0, 64, 122
1, 158827, Control_c, 0, 67, 86
1, 158842, Control_c, 0, 67, 87
1, 158857, Control_c, 0, 64, 124
1, 158857, Control_c, 0, 67, 87
1, 158871, Control_c, 0, 64, 127
1, 158871, Control_c, 0, 67, 88
1, 158886, Control_c, 0, 67, 89
1, 158901, Control_c, 0, 67, 90
1, 158916, Control_c, 0, 67, 92
1, 158930, Control_c, 0, 67, 95
1, 158947, Control_c, 0, 67, 96
1, 158962, Control_c, 0, 67, 98
1, 158976, Control_c, 0, 67, 100
1, 158991, Control_c, 0, 67, 102
1, 159006, Control_c, 0, 67, 106
1, 159028, Control_c, 0, 67, 109
1, 159043, Control_c, 0, 67, 111
1, 159058, Control_c, 0, 67, 112
1, 159072, Control_c, 0, 64, 124
1, 159072, Control_c, 0, 67, 114
1, 159078, Note_on_c, 0, 88, 75
1, 159087, Control_c, 0, 64, 115
1, 159087, Control_c, 0, 67, 117
1, 159099, Note_on_c, 0, 84, 49
1, 159102, Control_c, 0, 64, 103
1, 159102, Control_c, 0, 67, 119
1, 159117, Control_c, 0, 64, 93
1, 159117, Control_c, 0, 67, 120
1, 159131, Note_on_c, 0, 52, 40
1, 159132, Control_c, 0, 64, 83
1, 159132, Control_c, 0, 67, 122
1, 159142, Note_on_c, 0, 40, 40
1, 159147, Control_c, 0, 64, 71
1, 159147, Control_c, 0, 67, 124
1, 159162, Control_c, 0, 64, 60
1, 159162, Control_c, 0, 67, 126
1, 159176, Control_c, 0, 64, 39
1, 159176, Control_c, 0, 67, 127
1, 159177, Note_off_c, 0, 80, 53
1, 159191, Control_c, 0, 64, 0
1, 159191, Control_c, 0, 67, 127
1, 159250, Control_c, 0, 64, 29
1, 159265, Control_c, 0, 64, 54
1, 159280, Control_c, 0, 64, 65
1, 159294, Control_c, 0, 64, 71
1, 159309, Control_c, 0, 64, 78
1, 159324, Control_c, 0, 64, 85
1, 159339, Control_c, 0, 64, 93
1, 159339, Control_c, 0, 67, 126
1, 159343, Note_off_c, 0, 40, 61
1, 159353, Control_c, 0, 64, 101
1, 159353, Control_c, 0, 67, 124
1, 159368, Control_c, 0, 64, 112
1, 159368, Control_c, 0, 67, 123
1, 159383, Control_c, 0, 64, 127
1, 159383, Control_c, 0, 67, 121
1, 159398, Control_c, 0, 67, 121
1, 159413, Control_c, 0, 67, 120
1, 159424, Note_off_c, 0, 88, 58
1, 159442, Control_c, 0, 67, 120
1, 159444, Note_off_c, 0, 52, 53
1, 159457, Control_c, 0, 67, 119
1, 159487, Control_c, 0, 67, 119
1, 159517, Control_c, 0, 67, 118
1, 159546, Control_c, 0, 67, 118
1, 159576, Control_c, 0, 67, 117
1, 159591, Control_c, 0, 67, 117
1, 159593, Note_off_c, 0, 84, 60
1, 159606, Control_c, 0, 67, 116
1, 159635, Control_c, 0, 67, 116
1, 159665, Control_c, 0, 67, 115
1, 159708, Control_c, 0, 67, 115
1, 159776, Control_c, 0, 67, 114
1, 159821, Note_on_c, 0, 88, 40
1, 159828, Note_on_c, 0, 83, 46
1, 159836, Control_c, 0, 67, 114
1, 159883, Note_off_c, 0, 88, 55
1, 159995, Note_on_c, 0, 88, 33
1, 160003, Note_on_c, 0, 80, 36
1, 160006, Note_off_c, 0, 83, 28
1, 160028, Control_c, 0, 64, 100
1, 160042, Note_on_c, 0, 62, 36
1, 160043, Control_c, 0, 64, 83
1, 160044, Note_on_c, 0, 59, 30
1, 160053, Note_on_c, 0, 52, 27
1, 160058, Control_c, 0, 64, 70
1, 160073, Control_c, 0, 64, 59
1, 160073, Control_c, 0, 67, 113
1, 160088, Control_c, 0, 64, 49
1, 160103, Control_c, 0, 64, 49
1, 160117, Control_c, 0, 64, 58
1, 160132, Control_c, 0, 64, 65
1, 160147, Control_c, 0, 64, 71
1, 160158, Note_off_c, 0, 88, 52
1, 160162, Control_c, 0, 64, 79
1, 160162, Control_c, 0, 67, 113
1, 160176, Control_c, 0, 64, 87
1, 160191, Control_c, 0, 64, 91
1, 160206, Control_c, 0, 64, 96
1, 160217, Note_off_c, 0, 80, 53
1, 160221, Control_c, 0, 64, 101
1, 160236, Control_c, 0, 64, 108
1, 160250, Control_c, 0, 64, 115
1, 160265, Control_c, 0, 64, 120
1, 160265, Control_c, 0, 67, 113
1, 160280, Control_c, 0, 64, 124
1, 160281, Note_off_c, 0, 52, 35
1, 160295, Control_c, 0, 64, 127
1, 160295, Control_c, 0, 67, 114
1, 160324, Control_c, 0, 67, 114
1, 160331, Note_off_c, 0, 59, 36
1, 160333, Note_off_c, 0, 62, 40
1, 160339, Control_c, 0, 67, 115
1, 160369, Control_c, 0, 67, 116
1, 160399, Control_c, 0, 67, 116
1, 160429, Control_c, 0, 67, 117
1, 160586, Control_c, 0, 67, 116
1, 160689, Control_c, 0, 67, 116
1, 160763, Control_c, 0, 67, 115
1, 160822, Control_c, 0, 67, 115
1, 160852, Control_c, 0, 64, 124
1, 160867, Control_c, 0, 64, 122
1, 160867, Control_c, 0, 67, 114
1, 160882, Control_c, 0, 64, 120
1, 160897, Control_c, 0, 64, 118
1, 160927, Control_c, 0, 64, 117
1, 160927, Control_c, 0, 67, 114
1, 160941, Control_c, 0, 64, 116
1, 160956, Control_c, 0, 64, 115
1, 160971, Control_c, 0, 64, 113
1, 160986, Control_c, 0, 64, 113
1, 161000, Control_c, 0, 64, 111
1, 161000, Control_c, 0, 67, 113
1, 161015, Control_c, 0, 64, 111
1, 161030, Control_c, 0, 64, 109
1, 161045, Control_c, 0, 64, 109
1, 161074, Control_c, 0, 64, 108
1, 161089, Control_c, 0, 64, 108
1, 161104, Control_c, 0, 64, 107
1, 161114, Note_on_c, 0, 68, 43
1, 161119, Control_c, 0, 64, 106
1, 161134, Control_c, 0, 67, 113
1, 161148, Control_c, 0, 64, 106
1, 161163, Control_c, 0, 64, 105
1, 161170, Note_on_c, 0, 62, 30
1, 161171, Note_on_c, 0, 59, 22
1, 161178, Control_c, 0, 64, 105
1, 161180, Note_on_c, 0, 52, 26
1, 161207, Control_c, 0, 64, 104
1, 161252, Control_c, 0, 64, 104
1, 161319, Control_c, 0, 64, 103
1, 161350, Control_c, 0, 64, 103
1, 161369, Note_off_c, 0, 62, 39
1, 161385, Note_off_c, 0, 52, 34
1, 161388, Note_off_c, 0, 59, 42
1, 161468, Control_c, 0, 64, 102
1, 161497, Control_c, 0, 64, 102
1, 161660, Control_c, 0, 64, 101
1, 161690, Control_c, 0, 64, 101
1, 161705, Control_c, 0, 64, 100
1, 161719, Control_c, 0, 64, 99
1, 161734, Control_c, 0, 64, 99
1, 161746, Note_on_c, 0, 45, 26
1, 161749, Control_c, 0, 64, 98
1, 161764, Control_c, 0, 64, 98
1, 161764, Control_c, 0, 67, 112
1, 161779, Control_c, 0, 64, 97
1, 161794, Control_c, 0, 64, 96
1, 161809, Control_c, 0, 64, 96
1, 161823, Control_c, 0, 64, 95
1, 161838, Control_c, 0, 64, 95
1, 161853, Control_c, 0, 64, 94
1, 161866, Note_on_c, 0, 69, 41
1, 161868, Control_c, 0, 64, 93
1, 161883, Control_c, 0, 64, 92
1, 161897, Control_c, 0, 64, 91
1, 161897, Control_c, 0, 67, 113
1, 161912, Control_c, 0, 64, 88
1, 161925, Note_off_c, 0, 68, 35
1, 161927, Control_c, 0, 64, 83
1, 161941, Control_c, 0, 64, 76
1, 161956, Control_c, 0, 64, 67
1, 161971, Control_c, 0, 64, 56
1, 161986, Control_c, 0, 64, 39
1, 162001, Control_c, 0, 64, 12
1, 162023, Control_c, 0, 64, 16
1, 162038, Control_c, 0, 64, 37
1, 162053, Control_c, 0, 64, 54
1, 162068, Control_c, 0, 64, 63
1, 162068, Control_c, 0, 67, 112
1, 162083, Control_c, 0, 64, 67
1, 162097, Control_c, 0, 64, 71
1, 162097, Control_c, 0, 67, 112
1, 162099, Note_off_c, 0, 45, 50
1, 162112, Control_c, 0, 64, 77
1, 162112, Control_c, 0, 67, 111
1, 162127, Control_c, 0, 64, 81
1, 162142, Control_c, 0, 64, 83
1, 162142, Control_c, 0, 67, 111
1, 162158, Control_c, 0, 64, 84
1, 162173, Control_c, 0, 64, 85
1, 162173, Control_c, 0, 67, 110
1, 162187, Control_c, 0, 64, 86
1, 162187, Control_c, 0, 67, 110
1, 162202, Control_c, 0, 64, 87
1, 162217, Control_c, 0, 67, 110
1, 162232, Control_c, 0, 64, 87
1, 162320, Control_c, 0, 64, 88
1, 162424, Control_c, 0, 67, 111
1, 162445, Note_on_c, 0, 60, 25
1, 162447, Note_on_c, 0, 52, 32
1, 162468, Control_c, 0, 67, 111
1, 162483, Control_c, 0, 67, 112
1, 162498, Control_c, 0, 67, 112
1, 162504, Note_off_c, 0, 69, 39
1, 162513, Control_c, 0, 67, 113
1, 162527, Control_c, 0, 67, 113
1, 162542, Control_c, 0, 67, 114
1, 162557, Control_c, 0, 67, 115
1, 162572, Control_c, 0, 67, 115
1, 162587, Control_c, 0, 67, 116
1, 162602, Control_c, 0, 64, 87
1, 162602, Control_c, 0, 67, 117
1, 162617, Control_c, 0, 67, 117
1, 162632, Control_c, 0, 67, 118
1, 162663, Note_off_c, 0, 60, 35
1, 162676, Control_c, 0, 67, 118
1, 162691, Note_off_c, 0, 52, 38
1, 162720, Control_c, 0, 67, 118
1, 162802, Control_c, 0, 67, 117
1, 162831, Control_c, 0, 67, 117
1, 162891, Control_c, 0, 67, 116
1, 162920, Control_c, 0, 67, 116
1, 162980, Control_c, 0, 64, 87
1, 162980, Control_c, 0, 67, 115
1, 163069, Control_c, 0, 64, 86
1, 163069, Control_c, 0, 67, 115
1, 163114, Control_c, 0, 64, 86
1, 163114, Control_c, 0, 67, 114
1, 163158, Control_c, 0, 64, 85
1, 163188, Control_c, 0, 67, 114
1, 163217, Control_c, 0, 64, 85
1, 163247, Control_c, 0, 67, 113
1, 163291, Control_c, 0, 67, 113
1, 163350, Control_c, 0, 67, 112
1, 163425, Control_c, 0, 67, 112
1, 163484, Control_c, 0, 67, 111
1, 163521, Control_c, 0, 67, 111
1, 163565, Control_c, 0, 67, 110
1, 163594, Control_c, 0, 67, 110
1, 163603, Note_on_c, 0, 76, 49
1, 163639, Control_c, 0, 67, 109
1, 163654, Control_c, 0, 64, 84
1, 163654, Control_c, 0, 67, 109
1, 163666, Note_on_c, 0, 52, 31
1, 163673, Note_on_c, 0, 60, 15
1, 163684, Control_c, 0, 67, 108
1, 163803, Control_c, 0, 64, 84
1, 163818, Control_c, 0, 67, 108
1, 163852, Note_off_c, 0, 60, 37
1, 163878, Control_c, 0, 67, 108
1, 163966, Control_c, 0, 64, 83
1, 164011, Control_c, 0, 64, 83
1, 164055, Control_c, 0, 64, 82
1, 164070, Control_c, 0, 64, 82
1, 164099, Control_c, 0, 64, 81
1, 164144, Control_c, 0, 64, 81
1, 164173, Control_c, 0, 64, 80
1, 164184, Note_on_c, 0, 45, 31
1, 164188, Control_c, 0, 64, 80
1, 164217, Control_c, 0, 64, 78
1, 164230, Note_off_c, 0, 52, 26
1, 164232, Control_c, 0, 64, 74
1, 164247, Control_c, 0, 64, 66
1, 164269, Control_c, 0, 64, 55
1, 164284, Control_c, 0, 64, 36
1, 164284, Control_c, 0, 67, 108
1, 164298, Control_c, 0, 64, 25
1, 164313, Control_c, 0, 64, 38
1, 164313, Control_c, 0, 67, 107
1, 164328, Control_c, 0, 64, 58
1, 164343, Control_c, 0, 64, 65
1, 164343, Control_c, 0, 67, 107
1, 164358, Control_c, 0, 64, 68
1, 164372, Control_c, 0, 64, 71
1, 164387, Control_c, 0, 64, 73
1, 164387, Control_c, 0, 67, 106
1, 164390, Note_off_c, 0, 45, 46
1, 164402, Control_c, 0, 64, 76
1, 164417, Control_c, 0, 64, 78
1, 164432, Control_c, 0, 64, 79
1, 164462, Control_c, 0, 64, 79
1, 164491, Control_c, 0, 64, 80
1, 164491, Control_c, 0, 67, 107
1, 164506, Control_c, 0, 64, 80
1, 164506, Control_c, 0, 67, 107
1, 164626, Note_on_c, 0, 75, 45
1, 164685, Control_c, 0, 67, 107
1, 164700, Control_c, 0, 67, 106
1, 164721, Note_on_c, 0, 69, 43
1, 164751, Note_off_c, 0, 76, 29
1, 164761, Note_on_c, 0, 54, 27
1, 164761, Note_on_c, 0, 60, 23
1, 164798, Note_off_c, 0, 75, 57
1, 164842, Note_off_c, 0, 69, 55
1, 164877, Control_c, 0, 67, 107
1, 164907, Control_c, 0, 67, 107
1, 164960, Note_off_c, 0, 60, 37
1, 164972, Note_off_c, 0, 54, 40
1, 164995, Control_c, 0, 67, 108
1, 165107, Control_c, 0, 67, 108
1, 165165, Control_c, 0, 67, 109
1, 165285, Control_c, 0, 67, 109
1, 165389, Control_c, 0, 67, 109
1, 165434, Control_c, 0, 64, 80
1, 165478, Control_c, 0, 64, 79
1, 165493, Note_on_c, 0, 63, 50
1, 165508, Control_c, 0, 64, 79
1, 165523, Control_c, 0, 67, 108
1, 165536, Note_on_c, 0, 60, 28
1, 165541, Note_on_c, 0, 54, 22
1, 165567, Control_c, 0, 64, 78
1, 165685, Control_c, 0, 64, 78
1, 165700, Control_c, 0, 67, 109
1, 165717, Note_off_c, 0, 60, 38
1, 165753, Note_off_c, 0, 54, 41
1, 165930, Control_c, 0, 64, 77
1, 165959, Control_c, 0, 64, 77
1, 165979, Note_on_c, 0, 45, 30
1, 165988, Control_c, 0, 64, 76
1, 166003, Control_c, 0, 64, 75
1, 166018, Control_c, 0, 64, 74
1, 166033, Control_c, 0, 64, 69
1, 166038, Note_on_c, 0, 75, 42
1, 166048, Control_c, 0, 64, 62
1, 166063, Control_c, 0, 64, 47
1, 166068, Note_on_c, 0, 69, 34
1, 166078, Note_off_c, 0, 63, 60
1, 166078, Control_c, 0, 64, 0
1, 166107, Control_c, 0, 67, 108
1, 166122, Control_c, 0, 64, 40
1, 166138, Control_c, 0, 64, 57
1, 166138, Control_c, 0, 67, 108
1, 166153, Control_c, 0, 64, 64
1, 166153, Control_c, 0, 67, 107
1, 166164, Note_off_c, 0, 45, 59
1, 166167, Control_c, 0, 64, 67
1, 166167, Control_c, 0, 67, 107
1, 166182, Control_c, 0, 64, 70
1, 166197, Control_c, 0, 64, 73
1, 166197, Control_c, 0, 67, 106
1, 166212, Control_c, 0, 64, 76
1, 166227, Control_c, 0, 64, 78
1, 166241, Control_c, 0, 64, 79
1, 166375, Control_c, 0, 64, 79
1, 166470, Note_on_c, 0, 60, 33
1, 166475, Note_on_c, 0, 53, 30
1, 166477, Control_c, 0, 64, 79
1, 166543, Note_off_c, 0, 53, 48
1, 166552, Note_off_c, 0, 60, 39
1, 166604, Control_c, 0, 67, 107
1, 166633, Control_c, 0, 67, 107
1, 166663, Control_c, 0, 67, 108
1, 166722, Control_c, 0, 67, 108
1, 166796, Control_c, 0, 67, 109
1, 166856, Control_c, 0, 67, 109
1, 167205, Note_on_c, 0, 60, 34
1, 167225, Note_on_c, 0, 53, 30
1, 167228, Control_c, 0, 67, 109
1, 167309, Control_c, 0, 67, 108
1, 167353, Note_off_c, 0, 60, 37
1, 167428, Control_c, 0, 67, 108
1, 167473, Note_off_c, 0, 53, 0
1, 167509, Poly_aftertouch_c, 0, 53, 127
1, 167575, Control_c, 0, 64, 78
1, 167590, Control_c, 0, 64, 76
1, 167590, Control_c, 0, 67, 107
1, 167605, Control_c, 0, 64, 70
1, 167610, Note_on_c, 0, 45, 35
1, 167620, Control_c, 0, 64, 62
1, 167626, Note_off_c, 0, 69, 43
1, 167630, Poly_aftertouch_c, 0, 53, 0
1, 167634, Control_c, 0, 64, 43
1, 167649, Control_c, 0, 64, 27
1, 167664, Control_c, 0, 64, 35
1, 167679, Control_c, 0, 64, 53
1, 167679, Control_c, 0, 67, 107
1, 167694, Control_c, 0, 64, 62
1, 167708, Control_c, 0, 64, 67
1, 167723, Control_c, 0, 64, 70
1, 167723, Control_c, 0, 67, 106
1, 167725, Note_off_c, 0, 45, 59
1, 167739, Control_c, 0, 64, 74
1, 167754, Control_c, 0, 64, 77
1, 167769, Control_c, 0, 64, 80
1, 167783, Control_c, 0, 64, 81
1, 167783, Control_c, 0, 67, 106
1, 167798, Control_c, 0, 64, 82
1, 167828, Control_c, 0, 64, 83
1, 167857, Control_c, 0, 64, 83
1, 167857, Control_c, 0, 67, 106
1, 167905, Note_on_c, 0, 74, 53
1, 167974, Note_on_c, 0, 68, 55
1, 167976, Control_c, 0, 67, 107
1, 167994, Note_on_c, 0, 59, 38
1, 167995, Note_on_c, 0, 53, 33
1, 168046, Note_off_c, 0, 74, 58
1, 168061, Note_off_c, 0, 75, 35
1, 168069, Note_off_c, 0, 68, 64
1, 168072, Control_c, 0, 64, 84
1, 168087, Control_c, 0, 64, 84
1, 168102, Control_c, 0, 64, 85
1, 168117, Control_c, 0, 64, 85
1, 168132, Control_c, 0, 64, 86
1, 168146, Control_c, 0, 64, 87
1, 168161, Control_c, 0, 64, 88
1, 168176, Control_c, 0, 64, 88
1, 168206, Control_c, 0, 67, 107
1, 168236, Control_c, 0, 64, 89
1, 168249, Note_off_c, 0, 53, 38
1, 168255, Note_off_c, 0, 59, 41
1, 168265, Control_c, 0, 64, 89
1, 168280, Control_c, 0, 67, 108
1, 168486, Note_on_c, 0, 59, 37
1, 168501, Note_on_c, 0, 53, 29
1, 168583, Note_on_c, 0, 62, 64
1, 168653, Note_off_c, 0, 59, 48
1, 168742, Note_off_c, 0, 53, 0
1, 168762, Control_c, 0, 67, 108
1, 168786, Poly_aftertouch_c, 0, 53, 127
1, 168836, Control_c, 0, 64, 89
1, 168854, Note_on_c, 0, 45, 35
1, 168881, Control_c, 0, 64, 88
1, 168895, Control_c, 0, 64, 88
1, 168910, Control_c, 0, 64, 87
1, 168925, Control_c, 0, 64, 84
1, 168929, Poly_aftertouch_c, 0, 53, 0
1, 168940, Control_c, 0, 64, 78
1, 168955, Control_c, 0, 64, 68
1, 168958, Note_on_c, 0, 74, 60
1, 168969, Control_c, 0, 64, 57
1, 168984, Control_c, 0, 64, 33
1, 168984, Control_c, 0, 67, 108
1, 168996, Note_on_c, 0, 68, 48
1, 168999, Control_c, 0, 64, 0
1, 169014, Control_c, 0, 67, 107
1, 169029, Control_c, 0, 67, 107
1, 169035, Note_off_c, 0, 62, 40
1, 169044, Control_c, 0, 64, 38
1, 169044, Control_c, 0, 67, 106
1, 169058, Control_c, 0, 64, 56
1, 169058, Control_c, 0, 67, 106
1, 169073, Control_c, 0, 64, 64
1, 169073, Control_c, 0, 67, 105
1, 169088, Control_c, 0, 64, 68
1, 169088, Control_c, 0, 67, 105
1, 169103, Control_c, 0, 64, 72
1, 169118, Control_c, 0, 64, 76
1, 169120, Note_off_c, 0, 45, 40
1, 169132, Control_c, 0, 64, 80
1, 169132, Control_c, 0, 67, 104
1, 169147, Control_c, 0, 64, 83
1, 169147, Control_c, 0, 67, 103
1, 169162, Control_c, 0, 64, 86
1, 169162, Control_c, 0, 67, 102
1, 169177, Control_c, 0, 64, 88
1, 169192, Control_c, 0, 64, 90
1, 169206, Control_c, 0, 64, 91
1, 169221, Control_c, 0, 64, 92
1, 169236, Control_c, 0, 67, 102
1, 169251, Control_c, 0, 67, 101
1, 169297, Note_on_c, 0, 58, 42
1, 169306, Note_on_c, 0, 53, 35
1, 169343, Note_off_c, 0, 58, 62
1, 169354, Note_off_c, 0, 53, 61
1, 169385, Control_c, 0, 67, 102
1, 169400, Control_c, 0, 67, 102
1, 169429, Control_c, 0, 67, 103
1, 169444, Control_c, 0, 67, 103
1, 169459, Control_c, 0, 67, 104
1, 169489, Control_c, 0, 67, 104
1, 169526, Control_c, 0, 67, 105
1, 169585, Control_c, 0, 67, 105
1, 169600, Control_c, 0, 67, 106
1, 169615, Control_c, 0, 67, 106
1, 169659, Control_c, 0, 67, 107
1, 169689, Control_c, 0, 67, 107
1, 169881, Control_c, 0, 67, 108
1, 169911, Control_c, 0, 67, 108
1, 169929, Note_on_c, 0, 58, 49
1, 169941, Note_on_c, 0, 53, 41
1, 169955, Control_c, 0, 67, 109
1, 169985, Control_c, 0, 67, 109
1, 170015, Control_c, 0, 67, 110
1, 170052, Note_off_c, 0, 53, 60
1, 170059, Control_c, 0, 67, 110
1, 170134, Note_off_c, 0, 58, 59
1, 170134, Control_c, 0, 67, 110
1, 170207, Control_c, 0, 67, 109
1, 170237, Control_c, 0, 64, 87
1, 170245, Note_on_c, 0, 45, 51
1, 170259, Control_c, 0, 64, 74
1, 170274, Control_c, 0, 64, 62
1, 170274, Control_c, 0, 67, 109
1, 170289, Control_c, 0, 64, 43
1, 170304, Control_c, 0, 64, 23
1, 170319, Control_c, 0, 64, 36
1, 170319, Control_c, 0, 67, 108
1, 170333, Control_c, 0, 64, 55
1, 170333, Control_c, 0, 67, 108
1, 170348, Control_c, 0, 64, 64
1, 170348, Control_c, 0, 67, 107
1, 170358, Note_off_c, 0, 68, 61
1, 170363, Control_c, 0, 64, 68
1, 170378, Control_c, 0, 64, 73
1, 170381, Note_off_c, 0, 45, 64
1, 170392, Control_c, 0, 64, 78
1, 170407, Control_c, 0, 64, 81
1, 170407, Control_c, 0, 67, 107
1, 170422, Control_c, 0, 64, 82
1, 170437, Control_c, 0, 64, 84
1, 170466, Control_c, 0, 64, 84
1, 170481, Control_c, 0, 64, 85
1, 170496, Control_c, 0, 64, 85
1, 170511, Control_c, 0, 64, 86
1, 170519, Note_on_c, 0, 73, 59
1, 170570, Control_c, 0, 64, 86
1, 170588, Note_on_c, 0, 67, 66
1, 170633, Note_off_c, 0, 74, 57
1, 170644, Control_c, 0, 67, 106
1, 170648, Note_on_c, 0, 52, 40
1, 170657, Note_on_c, 0, 58, 30
1, 170700, Note_off_c, 0, 73, 63
1, 170704, Control_c, 0, 64, 87
1, 170723, Note_off_c, 0, 67, 64
1, 170808, Control_c, 0, 64, 87
1, 170868, Note_off_c, 0, 58, 48
1, 170880, Note_off_c, 0, 52, 43
1, 171009, Control_c, 0, 67, 106
1, 171037, Note_on_c, 0, 52, 41
1, 171038, Note_on_c, 0, 58, 39
1, 171054, Control_c, 0, 67, 105
1, 171140, Note_on_c, 0, 61, 64
1, 171221, Note_off_c, 0, 58, 34
1, 171232, Control_c, 0, 67, 105
1, 171351, Control_c, 0, 64, 87
1, 171482, Note_on_c, 0, 45, 37
1, 171542, Control_c, 0, 64, 86
1, 171572, Control_c, 0, 64, 86
1, 171582, Note_off_c, 0, 52, 34
1, 171616, Control_c, 0, 64, 85
1, 171624, Note_on_c, 0, 72, 51
1, 171631, Control_c, 0, 64, 85
1, 171646, Control_c, 0, 64, 84
1, 171646, Control_c, 0, 67, 105
1, 171661, Control_c, 0, 64, 83
1, 171670, Note_on_c, 0, 66, 47
1, 171676, Control_c, 0, 64, 81
1, 171691, Control_c, 0, 64, 78
1, 171691, Control_c, 0, 67, 106
1, 171705, Control_c, 0, 64, 73
1, 171720, Control_c, 0, 64, 65
1, 171736, Control_c, 0, 64, 54
1, 171736, Control_c, 0, 67, 106
1, 171759, Control_c, 0, 64, 29
1, 171762, Note_off_c, 0, 61, 54
1, 171774, Control_c, 0, 64, 0
1, 171832, Control_c, 0, 64, 23
1, 171847, Control_c, 0, 64, 47
1, 171847, Control_c, 0, 67, 106
1, 171862, Control_c, 0, 64, 62
1, 171877, Control_c, 0, 64, 66
1, 171892, Control_c, 0, 64, 68
1, 171892, Control_c, 0, 67, 105
1, 171906, Control_c, 0, 64, 72
1, 171921, Control_c, 0, 64, 76
1, 171936, Control_c, 0, 64, 79
1, 171936, Control_c, 0, 67, 105
1, 171951, Control_c, 0, 64, 81
1, 171966, Control_c, 0, 64, 82
1, 171980, Control_c, 0, 64, 83
1, 171995, Control_c, 0, 64, 84
1, 172000, Note_on_c, 0, 57, 37
1, 172023, Note_on_c, 0, 51, 22
1, 172039, Control_c, 0, 64, 84
1, 172114, Note_off_c, 0, 45, 40
1, 172140, Note_off_c, 0, 57, 40
1, 172150, Note_off_c, 0, 51, 47
1, 172173, Control_c, 0, 67, 105
1, 172247, Control_c, 0, 67, 106
1, 172321, Control_c, 0, 67, 106
1, 172380, Control_c, 0, 67, 107
1, 172424, Control_c, 0, 67, 107
1, 172655, Control_c, 0, 67, 107
1, 172826, Note_on_c, 0, 57, 33
1, 172826, Note_on_c, 0, 51, 30
1, 172961, Note_off_c, 0, 66, 42
1, 173026, Control_c, 0, 64, 84
1, 173123, Note_off_c, 0, 72, 41
1, 173188, Control_c, 0, 64, 83
1, 173282, Note_on_c, 0, 45, 28
1, 173285, Control_c, 0, 64, 83
1, 173285, Control_c, 0, 67, 106
1, 173345, Control_c, 0, 64, 82
1, 173387, Note_on_c, 0, 71, 36
1, 173404, Control_c, 0, 64, 82
1, 173410, Note_on_c, 0, 65, 39
1, 173419, Control_c, 0, 64, 81
1, 173433, Note_off_c, 0, 57, 41
1, 173434, Control_c, 0, 64, 80
1, 173449, Control_c, 0, 64, 77
1, 173464, Control_c, 0, 64, 71
1, 173478, Control_c, 0, 64, 61
1, 173493, Control_c, 0, 64, 46
1, 173500, Note_off_c, 0, 51, 36
1, 173508, Control_c, 0, 64, 12
1, 173508, Control_c, 0, 67, 107
1, 173523, Control_c, 0, 64, 0
1, 173538, Control_c, 0, 64, 15
1, 173552, Control_c, 0, 64, 40
1, 173567, Control_c, 0, 64, 58
1, 173582, Control_c, 0, 64, 65
1, 173582, Control_c, 0, 67, 106
1, 173597, Control_c, 0, 64, 68
1, 173611, Control_c, 0, 64, 70
1, 173626, Control_c, 0, 64, 72
1, 173641, Control_c, 0, 64, 74
1, 173656, Control_c, 0, 64, 75
1, 173671, Control_c, 0, 64, 77
1, 173685, Control_c, 0, 64, 77
1, 173730, Control_c, 0, 64, 78
1, 173764, Note_off_c, 0, 71, 40
1, 173792, Note_on_c, 0, 72, 39
1, 173869, Note_off_c, 0, 65, 38
1, 174047, Note_off_c, 0, 72, 32
1, 174048, Control_c, 0, 64, 77
1, 174050, Note_on_c, 0, 74, 45
1, 174060, Note_on_c, 0, 65, 35
1, 174063, Control_c, 0, 64, 74
1, 174078, Control_c, 0, 64, 69
1, 174086, Note_on_c, 0, 50, 28
1, 174093, Control_c, 0, 64, 63
1, 174096, Note_on_c, 0, 57, 28
1, 174108, Control_c, 0, 64, 52
1, 174108, Control_c, 0, 67, 107
1, 174123, Control_c, 0, 64, 33
1, 174138, Control_c, 0, 64, 0
1, 174153, Control_c, 0, 64, 22
1, 174168, Control_c, 0, 64, 44
1, 174183, Control_c, 0, 64, 60
1, 174198, Control_c, 0, 64, 65
1, 174212, Control_c, 0, 64, 67
1, 174212, Control_c, 0, 67, 106
1, 174227, Control_c, 0, 64, 69
1, 174242, Control_c, 0, 64, 71
1, 174257, Control_c, 0, 64, 73
1, 174272, Control_c, 0, 64, 75
1, 174287, Control_c, 0, 64, 76
1, 174289, Note_off_c, 0, 57, 53
1, 174296, Note_off_c, 0, 74, 60
1, 174305, Note_off_c, 0, 65, 51
1, 174310, Note_off_c, 0, 50, 47
1, 174331, Control_c, 0, 64, 76
1, 174346, Control_c, 0, 64, 77
1, 174405, Control_c, 0, 64, 77
1, 174420, Control_c, 0, 67, 106
1, 174447, Note_on_c, 0, 65, 35
1, 174448, Note_on_c, 0, 69, 50
1, 174468, Note_on_c, 0, 50, 20
1, 174470, Note_on_c, 0, 57, 29
1, 174597, Control_c, 0, 67, 106
1, 174609, Note_off_c, 0, 45, 39
1, 174657, Control_c, 0, 64, 77
1, 174701, Control_c, 0, 67, 107
1, 174727, Note_off_c, 0, 65, 46
1, 174764, Note_off_c, 0, 57, 29
1, 174812, Note_on_c, 0, 45, 32
1, 174856, Control_c, 0, 64, 76
1, 174871, Control_c, 0, 64, 74
1, 174886, Note_off_c, 0, 69, 51
1, 174886, Control_c, 0, 64, 70
1, 174890, Note_on_c, 0, 72, 46
1, 174901, Control_c, 0, 64, 65
1, 174911, Note_off_c, 0, 50, 17
1, 174916, Control_c, 0, 64, 55
1, 174923, Note_on_c, 0, 64, 35
1, 174931, Control_c, 0, 64, 31
1, 174946, Control_c, 0, 64, 0
1, 174976, Control_c, 0, 64, 19
1, 174991, Control_c, 0, 64, 45
1, 175005, Control_c, 0, 64, 59
1, 175005, Control_c, 0, 67, 106
1, 175007, Note_off_c, 0, 45, 59
1, 175020, Control_c, 0, 64, 65
1, 175035, Control_c, 0, 64, 67
1, 175050, Control_c, 0, 64, 71
1, 175065, Control_c, 0, 64, 74
1, 175080, Control_c, 0, 64, 77
1, 175095, Control_c, 0, 64, 79
1, 175110, Control_c, 0, 64, 80
1, 175124, Control_c, 0, 64, 82
1, 175139, Control_c, 0, 64, 83
1, 175154, Control_c, 0, 64, 84
1, 175169, Control_c, 0, 64, 85
1, 175198, Control_c, 0, 64, 85
1, 175213, Control_c, 0, 64, 86
1, 175228, Control_c, 0, 64, 87
1, 175243, Control_c, 0, 64, 88
1, 175257, Control_c, 0, 64, 89
1, 175272, Control_c, 0, 64, 91
1, 175280, Note_off_c, 0, 64, 59
1, 175283, Note_off_c, 0, 72, 57
1, 175287, Control_c, 0, 64, 93
1, 175290, Note_on_c, 0, 52, 47
1, 175291, Note_on_c, 0, 60, 39
1, 175302, Control_c, 0, 64, 95
1, 175302, Control_c, 0, 67, 106
1, 175317, Control_c, 0, 64, 98
1, 175331, Control_c, 0, 64, 101
1, 175346, Control_c, 0, 64, 104
1, 175346, Control_c, 0, 67, 105
1, 175361, Control_c, 0, 64, 109
1, 175375, Control_c, 0, 64, 115
1, 175375, Control_c, 0, 67, 105
1, 175390, Control_c, 0, 64, 124
1, 175390, Control_c, 0, 67, 104
1, 175405, Control_c, 0, 64, 127
1, 175405, Control_c, 0, 67, 103
1, 175435, Control_c, 0, 67, 103
1, 175464, Control_c, 0, 67, 102
1, 175479, Control_c, 0, 67, 101
1, 175494, Control_c, 0, 67, 101
1, 175551, Note_off_c, 0, 52, 51
1, 175554, Note_off_c, 0, 60, 53
1, 175590, Control_c, 0, 67, 100
1, 175649, Control_c, 0, 67, 100
1, 175664, Control_c, 0, 67, 98
1, 175679, Control_c, 0, 67, 98
1, 175739, Control_c, 0, 67, 97
1, 175872, Control_c, 0, 67, 97
1, 175915, Note_on_c, 0, 76, 70
1, 175946, Control_c, 0, 67, 96
1, 175961, Control_c, 0, 67, 95
1, 175989, Note_on_c, 0, 60, 32
1, 175991, Note_on_c, 0, 52, 35
1, 176005, Control_c, 0, 67, 95
1, 176151, Note_off_c, 0, 60, 35
1, 176250, Control_c, 0, 67, 95
1, 176294, Control_c, 0, 67, 96
1, 176323, Note_on_c, 0, 45, 51
1, 176324, Control_c, 0, 64, 117
1, 176324, Control_c, 0, 67, 96
1, 176339, Control_c, 0, 64, 93
1, 176353, Control_c, 0, 64, 75
1, 176353, Control_c, 0, 67, 97
1, 176368, Control_c, 0, 64, 60
1, 176369, Note_off_c, 0, 52, 41
1, 176383, Control_c, 0, 64, 34
1, 176397, Control_c, 0, 64, 39
1, 176412, Control_c, 0, 64, 58
1, 176427, Control_c, 0, 64, 67
1, 176442, Control_c, 0, 64, 73
1, 176454, Note_off_c, 0, 45, 64
1, 176457, Control_c, 0, 64, 83
1, 176472, Control_c, 0, 64, 93
1, 176487, Control_c, 0, 64, 101
1, 176502, Control_c, 0, 64, 109
1, 176517, Control_c, 0, 64, 116
1, 176532, Control_c, 0, 64, 120
1, 176547, Control_c, 0, 64, 122
1, 176562, Control_c, 0, 64, 124
1, 176591, Control_c, 0, 67, 97
1, 176606, Control_c, 0, 67, 98
1, 176612, Note_on_c, 0, 75, 63
1, 176636, Control_c, 0, 67, 98
1, 176666, Control_c, 0, 67, 99
1, 176695, Control_c, 0, 67, 99
1, 176697, Note_on_c, 0, 69, 66
1, 176710, Control_c, 0, 67, 100
1, 176740, Control_c, 0, 67, 100
1, 176741, Note_off_c, 0, 75, 65
1, 176743, Note_on_c, 0, 60, 44
1, 176747, Note_on_c, 0, 54, 38
1, 176769, Control_c, 0, 67, 101
1, 176788, Note_off_c, 0, 76, 21
1, 176799, Control_c, 0, 67, 101
1, 176813, Control_c, 0, 67, 102
1, 176828, Control_c, 0, 67, 102
1, 176843, Control_c, 0, 67, 103
1, 176858, Control_c, 0, 67, 103
1, 176873, Control_c, 0, 67, 104
1, 176888, Control_c, 0, 67, 105
1, 176901, Control_c, 0, 67, 106
1, 176915, Note_off_c, 0, 60, 54
1, 176916, Control_c, 0, 67, 107
1, 176931, Control_c, 0, 67, 108
1, 176946, Control_c, 0, 67, 109
1, 176961, Control_c, 0, 67, 110
1, 176966, Note_off_c, 0, 54, 37
1, 176976, Control_c, 0, 67, 112
1, 176998, Control_c, 0, 67, 113
1, 177013, Control_c, 0, 67, 114
1, 177027, Control_c, 0, 67, 115
1, 177042, Control_c, 0, 67, 116
1, 177077, Note_off_c, 0, 69, 42
1, 177146, Control_c, 0, 67, 116
1, 177190, Control_c, 0, 67, 116
1, 177205, Control_c, 0, 64, 122
1, 177220, Note_on_c, 0, 54, 34
1, 177224, Note_on_c, 0, 60, 34
1, 177250, Control_c, 0, 67, 115
1, 177294, Control_c, 0, 67, 115
1, 177301, Note_on_c, 0, 81, 60
1, 177309, Control_c, 0, 67, 114
1, 177361, Note_off_c, 0, 81, 64
1, 177414, Control_c, 0, 67, 115
1, 177503, Control_c, 0, 67, 115
1, 177564, Note_off_c, 0, 60, 38
1, 177575, Note_on_c, 0, 63, 65
1, 177656, Note_off_c, 0, 54, 54
1, 177777, Control_c, 0, 64, 120
1, 177792, Control_c, 0, 64, 119
1, 177807, Control_c, 0, 64, 117
1, 177822, Control_c, 0, 64, 115
1, 177837, Control_c, 0, 64, 114
1, 177851, Control_c, 0, 64, 113
1, 177866, Control_c, 0, 64, 112
1, 177881, Control_c, 0, 64, 111
1, 177888, Note_on_c, 0, 45, 34
1, 177896, Control_c, 0, 64, 110
1, 177911, Control_c, 0, 64, 109
1, 177925, Control_c, 0, 64, 109
1, 177940, Control_c, 0, 64, 108
1, 177955, Control_c, 0, 64, 107
1, 177969, Control_c, 0, 64, 106
1, 177984, Control_c, 0, 64, 105
1, 177999, Control_c, 0, 64, 105
1, 178014, Control_c, 0, 64, 104
1, 178014, Control_c, 0, 67, 116
1, 178029, Control_c, 0, 64, 104
1, 178043, Control_c, 0, 64, 102
1, 178058, Control_c, 0, 64, 99
1, 178073, Control_c, 0, 64, 92
1, 178073, Control_c, 0, 67, 116
1, 178081, Note_on_c, 0, 75, 33
1, 178085, Note_on_c, 0, 69, 50
1, 178088, Control_c, 0, 64, 81
1, 178103, Control_c, 0, 64, 65
1, 178103, Control_c, 0, 67, 117
1, 178119, Control_c, 0, 64, 46
1, 178123, Note_off_c, 0, 63, 61
1, 178134, Control_c, 0, 64, 0
1, 178134, Control_c, 0, 67, 117
1, 178178, Control_c, 0, 64, 22
1, 178178, Control_c, 0, 67, 117
1, 178192, Control_c, 0, 64, 50
1, 178207, Control_c, 0, 64, 63
1, 178207, Control_c, 0, 67, 116
1, 178222, Control_c, 0, 64, 69
1, 178233, Note_off_c, 0, 45, 53
1, 178237, Control_c, 0, 64, 74
1, 178237, Control_c, 0, 67, 116
1, 178252, Control_c, 0, 64, 80
1, 178266, Control_c, 0, 64, 84
1, 178266, Control_c, 0, 67, 115
1, 178281, Control_c, 0, 64, 88
1, 178296, Control_c, 0, 64, 90
1, 178311, Control_c, 0, 64, 92
1, 178326, Control_c, 0, 64, 93
1, 178341, Control_c, 0, 64, 93
1, 178341, Control_c, 0, 67, 116
1, 178356, Control_c, 0, 67, 116
1, 178371, Control_c, 0, 67, 117
1, 178400, Control_c, 0, 67, 118
1, 178415, Control_c, 0, 67, 118
1, 178430, Control_c, 0, 67, 119
1, 178445, Control_c, 0, 67, 121
1, 178460, Control_c, 0, 67, 121
1, 178474, Control_c, 0, 67, 122
1, 178496, Control_c, 0, 67, 122
1, 178511, Control_c, 0, 67, 123
1, 178523, Note_on_c, 0, 60, 31
1, 178526, Note_on_c, 0, 53, 28
1, 178585, Control_c, 0, 67, 122
1, 178605, Note_off_c, 0, 53, 56
1, 178630, Control_c, 0, 67, 122
1, 178633, Note_off_c, 0, 60, 35
1, 178866, Control_c, 0, 67, 121
1, 178911, Control_c, 0, 67, 121
1, 178942, Control_c, 0, 67, 120
1, 178957, Control_c, 0, 67, 120
1, 178971, Control_c, 0, 67, 119
1, 179001, Control_c, 0, 67, 119
1, 179015, Control_c, 0, 64, 93
1, 179045, Control_c, 0, 67, 118
1, 179075, Control_c, 0, 64, 92
1, 179089, Control_c, 0, 67, 118
1, 179164, Control_c, 0, 67, 117
1, 179179, Control_c, 0, 64, 92
1, 179194, Control_c, 0, 67, 117
1, 179223, Control_c, 0, 67, 116
1, 179245, Control_c, 0, 64, 91
1, 179275, Control_c, 0, 67, 116
1, 179290, Control_c, 0, 64, 91
1, 179304, Control_c, 0, 67, 115
1, 179334, Control_c, 0, 64, 90
1, 179364, Control_c, 0, 64, 90
1, 179364, Control_c, 0, 67, 115
1, 179393, Control_c, 0, 64, 89
1, 179393, Control_c, 0, 67, 114
1, 179423, Control_c, 0, 64, 89
1, 179436, Note_on_c, 0, 53, 30
1, 179440, Note_on_c, 0, 60, 35
1, 179453, Control_c, 0, 64, 88
1, 179468, Control_c, 0, 64, 88
1, 179468, Control_c, 0, 67, 114
1, 179527, Control_c, 0, 64, 87
1, 179584, Note_off_c, 0, 60, 33
1, 179645, Control_c, 0, 67, 113
1, 179689, Control_c, 0, 67, 113
1, 179697, Note_off_c, 0, 53, 0
1, 179720, Control_c, 0, 67, 112
1, 179750, Control_c, 0, 67, 112
1, 179760, Poly_aftertouch_c, 0, 53, 0
1, 179765, Control_c, 0, 67, 111
1, 179778, Note_on_c, 0, 45, 37
1, 179794, Control_c, 0, 64, 87
1, 179809, Control_c, 0, 64, 81
1, 179824, Control_c, 0, 64, 70
1, 179838, Control_c, 0, 64, 57
1, 179849, Note_off_c, 0, 69, 51
1, 179853, Control_c, 0, 64, 36
1, 179868, Control_c, 0, 64, 34
1, 179868, Control_c, 0, 67, 111
1, 179883, Control_c, 0, 64, 49
1, 179898, Control_c, 0, 64, 61
1, 179912, Control_c, 0, 64, 66
1, 179927, Control_c, 0, 64, 70
1, 179942, Control_c, 0, 64, 75
1, 179957, Control_c, 0, 64, 78
1, 179966, Note_off_c, 0, 45, 47
1, 179972, Control_c, 0, 64, 81
1, 179994, Control_c, 0, 64, 82
1, 180009, Control_c, 0, 64, 83
1, 180068, Control_c, 0, 64, 83
1, 180068, Control_c, 0, 67, 111
1, 180085, Note_on_c, 0, 74, 46
1, 180171, Control_c, 0, 67, 111
1, 180183, Note_off_c, 0, 75, 36
1, 180194, Note_on_c, 0, 68, 45
1, 180251, Note_on_c, 0, 53, 35
1, 180259, Note_on_c, 0, 59, 28
1, 180330, Note_off_c, 0, 68, 63
1, 180333, Note_off_c, 0, 74, 34
1, 180409, Control_c, 0, 67, 111
1, 180453, Control_c, 0, 67, 111
1, 180474, Poly_aftertouch_c, 0, 74, 127
1, 180517, Note_off_c, 0, 59, 41
1, 180525, Note_off_c, 0, 53, 38
1, 180597, Note_on_c, 0, 81, 42
1, 180602, Control_c, 0, 67, 110
1, 180642, Note_off_c, 0, 81, 47
1, 180657, Poly_aftertouch_c, 0, 74, 0
1, 180771, Note_on_c, 0, 53, 21
1, 180783, Note_on_c, 0, 59, 24
1, 181020, Note_off_c, 0, 59, 35
1, 181024, Note_on_c, 0, 62, 59
1, 181083, Control_c, 0, 67, 110
1, 181280, Note_off_c, 0, 53, 31
1, 181322, Note_on_c, 0, 45, 34
1, 181427, Note_off_c, 0, 62, 35
1, 181470, Control_c, 0, 64, 83
1, 181522, Control_c, 0, 64, 82
1, 181551, Control_c, 0, 64, 82
1, 181553, Note_on_c, 0, 68, 50
1, 181563, Note_on_c, 0, 74, 45
1, 181566, Control_c, 0, 64, 81
1, 181581, Control_c, 0, 64, 79
1, 181596, Control_c, 0, 64, 74
1, 181611, Control_c, 0, 64, 66
1, 181625, Control_c, 0, 64, 53
1, 181640, Control_c, 0, 64, 30
1, 181655, Control_c, 0, 64, 0
1, 181670, Control_c, 0, 64, 24
1, 181685, Control_c, 0, 64, 46
1, 181699, Control_c, 0, 64, 59
1, 181714, Control_c, 0, 64, 66
1, 181722, Note_off_c, 0, 45, 41
1, 181729, Control_c, 0, 64, 70
1, 181744, Control_c, 0, 64, 74
1, 181759, Control_c, 0, 64, 78
1, 181773, Control_c, 0, 64, 80
1, 181788, Control_c, 0, 64, 81
1, 181803, Control_c, 0, 64, 81
1, 181817, Control_c, 0, 64, 82
1, 181936, Note_on_c, 0, 53, 30
1, 181942, Note_on_c, 0, 58, 24
1, 181981, Control_c, 0, 67, 110
1, 182031, Note_off_c, 0, 53, 49
1, 182043, Note_off_c, 0, 58, 39
1, 182160, Control_c, 0, 67, 111
1, 182684, Note_off_c, 0, 68, 32
1, 182818, Control_c, 0, 67, 110
1, 182823, Note_on_c, 0, 58, 22
1, 182825, Note_on_c, 0, 53, 30
1, 182908, Control_c, 0, 67, 111
1, 182961, Note_off_c, 0, 53, 55
1, 182999, Note_off_c, 0, 58, 40
1, 183063, Control_c, 0, 67, 110
1, 183204, Note_on_c, 0, 45, 35
1, 183212, Control_c, 0, 64, 80
1, 183227, Control_c, 0, 64, 73
1, 183242, Control_c, 0, 64, 64
1, 183256, Control_c, 0, 64, 50
1, 183271, Control_c, 0, 64, 40
1, 183286, Control_c, 0, 64, 52
1, 183301, Control_c, 0, 64, 63
1, 183316, Control_c, 0, 64, 68
1, 183316, Control_c, 0, 67, 111
1, 183330, Control_c, 0, 64, 75
1, 183345, Control_c, 0, 64, 81
1, 183360, Control_c, 0, 64, 83
1, 183372, Note_off_c, 0, 45, 52
1, 183375, Control_c, 0, 64, 85
1, 183375, Control_c, 0, 67, 111
1, 183389, Control_c, 0, 64, 86
1, 183404, Control_c, 0, 67, 112
1, 183419, Control_c, 0, 67, 112
1, 183434, Control_c, 0, 67, 113
1, 183463, Control_c, 0, 64, 86
1, 183463, Control_c, 0, 67, 113
1, 183508, Control_c, 0, 67, 114
1, 183537, Note_on_c, 0, 73, 41
1, 183582, Control_c, 0, 67, 114
1, 183591, Note_off_c, 0, 74, 31
1, 183611, Control_c, 0, 64, 86
1, 183611, Control_c, 0, 67, 115
1, 183638, Note_on_c, 0, 67, 45
1, 183667, Note_on_c, 0, 58, 18
1, 183671, Control_c, 0, 67, 115
1, 183674, Note_on_c, 0, 52, 32
1, 183686, Note_off_c, 0, 73, 55
1, 183798, Control_c, 0, 67, 115
1, 183823, Note_off_c, 0, 67, 37
1, 183827, Control_c, 0, 67, 114
1, 183872, Control_c, 0, 67, 114
1, 183901, Control_c, 0, 67, 113
1, 183909, Note_off_c, 0, 58, 39
1, 183931, Control_c, 0, 67, 113
1, 183951, Note_off_c, 0, 52, 38
1, 183975, Control_c, 0, 67, 112
1, 184020, Control_c, 0, 67, 112
1, 184049, Note_on_c, 0, 81, 36
1, 184112, Note_off_c, 0, 81, 63
1, 184138, Control_c, 0, 67, 111
1, 184257, Control_c, 0, 67, 112
1, 184306, Note_on_c, 0, 58, 25
1, 184313, Note_on_c, 0, 52, 32
1, 184360, Control_c, 0, 67, 111
1, 184419, Control_c, 0, 67, 112
1, 184507, Note_on_c, 0, 61, 55
1, 184535, Note_off_c, 0, 58, 39
1, 184547, Control_c, 0, 67, 111
1, 184872, Control_c, 0, 67, 111
1, 184885, Note_on_c, 0, 45, 33
1, 184947, Control_c, 0, 64, 85
1, 184952, Note_off_c, 0, 45, 0
1, 184976, Control_c, 0, 64, 85
1, 184984, Note_off_c, 0, 52, 11
1, 184989, Poly_aftertouch_c, 0, 45, 127
1, 184997, Note_on_c, 0, 45, 3
1, 185021, Control_c, 0, 64, 84
1, 185035, Control_c, 0, 64, 84
1, 185065, Control_c, 0, 64, 83
1, 185095, Control_c, 0, 64, 83
1, 185097, Note_on_c, 0, 72, 29
1, 185098, Note_on_c, 0, 66, 49
1, 185109, Control_c, 0, 64, 82
1, 185124, Control_c, 0, 64, 82
1, 185139, Control_c, 0, 64, 81
1, 185153, Control_c, 0, 64, 80
1, 185168, Control_c, 0, 64, 78
1, 185183, Control_c, 0, 64, 74
1, 185191, Note_off_c, 0, 61, 52
1, 185198, Control_c, 0, 64, 67
1, 185198, Control_c, 0, 67, 111
1, 185213, Control_c, 0, 64, 59
1, 185235, Control_c, 0, 64, 37
1, 185250, Control_c, 0, 64, 0
1, 185280, Control_c, 0, 64, 22
1, 185295, Control_c, 0, 64, 40
1, 185295, Control_c, 0, 67, 111
1, 185310, Control_c, 0, 64, 53
1, 185325, Control_c, 0, 64, 62
1, 185340, Control_c, 0, 64, 66
1, 185355, Control_c, 0, 64, 69
1, 185370, Control_c, 0, 64, 73
1, 185384, Control_c, 0, 64, 75
1, 185384, Control_c, 0, 67, 110
1, 185399, Control_c, 0, 64, 77
1, 185414, Control_c, 0, 64, 78
1, 185429, Control_c, 0, 64, 79
1, 185444, Control_c, 0, 64, 80
1, 185473, Control_c, 0, 64, 80
1, 185503, Note_on_c, 0, 57, 30
1, 185513, Note_on_c, 0, 51, 24
1, 185532, Control_c, 0, 64, 81
1, 185627, Note_off_c, 0, 45, 39
1, 185628, Note_off_c, 0, 57, 41
1, 185656, Note_off_c, 0, 51, 41
1, 185695, Control_c, 0, 67, 111
1, 185784, Control_c, 0, 67, 111
1, 185829, Control_c, 0, 67, 112
1, 185873, Control_c, 0, 67, 112
1, 185918, Control_c, 0, 67, 113
1, 185984, Control_c, 0, 67, 113
1, 186237, Control_c, 0, 67, 113
1, 186533, Control_c, 0, 67, 112
1, 186654, Note_on_c, 0, 57, 29
1, 186661, Note_on_c, 0, 51, 26
1, 186667, Control_c, 0, 64, 80
1, 186828, Note_off_c, 0, 66, 29
1, 186917, Note_off_c, 0, 72, 38
1, 187108, Note_on_c, 0, 45, 30
1, 187119, Control_c, 0, 64, 80
1, 187178, Control_c, 0, 64, 79
1, 187234, Note_on_c, 0, 71, 34
1, 187241, Note_on_c, 0, 65, 40
1, 187251, Note_off_c, 0, 57, 40
1, 187252, Control_c, 0, 64, 79
1, 187267, Control_c, 0, 64, 78
1, 187282, Control_c, 0, 64, 77
1, 187287, Note_off_c, 0, 51, 39
1, 187297, Control_c, 0, 64, 75
1, 187311, Control_c, 0, 64, 71
1, 187326, Control_c, 0, 64, 64
1, 187341, Control_c, 0, 64, 50
1, 187355, Control_c, 0, 64, 22
1, 187370, Control_c, 0, 64, 0
1, 187384, Control_c, 0, 64, 23
1, 187399, Control_c, 0, 64, 44
1, 187414, Control_c, 0, 64, 57
1, 187414, Control_c, 0, 67, 112
1, 187428, Control_c, 0, 64, 62
1, 187443, Control_c, 0, 64, 65
1, 187458, Control_c, 0, 64, 68
1, 187480, Control_c, 0, 64, 71
1, 187480, Control_c, 0, 67, 111
1, 187495, Control_c, 0, 64, 73
1, 187510, Control_c, 0, 64, 75
1, 187525, Control_c, 0, 64, 76
1, 187540, Control_c, 0, 64, 76
1, 187554, Control_c, 0, 64, 77
1, 187584, Control_c, 0, 64, 77
1, 187680, Note_off_c, 0, 71, 37
1, 187703, Note_on_c, 0, 72, 41
1, 187783, Note_off_c, 0, 65, 39
1, 187911, Control_c, 0, 64, 77
1, 187925, Note_off_c, 0, 72, 51
1, 187940, Control_c, 0, 64, 76
1, 187955, Control_c, 0, 64, 75
1, 187965, Note_on_c, 0, 74, 42
1, 187970, Control_c, 0, 64, 72
1, 187983, Note_on_c, 0, 65, 32
1, 187984, Control_c, 0, 64, 68
1, 187999, Control_c, 0, 64, 62
1, 188001, Note_on_c, 0, 57, 29
1, 188002, Note_on_c, 0, 50, 24
1, 188014, Control_c, 0, 64, 51
1, 188029, Control_c, 0, 64, 34
1, 188044, Control_c, 0, 64, 27
1, 188059, Control_c, 0, 64, 42
1, 188059, Control_c, 0, 67, 111
1, 188074, Control_c, 0, 64, 56
1, 188089, Control_c, 0, 64, 63
1, 188103, Control_c, 0, 64, 67
1, 188118, Control_c, 0, 64, 70
1, 188133, Control_c, 0, 64, 73
1, 188133, Control_c, 0, 67, 110
1, 188148, Control_c, 0, 64, 76
1, 188163, Control_c, 0, 64, 78
1, 188177, Control_c, 0, 64, 78
1, 188192, Control_c, 0, 64, 79
1, 188206, Note_off_c, 0, 74, 43
1, 188207, Control_c, 0, 64, 79
1, 188209, Note_off_c, 0, 65, 43
1, 188239, Note_off_c, 0, 50, 50
1, 188242, Note_off_c, 0, 57, 41
1, 188244, Control_c, 0, 64, 80
1, 188432, Note_on_c, 0, 69, 40
1, 188452, Note_on_c, 0, 65, 35
1, 188464, Note_on_c, 0, 57, 32
1, 188468, Note_on_c, 0, 50, 30
1, 188615, Control_c, 0, 67, 111
1, 188624, Note_off_c, 0, 45, 37
1, 188665, Note_off_c, 0, 65, 43
1, 188750, Note_off_c, 0, 57, 35
1, 188788, Note_on_c, 0, 45, 24
1, 188867, Control_c, 0, 64, 79
1, 188882, Control_c, 0, 64, 79
1, 188897, Control_c, 0, 64, 78
1, 188900, Note_on_c, 0, 72, 40
1, 188912, Control_c, 0, 64, 76
1, 188927, Control_c, 0, 64, 73
1, 188931, Note_on_c, 0, 64, 35
1, 188933, Note_off_c, 0, 69, 39
1, 188941, Note_off_c, 0, 50, 12
1, 188942, Control_c, 0, 64, 68
1, 188956, Control_c, 0, 64, 60
1, 188956, Control_c, 0, 67, 111
1, 188979, Control_c, 0, 64, 44
1, 188994, Control_c, 0, 64, 0
1, 189023, Control_c, 0, 67, 111
1, 189038, Control_c, 0, 64, 40
1, 189053, Control_c, 0, 64, 58
1, 189068, Control_c, 0, 64, 65
1, 189082, Control_c, 0, 64, 67
1, 189097, Control_c, 0, 64, 69
1, 189112, Control_c, 0, 64, 72
1, 189119, Note_off_c, 0, 45, 41
1, 189126, Control_c, 0, 64, 74
1, 189141, Control_c, 0, 64, 76
1, 189156, Control_c, 0, 64, 77
1, 189156, Control_c, 0, 67, 110
1, 189171, Control_c, 0, 64, 77
1, 189186, Control_c, 0, 64, 78
1, 189200, Control_c, 0, 64, 78
1, 189215, Control_c, 0, 64, 79
1, 189631, Control_c, 0, 64, 78
1, 189656, Note_on_c, 0, 52, 30
1, 189666, Note_on_c, 0, 60, 29
1, 189772, Control_c, 0, 64, 78
1, 189808, Note_off_c, 0, 52, 41
1, 189809, Note_off_c, 0, 60, 39
1, 189920, Control_c, 0, 67, 111
1, 189994, Control_c, 0, 64, 77
1, 190306, Control_c, 0, 64, 77
1, 190595, Control_c, 0, 67, 110
1, 190598, Note_on_c, 0, 60, 19
1, 190610, Note_on_c, 0, 52, 24
1, 190748, Note_off_c, 0, 60, 37
1, 190802, Control_c, 0, 67, 111
1, 191055, Control_c, 0, 67, 111
1, 191069, Control_c, 0, 64, 76
1, 191084, Control_c, 0, 67, 112
1, 191087, Note_on_c, 0, 45, 27
1, 191114, Control_c, 0, 67, 112
1, 191129, Control_c, 0, 67, 113
1, 191158, Control_c, 0, 67, 113
1, 191178, Note_off_c, 0, 64, 40
1, 191222, Note_off_c, 0, 52, 0
1, 191224, Control_c, 0, 67, 114
1, 191245, Note_off_c, 0, 45, 40
1, 191285, Poly_aftertouch_c, 0, 52, 0
1, 191299, Control_c, 0, 67, 114
1, 191344, Control_c, 0, 67, 115
1, 191358, Control_c, 0, 67, 115
1, 191564, Note_on_c, 0, 52, 20
1, 191575, Note_on_c, 0, 60, 31
1, 191624, Control_c, 0, 67, 115
1, 191669, Control_c, 0, 67, 114
1, 191695, Note_off_c, 0, 60, 40
1, 191698, Note_off_c, 0, 52, 43
1, 191699, Control_c, 0, 67, 114
1, 191773, Control_c, 0, 67, 113
1, 191833, Control_c, 0, 67, 113
1, 191878, Control_c, 0, 67, 112
1, 191928, Note_on_c, 0, 69, 51
1, 191937, Control_c, 0, 67, 112
1, 191952, Control_c, 0, 67, 111
1, 192004, Control_c, 0, 67, 111
1, 192033, Control_c, 0, 67, 110
1, 192078, Control_c, 0, 67, 110
1, 192098, Note_off_c, 0, 72, 47
1, 192107, Control_c, 0, 67, 109
1, 192152, Control_c, 0, 67, 109
1, 192241, Control_c, 0, 67, 108
1, 192315, Control_c, 0, 64, 76
1, 192359, Control_c, 0, 67, 109
1, 192389, Control_c, 0, 64, 75
1, 192418, Control_c, 0, 64, 75
1, 192463, Control_c, 0, 64, 74
1, 192491, Note_on_c, 0, 72, 56
1, 192494, Control_c, 0, 64, 74
1, 192523, Control_c, 0, 64, 73
1, 192553, Control_c, 0, 64, 73
1, 192582, Control_c, 0, 64, 72
1, 192597, Control_c, 0, 64, 72
1, 192627, Control_c, 0, 64, 71
1, 192641, Control_c, 0, 64, 71
1, 192671, Control_c, 0, 64, 70
1, 192701, Control_c, 0, 64, 70
1, 192746, Note_off_c, 0, 69, 35
1, 192753, Control_c, 0, 64, 69
1, 192827, Control_c, 0, 64, 69
1, 192916, Control_c, 0, 64, 68
1, 193138, Control_c, 0, 64, 68
1, 193271, Control_c, 0, 64, 67
1, 193346, Control_c, 0, 64, 67
1, 193353, Note_on_c, 0, 60, 18
1, 193361, Control_c, 0, 64, 66
1, 193368, Note_on_c, 0, 52, 24
1, 193376, Control_c, 0, 64, 64
1, 193390, Control_c, 0, 64, 59
1, 193405, Control_c, 0, 64, 48
1, 193420, Control_c, 0, 64, 34
1, 193435, Control_c, 0, 64, 31
1, 193450, Control_c, 0, 64, 40
1, 193472, Control_c, 0, 64, 52
1, 193487, Control_c, 0, 64, 60
1, 193502, Control_c, 0, 64, 64
1, 193502, Control_c, 0, 67, 108
1, 193517, Control_c, 0, 64, 66
1, 193532, Control_c, 0, 64, 69
1, 193546, Control_c, 0, 64, 72
1, 193561, Control_c, 0, 64, 74
1, 193576, Control_c, 0, 64, 76
1, 193591, Control_c, 0, 64, 77
1, 193605, Control_c, 0, 64, 78
1, 193620, Control_c, 0, 64, 79
1, 193635, Control_c, 0, 64, 80
1, 193679, Control_c, 0, 64, 81
1, 193724, Control_c, 0, 64, 81
1, 193768, Control_c, 0, 67, 109
1, 193794, Note_off_c, 0, 60, 34
1, 193959, Note_on_c, 0, 45, 25
1, 194076, Note_off_c, 0, 52, 37
1, 194104, Note_off_c, 0, 45, 40
1, 194430, Note_on_c, 0, 60, 23
1, 194435, Note_on_c, 0, 52, 32
1, 194443, Control_c, 0, 64, 81
1, 194717, Note_off_c, 0, 60, 36
1, 194759, Note_off_c, 0, 52, 30
1, 194948, Control_c, 0, 64, 80
1, 195162, Note_on_c, 0, 45, 19
1, 195192, Control_c, 0, 64, 80
1, 195251, Control_c, 0, 67, 109
1, 195301, Note_off_c, 0, 72, 42
1, 195310, Control_c, 0, 67, 110
1, 195365, Note_off_c, 0, 45, 35
1, 195369, Control_c, 0, 67, 110
1, 195763, Control_c, 0, 67, 110
1, 196265, Note_on_c, 0, 72, 49
1, 196266, Control_c, 0, 67, 109
1, 196370, Control_c, 0, 67, 110
1, 196384, Control_c, 0, 64, 79
1, 196481, Control_c, 0, 64, 79
1, 196527, Control_c, 0, 64, 78
1, 196557, Control_c, 0, 64, 78
1, 196586, Control_c, 0, 64, 77
1, 196615, Control_c, 0, 64, 77
1, 196645, Control_c, 0, 64, 76
1, 196660, Control_c, 0, 64, 76
1, 196689, Control_c, 0, 64, 75
1, 196719, Control_c, 0, 64, 75
1, 196749, Control_c, 0, 64, 74
1, 196763, Control_c, 0, 64, 74
1, 196793, Control_c, 0, 64, 73
1, 196823, Control_c, 0, 64, 73
1, 196897, Control_c, 0, 64, 72
1, 197060, Control_c, 0, 64, 72
1, 197245, Control_c, 0, 64, 71
1, 197275, Control_c, 0, 64, 70
1, 197291, Control_c, 0, 64, 70
1, 197305, Control_c, 0, 64, 69
1, 197320, Control_c, 0, 64, 68
1, 197365, Control_c, 0, 64, 67
1, 197409, Control_c, 0, 64, 67
1, 197498, Control_c, 0, 64, 66
1, 197616, Control_c, 0, 64, 66
1, 197705, Control_c, 0, 64, 66
1, 197720, Control_c, 0, 67, 109
1, 197750, Control_c, 0, 64, 67
1, 197764, Control_c, 0, 64, 67
1, 197779, Control_c, 0, 64, 68
1, 197779, Control_c, 0, 67, 109
1, 197794, Control_c, 0, 64, 68
1, 197809, Control_c, 0, 64, 69
1, 197824, Control_c, 0, 64, 70
1, 197838, Control_c, 0, 64, 70
1, 197853, Control_c, 0, 64, 71
1, 197868, Control_c, 0, 64, 72
1, 197868, Control_c, 0, 67, 108
1, 197883, Control_c, 0, 64, 73
1, 197898, Control_c, 0, 64, 74
1, 197927, Control_c, 0, 64, 74
1, 197964, Control_c, 0, 64, 75
1, 198021, Note_off_c, 0, 72, 33
1, 198024, Control_c, 0, 64, 75
1, 198394, Control_c, 0, 67, 109
1, 198468, Control_c, 0, 64, 75
1, 198676, Control_c, 0, 64, 74
1, 198736, Note_on_c, 0, 69, 30
1, 198802, Control_c, 0, 64, 74
1, 198861, Control_c, 0, 64, 73
1, 198906, Control_c, 0, 64, 73
1, 198921, Control_c, 0, 64, 72
1, 198936, Control_c, 0, 64, 72
1, 198951, Control_c, 0, 64, 71
1, 198966, Control_c, 0, 64, 71
1, 198981, Control_c, 0, 64, 70
1, 198996, Control_c, 0, 64, 70
1, 199010, Control_c, 0, 64, 69
1, 199025, Control_c, 0, 64, 68
1, 199040, Control_c, 0, 64, 67
1, 199055, Control_c, 0, 64, 67
1, 199055, Control_c, 0, 67, 109
1, 199084, Control_c, 0, 64, 66
1, 199114, Control_c, 0, 64, 66
1, 199173, Control_c, 0, 64, 65
1, 199173, Control_c, 0, 67, 110
1, 199247, Control_c, 0, 64, 65
1, 199306, Control_c, 0, 64, 64
1, 199365, Control_c, 0, 64, 64
1, 199409, Control_c, 0, 64, 63
1, 199424, Control_c, 0, 64, 63
1, 199505, Control_c, 0, 64, 62
1, 199565, Control_c, 0, 64, 62
1, 199580, Control_c, 0, 64, 61
1, 199609, Control_c, 0, 64, 61
1, 199654, Control_c, 0, 64, 60
1, 199669, Control_c, 0, 67, 110
1, 199684, Control_c, 0, 64, 60
1, 199699, Control_c, 0, 64, 59
1, 199714, Control_c, 0, 64, 59
1, 199744, Control_c, 0, 64, 58
1, 199759, Control_c, 0, 64, 58
1, 199774, Control_c, 0, 64, 57
1, 199788, Control_c, 0, 64, 57
1, 199877, Control_c, 0, 64, 56
1, 199921, Control_c, 0, 64, 56
1, 199936, Control_c, 0, 64, 55
1, 199951, Control_c, 0, 64, 55
1, 199965, Control_c, 0, 64, 54
1, 199995, Control_c, 0, 64, 54
1, 200054, Control_c, 0, 64, 53
1, 200239, Control_c, 0, 64, 54
1, 200269, Control_c, 0, 64, 54
1, 200284, Control_c, 0, 64, 55
1, 200299, Control_c, 0, 64, 55
1, 200313, Control_c, 0, 64, 56
1, 200328, Control_c, 0, 64, 57
1, 200343, Control_c, 0, 64, 57
1, 200343, Control_c, 0, 67, 110
1, 200358, Control_c, 0, 64, 58
1, 200373, Control_c, 0, 64, 59
1, 200388, Control_c, 0, 64, 59
1, 200403, Control_c, 0, 64, 60
1, 200418, Control_c, 0, 64, 61
1, 200432, Control_c, 0, 64, 61
1, 200447, Control_c, 0, 64, 62
1, 200462, Control_c, 0, 64, 63
1, 200477, Control_c, 0, 64, 63
1, 200477, Control_c, 0, 67, 109
1, 200492, Control_c, 0, 64, 64
1, 200507, Control_c, 0, 64, 65
1, 200522, Control_c, 0, 64, 65
1, 200537, Control_c, 0, 64, 66
1, 200552, Control_c, 0, 64, 67
1, 200567, Control_c, 0, 64, 68
1, 200581, Control_c, 0, 64, 68
1, 200596, Control_c, 0, 64, 69
1, 200611, Control_c, 0, 64, 70
1, 200626, Control_c, 0, 64, 71
1, 200626, Control_c, 0, 67, 109
1, 200641, Control_c, 0, 64, 72
1, 200655, Control_c, 0, 64, 72
1, 200685, Control_c, 0, 64, 73
1, 200700, Control_c, 0, 64, 73
1, 200715, Control_c, 0, 64, 74
1, 200744, Control_c, 0, 64, 74
1, 200803, Control_c, 0, 64, 75
1, 200833, Control_c, 0, 64, 75
1, 200922, Control_c, 0, 64, 76
1, 201018, Control_c, 0, 67, 109
1, 201048, Control_c, 0, 64, 76
1, 201092, Control_c, 0, 64, 77
1, 201092, Control_c, 0, 67, 110
1, 201181, Control_c, 0, 67, 110
1, 201217, Note_on_c, 0, 59, 28
1, 201221, Note_on_c, 0, 65, 21
1, 201225, Control_c, 0, 64, 77
1, 201225, Control_c, 0, 67, 111
1, 201229, Note_on_c, 0, 57, 24
1, 201255, Control_c, 0, 64, 78
1, 201255, Control_c, 0, 67, 111
1, 201270, Control_c, 0, 64, 78
1, 201285, Control_c, 0, 64, 79
1, 201285, Control_c, 0, 67, 112
1, 201300, Control_c, 0, 64, 79
1, 201315, Control_c, 0, 64, 80
1, 201315, Control_c, 0, 67, 113
1, 201330, Control_c, 0, 64, 81
1, 201330, Control_c, 0, 67, 114
1, 201345, Control_c, 0, 64, 82
1, 201345, Control_c, 0, 67, 115
1, 201360, Control_c, 0, 64, 82
1, 201360, Control_c, 0, 67, 115
1, 201374, Control_c, 0, 64, 83
1, 201374, Control_c, 0, 67, 116
1, 201389, Control_c, 0, 67, 117
1, 201404, Control_c, 0, 67, 118
1, 201419, Control_c, 0, 67, 119
1, 201434, Control_c, 0, 67, 120
1, 201449, Control_c, 0, 67, 121
1, 201464, Control_c, 0, 67, 121
1, 201478, Control_c, 0, 67, 122
1, 201512, Note_off_c, 0, 57, 38
1, 201523, Control_c, 0, 67, 122
1, 201538, Control_c, 0, 67, 123
1, 201553, Note_off_c, 0, 65, 30
1, 201687, Note_off_c, 0, 59, 35
1, 201722, Control_c, 0, 67, 123
1, 201766, Control_c, 0, 67, 122
1, 201781, Control_c, 0, 67, 122
1, 201796, Control_c, 0, 64, 82
1, 201810, Control_c, 0, 67, 121
1, 201840, Control_c, 0, 67, 121
1, 201870, Control_c, 0, 67, 120
1, 201884, Control_c, 0, 64, 82
1, 201899, Control_c, 0, 67, 120
1, 201929, Control_c, 0, 67, 119
1, 201959, Control_c, 0, 64, 81
1, 201959, Control_c, 0, 67, 119
1, 202003, Control_c, 0, 67, 118
1, 202033, Control_c, 0, 67, 118
1, 202048, Control_c, 0, 64, 81
1, 202078, Control_c, 0, 67, 117
1, 202093, Control_c, 0, 67, 117
1, 202123, Control_c, 0, 64, 80
1, 202138, Control_c, 0, 67, 116
1, 202163, Note_on_c, 0, 60, 35
1, 202167, Control_c, 0, 64, 80
1, 202172, Note_on_c, 0, 65, 22
1, 202189, Note_on_c, 0, 57, 27
1, 202197, Control_c, 0, 64, 79
1, 202212, Control_c, 0, 64, 77
1, 202226, Control_c, 0, 64, 74
1, 202241, Control_c, 0, 64, 68
1, 202256, Control_c, 0, 64, 62
1, 202256, Control_c, 0, 67, 116
1, 202271, Control_c, 0, 64, 53
1, 202286, Control_c, 0, 64, 47
1, 202300, Control_c, 0, 64, 51
1, 202300, Control_c, 0, 67, 115
1, 202315, Control_c, 0, 64, 58
1, 202315, Control_c, 0, 67, 115
1, 202330, Control_c, 0, 64, 64
1, 202330, Control_c, 0, 67, 114
1, 202345, Control_c, 0, 64, 67
1, 202345, Control_c, 0, 67, 114
1, 202359, Control_c, 0, 64, 71
1, 202359, Control_c, 0, 67, 113
1, 202374, Control_c, 0, 64, 74
1, 202389, Control_c, 0, 64, 77
1, 202389, Control_c, 0, 67, 113
1, 202404, Control_c, 0, 64, 79
1, 202419, Control_c, 0, 64, 79
1, 202419, Control_c, 0, 67, 112
1, 202427, Note_off_c, 0, 57, 39
1, 202456, Control_c, 0, 64, 80
1, 202479, Note_off_c, 0, 65, 39
1, 202486, Control_c, 0, 64, 80
1, 202507, Note_off_c, 0, 60, 40
1, 202663, Control_c, 0, 67, 112
1, 202737, Control_c, 0, 64, 80
1, 202752, Control_c, 0, 64, 79
1, 202755, Note_on_c, 0, 62, 40
1, 202766, Note_on_c, 0, 65, 28
1, 202766, Control_c, 0, 64, 76
1, 202769, Note_on_c, 0, 57, 31
1, 202781, Control_c, 0, 64, 72
1, 202781, Control_c, 0, 67, 112
1, 202796, Control_c, 0, 64, 67
1, 202811, Control_c, 0, 64, 59
1, 202826, Control_c, 0, 64, 49
1, 202826, Control_c, 0, 67, 112
1, 202856, Control_c, 0, 64, 56
1, 202871, Control_c, 0, 64, 61
1, 202871, Control_c, 0, 67, 111
1, 202886, Control_c, 0, 64, 65
1, 202901, Control_c, 0, 64, 68
1, 202901, Control_c, 0, 67, 111
1, 202916, Control_c, 0, 64, 71
1, 202930, Control_c, 0, 64, 76
1, 202945, Control_c, 0, 64, 79
1, 202945, Control_c, 0, 67, 110
1, 202960, Note_off_c, 0, 57, 39
1, 202960, Control_c, 0, 64, 81
1, 202975, Control_c, 0, 64, 81
1, 202978, Note_off_c, 0, 65, 41
1, 203005, Note_off_c, 0, 62, 50
1, 203183, Control_c, 0, 64, 80
1, 203205, Control_c, 0, 64, 78
1, 203205, Control_c, 0, 67, 111
1, 203211, Note_on_c, 0, 59, 42
1, 203217, Note_on_c, 0, 65, 30
1, 203220, Control_c, 0, 64, 74
1, 203234, Note_on_c, 0, 57, 29
1, 203235, Control_c, 0, 64, 69
1, 203250, Control_c, 0, 64, 63
1, 203264, Control_c, 0, 64, 56
1, 203279, Control_c, 0, 64, 50
1, 203294, Control_c, 0, 64, 54
1, 203309, Control_c, 0, 64, 61
1, 203324, Control_c, 0, 64, 66
1, 203339, Control_c, 0, 64, 70
1, 203339, Control_c, 0, 67, 110
1, 203354, Control_c, 0, 64, 73
1, 203369, Control_c, 0, 64, 76
1, 203383, Control_c, 0, 64, 78
1, 203398, Control_c, 0, 64, 80
1, 203413, Control_c, 0, 64, 80
1, 203413, Control_c, 0, 67, 110
1, 203442, Note_off_c, 0, 65, 42
1, 203447, Note_off_c, 0, 57, 41
1, 203454, Note_off_c, 0, 59, 49
1, 203620, Control_c, 0, 67, 110
1, 203626, Note_on_c, 0, 60, 38
1, 203635, Control_c, 0, 64, 79
1, 203638, Note_on_c, 0, 65, 25
1, 203641, Note_on_c, 0, 57, 17
1, 203649, Control_c, 0, 64, 76
1, 203664, Control_c, 0, 64, 71
1, 203680, Control_c, 0, 64, 65
1, 203680, Control_c, 0, 67, 111
1, 203695, Control_c, 0, 64, 57
1, 203710, Control_c, 0, 64, 46
1, 203725, Control_c, 0, 64, 40
1, 203740, Control_c, 0, 64, 50
1, 203740, Control_c, 0, 67, 110
1, 203754, Control_c, 0, 64, 61
1, 203769, Control_c, 0, 64, 66
1, 203784, Control_c, 0, 64, 70
1, 203798, Control_c, 0, 64, 75
1, 203798, Control_c, 0, 67, 110
1, 203813, Control_c, 0, 64, 79
1, 203828, Control_c, 0, 64, 82
1, 203828, Control_c, 0, 67, 109
1, 203843, Control_c, 0, 64, 85
1, 203858, Control_c, 0, 64, 86
1, 203872, Control_c, 0, 64, 86
1, 203902, Control_c, 0, 67, 110
1, 203904, Note_off_c, 0, 65, 41
1, 203911, Note_off_c, 0, 57, 41
1, 203925, Note_off_c, 0, 60, 51
1, 204073, Control_c, 0, 64, 86
1, 204073, Control_c, 0, 67, 110
1, 204087, Control_c, 0, 64, 85
1, 204096, Note_on_c, 0, 62, 34
1, 204101, Note_on_c, 0, 57, 23
1, 204102, Note_on_c, 0, 65, 30
1, 204102, Control_c, 0, 64, 83
1, 204117, Control_c, 0, 64, 80
1, 204132, Control_c, 0, 64, 75
1, 204147, Control_c, 0, 64, 68
1, 204147, Control_c, 0, 67, 111
1, 204162, Control_c, 0, 64, 61
1, 204176, Control_c, 0, 64, 51
1, 204191, Control_c, 0, 64, 42
1, 204206, Control_c, 0, 64, 43
1, 204221, Control_c, 0, 64, 53
1, 204221, Control_c, 0, 67, 110
1, 204236, Control_c, 0, 64, 63
1, 204251, Control_c, 0, 64, 67
1, 204266, Control_c, 0, 64, 70
1, 204280, Control_c, 0, 64, 74
1, 204280, Control_c, 0, 67, 110
1, 204295, Control_c, 0, 64, 78
1, 204310, Control_c, 0, 64, 80
1, 204324, Control_c, 0, 64, 81
1, 204345, Note_off_c, 0, 57, 41
1, 204363, Note_off_c, 0, 65, 38
1, 204384, Control_c, 0, 64, 81
1, 204425, Note_off_c, 0, 62, 42
1, 204503, Control_c, 0, 67, 110
1, 204563, Control_c, 0, 64, 81
1, 204636, Control_c, 0, 64, 80
1, 204641, Note_on_c, 0, 65, 20
1, 204648, Note_on_c, 0, 57, 21
1, 204651, Control_c, 0, 64, 80
1, 204653, Note_on_c, 0, 59, 36
1, 204666, Control_c, 0, 64, 78
1, 204681, Control_c, 0, 64, 76
1, 204703, Control_c, 0, 64, 71
1, 204718, Control_c, 0, 64, 65
1, 204733, Control_c, 0, 64, 57
1, 204748, Control_c, 0, 64, 44
1, 204762, Control_c, 0, 64, 40
1, 204762, Control_c, 0, 67, 111
1, 204777, Control_c, 0, 64, 50
1, 204777, Control_c, 0, 67, 110
1, 204792, Control_c, 0, 64, 60
1, 204807, Control_c, 0, 64, 65
1, 204822, Control_c, 0, 64, 67
1, 204836, Control_c, 0, 64, 69
1, 204851, Control_c, 0, 64, 72
1, 204866, Control_c, 0, 64, 75
1, 204881, Control_c, 0, 64, 78
1, 204896, Control_c, 0, 64, 79
1, 204910, Control_c, 0, 64, 80
1, 204910, Control_c, 0, 67, 110
1, 204925, Control_c, 0, 64, 80
1, 204940, Control_c, 0, 64, 81
1, 204954, Control_c, 0, 64, 81
1, 204969, Control_c, 0, 64, 82
1, 204972, Note_off_c, 0, 65, 36
1, 204989, Note_off_c, 0, 57, 39
1, 205044, Note_off_c, 0, 59, 37
1, 205074, Control_c, 0, 67, 110
1, 205467, Control_c, 0, 64, 81
1, 205556, Control_c, 0, 64, 81
1, 205601, Note_on_c, 0, 60, 24
1, 205615, Control_c, 0, 64, 80
1, 205617, Note_on_c, 0, 65, 21
1, 205625, Note_on_c, 0, 57, 21
1, 205689, Control_c, 0, 64, 80
1, 205719, Control_c, 0, 64, 79
1, 205748, Control_c, 0, 64, 79
1, 205763, Control_c, 0, 64, 78
1, 205777, Control_c, 0, 64, 76
1, 205792, Control_c, 0, 64, 74
1, 205807, Control_c, 0, 64, 70
1, 205822, Control_c, 0, 64, 66
1, 205822, Control_c, 0, 67, 111
1, 205837, Control_c, 0, 64, 61
1, 205852, Control_c, 0, 64, 54
1, 205867, Control_c, 0, 64, 45
1, 205882, Control_c, 0, 64, 32
1, 205896, Control_c, 0, 64, 20
1, 205911, Control_c, 0, 64, 17
1, 205926, Control_c, 0, 64, 19
1, 205941, Control_c, 0, 64, 27
1, 205956, Control_c, 0, 64, 39
1, 205970, Control_c, 0, 64, 46
1, 205985, Control_c, 0, 64, 52
1, 206000, Control_c, 0, 64, 57
1, 206000, Control_c, 0, 67, 110
1, 206015, Control_c, 0, 64, 60
1, 206030, Control_c, 0, 64, 62
1, 206044, Control_c, 0, 64, 64
1, 206059, Control_c, 0, 64, 65
1, 206075, Control_c, 0, 64, 67
1, 206075, Control_c, 0, 67, 110
1, 206090, Control_c, 0, 64, 69
1, 206105, Control_c, 0, 64, 71
1, 206120, Control_c, 0, 64, 73
1, 206135, Control_c, 0, 64, 75
1, 206149, Control_c, 0, 64, 77
1, 206164, Control_c, 0, 64, 78
1, 206179, Control_c, 0, 64, 79
1, 206200, Control_c, 0, 64, 80
1, 206215, Control_c, 0, 64, 81
1, 206227, Note_off_c, 0, 69, 45
1, 206230, Control_c, 0, 64, 82
1, 206245, Control_c, 0, 64, 82
1, 206260, Control_c, 0, 64, 83
1, 206305, Control_c, 0, 64, 83
1, 206327, Note_off_c, 0, 65, 37
1, 206335, Control_c, 0, 64, 84
1, 206704, Control_c, 0, 64, 83
1, 206804, Note_off_c, 0, 57, 25
1, 206823, Control_c, 0, 64, 83
1, 206853, Control_c, 0, 67, 109
1, 206883, Control_c, 0, 64, 82
1, 206950, Control_c, 0, 64, 82
1, 207005, Note_off_c, 0, 60, 36
1, 207009, Control_c, 0, 64, 81
1, 207086, Note_on_c, 0, 62, 31
1, 207351, Note_off_c, 0, 62, 41
1, 207515, Note_on_c, 0, 64, 31
1, 207646, Control_c, 0, 67, 110
1, 207724, Note_off_c, 0, 64, 41
1, 207787, Control_c, 0, 67, 110
1, 207926, Note_on_c, 0, 62, 29
1, 208128, Control_c, 0, 67, 110
1, 208257, Note_off_c, 0, 62, 38
1, 208966, Control_c, 0, 67, 109
1, 209066, Note_on_c, 0, 65, 31
1, 209076, Note_on_c, 0, 60, 20
1, 209107, Note_on_c, 0, 57, 29
1, 209210, Control_c, 0, 64, 81
1, 209271, Control_c, 0, 64, 80
1, 209300, Control_c, 0, 64, 79
1, 209315, Control_c, 0, 64, 79
1, 209330, Control_c, 0, 64, 78
1, 209344, Control_c, 0, 64, 76
1, 209344, Control_c, 0, 67, 110
1, 209359, Control_c, 0, 64, 74
1, 209374, Control_c, 0, 64, 71
1, 209389, Control_c, 0, 64, 70
1, 209404, Control_c, 0, 64, 69
1, 209418, Control_c, 0, 64, 68
1, 209433, Control_c, 0, 64, 67
1, 209448, Control_c, 0, 64, 65
1, 209463, Control_c, 0, 64, 63
1, 209478, Control_c, 0, 64, 62
1, 209522, Control_c, 0, 64, 62
1, 209537, Control_c, 0, 64, 61
1, 209552, Control_c, 0, 64, 61
1, 209567, Control_c, 0, 64, 60
1, 209581, Control_c, 0, 64, 59
1, 209596, Control_c, 0, 64, 59
1, 209611, Control_c, 0, 64, 58
1, 209611, Control_c, 0, 67, 110
1, 209655, Control_c, 0, 64, 57
1, 209730, Control_c, 0, 64, 57
1, 209804, Control_c, 0, 64, 56
1, 209863, Control_c, 0, 64, 56
1, 209892, Control_c, 0, 64, 55
1, 210946, Control_c, 0, 67, 110
1, 212426, Control_c, 0, 64, 55
1, 213999, Control_c, 0, 67, 109
1, 214600, Control_c, 0, 67, 109
1, 214703, Control_c, 0, 64, 55
1, 214821, Control_c, 0, 64, 56
1, 214882, Control_c, 0, 64, 56
1, 214911, Control_c, 0, 64, 57
1, 214956, Control_c, 0, 64, 57
1, 215949, Control_c, 0, 67, 108
1, 215993, Control_c, 0, 64, 58
1, 216038, Control_c, 0, 64, 58
1, 216053, Control_c, 0, 67, 108
1, 216112, Control_c, 0, 64, 59
1, 216201, Control_c, 0, 64, 59
1, 216246, Control_c, 0, 64, 60
1, 216305, Control_c, 0, 64, 60
1, 216631, Control_c, 0, 64, 61
1, 216727, Control_c, 0, 64, 61
1, 216875, Control_c, 0, 64, 62
1, 217008, Control_c, 0, 67, 107
1, 217068, Control_c, 0, 64, 62
1, 217112, Control_c, 0, 67, 107
1, 217127, Control_c, 0, 64, 63
1, 217141, Control_c, 0, 67, 106
1, 217186, Control_c, 0, 64, 63
1, 217245, Control_c, 0, 64, 64
1, 217261, Control_c, 0, 67, 106
1, 217305, Control_c, 0, 64, 64
1, 217365, Control_c, 0, 64, 65
1, 217447, Control_c, 0, 67, 105
1, 217462, Control_c, 0, 67, 105
1, 217492, Control_c, 0, 64, 65
1, 217551, Control_c, 0, 67, 104
1, 217565, Control_c, 0, 64, 66
1, 217565, Control_c, 0, 67, 104
1, 217625, Control_c, 0, 64, 66
1, 217639, Control_c, 0, 67, 103
1, 217669, Control_c, 0, 64, 67
1, 217669, Control_c, 0, 67, 103
1, 217684, Control_c, 0, 67, 102
1, 217713, Control_c, 0, 64, 67
1, 217728, Control_c, 0, 67, 102
1, 217772, Control_c, 0, 67, 101
1, 217802, Control_c, 0, 64, 68
1, 217817, Control_c, 0, 67, 101
1, 217862, Control_c, 0, 67, 100
1, 217877, Control_c, 0, 64, 68
1, 217877, Control_c, 0, 67, 100
1, 217906, Control_c, 0, 64, 69
1, 217918, Note_off_c, 0, 60, 21
1, 217936, Control_c, 0, 64, 69
1, 217936, Control_c, 0, 67, 99
1, 217951, Control_c, 0, 64, 70
1, 217965, Control_c, 0, 64, 70
1, 217980, Control_c, 0, 64, 71
1, 217995, Control_c, 0, 64, 71
1, 218010, Control_c, 0, 64, 72
1, 218025, Control_c, 0, 64, 73
1, 218039, Control_c, 0, 64, 73
1, 218039, Control_c, 0, 67, 99
1, 218055, Control_c, 0, 64, 74
1, 218085, Control_c, 0, 64, 74
1, 218085, Control_c, 0, 67, 98
1, 218115, Control_c, 0, 64, 75
1, 218130, Control_c, 0, 64, 75
1, 218130, Control_c, 0, 67, 97
1, 218181, Control_c, 0, 64, 76
1, 218181, Control_c, 0, 67, 97
1, 218225, Control_c, 0, 64, 76
1, 218348, Note_off_c, 0, 65, 32
1, 218393, Note_off_c, 0, 57, 28
1, 218536, Control_c, 0, 64, 76
1, 218670, Control_c, 0, 64, 75
1, 218714, Control_c, 0, 67, 97
1, 218744, Control_c, 0, 64, 75
1, 218788, Control_c, 0, 64, 74
1, 218848, Control_c, 0, 64, 74
1, 218893, Control_c, 0, 64, 73
1, 218945, Control_c, 0, 64, 73
1, 218959, Control_c, 0, 67, 98
1, 218974, Control_c, 0, 64, 72
1, 219018, Control_c, 0, 64, 72
1, 219048, Control_c, 0, 64, 71
1, 219078, Control_c, 0, 64, 71
1, 219108, Control_c, 0, 64, 70
1, 219123, Control_c, 0, 64, 70
1, 219152, Control_c, 0, 64, 69
1, 219167, Control_c, 0, 64, 69
1, 219197, Control_c, 0, 64, 68
1, 219211, Control_c, 0, 64, 68
1, 219241, Control_c, 0, 64, 67
1, 219256, Control_c, 0, 64, 67
1, 219285, Control_c, 0, 64, 66
1, 219315, Control_c, 0, 64, 66
1, 219330, Control_c, 0, 64, 65
1, 219345, Control_c, 0, 64, 64
1, 219359, Control_c, 0, 64, 64
1, 219403, Control_c, 0, 64, 63
1, 219433, Control_c, 0, 64, 63
1, 219463, Control_c, 0, 64, 62
1, 219477, Control_c, 0, 64, 62
1, 219507, Control_c, 0, 64, 61
1, 219522, Control_c, 0, 64, 61
1, 219567, Control_c, 0, 64, 60
1, 219596, Control_c, 0, 64, 60
1, 219611, Control_c, 0, 64, 59
1, 219641, Control_c, 0, 64, 59
1, 219679, Control_c, 0, 64, 58
1, 219694, Control_c, 0, 64, 58
1, 219738, Control_c, 0, 64, 57
1, 219797, Control_c, 0, 64, 57
1, 219827, Control_c, 0, 64, 56
1, 219856, Control_c, 0, 64, 56
1, 220123, Control_c, 0, 64, 56
1, 220241, Control_c, 0, 64, 57
1, 220345, Control_c, 0, 67, 97
1, 220472, Control_c, 0, 67, 97
1, 220694, Control_c, 0, 67, 96
1, 220724, Control_c, 0, 64, 57
1, 220738, Control_c, 0, 67, 96
1, 220783, Control_c, 0, 67, 95
1, 220843, Control_c, 0, 67, 95
1, 220857, Control_c, 0, 67, 93
1, 220872, Control_c, 0, 67, 91
1, 220902, Control_c, 0, 67, 91
1, 220931, Control_c, 0, 67, 90
1, 220946, Control_c, 0, 67, 90
1, 220961, Control_c, 0, 67, 88
1, 220975, Control_c, 0, 67, 86
1, 220990, Control_c, 0, 67, 83
1, 221005, Control_c, 0, 67, 81
1, 221020, Control_c, 0, 67, 80
1, 221064, Control_c, 0, 67, 80
1, 221094, Control_c, 0, 67, 79
1, 221109, Control_c, 0, 67, 78
1, 221123, Control_c, 0, 67, 74
1, 221138, Control_c, 0, 67, 69
1, 221153, Control_c, 0, 67, 62
1, 221175, Control_c, 0, 67, 55
1, 221190, Control_c, 0, 67, 49
1, 221205, Control_c, 0, 67, 43
1, 221220, Control_c, 0, 67, 37
1, 221235, Control_c, 0, 67, 31
1, 221251, Control_c, 0, 67, 25
1, 221266, Control_c, 0, 67, 20
1, 221280, Control_c, 0, 67, 16
1, 221295, Control_c, 0, 67, 13
1, 221310, Control_c, 0, 67, 11
1, 221325, Control_c, 0, 67, 8
1, 221340, Control_c, 0, 67, 0
1, 221415, End_track
0, 0, End_of_file
