0, 0, Header, 0, 1, 384
1, 0, Start_track
1, 0, Title_t, "Sonata Hob. XVI/20--A. Terenkova"
1, 0, Text_t, "2009 Piano-e-Competition audition round"
1, 0, Text_t, "captured January 2009"
1, 0, Text_t, "http://www.piano-e-competition.com/"
1, 0, Text_t, "File processed for distribution by software from Zenph Studios, Inc., http://www.zenph.com"
1, 0, Instrument_name_t, "Yamaha Disklavier Pro Mark IV concert grand piano, model DCFIIISM4PRO"
1, 0, Sequencer_specific, 39, 67, 113, 0, 1, 0, 1, 0, 83, 111, 110, 97, 116, 97, 72, 111, 98, 46, 88, 86, 73, 47, 50, 48, 65, 46, 32, 84, 101, 114, 101, 110, 107, 111, 118, 97, 32, 32, 32, 32
1, 0, Sequencer_specific, 6, 67, 113, 0, 0, 0, 69
1, 0, System_exclusive, 21, 67, 113, 126, 21, 0, 2, 2, 0, 3, 14, 1, 4, 1, 13, 13, 10, 11, 9, 2, 7, 247
1, 0, Sequencer_specific, 5, 67, 123, 12, 2, 1
1, 0, Tempo, 512820
1, 0, Time_signature, 4, 2, 24, 8
1, 0, System_exclusive, 5, 126, 127, 9, 1, 247
1, 1, System_exclusive, 8, 67, 16, 76, 0, 0, 126, 0, 247
1, 2, System_exclusive, 8, 67, 16, 76, 8, 9, 7, 1, 247
1, 3, Control_c, 0, 0, 0
1, 3, Control_c, 1, 0, 0
1, 3, Control_c, 2, 0, 0
1, 3, Control_c, 3, 0, 0
1, 3, Control_c, 4, 0, 0
1, 3, Control_c, 5, 0, 0
1, 3, Control_c, 6, 0, 0
1, 3, Control_c, 7, 0, 0
1, 3, Control_c, 8, 0, 0
1, 3, Control_c, 9, 0, 127
1, 3, Control_c, 10, 0, 0
1, 3, Control_c, 11, 0, 0
1, 3, Control_c, 12, 0, 0
1, 3, Control_c, 13, 0, 0
1, 3, Control_c, 14, 0, 0
1, 3, Control_c, 15, 0, 0
1, 4, Control_c, 0, 32, 0
1, 4, Control_c, 1, 32, 0
1, 4, Control_c, 2, 32, 0
1, 4, Control_c, 3, 32, 0
1, 4, Control_c, 4, 32, 0
1, 4, Control_c, 5, 32, 0
1, 4, Control_c, 6, 32, 0
1, 4, Control_c, 7, 32, 0
1, 4, Control_c, 8, 32, 0
1, 4, Control_c, 9, 32, 0
1, 4, Control_c, 10, 32, 0
1, 4, Control_c, 11, 32, 0
1, 4, Control_c, 12, 32, 0
1, 4, Control_c, 13, 32, 0
1, 4, Control_c, 14, 32, 0
1, 4, Control_c, 15, 32, 0
1, 5, Program_c, 0, 0
1, 5, Program_c, 1, 0
1, 5, Program_c, 2, 0
1, 5, Program_c, 3, 0
1, 5, Program_c, 4, 0
1, 5, Program_c, 5, 0
1, 5, Program_c, 6, 0
1, 5, Program_c, 7, 0
1, 5, Program_c, 8, 0
1, 5, Program_c, 9, 0
1, 5, Program_c, 10, 0
1, 5, Program_c, 11, 0
1, 5, Program_c, 12, 0
1, 5, Program_c, 13, 0
1, 5, Program_c, 14, 0
1, 5, Program_c, 15, 0
1, 6, Control_c, 0, 7, 100
1, 6, Control_c, 1, 7, 100
1, 6, Control_c, 2, 7, 100
1, 6, Control_c, 3, 7, 100
1, 6, Control_c, 4, 7, 100
1, 6, Control_c, 5, 7, 100
1, 6, Control_c, 6, 7, 100
1, 6, Control_c, 7, 7, 100
1, 6, Control_c, 8, 7, 100
1, 6, Control_c, 9, 7, 100
1, 6, Control_c, 10, 7, 100
1, 6, Control_c, 11, 7, 100
1, 6, Control_c, 12, 7, 100
1, 6, Control_c, 13, 7, 100
1, 6, Control_c, 14, 7, 100
1, 6, Control_c, 15, 7, 100
1, 117, Control_c, 0, 67, 8
1, 229, Control_c, 0, 67, 16
1, 341, Control_c, 0, 67, 24
1, 452, Control_c, 0, 67, 32
1, 564, Control_c, 0, 67, 40
1, 676, Control_c, 0, 67, 48
1, 787, Control_c, 0, 67, 56
1, 899, Control_c, 0, 67, 64
1, 1130, Note_on_c, 0, 79, 63
1, 1165, Note_on_c, 0, 75, 37
1, 1174, Control_c, 0, 67, 63
1, 1308, Control_c, 0, 67, 63
1, 1419, Note_on_c, 0, 48, 29
1, 1508, Control_c, 0, 67, 62
1, 1511, Note_off_c, 0, 48, 0
1, 1511, Note_on_c, 0, 48, 3
1, 1626, Control_c, 0, 67, 62
1, 1656, Control_c, 0, 67, 61
1, 1685, Control_c, 0, 67, 61
1, 1697, Note_on_c, 0, 60, 39
1, 1715, Control_c, 0, 67, 60
1, 1803, Note_off_c, 0, 48, 58
1, 1815, Note_off_c, 0, 60, 57
1, 1938, Control_c, 0, 67, 61
1, 1949, Note_on_c, 0, 77, 58
1, 1964, Note_on_c, 0, 74, 47
1, 2023, Note_off_c, 0, 75, 52
1, 2027, Control_c, 0, 67, 61
1, 2032, Note_off_c, 0, 79, 58
1, 2051, Note_off_c, 0, 77, 65
1, 2229, Note_on_c, 0, 80, 66
1, 2250, Note_on_c, 0, 77, 57
1, 2301, Control_c, 0, 67, 61
1, 2397, Note_off_c, 0, 74, 57
1, 2494, Note_on_c, 0, 48, 34
1, 2582, Control_c, 0, 67, 61
1, 2641, Control_c, 0, 67, 62
1, 2755, Note_on_c, 0, 60, 39
1, 2776, Control_c, 0, 67, 61
1, 2820, Control_c, 0, 67, 61
1, 2865, Control_c, 0, 67, 60
1, 2868, Note_off_c, 0, 48, 58
1, 2882, Note_off_c, 0, 60, 61
1, 2961, Control_c, 0, 67, 61
1, 2976, Control_c, 0, 67, 61
1, 2991, Control_c, 0, 67, 62
1, 3005, Control_c, 0, 67, 63
1, 3019, Note_on_c, 0, 79, 56
1, 3020, Control_c, 0, 67, 64
1, 3035, Control_c, 0, 67, 64
1, 3043, Note_on_c, 0, 75, 45
1, 3050, Control_c, 0, 67, 65
1, 3052, Note_off_c, 0, 77, 56
1, 3065, Control_c, 0, 67, 65
1, 3079, Control_c, 0, 67, 66
1, 3094, Control_c, 0, 67, 66
1, 3128, Note_off_c, 0, 79, 65
1, 3138, Control_c, 0, 67, 67
1, 3141, Note_off_c, 0, 80, 41
1, 3142, Note_off_c, 0, 75, 65
1, 3197, Control_c, 0, 67, 67
1, 3227, Control_c, 0, 67, 67
1, 3257, Control_c, 0, 67, 66
1, 3283, Note_on_c, 0, 77, 57
1, 3286, Control_c, 0, 67, 66
1, 3309, Note_on_c, 0, 68, 41
1, 3315, Control_c, 0, 67, 65
1, 3330, Control_c, 0, 67, 65
1, 3345, Control_c, 0, 67, 64
1, 3360, Control_c, 0, 67, 63
1, 3375, Control_c, 0, 67, 63
1, 3389, Control_c, 0, 67, 62
1, 3404, Control_c, 0, 67, 61
1, 3419, Control_c, 0, 67, 61
1, 3434, Control_c, 0, 67, 60
1, 3449, Control_c, 0, 67, 60
1, 3463, Control_c, 0, 67, 59
1, 3478, Control_c, 0, 67, 59
1, 3493, Control_c, 0, 67, 56
1, 3508, Control_c, 0, 67, 52
1, 3524, Control_c, 0, 67, 48
1, 3535, Note_on_c, 0, 75, 60
1, 3538, Control_c, 0, 67, 46
1, 3553, Control_c, 0, 67, 44
1, 3566, Note_on_c, 0, 67, 56
1, 3568, Control_c, 0, 67, 43
1, 3583, Control_c, 0, 67, 43
1, 3593, Note_on_c, 0, 48, 39
1, 3593, Note_off_c, 0, 77, 29
1, 3612, Control_c, 0, 67, 42
1, 3675, Note_off_c, 0, 67, 62
1, 3695, Note_off_c, 0, 75, 65
1, 3768, Control_c, 0, 67, 42
1, 3797, Note_on_c, 0, 74, 66
1, 3806, Note_on_c, 0, 65, 58
1, 3824, Note_on_c, 0, 53, 45
1, 3842, Control_c, 0, 67, 41
1, 3857, Control_c, 0, 67, 40
1, 3872, Control_c, 0, 67, 39
1, 3886, Note_off_c, 0, 65, 62
1, 3936, Note_off_c, 0, 48, 56
1, 3976, Control_c, 0, 67, 39
1, 3991, Control_c, 0, 67, 40
1, 4020, Control_c, 0, 67, 40
1, 4029, Note_off_c, 0, 74, 52
1, 4035, Control_c, 0, 67, 41
1, 4050, Control_c, 0, 67, 41
1, 4056, Note_off_c, 0, 53, 56
1, 4059, Note_on_c, 0, 72, 61
1, 4065, Note_on_c, 0, 63, 50
1, 4077, Note_on_c, 0, 54, 37
1, 4079, Control_c, 0, 67, 42
1, 4109, Control_c, 0, 67, 43
1, 4124, Control_c, 0, 67, 43
1, 4130, Note_off_c, 0, 68, 64
1, 4135, Note_off_c, 0, 63, 64
1, 4138, Control_c, 0, 67, 44
1, 4153, Control_c, 0, 67, 45
1, 4168, Control_c, 0, 67, 46
1, 4183, Control_c, 0, 67, 47
1, 4198, Control_c, 0, 67, 47
1, 4212, Control_c, 0, 67, 48
1, 4227, Control_c, 0, 67, 49
1, 4242, Control_c, 0, 67, 50
1, 4257, Control_c, 0, 67, 51
1, 4271, Control_c, 0, 67, 52
1, 4286, Control_c, 0, 67, 53
1, 4301, Control_c, 0, 67, 54
1, 4317, Control_c, 0, 67, 57
1, 4332, Control_c, 0, 67, 62
1, 4335, Note_off_c, 0, 72, 60
1, 4347, Control_c, 0, 67, 67
1, 4359, Note_on_c, 0, 71, 49
1, 4361, Control_c, 0, 67, 72
1, 4376, Control_c, 0, 67, 75
1, 4381, Note_on_c, 0, 63, 34
1, 4391, Control_c, 0, 67, 75
1, 4393, Note_on_c, 0, 55, 33
1, 4406, Control_c, 0, 67, 75
1, 4444, Note_off_c, 0, 71, 55
1, 4458, Control_c, 0, 67, 74
1, 4462, Note_on_c, 0, 72, 62
1, 4467, Note_off_c, 0, 54, 61
1, 4473, Control_c, 0, 67, 74
1, 4517, Control_c, 0, 67, 73
1, 4519, Note_off_c, 0, 72, 61
1, 4536, Note_on_c, 0, 74, 58
1, 4609, Note_off_c, 0, 74, 60
1, 4614, Note_on_c, 0, 72, 55
1, 4709, Control_c, 0, 67, 73
1, 4739, Control_c, 0, 67, 72
1, 4754, Control_c, 0, 67, 72
1, 4757, Note_off_c, 0, 63, 57
1, 4784, Control_c, 0, 67, 71
1, 4799, Control_c, 0, 67, 71
1, 4813, Control_c, 0, 67, 70
1, 4828, Control_c, 0, 67, 70
1, 4858, Control_c, 0, 67, 69
1, 4873, Control_c, 0, 67, 69
1, 4887, Control_c, 0, 67, 68
1, 4902, Control_c, 0, 67, 68
1, 4906, Note_on_c, 0, 71, 42
1, 4912, Note_on_c, 0, 62, 35
1, 4914, Note_on_c, 0, 43, 45
1, 4917, Control_c, 0, 67, 67
1, 4948, Note_off_c, 0, 43, 60
1, 4961, Control_c, 0, 67, 67
1, 4989, Note_off_c, 0, 55, 59
1, 4991, Control_c, 0, 67, 66
1, 5000, Note_off_c, 0, 62, 53
1, 5065, Control_c, 0, 67, 67
1, 5076, Note_off_c, 0, 72, 16
1, 5125, Control_c, 0, 67, 66
1, 5154, Note_on_c, 0, 68, 53
1, 5177, Note_on_c, 0, 60, 39
1, 5182, Note_on_c, 0, 63, 44
1, 5207, Control_c, 0, 67, 66
1, 5258, Note_off_c, 0, 71, 36
1, 5266, Control_c, 0, 67, 65
1, 5278, Note_off_c, 0, 68, 64
1, 5296, Control_c, 0, 67, 65
1, 5299, Note_on_c, 0, 67, 60
1, 5323, Note_off_c, 0, 60, 62
1, 5325, Control_c, 0, 67, 64
1, 5327, Note_off_c, 0, 63, 61
1, 5338, Note_off_c, 0, 67, 62
1, 5340, Control_c, 0, 67, 64
1, 5355, Note_on_c, 0, 68, 65
1, 5355, Control_c, 0, 67, 63
1, 5370, Control_c, 0, 67, 63
1, 5385, Control_c, 0, 67, 62
1, 5401, Note_off_c, 0, 68, 64
1, 5412, Note_on_c, 0, 70, 62
1, 5413, Control_c, 0, 67, 61
1, 5428, Control_c, 0, 67, 60
1, 5442, Note_on_c, 0, 68, 56
1, 5443, Control_c, 0, 67, 59
1, 5458, Control_c, 0, 67, 56
1, 5460, Note_off_c, 0, 70, 54
1, 5471, Note_on_c, 0, 62, 45
1, 5472, Control_c, 0, 67, 54
1, 5487, Control_c, 0, 67, 52
1, 5496, Note_on_c, 0, 59, 32
1, 5502, Control_c, 0, 67, 50
1, 5517, Control_c, 0, 67, 47
1, 5532, Control_c, 0, 67, 45
1, 5547, Control_c, 0, 67, 44
1, 5562, Control_c, 0, 67, 43
1, 5577, Control_c, 0, 67, 41
1, 5591, Control_c, 0, 67, 40
1, 5606, Control_c, 0, 67, 37
1, 5621, Control_c, 0, 67, 35
1, 5636, Control_c, 0, 67, 34
1, 5651, Control_c, 0, 67, 33
1, 5695, Control_c, 0, 67, 33
1, 5871, Note_off_c, 0, 59, 44
1, 5872, Control_c, 0, 67, 32
1, 5902, Control_c, 0, 67, 32
1, 5918, Control_c, 0, 67, 28
1, 5925, Note_off_c, 0, 62, 65
1, 5940, Control_c, 0, 67, 27
1, 5955, Control_c, 0, 67, 26
1, 5967, Note_on_c, 0, 67, 43
1, 5981, Note_off_c, 0, 68, 62
1, 6075, Note_off_c, 0, 67, 54
1, 6184, Note_on_c, 0, 72, 56
1, 6214, Note_on_c, 0, 63, 48
1, 6219, Note_on_c, 0, 67, 46
1, 6283, Note_off_c, 0, 72, 63
1, 6301, Note_on_c, 0, 71, 66
1, 6310, Note_off_c, 0, 67, 60
1, 6337, Note_off_c, 0, 71, 61
1, 6350, Note_off_c, 0, 63, 59
1, 6363, Note_on_c, 0, 72, 64
1, 6384, Control_c, 0, 67, 26
1, 6393, Note_off_c, 0, 72, 61
1, 6413, Note_on_c, 0, 74, 70
1, 6474, Note_on_c, 0, 65, 45
1, 6476, Note_on_c, 0, 72, 66
1, 6486, Note_on_c, 0, 62, 42
1, 6503, Control_c, 0, 67, 25
1, 6512, Note_off_c, 0, 74, 60
1, 6518, Control_c, 0, 67, 25
1, 6533, Control_c, 0, 67, 24
1, 6547, Control_c, 0, 67, 20
1, 6562, Control_c, 0, 67, 11
1, 6577, Control_c, 0, 67, 0
1, 6969, Note_on_c, 0, 71, 57
1, 6982, Note_off_c, 0, 72, 57
1, 7074, Control_c, 0, 64, 8
1, 7082, Note_on_c, 0, 80, 65
1, 7088, Control_c, 0, 64, 9
1, 7103, Control_c, 0, 64, 11
1, 7133, Control_c, 0, 64, 12
1, 7148, Note_off_c, 0, 80, 64
1, 7148, Control_c, 0, 64, 12
1, 7177, Control_c, 0, 64, 13
1, 7192, Note_on_c, 0, 79, 67
1, 7217, Note_on_c, 0, 67, 44
1, 7225, Note_on_c, 0, 59, 37
1, 7234, Note_off_c, 0, 71, 56
1, 7237, Control_c, 0, 64, 13
1, 7298, Note_on_c, 0, 77, 66
1, 7315, Note_off_c, 0, 67, 61
1, 7328, Note_off_c, 0, 59, 58
1, 7328, Note_off_c, 0, 79, 63
1, 7338, Note_off_c, 0, 77, 63
1, 7346, Note_off_c, 0, 65, 42
1, 7362, Note_off_c, 0, 62, 41
1, 7411, Note_on_c, 0, 77, 64
1, 7437, Note_on_c, 0, 67, 53
1, 7455, Note_on_c, 0, 60, 43
1, 7481, Note_on_c, 0, 75, 70
1, 7490, Note_off_c, 0, 77, 65
1, 7538, Note_off_c, 0, 75, 64
1, 7546, Note_off_c, 0, 67, 58
1, 7551, Note_on_c, 0, 74, 72
1, 7580, Note_off_c, 0, 74, 66
1, 7581, Note_off_c, 0, 60, 59
1, 7602, Note_on_c, 0, 75, 65
1, 7647, Note_on_c, 0, 74, 59
1, 7670, Note_off_c, 0, 75, 64
1, 7687, Note_on_c, 0, 67, 47
1, 7704, Note_on_c, 0, 63, 47
1, 7719, Control_c, 0, 64, 13
1, 7747, Note_off_c, 0, 67, 62
1, 7762, Note_off_c, 0, 74, 65
1, 7778, Note_on_c, 0, 72, 57
1, 7808, Note_off_c, 0, 63, 52
1, 7808, Control_c, 0, 64, 12
1, 7853, Control_c, 0, 64, 12
1, 7911, Control_c, 0, 64, 11
1, 7914, Note_on_c, 0, 65, 44
1, 7920, Note_on_c, 0, 71, 53
1, 7925, Note_on_c, 0, 62, 40
1, 7941, Control_c, 0, 67, 8
1, 7961, Note_off_c, 0, 72, 58
1, 7971, Control_c, 0, 67, 8
1, 7994, Note_off_c, 0, 65, 62
1, 7994, Note_off_c, 0, 71, 64
1, 8011, Note_off_c, 0, 62, 62
1, 8119, Control_c, 0, 64, 12
1, 8193, Note_on_c, 0, 72, 49
1, 8209, Note_on_c, 0, 63, 43
1, 8215, Note_on_c, 0, 60, 42
1, 8262, Note_off_c, 0, 72, 60
1, 8265, Note_off_c, 0, 63, 64
1, 8274, Control_c, 0, 64, 12
1, 8281, Note_off_c, 0, 60, 61
1, 8394, Control_c, 0, 64, 12
1, 8424, Control_c, 0, 64, 11
1, 8439, Control_c, 0, 64, 10
1, 8439, Control_c, 0, 67, 9
1, 8454, Control_c, 0, 64, 9
1, 8454, Control_c, 0, 67, 9
1, 8484, Control_c, 0, 64, 8
1, 8493, Note_on_c, 0, 75, 54
1, 8498, Control_c, 0, 64, 0
1, 8526, Note_on_c, 0, 60, 36
1, 8528, Control_c, 0, 67, 10
1, 8556, Note_on_c, 0, 55, 30
1, 8557, Control_c, 0, 67, 10
1, 8572, Control_c, 0, 67, 11
1, 8587, Control_c, 0, 67, 11
1, 8602, Control_c, 0, 67, 12
1, 8617, Control_c, 0, 67, 13
1, 8632, Control_c, 0, 67, 16
1, 8647, Control_c, 0, 67, 21
1, 8662, Control_c, 0, 67, 26
1, 8677, Control_c, 0, 67, 32
1, 8691, Control_c, 0, 67, 39
1, 8706, Control_c, 0, 67, 46
1, 8721, Control_c, 0, 67, 52
1, 8735, Control_c, 0, 67, 57
1, 8750, Control_c, 0, 67, 60
1, 8765, Control_c, 0, 67, 63
1, 8780, Control_c, 0, 67, 63
1, 8809, Control_c, 0, 67, 63
1, 8839, Control_c, 0, 67, 62
1, 8854, Control_c, 0, 67, 62
1, 8869, Control_c, 0, 67, 61
1, 8883, Control_c, 0, 67, 61
1, 8898, Control_c, 0, 67, 60
1, 8935, Control_c, 0, 67, 60
1, 8950, Control_c, 0, 67, 59
1, 8980, Control_c, 0, 67, 59
1, 9009, Control_c, 0, 67, 58
1, 9024, Control_c, 0, 67, 58
1, 9039, Control_c, 0, 67, 57
1, 9054, Control_c, 0, 67, 57
1, 9095, Note_on_c, 0, 74, 31
1, 9098, Control_c, 0, 67, 56
1, 9114, Control_c, 0, 67, 56
1, 9116, Note_on_c, 0, 59, 22
1, 9144, Control_c, 0, 67, 55
1, 9173, Control_c, 0, 67, 55
1, 9188, Control_c, 0, 67, 54
1, 9200, Note_off_c, 0, 75, 55
1, 9203, Control_c, 0, 67, 54
1, 9208, Note_off_c, 0, 59, 0
1, 9208, Note_on_c, 0, 59, 3
1, 9217, Note_off_c, 0, 60, 56
1, 9218, Control_c, 0, 67, 53
1, 9232, Control_c, 0, 64, 8
1, 9232, Control_c, 0, 67, 52
1, 9247, Control_c, 0, 64, 9
1, 9247, Control_c, 0, 67, 51
1, 9262, Control_c, 0, 64, 10
1, 9277, Control_c, 0, 67, 50
1, 9303, Note_off_c, 0, 74, 60
1, 9306, Control_c, 0, 64, 11
1, 9306, Control_c, 0, 67, 50
1, 9321, Control_c, 0, 64, 12
1, 9321, Control_c, 0, 67, 49
1, 9336, Control_c, 0, 64, 13
1, 9336, Control_c, 0, 67, 48
1, 9350, Note_off_c, 0, 55, 49
1, 9351, Control_c, 0, 64, 15
1, 9365, Control_c, 0, 64, 15
1, 9365, Control_c, 0, 67, 48
1, 9380, Control_c, 0, 67, 44
1, 9387, Note_off_c, 0, 59, 60
1, 9395, Control_c, 0, 67, 42
1, 9410, Control_c, 0, 67, 40
1, 9425, Control_c, 0, 67, 39
1, 9440, Control_c, 0, 67, 37
1, 9455, Control_c, 0, 67, 36
1, 9470, Control_c, 0, 67, 35
1, 9499, Control_c, 0, 64, 15
1, 9499, Control_c, 0, 67, 35
1, 9514, Control_c, 0, 64, 14
1, 9529, Control_c, 0, 64, 13
1, 9544, Control_c, 0, 64, 12
1, 9544, Control_c, 0, 67, 34
1, 9558, Control_c, 0, 64, 11
1, 9573, Control_c, 0, 64, 10
1, 9573, Control_c, 0, 67, 34
1, 9588, Control_c, 0, 67, 31
1, 9603, Control_c, 0, 67, 28
1, 9618, Control_c, 0, 67, 25
1, 9632, Control_c, 0, 67, 24
1, 9644, Note_on_c, 0, 67, 43
1, 9648, Note_on_c, 0, 63, 41
1, 9744, Control_c, 0, 67, 24
1, 9773, Control_c, 0, 67, 23
1, 9788, Control_c, 0, 67, 23
1, 9803, Control_c, 0, 67, 22
1, 9818, Control_c, 0, 67, 19
1, 9832, Control_c, 0, 64, 11
1, 9832, Control_c, 0, 67, 12
1, 9847, Control_c, 0, 64, 12
1, 9847, Control_c, 0, 67, 0
1, 9877, Control_c, 0, 64, 13
1, 9914, Note_on_c, 0, 36, 40
1, 10040, Control_c, 0, 64, 12
1, 10054, Control_c, 0, 64, 12
1, 10084, Control_c, 0, 64, 11
1, 10170, Note_on_c, 0, 48, 30
1, 10173, Control_c, 0, 64, 10
1, 10233, Control_c, 0, 64, 9
1, 10283, Note_off_c, 0, 36, 57
1, 10305, Note_off_c, 0, 48, 56
1, 10336, Control_c, 0, 64, 10
1, 10366, Control_c, 0, 64, 11
1, 10380, Control_c, 0, 64, 12
1, 10395, Control_c, 0, 64, 12
1, 10410, Control_c, 0, 64, 13
1, 10430, Note_on_c, 0, 65, 54
1, 10432, Control_c, 0, 64, 15
1, 10447, Note_on_c, 0, 62, 45
1, 10447, Control_c, 0, 64, 15
1, 10462, Control_c, 0, 64, 16
1, 10477, Control_c, 0, 64, 17
1, 10492, Control_c, 0, 64, 18
1, 10504, Note_off_c, 0, 63, 58
1, 10506, Control_c, 0, 64, 20
1, 10520, Note_off_c, 0, 67, 39
1, 10521, Control_c, 0, 64, 21
1, 10525, Note_off_c, 0, 65, 64
1, 10551, Control_c, 0, 64, 21
1, 10566, Control_c, 0, 64, 22
1, 10698, Note_on_c, 0, 68, 68
1, 10722, Note_on_c, 0, 65, 57
1, 10759, Control_c, 0, 64, 21
1, 10774, Control_c, 0, 64, 21
1, 10848, Control_c, 0, 64, 20
1, 10863, Control_c, 0, 64, 20
1, 10877, Control_c, 0, 64, 19
1, 10892, Control_c, 0, 64, 18
1, 10896, Note_off_c, 0, 62, 59
1, 10922, Control_c, 0, 64, 18
1, 10951, Control_c, 0, 64, 17
1, 10960, Note_on_c, 0, 36, 44
1, 11026, Control_c, 0, 64, 17
1, 11055, Control_c, 0, 64, 16
1, 11085, Control_c, 0, 64, 16
1, 11085, Control_c, 0, 67, 8
1, 11100, Control_c, 0, 67, 9
1, 11115, Control_c, 0, 64, 15
1, 11115, Control_c, 0, 67, 10
1, 11129, Control_c, 0, 67, 11
1, 11144, Control_c, 0, 67, 12
1, 11159, Control_c, 0, 64, 15
1, 11159, Control_c, 0, 67, 16
1, 11181, Control_c, 0, 67, 21
1, 11196, Control_c, 0, 64, 14
1, 11196, Control_c, 0, 67, 27
1, 11210, Control_c, 0, 67, 32
1, 11213, Note_on_c, 0, 48, 35
1, 11225, Control_c, 0, 67, 38
1, 11240, Control_c, 0, 67, 43
1, 11255, Control_c, 0, 67, 48
1, 11270, Control_c, 0, 67, 52
1, 11285, Control_c, 0, 67, 54
1, 11300, Control_c, 0, 64, 15
1, 11300, Control_c, 0, 67, 53
1, 11315, Control_c, 0, 64, 16
1, 11315, Control_c, 0, 67, 53
1, 11329, Control_c, 0, 64, 17
1, 11344, Control_c, 0, 64, 18
1, 11344, Control_c, 0, 67, 52
1, 11359, Control_c, 0, 64, 18
1, 11359, Control_c, 0, 67, 51
1, 11374, Control_c, 0, 64, 19
1, 11374, Control_c, 0, 67, 51
1, 11374, Note_off_c, 0, 36, 58
1, 11389, Control_c, 0, 67, 50
1, 11403, Control_c, 0, 64, 19
1, 11403, Control_c, 0, 67, 50
1, 11418, Control_c, 0, 64, 20
1, 11418, Control_c, 0, 67, 49
1, 11433, Control_c, 0, 64, 20
1, 11433, Control_c, 0, 67, 49
1, 11440, Note_off_c, 0, 68, 58
1, 11448, Control_c, 0, 64, 21
1, 11448, Control_c, 0, 67, 48
1, 11456, Note_off_c, 0, 65, 60
1, 11463, Control_c, 0, 67, 48
1, 11475, Note_on_c, 0, 67, 52
1, 11482, Note_on_c, 0, 63, 48
1, 11492, Control_c, 0, 67, 47
1, 11508, Control_c, 0, 64, 21
1, 11523, Control_c, 0, 64, 22
1, 11538, Control_c, 0, 64, 22
1, 11544, Note_off_c, 0, 48, 57
1, 11552, Control_c, 0, 64, 23
1, 11552, Control_c, 0, 67, 47
1, 11556, Note_off_c, 0, 67, 62
1, 11567, Control_c, 0, 64, 24
1, 11578, Note_off_c, 0, 63, 63
1, 11582, Control_c, 0, 64, 25
1, 11597, Control_c, 0, 64, 26
1, 11597, Control_c, 0, 67, 46
1, 11612, Control_c, 0, 64, 27
1, 11626, Control_c, 0, 64, 29
1, 11641, Control_c, 0, 64, 30
1, 11656, Control_c, 0, 64, 31
1, 11671, Control_c, 0, 67, 46
1, 11686, Control_c, 0, 67, 45
1, 11700, Control_c, 0, 67, 45
1, 11715, Control_c, 0, 67, 44
1, 11730, Control_c, 0, 64, 31
1, 11730, Control_c, 0, 67, 44
1, 11745, Control_c, 0, 67, 43
1, 11748, Note_on_c, 0, 72, 75
1, 11759, Control_c, 0, 64, 30
1, 11759, Control_c, 0, 67, 42
1, 11774, Control_c, 0, 64, 30
1, 11774, Control_c, 0, 67, 42
1, 11789, Control_c, 0, 67, 41
1, 11804, Control_c, 0, 67, 40
1, 11819, Control_c, 0, 67, 40
1, 11833, Control_c, 0, 64, 29
1, 11833, Control_c, 0, 67, 39
1, 11848, Control_c, 0, 67, 38
1, 11863, Control_c, 0, 67, 35
1, 11878, Control_c, 0, 64, 29
1, 11878, Control_c, 0, 67, 33
1, 11893, Control_c, 0, 67, 31
1, 11908, Control_c, 0, 67, 28
1, 11930, Control_c, 0, 67, 25
1, 11945, Control_c, 0, 67, 23
1, 11959, Control_c, 0, 67, 20
1, 11974, Control_c, 0, 64, 28
1, 11974, Control_c, 0, 67, 18
1, 11989, Control_c, 0, 67, 16
1, 12004, Control_c, 0, 67, 14
1, 12016, Note_on_c, 0, 63, 47
1, 12019, Control_c, 0, 67, 12
1, 12026, Note_on_c, 0, 67, 46
1, 12033, Control_c, 0, 64, 28
1, 12033, Control_c, 0, 67, 10
1, 12048, Control_c, 0, 67, 9
1, 12063, Control_c, 0, 67, 8
1, 12078, Control_c, 0, 67, 0
1, 12285, Note_on_c, 0, 65, 51
1, 12292, Note_on_c, 0, 62, 45
1, 12329, Note_off_c, 0, 63, 52
1, 12340, Note_off_c, 0, 67, 58
1, 12349, Note_off_c, 0, 62, 64
1, 12361, Note_off_c, 0, 65, 63
1, 12457, Note_on_c, 0, 71, 53
1, 12483, Note_off_c, 0, 72, 58
1, 12531, Note_on_c, 0, 74, 54
1, 12533, Note_on_c, 0, 65, 40
1, 12536, Note_off_c, 0, 71, 58
1, 12541, Note_on_c, 0, 68, 46
1, 12632, Note_off_c, 0, 68, 63
1, 12640, Note_off_c, 0, 65, 63
1, 12709, Note_off_c, 0, 74, 62
1, 12749, Note_on_c, 0, 72, 52
1, 12783, Control_c, 0, 64, 27
1, 12813, Control_c, 0, 64, 27
1, 12828, Control_c, 0, 64, 26
1, 12837, Note_on_c, 0, 75, 49
1, 12843, Control_c, 0, 64, 26
1, 12857, Control_c, 0, 64, 25
1, 12867, Note_on_c, 0, 63, 41
1, 12872, Control_c, 0, 64, 25
1, 12873, Note_on_c, 0, 67, 42
1, 12888, Note_off_c, 0, 72, 31
1, 12901, Control_c, 0, 64, 24
1, 13191, Note_off_c, 0, 67, 57
1, 13193, Note_off_c, 0, 63, 65
1, 13334, Note_off_c, 0, 75, 57
1, 13354, Note_on_c, 0, 72, 59
1, 13388, Note_off_c, 0, 72, 64
1, 13401, Note_on_c, 0, 74, 63
1, 13466, Note_on_c, 0, 75, 66
1, 13474, Note_off_c, 0, 74, 64
1, 13493, Note_off_c, 0, 75, 68
1, 13523, Note_on_c, 0, 77, 73
1, 13578, Note_on_c, 0, 79, 76
1, 13578, Note_off_c, 0, 77, 65
1, 13627, Note_on_c, 0, 80, 75
1, 13655, Note_off_c, 0, 79, 65
1, 13683, Note_on_c, 0, 82, 68
1, 13718, Note_off_c, 0, 80, 64
1, 13735, Note_on_c, 0, 84, 71
1, 13738, Control_c, 0, 64, 24
1, 13747, Note_off_c, 0, 82, 65
1, 13753, Control_c, 0, 64, 23
1, 13768, Control_c, 0, 64, 23
1, 13795, Note_on_c, 0, 82, 68
1, 13798, Control_c, 0, 64, 22
1, 13813, Control_c, 0, 67, 8
1, 13823, Note_off_c, 0, 84, 63
1, 13843, Control_c, 0, 64, 21
1, 13843, Control_c, 0, 67, 8
1, 13857, Control_c, 0, 64, 21
1, 13857, Control_c, 0, 67, 9
1, 13872, Control_c, 0, 67, 10
1, 13887, Control_c, 0, 67, 11
1, 13902, Control_c, 0, 67, 11
1, 13917, Control_c, 0, 67, 12
1, 13947, Control_c, 0, 67, 12
1, 13992, Control_c, 0, 64, 20
1, 14060, Note_on_c, 0, 72, 46
1, 14068, Note_on_c, 0, 65, 44
1, 14081, Control_c, 0, 64, 20
1, 14108, Note_off_c, 0, 72, 61
1, 14110, Control_c, 0, 64, 19
1, 14120, Note_off_c, 0, 82, 64
1, 14122, Note_off_c, 0, 65, 61
1, 14125, Control_c, 0, 64, 19
1, 14134, Note_on_c, 0, 80, 62
1, 14140, Control_c, 0, 64, 18
1, 14175, Note_off_c, 0, 80, 62
1, 14176, Control_c, 0, 64, 18
1, 14191, Note_on_c, 0, 82, 57
1, 14233, Note_on_c, 0, 80, 74
1, 14236, Control_c, 0, 67, 13
1, 14242, Note_off_c, 0, 82, 61
1, 14251, Control_c, 0, 67, 14
1, 14266, Control_c, 0, 64, 17
1, 14266, Control_c, 0, 67, 16
1, 14281, Control_c, 0, 64, 17
1, 14281, Control_c, 0, 67, 17
1, 14310, Control_c, 0, 64, 16
1, 14312, Note_on_c, 0, 79, 70
1, 14325, Control_c, 0, 64, 16
1, 14330, Note_off_c, 0, 80, 48
1, 14340, Control_c, 0, 64, 15
1, 14354, Control_c, 0, 64, 15
1, 14369, Control_c, 0, 64, 13
1, 14384, Control_c, 0, 64, 13
1, 14399, Control_c, 0, 64, 12
1, 14414, Control_c, 0, 64, 10
1, 14428, Control_c, 0, 64, 9
1, 14443, Control_c, 0, 64, 8
1, 14458, Control_c, 0, 64, 0
1, 14588, Note_on_c, 0, 72, 44
1, 14591, Note_on_c, 0, 63, 37
1, 14665, Note_off_c, 0, 72, 61
1, 14665, Control_c, 0, 67, 16
1, 14680, Control_c, 0, 67, 15
1, 14687, Note_off_c, 0, 63, 58
1, 14696, Control_c, 0, 67, 15
1, 14710, Note_on_c, 0, 84, 75
1, 14711, Control_c, 0, 67, 14
1, 14725, Control_c, 0, 67, 14
1, 14740, Control_c, 0, 67, 13
1, 14755, Control_c, 0, 67, 13
1, 14758, Note_off_c, 0, 79, 61
1, 14770, Control_c, 0, 67, 12
1, 14850, Note_on_c, 0, 79, 80
1, 14931, Note_off_c, 0, 84, 63
1, 15029, Control_c, 0, 67, 12
1, 15074, Control_c, 0, 67, 11
1, 15103, Control_c, 0, 67, 11
1, 15116, Note_on_c, 0, 71, 42
1, 15127, Note_on_c, 0, 62, 49
1, 15148, Control_c, 0, 67, 10
1, 15159, Note_off_c, 0, 71, 64
1, 15163, Note_off_c, 0, 62, 65
1, 15163, Note_off_c, 0, 79, 61
1, 15178, Control_c, 0, 67, 10
1, 15205, Note_on_c, 0, 77, 57
1, 15236, Note_off_c, 0, 77, 49
1, 15257, Note_on_c, 0, 79, 73
1, 15326, Note_on_c, 0, 77, 67
1, 15345, Note_off_c, 0, 79, 58
1, 15356, Control_c, 0, 67, 10
1, 15385, Control_c, 0, 64, 8
1, 15399, Note_on_c, 0, 75, 58
1, 15400, Control_c, 0, 64, 9
1, 15400, Control_c, 0, 67, 11
1, 15425, Note_off_c, 0, 77, 59
1, 15430, Control_c, 0, 64, 10
1, 15444, Control_c, 0, 64, 11
1, 15474, Control_c, 0, 64, 12
1, 15489, Control_c, 0, 67, 11
1, 15519, Control_c, 0, 67, 12
1, 15534, Control_c, 0, 67, 12
1, 15549, Control_c, 0, 67, 13
1, 15564, Control_c, 0, 67, 13
1, 15579, Control_c, 0, 67, 14
1, 15593, Control_c, 0, 67, 14
1, 15608, Control_c, 0, 67, 15
1, 15623, Control_c, 0, 67, 15
1, 15638, Control_c, 0, 67, 16
1, 15653, Control_c, 0, 64, 10
1, 15653, Control_c, 0, 67, 17
1, 15668, Control_c, 0, 64, 8
1, 15668, Control_c, 0, 67, 18
1, 15678, Note_on_c, 0, 72, 46
1, 15688, Note_on_c, 0, 60, 40
1, 15690, Control_c, 0, 64, 0
1, 15705, Control_c, 0, 67, 18
1, 15720, Control_c, 0, 67, 19
1, 15725, Note_off_c, 0, 72, 61
1, 15734, Control_c, 0, 67, 22
1, 15749, Control_c, 0, 67, 29
1, 15752, Note_off_c, 0, 60, 60
1, 15764, Control_c, 0, 67, 37
1, 15779, Control_c, 0, 67, 42
1, 15794, Control_c, 0, 67, 47
1, 15808, Control_c, 0, 67, 51
1, 15823, Control_c, 0, 67, 54
1, 15838, Control_c, 0, 67, 57
1, 15853, Control_c, 0, 67, 57
1, 15868, Control_c, 0, 67, 56
1, 15882, Control_c, 0, 67, 56
1, 15897, Control_c, 0, 67, 55
1, 15912, Control_c, 0, 67, 55
1, 15926, Control_c, 0, 67, 54
1, 15941, Control_c, 0, 67, 54
1, 15956, Control_c, 0, 67, 53
1, 15970, Note_on_c, 0, 65, 36
1, 15971, Control_c, 0, 67, 52
1, 15977, Note_on_c, 0, 68, 38
1, 15986, Control_c, 0, 67, 52
1, 16001, Control_c, 0, 67, 51
1, 16031, Control_c, 0, 67, 51
1, 16060, Control_c, 0, 67, 50
1, 16077, Note_on_c, 0, 73, 53
1, 16081, Note_off_c, 0, 75, 59
1, 16090, Control_c, 0, 67, 50
1, 16119, Control_c, 0, 67, 49
1, 16134, Control_c, 0, 67, 49
1, 16159, Note_off_c, 0, 73, 62
1, 16179, Control_c, 0, 67, 48
1, 16202, Note_on_c, 0, 75, 57
1, 16242, Note_off_c, 0, 75, 64
1, 16255, Note_on_c, 0, 73, 65
1, 16257, Note_off_c, 0, 68, 59
1, 16270, Note_off_c, 0, 65, 58
1, 16285, Note_off_c, 0, 73, 66
1, 16323, Note_on_c, 0, 72, 57
1, 16342, Control_c, 0, 64, 9
1, 16342, Control_c, 0, 67, 49
1, 16357, Control_c, 0, 64, 11
1, 16357, Control_c, 0, 67, 49
1, 16364, Note_on_c, 0, 73, 58
1, 16365, Note_off_c, 0, 72, 53
1, 16372, Control_c, 0, 64, 12
1, 16372, Control_c, 0, 67, 50
1, 16387, Control_c, 0, 64, 13
1, 16402, Control_c, 0, 64, 14
1, 16402, Control_c, 0, 67, 50
1, 16413, Note_on_c, 0, 80, 59
1, 16424, Control_c, 0, 64, 15
1, 16424, Control_c, 0, 67, 51
1, 16439, Control_c, 0, 64, 15
1, 16454, Control_c, 0, 64, 16
1, 16454, Control_c, 0, 67, 51
1, 16469, Control_c, 0, 64, 16
1, 16484, Control_c, 0, 67, 52
1, 16493, Note_on_c, 0, 72, 58
1, 16499, Note_off_c, 0, 73, 38
1, 16515, Note_on_c, 0, 63, 34
1, 16522, Note_off_c, 0, 80, 48
1, 16522, Note_on_c, 0, 55, 33
1, 16579, Note_off_c, 0, 72, 58
1, 16633, Note_off_c, 0, 63, 54
1, 16634, Note_on_c, 0, 72, 51
1, 16646, Note_off_c, 0, 55, 48
1, 16660, Control_c, 0, 64, 15
1, 16674, Control_c, 0, 64, 14
1, 16679, Note_off_c, 0, 72, 65
1, 16689, Control_c, 0, 64, 13
1, 16698, Note_on_c, 0, 71, 57
1, 16704, Control_c, 0, 64, 13
1, 16704, Control_c, 0, 67, 52
1, 16719, Control_c, 0, 67, 53
1, 16727, Note_off_c, 0, 71, 51
1, 16734, Control_c, 0, 64, 12
1, 16747, Note_on_c, 0, 72, 43
1, 16748, Control_c, 0, 64, 12
1, 16748, Control_c, 0, 67, 53
1, 16763, Control_c, 0, 64, 11
1, 16763, Control_c, 0, 67, 54
1, 16773, Note_off_c, 0, 72, 58
1, 16778, Control_c, 0, 64, 10
1, 16778, Control_c, 0, 67, 54
1, 16782, Note_on_c, 0, 71, 56
1, 16793, Control_c, 0, 64, 9
1, 16793, Control_c, 0, 67, 55
1, 16803, Note_on_c, 0, 55, 21
1, 16808, Control_c, 0, 64, 8
1, 16821, Note_on_c, 0, 62, 40
1, 16822, Control_c, 0, 64, 0
1, 16896, Control_c, 0, 67, 54
1, 16926, Control_c, 0, 67, 54
1, 16937, Note_off_c, 0, 62, 61
1, 16955, Control_c, 0, 67, 53
1, 16968, Note_off_c, 0, 55, 58
1, 16985, Control_c, 0, 67, 53
1, 17000, Control_c, 0, 67, 52
1, 17015, Control_c, 0, 67, 52
1, 17059, Control_c, 0, 67, 51
1, 17090, Control_c, 0, 67, 51
1, 17134, Control_c, 0, 67, 50
1, 17285, Note_on_c, 0, 72, 44
1, 17345, Note_on_c, 0, 60, 23
1, 17346, Note_on_c, 0, 48, 23
1, 17393, Control_c, 0, 67, 50
1, 17521, Note_off_c, 0, 71, 34
1, 17719, Control_c, 0, 67, 49
1, 17778, Control_c, 0, 67, 49
1, 17838, Control_c, 0, 67, 48
1, 17882, Control_c, 0, 67, 48
1, 17935, Control_c, 0, 67, 47
1, 17965, Control_c, 0, 67, 47
1, 17980, Control_c, 0, 67, 46
1, 18024, Control_c, 0, 67, 46
1, 18068, Control_c, 0, 67, 45
1, 18083, Control_c, 0, 64, 8
1, 18098, Control_c, 0, 64, 9
1, 18113, Control_c, 0, 64, 10
1, 18127, Control_c, 0, 64, 11
1, 18142, Control_c, 0, 64, 12
1, 18172, Control_c, 0, 64, 13
1, 18201, Control_c, 0, 64, 13
1, 18216, Control_c, 0, 64, 14
1, 18231, Control_c, 0, 64, 16
1, 18246, Control_c, 0, 64, 17
1, 18261, Control_c, 0, 64, 19
1, 18261, Control_c, 0, 67, 46
1, 18274, Note_off_c, 0, 72, 57
1, 18275, Control_c, 0, 64, 21
1, 18275, Control_c, 0, 67, 46
1, 18290, Control_c, 0, 64, 22
1, 18297, Note_off_c, 0, 48, 46
1, 18305, Control_c, 0, 64, 22
1, 18305, Control_c, 0, 67, 47
1, 18320, Control_c, 0, 64, 23
1, 18320, Control_c, 0, 67, 47
1, 18335, Control_c, 0, 64, 24
1, 18335, Control_c, 0, 67, 48
1, 18350, Control_c, 0, 64, 25
1, 18350, Control_c, 0, 67, 49
1, 18351, Note_off_c, 0, 60, 41
1, 18365, Control_c, 0, 64, 25
1, 18380, Control_c, 0, 67, 49
1, 18424, Control_c, 0, 67, 49
1, 18454, Control_c, 0, 67, 48
1, 18468, Control_c, 0, 67, 48
1, 18483, Control_c, 0, 67, 47
1, 18498, Control_c, 0, 67, 46
1, 18512, Control_c, 0, 67, 46
1, 18527, Control_c, 0, 67, 45
1, 18542, Control_c, 0, 64, 25
1, 18542, Control_c, 0, 67, 45
1, 18557, Control_c, 0, 67, 44
1, 18572, Control_c, 0, 67, 43
1, 18587, Control_c, 0, 64, 24
1, 18601, Control_c, 0, 67, 43
1, 18613, Note_on_c, 0, 63, 77
1, 18616, Control_c, 0, 64, 24
1, 18616, Control_c, 0, 67, 42
1, 18631, Control_c, 0, 64, 23
1, 18631, Control_c, 0, 67, 40
1, 18646, Control_c, 0, 67, 36
1, 18661, Control_c, 0, 67, 32
1, 18683, Control_c, 0, 67, 28
1, 18698, Control_c, 0, 67, 26
1, 18713, Control_c, 0, 67, 24
1, 18728, Control_c, 0, 67, 24
1, 18788, Control_c, 0, 67, 23
1, 18847, Control_c, 0, 64, 24
1, 18862, Control_c, 0, 64, 24
1, 18966, Control_c, 0, 67, 23
1, 19070, Control_c, 0, 64, 25
1, 19099, Control_c, 0, 64, 25
1, 19105, Note_on_c, 0, 58, 55
1, 19107, Note_on_c, 0, 51, 52
1, 19107, Note_on_c, 0, 61, 54
1, 19114, Control_c, 0, 64, 26
1, 19129, Control_c, 0, 64, 26
1, 19137, Note_off_c, 0, 63, 63
1, 19143, Control_c, 0, 64, 27
1, 19143, Control_c, 0, 67, 22
1, 19158, Control_c, 0, 64, 27
1, 19188, Control_c, 0, 64, 28
1, 19217, Note_on_c, 0, 63, 65
1, 19256, Note_off_c, 0, 63, 62
1, 19277, Control_c, 0, 64, 28
1, 19292, Control_c, 0, 67, 23
1, 19321, Control_c, 0, 64, 29
1, 19330, Note_on_c, 0, 63, 71
1, 19336, Control_c, 0, 64, 30
1, 19351, Control_c, 0, 64, 31
1, 19366, Control_c, 0, 64, 32
1, 19375, Note_off_c, 0, 63, 61
1, 19381, Control_c, 0, 64, 32
1, 19390, Note_on_c, 0, 65, 65
1, 19396, Control_c, 0, 64, 33
1, 19411, Control_c, 0, 64, 33
1, 19432, Control_c, 0, 64, 34
1, 19435, Note_off_c, 0, 61, 39
1, 19440, Note_off_c, 0, 51, 58
1, 19444, Note_on_c, 0, 63, 68
1, 19445, Note_off_c, 0, 65, 62
1, 19462, Control_c, 0, 67, 22
1, 19491, Note_off_c, 0, 63, 64
1, 19491, Control_c, 0, 67, 22
1, 19505, Note_on_c, 0, 62, 72
1, 19552, Control_c, 0, 67, 21
1, 19562, Note_on_c, 0, 63, 71
1, 19566, Note_off_c, 0, 62, 65
1, 19612, Note_on_c, 0, 68, 70
1, 19618, Note_on_c, 0, 51, 40
1, 19618, Note_on_c, 0, 60, 58
1, 19628, Note_on_c, 0, 56, 61
1, 19640, Note_off_c, 0, 63, 63
1, 19660, Note_off_c, 0, 58, 36
1, 19687, Note_off_c, 0, 68, 57
1, 19700, Control_c, 0, 67, 22
1, 19715, Control_c, 0, 64, 34
1, 19722, Note_on_c, 0, 63, 64
1, 19730, Control_c, 0, 64, 35
1, 19745, Control_c, 0, 64, 35
1, 19770, Note_off_c, 0, 63, 63
1, 19825, Note_on_c, 0, 63, 62
1, 19885, Note_on_c, 0, 65, 68
1, 19886, Note_off_c, 0, 63, 63
1, 19938, Note_on_c, 0, 63, 49
1, 19941, Note_off_c, 0, 56, 60
1, 19941, Note_off_c, 0, 65, 62
1, 19952, Control_c, 0, 67, 21
1, 19965, Note_off_c, 0, 51, 34
1, 19974, Note_off_c, 0, 63, 66
1, 19989, Note_on_c, 0, 62, 68
1, 20026, Control_c, 0, 67, 21
1, 20050, Note_on_c, 0, 63, 76
1, 20052, Note_off_c, 0, 62, 64
1, 20055, Control_c, 0, 64, 36
1, 20070, Control_c, 0, 67, 20
1, 20085, Control_c, 0, 67, 19
1, 20096, Note_on_c, 0, 61, 57
1, 20097, Note_off_c, 0, 60, 35
1, 20099, Control_c, 0, 67, 18
1, 20100, Note_on_c, 0, 70, 70
1, 20104, Note_on_c, 0, 55, 54
1, 20106, Note_on_c, 0, 51, 50
1, 20114, Control_c, 0, 64, 36
1, 20129, Control_c, 0, 67, 18
1, 20132, Note_off_c, 0, 63, 63
1, 20188, Note_off_c, 0, 70, 58
1, 20196, Control_c, 0, 64, 37
1, 20210, Note_on_c, 0, 63, 69
1, 20211, Control_c, 0, 64, 38
1, 20226, Control_c, 0, 64, 38
1, 20226, Control_c, 0, 67, 18
1, 20240, Control_c, 0, 64, 39
1, 20271, Note_off_c, 0, 63, 64
1, 20285, Control_c, 0, 64, 39
1, 20314, Note_on_c, 0, 63, 53
1, 20375, Control_c, 0, 64, 39
1, 20376, Note_off_c, 0, 63, 63
1, 20386, Note_on_c, 0, 65, 67
1, 20418, Control_c, 0, 67, 18
1, 20426, Note_on_c, 0, 63, 55
1, 20427, Note_off_c, 0, 65, 64
1, 20430, Note_off_c, 0, 55, 59
1, 20451, Note_off_c, 0, 51, 60
1, 20463, Control_c, 0, 64, 38
1, 20477, Note_off_c, 0, 63, 64
1, 20486, Note_on_c, 0, 62, 71
1, 20545, Note_on_c, 0, 63, 67
1, 20547, Note_off_c, 0, 62, 62
1, 20557, Note_off_c, 0, 61, 57
1, 20567, Control_c, 0, 64, 38
1, 20631, Note_on_c, 0, 72, 61
1, 20664, Note_on_c, 0, 56, 34
1, 20670, Control_c, 0, 64, 37
1, 20672, Note_on_c, 0, 60, 39
1, 20684, Note_off_c, 0, 63, 58
1, 20700, Control_c, 0, 64, 37
1, 20759, Control_c, 0, 64, 36
1, 20892, Control_c, 0, 67, 18
1, 20913, Note_off_c, 0, 72, 63
1, 20914, Control_c, 0, 67, 19
1, 20929, Control_c, 0, 67, 19
1, 20944, Control_c, 0, 67, 20
1, 20974, Control_c, 0, 64, 37
1, 20974, Control_c, 0, 67, 20
1, 21048, Control_c, 0, 64, 36
1, 21165, Note_on_c, 0, 74, 52
1, 21268, Note_off_c, 0, 60, 46
1, 21286, Control_c, 0, 67, 20
1, 21289, Note_on_c, 0, 75, 61
1, 21315, Note_off_c, 0, 56, 58
1, 21316, Control_c, 0, 64, 36
1, 21331, Control_c, 0, 64, 35
1, 21333, Note_off_c, 0, 74, 54
1, 21345, Control_c, 0, 67, 19
1, 21390, Control_c, 0, 64, 35
1, 21390, Control_c, 0, 67, 19
1, 21411, Note_on_c, 0, 77, 66
1, 21419, Control_c, 0, 67, 18
1, 21434, Control_c, 0, 64, 34
1, 21447, Note_off_c, 0, 75, 61
1, 21449, Control_c, 0, 67, 18
1, 21464, Control_c, 0, 64, 34
1, 21479, Control_c, 0, 64, 33
1, 21493, Control_c, 0, 64, 33
1, 21523, Control_c, 0, 64, 32
1, 21525, Note_on_c, 0, 75, 71
1, 21567, Control_c, 0, 64, 32
1, 21582, Note_off_c, 0, 77, 53
1, 21597, Control_c, 0, 64, 31
1, 21626, Control_c, 0, 64, 31
1, 21641, Note_on_c, 0, 73, 69
1, 21641, Control_c, 0, 67, 17
1, 21678, Control_c, 0, 67, 17
1, 21693, Control_c, 0, 64, 30
1, 21693, Control_c, 0, 67, 16
1, 21708, Control_c, 0, 67, 15
1, 21723, Control_c, 0, 67, 10
1, 21737, Control_c, 0, 67, 0
1, 21745, Note_off_c, 0, 75, 63
1, 21760, Note_on_c, 0, 72, 71
1, 21770, Note_off_c, 0, 73, 64
1, 21870, Note_on_c, 0, 70, 68
1, 21873, Note_off_c, 0, 72, 59
1, 21975, Control_c, 0, 64, 30
1, 21990, Control_c, 0, 64, 29
1, 21991, Note_on_c, 0, 68, 67
1, 22005, Control_c, 0, 64, 28
1, 22020, Control_c, 0, 64, 28
1, 22034, Control_c, 0, 64, 27
1, 22049, Control_c, 0, 64, 27
1, 22064, Note_off_c, 0, 70, 50
1, 22094, Control_c, 0, 64, 26
1, 22135, Note_on_c, 0, 67, 58
1, 22156, Note_off_c, 0, 68, 60
1, 22305, Note_off_c, 0, 67, 64
1, 22316, Control_c, 0, 64, 27
1, 22346, Control_c, 0, 64, 28
1, 22360, Control_c, 0, 64, 28
1, 22375, Control_c, 0, 64, 29
1, 22390, Control_c, 0, 64, 29
1, 22394, Note_on_c, 0, 70, 57
1, 22428, Control_c, 0, 64, 30
1, 22546, Control_c, 0, 64, 30
1, 22598, Note_off_c, 0, 70, 61
1, 22656, Note_on_c, 0, 68, 62
1, 22799, Control_c, 0, 64, 31
1, 22844, Control_c, 0, 64, 31
1, 22873, Control_c, 0, 64, 32
1, 22904, Note_on_c, 0, 73, 62
1, 22917, Control_c, 0, 64, 32
1, 23029, Note_off_c, 0, 68, 63
1, 23110, Control_c, 0, 64, 32
1, 23140, Control_c, 0, 64, 31
1, 23155, Control_c, 0, 64, 31
1, 23166, Note_on_c, 0, 72, 66
1, 23191, Control_c, 0, 64, 30
1, 23221, Control_c, 0, 64, 30
1, 23265, Control_c, 0, 64, 29
1, 23295, Control_c, 0, 64, 29
1, 23310, Control_c, 0, 64, 28
1, 23343, Note_off_c, 0, 73, 35
1, 23384, Control_c, 0, 64, 28
1, 23432, Note_on_c, 0, 77, 57
1, 23556, Note_off_c, 0, 72, 62
1, 23578, Control_c, 0, 64, 27
1, 23607, Control_c, 0, 64, 27
1, 23637, Control_c, 0, 64, 26
1, 23681, Control_c, 0, 64, 26
1, 23696, Control_c, 0, 64, 25
1, 23711, Control_c, 0, 64, 25
1, 23720, Note_off_c, 0, 77, 56
1, 23726, Control_c, 0, 64, 24
1, 23740, Control_c, 0, 64, 23
1, 23755, Control_c, 0, 64, 22
1, 23766, Note_on_c, 0, 75, 51
1, 23770, Control_c, 0, 64, 21
1, 23785, Control_c, 0, 64, 20
1, 23800, Control_c, 0, 64, 19
1, 23829, Control_c, 0, 64, 19
1, 23844, Control_c, 0, 64, 18
1, 23888, Control_c, 0, 64, 18
1, 24192, Control_c, 0, 64, 17
1, 24221, Control_c, 0, 64, 17
1, 24251, Control_c, 0, 64, 16
1, 24265, Control_c, 0, 64, 15
1, 24282, Control_c, 0, 64, 15
1, 24297, Control_c, 0, 64, 14
1, 24311, Control_c, 0, 64, 13
1, 24326, Control_c, 0, 64, 13
1, 24341, Control_c, 0, 64, 12
1, 24385, Control_c, 0, 64, 12
1, 24414, Note_on_c, 0, 73, 54
1, 24444, Control_c, 0, 64, 11
1, 24507, Note_off_c, 0, 75, 34
1, 24530, Note_on_c, 0, 72, 58
1, 24562, Control_c, 0, 64, 12
1, 24573, Note_off_c, 0, 73, 51
1, 24607, Control_c, 0, 64, 13
1, 24616, Note_off_c, 0, 72, 62
1, 24628, Note_on_c, 0, 70, 68
1, 24636, Control_c, 0, 64, 13
1, 24659, Control_c, 0, 64, 14
1, 24705, Note_off_c, 0, 70, 62
1, 24769, Note_on_c, 0, 70, 59
1, 24851, Control_c, 0, 64, 15
1, 24881, Control_c, 0, 64, 15
1, 24896, Control_c, 0, 64, 16
1, 24911, Control_c, 0, 64, 16
1, 24926, Control_c, 0, 64, 17
1, 24940, Control_c, 0, 64, 17
1, 24970, Control_c, 0, 64, 18
1, 25000, Control_c, 0, 64, 18
1, 25030, Control_c, 0, 64, 19
1, 25104, Control_c, 0, 64, 19
1, 25134, Control_c, 0, 64, 20
1, 25149, Control_c, 0, 64, 21
1, 25223, Control_c, 0, 64, 21
1, 25247, Note_on_c, 0, 69, 54
1, 25258, Note_on_c, 0, 60, 42
1, 25258, Note_on_c, 0, 63, 45
1, 25272, Note_on_c, 0, 53, 38
1, 25282, Control_c, 0, 64, 22
1, 25312, Note_off_c, 0, 70, 55
1, 25326, Control_c, 0, 64, 22
1, 25357, Note_off_c, 0, 69, 64
1, 25359, Note_on_c, 0, 65, 58
1, 25414, Note_off_c, 0, 65, 64
1, 25482, Control_c, 0, 64, 23
1, 25496, Note_on_c, 0, 65, 51
1, 25497, Control_c, 0, 64, 23
1, 25512, Control_c, 0, 64, 25
1, 25520, Note_off_c, 0, 65, 57
1, 25526, Control_c, 0, 64, 25
1, 25530, Note_on_c, 0, 67, 66
1, 25538, Note_off_c, 0, 63, 63
1, 25541, Control_c, 0, 64, 26
1, 25556, Control_c, 0, 64, 26
1, 25571, Control_c, 0, 64, 27
1, 25582, Note_off_c, 0, 53, 56
1, 25584, Note_off_c, 0, 67, 64
1, 25589, Note_on_c, 0, 65, 68
1, 25621, Note_off_c, 0, 65, 65
1, 25629, Note_on_c, 0, 64, 71
1, 25657, Note_off_c, 0, 64, 66
1, 25674, Control_c, 0, 64, 27
1, 25686, Note_on_c, 0, 65, 72
1, 25689, Control_c, 0, 64, 28
1, 25704, Control_c, 0, 64, 28
1, 25718, Control_c, 0, 64, 29
1, 25747, Note_on_c, 0, 53, 41
1, 25750, Note_on_c, 0, 70, 71
1, 25753, Note_on_c, 0, 62, 55
1, 25755, Note_on_c, 0, 58, 52
1, 25757, Note_off_c, 0, 65, 61
1, 25795, Note_off_c, 0, 60, 57
1, 25808, Control_c, 0, 64, 29
1, 25838, Control_c, 0, 64, 30
1, 25855, Note_off_c, 0, 70, 61
1, 25865, Note_on_c, 0, 65, 64
1, 25867, Control_c, 0, 64, 31
1, 25897, Control_c, 0, 64, 31
1, 25909, Note_off_c, 0, 65, 64
1, 25927, Control_c, 0, 64, 32
1, 25942, Control_c, 0, 64, 32
1, 25957, Control_c, 0, 64, 33
1, 25967, Note_off_c, 0, 53, 58
1, 25972, Note_on_c, 0, 65, 60
1, 25972, Control_c, 0, 64, 34
1, 25987, Control_c, 0, 64, 34
1, 26001, Note_off_c, 0, 65, 66
1, 26020, Note_on_c, 0, 67, 71
1, 26064, Note_off_c, 0, 58, 65
1, 26069, Note_on_c, 0, 65, 69
1, 26073, Note_off_c, 0, 67, 62
1, 26107, Note_off_c, 0, 65, 64
1, 26116, Note_on_c, 0, 64, 70
1, 26145, Note_off_c, 0, 64, 67
1, 26174, Note_on_c, 0, 65, 60
1, 26216, Control_c, 0, 64, 34
1, 26235, Note_on_c, 0, 72, 72
1, 26236, Note_on_c, 0, 63, 56
1, 26242, Note_on_c, 0, 57, 52
1, 26257, Note_off_c, 0, 65, 62
1, 26261, Control_c, 0, 64, 33
1, 26264, Note_on_c, 0, 53, 48
1, 26282, Note_off_c, 0, 62, 60
1, 26334, Note_on_c, 0, 65, 70
1, 26356, Note_off_c, 0, 72, 62
1, 26401, Note_off_c, 0, 65, 62
1, 26455, Note_on_c, 0, 65, 65
1, 26496, Note_off_c, 0, 65, 62
1, 26513, Note_on_c, 0, 67, 73
1, 26566, Note_on_c, 0, 65, 72
1, 26584, Note_off_c, 0, 67, 62
1, 26601, Note_off_c, 0, 57, 60
1, 26601, Note_on_c, 0, 64, 72
1, 26601, Note_off_c, 0, 65, 65
1, 26631, Control_c, 0, 64, 34
1, 26644, Note_off_c, 0, 64, 63
1, 26648, Note_off_c, 0, 63, 63
1, 26660, Note_on_c, 0, 65, 70
1, 26661, Control_c, 0, 64, 34
1, 26771, Note_on_c, 0, 74, 65
1, 26818, Note_on_c, 0, 58, 36
1, 26821, Note_off_c, 0, 65, 62
1, 26826, Control_c, 0, 64, 34
1, 26828, Note_on_c, 0, 62, 42
1, 26870, Control_c, 0, 64, 33
1, 26922, Control_c, 0, 64, 33
1, 26965, Note_off_c, 0, 53, 57
1, 26981, Control_c, 0, 64, 32
1, 27026, Control_c, 0, 64, 32
1, 27040, Control_c, 0, 64, 31
1, 27129, Control_c, 0, 64, 32
1, 27193, Note_off_c, 0, 74, 63
1, 27276, Note_on_c, 0, 76, 60
1, 27322, Control_c, 0, 64, 31
1, 27351, Control_c, 0, 64, 31
1, 27366, Control_c, 0, 64, 30
1, 27381, Control_c, 0, 64, 30
1, 27411, Control_c, 0, 64, 29
1, 27419, Note_on_c, 0, 77, 67
1, 27486, Note_off_c, 0, 58, 59
1, 27492, Note_off_c, 0, 62, 61
1, 27523, Note_off_c, 0, 76, 31
1, 27536, Note_on_c, 0, 79, 75
1, 27567, Note_off_c, 0, 77, 62
1, 27662, Note_on_c, 0, 77, 74
1, 27686, Control_c, 0, 64, 29
1, 27701, Control_c, 0, 64, 28
1, 27715, Control_c, 0, 64, 28
1, 27718, Note_off_c, 0, 79, 56
1, 27730, Control_c, 0, 64, 27
1, 27745, Control_c, 0, 64, 27
1, 27767, Note_on_c, 0, 75, 71
1, 27775, Control_c, 0, 64, 26
1, 27877, Note_off_c, 0, 77, 54
1, 27885, Note_on_c, 0, 74, 72
1, 27967, Control_c, 0, 64, 26
1, 27969, Note_off_c, 0, 75, 59
1, 27987, Note_off_c, 0, 74, 64
1, 27992, Note_on_c, 0, 72, 68
1, 28011, Control_c, 0, 64, 25
1, 28026, Control_c, 0, 64, 25
1, 28056, Control_c, 0, 64, 24
1, 28085, Control_c, 0, 64, 24
1, 28091, Note_off_c, 0, 72, 63
1, 28100, Note_on_c, 0, 70, 66
1, 28100, Control_c, 0, 64, 23
1, 28130, Control_c, 0, 64, 23
1, 28175, Control_c, 0, 64, 22
1, 28204, Control_c, 0, 64, 22
1, 28245, Note_on_c, 0, 69, 57
1, 28264, Note_off_c, 0, 70, 62
1, 28323, Control_c, 0, 64, 23
1, 28338, Control_c, 0, 64, 25
1, 28353, Control_c, 0, 64, 27
1, 28368, Control_c, 0, 64, 29
1, 28383, Control_c, 0, 64, 30
1, 28404, Control_c, 0, 64, 31
1, 28419, Control_c, 0, 64, 31
1, 28421, Note_off_c, 0, 69, 65
1, 28514, Note_on_c, 0, 72, 65
1, 28538, Control_c, 0, 64, 31
1, 28553, Control_c, 0, 64, 30
1, 28568, Control_c, 0, 64, 30
1, 28583, Control_c, 0, 64, 29
1, 28598, Control_c, 0, 64, 28
1, 28612, Control_c, 0, 64, 27
1, 28625, Control_c, 0, 64, 26
1, 28640, Control_c, 0, 64, 26
1, 28655, Control_c, 0, 64, 25
1, 28670, Control_c, 0, 64, 24
1, 28684, Control_c, 0, 64, 23
1, 28699, Control_c, 0, 64, 23
1, 28714, Control_c, 0, 64, 22
1, 28744, Control_c, 0, 64, 21
1, 28750, Note_off_c, 0, 72, 55
1, 28774, Control_c, 0, 64, 20
1, 28789, Control_c, 0, 64, 20
1, 28798, Note_on_c, 0, 70, 55
1, 28803, Control_c, 0, 64, 19
1, 28833, Control_c, 0, 64, 19
1, 28951, Control_c, 0, 64, 19
1, 28966, Control_c, 0, 64, 21
1, 28974, Note_off_c, 0, 70, 63
1, 28981, Control_c, 0, 64, 22
1, 29010, Control_c, 0, 64, 22
1, 29025, Control_c, 0, 64, 23
1, 29040, Note_on_c, 0, 75, 74
1, 29071, Control_c, 0, 64, 23
1, 29152, Control_c, 0, 64, 23
1, 29197, Control_c, 0, 64, 22
1, 29226, Control_c, 0, 64, 22
1, 29256, Control_c, 0, 64, 21
1, 29272, Note_off_c, 0, 75, 53
1, 29286, Control_c, 0, 64, 21
1, 29295, Note_on_c, 0, 74, 72
1, 29315, Control_c, 0, 64, 20
1, 29345, Control_c, 0, 64, 19
1, 29449, Control_c, 0, 64, 18
1, 29464, Control_c, 0, 64, 18
1, 29479, Control_c, 0, 64, 17
1, 29494, Control_c, 0, 64, 16
1, 29508, Control_c, 0, 64, 15
1, 29537, Note_off_c, 0, 74, 0
1, 29538, Note_on_c, 0, 79, 78
1, 29552, Control_c, 0, 64, 15
1, 29574, Poly_aftertouch_c, 0, 74, 127
1, 29641, Control_c, 0, 64, 15
1, 29716, Control_c, 0, 64, 16
1, 29746, Control_c, 0, 64, 16
1, 29760, Control_c, 0, 64, 17
1, 29778, Poly_aftertouch_c, 0, 74, 0
1, 29888, Note_on_c, 0, 77, 65
1, 29939, Note_off_c, 0, 79, 28
1, 30109, Control_c, 0, 64, 16
1, 30124, Control_c, 0, 64, 16
1, 30139, Control_c, 0, 64, 15
1, 30154, Control_c, 0, 64, 15
1, 30169, Control_c, 0, 64, 14
1, 30183, Control_c, 0, 64, 13
1, 30183, Control_c, 0, 67, 8
1, 30198, Control_c, 0, 67, 8
1, 30228, Control_c, 0, 64, 13
1, 30228, Control_c, 0, 67, 9
1, 30257, Control_c, 0, 67, 9
1, 30316, Control_c, 0, 64, 12
1, 30331, Control_c, 0, 64, 11
1, 30331, Control_c, 0, 67, 10
1, 30346, Control_c, 0, 64, 9
1, 30361, Control_c, 0, 64, 8
1, 30361, Control_c, 0, 67, 12
1, 30375, Control_c, 0, 64, 0
1, 30405, Control_c, 0, 67, 12
1, 30434, Note_on_c, 0, 75, 56
1, 30449, Control_c, 0, 67, 13
1, 30457, Note_off_c, 0, 77, 55
1, 30494, Control_c, 0, 67, 13
1, 30548, Note_on_c, 0, 74, 59
1, 30591, Note_off_c, 0, 75, 54
1, 30624, Note_off_c, 0, 74, 63
1, 30643, Control_c, 0, 67, 13
1, 30654, Note_on_c, 0, 72, 63
1, 30664, Control_c, 0, 67, 12
1, 30695, Control_c, 0, 67, 12
1, 30710, Note_off_c, 0, 72, 59
1, 30725, Control_c, 0, 67, 11
1, 30754, Control_c, 0, 67, 11
1, 30765, Note_on_c, 0, 70, 57
1, 30828, Control_c, 0, 67, 10
1, 30872, Control_c, 0, 67, 10
1, 30908, Note_on_c, 0, 68, 55
1, 30917, Control_c, 0, 67, 9
1, 30923, Note_on_c, 0, 65, 39
1, 30961, Control_c, 0, 67, 9
1, 31005, Control_c, 0, 67, 8
1, 31018, Note_off_c, 0, 70, 34
1, 31035, Control_c, 0, 67, 8
1, 31065, Control_c, 0, 67, 0
1, 31168, Note_on_c, 0, 46, 36
1, 31420, Note_on_c, 0, 50, 39
1, 31489, Note_off_c, 0, 46, 53
1, 31676, Note_on_c, 0, 53, 42
1, 31731, Note_off_c, 0, 50, 55
1, 31737, Note_off_c, 0, 53, 60
1, 31910, Note_off_c, 0, 65, 63
1, 31922, Note_off_c, 0, 68, 64
1, 31932, Control_c, 0, 67, 8
1, 31941, Note_on_c, 0, 58, 43
1, 32065, Control_c, 0, 67, 0
1, 32174, Note_on_c, 0, 68, 53
1, 32178, Note_on_c, 0, 65, 40
1, 32263, Note_off_c, 0, 65, 63
1, 32265, Control_c, 0, 64, 9
1, 32267, Note_off_c, 0, 68, 65
1, 32281, Control_c, 0, 64, 11
1, 32296, Control_c, 0, 64, 13
1, 32311, Control_c, 0, 64, 15
1, 32325, Control_c, 0, 64, 16
1, 32340, Control_c, 0, 64, 17
1, 32369, Control_c, 0, 64, 18
1, 32384, Control_c, 0, 64, 18
1, 32399, Control_c, 0, 64, 19
1, 32414, Control_c, 0, 64, 21
1, 32414, Control_c, 0, 67, 8
1, 32419, Note_on_c, 0, 70, 59
1, 32429, Control_c, 0, 64, 21
1, 32434, Note_on_c, 0, 67, 54
1, 32444, Control_c, 0, 64, 22
1, 32444, Control_c, 0, 67, 8
1, 32473, Control_c, 0, 64, 23
1, 32503, Control_c, 0, 64, 23
1, 32519, Note_off_c, 0, 67, 63
1, 32524, Note_on_c, 0, 68, 62
1, 32538, Note_on_c, 0, 65, 58
1, 32540, Note_off_c, 0, 70, 60
1, 32554, Note_off_c, 0, 68, 66
1, 32586, Note_off_c, 0, 65, 57
1, 32592, Control_c, 0, 64, 23
1, 32622, Control_c, 0, 64, 22
1, 32637, Control_c, 0, 64, 21
1, 32640, Note_on_c, 0, 67, 60
1, 32647, Note_on_c, 0, 63, 58
1, 32651, Control_c, 0, 64, 20
1, 32666, Control_c, 0, 64, 19
1, 32710, Control_c, 0, 64, 19
1, 32739, Note_on_c, 0, 65, 61
1, 32744, Note_on_c, 0, 62, 66
1, 32756, Note_off_c, 0, 63, 53
1, 32767, Note_off_c, 0, 67, 58
1, 32769, Control_c, 0, 64, 18
1, 32791, Note_off_c, 0, 62, 63
1, 32794, Note_off_c, 0, 58, 53
1, 32805, Note_off_c, 0, 65, 63
1, 32858, Control_c, 0, 67, 8
1, 32873, Control_c, 0, 67, 0
1, 32889, Note_on_c, 0, 66, 71
1, 32934, Note_on_c, 0, 62, 52
1, 32955, Control_c, 0, 64, 18
1, 32969, Control_c, 0, 64, 17
1, 32984, Control_c, 0, 64, 17
1, 33014, Control_c, 0, 64, 16
1, 33029, Control_c, 0, 64, 16
1, 33058, Control_c, 0, 64, 15
1, 33074, Control_c, 0, 64, 14
1, 33089, Control_c, 0, 64, 13
1, 33104, Control_c, 0, 64, 12
1, 33119, Control_c, 0, 64, 12
1, 33134, Control_c, 0, 64, 11
1, 33149, Control_c, 0, 64, 10
1, 33163, Note_on_c, 0, 46, 37
1, 33164, Control_c, 0, 64, 9
1, 33179, Control_c, 0, 64, 8
1, 33193, Control_c, 0, 64, 0
1, 33398, Note_on_c, 0, 67, 50
1, 33414, Note_on_c, 0, 63, 36
1, 33433, Note_on_c, 0, 51, 26
1, 33469, Note_off_c, 0, 66, 43
1, 33526, Note_off_c, 0, 62, 46
1, 33533, Note_off_c, 0, 46, 41
1, 33671, Note_on_c, 0, 55, 34
1, 33749, Note_off_c, 0, 55, 60
1, 33756, Note_off_c, 0, 51, 56
1, 33881, Note_off_c, 0, 63, 59
1, 33881, Note_off_c, 0, 67, 64
1, 33932, Note_on_c, 0, 58, 46
1, 34174, Note_on_c, 0, 79, 52
1, 34176, Note_on_c, 0, 82, 55
1, 34270, Note_off_c, 0, 79, 64
1, 34280, Note_off_c, 0, 82, 64
1, 34423, Control_c, 0, 64, 8
1, 34432, Note_on_c, 0, 84, 55
1, 34438, Control_c, 0, 64, 9
1, 34441, Note_on_c, 0, 80, 60
1, 34453, Control_c, 0, 64, 11
1, 34468, Control_c, 0, 64, 12
1, 34482, Control_c, 0, 64, 13
1, 34497, Control_c, 0, 64, 14
1, 34512, Control_c, 0, 64, 15
1, 34527, Control_c, 0, 64, 16
1, 34530, Note_on_c, 0, 82, 69
1, 34537, Note_off_c, 0, 80, 63
1, 34540, Note_off_c, 0, 84, 64
1, 34542, Control_c, 0, 64, 17
1, 34543, Note_on_c, 0, 79, 61
1, 34557, Control_c, 0, 64, 18
1, 34563, Note_off_c, 0, 82, 64
1, 34572, Control_c, 0, 64, 18
1, 34587, Control_c, 0, 64, 19
1, 34596, Note_off_c, 0, 79, 61
1, 34616, Control_c, 0, 64, 20
1, 34630, Control_c, 0, 64, 21
1, 34645, Control_c, 0, 64, 21
1, 34646, Note_on_c, 0, 80, 71
1, 34649, Note_on_c, 0, 77, 59
1, 34656, Note_off_c, 0, 58, 62
1, 34660, Control_c, 0, 64, 23
1, 34676, Control_c, 0, 64, 23
1, 34691, Control_c, 0, 64, 24
1, 34706, Control_c, 0, 64, 24
1, 34720, Control_c, 0, 64, 25
1, 34742, Note_on_c, 0, 79, 72
1, 34750, Control_c, 0, 64, 25
1, 34754, Note_on_c, 0, 76, 69
1, 34764, Control_c, 0, 64, 26
1, 34774, Note_off_c, 0, 77, 63
1, 34792, Note_off_c, 0, 80, 58
1, 34810, Note_off_c, 0, 79, 65
1, 34822, Note_off_c, 0, 76, 63
1, 34868, Control_c, 0, 64, 25
1, 34883, Control_c, 0, 64, 25
1, 34885, Note_on_c, 0, 79, 77
1, 34898, Control_c, 0, 64, 24
1, 34906, Note_on_c, 0, 76, 65
1, 34912, Control_c, 0, 64, 24
1, 34942, Control_c, 0, 64, 23
1, 35046, Control_c, 0, 64, 23
1, 35061, Control_c, 0, 64, 22
1, 35061, Control_c, 0, 67, 8
1, 35076, Control_c, 0, 64, 21
1, 35076, Control_c, 0, 67, 10
1, 35090, Control_c, 0, 64, 20
1, 35090, Control_c, 0, 67, 11
1, 35105, Control_c, 0, 64, 19
1, 35105, Control_c, 0, 67, 11
1, 35120, Control_c, 0, 64, 18
1, 35120, Control_c, 0, 67, 12
1, 35135, Control_c, 0, 64, 17
1, 35135, Control_c, 0, 67, 13
1, 35151, Note_on_c, 0, 46, 44
1, 35157, Control_c, 0, 64, 16
1, 35171, Control_c, 0, 64, 15
1, 35171, Control_c, 0, 67, 13
1, 35186, Control_c, 0, 64, 13
1, 35201, Control_c, 0, 64, 12
1, 35216, Control_c, 0, 64, 12
1, 35245, Control_c, 0, 64, 11
1, 35245, Control_c, 0, 67, 13
1, 35247, Note_off_c, 0, 46, 61
1, 35275, Control_c, 0, 67, 12
1, 35290, Control_c, 0, 64, 10
1, 35320, Control_c, 0, 67, 12
1, 35350, Control_c, 0, 64, 9
1, 35398, Note_on_c, 0, 80, 54
1, 35399, Note_on_c, 0, 50, 44
1, 35422, Note_on_c, 0, 77, 48
1, 35424, Control_c, 0, 67, 11
1, 35462, Note_off_c, 0, 79, 58
1, 35470, Note_off_c, 0, 76, 55
1, 35474, Note_off_c, 0, 50, 55
1, 35499, Control_c, 0, 67, 11
1, 35502, Note_on_c, 0, 46, 44
1, 35558, Control_c, 0, 67, 10
1, 35573, Control_c, 0, 67, 10
1, 35600, Note_off_c, 0, 46, 50
1, 35620, Note_on_c, 0, 53, 32
1, 35632, Control_c, 0, 67, 9
1, 35706, Control_c, 0, 67, 9
1, 35723, Note_on_c, 0, 50, 37
1, 35761, Note_off_c, 0, 53, 33
1, 35765, Control_c, 0, 67, 8
1, 35809, Control_c, 0, 67, 8
1, 35873, Note_on_c, 0, 58, 42
1, 35906, Control_c, 0, 64, 8
1, 35920, Control_c, 0, 64, 0
1, 35940, Note_off_c, 0, 77, 65
1, 35949, Note_off_c, 0, 80, 63
1, 35954, Note_off_c, 0, 50, 38
1, 36054, Control_c, 0, 67, 8
1, 36083, Control_c, 0, 67, 9
1, 36098, Control_c, 0, 67, 9
1, 36113, Note_on_c, 0, 80, 54
1, 36113, Control_c, 0, 67, 10
1, 36128, Control_c, 0, 67, 10
1, 36132, Note_on_c, 0, 77, 46
1, 36143, Control_c, 0, 67, 11
1, 36158, Control_c, 0, 67, 11
1, 36173, Control_c, 0, 67, 12
1, 36187, Control_c, 0, 67, 12
1, 36246, Note_off_c, 0, 77, 64
1, 36247, Note_off_c, 0, 80, 62
1, 36307, Control_c, 0, 67, 12
1, 36322, Control_c, 0, 67, 11
1, 36336, Control_c, 0, 67, 10
1, 36351, Control_c, 0, 67, 9
1, 36354, Note_on_c, 0, 82, 52
1, 36363, Note_on_c, 0, 78, 53
1, 36366, Control_c, 0, 67, 9
1, 36396, Control_c, 0, 67, 8
1, 36425, Control_c, 0, 67, 8
1, 36440, Control_c, 0, 67, 0
1, 36446, Note_off_c, 0, 78, 62
1, 36451, Note_on_c, 0, 80, 64
1, 36467, Note_off_c, 0, 82, 57
1, 36469, Note_on_c, 0, 77, 53
1, 36482, Note_off_c, 0, 80, 63
1, 36520, Note_off_c, 0, 77, 58
1, 36537, Note_off_c, 0, 58, 64
1, 36561, Note_on_c, 0, 75, 63
1, 36570, Note_on_c, 0, 78, 63
1, 36667, Note_on_c, 0, 77, 63
1, 36667, Note_off_c, 0, 75, 61
1, 36688, Note_on_c, 0, 74, 51
1, 36729, Note_off_c, 0, 78, 34
1, 36736, Note_off_c, 0, 74, 63
1, 36744, Note_off_c, 0, 77, 60
1, 36815, Note_on_c, 0, 78, 58
1, 36835, Note_on_c, 0, 75, 46
1, 37058, Note_off_c, 0, 75, 53
1, 37071, Note_on_c, 0, 57, 43
1, 37173, Note_on_c, 0, 45, 53
1, 37212, Note_off_c, 0, 57, 59
1, 37225, Note_off_c, 0, 45, 60
1, 37299, Note_on_c, 0, 79, 74
1, 37321, Note_on_c, 0, 75, 52
1, 37464, Note_off_c, 0, 78, 58
1, 37559, Note_on_c, 0, 58, 58
1, 37666, Note_on_c, 0, 46, 65
1, 37687, Note_off_c, 0, 75, 64
1, 37740, Note_off_c, 0, 58, 64
1, 37743, Note_off_c, 0, 46, 63
1, 37745, Control_c, 0, 64, 8
1, 37774, Control_c, 0, 64, 9
1, 37789, Control_c, 0, 64, 10
1, 37790, Note_on_c, 0, 80, 76
1, 37804, Control_c, 0, 64, 11
1, 37812, Note_on_c, 0, 75, 65
1, 37819, Control_c, 0, 64, 12
1, 37833, Control_c, 0, 64, 13
1, 37848, Control_c, 0, 64, 14
1, 37864, Control_c, 0, 64, 15
1, 37879, Control_c, 0, 64, 15
1, 37933, Note_off_c, 0, 79, 34
1, 38016, Note_on_c, 0, 60, 68
1, 38077, Note_off_c, 0, 75, 62
1, 38128, Note_on_c, 0, 48, 70
1, 38153, Control_c, 0, 64, 15
1, 38183, Control_c, 0, 64, 14
1, 38212, Control_c, 0, 64, 13
1, 38216, Note_off_c, 0, 60, 61
1, 38231, Note_off_c, 0, 48, 64
1, 38273, Note_on_c, 0, 81, 84
1, 38306, Note_on_c, 0, 75, 55
1, 38390, Control_c, 0, 64, 13
1, 38420, Note_off_c, 0, 80, 63
1, 38420, Control_c, 0, 64, 12
1, 38435, Control_c, 0, 64, 12
1, 38435, Control_c, 0, 67, 8
1, 38450, Control_c, 0, 64, 11
1, 38450, Control_c, 0, 67, 8
1, 38464, Control_c, 0, 64, 10
1, 38464, Control_c, 0, 67, 9
1, 38494, Control_c, 0, 64, 9
1, 38494, Control_c, 0, 67, 10
1, 38509, Control_c, 0, 67, 10
1, 38519, Note_on_c, 0, 59, 46
1, 38523, Control_c, 0, 67, 11
1, 38553, Control_c, 0, 67, 12
1, 38568, Control_c, 0, 64, 8
1, 38568, Control_c, 0, 67, 13
1, 38579, Note_off_c, 0, 59, 54
1, 38582, Control_c, 0, 67, 14
1, 38597, Control_c, 0, 67, 15
1, 38612, Control_c, 0, 67, 17
1, 38627, Control_c, 0, 67, 21
1, 38629, Note_on_c, 0, 47, 55
1, 38641, Control_c, 0, 64, 0
1, 38641, Control_c, 0, 67, 24
1, 38658, Control_c, 0, 67, 25
1, 38673, Control_c, 0, 67, 26
1, 38715, Note_off_c, 0, 75, 64
1, 38731, Control_c, 0, 67, 25
1, 38733, Note_off_c, 0, 47, 62
1, 38739, Note_off_c, 0, 81, 63
1, 38753, Note_on_c, 0, 46, 55
1, 38776, Control_c, 0, 67, 25
1, 38791, Control_c, 0, 67, 24
1, 38820, Control_c, 0, 67, 24
1, 38835, Control_c, 0, 67, 23
1, 38850, Note_on_c, 0, 58, 41
1, 38850, Control_c, 0, 67, 22
1, 38865, Control_c, 0, 67, 22
1, 38902, Control_c, 0, 67, 21
1, 38917, Control_c, 0, 67, 21
1, 38932, Control_c, 0, 67, 20
1, 38961, Control_c, 0, 67, 20
1, 38982, Note_on_c, 0, 74, 58
1, 39006, Control_c, 0, 67, 19
1, 39035, Note_off_c, 0, 46, 34
1, 39050, Control_c, 0, 67, 19
1, 39094, Control_c, 0, 67, 18
1, 39099, Note_on_c, 0, 82, 62
1, 39112, Note_off_c, 0, 74, 56
1, 39138, Control_c, 0, 67, 18
1, 39207, Note_on_c, 0, 80, 69
1, 39227, Control_c, 0, 67, 17
1, 39235, Note_off_c, 0, 58, 58
1, 39286, Control_c, 0, 67, 17
1, 39316, Control_c, 0, 67, 16
1, 39321, Note_on_c, 0, 79, 78
1, 39324, Note_off_c, 0, 82, 53
1, 39360, Control_c, 0, 67, 16
1, 39390, Control_c, 0, 67, 15
1, 39394, Note_off_c, 0, 80, 61
1, 39418, Note_on_c, 0, 77, 71
1, 39420, Note_off_c, 0, 79, 63
1, 39525, Note_on_c, 0, 75, 76
1, 39540, Note_off_c, 0, 77, 53
1, 39583, Control_c, 0, 67, 15
1, 39650, Note_on_c, 0, 74, 69
1, 39694, Control_c, 0, 67, 14
1, 39723, Note_off_c, 0, 75, 61
1, 39743, Note_off_c, 0, 74, 64
1, 39751, Note_on_c, 0, 72, 66
1, 39861, Note_on_c, 0, 70, 66
1, 39869, Note_off_c, 0, 72, 58
1, 39931, Control_c, 0, 67, 14
1, 39973, Note_on_c, 0, 68, 54
1, 40077, Note_off_c, 0, 68, 64
1, 40089, Note_on_c, 0, 67, 67
1, 40101, Note_off_c, 0, 70, 54
1, 40108, Control_c, 0, 67, 13
1, 40202, Note_on_c, 0, 65, 61
1, 40206, Note_off_c, 0, 67, 61
1, 40313, Note_off_c, 0, 65, 61
1, 40315, Note_on_c, 0, 63, 68
1, 40421, Note_off_c, 0, 63, 64
1, 40437, Note_on_c, 0, 62, 68
1, 40502, Control_c, 0, 67, 14
1, 40542, Note_off_c, 0, 62, 62
1, 40546, Note_on_c, 0, 60, 63
1, 40546, Control_c, 0, 67, 14
1, 40576, Control_c, 0, 67, 15
1, 40606, Control_c, 0, 67, 15
1, 40636, Control_c, 0, 67, 16
1, 40638, Note_off_c, 0, 60, 62
1, 40651, Control_c, 0, 67, 16
1, 40653, Note_on_c, 0, 58, 56
1, 40680, Control_c, 0, 67, 17
1, 40775, Note_off_c, 0, 58, 59
1, 40784, Note_on_c, 0, 56, 47
1, 40897, Note_on_c, 0, 84, 56
1, 41014, Note_on_c, 0, 82, 66
1, 41121, Note_on_c, 0, 80, 67
1, 41139, Note_off_c, 0, 56, 56
1, 41163, Control_c, 0, 67, 17
1, 41203, Note_off_c, 0, 84, 33
1, 41248, Note_on_c, 0, 79, 75
1, 41316, Note_off_c, 0, 82, 30
1, 41345, Note_off_c, 0, 80, 58
1, 41354, Note_on_c, 0, 77, 71
1, 41359, Note_off_c, 0, 79, 61
1, 41464, Note_on_c, 0, 76, 72
1, 41487, Note_off_c, 0, 77, 62
1, 41547, Control_c, 0, 67, 18
1, 41562, Control_c, 0, 67, 18
1, 41564, Note_on_c, 0, 77, 76
1, 41575, Note_off_c, 0, 76, 55
1, 41577, Control_c, 0, 67, 19
1, 41606, Control_c, 0, 67, 19
1, 41680, Note_on_c, 0, 78, 74
1, 41708, Note_off_c, 0, 77, 63
1, 41791, Note_on_c, 0, 77, 73
1, 41800, Note_off_c, 0, 78, 60
1, 41859, Control_c, 0, 67, 20
1, 41906, Note_on_c, 0, 79, 74
1, 41911, Control_c, 0, 67, 20
1, 41926, Note_off_c, 0, 77, 61
1, 41955, Control_c, 0, 67, 21
1, 42014, Note_on_c, 0, 77, 74
1, 42043, Note_off_c, 0, 79, 64
1, 42074, Control_c, 0, 67, 20
1, 42140, Note_on_c, 0, 80, 63
1, 42158, Note_off_c, 0, 77, 59
1, 42263, Note_on_c, 0, 77, 58
1, 42366, Note_off_c, 0, 77, 62
1, 42385, Control_c, 0, 67, 20
1, 42387, Note_on_c, 0, 76, 52
1, 42429, Control_c, 0, 67, 19
1, 42481, Note_off_c, 0, 80, 13
1, 42488, Control_c, 0, 67, 19
1, 42494, Note_off_c, 0, 76, 57
1, 42498, Note_on_c, 0, 77, 52
1, 42533, Control_c, 0, 67, 18
1, 42604, Note_on_c, 0, 78, 53
1, 42630, Note_off_c, 0, 77, 53
1, 42710, Note_off_c, 0, 78, 59
1, 42726, Note_on_c, 0, 77, 48
1, 42748, Control_c, 0, 67, 18
1, 42778, Control_c, 0, 67, 17
1, 42823, Control_c, 0, 67, 17
1, 42837, Note_off_c, 0, 77, 59
1, 42854, Note_on_c, 0, 79, 53
1, 42977, Note_off_c, 0, 79, 55
1, 42978, Note_on_c, 0, 77, 48
1, 43089, Control_c, 0, 67, 16
1, 43093, Note_off_c, 0, 77, 58
1, 43094, Note_on_c, 0, 80, 54
1, 43118, Control_c, 0, 67, 16
1, 43133, Control_c, 0, 67, 15
1, 43163, Control_c, 0, 67, 15
1, 43193, Control_c, 0, 67, 14
1, 43207, Note_on_c, 0, 77, 54
1, 43207, Control_c, 0, 67, 14
1, 43237, Control_c, 0, 67, 13
1, 43252, Control_c, 0, 67, 13
1, 43267, Control_c, 0, 67, 12
1, 43296, Control_c, 0, 67, 11
1, 43308, Note_on_c, 0, 76, 61
1, 43311, Note_off_c, 0, 77, 62
1, 43326, Control_c, 0, 67, 11
1, 43341, Control_c, 0, 67, 8
1, 43356, Control_c, 0, 67, 0
1, 43426, Note_on_c, 0, 77, 74
1, 43446, Note_off_c, 0, 76, 57
1, 43530, Note_on_c, 0, 78, 74
1, 43566, Note_off_c, 0, 77, 61
1, 43609, Note_off_c, 0, 80, 20
1, 43632, Note_on_c, 0, 77, 68
1, 43636, Note_off_c, 0, 78, 60
1, 43744, Note_on_c, 0, 79, 76
1, 43754, Note_off_c, 0, 77, 63
1, 43847, Note_on_c, 0, 77, 76
1, 43873, Note_off_c, 0, 79, 64
1, 43883, Control_c, 0, 64, 9
1, 43898, Control_c, 0, 64, 12
1, 43913, Control_c, 0, 64, 12
1, 43927, Control_c, 0, 64, 13
1, 43942, Control_c, 0, 64, 13
1, 43956, Note_on_c, 0, 80, 78
1, 43957, Control_c, 0, 64, 14
1, 43972, Control_c, 0, 64, 15
1, 44010, Note_off_c, 0, 77, 61
1, 44048, Note_on_c, 0, 77, 61
1, 44075, Control_c, 0, 64, 14
1, 44194, Note_on_c, 0, 75, 75
1, 44216, Control_c, 0, 64, 13
1, 44310, Note_off_c, 0, 77, 53
1, 44403, Note_off_c, 0, 80, 35
1, 44427, Note_on_c, 0, 68, 59
1, 44433, Note_on_c, 0, 58, 54
1, 44436, Note_on_c, 0, 65, 53
1, 44462, Note_off_c, 0, 68, 66
1, 44467, Note_off_c, 0, 65, 65
1, 44471, Note_off_c, 0, 58, 67
1, 44603, Control_c, 0, 64, 13
1, 44617, Control_c, 0, 64, 12
1, 44632, Control_c, 0, 64, 12
1, 44647, Control_c, 0, 64, 11
1, 44662, Control_c, 0, 64, 10
1, 44674, Note_on_c, 0, 58, 54
1, 44675, Note_on_c, 0, 68, 57
1, 44683, Note_on_c, 0, 65, 50
1, 44722, Note_off_c, 0, 68, 63
1, 44725, Note_off_c, 0, 65, 66
1, 44726, Note_off_c, 0, 58, 65
1, 44936, Note_on_c, 0, 58, 53
1, 44936, Note_on_c, 0, 68, 58
1, 44942, Note_on_c, 0, 65, 58
1, 44965, Control_c, 0, 64, 9
1, 44969, Note_off_c, 0, 68, 65
1, 44973, Note_off_c, 0, 65, 65
1, 44977, Note_off_c, 0, 58, 66
1, 45113, Control_c, 0, 64, 8
1, 45128, Control_c, 0, 64, 0
1, 45243, Note_on_c, 0, 68, 35
1, 45246, Note_on_c, 0, 65, 38
1, 45251, Note_on_c, 0, 58, 35
1, 45302, Note_off_c, 0, 75, 63
1, 45339, Note_on_c, 0, 74, 47
1, 45407, Note_off_c, 0, 74, 59
1, 45419, Note_on_c, 0, 75, 58
1, 45461, Note_off_c, 0, 75, 63
1, 45488, Note_on_c, 0, 77, 60
1, 45542, Note_on_c, 0, 75, 68
1, 45551, Note_off_c, 0, 77, 63
1, 45601, Note_off_c, 0, 75, 64
1, 45610, Note_on_c, 0, 74, 73
1, 45686, Note_off_c, 0, 74, 60
1, 45699, Note_on_c, 0, 80, 71
1, 45776, Note_on_c, 0, 79, 75
1, 45777, Note_off_c, 0, 80, 63
1, 45834, Note_on_c, 0, 77, 74
1, 45837, Note_off_c, 0, 79, 65
1, 45915, Note_on_c, 0, 84, 77
1, 45953, Note_off_c, 0, 77, 63
1, 45994, Note_on_c, 0, 80, 69
1, 46057, Note_on_c, 0, 77, 74
1, 46114, Note_off_c, 0, 58, 34
1, 46162, Note_off_c, 0, 80, 49
1, 46164, Note_on_c, 0, 75, 72
1, 46174, Note_off_c, 0, 65, 27
1, 46301, Note_off_c, 0, 77, 49
1, 46422, Note_on_c, 0, 59, 37
1, 46435, Note_off_c, 0, 84, 51
1, 46466, Note_off_c, 0, 68, 47
1, 46500, Note_on_c, 0, 65, 46
1, 46543, Note_off_c, 0, 59, 36
1, 46577, Note_on_c, 0, 68, 50
1, 46606, Note_off_c, 0, 65, 56
1, 46625, Control_c, 0, 67, 8
1, 46640, Control_c, 0, 67, 8
1, 46658, Note_on_c, 0, 59, 55
1, 46671, Control_c, 0, 67, 9
1, 46700, Control_c, 0, 67, 9
1, 46715, Control_c, 0, 67, 10
1, 46722, Note_off_c, 0, 68, 36
1, 46730, Control_c, 0, 67, 11
1, 46745, Control_c, 0, 67, 11
1, 46746, Note_on_c, 0, 65, 48
1, 46774, Control_c, 0, 67, 12
1, 46779, Note_off_c, 0, 59, 62
1, 46789, Control_c, 0, 67, 12
1, 46804, Control_c, 0, 67, 13
1, 46835, Note_on_c, 0, 68, 46
1, 46848, Control_c, 0, 67, 14
1, 46865, Note_off_c, 0, 65, 58
1, 46878, Control_c, 0, 67, 14
1, 46907, Control_c, 0, 67, 15
1, 46924, Note_on_c, 0, 59, 47
1, 46981, Control_c, 0, 67, 15
1, 46996, Note_off_c, 0, 68, 35
1, 47023, Note_on_c, 0, 65, 36
1, 47051, Note_off_c, 0, 59, 53
1, 47056, Control_c, 0, 67, 16
1, 47122, Control_c, 0, 67, 16
1, 47145, Note_on_c, 0, 68, 32
1, 47166, Control_c, 0, 67, 17
1, 47196, Control_c, 0, 67, 20
1, 47211, Control_c, 0, 67, 22
1, 47226, Control_c, 0, 67, 25
1, 47241, Control_c, 0, 67, 27
1, 47256, Control_c, 0, 67, 27
1, 47300, Control_c, 0, 67, 28
1, 47313, Note_on_c, 0, 59, 41
1, 47390, Control_c, 0, 67, 27
1, 47434, Control_c, 0, 67, 27
1, 47494, Control_c, 0, 67, 26
1, 47509, Control_c, 0, 67, 26
1, 47569, Control_c, 0, 67, 25
1, 47594, Note_on_c, 0, 74, 42
1, 47601, Note_off_c, 0, 75, 59
1, 47628, Control_c, 0, 67, 25
1, 47721, Note_off_c, 0, 74, 57
1, 47732, Note_on_c, 0, 75, 52
1, 47775, Control_c, 0, 67, 24
1, 47817, Note_off_c, 0, 75, 63
1, 47835, Control_c, 0, 67, 24
1, 47836, Note_on_c, 0, 77, 51
1, 47872, Control_c, 0, 67, 23
1, 47901, Control_c, 0, 67, 23
1, 47916, Control_c, 0, 67, 22
1, 47917, Note_off_c, 0, 77, 64
1, 47930, Note_on_c, 0, 75, 56
1, 47946, Control_c, 0, 67, 22
1, 47975, Control_c, 0, 67, 21
1, 47990, Control_c, 0, 67, 20
1, 47992, Note_off_c, 0, 75, 60
1, 48005, Control_c, 0, 67, 20
1, 48019, Note_on_c, 0, 74, 55
1, 48020, Control_c, 0, 67, 19
1, 48049, Control_c, 0, 67, 19
1, 48064, Control_c, 0, 67, 18
1, 48079, Control_c, 0, 67, 17
1, 48093, Control_c, 0, 67, 17
1, 48117, Note_on_c, 0, 80, 50
1, 48123, Control_c, 0, 67, 16
1, 48127, Note_off_c, 0, 74, 58
1, 48138, Control_c, 0, 67, 16
1, 48153, Control_c, 0, 67, 15
1, 48224, Note_on_c, 0, 78, 53
1, 48229, Note_off_c, 0, 80, 51
1, 48242, Control_c, 0, 67, 15
1, 48303, Note_off_c, 0, 78, 60
1, 48325, Note_on_c, 0, 77, 48
1, 48347, Control_c, 0, 67, 14
1, 48451, Note_on_c, 0, 83, 44
1, 48522, Note_off_c, 0, 77, 41
1, 48564, Note_on_c, 0, 80, 48
1, 48654, Note_off_c, 0, 80, 54
1, 48677, Note_on_c, 0, 77, 37
1, 48919, Note_on_c, 0, 75, 46
1, 48931, Control_c, 0, 67, 15
1, 48976, Control_c, 0, 67, 15
1, 49005, Control_c, 0, 67, 16
1, 49020, Control_c, 0, 67, 16
1, 49051, Control_c, 0, 67, 17
1, 49052, Note_off_c, 0, 77, 56
1, 49079, Note_off_c, 0, 83, 47
1, 49095, Note_off_c, 0, 59, 28
1, 49140, Control_c, 0, 64, 12
1, 49154, Control_c, 0, 64, 15
1, 49169, Control_c, 0, 64, 15
1, 49184, Control_c, 0, 64, 17
1, 49199, Control_c, 0, 64, 22
1, 49214, Control_c, 0, 64, 29
1, 49229, Control_c, 0, 64, 35
1, 49244, Control_c, 0, 64, 41
1, 49244, Control_c, 0, 67, 17
1, 49259, Control_c, 0, 64, 45
1, 49274, Control_c, 0, 64, 48
1, 49288, Control_c, 0, 64, 51
1, 49303, Control_c, 0, 64, 54
1, 49318, Control_c, 0, 64, 56
1, 49333, Control_c, 0, 64, 58
1, 49333, Control_c, 0, 67, 18
1, 49337, Note_on_c, 0, 59, 29
1, 49347, Control_c, 0, 64, 59
1, 49362, Control_c, 0, 64, 61
1, 49362, Control_c, 0, 67, 18
1, 49364, Note_off_c, 0, 65, 39
1, 49384, Control_c, 0, 64, 62
1, 49384, Control_c, 0, 67, 19
1, 49399, Control_c, 0, 64, 63
1, 49399, Control_c, 0, 67, 19
1, 49414, Control_c, 0, 64, 64
1, 49414, Control_c, 0, 67, 20
1, 49429, Control_c, 0, 64, 65
1, 49429, Control_c, 0, 67, 22
1, 49444, Control_c, 0, 64, 68
1, 49444, Control_c, 0, 67, 23
1, 49458, Control_c, 0, 64, 70
1, 49458, Control_c, 0, 67, 24
1, 49473, Control_c, 0, 64, 72
1, 49473, Control_c, 0, 67, 24
1, 49488, Control_c, 0, 64, 73
1, 49488, Control_c, 0, 67, 26
1, 49503, Control_c, 0, 64, 74
1, 49503, Control_c, 0, 67, 27
1, 49518, Control_c, 0, 64, 75
1, 49518, Control_c, 0, 67, 28
1, 49519, Note_off_c, 0, 68, 41
1, 49533, Control_c, 0, 64, 76
1, 49533, Control_c, 0, 67, 29
1, 49548, Control_c, 0, 64, 76
1, 49548, Control_c, 0, 67, 32
1, 49562, Control_c, 0, 67, 39
1, 49577, Control_c, 0, 67, 46
1, 49578, Note_on_c, 0, 65, 26
1, 49591, Control_c, 0, 67, 52
1, 49606, Control_c, 0, 67, 56
1, 49620, Control_c, 0, 67, 60
1, 49635, Control_c, 0, 67, 63
1, 49650, Control_c, 0, 67, 66
1, 49665, Control_c, 0, 67, 67
1, 49680, Note_off_c, 0, 59, 42
1, 49712, Note_off_c, 0, 65, 42
1, 49724, Control_c, 0, 67, 67
1, 49730, Note_on_c, 0, 68, 23
1, 49754, Control_c, 0, 67, 66
1, 49768, Control_c, 0, 67, 66
1, 49783, Control_c, 0, 67, 65
1, 49798, Control_c, 0, 67, 65
1, 49813, Note_on_c, 0, 59, 38
1, 49828, Control_c, 0, 67, 64
1, 49840, Note_off_c, 0, 68, 29
1, 49843, Control_c, 0, 67, 64
1, 49888, Control_c, 0, 67, 63
1, 49917, Control_c, 0, 67, 63
1, 49956, Note_on_c, 0, 65, 41
1, 49962, Control_c, 0, 67, 62
1, 50005, Note_off_c, 0, 59, 38
1, 50037, Control_c, 0, 67, 62
1, 50044, Note_off_c, 0, 65, 37
1, 50065, Note_on_c, 0, 68, 38
1, 50132, Control_c, 0, 67, 61
1, 50150, Note_on_c, 0, 59, 36
1, 50193, Note_off_c, 0, 68, 28
1, 50266, Control_c, 0, 64, 76
1, 50281, Control_c, 0, 67, 61
1, 50335, Note_on_c, 0, 65, 32
1, 50399, Control_c, 0, 67, 60
1, 50409, Note_off_c, 0, 59, 38
1, 50458, Control_c, 0, 67, 60
1, 50488, Control_c, 0, 67, 59
1, 50511, Note_on_c, 0, 68, 25
1, 50532, Control_c, 0, 67, 59
1, 50621, Control_c, 0, 67, 58
1, 50785, Control_c, 0, 64, 75
1, 50803, Note_off_c, 0, 65, 0
1, 50819, Note_on_c, 0, 59, 33
1, 50830, Control_c, 0, 64, 75
1, 50840, Poly_aftertouch_c, 0, 65, 127
1, 50859, Control_c, 0, 64, 74
1, 50881, Control_c, 0, 64, 74
1, 50896, Control_c, 0, 64, 73
1, 50911, Control_c, 0, 64, 73
1, 50925, Control_c, 0, 64, 72
1, 50940, Control_c, 0, 64, 71
1, 50955, Control_c, 0, 64, 69
1, 50970, Control_c, 0, 64, 68
1, 50985, Control_c, 0, 64, 66
1, 51000, Control_c, 0, 64, 66
1, 51014, Control_c, 0, 64, 65
1, 51029, Control_c, 0, 64, 64
1, 51044, Control_c, 0, 64, 63
1, 51059, Control_c, 0, 64, 61
1, 51074, Control_c, 0, 64, 59
1, 51089, Control_c, 0, 64, 57
1, 51104, Control_c, 0, 64, 55
1, 51119, Control_c, 0, 64, 53
1, 51134, Control_c, 0, 64, 52
1, 51149, Control_c, 0, 64, 50
1, 51163, Control_c, 0, 64, 47
1, 51178, Control_c, 0, 64, 45
1, 51193, Control_c, 0, 64, 43
1, 51193, Control_c, 0, 67, 59
1, 51208, Control_c, 0, 64, 41
1, 51223, Control_c, 0, 64, 40
1, 51238, Control_c, 0, 64, 39
1, 51253, Control_c, 0, 64, 37
1, 51267, Control_c, 0, 64, 35
1, 51282, Control_c, 0, 64, 32
1, 51297, Control_c, 0, 64, 30
1, 51312, Control_c, 0, 64, 29
1, 51326, Control_c, 0, 64, 27
1, 51341, Control_c, 0, 64, 26
1, 51356, Control_c, 0, 64, 23
1, 51356, Control_c, 0, 67, 59
1, 51371, Control_c, 0, 64, 22
1, 51386, Control_c, 0, 64, 21
1, 51400, Control_c, 0, 64, 20
1, 51415, Control_c, 0, 64, 19
1, 51446, Control_c, 0, 64, 18
1, 51461, Control_c, 0, 64, 18
1, 51476, Control_c, 0, 64, 17
1, 51549, Control_c, 0, 64, 19
1, 51564, Control_c, 0, 64, 23
1, 51579, Control_c, 0, 64, 29
1, 51579, Control_c, 0, 67, 59
1, 51594, Control_c, 0, 64, 36
1, 51616, Control_c, 0, 64, 42
1, 51631, Control_c, 0, 64, 47
1, 51646, Control_c, 0, 64, 51
1, 51661, Control_c, 0, 64, 52
1, 51661, Control_c, 0, 67, 58
1, 51676, Control_c, 0, 64, 53
1, 51690, Control_c, 0, 64, 53
1, 51705, Control_c, 0, 64, 54
1, 51809, Control_c, 0, 64, 53
1, 51823, Control_c, 0, 64, 52
1, 51837, Control_c, 0, 64, 51
1, 51851, Note_on_c, 0, 74, 35
1, 51852, Control_c, 0, 64, 50
1, 51866, Control_c, 0, 64, 49
1, 51867, Note_off_c, 0, 75, 58
1, 51881, Control_c, 0, 64, 47
1, 51896, Control_c, 0, 64, 45
1, 51911, Control_c, 0, 64, 43
1, 51926, Control_c, 0, 64, 40
1, 51940, Control_c, 0, 64, 38
1, 51955, Control_c, 0, 64, 35
1, 51970, Control_c, 0, 64, 33
1, 51985, Control_c, 0, 64, 31
1, 52000, Control_c, 0, 64, 29
1, 52005, Note_on_c, 0, 75, 48
1, 52014, Control_c, 0, 64, 28
1, 52029, Control_c, 0, 64, 27
1, 52044, Control_c, 0, 64, 26
1, 52059, Control_c, 0, 64, 25
1, 52073, Control_c, 0, 64, 25
1, 52076, Note_off_c, 0, 74, 41
1, 52088, Control_c, 0, 64, 24
1, 52088, Control_c, 0, 67, 58
1, 52118, Control_c, 0, 67, 57
1, 52122, Note_off_c, 0, 75, 60
1, 52130, Note_on_c, 0, 77, 54
1, 52133, Control_c, 0, 67, 57
1, 52249, Note_on_c, 0, 75, 54
1, 52252, Note_off_c, 0, 77, 60
1, 52252, Control_c, 0, 64, 24
1, 52267, Control_c, 0, 64, 23
1, 52282, Control_c, 0, 64, 22
1, 52297, Control_c, 0, 64, 19
1, 52311, Control_c, 0, 64, 15
1, 52311, Control_c, 0, 67, 56
1, 52326, Control_c, 0, 64, 11
1, 52330, Note_off_c, 0, 75, 62
1, 52341, Control_c, 0, 64, 9
1, 52341, Control_c, 0, 67, 56
1, 52361, Note_on_c, 0, 74, 47
1, 52363, Control_c, 0, 64, 8
1, 52363, Control_c, 0, 67, 55
1, 52378, Control_c, 0, 67, 54
1, 52393, Control_c, 0, 67, 53
1, 52408, Control_c, 0, 67, 51
1, 52423, Control_c, 0, 67, 48
1, 52438, Control_c, 0, 67, 43
1, 52452, Control_c, 0, 67, 39
1, 52467, Control_c, 0, 67, 34
1, 52482, Control_c, 0, 67, 30
1, 52485, Note_on_c, 0, 80, 48
1, 52496, Control_c, 0, 67, 28
1, 52511, Control_c, 0, 67, 27
1, 52526, Control_c, 0, 67, 25
1, 52534, Note_off_c, 0, 74, 36
1, 52541, Control_c, 0, 67, 23
1, 52556, Control_c, 0, 67, 21
1, 52570, Control_c, 0, 67, 20
1, 52600, Control_c, 0, 67, 19
1, 52629, Note_on_c, 0, 78, 47
1, 52645, Control_c, 0, 67, 19
1, 52675, Note_off_c, 0, 80, 34
1, 52675, Control_c, 0, 67, 18
1, 52704, Control_c, 0, 67, 16
1, 52719, Control_c, 0, 67, 15
1, 52767, Note_off_c, 0, 78, 51
1, 52769, Note_on_c, 0, 77, 41
1, 52926, Control_c, 0, 67, 15
1, 53125, Note_on_c, 0, 83, 49
1, 53246, Control_c, 0, 67, 15
1, 53334, Control_c, 0, 67, 14
1, 53422, Note_off_c, 0, 77, 44
1, 53468, Control_c, 0, 64, 0
1, 53557, Control_c, 0, 67, 15
1, 53601, Control_c, 0, 67, 15
1, 53616, Control_c, 0, 67, 16
1, 53646, Control_c, 0, 67, 16
1, 53690, Control_c, 0, 67, 17
1, 53749, Control_c, 0, 67, 17
1, 53995, Note_on_c, 0, 82, 41
1, 54135, Note_off_c, 0, 83, 0
1, 54196, Poly_aftertouch_c, 0, 83, 0
1, 54214, Note_on_c, 0, 80, 52
1, 54277, Control_c, 0, 64, 12
1, 54277, Control_c, 0, 67, 17
1, 54291, Control_c, 0, 64, 19
1, 54306, Control_c, 0, 64, 26
1, 54308, Note_off_c, 0, 82, 30
1, 54321, Control_c, 0, 64, 32
1, 54335, Note_on_c, 0, 78, 55
1, 54335, Control_c, 0, 64, 38
1, 54350, Control_c, 0, 64, 42
1, 54365, Control_c, 0, 64, 44
1, 54380, Control_c, 0, 64, 46
1, 54385, Note_off_c, 0, 80, 33
1, 54395, Control_c, 0, 64, 48
1, 54395, Control_c, 0, 67, 16
1, 54410, Control_c, 0, 64, 49
1, 54425, Control_c, 0, 64, 50
1, 54428, Note_off_c, 0, 78, 63
1, 54434, Note_on_c, 0, 77, 58
1, 54439, Control_c, 0, 64, 51
1, 54454, Control_c, 0, 64, 51
1, 54517, Note_off_c, 0, 77, 57
1, 54540, Note_on_c, 0, 75, 49
1, 54585, Note_off_c, 0, 75, 65
1, 54588, Control_c, 0, 64, 51
1, 54603, Control_c, 0, 64, 50
1, 54624, Control_c, 0, 64, 50
1, 54624, Control_c, 0, 67, 17
1, 54640, Control_c, 0, 64, 49
1, 54655, Control_c, 0, 64, 48
1, 54670, Control_c, 0, 64, 47
1, 54675, Note_on_c, 0, 75, 48
1, 54685, Control_c, 0, 64, 45
1, 54700, Control_c, 0, 64, 44
1, 54714, Control_c, 0, 64, 42
1, 54729, Control_c, 0, 64, 40
1, 54744, Control_c, 0, 64, 37
1, 54759, Control_c, 0, 64, 34
1, 54773, Control_c, 0, 64, 31
1, 54788, Control_c, 0, 64, 29
1, 54803, Control_c, 0, 64, 26
1, 54803, Control_c, 0, 67, 17
1, 54818, Control_c, 0, 64, 24
1, 54833, Control_c, 0, 64, 22
1, 54848, Control_c, 0, 64, 20
1, 54863, Control_c, 0, 64, 18
1, 54878, Control_c, 0, 64, 16
1, 54892, Control_c, 0, 64, 12
1, 54907, Control_c, 0, 64, 0
1, 54926, Note_on_c, 0, 58, 24
1, 54991, Note_off_c, 0, 59, 22
1, 55012, Note_off_c, 0, 68, 45
1, 55077, Poly_aftertouch_c, 0, 65, 0
1, 55195, Note_on_c, 0, 68, 39
1, 55453, Note_on_c, 0, 74, 46
1, 55518, Note_off_c, 0, 75, 64
1, 55537, Control_c, 0, 67, 17
1, 55552, Control_c, 0, 67, 16
1, 55581, Control_c, 0, 67, 16
1, 55596, Control_c, 0, 67, 15
1, 55788, Control_c, 0, 67, 16
1, 55818, Control_c, 0, 67, 16
1, 55848, Control_c, 0, 64, 16
1, 55849, Note_on_c, 0, 84, 56
1, 55862, Control_c, 0, 64, 30
1, 55877, Control_c, 0, 64, 41
1, 55892, Control_c, 0, 64, 49
1, 55906, Control_c, 0, 64, 53
1, 55921, Control_c, 0, 64, 56
1, 55936, Control_c, 0, 64, 60
1, 55951, Control_c, 0, 64, 62
1, 55966, Control_c, 0, 64, 65
1, 55981, Control_c, 0, 64, 68
1, 55981, Control_c, 0, 67, 17
1, 55996, Control_c, 0, 64, 72
1, 55996, Control_c, 0, 67, 17
1, 56010, Control_c, 0, 64, 76
1, 56010, Control_c, 0, 67, 19
1, 56025, Control_c, 0, 64, 78
1, 56025, Control_c, 0, 67, 19
1, 56026, Note_off_c, 0, 58, 44
1, 56040, Control_c, 0, 64, 79
1, 56040, Control_c, 0, 67, 21
1, 56055, Control_c, 0, 64, 81
1, 56055, Control_c, 0, 67, 22
1, 56070, Control_c, 0, 64, 83
1, 56070, Control_c, 0, 67, 23
1, 56085, Control_c, 0, 64, 84
1, 56085, Control_c, 0, 67, 24
1, 56100, Control_c, 0, 64, 85
1, 56100, Control_c, 0, 67, 25
1, 56121, Control_c, 0, 64, 86
1, 56121, Control_c, 0, 67, 27
1, 56136, Control_c, 0, 67, 28
1, 56151, Control_c, 0, 67, 29
1, 56166, Control_c, 0, 67, 31
1, 56181, Control_c, 0, 67, 37
1, 56195, Control_c, 0, 67, 43
1, 56210, Control_c, 0, 67, 49
1, 56225, Control_c, 0, 67, 55
1, 56241, Control_c, 0, 67, 59
1, 56256, Control_c, 0, 67, 63
1, 56271, Control_c, 0, 67, 67
1, 56280, Note_off_c, 0, 74, 44
1, 56285, Control_c, 0, 67, 69
1, 56300, Control_c, 0, 67, 71
1, 56315, Control_c, 0, 67, 71
1, 56386, Note_on_c, 0, 58, 24
1, 56434, Control_c, 0, 67, 71
1, 56455, Note_off_c, 0, 58, 0
1, 56455, Note_on_c, 0, 58, 4
1, 56489, Note_off_c, 0, 68, 44
1, 56523, Control_c, 0, 64, 85
1, 56523, Control_c, 0, 67, 70
1, 56537, Control_c, 0, 67, 70
1, 56567, Control_c, 0, 67, 69
1, 56597, Control_c, 0, 67, 69
1, 56626, Control_c, 0, 67, 68
1, 56656, Control_c, 0, 67, 68
1, 56685, Control_c, 0, 67, 67
1, 56695, Note_on_c, 0, 68, 34
1, 56700, Control_c, 0, 64, 85
1, 56759, Control_c, 0, 67, 67
1, 56818, Control_c, 0, 64, 84
1, 56885, Control_c, 0, 64, 84
1, 56915, Control_c, 0, 64, 83
1, 56944, Control_c, 0, 64, 83
1, 56944, Control_c, 0, 67, 66
1, 56974, Control_c, 0, 64, 82
1, 56988, Note_on_c, 0, 74, 34
1, 57004, Control_c, 0, 64, 82
1, 57060, Note_off_c, 0, 84, 62
1, 57064, Control_c, 0, 64, 81
1, 57094, Control_c, 0, 67, 66
1, 57182, Control_c, 0, 64, 81
1, 57390, Control_c, 0, 64, 80
1, 57478, Control_c, 0, 64, 80
1, 57538, Control_c, 0, 64, 79
1, 57567, Control_c, 0, 64, 79
1, 57597, Control_c, 0, 64, 78
1, 57620, Control_c, 0, 64, 78
1, 57634, Control_c, 0, 64, 77
1, 57649, Control_c, 0, 64, 77
1, 57664, Control_c, 0, 64, 76
1, 57672, Note_on_c, 0, 84, 38
1, 57679, Control_c, 0, 64, 76
1, 57693, Control_c, 0, 64, 74
1, 57708, Control_c, 0, 64, 72
1, 57723, Control_c, 0, 64, 69
1, 57738, Control_c, 0, 64, 64
1, 57753, Control_c, 0, 64, 56
1, 57767, Control_c, 0, 64, 42
1, 57782, Control_c, 0, 64, 19
1, 57797, Control_c, 0, 64, 0
1, 57828, Control_c, 0, 67, 66
1, 57888, Control_c, 0, 67, 67
1, 57947, Control_c, 0, 67, 66
1, 58577, Control_c, 0, 67, 66
1, 58696, Control_c, 0, 67, 65
1, 58726, Control_c, 0, 67, 65
1, 58785, Control_c, 0, 67, 64
1, 58814, Control_c, 0, 64, 27
1, 58814, Control_c, 0, 67, 64
1, 58829, Control_c, 0, 64, 39
1, 58829, Control_c, 0, 67, 63
1, 58844, Control_c, 0, 64, 45
1, 58859, Control_c, 0, 64, 49
1, 58859, Control_c, 0, 67, 63
1, 58874, Control_c, 0, 64, 53
1, 58888, Control_c, 0, 64, 55
1, 58888, Control_c, 0, 67, 62
1, 58903, Control_c, 0, 64, 57
1, 58903, Control_c, 0, 67, 62
1, 58918, Control_c, 0, 64, 59
1, 58932, Control_c, 0, 64, 61
1, 58932, Control_c, 0, 67, 61
1, 58947, Control_c, 0, 64, 62
1, 58947, Control_c, 0, 67, 61
1, 58962, Control_c, 0, 64, 64
1, 58962, Control_c, 0, 67, 60
1, 58977, Control_c, 0, 64, 65
1, 58977, Control_c, 0, 67, 60
1, 58992, Control_c, 0, 64, 67
1, 58992, Control_c, 0, 67, 59
1, 59006, Control_c, 0, 64, 68
1, 59006, Control_c, 0, 67, 58
1, 59021, Control_c, 0, 64, 70
1, 59021, Control_c, 0, 67, 58
1, 59036, Control_c, 0, 64, 72
1, 59036, Control_c, 0, 67, 57
1, 59051, Control_c, 0, 64, 74
1, 59051, Control_c, 0, 67, 57
1, 59066, Control_c, 0, 64, 76
1, 59066, Control_c, 0, 67, 56
1, 59081, Control_c, 0, 64, 77
1, 59081, Control_c, 0, 67, 53
1, 59103, Control_c, 0, 64, 79
1, 59103, Control_c, 0, 67, 50
1, 59118, Control_c, 0, 64, 80
1, 59118, Control_c, 0, 67, 47
1, 59132, Control_c, 0, 64, 82
1, 59132, Control_c, 0, 67, 46
1, 59147, Control_c, 0, 64, 83
1, 59147, Control_c, 0, 67, 46
1, 59162, Control_c, 0, 64, 84
1, 59162, Control_c, 0, 67, 45
1, 59177, Control_c, 0, 64, 85
1, 59192, Control_c, 0, 67, 45
1, 59206, Control_c, 0, 64, 85
1, 59251, Control_c, 0, 67, 44
1, 59266, Control_c, 0, 67, 44
1, 59266, Note_off_c, 0, 74, 41
1, 59280, Control_c, 0, 67, 43
1, 59290, Note_off_c, 0, 68, 42
1, 59295, Control_c, 0, 67, 38
1, 59310, Control_c, 0, 67, 32
1, 59325, Control_c, 0, 67, 28
1, 59327, Note_off_c, 0, 58, 35
1, 59327, Note_off_c, 0, 84, 40
1, 59340, Control_c, 0, 67, 25
1, 59355, Control_c, 0, 67, 24
1, 59370, Control_c, 0, 67, 23
1, 59400, Control_c, 0, 67, 23
1, 59459, Control_c, 0, 67, 22
1, 59474, Control_c, 0, 67, 22
1, 59489, Control_c, 0, 67, 21
1, 59504, Control_c, 0, 64, 85
1, 59504, Control_c, 0, 67, 16
1, 59519, Control_c, 0, 64, 84
1, 59519, Control_c, 0, 67, 8
1, 59534, Control_c, 0, 64, 83
1, 59534, Control_c, 0, 67, 0
1, 59549, Control_c, 0, 64, 82
1, 59563, Control_c, 0, 64, 82
1, 59578, Control_c, 0, 64, 81
1, 59593, Control_c, 0, 64, 80
1, 59608, Control_c, 0, 64, 78
1, 59623, Control_c, 0, 64, 74
1, 59637, Control_c, 0, 64, 70
1, 59652, Control_c, 0, 64, 63
1, 59667, Control_c, 0, 64, 53
1, 59682, Control_c, 0, 64, 35
1, 59697, Control_c, 0, 64, 0
1, 60018, Note_on_c, 0, 46, 64
1, 60024, Note_on_c, 0, 51, 64
1, 60032, Note_on_c, 0, 43, 55
1, 60222, Note_on_c, 0, 79, 81
1, 60289, Note_on_c, 0, 75, 76
1, 60318, Note_off_c, 0, 79, 65
1, 60321, Note_off_c, 0, 75, 65
1, 60469, Note_on_c, 0, 75, 80
1, 60534, Note_on_c, 0, 70, 72
1, 60562, Note_off_c, 0, 70, 66
1, 60572, Note_off_c, 0, 75, 65
1, 60592, Note_off_c, 0, 51, 62
1, 60639, Note_off_c, 0, 46, 55
1, 60653, Note_off_c, 0, 43, 35
1, 60741, Note_on_c, 0, 70, 69
1, 60816, Note_on_c, 0, 67, 75
1, 61021, Note_off_c, 0, 70, 34
1, 61025, Note_on_c, 0, 51, 65
1, 61035, Note_on_c, 0, 48, 60
1, 61036, Note_on_c, 0, 44, 62
1, 61039, Note_off_c, 0, 67, 65
1, 61243, Note_on_c, 0, 72, 78
1, 61308, Note_on_c, 0, 68, 70
1, 61352, Note_off_c, 0, 72, 63
1, 61372, Note_off_c, 0, 68, 65
1, 61499, Note_on_c, 0, 68, 74
1, 61525, Note_off_c, 0, 51, 64
1, 61552, Note_off_c, 0, 48, 58
1, 61568, Note_off_c, 0, 44, 63
1, 61570, Note_on_c, 0, 65, 70
1, 61620, Note_off_c, 0, 68, 64
1, 61624, Note_off_c, 0, 65, 64
1, 61756, Note_on_c, 0, 65, 76
1, 61837, Note_on_c, 0, 60, 66
1, 61884, Note_off_c, 0, 65, 63
1, 61886, Note_off_c, 0, 60, 58
1, 62023, Note_on_c, 0, 63, 77
1, 62312, Note_on_c, 0, 55, 54
1, 62319, Note_on_c, 0, 46, 47
1, 62345, Note_off_c, 0, 55, 64
1, 62352, Note_off_c, 0, 46, 64
1, 62569, Note_on_c, 0, 55, 51
1, 62578, Note_on_c, 0, 46, 49
1, 62605, Note_off_c, 0, 55, 64
1, 62613, Note_off_c, 0, 46, 64
1, 62633, Control_c, 0, 67, 8
1, 62647, Control_c, 0, 67, 8
1, 62677, Control_c, 0, 67, 9
1, 62699, Note_on_c, 0, 62, 62
1, 62717, Note_off_c, 0, 63, 61
1, 62795, Control_c, 0, 67, 9
1, 62825, Control_c, 0, 67, 10
1, 62835, Note_on_c, 0, 68, 59
1, 62849, Note_on_c, 0, 53, 45
1, 62856, Note_off_c, 0, 62, 55
1, 62862, Note_on_c, 0, 46, 56
1, 62862, Control_c, 0, 67, 11
1, 62875, Note_off_c, 0, 53, 50
1, 62877, Control_c, 0, 67, 12
1, 62890, Note_off_c, 0, 46, 64
1, 62906, Control_c, 0, 67, 13
1, 62914, Note_on_c, 0, 65, 64
1, 62973, Note_on_c, 0, 62, 72
1, 63007, Note_off_c, 0, 65, 59
1, 63035, Note_off_c, 0, 62, 65
1, 63040, Control_c, 0, 67, 12
1, 63069, Control_c, 0, 67, 12
1, 63072, Note_off_c, 0, 68, 21
1, 63079, Note_on_c, 0, 46, 55
1, 63079, Note_on_c, 0, 51, 64
1, 63084, Control_c, 0, 67, 11
1, 63087, Note_on_c, 0, 43, 58
1, 63114, Control_c, 0, 67, 11
1, 63186, Note_on_c, 0, 75, 73
1, 63218, Note_off_c, 0, 75, 64
1, 63292, Control_c, 0, 67, 11
1, 63298, Note_on_c, 0, 77, 72
1, 63306, Control_c, 0, 67, 12
1, 63321, Control_c, 0, 67, 13
1, 63336, Control_c, 0, 67, 14
1, 63340, Note_on_c, 0, 75, 70
1, 63351, Note_off_c, 0, 77, 64
1, 63351, Control_c, 0, 67, 14
1, 63366, Control_c, 0, 67, 17
1, 63380, Control_c, 0, 67, 20
1, 63388, Note_off_c, 0, 75, 63
1, 63393, Note_on_c, 0, 74, 66
1, 63395, Control_c, 0, 67, 24
1, 63410, Control_c, 0, 67, 26
1, 63426, Control_c, 0, 67, 28
1, 63436, Note_on_c, 0, 75, 65
1, 63441, Control_c, 0, 67, 29
1, 63449, Note_off_c, 0, 74, 65
1, 63456, Control_c, 0, 67, 30
1, 63470, Control_c, 0, 67, 32
1, 63485, Control_c, 0, 67, 33
1, 63493, Note_on_c, 0, 79, 67
1, 63515, Control_c, 0, 67, 32
1, 63517, Note_off_c, 0, 75, 61
1, 63529, Control_c, 0, 67, 32
1, 63540, Note_on_c, 0, 70, 80
1, 63544, Control_c, 0, 67, 31
1, 63559, Control_c, 0, 67, 30
1, 63564, Note_off_c, 0, 79, 65
1, 63574, Control_c, 0, 67, 30
1, 63588, Note_off_c, 0, 70, 61
1, 63589, Control_c, 0, 67, 29
1, 63611, Control_c, 0, 67, 29
1, 63615, Note_off_c, 0, 51, 64
1, 63616, Note_off_c, 0, 43, 63
1, 63626, Note_off_c, 0, 46, 64
1, 63641, Control_c, 0, 67, 28
1, 63656, Control_c, 0, 67, 28
1, 63668, Note_on_c, 0, 70, 70
1, 63701, Note_off_c, 0, 70, 63
1, 63762, Note_on_c, 0, 72, 70
1, 63805, Note_on_c, 0, 70, 72
1, 63808, Note_off_c, 0, 72, 62
1, 63856, Note_off_c, 0, 70, 63
1, 63864, Note_on_c, 0, 69, 69
1, 63894, Note_on_c, 0, 70, 55
1, 63901, Note_off_c, 0, 69, 64
1, 63946, Note_on_c, 0, 75, 71
1, 63995, Note_off_c, 0, 70, 57
1, 64005, Note_on_c, 0, 65, 77
1, 64013, Note_on_c, 0, 51, 58
1, 64021, Note_off_c, 0, 75, 66
1, 64029, Note_on_c, 0, 48, 55
1, 64033, Note_on_c, 0, 44, 52
1, 64051, Note_off_c, 0, 65, 59
1, 64053, Control_c, 0, 67, 27
1, 64083, Control_c, 0, 67, 27
1, 64124, Note_on_c, 0, 65, 71
1, 64127, Control_c, 0, 67, 26
1, 64155, Note_off_c, 0, 65, 63
1, 64172, Control_c, 0, 67, 26
1, 64210, Note_on_c, 0, 67, 69
1, 64253, Note_off_c, 0, 67, 63
1, 64259, Note_on_c, 0, 65, 64
1, 64308, Note_off_c, 0, 65, 63
1, 64309, Note_on_c, 0, 64, 68
1, 64376, Note_on_c, 0, 65, 70
1, 64379, Note_off_c, 0, 64, 64
1, 64428, Note_on_c, 0, 72, 67
1, 64432, Control_c, 0, 67, 26
1, 64440, Note_off_c, 0, 65, 63
1, 64470, Note_off_c, 0, 72, 58
1, 64473, Note_on_c, 0, 60, 77
1, 64505, Note_off_c, 0, 60, 63
1, 64566, Control_c, 0, 67, 26
1, 64595, Control_c, 0, 67, 25
1, 64596, Note_on_c, 0, 60, 70
1, 64611, Note_off_c, 0, 48, 63
1, 64614, Note_off_c, 0, 51, 64
1, 64622, Note_off_c, 0, 60, 65
1, 64622, Note_off_c, 0, 44, 62
1, 64678, Note_on_c, 0, 62, 68
1, 64699, Control_c, 0, 67, 26
1, 64713, Note_on_c, 0, 60, 65
1, 64713, Note_off_c, 0, 62, 67
1, 64714, Control_c, 0, 67, 26
1, 64729, Control_c, 0, 67, 27
1, 64743, Control_c, 0, 67, 27
1, 64765, Note_off_c, 0, 60, 62
1, 64790, Note_on_c, 0, 59, 69
1, 64822, Note_off_c, 0, 59, 66
1, 64831, Note_on_c, 0, 60, 54
1, 64862, Control_c, 0, 67, 28
1, 64874, Note_on_c, 0, 68, 68
1, 64929, Note_off_c, 0, 60, 56
1, 64934, Note_on_c, 0, 63, 65
1, 64984, Note_off_c, 0, 68, 62
1, 65137, Control_c, 0, 67, 27
1, 65181, Control_c, 0, 67, 27
1, 65211, Control_c, 0, 67, 26
1, 65215, Note_on_c, 0, 46, 44
1, 65215, Note_on_c, 0, 55, 44
1, 65248, Note_off_c, 0, 55, 65
1, 65251, Note_off_c, 0, 46, 64
1, 65345, Control_c, 0, 67, 26
1, 65389, Control_c, 0, 67, 25
1, 65475, Note_on_c, 0, 55, 39
1, 65501, Note_on_c, 0, 46, 18
1, 65550, Note_off_c, 0, 55, 57
1, 65556, Note_off_c, 0, 46, 51
1, 65609, Note_on_c, 0, 62, 55
1, 65626, Note_off_c, 0, 63, 60
1, 65641, Control_c, 0, 67, 25
1, 65730, Control_c, 0, 67, 24
1, 65735, Note_on_c, 0, 68, 64
1, 65755, Note_off_c, 0, 62, 59
1, 65760, Note_on_c, 0, 53, 42
1, 65760, Control_c, 0, 67, 24
1, 65779, Note_on_c, 0, 46, 34
1, 65804, Control_c, 0, 67, 23
1, 65810, Note_on_c, 0, 65, 71
1, 65820, Control_c, 0, 67, 23
1, 65859, Note_off_c, 0, 68, 61
1, 65869, Note_off_c, 0, 46, 60
1, 65872, Note_off_c, 0, 53, 63
1, 65893, Note_on_c, 0, 62, 66
1, 65953, Note_off_c, 0, 65, 60
1, 66015, Note_on_c, 0, 70, 72
1, 66274, Note_on_c, 0, 46, 46
1, 66279, Note_on_c, 0, 55, 43
1, 66285, Note_off_c, 0, 62, 63
1, 66310, Note_off_c, 0, 46, 64
1, 66312, Note_off_c, 0, 55, 63
1, 66404, Control_c, 0, 67, 22
1, 66449, Control_c, 0, 67, 22
1, 66544, Note_on_c, 0, 46, 57
1, 66547, Note_on_c, 0, 55, 47
1, 66583, Note_off_c, 0, 55, 64
1, 66584, Note_off_c, 0, 46, 63
1, 66647, Note_on_c, 0, 67, 62
1, 66709, Control_c, 0, 67, 21
1, 66730, Note_off_c, 0, 67, 64
1, 66733, Note_on_c, 0, 63, 68
1, 66814, Note_on_c, 0, 68, 68
1, 66820, Note_on_c, 0, 53, 54
1, 66837, Note_on_c, 0, 46, 51
1, 66840, Note_off_c, 0, 63, 62
1, 66858, Note_off_c, 0, 53, 62
1, 66865, Note_off_c, 0, 46, 62
1, 66888, Note_off_c, 0, 70, 57
1, 66901, Note_on_c, 0, 65, 63
1, 66939, Note_off_c, 0, 68, 63
1, 66981, Note_off_c, 0, 65, 62
1, 66986, Note_on_c, 0, 62, 55
1, 67076, Note_on_c, 0, 70, 45
1, 67179, Note_off_c, 0, 62, 49
1, 67348, Note_on_c, 0, 55, 36
1, 67350, Note_on_c, 0, 46, 38
1, 67392, Note_off_c, 0, 55, 63
1, 67393, Note_off_c, 0, 46, 64
1, 67621, Note_on_c, 0, 55, 30
1, 67627, Note_on_c, 0, 46, 38
1, 67666, Note_off_c, 0, 55, 60
1, 67674, Note_off_c, 0, 46, 61
1, 67702, Note_on_c, 0, 67, 47
1, 67724, Control_c, 0, 67, 22
1, 67758, Note_off_c, 0, 67, 61
1, 67781, Note_on_c, 0, 63, 53
1, 67869, Note_off_c, 0, 63, 58
1, 67872, Control_c, 0, 67, 21
1, 67873, Note_on_c, 0, 68, 55
1, 67877, Note_on_c, 0, 46, 47
1, 67882, Note_on_c, 0, 53, 49
1, 67910, Note_off_c, 0, 70, 44
1, 67919, Note_off_c, 0, 53, 63
1, 67920, Note_off_c, 0, 46, 63
1, 67931, Control_c, 0, 67, 21
1, 67949, Note_on_c, 0, 65, 56
1, 67979, Note_off_c, 0, 68, 59
1, 68021, Note_on_c, 0, 62, 67
1, 68031, Note_off_c, 0, 65, 63
1, 68126, Note_on_c, 0, 70, 78
1, 68289, Note_off_c, 0, 62, 57
1, 68340, Control_c, 0, 67, 21
1, 68392, Note_on_c, 0, 46, 53
1, 68394, Note_on_c, 0, 55, 58
1, 68434, Note_off_c, 0, 55, 67
1, 68440, Note_off_c, 0, 46, 64
1, 68649, Note_on_c, 0, 55, 62
1, 68653, Note_on_c, 0, 46, 52
1, 68681, Control_c, 0, 67, 22
1, 68691, Note_off_c, 0, 55, 65
1, 68703, Note_off_c, 0, 46, 62
1, 68740, Note_on_c, 0, 67, 67
1, 68780, Note_off_c, 0, 70, 61
1, 68784, Control_c, 0, 67, 22
1, 68816, Note_on_c, 0, 63, 71
1, 68843, Note_off_c, 0, 67, 62
1, 68866, Control_c, 0, 67, 23
1, 68891, Note_off_c, 0, 63, 64
1, 68894, Note_on_c, 0, 72, 76
1, 68911, Control_c, 0, 67, 23
1, 68913, Note_on_c, 0, 56, 65
1, 68934, Note_on_c, 0, 46, 43
1, 68974, Note_on_c, 0, 68, 75
1, 68987, Note_off_c, 0, 56, 60
1, 68995, Note_off_c, 0, 46, 57
1, 69019, Note_off_c, 0, 72, 62
1, 69049, Note_on_c, 0, 65, 78
1, 69080, Note_off_c, 0, 68, 63
1, 69136, Note_on_c, 0, 74, 82
1, 69148, Control_c, 0, 67, 24
1, 69155, Note_on_c, 0, 46, 63
1, 69159, Note_on_c, 0, 53, 66
1, 69173, Note_off_c, 0, 65, 57
1, 69208, Note_on_c, 0, 68, 75
1, 69222, Note_off_c, 0, 53, 62
1, 69228, Note_off_c, 0, 46, 59
1, 69272, Note_off_c, 0, 74, 64
1, 69285, Note_on_c, 0, 65, 76
1, 69309, Note_off_c, 0, 68, 64
1, 69341, Control_c, 0, 67, 23
1, 69372, Note_on_c, 0, 75, 85
1, 69377, Note_off_c, 0, 65, 64
1, 69400, Note_on_c, 0, 55, 71
1, 69410, Note_on_c, 0, 46, 57
1, 69415, Control_c, 0, 64, 8
1, 69445, Control_c, 0, 64, 9
1, 69455, Note_on_c, 0, 70, 78
1, 69458, Note_off_c, 0, 55, 62
1, 69474, Control_c, 0, 67, 23
1, 69489, Control_c, 0, 64, 10
1, 69504, Control_c, 0, 64, 11
1, 69507, Note_off_c, 0, 75, 64
1, 69527, Note_on_c, 0, 67, 78
1, 69538, Note_off_c, 0, 46, 31
1, 69578, Control_c, 0, 64, 12
1, 69578, Control_c, 0, 67, 22
1, 69611, Note_on_c, 0, 77, 85
1, 69618, Note_off_c, 0, 67, 62
1, 69630, Control_c, 0, 64, 12
1, 69630, Note_off_c, 0, 70, 43
1, 69639, Note_on_c, 0, 46, 72
1, 69645, Control_c, 0, 64, 13
1, 69653, Note_on_c, 0, 50, 64
1, 69674, Control_c, 0, 64, 13
1, 69694, Note_on_c, 0, 74, 77
1, 69717, Note_off_c, 0, 46, 63
1, 69719, Control_c, 0, 64, 14
1, 69738, Note_off_c, 0, 77, 64
1, 69752, Note_on_c, 0, 70, 70
1, 69752, Note_off_c, 0, 50, 58
1, 69768, Note_off_c, 0, 74, 66
1, 69804, Note_on_c, 0, 69, 32
1, 69824, Control_c, 0, 67, 23
1, 69842, Note_on_c, 0, 79, 87
1, 69842, Note_off_c, 0, 69, 31
1, 69859, Note_on_c, 0, 51, 67
1, 69860, Note_on_c, 0, 46, 59
1, 69868, Control_c, 0, 67, 23
1, 69883, Control_c, 0, 67, 24
1, 69887, Note_off_c, 0, 70, 58
1, 69898, Control_c, 0, 67, 24
1, 69923, Note_off_c, 0, 51, 63
1, 69927, Control_c, 0, 67, 25
1, 69928, Note_off_c, 0, 46, 64
1, 69932, Note_on_c, 0, 75, 81
1, 69942, Control_c, 0, 67, 25
1, 69986, Control_c, 0, 67, 26
1, 70003, Note_off_c, 0, 79, 56
1, 70004, Note_on_c, 0, 70, 80
1, 70016, Control_c, 0, 64, 13
1, 70016, Control_c, 0, 67, 27
1, 70031, Control_c, 0, 64, 13
1, 70045, Control_c, 0, 64, 12
1, 70045, Control_c, 0, 67, 27
1, 70060, Control_c, 0, 64, 10
1, 70075, Control_c, 0, 64, 8
1, 70089, Control_c, 0, 64, 0
1, 70089, Control_c, 0, 67, 28
1, 70134, Note_on_c, 0, 80, 77
1, 70134, Control_c, 0, 67, 28
1, 70159, Note_on_c, 0, 53, 46
1, 70176, Note_on_c, 0, 46, 39
1, 70182, Note_off_c, 0, 75, 63
1, 70251, Note_off_c, 0, 70, 63
1, 70363, Control_c, 0, 67, 28
1, 70378, Control_c, 0, 67, 27
1, 70408, Control_c, 0, 67, 27
1, 70512, Control_c, 0, 67, 27
1, 70542, Control_c, 0, 67, 28
1, 70556, Control_c, 0, 67, 28
1, 70570, Control_c, 0, 67, 29
1, 70585, Control_c, 0, 67, 30
1, 70600, Control_c, 0, 67, 31
1, 70616, Control_c, 0, 67, 32
1, 70631, Control_c, 0, 67, 33
1, 70646, Control_c, 0, 67, 34
1, 70660, Control_c, 0, 67, 35
1, 70675, Control_c, 0, 67, 40
1, 70690, Control_c, 0, 67, 49
1, 70705, Control_c, 0, 67, 56
1, 70719, Control_c, 0, 67, 61
1, 70722, Note_off_c, 0, 80, 62
1, 70734, Control_c, 0, 67, 64
1, 70746, Note_off_c, 0, 53, 63
1, 70749, Note_off_c, 0, 46, 63
1, 70749, Control_c, 0, 67, 66
1, 70764, Control_c, 0, 67, 69
1, 70779, Control_c, 0, 67, 69
1, 70808, Control_c, 0, 67, 69
1, 70838, Control_c, 0, 67, 68
1, 70867, Control_c, 0, 67, 68
1, 70897, Control_c, 0, 67, 67
1, 70927, Control_c, 0, 67, 67
1, 70942, Control_c, 0, 67, 66
1, 71001, Control_c, 0, 67, 66
1, 71171, Control_c, 0, 67, 65
1, 71201, Control_c, 0, 67, 65
1, 71216, Control_c, 0, 67, 64
1, 71231, Control_c, 0, 67, 64
1, 71260, Control_c, 0, 67, 63
1, 71280, Note_on_c, 0, 63, 44
1, 71324, Note_off_c, 0, 63, 61
1, 71362, Note_on_c, 0, 67, 45
1, 71364, Control_c, 0, 67, 64
1, 71404, Note_off_c, 0, 67, 60
1, 71436, Note_on_c, 0, 70, 39
1, 71454, Control_c, 0, 67, 64
1, 71514, Note_on_c, 0, 63, 40
1, 71528, Control_c, 0, 67, 65
1, 71541, Note_off_c, 0, 70, 43
1, 71557, Control_c, 0, 67, 65
1, 71572, Note_off_c, 0, 63, 57
1, 71572, Control_c, 0, 67, 66
1, 71602, Note_on_c, 0, 67, 39
1, 71602, Control_c, 0, 67, 66
1, 71631, Control_c, 0, 67, 67
1, 71646, Control_c, 0, 67, 67
1, 71655, Note_off_c, 0, 67, 58
1, 71668, Note_on_c, 0, 70, 37
1, 71676, Control_c, 0, 67, 68
1, 71750, Control_c, 0, 67, 67
1, 71762, Note_on_c, 0, 63, 45
1, 71776, Note_off_c, 0, 70, 44
1, 71779, Control_c, 0, 67, 67
1, 71809, Control_c, 0, 67, 66
1, 71812, Note_off_c, 0, 63, 59
1, 71846, Control_c, 0, 67, 66
1, 71849, Note_on_c, 0, 67, 37
1, 71890, Control_c, 0, 67, 65
1, 71905, Note_off_c, 0, 67, 58
1, 71917, Note_on_c, 0, 70, 35
1, 71920, Control_c, 0, 67, 65
1, 71949, Control_c, 0, 67, 64
1, 71993, Note_on_c, 0, 80, 63
1, 72021, Note_on_c, 0, 63, 44
1, 72043, Note_off_c, 0, 70, 45
1, 72056, Note_on_c, 0, 79, 61
1, 72063, Note_off_c, 0, 63, 64
1, 72083, Note_off_c, 0, 80, 60
1, 72084, Note_on_c, 0, 67, 44
1, 72110, Note_on_c, 0, 77, 58
1, 72126, Note_off_c, 0, 79, 43
1, 72128, Note_off_c, 0, 67, 63
1, 72149, Note_on_c, 0, 70, 46
1, 72158, Note_on_c, 0, 75, 60
1, 72188, Note_off_c, 0, 77, 62
1, 72209, Note_off_c, 0, 75, 61
1, 72218, Note_on_c, 0, 74, 61
1, 72247, Note_off_c, 0, 74, 66
1, 72247, Note_off_c, 0, 70, 49
1, 72261, Note_on_c, 0, 65, 41
1, 72314, Note_off_c, 0, 65, 57
1, 72334, Note_on_c, 0, 68, 41
1, 72381, Control_c, 0, 67, 65
1, 72391, Note_off_c, 0, 68, 60
1, 72398, Note_on_c, 0, 70, 45
1, 72499, Note_off_c, 0, 70, 53
1, 72505, Note_on_c, 0, 65, 43
1, 72568, Note_on_c, 0, 68, 39
1, 72587, Note_off_c, 0, 65, 57
1, 72648, Note_off_c, 0, 68, 61
1, 72657, Note_on_c, 0, 70, 42
1, 72739, Note_on_c, 0, 62, 49
1, 72802, Note_off_c, 0, 70, 34
1, 72812, Note_on_c, 0, 65, 44
1, 72842, Note_off_c, 0, 62, 44
1, 72847, Control_c, 0, 67, 64
1, 72876, Note_off_c, 0, 65, 59
1, 72899, Note_on_c, 0, 70, 52
1, 72936, Control_c, 0, 67, 64
1, 72969, Note_on_c, 0, 86, 63
1, 72971, Note_off_c, 0, 70, 51
1, 72984, Note_on_c, 0, 62, 49
1, 73037, Note_on_c, 0, 84, 61
1, 73040, Note_off_c, 0, 86, 59
1, 73042, Note_off_c, 0, 62, 55
1, 73061, Note_on_c, 0, 65, 33
1, 73079, Note_off_c, 0, 84, 62
1, 73080, Note_on_c, 0, 82, 56
1, 73097, Note_off_c, 0, 65, 54
1, 73115, Note_on_c, 0, 70, 37
1, 73131, Note_on_c, 0, 80, 59
1, 73139, Note_off_c, 0, 82, 55
1, 73186, Note_off_c, 0, 80, 56
1, 73189, Control_c, 0, 67, 63
1, 73201, Note_on_c, 0, 79, 53
1, 73220, Note_on_c, 0, 63, 40
1, 73229, Note_off_c, 0, 70, 43
1, 73270, Note_off_c, 0, 63, 58
1, 73280, Note_off_c, 0, 79, 58
1, 73309, Note_on_c, 0, 67, 39
1, 73344, Control_c, 0, 67, 63
1, 73368, Note_off_c, 0, 67, 46
1, 73383, Note_on_c, 0, 70, 33
1, 73434, Control_c, 0, 67, 62
1, 73479, Note_on_c, 0, 63, 38
1, 73515, Note_off_c, 0, 70, 47
1, 73542, Note_off_c, 0, 63, 56
1, 73561, Note_on_c, 0, 67, 44
1, 73626, Note_off_c, 0, 67, 59
1, 73626, Control_c, 0, 67, 62
1, 73630, Note_on_c, 0, 70, 41
1, 73713, Note_on_c, 0, 63, 51
1, 73770, Note_off_c, 0, 70, 42
1, 73774, Control_c, 0, 67, 61
1, 73798, Note_on_c, 0, 67, 47
1, 73799, Note_off_c, 0, 63, 60
1, 73863, Note_off_c, 0, 67, 59
1, 73869, Note_on_c, 0, 70, 54
1, 73934, Note_on_c, 0, 80, 65
1, 73970, Note_on_c, 0, 63, 40
1, 73996, Note_off_c, 0, 70, 55
1, 73997, Note_on_c, 0, 79, 62
1, 74020, Note_off_c, 0, 63, 59
1, 74033, Note_on_c, 0, 67, 47
1, 74044, Note_on_c, 0, 77, 65
1, 74045, Note_off_c, 0, 80, 59
1, 74086, Note_off_c, 0, 67, 62
1, 74092, Note_off_c, 0, 79, 63
1, 74104, Note_on_c, 0, 75, 73
1, 74123, Control_c, 0, 67, 62
1, 74130, Note_on_c, 0, 70, 48
1, 74145, Note_off_c, 0, 77, 63
1, 74170, Note_on_c, 0, 74, 67
1, 74189, Note_off_c, 0, 70, 57
1, 74191, Note_off_c, 0, 75, 61
1, 74205, Note_on_c, 0, 65, 53
1, 74232, Note_off_c, 0, 74, 64
1, 74268, Note_off_c, 0, 65, 56
1, 74271, Control_c, 0, 67, 62
1, 74283, Note_on_c, 0, 68, 49
1, 74315, Control_c, 0, 67, 63
1, 74342, Note_off_c, 0, 68, 59
1, 74364, Note_on_c, 0, 70, 45
1, 74444, Note_on_c, 0, 65, 40
1, 74456, Note_off_c, 0, 70, 50
1, 74477, Control_c, 0, 67, 63
1, 74510, Note_on_c, 0, 68, 48
1, 74525, Note_off_c, 0, 65, 60
1, 74596, Note_off_c, 0, 68, 61
1, 74599, Note_on_c, 0, 70, 46
1, 74678, Note_on_c, 0, 62, 52
1, 74713, Note_off_c, 0, 70, 44
1, 74760, Note_on_c, 0, 65, 48
1, 74764, Note_off_c, 0, 62, 56
1, 74816, Note_off_c, 0, 65, 61
1, 74850, Note_on_c, 0, 70, 47
1, 74856, Control_c, 0, 67, 63
1, 74912, Note_on_c, 0, 86, 63
1, 74915, Note_off_c, 0, 70, 54
1, 74915, Control_c, 0, 67, 62
1, 74921, Note_on_c, 0, 62, 52
1, 74975, Note_on_c, 0, 84, 58
1, 74989, Note_off_c, 0, 86, 58
1, 74990, Note_off_c, 0, 62, 54
1, 75002, Note_on_c, 0, 65, 30
1, 75023, Note_off_c, 0, 84, 59
1, 75025, Note_on_c, 0, 82, 59
1, 75040, Note_off_c, 0, 65, 51
1, 75058, Note_on_c, 0, 70, 44
1, 75063, Control_c, 0, 67, 62
1, 75071, Note_on_c, 0, 80, 60
1, 75105, Note_off_c, 0, 82, 56
1, 75124, Note_off_c, 0, 80, 60
1, 75134, Note_on_c, 0, 79, 61
1, 75152, Control_c, 0, 67, 61
1, 75155, Note_on_c, 0, 63, 52
1, 75172, Note_off_c, 0, 79, 65
1, 75199, Note_off_c, 0, 70, 33
1, 75228, Note_off_c, 0, 63, 57
1, 75234, Note_on_c, 0, 67, 50
1, 75240, Control_c, 0, 67, 62
1, 75293, Note_off_c, 0, 67, 59
1, 75302, Note_on_c, 0, 70, 44
1, 75374, Control_c, 0, 67, 61
1, 75392, Note_on_c, 0, 63, 44
1, 75395, Note_on_c, 0, 80, 62
1, 75436, Note_off_c, 0, 70, 41
1, 75448, Note_on_c, 0, 79, 65
1, 75449, Control_c, 0, 67, 61
1, 75464, Note_off_c, 0, 63, 60
1, 75478, Note_on_c, 0, 67, 45
1, 75494, Note_off_c, 0, 80, 58
1, 75511, Note_on_c, 0, 77, 66
1, 75528, Note_off_c, 0, 67, 63
1, 75550, Note_on_c, 0, 70, 52
1, 75557, Note_off_c, 0, 79, 62
1, 75570, Note_on_c, 0, 75, 69
1, 75629, Note_off_c, 0, 77, 62
1, 75637, Note_on_c, 0, 74, 74
1, 75655, Note_on_c, 0, 65, 60
1, 75659, Note_off_c, 0, 75, 65
1, 75665, Note_off_c, 0, 74, 68
1, 75671, Note_off_c, 0, 70, 44
1, 75678, Control_c, 0, 67, 61
1, 75731, Note_on_c, 0, 68, 56
1, 75738, Control_c, 0, 67, 62
1, 75743, Note_off_c, 0, 65, 63
1, 75768, Control_c, 0, 67, 62
1, 75782, Control_c, 0, 67, 63
1, 75802, Note_off_c, 0, 68, 62
1, 75809, Note_on_c, 0, 70, 50
1, 75842, Control_c, 0, 67, 62
1, 75889, Note_on_c, 0, 86, 75
1, 75899, Note_on_c, 0, 62, 59
1, 75902, Control_c, 0, 67, 62
1, 75944, Note_on_c, 0, 84, 70
1, 75955, Note_off_c, 0, 70, 33
1, 75975, Note_on_c, 0, 65, 49
1, 75986, Note_off_c, 0, 62, 60
1, 75996, Note_on_c, 0, 82, 79
1, 75997, Note_off_c, 0, 86, 63
1, 76033, Note_off_c, 0, 65, 60
1, 76035, Control_c, 0, 67, 61
1, 76051, Note_on_c, 0, 80, 77
1, 76051, Note_on_c, 0, 70, 55
1, 76052, Note_off_c, 0, 84, 64
1, 76079, Control_c, 0, 67, 61
1, 76108, Control_c, 0, 67, 60
1, 76116, Note_on_c, 0, 79, 84
1, 76127, Note_off_c, 0, 82, 62
1, 76133, Note_on_c, 0, 63, 73
1, 76137, Note_off_c, 0, 80, 64
1, 76138, Control_c, 0, 67, 60
1, 76139, Note_off_c, 0, 70, 57
1, 76160, Note_off_c, 0, 79, 65
1, 76212, Note_on_c, 0, 67, 68
1, 76217, Note_off_c, 0, 63, 63
1, 76282, Note_on_c, 0, 70, 57
1, 76284, Note_off_c, 0, 67, 62
1, 76388, Note_on_c, 0, 63, 60
1, 76388, Note_on_c, 0, 80, 71
1, 76401, Note_off_c, 0, 70, 53
1, 76441, Note_on_c, 0, 79, 70
1, 76486, Note_off_c, 0, 63, 63
1, 76498, Note_on_c, 0, 67, 55
1, 76501, Note_on_c, 0, 77, 76
1, 76511, Note_off_c, 0, 80, 56
1, 76548, Note_off_c, 0, 67, 62
1, 76549, Note_on_c, 0, 70, 51
1, 76567, Note_on_c, 0, 75, 75
1, 76568, Note_off_c, 0, 79, 63
1, 76591, Control_c, 0, 67, 59
1, 76619, Note_off_c, 0, 77, 63
1, 76624, Note_on_c, 0, 74, 81
1, 76647, Note_off_c, 0, 75, 65
1, 76650, Note_on_c, 0, 65, 58
1, 76668, Note_off_c, 0, 70, 54
1, 76668, Note_off_c, 0, 74, 65
1, 76723, Control_c, 0, 67, 60
1, 76731, Note_on_c, 0, 68, 53
1, 76738, Control_c, 0, 67, 61
1, 76746, Note_off_c, 0, 65, 60
1, 76753, Control_c, 0, 67, 61
1, 76783, Control_c, 0, 67, 62
1, 76789, Note_off_c, 0, 68, 59
1, 76796, Note_on_c, 0, 70, 58
1, 76827, Control_c, 0, 67, 62
1, 76856, Control_c, 0, 67, 63
1, 76880, Note_on_c, 0, 86, 66
1, 76886, Control_c, 0, 67, 63
1, 76895, Note_on_c, 0, 62, 47
1, 76901, Control_c, 0, 67, 64
1, 76916, Control_c, 0, 67, 64
1, 76930, Control_c, 0, 67, 65
1, 76936, Note_on_c, 0, 84, 67
1, 76945, Control_c, 0, 67, 66
1, 76951, Note_off_c, 0, 70, 33
1, 76960, Control_c, 0, 67, 66
1, 76962, Note_on_c, 0, 65, 41
1, 76970, Note_off_c, 0, 62, 38
1, 76976, Note_off_c, 0, 86, 64
1, 76986, Note_on_c, 0, 82, 69
1, 77033, Note_off_c, 0, 84, 61
1, 77035, Control_c, 0, 67, 66
1, 77048, Note_on_c, 0, 80, 66
1, 77057, Note_on_c, 0, 70, 44
1, 77065, Control_c, 0, 67, 65
1, 77088, Control_c, 0, 67, 65
1, 77093, Note_off_c, 0, 82, 60
1, 77117, Control_c, 0, 67, 64
1, 77119, Note_off_c, 0, 80, 62
1, 77128, Note_on_c, 0, 79, 68
1, 77147, Control_c, 0, 67, 64
1, 77173, Note_on_c, 0, 63, 39
1, 77175, Note_off_c, 0, 79, 59
1, 77176, Control_c, 0, 67, 63
1, 77191, Control_c, 0, 67, 63
1, 77206, Control_c, 0, 67, 62
1, 77221, Control_c, 0, 67, 62
1, 77230, Note_off_c, 0, 65, 14
1, 77250, Control_c, 0, 67, 61
1, 77265, Control_c, 0, 67, 61
1, 77279, Control_c, 0, 67, 60
1, 77294, Control_c, 0, 67, 60
1, 77309, Control_c, 0, 67, 59
1, 77339, Control_c, 0, 67, 59
1, 77369, Control_c, 0, 67, 58
1, 77384, Control_c, 0, 67, 58
1, 77401, Note_on_c, 0, 87, 64
1, 77428, Control_c, 0, 67, 57
1, 77460, Note_off_c, 0, 70, 52
1, 77478, Note_on_c, 0, 86, 74
1, 77509, Note_off_c, 0, 63, 58
1, 77511, Note_off_c, 0, 87, 62
1, 77532, Control_c, 0, 67, 58
1, 77540, Note_off_c, 0, 86, 63
1, 77550, Note_on_c, 0, 84, 71
1, 77561, Control_c, 0, 67, 58
1, 77591, Control_c, 0, 67, 59
1, 77616, Note_on_c, 0, 82, 82
1, 77621, Note_off_c, 0, 84, 62
1, 77635, Control_c, 0, 67, 59
1, 77679, Control_c, 0, 67, 60
1, 77694, Note_on_c, 0, 80, 80
1, 77694, Control_c, 0, 67, 60
1, 77739, Control_c, 0, 67, 61
1, 77765, Note_on_c, 0, 79, 77
1, 77768, Control_c, 0, 67, 61
1, 77792, Note_off_c, 0, 82, 37
1, 77812, Note_off_c, 0, 80, 63
1, 77837, Control_c, 0, 67, 62
1, 77837, Note_on_c, 0, 77, 75
1, 77839, Note_off_c, 0, 79, 65
1, 77881, Control_c, 0, 67, 63
1, 77896, Control_c, 0, 67, 63
1, 77912, Note_on_c, 0, 75, 75
1, 77915, Note_off_c, 0, 77, 62
1, 77940, Control_c, 0, 67, 64
1, 77955, Control_c, 0, 67, 65
1, 77970, Control_c, 0, 67, 66
1, 77984, Control_c, 0, 67, 66
1, 77985, Note_on_c, 0, 74, 67
1, 77999, Control_c, 0, 67, 67
1, 78014, Control_c, 0, 67, 68
1, 78029, Control_c, 0, 67, 69
1, 78034, Note_off_c, 0, 75, 53
1, 78044, Control_c, 0, 67, 69
1, 78073, Control_c, 0, 67, 70
1, 78092, Note_off_c, 0, 74, 55
1, 78095, Note_on_c, 0, 72, 50
1, 78128, Note_on_c, 0, 56, 34
1, 78147, Control_c, 0, 67, 69
1, 78176, Control_c, 0, 67, 69
1, 78191, Control_c, 0, 67, 68
1, 78206, Control_c, 0, 67, 67
1, 78221, Control_c, 0, 67, 67
1, 78236, Control_c, 0, 67, 66
1, 78251, Control_c, 0, 67, 66
1, 78281, Control_c, 0, 67, 65
1, 78304, Note_off_c, 0, 72, 63
1, 78325, Control_c, 0, 67, 65
1, 78355, Control_c, 0, 67, 64
1, 78369, Control_c, 0, 67, 64
1, 78414, Control_c, 0, 67, 63
1, 78443, Control_c, 0, 67, 63
1, 78488, Control_c, 0, 67, 62
1, 78513, Note_on_c, 0, 76, 55
1, 78532, Control_c, 0, 67, 62
1, 78615, Control_c, 0, 67, 61
1, 78650, Note_on_c, 0, 77, 66
1, 78659, Note_off_c, 0, 76, 56
1, 78659, Control_c, 0, 67, 61
1, 78724, Note_off_c, 0, 56, 62
1, 78733, Control_c, 0, 67, 60
1, 78769, Note_on_c, 0, 78, 72
1, 78779, Note_off_c, 0, 77, 64
1, 78793, Control_c, 0, 67, 60
1, 78822, Control_c, 0, 67, 59
1, 78888, Note_on_c, 0, 79, 79
1, 78896, Note_off_c, 0, 78, 63
1, 78896, Control_c, 0, 67, 59
1, 78911, Control_c, 0, 67, 58
1, 78925, Control_c, 0, 67, 57
1, 78997, Note_on_c, 0, 80, 79
1, 79019, Note_off_c, 0, 79, 63
1, 79118, Control_c, 0, 67, 57
1, 79124, Note_on_c, 0, 81, 80
1, 79133, Note_off_c, 0, 80, 62
1, 79148, Control_c, 0, 67, 56
1, 79178, Control_c, 0, 67, 56
1, 79207, Control_c, 0, 67, 55
1, 79238, Note_on_c, 0, 82, 76
1, 79277, Note_off_c, 0, 81, 58
1, 79281, Control_c, 0, 67, 55
1, 79363, Control_c, 0, 67, 55
1, 79368, Note_on_c, 0, 83, 71
1, 79408, Control_c, 0, 67, 56
1, 79416, Note_off_c, 0, 82, 54
1, 79437, Control_c, 0, 67, 56
1, 79467, Control_c, 0, 67, 57
1, 79482, Note_on_c, 0, 84, 64
1, 79488, Note_off_c, 0, 83, 63
1, 79512, Control_c, 0, 67, 57
1, 79527, Control_c, 0, 67, 58
1, 79557, Control_c, 0, 67, 58
1, 79586, Control_c, 0, 67, 59
1, 79610, Note_on_c, 0, 82, 58
1, 79613, Note_off_c, 0, 84, 53
1, 79646, Control_c, 0, 67, 59
1, 79716, Note_on_c, 0, 80, 59
1, 79819, Note_off_c, 0, 82, 31
1, 79838, Control_c, 0, 67, 59
1, 79840, Note_on_c, 0, 79, 58
1, 79897, Control_c, 0, 67, 58
1, 79910, Note_off_c, 0, 80, 47
1, 79928, Note_off_c, 0, 79, 63
1, 79944, Note_on_c, 0, 77, 51
1, 80030, Note_off_c, 0, 77, 63
1, 80117, Note_on_c, 0, 75, 53
1, 80381, Note_on_c, 0, 67, 39
1, 80388, Note_on_c, 0, 58, 30
1, 80394, Control_c, 0, 67, 58
1, 80424, Control_c, 0, 67, 57
1, 80442, Note_off_c, 0, 58, 64
1, 80442, Note_off_c, 0, 67, 62
1, 80484, Control_c, 0, 67, 57
1, 80513, Control_c, 0, 67, 56
1, 80558, Control_c, 0, 67, 56
1, 80632, Control_c, 0, 67, 55
1, 80657, Note_on_c, 0, 67, 45
1, 80676, Note_on_c, 0, 58, 19
1, 80691, Control_c, 0, 67, 55
1, 80728, Note_off_c, 0, 67, 59
1, 80735, Control_c, 0, 67, 54
1, 80742, Note_off_c, 0, 58, 55
1, 80772, Note_on_c, 0, 74, 48
1, 80822, Note_off_c, 0, 75, 57
1, 80916, Note_on_c, 0, 80, 54
1, 80924, Note_on_c, 0, 58, 21
1, 80937, Note_on_c, 0, 65, 40
1, 80954, Note_off_c, 0, 74, 53
1, 81002, Note_on_c, 0, 77, 52
1, 81048, Note_off_c, 0, 65, 59
1, 81065, Note_off_c, 0, 58, 42
1, 81072, Note_off_c, 0, 80, 31
1, 81088, Note_on_c, 0, 74, 47
1, 81098, Control_c, 0, 67, 55
1, 81157, Control_c, 0, 67, 55
1, 81159, Note_off_c, 0, 77, 34
1, 81185, Note_off_c, 0, 74, 45
1, 81207, Note_on_c, 0, 75, 46
1, 81232, Control_c, 0, 67, 56
1, 81262, Note_on_c, 0, 63, 27
1, 81454, Control_c, 0, 64, 22
1, 81468, Control_c, 0, 64, 41
1, 81483, Control_c, 0, 64, 51
1, 81498, Control_c, 0, 64, 56
1, 81498, Control_c, 0, 67, 56
1, 81512, Note_off_c, 0, 75, 64
1, 81513, Control_c, 0, 64, 59
1, 81527, Control_c, 0, 64, 61
1, 81542, Control_c, 0, 64, 62
1, 81557, Control_c, 0, 64, 63
1, 81580, Control_c, 0, 64, 63
1, 81653, Control_c, 0, 64, 63
1, 81698, Control_c, 0, 64, 62
1, 81709, Note_off_c, 0, 63, 57
1, 81713, Control_c, 0, 67, 57
1, 81727, Control_c, 0, 64, 62
1, 81742, Control_c, 0, 64, 61
1, 81742, Control_c, 0, 67, 57
1, 81757, Control_c, 0, 64, 61
1, 81772, Control_c, 0, 64, 60
1, 81787, Control_c, 0, 64, 60
1, 81794, Note_on_c, 0, 70, 40
1, 81803, Control_c, 0, 64, 59
1, 81817, Control_c, 0, 64, 58
1, 81824, Note_on_c, 0, 67, 42
1, 81832, Control_c, 0, 64, 57
1, 81847, Control_c, 0, 64, 56
1, 81847, Control_c, 0, 67, 58
1, 81862, Control_c, 0, 64, 55
1, 81877, Control_c, 0, 64, 54
1, 81877, Control_c, 0, 67, 58
1, 81891, Control_c, 0, 64, 52
1, 81891, Control_c, 0, 67, 59
1, 81906, Control_c, 0, 64, 49
1, 81906, Control_c, 0, 67, 60
1, 81921, Control_c, 0, 64, 47
1, 81921, Control_c, 0, 67, 61
1, 81936, Control_c, 0, 64, 45
1, 81936, Control_c, 0, 67, 62
1, 81950, Control_c, 0, 64, 44
1, 81950, Control_c, 0, 67, 63
1, 81965, Control_c, 0, 67, 65
1, 81980, Control_c, 0, 67, 66
1, 81995, Control_c, 0, 64, 43
1, 81995, Control_c, 0, 67, 68
1, 82010, Control_c, 0, 67, 69
1, 82025, Control_c, 0, 67, 70
1, 82040, Control_c, 0, 67, 75
1, 82055, Control_c, 0, 67, 81
1, 82069, Control_c, 0, 67, 87
1, 82084, Control_c, 0, 67, 91
1, 82099, Control_c, 0, 67, 93
1, 82114, Control_c, 0, 67, 95
1, 82129, Control_c, 0, 67, 96
1, 82143, Control_c, 0, 67, 97
1, 82203, Control_c, 0, 67, 96
1, 82217, Control_c, 0, 67, 95
1, 82232, Control_c, 0, 64, 43
1, 82232, Control_c, 0, 67, 95
1, 82233, Note_on_c, 0, 74, 44
1, 82261, Control_c, 0, 67, 94
1, 82266, Note_off_c, 0, 70, 47
1, 82291, Control_c, 0, 67, 94
1, 82294, Note_on_c, 0, 68, 32
1, 82299, Note_on_c, 0, 72, 41
1, 82306, Control_c, 0, 67, 93
1, 82329, Control_c, 0, 67, 92
1, 82343, Control_c, 0, 64, 42
1, 82358, Control_c, 0, 67, 92
1, 82364, Note_off_c, 0, 68, 0
1, 82364, Note_on_c, 0, 68, 11
1, 82373, Note_off_c, 0, 67, 53
1, 82388, Control_c, 0, 67, 91
1, 82417, Control_c, 0, 64, 42
1, 82429, Note_off_c, 0, 74, 34
1, 82432, Control_c, 0, 64, 41
1, 82432, Control_c, 0, 67, 90
1, 82447, Control_c, 0, 64, 41
1, 82462, Control_c, 0, 64, 40
1, 82462, Control_c, 0, 67, 90
1, 82476, Control_c, 0, 64, 38
1, 82491, Control_c, 0, 64, 37
1, 82491, Control_c, 0, 67, 89
1, 82506, Control_c, 0, 64, 35
1, 82521, Control_c, 0, 64, 32
1, 82521, Control_c, 0, 67, 89
1, 82532, Note_off_c, 0, 72, 56
1, 82537, Control_c, 0, 64, 30
1, 82551, Control_c, 0, 64, 28
1, 82551, Control_c, 0, 67, 88
1, 82566, Control_c, 0, 64, 26
1, 82581, Control_c, 0, 64, 24
1, 82595, Note_off_c, 0, 68, 42
1, 82597, Control_c, 0, 64, 22
1, 82597, Control_c, 0, 67, 88
1, 82612, Control_c, 0, 64, 21
1, 82627, Control_c, 0, 64, 19
1, 82641, Control_c, 0, 64, 18
1, 82656, Control_c, 0, 64, 17
1, 82671, Control_c, 0, 64, 16
1, 82673, Note_on_c, 0, 70, 33
1, 82686, Control_c, 0, 64, 15
1, 82687, Note_on_c, 0, 39, 31
1, 82689, Note_on_c, 0, 67, 36
1, 82700, Control_c, 0, 64, 14
1, 82700, Control_c, 0, 67, 87
1, 82819, Control_c, 0, 64, 13
1, 83686, Control_c, 0, 67, 87
1, 83775, Control_c, 0, 67, 86
1, 83842, Control_c, 0, 64, 14
1, 83901, Control_c, 0, 64, 15
1, 83986, Note_off_c, 0, 67, 11
1, 84064, Control_c, 0, 64, 15
1, 84079, Control_c, 0, 67, 87
1, 84117, Note_off_c, 0, 70, 33
1, 84147, Note_off_c, 0, 39, 36
1, 84391, Control_c, 0, 67, 87
1, 84450, Control_c, 0, 67, 88
1, 84494, Control_c, 0, 67, 88
1, 84591, Control_c, 0, 67, 88
1, 84635, Control_c, 0, 67, 87
1, 84650, Control_c, 0, 67, 87
1, 84679, Control_c, 0, 67, 86
1, 84694, Control_c, 0, 67, 86
1, 84709, Control_c, 0, 67, 85
1, 84724, Control_c, 0, 67, 85
1, 84738, Control_c, 0, 67, 84
1, 84753, Control_c, 0, 67, 84
1, 84782, Control_c, 0, 67, 83
1, 84797, Control_c, 0, 67, 83
1, 84812, Control_c, 0, 67, 82
1, 84827, Control_c, 0, 67, 82
1, 84842, Control_c, 0, 67, 81
1, 84857, Control_c, 0, 67, 81
1, 84905, Note_on_c, 0, 82, 62
1, 84906, Note_on_c, 0, 79, 55
1, 85006, Control_c, 0, 67, 80
1, 85035, Control_c, 0, 67, 80
1, 85065, Control_c, 0, 67, 79
1, 85080, Control_c, 0, 67, 79
1, 85094, Control_c, 0, 67, 76
1, 85109, Control_c, 0, 67, 75
1, 85124, Control_c, 0, 67, 74
1, 85139, Control_c, 0, 67, 74
1, 85164, Note_on_c, 0, 51, 34
1, 85168, Control_c, 0, 67, 73
1, 85183, Control_c, 0, 67, 73
1, 85198, Control_c, 0, 67, 71
1, 85213, Control_c, 0, 67, 68
1, 85228, Control_c, 0, 67, 66
1, 85242, Control_c, 0, 64, 15
1, 85257, Control_c, 0, 64, 14
1, 85272, Control_c, 0, 64, 13
1, 85286, Control_c, 0, 64, 13
1, 85286, Control_c, 0, 67, 66
1, 85301, Control_c, 0, 64, 12
1, 85324, Control_c, 0, 64, 11
1, 85339, Control_c, 0, 64, 10
1, 85354, Control_c, 0, 64, 9
1, 85368, Control_c, 0, 67, 65
1, 85383, Control_c, 0, 64, 8
1, 85413, Control_c, 0, 67, 65
1, 85418, Note_on_c, 0, 63, 44
1, 85442, Control_c, 0, 67, 64
1, 85457, Control_c, 0, 67, 59
1, 85472, Control_c, 0, 67, 56
1, 85486, Control_c, 0, 67, 54
1, 85501, Control_c, 0, 67, 52
1, 85516, Control_c, 0, 67, 51
1, 85530, Note_off_c, 0, 51, 57
1, 85531, Control_c, 0, 67, 51
1, 85536, Note_off_c, 0, 63, 63
1, 85546, Control_c, 0, 67, 50
1, 85590, Control_c, 0, 64, 9
1, 85620, Control_c, 0, 67, 51
1, 85635, Control_c, 0, 64, 10
1, 85635, Control_c, 0, 67, 51
1, 85637, Note_on_c, 0, 80, 62
1, 85650, Control_c, 0, 64, 11
1, 85651, Note_on_c, 0, 77, 56
1, 85664, Control_c, 0, 64, 12
1, 85664, Control_c, 0, 67, 52
1, 85679, Control_c, 0, 64, 14
1, 85694, Control_c, 0, 64, 16
1, 85694, Control_c, 0, 67, 52
1, 85694, Note_off_c, 0, 79, 60
1, 85709, Control_c, 0, 64, 17
1, 85732, Note_off_c, 0, 82, 57
1, 85750, Note_off_c, 0, 80, 63
1, 85768, Control_c, 0, 67, 53
1, 85784, Control_c, 0, 64, 18
1, 85799, Control_c, 0, 64, 19
1, 85893, Note_on_c, 0, 84, 80
1, 85905, Note_on_c, 0, 80, 65
1, 85917, Control_c, 0, 64, 18
1, 85932, Control_c, 0, 64, 17
1, 85962, Control_c, 0, 64, 16
1, 85991, Control_c, 0, 64, 15
1, 86021, Control_c, 0, 67, 52
1, 86088, Control_c, 0, 67, 51
1, 86112, Note_off_c, 0, 77, 57
1, 86117, Control_c, 0, 67, 51
1, 86132, Control_c, 0, 67, 50
1, 86157, Note_on_c, 0, 51, 50
1, 86162, Control_c, 0, 67, 50
1, 86177, Control_c, 0, 67, 49
1, 86190, Poly_aftertouch_c, 0, 63, 127
1, 86191, Control_c, 0, 67, 46
1, 86206, Control_c, 0, 67, 44
1, 86221, Control_c, 0, 67, 43
1, 86236, Control_c, 0, 64, 15
1, 86236, Control_c, 0, 67, 42
1, 86241, Poly_aftertouch_c, 0, 63, 0
1, 86251, Control_c, 0, 67, 41
1, 86281, Control_c, 0, 64, 14
1, 86281, Control_c, 0, 67, 41
1, 86296, Control_c, 0, 64, 13
1, 86296, Control_c, 0, 67, 40
1, 86310, Control_c, 0, 64, 13
1, 86310, Control_c, 0, 67, 39
1, 86325, Control_c, 0, 64, 12
1, 86325, Control_c, 0, 67, 34
1, 86340, Control_c, 0, 67, 30
1, 86355, Control_c, 0, 67, 28
1, 86370, Control_c, 0, 64, 12
1, 86370, Control_c, 0, 67, 25
1, 86385, Control_c, 0, 67, 22
1, 86399, Control_c, 0, 64, 11
1, 86399, Control_c, 0, 67, 19
1, 86411, Note_on_c, 0, 63, 50
1, 86414, Control_c, 0, 64, 9
1, 86414, Control_c, 0, 67, 15
1, 86429, Control_c, 0, 64, 0
1, 86429, Control_c, 0, 67, 12
1, 86443, Control_c, 0, 67, 9
1, 86458, Control_c, 0, 67, 0
1, 86535, Note_off_c, 0, 51, 62
1, 86547, Note_off_c, 0, 63, 64
1, 86636, Note_on_c, 0, 82, 74
1, 86648, Note_on_c, 0, 79, 60
1, 86699, Note_off_c, 0, 84, 63
1, 86748, Note_off_c, 0, 80, 53
1, 86755, Control_c, 0, 64, 9
1, 86770, Control_c, 0, 64, 12
1, 86774, Note_off_c, 0, 82, 60
1, 86785, Control_c, 0, 64, 15
1, 86800, Control_c, 0, 64, 17
1, 86822, Control_c, 0, 64, 20
1, 86837, Control_c, 0, 64, 23
1, 86852, Control_c, 0, 64, 25
1, 86867, Control_c, 0, 64, 25
1, 86890, Note_on_c, 0, 85, 79
1, 86896, Note_on_c, 0, 82, 78
1, 87015, Control_c, 0, 64, 25
1, 87028, Control_c, 0, 64, 24
1, 87043, Control_c, 0, 64, 24
1, 87057, Control_c, 0, 64, 23
1, 87087, Control_c, 0, 64, 23
1, 87095, Note_off_c, 0, 79, 60
1, 87102, Control_c, 0, 64, 22
1, 87131, Note_on_c, 0, 36, 74
1, 87310, Control_c, 0, 64, 21
1, 87325, Control_c, 0, 64, 21
1, 87339, Control_c, 0, 64, 20
1, 87354, Control_c, 0, 64, 19
1, 87369, Control_c, 0, 64, 19
1, 87382, Note_on_c, 0, 48, 77
1, 87384, Control_c, 0, 64, 18
1, 87399, Control_c, 0, 64, 17
1, 87414, Control_c, 0, 64, 16
1, 87429, Control_c, 0, 64, 15
1, 87444, Control_c, 0, 64, 15
1, 87488, Control_c, 0, 64, 14
1, 87501, Note_off_c, 0, 36, 64
1, 87518, Control_c, 0, 64, 13
1, 87533, Control_c, 0, 64, 13
1, 87536, Note_off_c, 0, 85, 63
1, 87547, Note_off_c, 0, 82, 64
1, 87548, Control_c, 0, 64, 12
1, 87569, Control_c, 0, 64, 10
1, 87584, Control_c, 0, 64, 9
1, 87599, Control_c, 0, 64, 8
1, 87614, Control_c, 0, 64, 0
1, 87632, Note_on_c, 0, 84, 68
1, 87642, Note_on_c, 0, 80, 66
1, 87742, Note_off_c, 0, 80, 64
1, 87743, Note_off_c, 0, 84, 66
1, 87876, Note_on_c, 0, 82, 73
1, 87891, Note_on_c, 0, 79, 73
1, 87985, Note_off_c, 0, 79, 65
1, 87991, Note_off_c, 0, 82, 64
1, 88109, Note_on_c, 0, 80, 73
1, 88123, Note_on_c, 0, 77, 65
1, 88133, Control_c, 0, 67, 8
1, 88148, Control_c, 0, 67, 9
1, 88162, Control_c, 0, 67, 10
1, 88177, Control_c, 0, 67, 11
1, 88192, Control_c, 0, 67, 12
1, 88205, Note_off_c, 0, 77, 65
1, 88222, Note_off_c, 0, 80, 64
1, 88222, Control_c, 0, 67, 12
1, 88333, Control_c, 0, 67, 13
1, 88368, Note_on_c, 0, 79, 74
1, 88371, Note_on_c, 0, 76, 61
1, 88422, Control_c, 0, 67, 12
1, 88452, Control_c, 0, 67, 12
1, 88461, Note_off_c, 0, 48, 64
1, 88464, Note_off_c, 0, 76, 63
1, 88480, Note_off_c, 0, 79, 66
1, 88481, Control_c, 0, 67, 11
1, 88556, Control_c, 0, 67, 11
1, 88604, Note_on_c, 0, 82, 63
1, 88605, Note_on_c, 0, 79, 60
1, 88630, Control_c, 0, 67, 10
1, 88659, Control_c, 0, 67, 10
1, 88686, Note_off_c, 0, 79, 65
1, 88702, Note_off_c, 0, 82, 64
1, 88703, Control_c, 0, 67, 9
1, 88763, Control_c, 0, 67, 9
1, 88792, Control_c, 0, 67, 8
1, 88822, Control_c, 0, 67, 8
1, 88851, Note_on_c, 0, 80, 48
1, 88852, Control_c, 0, 67, 0
1, 88858, Note_on_c, 0, 77, 41
1, 88865, Note_on_c, 0, 68, 45
1, 88881, Note_on_c, 0, 65, 48
1, 88968, Note_off_c, 0, 77, 65
1, 88982, Note_off_c, 0, 80, 57
1, 89117, Note_on_c, 0, 72, 45
1, 89345, Note_on_c, 0, 84, 46
1, 89465, Note_off_c, 0, 72, 47
1, 89490, Note_off_c, 0, 84, 65
1, 89581, Note_on_c, 0, 67, 48
1, 89593, Note_on_c, 0, 64, 48
1, 89691, Note_off_c, 0, 65, 59
1, 89699, Note_off_c, 0, 67, 64
1, 89713, Note_off_c, 0, 64, 64
1, 89750, Note_off_c, 0, 68, 63
1, 89852, Note_on_c, 0, 70, 69
1, 89856, Note_on_c, 0, 67, 57
1, 90087, Note_on_c, 0, 72, 56
1, 90321, Note_on_c, 0, 84, 64
1, 90416, Note_off_c, 0, 72, 61
1, 90464, Note_off_c, 0, 84, 64
1, 90541, Note_on_c, 0, 68, 58
1, 90544, Note_off_c, 0, 67, 57
1, 90547, Note_on_c, 0, 65, 63
1, 90640, Control_c, 0, 64, 8
1, 90654, Control_c, 0, 64, 13
1, 90669, Control_c, 0, 64, 16
1, 90684, Note_off_c, 0, 70, 63
1, 90684, Control_c, 0, 64, 19
1, 90685, Note_off_c, 0, 65, 62
1, 90699, Control_c, 0, 64, 21
1, 90714, Control_c, 0, 64, 23
1, 90726, Note_off_c, 0, 68, 60
1, 90774, Control_c, 0, 64, 22
1, 90788, Control_c, 0, 64, 21
1, 90803, Control_c, 0, 64, 20
1, 90818, Control_c, 0, 64, 18
1, 90821, Note_on_c, 0, 72, 70
1, 90833, Control_c, 0, 64, 16
1, 90838, Note_on_c, 0, 68, 77
1, 90848, Control_c, 0, 64, 14
1, 90862, Control_c, 0, 64, 12
1, 90877, Control_c, 0, 64, 9
1, 90892, Control_c, 0, 64, 0
1, 91065, Note_on_c, 0, 77, 73
1, 91316, Note_on_c, 0, 89, 66
1, 91426, Note_off_c, 0, 77, 66
1, 91447, Note_on_c, 0, 83, 24
1, 91454, Note_off_c, 0, 89, 65
1, 91493, Note_off_c, 0, 83, 46
1, 91552, Note_on_c, 0, 75, 58
1, 91557, Note_on_c, 0, 67, 48
1, 91579, Note_on_c, 0, 70, 46
1, 91623, Note_off_c, 0, 68, 57
1, 91627, Note_off_c, 0, 72, 51
1, 91659, Note_on_c, 0, 87, 64
1, 91688, Note_off_c, 0, 75, 64
1, 91709, Note_off_c, 0, 67, 58
1, 91711, Note_off_c, 0, 87, 60
1, 91784, Note_on_c, 0, 73, 69
1, 91787, Note_on_c, 0, 68, 48
1, 91813, Note_on_c, 0, 65, 53
1, 91830, Note_off_c, 0, 70, 44
1, 91879, Note_off_c, 0, 68, 65
1, 91888, Note_on_c, 0, 85, 67
1, 91889, Note_off_c, 0, 65, 63
1, 91943, Note_off_c, 0, 73, 64
1, 91954, Note_off_c, 0, 85, 63
1, 92014, Note_on_c, 0, 72, 67
1, 92026, Note_on_c, 0, 67, 52
1, 92029, Note_on_c, 0, 63, 53
1, 92120, Note_on_c, 0, 84, 71
1, 92130, Note_off_c, 0, 67, 63
1, 92138, Note_off_c, 0, 72, 63
1, 92180, Note_off_c, 0, 84, 65
1, 92241, Note_off_c, 0, 63, 54
1, 92246, Note_on_c, 0, 70, 71
1, 92255, Note_on_c, 0, 61, 58
1, 92255, Note_on_c, 0, 65, 63
1, 92362, Note_on_c, 0, 82, 72
1, 92398, Note_off_c, 0, 70, 63
1, 92401, Note_off_c, 0, 65, 62
1, 92428, Note_off_c, 0, 82, 64
1, 92460, Note_off_c, 0, 61, 49
1, 92479, Note_on_c, 0, 68, 77
1, 92487, Note_on_c, 0, 63, 61
1, 92506, Note_on_c, 0, 60, 51
1, 92571, Note_off_c, 0, 63, 64
1, 92588, Note_on_c, 0, 80, 68
1, 92601, Note_off_c, 0, 60, 63
1, 92641, Note_off_c, 0, 68, 64
1, 92664, Note_off_c, 0, 80, 63
1, 92702, Note_on_c, 0, 67, 71
1, 92714, Note_on_c, 0, 61, 57
1, 92719, Note_on_c, 0, 58, 56
1, 92820, Note_on_c, 0, 79, 74
1, 92843, Note_off_c, 0, 61, 59
1, 92847, Note_off_c, 0, 67, 63
1, 92893, Note_off_c, 0, 79, 65
1, 92928, Note_on_c, 0, 65, 73
1, 92947, Note_off_c, 0, 58, 56
1, 92947, Note_on_c, 0, 56, 66
1, 92955, Note_on_c, 0, 60, 63
1, 93037, Note_on_c, 0, 77, 70
1, 93037, Note_off_c, 0, 65, 64
1, 93087, Note_off_c, 0, 60, 61
1, 93101, Note_off_c, 0, 77, 66
1, 93144, Note_on_c, 0, 63, 81
1, 93154, Note_off_c, 0, 56, 56
1, 93173, Note_on_c, 0, 58, 57
1, 93184, Note_on_c, 0, 55, 57
1, 93251, Note_on_c, 0, 75, 72
1, 93288, Note_off_c, 0, 63, 61
1, 93311, Note_off_c, 0, 55, 63
1, 93341, Note_off_c, 0, 58, 59
1, 93349, Note_off_c, 0, 75, 64
1, 93373, Note_on_c, 0, 62, 75
1, 93394, Note_on_c, 0, 56, 57
1, 93405, Note_on_c, 0, 53, 52
1, 93465, Poly_aftertouch_c, 0, 70, 127
1, 93475, Note_off_c, 0, 62, 65
1, 93477, Note_on_c, 0, 74, 69
1, 93528, Poly_aftertouch_c, 0, 70, 0
1, 93534, Note_off_c, 0, 53, 59
1, 93593, Note_on_c, 0, 63, 66
1, 93615, Note_off_c, 0, 74, 62
1, 93622, Note_on_c, 0, 58, 42
1, 93627, Note_on_c, 0, 55, 50
1, 93683, Note_off_c, 0, 56, 41
1, 93707, Note_on_c, 0, 75, 71
1, 93768, Note_off_c, 0, 63, 63
1, 93814, Note_on_c, 0, 73, 70
1, 93877, Note_off_c, 0, 75, 52
1, 93902, Control_c, 0, 64, 9
1, 93917, Note_on_c, 0, 77, 73
1, 93917, Control_c, 0, 64, 13
1, 93931, Control_c, 0, 64, 16
1, 93939, Note_off_c, 0, 73, 63
1, 93946, Control_c, 0, 64, 18
1, 93961, Control_c, 0, 64, 19
1, 93976, Control_c, 0, 64, 21
1, 93991, Control_c, 0, 64, 23
1, 94005, Control_c, 0, 64, 24
1, 94020, Control_c, 0, 64, 25
1, 94035, Note_on_c, 0, 75, 78
1, 94035, Control_c, 0, 64, 25
1, 94065, Control_c, 0, 64, 26
1, 94088, Note_off_c, 0, 77, 57
1, 94125, Note_on_c, 0, 72, 67
1, 94143, Note_off_c, 0, 55, 60
1, 94169, Control_c, 0, 64, 25
1, 94169, Note_off_c, 0, 75, 63
1, 94173, Note_off_c, 0, 58, 64
1, 94184, Control_c, 0, 64, 25
1, 94198, Control_c, 0, 64, 24
1, 94213, Control_c, 0, 64, 24
1, 94228, Control_c, 0, 64, 23
1, 94238, Note_on_c, 0, 73, 70
1, 94258, Control_c, 0, 64, 23
1, 94272, Control_c, 0, 64, 22
1, 94287, Control_c, 0, 64, 22
1, 94288, Note_off_c, 0, 72, 59
1, 94309, Control_c, 0, 64, 21
1, 94324, Control_c, 0, 64, 21
1, 94337, Note_on_c, 0, 70, 65
1, 94339, Control_c, 0, 64, 20
1, 94354, Control_c, 0, 64, 19
1, 94369, Note_off_c, 0, 73, 64
1, 94369, Control_c, 0, 64, 18
1, 94384, Control_c, 0, 64, 17
1, 94394, Note_off_c, 0, 70, 64
1, 94413, Control_c, 0, 64, 17
1, 94443, Control_c, 0, 64, 16
1, 94457, Control_c, 0, 64, 13
1, 94472, Control_c, 0, 64, 12
1, 94481, Note_on_c, 0, 72, 65
1, 94487, Control_c, 0, 64, 10
1, 94502, Control_c, 0, 64, 8
1, 94506, Note_on_c, 0, 68, 48
1, 94517, Control_c, 0, 64, 0
1, 94747, Note_on_c, 0, 44, 41
1, 94986, Note_on_c, 0, 56, 42
1, 95117, Note_off_c, 0, 44, 54
1, 95130, Note_off_c, 0, 56, 61
1, 95210, Note_on_c, 0, 70, 58
1, 95227, Note_on_c, 0, 67, 46
1, 95304, Note_off_c, 0, 72, 61
1, 95310, Note_off_c, 0, 68, 51
1, 95346, Note_off_c, 0, 70, 63
1, 95470, Note_on_c, 0, 73, 69
1, 95490, Note_on_c, 0, 70, 56
1, 95722, Note_off_c, 0, 67, 61
1, 95724, Note_on_c, 0, 44, 40
1, 95960, Note_on_c, 0, 56, 41
1, 96113, Note_off_c, 0, 44, 58
1, 96118, Note_off_c, 0, 56, 60
1, 96162, Control_c, 0, 64, 9
1, 96178, Control_c, 0, 64, 10
1, 96202, Note_on_c, 0, 72, 54
1, 96217, Note_on_c, 0, 68, 50
1, 96222, Control_c, 0, 64, 11
1, 96237, Control_c, 0, 64, 12
1, 96245, Note_off_c, 0, 70, 55
1, 96252, Control_c, 0, 64, 14
1, 96266, Control_c, 0, 64, 15
1, 96281, Control_c, 0, 64, 17
1, 96296, Control_c, 0, 64, 19
1, 96305, Note_off_c, 0, 73, 51
1, 96310, Note_off_c, 0, 72, 63
1, 96311, Control_c, 0, 64, 22
1, 96325, Control_c, 0, 64, 23
1, 96340, Control_c, 0, 64, 23
1, 96370, Control_c, 0, 64, 24
1, 96385, Control_c, 0, 64, 24
1, 96399, Control_c, 0, 64, 25
1, 96458, Note_on_c, 0, 75, 74
1, 96459, Control_c, 0, 64, 24
1, 96470, Note_on_c, 0, 72, 65
1, 96473, Control_c, 0, 64, 23
1, 96488, Control_c, 0, 64, 22
1, 96503, Control_c, 0, 64, 22
1, 96518, Control_c, 0, 64, 21
1, 96533, Control_c, 0, 64, 21
1, 96653, Note_off_c, 0, 68, 58
1, 96659, Control_c, 0, 64, 21
1, 96673, Control_c, 0, 64, 22
1, 96693, Poly_aftertouch_c, 0, 54, 127
1, 96703, Control_c, 0, 64, 22
1, 96718, Control_c, 0, 64, 23
1, 96725, Note_on_c, 0, 42, 56
1, 96778, Control_c, 0, 64, 23
1, 96807, Control_c, 0, 64, 24
1, 96819, Poly_aftertouch_c, 0, 54, 0
1, 96822, Control_c, 0, 64, 25
1, 96837, Control_c, 0, 64, 26
1, 96852, Control_c, 0, 64, 27
1, 96867, Control_c, 0, 64, 28
1, 96882, Control_c, 0, 64, 30
1, 96897, Control_c, 0, 64, 30
1, 96911, Control_c, 0, 64, 31
1, 96941, Control_c, 0, 64, 32
1, 96978, Note_on_c, 0, 54, 50
1, 97001, Control_c, 0, 64, 32
1, 97120, Control_c, 0, 64, 33
1, 97135, Control_c, 0, 64, 33
1, 97161, Note_off_c, 0, 54, 63
1, 97164, Control_c, 0, 64, 34
1, 97175, Note_off_c, 0, 42, 55
1, 97179, Control_c, 0, 64, 34
1, 97194, Control_c, 0, 64, 35
1, 97205, Note_on_c, 0, 73, 63
1, 97209, Control_c, 0, 64, 35
1, 97213, Note_on_c, 0, 70, 54
1, 97223, Control_c, 0, 64, 36
1, 97238, Control_c, 0, 64, 36
1, 97251, Note_off_c, 0, 72, 58
1, 97254, Note_off_c, 0, 75, 59
1, 97335, Note_off_c, 0, 73, 65
1, 97335, Control_c, 0, 64, 37
1, 97364, Control_c, 0, 64, 37
1, 97379, Control_c, 0, 64, 38
1, 97409, Control_c, 0, 64, 38
1, 97457, Note_on_c, 0, 77, 77
1, 97461, Note_on_c, 0, 73, 72
1, 97482, Control_c, 0, 64, 38
1, 97512, Control_c, 0, 64, 37
1, 97527, Control_c, 0, 64, 37
1, 97619, Note_off_c, 0, 70, 56
1, 97675, Control_c, 0, 64, 36
1, 97704, Control_c, 0, 64, 35
1, 97705, Note_on_c, 0, 42, 62
1, 97734, Control_c, 0, 64, 35
1, 97764, Control_c, 0, 64, 34
1, 97794, Control_c, 0, 64, 34
1, 97809, Control_c, 0, 64, 33
1, 97838, Control_c, 0, 64, 33
1, 97883, Control_c, 0, 64, 32
1, 97913, Control_c, 0, 64, 31
1, 97954, Note_on_c, 0, 54, 57
1, 98098, Control_c, 0, 64, 32
1, 98113, Control_c, 0, 64, 32
1, 98141, Note_off_c, 0, 42, 59
1, 98181, Note_off_c, 0, 54, 63
1, 98184, Note_on_c, 0, 75, 75
1, 98190, Note_on_c, 0, 72, 67
1, 98225, Note_off_c, 0, 77, 62
1, 98311, Note_off_c, 0, 73, 61
1, 98353, Note_off_c, 0, 75, 61
1, 98439, Control_c, 0, 64, 32
1, 98468, Control_c, 0, 64, 31
1, 98487, Note_on_c, 0, 78, 77
1, 98494, Note_on_c, 0, 75, 79
1, 98497, Control_c, 0, 64, 31
1, 98512, Control_c, 0, 64, 30
1, 98527, Control_c, 0, 64, 29
1, 98542, Control_c, 0, 64, 28
1, 98557, Control_c, 0, 64, 27
1, 98573, Control_c, 0, 64, 26
1, 98587, Control_c, 0, 64, 25
1, 98602, Control_c, 0, 64, 25
1, 98617, Control_c, 0, 64, 24
1, 98632, Control_c, 0, 64, 23
1, 98647, Control_c, 0, 64, 23
1, 98661, Control_c, 0, 64, 22
1, 98676, Control_c, 0, 64, 22
1, 98682, Note_off_c, 0, 72, 55
1, 98691, Control_c, 0, 64, 21
1, 98721, Control_c, 0, 64, 20
1, 98736, Note_on_c, 0, 41, 64
1, 98736, Control_c, 0, 64, 20
1, 98766, Control_c, 0, 64, 19
1, 98988, Note_on_c, 0, 53, 63
1, 99095, Note_off_c, 0, 41, 62
1, 99129, Note_off_c, 0, 78, 63
1, 99151, Note_off_c, 0, 75, 65
1, 99186, Control_c, 0, 64, 19
1, 99201, Control_c, 0, 64, 18
1, 99216, Control_c, 0, 64, 17
1, 99226, Note_on_c, 0, 77, 68
1, 99237, Note_on_c, 0, 73, 62
1, 99245, Control_c, 0, 64, 17
1, 99358, Note_off_c, 0, 77, 64
1, 99365, Note_off_c, 0, 73, 65
1, 99454, Control_c, 0, 64, 17
1, 99481, Note_on_c, 0, 75, 68
1, 99484, Control_c, 0, 64, 18
1, 99492, Note_on_c, 0, 72, 64
1, 99513, Control_c, 0, 64, 18
1, 99588, Note_off_c, 0, 72, 63
1, 99601, Note_off_c, 0, 75, 64
1, 99720, Note_on_c, 0, 73, 67
1, 99737, Note_on_c, 0, 70, 60
1, 99772, Control_c, 0, 64, 19
1, 99787, Control_c, 0, 64, 19
1, 99816, Control_c, 0, 64, 21
1, 99831, Control_c, 0, 64, 22
1, 99841, Note_off_c, 0, 70, 60
1, 99865, Note_off_c, 0, 73, 58
1, 99875, Control_c, 0, 64, 22
1, 99955, Note_on_c, 0, 72, 66
1, 99979, Note_on_c, 0, 69, 61
1, 99994, Control_c, 0, 64, 22
1, 100038, Control_c, 0, 64, 21
1, 100047, Note_off_c, 0, 69, 64
1, 100050, Note_off_c, 0, 72, 63
1, 100053, Control_c, 0, 64, 21
1, 100068, Control_c, 0, 64, 20
1, 100083, Control_c, 0, 64, 19
1, 100098, Control_c, 0, 64, 19
1, 100113, Control_c, 0, 64, 18
1, 100128, Control_c, 0, 64, 18
1, 100142, Control_c, 0, 64, 17
1, 100173, Control_c, 0, 64, 16
1, 100190, Note_on_c, 0, 70, 67
1, 100209, Note_on_c, 0, 61, 48
1, 100213, Note_on_c, 0, 65, 48
1, 100217, Control_c, 0, 64, 16
1, 100262, Control_c, 0, 64, 15
1, 100277, Control_c, 0, 64, 15
1, 100279, Note_off_c, 0, 61, 63
1, 100298, Control_c, 0, 64, 14
1, 100305, Note_off_c, 0, 65, 63
1, 100313, Note_off_c, 0, 70, 63
1, 100313, Control_c, 0, 64, 13
1, 100328, Control_c, 0, 64, 12
1, 100343, Control_c, 0, 64, 11
1, 100358, Control_c, 0, 64, 10
1, 100372, Control_c, 0, 64, 9
1, 100438, Note_on_c, 0, 69, 68
1, 100466, Note_on_c, 0, 63, 46
1, 100476, Note_on_c, 0, 60, 39
1, 100524, Note_off_c, 0, 69, 65
1, 100538, Note_off_c, 0, 60, 58
1, 100540, Note_off_c, 0, 63, 64
1, 100551, Control_c, 0, 64, 8
1, 100566, Control_c, 0, 64, 0
1, 100655, Control_c, 0, 67, 9
1, 100670, Control_c, 0, 67, 10
1, 100683, Note_on_c, 0, 66, 56
1, 100684, Control_c, 0, 67, 11
1, 100695, Note_on_c, 0, 61, 45
1, 100699, Control_c, 0, 67, 12
1, 100710, Note_on_c, 0, 58, 34
1, 100714, Control_c, 0, 67, 13
1, 100729, Control_c, 0, 67, 14
1, 100782, Note_off_c, 0, 58, 58
1, 100787, Note_off_c, 0, 66, 62
1, 100793, Note_off_c, 0, 61, 58
1, 100906, Control_c, 0, 67, 14
1, 100939, Note_on_c, 0, 65, 47
1, 100951, Control_c, 0, 67, 15
1, 100955, Note_on_c, 0, 60, 34
1, 100957, Note_on_c, 0, 57, 34
1, 100967, Control_c, 0, 67, 15
1, 100996, Control_c, 0, 67, 16
1, 101011, Control_c, 0, 67, 19
1, 101026, Control_c, 0, 67, 21
1, 101049, Control_c, 0, 67, 24
1, 101054, Note_off_c, 0, 57, 53
1, 101061, Note_off_c, 0, 65, 63
1, 101064, Control_c, 0, 67, 27
1, 101067, Note_off_c, 0, 60, 51
1, 101078, Control_c, 0, 67, 29
1, 101093, Control_c, 0, 67, 30
1, 101108, Control_c, 0, 67, 32
1, 101122, Control_c, 0, 67, 33
1, 101213, Note_on_c, 0, 64, 37
1, 101238, Note_on_c, 0, 58, 25
1, 101258, Note_on_c, 0, 55, 25
1, 101285, Control_c, 0, 67, 32
1, 101329, Control_c, 0, 67, 32
1, 101347, Note_off_c, 0, 64, 60
1, 101351, Note_off_c, 0, 58, 49
1, 101359, Control_c, 0, 67, 31
1, 101374, Control_c, 0, 67, 31
1, 101377, Note_off_c, 0, 55, 36
1, 101433, Control_c, 0, 67, 30
1, 101478, Control_c, 0, 67, 30
1, 101552, Control_c, 0, 67, 29
1, 101597, Note_on_c, 0, 63, 4
1, 101610, Note_on_c, 0, 60, 19
1, 101626, Note_on_c, 0, 57, 25
1, 101714, Control_c, 0, 67, 30
1, 101729, Control_c, 0, 67, 30
1, 101744, Control_c, 0, 67, 31
1, 101760, Control_c, 0, 67, 31
1, 101775, Control_c, 0, 67, 32
1, 101797, Control_c, 0, 67, 32
1, 101960, Control_c, 0, 67, 32
1, 102004, Control_c, 0, 67, 31
1, 102048, Control_c, 0, 67, 31
1, 102092, Control_c, 0, 67, 30
1, 102137, Control_c, 0, 67, 30
1, 102226, Control_c, 0, 67, 29
1, 102270, Control_c, 0, 67, 29
1, 102300, Control_c, 0, 67, 28
1, 102344, Control_c, 0, 67, 28
1, 102359, Control_c, 0, 67, 27
1, 102389, Control_c, 0, 67, 27
1, 102433, Control_c, 0, 67, 26
1, 102462, Control_c, 0, 67, 26
1, 102492, Control_c, 0, 67, 25
1, 102662, Note_off_c, 0, 53, 51
1, 102676, Note_off_c, 0, 60, 37
1, 102726, Note_off_c, 0, 63, 38
1, 102727, Note_off_c, 0, 57, 43
1, 102767, Control_c, 0, 67, 26
1, 102812, Control_c, 0, 67, 26
1, 102827, Control_c, 0, 67, 27
1, 102856, Control_c, 0, 67, 27
1, 102960, Control_c, 0, 67, 28
1, 102975, Control_c, 0, 67, 28
1, 102989, Control_c, 0, 67, 29
1, 103004, Control_c, 0, 67, 29
1, 103019, Control_c, 0, 67, 30
1, 103034, Control_c, 0, 67, 30
1, 103049, Control_c, 0, 67, 31
1, 103093, Control_c, 0, 67, 31
1, 103138, Control_c, 0, 67, 32
1, 103167, Control_c, 0, 67, 32
1, 103175, Note_on_c, 0, 58, 38
1, 103233, Note_off_c, 0, 58, 59
1, 103250, Note_on_c, 0, 61, 44
1, 103305, Note_off_c, 0, 61, 60
1, 103335, Note_on_c, 0, 65, 38
1, 103395, Note_off_c, 0, 65, 43
1, 103398, Control_c, 0, 67, 32
1, 103410, Note_on_c, 0, 58, 41
1, 103428, Control_c, 0, 67, 31
1, 103443, Control_c, 0, 67, 31
1, 103472, Control_c, 0, 67, 30
1, 103476, Note_off_c, 0, 58, 58
1, 103507, Note_on_c, 0, 61, 40
1, 103516, Control_c, 0, 67, 30
1, 103557, Note_off_c, 0, 61, 58
1, 103583, Note_on_c, 0, 65, 37
1, 103652, Note_off_c, 0, 65, 41
1, 103665, Note_on_c, 0, 58, 30
1, 103703, Note_off_c, 0, 58, 56
1, 103720, Note_on_c, 0, 61, 44
1, 103753, Control_c, 0, 67, 29
1, 103775, Note_off_c, 0, 61, 58
1, 103791, Note_on_c, 0, 65, 38
1, 103797, Control_c, 0, 67, 29
1, 103827, Control_c, 0, 67, 28
1, 103858, Note_on_c, 0, 75, 54
1, 103874, Note_off_c, 0, 65, 38
1, 103892, Note_on_c, 0, 58, 40
1, 103908, Note_on_c, 0, 73, 56
1, 103938, Note_off_c, 0, 58, 59
1, 103948, Note_off_c, 0, 75, 60
1, 103966, Note_on_c, 0, 61, 37
1, 103967, Note_on_c, 0, 72, 63
1, 104002, Note_off_c, 0, 73, 59
1, 104008, Note_off_c, 0, 61, 59
1, 104020, Note_on_c, 0, 65, 42
1, 104038, Note_on_c, 0, 70, 51
1, 104042, Control_c, 0, 67, 28
1, 104053, Note_off_c, 0, 72, 60
1, 104085, Note_off_c, 0, 70, 62
1, 104089, Note_on_c, 0, 69, 66
1, 104119, Note_off_c, 0, 65, 55
1, 104122, Note_off_c, 0, 69, 66
1, 104130, Note_on_c, 0, 60, 44
1, 104181, Note_off_c, 0, 60, 58
1, 104200, Note_on_c, 0, 63, 50
1, 104259, Note_off_c, 0, 63, 61
1, 104274, Note_on_c, 0, 65, 48
1, 104349, Note_off_c, 0, 65, 54
1, 104353, Note_on_c, 0, 60, 48
1, 104414, Note_off_c, 0, 60, 58
1, 104420, Note_on_c, 0, 63, 48
1, 104488, Note_off_c, 0, 63, 60
1, 104496, Note_on_c, 0, 65, 46
1, 104572, Note_off_c, 0, 65, 52
1, 104574, Note_on_c, 0, 57, 50
1, 104641, Note_on_c, 0, 60, 46
1, 104643, Note_off_c, 0, 57, 54
1, 104695, Note_off_c, 0, 60, 58
1, 104714, Note_on_c, 0, 65, 46
1, 104802, Note_off_c, 0, 65, 53
1, 104807, Note_on_c, 0, 80, 57
1, 104808, Note_on_c, 0, 57, 45
1, 104857, Note_on_c, 0, 78, 55
1, 104887, Note_on_c, 0, 60, 34
1, 104887, Note_off_c, 0, 57, 55
1, 104895, Control_c, 0, 67, 27
1, 104898, Note_off_c, 0, 80, 57
1, 104921, Note_on_c, 0, 77, 54
1, 104927, Note_off_c, 0, 60, 54
1, 104935, Note_on_c, 0, 65, 48
1, 104951, Note_off_c, 0, 78, 55
1, 104981, Note_on_c, 0, 75, 46
1, 104996, Note_off_c, 0, 77, 55
1, 105020, Note_off_c, 0, 65, 52
1, 105033, Note_off_c, 0, 75, 61
1, 105043, Note_on_c, 0, 58, 44
1, 105046, Note_on_c, 0, 73, 41
1, 105071, Note_off_c, 0, 73, 60
1, 105109, Note_off_c, 0, 58, 58
1, 105133, Note_on_c, 0, 61, 38
1, 105199, Note_off_c, 0, 61, 57
1, 105213, Note_on_c, 0, 65, 36
1, 105308, Note_off_c, 0, 65, 37
1, 105316, Note_on_c, 0, 58, 28
1, 105355, Control_c, 0, 67, 27
1, 105370, Note_off_c, 0, 58, 56
1, 105400, Note_on_c, 0, 61, 24
1, 105442, Note_on_c, 0, 65, 43
1, 105461, Note_off_c, 0, 61, 42
1, 105547, Note_off_c, 0, 65, 50
1, 105565, Note_on_c, 0, 58, 37
1, 105619, Note_off_c, 0, 58, 60
1, 105637, Note_on_c, 0, 61, 39
1, 105686, Note_off_c, 0, 61, 56
1, 105692, Note_on_c, 0, 65, 46
1, 105793, Note_on_c, 0, 75, 61
1, 105800, Note_off_c, 0, 65, 57
1, 105815, Note_on_c, 0, 58, 37
1, 105852, Note_on_c, 0, 73, 57
1, 105874, Note_off_c, 0, 58, 59
1, 105896, Note_off_c, 0, 75, 62
1, 105902, Note_on_c, 0, 61, 42
1, 105904, Note_on_c, 0, 72, 63
1, 105941, Note_off_c, 0, 61, 60
1, 105953, Note_on_c, 0, 65, 47
1, 105961, Note_off_c, 0, 73, 60
1, 105967, Note_on_c, 0, 70, 62
1, 105996, Note_off_c, 0, 72, 60
1, 106000, Control_c, 0, 67, 26
1, 106032, Note_on_c, 0, 69, 68
1, 106038, Note_off_c, 0, 70, 62
1, 106051, Note_on_c, 0, 60, 52
1, 106058, Note_off_c, 0, 65, 54
1, 106067, Note_off_c, 0, 69, 65
1, 106122, Note_off_c, 0, 60, 53
1, 106135, Note_on_c, 0, 63, 49
1, 106187, Note_off_c, 0, 63, 62
1, 106200, Note_on_c, 0, 65, 48
1, 106290, Note_on_c, 0, 60, 50
1, 106308, Note_off_c, 0, 65, 56
1, 106378, Note_on_c, 0, 63, 52
1, 106385, Note_off_c, 0, 60, 58
1, 106447, Note_on_c, 0, 65, 52
1, 106449, Note_off_c, 0, 63, 59
1, 106534, Note_on_c, 0, 57, 47
1, 106564, Note_off_c, 0, 65, 34
1, 106602, Note_on_c, 0, 60, 53
1, 106611, Note_off_c, 0, 57, 49
1, 106657, Note_off_c, 0, 60, 57
1, 106680, Note_on_c, 0, 65, 57
1, 106742, Note_on_c, 0, 80, 61
1, 106747, Note_off_c, 0, 65, 51
1, 106749, Note_on_c, 0, 57, 58
1, 106796, Note_on_c, 0, 78, 59
1, 106838, Note_off_c, 0, 57, 58
1, 106841, Note_off_c, 0, 80, 59
1, 106843, Note_on_c, 0, 60, 41
1, 106859, Note_on_c, 0, 77, 59
1, 106879, Note_off_c, 0, 60, 58
1, 106891, Note_on_c, 0, 65, 45
1, 106898, Note_off_c, 0, 78, 60
1, 106918, Note_on_c, 0, 75, 50
1, 106945, Note_off_c, 0, 77, 61
1, 106964, Note_off_c, 0, 65, 50
1, 106971, Note_off_c, 0, 75, 57
1, 106974, Note_on_c, 0, 73, 49
1, 106996, Note_on_c, 0, 58, 38
1, 107060, Note_off_c, 0, 73, 61
1, 107070, Note_off_c, 0, 58, 61
1, 107097, Note_on_c, 0, 61, 44
1, 107112, Control_c, 0, 67, 26
1, 107149, Note_off_c, 0, 61, 59
1, 107156, Control_c, 0, 67, 25
1, 107168, Note_on_c, 0, 65, 42
1, 107200, Control_c, 0, 67, 25
1, 107230, Control_c, 0, 67, 24
1, 107243, Note_on_c, 0, 58, 52
1, 107243, Note_off_c, 0, 65, 55
1, 107246, Control_c, 0, 67, 24
1, 107275, Control_c, 0, 67, 23
1, 107290, Control_c, 0, 67, 23
1, 107305, Control_c, 0, 67, 22
1, 107320, Control_c, 0, 67, 22
1, 107326, Note_off_c, 0, 58, 61
1, 107334, Control_c, 0, 67, 21
1, 107338, Note_on_c, 0, 61, 49
1, 107365, Control_c, 0, 67, 21
1, 107380, Control_c, 0, 67, 20
1, 107400, Note_on_c, 0, 65, 48
1, 107410, Note_off_c, 0, 61, 56
1, 107487, Note_on_c, 0, 58, 56
1, 107512, Note_off_c, 0, 65, 53
1, 107564, Note_on_c, 0, 61, 57
1, 107574, Note_off_c, 0, 58, 62
1, 107636, Note_on_c, 0, 65, 58
1, 107640, Note_off_c, 0, 61, 60
1, 107691, Note_on_c, 0, 78, 68
1, 107734, Note_on_c, 0, 58, 56
1, 107740, Note_off_c, 0, 65, 60
1, 107744, Note_on_c, 0, 77, 66
1, 107765, Control_c, 0, 67, 20
1, 107802, Control_c, 0, 64, 8
1, 107812, Note_on_c, 0, 75, 78
1, 107813, Note_off_c, 0, 58, 64
1, 107817, Control_c, 0, 67, 19
1, 107818, Note_on_c, 0, 61, 52
1, 107836, Note_off_c, 0, 78, 41
1, 107846, Control_c, 0, 64, 9
1, 107846, Control_c, 0, 67, 19
1, 107861, Note_off_c, 0, 61, 62
1, 107863, Note_on_c, 0, 73, 73
1, 107864, Note_off_c, 0, 77, 63
1, 107881, Note_on_c, 0, 65, 44
1, 107890, Control_c, 0, 67, 18
1, 107920, Control_c, 0, 67, 18
1, 107923, Note_off_c, 0, 65, 49
1, 107929, Note_on_c, 0, 72, 74
1, 107950, Control_c, 0, 67, 17
1, 107952, Note_on_c, 0, 56, 61
1, 107965, Control_c, 0, 67, 16
1, 107974, Note_off_c, 0, 75, 49
1, 107977, Note_off_c, 0, 73, 61
1, 108027, Note_on_c, 0, 63, 58
1, 108028, Note_off_c, 0, 56, 57
1, 108035, Note_off_c, 0, 72, 63
1, 108096, Note_off_c, 0, 63, 64
1, 108116, Note_on_c, 0, 66, 47
1, 108172, Note_off_c, 0, 66, 54
1, 108188, Control_c, 0, 67, 17
1, 108188, Note_on_c, 0, 56, 51
1, 108218, Control_c, 0, 67, 17
1, 108233, Control_c, 0, 67, 18
1, 108262, Control_c, 0, 67, 18
1, 108266, Note_on_c, 0, 63, 49
1, 108277, Control_c, 0, 67, 19
1, 108285, Note_off_c, 0, 56, 53
1, 108292, Control_c, 0, 67, 19
1, 108334, Note_off_c, 0, 63, 63
1, 108336, Control_c, 0, 67, 20
1, 108347, Note_on_c, 0, 66, 49
1, 108366, Control_c, 0, 67, 20
1, 108380, Control_c, 0, 64, 8
1, 108380, Control_c, 0, 67, 21
1, 108410, Control_c, 0, 67, 21
1, 108412, Note_off_c, 0, 66, 52
1, 108430, Note_on_c, 0, 56, 54
1, 108440, Control_c, 0, 67, 22
1, 108484, Control_c, 0, 67, 22
1, 108501, Note_on_c, 0, 63, 50
1, 108509, Note_off_c, 0, 56, 56
1, 108536, Control_c, 0, 64, 0
1, 108574, Note_off_c, 0, 63, 61
1, 108591, Note_on_c, 0, 66, 47
1, 108666, Note_off_c, 0, 66, 51
1, 108674, Note_on_c, 0, 84, 56
1, 108675, Note_on_c, 0, 56, 50
1, 108733, Note_on_c, 0, 82, 61
1, 108743, Control_c, 0, 67, 22
1, 108746, Note_off_c, 0, 56, 54
1, 108758, Note_off_c, 0, 84, 59
1, 108762, Note_on_c, 0, 63, 34
1, 108784, Note_on_c, 0, 80, 57
1, 108802, Note_off_c, 0, 63, 59
1, 108811, Note_on_c, 0, 66, 50
1, 108823, Note_off_c, 0, 82, 57
1, 108841, Note_on_c, 0, 78, 58
1, 108869, Note_off_c, 0, 66, 55
1, 108901, Note_on_c, 0, 77, 56
1, 108902, Note_off_c, 0, 78, 54
1, 108906, Control_c, 0, 67, 21
1, 108908, Note_on_c, 0, 61, 46
1, 108909, Note_off_c, 0, 80, 33
1, 108971, Note_off_c, 0, 77, 65
1, 108977, Note_off_c, 0, 61, 59
1, 109000, Note_on_c, 0, 65, 47
1, 109056, Note_off_c, 0, 65, 61
1, 109081, Note_on_c, 0, 68, 46
1, 109140, Note_off_c, 0, 68, 56
1, 109152, Note_on_c, 0, 61, 47
1, 109233, Note_off_c, 0, 61, 58
1, 109252, Note_on_c, 0, 65, 47
1, 109319, Note_off_c, 0, 65, 57
1, 109322, Note_on_c, 0, 68, 51
1, 109401, Note_on_c, 0, 61, 54
1, 109405, Note_off_c, 0, 68, 59
1, 109448, Control_c, 0, 67, 21
1, 109473, Note_off_c, 0, 61, 58
1, 109496, Note_on_c, 0, 65, 46
1, 109544, Note_off_c, 0, 65, 59
1, 109551, Note_on_c, 0, 68, 50
1, 109612, Note_on_c, 0, 78, 64
1, 109625, Control_c, 0, 67, 20
1, 109635, Note_on_c, 0, 61, 47
1, 109642, Note_off_c, 0, 68, 58
1, 109670, Note_on_c, 0, 77, 61
1, 109707, Note_off_c, 0, 61, 57
1, 109717, Note_off_c, 0, 78, 62
1, 109729, Note_on_c, 0, 75, 69
1, 109756, Note_off_c, 0, 77, 61
1, 109783, Note_on_c, 0, 68, 46
1, 109786, Note_on_c, 0, 73, 67
1, 109819, Control_c, 0, 67, 21
1, 109822, Note_off_c, 0, 75, 59
1, 109834, Control_c, 0, 67, 22
1, 109849, Control_c, 0, 67, 22
1, 109853, Note_on_c, 0, 72, 65
1, 109863, Note_off_c, 0, 73, 59
1, 109863, Control_c, 0, 67, 23
1, 109866, Note_off_c, 0, 68, 54
1, 109878, Note_on_c, 0, 63, 48
1, 109878, Control_c, 0, 67, 25
1, 109893, Control_c, 0, 67, 25
1, 109908, Control_c, 0, 67, 26
1, 109920, Note_off_c, 0, 72, 60
1, 109923, Control_c, 0, 67, 27
1, 109938, Control_c, 0, 67, 27
1, 109938, Note_off_c, 0, 63, 58
1, 109947, Note_on_c, 0, 66, 54
1, 109996, Note_off_c, 0, 66, 60
1, 109997, Control_c, 0, 67, 28
1, 110012, Control_c, 0, 67, 28
1, 110031, Note_on_c, 0, 68, 46
1, 110123, Control_c, 0, 67, 29
1, 110134, Note_off_c, 0, 68, 53
1, 110136, Note_on_c, 0, 63, 39
1, 110138, Control_c, 0, 67, 29
1, 110152, Control_c, 0, 67, 30
1, 110167, Control_c, 0, 67, 30
1, 110192, Note_off_c, 0, 63, 56
1, 110194, Note_on_c, 0, 66, 52
1, 110197, Control_c, 0, 67, 31
1, 110212, Control_c, 0, 67, 32
1, 110226, Control_c, 0, 67, 36
1, 110239, Control_c, 0, 67, 44
1, 110254, Note_off_c, 0, 66, 57
1, 110254, Control_c, 0, 67, 51
1, 110269, Control_c, 0, 67, 56
1, 110270, Note_on_c, 0, 68, 48
1, 110284, Control_c, 0, 67, 59
1, 110299, Control_c, 0, 67, 60
1, 110314, Control_c, 0, 67, 60
1, 110328, Control_c, 0, 67, 60
1, 110339, Note_off_c, 0, 68, 54
1, 110343, Control_c, 0, 67, 59
1, 110350, Note_on_c, 0, 60, 48
1, 110358, Control_c, 0, 67, 58
1, 110388, Control_c, 0, 67, 58
1, 110403, Control_c, 0, 67, 57
1, 110418, Control_c, 0, 67, 57
1, 110427, Note_on_c, 0, 63, 45
1, 110432, Control_c, 0, 67, 56
1, 110447, Control_c, 0, 67, 55
1, 110448, Note_off_c, 0, 60, 49
1, 110462, Control_c, 0, 67, 54
1, 110476, Control_c, 0, 67, 54
1, 110491, Note_off_c, 0, 63, 58
1, 110491, Control_c, 0, 67, 53
1, 110502, Note_on_c, 0, 68, 39
1, 110506, Control_c, 0, 67, 53
1, 110521, Control_c, 0, 67, 52
1, 110536, Control_c, 0, 67, 52
1, 110552, Control_c, 0, 67, 51
1, 110574, Note_on_c, 0, 84, 55
1, 110581, Control_c, 0, 67, 51
1, 110596, Control_c, 0, 67, 50
1, 110600, Note_on_c, 0, 60, 40
1, 110623, Note_off_c, 0, 68, 46
1, 110630, Note_on_c, 0, 82, 59
1, 110638, Note_off_c, 0, 84, 51
1, 110651, Note_off_c, 0, 60, 49
1, 110655, Control_c, 0, 67, 50
1, 110668, Note_on_c, 0, 63, 29
1, 110691, Note_on_c, 0, 80, 59
1, 110716, Note_off_c, 0, 82, 56
1, 110719, Note_off_c, 0, 63, 51
1, 110733, Note_on_c, 0, 68, 41
1, 110753, Note_on_c, 0, 78, 57
1, 110778, Note_off_c, 0, 80, 53
1, 110781, Control_c, 0, 67, 49
1, 110809, Note_off_c, 0, 78, 60
1, 110826, Control_c, 0, 67, 49
1, 110831, Note_on_c, 0, 77, 63
1, 110841, Control_c, 0, 67, 48
1, 110850, Note_on_c, 0, 61, 54
1, 110855, Control_c, 0, 67, 48
1, 110865, Note_off_c, 0, 77, 65
1, 110870, Control_c, 0, 67, 47
1, 110885, Control_c, 0, 67, 46
1, 110899, Control_c, 0, 67, 45
1, 110914, Control_c, 0, 67, 42
1, 110929, Control_c, 0, 67, 38
1, 110944, Control_c, 0, 67, 33
1, 110959, Control_c, 0, 67, 30
1, 110973, Control_c, 0, 67, 26
1, 110989, Control_c, 0, 67, 24
1, 111004, Control_c, 0, 67, 24
1, 111019, Control_c, 0, 67, 23
1, 111034, Control_c, 0, 67, 23
1, 111094, Note_on_c, 0, 89, 61
1, 111107, Control_c, 0, 67, 22
1, 111122, Control_c, 0, 67, 22
1, 111137, Control_c, 0, 67, 17
1, 111152, Control_c, 0, 67, 13
1, 111167, Control_c, 0, 67, 10
1, 111171, Note_on_c, 0, 87, 70
1, 111181, Control_c, 0, 67, 9
1, 111193, Note_off_c, 0, 89, 62
1, 111196, Control_c, 0, 67, 8
1, 111240, Note_on_c, 0, 85, 73
1, 111256, Control_c, 0, 67, 8
1, 111270, Control_c, 0, 64, 8
1, 111285, Note_off_c, 0, 87, 65
1, 111285, Control_c, 0, 64, 9
1, 111300, Control_c, 0, 64, 10
1, 111305, Note_off_c, 0, 85, 64
1, 111306, Note_on_c, 0, 84, 74
1, 111315, Control_c, 0, 64, 12
1, 111325, Note_off_c, 0, 68, 44
1, 111330, Control_c, 0, 64, 13
1, 111345, Control_c, 0, 64, 15
1, 111360, Control_c, 0, 64, 15
1, 111372, Note_on_c, 0, 82, 78
1, 111372, Note_off_c, 0, 84, 50
1, 111375, Control_c, 0, 64, 16
1, 111385, Note_off_c, 0, 61, 60
1, 111405, Control_c, 0, 64, 16
1, 111419, Control_c, 0, 64, 17
1, 111419, Control_c, 0, 67, 8
1, 111446, Note_on_c, 0, 80, 78
1, 111464, Control_c, 0, 67, 9
1, 111494, Control_c, 0, 67, 9
1, 111498, Note_off_c, 0, 82, 52
1, 111522, Note_on_c, 0, 78, 79
1, 111561, Note_off_c, 0, 80, 63
1, 111586, Note_off_c, 0, 78, 64
1, 111590, Control_c, 0, 64, 16
1, 111591, Note_on_c, 0, 77, 74
1, 111604, Control_c, 0, 64, 15
1, 111619, Control_c, 0, 64, 14
1, 111634, Control_c, 0, 64, 13
1, 111649, Control_c, 0, 64, 13
1, 111649, Control_c, 0, 67, 9
1, 111660, Note_off_c, 0, 77, 64
1, 111663, Note_on_c, 0, 75, 73
1, 111664, Control_c, 0, 64, 12
1, 111679, Control_c, 0, 64, 11
1, 111694, Control_c, 0, 64, 9
1, 111709, Control_c, 0, 64, 8
1, 111709, Control_c, 0, 67, 8
1, 111723, Control_c, 0, 64, 0
1, 111760, Note_on_c, 0, 73, 71
1, 111768, Control_c, 0, 67, 8
1, 111785, Note_off_c, 0, 75, 63
1, 111797, Control_c, 0, 67, 0
1, 112008, Note_off_c, 0, 73, 61
1, 112019, Note_on_c, 0, 77, 66
1, 112020, Note_on_c, 0, 65, 60
1, 112071, Note_off_c, 0, 65, 55
1, 112087, Note_on_c, 0, 75, 75
1, 112087, Note_on_c, 0, 63, 73
1, 112114, Note_off_c, 0, 77, 64
1, 112158, Note_on_c, 0, 73, 74
1, 112168, Note_on_c, 0, 61, 71
1, 112180, Note_off_c, 0, 63, 63
1, 112203, Note_off_c, 0, 75, 65
1, 112221, Note_off_c, 0, 61, 65
1, 112221, Note_off_c, 0, 73, 65
1, 112223, Note_on_c, 0, 72, 72
1, 112244, Note_on_c, 0, 60, 73
1, 112300, Note_on_c, 0, 70, 78
1, 112302, Note_off_c, 0, 72, 40
1, 112309, Control_c, 0, 64, 8
1, 112320, Note_off_c, 0, 60, 57
1, 112322, Note_on_c, 0, 58, 77
1, 112353, Control_c, 0, 64, 9
1, 112382, Note_on_c, 0, 68, 77
1, 112383, Control_c, 0, 64, 10
1, 112391, Note_on_c, 0, 56, 68
1, 112398, Control_c, 0, 64, 11
1, 112413, Control_c, 0, 64, 12
1, 112418, Note_off_c, 0, 58, 64
1, 112421, Note_off_c, 0, 70, 60
1, 112427, Control_c, 0, 64, 13
1, 112442, Control_c, 0, 64, 13
1, 112449, Note_on_c, 0, 66, 80
1, 112456, Note_on_c, 0, 54, 66
1, 112457, Control_c, 0, 64, 16
1, 112467, Note_off_c, 0, 56, 63
1, 112472, Control_c, 0, 64, 18
1, 112486, Control_c, 0, 64, 19
1, 112493, Note_off_c, 0, 68, 65
1, 112501, Control_c, 0, 64, 19
1, 112503, Note_off_c, 0, 54, 64
1, 112516, Control_c, 0, 64, 20
1, 112520, Note_on_c, 0, 65, 78
1, 112520, Note_off_c, 0, 66, 65
1, 112531, Control_c, 0, 64, 20
1, 112533, Note_on_c, 0, 53, 73
1, 112545, Control_c, 0, 64, 21
1, 112575, Control_c, 0, 64, 21
1, 112599, Note_on_c, 0, 63, 84
1, 112605, Control_c, 0, 64, 22
1, 112608, Note_off_c, 0, 65, 60
1, 112618, Note_on_c, 0, 51, 75
1, 112618, Note_off_c, 0, 53, 59
1, 112699, Note_on_c, 0, 61, 81
1, 112718, Note_on_c, 0, 49, 77
1, 112739, Note_off_c, 0, 63, 64
1, 112782, Control_c, 0, 64, 21
1, 112812, Control_c, 0, 64, 21
1, 112818, Note_off_c, 0, 51, 54
1, 112916, Control_c, 0, 64, 21
1, 112931, Control_c, 0, 64, 22
1, 112946, Control_c, 0, 64, 22
1, 112961, Control_c, 0, 64, 23
1, 112990, Control_c, 0, 64, 24
1, 113005, Control_c, 0, 64, 24
1, 113028, Control_c, 0, 64, 25
1, 113042, Control_c, 0, 64, 25
1, 113169, Note_off_c, 0, 61, 61
1, 113214, Note_on_c, 0, 59, 60
1, 113218, Note_off_c, 0, 49, 63
1, 113235, Note_on_c, 0, 47, 68
1, 113254, Note_off_c, 0, 59, 62
1, 113265, Control_c, 0, 64, 27
1, 113280, Control_c, 0, 64, 30
1, 113280, Note_on_c, 0, 61, 54
1, 113294, Control_c, 0, 64, 33
1, 113295, Note_off_c, 0, 47, 58
1, 113303, Note_off_c, 0, 61, 59
1, 113309, Control_c, 0, 64, 34
1, 113312, Note_on_c, 0, 49, 59
1, 113324, Control_c, 0, 64, 35
1, 113325, Note_on_c, 0, 59, 65
1, 113351, Note_off_c, 0, 49, 63
1, 113354, Note_off_c, 0, 59, 68
1, 113365, Note_on_c, 0, 47, 52
1, 113366, Note_on_c, 0, 61, 65
1, 113368, Control_c, 0, 64, 34
1, 113384, Note_off_c, 0, 61, 64
1, 113398, Control_c, 0, 64, 33
1, 113413, Control_c, 0, 64, 32
1, 113431, Note_on_c, 0, 49, 71
1, 113433, Note_on_c, 0, 59, 39
1, 113439, Note_off_c, 0, 47, 64
1, 113449, Note_on_c, 0, 61, 74
1, 113470, Note_off_c, 0, 49, 64
1, 113486, Note_off_c, 0, 59, 0
1, 113486, Note_on_c, 0, 59, 68
1, 113500, Note_off_c, 0, 61, 64
1, 113516, Control_c, 0, 64, 33
1, 113560, Note_off_c, 0, 59, 64
1, 113561, Control_c, 0, 64, 33
1, 113566, Note_on_c, 0, 58, 72
1, 113590, Control_c, 0, 64, 34
1, 113624, Note_off_c, 0, 58, 65
1, 113633, Note_on_c, 0, 59, 60
1, 113664, Control_c, 0, 64, 34
1, 113694, Note_off_c, 0, 59, 64
1, 113709, Note_on_c, 0, 34, 66
1, 113709, Note_on_c, 0, 46, 57
1, 113714, Note_on_c, 0, 58, 72
1, 113754, Control_c, 0, 64, 34
1, 113789, Note_off_c, 0, 58, 64
1, 113798, Note_on_c, 0, 62, 68
1, 113821, Control_c, 0, 64, 33
1, 113869, Note_on_c, 0, 65, 72
1, 113873, Note_off_c, 0, 62, 65
1, 113900, Note_off_c, 0, 65, 67
1, 113941, Note_on_c, 0, 62, 79
1, 114017, Note_off_c, 0, 62, 64
1, 114019, Note_on_c, 0, 65, 76
1, 114084, Note_on_c, 0, 70, 72
1, 114087, Note_off_c, 0, 65, 63
1, 114146, Note_off_c, 0, 70, 64
1, 114154, Note_on_c, 0, 65, 74
1, 114233, Note_on_c, 0, 70, 77
1, 114233, Note_off_c, 0, 65, 62
1, 114294, Note_off_c, 0, 70, 64
1, 114300, Note_on_c, 0, 74, 73
1, 114369, Note_off_c, 0, 74, 65
1, 114371, Note_on_c, 0, 70, 78
1, 114437, Note_on_c, 0, 74, 69
1, 114447, Note_off_c, 0, 70, 62
1, 114457, Control_c, 0, 64, 33
1, 114487, Control_c, 0, 64, 32
1, 114508, Note_on_c, 0, 77, 77
1, 114527, Note_off_c, 0, 74, 64
1, 114555, Control_c, 0, 64, 32
1, 114559, Note_off_c, 0, 77, 64
1, 114582, Note_on_c, 0, 74, 71
1, 114614, Control_c, 0, 64, 31
1, 114637, Note_off_c, 0, 34, 63
1, 114649, Note_off_c, 0, 46, 64
1, 114653, Note_on_c, 0, 77, 82
1, 114658, Note_off_c, 0, 74, 65
1, 114703, Control_c, 0, 64, 31
1, 114718, Control_c, 0, 64, 30
1, 114719, Note_on_c, 0, 80, 81
1, 114730, Note_off_c, 0, 77, 63
1, 114748, Control_c, 0, 64, 30
1, 114778, Control_c, 0, 64, 29
1, 114789, Note_on_c, 0, 77, 76
1, 114794, Note_off_c, 0, 80, 63
1, 114808, Control_c, 0, 64, 29
1, 114852, Control_c, 0, 67, 8
1, 114861, Note_on_c, 0, 80, 79
1, 114866, Control_c, 0, 67, 8
1, 114881, Control_c, 0, 67, 9
1, 114896, Control_c, 0, 67, 10
1, 114900, Note_off_c, 0, 77, 64
1, 114911, Control_c, 0, 67, 11
1, 114926, Control_c, 0, 67, 11
1, 114931, Note_on_c, 0, 83, 78
1, 114934, Note_off_c, 0, 80, 64
1, 114940, Control_c, 0, 67, 12
1, 114955, Control_c, 0, 67, 12
1, 114970, Control_c, 0, 67, 13
1, 114985, Control_c, 0, 67, 13
1, 115000, Control_c, 0, 64, 28
1, 115000, Control_c, 0, 67, 14
1, 115008, Note_on_c, 0, 82, 75
1, 115029, Control_c, 0, 67, 14
1, 115044, Control_c, 0, 64, 28
1, 115058, Note_off_c, 0, 83, 60
1, 115074, Control_c, 0, 64, 27
1, 115079, Note_on_c, 0, 80, 68
1, 115104, Control_c, 0, 64, 27
1, 115119, Control_c, 0, 64, 26
1, 115134, Control_c, 0, 64, 26
1, 115148, Note_on_c, 0, 78, 73
1, 115148, Note_off_c, 0, 82, 54
1, 115163, Control_c, 0, 64, 25
1, 115178, Control_c, 0, 64, 24
1, 115190, Note_off_c, 0, 80, 63
1, 115193, Control_c, 0, 64, 23
1, 115193, Control_c, 0, 67, 15
1, 115208, Control_c, 0, 64, 21
1, 115208, Control_c, 0, 67, 15
1, 115212, Note_off_c, 0, 78, 63
1, 115217, Note_on_c, 0, 77, 68
1, 115222, Control_c, 0, 64, 20
1, 115222, Control_c, 0, 67, 16
1, 115237, Control_c, 0, 64, 19
1, 115237, Control_c, 0, 67, 19
1, 115252, Control_c, 0, 64, 18
1, 115252, Control_c, 0, 67, 22
1, 115274, Control_c, 0, 64, 18
1, 115274, Control_c, 0, 67, 24
1, 115289, Note_off_c, 0, 77, 65
1, 115289, Control_c, 0, 67, 25
1, 115289, Note_on_c, 0, 75, 75
1, 115304, Control_c, 0, 64, 17
1, 115304, Control_c, 0, 67, 28
1, 115318, Control_c, 0, 64, 17
1, 115318, Control_c, 0, 67, 30
1, 115333, Control_c, 0, 67, 32
1, 115349, Control_c, 0, 67, 32
1, 115352, Note_off_c, 0, 75, 63
1, 115366, Note_on_c, 0, 74, 67
1, 115408, Control_c, 0, 67, 32
1, 115423, Control_c, 0, 64, 16
1, 115435, Note_off_c, 0, 74, 61
1, 115438, Control_c, 0, 67, 31
1, 115453, Control_c, 0, 67, 31
1, 115456, Note_on_c, 0, 75, 59
1, 115461, Note_on_c, 0, 63, 47
1, 115468, Control_c, 0, 67, 30
1, 115497, Control_c, 0, 64, 16
1, 115497, Control_c, 0, 67, 30
1, 115509, Note_off_c, 0, 63, 62
1, 115512, Control_c, 0, 64, 15
1, 115512, Control_c, 0, 67, 29
1, 115527, Control_c, 0, 64, 15
1, 115527, Control_c, 0, 67, 29
1, 115539, Note_on_c, 0, 66, 43
1, 115542, Control_c, 0, 67, 28
1, 115557, Control_c, 0, 64, 14
1, 115571, Control_c, 0, 67, 28
1, 115586, Control_c, 0, 64, 13
1, 115593, Note_off_c, 0, 66, 59
1, 115616, Control_c, 0, 64, 13
1, 115622, Note_on_c, 0, 70, 40
1, 115631, Control_c, 0, 64, 12
1, 115645, Control_c, 0, 64, 12
1, 115660, Control_c, 0, 64, 11
1, 115660, Control_c, 0, 67, 28
1, 115675, Control_c, 0, 64, 10
1, 115675, Control_c, 0, 67, 29
1, 115689, Control_c, 0, 64, 9
1, 115689, Control_c, 0, 67, 30
1, 115691, Note_on_c, 0, 63, 42
1, 115704, Note_off_c, 0, 70, 39
1, 115704, Control_c, 0, 64, 8
1, 115704, Control_c, 0, 67, 31
1, 115719, Control_c, 0, 67, 31
1, 115734, Control_c, 0, 64, 0
1, 115734, Control_c, 0, 67, 32
1, 115749, Control_c, 0, 67, 33
1, 115763, Note_off_c, 0, 63, 58
1, 115763, Control_c, 0, 67, 33
1, 115775, Note_on_c, 0, 66, 45
1, 115793, Control_c, 0, 67, 34
1, 115808, Control_c, 0, 67, 37
1, 115823, Control_c, 0, 67, 41
1, 115828, Note_off_c, 0, 75, 59
1, 115837, Control_c, 0, 67, 43
1, 115840, Note_off_c, 0, 66, 59
1, 115852, Control_c, 0, 67, 45
1, 115855, Note_on_c, 0, 70, 41
1, 115912, Control_c, 0, 67, 44
1, 115924, Note_on_c, 0, 63, 49
1, 115942, Control_c, 0, 67, 44
1, 115944, Note_off_c, 0, 70, 52
1, 115971, Control_c, 0, 67, 43
1, 116001, Control_c, 0, 67, 43
1, 116007, Note_on_c, 0, 66, 51
1, 116022, Note_off_c, 0, 63, 61
1, 116038, Control_c, 0, 67, 42
1, 116052, Control_c, 0, 67, 42
1, 116067, Control_c, 0, 67, 41
1, 116085, Note_on_c, 0, 70, 52
1, 116095, Note_off_c, 0, 66, 55
1, 116097, Control_c, 0, 67, 41
1, 116111, Control_c, 0, 67, 40
1, 116142, Control_c, 0, 67, 40
1, 116151, Note_on_c, 0, 80, 64
1, 116172, Control_c, 0, 67, 39
1, 116175, Note_on_c, 0, 63, 45
1, 116187, Control_c, 0, 67, 39
1, 116207, Note_on_c, 0, 78, 61
1, 116216, Control_c, 0, 67, 38
1, 116231, Note_off_c, 0, 70, 33
1, 116237, Note_off_c, 0, 63, 61
1, 116247, Note_on_c, 0, 66, 50
1, 116256, Note_off_c, 0, 80, 62
1, 116266, Note_on_c, 0, 77, 70
1, 116302, Note_off_c, 0, 78, 52
1, 116313, Note_off_c, 0, 66, 61
1, 116319, Control_c, 0, 67, 38
1, 116327, Note_on_c, 0, 75, 67
1, 116340, Note_on_c, 0, 70, 46
1, 116355, Note_off_c, 0, 77, 62
1, 116398, Note_on_c, 0, 74, 57
1, 116402, Note_off_c, 0, 70, 43
1, 116407, Note_off_c, 0, 75, 60
1, 116427, Note_on_c, 0, 65, 46
1, 116467, Note_off_c, 0, 74, 55
1, 116501, Note_off_c, 0, 65, 57
1, 116514, Note_on_c, 0, 68, 39
1, 116541, Control_c, 0, 64, 8
1, 116541, Control_c, 0, 67, 38
1, 116568, Note_off_c, 0, 68, 57
1, 116575, Note_on_c, 0, 70, 43
1, 116660, Note_on_c, 0, 65, 45
1, 116713, Note_off_c, 0, 70, 41
1, 116725, Note_on_c, 0, 68, 48
1, 116769, Note_off_c, 0, 65, 59
1, 116800, Control_c, 0, 64, 9
1, 116824, Note_off_c, 0, 68, 60
1, 116833, Note_on_c, 0, 70, 54
1, 116845, Control_c, 0, 64, 10
1, 116904, Note_on_c, 0, 62, 51
1, 116925, Note_off_c, 0, 70, 49
1, 116964, Control_c, 0, 64, 11
1, 116974, Note_on_c, 0, 65, 50
1, 116987, Note_off_c, 0, 62, 52
1, 117038, Control_c, 0, 64, 12
1, 117051, Note_off_c, 0, 65, 57
1, 117065, Note_on_c, 0, 70, 49
1, 117130, Note_on_c, 0, 85, 53
1, 117146, Note_off_c, 0, 70, 53
1, 117147, Note_on_c, 0, 62, 43
1, 117172, Control_c, 0, 64, 12
1, 117203, Note_on_c, 0, 83, 54
1, 117213, Note_on_c, 0, 65, 34
1, 117220, Note_off_c, 0, 62, 54
1, 117240, Note_off_c, 0, 85, 62
1, 117250, Note_off_c, 0, 83, 61
1, 117256, Note_on_c, 0, 82, 60
1, 117268, Note_off_c, 0, 65, 51
1, 117295, Note_on_c, 0, 70, 38
1, 117314, Note_off_c, 0, 82, 55
1, 117322, Note_on_c, 0, 80, 50
1, 117369, Note_off_c, 0, 80, 58
1, 117381, Note_on_c, 0, 78, 40
1, 117405, Note_on_c, 0, 63, 40
1, 117414, Note_off_c, 0, 70, 42
1, 117459, Note_off_c, 0, 63, 58
1, 117487, Note_on_c, 0, 66, 43
1, 117558, Note_off_c, 0, 66, 57
1, 117569, Note_on_c, 0, 70, 34
1, 117575, Note_off_c, 0, 78, 52
1, 117659, Note_on_c, 0, 63, 36
1, 117674, Note_off_c, 0, 70, 44
1, 117723, Note_off_c, 0, 63, 55
1, 117740, Note_on_c, 0, 66, 36
1, 117787, Control_c, 0, 67, 39
1, 117806, Note_off_c, 0, 66, 54
1, 117813, Note_on_c, 0, 70, 34
1, 117885, Note_on_c, 0, 63, 40
1, 117910, Note_off_c, 0, 70, 37
1, 117956, Note_off_c, 0, 63, 56
1, 117957, Note_on_c, 0, 66, 41
1, 118027, Note_off_c, 0, 66, 54
1, 118028, Note_on_c, 0, 70, 48
1, 118083, Control_c, 0, 64, 12
1, 118113, Note_on_c, 0, 80, 60
1, 118113, Control_c, 0, 64, 11
1, 118144, Note_on_c, 0, 63, 36
1, 118172, Control_c, 0, 64, 10
1, 118177, Note_on_c, 0, 78, 59
1, 118187, Note_off_c, 0, 70, 34
1, 118187, Control_c, 0, 64, 9
1, 118197, Note_off_c, 0, 63, 59
1, 118213, Note_on_c, 0, 66, 38
1, 118221, Note_off_c, 0, 80, 59
1, 118231, Note_on_c, 0, 77, 65
1, 118269, Control_c, 0, 67, 38
1, 118275, Note_off_c, 0, 66, 58
1, 118282, Note_off_c, 0, 78, 53
1, 118297, Note_on_c, 0, 70, 44
1, 118299, Note_on_c, 0, 75, 63
1, 118327, Note_off_c, 0, 77, 59
1, 118377, Note_on_c, 0, 74, 52
1, 118390, Note_off_c, 0, 70, 50
1, 118395, Note_on_c, 0, 65, 51
1, 118397, Note_off_c, 0, 75, 58
1, 118490, Note_off_c, 0, 65, 58
1, 118496, Note_on_c, 0, 68, 39
1, 118510, Note_off_c, 0, 74, 60
1, 118550, Note_off_c, 0, 68, 57
1, 118551, Note_on_c, 0, 70, 43
1, 118611, Control_c, 0, 64, 10
1, 118640, Note_on_c, 0, 65, 49
1, 118641, Control_c, 0, 64, 11
1, 118670, Control_c, 0, 64, 12
1, 118696, Note_off_c, 0, 70, 33
1, 118727, Note_on_c, 0, 68, 44
1, 118729, Control_c, 0, 64, 12
1, 118750, Note_off_c, 0, 65, 60
1, 118802, Note_off_c, 0, 68, 61
1, 118808, Note_on_c, 0, 70, 48
1, 118882, Note_on_c, 0, 62, 56
1, 118904, Note_off_c, 0, 70, 49
1, 118959, Note_on_c, 0, 65, 45
1, 118959, Note_off_c, 0, 62, 48
1, 119019, Note_off_c, 0, 65, 61
1, 119033, Control_c, 0, 67, 38
1, 119048, Note_on_c, 0, 70, 48
1, 119122, Note_on_c, 0, 85, 52
1, 119136, Note_on_c, 0, 62, 43
1, 119138, Note_off_c, 0, 70, 47
1, 119152, Control_c, 0, 67, 37
1, 119182, Control_c, 0, 67, 37
1, 119197, Note_on_c, 0, 83, 53
1, 119211, Control_c, 0, 67, 36
1, 119221, Note_on_c, 0, 65, 37
1, 119224, Note_off_c, 0, 62, 53
1, 119226, Control_c, 0, 67, 36
1, 119230, Note_off_c, 0, 85, 61
1, 119247, Note_on_c, 0, 82, 58
1, 119255, Control_c, 0, 67, 35
1, 119262, Note_off_c, 0, 83, 58
1, 119266, Note_off_c, 0, 65, 51
1, 119295, Note_on_c, 0, 70, 35
1, 119300, Control_c, 0, 67, 35
1, 119310, Note_on_c, 0, 80, 56
1, 119314, Control_c, 0, 67, 34
1, 119330, Control_c, 0, 67, 34
1, 119345, Control_c, 0, 67, 33
1, 119358, Note_off_c, 0, 82, 56
1, 119375, Control_c, 0, 67, 33
1, 119381, Note_on_c, 0, 78, 66
1, 119390, Control_c, 0, 67, 32
1, 119403, Note_off_c, 0, 80, 58
1, 119404, Control_c, 0, 67, 32
1, 119419, Control_c, 0, 67, 31
1, 119420, Note_on_c, 0, 63, 39
1, 119423, Note_off_c, 0, 70, 41
1, 119449, Control_c, 0, 67, 30
1, 119478, Control_c, 0, 67, 30
1, 119496, Note_off_c, 0, 63, 54
1, 119520, Note_on_c, 0, 66, 47
1, 119523, Control_c, 0, 67, 29
1, 119552, Control_c, 0, 67, 27
1, 119567, Control_c, 0, 67, 26
1, 119581, Note_off_c, 0, 66, 57
1, 119602, Note_on_c, 0, 70, 31
1, 119641, Control_c, 0, 64, 13
1, 119662, Note_on_c, 0, 63, 47
1, 119686, Control_c, 0, 64, 13
1, 119700, Control_c, 0, 64, 15
1, 119708, Note_off_c, 0, 70, 43
1, 119715, Control_c, 0, 64, 17
1, 119730, Control_c, 0, 64, 22
1, 119741, Note_on_c, 0, 66, 47
1, 119745, Control_c, 0, 64, 24
1, 119767, Note_off_c, 0, 63, 54
1, 119767, Control_c, 0, 64, 27
1, 119767, Control_c, 0, 67, 27
1, 119782, Control_c, 0, 64, 29
1, 119782, Control_c, 0, 67, 27
1, 119797, Control_c, 0, 64, 30
1, 119811, Control_c, 0, 64, 31
1, 119811, Control_c, 0, 67, 28
1, 119832, Note_on_c, 0, 70, 46
1, 119832, Note_off_c, 0, 66, 60
1, 119870, Control_c, 0, 64, 30
1, 119885, Control_c, 0, 64, 30
1, 119897, Note_on_c, 0, 79, 74
1, 119900, Control_c, 0, 64, 29
1, 119915, Control_c, 0, 64, 28
1, 119929, Note_on_c, 0, 63, 37
1, 119930, Control_c, 0, 64, 27
1, 119945, Control_c, 0, 64, 27
1, 119967, Note_off_c, 0, 70, 43
1, 119975, Control_c, 0, 67, 28
1, 120004, Control_c, 0, 64, 28
1, 120019, Control_c, 0, 64, 30
1, 120034, Control_c, 0, 64, 32
1, 120037, Note_on_c, 0, 70, 34
1, 120049, Control_c, 0, 64, 34
1, 120060, Note_off_c, 0, 63, 55
1, 120061, Note_off_c, 0, 78, 62
1, 120063, Control_c, 0, 64, 38
1, 120078, Control_c, 0, 64, 43
1, 120093, Control_c, 0, 64, 47
1, 120103, Note_off_c, 0, 70, 58
1, 120108, Control_c, 0, 64, 49
1, 120121, Note_on_c, 0, 73, 39
1, 120123, Control_c, 0, 64, 50
1, 120139, Control_c, 0, 64, 51
1, 120153, Control_c, 0, 64, 52
1, 120183, Control_c, 0, 64, 52
1, 120183, Note_off_c, 0, 73, 54
1, 120188, Note_on_c, 0, 63, 49
1, 120213, Control_c, 0, 67, 29
1, 120242, Control_c, 0, 67, 29
1, 120270, Note_on_c, 0, 70, 46
1, 120272, Control_c, 0, 64, 52
1, 120279, Note_off_c, 0, 63, 56
1, 120301, Control_c, 0, 64, 51
1, 120316, Control_c, 0, 64, 51
1, 120331, Control_c, 0, 64, 50
1, 120342, Note_off_c, 0, 70, 57
1, 120346, Control_c, 0, 64, 48
1, 120353, Note_on_c, 0, 73, 23
1, 120360, Control_c, 0, 64, 47
1, 120375, Control_c, 0, 64, 46
1, 120390, Control_c, 0, 64, 45
1, 120405, Control_c, 0, 64, 43
1, 120407, Note_off_c, 0, 73, 48
1, 120407, Note_on_c, 0, 80, 50
1, 120411, Note_off_c, 0, 79, 56
1, 120420, Control_c, 0, 64, 42
1, 120426, Note_on_c, 0, 63, 47
1, 120434, Control_c, 0, 64, 40
1, 120435, Note_off_c, 0, 80, 63
1, 120449, Control_c, 0, 64, 38
1, 120464, Control_c, 0, 64, 37
1, 120468, Note_on_c, 0, 82, 53
1, 120478, Control_c, 0, 64, 36
1, 120478, Control_c, 0, 67, 29
1, 120493, Control_c, 0, 64, 35
1, 120526, Note_on_c, 0, 80, 64
1, 120531, Control_c, 0, 64, 35
1, 120535, Note_on_c, 0, 68, 48
1, 120540, Note_off_c, 0, 82, 58
1, 120568, Note_off_c, 0, 63, 58
1, 120584, Note_off_c, 0, 80, 63
1, 120586, Note_on_c, 0, 79, 66
1, 120598, Note_off_c, 0, 68, 55
1, 120622, Note_on_c, 0, 71, 37
1, 120659, Note_on_c, 0, 80, 74
1, 120693, Control_c, 0, 64, 34
1, 120708, Control_c, 0, 67, 28
1, 120716, Note_on_c, 0, 63, 44
1, 120717, Note_off_c, 0, 79, 60
1, 120740, Note_off_c, 0, 71, 33
1, 120785, Note_on_c, 0, 82, 76
1, 120818, Note_on_c, 0, 68, 41
1, 120836, Note_off_c, 0, 63, 57
1, 120878, Note_off_c, 0, 68, 52
1, 120880, Note_on_c, 0, 71, 38
1, 120931, Note_on_c, 0, 85, 70
1, 120980, Note_on_c, 0, 63, 48
1, 120982, Note_off_c, 0, 82, 64
1, 120994, Note_off_c, 0, 71, 34
1, 120999, Note_off_c, 0, 80, 34
1, 121062, Note_on_c, 0, 83, 69
1, 121078, Note_on_c, 0, 68, 41
1, 121092, Note_off_c, 0, 63, 62
1, 121134, Note_on_c, 0, 71, 39
1, 121149, Note_off_c, 0, 68, 51
1, 121203, Note_on_c, 0, 82, 64
1, 121227, Control_c, 0, 67, 29
1, 121229, Note_on_c, 0, 63, 53
1, 121256, Note_off_c, 0, 71, 33
1, 121289, Note_off_c, 0, 85, 53
1, 121291, Note_off_c, 0, 83, 52
1, 121294, Control_c, 0, 64, 34
1, 121312, Note_on_c, 0, 68, 37
1, 121331, Note_off_c, 0, 63, 58
1, 121340, Note_on_c, 0, 80, 65
1, 121368, Control_c, 0, 64, 33
1, 121388, Note_on_c, 0, 71, 35
1, 121425, Note_off_c, 0, 68, 44
1, 121427, Control_c, 0, 64, 33
1, 121456, Control_c, 0, 64, 32
1, 121483, Note_on_c, 0, 78, 64
1, 121507, Note_off_c, 0, 71, 38
1, 121512, Note_on_c, 0, 61, 42
1, 121531, Control_c, 0, 64, 32
1, 121569, Note_off_c, 0, 82, 51
1, 121576, Control_c, 0, 64, 31
1, 121580, Note_off_c, 0, 80, 59
1, 121594, Note_on_c, 0, 68, 30
1, 121620, Control_c, 0, 64, 31
1, 121652, Note_off_c, 0, 61, 35
1, 121665, Control_c, 0, 64, 30
1, 121680, Note_on_c, 0, 71, 35
1, 121695, Control_c, 0, 67, 29
1, 121699, Note_off_c, 0, 68, 48
1, 121762, Note_on_c, 0, 61, 45
1, 121776, Note_off_c, 0, 71, 31
1, 121784, Control_c, 0, 64, 31
1, 121799, Control_c, 0, 64, 32
1, 121814, Control_c, 0, 64, 34
1, 121829, Control_c, 0, 64, 35
1, 121833, Note_on_c, 0, 68, 44
1, 121844, Control_c, 0, 64, 38
1, 121844, Control_c, 0, 67, 29
1, 121859, Control_c, 0, 64, 42
1, 121865, Note_off_c, 0, 61, 56
1, 121873, Control_c, 0, 64, 45
1, 121873, Control_c, 0, 67, 28
1, 121888, Control_c, 0, 64, 47
1, 121903, Control_c, 0, 64, 48
1, 121909, Note_on_c, 0, 71, 47
1, 121911, Note_off_c, 0, 68, 56
1, 121918, Control_c, 0, 64, 49
1, 121962, Control_c, 0, 67, 28
1, 121981, Note_off_c, 0, 78, 62
1, 121996, Note_off_c, 0, 71, 51
1, 122017, Note_on_c, 0, 77, 54
1, 122029, Note_on_c, 0, 61, 46
1, 122052, Note_off_c, 0, 77, 65
1, 122067, Note_on_c, 0, 78, 56
1, 122093, Note_off_c, 0, 78, 64
1, 122117, Note_on_c, 0, 68, 45
1, 122127, Note_on_c, 0, 77, 61
1, 122143, Note_off_c, 0, 61, 47
1, 122151, Note_off_c, 0, 77, 60
1, 122162, Control_c, 0, 64, 49
1, 122171, Note_on_c, 0, 78, 60
1, 122174, Note_on_c, 0, 71, 46
1, 122177, Control_c, 0, 64, 50
1, 122178, Note_off_c, 0, 68, 58
1, 122189, Note_off_c, 0, 78, 63
1, 122206, Note_on_c, 0, 77, 61
1, 122206, Control_c, 0, 64, 50
1, 122234, Note_off_c, 0, 77, 67
1, 122243, Note_off_c, 0, 71, 58
1, 122249, Control_c, 0, 67, 27
1, 122255, Note_on_c, 0, 78, 68
1, 122278, Note_on_c, 0, 61, 58
1, 122297, Note_on_c, 0, 77, 72
1, 122302, Note_off_c, 0, 78, 59
1, 122353, Control_c, 0, 64, 50
1, 122367, Note_off_c, 0, 77, 65
1, 122379, Note_on_c, 0, 75, 62
1, 122383, Control_c, 0, 64, 49
1, 122391, Note_on_c, 0, 68, 48
1, 122404, Note_off_c, 0, 61, 42
1, 122413, Control_c, 0, 64, 49
1, 122416, Note_off_c, 0, 75, 62
1, 122428, Control_c, 0, 64, 48
1, 122433, Note_on_c, 0, 71, 46
1, 122435, Note_off_c, 0, 68, 62
1, 122438, Note_on_c, 0, 77, 57
1, 122443, Control_c, 0, 64, 47
1, 122457, Control_c, 0, 64, 46
1, 122472, Control_c, 0, 64, 45
1, 122487, Control_c, 0, 64, 44
1, 122498, Note_off_c, 0, 71, 45
1, 122502, Control_c, 0, 64, 43
1, 122517, Control_c, 0, 64, 42
1, 122532, Control_c, 0, 64, 41
1, 122535, Note_on_c, 0, 78, 62
1, 122544, Note_off_c, 0, 77, 62
1, 122547, Note_on_c, 0, 61, 52
1, 122547, Control_c, 0, 64, 41
1, 122562, Control_c, 0, 67, 28
1, 122607, Note_off_c, 0, 78, 63
1, 122622, Note_on_c, 0, 80, 62
1, 122650, Note_on_c, 0, 66, 48
1, 122652, Note_off_c, 0, 61, 57
1, 122673, Note_on_c, 0, 78, 62
1, 122681, Note_off_c, 0, 80, 62
1, 122708, Note_off_c, 0, 66, 57
1, 122710, Control_c, 0, 64, 40
1, 122717, Note_off_c, 0, 78, 62
1, 122729, Note_on_c, 0, 77, 76
1, 122732, Note_on_c, 0, 70, 36
1, 122777, Control_c, 0, 64, 40
1, 122807, Control_c, 0, 64, 39
1, 122811, Note_on_c, 0, 78, 77
1, 122821, Control_c, 0, 64, 39
1, 122824, Note_on_c, 0, 61, 47
1, 122836, Control_c, 0, 64, 38
1, 122851, Control_c, 0, 64, 37
1, 122860, Note_off_c, 0, 70, 44
1, 122862, Note_off_c, 0, 77, 61
1, 122866, Control_c, 0, 64, 37
1, 122880, Control_c, 0, 64, 36
1, 122925, Control_c, 0, 64, 36
1, 122932, Note_on_c, 0, 80, 76
1, 122933, Note_on_c, 0, 66, 44
1, 122934, Note_off_c, 0, 61, 57
1, 122940, Control_c, 0, 64, 35
1, 122983, Control_c, 0, 64, 35
1, 122985, Note_on_c, 0, 70, 37
1, 122987, Note_off_c, 0, 66, 55
1, 123042, Control_c, 0, 64, 34
1, 123042, Control_c, 0, 67, 28
1, 123071, Note_on_c, 0, 83, 73
1, 123072, Control_c, 0, 64, 34
1, 123087, Control_c, 0, 64, 33
1, 123098, Note_on_c, 0, 61, 47
1, 123102, Control_c, 0, 64, 32
1, 123111, Note_off_c, 0, 70, 43
1, 123117, Control_c, 0, 64, 31
1, 123117, Control_c, 0, 67, 29
1, 123127, Note_off_c, 0, 78, 60
1, 123129, Note_off_c, 0, 80, 63
1, 123146, Control_c, 0, 64, 30
1, 123161, Control_c, 0, 64, 30
1, 123191, Control_c, 0, 64, 29
1, 123203, Note_on_c, 0, 82, 73
1, 123206, Control_c, 0, 64, 29
1, 123209, Note_on_c, 0, 66, 44
1, 123211, Note_off_c, 0, 61, 60
1, 123220, Control_c, 0, 64, 28
1, 123235, Control_c, 0, 64, 28
1, 123264, Note_on_c, 0, 70, 32
1, 123264, Note_off_c, 0, 66, 54
1, 123265, Control_c, 0, 64, 27
1, 123294, Control_c, 0, 67, 29
1, 123325, Control_c, 0, 64, 27
1, 123326, Note_on_c, 0, 80, 70
1, 123352, Note_on_c, 0, 61, 54
1, 123355, Control_c, 0, 67, 30
1, 123377, Note_off_c, 0, 70, 36
1, 123429, Control_c, 0, 64, 26
1, 123429, Control_c, 0, 67, 30
1, 123431, Note_off_c, 0, 61, 54
1, 123447, Note_off_c, 0, 83, 34
1, 123457, Note_on_c, 0, 66, 42
1, 123459, Note_on_c, 0, 78, 70
1, 123519, Note_off_c, 0, 66, 57
1, 123528, Note_on_c, 0, 70, 33
1, 123555, Control_c, 0, 64, 26
1, 123599, Control_c, 0, 64, 25
1, 123612, Note_on_c, 0, 77, 59
1, 123629, Control_c, 0, 64, 25
1, 123637, Note_off_c, 0, 70, 32
1, 123646, Note_on_c, 0, 59, 39
1, 123646, Note_off_c, 0, 82, 26
1, 123658, Control_c, 0, 64, 24
1, 123665, Note_off_c, 0, 80, 31
1, 123683, Note_off_c, 0, 78, 61
1, 123688, Control_c, 0, 64, 24
1, 123732, Control_c, 0, 64, 23
1, 123743, Note_on_c, 0, 66, 48
1, 123750, Note_off_c, 0, 59, 51
1, 123814, Note_off_c, 0, 66, 55
1, 123835, Note_on_c, 0, 70, 40
1, 123892, Note_on_c, 0, 59, 50
1, 123899, Note_off_c, 0, 70, 41
1, 123939, Control_c, 0, 64, 24
1, 123961, Note_on_c, 0, 66, 50
1, 123969, Control_c, 0, 64, 24
1, 123979, Note_off_c, 0, 59, 56
1, 123984, Control_c, 0, 64, 25
1, 123999, Control_c, 0, 64, 26
1, 124014, Control_c, 0, 64, 26
1, 124028, Control_c, 0, 64, 27
1, 124029, Note_off_c, 0, 66, 57
1, 124033, Note_on_c, 0, 70, 49
1, 124043, Control_c, 0, 64, 27
1, 124088, Control_c, 0, 64, 28
1, 124109, Note_off_c, 0, 77, 65
1, 124118, Control_c, 0, 64, 28
1, 124130, Note_on_c, 0, 75, 55
1, 124136, Note_off_c, 0, 70, 49
1, 124138, Note_on_c, 0, 59, 40
1, 124163, Control_c, 0, 64, 29
1, 124175, Note_off_c, 0, 75, 64
1, 124178, Control_c, 0, 64, 29
1, 124196, Note_on_c, 0, 77, 56
1, 124207, Control_c, 0, 64, 30
1, 124226, Note_off_c, 0, 77, 65
1, 124227, Note_on_c, 0, 66, 38
1, 124235, Note_off_c, 0, 59, 37
1, 124237, Control_c, 0, 67, 30
1, 124274, Control_c, 0, 64, 30
1, 124278, Note_on_c, 0, 75, 43
1, 124285, Note_off_c, 0, 66, 58
1, 124288, Control_c, 0, 64, 31
1, 124291, Note_on_c, 0, 70, 47
1, 124303, Note_off_c, 0, 75, 57
1, 124308, Note_on_c, 0, 77, 68
1, 124333, Control_c, 0, 64, 31
1, 124345, Note_off_c, 0, 77, 65
1, 124363, Control_c, 0, 64, 32
1, 124377, Control_c, 0, 64, 32
1, 124378, Note_on_c, 0, 75, 53
1, 124389, Note_off_c, 0, 70, 51
1, 124392, Control_c, 0, 67, 29
1, 124400, Note_off_c, 0, 75, 61
1, 124407, Note_on_c, 0, 59, 38
1, 124418, Note_on_c, 0, 77, 39
1, 124445, Note_off_c, 0, 77, 60
1, 124452, Note_on_c, 0, 75, 69
1, 124492, Note_on_c, 0, 66, 46
1, 124498, Note_off_c, 0, 59, 39
1, 124498, Note_off_c, 0, 75, 58
1, 124522, Note_on_c, 0, 74, 65
1, 124544, Note_off_c, 0, 66, 60
1, 124560, Note_on_c, 0, 70, 42
1, 124587, Note_off_c, 0, 74, 62
1, 124590, Note_on_c, 0, 75, 73
1, 124660, Note_off_c, 0, 70, 46
1, 124664, Note_off_c, 0, 75, 61
1, 124672, Note_on_c, 0, 59, 37
1, 124673, Note_on_c, 0, 77, 65
1, 124673, Control_c, 0, 67, 29
1, 124703, Control_c, 0, 67, 28
1, 124725, Note_off_c, 0, 77, 58
1, 124747, Control_c, 0, 64, 32
1, 124748, Note_on_c, 0, 78, 64
1, 124777, Control_c, 0, 67, 28
1, 124787, Note_on_c, 0, 65, 50
1, 124795, Note_off_c, 0, 59, 52
1, 124803, Note_on_c, 0, 77, 59
1, 124836, Note_off_c, 0, 78, 59
1, 124845, Note_off_c, 0, 65, 57
1, 124854, Note_on_c, 0, 75, 69
1, 124854, Note_off_c, 0, 77, 64
1, 124866, Control_c, 0, 64, 31
1, 124878, Note_on_c, 0, 68, 43
1, 124913, Note_off_c, 0, 75, 64
1, 124915, Note_on_c, 0, 77, 74
1, 124946, Note_on_c, 0, 59, 43
1, 124948, Note_off_c, 0, 68, 53
1, 125049, Note_on_c, 0, 78, 71
1, 125075, Note_off_c, 0, 59, 56
1, 125081, Note_on_c, 0, 65, 47
1, 125126, Control_c, 0, 64, 31
1, 125136, Note_off_c, 0, 65, 55
1, 125150, Note_on_c, 0, 68, 35
1, 125186, Note_on_c, 0, 82, 68
1, 125216, Control_c, 0, 64, 30
1, 125217, Note_off_c, 0, 68, 40
1, 125219, Note_on_c, 0, 59, 49
1, 125239, Note_off_c, 0, 77, 45
1, 125269, Note_off_c, 0, 78, 57
1, 125290, Control_c, 0, 64, 30
1, 125290, Control_c, 0, 67, 28
1, 125315, Note_on_c, 0, 80, 72
1, 125320, Note_off_c, 0, 59, 58
1, 125335, Note_on_c, 0, 65, 43
1, 125364, Control_c, 0, 64, 29
1, 125364, Control_c, 0, 67, 29
1, 125394, Control_c, 0, 64, 29
1, 125398, Note_on_c, 0, 68, 41
1, 125400, Note_off_c, 0, 65, 52
1, 125437, Note_on_c, 0, 78, 71
1, 125438, Control_c, 0, 67, 29
1, 125453, Control_c, 0, 64, 28
1, 125471, Note_on_c, 0, 59, 50
1, 125507, Note_off_c, 0, 68, 35
1, 125527, Control_c, 0, 64, 28
1, 125549, Note_off_c, 0, 82, 57
1, 125556, Note_off_c, 0, 80, 58
1, 125563, Note_off_c, 0, 59, 56
1, 125564, Note_on_c, 0, 77, 75
1, 125577, Note_on_c, 0, 65, 42
1, 125597, Note_off_c, 0, 78, 62
1, 125634, Note_on_c, 0, 68, 38
1, 125651, Note_off_c, 0, 65, 56
1, 125719, Note_on_c, 0, 75, 67
1, 125737, Note_on_c, 0, 58, 41
1, 125784, Note_off_c, 0, 68, 41
1, 125795, Note_off_c, 0, 77, 58
1, 125854, Note_on_c, 0, 65, 43
1, 125866, Note_off_c, 0, 58, 57
1, 125891, Control_c, 0, 64, 27
1, 125935, Control_c, 0, 67, 30
1, 125938, Note_on_c, 0, 68, 36
1, 125944, Note_off_c, 0, 65, 56
1, 125965, Control_c, 0, 67, 30
1, 125979, Control_c, 0, 67, 31
1, 125994, Control_c, 0, 67, 31
1, 126006, Note_on_c, 0, 58, 49
1, 126039, Control_c, 0, 67, 32
1, 126041, Note_off_c, 0, 68, 40
1, 126080, Note_on_c, 0, 65, 50
1, 126083, Control_c, 0, 67, 32
1, 126103, Note_off_c, 0, 58, 53
1, 126112, Control_c, 0, 67, 33
1, 126142, Control_c, 0, 67, 33
1, 126154, Note_on_c, 0, 68, 51
1, 126161, Note_off_c, 0, 65, 51
1, 126172, Control_c, 0, 67, 34
1, 126202, Control_c, 0, 67, 34
1, 126212, Note_off_c, 0, 75, 63
1, 126232, Control_c, 0, 67, 35
1, 126244, Note_on_c, 0, 74, 49
1, 126246, Control_c, 0, 67, 35
1, 126250, Note_on_c, 0, 58, 47
1, 126261, Control_c, 0, 67, 36
1, 126275, Note_off_c, 0, 68, 37
1, 126281, Note_off_c, 0, 74, 64
1, 126291, Control_c, 0, 67, 37
1, 126303, Note_on_c, 0, 75, 54
1, 126305, Control_c, 0, 67, 37
1, 126320, Control_c, 0, 67, 38
1, 126326, Note_off_c, 0, 75, 63
1, 126335, Control_c, 0, 67, 38
1, 126342, Note_on_c, 0, 65, 39
1, 126350, Control_c, 0, 67, 39
1, 126363, Note_on_c, 0, 74, 57
1, 126365, Control_c, 0, 67, 39
1, 126371, Note_off_c, 0, 58, 54
1, 126382, Note_off_c, 0, 74, 64
1, 126394, Control_c, 0, 67, 40
1, 126406, Note_on_c, 0, 75, 55
1, 126415, Note_on_c, 0, 68, 39
1, 126423, Control_c, 0, 64, 28
1, 126423, Control_c, 0, 67, 40
1, 126425, Note_off_c, 0, 75, 63
1, 126436, Note_off_c, 0, 65, 55
1, 126438, Control_c, 0, 67, 41
1, 126453, Control_c, 0, 64, 28
1, 126453, Control_c, 0, 67, 41
1, 126455, Note_on_c, 0, 74, 61
1, 126468, Control_c, 0, 67, 43
1, 126473, Note_off_c, 0, 74, 65
1, 126483, Control_c, 0, 67, 46
1, 126503, Note_on_c, 0, 75, 62
1, 126505, Control_c, 0, 67, 49
1, 126520, Control_c, 0, 67, 53
1, 126536, Control_c, 0, 67, 55
1, 126539, Note_off_c, 0, 75, 54
1, 126539, Note_on_c, 0, 58, 40
1, 126551, Note_on_c, 0, 74, 64
1, 126551, Control_c, 0, 67, 56
1, 126563, Note_off_c, 0, 68, 47
1, 126625, Control_c, 0, 67, 56
1, 126634, Note_off_c, 0, 74, 61
1, 126644, Note_on_c, 0, 72, 57
1, 126655, Control_c, 0, 67, 55
1, 126661, Note_on_c, 0, 65, 34
1, 126665, Note_off_c, 0, 58, 43
1, 126673, Note_off_c, 0, 72, 63
1, 126684, Control_c, 0, 67, 55
1, 126699, Control_c, 0, 64, 29
1, 126699, Control_c, 0, 67, 54
1, 126713, Control_c, 0, 67, 54
1, 126718, Note_off_c, 0, 65, 57
1, 126719, Note_on_c, 0, 74, 63
1, 126727, Control_c, 0, 67, 53
1, 126744, Note_on_c, 0, 68, 26
1, 126757, Control_c, 0, 64, 29
1, 126757, Control_c, 0, 67, 53
1, 126772, Control_c, 0, 67, 52
1, 126787, Control_c, 0, 67, 52
1, 126816, Control_c, 0, 67, 51
1, 126841, Note_on_c, 0, 75, 55
1, 126846, Control_c, 0, 67, 51
1, 126873, Note_on_c, 0, 58, 16
1, 126875, Control_c, 0, 67, 50
1, 126887, Note_off_c, 0, 68, 44
1, 126905, Control_c, 0, 67, 50
1, 126909, Note_off_c, 0, 74, 46
1, 126980, Control_c, 0, 67, 49
1, 126995, Note_on_c, 0, 63, 37
1, 127022, Note_off_c, 0, 58, 50
1, 127053, Control_c, 0, 67, 49
1, 127084, Note_off_c, 0, 63, 48
1, 127117, Note_on_c, 0, 67, 7
1, 127157, Control_c, 0, 64, 30
1, 127160, Note_on_c, 0, 58, 39
1, 127172, Control_c, 0, 64, 31
1, 127177, Note_off_c, 0, 67, 46
1, 127187, Control_c, 0, 64, 32
1, 127201, Control_c, 0, 64, 34
1, 127216, Control_c, 0, 64, 37
1, 127231, Control_c, 0, 64, 40
1, 127253, Control_c, 0, 64, 42
1, 127259, Note_on_c, 0, 63, 32
1, 127268, Control_c, 0, 64, 44
1, 127283, Control_c, 0, 64, 46
1, 127293, Note_off_c, 0, 58, 48
1, 127298, Control_c, 0, 64, 47
1, 127313, Control_c, 0, 64, 49
1, 127329, Control_c, 0, 64, 50
1, 127343, Control_c, 0, 64, 51
1, 127356, Note_on_c, 0, 67, 30
1, 127358, Control_c, 0, 64, 51
1, 127373, Control_c, 0, 64, 52
1, 127384, Note_off_c, 0, 63, 48
1, 127436, Note_on_c, 0, 58, 44
1, 127436, Note_off_c, 0, 75, 60
1, 127449, Note_off_c, 0, 67, 38
1, 127506, Control_c, 0, 67, 49
1, 127517, Note_on_c, 0, 63, 42
1, 127540, Note_on_c, 0, 75, 55
1, 127553, Note_off_c, 0, 58, 56
1, 127573, Note_off_c, 0, 75, 66
1, 127596, Note_on_c, 0, 67, 23
1, 127609, Note_off_c, 0, 63, 50
1, 127624, Control_c, 0, 64, 51
1, 127654, Note_on_c, 0, 75, 60
1, 127662, Note_off_c, 0, 67, 41
1, 127683, Note_off_c, 0, 75, 68
1, 127683, Control_c, 0, 64, 51
1, 127694, Note_on_c, 0, 58, 49
1, 127710, Note_on_c, 0, 77, 57
1, 127713, Control_c, 0, 64, 50
1, 127728, Control_c, 0, 64, 50
1, 127743, Control_c, 0, 64, 49
1, 127743, Control_c, 0, 67, 49
1, 127753, Note_off_c, 0, 77, 64
1, 127758, Control_c, 0, 64, 49
1, 127761, Note_on_c, 0, 75, 60
1, 127771, Note_on_c, 0, 63, 37
1, 127773, Control_c, 0, 64, 48
1, 127788, Control_c, 0, 64, 48
1, 127803, Control_c, 0, 64, 47
1, 127811, Note_off_c, 0, 75, 63
1, 127817, Control_c, 0, 64, 46
1, 127825, Note_on_c, 0, 74, 59
1, 127832, Control_c, 0, 64, 46
1, 127847, Control_c, 0, 64, 45
1, 127857, Note_off_c, 0, 58, 33
1, 127862, Control_c, 0, 64, 45
1, 127865, Note_off_c, 0, 63, 39
1, 127876, Control_c, 0, 64, 44
1, 127889, Note_on_c, 0, 67, 37
1, 127906, Control_c, 0, 64, 44
1, 127907, Note_on_c, 0, 75, 62
1, 127921, Control_c, 0, 64, 43
1, 127936, Control_c, 0, 64, 42
1, 127937, Note_off_c, 0, 74, 52
1, 127950, Control_c, 0, 64, 41
1, 127950, Control_c, 0, 67, 48
1, 127965, Control_c, 0, 64, 40
1, 127979, Note_off_c, 0, 67, 33
1, 127980, Control_c, 0, 64, 38
1, 128002, Control_c, 0, 64, 37
1, 128016, Note_on_c, 0, 79, 62
1, 128017, Control_c, 0, 64, 35
1, 128017, Control_c, 0, 67, 48
1, 128032, Control_c, 0, 64, 33
1, 128035, Note_on_c, 0, 60, 31
1, 128047, Control_c, 0, 64, 32
1, 128047, Control_c, 0, 67, 47
1, 128062, Control_c, 0, 64, 31
1, 128076, Control_c, 0, 64, 30
1, 128091, Control_c, 0, 64, 29
1, 128091, Control_c, 0, 67, 47
1, 128097, Note_off_c, 0, 75, 65
1, 128106, Control_c, 0, 64, 28
1, 128121, Control_c, 0, 64, 27
1, 128136, Control_c, 0, 64, 26
1, 128145, Note_on_c, 0, 63, 43
1, 128151, Control_c, 0, 64, 26
1, 128155, Note_off_c, 0, 60, 35
1, 128166, Control_c, 0, 67, 46
1, 128181, Control_c, 0, 64, 25
1, 128211, Control_c, 0, 67, 46
1, 128217, Note_off_c, 0, 63, 55
1, 128241, Control_c, 0, 64, 25
1, 128256, Note_on_c, 0, 67, 37
1, 128270, Control_c, 0, 67, 45
1, 128299, Control_c, 0, 67, 45
1, 128318, Note_on_c, 0, 75, 47
1, 128333, Note_on_c, 0, 60, 28
1, 128335, Note_off_c, 0, 67, 38
1, 128344, Control_c, 0, 67, 44
1, 128359, Control_c, 0, 67, 44
1, 128388, Control_c, 0, 67, 43
1, 128403, Control_c, 0, 64, 25
1, 128418, Control_c, 0, 64, 28
1, 128418, Control_c, 0, 67, 43
1, 128433, Note_on_c, 0, 63, 41
1, 128433, Control_c, 0, 64, 31
1, 128442, Note_off_c, 0, 60, 36
1, 128447, Control_c, 0, 64, 34
1, 128462, Control_c, 0, 64, 37
1, 128477, Control_c, 0, 64, 41
1, 128477, Control_c, 0, 67, 42
1, 128491, Control_c, 0, 64, 47
1, 128506, Control_c, 0, 64, 51
1, 128516, Note_on_c, 0, 67, 32
1, 128521, Control_c, 0, 64, 53
1, 128536, Control_c, 0, 64, 54
1, 128545, Note_off_c, 0, 63, 37
1, 128551, Control_c, 0, 64, 55
1, 128566, Control_c, 0, 64, 56
1, 128581, Control_c, 0, 64, 57
1, 128582, Note_on_c, 0, 60, 46
1, 128600, Note_off_c, 0, 75, 64
1, 128610, Control_c, 0, 64, 57
1, 128625, Note_off_c, 0, 67, 41
1, 128678, Note_on_c, 0, 63, 50
1, 128689, Note_off_c, 0, 60, 54
1, 128690, Note_on_c, 0, 75, 57
1, 128714, Control_c, 0, 64, 57
1, 128725, Note_off_c, 0, 75, 65
1, 128751, Control_c, 0, 64, 56
1, 128758, Note_on_c, 0, 67, 42
1, 128765, Note_off_c, 0, 63, 55
1, 128795, Control_c, 0, 64, 56
1, 128810, Note_on_c, 0, 75, 61
1, 128810, Note_off_c, 0, 79, 43
1, 128840, Note_on_c, 0, 60, 46
1, 128841, Note_off_c, 0, 75, 66
1, 128844, Note_off_c, 0, 67, 35
1, 128855, Control_c, 0, 64, 55
1, 128861, Note_on_c, 0, 77, 64
1, 128885, Control_c, 0, 67, 42
1, 128899, Control_c, 0, 64, 55
1, 128908, Note_on_c, 0, 75, 69
1, 128911, Note_off_c, 0, 60, 56
1, 128916, Note_off_c, 0, 77, 63
1, 128927, Note_on_c, 0, 63, 47
1, 128929, Control_c, 0, 64, 54
1, 128929, Control_c, 0, 67, 41
1, 128944, Control_c, 0, 67, 40
1, 128960, Control_c, 0, 64, 54
1, 128960, Control_c, 0, 67, 38
1, 128962, Note_off_c, 0, 75, 62
1, 128972, Note_on_c, 0, 74, 73
1, 128975, Control_c, 0, 67, 38
1, 128984, Note_off_c, 0, 63, 58
1, 128990, Control_c, 0, 64, 53
1, 128998, Note_on_c, 0, 67, 37
1, 129004, Control_c, 0, 64, 53
1, 129019, Control_c, 0, 64, 52
1, 129027, Note_on_c, 0, 75, 69
1, 129034, Control_c, 0, 64, 52
1, 129034, Control_c, 0, 67, 37
1, 129045, Note_off_c, 0, 74, 60
1, 129049, Control_c, 0, 64, 51
1, 129049, Control_c, 0, 67, 37
1, 129064, Control_c, 0, 64, 50
1, 129078, Control_c, 0, 64, 49
1, 129078, Control_c, 0, 67, 35
1, 129093, Control_c, 0, 64, 46
1, 129093, Control_c, 0, 67, 34
1, 129096, Note_on_c, 0, 79, 73
1, 129108, Control_c, 0, 64, 43
1, 129123, Control_c, 0, 64, 39
1, 129123, Control_c, 0, 67, 33
1, 129130, Note_on_c, 0, 58, 45
1, 129134, Note_off_c, 0, 67, 40
1, 129138, Control_c, 0, 64, 35
1, 129139, Note_off_c, 0, 75, 65
1, 129153, Control_c, 0, 64, 32
1, 129168, Control_c, 0, 64, 30
1, 129183, Control_c, 0, 64, 30
1, 129210, Note_on_c, 0, 63, 47
1, 129214, Note_off_c, 0, 58, 52
1, 129227, Control_c, 0, 64, 29
1, 129242, Control_c, 0, 64, 29
1, 129257, Control_c, 0, 64, 28
1, 129271, Control_c, 0, 64, 28
1, 129286, Control_c, 0, 64, 27
1, 129287, Note_on_c, 0, 67, 36
1, 129301, Control_c, 0, 64, 27
1, 129302, Note_off_c, 0, 63, 58
1, 129315, Control_c, 0, 64, 26
1, 129330, Control_c, 0, 64, 25
1, 129345, Control_c, 0, 64, 24
1, 129360, Control_c, 0, 64, 24
1, 129375, Control_c, 0, 64, 23
1, 129385, Note_on_c, 0, 75, 55
1, 129389, Control_c, 0, 64, 22
1, 129400, Note_on_c, 0, 58, 33
1, 129404, Control_c, 0, 64, 21
1, 129419, Control_c, 0, 64, 18
1, 129421, Note_off_c, 0, 67, 47
1, 129434, Control_c, 0, 64, 14
1, 129448, Control_c, 0, 64, 13
1, 129478, Control_c, 0, 64, 15
1, 129499, Note_on_c, 0, 63, 46
1, 129501, Control_c, 0, 64, 23
1, 129516, Control_c, 0, 64, 33
1, 129530, Control_c, 0, 64, 44
1, 129530, Control_c, 0, 67, 33
1, 129534, Note_off_c, 0, 58, 34
1, 129540, Note_off_c, 0, 79, 62
1, 129545, Control_c, 0, 64, 52
1, 129560, Control_c, 0, 64, 56
1, 129560, Control_c, 0, 67, 32
1, 129575, Control_c, 0, 64, 57
1, 129576, Note_on_c, 0, 67, 42
1, 129588, Note_off_c, 0, 63, 57
1, 129589, Control_c, 0, 64, 59
1, 129604, Control_c, 0, 64, 60
1, 129619, Control_c, 0, 64, 61
1, 129634, Control_c, 0, 64, 62
1, 129648, Control_c, 0, 64, 62
1, 129656, Note_on_c, 0, 58, 52
1, 129678, Control_c, 0, 64, 63
1, 129686, Note_off_c, 0, 75, 63
1, 129705, Note_off_c, 0, 67, 37
1, 129724, Control_c, 0, 67, 33
1, 129746, Note_on_c, 0, 63, 52
1, 129757, Note_off_c, 0, 58, 55
1, 129779, Note_on_c, 0, 75, 57
1, 129783, Control_c, 0, 67, 33
1, 129804, Note_on_c, 0, 67, 51
1, 129816, Note_off_c, 0, 75, 66
1, 129827, Control_c, 0, 64, 62
1, 129853, Note_off_c, 0, 63, 37
1, 129871, Control_c, 0, 64, 62
1, 129884, Note_on_c, 0, 75, 69
1, 129907, Note_on_c, 0, 58, 52
1, 129916, Note_off_c, 0, 75, 63
1, 129939, Note_on_c, 0, 77, 68
1, 129952, Note_off_c, 0, 67, 34
1, 129985, Note_on_c, 0, 75, 73
1, 129987, Note_on_c, 0, 63, 47
1, 129991, Control_c, 0, 64, 61
1, 129995, Note_off_c, 0, 77, 65
1, 130005, Note_off_c, 0, 58, 54
1, 130043, Note_off_c, 0, 75, 65
1, 130048, Note_off_c, 0, 63, 59
1, 130050, Control_c, 0, 64, 61
1, 130054, Note_on_c, 0, 74, 68
1, 130069, Note_on_c, 0, 67, 47
1, 130079, Control_c, 0, 64, 60
1, 130094, Control_c, 0, 64, 60
1, 130109, Control_c, 0, 64, 59
1, 130120, Note_on_c, 0, 75, 79
1, 130124, Control_c, 0, 64, 59
1, 130124, Control_c, 0, 67, 34
1, 130138, Control_c, 0, 64, 58
1, 130153, Note_off_c, 0, 74, 54
1, 130153, Control_c, 0, 64, 58
1, 130168, Control_c, 0, 64, 57
1, 130183, Control_c, 0, 64, 57
1, 130183, Control_c, 0, 67, 34
1, 130198, Control_c, 0, 64, 56
1, 130212, Control_c, 0, 64, 55
1, 130227, Control_c, 0, 64, 54
1, 130250, Control_c, 0, 64, 53
1, 130256, Note_on_c, 0, 84, 77
1, 130264, Control_c, 0, 64, 52
1, 130279, Control_c, 0, 64, 51
1, 130294, Control_c, 0, 64, 48
1, 130295, Note_on_c, 0, 57, 37
1, 130306, Note_off_c, 0, 67, 33
1, 130309, Control_c, 0, 64, 44
1, 130324, Control_c, 0, 64, 39
1, 130326, Note_off_c, 0, 75, 65
1, 130339, Control_c, 0, 64, 33
1, 130353, Control_c, 0, 64, 28
1, 130368, Control_c, 0, 64, 26
1, 130383, Control_c, 0, 64, 24
1, 130398, Control_c, 0, 64, 23
1, 130414, Note_on_c, 0, 63, 42
1, 130442, Control_c, 0, 64, 22
1, 130470, Note_off_c, 0, 57, 46
1, 130476, Note_off_c, 0, 63, 59
1, 130521, Note_on_c, 0, 67, 15
1, 130547, Control_c, 0, 64, 23
1, 130547, Control_c, 0, 67, 35
1, 130561, Control_c, 0, 64, 26
1, 130576, Control_c, 0, 64, 30
1, 130581, Note_on_c, 0, 75, 58
1, 130581, Note_off_c, 0, 67, 43
1, 130591, Control_c, 0, 64, 33
1, 130597, Note_on_c, 0, 57, 45
1, 130606, Control_c, 0, 64, 37
1, 130621, Control_c, 0, 64, 42
1, 130636, Control_c, 0, 64, 48
1, 130650, Control_c, 0, 64, 52
1, 130665, Control_c, 0, 64, 55
1, 130680, Control_c, 0, 64, 57
1, 130680, Control_c, 0, 67, 34
1, 130694, Control_c, 0, 64, 60
1, 130701, Note_on_c, 0, 63, 41
1, 130703, Note_off_c, 0, 84, 63
1, 130709, Control_c, 0, 64, 62
1, 130718, Note_off_c, 0, 57, 55
1, 130724, Control_c, 0, 64, 63
1, 130739, Control_c, 0, 64, 64
1, 130754, Control_c, 0, 64, 64
1, 130769, Control_c, 0, 64, 65
1, 130771, Note_off_c, 0, 63, 57
1, 130783, Control_c, 0, 64, 65
1, 130798, Control_c, 0, 64, 66
1, 130823, Poly_aftertouch_c, 0, 67, 127
1, 130855, Note_on_c, 0, 57, 55
1, 130864, Poly_aftertouch_c, 0, 67, 0
1, 130869, Note_off_c, 0, 75, 63
1, 130917, Control_c, 0, 67, 35
1, 130942, Note_on_c, 0, 63, 43
1, 130954, Note_on_c, 0, 75, 52
1, 130963, Note_off_c, 0, 57, 54
1, 130976, Control_c, 0, 64, 65
1, 130976, Control_c, 0, 67, 35
1, 131001, Note_off_c, 0, 75, 64
1, 131024, Note_off_c, 0, 63, 55
1, 131028, Control_c, 0, 64, 65
1, 131034, Note_on_c, 0, 67, 27
1, 131073, Control_c, 0, 64, 64
1, 131084, Note_on_c, 0, 75, 65
1, 131117, Control_c, 0, 64, 64
1, 131121, Note_off_c, 0, 67, 38
1, 131121, Note_off_c, 0, 75, 65
1, 131123, Note_on_c, 0, 57, 49
1, 131152, Note_on_c, 0, 77, 55
1, 131176, Control_c, 0, 64, 63
1, 131199, Note_off_c, 0, 77, 63
1, 131207, Note_on_c, 0, 75, 65
1, 131242, Note_off_c, 0, 75, 65
1, 131257, Note_on_c, 0, 63, 35
1, 131264, Control_c, 0, 64, 63
1, 131265, Note_on_c, 0, 74, 64
1, 131292, Note_off_c, 0, 63, 56
1, 131309, Control_c, 0, 64, 62
1, 131309, Control_c, 0, 67, 36
1, 131311, Note_off_c, 0, 74, 61
1, 131330, Note_on_c, 0, 67, 39
1, 131334, Note_on_c, 0, 75, 64
1, 131339, Control_c, 0, 64, 62
1, 131354, Control_c, 0, 67, 36
1, 131365, Note_off_c, 0, 57, 33
1, 131369, Control_c, 0, 64, 61
1, 131369, Control_c, 0, 67, 37
1, 131383, Control_c, 0, 64, 61
1, 131398, Control_c, 0, 64, 60
1, 131398, Control_c, 0, 67, 37
1, 131423, Note_off_c, 0, 75, 63
1, 131428, Control_c, 0, 64, 59
1, 131428, Control_c, 0, 67, 38
1, 131443, Control_c, 0, 64, 59
1, 131457, Control_c, 0, 64, 58
1, 131458, Note_on_c, 0, 70, 57
1, 131472, Control_c, 0, 64, 57
1, 131478, Note_on_c, 0, 58, 40
1, 131487, Control_c, 0, 64, 56
1, 131495, Note_off_c, 0, 67, 38
1, 131502, Control_c, 0, 64, 55
1, 131517, Control_c, 0, 64, 53
1, 131532, Control_c, 0, 64, 51
1, 131547, Control_c, 0, 64, 48
1, 131561, Note_on_c, 0, 75, 50
1, 131561, Control_c, 0, 64, 47
1, 131585, Note_off_c, 0, 70, 53
1, 131585, Note_on_c, 0, 63, 44
1, 131603, Note_off_c, 0, 58, 35
1, 131652, Note_off_c, 0, 75, 60
1, 131657, Note_off_c, 0, 63, 58
1, 131673, Note_on_c, 0, 67, 31
1, 131677, Note_on_c, 0, 79, 42
1, 131709, Control_c, 0, 64, 48
1, 131751, Note_on_c, 0, 70, 49
1, 131764, Note_on_c, 0, 58, 40
1, 131776, Control_c, 0, 64, 48
1, 131788, Note_off_c, 0, 67, 35
1, 131802, Note_off_c, 0, 79, 44
1, 131841, Note_on_c, 0, 75, 53
1, 131852, Note_on_c, 0, 63, 46
1, 131853, Note_off_c, 0, 58, 54
1, 131854, Note_off_c, 0, 70, 61
1, 131880, Control_c, 0, 64, 49
1, 131918, Note_on_c, 0, 67, 45
1, 131918, Note_on_c, 0, 79, 57
1, 131926, Note_off_c, 0, 63, 55
1, 131928, Note_off_c, 0, 75, 62
1, 131969, Control_c, 0, 64, 49
1, 132015, Note_on_c, 0, 71, 53
1, 132020, Note_on_c, 0, 59, 51
1, 132028, Control_c, 0, 64, 50
1, 132053, Note_off_c, 0, 67, 40
1, 132057, Control_c, 0, 64, 51
1, 132057, Control_c, 0, 67, 37
1, 132066, Note_off_c, 0, 79, 57
1, 132072, Control_c, 0, 64, 51
1, 132089, Note_on_c, 0, 75, 60
1, 132098, Note_on_c, 0, 63, 52
1, 132102, Control_c, 0, 64, 52
1, 132118, Control_c, 0, 64, 52
1, 132123, Note_off_c, 0, 59, 59
1, 132134, Note_off_c, 0, 71, 55
1, 132162, Control_c, 0, 67, 37
1, 132181, Note_on_c, 0, 67, 54
1, 132185, Note_on_c, 0, 79, 66
1, 132193, Note_off_c, 0, 75, 58
1, 132199, Note_off_c, 0, 63, 58
1, 132236, Control_c, 0, 67, 36
1, 132251, Control_c, 0, 64, 52
1, 132267, Note_on_c, 0, 71, 63
1, 132269, Note_on_c, 0, 59, 59
1, 132280, Control_c, 0, 67, 36
1, 132310, Note_off_c, 0, 67, 50
1, 132310, Control_c, 0, 64, 51
1, 132310, Control_c, 0, 67, 35
1, 132328, Note_off_c, 0, 79, 62
1, 132339, Control_c, 0, 67, 35
1, 132348, Note_on_c, 0, 75, 67
1, 132354, Control_c, 0, 67, 34
1, 132360, Note_on_c, 0, 63, 57
1, 132369, Control_c, 0, 64, 51
1, 132384, Control_c, 0, 67, 34
1, 132390, Note_off_c, 0, 71, 60
1, 132399, Control_c, 0, 67, 33
1, 132400, Note_off_c, 0, 59, 62
1, 132431, Note_on_c, 0, 67, 66
1, 132439, Note_on_c, 0, 79, 73
1, 132452, Note_off_c, 0, 63, 58
1, 132456, Note_off_c, 0, 75, 57
1, 132527, Note_on_c, 0, 72, 74
1, 132533, Note_on_c, 0, 60, 67
1, 132546, Note_off_c, 0, 67, 55
1, 132611, Note_off_c, 0, 79, 61
1, 132614, Note_on_c, 0, 75, 67
1, 132628, Note_on_c, 0, 63, 61
1, 132646, Note_off_c, 0, 72, 54
1, 132658, Note_off_c, 0, 60, 58
1, 132658, Control_c, 0, 64, 51
1, 132691, Note_on_c, 0, 67, 59
1, 132709, Note_on_c, 0, 79, 72
1, 132722, Note_off_c, 0, 63, 57
1, 132733, Note_off_c, 0, 75, 61
1, 132775, Note_on_c, 0, 72, 68
1, 132787, Note_on_c, 0, 60, 68
1, 132822, Control_c, 0, 67, 33
1, 132822, Note_off_c, 0, 67, 53
1, 132837, Control_c, 0, 67, 32
1, 132859, Note_on_c, 0, 75, 71
1, 132862, Note_off_c, 0, 79, 60
1, 132876, Note_on_c, 0, 63, 63
1, 132881, Control_c, 0, 67, 31
1, 132896, Control_c, 0, 67, 29
1, 132906, Note_off_c, 0, 60, 61
1, 132912, Control_c, 0, 67, 28
1, 132927, Control_c, 0, 67, 27
1, 132941, Note_off_c, 0, 72, 49
1, 132942, Control_c, 0, 67, 27
1, 132951, Note_on_c, 0, 67, 66
1, 132959, Note_on_c, 0, 79, 76
1, 132971, Control_c, 0, 67, 26
1, 132971, Note_off_c, 0, 75, 63
1, 132974, Note_off_c, 0, 63, 62
1, 132986, Control_c, 0, 67, 24
1, 133001, Control_c, 0, 67, 22
1, 133016, Control_c, 0, 67, 20
1, 133031, Control_c, 0, 64, 51
1, 133031, Control_c, 0, 67, 19
1, 133034, Note_on_c, 0, 73, 76
1, 133045, Control_c, 0, 67, 19
1, 133046, Note_on_c, 0, 61, 73
1, 133075, Note_off_c, 0, 67, 52
1, 133075, Control_c, 0, 67, 18
1, 133080, Note_off_c, 0, 79, 59
1, 133089, Control_c, 0, 67, 17
1, 133104, Control_c, 0, 64, 50
1, 133104, Control_c, 0, 67, 17
1, 133119, Control_c, 0, 67, 16
1, 133125, Note_on_c, 0, 64, 65
1, 133126, Note_on_c, 0, 76, 70
1, 133134, Control_c, 0, 64, 50
1, 133149, Control_c, 0, 67, 16
1, 133156, Note_off_c, 0, 73, 60
1, 133163, Control_c, 0, 64, 49
1, 133165, Note_off_c, 0, 61, 64
1, 133178, Control_c, 0, 67, 15
1, 133193, Control_c, 0, 64, 49
1, 133207, Note_on_c, 0, 67, 63
1, 133208, Control_c, 0, 67, 15
1, 133215, Note_on_c, 0, 79, 72
1, 133219, Note_off_c, 0, 64, 62
1, 133226, Note_off_c, 0, 76, 60
1, 133260, Control_c, 0, 67, 14
1, 133296, Note_on_c, 0, 61, 70
1, 133299, Note_on_c, 0, 73, 69
1, 133319, Control_c, 0, 64, 49
1, 133331, Note_off_c, 0, 67, 55
1, 133337, Note_off_c, 0, 79, 63
1, 133384, Note_on_c, 0, 64, 63
1, 133384, Note_on_c, 0, 76, 70
1, 133400, Note_off_c, 0, 73, 66
1, 133404, Note_off_c, 0, 61, 57
1, 133459, Note_off_c, 0, 64, 64
1, 133463, Note_on_c, 0, 79, 73
1, 133464, Note_on_c, 0, 67, 65
1, 133466, Note_off_c, 0, 76, 64
1, 133505, Note_off_c, 0, 67, 63
1, 133508, Note_off_c, 0, 79, 66
1, 133541, Control_c, 0, 67, 15
1, 133550, Note_on_c, 0, 74, 71
1, 133555, Note_on_c, 0, 62, 65
1, 133571, Control_c, 0, 64, 49
1, 133615, Control_c, 0, 64, 48
1, 133621, Note_on_c, 0, 67, 65
1, 133630, Control_c, 0, 64, 48
1, 133630, Control_c, 0, 67, 15
1, 133631, Note_on_c, 0, 79, 70
1, 133642, Note_off_c, 0, 74, 61
1, 133660, Control_c, 0, 64, 47
1, 133660, Control_c, 0, 67, 16
1, 133675, Control_c, 0, 64, 46
1, 133689, Control_c, 0, 64, 46
1, 133689, Control_c, 0, 67, 16
1, 133704, Control_c, 0, 64, 45
1, 133715, Note_on_c, 0, 70, 67
1, 133717, Note_off_c, 0, 79, 61
1, 133717, Note_on_c, 0, 82, 73
1, 133720, Control_c, 0, 64, 45
1, 133735, Control_c, 0, 64, 44
1, 133737, Note_off_c, 0, 67, 54
1, 133749, Control_c, 0, 64, 44
1, 133764, Control_c, 0, 64, 43
1, 133779, Control_c, 0, 64, 42
1, 133794, Note_off_c, 0, 70, 63
1, 133794, Control_c, 0, 64, 42
1, 133796, Note_on_c, 0, 86, 77
1, 133800, Note_off_c, 0, 82, 65
1, 133800, Note_on_c, 0, 74, 65
1, 133809, Control_c, 0, 64, 41
1, 133824, Control_c, 0, 64, 40
1, 133824, Control_c, 0, 67, 17
1, 133839, Control_c, 0, 64, 40
1, 133854, Control_c, 0, 64, 39
1, 133857, Note_off_c, 0, 62, 44
1, 133868, Control_c, 0, 64, 39
1, 133878, Note_off_c, 0, 74, 59
1, 133883, Control_c, 0, 64, 38
1, 133884, Note_on_c, 0, 82, 74
1, 133888, Note_on_c, 0, 70, 68
1, 133898, Control_c, 0, 64, 38
1, 133927, Control_c, 0, 64, 37
1, 133942, Control_c, 0, 67, 17
1, 133951, Note_on_c, 0, 67, 67
1, 133952, Note_off_c, 0, 70, 62
1, 133953, Note_on_c, 0, 79, 77
1, 134006, Note_off_c, 0, 82, 60
1, 134045, Note_off_c, 0, 79, 64
1, 134048, Note_off_c, 0, 67, 63
1, 134049, Note_on_c, 0, 62, 70
1, 134049, Note_on_c, 0, 74, 72
1, 134053, Control_c, 0, 67, 18
1, 134083, Control_c, 0, 64, 38
1, 134098, Control_c, 0, 64, 38
1, 134098, Control_c, 0, 67, 18
1, 134112, Control_c, 0, 64, 39
1, 134112, Control_c, 0, 67, 19
1, 134127, Control_c, 0, 64, 40
1, 134127, Control_c, 0, 67, 19
1, 134131, Note_on_c, 0, 67, 64
1, 134132, Note_on_c, 0, 79, 77
1, 134142, Note_off_c, 0, 74, 62
1, 134142, Control_c, 0, 64, 40
1, 134142, Control_c, 0, 67, 20
1, 134157, Control_c, 0, 64, 41
1, 134157, Control_c, 0, 67, 20
1, 134160, Note_off_c, 0, 86, 60
1, 134173, Note_off_c, 0, 62, 60
1, 134186, Control_c, 0, 64, 41
1, 134186, Control_c, 0, 67, 21
1, 134199, Note_on_c, 0, 82, 78
1, 134200, Control_c, 0, 67, 21
1, 134210, Note_on_c, 0, 70, 71
1, 134214, Control_c, 0, 64, 42
1, 134222, Note_off_c, 0, 79, 59
1, 134226, Note_off_c, 0, 67, 62
1, 134229, Control_c, 0, 64, 42
1, 134229, Control_c, 0, 67, 22
1, 134244, Control_c, 0, 64, 43
1, 134259, Control_c, 0, 64, 43
1, 134274, Control_c, 0, 64, 44
1, 134274, Control_c, 0, 67, 22
1, 134283, Note_on_c, 0, 86, 76
1, 134286, Note_off_c, 0, 70, 64
1, 134289, Control_c, 0, 64, 44
1, 134296, Note_off_c, 0, 82, 63
1, 134298, Note_on_c, 0, 74, 72
1, 134303, Control_c, 0, 64, 45
1, 134303, Control_c, 0, 67, 23
1, 134318, Control_c, 0, 64, 45
1, 134348, Control_c, 0, 64, 46
1, 134363, Control_c, 0, 67, 23
1, 134365, Note_on_c, 0, 82, 73
1, 134369, Note_off_c, 0, 74, 63
1, 134372, Note_on_c, 0, 70, 69
1, 134438, Note_off_c, 0, 70, 64
1, 134442, Note_on_c, 0, 67, 68
1, 134444, Note_on_c, 0, 79, 77
1, 134466, Control_c, 0, 64, 45
1, 134496, Control_c, 0, 64, 45
1, 134509, Note_off_c, 0, 79, 64
1, 134516, Note_off_c, 0, 67, 64
1, 134520, Note_on_c, 0, 74, 73
1, 134521, Note_off_c, 0, 82, 59
1, 134526, Note_on_c, 0, 62, 71
1, 134527, Control_c, 0, 64, 44
1, 134527, Control_c, 0, 67, 23
1, 134535, Note_off_c, 0, 86, 55
1, 134541, Control_c, 0, 64, 43
1, 134571, Control_c, 0, 64, 43
1, 134598, Note_on_c, 0, 78, 76
1, 134601, Control_c, 0, 67, 22
1, 134613, Note_on_c, 0, 66, 70
1, 134629, Note_off_c, 0, 74, 59
1, 134635, Note_off_c, 0, 62, 62
1, 134645, Control_c, 0, 64, 42
1, 134676, Note_on_c, 0, 81, 74
1, 134688, Note_off_c, 0, 78, 59
1, 134700, Note_on_c, 0, 69, 69
1, 134711, Note_off_c, 0, 66, 60
1, 134719, Control_c, 0, 64, 42
1, 134719, Control_c, 0, 67, 22
1, 134768, Note_on_c, 0, 84, 77
1, 134770, Note_off_c, 0, 69, 66
1, 134771, Control_c, 0, 64, 41
1, 134772, Note_off_c, 0, 81, 65
1, 134781, Note_on_c, 0, 72, 67
1, 134786, Control_c, 0, 67, 21
1, 134815, Control_c, 0, 64, 41
1, 134830, Control_c, 0, 67, 21
1, 134843, Note_off_c, 0, 72, 61
1, 134849, Note_on_c, 0, 69, 65
1, 134856, Note_on_c, 0, 81, 73
1, 134874, Control_c, 0, 64, 40
1, 134889, Control_c, 0, 67, 20
1, 134919, Note_off_c, 0, 84, 55
1, 134926, Note_on_c, 0, 66, 69
1, 134927, Note_on_c, 0, 78, 74
1, 134927, Note_off_c, 0, 69, 65
1, 134963, Control_c, 0, 64, 40
1, 134975, Note_off_c, 0, 81, 62
1, 134978, Control_c, 0, 67, 20
1, 135001, Note_off_c, 0, 78, 64
1, 135006, Note_on_c, 0, 74, 70
1, 135009, Note_off_c, 0, 66, 64
1, 135013, Note_on_c, 0, 62, 62
1, 135052, Control_c, 0, 64, 39
1, 135052, Control_c, 0, 67, 19
1, 135085, Note_on_c, 0, 78, 75
1, 135094, Note_on_c, 0, 66, 53
1, 135099, Note_off_c, 0, 74, 59
1, 135103, Note_off_c, 0, 62, 61
1, 135141, Control_c, 0, 64, 39
1, 135153, Note_on_c, 0, 81, 71
1, 135156, Control_c, 0, 67, 19
1, 135157, Note_off_c, 0, 78, 60
1, 135165, Note_off_c, 0, 66, 62
1, 135166, Note_on_c, 0, 69, 66
1, 135215, Control_c, 0, 67, 18
1, 135226, Note_off_c, 0, 81, 62
1, 135231, Note_off_c, 0, 69, 65
1, 135237, Note_on_c, 0, 84, 73
1, 135239, Note_on_c, 0, 72, 71
1, 135259, Control_c, 0, 64, 39
1, 135299, Note_off_c, 0, 72, 61
1, 135320, Note_on_c, 0, 81, 65
1, 135320, Control_c, 0, 67, 18
1, 135325, Note_on_c, 0, 69, 54
1, 135347, Note_off_c, 0, 84, 56
1, 135370, Note_off_c, 0, 69, 65
1, 135379, Control_c, 0, 67, 17
1, 135385, Note_on_c, 0, 66, 61
1, 135398, Note_on_c, 0, 78, 66
1, 135398, Note_off_c, 0, 81, 62
1, 135453, Control_c, 0, 67, 17
1, 135461, Note_off_c, 0, 78, 61
1, 135472, Note_on_c, 0, 79, 74
1, 135487, Note_off_c, 0, 66, 62
1, 135490, Control_c, 0, 67, 16
1, 135510, Note_on_c, 0, 67, 59
1, 135563, Note_on_c, 0, 82, 67
1, 135564, Note_off_c, 0, 79, 63
1, 135564, Control_c, 0, 67, 16
1, 135624, Control_c, 0, 64, 40
1, 135637, Note_on_c, 0, 81, 71
1, 135638, Control_c, 0, 67, 15
1, 135696, Note_off_c, 0, 82, 52
1, 135706, Note_on_c, 0, 79, 75
1, 135732, Note_off_c, 0, 81, 62
1, 135743, Control_c, 0, 67, 15
1, 135772, Note_off_c, 0, 79, 65
1, 135773, Note_on_c, 0, 77, 75
1, 135787, Control_c, 0, 67, 14
1, 135802, Control_c, 0, 67, 14
1, 135831, Control_c, 0, 67, 13
1, 135846, Control_c, 0, 64, 39
1, 135850, Note_on_c, 0, 75, 79
1, 135850, Note_off_c, 0, 77, 64
1, 135861, Control_c, 0, 64, 39
1, 135876, Note_off_c, 0, 67, 64
1, 135876, Control_c, 0, 64, 38
1, 135876, Control_c, 0, 67, 12
1, 135890, Control_c, 0, 64, 38
1, 135890, Control_c, 0, 67, 11
1, 135927, Note_on_c, 0, 74, 75
1, 135965, Note_off_c, 0, 75, 65
1, 135991, Note_on_c, 0, 72, 76
1, 135992, Note_off_c, 0, 74, 64
1, 135994, Control_c, 0, 67, 11
1, 136009, Control_c, 0, 64, 38
1, 136009, Control_c, 0, 67, 12
1, 136039, Control_c, 0, 67, 12
1, 136065, Note_on_c, 0, 70, 78
1, 136069, Control_c, 0, 67, 13
1, 136073, Note_off_c, 0, 72, 62
1, 136143, Note_on_c, 0, 69, 77
1, 136173, Control_c, 0, 67, 12
1, 136203, Control_c, 0, 67, 12
1, 136211, Note_on_c, 0, 67, 80
1, 136218, Control_c, 0, 64, 39
1, 136240, Control_c, 0, 64, 39
1, 136244, Note_off_c, 0, 69, 65
1, 136250, Note_off_c, 0, 70, 38
1, 136255, Control_c, 0, 64, 40
1, 136277, Note_off_c, 0, 67, 64
1, 136284, Note_on_c, 0, 65, 78
1, 136299, Control_c, 0, 64, 40
1, 136313, Control_c, 0, 67, 11
1, 136328, Control_c, 0, 64, 41
1, 136343, Control_c, 0, 67, 11
1, 136358, Control_c, 0, 64, 40
1, 136358, Control_c, 0, 67, 10
1, 136373, Control_c, 0, 67, 10
1, 136379, Note_on_c, 0, 63, 74
1, 136385, Note_on_c, 0, 51, 73
1, 136388, Control_c, 0, 64, 40
1, 136390, Note_on_c, 0, 39, 69
1, 136401, Note_off_c, 0, 65, 58
1, 136402, Control_c, 0, 64, 39
1, 136417, Control_c, 0, 67, 9
1, 136432, Control_c, 0, 64, 39
1, 136432, Control_c, 0, 67, 9
1, 136447, Control_c, 0, 64, 38
1, 136447, Control_c, 0, 67, 0
1, 136462, Control_c, 0, 64, 38
1, 136477, Control_c, 0, 64, 37
1, 136481, Note_on_c, 0, 67, 65
1, 136492, Control_c, 0, 64, 36
1, 136506, Control_c, 0, 64, 36
1, 136532, Note_off_c, 0, 63, 59
1, 136536, Control_c, 0, 64, 35
1, 136557, Note_on_c, 0, 70, 73
1, 136575, Note_off_c, 0, 67, 58
1, 136610, Control_c, 0, 64, 36
1, 136625, Control_c, 0, 64, 36
1, 136634, Note_on_c, 0, 63, 80
1, 136640, Control_c, 0, 64, 37
1, 136654, Control_c, 0, 64, 39
1, 136669, Control_c, 0, 64, 41
1, 136684, Note_off_c, 0, 70, 61
1, 136684, Control_c, 0, 64, 43
1, 136699, Control_c, 0, 64, 44
1, 136712, Note_on_c, 0, 67, 64
1, 136713, Control_c, 0, 64, 45
1, 136728, Control_c, 0, 64, 47
1, 136743, Control_c, 0, 64, 47
1, 136758, Control_c, 0, 64, 48
1, 136773, Control_c, 0, 64, 49
1, 136789, Note_off_c, 0, 63, 59
1, 136792, Note_on_c, 0, 70, 81
1, 136800, Note_off_c, 0, 51, 64
1, 136802, Control_c, 0, 64, 49
1, 136820, Note_off_c, 0, 67, 62
1, 136861, Note_on_c, 0, 50, 80
1, 136867, Note_off_c, 0, 39, 54
1, 136870, Note_on_c, 0, 38, 71
1, 136871, Note_on_c, 0, 62, 71
1, 136876, Control_c, 0, 64, 49
1, 136891, Control_c, 0, 64, 48
1, 136907, Control_c, 0, 64, 46
1, 136921, Control_c, 0, 64, 45
1, 136936, Control_c, 0, 64, 42
1, 136951, Control_c, 0, 64, 38
1, 136954, Note_on_c, 0, 67, 71
1, 136957, Note_off_c, 0, 70, 61
1, 136966, Control_c, 0, 64, 32
1, 136989, Control_c, 0, 64, 25
1, 136996, Note_off_c, 0, 62, 59
1, 137003, Control_c, 0, 64, 17
1, 137018, Control_c, 0, 64, 8
1, 137033, Control_c, 0, 64, 0
1, 137070, Note_on_c, 0, 70, 76
1, 137101, Note_off_c, 0, 67, 63
1, 137139, Note_on_c, 0, 62, 73
1, 137151, Control_c, 0, 64, 14
1, 137166, Control_c, 0, 64, 27
1, 137181, Control_c, 0, 64, 37
1, 137195, Control_c, 0, 64, 45
1, 137210, Control_c, 0, 64, 51
1, 137214, Note_on_c, 0, 67, 79
1, 137225, Control_c, 0, 64, 54
1, 137225, Note_off_c, 0, 70, 60
1, 137240, Control_c, 0, 64, 57
1, 137241, Note_off_c, 0, 62, 64
1, 137254, Control_c, 0, 64, 59
1, 137269, Control_c, 0, 64, 60
1, 137278, Note_off_c, 0, 50, 57
1, 137284, Control_c, 0, 64, 60
1, 137299, Control_c, 0, 64, 61
1, 137306, Note_on_c, 0, 70, 71
1, 137350, Note_off_c, 0, 67, 61
1, 137379, Note_on_c, 0, 61, 72
1, 137392, Note_on_c, 0, 49, 76
1, 137399, Note_on_c, 0, 37, 69
1, 137402, Control_c, 0, 64, 60
1, 137417, Control_c, 0, 64, 59
1, 137421, Note_off_c, 0, 38, 46
1, 137432, Control_c, 0, 64, 58
1, 137447, Control_c, 0, 64, 56
1, 137461, Control_c, 0, 64, 55
1, 137465, Note_off_c, 0, 70, 61
1, 137467, Note_on_c, 0, 67, 70
1, 137476, Control_c, 0, 64, 53
1, 137491, Control_c, 0, 64, 50
1, 137506, Control_c, 0, 64, 46
1, 137510, Note_off_c, 0, 61, 59
1, 137521, Control_c, 0, 64, 42
1, 137535, Control_c, 0, 64, 38
1, 137550, Control_c, 0, 64, 35
1, 137565, Control_c, 0, 64, 33
1, 137568, Note_on_c, 0, 70, 69
1, 137580, Control_c, 0, 64, 32
1, 137583, Note_off_c, 0, 67, 59
1, 137595, Control_c, 0, 64, 31
1, 137610, Control_c, 0, 64, 30
1, 137625, Control_c, 0, 64, 29
1, 137634, Note_on_c, 0, 61, 68
1, 137685, Note_off_c, 0, 70, 60
1, 137714, Note_on_c, 0, 67, 62
1, 137746, Note_off_c, 0, 61, 59
1, 137766, Control_c, 0, 64, 30
1, 137781, Control_c, 0, 64, 30
1, 137811, Control_c, 0, 64, 31
1, 137816, Note_on_c, 0, 70, 66
1, 137818, Note_off_c, 0, 67, 61
1, 137825, Control_c, 0, 64, 32
1, 137840, Control_c, 0, 64, 33
1, 137855, Control_c, 0, 64, 34
1, 137870, Control_c, 0, 64, 35
1, 137884, Control_c, 0, 64, 35
1, 137887, Note_on_c, 0, 61, 58
1, 137899, Control_c, 0, 64, 36
1, 137928, Note_off_c, 0, 70, 60
1, 137944, Control_c, 0, 64, 36
1, 137957, Note_on_c, 0, 67, 57
1, 137976, Note_off_c, 0, 61, 61
1, 137988, Control_c, 0, 64, 37
1, 138003, Control_c, 0, 64, 38
1, 138049, Note_on_c, 0, 70, 67
1, 138058, Note_off_c, 0, 67, 57
1, 138077, Control_c, 0, 64, 38
1, 138122, Control_c, 0, 64, 39
1, 138131, Note_on_c, 0, 61, 59
1, 138137, Control_c, 0, 64, 39
1, 138148, Note_off_c, 0, 70, 63
1, 138152, Control_c, 0, 64, 41
1, 138166, Control_c, 0, 64, 42
1, 138181, Control_c, 0, 64, 44
1, 138196, Note_on_c, 0, 67, 58
1, 138196, Control_c, 0, 64, 45
1, 138211, Control_c, 0, 64, 47
1, 138225, Control_c, 0, 64, 48
1, 138240, Control_c, 0, 64, 49
1, 138245, Note_off_c, 0, 61, 57
1, 138255, Control_c, 0, 64, 50
1, 138270, Control_c, 0, 64, 50
1, 138274, Note_on_c, 0, 70, 63
1, 138284, Control_c, 0, 64, 51
1, 138307, Note_off_c, 0, 67, 62
1, 138332, Note_off_c, 0, 49, 64
1, 138346, Note_off_c, 0, 37, 62
1, 138372, Note_on_c, 0, 62, 66
1, 138381, Note_on_c, 0, 50, 67
1, 138382, Note_off_c, 0, 70, 63
1, 138383, Note_on_c, 0, 38, 66
1, 138388, Control_c, 0, 64, 50
1, 138418, Control_c, 0, 64, 50
1, 138432, Control_c, 0, 64, 49
1, 138447, Control_c, 0, 64, 48
1, 138453, Note_on_c, 0, 67, 70
1, 138462, Control_c, 0, 64, 47
1, 138484, Control_c, 0, 64, 46
1, 138492, Note_off_c, 0, 62, 62
1, 138499, Control_c, 0, 64, 46
1, 138515, Control_c, 0, 64, 45
1, 138530, Control_c, 0, 64, 44
1, 138540, Note_on_c, 0, 70, 67
1, 138545, Control_c, 0, 64, 41
1, 138560, Note_off_c, 0, 67, 59
1, 138560, Control_c, 0, 64, 39
1, 138575, Control_c, 0, 64, 36
1, 138589, Control_c, 0, 64, 34
1, 138604, Control_c, 0, 64, 32
1, 138619, Control_c, 0, 64, 31
1, 138620, Note_on_c, 0, 74, 70
1, 138620, Note_off_c, 0, 70, 64
1, 138634, Control_c, 0, 64, 29
1, 138649, Control_c, 0, 64, 25
1, 138663, Control_c, 0, 64, 19
1, 138678, Control_c, 0, 64, 15
1, 138693, Control_c, 0, 64, 11
1, 138695, Note_on_c, 0, 70, 66
1, 138707, Control_c, 0, 64, 0
1, 138735, Note_off_c, 0, 74, 60
1, 138763, Note_on_c, 0, 68, 70
1, 138778, Note_off_c, 0, 68, 67
1, 138794, Note_on_c, 0, 67, 69
1, 138823, Note_off_c, 0, 70, 61
1, 138837, Note_off_c, 0, 67, 62
1, 138859, Note_on_c, 0, 62, 68
1, 138930, Note_off_c, 0, 62, 53
1, 139082, Note_off_c, 0, 50, 65
1, 139099, Note_on_c, 0, 66, 55
1, 139112, Note_on_c, 0, 60, 36
1, 139130, Note_off_c, 0, 38, 62
1, 139152, Control_c, 0, 67, 8
1, 139167, Control_c, 0, 67, 11
1, 139181, Control_c, 0, 67, 12
1, 139196, Control_c, 0, 67, 12
1, 139263, Control_c, 0, 67, 13
1, 139398, Control_c, 0, 67, 12
1, 139401, Note_on_c, 0, 43, 47
1, 139410, Note_on_c, 0, 31, 52
1, 139412, Control_c, 0, 67, 11
1, 139427, Control_c, 0, 67, 11
1, 139443, Control_c, 0, 67, 10
1, 139452, Note_off_c, 0, 60, 56
1, 139458, Control_c, 0, 67, 9
1, 139473, Control_c, 0, 67, 8
1, 139481, Note_off_c, 0, 66, 62
1, 139517, Control_c, 0, 67, 8
1, 139531, Control_c, 0, 67, 0
1, 139868, Note_on_c, 0, 79, 51
1, 139997, Note_on_c, 0, 78, 68
1, 140032, Note_off_c, 0, 79, 65
1, 140051, Note_off_c, 0, 31, 51
1, 140123, Note_on_c, 0, 81, 70
1, 140125, Note_off_c, 0, 43, 59
1, 140170, Note_off_c, 0, 78, 62
1, 140219, Note_off_c, 0, 81, 62
1, 140223, Note_on_c, 0, 79, 76
1, 140338, Note_on_c, 0, 82, 79
1, 140354, Control_c, 0, 67, 8
1, 140369, Control_c, 0, 67, 8
1, 140384, Control_c, 0, 67, 9
1, 140396, Note_off_c, 0, 79, 56
1, 140399, Control_c, 0, 67, 9
1, 140414, Control_c, 0, 67, 11
1, 140428, Control_c, 0, 67, 11
1, 140443, Control_c, 0, 67, 12
1, 140448, Note_on_c, 0, 81, 77
1, 140458, Control_c, 0, 67, 12
1, 140534, Note_off_c, 0, 82, 60
1, 140553, Note_on_c, 0, 79, 71
1, 140563, Note_off_c, 0, 81, 63
1, 140635, Control_c, 0, 67, 13
1, 140659, Note_on_c, 0, 77, 69
1, 140732, Control_c, 0, 67, 12
1, 140745, Note_off_c, 0, 79, 36
1, 140747, Control_c, 0, 67, 12
1, 140776, Control_c, 0, 67, 11
1, 140791, Control_c, 0, 67, 11
1, 140796, Note_on_c, 0, 75, 66
1, 140806, Control_c, 0, 67, 10
1, 140820, Control_c, 0, 67, 10
1, 140835, Control_c, 0, 67, 9
1, 140850, Note_off_c, 0, 77, 62
1, 140850, Control_c, 0, 67, 9
1, 140865, Control_c, 0, 67, 8
1, 140877, Note_off_c, 0, 75, 65
1, 140895, Control_c, 0, 67, 8
1, 140910, Control_c, 0, 67, 0
1, 141068, Note_on_c, 0, 74, 62
1, 141163, Note_off_c, 0, 74, 65
1, 141171, Poly_aftertouch_c, 0, 75, 0
1, 141372, Note_on_c, 0, 74, 52
1, 141584, Control_c, 0, 67, 8
1, 141628, Control_c, 0, 67, 8
1, 141747, Control_c, 0, 67, 8
1, 141822, Control_c, 0, 67, 0
1, 141840, Note_on_c, 0, 73, 47
1, 141855, Note_on_c, 0, 67, 40
1, 141860, Note_on_c, 0, 64, 40
1, 141863, Note_on_c, 0, 57, 42
1, 141917, Note_off_c, 0, 74, 35
1, 141959, Note_on_c, 0, 69, 50
1, 141976, Note_off_c, 0, 73, 60
1, 142009, Note_off_c, 0, 69, 65
1, 142072, Note_on_c, 0, 69, 62
1, 142115, Note_off_c, 0, 69, 57
1, 142123, Note_off_c, 0, 57, 35
1, 142132, Note_off_c, 0, 67, 57
1, 142137, Note_on_c, 0, 70, 58
1, 142178, Note_on_c, 0, 69, 68
1, 142182, Note_off_c, 0, 70, 61
1, 142224, Note_off_c, 0, 69, 67
1, 142234, Note_on_c, 0, 68, 64
1, 142272, Note_off_c, 0, 68, 62
1, 142291, Note_on_c, 0, 69, 66
1, 142355, Note_on_c, 0, 74, 67
1, 142379, Note_on_c, 0, 62, 42
1, 142385, Note_on_c, 0, 65, 40
1, 142388, Note_on_c, 0, 57, 35
1, 142399, Note_off_c, 0, 69, 59
1, 142428, Note_off_c, 0, 64, 60
1, 142478, Note_on_c, 0, 69, 52
1, 142480, Note_off_c, 0, 74, 58
1, 142528, Note_off_c, 0, 69, 64
1, 142583, Note_off_c, 0, 57, 49
1, 142600, Note_on_c, 0, 69, 64
1, 142644, Note_off_c, 0, 69, 65
1, 142647, Note_off_c, 0, 65, 62
1, 142650, Note_on_c, 0, 70, 63
1, 142698, Note_on_c, 0, 69, 59
1, 142731, Note_off_c, 0, 70, 62
1, 142741, Note_on_c, 0, 68, 67
1, 142743, Note_off_c, 0, 69, 67
1, 142782, Note_off_c, 0, 68, 60
1, 142804, Note_on_c, 0, 69, 59
1, 142862, Note_on_c, 0, 76, 70
1, 142867, Note_on_c, 0, 67, 52
1, 142880, Note_on_c, 0, 61, 47
1, 142904, Note_on_c, 0, 57, 46
1, 142907, Note_off_c, 0, 69, 57
1, 142928, Note_off_c, 0, 62, 62
1, 142978, Control_c, 0, 64, 9
1, 142992, Note_on_c, 0, 69, 54
1, 142993, Control_c, 0, 64, 12
1, 143001, Note_off_c, 0, 76, 59
1, 143008, Control_c, 0, 64, 12
1, 143022, Control_c, 0, 64, 13
1, 143037, Note_off_c, 0, 69, 66
1, 143096, Control_c, 0, 64, 13
1, 143121, Note_on_c, 0, 69, 66
1, 143173, Note_off_c, 0, 69, 65
1, 143179, Note_on_c, 0, 70, 64
1, 143232, Note_on_c, 0, 69, 54
1, 143245, Control_c, 0, 64, 14
1, 143270, Note_off_c, 0, 70, 59
1, 143276, Note_off_c, 0, 69, 66
1, 143285, Note_on_c, 0, 68, 61
1, 143320, Note_off_c, 0, 68, 64
1, 143337, Note_on_c, 0, 69, 60
1, 143365, Control_c, 0, 64, 15
1, 143379, Control_c, 0, 64, 15
1, 143389, Note_off_c, 0, 67, 39
1, 143394, Control_c, 0, 64, 16
1, 143409, Control_c, 0, 64, 16
1, 143424, Control_c, 0, 64, 17
1, 143439, Control_c, 0, 64, 17
1, 143452, Note_on_c, 0, 77, 61
1, 143453, Control_c, 0, 64, 18
1, 143483, Control_c, 0, 64, 19
1, 143491, Note_on_c, 0, 65, 43
1, 143497, Control_c, 0, 64, 20
1, 143503, Note_on_c, 0, 62, 39
1, 143510, Note_off_c, 0, 69, 62
1, 143512, Control_c, 0, 64, 22
1, 143527, Control_c, 0, 64, 22
1, 143557, Control_c, 0, 64, 23
1, 143586, Control_c, 0, 64, 23
1, 143601, Note_off_c, 0, 57, 34
1, 143645, Note_off_c, 0, 61, 33
1, 143646, Control_c, 0, 67, 8
1, 143661, Control_c, 0, 64, 24
1, 143661, Control_c, 0, 67, 9
1, 143676, Control_c, 0, 67, 10
1, 143690, Control_c, 0, 64, 24
1, 143690, Control_c, 0, 67, 11
1, 143705, Control_c, 0, 67, 12
1, 143727, Control_c, 0, 67, 13
1, 143742, Control_c, 0, 64, 24
1, 143742, Control_c, 0, 67, 15
1, 143757, Control_c, 0, 64, 23
1, 143757, Control_c, 0, 67, 17
1, 143771, Control_c, 0, 64, 23
1, 143771, Control_c, 0, 67, 23
1, 143786, Control_c, 0, 64, 22
1, 143786, Control_c, 0, 67, 28
1, 143801, Control_c, 0, 64, 22
1, 143801, Control_c, 0, 67, 30
1, 143816, Control_c, 0, 67, 32
1, 143824, Note_off_c, 0, 77, 60
1, 143831, Control_c, 0, 67, 33
1, 143846, Control_c, 0, 64, 21
1, 143876, Control_c, 0, 64, 20
1, 143890, Control_c, 0, 64, 19
1, 143905, Control_c, 0, 64, 19
1, 143905, Control_c, 0, 67, 32
1, 143920, Control_c, 0, 64, 18
1, 143935, Control_c, 0, 64, 17
1, 143950, Control_c, 0, 64, 17
1, 143965, Control_c, 0, 67, 32
1, 143986, Note_on_c, 0, 77, 50
1, 143994, Control_c, 0, 64, 16
1, 144009, Control_c, 0, 67, 31
1, 144069, Note_off_c, 0, 62, 45
1, 144078, Note_off_c, 0, 65, 42
1, 144099, Control_c, 0, 67, 32
1, 144116, Note_on_c, 0, 76, 57
1, 144128, Control_c, 0, 67, 32
1, 144130, Note_off_c, 0, 77, 58
1, 144217, Control_c, 0, 67, 33
1, 144240, Note_on_c, 0, 79, 63
1, 144298, Note_off_c, 0, 76, 51
1, 144335, Control_c, 0, 64, 16
1, 144348, Note_on_c, 0, 77, 63
1, 144368, Note_off_c, 0, 79, 63
1, 144394, Control_c, 0, 64, 15
1, 144394, Control_c, 0, 67, 33
1, 144424, Control_c, 0, 64, 15
1, 144439, Control_c, 0, 67, 34
1, 144454, Control_c, 0, 67, 34
1, 144476, Control_c, 0, 64, 14
1, 144477, Note_on_c, 0, 80, 60
1, 144491, Control_c, 0, 64, 13
1, 144503, Note_off_c, 0, 77, 59
1, 144506, Control_c, 0, 64, 13
1, 144535, Control_c, 0, 64, 12
1, 144550, Control_c, 0, 64, 12
1, 144565, Control_c, 0, 64, 11
1, 144580, Control_c, 0, 64, 10
1, 144583, Note_on_c, 0, 79, 66
1, 144594, Control_c, 0, 64, 9
1, 144609, Control_c, 0, 64, 8
1, 144639, Control_c, 0, 67, 35
1, 144654, Control_c, 0, 64, 0
1, 144654, Control_c, 0, 67, 34
1, 144667, Note_off_c, 0, 79, 63
1, 144668, Control_c, 0, 67, 34
1, 144672, Note_off_c, 0, 80, 33
1, 144683, Control_c, 0, 67, 33
1, 144695, Note_on_c, 0, 77, 64
1, 144698, Control_c, 0, 67, 33
1, 144713, Control_c, 0, 67, 32
1, 144728, Control_c, 0, 67, 32
1, 144743, Control_c, 0, 67, 31
1, 144758, Control_c, 0, 67, 31
1, 144773, Control_c, 0, 67, 30
1, 144788, Control_c, 0, 67, 30
1, 144804, Note_off_c, 0, 77, 60
1, 144805, Note_on_c, 0, 75, 62
1, 144817, Control_c, 0, 67, 29
1, 144832, Control_c, 0, 67, 29
1, 144846, Control_c, 0, 67, 28
1, 144876, Control_c, 0, 67, 28
1, 144907, Control_c, 0, 67, 27
1, 144937, Control_c, 0, 67, 27
1, 144960, Note_on_c, 0, 74, 50
1, 144966, Control_c, 0, 67, 26
1, 144981, Control_c, 0, 67, 26
1, 145011, Note_off_c, 0, 75, 52
1, 145025, Control_c, 0, 67, 25
1, 145089, Note_off_c, 0, 74, 64
1, 145114, Control_c, 0, 67, 25
1, 145244, Note_on_c, 0, 72, 51
1, 145342, Note_off_c, 0, 72, 63
1, 145432, Control_c, 0, 67, 24
1, 145538, Note_on_c, 0, 72, 40
1, 146135, Note_on_c, 0, 71, 38
1, 146160, Note_on_c, 0, 62, 32
1, 146167, Note_on_c, 0, 55, 21
1, 146168, Note_on_c, 0, 65, 30
1, 146216, Note_off_c, 0, 72, 36
1, 146298, Note_on_c, 0, 67, 43
1, 146308, Note_off_c, 0, 71, 49
1, 146359, Note_off_c, 0, 67, 60
1, 146420, Note_off_c, 0, 65, 54
1, 146445, Note_on_c, 0, 67, 43
1, 146460, Note_off_c, 0, 55, 55
1, 146475, Note_off_c, 0, 67, 56
1, 146500, Note_on_c, 0, 68, 53
1, 146552, Note_off_c, 0, 68, 56
1, 146557, Note_on_c, 0, 67, 60
1, 146587, Note_off_c, 0, 67, 65
1, 146609, Note_on_c, 0, 66, 52
1, 146610, Control_c, 0, 67, 25
1, 146643, Note_off_c, 0, 66, 63
1, 146666, Note_on_c, 0, 67, 59
1, 146701, Note_off_c, 0, 62, 43
1, 146739, Note_on_c, 0, 72, 56
1, 146752, Note_on_c, 0, 55, 30
1, 146752, Note_on_c, 0, 60, 36
1, 146753, Note_on_c, 0, 63, 41
1, 146827, Note_off_c, 0, 67, 0
1, 146844, Note_on_c, 0, 67, 33
1, 146858, Note_off_c, 0, 72, 55
1, 146915, Note_off_c, 0, 67, 58
1, 146974, Control_c, 0, 67, 25
1, 146982, Note_off_c, 0, 63, 60
1, 147003, Note_on_c, 0, 67, 48
1, 147031, Note_off_c, 0, 67, 55
1, 147048, Note_off_c, 0, 55, 39
1, 147056, Note_on_c, 0, 68, 59
1, 147111, Note_on_c, 0, 67, 57
1, 147142, Note_off_c, 0, 68, 42
1, 147146, Note_off_c, 0, 67, 65
1, 147169, Note_on_c, 0, 66, 56
1, 147205, Note_off_c, 0, 66, 64
1, 147231, Note_on_c, 0, 67, 55
1, 147312, Note_on_c, 0, 74, 56
1, 147313, Note_off_c, 0, 67, 49
1, 147323, Note_on_c, 0, 59, 37
1, 147333, Note_off_c, 0, 60, 34
1, 147337, Note_on_c, 0, 65, 33
1, 147340, Note_on_c, 0, 55, 33
1, 147447, Note_on_c, 0, 67, 51
1, 147447, Note_off_c, 0, 74, 59
1, 147512, Note_off_c, 0, 67, 60
1, 147622, Note_on_c, 0, 67, 53
1, 147663, Note_off_c, 0, 67, 51
1, 147692, Note_on_c, 0, 68, 51
1, 147751, Note_off_c, 0, 68, 56
1, 147762, Note_on_c, 0, 67, 56
1, 147818, Note_off_c, 0, 67, 60
1, 147825, Control_c, 0, 67, 26
1, 147852, Note_on_c, 0, 66, 54
1, 147902, Note_off_c, 0, 66, 60
1, 147947, Note_on_c, 0, 67, 55
1, 148066, Note_off_c, 0, 55, 50
1, 148074, Note_off_c, 0, 65, 41
1, 148091, Note_off_c, 0, 59, 56
1, 148246, Note_on_c, 0, 79, 58
1, 148287, Note_on_c, 0, 75, 38
1, 148303, Note_off_c, 0, 67, 39
1, 148661, Note_on_c, 0, 48, 34
1, 148811, Control_c, 0, 67, 26
1, 148841, Control_c, 0, 67, 27
1, 148947, Note_on_c, 0, 60, 27
1, 148983, Control_c, 0, 67, 26
1, 149042, Control_c, 0, 67, 26
1, 149057, Note_off_c, 0, 48, 58
1, 149092, Note_off_c, 0, 60, 55
1, 149174, Note_on_c, 0, 77, 57
1, 149215, Note_on_c, 0, 74, 43
1, 149244, Note_off_c, 0, 75, 53
1, 149266, Note_off_c, 0, 79, 63
1, 149294, Note_off_c, 0, 77, 65
1, 149368, Control_c, 0, 64, 8
1, 149412, Control_c, 0, 64, 9
1, 149453, Note_on_c, 0, 80, 67
1, 149477, Note_on_c, 0, 77, 52
1, 149654, Note_off_c, 0, 74, 56
1, 149717, Control_c, 0, 67, 25
1, 149736, Note_on_c, 0, 48, 32
1, 149909, Control_c, 0, 67, 25
1, 149969, Control_c, 0, 67, 24
1, 150013, Control_c, 0, 64, 10
1, 150025, Note_on_c, 0, 60, 22
1, 150028, Control_c, 0, 64, 11
1, 150028, Control_c, 0, 67, 24
1, 150043, Control_c, 0, 64, 12
1, 150058, Control_c, 0, 64, 13
1, 150073, Control_c, 0, 64, 14
1, 150073, Control_c, 0, 67, 23
1, 150088, Control_c, 0, 64, 15
1, 150103, Control_c, 0, 64, 16
1, 150112, Note_off_c, 0, 48, 55
1, 150132, Control_c, 0, 64, 16
1, 150147, Note_off_c, 0, 60, 46
1, 150192, Control_c, 0, 67, 24
1, 150221, Control_c, 0, 67, 24
1, 150236, Control_c, 0, 64, 17
1, 150236, Control_c, 0, 67, 25
1, 150242, Note_on_c, 0, 79, 56
1, 150249, Note_on_c, 0, 75, 42
1, 150259, Note_off_c, 0, 77, 59
1, 150265, Control_c, 0, 67, 25
1, 150280, Control_c, 0, 67, 26
1, 150325, Control_c, 0, 64, 18
1, 150339, Control_c, 0, 64, 19
1, 150354, Control_c, 0, 64, 19
1, 150367, Note_off_c, 0, 79, 65
1, 150376, Note_off_c, 0, 75, 65
1, 150377, Note_off_c, 0, 80, 44
1, 150399, Control_c, 0, 67, 25
1, 150443, Control_c, 0, 67, 25
1, 150480, Control_c, 0, 67, 24
1, 150496, Control_c, 0, 67, 24
1, 150499, Note_on_c, 0, 77, 64
1, 150526, Control_c, 0, 67, 23
1, 150531, Note_on_c, 0, 68, 47
1, 150541, Control_c, 0, 67, 23
1, 150570, Control_c, 0, 64, 20
1, 150570, Control_c, 0, 67, 22
1, 150585, Control_c, 0, 64, 21
1, 150600, Control_c, 0, 64, 23
1, 150615, Control_c, 0, 64, 24
1, 150630, Control_c, 0, 64, 24
1, 150674, Control_c, 0, 64, 25
1, 150674, Control_c, 0, 67, 22
1, 150733, Control_c, 0, 64, 25
1, 150733, Control_c, 0, 67, 21
1, 150737, Note_on_c, 0, 75, 68
1, 150748, Control_c, 0, 67, 20
1, 150762, Control_c, 0, 67, 19
1, 150764, Note_on_c, 0, 67, 56
1, 150770, Note_on_c, 0, 48, 39
1, 150777, Control_c, 0, 67, 18
1, 150822, Control_c, 0, 67, 17
1, 150851, Control_c, 0, 67, 17
1, 150860, Note_off_c, 0, 77, 58
1, 150880, Note_off_c, 0, 67, 62
1, 150899, Note_off_c, 0, 75, 65
1, 150979, Note_on_c, 0, 74, 73
1, 150985, Control_c, 0, 64, 26
1, 150996, Note_on_c, 0, 65, 57
1, 151011, Note_on_c, 0, 53, 47
1, 151015, Control_c, 0, 64, 26
1, 151044, Control_c, 0, 64, 27
1, 151059, Control_c, 0, 67, 16
1, 151078, Note_off_c, 0, 65, 56
1, 151093, Note_off_c, 0, 48, 55
1, 151103, Control_c, 0, 64, 27
1, 151148, Control_c, 0, 67, 17
1, 151162, Control_c, 0, 64, 28
1, 151177, Control_c, 0, 64, 29
1, 151177, Control_c, 0, 67, 17
1, 151192, Control_c, 0, 64, 29
1, 151192, Control_c, 0, 67, 18
1, 151215, Control_c, 0, 67, 18
1, 151226, Note_on_c, 0, 72, 66
1, 151229, Control_c, 0, 64, 30
1, 151229, Control_c, 0, 67, 19
1, 151240, Note_on_c, 0, 63, 56
1, 151244, Control_c, 0, 67, 20
1, 151257, Note_on_c, 0, 54, 43
1, 151259, Control_c, 0, 64, 31
1, 151259, Control_c, 0, 67, 20
1, 151261, Note_off_c, 0, 74, 29
1, 151274, Control_c, 0, 64, 31
1, 151284, Note_off_c, 0, 53, 37
1, 151289, Control_c, 0, 67, 21
1, 151304, Control_c, 0, 67, 22
1, 151319, Control_c, 0, 67, 22
1, 151319, Note_off_c, 0, 68, 64
1, 151325, Note_off_c, 0, 63, 63
1, 151334, Control_c, 0, 67, 23
1, 151393, Control_c, 0, 67, 23
1, 151423, Control_c, 0, 67, 24
1, 151453, Control_c, 0, 67, 24
1, 151482, Control_c, 0, 67, 25
1, 151497, Control_c, 0, 64, 31
1, 151522, Note_off_c, 0, 72, 60
1, 151526, Control_c, 0, 67, 25
1, 151528, Note_on_c, 0, 71, 54
1, 151558, Note_on_c, 0, 55, 40
1, 151571, Control_c, 0, 67, 26
1, 151578, Note_on_c, 0, 63, 5
1, 151617, Note_off_c, 0, 71, 59
1, 151630, Control_c, 0, 67, 26
1, 151636, Note_off_c, 0, 54, 58
1, 151640, Note_on_c, 0, 72, 58
1, 151645, Control_c, 0, 64, 30
1, 151645, Control_c, 0, 67, 27
1, 151659, Control_c, 0, 67, 27
1, 151689, Control_c, 0, 64, 30
1, 151701, Note_off_c, 0, 72, 60
1, 151703, Control_c, 0, 67, 28
1, 151718, Control_c, 0, 67, 28
1, 151722, Note_on_c, 0, 74, 52
1, 151733, Control_c, 0, 67, 29
1, 151748, Control_c, 0, 67, 29
1, 151778, Control_c, 0, 64, 29
1, 151808, Note_off_c, 0, 74, 52
1, 151825, Note_on_c, 0, 72, 50
1, 151926, Control_c, 0, 64, 29
1, 151939, Note_off_c, 0, 63, 49
1, 152007, Control_c, 0, 64, 28
1, 152022, Control_c, 0, 64, 28
1, 152022, Control_c, 0, 67, 29
1, 152037, Control_c, 0, 64, 27
1, 152052, Control_c, 0, 64, 26
1, 152052, Control_c, 0, 67, 28
1, 152067, Control_c, 0, 64, 26
1, 152082, Control_c, 0, 64, 25
1, 152082, Control_c, 0, 67, 28
1, 152097, Control_c, 0, 64, 25
1, 152127, Control_c, 0, 67, 27
1, 152142, Control_c, 0, 64, 24
1, 152145, Note_on_c, 0, 71, 37
1, 152167, Note_on_c, 0, 62, 31
1, 152180, Note_on_c, 0, 43, 33
1, 152215, Control_c, 0, 64, 24
1, 152217, Note_off_c, 0, 72, 22
1, 152245, Control_c, 0, 67, 27
1, 152268, Note_off_c, 0, 43, 58
1, 152279, Note_off_c, 0, 62, 60
1, 152289, Control_c, 0, 64, 25
1, 152289, Control_c, 0, 67, 26
1, 152303, Note_off_c, 0, 55, 63
1, 152304, Control_c, 0, 64, 26
1, 152304, Control_c, 0, 67, 25
1, 152319, Control_c, 0, 64, 27
1, 152319, Control_c, 0, 67, 25
1, 152333, Control_c, 0, 64, 28
1, 152348, Control_c, 0, 64, 28
1, 152348, Control_c, 0, 67, 24
1, 152437, Control_c, 0, 64, 29
1, 152437, Control_c, 0, 67, 24
1, 152487, Note_on_c, 0, 68, 51
1, 152521, Note_on_c, 0, 60, 36
1, 152526, Control_c, 0, 64, 28
1, 152527, Note_on_c, 0, 63, 38
1, 152565, Note_off_c, 0, 71, 44
1, 152586, Control_c, 0, 64, 28
1, 152636, Note_off_c, 0, 68, 64
1, 152659, Note_on_c, 0, 67, 56
1, 152702, Note_off_c, 0, 67, 64
1, 152712, Note_off_c, 0, 60, 53
1, 152720, Note_on_c, 0, 68, 60
1, 152735, Note_off_c, 0, 63, 59
1, 152756, Note_off_c, 0, 68, 63
1, 152770, Note_on_c, 0, 70, 52
1, 152818, Note_off_c, 0, 70, 61
1, 152830, Note_on_c, 0, 68, 59
1, 152858, Note_on_c, 0, 62, 43
1, 152859, Control_c, 0, 67, 24
1, 152867, Note_on_c, 0, 59, 31
1, 152875, Control_c, 0, 67, 25
1, 152905, Control_c, 0, 67, 25
1, 152920, Control_c, 0, 67, 26
1, 153142, Control_c, 0, 67, 25
1, 153264, Note_off_c, 0, 59, 44
1, 153274, Control_c, 0, 64, 28
1, 153307, Note_off_c, 0, 62, 60
1, 153366, Note_on_c, 0, 67, 34
1, 153379, Control_c, 0, 64, 29
1, 153379, Control_c, 0, 67, 25
1, 153382, Note_off_c, 0, 68, 63
1, 153408, Control_c, 0, 67, 24
1, 153423, Control_c, 0, 64, 29
1, 153423, Control_c, 0, 67, 24
1, 153438, Control_c, 0, 64, 30
1, 153438, Control_c, 0, 67, 22
1, 153460, Control_c, 0, 64, 30
1, 153460, Control_c, 0, 67, 20
1, 153475, Control_c, 0, 64, 31
1, 153475, Control_c, 0, 67, 18
1, 153489, Control_c, 0, 64, 32
1, 153489, Control_c, 0, 67, 17
1, 153504, Note_off_c, 0, 67, 57
1, 153504, Control_c, 0, 64, 32
1, 153504, Control_c, 0, 67, 15
1, 153519, Control_c, 0, 64, 33
1, 153519, Control_c, 0, 67, 14
1, 153534, Control_c, 0, 64, 33
1, 153534, Control_c, 0, 67, 0
1, 153593, Note_on_c, 0, 72, 60
1, 153614, Note_on_c, 0, 63, 50
1, 153614, Note_on_c, 0, 67, 50
1, 153668, Control_c, 0, 64, 33
1, 153699, Control_c, 0, 64, 32
1, 153739, Note_off_c, 0, 72, 63
1, 153743, Note_on_c, 0, 71, 68
1, 153757, Note_off_c, 0, 67, 62
1, 153779, Note_off_c, 0, 71, 59
1, 153787, Control_c, 0, 64, 32
1, 153803, Note_off_c, 0, 63, 61
1, 153811, Note_on_c, 0, 72, 64
1, 153841, Note_off_c, 0, 72, 63
1, 153847, Control_c, 0, 64, 32
1, 153854, Note_on_c, 0, 74, 64
1, 153919, Note_on_c, 0, 65, 41
1, 153921, Note_on_c, 0, 72, 60
1, 153933, Note_on_c, 0, 62, 40
1, 153967, Note_off_c, 0, 74, 60
1, 154239, Control_c, 0, 64, 33
1, 154358, Control_c, 0, 64, 33
1, 154387, Control_c, 0, 64, 34
1, 154396, Note_on_c, 0, 71, 55
1, 154428, Note_off_c, 0, 72, 60
1, 154431, Control_c, 0, 64, 34
1, 154477, Control_c, 0, 64, 35
1, 154507, Control_c, 0, 67, 8
1, 154517, Note_on_c, 0, 80, 65
1, 154551, Control_c, 0, 67, 8
1, 154596, Control_c, 0, 64, 34
1, 154605, Note_off_c, 0, 80, 59
1, 154619, Note_on_c, 0, 79, 72
1, 154635, Note_on_c, 0, 59, 38
1, 154637, Note_on_c, 0, 67, 44
1, 154684, Control_c, 0, 64, 35
1, 154714, Note_off_c, 0, 71, 35
1, 154719, Note_on_c, 0, 77, 75
1, 154724, Note_off_c, 0, 67, 62
1, 154732, Note_off_c, 0, 59, 59
1, 154744, Note_off_c, 0, 65, 59
1, 154755, Note_off_c, 0, 79, 64
1, 154759, Control_c, 0, 67, 8
1, 154768, Note_off_c, 0, 77, 62
1, 154784, Note_off_c, 0, 62, 41
1, 154789, Control_c, 0, 64, 34
1, 154818, Control_c, 0, 64, 34
1, 154818, Control_c, 0, 67, 0
1, 154833, Note_on_c, 0, 77, 66
1, 154848, Control_c, 0, 64, 33
1, 154855, Note_on_c, 0, 60, 42
1, 154862, Note_on_c, 0, 67, 44
1, 154877, Control_c, 0, 64, 33
1, 154910, Note_on_c, 0, 75, 69
1, 154918, Note_off_c, 0, 77, 65
1, 154922, Control_c, 0, 64, 32
1, 154941, Note_off_c, 0, 67, 55
1, 154971, Note_off_c, 0, 60, 60
1, 154971, Note_off_c, 0, 75, 65
1, 154984, Note_on_c, 0, 74, 60
1, 155004, Note_off_c, 0, 74, 63
1, 155030, Note_on_c, 0, 75, 61
1, 155075, Note_on_c, 0, 74, 68
1, 155092, Note_on_c, 0, 67, 41
1, 155096, Note_on_c, 0, 63, 48
1, 155112, Note_off_c, 0, 75, 63
1, 155171, Note_off_c, 0, 67, 45
1, 155176, Note_off_c, 0, 74, 64
1, 155191, Note_on_c, 0, 72, 64
1, 155240, Note_off_c, 0, 63, 54
1, 155318, Note_on_c, 0, 71, 56
1, 155322, Note_on_c, 0, 65, 45
1, 155334, Note_on_c, 0, 62, 47
1, 155354, Note_off_c, 0, 72, 56
1, 155359, Control_c, 0, 64, 32
1, 155389, Control_c, 0, 64, 31
1, 155394, Note_off_c, 0, 65, 60
1, 155396, Note_off_c, 0, 71, 64
1, 155413, Note_off_c, 0, 62, 64
1, 155419, Control_c, 0, 64, 31
1, 155463, Control_c, 0, 64, 30
1, 155522, Control_c, 0, 64, 30
1, 155567, Control_c, 0, 64, 29
1, 155585, Note_on_c, 0, 72, 46
1, 155596, Note_on_c, 0, 63, 42
1, 155596, Control_c, 0, 64, 29
1, 155613, Note_on_c, 0, 60, 37
1, 155626, Control_c, 0, 64, 28
1, 155656, Control_c, 0, 64, 28
1, 155660, Note_off_c, 0, 72, 63
1, 155666, Note_off_c, 0, 63, 63
1, 155680, Note_off_c, 0, 60, 62
1, 155707, Control_c, 0, 64, 27
1, 155722, Control_c, 0, 67, 8
1, 155737, Control_c, 0, 67, 8
1, 155766, Control_c, 0, 67, 9
1, 155796, Control_c, 0, 67, 9
1, 155811, Control_c, 0, 64, 27
1, 155877, Note_on_c, 0, 75, 46
1, 155885, Control_c, 0, 64, 26
1, 155907, Note_on_c, 0, 60, 28
1, 155934, Note_on_c, 0, 55, 22
1, 156047, Control_c, 0, 67, 10
1, 156062, Control_c, 0, 67, 11
1, 156078, Control_c, 0, 67, 12
1, 156093, Control_c, 0, 67, 12
1, 156107, Control_c, 0, 67, 13
1, 156122, Control_c, 0, 67, 14
1, 156137, Control_c, 0, 67, 15
1, 156152, Control_c, 0, 67, 19
1, 156167, Control_c, 0, 67, 21
1, 156181, Control_c, 0, 67, 21
1, 156196, Control_c, 0, 67, 22
1, 156270, Control_c, 0, 67, 21
1, 156315, Control_c, 0, 67, 21
1, 156345, Control_c, 0, 67, 20
1, 156374, Control_c, 0, 67, 20
1, 156455, Control_c, 0, 67, 19
1, 156500, Control_c, 0, 67, 19
1, 156501, Note_on_c, 0, 74, 34
1, 156522, Note_on_c, 0, 59, 19
1, 156574, Control_c, 0, 67, 18
1, 156634, Control_c, 0, 64, 27
1, 156634, Control_c, 0, 67, 18
1, 156646, Note_off_c, 0, 75, 37
1, 156672, Note_off_c, 0, 60, 37
1, 156768, Note_off_c, 0, 55, 32
1, 156781, Control_c, 0, 67, 17
1, 156855, Control_c, 0, 64, 27
1, 156897, Note_off_c, 0, 74, 35
1, 156898, Note_off_c, 0, 59, 52
1, 156901, Control_c, 0, 64, 28
1, 156916, Control_c, 0, 64, 28
1, 156945, Control_c, 0, 64, 29
1, 157281, Note_on_c, 0, 63, 38
1, 157308, Note_on_c, 0, 60, 37
1, 157624, Note_on_c, 0, 67, 36
1, 157648, Control_c, 0, 64, 28
1, 157739, Control_c, 0, 64, 28
1, 157798, Control_c, 0, 67, 17
1, 157842, Control_c, 0, 64, 27
1, 157842, Control_c, 0, 67, 16
1, 157862, Note_on_c, 0, 79, 48
1, 157871, Control_c, 0, 67, 16
1, 157886, Control_c, 0, 67, 15
1, 157901, Control_c, 0, 67, 15
1, 157916, Control_c, 0, 67, 14
1, 157953, Control_c, 0, 67, 14
1, 158035, Note_off_c, 0, 67, 45
1, 158059, Note_off_c, 0, 79, 61
1, 158101, Control_c, 0, 64, 28
1, 158105, Note_on_c, 0, 62, 45
1, 158119, Note_on_c, 0, 59, 35
1, 158131, Control_c, 0, 64, 29
1, 158145, Control_c, 0, 64, 29
1, 158205, Control_c, 0, 64, 30
1, 158205, Control_c, 0, 67, 13
1, 158219, Control_c, 0, 67, 13
1, 158223, Note_off_c, 0, 60, 33
1, 158240, Note_off_c, 0, 62, 61
1, 158249, Control_c, 0, 64, 30
1, 158262, Note_off_c, 0, 59, 58
1, 158264, Control_c, 0, 64, 32
1, 158278, Control_c, 0, 64, 33
1, 158279, Note_off_c, 0, 63, 56
1, 158293, Control_c, 0, 64, 34
1, 158308, Control_c, 0, 64, 34
1, 158358, Note_on_c, 0, 65, 62
1, 158381, Note_on_c, 0, 62, 60
1, 158412, Control_c, 0, 64, 34
1, 158441, Control_c, 0, 64, 33
1, 158472, Control_c, 0, 64, 33
1, 158487, Control_c, 0, 64, 32
1, 158516, Control_c, 0, 67, 12
1, 158612, Note_on_c, 0, 68, 52
1, 158701, Control_c, 0, 67, 13
1, 158761, Control_c, 0, 67, 13
1, 158820, Control_c, 0, 64, 32
1, 158873, Note_on_c, 0, 80, 57
1, 158908, Control_c, 0, 64, 31
1, 158923, Control_c, 0, 67, 14
1, 158953, Control_c, 0, 67, 14
1, 158998, Control_c, 0, 67, 15
1, 159012, Note_off_c, 0, 68, 61
1, 159013, Control_c, 0, 64, 32
1, 159027, Control_c, 0, 67, 15
1, 159042, Control_c, 0, 64, 32
1, 159057, Control_c, 0, 64, 33
1, 159072, Control_c, 0, 64, 33
1, 159072, Control_c, 0, 67, 16
1, 159078, Note_off_c, 0, 80, 60
1, 159108, Note_on_c, 0, 63, 53
1, 159113, Note_on_c, 0, 60, 52
1, 159116, Control_c, 0, 64, 34
1, 159116, Control_c, 0, 67, 16
1, 159202, Note_off_c, 0, 62, 34
1, 159234, Control_c, 0, 64, 35
1, 159249, Note_off_c, 0, 65, 61
1, 159249, Control_c, 0, 64, 36
1, 159256, Note_off_c, 0, 60, 62
1, 159265, Control_c, 0, 64, 36
1, 159285, Note_off_c, 0, 63, 64
1, 159374, Note_on_c, 0, 67, 70
1, 159383, Control_c, 0, 64, 35
1, 159385, Note_on_c, 0, 63, 61
1, 159398, Control_c, 0, 64, 35
1, 159413, Control_c, 0, 64, 34
1, 159428, Control_c, 0, 64, 33
1, 159451, Control_c, 0, 64, 33
1, 159451, Control_c, 0, 67, 16
1, 159466, Control_c, 0, 64, 32
1, 159510, Control_c, 0, 64, 32
1, 159569, Control_c, 0, 64, 31
1, 159616, Note_on_c, 0, 71, 64
1, 159628, Control_c, 0, 64, 31
1, 159642, Control_c, 0, 64, 30
1, 159761, Control_c, 0, 67, 16
1, 159776, Control_c, 0, 67, 17
1, 159805, Control_c, 0, 67, 17
1, 159835, Control_c, 0, 67, 18
1, 159859, Note_on_c, 0, 83, 65
1, 159895, Control_c, 0, 64, 30
1, 159924, Control_c, 0, 67, 18
1, 160028, Control_c, 0, 64, 30
1, 160028, Control_c, 0, 67, 19
1, 160042, Control_c, 0, 64, 31
1, 160049, Note_off_c, 0, 71, 61
1, 160059, Control_c, 0, 64, 31
1, 160084, Note_off_c, 0, 83, 65
1, 160103, Control_c, 0, 67, 18
1, 160118, Control_c, 0, 67, 18
1, 160118, Note_on_c, 0, 65, 57
1, 160127, Note_on_c, 0, 62, 61
1, 160147, Control_c, 0, 67, 17
1, 160162, Control_c, 0, 67, 17
1, 160164, Note_off_c, 0, 63, 53
1, 160199, Control_c, 0, 64, 32
1, 160214, Control_c, 0, 64, 32
1, 160214, Control_c, 0, 67, 16
1, 160218, Note_off_c, 0, 67, 63
1, 160229, Control_c, 0, 64, 33
1, 160244, Control_c, 0, 67, 16
1, 160244, Note_off_c, 0, 65, 64
1, 160251, Note_off_c, 0, 62, 65
1, 160259, Control_c, 0, 67, 15
1, 160303, Control_c, 0, 64, 33
1, 160377, Control_c, 0, 64, 33
1, 160379, Note_on_c, 0, 68, 65
1, 160387, Note_on_c, 0, 66, 23
1, 160392, Control_c, 0, 67, 15
1, 160398, Note_on_c, 0, 65, 70
1, 160422, Control_c, 0, 64, 32
1, 160422, Control_c, 0, 67, 14
1, 160466, Control_c, 0, 67, 14
1, 160497, Note_off_c, 0, 66, 43
1, 160511, Control_c, 0, 67, 13
1, 160570, Control_c, 0, 64, 32
1, 160570, Control_c, 0, 67, 13
1, 160615, Control_c, 0, 64, 31
1, 160616, Note_on_c, 0, 72, 76
1, 160688, Control_c, 0, 64, 31
1, 160688, Control_c, 0, 67, 12
1, 160792, Control_c, 0, 64, 30
1, 160822, Control_c, 0, 64, 30
1, 160861, Note_on_c, 0, 84, 83
1, 160911, Control_c, 0, 64, 29
1, 160949, Control_c, 0, 67, 12
1, 160993, Control_c, 0, 67, 11
1, 161023, Control_c, 0, 67, 11
1, 161096, Control_c, 0, 67, 10
1, 161109, Note_off_c, 0, 65, 59
1, 161111, Note_on_c, 0, 67, 66
1, 161116, Note_on_c, 0, 63, 66
1, 161141, Control_c, 0, 67, 10
1, 161172, Note_off_c, 0, 72, 51
1, 161186, Control_c, 0, 67, 9
1, 161240, Note_off_c, 0, 84, 65
1, 161259, Note_off_c, 0, 68, 64
1, 161260, Control_c, 0, 64, 30
1, 161289, Note_off_c, 0, 67, 63
1, 161290, Control_c, 0, 64, 30
1, 161319, Control_c, 0, 64, 31
1, 161329, Note_off_c, 0, 63, 59
1, 161334, Control_c, 0, 64, 31
1, 161367, Note_on_c, 0, 70, 75
1, 161376, Note_on_c, 0, 67, 69
1, 161423, Control_c, 0, 64, 31
1, 161437, Control_c, 0, 64, 30
1, 161496, Control_c, 0, 64, 30
1, 161541, Control_c, 0, 67, 9
1, 161601, Note_on_c, 0, 73, 75
1, 161757, Control_c, 0, 64, 30
1, 161772, Control_c, 0, 67, 9
1, 161801, Control_c, 0, 64, 31
1, 161816, Control_c, 0, 67, 10
1, 161875, Control_c, 0, 67, 10
1, 161884, Note_on_c, 0, 85, 75
1, 161905, Control_c, 0, 67, 11
1, 161919, Control_c, 0, 64, 31
1, 161934, Control_c, 0, 67, 11
1, 161964, Control_c, 0, 64, 32
1, 161979, Control_c, 0, 64, 32
1, 161979, Control_c, 0, 67, 12
1, 161993, Control_c, 0, 64, 33
1, 162023, Note_off_c, 0, 73, 65
1, 162023, Control_c, 0, 64, 34
1, 162032, Note_off_c, 0, 70, 54
1, 162053, Control_c, 0, 64, 34
1, 162117, Note_on_c, 0, 86, 82
1, 162132, Note_on_c, 0, 74, 47
1, 162142, Control_c, 0, 67, 12
1, 162151, Note_on_c, 0, 66, 55
1, 162158, Note_on_c, 0, 69, 47
1, 162186, Control_c, 0, 64, 35
1, 162186, Control_c, 0, 67, 13
1, 162200, Note_off_c, 0, 67, 57
1, 162201, Control_c, 0, 67, 13
1, 162216, Control_c, 0, 67, 14
1, 162231, Control_c, 0, 64, 35
1, 162231, Control_c, 0, 67, 14
1, 162245, Control_c, 0, 67, 15
1, 162253, Note_off_c, 0, 85, 63
1, 162254, Note_off_c, 0, 86, 66
1, 162260, Control_c, 0, 67, 15
1, 162261, Note_off_c, 0, 74, 64
1, 162275, Control_c, 0, 67, 16
1, 162277, Note_off_c, 0, 69, 60
1, 162290, Control_c, 0, 67, 16
1, 162319, Control_c, 0, 67, 17
1, 162334, Control_c, 0, 67, 17
1, 162336, Poly_aftertouch_c, 0, 79, 0
1, 162336, Note_off_c, 0, 66, 57
1, 162342, Note_on_c, 0, 83, 78
1, 162349, Control_c, 0, 67, 18
1, 162358, Note_on_c, 0, 71, 61
1, 162364, Control_c, 0, 64, 35
1, 162369, Note_on_c, 0, 65, 54
1, 162379, Control_c, 0, 64, 34
1, 162379, Control_c, 0, 67, 18
1, 162381, Note_on_c, 0, 68, 56
1, 162393, Control_c, 0, 64, 34
1, 162393, Control_c, 0, 67, 19
1, 162406, Note_on_c, 0, 72, 25
1, 162408, Control_c, 0, 64, 33
1, 162408, Control_c, 0, 67, 20
1, 162423, Control_c, 0, 64, 32
1, 162423, Control_c, 0, 67, 21
1, 162445, Control_c, 0, 64, 31
1, 162445, Control_c, 0, 67, 22
1, 162450, Note_off_c, 0, 72, 32
1, 162460, Control_c, 0, 64, 31
1, 162460, Control_c, 0, 67, 22
1, 162476, Control_c, 0, 67, 23
1, 162482, Note_off_c, 0, 71, 63
1, 162491, Control_c, 0, 64, 30
1, 162491, Control_c, 0, 67, 23
1, 162506, Control_c, 0, 64, 30
1, 162506, Control_c, 0, 67, 27
1, 162521, Control_c, 0, 64, 29
1, 162521, Control_c, 0, 67, 32
1, 162536, Control_c, 0, 64, 29
1, 162536, Control_c, 0, 67, 34
1, 162550, Control_c, 0, 64, 28
1, 162565, Control_c, 0, 64, 28
1, 162565, Control_c, 0, 67, 35
1, 162580, Control_c, 0, 64, 27
1, 162585, Note_off_c, 0, 65, 47
1, 162594, Poly_aftertouch_c, 0, 82, 127
1, 162595, Control_c, 0, 64, 27
1, 162595, Control_c, 0, 67, 36
1, 162602, Note_on_c, 0, 84, 75
1, 162610, Control_c, 0, 67, 37
1, 162616, Poly_aftertouch_c, 0, 82, 0
1, 162621, Note_on_c, 0, 72, 53
1, 162624, Control_c, 0, 67, 40
1, 162633, Note_off_c, 0, 68, 52
1, 162637, Note_on_c, 0, 67, 48
1, 162639, Control_c, 0, 67, 43
1, 162646, Note_on_c, 0, 64, 45
1, 162648, Note_off_c, 0, 83, 59
1, 162653, Control_c, 0, 67, 44
1, 162697, Control_c, 0, 67, 43
1, 162723, Note_off_c, 0, 67, 64
1, 162727, Control_c, 0, 67, 43
1, 162742, Note_off_c, 0, 84, 65
1, 162745, Note_off_c, 0, 72, 64
1, 162757, Control_c, 0, 64, 26
1, 162757, Control_c, 0, 67, 42
1, 162777, Note_off_c, 0, 64, 64
1, 162801, Control_c, 0, 67, 42
1, 162816, Control_c, 0, 64, 26
1, 162816, Control_c, 0, 67, 41
1, 162831, Control_c, 0, 64, 25
1, 162846, Control_c, 0, 67, 41
1, 162855, Note_on_c, 0, 81, 67
1, 162860, Control_c, 0, 64, 25
1, 162875, Control_c, 0, 64, 24
1, 162876, Note_on_c, 0, 69, 57
1, 162888, Note_on_c, 0, 63, 46
1, 162890, Control_c, 0, 64, 23
1, 162890, Control_c, 0, 67, 40
1, 162905, Control_c, 0, 64, 21
1, 162918, Note_on_c, 0, 66, 37
1, 162920, Control_c, 0, 64, 20
1, 162934, Control_c, 0, 64, 19
1, 162949, Control_c, 0, 64, 18
1, 162964, Control_c, 0, 64, 17
1, 162975, Note_off_c, 0, 69, 66
1, 162979, Control_c, 0, 64, 17
1, 162994, Control_c, 0, 67, 41
1, 163023, Control_c, 0, 67, 42
1, 163038, Control_c, 0, 67, 43
1, 163053, Control_c, 0, 67, 43
1, 163067, Control_c, 0, 67, 44
1, 163075, Note_off_c, 0, 66, 52
1, 163097, Control_c, 0, 67, 44
1, 163112, Control_c, 0, 67, 45
1, 163127, Control_c, 0, 67, 45
1, 163141, Control_c, 0, 67, 48
1, 163156, Control_c, 0, 67, 52
1, 163171, Control_c, 0, 67, 55
1, 163194, Control_c, 0, 67, 57
1, 163209, Control_c, 0, 67, 59
1, 163219, Note_on_c, 0, 82, 47
1, 163223, Control_c, 0, 67, 59
1, 163238, Control_c, 0, 67, 60
1, 163251, Note_on_c, 0, 70, 39
1, 163253, Control_c, 0, 67, 60
1, 163269, Control_c, 0, 64, 16
1, 163280, Note_on_c, 0, 65, 34
1, 163284, Control_c, 0, 64, 16
1, 163299, Note_on_c, 0, 62, 27
1, 163313, Control_c, 0, 64, 15
1, 163328, Control_c, 0, 67, 60
1, 163343, Control_c, 0, 64, 15
1, 163343, Control_c, 0, 67, 59
1, 163377, Note_off_c, 0, 81, 59
1, 163387, Control_c, 0, 67, 59
1, 163390, Note_off_c, 0, 63, 37
1, 163417, Control_c, 0, 67, 58
1, 163432, Control_c, 0, 67, 58
1, 163461, Control_c, 0, 67, 57
1, 163476, Control_c, 0, 67, 57
1, 163505, Control_c, 0, 67, 56
1, 163535, Control_c, 0, 67, 56
1, 163564, Control_c, 0, 67, 55
1, 163654, Control_c, 0, 67, 55
1, 163794, Note_off_c, 0, 65, 18
1, 163830, Note_off_c, 0, 82, 35
1, 163831, Control_c, 0, 64, 15
1, 163836, Note_off_c, 0, 62, 37
1, 163869, Note_off_c, 0, 70, 38
1, 163920, Control_c, 0, 64, 16
1, 163958, Control_c, 0, 67, 54
1, 164181, Control_c, 0, 67, 54
1, 164521, Control_c, 0, 67, 53
1, 164707, Control_c, 0, 67, 54
1, 164825, Note_on_c, 0, 63, 41
1, 164846, Note_on_c, 0, 60, 34
1, 164974, Control_c, 0, 67, 53
1, 165067, Note_on_c, 0, 80, 54
1, 165109, Note_on_c, 0, 68, 35
1, 165182, Control_c, 0, 64, 16
1, 165182, Control_c, 0, 67, 53
1, 165211, Control_c, 0, 64, 17
1, 165231, Note_off_c, 0, 68, 58
1, 165241, Control_c, 0, 67, 52
1, 165274, Note_off_c, 0, 80, 64
1, 165303, Note_on_c, 0, 79, 63
1, 165315, Control_c, 0, 67, 52
1, 165347, Note_on_c, 0, 67, 44
1, 165421, Note_off_c, 0, 67, 63
1, 165470, Control_c, 0, 67, 51
1, 165568, Note_on_c, 0, 78, 61
1, 165615, Note_on_c, 0, 66, 29
1, 165708, Note_off_c, 0, 79, 35
1, 165857, Note_off_c, 0, 66, 56
1, 165878, Note_off_c, 0, 78, 60
1, 165951, Note_on_c, 0, 78, 35
1, 165991, Note_on_c, 0, 66, 38
1, 165997, Note_on_c, 0, 62, 19
1, 166007, Note_on_c, 0, 59, 26
1, 166094, Note_off_c, 0, 60, 38
1, 166135, Note_off_c, 0, 63, 43
1, 166235, Control_c, 0, 64, 16
1, 166249, Control_c, 0, 64, 15
1, 166264, Control_c, 0, 64, 13
1, 166279, Control_c, 0, 64, 12
1, 166293, Control_c, 0, 64, 8
1, 166308, Control_c, 0, 64, 0
1, 166426, Control_c, 0, 67, 52
1, 166516, Control_c, 0, 64, 14
1, 166530, Control_c, 0, 64, 28
1, 166545, Control_c, 0, 64, 42
1, 166560, Control_c, 0, 64, 51
1, 166575, Control_c, 0, 64, 55
1, 166590, Control_c, 0, 64, 57
1, 166605, Control_c, 0, 64, 59
1, 166620, Control_c, 0, 64, 61
1, 166635, Control_c, 0, 64, 62
1, 166650, Control_c, 0, 64, 63
1, 166664, Control_c, 0, 64, 64
1, 166679, Control_c, 0, 64, 65
1, 166694, Control_c, 0, 64, 66
1, 166708, Control_c, 0, 64, 67
1, 166723, Control_c, 0, 64, 68
1, 166738, Control_c, 0, 64, 68
1, 166778, Note_off_c, 0, 66, 50
1, 166915, Control_c, 0, 67, 52
1, 167015, Note_off_c, 0, 78, 0
1, 167056, Poly_aftertouch_c, 0, 78, 0
1, 167056, Control_c, 0, 64, 68
1, 167145, Control_c, 0, 64, 67
1, 167234, Control_c, 0, 64, 67
1, 167294, Control_c, 0, 64, 66
1, 167353, Control_c, 0, 64, 66
1, 167353, Control_c, 0, 67, 52
1, 167398, Control_c, 0, 64, 65
1, 167413, Control_c, 0, 64, 65
1, 167437, Note_on_c, 0, 79, 21
1, 167443, Control_c, 0, 64, 64
1, 167457, Control_c, 0, 64, 62
1, 167464, Note_on_c, 0, 67, 19
1, 167472, Control_c, 0, 64, 60
1, 167487, Control_c, 0, 64, 56
1, 167502, Control_c, 0, 64, 48
1, 167517, Control_c, 0, 64, 40
1, 167531, Control_c, 0, 64, 32
1, 167546, Control_c, 0, 64, 34
1, 167561, Control_c, 0, 64, 44
1, 167576, Control_c, 0, 64, 54
1, 167576, Control_c, 0, 67, 51
1, 167591, Control_c, 0, 64, 60
1, 167605, Control_c, 0, 64, 62
1, 167620, Control_c, 0, 64, 63
1, 167620, Control_c, 0, 67, 51
1, 167635, Control_c, 0, 64, 65
1, 167649, Control_c, 0, 64, 66
1, 167664, Control_c, 0, 64, 67
1, 167687, Control_c, 0, 64, 68
1, 167760, Note_off_c, 0, 67, 50
1, 167775, Note_off_c, 0, 79, 53
1, 167833, Note_off_c, 0, 62, 41
1, 167835, Note_off_c, 0, 59, 42
1, 167879, Control_c, 0, 64, 68
1, 167895, Control_c, 0, 67, 51
1, 167939, Control_c, 0, 64, 67
1, 167939, Control_c, 0, 67, 52
1, 167984, Control_c, 0, 64, 67
1, 167999, Control_c, 0, 64, 66
1, 167999, Control_c, 0, 67, 52
1, 168013, Control_c, 0, 64, 65
1, 168028, Control_c, 0, 64, 64
1, 168043, Control_c, 0, 64, 63
1, 168059, Control_c, 0, 64, 63
1, 168074, Control_c, 0, 64, 62
1, 168078, Note_on_c, 0, 67, 45
1, 168088, Control_c, 0, 64, 60
1, 168103, Control_c, 0, 64, 59
1, 168118, Control_c, 0, 64, 57
1, 168133, Control_c, 0, 64, 55
1, 168148, Control_c, 0, 64, 54
1, 168162, Control_c, 0, 64, 53
1, 168177, Control_c, 0, 64, 52
1, 168177, Control_c, 0, 67, 52
1, 168192, Control_c, 0, 64, 51
1, 168207, Control_c, 0, 64, 49
1, 168222, Control_c, 0, 64, 49
1, 168236, Control_c, 0, 64, 48
1, 168251, Control_c, 0, 64, 48
1, 168280, Control_c, 0, 64, 47
1, 168295, Control_c, 0, 64, 47
1, 168321, Note_on_c, 0, 71, 51
1, 168340, Control_c, 0, 64, 46
1, 168383, Note_off_c, 0, 67, 53
1, 168399, Control_c, 0, 64, 46
1, 168466, Control_c, 0, 67, 51
1, 168510, Control_c, 0, 67, 51
1, 168551, Note_on_c, 0, 74, 60
1, 168554, Control_c, 0, 67, 50
1, 168584, Control_c, 0, 67, 50
1, 168599, Control_c, 0, 67, 49
1, 168614, Control_c, 0, 67, 48
1, 168629, Control_c, 0, 67, 47
1, 168644, Control_c, 0, 67, 47
1, 168659, Control_c, 0, 67, 46
1, 168710, Note_off_c, 0, 71, 63
1, 168742, Note_off_c, 0, 74, 64
1, 168792, Control_c, 0, 67, 46
1, 168808, Note_on_c, 0, 77, 63
1, 168836, Control_c, 0, 67, 45
1, 168838, Note_on_c, 0, 74, 46
1, 168882, Control_c, 0, 67, 45
1, 168897, Control_c, 0, 67, 44
1, 168911, Control_c, 0, 67, 42
1, 168926, Control_c, 0, 67, 39
1, 168941, Control_c, 0, 67, 37
1, 168956, Control_c, 0, 67, 36
1, 168971, Control_c, 0, 67, 35
1, 168985, Control_c, 0, 67, 34
1, 169000, Control_c, 0, 67, 33
1, 169015, Control_c, 0, 67, 31
1, 169030, Control_c, 0, 67, 30
1, 169045, Control_c, 0, 64, 45
1, 169045, Control_c, 0, 67, 28
1, 169064, Note_on_c, 0, 43, 35
1, 169185, Control_c, 0, 64, 45
1, 169327, Note_on_c, 0, 47, 38
1, 169406, Control_c, 0, 64, 44
1, 169410, Note_off_c, 0, 43, 48
1, 169480, Control_c, 0, 67, 28
1, 169557, Note_on_c, 0, 50, 43
1, 169613, Control_c, 0, 67, 27
1, 169657, Note_off_c, 0, 47, 57
1, 169670, Note_off_c, 0, 50, 62
1, 169674, Control_c, 0, 64, 45
1, 169674, Control_c, 0, 67, 27
1, 169718, Control_c, 0, 64, 45
1, 169747, Control_c, 0, 64, 46
1, 169762, Control_c, 0, 64, 46
1, 169806, Control_c, 0, 64, 47
1, 169830, Note_on_c, 0, 55, 45
1, 169863, Note_off_c, 0, 74, 64
1, 169877, Note_off_c, 0, 77, 65
1, 169947, Control_c, 0, 67, 27
1, 169992, Control_c, 0, 67, 28
1, 170056, Note_on_c, 0, 77, 54
1, 170081, Note_on_c, 0, 74, 48
1, 170181, Note_off_c, 0, 77, 65
1, 170181, Note_off_c, 0, 74, 64
1, 170199, Control_c, 0, 67, 28
1, 170258, Control_c, 0, 67, 29
1, 170298, Note_on_c, 0, 79, 51
1, 170303, Control_c, 0, 64, 47
1, 170303, Control_c, 0, 67, 29
1, 170307, Note_on_c, 0, 75, 57
1, 170332, Control_c, 0, 64, 48
1, 170332, Control_c, 0, 67, 30
1, 170362, Control_c, 0, 64, 48
1, 170362, Control_c, 0, 67, 30
1, 170377, Control_c, 0, 64, 49
1, 170392, Control_c, 0, 64, 49
1, 170392, Control_c, 0, 67, 31
1, 170394, Note_off_c, 0, 75, 64
1, 170400, Note_on_c, 0, 77, 58
1, 170400, Note_off_c, 0, 79, 65
1, 170404, Note_on_c, 0, 74, 55
1, 170406, Control_c, 0, 64, 50
1, 170406, Control_c, 0, 67, 31
1, 170421, Note_off_c, 0, 77, 66
1, 170436, Control_c, 0, 67, 32
1, 170445, Note_off_c, 0, 74, 66
1, 170452, Control_c, 0, 64, 50
1, 170467, Control_c, 0, 67, 32
1, 170481, Control_c, 0, 64, 51
1, 170496, Control_c, 0, 67, 33
1, 170510, Note_on_c, 0, 75, 67
1, 170511, Control_c, 0, 64, 51
1, 170516, Note_on_c, 0, 72, 53
1, 170526, Control_c, 0, 67, 33
1, 170555, Control_c, 0, 67, 34
1, 170585, Control_c, 0, 67, 34
1, 170595, Note_off_c, 0, 72, 58
1, 170606, Note_on_c, 0, 74, 64
1, 170615, Note_on_c, 0, 71, 57
1, 170617, Note_off_c, 0, 55, 63
1, 170647, Note_off_c, 0, 75, 61
1, 170663, Note_off_c, 0, 74, 64
1, 170691, Note_off_c, 0, 71, 63
1, 170744, Note_on_c, 0, 74, 64
1, 170763, Note_on_c, 0, 71, 40
1, 170785, Control_c, 0, 67, 34
1, 170844, Control_c, 0, 64, 51
1, 170874, Control_c, 0, 64, 50
1, 170888, Control_c, 0, 67, 33
1, 170918, Control_c, 0, 64, 50
1, 170948, Control_c, 0, 67, 33
1, 170963, Control_c, 0, 64, 49
1, 170992, Note_on_c, 0, 43, 49
1, 171008, Control_c, 0, 64, 49
1, 171022, Control_c, 0, 67, 32
1, 171037, Control_c, 0, 64, 48
1, 171067, Control_c, 0, 64, 48
1, 171067, Control_c, 0, 67, 32
1, 171096, Control_c, 0, 67, 31
1, 171111, Control_c, 0, 64, 47
1, 171126, Control_c, 0, 64, 47
1, 171126, Control_c, 0, 67, 31
1, 171141, Control_c, 0, 64, 46
1, 171155, Control_c, 0, 64, 46
1, 171155, Control_c, 0, 67, 30
1, 171170, Control_c, 0, 64, 45
1, 171185, Control_c, 0, 64, 45
1, 171199, Control_c, 0, 64, 44
1, 171199, Control_c, 0, 67, 30
1, 171214, Control_c, 0, 64, 43
1, 171225, Note_on_c, 0, 75, 58
1, 171229, Control_c, 0, 64, 43
1, 171245, Control_c, 0, 64, 42
1, 171250, Note_on_c, 0, 48, 44
1, 171260, Control_c, 0, 64, 42
1, 171260, Control_c, 0, 67, 29
1, 171263, Note_on_c, 0, 72, 47
1, 171272, Note_off_c, 0, 74, 60
1, 171290, Control_c, 0, 64, 41
1, 171303, Note_off_c, 0, 71, 62
1, 171319, Control_c, 0, 64, 41
1, 171319, Control_c, 0, 67, 29
1, 171334, Control_c, 0, 64, 40
1, 171359, Note_off_c, 0, 43, 56
1, 171408, Control_c, 0, 64, 40
1, 171431, Control_c, 0, 67, 28
1, 171473, Note_on_c, 0, 51, 49
1, 171490, Control_c, 0, 64, 39
1, 171519, Control_c, 0, 64, 39
1, 171534, Control_c, 0, 67, 28
1, 171551, Note_off_c, 0, 48, 58
1, 171559, Note_off_c, 0, 51, 64
1, 171578, Control_c, 0, 67, 27
1, 171623, Control_c, 0, 67, 27
1, 171706, Note_off_c, 0, 72, 61
1, 171712, Control_c, 0, 64, 39
1, 171720, Note_on_c, 0, 55, 64
1, 171727, Control_c, 0, 64, 40
1, 171738, Note_off_c, 0, 75, 65
1, 171757, Control_c, 0, 64, 40
1, 171772, Control_c, 0, 64, 41
1, 171786, Control_c, 0, 64, 41
1, 171801, Control_c, 0, 64, 42
1, 171816, Control_c, 0, 64, 42
1, 171830, Control_c, 0, 64, 43
1, 171830, Control_c, 0, 67, 27
1, 171845, Control_c, 0, 64, 43
1, 171875, Control_c, 0, 64, 44
1, 171875, Control_c, 0, 67, 28
1, 171935, Control_c, 0, 67, 28
1, 171958, Note_on_c, 0, 79, 63
1, 171974, Note_on_c, 0, 75, 51
1, 171979, Control_c, 0, 64, 44
1, 172084, Control_c, 0, 64, 45
1, 172116, Note_off_c, 0, 75, 60
1, 172145, Note_off_c, 0, 79, 60
1, 172180, Control_c, 0, 67, 29
1, 172195, Control_c, 0, 67, 29
1, 172207, Note_on_c, 0, 80, 65
1, 172218, Note_on_c, 0, 77, 61
1, 172224, Control_c, 0, 64, 45
1, 172224, Control_c, 0, 67, 30
1, 172254, Control_c, 0, 64, 46
1, 172269, Control_c, 0, 64, 46
1, 172269, Control_c, 0, 67, 30
1, 172284, Control_c, 0, 64, 47
1, 172298, Control_c, 0, 64, 47
1, 172302, Note_on_c, 0, 79, 65
1, 172307, Note_off_c, 0, 77, 64
1, 172313, Control_c, 0, 67, 31
1, 172317, Note_on_c, 0, 75, 69
1, 172320, Note_off_c, 0, 80, 61
1, 172328, Control_c, 0, 64, 48
1, 172331, Note_off_c, 0, 79, 66
1, 172343, Control_c, 0, 64, 48
1, 172346, Note_off_c, 0, 75, 69
1, 172358, Control_c, 0, 64, 49
1, 172358, Control_c, 0, 67, 31
1, 172373, Control_c, 0, 64, 49
1, 172388, Control_c, 0, 67, 32
1, 172417, Control_c, 0, 67, 32
1, 172427, Note_on_c, 0, 77, 61
1, 172429, Note_on_c, 0, 74, 64
1, 172505, Note_off_c, 0, 74, 65
1, 172511, Note_on_c, 0, 75, 78
1, 172517, Note_off_c, 0, 55, 64
1, 172519, Note_on_c, 0, 72, 63
1, 172521, Note_off_c, 0, 77, 63
1, 172535, Control_c, 0, 64, 50
1, 172550, Control_c, 0, 67, 33
1, 172570, Note_off_c, 0, 75, 63
1, 172594, Control_c, 0, 64, 50
1, 172632, Note_on_c, 0, 76, 76
1, 172639, Control_c, 0, 64, 51
1, 172644, Note_on_c, 0, 73, 70
1, 172653, Control_c, 0, 67, 32
1, 172659, Note_off_c, 0, 72, 58
1, 172683, Control_c, 0, 67, 32
1, 172728, Control_c, 0, 67, 31
1, 172743, Control_c, 0, 67, 31
1, 172867, Note_on_c, 0, 43, 53
1, 172892, Control_c, 0, 67, 30
1, 172988, Control_c, 0, 64, 51
1, 173012, Note_off_c, 0, 43, 61
1, 173103, Note_on_c, 0, 77, 69
1, 173115, Note_on_c, 0, 47, 57
1, 173123, Note_on_c, 0, 74, 58
1, 173150, Control_c, 0, 67, 31
1, 173169, Note_off_c, 0, 73, 62
1, 173227, Note_on_c, 0, 43, 66
1, 173231, Note_off_c, 0, 47, 62
1, 173248, Note_off_c, 0, 76, 31
1, 173254, Control_c, 0, 67, 31
1, 173268, Control_c, 0, 64, 51
1, 173298, Control_c, 0, 64, 51
1, 173298, Control_c, 0, 67, 32
1, 173340, Note_on_c, 0, 50, 60
1, 173345, Note_off_c, 0, 43, 59
1, 173436, Note_off_c, 0, 50, 61
1, 173437, Note_on_c, 0, 47, 64
1, 173446, Control_c, 0, 67, 32
1, 173508, Note_off_c, 0, 74, 0
1, 173541, Poly_aftertouch_c, 0, 74, 0
1, 173562, Note_off_c, 0, 77, 65
1, 173565, Control_c, 0, 64, 51
1, 173565, Control_c, 0, 67, 32
1, 173568, Note_on_c, 0, 55, 64
1, 173637, Note_off_c, 0, 47, 61
1, 173655, Control_c, 0, 64, 50
1, 173692, Control_c, 0, 64, 50
1, 173692, Control_c, 0, 67, 32
1, 173721, Control_c, 0, 64, 49
1, 173751, Control_c, 0, 64, 49
1, 173766, Control_c, 0, 64, 48
1, 173771, Note_on_c, 0, 77, 59
1, 173780, Control_c, 0, 64, 48
1, 173798, Note_on_c, 0, 74, 56
1, 173810, Control_c, 0, 64, 47
1, 173891, Note_off_c, 0, 74, 65
1, 173893, Note_off_c, 0, 77, 65
1, 173899, Control_c, 0, 64, 47
1, 173899, Control_c, 0, 67, 32
1, 173944, Control_c, 0, 64, 46
1, 173959, Control_c, 0, 67, 31
1, 173973, Control_c, 0, 67, 31
1, 174010, Note_on_c, 0, 79, 56
1, 174025, Note_on_c, 0, 75, 56
1, 174062, Control_c, 0, 67, 30
1, 174087, Note_off_c, 0, 55, 62
1, 174091, Control_c, 0, 64, 46
1, 174100, Note_on_c, 0, 77, 64
1, 174100, Note_off_c, 0, 75, 65
1, 174107, Note_off_c, 0, 79, 65
1, 174110, Note_on_c, 0, 74, 66
1, 174129, Note_off_c, 0, 77, 68
1, 174136, Control_c, 0, 64, 45
1, 174151, Control_c, 0, 64, 45
1, 174156, Note_off_c, 0, 74, 64
1, 174180, Control_c, 0, 64, 44
1, 174210, Control_c, 0, 64, 44
1, 174212, Note_on_c, 0, 75, 74
1, 174212, Note_on_c, 0, 72, 63
1, 174225, Control_c, 0, 67, 31
1, 174254, Control_c, 0, 64, 43
1, 174269, Control_c, 0, 64, 43
1, 174290, Note_off_c, 0, 72, 61
1, 174297, Note_on_c, 0, 74, 66
1, 174299, Control_c, 0, 64, 42
1, 174303, Note_off_c, 0, 75, 66
1, 174311, Note_on_c, 0, 71, 53
1, 174358, Note_off_c, 0, 71, 61
1, 174367, Note_off_c, 0, 74, 65
1, 174388, Control_c, 0, 64, 42
1, 174451, Note_on_c, 0, 72, 53
1, 174453, Note_on_c, 0, 75, 59
1, 174485, Control_c, 0, 67, 30
1, 174529, Control_c, 0, 64, 41
1, 174559, Control_c, 0, 67, 30
1, 174574, Control_c, 0, 67, 29
1, 174603, Control_c, 0, 64, 41
1, 174618, Control_c, 0, 67, 29
1, 174664, Control_c, 0, 64, 40
1, 174664, Control_c, 0, 67, 28
1, 174678, Control_c, 0, 67, 28
1, 174683, Note_on_c, 0, 60, 51
1, 174693, Control_c, 0, 67, 27
1, 174708, Control_c, 0, 67, 27
1, 174722, Control_c, 0, 67, 26
1, 174737, Control_c, 0, 67, 25
1, 174752, Control_c, 0, 64, 40
1, 174752, Control_c, 0, 67, 19
1, 174767, Control_c, 0, 67, 13
1, 174782, Control_c, 0, 67, 9
1, 174789, Note_on_c, 0, 48, 60
1, 174796, Control_c, 0, 67, 0
1, 174811, Note_off_c, 0, 60, 62
1, 174818, Note_off_c, 0, 48, 65
1, 174841, Note_off_c, 0, 75, 64
1, 174901, Note_on_c, 0, 76, 77
1, 174917, Note_on_c, 0, 73, 67
1, 174939, Note_off_c, 0, 72, 33
1, 175093, Control_c, 0, 64, 40
1, 175122, Control_c, 0, 64, 41
1, 175140, Note_on_c, 0, 58, 67
1, 175204, Control_c, 0, 64, 41
1, 175253, Note_on_c, 0, 46, 72
1, 175264, Control_c, 0, 64, 42
1, 175288, Note_off_c, 0, 58, 65
1, 175294, Control_c, 0, 64, 42
1, 175300, Note_off_c, 0, 46, 64
1, 175327, Note_off_c, 0, 76, 62
1, 175331, Note_off_c, 0, 73, 60
1, 175339, Control_c, 0, 64, 43
1, 175375, Note_on_c, 0, 77, 78
1, 175383, Control_c, 0, 67, 8
1, 175390, Note_on_c, 0, 72, 75
1, 175398, Control_c, 0, 64, 43
1, 175413, Control_c, 0, 67, 8
1, 175442, Control_c, 0, 64, 44
1, 175457, Control_c, 0, 64, 44
1, 175486, Control_c, 0, 64, 45
1, 175531, Control_c, 0, 64, 45
1, 175598, Note_on_c, 0, 57, 68
1, 175634, Control_c, 0, 64, 46
1, 175649, Control_c, 0, 67, 8
1, 175679, Control_c, 0, 67, 0
1, 175707, Note_on_c, 0, 45, 80
1, 175721, Note_off_c, 0, 72, 58
1, 175778, Note_off_c, 0, 57, 63
1, 175783, Note_off_c, 0, 77, 63
1, 175792, Note_off_c, 0, 45, 65
1, 175838, Note_on_c, 0, 78, 84
1, 175843, Note_on_c, 0, 72, 77
1, 175886, Control_c, 0, 64, 46
1, 175923, Control_c, 0, 67, 8
1, 175998, Control_c, 0, 64, 47
1, 175998, Control_c, 0, 67, 8
1, 176057, Control_c, 0, 67, 9
1, 176087, Control_c, 0, 64, 47
1, 176102, Control_c, 0, 67, 9
1, 176105, Note_on_c, 0, 54, 34
1, 176117, Note_on_c, 0, 56, 24
1, 176144, Note_off_c, 0, 54, 54
1, 176162, Note_off_c, 0, 56, 44
1, 176177, Note_on_c, 0, 44, 68
1, 176191, Control_c, 0, 67, 10
1, 176257, Note_off_c, 0, 72, 62
1, 176280, Control_c, 0, 64, 47
1, 176303, Note_on_c, 0, 43, 64
1, 176306, Note_off_c, 0, 44, 54
1, 176354, Control_c, 0, 64, 46
1, 176383, Control_c, 0, 64, 46
1, 176398, Control_c, 0, 64, 45
1, 176400, Note_on_c, 0, 55, 57
1, 176428, Control_c, 0, 64, 45
1, 176443, Control_c, 0, 64, 44
1, 176457, Control_c, 0, 64, 44
1, 176472, Control_c, 0, 64, 43
1, 176478, Note_off_c, 0, 78, 36
1, 176487, Control_c, 0, 64, 43
1, 176487, Control_c, 0, 67, 9
1, 176502, Control_c, 0, 64, 42
1, 176516, Control_c, 0, 64, 42
1, 176517, Note_on_c, 0, 71, 63
1, 176531, Control_c, 0, 64, 41
1, 176532, Note_off_c, 0, 43, 36
1, 176576, Control_c, 0, 64, 41
1, 176620, Control_c, 0, 67, 9
1, 176621, Note_on_c, 0, 79, 73
1, 176725, Note_on_c, 0, 77, 76
1, 176727, Note_off_c, 0, 71, 36
1, 176797, Note_off_c, 0, 55, 35
1, 176815, Note_off_c, 0, 79, 59
1, 176829, Note_on_c, 0, 75, 77
1, 176851, Control_c, 0, 64, 40
1, 176893, Note_off_c, 0, 77, 60
1, 176926, Note_on_c, 0, 74, 79
1, 176987, Note_off_c, 0, 75, 64
1, 177015, Note_on_c, 0, 72, 76
1, 177021, Note_off_c, 0, 74, 65
1, 177043, Control_c, 0, 64, 40
1, 177130, Note_on_c, 0, 71, 69
1, 177146, Control_c, 0, 64, 39
1, 177159, Note_off_c, 0, 72, 54
1, 177190, Control_c, 0, 64, 39
1, 177231, Note_on_c, 0, 68, 64
1, 177285, Note_off_c, 0, 71, 59
1, 177294, Control_c, 0, 64, 38
1, 177339, Control_c, 0, 64, 38
1, 177341, Note_on_c, 0, 67, 66
1, 177384, Control_c, 0, 67, 8
1, 177398, Note_off_c, 0, 68, 57
1, 177430, Note_off_c, 0, 67, 63
1, 177441, Note_on_c, 0, 65, 63
1, 177543, Note_off_c, 0, 65, 61
1, 177563, Note_on_c, 0, 63, 61
1, 177667, Note_on_c, 0, 62, 63
1, 177748, Note_off_c, 0, 63, 34
1, 177771, Note_off_c, 0, 62, 64
1, 177780, Note_on_c, 0, 60, 59
1, 177872, Note_on_c, 0, 59, 59
1, 177898, Note_off_c, 0, 60, 55
1, 177977, Note_off_c, 0, 59, 65
1, 177978, Note_on_c, 0, 56, 58
1, 177984, Control_c, 0, 64, 37
1, 178092, Note_on_c, 0, 55, 58
1, 178093, Note_off_c, 0, 56, 57
1, 178132, Control_c, 0, 64, 38
1, 178199, Control_c, 0, 67, 9
1, 178227, Note_off_c, 0, 55, 58
1, 178232, Note_on_c, 0, 53, 51
1, 178258, Control_c, 0, 64, 38
1, 178302, Control_c, 0, 64, 39
1, 178332, Note_on_c, 0, 80, 61
1, 178392, Control_c, 0, 64, 39
1, 178437, Control_c, 0, 64, 40
1, 178439, Note_on_c, 0, 79, 69
1, 178496, Control_c, 0, 64, 40
1, 178541, Note_on_c, 0, 77, 67
1, 178556, Control_c, 0, 64, 41
1, 178570, Control_c, 0, 67, 9
1, 178600, Control_c, 0, 64, 41
1, 178617, Note_off_c, 0, 53, 60
1, 178630, Control_c, 0, 64, 42
1, 178650, Note_on_c, 0, 75, 74
1, 178675, Control_c, 0, 64, 42
1, 178695, Note_off_c, 0, 80, 19
1, 178733, Note_off_c, 0, 79, 29
1, 178749, Note_off_c, 0, 77, 58
1, 178755, Note_on_c, 0, 74, 74
1, 178779, Note_off_c, 0, 75, 63
1, 178823, Control_c, 0, 64, 43
1, 178862, Note_on_c, 0, 73, 74
1, 178891, Note_off_c, 0, 74, 63
1, 178979, Note_on_c, 0, 74, 77
1, 178979, Note_off_c, 0, 73, 62
1, 179083, Note_on_c, 0, 75, 76
1, 179096, Control_c, 0, 67, 10
1, 179106, Note_off_c, 0, 74, 63
1, 179111, Control_c, 0, 64, 43
1, 179156, Control_c, 0, 67, 10
1, 179179, Note_on_c, 0, 74, 75
1, 179185, Control_c, 0, 67, 11
1, 179202, Note_off_c, 0, 75, 62
1, 179214, Control_c, 0, 67, 11
1, 179229, Control_c, 0, 64, 44
1, 179275, Control_c, 0, 67, 12
1, 179292, Note_on_c, 0, 77, 71
1, 179343, Note_off_c, 0, 74, 59
1, 179364, Control_c, 0, 67, 12
1, 179385, Note_on_c, 0, 75, 81
1, 179410, Note_off_c, 0, 77, 65
1, 179423, Control_c, 0, 67, 13
1, 179438, Control_c, 0, 67, 13
1, 179453, Control_c, 0, 67, 14
1, 179496, Note_on_c, 0, 79, 76
1, 179512, Note_off_c, 0, 75, 65
1, 179593, Note_on_c, 0, 77, 76
1, 179593, Note_off_c, 0, 79, 64
1, 179714, Note_on_c, 0, 80, 78
1, 179801, Control_c, 0, 64, 43
1, 179831, Control_c, 0, 67, 13
1, 179834, Note_on_c, 0, 79, 76
1, 179840, Note_off_c, 0, 77, 62
1, 179873, Note_off_c, 0, 80, 61
1, 179953, Note_on_c, 0, 82, 67
1, 179964, Control_c, 0, 64, 43
1, 179979, Control_c, 0, 67, 13
1, 180003, Note_off_c, 0, 79, 60
1, 180023, Control_c, 0, 67, 12
1, 180054, Control_c, 0, 67, 12
1, 180063, Note_on_c, 0, 80, 69
1, 180098, Control_c, 0, 64, 42
1, 180113, Control_c, 0, 67, 11
1, 180142, Control_c, 0, 67, 11
1, 180157, Control_c, 0, 64, 42
1, 180162, Note_on_c, 0, 79, 70
1, 180170, Note_off_c, 0, 82, 54
1, 180187, Control_c, 0, 64, 41
1, 180187, Control_c, 0, 67, 10
1, 180216, Control_c, 0, 67, 10
1, 180238, Note_off_c, 0, 80, 56
1, 180246, Control_c, 0, 64, 41
1, 180261, Note_off_c, 0, 79, 64
1, 180265, Note_on_c, 0, 77, 68
1, 180305, Control_c, 0, 67, 9
1, 180347, Note_off_c, 0, 77, 57
1, 180365, Note_on_c, 0, 75, 69
1, 180395, Control_c, 0, 64, 40
1, 180416, Control_c, 0, 64, 40
1, 180431, Control_c, 0, 64, 39
1, 180475, Note_on_c, 0, 74, 68
1, 180505, Control_c, 0, 64, 39
1, 180535, Note_off_c, 0, 75, 58
1, 180579, Note_on_c, 0, 73, 69
1, 180591, Note_off_c, 0, 74, 57
1, 180668, Control_c, 0, 64, 39
1, 180668, Control_c, 0, 67, 9
1, 180683, Note_on_c, 0, 74, 74
1, 180687, Note_off_c, 0, 73, 63
1, 180728, Control_c, 0, 64, 40
1, 180757, Control_c, 0, 64, 40
1, 180782, Note_on_c, 0, 75, 68
1, 180787, Control_c, 0, 64, 41
1, 180794, Note_off_c, 0, 74, 60
1, 180862, Control_c, 0, 64, 41
1, 180892, Note_on_c, 0, 74, 71
1, 180899, Note_off_c, 0, 75, 62
1, 180906, Control_c, 0, 64, 42
1, 180906, Control_c, 0, 67, 9
1, 180951, Control_c, 0, 67, 10
1, 180995, Control_c, 0, 64, 42
1, 180995, Control_c, 0, 67, 10
1, 181006, Note_on_c, 0, 77, 61
1, 181016, Note_off_c, 0, 74, 60
1, 181025, Control_c, 0, 67, 11
1, 181069, Control_c, 0, 67, 11
1, 181118, Note_on_c, 0, 75, 60
1, 181190, Note_off_c, 0, 77, 53
1, 181195, Control_c, 0, 64, 42
1, 181233, Note_on_c, 0, 74, 62
1, 181239, Control_c, 0, 64, 41
1, 181283, Control_c, 0, 64, 41
1, 181335, Note_on_c, 0, 72, 64
1, 181343, Control_c, 0, 64, 40
1, 181351, Note_off_c, 0, 75, 0
1, 181377, Note_off_c, 0, 74, 59
1, 181401, Control_c, 0, 67, 11
1, 181404, Poly_aftertouch_c, 0, 75, 0
1, 181407, Note_off_c, 0, 72, 62
1, 181481, Note_on_c, 0, 72, 65
1, 181519, Control_c, 0, 64, 40
1, 181578, Control_c, 0, 64, 39
1, 181593, Control_c, 0, 64, 39
1, 181653, Control_c, 0, 64, 38
1, 181718, Note_on_c, 0, 62, 40
1, 181723, Note_on_c, 0, 65, 42
1, 181724, Note_on_c, 0, 55, 39
1, 181757, Control_c, 0, 67, 10
1, 181775, Note_off_c, 0, 55, 61
1, 181776, Note_off_c, 0, 65, 58
1, 181780, Note_off_c, 0, 62, 61
1, 181963, Note_on_c, 0, 62, 32
1, 181968, Note_on_c, 0, 65, 44
1, 181974, Note_on_c, 0, 55, 37
1, 182024, Note_off_c, 0, 65, 58
1, 182028, Note_off_c, 0, 55, 61
1, 182032, Note_off_c, 0, 62, 61
1, 182061, Control_c, 0, 67, 10
1, 182180, Control_c, 0, 64, 38
1, 182205, Note_on_c, 0, 65, 45
1, 182207, Note_on_c, 0, 62, 32
1, 182215, Note_on_c, 0, 55, 24
1, 182269, Control_c, 0, 67, 9
1, 182277, Note_off_c, 0, 62, 61
1, 182280, Note_off_c, 0, 65, 60
1, 182281, Note_off_c, 0, 55, 59
1, 182511, Note_on_c, 0, 65, 36
1, 182513, Note_on_c, 0, 55, 30
1, 182522, Note_on_c, 0, 62, 38
1, 182586, Note_off_c, 0, 72, 56
1, 182590, Note_on_c, 0, 71, 44
1, 182700, Note_off_c, 0, 71, 57
1, 182712, Note_on_c, 0, 72, 51
1, 182752, Note_off_c, 0, 72, 63
1, 182774, Note_on_c, 0, 74, 59
1, 182810, Control_c, 0, 67, 9
1, 182840, Control_c, 0, 67, 8
1, 182842, Note_on_c, 0, 72, 67
1, 182854, Note_off_c, 0, 74, 63
1, 182869, Control_c, 0, 67, 8
1, 182891, Note_off_c, 0, 72, 57
1, 182899, Control_c, 0, 67, 0
1, 182919, Note_on_c, 0, 71, 69
1, 182970, Note_off_c, 0, 71, 58
1, 182988, Control_c, 0, 64, 38
1, 182991, Note_on_c, 0, 77, 68
1, 183018, Control_c, 0, 64, 39
1, 183063, Note_on_c, 0, 75, 71
1, 183077, Control_c, 0, 64, 39
1, 183081, Note_off_c, 0, 77, 59
1, 183092, Control_c, 0, 64, 40
1, 183122, Control_c, 0, 64, 40
1, 183124, Note_on_c, 0, 74, 67
1, 183137, Note_off_c, 0, 75, 63
1, 183151, Control_c, 0, 64, 41
1, 183199, Note_on_c, 0, 80, 69
1, 183210, Control_c, 0, 64, 41
1, 183259, Note_off_c, 0, 74, 60
1, 183276, Note_on_c, 0, 77, 69
1, 183300, Control_c, 0, 64, 42
1, 183315, Control_c, 0, 64, 42
1, 183345, Control_c, 0, 64, 43
1, 183356, Note_on_c, 0, 74, 72
1, 183374, Control_c, 0, 64, 43
1, 183375, Note_off_c, 0, 80, 57
1, 183388, Note_off_c, 0, 77, 63
1, 183389, Control_c, 0, 64, 44
1, 183443, Note_off_c, 0, 74, 65
1, 183508, Note_on_c, 0, 72, 71
1, 183613, Note_off_c, 0, 55, 52
1, 183739, Note_off_c, 0, 62, 42
1, 183751, Note_on_c, 0, 56, 45
1, 183848, Note_off_c, 0, 65, 47
1, 183855, Note_on_c, 0, 62, 53
1, 183855, Control_c, 0, 64, 43
1, 183901, Note_off_c, 0, 56, 61
1, 183914, Control_c, 0, 64, 43
1, 183944, Note_off_c, 0, 62, 60
1, 183947, Note_on_c, 0, 65, 58
1, 183988, Control_c, 0, 64, 42
1, 184016, Note_on_c, 0, 56, 62
1, 184048, Control_c, 0, 64, 42
1, 184064, Note_off_c, 0, 65, 42
1, 184094, Note_on_c, 0, 62, 54
1, 184122, Control_c, 0, 64, 41
1, 184138, Note_off_c, 0, 56, 61
1, 184195, Note_on_c, 0, 65, 52
1, 184204, Control_c, 0, 64, 41
1, 184204, Note_off_c, 0, 62, 60
1, 184267, Note_on_c, 0, 56, 64
1, 184278, Control_c, 0, 64, 40
1, 184345, Note_off_c, 0, 65, 47
1, 184351, Note_on_c, 0, 62, 54
1, 184407, Note_off_c, 0, 56, 56
1, 184440, Control_c, 0, 67, 8
1, 184470, Control_c, 0, 67, 8
1, 184475, Note_on_c, 0, 65, 51
1, 184499, Control_c, 0, 67, 9
1, 184529, Control_c, 0, 67, 9
1, 184640, Note_on_c, 0, 56, 47
1, 184826, Note_on_c, 0, 71, 47
1, 184839, Note_off_c, 0, 72, 59
1, 184965, Note_off_c, 0, 71, 56
1, 184970, Note_on_c, 0, 72, 49
1, 185036, Note_off_c, 0, 72, 59
1, 185054, Note_on_c, 0, 74, 62
1, 185071, Control_c, 0, 64, 40
1, 185071, Control_c, 0, 67, 10
1, 185086, Control_c, 0, 67, 10
1, 185101, Control_c, 0, 67, 11
1, 185130, Control_c, 0, 67, 11
1, 185141, Note_off_c, 0, 74, 63
1, 185146, Note_on_c, 0, 72, 64
1, 185160, Control_c, 0, 67, 12
1, 185190, Control_c, 0, 64, 39
1, 185191, Note_off_c, 0, 72, 61
1, 185222, Note_on_c, 0, 71, 63
1, 185248, Control_c, 0, 64, 39
1, 185316, Note_off_c, 0, 71, 60
1, 185323, Note_on_c, 0, 77, 52
1, 185367, Control_c, 0, 64, 38
1, 185397, Control_c, 0, 64, 38
1, 185426, Note_on_c, 0, 75, 56
1, 185438, Note_off_c, 0, 77, 57
1, 185441, Control_c, 0, 64, 37
1, 185501, Control_c, 0, 64, 37
1, 185519, Note_off_c, 0, 75, 64
1, 185523, Note_on_c, 0, 74, 54
1, 185575, Control_c, 0, 64, 36
1, 185590, Control_c, 0, 67, 11
1, 185667, Note_on_c, 0, 80, 51
1, 185701, Control_c, 0, 64, 36
1, 185716, Control_c, 0, 64, 35
1, 185731, Control_c, 0, 64, 33
1, 185732, Note_off_c, 0, 74, 54
1, 185746, Control_c, 0, 64, 30
1, 185760, Control_c, 0, 64, 27
1, 185775, Control_c, 0, 64, 24
1, 185779, Note_on_c, 0, 77, 49
1, 185790, Control_c, 0, 64, 23
1, 185805, Control_c, 0, 64, 21
1, 185820, Control_c, 0, 64, 20
1, 185835, Control_c, 0, 64, 18
1, 185850, Control_c, 0, 64, 17
1, 185909, Control_c, 0, 64, 18
1, 185909, Control_c, 0, 67, 11
1, 185915, Note_on_c, 0, 74, 39
1, 185915, Note_off_c, 0, 77, 57
1, 185924, Control_c, 0, 64, 22
1, 185939, Control_c, 0, 64, 27
1, 185954, Control_c, 0, 64, 32
1, 185969, Control_c, 0, 64, 37
1, 185983, Note_off_c, 0, 80, 17
1, 185984, Control_c, 0, 64, 41
1, 185999, Control_c, 0, 64, 44
1, 186014, Control_c, 0, 64, 47
1, 186028, Control_c, 0, 64, 49
1, 186043, Control_c, 0, 64, 50
1, 186058, Control_c, 0, 64, 51
1, 186072, Control_c, 0, 64, 52
1, 186087, Control_c, 0, 64, 53
1, 186102, Control_c, 0, 64, 53
1, 186118, Note_off_c, 0, 74, 59
1, 186176, Control_c, 0, 64, 53
1, 186179, Note_on_c, 0, 72, 53
1, 186191, Control_c, 0, 64, 52
1, 186206, Control_c, 0, 64, 51
1, 186220, Control_c, 0, 64, 50
1, 186235, Control_c, 0, 64, 48
1, 186250, Control_c, 0, 64, 46
1, 186265, Control_c, 0, 64, 44
1, 186279, Control_c, 0, 64, 41
1, 186294, Control_c, 0, 64, 38
1, 186309, Control_c, 0, 64, 35
1, 186324, Control_c, 0, 64, 33
1, 186353, Control_c, 0, 67, 11
1, 186362, Note_off_c, 0, 56, 29
1, 186368, Control_c, 0, 67, 12
1, 186405, Control_c, 0, 64, 34
1, 186405, Control_c, 0, 67, 12
1, 186420, Control_c, 0, 64, 34
1, 186420, Control_c, 0, 67, 13
1, 186437, Control_c, 0, 64, 35
1, 186437, Control_c, 0, 67, 14
1, 186451, Control_c, 0, 64, 36
1, 186451, Control_c, 0, 67, 14
1, 186466, Control_c, 0, 64, 37
1, 186466, Control_c, 0, 67, 15
1, 186481, Control_c, 0, 64, 39
1, 186481, Control_c, 0, 67, 15
1, 186496, Control_c, 0, 64, 40
1, 186496, Control_c, 0, 67, 16
1, 186510, Control_c, 0, 64, 41
1, 186510, Control_c, 0, 67, 16
1, 186516, Note_off_c, 0, 62, 32
1, 186525, Control_c, 0, 64, 41
1, 186525, Control_c, 0, 67, 17
1, 186540, Control_c, 0, 64, 42
1, 186540, Control_c, 0, 67, 17
1, 186562, Note_on_c, 0, 56, 31
1, 186570, Control_c, 0, 64, 43
1, 186570, Control_c, 0, 67, 18
1, 186584, Control_c, 0, 64, 45
1, 186584, Control_c, 0, 67, 18
1, 186599, Control_c, 0, 64, 46
1, 186599, Control_c, 0, 67, 19
1, 186614, Control_c, 0, 64, 47
1, 186614, Control_c, 0, 67, 19
1, 186629, Control_c, 0, 64, 48
1, 186629, Control_c, 0, 67, 23
1, 186644, Control_c, 0, 64, 50
1, 186644, Control_c, 0, 67, 33
1, 186658, Control_c, 0, 64, 51
1, 186658, Control_c, 0, 67, 41
1, 186673, Control_c, 0, 64, 52
1, 186673, Control_c, 0, 67, 47
1, 186688, Control_c, 0, 64, 54
1, 186688, Control_c, 0, 67, 51
1, 186691, Note_off_c, 0, 65, 43
1, 186702, Control_c, 0, 64, 56
1, 186702, Control_c, 0, 67, 54
1, 186717, Control_c, 0, 64, 58
1, 186717, Control_c, 0, 67, 56
1, 186732, Control_c, 0, 64, 58
1, 186732, Control_c, 0, 67, 57
1, 186736, Note_on_c, 0, 62, 29
1, 186747, Control_c, 0, 64, 59
1, 186762, Control_c, 0, 64, 60
1, 186777, Control_c, 0, 64, 61
1, 186777, Control_c, 0, 67, 58
1, 186792, Control_c, 0, 64, 62
1, 186807, Control_c, 0, 64, 63
1, 186807, Control_c, 0, 67, 58
1, 186821, Control_c, 0, 64, 64
1, 186836, Control_c, 0, 64, 65
1, 186841, Note_off_c, 0, 56, 41
1, 186851, Control_c, 0, 64, 65
1, 186854, Poly_aftertouch_c, 0, 65, 127
1, 186866, Control_c, 0, 64, 66
1, 186866, Control_c, 0, 67, 59
1, 186881, Control_c, 0, 64, 66
1, 186892, Note_off_c, 0, 62, 41
1, 186895, Control_c, 0, 64, 67
1, 186910, Control_c, 0, 67, 59
1, 186925, Control_c, 0, 64, 67
1, 186925, Control_c, 0, 67, 61
1, 186940, Control_c, 0, 67, 64
1, 186955, Control_c, 0, 67, 67
1, 186961, Note_on_c, 0, 56, 40
1, 186969, Control_c, 0, 67, 68
1, 186984, Control_c, 0, 67, 70
1, 186999, Control_c, 0, 67, 71
1, 187014, Control_c, 0, 67, 73
1, 187018, Poly_aftertouch_c, 0, 65, 0
1, 187028, Control_c, 0, 67, 75
1, 187043, Control_c, 0, 67, 76
1, 187058, Control_c, 0, 64, 68
1, 187058, Control_c, 0, 67, 78
1, 187073, Control_c, 0, 67, 79
1, 187088, Control_c, 0, 67, 79
1, 187102, Control_c, 0, 64, 68
1, 187111, Note_on_c, 0, 62, 33
1, 187155, Control_c, 0, 64, 69
1, 187170, Control_c, 0, 64, 69
1, 187170, Control_c, 0, 67, 80
1, 187184, Control_c, 0, 64, 70
1, 187199, Control_c, 0, 64, 70
1, 187199, Control_c, 0, 67, 80
1, 187214, Control_c, 0, 64, 71
1, 187230, Control_c, 0, 64, 71
1, 187245, Control_c, 0, 64, 72
1, 187245, Control_c, 0, 67, 83
1, 187260, Control_c, 0, 64, 72
1, 187260, Control_c, 0, 67, 85
1, 187266, Note_on_c, 0, 65, 28
1, 187269, Note_off_c, 0, 56, 20
1, 187274, Control_c, 0, 64, 73
1, 187274, Control_c, 0, 67, 86
1, 187307, Note_off_c, 0, 62, 41
1, 187319, Control_c, 0, 64, 73
1, 187362, Control_c, 0, 67, 86
1, 187377, Control_c, 0, 67, 85
1, 187406, Note_on_c, 0, 56, 42
1, 187421, Control_c, 0, 64, 74
1, 187421, Control_c, 0, 67, 85
1, 187451, Control_c, 0, 67, 84
1, 187480, Control_c, 0, 67, 84
1, 187510, Note_off_c, 0, 65, 33
1, 187579, Note_on_c, 0, 62, 34
1, 187585, Control_c, 0, 67, 83
1, 187644, Control_c, 0, 67, 83
1, 187718, Control_c, 0, 67, 82
1, 187775, Note_on_c, 0, 65, 29
1, 187792, Control_c, 0, 67, 82
1, 187799, Note_off_c, 0, 56, 33
1, 187974, Note_off_c, 0, 62, 0
1, 187992, Control_c, 0, 67, 81
1, 188011, Poly_aftertouch_c, 0, 62, 127
1, 188126, Control_c, 0, 64, 73
1, 188188, Note_on_c, 0, 56, 25
1, 188200, Control_c, 0, 64, 73
1, 188259, Control_c, 0, 64, 72
1, 188288, Control_c, 0, 64, 72
1, 188303, Control_c, 0, 64, 71
1, 188318, Control_c, 0, 64, 71
1, 188333, Control_c, 0, 64, 70
1, 188348, Control_c, 0, 64, 69
1, 188363, Control_c, 0, 64, 69
1, 188363, Control_c, 0, 67, 82
1, 188377, Control_c, 0, 64, 68
1, 188392, Control_c, 0, 64, 67
1, 188407, Control_c, 0, 64, 65
1, 188422, Control_c, 0, 64, 64
1, 188437, Control_c, 0, 64, 63
1, 188452, Control_c, 0, 64, 62
1, 188467, Control_c, 0, 64, 62
1, 188481, Control_c, 0, 64, 61
1, 188496, Control_c, 0, 64, 61
1, 188511, Control_c, 0, 64, 60
1, 188526, Control_c, 0, 64, 59
1, 188541, Control_c, 0, 64, 59
1, 188585, Control_c, 0, 64, 58
1, 188615, Control_c, 0, 64, 58
1, 188629, Control_c, 0, 64, 57
1, 188652, Control_c, 0, 64, 56
1, 188667, Control_c, 0, 64, 55
1, 188681, Control_c, 0, 64, 54
1, 188696, Control_c, 0, 64, 53
1, 188711, Control_c, 0, 64, 52
1, 188726, Control_c, 0, 64, 51
1, 188741, Control_c, 0, 64, 50
1, 188831, Control_c, 0, 64, 51
1, 188845, Control_c, 0, 64, 52
1, 188860, Control_c, 0, 64, 53
1, 188875, Control_c, 0, 64, 54
1, 188890, Control_c, 0, 64, 54
1, 188905, Control_c, 0, 64, 55
1, 188920, Control_c, 0, 64, 57
1, 188920, Control_c, 0, 67, 81
1, 188935, Control_c, 0, 64, 58
1, 188950, Control_c, 0, 64, 59
1, 188965, Control_c, 0, 64, 59
1, 188979, Control_c, 0, 64, 60
1, 188994, Control_c, 0, 64, 61
1, 189009, Control_c, 0, 64, 61
1, 189009, Control_c, 0, 67, 81
1, 189024, Control_c, 0, 64, 62
1, 189039, Control_c, 0, 64, 62
1, 189053, Control_c, 0, 64, 63
1, 189068, Control_c, 0, 64, 63
1, 189097, Control_c, 0, 64, 64
1, 189290, Control_c, 0, 64, 63
1, 189319, Control_c, 0, 64, 63
1, 189332, Note_on_c, 0, 71, 28
1, 189349, Note_off_c, 0, 72, 52
1, 189349, Control_c, 0, 64, 62
1, 189379, Control_c, 0, 64, 62
1, 189401, Control_c, 0, 64, 61
1, 189416, Control_c, 0, 64, 61
1, 189430, Control_c, 0, 64, 60
1, 189445, Control_c, 0, 64, 60
1, 189460, Control_c, 0, 64, 59
1, 189475, Control_c, 0, 64, 58
1, 189490, Control_c, 0, 64, 58
1, 189503, Note_on_c, 0, 72, 48
1, 189504, Control_c, 0, 64, 57
1, 189519, Control_c, 0, 64, 57
1, 189534, Control_c, 0, 67, 80
1, 189540, Note_off_c, 0, 71, 38
1, 189549, Control_c, 0, 64, 56
1, 189579, Control_c, 0, 64, 56
1, 189594, Control_c, 0, 64, 55
1, 189609, Control_c, 0, 64, 54
1, 189609, Control_c, 0, 67, 80
1, 189610, Note_off_c, 0, 72, 59
1, 189624, Control_c, 0, 64, 53
1, 189628, Note_on_c, 0, 74, 49
1, 189639, Control_c, 0, 64, 51
1, 189654, Control_c, 0, 64, 49
1, 189668, Control_c, 0, 64, 48
1, 189668, Control_c, 0, 67, 79
1, 189683, Control_c, 0, 64, 47
1, 189698, Control_c, 0, 64, 46
1, 189713, Control_c, 0, 64, 45
1, 189728, Control_c, 0, 64, 43
1, 189742, Note_on_c, 0, 72, 55
1, 189743, Control_c, 0, 64, 42
1, 189744, Note_off_c, 0, 74, 58
1, 189758, Control_c, 0, 64, 41
1, 189773, Control_c, 0, 64, 41
1, 189787, Control_c, 0, 64, 40
1, 189802, Control_c, 0, 64, 40
1, 189814, Note_off_c, 0, 72, 60
1, 189817, Control_c, 0, 64, 39
1, 189832, Control_c, 0, 64, 39
1, 189846, Control_c, 0, 64, 38
1, 189850, Note_on_c, 0, 71, 52
1, 189861, Control_c, 0, 64, 38
1, 189876, Control_c, 0, 64, 37
1, 189891, Control_c, 0, 64, 37
1, 189906, Control_c, 0, 64, 36
1, 189920, Control_c, 0, 64, 36
1, 189935, Control_c, 0, 64, 35
1, 189950, Control_c, 0, 64, 35
1, 189978, Note_on_c, 0, 77, 48
1, 189978, Note_off_c, 0, 71, 52
1, 189980, Control_c, 0, 64, 34
1, 190127, Note_on_c, 0, 75, 52
1, 190146, Note_off_c, 0, 77, 53
1, 190268, Control_c, 0, 64, 34
1, 190297, Note_on_c, 0, 74, 47
1, 190301, Note_off_c, 0, 75, 57
1, 190432, Control_c, 0, 64, 33
1, 190521, Control_c, 0, 64, 33
1, 190617, Note_on_c, 0, 80, 45
1, 190770, Note_off_c, 0, 74, 29
1, 190817, Control_c, 0, 64, 32
1, 190929, Control_c, 0, 67, 79
1, 191136, Control_c, 0, 64, 34
1, 191150, Control_c, 0, 64, 36
1, 191165, Control_c, 0, 64, 39
1, 191180, Control_c, 0, 64, 40
1, 191194, Control_c, 0, 64, 43
1, 191209, Control_c, 0, 64, 45
1, 191209, Control_c, 0, 67, 78
1, 191226, Control_c, 0, 64, 49
1, 191241, Control_c, 0, 64, 52
1, 191255, Control_c, 0, 64, 55
1, 191270, Control_c, 0, 64, 56
1, 191285, Control_c, 0, 64, 57
1, 191299, Control_c, 0, 64, 58
1, 191314, Control_c, 0, 64, 59
1, 191329, Control_c, 0, 64, 60
1, 191344, Control_c, 0, 64, 61
1, 191359, Control_c, 0, 64, 62
1, 191373, Control_c, 0, 64, 62
1, 191388, Control_c, 0, 64, 63
1, 191403, Control_c, 0, 64, 64
1, 191418, Control_c, 0, 64, 64
1, 191448, Control_c, 0, 64, 65
1, 191463, Control_c, 0, 67, 78
1, 191478, Control_c, 0, 64, 65
1, 191537, Control_c, 0, 67, 78
1, 191566, Control_c, 0, 64, 65
1, 191626, Control_c, 0, 64, 64
1, 191648, Control_c, 0, 64, 64
1, 191662, Control_c, 0, 64, 63
1, 191677, Control_c, 0, 64, 63
1, 191692, Control_c, 0, 64, 62
1, 191707, Control_c, 0, 64, 61
1, 191719, Note_on_c, 0, 79, 43
1, 191722, Control_c, 0, 64, 61
1, 191737, Control_c, 0, 64, 60
1, 191752, Control_c, 0, 67, 79
1, 191766, Control_c, 0, 64, 60
1, 191781, Control_c, 0, 64, 59
1, 191796, Control_c, 0, 64, 59
1, 191811, Control_c, 0, 64, 58
1, 191825, Control_c, 0, 64, 57
1, 191840, Control_c, 0, 64, 56
1, 191854, Control_c, 0, 64, 56
1, 191869, Control_c, 0, 64, 55
1, 191884, Control_c, 0, 64, 54
1, 191890, Note_off_c, 0, 80, 0
1, 191898, Control_c, 0, 64, 53
1, 191913, Control_c, 0, 64, 53
1, 191927, Poly_aftertouch_c, 0, 80, 0
1, 191928, Control_c, 0, 64, 52
1, 191943, Control_c, 0, 64, 51
1, 191958, Control_c, 0, 64, 50
1, 191972, Control_c, 0, 64, 48
1, 191987, Control_c, 0, 64, 47
1, 191991, Note_on_c, 0, 77, 48
1, 192002, Control_c, 0, 64, 46
1, 192018, Control_c, 0, 64, 44
1, 192033, Control_c, 0, 64, 43
1, 192048, Control_c, 0, 64, 41
1, 192063, Control_c, 0, 64, 39
1, 192077, Control_c, 0, 64, 36
1, 192092, Control_c, 0, 64, 31
1, 192107, Control_c, 0, 64, 21
1, 192111, Note_off_c, 0, 79, 31
1, 192121, Control_c, 0, 64, 0
1, 192156, Note_on_c, 0, 75, 53
1, 192187, Note_off_c, 0, 77, 54
1, 192196, Control_c, 0, 64, 11
1, 192211, Control_c, 0, 64, 26
1, 192211, Control_c, 0, 67, 78
1, 192226, Control_c, 0, 64, 38
1, 192241, Control_c, 0, 64, 48
1, 192256, Note_off_c, 0, 75, 64
1, 192256, Control_c, 0, 64, 52
1, 192256, Control_c, 0, 67, 78
1, 192266, Note_on_c, 0, 74, 55
1, 192270, Control_c, 0, 64, 55
1, 192285, Control_c, 0, 64, 57
1, 192300, Control_c, 0, 64, 58
1, 192300, Control_c, 0, 67, 77
1, 192314, Control_c, 0, 64, 58
1, 192329, Control_c, 0, 64, 59
1, 192344, Control_c, 0, 64, 59
1, 192354, Note_off_c, 0, 74, 60
1, 192359, Control_c, 0, 64, 60
1, 192359, Control_c, 0, 67, 77
1, 192366, Note_on_c, 0, 72, 56
1, 192396, Control_c, 0, 64, 59
1, 192440, Control_c, 0, 67, 77
1, 192449, Note_off_c, 0, 72, 63
1, 192470, Control_c, 0, 64, 59
1, 192485, Control_c, 0, 64, 58
1, 192500, Control_c, 0, 64, 58
1, 192514, Control_c, 0, 64, 57
1, 192516, Note_on_c, 0, 72, 52
1, 192529, Control_c, 0, 64, 56
1, 192529, Control_c, 0, 67, 78
1, 192544, Control_c, 0, 64, 55
1, 192559, Control_c, 0, 64, 54
1, 192574, Control_c, 0, 64, 53
1, 192588, Control_c, 0, 64, 52
1, 192604, Control_c, 0, 64, 51
1, 192619, Control_c, 0, 64, 49
1, 192634, Control_c, 0, 64, 47
1, 192648, Control_c, 0, 64, 45
1, 192678, Control_c, 0, 67, 77
1, 192693, Control_c, 0, 64, 45
1, 192722, Control_c, 0, 64, 44
1, 192737, Control_c, 0, 64, 43
1, 192752, Control_c, 0, 64, 43
1, 192760, Note_on_c, 0, 55, 36
1, 192767, Control_c, 0, 64, 42
1, 192782, Control_c, 0, 64, 41
1, 192796, Control_c, 0, 64, 39
1, 192812, Control_c, 0, 64, 36
1, 192827, Control_c, 0, 64, 32
1, 192842, Control_c, 0, 64, 28
1, 192842, Control_c, 0, 67, 77
1, 192857, Control_c, 0, 64, 26
1, 192871, Control_c, 0, 64, 24
1, 192880, Note_off_c, 0, 56, 34
1, 192886, Control_c, 0, 64, 23
1, 192901, Control_c, 0, 64, 22
1, 192916, Note_off_c, 0, 65, 46
1, 192916, Control_c, 0, 64, 21
1, 192931, Control_c, 0, 64, 19
1, 192945, Control_c, 0, 64, 17
1, 192960, Control_c, 0, 64, 15
1, 192971, Poly_aftertouch_c, 0, 62, 0
1, 192975, Control_c, 0, 64, 13
1, 192990, Control_c, 0, 64, 11
1, 193005, Control_c, 0, 64, 9
1, 193019, Control_c, 0, 64, 0
1, 193031, Note_on_c, 0, 65, 45
1, 193063, Control_c, 0, 67, 76
1, 193108, Control_c, 0, 67, 76
1, 193123, Control_c, 0, 67, 75
1, 193160, Control_c, 0, 67, 75
1, 193175, Control_c, 0, 67, 74
1, 193190, Control_c, 0, 67, 74
1, 193264, Note_on_c, 0, 71, 45
1, 193264, Control_c, 0, 67, 73
1, 193310, Note_off_c, 0, 72, 58
1, 193338, Control_c, 0, 67, 73
1, 193367, Control_c, 0, 67, 72
1, 193382, Control_c, 0, 67, 72
1, 193397, Control_c, 0, 67, 71
1, 193412, Control_c, 0, 67, 67
1, 193426, Control_c, 0, 67, 63
1, 193441, Control_c, 0, 67, 59
1, 193456, Control_c, 0, 67, 55
1, 193470, Control_c, 0, 67, 52
1, 193485, Control_c, 0, 67, 48
1, 193500, Control_c, 0, 67, 42
1, 193515, Control_c, 0, 67, 36
1, 193530, Control_c, 0, 67, 31
1, 193544, Control_c, 0, 67, 28
1, 193559, Control_c, 0, 67, 27
1, 193574, Control_c, 0, 67, 26
1, 193589, Control_c, 0, 67, 23
1, 193604, Control_c, 0, 67, 19
1, 193620, Control_c, 0, 67, 14
1, 193633, Note_on_c, 0, 80, 53
1, 193634, Control_c, 0, 67, 8
1, 193649, Control_c, 0, 64, 14
1, 193649, Control_c, 0, 67, 0
1, 193664, Control_c, 0, 64, 26
1, 193679, Control_c, 0, 64, 36
1, 193693, Control_c, 0, 64, 46
1, 193708, Control_c, 0, 64, 52
1, 193723, Control_c, 0, 64, 56
1, 193738, Control_c, 0, 64, 60
1, 193753, Control_c, 0, 64, 64
1, 193767, Control_c, 0, 64, 67
1, 193782, Control_c, 0, 64, 71
1, 193797, Control_c, 0, 64, 75
1, 193812, Control_c, 0, 64, 77
1, 193827, Control_c, 0, 64, 79
1, 193841, Control_c, 0, 64, 81
1, 193856, Control_c, 0, 64, 84
1, 193857, Note_off_c, 0, 55, 41
1, 193871, Control_c, 0, 64, 86
1, 193893, Control_c, 0, 64, 87
1, 193908, Control_c, 0, 64, 88
1, 193923, Control_c, 0, 64, 89
1, 193938, Control_c, 0, 64, 90
1, 193953, Control_c, 0, 64, 90
1, 193967, Control_c, 0, 64, 91
1, 193982, Control_c, 0, 64, 91
1, 193997, Control_c, 0, 64, 92
1, 194012, Control_c, 0, 67, 8
1, 194027, Control_c, 0, 64, 92
1, 194027, Control_c, 0, 67, 8
1, 194101, Control_c, 0, 67, 8
1, 194108, Note_on_c, 0, 55, 29
1, 194115, Control_c, 0, 67, 0
1, 194230, Note_off_c, 0, 65, 40
1, 194269, Note_off_c, 0, 71, 34
1, 194427, Note_on_c, 0, 65, 28
1, 194657, Control_c, 0, 64, 92
1, 194745, Control_c, 0, 64, 91
1, 194775, Control_c, 0, 64, 91
1, 194782, Note_on_c, 0, 71, 30
1, 194870, Note_off_c, 0, 80, 61
1, 194879, Control_c, 0, 64, 90
1, 195145, Control_c, 0, 64, 90
1, 195353, Control_c, 0, 64, 89
1, 195509, Control_c, 0, 64, 89
1, 195598, Control_c, 0, 64, 88
1, 195642, Control_c, 0, 64, 88
1, 195672, Control_c, 0, 64, 87
1, 195687, Control_c, 0, 64, 87
1, 195716, Control_c, 0, 64, 86
1, 195726, Note_on_c, 0, 80, 44
1, 195731, Control_c, 0, 64, 86
1, 195746, Control_c, 0, 64, 85
1, 195761, Control_c, 0, 64, 82
1, 195776, Control_c, 0, 64, 78
1, 195791, Control_c, 0, 64, 73
1, 195806, Control_c, 0, 64, 68
1, 195820, Control_c, 0, 64, 64
1, 195835, Control_c, 0, 64, 59
1, 195850, Control_c, 0, 64, 54
1, 195864, Control_c, 0, 64, 49
1, 195879, Control_c, 0, 64, 45
1, 195894, Control_c, 0, 64, 42
1, 195909, Control_c, 0, 64, 39
1, 195924, Control_c, 0, 64, 34
1, 195938, Control_c, 0, 64, 28
1, 195953, Control_c, 0, 64, 21
1, 195968, Control_c, 0, 64, 0
1, 196948, Control_c, 0, 64, 21
1, 196963, Control_c, 0, 64, 35
1, 196978, Control_c, 0, 64, 46
1, 196992, Control_c, 0, 64, 51
1, 197007, Control_c, 0, 64, 55
1, 197022, Control_c, 0, 64, 58
1, 197037, Control_c, 0, 64, 61
1, 197052, Control_c, 0, 64, 63
1, 197067, Control_c, 0, 64, 64
1, 197082, Control_c, 0, 64, 66
1, 197097, Control_c, 0, 64, 69
1, 197111, Control_c, 0, 64, 72
1, 197126, Control_c, 0, 64, 75
1, 197141, Control_c, 0, 64, 77
1, 197156, Control_c, 0, 64, 80
1, 197171, Control_c, 0, 64, 83
1, 197185, Control_c, 0, 64, 86
1, 197200, Control_c, 0, 64, 88
1, 197215, Control_c, 0, 64, 91
1, 197229, Control_c, 0, 64, 93
1, 197244, Control_c, 0, 64, 96
1, 197259, Control_c, 0, 64, 98
1, 197274, Control_c, 0, 64, 99
1, 197289, Control_c, 0, 64, 100
1, 197303, Control_c, 0, 64, 101
1, 197318, Control_c, 0, 64, 101
1, 197329, Note_off_c, 0, 71, 31
1, 197333, Control_c, 0, 64, 102
1, 197393, Note_off_c, 0, 65, 40
1, 197434, Note_off_c, 0, 55, 38
1, 197505, Note_off_c, 0, 80, 34
1, 197541, Control_c, 0, 64, 101
1, 197571, Control_c, 0, 64, 100
1, 197585, Control_c, 0, 64, 99
1, 197600, Control_c, 0, 64, 97
1, 197615, Control_c, 0, 64, 96
1, 197638, Control_c, 0, 64, 94
1, 197653, Control_c, 0, 64, 92
1, 197668, Control_c, 0, 64, 90
1, 197683, Control_c, 0, 64, 89
1, 197697, Control_c, 0, 64, 89
1, 197712, Control_c, 0, 64, 87
1, 197727, Control_c, 0, 64, 83
1, 197741, Control_c, 0, 64, 76
1, 197756, Control_c, 0, 64, 69
1, 197771, Control_c, 0, 64, 61
1, 197786, Control_c, 0, 64, 50
1, 197801, Control_c, 0, 64, 41
1, 197815, Control_c, 0, 64, 37
1, 197830, Control_c, 0, 64, 35
1, 197845, Control_c, 0, 64, 35
1, 197859, Control_c, 0, 64, 34
1, 197889, Control_c, 0, 64, 34
1, 197904, Control_c, 0, 64, 33
1, 197919, Control_c, 0, 64, 33
1, 197933, Control_c, 0, 64, 32
1, 198080, Note_on_c, 0, 60, 59
1, 198089, Note_on_c, 0, 51, 53
1, 198089, Note_on_c, 0, 55, 53
1, 198286, Note_on_c, 0, 84, 81
1, 198352, Note_on_c, 0, 79, 82
1, 198387, Note_off_c, 0, 79, 68
1, 198390, Note_off_c, 0, 84, 66
1, 198544, Note_on_c, 0, 79, 85
1, 198578, Control_c, 0, 64, 32
1, 198608, Control_c, 0, 64, 31
1, 198622, Note_on_c, 0, 75, 78
1, 198646, Note_off_c, 0, 79, 65
1, 198647, Note_off_c, 0, 75, 69
1, 198668, Control_c, 0, 64, 31
1, 198682, Control_c, 0, 64, 30
1, 198725, Note_off_c, 0, 60, 62
1, 198736, Note_off_c, 0, 55, 62
1, 198742, Note_off_c, 0, 51, 63
1, 198786, Control_c, 0, 64, 30
1, 198806, Note_on_c, 0, 75, 81
1, 198873, Note_on_c, 0, 72, 75
1, 199008, Control_c, 0, 64, 29
1, 199066, Note_on_c, 0, 60, 76
1, 199067, Note_off_c, 0, 72, 63
1, 199070, Note_on_c, 0, 56, 67
1, 199073, Note_on_c, 0, 53, 67
1, 199075, Note_off_c, 0, 75, 66
1, 199097, Control_c, 0, 64, 29
1, 199316, Note_on_c, 0, 84, 73
1, 199325, Note_on_c, 0, 86, 59
1, 199350, Note_off_c, 0, 86, 57
1, 199369, Note_on_c, 0, 80, 80
1, 199399, Note_off_c, 0, 84, 66
1, 199422, Note_off_c, 0, 80, 63
1, 199541, Note_on_c, 0, 80, 83
1, 199597, Note_off_c, 0, 56, 63
1, 199607, Note_on_c, 0, 77, 79
1, 199618, Note_off_c, 0, 60, 62
1, 199658, Note_off_c, 0, 77, 65
1, 199658, Note_off_c, 0, 53, 58
1, 199661, Note_off_c, 0, 80, 63
1, 199785, Note_on_c, 0, 77, 80
1, 199816, Control_c, 0, 64, 29
1, 199840, Note_on_c, 0, 74, 66
1, 199896, Note_off_c, 0, 77, 65
1, 199909, Note_off_c, 0, 74, 66
1, 200044, Note_on_c, 0, 72, 78
1, 200308, Note_on_c, 0, 63, 54
1, 200311, Note_on_c, 0, 55, 43
1, 200343, Control_c, 0, 64, 30
1, 200345, Note_off_c, 0, 63, 66
1, 200346, Note_off_c, 0, 55, 63
1, 200417, Control_c, 0, 64, 30
1, 200462, Control_c, 0, 64, 31
1, 200575, Note_on_c, 0, 55, 42
1, 200581, Note_on_c, 0, 63, 52
1, 200653, Note_off_c, 0, 55, 57
1, 200654, Note_off_c, 0, 63, 62
1, 200698, Note_on_c, 0, 71, 62
1, 200733, Note_off_c, 0, 72, 60
1, 200840, Note_on_c, 0, 77, 64
1, 200856, Note_on_c, 0, 62, 43
1, 200867, Note_on_c, 0, 55, 9
1, 200894, Note_off_c, 0, 71, 59
1, 200918, Note_on_c, 0, 74, 71
1, 200930, Control_c, 0, 64, 30
1, 200937, Note_off_c, 0, 62, 64
1, 200959, Note_off_c, 0, 55, 59
1, 200980, Note_off_c, 0, 77, 61
1, 200995, Note_on_c, 0, 71, 82
1, 201012, Note_off_c, 0, 74, 65
1, 201019, Control_c, 0, 64, 31
1, 201100, Note_on_c, 0, 79, 82
1, 201122, Control_c, 0, 64, 31
1, 201285, Control_c, 0, 64, 32
1, 201300, Note_off_c, 0, 71, 60
1, 201350, Note_on_c, 0, 63, 57
1, 201354, Note_on_c, 0, 55, 46
1, 201411, Control_c, 0, 64, 32
1, 201420, Note_off_c, 0, 63, 65
1, 201422, Note_off_c, 0, 55, 63
1, 201617, Note_on_c, 0, 63, 58
1, 201648, Note_on_c, 0, 55, 23
1, 201676, Note_off_c, 0, 63, 63
1, 201693, Note_off_c, 0, 55, 49
1, 201693, Note_on_c, 0, 75, 72
1, 201770, Note_on_c, 0, 72, 67
1, 201770, Note_off_c, 0, 75, 65
1, 201851, Note_on_c, 0, 77, 75
1, 201861, Note_on_c, 0, 55, 26
1, 201868, Note_on_c, 0, 62, 52
1, 201869, Note_off_c, 0, 72, 56
1, 201911, Note_off_c, 0, 62, 66
1, 201920, Note_off_c, 0, 55, 63
1, 201927, Note_off_c, 0, 79, 60
1, 201932, Note_on_c, 0, 74, 69
1, 201973, Note_off_c, 0, 77, 64
1, 201989, Control_c, 0, 64, 32
1, 202000, Note_on_c, 0, 71, 67
1, 202007, Note_off_c, 0, 74, 65
1, 202137, Note_on_c, 0, 79, 58
1, 202175, Note_off_c, 0, 71, 52
1, 202248, Control_c, 0, 64, 31
1, 202380, Note_on_c, 0, 63, 39
1, 202384, Note_on_c, 0, 55, 37
1, 202442, Note_off_c, 0, 63, 63
1, 202447, Note_off_c, 0, 55, 60
1, 202643, Note_on_c, 0, 55, 37
1, 202644, Note_on_c, 0, 63, 40
1, 202695, Note_off_c, 0, 63, 60
1, 202710, Note_off_c, 0, 55, 61
1, 202725, Note_on_c, 0, 75, 60
1, 202784, Note_off_c, 0, 75, 58
1, 202810, Note_on_c, 0, 72, 56
1, 202883, Note_on_c, 0, 55, 36
1, 202886, Note_on_c, 0, 62, 47
1, 202893, Control_c, 0, 64, 32
1, 202894, Note_on_c, 0, 77, 66
1, 202901, Note_off_c, 0, 72, 59
1, 202908, Control_c, 0, 64, 32
1, 202922, Control_c, 0, 64, 33
1, 202937, Control_c, 0, 64, 33
1, 202954, Note_off_c, 0, 62, 64
1, 202961, Note_off_c, 0, 79, 29
1, 202962, Note_off_c, 0, 55, 62
1, 202967, Control_c, 0, 64, 34
1, 202974, Note_on_c, 0, 74, 71
1, 202982, Control_c, 0, 64, 34
1, 203025, Note_off_c, 0, 77, 62
1, 203051, Note_on_c, 0, 71, 79
1, 203069, Note_off_c, 0, 74, 65
1, 203140, Note_on_c, 0, 79, 87
1, 203282, Note_off_c, 0, 71, 57
1, 203309, Control_c, 0, 64, 35
1, 203368, Control_c, 0, 64, 35
1, 203392, Note_on_c, 0, 63, 65
1, 203398, Note_on_c, 0, 55, 51
1, 203423, Note_off_c, 0, 63, 67
1, 203429, Note_off_c, 0, 55, 65
1, 203655, Note_on_c, 0, 63, 60
1, 203658, Note_on_c, 0, 55, 52
1, 203704, Note_off_c, 0, 63, 63
1, 203709, Note_off_c, 0, 55, 61
1, 203747, Note_on_c, 0, 75, 65
1, 203773, Note_off_c, 0, 79, 61
1, 203820, Note_on_c, 0, 72, 69
1, 203820, Control_c, 0, 64, 36
1, 203827, Note_off_c, 0, 75, 63
1, 203850, Control_c, 0, 64, 36
1, 203889, Note_on_c, 0, 80, 78
1, 203894, Control_c, 0, 64, 37
1, 203902, Note_on_c, 0, 65, 61
1, 203906, Note_on_c, 0, 55, 54
1, 203909, Control_c, 0, 64, 37
1, 203918, Note_off_c, 0, 72, 56
1, 203939, Control_c, 0, 64, 38
1, 203965, Note_off_c, 0, 65, 59
1, 203968, Control_c, 0, 64, 38
1, 203974, Note_on_c, 0, 77, 75
1, 204006, Note_off_c, 0, 55, 56
1, 204014, Control_c, 0, 64, 39
1, 204018, Note_off_c, 0, 80, 63
1, 204039, Note_on_c, 0, 74, 79
1, 204055, Note_off_c, 0, 77, 65
1, 204120, Note_on_c, 0, 83, 88
1, 204139, Note_on_c, 0, 55, 60
1, 204143, Note_on_c, 0, 62, 64
1, 204147, Control_c, 0, 64, 39
1, 204149, Note_off_c, 0, 74, 63
1, 204162, Control_c, 0, 64, 40
1, 204188, Note_off_c, 0, 55, 56
1, 204191, Note_off_c, 0, 62, 61
1, 204191, Control_c, 0, 64, 40
1, 204206, Note_on_c, 0, 77, 78
1, 204206, Control_c, 0, 64, 41
1, 204221, Control_c, 0, 64, 41
1, 204263, Note_off_c, 0, 83, 65
1, 204273, Note_on_c, 0, 74, 74
1, 204285, Note_off_c, 0, 77, 65
1, 204295, Control_c, 0, 64, 42
1, 204357, Note_on_c, 0, 84, 91
1, 204379, Note_off_c, 0, 74, 60
1, 204385, Note_on_c, 0, 63, 69
1, 204404, Note_on_c, 0, 55, 41
1, 204406, Control_c, 0, 64, 42
1, 204447, Note_on_c, 0, 79, 76
1, 204463, Note_off_c, 0, 63, 60
1, 204480, Control_c, 0, 64, 43
1, 204498, Note_off_c, 0, 84, 64
1, 204522, Note_on_c, 0, 75, 77
1, 204562, Note_off_c, 0, 79, 56
1, 204575, Note_off_c, 0, 75, 66
1, 204595, Note_off_c, 0, 55, 0
1, 204599, Note_on_c, 0, 86, 88
1, 204609, Note_on_c, 0, 55, 42
1, 204618, Note_on_c, 0, 59, 63
1, 204626, Control_c, 0, 64, 42
1, 204681, Note_on_c, 0, 83, 83
1, 204683, Note_off_c, 0, 55, 61
1, 204709, Note_off_c, 0, 59, 64
1, 204743, Note_off_c, 0, 86, 63
1, 204751, Note_on_c, 0, 79, 75
1, 204758, Note_off_c, 0, 83, 67
1, 204841, Note_on_c, 0, 87, 84
1, 204855, Note_on_c, 0, 60, 60
1, 204859, Note_on_c, 0, 55, 51
1, 204868, Note_off_c, 0, 79, 63
1, 204910, Note_off_c, 0, 55, 56
1, 204918, Note_on_c, 0, 84, 82
1, 204919, Note_off_c, 0, 60, 56
1, 204939, Control_c, 0, 64, 42
1, 204969, Control_c, 0, 64, 41
1, 204981, Note_off_c, 0, 87, 64
1, 204989, Note_on_c, 0, 79, 81
1, 204998, Control_c, 0, 64, 41
1, 205013, Control_c, 0, 64, 40
1, 205024, Note_off_c, 0, 84, 65
1, 205028, Control_c, 0, 64, 39
1, 205042, Control_c, 0, 64, 38
1, 205057, Control_c, 0, 64, 37
1, 205072, Control_c, 0, 64, 36
1, 205102, Control_c, 0, 64, 36
1, 205124, Control_c, 0, 64, 35
1, 205139, Control_c, 0, 64, 35
1, 205143, Note_on_c, 0, 89, 82
1, 205169, Control_c, 0, 64, 34
1, 205184, Control_c, 0, 64, 34
1, 205186, Note_on_c, 0, 62, 40
1, 205190, Note_on_c, 0, 55, 34
1, 205213, Control_c, 0, 64, 33
1, 205281, Note_off_c, 0, 79, 66
1, 205553, Control_c, 0, 64, 33
1, 205568, Control_c, 0, 64, 32
1, 205583, Control_c, 0, 64, 32
1, 205599, Control_c, 0, 64, 31
1, 205688, Control_c, 0, 67, 8
1, 205702, Control_c, 0, 67, 9
1, 205717, Control_c, 0, 67, 10
1, 205732, Control_c, 0, 64, 31
1, 205732, Control_c, 0, 67, 11
1, 205747, Control_c, 0, 67, 12
1, 205761, Note_off_c, 0, 55, 55
1, 205762, Control_c, 0, 64, 30
1, 205762, Control_c, 0, 67, 13
1, 205777, Control_c, 0, 67, 14
1, 205785, Note_off_c, 0, 62, 62
1, 205800, Note_off_c, 0, 89, 63
1, 205807, Control_c, 0, 67, 15
1, 205821, Control_c, 0, 67, 17
1, 205836, Control_c, 0, 67, 18
1, 205902, Control_c, 0, 67, 18
1, 205917, Control_c, 0, 64, 30
1, 205917, Control_c, 0, 67, 19
1, 205947, Control_c, 0, 67, 19
1, 205962, Control_c, 0, 67, 20
1, 205977, Control_c, 0, 67, 23
1, 205992, Control_c, 0, 67, 26
1, 206007, Control_c, 0, 67, 29
1, 206021, Control_c, 0, 67, 30
1, 206066, Control_c, 0, 67, 30
1, 206110, Control_c, 0, 64, 29
1, 206140, Control_c, 0, 64, 29
1, 206154, Control_c, 0, 64, 28
1, 206184, Control_c, 0, 67, 30
1, 206214, Control_c, 0, 67, 29
1, 206228, Control_c, 0, 67, 29
1, 206243, Control_c, 0, 67, 28
1, 206258, Control_c, 0, 67, 28
1, 206272, Control_c, 0, 67, 27
1, 206287, Control_c, 0, 67, 26
1, 206302, Control_c, 0, 67, 26
1, 206317, Control_c, 0, 67, 25
1, 206332, Control_c, 0, 67, 25
1, 206337, Note_on_c, 0, 60, 38
1, 206346, Control_c, 0, 67, 24
1, 206383, Note_off_c, 0, 60, 54
1, 206396, Note_on_c, 0, 63, 43
1, 206448, Note_off_c, 0, 63, 60
1, 206489, Note_on_c, 0, 67, 31
1, 206529, Note_off_c, 0, 67, 49
1, 206552, Note_on_c, 0, 60, 41
1, 206607, Note_off_c, 0, 60, 57
1, 206658, Note_on_c, 0, 63, 25
1, 206698, Note_off_c, 0, 63, 51
1, 206713, Note_on_c, 0, 67, 33
1, 206782, Note_off_c, 0, 67, 41
1, 206802, Note_on_c, 0, 60, 34
1, 206848, Note_off_c, 0, 60, 56
1, 206868, Note_on_c, 0, 63, 29
1, 206930, Note_off_c, 0, 63, 43
1, 206934, Note_on_c, 0, 67, 30
1, 207013, Note_off_c, 0, 67, 36
1, 207017, Note_on_c, 0, 77, 56
1, 207047, Note_on_c, 0, 60, 28
1, 207067, Control_c, 0, 67, 24
1, 207073, Note_on_c, 0, 75, 58
1, 207089, Note_off_c, 0, 60, 49
1, 207101, Note_off_c, 0, 77, 60
1, 207116, Note_on_c, 0, 63, 37
1, 207126, Note_on_c, 0, 74, 54
1, 207154, Note_off_c, 0, 63, 55
1, 207172, Note_off_c, 0, 75, 59
1, 207175, Note_on_c, 0, 67, 38
1, 207177, Note_on_c, 0, 72, 55
1, 207197, Note_off_c, 0, 74, 57
1, 207239, Note_off_c, 0, 72, 59
1, 207254, Note_on_c, 0, 71, 59
1, 207270, Note_on_c, 0, 62, 48
1, 207288, Note_off_c, 0, 67, 34
1, 207292, Note_off_c, 0, 71, 62
1, 207342, Note_off_c, 0, 62, 57
1, 207360, Note_on_c, 0, 65, 33
1, 207428, Note_off_c, 0, 65, 58
1, 207439, Note_on_c, 0, 67, 40
1, 207505, Control_c, 0, 67, 24
1, 207525, Note_on_c, 0, 62, 44
1, 207534, Control_c, 0, 67, 25
1, 207549, Control_c, 0, 67, 25
1, 207560, Note_off_c, 0, 67, 35
1, 207564, Control_c, 0, 67, 26
1, 207579, Control_c, 0, 67, 27
1, 207593, Control_c, 0, 67, 27
1, 207613, Note_on_c, 0, 65, 31
1, 207616, Note_off_c, 0, 62, 63
1, 207623, Control_c, 0, 67, 28
1, 207665, Note_off_c, 0, 65, 61
1, 207667, Control_c, 0, 67, 28
1, 207680, Note_on_c, 0, 67, 36
1, 207750, Note_on_c, 0, 59, 53
1, 207786, Control_c, 0, 67, 28
1, 207794, Note_off_c, 0, 67, 37
1, 207831, Control_c, 0, 67, 27
1, 207836, Note_off_c, 0, 59, 55
1, 207840, Note_on_c, 0, 62, 48
1, 207905, Control_c, 0, 67, 27
1, 207906, Note_off_c, 0, 62, 59
1, 207911, Note_on_c, 0, 67, 43
1, 207979, Control_c, 0, 67, 26
1, 207992, Note_on_c, 0, 82, 64
1, 207995, Control_c, 0, 64, 29
1, 208005, Note_on_c, 0, 59, 37
1, 208017, Note_off_c, 0, 67, 34
1, 208024, Control_c, 0, 67, 26
1, 208044, Note_on_c, 0, 80, 59
1, 208054, Control_c, 0, 64, 29
1, 208089, Note_on_c, 0, 62, 37
1, 208090, Note_off_c, 0, 59, 58
1, 208099, Note_off_c, 0, 82, 58
1, 208118, Note_on_c, 0, 79, 56
1, 208120, Control_c, 0, 67, 25
1, 208138, Note_off_c, 0, 62, 58
1, 208152, Note_on_c, 0, 67, 36
1, 208160, Note_off_c, 0, 80, 55
1, 208168, Note_on_c, 0, 77, 53
1, 208200, Note_off_c, 0, 79, 59
1, 208237, Note_on_c, 0, 75, 54
1, 208248, Note_off_c, 0, 77, 57
1, 208253, Note_off_c, 0, 67, 42
1, 208256, Note_on_c, 0, 60, 45
1, 208305, Note_off_c, 0, 75, 64
1, 208311, Note_off_c, 0, 60, 55
1, 208334, Note_on_c, 0, 63, 42
1, 208399, Note_off_c, 0, 63, 60
1, 208412, Note_on_c, 0, 67, 36
1, 208492, Note_on_c, 0, 60, 45
1, 208510, Note_off_c, 0, 67, 40
1, 208561, Note_off_c, 0, 60, 55
1, 208565, Note_on_c, 0, 63, 47
1, 208635, Note_on_c, 0, 67, 46
1, 208640, Note_off_c, 0, 63, 59
1, 208682, Control_c, 0, 67, 25
1, 208721, Note_on_c, 0, 60, 55
1, 208731, Note_off_c, 0, 67, 50
1, 208788, Note_off_c, 0, 60, 56
1, 208794, Note_on_c, 0, 63, 55
1, 208851, Note_off_c, 0, 63, 58
1, 208869, Note_on_c, 0, 67, 57
1, 208959, Note_on_c, 0, 77, 67
1, 208961, Note_on_c, 0, 60, 48
1, 208972, Control_c, 0, 67, 24
1, 209006, Note_off_c, 0, 67, 33
1, 209020, Note_on_c, 0, 75, 67
1, 209035, Note_off_c, 0, 60, 55
1, 209054, Note_on_c, 0, 63, 44
1, 209069, Note_off_c, 0, 77, 63
1, 209075, Note_on_c, 0, 74, 69
1, 209096, Note_off_c, 0, 63, 62
1, 209105, Control_c, 0, 67, 24
1, 209108, Note_on_c, 0, 67, 53
1, 209134, Note_on_c, 0, 72, 66
1, 209144, Note_off_c, 0, 75, 56
1, 209169, Note_off_c, 0, 74, 62
1, 209194, Note_on_c, 0, 71, 68
1, 209204, Note_on_c, 0, 62, 58
1, 209209, Control_c, 0, 64, 30
1, 209211, Note_off_c, 0, 67, 54
1, 209225, Note_off_c, 0, 72, 60
1, 209252, Note_off_c, 0, 71, 63
1, 209285, Note_on_c, 0, 65, 51
1, 209300, Note_off_c, 0, 62, 63
1, 209349, Note_off_c, 0, 65, 58
1, 209353, Note_on_c, 0, 67, 53
1, 209438, Note_on_c, 0, 62, 54
1, 209447, Note_off_c, 0, 67, 51
1, 209525, Note_on_c, 0, 65, 47
1, 209536, Note_off_c, 0, 62, 63
1, 209590, Note_off_c, 0, 65, 60
1, 209595, Note_on_c, 0, 67, 49
1, 209685, Note_on_c, 0, 59, 54
1, 209721, Control_c, 0, 64, 30
1, 209729, Note_off_c, 0, 67, 35
1, 209736, Control_c, 0, 64, 31
1, 209756, Note_off_c, 0, 59, 54
1, 209765, Note_on_c, 0, 62, 52
1, 209765, Control_c, 0, 64, 31
1, 209822, Note_off_c, 0, 62, 60
1, 209825, Control_c, 0, 64, 32
1, 209840, Note_on_c, 0, 67, 50
1, 209914, Note_on_c, 0, 82, 63
1, 209925, Note_on_c, 0, 59, 45
1, 209929, Note_off_c, 0, 67, 48
1, 209958, Control_c, 0, 64, 31
1, 209959, Note_on_c, 0, 80, 61
1, 210002, Control_c, 0, 64, 31
1, 210013, Note_on_c, 0, 62, 36
1, 210021, Note_off_c, 0, 82, 57
1, 210027, Note_off_c, 0, 59, 58
1, 210029, Note_on_c, 0, 79, 63
1, 210067, Note_off_c, 0, 62, 51
1, 210068, Note_on_c, 0, 67, 48
1, 210084, Note_on_c, 0, 77, 55
1, 210085, Note_off_c, 0, 80, 50
1, 210091, Control_c, 0, 67, 23
1, 210106, Control_c, 0, 64, 30
1, 210133, Note_off_c, 0, 79, 55
1, 210149, Note_on_c, 0, 75, 64
1, 210170, Note_off_c, 0, 77, 63
1, 210172, Note_off_c, 0, 67, 36
1, 210174, Note_on_c, 0, 60, 51
1, 210195, Note_off_c, 0, 75, 63
1, 210225, Note_off_c, 0, 60, 59
1, 210241, Note_on_c, 0, 63, 51
1, 210300, Note_off_c, 0, 63, 58
1, 210316, Note_on_c, 0, 67, 38
1, 210343, Control_c, 0, 64, 30
1, 210380, Control_c, 0, 64, 29
1, 210401, Note_on_c, 0, 77, 66
1, 210410, Control_c, 0, 64, 29
1, 210425, Control_c, 0, 64, 28
1, 210427, Note_on_c, 0, 60, 44
1, 210448, Note_off_c, 0, 67, 43
1, 210454, Note_on_c, 0, 75, 67
1, 210455, Control_c, 0, 64, 28
1, 210455, Control_c, 0, 67, 23
1, 210475, Note_off_c, 0, 60, 57
1, 210485, Note_on_c, 0, 63, 51
1, 210508, Note_off_c, 0, 77, 63
1, 210521, Note_on_c, 0, 74, 61
1, 210555, Note_on_c, 0, 67, 54
1, 210557, Note_off_c, 0, 63, 60
1, 210576, Note_on_c, 0, 72, 71
1, 210599, Note_off_c, 0, 75, 54
1, 210600, Note_off_c, 0, 74, 63
1, 210637, Note_off_c, 0, 72, 63
1, 210647, Note_on_c, 0, 71, 72
1, 210662, Note_on_c, 0, 62, 58
1, 210663, Control_c, 0, 64, 28
1, 210682, Note_off_c, 0, 71, 65
1, 210686, Note_off_c, 0, 67, 46
1, 210693, Control_c, 0, 64, 29
1, 210707, Control_c, 0, 64, 29
1, 210734, Note_on_c, 0, 65, 56
1, 210737, Control_c, 0, 64, 30
1, 210743, Note_off_c, 0, 62, 65
1, 210767, Control_c, 0, 64, 30
1, 210782, Note_off_c, 0, 65, 62
1, 210797, Control_c, 0, 64, 31
1, 210813, Note_on_c, 0, 67, 50
1, 210841, Control_c, 0, 64, 31
1, 210875, Note_off_c, 0, 67, 51
1, 210886, Note_on_c, 0, 59, 60
1, 210892, Note_on_c, 0, 82, 66
1, 210945, Note_on_c, 0, 80, 65
1, 210988, Note_on_c, 0, 62, 47
1, 210990, Note_off_c, 0, 59, 62
1, 211004, Note_on_c, 0, 79, 72
1, 211016, Note_off_c, 0, 82, 57
1, 211033, Note_on_c, 0, 67, 53
1, 211033, Note_off_c, 0, 62, 61
1, 211062, Note_on_c, 0, 77, 69
1, 211092, Control_c, 0, 64, 32
1, 211112, Note_off_c, 0, 80, 47
1, 211129, Note_off_c, 0, 79, 58
1, 211130, Control_c, 0, 64, 32
1, 211133, Note_off_c, 0, 67, 56
1, 211136, Note_on_c, 0, 75, 79
1, 211137, Note_on_c, 0, 60, 62
1, 211160, Note_off_c, 0, 77, 64
1, 211174, Control_c, 0, 64, 33
1, 211189, Note_off_c, 0, 75, 65
1, 211212, Note_off_c, 0, 60, 59
1, 211218, Note_on_c, 0, 63, 61
1, 211220, Control_c, 0, 64, 33
1, 211279, Note_on_c, 0, 67, 55
1, 211282, Note_off_c, 0, 63, 57
1, 211376, Note_on_c, 0, 60, 58
1, 211384, Note_on_c, 0, 77, 75
1, 211393, Note_off_c, 0, 67, 52
1, 211434, Note_on_c, 0, 75, 71
1, 211459, Note_on_c, 0, 63, 59
1, 211461, Note_off_c, 0, 60, 61
1, 211498, Note_on_c, 0, 74, 77
1, 211500, Note_off_c, 0, 77, 62
1, 211521, Note_on_c, 0, 67, 63
1, 211530, Note_off_c, 0, 63, 62
1, 211560, Control_c, 0, 64, 34
1, 211561, Note_on_c, 0, 72, 78
1, 211575, Control_c, 0, 67, 22
1, 211590, Control_c, 0, 64, 34
1, 211593, Note_off_c, 0, 74, 64
1, 211596, Note_off_c, 0, 75, 59
1, 211627, Note_on_c, 0, 62, 71
1, 211628, Note_on_c, 0, 71, 77
1, 211629, Note_off_c, 0, 72, 63
1, 211634, Control_c, 0, 64, 35
1, 211636, Note_off_c, 0, 67, 57
1, 211664, Control_c, 0, 64, 35
1, 211680, Note_off_c, 0, 71, 64
1, 211707, Note_on_c, 0, 65, 63
1, 211713, Note_off_c, 0, 62, 64
1, 211723, Control_c, 0, 64, 36
1, 211758, Note_off_c, 0, 65, 59
1, 211769, Note_on_c, 0, 67, 58
1, 211880, Note_on_c, 0, 59, 54
1, 211885, Note_on_c, 0, 82, 68
1, 211893, Control_c, 0, 64, 35
1, 211923, Control_c, 0, 64, 35
1, 211927, Note_off_c, 0, 67, 33
1, 211944, Note_on_c, 0, 80, 65
1, 211953, Control_c, 0, 64, 34
1, 211956, Note_on_c, 0, 62, 51
1, 211989, Note_off_c, 0, 59, 57
1, 211995, Note_off_c, 0, 82, 59
1, 211997, Note_on_c, 0, 79, 71
1, 212019, Note_off_c, 0, 62, 58
1, 212028, Control_c, 0, 67, 23
1, 212031, Note_on_c, 0, 67, 61
1, 212043, Control_c, 0, 67, 23
1, 212057, Control_c, 0, 64, 35
1, 212058, Note_on_c, 0, 77, 71
1, 212072, Control_c, 0, 64, 35
1, 212072, Control_c, 0, 67, 24
1, 212073, Note_off_c, 0, 80, 56
1, 212094, Note_off_c, 0, 79, 65
1, 212102, Control_c, 0, 67, 24
1, 212126, Note_on_c, 0, 75, 80
1, 212131, Note_off_c, 0, 77, 65
1, 212146, Note_on_c, 0, 60, 67
1, 212161, Control_c, 0, 64, 36
1, 212174, Note_off_c, 0, 75, 63
1, 212205, Control_c, 0, 64, 35
1, 212220, Control_c, 0, 67, 24
1, 212234, Control_c, 0, 64, 35
1, 212249, Control_c, 0, 64, 34
1, 212249, Control_c, 0, 67, 23
1, 212264, Control_c, 0, 64, 33
1, 212264, Control_c, 0, 67, 22
1, 212279, Control_c, 0, 67, 22
1, 212294, Control_c, 0, 64, 33
1, 212294, Control_c, 0, 67, 21
1, 212308, Control_c, 0, 64, 32
1, 212308, Control_c, 0, 67, 20
1, 212323, Control_c, 0, 67, 19
1, 212338, Control_c, 0, 64, 32
1, 212338, Control_c, 0, 67, 19
1, 212353, Control_c, 0, 64, 31
1, 212353, Control_c, 0, 67, 18
1, 212368, Control_c, 0, 64, 31
1, 212368, Control_c, 0, 67, 18
1, 212378, Note_on_c, 0, 89, 60
1, 212398, Control_c, 0, 64, 30
1, 212454, Note_on_c, 0, 87, 70
1, 212480, Note_off_c, 0, 67, 60
1, 212488, Note_off_c, 0, 89, 62
1, 212516, Note_on_c, 0, 86, 78
1, 212517, Note_off_c, 0, 60, 62
1, 212551, Note_off_c, 0, 87, 66
1, 212579, Note_off_c, 0, 86, 64
1, 212581, Note_on_c, 0, 84, 78
1, 212656, Note_on_c, 0, 82, 84
1, 212661, Note_off_c, 0, 84, 49
1, 212687, Control_c, 0, 64, 31
1, 212728, Note_on_c, 0, 80, 83
1, 212731, Control_c, 0, 64, 31
1, 212731, Control_c, 0, 67, 18
1, 212761, Control_c, 0, 64, 32
1, 212776, Control_c, 0, 64, 33
1, 212786, Note_off_c, 0, 82, 53
1, 212800, Note_on_c, 0, 79, 80
1, 212806, Control_c, 0, 64, 33
1, 212835, Control_c, 0, 64, 34
1, 212837, Note_off_c, 0, 80, 63
1, 212850, Control_c, 0, 64, 34
1, 212858, Note_on_c, 0, 77, 76
1, 212859, Note_off_c, 0, 79, 65
1, 212864, Control_c, 0, 64, 35
1, 212879, Control_c, 0, 64, 35
1, 212894, Control_c, 0, 64, 36
1, 212909, Control_c, 0, 64, 36
1, 212931, Note_off_c, 0, 77, 62
1, 212938, Note_on_c, 0, 75, 76
1, 212938, Control_c, 0, 64, 37
1, 212953, Control_c, 0, 64, 37
1, 212968, Control_c, 0, 64, 38
1, 212983, Control_c, 0, 67, 19
1, 212998, Control_c, 0, 67, 19
1, 213012, Control_c, 0, 67, 20
1, 213042, Control_c, 0, 67, 20
1, 213055, Note_on_c, 0, 74, 64
1, 213081, Note_on_c, 0, 56, 35
1, 213092, Note_on_c, 0, 53, 37
1, 213098, Note_off_c, 0, 75, 63
1, 213191, Control_c, 0, 64, 37
1, 213205, Control_c, 0, 64, 37
1, 213220, Control_c, 0, 64, 36
1, 213235, Control_c, 0, 64, 36
1, 213242, Note_off_c, 0, 74, 66
1, 213249, Control_c, 0, 64, 35
1, 213294, Control_c, 0, 64, 35
1, 213360, Control_c, 0, 64, 34
1, 213375, Control_c, 0, 64, 34
1, 213405, Control_c, 0, 64, 33
1, 213420, Control_c, 0, 64, 33
1, 213435, Control_c, 0, 64, 32
1, 213450, Control_c, 0, 64, 32
1, 213464, Control_c, 0, 64, 31
1, 213471, Note_on_c, 0, 73, 55
1, 213494, Control_c, 0, 67, 20
1, 213583, Note_off_c, 0, 73, 64
1, 213599, Note_on_c, 0, 74, 66
1, 213644, Control_c, 0, 64, 32
1, 213673, Control_c, 0, 67, 19
1, 213712, Note_off_c, 0, 56, 62
1, 213715, Note_on_c, 0, 75, 74
1, 213731, Note_off_c, 0, 74, 63
1, 213748, Control_c, 0, 67, 19
1, 213793, Note_off_c, 0, 53, 35
1, 213836, Note_off_c, 0, 75, 64
1, 213836, Control_c, 0, 67, 18
1, 213842, Note_on_c, 0, 76, 74
1, 213866, Control_c, 0, 64, 32
1, 213954, Note_on_c, 0, 77, 70
1, 213989, Note_off_c, 0, 76, 59
1, 214082, Note_on_c, 0, 78, 77
1, 214110, Control_c, 0, 67, 19
1, 214125, Control_c, 0, 67, 19
1, 214140, Control_c, 0, 67, 20
1, 214154, Control_c, 0, 67, 20
1, 214168, Note_off_c, 0, 77, 59
1, 214184, Control_c, 0, 67, 21
1, 214211, Note_on_c, 0, 79, 76
1, 214228, Note_off_c, 0, 78, 63
1, 214243, Control_c, 0, 67, 20
1, 214353, Note_on_c, 0, 82, 61
1, 214418, Note_off_c, 0, 79, 55
1, 214472, Note_on_c, 0, 80, 60
1, 214481, Control_c, 0, 64, 33
1, 214581, Note_off_c, 0, 82, 35
1, 214597, Note_on_c, 0, 79, 62
1, 214665, Note_off_c, 0, 80, 50
1, 214693, Note_off_c, 0, 79, 61
1, 214704, Note_on_c, 0, 77, 60
1, 214733, Control_c, 0, 67, 21
1, 214827, Note_off_c, 0, 77, 60
1, 214831, Note_on_c, 0, 75, 64
1, 214836, Control_c, 0, 64, 32
1, 214957, Note_on_c, 0, 74, 58
1, 215036, Note_off_c, 0, 75, 58
1, 215051, Note_off_c, 0, 74, 60
1, 215110, Control_c, 0, 67, 20
1, 215125, Control_c, 0, 64, 32
1, 215143, Note_on_c, 0, 72, 56
1, 215155, Control_c, 0, 64, 31
1, 215402, Note_on_c, 0, 63, 40
1, 215413, Note_on_c, 0, 55, 28
1, 215468, Note_off_c, 0, 63, 61
1, 215476, Note_off_c, 0, 55, 46
1, 215512, Control_c, 0, 67, 20
1, 215686, Note_on_c, 0, 63, 38
1, 215694, Note_on_c, 0, 55, 33
1, 215741, Control_c, 0, 64, 31
1, 215776, Note_off_c, 0, 63, 59
1, 215785, Note_off_c, 0, 55, 50
1, 215793, Note_on_c, 0, 71, 51
1, 215810, Note_off_c, 0, 72, 56
1, 215889, Control_c, 0, 67, 20
1, 215942, Note_on_c, 0, 55, 35
1, 215942, Note_on_c, 0, 77, 44
1, 215953, Note_on_c, 0, 62, 35
1, 215990, Note_off_c, 0, 71, 52
1, 215995, Note_off_c, 0, 62, 58
1, 216019, Note_off_c, 0, 55, 60
1, 216020, Note_on_c, 0, 74, 55
1, 216039, Note_off_c, 0, 77, 50
1, 216111, Note_off_c, 0, 74, 53
1, 216116, Note_on_c, 0, 71, 45
1, 216196, Note_off_c, 0, 71, 54
1, 216216, Note_on_c, 0, 72, 53
1, 216246, Note_on_c, 0, 60, 31
1, 216258, Note_on_c, 0, 48, 29
1, 216329, Note_off_c, 0, 60, 59
1, 216335, Note_off_c, 0, 48, 60
1, 216401, Control_c, 0, 67, 20
1, 216490, Note_on_c, 0, 60, 40
1, 216501, Note_on_c, 0, 48, 39
1, 216556, Note_off_c, 0, 60, 58
1, 216571, Note_off_c, 0, 48, 56
1, 216751, Note_off_c, 0, 72, 55
1, 216752, Note_on_c, 0, 79, 73
1, 216779, Note_on_c, 0, 75, 53
1, 216816, Note_on_c, 0, 60, 15
1, 216822, Note_on_c, 0, 48, 22
1, 216891, Note_off_c, 0, 60, 55
1, 216896, Note_off_c, 0, 48, 56
1, 217043, Note_on_c, 0, 60, 32
1, 217045, Note_on_c, 0, 48, 43
1, 217146, Note_off_c, 0, 60, 47
1, 217146, Note_off_c, 0, 79, 60
1, 217151, Note_off_c, 0, 48, 48
1, 217155, Note_on_c, 0, 80, 48
1, 217170, Note_on_c, 0, 77, 48
1, 217179, Note_off_c, 0, 75, 55
1, 217275, Note_off_c, 0, 77, 56
1, 217297, Note_on_c, 0, 79, 44
1, 217310, Note_on_c, 0, 75, 53
1, 217323, Note_on_c, 0, 48, 30
1, 217326, Note_on_c, 0, 60, 23
1, 217386, Control_c, 0, 64, 30
1, 217424, Note_off_c, 0, 60, 48
1, 217427, Note_off_c, 0, 80, 34
1, 217437, Note_off_c, 0, 48, 54
1, 217531, Note_off_c, 0, 79, 62
1, 217561, Note_off_c, 0, 75, 65
1, 217581, Note_on_c, 0, 60, 38
1, 217587, Note_on_c, 0, 48, 40
1, 217644, Note_off_c, 0, 48, 58
1, 217644, Note_off_c, 0, 60, 56
1, 217825, Note_on_c, 0, 75, 46
1, 217843, Note_on_c, 0, 67, 43
1, 217846, Note_on_c, 0, 60, 39
1, 217862, Note_on_c, 0, 48, 40
1, 217896, Note_off_c, 0, 60, 60
1, 217902, Note_off_c, 0, 67, 62
1, 217902, Note_off_c, 0, 75, 60
1, 217904, Note_off_c, 0, 48, 61
1, 217957, Control_c, 0, 64, 31
1, 217957, Control_c, 0, 67, 20
1, 218017, Control_c, 0, 64, 31
1, 218076, Note_on_c, 0, 71, 42
1, 218100, Note_on_c, 0, 48, 38
1, 218100, Note_on_c, 0, 65, 44
1, 218109, Note_on_c, 0, 60, 26
1, 218136, Note_off_c, 0, 60, 47
1, 218154, Note_off_c, 0, 48, 62
1, 218155, Note_off_c, 0, 71, 62
1, 218156, Note_off_c, 0, 65, 60
1, 218347, Note_on_c, 0, 72, 51
1, 218353, Note_on_c, 0, 63, 48
1, 218386, Note_on_c, 0, 36, 43
1, 218405, Note_on_c, 0, 48, 17
1, 218418, Control_c, 0, 64, 31
1, 218436, Note_off_c, 0, 36, 61
1, 218449, Note_off_c, 0, 48, 41
1, 218629, Note_off_c, 0, 72, 63
1, 218639, Note_on_c, 0, 48, 40
1, 218643, Note_on_c, 0, 36, 40
1, 218687, Note_off_c, 0, 63, 64
1, 218696, Note_off_c, 0, 48, 62
1, 218705, Note_off_c, 0, 36, 63
1, 218721, Control_c, 0, 64, 31
1, 218765, Control_c, 0, 64, 32
1, 218795, Control_c, 0, 64, 32
1, 218810, Control_c, 0, 64, 33
1, 218901, Note_on_c, 0, 67, 56
1, 218908, Note_on_c, 0, 63, 46
1, 218929, Note_on_c, 0, 48, 31
1, 218936, Note_on_c, 0, 36, 39
1, 219006, Note_off_c, 0, 48, 58
1, 219008, Note_off_c, 0, 36, 59
1, 219017, Control_c, 0, 67, 20
1, 219135, Control_c, 0, 67, 20
1, 219166, Note_on_c, 0, 48, 40
1, 219181, Note_on_c, 0, 36, 37
1, 219256, Note_off_c, 0, 48, 51
1, 219263, Note_off_c, 0, 67, 59
1, 219269, Note_off_c, 0, 36, 54
1, 219291, Note_on_c, 0, 65, 47
1, 219292, Note_on_c, 0, 68, 40
1, 219298, Note_off_c, 0, 63, 52
1, 219351, Control_c, 0, 64, 33
1, 219392, Note_off_c, 0, 65, 56
1, 219438, Note_on_c, 0, 67, 34
1, 219450, Note_on_c, 0, 63, 46
1, 219461, Note_on_c, 0, 36, 34
1, 219462, Note_on_c, 0, 48, 28
1, 219471, Note_off_c, 0, 68, 43
1, 219528, Control_c, 0, 64, 34
1, 219545, Note_off_c, 0, 48, 44
1, 219551, Note_off_c, 0, 36, 53
1, 219697, Note_off_c, 0, 67, 59
1, 219701, Note_on_c, 0, 48, 40
1, 219706, Control_c, 0, 67, 21
1, 219713, Note_on_c, 0, 36, 46
1, 219723, Note_off_c, 0, 63, 64
1, 219736, Control_c, 0, 67, 21
1, 219753, Note_off_c, 0, 48, 61
1, 219756, Note_off_c, 0, 36, 63
1, 219765, Control_c, 0, 67, 22
1, 219810, Control_c, 0, 67, 22
1, 219898, Control_c, 0, 64, 33
1, 219960, Note_on_c, 0, 63, 44
1, 219963, Note_on_c, 0, 48, 34
1, 219969, Note_on_c, 0, 36, 40
1, 219971, Note_on_c, 0, 55, 40
1, 220003, Control_c, 0, 64, 33
1, 220011, Note_off_c, 0, 63, 59
1, 220013, Note_off_c, 0, 48, 63
1, 220017, Note_off_c, 0, 36, 63
1, 220017, Note_off_c, 0, 55, 63
1, 220033, Control_c, 0, 67, 23
1, 220047, Control_c, 0, 64, 32
1, 220077, Control_c, 0, 67, 23
1, 220270, Note_on_c, 0, 53, 27
1, 220273, Note_on_c, 0, 48, 35
1, 220275, Note_on_c, 0, 59, 31
1, 220276, Note_on_c, 0, 36, 33
1, 220307, Control_c, 0, 67, 24
1, 220332, Note_off_c, 0, 48, 62
1, 220336, Control_c, 0, 67, 24
1, 220339, Note_off_c, 0, 36, 62
1, 220351, Control_c, 0, 67, 25
1, 220354, Note_off_c, 0, 59, 60
1, 220359, Note_off_c, 0, 53, 57
1, 220366, Control_c, 0, 67, 25
1, 220381, Control_c, 0, 64, 32
1, 220381, Control_c, 0, 67, 26
1, 220395, Control_c, 0, 67, 27
1, 220588, Control_c, 0, 67, 26
1, 220633, Control_c, 0, 67, 26
1, 220662, Control_c, 0, 67, 25
1, 220681, Note_on_c, 0, 51, 8
1, 220687, Note_on_c, 0, 60, 26
1, 220721, Note_on_c, 0, 36, 23
1, 220721, Control_c, 0, 67, 25
1, 220744, Poly_aftertouch_c, 0, 48, 127
1, 221442, Control_c, 0, 67, 24
1, 222115, Poly_aftertouch_c, 0, 48, 0
1, 222140, Note_off_c, 0, 51, 31
1, 222160, Note_off_c, 0, 36, 22
1, 222188, Note_off_c, 0, 60, 25
1, 222524, Control_c, 0, 67, 24
1, 222777, Control_c, 0, 67, 23
1, 222836, Control_c, 0, 67, 23
1, 222984, Control_c, 0, 67, 22
1, 223095, Control_c, 0, 67, 22
1, 223229, Control_c, 0, 67, 21
1, 223317, Control_c, 0, 67, 21
1, 223436, Control_c, 0, 67, 20
1, 223495, Control_c, 0, 64, 31
1, 223539, Control_c, 0, 67, 20
1, 223806, Control_c, 0, 64, 31
1, 223820, Control_c, 0, 64, 30
1, 223858, Control_c, 0, 64, 30
1, 223887, Control_c, 0, 64, 29
1, 223902, Control_c, 0, 64, 29
1, 223946, Control_c, 0, 64, 28
1, 223977, Control_c, 0, 64, 28
1, 223992, Control_c, 0, 64, 27
1, 224007, Control_c, 0, 64, 27
1, 224022, Control_c, 0, 64, 26
1, 224037, Control_c, 0, 64, 25
1, 224051, Control_c, 0, 64, 24
1, 224066, Control_c, 0, 64, 22
1, 224081, Control_c, 0, 64, 21
1, 224095, Control_c, 0, 64, 19
1, 224110, Control_c, 0, 64, 17
1, 224125, Control_c, 0, 64, 14
1, 224140, Control_c, 0, 64, 11
1, 224155, Control_c, 0, 64, 0
1, 224348, Control_c, 0, 67, 19
1, 224377, Control_c, 0, 67, 19
1, 224436, Control_c, 0, 67, 18
1, 224451, Control_c, 0, 67, 18
1, 224495, Control_c, 0, 67, 17
1, 224510, Control_c, 0, 67, 17
1, 224525, Control_c, 0, 67, 16
1, 224540, Control_c, 0, 67, 15
1, 224555, Control_c, 0, 67, 15
1, 224569, Control_c, 0, 67, 13
1, 224592, Control_c, 0, 67, 11
1, 224607, Control_c, 0, 67, 10
1, 224621, Control_c, 0, 67, 9
1, 224651, Control_c, 0, 67, 9
1, 224681, Control_c, 0, 67, 8
1, 224710, Control_c, 0, 67, 8
1, 224725, Control_c, 0, 67, 0
1, 224800, End_track
0, 0, End_of_file
