0, 0, Header, 0, 1, 384
1, 0, Start_track
1, 0, Title_t, "Widmung--Reed Tetzloff          "
1, 0, Text_t, "2008 e-Piano Junior Competition recital round"
1, 0, Text_t, "recorded July 2008"
1, 0, Text_t, "http://www.piano-e-competition.com/"
1, 0, Text_t, "File processed for distribution by software from Zenph Studios, Inc., http://www.zenph.com"
1, 0, Instrument_name_t, "Yamaha Disklavier Pro Mark IV concert grand piano, model DCFIIISM4PRO"
1, 0, Sequencer_specific, 39, 67, 113, 0, 1, 0, 1, 0, 87, 105, 100, 109, 117, 110, 103, 32, 32, 32, 32, 32, 32, 32, 32, 32, 82, 101, 101, 100, 32, 84, 101, 116, 122, 108, 111, 102, 102, 32, 32, 32
1, 0, Sequencer_specific, 6, 67, 113, 0, 0, 0, 69
1, 0, System_exclusive, 21, 67, 113, 126, 21, 0, 2, 2, 0, 3, 14, 1, 4, 1, 13, 13, 10, 11, 9, 2, 7, 247
1, 0, Sequencer_specific, 5, 67, 123, 12, 2, 1
1, 0, Tempo, 512820
1, 0, Time_signature, 4, 2, 24, 8
1, 0, System_exclusive, 5, 126, 127, 9, 1, 247
1, 1, System_exclusive, 8, 67, 16, 76, 0, 0, 126, 0, 247
1, 2, System_exclusive, 8, 67, 16, 76, 8, 9, 7, 1, 247
1, 3, Control_c, 0, 0, 0
1, 3, Control_c, 1, 0, 0
1, 3, Control_c, 2, 0, 0
1, 3, Control_c, 3, 0, 0
1, 3, Control_c, 4, 0, 0
1, 3, Control_c, 5, 0, 0
1, 3, Control_c, 6, 0, 0
1, 3, Control_c, 7, 0, 0
1, 3, Control_c, 8, 0, 0
1, 3, Control_c, 9, 0, 127
1, 3, Control_c, 10, 0, 0
1, 3, Control_c, 11, 0, 0
1, 3, Control_c, 12, 0, 0
1, 3, Control_c, 13, 0, 0
1, 3, Control_c, 14, 0, 0
1, 3, Control_c, 15, 0, 0
1, 4, Control_c, 0, 32, 0
1, 4, Control_c, 1, 32, 0
1, 4, Control_c, 2, 32, 0
1, 4, Control_c, 3, 32, 0
1, 4, Control_c, 4, 32, 0
1, 4, Control_c, 5, 32, 0
1, 4, Control_c, 6, 32, 0
1, 4, Control_c, 7, 32, 0
1, 4, Control_c, 8, 32, 0
1, 4, Control_c, 9, 32, 0
1, 4, Control_c, 10, 32, 0
1, 4, Control_c, 11, 32, 0
1, 4, Control_c, 12, 32, 0
1, 4, Control_c, 13, 32, 0
1, 4, Control_c, 14, 32, 0
1, 4, Control_c, 15, 32, 0
1, 5, Program_c, 0, 0
1, 5, Program_c, 1, 0
1, 5, Program_c, 2, 0
1, 5, Program_c, 3, 0
1, 5, Program_c, 4, 0
1, 5, Program_c, 5, 0
1, 5, Program_c, 6, 0
1, 5, Program_c, 7, 0
1, 5, Program_c, 8, 0
1, 5, Program_c, 9, 0
1, 5, Program_c, 10, 0
1, 5, Program_c, 11, 0
1, 5, Program_c, 12, 0
1, 5, Program_c, 13, 0
1, 5, Program_c, 14, 0
1, 5, Program_c, 15, 0
1, 6, Control_c, 0, 7, 100
1, 6, Control_c, 1, 7, 100
1, 6, Control_c, 2, 7, 100
1, 6, Control_c, 3, 7, 100
1, 6, Control_c, 4, 7, 100
1, 6, Control_c, 5, 7, 100
1, 6, Control_c, 6, 7, 100
1, 6, Control_c, 7, 7, 100
1, 6, Control_c, 8, 7, 100
1, 6, Control_c, 9, 7, 100
1, 6, Control_c, 10, 7, 100
1, 6, Control_c, 11, 7, 100
1, 6, Control_c, 12, 7, 100
1, 6, Control_c, 13, 7, 100
1, 6, Control_c, 14, 7, 100
1, 6, Control_c, 15, 7, 100
1, 117, Control_c, 0, 64, 9
1, 229, Control_c, 0, 64, 19
1, 341, Control_c, 0, 64, 28
1, 452, Control_c, 0, 64, 38
1, 564, Control_c, 0, 64, 47
1, 676, Control_c, 0, 64, 57
1, 787, Control_c, 0, 64, 66
1, 899, Control_c, 0, 64, 77
1, 1134, Note_on_c, 0, 44, 36
1, 1229, Control_c, 0, 64, 78
1, 1243, Control_c, 0, 64, 78
1, 1258, Control_c, 0, 64, 79
1, 1273, Control_c, 0, 64, 80
1, 1288, Control_c, 0, 64, 81
1, 1303, Control_c, 0, 64, 81
1, 1314, Note_on_c, 0, 51, 43
1, 1317, Control_c, 0, 64, 82
1, 1332, Control_c, 0, 64, 83
1, 1347, Control_c, 0, 64, 83
1, 1376, Control_c, 0, 64, 84
1, 1406, Control_c, 0, 64, 84
1, 1421, Control_c, 0, 64, 85
1, 1464, Note_on_c, 0, 56, 48
1, 1465, Control_c, 0, 64, 85
1, 1487, Control_c, 0, 64, 86
1, 1517, Control_c, 0, 64, 86
1, 1591, Control_c, 0, 64, 87
1, 1614, Note_on_c, 0, 60, 52
1, 1705, Note_off_c, 0, 60, 49
1, 1849, Note_on_c, 0, 63, 44
1, 1877, Note_off_c, 0, 63, 52
1, 1938, Note_on_c, 0, 63, 48
1, 1985, Note_off_c, 0, 63, 45
1, 1996, Note_off_c, 0, 56, 38
1, 2096, Note_on_c, 0, 60, 47
1, 2152, Note_off_c, 0, 60, 49
1, 2223, Note_off_c, 0, 51, 38
1, 2251, Note_on_c, 0, 56, 42
1, 2364, Note_on_c, 0, 51, 43
1, 2382, Note_off_c, 0, 56, 29
1, 2414, Note_off_c, 0, 51, 46
1, 2532, Note_on_c, 0, 51, 44
1, 2597, Note_off_c, 0, 51, 43
1, 2662, Note_on_c, 0, 56, 42
1, 2797, Note_off_c, 0, 56, 36
1, 2808, Note_on_c, 0, 51, 45
1, 2901, Note_off_c, 0, 51, 39
1, 2941, Note_off_c, 0, 44, 32
1, 2949, Note_on_c, 0, 55, 41
1, 3044, Note_off_c, 0, 55, 55
1, 3124, Note_on_c, 0, 44, 42
1, 3133, Control_c, 0, 64, 86
1, 3148, Control_c, 0, 64, 82
1, 3163, Control_c, 0, 64, 73
1, 3165, Note_on_c, 0, 51, 33
1, 3178, Control_c, 0, 64, 59
1, 3184, Note_on_c, 0, 60, 66
1, 3193, Control_c, 0, 64, 0
1, 3253, Control_c, 0, 64, 63
1, 3268, Control_c, 0, 64, 71
1, 3283, Control_c, 0, 64, 77
1, 3298, Control_c, 0, 64, 82
1, 3309, Note_off_c, 0, 44, 47
1, 3312, Control_c, 0, 64, 84
1, 3323, Note_off_c, 0, 51, 41
1, 3327, Control_c, 0, 64, 84
1, 3337, Note_on_c, 0, 56, 46
1, 3339, Note_on_c, 0, 63, 73
1, 3342, Control_c, 0, 64, 85
1, 3344, Note_off_c, 0, 60, 55
1, 3357, Control_c, 0, 64, 86
1, 3364, Note_off_c, 0, 56, 58
1, 3372, Control_c, 0, 64, 86
1, 3387, Control_c, 0, 64, 87
1, 3458, Note_off_c, 0, 63, 61
1, 3501, Note_on_c, 0, 68, 70
1, 3507, Note_on_c, 0, 60, 50
1, 3566, Note_off_c, 0, 60, 55
1, 3618, Note_off_c, 0, 68, 48
1, 3755, Note_on_c, 0, 72, 63
1, 3759, Note_on_c, 0, 63, 58
1, 3789, Note_off_c, 0, 63, 54
1, 3792, Note_off_c, 0, 72, 58
1, 3867, Note_on_c, 0, 72, 61
1, 3906, Note_on_c, 0, 63, 36
1, 3912, Control_c, 0, 64, 87
1, 3937, Note_off_c, 0, 63, 52
1, 3984, Note_off_c, 0, 72, 57
1, 4016, Note_on_c, 0, 68, 66
1, 4031, Note_on_c, 0, 60, 43
1, 4031, Control_c, 0, 64, 88
1, 4084, Note_off_c, 0, 60, 41
1, 4152, Note_off_c, 0, 68, 41
1, 4160, Note_on_c, 0, 56, 50
1, 4161, Note_on_c, 0, 63, 64
1, 4218, Note_off_c, 0, 56, 51
1, 4224, Note_off_c, 0, 63, 60
1, 4281, Note_on_c, 0, 51, 52
1, 4293, Note_on_c, 0, 60, 60
1, 4308, Note_off_c, 0, 51, 57
1, 4329, Note_off_c, 0, 60, 57
1, 4417, Control_c, 0, 64, 87
1, 4432, Control_c, 0, 64, 83
1, 4434, Note_on_c, 0, 60, 64
1, 4442, Note_on_c, 0, 51, 32
1, 4447, Control_c, 0, 64, 75
1, 4457, Note_on_c, 0, 44, 37
1, 4461, Control_c, 0, 64, 64
1, 4484, Control_c, 0, 64, 0
1, 4543, Control_c, 0, 64, 58
1, 4551, Note_off_c, 0, 60, 59
1, 4558, Control_c, 0, 64, 68
1, 4573, Control_c, 0, 64, 73
1, 4587, Control_c, 0, 64, 78
1, 4597, Note_off_c, 0, 51, 42
1, 4602, Control_c, 0, 64, 80
1, 4609, Note_on_c, 0, 63, 54
1, 4617, Control_c, 0, 64, 81
1, 4621, Note_on_c, 0, 56, 44
1, 4632, Control_c, 0, 64, 81
1, 4647, Control_c, 0, 64, 82
1, 4661, Control_c, 0, 64, 82
1, 4676, Control_c, 0, 64, 83
1, 4678, Note_off_c, 0, 63, 56
1, 4732, Note_on_c, 0, 58, 65
1, 4735, Control_c, 0, 64, 82
1, 4746, Note_on_c, 0, 51, 40
1, 4750, Control_c, 0, 64, 78
1, 4751, Note_off_c, 0, 56, 39
1, 4765, Control_c, 0, 64, 68
1, 4780, Control_c, 0, 64, 20
1, 4794, Control_c, 0, 64, 0
1, 4838, Control_c, 0, 64, 59
1, 4855, Control_c, 0, 64, 69
1, 4870, Control_c, 0, 64, 76
1, 4884, Control_c, 0, 64, 81
1, 4886, Note_off_c, 0, 51, 36
1, 4895, Note_on_c, 0, 63, 51
1, 4899, Control_c, 0, 64, 82
1, 4913, Note_on_c, 0, 55, 42
1, 4914, Control_c, 0, 64, 83
1, 4926, Note_off_c, 0, 58, 44
1, 4927, Note_off_c, 0, 44, 41
1, 4928, Control_c, 0, 64, 83
1, 4943, Control_c, 0, 64, 84
1, 4958, Control_c, 0, 64, 85
1, 4970, Note_off_c, 0, 55, 48
1, 5047, Control_c, 0, 64, 83
1, 5059, Note_on_c, 0, 44, 40
1, 5062, Control_c, 0, 64, 78
1, 5063, Note_off_c, 0, 63, 33
1, 5070, Note_on_c, 0, 60, 64
1, 5077, Control_c, 0, 64, 67
1, 5083, Note_on_c, 0, 51, 29
1, 5092, Control_c, 0, 64, 0
1, 5166, Control_c, 0, 64, 64
1, 5181, Control_c, 0, 64, 70
1, 5196, Control_c, 0, 64, 74
1, 5196, Note_off_c, 0, 44, 60
1, 5205, Note_off_c, 0, 60, 54
1, 5210, Control_c, 0, 64, 78
1, 5232, Note_off_c, 0, 51, 37
1, 5232, Control_c, 0, 64, 80
1, 5234, Note_on_c, 0, 63, 60
1, 5238, Note_on_c, 0, 56, 51
1, 5247, Control_c, 0, 64, 81
1, 5262, Control_c, 0, 64, 81
1, 5277, Control_c, 0, 64, 82
1, 5279, Note_off_c, 0, 56, 61
1, 5292, Control_c, 0, 64, 83
1, 5306, Control_c, 0, 64, 83
1, 5321, Control_c, 0, 64, 84
1, 5331, Note_off_c, 0, 63, 56
1, 5394, Note_on_c, 0, 68, 58
1, 5411, Note_on_c, 0, 60, 43
1, 5450, Note_off_c, 0, 60, 48
1, 5538, Note_off_c, 0, 68, 29
1, 5642, Note_on_c, 0, 63, 50
1, 5644, Note_on_c, 0, 72, 51
1, 5673, Note_off_c, 0, 63, 53
1, 5676, Note_off_c, 0, 72, 49
1, 5740, Note_on_c, 0, 72, 53
1, 5771, Note_on_c, 0, 63, 41
1, 5805, Note_off_c, 0, 63, 51
1, 5859, Note_off_c, 0, 72, 36
1, 5898, Note_on_c, 0, 60, 48
1, 5900, Note_on_c, 0, 68, 57
1, 5995, Note_off_c, 0, 60, 31
1, 6043, Note_on_c, 0, 56, 50
1, 6044, Note_on_c, 0, 63, 57
1, 6048, Note_off_c, 0, 68, 35
1, 6094, Note_off_c, 0, 63, 53
1, 6097, Note_off_c, 0, 56, 52
1, 6162, Note_on_c, 0, 60, 57
1, 6168, Note_on_c, 0, 51, 48
1, 6200, Note_off_c, 0, 51, 55
1, 6220, Note_off_c, 0, 60, 42
1, 6307, Control_c, 0, 64, 82
1, 6313, Note_on_c, 0, 60, 50
1, 6316, Note_on_c, 0, 51, 38
1, 6322, Control_c, 0, 64, 78
1, 6328, Note_on_c, 0, 44, 42
1, 6337, Control_c, 0, 64, 70
1, 6351, Control_c, 0, 64, 53
1, 6366, Control_c, 0, 64, 0
1, 6386, Note_off_c, 0, 51, 0
1, 6409, Note_off_c, 0, 60, 60
1, 6423, Poly_aftertouch_c, 0, 51, 127
1, 6425, Control_c, 0, 64, 64
1, 6440, Control_c, 0, 64, 69
1, 6456, Control_c, 0, 64, 72
1, 6471, Control_c, 0, 64, 74
1, 6475, Poly_aftertouch_c, 0, 51, 0
1, 6475, Note_on_c, 0, 63, 50
1, 6486, Control_c, 0, 64, 74
1, 6489, Note_on_c, 0, 56, 44
1, 6500, Control_c, 0, 64, 75
1, 6515, Control_c, 0, 64, 76
1, 6530, Control_c, 0, 64, 76
1, 6541, Note_off_c, 0, 63, 56
1, 6545, Control_c, 0, 64, 77
1, 6560, Note_off_c, 0, 56, 48
1, 6574, Control_c, 0, 64, 77
1, 6600, Note_on_c, 0, 58, 55
1, 6619, Control_c, 0, 64, 78
1, 6636, Note_on_c, 0, 51, 30
1, 6648, Control_c, 0, 64, 78
1, 6678, Control_c, 0, 64, 79
1, 6693, Note_off_c, 0, 58, 57
1, 6693, Control_c, 0, 64, 79
1, 6728, Note_off_c, 0, 51, 36
1, 6730, Control_c, 0, 64, 80
1, 6744, Note_off_c, 0, 44, 33
1, 6764, Note_on_c, 0, 63, 49
1, 6774, Control_c, 0, 64, 80
1, 6792, Note_on_c, 0, 55, 33
1, 6812, Note_off_c, 0, 63, 44
1, 6845, Note_off_c, 0, 55, 45
1, 6863, Control_c, 0, 64, 81
1, 6907, Control_c, 0, 64, 82
1, 6922, Control_c, 0, 64, 83
1, 6937, Control_c, 0, 64, 83
1, 6946, Note_on_c, 0, 44, 39
1, 6952, Control_c, 0, 64, 84
1, 6967, Control_c, 0, 64, 83
1, 6982, Control_c, 0, 64, 80
1, 6982, Control_c, 0, 66, 0
1, 6997, Control_c, 0, 64, 71
1, 7004, Note_on_c, 0, 72, 77
1, 7012, Control_c, 0, 64, 51
1, 7026, Control_c, 0, 64, 0
1, 7086, Control_c, 0, 64, 62
1, 7100, Control_c, 0, 64, 70
1, 7115, Control_c, 0, 64, 75
1, 7130, Control_c, 0, 64, 79
1, 7145, Control_c, 0, 64, 81
1, 7160, Control_c, 0, 64, 83
1, 7167, Note_on_c, 0, 51, 43
1, 7170, Note_on_c, 0, 60, 49
1, 7174, Control_c, 0, 64, 84
1, 7189, Control_c, 0, 64, 86
1, 7190, Note_off_c, 0, 72, 53
1, 7204, Control_c, 0, 64, 87
1, 7219, Control_c, 0, 64, 89
1, 7221, Note_off_c, 0, 44, 40
1, 7233, Control_c, 0, 64, 90
1, 7250, Control_c, 0, 64, 92
1, 7261, Note_off_c, 0, 51, 51
1, 7265, Control_c, 0, 64, 92
1, 7270, Note_off_c, 0, 60, 56
1, 7279, Control_c, 0, 64, 93
1, 7294, Control_c, 0, 64, 94
1, 7296, Note_on_c, 0, 72, 80
1, 7298, Note_on_c, 0, 56, 57
1, 7309, Control_c, 0, 64, 95
1, 7323, Control_c, 0, 64, 97
1, 7331, Note_off_c, 0, 56, 62
1, 7338, Control_c, 0, 64, 98
1, 7353, Control_c, 0, 64, 98
1, 7358, Note_off_c, 0, 72, 62
1, 7368, Control_c, 0, 64, 99
1, 7383, Control_c, 0, 64, 100
1, 7420, Note_on_c, 0, 72, 74
1, 7427, Control_c, 0, 64, 100
1, 7516, Note_on_c, 0, 63, 46
1, 7538, Control_c, 0, 64, 98
1, 7553, Control_c, 0, 64, 87
1, 7568, Control_c, 0, 64, 71
1, 7575, Note_off_c, 0, 63, 63
1, 7583, Control_c, 0, 64, 0
1, 7600, Note_on_c, 0, 75, 80
1, 7608, Note_off_c, 0, 72, 63
1, 7626, Note_on_c, 0, 60, 48
1, 7642, Control_c, 0, 64, 68
1, 7655, Note_off_c, 0, 75, 64
1, 7656, Control_c, 0, 64, 76
1, 7671, Control_c, 0, 64, 82
1, 7686, Control_c, 0, 64, 85
1, 7730, Control_c, 0, 64, 86
1, 7731, Note_off_c, 0, 60, 54
1, 7745, Control_c, 0, 64, 87
1, 7760, Control_c, 0, 64, 88
1, 7775, Control_c, 0, 64, 89
1, 7787, Note_on_c, 0, 56, 45
1, 7788, Note_on_c, 0, 63, 53
1, 7790, Control_c, 0, 64, 90
1, 7804, Control_c, 0, 64, 90
1, 7810, Note_off_c, 0, 63, 61
1, 7818, Note_off_c, 0, 56, 61
1, 7894, Control_c, 0, 64, 91
1, 7899, Note_on_c, 0, 63, 65
1, 7915, Note_on_c, 0, 56, 56
1, 7953, Control_c, 0, 64, 91
1, 7955, Note_off_c, 0, 56, 61
1, 7976, Note_off_c, 0, 63, 59
1, 8034, Note_on_c, 0, 68, 74
1, 8036, Note_on_c, 0, 51, 46
1, 8053, Note_on_c, 0, 60, 50
1, 8064, Note_off_c, 0, 51, 56
1, 8085, Note_off_c, 0, 60, 53
1, 8100, Note_off_c, 0, 68, 59
1, 8176, Control_c, 0, 64, 88
1, 8185, Note_on_c, 0, 68, 71
1, 8191, Control_c, 0, 64, 79
1, 8194, Note_on_c, 0, 60, 50
1, 8198, Note_on_c, 0, 51, 20
1, 8205, Note_on_c, 0, 44, 39
1, 8206, Control_c, 0, 64, 58
1, 8228, Control_c, 0, 64, 0
1, 8261, Note_off_c, 0, 60, 35
1, 8287, Control_c, 0, 64, 61
1, 8302, Control_c, 0, 64, 71
1, 8317, Control_c, 0, 64, 79
1, 8332, Control_c, 0, 64, 85
1, 8344, Note_on_c, 0, 63, 59
1, 8347, Control_c, 0, 64, 87
1, 8348, Note_off_c, 0, 51, 38
1, 8353, Note_off_c, 0, 68, 59
1, 8361, Note_on_c, 0, 56, 48
1, 8361, Control_c, 0, 64, 87
1, 8376, Control_c, 0, 64, 88
1, 8391, Control_c, 0, 64, 89
1, 8406, Control_c, 0, 64, 90
1, 8428, Note_off_c, 0, 56, 52
1, 8450, Note_off_c, 0, 63, 61
1, 8465, Control_c, 0, 64, 89
1, 8479, Control_c, 0, 64, 83
1, 8480, Note_on_c, 0, 70, 70
1, 8487, Note_on_c, 0, 51, 39
1, 8494, Control_c, 0, 64, 70
1, 8509, Control_c, 0, 64, 0
1, 8511, Note_on_c, 0, 58, 46
1, 8568, Control_c, 0, 64, 61
1, 8580, Note_off_c, 0, 51, 51
1, 8583, Control_c, 0, 64, 71
1, 8598, Control_c, 0, 64, 79
1, 8613, Control_c, 0, 64, 84
1, 8620, Note_off_c, 0, 58, 62
1, 8627, Note_on_c, 0, 55, 36
1, 8627, Control_c, 0, 64, 85
1, 8639, Note_off_c, 0, 70, 53
1, 8646, Note_off_c, 0, 44, 39
1, 8657, Control_c, 0, 64, 85
1, 8660, Note_on_c, 0, 63, 48
1, 8672, Control_c, 0, 64, 86
1, 8674, Note_off_c, 0, 55, 47
1, 8687, Control_c, 0, 64, 87
1, 8702, Control_c, 0, 64, 88
1, 8750, Note_on_c, 0, 44, 29
1, 8795, Note_off_c, 0, 63, 47
1, 8815, Note_on_c, 0, 51, 21
1, 8820, Control_c, 0, 64, 87
1, 8835, Control_c, 0, 64, 86
1, 8849, Note_on_c, 0, 72, 72
1, 8851, Control_c, 0, 64, 81
1, 8866, Control_c, 0, 64, 71
1, 8875, Note_on_c, 0, 60, 28
1, 8881, Control_c, 0, 64, 0
1, 8955, Control_c, 0, 64, 57
1, 8976, Control_c, 0, 64, 70
1, 8982, Note_off_c, 0, 44, 49
1, 8991, Control_c, 0, 64, 76
1, 9006, Control_c, 0, 64, 82
1, 9008, Note_off_c, 0, 51, 40
1, 9018, Note_on_c, 0, 56, 41
1, 9021, Control_c, 0, 64, 85
1, 9036, Note_on_c, 0, 63, 47
1, 9036, Control_c, 0, 64, 86
1, 9050, Control_c, 0, 64, 86
1, 9052, Note_off_c, 0, 60, 33
1, 9064, Note_off_c, 0, 56, 48
1, 9065, Control_c, 0, 64, 87
1, 9080, Control_c, 0, 64, 88
1, 9095, Note_off_c, 0, 72, 47
1, 9095, Control_c, 0, 64, 88
1, 9110, Control_c, 0, 64, 89
1, 9117, Note_off_c, 0, 63, 52
1, 9179, Note_on_c, 0, 68, 51
1, 9182, Note_on_c, 0, 60, 46
1, 9235, Note_off_c, 0, 60, 57
1, 9265, Note_off_c, 0, 68, 45
1, 9404, Note_on_c, 0, 63, 50
1, 9425, Note_on_c, 0, 72, 37
1, 9436, Note_off_c, 0, 63, 52
1, 9474, Note_off_c, 0, 72, 0
1, 9493, Note_on_c, 0, 72, 29
1, 9504, Note_on_c, 0, 63, 40
1, 9536, Note_off_c, 0, 63, 54
1, 9610, Note_off_c, 0, 72, 50
1, 9638, Note_on_c, 0, 60, 47
1, 9656, Note_on_c, 0, 68, 45
1, 9675, Note_off_c, 0, 60, 52
1, 9757, Note_off_c, 0, 68, 38
1, 9787, Note_on_c, 0, 63, 53
1, 9790, Note_on_c, 0, 56, 39
1, 9846, Note_off_c, 0, 56, 47
1, 9862, Note_off_c, 0, 63, 51
1, 9903, Note_on_c, 0, 51, 49
1, 9922, Note_on_c, 0, 60, 48
1, 9939, Note_off_c, 0, 51, 57
1, 9966, Note_off_c, 0, 60, 53
1, 10103, Note_on_c, 0, 44, 37
1, 10109, Note_on_c, 0, 51, 30
1, 10111, Control_c, 0, 64, 88
1, 10111, Control_c, 0, 67, 120
1, 10125, Control_c, 0, 64, 81
1, 10125, Control_c, 0, 67, 94
1, 10140, Control_c, 0, 64, 69
1, 10140, Control_c, 0, 67, 61
1, 10155, Control_c, 0, 64, 0
1, 10155, Control_c, 0, 67, 25
1, 10156, Note_on_c, 0, 68, 70
1, 10170, Control_c, 0, 67, 0
1, 10177, Note_on_c, 0, 60, 52
1, 10211, Note_off_c, 0, 44, 59
1, 10214, Control_c, 0, 64, 59
1, 10229, Control_c, 0, 64, 71
1, 10243, Control_c, 0, 64, 79
1, 10252, Note_off_c, 0, 51, 60
1, 10258, Control_c, 0, 64, 84
1, 10273, Control_c, 0, 64, 85
1, 10288, Note_on_c, 0, 56, 46
1, 10288, Control_c, 0, 64, 86
1, 10314, Note_on_c, 0, 63, 52
1, 10316, Note_off_c, 0, 68, 38
1, 10317, Control_c, 0, 64, 87
1, 10322, Note_off_c, 0, 56, 52
1, 10332, Note_off_c, 0, 60, 35
1, 10332, Control_c, 0, 64, 87
1, 10347, Control_c, 0, 64, 88
1, 10362, Control_c, 0, 64, 89
1, 10377, Control_c, 0, 64, 90
1, 10392, Control_c, 0, 64, 90
1, 10392, Note_off_c, 0, 63, 63
1, 10422, Control_c, 0, 64, 91
1, 10437, Control_c, 0, 64, 91
1, 10442, Note_on_c, 0, 68, 72
1, 10443, Note_on_c, 0, 51, 50
1, 10452, Control_c, 0, 64, 92
1, 10474, Control_c, 0, 64, 92
1, 10489, Control_c, 0, 64, 93
1, 10504, Control_c, 0, 64, 93
1, 10505, Note_off_c, 0, 68, 64
1, 10519, Control_c, 0, 64, 94
1, 10548, Control_c, 0, 64, 95
1, 10593, Control_c, 0, 64, 95
1, 10603, Note_on_c, 0, 68, 81
1, 10604, Note_on_c, 0, 60, 47
1, 10652, Control_c, 0, 64, 96
1, 10664, Note_off_c, 0, 68, 62
1, 10668, Note_off_c, 0, 60, 55
1, 10741, Note_on_c, 0, 49, 51
1, 10763, Note_on_c, 0, 56, 43
1, 10770, Control_c, 0, 64, 95
1, 10783, Note_off_c, 0, 51, 40
1, 10785, Control_c, 0, 64, 95
1, 10800, Control_c, 0, 64, 93
1, 10815, Control_c, 0, 64, 88
1, 10830, Control_c, 0, 64, 80
1, 10845, Control_c, 0, 64, 68
1, 10853, Note_on_c, 0, 77, 85
1, 10860, Control_c, 0, 64, 0
1, 10871, Note_on_c, 0, 65, 58
1, 10948, Control_c, 0, 64, 61
1, 10963, Control_c, 0, 64, 70
1, 10978, Control_c, 0, 64, 76
1, 10993, Control_c, 0, 64, 83
1, 10993, Control_c, 0, 67, 8
1, 11000, Note_off_c, 0, 49, 60
1, 11008, Control_c, 0, 64, 85
1, 11008, Control_c, 0, 67, 20
1, 11022, Control_c, 0, 64, 85
1, 11022, Control_c, 0, 67, 43
1, 11026, Note_off_c, 0, 56, 50
1, 11037, Control_c, 0, 64, 86
1, 11037, Control_c, 0, 67, 71
1, 11046, Note_on_c, 0, 68, 60
1, 11048, Note_on_c, 0, 61, 49
1, 11052, Control_c, 0, 64, 87
1, 11052, Control_c, 0, 67, 96
1, 11066, Control_c, 0, 64, 89
1, 11066, Control_c, 0, 67, 115
1, 11073, Note_off_c, 0, 65, 39
1, 11075, Note_off_c, 0, 61, 60
1, 11081, Control_c, 0, 64, 90
1, 11081, Control_c, 0, 67, 127
1, 11096, Control_c, 0, 64, 91
1, 11102, Note_off_c, 0, 68, 51
1, 11111, Control_c, 0, 64, 92
1, 11140, Control_c, 0, 64, 93
1, 11170, Control_c, 0, 64, 93
1, 11175, Note_off_c, 0, 77, 50
1, 11202, Note_on_c, 0, 65, 60
1, 11212, Note_on_c, 0, 73, 44
1, 11247, Note_off_c, 0, 65, 62
1, 11261, Note_off_c, 0, 73, 47
1, 11433, Note_on_c, 0, 68, 55
1, 11452, Note_on_c, 0, 77, 49
1, 11470, Note_off_c, 0, 68, 52
1, 11475, Control_c, 0, 64, 93
1, 11498, Note_off_c, 0, 77, 41
1, 11504, Control_c, 0, 64, 92
1, 11519, Control_c, 0, 64, 92
1, 11534, Control_c, 0, 64, 91
1, 11541, Note_on_c, 0, 77, 45
1, 11548, Note_on_c, 0, 68, 48
1, 11549, Control_c, 0, 64, 90
1, 11564, Control_c, 0, 64, 90
1, 11578, Control_c, 0, 64, 89
1, 11593, Control_c, 0, 64, 89
1, 11657, Note_off_c, 0, 68, 33
1, 11704, Note_on_c, 0, 56, 34
1, 11718, Note_on_c, 0, 65, 32
1, 11742, Control_c, 0, 64, 88
1, 11755, Note_off_c, 0, 65, 51
1, 11766, Note_off_c, 0, 56, 39
1, 11802, Note_off_c, 0, 77, 54
1, 11830, Control_c, 0, 64, 86
1, 11845, Control_c, 0, 64, 79
1, 11850, Note_on_c, 0, 75, 70
1, 11860, Control_c, 0, 64, 69
1, 11865, Note_on_c, 0, 67, 51
1, 11875, Control_c, 0, 64, 57
1, 11889, Control_c, 0, 64, 39
1, 11904, Control_c, 0, 64, 57
1, 11918, Note_off_c, 0, 67, 56
1, 11919, Control_c, 0, 64, 65
1, 11934, Control_c, 0, 64, 69
1, 11949, Control_c, 0, 64, 73
1, 11971, Control_c, 0, 64, 76
1, 11986, Control_c, 0, 64, 78
1, 12001, Control_c, 0, 64, 79
1, 12002, Note_off_c, 0, 75, 53
1, 12008, Note_on_c, 0, 56, 35
1, 12016, Control_c, 0, 64, 80
1, 12026, Note_on_c, 0, 65, 37
1, 12030, Control_c, 0, 64, 81
1, 12046, Control_c, 0, 64, 81
1, 12061, Control_c, 0, 64, 82
1, 12065, Note_off_c, 0, 65, 50
1, 12068, Note_off_c, 0, 56, 38
1, 12076, Control_c, 0, 64, 82
1, 12135, Control_c, 0, 64, 81
1, 12150, Control_c, 0, 64, 77
1, 12155, Note_on_c, 0, 73, 74
1, 12165, Control_c, 0, 64, 70
1, 12168, Note_on_c, 0, 65, 50
1, 12180, Control_c, 0, 64, 56
1, 12194, Control_c, 0, 64, 0
1, 12209, Control_c, 0, 64, 48
1, 12222, Note_off_c, 0, 65, 59
1, 12224, Control_c, 0, 64, 64
1, 12239, Control_c, 0, 64, 70
1, 12247, Note_off_c, 0, 73, 59
1, 12254, Control_c, 0, 64, 75
1, 12268, Control_c, 0, 64, 80
1, 12283, Control_c, 0, 64, 82
1, 12298, Control_c, 0, 64, 82
1, 12312, Note_on_c, 0, 56, 40
1, 12320, Note_on_c, 0, 65, 51
1, 12327, Control_c, 0, 64, 83
1, 12342, Control_c, 0, 64, 83
1, 12357, Note_off_c, 0, 56, 44
1, 12357, Control_c, 0, 64, 84
1, 12372, Control_c, 0, 64, 84
1, 12377, Note_off_c, 0, 65, 44
1, 12386, Control_c, 0, 64, 85
1, 12431, Control_c, 0, 64, 84
1, 12446, Control_c, 0, 64, 79
1, 12447, Note_on_c, 0, 72, 71
1, 12461, Control_c, 0, 64, 71
1, 12476, Control_c, 0, 64, 61
1, 12479, Note_on_c, 0, 63, 35
1, 12490, Control_c, 0, 64, 41
1, 12505, Control_c, 0, 64, 57
1, 12520, Control_c, 0, 64, 66
1, 12535, Control_c, 0, 64, 70
1, 12550, Control_c, 0, 64, 75
1, 12565, Control_c, 0, 64, 78
1, 12570, Note_off_c, 0, 63, 35
1, 12580, Control_c, 0, 64, 80
1, 12604, Note_on_c, 0, 56, 43
1, 12609, Control_c, 0, 64, 80
1, 12624, Control_c, 0, 64, 81
1, 12631, Note_off_c, 0, 56, 56
1, 12632, Note_on_c, 0, 65, 40
1, 12638, Control_c, 0, 64, 81
1, 12653, Control_c, 0, 64, 82
1, 12668, Control_c, 0, 64, 82
1, 12675, Note_off_c, 0, 65, 46
1, 12683, Control_c, 0, 64, 83
1, 12809, Control_c, 0, 64, 81
1, 12812, Note_on_c, 0, 70, 67
1, 12824, Control_c, 0, 64, 77
1, 12832, Note_on_c, 0, 56, 34
1, 12839, Control_c, 0, 64, 70
1, 12854, Control_c, 0, 64, 54
1, 12859, Note_on_c, 0, 49, 31
1, 12868, Note_off_c, 0, 72, 47
1, 12869, Control_c, 0, 64, 0
1, 12976, Note_on_c, 0, 61, 41
1, 13003, Control_c, 0, 64, 48
1, 13017, Control_c, 0, 64, 60
1, 13032, Control_c, 0, 64, 63
1, 13047, Control_c, 0, 64, 64
1, 13062, Control_c, 0, 64, 64
1, 13076, Control_c, 0, 64, 65
1, 13091, Control_c, 0, 64, 67
1, 13106, Control_c, 0, 64, 69
1, 13121, Control_c, 0, 64, 70
1, 13136, Control_c, 0, 64, 72
1, 13140, Note_on_c, 0, 64, 39
1, 13150, Control_c, 0, 64, 75
1, 13165, Control_c, 0, 64, 77
1, 13180, Control_c, 0, 64, 79
1, 13195, Control_c, 0, 64, 80
1, 13212, Note_off_c, 0, 64, 52
1, 13417, Note_on_c, 0, 68, 51
1, 13496, Note_off_c, 0, 68, 0
1, 13511, Note_on_c, 0, 68, 34
1, 13533, Note_off_c, 0, 61, 30
1, 13599, Note_off_c, 0, 68, 37
1, 13715, Note_on_c, 0, 64, 33
1, 13761, Note_off_c, 0, 70, 57
1, 13763, Note_off_c, 0, 56, 32
1, 13864, Note_on_c, 0, 61, 31
1, 13906, Note_off_c, 0, 49, 33
1, 13929, Note_off_c, 0, 64, 41
1, 13937, Note_off_c, 0, 61, 37
1, 14030, Note_on_c, 0, 56, 27
1, 14106, Note_off_c, 0, 56, 35
1, 14241, Note_on_c, 0, 49, 30
1, 14255, Note_on_c, 0, 55, 29
1, 14277, Control_c, 0, 64, 79
1, 14291, Control_c, 0, 64, 79
1, 14306, Control_c, 0, 64, 78
1, 14321, Control_c, 0, 64, 77
1, 14336, Control_c, 0, 64, 73
1, 14342, Note_on_c, 0, 70, 64
1, 14351, Control_c, 0, 64, 67
1, 14365, Control_c, 0, 64, 27
1, 14368, Note_on_c, 0, 63, 39
1, 14380, Control_c, 0, 64, 0
1, 14441, Control_c, 0, 64, 56
1, 14456, Control_c, 0, 64, 67
1, 14470, Control_c, 0, 64, 72
1, 14485, Control_c, 0, 64, 76
1, 14500, Control_c, 0, 64, 79
1, 14510, Note_off_c, 0, 63, 46
1, 14514, Control_c, 0, 64, 81
1, 14529, Control_c, 0, 64, 82
1, 14544, Control_c, 0, 64, 84
1, 14554, Note_off_c, 0, 49, 37
1, 14559, Control_c, 0, 64, 85
1, 14563, Note_on_c, 0, 58, 44
1, 14574, Control_c, 0, 64, 85
1, 14578, Note_off_c, 0, 70, 61
1, 14589, Control_c, 0, 64, 86
1, 14619, Control_c, 0, 64, 86
1, 14639, Note_off_c, 0, 55, 38
1, 14718, Note_off_c, 0, 58, 40
1, 14739, Note_on_c, 0, 63, 40
1, 14742, Note_on_c, 0, 67, 61
1, 14770, Note_off_c, 0, 63, 54
1, 14804, Note_off_c, 0, 67, 50
1, 14919, Note_on_c, 0, 63, 69
1, 15005, Note_off_c, 0, 63, 57
1, 15052, Note_on_c, 0, 48, 46
1, 15070, Control_c, 0, 64, 86
1, 15085, Control_c, 0, 64, 85
1, 15096, Note_on_c, 0, 56, 32
1, 15100, Control_c, 0, 64, 80
1, 15114, Control_c, 0, 64, 70
1, 15129, Control_c, 0, 64, 0
1, 15147, Note_on_c, 0, 68, 68
1, 15203, Control_c, 0, 64, 11
1, 15218, Control_c, 0, 64, 65
1, 15234, Control_c, 0, 64, 71
1, 15247, Note_off_c, 0, 56, 22
1, 15249, Control_c, 0, 64, 76
1, 15263, Control_c, 0, 64, 80
1, 15278, Control_c, 0, 64, 82
1, 15293, Control_c, 0, 64, 83
1, 15297, Note_on_c, 0, 60, 38
1, 15308, Control_c, 0, 64, 83
1, 15323, Control_c, 0, 64, 84
1, 15331, Note_on_c, 0, 51, 32
1, 15337, Control_c, 0, 64, 85
1, 15352, Control_c, 0, 64, 86
1, 15367, Control_c, 0, 64, 86
1, 15383, Note_off_c, 0, 60, 54
1, 15412, Control_c, 0, 64, 87
1, 15443, Note_on_c, 0, 63, 49
1, 15463, Note_on_c, 0, 56, 42
1, 15471, Control_c, 0, 64, 87
1, 15493, Note_off_c, 0, 48, 29
1, 15499, Note_off_c, 0, 68, 38
1, 15504, Note_off_c, 0, 63, 43
1, 15531, Control_c, 0, 64, 88
1, 15582, Note_off_c, 0, 51, 37
1, 15648, Note_on_c, 0, 68, 50
1, 15653, Note_off_c, 0, 56, 16
1, 15659, Note_on_c, 0, 60, 45
1, 15671, Note_off_c, 0, 68, 57
1, 15686, Note_off_c, 0, 60, 54
1, 15759, Note_on_c, 0, 60, 48
1, 15775, Control_c, 0, 64, 88
1, 15789, Note_off_c, 0, 60, 53
1, 15863, Control_c, 0, 64, 89
1, 15889, Note_on_c, 0, 63, 55
1, 15893, Control_c, 0, 64, 89
1, 15911, Note_off_c, 0, 63, 63
1, 15937, Control_c, 0, 64, 90
1, 16011, Control_c, 0, 64, 90
1, 16049, Note_on_c, 0, 51, 38
1, 16050, Note_on_c, 0, 60, 40
1, 16101, Control_c, 0, 64, 91
1, 16111, Note_on_c, 0, 68, 74
1, 16146, Control_c, 0, 64, 91
1, 16175, Control_c, 0, 64, 92
1, 16205, Control_c, 0, 64, 92
1, 16211, Note_off_c, 0, 60, 32
1, 16220, Control_c, 0, 64, 93
1, 16220, Control_c, 0, 67, 104
1, 16226, Note_on_c, 0, 48, 56
1, 16234, Control_c, 0, 67, 76
1, 16237, Note_off_c, 0, 68, 63
1, 16249, Control_c, 0, 67, 44
1, 16253, Note_off_c, 0, 48, 64
1, 16264, Control_c, 0, 64, 93
1, 16264, Control_c, 0, 67, 23
1, 16276, Note_off_c, 0, 51, 37
1, 16279, Control_c, 0, 67, 9
1, 16294, Control_c, 0, 67, 0
1, 16354, Control_c, 0, 64, 92
1, 16368, Control_c, 0, 64, 86
1, 16375, Note_on_c, 0, 73, 78
1, 16383, Control_c, 0, 64, 74
1, 16398, Control_c, 0, 64, 30
1, 16401, Note_on_c, 0, 46, 53
1, 16412, Control_c, 0, 64, 0
1, 16479, Control_c, 0, 64, 65
1, 16494, Control_c, 0, 64, 73
1, 16509, Control_c, 0, 64, 80
1, 16509, Control_c, 0, 67, 9
1, 16515, Note_off_c, 0, 46, 57
1, 16524, Control_c, 0, 64, 84
1, 16524, Control_c, 0, 67, 12
1, 16531, Note_on_c, 0, 51, 48
1, 16532, Note_on_c, 0, 55, 50
1, 16533, Note_on_c, 0, 61, 53
1, 16539, Control_c, 0, 64, 85
1, 16539, Control_c, 0, 67, 17
1, 16553, Control_c, 0, 64, 86
1, 16553, Control_c, 0, 67, 28
1, 16568, Control_c, 0, 64, 86
1, 16568, Control_c, 0, 67, 43
1, 16568, Note_off_c, 0, 61, 49
1, 16583, Control_c, 0, 64, 87
1, 16583, Control_c, 0, 67, 63
1, 16586, Note_off_c, 0, 73, 57
1, 16598, Control_c, 0, 64, 87
1, 16598, Control_c, 0, 67, 86
1, 16612, Control_c, 0, 64, 88
1, 16612, Control_c, 0, 67, 108
1, 16622, Note_off_c, 0, 55, 62
1, 16627, Control_c, 0, 64, 88
1, 16627, Control_c, 0, 67, 125
1, 16642, Control_c, 0, 64, 89
1, 16642, Control_c, 0, 67, 127
1, 16663, Note_on_c, 0, 61, 61
1, 16671, Note_on_c, 0, 67, 65
1, 16672, Control_c, 0, 64, 89
1, 16701, Control_c, 0, 64, 90
1, 16712, Note_off_c, 0, 61, 58
1, 16731, Control_c, 0, 64, 90
1, 16760, Control_c, 0, 64, 91
1, 16803, Note_on_c, 0, 73, 83
1, 16805, Control_c, 0, 64, 91
1, 16884, Note_off_c, 0, 73, 61
1, 16939, Control_c, 0, 64, 90
1, 16940, Note_on_c, 0, 73, 70
1, 16954, Control_c, 0, 64, 82
1, 16959, Note_off_c, 0, 67, 57
1, 16962, Note_on_c, 0, 44, 51
1, 16969, Control_c, 0, 64, 68
1, 16973, Note_off_c, 0, 51, 39
1, 16983, Control_c, 0, 64, 0
1, 17057, Control_c, 0, 64, 64
1, 17072, Control_c, 0, 64, 71
1, 17087, Control_c, 0, 64, 77
1, 17095, Note_off_c, 0, 44, 59
1, 17096, Note_on_c, 0, 61, 58
1, 17102, Control_c, 0, 64, 82
1, 17105, Note_on_c, 0, 51, 41
1, 17117, Control_c, 0, 64, 83
1, 17132, Control_c, 0, 64, 84
1, 17147, Control_c, 0, 64, 85
1, 17148, Note_off_c, 0, 73, 49
1, 17162, Control_c, 0, 64, 86
1, 17176, Note_off_c, 0, 51, 53
1, 17176, Control_c, 0, 64, 87
1, 17179, Note_off_c, 0, 61, 50
1, 17191, Control_c, 0, 64, 87
1, 17213, Control_c, 0, 64, 88
1, 17228, Control_c, 0, 64, 88
1, 17242, Note_on_c, 0, 63, 59
1, 17255, Note_on_c, 0, 55, 39
1, 17257, Control_c, 0, 64, 89
1, 17287, Control_c, 0, 64, 89
1, 17304, Note_off_c, 0, 55, 47
1, 17333, Note_off_c, 0, 63, 60
1, 17382, Note_on_c, 0, 67, 54
1, 17394, Note_on_c, 0, 61, 35
1, 17436, Note_off_c, 0, 67, 54
1, 17457, Note_off_c, 0, 61, 50
1, 17495, Control_c, 0, 64, 89
1, 17509, Control_c, 0, 64, 84
1, 17520, Note_on_c, 0, 72, 67
1, 17524, Control_c, 0, 64, 73
1, 17533, Note_on_c, 0, 56, 40
1, 17539, Control_c, 0, 64, 43
1, 17554, Control_c, 0, 64, 0
1, 17598, Control_c, 0, 64, 42
1, 17613, Control_c, 0, 64, 66
1, 17628, Control_c, 0, 64, 72
1, 17638, Note_off_c, 0, 72, 62
1, 17644, Control_c, 0, 64, 76
1, 17658, Control_c, 0, 64, 79
1, 17659, Note_on_c, 0, 63, 50
1, 17668, Note_on_c, 0, 68, 54
1, 17673, Control_c, 0, 64, 80
1, 17688, Control_c, 0, 64, 81
1, 17692, Note_off_c, 0, 68, 56
1, 17703, Control_c, 0, 64, 82
1, 17718, Control_c, 0, 64, 83
1, 17732, Control_c, 0, 64, 84
1, 17733, Note_off_c, 0, 63, 41
1, 17747, Control_c, 0, 64, 85
1, 17762, Control_c, 0, 64, 86
1, 17777, Control_c, 0, 64, 87
1, 17792, Control_c, 0, 64, 88
1, 17795, Note_off_c, 0, 56, 38
1, 17801, Note_on_c, 0, 72, 81
1, 17806, Control_c, 0, 64, 89
1, 17817, Note_on_c, 0, 63, 61
1, 17820, Note_on_c, 0, 60, 46
1, 17821, Control_c, 0, 64, 90
1, 17836, Control_c, 0, 64, 90
1, 17851, Control_c, 0, 64, 91
1, 17865, Control_c, 0, 64, 92
1, 17865, Control_c, 0, 67, 99
1, 17877, Note_off_c, 0, 63, 43
1, 17880, Control_c, 0, 64, 93
1, 17880, Control_c, 0, 67, 69
1, 17888, Note_off_c, 0, 72, 65
1, 17895, Control_c, 0, 64, 93
1, 17895, Control_c, 0, 67, 38
1, 17910, Control_c, 0, 67, 13
1, 17925, Control_c, 0, 64, 94
1, 17925, Control_c, 0, 67, 0
1, 17945, Note_on_c, 0, 56, 44
1, 17988, Poly_aftertouch_c, 0, 68, 127
1, 17992, Control_c, 0, 64, 94
1, 18025, Poly_aftertouch_c, 0, 68, 0
1, 18048, Note_off_c, 0, 60, 27
1, 18109, Note_on_c, 0, 54, 48
1, 18139, Control_c, 0, 64, 93
1, 18141, Note_off_c, 0, 56, 36
1, 18154, Control_c, 0, 64, 86
1, 18162, Note_on_c, 0, 75, 83
1, 18169, Control_c, 0, 64, 70
1, 18184, Control_c, 0, 64, 0
1, 18198, Note_on_c, 0, 68, 27
1, 18216, Poly_aftertouch_c, 0, 60, 127
1, 18244, Control_c, 0, 64, 23
1, 18246, Note_off_c, 0, 68, 46
1, 18258, Control_c, 0, 64, 67
1, 18273, Control_c, 0, 64, 74
1, 18288, Control_c, 0, 64, 80
1, 18288, Control_c, 0, 67, 13
1, 18296, Poly_aftertouch_c, 0, 60, 0
1, 18303, Control_c, 0, 64, 84
1, 18303, Control_c, 0, 67, 22
1, 18309, Note_on_c, 0, 63, 54
1, 18318, Control_c, 0, 64, 84
1, 18318, Control_c, 0, 67, 38
1, 18332, Control_c, 0, 64, 85
1, 18332, Control_c, 0, 67, 58
1, 18346, Note_off_c, 0, 63, 54
1, 18347, Control_c, 0, 64, 86
1, 18347, Control_c, 0, 67, 79
1, 18358, Note_off_c, 0, 54, 52
1, 18362, Control_c, 0, 64, 88
1, 18362, Control_c, 0, 67, 94
1, 18377, Control_c, 0, 64, 89
1, 18377, Control_c, 0, 67, 108
1, 18379, Note_off_c, 0, 75, 62
1, 18391, Control_c, 0, 64, 90
1, 18391, Control_c, 0, 67, 117
1, 18406, Control_c, 0, 64, 90
1, 18406, Control_c, 0, 67, 127
1, 18421, Control_c, 0, 64, 91
1, 18452, Control_c, 0, 64, 91
1, 18482, Note_on_c, 0, 68, 55
1, 18516, Note_off_c, 0, 68, 63
1, 18652, Note_on_c, 0, 68, 78
1, 18740, Note_off_c, 0, 68, 49
1, 18811, Note_on_c, 0, 53, 42
1, 18843, Note_on_c, 0, 61, 40
1, 18845, Control_c, 0, 64, 89
1, 18860, Control_c, 0, 64, 82
1, 18875, Control_c, 0, 64, 69
1, 18889, Control_c, 0, 64, 0
1, 18892, Note_on_c, 0, 73, 78
1, 18963, Control_c, 0, 64, 46
1, 18978, Control_c, 0, 64, 67
1, 18993, Control_c, 0, 64, 74
1, 19007, Control_c, 0, 64, 81
1, 19022, Control_c, 0, 64, 87
1, 19037, Control_c, 0, 64, 88
1, 19045, Note_off_c, 0, 61, 25
1, 19046, Note_off_c, 0, 73, 64
1, 19052, Control_c, 0, 64, 89
1, 19067, Control_c, 0, 64, 90
1, 19081, Control_c, 0, 64, 91
1, 19096, Control_c, 0, 64, 92
1, 19101, Note_on_c, 0, 65, 44
1, 19102, Note_on_c, 0, 56, 36
1, 19111, Control_c, 0, 64, 93
1, 19126, Control_c, 0, 64, 94
1, 19167, Note_off_c, 0, 65, 52
1, 19186, Control_c, 0, 64, 94
1, 19221, Note_on_c, 0, 68, 46
1, 19234, Note_off_c, 0, 53, 27
1, 19252, Note_off_c, 0, 68, 54
1, 19259, Note_on_c, 0, 61, 23
1, 19273, Note_off_c, 0, 56, 38
1, 19315, Note_off_c, 0, 61, 41
1, 19349, Control_c, 0, 64, 95
1, 19433, Note_on_c, 0, 65, 34
1, 19443, Note_on_c, 0, 73, 5
1, 19460, Control_c, 0, 64, 95
1, 19486, Note_off_c, 0, 65, 0
1, 19502, Note_on_c, 0, 65, 41
1, 19505, Control_c, 0, 64, 96
1, 19549, Control_c, 0, 64, 96
1, 19555, Note_off_c, 0, 73, 42
1, 19560, Note_off_c, 0, 65, 58
1, 19594, Control_c, 0, 64, 97
1, 19638, Control_c, 0, 64, 97
1, 19656, Note_on_c, 0, 68, 53
1, 19668, Control_c, 0, 64, 98
1, 19677, Note_off_c, 0, 68, 60
1, 19772, Control_c, 0, 64, 98
1, 19786, Note_on_c, 0, 65, 48
1, 19799, Note_on_c, 0, 56, 39
1, 19815, Note_on_c, 0, 73, 77
1, 19830, Control_c, 0, 64, 99
1, 19845, Control_c, 0, 64, 99
1, 19859, Note_off_c, 0, 65, 48
1, 19860, Control_c, 0, 64, 100
1, 19904, Control_c, 0, 64, 100
1, 19937, Note_on_c, 0, 53, 39
1, 19941, Note_off_c, 0, 73, 62
1, 19955, Note_off_c, 0, 56, 25
1, 19967, Note_off_c, 0, 53, 49
1, 20095, Note_on_c, 0, 78, 86
1, 20098, Control_c, 0, 64, 99
1, 20105, Note_on_c, 0, 51, 53
1, 20113, Control_c, 0, 64, 90
1, 20124, Note_on_c, 0, 72, 43
1, 20127, Control_c, 0, 64, 74
1, 20142, Control_c, 0, 64, 0
1, 20145, Note_on_c, 0, 68, 19
1, 20154, Note_off_c, 0, 72, 51
1, 20178, Note_off_c, 0, 68, 54
1, 20208, Control_c, 0, 64, 52
1, 20223, Control_c, 0, 64, 69
1, 20238, Control_c, 0, 64, 76
1, 20253, Note_off_c, 0, 51, 51
1, 20253, Control_c, 0, 64, 83
1, 20268, Control_c, 0, 64, 87
1, 20271, Note_on_c, 0, 66, 61
1, 20275, Note_on_c, 0, 60, 52
1, 20283, Control_c, 0, 64, 88
1, 20297, Control_c, 0, 64, 88
1, 20306, Note_on_c, 0, 56, 32
1, 20312, Control_c, 0, 64, 90
1, 20327, Control_c, 0, 64, 91
1, 20333, Note_off_c, 0, 66, 53
1, 20342, Control_c, 0, 64, 91
1, 20353, Note_off_c, 0, 78, 57
1, 20357, Control_c, 0, 64, 92
1, 20381, Note_off_c, 0, 60, 58
1, 20387, Control_c, 0, 64, 92
1, 20416, Control_c, 0, 64, 93
1, 20420, Note_on_c, 0, 66, 53
1, 20429, Note_on_c, 0, 72, 72
1, 20455, Note_off_c, 0, 66, 65
1, 20460, Control_c, 0, 64, 93
1, 20505, Control_c, 0, 64, 94
1, 20589, Note_on_c, 0, 78, 84
1, 20688, Note_off_c, 0, 78, 62
1, 20771, Control_c, 0, 64, 93
1, 20775, Note_on_c, 0, 49, 46
1, 20785, Control_c, 0, 64, 90
1, 20790, Note_on_c, 0, 78, 86
1, 20800, Control_c, 0, 64, 80
1, 20810, Note_off_c, 0, 56, 33
1, 20815, Control_c, 0, 64, 64
1, 20831, Note_off_c, 0, 72, 58
1, 20831, Control_c, 0, 64, 0
1, 20890, Control_c, 0, 64, 58
1, 20905, Control_c, 0, 64, 69
1, 20920, Control_c, 0, 64, 74
1, 20935, Control_c, 0, 64, 78
1, 20939, Note_off_c, 0, 49, 61
1, 20956, Control_c, 0, 64, 80
1, 20971, Control_c, 0, 64, 81
1, 20981, Note_on_c, 0, 66, 49
1, 20986, Control_c, 0, 64, 82
1, 20995, Note_on_c, 0, 56, 35
1, 21001, Control_c, 0, 64, 84
1, 21014, Note_off_c, 0, 78, 63
1, 21016, Control_c, 0, 64, 85
1, 21031, Control_c, 0, 64, 86
1, 21046, Control_c, 0, 64, 87
1, 21056, Note_off_c, 0, 66, 35
1, 21058, Note_off_c, 0, 56, 41
1, 21061, Control_c, 0, 64, 87
1, 21105, Control_c, 0, 64, 88
1, 21141, Note_on_c, 0, 68, 51
1, 21151, Note_on_c, 0, 60, 39
1, 21164, Control_c, 0, 64, 88
1, 21232, Note_off_c, 0, 60, 38
1, 21248, Note_off_c, 0, 68, 56
1, 21318, Note_on_c, 0, 72, 48
1, 21330, Note_on_c, 0, 66, 35
1, 21409, Note_off_c, 0, 72, 59
1, 21573, Note_off_c, 0, 66, 41
1, 21589, Note_on_c, 0, 61, 35
1, 21639, Note_on_c, 0, 65, 32
1, 21654, Control_c, 0, 64, 88
1, 21669, Control_c, 0, 64, 87
1, 21684, Control_c, 0, 64, 86
1, 21706, Control_c, 0, 64, 83
1, 21707, Note_on_c, 0, 77, 65
1, 21721, Control_c, 0, 64, 78
1, 21736, Control_c, 0, 64, 69
1, 21751, Control_c, 0, 64, 45
1, 21766, Control_c, 0, 64, 0
1, 21785, Poly_aftertouch_c, 0, 68, 127
1, 21791, Note_on_c, 0, 73, 3
1, 21854, Control_c, 0, 64, 64
1, 21869, Control_c, 0, 64, 70
1, 21884, Control_c, 0, 64, 76
1, 21899, Control_c, 0, 64, 81
1, 21913, Control_c, 0, 64, 83
1, 21928, Control_c, 0, 64, 84
1, 21940, Note_off_c, 0, 65, 43
1, 21943, Control_c, 0, 64, 85
1, 21958, Control_c, 0, 64, 86
1, 21973, Control_c, 0, 64, 87
1, 21988, Control_c, 0, 64, 88
1, 21995, Note_off_c, 0, 73, 39
1, 21997, Note_off_c, 0, 61, 49
1, 22003, Control_c, 0, 64, 88
1, 22073, Poly_aftertouch_c, 0, 68, 0
1, 22313, Control_c, 0, 64, 88
1, 22327, Control_c, 0, 64, 87
1, 22339, Note_on_c, 0, 75, 57
1, 22342, Control_c, 0, 64, 85
1, 22355, Note_off_c, 0, 77, 37
1, 22356, Note_on_c, 0, 57, 36
1, 22357, Control_c, 0, 64, 80
1, 22363, Note_on_c, 0, 49, 20
1, 22372, Control_c, 0, 64, 68
1, 22387, Control_c, 0, 64, 0
1, 22454, Control_c, 0, 64, 57
1, 22469, Control_c, 0, 64, 69
1, 22484, Control_c, 0, 64, 73
1, 22499, Control_c, 0, 64, 77
1, 22514, Control_c, 0, 64, 78
1, 22528, Control_c, 0, 64, 80
1, 22534, Note_on_c, 0, 66, 51
1, 22543, Control_c, 0, 64, 81
1, 22558, Control_c, 0, 64, 82
1, 22573, Control_c, 0, 64, 83
1, 22588, Control_c, 0, 64, 83
1, 22602, Control_c, 0, 64, 84
1, 22661, Control_c, 0, 64, 83
1, 22676, Control_c, 0, 64, 80
1, 22679, Note_off_c, 0, 75, 24
1, 22691, Control_c, 0, 64, 72
1, 22703, Note_on_c, 0, 73, 61
1, 22706, Control_c, 0, 64, 62
1, 22709, Note_off_c, 0, 57, 40
1, 22715, Note_on_c, 0, 58, 44
1, 22721, Control_c, 0, 64, 0
1, 22733, Note_off_c, 0, 66, 32
1, 22751, Control_c, 0, 64, 54
1, 22766, Control_c, 0, 64, 66
1, 22781, Control_c, 0, 64, 71
1, 22795, Control_c, 0, 64, 76
1, 22810, Control_c, 0, 64, 78
1, 22825, Control_c, 0, 64, 80
1, 22840, Control_c, 0, 64, 80
1, 22843, Note_off_c, 0, 73, 58
1, 22850, Note_off_c, 0, 58, 57
1, 22854, Control_c, 0, 64, 81
1, 22869, Control_c, 0, 64, 82
1, 22884, Control_c, 0, 64, 83
1, 22894, Note_on_c, 0, 65, 50
1, 22899, Control_c, 0, 64, 83
1, 22914, Control_c, 0, 64, 84
1, 22928, Control_c, 0, 64, 84
1, 23017, Control_c, 0, 64, 84
1, 23032, Control_c, 0, 64, 83
1, 23039, Note_off_c, 0, 65, 41
1, 23046, Control_c, 0, 64, 79
1, 23056, Note_on_c, 0, 72, 65
1, 23061, Control_c, 0, 64, 71
1, 23073, Note_on_c, 0, 60, 34
1, 23076, Control_c, 0, 64, 52
1, 23091, Control_c, 0, 64, 0
1, 23135, Control_c, 0, 64, 30
1, 23150, Control_c, 0, 64, 65
1, 23165, Control_c, 0, 64, 71
1, 23180, Control_c, 0, 64, 74
1, 23202, Control_c, 0, 64, 76
1, 23217, Note_off_c, 0, 60, 53
1, 23217, Control_c, 0, 64, 77
1, 23219, Note_off_c, 0, 49, 39
1, 23233, Control_c, 0, 64, 78
1, 23248, Control_c, 0, 64, 79
1, 23249, Note_on_c, 0, 63, 47
1, 23263, Control_c, 0, 64, 80
1, 23277, Control_c, 0, 64, 81
1, 23307, Control_c, 0, 64, 82
1, 23389, Note_on_c, 0, 49, 28
1, 23440, Control_c, 0, 64, 81
1, 23455, Control_c, 0, 64, 80
1, 23465, Note_off_c, 0, 72, 60
1, 23469, Note_on_c, 0, 70, 62
1, 23469, Control_c, 0, 64, 77
1, 23475, Note_off_c, 0, 63, 37
1, 23484, Control_c, 0, 64, 73
1, 23499, Control_c, 0, 64, 66
1, 23514, Control_c, 0, 64, 44
1, 23529, Control_c, 0, 64, 0
1, 23657, Note_on_c, 0, 61, 38
1, 23707, Control_c, 0, 64, 25
1, 23722, Control_c, 0, 64, 47
1, 23737, Control_c, 0, 64, 54
1, 23751, Control_c, 0, 64, 57
1, 23766, Control_c, 0, 64, 61
1, 23781, Control_c, 0, 64, 63
1, 23795, Control_c, 0, 64, 65
1, 23810, Control_c, 0, 64, 67
1, 23825, Control_c, 0, 64, 69
1, 23836, Note_on_c, 0, 64, 32
1, 23840, Control_c, 0, 64, 71
1, 23855, Control_c, 0, 64, 75
1, 23869, Control_c, 0, 64, 78
1, 23884, Control_c, 0, 64, 80
1, 23899, Control_c, 0, 64, 82
1, 23914, Control_c, 0, 64, 82
1, 23929, Control_c, 0, 64, 83
1, 23951, Control_c, 0, 64, 84
1, 23966, Control_c, 0, 64, 84
1, 23981, Control_c, 0, 64, 85
1, 24073, Note_off_c, 0, 64, 31
1, 24103, Note_on_c, 0, 67, 37
1, 24164, Note_off_c, 0, 67, 0
1, 24179, Note_on_c, 0, 67, 35
1, 24190, Note_off_c, 0, 61, 34
1, 24238, Note_off_c, 0, 67, 43
1, 24348, Note_on_c, 0, 64, 38
1, 24362, Note_off_c, 0, 70, 36
1, 24480, Note_off_c, 0, 64, 29
1, 24507, Note_on_c, 0, 70, 59
1, 24521, Note_on_c, 0, 61, 39
1, 24608, Note_off_c, 0, 61, 46
1, 24645, Note_on_c, 0, 58, 50
1, 24693, Control_c, 0, 64, 84
1, 24715, Control_c, 0, 64, 84
1, 24730, Control_c, 0, 64, 82
1, 24745, Control_c, 0, 64, 77
1, 24759, Note_off_c, 0, 58, 59
1, 24760, Control_c, 0, 64, 68
1, 24774, Control_c, 0, 64, 0
1, 24781, Note_on_c, 0, 72, 70
1, 24787, Note_off_c, 0, 70, 49
1, 24801, Note_on_c, 0, 55, 46
1, 24834, Control_c, 0, 64, 48
1, 24849, Control_c, 0, 64, 66
1, 24864, Control_c, 0, 64, 71
1, 24870, Note_off_c, 0, 72, 63
1, 24879, Control_c, 0, 64, 74
1, 24894, Control_c, 0, 64, 75
1, 24906, Note_off_c, 0, 55, 57
1, 24909, Control_c, 0, 64, 76
1, 24923, Control_c, 0, 64, 76
1, 24935, Note_on_c, 0, 58, 52
1, 24938, Control_c, 0, 64, 77
1, 24953, Control_c, 0, 64, 78
1, 24968, Control_c, 0, 64, 79
1, 24997, Control_c, 0, 64, 79
1, 25014, Note_off_c, 0, 58, 63
1, 25027, Control_c, 0, 64, 80
1, 25040, Note_on_c, 0, 73, 74
1, 25056, Control_c, 0, 64, 80
1, 25071, Control_c, 0, 64, 81
1, 25075, Note_on_c, 0, 64, 37
1, 25092, Note_off_c, 0, 49, 37
1, 25105, Note_off_c, 0, 64, 53
1, 25150, Note_off_c, 0, 73, 58
1, 25194, Note_on_c, 0, 67, 42
1, 25234, Control_c, 0, 64, 80
1, 25249, Control_c, 0, 64, 78
1, 25259, Note_off_c, 0, 67, 36
1, 25264, Control_c, 0, 64, 75
1, 25279, Control_c, 0, 64, 68
1, 25281, Note_on_c, 0, 48, 43
1, 25290, Note_on_c, 0, 56, 35
1, 25294, Control_c, 0, 64, 45
1, 25309, Control_c, 0, 64, 0
1, 25361, Note_on_c, 0, 75, 70
1, 25404, Note_on_c, 0, 63, 11
1, 25449, Control_c, 0, 64, 62
1, 25464, Control_c, 0, 64, 67
1, 25471, Note_off_c, 0, 48, 55
1, 25479, Control_c, 0, 64, 70
1, 25494, Control_c, 0, 64, 72
1, 25503, Note_off_c, 0, 56, 51
1, 25509, Control_c, 0, 64, 74
1, 25523, Control_c, 0, 64, 76
1, 25534, Note_off_c, 0, 63, 41
1, 25538, Note_on_c, 0, 60, 42
1, 25538, Control_c, 0, 64, 78
1, 25553, Control_c, 0, 64, 79
1, 25568, Control_c, 0, 64, 80
1, 25599, Note_off_c, 0, 60, 54
1, 25628, Control_c, 0, 64, 80
1, 25676, Note_on_c, 0, 68, 61
1, 25679, Note_on_c, 0, 63, 49
1, 25714, Note_off_c, 0, 75, 60
1, 25777, Note_off_c, 0, 68, 64
1, 25779, Note_off_c, 0, 63, 38
1, 25882, Note_on_c, 0, 66, 60
1, 25902, Note_off_c, 0, 66, 63
1, 25969, Control_c, 0, 64, 80
1, 25988, Note_on_c, 0, 66, 49
1, 25998, Control_c, 0, 64, 79
1, 26013, Control_c, 0, 64, 79
1, 26016, Note_off_c, 0, 66, 53
1, 26027, Control_c, 0, 64, 78
1, 26033, Note_on_c, 0, 68, 67
1, 26042, Control_c, 0, 64, 77
1, 26057, Control_c, 0, 64, 76
1, 26071, Control_c, 0, 64, 76
1, 26172, Note_on_c, 0, 63, 29
1, 26225, Note_off_c, 0, 63, 48
1, 26364, Note_on_c, 0, 60, 38
1, 26390, Control_c, 0, 64, 75
1, 26405, Control_c, 0, 64, 74
1, 26420, Control_c, 0, 64, 71
1, 26435, Control_c, 0, 64, 68
1, 26450, Control_c, 0, 64, 64
1, 26465, Control_c, 0, 64, 63
1, 26480, Control_c, 0, 64, 65
1, 26495, Control_c, 0, 64, 67
1, 26504, Note_off_c, 0, 60, 38
1, 26510, Control_c, 0, 64, 69
1, 26518, Note_on_c, 0, 56, 45
1, 26525, Control_c, 0, 64, 72
1, 26539, Control_c, 0, 64, 74
1, 26554, Control_c, 0, 64, 75
1, 26569, Control_c, 0, 64, 77
1, 26584, Control_c, 0, 64, 77
1, 26599, Control_c, 0, 64, 78
1, 26619, Note_off_c, 0, 56, 43
1, 26702, Control_c, 0, 64, 76
1, 26717, Control_c, 0, 64, 72
1, 26721, Note_on_c, 0, 65, 48
1, 26723, Note_on_c, 0, 49, 32
1, 26732, Control_c, 0, 64, 65
1, 26747, Control_c, 0, 64, 34
1, 26762, Control_c, 0, 64, 0
1, 26791, Control_c, 0, 64, 11
1, 26806, Control_c, 0, 64, 63
1, 26820, Control_c, 0, 64, 68
1, 26835, Control_c, 0, 64, 70
1, 26850, Control_c, 0, 64, 72
1, 26870, Note_off_c, 0, 65, 56
1, 26894, Control_c, 0, 64, 71
1, 26907, Note_on_c, 0, 56, 41
1, 26909, Control_c, 0, 64, 69
1, 26918, Note_on_c, 0, 61, 37
1, 26924, Control_c, 0, 64, 69
1, 26947, Control_c, 0, 64, 70
1, 26962, Control_c, 0, 64, 74
1, 26976, Control_c, 0, 64, 79
1, 26991, Control_c, 0, 64, 84
1, 27006, Control_c, 0, 64, 86
1, 27022, Note_off_c, 0, 56, 37
1, 27050, Control_c, 0, 64, 86
1, 27062, Note_on_c, 0, 73, 71
1, 27064, Note_off_c, 0, 68, 57
1, 27065, Control_c, 0, 64, 81
1, 27078, Note_on_c, 0, 46, 52
1, 27080, Control_c, 0, 64, 71
1, 27081, Note_on_c, 0, 64, 52
1, 27083, Note_off_c, 0, 61, 20
1, 27094, Control_c, 0, 64, 45
1, 27096, Note_off_c, 0, 49, 36
1, 27109, Control_c, 0, 64, 0
1, 27139, Control_c, 0, 64, 46
1, 27154, Control_c, 0, 64, 69
1, 27168, Control_c, 0, 64, 75
1, 27179, Note_off_c, 0, 46, 58
1, 27183, Control_c, 0, 64, 80
1, 27198, Control_c, 0, 64, 82
1, 27202, Note_off_c, 0, 73, 60
1, 27214, Control_c, 0, 64, 82
1, 27215, Note_on_c, 0, 58, 48
1, 27226, Note_on_c, 0, 68, 54
1, 27229, Control_c, 0, 64, 83
1, 27231, Note_off_c, 0, 64, 58
1, 27243, Control_c, 0, 64, 85
1, 27258, Control_c, 0, 64, 86
1, 27268, Note_off_c, 0, 58, 54
1, 27273, Control_c, 0, 64, 87
1, 27332, Control_c, 0, 64, 86
1, 27347, Control_c, 0, 64, 83
1, 27362, Control_c, 0, 64, 76
1, 27368, Note_on_c, 0, 72, 78
1, 27374, Note_on_c, 0, 56, 46
1, 27377, Control_c, 0, 64, 63
1, 27392, Control_c, 0, 64, 0
1, 27395, Note_on_c, 0, 51, 38
1, 27408, Note_off_c, 0, 68, 36
1, 27451, Control_c, 0, 64, 52
1, 27466, Control_c, 0, 64, 67
1, 27481, Control_c, 0, 64, 72
1, 27496, Control_c, 0, 64, 75
1, 27511, Control_c, 0, 64, 77
1, 27525, Control_c, 0, 64, 79
1, 27529, Note_on_c, 0, 60, 54
1, 27540, Control_c, 0, 64, 80
1, 27555, Control_c, 0, 64, 81
1, 27561, Note_off_c, 0, 72, 56
1, 27570, Control_c, 0, 64, 81
1, 27599, Control_c, 0, 64, 82
1, 27602, Note_off_c, 0, 60, 45
1, 27644, Note_off_c, 0, 56, 30
1, 27652, Note_on_c, 0, 72, 78
1, 27674, Note_on_c, 0, 63, 53
1, 27720, Note_off_c, 0, 63, 45
1, 27725, Control_c, 0, 64, 82
1, 27749, Note_off_c, 0, 51, 42
1, 27769, Control_c, 0, 64, 83
1, 27805, Note_off_c, 0, 72, 54
1, 27830, Note_on_c, 0, 68, 57
1, 27981, Note_on_c, 0, 39, 51
1, 27991, Control_c, 0, 64, 82
1, 28006, Control_c, 0, 64, 80
1, 28022, Control_c, 0, 64, 72
1, 28037, Control_c, 0, 64, 56
1, 28052, Control_c, 0, 64, 0
1, 28053, Note_on_c, 0, 72, 73
1, 28072, Note_off_c, 0, 68, 58
1, 28126, Control_c, 0, 64, 64
1, 28140, Control_c, 0, 64, 71
1, 28155, Control_c, 0, 64, 76
1, 28162, Note_off_c, 0, 72, 63
1, 28170, Control_c, 0, 64, 81
1, 28185, Control_c, 0, 64, 83
1, 28200, Control_c, 0, 64, 84
1, 28215, Control_c, 0, 64, 84
1, 28230, Control_c, 0, 64, 85
1, 28245, Control_c, 0, 64, 86
1, 28274, Control_c, 0, 64, 86
1, 28379, Note_on_c, 0, 70, 72
1, 28393, Control_c, 0, 64, 85
1, 28398, Note_on_c, 0, 56, 49
1, 28408, Control_c, 0, 64, 82
1, 28423, Control_c, 0, 64, 74
1, 28445, Control_c, 0, 64, 64
1, 28460, Control_c, 0, 64, 0
1, 28504, Control_c, 0, 64, 66
1, 28519, Control_c, 0, 64, 73
1, 28534, Control_c, 0, 64, 78
1, 28549, Control_c, 0, 64, 81
1, 28572, Note_on_c, 0, 61, 58
1, 28580, Note_off_c, 0, 56, 37
1, 28593, Control_c, 0, 64, 79
1, 28608, Control_c, 0, 64, 73
1, 28623, Control_c, 0, 64, 64
1, 28638, Control_c, 0, 64, 44
1, 28653, Control_c, 0, 64, 56
1, 28667, Control_c, 0, 64, 65
1, 28682, Control_c, 0, 64, 72
1, 28697, Control_c, 0, 64, 77
1, 28712, Control_c, 0, 64, 82
1, 28722, Note_off_c, 0, 61, 55
1, 28727, Control_c, 0, 64, 83
1, 28741, Control_c, 0, 64, 83
1, 28786, Control_c, 0, 64, 84
1, 28800, Control_c, 0, 64, 84
1, 28839, Note_on_c, 0, 63, 47
1, 28867, Note_off_c, 0, 63, 54
1, 28876, Control_c, 0, 64, 84
1, 28890, Control_c, 0, 64, 83
1, 28905, Control_c, 0, 64, 81
1, 28920, Control_c, 0, 64, 77
1, 28935, Control_c, 0, 64, 69
1, 28950, Control_c, 0, 64, 46
1, 28953, Note_on_c, 0, 63, 48
1, 28964, Control_c, 0, 64, 0
1, 29023, Control_c, 0, 64, 65
1, 29038, Control_c, 0, 64, 72
1, 29053, Control_c, 0, 64, 77
1, 29068, Control_c, 0, 64, 80
1, 29083, Control_c, 0, 64, 81
1, 29097, Control_c, 0, 64, 82
1, 29112, Control_c, 0, 64, 83
1, 29121, Note_off_c, 0, 39, 59
1, 29127, Control_c, 0, 64, 85
1, 29142, Control_c, 0, 64, 85
1, 29157, Control_c, 0, 64, 86
1, 29194, Control_c, 0, 64, 86
1, 29215, Note_off_c, 0, 63, 35
1, 29217, Note_on_c, 0, 61, 52
1, 29260, Note_off_c, 0, 70, 57
1, 29391, Note_on_c, 0, 55, 46
1, 29535, Note_on_c, 0, 72, 64
1, 29604, Note_off_c, 0, 55, 58
1, 29628, Note_off_c, 0, 61, 27
1, 29660, Note_on_c, 0, 51, 39
1, 29728, Control_c, 0, 64, 86
1, 29758, Control_c, 0, 64, 85
1, 29773, Control_c, 0, 64, 84
1, 29787, Control_c, 0, 64, 81
1, 29802, Control_c, 0, 64, 77
1, 29815, Note_on_c, 0, 44, 31
1, 29817, Control_c, 0, 64, 71
1, 29832, Control_c, 0, 64, 61
1, 29838, Note_on_c, 0, 68, 54
1, 29846, Control_c, 0, 64, 0
1, 29863, Note_off_c, 0, 72, 54
1, 29966, Note_on_c, 0, 56, 44
1, 30118, Note_on_c, 0, 60, 42
1, 30194, Control_c, 0, 64, 63
1, 30209, Control_c, 0, 64, 69
1, 30224, Control_c, 0, 64, 73
1, 30239, Control_c, 0, 64, 76
1, 30254, Control_c, 0, 64, 79
1, 30269, Control_c, 0, 64, 81
1, 30283, Control_c, 0, 64, 83
1, 30298, Control_c, 0, 64, 83
1, 30313, Control_c, 0, 64, 84
1, 30328, Control_c, 0, 64, 85
1, 30343, Control_c, 0, 64, 85
1, 30376, Note_off_c, 0, 60, 36
1, 30377, Note_on_c, 0, 63, 41
1, 30432, Control_c, 0, 64, 86
1, 30434, Note_off_c, 0, 63, 0
1, 30450, Note_on_c, 0, 63, 31
1, 30516, Note_off_c, 0, 63, 42
1, 30547, Note_off_c, 0, 56, 40
1, 30566, Note_off_c, 0, 44, 40
1, 30615, Note_off_c, 0, 51, 36
1, 30629, Note_on_c, 0, 60, 40
1, 30704, Note_off_c, 0, 60, 40
1, 30766, Note_on_c, 0, 56, 42
1, 30892, Note_on_c, 0, 51, 52
1, 30898, Note_off_c, 0, 56, 26
1, 30935, Note_off_c, 0, 51, 59
1, 31044, Note_on_c, 0, 51, 49
1, 31078, Note_on_c, 0, 44, 35
1, 31155, Note_off_c, 0, 51, 56
1, 31187, Note_on_c, 0, 56, 49
1, 31216, Note_off_c, 0, 44, 35
1, 31250, Note_off_c, 0, 56, 50
1, 31312, Note_on_c, 0, 60, 45
1, 31387, Note_off_c, 0, 60, 48
1, 31408, Note_on_c, 0, 44, 50
1, 31451, Note_off_c, 0, 44, 62
1, 31455, Control_c, 0, 67, 123
1, 31470, Control_c, 0, 67, 104
1, 31485, Note_off_c, 0, 68, 61
1, 31485, Control_c, 0, 67, 83
1, 31493, Note_on_c, 0, 51, 56
1, 31493, Poly_aftertouch_c, 0, 63, 127
1, 31500, Control_c, 0, 67, 62
1, 31515, Control_c, 0, 67, 42
1, 31517, Poly_aftertouch_c, 0, 63, 0
1, 31529, Control_c, 0, 67, 21
1, 31544, Control_c, 0, 67, 8
1, 31559, Control_c, 0, 67, 0
1, 31609, Note_on_c, 0, 56, 62
1, 31678, Control_c, 0, 64, 86
1, 31696, Note_off_c, 0, 51, 37
1, 31727, Note_on_c, 0, 60, 84
1, 31732, Note_off_c, 0, 56, 63
1, 31796, Control_c, 0, 64, 87
1, 31805, Note_on_c, 0, 63, 48
1, 31809, Note_on_c, 0, 72, 51
1, 31825, Control_c, 0, 64, 87
1, 31840, Control_c, 0, 64, 88
1, 31854, Note_off_c, 0, 63, 45
1, 31855, Control_c, 0, 64, 88
1, 31870, Control_c, 0, 64, 89
1, 31898, Note_off_c, 0, 60, 29
1, 31899, Control_c, 0, 64, 89
1, 31906, Note_off_c, 0, 72, 64
1, 31928, Note_on_c, 0, 75, 59
1, 31929, Control_c, 0, 64, 90
1, 31963, Note_off_c, 0, 75, 66
1, 31974, Control_c, 0, 64, 90
1, 31987, Note_on_c, 0, 60, 81
1, 32046, Note_off_c, 0, 60, 59
1, 32093, Note_on_c, 0, 80, 64
1, 32099, Note_on_c, 0, 60, 69
1, 32108, Note_on_c, 0, 72, 44
1, 32133, Note_off_c, 0, 72, 57
1, 32170, Note_off_c, 0, 60, 58
1, 32218, Note_off_c, 0, 80, 32
1, 32227, Note_on_c, 0, 84, 70
1, 32236, Note_on_c, 0, 75, 55
1, 32244, Note_on_c, 0, 63, 89
1, 32293, Note_off_c, 0, 84, 60
1, 32340, Note_off_c, 0, 75, 37
1, 32359, Note_off_c, 0, 63, 59
1, 32379, Note_on_c, 0, 80, 66
1, 32397, Note_on_c, 0, 72, 64
1, 32397, Control_c, 0, 64, 91
1, 32407, Note_off_c, 0, 80, 68
1, 32422, Note_off_c, 0, 72, 65
1, 32548, Note_on_c, 0, 68, 57
1, 32579, Note_off_c, 0, 68, 52
1, 32631, Poly_aftertouch_c, 0, 74, 0
1, 32652, Note_on_c, 0, 56, 80
1, 32687, Note_on_c, 0, 72, 58
1, 32712, Note_off_c, 0, 56, 62
1, 32739, Note_off_c, 0, 72, 57
1, 32744, Poly_aftertouch_c, 0, 63, 0
1, 32767, Control_c, 0, 64, 87
1, 32767, Poly_aftertouch_c, 0, 63, 0
1, 32781, Control_c, 0, 64, 78
1, 32795, Note_on_c, 0, 56, 75
1, 32796, Control_c, 0, 64, 55
1, 32812, Note_on_c, 0, 51, 46
1, 32812, Control_c, 0, 64, 0
1, 32818, Note_on_c, 0, 44, 53
1, 32832, Note_on_c, 0, 72, 47
1, 32847, Note_on_c, 0, 63, 10
1, 32856, Control_c, 0, 64, 35
1, 32862, Note_off_c, 0, 51, 58
1, 32871, Control_c, 0, 64, 67
1, 32886, Control_c, 0, 64, 76
1, 32895, Note_off_c, 0, 44, 64
1, 32901, Control_c, 0, 64, 83
1, 32910, Note_off_c, 0, 63, 43
1, 32916, Control_c, 0, 64, 86
1, 32928, Note_off_c, 0, 72, 54
1, 32953, Control_c, 0, 64, 86
1, 32971, Note_on_c, 0, 75, 64
1, 32978, Note_off_c, 0, 56, 63
1, 32983, Control_c, 0, 64, 87
1, 32997, Control_c, 0, 64, 87
1, 33004, Note_on_c, 0, 68, 14
1, 33009, Note_on_c, 0, 54, 14
1, 33012, Control_c, 0, 64, 88
1, 33027, Control_c, 0, 64, 88
1, 33046, Note_off_c, 0, 68, 54
1, 33052, Note_off_c, 0, 54, 39
1, 33054, Note_off_c, 0, 75, 51
1, 33071, Control_c, 0, 64, 84
1, 33074, Note_on_c, 0, 58, 83
1, 33086, Note_on_c, 0, 55, 62
1, 33086, Control_c, 0, 64, 71
1, 33101, Control_c, 0, 64, 16
1, 33112, Note_on_c, 0, 70, 62
1, 33116, Control_c, 0, 64, 0
1, 33123, Note_off_c, 0, 55, 66
1, 33126, Note_on_c, 0, 63, 47
1, 33145, Control_c, 0, 64, 43
1, 33160, Control_c, 0, 64, 68
1, 33172, Note_off_c, 0, 58, 62
1, 33175, Control_c, 0, 64, 76
1, 33190, Control_c, 0, 64, 84
1, 33205, Control_c, 0, 64, 85
1, 33210, Note_off_c, 0, 70, 61
1, 33239, Note_on_c, 0, 75, 63
1, 33248, Note_on_c, 0, 44, 71
1, 33249, Control_c, 0, 64, 86
1, 33264, Control_c, 0, 64, 86
1, 33278, Note_off_c, 0, 63, 23
1, 33279, Control_c, 0, 64, 87
1, 33294, Control_c, 0, 64, 88
1, 33309, Control_c, 0, 64, 88
1, 33312, Note_off_c, 0, 44, 63
1, 33345, Note_on_c, 0, 51, 34
1, 33355, Note_off_c, 0, 75, 29
1, 33439, Note_on_c, 0, 56, 57
1, 33481, Note_on_c, 0, 60, 83
1, 33486, Control_c, 0, 64, 85
1, 33501, Control_c, 0, 64, 75
1, 33515, Control_c, 0, 64, 58
1, 33529, Control_c, 0, 64, 0
1, 33541, Note_on_c, 0, 72, 32
1, 33574, Control_c, 0, 64, 29
1, 33588, Control_c, 0, 64, 66
1, 33604, Control_c, 0, 64, 73
1, 33613, Note_off_c, 0, 72, 35
1, 33619, Control_c, 0, 64, 78
1, 33634, Control_c, 0, 64, 80
1, 33646, Note_on_c, 0, 75, 51
1, 33649, Control_c, 0, 64, 81
1, 33664, Control_c, 0, 64, 81
1, 33670, Note_off_c, 0, 75, 59
1, 33685, Control_c, 0, 64, 82
1, 33687, Note_off_c, 0, 51, 39
1, 33700, Control_c, 0, 64, 84
1, 33715, Control_c, 0, 64, 85
1, 33730, Control_c, 0, 64, 86
1, 33736, Note_off_c, 0, 60, 55
1, 33745, Control_c, 0, 64, 86
1, 33789, Control_c, 0, 64, 87
1, 33795, Note_off_c, 0, 56, 55
1, 33799, Note_on_c, 0, 80, 56
1, 33816, Note_on_c, 0, 72, 35
1, 33831, Note_off_c, 0, 80, 49
1, 33849, Control_c, 0, 67, 9
1, 33850, Note_off_c, 0, 72, 50
1, 33864, Control_c, 0, 67, 17
1, 33878, Control_c, 0, 67, 31
1, 33893, Control_c, 0, 67, 51
1, 33908, Control_c, 0, 67, 73
1, 33923, Control_c, 0, 67, 93
1, 33938, Control_c, 0, 67, 108
1, 33953, Control_c, 0, 67, 123
1, 33967, Control_c, 0, 67, 127
1, 34025, Note_on_c, 0, 75, 51
1, 34039, Note_on_c, 0, 84, 40
1, 34054, Note_off_c, 0, 75, 51
1, 34078, Note_off_c, 0, 84, 45
1, 34120, Note_on_c, 0, 84, 43
1, 34131, Note_on_c, 0, 75, 45
1, 34163, Note_off_c, 0, 84, 48
1, 34191, Note_off_c, 0, 75, 51
1, 34262, Note_on_c, 0, 80, 30
1, 34267, Note_on_c, 0, 72, 51
1, 34294, Note_off_c, 0, 72, 55
1, 34294, Note_off_c, 0, 80, 46
1, 34421, Note_on_c, 0, 75, 52
1, 34447, Note_on_c, 0, 68, 37
1, 34479, Note_off_c, 0, 75, 44
1, 34492, Note_off_c, 0, 68, 46
1, 34581, Note_on_c, 0, 72, 50
1, 34583, Note_on_c, 0, 63, 49
1, 34615, Note_off_c, 0, 72, 49
1, 34616, Note_off_c, 0, 63, 51
1, 34751, Note_on_c, 0, 56, 80
1, 34790, Note_on_c, 0, 63, 57
1, 34804, Note_on_c, 0, 72, 44
1, 34880, Note_off_c, 0, 56, 63
1, 34896, Note_off_c, 0, 63, 48
1, 34910, Note_off_c, 0, 72, 42
1, 34935, Note_on_c, 0, 75, 63
1, 34938, Control_c, 0, 64, 87
1, 34944, Note_on_c, 0, 68, 45
1, 34967, Note_off_c, 0, 68, 57
1, 34967, Control_c, 0, 64, 88
1, 34978, Note_off_c, 0, 75, 60
1, 34997, Control_c, 0, 64, 88
1, 34997, Control_c, 0, 67, 125
1, 35013, Control_c, 0, 67, 107
1, 35027, Control_c, 0, 64, 89
1, 35027, Control_c, 0, 67, 89
1, 35042, Control_c, 0, 67, 73
1, 35048, Note_on_c, 0, 56, 80
1, 35057, Control_c, 0, 64, 89
1, 35057, Control_c, 0, 67, 57
1, 35072, Control_c, 0, 67, 47
1, 35083, Note_on_c, 0, 68, 45
1, 35087, Control_c, 0, 67, 40
1, 35091, Note_on_c, 0, 75, 60
1, 35100, Note_off_c, 0, 56, 61
1, 35101, Control_c, 0, 64, 90
1, 35101, Control_c, 0, 67, 34
1, 35116, Control_c, 0, 67, 30
1, 35119, Note_off_c, 0, 68, 53
1, 35130, Note_off_c, 0, 75, 60
1, 35131, Control_c, 0, 67, 28
1, 35146, Control_c, 0, 67, 26
1, 35160, Control_c, 0, 67, 25
1, 35183, Control_c, 0, 67, 24
1, 35197, Note_on_c, 0, 49, 66
1, 35198, Control_c, 0, 67, 24
1, 35214, Control_c, 0, 67, 23
1, 35224, Note_on_c, 0, 80, 55
1, 35258, Control_c, 0, 64, 90
1, 35328, Note_off_c, 0, 49, 58
1, 35329, Note_on_c, 0, 56, 65
1, 35343, Note_off_c, 0, 80, 27
1, 35406, Control_c, 0, 67, 23
1, 35436, Control_c, 0, 64, 90
1, 35451, Control_c, 0, 64, 86
1, 35465, Note_on_c, 0, 65, 79
1, 35465, Control_c, 0, 64, 75
1, 35480, Control_c, 0, 64, 0
1, 35510, Control_c, 0, 67, 22
1, 35522, Note_on_c, 0, 77, 52
1, 35534, Note_on_c, 0, 68, 30
1, 35554, Control_c, 0, 64, 64
1, 35569, Control_c, 0, 64, 73
1, 35578, Note_off_c, 0, 68, 47
1, 35583, Control_c, 0, 64, 80
1, 35598, Control_c, 0, 64, 84
1, 35598, Control_c, 0, 67, 23
1, 35613, Control_c, 0, 64, 84
1, 35619, Note_off_c, 0, 77, 57
1, 35628, Control_c, 0, 64, 85
1, 35628, Control_c, 0, 67, 23
1, 35640, Note_on_c, 0, 80, 62
1, 35643, Control_c, 0, 64, 85
1, 35643, Control_c, 0, 67, 24
1, 35658, Control_c, 0, 64, 86
1, 35658, Control_c, 0, 67, 25
1, 35673, Control_c, 0, 64, 86
1, 35673, Control_c, 0, 67, 27
1, 35681, Note_off_c, 0, 80, 60
1, 35687, Note_off_c, 0, 65, 54
1, 35688, Control_c, 0, 64, 87
1, 35688, Control_c, 0, 67, 29
1, 35703, Control_c, 0, 64, 87
1, 35703, Control_c, 0, 67, 31
1, 35718, Control_c, 0, 64, 88
1, 35718, Control_c, 0, 67, 35
1, 35732, Control_c, 0, 67, 39
1, 35735, Note_off_c, 0, 56, 54
1, 35747, Control_c, 0, 64, 88
1, 35747, Control_c, 0, 67, 48
1, 35762, Control_c, 0, 67, 62
1, 35776, Control_c, 0, 67, 87
1, 35786, Note_on_c, 0, 85, 60
1, 35791, Control_c, 0, 67, 111
1, 35800, Note_on_c, 0, 77, 46
1, 35806, Control_c, 0, 67, 127
1, 35834, Note_off_c, 0, 85, 50
1, 35849, Note_off_c, 0, 77, 40
1, 36029, Note_on_c, 0, 80, 53
1, 36035, Note_on_c, 0, 89, 51
1, 36054, Note_off_c, 0, 80, 54
1, 36061, Note_off_c, 0, 89, 53
1, 36126, Note_on_c, 0, 89, 55
1, 36153, Note_on_c, 0, 80, 47
1, 36179, Note_off_c, 0, 89, 45
1, 36232, Note_off_c, 0, 80, 39
1, 36290, Note_on_c, 0, 77, 54
1, 36315, Note_off_c, 0, 77, 57
1, 36569, Control_c, 0, 64, 88
1, 36584, Control_c, 0, 64, 84
1, 36596, Note_on_c, 0, 67, 51
1, 36598, Control_c, 0, 64, 76
1, 36612, Note_on_c, 0, 75, 72
1, 36613, Control_c, 0, 64, 65
1, 36628, Control_c, 0, 64, 0
1, 36658, Control_c, 0, 64, 18
1, 36680, Control_c, 0, 64, 64
1, 36695, Control_c, 0, 64, 71
1, 36696, Note_off_c, 0, 67, 58
1, 36710, Control_c, 0, 64, 77
1, 36725, Control_c, 0, 64, 82
1, 36739, Note_off_c, 0, 75, 63
1, 36739, Control_c, 0, 64, 84
1, 36754, Control_c, 0, 64, 84
1, 36769, Control_c, 0, 64, 85
1, 36784, Control_c, 0, 64, 86
1, 36785, Note_on_c, 0, 68, 45
1, 36797, Note_on_c, 0, 63, 45
1, 36812, Note_off_c, 0, 68, 55
1, 36815, Control_c, 0, 64, 86
1, 36829, Control_c, 0, 64, 87
1, 36903, Control_c, 0, 64, 86
1, 36904, Note_off_c, 0, 63, 36
1, 36918, Control_c, 0, 64, 81
1, 36930, Note_on_c, 0, 73, 75
1, 36933, Control_c, 0, 64, 69
1, 36948, Control_c, 0, 64, 0
1, 36952, Note_on_c, 0, 65, 39
1, 37007, Control_c, 0, 64, 60
1, 37022, Control_c, 0, 64, 69
1, 37036, Note_off_c, 0, 73, 64
1, 37036, Control_c, 0, 64, 74
1, 37051, Control_c, 0, 64, 78
1, 37066, Control_c, 0, 64, 80
1, 37081, Control_c, 0, 64, 80
1, 37082, Note_on_c, 0, 68, 50
1, 37083, Note_on_c, 0, 61, 50
1, 37096, Control_c, 0, 64, 81
1, 37110, Control_c, 0, 64, 81
1, 37125, Control_c, 0, 64, 82
1, 37144, Note_off_c, 0, 61, 50
1, 37154, Control_c, 0, 64, 81
1, 37169, Control_c, 0, 64, 79
1, 37184, Control_c, 0, 64, 71
1, 37199, Control_c, 0, 64, 0
1, 37210, Note_off_c, 0, 65, 60
1, 37217, Note_on_c, 0, 72, 70
1, 37239, Note_on_c, 0, 63, 43
1, 37244, Note_off_c, 0, 68, 37
1, 37259, Control_c, 0, 64, 52
1, 37274, Control_c, 0, 64, 69
1, 37289, Control_c, 0, 64, 76
1, 37303, Control_c, 0, 64, 81
1, 37316, Note_off_c, 0, 63, 61
1, 37318, Control_c, 0, 64, 82
1, 37333, Control_c, 0, 64, 83
1, 37347, Control_c, 0, 64, 84
1, 37362, Control_c, 0, 64, 85
1, 37369, Note_off_c, 0, 72, 55
1, 37377, Control_c, 0, 64, 87
1, 37384, Note_on_c, 0, 60, 55
1, 37387, Note_on_c, 0, 68, 56
1, 37392, Control_c, 0, 64, 89
1, 37407, Control_c, 0, 64, 90
1, 37408, Note_off_c, 0, 60, 59
1, 37434, Note_off_c, 0, 68, 64
1, 37444, Control_c, 0, 64, 91
1, 37473, Control_c, 0, 64, 91
1, 37488, Control_c, 0, 64, 92
1, 37592, Control_c, 0, 64, 91
1, 37608, Control_c, 0, 64, 89
1, 37622, Control_c, 0, 64, 83
1, 37635, Note_on_c, 0, 70, 63
1, 37637, Control_c, 0, 64, 73
1, 37646, Note_on_c, 0, 58, 42
1, 37652, Note_on_c, 0, 56, 35
1, 37652, Control_c, 0, 64, 42
1, 37656, Note_on_c, 0, 64, 40
1, 37667, Control_c, 0, 64, 0
1, 37674, Note_on_c, 0, 49, 17
1, 37741, Control_c, 0, 64, 62
1, 37756, Control_c, 0, 64, 68
1, 37771, Control_c, 0, 64, 72
1, 37785, Control_c, 0, 64, 75
1, 37800, Control_c, 0, 64, 77
1, 37805, Note_off_c, 0, 64, 41
1, 37815, Control_c, 0, 64, 79
1, 37829, Note_off_c, 0, 70, 61
1, 37830, Control_c, 0, 64, 81
1, 37840, Note_on_c, 0, 76, 52
1, 37845, Note_on_c, 0, 68, 38
1, 37845, Control_c, 0, 64, 82
1, 37859, Control_c, 0, 64, 83
1, 37861, Note_off_c, 0, 76, 63
1, 37873, Note_off_c, 0, 68, 54
1, 37874, Control_c, 0, 64, 83
1, 37889, Control_c, 0, 64, 84
1, 37904, Control_c, 0, 64, 84
1, 37919, Control_c, 0, 64, 85
1, 37933, Control_c, 0, 64, 86
1, 37948, Control_c, 0, 64, 86
1, 37963, Control_c, 0, 64, 87
1, 38008, Control_c, 0, 64, 87
1, 38010, Note_on_c, 0, 80, 53
1, 38028, Note_on_c, 0, 70, 32
1, 38034, Note_off_c, 0, 80, 58
1, 38061, Note_off_c, 0, 70, 46
1, 38067, Control_c, 0, 64, 88
1, 38152, Note_off_c, 0, 58, 60
1, 38157, Note_off_c, 0, 49, 37
1, 38227, Note_on_c, 0, 82, 63
1, 38262, Note_off_c, 0, 56, 37
1, 38263, Note_off_c, 0, 82, 54
1, 38296, Poly_aftertouch_c, 0, 76, 0
1, 38322, Note_on_c, 0, 82, 63
1, 38332, Poly_aftertouch_c, 0, 76, 127
1, 38385, Note_off_c, 0, 82, 58
1, 38406, Poly_aftertouch_c, 0, 76, 0
1, 38460, Note_on_c, 0, 80, 45
1, 38460, Note_on_c, 0, 70, 58
1, 38478, Note_off_c, 0, 70, 62
1, 38484, Note_off_c, 0, 80, 56
1, 38593, Note_on_c, 0, 76, 49
1, 38636, Note_off_c, 0, 76, 46
1, 38676, Poly_aftertouch_c, 0, 68, 0
1, 38716, Note_on_c, 0, 70, 49
1, 38719, Note_on_c, 0, 64, 33
1, 38745, Note_on_c, 0, 49, 57
1, 38752, Note_off_c, 0, 64, 48
1, 38758, Note_off_c, 0, 70, 44
1, 38822, Note_on_c, 0, 55, 60
1, 38875, Control_c, 0, 64, 87
1, 38889, Note_on_c, 0, 58, 79
1, 38890, Control_c, 0, 64, 82
1, 38905, Control_c, 0, 64, 71
1, 38927, Control_c, 0, 64, 0
1, 38987, Control_c, 0, 64, 63
1, 39001, Control_c, 0, 64, 69
1, 39003, Note_off_c, 0, 55, 56
1, 39016, Control_c, 0, 64, 74
1, 39031, Control_c, 0, 64, 78
1, 39035, Note_on_c, 0, 63, 64
1, 39041, Note_on_c, 0, 70, 57
1, 39046, Control_c, 0, 64, 80
1, 39061, Control_c, 0, 64, 82
1, 39075, Control_c, 0, 64, 83
1, 39090, Control_c, 0, 64, 85
1, 39102, Note_off_c, 0, 63, 53
1, 39105, Control_c, 0, 64, 86
1, 39105, Control_c, 0, 67, 119
1, 39120, Control_c, 0, 64, 86
1, 39120, Control_c, 0, 67, 94
1, 39134, Control_c, 0, 64, 87
1, 39134, Control_c, 0, 67, 71
1, 39149, Control_c, 0, 67, 51
1, 39151, Note_off_c, 0, 70, 50
1, 39158, Note_on_c, 0, 55, 79
1, 39164, Note_on_c, 0, 67, 50
1, 39164, Control_c, 0, 64, 87
1, 39164, Control_c, 0, 67, 35
1, 39179, Control_c, 0, 67, 25
1, 39188, Note_off_c, 0, 58, 61
1, 39189, Note_off_c, 0, 67, 56
1, 39194, Control_c, 0, 67, 20
1, 39210, Control_c, 0, 64, 88
1, 39210, Control_c, 0, 67, 17
1, 39221, Note_off_c, 0, 49, 60
1, 39224, Control_c, 0, 67, 17
1, 39239, Control_c, 0, 67, 16
1, 39269, Control_c, 0, 64, 88
1, 39269, Control_c, 0, 67, 16
1, 39284, Control_c, 0, 67, 15
1, 39286, Note_on_c, 0, 51, 75
1, 39286, Note_off_c, 0, 55, 63
1, 39313, Control_c, 0, 67, 15
1, 39417, Control_c, 0, 64, 84
1, 39432, Control_c, 0, 64, 74
1, 39439, Note_on_c, 0, 56, 81
1, 39447, Control_c, 0, 64, 14
1, 39462, Control_c, 0, 64, 0
1, 39462, Control_c, 0, 67, 14
1, 39466, Note_on_c, 0, 68, 63
1, 39477, Control_c, 0, 67, 14
1, 39480, Note_on_c, 0, 48, 44
1, 39491, Note_on_c, 0, 60, 31
1, 39523, Note_off_c, 0, 60, 41
1, 39536, Control_c, 0, 64, 64
1, 39550, Control_c, 0, 64, 70
1, 39565, Note_off_c, 0, 68, 58
1, 39565, Control_c, 0, 64, 75
1, 39579, Note_on_c, 0, 72, 68
1, 39580, Control_c, 0, 64, 80
1, 39595, Control_c, 0, 64, 82
1, 39600, Note_off_c, 0, 72, 66
1, 39610, Control_c, 0, 64, 84
1, 39624, Control_c, 0, 64, 86
1, 39639, Control_c, 0, 64, 87
1, 39654, Control_c, 0, 64, 88
1, 39676, Control_c, 0, 64, 89
1, 39691, Control_c, 0, 64, 90
1, 39706, Control_c, 0, 64, 91
1, 39718, Note_on_c, 0, 75, 67
1, 39721, Control_c, 0, 64, 91
1, 39724, Note_on_c, 0, 68, 63
1, 39736, Control_c, 0, 64, 92
1, 39750, Control_c, 0, 64, 93
1, 39752, Note_off_c, 0, 75, 61
1, 39762, Note_off_c, 0, 68, 62
1, 39780, Control_c, 0, 64, 93
1, 39785, Note_off_c, 0, 48, 44
1, 39810, Control_c, 0, 64, 94
1, 39869, Control_c, 0, 64, 94
1, 39884, Note_off_c, 0, 56, 56
1, 39913, Control_c, 0, 64, 95
1, 39914, Note_on_c, 0, 72, 68
1, 39919, Note_on_c, 0, 80, 64
1, 39928, Control_c, 0, 64, 95
1, 39941, Note_off_c, 0, 80, 62
1, 39951, Note_off_c, 0, 72, 58
1, 39957, Control_c, 0, 64, 96
1, 39987, Control_c, 0, 64, 96
1, 40008, Note_on_c, 0, 72, 63
1, 40016, Note_on_c, 0, 80, 67
1, 40033, Control_c, 0, 64, 97
1, 40040, Note_off_c, 0, 80, 60
1, 40062, Control_c, 0, 64, 97
1, 40072, Note_off_c, 0, 72, 63
1, 40125, Note_on_c, 0, 75, 66
1, 40132, Note_on_c, 0, 68, 71
1, 40152, Note_off_c, 0, 75, 69
1, 40158, Note_off_c, 0, 68, 67
1, 40225, Control_c, 0, 64, 98
1, 40229, Note_off_c, 0, 51, 40
1, 40240, Note_on_c, 0, 56, 72
1, 40268, Note_on_c, 0, 72, 62
1, 40269, Note_on_c, 0, 63, 72
1, 40277, Note_off_c, 0, 56, 64
1, 40303, Note_off_c, 0, 63, 63
1, 40311, Note_off_c, 0, 72, 61
1, 40314, Control_c, 0, 67, 14
1, 40368, Note_on_c, 0, 68, 73
1, 40372, Note_on_c, 0, 60, 58
1, 40391, Note_on_c, 0, 46, 72
1, 40392, Note_off_c, 0, 60, 61
1, 40407, Note_off_c, 0, 68, 62
1, 40454, Control_c, 0, 64, 97
1, 40460, Note_on_c, 0, 51, 62
1, 40469, Control_c, 0, 64, 90
1, 40471, Note_off_c, 0, 46, 63
1, 40475, Note_on_c, 0, 55, 68
1, 40484, Control_c, 0, 64, 77
1, 40484, Control_c, 0, 67, 14
1, 40499, Control_c, 0, 64, 56
1, 40499, Control_c, 0, 67, 13
1, 40514, Control_c, 0, 64, 0
1, 40529, Control_c, 0, 67, 13
1, 40532, Note_on_c, 0, 61, 86
1, 40559, Control_c, 0, 64, 64
1, 40574, Control_c, 0, 64, 72
1, 40588, Control_c, 0, 64, 80
1, 40603, Control_c, 0, 64, 84
1, 40603, Note_off_c, 0, 61, 66
1, 40618, Control_c, 0, 64, 85
1, 40618, Control_c, 0, 67, 12
1, 40633, Control_c, 0, 67, 12
1, 40635, Note_off_c, 0, 55, 48
1, 40647, Control_c, 0, 64, 86
1, 40649, Note_on_c, 0, 63, 66
1, 40651, Note_on_c, 0, 73, 67
1, 40656, Note_off_c, 0, 51, 64
1, 40662, Control_c, 0, 64, 86
1, 40662, Control_c, 0, 67, 11
1, 40677, Control_c, 0, 64, 88
1, 40678, Note_off_c, 0, 63, 66
1, 40692, Control_c, 0, 64, 89
1, 40706, Control_c, 0, 64, 89
1, 40713, Note_off_c, 0, 73, 63
1, 40721, Control_c, 0, 64, 90
1, 40736, Control_c, 0, 64, 91
1, 40751, Control_c, 0, 64, 91
1, 40776, Note_on_c, 0, 75, 71
1, 40780, Control_c, 0, 64, 92
1, 40795, Note_on_c, 0, 67, 60
1, 40811, Control_c, 0, 64, 92
1, 40826, Control_c, 0, 67, 11
1, 40829, Note_off_c, 0, 67, 66
1, 40833, Note_on_c, 0, 61, 73
1, 40839, Note_off_c, 0, 75, 61
1, 40841, Control_c, 0, 64, 93
1, 40856, Control_c, 0, 67, 10
1, 40866, Note_off_c, 0, 61, 62
1, 40870, Control_c, 0, 64, 93
1, 40885, Control_c, 0, 67, 9
1, 40892, Note_on_c, 0, 79, 80
1, 40900, Control_c, 0, 64, 94
1, 40900, Control_c, 0, 67, 8
1, 40906, Note_on_c, 0, 73, 60
1, 40915, Control_c, 0, 64, 94
1, 40930, Control_c, 0, 64, 95
1, 40930, Control_c, 0, 67, 8
1, 40944, Control_c, 0, 64, 95
1, 40955, Note_on_c, 0, 44, 52
1, 40958, Note_off_c, 0, 73, 53
1, 40974, Control_c, 0, 64, 96
1, 40983, Note_off_c, 0, 44, 55
1, 41034, Note_off_c, 0, 79, 50
1, 41052, Note_on_c, 0, 61, 93
1, 41098, Note_off_c, 0, 61, 64
1, 41197, Note_on_c, 0, 75, 76
1, 41203, Control_c, 0, 64, 96
1, 41204, Note_on_c, 0, 67, 70
1, 41253, Note_off_c, 0, 67, 55
1, 41295, Note_off_c, 0, 75, 54
1, 41321, Note_on_c, 0, 79, 75
1, 41330, Note_on_c, 0, 70, 50
1, 41349, Note_off_c, 0, 79, 62
1, 41353, Note_off_c, 0, 70, 59
1, 41445, Note_on_c, 0, 85, 81
1, 41505, Note_off_c, 0, 85, 61
1, 41544, Control_c, 0, 64, 95
1, 41559, Control_c, 0, 64, 87
1, 41563, Note_on_c, 0, 60, 81
1, 41569, Note_on_c, 0, 56, 57
1, 41574, Control_c, 0, 64, 73
1, 41577, Note_on_c, 0, 51, 59
1, 41587, Note_on_c, 0, 84, 60
1, 41589, Control_c, 0, 64, 0
1, 41608, Note_on_c, 0, 75, 5
1, 41634, Note_off_c, 0, 84, 54
1, 41645, Note_off_c, 0, 75, 55
1, 41649, Control_c, 0, 64, 65
1, 41664, Control_c, 0, 64, 73
1, 41679, Control_c, 0, 64, 80
1, 41691, Note_on_c, 0, 80, 66
1, 41693, Control_c, 0, 64, 86
1, 41700, Note_on_c, 0, 72, 64
1, 41708, Control_c, 0, 64, 88
1, 41708, Control_c, 0, 67, 8
1, 41715, Note_off_c, 0, 80, 64
1, 41723, Note_off_c, 0, 72, 65
1, 41723, Control_c, 0, 64, 88
1, 41738, Control_c, 0, 64, 89
1, 41745, Note_off_c, 0, 60, 53
1, 41752, Control_c, 0, 64, 89
1, 41767, Control_c, 0, 64, 90
1, 41797, Control_c, 0, 64, 89
1, 41812, Control_c, 0, 64, 85
1, 41815, Note_on_c, 0, 60, 74
1, 41826, Control_c, 0, 64, 74
1, 41827, Note_on_c, 0, 80, 69
1, 41841, Control_c, 0, 64, 46
1, 41844, Note_on_c, 0, 72, 41
1, 41856, Control_c, 0, 64, 0
1, 41881, Note_off_c, 0, 80, 63
1, 41891, Note_off_c, 0, 72, 51
1, 41900, Control_c, 0, 64, 60
1, 41921, Note_off_c, 0, 51, 62
1, 41923, Control_c, 0, 64, 70
1, 41938, Control_c, 0, 64, 77
1, 41952, Control_c, 0, 64, 82
1, 41965, Note_on_c, 0, 75, 57
1, 41967, Control_c, 0, 64, 85
1, 41970, Note_on_c, 0, 68, 64
1, 41982, Control_c, 0, 64, 86
1, 41985, Note_off_c, 0, 75, 62
1, 41992, Note_off_c, 0, 68, 58
1, 41997, Control_c, 0, 64, 87
1, 42012, Control_c, 0, 64, 88
1, 42026, Control_c, 0, 64, 89
1, 42041, Control_c, 0, 64, 90
1, 42041, Control_c, 0, 67, 8
1, 42056, Control_c, 0, 64, 90
1, 42097, Note_off_c, 0, 56, 36
1, 42105, Note_on_c, 0, 63, 76
1, 42107, Note_on_c, 0, 54, 63
1, 42115, Control_c, 0, 64, 85
1, 42120, Note_on_c, 0, 75, 40
1, 42130, Note_on_c, 0, 68, 45
1, 42130, Control_c, 0, 64, 74
1, 42144, Control_c, 0, 64, 47
1, 42147, Note_off_c, 0, 75, 34
1, 42159, Control_c, 0, 64, 0
1, 42177, Note_off_c, 0, 68, 44
1, 42199, Note_off_c, 0, 63, 65
1, 42204, Control_c, 0, 64, 63
1, 42204, Control_c, 0, 67, 8
1, 42219, Control_c, 0, 64, 71
1, 42219, Control_c, 0, 67, 9
1, 42234, Control_c, 0, 64, 78
1, 42234, Control_c, 0, 67, 10
1, 42241, Note_on_c, 0, 72, 61
1, 42244, Note_on_c, 0, 63, 47
1, 42249, Control_c, 0, 64, 82
1, 42249, Control_c, 0, 67, 14
1, 42257, Note_off_c, 0, 54, 54
1, 42264, Note_off_c, 0, 72, 61
1, 42264, Control_c, 0, 64, 83
1, 42264, Control_c, 0, 67, 16
1, 42274, Note_off_c, 0, 63, 57
1, 42279, Control_c, 0, 67, 19
1, 42292, Note_off_c, 0, 60, 56
1, 42294, Control_c, 0, 64, 84
1, 42294, Control_c, 0, 67, 24
1, 42308, Control_c, 0, 64, 84
1, 42308, Control_c, 0, 67, 37
1, 42323, Control_c, 0, 64, 85
1, 42323, Control_c, 0, 67, 61
1, 42338, Control_c, 0, 64, 86
1, 42338, Control_c, 0, 67, 93
1, 42353, Control_c, 0, 67, 127
1, 42368, Control_c, 0, 64, 86
1, 42368, Control_c, 0, 67, 127
1, 42375, Note_on_c, 0, 63, 61
1, 42392, Note_on_c, 0, 72, 33
1, 42398, Control_c, 0, 64, 87
1, 42403, Note_off_c, 0, 63, 52
1, 42428, Note_off_c, 0, 72, 50
1, 42471, Note_on_c, 0, 56, 71
1, 42472, Control_c, 0, 64, 87
1, 42500, Note_on_c, 0, 68, 61
1, 42502, Control_c, 0, 64, 88
1, 42514, Note_on_c, 0, 60, 34
1, 42530, Note_off_c, 0, 68, 58
1, 42546, Note_off_c, 0, 60, 46
1, 42636, Control_c, 0, 64, 86
1, 42643, Note_on_c, 0, 61, 78
1, 42651, Control_c, 0, 64, 79
1, 42654, Note_on_c, 0, 53, 57
1, 42673, Control_c, 0, 64, 65
1, 42675, Note_on_c, 0, 73, 55
1, 42688, Control_c, 0, 64, 0
1, 42762, Control_c, 0, 64, 48
1, 42776, Note_off_c, 0, 73, 55
1, 42776, Control_c, 0, 64, 66
1, 42787, Note_on_c, 0, 77, 69
1, 42791, Control_c, 0, 64, 71
1, 42800, Note_on_c, 0, 68, 23
1, 42806, Control_c, 0, 64, 75
1, 42819, Note_off_c, 0, 77, 62
1, 42821, Control_c, 0, 64, 79
1, 42835, Note_off_c, 0, 68, 56
1, 42836, Control_c, 0, 64, 82
1, 42851, Control_c, 0, 64, 84
1, 42866, Control_c, 0, 64, 85
1, 42881, Control_c, 0, 64, 86
1, 42895, Control_c, 0, 64, 87
1, 42910, Control_c, 0, 64, 88
1, 42911, Note_on_c, 0, 73, 69
1, 42917, Note_on_c, 0, 80, 69
1, 42925, Control_c, 0, 64, 89
1, 42940, Control_c, 0, 64, 89
1, 42953, Note_off_c, 0, 73, 48
1, 42955, Control_c, 0, 64, 90
1, 42958, Note_off_c, 0, 80, 55
1, 42969, Control_c, 0, 64, 90
1, 42973, Note_off_c, 0, 53, 42
1, 42999, Control_c, 0, 64, 91
1, 43043, Control_c, 0, 64, 91
1, 43055, Note_off_c, 0, 61, 56
1, 43102, Note_on_c, 0, 85, 66
1, 43105, Note_on_c, 0, 77, 67
1, 43129, Note_off_c, 0, 85, 66
1, 43135, Note_off_c, 0, 77, 62
1, 43188, Note_on_c, 0, 77, 73
1, 43200, Note_on_c, 0, 85, 69
1, 43207, Control_c, 0, 64, 92
1, 43251, Note_off_c, 0, 77, 61
1, 43252, Control_c, 0, 64, 92
1, 43261, Note_off_c, 0, 85, 48
1, 43310, Note_on_c, 0, 73, 68
1, 43311, Control_c, 0, 64, 93
1, 43317, Note_on_c, 0, 80, 50
1, 43334, Note_off_c, 0, 73, 69
1, 43340, Note_off_c, 0, 80, 59
1, 43355, Control_c, 0, 64, 93
1, 43370, Control_c, 0, 67, 116
1, 43385, Control_c, 0, 67, 90
1, 43399, Control_c, 0, 64, 94
1, 43399, Control_c, 0, 67, 62
1, 43422, Control_c, 0, 67, 35
1, 43429, Note_on_c, 0, 61, 77
1, 43437, Control_c, 0, 67, 14
1, 43448, Note_on_c, 0, 77, 67
1, 43452, Control_c, 0, 67, 0
1, 43456, Note_on_c, 0, 68, 69
1, 43464, Note_off_c, 0, 56, 40
1, 43485, Note_off_c, 0, 61, 60
1, 43488, Note_off_c, 0, 68, 65
1, 43494, Note_off_c, 0, 77, 49
1, 43554, Note_on_c, 0, 73, 75
1, 43565, Note_on_c, 0, 65, 53
1, 43585, Control_c, 0, 64, 94
1, 43586, Note_on_c, 0, 51, 69
1, 43588, Note_off_c, 0, 65, 60
1, 43605, Note_off_c, 0, 73, 59
1, 43629, Control_c, 0, 64, 94
1, 43641, Note_on_c, 0, 56, 62
1, 43644, Control_c, 0, 64, 89
1, 43658, Note_off_c, 0, 51, 62
1, 43659, Control_c, 0, 64, 77
1, 43667, Note_on_c, 0, 60, 66
1, 43674, Control_c, 0, 64, 58
1, 43689, Control_c, 0, 64, 0
1, 43727, Note_on_c, 0, 66, 88
1, 43733, Control_c, 0, 64, 60
1, 43748, Control_c, 0, 64, 71
1, 43763, Control_c, 0, 64, 80
1, 43778, Control_c, 0, 64, 89
1, 43792, Control_c, 0, 64, 91
1, 43807, Note_off_c, 0, 66, 66
1, 43820, Note_off_c, 0, 60, 38
1, 43835, Note_off_c, 0, 56, 62
1, 43837, Control_c, 0, 64, 91
1, 43846, Note_on_c, 0, 78, 71
1, 43852, Control_c, 0, 64, 92
1, 43853, Note_on_c, 0, 68, 63
1, 43867, Control_c, 0, 64, 93
1, 43881, Control_c, 0, 64, 93
1, 43882, Note_off_c, 0, 68, 66
1, 43896, Control_c, 0, 64, 94
1, 43907, Note_off_c, 0, 78, 61
1, 43911, Control_c, 0, 64, 94
1, 43940, Control_c, 0, 64, 95
1, 43975, Note_on_c, 0, 80, 71
1, 43986, Control_c, 0, 64, 95
1, 44017, Note_on_c, 0, 72, 30
1, 44036, Note_off_c, 0, 80, 62
1, 44045, Control_c, 0, 64, 96
1, 44048, Note_on_c, 0, 66, 68
1, 44050, Note_off_c, 0, 72, 45
1, 44065, Note_off_c, 0, 66, 67
1, 44094, Note_on_c, 0, 78, 71
1, 44100, Note_on_c, 0, 84, 72
1, 44104, Control_c, 0, 64, 96
1, 44148, Control_c, 0, 64, 97
1, 44163, Note_on_c, 0, 51, 48
1, 44163, Control_c, 0, 64, 97
1, 44174, Note_off_c, 0, 78, 58
1, 44201, Control_c, 0, 64, 98
1, 44214, Note_off_c, 0, 51, 47
1, 44255, Note_off_c, 0, 84, 53
1, 44282, Note_on_c, 0, 60, 60
1, 44283, Note_on_c, 0, 66, 83
1, 44294, Note_on_c, 0, 56, 43
1, 44384, Note_off_c, 0, 60, 54
1, 44410, Note_off_c, 0, 56, 63
1, 44430, Note_on_c, 0, 80, 74
1, 44438, Note_on_c, 0, 72, 68
1, 44438, Note_off_c, 0, 66, 62
1, 44491, Note_off_c, 0, 72, 58
1, 44536, Note_off_c, 0, 80, 58
1, 44553, Note_on_c, 0, 84, 75
1, 44567, Note_on_c, 0, 75, 49
1, 44579, Note_off_c, 0, 84, 66
1, 44592, Note_off_c, 0, 75, 52
1, 44711, Note_on_c, 0, 90, 39
1, 44712, Note_off_c, 0, 90, 127
1, 44745, Note_on_c, 0, 89, 26
1, 44780, Note_off_c, 0, 89, 40
1, 44809, Control_c, 0, 67, 8
1, 44824, Control_c, 0, 64, 97
1, 44824, Control_c, 0, 67, 11
1, 44838, Control_c, 0, 64, 93
1, 44838, Control_c, 0, 67, 15
1, 44853, Control_c, 0, 64, 79
1, 44853, Control_c, 0, 67, 23
1, 44857, Note_on_c, 0, 65, 65
1, 44865, Note_on_c, 0, 56, 54
1, 44865, Note_on_c, 0, 61, 51
1, 44865, Note_on_c, 0, 89, 66
1, 44868, Control_c, 0, 64, 58
1, 44868, Control_c, 0, 67, 38
1, 44883, Control_c, 0, 64, 0
1, 44883, Control_c, 0, 67, 63
1, 44884, Note_on_c, 0, 80, 54
1, 44898, Control_c, 0, 67, 85
1, 44920, Control_c, 0, 67, 105
1, 44935, Control_c, 0, 64, 43
1, 44935, Control_c, 0, 67, 121
1, 44949, Control_c, 0, 64, 69
1, 44949, Control_c, 0, 67, 127
1, 44955, Note_off_c, 0, 89, 58
1, 44964, Control_c, 0, 64, 77
1, 44977, Note_off_c, 0, 65, 65
1, 44979, Control_c, 0, 64, 84
1, 44994, Control_c, 0, 64, 88
1, 45003, Note_off_c, 0, 61, 63
1, 45021, Note_off_c, 0, 56, 62
1, 45024, Control_c, 0, 64, 88
1, 45025, Note_on_c, 0, 77, 58
1, 45033, Note_off_c, 0, 80, 42
1, 45036, Note_on_c, 0, 85, 55
1, 45053, Control_c, 0, 64, 89
1, 45057, Note_off_c, 0, 77, 57
1, 45081, Note_off_c, 0, 85, 53
1, 45083, Control_c, 0, 64, 90
1, 45113, Control_c, 0, 64, 90
1, 45142, Control_c, 0, 64, 91
1, 45201, Control_c, 0, 64, 89
1, 45206, Note_on_c, 0, 63, 66
1, 45213, Note_on_c, 0, 90, 66
1, 45215, Note_on_c, 0, 81, 48
1, 45216, Control_c, 0, 64, 81
1, 45221, Note_on_c, 0, 49, 62
1, 45231, Control_c, 0, 64, 68
1, 45245, Control_c, 0, 64, 0
1, 45290, Control_c, 0, 64, 43
1, 45301, Note_off_c, 0, 81, 54
1, 45301, Note_off_c, 0, 90, 62
1, 45304, Control_c, 0, 64, 68
1, 45319, Control_c, 0, 64, 75
1, 45334, Control_c, 0, 64, 83
1, 45338, Note_off_c, 0, 63, 64
1, 45346, Note_on_c, 0, 78, 63
1, 45349, Control_c, 0, 64, 85
1, 45360, Note_on_c, 0, 84, 58
1, 45364, Control_c, 0, 64, 86
1, 45377, Note_off_c, 0, 78, 52
1, 45379, Control_c, 0, 64, 86
1, 45394, Control_c, 0, 64, 87
1, 45409, Control_c, 0, 64, 88
1, 45423, Control_c, 0, 64, 89
1, 45483, Control_c, 0, 64, 88
1, 45486, Note_off_c, 0, 84, 50
1, 45495, Note_on_c, 0, 61, 79
1, 45496, Control_c, 0, 64, 81
1, 45510, Note_on_c, 0, 89, 64
1, 45511, Control_c, 0, 64, 69
1, 45522, Note_on_c, 0, 82, 52
1, 45526, Control_c, 0, 64, 0
1, 45570, Control_c, 0, 64, 49
1, 45575, Note_off_c, 0, 89, 59
1, 45586, Control_c, 0, 64, 68
1, 45601, Control_c, 0, 64, 76
1, 45607, Note_off_c, 0, 82, 60
1, 45616, Control_c, 0, 64, 83
1, 45631, Control_c, 0, 64, 85
1, 45652, Note_on_c, 0, 77, 69
1, 45653, Note_on_c, 0, 85, 65
1, 45668, Control_c, 0, 64, 86
1, 45683, Control_c, 0, 64, 87
1, 45687, Note_off_c, 0, 49, 57
1, 45696, Note_off_c, 0, 85, 60
1, 45698, Control_c, 0, 64, 87
1, 45699, Note_off_c, 0, 61, 53
1, 45708, Note_off_c, 0, 77, 49
1, 45713, Control_c, 0, 64, 88
1, 45728, Control_c, 0, 64, 89
1, 45742, Control_c, 0, 64, 89
1, 45801, Control_c, 0, 64, 88
1, 45816, Control_c, 0, 64, 79
1, 45823, Note_on_c, 0, 60, 77
1, 45831, Control_c, 0, 64, 65
1, 45832, Note_on_c, 0, 49, 57
1, 45832, Note_on_c, 0, 93, 55
1, 45846, Control_c, 0, 64, 0
1, 45849, Note_on_c, 0, 84, 54
1, 45852, Note_off_c, 0, 93, 54
1, 45905, Control_c, 0, 64, 66
1, 45919, Control_c, 0, 64, 72
1, 45934, Control_c, 0, 64, 78
1, 45936, Note_off_c, 0, 84, 63
1, 45949, Control_c, 0, 64, 81
1, 45964, Control_c, 0, 64, 82
1, 45979, Control_c, 0, 64, 82
1, 45993, Control_c, 0, 64, 84
1, 45995, Note_on_c, 0, 87, 67
1, 46005, Note_on_c, 0, 78, 59
1, 46008, Control_c, 0, 64, 85
1, 46023, Control_c, 0, 64, 86
1, 46025, Note_off_c, 0, 78, 60
1, 46039, Note_off_c, 0, 87, 58
1, 46082, Control_c, 0, 64, 86
1, 46112, Control_c, 0, 64, 87
1, 46199, Note_off_c, 0, 49, 35
1, 46302, Note_off_c, 0, 60, 58
1, 46305, Control_c, 0, 64, 86
1, 46309, Note_on_c, 0, 58, 69
1, 46315, Note_on_c, 0, 94, 67
1, 46319, Note_on_c, 0, 55, 49
1, 46320, Control_c, 0, 64, 85
1, 46328, Note_on_c, 0, 49, 45
1, 46328, Note_on_c, 0, 88, 53
1, 46335, Control_c, 0, 64, 81
1, 46350, Control_c, 0, 64, 71
1, 46365, Control_c, 0, 64, 0
1, 46462, Control_c, 0, 64, 63
1, 46464, Note_off_c, 0, 94, 55
1, 46477, Control_c, 0, 64, 70
1, 46484, Note_off_c, 0, 88, 58
1, 46491, Control_c, 0, 64, 76
1, 46504, Note_on_c, 0, 91, 63
1, 46506, Control_c, 0, 64, 79
1, 46521, Control_c, 0, 64, 81
1, 46524, Note_off_c, 0, 91, 59
1, 46525, Note_on_c, 0, 82, 55
1, 46536, Control_c, 0, 64, 83
1, 46550, Note_off_c, 0, 82, 58
1, 46550, Control_c, 0, 64, 84
1, 46565, Control_c, 0, 64, 85
1, 46580, Control_c, 0, 64, 86
1, 46703, Note_on_c, 0, 79, 55
1, 46711, Note_on_c, 0, 88, 46
1, 46731, Note_off_c, 0, 79, 52
1, 46738, Note_off_c, 0, 88, 53
1, 46758, Control_c, 0, 64, 86
1, 47001, Note_on_c, 0, 82, 58
1, 47022, Note_on_c, 0, 76, 35
1, 47022, Note_off_c, 0, 82, 61
1, 47054, Note_off_c, 0, 76, 47
1, 47113, Control_c, 0, 64, 87
1, 47114, Note_on_c, 0, 76, 44
1, 47114, Note_on_c, 0, 82, 48
1, 47150, Note_off_c, 0, 58, 60
1, 47179, Control_c, 0, 64, 87
1, 47220, Note_off_c, 0, 76, 38
1, 47254, Control_c, 0, 64, 88
1, 47287, Note_on_c, 0, 88, 60
1, 47291, Note_on_c, 0, 79, 45
1, 47313, Control_c, 0, 64, 88
1, 47323, Note_off_c, 0, 82, 35
1, 47331, Note_off_c, 0, 88, 41
1, 47385, Note_off_c, 0, 79, 48
1, 47420, Note_on_c, 0, 58, 67
1, 47428, Note_on_c, 0, 82, 49
1, 47440, Note_on_c, 0, 76, 52
1, 47450, Note_off_c, 0, 82, 58
1, 47459, Note_off_c, 0, 76, 62
1, 47463, Note_off_c, 0, 55, 35
1, 47540, Note_off_c, 0, 49, 37
1, 47562, Note_on_c, 0, 70, 68
1, 47571, Note_on_c, 0, 79, 54
1, 47601, Note_off_c, 0, 79, 49
1, 47606, Note_off_c, 0, 70, 46
1, 47683, Control_c, 0, 64, 87
1, 47691, Note_on_c, 0, 60, 78
1, 47698, Control_c, 0, 64, 81
1, 47700, Note_off_c, 0, 58, 59
1, 47707, Note_on_c, 0, 55, 48
1, 47708, Note_on_c, 0, 49, 54
1, 47710, Note_on_c, 0, 76, 60
1, 47713, Control_c, 0, 64, 69
1, 47719, Note_on_c, 0, 67, 52
1, 47728, Control_c, 0, 64, 0
1, 47766, Note_off_c, 0, 67, 43
1, 47788, Control_c, 0, 64, 64
1, 47803, Control_c, 0, 64, 71
1, 47818, Control_c, 0, 64, 78
1, 47832, Control_c, 0, 64, 82
1, 47847, Note_off_c, 0, 76, 41
1, 47847, Control_c, 0, 64, 83
1, 47854, Note_off_c, 0, 60, 61
1, 47857, Note_on_c, 0, 79, 60
1, 47862, Control_c, 0, 64, 84
1, 47867, Note_on_c, 0, 70, 37
1, 47877, Control_c, 0, 64, 85
1, 47889, Note_off_c, 0, 55, 59
1, 47892, Control_c, 0, 64, 85
1, 47907, Control_c, 0, 64, 86
1, 47920, Note_off_c, 0, 70, 0
1, 47920, Note_on_c, 0, 70, 6
1, 47936, Note_off_c, 0, 79, 56
1, 47959, Control_c, 0, 64, 85
1, 47965, Note_off_c, 0, 70, 60
1, 47973, Control_c, 0, 64, 79
1, 47988, Note_on_c, 0, 76, 63
1, 47989, Control_c, 0, 64, 67
1, 47991, Note_on_c, 0, 61, 80
1, 48004, Control_c, 0, 64, 0
1, 48009, Note_on_c, 0, 67, 54
1, 48034, Note_off_c, 0, 67, 62
1, 48040, Note_off_c, 0, 76, 62
1, 48049, Control_c, 0, 64, 54
1, 48063, Control_c, 0, 64, 68
1, 48078, Control_c, 0, 64, 74
1, 48093, Control_c, 0, 64, 79
1, 48108, Control_c, 0, 64, 81
1, 48122, Control_c, 0, 64, 82
1, 48128, Note_off_c, 0, 61, 60
1, 48137, Control_c, 0, 64, 82
1, 48145, Note_off_c, 0, 49, 45
1, 48149, Note_on_c, 0, 70, 67
1, 48152, Control_c, 0, 64, 83
1, 48167, Control_c, 0, 64, 84
1, 48170, Note_on_c, 0, 64, 12
1, 48172, Note_off_c, 0, 70, 65
1, 48182, Control_c, 0, 64, 84
1, 48211, Control_c, 0, 64, 85
1, 48212, Note_off_c, 0, 64, 41
1, 48241, Control_c, 0, 64, 85
1, 48247, Note_on_c, 0, 48, 68
1, 48389, Control_c, 0, 64, 84
1, 48401, Note_on_c, 0, 87, 50
1, 48404, Note_on_c, 0, 78, 52
1, 48404, Control_c, 0, 64, 80
1, 48416, Note_on_c, 0, 63, 74
1, 48419, Control_c, 0, 64, 72
1, 48434, Control_c, 0, 64, 50
1, 48449, Control_c, 0, 64, 0
1, 48463, Note_off_c, 0, 78, 0
1, 48463, Note_on_c, 0, 78, 34
1, 48497, Note_off_c, 0, 87, 28
1, 48522, Control_c, 0, 64, 54
1, 48537, Control_c, 0, 64, 67
1, 48544, Note_off_c, 0, 78, 63
1, 48552, Control_c, 0, 64, 71
1, 48567, Control_c, 0, 64, 75
1, 48581, Control_c, 0, 64, 77
1, 48583, Note_on_c, 0, 80, 53
1, 48592, Note_on_c, 0, 75, 53
1, 48596, Control_c, 0, 64, 78
1, 48603, Note_off_c, 0, 80, 63
1, 48611, Control_c, 0, 64, 79
1, 48617, Note_off_c, 0, 75, 58
1, 48626, Control_c, 0, 64, 80
1, 48641, Control_c, 0, 64, 81
1, 48663, Control_c, 0, 64, 82
1, 48693, Control_c, 0, 64, 82
1, 48722, Control_c, 0, 64, 83
1, 48737, Control_c, 0, 64, 83
1, 48764, Note_on_c, 0, 56, 72
1, 48774, Note_on_c, 0, 68, 66
1, 48782, Note_on_c, 0, 78, 55
1, 48807, Note_off_c, 0, 63, 45
1, 48815, Note_off_c, 0, 78, 48
1, 48823, Note_off_c, 0, 68, 45
1, 49039, Note_off_c, 0, 56, 56
1, 49111, Note_on_c, 0, 66, 66
1, 49117, Note_on_c, 0, 75, 60
1, 49145, Note_off_c, 0, 66, 63
1, 49147, Note_off_c, 0, 75, 55
1, 49235, Note_on_c, 0, 75, 63
1, 49236, Note_on_c, 0, 66, 48
1, 49246, Note_on_c, 0, 56, 48
1, 49340, Note_off_c, 0, 66, 44
1, 49428, Note_off_c, 0, 75, 60
1, 49446, Note_on_c, 0, 78, 66
1, 49459, Note_on_c, 0, 68, 49
1, 49651, Note_off_c, 0, 78, 36
1, 49661, Note_on_c, 0, 75, 58
1, 49662, Note_on_c, 0, 66, 55
1, 49671, Note_off_c, 0, 68, 40
1, 49680, Control_c, 0, 64, 83
1, 49690, Note_off_c, 0, 48, 42
1, 49695, Note_off_c, 0, 66, 54
1, 49704, Note_off_c, 0, 75, 60
1, 49914, Note_on_c, 0, 68, 63
1, 49945, Note_on_c, 0, 63, 23
1, 49996, Note_off_c, 0, 63, 44
1, 50034, Note_off_c, 0, 68, 59
1, 50131, Note_off_c, 0, 56, 28
1, 50201, Note_on_c, 0, 49, 34
1, 50235, Control_c, 0, 64, 82
1, 50250, Control_c, 0, 64, 80
1, 50264, Note_on_c, 0, 68, 72
1, 50264, Control_c, 0, 64, 74
1, 50279, Control_c, 0, 64, 62
1, 50294, Control_c, 0, 64, 0
1, 50339, Control_c, 0, 64, 39
1, 50354, Control_c, 0, 64, 65
1, 50368, Control_c, 0, 64, 69
1, 50384, Control_c, 0, 64, 71
1, 50399, Control_c, 0, 64, 73
1, 50413, Control_c, 0, 64, 73
1, 50428, Control_c, 0, 64, 74
1, 50438, Note_on_c, 0, 65, 52
1, 50443, Control_c, 0, 64, 75
1, 50453, Note_on_c, 0, 56, 42
1, 50458, Note_on_c, 0, 61, 37
1, 50458, Control_c, 0, 64, 76
1, 50473, Note_off_c, 0, 68, 54
1, 50473, Control_c, 0, 64, 77
1, 50488, Control_c, 0, 64, 79
1, 50503, Control_c, 0, 64, 79
1, 50507, Note_off_c, 0, 61, 42
1, 50569, Note_off_c, 0, 56, 27
1, 50577, Control_c, 0, 64, 78
1, 50589, Note_off_c, 0, 65, 36
1, 50591, Control_c, 0, 64, 72
1, 50602, Note_on_c, 0, 46, 54
1, 50602, Note_off_c, 0, 49, 35
1, 50606, Control_c, 0, 64, 53
1, 50608, Note_on_c, 0, 73, 70
1, 50621, Control_c, 0, 64, 0
1, 50680, Control_c, 0, 64, 53
1, 50695, Control_c, 0, 64, 68
1, 50709, Control_c, 0, 64, 73
1, 50724, Control_c, 0, 64, 76
1, 50739, Control_c, 0, 64, 78
1, 50765, Note_off_c, 0, 46, 54
1, 50769, Control_c, 0, 64, 78
1, 50783, Control_c, 0, 64, 79
1, 50798, Control_c, 0, 64, 79
1, 50801, Note_on_c, 0, 58, 51
1, 50810, Note_on_c, 0, 68, 42
1, 50813, Control_c, 0, 64, 80
1, 50828, Control_c, 0, 64, 80
1, 50832, Note_off_c, 0, 73, 33
1, 50837, Note_off_c, 0, 68, 53
1, 50845, Note_off_c, 0, 58, 60
1, 50858, Control_c, 0, 64, 81
1, 50873, Control_c, 0, 64, 81
1, 50994, Note_on_c, 0, 51, 46
1, 50998, Note_on_c, 0, 56, 51
1, 50998, Control_c, 0, 64, 80
1, 51004, Note_on_c, 0, 60, 64
1, 51013, Control_c, 0, 64, 75
1, 51028, Control_c, 0, 64, 64
1, 51039, Note_on_c, 0, 72, 67
1, 51043, Control_c, 0, 64, 0
1, 51053, Note_on_c, 0, 63, 56
1, 51147, Control_c, 0, 64, 53
1, 51162, Control_c, 0, 64, 69
1, 51177, Control_c, 0, 64, 78
1, 51192, Control_c, 0, 64, 86
1, 51192, Control_c, 0, 67, 108
1, 51197, Note_off_c, 0, 60, 56
1, 51197, Note_off_c, 0, 63, 58
1, 51206, Control_c, 0, 64, 91
1, 51206, Control_c, 0, 67, 77
1, 51214, Note_off_c, 0, 72, 62
1, 51215, Note_on_c, 0, 68, 58
1, 51220, Note_on_c, 0, 75, 65
1, 51221, Control_c, 0, 64, 92
1, 51221, Control_c, 0, 67, 39
1, 51235, Note_off_c, 0, 68, 64
1, 51236, Control_c, 0, 64, 92
1, 51236, Control_c, 0, 67, 0
1, 51251, Control_c, 0, 64, 93
1, 51263, Note_off_c, 0, 75, 57
1, 51266, Control_c, 0, 64, 95
1, 51281, Control_c, 0, 64, 96
1, 51296, Control_c, 0, 64, 97
1, 51311, Control_c, 0, 64, 98
1, 51340, Control_c, 0, 64, 99
1, 51403, Note_on_c, 0, 60, 64
1, 51414, Control_c, 0, 64, 99
1, 51435, Note_on_c, 0, 80, 67
1, 51445, Note_off_c, 0, 60, 61
1, 51448, Note_on_c, 0, 72, 49
1, 51455, Note_off_c, 0, 56, 60
1, 51459, Control_c, 0, 64, 100
1, 51503, Control_c, 0, 64, 100
1, 51516, Note_off_c, 0, 51, 60
1, 51561, Note_off_c, 0, 72, 36
1, 51576, Note_off_c, 0, 80, 62
1, 51592, Control_c, 0, 64, 101
1, 51618, Note_on_c, 0, 84, 50
1, 51626, Note_on_c, 0, 75, 38
1, 51644, Note_off_c, 0, 84, 55
1, 51688, Control_c, 0, 64, 97
1, 51702, Note_off_c, 0, 75, 58
1, 51703, Control_c, 0, 64, 85
1, 51718, Control_c, 0, 64, 67
1, 51727, Note_on_c, 0, 39, 72
1, 51733, Control_c, 0, 64, 0
1, 51733, Control_c, 0, 66, 127
1, 51836, Control_c, 0, 64, 64
1, 51851, Control_c, 0, 64, 72
1, 51852, Note_off_c, 0, 39, 64
1, 51865, Control_c, 0, 64, 79
1, 51880, Control_c, 0, 64, 84
1, 51895, Control_c, 0, 64, 87
1, 51910, Control_c, 0, 64, 88
1, 51925, Control_c, 0, 64, 90
1, 51940, Control_c, 0, 64, 92
1, 51955, Control_c, 0, 64, 94
1, 51970, Control_c, 0, 64, 95
1, 51985, Control_c, 0, 64, 97
1, 51993, Note_on_c, 0, 77, 62
1, 51999, Note_on_c, 0, 68, 56
1, 52000, Control_c, 0, 64, 99
1, 52005, Note_on_c, 0, 60, 73
1, 52015, Control_c, 0, 64, 101
1, 52029, Control_c, 0, 64, 103
1, 52044, Control_c, 0, 64, 104
1, 52059, Control_c, 0, 64, 106
1, 52074, Control_c, 0, 64, 108
1, 52089, Control_c, 0, 64, 111
1, 52090, Note_off_c, 0, 68, 52
1, 52104, Control_c, 0, 64, 114
1, 52119, Control_c, 0, 64, 116
1, 52133, Control_c, 0, 64, 120
1, 52141, Note_off_c, 0, 60, 56
1, 52148, Control_c, 0, 64, 126
1, 52163, Control_c, 0, 64, 127
1, 52229, Note_on_c, 0, 80, 76
1, 52234, Note_off_c, 0, 77, 60
1, 52285, Note_off_c, 0, 80, 62
1, 52461, Note_on_c, 0, 58, 78
1, 52476, Note_on_c, 0, 85, 66
1, 52482, Control_c, 0, 64, 116
1, 52488, Note_on_c, 0, 77, 59
1, 52497, Control_c, 0, 64, 98
1, 52512, Control_c, 0, 64, 77
1, 52527, Control_c, 0, 64, 54
1, 52542, Control_c, 0, 64, 0
1, 52586, Control_c, 0, 64, 54
1, 52601, Control_c, 0, 64, 69
1, 52616, Control_c, 0, 64, 79
1, 52631, Control_c, 0, 64, 87
1, 52645, Control_c, 0, 64, 90
1, 52647, Note_off_c, 0, 77, 38
1, 52660, Control_c, 0, 64, 91
1, 52670, Note_on_c, 0, 89, 70
1, 52673, Note_off_c, 0, 85, 63
1, 52675, Control_c, 0, 64, 92
1, 52677, Note_on_c, 0, 80, 62
1, 52689, Control_c, 0, 64, 94
1, 52696, Note_off_c, 0, 89, 68
1, 52704, Control_c, 0, 64, 96
1, 52710, Note_off_c, 0, 80, 57
1, 52719, Control_c, 0, 64, 98
1, 52734, Control_c, 0, 64, 100
1, 52749, Control_c, 0, 64, 100
1, 52763, Control_c, 0, 64, 101
1, 52779, Control_c, 0, 64, 101
1, 52794, Control_c, 0, 64, 102
1, 52809, Control_c, 0, 64, 102
1, 52868, Control_c, 0, 64, 103
1, 52920, Note_on_c, 0, 75, 60
1, 52922, Note_on_c, 0, 67, 61
1, 52942, Control_c, 0, 64, 102
1, 52957, Control_c, 0, 64, 100
1, 52972, Control_c, 0, 64, 91
1, 52986, Control_c, 0, 64, 77
1, 53001, Control_c, 0, 64, 60
1, 53016, Control_c, 0, 64, 0
1, 53061, Control_c, 0, 64, 49
1, 53075, Control_c, 0, 64, 70
1, 53090, Control_c, 0, 64, 78
1, 53105, Control_c, 0, 64, 85
1, 53120, Control_c, 0, 64, 87
1, 53135, Control_c, 0, 64, 88
1, 53157, Control_c, 0, 64, 89
1, 53172, Control_c, 0, 64, 91
1, 53186, Control_c, 0, 64, 93
1, 53199, Note_on_c, 0, 79, 68
1, 53201, Control_c, 0, 64, 94
1, 53216, Note_on_c, 0, 70, 34
1, 53216, Control_c, 0, 64, 95
1, 53231, Control_c, 0, 64, 95
1, 53236, Note_off_c, 0, 67, 57
1, 53246, Control_c, 0, 64, 96
1, 53252, Note_off_c, 0, 70, 52
1, 53260, Control_c, 0, 64, 96
1, 53275, Control_c, 0, 64, 97
1, 53278, Note_off_c, 0, 75, 59
1, 53290, Control_c, 0, 64, 97
1, 53317, Note_off_c, 0, 79, 60
1, 53320, Control_c, 0, 64, 98
1, 53350, Control_c, 0, 64, 98
1, 53379, Control_c, 0, 64, 99
1, 53512, Control_c, 0, 64, 99
1, 53537, Note_off_c, 0, 58, 50
1, 53604, Note_on_c, 0, 60, 38
1, 53607, Note_on_c, 0, 87, 74
1, 53618, Control_c, 0, 64, 100
1, 53620, Note_on_c, 0, 79, 57
1, 53633, Control_c, 0, 64, 100
1, 53648, Control_c, 0, 64, 101
1, 53663, Control_c, 0, 64, 102
1, 53671, Note_off_c, 0, 60, 50
1, 53677, Control_c, 0, 64, 102
1, 53692, Control_c, 0, 64, 103
1, 53707, Control_c, 0, 64, 103
1, 53722, Control_c, 0, 64, 104
1, 53736, Control_c, 0, 64, 105
1, 53751, Control_c, 0, 64, 105
1, 53766, Control_c, 0, 64, 106
1, 53796, Control_c, 0, 64, 106
1, 53810, Control_c, 0, 64, 107
1, 53855, Control_c, 0, 64, 107
1, 53907, Control_c, 0, 64, 108
1, 54018, Note_on_c, 0, 91, 61
1, 54044, Note_on_c, 0, 82, 44
1, 54074, Note_off_c, 0, 79, 31
1, 54081, Note_off_c, 0, 87, 55
1, 54104, Note_off_c, 0, 82, 50
1, 54143, Control_c, 0, 64, 108
1, 54157, Note_off_c, 0, 91, 59
1, 54158, Control_c, 0, 64, 109
1, 54173, Control_c, 0, 64, 109
1, 54188, Control_c, 0, 64, 110
1, 54202, Control_c, 0, 64, 111
1, 54217, Control_c, 0, 64, 111
1, 54232, Control_c, 0, 64, 112
1, 54247, Control_c, 0, 64, 113
1, 54262, Control_c, 0, 64, 113
1, 54277, Control_c, 0, 64, 114
1, 54307, Control_c, 0, 64, 114
1, 54336, Control_c, 0, 64, 115
1, 54351, Control_c, 0, 64, 118
1, 54366, Control_c, 0, 64, 119
1, 54381, Control_c, 0, 64, 120
1, 54381, Control_c, 0, 66, 0
1, 54411, Control_c, 0, 64, 121
1, 54730, Control_c, 0, 67, 14
1, 54745, Control_c, 0, 67, 26
1, 54760, Control_c, 0, 67, 46
1, 54775, Control_c, 0, 67, 72
1, 54789, Control_c, 0, 67, 98
1, 54790, Note_on_c, 0, 44, 42
1, 54804, Control_c, 0, 67, 124
1, 54819, Control_c, 0, 64, 116
1, 54819, Control_c, 0, 67, 127
1, 54829, Note_on_c, 0, 51, 35
1, 54834, Control_c, 0, 64, 103
1, 54849, Control_c, 0, 64, 88
1, 54864, Control_c, 0, 64, 71
1, 54866, Note_on_c, 0, 56, 47
1, 54878, Control_c, 0, 64, 0
1, 54891, Note_on_c, 0, 80, 65
1, 54912, Note_on_c, 0, 72, 43
1, 54923, Control_c, 0, 64, 60
1, 54938, Control_c, 0, 64, 70
1, 54952, Control_c, 0, 64, 78
1, 54967, Control_c, 0, 64, 87
1, 54982, Control_c, 0, 64, 91
1, 54997, Control_c, 0, 64, 92
1, 55012, Control_c, 0, 64, 92
1, 55019, Note_off_c, 0, 44, 42
1, 55026, Control_c, 0, 64, 93
1, 55029, Note_on_c, 0, 84, 67
1, 55030, Note_on_c, 0, 75, 43
1, 55034, Note_off_c, 0, 72, 43
1, 55037, Note_off_c, 0, 80, 62
1, 55041, Control_c, 0, 64, 94
1, 55056, Note_off_c, 0, 75, 51
1, 55056, Control_c, 0, 64, 95
1, 55061, Note_off_c, 0, 84, 64
1, 55071, Control_c, 0, 64, 96
1, 55085, Note_off_c, 0, 56, 51
1, 55085, Control_c, 0, 64, 97
1, 55097, Note_off_c, 0, 51, 38
1, 55100, Control_c, 0, 64, 97
1, 55115, Control_c, 0, 64, 98
1, 55130, Control_c, 0, 64, 98
1, 55145, Control_c, 0, 64, 99
1, 55190, Control_c, 0, 64, 99
1, 55195, Note_on_c, 0, 80, 31
1, 55230, Note_off_c, 0, 80, 47
1, 55278, Control_c, 0, 64, 100
1, 55368, Note_on_c, 0, 92, 70
1, 55371, Note_on_c, 0, 84, 62
1, 55389, Note_off_c, 0, 84, 66
1, 55392, Note_off_c, 0, 92, 64
1, 55462, Note_on_c, 0, 92, 66
1, 55470, Note_on_c, 0, 84, 68
1, 55508, Control_c, 0, 64, 100
1, 55514, Note_off_c, 0, 84, 55
1, 55526, Note_off_c, 0, 92, 58
1, 55538, Control_c, 0, 64, 101
1, 55574, Note_on_c, 0, 80, 65
1, 55576, Note_on_c, 0, 87, 53
1, 55595, Note_off_c, 0, 87, 59
1, 55600, Note_off_c, 0, 80, 66
1, 55718, Note_on_c, 0, 75, 49
1, 55733, Note_on_c, 0, 84, 7
1, 55740, Note_off_c, 0, 75, 63
1, 55784, Note_off_c, 0, 84, 36
1, 55813, Note_on_c, 0, 80, 61
1, 55832, Note_on_c, 0, 72, 31
1, 55863, Note_off_c, 0, 72, 47
1, 55892, Note_off_c, 0, 80, 62
1, 55933, Note_on_c, 0, 75, 61
1, 55952, Control_c, 0, 64, 101
1, 56021, Note_off_c, 0, 75, 62
1, 56037, Note_on_c, 0, 80, 59
1, 56054, Note_on_c, 0, 72, 37
1, 56095, Note_off_c, 0, 80, 63
1, 56181, Note_off_c, 0, 72, 41
1, 56183, Control_c, 0, 64, 102
1, 56208, Note_on_c, 0, 84, 58
1, 56290, Note_off_c, 0, 84, 54
1, 56301, Note_on_c, 0, 87, 71
1, 56316, Note_on_c, 0, 80, 49
1, 56345, Note_off_c, 0, 80, 57
1, 56360, Note_off_c, 0, 87, 62
1, 56360, Control_c, 0, 64, 102
1, 56436, Note_on_c, 0, 72, 65
1, 56470, Note_on_c, 0, 63, 33
1, 56504, Note_off_c, 0, 63, 49
1, 56524, Note_off_c, 0, 72, 61
1, 56578, Note_on_c, 0, 75, 34
1, 56586, Note_on_c, 0, 68, 39
1, 56611, Note_off_c, 0, 75, 53
1, 56620, Note_off_c, 0, 68, 51
1, 56691, Note_on_c, 0, 72, 41
1, 56694, Note_on_c, 0, 80, 46
1, 56722, Note_off_c, 0, 72, 50
1, 56748, Note_off_c, 0, 80, 40
1, 56863, Note_on_c, 0, 75, 59
1, 56877, Note_on_c, 0, 84, 47
1, 56882, Note_off_c, 0, 75, 65
1, 56914, Note_off_c, 0, 84, 50
1, 56957, Note_on_c, 0, 84, 55
1, 56961, Note_on_c, 0, 75, 70
1, 57006, Note_off_c, 0, 84, 52
1, 57011, Note_off_c, 0, 75, 53
1, 57074, Note_on_c, 0, 80, 59
1, 57094, Note_on_c, 0, 72, 37
1, 57120, Note_off_c, 0, 80, 54
1, 57122, Note_off_c, 0, 72, 51
1, 57198, Control_c, 0, 64, 103
1, 57203, Note_on_c, 0, 75, 49
1, 57225, Note_off_c, 0, 75, 63
1, 57228, Note_on_c, 0, 68, 31
1, 57260, Note_off_c, 0, 68, 52
1, 57316, Note_on_c, 0, 63, 52
1, 57358, Note_off_c, 0, 63, 60
1, 57421, Control_c, 0, 64, 103
1, 57444, Note_on_c, 0, 60, 59
1, 57446, Note_on_c, 0, 68, 60
1, 57481, Note_off_c, 0, 60, 61
1, 57491, Note_off_c, 0, 68, 54
1, 57510, Control_c, 0, 64, 104
1, 57580, Note_on_c, 0, 63, 49
1, 57580, Note_on_c, 0, 72, 50
1, 57585, Control_c, 0, 64, 104
1, 57602, Note_off_c, 0, 72, 60
1, 57608, Note_off_c, 0, 63, 56
1, 57714, Note_on_c, 0, 75, 48
1, 57725, Note_on_c, 0, 68, 42
1, 57767, Poly_aftertouch_c, 0, 72, 127
1, 57784, Note_off_c, 0, 68, 40
1, 57801, Note_on_c, 0, 72, 23
1, 57820, Note_off_c, 0, 75, 55
1, 57829, Note_on_c, 0, 80, 43
1, 57853, Note_off_c, 0, 80, 57
1, 57866, Note_off_c, 0, 72, 63
1, 57952, Note_on_c, 0, 63, 64
1, 57967, Note_on_c, 0, 56, 45
1, 58015, Note_off_c, 0, 56, 52
1, 58057, Note_off_c, 0, 63, 62
1, 58071, Note_on_c, 0, 68, 51
1, 58086, Note_on_c, 0, 60, 46
1, 58125, Note_off_c, 0, 68, 62
1, 58203, Note_on_c, 0, 72, 45
1, 58213, Note_off_c, 0, 60, 29
1, 58235, Note_on_c, 0, 63, 17
1, 58288, Note_off_c, 0, 63, 46
1, 58339, Note_off_c, 0, 72, 34
1, 58403, Note_on_c, 0, 75, 48
1, 58404, Note_on_c, 0, 68, 52
1, 58468, Note_off_c, 0, 75, 0
1, 58468, Note_on_c, 0, 75, 38
1, 58472, Note_off_c, 0, 68, 0
1, 58485, Note_on_c, 0, 68, 51
1, 58525, Note_off_c, 0, 75, 62
1, 58545, Note_off_c, 0, 68, 55
1, 58614, Note_on_c, 0, 72, 58
1, 58635, Note_on_c, 0, 63, 37
1, 58659, Note_off_c, 0, 72, 54
1, 58668, Note_off_c, 0, 63, 50
1, 58695, Control_c, 0, 64, 105
1, 58751, Note_on_c, 0, 60, 37
1, 58774, Note_on_c, 0, 68, 15
1, 58787, Note_off_c, 0, 60, 47
1, 58814, Note_off_c, 0, 68, 49
1, 58848, Note_on_c, 0, 56, 47
1, 58873, Note_on_c, 0, 63, 28
1, 58873, Note_off_c, 0, 56, 61
1, 58910, Note_off_c, 0, 63, 45
1, 59057, Note_on_c, 0, 60, 62
1, 59082, Note_on_c, 0, 51, 37
1, 59125, Note_off_c, 0, 51, 46
1, 59225, Note_off_c, 0, 60, 37
1, 59237, Note_on_c, 0, 63, 34
1, 59240, Note_on_c, 0, 56, 44
1, 59269, Note_off_c, 0, 56, 59
1, 59279, Note_off_c, 0, 63, 48
1, 59352, Note_on_c, 0, 68, 45
1, 59431, Note_off_c, 0, 68, 51
1, 59449, Poly_aftertouch_c, 0, 60, 0
1, 59453, Note_on_c, 0, 63, 61
1, 59458, Note_on_c, 0, 72, 53
1, 59498, Note_off_c, 0, 63, 57
1, 59514, Note_off_c, 0, 72, 53
1, 59585, Note_on_c, 0, 60, 61
1, 59602, Note_on_c, 0, 51, 42
1, 59649, Note_off_c, 0, 51, 51
1, 59680, Note_off_c, 0, 60, 50
1, 59728, Note_on_c, 0, 56, 45
1, 59737, Poly_aftertouch_c, 0, 63, 127
1, 59769, Note_off_c, 0, 56, 60
1, 59777, Poly_aftertouch_c, 0, 63, 0
1, 59835, Note_on_c, 0, 68, 41
1, 59842, Note_on_c, 0, 60, 31
1, 59873, Note_off_c, 0, 60, 49
1, 59905, Note_off_c, 0, 68, 45
1, 59950, Note_on_c, 0, 72, 45
1, 59955, Note_on_c, 0, 63, 37
1, 59990, Note_off_c, 0, 63, 50
1, 60000, Note_off_c, 0, 72, 43
1, 60085, Note_on_c, 0, 60, 56
1, 60102, Note_on_c, 0, 51, 27
1, 60129, Note_off_c, 0, 60, 54
1, 60159, Note_off_c, 0, 51, 44
1, 60230, Note_on_c, 0, 56, 38
1, 60253, Poly_aftertouch_c, 0, 63, 127
1, 60277, Note_off_c, 0, 56, 45
1, 60290, Poly_aftertouch_c, 0, 63, 0
1, 60346, Note_on_c, 0, 68, 39
1, 60430, Poly_aftertouch_c, 0, 60, 0
1, 60455, Note_on_c, 0, 72, 47
1, 60474, Note_on_c, 0, 63, 34
1, 60517, Note_off_c, 0, 68, 36
1, 60523, Note_off_c, 0, 63, 45
1, 60528, Note_off_c, 0, 72, 36
1, 60613, Note_on_c, 0, 60, 52
1, 60620, Note_on_c, 0, 51, 35
1, 60662, Note_off_c, 0, 60, 60
1, 60666, Note_off_c, 0, 51, 50
1, 60758, Note_on_c, 0, 63, 45
1, 60793, Note_on_c, 0, 56, 32
1, 60827, Note_off_c, 0, 56, 50
1, 60855, Note_off_c, 0, 63, 35
1, 60966, Note_on_c, 0, 60, 32
1, 60969, Note_on_c, 0, 68, 39
1, 61178, Note_on_c, 0, 72, 35
1, 61179, Note_on_c, 0, 63, 35
1, 61556, Note_off_c, 0, 60, 1
1, 61620, Note_off_c, 0, 63, 33
1, 61765, Control_c, 0, 64, 104
1, 61810, Control_c, 0, 64, 103
1, 61824, Control_c, 0, 64, 101
1, 61833, Note_on_c, 0, 32, 38
1, 61836, Note_on_c, 0, 44, 39
1, 61836, Note_off_c, 0, 72, 38
1, 61839, Control_c, 0, 64, 97
1, 61854, Control_c, 0, 64, 92
1, 61869, Control_c, 0, 64, 84
1, 61869, Note_off_c, 0, 68, 41
1, 61884, Control_c, 0, 64, 73
1, 61899, Control_c, 0, 64, 59
1, 61914, Control_c, 0, 64, 0
1, 62031, Control_c, 0, 64, 63
1, 62046, Control_c, 0, 64, 70
1, 62061, Control_c, 0, 64, 75
1, 62075, Control_c, 0, 64, 82
1, 62090, Control_c, 0, 64, 85
1, 62105, Control_c, 0, 64, 87
1, 62120, Control_c, 0, 64, 89
1, 62140, Note_off_c, 0, 32, 48
1, 62142, Control_c, 0, 64, 91
1, 62157, Control_c, 0, 64, 93
1, 62172, Control_c, 0, 64, 96
1, 62187, Control_c, 0, 64, 98
1, 62202, Control_c, 0, 64, 99
1, 62215, Note_off_c, 0, 44, 41
1, 62216, Control_c, 0, 64, 100
1, 62231, Control_c, 0, 64, 100
1, 62246, Control_c, 0, 64, 101
1, 62261, Control_c, 0, 64, 101
1, 62275, Control_c, 0, 64, 102
1, 62305, Control_c, 0, 64, 102
1, 62691, Note_on_c, 0, 56, 23
1, 62798, Note_on_c, 0, 63, 32
1, 62879, Note_off_c, 0, 56, 35
1, 62906, Control_c, 0, 64, 103
1, 62920, Note_on_c, 0, 68, 31
1, 62946, Note_off_c, 0, 63, 34
1, 62980, Control_c, 0, 64, 103
1, 62992, Note_on_c, 0, 72, 39
1, 62993, Note_off_c, 0, 68, 42
1, 63054, Control_c, 0, 64, 104
1, 63098, Control_c, 0, 64, 104
1, 63106, Note_on_c, 0, 75, 33
1, 63143, Control_c, 0, 64, 105
1, 63177, Note_on_c, 0, 80, 39
1, 63188, Control_c, 0, 64, 105
1, 63233, Control_c, 0, 64, 106
1, 63316, Note_on_c, 0, 84, 39
1, 63351, Control_c, 0, 64, 106
1, 63518, Note_on_c, 0, 92, 50
1, 63654, Note_off_c, 0, 92, 35
1, 64720, Note_off_c, 0, 72, 19
1, 64761, Note_off_c, 0, 75, 30
1, 64887, Note_off_c, 0, 80, 42
1, 65045, Note_off_c, 0, 84, 36
1, 65509, Control_c, 0, 64, 106
1, 65554, Control_c, 0, 64, 105
1, 65569, Control_c, 0, 64, 105
1, 65613, Control_c, 0, 64, 104
1, 65658, Control_c, 0, 64, 104
1, 65688, Control_c, 0, 64, 103
1, 65716, Control_c, 0, 64, 103
1, 65731, Control_c, 0, 64, 102
1, 65746, Control_c, 0, 64, 102
1, 65805, Control_c, 0, 64, 101
1, 65820, Control_c, 0, 64, 101
1, 65849, Control_c, 0, 64, 100
1, 65864, Control_c, 0, 64, 100
1, 65902, Control_c, 0, 64, 99
1, 65916, Control_c, 0, 64, 99
1, 65931, Control_c, 0, 64, 98
1, 65946, Control_c, 0, 64, 97
1, 65961, Control_c, 0, 64, 96
1, 65976, Control_c, 0, 64, 95
1, 65990, Control_c, 0, 64, 94
1, 66005, Control_c, 0, 64, 92
1, 66020, Control_c, 0, 64, 91
1, 66034, Control_c, 0, 64, 90
1, 66049, Control_c, 0, 64, 89
1, 66064, Control_c, 0, 64, 88
1, 66079, Control_c, 0, 64, 86
1, 66094, Control_c, 0, 64, 85
1, 66108, Control_c, 0, 64, 84
1, 66123, Control_c, 0, 64, 83
1, 66138, Control_c, 0, 64, 82
1, 66153, Control_c, 0, 64, 80
1, 66168, Control_c, 0, 64, 79
1, 66182, Control_c, 0, 64, 77
1, 66197, Control_c, 0, 64, 75
1, 66212, Control_c, 0, 64, 73
1, 66227, Control_c, 0, 64, 71
1, 66242, Control_c, 0, 64, 69
1, 66257, Control_c, 0, 64, 68
1, 66272, Control_c, 0, 64, 67
1, 66302, Control_c, 0, 64, 67
1, 66346, Control_c, 0, 64, 66
1, 66376, Control_c, 0, 64, 66
1, 66391, Control_c, 0, 64, 65
1, 66406, Control_c, 0, 64, 64
1, 66421, Control_c, 0, 64, 62
1, 66436, Control_c, 0, 64, 58
1, 66451, Control_c, 0, 64, 53
1, 66465, Control_c, 0, 64, 52
1, 66510, Control_c, 0, 64, 51
1, 66525, Control_c, 0, 64, 49
1, 66539, Control_c, 0, 64, 46
1, 66554, Control_c, 0, 64, 41
1, 66569, Control_c, 0, 64, 36
1, 66584, Control_c, 0, 64, 33
1, 66599, Control_c, 0, 64, 27
1, 66613, Control_c, 0, 64, 0
1, 66991, Control_c, 0, 64, 34
1, 67005, Control_c, 0, 64, 46
1, 67020, Control_c, 0, 64, 52
1, 67035, Control_c, 0, 64, 54
1, 67050, Control_c, 0, 64, 54
1, 67065, Control_c, 0, 64, 55
1, 67080, Control_c, 0, 64, 57
1, 67095, Control_c, 0, 64, 59
1, 67110, Control_c, 0, 64, 61
1, 67124, Control_c, 0, 64, 62
1, 67139, Control_c, 0, 64, 64
1, 67154, Control_c, 0, 64, 65
1, 67169, Control_c, 0, 64, 67
1, 67184, Control_c, 0, 64, 69
1, 67199, Control_c, 0, 64, 72
1, 67215, Control_c, 0, 64, 76
1, 67229, Control_c, 0, 64, 80
1, 67244, Control_c, 0, 64, 83
1, 67244, Control_c, 0, 67, 110
1, 67259, Control_c, 0, 64, 85
1, 67259, Control_c, 0, 67, 91
1, 67274, Control_c, 0, 64, 87
1, 67274, Control_c, 0, 67, 72
1, 67281, Note_on_c, 0, 40, 37
1, 67288, Control_c, 0, 64, 88
1, 67288, Control_c, 0, 67, 53
1, 67303, Control_c, 0, 64, 90
1, 67303, Control_c, 0, 67, 37
1, 67318, Control_c, 0, 64, 93
1, 67318, Control_c, 0, 67, 25
1, 67333, Control_c, 0, 64, 95
1, 67333, Control_c, 0, 67, 17
1, 67348, Control_c, 0, 64, 97
1, 67348, Control_c, 0, 67, 12
1, 67357, Note_on_c, 0, 56, 42
1, 67363, Control_c, 0, 64, 99
1, 67363, Control_c, 0, 67, 9
1, 67368, Note_on_c, 0, 52, 45
1, 67385, Control_c, 0, 64, 101
1, 67385, Control_c, 0, 67, 0
1, 67400, Control_c, 0, 64, 102
1, 67410, Note_on_c, 0, 59, 51
1, 67415, Control_c, 0, 64, 102
1, 67430, Control_c, 0, 64, 103
1, 67443, Note_on_c, 0, 64, 55
1, 67444, Control_c, 0, 64, 104
1, 67474, Control_c, 0, 64, 104
1, 67488, Control_c, 0, 64, 105
1, 67503, Control_c, 0, 64, 105
1, 67514, Note_on_c, 0, 68, 78
1, 67518, Control_c, 0, 64, 106
1, 67533, Control_c, 0, 64, 106
1, 67548, Control_c, 0, 64, 107
1, 67563, Control_c, 0, 64, 107
1, 67578, Control_c, 0, 64, 108
1, 67592, Control_c, 0, 64, 108
1, 67601, Note_off_c, 0, 59, 56
1, 67607, Control_c, 0, 64, 109
1, 67612, Note_off_c, 0, 64, 58
1, 67622, Control_c, 0, 64, 109
1, 67637, Control_c, 0, 64, 110
1, 67667, Control_c, 0, 64, 110
1, 67667, Control_c, 0, 67, 8
1, 67682, Control_c, 0, 67, 11
1, 67696, Control_c, 0, 64, 111
1, 67696, Control_c, 0, 67, 14
1, 67711, Control_c, 0, 67, 19
1, 67726, Control_c, 0, 64, 111
1, 67726, Control_c, 0, 67, 28
1, 67734, Note_off_c, 0, 56, 30
1, 67741, Control_c, 0, 67, 38
1, 67755, Control_c, 0, 64, 112
1, 67755, Control_c, 0, 67, 52
1, 67770, Control_c, 0, 67, 65
1, 67785, Control_c, 0, 64, 112
1, 67785, Control_c, 0, 67, 80
1, 67800, Control_c, 0, 67, 95
1, 67814, Control_c, 0, 67, 111
1, 67829, Control_c, 0, 64, 113
1, 67829, Control_c, 0, 67, 125
1, 67844, Control_c, 0, 67, 127
1, 68135, Note_on_c, 0, 64, 32
1, 68141, Note_on_c, 0, 56, 18
1, 68181, Poly_aftertouch_c, 0, 59, 127
1, 68218, Note_off_c, 0, 56, 36
1, 68222, Note_off_c, 0, 64, 38
1, 68243, Poly_aftertouch_c, 0, 59, 0
1, 68355, Note_on_c, 0, 64, 38
1, 68364, Note_on_c, 0, 59, 27
1, 68370, Note_on_c, 0, 56, 29
1, 68422, Note_off_c, 0, 56, 44
1, 68430, Note_off_c, 0, 64, 54
1, 68455, Note_off_c, 0, 59, 37
1, 68579, Note_on_c, 0, 59, 46
1, 68580, Note_on_c, 0, 64, 45
1, 68600, Note_on_c, 0, 56, 24
1, 68648, Note_off_c, 0, 64, 49
1, 68662, Note_off_c, 0, 56, 42
1, 68668, Note_off_c, 0, 59, 50
1, 68800, Note_on_c, 0, 59, 37
1, 68805, Note_on_c, 0, 64, 42
1, 68809, Note_on_c, 0, 56, 23
1, 68863, Note_off_c, 0, 56, 45
1, 68865, Note_off_c, 0, 64, 49
1, 68907, Note_off_c, 0, 59, 34
1, 68961, Note_off_c, 0, 68, 53
1, 69002, Note_on_c, 0, 64, 51
1, 69006, Note_on_c, 0, 56, 41
1, 69008, Note_on_c, 0, 59, 47
1, 69013, Note_off_c, 0, 52, 51
1, 69035, Note_off_c, 0, 59, 57
1, 69050, Note_off_c, 0, 56, 47
1, 69096, Note_off_c, 0, 64, 50
1, 69208, Control_c, 0, 64, 109
1, 69213, Note_on_c, 0, 66, 72
1, 69223, Control_c, 0, 64, 100
1, 69238, Control_c, 0, 64, 86
1, 69240, Note_on_c, 0, 59, 43
1, 69241, Note_on_c, 0, 64, 47
1, 69242, Note_on_c, 0, 56, 49
1, 69250, Note_on_c, 0, 50, 42
1, 69253, Control_c, 0, 64, 68
1, 69268, Control_c, 0, 64, 0
1, 69298, Control_c, 0, 64, 39
1, 69312, Control_c, 0, 64, 66
1, 69327, Control_c, 0, 64, 75
1, 69342, Control_c, 0, 64, 83
1, 69355, Note_off_c, 0, 66, 58
1, 69357, Control_c, 0, 64, 88
1, 69372, Note_off_c, 0, 56, 36
1, 69387, Control_c, 0, 64, 89
1, 69402, Control_c, 0, 64, 89
1, 69403, Note_off_c, 0, 64, 0
1, 69405, Note_off_c, 0, 59, 0
1, 69416, Control_c, 0, 64, 91
1, 69419, Note_on_c, 0, 64, 26
1, 69426, Note_on_c, 0, 59, 12
1, 69431, Control_c, 0, 64, 92
1, 69444, Note_on_c, 0, 56, 39
1, 69446, Control_c, 0, 64, 94
1, 69460, Control_c, 0, 64, 95
1, 69475, Control_c, 0, 64, 95
1, 69490, Control_c, 0, 64, 96
1, 69491, Note_off_c, 0, 56, 43
1, 69505, Control_c, 0, 64, 96
1, 69513, Note_off_c, 0, 40, 38
1, 69527, Note_off_c, 0, 59, 0
1, 69534, Control_c, 0, 64, 97
1, 69540, Note_on_c, 0, 68, 82
1, 69550, Control_c, 0, 64, 98
1, 69565, Control_c, 0, 64, 98
1, 69566, Poly_aftertouch_c, 0, 59, 127
1, 69580, Control_c, 0, 64, 99
1, 69593, Note_off_c, 0, 50, 39
1, 69595, Control_c, 0, 64, 100
1, 69610, Control_c, 0, 64, 102
1, 69616, Note_on_c, 0, 56, 40
1, 69631, Control_c, 0, 64, 102
1, 69639, Note_off_c, 0, 64, 0
1, 69646, Control_c, 0, 64, 103
1, 69658, Note_on_c, 0, 64, 11
1, 69667, Poly_aftertouch_c, 0, 59, 0
1, 69676, Note_off_c, 0, 56, 43
1, 69676, Control_c, 0, 64, 103
1, 69682, Note_on_c, 0, 40, 44
1, 69697, Note_off_c, 0, 64, 49
1, 69719, Note_off_c, 0, 68, 53
1, 69821, Note_on_c, 0, 49, 45
1, 69839, Control_c, 0, 64, 102
1, 69854, Control_c, 0, 64, 98
1, 69869, Control_c, 0, 64, 91
1, 69874, Note_on_c, 0, 69, 80
1, 69883, Control_c, 0, 64, 80
1, 69898, Control_c, 0, 64, 66
1, 69900, Note_on_c, 0, 64, 38
1, 69907, Note_on_c, 0, 57, 44
1, 69913, Control_c, 0, 64, 0
1, 70001, Control_c, 0, 64, 59
1, 70016, Control_c, 0, 64, 70
1, 70031, Control_c, 0, 64, 78
1, 70046, Control_c, 0, 64, 84
1, 70055, Note_off_c, 0, 57, 40
1, 70061, Control_c, 0, 64, 87
1, 70076, Control_c, 0, 64, 87
1, 70090, Control_c, 0, 64, 88
1, 70105, Note_off_c, 0, 64, 0
1, 70105, Control_c, 0, 64, 89
1, 70120, Control_c, 0, 64, 90
1, 70126, Note_on_c, 0, 64, 12
1, 70135, Control_c, 0, 64, 92
1, 70150, Control_c, 0, 64, 93
1, 70165, Control_c, 0, 64, 94
1, 70166, Note_on_c, 0, 57, 39
1, 70180, Control_c, 0, 64, 94
1, 70201, Note_off_c, 0, 57, 44
1, 70223, Control_c, 0, 64, 95
1, 70257, Note_off_c, 0, 64, 32
1, 70341, Note_on_c, 0, 64, 37
1, 70362, Note_on_c, 0, 57, 33
1, 70415, Note_off_c, 0, 57, 44
1, 70437, Note_off_c, 0, 64, 49
1, 70579, Note_on_c, 0, 64, 33
1, 70599, Note_on_c, 0, 57, 18
1, 70638, Note_off_c, 0, 64, 40
1, 70647, Note_off_c, 0, 57, 45
1, 70787, Note_on_c, 0, 64, 46
1, 70802, Note_on_c, 0, 57, 34
1, 70840, Note_off_c, 0, 64, 55
1, 70858, Note_off_c, 0, 57, 46
1, 71000, Note_on_c, 0, 57, 41
1, 71003, Note_on_c, 0, 64, 39
1, 71035, Note_off_c, 0, 64, 54
1, 71041, Note_off_c, 0, 57, 45
1, 71161, Note_off_c, 0, 69, 57
1, 71247, Control_c, 0, 64, 94
1, 71256, Note_on_c, 0, 68, 68
1, 71262, Control_c, 0, 64, 92
1, 71273, Note_on_c, 0, 64, 49
1, 71277, Control_c, 0, 64, 86
1, 71281, Note_on_c, 0, 59, 39
1, 71288, Note_on_c, 0, 47, 41
1, 71292, Control_c, 0, 64, 76
1, 71305, Note_off_c, 0, 49, 27
1, 71307, Control_c, 0, 64, 62
1, 71322, Control_c, 0, 64, 0
1, 71381, Control_c, 0, 64, 65
1, 71396, Control_c, 0, 64, 72
1, 71410, Control_c, 0, 64, 78
1, 71425, Control_c, 0, 64, 83
1, 71436, Note_off_c, 0, 64, 32
1, 71440, Control_c, 0, 64, 85
1, 71444, Note_off_c, 0, 59, 40
1, 71454, Control_c, 0, 64, 86
1, 71469, Control_c, 0, 64, 87
1, 71484, Control_c, 0, 64, 88
1, 71499, Control_c, 0, 64, 89
1, 71511, Note_on_c, 0, 64, 37
1, 71514, Control_c, 0, 64, 91
1, 71528, Control_c, 0, 64, 91
1, 71530, Note_on_c, 0, 59, 31
1, 71543, Control_c, 0, 64, 92
1, 71573, Control_c, 0, 64, 93
1, 71596, Note_off_c, 0, 59, 36
1, 71605, Note_off_c, 0, 64, 49
1, 71703, Note_on_c, 0, 64, 51
1, 71725, Note_off_c, 0, 68, 61
1, 71727, Note_on_c, 0, 59, 39
1, 71731, Note_off_c, 0, 40, 36
1, 71751, Note_off_c, 0, 64, 57
1, 71761, Note_off_c, 0, 59, 48
1, 71766, Control_c, 0, 64, 93
1, 71810, Control_c, 0, 64, 94
1, 71927, Note_off_c, 0, 47, 42
1, 71932, Note_on_c, 0, 40, 28
1, 71966, Control_c, 0, 64, 93
1, 71981, Control_c, 0, 64, 92
1, 71996, Control_c, 0, 64, 89
1, 71997, Note_on_c, 0, 66, 70
1, 72004, Note_on_c, 0, 45, 31
1, 72011, Control_c, 0, 64, 82
1, 72017, Note_on_c, 0, 61, 49
1, 72026, Control_c, 0, 64, 69
1, 72031, Note_on_c, 0, 64, 41
1, 72040, Control_c, 0, 64, 0
1, 72114, Control_c, 0, 64, 62
1, 72129, Control_c, 0, 64, 71
1, 72144, Control_c, 0, 64, 77
1, 72155, Note_off_c, 0, 64, 26
1, 72159, Control_c, 0, 64, 82
1, 72168, Note_off_c, 0, 61, 37
1, 72174, Control_c, 0, 64, 85
1, 72189, Control_c, 0, 64, 86
1, 72203, Control_c, 0, 64, 87
1, 72218, Control_c, 0, 64, 88
1, 72233, Control_c, 0, 64, 89
1, 72240, Note_on_c, 0, 64, 30
1, 72245, Note_on_c, 0, 61, 31
1, 72248, Control_c, 0, 64, 89
1, 72263, Control_c, 0, 64, 90
1, 72312, Note_off_c, 0, 61, 39
1, 72320, Note_off_c, 0, 64, 39
1, 72322, Control_c, 0, 64, 90
1, 72463, Note_on_c, 0, 61, 42
1, 72470, Note_on_c, 0, 64, 34
1, 72496, Note_off_c, 0, 61, 52
1, 72516, Note_off_c, 0, 64, 46
1, 72682, Note_on_c, 0, 64, 40
1, 72683, Note_on_c, 0, 61, 46
1, 72720, Note_off_c, 0, 61, 52
1, 72733, Note_off_c, 0, 64, 45
1, 72893, Note_on_c, 0, 61, 42
1, 72899, Note_on_c, 0, 64, 31
1, 72934, Note_off_c, 0, 61, 47
1, 72943, Note_off_c, 0, 64, 46
1, 73095, Note_on_c, 0, 64, 44
1, 73096, Note_on_c, 0, 61, 40
1, 73128, Note_off_c, 0, 61, 56
1, 73262, Control_c, 0, 64, 90
1, 73268, Note_off_c, 0, 64, 32
1, 73277, Control_c, 0, 64, 89
1, 73292, Control_c, 0, 64, 87
1, 73307, Control_c, 0, 64, 82
1, 73319, Note_on_c, 0, 47, 46
1, 73319, Note_on_c, 0, 63, 52
1, 73322, Control_c, 0, 64, 72
1, 73337, Control_c, 0, 64, 43
1, 73344, Note_on_c, 0, 59, 32
1, 73346, Note_on_c, 0, 57, 29
1, 73352, Note_off_c, 0, 45, 38
1, 73352, Control_c, 0, 64, 0
1, 73418, Control_c, 0, 64, 63
1, 73432, Control_c, 0, 64, 70
1, 73447, Control_c, 0, 64, 76
1, 73462, Control_c, 0, 64, 81
1, 73467, Note_off_c, 0, 57, 37
1, 73468, Note_off_c, 0, 59, 40
1, 73477, Control_c, 0, 64, 82
1, 73492, Control_c, 0, 64, 83
1, 73507, Control_c, 0, 64, 83
1, 73513, Note_off_c, 0, 63, 0
1, 73521, Control_c, 0, 64, 84
1, 73530, Note_on_c, 0, 63, 25
1, 73536, Control_c, 0, 64, 85
1, 73552, Control_c, 0, 64, 86
1, 73567, Control_c, 0, 64, 86
1, 73582, Control_c, 0, 64, 87
1, 73616, Poly_aftertouch_c, 0, 59, 127
1, 73628, Note_off_c, 0, 40, 40
1, 73632, Poly_aftertouch_c, 0, 57, 127
1, 73662, Note_off_c, 0, 66, 31
1, 73665, Note_on_c, 0, 68, 73
1, 73678, Note_off_c, 0, 63, 0
1, 73714, Poly_aftertouch_c, 0, 57, 0
1, 73715, Control_c, 0, 64, 87
1, 73727, Poly_aftertouch_c, 0, 59, 0
1, 73763, Poly_aftertouch_c, 0, 63, 0
1, 73775, Note_off_c, 0, 68, 62
1, 73778, Note_on_c, 0, 63, 32
1, 73804, Control_c, 0, 64, 88
1, 73823, Note_off_c, 0, 63, 64
1, 73895, Note_on_c, 0, 40, 42
1, 74012, Note_on_c, 0, 52, 35
1, 74042, Control_c, 0, 64, 87
1, 74056, Control_c, 0, 64, 86
1, 74059, Note_on_c, 0, 64, 71
1, 74071, Control_c, 0, 64, 80
1, 74086, Control_c, 0, 64, 70
1, 74089, Note_on_c, 0, 59, 39
1, 74101, Control_c, 0, 64, 0
1, 74116, Note_on_c, 0, 56, 21
1, 74182, Control_c, 0, 64, 61
1, 74197, Control_c, 0, 64, 70
1, 74212, Control_c, 0, 64, 76
1, 74218, Note_off_c, 0, 59, 23
1, 74227, Control_c, 0, 64, 83
1, 74242, Control_c, 0, 64, 86
1, 74243, Note_off_c, 0, 56, 31
1, 74256, Control_c, 0, 64, 87
1, 74271, Control_c, 0, 64, 88
1, 74276, Note_off_c, 0, 40, 41
1, 74286, Control_c, 0, 64, 89
1, 74301, Control_c, 0, 64, 90
1, 74308, Note_off_c, 0, 47, 43
1, 74315, Note_on_c, 0, 59, 41
1, 74316, Control_c, 0, 64, 91
1, 74330, Control_c, 0, 64, 92
1, 74346, Control_c, 0, 64, 93
1, 74353, Note_off_c, 0, 64, 54
1, 74361, Control_c, 0, 64, 94
1, 74364, Note_off_c, 0, 52, 43
1, 74368, Note_off_c, 0, 59, 49
1, 74369, Note_on_c, 0, 56, 4
1, 74391, Control_c, 0, 64, 95
1, 74440, Note_off_c, 0, 56, 42
1, 74509, Control_c, 0, 64, 95
1, 74532, Note_on_c, 0, 59, 37
1, 74568, Note_off_c, 0, 59, 44
1, 74582, Poly_aftertouch_c, 0, 56, 0
1, 74716, Note_on_c, 0, 56, 40
1, 74722, Note_on_c, 0, 52, 38
1, 74758, Note_off_c, 0, 56, 59
1, 74764, Note_on_c, 0, 59, 71
1, 74767, Note_off_c, 0, 52, 61
1, 74961, Note_on_c, 0, 56, 48
1, 74983, Note_on_c, 0, 52, 20
1, 74990, Note_off_c, 0, 56, 55
1, 75025, Note_off_c, 0, 52, 42
1, 75165, Note_on_c, 0, 52, 49
1, 75204, Note_off_c, 0, 52, 66
1, 75244, Poly_aftertouch_c, 0, 56, 0
1, 75420, Control_c, 0, 64, 95
1, 75435, Control_c, 0, 64, 91
1, 75439, Note_on_c, 0, 56, 57
1, 75450, Note_on_c, 0, 35, 59
1, 75450, Control_c, 0, 64, 84
1, 75451, Note_on_c, 0, 52, 46
1, 75454, Note_on_c, 0, 47, 68
1, 75465, Control_c, 0, 64, 70
1, 75480, Control_c, 0, 64, 33
1, 75495, Control_c, 0, 64, 0
1, 75525, Control_c, 0, 64, 41
1, 75540, Control_c, 0, 64, 66
1, 75554, Control_c, 0, 64, 73
1, 75569, Control_c, 0, 64, 80
1, 75584, Control_c, 0, 64, 83
1, 75585, Note_off_c, 0, 52, 39
1, 75599, Control_c, 0, 64, 84
1, 75601, Note_off_c, 0, 59, 53
1, 75620, Control_c, 0, 64, 84
1, 75635, Note_off_c, 0, 56, 0
1, 75635, Control_c, 0, 64, 85
1, 75650, Control_c, 0, 64, 86
1, 75651, Note_on_c, 0, 56, 30
1, 75665, Control_c, 0, 64, 88
1, 75680, Control_c, 0, 64, 89
1, 75682, Note_off_c, 0, 35, 60
1, 75691, Note_on_c, 0, 52, 50
1, 75695, Control_c, 0, 64, 90
1, 75709, Control_c, 0, 64, 91
1, 75724, Control_c, 0, 64, 92
1, 75739, Control_c, 0, 64, 93
1, 75754, Control_c, 0, 64, 94
1, 75754, Control_c, 0, 67, 123
1, 75769, Control_c, 0, 64, 95
1, 75769, Control_c, 0, 67, 102
1, 75770, Note_off_c, 0, 56, 0
1, 75770, Note_on_c, 0, 56, 10
1, 75784, Control_c, 0, 64, 96
1, 75784, Control_c, 0, 67, 73
1, 75787, Note_on_c, 0, 59, 75
1, 75799, Control_c, 0, 64, 96
1, 75799, Control_c, 0, 67, 41
1, 75804, Note_off_c, 0, 47, 37
1, 75814, Control_c, 0, 67, 11
1, 75817, Note_off_c, 0, 56, 59
1, 75828, Control_c, 0, 64, 97
1, 75828, Control_c, 0, 67, 0
1, 75843, Control_c, 0, 64, 98
1, 75853, Note_off_c, 0, 52, 43
1, 75858, Control_c, 0, 64, 98
1, 75873, Control_c, 0, 64, 99
1, 75888, Control_c, 0, 64, 99
1, 75909, Note_on_c, 0, 56, 68
1, 75917, Note_off_c, 0, 59, 62
1, 75932, Control_c, 0, 64, 100
1, 75936, Note_off_c, 0, 56, 65
1, 75948, Control_c, 0, 64, 100
1, 75978, Control_c, 0, 64, 101
1, 75993, Control_c, 0, 64, 101
1, 76007, Control_c, 0, 64, 102
1, 76085, Note_on_c, 0, 40, 58
1, 76142, Note_on_c, 0, 52, 63
1, 76198, Control_c, 0, 64, 98
1, 76209, Note_on_c, 0, 68, 87
1, 76213, Control_c, 0, 64, 89
1, 76228, Note_on_c, 0, 64, 55
1, 76228, Control_c, 0, 64, 72
1, 76243, Control_c, 0, 64, 0
1, 76245, Note_on_c, 0, 56, 44
1, 76284, Poly_aftertouch_c, 0, 59, 127
1, 76303, Control_c, 0, 64, 64
1, 76310, Poly_aftertouch_c, 0, 59, 0
1, 76317, Control_c, 0, 64, 72
1, 76329, Note_off_c, 0, 56, 53
1, 76332, Control_c, 0, 64, 80
1, 76347, Control_c, 0, 64, 84
1, 76368, Control_c, 0, 64, 85
1, 76398, Control_c, 0, 64, 86
1, 76410, Note_off_c, 0, 52, 57
1, 76413, Control_c, 0, 64, 86
1, 76419, Note_on_c, 0, 59, 57
1, 76428, Control_c, 0, 64, 88
1, 76443, Control_c, 0, 64, 89
1, 76446, Note_on_c, 0, 56, 35
1, 76458, Control_c, 0, 64, 90
1, 76473, Control_c, 0, 64, 90
1, 76502, Note_off_c, 0, 56, 40
1, 76502, Control_c, 0, 64, 91
1, 76532, Control_c, 0, 64, 91
1, 76550, Note_off_c, 0, 59, 24
1, 76591, Control_c, 0, 64, 88
1, 76602, Note_off_c, 0, 40, 62
1, 76606, Control_c, 0, 64, 79
1, 76608, Note_on_c, 0, 38, 74
1, 76621, Control_c, 0, 64, 63
1, 76636, Control_c, 0, 64, 0
1, 76642, Note_on_c, 0, 59, 51
1, 76667, Note_on_c, 0, 56, 46
1, 76680, Control_c, 0, 64, 59
1, 76695, Control_c, 0, 64, 70
1, 76710, Control_c, 0, 64, 79
1, 76717, Note_off_c, 0, 38, 63
1, 76724, Control_c, 0, 64, 84
1, 76739, Control_c, 0, 64, 86
1, 76770, Control_c, 0, 64, 86
1, 76774, Note_off_c, 0, 64, 38
1, 76785, Control_c, 0, 64, 87
1, 76797, Note_off_c, 0, 59, 31
1, 76800, Control_c, 0, 64, 88
1, 76811, Note_off_c, 0, 56, 39
1, 76815, Control_c, 0, 64, 89
1, 76829, Control_c, 0, 64, 89
1, 76844, Control_c, 0, 64, 90
1, 76853, Note_on_c, 0, 54, 84
1, 76859, Control_c, 0, 64, 90
1, 76863, Note_on_c, 0, 59, 46
1, 76885, Note_on_c, 0, 56, 40
1, 76888, Control_c, 0, 64, 91
1, 76918, Control_c, 0, 64, 91
1, 76933, Control_c, 0, 64, 92
1, 76948, Control_c, 0, 64, 92
1, 76961, Note_off_c, 0, 54, 61
1, 76963, Control_c, 0, 64, 93
1, 76978, Control_c, 0, 64, 93
1, 76986, Note_off_c, 0, 56, 35
1, 76995, Note_off_c, 0, 59, 36
1, 77022, Control_c, 0, 64, 94
1, 77067, Note_on_c, 0, 59, 60
1, 77075, Note_off_c, 0, 68, 63
1, 77093, Note_on_c, 0, 56, 44
1, 77096, Control_c, 0, 64, 94
1, 77133, Note_off_c, 0, 56, 53
1, 77134, Control_c, 0, 64, 95
1, 77146, Note_off_c, 0, 59, 60
1, 77163, Control_c, 0, 64, 95
1, 77207, Control_c, 0, 64, 96
1, 77237, Control_c, 0, 64, 96
1, 77247, Note_on_c, 0, 59, 57
1, 77254, Note_on_c, 0, 56, 42
1, 77266, Control_c, 0, 64, 97
1, 77293, Note_on_c, 0, 37, 60
1, 77317, Note_off_c, 0, 56, 49
1, 77331, Note_off_c, 0, 59, 52
1, 77337, Note_off_c, 0, 37, 63
1, 77355, Control_c, 0, 64, 97
1, 77400, Control_c, 0, 64, 98
1, 77468, Note_on_c, 0, 66, 87
1, 77482, Note_on_c, 0, 53, 76
1, 77512, Note_on_c, 0, 56, 37
1, 77549, Poly_aftertouch_c, 0, 59, 127
1, 77555, Note_off_c, 0, 56, 47
1, 77571, Note_off_c, 0, 53, 62
1, 77586, Poly_aftertouch_c, 0, 59, 0
1, 77641, Note_off_c, 0, 66, 64
1, 77665, Note_on_c, 0, 61, 64
1, 77671, Note_on_c, 0, 56, 38
1, 77676, Note_on_c, 0, 59, 46
1, 77718, Note_off_c, 0, 56, 44
1, 77761, Note_on_c, 0, 68, 90
1, 77790, Note_off_c, 0, 59, 25
1, 77793, Note_off_c, 0, 61, 60
1, 77801, Control_c, 0, 64, 98
1, 77815, Control_c, 0, 64, 99
1, 77830, Control_c, 0, 64, 99
1, 77845, Control_c, 0, 64, 100
1, 77883, Control_c, 0, 64, 100
1, 77887, Note_on_c, 0, 61, 48
1, 77897, Control_c, 0, 64, 101
1, 77910, Note_off_c, 0, 68, 57
1, 77926, Note_off_c, 0, 61, 62
1, 77963, Note_on_c, 0, 42, 61
1, 77971, Control_c, 0, 64, 101
1, 78086, Note_on_c, 0, 54, 74
1, 78119, Control_c, 0, 64, 101
1, 78134, Control_c, 0, 64, 99
1, 78148, Control_c, 0, 64, 93
1, 78163, Control_c, 0, 64, 80
1, 78166, Note_on_c, 0, 69, 87
1, 78178, Control_c, 0, 64, 62
1, 78185, Note_on_c, 0, 57, 69
1, 78193, Control_c, 0, 64, 0
1, 78213, Note_on_c, 0, 61, 35
1, 78243, Note_off_c, 0, 61, 44
1, 78252, Control_c, 0, 64, 64
1, 78267, Control_c, 0, 64, 73
1, 78282, Control_c, 0, 64, 81
1, 78295, Note_off_c, 0, 57, 54
1, 78297, Control_c, 0, 64, 88
1, 78312, Control_c, 0, 64, 90
1, 78342, Control_c, 0, 64, 91
1, 78357, Control_c, 0, 64, 91
1, 78372, Control_c, 0, 64, 92
1, 78386, Control_c, 0, 64, 92
1, 78396, Note_on_c, 0, 57, 47
1, 78401, Control_c, 0, 64, 93
1, 78431, Note_on_c, 0, 68, 32
1, 78462, Note_off_c, 0, 57, 34
1, 78464, Note_off_c, 0, 68, 51
1, 78467, Note_on_c, 0, 49, 69
1, 78475, Note_off_c, 0, 54, 60
1, 78491, Control_c, 0, 64, 93
1, 78574, Note_on_c, 0, 68, 58
1, 78590, Note_on_c, 0, 57, 48
1, 78598, Note_on_c, 0, 61, 32
1, 78657, Note_off_c, 0, 61, 42
1, 78685, Note_off_c, 0, 68, 56
1, 78687, Note_off_c, 0, 57, 50
1, 78720, Control_c, 0, 64, 92
1, 78735, Control_c, 0, 64, 87
1, 78743, Note_on_c, 0, 50, 70
1, 78747, Note_off_c, 0, 49, 61
1, 78750, Control_c, 0, 64, 76
1, 78765, Control_c, 0, 64, 57
1, 78771, Note_on_c, 0, 66, 59
1, 78774, Note_on_c, 0, 57, 40
1, 78779, Control_c, 0, 64, 0
1, 78795, Note_on_c, 0, 61, 48
1, 78824, Control_c, 0, 64, 61
1, 78830, Note_off_c, 0, 66, 65
1, 78839, Control_c, 0, 64, 70
1, 78844, Note_off_c, 0, 61, 53
1, 78853, Control_c, 0, 64, 77
1, 78860, Note_off_c, 0, 57, 54
1, 78868, Control_c, 0, 64, 82
1, 78883, Control_c, 0, 64, 84
1, 78898, Control_c, 0, 64, 84
1, 78913, Control_c, 0, 64, 85
1, 78927, Control_c, 0, 64, 86
1, 78942, Control_c, 0, 64, 86
1, 78955, Note_on_c, 0, 61, 49
1, 78957, Control_c, 0, 64, 87
1, 78958, Note_on_c, 0, 66, 53
1, 78963, Note_on_c, 0, 57, 27
1, 78971, Control_c, 0, 64, 88
1, 78986, Control_c, 0, 64, 89
1, 78988, Note_off_c, 0, 66, 54
1, 78994, Note_off_c, 0, 61, 47
1, 78997, Note_on_c, 0, 51, 72
1, 79001, Control_c, 0, 64, 89
1, 79008, Note_off_c, 0, 57, 44
1, 79016, Control_c, 0, 64, 90
1, 79027, Note_off_c, 0, 42, 57
1, 79027, Note_off_c, 0, 50, 44
1, 79060, Control_c, 0, 64, 90
1, 79088, Note_off_c, 0, 69, 59
1, 79096, Note_on_c, 0, 66, 68
1, 79117, Note_on_c, 0, 57, 50
1, 79164, Note_off_c, 0, 57, 47
1, 79269, Note_off_c, 0, 66, 61
1, 79313, Control_c, 0, 64, 90
1, 79328, Control_c, 0, 64, 89
1, 79340, Note_on_c, 0, 44, 36
1, 79343, Control_c, 0, 64, 87
1, 79356, Note_off_c, 0, 51, 54
1, 79365, Control_c, 0, 64, 82
1, 79380, Control_c, 0, 64, 75
1, 79382, Note_on_c, 0, 52, 48
1, 79391, Note_on_c, 0, 68, 71
1, 79394, Control_c, 0, 64, 65
1, 79407, Note_on_c, 0, 59, 49
1, 79409, Control_c, 0, 64, 0
1, 79422, Note_on_c, 0, 64, 41
1, 79424, Control_c, 0, 67, 9
1, 79439, Control_c, 0, 67, 13
1, 79454, Control_c, 0, 67, 19
1, 79468, Control_c, 0, 67, 28
1, 79483, Control_c, 0, 67, 42
1, 79498, Control_c, 0, 67, 61
1, 79513, Control_c, 0, 64, 63
1, 79513, Control_c, 0, 67, 79
1, 79528, Control_c, 0, 64, 69
1, 79528, Control_c, 0, 67, 94
1, 79543, Control_c, 0, 64, 74
1, 79543, Control_c, 0, 67, 106
1, 79558, Control_c, 0, 64, 79
1, 79558, Control_c, 0, 67, 116
1, 79573, Control_c, 0, 64, 81
1, 79573, Control_c, 0, 67, 125
1, 79588, Control_c, 0, 64, 83
1, 79588, Control_c, 0, 67, 127
1, 79591, Note_off_c, 0, 59, 37
1, 79602, Control_c, 0, 64, 84
1, 79617, Control_c, 0, 64, 85
1, 79632, Control_c, 0, 64, 87
1, 79634, Note_off_c, 0, 64, 0
1, 79647, Control_c, 0, 64, 88
1, 79649, Note_on_c, 0, 64, 28
1, 79662, Control_c, 0, 64, 89
1, 79672, Note_on_c, 0, 59, 39
1, 79676, Control_c, 0, 64, 90
1, 79691, Control_c, 0, 64, 91
1, 79706, Control_c, 0, 64, 91
1, 79718, Note_off_c, 0, 64, 55
1, 79730, Note_off_c, 0, 59, 42
1, 79736, Control_c, 0, 64, 92
1, 79859, Note_off_c, 0, 52, 36
1, 79864, Note_on_c, 0, 59, 42
1, 79865, Note_on_c, 0, 64, 40
1, 79865, Note_off_c, 0, 44, 39
1, 79906, Note_off_c, 0, 64, 51
1, 79917, Note_off_c, 0, 59, 41
1, 79933, Note_off_c, 0, 68, 54
1, 80090, Note_on_c, 0, 45, 37
1, 80114, Control_c, 0, 64, 91
1, 80129, Control_c, 0, 64, 90
1, 80144, Control_c, 0, 64, 88
1, 80159, Control_c, 0, 64, 85
1, 80160, Note_on_c, 0, 52, 31
1, 80173, Control_c, 0, 64, 80
1, 80179, Note_on_c, 0, 66, 72
1, 80188, Control_c, 0, 64, 73
1, 80199, Note_on_c, 0, 61, 48
1, 80203, Control_c, 0, 64, 60
1, 80217, Control_c, 0, 64, 0
1, 80235, Note_on_c, 0, 64, 28
1, 80291, Control_c, 0, 64, 64
1, 80306, Control_c, 0, 64, 72
1, 80321, Control_c, 0, 64, 79
1, 80336, Control_c, 0, 64, 84
1, 80351, Control_c, 0, 64, 87
1, 80366, Control_c, 0, 64, 88
1, 80378, Note_off_c, 0, 64, 22
1, 80381, Control_c, 0, 64, 88
1, 80395, Control_c, 0, 64, 90
1, 80405, Note_off_c, 0, 52, 43
1, 80410, Control_c, 0, 64, 91
1, 80425, Control_c, 0, 64, 92
1, 80428, Note_off_c, 0, 45, 42
1, 80440, Control_c, 0, 64, 93
1, 80452, Note_off_c, 0, 61, 36
1, 80470, Control_c, 0, 64, 94
1, 80535, Note_on_c, 0, 64, 39
1, 80543, Control_c, 0, 64, 94
1, 80544, Note_on_c, 0, 61, 26
1, 80588, Control_c, 0, 64, 95
1, 80598, Note_off_c, 0, 64, 58
1, 80600, Note_off_c, 0, 61, 52
1, 80632, Control_c, 0, 64, 95
1, 80662, Control_c, 0, 64, 96
1, 80691, Control_c, 0, 64, 96
1, 80706, Control_c, 0, 64, 97
1, 80721, Control_c, 0, 64, 97
1, 80737, Control_c, 0, 64, 98
1, 80767, Control_c, 0, 64, 98
1, 80826, Control_c, 0, 64, 99
1, 80867, Note_off_c, 0, 66, 60
1, 80908, Note_on_c, 0, 64, 49
1, 80908, Note_on_c, 0, 61, 32
1, 80922, Control_c, 0, 64, 99
1, 80936, Note_off_c, 0, 61, 52
1, 80941, Note_off_c, 0, 64, 54
1, 81030, Note_on_c, 0, 66, 56
1, 81067, Note_off_c, 0, 66, 63
1, 81131, Note_on_c, 0, 61, 31
1, 81153, Note_on_c, 0, 64, 10
1, 81167, Note_off_c, 0, 61, 48
1, 81190, Note_on_c, 0, 68, 65
1, 81196, Note_off_c, 0, 64, 52
1, 81271, Note_off_c, 0, 68, 60
1, 81275, Note_on_c, 0, 66, 69
1, 81287, Note_on_c, 0, 61, 51
1, 81309, Note_off_c, 0, 61, 59
1, 81354, Note_off_c, 0, 66, 62
1, 81382, Note_on_c, 0, 65, 60
1, 81439, Note_off_c, 0, 65, 55
1, 81460, Note_on_c, 0, 66, 70
1, 81540, Note_off_c, 0, 66, 58
1, 81545, Control_c, 0, 64, 98
1, 81560, Control_c, 0, 64, 95
1, 81563, Note_on_c, 0, 68, 67
1, 81575, Control_c, 0, 64, 87
1, 81578, Note_on_c, 0, 64, 51
1, 81589, Control_c, 0, 64, 72
1, 81591, Note_on_c, 0, 61, 49
1, 81603, Note_on_c, 0, 46, 33
1, 81604, Control_c, 0, 64, 0
1, 81632, Note_on_c, 0, 52, 24
1, 81686, Control_c, 0, 64, 38
1, 81701, Control_c, 0, 64, 67
1, 81716, Control_c, 0, 64, 74
1, 81731, Control_c, 0, 64, 80
1, 81745, Control_c, 0, 64, 84
1, 81760, Control_c, 0, 64, 86
1, 81773, Note_off_c, 0, 61, 49
1, 81775, Control_c, 0, 64, 87
1, 81779, Note_off_c, 0, 64, 54
1, 81789, Control_c, 0, 64, 88
1, 81804, Control_c, 0, 64, 90
1, 81819, Control_c, 0, 64, 91
1, 81834, Control_c, 0, 64, 92
1, 81849, Control_c, 0, 64, 93
1, 81859, Note_on_c, 0, 64, 38
1, 81863, Control_c, 0, 64, 93
1, 81869, Note_on_c, 0, 61, 30
1, 81878, Control_c, 0, 64, 94
1, 81893, Control_c, 0, 64, 94
1, 81926, Note_off_c, 0, 64, 53
1, 81937, Control_c, 0, 64, 95
1, 81993, Note_off_c, 0, 61, 27
1, 82011, Control_c, 0, 64, 95
1, 82101, Note_on_c, 0, 64, 45
1, 82115, Note_off_c, 0, 68, 58
1, 82126, Note_off_c, 0, 64, 57
1, 82130, Control_c, 0, 64, 96
1, 82138, Note_on_c, 0, 61, 22
1, 82145, Note_off_c, 0, 46, 39
1, 82159, Note_off_c, 0, 52, 17
1, 82177, Note_off_c, 0, 61, 43
1, 82199, Note_on_c, 0, 56, 41
1, 82204, Control_c, 0, 64, 96
1, 82258, Note_off_c, 0, 56, 52
1, 82300, Note_on_c, 0, 64, 65
1, 82408, Note_off_c, 0, 64, 61
1, 82457, Note_on_c, 0, 47, 44
1, 82479, Control_c, 0, 64, 96
1, 82494, Control_c, 0, 64, 93
1, 82495, Note_on_c, 0, 52, 28
1, 82509, Control_c, 0, 64, 87
1, 82524, Control_c, 0, 64, 78
1, 82528, Note_on_c, 0, 56, 32
1, 82539, Control_c, 0, 64, 65
1, 82554, Control_c, 0, 64, 0
1, 82562, Note_on_c, 0, 68, 73
1, 82592, Note_on_c, 0, 59, 37
1, 82672, Control_c, 0, 64, 35
1, 82686, Control_c, 0, 64, 66
1, 82701, Control_c, 0, 64, 72
1, 82716, Control_c, 0, 64, 78
1, 82728, Note_off_c, 0, 59, 38
1, 82731, Control_c, 0, 64, 81
1, 82746, Control_c, 0, 64, 83
1, 82760, Control_c, 0, 64, 85
1, 82775, Control_c, 0, 64, 86
1, 82790, Control_c, 0, 64, 88
1, 82804, Control_c, 0, 64, 90
1, 82819, Note_on_c, 0, 64, 36
1, 82819, Control_c, 0, 64, 92
1, 82834, Control_c, 0, 64, 93
1, 82846, Note_on_c, 0, 59, 44
1, 82849, Control_c, 0, 64, 94
1, 82864, Control_c, 0, 64, 94
1, 82876, Note_off_c, 0, 59, 51
1, 82876, Note_off_c, 0, 64, 58
1, 82879, Control_c, 0, 64, 95
1, 82893, Control_c, 0, 64, 96
1, 82908, Control_c, 0, 64, 96
1, 82923, Control_c, 0, 64, 97
1, 82938, Note_off_c, 0, 56, 41
1, 82938, Control_c, 0, 64, 97
1, 83019, Note_off_c, 0, 47, 38
1, 83025, Note_on_c, 0, 64, 46
1, 83072, Note_off_c, 0, 64, 60
1, 83090, Poly_aftertouch_c, 0, 59, 127
1, 83113, Note_off_c, 0, 68, 55
1, 83144, Poly_aftertouch_c, 0, 59, 0
1, 83156, Note_off_c, 0, 52, 38
1, 83227, Control_c, 0, 64, 97
1, 83241, Control_c, 0, 64, 96
1, 83253, Note_on_c, 0, 66, 61
1, 83256, Control_c, 0, 64, 93
1, 83271, Control_c, 0, 64, 86
1, 83273, Note_on_c, 0, 47, 34
1, 83274, Note_on_c, 0, 51, 31
1, 83278, Note_on_c, 0, 54, 27
1, 83284, Note_on_c, 0, 63, 37
1, 83286, Control_c, 0, 64, 76
1, 83301, Control_c, 0, 64, 63
1, 83315, Control_c, 0, 64, 0
1, 83374, Control_c, 0, 64, 65
1, 83389, Control_c, 0, 64, 73
1, 83404, Control_c, 0, 64, 80
1, 83419, Control_c, 0, 64, 84
1, 83433, Control_c, 0, 64, 85
1, 83448, Control_c, 0, 64, 85
1, 83460, Note_off_c, 0, 63, 0
1, 83463, Control_c, 0, 64, 86
1, 83478, Control_c, 0, 64, 88
1, 83481, Note_on_c, 0, 63, 18
1, 83493, Control_c, 0, 64, 90
1, 83507, Control_c, 0, 64, 91
1, 83519, Note_on_c, 0, 59, 39
1, 83522, Control_c, 0, 64, 92
1, 83552, Control_c, 0, 64, 92
1, 83582, Control_c, 0, 64, 93
1, 83591, Note_off_c, 0, 63, 42
1, 83616, Note_off_c, 0, 59, 33
1, 83675, Note_off_c, 0, 54, 34
1, 83767, Note_on_c, 0, 63, 40
1, 83790, Note_on_c, 0, 59, 32
1, 83805, Note_off_c, 0, 51, 8
1, 83831, Note_off_c, 0, 63, 48
1, 83865, Note_off_c, 0, 66, 42
1, 83905, Note_off_c, 0, 59, 35
1, 84202, Note_off_c, 0, 47, 43
1, 84228, Control_c, 0, 64, 92
1, 84243, Control_c, 0, 64, 92
1, 84257, Control_c, 0, 64, 90
1, 84272, Control_c, 0, 64, 84
1, 84280, Note_on_c, 0, 45, 31
1, 84281, Note_on_c, 0, 66, 59
1, 84287, Control_c, 0, 64, 76
1, 84288, Note_on_c, 0, 51, 38
1, 84301, Note_on_c, 0, 59, 41
1, 84302, Note_on_c, 0, 54, 34
1, 84302, Control_c, 0, 64, 66
1, 84317, Control_c, 0, 64, 0
1, 84361, Control_c, 0, 64, 59
1, 84376, Control_c, 0, 64, 70
1, 84390, Control_c, 0, 64, 76
1, 84405, Control_c, 0, 64, 80
1, 84420, Note_off_c, 0, 59, 49
1, 84420, Control_c, 0, 64, 81
1, 84423, Note_off_c, 0, 51, 41
1, 84437, Note_off_c, 0, 45, 45
1, 84450, Control_c, 0, 64, 82
1, 84456, Note_off_c, 0, 54, 37
1, 84457, Note_off_c, 0, 66, 58
1, 84524, Control_c, 0, 64, 81
1, 84539, Control_c, 0, 64, 76
1, 84554, Control_c, 0, 64, 66
1, 84557, Note_on_c, 0, 51, 36
1, 84557, Note_on_c, 0, 63, 68
1, 84566, Note_on_c, 0, 45, 37
1, 84566, Note_on_c, 0, 54, 53
1, 84569, Control_c, 0, 64, 0
1, 84573, Note_on_c, 0, 59, 47
1, 84620, Control_c, 0, 64, 49
1, 84635, Control_c, 0, 64, 67
1, 84640, Note_off_c, 0, 54, 54
1, 84640, Note_off_c, 0, 59, 56
1, 84646, Note_off_c, 0, 51, 56
1, 84650, Note_off_c, 0, 45, 54
1, 84650, Control_c, 0, 64, 74
1, 84664, Control_c, 0, 64, 79
1, 84679, Control_c, 0, 64, 80
1, 84692, Note_off_c, 0, 63, 59
1, 84740, Control_c, 0, 64, 79
1, 84754, Control_c, 0, 64, 76
1, 84769, Control_c, 0, 64, 67
1, 84784, Control_c, 0, 64, 0
1, 84790, Note_on_c, 0, 59, 74
1, 84798, Note_on_c, 0, 45, 43
1, 84806, Note_on_c, 0, 54, 57
1, 84813, Note_on_c, 0, 51, 32
1, 84858, Control_c, 0, 64, 66
1, 84861, Note_off_c, 0, 45, 60
1, 84873, Control_c, 0, 64, 74
1, 84888, Control_c, 0, 64, 81
1, 84891, Note_off_c, 0, 54, 58
1, 84903, Control_c, 0, 64, 87
1, 84906, Note_off_c, 0, 51, 47
1, 84917, Control_c, 0, 64, 89
1, 84932, Control_c, 0, 64, 89
1, 84947, Control_c, 0, 64, 90
1, 84974, Note_off_c, 0, 59, 51
1, 85051, Control_c, 0, 64, 89
1, 85066, Control_c, 0, 64, 86
1, 85080, Control_c, 0, 64, 76
1, 85087, Note_on_c, 0, 44, 41
1, 85088, Note_on_c, 0, 64, 71
1, 85095, Control_c, 0, 64, 62
1, 85108, Note_on_c, 0, 59, 40
1, 85110, Control_c, 0, 64, 0
1, 85113, Note_on_c, 0, 56, 46
1, 85129, Note_on_c, 0, 52, 44
1, 85154, Poly_aftertouch_c, 0, 47, 127
1, 85169, Control_c, 0, 64, 56
1, 85184, Control_c, 0, 64, 68
1, 85199, Control_c, 0, 64, 74
1, 85207, Note_off_c, 0, 44, 59
1, 85213, Control_c, 0, 64, 79
1, 85228, Control_c, 0, 64, 82
1, 85236, Note_off_c, 0, 59, 33
1, 85243, Note_off_c, 0, 52, 35
1, 85243, Control_c, 0, 64, 82
1, 85257, Note_off_c, 0, 56, 41
1, 85258, Poly_aftertouch_c, 0, 47, 0
1, 85258, Control_c, 0, 64, 83
1, 85273, Control_c, 0, 64, 83
1, 85287, Control_c, 0, 64, 84
1, 85302, Control_c, 0, 64, 84
1, 85317, Control_c, 0, 64, 85
1, 85332, Control_c, 0, 64, 86
1, 85347, Control_c, 0, 64, 86
1, 85365, Note_on_c, 0, 44, 40
1, 85368, Note_on_c, 0, 52, 40
1, 85369, Control_c, 0, 64, 87
1, 85371, Note_on_c, 0, 59, 35
1, 85377, Note_on_c, 0, 56, 38
1, 85399, Control_c, 0, 64, 87
1, 85409, Poly_aftertouch_c, 0, 47, 127
1, 85415, Note_off_c, 0, 52, 50
1, 85418, Note_off_c, 0, 44, 44
1, 85423, Note_off_c, 0, 56, 44
1, 85427, Note_off_c, 0, 59, 44
1, 85428, Control_c, 0, 64, 88
1, 85443, Control_c, 0, 64, 89
1, 85458, Control_c, 0, 64, 90
1, 85487, Control_c, 0, 64, 90
1, 85517, Control_c, 0, 64, 91
1, 85522, Poly_aftertouch_c, 0, 47, 0
1, 85533, Control_c, 0, 64, 91
1, 85539, Note_on_c, 0, 59, 60
1, 85545, Note_on_c, 0, 52, 56
1, 85548, Control_c, 0, 64, 92
1, 85558, Note_on_c, 0, 56, 48
1, 85560, Poly_aftertouch_c, 0, 47, 127
1, 85562, Note_on_c, 0, 44, 39
1, 85563, Control_c, 0, 64, 92
1, 85577, Control_c, 0, 64, 93
1, 85585, Note_off_c, 0, 52, 61
1, 85592, Control_c, 0, 64, 93
1, 85593, Note_off_c, 0, 64, 53
1, 85594, Note_off_c, 0, 59, 51
1, 85596, Note_off_c, 0, 56, 51
1, 85601, Note_off_c, 0, 44, 48
1, 85607, Control_c, 0, 64, 94
1, 85622, Control_c, 0, 64, 95
1, 85635, Poly_aftertouch_c, 0, 47, 0
1, 85636, Control_c, 0, 64, 95
1, 85636, Control_c, 0, 67, 127
1, 85651, Control_c, 0, 64, 96
1, 85651, Control_c, 0, 67, 108
1, 85666, Control_c, 0, 67, 86
1, 85681, Control_c, 0, 64, 97
1, 85681, Control_c, 0, 67, 68
1, 85696, Control_c, 0, 67, 50
1, 85710, Control_c, 0, 64, 97
1, 85710, Control_c, 0, 67, 35
1, 85712, Note_on_c, 0, 52, 52
1, 85724, Note_on_c, 0, 59, 61
1, 85725, Control_c, 0, 64, 98
1, 85725, Control_c, 0, 67, 23
1, 85734, Note_on_c, 0, 44, 29
1, 85740, Control_c, 0, 64, 98
1, 85740, Control_c, 0, 67, 14
1, 85755, Control_c, 0, 67, 0
1, 85758, Poly_aftertouch_c, 0, 47, 127
1, 85763, Note_off_c, 0, 52, 56
1, 85765, Note_on_c, 0, 56, 17
1, 85770, Control_c, 0, 64, 99
1, 85774, Note_off_c, 0, 44, 48
1, 85788, Note_off_c, 0, 59, 52
1, 85815, Note_off_c, 0, 56, 48
1, 85829, Control_c, 0, 64, 99
1, 85859, Control_c, 0, 64, 100
1, 85864, Poly_aftertouch_c, 0, 47, 0
1, 85880, Note_on_c, 0, 44, 49
1, 85898, Note_on_c, 0, 52, 50
1, 85898, Note_on_c, 0, 59, 67
1, 85901, Poly_aftertouch_c, 0, 47, 127
1, 85903, Control_c, 0, 64, 100
1, 85926, Note_off_c, 0, 44, 59
1, 85941, Note_off_c, 0, 52, 61
1, 85948, Control_c, 0, 64, 101
1, 85978, Control_c, 0, 64, 101
1, 85982, Poly_aftertouch_c, 0, 56, 127
1, 85988, Note_on_c, 0, 64, 75
1, 86008, Control_c, 0, 64, 102
1, 86023, Poly_aftertouch_c, 0, 56, 0
1, 86028, Note_off_c, 0, 59, 53
1, 86051, Note_on_c, 0, 44, 44
1, 86052, Control_c, 0, 64, 102
1, 86054, Poly_aftertouch_c, 0, 47, 0
1, 86089, Note_off_c, 0, 64, 63
1, 86097, Note_off_c, 0, 44, 57
1, 86117, Note_on_c, 0, 52, 42
1, 86119, Control_c, 0, 64, 103
1, 86141, Note_off_c, 0, 52, 62
1, 86163, Poly_aftertouch_c, 0, 59, 127
1, 86187, Poly_aftertouch_c, 0, 59, 0
1, 86284, Note_on_c, 0, 42, 54
1, 86302, Note_on_c, 0, 47, 30
1, 86342, Control_c, 0, 64, 99
1, 86349, Note_on_c, 0, 69, 86
1, 86357, Control_c, 0, 64, 88
1, 86371, Note_on_c, 0, 54, 56
1, 86371, Note_on_c, 0, 63, 59
1, 86372, Control_c, 0, 64, 72
1, 86386, Control_c, 0, 64, 0
1, 86391, Note_on_c, 0, 57, 23
1, 86414, Note_on_c, 0, 59, 3
1, 86421, Note_off_c, 0, 54, 57
1, 86441, Note_off_c, 0, 42, 62
1, 86446, Control_c, 0, 64, 65
1, 86452, Note_off_c, 0, 63, 51
1, 86460, Control_c, 0, 64, 74
1, 86474, Note_off_c, 0, 57, 38
1, 86474, Note_off_c, 0, 59, 39
1, 86475, Control_c, 0, 64, 85
1, 86488, Note_off_c, 0, 47, 40
1, 86490, Control_c, 0, 64, 92
1, 86505, Control_c, 0, 64, 94
1, 86520, Control_c, 0, 64, 95
1, 86534, Control_c, 0, 64, 96
1, 86549, Control_c, 0, 64, 98
1, 86564, Control_c, 0, 64, 102
1, 86578, Control_c, 0, 64, 104
1, 86584, Note_on_c, 0, 42, 47
1, 86593, Control_c, 0, 64, 105
1, 86594, Note_on_c, 0, 63, 60
1, 86599, Note_on_c, 0, 54, 35
1, 86602, Note_on_c, 0, 47, 38
1, 86608, Control_c, 0, 64, 106
1, 86623, Control_c, 0, 64, 106
1, 86631, Note_off_c, 0, 42, 56
1, 86633, Note_off_c, 0, 54, 47
1, 86637, Note_off_c, 0, 63, 58
1, 86638, Control_c, 0, 64, 107
1, 86643, Note_off_c, 0, 47, 48
1, 86652, Control_c, 0, 64, 108
1, 86659, Poly_aftertouch_c, 0, 59, 127
1, 86667, Poly_aftertouch_c, 0, 57, 127
1, 86667, Control_c, 0, 64, 110
1, 86682, Control_c, 0, 64, 111
1, 86697, Control_c, 0, 64, 112
1, 86711, Poly_aftertouch_c, 0, 57, 0
1, 86712, Control_c, 0, 64, 112
1, 86714, Poly_aftertouch_c, 0, 59, 0
1, 86726, Note_off_c, 0, 69, 53
1, 86726, Control_c, 0, 64, 113
1, 86739, Note_on_c, 0, 42, 51
1, 86741, Control_c, 0, 64, 114
1, 86745, Note_on_c, 0, 54, 46
1, 86756, Control_c, 0, 64, 115
1, 86770, Control_c, 0, 64, 116
1, 86782, Note_on_c, 0, 63, 63
1, 86785, Control_c, 0, 64, 117
1, 86790, Note_off_c, 0, 54, 58
1, 86798, Note_off_c, 0, 42, 55
1, 86800, Control_c, 0, 64, 118
1, 86815, Control_c, 0, 64, 118
1, 86830, Control_c, 0, 64, 119
1, 86852, Control_c, 0, 64, 120
1, 86862, Note_off_c, 0, 63, 61
1, 86867, Control_c, 0, 64, 121
1, 86882, Control_c, 0, 64, 121
1, 86885, Note_on_c, 0, 69, 79
1, 86897, Control_c, 0, 64, 122
1, 86940, Note_off_c, 0, 69, 64
1, 86971, Control_c, 0, 64, 120
1, 86985, Control_c, 0, 64, 107
1, 87000, Control_c, 0, 64, 89
1, 87001, Note_on_c, 0, 69, 88
1, 87010, Note_on_c, 0, 40, 60
1, 87015, Control_c, 0, 64, 69
1, 87020, Note_on_c, 0, 47, 53
1, 87024, Note_on_c, 0, 64, 64
1, 87030, Control_c, 0, 64, 0
1, 87037, Note_on_c, 0, 57, 40
1, 87038, Note_on_c, 0, 59, 40
1, 87074, Control_c, 0, 64, 62
1, 87089, Control_c, 0, 64, 73
1, 87103, Control_c, 0, 64, 85
1, 87118, Control_c, 0, 64, 95
1, 87121, Note_off_c, 0, 40, 58
1, 87135, Control_c, 0, 64, 96
1, 87141, Note_off_c, 0, 69, 64
1, 87147, Note_off_c, 0, 47, 55
1, 87179, Control_c, 0, 64, 97
1, 87182, Note_off_c, 0, 64, 56
1, 87194, Control_c, 0, 64, 98
1, 87208, Control_c, 0, 64, 99
1, 87217, Note_off_c, 0, 59, 41
1, 87223, Control_c, 0, 64, 100
1, 87225, Note_off_c, 0, 57, 35
1, 87238, Control_c, 0, 64, 101
1, 87253, Control_c, 0, 64, 101
1, 87257, Note_on_c, 0, 40, 59
1, 87266, Note_on_c, 0, 47, 54
1, 87268, Control_c, 0, 64, 102
1, 87272, Note_on_c, 0, 64, 56
1, 87282, Control_c, 0, 64, 103
1, 87286, Note_on_c, 0, 59, 7
1, 87297, Note_off_c, 0, 40, 59
1, 87297, Control_c, 0, 64, 103
1, 87298, Note_on_c, 0, 57, 17
1, 87302, Note_off_c, 0, 47, 61
1, 87310, Note_off_c, 0, 64, 61
1, 87312, Control_c, 0, 64, 104
1, 87327, Control_c, 0, 64, 104
1, 87338, Note_off_c, 0, 59, 48
1, 87341, Note_off_c, 0, 57, 39
1, 87356, Control_c, 0, 64, 105
1, 87371, Control_c, 0, 64, 106
1, 87386, Control_c, 0, 64, 106
1, 87401, Control_c, 0, 64, 107
1, 87415, Control_c, 0, 64, 107
1, 87423, Note_on_c, 0, 40, 54
1, 87427, Note_on_c, 0, 64, 36
1, 87430, Control_c, 0, 64, 108
1, 87432, Note_on_c, 0, 47, 52
1, 87446, Control_c, 0, 64, 108
1, 87460, Note_off_c, 0, 64, 45
1, 87461, Note_off_c, 0, 40, 61
1, 87461, Control_c, 0, 64, 109
1, 87469, Note_off_c, 0, 47, 61
1, 87475, Control_c, 0, 64, 110
1, 87490, Control_c, 0, 64, 110
1, 87505, Control_c, 0, 64, 111
1, 87520, Control_c, 0, 64, 112
1, 87535, Control_c, 0, 64, 113
1, 87550, Control_c, 0, 64, 113
1, 87601, Control_c, 0, 64, 112
1, 87605, Note_on_c, 0, 40, 57
1, 87616, Control_c, 0, 64, 103
1, 87623, Note_on_c, 0, 68, 77
1, 87624, Note_on_c, 0, 47, 54
1, 87631, Control_c, 0, 64, 84
1, 87639, Note_on_c, 0, 59, 52
1, 87646, Control_c, 0, 64, 63
1, 87655, Note_on_c, 0, 56, 36
1, 87661, Control_c, 0, 64, 0
1, 87674, Note_on_c, 0, 64, 15
1, 87705, Control_c, 0, 64, 63
1, 87718, Note_off_c, 0, 40, 60
1, 87720, Note_off_c, 0, 64, 49
1, 87720, Control_c, 0, 64, 74
1, 87721, Note_off_c, 0, 47, 57
1, 87734, Control_c, 0, 64, 83
1, 87749, Control_c, 0, 64, 90
1, 87764, Note_off_c, 0, 68, 62
1, 87764, Control_c, 0, 64, 92
1, 87779, Control_c, 0, 64, 92
1, 87789, Note_off_c, 0, 56, 0
1, 87794, Control_c, 0, 64, 93
1, 87800, Note_off_c, 0, 59, 0
1, 87809, Control_c, 0, 64, 94
1, 87812, Note_on_c, 0, 64, 67
1, 87824, Note_on_c, 0, 59, 6
1, 87824, Control_c, 0, 64, 96
1, 87825, Note_on_c, 0, 40, 48
1, 87826, Poly_aftertouch_c, 0, 56, 127
1, 87835, Note_on_c, 0, 47, 60
1, 87839, Control_c, 0, 64, 98
1, 87854, Control_c, 0, 64, 100
1, 87869, Control_c, 0, 64, 101
1, 87883, Control_c, 0, 64, 102
1, 87891, Poly_aftertouch_c, 0, 56, 0
1, 87898, Control_c, 0, 64, 103
1, 87898, Note_off_c, 0, 40, 53
1, 87902, Note_off_c, 0, 47, 51
1, 87913, Control_c, 0, 64, 104
1, 87921, Note_on_c, 0, 68, 90
1, 87928, Control_c, 0, 64, 105
1, 87943, Control_c, 0, 64, 107
1, 87952, Note_off_c, 0, 64, 63
1, 87958, Control_c, 0, 64, 108
1, 87970, Note_off_c, 0, 59, 37
1, 87973, Control_c, 0, 64, 109
1, 87988, Control_c, 0, 64, 111
1, 88003, Control_c, 0, 64, 112
1, 88010, Note_on_c, 0, 40, 44
1, 88018, Control_c, 0, 64, 113
1, 88032, Control_c, 0, 64, 114
1, 88042, Note_on_c, 0, 64, 58
1, 88047, Control_c, 0, 64, 115
1, 88061, Note_off_c, 0, 40, 60
1, 88062, Control_c, 0, 64, 116
1, 88068, Note_off_c, 0, 68, 60
1, 88071, Note_on_c, 0, 47, 41
1, 88077, Control_c, 0, 64, 118
1, 88086, Note_off_c, 0, 64, 60
1, 88092, Control_c, 0, 64, 119
1, 88106, Control_c, 0, 64, 121
1, 88121, Control_c, 0, 64, 122
1, 88131, Note_off_c, 0, 47, 38
1, 88136, Control_c, 0, 64, 123
1, 88150, Control_c, 0, 64, 125
1, 88165, Control_c, 0, 64, 126
1, 88180, Control_c, 0, 64, 127
1, 88200, Note_on_c, 0, 38, 63
1, 88210, Note_on_c, 0, 47, 42
1, 88254, Note_on_c, 0, 50, 66
1, 88284, Control_c, 0, 64, 108
1, 88298, Control_c, 0, 64, 87
1, 88310, Note_on_c, 0, 71, 91
1, 88313, Control_c, 0, 64, 63
1, 88322, Note_on_c, 0, 59, 74
1, 88328, Note_on_c, 0, 64, 66
1, 88328, Control_c, 0, 64, 0
1, 88380, Control_c, 0, 64, 61
1, 88395, Control_c, 0, 64, 76
1, 88405, Note_off_c, 0, 38, 62
1, 88410, Control_c, 0, 64, 90
1, 88420, Note_off_c, 0, 50, 55
1, 88424, Control_c, 0, 64, 101
1, 88442, Note_off_c, 0, 47, 37
1, 88473, Note_off_c, 0, 59, 56
1, 88480, Note_off_c, 0, 71, 59
1, 88517, Note_off_c, 0, 64, 64
1, 88528, Control_c, 0, 64, 101
1, 88538, Note_on_c, 0, 68, 76
1, 88539, Note_on_c, 0, 47, 56
1, 88543, Note_on_c, 0, 38, 51
1, 88545, Note_on_c, 0, 50, 59
1, 88556, Note_on_c, 0, 59, 49
1, 88557, Control_c, 0, 64, 102
1, 88565, Note_off_c, 0, 68, 67
1, 88572, Control_c, 0, 64, 102
1, 88576, Note_off_c, 0, 50, 54
1, 88577, Note_off_c, 0, 47, 60
1, 88587, Note_off_c, 0, 59, 51
1, 88587, Control_c, 0, 64, 103
1, 88595, Note_off_c, 0, 38, 58
1, 88602, Control_c, 0, 64, 104
1, 88617, Control_c, 0, 64, 104
1, 88632, Control_c, 0, 64, 105
1, 88647, Control_c, 0, 64, 106
1, 88661, Control_c, 0, 64, 107
1, 88669, Note_on_c, 0, 47, 55
1, 88676, Control_c, 0, 64, 108
1, 88679, Note_on_c, 0, 38, 42
1, 88690, Note_off_c, 0, 47, 63
1, 88691, Control_c, 0, 64, 109
1, 88706, Control_c, 0, 64, 110
1, 88717, Note_on_c, 0, 50, 57
1, 88721, Control_c, 0, 64, 111
1, 88732, Note_off_c, 0, 38, 61
1, 88736, Control_c, 0, 64, 111
1, 88751, Control_c, 0, 64, 112
1, 88757, Note_off_c, 0, 50, 63
1, 88759, Note_on_c, 0, 64, 88
1, 88766, Control_c, 0, 64, 114
1, 88770, Note_on_c, 0, 56, 74
1, 88781, Control_c, 0, 64, 115
1, 88796, Control_c, 0, 64, 117
1, 88811, Control_c, 0, 64, 119
1, 88825, Control_c, 0, 64, 120
1, 88826, Note_off_c, 0, 56, 59
1, 88840, Control_c, 0, 64, 121
1, 88855, Control_c, 0, 64, 122
1, 88858, Note_off_c, 0, 64, 58
1, 88870, Control_c, 0, 64, 122
1, 88885, Control_c, 0, 64, 123
1, 88929, Control_c, 0, 64, 122
1, 88939, Note_on_c, 0, 49, 70
1, 88940, Note_on_c, 0, 69, 91
1, 88941, Note_on_c, 0, 37, 61
1, 88944, Note_on_c, 0, 64, 46
1, 88944, Control_c, 0, 64, 109
1, 88947, Note_on_c, 0, 40, 57
1, 88949, Note_on_c, 0, 57, 67
1, 88959, Control_c, 0, 64, 87
1, 88971, Note_on_c, 0, 61, 48
1, 88973, Control_c, 0, 64, 63
1, 88988, Control_c, 0, 64, 0
1, 89011, Note_off_c, 0, 61, 44
1, 89033, Control_c, 0, 64, 57
1, 89047, Control_c, 0, 64, 72
1, 89055, Note_off_c, 0, 49, 58
1, 89062, Control_c, 0, 64, 85
1, 89066, Note_off_c, 0, 64, 53
1, 89071, Note_off_c, 0, 37, 59
1, 89077, Control_c, 0, 64, 94
1, 89087, Note_off_c, 0, 57, 47
1, 89092, Control_c, 0, 64, 95
1, 89105, Note_off_c, 0, 40, 35
1, 89129, Control_c, 0, 64, 96
1, 89144, Control_c, 0, 64, 96
1, 89159, Control_c, 0, 64, 98
1, 89171, Note_on_c, 0, 49, 71
1, 89174, Control_c, 0, 64, 99
1, 89177, Note_on_c, 0, 40, 42
1, 89181, Note_on_c, 0, 37, 52
1, 89188, Control_c, 0, 64, 100
1, 89195, Note_on_c, 0, 64, 53
1, 89203, Control_c, 0, 64, 101
1, 89213, Note_on_c, 0, 61, 27
1, 89216, Note_on_c, 0, 57, 24
1, 89216, Note_off_c, 0, 49, 56
1, 89218, Control_c, 0, 64, 101
1, 89227, Note_off_c, 0, 37, 58
1, 89233, Control_c, 0, 64, 102
1, 89243, Note_off_c, 0, 40, 53
1, 89246, Note_off_c, 0, 64, 52
1, 89249, Note_off_c, 0, 61, 44
1, 89277, Control_c, 0, 64, 102
1, 89283, Note_off_c, 0, 57, 38
1, 89330, Note_on_c, 0, 49, 72
1, 89338, Note_on_c, 0, 37, 61
1, 89347, Note_on_c, 0, 64, 63
1, 89348, Note_on_c, 0, 61, 60
1, 89350, Note_on_c, 0, 40, 58
1, 89354, Note_on_c, 0, 57, 57
1, 89390, Note_off_c, 0, 37, 60
1, 89394, Note_off_c, 0, 40, 58
1, 89394, Note_off_c, 0, 49, 55
1, 89403, Note_off_c, 0, 61, 51
1, 89422, Note_off_c, 0, 64, 61
1, 89425, Note_off_c, 0, 57, 51
1, 89425, Control_c, 0, 64, 103
1, 89442, Note_off_c, 0, 69, 53
1, 89469, Control_c, 0, 64, 103
1, 89489, Note_on_c, 0, 49, 68
1, 89500, Note_on_c, 0, 37, 58
1, 89503, Note_on_c, 0, 40, 60
1, 89505, Note_on_c, 0, 64, 54
1, 89512, Note_on_c, 0, 57, 50
1, 89514, Control_c, 0, 64, 104
1, 89514, Note_on_c, 0, 61, 64
1, 89544, Control_c, 0, 64, 104
1, 89549, Note_off_c, 0, 37, 59
1, 89553, Note_off_c, 0, 57, 55
1, 89553, Note_off_c, 0, 61, 55
1, 89554, Note_off_c, 0, 49, 54
1, 89559, Control_c, 0, 64, 105
1, 89564, Note_off_c, 0, 40, 54
1, 89574, Note_off_c, 0, 64, 61
1, 89574, Control_c, 0, 64, 105
1, 89589, Control_c, 0, 64, 106
1, 89633, Control_c, 0, 64, 106
1, 89644, Note_on_c, 0, 40, 61
1, 89647, Note_on_c, 0, 37, 64
1, 89648, Note_on_c, 0, 49, 65
1, 89660, Note_on_c, 0, 57, 64
1, 89660, Note_on_c, 0, 64, 73
1, 89662, Note_on_c, 0, 61, 66
1, 89663, Control_c, 0, 64, 107
1, 89678, Control_c, 0, 64, 107
1, 89693, Control_c, 0, 64, 108
1, 89708, Control_c, 0, 64, 108
1, 89711, Note_off_c, 0, 37, 61
1, 89723, Control_c, 0, 64, 109
1, 89738, Control_c, 0, 64, 110
1, 89747, Note_on_c, 0, 69, 96
1, 89752, Control_c, 0, 64, 111
1, 89752, Note_off_c, 0, 49, 59
1, 89764, Note_off_c, 0, 61, 56
1, 89767, Control_c, 0, 64, 112
1, 89773, Note_off_c, 0, 64, 63
1, 89782, Control_c, 0, 64, 113
1, 89796, Control_c, 0, 64, 114
1, 89811, Control_c, 0, 64, 115
1, 89819, Note_off_c, 0, 40, 62
1, 89823, Note_on_c, 0, 37, 70
1, 89826, Control_c, 0, 64, 118
1, 89840, Note_off_c, 0, 57, 0
1, 89841, Control_c, 0, 64, 121
1, 89863, Control_c, 0, 64, 125
1, 89871, Note_on_c, 0, 64, 64
1, 89878, Note_on_c, 0, 49, 63
1, 89878, Control_c, 0, 64, 127
1, 89884, Poly_aftertouch_c, 0, 57, 127
1, 89892, Note_off_c, 0, 37, 59
1, 89902, Note_off_c, 0, 69, 63
1, 89919, Note_off_c, 0, 64, 60
1, 89920, Note_off_c, 0, 49, 60
1, 89925, Poly_aftertouch_c, 0, 57, 0
1, 90027, Note_on_c, 0, 35, 75
1, 90051, Note_on_c, 0, 40, 58
1, 90092, Note_on_c, 0, 47, 89
1, 90100, Control_c, 0, 64, 121
1, 90110, Note_on_c, 0, 74, 97
1, 90115, Control_c, 0, 64, 92
1, 90119, Note_on_c, 0, 62, 84
1, 90125, Note_on_c, 0, 64, 86
1, 90129, Control_c, 0, 64, 66
1, 90144, Control_c, 0, 64, 0
1, 90163, Note_on_c, 0, 68, 37
1, 90197, Note_off_c, 0, 68, 52
1, 90218, Control_c, 0, 64, 69
1, 90233, Control_c, 0, 64, 81
1, 90248, Control_c, 0, 64, 98
1, 90263, Control_c, 0, 64, 111
1, 90265, Note_off_c, 0, 35, 58
1, 90277, Control_c, 0, 64, 116
1, 90279, Note_off_c, 0, 47, 61
1, 90292, Control_c, 0, 64, 117
1, 90304, Note_off_c, 0, 64, 51
1, 90307, Control_c, 0, 64, 118
1, 90308, Note_off_c, 0, 62, 57
1, 90323, Control_c, 0, 64, 119
1, 90338, Control_c, 0, 64, 120
1, 90353, Control_c, 0, 64, 122
1, 90359, Note_off_c, 0, 40, 0
1, 90367, Note_off_c, 0, 74, 54
1, 90367, Control_c, 0, 64, 125
1, 90374, Note_on_c, 0, 47, 88
1, 90377, Note_on_c, 0, 40, 37
1, 90379, Note_on_c, 0, 68, 86
1, 90382, Control_c, 0, 64, 127
1, 90384, Note_on_c, 0, 35, 72
1, 90387, Note_on_c, 0, 64, 55
1, 90392, Note_on_c, 0, 62, 65
1, 90450, Note_off_c, 0, 47, 53
1, 90453, Note_off_c, 0, 68, 63
1, 90454, Note_off_c, 0, 35, 61
1, 90488, Note_off_c, 0, 40, 35
1, 90573, Note_off_c, 0, 64, 27
1, 90601, Note_on_c, 0, 68, 93
1, 90607, Note_on_c, 0, 35, 70
1, 90607, Note_on_c, 0, 47, 87
1, 90612, Note_on_c, 0, 40, 64
1, 90614, Note_off_c, 0, 62, 0
1, 90650, Poly_aftertouch_c, 0, 62, 127
1, 90689, Poly_aftertouch_c, 0, 64, 0
1, 90691, Poly_aftertouch_c, 0, 62, 0
1, 90697, Note_off_c, 0, 47, 58
1, 90699, Note_off_c, 0, 35, 58
1, 90714, Note_off_c, 0, 68, 63
1, 90729, Note_off_c, 0, 40, 60
1, 90741, Note_on_c, 0, 74, 96
1, 90838, Note_off_c, 0, 74, 63
1, 90867, Note_on_c, 0, 33, 75
1, 90879, Control_c, 0, 64, 107
1, 90881, Note_on_c, 0, 40, 84
1, 90892, Note_on_c, 0, 45, 91
1, 90894, Control_c, 0, 64, 70
1, 90895, Note_on_c, 0, 74, 91
1, 90902, Note_on_c, 0, 69, 86
1, 90909, Note_on_c, 0, 62, 81
1, 90909, Control_c, 0, 64, 0
1, 90910, Note_on_c, 0, 64, 84
1, 90983, Control_c, 0, 64, 71
1, 90998, Control_c, 0, 64, 82
1, 91003, Note_off_c, 0, 69, 59
1, 91013, Control_c, 0, 64, 94
1, 91027, Control_c, 0, 64, 99
1, 91037, Note_off_c, 0, 33, 63
1, 91042, Control_c, 0, 64, 101
1, 91047, Note_off_c, 0, 45, 57
1, 91057, Control_c, 0, 64, 103
1, 91060, Note_off_c, 0, 62, 49
1, 91062, Note_off_c, 0, 64, 54
1, 91072, Control_c, 0, 64, 104
1, 91087, Control_c, 0, 64, 105
1, 91101, Control_c, 0, 64, 107
1, 91110, Note_off_c, 0, 74, 56
1, 91117, Control_c, 0, 64, 109
1, 91132, Control_c, 0, 64, 111
1, 91147, Control_c, 0, 64, 115
1, 91151, Note_off_c, 0, 40, 0
1, 91162, Control_c, 0, 64, 119
1, 91176, Control_c, 0, 64, 123
1, 91179, Note_on_c, 0, 40, 10
1, 91186, Note_on_c, 0, 45, 63
1, 91187, Note_on_c, 0, 69, 77
1, 91188, Note_on_c, 0, 33, 56
1, 91190, Control_c, 0, 64, 127
1, 91196, Note_on_c, 0, 64, 55
1, 91202, Note_on_c, 0, 62, 53
1, 91222, Note_off_c, 0, 62, 61
1, 91230, Note_off_c, 0, 64, 50
1, 91241, Note_off_c, 0, 40, 59
1, 91242, Note_off_c, 0, 45, 45
1, 91246, Note_off_c, 0, 33, 58
1, 91248, Note_off_c, 0, 69, 60
1, 91380, Note_on_c, 0, 69, 69
1, 91389, Note_on_c, 0, 45, 67
1, 91389, Note_on_c, 0, 40, 61
1, 91401, Note_on_c, 0, 33, 54
1, 91406, Note_off_c, 0, 69, 70
1, 91420, Note_on_c, 0, 62, 29
1, 91430, Note_off_c, 0, 40, 59
1, 91439, Note_off_c, 0, 33, 62
1, 91441, Note_off_c, 0, 45, 54
1, 91460, Note_off_c, 0, 62, 42
1, 91532, Note_on_c, 0, 33, 57
1, 91551, Note_on_c, 0, 40, 54
1, 91587, Note_on_c, 0, 45, 57
1, 91609, Note_on_c, 0, 73, 81
1, 91627, Control_c, 0, 64, 101
1, 91631, Note_on_c, 0, 64, 49
1, 91642, Note_on_c, 0, 61, 56
1, 91642, Control_c, 0, 64, 75
1, 91657, Control_c, 0, 64, 0
1, 91701, Control_c, 0, 64, 61
1, 91716, Note_off_c, 0, 45, 58
1, 91716, Note_off_c, 0, 64, 52
1, 91716, Control_c, 0, 64, 72
1, 91719, Note_off_c, 0, 33, 52
1, 91731, Control_c, 0, 64, 83
1, 91746, Control_c, 0, 64, 91
1, 91747, Note_off_c, 0, 61, 51
1, 91761, Control_c, 0, 64, 94
1, 91775, Control_c, 0, 64, 95
1, 91777, Note_off_c, 0, 73, 60
1, 91790, Control_c, 0, 64, 96
1, 91791, Note_off_c, 0, 40, 0
1, 91805, Control_c, 0, 64, 99
1, 91812, Note_on_c, 0, 40, 27
1, 91820, Control_c, 0, 64, 102
1, 91824, Note_on_c, 0, 64, 56
1, 91828, Note_on_c, 0, 69, 71
1, 91833, Note_on_c, 0, 33, 52
1, 91834, Note_on_c, 0, 45, 61
1, 91835, Control_c, 0, 64, 106
1, 91849, Control_c, 0, 64, 109
1, 91850, Note_on_c, 0, 61, 45
1, 91864, Control_c, 0, 64, 111
1, 91879, Control_c, 0, 64, 113
1, 91890, Note_off_c, 0, 33, 58
1, 91893, Control_c, 0, 64, 115
1, 91904, Note_off_c, 0, 61, 56
1, 91908, Control_c, 0, 64, 116
1, 91925, Control_c, 0, 64, 118
1, 91926, Note_off_c, 0, 45, 48
1, 91938, Note_on_c, 0, 73, 89
1, 91939, Control_c, 0, 64, 120
1, 91954, Control_c, 0, 64, 121
1, 91957, Note_off_c, 0, 69, 57
1, 91964, Note_off_c, 0, 40, 28
1, 91969, Control_c, 0, 64, 123
1, 91975, Note_off_c, 0, 64, 64
1, 91984, Control_c, 0, 64, 124
1, 91998, Control_c, 0, 64, 126
1, 92013, Control_c, 0, 64, 127
1, 92076, Note_on_c, 0, 33, 57
1, 92118, Note_on_c, 0, 40, 23
1, 92120, Note_off_c, 0, 33, 58
1, 92134, Note_on_c, 0, 64, 45
1, 92136, Note_on_c, 0, 69, 59
1, 92138, Note_on_c, 0, 45, 33
1, 92167, Note_off_c, 0, 40, 40
1, 92177, Note_on_c, 0, 61, 25
1, 92181, Note_off_c, 0, 73, 58
1, 92183, Note_off_c, 0, 45, 58
1, 92212, Note_off_c, 0, 61, 49
1, 92221, Note_off_c, 0, 64, 58
1, 92246, Note_off_c, 0, 69, 58
1, 92392, Note_on_c, 0, 73, 86
1, 92394, Note_on_c, 0, 45, 49
1, 92403, Note_on_c, 0, 68, 66
1, 92405, Note_on_c, 0, 64, 67
1, 92405, Control_c, 0, 64, 99
1, 92414, Note_on_c, 0, 52, 52
1, 92420, Control_c, 0, 64, 80
1, 92435, Control_c, 0, 64, 64
1, 92450, Control_c, 0, 64, 35
1, 92465, Control_c, 0, 64, 60
1, 92480, Control_c, 0, 64, 69
1, 92495, Control_c, 0, 64, 79
1, 92510, Control_c, 0, 64, 89
1, 92520, Note_off_c, 0, 64, 43
1, 92524, Control_c, 0, 64, 95
1, 92539, Control_c, 0, 64, 98
1, 92545, Note_off_c, 0, 68, 37
1, 92554, Control_c, 0, 64, 99
1, 92569, Note_off_c, 0, 52, 27
1, 92569, Control_c, 0, 64, 102
1, 92584, Control_c, 0, 64, 105
1, 92586, Note_off_c, 0, 45, 41
1, 92598, Control_c, 0, 64, 109
1, 92613, Control_c, 0, 64, 113
1, 92628, Control_c, 0, 64, 115
1, 92643, Control_c, 0, 64, 118
1, 92658, Control_c, 0, 64, 121
1, 92663, Note_on_c, 0, 68, 45
1, 92669, Note_on_c, 0, 57, 52
1, 92672, Control_c, 0, 64, 124
1, 92686, Note_on_c, 0, 64, 33
1, 92687, Control_c, 0, 64, 127
1, 92698, Note_off_c, 0, 73, 32
1, 92724, Note_off_c, 0, 57, 57
1, 92763, Note_off_c, 0, 64, 40
1, 92836, Note_on_c, 0, 73, 72
1, 92836, Note_off_c, 0, 68, 56
1, 92989, Note_on_c, 0, 57, 29
1, 93084, Note_off_c, 0, 73, 26
1, 93086, Note_on_c, 0, 68, 29
1, 93096, Note_off_c, 0, 57, 56
1, 93111, Poly_aftertouch_c, 0, 61, 0
1, 93138, Poly_aftertouch_c, 0, 64, 127
1, 93153, Note_off_c, 0, 68, 42
1, 93192, Poly_aftertouch_c, 0, 64, 0
1, 93288, Control_c, 0, 67, 9
1, 93303, Control_c, 0, 67, 21
1, 93318, Control_c, 0, 67, 39
1, 93333, Control_c, 0, 67, 60
1, 93347, Control_c, 0, 67, 84
1, 93362, Control_c, 0, 67, 102
1, 93377, Control_c, 0, 67, 118
1, 93392, Control_c, 0, 67, 127
1, 93636, Note_on_c, 0, 39, 50
1, 93667, Control_c, 0, 64, 125
1, 93682, Control_c, 0, 64, 106
1, 93697, Control_c, 0, 64, 90
1, 93712, Control_c, 0, 64, 73
1, 93717, Note_on_c, 0, 73, 69
1, 93726, Control_c, 0, 64, 0
1, 93729, Note_on_c, 0, 58, 53
1, 93771, Control_c, 0, 64, 39
1, 93786, Control_c, 0, 64, 66
1, 93801, Control_c, 0, 64, 74
1, 93815, Control_c, 0, 64, 82
1, 93830, Control_c, 0, 64, 88
1, 93838, Note_off_c, 0, 58, 56
1, 93845, Control_c, 0, 64, 91
1, 93860, Control_c, 0, 64, 93
1, 93868, Note_off_c, 0, 39, 59
1, 93875, Control_c, 0, 64, 94
1, 93879, Note_off_c, 0, 73, 61
1, 93890, Control_c, 0, 64, 96
1, 93905, Control_c, 0, 64, 98
1, 93919, Control_c, 0, 64, 100
1, 93934, Control_c, 0, 64, 101
1, 93949, Control_c, 0, 64, 101
1, 93964, Control_c, 0, 64, 102
1, 93978, Control_c, 0, 64, 102
1, 93993, Control_c, 0, 64, 103
1, 94002, Note_on_c, 0, 61, 48
1, 94008, Control_c, 0, 64, 104
1, 94023, Control_c, 0, 64, 105
1, 94037, Control_c, 0, 64, 106
1, 94046, Note_off_c, 0, 61, 58
1, 94052, Control_c, 0, 64, 108
1, 94067, Control_c, 0, 64, 109
1, 94071, Note_on_c, 0, 63, 50
1, 94082, Control_c, 0, 64, 110
1, 94096, Control_c, 0, 64, 111
1, 94106, Note_off_c, 0, 63, 57
1, 94126, Control_c, 0, 64, 111
1, 94142, Note_on_c, 0, 67, 42
1, 94175, Note_off_c, 0, 67, 54
1, 94185, Note_on_c, 0, 70, 62
1, 94259, Note_on_c, 0, 67, 55
1, 94303, Note_off_c, 0, 70, 59
1, 94326, Note_on_c, 0, 63, 49
1, 94376, Note_off_c, 0, 63, 60
1, 94396, Note_off_c, 0, 67, 60
1, 94409, Note_on_c, 0, 61, 42
1, 94412, Note_on_c, 0, 75, 40
1, 94443, Note_on_c, 0, 79, 49
1, 94487, Note_on_c, 0, 82, 68
1, 94511, Note_off_c, 0, 79, 57
1, 94513, Note_off_c, 0, 61, 49
1, 94540, Note_on_c, 0, 85, 78
1, 94542, Note_off_c, 0, 82, 64
1, 94553, Note_off_c, 0, 75, 64
1, 94608, Note_off_c, 0, 85, 60
1, 94623, Note_on_c, 0, 61, 45
1, 94668, Control_c, 0, 64, 112
1, 94680, Note_on_c, 0, 63, 49
1, 94727, Control_c, 0, 64, 112
1, 94731, Note_off_c, 0, 61, 31
1, 94735, Note_on_c, 0, 67, 47
1, 94784, Note_on_c, 0, 73, 83
1, 94784, Note_off_c, 0, 67, 64
1, 94811, Note_off_c, 0, 63, 38
1, 94831, Control_c, 0, 64, 113
1, 94895, Note_on_c, 0, 67, 52
1, 94905, Control_c, 0, 64, 113
1, 94926, Note_off_c, 0, 73, 56
1, 94929, Note_on_c, 0, 63, 61
1, 94929, Note_off_c, 0, 67, 50
1, 94948, Control_c, 0, 64, 114
1, 94960, Note_off_c, 0, 63, 66
1, 95001, Note_on_c, 0, 61, 68
1, 95007, Control_c, 0, 64, 114
1, 95050, Note_off_c, 0, 61, 56
1, 95062, Note_on_c, 0, 75, 86
1, 95066, Control_c, 0, 64, 115
1, 95119, Note_off_c, 0, 75, 66
1, 95119, Control_c, 0, 64, 115
1, 95180, Note_on_c, 0, 61, 66
1, 95237, Note_off_c, 0, 61, 41
1, 95255, Note_on_c, 0, 63, 53
1, 95296, Note_on_c, 0, 67, 54
1, 95309, Note_off_c, 0, 63, 44
1, 95353, Note_on_c, 0, 70, 75
1, 95356, Note_off_c, 0, 67, 62
1, 95424, Note_on_c, 0, 67, 57
1, 95461, Note_off_c, 0, 70, 58
1, 95500, Note_on_c, 0, 63, 33
1, 95536, Note_off_c, 0, 63, 44
1, 95545, Note_on_c, 0, 61, 51
1, 95578, Note_off_c, 0, 61, 62
1, 95622, Control_c, 0, 64, 115
1, 95633, Note_on_c, 0, 70, 55
1, 95637, Control_c, 0, 64, 112
1, 95652, Control_c, 0, 64, 101
1, 95653, Note_on_c, 0, 39, 35
1, 95664, Note_off_c, 0, 67, 32
1, 95667, Control_c, 0, 64, 85
1, 95682, Control_c, 0, 64, 65
1, 95692, Note_on_c, 0, 72, 70
1, 95697, Control_c, 0, 64, 0
1, 95739, Note_off_c, 0, 70, 59
1, 95756, Control_c, 0, 64, 52
1, 95771, Control_c, 0, 64, 69
1, 95786, Control_c, 0, 64, 79
1, 95801, Control_c, 0, 64, 90
1, 95816, Control_c, 0, 64, 98
1, 95831, Control_c, 0, 64, 101
1, 95833, Note_off_c, 0, 39, 53
1, 95834, Note_off_c, 0, 72, 39
1, 95853, Control_c, 0, 64, 102
1, 95862, Note_on_c, 0, 60, 44
1, 95867, Control_c, 0, 64, 103
1, 95882, Control_c, 0, 64, 105
1, 95897, Control_c, 0, 64, 106
1, 95913, Control_c, 0, 64, 108
1, 95928, Control_c, 0, 64, 109
1, 95943, Control_c, 0, 64, 109
1, 95955, Note_off_c, 0, 60, 34
1, 95957, Note_on_c, 0, 63, 46
1, 95958, Control_c, 0, 64, 110
1, 95972, Control_c, 0, 64, 111
1, 95990, Note_off_c, 0, 63, 51
1, 96002, Control_c, 0, 64, 111
1, 96012, Note_on_c, 0, 70, 44
1, 96032, Control_c, 0, 64, 112
1, 96060, Note_off_c, 0, 70, 0
1, 96060, Note_on_c, 0, 70, 32
1, 96172, Note_on_c, 0, 63, 55
1, 96179, Control_c, 0, 64, 112
1, 96196, Note_off_c, 0, 70, 52
1, 96245, Note_off_c, 0, 63, 59
1, 96257, Note_on_c, 0, 60, 56
1, 96365, Note_on_c, 0, 75, 42
1, 96406, Note_off_c, 0, 60, 28
1, 96411, Note_on_c, 0, 82, 53
1, 96435, Note_off_c, 0, 75, 37
1, 96457, Note_off_c, 0, 82, 56
1, 96476, Note_on_c, 0, 84, 61
1, 96540, Note_off_c, 0, 84, 63
1, 96554, Note_on_c, 0, 60, 29
1, 96591, Note_off_c, 0, 60, 50
1, 96602, Note_on_c, 0, 63, 48
1, 96636, Note_off_c, 0, 63, 53
1, 96653, Note_on_c, 0, 70, 58
1, 96683, Note_off_c, 0, 70, 56
1, 96733, Note_on_c, 0, 70, 60
1, 96820, Note_on_c, 0, 63, 50
1, 96856, Note_off_c, 0, 63, 54
1, 96902, Note_on_c, 0, 60, 45
1, 96945, Note_off_c, 0, 70, 42
1, 96994, Note_on_c, 0, 72, 72
1, 97017, Note_off_c, 0, 60, 25
1, 97032, Control_c, 0, 64, 108
1, 97039, Note_on_c, 0, 68, 62
1, 97047, Control_c, 0, 64, 100
1, 97062, Control_c, 0, 64, 88
1, 97077, Control_c, 0, 64, 80
1, 97091, Control_c, 0, 64, 77
1, 97106, Control_c, 0, 64, 78
1, 97121, Control_c, 0, 64, 82
1, 97127, Note_off_c, 0, 68, 54
1, 97134, Note_on_c, 0, 60, 55
1, 97135, Note_off_c, 0, 72, 31
1, 97136, Control_c, 0, 64, 87
1, 97151, Control_c, 0, 64, 92
1, 97166, Control_c, 0, 64, 95
1, 97181, Control_c, 0, 64, 96
1, 97191, Note_off_c, 0, 60, 45
1, 97195, Control_c, 0, 64, 97
1, 97205, Note_on_c, 0, 63, 60
1, 97231, Note_off_c, 0, 63, 64
1, 97277, Note_on_c, 0, 68, 46
1, 97303, Note_off_c, 0, 68, 59
1, 97377, Note_on_c, 0, 68, 47
1, 97407, Note_on_c, 0, 39, 48
1, 97431, Note_on_c, 0, 63, 50
1, 97440, Control_c, 0, 64, 94
1, 97455, Control_c, 0, 64, 87
1, 97465, Note_off_c, 0, 39, 52
1, 97469, Control_c, 0, 64, 76
1, 97484, Control_c, 0, 64, 60
1, 97499, Control_c, 0, 64, 0
1, 97511, Note_off_c, 0, 68, 37
1, 97515, Control_c, 0, 64, 37
1, 97520, Note_on_c, 0, 60, 57
1, 97530, Control_c, 0, 64, 64
1, 97530, Note_on_c, 0, 50, 39
1, 97544, Control_c, 0, 64, 69
1, 97559, Control_c, 0, 64, 73
1, 97571, Note_off_c, 0, 63, 38
1, 97574, Control_c, 0, 64, 77
1, 97589, Control_c, 0, 64, 79
1, 97590, Note_off_c, 0, 50, 58
1, 97595, Note_on_c, 0, 72, 73
1, 97604, Control_c, 0, 64, 81
1, 97618, Control_c, 0, 64, 83
1, 97626, Note_off_c, 0, 72, 60
1, 97628, Note_on_c, 0, 53, 52
1, 97633, Control_c, 0, 64, 86
1, 97639, Note_off_c, 0, 60, 54
1, 97648, Control_c, 0, 64, 88
1, 97663, Control_c, 0, 64, 91
1, 97665, Note_off_c, 0, 53, 67
1, 97678, Control_c, 0, 64, 93
1, 97692, Control_c, 0, 64, 96
1, 97707, Control_c, 0, 64, 98
1, 97722, Control_c, 0, 64, 101
1, 97736, Control_c, 0, 64, 104
1, 97751, Control_c, 0, 64, 107
1, 97766, Control_c, 0, 64, 110
1, 97781, Control_c, 0, 64, 112
1, 97796, Control_c, 0, 64, 114
1, 97804, Note_on_c, 0, 56, 45
1, 97810, Control_c, 0, 64, 115
1, 97825, Control_c, 0, 64, 115
1, 97840, Control_c, 0, 64, 116
1, 97852, Note_off_c, 0, 56, 46
1, 97853, Note_on_c, 0, 58, 58
1, 97870, Control_c, 0, 64, 116
1, 97884, Note_on_c, 0, 62, 64
1, 97895, Note_off_c, 0, 58, 56
1, 97929, Note_on_c, 0, 65, 72
1, 97935, Note_off_c, 0, 62, 59
1, 98003, Note_on_c, 0, 62, 56
1, 98019, Note_off_c, 0, 65, 64
1, 98056, Note_on_c, 0, 58, 50
1, 98097, Note_on_c, 0, 56, 66
1, 98103, Note_off_c, 0, 62, 57
1, 98105, Note_off_c, 0, 58, 62
1, 98159, Note_on_c, 0, 74, 43
1, 98171, Note_on_c, 0, 77, 42
1, 98191, Note_on_c, 0, 80, 79
1, 98206, Note_off_c, 0, 56, 51
1, 98218, Control_c, 0, 64, 117
1, 98234, Note_on_c, 0, 84, 82
1, 98236, Note_on_c, 0, 65, 61
1, 98262, Control_c, 0, 64, 117
1, 98287, Note_off_c, 0, 74, 51
1, 98292, Control_c, 0, 64, 118
1, 98307, Control_c, 0, 64, 118
1, 98308, Note_off_c, 0, 77, 31
1, 98315, Note_off_c, 0, 65, 62
1, 98319, Note_off_c, 0, 84, 60
1, 98323, Control_c, 0, 64, 119
1, 98337, Control_c, 0, 64, 121
1, 98340, Note_on_c, 0, 56, 60
1, 98352, Control_c, 0, 64, 121
1, 98367, Control_c, 0, 64, 122
1, 98382, Control_c, 0, 64, 122
1, 98391, Note_off_c, 0, 56, 58
1, 98397, Note_on_c, 0, 58, 58
1, 98412, Control_c, 0, 64, 123
1, 98427, Control_c, 0, 64, 123
1, 98451, Note_on_c, 0, 62, 52
1, 98456, Note_off_c, 0, 58, 47
1, 98456, Control_c, 0, 64, 124
1, 98471, Control_c, 0, 64, 124
1, 98484, Note_off_c, 0, 80, 62
1, 98486, Control_c, 0, 64, 125
1, 98503, Note_off_c, 0, 62, 58
1, 98505, Note_on_c, 0, 65, 66
1, 98507, Note_on_c, 0, 77, 77
1, 98513, Note_on_c, 0, 74, 59
1, 98516, Control_c, 0, 64, 126
1, 98531, Control_c, 0, 64, 127
1, 98546, Control_c, 0, 64, 127
1, 98546, Note_off_c, 0, 74, 61
1, 98567, Note_off_c, 0, 77, 63
1, 98568, Note_off_c, 0, 65, 63
1, 98575, Control_c, 0, 67, 120
1, 98579, Note_on_c, 0, 56, 64
1, 98590, Control_c, 0, 67, 94
1, 98605, Control_c, 0, 67, 62
1, 98620, Control_c, 0, 67, 23
1, 98634, Control_c, 0, 67, 0
1, 98636, Note_on_c, 0, 58, 63
1, 98643, Note_off_c, 0, 56, 60
1, 98709, Note_off_c, 0, 58, 63
1, 98710, Note_on_c, 0, 62, 58
1, 98764, Note_on_c, 0, 67, 79
1, 98784, Note_off_c, 0, 62, 59
1, 98820, Note_off_c, 0, 67, 61
1, 98861, Note_on_c, 0, 56, 75
1, 98933, Note_on_c, 0, 58, 61
1, 98944, Note_off_c, 0, 56, 54
1, 98987, Note_on_c, 0, 62, 66
1, 99007, Note_off_c, 0, 58, 60
1, 99074, Note_on_c, 0, 68, 83
1, 99082, Note_on_c, 0, 65, 64
1, 99083, Note_off_c, 0, 62, 60
1, 99157, Note_on_c, 0, 62, 53
1, 99198, Note_off_c, 0, 68, 60
1, 99213, Note_on_c, 0, 58, 67
1, 99226, Note_off_c, 0, 65, 53
1, 99254, Note_off_c, 0, 62, 60
1, 99260, Note_off_c, 0, 58, 59
1, 99291, Note_on_c, 0, 56, 76
1, 99354, Control_c, 0, 64, 125
1, 99369, Control_c, 0, 64, 90
1, 99370, Note_on_c, 0, 39, 75
1, 99375, Note_off_c, 0, 56, 62
1, 99383, Control_c, 0, 64, 55
1, 99398, Control_c, 0, 64, 0
1, 99412, Note_on_c, 0, 70, 89
1, 99443, Control_c, 0, 64, 66
1, 99457, Control_c, 0, 64, 77
1, 99463, Note_off_c, 0, 70, 66
1, 99464, Note_off_c, 0, 39, 62
1, 99472, Control_c, 0, 64, 89
1, 99487, Control_c, 0, 64, 101
1, 99502, Control_c, 0, 64, 105
1, 99516, Control_c, 0, 64, 107
1, 99531, Control_c, 0, 64, 109
1, 99546, Control_c, 0, 64, 113
1, 99561, Control_c, 0, 64, 119
1, 99576, Control_c, 0, 64, 127
1, 99598, Note_on_c, 0, 46, 47
1, 99618, Note_on_c, 0, 55, 63
1, 99649, Note_off_c, 0, 55, 61
1, 99653, Note_off_c, 0, 46, 55
1, 99694, Note_on_c, 0, 51, 51
1, 99703, Note_on_c, 0, 58, 57
1, 99716, Note_off_c, 0, 51, 59
1, 99733, Note_off_c, 0, 58, 66
1, 99741, Note_on_c, 0, 61, 71
1, 99746, Note_on_c, 0, 55, 46
1, 99788, Note_off_c, 0, 55, 57
1, 99793, Note_on_c, 0, 51, 65
1, 99795, Note_off_c, 0, 61, 62
1, 99801, Note_on_c, 0, 63, 66
1, 99848, Note_off_c, 0, 51, 58
1, 99867, Note_on_c, 0, 61, 68
1, 99885, Note_off_c, 0, 63, 57
1, 99902, Note_on_c, 0, 46, 56
1, 99913, Note_on_c, 0, 58, 62
1, 99935, Note_off_c, 0, 46, 63
1, 99950, Note_off_c, 0, 61, 62
1, 99962, Poly_aftertouch_c, 0, 49, 0
1, 99968, Note_on_c, 0, 55, 78
1, 99974, Note_off_c, 0, 58, 64
1, 100004, Note_on_c, 0, 39, 82
1, 100008, Note_off_c, 0, 55, 62
1, 100025, Note_off_c, 0, 39, 67
1, 100227, Note_on_c, 0, 58, 69
1, 100227, Note_on_c, 0, 67, 68
1, 100293, Note_off_c, 0, 58, 52
1, 100295, Note_off_c, 0, 67, 61
1, 100301, Note_on_c, 0, 70, 71
1, 100303, Note_on_c, 0, 61, 60
1, 100303, Poly_aftertouch_c, 0, 69, 127
1, 100340, Note_on_c, 0, 73, 72
1, 100341, Poly_aftertouch_c, 0, 69, 0
1, 100341, Note_off_c, 0, 70, 60
1, 100345, Note_off_c, 0, 61, 61
1, 100351, Note_on_c, 0, 63, 67
1, 100387, Note_off_c, 0, 63, 62
1, 100408, Note_on_c, 0, 75, 75
1, 100408, Note_off_c, 0, 73, 62
1, 100412, Note_on_c, 0, 67, 74
1, 100472, Note_off_c, 0, 67, 61
1, 100472, Note_on_c, 0, 63, 77
1, 100485, Note_on_c, 0, 73, 73
1, 100515, Note_off_c, 0, 75, 57
1, 100533, Note_off_c, 0, 63, 63
1, 100546, Note_on_c, 0, 70, 82
1, 100548, Note_on_c, 0, 61, 60
1, 100574, Note_on_c, 0, 58, 61
1, 100584, Note_off_c, 0, 73, 61
1, 100588, Note_off_c, 0, 61, 62
1, 100612, Note_on_c, 0, 67, 85
1, 100625, Note_off_c, 0, 70, 60
1, 100627, Note_off_c, 0, 58, 62
1, 100678, Note_off_c, 0, 67, 62
1, 100692, Note_on_c, 0, 51, 94
1, 100720, Note_off_c, 0, 51, 64
1, 101017, Note_on_c, 0, 70, 68
1, 101023, Note_on_c, 0, 79, 78
1, 101101, Note_off_c, 0, 79, 55
1, 101111, Note_on_c, 0, 82, 79
1, 101125, Note_on_c, 0, 73, 54
1, 101139, Note_off_c, 0, 70, 40
1, 101172, Note_on_c, 0, 75, 67
1, 101177, Note_on_c, 0, 85, 75
1, 101177, Note_off_c, 0, 73, 60
1, 101181, Note_off_c, 0, 82, 63
1, 101211, Note_off_c, 0, 75, 56
1, 101242, Note_on_c, 0, 79, 64
1, 101245, Note_on_c, 0, 87, 74
1, 101248, Note_off_c, 0, 85, 66
1, 101267, Note_off_c, 0, 87, 68
1, 101271, Note_off_c, 0, 79, 65
1, 101327, Note_on_c, 0, 82, 60
1, 101328, Note_on_c, 0, 91, 83
1, 101369, Note_on_c, 0, 85, 64
1, 101373, Note_off_c, 0, 91, 59
1, 101390, Note_off_c, 0, 82, 63
1, 101396, Note_on_c, 0, 94, 81
1, 101451, Note_on_c, 0, 87, 67
1, 101456, Note_off_c, 0, 85, 61
1, 101461, Note_on_c, 0, 97, 82
1, 101463, Note_off_c, 0, 94, 64
1, 101506, Note_off_c, 0, 87, 61
1, 101520, Note_on_c, 0, 91, 76
1, 101534, Note_off_c, 0, 97, 64
1, 101536, Note_on_c, 0, 99, 85
1, 101586, Note_off_c, 0, 91, 51
1, 101596, Note_on_c, 0, 87, 72
1, 101613, Note_on_c, 0, 97, 75
1, 101635, Note_off_c, 0, 99, 67
1, 101654, Note_off_c, 0, 87, 62
1, 101661, Note_on_c, 0, 85, 62
1, 101669, Note_on_c, 0, 94, 78
1, 101685, Note_off_c, 0, 97, 64
1, 101700, Note_on_c, 0, 82, 64
1, 101706, Note_off_c, 0, 94, 57
1, 101716, Note_off_c, 0, 85, 63
1, 101720, Note_on_c, 0, 91, 75
1, 101745, Note_off_c, 0, 82, 61
1, 101747, Note_off_c, 0, 91, 59
1, 101817, Note_on_c, 0, 87, 58
1, 101820, Note_on_c, 0, 81, 22
1, 101867, Note_off_c, 0, 87, 46
1, 101867, Note_off_c, 0, 81, 38
1, 101886, Note_on_c, 0, 85, 65
1, 101930, Note_on_c, 0, 82, 69
1, 101947, Note_on_c, 0, 73, 49
1, 101962, Note_off_c, 0, 85, 58
1, 101986, Note_on_c, 0, 79, 69
1, 101988, Note_off_c, 0, 73, 49
1, 101988, Note_off_c, 0, 82, 63
1, 102002, Note_on_c, 0, 70, 42
1, 102040, Note_off_c, 0, 79, 0
1, 102043, Note_off_c, 0, 70, 45
1, 102053, Note_on_c, 0, 87, 85
1, 102055, Note_on_c, 0, 79, 53
1, 102106, Note_off_c, 0, 79, 63
1, 102126, Note_on_c, 0, 75, 69
1, 102134, Note_on_c, 0, 85, 77
1, 102139, Note_off_c, 0, 87, 62
1, 102173, Note_off_c, 0, 75, 56
1, 102197, Note_on_c, 0, 82, 64
1, 102205, Note_on_c, 0, 73, 55
1, 102207, Note_off_c, 0, 85, 62
1, 102229, Note_off_c, 0, 82, 60
1, 102230, Note_on_c, 0, 70, 64
1, 102238, Note_off_c, 0, 73, 66
1, 102256, Note_on_c, 0, 79, 66
1, 102263, Note_off_c, 0, 70, 62
1, 102281, Note_off_c, 0, 79, 68
1, 102337, Note_on_c, 0, 67, 57
1, 102348, Note_on_c, 0, 75, 71
1, 102371, Note_off_c, 0, 67, 62
1, 102398, Note_on_c, 0, 63, 66
1, 102414, Note_off_c, 0, 75, 63
1, 102418, Note_on_c, 0, 73, 69
1, 102448, Note_off_c, 0, 63, 54
1, 102467, Note_on_c, 0, 70, 70
1, 102470, Note_on_c, 0, 61, 67
1, 102497, Note_off_c, 0, 73, 60
1, 102529, Note_on_c, 0, 67, 81
1, 102541, Note_off_c, 0, 70, 62
1, 102546, Note_on_c, 0, 58, 63
1, 102550, Note_off_c, 0, 61, 58
1, 102591, Note_off_c, 0, 67, 58
1, 102595, Note_off_c, 0, 58, 62
1, 102619, Note_on_c, 0, 67, 57
1, 102624, Note_on_c, 0, 75, 87
1, 102678, Note_off_c, 0, 67, 59
1, 102698, Note_on_c, 0, 63, 68
1, 102709, Note_on_c, 0, 73, 75
1, 102712, Note_off_c, 0, 75, 61
1, 102759, Note_off_c, 0, 63, 62
1, 102767, Note_on_c, 0, 61, 62
1, 102786, Note_on_c, 0, 70, 79
1, 102810, Note_off_c, 0, 73, 60
1, 102842, Note_off_c, 0, 70, 61
1, 102850, Note_on_c, 0, 58, 58
1, 102859, Note_off_c, 0, 61, 57
1, 102874, Note_on_c, 0, 67, 74
1, 102898, Note_off_c, 0, 58, 60
1, 102907, Note_off_c, 0, 67, 58
1, 102961, Note_on_c, 0, 55, 62
1, 102980, Note_on_c, 0, 63, 81
1, 103015, Note_off_c, 0, 55, 54
1, 103059, Note_on_c, 0, 51, 65
1, 103074, Note_off_c, 0, 63, 53
1, 103080, Note_on_c, 0, 61, 84
1, 103156, Note_off_c, 0, 51, 61
1, 103175, Note_on_c, 0, 49, 64
1, 103183, Note_on_c, 0, 58, 82
1, 103196, Note_off_c, 0, 61, 56
1, 103283, Note_off_c, 0, 58, 62
1, 103284, Note_on_c, 0, 46, 72
1, 103288, Note_off_c, 0, 49, 62
1, 103290, Note_on_c, 0, 55, 89
1, 103338, Note_off_c, 0, 46, 61
1, 103374, Note_off_c, 0, 55, 61
1, 103542, Note_on_c, 0, 32, 74
1, 103587, Note_on_c, 0, 39, 69
1, 103625, Control_c, 0, 64, 88
1, 103627, Note_on_c, 0, 44, 78
1, 103639, Control_c, 0, 64, 33
1, 103642, Note_on_c, 0, 72, 92
1, 103643, Note_on_c, 0, 60, 92
1, 103654, Control_c, 0, 64, 0
1, 103688, Note_off_c, 0, 32, 64
1, 103698, Control_c, 0, 64, 71
1, 103713, Control_c, 0, 64, 86
1, 103728, Control_c, 0, 64, 104
1, 103731, Note_off_c, 0, 39, 59
1, 103743, Control_c, 0, 64, 116
1, 103747, Note_off_c, 0, 44, 61
1, 103757, Control_c, 0, 64, 118
1, 103766, Note_off_c, 0, 72, 53
1, 103772, Control_c, 0, 64, 120
1, 103787, Control_c, 0, 64, 127
1, 103818, Note_on_c, 0, 63, 65
1, 103838, Note_off_c, 0, 60, 56
1, 103881, Note_off_c, 0, 63, 64
1, 103883, Note_on_c, 0, 68, 74
1, 103945, Note_off_c, 0, 68, 63
1, 103957, Note_on_c, 0, 72, 72
1, 104009, Note_off_c, 0, 72, 65
1, 104032, Note_on_c, 0, 60, 83
1, 104034, Note_on_c, 0, 51, 66
1, 104065, Note_on_c, 0, 72, 76
1, 104086, Note_off_c, 0, 60, 59
1, 104087, Note_off_c, 0, 51, 56
1, 104134, Note_off_c, 0, 72, 56
1, 104150, Note_on_c, 0, 75, 70
1, 104179, Note_on_c, 0, 60, 84
1, 104188, Note_on_c, 0, 51, 61
1, 104207, Note_on_c, 0, 80, 77
1, 104208, Note_off_c, 0, 60, 53
1, 104213, Note_off_c, 0, 75, 64
1, 104216, Note_off_c, 0, 51, 63
1, 104269, Note_off_c, 0, 80, 64
1, 104273, Note_on_c, 0, 84, 66
1, 104300, Note_off_c, 0, 84, 66
1, 104326, Note_on_c, 0, 63, 94
1, 104344, Note_on_c, 0, 56, 66
1, 104363, Note_on_c, 0, 84, 75
1, 104377, Note_off_c, 0, 56, 65
1, 104383, Note_off_c, 0, 63, 62
1, 104430, Note_on_c, 0, 87, 62
1, 104472, Note_off_c, 0, 87, 63
1, 104477, Note_on_c, 0, 92, 73
1, 104515, Note_off_c, 0, 84, 59
1, 104532, Note_on_c, 0, 96, 83
1, 104537, Note_off_c, 0, 92, 66
1, 104661, Note_on_c, 0, 92, 71
1, 104696, Note_off_c, 0, 96, 39
1, 104716, Note_on_c, 0, 87, 66
1, 104728, Note_off_c, 0, 92, 64
1, 104743, Note_off_c, 0, 87, 65
1, 104776, Note_on_c, 0, 56, 89
1, 104778, Note_on_c, 0, 84, 68
1, 104787, Note_on_c, 0, 44, 64
1, 104795, Note_off_c, 0, 84, 68
1, 104828, Note_off_c, 0, 56, 63
1, 104832, Note_off_c, 0, 44, 63
1, 104885, Note_on_c, 0, 80, 66
1, 104908, Note_on_c, 0, 56, 89
1, 104913, Note_on_c, 0, 44, 74
1, 104953, Note_off_c, 0, 80, 59
1, 104959, Note_off_c, 0, 44, 61
1, 104961, Note_on_c, 0, 75, 60
1, 104980, Note_off_c, 0, 75, 65
1, 105032, Note_off_c, 0, 56, 59
1, 105041, Note_on_c, 0, 72, 30
1, 105073, Note_off_c, 0, 72, 51
1, 105100, Note_on_c, 0, 68, 73
1, 105187, Note_on_c, 0, 70, 78
1, 105188, Note_on_c, 0, 58, 94
1, 105210, Note_on_c, 0, 51, 78
1, 105211, Control_c, 0, 64, 89
1, 105226, Control_c, 0, 64, 35
1, 105240, Note_off_c, 0, 68, 0
1, 105241, Control_c, 0, 64, 0
1, 105259, Note_off_c, 0, 58, 65
1, 105270, Control_c, 0, 64, 61
1, 105277, Poly_aftertouch_c, 0, 68, 127
1, 105283, Note_on_c, 0, 67, 73
1, 105285, Control_c, 0, 64, 77
1, 105295, Note_off_c, 0, 70, 57
1, 105298, Note_off_c, 0, 51, 63
1, 105300, Control_c, 0, 64, 96
1, 105312, Poly_aftertouch_c, 0, 68, 0
1, 105315, Control_c, 0, 64, 127
1, 105360, Note_on_c, 0, 63, 73
1, 105403, Note_off_c, 0, 67, 62
1, 105433, Note_on_c, 0, 58, 82
1, 105471, Note_off_c, 0, 63, 60
1, 105492, Note_off_c, 0, 58, 64
1, 105515, Note_on_c, 0, 32, 73
1, 105537, Control_c, 0, 64, 94
1, 105545, Note_on_c, 0, 39, 73
1, 105545, Note_on_c, 0, 44, 84
1, 105551, Control_c, 0, 64, 61
1, 105566, Control_c, 0, 64, 0
1, 105588, Note_on_c, 0, 60, 94
1, 105593, Note_off_c, 0, 32, 63
1, 105595, Note_on_c, 0, 72, 86
1, 105614, Note_off_c, 0, 39, 59
1, 105619, Control_c, 0, 64, 71
1, 105626, Note_off_c, 0, 44, 63
1, 105633, Control_c, 0, 64, 86
1, 105648, Control_c, 0, 64, 105
1, 105663, Control_c, 0, 64, 116
1, 105677, Control_c, 0, 64, 117
1, 105699, Note_on_c, 0, 63, 74
1, 105707, Note_off_c, 0, 60, 53
1, 105709, Note_off_c, 0, 72, 49
1, 105722, Control_c, 0, 64, 117
1, 105737, Control_c, 0, 64, 118
1, 105751, Control_c, 0, 64, 118
1, 105775, Note_off_c, 0, 63, 63
1, 105777, Note_on_c, 0, 68, 72
1, 105781, Control_c, 0, 64, 119
1, 105796, Control_c, 0, 64, 122
1, 105811, Control_c, 0, 64, 127
1, 105834, Note_off_c, 0, 68, 64
1, 105858, Note_on_c, 0, 72, 43
1, 105883, Note_off_c, 0, 72, 55
1, 105924, Note_on_c, 0, 72, 68
1, 105991, Note_off_c, 0, 72, 60
1, 106013, Note_on_c, 0, 75, 65
1, 106064, Note_on_c, 0, 80, 75
1, 106070, Note_off_c, 0, 75, 64
1, 106075, Note_on_c, 0, 68, 82
1, 106076, Note_on_c, 0, 72, 77
1, 106079, Note_on_c, 0, 60, 71
1, 106094, Note_on_c, 0, 63, 47
1, 106094, Note_off_c, 0, 68, 72
1, 106097, Note_off_c, 0, 72, 73
1, 106098, Note_off_c, 0, 60, 65
1, 106120, Note_off_c, 0, 80, 64
1, 106121, Note_off_c, 0, 63, 58
1, 106122, Note_on_c, 0, 84, 63
1, 106135, Note_on_c, 0, 72, 84
1, 106140, Poly_aftertouch_c, 0, 63, 0
1, 106142, Note_on_c, 0, 68, 91
1, 106144, Note_on_c, 0, 60, 73
1, 106149, Note_on_c, 0, 63, 60
1, 106150, Note_off_c, 0, 84, 68
1, 106163, Note_off_c, 0, 72, 65
1, 106174, Note_off_c, 0, 60, 65
1, 106177, Note_off_c, 0, 68, 60
1, 106182, Note_off_c, 0, 63, 68
1, 106217, Note_on_c, 0, 84, 81
1, 106287, Note_on_c, 0, 87, 68
1, 106343, Note_on_c, 0, 92, 74
1, 106345, Note_off_c, 0, 87, 62
1, 106401, Note_on_c, 0, 96, 78
1, 106407, Note_off_c, 0, 92, 66
1, 106415, Note_off_c, 0, 84, 58
1, 106425, Note_off_c, 0, 96, 63
1, 106460, Note_on_c, 0, 96, 73
1, 106543, Note_on_c, 0, 92, 77
1, 106558, Note_off_c, 0, 96, 57
1, 106609, Note_on_c, 0, 87, 56
1, 106612, Note_off_c, 0, 92, 65
1, 106630, Note_off_c, 0, 87, 59
1, 106659, Note_on_c, 0, 84, 66
1, 106685, Note_off_c, 0, 84, 69
1, 106741, Note_on_c, 0, 56, 92
1, 106753, Note_on_c, 0, 44, 63
1, 106756, Note_on_c, 0, 51, 67
1, 106760, Note_on_c, 0, 84, 59
1, 106816, Note_off_c, 0, 84, 61
1, 106839, Note_on_c, 0, 80, 59
1, 106878, Note_off_c, 0, 80, 65
1, 106890, Note_on_c, 0, 75, 59
1, 106911, Note_off_c, 0, 75, 65
1, 106914, Note_off_c, 0, 56, 53
1, 106955, Note_on_c, 0, 72, 60
1, 106972, Note_off_c, 0, 72, 66
1, 107037, Note_on_c, 0, 56, 96
1, 107054, Note_on_c, 0, 68, 71
1, 107056, Note_on_c, 0, 48, 68
1, 107073, Note_off_c, 0, 44, 61
1, 107103, Note_off_c, 0, 48, 60
1, 107134, Note_off_c, 0, 56, 64
1, 107140, Note_off_c, 0, 68, 62
1, 107150, Note_on_c, 0, 63, 81
1, 107171, Note_off_c, 0, 51, 62
1, 107209, Note_off_c, 0, 63, 64
1, 107244, Note_on_c, 0, 60, 78
1, 107307, Note_off_c, 0, 60, 56
1, 107314, Note_on_c, 0, 56, 81
1, 107352, Note_off_c, 0, 56, 64
1, 107429, Note_on_c, 0, 68, 82
1, 107456, Note_on_c, 0, 69, 65
1, 107483, Note_off_c, 0, 68, 57
1, 107484, Note_off_c, 0, 69, 69
1, 107564, Note_on_c, 0, 37, 73
1, 107565, Note_on_c, 0, 44, 73
1, 107572, Note_on_c, 0, 49, 79
1, 107575, Note_on_c, 0, 77, 96
1, 107576, Control_c, 0, 64, 96
1, 107583, Note_on_c, 0, 65, 79
1, 107591, Control_c, 0, 64, 63
1, 107605, Control_c, 0, 64, 0
1, 107657, Note_off_c, 0, 37, 66
1, 107663, Control_c, 0, 64, 73
1, 107678, Control_c, 0, 64, 89
1, 107693, Control_c, 0, 64, 108
1, 107701, Note_off_c, 0, 44, 63
1, 107708, Control_c, 0, 64, 119
1, 107712, Note_off_c, 0, 49, 61
1, 107722, Control_c, 0, 64, 120
1, 107737, Control_c, 0, 64, 127
1, 107748, Note_off_c, 0, 77, 56
1, 107756, Note_off_c, 0, 65, 60
1, 107769, Note_on_c, 0, 68, 67
1, 107834, Note_off_c, 0, 68, 64
1, 107844, Note_on_c, 0, 73, 69
1, 107894, Note_off_c, 0, 73, 64
1, 107908, Note_on_c, 0, 77, 75
1, 107942, Note_off_c, 0, 77, 57
1, 107990, Note_on_c, 0, 77, 72
1, 108043, Note_off_c, 0, 77, 60
1, 108058, Note_on_c, 0, 80, 75
1, 108115, Note_on_c, 0, 85, 75
1, 108122, Note_off_c, 0, 80, 63
1, 108139, Note_on_c, 0, 77, 82
1, 108141, Note_on_c, 0, 65, 70
1, 108142, Note_on_c, 0, 73, 74
1, 108153, Note_on_c, 0, 68, 54
1, 108158, Note_off_c, 0, 77, 67
1, 108163, Note_on_c, 0, 89, 73
1, 108163, Note_off_c, 0, 85, 65
1, 108166, Note_off_c, 0, 73, 68
1, 108173, Note_off_c, 0, 68, 61
1, 108183, Note_off_c, 0, 65, 0
1, 108191, Note_off_c, 0, 89, 66
1, 108196, Note_on_c, 0, 77, 73
1, 108210, Note_on_c, 0, 68, 78
1, 108210, Note_on_c, 0, 73, 84
1, 108219, Note_off_c, 0, 77, 65
1, 108219, Poly_aftertouch_c, 0, 65, 127
1, 108231, Poly_aftertouch_c, 0, 65, 0
1, 108234, Note_off_c, 0, 73, 61
1, 108256, Note_off_c, 0, 68, 66
1, 108264, Note_on_c, 0, 89, 77
1, 108340, Note_on_c, 0, 92, 65
1, 108398, Note_off_c, 0, 92, 65
1, 108400, Note_on_c, 0, 97, 76
1, 108431, Note_off_c, 0, 89, 61
1, 108470, Note_off_c, 0, 97, 63
1, 108473, Note_on_c, 0, 101, 82
1, 108526, Note_off_c, 0, 101, 63
1, 108553, Note_on_c, 0, 63, 91
1, 108571, Note_on_c, 0, 56, 63
1, 108573, Note_on_c, 0, 55, 63
1, 108575, Note_on_c, 0, 99, 78
1, 108583, Control_c, 0, 64, 103
1, 108598, Control_c, 0, 64, 77
1, 108613, Control_c, 0, 64, 0
1, 108657, Control_c, 0, 64, 67
1, 108665, Note_off_c, 0, 99, 66
1, 108668, Note_on_c, 0, 92, 76
1, 108671, Control_c, 0, 64, 86
1, 108686, Control_c, 0, 64, 112
1, 108702, Control_c, 0, 64, 127
1, 108718, Note_off_c, 0, 92, 64
1, 108740, Note_off_c, 0, 63, 63
1, 108757, Note_on_c, 0, 87, 69
1, 108775, Note_off_c, 0, 87, 66
1, 108861, Note_off_c, 0, 55, 63
1, 108872, Note_on_c, 0, 61, 82
1, 108875, Note_on_c, 0, 53, 58
1, 108880, Control_c, 0, 64, 113
1, 108885, Note_on_c, 0, 85, 56
1, 108894, Control_c, 0, 64, 82
1, 108909, Control_c, 0, 64, 0
1, 108926, Note_off_c, 0, 85, 60
1, 108954, Control_c, 0, 64, 38
1, 108964, Note_on_c, 0, 80, 63
1, 108968, Control_c, 0, 64, 74
1, 108983, Control_c, 0, 64, 94
1, 108998, Control_c, 0, 64, 125
1, 109009, Note_off_c, 0, 53, 64
1, 109013, Control_c, 0, 64, 127
1, 109029, Note_off_c, 0, 80, 64
1, 109066, Note_on_c, 0, 73, 56
1, 109086, Note_off_c, 0, 73, 63
1, 109095, Note_off_c, 0, 61, 53
1, 109193, Note_on_c, 0, 60, 71
1, 109206, Control_c, 0, 64, 105
1, 109214, Note_on_c, 0, 51, 49
1, 109221, Control_c, 0, 64, 82
1, 109224, Note_on_c, 0, 72, 46
1, 109236, Control_c, 0, 64, 50
1, 109250, Control_c, 0, 64, 0
1, 109280, Control_c, 0, 64, 46
1, 109294, Control_c, 0, 64, 71
1, 109301, Note_off_c, 0, 72, 49
1, 109309, Control_c, 0, 64, 83
1, 109310, Note_off_c, 0, 60, 60
1, 109319, Note_on_c, 0, 68, 62
1, 109331, Control_c, 0, 64, 96
1, 109346, Control_c, 0, 64, 101
1, 109348, Note_off_c, 0, 56, 49
1, 109358, Note_off_c, 0, 51, 61
1, 109361, Control_c, 0, 64, 101
1, 109376, Control_c, 0, 64, 102
1, 109391, Control_c, 0, 64, 104
1, 109406, Control_c, 0, 64, 107
1, 109414, Note_off_c, 0, 68, 64
1, 109420, Control_c, 0, 64, 111
1, 109435, Control_c, 0, 64, 116
1, 109439, Note_on_c, 0, 60, 66
1, 109450, Control_c, 0, 64, 119
1, 109465, Control_c, 0, 64, 121
1, 109480, Control_c, 0, 64, 123
1, 109495, Control_c, 0, 64, 126
1, 109502, Note_off_c, 0, 60, 59
1, 109510, Control_c, 0, 64, 127
1, 109573, Note_on_c, 0, 49, 56
1, 109581, Note_on_c, 0, 52, 52
1, 109599, Control_c, 0, 64, 127
1, 109614, Control_c, 0, 64, 107
1, 109629, Control_c, 0, 64, 82
1, 109635, Note_on_c, 0, 56, 54
1, 109644, Control_c, 0, 64, 56
1, 109659, Control_c, 0, 64, 0
1, 109671, Note_on_c, 0, 58, 75
1, 109694, Note_on_c, 0, 70, 50
1, 109703, Control_c, 0, 64, 65
1, 109717, Control_c, 0, 64, 78
1, 109732, Control_c, 0, 64, 91
1, 109738, Note_off_c, 0, 70, 58
1, 109747, Control_c, 0, 64, 99
1, 109755, Note_off_c, 0, 49, 53
1, 109762, Control_c, 0, 64, 99
1, 109773, Note_off_c, 0, 52, 56
1, 109784, Note_off_c, 0, 58, 62
1, 109791, Control_c, 0, 64, 100
1, 109796, Note_on_c, 0, 64, 59
1, 109806, Control_c, 0, 64, 101
1, 109811, Note_off_c, 0, 56, 51
1, 109821, Control_c, 0, 64, 102
1, 109836, Control_c, 0, 64, 104
1, 109851, Control_c, 0, 64, 106
1, 109865, Control_c, 0, 64, 108
1, 109874, Note_off_c, 0, 64, 60
1, 109880, Control_c, 0, 64, 109
1, 109895, Control_c, 0, 64, 110
1, 109902, Note_on_c, 0, 68, 52
1, 109910, Control_c, 0, 64, 111
1, 109925, Control_c, 0, 64, 112
1, 109940, Control_c, 0, 64, 113
1, 109945, Note_off_c, 0, 68, 63
1, 109955, Control_c, 0, 64, 115
1, 109957, Note_on_c, 0, 70, 54
1, 109970, Control_c, 0, 64, 116
1, 109984, Note_off_c, 0, 70, 66
1, 109984, Control_c, 0, 64, 118
1, 109999, Control_c, 0, 64, 121
1, 110014, Control_c, 0, 64, 123
1, 110029, Control_c, 0, 64, 125
1, 110043, Control_c, 0, 64, 126
1, 110057, Note_on_c, 0, 70, 60
1, 110058, Control_c, 0, 64, 127
1, 110105, Note_off_c, 0, 70, 56
1, 110148, Note_on_c, 0, 76, 51
1, 110218, Note_off_c, 0, 76, 54
1, 110221, Note_on_c, 0, 80, 60
1, 110261, Note_on_c, 0, 68, 67
1, 110261, Note_off_c, 0, 80, 62
1, 110264, Note_on_c, 0, 82, 65
1, 110265, Note_on_c, 0, 70, 62
1, 110283, Note_on_c, 0, 61, 34
1, 110284, Note_off_c, 0, 70, 66
1, 110285, Note_on_c, 0, 64, 37
1, 110289, Note_off_c, 0, 68, 68
1, 110298, Note_off_c, 0, 82, 62
1, 110330, Note_off_c, 0, 61, 0
1, 110339, Note_off_c, 0, 64, 0
1, 110346, Note_on_c, 0, 61, 34
1, 110347, Note_on_c, 0, 70, 75
1, 110349, Note_on_c, 0, 64, 51
1, 110359, Note_on_c, 0, 68, 61
1, 110374, Note_off_c, 0, 61, 58
1, 110375, Note_off_c, 0, 70, 63
1, 110378, Note_off_c, 0, 68, 67
1, 110392, Note_off_c, 0, 64, 63
1, 110416, Note_on_c, 0, 82, 54
1, 110490, Note_on_c, 0, 88, 52
1, 110545, Note_on_c, 0, 92, 72
1, 110553, Note_off_c, 0, 82, 28
1, 110594, Note_off_c, 0, 88, 37
1, 110611, Note_on_c, 0, 94, 41
1, 110634, Note_off_c, 0, 92, 53
1, 110640, Note_off_c, 0, 94, 0
1, 110658, Note_on_c, 0, 94, 61
1, 110750, Note_on_c, 0, 92, 81
1, 110799, Note_off_c, 0, 94, 59
1, 110801, Note_on_c, 0, 88, 66
1, 110828, Note_off_c, 0, 92, 64
1, 110851, Note_off_c, 0, 88, 60
1, 110877, Note_on_c, 0, 82, 59
1, 110896, Note_off_c, 0, 82, 64
1, 110950, Note_on_c, 0, 49, 58
1, 110996, Note_on_c, 0, 55, 49
1, 111039, Note_on_c, 0, 58, 66
1, 111066, Control_c, 0, 64, 113
1, 111081, Control_c, 0, 64, 91
1, 111097, Control_c, 0, 64, 68
1, 111100, Note_off_c, 0, 55, 57
1, 111108, Note_off_c, 0, 49, 60
1, 111111, Note_on_c, 0, 63, 69
1, 111112, Note_on_c, 0, 70, 90
1, 111112, Control_c, 0, 64, 0
1, 111124, Note_on_c, 0, 82, 66
1, 111132, Note_off_c, 0, 58, 63
1, 111157, Control_c, 0, 64, 69
1, 111171, Control_c, 0, 64, 83
1, 111182, Note_off_c, 0, 63, 60
1, 111182, Note_off_c, 0, 82, 55
1, 111186, Control_c, 0, 64, 100
1, 111201, Control_c, 0, 64, 110
1, 111216, Control_c, 0, 64, 111
1, 111226, Note_on_c, 0, 79, 61
1, 111245, Control_c, 0, 64, 111
1, 111260, Control_c, 0, 64, 112
1, 111275, Control_c, 0, 64, 115
1, 111288, Note_off_c, 0, 70, 56
1, 111290, Control_c, 0, 64, 117
1, 111295, Note_on_c, 0, 75, 68
1, 111304, Control_c, 0, 64, 120
1, 111319, Control_c, 0, 64, 122
1, 111322, Note_off_c, 0, 79, 59
1, 111334, Control_c, 0, 64, 124
1, 111339, Note_on_c, 0, 70, 54
1, 111349, Control_c, 0, 64, 125
1, 111355, Note_off_c, 0, 75, 63
1, 111364, Control_c, 0, 64, 125
1, 111379, Control_c, 0, 64, 126
1, 111380, Note_off_c, 0, 70, 63
1, 111383, Note_on_c, 0, 67, 81
1, 111394, Control_c, 0, 64, 127
1, 111460, Note_on_c, 0, 63, 77
1, 111475, Note_off_c, 0, 67, 59
1, 111498, Note_on_c, 0, 58, 45
1, 111520, Note_off_c, 0, 63, 64
1, 111572, Note_off_c, 0, 58, 65
1, 111581, Note_on_c, 0, 63, 77
1, 111582, Note_on_c, 0, 75, 82
1, 111621, Note_off_c, 0, 63, 56
1, 111629, Poly_aftertouch_c, 0, 55, 0
1, 111664, Note_off_c, 0, 75, 63
1, 111676, Note_on_c, 0, 48, 65
1, 111712, Control_c, 0, 64, 93
1, 111727, Note_on_c, 0, 68, 83
1, 111727, Control_c, 0, 64, 22
1, 111730, Note_on_c, 0, 80, 79
1, 111742, Control_c, 0, 64, 0
1, 111752, Note_on_c, 0, 73, 38
1, 111766, Note_on_c, 0, 70, 43
1, 111774, Note_off_c, 0, 48, 49
1, 111778, Note_off_c, 0, 80, 0
1, 111778, Note_on_c, 0, 80, 32
1, 111786, Control_c, 0, 64, 70
1, 111800, Note_off_c, 0, 70, 34
1, 111801, Control_c, 0, 64, 95
1, 111805, Note_on_c, 0, 56, 65
1, 111815, Control_c, 0, 64, 127
1, 111832, Note_off_c, 0, 56, 65
1, 111833, Note_off_c, 0, 68, 57
1, 111881, Note_on_c, 0, 63, 55
1, 111907, Note_off_c, 0, 63, 62
1, 111923, Note_off_c, 0, 80, 22
1, 111937, Note_on_c, 0, 72, 47
1, 111954, Note_on_c, 0, 68, 51
1, 111988, Note_off_c, 0, 68, 65
1, 111989, Note_off_c, 0, 73, 13
1, 112003, Note_off_c, 0, 72, 47
1, 112006, Note_on_c, 0, 60, 56
1, 112031, Note_on_c, 0, 75, 45
1, 112049, Note_off_c, 0, 60, 63
1, 112056, Note_off_c, 0, 75, 57
1, 112062, Note_on_c, 0, 63, 67
1, 112116, Note_off_c, 0, 63, 63
1, 112145, Note_on_c, 0, 68, 51
1, 112167, Note_off_c, 0, 68, 60
1, 112199, Note_on_c, 0, 75, 96
1, 112240, Note_off_c, 0, 75, 66
1, 112261, Note_on_c, 0, 80, 93
1, 112333, Note_on_c, 0, 84, 72
1, 112389, Note_on_c, 0, 87, 23
1, 112439, Note_on_c, 0, 92, 86
1, 112485, Note_off_c, 0, 92, 67
1, 112509, Note_off_c, 0, 87, 58
1, 112512, Note_off_c, 0, 84, 64
1, 112514, Note_off_c, 0, 80, 64
1, 112831, Control_c, 0, 64, 125
1, 112846, Control_c, 0, 64, 84
1, 112860, Control_c, 0, 64, 0
1, 112863, Note_on_c, 0, 68, 87
1, 112866, Note_on_c, 0, 56, 79
1, 112872, Note_on_c, 0, 63, 77
1, 112880, Note_on_c, 0, 48, 79
1, 112887, Note_on_c, 0, 36, 70
1, 112905, Control_c, 0, 64, 62
1, 112907, Note_off_c, 0, 48, 68
1, 112909, Note_off_c, 0, 56, 61
1, 112913, Note_off_c, 0, 36, 65
1, 112920, Control_c, 0, 64, 80
1, 112935, Control_c, 0, 64, 106
1, 112937, Note_off_c, 0, 63, 63
1, 112950, Control_c, 0, 64, 127
1, 112954, Note_off_c, 0, 68, 65
1, 113054, Control_c, 0, 64, 124
1, 113075, Note_on_c, 0, 34, 79
1, 113075, Control_c, 0, 64, 82
1, 113090, Control_c, 0, 64, 0
1, 113120, Note_on_c, 0, 46, 74
1, 113120, Note_on_c, 0, 73, 91
1, 113125, Note_on_c, 0, 61, 89
1, 113125, Note_off_c, 0, 34, 63
1, 113135, Control_c, 0, 64, 63
1, 113146, Note_off_c, 0, 46, 65
1, 113150, Control_c, 0, 64, 76
1, 113164, Control_c, 0, 64, 95
1, 113179, Control_c, 0, 64, 111
1, 113194, Control_c, 0, 64, 115
1, 113224, Control_c, 0, 64, 115
1, 113226, Note_on_c, 0, 63, 68
1, 113226, Note_off_c, 0, 73, 61
1, 113227, Note_off_c, 0, 61, 58
1, 113239, Control_c, 0, 64, 117
1, 113254, Control_c, 0, 64, 120
1, 113262, Note_on_c, 0, 67, 65
1, 113268, Control_c, 0, 64, 127
1, 113278, Note_on_c, 0, 46, 56
1, 113283, Control_c, 0, 64, 127
1, 113290, Note_off_c, 0, 63, 63
1, 113308, Note_off_c, 0, 67, 62
1, 113320, Note_on_c, 0, 73, 76
1, 113340, Note_off_c, 0, 73, 71
1, 113356, Note_on_c, 0, 51, 48
1, 113365, Note_off_c, 0, 46, 63
1, 113388, Note_on_c, 0, 61, 68
1, 113403, Note_on_c, 0, 73, 86
1, 113414, Note_off_c, 0, 61, 63
1, 113468, Note_off_c, 0, 73, 61
1, 113477, Note_on_c, 0, 75, 63
1, 113516, Note_on_c, 0, 44, 75
1, 113534, Note_off_c, 0, 75, 64
1, 113543, Note_on_c, 0, 79, 58
1, 113579, Note_off_c, 0, 44, 63
1, 113585, Note_off_c, 0, 51, 50
1, 113588, Note_on_c, 0, 85, 79
1, 113595, Note_on_c, 0, 55, 69
1, 113600, Note_off_c, 0, 79, 61
1, 113615, Note_off_c, 0, 55, 67
1, 113672, Note_off_c, 0, 85, 63
1, 113682, Note_on_c, 0, 61, 101
1, 113705, Note_on_c, 0, 73, 82
1, 113706, Note_off_c, 0, 61, 61
1, 113780, Note_on_c, 0, 75, 63
1, 113781, Note_off_c, 0, 73, 61
1, 113827, Note_on_c, 0, 79, 53
1, 113845, Note_off_c, 0, 75, 63
1, 113850, Note_off_c, 0, 79, 62
1, 113865, Note_on_c, 0, 85, 73
1, 113886, Note_off_c, 0, 85, 70
1, 113947, Note_on_c, 0, 85, 77
1, 113985, Note_on_c, 0, 44, 58
1, 114008, Note_off_c, 0, 85, 59
1, 114017, Note_on_c, 0, 87, 63
1, 114050, Note_off_c, 0, 87, 65
1, 114053, Note_on_c, 0, 91, 72
1, 114058, Note_off_c, 0, 44, 63
1, 114074, Note_on_c, 0, 51, 65
1, 114156, Note_on_c, 0, 97, 57
1, 114190, Note_off_c, 0, 91, 59
1, 114191, Note_off_c, 0, 97, 45
1, 114196, Control_c, 0, 64, 106
1, 114200, Note_on_c, 0, 56, 58
1, 114210, Control_c, 0, 64, 74
1, 114215, Note_on_c, 0, 96, 94
1, 114224, Note_on_c, 0, 84, 87
1, 114225, Control_c, 0, 64, 0
1, 114240, Note_on_c, 0, 60, 74
1, 114270, Control_c, 0, 64, 62
1, 114273, Note_off_c, 0, 96, 67
1, 114275, Note_off_c, 0, 84, 66
1, 114276, Note_off_c, 0, 56, 60
1, 114285, Control_c, 0, 64, 75
1, 114292, Note_off_c, 0, 51, 62
1, 114300, Control_c, 0, 64, 90
1, 114315, Control_c, 0, 64, 111
1, 114330, Control_c, 0, 64, 121
1, 114345, Control_c, 0, 64, 122
1, 114351, Note_off_c, 0, 60, 59
1, 114360, Control_c, 0, 64, 127
1, 114693, Control_c, 0, 64, 84
1, 114703, Note_on_c, 0, 72, 98
1, 114703, Note_on_c, 0, 84, 99
1, 114707, Control_c, 0, 64, 0
1, 114725, Note_on_c, 0, 51, 51
1, 114767, Control_c, 0, 64, 46
1, 114782, Control_c, 0, 64, 76
1, 114796, Control_c, 0, 64, 97
1, 114811, Control_c, 0, 64, 122
1, 114826, Control_c, 0, 64, 127
1, 114831, Note_on_c, 0, 57, 35
1, 114832, Note_off_c, 0, 84, 62
1, 114853, Note_off_c, 0, 51, 62
1, 114855, Note_on_c, 0, 60, 63
1, 114864, Note_off_c, 0, 72, 62
1, 114871, Note_off_c, 0, 57, 48
1, 114887, Note_off_c, 0, 60, 62
1, 114911, Note_on_c, 0, 65, 75
1, 114914, Note_on_c, 0, 72, 88
1, 114914, Note_on_c, 0, 84, 96
1, 114958, Note_off_c, 0, 65, 57
1, 115002, Note_on_c, 0, 81, 74
1, 115032, Note_off_c, 0, 72, 59
1, 115065, Note_off_c, 0, 84, 57
1, 115066, Note_on_c, 0, 77, 76
1, 115131, Note_on_c, 0, 72, 71
1, 115132, Note_off_c, 0, 77, 60
1, 115135, Note_off_c, 0, 81, 60
1, 115142, Note_on_c, 0, 69, 55
1, 115161, Note_off_c, 0, 72, 63
1, 115177, Note_off_c, 0, 69, 68
1, 115187, Note_on_c, 0, 65, 65
1, 115217, Note_off_c, 0, 65, 67
1, 115235, Note_on_c, 0, 57, 49
1, 115257, Note_off_c, 0, 57, 60
1, 115340, Note_on_c, 0, 77, 98
1, 115341, Note_on_c, 0, 65, 87
1, 115377, Note_off_c, 0, 65, 66
1, 115389, Note_off_c, 0, 77, 63
1, 115404, Note_on_c, 0, 49, 62
1, 115427, Control_c, 0, 64, 92
1, 115442, Control_c, 0, 64, 66
1, 115457, Control_c, 0, 64, 0
1, 115481, Note_on_c, 0, 70, 88
1, 115485, Note_on_c, 0, 58, 68
1, 115486, Control_c, 0, 64, 60
1, 115487, Note_off_c, 0, 49, 62
1, 115487, Note_on_c, 0, 81, 79
1, 115501, Control_c, 0, 64, 76
1, 115516, Control_c, 0, 64, 94
1, 115516, Note_off_c, 0, 58, 66
1, 115530, Control_c, 0, 64, 119
1, 115545, Control_c, 0, 64, 127
1, 115551, Note_off_c, 0, 81, 34
1, 115560, Note_on_c, 0, 65, 60
1, 115570, Note_off_c, 0, 70, 41
1, 115582, Note_off_c, 0, 65, 65
1, 115594, Note_on_c, 0, 77, 39
1, 115601, Note_on_c, 0, 76, 41
1, 115631, Note_off_c, 0, 76, 54
1, 115642, Note_off_c, 0, 77, 56
1, 115655, Note_on_c, 0, 73, 60
1, 115677, Note_on_c, 0, 70, 78
1, 115706, Note_off_c, 0, 70, 61
1, 115719, Note_on_c, 0, 61, 72
1, 115721, Note_off_c, 0, 73, 63
1, 115768, Note_off_c, 0, 61, 62
1, 115777, Note_on_c, 0, 65, 64
1, 115816, Note_on_c, 0, 70, 75
1, 115833, Note_off_c, 0, 65, 64
1, 115873, Note_off_c, 0, 70, 59
1, 115903, Note_on_c, 0, 77, 91
1, 115946, Note_off_c, 0, 77, 63
1, 115975, Note_on_c, 0, 82, 88
1, 116030, Note_on_c, 0, 85, 73
1, 116120, Note_on_c, 0, 89, 72
1, 116167, Note_on_c, 0, 94, 88
1, 116211, Note_off_c, 0, 89, 64
1, 116221, Note_off_c, 0, 94, 68
1, 116238, Note_off_c, 0, 82, 59
1, 116244, Note_off_c, 0, 85, 68
1, 116545, Control_c, 0, 64, 92
1, 116560, Control_c, 0, 64, 41
1, 116575, Control_c, 0, 64, 0
1, 116585, Note_on_c, 0, 58, 86
1, 116588, Note_on_c, 0, 70, 95
1, 116598, Note_on_c, 0, 65, 75
1, 116602, Note_on_c, 0, 49, 77
1, 116607, Note_on_c, 0, 37, 78
1, 116619, Control_c, 0, 64, 72
1, 116631, Note_off_c, 0, 58, 62
1, 116634, Control_c, 0, 64, 96
1, 116648, Note_off_c, 0, 37, 65
1, 116649, Control_c, 0, 64, 127
1, 116655, Note_off_c, 0, 65, 65
1, 116662, Note_off_c, 0, 49, 59
1, 116694, Note_off_c, 0, 70, 60
1, 116771, Note_on_c, 0, 36, 82
1, 116783, Control_c, 0, 64, 99
1, 116798, Control_c, 0, 64, 62
1, 116821, Control_c, 0, 64, 0
1, 116822, Note_on_c, 0, 48, 83
1, 116830, Note_off_c, 0, 36, 65
1, 116842, Note_on_c, 0, 75, 93
1, 116844, Note_on_c, 0, 63, 97
1, 116850, Control_c, 0, 64, 16
1, 116855, Note_off_c, 0, 48, 70
1, 116865, Control_c, 0, 64, 72
1, 116880, Control_c, 0, 64, 88
1, 116895, Control_c, 0, 64, 112
1, 116909, Control_c, 0, 64, 124
1, 116935, Note_off_c, 0, 63, 59
1, 116937, Note_off_c, 0, 75, 63
1, 116939, Control_c, 0, 64, 125
1, 116953, Note_on_c, 0, 65, 72
1, 116954, Control_c, 0, 64, 126
1, 116969, Control_c, 0, 64, 127
1, 116998, Note_on_c, 0, 69, 68
1, 117005, Note_on_c, 0, 48, 64
1, 117006, Note_off_c, 0, 65, 64
1, 117013, Poly_aftertouch_c, 0, 66, 0
1, 117050, Note_off_c, 0, 69, 66
1, 117053, Note_on_c, 0, 75, 81
1, 117058, Note_off_c, 0, 48, 63
1, 117077, Note_on_c, 0, 53, 51
1, 117082, Note_off_c, 0, 75, 64
1, 117096, Note_on_c, 0, 57, 54
1, 117116, Note_off_c, 0, 53, 46
1, 117138, Note_on_c, 0, 75, 89
1, 117138, Note_on_c, 0, 63, 85
1, 117174, Note_off_c, 0, 63, 60
1, 117195, Note_on_c, 0, 77, 67
1, 117198, Note_off_c, 0, 57, 59
1, 117200, Poly_aftertouch_c, 0, 53, 127
1, 117203, Note_off_c, 0, 75, 62
1, 117258, Note_off_c, 0, 77, 61
1, 117259, Note_on_c, 0, 81, 63
1, 117277, Note_on_c, 0, 46, 77
1, 117316, Note_on_c, 0, 87, 83
1, 117325, Note_off_c, 0, 81, 61
1, 117328, Note_off_c, 0, 46, 63
1, 117369, Note_on_c, 0, 57, 74
1, 117381, Note_off_c, 0, 87, 62
1, 117416, Note_on_c, 0, 63, 102
1, 117446, Note_off_c, 0, 57, 61
1, 117458, Poly_aftertouch_c, 0, 53, 0
1, 117475, Note_on_c, 0, 75, 84
1, 117478, Note_off_c, 0, 63, 68
1, 117543, Note_on_c, 0, 77, 68
1, 117562, Note_off_c, 0, 75, 62
1, 117585, Note_on_c, 0, 81, 73
1, 117600, Note_off_c, 0, 77, 58
1, 117641, Note_on_c, 0, 87, 82
1, 117642, Note_off_c, 0, 81, 62
1, 117672, Note_off_c, 0, 87, 61
1, 117720, Note_on_c, 0, 87, 74
1, 117803, Note_on_c, 0, 89, 74
1, 117803, Note_off_c, 0, 87, 58
1, 117818, Note_on_c, 0, 90, 32
1, 117833, Note_on_c, 0, 92, 41
1, 117858, Note_off_c, 0, 90, 49
1, 117867, Note_off_c, 0, 92, 50
1, 117878, Note_off_c, 0, 89, 65
1, 117888, Note_on_c, 0, 46, 75
1, 117898, Note_on_c, 0, 97, 66
1, 117910, Control_c, 0, 64, 99
1, 117919, Note_on_c, 0, 98, 74
1, 117925, Control_c, 0, 64, 68
1, 117927, Note_on_c, 0, 53, 69
1, 117928, Note_on_c, 0, 85, 89
1, 117931, Note_on_c, 0, 89, 79
1, 117940, Control_c, 0, 64, 0
1, 117940, Note_off_c, 0, 98, 71
1, 117943, Note_off_c, 0, 97, 0
1, 117943, Note_on_c, 0, 97, 18
1, 117946, Note_on_c, 0, 61, 85
1, 117958, Note_off_c, 0, 46, 61
1, 117958, Note_off_c, 0, 97, 62
1, 117964, Note_off_c, 0, 89, 66
1, 117970, Control_c, 0, 64, 68
1, 117976, Note_off_c, 0, 85, 66
1, 117985, Control_c, 0, 64, 92
1, 117999, Note_off_c, 0, 53, 61
1, 118000, Control_c, 0, 64, 127
1, 118038, Note_off_c, 0, 61, 59
1, 118296, Control_c, 0, 64, 109
1, 118311, Note_on_c, 0, 77, 92
1, 118315, Note_on_c, 0, 65, 85
1, 118318, Note_on_c, 0, 72, 86
1, 118318, Control_c, 0, 64, 77
1, 118321, Note_on_c, 0, 60, 60
1, 118323, Note_on_c, 0, 45, 62
1, 118330, Note_on_c, 0, 53, 57
1, 118333, Control_c, 0, 64, 0
1, 118378, Control_c, 0, 64, 65
1, 118393, Control_c, 0, 64, 80
1, 118399, Note_off_c, 0, 60, 57
1, 118406, Note_off_c, 0, 45, 61
1, 118408, Control_c, 0, 64, 101
1, 118423, Control_c, 0, 64, 125
1, 118437, Control_c, 0, 64, 127
1, 118447, Note_off_c, 0, 77, 55
1, 118499, Note_off_c, 0, 53, 39
1, 118519, Note_off_c, 0, 65, 53
1, 118600, Control_c, 0, 64, 114
1, 118602, Note_on_c, 0, 73, 91
1, 118607, Note_on_c, 0, 65, 84
1, 118607, Note_on_c, 0, 70, 70
1, 118615, Control_c, 0, 64, 78
1, 118620, Note_on_c, 0, 53, 64
1, 118620, Note_off_c, 0, 72, 61
1, 118626, Note_on_c, 0, 61, 65
1, 118627, Note_on_c, 0, 46, 65
1, 118629, Control_c, 0, 64, 0
1, 118635, Note_off_c, 0, 70, 67
1, 118661, Note_off_c, 0, 65, 62
1, 118674, Control_c, 0, 64, 67
1, 118675, Note_off_c, 0, 73, 66
1, 118678, Note_off_c, 0, 53, 65
1, 118688, Control_c, 0, 64, 82
1, 118703, Control_c, 0, 64, 103
1, 118708, Note_off_c, 0, 61, 61
1, 118718, Control_c, 0, 64, 127
1, 118840, Note_off_c, 0, 46, 37
1, 118881, Note_on_c, 0, 70, 89
1, 118885, Note_on_c, 0, 61, 82
1, 118890, Note_on_c, 0, 58, 70
1, 118891, Note_on_c, 0, 64, 75
1, 118894, Note_on_c, 0, 49, 53
1, 118896, Control_c, 0, 64, 117
1, 118897, Note_on_c, 0, 52, 64
1, 118911, Control_c, 0, 64, 87
1, 118926, Control_c, 0, 64, 62
1, 118941, Control_c, 0, 64, 0
1, 118950, Note_off_c, 0, 64, 62
1, 118970, Control_c, 0, 64, 64
1, 118985, Control_c, 0, 64, 81
1, 118994, Note_off_c, 0, 70, 61
1, 118999, Control_c, 0, 64, 105
1, 119001, Note_off_c, 0, 58, 61
1, 119014, Control_c, 0, 64, 127
1, 119050, Note_off_c, 0, 61, 59
1, 119174, Note_off_c, 0, 49, 29
1, 119186, Control_c, 0, 64, 97
1, 119186, Note_off_c, 0, 52, 63
1, 119189, Note_on_c, 0, 68, 91
1, 119192, Note_on_c, 0, 51, 65
1, 119193, Note_on_c, 0, 60, 81
1, 119195, Note_on_c, 0, 56, 71
1, 119198, Note_on_c, 0, 63, 76
1, 119201, Control_c, 0, 64, 67
1, 119216, Control_c, 0, 64, 0
1, 119260, Control_c, 0, 64, 67
1, 119275, Control_c, 0, 64, 81
1, 119290, Control_c, 0, 64, 104
1, 119290, Note_off_c, 0, 63, 64
1, 119298, Note_off_c, 0, 51, 58
1, 119304, Control_c, 0, 64, 118
1, 119319, Control_c, 0, 64, 118
1, 119332, Note_off_c, 0, 60, 62
1, 119334, Control_c, 0, 64, 119
1, 119349, Control_c, 0, 64, 120
1, 119353, Note_off_c, 0, 68, 59
1, 119364, Control_c, 0, 64, 121
1, 119378, Control_c, 0, 64, 125
1, 119393, Note_off_c, 0, 56, 32
1, 119393, Control_c, 0, 64, 127
1, 119532, Note_on_c, 0, 68, 91
1, 119534, Note_on_c, 0, 56, 63
1, 119535, Note_on_c, 0, 59, 81
1, 119541, Note_on_c, 0, 62, 79
1, 119544, Note_on_c, 0, 51, 65
1, 119546, Note_on_c, 0, 65, 74
1, 119566, Note_off_c, 0, 56, 62
1, 119609, Note_off_c, 0, 51, 62
1, 119891, Control_c, 0, 64, 117
1, 119901, Note_on_c, 0, 39, 91
1, 119906, Control_c, 0, 64, 83
1, 119921, Control_c, 0, 64, 0
1, 119955, Note_off_c, 0, 59, 57
1, 119961, Note_off_c, 0, 62, 58
1, 119976, Note_off_c, 0, 65, 61
1, 120009, Control_c, 0, 64, 69
1, 120024, Control_c, 0, 64, 79
1, 120033, Note_off_c, 0, 68, 62
1, 120039, Control_c, 0, 64, 89
1, 120053, Control_c, 0, 64, 96
1, 120068, Control_c, 0, 64, 99
1, 120083, Control_c, 0, 64, 105
1, 120097, Note_off_c, 0, 39, 63
1, 120098, Control_c, 0, 64, 115
1, 120113, Control_c, 0, 64, 127
1, 120128, Control_c, 0, 64, 127
1, 120409, Note_on_c, 0, 77, 97
1, 120415, Note_on_c, 0, 65, 89
1, 120417, Note_on_c, 0, 68, 91
1, 120417, Note_on_c, 0, 73, 82
1, 120427, Note_on_c, 0, 61, 79
1, 120430, Note_on_c, 0, 58, 77
1, 120432, Note_on_c, 0, 56, 73
1, 120442, Note_on_c, 0, 51, 66
1, 120513, Note_off_c, 0, 51, 63
1, 120571, Note_off_c, 0, 61, 57
1, 120584, Note_off_c, 0, 56, 60
1, 120598, Note_off_c, 0, 58, 63
1, 120769, Note_off_c, 0, 77, 59
1, 120784, Note_off_c, 0, 73, 59
1, 120862, Note_off_c, 0, 65, 61
1, 121097, Note_off_c, 0, 68, 54
1, 121347, Note_on_c, 0, 75, 94
1, 121352, Note_on_c, 0, 63, 78
1, 121353, Note_on_c, 0, 67, 79
1, 121353, Note_on_c, 0, 70, 78
1, 121356, Control_c, 0, 64, 88
1, 121357, Note_on_c, 0, 58, 74
1, 121360, Note_on_c, 0, 51, 67
1, 121360, Note_on_c, 0, 61, 73
1, 121363, Note_on_c, 0, 55, 69
1, 121371, Control_c, 0, 64, 48
1, 121386, Control_c, 0, 64, 0
1, 121431, Control_c, 0, 64, 66
1, 121445, Control_c, 0, 64, 80
1, 121448, Note_off_c, 0, 63, 65
1, 121460, Control_c, 0, 64, 96
1, 121467, Note_off_c, 0, 67, 57
1, 121476, Control_c, 0, 64, 108
1, 121481, Note_off_c, 0, 61, 61
1, 121491, Control_c, 0, 64, 109
1, 121515, Note_off_c, 0, 58, 59
1, 121520, Control_c, 0, 64, 109
1, 121530, Note_off_c, 0, 70, 63
1, 121533, Note_off_c, 0, 55, 57
1, 121534, Note_off_c, 0, 75, 68
1, 121535, Control_c, 0, 64, 110
1, 121542, Note_off_c, 0, 51, 57
1, 121550, Control_c, 0, 64, 112
1, 121565, Control_c, 0, 64, 114
1, 121580, Control_c, 0, 64, 116
1, 121594, Control_c, 0, 64, 118
1, 121609, Control_c, 0, 64, 121
1, 121624, Control_c, 0, 64, 125
1, 121639, Control_c, 0, 64, 127
1, 121905, Control_c, 0, 64, 103
1, 121920, Control_c, 0, 64, 71
1, 121921, Note_on_c, 0, 84, 100
1, 121927, Note_on_c, 0, 72, 84
1, 121933, Note_on_c, 0, 75, 81
1, 121933, Note_on_c, 0, 80, 83
1, 121935, Control_c, 0, 64, 0
1, 121937, Note_on_c, 0, 44, 85
1, 121943, Note_on_c, 0, 32, 79
1, 121991, Note_off_c, 0, 32, 63
1, 122009, Control_c, 0, 64, 69
1, 122024, Control_c, 0, 64, 88
1, 122036, Note_off_c, 0, 44, 61
1, 122039, Control_c, 0, 64, 116
1, 122061, Control_c, 0, 64, 127
1, 122080, Note_off_c, 0, 72, 62
1, 122116, Note_off_c, 0, 84, 61
1, 122151, Note_off_c, 0, 75, 63
1, 122220, Note_off_c, 0, 80, 57
1, 122328, Note_on_c, 0, 60, 77
1, 122332, Note_on_c, 0, 51, 60
1, 122342, Note_on_c, 0, 56, 64
1, 122378, Note_off_c, 0, 51, 56
1, 122395, Note_off_c, 0, 56, 53
1, 122405, Note_off_c, 0, 60, 55
1, 122435, Note_on_c, 0, 84, 90
1, 122441, Note_on_c, 0, 72, 82
1, 122443, Note_on_c, 0, 75, 73
1, 122446, Note_on_c, 0, 80, 74
1, 122507, Note_off_c, 0, 75, 49
1, 122528, Note_off_c, 0, 80, 53
1, 122533, Note_off_c, 0, 84, 62
1, 122546, Note_off_c, 0, 72, 51
1, 122562, Note_on_c, 0, 60, 67
1, 122564, Note_on_c, 0, 56, 57
1, 122565, Note_on_c, 0, 63, 64
1, 122570, Note_on_c, 0, 51, 54
1, 122640, Note_on_c, 0, 84, 84
1, 122641, Note_on_c, 0, 80, 80
1, 122642, Note_off_c, 0, 56, 57
1, 122648, Note_on_c, 0, 72, 77
1, 122662, Note_off_c, 0, 63, 55
1, 122665, Note_off_c, 0, 60, 50
1, 122670, Note_off_c, 0, 72, 71
1, 122689, Note_off_c, 0, 84, 62
1, 122690, Note_off_c, 0, 51, 37
1, 122703, Note_off_c, 0, 80, 65
1, 122814, Note_on_c, 0, 56, 56
1, 122817, Note_on_c, 0, 63, 61
1, 122818, Note_on_c, 0, 60, 62
1, 122822, Note_on_c, 0, 51, 51
1, 122841, Note_on_c, 0, 87, 97
1, 122847, Note_on_c, 0, 80, 86
1, 122851, Note_on_c, 0, 75, 72
1, 122871, Note_off_c, 0, 75, 66
1, 122876, Note_off_c, 0, 80, 63
1, 122882, Note_off_c, 0, 87, 66
1, 122891, Note_off_c, 0, 56, 58
1, 122912, Note_off_c, 0, 63, 58
1, 122918, Note_off_c, 0, 51, 51
1, 122981, Note_off_c, 0, 60, 25
1, 123043, Note_on_c, 0, 60, 55
1, 123043, Note_on_c, 0, 63, 63
1, 123049, Note_on_c, 0, 56, 56
1, 123056, Note_on_c, 0, 51, 52
1, 123082, Note_off_c, 0, 60, 55
1, 123089, Note_off_c, 0, 56, 59
1, 123089, Note_off_c, 0, 63, 55
1, 123094, Note_off_c, 0, 51, 62
1, 123216, Note_on_c, 0, 60, 57
1, 123217, Note_on_c, 0, 63, 62
1, 123225, Note_on_c, 0, 56, 47
1, 123232, Note_on_c, 0, 51, 34
1, 123255, Note_off_c, 0, 63, 55
1, 123263, Note_off_c, 0, 60, 54
1, 123270, Note_off_c, 0, 56, 57
1, 123297, Note_on_c, 0, 80, 83
1, 123300, Note_on_c, 0, 68, 79
1, 123305, Note_on_c, 0, 72, 75
1, 123307, Note_on_c, 0, 75, 74
1, 123307, Note_off_c, 0, 51, 39
1, 123341, Note_off_c, 0, 75, 58
1, 123356, Note_off_c, 0, 72, 57
1, 123361, Note_off_c, 0, 80, 62
1, 123364, Note_off_c, 0, 68, 60
1, 123418, Note_on_c, 0, 63, 67
1, 123421, Note_on_c, 0, 80, 88
1, 123425, Note_on_c, 0, 60, 63
1, 123425, Note_on_c, 0, 68, 77
1, 123442, Note_on_c, 0, 75, 70
1, 123445, Note_on_c, 0, 56, 44
1, 123445, Note_on_c, 0, 72, 52
1, 123449, Note_on_c, 0, 51, 43
1, 123458, Note_off_c, 0, 63, 58
1, 123463, Note_off_c, 0, 72, 64
1, 123479, Note_off_c, 0, 56, 57
1, 123481, Note_off_c, 0, 60, 40
1, 123484, Note_off_c, 0, 51, 51
1, 123494, Note_off_c, 0, 68, 61
1, 123507, Note_off_c, 0, 75, 62
1, 123524, Note_off_c, 0, 80, 63
1, 123611, Note_on_c, 0, 63, 67
1, 123624, Note_on_c, 0, 56, 46
1, 123627, Note_on_c, 0, 60, 39
1, 123656, Note_off_c, 0, 60, 51
1, 123664, Note_off_c, 0, 56, 60
1, 123678, Note_on_c, 0, 82, 91
1, 123684, Note_on_c, 0, 70, 80
1, 123687, Note_on_c, 0, 79, 76
1, 123689, Poly_aftertouch_c, 0, 51, 127
1, 123691, Note_off_c, 0, 63, 63
1, 123693, Note_on_c, 0, 75, 72
1, 123717, Poly_aftertouch_c, 0, 51, 0
1, 123782, Note_off_c, 0, 79, 59
1, 123795, Note_on_c, 0, 63, 79
1, 123798, Note_on_c, 0, 58, 76
1, 123802, Note_on_c, 0, 55, 66
1, 123806, Note_off_c, 0, 70, 61
1, 123809, Note_on_c, 0, 51, 64
1, 123809, Note_off_c, 0, 75, 55
1, 123816, Note_off_c, 0, 63, 70
1, 123828, Note_off_c, 0, 58, 64
1, 123836, Note_off_c, 0, 55, 67
1, 123837, Note_off_c, 0, 51, 65
1, 123839, Note_off_c, 0, 82, 57
1, 124033, Control_c, 0, 64, 94
1, 124046, Note_on_c, 0, 84, 95
1, 124048, Control_c, 0, 64, 65
1, 124054, Note_on_c, 0, 72, 87
1, 124054, Note_on_c, 0, 75, 78
1, 124055, Note_on_c, 0, 80, 82
1, 124063, Control_c, 0, 64, 0
1, 124067, Note_on_c, 0, 44, 81
1, 124072, Note_on_c, 0, 32, 75
1, 124092, Control_c, 0, 64, 53
1, 124107, Note_off_c, 0, 44, 61
1, 124107, Control_c, 0, 64, 73
1, 124108, Note_off_c, 0, 32, 65
1, 124122, Control_c, 0, 64, 89
1, 124126, Note_off_c, 0, 84, 66
1, 124134, Note_off_c, 0, 72, 52
1, 124137, Control_c, 0, 64, 114
1, 124149, Note_off_c, 0, 80, 63
1, 124152, Control_c, 0, 64, 127
1, 124181, Note_off_c, 0, 75, 65
1, 124486, Note_on_c, 0, 72, 44
1, 124489, Note_on_c, 0, 63, 63
1, 124489, Note_on_c, 0, 68, 47
1, 124497, Note_on_c, 0, 60, 48
1, 124498, Note_on_c, 0, 56, 48
1, 124506, Note_on_c, 0, 51, 37
1, 124527, Note_off_c, 0, 72, 46
1, 124528, Note_off_c, 0, 63, 60
1, 124535, Note_off_c, 0, 68, 59
1, 124536, Note_off_c, 0, 60, 49
1, 124537, Note_off_c, 0, 56, 62
1, 124548, Note_off_c, 0, 51, 47
1, 124653, Note_on_c, 0, 56, 52
1, 124660, Note_on_c, 0, 63, 54
1, 124662, Note_on_c, 0, 68, 59
1, 124663, Note_on_c, 0, 60, 55
1, 124666, Note_on_c, 0, 51, 33
1, 124672, Note_on_c, 0, 72, 42
1, 124698, Note_off_c, 0, 63, 51
1, 124705, Note_off_c, 0, 51, 47
1, 124709, Note_off_c, 0, 56, 56
1, 124709, Note_off_c, 0, 60, 54
1, 124709, Note_off_c, 0, 72, 48
1, 124713, Note_off_c, 0, 68, 55
1, 124816, Note_on_c, 0, 63, 56
1, 124819, Note_on_c, 0, 51, 43
1, 124823, Note_on_c, 0, 56, 54
1, 124826, Note_on_c, 0, 68, 65
1, 124829, Note_on_c, 0, 60, 58
1, 124839, Note_on_c, 0, 72, 38
1, 124858, Note_off_c, 0, 51, 48
1, 124865, Note_off_c, 0, 56, 57
1, 124865, Note_off_c, 0, 63, 53
1, 124869, Note_off_c, 0, 60, 54
1, 124878, Note_off_c, 0, 68, 57
1, 124878, Note_off_c, 0, 72, 48
1, 124981, Note_on_c, 0, 63, 56
1, 124984, Note_on_c, 0, 56, 50
1, 124985, Note_on_c, 0, 51, 38
1, 124993, Note_on_c, 0, 60, 61
1, 124994, Note_on_c, 0, 72, 51
1, 124995, Note_on_c, 0, 68, 65
1, 125028, Note_off_c, 0, 56, 57
1, 125047, Note_off_c, 0, 51, 45
1, 125048, Note_off_c, 0, 60, 50
1, 125049, Note_off_c, 0, 63, 54
1, 125051, Note_off_c, 0, 72, 57
1, 125052, Note_off_c, 0, 68, 52
1, 125174, Note_on_c, 0, 63, 59
1, 125174, Note_on_c, 0, 72, 72
1, 125175, Note_on_c, 0, 51, 37
1, 125175, Note_on_c, 0, 60, 68
1, 125176, Note_on_c, 0, 56, 44
1, 125182, Note_on_c, 0, 68, 67
1, 125203, Note_off_c, 0, 60, 61
1, 125212, Note_off_c, 0, 51, 48
1, 125229, Note_off_c, 0, 72, 65
1, 125240, Note_off_c, 0, 68, 63
1, 125249, Note_off_c, 0, 63, 48
1, 125292, Note_off_c, 0, 56, 0
1, 125329, Poly_aftertouch_c, 0, 56, 127
1, 125335, Note_on_c, 0, 56, 10
1, 125344, Note_on_c, 0, 51, 41
1, 125360, Note_on_c, 0, 60, 55
1, 125381, Note_on_c, 0, 63, 62
1, 125437, Note_on_c, 0, 80, 91
1, 125447, Note_on_c, 0, 68, 69
1, 125447, Note_on_c, 0, 72, 67
1, 125449, Note_on_c, 0, 75, 72
1, 125473, Note_off_c, 0, 63, 56
1, 125487, Note_off_c, 0, 60, 53
1, 125488, Note_off_c, 0, 51, 51
1, 125491, Note_off_c, 0, 56, 40
1, 125526, Note_off_c, 0, 68, 58
1, 125541, Note_off_c, 0, 80, 62
1, 125556, Note_off_c, 0, 75, 63
1, 125559, Note_off_c, 0, 72, 57
1, 125613, Note_on_c, 0, 63, 69
1, 125619, Note_on_c, 0, 60, 63
1, 125625, Note_on_c, 0, 51, 45
1, 125627, Note_on_c, 0, 56, 51
1, 125678, Note_off_c, 0, 63, 56
1, 125685, Note_off_c, 0, 60, 54
1, 125686, Note_off_c, 0, 51, 49
1, 125686, Note_off_c, 0, 56, 52
1, 125706, Note_on_c, 0, 80, 91
1, 125711, Note_on_c, 0, 68, 75
1, 125714, Note_on_c, 0, 72, 72
1, 125725, Note_on_c, 0, 75, 61
1, 125756, Note_off_c, 0, 75, 64
1, 125765, Note_off_c, 0, 72, 56
1, 125807, Note_off_c, 0, 68, 53
1, 125809, Note_off_c, 0, 80, 61
1, 125817, Note_on_c, 0, 63, 70
1, 125824, Note_on_c, 0, 56, 58
1, 125830, Note_on_c, 0, 51, 66
1, 125844, Note_off_c, 0, 63, 67
1, 125854, Note_off_c, 0, 56, 64
1, 125859, Note_off_c, 0, 51, 65
1, 125914, Note_on_c, 0, 80, 93
1, 125918, Note_on_c, 0, 68, 78
1, 125938, Note_on_c, 0, 75, 60
1, 125942, Note_off_c, 0, 68, 70
1, 125950, Note_on_c, 0, 79, 71
1, 125958, Note_off_c, 0, 75, 66
1, 125973, Note_off_c, 0, 80, 57
1, 125975, Note_off_c, 0, 79, 67
1, 126140, Note_on_c, 0, 37, 71
1, 126167, Note_on_c, 0, 49, 70
1, 126190, Control_c, 0, 64, 105
1, 126200, Note_on_c, 0, 89, 96
1, 126204, Note_on_c, 0, 77, 82
1, 126205, Note_on_c, 0, 80, 80
1, 126205, Control_c, 0, 64, 72
1, 126206, Note_on_c, 0, 85, 75
1, 126220, Control_c, 0, 64, 0
1, 126280, Control_c, 0, 64, 64
1, 126293, Note_off_c, 0, 37, 65
1, 126295, Control_c, 0, 64, 76
1, 126310, Control_c, 0, 64, 89
1, 126325, Control_c, 0, 64, 103
1, 126340, Control_c, 0, 64, 110
1, 126343, Note_off_c, 0, 49, 58
1, 126355, Control_c, 0, 64, 113
1, 126369, Control_c, 0, 64, 117
1, 126384, Control_c, 0, 64, 123
1, 126399, Control_c, 0, 64, 127
1, 126588, Note_on_c, 0, 56, 37
1, 126588, Note_on_c, 0, 65, 42
1, 126589, Note_on_c, 0, 61, 40
1, 126620, Note_off_c, 0, 65, 51
1, 126623, Note_off_c, 0, 61, 53
1, 126628, Note_off_c, 0, 56, 48
1, 126678, Note_off_c, 0, 89, 60
1, 126703, Note_off_c, 0, 77, 57
1, 126729, Note_on_c, 0, 61, 53
1, 126730, Note_on_c, 0, 65, 58
1, 126738, Note_off_c, 0, 85, 60
1, 126740, Note_on_c, 0, 56, 47
1, 126767, Note_off_c, 0, 65, 59
1, 126771, Note_off_c, 0, 61, 58
1, 126779, Note_off_c, 0, 56, 60
1, 126826, Note_off_c, 0, 80, 58
1, 126880, Note_on_c, 0, 65, 50
1, 126881, Note_on_c, 0, 61, 47
1, 126882, Note_on_c, 0, 56, 55
1, 126905, Note_off_c, 0, 65, 59
1, 126910, Note_off_c, 0, 61, 54
1, 126919, Note_off_c, 0, 56, 60
1, 127005, Note_on_c, 0, 65, 58
1, 127008, Note_on_c, 0, 61, 52
1, 127016, Note_on_c, 0, 56, 58
1, 127038, Note_off_c, 0, 65, 64
1, 127045, Note_off_c, 0, 61, 60
1, 127068, Note_off_c, 0, 56, 55
1, 127069, Note_on_c, 0, 87, 78
1, 127081, Note_on_c, 0, 75, 67
1, 127085, Note_on_c, 0, 80, 68
1, 127165, Note_off_c, 0, 75, 60
1, 127175, Note_on_c, 0, 63, 67
1, 127177, Note_on_c, 0, 55, 50
1, 127191, Note_off_c, 0, 80, 54
1, 127193, Note_on_c, 0, 56, 56
1, 127194, Note_off_c, 0, 87, 58
1, 127206, Note_off_c, 0, 63, 65
1, 127207, Note_off_c, 0, 55, 61
1, 127225, Note_off_c, 0, 56, 65
1, 127366, Note_on_c, 0, 85, 75
1, 127367, Note_on_c, 0, 73, 76
1, 127374, Note_on_c, 0, 80, 68
1, 127381, Note_on_c, 0, 61, 65
1, 127383, Note_on_c, 0, 56, 30
1, 127388, Note_on_c, 0, 53, 60
1, 127404, Note_off_c, 0, 80, 64
1, 127413, Note_off_c, 0, 85, 60
1, 127417, Note_off_c, 0, 61, 59
1, 127425, Note_off_c, 0, 53, 61
1, 127431, Note_off_c, 0, 56, 54
1, 127447, Note_off_c, 0, 73, 58
1, 127526, Note_on_c, 0, 61, 67
1, 127540, Note_on_c, 0, 53, 49
1, 127570, Note_on_c, 0, 56, 42
1, 127574, Note_off_c, 0, 53, 65
1, 127591, Note_on_c, 0, 84, 80
1, 127597, Note_on_c, 0, 80, 81
1, 127598, Note_on_c, 0, 72, 76
1, 127610, Note_off_c, 0, 56, 46
1, 127632, Note_off_c, 0, 61, 54
1, 127645, Note_off_c, 0, 72, 60
1, 127658, Note_off_c, 0, 84, 64
1, 127702, Note_off_c, 0, 80, 53
1, 127711, Note_on_c, 0, 51, 64
1, 127716, Note_on_c, 0, 60, 62
1, 127724, Note_on_c, 0, 56, 53
1, 127737, Note_off_c, 0, 60, 64
1, 127754, Note_off_c, 0, 56, 65
1, 127758, Note_off_c, 0, 51, 60
1, 127896, Control_c, 0, 64, 90
1, 127905, Note_on_c, 0, 82, 87
1, 127911, Control_c, 0, 64, 64
1, 127914, Note_on_c, 0, 70, 75
1, 127914, Note_on_c, 0, 80, 69
1, 127922, Note_on_c, 0, 76, 67
1, 127926, Control_c, 0, 64, 0
1, 127943, Note_on_c, 0, 37, 58
1, 127945, Note_on_c, 0, 49, 61
1, 127971, Control_c, 0, 64, 66
1, 127974, Note_off_c, 0, 76, 63
1, 127974, Note_off_c, 0, 37, 65
1, 127980, Note_off_c, 0, 80, 62
1, 127985, Control_c, 0, 64, 80
1, 127988, Note_off_c, 0, 82, 64
1, 128000, Control_c, 0, 64, 95
1, 128000, Note_off_c, 0, 49, 58
1, 128006, Note_off_c, 0, 70, 59
1, 128015, Control_c, 0, 64, 107
1, 128030, Control_c, 0, 64, 111
1, 128052, Control_c, 0, 64, 112
1, 128066, Control_c, 0, 64, 113
1, 128081, Control_c, 0, 64, 115
1, 128096, Control_c, 0, 64, 119
1, 128111, Control_c, 0, 64, 123
1, 128126, Control_c, 0, 64, 126
1, 128141, Control_c, 0, 64, 127
1, 128245, Note_on_c, 0, 70, 45
1, 128249, Note_on_c, 0, 61, 42
1, 128263, Note_on_c, 0, 52, 16
1, 128265, Note_on_c, 0, 58, 28
1, 128266, Note_on_c, 0, 64, 27
1, 128272, Note_off_c, 0, 70, 56
1, 128278, Note_off_c, 0, 61, 54
1, 128299, Note_off_c, 0, 58, 48
1, 128302, Note_off_c, 0, 64, 46
1, 128302, Note_off_c, 0, 52, 55
1, 128361, Note_on_c, 0, 61, 61
1, 128374, Note_on_c, 0, 70, 54
1, 128375, Poly_aftertouch_c, 0, 56, 0
1, 128394, Note_on_c, 0, 56, 14
1, 128396, Note_on_c, 0, 52, 27
1, 128398, Note_off_c, 0, 61, 57
1, 128401, Note_on_c, 0, 58, 46
1, 128409, Note_on_c, 0, 64, 33
1, 128420, Note_off_c, 0, 70, 58
1, 128423, Note_on_c, 0, 68, 25
1, 128427, Note_off_c, 0, 58, 58
1, 128430, Note_off_c, 0, 52, 52
1, 128439, Note_off_c, 0, 56, 48
1, 128439, Note_off_c, 0, 64, 51
1, 128458, Note_off_c, 0, 68, 46
1, 128516, Note_on_c, 0, 61, 59
1, 128522, Note_on_c, 0, 58, 55
1, 128526, Note_on_c, 0, 70, 59
1, 128529, Note_on_c, 0, 52, 49
1, 128533, Note_on_c, 0, 64, 49
1, 128543, Note_on_c, 0, 56, 46
1, 128549, Note_on_c, 0, 68, 55
1, 128564, Note_off_c, 0, 61, 55
1, 128565, Note_off_c, 0, 52, 61
1, 128569, Note_off_c, 0, 64, 52
1, 128571, Note_off_c, 0, 56, 57
1, 128571, Note_off_c, 0, 58, 57
1, 128579, Note_off_c, 0, 68, 54
1, 128581, Note_off_c, 0, 70, 47
1, 128682, Note_on_c, 0, 61, 59
1, 128682, Note_on_c, 0, 56, 47
1, 128686, Note_on_c, 0, 52, 50
1, 128688, Note_on_c, 0, 68, 58
1, 128689, Note_on_c, 0, 58, 48
1, 128695, Note_on_c, 0, 70, 64
1, 128695, Note_on_c, 0, 64, 50
1, 128719, Note_off_c, 0, 61, 55
1, 128722, Note_off_c, 0, 56, 60
1, 128728, Note_off_c, 0, 58, 62
1, 128731, Note_off_c, 0, 52, 60
1, 128735, Note_off_c, 0, 70, 54
1, 128743, Note_off_c, 0, 64, 57
1, 128767, Note_off_c, 0, 68, 51
1, 128851, Note_on_c, 0, 61, 60
1, 128853, Note_on_c, 0, 52, 50
1, 128865, Note_on_c, 0, 70, 65
1, 128870, Note_on_c, 0, 64, 40
1, 128882, Note_off_c, 0, 61, 63
1, 128889, Note_off_c, 0, 52, 66
1, 128895, Note_off_c, 0, 64, 53
1, 128919, Note_off_c, 0, 70, 60
1, 128925, Poly_aftertouch_c, 0, 68, 127
1, 128946, Poly_aftertouch_c, 0, 56, 0
1, 128948, Poly_aftertouch_c, 0, 68, 0
1, 129118, Note_on_c, 0, 49, 44
1, 129126, Note_on_c, 0, 51, 50
1, 129147, Note_on_c, 0, 55, 51
1, 129157, Control_c, 0, 64, 122
1, 129171, Control_c, 0, 64, 100
1, 129186, Control_c, 0, 64, 79
1, 129188, Note_on_c, 0, 58, 57
1, 129200, Note_on_c, 0, 82, 85
1, 129201, Control_c, 0, 64, 47
1, 129211, Note_on_c, 0, 70, 70
1, 129215, Control_c, 0, 64, 0
1, 129221, Note_on_c, 0, 75, 62
1, 129245, Control_c, 0, 64, 58
1, 129260, Control_c, 0, 64, 71
1, 129264, Note_off_c, 0, 75, 60
1, 129275, Control_c, 0, 64, 81
1, 129285, Note_off_c, 0, 82, 64
1, 129288, Note_off_c, 0, 49, 58
1, 129289, Control_c, 0, 64, 92
1, 129292, Note_off_c, 0, 70, 60
1, 129293, Note_off_c, 0, 58, 61
1, 129303, Note_off_c, 0, 55, 57
1, 129304, Control_c, 0, 64, 99
1, 129314, Note_off_c, 0, 51, 57
1, 129319, Control_c, 0, 64, 101
1, 129334, Control_c, 0, 64, 102
1, 129349, Control_c, 0, 64, 104
1, 129363, Control_c, 0, 64, 106
1, 129379, Control_c, 0, 64, 108
1, 129394, Control_c, 0, 64, 110
1, 129408, Control_c, 0, 64, 112
1, 129422, Note_on_c, 0, 49, 51
1, 129423, Note_on_c, 0, 58, 49
1, 129423, Control_c, 0, 64, 113
1, 129438, Control_c, 0, 64, 115
1, 129454, Control_c, 0, 64, 116
1, 129461, Note_on_c, 0, 55, 30
1, 129465, Note_off_c, 0, 49, 57
1, 129469, Note_on_c, 0, 51, 30
1, 129469, Control_c, 0, 64, 117
1, 129475, Note_off_c, 0, 58, 58
1, 129484, Note_on_c, 0, 79, 81
1, 129484, Control_c, 0, 64, 117
1, 129494, Note_on_c, 0, 67, 73
1, 129499, Control_c, 0, 64, 118
1, 129505, Note_off_c, 0, 51, 44
1, 129513, Control_c, 0, 64, 120
1, 129524, Note_off_c, 0, 67, 62
1, 129528, Control_c, 0, 64, 121
1, 129539, Note_off_c, 0, 79, 63
1, 129551, Control_c, 0, 64, 124
1, 129565, Control_c, 0, 64, 126
1, 129580, Control_c, 0, 64, 127
1, 129588, Note_off_c, 0, 55, 37
1, 129592, Note_on_c, 0, 58, 65
1, 129599, Note_on_c, 0, 49, 61
1, 129613, Note_on_c, 0, 51, 43
1, 129622, Note_off_c, 0, 58, 66
1, 129649, Note_off_c, 0, 49, 59
1, 129649, Note_off_c, 0, 51, 65
1, 129672, Note_on_c, 0, 75, 74
1, 129676, Note_on_c, 0, 63, 73
1, 129697, Note_off_c, 0, 63, 64
1, 129719, Note_off_c, 0, 75, 56
1, 129817, Control_c, 0, 64, 110
1, 129832, Control_c, 0, 64, 87
1, 129846, Control_c, 0, 64, 63
1, 129861, Note_on_c, 0, 80, 91
1, 129861, Control_c, 0, 64, 0
1, 129863, Note_on_c, 0, 36, 70
1, 129872, Note_on_c, 0, 68, 74
1, 129873, Note_on_c, 0, 48, 68
1, 129875, Note_on_c, 0, 75, 43
1, 129891, Control_c, 0, 64, 37
1, 129900, Note_off_c, 0, 75, 58
1, 129903, Note_off_c, 0, 36, 66
1, 129906, Control_c, 0, 64, 70
1, 129908, Note_off_c, 0, 80, 66
1, 129911, Note_off_c, 0, 68, 64
1, 129920, Control_c, 0, 64, 81
1, 129928, Note_off_c, 0, 48, 64
1, 129935, Control_c, 0, 64, 94
1, 129950, Control_c, 0, 64, 103
1, 129965, Control_c, 0, 64, 104
1, 129980, Control_c, 0, 64, 105
1, 129995, Control_c, 0, 64, 106
1, 130010, Control_c, 0, 64, 108
1, 130024, Control_c, 0, 64, 111
1, 130039, Control_c, 0, 64, 114
1, 130054, Control_c, 0, 64, 116
1, 130069, Control_c, 0, 64, 119
1, 130084, Control_c, 0, 64, 121
1, 130099, Control_c, 0, 64, 123
1, 130111, Note_on_c, 0, 63, 53
1, 130111, Note_on_c, 0, 68, 51
1, 130113, Control_c, 0, 64, 125
1, 130119, Note_on_c, 0, 60, 43
1, 130128, Control_c, 0, 64, 127
1, 130143, Control_c, 0, 64, 127
1, 130144, Note_off_c, 0, 63, 54
1, 130145, Note_off_c, 0, 60, 52
1, 130150, Note_off_c, 0, 68, 63
1, 130159, Poly_aftertouch_c, 0, 48, 127
1, 130218, Poly_aftertouch_c, 0, 48, 0
1, 130231, Note_on_c, 0, 60, 47
1, 130232, Note_on_c, 0, 56, 47
1, 130234, Note_on_c, 0, 68, 64
1, 130237, Note_on_c, 0, 48, 29
1, 130250, Note_on_c, 0, 51, 38
1, 130256, Note_on_c, 0, 63, 19
1, 130263, Note_off_c, 0, 60, 48
1, 130266, Note_off_c, 0, 68, 65
1, 130270, Note_off_c, 0, 56, 57
1, 130285, Note_off_c, 0, 48, 51
1, 130293, Note_off_c, 0, 51, 54
1, 130297, Note_off_c, 0, 63, 52
1, 130360, Note_on_c, 0, 56, 73
1, 130379, Note_on_c, 0, 51, 55
1, 130386, Note_on_c, 0, 48, 49
1, 130394, Note_off_c, 0, 56, 59
1, 130412, Note_off_c, 0, 48, 59
1, 130415, Note_off_c, 0, 51, 61
1, 130445, Poly_aftertouch_c, 0, 60, 0
1, 130490, Note_on_c, 0, 60, 67
1, 130497, Note_on_c, 0, 56, 71
1, 130498, Note_on_c, 0, 48, 60
1, 130498, Note_on_c, 0, 51, 65
1, 130528, Note_on_c, 0, 80, 91
1, 130536, Note_on_c, 0, 68, 65
1, 130542, Note_off_c, 0, 48, 62
1, 130551, Note_on_c, 0, 75, 55
1, 130551, Note_off_c, 0, 60, 57
1, 130558, Note_off_c, 0, 51, 55
1, 130564, Note_off_c, 0, 68, 67
1, 130572, Note_off_c, 0, 56, 61
1, 130572, Note_off_c, 0, 75, 62
1, 130603, Note_off_c, 0, 80, 65
1, 130624, Note_on_c, 0, 60, 65
1, 130624, Poly_aftertouch_c, 0, 72, 0
1, 130630, Note_on_c, 0, 48, 73
1, 130630, Note_on_c, 0, 51, 59
1, 130640, Note_off_c, 0, 60, 68
1, 130657, Note_off_c, 0, 48, 68
1, 130659, Note_off_c, 0, 51, 62
1, 130758, Control_c, 0, 64, 122
1, 130773, Control_c, 0, 64, 82
1, 130776, Note_on_c, 0, 85, 98
1, 130782, Note_on_c, 0, 75, 78
1, 130785, Note_on_c, 0, 73, 79
1, 130788, Control_c, 0, 64, 0
1, 130794, Note_on_c, 0, 46, 92
1, 130795, Note_on_c, 0, 79, 64
1, 130801, Note_on_c, 0, 34, 72
1, 130818, Note_off_c, 0, 46, 68
1, 130819, Note_on_c, 0, 37, 41
1, 130820, Note_off_c, 0, 37, 127
1, 130823, Note_off_c, 0, 34, 62
1, 130832, Control_c, 0, 64, 65
1, 130847, Control_c, 0, 64, 81
1, 130862, Control_c, 0, 64, 107
1, 130876, Control_c, 0, 64, 127
1, 130913, Note_off_c, 0, 79, 60
1, 130913, Note_off_c, 0, 75, 57
1, 130933, Note_off_c, 0, 73, 34
1, 130956, Note_off_c, 0, 85, 52
1, 130965, Note_on_c, 0, 61, 78
1, 130968, Note_on_c, 0, 51, 71
1, 130991, Note_off_c, 0, 61, 65
1, 130999, Note_off_c, 0, 51, 63
1, 131072, Note_on_c, 0, 51, 76
1, 131074, Note_on_c, 0, 61, 66
1, 131092, Note_off_c, 0, 61, 65
1, 131102, Note_on_c, 0, 73, 85
1, 131102, Note_on_c, 0, 85, 78
1, 131121, Note_off_c, 0, 51, 62
1, 131141, Note_off_c, 0, 85, 60
1, 131147, Note_off_c, 0, 73, 63
1, 131198, Note_on_c, 0, 85, 91
1, 131203, Note_on_c, 0, 73, 91
1, 131210, Control_c, 0, 64, 96
1, 131222, Note_on_c, 0, 80, 67
1, 131225, Control_c, 0, 64, 69
1, 131228, Note_on_c, 0, 32, 83
1, 131232, Note_on_c, 0, 44, 76
1, 131240, Control_c, 0, 64, 0
1, 131255, Note_off_c, 0, 32, 66
1, 131259, Note_off_c, 0, 80, 0
1, 131259, Note_on_c, 0, 80, 43
1, 131261, Note_off_c, 0, 44, 63
1, 131270, Control_c, 0, 64, 64
1, 131284, Control_c, 0, 64, 81
1, 131299, Control_c, 0, 64, 104
1, 131314, Control_c, 0, 64, 127
1, 131345, Note_off_c, 0, 85, 61
1, 131351, Note_off_c, 0, 73, 56
1, 131403, Note_on_c, 0, 61, 77
1, 131411, Note_on_c, 0, 56, 61
1, 131429, Note_on_c, 0, 51, 43
1, 131429, Note_off_c, 0, 61, 65
1, 131443, Note_off_c, 0, 56, 63
1, 131459, Note_off_c, 0, 51, 52
1, 131519, Note_on_c, 0, 61, 72
1, 131530, Note_on_c, 0, 51, 63
1, 131532, Note_on_c, 0, 56, 39
1, 131544, Note_off_c, 0, 61, 64
1, 131554, Note_off_c, 0, 80, 43
1, 131559, Note_off_c, 0, 51, 62
1, 131569, Note_off_c, 0, 56, 47
1, 131640, Control_c, 0, 64, 115
1, 131643, Note_on_c, 0, 84, 90
1, 131650, Note_on_c, 0, 72, 78
1, 131654, Note_on_c, 0, 56, 72
1, 131654, Note_on_c, 0, 80, 74
1, 131655, Control_c, 0, 64, 84
1, 131657, Note_on_c, 0, 75, 73
1, 131658, Note_on_c, 0, 44, 75
1, 131670, Control_c, 0, 64, 42
1, 131685, Control_c, 0, 64, 0
1, 131690, Note_off_c, 0, 56, 66
1, 131691, Note_off_c, 0, 44, 62
1, 131715, Control_c, 0, 64, 62
1, 131729, Control_c, 0, 64, 80
1, 131744, Control_c, 0, 64, 102
1, 131759, Control_c, 0, 64, 127
1, 131761, Note_off_c, 0, 84, 58
1, 131796, Note_off_c, 0, 75, 57
1, 131803, Note_on_c, 0, 60, 71
1, 131807, Note_off_c, 0, 72, 49
1, 131815, Note_on_c, 0, 56, 49
1, 131843, Note_off_c, 0, 60, 56
1, 131854, Note_off_c, 0, 56, 60
1, 131855, Note_on_c, 0, 84, 95
1, 131856, Note_on_c, 0, 72, 74
1, 131876, Poly_aftertouch_c, 0, 51, 0
1, 131882, Note_off_c, 0, 80, 64
1, 131899, Note_on_c, 0, 51, 29
1, 131914, Note_on_c, 0, 60, 60
1, 131930, Note_on_c, 0, 56, 50
1, 131932, Note_off_c, 0, 60, 63
1, 131958, Note_off_c, 0, 51, 63
1, 131958, Note_off_c, 0, 56, 53
1, 131980, Note_off_c, 0, 72, 64
1, 131983, Note_off_c, 0, 84, 55
1, 132079, Control_c, 0, 64, 107
1, 132094, Control_c, 0, 64, 76
1, 132095, Note_on_c, 0, 84, 92
1, 132099, Note_on_c, 0, 72, 90
1, 132103, Note_on_c, 0, 51, 79
1, 132105, Note_on_c, 0, 39, 78
1, 132105, Note_on_c, 0, 77, 86
1, 132105, Note_on_c, 0, 81, 79
1, 132108, Control_c, 0, 64, 0
1, 132132, Note_off_c, 0, 39, 66
1, 132138, Note_off_c, 0, 51, 62
1, 132138, Control_c, 0, 64, 11
1, 132153, Control_c, 0, 64, 71
1, 132168, Control_c, 0, 64, 90
1, 132174, Note_off_c, 0, 84, 67
1, 132176, Note_off_c, 0, 72, 60
1, 132183, Control_c, 0, 64, 127
1, 132189, Note_off_c, 0, 81, 60
1, 132195, Note_off_c, 0, 77, 64
1, 132315, Note_on_c, 0, 60, 70
1, 132327, Note_on_c, 0, 53, 49
1, 132331, Note_on_c, 0, 57, 42
1, 132346, Note_off_c, 0, 60, 61
1, 132350, Note_on_c, 0, 51, 21
1, 132366, Note_off_c, 0, 53, 52
1, 132385, Note_off_c, 0, 51, 46
1, 132452, Note_on_c, 0, 60, 65
1, 132467, Note_on_c, 0, 51, 66
1, 132475, Note_off_c, 0, 60, 70
1, 132482, Note_off_c, 0, 57, 19
1, 132484, Note_on_c, 0, 77, 91
1, 132490, Note_on_c, 0, 53, 33
1, 132496, Note_on_c, 0, 65, 72
1, 132507, Note_off_c, 0, 51, 61
1, 132517, Note_off_c, 0, 53, 55
1, 132520, Note_off_c, 0, 65, 71
1, 132543, Note_off_c, 0, 77, 64
1, 132664, Control_c, 0, 64, 105
1, 132679, Control_c, 0, 64, 71
1, 132682, Note_on_c, 0, 82, 95
1, 132688, Note_on_c, 0, 70, 82
1, 132692, Note_on_c, 0, 37, 67
1, 132694, Control_c, 0, 64, 0
1, 132698, Note_on_c, 0, 77, 72
1, 132699, Note_on_c, 0, 49, 75
1, 132717, Note_off_c, 0, 37, 67
1, 132723, Note_off_c, 0, 77, 64
1, 132724, Control_c, 0, 64, 22
1, 132738, Note_off_c, 0, 82, 66
1, 132738, Control_c, 0, 64, 72
1, 132744, Note_off_c, 0, 49, 63
1, 132744, Note_off_c, 0, 70, 61
1, 132753, Control_c, 0, 64, 89
1, 132768, Control_c, 0, 64, 119
1, 132782, Control_c, 0, 64, 127
1, 132920, Note_on_c, 0, 58, 60
1, 132920, Note_on_c, 0, 70, 71
1, 132925, Note_on_c, 0, 61, 59
1, 132949, Note_off_c, 0, 70, 61
1, 132955, Note_off_c, 0, 61, 57
1, 132956, Note_off_c, 0, 58, 62
1, 132995, Poly_aftertouch_c, 0, 53, 127
1, 133029, Note_on_c, 0, 61, 77
1, 133037, Note_on_c, 0, 58, 63
1, 133047, Note_on_c, 0, 70, 58
1, 133068, Note_off_c, 0, 70, 60
1, 133070, Note_off_c, 0, 58, 64
1, 133072, Note_off_c, 0, 61, 60
1, 133098, Poly_aftertouch_c, 0, 53, 0
1, 133134, Note_on_c, 0, 61, 76
1, 133141, Note_on_c, 0, 53, 52
1, 133142, Note_on_c, 0, 58, 79
1, 133145, Poly_aftertouch_c, 0, 49, 127
1, 133160, Note_on_c, 0, 49, 3
1, 133182, Note_off_c, 0, 61, 59
1, 133183, Note_off_c, 0, 49, 56
1, 133190, Note_off_c, 0, 53, 63
1, 133192, Note_off_c, 0, 58, 59
1, 133253, Note_on_c, 0, 58, 68
1, 133258, Note_on_c, 0, 53, 64
1, 133258, Note_on_c, 0, 61, 79
1, 133301, Note_on_c, 0, 49, 26
1, 133312, Note_on_c, 0, 70, 85
1, 133312, Note_on_c, 0, 82, 95
1, 133319, Note_off_c, 0, 61, 62
1, 133324, Note_on_c, 0, 73, 73
1, 133336, Note_off_c, 0, 49, 44
1, 133345, Note_off_c, 0, 73, 69
1, 133358, Note_off_c, 0, 70, 63
1, 133372, Note_on_c, 0, 61, 66
1, 133382, Note_off_c, 0, 58, 63
1, 133390, Note_on_c, 0, 49, 64
1, 133394, Note_off_c, 0, 82, 65
1, 133401, Note_off_c, 0, 61, 64
1, 133409, Note_off_c, 0, 53, 58
1, 133413, Note_off_c, 0, 49, 65
1, 133561, Control_c, 0, 64, 85
1, 133566, Note_on_c, 0, 87, 96
1, 133572, Note_on_c, 0, 75, 89
1, 133572, Note_on_c, 0, 77, 83
1, 133573, Note_on_c, 0, 36, 85
1, 133575, Note_on_c, 0, 48, 94
1, 133576, Control_c, 0, 64, 0
1, 133578, Note_on_c, 0, 81, 72
1, 133597, Note_off_c, 0, 36, 67
1, 133597, Note_off_c, 0, 48, 72
1, 133620, Control_c, 0, 64, 64
1, 133635, Control_c, 0, 64, 97
1, 133650, Control_c, 0, 64, 127
1, 133724, Note_off_c, 0, 87, 59
1, 133725, Note_off_c, 0, 75, 58
1, 133765, Note_off_c, 0, 77, 46
1, 133779, Note_on_c, 0, 63, 97
1, 133793, Note_on_c, 0, 57, 60
1, 133797, Note_on_c, 0, 53, 66
1, 133830, Note_off_c, 0, 53, 59
1, 133831, Note_off_c, 0, 57, 56
1, 133847, Note_off_c, 0, 63, 60
1, 133906, Note_off_c, 0, 81, 49
1, 133909, Note_on_c, 0, 63, 83
1, 133914, Note_on_c, 0, 53, 78
1, 133921, Note_on_c, 0, 57, 69
1, 133938, Note_off_c, 0, 63, 68
1, 133947, Note_off_c, 0, 57, 64
1, 133960, Note_off_c, 0, 53, 65
1, 133968, Note_on_c, 0, 87, 86
1, 133971, Note_on_c, 0, 75, 87
1, 134016, Note_off_c, 0, 75, 64
1, 134022, Note_off_c, 0, 87, 62
1, 134058, Control_c, 0, 64, 127
1, 134073, Control_c, 0, 64, 84
1, 134073, Note_on_c, 0, 87, 82
1, 134079, Note_on_c, 0, 75, 92
1, 134087, Control_c, 0, 64, 48
1, 134094, Note_on_c, 0, 46, 96
1, 134094, Note_on_c, 0, 81, 66
1, 134094, Note_on_c, 0, 88, 76
1, 134102, Control_c, 0, 64, 0
1, 134105, Note_on_c, 0, 35, 66
1, 134111, Note_off_c, 0, 75, 64
1, 134115, Note_on_c, 0, 76, 47
1, 134117, Control_c, 0, 64, 66
1, 134119, Note_off_c, 0, 88, 50
1, 134120, Note_off_c, 0, 46, 66
1, 134130, Note_off_c, 0, 35, 58
1, 134131, Control_c, 0, 64, 86
1, 134136, Note_off_c, 0, 76, 53
1, 134146, Control_c, 0, 64, 127
1, 134165, Note_off_c, 0, 87, 65
1, 134187, Note_off_c, 0, 81, 62
1, 134310, Note_on_c, 0, 63, 89
1, 134336, Note_on_c, 0, 53, 51
1, 134347, Note_on_c, 0, 57, 38
1, 134368, Note_off_c, 0, 53, 51
1, 134388, Note_off_c, 0, 63, 63
1, 134389, Note_off_c, 0, 57, 46
1, 134478, Note_on_c, 0, 63, 92
1, 134494, Note_on_c, 0, 57, 63
1, 134496, Note_on_c, 0, 53, 72
1, 134540, Note_off_c, 0, 63, 62
1, 134674, Note_off_c, 0, 57, 60
1, 134681, Control_c, 0, 64, 108
1, 134696, Control_c, 0, 64, 69
1, 134701, Note_on_c, 0, 61, 87
1, 134705, Note_on_c, 0, 85, 91
1, 134708, Note_on_c, 0, 73, 91
1, 134710, Control_c, 0, 64, 0
1, 134710, Note_on_c, 0, 58, 78
1, 134716, Note_on_c, 0, 82, 85
1, 134740, Control_c, 0, 64, 26
1, 134748, Note_off_c, 0, 61, 62
1, 134749, Note_off_c, 0, 73, 64
1, 134750, Note_off_c, 0, 53, 65
1, 134754, Control_c, 0, 64, 73
1, 134761, Note_off_c, 0, 58, 65
1, 134769, Control_c, 0, 64, 94
1, 134785, Note_off_c, 0, 82, 64
1, 134791, Control_c, 0, 64, 127
1, 134810, Note_off_c, 0, 85, 64
1, 134895, Note_on_c, 0, 45, 73
1, 134923, Note_off_c, 0, 45, 66
1, 134999, Note_on_c, 0, 91, 84
1, 135008, Note_on_c, 0, 79, 80
1, 135016, Note_on_c, 0, 67, 72
1, 135017, Note_off_c, 0, 91, 66
1, 135025, Note_on_c, 0, 65, 50
1, 135032, Note_off_c, 0, 67, 67
1, 135040, Note_on_c, 0, 58, 36
1, 135043, Note_off_c, 0, 79, 59
1, 135052, Note_off_c, 0, 65, 58
1, 135068, Note_off_c, 0, 58, 60
1, 135164, Note_on_c, 0, 46, 84
1, 135177, Control_c, 0, 64, 126
1, 135192, Control_c, 0, 64, 89
1, 135207, Control_c, 0, 64, 67
1, 135217, Note_off_c, 0, 46, 63
1, 135222, Control_c, 0, 64, 52
1, 135235, Note_on_c, 0, 61, 84
1, 135237, Control_c, 0, 64, 69
1, 135244, Note_on_c, 0, 53, 72
1, 135251, Control_c, 0, 64, 87
1, 135253, Note_off_c, 0, 61, 70
1, 135266, Control_c, 0, 64, 127
1, 135268, Note_off_c, 0, 53, 69
1, 135393, Note_on_c, 0, 37, 75
1, 135422, Note_off_c, 0, 37, 67
1, 135459, Note_on_c, 0, 82, 87
1, 135465, Note_on_c, 0, 70, 85
1, 135483, Note_on_c, 0, 73, 54
1, 135490, Note_off_c, 0, 70, 62
1, 135498, Note_off_c, 0, 82, 66
1, 135499, Note_on_c, 0, 58, 91
1, 135503, Note_off_c, 0, 73, 58
1, 135529, Note_off_c, 0, 58, 66
1, 135531, Note_on_c, 0, 49, 48
1, 135532, Note_off_c, 0, 49, 127
1, 135669, Note_on_c, 0, 39, 84
1, 135700, Note_off_c, 0, 39, 66
1, 135779, Note_on_c, 0, 80, 95
1, 135780, Note_on_c, 0, 68, 95
1, 135790, Note_on_c, 0, 72, 78
1, 135790, Note_on_c, 0, 75, 75
1, 135798, Note_on_c, 0, 60, 83
1, 135815, Note_on_c, 0, 49, 42
1, 135818, Note_off_c, 0, 60, 64
1, 135843, Note_off_c, 0, 49, 57
1, 135858, Note_off_c, 0, 72, 61
1, 135861, Note_off_c, 0, 75, 65
1, 135886, Note_off_c, 0, 68, 59
1, 135915, Note_off_c, 0, 80, 55
1, 135983, Note_on_c, 0, 39, 85
1, 136016, Note_off_c, 0, 39, 62
1, 136109, Note_on_c, 0, 80, 97
1, 136109, Note_on_c, 0, 68, 99
1, 136116, Note_on_c, 0, 71, 84
1, 136117, Note_on_c, 0, 77, 89
1, 136125, Note_on_c, 0, 62, 92
1, 136125, Note_on_c, 0, 74, 77
1, 136131, Note_on_c, 0, 53, 82
1, 136144, Note_off_c, 0, 62, 71
1, 136156, Note_off_c, 0, 53, 70
1, 136159, Note_off_c, 0, 80, 69
1, 136180, Note_off_c, 0, 77, 64
1, 136188, Note_off_c, 0, 74, 64
1, 136198, Note_off_c, 0, 71, 63
1, 136219, Note_off_c, 0, 68, 63
1, 136609, Note_on_c, 0, 39, 98
1, 136618, Note_on_c, 0, 27, 93
1, 136630, Control_c, 0, 64, 111
1, 136645, Control_c, 0, 64, 74
1, 136661, Control_c, 0, 64, 0
1, 136691, Control_c, 0, 66, 127
1, 136765, Control_c, 0, 64, 65
1, 136778, Note_off_c, 0, 27, 65
1, 136779, Control_c, 0, 64, 76
1, 136794, Control_c, 0, 64, 94
1, 136809, Control_c, 0, 64, 116
1, 136818, Note_off_c, 0, 39, 62
1, 136824, Control_c, 0, 64, 127
1, 137098, Note_on_c, 0, 51, 59
1, 137123, Note_off_c, 0, 51, 65
1, 137143, Note_on_c, 0, 58, 64
1, 137143, Note_on_c, 0, 61, 76
1, 137144, Note_on_c, 0, 89, 102
1, 137149, Note_on_c, 0, 77, 97
1, 137152, Note_on_c, 0, 80, 91
1, 137153, Note_on_c, 0, 85, 84
1, 137175, Note_on_c, 0, 65, 76
1, 137189, Note_off_c, 0, 58, 58
1, 137203, Note_off_c, 0, 65, 68
1, 137205, Note_off_c, 0, 61, 42
1, 137229, Note_off_c, 0, 77, 60
1, 137278, Note_off_c, 0, 80, 61
1, 137286, Note_off_c, 0, 89, 64
1, 137337, Note_off_c, 0, 85, 65
1, 137763, Note_on_c, 0, 51, 75
1, 137796, Note_off_c, 0, 51, 63
1, 137929, Note_on_c, 0, 87, 98
1, 137933, Note_on_c, 0, 75, 93
1, 137936, Note_on_c, 0, 67, 88
1, 137939, Note_on_c, 0, 82, 88
1, 137940, Note_on_c, 0, 79, 83
1, 137945, Note_on_c, 0, 58, 78
1, 137945, Note_on_c, 0, 61, 76
1, 137965, Note_off_c, 0, 67, 63
1, 137971, Note_off_c, 0, 58, 66
1, 137978, Note_off_c, 0, 61, 51
1, 137981, Note_off_c, 0, 79, 59
1, 137988, Note_off_c, 0, 75, 59
1, 137992, Note_off_c, 0, 87, 68
1, 137995, Note_off_c, 0, 82, 64
1, 138350, Control_c, 0, 66, 0
1, 138641, Note_on_c, 0, 44, 69
1, 138651, Note_on_c, 0, 51, 69
1, 138699, Control_c, 0, 64, 92
1, 138714, Control_c, 0, 64, 0
1, 138718, Note_on_c, 0, 80, 90
1, 138723, Note_on_c, 0, 68, 82
1, 138730, Note_on_c, 0, 72, 74
1, 138732, Note_on_c, 0, 75, 76
1, 138862, Control_c, 0, 64, 67
1, 138876, Control_c, 0, 64, 83
1, 138891, Control_c, 0, 64, 99
1, 138906, Control_c, 0, 64, 117
1, 138920, Control_c, 0, 64, 125
1, 138926, Note_off_c, 0, 80, 67
1, 138935, Control_c, 0, 64, 127
1, 138949, Note_off_c, 0, 75, 63
1, 138958, Note_off_c, 0, 72, 63
1, 138991, Note_off_c, 0, 68, 63
1, 139007, Note_on_c, 0, 56, 62
1, 139189, Note_on_c, 0, 60, 65
1, 139259, Note_off_c, 0, 60, 54
1, 139373, Note_off_c, 0, 56, 36
1, 139411, Note_on_c, 0, 63, 68
1, 139441, Note_off_c, 0, 63, 65
1, 139509, Note_on_c, 0, 63, 69
1, 139539, Note_off_c, 0, 51, 37
1, 139639, Note_on_c, 0, 60, 61
1, 139700, Note_off_c, 0, 44, 57
1, 139750, Note_on_c, 0, 56, 60
1, 139813, Note_off_c, 0, 56, 57
1, 139847, Note_on_c, 0, 51, 70
1, 139902, Note_off_c, 0, 51, 57
1, 139970, Note_on_c, 0, 43, 69
1, 139978, Note_on_c, 0, 51, 58
1, 139992, Note_off_c, 0, 60, 49
1, 139997, Control_c, 0, 64, 115
1, 140012, Control_c, 0, 64, 92
1, 140034, Control_c, 0, 64, 75
1, 140049, Control_c, 0, 64, 59
1, 140064, Control_c, 0, 64, 63
1, 140079, Control_c, 0, 64, 70
1, 140094, Control_c, 0, 64, 80
1, 140103, Note_off_c, 0, 51, 62
1, 140109, Control_c, 0, 64, 90
1, 140111, Note_on_c, 0, 56, 65
1, 140123, Control_c, 0, 64, 99
1, 140138, Control_c, 0, 64, 104
1, 140153, Control_c, 0, 64, 106
1, 140162, Note_on_c, 0, 60, 70
1, 140168, Control_c, 0, 64, 108
1, 140182, Control_c, 0, 64, 110
1, 140193, Note_off_c, 0, 56, 59
1, 140197, Control_c, 0, 64, 112
1, 140198, Note_off_c, 0, 63, 37
1, 140212, Control_c, 0, 64, 114
1, 140227, Control_c, 0, 64, 116
1, 140231, Note_off_c, 0, 43, 35
1, 140242, Control_c, 0, 64, 118
1, 140256, Control_c, 0, 64, 120
1, 140271, Control_c, 0, 64, 122
1, 140272, Note_off_c, 0, 60, 44
1, 140285, Note_on_c, 0, 63, 71
1, 140286, Control_c, 0, 64, 122
1, 140316, Control_c, 0, 64, 123
1, 140330, Control_c, 0, 64, 124
1, 140345, Control_c, 0, 64, 125
1, 140374, Control_c, 0, 64, 125
1, 140413, Note_on_c, 0, 41, 48
1, 140434, Control_c, 0, 64, 125
1, 140449, Control_c, 0, 64, 122
1, 140464, Control_c, 0, 64, 114
1, 140473, Note_on_c, 0, 50, 44
1, 140479, Control_c, 0, 64, 100
1, 140489, Note_on_c, 0, 68, 79
1, 140493, Control_c, 0, 64, 82
1, 140493, Note_off_c, 0, 63, 64
1, 140508, Control_c, 0, 64, 63
1, 140523, Control_c, 0, 64, 0
1, 140582, Control_c, 0, 64, 58
1, 140597, Control_c, 0, 64, 70
1, 140612, Control_c, 0, 64, 80
1, 140627, Note_on_c, 0, 56, 57
1, 140627, Control_c, 0, 64, 92
1, 140642, Control_c, 0, 64, 100
1, 140657, Control_c, 0, 64, 103
1, 140672, Control_c, 0, 64, 105
1, 140685, Note_off_c, 0, 68, 60
1, 140687, Control_c, 0, 64, 107
1, 140702, Control_c, 0, 64, 110
1, 140716, Note_off_c, 0, 56, 56
1, 140717, Control_c, 0, 64, 115
1, 140726, Note_off_c, 0, 41, 41
1, 140732, Control_c, 0, 64, 119
1, 140746, Control_c, 0, 64, 121
1, 140758, Note_on_c, 0, 59, 62
1, 140761, Control_c, 0, 64, 122
1, 140783, Control_c, 0, 64, 123
1, 140797, Control_c, 0, 64, 125
1, 140812, Control_c, 0, 64, 126
1, 140827, Control_c, 0, 64, 126
1, 140857, Note_off_c, 0, 59, 58
1, 140881, Note_on_c, 0, 62, 68
1, 140951, Note_off_c, 0, 50, 41
1, 140961, Control_c, 0, 64, 123
1, 140976, Control_c, 0, 64, 113
1, 140991, Note_on_c, 0, 40, 43
1, 140991, Control_c, 0, 64, 98
1, 140998, Note_on_c, 0, 49, 44
1, 141005, Control_c, 0, 64, 77
1, 141006, Note_on_c, 0, 67, 74
1, 141020, Control_c, 0, 64, 0
1, 141024, Note_off_c, 0, 62, 57
1, 141094, Control_c, 0, 64, 55
1, 141109, Control_c, 0, 64, 71
1, 141123, Control_c, 0, 64, 82
1, 141136, Note_off_c, 0, 67, 61
1, 141138, Control_c, 0, 64, 93
1, 141153, Control_c, 0, 64, 100
1, 141162, Note_on_c, 0, 55, 67
1, 141168, Control_c, 0, 64, 103
1, 141183, Control_c, 0, 64, 104
1, 141197, Control_c, 0, 64, 107
1, 141212, Control_c, 0, 64, 110
1, 141227, Control_c, 0, 64, 113
1, 141242, Control_c, 0, 64, 116
1, 141251, Note_off_c, 0, 55, 60
1, 141257, Control_c, 0, 64, 118
1, 141271, Control_c, 0, 64, 120
1, 141278, Note_on_c, 0, 68, 74
1, 141286, Control_c, 0, 64, 121
1, 141293, Note_off_c, 0, 49, 27
1, 141294, Note_on_c, 0, 58, 39
1, 141301, Control_c, 0, 64, 124
1, 141316, Control_c, 0, 64, 126
1, 141325, Note_off_c, 0, 58, 47
1, 141331, Control_c, 0, 64, 127
1, 141360, Note_off_c, 0, 68, 62
1, 141375, Control_c, 0, 64, 127
1, 141401, Note_off_c, 0, 40, 41
1, 141403, Note_on_c, 0, 49, 44
1, 141467, Note_on_c, 0, 61, 57
1, 141562, Note_on_c, 0, 39, 46
1, 141575, Control_c, 0, 64, 123
1, 141590, Control_c, 0, 64, 112
1, 141605, Control_c, 0, 64, 96
1, 141620, Control_c, 0, 64, 77
1, 141635, Control_c, 0, 64, 0
1, 141638, Note_on_c, 0, 72, 75
1, 141694, Control_c, 0, 64, 59
1, 141709, Control_c, 0, 64, 71
1, 141724, Note_off_c, 0, 49, 39
1, 141724, Control_c, 0, 64, 81
1, 141732, Note_off_c, 0, 39, 61
1, 141738, Control_c, 0, 64, 92
1, 141753, Control_c, 0, 64, 97
1, 141768, Control_c, 0, 64, 98
1, 141783, Control_c, 0, 64, 99
1, 141798, Note_off_c, 0, 61, 54
1, 141798, Control_c, 0, 64, 100
1, 141813, Control_c, 0, 64, 103
1, 141827, Control_c, 0, 64, 105
1, 141842, Control_c, 0, 64, 107
1, 141844, Note_off_c, 0, 72, 62
1, 141857, Control_c, 0, 64, 107
1, 141887, Control_c, 0, 64, 108
1, 141890, Note_on_c, 0, 55, 45
1, 141916, Control_c, 0, 64, 108
1, 141931, Control_c, 0, 64, 109
1, 141945, Control_c, 0, 64, 109
1, 141960, Control_c, 0, 64, 110
1, 141975, Control_c, 0, 64, 111
1, 141982, Note_off_c, 0, 55, 63
1, 141990, Control_c, 0, 67, 10
1, 142005, Control_c, 0, 67, 18
1, 142020, Control_c, 0, 67, 29
1, 142035, Control_c, 0, 67, 46
1, 142049, Control_c, 0, 67, 60
1, 142060, Note_on_c, 0, 61, 46
1, 142064, Control_c, 0, 67, 73
1, 142079, Control_c, 0, 67, 85
1, 142094, Control_c, 0, 67, 95
1, 142109, Control_c, 0, 67, 105
1, 142124, Control_c, 0, 67, 114
1, 142138, Control_c, 0, 67, 122
1, 142153, Control_c, 0, 67, 127
1, 142204, Note_on_c, 0, 70, 70
1, 142225, Note_on_c, 0, 63, 49
1, 142229, Note_off_c, 0, 61, 32
1, 142339, Note_on_c, 0, 44, 28
1, 142354, Control_c, 0, 64, 110
1, 142368, Note_on_c, 0, 51, 28
1, 142368, Control_c, 0, 64, 109
1, 142383, Control_c, 0, 64, 105
1, 142386, Note_on_c, 0, 68, 67
1, 142398, Control_c, 0, 64, 99
1, 142413, Control_c, 0, 64, 89
1, 142427, Note_off_c, 0, 63, 54
1, 142428, Control_c, 0, 64, 77
1, 142432, Note_off_c, 0, 70, 55
1, 142443, Control_c, 0, 64, 62
1, 142458, Control_c, 0, 64, 0
1, 142517, Note_on_c, 0, 56, 46
1, 142636, Control_c, 0, 64, 57
1, 142643, Note_on_c, 0, 60, 43
1, 142650, Control_c, 0, 64, 67
1, 142665, Control_c, 0, 64, 73
1, 142680, Control_c, 0, 64, 79
1, 142695, Control_c, 0, 64, 86
1, 142710, Control_c, 0, 64, 91
1, 142724, Control_c, 0, 64, 94
1, 142739, Control_c, 0, 64, 96
1, 142754, Control_c, 0, 64, 98
1, 142768, Control_c, 0, 64, 99
1, 142783, Control_c, 0, 64, 100
1, 142798, Control_c, 0, 64, 100
1, 142850, Note_off_c, 0, 60, 55
1, 142865, Note_on_c, 0, 63, 55
1, 142894, Note_off_c, 0, 63, 57
1, 142902, Note_off_c, 0, 56, 34
1, 142932, Note_off_c, 0, 44, 39
1, 142954, Note_on_c, 0, 63, 43
1, 142954, Note_off_c, 0, 51, 35
1, 142982, Note_off_c, 0, 63, 56
1, 143129, Note_on_c, 0, 60, 38
1, 143254, Note_on_c, 0, 56, 46
1, 143350, Note_off_c, 0, 56, 58
1, 143390, Note_on_c, 0, 48, 69
1, 143433, Note_off_c, 0, 48, 64
1, 143518, Control_c, 0, 64, 100
1, 143533, Control_c, 0, 64, 96
1, 143548, Control_c, 0, 64, 86
1, 143549, Note_on_c, 0, 43, 44
1, 143552, Note_on_c, 0, 48, 56
1, 143563, Control_c, 0, 64, 72
1, 143574, Note_off_c, 0, 60, 31
1, 143578, Control_c, 0, 64, 0
1, 143652, Control_c, 0, 64, 64
1, 143666, Control_c, 0, 64, 69
1, 143681, Control_c, 0, 64, 75
1, 143696, Control_c, 0, 64, 80
1, 143710, Control_c, 0, 64, 83
1, 143725, Control_c, 0, 64, 86
1, 143740, Control_c, 0, 64, 87
1, 143755, Control_c, 0, 64, 89
1, 143778, Control_c, 0, 64, 91
1, 143792, Control_c, 0, 64, 92
1, 143807, Control_c, 0, 64, 93
1, 143822, Control_c, 0, 64, 94
1, 143825, Note_on_c, 0, 56, 47
1, 143837, Note_off_c, 0, 48, 57
1, 143868, Control_c, 0, 64, 95
1, 143905, Note_off_c, 0, 56, 57
1, 143960, Note_off_c, 0, 43, 39
1, 143989, Note_on_c, 0, 60, 33
1, 144065, Note_off_c, 0, 60, 46
1, 144076, Note_off_c, 0, 68, 54
1, 144098, Note_on_c, 0, 63, 57
1, 144284, Note_on_c, 0, 41, 36
1, 144297, Control_c, 0, 64, 94
1, 144301, Note_on_c, 0, 47, 43
1, 144312, Control_c, 0, 64, 94
1, 144327, Control_c, 0, 64, 93
1, 144341, Control_c, 0, 64, 91
1, 144356, Control_c, 0, 64, 88
1, 144371, Control_c, 0, 64, 83
1, 144386, Control_c, 0, 64, 73
1, 144397, Note_off_c, 0, 63, 22
1, 144401, Control_c, 0, 64, 60
1, 144404, Note_on_c, 0, 68, 63
1, 144415, Control_c, 0, 64, 0
1, 144489, Control_c, 0, 64, 60
1, 144504, Control_c, 0, 64, 69
1, 144527, Control_c, 0, 64, 75
1, 144541, Control_c, 0, 64, 81
1, 144556, Control_c, 0, 64, 85
1, 144571, Note_on_c, 0, 56, 46
1, 144571, Control_c, 0, 64, 86
1, 144586, Control_c, 0, 64, 87
1, 144601, Control_c, 0, 64, 88
1, 144615, Control_c, 0, 64, 89
1, 144624, Note_off_c, 0, 68, 39
1, 144630, Control_c, 0, 64, 90
1, 144646, Control_c, 0, 64, 90
1, 144705, Control_c, 0, 64, 91
1, 144728, Note_off_c, 0, 56, 30
1, 144729, Note_on_c, 0, 59, 49
1, 144843, Note_off_c, 0, 59, 54
1, 144870, Note_on_c, 0, 62, 55
1, 144986, Control_c, 0, 64, 90
1, 145001, Control_c, 0, 64, 88
1, 145003, Note_off_c, 0, 47, 43
1, 145016, Control_c, 0, 64, 85
1, 145024, Note_on_c, 0, 40, 39
1, 145024, Note_on_c, 0, 46, 47
1, 145031, Control_c, 0, 64, 76
1, 145035, Note_on_c, 0, 67, 65
1, 145036, Note_off_c, 0, 41, 35
1, 145045, Control_c, 0, 64, 65
1, 145049, Note_off_c, 0, 62, 52
1, 145060, Control_c, 0, 64, 0
1, 145133, Control_c, 0, 64, 59
1, 145148, Control_c, 0, 64, 69
1, 145162, Control_c, 0, 64, 75
1, 145177, Control_c, 0, 64, 81
1, 145187, Note_off_c, 0, 67, 61
1, 145192, Control_c, 0, 64, 84
1, 145207, Control_c, 0, 64, 86
1, 145222, Control_c, 0, 64, 87
1, 145229, Note_on_c, 0, 55, 55
1, 145236, Control_c, 0, 64, 89
1, 145251, Control_c, 0, 64, 90
1, 145274, Control_c, 0, 64, 91
1, 145288, Control_c, 0, 64, 92
1, 145385, Note_on_c, 0, 68, 69
1, 145394, Note_off_c, 0, 55, 36
1, 145403, Note_on_c, 0, 58, 54
1, 145428, Note_off_c, 0, 58, 58
1, 145525, Note_off_c, 0, 68, 59
1, 145567, Note_on_c, 0, 44, 40
1, 145584, Note_off_c, 0, 40, 40
1, 145644, Note_off_c, 0, 44, 51
1, 145646, Note_on_c, 0, 61, 57
1, 145668, Note_off_c, 0, 46, 34
1, 145867, Note_on_c, 0, 39, 37
1, 145868, Control_c, 0, 64, 91
1, 145872, Note_on_c, 0, 43, 36
1, 145883, Control_c, 0, 64, 90
1, 145898, Control_c, 0, 64, 89
1, 145912, Control_c, 0, 64, 84
1, 145927, Control_c, 0, 64, 75
1, 145942, Control_c, 0, 64, 62
1, 145946, Note_on_c, 0, 72, 72
1, 145957, Control_c, 0, 64, 0
1, 146023, Control_c, 0, 64, 45
1, 146038, Control_c, 0, 64, 67
1, 146053, Control_c, 0, 64, 75
1, 146068, Control_c, 0, 64, 82
1, 146083, Control_c, 0, 64, 86
1, 146098, Control_c, 0, 64, 87
1, 146106, Note_off_c, 0, 39, 40
1, 146123, Note_off_c, 0, 43, 40
1, 146127, Control_c, 0, 64, 88
1, 146142, Control_c, 0, 64, 89
1, 146157, Control_c, 0, 64, 90
1, 146172, Control_c, 0, 64, 91
1, 146201, Control_c, 0, 64, 91
1, 146273, Note_off_c, 0, 61, 46
1, 146276, Control_c, 0, 64, 92
1, 146305, Note_off_c, 0, 72, 57
1, 146306, Control_c, 0, 64, 92
1, 146335, Control_c, 0, 64, 93
1, 146338, Note_on_c, 0, 55, 45
1, 146350, Control_c, 0, 64, 93
1, 146365, Control_c, 0, 64, 94
1, 146395, Control_c, 0, 64, 95
1, 146409, Control_c, 0, 64, 95
1, 146439, Control_c, 0, 64, 96
1, 146611, Note_on_c, 0, 61, 44
1, 147191, Note_on_c, 0, 70, 59
1, 147209, Note_on_c, 0, 63, 45
1, 147350, Control_c, 0, 64, 95
1, 147352, Note_off_c, 0, 55, 50
1, 147409, Control_c, 0, 64, 95
1, 147427, Note_on_c, 0, 44, 30
1, 147431, Note_on_c, 0, 51, 21
1, 147454, Control_c, 0, 64, 94
1, 147469, Control_c, 0, 64, 94
1, 147483, Control_c, 0, 64, 93
1, 147498, Control_c, 0, 64, 92
1, 147520, Control_c, 0, 64, 90
1, 147522, Note_off_c, 0, 70, 56
1, 147522, Note_on_c, 0, 68, 57
1, 147535, Control_c, 0, 64, 87
1, 147550, Control_c, 0, 64, 83
1, 147555, Note_off_c, 0, 61, 39
1, 147564, Control_c, 0, 64, 76
1, 147579, Control_c, 0, 64, 67
1, 147594, Control_c, 0, 64, 43
1, 147609, Control_c, 0, 64, 0
1, 147713, Note_on_c, 0, 56, 37
1, 147817, Control_c, 0, 64, 44
1, 147832, Control_c, 0, 64, 64
1, 147847, Control_c, 0, 64, 69
1, 147860, Note_on_c, 0, 60, 33
1, 147862, Control_c, 0, 64, 73
1, 147877, Control_c, 0, 64, 77
1, 147892, Control_c, 0, 64, 81
1, 147907, Control_c, 0, 64, 83
1, 147922, Control_c, 0, 64, 84
1, 147936, Control_c, 0, 64, 85
1, 147951, Control_c, 0, 64, 86
1, 147965, Note_off_c, 0, 63, 39
1, 147966, Control_c, 0, 64, 87
1, 147980, Control_c, 0, 64, 88
1, 147995, Control_c, 0, 64, 88
1, 148040, Control_c, 0, 64, 89
1, 148155, Note_on_c, 0, 63, 50
1, 148190, Note_off_c, 0, 63, 49
1, 148202, Note_off_c, 0, 60, 38
1, 148285, Note_on_c, 0, 63, 44
1, 148365, Note_off_c, 0, 56, 36
1, 148447, Note_on_c, 0, 60, 40
1, 148460, Note_off_c, 0, 63, 27
1, 148513, Note_off_c, 0, 68, 37
1, 148554, Note_off_c, 0, 51, 39
1, 148584, Note_on_c, 0, 56, 43
1, 148692, Note_on_c, 0, 51, 45
1, 148776, Note_off_c, 0, 44, 38
1, 148776, Note_off_c, 0, 56, 35
1, 148784, Note_off_c, 0, 60, 34
1, 148813, Note_on_c, 0, 68, 66
1, 148836, Note_off_c, 0, 51, 36
1, 148923, Note_on_c, 0, 60, 50
1, 148989, Note_off_c, 0, 68, 59
1, 149052, Note_on_c, 0, 56, 48
1, 149104, Note_off_c, 0, 56, 53
1, 149107, Control_c, 0, 64, 89
1, 149142, Note_on_c, 0, 51, 59
1, 149190, Note_off_c, 0, 51, 58
1, 149259, Note_on_c, 0, 72, 77
1, 149264, Note_off_c, 0, 60, 34
1, 149278, Note_on_c, 0, 68, 62
1, 149344, Control_c, 0, 64, 90
1, 149388, Note_off_c, 0, 72, 62
1, 149391, Note_on_c, 0, 60, 65
1, 149448, Note_off_c, 0, 60, 57
1, 149493, Control_c, 0, 64, 90
1, 149506, Note_off_c, 0, 68, 61
1, 149508, Note_on_c, 0, 56, 55
1, 149511, Note_on_c, 0, 63, 51
1, 149582, Control_c, 0, 64, 91
1, 149625, Note_off_c, 0, 56, 53
1, 149633, Note_on_c, 0, 51, 59
1, 149672, Control_c, 0, 64, 91
1, 149690, Note_off_c, 0, 63, 40
1, 149706, Note_on_c, 0, 75, 80
1, 149722, Note_on_c, 0, 68, 67
1, 149731, Control_c, 0, 64, 92
1, 149746, Control_c, 0, 64, 92
1, 149761, Note_off_c, 0, 68, 62
1, 149766, Note_off_c, 0, 51, 55
1, 149777, Note_off_c, 0, 75, 64
1, 149783, Control_c, 0, 64, 93
1, 149813, Control_c, 0, 64, 93
1, 149857, Control_c, 0, 64, 94
1, 149871, Note_on_c, 0, 60, 69
1, 149901, Control_c, 0, 64, 94
1, 149997, Note_on_c, 0, 63, 68
1, 150005, Note_on_c, 0, 56, 59
1, 150101, Note_off_c, 0, 63, 60
1, 150144, Note_off_c, 0, 56, 34
1, 150151, Note_on_c, 0, 51, 68
1, 150154, Control_c, 0, 64, 95
1, 150168, Control_c, 0, 67, 113
1, 150181, Note_off_c, 0, 51, 66
1, 150183, Control_c, 0, 64, 95
1, 150183, Control_c, 0, 67, 75
1, 150198, Control_c, 0, 64, 96
1, 150198, Control_c, 0, 67, 29
1, 150213, Control_c, 0, 64, 97
1, 150213, Control_c, 0, 67, 0
1, 150229, Control_c, 0, 64, 98
1, 150244, Control_c, 0, 64, 99
1, 150258, Control_c, 0, 64, 100
1, 150273, Control_c, 0, 64, 100
1, 150288, Control_c, 0, 64, 101
1, 150303, Control_c, 0, 64, 101
1, 150318, Control_c, 0, 64, 102
1, 150347, Control_c, 0, 64, 102
1, 150391, Control_c, 0, 64, 103
1, 150406, Control_c, 0, 64, 103
1, 150436, Note_on_c, 0, 32, 75
1, 150437, Note_on_c, 0, 44, 76
1, 150480, Control_c, 0, 64, 104
1, 150487, Note_off_c, 0, 32, 61
1, 150495, Control_c, 0, 64, 104
1, 150517, Control_c, 0, 64, 105
1, 150536, Note_off_c, 0, 60, 61
1, 150539, Note_off_c, 0, 44, 62
1, 150562, Control_c, 0, 64, 105
1, 150606, Control_c, 0, 64, 106
1, 150621, Control_c, 0, 64, 107
1, 150636, Control_c, 0, 64, 107
1, 150651, Control_c, 0, 64, 108
1, 150665, Control_c, 0, 64, 109
1, 150680, Control_c, 0, 64, 110
1, 150695, Control_c, 0, 64, 111
1, 150709, Control_c, 0, 64, 112
1, 150724, Control_c, 0, 64, 113
1, 150739, Control_c, 0, 64, 114
1, 150754, Control_c, 0, 64, 115
1, 150769, Control_c, 0, 64, 117
1, 150783, Control_c, 0, 64, 118
1, 150798, Control_c, 0, 64, 119
1, 150813, Control_c, 0, 64, 121
1, 150828, Control_c, 0, 64, 122
1, 150843, Control_c, 0, 64, 125
1, 150858, Control_c, 0, 64, 127
1, 151466, Note_on_c, 0, 92, 93
1, 151472, Note_on_c, 0, 80, 83
1, 151477, Note_on_c, 0, 87, 80
1, 151478, Note_on_c, 0, 84, 80
1, 151488, Note_on_c, 0, 72, 65
1, 151492, Note_on_c, 0, 63, 60
1, 151494, Note_on_c, 0, 68, 67
1, 151496, Note_on_c, 0, 60, 53
1, 153952, Note_off_c, 0, 80, 53
1, 154054, Note_off_c, 0, 72, 33
1, 154057, Note_off_c, 0, 84, 43
1, 154123, Note_off_c, 0, 87, 52
1, 154141, Note_off_c, 0, 68, 36
1, 154256, Note_off_c, 0, 60, 36
1, 154279, Note_off_c, 0, 63, 59
1, 154296, Note_off_c, 0, 92, 62
1, 154528, Control_c, 0, 64, 126
1, 154543, Control_c, 0, 64, 121
1, 154557, Control_c, 0, 64, 117
1, 154572, Control_c, 0, 64, 113
1, 154587, Control_c, 0, 64, 109
1, 154602, Control_c, 0, 64, 105
1, 154617, Control_c, 0, 64, 102
1, 154632, Control_c, 0, 64, 99
1, 154647, Control_c, 0, 64, 97
1, 154662, Control_c, 0, 64, 93
1, 154676, Control_c, 0, 64, 88
1, 154691, Control_c, 0, 64, 79
1, 154706, Control_c, 0, 64, 71
1, 154721, Control_c, 0, 64, 63
1, 154736, Control_c, 0, 64, 41
1, 154750, Control_c, 0, 64, 18
1, 154765, Control_c, 0, 64, 27
1, 154780, Control_c, 0, 64, 28
1, 154795, Control_c, 0, 64, 27
1, 154810, Control_c, 0, 64, 26
1, 154839, Control_c, 0, 64, 28
1, 154854, Control_c, 0, 64, 32
1, 154868, Control_c, 0, 64, 33
1, 154883, Control_c, 0, 64, 31
1, 154913, Control_c, 0, 64, 32
1, 154928, Control_c, 0, 64, 34
1, 154943, Control_c, 0, 64, 39
1, 154957, Control_c, 0, 64, 43
1, 154972, Control_c, 0, 64, 46
1, 154987, Control_c, 0, 64, 47
1, 155010, Control_c, 0, 64, 48
1, 155025, Control_c, 0, 64, 48
1, 155040, Control_c, 0, 64, 49
1, 155055, Control_c, 0, 64, 49
1, 155863, Control_c, 0, 64, 49
1, 155923, Control_c, 0, 64, 48
1, 156626, Control_c, 0, 64, 49
1, 156671, Control_c, 0, 64, 49
1, 156745, Control_c, 0, 64, 50
1, 156790, Control_c, 0, 64, 50
1, 156849, Control_c, 0, 64, 51
1, 156923, Control_c, 0, 64, 52
1, 158360, Control_c, 0, 64, 52
1, 158404, Control_c, 0, 64, 53
1, 158671, Control_c, 0, 64, 53
1, 158715, Control_c, 0, 64, 54
1, 158826, Control_c, 0, 64, 54
1, 158841, Control_c, 0, 64, 55
1, 158856, Control_c, 0, 64, 56
1, 158871, Control_c, 0, 64, 56
1, 158886, Control_c, 0, 64, 57
1, 158900, Control_c, 0, 64, 57
1, 158915, Control_c, 0, 64, 58
1, 158930, Control_c, 0, 64, 59
1, 158945, Control_c, 0, 64, 60
1, 158960, Control_c, 0, 64, 61
1, 158975, Control_c, 0, 64, 62
1, 158989, Control_c, 0, 64, 62
1, 159050, Control_c, 0, 64, 63
1, 159109, Control_c, 0, 64, 63
1, 159271, Control_c, 0, 64, 64
1, 159301, Control_c, 0, 64, 63
1, 159450, Control_c, 0, 64, 63
1, 159591, Control_c, 0, 64, 62
1, 159768, Control_c, 0, 64, 62
1, 161133, Control_c, 0, 64, 61
1, 161355, Control_c, 0, 64, 62
1, 161460, Control_c, 0, 64, 62
1, 161548, Control_c, 0, 64, 62
1, 161593, Control_c, 0, 64, 61
1, 161607, Control_c, 0, 64, 60
1, 161622, Control_c, 0, 64, 60
1, 161711, Control_c, 0, 64, 59
1, 161763, Control_c, 0, 64, 59
1, 161793, Control_c, 0, 64, 58
1, 162089, Control_c, 0, 64, 58
1, 162224, Control_c, 0, 64, 58
1, 162327, Control_c, 0, 64, 58
1, 162357, Control_c, 0, 64, 57
1, 162371, Control_c, 0, 64, 56
1, 162386, Control_c, 0, 64, 55
1, 162401, Control_c, 0, 64, 53
1, 162416, Control_c, 0, 64, 51
1, 162430, Control_c, 0, 64, 48
1, 162445, Control_c, 0, 64, 45
1, 162460, Control_c, 0, 64, 40
1, 162475, Control_c, 0, 64, 36
1, 162497, Control_c, 0, 64, 32
1, 162512, Control_c, 0, 64, 26
1, 162527, Control_c, 0, 64, 14
1, 162542, Control_c, 0, 64, 0
1, 162542, End_track
0, 0, End_of_file
