0, 0, Header, 0, 1, 384
1, 0, Start_track
1, 0, Title_t, "Ballade No. 2--Reed Tetzloff    "
1, 0, Text_t, "2008 e-Piano Junior Competition recital round"
1, 0, Text_t, "recorded July 2008"
1, 0, Text_t, "http://www.piano-e-competition.com/"
1, 0, Text_t, "File processed for distribution by software from Zenph Studios, Inc., http://www.zenph.com"
1, 0, Instrument_name_t, "Yamaha Disklavier Pro Mark IV concert grand piano, model DCFIIISM4PRO"
1, 0, Sequencer_specific, 39, 67, 113, 0, 1, 0, 1, 0, 66, 97, 108, 108, 97, 100, 101, 32, 78, 111, 46, 32, 50, 32, 32, 32, 82, 101, 101, 100, 32, 84, 101, 116, 122, 108, 111, 102, 102, 32, 32, 32
1, 0, Sequencer_specific, 6, 67, 113, 0, 0, 0, 69
1, 0, System_exclusive, 21, 67, 113, 126, 21, 0, 2, 2, 0, 3, 14, 1, 4, 1, 13, 13, 10, 11, 9, 2, 7, 247
1, 0, Sequencer_specific, 5, 67, 123, 12, 2, 1
1, 0, Tempo, 512820
1, 0, Time_signature, 4, 2, 24, 8
1, 0, System_exclusive, 5, 126, 127, 9, 1, 247
1, 1, System_exclusive, 8, 67, 16, 76, 0, 0, 126, 0, 247
1, 2, System_exclusive, 8, 67, 16, 76, 8, 9, 7, 1, 247
1, 3, Control_c, 0, 0, 0
1, 3, Control_c, 1, 0, 0
1, 3, Control_c, 2, 0, 0
1, 3, Control_c, 3, 0, 0
1, 3, Control_c, 4, 0, 0
1, 3, Control_c, 5, 0, 0
1, 3, Control_c, 6, 0, 0
1, 3, Control_c, 7, 0, 0
1, 3, Control_c, 8, 0, 0
1, 3, Control_c, 9, 0, 127
1, 3, Control_c, 10, 0, 0
1, 3, Control_c, 11, 0, 0
1, 3, Control_c, 12, 0, 0
1, 3, Control_c, 13, 0, 0
1, 3, Control_c, 14, 0, 0
1, 3, Control_c, 15, 0, 0
1, 4, Control_c, 0, 32, 0
1, 4, Control_c, 1, 32, 0
1, 4, Control_c, 2, 32, 0
1, 4, Control_c, 3, 32, 0
1, 4, Control_c, 4, 32, 0
1, 4, Control_c, 5, 32, 0
1, 4, Control_c, 6, 32, 0
1, 4, Control_c, 7, 32, 0
1, 4, Control_c, 8, 32, 0
1, 4, Control_c, 9, 32, 0
1, 4, Control_c, 10, 32, 0
1, 4, Control_c, 11, 32, 0
1, 4, Control_c, 12, 32, 0
1, 4, Control_c, 13, 32, 0
1, 4, Control_c, 14, 32, 0
1, 4, Control_c, 15, 32, 0
1, 5, Program_c, 0, 0
1, 5, Program_c, 1, 0
1, 5, Program_c, 2, 0
1, 5, Program_c, 3, 0
1, 5, Program_c, 4, 0
1, 5, Program_c, 5, 0
1, 5, Program_c, 6, 0
1, 5, Program_c, 7, 0
1, 5, Program_c, 8, 0
1, 5, Program_c, 9, 0
1, 5, Program_c, 10, 0
1, 5, Program_c, 11, 0
1, 5, Program_c, 12, 0
1, 5, Program_c, 13, 0
1, 5, Program_c, 14, 0
1, 5, Program_c, 15, 0
1, 6, Control_c, 0, 7, 100
1, 6, Control_c, 1, 7, 100
1, 6, Control_c, 2, 7, 100
1, 6, Control_c, 3, 7, 100
1, 6, Control_c, 4, 7, 100
1, 6, Control_c, 5, 7, 100
1, 6, Control_c, 6, 7, 100
1, 6, Control_c, 7, 7, 100
1, 6, Control_c, 8, 7, 100
1, 6, Control_c, 9, 7, 100
1, 6, Control_c, 10, 7, 100
1, 6, Control_c, 11, 7, 100
1, 6, Control_c, 12, 7, 100
1, 6, Control_c, 13, 7, 100
1, 6, Control_c, 14, 7, 100
1, 6, Control_c, 15, 7, 100
1, 117, Control_c, 0, 64, 11
1, 229, Control_c, 0, 64, 23
1, 341, Control_c, 0, 64, 34
1, 452, Control_c, 0, 64, 46
1, 564, Control_c, 0, 64, 57
1, 676, Control_c, 0, 64, 69
1, 787, Control_c, 0, 64, 80
1, 899, Control_c, 0, 64, 93
1, 1135, Note_on_c, 0, 60, 27
1, 1135, Note_on_c, 0, 72, 41
1, 1143, Control_c, 0, 64, 94
1, 1158, Control_c, 0, 64, 94
1, 1188, Control_c, 0, 64, 95
1, 1203, Control_c, 0, 64, 95
1, 1217, Control_c, 0, 64, 96
1, 1232, Control_c, 0, 64, 96
1, 1268, Note_off_c, 0, 60, 35
1, 1277, Control_c, 0, 64, 97
1, 1281, Note_off_c, 0, 72, 34
1, 1451, Note_on_c, 0, 72, 47
1, 1459, Note_on_c, 0, 60, 30
1, 1544, Control_c, 0, 64, 96
1, 1588, Control_c, 0, 64, 96
1, 1618, Control_c, 0, 64, 95
1, 1626, Note_off_c, 0, 72, 63
1, 1653, Note_off_c, 0, 60, 27
1, 1677, Control_c, 0, 64, 95
1, 1737, Control_c, 0, 64, 94
1, 1863, Control_c, 0, 64, 94
1, 1990, Note_on_c, 0, 72, 53
1, 2005, Note_on_c, 0, 60, 28
1, 2011, Control_c, 0, 64, 93
1, 2075, Note_off_c, 0, 60, 45
1, 2085, Control_c, 0, 64, 93
1, 2092, Note_off_c, 0, 72, 57
1, 2145, Control_c, 0, 64, 92
1, 2204, Control_c, 0, 64, 92
1, 2249, Control_c, 0, 64, 91
1, 2268, Note_on_c, 0, 72, 56
1, 2285, Note_on_c, 0, 60, 37
1, 2322, Control_c, 0, 64, 91
1, 2421, Note_off_c, 0, 72, 62
1, 2437, Note_off_c, 0, 60, 44
1, 2470, Control_c, 0, 64, 90
1, 2568, Control_c, 0, 64, 90
1, 2656, Control_c, 0, 64, 89
1, 2731, Control_c, 0, 64, 89
1, 2775, Control_c, 0, 64, 88
1, 2817, Note_on_c, 0, 72, 60
1, 2819, Note_on_c, 0, 60, 41
1, 2819, Control_c, 0, 64, 88
1, 2878, Control_c, 0, 64, 87
1, 2923, Control_c, 0, 64, 87
1, 2930, Note_off_c, 0, 72, 53
1, 2932, Note_off_c, 0, 60, 36
1, 3012, Control_c, 0, 64, 86
1, 3086, Control_c, 0, 64, 86
1, 3125, Note_on_c, 0, 72, 65
1, 3143, Note_on_c, 0, 60, 29
1, 3175, Control_c, 0, 64, 85
1, 3263, Control_c, 0, 64, 85
1, 3350, Note_off_c, 0, 60, 29
1, 3372, Note_off_c, 0, 72, 57
1, 3539, Control_c, 0, 64, 84
1, 3745, Control_c, 0, 64, 84
1, 3908, Control_c, 0, 64, 83
1, 3921, Note_on_c, 0, 60, 26
1, 3923, Note_on_c, 0, 72, 56
1, 4049, Control_c, 0, 64, 83
1, 4106, Note_off_c, 0, 72, 56
1, 4117, Note_off_c, 0, 60, 24
1, 4243, Control_c, 0, 64, 82
1, 4316, Control_c, 0, 64, 81
1, 4331, Control_c, 0, 64, 80
1, 4346, Control_c, 0, 64, 76
1, 4349, Note_on_c, 0, 72, 60
1, 4361, Control_c, 0, 64, 71
1, 4368, Note_on_c, 0, 60, 25
1, 4368, Note_on_c, 0, 69, 41
1, 4371, Note_on_c, 0, 53, 32
1, 4375, Control_c, 0, 64, 63
1, 4390, Control_c, 0, 64, 0
1, 4569, Control_c, 0, 64, 53
1, 4583, Control_c, 0, 64, 64
1, 4598, Control_c, 0, 64, 67
1, 4613, Control_c, 0, 64, 69
1, 4628, Control_c, 0, 64, 73
1, 4643, Control_c, 0, 64, 77
1, 4657, Control_c, 0, 64, 79
1, 4672, Control_c, 0, 64, 80
1, 4683, Note_off_c, 0, 60, 38
1, 4687, Control_c, 0, 64, 81
1, 4688, Note_off_c, 0, 53, 42
1, 4702, Control_c, 0, 64, 81
1, 4716, Note_off_c, 0, 69, 35
1, 4724, Note_off_c, 0, 72, 56
1, 4890, Note_on_c, 0, 72, 69
1, 4902, Control_c, 0, 64, 81
1, 4912, Note_on_c, 0, 69, 46
1, 4914, Note_on_c, 0, 53, 31
1, 4916, Note_on_c, 0, 60, 30
1, 4918, Control_c, 0, 64, 80
1, 5032, Note_off_c, 0, 53, 39
1, 5042, Note_off_c, 0, 60, 36
1, 5043, Note_off_c, 0, 69, 39
1, 5071, Note_off_c, 0, 72, 51
1, 5185, Control_c, 0, 64, 80
1, 5200, Control_c, 0, 64, 79
1, 5206, Note_on_c, 0, 72, 63
1, 5214, Note_on_c, 0, 70, 63
1, 5214, Control_c, 0, 64, 72
1, 5229, Control_c, 0, 64, 61
1, 5232, Note_on_c, 0, 53, 30
1, 5233, Note_on_c, 0, 60, 29
1, 5244, Control_c, 0, 64, 0
1, 5377, Control_c, 0, 64, 47
1, 5392, Control_c, 0, 64, 62
1, 5406, Control_c, 0, 64, 66
1, 5421, Control_c, 0, 64, 68
1, 5436, Control_c, 0, 64, 71
1, 5440, Note_off_c, 0, 53, 56
1, 5450, Control_c, 0, 64, 75
1, 5465, Control_c, 0, 64, 77
1, 5477, Note_off_c, 0, 60, 40
1, 5480, Control_c, 0, 64, 78
1, 5495, Control_c, 0, 64, 78
1, 5502, Note_off_c, 0, 70, 57
1, 5507, Note_off_c, 0, 72, 54
1, 5510, Control_c, 0, 64, 79
1, 5547, Control_c, 0, 64, 79
1, 5577, Control_c, 0, 64, 80
1, 5607, Control_c, 0, 64, 80
1, 5736, Note_on_c, 0, 72, 72
1, 5744, Note_on_c, 0, 70, 62
1, 5761, Note_on_c, 0, 53, 40
1, 5762, Note_on_c, 0, 60, 32
1, 5825, Note_off_c, 0, 70, 53
1, 5828, Note_off_c, 0, 60, 38
1, 5854, Note_off_c, 0, 53, 38
1, 5906, Note_off_c, 0, 72, 54
1, 6081, Control_c, 0, 64, 80
1, 6096, Note_on_c, 0, 53, 36
1, 6096, Control_c, 0, 64, 78
1, 6111, Control_c, 0, 64, 74
1, 6126, Control_c, 0, 64, 67
1, 6130, Note_on_c, 0, 60, 32
1, 6141, Control_c, 0, 64, 0
1, 6160, Note_on_c, 0, 76, 74
1, 6173, Note_on_c, 0, 70, 53
1, 6311, Control_c, 0, 64, 42
1, 6326, Control_c, 0, 64, 64
1, 6341, Control_c, 0, 64, 68
1, 6351, Note_off_c, 0, 70, 53
1, 6356, Control_c, 0, 64, 71
1, 6370, Control_c, 0, 64, 74
1, 6374, Note_off_c, 0, 53, 50
1, 6385, Control_c, 0, 64, 76
1, 6395, Note_off_c, 0, 60, 49
1, 6400, Control_c, 0, 64, 78
1, 6414, Control_c, 0, 64, 79
1, 6429, Control_c, 0, 64, 80
1, 6459, Control_c, 0, 64, 80
1, 6513, Note_on_c, 0, 74, 71
1, 6535, Note_off_c, 0, 76, 58
1, 6593, Control_c, 0, 64, 79
1, 6608, Control_c, 0, 64, 77
1, 6623, Control_c, 0, 64, 71
1, 6636, Note_on_c, 0, 72, 73
1, 6638, Control_c, 0, 64, 55
1, 6652, Control_c, 0, 64, 0
1, 6655, Note_off_c, 0, 74, 58
1, 6656, Note_on_c, 0, 70, 57
1, 6666, Note_on_c, 0, 53, 36
1, 6675, Note_on_c, 0, 60, 30
1, 6756, Control_c, 0, 64, 22
1, 6757, Note_off_c, 0, 70, 30
1, 6771, Control_c, 0, 64, 64
1, 6786, Control_c, 0, 64, 70
1, 6801, Control_c, 0, 64, 74
1, 6816, Control_c, 0, 64, 76
1, 6822, Note_off_c, 0, 53, 41
1, 6830, Control_c, 0, 64, 77
1, 6845, Control_c, 0, 64, 78
1, 6862, Note_off_c, 0, 60, 34
1, 6875, Control_c, 0, 64, 78
1, 6949, Control_c, 0, 64, 77
1, 6962, Note_on_c, 0, 77, 74
1, 6964, Control_c, 0, 64, 75
1, 6975, Note_on_c, 0, 69, 53
1, 6978, Control_c, 0, 64, 68
1, 6979, Note_on_c, 0, 53, 34
1, 6986, Note_off_c, 0, 72, 61
1, 6993, Control_c, 0, 64, 35
1, 7008, Control_c, 0, 64, 0
1, 7012, Note_on_c, 0, 60, 33
1, 7149, Control_c, 0, 64, 62
1, 7164, Control_c, 0, 64, 67
1, 7178, Control_c, 0, 64, 71
1, 7193, Control_c, 0, 64, 75
1, 7208, Control_c, 0, 64, 78
1, 7212, Note_off_c, 0, 77, 57
1, 7222, Control_c, 0, 64, 80
1, 7237, Control_c, 0, 64, 81
1, 7245, Note_off_c, 0, 60, 36
1, 7252, Control_c, 0, 64, 82
1, 7263, Note_off_c, 0, 53, 39
1, 7267, Control_c, 0, 64, 83
1, 7282, Control_c, 0, 64, 84
1, 7298, Control_c, 0, 64, 84
1, 7313, Control_c, 0, 64, 85
1, 7342, Control_c, 0, 64, 85
1, 7475, Control_c, 0, 64, 84
1, 7490, Control_c, 0, 64, 82
1, 7502, Note_on_c, 0, 74, 65
1, 7505, Control_c, 0, 64, 75
1, 7506, Note_on_c, 0, 58, 42
1, 7520, Control_c, 0, 64, 60
1, 7521, Note_on_c, 0, 65, 44
1, 7534, Control_c, 0, 64, 0
1, 7544, Note_off_c, 0, 69, 42
1, 7623, Control_c, 0, 64, 60
1, 7638, Control_c, 0, 64, 65
1, 7653, Control_c, 0, 64, 68
1, 7668, Control_c, 0, 64, 70
1, 7678, Note_off_c, 0, 65, 40
1, 7683, Control_c, 0, 64, 72
1, 7698, Control_c, 0, 64, 74
1, 7713, Control_c, 0, 64, 75
1, 7762, Note_off_c, 0, 58, 42
1, 7792, Note_on_c, 0, 57, 42
1, 7793, Note_on_c, 0, 72, 66
1, 7794, Control_c, 0, 64, 73
1, 7796, Note_off_c, 0, 74, 53
1, 7808, Control_c, 0, 64, 68
1, 7814, Note_on_c, 0, 65, 46
1, 7823, Control_c, 0, 64, 44
1, 7838, Control_c, 0, 64, 0
1, 7942, Control_c, 0, 64, 60
1, 7957, Control_c, 0, 64, 67
1, 7972, Control_c, 0, 64, 71
1, 7987, Control_c, 0, 64, 74
1, 7995, Note_off_c, 0, 72, 62
1, 8001, Control_c, 0, 64, 76
1, 8016, Control_c, 0, 64, 77
1, 8031, Control_c, 0, 64, 78
1, 8046, Control_c, 0, 64, 79
1, 8060, Control_c, 0, 64, 79
1, 8075, Control_c, 0, 64, 80
1, 8088, Note_off_c, 0, 65, 41
1, 8097, Note_off_c, 0, 57, 22
1, 8106, Control_c, 0, 64, 80
1, 8150, Control_c, 0, 64, 81
1, 8269, Control_c, 0, 64, 80
1, 8283, Control_c, 0, 64, 78
1, 8298, Control_c, 0, 64, 71
1, 8305, Note_on_c, 0, 69, 60
1, 8313, Control_c, 0, 64, 49
1, 8323, Note_on_c, 0, 48, 38
1, 8326, Note_on_c, 0, 64, 42
1, 8328, Control_c, 0, 64, 0
1, 8329, Note_on_c, 0, 57, 31
1, 8402, Control_c, 0, 64, 53
1, 8417, Control_c, 0, 64, 65
1, 8431, Control_c, 0, 64, 68
1, 8446, Control_c, 0, 64, 71
1, 8461, Control_c, 0, 64, 74
1, 8466, Note_off_c, 0, 57, 24
1, 8476, Control_c, 0, 64, 76
1, 8483, Note_off_c, 0, 64, 35
1, 8491, Control_c, 0, 64, 76
1, 8501, Note_off_c, 0, 48, 40
1, 8561, Note_off_c, 0, 69, 33
1, 8587, Control_c, 0, 64, 76
1, 8596, Note_on_c, 0, 65, 60
1, 8602, Control_c, 0, 64, 74
1, 8607, Note_on_c, 0, 57, 20
1, 8610, Note_on_c, 0, 60, 46
1, 8615, Note_on_c, 0, 50, 38
1, 8617, Control_c, 0, 64, 68
1, 8631, Control_c, 0, 64, 33
1, 8646, Control_c, 0, 64, 0
1, 8750, Control_c, 0, 64, 61
1, 8765, Control_c, 0, 64, 66
1, 8780, Control_c, 0, 64, 68
1, 8795, Control_c, 0, 64, 71
1, 8803, Note_off_c, 0, 60, 50
1, 8809, Control_c, 0, 64, 73
1, 8823, Note_off_c, 0, 50, 46
1, 8824, Control_c, 0, 64, 76
1, 8839, Control_c, 0, 64, 77
1, 8854, Control_c, 0, 64, 78
1, 8869, Control_c, 0, 64, 79
1, 8883, Control_c, 0, 64, 80
1, 8899, Control_c, 0, 64, 80
1, 8914, Control_c, 0, 64, 81
1, 8944, Control_c, 0, 64, 81
1, 8948, Note_off_c, 0, 65, 30
1, 8959, Control_c, 0, 64, 82
1, 8972, Note_off_c, 0, 57, 27
1, 8988, Control_c, 0, 64, 82
1, 9033, Control_c, 0, 64, 83
1, 9121, Control_c, 0, 64, 82
1, 9149, Note_on_c, 0, 67, 66
1, 9151, Control_c, 0, 64, 80
1, 9166, Control_c, 0, 64, 75
1, 9168, Note_on_c, 0, 65, 50
1, 9180, Control_c, 0, 64, 64
1, 9181, Note_on_c, 0, 58, 39
1, 9182, Note_on_c, 0, 50, 22
1, 9184, Note_on_c, 0, 43, 30
1, 9195, Control_c, 0, 64, 0
1, 9255, Note_off_c, 0, 58, 0
1, 9277, Control_c, 0, 64, 58
1, 9292, Control_c, 0, 64, 65
1, 9299, Poly_aftertouch_c, 0, 58, 127
1, 9306, Control_c, 0, 64, 68
1, 9321, Control_c, 0, 64, 71
1, 9336, Control_c, 0, 64, 74
1, 9351, Control_c, 0, 64, 77
1, 9366, Control_c, 0, 64, 78
1, 9379, Note_off_c, 0, 67, 37
1, 9380, Control_c, 0, 64, 79
1, 9395, Control_c, 0, 64, 79
1, 9415, Poly_aftertouch_c, 0, 58, 0
1, 9425, Control_c, 0, 64, 80
1, 9469, Note_off_c, 0, 65, 39
1, 9471, Note_off_c, 0, 43, 32
1, 9482, Note_off_c, 0, 50, 21
1, 9484, Control_c, 0, 64, 79
1, 9504, Note_on_c, 0, 67, 66
1, 9513, Control_c, 0, 64, 77
1, 9524, Note_on_c, 0, 58, 40
1, 9525, Note_on_c, 0, 48, 39
1, 9528, Control_c, 0, 64, 72
1, 9529, Note_on_c, 0, 64, 39
1, 9543, Control_c, 0, 64, 62
1, 9558, Control_c, 0, 64, 0
1, 9722, Control_c, 0, 64, 49
1, 9737, Control_c, 0, 64, 64
1, 9752, Control_c, 0, 64, 67
1, 9767, Control_c, 0, 64, 70
1, 9782, Control_c, 0, 64, 73
1, 9796, Control_c, 0, 64, 76
1, 9811, Control_c, 0, 64, 78
1, 9812, Note_off_c, 0, 64, 42
1, 9826, Control_c, 0, 64, 78
1, 9840, Note_off_c, 0, 48, 44
1, 9841, Control_c, 0, 64, 79
1, 9855, Control_c, 0, 64, 79
1, 9870, Control_c, 0, 64, 80
1, 9885, Control_c, 0, 64, 80
1, 9900, Control_c, 0, 64, 81
1, 9915, Control_c, 0, 64, 81
1, 9937, Note_off_c, 0, 58, 30
1, 9944, Control_c, 0, 64, 82
1, 10115, Control_c, 0, 64, 81
1, 10124, Note_on_c, 0, 58, 31
1, 10129, Control_c, 0, 64, 79
1, 10135, Note_on_c, 0, 62, 40
1, 10144, Note_on_c, 0, 48, 40
1, 10144, Control_c, 0, 64, 74
1, 10159, Control_c, 0, 64, 64
1, 10174, Control_c, 0, 64, 0
1, 10262, Control_c, 0, 64, 52
1, 10277, Control_c, 0, 64, 65
1, 10292, Control_c, 0, 64, 69
1, 10307, Control_c, 0, 64, 72
1, 10318, Note_off_c, 0, 67, 54
1, 10321, Control_c, 0, 64, 75
1, 10336, Control_c, 0, 64, 77
1, 10351, Control_c, 0, 64, 78
1, 10366, Control_c, 0, 64, 78
1, 10369, Note_off_c, 0, 58, 51
1, 10381, Control_c, 0, 64, 79
1, 10394, Control_c, 0, 64, 79
1, 10439, Control_c, 0, 64, 80
1, 10633, Note_off_c, 0, 48, 36
1, 10647, Control_c, 0, 64, 79
1, 10662, Control_c, 0, 64, 76
1, 10670, Note_on_c, 0, 69, 54
1, 10676, Control_c, 0, 64, 70
1, 10691, Control_c, 0, 64, 56
1, 10692, Note_on_c, 0, 41, 30
1, 10692, Note_on_c, 0, 60, 34
1, 10698, Note_on_c, 0, 53, 18
1, 10706, Control_c, 0, 64, 0
1, 10724, Note_off_c, 0, 62, 37
1, 10891, Control_c, 0, 64, 54
1, 10906, Control_c, 0, 64, 65
1, 10921, Control_c, 0, 64, 68
1, 10936, Control_c, 0, 64, 70
1, 10950, Control_c, 0, 64, 74
1, 10965, Control_c, 0, 64, 77
1, 10976, Note_off_c, 0, 69, 59
1, 10978, Note_off_c, 0, 41, 51
1, 10980, Control_c, 0, 64, 79
1, 10995, Control_c, 0, 64, 80
1, 11010, Control_c, 0, 64, 81
1, 11025, Control_c, 0, 64, 81
1, 11040, Control_c, 0, 64, 82
1, 11054, Control_c, 0, 64, 83
1, 11069, Control_c, 0, 64, 84
1, 11076, Note_off_c, 0, 53, 39
1, 11095, Note_off_c, 0, 60, 32
1, 11099, Control_c, 0, 64, 84
1, 11242, Note_on_c, 0, 70, 63
1, 11248, Control_c, 0, 64, 82
1, 11258, Note_on_c, 0, 62, 45
1, 11260, Note_on_c, 0, 46, 40
1, 11263, Control_c, 0, 64, 78
1, 11275, Note_on_c, 0, 53, 25
1, 11277, Control_c, 0, 64, 69
1, 11293, Control_c, 0, 64, 0
1, 11353, Control_c, 0, 64, 38
1, 11367, Control_c, 0, 64, 64
1, 11382, Control_c, 0, 64, 69
1, 11397, Control_c, 0, 64, 72
1, 11408, Note_off_c, 0, 70, 63
1, 11412, Control_c, 0, 64, 74
1, 11416, Note_off_c, 0, 53, 40
1, 11427, Control_c, 0, 64, 75
1, 11441, Control_c, 0, 64, 76
1, 11448, Note_off_c, 0, 46, 38
1, 11456, Control_c, 0, 64, 76
1, 11471, Control_c, 0, 64, 77
1, 11522, Control_c, 0, 64, 76
1, 11545, Note_on_c, 0, 69, 61
1, 11552, Note_on_c, 0, 48, 38
1, 11552, Control_c, 0, 64, 75
1, 11564, Note_on_c, 0, 60, 40
1, 11567, Control_c, 0, 64, 70
1, 11572, Note_on_c, 0, 53, 28
1, 11573, Note_off_c, 0, 62, 35
1, 11582, Control_c, 0, 64, 59
1, 11597, Control_c, 0, 64, 0
1, 11715, Control_c, 0, 64, 25
1, 11730, Control_c, 0, 64, 63
1, 11745, Control_c, 0, 64, 67
1, 11760, Control_c, 0, 64, 70
1, 11774, Control_c, 0, 64, 73
1, 11783, Note_off_c, 0, 48, 46
1, 11789, Control_c, 0, 64, 75
1, 11804, Control_c, 0, 64, 77
1, 11818, Control_c, 0, 64, 78
1, 11833, Control_c, 0, 64, 79
1, 11848, Note_off_c, 0, 60, 37
1, 11848, Control_c, 0, 64, 80
1, 11863, Control_c, 0, 64, 81
1, 11864, Note_off_c, 0, 53, 35
1, 11878, Control_c, 0, 64, 82
1, 11892, Control_c, 0, 64, 82
1, 11907, Control_c, 0, 64, 83
1, 11922, Control_c, 0, 64, 83
1, 11937, Control_c, 0, 64, 84
1, 12041, Control_c, 0, 64, 83
1, 12056, Control_c, 0, 64, 83
1, 12069, Note_on_c, 0, 65, 56
1, 12071, Control_c, 0, 64, 80
1, 12082, Note_on_c, 0, 46, 38
1, 12083, Note_on_c, 0, 62, 41
1, 12086, Control_c, 0, 64, 74
1, 12101, Control_c, 0, 64, 52
1, 12104, Note_on_c, 0, 53, 13
1, 12110, Note_off_c, 0, 69, 33
1, 12116, Control_c, 0, 64, 0
1, 12190, Control_c, 0, 64, 28
1, 12205, Control_c, 0, 64, 61
1, 12220, Control_c, 0, 64, 65
1, 12223, Note_off_c, 0, 62, 59
1, 12235, Control_c, 0, 64, 67
1, 12244, Note_off_c, 0, 53, 37
1, 12249, Control_c, 0, 64, 69
1, 12271, Control_c, 0, 64, 70
1, 12286, Control_c, 0, 64, 72
1, 12301, Control_c, 0, 64, 73
1, 12302, Note_off_c, 0, 46, 37
1, 12340, Note_off_c, 0, 65, 61
1, 12355, Note_on_c, 0, 69, 59
1, 12360, Control_c, 0, 64, 72
1, 12365, Note_on_c, 0, 53, 29
1, 12372, Note_on_c, 0, 60, 39
1, 12375, Control_c, 0, 64, 70
1, 12385, Note_on_c, 0, 48, 27
1, 12390, Control_c, 0, 64, 60
1, 12405, Control_c, 0, 64, 0
1, 12523, Control_c, 0, 64, 56
1, 12538, Control_c, 0, 64, 66
1, 12542, Note_off_c, 0, 69, 63
1, 12553, Control_c, 0, 64, 70
1, 12568, Control_c, 0, 64, 73
1, 12582, Note_off_c, 0, 60, 57
1, 12583, Control_c, 0, 64, 76
1, 12597, Control_c, 0, 64, 77
1, 12604, Note_off_c, 0, 53, 42
1, 12608, Note_off_c, 0, 48, 40
1, 12612, Control_c, 0, 64, 78
1, 12627, Control_c, 0, 64, 79
1, 12641, Control_c, 0, 64, 80
1, 12656, Control_c, 0, 64, 80
1, 12671, Control_c, 0, 64, 81
1, 12701, Control_c, 0, 64, 81
1, 12730, Control_c, 0, 64, 82
1, 12876, Note_on_c, 0, 70, 63
1, 12879, Control_c, 0, 64, 80
1, 12891, Note_on_c, 0, 58, 48
1, 12894, Control_c, 0, 64, 74
1, 12898, Note_on_c, 0, 53, 34
1, 12909, Control_c, 0, 64, 60
1, 12911, Note_on_c, 0, 50, 20
1, 12924, Control_c, 0, 64, 0
1, 12998, Control_c, 0, 64, 62
1, 13020, Control_c, 0, 64, 67
1, 13035, Control_c, 0, 64, 70
1, 13046, Note_off_c, 0, 53, 23
1, 13050, Control_c, 0, 64, 72
1, 13064, Note_off_c, 0, 58, 60
1, 13065, Control_c, 0, 64, 73
1, 13078, Note_off_c, 0, 70, 62
1, 13079, Control_c, 0, 64, 74
1, 13153, Note_off_c, 0, 50, 36
1, 13170, Note_on_c, 0, 69, 58
1, 13183, Control_c, 0, 64, 74
1, 13184, Note_on_c, 0, 48, 38
1, 13185, Note_on_c, 0, 60, 40
1, 13198, Control_c, 0, 64, 72
1, 13201, Note_on_c, 0, 53, 24
1, 13213, Control_c, 0, 64, 66
1, 13228, Control_c, 0, 64, 32
1, 13242, Control_c, 0, 64, 0
1, 13390, Control_c, 0, 64, 59
1, 13405, Control_c, 0, 64, 67
1, 13420, Control_c, 0, 64, 71
1, 13435, Control_c, 0, 64, 74
1, 13447, Note_off_c, 0, 48, 46
1, 13450, Control_c, 0, 64, 75
1, 13464, Control_c, 0, 64, 76
1, 13479, Control_c, 0, 64, 77
1, 13494, Control_c, 0, 64, 78
1, 13496, Note_off_c, 0, 53, 41
1, 13509, Control_c, 0, 64, 79
1, 13524, Control_c, 0, 64, 79
1, 13538, Control_c, 0, 64, 80
1, 13581, Note_on_c, 0, 67, 54
1, 13633, Note_off_c, 0, 60, 33
1, 13672, Control_c, 0, 64, 79
1, 13687, Control_c, 0, 64, 78
1, 13702, Note_off_c, 0, 67, 53
1, 13702, Control_c, 0, 64, 74
1, 13709, Note_off_c, 0, 69, 38
1, 13713, Note_on_c, 0, 65, 54
1, 13716, Note_on_c, 0, 46, 39
1, 13717, Control_c, 0, 64, 64
1, 13732, Control_c, 0, 64, 0
1, 13734, Note_on_c, 0, 62, 35
1, 13739, Note_on_c, 0, 53, 24
1, 13843, Control_c, 0, 64, 59
1, 13858, Control_c, 0, 64, 68
1, 13873, Control_c, 0, 64, 73
1, 13876, Note_off_c, 0, 53, 33
1, 13888, Control_c, 0, 64, 76
1, 13889, Note_off_c, 0, 62, 52
1, 13902, Control_c, 0, 64, 78
1, 13917, Control_c, 0, 64, 79
1, 13931, Note_off_c, 0, 46, 39
1, 13932, Control_c, 0, 64, 79
1, 13947, Control_c, 0, 64, 80
1, 13995, Note_off_c, 0, 65, 59
1, 14017, Note_on_c, 0, 60, 39
1, 14017, Note_on_c, 0, 69, 58
1, 14026, Note_on_c, 0, 53, 19
1, 14029, Note_on_c, 0, 48, 36
1, 14050, Control_c, 0, 64, 78
1, 14065, Control_c, 0, 64, 73
1, 14080, Control_c, 0, 64, 64
1, 14095, Control_c, 0, 64, 0
1, 14183, Control_c, 0, 64, 52
1, 14198, Control_c, 0, 64, 66
1, 14209, Note_off_c, 0, 69, 62
1, 14212, Control_c, 0, 64, 70
1, 14227, Control_c, 0, 64, 73
1, 14242, Control_c, 0, 64, 76
1, 14247, Note_off_c, 0, 48, 43
1, 14257, Control_c, 0, 64, 78
1, 14261, Note_off_c, 0, 53, 42
1, 14269, Note_off_c, 0, 60, 37
1, 14272, Control_c, 0, 64, 79
1, 14286, Control_c, 0, 64, 80
1, 14301, Control_c, 0, 64, 81
1, 14316, Control_c, 0, 64, 82
1, 14331, Control_c, 0, 64, 82
1, 14346, Control_c, 0, 64, 83
1, 14360, Control_c, 0, 64, 84
1, 14375, Control_c, 0, 64, 84
1, 14405, Control_c, 0, 64, 85
1, 14517, Control_c, 0, 64, 84
1, 14532, Control_c, 0, 64, 82
1, 14547, Control_c, 0, 64, 77
1, 14554, Note_on_c, 0, 70, 62
1, 14562, Control_c, 0, 64, 69
1, 14566, Note_on_c, 0, 53, 36
1, 14566, Note_on_c, 0, 58, 44
1, 14571, Note_on_c, 0, 50, 29
1, 14577, Control_c, 0, 64, 21
1, 14591, Control_c, 0, 64, 0
1, 14650, Control_c, 0, 64, 43
1, 14652, Note_off_c, 0, 53, 32
1, 14665, Control_c, 0, 64, 64
1, 14680, Control_c, 0, 64, 69
1, 14695, Control_c, 0, 64, 73
1, 14710, Control_c, 0, 64, 76
1, 14724, Note_off_c, 0, 58, 64
1, 14724, Control_c, 0, 64, 79
1, 14739, Control_c, 0, 64, 80
1, 14742, Note_off_c, 0, 70, 62
1, 14754, Control_c, 0, 64, 80
1, 14769, Control_c, 0, 64, 81
1, 14816, Note_off_c, 0, 50, 38
1, 14858, Note_on_c, 0, 53, 24
1, 14858, Note_on_c, 0, 69, 58
1, 14863, Note_on_c, 0, 48, 36
1, 14870, Note_on_c, 0, 60, 42
1, 14873, Control_c, 0, 64, 80
1, 14888, Control_c, 0, 64, 78
1, 14903, Control_c, 0, 64, 74
1, 14918, Control_c, 0, 64, 65
1, 14933, Control_c, 0, 64, 0
1, 15037, Control_c, 0, 64, 52
1, 15051, Control_c, 0, 64, 66
1, 15066, Control_c, 0, 64, 72
1, 15081, Control_c, 0, 64, 76
1, 15085, Note_off_c, 0, 48, 40
1, 15096, Control_c, 0, 64, 78
1, 15110, Control_c, 0, 64, 79
1, 15125, Control_c, 0, 64, 79
1, 15140, Control_c, 0, 64, 80
1, 15155, Control_c, 0, 64, 81
1, 15165, Note_off_c, 0, 53, 43
1, 15169, Control_c, 0, 64, 82
1, 15199, Control_c, 0, 64, 82
1, 15266, Control_c, 0, 64, 83
1, 15281, Note_on_c, 0, 67, 58
1, 15347, Note_off_c, 0, 60, 35
1, 15386, Control_c, 0, 64, 82
1, 15395, Note_off_c, 0, 69, 22
1, 15401, Control_c, 0, 64, 81
1, 15415, Control_c, 0, 64, 78
1, 15421, Note_off_c, 0, 67, 55
1, 15426, Note_on_c, 0, 65, 65
1, 15430, Control_c, 0, 64, 71
1, 15445, Control_c, 0, 64, 35
1, 15454, Note_on_c, 0, 48, 32
1, 15454, Note_on_c, 0, 57, 34
1, 15460, Control_c, 0, 64, 0
1, 15473, Note_on_c, 0, 60, 18
1, 15563, Control_c, 0, 64, 56
1, 15578, Control_c, 0, 64, 66
1, 15593, Control_c, 0, 64, 70
1, 15608, Control_c, 0, 64, 74
1, 15616, Note_off_c, 0, 57, 56
1, 15622, Control_c, 0, 64, 76
1, 15637, Control_c, 0, 64, 78
1, 15642, Note_off_c, 0, 48, 39
1, 15652, Control_c, 0, 64, 79
1, 15666, Control_c, 0, 64, 80
1, 15681, Control_c, 0, 64, 82
1, 15696, Control_c, 0, 64, 83
1, 15711, Control_c, 0, 64, 83
1, 15723, Note_off_c, 0, 65, 58
1, 15726, Control_c, 0, 64, 84
1, 15740, Control_c, 0, 64, 84
1, 15770, Control_c, 0, 64, 85
1, 15788, Note_off_c, 0, 60, 23
1, 15815, Control_c, 0, 64, 85
1, 15934, Control_c, 0, 64, 85
1, 15948, Control_c, 0, 64, 83
1, 15958, Note_on_c, 0, 67, 68
1, 15963, Control_c, 0, 64, 79
1, 15967, Note_on_c, 0, 58, 39
1, 15976, Note_on_c, 0, 62, 47
1, 15978, Control_c, 0, 64, 72
1, 15981, Note_on_c, 0, 48, 35
1, 15992, Control_c, 0, 64, 63
1, 16015, Control_c, 0, 64, 0
1, 16268, Control_c, 0, 64, 56
1, 16283, Control_c, 0, 64, 65
1, 16297, Control_c, 0, 64, 68
1, 16312, Control_c, 0, 64, 72
1, 16327, Control_c, 0, 64, 75
1, 16342, Control_c, 0, 64, 78
1, 16349, Note_off_c, 0, 48, 42
1, 16356, Note_off_c, 0, 58, 49
1, 16357, Control_c, 0, 64, 80
1, 16371, Control_c, 0, 64, 80
1, 16386, Control_c, 0, 64, 81
1, 16401, Control_c, 0, 64, 81
1, 16412, Note_off_c, 0, 62, 52
1, 16415, Control_c, 0, 64, 82
1, 16445, Control_c, 0, 64, 82
1, 16593, Control_c, 0, 64, 82
1, 16608, Control_c, 0, 64, 80
1, 16623, Control_c, 0, 64, 75
1, 16623, Note_on_c, 0, 64, 36
1, 16638, Control_c, 0, 64, 66
1, 16647, Note_on_c, 0, 60, 17
1, 16652, Note_on_c, 0, 58, 9
1, 16653, Control_c, 0, 64, 0
1, 16659, Note_on_c, 0, 48, 20
1, 16778, Control_c, 0, 64, 58
1, 16793, Control_c, 0, 64, 66
1, 16808, Control_c, 0, 64, 69
1, 16822, Control_c, 0, 64, 72
1, 16834, Note_off_c, 0, 64, 42
1, 16837, Control_c, 0, 64, 74
1, 16852, Control_c, 0, 64, 75
1, 16860, Note_off_c, 0, 60, 16
1, 16867, Control_c, 0, 64, 76
1, 16882, Note_off_c, 0, 58, 40
1, 16882, Control_c, 0, 64, 77
1, 16912, Control_c, 0, 64, 78
1, 16957, Control_c, 0, 64, 78
1, 17106, Control_c, 0, 64, 77
1, 17108, Note_off_c, 0, 67, 51
1, 17113, Note_on_c, 0, 65, 51
1, 17120, Control_c, 0, 64, 75
1, 17135, Control_c, 0, 64, 70
1, 17136, Note_on_c, 0, 57, 28
1, 17139, Note_on_c, 0, 53, 32
1, 17150, Control_c, 0, 64, 61
1, 17165, Note_on_c, 0, 60, 7
1, 17165, Control_c, 0, 64, 0
1, 17401, Control_c, 0, 64, 58
1, 17410, Note_off_c, 0, 60, 33
1, 17416, Control_c, 0, 64, 66
1, 17431, Control_c, 0, 64, 69
1, 17445, Control_c, 0, 64, 73
1, 17460, Control_c, 0, 64, 76
1, 17475, Control_c, 0, 64, 78
1, 17490, Control_c, 0, 64, 80
1, 17512, Control_c, 0, 64, 81
1, 17527, Control_c, 0, 64, 82
1, 17536, Note_off_c, 0, 53, 41
1, 17537, Note_off_c, 0, 57, 41
1, 17542, Control_c, 0, 64, 83
1, 17557, Control_c, 0, 64, 84
1, 17571, Control_c, 0, 64, 85
1, 17586, Control_c, 0, 64, 85
1, 17601, Control_c, 0, 64, 86
1, 17631, Control_c, 0, 64, 86
1, 17691, Control_c, 0, 64, 87
1, 17763, Note_on_c, 0, 60, 23
1, 17781, Note_on_c, 0, 53, 15
1, 17781, Note_on_c, 0, 57, 20
1, 17793, Note_off_c, 0, 48, 1
1, 17800, Note_off_c, 0, 65, 37
1, 17891, Note_off_c, 0, 60, 34
1, 17895, Note_off_c, 0, 53, 35
1, 17960, Note_off_c, 0, 57, 22
1, 18336, Control_c, 0, 64, 86
1, 18351, Note_on_c, 0, 72, 71
1, 18351, Control_c, 0, 64, 85
1, 18366, Control_c, 0, 64, 81
1, 18376, Note_on_c, 0, 53, 36
1, 18379, Note_on_c, 0, 60, 29
1, 18379, Note_on_c, 0, 69, 46
1, 18381, Control_c, 0, 64, 76
1, 18395, Control_c, 0, 64, 67
1, 18410, Control_c, 0, 64, 0
1, 18432, Poly_aftertouch_c, 0, 65, 127
1, 18589, Control_c, 0, 64, 59
1, 18604, Control_c, 0, 64, 67
1, 18618, Control_c, 0, 64, 70
1, 18632, Control_c, 0, 64, 73
1, 18647, Control_c, 0, 64, 75
1, 18662, Control_c, 0, 64, 77
1, 18677, Control_c, 0, 64, 79
1, 18679, Note_off_c, 0, 53, 40
1, 18689, Note_off_c, 0, 69, 56
1, 18692, Control_c, 0, 64, 80
1, 18694, Note_off_c, 0, 60, 35
1, 18706, Control_c, 0, 64, 81
1, 18721, Control_c, 0, 64, 82
1, 18736, Control_c, 0, 64, 83
1, 18751, Control_c, 0, 64, 83
1, 18763, Poly_aftertouch_c, 0, 65, 0
1, 18766, Control_c, 0, 64, 84
1, 18810, Control_c, 0, 64, 84
1, 18935, Note_on_c, 0, 69, 38
1, 18947, Note_on_c, 0, 65, 20
1, 18950, Note_on_c, 0, 53, 30
1, 18978, Poly_aftertouch_c, 0, 60, 127
1, 19026, Note_off_c, 0, 65, 38
1, 19028, Poly_aftertouch_c, 0, 60, 0
1, 19034, Note_off_c, 0, 53, 40
1, 19064, Note_off_c, 0, 69, 53
1, 19216, Note_on_c, 0, 53, 28
1, 19243, Note_on_c, 0, 60, 14
1, 19391, Note_off_c, 0, 60, 25
1, 19402, Note_off_c, 0, 53, 42
1, 19412, Note_off_c, 0, 72, 59
1, 19736, Note_on_c, 0, 72, 68
1, 19774, Note_on_c, 0, 65, 38
1, 19774, Note_on_c, 0, 69, 42
1, 19783, Note_on_c, 0, 60, 23
1, 19786, Note_on_c, 0, 53, 29
1, 19809, Note_off_c, 0, 69, 56
1, 19821, Note_off_c, 0, 65, 48
1, 19835, Note_off_c, 0, 60, 42
1, 19863, Note_off_c, 0, 72, 60
1, 19899, Note_off_c, 0, 53, 33
1, 20074, Note_on_c, 0, 72, 70
1, 20086, Control_c, 0, 64, 83
1, 20087, Note_on_c, 0, 70, 55
1, 20088, Note_on_c, 0, 53, 35
1, 20100, Note_on_c, 0, 67, 48
1, 20101, Control_c, 0, 64, 81
1, 20105, Note_on_c, 0, 60, 33
1, 20116, Control_c, 0, 64, 77
1, 20130, Control_c, 0, 64, 68
1, 20145, Control_c, 0, 64, 0
1, 20249, Control_c, 0, 64, 29
1, 20263, Control_c, 0, 64, 63
1, 20278, Control_c, 0, 64, 67
1, 20292, Note_off_c, 0, 70, 60
1, 20293, Control_c, 0, 64, 71
1, 20308, Control_c, 0, 64, 74
1, 20323, Control_c, 0, 64, 77
1, 20325, Note_off_c, 0, 72, 63
1, 20337, Control_c, 0, 64, 78
1, 20352, Control_c, 0, 64, 79
1, 20359, Note_off_c, 0, 53, 49
1, 20367, Note_off_c, 0, 60, 40
1, 20367, Control_c, 0, 64, 80
1, 20375, Note_off_c, 0, 67, 38
1, 20382, Control_c, 0, 64, 80
1, 20397, Control_c, 0, 64, 81
1, 20426, Control_c, 0, 64, 81
1, 20456, Control_c, 0, 64, 82
1, 20537, Control_c, 0, 64, 82
1, 20588, Note_on_c, 0, 72, 72
1, 20613, Note_on_c, 0, 70, 43
1, 20620, Note_on_c, 0, 60, 30
1, 20624, Note_on_c, 0, 53, 36
1, 20626, Note_on_c, 0, 67, 38
1, 20639, Note_off_c, 0, 70, 50
1, 20660, Note_off_c, 0, 60, 46
1, 20674, Note_off_c, 0, 67, 43
1, 20705, Note_off_c, 0, 53, 40
1, 20716, Control_c, 0, 64, 83
1, 20756, Note_off_c, 0, 72, 61
1, 20939, Control_c, 0, 64, 82
1, 20954, Control_c, 0, 64, 82
1, 20965, Note_on_c, 0, 76, 78
1, 20969, Control_c, 0, 64, 79
1, 20978, Note_on_c, 0, 70, 59
1, 20979, Note_on_c, 0, 53, 35
1, 20984, Control_c, 0, 64, 74
1, 20987, Note_on_c, 0, 60, 32
1, 20999, Control_c, 0, 64, 64
1, 20999, Note_on_c, 0, 67, 37
1, 21013, Control_c, 0, 64, 0
1, 21161, Control_c, 0, 64, 47
1, 21176, Control_c, 0, 64, 65
1, 21191, Control_c, 0, 64, 70
1, 21205, Control_c, 0, 64, 74
1, 21220, Control_c, 0, 64, 77
1, 21235, Control_c, 0, 64, 78
1, 21258, Control_c, 0, 64, 79
1, 21259, Note_off_c, 0, 53, 42
1, 21263, Note_off_c, 0, 60, 52
1, 21273, Control_c, 0, 64, 79
1, 21279, Note_off_c, 0, 70, 35
1, 21287, Control_c, 0, 64, 80
1, 21302, Control_c, 0, 64, 81
1, 21317, Control_c, 0, 64, 82
1, 21332, Control_c, 0, 64, 82
1, 21345, Note_on_c, 0, 74, 67
1, 21409, Note_off_c, 0, 67, 40
1, 21450, Control_c, 0, 64, 82
1, 21454, Note_off_c, 0, 76, 40
1, 21465, Control_c, 0, 64, 80
1, 21480, Control_c, 0, 64, 73
1, 21485, Note_on_c, 0, 72, 74
1, 21494, Control_c, 0, 64, 59
1, 21502, Note_on_c, 0, 70, 59
1, 21504, Note_on_c, 0, 60, 35
1, 21508, Note_on_c, 0, 53, 31
1, 21509, Control_c, 0, 64, 0
1, 21514, Note_off_c, 0, 74, 58
1, 21515, Note_on_c, 0, 67, 43
1, 21628, Control_c, 0, 64, 59
1, 21643, Control_c, 0, 64, 68
1, 21658, Control_c, 0, 64, 74
1, 21664, Note_off_c, 0, 70, 57
1, 21672, Control_c, 0, 64, 78
1, 21675, Note_off_c, 0, 67, 39
1, 21684, Note_off_c, 0, 60, 51
1, 21688, Control_c, 0, 64, 79
1, 21693, Note_off_c, 0, 53, 41
1, 21702, Control_c, 0, 64, 80
1, 21717, Control_c, 0, 64, 81
1, 21732, Control_c, 0, 64, 82
1, 21747, Control_c, 0, 64, 82
1, 21762, Control_c, 0, 64, 83
1, 21881, Control_c, 0, 64, 83
1, 21896, Control_c, 0, 64, 82
1, 21910, Control_c, 0, 64, 79
1, 21922, Note_on_c, 0, 77, 76
1, 21925, Control_c, 0, 64, 73
1, 21930, Note_on_c, 0, 69, 53
1, 21940, Control_c, 0, 64, 62
1, 21942, Note_on_c, 0, 60, 32
1, 21942, Note_off_c, 0, 72, 55
1, 21947, Note_on_c, 0, 53, 31
1, 21950, Note_on_c, 0, 65, 43
1, 21955, Control_c, 0, 64, 0
1, 22081, Control_c, 0, 64, 53
1, 22096, Control_c, 0, 64, 66
1, 22110, Control_c, 0, 64, 70
1, 22125, Control_c, 0, 64, 73
1, 22140, Control_c, 0, 64, 76
1, 22154, Control_c, 0, 64, 77
1, 22156, Note_off_c, 0, 65, 38
1, 22168, Note_off_c, 0, 77, 60
1, 22169, Control_c, 0, 64, 78
1, 22184, Control_c, 0, 64, 79
1, 22186, Note_off_c, 0, 60, 40
1, 22188, Note_off_c, 0, 53, 41
1, 22199, Control_c, 0, 64, 80
1, 22214, Control_c, 0, 64, 81
1, 22228, Control_c, 0, 64, 82
1, 22243, Control_c, 0, 64, 82
1, 22258, Control_c, 0, 64, 83
1, 22273, Control_c, 0, 64, 83
1, 22288, Control_c, 0, 64, 84
1, 22302, Control_c, 0, 64, 84
1, 22332, Control_c, 0, 64, 85
1, 22350, Note_off_c, 0, 69, 33
1, 22495, Control_c, 0, 64, 83
1, 22508, Note_on_c, 0, 74, 67
1, 22510, Control_c, 0, 64, 78
1, 22520, Note_on_c, 0, 58, 40
1, 22525, Note_on_c, 0, 65, 47
1, 22525, Control_c, 0, 64, 67
1, 22540, Control_c, 0, 64, 0
1, 22629, Control_c, 0, 64, 62
1, 22644, Control_c, 0, 64, 67
1, 22658, Control_c, 0, 64, 69
1, 22659, Note_off_c, 0, 65, 52
1, 22673, Control_c, 0, 64, 71
1, 22688, Control_c, 0, 64, 73
1, 22703, Control_c, 0, 64, 74
1, 22718, Control_c, 0, 64, 75
1, 22732, Control_c, 0, 64, 76
1, 22733, Note_off_c, 0, 58, 49
1, 22787, Note_off_c, 0, 74, 56
1, 22799, Control_c, 0, 64, 75
1, 22800, Note_on_c, 0, 72, 63
1, 22809, Note_on_c, 0, 57, 42
1, 22814, Control_c, 0, 64, 71
1, 22825, Note_on_c, 0, 65, 51
1, 22829, Control_c, 0, 64, 63
1, 22844, Control_c, 0, 64, 0
1, 22962, Control_c, 0, 64, 55
1, 22976, Control_c, 0, 64, 66
1, 22991, Control_c, 0, 64, 70
1, 23006, Control_c, 0, 64, 73
1, 23014, Note_off_c, 0, 72, 61
1, 23021, Control_c, 0, 64, 74
1, 23036, Control_c, 0, 64, 75
1, 23050, Control_c, 0, 64, 76
1, 23065, Control_c, 0, 64, 78
1, 23071, Note_off_c, 0, 65, 58
1, 23080, Control_c, 0, 64, 79
1, 23095, Control_c, 0, 64, 80
1, 23110, Control_c, 0, 64, 80
1, 23112, Note_off_c, 0, 57, 24
1, 23124, Control_c, 0, 64, 81
1, 23139, Control_c, 0, 64, 81
1, 23154, Control_c, 0, 64, 82
1, 23198, Control_c, 0, 64, 82
1, 23362, Control_c, 0, 64, 80
1, 23367, Note_on_c, 0, 69, 55
1, 23376, Note_on_c, 0, 57, 33
1, 23377, Control_c, 0, 64, 74
1, 23377, Note_on_c, 0, 48, 42
1, 23386, Note_on_c, 0, 64, 42
1, 23392, Control_c, 0, 64, 59
1, 23406, Control_c, 0, 64, 0
1, 23480, Control_c, 0, 64, 63
1, 23503, Control_c, 0, 64, 67
1, 23518, Control_c, 0, 64, 70
1, 23530, Note_off_c, 0, 57, 27
1, 23532, Control_c, 0, 64, 72
1, 23536, Note_off_c, 0, 64, 50
1, 23547, Control_c, 0, 64, 73
1, 23562, Control_c, 0, 64, 75
1, 23571, Note_off_c, 0, 48, 40
1, 23577, Control_c, 0, 64, 76
1, 23592, Control_c, 0, 64, 76
1, 23602, Note_off_c, 0, 69, 34
1, 23695, Control_c, 0, 64, 76
1, 23700, Note_on_c, 0, 65, 56
1, 23710, Control_c, 0, 64, 73
1, 23711, Note_on_c, 0, 60, 37
1, 23714, Note_on_c, 0, 57, 29
1, 23715, Note_on_c, 0, 50, 36
1, 23725, Control_c, 0, 64, 66
1, 23740, Control_c, 0, 64, 0
1, 23843, Control_c, 0, 64, 42
1, 23858, Control_c, 0, 64, 65
1, 23872, Control_c, 0, 64, 68
1, 23887, Control_c, 0, 64, 71
1, 23902, Control_c, 0, 64, 73
1, 23917, Control_c, 0, 64, 74
1, 23932, Control_c, 0, 64, 76
1, 23947, Control_c, 0, 64, 77
1, 23962, Control_c, 0, 64, 78
1, 23977, Control_c, 0, 64, 78
1, 23978, Note_off_c, 0, 60, 33
1, 23980, Note_off_c, 0, 50, 40
1, 23992, Control_c, 0, 64, 79
1, 24021, Control_c, 0, 64, 79
1, 24036, Control_c, 0, 64, 80
1, 24051, Control_c, 0, 64, 80
1, 24066, Control_c, 0, 64, 81
1, 24096, Control_c, 0, 64, 81
1, 24185, Note_off_c, 0, 65, 37
1, 24185, Control_c, 0, 64, 82
1, 24197, Note_off_c, 0, 57, 11
1, 24380, Note_on_c, 0, 67, 58
1, 24385, Control_c, 0, 64, 81
1, 24393, Note_on_c, 0, 65, 45
1, 24400, Control_c, 0, 64, 79
1, 24400, Note_on_c, 0, 58, 42
1, 24409, Note_on_c, 0, 50, 26
1, 24415, Control_c, 0, 64, 71
1, 24420, Note_on_c, 0, 43, 22
1, 24429, Control_c, 0, 64, 43
1, 24444, Control_c, 0, 64, 0
1, 24488, Note_off_c, 0, 58, 0
1, 24488, Note_on_c, 0, 58, 5
1, 24518, Control_c, 0, 64, 58
1, 24533, Control_c, 0, 64, 67
1, 24547, Control_c, 0, 64, 70
1, 24562, Control_c, 0, 64, 73
1, 24577, Control_c, 0, 64, 75
1, 24592, Control_c, 0, 64, 77
1, 24607, Control_c, 0, 64, 77
1, 24616, Note_off_c, 0, 67, 36
1, 24621, Control_c, 0, 64, 78
1, 24636, Control_c, 0, 64, 79
1, 24647, Note_off_c, 0, 58, 33
1, 24651, Control_c, 0, 64, 80
1, 24681, Control_c, 0, 64, 80
1, 24701, Note_off_c, 0, 50, 26
1, 24754, Note_on_c, 0, 67, 58
1, 24770, Control_c, 0, 64, 80
1, 24773, Note_off_c, 0, 43, 35
1, 24774, Note_on_c, 0, 64, 49
1, 24775, Note_on_c, 0, 58, 39
1, 24784, Control_c, 0, 64, 78
1, 24787, Note_off_c, 0, 65, 42
1, 24795, Note_on_c, 0, 48, 34
1, 24799, Control_c, 0, 64, 75
1, 24814, Control_c, 0, 64, 66
1, 24829, Control_c, 0, 64, 0
1, 24948, Control_c, 0, 64, 33
1, 24963, Control_c, 0, 64, 64
1, 24978, Control_c, 0, 64, 69
1, 25000, Control_c, 0, 64, 72
1, 25015, Control_c, 0, 64, 74
1, 25030, Control_c, 0, 64, 76
1, 25045, Control_c, 0, 64, 77
1, 25047, Note_off_c, 0, 64, 60
1, 25059, Control_c, 0, 64, 79
1, 25074, Control_c, 0, 64, 80
1, 25089, Control_c, 0, 64, 80
1, 25104, Control_c, 0, 64, 81
1, 25119, Control_c, 0, 64, 81
1, 25157, Note_off_c, 0, 58, 31
1, 25172, Note_off_c, 0, 48, 44
1, 25238, Control_c, 0, 64, 82
1, 25413, Note_on_c, 0, 62, 30
1, 25415, Note_on_c, 0, 58, 24
1, 25434, Note_on_c, 0, 48, 29
1, 25490, Note_off_c, 0, 67, 57
1, 25545, Note_off_c, 0, 58, 35
1, 25853, Control_c, 0, 64, 81
1, 25864, Note_off_c, 0, 48, 40
1, 25882, Control_c, 0, 64, 80
1, 25890, Note_on_c, 0, 60, 35
1, 25890, Note_on_c, 0, 69, 46
1, 25897, Control_c, 0, 64, 78
1, 25910, Note_on_c, 0, 53, 26
1, 25911, Note_on_c, 0, 41, 29
1, 25912, Control_c, 0, 64, 76
1, 25927, Control_c, 0, 64, 72
1, 25942, Control_c, 0, 64, 66
1, 25948, Note_off_c, 0, 62, 38
1, 25956, Control_c, 0, 64, 39
1, 25971, Control_c, 0, 64, 0
1, 26120, Control_c, 0, 64, 43
1, 26135, Control_c, 0, 64, 64
1, 26149, Control_c, 0, 64, 68
1, 26164, Control_c, 0, 64, 71
1, 26179, Control_c, 0, 64, 74
1, 26193, Control_c, 0, 64, 77
1, 26206, Note_off_c, 0, 69, 61
1, 26208, Control_c, 0, 64, 79
1, 26218, Note_off_c, 0, 41, 40
1, 26223, Control_c, 0, 64, 81
1, 26238, Control_c, 0, 64, 82
1, 26253, Control_c, 0, 64, 83
1, 26267, Control_c, 0, 64, 84
1, 26282, Control_c, 0, 64, 85
1, 26297, Control_c, 0, 64, 85
1, 26308, Note_off_c, 0, 53, 39
1, 26312, Control_c, 0, 64, 86
1, 26339, Note_off_c, 0, 60, 32
1, 26371, Control_c, 0, 64, 86
1, 26445, Control_c, 0, 64, 86
1, 26472, Note_on_c, 0, 70, 59
1, 26476, Control_c, 0, 64, 84
1, 26489, Note_on_c, 0, 46, 37
1, 26498, Control_c, 0, 64, 80
1, 26504, Note_on_c, 0, 62, 41
1, 26506, Note_on_c, 0, 53, 31
1, 26513, Control_c, 0, 64, 73
1, 26528, Control_c, 0, 64, 57
1, 26543, Control_c, 0, 64, 0
1, 26587, Control_c, 0, 64, 19
1, 26602, Control_c, 0, 64, 63
1, 26617, Control_c, 0, 64, 69
1, 26631, Control_c, 0, 64, 71
1, 26643, Note_off_c, 0, 70, 60
1, 26646, Control_c, 0, 64, 73
1, 26647, Note_off_c, 0, 53, 41
1, 26661, Control_c, 0, 64, 74
1, 26676, Note_off_c, 0, 46, 41
1, 26676, Control_c, 0, 64, 75
1, 26691, Control_c, 0, 64, 76
1, 26705, Control_c, 0, 64, 77
1, 26773, Note_on_c, 0, 60, 38
1, 26779, Control_c, 0, 64, 77
1, 26781, Note_on_c, 0, 69, 54
1, 26794, Note_on_c, 0, 48, 36
1, 26794, Note_off_c, 0, 62, 39
1, 26794, Control_c, 0, 64, 75
1, 26800, Note_on_c, 0, 53, 35
1, 26809, Control_c, 0, 64, 70
1, 26823, Control_c, 0, 64, 59
1, 26838, Control_c, 0, 64, 0
1, 26928, Control_c, 0, 64, 19
1, 26942, Control_c, 0, 64, 63
1, 26957, Control_c, 0, 64, 68
1, 26972, Control_c, 0, 64, 71
1, 26987, Control_c, 0, 64, 73
1, 26999, Note_off_c, 0, 48, 43
1, 27002, Control_c, 0, 64, 75
1, 27017, Control_c, 0, 64, 76
1, 27031, Control_c, 0, 64, 77
1, 27032, Note_off_c, 0, 53, 39
1, 27046, Control_c, 0, 64, 78
1, 27061, Control_c, 0, 64, 79
1, 27071, Note_off_c, 0, 60, 30
1, 27076, Control_c, 0, 64, 79
1, 27091, Control_c, 0, 64, 80
1, 27105, Control_c, 0, 64, 80
1, 27135, Control_c, 0, 64, 81
1, 27164, Control_c, 0, 64, 81
1, 27336, Control_c, 0, 64, 81
1, 27351, Control_c, 0, 64, 79
1, 27366, Control_c, 0, 64, 73
1, 27368, Note_on_c, 0, 65, 55
1, 27369, Note_on_c, 0, 46, 34
1, 27380, Control_c, 0, 64, 62
1, 27384, Note_on_c, 0, 62, 34
1, 27388, Note_on_c, 0, 53, 15
1, 27395, Control_c, 0, 64, 0
1, 27420, Note_off_c, 0, 69, 31
1, 27454, Control_c, 0, 64, 34
1, 27469, Control_c, 0, 64, 64
1, 27484, Control_c, 0, 64, 69
1, 27499, Control_c, 0, 64, 72
1, 27511, Note_off_c, 0, 53, 36
1, 27514, Control_c, 0, 64, 74
1, 27528, Control_c, 0, 64, 75
1, 27543, Control_c, 0, 64, 76
1, 27551, Note_off_c, 0, 46, 39
1, 27558, Control_c, 0, 64, 77
1, 27559, Note_off_c, 0, 62, 42
1, 27572, Control_c, 0, 64, 78
1, 27587, Control_c, 0, 64, 78
1, 27640, Note_off_c, 0, 65, 51
1, 27662, Note_on_c, 0, 69, 54
1, 27662, Control_c, 0, 64, 78
1, 27663, Note_on_c, 0, 53, 32
1, 27677, Control_c, 0, 64, 76
1, 27684, Note_on_c, 0, 60, 39
1, 27685, Note_on_c, 0, 48, 33
1, 27692, Control_c, 0, 64, 71
1, 27707, Control_c, 0, 64, 58
1, 27721, Control_c, 0, 64, 0
1, 27795, Control_c, 0, 64, 63
1, 27810, Control_c, 0, 64, 68
1, 27816, Note_off_c, 0, 69, 61
1, 27825, Control_c, 0, 64, 72
1, 27840, Control_c, 0, 64, 74
1, 27855, Control_c, 0, 64, 75
1, 27870, Control_c, 0, 64, 76
1, 27879, Note_off_c, 0, 60, 35
1, 27885, Control_c, 0, 64, 78
1, 27890, Note_off_c, 0, 48, 40
1, 27900, Control_c, 0, 64, 79
1, 27903, Note_off_c, 0, 53, 41
1, 27914, Control_c, 0, 64, 80
1, 27929, Control_c, 0, 64, 81
1, 27944, Control_c, 0, 64, 81
1, 27959, Control_c, 0, 64, 82
1, 27988, Control_c, 0, 64, 82
1, 28010, Control_c, 0, 64, 83
1, 28159, Control_c, 0, 64, 82
1, 28174, Control_c, 0, 64, 79
1, 28189, Control_c, 0, 64, 73
1, 28195, Note_on_c, 0, 70, 63
1, 28204, Control_c, 0, 64, 62
1, 28209, Note_on_c, 0, 58, 40
1, 28218, Control_c, 0, 64, 0
1, 28234, Note_on_c, 0, 50, 15
1, 28235, Note_on_c, 0, 53, 19
1, 28293, Control_c, 0, 64, 49
1, 28308, Control_c, 0, 64, 66
1, 28323, Control_c, 0, 64, 71
1, 28338, Control_c, 0, 64, 74
1, 28352, Note_off_c, 0, 58, 64
1, 28352, Control_c, 0, 64, 76
1, 28367, Control_c, 0, 64, 77
1, 28368, Note_off_c, 0, 53, 36
1, 28382, Control_c, 0, 64, 78
1, 28382, Note_off_c, 0, 70, 59
1, 28396, Control_c, 0, 64, 79
1, 28411, Control_c, 0, 64, 80
1, 28426, Control_c, 0, 64, 80
1, 28490, Note_off_c, 0, 50, 36
1, 28500, Control_c, 0, 64, 79
1, 28501, Note_on_c, 0, 69, 50
1, 28514, Note_on_c, 0, 60, 39
1, 28515, Control_c, 0, 64, 76
1, 28525, Note_on_c, 0, 48, 29
1, 28530, Note_on_c, 0, 53, 23
1, 28530, Control_c, 0, 64, 68
1, 28544, Control_c, 0, 64, 0
1, 28648, Control_c, 0, 64, 25
1, 28663, Control_c, 0, 64, 63
1, 28678, Control_c, 0, 64, 68
1, 28692, Control_c, 0, 64, 72
1, 28707, Control_c, 0, 64, 74
1, 28715, Note_off_c, 0, 48, 42
1, 28722, Control_c, 0, 64, 76
1, 28744, Control_c, 0, 64, 77
1, 28759, Control_c, 0, 64, 78
1, 28770, Note_off_c, 0, 53, 41
1, 28774, Control_c, 0, 64, 80
1, 28789, Control_c, 0, 64, 81
1, 28803, Control_c, 0, 64, 81
1, 28818, Control_c, 0, 64, 82
1, 28925, Note_on_c, 0, 67, 52
1, 28977, Note_off_c, 0, 60, 33
1, 28998, Note_off_c, 0, 69, 35
1, 29012, Control_c, 0, 64, 81
1, 29026, Control_c, 0, 64, 79
1, 29041, Control_c, 0, 64, 73
1, 29054, Note_off_c, 0, 67, 51
1, 29056, Control_c, 0, 64, 64
1, 29068, Note_on_c, 0, 65, 47
1, 29071, Control_c, 0, 64, 0
1, 29081, Note_on_c, 0, 46, 31
1, 29081, Note_on_c, 0, 62, 35
1, 29093, Note_on_c, 0, 53, 14
1, 29174, Control_c, 0, 64, 58
1, 29189, Control_c, 0, 64, 67
1, 29204, Control_c, 0, 64, 71
1, 29218, Control_c, 0, 64, 76
1, 29220, Note_off_c, 0, 53, 38
1, 29224, Note_off_c, 0, 62, 52
1, 29233, Control_c, 0, 64, 77
1, 29248, Control_c, 0, 64, 78
1, 29263, Control_c, 0, 64, 79
1, 29278, Control_c, 0, 64, 79
1, 29281, Note_off_c, 0, 46, 41
1, 29292, Control_c, 0, 64, 80
1, 29307, Control_c, 0, 64, 81
1, 29378, Note_on_c, 0, 69, 55
1, 29393, Note_off_c, 0, 65, 33
1, 29403, Note_on_c, 0, 53, 31
1, 29404, Note_on_c, 0, 48, 37
1, 29411, Control_c, 0, 64, 79
1, 29414, Note_on_c, 0, 60, 31
1, 29426, Control_c, 0, 64, 74
1, 29441, Control_c, 0, 64, 65
1, 29456, Control_c, 0, 64, 0
1, 29522, Control_c, 0, 64, 61
1, 29537, Control_c, 0, 64, 68
1, 29551, Control_c, 0, 64, 72
1, 29563, Note_off_c, 0, 69, 62
1, 29566, Control_c, 0, 64, 74
1, 29581, Control_c, 0, 64, 75
1, 29596, Control_c, 0, 64, 76
1, 29611, Control_c, 0, 64, 78
1, 29613, Note_off_c, 0, 53, 43
1, 29625, Control_c, 0, 64, 79
1, 29629, Note_off_c, 0, 60, 38
1, 29640, Note_off_c, 0, 48, 41
1, 29640, Control_c, 0, 64, 80
1, 29655, Control_c, 0, 64, 81
1, 29671, Control_c, 0, 64, 81
1, 29701, Control_c, 0, 64, 82
1, 29730, Control_c, 0, 64, 82
1, 29760, Control_c, 0, 64, 83
1, 29923, Control_c, 0, 64, 82
1, 29938, Control_c, 0, 64, 80
1, 29948, Note_on_c, 0, 70, 63
1, 29953, Control_c, 0, 64, 75
1, 29965, Note_on_c, 0, 58, 42
1, 29967, Control_c, 0, 64, 68
1, 29971, Note_on_c, 0, 50, 35
1, 29975, Note_on_c, 0, 53, 25
1, 29982, Control_c, 0, 64, 0
1, 30056, Control_c, 0, 64, 61
1, 30071, Control_c, 0, 64, 67
1, 30086, Control_c, 0, 64, 71
1, 30096, Note_off_c, 0, 58, 63
1, 30101, Control_c, 0, 64, 74
1, 30114, Note_off_c, 0, 53, 40
1, 30115, Control_c, 0, 64, 75
1, 30130, Control_c, 0, 64, 76
1, 30135, Note_off_c, 0, 70, 58
1, 30145, Control_c, 0, 64, 77
1, 30159, Control_c, 0, 64, 77
1, 30174, Control_c, 0, 64, 78
1, 30204, Control_c, 0, 64, 78
1, 30269, Note_on_c, 0, 69, 59
1, 30271, Control_c, 0, 64, 78
1, 30281, Note_on_c, 0, 60, 45
1, 30283, Note_on_c, 0, 53, 24
1, 30286, Control_c, 0, 64, 77
1, 30292, Note_on_c, 0, 48, 38
1, 30301, Control_c, 0, 64, 74
1, 30315, Control_c, 0, 64, 67
1, 30330, Control_c, 0, 64, 0
1, 30332, Note_off_c, 0, 50, 36
1, 30434, Control_c, 0, 64, 60
1, 30448, Control_c, 0, 64, 67
1, 30464, Control_c, 0, 64, 72
1, 30479, Control_c, 0, 64, 75
1, 30494, Control_c, 0, 64, 76
1, 30506, Note_off_c, 0, 48, 39
1, 30509, Control_c, 0, 64, 77
1, 30524, Control_c, 0, 64, 78
1, 30538, Control_c, 0, 64, 79
1, 30553, Control_c, 0, 64, 79
1, 30568, Control_c, 0, 64, 80
1, 30589, Note_off_c, 0, 53, 46
1, 30613, Control_c, 0, 64, 80
1, 30679, Note_off_c, 0, 69, 55
1, 30696, Note_on_c, 0, 67, 60
1, 30767, Note_off_c, 0, 60, 33
1, 30821, Control_c, 0, 64, 78
1, 30824, Note_off_c, 0, 67, 49
1, 30827, Note_on_c, 0, 65, 67
1, 30836, Control_c, 0, 64, 72
1, 30851, Control_c, 0, 64, 43
1, 30860, Note_on_c, 0, 57, 30
1, 30860, Note_on_c, 0, 60, 21
1, 30865, Control_c, 0, 64, 0
1, 30866, Note_on_c, 0, 48, 29
1, 30939, Control_c, 0, 64, 57
1, 30954, Control_c, 0, 64, 68
1, 30969, Control_c, 0, 64, 73
1, 30991, Control_c, 0, 64, 77
1, 31006, Control_c, 0, 64, 79
1, 31008, Note_off_c, 0, 48, 36
1, 31009, Note_off_c, 0, 57, 35
1, 31021, Control_c, 0, 64, 79
1, 31035, Control_c, 0, 64, 80
1, 31050, Control_c, 0, 64, 81
1, 31065, Control_c, 0, 64, 82
1, 31080, Control_c, 0, 64, 83
1, 31095, Control_c, 0, 64, 83
1, 31124, Control_c, 0, 64, 84
1, 31196, Note_off_c, 0, 60, 31
1, 31303, Control_c, 0, 64, 83
1, 31304, Note_on_c, 0, 67, 66
1, 31318, Control_c, 0, 64, 82
1, 31319, Note_on_c, 0, 58, 37
1, 31324, Note_on_c, 0, 62, 48
1, 31333, Control_c, 0, 64, 79
1, 31337, Note_off_c, 0, 65, 55
1, 31345, Note_on_c, 0, 48, 37
1, 31347, Control_c, 0, 64, 73
1, 31362, Control_c, 0, 64, 61
1, 31377, Control_c, 0, 64, 0
1, 31525, Control_c, 0, 64, 63
1, 31539, Control_c, 0, 64, 67
1, 31554, Control_c, 0, 64, 70
1, 31569, Control_c, 0, 64, 74
1, 31584, Control_c, 0, 64, 77
1, 31599, Control_c, 0, 64, 80
1, 31614, Control_c, 0, 64, 82
1, 31627, Note_off_c, 0, 48, 40
1, 31629, Control_c, 0, 64, 83
1, 31638, Note_off_c, 0, 58, 36
1, 31644, Control_c, 0, 64, 84
1, 31658, Control_c, 0, 64, 85
1, 31673, Control_c, 0, 64, 86
1, 31688, Control_c, 0, 64, 87
1, 31718, Control_c, 0, 64, 87
1, 31858, Note_off_c, 0, 62, 40
1, 31947, Control_c, 0, 64, 87
1, 31962, Control_c, 0, 64, 84
1, 31967, Note_on_c, 0, 48, 37
1, 31970, Note_on_c, 0, 58, 27
1, 31970, Note_on_c, 0, 64, 40
1, 31977, Control_c, 0, 64, 79
1, 31992, Control_c, 0, 64, 70
1, 31999, Note_on_c, 0, 60, 26
1, 32007, Control_c, 0, 64, 0
1, 32082, Control_c, 0, 64, 54
1, 32097, Control_c, 0, 64, 67
1, 32111, Control_c, 0, 64, 71
1, 32126, Control_c, 0, 64, 75
1, 32141, Control_c, 0, 64, 77
1, 32145, Note_off_c, 0, 64, 59
1, 32156, Control_c, 0, 64, 78
1, 32170, Control_c, 0, 64, 78
1, 32177, Note_off_c, 0, 58, 37
1, 32185, Control_c, 0, 64, 79
1, 32200, Control_c, 0, 64, 80
1, 32207, Note_off_c, 0, 60, 16
1, 32215, Control_c, 0, 64, 80
1, 32274, Control_c, 0, 64, 81
1, 32333, Note_off_c, 0, 48, 21
1, 32407, Control_c, 0, 64, 80
1, 32436, Control_c, 0, 64, 79
1, 32451, Control_c, 0, 64, 76
1, 32459, Note_on_c, 0, 65, 49
1, 32466, Control_c, 0, 64, 71
1, 32469, Note_off_c, 0, 67, 52
1, 32473, Note_on_c, 0, 57, 25
1, 32479, Note_on_c, 0, 53, 32
1, 32481, Control_c, 0, 64, 48
1, 32504, Control_c, 0, 64, 0
1, 32515, Note_on_c, 0, 60, 23
1, 32711, Control_c, 0, 64, 49
1, 32726, Control_c, 0, 64, 65
1, 32741, Control_c, 0, 64, 69
1, 32755, Control_c, 0, 64, 72
1, 32770, Note_off_c, 0, 60, 30
1, 32770, Control_c, 0, 64, 75
1, 32785, Control_c, 0, 64, 77
1, 32800, Control_c, 0, 64, 79
1, 32815, Control_c, 0, 64, 80
1, 32830, Control_c, 0, 64, 82
1, 32844, Control_c, 0, 64, 83
1, 32845, Note_off_c, 0, 57, 38
1, 32854, Note_off_c, 0, 53, 41
1, 32859, Control_c, 0, 64, 84
1, 32874, Control_c, 0, 64, 85
1, 32889, Control_c, 0, 64, 85
1, 32904, Control_c, 0, 64, 86
1, 32919, Control_c, 0, 64, 86
1, 32948, Control_c, 0, 64, 87
1, 33037, Control_c, 0, 64, 87
1, 33106, Note_on_c, 0, 60, 30
1, 33115, Note_on_c, 0, 53, 23
1, 33116, Note_on_c, 0, 57, 20
1, 33262, Note_off_c, 0, 60, 35
1, 33308, Note_off_c, 0, 57, 36
1, 33323, Note_off_c, 0, 65, 38
1, 33411, Note_off_c, 0, 53, 33
1, 33668, Control_c, 0, 64, 87
1, 33845, Control_c, 0, 64, 86
1, 33860, Control_c, 0, 64, 85
1, 33868, Note_on_c, 0, 72, 63
1, 33875, Control_c, 0, 64, 84
1, 33879, Note_on_c, 0, 48, 38
1, 33889, Control_c, 0, 64, 81
1, 33897, Note_on_c, 0, 64, 36
1, 33902, Note_on_c, 0, 57, 24
1, 33904, Control_c, 0, 64, 77
1, 33919, Control_c, 0, 64, 72
1, 33933, Control_c, 0, 64, 64
1, 33948, Control_c, 0, 64, 0
1, 34089, Control_c, 0, 64, 62
1, 34104, Control_c, 0, 64, 68
1, 34119, Control_c, 0, 64, 71
1, 34133, Control_c, 0, 64, 73
1, 34148, Control_c, 0, 64, 76
1, 34163, Control_c, 0, 64, 78
1, 34172, Note_off_c, 0, 48, 41
1, 34178, Control_c, 0, 64, 79
1, 34193, Control_c, 0, 64, 80
1, 34207, Control_c, 0, 64, 81
1, 34217, Note_off_c, 0, 64, 31
1, 34220, Note_off_c, 0, 57, 38
1, 34222, Control_c, 0, 64, 82
1, 34237, Control_c, 0, 64, 83
1, 34252, Control_c, 0, 64, 83
1, 34267, Control_c, 0, 64, 84
1, 34282, Control_c, 0, 64, 84
1, 34297, Control_c, 0, 64, 85
1, 34311, Control_c, 0, 64, 86
1, 34341, Control_c, 0, 64, 86
1, 34356, Control_c, 0, 64, 87
1, 34371, Control_c, 0, 64, 87
1, 34401, Control_c, 0, 64, 88
1, 34456, Note_on_c, 0, 64, 18
1, 34463, Note_on_c, 0, 48, 32
1, 34474, Note_on_c, 0, 57, 10
1, 34519, Note_off_c, 0, 64, 41
1, 34520, Control_c, 0, 64, 88
1, 34524, Note_off_c, 0, 48, 43
1, 34552, Note_off_c, 0, 57, 40
1, 34744, Note_on_c, 0, 64, 39
1, 34759, Note_on_c, 0, 57, 25
1, 34765, Note_on_c, 0, 48, 23
1, 34949, Note_off_c, 0, 72, 57
1, 34973, Note_off_c, 0, 64, 50
1, 35027, Note_off_c, 0, 48, 43
1, 35100, Note_off_c, 0, 57, 21
1, 35253, Control_c, 0, 64, 87
1, 35267, Note_on_c, 0, 71, 64
1, 35268, Control_c, 0, 64, 83
1, 35283, Control_c, 0, 64, 76
1, 35284, Note_on_c, 0, 50, 35
1, 35289, Note_on_c, 0, 62, 35
1, 35295, Note_on_c, 0, 65, 39
1, 35298, Control_c, 0, 64, 63
1, 35313, Control_c, 0, 64, 0
1, 35372, Control_c, 0, 64, 53
1, 35386, Control_c, 0, 64, 68
1, 35398, Note_off_c, 0, 62, 42
1, 35401, Control_c, 0, 64, 75
1, 35416, Control_c, 0, 64, 80
1, 35431, Control_c, 0, 64, 82
1, 35460, Control_c, 0, 64, 83
1, 35483, Control_c, 0, 64, 83
1, 35484, Note_off_c, 0, 65, 40
1, 35498, Control_c, 0, 64, 84
1, 35569, Note_on_c, 0, 60, 44
1, 35574, Note_off_c, 0, 50, 36
1, 35586, Note_off_c, 0, 71, 27
1, 35608, Note_on_c, 0, 52, 29
1, 35616, Control_c, 0, 64, 83
1, 35631, Control_c, 0, 64, 82
1, 35646, Control_c, 0, 64, 79
1, 35647, Note_on_c, 0, 64, 36
1, 35660, Control_c, 0, 64, 73
1, 35675, Control_c, 0, 64, 59
1, 35690, Control_c, 0, 64, 0
1, 35733, Note_on_c, 0, 71, 56
1, 35832, Note_on_c, 0, 69, 68
1, 35844, Note_off_c, 0, 71, 61
1, 36001, Control_c, 0, 64, 43
1, 36016, Control_c, 0, 64, 67
1, 36031, Control_c, 0, 64, 74
1, 36046, Control_c, 0, 64, 79
1, 36061, Control_c, 0, 64, 81
1, 36076, Control_c, 0, 64, 82
1, 36091, Control_c, 0, 64, 83
1, 36094, Note_off_c, 0, 64, 42
1, 36106, Note_off_c, 0, 60, 38
1, 36106, Control_c, 0, 64, 84
1, 36121, Control_c, 0, 64, 85
1, 36136, Control_c, 0, 64, 87
1, 36150, Control_c, 0, 64, 87
1, 36155, Note_off_c, 0, 52, 38
1, 36180, Control_c, 0, 64, 88
1, 36335, Control_c, 0, 64, 87
1, 36350, Control_c, 0, 64, 86
1, 36365, Control_c, 0, 64, 83
1, 36373, Note_off_c, 0, 69, 64
1, 36380, Control_c, 0, 64, 77
1, 36385, Note_on_c, 0, 68, 68
1, 36395, Control_c, 0, 64, 66
1, 36406, Note_on_c, 0, 40, 33
1, 36409, Control_c, 0, 64, 0
1, 36412, Note_on_c, 0, 59, 42
1, 36418, Note_on_c, 0, 52, 18
1, 36419, Note_on_c, 0, 62, 33
1, 36483, Control_c, 0, 64, 19
1, 36498, Control_c, 0, 64, 65
1, 36513, Control_c, 0, 64, 70
1, 36527, Control_c, 0, 64, 76
1, 36542, Control_c, 0, 64, 79
1, 36553, Note_off_c, 0, 52, 38
1, 36554, Note_off_c, 0, 59, 39
1, 36557, Control_c, 0, 64, 80
1, 36587, Control_c, 0, 64, 80
1, 36601, Control_c, 0, 64, 81
1, 36608, Note_off_c, 0, 68, 61
1, 36610, Note_off_c, 0, 40, 39
1, 36616, Control_c, 0, 64, 81
1, 36624, Note_off_c, 0, 62, 38
1, 36720, Control_c, 0, 64, 81
1, 36725, Note_on_c, 0, 69, 68
1, 36735, Control_c, 0, 64, 79
1, 36736, Note_on_c, 0, 52, 33
1, 36741, Note_on_c, 0, 60, 50
1, 36745, Note_on_c, 0, 45, 38
1, 36750, Control_c, 0, 64, 75
1, 36757, Note_on_c, 0, 64, 46
1, 36765, Control_c, 0, 64, 66
1, 36780, Control_c, 0, 64, 0
1, 36884, Control_c, 0, 64, 55
1, 36899, Control_c, 0, 64, 68
1, 36903, Note_off_c, 0, 64, 61
1, 36914, Control_c, 0, 64, 74
1, 36929, Control_c, 0, 64, 78
1, 36944, Control_c, 0, 64, 79
1, 36958, Control_c, 0, 64, 80
1, 36980, Control_c, 0, 64, 80
1, 36983, Note_off_c, 0, 45, 45
1, 36995, Control_c, 0, 64, 81
1, 37004, Note_off_c, 0, 69, 62
1, 37010, Control_c, 0, 64, 82
1, 37025, Control_c, 0, 64, 83
1, 37039, Control_c, 0, 64, 83
1, 37054, Control_c, 0, 64, 84
1, 37057, Note_off_c, 0, 52, 42
1, 37069, Control_c, 0, 64, 84
1, 37084, Control_c, 0, 64, 85
1, 37099, Control_c, 0, 64, 85
1, 37113, Control_c, 0, 64, 86
1, 37125, Note_off_c, 0, 60, 33
1, 37128, Control_c, 0, 64, 86
1, 37158, Control_c, 0, 64, 87
1, 37173, Control_c, 0, 64, 87
1, 37188, Control_c, 0, 64, 88
1, 37203, Control_c, 0, 64, 88
1, 37218, Control_c, 0, 67, 106
1, 37232, Control_c, 0, 64, 89
1, 37232, Control_c, 0, 67, 84
1, 37247, Control_c, 0, 67, 58
1, 37262, Control_c, 0, 64, 89
1, 37262, Control_c, 0, 67, 34
1, 37277, Control_c, 0, 67, 12
1, 37292, Control_c, 0, 67, 0
1, 37306, Control_c, 0, 64, 90
1, 37348, Note_on_c, 0, 72, 81
1, 37352, Control_c, 0, 64, 90
1, 37360, Note_on_c, 0, 64, 58
1, 37372, Note_on_c, 0, 45, 43
1, 37375, Note_on_c, 0, 60, 57
1, 37381, Control_c, 0, 64, 91
1, 37382, Note_on_c, 0, 57, 24
1, 37406, Note_off_c, 0, 64, 62
1, 37411, Control_c, 0, 64, 91
1, 37425, Control_c, 0, 64, 92
1, 37433, Note_off_c, 0, 60, 49
1, 37438, Note_off_c, 0, 45, 56
1, 37455, Control_c, 0, 64, 92
1, 37470, Control_c, 0, 64, 93
1, 37485, Control_c, 0, 64, 93
1, 37519, Note_off_c, 0, 72, 60
1, 37529, Control_c, 0, 64, 94
1, 37573, Control_c, 0, 64, 94
1, 37734, Note_off_c, 0, 57, 33
1, 37760, Control_c, 0, 64, 93
1, 37761, Note_on_c, 0, 76, 83
1, 37772, Note_on_c, 0, 67, 66
1, 37774, Note_on_c, 0, 48, 52
1, 37775, Control_c, 0, 64, 91
1, 37781, Note_on_c, 0, 64, 57
1, 37784, Note_on_c, 0, 55, 46
1, 37789, Control_c, 0, 64, 88
1, 37804, Control_c, 0, 64, 82
1, 37819, Control_c, 0, 64, 72
1, 37834, Control_c, 0, 64, 0
1, 37952, Control_c, 0, 64, 43
1, 37967, Control_c, 0, 64, 69
1, 37981, Control_c, 0, 64, 78
1, 37996, Control_c, 0, 64, 85
1, 38011, Control_c, 0, 64, 87
1, 38026, Control_c, 0, 64, 88
1, 38027, Note_off_c, 0, 48, 57
1, 38041, Control_c, 0, 64, 89
1, 38055, Control_c, 0, 64, 91
1, 38058, Note_off_c, 0, 64, 55
1, 38070, Control_c, 0, 64, 94
1, 38080, Note_off_c, 0, 76, 62
1, 38085, Control_c, 0, 64, 98
1, 38098, Note_off_c, 0, 55, 59
1, 38100, Control_c, 0, 64, 102
1, 38115, Control_c, 0, 64, 107
1, 38130, Control_c, 0, 64, 111
1, 38145, Control_c, 0, 64, 114
1, 38150, Note_off_c, 0, 67, 58
1, 38160, Control_c, 0, 64, 118
1, 38175, Control_c, 0, 64, 123
1, 38189, Control_c, 0, 64, 127
1, 38354, Note_on_c, 0, 76, 83
1, 38362, Note_on_c, 0, 67, 64
1, 38377, Note_on_c, 0, 48, 39
1, 38386, Note_on_c, 0, 64, 44
1, 38389, Note_on_c, 0, 60, 27
1, 38430, Poly_aftertouch_c, 0, 55, 127
1, 38506, Note_off_c, 0, 60, 32
1, 38529, Note_off_c, 0, 67, 37
1, 38578, Note_off_c, 0, 76, 40
1, 38586, Note_off_c, 0, 48, 41
1, 38661, Note_off_c, 0, 64, 37
1, 38730, Note_on_c, 0, 76, 82
1, 38743, Note_on_c, 0, 67, 61
1, 38744, Note_on_c, 0, 52, 46
1, 38752, Note_on_c, 0, 60, 28
1, 38775, Control_c, 0, 64, 109
1, 38790, Control_c, 0, 64, 96
1, 38804, Control_c, 0, 64, 84
1, 38819, Control_c, 0, 64, 71
1, 38834, Control_c, 0, 64, 35
1, 38849, Control_c, 0, 64, 0
1, 38875, Poly_aftertouch_c, 0, 55, 0
1, 38893, Control_c, 0, 64, 63
1, 38908, Control_c, 0, 64, 70
1, 38923, Control_c, 0, 64, 75
1, 38938, Control_c, 0, 64, 79
1, 38953, Control_c, 0, 64, 81
1, 38968, Control_c, 0, 64, 82
1, 38983, Control_c, 0, 64, 84
1, 38997, Control_c, 0, 64, 85
1, 39012, Control_c, 0, 64, 87
1, 39027, Note_off_c, 0, 60, 41
1, 39027, Control_c, 0, 64, 89
1, 39042, Control_c, 0, 64, 90
1, 39051, Note_off_c, 0, 76, 59
1, 39057, Control_c, 0, 64, 91
1, 39072, Control_c, 0, 64, 93
1, 39086, Control_c, 0, 64, 94
1, 39099, Note_off_c, 0, 67, 59
1, 39101, Control_c, 0, 64, 95
1, 39116, Control_c, 0, 64, 96
1, 39130, Control_c, 0, 64, 97
1, 39145, Control_c, 0, 64, 97
1, 39150, Note_off_c, 0, 52, 38
1, 39160, Control_c, 0, 64, 98
1, 39175, Control_c, 0, 64, 99
1, 39190, Control_c, 0, 64, 100
1, 39204, Control_c, 0, 64, 100
1, 39219, Control_c, 0, 64, 101
1, 39363, Note_on_c, 0, 74, 69
1, 39372, Note_on_c, 0, 53, 48
1, 39376, Control_c, 0, 64, 99
1, 39383, Note_on_c, 0, 69, 50
1, 39391, Note_on_c, 0, 65, 43
1, 39391, Control_c, 0, 64, 93
1, 39406, Control_c, 0, 64, 82
1, 39421, Control_c, 0, 64, 67
1, 39435, Control_c, 0, 64, 0
1, 39495, Control_c, 0, 64, 18
1, 39509, Control_c, 0, 64, 60
1, 39524, Control_c, 0, 64, 66
1, 39530, Note_off_c, 0, 65, 44
1, 39539, Control_c, 0, 64, 70
1, 39553, Control_c, 0, 64, 75
1, 39568, Control_c, 0, 64, 80
1, 39583, Control_c, 0, 64, 83
1, 39590, Note_off_c, 0, 69, 59
1, 39597, Control_c, 0, 64, 84
1, 39612, Control_c, 0, 64, 85
1, 39626, Control_c, 0, 64, 86
1, 39635, Note_off_c, 0, 53, 52
1, 39641, Control_c, 0, 64, 87
1, 39652, Note_off_c, 0, 74, 57
1, 39653, Note_on_c, 0, 55, 39
1, 39656, Control_c, 0, 64, 88
1, 39671, Control_c, 0, 64, 88
1, 39674, Note_on_c, 0, 64, 47
1, 39760, Control_c, 0, 64, 88
1, 39775, Control_c, 0, 64, 87
1, 39783, Note_on_c, 0, 67, 47
1, 39790, Control_c, 0, 64, 86
1, 39805, Control_c, 0, 64, 83
1, 39819, Control_c, 0, 64, 79
1, 39822, Note_on_c, 0, 74, 60
1, 39834, Control_c, 0, 64, 72
1, 39849, Control_c, 0, 64, 63
1, 39864, Control_c, 0, 64, 0
1, 39906, Note_on_c, 0, 72, 67
1, 39924, Note_off_c, 0, 74, 62
1, 40079, Control_c, 0, 67, 8
1, 40094, Control_c, 0, 67, 12
1, 40109, Control_c, 0, 64, 47
1, 40109, Control_c, 0, 67, 16
1, 40124, Control_c, 0, 64, 59
1, 40124, Control_c, 0, 67, 24
1, 40139, Control_c, 0, 64, 63
1, 40139, Control_c, 0, 67, 34
1, 40154, Control_c, 0, 64, 66
1, 40154, Control_c, 0, 67, 48
1, 40169, Control_c, 0, 64, 69
1, 40169, Control_c, 0, 67, 61
1, 40183, Control_c, 0, 64, 74
1, 40183, Control_c, 0, 67, 71
1, 40198, Control_c, 0, 64, 79
1, 40198, Control_c, 0, 67, 80
1, 40213, Control_c, 0, 64, 81
1, 40213, Control_c, 0, 67, 89
1, 40228, Control_c, 0, 64, 82
1, 40228, Control_c, 0, 67, 98
1, 40243, Control_c, 0, 67, 108
1, 40257, Control_c, 0, 67, 118
1, 40272, Control_c, 0, 67, 125
1, 40287, Control_c, 0, 67, 127
1, 40427, Note_off_c, 0, 64, 40
1, 40435, Control_c, 0, 64, 82
1, 40449, Control_c, 0, 64, 83
1, 40464, Control_c, 0, 64, 84
1, 40479, Control_c, 0, 64, 85
1, 40480, Note_off_c, 0, 67, 32
1, 40482, Note_off_c, 0, 55, 35
1, 40494, Control_c, 0, 64, 86
1, 40693, Note_off_c, 0, 72, 50
1, 40701, Control_c, 0, 64, 85
1, 40723, Control_c, 0, 64, 83
1, 40738, Control_c, 0, 64, 79
1, 40744, Note_on_c, 0, 71, 50
1, 40753, Control_c, 0, 64, 71
1, 40762, Note_on_c, 0, 43, 28
1, 40762, Note_on_c, 0, 55, 29
1, 40768, Control_c, 0, 64, 48
1, 40777, Note_on_c, 0, 67, 20
1, 40779, Note_on_c, 0, 62, 24
1, 40783, Control_c, 0, 64, 0
1, 40844, Note_off_c, 0, 62, 0
1, 40872, Control_c, 0, 64, 19
1, 40881, Poly_aftertouch_c, 0, 62, 127
1, 40887, Control_c, 0, 64, 61
1, 40902, Control_c, 0, 64, 67
1, 40917, Control_c, 0, 64, 70
1, 40931, Note_off_c, 0, 67, 36
1, 40932, Control_c, 0, 64, 73
1, 40934, Note_off_c, 0, 55, 39
1, 40938, Poly_aftertouch_c, 0, 62, 0
1, 40947, Control_c, 0, 64, 76
1, 40962, Control_c, 0, 64, 78
1, 40977, Control_c, 0, 64, 79
1, 40999, Note_off_c, 0, 43, 38
1, 41006, Control_c, 0, 64, 80
1, 41111, Control_c, 0, 64, 79
1, 41120, Note_on_c, 0, 72, 54
1, 41123, Note_on_c, 0, 48, 33
1, 41123, Note_on_c, 0, 55, 34
1, 41125, Control_c, 0, 64, 76
1, 41131, Note_off_c, 0, 71, 33
1, 41132, Note_on_c, 0, 67, 27
1, 41140, Control_c, 0, 64, 70
1, 41144, Note_on_c, 0, 64, 34
1, 41155, Control_c, 0, 64, 56
1, 41170, Control_c, 0, 64, 0
1, 41317, Control_c, 0, 64, 54
1, 41332, Control_c, 0, 64, 63
1, 41347, Control_c, 0, 64, 65
1, 41362, Control_c, 0, 64, 67
1, 41377, Control_c, 0, 64, 70
1, 41391, Control_c, 0, 64, 72
1, 41406, Control_c, 0, 64, 75
1, 41421, Control_c, 0, 64, 78
1, 41436, Control_c, 0, 64, 79
1, 41447, Note_off_c, 0, 48, 44
1, 41449, Note_off_c, 0, 64, 39
1, 41451, Control_c, 0, 64, 79
1, 41473, Control_c, 0, 64, 80
1, 41488, Control_c, 0, 64, 80
1, 41503, Control_c, 0, 64, 81
1, 41518, Control_c, 0, 64, 81
1, 41547, Control_c, 0, 64, 82
1, 41652, Control_c, 0, 64, 82
1, 41824, Note_on_c, 0, 48, 27
1, 41844, Note_on_c, 0, 64, 26
1, 41924, Note_off_c, 0, 67, 36
1, 41959, Note_off_c, 0, 48, 42
1, 41981, Note_off_c, 0, 64, 40
1, 42038, Note_off_c, 0, 72, 51
1, 42296, Note_off_c, 0, 55, 32
1, 42564, Control_c, 0, 64, 82
1, 42578, Control_c, 0, 64, 81
1, 42593, Control_c, 0, 64, 79
1, 42608, Control_c, 0, 64, 75
1, 42615, Note_on_c, 0, 76, 43
1, 42622, Note_on_c, 0, 48, 36
1, 42623, Control_c, 0, 64, 68
1, 42632, Note_on_c, 0, 60, 19
1, 42638, Control_c, 0, 64, 45
1, 42652, Control_c, 0, 64, 0
1, 42655, Note_on_c, 0, 67, 11
1, 42771, Control_c, 0, 64, 60
1, 42786, Control_c, 0, 64, 68
1, 42801, Control_c, 0, 64, 72
1, 42816, Control_c, 0, 64, 76
1, 42831, Control_c, 0, 64, 78
1, 42845, Control_c, 0, 64, 79
1, 42860, Control_c, 0, 64, 80
1, 42865, Note_off_c, 0, 48, 39
1, 42875, Control_c, 0, 64, 82
1, 42887, Note_off_c, 0, 67, 38
1, 42890, Control_c, 0, 64, 83
1, 42904, Control_c, 0, 64, 84
1, 42934, Control_c, 0, 64, 84
1, 42947, Note_off_c, 0, 60, 34
1, 42986, Control_c, 0, 64, 85
1, 43104, Control_c, 0, 64, 84
1, 43119, Control_c, 0, 64, 83
1, 43134, Control_c, 0, 64, 78
1, 43149, Control_c, 0, 64, 68
1, 43159, Note_on_c, 0, 77, 60
1, 43160, Note_on_c, 0, 53, 33
1, 43164, Control_c, 0, 64, 0
1, 43167, Note_on_c, 0, 69, 38
1, 43167, Note_off_c, 0, 76, 35
1, 43191, Note_on_c, 0, 60, 3
1, 43238, Control_c, 0, 64, 56
1, 43254, Control_c, 0, 64, 66
1, 43268, Control_c, 0, 64, 69
1, 43282, Note_off_c, 0, 69, 58
1, 43283, Control_c, 0, 64, 73
1, 43298, Control_c, 0, 64, 75
1, 43306, Note_off_c, 0, 60, 33
1, 43313, Control_c, 0, 64, 77
1, 43327, Control_c, 0, 64, 78
1, 43341, Control_c, 0, 64, 79
1, 43356, Control_c, 0, 64, 80
1, 43409, Note_off_c, 0, 53, 37
1, 43435, Note_off_c, 0, 77, 57
1, 43440, Note_on_c, 0, 76, 62
1, 43457, Note_on_c, 0, 55, 36
1, 43457, Note_on_c, 0, 60, 24
1, 43458, Note_on_c, 0, 67, 46
1, 43460, Control_c, 0, 64, 78
1, 43475, Control_c, 0, 64, 73
1, 43490, Control_c, 0, 64, 65
1, 43505, Control_c, 0, 64, 0
1, 43564, Note_off_c, 0, 60, 0
1, 43600, Poly_aftertouch_c, 0, 60, 127
1, 43608, Control_c, 0, 64, 24
1, 43623, Control_c, 0, 64, 61
1, 43638, Control_c, 0, 64, 66
1, 43653, Control_c, 0, 64, 68
1, 43667, Control_c, 0, 64, 71
1, 43682, Control_c, 0, 64, 74
1, 43697, Control_c, 0, 64, 77
1, 43719, Control_c, 0, 64, 79
1, 43727, Poly_aftertouch_c, 0, 60, 0
1, 43734, Control_c, 0, 64, 79
1, 43734, Note_off_c, 0, 67, 33
1, 43748, Note_off_c, 0, 55, 43
1, 43749, Control_c, 0, 64, 80
1, 43764, Control_c, 0, 64, 81
1, 43779, Control_c, 0, 64, 81
1, 43808, Control_c, 0, 64, 82
1, 43835, Note_off_c, 0, 76, 37
1, 43852, Control_c, 0, 64, 82
1, 43956, Control_c, 0, 64, 81
1, 43968, Note_on_c, 0, 72, 60
1, 43971, Control_c, 0, 64, 78
1, 43983, Note_on_c, 0, 69, 46
1, 43986, Control_c, 0, 64, 71
1, 44000, Control_c, 0, 64, 53
1, 44001, Note_on_c, 0, 53, 29
1, 44003, Note_on_c, 0, 60, 16
1, 44015, Control_c, 0, 64, 0
1, 44076, Control_c, 0, 64, 49
1, 44091, Control_c, 0, 64, 65
1, 44106, Control_c, 0, 64, 68
1, 44107, Note_off_c, 0, 69, 60
1, 44121, Control_c, 0, 64, 71
1, 44133, Note_off_c, 0, 60, 29
1, 44136, Control_c, 0, 64, 72
1, 44150, Control_c, 0, 64, 74
1, 44165, Control_c, 0, 64, 75
1, 44180, Control_c, 0, 64, 76
1, 44192, Note_off_c, 0, 53, 39
1, 44195, Control_c, 0, 64, 77
1, 44243, Note_off_c, 0, 72, 59
1, 44249, Note_on_c, 0, 76, 61
1, 44254, Control_c, 0, 64, 76
1, 44259, Note_on_c, 0, 60, 16
1, 44262, Note_on_c, 0, 55, 35
1, 44269, Control_c, 0, 64, 74
1, 44274, Note_on_c, 0, 67, 41
1, 44284, Control_c, 0, 64, 70
1, 44298, Control_c, 0, 64, 57
1, 44313, Control_c, 0, 64, 0
1, 44402, Control_c, 0, 64, 55
1, 44417, Control_c, 0, 64, 65
1, 44432, Control_c, 0, 64, 69
1, 44447, Control_c, 0, 64, 72
1, 44468, Control_c, 0, 64, 74
1, 44483, Control_c, 0, 64, 76
1, 44485, Note_off_c, 0, 67, 40
1, 44498, Control_c, 0, 64, 77
1, 44513, Control_c, 0, 64, 78
1, 44526, Note_off_c, 0, 55, 44
1, 44528, Control_c, 0, 64, 79
1, 44529, Note_off_c, 0, 60, 33
1, 44542, Control_c, 0, 64, 79
1, 44557, Control_c, 0, 64, 80
1, 44572, Control_c, 0, 64, 80
1, 44587, Control_c, 0, 64, 81
1, 44631, Control_c, 0, 64, 81
1, 44765, Control_c, 0, 64, 80
1, 44780, Control_c, 0, 64, 77
1, 44786, Note_on_c, 0, 77, 63
1, 44795, Control_c, 0, 64, 69
1, 44799, Note_on_c, 0, 57, 34
1, 44803, Note_on_c, 0, 65, 43
1, 44807, Note_off_c, 0, 76, 36
1, 44810, Control_c, 0, 64, 10
1, 44812, Note_on_c, 0, 60, 22
1, 44824, Control_c, 0, 64, 0
1, 44885, Control_c, 0, 64, 61
1, 44900, Control_c, 0, 64, 68
1, 44903, Note_off_c, 0, 65, 59
1, 44914, Control_c, 0, 64, 72
1, 44929, Control_c, 0, 64, 74
1, 44944, Control_c, 0, 64, 75
1, 44950, Note_off_c, 0, 60, 34
1, 44959, Control_c, 0, 64, 76
1, 44973, Control_c, 0, 64, 77
1, 44988, Control_c, 0, 64, 78
1, 45055, Note_off_c, 0, 77, 56
1, 45067, Note_off_c, 0, 57, 35
1, 45073, Note_on_c, 0, 76, 54
1, 45087, Note_on_c, 0, 55, 37
1, 45088, Note_on_c, 0, 67, 47
1, 45091, Control_c, 0, 64, 77
1, 45093, Note_on_c, 0, 60, 23
1, 45106, Control_c, 0, 64, 72
1, 45121, Control_c, 0, 64, 61
1, 45136, Control_c, 0, 64, 0
1, 45247, Control_c, 0, 64, 57
1, 45262, Control_c, 0, 64, 66
1, 45277, Control_c, 0, 64, 69
1, 45291, Control_c, 0, 64, 72
1, 45306, Control_c, 0, 64, 75
1, 45321, Control_c, 0, 64, 77
1, 45336, Control_c, 0, 64, 78
1, 45351, Control_c, 0, 64, 79
1, 45365, Control_c, 0, 64, 80
1, 45380, Control_c, 0, 64, 81
1, 45395, Control_c, 0, 64, 81
1, 45428, Note_off_c, 0, 60, 34
1, 45440, Control_c, 0, 64, 82
1, 45472, Note_on_c, 0, 74, 58
1, 45521, Note_off_c, 0, 67, 28
1, 45539, Note_off_c, 0, 55, 27
1, 45573, Control_c, 0, 64, 80
1, 45588, Control_c, 0, 64, 74
1, 45601, Note_off_c, 0, 74, 58
1, 45601, Note_off_c, 0, 76, 17
1, 45602, Note_on_c, 0, 72, 59
1, 45603, Control_c, 0, 64, 65
1, 45612, Note_on_c, 0, 69, 44
1, 45618, Control_c, 0, 64, 0
1, 45621, Note_on_c, 0, 60, 18
1, 45636, Note_on_c, 0, 53, 24
1, 45737, Control_c, 0, 64, 62
1, 45752, Control_c, 0, 64, 67
1, 45763, Note_off_c, 0, 69, 62
1, 45767, Control_c, 0, 64, 71
1, 45771, Note_off_c, 0, 60, 35
1, 45782, Control_c, 0, 64, 74
1, 45796, Control_c, 0, 64, 76
1, 45811, Control_c, 0, 64, 77
1, 45826, Control_c, 0, 64, 78
1, 45841, Control_c, 0, 64, 79
1, 45867, Note_off_c, 0, 53, 42
1, 45870, Control_c, 0, 64, 79
1, 45907, Note_off_c, 0, 72, 60
1, 45911, Note_on_c, 0, 76, 61
1, 45926, Note_on_c, 0, 55, 26
1, 45930, Control_c, 0, 64, 79
1, 45937, Note_on_c, 0, 60, 35
1, 45937, Note_on_c, 0, 67, 42
1, 45945, Control_c, 0, 64, 78
1, 45967, Control_c, 0, 64, 73
1, 45982, Control_c, 0, 64, 63
1, 45997, Control_c, 0, 64, 0
1, 46086, Control_c, 0, 64, 54
1, 46101, Control_c, 0, 64, 65
1, 46115, Control_c, 0, 64, 68
1, 46130, Control_c, 0, 64, 70
1, 46145, Control_c, 0, 64, 72
1, 46160, Control_c, 0, 64, 74
1, 46166, Note_off_c, 0, 67, 39
1, 46175, Control_c, 0, 64, 75
1, 46189, Control_c, 0, 64, 77
1, 46194, Note_off_c, 0, 60, 36
1, 46204, Control_c, 0, 64, 78
1, 46208, Note_off_c, 0, 55, 43
1, 46234, Control_c, 0, 64, 78
1, 46263, Control_c, 0, 64, 79
1, 46278, Control_c, 0, 64, 79
1, 46293, Control_c, 0, 64, 80
1, 46308, Control_c, 0, 64, 80
1, 46411, Control_c, 0, 64, 80
1, 46426, Control_c, 0, 64, 77
1, 46442, Control_c, 0, 64, 70
1, 46453, Note_on_c, 0, 77, 64
1, 46457, Control_c, 0, 64, 54
1, 46468, Note_off_c, 0, 76, 38
1, 46471, Note_on_c, 0, 65, 41
1, 46472, Control_c, 0, 64, 0
1, 46474, Note_on_c, 0, 57, 26
1, 46488, Note_on_c, 0, 60, 13
1, 46545, Control_c, 0, 64, 32
1, 46560, Control_c, 0, 64, 64
1, 46575, Control_c, 0, 64, 69
1, 46590, Note_off_c, 0, 65, 53
1, 46590, Control_c, 0, 64, 73
1, 46605, Control_c, 0, 64, 76
1, 46612, Note_off_c, 0, 60, 36
1, 46620, Control_c, 0, 64, 77
1, 46634, Control_c, 0, 64, 79
1, 46649, Control_c, 0, 64, 80
1, 46664, Control_c, 0, 64, 81
1, 46679, Control_c, 0, 64, 81
1, 46756, Note_off_c, 0, 77, 56
1, 46757, Note_off_c, 0, 57, 37
1, 46767, Note_on_c, 0, 76, 60
1, 46786, Note_on_c, 0, 67, 49
1, 46787, Note_on_c, 0, 55, 35
1, 46790, Control_c, 0, 64, 81
1, 46794, Note_on_c, 0, 60, 21
1, 46805, Control_c, 0, 64, 78
1, 46819, Control_c, 0, 64, 72
1, 46834, Control_c, 0, 64, 50
1, 46849, Control_c, 0, 64, 0
1, 46924, Control_c, 0, 64, 32
1, 46938, Control_c, 0, 64, 62
1, 46953, Control_c, 0, 64, 66
1, 46968, Control_c, 0, 64, 69
1, 46983, Control_c, 0, 64, 71
1, 46998, Control_c, 0, 64, 73
1, 47012, Control_c, 0, 64, 75
1, 47027, Control_c, 0, 64, 77
1, 47033, Note_off_c, 0, 55, 42
1, 47042, Control_c, 0, 64, 78
1, 47057, Control_c, 0, 64, 79
1, 47087, Control_c, 0, 64, 79
1, 47116, Note_off_c, 0, 60, 39
1, 47117, Control_c, 0, 64, 80
1, 47161, Control_c, 0, 64, 80
1, 47251, Note_off_c, 0, 67, 25
1, 47255, Note_on_c, 0, 74, 61
1, 47271, Note_off_c, 0, 76, 37
1, 47369, Control_c, 0, 64, 80
1, 47384, Control_c, 0, 64, 77
1, 47399, Control_c, 0, 64, 70
1, 47413, Note_on_c, 0, 72, 64
1, 47414, Control_c, 0, 64, 46
1, 47421, Note_on_c, 0, 64, 49
1, 47426, Note_off_c, 0, 74, 48
1, 47429, Control_c, 0, 64, 0
1, 47434, Note_on_c, 0, 55, 36
1, 47436, Note_on_c, 0, 67, 38
1, 47525, Control_c, 0, 64, 25
1, 47540, Control_c, 0, 64, 63
1, 47555, Control_c, 0, 64, 68
1, 47569, Control_c, 0, 64, 72
1, 47584, Control_c, 0, 64, 75
1, 47599, Control_c, 0, 64, 77
1, 47614, Control_c, 0, 64, 78
1, 47629, Control_c, 0, 64, 79
1, 47637, Note_off_c, 0, 55, 44
1, 47643, Control_c, 0, 64, 80
1, 47658, Control_c, 0, 64, 80
1, 47673, Control_c, 0, 64, 81
1, 47680, Note_off_c, 0, 64, 55
1, 47687, Control_c, 0, 64, 82
1, 47732, Control_c, 0, 64, 82
1, 47791, Note_off_c, 0, 72, 0
1, 47827, Note_off_c, 0, 67, 22
1, 47829, Poly_aftertouch_c, 0, 72, 127
1, 47953, Control_c, 0, 64, 82
1, 47966, Note_on_c, 0, 74, 64
1, 47967, Control_c, 0, 64, 79
1, 47976, Note_on_c, 0, 69, 52
1, 47982, Control_c, 0, 64, 74
1, 47986, Note_on_c, 0, 65, 42
1, 47990, Poly_aftertouch_c, 0, 72, 0
1, 47997, Control_c, 0, 64, 66
1, 48012, Control_c, 0, 64, 0
1, 48014, Note_on_c, 0, 55, 15
1, 48146, Control_c, 0, 64, 47
1, 48161, Control_c, 0, 64, 66
1, 48176, Control_c, 0, 64, 69
1, 48191, Control_c, 0, 64, 72
1, 48213, Control_c, 0, 64, 75
1, 48228, Control_c, 0, 64, 77
1, 48243, Control_c, 0, 64, 78
1, 48258, Control_c, 0, 64, 79
1, 48272, Control_c, 0, 64, 80
1, 48287, Control_c, 0, 64, 81
1, 48291, Note_off_c, 0, 65, 31
1, 48302, Control_c, 0, 64, 82
1, 48316, Control_c, 0, 64, 83
1, 48331, Control_c, 0, 64, 84
1, 48346, Control_c, 0, 64, 84
1, 48361, Control_c, 0, 64, 85
1, 48377, Note_off_c, 0, 69, 39
1, 48390, Control_c, 0, 64, 85
1, 48405, Control_c, 0, 64, 86
1, 48483, Note_off_c, 0, 55, 42
1, 48495, Control_c, 0, 64, 86
1, 48776, Control_c, 0, 64, 86
1, 48790, Control_c, 0, 64, 85
1, 48805, Control_c, 0, 64, 81
1, 48809, Note_on_c, 0, 71, 41
1, 48820, Control_c, 0, 64, 75
1, 48824, Note_on_c, 0, 55, 19
1, 48836, Control_c, 0, 64, 62
1, 48843, Note_on_c, 0, 65, 19
1, 48851, Control_c, 0, 64, 0
1, 48873, Poly_aftertouch_c, 0, 67, 127
1, 48925, Control_c, 0, 64, 63
1, 48939, Control_c, 0, 64, 67
1, 48962, Control_c, 0, 64, 70
1, 48977, Control_c, 0, 64, 71
1, 48992, Control_c, 0, 64, 72
1, 49004, Note_off_c, 0, 74, 58
1, 49007, Control_c, 0, 64, 74
1, 49014, Note_off_c, 0, 65, 41
1, 49021, Control_c, 0, 64, 75
1, 49036, Control_c, 0, 64, 77
1, 49044, Poly_aftertouch_c, 0, 67, 0
1, 49051, Control_c, 0, 64, 78
1, 49065, Control_c, 0, 64, 78
1, 49095, Control_c, 0, 64, 79
1, 49273, Control_c, 0, 64, 78
1, 49288, Control_c, 0, 64, 75
1, 49289, Note_on_c, 0, 72, 52
1, 49299, Note_off_c, 0, 71, 54
1, 49302, Control_c, 0, 64, 70
1, 49317, Control_c, 0, 64, 56
1, 49319, Note_on_c, 0, 48, 31
1, 49320, Note_on_c, 0, 64, 32
1, 49328, Note_on_c, 0, 67, 20
1, 49332, Control_c, 0, 64, 0
1, 49435, Note_off_c, 0, 55, 23
1, 49480, Control_c, 0, 64, 18
1, 49495, Control_c, 0, 64, 61
1, 49510, Control_c, 0, 64, 66
1, 49525, Control_c, 0, 64, 67
1, 49539, Control_c, 0, 64, 68
1, 49554, Control_c, 0, 64, 69
1, 49569, Control_c, 0, 64, 72
1, 49584, Control_c, 0, 64, 76
1, 49599, Control_c, 0, 64, 79
1, 49613, Control_c, 0, 64, 80
1, 49629, Control_c, 0, 64, 80
1, 49644, Control_c, 0, 64, 81
1, 49659, Control_c, 0, 64, 82
1, 49666, Note_off_c, 0, 64, 36
1, 49674, Control_c, 0, 64, 83
1, 49688, Control_c, 0, 64, 83
1, 49711, Control_c, 0, 64, 84
1, 49718, Note_off_c, 0, 48, 43
1, 49726, Control_c, 0, 64, 85
1, 49756, Control_c, 0, 64, 86
1, 49770, Control_c, 0, 64, 86
1, 49785, Control_c, 0, 64, 87
1, 49800, Control_c, 0, 64, 87
1, 49815, Control_c, 0, 64, 88
1, 49859, Control_c, 0, 64, 88
1, 49943, Note_on_c, 0, 48, 48
1, 49958, Note_on_c, 0, 64, 32
1, 49996, Note_off_c, 0, 67, 41
1, 50036, Note_off_c, 0, 64, 55
1, 50080, Control_c, 0, 64, 89
1, 50399, Note_on_c, 0, 70, 62
1, 50406, Note_off_c, 0, 72, 55
1, 50417, Note_on_c, 0, 50, 54
1, 50417, Note_off_c, 0, 48, 54
1, 50420, Note_on_c, 0, 65, 48
1, 50420, Control_c, 0, 64, 88
1, 50432, Note_on_c, 0, 62, 39
1, 50437, Control_c, 0, 64, 86
1, 50459, Control_c, 0, 64, 82
1, 50474, Control_c, 0, 64, 75
1, 50489, Control_c, 0, 64, 66
1, 50504, Control_c, 0, 64, 0
1, 50607, Control_c, 0, 64, 49
1, 50622, Control_c, 0, 64, 64
1, 50626, Note_off_c, 0, 62, 58
1, 50637, Control_c, 0, 64, 69
1, 50652, Control_c, 0, 64, 73
1, 50666, Control_c, 0, 64, 76
1, 50681, Control_c, 0, 64, 78
1, 50696, Control_c, 0, 64, 79
1, 50700, Note_off_c, 0, 65, 64
1, 50710, Control_c, 0, 64, 79
1, 50725, Control_c, 0, 64, 80
1, 50740, Control_c, 0, 64, 81
1, 50755, Control_c, 0, 64, 82
1, 50770, Control_c, 0, 64, 83
1, 50784, Control_c, 0, 64, 83
1, 50799, Control_c, 0, 64, 84
1, 50830, Control_c, 0, 64, 84
1, 50845, Control_c, 0, 64, 85
1, 51003, Note_off_c, 0, 50, 56
1, 51009, Note_on_c, 0, 52, 57
1, 51014, Note_on_c, 0, 61, 39
1, 51016, Note_on_c, 0, 67, 49
1, 51022, Control_c, 0, 64, 84
1, 51037, Control_c, 0, 64, 82
1, 51052, Control_c, 0, 64, 76
1, 51067, Control_c, 0, 64, 68
1, 51082, Control_c, 0, 64, 0
1, 51185, Control_c, 0, 64, 52
1, 51200, Control_c, 0, 64, 65
1, 51222, Control_c, 0, 64, 69
1, 51238, Control_c, 0, 64, 72
1, 51253, Control_c, 0, 64, 75
1, 51262, Note_off_c, 0, 70, 54
1, 51268, Control_c, 0, 64, 77
1, 51283, Control_c, 0, 64, 78
1, 51297, Control_c, 0, 64, 79
1, 51312, Control_c, 0, 64, 80
1, 51327, Control_c, 0, 64, 81
1, 51341, Control_c, 0, 64, 82
1, 51356, Control_c, 0, 64, 82
1, 51386, Note_off_c, 0, 61, 35
1, 51386, Control_c, 0, 64, 83
1, 51431, Control_c, 0, 64, 83
1, 51534, Control_c, 0, 64, 83
1, 51549, Control_c, 0, 64, 81
1, 51552, Note_on_c, 0, 53, 38
1, 51557, Note_on_c, 0, 69, 42
1, 51564, Control_c, 0, 64, 76
1, 51579, Control_c, 0, 64, 68
1, 51584, Note_on_c, 0, 60, 35
1, 51594, Note_off_c, 0, 52, 29
1, 51594, Control_c, 0, 64, 0
1, 51815, Control_c, 0, 64, 55
1, 51830, Control_c, 0, 64, 66
1, 51845, Control_c, 0, 64, 70
1, 51860, Control_c, 0, 64, 73
1, 51875, Control_c, 0, 64, 76
1, 51890, Control_c, 0, 64, 79
1, 51905, Control_c, 0, 64, 80
1, 51920, Control_c, 0, 64, 82
1, 51934, Control_c, 0, 64, 83
1, 51941, Note_off_c, 0, 53, 53
1, 51956, Control_c, 0, 64, 84
1, 51971, Control_c, 0, 64, 85
1, 51986, Control_c, 0, 64, 85
1, 52001, Control_c, 0, 64, 86
1, 52015, Control_c, 0, 64, 86
1, 52035, Note_off_c, 0, 60, 34
1, 52043, Note_off_c, 0, 67, 36
1, 52046, Control_c, 0, 64, 87
1, 52057, Note_off_c, 0, 69, 31
1, 52090, Control_c, 0, 64, 87
1, 52438, Note_on_c, 0, 72, 50
1, 52450, Note_on_c, 0, 69, 39
1, 52459, Note_on_c, 0, 60, 31
1, 52467, Note_on_c, 0, 65, 38
1, 52513, Note_off_c, 0, 65, 47
1, 52522, Note_off_c, 0, 60, 52
1, 52550, Note_off_c, 0, 69, 57
1, 52584, Note_off_c, 0, 72, 62
1, 52804, Note_on_c, 0, 72, 62
1, 52820, Note_on_c, 0, 53, 40
1, 52821, Note_on_c, 0, 60, 33
1, 52821, Note_on_c, 0, 69, 44
1, 52840, Control_c, 0, 64, 87
1, 52854, Control_c, 0, 64, 85
1, 52869, Control_c, 0, 64, 84
1, 52884, Control_c, 0, 64, 81
1, 52899, Control_c, 0, 64, 74
1, 52913, Control_c, 0, 64, 64
1, 52928, Control_c, 0, 64, 0
1, 52987, Control_c, 0, 64, 13
1, 53002, Control_c, 0, 64, 64
1, 53017, Control_c, 0, 64, 70
1, 53032, Control_c, 0, 64, 75
1, 53047, Control_c, 0, 64, 78
1, 53061, Control_c, 0, 64, 79
1, 53070, Note_off_c, 0, 53, 59
1, 53076, Control_c, 0, 64, 79
1, 53083, Note_off_c, 0, 60, 40
1, 53091, Control_c, 0, 64, 80
1, 53100, Note_off_c, 0, 69, 48
1, 53106, Control_c, 0, 64, 81
1, 53121, Control_c, 0, 64, 82
1, 53133, Note_off_c, 0, 72, 57
1, 53136, Control_c, 0, 64, 82
1, 53151, Control_c, 0, 64, 83
1, 53225, Control_c, 0, 64, 83
1, 53314, Note_on_c, 0, 72, 74
1, 53345, Note_on_c, 0, 69, 45
1, 53351, Note_on_c, 0, 53, 35
1, 53364, Note_on_c, 0, 60, 26
1, 53409, Note_off_c, 0, 60, 45
1, 53416, Note_off_c, 0, 69, 39
1, 53422, Note_off_c, 0, 53, 53
1, 53663, Control_c, 0, 64, 83
1, 53677, Control_c, 0, 64, 80
1, 53678, Note_on_c, 0, 76, 71
1, 53692, Control_c, 0, 64, 76
1, 53700, Note_on_c, 0, 70, 50
1, 53707, Control_c, 0, 64, 68
1, 53708, Note_on_c, 0, 60, 37
1, 53715, Note_on_c, 0, 53, 37
1, 53719, Note_off_c, 0, 72, 43
1, 53722, Control_c, 0, 64, 0
1, 53854, Control_c, 0, 64, 34
1, 53869, Control_c, 0, 64, 64
1, 53884, Control_c, 0, 64, 70
1, 53899, Control_c, 0, 64, 74
1, 53914, Control_c, 0, 64, 77
1, 53929, Control_c, 0, 64, 78
1, 53943, Note_off_c, 0, 53, 48
1, 53943, Note_off_c, 0, 60, 54
1, 53944, Control_c, 0, 64, 78
1, 53959, Control_c, 0, 64, 79
1, 53973, Control_c, 0, 64, 79
1, 53988, Note_off_c, 0, 70, 41
1, 53988, Control_c, 0, 64, 80
1, 54003, Control_c, 0, 64, 80
1, 54048, Control_c, 0, 64, 81
1, 54066, Note_on_c, 0, 74, 67
1, 54151, Control_c, 0, 64, 80
1, 54181, Control_c, 0, 64, 78
1, 54186, Note_off_c, 0, 76, 31
1, 54196, Note_on_c, 0, 72, 67
1, 54196, Control_c, 0, 64, 72
1, 54198, Note_on_c, 0, 70, 60
1, 54208, Note_off_c, 0, 74, 58
1, 54218, Control_c, 0, 64, 61
1, 54229, Note_on_c, 0, 60, 32
1, 54230, Note_on_c, 0, 53, 33
1, 54233, Control_c, 0, 64, 0
1, 54322, Control_c, 0, 64, 25
1, 54336, Control_c, 0, 64, 63
1, 54351, Control_c, 0, 64, 68
1, 54366, Control_c, 0, 64, 72
1, 54381, Control_c, 0, 64, 75
1, 54396, Control_c, 0, 64, 76
1, 54406, Note_off_c, 0, 53, 40
1, 54410, Note_off_c, 0, 60, 37
1, 54410, Control_c, 0, 64, 77
1, 54426, Control_c, 0, 64, 78
1, 54441, Control_c, 0, 64, 79
1, 54444, Note_off_c, 0, 70, 48
1, 54456, Control_c, 0, 64, 79
1, 54471, Control_c, 0, 64, 80
1, 54500, Control_c, 0, 64, 80
1, 54583, Note_on_c, 0, 77, 76
1, 54589, Control_c, 0, 64, 80
1, 54597, Note_on_c, 0, 53, 29
1, 54598, Note_on_c, 0, 69, 41
1, 54603, Note_on_c, 0, 60, 24
1, 54604, Note_off_c, 0, 72, 59
1, 54604, Control_c, 0, 64, 78
1, 54619, Control_c, 0, 64, 73
1, 54633, Control_c, 0, 64, 64
1, 54648, Control_c, 0, 64, 0
1, 54751, Control_c, 0, 64, 54
1, 54766, Control_c, 0, 64, 68
1, 54781, Control_c, 0, 64, 72
1, 54796, Control_c, 0, 64, 76
1, 54811, Control_c, 0, 64, 77
1, 54826, Control_c, 0, 64, 78
1, 54837, Note_off_c, 0, 77, 57
1, 54841, Control_c, 0, 64, 79
1, 54852, Note_off_c, 0, 60, 39
1, 54856, Control_c, 0, 64, 80
1, 54871, Control_c, 0, 64, 81
1, 54871, Note_off_c, 0, 53, 40
1, 54885, Control_c, 0, 64, 81
1, 54900, Control_c, 0, 64, 82
1, 54930, Control_c, 0, 64, 82
1, 54966, Control_c, 0, 64, 83
1, 55145, Control_c, 0, 64, 82
1, 55154, Note_on_c, 0, 74, 68
1, 55155, Note_on_c, 0, 58, 47
1, 55159, Control_c, 0, 64, 79
1, 55174, Control_c, 0, 64, 73
1, 55181, Note_on_c, 0, 65, 44
1, 55189, Control_c, 0, 64, 59
1, 55199, Note_off_c, 0, 69, 45
1, 55203, Control_c, 0, 64, 0
1, 55262, Note_off_c, 0, 65, 0
1, 55279, Control_c, 0, 64, 61
1, 55294, Control_c, 0, 64, 68
1, 55299, Poly_aftertouch_c, 0, 65, 127
1, 55308, Control_c, 0, 64, 71
1, 55323, Control_c, 0, 64, 74
1, 55338, Control_c, 0, 64, 76
1, 55340, Poly_aftertouch_c, 0, 65, 0
1, 55353, Control_c, 0, 64, 77
1, 55368, Control_c, 0, 64, 78
1, 55382, Control_c, 0, 64, 79
1, 55397, Control_c, 0, 64, 80
1, 55410, Note_off_c, 0, 58, 33
1, 55450, Note_off_c, 0, 74, 56
1, 55458, Note_on_c, 0, 72, 67
1, 55462, Note_on_c, 0, 57, 43
1, 55483, Note_on_c, 0, 65, 47
1, 55500, Control_c, 0, 64, 77
1, 55515, Control_c, 0, 64, 71
1, 55530, Control_c, 0, 64, 26
1, 55545, Control_c, 0, 64, 0
1, 55619, Control_c, 0, 64, 25
1, 55634, Control_c, 0, 64, 64
1, 55649, Control_c, 0, 64, 68
1, 55664, Control_c, 0, 64, 72
1, 55679, Control_c, 0, 64, 74
1, 55682, Note_off_c, 0, 72, 62
1, 55700, Control_c, 0, 64, 76
1, 55715, Control_c, 0, 64, 77
1, 55730, Control_c, 0, 64, 78
1, 55745, Control_c, 0, 64, 79
1, 55760, Control_c, 0, 64, 79
1, 55774, Control_c, 0, 64, 80
1, 55789, Control_c, 0, 64, 80
1, 55797, Note_off_c, 0, 57, 28
1, 55798, Note_off_c, 0, 65, 39
1, 55819, Control_c, 0, 64, 81
1, 55834, Control_c, 0, 64, 81
1, 55863, Control_c, 0, 64, 82
1, 56012, Control_c, 0, 64, 81
1, 56024, Note_on_c, 0, 69, 51
1, 56027, Control_c, 0, 64, 77
1, 56036, Note_on_c, 0, 64, 46
1, 56037, Note_on_c, 0, 57, 29
1, 56039, Note_on_c, 0, 48, 36
1, 56042, Control_c, 0, 64, 69
1, 56057, Control_c, 0, 64, 0
1, 56131, Control_c, 0, 64, 61
1, 56146, Control_c, 0, 64, 67
1, 56161, Control_c, 0, 64, 70
1, 56176, Control_c, 0, 64, 72
1, 56185, Note_off_c, 0, 57, 38
1, 56191, Control_c, 0, 64, 73
1, 56205, Control_c, 0, 64, 75
1, 56220, Control_c, 0, 64, 76
1, 56224, Note_off_c, 0, 69, 38
1, 56227, Note_off_c, 0, 64, 57
1, 56233, Note_off_c, 0, 48, 41
1, 56235, Control_c, 0, 64, 76
1, 56337, Note_on_c, 0, 65, 52
1, 56353, Note_on_c, 0, 60, 44
1, 56353, Control_c, 0, 64, 75
1, 56362, Note_on_c, 0, 57, 20
1, 56364, Note_on_c, 0, 50, 22
1, 56368, Control_c, 0, 64, 71
1, 56383, Control_c, 0, 64, 64
1, 56397, Control_c, 0, 64, 0
1, 56427, Note_off_c, 0, 60, 0
1, 56471, Poly_aftertouch_c, 0, 60, 127
1, 56494, Control_c, 0, 64, 61
1, 56509, Control_c, 0, 64, 68
1, 56523, Control_c, 0, 64, 73
1, 56538, Control_c, 0, 64, 77
1, 56553, Control_c, 0, 64, 78
1, 56573, Poly_aftertouch_c, 0, 60, 0
1, 56583, Control_c, 0, 64, 79
1, 56597, Control_c, 0, 64, 79
1, 56612, Control_c, 0, 64, 80
1, 56627, Control_c, 0, 64, 80
1, 56635, Note_off_c, 0, 50, 36
1, 56642, Control_c, 0, 64, 81
1, 56671, Control_c, 0, 64, 81
1, 56746, Control_c, 0, 64, 82
1, 56786, Note_off_c, 0, 65, 35
1, 56948, Note_on_c, 0, 67, 65
1, 56954, Control_c, 0, 64, 81
1, 56967, Note_on_c, 0, 65, 40
1, 56969, Control_c, 0, 64, 78
1, 56980, Note_off_c, 0, 57, 11
1, 56982, Note_on_c, 0, 43, 34
1, 56984, Control_c, 0, 64, 72
1, 56986, Note_on_c, 0, 58, 34
1, 56987, Note_on_c, 0, 50, 24
1, 56999, Control_c, 0, 64, 62
1, 57014, Control_c, 0, 64, 0
1, 57072, Control_c, 0, 64, 60
1, 57087, Control_c, 0, 64, 67
1, 57102, Control_c, 0, 64, 71
1, 57117, Control_c, 0, 64, 73
1, 57132, Control_c, 0, 64, 74
1, 57141, Note_off_c, 0, 67, 53
1, 57146, Control_c, 0, 64, 75
1, 57161, Control_c, 0, 64, 76
1, 57167, Note_off_c, 0, 58, 33
1, 57176, Control_c, 0, 64, 77
1, 57199, Control_c, 0, 64, 78
1, 57228, Control_c, 0, 64, 79
1, 57339, Note_on_c, 0, 67, 63
1, 57346, Control_c, 0, 64, 78
1, 57350, Note_off_c, 0, 65, 42
1, 57351, Note_on_c, 0, 48, 35
1, 57351, Note_on_c, 0, 64, 49
1, 57355, Note_on_c, 0, 58, 41
1, 57359, Note_off_c, 0, 50, 28
1, 57361, Control_c, 0, 64, 76
1, 57376, Control_c, 0, 64, 72
1, 57391, Control_c, 0, 64, 66
1, 57406, Control_c, 0, 64, 42
1, 57420, Control_c, 0, 64, 0
1, 57427, Note_off_c, 0, 43, 36
1, 57554, Control_c, 0, 64, 54
1, 57569, Control_c, 0, 64, 63
1, 57584, Control_c, 0, 64, 66
1, 57598, Control_c, 0, 64, 67
1, 57613, Control_c, 0, 64, 69
1, 57630, Control_c, 0, 64, 72
1, 57645, Control_c, 0, 64, 75
1, 57659, Control_c, 0, 64, 77
1, 57674, Control_c, 0, 64, 79
1, 57689, Control_c, 0, 64, 79
1, 57703, Note_off_c, 0, 64, 52
1, 57703, Control_c, 0, 64, 80
1, 57718, Control_c, 0, 64, 81
1, 57723, Note_off_c, 0, 48, 40
1, 57733, Control_c, 0, 64, 81
1, 57748, Control_c, 0, 64, 82
1, 57763, Control_c, 0, 64, 82
1, 57768, Note_off_c, 0, 58, 32
1, 57777, Control_c, 0, 64, 83
1, 58005, Note_on_c, 0, 62, 23
1, 58007, Note_on_c, 0, 48, 23
1, 58012, Note_on_c, 0, 58, 28
1, 58084, Note_off_c, 0, 58, 35
1, 58111, Note_off_c, 0, 67, 56
1, 58139, Note_off_c, 0, 62, 0
1, 58176, Poly_aftertouch_c, 0, 62, 127
1, 58442, Note_off_c, 0, 48, 36
1, 58481, Control_c, 0, 64, 82
1, 58487, Note_on_c, 0, 69, 48
1, 58496, Control_c, 0, 64, 79
1, 58501, Note_on_c, 0, 41, 29
1, 58503, Note_on_c, 0, 60, 32
1, 58511, Control_c, 0, 64, 74
1, 58514, Note_on_c, 0, 53, 14
1, 58522, Poly_aftertouch_c, 0, 62, 0
1, 58525, Control_c, 0, 64, 66
1, 58540, Control_c, 0, 64, 0
1, 58674, Control_c, 0, 64, 60
1, 58689, Control_c, 0, 64, 68
1, 58711, Control_c, 0, 64, 72
1, 58725, Control_c, 0, 64, 75
1, 58740, Control_c, 0, 64, 77
1, 58746, Note_off_c, 0, 69, 61
1, 58755, Control_c, 0, 64, 78
1, 58770, Control_c, 0, 64, 79
1, 58784, Note_off_c, 0, 41, 42
1, 58785, Control_c, 0, 64, 80
1, 58800, Control_c, 0, 64, 81
1, 58814, Control_c, 0, 64, 82
1, 58829, Control_c, 0, 64, 83
1, 58844, Control_c, 0, 64, 83
1, 58859, Control_c, 0, 64, 84
1, 58888, Note_off_c, 0, 60, 31
1, 58899, Note_off_c, 0, 53, 38
1, 58948, Control_c, 0, 64, 84
1, 59037, Control_c, 0, 64, 84
1, 59081, Control_c, 0, 64, 80
1, 59083, Note_on_c, 0, 70, 58
1, 59096, Note_on_c, 0, 62, 37
1, 59096, Control_c, 0, 64, 74
1, 59097, Note_on_c, 0, 46, 37
1, 59111, Control_c, 0, 64, 63
1, 59113, Note_on_c, 0, 53, 20
1, 59125, Control_c, 0, 64, 0
1, 59185, Control_c, 0, 64, 60
1, 59199, Control_c, 0, 64, 67
1, 59215, Control_c, 0, 64, 71
1, 59230, Control_c, 0, 64, 74
1, 59245, Control_c, 0, 64, 75
1, 59249, Note_off_c, 0, 70, 62
1, 59260, Control_c, 0, 64, 75
1, 59274, Control_c, 0, 64, 76
1, 59289, Control_c, 0, 64, 77
1, 59294, Note_off_c, 0, 46, 36
1, 59300, Note_off_c, 0, 53, 32
1, 59304, Control_c, 0, 64, 77
1, 59390, Note_on_c, 0, 69, 54
1, 59396, Note_on_c, 0, 48, 40
1, 59397, Note_off_c, 0, 62, 38
1, 59404, Poly_aftertouch_c, 0, 53, 127
1, 59407, Note_on_c, 0, 60, 36
1, 59408, Control_c, 0, 64, 77
1, 59423, Control_c, 0, 64, 74
1, 59445, Control_c, 0, 64, 67
1, 59460, Control_c, 0, 64, 0
1, 59548, Control_c, 0, 64, 25
1, 59563, Control_c, 0, 64, 64
1, 59578, Control_c, 0, 64, 69
1, 59593, Control_c, 0, 64, 73
1, 59608, Control_c, 0, 64, 76
1, 59622, Control_c, 0, 64, 77
1, 59637, Control_c, 0, 64, 78
1, 59652, Control_c, 0, 64, 79
1, 59660, Note_off_c, 0, 48, 41
1, 59667, Control_c, 0, 64, 80
1, 59682, Control_c, 0, 64, 80
1, 59693, Note_off_c, 0, 60, 33
1, 59697, Control_c, 0, 64, 81
1, 59742, Control_c, 0, 64, 81
1, 59744, Poly_aftertouch_c, 0, 53, 0
1, 59948, Note_on_c, 0, 65, 49
1, 59948, Control_c, 0, 64, 80
1, 59952, Note_off_c, 0, 69, 28
1, 59961, Note_on_c, 0, 46, 36
1, 59963, Control_c, 0, 64, 76
1, 59965, Note_on_c, 0, 62, 39
1, 59978, Control_c, 0, 64, 67
1, 59992, Control_c, 0, 64, 0
1, 59998, Note_on_c, 0, 53, 20
1, 60068, Control_c, 0, 64, 62
1, 60083, Control_c, 0, 64, 67
1, 60097, Control_c, 0, 64, 70
1, 60102, Note_off_c, 0, 62, 56
1, 60112, Control_c, 0, 64, 72
1, 60122, Note_off_c, 0, 53, 42
1, 60127, Control_c, 0, 64, 73
1, 60142, Control_c, 0, 64, 74
1, 60157, Control_c, 0, 64, 75
1, 60162, Note_off_c, 0, 46, 35
1, 60171, Control_c, 0, 64, 76
1, 60194, Control_c, 0, 64, 76
1, 60209, Control_c, 0, 64, 77
1, 60230, Note_off_c, 0, 65, 57
1, 60254, Note_on_c, 0, 69, 57
1, 60268, Control_c, 0, 64, 76
1, 60281, Note_on_c, 0, 53, 38
1, 60283, Control_c, 0, 64, 74
1, 60284, Note_on_c, 0, 60, 30
1, 60286, Note_on_c, 0, 48, 29
1, 60297, Control_c, 0, 64, 68
1, 60312, Control_c, 0, 64, 41
1, 60327, Control_c, 0, 64, 0
1, 60386, Control_c, 0, 64, 40
1, 60401, Control_c, 0, 64, 64
1, 60408, Note_off_c, 0, 69, 61
1, 60416, Control_c, 0, 64, 69
1, 60430, Control_c, 0, 64, 72
1, 60445, Control_c, 0, 64, 75
1, 60460, Control_c, 0, 64, 77
1, 60475, Control_c, 0, 64, 78
1, 60484, Note_off_c, 0, 60, 36
1, 60490, Control_c, 0, 64, 79
1, 60499, Note_off_c, 0, 48, 42
1, 60505, Control_c, 0, 64, 80
1, 60520, Control_c, 0, 64, 81
1, 60530, Note_off_c, 0, 53, 39
1, 60534, Control_c, 0, 64, 82
1, 60564, Control_c, 0, 64, 82
1, 60608, Control_c, 0, 64, 83
1, 60785, Control_c, 0, 64, 81
1, 60788, Note_on_c, 0, 70, 62
1, 60800, Note_on_c, 0, 58, 44
1, 60800, Control_c, 0, 64, 76
1, 60802, Note_on_c, 0, 53, 41
1, 60809, Note_on_c, 0, 50, 33
1, 60816, Control_c, 0, 64, 67
1, 60831, Control_c, 0, 64, 0
1, 60890, Control_c, 0, 64, 51
1, 60905, Control_c, 0, 64, 66
1, 60919, Control_c, 0, 64, 70
1, 60942, Control_c, 0, 64, 73
1, 60957, Control_c, 0, 64, 75
1, 60963, Note_off_c, 0, 53, 40
1, 60972, Control_c, 0, 64, 76
1, 60973, Note_off_c, 0, 58, 59
1, 60987, Note_off_c, 0, 70, 60
1, 60987, Control_c, 0, 64, 77
1, 61001, Control_c, 0, 64, 78
1, 61016, Control_c, 0, 64, 79
1, 61031, Control_c, 0, 64, 79
1, 61099, Note_off_c, 0, 50, 33
1, 61104, Note_on_c, 0, 69, 58
1, 61116, Note_on_c, 0, 48, 37
1, 61119, Control_c, 0, 64, 77
1, 61123, Note_on_c, 0, 60, 42
1, 61128, Note_on_c, 0, 53, 33
1, 61134, Control_c, 0, 64, 72
1, 61149, Control_c, 0, 64, 60
1, 61164, Control_c, 0, 64, 0
1, 61268, Control_c, 0, 64, 54
1, 61283, Control_c, 0, 64, 66
1, 61298, Control_c, 0, 64, 69
1, 61312, Control_c, 0, 64, 71
1, 61327, Control_c, 0, 64, 73
1, 61342, Control_c, 0, 64, 74
1, 61357, Control_c, 0, 64, 75
1, 61372, Control_c, 0, 64, 77
1, 61378, Note_off_c, 0, 48, 40
1, 61387, Control_c, 0, 64, 77
1, 61401, Control_c, 0, 64, 78
1, 61429, Note_off_c, 0, 53, 41
1, 61431, Control_c, 0, 64, 78
1, 61445, Control_c, 0, 64, 79
1, 61489, Note_on_c, 0, 67, 61
1, 61531, Note_off_c, 0, 60, 24
1, 61593, Control_c, 0, 64, 78
1, 61609, Control_c, 0, 64, 76
1, 61613, Note_off_c, 0, 67, 56
1, 61618, Note_on_c, 0, 65, 63
1, 61622, Note_off_c, 0, 69, 37
1, 61624, Control_c, 0, 64, 70
1, 61632, Note_on_c, 0, 62, 46
1, 61638, Note_on_c, 0, 46, 41
1, 61639, Control_c, 0, 64, 56
1, 61648, Note_on_c, 0, 53, 27
1, 61654, Control_c, 0, 64, 0
1, 61750, Control_c, 0, 64, 62
1, 61765, Control_c, 0, 64, 68
1, 61777, Note_off_c, 0, 62, 60
1, 61780, Control_c, 0, 64, 73
1, 61795, Control_c, 0, 64, 75
1, 61810, Control_c, 0, 64, 76
1, 61811, Note_off_c, 0, 53, 38
1, 61839, Control_c, 0, 64, 77
1, 61854, Control_c, 0, 64, 77
1, 61858, Note_off_c, 0, 46, 38
1, 61927, Note_on_c, 0, 69, 69
1, 61951, Note_on_c, 0, 60, 37
1, 61952, Note_on_c, 0, 48, 37
1, 61954, Note_on_c, 0, 53, 33
1, 61955, Note_off_c, 0, 65, 51
1, 61957, Control_c, 0, 64, 76
1, 61972, Control_c, 0, 64, 70
1, 61987, Control_c, 0, 64, 55
1, 62002, Control_c, 0, 64, 0
1, 62076, Control_c, 0, 64, 51
1, 62090, Control_c, 0, 64, 64
1, 62105, Control_c, 0, 64, 67
1, 62120, Control_c, 0, 64, 68
1, 62132, Note_off_c, 0, 69, 63
1, 62135, Control_c, 0, 64, 70
1, 62150, Control_c, 0, 64, 72
1, 62165, Control_c, 0, 64, 74
1, 62174, Note_off_c, 0, 53, 56
1, 62177, Note_off_c, 0, 60, 39
1, 62180, Control_c, 0, 64, 76
1, 62194, Control_c, 0, 64, 77
1, 62209, Control_c, 0, 64, 78
1, 62222, Note_off_c, 0, 48, 43
1, 62239, Control_c, 0, 64, 78
1, 62254, Control_c, 0, 64, 79
1, 62268, Control_c, 0, 64, 79
1, 62283, Control_c, 0, 64, 80
1, 62313, Control_c, 0, 64, 80
1, 62357, Control_c, 0, 64, 81
1, 62418, Control_c, 0, 64, 80
1, 62433, Control_c, 0, 64, 79
1, 62454, Control_c, 0, 64, 74
1, 62457, Note_on_c, 0, 70, 74
1, 62469, Control_c, 0, 64, 64
1, 62475, Note_on_c, 0, 58, 49
1, 62484, Control_c, 0, 64, 0
1, 62487, Note_on_c, 0, 50, 33
1, 62490, Note_on_c, 0, 53, 27
1, 62544, Control_c, 0, 64, 40
1, 62558, Control_c, 0, 64, 65
1, 62573, Control_c, 0, 64, 70
1, 62588, Control_c, 0, 64, 73
1, 62603, Control_c, 0, 64, 75
1, 62617, Control_c, 0, 64, 76
1, 62629, Note_off_c, 0, 53, 34
1, 62632, Control_c, 0, 64, 77
1, 62636, Note_off_c, 0, 58, 64
1, 62647, Control_c, 0, 64, 78
1, 62652, Note_off_c, 0, 70, 58
1, 62662, Control_c, 0, 64, 79
1, 62677, Control_c, 0, 64, 79
1, 62744, Note_off_c, 0, 50, 37
1, 62757, Note_on_c, 0, 69, 73
1, 62776, Note_on_c, 0, 48, 40
1, 62777, Note_on_c, 0, 60, 47
1, 62780, Control_c, 0, 64, 77
1, 62782, Note_on_c, 0, 53, 37
1, 62795, Control_c, 0, 64, 70
1, 62809, Control_c, 0, 64, 44
1, 62824, Control_c, 0, 64, 0
1, 62913, Control_c, 0, 64, 56
1, 62928, Control_c, 0, 64, 66
1, 62943, Control_c, 0, 64, 70
1, 62958, Control_c, 0, 64, 73
1, 62973, Control_c, 0, 64, 75
1, 62988, Control_c, 0, 64, 77
1, 62994, Note_off_c, 0, 48, 40
1, 63003, Control_c, 0, 64, 78
1, 63017, Control_c, 0, 64, 79
1, 63032, Control_c, 0, 64, 80
1, 63047, Control_c, 0, 64, 80
1, 63059, Note_off_c, 0, 53, 40
1, 63091, Control_c, 0, 64, 81
1, 63106, Control_c, 0, 64, 81
1, 63121, Control_c, 0, 64, 82
1, 63146, Note_on_c, 0, 67, 73
1, 63190, Note_off_c, 0, 69, 51
1, 63234, Note_off_c, 0, 60, 21
1, 63277, Control_c, 0, 64, 79
1, 63285, Note_on_c, 0, 65, 77
1, 63292, Control_c, 0, 64, 72
1, 63307, Control_c, 0, 64, 55
1, 63310, Note_on_c, 0, 57, 40
1, 63312, Note_on_c, 0, 60, 24
1, 63312, Note_off_c, 0, 67, 58
1, 63316, Note_on_c, 0, 48, 42
1, 63322, Control_c, 0, 64, 0
1, 63411, Control_c, 0, 64, 58
1, 63426, Control_c, 0, 64, 67
1, 63432, Note_off_c, 0, 48, 63
1, 63434, Note_off_c, 0, 57, 56
1, 63440, Control_c, 0, 64, 71
1, 63455, Control_c, 0, 64, 74
1, 63470, Control_c, 0, 64, 76
1, 63485, Control_c, 0, 64, 77
1, 63500, Control_c, 0, 64, 79
1, 63514, Control_c, 0, 64, 80
1, 63529, Control_c, 0, 64, 80
1, 63544, Control_c, 0, 64, 81
1, 63560, Control_c, 0, 64, 81
1, 63610, Note_off_c, 0, 60, 32
1, 63732, Note_on_c, 0, 67, 75
1, 63737, Control_c, 0, 64, 80
1, 63752, Control_c, 0, 64, 78
1, 63756, Note_on_c, 0, 58, 42
1, 63757, Note_on_c, 0, 62, 52
1, 63766, Note_on_c, 0, 48, 39
1, 63767, Control_c, 0, 64, 73
1, 63773, Note_off_c, 0, 65, 60
1, 63781, Control_c, 0, 64, 66
1, 63796, Control_c, 0, 64, 29
1, 63811, Control_c, 0, 64, 0
1, 64012, Control_c, 0, 64, 57
1, 64027, Control_c, 0, 64, 68
1, 64042, Control_c, 0, 64, 73
1, 64057, Control_c, 0, 64, 78
1, 64071, Control_c, 0, 64, 80
1, 64086, Control_c, 0, 64, 81
1, 64101, Control_c, 0, 64, 82
1, 64103, Note_off_c, 0, 48, 43
1, 64108, Note_off_c, 0, 58, 54
1, 64116, Control_c, 0, 64, 84
1, 64131, Control_c, 0, 64, 85
1, 64145, Control_c, 0, 64, 87
1, 64160, Control_c, 0, 64, 88
1, 64175, Control_c, 0, 64, 89
1, 64190, Control_c, 0, 67, 114
1, 64205, Control_c, 0, 64, 89
1, 64205, Control_c, 0, 67, 97
1, 64219, Control_c, 0, 67, 79
1, 64234, Control_c, 0, 67, 58
1, 64249, Control_c, 0, 64, 90
1, 64249, Control_c, 0, 67, 43
1, 64264, Control_c, 0, 67, 31
1, 64278, Control_c, 0, 67, 24
1, 64293, Control_c, 0, 67, 20
1, 64308, Control_c, 0, 67, 17
1, 64317, Note_off_c, 0, 62, 34
1, 64323, Control_c, 0, 67, 15
1, 64337, Control_c, 0, 67, 13
1, 64343, Note_on_c, 0, 64, 48
1, 64352, Control_c, 0, 64, 89
1, 64352, Control_c, 0, 67, 11
1, 64364, Note_on_c, 0, 48, 40
1, 64367, Control_c, 0, 64, 84
1, 64367, Control_c, 0, 67, 9
1, 64368, Note_on_c, 0, 60, 38
1, 64374, Note_on_c, 0, 58, 36
1, 64382, Control_c, 0, 64, 75
1, 64382, Control_c, 0, 67, 0
1, 64396, Control_c, 0, 64, 60
1, 64411, Control_c, 0, 64, 0
1, 64456, Control_c, 0, 64, 44
1, 64470, Control_c, 0, 64, 66
1, 64485, Control_c, 0, 64, 72
1, 64500, Control_c, 0, 64, 77
1, 64514, Note_off_c, 0, 58, 49
1, 64515, Control_c, 0, 64, 78
1, 64516, Note_off_c, 0, 64, 62
1, 64529, Note_off_c, 0, 60, 36
1, 64529, Control_c, 0, 64, 78
1, 64544, Control_c, 0, 64, 79
1, 64550, Note_off_c, 0, 67, 59
1, 64559, Control_c, 0, 64, 80
1, 64565, Note_off_c, 0, 48, 39
1, 64574, Control_c, 0, 64, 81
1, 64588, Control_c, 0, 64, 82
1, 64603, Control_c, 0, 64, 83
1, 64618, Control_c, 0, 64, 83
1, 64633, Control_c, 0, 64, 84
1, 64663, Control_c, 0, 64, 84
1, 64685, Control_c, 0, 64, 85
1, 64715, Control_c, 0, 64, 85
1, 64730, Control_c, 0, 64, 86
1, 64744, Control_c, 0, 64, 86
1, 64759, Control_c, 0, 64, 87
1, 64916, Note_on_c, 0, 72, 82
1, 64923, Control_c, 0, 64, 85
1, 64938, Control_c, 0, 64, 81
1, 64940, Note_on_c, 0, 64, 56
1, 64941, Note_on_c, 0, 48, 46
1, 64953, Control_c, 0, 64, 75
1, 64959, Note_on_c, 0, 57, 37
1, 64967, Control_c, 0, 64, 66
1, 64982, Control_c, 0, 64, 0
1, 65101, Control_c, 0, 64, 57
1, 65116, Control_c, 0, 64, 67
1, 65131, Control_c, 0, 64, 71
1, 65146, Control_c, 0, 64, 75
1, 65160, Control_c, 0, 64, 77
1, 65175, Control_c, 0, 64, 78
1, 65190, Control_c, 0, 64, 79
1, 65205, Control_c, 0, 64, 80
1, 65219, Control_c, 0, 64, 82
1, 65234, Control_c, 0, 64, 83
1, 65249, Control_c, 0, 64, 85
1, 65264, Control_c, 0, 64, 86
1, 65279, Control_c, 0, 64, 88
1, 65293, Control_c, 0, 64, 89
1, 65307, Note_off_c, 0, 48, 44
1, 65308, Control_c, 0, 64, 90
1, 65323, Control_c, 0, 64, 92
1, 65337, Note_off_c, 0, 57, 35
1, 65338, Control_c, 0, 64, 93
1, 65353, Control_c, 0, 64, 94
1, 65367, Control_c, 0, 64, 95
1, 65374, Note_off_c, 0, 64, 40
1, 65382, Control_c, 0, 64, 96
1, 65397, Control_c, 0, 64, 97
1, 65411, Control_c, 0, 64, 98
1, 65426, Control_c, 0, 64, 99
1, 65426, Control_c, 0, 67, 8
1, 65449, Control_c, 0, 64, 100
1, 65449, Control_c, 0, 67, 10
1, 65464, Control_c, 0, 64, 101
1, 65464, Control_c, 0, 67, 11
1, 65479, Control_c, 0, 64, 102
1, 65479, Control_c, 0, 67, 13
1, 65493, Control_c, 0, 64, 103
1, 65493, Control_c, 0, 67, 15
1, 65508, Control_c, 0, 64, 103
1, 65508, Control_c, 0, 67, 17
1, 65523, Control_c, 0, 64, 104
1, 65523, Control_c, 0, 67, 20
1, 65538, Control_c, 0, 64, 104
1, 65538, Control_c, 0, 67, 22
1, 65553, Control_c, 0, 67, 25
1, 65567, Control_c, 0, 64, 105
1, 65567, Control_c, 0, 67, 28
1, 65582, Control_c, 0, 67, 33
1, 65597, Control_c, 0, 64, 105
1, 65597, Control_c, 0, 67, 39
1, 65613, Control_c, 0, 67, 49
1, 65628, Control_c, 0, 67, 61
1, 65642, Control_c, 0, 64, 106
1, 65642, Control_c, 0, 67, 72
1, 65657, Control_c, 0, 67, 81
1, 65672, Control_c, 0, 67, 86
1, 65687, Control_c, 0, 67, 90
1, 65702, Control_c, 0, 67, 95
1, 65716, Control_c, 0, 67, 100
1, 65731, Control_c, 0, 64, 106
1, 65731, Control_c, 0, 67, 106
1, 65742, Note_on_c, 0, 64, 36
1, 65746, Control_c, 0, 67, 111
1, 65748, Note_on_c, 0, 57, 17
1, 65757, Note_on_c, 0, 48, 30
1, 65761, Control_c, 0, 67, 116
1, 65776, Control_c, 0, 67, 120
1, 65787, Note_off_c, 0, 64, 46
1, 65790, Control_c, 0, 67, 123
1, 65799, Note_off_c, 0, 57, 44
1, 65805, Control_c, 0, 67, 126
1, 65820, Control_c, 0, 67, 127
1, 65849, Note_off_c, 0, 48, 37
1, 66069, Note_on_c, 0, 64, 39
1, 66073, Note_on_c, 0, 57, 28
1, 66083, Note_on_c, 0, 48, 31
1, 66300, Note_off_c, 0, 48, 43
1, 66320, Note_off_c, 0, 57, 40
1, 66386, Note_off_c, 0, 64, 36
1, 66584, Control_c, 0, 64, 106
1, 66599, Control_c, 0, 64, 103
1, 66607, Note_on_c, 0, 69, 61
1, 66613, Control_c, 0, 64, 98
1, 66614, Note_on_c, 0, 65, 50
1, 66626, Note_on_c, 0, 57, 28
1, 66628, Note_on_c, 0, 50, 37
1, 66628, Control_c, 0, 64, 86
1, 66643, Control_c, 0, 64, 72
1, 66657, Control_c, 0, 64, 0
1, 66672, Note_off_c, 0, 72, 54
1, 66717, Control_c, 0, 64, 63
1, 66732, Control_c, 0, 64, 70
1, 66747, Control_c, 0, 64, 75
1, 66762, Control_c, 0, 64, 78
1, 66776, Control_c, 0, 64, 79
1, 66785, Note_off_c, 0, 65, 61
1, 66788, Note_off_c, 0, 57, 37
1, 66821, Control_c, 0, 64, 79
1, 66838, Note_off_c, 0, 50, 40
1, 66895, Control_c, 0, 64, 78
1, 66896, Note_on_c, 0, 72, 74
1, 66903, Note_off_c, 0, 69, 63
1, 66906, Note_on_c, 0, 64, 53
1, 66909, Note_on_c, 0, 52, 39
1, 66910, Control_c, 0, 64, 73
1, 66924, Note_on_c, 0, 57, 34
1, 66925, Control_c, 0, 64, 63
1, 66946, Control_c, 0, 64, 0
1, 67051, Control_c, 0, 64, 60
1, 67065, Control_c, 0, 64, 68
1, 67080, Control_c, 0, 64, 73
1, 67095, Control_c, 0, 64, 77
1, 67110, Control_c, 0, 64, 78
1, 67111, Note_off_c, 0, 57, 57
1, 67125, Control_c, 0, 64, 79
1, 67138, Note_off_c, 0, 52, 62
1, 67139, Control_c, 0, 64, 79
1, 67154, Control_c, 0, 64, 80
1, 67164, Note_off_c, 0, 72, 57
1, 67169, Control_c, 0, 64, 81
1, 67174, Note_off_c, 0, 64, 42
1, 67183, Control_c, 0, 64, 82
1, 67198, Control_c, 0, 64, 82
1, 67230, Control_c, 0, 64, 83
1, 67393, Control_c, 0, 64, 82
1, 67407, Control_c, 0, 64, 79
1, 67418, Note_on_c, 0, 69, 66
1, 67422, Control_c, 0, 64, 72
1, 67436, Note_on_c, 0, 65, 57
1, 67437, Control_c, 0, 64, 44
1, 67439, Note_on_c, 0, 57, 29
1, 67447, Note_on_c, 0, 50, 33
1, 67452, Control_c, 0, 64, 0
1, 67526, Control_c, 0, 64, 60
1, 67541, Control_c, 0, 64, 67
1, 67555, Control_c, 0, 64, 70
1, 67570, Control_c, 0, 64, 73
1, 67572, Note_off_c, 0, 65, 64
1, 67585, Control_c, 0, 64, 75
1, 67596, Note_off_c, 0, 57, 28
1, 67599, Control_c, 0, 64, 76
1, 67614, Control_c, 0, 64, 77
1, 67629, Control_c, 0, 64, 78
1, 67653, Note_off_c, 0, 50, 39
1, 67711, Note_on_c, 0, 72, 78
1, 67715, Note_off_c, 0, 69, 65
1, 67723, Note_on_c, 0, 52, 48
1, 67725, Note_on_c, 0, 57, 26
1, 67726, Control_c, 0, 64, 77
1, 67736, Note_on_c, 0, 64, 55
1, 67741, Control_c, 0, 64, 75
1, 67755, Control_c, 0, 64, 70
1, 67770, Control_c, 0, 64, 54
1, 67785, Control_c, 0, 64, 0
1, 67874, Control_c, 0, 64, 52
1, 67888, Control_c, 0, 64, 65
1, 67903, Control_c, 0, 64, 69
1, 67918, Control_c, 0, 64, 73
1, 67933, Control_c, 0, 64, 76
1, 67948, Control_c, 0, 64, 78
1, 67951, Note_off_c, 0, 57, 41
1, 67957, Note_off_c, 0, 64, 40
1, 67963, Control_c, 0, 64, 79
1, 67978, Control_c, 0, 64, 81
1, 67985, Note_off_c, 0, 52, 62
1, 67993, Control_c, 0, 64, 82
1, 68008, Control_c, 0, 64, 82
1, 68023, Control_c, 0, 64, 83
1, 68037, Control_c, 0, 64, 84
1, 68052, Control_c, 0, 64, 84
1, 68082, Control_c, 0, 64, 85
1, 68112, Control_c, 0, 64, 85
1, 68216, Control_c, 0, 64, 85
1, 68217, Note_on_c, 0, 74, 77
1, 68222, Note_off_c, 0, 72, 40
1, 68226, Note_on_c, 0, 57, 39
1, 68229, Note_on_c, 0, 53, 40
1, 68230, Control_c, 0, 64, 82
1, 68239, Note_on_c, 0, 62, 57
1, 68245, Control_c, 0, 64, 74
1, 68260, Control_c, 0, 64, 16
1, 68275, Control_c, 0, 64, 0
1, 68319, Control_c, 0, 64, 49
1, 68334, Control_c, 0, 64, 66
1, 68349, Control_c, 0, 64, 73
1, 68354, Note_off_c, 0, 62, 52
1, 68360, Note_off_c, 0, 57, 53
1, 68364, Control_c, 0, 64, 77
1, 68378, Control_c, 0, 64, 79
1, 68393, Control_c, 0, 64, 80
1, 68408, Control_c, 0, 64, 80
1, 68430, Control_c, 0, 64, 81
1, 68445, Control_c, 0, 64, 82
1, 68460, Control_c, 0, 64, 82
1, 68508, Note_off_c, 0, 53, 35
1, 68514, Note_on_c, 0, 72, 72
1, 68519, Control_c, 0, 64, 81
1, 68526, Note_on_c, 0, 64, 55
1, 68527, Note_on_c, 0, 52, 43
1, 68529, Note_off_c, 0, 74, 61
1, 68534, Control_c, 0, 64, 78
1, 68535, Note_on_c, 0, 57, 37
1, 68549, Control_c, 0, 64, 68
1, 68563, Control_c, 0, 64, 0
1, 68667, Control_c, 0, 64, 44
1, 68682, Control_c, 0, 64, 64
1, 68697, Control_c, 0, 64, 69
1, 68711, Control_c, 0, 64, 73
1, 68726, Control_c, 0, 64, 76
1, 68741, Control_c, 0, 64, 78
1, 68756, Control_c, 0, 64, 79
1, 68771, Control_c, 0, 64, 80
1, 68780, Note_off_c, 0, 57, 50
1, 68786, Control_c, 0, 64, 80
1, 68800, Control_c, 0, 64, 81
1, 68800, Note_off_c, 0, 52, 61
1, 68830, Control_c, 0, 64, 82
1, 68845, Control_c, 0, 64, 82
1, 68860, Control_c, 0, 64, 83
1, 68873, Note_on_c, 0, 71, 73
1, 68875, Control_c, 0, 64, 83
1, 68910, Note_off_c, 0, 72, 54
1, 68913, Note_off_c, 0, 64, 55
1, 68994, Control_c, 0, 64, 81
1, 69000, Note_on_c, 0, 69, 75
1, 69008, Control_c, 0, 64, 75
1, 69023, Control_c, 0, 64, 62
1, 69024, Note_on_c, 0, 65, 54
1, 69024, Note_on_c, 0, 57, 37
1, 69035, Note_on_c, 0, 50, 34
1, 69036, Note_off_c, 0, 71, 56
1, 69038, Control_c, 0, 64, 0
1, 69141, Control_c, 0, 64, 57
1, 69156, Control_c, 0, 64, 67
1, 69164, Note_off_c, 0, 65, 64
1, 69178, Control_c, 0, 64, 71
1, 69193, Control_c, 0, 64, 74
1, 69203, Note_off_c, 0, 57, 22
1, 69208, Control_c, 0, 64, 76
1, 69223, Control_c, 0, 64, 77
1, 69238, Control_c, 0, 64, 77
1, 69253, Control_c, 0, 64, 78
1, 69305, Note_on_c, 0, 72, 77
1, 69305, Note_off_c, 0, 50, 35
1, 69310, Note_on_c, 0, 57, 27
1, 69312, Control_c, 0, 64, 78
1, 69319, Note_on_c, 0, 52, 44
1, 69321, Note_on_c, 0, 64, 55
1, 69326, Control_c, 0, 64, 76
1, 69328, Note_off_c, 0, 69, 62
1, 69341, Control_c, 0, 64, 70
1, 69356, Control_c, 0, 64, 43
1, 69371, Control_c, 0, 64, 0
1, 69459, Control_c, 0, 64, 57
1, 69474, Control_c, 0, 64, 67
1, 69489, Control_c, 0, 64, 72
1, 69504, Control_c, 0, 64, 76
1, 69519, Control_c, 0, 64, 78
1, 69534, Control_c, 0, 64, 78
1, 69543, Note_off_c, 0, 64, 61
1, 69549, Control_c, 0, 64, 79
1, 69552, Note_off_c, 0, 57, 41
1, 69557, Note_off_c, 0, 52, 59
1, 69564, Control_c, 0, 64, 80
1, 69578, Control_c, 0, 64, 80
1, 69593, Control_c, 0, 64, 81
1, 69608, Control_c, 0, 64, 81
1, 69623, Control_c, 0, 64, 82
1, 69802, Note_off_c, 0, 72, 15
1, 69816, Control_c, 0, 64, 81
1, 69819, Note_on_c, 0, 74, 70
1, 69831, Control_c, 0, 64, 76
1, 69833, Note_on_c, 0, 53, 42
1, 69836, Note_on_c, 0, 57, 39
1, 69838, Note_on_c, 0, 62, 61
1, 69846, Control_c, 0, 64, 66
1, 69861, Control_c, 0, 64, 0
1, 69942, Control_c, 0, 64, 60
1, 69957, Control_c, 0, 64, 67
1, 69972, Control_c, 0, 64, 70
1, 69987, Control_c, 0, 64, 72
1, 70002, Control_c, 0, 64, 73
1, 70011, Note_off_c, 0, 62, 54
1, 70012, Note_off_c, 0, 57, 37
1, 70016, Control_c, 0, 64, 74
1, 70031, Control_c, 0, 64, 75
1, 70046, Control_c, 0, 64, 76
1, 70102, Note_off_c, 0, 53, 31
1, 70145, Note_on_c, 0, 72, 70
1, 70151, Note_off_c, 0, 74, 61
1, 70157, Note_on_c, 0, 64, 50
1, 70159, Note_on_c, 0, 57, 42
1, 70164, Control_c, 0, 64, 73
1, 70169, Note_on_c, 0, 52, 39
1, 70179, Control_c, 0, 64, 65
1, 70194, Control_c, 0, 64, 0
1, 70298, Control_c, 0, 64, 53
1, 70313, Control_c, 0, 64, 66
1, 70328, Control_c, 0, 64, 70
1, 70343, Control_c, 0, 64, 74
1, 70357, Control_c, 0, 64, 76
1, 70372, Control_c, 0, 64, 77
1, 70387, Control_c, 0, 64, 77
1, 70403, Control_c, 0, 64, 78
1, 70418, Control_c, 0, 64, 79
1, 70432, Control_c, 0, 64, 80
1, 70460, Note_off_c, 0, 52, 42
1, 70462, Control_c, 0, 64, 80
1, 70572, Note_on_c, 0, 71, 69
1, 70594, Note_off_c, 0, 72, 58
1, 70640, Note_off_c, 0, 64, 35
1, 70699, Note_off_c, 0, 57, 37
1, 70721, Control_c, 0, 64, 80
1, 70723, Note_on_c, 0, 69, 69
1, 70734, Note_on_c, 0, 52, 34
1, 70736, Control_c, 0, 64, 77
1, 70738, Note_on_c, 0, 60, 38
1, 70743, Note_on_c, 0, 64, 44
1, 70744, Note_off_c, 0, 71, 54
1, 70751, Control_c, 0, 64, 67
1, 70766, Control_c, 0, 64, 0
1, 70854, Control_c, 0, 64, 61
1, 70869, Control_c, 0, 64, 67
1, 70884, Control_c, 0, 64, 71
1, 70899, Control_c, 0, 64, 74
1, 70914, Control_c, 0, 64, 76
1, 70922, Note_off_c, 0, 69, 63
1, 70929, Control_c, 0, 64, 78
1, 70936, Note_off_c, 0, 52, 40
1, 70944, Control_c, 0, 64, 79
1, 70955, Note_off_c, 0, 60, 30
1, 70958, Control_c, 0, 64, 80
1, 70973, Control_c, 0, 64, 81
1, 70988, Control_c, 0, 64, 81
1, 71003, Control_c, 0, 64, 82
1, 71021, Note_off_c, 0, 64, 50
1, 71032, Control_c, 0, 64, 82
1, 71047, Control_c, 0, 64, 83
1, 71180, Control_c, 0, 64, 83
1, 71255, Control_c, 0, 64, 83
1, 71285, Control_c, 0, 64, 82
1, 71296, Note_on_c, 0, 52, 39
1, 71298, Note_on_c, 0, 71, 70
1, 71300, Control_c, 0, 64, 80
1, 71312, Note_on_c, 0, 69, 51
1, 71315, Control_c, 0, 64, 73
1, 71329, Control_c, 0, 64, 64
1, 71331, Note_on_c, 0, 64, 33
1, 71343, Note_on_c, 0, 62, 7
1, 71344, Control_c, 0, 64, 0
1, 71485, Control_c, 0, 64, 60
1, 71500, Control_c, 0, 64, 67
1, 71515, Control_c, 0, 64, 70
1, 71529, Control_c, 0, 64, 72
1, 71544, Control_c, 0, 64, 74
1, 71559, Control_c, 0, 64, 76
1, 71573, Control_c, 0, 64, 78
1, 71588, Control_c, 0, 64, 79
1, 71598, Note_off_c, 0, 69, 58
1, 71603, Control_c, 0, 64, 80
1, 71618, Control_c, 0, 64, 81
1, 71624, Note_off_c, 0, 52, 32
1, 71633, Control_c, 0, 64, 82
1, 71648, Control_c, 0, 64, 82
1, 71662, Control_c, 0, 64, 83
1, 71677, Control_c, 0, 64, 83
1, 71692, Control_c, 0, 64, 84
1, 71707, Control_c, 0, 64, 84
1, 71733, Note_off_c, 0, 62, 31
1, 71737, Control_c, 0, 64, 85
1, 71739, Note_off_c, 0, 64, 40
1, 71766, Control_c, 0, 64, 85
1, 71941, Note_on_c, 0, 68, 46
1, 71944, Control_c, 0, 64, 84
1, 71959, Control_c, 0, 64, 79
1, 71968, Note_on_c, 0, 52, 35
1, 71972, Note_on_c, 0, 64, 26
1, 71973, Control_c, 0, 64, 70
1, 71988, Control_c, 0, 64, 0
1, 71989, Note_on_c, 0, 62, 30
1, 72064, Control_c, 0, 64, 54
1, 72078, Control_c, 0, 64, 66
1, 72093, Control_c, 0, 64, 69
1, 72108, Control_c, 0, 64, 71
1, 72123, Control_c, 0, 64, 73
1, 72133, Note_off_c, 0, 62, 37
1, 72138, Control_c, 0, 64, 75
1, 72142, Note_off_c, 0, 71, 54
1, 72143, Note_off_c, 0, 64, 39
1, 72152, Control_c, 0, 64, 76
1, 72175, Control_c, 0, 64, 77
1, 72190, Control_c, 0, 64, 78
1, 72249, Control_c, 0, 64, 79
1, 72278, Control_c, 0, 64, 79
1, 72382, Control_c, 0, 64, 79
1, 72411, Control_c, 0, 64, 77
1, 72425, Note_on_c, 0, 69, 54
1, 72426, Control_c, 0, 64, 74
1, 72435, Note_on_c, 0, 45, 33
1, 72436, Note_on_c, 0, 64, 26
1, 72441, Control_c, 0, 64, 69
1, 72444, Note_on_c, 0, 60, 28
1, 72456, Control_c, 0, 64, 54
1, 72459, Note_off_c, 0, 68, 36
1, 72471, Control_c, 0, 64, 0
1, 72479, Note_off_c, 0, 52, 36
1, 72617, Control_c, 0, 64, 60
1, 72632, Control_c, 0, 64, 66
1, 72647, Control_c, 0, 64, 68
1, 72662, Control_c, 0, 64, 70
1, 72676, Control_c, 0, 64, 73
1, 72691, Control_c, 0, 64, 77
1, 72706, Control_c, 0, 64, 80
1, 72714, Note_off_c, 0, 64, 34
1, 72721, Control_c, 0, 64, 82
1, 72736, Control_c, 0, 64, 84
1, 72750, Control_c, 0, 64, 85
1, 72765, Control_c, 0, 64, 86
1, 72780, Control_c, 0, 64, 87
1, 72796, Control_c, 0, 64, 88
1, 72798, Note_off_c, 0, 45, 39
1, 72811, Control_c, 0, 64, 89
1, 72819, Note_off_c, 0, 60, 27
1, 72825, Control_c, 0, 64, 90
1, 72855, Control_c, 0, 64, 90
1, 73025, Control_c, 0, 64, 91
1, 73080, Note_on_c, 0, 45, 38
1, 73088, Note_on_c, 0, 64, 12
1, 73106, Note_on_c, 0, 60, 21
1, 73157, Note_off_c, 0, 69, 58
1, 73189, Note_off_c, 0, 64, 36
1, 73350, Note_off_c, 0, 60, 33
1, 73412, Note_off_c, 0, 45, 38
1, 73620, Control_c, 0, 64, 90
1, 73645, Note_on_c, 0, 69, 35
1, 73647, Note_on_c, 0, 42, 42
1, 73651, Note_on_c, 0, 72, 66
1, 73677, Note_on_c, 0, 63, 43
1, 73686, Control_c, 0, 64, 89
1, 73701, Control_c, 0, 64, 88
1, 73716, Control_c, 0, 64, 86
1, 73731, Control_c, 0, 64, 82
1, 73741, Note_off_c, 0, 63, 0
1, 73741, Note_on_c, 0, 63, 5
1, 73746, Control_c, 0, 64, 75
1, 73761, Control_c, 0, 64, 61
1, 73775, Control_c, 0, 64, 0
1, 73894, Control_c, 0, 64, 46
1, 73909, Control_c, 0, 64, 69
1, 73923, Control_c, 0, 64, 77
1, 73938, Control_c, 0, 64, 83
1, 73949, Note_off_c, 0, 42, 57
1, 73953, Control_c, 0, 64, 85
1, 73967, Control_c, 0, 64, 86
1, 73982, Control_c, 0, 64, 86
1, 73997, Control_c, 0, 64, 87
1, 74008, Note_off_c, 0, 63, 42
1, 74012, Control_c, 0, 64, 89
1, 74027, Control_c, 0, 64, 91
1, 74041, Control_c, 0, 64, 92
1, 74056, Control_c, 0, 64, 92
1, 74130, Control_c, 0, 64, 93
1, 74195, Note_on_c, 0, 63, 37
1, 74196, Note_on_c, 0, 42, 38
1, 74264, Note_off_c, 0, 63, 60
1, 74290, Note_off_c, 0, 69, 41
1, 74357, Note_off_c, 0, 42, 35
1, 74492, Note_off_c, 0, 72, 57
1, 74527, Note_on_c, 0, 70, 62
1, 74539, Control_c, 0, 64, 92
1, 74544, Note_on_c, 0, 43, 39
1, 74551, Note_on_c, 0, 67, 42
1, 74554, Control_c, 0, 64, 87
1, 74559, Note_on_c, 0, 62, 31
1, 74569, Control_c, 0, 64, 75
1, 74583, Control_c, 0, 64, 41
1, 74598, Control_c, 0, 64, 0
1, 74643, Control_c, 0, 64, 36
1, 74658, Control_c, 0, 64, 66
1, 74668, Note_off_c, 0, 67, 63
1, 74672, Control_c, 0, 64, 74
1, 74687, Control_c, 0, 64, 80
1, 74702, Control_c, 0, 64, 82
1, 74706, Note_off_c, 0, 70, 62
1, 74717, Control_c, 0, 64, 83
1, 74732, Control_c, 0, 64, 83
1, 74746, Control_c, 0, 64, 84
1, 74761, Control_c, 0, 64, 85
1, 74775, Note_off_c, 0, 62, 37
1, 74776, Control_c, 0, 64, 86
1, 74790, Control_c, 0, 64, 86
1, 74804, Control_c, 0, 64, 87
1, 74819, Control_c, 0, 64, 87
1, 74870, Note_off_c, 0, 43, 41
1, 74879, Note_on_c, 0, 69, 68
1, 74899, Note_on_c, 0, 66, 55
1, 74902, Note_on_c, 0, 60, 47
1, 74907, Note_on_c, 0, 45, 36
1, 74934, Note_off_c, 0, 60, 54
1, 74947, Note_off_c, 0, 69, 62
1, 74953, Note_off_c, 0, 66, 54
1, 74973, Note_off_c, 0, 45, 55
1, 74983, Control_c, 0, 64, 85
1, 74997, Control_c, 0, 64, 79
1, 75004, Note_on_c, 0, 67, 68
1, 75012, Control_c, 0, 64, 68
1, 75016, Note_on_c, 0, 62, 55
1, 75027, Control_c, 0, 64, 0
1, 75031, Note_on_c, 0, 46, 37
1, 75086, Control_c, 0, 64, 49
1, 75101, Control_c, 0, 64, 66
1, 75115, Control_c, 0, 64, 72
1, 75130, Control_c, 0, 64, 76
1, 75145, Control_c, 0, 64, 79
1, 75168, Control_c, 0, 64, 80
1, 75183, Control_c, 0, 64, 80
1, 75188, Note_off_c, 0, 67, 57
1, 75198, Control_c, 0, 64, 82
1, 75201, Note_off_c, 0, 62, 49
1, 75213, Control_c, 0, 64, 83
1, 75227, Control_c, 0, 64, 84
1, 75317, Control_c, 0, 64, 83
1, 75321, Note_on_c, 0, 69, 66
1, 75332, Control_c, 0, 64, 80
1, 75332, Note_off_c, 0, 46, 36
1, 75334, Note_on_c, 0, 58, 52
1, 75347, Control_c, 0, 64, 71
1, 75352, Note_on_c, 0, 64, 45
1, 75361, Control_c, 0, 64, 46
1, 75363, Note_on_c, 0, 48, 33
1, 75376, Control_c, 0, 64, 0
1, 75396, Note_off_c, 0, 58, 0
1, 75396, Note_on_c, 0, 58, 10
1, 75465, Control_c, 0, 64, 24
1, 75480, Control_c, 0, 64, 63
1, 75494, Control_c, 0, 64, 68
1, 75509, Control_c, 0, 64, 72
1, 75524, Control_c, 0, 64, 76
1, 75539, Control_c, 0, 64, 78
1, 75545, Note_off_c, 0, 64, 62
1, 75553, Control_c, 0, 64, 79
1, 75568, Control_c, 0, 64, 80
1, 75583, Control_c, 0, 64, 81
1, 75584, Note_off_c, 0, 58, 36
1, 75598, Control_c, 0, 64, 82
1, 75610, Note_off_c, 0, 48, 41
1, 75613, Control_c, 0, 64, 83
1, 75627, Control_c, 0, 64, 83
1, 75642, Control_c, 0, 64, 84
1, 75672, Control_c, 0, 64, 84
1, 75687, Control_c, 0, 64, 85
1, 75716, Control_c, 0, 64, 85
1, 75791, Control_c, 0, 64, 86
1, 75860, Note_on_c, 0, 64, 34
1, 75864, Note_on_c, 0, 36, 38
1, 75868, Note_on_c, 0, 58, 27
1, 75927, Note_off_c, 0, 69, 48
1, 75928, Note_off_c, 0, 64, 49
1, 75931, Control_c, 0, 64, 86
1, 75932, Poly_aftertouch_c, 0, 48, 127
1, 75982, Poly_aftertouch_c, 0, 48, 0
1, 75984, Note_off_c, 0, 58, 32
1, 76011, Note_off_c, 0, 36, 26
1, 76080, Control_c, 0, 64, 87
1, 76139, Control_c, 0, 64, 86
1, 76199, Control_c, 0, 64, 86
1, 76214, Note_on_c, 0, 65, 44
1, 76214, Control_c, 0, 64, 83
1, 76220, Note_on_c, 0, 57, 38
1, 76226, Note_on_c, 0, 41, 40
1, 76229, Control_c, 0, 64, 79
1, 76243, Control_c, 0, 64, 72
1, 76258, Control_c, 0, 64, 60
1, 76273, Control_c, 0, 64, 0
1, 76304, Poly_aftertouch_c, 0, 48, 127
1, 76376, Control_c, 0, 64, 51
1, 76391, Control_c, 0, 64, 67
1, 76406, Control_c, 0, 64, 72
1, 76421, Control_c, 0, 64, 75
1, 76436, Control_c, 0, 64, 76
1, 76450, Control_c, 0, 64, 77
1, 76464, Note_off_c, 0, 57, 29
1, 76465, Control_c, 0, 64, 78
1, 76480, Control_c, 0, 64, 80
1, 76487, Note_off_c, 0, 41, 52
1, 76495, Control_c, 0, 64, 82
1, 76510, Control_c, 0, 64, 83
1, 76524, Control_c, 0, 64, 84
1, 76539, Control_c, 0, 64, 84
1, 76554, Control_c, 0, 64, 85
1, 76569, Control_c, 0, 64, 85
1, 76599, Control_c, 0, 64, 86
1, 76613, Control_c, 0, 64, 86
1, 76643, Control_c, 0, 64, 87
1, 76680, Control_c, 0, 64, 87
1, 76724, Control_c, 0, 64, 88
1, 76755, Note_off_c, 0, 65, 36
1, 76774, Poly_aftertouch_c, 0, 48, 0
1, 76814, Note_on_c, 0, 57, 31
1, 76822, Note_on_c, 0, 41, 39
1, 76947, Note_off_c, 0, 57, 37
1, 77318, Control_c, 0, 64, 87
1, 77333, Control_c, 0, 64, 85
1, 77345, Note_on_c, 0, 72, 45
1, 77348, Control_c, 0, 64, 80
1, 77354, Note_on_c, 0, 63, 42
1, 77363, Control_c, 0, 64, 74
1, 77364, Note_on_c, 0, 42, 42
1, 77376, Note_off_c, 0, 41, 44
1, 77378, Control_c, 0, 64, 62
1, 77392, Control_c, 0, 64, 0
1, 77533, Control_c, 0, 64, 61
1, 77548, Control_c, 0, 64, 66
1, 77563, Control_c, 0, 64, 69
1, 77578, Control_c, 0, 64, 72
1, 77594, Control_c, 0, 64, 74
1, 77609, Control_c, 0, 64, 77
1, 77623, Control_c, 0, 64, 79
1, 77638, Control_c, 0, 64, 81
1, 77653, Control_c, 0, 64, 82
1, 77668, Control_c, 0, 64, 83
1, 77673, Note_off_c, 0, 42, 35
1, 77683, Control_c, 0, 64, 84
1, 77697, Control_c, 0, 64, 84
1, 77710, Note_off_c, 0, 63, 47
1, 77712, Control_c, 0, 64, 85
1, 77727, Control_c, 0, 64, 86
1, 77742, Control_c, 0, 64, 86
1, 77757, Control_c, 0, 64, 87
1, 77771, Control_c, 0, 64, 87
1, 77786, Control_c, 0, 64, 88
1, 77815, Control_c, 0, 64, 88
1, 77860, Control_c, 0, 64, 89
1, 77919, Control_c, 0, 64, 89
1, 78011, Note_on_c, 0, 42, 49
1, 78023, Note_on_c, 0, 63, 43
1, 78053, Note_off_c, 0, 63, 54
1, 78083, Control_c, 0, 64, 90
1, 78114, Note_off_c, 0, 72, 59
1, 78258, Note_on_c, 0, 62, 35
1, 78320, Note_off_c, 0, 42, 61
1, 78364, Note_on_c, 0, 67, 39
1, 78451, Note_on_c, 0, 72, 55
1, 78520, Control_c, 0, 64, 89
1, 78535, Control_c, 0, 64, 89
1, 78538, Note_on_c, 0, 43, 57
1, 78550, Control_c, 0, 64, 86
1, 78551, Note_off_c, 0, 72, 57
1, 78564, Control_c, 0, 64, 80
1, 78565, Note_on_c, 0, 70, 57
1, 78579, Control_c, 0, 64, 68
1, 78594, Control_c, 0, 64, 0
1, 78668, Note_off_c, 0, 67, 62
1, 78683, Control_c, 0, 64, 64
1, 78698, Control_c, 0, 64, 69
1, 78712, Control_c, 0, 64, 74
1, 78716, Note_off_c, 0, 70, 63
1, 78727, Control_c, 0, 64, 77
1, 78742, Control_c, 0, 64, 79
1, 78757, Control_c, 0, 64, 79
1, 78772, Control_c, 0, 64, 80
1, 78787, Control_c, 0, 64, 81
1, 78801, Control_c, 0, 64, 81
1, 78804, Note_off_c, 0, 62, 40
1, 78816, Control_c, 0, 64, 82
1, 78861, Control_c, 0, 64, 82
1, 78894, Note_on_c, 0, 45, 56
1, 78900, Note_on_c, 0, 69, 69
1, 78930, Note_on_c, 0, 60, 51
1, 78930, Note_on_c, 0, 66, 55
1, 78932, Note_off_c, 0, 43, 34
1, 78963, Note_off_c, 0, 60, 55
1, 78977, Note_off_c, 0, 69, 61
1, 78984, Note_off_c, 0, 66, 56
1, 78995, Note_off_c, 0, 45, 59
1, 79016, Control_c, 0, 64, 80
1, 79028, Note_on_c, 0, 46, 63
1, 79031, Note_on_c, 0, 67, 71
1, 79031, Control_c, 0, 64, 75
1, 79040, Note_on_c, 0, 62, 66
1, 79046, Control_c, 0, 64, 64
1, 79061, Control_c, 0, 64, 0
1, 79135, Control_c, 0, 64, 43
1, 79150, Control_c, 0, 64, 65
1, 79164, Control_c, 0, 64, 70
1, 79179, Control_c, 0, 64, 73
1, 79195, Control_c, 0, 64, 75
1, 79210, Control_c, 0, 64, 76
1, 79225, Control_c, 0, 64, 77
1, 79240, Control_c, 0, 64, 78
1, 79252, Note_off_c, 0, 67, 58
1, 79255, Control_c, 0, 64, 79
1, 79282, Note_off_c, 0, 62, 41
1, 79283, Control_c, 0, 64, 80
1, 79357, Control_c, 0, 64, 79
1, 79363, Note_on_c, 0, 69, 65
1, 79372, Control_c, 0, 64, 78
1, 79379, Note_off_c, 0, 46, 34
1, 79381, Note_on_c, 0, 48, 48
1, 79382, Note_on_c, 0, 58, 52
1, 79382, Note_on_c, 0, 64, 51
1, 79386, Control_c, 0, 64, 74
1, 79401, Control_c, 0, 64, 64
1, 79416, Control_c, 0, 64, 0
1, 79520, Control_c, 0, 64, 36
1, 79535, Control_c, 0, 64, 63
1, 79550, Control_c, 0, 64, 68
1, 79565, Control_c, 0, 64, 70
1, 79579, Control_c, 0, 64, 72
1, 79594, Control_c, 0, 64, 74
1, 79609, Control_c, 0, 64, 77
1, 79624, Control_c, 0, 64, 79
1, 79639, Control_c, 0, 64, 80
1, 79660, Control_c, 0, 64, 81
1, 79675, Control_c, 0, 64, 81
1, 79685, Note_off_c, 0, 58, 37
1, 79690, Control_c, 0, 64, 82
1, 79695, Note_off_c, 0, 64, 55
1, 79705, Control_c, 0, 64, 83
1, 79720, Control_c, 0, 64, 83
1, 79733, Note_off_c, 0, 48, 43
1, 79734, Control_c, 0, 64, 84
1, 79749, Control_c, 0, 64, 85
1, 79764, Control_c, 0, 64, 85
1, 79779, Control_c, 0, 64, 86
1, 79854, Control_c, 0, 64, 86
1, 79955, Note_on_c, 0, 36, 42
1, 79967, Note_on_c, 0, 64, 33
1, 79982, Note_off_c, 0, 69, 39
1, 80021, Poly_aftertouch_c, 0, 58, 127
1, 80022, Poly_aftertouch_c, 0, 48, 127
1, 80043, Note_off_c, 0, 64, 53
1, 80064, Poly_aftertouch_c, 0, 58, 0
1, 80071, Poly_aftertouch_c, 0, 48, 0
1, 80147, Note_off_c, 0, 36, 32
1, 80331, Note_on_c, 0, 41, 58
1, 80340, Note_on_c, 0, 65, 51
1, 80343, Control_c, 0, 64, 86
1, 80358, Control_c, 0, 64, 85
1, 80369, Note_on_c, 0, 57, 32
1, 80372, Note_on_c, 0, 48, 24
1, 80373, Control_c, 0, 64, 84
1, 80388, Control_c, 0, 64, 80
1, 80403, Control_c, 0, 64, 72
1, 80425, Control_c, 0, 64, 54
1, 80440, Control_c, 0, 64, 0
1, 80499, Control_c, 0, 64, 26
1, 80509, Note_off_c, 0, 57, 27
1, 80514, Control_c, 0, 64, 65
1, 80529, Control_c, 0, 64, 71
1, 80543, Control_c, 0, 64, 76
1, 80558, Control_c, 0, 64, 79
1, 80573, Control_c, 0, 64, 80
1, 80603, Control_c, 0, 64, 80
1, 80617, Control_c, 0, 64, 81
1, 80663, Note_off_c, 0, 48, 40
1, 80687, Note_on_c, 0, 40, 65
1, 80733, Note_off_c, 0, 41, 58
1, 80751, Control_c, 0, 64, 80
1, 80766, Control_c, 0, 64, 78
1, 80781, Control_c, 0, 64, 72
1, 80796, Control_c, 0, 64, 49
1, 80805, Note_on_c, 0, 38, 64
1, 80811, Control_c, 0, 64, 0
1, 80822, Note_off_c, 0, 40, 57
1, 80837, Note_on_c, 0, 57, 44
1, 80900, Control_c, 0, 64, 33
1, 80915, Control_c, 0, 64, 64
1, 80930, Control_c, 0, 64, 70
1, 80938, Note_off_c, 0, 57, 62
1, 80945, Control_c, 0, 64, 75
1, 80954, Note_off_c, 0, 65, 64
1, 80959, Control_c, 0, 64, 78
1, 80974, Control_c, 0, 64, 78
1, 80989, Control_c, 0, 64, 79
1, 81004, Control_c, 0, 64, 80
1, 81019, Control_c, 0, 64, 81
1, 81033, Control_c, 0, 64, 83
1, 81048, Control_c, 0, 64, 84
1, 81063, Control_c, 0, 64, 84
1, 81093, Control_c, 0, 64, 85
1, 81137, Control_c, 0, 64, 84
1, 81172, Note_on_c, 0, 69, 52
1, 81174, Control_c, 0, 64, 83
1, 81174, Note_on_c, 0, 36, 58
1, 81187, Note_on_c, 0, 64, 44
1, 81189, Control_c, 0, 64, 79
1, 81204, Control_c, 0, 64, 72
1, 81207, Note_on_c, 0, 58, 31
1, 81212, Note_off_c, 0, 38, 38
1, 81213, Note_on_c, 0, 48, 33
1, 81219, Control_c, 0, 64, 47
1, 81234, Control_c, 0, 64, 0
1, 81337, Control_c, 0, 64, 58
1, 81352, Control_c, 0, 64, 66
1, 81366, Control_c, 0, 64, 71
1, 81381, Control_c, 0, 64, 75
1, 81396, Control_c, 0, 64, 78
1, 81411, Control_c, 0, 64, 79
1, 81426, Control_c, 0, 64, 81
1, 81440, Note_off_c, 0, 64, 54
1, 81440, Control_c, 0, 64, 82
1, 81455, Control_c, 0, 64, 83
1, 81461, Note_off_c, 0, 58, 32
1, 81470, Control_c, 0, 64, 84
1, 81484, Control_c, 0, 64, 85
1, 81499, Control_c, 0, 64, 86
1, 81502, Note_off_c, 0, 36, 37
1, 81514, Control_c, 0, 64, 87
1, 81529, Control_c, 0, 64, 87
1, 81544, Control_c, 0, 64, 88
1, 81559, Control_c, 0, 64, 88
1, 81708, Note_on_c, 0, 64, 41
1, 81711, Note_on_c, 0, 36, 37
1, 81711, Note_on_c, 0, 58, 26
1, 81786, Note_off_c, 0, 64, 58
1, 81816, Note_off_c, 0, 48, 39
1, 81830, Note_off_c, 0, 69, 28
1, 81844, Note_off_c, 0, 58, 25
1, 82012, Control_c, 0, 64, 88
1, 82027, Control_c, 0, 64, 87
1, 82031, Note_on_c, 0, 65, 52
1, 82036, Note_on_c, 0, 41, 49
1, 82042, Control_c, 0, 64, 84
1, 82054, Note_on_c, 0, 57, 35
1, 82057, Control_c, 0, 64, 78
1, 82068, Note_on_c, 0, 48, 30
1, 82071, Control_c, 0, 64, 70
1, 82086, Control_c, 0, 64, 0
1, 82116, Note_off_c, 0, 36, 38
1, 82175, Control_c, 0, 64, 44
1, 82189, Control_c, 0, 64, 64
1, 82204, Control_c, 0, 64, 68
1, 82219, Control_c, 0, 64, 72
1, 82234, Control_c, 0, 64, 76
1, 82249, Control_c, 0, 64, 78
1, 82263, Control_c, 0, 64, 78
1, 82278, Control_c, 0, 64, 79
1, 82291, Note_off_c, 0, 57, 33
1, 82293, Control_c, 0, 64, 80
1, 82307, Control_c, 0, 64, 80
1, 82322, Control_c, 0, 64, 81
1, 82367, Control_c, 0, 64, 81
1, 82370, Note_on_c, 0, 40, 66
1, 82439, Note_off_c, 0, 48, 41
1, 82442, Control_c, 0, 64, 81
1, 82457, Control_c, 0, 64, 80
1, 82472, Control_c, 0, 64, 76
1, 82485, Note_on_c, 0, 38, 60
1, 82486, Note_off_c, 0, 40, 57
1, 82486, Control_c, 0, 64, 69
1, 82499, Note_on_c, 0, 48, 43
1, 82501, Control_c, 0, 64, 39
1, 82504, Note_on_c, 0, 57, 46
1, 82516, Control_c, 0, 64, 0
1, 82524, Note_off_c, 0, 41, 44
1, 82620, Control_c, 0, 64, 59
1, 82631, Note_off_c, 0, 57, 61
1, 82635, Control_c, 0, 64, 67
1, 82657, Control_c, 0, 64, 71
1, 82672, Control_c, 0, 64, 75
1, 82686, Control_c, 0, 64, 77
1, 82701, Control_c, 0, 64, 79
1, 82716, Control_c, 0, 64, 80
1, 82730, Control_c, 0, 64, 81
1, 82745, Control_c, 0, 64, 82
1, 82754, Note_off_c, 0, 48, 36
1, 82760, Control_c, 0, 64, 82
1, 82775, Control_c, 0, 64, 83
1, 82842, Note_off_c, 0, 65, 39
1, 82864, Control_c, 0, 64, 82
1, 82870, Note_on_c, 0, 69, 52
1, 82877, Note_on_c, 0, 36, 47
1, 82879, Control_c, 0, 64, 80
1, 82883, Note_on_c, 0, 48, 39
1, 82891, Note_on_c, 0, 58, 39
1, 82894, Control_c, 0, 64, 73
1, 82894, Note_on_c, 0, 64, 36
1, 82909, Control_c, 0, 64, 62
1, 82909, Note_off_c, 0, 38, 33
1, 82924, Control_c, 0, 64, 0
1, 83027, Control_c, 0, 64, 36
1, 83042, Control_c, 0, 64, 63
1, 83057, Control_c, 0, 64, 67
1, 83072, Control_c, 0, 64, 69
1, 83086, Control_c, 0, 64, 72
1, 83101, Control_c, 0, 64, 74
1, 83116, Control_c, 0, 64, 77
1, 83130, Control_c, 0, 64, 78
1, 83145, Control_c, 0, 64, 79
1, 83157, Note_off_c, 0, 58, 33
1, 83160, Control_c, 0, 64, 80
1, 83175, Control_c, 0, 64, 81
1, 83191, Control_c, 0, 64, 81
1, 83192, Note_off_c, 0, 36, 39
1, 83195, Note_off_c, 0, 64, 39
1, 83206, Control_c, 0, 64, 82
1, 83221, Control_c, 0, 64, 82
1, 83265, Control_c, 0, 64, 83
1, 83493, Note_on_c, 0, 58, 34
1, 83502, Note_on_c, 0, 36, 35
1, 83508, Note_on_c, 0, 64, 32
1, 83571, Note_off_c, 0, 64, 41
1, 83582, Note_off_c, 0, 58, 0
1, 83619, Poly_aftertouch_c, 0, 58, 127
1, 83652, Note_off_c, 0, 48, 40
1, 83657, Poly_aftertouch_c, 0, 58, 0
1, 83706, Note_off_c, 0, 69, 29
1, 83999, Control_c, 0, 64, 82
1, 84014, Control_c, 0, 64, 82
1, 84029, Control_c, 0, 64, 81
1, 84031, Note_on_c, 0, 65, 47
1, 84044, Note_on_c, 0, 41, 37
1, 84044, Control_c, 0, 64, 79
1, 84052, Note_on_c, 0, 57, 42
1, 84058, Control_c, 0, 64, 76
1, 84073, Control_c, 0, 64, 70
1, 84085, Note_on_c, 0, 48, 24
1, 84088, Control_c, 0, 64, 57
1, 84103, Control_c, 0, 64, 0
1, 84115, Note_off_c, 0, 36, 3
1, 84229, Control_c, 0, 64, 60
1, 84244, Control_c, 0, 64, 68
1, 84258, Control_c, 0, 64, 71
1, 84273, Control_c, 0, 64, 73
1, 84288, Control_c, 0, 64, 74
1, 84296, Note_off_c, 0, 57, 56
1, 84302, Control_c, 0, 64, 76
1, 84317, Control_c, 0, 64, 77
1, 84332, Control_c, 0, 64, 79
1, 84347, Control_c, 0, 64, 80
1, 84348, Note_off_c, 0, 48, 12
1, 84362, Control_c, 0, 64, 81
1, 84376, Control_c, 0, 64, 82
1, 84406, Control_c, 0, 64, 82
1, 84436, Control_c, 0, 64, 83
1, 84599, Control_c, 0, 64, 82
1, 84610, Note_off_c, 0, 65, 43
1, 84614, Control_c, 0, 64, 81
1, 84620, Note_off_c, 0, 41, 46
1, 84625, Note_on_c, 0, 69, 58
1, 84629, Control_c, 0, 64, 77
1, 84642, Note_on_c, 0, 58, 34
1, 84642, Note_on_c, 0, 64, 35
1, 84644, Control_c, 0, 64, 68
1, 84651, Note_on_c, 0, 36, 30
1, 84658, Control_c, 0, 64, 0
1, 84687, Poly_aftertouch_c, 0, 48, 127
1, 84732, Control_c, 0, 64, 56
1, 84747, Control_c, 0, 64, 66
1, 84762, Control_c, 0, 64, 70
1, 84778, Control_c, 0, 64, 73
1, 84781, Poly_aftertouch_c, 0, 48, 0
1, 84782, Note_off_c, 0, 64, 52
1, 84793, Control_c, 0, 64, 75
1, 84807, Control_c, 0, 64, 77
1, 84811, Note_off_c, 0, 58, 52
1, 84822, Control_c, 0, 64, 77
1, 84852, Control_c, 0, 64, 78
1, 84945, Note_on_c, 0, 65, 49
1, 84948, Control_c, 0, 64, 77
1, 84959, Note_on_c, 0, 41, 35
1, 84963, Control_c, 0, 64, 76
1, 84971, Note_on_c, 0, 57, 29
1, 84975, Note_off_c, 0, 69, 20
1, 84978, Control_c, 0, 64, 73
1, 84985, Poly_aftertouch_c, 0, 48, 127
1, 84993, Control_c, 0, 64, 67
1, 85007, Control_c, 0, 64, 0
1, 85023, Note_off_c, 0, 36, 22
1, 85126, Control_c, 0, 64, 56
1, 85140, Control_c, 0, 64, 66
1, 85155, Control_c, 0, 64, 69
1, 85164, Note_off_c, 0, 57, 37
1, 85170, Control_c, 0, 64, 72
1, 85185, Control_c, 0, 64, 75
1, 85199, Control_c, 0, 64, 77
1, 85214, Control_c, 0, 64, 79
1, 85229, Control_c, 0, 64, 80
1, 85244, Control_c, 0, 64, 80
1, 85252, Poly_aftertouch_c, 0, 48, 0
1, 85259, Control_c, 0, 64, 81
1, 85272, Control_c, 0, 64, 81
1, 85287, Control_c, 0, 64, 82
1, 85302, Control_c, 0, 64, 82
1, 85317, Control_c, 0, 64, 83
1, 85331, Note_off_c, 0, 65, 36
1, 85331, Control_c, 0, 64, 83
1, 85376, Control_c, 0, 64, 84
1, 85524, Note_off_c, 0, 41, 44
1, 85538, Control_c, 0, 64, 83
1, 85546, Note_on_c, 0, 69, 53
1, 85553, Control_c, 0, 64, 83
1, 85556, Note_on_c, 0, 36, 34
1, 85559, Note_on_c, 0, 48, 31
1, 85561, Note_on_c, 0, 58, 33
1, 85561, Note_on_c, 0, 64, 43
1, 85568, Control_c, 0, 64, 79
1, 85584, Control_c, 0, 64, 71
1, 85599, Control_c, 0, 64, 48
1, 85614, Control_c, 0, 64, 0
1, 85666, Control_c, 0, 64, 31
1, 85681, Control_c, 0, 64, 64
1, 85692, Note_off_c, 0, 64, 58
1, 85696, Control_c, 0, 64, 70
1, 85710, Control_c, 0, 64, 74
1, 85725, Control_c, 0, 64, 75
1, 85731, Note_off_c, 0, 48, 31
1, 85745, Note_off_c, 0, 58, 41
1, 85754, Control_c, 0, 64, 76
1, 85755, Note_off_c, 0, 69, 37
1, 85843, Control_c, 0, 64, 75
1, 85858, Control_c, 0, 64, 73
1, 85872, Note_on_c, 0, 65, 47
1, 85873, Control_c, 0, 64, 69
1, 85888, Note_on_c, 0, 57, 33
1, 85888, Control_c, 0, 64, 64
1, 85892, Note_on_c, 0, 41, 28
1, 85902, Control_c, 0, 64, 48
1, 85912, Poly_aftertouch_c, 0, 48, 127
1, 85917, Control_c, 0, 64, 0
1, 85923, Note_off_c, 0, 36, 20
1, 86096, Control_c, 0, 64, 60
1, 86110, Control_c, 0, 64, 68
1, 86125, Control_c, 0, 64, 72
1, 86140, Control_c, 0, 64, 76
1, 86154, Control_c, 0, 64, 78
1, 86160, Note_off_c, 0, 57, 39
1, 86169, Control_c, 0, 64, 79
1, 86184, Control_c, 0, 64, 79
1, 86197, Poly_aftertouch_c, 0, 48, 0
1, 86199, Control_c, 0, 64, 80
1, 86214, Control_c, 0, 64, 81
1, 86228, Control_c, 0, 64, 82
1, 86243, Control_c, 0, 64, 84
1, 86258, Control_c, 0, 64, 84
1, 86287, Control_c, 0, 64, 85
1, 86303, Note_off_c, 0, 65, 38
1, 86332, Control_c, 0, 64, 85
1, 86472, Note_off_c, 0, 41, 44
1, 86533, Control_c, 0, 64, 85
1, 86548, Control_c, 0, 64, 84
1, 86549, Note_on_c, 0, 69, 44
1, 86559, Note_on_c, 0, 58, 32
1, 86563, Control_c, 0, 64, 80
1, 86565, Note_on_c, 0, 64, 33
1, 86573, Note_on_c, 0, 36, 24
1, 86577, Control_c, 0, 64, 72
1, 86592, Control_c, 0, 64, 58
1, 86600, Poly_aftertouch_c, 0, 48, 127
1, 86607, Control_c, 0, 64, 0
1, 86666, Control_c, 0, 64, 61
1, 86681, Control_c, 0, 64, 69
1, 86683, Poly_aftertouch_c, 0, 48, 0
1, 86696, Control_c, 0, 64, 73
1, 86710, Control_c, 0, 64, 77
1, 86725, Note_off_c, 0, 64, 39
1, 86725, Control_c, 0, 64, 79
1, 86740, Control_c, 0, 64, 80
1, 86755, Control_c, 0, 64, 80
1, 86765, Note_off_c, 0, 58, 41
1, 86771, Control_c, 0, 64, 81
1, 86784, Note_off_c, 0, 69, 35
1, 86785, Control_c, 0, 64, 82
1, 86905, Note_on_c, 0, 65, 45
1, 86918, Control_c, 0, 64, 81
1, 86922, Note_on_c, 0, 41, 33
1, 86933, Control_c, 0, 64, 79
1, 86934, Note_on_c, 0, 48, 13
1, 86934, Note_on_c, 0, 57, 28
1, 86948, Control_c, 0, 64, 73
1, 86963, Control_c, 0, 64, 65
1, 86978, Control_c, 0, 64, 0
1, 87006, Note_off_c, 0, 36, 17
1, 87096, Control_c, 0, 64, 61
1, 87111, Control_c, 0, 64, 67
1, 87126, Control_c, 0, 64, 70
1, 87148, Control_c, 0, 64, 72
1, 87163, Control_c, 0, 64, 74
1, 87179, Control_c, 0, 64, 77
1, 87186, Note_off_c, 0, 57, 34
1, 87189, Note_off_c, 0, 48, 30
1, 87194, Control_c, 0, 64, 78
1, 87208, Control_c, 0, 64, 80
1, 87223, Control_c, 0, 64, 81
1, 87234, Note_off_c, 0, 41, 32
1, 87238, Control_c, 0, 64, 82
1, 87253, Control_c, 0, 64, 82
1, 87282, Control_c, 0, 64, 83
1, 87327, Control_c, 0, 64, 83
1, 87446, Control_c, 0, 64, 84
1, 87491, Note_off_c, 0, 65, 35
1, 88061, Control_c, 0, 64, 83
1, 88087, Note_on_c, 0, 69, 40
1, 88091, Control_c, 0, 64, 82
1, 88102, Note_on_c, 0, 58, 33
1, 88105, Control_c, 0, 64, 81
1, 88114, Note_on_c, 0, 64, 33
1, 88120, Control_c, 0, 64, 79
1, 88130, Note_on_c, 0, 36, 28
1, 88135, Control_c, 0, 64, 75
1, 88145, Note_on_c, 0, 48, 8
1, 88150, Control_c, 0, 64, 69
1, 88164, Control_c, 0, 64, 56
1, 88179, Control_c, 0, 64, 0
1, 88284, Control_c, 0, 64, 40
1, 88298, Control_c, 0, 64, 62
1, 88313, Control_c, 0, 64, 66
1, 88328, Control_c, 0, 64, 69
1, 88337, Note_off_c, 0, 48, 33
1, 88343, Control_c, 0, 64, 72
1, 88357, Control_c, 0, 64, 74
1, 88372, Control_c, 0, 64, 77
1, 88387, Control_c, 0, 64, 79
1, 88402, Control_c, 0, 64, 80
1, 88417, Control_c, 0, 64, 81
1, 88431, Control_c, 0, 64, 81
1, 88446, Control_c, 0, 64, 82
1, 88461, Control_c, 0, 64, 82
1, 88476, Control_c, 0, 64, 83
1, 88491, Control_c, 0, 64, 83
1, 88520, Control_c, 0, 64, 84
1, 88549, Control_c, 0, 64, 84
1, 88572, Note_off_c, 0, 58, 40
1, 88782, Note_off_c, 0, 64, 34
1, 89044, Note_off_c, 0, 36, 29
1, 89224, Note_on_c, 0, 29, 41
1, 89225, Control_c, 0, 64, 84
1, 89240, Control_c, 0, 64, 82
1, 89254, Control_c, 0, 64, 77
1, 89269, Control_c, 0, 64, 70
1, 89284, Control_c, 0, 64, 51
1, 89298, Control_c, 0, 64, 0
1, 89358, Control_c, 0, 64, 56
1, 89372, Control_c, 0, 64, 66
1, 89387, Control_c, 0, 64, 69
1, 89410, Control_c, 0, 64, 73
1, 89425, Control_c, 0, 64, 76
1, 89432, Note_off_c, 0, 29, 41
1, 89440, Control_c, 0, 64, 78
1, 89454, Control_c, 0, 64, 79
1, 89469, Control_c, 0, 64, 80
1, 89484, Control_c, 0, 64, 80
1, 89498, Control_c, 0, 64, 81
1, 89503, Note_off_c, 0, 69, 33
1, 89513, Control_c, 0, 64, 82
1, 89528, Control_c, 0, 64, 82
1, 89543, Control_c, 0, 64, 83
1, 89558, Control_c, 0, 64, 83
1, 89589, Control_c, 0, 64, 84
1, 89595, Note_on_c, 0, 41, 38
1, 89677, Control_c, 0, 64, 84
1, 89682, Note_off_c, 0, 41, 54
1, 89756, Poly_aftertouch_c, 0, 41, 0
1, 89781, Control_c, 0, 64, 85
1, 89792, Poly_aftertouch_c, 0, 41, 127
1, 89967, Note_on_c, 0, 48, 39
1, 89974, Control_c, 0, 64, 85
1, 90062, Control_c, 0, 64, 86
1, 90218, Control_c, 0, 64, 86
1, 90290, Note_on_c, 0, 53, 36
1, 90538, Note_on_c, 0, 57, 27
1, 90753, Note_on_c, 0, 60, 35
1, 90937, Control_c, 0, 64, 87
1, 91101, Note_on_c, 0, 65, 42
1, 91279, Control_c, 0, 64, 87
1, 91353, Control_c, 0, 64, 88
1, 91456, Control_c, 0, 64, 88
1, 91864, Control_c, 0, 64, 89
1, 91965, Note_on_c, 0, 69, 29
1, 92180, Note_off_c, 0, 69, 39
1, 92440, Note_on_c, 0, 69, 26
1, 92621, Note_off_c, 0, 69, 41
1, 92821, Control_c, 0, 64, 89
1, 92890, Note_on_c, 0, 69, 32
1, 93087, Note_off_c, 0, 69, 38
1, 93508, Note_on_c, 0, 69, 31
1, 93757, Note_off_c, 0, 69, 35
1, 93807, Control_c, 0, 64, 90
1, 94120, Note_on_c, 0, 69, 28
1, 94363, Control_c, 0, 64, 90
1, 94398, Note_off_c, 0, 69, 39
1, 94948, Note_on_c, 0, 69, 13
1, 96327, Control_c, 0, 64, 90
1, 96386, Control_c, 0, 64, 89
1, 96475, Control_c, 0, 64, 89
1, 96580, Control_c, 0, 64, 88
1, 96830, Note_off_c, 0, 57, 34
1, 96848, Control_c, 0, 64, 88
1, 96906, Note_off_c, 0, 53, 39
1, 96968, Note_off_c, 0, 60, 37
1, 97100, Poly_aftertouch_c, 0, 41, 0
1, 97111, Note_off_c, 0, 65, 35
1, 97155, Note_off_c, 0, 48, 41
1, 97244, Note_off_c, 0, 69, 41
1, 97721, Control_c, 0, 67, 122
1, 97735, Control_c, 0, 67, 112
1, 97750, Control_c, 0, 67, 104
1, 97765, Control_c, 0, 67, 94
1, 97780, Control_c, 0, 64, 87
1, 97780, Control_c, 0, 67, 85
1, 97795, Control_c, 0, 67, 74
1, 97809, Control_c, 0, 64, 87
1, 97809, Control_c, 0, 67, 65
1, 97824, Control_c, 0, 67, 56
1, 97839, Control_c, 0, 67, 45
1, 97854, Control_c, 0, 64, 86
1, 97854, Control_c, 0, 67, 38
1, 97868, Control_c, 0, 64, 86
1, 97868, Control_c, 0, 67, 32
1, 97883, Control_c, 0, 67, 27
1, 97898, Control_c, 0, 64, 85
1, 97898, Control_c, 0, 67, 22
1, 97913, Control_c, 0, 64, 85
1, 97913, Control_c, 0, 67, 16
1, 97928, Control_c, 0, 64, 84
1, 97928, Control_c, 0, 67, 11
1, 97942, Control_c, 0, 64, 83
1, 97942, Control_c, 0, 67, 0
1, 97957, Control_c, 0, 64, 82
1, 97972, Control_c, 0, 64, 79
1, 97987, Control_c, 0, 64, 75
1, 98002, Control_c, 0, 64, 70
1, 98016, Control_c, 0, 64, 58
1, 98031, Control_c, 0, 64, 0
1, 98282, Note_on_c, 0, 45, 90
1, 98285, Note_on_c, 0, 33, 88
1, 98285, Note_on_c, 0, 93, 88
1, 98291, Note_on_c, 0, 89, 73
1, 98298, Control_c, 0, 64, 116
1, 98308, Note_off_c, 0, 33, 68
1, 98313, Control_c, 0, 64, 127
1, 98319, Note_off_c, 0, 45, 63
1, 98370, Note_off_c, 0, 93, 62
1, 98383, Note_on_c, 0, 88, 72
1, 98427, Note_off_c, 0, 89, 63
1, 98444, Note_on_c, 0, 84, 78
1, 98455, Note_on_c, 0, 52, 103
1, 98459, Note_on_c, 0, 40, 88
1, 98469, Note_off_c, 0, 88, 62
1, 98484, Note_off_c, 0, 40, 66
1, 98494, Note_off_c, 0, 52, 67
1, 98505, Note_off_c, 0, 84, 60
1, 98510, Note_on_c, 0, 81, 79
1, 98538, Note_off_c, 0, 81, 60
1, 98589, Note_on_c, 0, 59, 103
1, 98591, Note_on_c, 0, 47, 96
1, 98621, Note_off_c, 0, 47, 66
1, 98625, Note_off_c, 0, 59, 68
1, 98636, Note_on_c, 0, 77, 52
1, 98672, Note_off_c, 0, 77, 47
1, 98691, Control_c, 0, 64, 93
1, 98706, Control_c, 0, 64, 59
1, 98717, Note_on_c, 0, 60, 98
1, 98717, Note_on_c, 0, 72, 48
1, 98721, Control_c, 0, 64, 0
1, 98723, Note_on_c, 0, 48, 100
1, 98741, Note_off_c, 0, 72, 37
1, 98765, Control_c, 0, 64, 63
1, 98780, Control_c, 0, 64, 78
1, 98795, Control_c, 0, 64, 91
1, 98810, Control_c, 0, 64, 101
1, 98825, Control_c, 0, 64, 105
1, 98830, Note_off_c, 0, 60, 57
1, 98836, Poly_aftertouch_c, 0, 69, 127
1, 98839, Control_c, 0, 64, 113
1, 98840, Note_off_c, 0, 48, 65
1, 98854, Control_c, 0, 64, 127
1, 98855, Note_on_c, 0, 69, 22
1, 98876, Note_on_c, 0, 65, 66
1, 98909, Note_on_c, 0, 64, 75
1, 98934, Note_off_c, 0, 69, 61
1, 98940, Poly_aftertouch_c, 0, 51, 0
1, 98943, Note_off_c, 0, 65, 65
1, 98948, Note_on_c, 0, 60, 71
1, 98958, Control_c, 0, 64, 93
1, 98961, Note_off_c, 0, 64, 62
1, 98973, Control_c, 0, 64, 71
1, 98988, Control_c, 0, 64, 0
1, 98989, Note_off_c, 0, 60, 56
1, 99018, Note_on_c, 0, 57, 70
1, 99045, Note_off_c, 0, 57, 67
1, 99139, Note_on_c, 0, 56, 75
1, 99148, Note_on_c, 0, 53, 61
1, 99177, Note_on_c, 0, 50, 36
1, 99182, Note_on_c, 0, 59, 42
1, 99188, Control_c, 0, 64, 94
1, 99198, Note_off_c, 0, 56, 63
1, 99203, Control_c, 0, 64, 127
1, 99204, Note_on_c, 0, 45, 60
1, 99215, Note_off_c, 0, 50, 49
1, 99216, Note_off_c, 0, 59, 63
1, 99224, Note_off_c, 0, 53, 57
1, 99229, Note_on_c, 0, 68, 67
1, 99268, Note_off_c, 0, 68, 62
1, 99292, Note_on_c, 0, 59, 80
1, 99293, Note_on_c, 0, 56, 69
1, 99328, Note_off_c, 0, 45, 37
1, 99335, Note_off_c, 0, 56, 62
1, 99336, Note_off_c, 0, 59, 63
1, 99363, Note_on_c, 0, 53, 70
1, 99364, Note_on_c, 0, 62, 41
1, 99367, Note_on_c, 0, 71, 75
1, 99393, Note_off_c, 0, 62, 51
1, 99401, Note_off_c, 0, 71, 60
1, 99431, Note_on_c, 0, 45, 72
1, 99432, Note_off_c, 0, 53, 63
1, 99432, Note_on_c, 0, 62, 77
1, 99472, Note_off_c, 0, 45, 56
1, 99475, Note_off_c, 0, 62, 62
1, 99492, Note_on_c, 0, 65, 41
1, 99503, Note_on_c, 0, 74, 73
1, 99510, Note_on_c, 0, 59, 77
1, 99522, Note_off_c, 0, 65, 53
1, 99528, Note_off_c, 0, 74, 69
1, 99552, Note_on_c, 0, 53, 67
1, 99555, Note_off_c, 0, 59, 61
1, 99562, Note_on_c, 0, 65, 80
1, 99599, Note_off_c, 0, 65, 65
1, 99615, Note_on_c, 0, 45, 80
1, 99615, Note_on_c, 0, 77, 82
1, 99615, Note_off_c, 0, 53, 64
1, 99635, Note_off_c, 0, 77, 69
1, 99661, Note_off_c, 0, 45, 59
1, 99674, Note_on_c, 0, 68, 91
1, 99712, Note_off_c, 0, 68, 65
1, 99714, Note_on_c, 0, 62, 79
1, 99724, Note_on_c, 0, 80, 87
1, 99736, Note_off_c, 0, 62, 69
1, 99763, Note_off_c, 0, 80, 49
1, 99793, Note_on_c, 0, 71, 78
1, 99831, Note_off_c, 0, 71, 60
1, 99839, Note_on_c, 0, 74, 73
1, 99841, Note_on_c, 0, 83, 86
1, 99854, Note_off_c, 0, 74, 71
1, 99883, Note_off_c, 0, 83, 62
1, 99907, Control_c, 0, 64, 84
1, 99922, Control_c, 0, 64, 0
1, 99975, Note_on_c, 0, 45, 91
1, 99976, Note_on_c, 0, 33, 92
1, 99998, Control_c, 0, 64, 70
1, 100002, Note_off_c, 0, 33, 72
1, 100005, Note_off_c, 0, 45, 69
1, 100008, Note_on_c, 0, 93, 95
1, 100012, Control_c, 0, 64, 127
1, 100014, Note_on_c, 0, 89, 86
1, 100079, Note_off_c, 0, 93, 59
1, 100087, Note_on_c, 0, 88, 79
1, 100120, Note_off_c, 0, 89, 60
1, 100131, Note_on_c, 0, 84, 74
1, 100142, Note_on_c, 0, 52, 94
1, 100149, Note_on_c, 0, 40, 84
1, 100155, Note_off_c, 0, 88, 62
1, 100171, Note_off_c, 0, 52, 67
1, 100175, Note_off_c, 0, 40, 68
1, 100177, Note_off_c, 0, 84, 53
1, 100189, Note_on_c, 0, 81, 87
1, 100233, Note_off_c, 0, 81, 57
1, 100267, Note_on_c, 0, 59, 104
1, 100269, Note_on_c, 0, 47, 100
1, 100299, Note_off_c, 0, 47, 66
1, 100303, Note_off_c, 0, 59, 68
1, 100303, Note_on_c, 0, 77, 53
1, 100323, Note_on_c, 0, 76, 62
1, 100335, Note_off_c, 0, 77, 49
1, 100354, Note_off_c, 0, 76, 64
1, 100369, Note_on_c, 0, 72, 62
1, 100382, Control_c, 0, 64, 93
1, 100389, Note_off_c, 0, 72, 65
1, 100397, Control_c, 0, 64, 43
1, 100403, Note_on_c, 0, 60, 104
1, 100405, Note_on_c, 0, 48, 94
1, 100411, Control_c, 0, 64, 0
1, 100439, Note_on_c, 0, 69, 58
1, 100441, Control_c, 0, 64, 66
1, 100452, Note_on_c, 0, 50, 27
1, 100453, Note_off_c, 0, 50, 127
1, 100455, Control_c, 0, 64, 82
1, 100459, Note_off_c, 0, 69, 63
1, 100470, Control_c, 0, 64, 101
1, 100481, Note_off_c, 0, 60, 59
1, 100485, Control_c, 0, 64, 122
1, 100486, Note_off_c, 0, 48, 64
1, 100500, Control_c, 0, 64, 127
1, 100525, Note_on_c, 0, 69, 75
1, 100538, Note_on_c, 0, 65, 65
1, 100568, Note_on_c, 0, 64, 77
1, 100586, Note_off_c, 0, 69, 62
1, 100598, Note_off_c, 0, 65, 65
1, 100612, Note_on_c, 0, 60, 70
1, 100617, Note_off_c, 0, 64, 63
1, 100651, Note_off_c, 0, 60, 53
1, 100655, Control_c, 0, 64, 104
1, 100670, Control_c, 0, 64, 80
1, 100683, Note_on_c, 0, 57, 78
1, 100685, Control_c, 0, 64, 0
1, 100715, Note_off_c, 0, 57, 64
1, 100797, Note_on_c, 0, 56, 79
1, 100800, Note_on_c, 0, 59, 88
1, 100820, Control_c, 0, 64, 55
1, 100828, Note_off_c, 0, 59, 69
1, 100834, Control_c, 0, 64, 127
1, 100842, Note_off_c, 0, 56, 63
1, 100843, Note_on_c, 0, 62, 63
1, 100875, Note_on_c, 0, 71, 74
1, 100876, Note_on_c, 0, 53, 60
1, 100881, Note_off_c, 0, 62, 63
1, 100911, Poly_aftertouch_c, 0, 46, 0
1, 100917, Note_off_c, 0, 71, 58
1, 100923, Note_off_c, 0, 53, 63
1, 100931, Note_on_c, 0, 45, 66
1, 100939, Note_on_c, 0, 62, 86
1, 100958, Note_off_c, 0, 45, 64
1, 100980, Note_off_c, 0, 62, 62
1, 100994, Note_on_c, 0, 59, 71
1, 101006, Note_on_c, 0, 65, 27
1, 101008, Note_on_c, 0, 74, 78
1, 101030, Note_off_c, 0, 74, 68
1, 101040, Note_on_c, 0, 53, 65
1, 101045, Note_off_c, 0, 59, 61
1, 101048, Note_off_c, 0, 65, 0
1, 101060, Note_on_c, 0, 65, 68
1, 101108, Note_off_c, 0, 65, 65
1, 101113, Note_on_c, 0, 45, 71
1, 101139, Note_off_c, 0, 45, 64
1, 101161, Note_on_c, 0, 77, 17
1, 101182, Note_on_c, 0, 68, 84
1, 101191, Note_off_c, 0, 53, 59
1, 101199, Note_on_c, 0, 62, 85
1, 101206, Note_off_c, 0, 77, 31
1, 101221, Note_off_c, 0, 62, 66
1, 101230, Note_on_c, 0, 80, 85
1, 101230, Note_off_c, 0, 68, 60
1, 101278, Note_off_c, 0, 80, 64
1, 101307, Note_on_c, 0, 43, 69
1, 101320, Note_on_c, 0, 71, 68
1, 101321, Note_on_c, 0, 69, 60
1, 101331, Note_off_c, 0, 43, 60
1, 101333, Note_on_c, 0, 45, 51
1, 101339, Note_off_c, 0, 69, 64
1, 101339, Note_off_c, 0, 71, 65
1, 101351, Note_off_c, 0, 45, 66
1, 101378, Note_on_c, 0, 83, 51
1, 101398, Note_off_c, 0, 83, 56
1, 101408, Note_on_c, 0, 65, 76
1, 101421, Note_on_c, 0, 74, 88
1, 101429, Note_off_c, 0, 65, 67
1, 101458, Note_off_c, 0, 74, 67
1, 101471, Note_on_c, 0, 86, 78
1, 101490, Note_off_c, 0, 86, 71
1, 101538, Control_c, 0, 64, 93
1, 101554, Control_c, 0, 64, 0
1, 101599, Note_on_c, 0, 94, 38
1, 101623, Note_off_c, 0, 94, 51
1, 101628, Control_c, 0, 64, 44
1, 101640, Note_on_c, 0, 45, 85
1, 101643, Control_c, 0, 64, 98
1, 101649, Note_on_c, 0, 33, 89
1, 101657, Control_c, 0, 64, 127
1, 101659, Note_on_c, 0, 100, 92
1, 101664, Note_on_c, 0, 98, 85
1, 101668, Note_off_c, 0, 45, 67
1, 101672, Note_off_c, 0, 33, 68
1, 101682, Note_on_c, 0, 93, 63
1, 101683, Note_off_c, 0, 98, 67
1, 101717, Note_off_c, 0, 93, 0
1, 101734, Note_on_c, 0, 93, 45
1, 101760, Note_on_c, 0, 96, 80
1, 101767, Note_off_c, 0, 93, 63
1, 101774, Note_off_c, 0, 100, 62
1, 101801, Note_on_c, 0, 52, 89
1, 101805, Note_on_c, 0, 40, 80
1, 101820, Note_off_c, 0, 52, 74
1, 101834, Note_off_c, 0, 40, 67
1, 101843, Note_off_c, 0, 96, 64
1, 101858, Note_on_c, 0, 93, 48
1, 101871, Note_on_c, 0, 88, 70
1, 101880, Note_off_c, 0, 93, 53
1, 101898, Note_off_c, 0, 88, 61
1, 101932, Note_on_c, 0, 44, 84
1, 101934, Note_on_c, 0, 56, 85
1, 101945, Note_on_c, 0, 88, 68
1, 101951, Note_on_c, 0, 96, 73
1, 101952, Note_off_c, 0, 56, 62
1, 101953, Note_off_c, 0, 44, 69
1, 101984, Note_off_c, 0, 88, 53
1, 102006, Note_off_c, 0, 96, 55
1, 102017, Note_on_c, 0, 93, 70
1, 102064, Note_on_c, 0, 59, 94
1, 102065, Note_on_c, 0, 47, 97
1, 102072, Control_c, 0, 64, 101
1, 102087, Control_c, 0, 64, 76
1, 102094, Note_on_c, 0, 88, 34
1, 102101, Control_c, 0, 64, 42
1, 102102, Note_off_c, 0, 59, 67
1, 102106, Note_off_c, 0, 47, 65
1, 102110, Note_on_c, 0, 84, 80
1, 102114, Note_off_c, 0, 88, 36
1, 102124, Control_c, 0, 64, 32
1, 102134, Note_off_c, 0, 93, 45
1, 102139, Control_c, 0, 64, 67
1, 102154, Control_c, 0, 64, 81
1, 102167, Note_off_c, 0, 84, 55
1, 102169, Control_c, 0, 64, 98
1, 102183, Control_c, 0, 64, 114
1, 102186, Note_on_c, 0, 57, 92
1, 102193, Note_on_c, 0, 45, 89
1, 102198, Control_c, 0, 64, 119
1, 102199, Note_on_c, 0, 86, 63
1, 102213, Control_c, 0, 64, 119
1, 102219, Note_off_c, 0, 86, 60
1, 102226, Note_off_c, 0, 57, 65
1, 102227, Note_off_c, 0, 45, 65
1, 102227, Control_c, 0, 64, 120
1, 102228, Note_on_c, 0, 93, 51
1, 102242, Control_c, 0, 64, 121
1, 102257, Control_c, 0, 64, 123
1, 102264, Note_off_c, 0, 93, 64
1, 102272, Control_c, 0, 64, 126
1, 102278, Note_on_c, 0, 88, 55
1, 102287, Control_c, 0, 64, 127
1, 102309, Note_on_c, 0, 59, 99
1, 102312, Note_on_c, 0, 47, 97
1, 102333, Note_off_c, 0, 88, 62
1, 102345, Note_off_c, 0, 59, 67
1, 102346, Note_off_c, 0, 47, 67
1, 102359, Note_on_c, 0, 84, 41
1, 102388, Note_on_c, 0, 81, 68
1, 102388, Note_off_c, 0, 84, 52
1, 102413, Note_off_c, 0, 81, 66
1, 102418, Poly_aftertouch_c, 0, 51, 0
1, 102435, Note_on_c, 0, 62, 103
1, 102440, Note_on_c, 0, 50, 92
1, 102451, Control_c, 0, 64, 107
1, 102461, Note_on_c, 0, 88, 73
1, 102465, Note_on_c, 0, 54, 49
1, 102466, Control_c, 0, 64, 84
1, 102468, Note_on_c, 0, 81, 58
1, 102473, Note_off_c, 0, 62, 64
1, 102479, Note_off_c, 0, 50, 62
1, 102480, Control_c, 0, 64, 64
1, 102492, Note_off_c, 0, 54, 51
1, 102495, Control_c, 0, 64, 0
1, 102497, Note_off_c, 0, 81, 53
1, 102497, Note_on_c, 0, 79, 27
1, 102498, Note_off_c, 0, 79, 44
1, 102510, Control_c, 0, 64, 57
1, 102518, Note_on_c, 0, 84, 68
1, 102520, Note_off_c, 0, 88, 58
1, 102524, Control_c, 0, 64, 72
1, 102539, Control_c, 0, 64, 86
1, 102554, Control_c, 0, 64, 100
1, 102559, Note_on_c, 0, 60, 97
1, 102562, Note_on_c, 0, 48, 92
1, 102569, Control_c, 0, 64, 108
1, 102581, Note_off_c, 0, 60, 65
1, 102584, Note_off_c, 0, 48, 71
1, 102584, Note_off_c, 0, 84, 65
1, 102584, Control_c, 0, 64, 110
1, 102595, Note_on_c, 0, 76, 75
1, 102598, Control_c, 0, 64, 111
1, 102613, Control_c, 0, 64, 113
1, 102628, Control_c, 0, 64, 115
1, 102629, Note_off_c, 0, 76, 65
1, 102643, Control_c, 0, 64, 118
1, 102658, Control_c, 0, 64, 122
1, 102673, Control_c, 0, 64, 127
1, 102674, Note_on_c, 0, 51, 82
1, 102675, Note_on_c, 0, 63, 96
1, 102695, Note_off_c, 0, 63, 68
1, 102700, Note_off_c, 0, 51, 68
1, 102708, Note_on_c, 0, 84, 40
1, 102712, Note_on_c, 0, 76, 18
1, 102723, Note_on_c, 0, 83, 47
1, 102747, Note_off_c, 0, 83, 52
1, 102750, Note_on_c, 0, 81, 70
1, 102751, Note_off_c, 0, 76, 29
1, 102754, Note_off_c, 0, 84, 62
1, 102804, Note_on_c, 0, 67, 90
1, 102808, Note_on_c, 0, 53, 86
1, 102811, Note_on_c, 0, 65, 89
1, 102815, Note_off_c, 0, 81, 58
1, 102824, Note_on_c, 0, 55, 64
1, 102838, Note_off_c, 0, 65, 65
1, 102840, Note_on_c, 0, 72, 71
1, 102842, Note_off_c, 0, 67, 59
1, 102845, Note_off_c, 0, 55, 39
1, 102852, Note_off_c, 0, 53, 63
1, 102862, Note_off_c, 0, 72, 67
1, 102932, Control_c, 0, 64, 93
1, 102933, Note_on_c, 0, 64, 99
1, 102934, Note_on_c, 0, 81, 75
1, 102938, Note_on_c, 0, 72, 57
1, 102939, Note_on_c, 0, 52, 93
1, 102947, Control_c, 0, 64, 64
1, 102962, Control_c, 0, 64, 0
1, 102977, Note_off_c, 0, 72, 51
1, 102993, Note_on_c, 0, 76, 71
1, 102994, Note_off_c, 0, 64, 62
1, 103006, Control_c, 0, 64, 70
1, 103006, Note_off_c, 0, 81, 57
1, 103021, Control_c, 0, 64, 87
1, 103036, Control_c, 0, 64, 108
1, 103050, Control_c, 0, 64, 127
1, 103051, Note_off_c, 0, 52, 67
1, 103051, Note_off_c, 0, 76, 66
1, 103057, Note_on_c, 0, 72, 68
1, 103100, Note_off_c, 0, 72, 60
1, 103141, Note_on_c, 0, 69, 66
1, 103182, Note_off_c, 0, 69, 57
1, 103266, Note_on_c, 0, 45, 82
1, 103269, Note_on_c, 0, 33, 85
1, 103274, Control_c, 0, 64, 112
1, 103284, Note_on_c, 0, 78, 67
1, 103285, Note_on_c, 0, 72, 60
1, 103289, Control_c, 0, 64, 88
1, 103304, Control_c, 0, 64, 68
1, 103316, Note_off_c, 0, 33, 63
1, 103319, Control_c, 0, 64, 0
1, 103325, Note_off_c, 0, 45, 63
1, 103334, Control_c, 0, 64, 52
1, 103348, Control_c, 0, 64, 70
1, 103352, Note_off_c, 0, 72, 61
1, 103361, Note_on_c, 0, 75, 70
1, 103361, Note_off_c, 0, 78, 61
1, 103363, Control_c, 0, 64, 85
1, 103378, Control_c, 0, 64, 99
1, 103393, Control_c, 0, 64, 108
1, 103408, Control_c, 0, 64, 112
1, 103409, Note_off_c, 0, 75, 63
1, 103414, Note_on_c, 0, 72, 17
1, 103415, Note_on_c, 0, 48, 91
1, 103421, Note_on_c, 0, 36, 86
1, 103422, Control_c, 0, 64, 115
1, 103437, Control_c, 0, 64, 120
1, 103440, Note_on_c, 0, 66, 79
1, 103451, Note_off_c, 0, 36, 66
1, 103452, Note_off_c, 0, 72, 41
1, 103452, Control_c, 0, 64, 127
1, 103453, Note_off_c, 0, 48, 66
1, 103468, Note_off_c, 0, 66, 66
1, 103536, Note_on_c, 0, 50, 96
1, 103537, Note_on_c, 0, 72, 68
1, 103541, Note_on_c, 0, 38, 90
1, 103554, Note_on_c, 0, 66, 64
1, 103570, Note_off_c, 0, 38, 67
1, 103571, Note_off_c, 0, 50, 66
1, 103578, Note_on_c, 0, 42, 28
1, 103595, Note_off_c, 0, 66, 60
1, 103609, Note_off_c, 0, 72, 61
1, 103617, Note_off_c, 0, 42, 43
1, 103629, Note_on_c, 0, 69, 52
1, 103651, Note_off_c, 0, 69, 61
1, 103668, Note_on_c, 0, 51, 101
1, 103674, Note_on_c, 0, 39, 94
1, 103674, Note_on_c, 0, 66, 15
1, 103704, Note_on_c, 0, 60, 69
1, 103707, Note_off_c, 0, 66, 56
1, 103711, Control_c, 0, 64, 101
1, 103726, Control_c, 0, 64, 73
1, 103731, Note_off_c, 0, 60, 66
1, 103741, Control_c, 0, 64, 0
1, 103785, Control_c, 0, 64, 67
1, 103792, Note_on_c, 0, 69, 52
1, 103800, Control_c, 0, 64, 78
1, 103815, Control_c, 0, 64, 88
1, 103829, Control_c, 0, 64, 93
1, 103838, Note_on_c, 0, 66, 65
1, 103841, Note_off_c, 0, 69, 64
1, 103844, Control_c, 0, 64, 95
1, 103853, Note_on_c, 0, 60, 7
1, 103859, Control_c, 0, 64, 97
1, 103874, Control_c, 0, 64, 101
1, 103883, Note_off_c, 0, 60, 32
1, 103889, Control_c, 0, 64, 107
1, 103899, Note_off_c, 0, 66, 66
1, 103904, Control_c, 0, 64, 113
1, 103919, Control_c, 0, 64, 120
1, 103933, Control_c, 0, 64, 127
1, 103962, Note_on_c, 0, 57, 52
1, 103985, Note_off_c, 0, 57, 57
1, 104059, Note_on_c, 0, 66, 89
1, 104068, Note_on_c, 0, 57, 68
1, 104096, Control_c, 0, 64, 116
1, 104111, Control_c, 0, 64, 93
1, 104115, Note_off_c, 0, 57, 61
1, 104126, Control_c, 0, 64, 78
1, 104136, Note_on_c, 0, 60, 63
1, 104141, Control_c, 0, 64, 75
1, 104156, Control_c, 0, 64, 78
1, 104170, Control_c, 0, 64, 88
1, 104185, Control_c, 0, 64, 103
1, 104198, Note_on_c, 0, 57, 66
1, 104200, Control_c, 0, 64, 126
1, 104215, Control_c, 0, 64, 127
1, 104222, Note_off_c, 0, 60, 61
1, 104223, Note_off_c, 0, 66, 61
1, 104265, Note_on_c, 0, 54, 69
1, 104270, Note_off_c, 0, 57, 59
1, 104282, Note_off_c, 0, 51, 60
1, 104310, Note_off_c, 0, 39, 62
1, 104341, Note_on_c, 0, 50, 82
1, 104345, Note_on_c, 0, 38, 82
1, 104348, Control_c, 0, 64, 97
1, 104355, Note_on_c, 0, 66, 82
1, 104361, Note_on_c, 0, 62, 70
1, 104363, Control_c, 0, 64, 77
1, 104374, Note_off_c, 0, 54, 37
1, 104385, Control_c, 0, 64, 61
1, 104400, Control_c, 0, 64, 60
1, 104402, Note_off_c, 0, 50, 63
1, 104415, Control_c, 0, 64, 69
1, 104429, Control_c, 0, 64, 85
1, 104434, Note_off_c, 0, 62, 60
1, 104444, Control_c, 0, 64, 102
1, 104451, Note_off_c, 0, 38, 61
1, 104459, Control_c, 0, 64, 117
1, 104469, Note_on_c, 0, 54, 77
1, 104469, Note_off_c, 0, 66, 47
1, 104474, Control_c, 0, 64, 127
1, 104545, Note_off_c, 0, 54, 59
1, 104563, Control_c, 0, 64, 114
1, 104564, Note_on_c, 0, 45, 89
1, 104565, Note_on_c, 0, 33, 92
1, 104568, Note_on_c, 0, 66, 83
1, 104575, Note_on_c, 0, 63, 73
1, 104577, Control_c, 0, 64, 89
1, 104592, Control_c, 0, 64, 66
1, 104607, Control_c, 0, 64, 0
1, 104619, Note_off_c, 0, 45, 62
1, 104629, Note_off_c, 0, 33, 59
1, 104637, Control_c, 0, 64, 70
1, 104642, Note_off_c, 0, 63, 61
1, 104652, Control_c, 0, 64, 89
1, 104658, Note_on_c, 0, 54, 78
1, 104666, Note_off_c, 0, 66, 56
1, 104667, Control_c, 0, 64, 120
1, 104682, Control_c, 0, 64, 127
1, 104731, Note_off_c, 0, 54, 59
1, 104735, Note_on_c, 0, 46, 100
1, 104744, Note_on_c, 0, 34, 82
1, 104756, Note_on_c, 0, 66, 88
1, 104757, Note_on_c, 0, 44, 68
1, 104774, Note_on_c, 0, 62, 67
1, 104785, Note_on_c, 0, 32, 40
1, 104825, Note_off_c, 0, 46, 63
1, 104828, Note_off_c, 0, 32, 49
1, 104838, Note_on_c, 0, 54, 82
1, 104849, Note_off_c, 0, 44, 26
1, 104868, Note_off_c, 0, 62, 60
1, 104869, Note_off_c, 0, 66, 62
1, 104875, Note_off_c, 0, 34, 62
1, 104911, Note_on_c, 0, 45, 102
1, 104917, Note_on_c, 0, 33, 97
1, 104927, Note_off_c, 0, 54, 48
1, 104934, Control_c, 0, 64, 110
1, 104941, Note_on_c, 0, 66, 84
1, 104949, Control_c, 0, 64, 107
1, 104952, Note_on_c, 0, 62, 67
1, 104953, Note_on_c, 0, 60, 71
1, 104979, Control_c, 0, 64, 107
1, 105008, Control_c, 0, 64, 109
1, 105022, Note_on_c, 0, 54, 77
1, 105023, Control_c, 0, 64, 110
1, 105034, Note_off_c, 0, 45, 60
1, 105035, Note_off_c, 0, 60, 60
1, 105043, Note_off_c, 0, 54, 66
1, 105066, Note_off_c, 0, 62, 62
1, 105077, Note_off_c, 0, 66, 67
1, 105078, Note_off_c, 0, 33, 64
1, 105082, Control_c, 0, 64, 111
1, 105149, Control_c, 0, 64, 110
1, 105164, Control_c, 0, 64, 96
1, 105179, Control_c, 0, 64, 70
1, 105194, Control_c, 0, 64, 0
1, 105214, Note_on_c, 0, 31, 87
1, 105217, Note_on_c, 0, 43, 98
1, 105257, Note_off_c, 0, 31, 65
1, 105267, Control_c, 0, 64, 73
1, 105270, Note_on_c, 0, 91, 88
1, 105282, Control_c, 0, 64, 127
1, 105283, Note_on_c, 0, 87, 73
1, 105284, Note_off_c, 0, 43, 63
1, 105352, Note_on_c, 0, 86, 75
1, 105385, Note_off_c, 0, 91, 55
1, 105403, Note_off_c, 0, 87, 31
1, 105416, Note_on_c, 0, 82, 63
1, 105424, Note_on_c, 0, 50, 89
1, 105427, Note_on_c, 0, 38, 85
1, 105442, Note_on_c, 0, 83, 57
1, 105446, Note_off_c, 0, 86, 62
1, 105454, Note_off_c, 0, 38, 66
1, 105457, Note_off_c, 0, 50, 62
1, 105459, Note_off_c, 0, 83, 60
1, 105478, Note_on_c, 0, 79, 75
1, 105500, Note_off_c, 0, 79, 68
1, 105509, Note_off_c, 0, 82, 27
1, 105554, Note_on_c, 0, 57, 92
1, 105560, Note_on_c, 0, 45, 83
1, 105582, Note_off_c, 0, 45, 68
1, 105584, Note_off_c, 0, 57, 63
1, 105626, Note_on_c, 0, 74, 42
1, 105650, Note_off_c, 0, 74, 57
1, 105653, Note_on_c, 0, 70, 62
1, 105671, Note_off_c, 0, 70, 64
1, 105676, Note_on_c, 0, 58, 99
1, 105680, Note_on_c, 0, 46, 98
1, 105683, Control_c, 0, 64, 114
1, 105698, Control_c, 0, 64, 81
1, 105713, Control_c, 0, 64, 0
1, 105724, Note_on_c, 0, 67, 70
1, 105749, Note_off_c, 0, 67, 68
1, 105757, Control_c, 0, 64, 70
1, 105772, Control_c, 0, 64, 88
1, 105787, Control_c, 0, 64, 112
1, 105802, Control_c, 0, 64, 127
1, 105808, Note_off_c, 0, 58, 60
1, 105821, Note_on_c, 0, 68, 66
1, 105823, Note_off_c, 0, 46, 61
1, 105849, Note_off_c, 0, 68, 51
1, 105876, Note_on_c, 0, 63, 42
1, 105878, Note_on_c, 0, 62, 69
1, 105883, Note_on_c, 0, 67, 12
1, 105906, Note_off_c, 0, 63, 54
1, 105907, Note_off_c, 0, 62, 64
1, 105913, Note_on_c, 0, 58, 72
1, 105928, Note_off_c, 0, 67, 39
1, 105931, Note_off_c, 0, 58, 60
1, 105972, Control_c, 0, 64, 88
1, 105976, Note_on_c, 0, 55, 77
1, 105987, Control_c, 0, 64, 0
1, 106002, Note_off_c, 0, 55, 64
1, 106013, Note_on_c, 0, 63, 49
1, 106045, Note_off_c, 0, 63, 59
1, 106099, Note_on_c, 0, 51, 80
1, 106103, Note_on_c, 0, 54, 86
1, 106115, Note_on_c, 0, 57, 58
1, 106135, Control_c, 0, 64, 69
1, 106149, Control_c, 0, 64, 127
1, 106159, Note_off_c, 0, 54, 61
1, 106173, Note_off_c, 0, 51, 59
1, 106187, Note_on_c, 0, 43, 53
1, 106191, Note_off_c, 0, 57, 60
1, 106194, Note_on_c, 0, 66, 83
1, 106221, Poly_aftertouch_c, 0, 48, 127
1, 106246, Note_off_c, 0, 66, 66
1, 106259, Note_on_c, 0, 54, 61
1, 106270, Note_on_c, 0, 57, 69
1, 106273, Poly_aftertouch_c, 0, 48, 0
1, 106285, Note_off_c, 0, 54, 64
1, 106306, Note_off_c, 0, 43, 34
1, 106308, Note_off_c, 0, 57, 62
1, 106325, Note_on_c, 0, 51, 71
1, 106326, Note_on_c, 0, 60, 51
1, 106344, Note_on_c, 0, 69, 76
1, 106349, Note_off_c, 0, 60, 59
1, 106370, Note_off_c, 0, 69, 69
1, 106396, Note_on_c, 0, 43, 64
1, 106411, Note_on_c, 0, 60, 82
1, 106411, Note_off_c, 0, 51, 56
1, 106433, Note_off_c, 0, 43, 53
1, 106440, Note_off_c, 0, 60, 62
1, 106458, Note_on_c, 0, 57, 74
1, 106474, Note_on_c, 0, 72, 69
1, 106489, Note_off_c, 0, 72, 65
1, 106512, Note_off_c, 0, 57, 64
1, 106521, Note_on_c, 0, 51, 66
1, 106525, Note_on_c, 0, 63, 88
1, 106569, Note_on_c, 0, 43, 73
1, 106574, Note_off_c, 0, 63, 66
1, 106589, Note_on_c, 0, 75, 79
1, 106604, Note_off_c, 0, 43, 57
1, 106614, Note_off_c, 0, 75, 65
1, 106645, Note_on_c, 0, 45, 7
1, 106652, Note_off_c, 0, 51, 61
1, 106663, Note_on_c, 0, 66, 88
1, 106677, Note_on_c, 0, 60, 78
1, 106695, Note_off_c, 0, 45, 52
1, 106700, Note_off_c, 0, 60, 69
1, 106700, Note_off_c, 0, 66, 66
1, 106748, Note_on_c, 0, 69, 84
1, 106772, Poly_aftertouch_c, 0, 51, 0
1, 106786, Note_off_c, 0, 69, 68
1, 106811, Note_on_c, 0, 81, 82
1, 106830, Note_off_c, 0, 81, 70
1, 106855, Control_c, 0, 64, 106
1, 106870, Control_c, 0, 64, 72
1, 106880, Poly_aftertouch_c, 0, 72, 0
1, 106885, Control_c, 0, 64, 0
1, 106930, Note_on_c, 0, 43, 95
1, 106931, Note_on_c, 0, 31, 95
1, 106957, Note_off_c, 0, 31, 68
1, 106959, Control_c, 0, 64, 73
1, 106965, Note_on_c, 0, 91, 92
1, 106968, Note_on_c, 0, 87, 81
1, 106971, Note_off_c, 0, 43, 63
1, 106973, Control_c, 0, 64, 127
1, 107042, Note_on_c, 0, 86, 81
1, 107047, Note_off_c, 0, 91, 58
1, 107074, Note_off_c, 0, 87, 59
1, 107103, Note_on_c, 0, 50, 87
1, 107104, Note_on_c, 0, 82, 69
1, 107105, Note_on_c, 0, 38, 85
1, 107117, Note_off_c, 0, 86, 62
1, 107127, Note_off_c, 0, 50, 68
1, 107133, Note_off_c, 0, 38, 65
1, 107147, Note_on_c, 0, 79, 78
1, 107154, Note_off_c, 0, 82, 65
1, 107174, Note_off_c, 0, 79, 61
1, 107233, Note_on_c, 0, 55, 76
1, 107233, Note_on_c, 0, 45, 76
1, 107236, Note_on_c, 0, 57, 77
1, 107253, Note_off_c, 0, 45, 66
1, 107255, Note_on_c, 0, 79, 58
1, 107257, Note_off_c, 0, 55, 67
1, 107257, Note_off_c, 0, 57, 66
1, 107281, Note_off_c, 0, 79, 52
1, 107323, Note_on_c, 0, 70, 64
1, 107343, Note_off_c, 0, 70, 66
1, 107356, Note_on_c, 0, 58, 102
1, 107359, Control_c, 0, 64, 96
1, 107363, Note_on_c, 0, 46, 98
1, 107382, Control_c, 0, 64, 67
1, 107396, Control_c, 0, 64, 0
1, 107399, Note_on_c, 0, 67, 70
1, 107426, Control_c, 0, 64, 64
1, 107427, Note_off_c, 0, 67, 64
1, 107441, Control_c, 0, 64, 81
1, 107455, Control_c, 0, 64, 102
1, 107470, Control_c, 0, 64, 127
1, 107487, Note_off_c, 0, 58, 65
1, 107496, Note_on_c, 0, 67, 77
1, 107509, Note_off_c, 0, 46, 61
1, 107527, Note_on_c, 0, 63, 55
1, 107549, Note_on_c, 0, 62, 75
1, 107559, Control_c, 0, 64, 96
1, 107561, Poly_aftertouch_c, 0, 49, 0
1, 107573, Note_off_c, 0, 67, 60
1, 107574, Control_c, 0, 64, 57
1, 107585, Note_on_c, 0, 58, 73
1, 107588, Control_c, 0, 64, 0
1, 107590, Note_off_c, 0, 63, 47
1, 107592, Note_off_c, 0, 62, 58
1, 107645, Note_on_c, 0, 55, 85
1, 107664, Note_off_c, 0, 58, 63
1, 107687, Note_off_c, 0, 55, 66
1, 107766, Note_on_c, 0, 54, 78
1, 107772, Note_on_c, 0, 57, 83
1, 107796, Control_c, 0, 64, 97
1, 107808, Note_off_c, 0, 54, 62
1, 107811, Control_c, 0, 64, 127
1, 107815, Note_off_c, 0, 57, 61
1, 107822, Note_on_c, 0, 60, 55
1, 107853, Note_on_c, 0, 69, 79
1, 107854, Note_on_c, 0, 51, 56
1, 107859, Note_off_c, 0, 60, 65
1, 107889, Note_off_c, 0, 51, 63
1, 107892, Note_on_c, 0, 43, 71
1, 107893, Note_off_c, 0, 69, 63
1, 107914, Note_on_c, 0, 60, 78
1, 107936, Note_off_c, 0, 43, 47
1, 107963, Note_off_c, 0, 60, 59
1, 107970, Note_on_c, 0, 57, 75
1, 107985, Note_on_c, 0, 72, 73
1, 108000, Note_off_c, 0, 72, 69
1, 108032, Note_off_c, 0, 57, 59
1, 108041, Note_on_c, 0, 51, 54
1, 108056, Note_on_c, 0, 63, 91
1, 108086, Poly_aftertouch_c, 0, 70, 0
1, 108098, Note_on_c, 0, 43, 68
1, 108104, Note_off_c, 0, 63, 64
1, 108119, Note_on_c, 0, 75, 74
1, 108134, Note_off_c, 0, 43, 64
1, 108142, Note_off_c, 0, 75, 68
1, 108178, Note_on_c, 0, 66, 88
1, 108183, Note_off_c, 0, 51, 56
1, 108209, Note_on_c, 0, 60, 78
1, 108216, Note_on_c, 0, 51, 20
1, 108217, Note_off_c, 0, 66, 68
1, 108235, Note_off_c, 0, 60, 67
1, 108251, Note_off_c, 0, 51, 56
1, 108278, Note_on_c, 0, 77, 38
1, 108299, Note_on_c, 0, 69, 90
1, 108307, Note_off_c, 0, 77, 45
1, 108314, Note_on_c, 0, 43, 74
1, 108336, Note_off_c, 0, 69, 69
1, 108341, Note_off_c, 0, 43, 63
1, 108379, Note_on_c, 0, 81, 72
1, 108411, Note_on_c, 0, 63, 81
1, 108413, Note_on_c, 0, 72, 91
1, 108413, Note_off_c, 0, 81, 47
1, 108429, Note_off_c, 0, 63, 73
1, 108470, Note_off_c, 0, 72, 60
1, 108496, Note_on_c, 0, 84, 97
1, 108518, Note_on_c, 0, 75, 24
1, 108519, Note_off_c, 0, 75, 127
1, 108519, Note_on_c, 0, 82, 57
1, 108534, Note_on_c, 0, 76, 20
1, 108535, Note_off_c, 0, 76, 127
1, 108537, Note_off_c, 0, 84, 64
1, 108540, Note_off_c, 0, 82, 61
1, 108570, Poly_aftertouch_c, 0, 76, 0
1, 108590, Control_c, 0, 64, 98
1, 108604, Control_c, 0, 64, 66
1, 108619, Control_c, 0, 64, 0
1, 108660, Note_on_c, 0, 31, 84
1, 108667, Note_on_c, 0, 43, 93
1, 108696, Note_off_c, 0, 31, 66
1, 108698, Note_on_c, 0, 98, 100
1, 108706, Note_on_c, 0, 91, 90
1, 108708, Control_c, 0, 64, 85
1, 108717, Note_off_c, 0, 43, 63
1, 108723, Control_c, 0, 64, 127
1, 108790, Note_on_c, 0, 94, 89
1, 108797, Note_off_c, 0, 91, 61
1, 108829, Note_off_c, 0, 98, 60
1, 108854, Note_on_c, 0, 50, 78
1, 108877, Note_on_c, 0, 38, 47
1, 108877, Note_on_c, 0, 91, 60
1, 108886, Note_off_c, 0, 94, 66
1, 108888, Note_off_c, 0, 50, 67
1, 108898, Note_off_c, 0, 91, 55
1, 108909, Note_off_c, 0, 38, 54
1, 108921, Note_on_c, 0, 86, 69
1, 108952, Note_off_c, 0, 86, 62
1, 108987, Note_on_c, 0, 42, 77
1, 108987, Note_on_c, 0, 54, 84
1, 109003, Note_on_c, 0, 85, 56
1, 109005, Note_on_c, 0, 93, 62
1, 109021, Note_off_c, 0, 54, 55
1, 109024, Note_off_c, 0, 93, 62
1, 109025, Note_off_c, 0, 85, 39
1, 109026, Note_off_c, 0, 42, 65
1, 109047, Note_on_c, 0, 86, 22
1, 109079, Note_on_c, 0, 82, 73
1, 109087, Note_off_c, 0, 86, 44
1, 109103, Note_off_c, 0, 82, 67
1, 109104, Note_on_c, 0, 57, 95
1, 109109, Note_on_c, 0, 45, 88
1, 109145, Note_off_c, 0, 57, 65
1, 109152, Note_off_c, 0, 45, 61
1, 109164, Note_on_c, 0, 91, 78
1, 109175, Control_c, 0, 64, 118
1, 109190, Control_c, 0, 64, 89
1, 109205, Control_c, 0, 64, 64
1, 109220, Control_c, 0, 64, 0
1, 109220, Note_on_c, 0, 55, 91
1, 109220, Note_on_c, 0, 86, 66
1, 109223, Note_on_c, 0, 43, 90
1, 109234, Note_off_c, 0, 91, 52
1, 109235, Control_c, 0, 64, 56
1, 109250, Control_c, 0, 64, 74
1, 109259, Note_off_c, 0, 43, 64
1, 109261, Note_off_c, 0, 55, 65
1, 109265, Control_c, 0, 64, 91
1, 109280, Control_c, 0, 64, 110
1, 109294, Control_c, 0, 64, 126
1, 109299, Note_on_c, 0, 82, 68
1, 109301, Note_off_c, 0, 86, 63
1, 109309, Control_c, 0, 64, 127
1, 109337, Note_on_c, 0, 57, 96
1, 109338, Note_on_c, 0, 79, 82
1, 109345, Note_on_c, 0, 45, 85
1, 109345, Note_off_c, 0, 82, 64
1, 109369, Note_off_c, 0, 45, 69
1, 109371, Note_off_c, 0, 57, 67
1, 109378, Note_off_c, 0, 79, 61
1, 109398, Control_c, 0, 64, 120
1, 109413, Control_c, 0, 64, 95
1, 109428, Control_c, 0, 64, 74
1, 109443, Control_c, 0, 64, 0
1, 109453, Note_on_c, 0, 60, 95
1, 109455, Note_on_c, 0, 86, 73
1, 109458, Note_on_c, 0, 79, 76
1, 109459, Note_on_c, 0, 48, 85
1, 109479, Note_off_c, 0, 60, 66
1, 109482, Note_off_c, 0, 48, 69
1, 109487, Control_c, 0, 64, 72
1, 109496, Note_on_c, 0, 51, 29
1, 109502, Control_c, 0, 64, 86
1, 109517, Control_c, 0, 64, 98
1, 109523, Note_on_c, 0, 82, 80
1, 109524, Note_off_c, 0, 79, 61
1, 109533, Control_c, 0, 64, 103
1, 109535, Note_off_c, 0, 51, 51
1, 109536, Note_off_c, 0, 86, 60
1, 109547, Control_c, 0, 64, 104
1, 109562, Control_c, 0, 64, 106
1, 109563, Note_on_c, 0, 58, 101
1, 109570, Note_on_c, 0, 46, 89
1, 109577, Control_c, 0, 64, 109
1, 109586, Note_off_c, 0, 82, 64
1, 109592, Control_c, 0, 64, 114
1, 109595, Note_off_c, 0, 46, 67
1, 109596, Note_off_c, 0, 58, 67
1, 109607, Control_c, 0, 64, 120
1, 109616, Note_on_c, 0, 74, 79
1, 109629, Control_c, 0, 64, 127
1, 109645, Note_off_c, 0, 74, 61
1, 109689, Note_on_c, 0, 61, 103
1, 109695, Note_on_c, 0, 49, 93
1, 109698, Note_on_c, 0, 82, 74
1, 109717, Note_on_c, 0, 74, 59
1, 109721, Note_off_c, 0, 49, 64
1, 109722, Note_off_c, 0, 82, 67
1, 109723, Note_off_c, 0, 61, 65
1, 109746, Note_off_c, 0, 74, 63
1, 109807, Note_on_c, 0, 70, 64
1, 109816, Note_on_c, 0, 63, 103
1, 109822, Note_on_c, 0, 51, 102
1, 109828, Note_off_c, 0, 70, 67
1, 109863, Note_off_c, 0, 63, 69
1, 109866, Control_c, 0, 64, 92
1, 109869, Note_off_c, 0, 51, 60
1, 109881, Control_c, 0, 64, 0
1, 109913, Note_on_c, 0, 79, 67
1, 109940, Note_on_c, 0, 62, 101
1, 109940, Control_c, 0, 64, 43
1, 109942, Note_on_c, 0, 50, 87
1, 109955, Control_c, 0, 64, 78
1, 109964, Note_on_c, 0, 74, 76
1, 109970, Control_c, 0, 64, 104
1, 109981, Note_off_c, 0, 62, 65
1, 109984, Control_c, 0, 64, 127
1, 109990, Note_off_c, 0, 79, 61
1, 110023, Note_off_c, 0, 50, 63
1, 110026, Note_on_c, 0, 70, 75
1, 110049, Note_off_c, 0, 74, 61
1, 110078, Note_off_c, 0, 70, 59
1, 110092, Note_on_c, 0, 67, 74
1, 110139, Note_off_c, 0, 67, 50
1, 110298, Note_on_c, 0, 74, 80
1, 110305, Note_on_c, 0, 67, 84
1, 110314, Note_on_c, 0, 40, 101
1, 110319, Note_on_c, 0, 28, 94
1, 110324, Control_c, 0, 64, 109
1, 110340, Control_c, 0, 64, 88
1, 110362, Control_c, 0, 64, 74
1, 110364, Note_off_c, 0, 28, 63
1, 110371, Note_off_c, 0, 40, 64
1, 110377, Control_c, 0, 64, 74
1, 110392, Control_c, 0, 64, 81
1, 110393, Note_off_c, 0, 67, 61
1, 110397, Note_on_c, 0, 70, 79
1, 110407, Control_c, 0, 64, 92
1, 110421, Control_c, 0, 64, 104
1, 110436, Note_off_c, 0, 74, 57
1, 110436, Control_c, 0, 64, 112
1, 110451, Control_c, 0, 64, 114
1, 110466, Control_c, 0, 64, 115
1, 110474, Note_on_c, 0, 67, 56
1, 110480, Control_c, 0, 64, 116
1, 110483, Note_off_c, 0, 70, 62
1, 110491, Note_on_c, 0, 43, 94
1, 110495, Control_c, 0, 64, 119
1, 110496, Note_on_c, 0, 31, 87
1, 110498, Note_off_c, 0, 67, 61
1, 110510, Control_c, 0, 64, 123
1, 110525, Control_c, 0, 64, 127
1, 110528, Note_off_c, 0, 31, 67
1, 110528, Note_on_c, 0, 62, 67
1, 110537, Note_off_c, 0, 43, 62
1, 110564, Note_off_c, 0, 62, 61
1, 110603, Note_on_c, 0, 70, 63
1, 110621, Note_on_c, 0, 45, 101
1, 110624, Note_on_c, 0, 33, 98
1, 110633, Note_off_c, 0, 70, 56
1, 110659, Note_off_c, 0, 45, 66
1, 110659, Note_on_c, 0, 62, 38
1, 110665, Note_off_c, 0, 33, 62
1, 110701, Note_off_c, 0, 62, 46
1, 110735, Note_on_c, 0, 58, 50
1, 110738, Note_on_c, 0, 46, 107
1, 110746, Note_on_c, 0, 34, 91
1, 110758, Note_off_c, 0, 58, 62
1, 110761, Control_c, 0, 64, 116
1, 110776, Control_c, 0, 64, 81
1, 110791, Control_c, 0, 64, 0
1, 110805, Note_off_c, 0, 34, 62
1, 110806, Note_on_c, 0, 67, 59
1, 110808, Note_on_c, 0, 62, 44
1, 110815, Note_on_c, 0, 35, 59
1, 110835, Control_c, 0, 64, 43
1, 110850, Control_c, 0, 64, 72
1, 110857, Note_off_c, 0, 62, 52
1, 110864, Note_off_c, 0, 67, 61
1, 110865, Note_on_c, 0, 63, 69
1, 110865, Control_c, 0, 64, 85
1, 110880, Control_c, 0, 64, 96
1, 110895, Note_off_c, 0, 46, 56
1, 110895, Control_c, 0, 64, 100
1, 110910, Control_c, 0, 64, 102
1, 110916, Note_off_c, 0, 35, 59
1, 110925, Control_c, 0, 64, 106
1, 110939, Control_c, 0, 64, 111
1, 110945, Note_on_c, 0, 62, 64
1, 110954, Control_c, 0, 64, 116
1, 110958, Note_off_c, 0, 63, 62
1, 110969, Control_c, 0, 64, 122
1, 110983, Control_c, 0, 64, 127
1, 111023, Note_on_c, 0, 55, 62
1, 111051, Note_off_c, 0, 55, 63
1, 111117, Note_off_c, 0, 62, 25
1, 111178, Note_on_c, 0, 70, 91
1, 111199, Control_c, 0, 64, 99
1, 111200, Note_on_c, 0, 62, 46
1, 111207, Note_on_c, 0, 28, 79
1, 111209, Note_on_c, 0, 40, 82
1, 111214, Control_c, 0, 64, 74
1, 111229, Control_c, 0, 64, 0
1, 111232, Note_off_c, 0, 62, 56
1, 111244, Note_off_c, 0, 28, 63
1, 111256, Note_on_c, 0, 67, 61
1, 111259, Control_c, 0, 64, 40
1, 111268, Note_off_c, 0, 40, 60
1, 111273, Control_c, 0, 64, 70
1, 111288, Control_c, 0, 64, 84
1, 111303, Control_c, 0, 64, 95
1, 111318, Control_c, 0, 64, 100
1, 111333, Control_c, 0, 64, 101
1, 111335, Note_off_c, 0, 70, 58
1, 111343, Note_on_c, 0, 62, 50
1, 111348, Control_c, 0, 64, 102
1, 111362, Control_c, 0, 64, 104
1, 111372, Note_off_c, 0, 67, 63
1, 111377, Control_c, 0, 64, 107
1, 111380, Note_on_c, 0, 31, 68
1, 111384, Note_on_c, 0, 43, 67
1, 111392, Control_c, 0, 64, 112
1, 111406, Note_on_c, 0, 58, 65
1, 111406, Control_c, 0, 64, 117
1, 111414, Note_off_c, 0, 62, 61
1, 111415, Note_off_c, 0, 31, 62
1, 111421, Note_off_c, 0, 43, 59
1, 111421, Control_c, 0, 64, 123
1, 111436, Control_c, 0, 64, 127
1, 111439, Note_off_c, 0, 58, 64
1, 111479, Note_on_c, 0, 67, 88
1, 111495, Control_c, 0, 64, 111
1, 111504, Note_on_c, 0, 33, 74
1, 111507, Note_on_c, 0, 45, 72
1, 111510, Control_c, 0, 64, 90
1, 111518, Note_on_c, 0, 62, 61
1, 111525, Control_c, 0, 64, 69
1, 111540, Control_c, 0, 64, 0
1, 111564, Note_off_c, 0, 45, 63
1, 111569, Control_c, 0, 64, 39
1, 111579, Note_on_c, 0, 63, 74
1, 111584, Control_c, 0, 64, 70
1, 111589, Note_off_c, 0, 62, 53
1, 111599, Control_c, 0, 64, 87
1, 111609, Note_off_c, 0, 33, 60
1, 111613, Control_c, 0, 64, 99
1, 111628, Control_c, 0, 64, 103
1, 111634, Note_off_c, 0, 67, 55
1, 111639, Note_on_c, 0, 62, 37
1, 111643, Control_c, 0, 64, 104
1, 111653, Note_on_c, 0, 34, 64
1, 111655, Note_on_c, 0, 46, 76
1, 111658, Control_c, 0, 64, 104
1, 111673, Control_c, 0, 64, 105
1, 111688, Control_c, 0, 64, 107
1, 111703, Note_off_c, 0, 62, 61
1, 111707, Note_on_c, 0, 55, 39
1, 111711, Note_off_c, 0, 63, 54
1, 111732, Control_c, 0, 64, 105
1, 111747, Control_c, 0, 64, 94
1, 111758, Note_on_c, 0, 67, 84
1, 111762, Control_c, 0, 64, 76
1, 111777, Control_c, 0, 64, 0
1, 111795, Note_on_c, 0, 62, 44
1, 111809, Note_off_c, 0, 55, 0
1, 111836, Control_c, 0, 64, 64
1, 111846, Poly_aftertouch_c, 0, 55, 127
1, 111849, Note_on_c, 0, 63, 60
1, 111851, Control_c, 0, 64, 73
1, 111873, Control_c, 0, 64, 82
1, 111887, Note_off_c, 0, 62, 0
1, 111887, Control_c, 0, 64, 88
1, 111902, Control_c, 0, 64, 89
1, 111908, Poly_aftertouch_c, 0, 55, 0
1, 111914, Note_on_c, 0, 62, 32
1, 111917, Control_c, 0, 64, 91
1, 111926, Note_off_c, 0, 46, 51
1, 111932, Control_c, 0, 64, 94
1, 111948, Control_c, 0, 64, 97
1, 111954, Note_off_c, 0, 67, 58
1, 111959, Note_off_c, 0, 63, 62
1, 111963, Control_c, 0, 64, 100
1, 111978, Control_c, 0, 64, 104
1, 111992, Control_c, 0, 64, 107
1, 111999, Note_off_c, 0, 62, 59
1, 112007, Control_c, 0, 64, 109
1, 112022, Control_c, 0, 64, 111
1, 112025, Note_on_c, 0, 55, 43
1, 112037, Control_c, 0, 64, 112
1, 112051, Control_c, 0, 64, 112
1, 112066, Control_c, 0, 64, 113
1, 112069, Note_on_c, 0, 33, 58
1, 112069, Note_off_c, 0, 55, 46
1, 112081, Control_c, 0, 64, 113
1, 112096, Control_c, 0, 64, 114
1, 112116, Note_on_c, 0, 45, 52
1, 112122, Note_off_c, 0, 34, 49
1, 112156, Control_c, 0, 64, 112
1, 112171, Control_c, 0, 64, 99
1, 112185, Control_c, 0, 64, 81
1, 112186, Note_on_c, 0, 69, 85
1, 112200, Control_c, 0, 64, 47
1, 112206, Note_on_c, 0, 55, 45
1, 112208, Note_on_c, 0, 64, 59
1, 112210, Note_on_c, 0, 61, 51
1, 112215, Control_c, 0, 64, 0
1, 112215, Note_on_c, 0, 57, 53
1, 112248, Note_off_c, 0, 33, 58
1, 112259, Control_c, 0, 64, 56
1, 112274, Control_c, 0, 64, 68
1, 112289, Control_c, 0, 64, 76
1, 112302, Note_off_c, 0, 55, 61
1, 112304, Control_c, 0, 64, 84
1, 112319, Control_c, 0, 64, 87
1, 112334, Control_c, 0, 64, 90
1, 112341, Note_off_c, 0, 57, 58
1, 112349, Control_c, 0, 64, 92
1, 112364, Control_c, 0, 64, 96
1, 112367, Note_off_c, 0, 61, 59
1, 112374, Note_off_c, 0, 45, 59
1, 112379, Control_c, 0, 64, 99
1, 112381, Note_off_c, 0, 69, 61
1, 112391, Note_on_c, 0, 44, 58
1, 112393, Control_c, 0, 64, 103
1, 112408, Control_c, 0, 64, 107
1, 112423, Control_c, 0, 64, 110
1, 112425, Note_off_c, 0, 64, 64
1, 112437, Control_c, 0, 64, 112
1, 112440, Note_off_c, 0, 44, 63
1, 112452, Control_c, 0, 64, 115
1, 112460, Note_on_c, 0, 45, 50
1, 112467, Control_c, 0, 64, 118
1, 112482, Control_c, 0, 64, 121
1, 112497, Control_c, 0, 64, 126
1, 112501, Note_off_c, 0, 45, 64
1, 112511, Note_on_c, 0, 47, 67
1, 112511, Control_c, 0, 64, 127
1, 112593, Note_off_c, 0, 47, 62
1, 112600, Note_on_c, 0, 49, 62
1, 112638, Control_c, 0, 64, 112
1, 112648, Note_off_c, 0, 49, 62
1, 112649, Note_on_c, 0, 50, 64
1, 112652, Control_c, 0, 64, 90
1, 112667, Control_c, 0, 64, 72
1, 112682, Control_c, 0, 64, 0
1, 112686, Note_on_c, 0, 69, 67
1, 112688, Note_off_c, 0, 50, 65
1, 112690, Note_on_c, 0, 57, 57
1, 112701, Note_on_c, 0, 62, 49
1, 112707, Note_on_c, 0, 52, 64
1, 112711, Control_c, 0, 64, 53
1, 112715, Note_off_c, 0, 57, 61
1, 112723, Note_off_c, 0, 62, 57
1, 112726, Control_c, 0, 64, 70
1, 112729, Note_off_c, 0, 69, 64
1, 112742, Control_c, 0, 64, 80
1, 112757, Control_c, 0, 64, 87
1, 112759, Note_off_c, 0, 52, 65
1, 112768, Note_on_c, 0, 53, 71
1, 112772, Control_c, 0, 64, 90
1, 112776, Poly_aftertouch_c, 0, 65, 0
1, 112787, Control_c, 0, 64, 90
1, 112802, Control_c, 0, 64, 92
1, 112816, Control_c, 0, 64, 93
1, 112819, Note_off_c, 0, 53, 66
1, 112831, Control_c, 0, 64, 95
1, 112846, Control_c, 0, 64, 98
1, 112859, Note_on_c, 0, 52, 64
1, 112860, Control_c, 0, 64, 100
1, 112875, Control_c, 0, 64, 102
1, 112887, Note_off_c, 0, 52, 66
1, 112889, Note_on_c, 0, 69, 78
1, 112890, Control_c, 0, 64, 104
1, 112892, Note_on_c, 0, 57, 72
1, 112905, Control_c, 0, 64, 107
1, 112910, Note_off_c, 0, 69, 73
1, 112918, Note_off_c, 0, 57, 63
1, 112920, Control_c, 0, 64, 111
1, 112934, Control_c, 0, 64, 117
1, 112949, Control_c, 0, 64, 122
1, 112958, Note_on_c, 0, 69, 68
1, 112964, Control_c, 0, 64, 127
1, 112991, Note_on_c, 0, 57, 38
1, 112997, Poly_aftertouch_c, 0, 50, 0
1, 113020, Note_off_c, 0, 57, 51
1, 113036, Note_off_c, 0, 69, 32
1, 113041, Poly_aftertouch_c, 0, 47, 127
1, 113080, Poly_aftertouch_c, 0, 47, 0
1, 113107, Note_on_c, 0, 45, 73
1, 113113, Control_c, 0, 64, 98
1, 113115, Note_on_c, 0, 69, 90
1, 113126, Note_on_c, 0, 33, 58
1, 113127, Note_on_c, 0, 64, 74
1, 113128, Note_on_c, 0, 55, 73
1, 113128, Control_c, 0, 64, 71
1, 113133, Note_on_c, 0, 61, 68
1, 113139, Note_on_c, 0, 57, 66
1, 113142, Control_c, 0, 64, 0
1, 113154, Note_off_c, 0, 33, 56
1, 113172, Control_c, 0, 64, 32
1, 113180, Note_off_c, 0, 55, 62
1, 113187, Control_c, 0, 64, 68
1, 113196, Note_off_c, 0, 57, 46
1, 113202, Control_c, 0, 64, 79
1, 113217, Control_c, 0, 64, 93
1, 113221, Poly_aftertouch_c, 0, 35, 0
1, 113223, Note_off_c, 0, 69, 64
1, 113232, Control_c, 0, 64, 98
1, 113233, Note_off_c, 0, 45, 62
1, 113244, Note_off_c, 0, 61, 57
1, 113247, Control_c, 0, 64, 100
1, 113251, Note_on_c, 0, 44, 60
1, 113255, Note_off_c, 0, 64, 65
1, 113261, Control_c, 0, 64, 102
1, 113276, Control_c, 0, 64, 104
1, 113291, Control_c, 0, 64, 108
1, 113297, Note_off_c, 0, 44, 63
1, 113306, Control_c, 0, 64, 113
1, 113321, Control_c, 0, 64, 121
1, 113323, Note_on_c, 0, 45, 61
1, 113335, Control_c, 0, 64, 127
1, 113369, Note_off_c, 0, 45, 64
1, 113378, Note_on_c, 0, 47, 67
1, 113458, Note_on_c, 0, 49, 67
1, 113470, Note_off_c, 0, 47, 59
1, 113506, Control_c, 0, 64, 106
1, 113511, Note_on_c, 0, 50, 69
1, 113514, Note_off_c, 0, 49, 63
1, 113518, Note_on_c, 0, 69, 85
1, 113521, Control_c, 0, 64, 80
1, 113526, Note_on_c, 0, 57, 75
1, 113535, Note_on_c, 0, 62, 48
1, 113536, Control_c, 0, 64, 50
1, 113551, Note_off_c, 0, 50, 65
1, 113551, Control_c, 0, 64, 0
1, 113559, Note_off_c, 0, 57, 57
1, 113560, Note_off_c, 0, 62, 52
1, 113568, Note_on_c, 0, 52, 71
1, 113581, Control_c, 0, 64, 68
1, 113596, Control_c, 0, 64, 79
1, 113607, Note_off_c, 0, 69, 63
1, 113610, Control_c, 0, 64, 92
1, 113625, Control_c, 0, 64, 97
1, 113629, Note_off_c, 0, 52, 64
1, 113633, Note_on_c, 0, 53, 77
1, 113640, Control_c, 0, 64, 98
1, 113655, Control_c, 0, 64, 99
1, 113670, Control_c, 0, 64, 100
1, 113673, Note_off_c, 0, 53, 63
1, 113684, Control_c, 0, 64, 102
1, 113699, Control_c, 0, 64, 105
1, 113708, Note_on_c, 0, 52, 66
1, 113714, Control_c, 0, 64, 107
1, 113729, Control_c, 0, 64, 109
1, 113743, Note_off_c, 0, 52, 63
1, 113744, Control_c, 0, 64, 112
1, 113758, Control_c, 0, 64, 115
1, 113770, Note_on_c, 0, 50, 62
1, 113773, Control_c, 0, 64, 120
1, 113774, Note_on_c, 0, 71, 84
1, 113779, Note_on_c, 0, 59, 78
1, 113788, Control_c, 0, 64, 127
1, 113792, Note_on_c, 0, 68, 56
1, 113812, Note_off_c, 0, 50, 62
1, 113819, Note_off_c, 0, 59, 50
1, 113819, Note_on_c, 0, 49, 78
1, 113819, Note_off_c, 0, 68, 63
1, 113848, Note_off_c, 0, 49, 68
1, 113863, Note_off_c, 0, 71, 58
1, 113936, Control_c, 0, 64, 114
1, 113938, Note_on_c, 0, 48, 84
1, 113944, Note_on_c, 0, 36, 76
1, 113950, Note_on_c, 0, 72, 96
1, 113951, Control_c, 0, 64, 82
1, 113960, Note_on_c, 0, 64, 68
1, 113961, Note_on_c, 0, 60, 76
1, 113962, Note_on_c, 0, 70, 82
1, 113966, Control_c, 0, 64, 0
1, 113975, Note_on_c, 0, 67, 57
1, 113981, Note_off_c, 0, 36, 66
1, 113989, Note_off_c, 0, 64, 68
1, 114001, Note_off_c, 0, 60, 57
1, 114010, Control_c, 0, 64, 64
1, 114012, Note_off_c, 0, 67, 62
1, 114025, Control_c, 0, 64, 75
1, 114040, Control_c, 0, 64, 87
1, 114047, Note_off_c, 0, 72, 63
1, 114054, Poly_aftertouch_c, 0, 38, 0
1, 114055, Control_c, 0, 64, 97
1, 114066, Note_off_c, 0, 70, 65
1, 114070, Control_c, 0, 64, 100
1, 114075, Note_off_c, 0, 48, 63
1, 114082, Note_on_c, 0, 47, 73
1, 114084, Control_c, 0, 64, 101
1, 114099, Control_c, 0, 64, 103
1, 114122, Control_c, 0, 64, 106
1, 114137, Note_off_c, 0, 47, 63
1, 114137, Control_c, 0, 64, 110
1, 114152, Control_c, 0, 64, 115
1, 114156, Note_on_c, 0, 48, 66
1, 114166, Control_c, 0, 64, 122
1, 114181, Control_c, 0, 64, 127
1, 114206, Note_off_c, 0, 48, 64
1, 114210, Note_on_c, 0, 50, 75
1, 114278, Note_on_c, 0, 52, 71
1, 114290, Note_off_c, 0, 50, 57
1, 114328, Note_on_c, 0, 53, 75
1, 114329, Control_c, 0, 64, 102
1, 114341, Note_off_c, 0, 52, 64
1, 114343, Note_on_c, 0, 72, 85
1, 114345, Control_c, 0, 64, 80
1, 114348, Note_on_c, 0, 60, 80
1, 114352, Note_on_c, 0, 65, 69
1, 114354, Note_on_c, 0, 68, 76
1, 114360, Control_c, 0, 64, 62
1, 114369, Note_off_c, 0, 65, 67
1, 114373, Note_off_c, 0, 60, 63
1, 114374, Note_off_c, 0, 53, 65
1, 114375, Control_c, 0, 64, 47
1, 114383, Note_off_c, 0, 68, 65
1, 114388, Note_on_c, 0, 55, 71
1, 114390, Control_c, 0, 64, 67
1, 114402, Note_off_c, 0, 72, 64
1, 114405, Control_c, 0, 64, 79
1, 114420, Control_c, 0, 64, 90
1, 114434, Control_c, 0, 64, 97
1, 114448, Note_off_c, 0, 55, 64
1, 114449, Control_c, 0, 64, 98
1, 114454, Note_on_c, 0, 56, 74
1, 114464, Control_c, 0, 64, 98
1, 114478, Control_c, 0, 64, 99
1, 114493, Control_c, 0, 64, 100
1, 114505, Note_off_c, 0, 56, 63
1, 114508, Control_c, 0, 64, 101
1, 114523, Control_c, 0, 64, 103
1, 114537, Control_c, 0, 64, 106
1, 114538, Note_on_c, 0, 72, 79
1, 114541, Note_on_c, 0, 60, 76
1, 114542, Note_on_c, 0, 55, 63
1, 114552, Control_c, 0, 64, 111
1, 114561, Note_off_c, 0, 72, 70
1, 114567, Note_off_c, 0, 60, 67
1, 114567, Control_c, 0, 64, 118
1, 114569, Note_off_c, 0, 55, 67
1, 114582, Control_c, 0, 64, 127
1, 114599, Note_on_c, 0, 72, 83
1, 114604, Note_on_c, 0, 53, 51
1, 114614, Note_on_c, 0, 60, 74
1, 114633, Note_off_c, 0, 53, 53
1, 114639, Note_off_c, 0, 60, 62
1, 114657, Note_on_c, 0, 49, 59
1, 114682, Note_off_c, 0, 72, 60
1, 114684, Note_off_c, 0, 49, 55
1, 114755, Note_on_c, 0, 72, 93
1, 114758, Note_on_c, 0, 48, 74
1, 114760, Note_on_c, 0, 60, 79
1, 114760, Control_c, 0, 64, 110
1, 114764, Note_on_c, 0, 70, 88
1, 114765, Note_on_c, 0, 64, 65
1, 114769, Note_on_c, 0, 36, 65
1, 114775, Control_c, 0, 64, 80
1, 114776, Note_on_c, 0, 67, 59
1, 114789, Control_c, 0, 64, 0
1, 114791, Note_off_c, 0, 64, 66
1, 114797, Note_off_c, 0, 36, 64
1, 114799, Note_off_c, 0, 67, 61
1, 114813, Note_off_c, 0, 60, 61
1, 114833, Control_c, 0, 64, 67
1, 114842, Note_off_c, 0, 72, 66
1, 114848, Control_c, 0, 64, 83
1, 114867, Note_off_c, 0, 70, 66
1, 114871, Control_c, 0, 64, 97
1, 114886, Control_c, 0, 64, 104
1, 114895, Note_off_c, 0, 48, 57
1, 114899, Note_on_c, 0, 47, 53
1, 114901, Control_c, 0, 64, 105
1, 114915, Control_c, 0, 64, 107
1, 114930, Control_c, 0, 64, 111
1, 114945, Control_c, 0, 64, 121
1, 114949, Note_off_c, 0, 47, 64
1, 114960, Control_c, 0, 64, 127
1, 114963, Note_on_c, 0, 48, 69
1, 115021, Note_off_c, 0, 48, 65
1, 115023, Note_on_c, 0, 50, 77
1, 115098, Note_on_c, 0, 52, 74
1, 115111, Note_off_c, 0, 50, 58
1, 115142, Note_on_c, 0, 53, 75
1, 115148, Note_on_c, 0, 72, 95
1, 115153, Control_c, 0, 64, 100
1, 115154, Note_on_c, 0, 60, 83
1, 115157, Note_off_c, 0, 52, 64
1, 115158, Note_on_c, 0, 68, 85
1, 115161, Note_on_c, 0, 65, 69
1, 115168, Control_c, 0, 64, 78
1, 115182, Note_off_c, 0, 65, 68
1, 115183, Control_c, 0, 64, 61
1, 115196, Note_off_c, 0, 53, 66
1, 115198, Control_c, 0, 64, 52
1, 115205, Note_on_c, 0, 55, 74
1, 115211, Note_off_c, 0, 60, 60
1, 115212, Control_c, 0, 64, 68
1, 115227, Control_c, 0, 64, 83
1, 115235, Note_off_c, 0, 72, 64
1, 115242, Control_c, 0, 64, 99
1, 115253, Note_off_c, 0, 68, 65
1, 115256, Control_c, 0, 64, 111
1, 115271, Note_off_c, 0, 55, 63
1, 115271, Control_c, 0, 64, 113
1, 115276, Note_on_c, 0, 56, 76
1, 115286, Control_c, 0, 64, 114
1, 115301, Control_c, 0, 64, 114
1, 115316, Control_c, 0, 64, 115
1, 115317, Note_off_c, 0, 56, 62
1, 115330, Control_c, 0, 64, 117
1, 115345, Control_c, 0, 64, 120
1, 115348, Note_on_c, 0, 55, 70
1, 115360, Control_c, 0, 64, 124
1, 115375, Control_c, 0, 64, 127
1, 115397, Note_on_c, 0, 74, 92
1, 115400, Note_on_c, 0, 62, 89
1, 115401, Note_off_c, 0, 55, 60
1, 115405, Note_on_c, 0, 53, 77
1, 115417, Note_on_c, 0, 70, 60
1, 115436, Note_off_c, 0, 62, 57
1, 115455, Note_off_c, 0, 74, 60
1, 115465, Note_off_c, 0, 53, 61
1, 115476, Note_on_c, 0, 52, 78
1, 115500, Note_off_c, 0, 70, 0
1, 115500, Note_on_c, 0, 70, 31
1, 115503, Note_off_c, 0, 52, 69
1, 115546, Note_off_c, 0, 70, 61
1, 115568, Control_c, 0, 64, 111
1, 115582, Control_c, 0, 64, 79
1, 115588, Note_on_c, 0, 75, 101
1, 115591, Note_on_c, 0, 51, 90
1, 115595, Note_on_c, 0, 63, 87
1, 115596, Note_on_c, 0, 67, 78
1, 115597, Control_c, 0, 64, 0
1, 115600, Note_on_c, 0, 39, 73
1, 115609, Note_on_c, 0, 73, 86
1, 115631, Note_off_c, 0, 39, 67
1, 115634, Control_c, 0, 64, 56
1, 115644, Note_off_c, 0, 67, 57
1, 115649, Control_c, 0, 64, 76
1, 115653, Note_off_c, 0, 51, 63
1, 115664, Control_c, 0, 64, 95
1, 115670, Note_off_c, 0, 63, 65
1, 115679, Control_c, 0, 64, 122
1, 115694, Control_c, 0, 64, 127
1, 115717, Note_off_c, 0, 75, 60
1, 115749, Note_off_c, 0, 73, 63
1, 115792, Note_on_c, 0, 50, 57
1, 115842, Note_on_c, 0, 51, 76
1, 115875, Note_off_c, 0, 50, 61
1, 115890, Note_on_c, 0, 53, 75
1, 115891, Note_off_c, 0, 51, 62
1, 115942, Note_off_c, 0, 53, 64
1, 115944, Note_on_c, 0, 55, 80
1, 115992, Control_c, 0, 64, 125
1, 116006, Control_c, 0, 64, 90
1, 116011, Note_on_c, 0, 56, 78
1, 116011, Note_on_c, 0, 75, 94
1, 116012, Note_on_c, 0, 63, 91
1, 116015, Note_off_c, 0, 55, 63
1, 116021, Control_c, 0, 64, 66
1, 116023, Note_on_c, 0, 71, 69
1, 116036, Control_c, 0, 64, 0
1, 116049, Note_off_c, 0, 71, 65
1, 116056, Note_on_c, 0, 58, 76
1, 116066, Control_c, 0, 64, 64
1, 116069, Note_off_c, 0, 63, 62
1, 116072, Note_off_c, 0, 56, 63
1, 116080, Control_c, 0, 64, 80
1, 116088, Note_off_c, 0, 75, 64
1, 116095, Control_c, 0, 64, 100
1, 116104, Note_off_c, 0, 58, 62
1, 116110, Control_c, 0, 64, 110
1, 116118, Note_on_c, 0, 59, 81
1, 116125, Control_c, 0, 64, 110
1, 116154, Control_c, 0, 64, 111
1, 116169, Control_c, 0, 64, 113
1, 116183, Note_off_c, 0, 59, 60
1, 116184, Control_c, 0, 64, 118
1, 116189, Note_on_c, 0, 63, 89
1, 116192, Note_on_c, 0, 75, 84
1, 116196, Note_on_c, 0, 58, 67
1, 116199, Control_c, 0, 64, 126
1, 116211, Note_off_c, 0, 63, 68
1, 116213, Note_off_c, 0, 75, 71
1, 116213, Control_c, 0, 64, 127
1, 116222, Note_off_c, 0, 58, 69
1, 116246, Note_on_c, 0, 56, 72
1, 116265, Note_on_c, 0, 63, 91
1, 116265, Note_on_c, 0, 75, 93
1, 116268, Note_off_c, 0, 56, 70
1, 116338, Note_on_c, 0, 52, 67
1, 116343, Note_on_c, 0, 53, 48
1, 116364, Note_off_c, 0, 75, 59
1, 116365, Note_off_c, 0, 63, 52
1, 116374, Note_off_c, 0, 52, 67
1, 116377, Note_off_c, 0, 53, 55
1, 116413, Control_c, 0, 64, 117
1, 116428, Note_on_c, 0, 39, 67
1, 116428, Note_on_c, 0, 75, 93
1, 116428, Control_c, 0, 64, 79
1, 116430, Note_on_c, 0, 63, 86
1, 116439, Note_on_c, 0, 51, 80
1, 116441, Note_on_c, 0, 67, 68
1, 116443, Control_c, 0, 64, 0
1, 116447, Note_on_c, 0, 73, 77
1, 116449, Note_on_c, 0, 70, 57
1, 116457, Note_off_c, 0, 39, 60
1, 116472, Note_off_c, 0, 67, 63
1, 116481, Note_off_c, 0, 70, 62
1, 116487, Control_c, 0, 64, 70
1, 116502, Control_c, 0, 64, 94
1, 116517, Note_off_c, 0, 63, 62
1, 116517, Control_c, 0, 64, 116
1, 116532, Control_c, 0, 64, 121
1, 116547, Control_c, 0, 64, 123
1, 116550, Note_off_c, 0, 75, 61
1, 116562, Control_c, 0, 64, 127
1, 116571, Note_off_c, 0, 51, 29
1, 116577, Note_on_c, 0, 49, 31
1, 116585, Note_off_c, 0, 73, 63
1, 116594, Note_on_c, 0, 50, 69
1, 116614, Note_off_c, 0, 49, 51
1, 116666, Note_on_c, 0, 51, 77
1, 116678, Note_off_c, 0, 50, 57
1, 116710, Note_on_c, 0, 53, 76
1, 116740, Note_off_c, 0, 51, 63
1, 116758, Note_off_c, 0, 53, 64
1, 116768, Note_on_c, 0, 55, 77
1, 116809, Note_on_c, 0, 63, 92
1, 116812, Note_on_c, 0, 75, 93
1, 116824, Note_on_c, 0, 71, 76
1, 116828, Note_on_c, 0, 56, 81
1, 116830, Control_c, 0, 64, 108
1, 116833, Note_off_c, 0, 55, 65
1, 116845, Control_c, 0, 64, 78
1, 116849, Note_off_c, 0, 63, 66
1, 116860, Control_c, 0, 64, 0
1, 116883, Note_on_c, 0, 74, 64
1, 116883, Note_off_c, 0, 75, 64
1, 116883, Note_on_c, 0, 58, 80
1, 116889, Note_off_c, 0, 71, 60
1, 116889, Control_c, 0, 64, 64
1, 116895, Note_off_c, 0, 56, 63
1, 116901, Note_off_c, 0, 74, 68
1, 116904, Control_c, 0, 64, 80
1, 116919, Control_c, 0, 64, 102
1, 116934, Control_c, 0, 64, 127
1, 116937, Note_off_c, 0, 58, 62
1, 116941, Note_on_c, 0, 59, 87
1, 117006, Note_off_c, 0, 59, 59
1, 117009, Note_on_c, 0, 58, 72
1, 117060, Note_off_c, 0, 58, 64
1, 117066, Note_on_c, 0, 56, 77
1, 117085, Note_off_c, 0, 56, 66
1, 117086, Note_on_c, 0, 87, 104
1, 117091, Note_on_c, 0, 75, 96
1, 117177, Note_on_c, 0, 51, 83
1, 117208, Note_off_c, 0, 75, 58
1, 117220, Note_off_c, 0, 87, 60
1, 117226, Note_off_c, 0, 51, 63
1, 117282, Control_c, 0, 64, 126
1, 117297, Control_c, 0, 64, 83
1, 117301, Note_on_c, 0, 87, 100
1, 117302, Note_on_c, 0, 75, 98
1, 117304, Note_on_c, 0, 40, 104
1, 117307, Note_on_c, 0, 80, 83
1, 117311, Control_c, 0, 64, 0
1, 117325, Note_on_c, 0, 88, 73
1, 117330, Note_on_c, 0, 81, 76
1, 117334, Note_off_c, 0, 80, 50
1, 117341, Control_c, 0, 64, 56
1, 117352, Note_on_c, 0, 85, 60
1, 117355, Control_c, 0, 64, 77
1, 117369, Note_off_c, 0, 40, 66
1, 117370, Control_c, 0, 64, 101
1, 117377, Note_off_c, 0, 85, 65
1, 117385, Control_c, 0, 64, 127
1, 117391, Note_off_c, 0, 88, 64
1, 117406, Note_off_c, 0, 81, 59
1, 117417, Note_off_c, 0, 87, 64
1, 117428, Note_off_c, 0, 75, 61
1, 117600, Note_on_c, 0, 47, 71
1, 117656, Note_on_c, 0, 51, 73
1, 117718, Note_off_c, 0, 47, 56
1, 117720, Note_on_c, 0, 56, 80
1, 117734, Note_off_c, 0, 51, 60
1, 117786, Note_off_c, 0, 56, 62
1, 117794, Note_on_c, 0, 59, 82
1, 117799, Note_on_c, 0, 99, 108
1, 117800, Note_on_c, 0, 87, 97
1, 117804, Note_on_c, 0, 92, 95
1, 117862, Note_on_c, 0, 56, 71
1, 117868, Note_off_c, 0, 59, 59
1, 117909, Note_on_c, 0, 51, 43
1, 117924, Note_off_c, 0, 56, 64
1, 117968, Note_on_c, 0, 47, 72
1, 117973, Note_off_c, 0, 51, 63
1, 118001, Note_off_c, 0, 47, 66
1, 118102, Note_on_c, 0, 63, 106
1, 118134, Note_off_c, 0, 63, 72
1, 118153, Note_on_c, 0, 58, 31
1, 118162, Note_off_c, 0, 92, 58
1, 118187, Note_off_c, 0, 58, 49
1, 118205, Note_off_c, 0, 87, 57
1, 118207, Note_off_c, 0, 99, 65
1, 118370, Note_on_c, 0, 98, 100
1, 118372, Note_on_c, 0, 86, 100
1, 118372, Control_c, 0, 64, 109
1, 118381, Note_on_c, 0, 92, 85
1, 118387, Control_c, 0, 64, 76
1, 118388, Note_on_c, 0, 40, 103
1, 118398, Note_off_c, 0, 92, 73
1, 118401, Control_c, 0, 64, 47
1, 118404, Note_off_c, 0, 98, 68
1, 118416, Control_c, 0, 64, 60
1, 118421, Note_off_c, 0, 86, 63
1, 118430, Note_off_c, 0, 40, 66
1, 118431, Control_c, 0, 64, 75
1, 118446, Control_c, 0, 64, 96
1, 118461, Control_c, 0, 64, 127
1, 118515, Note_on_c, 0, 85, 44
1, 118541, Note_off_c, 0, 85, 53
1, 118569, Note_on_c, 0, 95, 88
1, 118574, Note_on_c, 0, 83, 83
1, 118589, Note_on_c, 0, 86, 74
1, 118616, Note_off_c, 0, 95, 64
1, 118621, Note_off_c, 0, 83, 59
1, 118642, Note_on_c, 0, 47, 71
1, 118669, Note_off_c, 0, 86, 36
1, 118706, Note_on_c, 0, 50, 67
1, 118727, Note_on_c, 0, 94, 91
1, 118733, Note_on_c, 0, 82, 83
1, 118743, Note_on_c, 0, 86, 72
1, 118764, Note_on_c, 0, 56, 76
1, 118768, Note_off_c, 0, 82, 64
1, 118777, Note_off_c, 0, 94, 64
1, 118788, Note_off_c, 0, 47, 36
1, 118816, Note_off_c, 0, 86, 64
1, 118837, Note_off_c, 0, 56, 62
1, 118844, Note_on_c, 0, 59, 83
1, 118866, Note_on_c, 0, 80, 93
1, 118870, Note_on_c, 0, 92, 93
1, 118893, Note_on_c, 0, 56, 63
1, 118902, Note_off_c, 0, 92, 59
1, 118915, Note_off_c, 0, 80, 57
1, 118917, Note_off_c, 0, 59, 55
1, 118958, Note_off_c, 0, 50, 0
1, 118968, Note_off_c, 0, 56, 63
1, 118971, Note_on_c, 0, 50, 44
1, 118994, Note_on_c, 0, 90, 98
1, 118996, Note_on_c, 0, 78, 96
1, 119002, Note_on_c, 0, 83, 67
1, 119008, Note_on_c, 0, 47, 79
1, 119025, Note_off_c, 0, 83, 66
1, 119036, Note_off_c, 0, 50, 63
1, 119048, Note_off_c, 0, 90, 67
1, 119050, Note_off_c, 0, 78, 64
1, 119051, Note_off_c, 0, 47, 64
1, 119126, Note_on_c, 0, 62, 92
1, 119129, Note_on_c, 0, 88, 102
1, 119131, Note_on_c, 0, 76, 99
1, 119143, Note_on_c, 0, 80, 79
1, 119156, Note_on_c, 0, 56, 50
1, 119157, Note_off_c, 0, 56, 127
1, 119165, Note_off_c, 0, 62, 62
1, 119165, Note_off_c, 0, 80, 68
1, 119173, Note_off_c, 0, 76, 63
1, 119192, Note_off_c, 0, 88, 60
1, 119313, Control_c, 0, 64, 84
1, 119328, Control_c, 0, 64, 0
1, 119335, Note_on_c, 0, 87, 102
1, 119337, Note_on_c, 0, 75, 100
1, 119341, Note_on_c, 0, 79, 92
1, 119357, Note_on_c, 0, 51, 85
1, 119363, Note_on_c, 0, 39, 87
1, 119366, Control_c, 0, 64, 54
1, 119379, Note_off_c, 0, 79, 65
1, 119380, Control_c, 0, 64, 78
1, 119382, Note_off_c, 0, 87, 71
1, 119384, Note_off_c, 0, 75, 67
1, 119389, Note_off_c, 0, 51, 63
1, 119390, Note_off_c, 0, 39, 69
1, 119395, Control_c, 0, 64, 109
1, 119410, Control_c, 0, 64, 127
1, 119564, Note_on_c, 0, 38, 73
1, 119608, Note_on_c, 0, 39, 54
1, 119654, Note_off_c, 0, 38, 58
1, 119674, Note_on_c, 0, 41, 75
1, 119707, Note_off_c, 0, 39, 63
1, 119724, Note_off_c, 0, 41, 64
1, 119729, Note_on_c, 0, 43, 82
1, 119800, Note_on_c, 0, 44, 80
1, 119805, Note_off_c, 0, 43, 62
1, 119807, Note_on_c, 0, 83, 98
1, 119812, Note_on_c, 0, 75, 89
1, 119816, Note_on_c, 0, 71, 83
1, 119854, Control_c, 0, 64, 100
1, 119868, Note_on_c, 0, 46, 78
1, 119869, Control_c, 0, 64, 72
1, 119879, Note_off_c, 0, 44, 62
1, 119884, Control_c, 0, 64, 0
1, 119913, Control_c, 0, 64, 67
1, 119923, Note_off_c, 0, 83, 55
1, 119929, Control_c, 0, 64, 85
1, 119931, Note_on_c, 0, 47, 73
1, 119931, Note_off_c, 0, 46, 62
1, 119944, Control_c, 0, 64, 108
1, 119959, Control_c, 0, 64, 127
1, 119974, Note_off_c, 0, 71, 58
1, 119996, Note_on_c, 0, 49, 69
1, 119998, Note_off_c, 0, 47, 63
1, 120061, Note_on_c, 0, 51, 73
1, 120085, Note_off_c, 0, 49, 57
1, 120091, Note_off_c, 0, 75, 53
1, 120124, Note_off_c, 0, 51, 63
1, 120136, Note_on_c, 0, 52, 85
1, 120200, Note_off_c, 0, 52, 64
1, 120233, Note_on_c, 0, 39, 74
1, 120236, Note_on_c, 0, 82, 91
1, 120243, Note_on_c, 0, 70, 87
1, 120243, Note_on_c, 0, 73, 87
1, 120246, Poly_aftertouch_c, 0, 75, 0
1, 120248, Control_c, 0, 64, 111
1, 120262, Control_c, 0, 64, 83
1, 120277, Control_c, 0, 64, 22
1, 120292, Control_c, 0, 64, 0
1, 120310, Note_off_c, 0, 39, 58
1, 120322, Control_c, 0, 64, 61
1, 120336, Control_c, 0, 64, 72
1, 120351, Control_c, 0, 64, 82
1, 120366, Control_c, 0, 64, 90
1, 120380, Control_c, 0, 64, 93
1, 120395, Control_c, 0, 64, 94
1, 120404, Note_on_c, 0, 38, 69
1, 120410, Control_c, 0, 64, 95
1, 120425, Control_c, 0, 64, 98
1, 120440, Control_c, 0, 64, 101
1, 120455, Control_c, 0, 64, 105
1, 120456, Note_off_c, 0, 82, 59
1, 120460, Note_on_c, 0, 39, 66
1, 120469, Control_c, 0, 64, 109
1, 120484, Control_c, 0, 64, 112
1, 120499, Control_c, 0, 64, 117
1, 120503, Note_off_c, 0, 38, 57
1, 120511, Note_off_c, 0, 70, 57
1, 120514, Control_c, 0, 64, 123
1, 120517, Note_on_c, 0, 41, 69
1, 120519, Note_off_c, 0, 73, 62
1, 120529, Control_c, 0, 64, 127
1, 120547, Note_off_c, 0, 39, 63
1, 120559, Note_off_c, 0, 41, 67
1, 120574, Note_on_c, 0, 43, 79
1, 120647, Note_off_c, 0, 43, 58
1, 120653, Note_on_c, 0, 44, 68
1, 120672, Note_on_c, 0, 80, 93
1, 120677, Note_on_c, 0, 71, 83
1, 120679, Note_on_c, 0, 68, 84
1, 120707, Control_c, 0, 64, 119
1, 120713, Note_on_c, 0, 46, 72
1, 120723, Control_c, 0, 64, 95
1, 120738, Control_c, 0, 64, 76
1, 120740, Note_off_c, 0, 44, 63
1, 120752, Control_c, 0, 64, 0
1, 120764, Note_off_c, 0, 46, 61
1, 120772, Note_on_c, 0, 47, 67
1, 120796, Control_c, 0, 64, 68
1, 120811, Control_c, 0, 64, 80
1, 120826, Control_c, 0, 64, 92
1, 120836, Note_off_c, 0, 47, 59
1, 120838, Note_on_c, 0, 49, 70
1, 120841, Control_c, 0, 64, 98
1, 120859, Note_off_c, 0, 80, 61
1, 120863, Control_c, 0, 64, 99
1, 120878, Control_c, 0, 64, 101
1, 120893, Control_c, 0, 64, 105
1, 120908, Control_c, 0, 64, 110
1, 120911, Note_off_c, 0, 68, 63
1, 120916, Note_on_c, 0, 51, 69
1, 120921, Note_off_c, 0, 71, 58
1, 120923, Control_c, 0, 64, 117
1, 120935, Note_off_c, 0, 49, 58
1, 120937, Control_c, 0, 64, 127
1, 120952, Control_c, 0, 64, 127
1, 120964, Note_off_c, 0, 51, 61
1, 120991, Note_on_c, 0, 52, 72
1, 121036, Note_off_c, 0, 52, 65
1, 121075, Note_on_c, 0, 39, 63
1, 121107, Note_on_c, 0, 78, 90
1, 121114, Note_on_c, 0, 66, 79
1, 121115, Note_on_c, 0, 70, 77
1, 121115, Control_c, 0, 64, 112
1, 121130, Control_c, 0, 64, 86
1, 121145, Control_c, 0, 64, 63
1, 121159, Control_c, 0, 64, 0
1, 121177, Note_off_c, 0, 39, 56
1, 121203, Control_c, 0, 64, 63
1, 121218, Control_c, 0, 64, 73
1, 121233, Control_c, 0, 64, 83
1, 121248, Control_c, 0, 64, 88
1, 121256, Note_on_c, 0, 38, 67
1, 121263, Control_c, 0, 64, 87
1, 121277, Control_c, 0, 64, 82
1, 121292, Control_c, 0, 64, 70
1, 121304, Note_on_c, 0, 39, 72
1, 121307, Control_c, 0, 64, 0
1, 121327, Note_off_c, 0, 38, 55
1, 121337, Control_c, 0, 64, 48
1, 121352, Control_c, 0, 64, 72
1, 121360, Note_off_c, 0, 66, 62
1, 121362, Note_on_c, 0, 41, 66
1, 121367, Control_c, 0, 64, 86
1, 121382, Control_c, 0, 64, 101
1, 121389, Note_off_c, 0, 39, 64
1, 121396, Control_c, 0, 64, 109
1, 121398, Note_off_c, 0, 78, 61
1, 121400, Note_off_c, 0, 41, 65
1, 121411, Control_c, 0, 64, 110
1, 121415, Note_off_c, 0, 70, 61
1, 121420, Note_on_c, 0, 43, 70
1, 121426, Control_c, 0, 64, 111
1, 121441, Control_c, 0, 64, 114
1, 121456, Control_c, 0, 64, 121
1, 121470, Control_c, 0, 64, 127
1, 121486, Note_off_c, 0, 43, 57
1, 121493, Note_on_c, 0, 44, 69
1, 121522, Note_on_c, 0, 80, 95
1, 121530, Note_on_c, 0, 71, 75
1, 121531, Control_c, 0, 64, 104
1, 121531, Note_on_c, 0, 68, 80
1, 121546, Control_c, 0, 64, 78
1, 121557, Note_on_c, 0, 46, 73
1, 121561, Control_c, 0, 64, 0
1, 121566, Note_off_c, 0, 44, 62
1, 121602, Note_off_c, 0, 46, 65
1, 121612, Control_c, 0, 64, 51
1, 121625, Note_on_c, 0, 47, 63
1, 121626, Control_c, 0, 64, 70
1, 121634, Note_off_c, 0, 80, 67
1, 121641, Control_c, 0, 64, 84
1, 121656, Control_c, 0, 64, 93
1, 121663, Note_off_c, 0, 71, 61
1, 121671, Control_c, 0, 64, 95
1, 121683, Note_off_c, 0, 47, 60
1, 121686, Control_c, 0, 64, 95
1, 121689, Note_on_c, 0, 49, 61
1, 121701, Control_c, 0, 64, 97
1, 121708, Note_off_c, 0, 68, 64
1, 121716, Control_c, 0, 64, 98
1, 121730, Control_c, 0, 64, 100
1, 121745, Note_off_c, 0, 49, 38
1, 121745, Control_c, 0, 64, 103
1, 121760, Control_c, 0, 64, 106
1, 121774, Note_on_c, 0, 51, 55
1, 121775, Control_c, 0, 64, 109
1, 121790, Control_c, 0, 64, 114
1, 121805, Control_c, 0, 64, 119
1, 121807, Note_off_c, 0, 51, 63
1, 121820, Control_c, 0, 64, 125
1, 121834, Control_c, 0, 64, 127
1, 121843, Note_on_c, 0, 52, 65
1, 121873, Note_off_c, 0, 52, 65
1, 121945, Note_on_c, 0, 39, 57
1, 121951, Note_on_c, 0, 73, 82
1, 121960, Note_on_c, 0, 70, 69
1, 121964, Note_on_c, 0, 61, 67
1, 121966, Control_c, 0, 64, 106
1, 121981, Control_c, 0, 64, 85
1, 121996, Control_c, 0, 64, 63
1, 122011, Control_c, 0, 64, 0
1, 122012, Note_off_c, 0, 39, 58
1, 122055, Control_c, 0, 64, 45
1, 122070, Control_c, 0, 64, 68
1, 122085, Control_c, 0, 64, 72
1, 122099, Control_c, 0, 64, 69
1, 122109, Note_on_c, 0, 38, 63
1, 122114, Control_c, 0, 64, 0
1, 122151, Note_on_c, 0, 39, 68
1, 122163, Note_off_c, 0, 61, 59
1, 122165, Note_off_c, 0, 38, 58
1, 122173, Control_c, 0, 64, 46
1, 122188, Control_c, 0, 64, 73
1, 122195, Note_off_c, 0, 73, 58
1, 122203, Control_c, 0, 64, 90
1, 122213, Note_on_c, 0, 41, 69
1, 122217, Control_c, 0, 64, 113
1, 122232, Note_off_c, 0, 39, 62
1, 122232, Control_c, 0, 64, 121
1, 122245, Note_off_c, 0, 41, 66
1, 122247, Control_c, 0, 64, 122
1, 122262, Control_c, 0, 64, 123
1, 122265, Note_on_c, 0, 43, 71
1, 122277, Control_c, 0, 64, 126
1, 122291, Control_c, 0, 64, 127
1, 122336, Note_off_c, 0, 43, 60
1, 122350, Note_on_c, 0, 44, 64
1, 122359, Control_c, 0, 64, 127
1, 122373, Note_on_c, 0, 76, 83
1, 122374, Control_c, 0, 64, 104
1, 122389, Note_on_c, 0, 68, 69
1, 122389, Note_on_c, 0, 64, 67
1, 122389, Control_c, 0, 64, 83
1, 122404, Control_c, 0, 64, 59
1, 122404, Note_off_c, 0, 70, 56
1, 122419, Note_on_c, 0, 46, 70
1, 122419, Control_c, 0, 64, 0
1, 122428, Note_off_c, 0, 44, 63
1, 122448, Control_c, 0, 64, 51
1, 122457, Note_off_c, 0, 46, 67
1, 122463, Control_c, 0, 64, 72
1, 122478, Note_on_c, 0, 47, 63
1, 122478, Control_c, 0, 64, 84
1, 122482, Note_off_c, 0, 76, 61
1, 122493, Control_c, 0, 64, 95
1, 122508, Control_c, 0, 64, 97
1, 122529, Note_off_c, 0, 47, 63
1, 122537, Control_c, 0, 64, 98
1, 122542, Note_on_c, 0, 49, 58
1, 122552, Control_c, 0, 64, 98
1, 122562, Note_off_c, 0, 64, 61
1, 122567, Control_c, 0, 64, 99
1, 122581, Control_c, 0, 64, 101
1, 122596, Control_c, 0, 64, 104
1, 122609, Note_on_c, 0, 51, 62
1, 122611, Control_c, 0, 64, 106
1, 122614, Note_off_c, 0, 49, 51
1, 122626, Control_c, 0, 64, 109
1, 122640, Control_c, 0, 64, 111
1, 122653, Note_off_c, 0, 51, 62
1, 122655, Control_c, 0, 64, 112
1, 122670, Control_c, 0, 64, 113
1, 122685, Control_c, 0, 64, 113
1, 122693, Note_on_c, 0, 52, 72
1, 122700, Control_c, 0, 64, 114
1, 122716, Control_c, 0, 64, 114
1, 122730, Control_c, 0, 64, 116
1, 122737, Note_off_c, 0, 52, 64
1, 122745, Control_c, 0, 64, 117
1, 122760, Control_c, 0, 64, 118
1, 122774, Control_c, 0, 64, 119
1, 122804, Note_off_c, 0, 68, 62
1, 122804, Control_c, 0, 64, 118
1, 122817, Note_on_c, 0, 75, 73
1, 122818, Note_on_c, 0, 39, 41
1, 122819, Control_c, 0, 64, 111
1, 122822, Note_on_c, 0, 63, 67
1, 122823, Note_on_c, 0, 67, 64
1, 122834, Control_c, 0, 64, 97
1, 122848, Control_c, 0, 64, 81
1, 122863, Control_c, 0, 64, 63
1, 122878, Control_c, 0, 64, 0
1, 122944, Note_off_c, 0, 39, 35
1, 122963, Note_off_c, 0, 75, 62
1, 122982, Control_c, 0, 64, 35
1, 122997, Note_on_c, 0, 38, 45
1, 122997, Control_c, 0, 64, 59
1, 123012, Control_c, 0, 64, 63
1, 123027, Control_c, 0, 64, 65
1, 123031, Note_on_c, 0, 39, 60
1, 123041, Control_c, 0, 64, 68
1, 123055, Note_off_c, 0, 38, 52
1, 123056, Control_c, 0, 64, 72
1, 123071, Control_c, 0, 64, 78
1, 123086, Control_c, 0, 64, 82
1, 123089, Note_on_c, 0, 41, 64
1, 123104, Note_off_c, 0, 63, 37
1, 123107, Note_off_c, 0, 39, 63
1, 123108, Control_c, 0, 64, 84
1, 123124, Control_c, 0, 64, 85
1, 123127, Note_off_c, 0, 41, 67
1, 123139, Control_c, 0, 64, 86
1, 123141, Note_on_c, 0, 43, 67
1, 123153, Control_c, 0, 64, 88
1, 123168, Control_c, 0, 64, 90
1, 123183, Control_c, 0, 64, 92
1, 123197, Control_c, 0, 64, 94
1, 123212, Control_c, 0, 64, 96
1, 123217, Note_off_c, 0, 43, 58
1, 123221, Note_on_c, 0, 44, 67
1, 123227, Control_c, 0, 64, 97
1, 123242, Control_c, 0, 64, 98
1, 123252, Note_on_c, 0, 71, 74
1, 123260, Note_on_c, 0, 68, 62
1, 123263, Note_on_c, 0, 63, 54
1, 123272, Control_c, 0, 64, 94
1, 123286, Control_c, 0, 64, 85
1, 123289, Note_off_c, 0, 67, 54
1, 123292, Note_on_c, 0, 46, 69
1, 123301, Control_c, 0, 64, 72
1, 123306, Note_off_c, 0, 44, 62
1, 123316, Control_c, 0, 64, 0
1, 123332, Note_off_c, 0, 46, 66
1, 123346, Note_on_c, 0, 47, 59
1, 123361, Control_c, 0, 64, 56
1, 123376, Control_c, 0, 64, 70
1, 123391, Control_c, 0, 64, 81
1, 123392, Note_off_c, 0, 47, 62
1, 123405, Control_c, 0, 64, 88
1, 123409, Note_on_c, 0, 49, 60
1, 123420, Control_c, 0, 64, 89
1, 123450, Control_c, 0, 64, 89
1, 123476, Note_on_c, 0, 51, 66
1, 123477, Note_off_c, 0, 63, 58
1, 123479, Control_c, 0, 64, 90
1, 123483, Note_off_c, 0, 49, 55
1, 123494, Control_c, 0, 64, 90
1, 123509, Control_c, 0, 64, 91
1, 123518, Note_off_c, 0, 51, 62
1, 123524, Control_c, 0, 64, 92
1, 123539, Control_c, 0, 64, 93
1, 123553, Control_c, 0, 64, 94
1, 123558, Note_on_c, 0, 52, 63
1, 123583, Control_c, 0, 64, 94
1, 123599, Note_off_c, 0, 52, 64
1, 123612, Control_c, 0, 64, 94
1, 123627, Control_c, 0, 64, 93
1, 123642, Control_c, 0, 64, 86
1, 123650, Note_off_c, 0, 68, 55
1, 123657, Control_c, 0, 64, 74
1, 123663, Note_on_c, 0, 39, 51
1, 123665, Note_on_c, 0, 70, 73
1, 123668, Note_off_c, 0, 71, 58
1, 123671, Control_c, 0, 64, 47
1, 123683, Note_on_c, 0, 61, 53
1, 123686, Control_c, 0, 64, 0
1, 123731, Control_c, 0, 64, 62
1, 123735, Note_off_c, 0, 39, 60
1, 123746, Control_c, 0, 64, 72
1, 123760, Control_c, 0, 64, 79
1, 123775, Control_c, 0, 64, 82
1, 123820, Control_c, 0, 64, 80
1, 123835, Control_c, 0, 64, 74
1, 123835, Note_on_c, 0, 38, 58
1, 123857, Control_c, 0, 64, 46
1, 123871, Control_c, 0, 64, 0
1, 123897, Note_on_c, 0, 39, 56
1, 123914, Note_off_c, 0, 38, 57
1, 123916, Control_c, 0, 64, 62
1, 123932, Control_c, 0, 64, 72
1, 123947, Control_c, 0, 64, 82
1, 123949, Note_off_c, 0, 61, 63
1, 123950, Note_on_c, 0, 41, 60
1, 123953, Note_off_c, 0, 39, 62
1, 123962, Control_c, 0, 64, 86
1, 123979, Note_off_c, 0, 41, 66
1, 123996, Note_on_c, 0, 43, 60
1, 124061, Note_off_c, 0, 43, 57
1, 124080, Control_c, 0, 64, 85
1, 124082, Note_on_c, 0, 44, 56
1, 124093, Note_on_c, 0, 68, 72
1, 124094, Control_c, 0, 64, 81
1, 124101, Note_off_c, 0, 70, 54
1, 124109, Control_c, 0, 64, 72
1, 124112, Note_on_c, 0, 59, 53
1, 124118, Note_on_c, 0, 63, 49
1, 124124, Control_c, 0, 64, 42
1, 124139, Control_c, 0, 64, 0
1, 124147, Note_on_c, 0, 46, 58
1, 124154, Note_off_c, 0, 44, 62
1, 124183, Note_off_c, 0, 46, 62
1, 124210, Note_on_c, 0, 47, 52
1, 124214, Control_c, 0, 64, 61
1, 124228, Control_c, 0, 64, 69
1, 124228, Control_c, 0, 67, 10
1, 124237, Note_off_c, 0, 47, 56
1, 124243, Control_c, 0, 64, 74
1, 124243, Control_c, 0, 67, 19
1, 124258, Control_c, 0, 64, 79
1, 124258, Control_c, 0, 67, 33
1, 124265, Note_on_c, 0, 49, 64
1, 124273, Control_c, 0, 64, 82
1, 124273, Control_c, 0, 67, 49
1, 124273, Note_off_c, 0, 59, 57
1, 124288, Control_c, 0, 64, 83
1, 124288, Control_c, 0, 67, 67
1, 124302, Control_c, 0, 64, 84
1, 124302, Control_c, 0, 67, 84
1, 124317, Control_c, 0, 64, 85
1, 124317, Control_c, 0, 67, 98
1, 124332, Control_c, 0, 64, 87
1, 124332, Control_c, 0, 67, 110
1, 124346, Control_c, 0, 64, 88
1, 124346, Control_c, 0, 67, 120
1, 124347, Note_on_c, 0, 51, 61
1, 124353, Note_off_c, 0, 49, 54
1, 124361, Control_c, 0, 64, 88
1, 124361, Control_c, 0, 67, 126
1, 124376, Control_c, 0, 64, 89
1, 124376, Control_c, 0, 67, 127
1, 124380, Note_off_c, 0, 51, 64
1, 124391, Control_c, 0, 64, 89
1, 124415, Note_on_c, 0, 52, 62
1, 124463, Note_off_c, 0, 52, 65
1, 124480, Control_c, 0, 64, 89
1, 124494, Control_c, 0, 64, 88
1, 124503, Note_off_c, 0, 63, 49
1, 124509, Control_c, 0, 64, 83
1, 124520, Note_on_c, 0, 66, 71
1, 124524, Control_c, 0, 64, 74
1, 124528, Note_on_c, 0, 39, 48
1, 124539, Control_c, 0, 64, 50
1, 124542, Note_on_c, 0, 58, 47
1, 124545, Note_on_c, 0, 61, 47
1, 124551, Note_off_c, 0, 68, 56
1, 124553, Control_c, 0, 64, 0
1, 124619, Note_off_c, 0, 39, 54
1, 124635, Control_c, 0, 64, 58
1, 124650, Control_c, 0, 64, 63
1, 124680, Control_c, 0, 64, 60
1, 124695, Control_c, 0, 64, 41
1, 124709, Control_c, 0, 64, 0
1, 124711, Note_on_c, 0, 38, 52
1, 124769, Control_c, 0, 64, 62
1, 124770, Note_on_c, 0, 39, 50
1, 124775, Note_off_c, 0, 38, 57
1, 124784, Control_c, 0, 64, 69
1, 124799, Control_c, 0, 64, 74
1, 124814, Control_c, 0, 64, 77
1, 124829, Control_c, 0, 64, 78
1, 124831, Note_on_c, 0, 41, 53
1, 124834, Note_off_c, 0, 39, 61
1, 124843, Control_c, 0, 64, 79
1, 124862, Note_off_c, 0, 41, 56
1, 124877, Note_on_c, 0, 43, 59
1, 124886, Note_off_c, 0, 58, 61
1, 124932, Control_c, 0, 64, 78
1, 124938, Note_off_c, 0, 43, 52
1, 124947, Control_c, 0, 64, 75
1, 124957, Note_on_c, 0, 68, 71
1, 124959, Note_on_c, 0, 44, 55
1, 124962, Note_off_c, 0, 61, 36
1, 124962, Control_c, 0, 64, 67
1, 124966, Note_off_c, 0, 66, 48
1, 124970, Note_on_c, 0, 59, 48
1, 124974, Note_on_c, 0, 63, 49
1, 124976, Control_c, 0, 64, 0
1, 125029, Note_off_c, 0, 44, 60
1, 125036, Note_on_c, 0, 46, 57
1, 125065, Control_c, 0, 64, 41
1, 125067, Note_off_c, 0, 46, 64
1, 125080, Control_c, 0, 64, 65
1, 125095, Control_c, 0, 64, 71
1, 125097, Note_on_c, 0, 47, 48
1, 125110, Control_c, 0, 64, 76
1, 125111, Note_off_c, 0, 59, 52
1, 125124, Control_c, 0, 64, 79
1, 125131, Note_off_c, 0, 47, 53
1, 125139, Control_c, 0, 64, 80
1, 125154, Control_c, 0, 64, 81
1, 125157, Note_on_c, 0, 49, 55
1, 125168, Control_c, 0, 64, 82
1, 125183, Control_c, 0, 64, 82
1, 125198, Control_c, 0, 64, 83
1, 125213, Control_c, 0, 64, 83
1, 125218, Note_off_c, 0, 49, 53
1, 125229, Note_on_c, 0, 51, 57
1, 125262, Note_off_c, 0, 51, 64
1, 125304, Note_on_c, 0, 52, 60
1, 125354, Control_c, 0, 64, 83
1, 125363, Note_off_c, 0, 52, 63
1, 125368, Control_c, 0, 64, 80
1, 125383, Control_c, 0, 64, 71
1, 125398, Control_c, 0, 64, 41
1, 125403, Note_off_c, 0, 68, 60
1, 125413, Control_c, 0, 64, 0
1, 125415, Note_on_c, 0, 39, 47
1, 125416, Note_on_c, 0, 61, 61
1, 125421, Note_on_c, 0, 58, 41
1, 125448, Note_off_c, 0, 63, 53
1, 125472, Control_c, 0, 64, 53
1, 125487, Control_c, 0, 64, 65
1, 125502, Control_c, 0, 64, 67
1, 125506, Note_off_c, 0, 39, 59
1, 125533, Control_c, 0, 64, 65
1, 125547, Control_c, 0, 64, 56
1, 125562, Control_c, 0, 64, 0
1, 125597, Note_on_c, 0, 38, 53
1, 125636, Control_c, 0, 64, 24
1, 125651, Control_c, 0, 64, 62
1, 125652, Note_on_c, 0, 39, 53
1, 125656, Note_off_c, 0, 38, 57
1, 125665, Control_c, 0, 64, 65
1, 125680, Control_c, 0, 64, 64
1, 125695, Control_c, 0, 64, 61
1, 125699, Note_off_c, 0, 39, 63
1, 125711, Note_off_c, 0, 58, 59
1, 125711, Control_c, 0, 64, 58
1, 125719, Note_on_c, 0, 41, 43
1, 125726, Control_c, 0, 64, 56
1, 125740, Control_c, 0, 64, 56
1, 125753, Note_on_c, 0, 43, 50
1, 125755, Note_off_c, 0, 41, 50
1, 125755, Control_c, 0, 64, 57
1, 125770, Control_c, 0, 64, 57
1, 125802, Note_off_c, 0, 43, 52
1, 125814, Control_c, 0, 64, 57
1, 125842, Note_on_c, 0, 44, 39
1, 125844, Control_c, 0, 64, 56
1, 125850, Note_on_c, 0, 64, 58
1, 125858, Note_off_c, 0, 61, 57
1, 125859, Note_on_c, 0, 59, 45
1, 125859, Control_c, 0, 64, 55
1, 125870, Note_on_c, 0, 56, 42
1, 125874, Control_c, 0, 64, 46
1, 125889, Control_c, 0, 64, 0
1, 125898, Note_on_c, 0, 46, 58
1, 125903, Note_off_c, 0, 44, 60
1, 125942, Note_off_c, 0, 46, 64
1, 125970, Note_on_c, 0, 47, 45
1, 125978, Control_c, 0, 64, 59
1, 125992, Control_c, 0, 64, 65
1, 126005, Note_off_c, 0, 47, 54
1, 126007, Control_c, 0, 64, 66
1, 126022, Control_c, 0, 64, 67
1, 126034, Note_on_c, 0, 49, 50
1, 126037, Control_c, 0, 64, 67
1, 126052, Control_c, 0, 64, 68
1, 126066, Control_c, 0, 64, 68
1, 126081, Control_c, 0, 64, 69
1, 126085, Note_off_c, 0, 49, 57
1, 126103, Note_on_c, 0, 51, 47
1, 126127, Note_off_c, 0, 59, 35
1, 126133, Note_off_c, 0, 56, 51
1, 126144, Note_off_c, 0, 51, 63
1, 126191, Note_on_c, 0, 52, 53
1, 126207, Control_c, 0, 64, 68
1, 126222, Control_c, 0, 64, 68
1, 126237, Control_c, 0, 64, 67
1, 126251, Note_off_c, 0, 52, 58
1, 126252, Control_c, 0, 64, 66
1, 126266, Control_c, 0, 64, 64
1, 126281, Control_c, 0, 64, 49
1, 126296, Control_c, 0, 64, 0
1, 126321, Note_off_c, 0, 64, 58
1, 126338, Note_on_c, 0, 63, 45
1, 126354, Note_on_c, 0, 55, 39
1, 126355, Note_on_c, 0, 39, 34
1, 126366, Note_on_c, 0, 58, 38
1, 126401, Control_c, 0, 64, 62
1, 126415, Control_c, 0, 64, 69
1, 126425, Note_off_c, 0, 58, 60
1, 126429, Note_off_c, 0, 39, 61
1, 126430, Control_c, 0, 64, 75
1, 126445, Control_c, 0, 64, 79
1, 126460, Control_c, 0, 64, 80
1, 126475, Control_c, 0, 64, 80
1, 126486, Note_off_c, 0, 63, 57
1, 126489, Control_c, 0, 64, 81
1, 126504, Control_c, 0, 64, 82
1, 126519, Control_c, 0, 64, 83
1, 126520, Note_off_c, 0, 55, 35
1, 126549, Control_c, 0, 64, 83
1, 126694, Note_on_c, 0, 62, 56
1, 126736, Note_off_c, 0, 62, 59
1, 126772, Note_on_c, 0, 63, 57
1, 126815, Control_c, 0, 64, 83
1, 126818, Note_off_c, 0, 63, 64
1, 126852, Control_c, 0, 64, 82
1, 126861, Note_on_c, 0, 64, 64
1, 126867, Control_c, 0, 64, 78
1, 126882, Control_c, 0, 64, 73
1, 126896, Control_c, 0, 64, 64
1, 126904, Note_on_c, 0, 59, 38
1, 126911, Control_c, 0, 64, 0
1, 126916, Note_on_c, 0, 56, 32
1, 126941, Note_on_c, 0, 66, 69
1, 126946, Note_off_c, 0, 64, 57
1, 127019, Note_on_c, 0, 68, 67
1, 127052, Note_off_c, 0, 66, 57
1, 127089, Note_on_c, 0, 70, 68
1, 127096, Note_off_c, 0, 68, 56
1, 127171, Note_on_c, 0, 71, 66
1, 127198, Note_off_c, 0, 70, 60
1, 127244, Note_off_c, 0, 71, 60
1, 127250, Note_on_c, 0, 64, 50
1, 127320, Note_off_c, 0, 64, 60
1, 127332, Note_on_c, 0, 63, 51
1, 127343, Note_off_c, 0, 59, 41
1, 127361, Note_on_c, 0, 58, 36
1, 127367, Note_on_c, 0, 55, 33
1, 127390, Note_off_c, 0, 56, 32
1, 127475, Control_c, 0, 64, 62
1, 127490, Control_c, 0, 64, 67
1, 127494, Note_off_c, 0, 63, 62
1, 127505, Control_c, 0, 64, 69
1, 127519, Control_c, 0, 64, 72
1, 127534, Control_c, 0, 64, 75
1, 127549, Control_c, 0, 64, 78
1, 127564, Control_c, 0, 64, 80
1, 127579, Control_c, 0, 64, 81
1, 127601, Control_c, 0, 64, 82
1, 127612, Note_off_c, 0, 58, 0
1, 127648, Poly_aftertouch_c, 0, 58, 127
1, 127743, Note_on_c, 0, 62, 50
1, 127749, Control_c, 0, 64, 81
1, 127764, Control_c, 0, 64, 80
1, 127779, Control_c, 0, 64, 77
1, 127794, Control_c, 0, 64, 72
1, 127802, Note_off_c, 0, 62, 52
1, 127808, Control_c, 0, 64, 63
1, 127823, Control_c, 0, 64, 0
1, 127825, Note_on_c, 0, 63, 59
1, 127868, Note_off_c, 0, 63, 64
1, 127909, Note_on_c, 0, 64, 63
1, 127949, Note_off_c, 0, 55, 41
1, 127962, Poly_aftertouch_c, 0, 58, 0
1, 127963, Note_on_c, 0, 56, 44
1, 127990, Note_on_c, 0, 59, 8
1, 127993, Note_on_c, 0, 66, 68
1, 127993, Note_off_c, 0, 64, 60
1, 128080, Note_on_c, 0, 68, 64
1, 128095, Note_off_c, 0, 56, 0
1, 128095, Note_on_c, 0, 56, 7
1, 128101, Note_off_c, 0, 66, 56
1, 128157, Note_off_c, 0, 68, 60
1, 128157, Note_on_c, 0, 70, 67
1, 128247, Note_on_c, 0, 71, 62
1, 128284, Note_off_c, 0, 70, 53
1, 128319, Note_off_c, 0, 71, 60
1, 128339, Note_on_c, 0, 64, 59
1, 128434, Note_off_c, 0, 64, 59
1, 128443, Note_on_c, 0, 63, 56
1, 128446, Note_off_c, 0, 59, 38
1, 128459, Note_on_c, 0, 58, 35
1, 128467, Note_on_c, 0, 55, 36
1, 128470, Note_off_c, 0, 56, 39
1, 128557, Control_c, 0, 64, 36
1, 128572, Control_c, 0, 64, 64
1, 128586, Control_c, 0, 64, 69
1, 128601, Control_c, 0, 64, 73
1, 128616, Control_c, 0, 64, 76
1, 128631, Control_c, 0, 64, 78
1, 128646, Control_c, 0, 64, 80
1, 128661, Control_c, 0, 64, 82
1, 128676, Control_c, 0, 64, 84
1, 128676, Note_off_c, 0, 63, 37
1, 128691, Control_c, 0, 64, 85
1, 128702, Note_off_c, 0, 58, 55
1, 128706, Control_c, 0, 64, 85
1, 128718, Note_off_c, 0, 55, 41
1, 128721, Control_c, 0, 64, 86
1, 128905, Note_on_c, 0, 61, 55
1, 128953, Note_off_c, 0, 61, 56
1, 128995, Note_on_c, 0, 62, 62
1, 129099, Control_c, 0, 64, 84
1, 129110, Note_off_c, 0, 62, 57
1, 129114, Control_c, 0, 64, 80
1, 129124, Note_on_c, 0, 64, 59
1, 129129, Control_c, 0, 64, 75
1, 129140, Note_on_c, 0, 57, 43
1, 129143, Control_c, 0, 64, 68
1, 129150, Note_on_c, 0, 54, 38
1, 129158, Control_c, 0, 64, 41
1, 129173, Control_c, 0, 64, 0
1, 129210, Note_off_c, 0, 64, 63
1, 129224, Note_on_c, 0, 66, 62
1, 129330, Note_off_c, 0, 66, 64
1, 129341, Note_on_c, 0, 67, 63
1, 129429, Note_off_c, 0, 67, 56
1, 129440, Note_on_c, 0, 68, 68
1, 129556, Note_off_c, 0, 68, 61
1, 129559, Note_on_c, 0, 69, 67
1, 129664, Note_off_c, 0, 69, 63
1, 129679, Note_on_c, 0, 62, 64
1, 129816, Note_off_c, 0, 62, 63
1, 129817, Note_off_c, 0, 57, 35
1, 129838, Note_on_c, 0, 56, 35
1, 129847, Note_on_c, 0, 61, 54
1, 129850, Note_off_c, 0, 54, 40
1, 129881, Poly_aftertouch_c, 0, 53, 127
1, 129981, Control_c, 0, 64, 27
1, 129996, Control_c, 0, 64, 64
1, 130011, Control_c, 0, 64, 69
1, 130026, Control_c, 0, 64, 74
1, 130040, Control_c, 0, 64, 77
1, 130055, Control_c, 0, 64, 79
1, 130070, Control_c, 0, 64, 81
1, 130072, Note_off_c, 0, 61, 63
1, 130085, Control_c, 0, 64, 83
1, 130100, Control_c, 0, 64, 84
1, 130114, Control_c, 0, 64, 86
1, 130124, Note_off_c, 0, 56, 44
1, 130129, Control_c, 0, 64, 87
1, 130138, Poly_aftertouch_c, 0, 53, 0
1, 130144, Control_c, 0, 64, 88
1, 130158, Control_c, 0, 64, 89
1, 130173, Control_c, 0, 64, 89
1, 130188, Control_c, 0, 64, 90
1, 130218, Control_c, 0, 64, 90
1, 130453, Note_on_c, 0, 59, 50
1, 130567, Note_off_c, 0, 59, 56
1, 130607, Note_on_c, 0, 60, 55
1, 130641, Control_c, 0, 64, 90
1, 130715, Control_c, 0, 64, 89
1, 130730, Note_off_c, 0, 60, 59
1, 130730, Control_c, 0, 64, 88
1, 130745, Control_c, 0, 64, 85
1, 130760, Control_c, 0, 64, 81
1, 130763, Note_on_c, 0, 62, 59
1, 130770, Note_on_c, 0, 55, 38
1, 130774, Control_c, 0, 64, 75
1, 130783, Note_on_c, 0, 52, 33
1, 130789, Control_c, 0, 64, 66
1, 130804, Control_c, 0, 64, 0
1, 130916, Note_off_c, 0, 62, 57
1, 130922, Note_on_c, 0, 64, 58
1, 131082, Note_on_c, 0, 65, 57
1, 131084, Note_off_c, 0, 64, 60
1, 131284, Note_on_c, 0, 66, 62
1, 131285, Note_off_c, 0, 65, 59
1, 131559, Note_on_c, 0, 67, 54
1, 131561, Note_off_c, 0, 66, 65
1, 131563, Note_on_c, 0, 48, 34
1, 131678, Note_off_c, 0, 52, 58
1, 131886, Note_on_c, 0, 58, 59
1, 131998, Note_off_c, 0, 67, 37
1, 132387, Note_on_c, 0, 57, 52
1, 132406, Note_on_c, 0, 41, 38
1, 132432, Note_off_c, 0, 58, 61
1, 132497, Note_off_c, 0, 55, 26
1, 132547, Note_off_c, 0, 48, 37
1, 132658, Control_c, 0, 64, 52
1, 132673, Control_c, 0, 64, 64
1, 132687, Control_c, 0, 64, 67
1, 132703, Control_c, 0, 64, 71
1, 132718, Control_c, 0, 64, 75
1, 132733, Control_c, 0, 64, 79
1, 132748, Control_c, 0, 64, 80
1, 132763, Control_c, 0, 64, 81
1, 132777, Control_c, 0, 64, 82
1, 132792, Control_c, 0, 64, 83
1, 132807, Control_c, 0, 64, 84
1, 132829, Control_c, 0, 64, 85
1, 132844, Control_c, 0, 64, 87
1, 132849, Note_off_c, 0, 41, 43
1, 132858, Control_c, 0, 64, 88
1, 132873, Control_c, 0, 64, 89
1, 132888, Control_c, 0, 64, 90
1, 132903, Control_c, 0, 64, 91
1, 132918, Control_c, 0, 64, 92
1, 132933, Control_c, 0, 64, 93
1, 132948, Control_c, 0, 64, 96
1, 132961, Note_off_c, 0, 57, 37
1, 132962, Control_c, 0, 64, 100
1, 132977, Control_c, 0, 64, 103
1, 132992, Control_c, 0, 64, 105
1, 133007, Control_c, 0, 64, 107
1, 133022, Control_c, 0, 64, 109
1, 133037, Control_c, 0, 64, 110
1, 133052, Control_c, 0, 64, 111
1, 133066, Control_c, 0, 64, 113
1, 133081, Control_c, 0, 64, 114
1, 133096, Control_c, 0, 64, 116
1, 133111, Control_c, 0, 64, 117
1, 133140, Control_c, 0, 64, 117
1, 133213, Control_c, 0, 64, 118
1, 133696, Control_c, 0, 64, 117
1, 133770, Control_c, 0, 64, 117
1, 133784, Note_on_c, 0, 72, 59
1, 133787, Note_on_c, 0, 60, 38
1, 133814, Control_c, 0, 64, 116
1, 133874, Control_c, 0, 64, 116
1, 133932, Control_c, 0, 64, 115
1, 133951, Note_off_c, 0, 72, 59
1, 133962, Control_c, 0, 64, 115
1, 133964, Note_off_c, 0, 60, 34
1, 134006, Control_c, 0, 64, 114
1, 134051, Control_c, 0, 64, 114
1, 134095, Control_c, 0, 64, 113
1, 134110, Control_c, 0, 64, 113
1, 134125, Control_c, 0, 64, 112
1, 134140, Control_c, 0, 64, 111
1, 134155, Control_c, 0, 64, 108
1, 134163, Note_on_c, 0, 72, 63
1, 134170, Control_c, 0, 64, 106
1, 134180, Note_on_c, 0, 69, 40
1, 134185, Control_c, 0, 64, 102
1, 134199, Control_c, 0, 64, 98
1, 134204, Note_on_c, 0, 60, 29
1, 134210, Note_on_c, 0, 53, 31
1, 134214, Control_c, 0, 64, 93
1, 134229, Control_c, 0, 64, 88
1, 134244, Control_c, 0, 64, 80
1, 134259, Control_c, 0, 64, 71
1, 134273, Control_c, 0, 64, 31
1, 134288, Control_c, 0, 64, 0
1, 134370, Control_c, 0, 64, 25
1, 134385, Control_c, 0, 64, 63
1, 134400, Control_c, 0, 64, 68
1, 134415, Control_c, 0, 64, 71
1, 134429, Control_c, 0, 64, 75
1, 134444, Control_c, 0, 64, 77
1, 134459, Control_c, 0, 64, 79
1, 134474, Control_c, 0, 64, 80
1, 134489, Control_c, 0, 64, 81
1, 134499, Note_off_c, 0, 69, 35
1, 134504, Control_c, 0, 64, 82
1, 134507, Note_off_c, 0, 53, 42
1, 134516, Note_off_c, 0, 60, 40
1, 134518, Control_c, 0, 64, 82
1, 134523, Note_off_c, 0, 72, 54
1, 134533, Control_c, 0, 64, 83
1, 134548, Control_c, 0, 64, 84
1, 134563, Control_c, 0, 64, 85
1, 134593, Control_c, 0, 64, 85
1, 134608, Control_c, 0, 64, 86
1, 134696, Control_c, 0, 64, 86
1, 134698, Note_on_c, 0, 72, 64
1, 134726, Note_on_c, 0, 53, 36
1, 134727, Note_on_c, 0, 69, 29
1, 134733, Note_on_c, 0, 60, 30
1, 134771, Note_off_c, 0, 69, 46
1, 134817, Note_off_c, 0, 53, 51
1, 134817, Note_off_c, 0, 60, 35
1, 134829, Control_c, 0, 64, 87
1, 134962, Control_c, 0, 64, 86
1, 135007, Control_c, 0, 64, 85
1, 135015, Note_on_c, 0, 76, 66
1, 135021, Control_c, 0, 64, 84
1, 135022, Note_on_c, 0, 70, 56
1, 135036, Control_c, 0, 64, 79
1, 135047, Note_off_c, 0, 72, 35
1, 135049, Note_on_c, 0, 53, 33
1, 135051, Control_c, 0, 64, 71
1, 135052, Note_on_c, 0, 60, 35
1, 135066, Control_c, 0, 64, 52
1, 135088, Control_c, 0, 64, 0
1, 135192, Control_c, 0, 64, 60
1, 135207, Control_c, 0, 64, 69
1, 135222, Control_c, 0, 64, 74
1, 135237, Control_c, 0, 64, 80
1, 135252, Control_c, 0, 64, 81
1, 135266, Note_off_c, 0, 70, 52
1, 135282, Control_c, 0, 64, 82
1, 135296, Note_off_c, 0, 53, 43
1, 135297, Control_c, 0, 64, 82
1, 135301, Note_off_c, 0, 60, 51
1, 135326, Control_c, 0, 64, 83
1, 135341, Control_c, 0, 64, 83
1, 135407, Note_on_c, 0, 74, 68
1, 135449, Note_off_c, 0, 76, 55
1, 135518, Control_c, 0, 64, 83
1, 135530, Note_on_c, 0, 72, 71
1, 135533, Control_c, 0, 64, 80
1, 135538, Note_on_c, 0, 70, 63
1, 135539, Note_off_c, 0, 74, 57
1, 135548, Control_c, 0, 64, 74
1, 135555, Note_on_c, 0, 53, 31
1, 135558, Note_on_c, 0, 60, 36
1, 135563, Control_c, 0, 64, 63
1, 135577, Control_c, 0, 64, 0
1, 135666, Control_c, 0, 64, 44
1, 135681, Control_c, 0, 64, 65
1, 135696, Control_c, 0, 64, 71
1, 135711, Control_c, 0, 64, 76
1, 135726, Control_c, 0, 64, 78
1, 135735, Note_off_c, 0, 53, 40
1, 135740, Note_off_c, 0, 60, 33
1, 135741, Control_c, 0, 64, 78
1, 135756, Control_c, 0, 64, 79
1, 135770, Control_c, 0, 64, 79
1, 135785, Control_c, 0, 64, 80
1, 135792, Note_off_c, 0, 70, 51
1, 135800, Control_c, 0, 64, 80
1, 135815, Control_c, 0, 64, 81
1, 135956, Control_c, 0, 64, 80
1, 135969, Note_on_c, 0, 77, 74
1, 135971, Control_c, 0, 64, 78
1, 135986, Control_c, 0, 64, 72
1, 135992, Note_off_c, 0, 72, 60
1, 135995, Note_on_c, 0, 69, 41
1, 135997, Note_on_c, 0, 53, 26
1, 136000, Control_c, 0, 64, 57
1, 136004, Note_on_c, 0, 60, 23
1, 136015, Control_c, 0, 64, 0
1, 136149, Control_c, 0, 64, 61
1, 136164, Control_c, 0, 64, 68
1, 136179, Control_c, 0, 64, 71
1, 136194, Control_c, 0, 64, 75
1, 136208, Control_c, 0, 64, 78
1, 136223, Control_c, 0, 64, 80
1, 136238, Control_c, 0, 64, 81
1, 136244, Note_off_c, 0, 77, 55
1, 136253, Control_c, 0, 64, 82
1, 136268, Control_c, 0, 64, 83
1, 136282, Control_c, 0, 64, 84
1, 136297, Control_c, 0, 64, 84
1, 136312, Control_c, 0, 64, 85
1, 136316, Note_off_c, 0, 60, 37
1, 136330, Note_off_c, 0, 53, 38
1, 136356, Control_c, 0, 64, 85
1, 136430, Control_c, 0, 64, 86
1, 136489, Control_c, 0, 64, 85
1, 136534, Note_on_c, 0, 74, 67
1, 136534, Control_c, 0, 64, 84
1, 136548, Control_c, 0, 64, 79
1, 136552, Note_on_c, 0, 58, 41
1, 136552, Note_on_c, 0, 65, 49
1, 136563, Control_c, 0, 64, 67
1, 136586, Control_c, 0, 64, 0
1, 136587, Note_off_c, 0, 69, 42
1, 136660, Control_c, 0, 64, 60
1, 136674, Control_c, 0, 64, 67
1, 136689, Control_c, 0, 64, 70
1, 136702, Note_off_c, 0, 65, 41
1, 136705, Control_c, 0, 64, 72
1, 136720, Control_c, 0, 64, 74
1, 136735, Control_c, 0, 64, 76
1, 136749, Control_c, 0, 64, 77
1, 136764, Control_c, 0, 64, 77
1, 136800, Note_off_c, 0, 58, 35
1, 136832, Note_on_c, 0, 57, 37
1, 136835, Note_off_c, 0, 74, 59
1, 136838, Note_on_c, 0, 72, 67
1, 136867, Note_on_c, 0, 65, 42
1, 136868, Control_c, 0, 64, 76
1, 136883, Control_c, 0, 64, 74
1, 136897, Control_c, 0, 64, 67
1, 136912, Control_c, 0, 64, 13
1, 136927, Control_c, 0, 64, 0
1, 137002, Control_c, 0, 64, 52
1, 137016, Control_c, 0, 64, 66
1, 137031, Control_c, 0, 64, 72
1, 137046, Control_c, 0, 64, 79
1, 137061, Control_c, 0, 64, 82
1, 137076, Control_c, 0, 64, 84
1, 137076, Note_off_c, 0, 72, 61
1, 137091, Control_c, 0, 64, 85
1, 137105, Control_c, 0, 64, 86
1, 137120, Control_c, 0, 64, 87
1, 137124, Note_off_c, 0, 57, 31
1, 137135, Control_c, 0, 64, 88
1, 137161, Note_off_c, 0, 65, 47
1, 137164, Control_c, 0, 64, 89
1, 137209, Control_c, 0, 64, 89
1, 137394, Control_c, 0, 64, 88
1, 137396, Note_on_c, 0, 69, 63
1, 137409, Control_c, 0, 64, 84
1, 137416, Note_on_c, 0, 64, 46
1, 137422, Note_on_c, 0, 48, 35
1, 137423, Control_c, 0, 64, 74
1, 137437, Note_on_c, 0, 57, 27
1, 137438, Control_c, 0, 64, 50
1, 137453, Control_c, 0, 64, 0
1, 137475, Note_off_c, 0, 64, 0
1, 137475, Note_on_c, 0, 64, 4
1, 137514, Control_c, 0, 64, 63
1, 137528, Control_c, 0, 64, 70
1, 137543, Control_c, 0, 64, 75
1, 137558, Control_c, 0, 64, 78
1, 137572, Control_c, 0, 64, 79
1, 137578, Note_off_c, 0, 64, 38
1, 137580, Note_off_c, 0, 57, 24
1, 137587, Control_c, 0, 64, 79
1, 137602, Control_c, 0, 64, 80
1, 137619, Note_off_c, 0, 69, 50
1, 137632, Control_c, 0, 64, 80
1, 137640, Note_off_c, 0, 48, 42
1, 137691, Control_c, 0, 64, 80
1, 137696, Note_on_c, 0, 65, 56
1, 137706, Control_c, 0, 64, 79
1, 137714, Note_on_c, 0, 57, 33
1, 137717, Note_on_c, 0, 60, 45
1, 137720, Note_on_c, 0, 50, 38
1, 137721, Control_c, 0, 64, 76
1, 137736, Control_c, 0, 64, 67
1, 137751, Control_c, 0, 64, 0
1, 137825, Control_c, 0, 64, 25
1, 137840, Control_c, 0, 64, 63
1, 137854, Control_c, 0, 64, 69
1, 137869, Control_c, 0, 64, 75
1, 137884, Control_c, 0, 64, 80
1, 137899, Control_c, 0, 64, 82
1, 137914, Control_c, 0, 64, 83
1, 137937, Note_off_c, 0, 60, 37
1, 137944, Control_c, 0, 64, 83
1, 137958, Control_c, 0, 64, 84
1, 137969, Note_off_c, 0, 50, 41
1, 138047, Control_c, 0, 64, 84
1, 138054, Note_off_c, 0, 65, 35
1, 138217, Note_off_c, 0, 57, 26
1, 138292, Control_c, 0, 64, 82
1, 138298, Note_on_c, 0, 67, 62
1, 138302, Note_on_c, 0, 65, 39
1, 138307, Control_c, 0, 64, 78
1, 138319, Note_on_c, 0, 50, 33
1, 138322, Control_c, 0, 64, 68
1, 138322, Note_on_c, 0, 43, 38
1, 138326, Note_on_c, 0, 58, 39
1, 138337, Control_c, 0, 64, 0
1, 138411, Control_c, 0, 64, 38
1, 138426, Control_c, 0, 64, 64
1, 138441, Control_c, 0, 64, 70
1, 138456, Control_c, 0, 64, 75
1, 138470, Control_c, 0, 64, 78
1, 138485, Control_c, 0, 64, 79
1, 138488, Note_off_c, 0, 67, 55
1, 138493, Note_off_c, 0, 58, 41
1, 138500, Control_c, 0, 64, 80
1, 138515, Control_c, 0, 64, 80
1, 138529, Control_c, 0, 64, 81
1, 138544, Control_c, 0, 64, 82
1, 138578, Note_off_c, 0, 50, 29
1, 138608, Note_off_c, 0, 43, 34
1, 138680, Note_off_c, 0, 65, 41
1, 138695, Note_on_c, 0, 67, 63
1, 138707, Control_c, 0, 64, 81
1, 138712, Note_on_c, 0, 64, 46
1, 138716, Note_on_c, 0, 58, 40
1, 138717, Note_on_c, 0, 48, 36
1, 138722, Control_c, 0, 64, 79
1, 138736, Control_c, 0, 64, 72
1, 138751, Control_c, 0, 64, 60
1, 138766, Control_c, 0, 64, 0
1, 138892, Control_c, 0, 64, 33
1, 138907, Control_c, 0, 64, 64
1, 138921, Control_c, 0, 64, 68
1, 138936, Control_c, 0, 64, 71
1, 138951, Control_c, 0, 64, 73
1, 138966, Control_c, 0, 64, 76
1, 138981, Control_c, 0, 64, 77
1, 138996, Control_c, 0, 64, 78
1, 139011, Control_c, 0, 64, 79
1, 139026, Control_c, 0, 64, 80
1, 139035, Note_off_c, 0, 64, 52
1, 139041, Control_c, 0, 64, 82
1, 139055, Control_c, 0, 64, 83
1, 139070, Control_c, 0, 64, 84
1, 139081, Note_off_c, 0, 48, 43
1, 139085, Control_c, 0, 64, 84
1, 139100, Control_c, 0, 64, 85
1, 139144, Note_off_c, 0, 58, 26
1, 139372, Note_on_c, 0, 58, 14
1, 139380, Note_on_c, 0, 62, 37
1, 139380, Note_on_c, 0, 48, 33
1, 139511, Note_off_c, 0, 67, 57
1, 139557, Note_off_c, 0, 58, 40
1, 139897, Note_off_c, 0, 48, 34
1, 139924, Control_c, 0, 64, 84
1, 139938, Control_c, 0, 64, 83
1, 139953, Control_c, 0, 64, 80
1, 139954, Note_on_c, 0, 69, 45
1, 139964, Note_on_c, 0, 60, 26
1, 139968, Control_c, 0, 64, 76
1, 139972, Note_on_c, 0, 53, 22
1, 139973, Note_off_c, 0, 62, 38
1, 139980, Note_on_c, 0, 41, 26
1, 139982, Control_c, 0, 64, 70
1, 139997, Control_c, 0, 64, 56
1, 140012, Control_c, 0, 64, 0
1, 140146, Control_c, 0, 64, 40
1, 140161, Control_c, 0, 64, 63
1, 140175, Control_c, 0, 64, 67
1, 140190, Control_c, 0, 64, 70
1, 140205, Control_c, 0, 64, 74
1, 140215, Note_off_c, 0, 41, 51
1, 140220, Note_off_c, 0, 69, 61
1, 140220, Control_c, 0, 64, 76
1, 140235, Control_c, 0, 64, 78
1, 140249, Control_c, 0, 64, 79
1, 140264, Control_c, 0, 64, 80
1, 140279, Control_c, 0, 64, 81
1, 140293, Control_c, 0, 64, 82
1, 140308, Control_c, 0, 64, 83
1, 140354, Note_off_c, 0, 60, 33
1, 140368, Note_off_c, 0, 53, 37
1, 140375, Control_c, 0, 64, 83
1, 140493, Control_c, 0, 64, 83
1, 140518, Note_on_c, 0, 70, 57
1, 140523, Control_c, 0, 64, 80
1, 140533, Note_on_c, 0, 46, 35
1, 140538, Control_c, 0, 64, 73
1, 140539, Note_on_c, 0, 53, 33
1, 140541, Note_on_c, 0, 62, 30
1, 140553, Control_c, 0, 64, 61
1, 140568, Control_c, 0, 64, 0
1, 140612, Control_c, 0, 64, 27
1, 140627, Control_c, 0, 64, 65
1, 140641, Control_c, 0, 64, 71
1, 140656, Control_c, 0, 64, 76
1, 140667, Note_off_c, 0, 53, 33
1, 140671, Note_off_c, 0, 70, 60
1, 140671, Control_c, 0, 64, 79
1, 140697, Note_off_c, 0, 46, 42
1, 140731, Control_c, 0, 64, 79
1, 140797, Note_on_c, 0, 69, 57
1, 140798, Note_on_c, 0, 53, 31
1, 140814, Note_on_c, 0, 60, 36
1, 140815, Note_on_c, 0, 48, 28
1, 140820, Control_c, 0, 64, 79
1, 140835, Control_c, 0, 64, 76
1, 140850, Control_c, 0, 64, 70
1, 140860, Note_off_c, 0, 62, 28
1, 140865, Control_c, 0, 64, 50
1, 140880, Control_c, 0, 64, 0
1, 140954, Control_c, 0, 64, 26
1, 140969, Control_c, 0, 64, 66
1, 140984, Control_c, 0, 64, 72
1, 140998, Control_c, 0, 64, 77
1, 141013, Control_c, 0, 64, 79
1, 141016, Note_off_c, 0, 48, 39
1, 141028, Control_c, 0, 64, 80
1, 141043, Control_c, 0, 64, 80
1, 141058, Control_c, 0, 64, 81
1, 141079, Note_off_c, 0, 53, 39
1, 141079, Control_c, 0, 64, 82
1, 141094, Control_c, 0, 64, 82
1, 141098, Note_off_c, 0, 60, 27
1, 141109, Control_c, 0, 64, 83
1, 141154, Control_c, 0, 64, 83
1, 141252, Note_off_c, 0, 69, 32
1, 141287, Control_c, 0, 64, 83
1, 141302, Control_c, 0, 64, 79
1, 141308, Note_on_c, 0, 65, 55
1, 141316, Control_c, 0, 64, 71
1, 141321, Note_on_c, 0, 46, 40
1, 141326, Note_on_c, 0, 62, 40
1, 141330, Note_on_c, 0, 53, 33
1, 141331, Control_c, 0, 64, 37
1, 141346, Control_c, 0, 64, 0
1, 141405, Control_c, 0, 64, 63
1, 141420, Control_c, 0, 64, 70
1, 141425, Note_off_c, 0, 62, 60
1, 141435, Control_c, 0, 64, 75
1, 141441, Note_off_c, 0, 53, 37
1, 141449, Control_c, 0, 64, 77
1, 141479, Control_c, 0, 64, 78
1, 141504, Note_off_c, 0, 46, 38
1, 141510, Control_c, 0, 64, 78
1, 141596, Note_on_c, 0, 69, 55
1, 141599, Control_c, 0, 64, 78
1, 141601, Note_off_c, 0, 65, 38
1, 141607, Note_on_c, 0, 60, 38
1, 141610, Note_on_c, 0, 53, 27
1, 141611, Note_on_c, 0, 48, 35
1, 141613, Control_c, 0, 64, 75
1, 141628, Control_c, 0, 64, 68
1, 141643, Control_c, 0, 64, 0
1, 141732, Control_c, 0, 64, 32
1, 141747, Control_c, 0, 64, 64
1, 141753, Note_off_c, 0, 69, 62
1, 141762, Control_c, 0, 64, 69
1, 141777, Control_c, 0, 64, 73
1, 141792, Control_c, 0, 64, 76
1, 141804, Note_off_c, 0, 60, 46
1, 141807, Control_c, 0, 64, 77
1, 141828, Control_c, 0, 64, 78
1, 141843, Control_c, 0, 64, 79
1, 141855, Note_off_c, 0, 48, 38
1, 141858, Control_c, 0, 64, 80
1, 141873, Control_c, 0, 64, 80
1, 141888, Control_c, 0, 64, 81
1, 141902, Control_c, 0, 64, 81
1, 141906, Note_off_c, 0, 53, 35
1, 141917, Control_c, 0, 64, 82
1, 142125, Control_c, 0, 64, 81
1, 142133, Note_on_c, 0, 70, 61
1, 142139, Control_c, 0, 64, 78
1, 142148, Note_on_c, 0, 58, 43
1, 142149, Note_on_c, 0, 50, 28
1, 142154, Control_c, 0, 64, 71
1, 142164, Note_on_c, 0, 53, 22
1, 142169, Control_c, 0, 64, 46
1, 142185, Control_c, 0, 64, 0
1, 142244, Control_c, 0, 64, 49
1, 142259, Control_c, 0, 64, 66
1, 142263, Note_off_c, 0, 53, 35
1, 142273, Control_c, 0, 64, 70
1, 142288, Control_c, 0, 64, 73
1, 142299, Note_off_c, 0, 58, 60
1, 142304, Control_c, 0, 64, 75
1, 142313, Note_off_c, 0, 70, 62
1, 142319, Control_c, 0, 64, 76
1, 142334, Control_c, 0, 64, 77
1, 142349, Control_c, 0, 64, 78
1, 142363, Control_c, 0, 64, 79
1, 142458, Note_on_c, 0, 69, 55
1, 142461, Note_on_c, 0, 48, 38
1, 142472, Note_off_c, 0, 50, 35
1, 142478, Note_on_c, 0, 53, 16
1, 142481, Note_on_c, 0, 60, 41
1, 142482, Control_c, 0, 64, 78
1, 142496, Control_c, 0, 64, 75
1, 142511, Control_c, 0, 64, 67
1, 142526, Control_c, 0, 64, 0
1, 142638, Control_c, 0, 64, 49
1, 142652, Control_c, 0, 64, 65
1, 142667, Control_c, 0, 64, 69
1, 142682, Control_c, 0, 64, 72
1, 142696, Control_c, 0, 64, 74
1, 142711, Control_c, 0, 64, 75
1, 142726, Control_c, 0, 64, 76
1, 142741, Control_c, 0, 64, 77
1, 142756, Control_c, 0, 64, 78
1, 142770, Control_c, 0, 64, 78
1, 142785, Control_c, 0, 64, 79
1, 142812, Note_off_c, 0, 53, 32
1, 142925, Note_off_c, 0, 48, 30
1, 143001, Note_on_c, 0, 67, 46
1, 143055, Note_off_c, 0, 60, 34
1, 143083, Control_c, 0, 64, 78
1, 143098, Control_c, 0, 64, 77
1, 143112, Control_c, 0, 64, 75
1, 143127, Control_c, 0, 64, 73
1, 143142, Control_c, 0, 64, 70
1, 143157, Control_c, 0, 64, 64
1, 143169, Note_off_c, 0, 67, 37
1, 143172, Control_c, 0, 64, 13
1, 143179, Note_off_c, 0, 69, 33
1, 143186, Control_c, 0, 64, 0
1, 143188, Note_on_c, 0, 65, 38
1, 143191, Note_on_c, 0, 46, 29
1, 143208, Note_on_c, 0, 62, 20
1, 143220, Note_on_c, 0, 53, 6
1, 143357, Control_c, 0, 64, 58
1, 143372, Control_c, 0, 64, 65
1, 143387, Control_c, 0, 64, 66
1, 143401, Control_c, 0, 64, 67
1, 143416, Control_c, 0, 64, 68
1, 143431, Control_c, 0, 64, 70
1, 143446, Control_c, 0, 64, 72
1, 143461, Control_c, 0, 64, 74
1, 143475, Control_c, 0, 64, 75
1, 143490, Control_c, 0, 64, 76
1, 143510, Note_off_c, 0, 65, 42
1, 143521, Note_off_c, 0, 53, 35
1, 143526, Note_off_c, 0, 46, 39
1, 143586, Note_off_c, 0, 62, 47
1, 143667, Control_c, 0, 64, 75
1, 143682, Control_c, 0, 64, 75
1, 143697, Control_c, 0, 64, 74
1, 143711, Control_c, 0, 64, 73
1, 143726, Control_c, 0, 64, 72
1, 143741, Control_c, 0, 64, 70
1, 143756, Control_c, 0, 64, 68
1, 143771, Control_c, 0, 64, 65
1, 143785, Control_c, 0, 64, 57
1, 143800, Control_c, 0, 64, 32
1, 143815, Control_c, 0, 64, 0
1, 143964, Control_c, 0, 64, 10
1, 143979, Control_c, 0, 64, 13
1, 143994, Control_c, 0, 64, 16
1, 144008, Control_c, 0, 64, 19
1, 144023, Control_c, 0, 64, 22
1, 144038, Control_c, 0, 64, 24
1, 144053, Control_c, 0, 64, 25
1, 144120, Control_c, 0, 64, 26
1, 144135, Control_c, 0, 64, 27
1, 144149, Control_c, 0, 64, 28
1, 144164, Control_c, 0, 64, 29
1, 144194, Control_c, 0, 64, 30
1, 144253, Control_c, 0, 64, 31
1, 144268, Control_c, 0, 64, 32
1, 144283, Control_c, 0, 64, 32
1, 144371, Control_c, 0, 64, 33
1, 144386, Control_c, 0, 64, 34
1, 144401, Control_c, 0, 64, 34
1, 144415, Control_c, 0, 64, 35
1, 144958, Control_c, 0, 64, 36
1, 145061, Control_c, 0, 64, 36
1, 145254, Control_c, 0, 64, 37
1, 145269, Control_c, 0, 64, 38
1, 145283, Control_c, 0, 64, 40
1, 145298, Control_c, 0, 64, 41
1, 145313, Control_c, 0, 64, 43
1, 145328, Control_c, 0, 64, 44
1, 145343, Control_c, 0, 64, 46
1, 145357, Control_c, 0, 64, 47
1, 145372, Control_c, 0, 64, 48
1, 145387, Control_c, 0, 64, 50
1, 145402, Control_c, 0, 64, 51
1, 145417, Control_c, 0, 64, 52
1, 145432, Control_c, 0, 64, 53
1, 145446, Control_c, 0, 64, 54
1, 145461, Control_c, 0, 64, 56
1, 145476, Control_c, 0, 64, 56
1, 145492, Control_c, 0, 64, 57
1, 145506, Control_c, 0, 64, 59
1, 145521, Control_c, 0, 64, 61
1, 145536, Control_c, 0, 64, 62
1, 145551, Control_c, 0, 64, 63
1, 145574, Control_c, 0, 64, 63
1, 145588, Control_c, 0, 64, 64
1, 145603, Control_c, 0, 64, 65
1, 145618, Control_c, 0, 64, 66
1, 145633, Control_c, 0, 64, 67
1, 145648, Control_c, 0, 64, 67
1, 145662, Control_c, 0, 64, 68
1, 145677, Control_c, 0, 64, 69
1, 145692, Control_c, 0, 64, 70
1, 145707, Control_c, 0, 64, 71
1, 145721, Control_c, 0, 64, 72
1, 145736, Control_c, 0, 64, 73
1, 145751, Control_c, 0, 64, 74
1, 145766, Control_c, 0, 64, 75
1, 145781, Control_c, 0, 64, 76
1, 145795, Control_c, 0, 64, 76
1, 145810, Control_c, 0, 64, 77
1, 145825, Control_c, 0, 64, 77
1, 145840, Control_c, 0, 64, 78
1, 145870, Control_c, 0, 64, 78
1, 145900, Control_c, 0, 64, 79
1, 145944, Control_c, 0, 64, 79
1, 146048, Control_c, 0, 64, 80
1, 146107, Control_c, 0, 64, 80
1, 146151, Control_c, 0, 64, 81
1, 146195, Control_c, 0, 64, 81
1, 146239, Control_c, 0, 64, 82
1, 146285, Control_c, 0, 64, 82
1, 146337, Control_c, 0, 64, 83
1, 146397, Control_c, 0, 64, 83
1, 146444, Note_on_c, 0, 48, 36
1, 146452, Note_on_c, 0, 72, 53
1, 146466, Note_on_c, 0, 57, 20
1, 146471, Control_c, 0, 64, 84
1, 146475, Note_on_c, 0, 64, 32
1, 146559, Control_c, 0, 64, 84
1, 146716, Note_off_c, 0, 57, 34
1, 146717, Note_off_c, 0, 48, 41
1, 146774, Note_off_c, 0, 64, 34
1, 146959, Control_c, 0, 64, 82
1, 146965, Note_on_c, 0, 69, 56
1, 146974, Control_c, 0, 64, 77
1, 146975, Note_on_c, 0, 65, 47
1, 146988, Note_on_c, 0, 57, 27
1, 146989, Control_c, 0, 64, 65
1, 146997, Note_on_c, 0, 50, 26
1, 147004, Control_c, 0, 64, 0
1, 147039, Note_off_c, 0, 72, 50
1, 147085, Control_c, 0, 64, 62
1, 147101, Control_c, 0, 64, 69
1, 147106, Note_off_c, 0, 65, 62
1, 147116, Control_c, 0, 64, 72
1, 147131, Control_c, 0, 64, 75
1, 147138, Note_off_c, 0, 57, 28
1, 147146, Control_c, 0, 64, 77
1, 147160, Control_c, 0, 64, 78
1, 147175, Control_c, 0, 64, 79
1, 147189, Note_off_c, 0, 50, 37
1, 147190, Control_c, 0, 64, 79
1, 147253, Note_on_c, 0, 72, 73
1, 147256, Note_off_c, 0, 69, 62
1, 147263, Note_on_c, 0, 52, 42
1, 147274, Note_on_c, 0, 57, 25
1, 147277, Note_on_c, 0, 64, 42
1, 147279, Control_c, 0, 64, 77
1, 147293, Control_c, 0, 64, 70
1, 147308, Control_c, 0, 64, 49
1, 147323, Control_c, 0, 64, 0
1, 147397, Control_c, 0, 64, 63
1, 147412, Control_c, 0, 64, 69
1, 147426, Control_c, 0, 64, 72
1, 147440, Control_c, 0, 64, 75
1, 147455, Control_c, 0, 64, 77
1, 147470, Control_c, 0, 64, 78
1, 147474, Note_off_c, 0, 64, 39
1, 147476, Note_off_c, 0, 57, 38
1, 147484, Control_c, 0, 64, 79
1, 147498, Note_off_c, 0, 52, 38
1, 147499, Control_c, 0, 64, 80
1, 147513, Note_off_c, 0, 72, 53
1, 147514, Control_c, 0, 64, 81
1, 147529, Control_c, 0, 64, 82
1, 147558, Control_c, 0, 64, 82
1, 147603, Control_c, 0, 64, 83
1, 147745, Note_on_c, 0, 74, 66
1, 147751, Control_c, 0, 64, 79
1, 147766, Control_c, 0, 64, 72
1, 147767, Note_on_c, 0, 53, 37
1, 147768, Note_on_c, 0, 57, 34
1, 147768, Note_on_c, 0, 62, 34
1, 147781, Control_c, 0, 64, 45
1, 147795, Control_c, 0, 64, 0
1, 147862, Control_c, 0, 64, 61
1, 147877, Control_c, 0, 64, 68
1, 147893, Control_c, 0, 64, 71
1, 147905, Note_off_c, 0, 57, 35
1, 147908, Control_c, 0, 64, 73
1, 147908, Note_off_c, 0, 62, 39
1, 147922, Control_c, 0, 64, 74
1, 147937, Control_c, 0, 64, 75
1, 147952, Control_c, 0, 64, 76
1, 147967, Control_c, 0, 64, 76
1, 147981, Control_c, 0, 64, 77
1, 148022, Note_on_c, 0, 72, 62
1, 148032, Note_off_c, 0, 53, 38
1, 148037, Note_off_c, 0, 74, 59
1, 148041, Control_c, 0, 64, 76
1, 148046, Note_on_c, 0, 57, 28
1, 148053, Note_on_c, 0, 64, 41
1, 148055, Note_on_c, 0, 52, 37
1, 148055, Control_c, 0, 64, 74
1, 148070, Control_c, 0, 64, 69
1, 148085, Control_c, 0, 64, 55
1, 148100, Control_c, 0, 64, 0
1, 148204, Control_c, 0, 64, 26
1, 148219, Control_c, 0, 64, 63
1, 148234, Control_c, 0, 64, 68
1, 148249, Control_c, 0, 64, 72
1, 148263, Control_c, 0, 64, 74
1, 148278, Control_c, 0, 64, 76
1, 148293, Control_c, 0, 64, 78
1, 148307, Control_c, 0, 64, 79
1, 148322, Control_c, 0, 64, 79
1, 148337, Control_c, 0, 64, 80
1, 148340, Note_off_c, 0, 57, 39
1, 148352, Control_c, 0, 64, 80
1, 148381, Control_c, 0, 64, 81
1, 148384, Note_on_c, 0, 71, 60
1, 148392, Note_off_c, 0, 52, 30
1, 148400, Note_off_c, 0, 64, 35
1, 148411, Control_c, 0, 64, 81
1, 148415, Note_off_c, 0, 72, 37
1, 148470, Control_c, 0, 64, 81
1, 148499, Control_c, 0, 64, 80
1, 148500, Note_on_c, 0, 69, 64
1, 148508, Note_off_c, 0, 71, 55
1, 148514, Control_c, 0, 64, 78
1, 148520, Note_on_c, 0, 65, 51
1, 148529, Control_c, 0, 64, 72
1, 148544, Control_c, 0, 64, 58
1, 148559, Note_on_c, 0, 50, 23
1, 148567, Control_c, 0, 64, 0
1, 148585, Poly_aftertouch_c, 0, 57, 127
1, 148598, Note_off_c, 0, 65, 0
1, 148598, Note_on_c, 0, 65, 13
1, 148655, Control_c, 0, 64, 53
1, 148670, Control_c, 0, 64, 65
1, 148674, Note_off_c, 0, 65, 52
1, 148686, Control_c, 0, 64, 70
1, 148701, Control_c, 0, 64, 73
1, 148716, Poly_aftertouch_c, 0, 57, 0
1, 148716, Control_c, 0, 64, 75
1, 148730, Control_c, 0, 64, 75
1, 148745, Control_c, 0, 64, 76
1, 148806, Note_on_c, 0, 72, 63
1, 148811, Note_off_c, 0, 69, 54
1, 148830, Note_on_c, 0, 52, 42
1, 148831, Note_off_c, 0, 50, 34
1, 148834, Control_c, 0, 64, 75
1, 148841, Note_on_c, 0, 57, 25
1, 148842, Note_on_c, 0, 64, 37
1, 148849, Control_c, 0, 64, 73
1, 148864, Control_c, 0, 64, 68
1, 148879, Control_c, 0, 64, 51
1, 148893, Control_c, 0, 64, 0
1, 148983, Control_c, 0, 64, 57
1, 148998, Control_c, 0, 64, 66
1, 149012, Control_c, 0, 64, 71
1, 149027, Control_c, 0, 64, 75
1, 149042, Control_c, 0, 64, 77
1, 149056, Control_c, 0, 64, 78
1, 149059, Note_off_c, 0, 64, 41
1, 149071, Control_c, 0, 64, 79
1, 149086, Control_c, 0, 64, 80
1, 149101, Note_off_c, 0, 57, 40
1, 149101, Control_c, 0, 64, 81
1, 149116, Control_c, 0, 64, 82
1, 149131, Control_c, 0, 64, 82
1, 149161, Control_c, 0, 64, 83
1, 149163, Note_off_c, 0, 52, 24
1, 149313, Note_off_c, 0, 72, 59
1, 149316, Control_c, 0, 64, 82
1, 149323, Note_on_c, 0, 74, 61
1, 149331, Control_c, 0, 64, 76
1, 149337, Note_on_c, 0, 62, 40
1, 149343, Note_on_c, 0, 57, 33
1, 149346, Control_c, 0, 64, 66
1, 149351, Note_on_c, 0, 53, 19
1, 149360, Control_c, 0, 64, 0
1, 149420, Control_c, 0, 64, 43
1, 149435, Control_c, 0, 64, 64
1, 149450, Control_c, 0, 64, 69
1, 149464, Control_c, 0, 64, 72
1, 149474, Note_off_c, 0, 62, 43
1, 149480, Control_c, 0, 64, 75
1, 149495, Control_c, 0, 64, 77
1, 149497, Note_off_c, 0, 57, 37
1, 149509, Control_c, 0, 64, 78
1, 149524, Control_c, 0, 64, 79
1, 149539, Control_c, 0, 64, 79
1, 149554, Control_c, 0, 64, 80
1, 149608, Note_off_c, 0, 53, 41
1, 149616, Note_off_c, 0, 74, 58
1, 149620, Note_on_c, 0, 72, 57
1, 149641, Note_on_c, 0, 64, 46
1, 149643, Note_on_c, 0, 57, 23
1, 149643, Control_c, 0, 64, 79
1, 149644, Note_on_c, 0, 52, 31
1, 149658, Control_c, 0, 64, 76
1, 149673, Control_c, 0, 64, 68
1, 149687, Control_c, 0, 64, 0
1, 149806, Control_c, 0, 64, 54
1, 149821, Control_c, 0, 64, 66
1, 149835, Control_c, 0, 64, 71
1, 149850, Control_c, 0, 64, 75
1, 149865, Control_c, 0, 64, 77
1, 149879, Control_c, 0, 64, 78
1, 149894, Control_c, 0, 64, 79
1, 149909, Control_c, 0, 64, 80
1, 149924, Control_c, 0, 64, 81
1, 149939, Control_c, 0, 64, 82
1, 149954, Control_c, 0, 64, 82
1, 149969, Control_c, 0, 64, 83
1, 149979, Note_off_c, 0, 57, 0
1, 150016, Note_off_c, 0, 52, 40
1, 150016, Poly_aftertouch_c, 0, 57, 127
1, 150058, Note_on_c, 0, 71, 63
1, 150084, Note_off_c, 0, 72, 49
1, 150109, Note_off_c, 0, 64, 29
1, 150210, Note_on_c, 0, 69, 64
1, 150213, Control_c, 0, 64, 81
1, 150219, Note_on_c, 0, 60, 44
1, 150225, Note_off_c, 0, 71, 53
1, 150228, Control_c, 0, 64, 77
1, 150230, Poly_aftertouch_c, 0, 57, 0
1, 150232, Note_on_c, 0, 52, 23
1, 150239, Note_on_c, 0, 64, 47
1, 150243, Control_c, 0, 64, 68
1, 150258, Control_c, 0, 64, 0
1, 150347, Control_c, 0, 64, 43
1, 150362, Control_c, 0, 64, 65
1, 150377, Control_c, 0, 64, 70
1, 150392, Control_c, 0, 64, 74
1, 150407, Control_c, 0, 64, 77
1, 150421, Control_c, 0, 64, 78
1, 150422, Note_off_c, 0, 69, 60
1, 150436, Control_c, 0, 64, 79
1, 150450, Control_c, 0, 64, 80
1, 150463, Note_off_c, 0, 52, 42
1, 150465, Control_c, 0, 64, 81
1, 150480, Control_c, 0, 64, 81
1, 150495, Control_c, 0, 64, 82
1, 150500, Note_off_c, 0, 64, 56
1, 150509, Control_c, 0, 64, 82
1, 150554, Control_c, 0, 64, 83
1, 150556, Note_off_c, 0, 60, 30
1, 150743, Note_on_c, 0, 52, 23
1, 150776, Control_c, 0, 64, 82
1, 150791, Control_c, 0, 64, 79
1, 150813, Control_c, 0, 64, 75
1, 150828, Control_c, 0, 64, 66
1, 150842, Note_on_c, 0, 71, 65
1, 150842, Control_c, 0, 64, 16
1, 150854, Note_on_c, 0, 69, 45
1, 150857, Control_c, 0, 64, 0
1, 150863, Note_on_c, 0, 62, 40
1, 150867, Note_on_c, 0, 64, 39
1, 151021, Control_c, 0, 64, 56
1, 151035, Control_c, 0, 64, 66
1, 151050, Control_c, 0, 64, 69
1, 151065, Control_c, 0, 64, 71
1, 151080, Control_c, 0, 64, 73
1, 151095, Control_c, 0, 64, 75
1, 151110, Control_c, 0, 64, 77
1, 151125, Control_c, 0, 64, 78
1, 151140, Control_c, 0, 64, 79
1, 151155, Control_c, 0, 64, 79
1, 151160, Note_off_c, 0, 69, 50
1, 151170, Control_c, 0, 64, 80
1, 151182, Note_off_c, 0, 52, 42
1, 151185, Control_c, 0, 64, 80
1, 151199, Control_c, 0, 64, 81
1, 151214, Control_c, 0, 64, 81
1, 151354, Note_off_c, 0, 64, 24
1, 151375, Note_off_c, 0, 62, 22
1, 151450, Control_c, 0, 64, 81
1, 151465, Control_c, 0, 64, 80
1, 151477, Note_on_c, 0, 68, 51
1, 151480, Control_c, 0, 64, 74
1, 151485, Note_on_c, 0, 62, 15
1, 151492, Note_on_c, 0, 52, 32
1, 151495, Control_c, 0, 64, 66
1, 151500, Poly_aftertouch_c, 0, 64, 127
1, 151510, Control_c, 0, 64, 0
1, 151592, Control_c, 0, 64, 60
1, 151606, Control_c, 0, 64, 67
1, 151621, Control_c, 0, 64, 71
1, 151636, Control_c, 0, 64, 74
1, 151651, Control_c, 0, 64, 76
1, 151664, Note_off_c, 0, 62, 40
1, 151665, Control_c, 0, 64, 77
1, 151680, Control_c, 0, 64, 78
1, 151691, Note_off_c, 0, 71, 54
1, 151703, Poly_aftertouch_c, 0, 64, 0
1, 151710, Control_c, 0, 64, 78
1, 151900, Note_on_c, 0, 69, 55
1, 151903, Control_c, 0, 64, 77
1, 151919, Control_c, 0, 64, 75
1, 151923, Note_on_c, 0, 45, 33
1, 151927, Note_off_c, 0, 68, 36
1, 151934, Control_c, 0, 64, 70
1, 151936, Note_on_c, 0, 60, 30
1, 151939, Note_on_c, 0, 64, 14
1, 151948, Control_c, 0, 64, 64
1, 151963, Control_c, 0, 64, 51
1, 151978, Control_c, 0, 64, 24
1, 151993, Control_c, 0, 64, 0
1, 152055, Note_off_c, 0, 52, 30
1, 152127, Control_c, 0, 64, 54
1, 152142, Control_c, 0, 64, 66
1, 152156, Control_c, 0, 64, 70
1, 152171, Control_c, 0, 64, 73
1, 152186, Control_c, 0, 64, 75
1, 152201, Control_c, 0, 64, 76
1, 152216, Control_c, 0, 64, 77
1, 152230, Control_c, 0, 64, 79
1, 152245, Control_c, 0, 64, 79
1, 152256, Note_off_c, 0, 64, 29
1, 152260, Control_c, 0, 64, 80
1, 152289, Control_c, 0, 64, 81
1, 152293, Note_off_c, 0, 45, 42
1, 152307, Note_off_c, 0, 60, 30
1, 152523, Note_on_c, 0, 45, 27
1, 152545, Note_on_c, 0, 60, 20
1, 152546, Note_on_c, 0, 64, 27
1, 152599, Note_off_c, 0, 64, 44
1, 152614, Note_off_c, 0, 60, 0
1, 152616, Note_off_c, 0, 69, 58
1, 152651, Poly_aftertouch_c, 0, 60, 127
1, 152746, Poly_aftertouch_c, 0, 60, 0
1, 152765, Note_off_c, 0, 45, 42
1, 153024, Control_c, 0, 64, 80
1, 153032, Note_on_c, 0, 72, 67
1, 153039, Control_c, 0, 64, 80
1, 153060, Control_c, 0, 64, 78
1, 153062, Note_on_c, 0, 42, 38
1, 153063, Note_on_c, 0, 63, 45
1, 153063, Note_on_c, 0, 69, 46
1, 153075, Control_c, 0, 64, 74
1, 153090, Control_c, 0, 64, 68
1, 153104, Control_c, 0, 64, 42
1, 153119, Control_c, 0, 64, 0
1, 153268, Control_c, 0, 64, 53
1, 153283, Control_c, 0, 64, 66
1, 153297, Control_c, 0, 64, 70
1, 153312, Control_c, 0, 64, 75
1, 153327, Control_c, 0, 64, 77
1, 153330, Note_off_c, 0, 42, 41
1, 153342, Control_c, 0, 64, 79
1, 153357, Control_c, 0, 64, 81
1, 153370, Note_off_c, 0, 63, 42
1, 153372, Control_c, 0, 64, 82
1, 153386, Control_c, 0, 64, 84
1, 153401, Control_c, 0, 64, 86
1, 153416, Control_c, 0, 64, 87
1, 153430, Control_c, 0, 64, 88
1, 153445, Control_c, 0, 64, 88
1, 153460, Control_c, 0, 64, 89
1, 153476, Control_c, 0, 64, 89
1, 153521, Control_c, 0, 64, 90
1, 153576, Note_on_c, 0, 42, 36
1, 153577, Note_on_c, 0, 63, 38
1, 153609, Control_c, 0, 64, 90
1, 153613, Note_off_c, 0, 63, 54
1, 153626, Note_off_c, 0, 69, 42
1, 153762, Note_off_c, 0, 42, 43
1, 153767, Note_on_c, 0, 62, 44
1, 153788, Note_off_c, 0, 72, 29
1, 153847, Note_on_c, 0, 67, 44
1, 153894, Note_on_c, 0, 43, 36
1, 153915, Note_on_c, 0, 72, 64
1, 153942, Control_c, 0, 64, 90
1, 153957, Control_c, 0, 64, 88
1, 153972, Control_c, 0, 64, 84
1, 153987, Note_on_c, 0, 70, 68
1, 153987, Control_c, 0, 64, 72
1, 154002, Control_c, 0, 64, 0
1, 154026, Note_off_c, 0, 72, 59
1, 154091, Control_c, 0, 64, 59
1, 154106, Control_c, 0, 64, 69
1, 154120, Control_c, 0, 64, 74
1, 154126, Note_off_c, 0, 67, 63
1, 154135, Control_c, 0, 64, 79
1, 154146, Note_off_c, 0, 70, 58
1, 154150, Control_c, 0, 64, 80
1, 154164, Control_c, 0, 64, 81
1, 154179, Control_c, 0, 64, 82
1, 154193, Control_c, 0, 64, 83
1, 154208, Control_c, 0, 64, 84
1, 154223, Control_c, 0, 64, 85
1, 154228, Note_off_c, 0, 62, 44
1, 154238, Control_c, 0, 64, 85
1, 154318, Note_on_c, 0, 69, 69
1, 154321, Note_off_c, 0, 43, 41
1, 154337, Note_on_c, 0, 45, 42
1, 154346, Note_on_c, 0, 66, 54
1, 154349, Note_on_c, 0, 60, 48
1, 154379, Note_off_c, 0, 60, 55
1, 154385, Note_off_c, 0, 66, 58
1, 154389, Note_off_c, 0, 69, 62
1, 154408, Note_off_c, 0, 45, 51
1, 154417, Control_c, 0, 64, 83
1, 154431, Control_c, 0, 64, 78
1, 154440, Note_on_c, 0, 67, 71
1, 154446, Note_on_c, 0, 62, 67
1, 154446, Control_c, 0, 64, 67
1, 154461, Control_c, 0, 64, 0
1, 154464, Note_on_c, 0, 46, 43
1, 154535, Control_c, 0, 64, 46
1, 154557, Control_c, 0, 64, 66
1, 154572, Control_c, 0, 64, 71
1, 154587, Control_c, 0, 64, 74
1, 154602, Control_c, 0, 64, 77
1, 154617, Control_c, 0, 64, 78
1, 154631, Control_c, 0, 64, 79
1, 154646, Control_c, 0, 64, 80
1, 154661, Control_c, 0, 64, 81
1, 154675, Control_c, 0, 64, 82
1, 154677, Note_off_c, 0, 62, 54
1, 154717, Note_off_c, 0, 67, 33
1, 154765, Control_c, 0, 64, 81
1, 154770, Note_on_c, 0, 69, 71
1, 154780, Control_c, 0, 64, 78
1, 154785, Note_on_c, 0, 58, 51
1, 154792, Note_on_c, 0, 64, 51
1, 154792, Note_off_c, 0, 46, 34
1, 154794, Control_c, 0, 64, 70
1, 154809, Control_c, 0, 64, 13
1, 154811, Note_on_c, 0, 48, 37
1, 154824, Control_c, 0, 64, 0
1, 154913, Control_c, 0, 64, 41
1, 154928, Control_c, 0, 64, 64
1, 154942, Control_c, 0, 64, 69
1, 154957, Control_c, 0, 64, 73
1, 154972, Control_c, 0, 64, 76
1, 154987, Control_c, 0, 64, 78
1, 155001, Control_c, 0, 64, 79
1, 155005, Note_off_c, 0, 64, 59
1, 155016, Control_c, 0, 64, 80
1, 155031, Control_c, 0, 64, 81
1, 155046, Control_c, 0, 64, 82
1, 155061, Control_c, 0, 64, 83
1, 155077, Control_c, 0, 64, 84
1, 155082, Note_off_c, 0, 58, 30
1, 155091, Control_c, 0, 64, 84
1, 155106, Control_c, 0, 64, 85
1, 155139, Note_off_c, 0, 48, 34
1, 155151, Control_c, 0, 64, 85
1, 155295, Note_on_c, 0, 64, 44
1, 155321, Control_c, 0, 64, 86
1, 155322, Note_on_c, 0, 36, 31
1, 155323, Note_on_c, 0, 58, 28
1, 155352, Poly_aftertouch_c, 0, 48, 127
1, 155371, Note_off_c, 0, 64, 53
1, 155401, Note_off_c, 0, 69, 45
1, 155426, Note_off_c, 0, 58, 32
1, 155427, Poly_aftertouch_c, 0, 48, 0
1, 155453, Note_off_c, 0, 36, 26
1, 155602, Control_c, 0, 64, 85
1, 155638, Note_on_c, 0, 65, 48
1, 155645, Note_on_c, 0, 57, 40
1, 155647, Control_c, 0, 64, 84
1, 155651, Note_on_c, 0, 41, 38
1, 155662, Control_c, 0, 64, 83
1, 155677, Control_c, 0, 64, 82
1, 155690, Note_on_c, 0, 48, 13
1, 155692, Control_c, 0, 64, 80
1, 155707, Control_c, 0, 64, 76
1, 155716, Note_off_c, 0, 57, 0
1, 155716, Note_on_c, 0, 57, 4
1, 155722, Control_c, 0, 64, 70
1, 155737, Control_c, 0, 64, 42
1, 155751, Control_c, 0, 64, 0
1, 155811, Note_off_c, 0, 48, 0
1, 155847, Poly_aftertouch_c, 0, 48, 127
1, 155871, Control_c, 0, 64, 57
1, 155886, Control_c, 0, 64, 67
1, 155901, Control_c, 0, 64, 72
1, 155915, Control_c, 0, 64, 75
1, 155930, Control_c, 0, 64, 77
1, 155945, Control_c, 0, 64, 78
1, 155956, Note_off_c, 0, 41, 50
1, 155960, Control_c, 0, 64, 79
1, 155975, Control_c, 0, 64, 80
1, 155989, Control_c, 0, 64, 82
1, 156004, Control_c, 0, 64, 82
1, 156012, Note_off_c, 0, 57, 33
1, 156019, Control_c, 0, 64, 83
1, 156056, Control_c, 0, 64, 84
1, 156115, Control_c, 0, 64, 84
1, 156175, Poly_aftertouch_c, 0, 48, 0
1, 156205, Note_on_c, 0, 41, 34
1, 156208, Note_off_c, 0, 65, 41
1, 156219, Note_on_c, 0, 57, 28
1, 156270, Note_off_c, 0, 57, 44
1, 156655, Note_off_c, 0, 41, 39
1, 156679, Control_c, 0, 64, 84
1, 156693, Control_c, 0, 64, 82
1, 156703, Note_on_c, 0, 72, 49
1, 156704, Note_on_c, 0, 63, 43
1, 156706, Note_on_c, 0, 42, 37
1, 156708, Control_c, 0, 64, 77
1, 156723, Control_c, 0, 64, 68
1, 156738, Note_on_c, 0, 69, 21
1, 156738, Control_c, 0, 64, 0
1, 156864, Control_c, 0, 64, 26
1, 156878, Control_c, 0, 64, 63
1, 156893, Control_c, 0, 64, 67
1, 156908, Control_c, 0, 64, 70
1, 156923, Control_c, 0, 64, 72
1, 156938, Control_c, 0, 64, 75
1, 156953, Control_c, 0, 64, 77
1, 156968, Control_c, 0, 64, 78
1, 156983, Control_c, 0, 64, 79
1, 156997, Control_c, 0, 64, 80
1, 157012, Control_c, 0, 64, 81
1, 157027, Control_c, 0, 64, 81
1, 157042, Control_c, 0, 64, 82
1, 157045, Note_off_c, 0, 42, 48
1, 157057, Control_c, 0, 64, 82
1, 157102, Note_off_c, 0, 63, 38
1, 157116, Control_c, 0, 64, 83
1, 157219, Control_c, 0, 64, 83
1, 157299, Note_on_c, 0, 63, 47
1, 157313, Note_on_c, 0, 42, 47
1, 157350, Note_off_c, 0, 63, 48
1, 157374, Note_off_c, 0, 69, 41
1, 157397, Control_c, 0, 64, 84
1, 157512, Note_off_c, 0, 42, 54
1, 157564, Note_off_c, 0, 72, 19
1, 157661, Note_on_c, 0, 43, 42
1, 157662, Note_on_c, 0, 62, 42
1, 157687, Control_c, 0, 64, 83
1, 157716, Control_c, 0, 64, 82
1, 157727, Note_on_c, 0, 67, 45
1, 157731, Control_c, 0, 64, 80
1, 157746, Control_c, 0, 64, 78
1, 157761, Control_c, 0, 64, 74
1, 157776, Control_c, 0, 64, 69
1, 157790, Control_c, 0, 64, 58
1, 157805, Control_c, 0, 64, 0
1, 157811, Note_on_c, 0, 72, 51
1, 157883, Note_on_c, 0, 70, 62
1, 157902, Note_off_c, 0, 72, 59
1, 157954, Control_c, 0, 64, 50
1, 157968, Control_c, 0, 64, 65
1, 157983, Control_c, 0, 64, 70
1, 157998, Control_c, 0, 64, 73
1, 158011, Note_off_c, 0, 67, 56
1, 158012, Control_c, 0, 64, 75
1, 158027, Control_c, 0, 64, 77
1, 158039, Note_off_c, 0, 70, 58
1, 158042, Control_c, 0, 64, 78
1, 158057, Control_c, 0, 64, 79
1, 158072, Control_c, 0, 64, 80
1, 158086, Control_c, 0, 64, 81
1, 158101, Control_c, 0, 64, 82
1, 158116, Control_c, 0, 64, 82
1, 158131, Control_c, 0, 64, 83
1, 158132, Note_off_c, 0, 62, 39
1, 158231, Note_on_c, 0, 45, 53
1, 158232, Note_on_c, 0, 69, 65
1, 158233, Note_off_c, 0, 43, 41
1, 158257, Note_on_c, 0, 66, 54
1, 158260, Note_on_c, 0, 60, 47
1, 158297, Note_off_c, 0, 69, 57
1, 158309, Note_off_c, 0, 60, 51
1, 158315, Note_off_c, 0, 66, 60
1, 158332, Control_c, 0, 64, 82
1, 158338, Note_off_c, 0, 45, 58
1, 158347, Control_c, 0, 64, 78
1, 158356, Note_on_c, 0, 46, 65
1, 158362, Control_c, 0, 64, 69
1, 158367, Note_on_c, 0, 67, 66
1, 158377, Control_c, 0, 64, 0
1, 158382, Note_on_c, 0, 62, 56
1, 158450, Control_c, 0, 64, 48
1, 158465, Control_c, 0, 64, 66
1, 158480, Control_c, 0, 64, 71
1, 158495, Control_c, 0, 64, 74
1, 158510, Control_c, 0, 64, 76
1, 158517, Note_off_c, 0, 67, 56
1, 158524, Control_c, 0, 64, 77
1, 158532, Note_off_c, 0, 62, 53
1, 158539, Control_c, 0, 64, 77
1, 158554, Control_c, 0, 64, 78
1, 158569, Control_c, 0, 64, 79
1, 158584, Control_c, 0, 64, 79
1, 158598, Control_c, 0, 64, 80
1, 158613, Control_c, 0, 64, 80
1, 158689, Note_off_c, 0, 46, 30
1, 158706, Note_on_c, 0, 69, 60
1, 158707, Note_on_c, 0, 48, 64
1, 158717, Control_c, 0, 64, 80
1, 158722, Note_on_c, 0, 64, 50
1, 158727, Note_on_c, 0, 58, 36
1, 158732, Control_c, 0, 64, 76
1, 158747, Control_c, 0, 64, 69
1, 158762, Control_c, 0, 64, 0
1, 158850, Control_c, 0, 64, 26
1, 158865, Control_c, 0, 64, 63
1, 158880, Control_c, 0, 64, 67
1, 158895, Control_c, 0, 64, 70
1, 158898, Note_off_c, 0, 69, 52
1, 158909, Control_c, 0, 64, 72
1, 158924, Control_c, 0, 64, 74
1, 158939, Control_c, 0, 64, 77
1, 158954, Control_c, 0, 64, 79
1, 158969, Control_c, 0, 64, 79
1, 158983, Control_c, 0, 64, 80
1, 158992, Note_off_c, 0, 64, 52
1, 158998, Control_c, 0, 64, 80
1, 159002, Note_off_c, 0, 48, 53
1, 159013, Note_off_c, 0, 58, 33
1, 159013, Control_c, 0, 64, 81
1, 159028, Control_c, 0, 64, 81
1, 159065, Control_c, 0, 64, 82
1, 159111, Control_c, 0, 64, 82
1, 159141, Control_c, 0, 64, 83
1, 159185, Control_c, 0, 64, 83
1, 159233, Note_on_c, 0, 48, 61
1, 159265, Note_on_c, 0, 58, 40
1, 159265, Note_on_c, 0, 64, 36
1, 159320, Note_off_c, 0, 64, 43
1, 159337, Note_off_c, 0, 58, 0
1, 159364, Note_off_c, 0, 48, 57
1, 159410, Poly_aftertouch_c, 0, 58, 0
1, 159607, Note_on_c, 0, 48, 66
1, 159611, Note_on_c, 0, 66, 52
1, 159625, Note_on_c, 0, 57, 35
1, 159642, Note_on_c, 0, 63, 33
1, 159643, Control_c, 0, 64, 83
1, 159672, Control_c, 0, 64, 82
1, 159687, Control_c, 0, 64, 79
1, 159702, Control_c, 0, 64, 75
1, 159717, Control_c, 0, 64, 65
1, 159731, Control_c, 0, 64, 0
1, 159828, Control_c, 0, 64, 39
1, 159843, Control_c, 0, 64, 63
1, 159858, Control_c, 0, 64, 66
1, 159874, Control_c, 0, 64, 67
1, 159888, Control_c, 0, 64, 68
1, 159903, Control_c, 0, 64, 68
1, 159918, Control_c, 0, 64, 70
1, 159933, Control_c, 0, 64, 71
1, 159948, Control_c, 0, 64, 72
1, 159979, Note_on_c, 0, 46, 65
1, 160007, Control_c, 0, 64, 71
1, 160021, Control_c, 0, 64, 70
1, 160032, Note_off_c, 0, 48, 57
1, 160036, Control_c, 0, 64, 67
1, 160051, Control_c, 0, 64, 63
1, 160066, Control_c, 0, 64, 29
1, 160081, Control_c, 0, 64, 0
1, 160083, Note_off_c, 0, 46, 64
1, 160104, Note_on_c, 0, 45, 60
1, 160199, Control_c, 0, 64, 61
1, 160214, Control_c, 0, 64, 68
1, 160229, Control_c, 0, 64, 71
1, 160244, Control_c, 0, 64, 73
1, 160259, Control_c, 0, 64, 75
1, 160274, Control_c, 0, 64, 77
1, 160288, Control_c, 0, 64, 78
1, 160303, Control_c, 0, 64, 79
1, 160318, Control_c, 0, 64, 80
1, 160333, Control_c, 0, 64, 80
1, 160390, Note_off_c, 0, 45, 39
1, 160419, Note_on_c, 0, 51, 59
1, 160436, Control_c, 0, 64, 79
1, 160438, Note_on_c, 0, 60, 40
1, 160442, Note_off_c, 0, 63, 42
1, 160451, Control_c, 0, 64, 76
1, 160466, Control_c, 0, 64, 69
1, 160480, Control_c, 0, 64, 18
1, 160495, Control_c, 0, 64, 0
1, 160577, Control_c, 0, 64, 44
1, 160592, Control_c, 0, 64, 65
1, 160607, Control_c, 0, 64, 69
1, 160621, Control_c, 0, 64, 73
1, 160636, Control_c, 0, 64, 76
1, 160651, Control_c, 0, 64, 77
1, 160667, Control_c, 0, 64, 78
1, 160682, Control_c, 0, 64, 79
1, 160697, Control_c, 0, 64, 80
1, 160711, Control_c, 0, 64, 81
1, 160726, Control_c, 0, 64, 81
1, 160729, Note_off_c, 0, 51, 60
1, 160756, Control_c, 0, 64, 82
1, 160771, Control_c, 0, 64, 82
1, 160785, Control_c, 0, 64, 83
1, 160815, Control_c, 0, 64, 83
1, 160830, Control_c, 0, 64, 84
1, 160913, Note_off_c, 0, 57, 39
1, 160958, Note_on_c, 0, 51, 59
1, 160983, Note_off_c, 0, 66, 33
1, 161236, Note_on_c, 0, 48, 59
1, 161243, Control_c, 0, 64, 83
1, 161245, Note_on_c, 0, 66, 50
1, 161254, Note_on_c, 0, 57, 38
1, 161258, Control_c, 0, 64, 81
1, 161259, Note_off_c, 0, 60, 33
1, 161260, Note_on_c, 0, 63, 38
1, 161273, Control_c, 0, 64, 76
1, 161296, Control_c, 0, 64, 70
1, 161299, Note_off_c, 0, 51, 37
1, 161310, Control_c, 0, 64, 57
1, 161325, Control_c, 0, 64, 0
1, 161443, Control_c, 0, 64, 47
1, 161459, Control_c, 0, 64, 64
1, 161474, Control_c, 0, 64, 67
1, 161489, Control_c, 0, 64, 69
1, 161504, Control_c, 0, 64, 70
1, 161519, Control_c, 0, 64, 71
1, 161533, Control_c, 0, 64, 73
1, 161548, Control_c, 0, 64, 75
1, 161563, Control_c, 0, 64, 76
1, 161629, Note_on_c, 0, 46, 61
1, 161653, Control_c, 0, 64, 75
1, 161667, Control_c, 0, 64, 73
1, 161682, Control_c, 0, 64, 69
1, 161694, Note_off_c, 0, 48, 53
1, 161697, Control_c, 0, 64, 61
1, 161712, Control_c, 0, 64, 0
1, 161775, Note_on_c, 0, 45, 55
1, 161791, Note_off_c, 0, 46, 56
1, 161949, Control_c, 0, 64, 52
1, 161964, Control_c, 0, 64, 65
1, 161979, Control_c, 0, 64, 68
1, 161993, Control_c, 0, 64, 69
1, 162008, Control_c, 0, 64, 70
1, 162023, Control_c, 0, 64, 71
1, 162045, Control_c, 0, 64, 71
1, 162104, Control_c, 0, 64, 71
1, 162119, Note_on_c, 0, 51, 51
1, 162119, Control_c, 0, 64, 69
1, 162122, Note_on_c, 0, 60, 31
1, 162134, Control_c, 0, 64, 66
1, 162143, Note_off_c, 0, 63, 39
1, 162148, Control_c, 0, 64, 59
1, 162163, Control_c, 0, 64, 0
1, 162167, Note_off_c, 0, 45, 51
1, 162312, Control_c, 0, 64, 24
1, 162327, Control_c, 0, 64, 55
1, 162333, Note_off_c, 0, 66, 37
1, 162342, Control_c, 0, 64, 62
1, 162357, Control_c, 0, 64, 65
1, 162372, Control_c, 0, 64, 68
1, 162387, Control_c, 0, 64, 72
1, 162402, Control_c, 0, 64, 76
1, 162416, Control_c, 0, 64, 79
1, 162431, Control_c, 0, 64, 79
1, 162446, Control_c, 0, 64, 80
1, 162461, Control_c, 0, 64, 81
1, 162476, Control_c, 0, 64, 81
1, 162505, Control_c, 0, 64, 82
1, 162514, Note_off_c, 0, 51, 57
1, 162535, Control_c, 0, 64, 82
1, 162734, Note_off_c, 0, 57, 43
1, 162746, Note_on_c, 0, 51, 51
1, 162947, Note_off_c, 0, 60, 36
1, 163120, Control_c, 0, 64, 82
1, 163135, Control_c, 0, 64, 81
1, 163150, Control_c, 0, 64, 79
1, 163155, Note_on_c, 0, 48, 51
1, 163163, Note_off_c, 0, 51, 49
1, 163165, Control_c, 0, 64, 76
1, 163172, Note_on_c, 0, 66, 47
1, 163180, Control_c, 0, 64, 71
1, 163186, Note_on_c, 0, 63, 23
1, 163192, Note_on_c, 0, 56, 36
1, 163195, Control_c, 0, 64, 64
1, 163210, Control_c, 0, 64, 0
1, 163476, Control_c, 0, 64, 52
1, 163491, Control_c, 0, 64, 63
1, 163505, Control_c, 0, 64, 64
1, 163520, Control_c, 0, 64, 64
1, 163543, Control_c, 0, 64, 65
1, 163558, Control_c, 0, 64, 67
1, 163573, Control_c, 0, 64, 69
1, 163587, Control_c, 0, 64, 70
1, 163602, Control_c, 0, 64, 71
1, 163617, Control_c, 0, 64, 72
1, 163727, Note_on_c, 0, 46, 59
1, 163765, Control_c, 0, 64, 71
1, 163776, Note_off_c, 0, 48, 36
1, 163780, Control_c, 0, 64, 71
1, 163794, Control_c, 0, 64, 70
1, 163809, Control_c, 0, 64, 68
1, 163824, Control_c, 0, 64, 66
1, 163839, Control_c, 0, 64, 62
1, 163854, Control_c, 0, 64, 58
1, 163869, Control_c, 0, 64, 54
1, 163884, Control_c, 0, 64, 49
1, 163899, Control_c, 0, 64, 29
1, 163913, Note_on_c, 0, 44, 57
1, 163914, Control_c, 0, 64, 0
1, 163925, Note_off_c, 0, 46, 52
1, 164047, Control_c, 0, 64, 46
1, 164062, Control_c, 0, 64, 64
1, 164068, Note_off_c, 0, 56, 39
1, 164077, Control_c, 0, 64, 68
1, 164092, Control_c, 0, 64, 71
1, 164107, Control_c, 0, 64, 74
1, 164122, Control_c, 0, 64, 77
1, 164136, Control_c, 0, 64, 79
1, 164151, Control_c, 0, 64, 80
1, 164166, Control_c, 0, 64, 80
1, 164180, Control_c, 0, 64, 81
1, 164195, Control_c, 0, 64, 81
1, 164210, Control_c, 0, 64, 82
1, 164240, Control_c, 0, 64, 82
1, 164292, Control_c, 0, 64, 83
1, 164608, Note_on_c, 0, 58, 58
1, 164621, Note_on_c, 0, 60, 31
1, 164826, Poly_aftertouch_c, 0, 46, 127
1, 164855, Control_c, 0, 64, 83
1, 164896, Note_off_c, 0, 63, 19
1, 164899, Control_c, 0, 64, 84
1, 164914, Control_c, 0, 64, 84
1, 164918, Poly_aftertouch_c, 0, 46, 0
1, 164929, Control_c, 0, 64, 85
1, 164944, Control_c, 0, 64, 85
1, 164958, Control_c, 0, 64, 86
1, 164973, Control_c, 0, 64, 87
1, 165002, Control_c, 0, 64, 87
1, 165017, Control_c, 0, 64, 88
1, 165040, Control_c, 0, 64, 88
1, 165040, Note_off_c, 0, 58, 37
1, 165070, Control_c, 0, 64, 89
1, 165099, Control_c, 0, 64, 89
1, 165170, Note_on_c, 0, 58, 68
1, 165173, Note_off_c, 0, 60, 51
1, 165173, Control_c, 0, 64, 90
1, 165321, Note_off_c, 0, 58, 37
1, 165444, Note_on_c, 0, 58, 63
1, 165454, Note_on_c, 0, 61, 52
1, 165648, Note_off_c, 0, 58, 59
1, 165689, Note_off_c, 0, 66, 57
1, 165919, Note_on_c, 0, 65, 72
1, 165922, Note_off_c, 0, 61, 59
1, 165925, Note_on_c, 0, 56, 50
1, 165999, Note_off_c, 0, 56, 58
1, 166041, Control_c, 0, 64, 89
1, 166071, Control_c, 0, 64, 89
1, 166086, Control_c, 0, 64, 88
1, 166100, Control_c, 0, 64, 88
1, 166115, Control_c, 0, 64, 87
1, 166130, Control_c, 0, 64, 87
1, 166145, Control_c, 0, 64, 86
1, 166159, Control_c, 0, 64, 85
1, 166174, Control_c, 0, 64, 81
1, 166189, Control_c, 0, 64, 75
1, 166196, Note_on_c, 0, 70, 71
1, 166204, Control_c, 0, 64, 66
1, 166212, Note_on_c, 0, 63, 47
1, 166217, Note_off_c, 0, 65, 63
1, 166219, Note_on_c, 0, 60, 40
1, 166219, Control_c, 0, 64, 0
1, 166229, Note_on_c, 0, 54, 35
1, 166397, Control_c, 0, 64, 61
1, 166412, Control_c, 0, 64, 68
1, 166427, Control_c, 0, 64, 71
1, 166442, Control_c, 0, 64, 75
1, 166456, Control_c, 0, 64, 77
1, 166458, Note_off_c, 0, 70, 57
1, 166471, Control_c, 0, 64, 79
1, 166486, Control_c, 0, 64, 80
1, 166501, Control_c, 0, 64, 80
1, 166507, Note_off_c, 0, 54, 40
1, 166516, Control_c, 0, 64, 81
1, 166538, Control_c, 0, 64, 81
1, 166568, Control_c, 0, 64, 82
1, 166672, Note_on_c, 0, 70, 73
1, 166678, Note_on_c, 0, 54, 32
1, 166688, Note_off_c, 0, 60, 60
1, 166760, Control_c, 0, 64, 82
1, 166801, Note_off_c, 0, 54, 39
1, 166827, Note_off_c, 0, 70, 36
1, 166938, Control_c, 0, 64, 81
1, 166950, Note_on_c, 0, 54, 38
1, 166952, Note_on_c, 0, 70, 60
1, 166953, Control_c, 0, 64, 78
1, 166965, Note_on_c, 0, 61, 50
1, 166968, Control_c, 0, 64, 70
1, 166982, Control_c, 0, 64, 0
1, 167010, Note_off_c, 0, 63, 41
1, 167087, Control_c, 0, 64, 33
1, 167102, Control_c, 0, 64, 60
1, 167117, Control_c, 0, 64, 65
1, 167132, Control_c, 0, 64, 67
1, 167146, Control_c, 0, 64, 69
1, 167161, Control_c, 0, 64, 71
1, 167176, Control_c, 0, 64, 73
1, 167191, Control_c, 0, 64, 75
1, 167205, Control_c, 0, 64, 76
1, 167220, Control_c, 0, 64, 77
1, 167250, Control_c, 0, 64, 77
1, 167265, Control_c, 0, 64, 78
1, 167302, Control_c, 0, 64, 78
1, 167417, Note_on_c, 0, 53, 64
1, 167420, Control_c, 0, 64, 78
1, 167423, Note_on_c, 0, 68, 62
1, 167435, Control_c, 0, 64, 74
1, 167439, Note_off_c, 0, 54, 32
1, 167450, Control_c, 0, 64, 66
1, 167460, Note_off_c, 0, 70, 38
1, 167465, Control_c, 0, 64, 0
1, 167489, Note_off_c, 0, 61, 37
1, 167553, Control_c, 0, 64, 58
1, 167568, Control_c, 0, 64, 66
1, 167583, Control_c, 0, 64, 67
1, 167598, Control_c, 0, 64, 68
1, 167612, Control_c, 0, 64, 69
1, 167627, Control_c, 0, 64, 70
1, 167642, Control_c, 0, 64, 72
1, 167657, Control_c, 0, 64, 73
1, 167717, Control_c, 0, 64, 73
1, 167732, Control_c, 0, 64, 71
1, 167736, Note_off_c, 0, 68, 54
1, 167744, Note_on_c, 0, 58, 65
1, 167745, Note_on_c, 0, 66, 49
1, 167746, Control_c, 0, 64, 65
1, 167761, Control_c, 0, 64, 0
1, 167770, Note_on_c, 0, 60, 34
1, 167776, Note_off_c, 0, 53, 64
1, 167881, Control_c, 0, 64, 32
1, 167895, Control_c, 0, 64, 63
1, 167910, Control_c, 0, 64, 67
1, 167925, Control_c, 0, 64, 70
1, 167940, Control_c, 0, 64, 73
1, 167955, Control_c, 0, 64, 75
1, 167969, Control_c, 0, 64, 77
1, 167984, Control_c, 0, 64, 79
1, 167999, Control_c, 0, 64, 79
1, 168003, Note_off_c, 0, 66, 37
1, 168014, Control_c, 0, 64, 80
1, 168036, Control_c, 0, 64, 80
1, 168051, Control_c, 0, 64, 81
1, 168066, Control_c, 0, 64, 81
1, 168074, Note_off_c, 0, 58, 59
1, 168080, Control_c, 0, 64, 82
1, 168230, Note_on_c, 0, 58, 59
1, 168235, Note_on_c, 0, 66, 52
1, 168292, Note_off_c, 0, 66, 57
1, 168356, Note_off_c, 0, 58, 41
1, 168451, Note_off_c, 0, 60, 27
1, 168496, Control_c, 0, 64, 81
1, 168505, Note_on_c, 0, 58, 58
1, 168510, Control_c, 0, 64, 79
1, 168511, Note_on_c, 0, 66, 51
1, 168525, Control_c, 0, 64, 71
1, 168527, Note_on_c, 0, 61, 43
1, 168540, Control_c, 0, 64, 50
1, 168554, Control_c, 0, 64, 0
1, 168629, Control_c, 0, 64, 58
1, 168644, Control_c, 0, 64, 65
1, 168659, Control_c, 0, 64, 67
1, 168674, Control_c, 0, 64, 69
1, 168689, Control_c, 0, 64, 71
1, 168704, Control_c, 0, 64, 74
1, 168712, Note_off_c, 0, 66, 56
1, 168718, Control_c, 0, 64, 76
1, 168733, Note_off_c, 0, 58, 56
1, 168733, Control_c, 0, 64, 77
1, 168748, Control_c, 0, 64, 77
1, 168763, Control_c, 0, 64, 78
1, 168815, Control_c, 0, 64, 78
1, 168830, Control_c, 0, 64, 79
1, 168963, Control_c, 0, 64, 79
1, 168966, Note_off_c, 0, 61, 60
1, 168971, Note_on_c, 0, 65, 69
1, 168994, Note_on_c, 0, 56, 46
1, 169064, Note_off_c, 0, 56, 54
1, 169284, Note_on_c, 0, 70, 66
1, 169289, Control_c, 0, 64, 78
1, 169296, Note_off_c, 0, 65, 58
1, 169304, Control_c, 0, 64, 74
1, 169309, Note_on_c, 0, 60, 44
1, 169311, Note_on_c, 0, 63, 45
1, 169316, Note_on_c, 0, 54, 43
1, 169319, Control_c, 0, 64, 67
1, 169333, Control_c, 0, 64, 0
1, 169468, Control_c, 0, 64, 61
1, 169482, Control_c, 0, 64, 66
1, 169497, Control_c, 0, 64, 68
1, 169512, Control_c, 0, 64, 69
1, 169535, Control_c, 0, 64, 70
1, 169549, Control_c, 0, 64, 73
1, 169564, Control_c, 0, 64, 75
1, 169574, Note_off_c, 0, 70, 51
1, 169579, Control_c, 0, 64, 77
1, 169594, Control_c, 0, 64, 78
1, 169608, Control_c, 0, 64, 78
1, 169623, Control_c, 0, 64, 79
1, 169651, Note_off_c, 0, 54, 40
1, 169653, Control_c, 0, 64, 79
1, 169668, Control_c, 0, 64, 80
1, 169682, Control_c, 0, 64, 80
1, 169839, Note_on_c, 0, 70, 62
1, 169857, Note_on_c, 0, 54, 41
1, 169860, Control_c, 0, 64, 81
1, 169956, Note_off_c, 0, 54, 35
1, 170030, Note_off_c, 0, 60, 37
1, 170036, Note_off_c, 0, 70, 31
1, 170245, Note_on_c, 0, 70, 61
1, 170246, Control_c, 0, 64, 80
1, 170251, Note_on_c, 0, 62, 44
1, 170257, Note_on_c, 0, 54, 43
1, 170261, Control_c, 0, 64, 79
1, 170263, Note_on_c, 0, 59, 27
1, 170280, Note_off_c, 0, 63, 42
1, 170283, Control_c, 0, 64, 76
1, 170298, Control_c, 0, 64, 70
1, 170313, Control_c, 0, 64, 60
1, 170328, Control_c, 0, 64, 0
1, 170461, Control_c, 0, 64, 58
1, 170476, Control_c, 0, 64, 65
1, 170491, Control_c, 0, 64, 67
1, 170505, Control_c, 0, 64, 69
1, 170520, Control_c, 0, 64, 70
1, 170535, Control_c, 0, 64, 72
1, 170550, Control_c, 0, 64, 74
1, 170565, Control_c, 0, 64, 76
1, 170579, Control_c, 0, 64, 77
1, 170594, Control_c, 0, 64, 77
1, 170609, Control_c, 0, 64, 78
1, 170638, Control_c, 0, 64, 78
1, 170668, Control_c, 0, 64, 79
1, 170890, Control_c, 0, 64, 78
1, 170905, Control_c, 0, 64, 74
1, 170920, Note_on_c, 0, 68, 54
1, 170920, Control_c, 0, 64, 66
1, 170927, Note_on_c, 0, 53, 39
1, 170933, Note_off_c, 0, 54, 36
1, 170935, Control_c, 0, 64, 0
1, 170950, Note_off_c, 0, 70, 38
1, 171031, Control_c, 0, 64, 46
1, 171046, Control_c, 0, 64, 65
1, 171061, Control_c, 0, 64, 69
1, 171076, Control_c, 0, 64, 73
1, 171091, Control_c, 0, 64, 75
1, 171106, Control_c, 0, 64, 77
1, 171121, Note_off_c, 0, 62, 40
1, 171121, Control_c, 0, 64, 78
1, 171136, Control_c, 0, 64, 78
1, 171148, Note_off_c, 0, 59, 39
1, 171151, Control_c, 0, 64, 79
1, 171158, Note_off_c, 0, 44, 36
1, 171166, Control_c, 0, 64, 80
1, 171181, Control_c, 0, 64, 80
1, 171213, Note_off_c, 0, 53, 42
1, 171225, Control_c, 0, 64, 81
1, 171324, Note_on_c, 0, 59, 64
1, 171360, Note_on_c, 0, 62, 35
1, 171464, Note_off_c, 0, 59, 54
1, 171699, Control_c, 0, 64, 81
1, 171799, Note_on_c, 0, 59, 65
1, 171825, Control_c, 0, 67, 122
1, 171840, Control_c, 0, 67, 113
1, 171856, Control_c, 0, 67, 104
1, 171870, Control_c, 0, 67, 95
1, 171885, Control_c, 0, 67, 86
1, 171900, Control_c, 0, 67, 78
1, 171915, Control_c, 0, 67, 68
1, 171930, Control_c, 0, 67, 60
1, 171944, Control_c, 0, 67, 52
1, 171959, Control_c, 0, 67, 45
1, 171974, Control_c, 0, 67, 39
1, 171989, Control_c, 0, 67, 34
1, 172003, Control_c, 0, 67, 29
1, 172018, Control_c, 0, 67, 26
1, 172033, Control_c, 0, 67, 23
1, 172048, Control_c, 0, 67, 22
1, 172063, Control_c, 0, 67, 20
1, 172078, Note_on_c, 0, 56, 64
1, 172078, Control_c, 0, 67, 20
1, 172086, Note_on_c, 0, 65, 55
1, 172093, Control_c, 0, 64, 81
1, 172093, Control_c, 0, 67, 19
1, 172095, Note_on_c, 0, 71, 51
1, 172108, Control_c, 0, 64, 78
1, 172108, Control_c, 0, 67, 19
1, 172114, Note_off_c, 0, 68, 38
1, 172122, Note_off_c, 0, 59, 40
1, 172123, Control_c, 0, 64, 72
1, 172136, Control_c, 0, 64, 63
1, 172150, Control_c, 0, 64, 0
1, 172254, Control_c, 0, 64, 63
1, 172254, Control_c, 0, 67, 18
1, 172269, Control_c, 0, 64, 68
1, 172284, Control_c, 0, 64, 71
1, 172298, Control_c, 0, 64, 73
1, 172298, Control_c, 0, 67, 18
1, 172313, Control_c, 0, 64, 74
1, 172313, Control_c, 0, 67, 17
1, 172328, Control_c, 0, 64, 75
1, 172343, Control_c, 0, 64, 76
1, 172343, Control_c, 0, 67, 16
1, 172358, Control_c, 0, 64, 76
1, 172358, Control_c, 0, 67, 14
1, 172373, Control_c, 0, 67, 13
1, 172394, Note_on_c, 0, 54, 69
1, 172417, Control_c, 0, 67, 12
1, 172462, Control_c, 0, 67, 11
1, 172476, Control_c, 0, 64, 75
1, 172491, Control_c, 0, 64, 73
1, 172506, Control_c, 0, 64, 68
1, 172507, Note_off_c, 0, 54, 59
1, 172519, Note_on_c, 0, 53, 71
1, 172528, Control_c, 0, 64, 51
1, 172543, Control_c, 0, 64, 0
1, 172585, Note_off_c, 0, 62, 35
1, 172647, Control_c, 0, 64, 59
1, 172662, Control_c, 0, 64, 67
1, 172677, Control_c, 0, 64, 71
1, 172692, Control_c, 0, 64, 73
1, 172692, Control_c, 0, 67, 11
1, 172707, Control_c, 0, 64, 74
1, 172722, Control_c, 0, 64, 74
1, 172737, Control_c, 0, 64, 75
1, 172737, Control_c, 0, 67, 10
1, 172804, Note_on_c, 0, 59, 64
1, 172808, Note_on_c, 0, 68, 48
1, 172811, Control_c, 0, 64, 73
1, 172818, Note_off_c, 0, 56, 60
1, 172822, Note_on_c, 0, 62, 41
1, 172825, Control_c, 0, 64, 68
1, 172840, Control_c, 0, 64, 53
1, 172842, Note_off_c, 0, 65, 34
1, 172855, Control_c, 0, 64, 0
1, 172878, Note_off_c, 0, 53, 57
1, 172910, Note_off_c, 0, 71, 29
1, 172944, Control_c, 0, 64, 41
1, 172959, Control_c, 0, 64, 63
1, 172973, Control_c, 0, 64, 67
1, 172988, Control_c, 0, 64, 70
1, 173003, Control_c, 0, 64, 72
1, 173017, Control_c, 0, 64, 74
1, 173032, Control_c, 0, 64, 76
1, 173047, Control_c, 0, 64, 77
1, 173047, Control_c, 0, 67, 10
1, 173062, Control_c, 0, 64, 78
1, 173077, Control_c, 0, 64, 79
1, 173082, Note_off_c, 0, 59, 53
1, 173091, Control_c, 0, 64, 79
1, 173106, Control_c, 0, 64, 80
1, 173121, Control_c, 0, 64, 80
1, 173121, Control_c, 0, 67, 9
1, 173136, Control_c, 0, 64, 81
1, 173166, Control_c, 0, 64, 81
1, 173282, Note_on_c, 0, 59, 69
1, 173351, Control_c, 0, 67, 8
1, 173366, Control_c, 0, 67, 0
1, 173559, Control_c, 0, 64, 81
1, 173560, Note_on_c, 0, 56, 68
1, 173571, Note_off_c, 0, 59, 57
1, 173573, Note_on_c, 0, 65, 45
1, 173574, Control_c, 0, 64, 79
1, 173576, Note_on_c, 0, 71, 43
1, 173589, Control_c, 0, 64, 75
1, 173604, Control_c, 0, 64, 69
1, 173619, Control_c, 0, 64, 46
1, 173634, Control_c, 0, 64, 0
1, 173653, Note_off_c, 0, 68, 29
1, 173737, Control_c, 0, 64, 41
1, 173752, Control_c, 0, 64, 63
1, 173766, Control_c, 0, 64, 67
1, 173778, Note_off_c, 0, 62, 35
1, 173781, Control_c, 0, 64, 69
1, 173796, Control_c, 0, 64, 71
1, 173811, Control_c, 0, 64, 73
1, 173826, Control_c, 0, 64, 75
1, 173840, Control_c, 0, 64, 76
1, 173855, Control_c, 0, 64, 77
1, 173870, Control_c, 0, 64, 78
1, 173900, Control_c, 0, 64, 78
1, 173959, Control_c, 0, 64, 79
1, 174037, Note_on_c, 0, 49, 73
1, 174091, Note_off_c, 0, 56, 58
1, 174412, Control_c, 0, 64, 77
1, 174422, Note_on_c, 0, 63, 74
1, 174427, Control_c, 0, 64, 73
1, 174442, Control_c, 0, 64, 65
1, 174457, Control_c, 0, 64, 0
1, 174560, Control_c, 0, 64, 59
1, 174575, Control_c, 0, 64, 65
1, 174589, Control_c, 0, 64, 68
1, 174604, Control_c, 0, 64, 71
1, 174619, Control_c, 0, 64, 74
1, 174634, Control_c, 0, 64, 77
1, 174649, Control_c, 0, 64, 79
1, 174663, Control_c, 0, 64, 80
1, 174678, Control_c, 0, 64, 81
1, 174689, Note_off_c, 0, 63, 56
1, 174693, Control_c, 0, 64, 81
1, 174708, Control_c, 0, 64, 82
1, 174723, Control_c, 0, 64, 82
1, 174737, Control_c, 0, 64, 83
1, 174752, Control_c, 0, 64, 83
1, 174891, Note_off_c, 0, 65, 35
1, 174904, Note_on_c, 0, 63, 79
1, 174952, Control_c, 0, 64, 84
1, 175056, Note_off_c, 0, 63, 56
1, 175167, Note_on_c, 0, 63, 76
1, 175169, Note_on_c, 0, 66, 63
1, 175205, Control_c, 0, 64, 81
1, 175220, Control_c, 0, 64, 74
1, 175235, Control_c, 0, 64, 63
1, 175250, Control_c, 0, 64, 0
1, 175309, Control_c, 0, 64, 55
1, 175324, Control_c, 0, 64, 66
1, 175338, Control_c, 0, 64, 70
1, 175353, Control_c, 0, 64, 73
1, 175368, Control_c, 0, 64, 74
1, 175383, Control_c, 0, 64, 75
1, 175398, Control_c, 0, 64, 76
1, 175412, Note_off_c, 0, 63, 61
1, 175412, Control_c, 0, 64, 76
1, 175427, Control_c, 0, 64, 77
1, 175442, Control_c, 0, 64, 77
1, 175457, Control_c, 0, 64, 78
1, 175486, Control_c, 0, 64, 78
1, 175524, Control_c, 0, 64, 79
1, 175553, Control_c, 0, 64, 79
1, 175568, Control_c, 0, 64, 80
1, 175583, Control_c, 0, 64, 80
1, 175599, Note_off_c, 0, 71, 61
1, 175605, Note_on_c, 0, 70, 73
1, 175612, Control_c, 0, 64, 81
1, 175621, Note_on_c, 0, 61, 59
1, 175637, Note_off_c, 0, 66, 45
1, 175657, Control_c, 0, 64, 81
1, 175686, Control_c, 0, 64, 82
1, 175711, Note_off_c, 0, 61, 53
1, 175716, Control_c, 0, 64, 82
1, 175775, Control_c, 0, 64, 83
1, 175913, Note_on_c, 0, 75, 76
1, 175930, Note_on_c, 0, 68, 53
1, 175935, Note_on_c, 0, 65, 47
1, 175938, Note_on_c, 0, 59, 45
1, 175939, Control_c, 0, 64, 82
1, 175954, Control_c, 0, 64, 78
1, 175957, Note_off_c, 0, 70, 55
1, 175968, Control_c, 0, 64, 70
1, 175983, Control_c, 0, 64, 0
1, 176087, Control_c, 0, 64, 45
1, 176102, Control_c, 0, 64, 64
1, 176117, Control_c, 0, 64, 68
1, 176132, Control_c, 0, 64, 70
1, 176147, Control_c, 0, 64, 72
1, 176161, Control_c, 0, 64, 74
1, 176176, Control_c, 0, 64, 77
1, 176182, Note_off_c, 0, 75, 62
1, 176191, Control_c, 0, 64, 79
1, 176199, Note_off_c, 0, 59, 37
1, 176206, Control_c, 0, 64, 80
1, 176221, Control_c, 0, 64, 81
1, 176235, Control_c, 0, 64, 82
1, 176250, Control_c, 0, 64, 82
1, 176272, Control_c, 0, 64, 84
1, 176287, Control_c, 0, 64, 85
1, 176302, Control_c, 0, 64, 85
1, 176317, Control_c, 0, 64, 86
1, 176332, Control_c, 0, 64, 86
1, 176347, Control_c, 0, 64, 87
1, 176361, Control_c, 0, 64, 87
1, 176367, Note_on_c, 0, 75, 78
1, 176382, Note_on_c, 0, 59, 42
1, 176391, Control_c, 0, 64, 88
1, 176396, Note_off_c, 0, 65, 56
1, 176450, Control_c, 0, 64, 88
1, 176456, Note_off_c, 0, 59, 53
1, 176516, Note_off_c, 0, 75, 52
1, 176524, Control_c, 0, 64, 89
1, 176659, Note_on_c, 0, 75, 65
1, 176663, Note_on_c, 0, 66, 58
1, 176677, Note_on_c, 0, 59, 42
1, 176703, Control_c, 0, 64, 88
1, 176718, Control_c, 0, 64, 85
1, 176733, Control_c, 0, 64, 79
1, 176747, Control_c, 0, 64, 66
1, 176754, Note_off_c, 0, 68, 43
1, 176762, Control_c, 0, 64, 0
1, 176851, Control_c, 0, 64, 25
1, 176865, Control_c, 0, 64, 61
1, 176880, Control_c, 0, 64, 67
1, 176895, Control_c, 0, 64, 73
1, 176910, Control_c, 0, 64, 78
1, 176925, Control_c, 0, 64, 80
1, 176940, Control_c, 0, 64, 81
1, 176955, Control_c, 0, 64, 81
1, 176970, Control_c, 0, 64, 82
1, 176984, Control_c, 0, 64, 82
1, 176999, Control_c, 0, 64, 83
1, 177036, Control_c, 0, 64, 83
1, 177120, Note_off_c, 0, 59, 53
1, 177128, Note_on_c, 0, 58, 61
1, 177142, Note_on_c, 0, 73, 59
1, 177166, Note_off_c, 0, 75, 56
1, 177218, Note_off_c, 0, 66, 55
1, 177421, Control_c, 0, 64, 83
1, 177437, Control_c, 0, 64, 81
1, 177452, Control_c, 0, 64, 75
1, 177467, Control_c, 0, 64, 66
1, 177470, Note_off_c, 0, 73, 53
1, 177481, Control_c, 0, 64, 0
1, 177482, Note_off_c, 0, 58, 61
1, 177493, Note_on_c, 0, 71, 43
1, 177494, Note_on_c, 0, 65, 35
1, 177496, Note_on_c, 0, 63, 58
1, 177629, Control_c, 0, 64, 35
1, 177644, Control_c, 0, 64, 63
1, 177659, Control_c, 0, 64, 67
1, 177674, Control_c, 0, 64, 70
1, 177681, Note_off_c, 0, 71, 56
1, 177688, Control_c, 0, 64, 72
1, 177703, Control_c, 0, 64, 75
1, 177718, Control_c, 0, 64, 78
1, 177733, Control_c, 0, 64, 79
1, 177748, Control_c, 0, 64, 80
1, 177770, Control_c, 0, 64, 81
1, 177785, Control_c, 0, 64, 82
1, 177800, Control_c, 0, 64, 83
1, 177814, Control_c, 0, 64, 84
1, 177829, Control_c, 0, 64, 85
1, 177836, Note_off_c, 0, 63, 38
1, 177844, Control_c, 0, 64, 85
1, 177888, Control_c, 0, 64, 86
1, 177959, Note_on_c, 0, 63, 66
1, 177974, Note_on_c, 0, 71, 53
1, 178043, Note_off_c, 0, 71, 49
1, 178082, Note_off_c, 0, 65, 30
1, 178090, Note_off_c, 0, 63, 39
1, 178233, Note_on_c, 0, 63, 55
1, 178234, Note_on_c, 0, 66, 56
1, 178239, Note_on_c, 0, 71, 58
1, 178245, Control_c, 0, 64, 85
1, 178260, Control_c, 0, 64, 80
1, 178275, Control_c, 0, 64, 69
1, 178290, Control_c, 0, 64, 0
1, 178364, Control_c, 0, 64, 63
1, 178368, Note_off_c, 0, 66, 60
1, 178379, Control_c, 0, 64, 69
1, 178394, Control_c, 0, 64, 72
1, 178409, Control_c, 0, 64, 74
1, 178424, Control_c, 0, 64, 75
1, 178438, Control_c, 0, 64, 76
1, 178453, Control_c, 0, 64, 77
1, 178468, Control_c, 0, 64, 78
1, 178482, Note_off_c, 0, 63, 58
1, 178483, Control_c, 0, 64, 79
1, 178520, Control_c, 0, 64, 79
1, 178535, Control_c, 0, 64, 80
1, 178564, Control_c, 0, 64, 80
1, 178594, Control_c, 0, 64, 81
1, 178653, Control_c, 0, 64, 81
1, 178672, Note_on_c, 0, 70, 78
1, 178678, Note_on_c, 0, 61, 50
1, 178696, Note_off_c, 0, 71, 57
1, 178712, Control_c, 0, 64, 82
1, 178762, Note_off_c, 0, 61, 60
1, 178786, Control_c, 0, 64, 82
1, 178939, Note_on_c, 0, 75, 77
1, 178953, Note_on_c, 0, 65, 55
1, 178953, Note_on_c, 0, 68, 60
1, 178956, Note_on_c, 0, 59, 54
1, 178959, Note_off_c, 0, 70, 56
1, 178964, Control_c, 0, 64, 80
1, 178979, Control_c, 0, 64, 74
1, 178994, Control_c, 0, 64, 61
1, 179008, Control_c, 0, 64, 0
1, 179083, Control_c, 0, 64, 19
1, 179098, Control_c, 0, 64, 63
1, 179113, Control_c, 0, 64, 68
1, 179128, Control_c, 0, 64, 71
1, 179143, Control_c, 0, 64, 73
1, 179158, Control_c, 0, 64, 75
1, 179172, Control_c, 0, 64, 76
1, 179187, Control_c, 0, 64, 77
1, 179195, Note_off_c, 0, 59, 38
1, 179196, Note_off_c, 0, 75, 51
1, 179202, Control_c, 0, 64, 78
1, 179217, Control_c, 0, 64, 79
1, 179232, Control_c, 0, 64, 79
1, 179247, Control_c, 0, 64, 80
1, 179268, Control_c, 0, 64, 80
1, 179283, Control_c, 0, 64, 81
1, 179298, Control_c, 0, 64, 82
1, 179313, Control_c, 0, 64, 83
1, 179328, Control_c, 0, 64, 84
1, 179342, Control_c, 0, 64, 85
1, 179357, Control_c, 0, 64, 86
1, 179372, Control_c, 0, 64, 87
1, 179377, Note_on_c, 0, 75, 84
1, 179387, Control_c, 0, 64, 89
1, 179391, Note_on_c, 0, 59, 48
1, 179402, Control_c, 0, 64, 91
1, 179417, Control_c, 0, 64, 93
1, 179432, Control_c, 0, 64, 95
1, 179447, Control_c, 0, 64, 96
1, 179459, Note_off_c, 0, 59, 55
1, 179461, Control_c, 0, 64, 98
1, 179476, Note_off_c, 0, 65, 62
1, 179476, Control_c, 0, 64, 99
1, 179491, Control_c, 0, 64, 100
1, 179505, Control_c, 0, 64, 101
1, 179520, Control_c, 0, 64, 103
1, 179535, Control_c, 0, 64, 103
1, 179544, Note_off_c, 0, 75, 55
1, 179550, Control_c, 0, 64, 104
1, 179565, Control_c, 0, 64, 104
1, 179580, Control_c, 0, 64, 105
1, 179594, Control_c, 0, 64, 105
1, 179609, Control_c, 0, 64, 106
1, 179623, Control_c, 0, 64, 106
1, 179653, Control_c, 0, 64, 107
1, 179702, Note_on_c, 0, 59, 49
1, 179727, Control_c, 0, 64, 106
1, 179733, Note_on_c, 0, 75, 78
1, 179742, Control_c, 0, 64, 100
1, 179745, Note_on_c, 0, 67, 63
1, 179746, Note_on_c, 0, 64, 59
1, 179757, Control_c, 0, 64, 89
1, 179771, Note_off_c, 0, 68, 63
1, 179772, Control_c, 0, 64, 73
1, 179786, Control_c, 0, 64, 0
1, 179846, Control_c, 0, 64, 59
1, 179861, Control_c, 0, 64, 69
1, 179876, Control_c, 0, 64, 77
1, 179891, Control_c, 0, 64, 82
1, 179906, Control_c, 0, 64, 83
1, 179921, Control_c, 0, 64, 83
1, 179923, Note_off_c, 0, 49, 60
1, 179936, Control_c, 0, 64, 84
1, 179950, Control_c, 0, 64, 86
1, 179965, Control_c, 0, 64, 88
1, 179980, Control_c, 0, 64, 90
1, 179995, Control_c, 0, 64, 91
1, 180016, Control_c, 0, 64, 92
1, 180018, Note_off_c, 0, 59, 41
1, 180031, Control_c, 0, 64, 93
1, 180046, Control_c, 0, 64, 94
1, 180061, Control_c, 0, 64, 95
1, 180076, Control_c, 0, 64, 96
1, 180077, Note_off_c, 0, 67, 59
1, 180084, Note_off_c, 0, 75, 57
1, 180091, Control_c, 0, 64, 97
1, 180105, Control_c, 0, 64, 98
1, 180108, Note_on_c, 0, 73, 78
1, 180118, Note_on_c, 0, 58, 57
1, 180120, Control_c, 0, 64, 100
1, 180135, Control_c, 0, 64, 101
1, 180148, Note_off_c, 0, 64, 36
1, 180150, Control_c, 0, 64, 102
1, 180161, Note_off_c, 0, 58, 58
1, 180165, Control_c, 0, 64, 103
1, 180177, Note_off_c, 0, 73, 61
1, 180180, Control_c, 0, 64, 104
1, 180195, Control_c, 0, 64, 105
1, 180209, Control_c, 0, 64, 106
1, 180224, Control_c, 0, 64, 107
1, 180239, Control_c, 0, 64, 108
1, 180254, Control_c, 0, 64, 108
1, 180269, Control_c, 0, 64, 109
1, 180283, Control_c, 0, 64, 109
1, 180298, Control_c, 0, 64, 110
1, 180313, Control_c, 0, 64, 110
1, 180327, Control_c, 0, 64, 111
1, 180357, Control_c, 0, 64, 110
1, 180372, Control_c, 0, 64, 104
1, 180383, Note_on_c, 0, 79, 75
1, 180387, Control_c, 0, 64, 88
1, 180389, Note_on_c, 0, 64, 65
1, 180398, Note_on_c, 0, 67, 58
1, 180398, Note_on_c, 0, 52, 64
1, 180399, Note_on_c, 0, 70, 57
1, 180402, Control_c, 0, 64, 70
1, 180403, Note_on_c, 0, 73, 59
1, 180416, Control_c, 0, 64, 0
1, 180472, Note_off_c, 0, 79, 63
1, 180476, Control_c, 0, 64, 66
1, 180477, Note_off_c, 0, 67, 60
1, 180484, Note_off_c, 0, 70, 62
1, 180490, Control_c, 0, 64, 75
1, 180505, Control_c, 0, 64, 81
1, 180506, Note_off_c, 0, 64, 63
1, 180520, Control_c, 0, 64, 83
1, 180528, Note_off_c, 0, 52, 57
1, 180535, Control_c, 0, 64, 84
1, 180538, Note_off_c, 0, 73, 63
1, 180550, Control_c, 0, 64, 84
1, 180565, Control_c, 0, 64, 86
1, 180579, Control_c, 0, 64, 88
1, 180594, Control_c, 0, 64, 90
1, 180609, Control_c, 0, 64, 92
1, 180624, Control_c, 0, 64, 93
1, 180639, Control_c, 0, 64, 95
1, 180643, Note_on_c, 0, 68, 69
1, 180643, Note_on_c, 0, 80, 69
1, 180648, Note_on_c, 0, 73, 62
1, 180654, Control_c, 0, 64, 97
1, 180664, Note_off_c, 0, 80, 66
1, 180667, Note_off_c, 0, 73, 64
1, 180669, Note_off_c, 0, 68, 69
1, 180669, Control_c, 0, 64, 100
1, 180684, Control_c, 0, 64, 102
1, 180699, Control_c, 0, 64, 104
1, 180714, Control_c, 0, 64, 107
1, 180722, Note_on_c, 0, 52, 64
1, 180722, Note_on_c, 0, 64, 54
1, 180724, Note_on_c, 0, 81, 91
1, 180726, Note_on_c, 0, 73, 85
1, 180728, Control_c, 0, 64, 109
1, 180731, Note_on_c, 0, 69, 74
1, 180743, Note_off_c, 0, 64, 60
1, 180743, Control_c, 0, 64, 112
1, 180761, Note_off_c, 0, 52, 67
1, 180761, Note_off_c, 0, 73, 53
1, 180764, Note_off_c, 0, 69, 68
1, 180765, Control_c, 0, 64, 115
1, 180780, Control_c, 0, 64, 119
1, 180791, Note_off_c, 0, 81, 60
1, 180795, Control_c, 0, 64, 125
1, 180810, Control_c, 0, 64, 127
1, 180943, Control_c, 0, 64, 109
1, 180958, Control_c, 0, 64, 78
1, 180961, Note_on_c, 0, 61, 81
1, 180961, Note_on_c, 0, 49, 85
1, 180962, Note_on_c, 0, 82, 92
1, 180966, Note_on_c, 0, 70, 82
1, 180973, Note_on_c, 0, 76, 72
1, 180973, Control_c, 0, 64, 0
1, 180976, Note_on_c, 0, 79, 72
1, 181018, Control_c, 0, 64, 44
1, 181030, Note_off_c, 0, 61, 63
1, 181032, Control_c, 0, 64, 69
1, 181044, Note_off_c, 0, 49, 60
1, 181047, Control_c, 0, 64, 83
1, 181062, Control_c, 0, 64, 92
1, 181070, Note_off_c, 0, 76, 58
1, 181071, Note_off_c, 0, 79, 57
1, 181077, Control_c, 0, 64, 93
1, 181086, Note_off_c, 0, 70, 62
1, 181092, Control_c, 0, 64, 94
1, 181106, Control_c, 0, 64, 95
1, 181107, Note_off_c, 0, 82, 61
1, 181121, Control_c, 0, 64, 96
1, 181136, Control_c, 0, 64, 98
1, 181150, Control_c, 0, 64, 101
1, 181165, Control_c, 0, 64, 103
1, 181180, Control_c, 0, 64, 105
1, 181187, Note_on_c, 0, 59, 77
1, 181195, Note_on_c, 0, 83, 83
1, 181195, Control_c, 0, 64, 108
1, 181198, Note_on_c, 0, 71, 73
1, 181201, Note_on_c, 0, 47, 58
1, 181206, Note_on_c, 0, 79, 64
1, 181208, Note_off_c, 0, 59, 69
1, 181210, Control_c, 0, 64, 114
1, 181217, Note_on_c, 0, 76, 50
1, 181222, Note_off_c, 0, 71, 68
1, 181225, Control_c, 0, 64, 127
1, 181226, Note_off_c, 0, 47, 57
1, 181234, Note_off_c, 0, 83, 59
1, 181237, Note_off_c, 0, 79, 61
1, 181238, Note_off_c, 0, 76, 59
1, 181274, Note_on_c, 0, 58, 93
1, 181274, Note_on_c, 0, 46, 93
1, 181281, Note_on_c, 0, 84, 92
1, 181288, Note_on_c, 0, 76, 79
1, 181289, Note_on_c, 0, 72, 74
1, 181301, Note_off_c, 0, 46, 68
1, 181316, Note_off_c, 0, 58, 64
1, 181328, Control_c, 0, 64, 93
1, 181336, Note_off_c, 0, 72, 48
1, 181343, Control_c, 0, 64, 58
1, 181357, Control_c, 0, 64, 0
1, 181358, Note_off_c, 0, 84, 65
1, 181373, Note_off_c, 0, 76, 61
1, 181402, Control_c, 0, 64, 69
1, 181417, Control_c, 0, 64, 84
1, 181433, Control_c, 0, 64, 92
1, 181462, Control_c, 0, 64, 93
1, 181477, Control_c, 0, 64, 106
1, 181480, Note_on_c, 0, 85, 92
1, 181484, Note_on_c, 0, 67, 95
1, 181486, Note_on_c, 0, 55, 87
1, 181486, Note_on_c, 0, 76, 70
1, 181487, Note_on_c, 0, 73, 85
1, 181492, Control_c, 0, 64, 127
1, 181512, Note_on_c, 0, 82, 62
1, 181517, Note_off_c, 0, 76, 71
1, 181521, Note_off_c, 0, 67, 61
1, 181524, Note_off_c, 0, 55, 64
1, 181531, Note_off_c, 0, 82, 66
1, 181550, Note_off_c, 0, 73, 61
1, 181572, Note_off_c, 0, 85, 63
1, 181716, Note_on_c, 0, 86, 87
1, 181722, Note_on_c, 0, 74, 75
1, 181740, Note_off_c, 0, 74, 73
1, 181752, Note_off_c, 0, 86, 66
1, 181789, Note_on_c, 0, 67, 87
1, 181791, Note_on_c, 0, 55, 86
1, 181799, Note_on_c, 0, 75, 90
1, 181800, Note_on_c, 0, 87, 100
1, 181805, Note_off_c, 0, 67, 73
1, 181819, Note_off_c, 0, 55, 67
1, 181852, Note_off_c, 0, 87, 63
1, 181873, Note_off_c, 0, 75, 59
1, 182004, Control_c, 0, 64, 109
1, 182004, Note_on_c, 0, 64, 99
1, 182007, Note_on_c, 0, 88, 103
1, 182008, Note_on_c, 0, 52, 95
1, 182010, Note_on_c, 0, 76, 99
1, 182019, Note_on_c, 0, 85, 87
1, 182019, Control_c, 0, 64, 78
1, 182022, Note_on_c, 0, 82, 81
1, 182034, Control_c, 0, 64, 57
1, 182046, Note_off_c, 0, 64, 68
1, 182049, Control_c, 0, 64, 58
1, 182061, Note_off_c, 0, 52, 65
1, 182064, Control_c, 0, 64, 72
1, 182079, Control_c, 0, 64, 90
1, 182094, Control_c, 0, 64, 115
1, 182097, Note_off_c, 0, 76, 61
1, 182104, Note_off_c, 0, 88, 64
1, 182108, Control_c, 0, 64, 127
1, 182131, Note_off_c, 0, 82, 44
1, 182159, Note_off_c, 0, 85, 63
1, 182207, Note_on_c, 0, 62, 94
1, 182209, Note_on_c, 0, 89, 96
1, 182212, Note_on_c, 0, 77, 92
1, 182219, Note_on_c, 0, 82, 87
1, 182225, Note_on_c, 0, 50, 66
1, 182238, Note_off_c, 0, 62, 60
1, 182238, Note_off_c, 0, 82, 71
1, 182245, Note_off_c, 0, 77, 61
1, 182246, Note_off_c, 0, 89, 68
1, 182247, Note_off_c, 0, 50, 61
1, 182306, Note_on_c, 0, 61, 102
1, 182310, Note_on_c, 0, 49, 93
1, 182315, Note_on_c, 0, 90, 91
1, 182316, Note_on_c, 0, 78, 102
1, 182324, Note_on_c, 0, 82, 80
1, 182326, Poly_aftertouch_c, 0, 54, 0
1, 182330, Note_on_c, 0, 91, 83
1, 182330, Note_off_c, 0, 49, 70
1, 182338, Note_off_c, 0, 61, 65
1, 182344, Note_off_c, 0, 82, 70
1, 182349, Note_off_c, 0, 91, 54
1, 182365, Note_off_c, 0, 78, 66
1, 182389, Note_off_c, 0, 90, 60
1, 182457, Control_c, 0, 64, 96
1, 182472, Control_c, 0, 64, 61
1, 182487, Control_c, 0, 64, 0
1, 182505, Note_on_c, 0, 70, 93
1, 182509, Note_on_c, 0, 91, 102
1, 182511, Note_on_c, 0, 79, 101
1, 182511, Note_on_c, 0, 58, 94
1, 182511, Note_on_c, 0, 82, 75
1, 182531, Control_c, 0, 64, 61
1, 182532, Note_on_c, 0, 83, 60
1, 182538, Note_off_c, 0, 82, 68
1, 182538, Note_off_c, 0, 58, 68
1, 182539, Note_off_c, 0, 70, 66
1, 182544, Note_on_c, 0, 68, 34
1, 182545, Note_off_c, 0, 68, 127
1, 182546, Control_c, 0, 64, 88
1, 182550, Note_off_c, 0, 83, 46
1, 182561, Control_c, 0, 64, 127
1, 182564, Note_off_c, 0, 79, 57
1, 182600, Note_off_c, 0, 91, 55
1, 182738, Note_on_c, 0, 92, 101
1, 182739, Note_on_c, 0, 80, 84
1, 182793, Note_off_c, 0, 80, 65
1, 182796, Note_off_c, 0, 92, 64
1, 182848, Note_on_c, 0, 93, 99
1, 182850, Note_on_c, 0, 55, 104
1, 182854, Note_on_c, 0, 43, 102
1, 182854, Note_on_c, 0, 81, 92
1, 182870, Note_on_c, 0, 87, 64
1, 182881, Note_off_c, 0, 55, 66
1, 182887, Note_off_c, 0, 43, 62
1, 182898, Note_off_c, 0, 81, 61
1, 182914, Note_off_c, 0, 93, 61
1, 182971, Note_off_c, 0, 87, 53
1, 183088, Control_c, 0, 64, 101
1, 183098, Note_on_c, 0, 82, 94
1, 183099, Note_on_c, 0, 94, 90
1, 183102, Note_on_c, 0, 87, 87
1, 183102, Control_c, 0, 64, 73
1, 183110, Note_on_c, 0, 55, 104
1, 183113, Note_on_c, 0, 43, 102
1, 183117, Note_off_c, 0, 94, 72
1, 183117, Control_c, 0, 64, 10
1, 183132, Control_c, 0, 64, 58
1, 183139, Note_off_c, 0, 87, 64
1, 183147, Control_c, 0, 64, 75
1, 183151, Note_off_c, 0, 55, 67
1, 183153, Note_off_c, 0, 82, 63
1, 183160, Note_on_c, 0, 46, 21
1, 183161, Note_off_c, 0, 43, 62
1, 183161, Control_c, 0, 64, 103
1, 183176, Control_c, 0, 64, 127
1, 183206, Note_off_c, 0, 46, 41
1, 183409, Note_on_c, 0, 77, 91
1, 183415, Note_on_c, 0, 53, 92
1, 183421, Note_on_c, 0, 65, 79
1, 183424, Note_on_c, 0, 41, 84
1, 183435, Note_off_c, 0, 53, 74
1, 183447, Note_off_c, 0, 41, 70
1, 183448, Note_off_c, 0, 65, 67
1, 183456, Note_off_c, 0, 77, 64
1, 183472, Control_c, 0, 64, 121
1, 183487, Control_c, 0, 64, 84
1, 183501, Control_c, 0, 64, 0
1, 183521, Note_on_c, 0, 75, 97
1, 183522, Note_on_c, 0, 63, 92
1, 183522, Note_on_c, 0, 51, 98
1, 183544, Note_on_c, 0, 42, 54
1, 183545, Note_off_c, 0, 42, 127
1, 183546, Control_c, 0, 64, 70
1, 183547, Note_off_c, 0, 51, 62
1, 183554, Note_on_c, 0, 40, 44
1, 183560, Control_c, 0, 64, 92
1, 183561, Note_off_c, 0, 63, 62
1, 183575, Note_off_c, 0, 75, 62
1, 183575, Control_c, 0, 64, 127
1, 183591, Note_off_c, 0, 40, 53
1, 183613, Poly_aftertouch_c, 0, 39, 0
1, 183724, Control_c, 0, 64, 87
1, 183739, Note_on_c, 0, 58, 94
1, 183739, Control_c, 0, 64, 0
1, 183742, Note_on_c, 0, 46, 90
1, 183755, Note_on_c, 0, 82, 101
1, 183757, Note_on_c, 0, 70, 87
1, 183772, Note_off_c, 0, 46, 68
1, 183790, Note_on_c, 0, 83, 57
1, 183790, Note_off_c, 0, 58, 67
1, 183790, Control_c, 0, 64, 65
1, 183799, Note_off_c, 0, 70, 64
1, 183805, Control_c, 0, 64, 86
1, 183820, Control_c, 0, 64, 119
1, 183836, Control_c, 0, 64, 127
1, 183846, Note_off_c, 0, 83, 61
1, 183908, Note_off_c, 0, 82, 53
1, 184116, Control_c, 0, 64, 89
1, 184131, Control_c, 0, 64, 50
1, 184146, Control_c, 0, 64, 0
1, 184322, Note_on_c, 0, 46, 93
1, 184323, Note_on_c, 0, 91, 95
1, 184328, Note_on_c, 0, 34, 81
1, 184328, Note_on_c, 0, 79, 94
1, 184331, Note_on_c, 0, 86, 89
1, 184368, Control_c, 0, 64, 80
1, 184383, Control_c, 0, 64, 124
1, 184398, Control_c, 0, 64, 127
1, 184422, Note_off_c, 0, 91, 59
1, 184432, Note_off_c, 0, 79, 59
1, 184440, Note_off_c, 0, 86, 57
1, 184614, Note_on_c, 0, 89, 103
1, 184617, Note_on_c, 0, 77, 94
1, 184620, Note_on_c, 0, 86, 93
1, 184652, Note_off_c, 0, 34, 64
1, 184696, Note_off_c, 0, 46, 63
1, 184719, Note_off_c, 0, 89, 61
1, 184724, Note_off_c, 0, 86, 60
1, 184756, Note_off_c, 0, 77, 61
1, 185028, Note_on_c, 0, 74, 83
1, 185030, Note_on_c, 0, 86, 83
1, 185035, Note_on_c, 0, 82, 81
1, 185036, Note_on_c, 0, 50, 75
1, 185042, Note_on_c, 0, 38, 70
1, 185063, Note_off_c, 0, 50, 65
1, 185065, Note_off_c, 0, 86, 60
1, 185072, Note_off_c, 0, 38, 64
1, 185072, Note_off_c, 0, 82, 61
1, 185072, Note_off_c, 0, 74, 65
1, 185269, Note_on_c, 0, 74, 64
1, 185270, Note_on_c, 0, 82, 95
1, 185274, Note_on_c, 0, 55, 86
1, 185274, Note_on_c, 0, 70, 82
1, 185282, Note_on_c, 0, 43, 75
1, 185288, Control_c, 0, 64, 105
1, 185303, Control_c, 0, 64, 77
1, 185318, Control_c, 0, 64, 0
1, 185344, Note_off_c, 0, 74, 64
1, 185362, Control_c, 0, 64, 67
1, 185377, Control_c, 0, 64, 79
1, 185380, Note_off_c, 0, 55, 62
1, 185389, Note_off_c, 0, 70, 60
1, 185392, Control_c, 0, 64, 92
1, 185395, Note_off_c, 0, 43, 62
1, 185406, Control_c, 0, 64, 100
1, 185422, Control_c, 0, 64, 102
1, 185437, Control_c, 0, 64, 103
1, 185441, Note_off_c, 0, 82, 57
1, 185452, Control_c, 0, 64, 106
1, 185467, Control_c, 0, 64, 108
1, 185482, Control_c, 0, 64, 111
1, 185496, Control_c, 0, 64, 113
1, 185511, Control_c, 0, 64, 115
1, 185526, Control_c, 0, 64, 117
1, 185541, Control_c, 0, 64, 120
1, 185555, Control_c, 0, 64, 127
1, 185570, Control_c, 0, 64, 127
1, 185644, Control_c, 0, 64, 100
1, 185654, Note_on_c, 0, 41, 84
1, 185657, Note_on_c, 0, 53, 86
1, 185659, Note_on_c, 0, 84, 95
1, 185659, Control_c, 0, 64, 77
1, 185661, Note_on_c, 0, 72, 89
1, 185665, Note_on_c, 0, 81, 88
1, 185669, Note_on_c, 0, 77, 80
1, 185674, Control_c, 0, 64, 0
1, 185692, Note_off_c, 0, 53, 65
1, 185703, Control_c, 0, 64, 25
1, 185718, Control_c, 0, 64, 71
1, 185733, Control_c, 0, 64, 87
1, 185736, Note_off_c, 0, 41, 65
1, 185747, Control_c, 0, 64, 110
1, 185762, Control_c, 0, 64, 118
1, 185773, Note_off_c, 0, 77, 0
1, 185777, Control_c, 0, 64, 120
1, 185790, Note_off_c, 0, 72, 59
1, 185792, Control_c, 0, 64, 123
1, 185807, Control_c, 0, 64, 127
1, 185810, Note_off_c, 0, 84, 63
1, 185841, Poly_aftertouch_c, 0, 77, 0
1, 185895, Control_c, 0, 64, 106
1, 185900, Note_on_c, 0, 86, 99
1, 185904, Note_on_c, 0, 77, 89
1, 185906, Note_on_c, 0, 46, 93
1, 185907, Note_on_c, 0, 74, 92
1, 185910, Control_c, 0, 64, 81
1, 185912, Note_on_c, 0, 82, 87
1, 185913, Note_on_c, 0, 34, 85
1, 185918, Note_off_c, 0, 81, 56
1, 185925, Control_c, 0, 64, 0
1, 185966, Note_off_c, 0, 86, 64
1, 185969, Control_c, 0, 64, 64
1, 185973, Note_off_c, 0, 46, 61
1, 185975, Note_off_c, 0, 74, 64
1, 185984, Control_c, 0, 64, 77
1, 185990, Note_off_c, 0, 34, 62
1, 186006, Note_off_c, 0, 77, 62
1, 186007, Control_c, 0, 64, 91
1, 186014, Note_off_c, 0, 82, 64
1, 186022, Control_c, 0, 64, 100
1, 186036, Control_c, 0, 64, 101
1, 186051, Control_c, 0, 64, 103
1, 186066, Control_c, 0, 64, 105
1, 186080, Control_c, 0, 64, 108
1, 186095, Control_c, 0, 64, 114
1, 186110, Control_c, 0, 64, 124
1, 186125, Control_c, 0, 64, 127
1, 186163, Note_on_c, 0, 45, 85
1, 186176, Note_on_c, 0, 33, 70
1, 186188, Note_off_c, 0, 45, 70
1, 186200, Note_off_c, 0, 33, 63
1, 186239, Note_on_c, 0, 82, 84
1, 186240, Note_on_c, 0, 31, 89
1, 186241, Note_on_c, 0, 43, 93
1, 186245, Control_c, 0, 64, 111
1, 186246, Note_on_c, 0, 70, 91
1, 186248, Note_on_c, 0, 74, 79
1, 186259, Control_c, 0, 64, 91
1, 186267, Note_off_c, 0, 74, 72
1, 186271, Note_off_c, 0, 31, 66
1, 186274, Control_c, 0, 64, 81
1, 186276, Note_off_c, 0, 82, 66
1, 186282, Note_off_c, 0, 43, 63
1, 186289, Control_c, 0, 64, 80
1, 186301, Note_off_c, 0, 70, 59
1, 186304, Control_c, 0, 64, 86
1, 186319, Control_c, 0, 64, 101
1, 186333, Control_c, 0, 64, 127
1, 186452, Control_c, 0, 64, 95
1, 186467, Control_c, 0, 64, 63
1, 186471, Note_on_c, 0, 79, 93
1, 186473, Note_on_c, 0, 67, 94
1, 186475, Note_on_c, 0, 51, 90
1, 186477, Note_on_c, 0, 70, 82
1, 186479, Note_on_c, 0, 39, 79
1, 186482, Control_c, 0, 64, 0
1, 186484, Note_on_c, 0, 75, 78
1, 186526, Control_c, 0, 64, 65
1, 186541, Control_c, 0, 64, 82
1, 186548, Note_off_c, 0, 70, 51
1, 186553, Note_off_c, 0, 51, 64
1, 186556, Control_c, 0, 64, 99
1, 186557, Note_off_c, 0, 67, 60
1, 186563, Note_off_c, 0, 39, 63
1, 186570, Control_c, 0, 64, 108
1, 186577, Note_off_c, 0, 79, 60
1, 186585, Control_c, 0, 64, 109
1, 186600, Control_c, 0, 64, 110
1, 186615, Control_c, 0, 64, 113
1, 186622, Note_off_c, 0, 75, 64
1, 186630, Control_c, 0, 64, 119
1, 186644, Control_c, 0, 64, 127
1, 186845, Control_c, 0, 64, 103
1, 186845, Note_on_c, 0, 81, 101
1, 186847, Note_on_c, 0, 69, 95
1, 186851, Note_on_c, 0, 74, 82
1, 186851, Note_on_c, 0, 38, 93
1, 186854, Note_on_c, 0, 78, 90
1, 186857, Note_on_c, 0, 50, 78
1, 186859, Control_c, 0, 64, 72
1, 186874, Control_c, 0, 64, 0
1, 186883, Note_off_c, 0, 50, 68
1, 186903, Control_c, 0, 64, 64
1, 186916, Note_off_c, 0, 69, 60
1, 186918, Control_c, 0, 64, 85
1, 186923, Note_off_c, 0, 38, 63
1, 186932, Note_off_c, 0, 81, 58
1, 186933, Control_c, 0, 64, 121
1, 186944, Note_off_c, 0, 78, 64
1, 186947, Note_off_c, 0, 74, 57
1, 186948, Control_c, 0, 64, 127
1, 187023, Control_c, 0, 64, 113
1, 187038, Control_c, 0, 64, 76
1, 187053, Control_c, 0, 64, 0
1, 187067, Note_on_c, 0, 82, 95
1, 187069, Note_on_c, 0, 70, 100
1, 187075, Note_on_c, 0, 43, 94
1, 187075, Note_on_c, 0, 74, 51
1, 187076, Note_on_c, 0, 31, 93
1, 187078, Note_on_c, 0, 79, 78
1, 187113, Control_c, 0, 64, 74
1, 187119, Note_off_c, 0, 82, 67
1, 187120, Note_off_c, 0, 43, 61
1, 187127, Control_c, 0, 64, 95
1, 187131, Note_off_c, 0, 31, 63
1, 187142, Control_c, 0, 64, 127
1, 187145, Note_off_c, 0, 79, 61
1, 187149, Note_off_c, 0, 74, 65
1, 187177, Note_off_c, 0, 70, 54
1, 187311, Note_on_c, 0, 41, 94
1, 187316, Note_on_c, 0, 29, 88
1, 187335, Note_off_c, 0, 41, 70
1, 187340, Note_off_c, 0, 29, 65
1, 187382, Note_on_c, 0, 79, 93
1, 187384, Note_on_c, 0, 67, 91
1, 187391, Note_on_c, 0, 75, 81
1, 187394, Note_on_c, 0, 39, 94
1, 187394, Control_c, 0, 64, 113
1, 187398, Note_on_c, 0, 27, 92
1, 187409, Control_c, 0, 64, 82
1, 187414, Note_off_c, 0, 75, 69
1, 187418, Note_off_c, 0, 79, 63
1, 187422, Note_off_c, 0, 27, 70
1, 187424, Control_c, 0, 64, 54
1, 187424, Note_off_c, 0, 39, 66
1, 187430, Note_off_c, 0, 67, 62
1, 187438, Control_c, 0, 64, 0
1, 187453, Control_c, 0, 64, 70
1, 187468, Control_c, 0, 64, 93
1, 187483, Control_c, 0, 64, 127
1, 187593, Control_c, 0, 64, 106
1, 187608, Control_c, 0, 64, 70
1, 187623, Control_c, 0, 64, 0
1, 187626, Note_on_c, 0, 75, 91
1, 187627, Note_on_c, 0, 63, 87
1, 187629, Note_on_c, 0, 48, 99
1, 187633, Note_on_c, 0, 68, 84
1, 187634, Note_on_c, 0, 36, 89
1, 187668, Control_c, 0, 64, 65
1, 187677, Note_off_c, 0, 36, 64
1, 187683, Control_c, 0, 64, 86
1, 187685, Note_off_c, 0, 48, 68
1, 187698, Control_c, 0, 64, 115
1, 187713, Control_c, 0, 64, 127
1, 187726, Note_off_c, 0, 63, 63
1, 187734, Note_off_c, 0, 75, 65
1, 187753, Note_off_c, 0, 68, 63
1, 187808, Poly_aftertouch_c, 0, 74, 0
1, 187824, Poly_aftertouch_c, 0, 74, 0
1, 188099, Control_c, 0, 64, 97
1, 188114, Control_c, 0, 64, 66
1, 188119, Note_on_c, 0, 77, 99
1, 188124, Note_on_c, 0, 65, 90
1, 188127, Note_on_c, 0, 70, 86
1, 188129, Control_c, 0, 64, 0
1, 188130, Note_on_c, 0, 74, 78
1, 188134, Note_on_c, 0, 46, 89
1, 188139, Note_on_c, 0, 34, 82
1, 188188, Control_c, 0, 64, 64
1, 188196, Note_off_c, 0, 65, 64
1, 188203, Control_c, 0, 64, 85
1, 188215, Note_off_c, 0, 74, 61
1, 188215, Note_off_c, 0, 77, 59
1, 188217, Control_c, 0, 64, 108
1, 188232, Control_c, 0, 64, 127
1, 188258, Note_off_c, 0, 70, 59
1, 188286, Note_off_c, 0, 46, 42
1, 188324, Note_off_c, 0, 34, 35
1, 188402, Note_on_c, 0, 78, 96
1, 188408, Note_on_c, 0, 66, 86
1, 188410, Note_on_c, 0, 71, 82
1, 188412, Note_on_c, 0, 75, 84
1, 188414, Note_on_c, 0, 45, 86
1, 188415, Note_on_c, 0, 33, 83
1, 188447, Control_c, 0, 64, 96
1, 188462, Control_c, 0, 64, 74
1, 188476, Control_c, 0, 64, 0
1, 188640, Control_c, 0, 64, 46
1, 188655, Control_c, 0, 64, 65
1, 188670, Control_c, 0, 64, 70
1, 188685, Control_c, 0, 64, 73
1, 188700, Control_c, 0, 64, 76
1, 188715, Control_c, 0, 64, 79
1, 188729, Control_c, 0, 64, 80
1, 188734, Note_off_c, 0, 33, 63
1, 188744, Control_c, 0, 64, 81
1, 188759, Control_c, 0, 64, 82
1, 188774, Control_c, 0, 64, 83
1, 188789, Control_c, 0, 64, 84
1, 188804, Control_c, 0, 64, 86
1, 188819, Control_c, 0, 64, 87
1, 188834, Control_c, 0, 64, 89
1, 188848, Control_c, 0, 64, 90
1, 188863, Control_c, 0, 64, 92
1, 188878, Control_c, 0, 64, 93
1, 188892, Control_c, 0, 64, 95
1, 188907, Control_c, 0, 64, 96
1, 188922, Control_c, 0, 64, 97
1, 188937, Control_c, 0, 64, 98
1, 188952, Control_c, 0, 64, 99
1, 188966, Control_c, 0, 64, 100
1, 188981, Control_c, 0, 64, 102
1, 189003, Control_c, 0, 64, 104
1, 189018, Control_c, 0, 64, 105
1, 189033, Control_c, 0, 64, 106
1, 189048, Control_c, 0, 64, 107
1, 189063, Control_c, 0, 64, 108
1, 189078, Control_c, 0, 64, 110
1, 189093, Control_c, 0, 64, 112
1, 189107, Control_c, 0, 64, 114
1, 189122, Control_c, 0, 64, 116
1, 189137, Control_c, 0, 64, 118
1, 189152, Control_c, 0, 64, 120
1, 189167, Control_c, 0, 64, 121
1, 189181, Control_c, 0, 64, 123
1, 189196, Control_c, 0, 64, 125
1, 189211, Control_c, 0, 64, 127
1, 189226, Control_c, 0, 64, 127
1, 189871, Note_on_c, 0, 59, 65
1, 190038, Note_off_c, 0, 59, 53
1, 190217, Note_on_c, 0, 59, 73
1, 190380, Note_off_c, 0, 71, 52
1, 190431, Note_off_c, 0, 78, 58
1, 190443, Note_off_c, 0, 75, 61
1, 190479, Note_off_c, 0, 59, 50
1, 190592, Note_off_c, 0, 66, 59
1, 190738, Note_on_c, 0, 59, 63
1, 190866, Note_off_c, 0, 59, 52
1, 190930, Control_c, 0, 67, 9
1, 190944, Control_c, 0, 67, 12
1, 190959, Control_c, 0, 67, 15
1, 190974, Control_c, 0, 67, 18
1, 190989, Control_c, 0, 67, 21
1, 191004, Control_c, 0, 67, 23
1, 191020, Control_c, 0, 67, 25
1, 191035, Control_c, 0, 67, 25
1, 191064, Control_c, 0, 67, 25
1, 191076, Note_on_c, 0, 59, 64
1, 191083, Note_on_c, 0, 71, 47
1, 191084, Note_on_c, 0, 63, 39
1, 191093, Control_c, 0, 67, 25
1, 191099, Note_on_c, 0, 66, 42
1, 191108, Control_c, 0, 67, 26
1, 191123, Control_c, 0, 64, 122
1, 191123, Control_c, 0, 67, 27
1, 191138, Control_c, 0, 64, 106
1, 191138, Control_c, 0, 67, 29
1, 191153, Control_c, 0, 64, 95
1, 191153, Control_c, 0, 67, 30
1, 191168, Control_c, 0, 64, 85
1, 191182, Control_c, 0, 64, 74
1, 191197, Control_c, 0, 64, 59
1, 191212, Control_c, 0, 64, 0
1, 191212, Control_c, 0, 67, 30
1, 191227, Control_c, 0, 64, 41
1, 191227, Control_c, 0, 67, 32
1, 191249, Control_c, 0, 64, 63
1, 191249, Control_c, 0, 67, 37
1, 191264, Control_c, 0, 64, 69
1, 191264, Control_c, 0, 67, 44
1, 191279, Control_c, 0, 64, 75
1, 191279, Control_c, 0, 67, 50
1, 191294, Control_c, 0, 64, 80
1, 191294, Control_c, 0, 67, 54
1, 191308, Control_c, 0, 64, 81
1, 191308, Control_c, 0, 67, 57
1, 191323, Control_c, 0, 64, 82
1, 191323, Control_c, 0, 67, 59
1, 191338, Control_c, 0, 64, 82
1, 191338, Control_c, 0, 67, 62
1, 191353, Control_c, 0, 64, 84
1, 191353, Control_c, 0, 67, 63
1, 191367, Control_c, 0, 64, 86
1, 191367, Control_c, 0, 67, 65
1, 191382, Control_c, 0, 64, 87
1, 191382, Control_c, 0, 67, 68
1, 191397, Control_c, 0, 64, 89
1, 191397, Control_c, 0, 67, 71
1, 191412, Control_c, 0, 64, 90
1, 191412, Control_c, 0, 67, 73
1, 191421, Note_off_c, 0, 59, 55
1, 191427, Control_c, 0, 64, 91
1, 191442, Control_c, 0, 64, 92
1, 191457, Control_c, 0, 64, 92
1, 191472, Control_c, 0, 64, 93
1, 191486, Control_c, 0, 64, 94
1, 191501, Control_c, 0, 64, 95
1, 191501, Control_c, 0, 67, 73
1, 191516, Control_c, 0, 64, 95
1, 191531, Control_c, 0, 64, 96
1, 191546, Control_c, 0, 64, 96
1, 191561, Control_c, 0, 67, 73
1, 191564, Note_on_c, 0, 59, 62
1, 191575, Control_c, 0, 64, 97
1, 191606, Control_c, 0, 64, 97
1, 191650, Control_c, 0, 67, 72
1, 191665, Control_c, 0, 64, 98
1, 191665, Control_c, 0, 67, 72
1, 191678, Note_off_c, 0, 59, 39
1, 191768, Control_c, 0, 67, 71
1, 191783, Control_c, 0, 67, 71
1, 191850, Note_on_c, 0, 59, 57
1, 191999, Control_c, 0, 67, 71
1, 192014, Control_c, 0, 67, 72
1, 192044, Control_c, 0, 67, 72
1, 192059, Control_c, 0, 67, 73
1, 192073, Control_c, 0, 67, 73
1, 192088, Control_c, 0, 67, 74
1, 192103, Control_c, 0, 67, 74
1, 192109, Note_off_c, 0, 59, 53
1, 192117, Control_c, 0, 67, 75
1, 192132, Control_c, 0, 67, 78
1, 192147, Control_c, 0, 67, 85
1, 192162, Control_c, 0, 67, 88
1, 192177, Control_c, 0, 67, 90
1, 192191, Control_c, 0, 67, 92
1, 192206, Control_c, 0, 67, 94
1, 192221, Control_c, 0, 67, 97
1, 192236, Control_c, 0, 67, 100
1, 192251, Control_c, 0, 67, 104
1, 192265, Control_c, 0, 67, 107
1, 192280, Control_c, 0, 67, 110
1, 192295, Control_c, 0, 67, 112
1, 192309, Control_c, 0, 67, 114
1, 192320, Note_off_c, 0, 63, 42
1, 192324, Control_c, 0, 67, 116
1, 192339, Control_c, 0, 67, 117
1, 192353, Note_on_c, 0, 59, 61
1, 192354, Control_c, 0, 67, 119
1, 192369, Control_c, 0, 67, 122
1, 192384, Control_c, 0, 67, 124
1, 192399, Control_c, 0, 67, 125
1, 192414, Control_c, 0, 67, 127
1, 192652, Control_c, 0, 64, 97
1, 192687, Note_on_c, 0, 63, 62
1, 192696, Control_c, 0, 64, 97
1, 192711, Control_c, 0, 64, 95
1, 192726, Control_c, 0, 64, 90
1, 192747, Control_c, 0, 64, 83
1, 192762, Control_c, 0, 64, 74
1, 192766, Note_off_c, 0, 59, 34
1, 192777, Control_c, 0, 64, 63
1, 192792, Control_c, 0, 64, 0
1, 192852, Control_c, 0, 64, 56
1, 192867, Control_c, 0, 64, 67
1, 192882, Control_c, 0, 64, 72
1, 192896, Control_c, 0, 64, 75
1, 192911, Control_c, 0, 64, 77
1, 192926, Control_c, 0, 64, 78
1, 192940, Control_c, 0, 64, 79
1, 192970, Control_c, 0, 64, 79
1, 193060, Note_on_c, 0, 61, 65
1, 193091, Note_off_c, 0, 63, 56
1, 193118, Control_c, 0, 64, 78
1, 193132, Control_c, 0, 64, 78
1, 193147, Control_c, 0, 64, 76
1, 193162, Control_c, 0, 64, 75
1, 193177, Control_c, 0, 64, 73
1, 193180, Note_off_c, 0, 61, 58
1, 193192, Control_c, 0, 64, 70
1, 193197, Note_on_c, 0, 59, 60
1, 193207, Control_c, 0, 64, 64
1, 193221, Control_c, 0, 64, 39
1, 193236, Control_c, 0, 64, 0
1, 193340, Control_c, 0, 64, 24
1, 193355, Control_c, 0, 64, 65
1, 193370, Control_c, 0, 64, 72
1, 193385, Control_c, 0, 64, 78
1, 193400, Control_c, 0, 64, 81
1, 193415, Control_c, 0, 64, 81
1, 193430, Control_c, 0, 64, 82
1, 193445, Control_c, 0, 64, 83
1, 193457, Note_off_c, 0, 45, 53
1, 193460, Control_c, 0, 64, 84
1, 193475, Control_c, 0, 64, 86
1, 193491, Note_off_c, 0, 59, 31
1, 193493, Note_off_c, 0, 71, 31
1, 193497, Control_c, 0, 64, 87
1, 193512, Control_c, 0, 64, 87
1, 193621, Note_off_c, 0, 66, 33
1, 193660, Control_c, 0, 64, 87
1, 193675, Control_c, 0, 64, 85
1, 193687, Note_on_c, 0, 64, 52
1, 193689, Control_c, 0, 64, 79
1, 193704, Control_c, 0, 64, 70
1, 193710, Note_on_c, 0, 59, 37
1, 193712, Note_on_c, 0, 71, 44
1, 193719, Control_c, 0, 64, 26
1, 193734, Control_c, 0, 64, 0
1, 193739, Note_on_c, 0, 44, 12
1, 193881, Control_c, 0, 64, 34
1, 193895, Control_c, 0, 64, 61
1, 193910, Control_c, 0, 64, 66
1, 193925, Control_c, 0, 64, 69
1, 193940, Control_c, 0, 64, 71
1, 193955, Control_c, 0, 64, 74
1, 193970, Control_c, 0, 64, 78
1, 193985, Control_c, 0, 64, 80
1, 193999, Control_c, 0, 64, 82
1, 194014, Control_c, 0, 64, 83
1, 194029, Control_c, 0, 64, 84
1, 194044, Control_c, 0, 64, 85
1, 194059, Control_c, 0, 64, 87
1, 194074, Control_c, 0, 64, 88
1, 194088, Control_c, 0, 64, 88
1, 194103, Control_c, 0, 64, 89
1, 194148, Control_c, 0, 64, 89
1, 194157, Note_off_c, 0, 71, 34
1, 194317, Note_on_c, 0, 61, 52
1, 194335, Note_off_c, 0, 64, 57
1, 194415, Note_off_c, 0, 59, 29
1, 194631, Control_c, 0, 64, 88
1, 194646, Control_c, 0, 64, 84
1, 194658, Note_on_c, 0, 42, 46
1, 194660, Control_c, 0, 64, 79
1, 194661, Note_off_c, 0, 61, 57
1, 194667, Note_on_c, 0, 59, 45
1, 194675, Control_c, 0, 64, 69
1, 194677, Note_on_c, 0, 69, 43
1, 194690, Control_c, 0, 64, 19
1, 194697, Note_on_c, 0, 63, 10
1, 194705, Control_c, 0, 64, 0
1, 194707, Note_off_c, 0, 44, 40
1, 194761, Note_off_c, 0, 63, 40
1, 194823, Control_c, 0, 64, 61
1, 194838, Control_c, 0, 64, 68
1, 194853, Control_c, 0, 64, 71
1, 194867, Control_c, 0, 64, 73
1, 194882, Control_c, 0, 64, 76
1, 194897, Control_c, 0, 64, 79
1, 194912, Control_c, 0, 64, 80
1, 194927, Control_c, 0, 64, 81
1, 194941, Control_c, 0, 64, 82
1, 194956, Control_c, 0, 64, 84
1, 194971, Control_c, 0, 64, 85
1, 194974, Note_off_c, 0, 42, 38
1, 194993, Control_c, 0, 64, 86
1, 195007, Poly_aftertouch_c, 0, 63, 127
1, 195009, Control_c, 0, 64, 86
1, 195024, Control_c, 0, 64, 87
1, 195039, Control_c, 0, 64, 87
1, 195054, Control_c, 0, 64, 88
1, 195098, Control_c, 0, 64, 88
1, 195157, Control_c, 0, 64, 89
1, 195320, Control_c, 0, 64, 89
1, 195388, Note_on_c, 0, 57, 44
1, 195676, Note_on_c, 0, 54, 50
1, 195719, Note_off_c, 0, 57, 29
1, 195890, Note_off_c, 0, 54, 47
1, 196256, Note_on_c, 0, 47, 51
1, 196303, Poly_aftertouch_c, 0, 63, 0
1, 196394, Note_off_c, 0, 59, 35
1, 196670, Control_c, 0, 64, 89
1, 196685, Control_c, 0, 64, 87
1, 196700, Control_c, 0, 64, 84
1, 196706, Note_on_c, 0, 40, 43
1, 196714, Control_c, 0, 64, 80
1, 196715, Note_on_c, 0, 64, 38
1, 196729, Control_c, 0, 64, 75
1, 196733, Note_on_c, 0, 59, 30
1, 196744, Control_c, 0, 64, 66
1, 196759, Control_c, 0, 64, 0
1, 196778, Note_off_c, 0, 47, 41
1, 197024, Control_c, 0, 64, 54
1, 197039, Control_c, 0, 64, 62
1, 197053, Control_c, 0, 64, 63
1, 197068, Control_c, 0, 64, 64
1, 197083, Control_c, 0, 64, 65
1, 197097, Control_c, 0, 64, 67
1, 197112, Control_c, 0, 64, 70
1, 197127, Control_c, 0, 64, 74
1, 197142, Control_c, 0, 64, 77
1, 197157, Control_c, 0, 64, 78
1, 197172, Control_c, 0, 64, 79
1, 197186, Control_c, 0, 64, 79
1, 197201, Control_c, 0, 64, 80
1, 197238, Control_c, 0, 64, 80
1, 197335, Note_off_c, 0, 69, 35
1, 197484, Note_on_c, 0, 68, 48
1, 197521, Control_c, 0, 64, 79
1, 197535, Control_c, 0, 64, 76
1, 197550, Control_c, 0, 64, 71
1, 197565, Control_c, 0, 64, 62
1, 197580, Control_c, 0, 64, 0
1, 197625, Control_c, 0, 64, 19
1, 197640, Control_c, 0, 64, 63
1, 197654, Control_c, 0, 64, 68
1, 197669, Control_c, 0, 64, 71
1, 197684, Control_c, 0, 64, 73
1, 197699, Control_c, 0, 64, 74
1, 197714, Control_c, 0, 64, 75
1, 197729, Control_c, 0, 64, 76
1, 197743, Control_c, 0, 64, 77
1, 197758, Control_c, 0, 64, 77
1, 197824, Note_off_c, 0, 68, 32
1, 197827, Note_on_c, 0, 67, 46
1, 197847, Control_c, 0, 64, 77
1, 197862, Control_c, 0, 64, 76
1, 197877, Control_c, 0, 64, 72
1, 197892, Control_c, 0, 64, 66
1, 197907, Control_c, 0, 64, 38
1, 197921, Control_c, 0, 64, 0
1, 198062, Control_c, 0, 64, 56
1, 198077, Control_c, 0, 64, 64
1, 198092, Control_c, 0, 64, 67
1, 198107, Control_c, 0, 64, 69
1, 198122, Control_c, 0, 64, 71
1, 198136, Control_c, 0, 64, 73
1, 198151, Control_c, 0, 64, 76
1, 198166, Control_c, 0, 64, 78
1, 198181, Control_c, 0, 64, 79
1, 198187, Note_off_c, 0, 64, 48
1, 198196, Control_c, 0, 64, 79
1, 198211, Control_c, 0, 64, 80
1, 198226, Control_c, 0, 64, 81
1, 198241, Control_c, 0, 64, 81
1, 198256, Control_c, 0, 64, 82
1, 198359, Control_c, 0, 64, 82
1, 198491, Note_off_c, 0, 40, 39
1, 198533, Note_on_c, 0, 41, 47
1, 198537, Control_c, 0, 64, 82
1, 198566, Control_c, 0, 64, 79
1, 198581, Control_c, 0, 64, 71
1, 198587, Note_off_c, 0, 59, 53
1, 198596, Control_c, 0, 64, 40
1, 198611, Control_c, 0, 64, 0
1, 198670, Control_c, 0, 64, 63
1, 198685, Control_c, 0, 64, 68
1, 198700, Control_c, 0, 64, 71
1, 198715, Control_c, 0, 64, 74
1, 198737, Control_c, 0, 64, 76
1, 198751, Control_c, 0, 64, 78
1, 198766, Control_c, 0, 64, 80
1, 198781, Control_c, 0, 64, 81
1, 198796, Control_c, 0, 64, 81
1, 198811, Control_c, 0, 64, 82
1, 198826, Control_c, 0, 64, 82
1, 198840, Control_c, 0, 64, 83
1, 198864, Note_off_c, 0, 67, 23
1, 198870, Control_c, 0, 64, 83
1, 198885, Control_c, 0, 64, 84
1, 199034, Control_c, 0, 64, 83
1, 199049, Control_c, 0, 64, 82
1, 199064, Control_c, 0, 64, 78
1, 199072, Note_on_c, 0, 43, 51
1, 199079, Control_c, 0, 64, 73
1, 199089, Note_on_c, 0, 67, 16
1, 199090, Note_off_c, 0, 41, 39
1, 199094, Control_c, 0, 64, 63
1, 199095, Note_on_c, 0, 59, 25
1, 199097, Note_on_c, 0, 55, 33
1, 199108, Control_c, 0, 64, 0
1, 199109, Note_on_c, 0, 65, 26
1, 199212, Control_c, 0, 64, 42
1, 199227, Control_c, 0, 64, 65
1, 199242, Control_c, 0, 64, 68
1, 199256, Control_c, 0, 64, 71
1, 199271, Control_c, 0, 64, 73
1, 199286, Control_c, 0, 64, 75
1, 199300, Control_c, 0, 64, 77
1, 199315, Control_c, 0, 64, 79
1, 199330, Control_c, 0, 64, 80
1, 199345, Control_c, 0, 64, 81
1, 199360, Control_c, 0, 64, 81
1, 199374, Control_c, 0, 64, 82
1, 199389, Control_c, 0, 64, 83
1, 199404, Control_c, 0, 64, 83
1, 199414, Note_off_c, 0, 43, 50
1, 199419, Control_c, 0, 64, 84
1, 199486, Control_c, 0, 64, 84
1, 199615, Note_on_c, 0, 43, 54
1, 199728, Note_off_c, 0, 43, 37
1, 199905, Note_on_c, 0, 43, 58
1, 200072, Note_off_c, 0, 43, 58
1, 200333, Note_off_c, 0, 59, 40
1, 200400, Note_on_c, 0, 43, 59
1, 200451, Note_off_c, 0, 65, 40
1, 200455, Note_off_c, 0, 55, 42
1, 200514, Note_off_c, 0, 67, 33
1, 200694, Control_c, 0, 64, 84
1, 200709, Control_c, 0, 64, 81
1, 200722, Note_on_c, 0, 47, 61
1, 200724, Control_c, 0, 64, 77
1, 200739, Control_c, 0, 64, 71
1, 200745, Note_on_c, 0, 67, 37
1, 200746, Note_on_c, 0, 62, 37
1, 200753, Note_on_c, 0, 55, 31
1, 200753, Control_c, 0, 64, 57
1, 200768, Control_c, 0, 64, 0
1, 200769, Note_on_c, 0, 65, 32
1, 200818, Note_off_c, 0, 43, 46
1, 200901, Control_c, 0, 64, 59
1, 200916, Control_c, 0, 64, 66
1, 200931, Control_c, 0, 64, 70
1, 200945, Control_c, 0, 64, 72
1, 200960, Control_c, 0, 64, 72
1, 200983, Control_c, 0, 64, 73
1, 200998, Control_c, 0, 64, 73
1, 201013, Control_c, 0, 64, 74
1, 201100, Note_on_c, 0, 45, 62
1, 201131, Control_c, 0, 64, 73
1, 201146, Control_c, 0, 64, 69
1, 201153, Note_off_c, 0, 47, 51
1, 201160, Control_c, 0, 64, 64
1, 201175, Control_c, 0, 64, 0
1, 201233, Note_on_c, 0, 43, 58
1, 201234, Note_off_c, 0, 45, 60
1, 201234, Note_off_c, 0, 62, 54
1, 201338, Control_c, 0, 64, 54
1, 201353, Control_c, 0, 64, 66
1, 201357, Note_off_c, 0, 55, 36
1, 201368, Control_c, 0, 64, 70
1, 201383, Control_c, 0, 64, 72
1, 201399, Control_c, 0, 64, 75
1, 201411, Note_off_c, 0, 65, 40
1, 201414, Control_c, 0, 64, 76
1, 201429, Control_c, 0, 64, 78
1, 201443, Control_c, 0, 64, 79
1, 201458, Control_c, 0, 64, 80
1, 201473, Control_c, 0, 64, 80
1, 201502, Control_c, 0, 64, 81
1, 201506, Note_off_c, 0, 67, 21
1, 201592, Control_c, 0, 64, 80
1, 201607, Control_c, 0, 64, 77
1, 201616, Note_on_c, 0, 48, 61
1, 201622, Control_c, 0, 64, 70
1, 201637, Control_c, 0, 64, 55
1, 201638, Note_on_c, 0, 67, 28
1, 201641, Note_on_c, 0, 64, 33
1, 201645, Note_on_c, 0, 60, 36
1, 201648, Note_on_c, 0, 55, 15
1, 201651, Control_c, 0, 64, 0
1, 201665, Note_off_c, 0, 43, 31
1, 201792, Control_c, 0, 64, 56
1, 201806, Control_c, 0, 64, 64
1, 201821, Control_c, 0, 64, 67
1, 201836, Control_c, 0, 64, 69
1, 201851, Control_c, 0, 64, 72
1, 201866, Control_c, 0, 64, 75
1, 201881, Control_c, 0, 64, 78
1, 201896, Control_c, 0, 64, 79
1, 201910, Control_c, 0, 64, 79
1, 201925, Control_c, 0, 64, 80
1, 201955, Control_c, 0, 64, 80
1, 201984, Control_c, 0, 64, 81
1, 201999, Control_c, 0, 64, 81
1, 202028, Control_c, 0, 64, 82
1, 202058, Control_c, 0, 64, 82
1, 202117, Control_c, 0, 64, 83
1, 202188, Note_on_c, 0, 45, 57
1, 202222, Control_c, 0, 64, 83
1, 202232, Note_off_c, 0, 55, 37
1, 202240, Note_off_c, 0, 60, 35
1, 202244, Note_off_c, 0, 48, 33
1, 202254, Note_off_c, 0, 64, 33
1, 202302, Note_off_c, 0, 67, 30
1, 202444, Control_c, 0, 64, 83
1, 202525, Control_c, 0, 64, 82
1, 202540, Control_c, 0, 64, 81
1, 202555, Control_c, 0, 64, 78
1, 202568, Note_on_c, 0, 43, 53
1, 202570, Control_c, 0, 64, 73
1, 202583, Note_on_c, 0, 67, 41
1, 202584, Note_on_c, 0, 60, 35
1, 202585, Control_c, 0, 64, 63
1, 202597, Note_on_c, 0, 64, 36
1, 202599, Control_c, 0, 64, 0
1, 202605, Note_off_c, 0, 45, 60
1, 202607, Note_on_c, 0, 55, 30
1, 202778, Control_c, 0, 64, 53
1, 202793, Control_c, 0, 64, 62
1, 202807, Control_c, 0, 64, 64
1, 202822, Control_c, 0, 64, 65
1, 202837, Control_c, 0, 64, 67
1, 202851, Control_c, 0, 64, 68
1, 202866, Control_c, 0, 64, 71
1, 202881, Control_c, 0, 64, 74
1, 202896, Control_c, 0, 64, 76
1, 202911, Control_c, 0, 64, 77
1, 202925, Control_c, 0, 64, 78
1, 202940, Control_c, 0, 64, 78
1, 202985, Control_c, 0, 64, 79
1, 203089, Control_c, 0, 64, 78
1, 203117, Note_on_c, 0, 40, 59
1, 203119, Control_c, 0, 64, 77
1, 203134, Control_c, 0, 64, 75
1, 203148, Control_c, 0, 64, 69
1, 203163, Control_c, 0, 64, 58
1, 203178, Control_c, 0, 64, 0
1, 203234, Note_off_c, 0, 43, 24
1, 203304, Control_c, 0, 64, 21
1, 203319, Control_c, 0, 64, 57
1, 203334, Control_c, 0, 64, 62
1, 203393, Control_c, 0, 64, 62
1, 203422, Control_c, 0, 64, 61
1, 203429, Note_on_c, 0, 36, 48
1, 203437, Control_c, 0, 64, 60
1, 203452, Control_c, 0, 64, 56
1, 203467, Control_c, 0, 64, 48
1, 203482, Control_c, 0, 64, 24
1, 203497, Control_c, 0, 64, 0
1, 203498, Note_off_c, 0, 40, 55
1, 203645, Control_c, 0, 64, 42
1, 203660, Control_c, 0, 64, 60
1, 203674, Control_c, 0, 64, 63
1, 203689, Control_c, 0, 64, 64
1, 203704, Control_c, 0, 64, 65
1, 203719, Control_c, 0, 64, 66
1, 203734, Control_c, 0, 64, 69
1, 203748, Control_c, 0, 64, 71
1, 203763, Control_c, 0, 64, 74
1, 203778, Control_c, 0, 64, 76
1, 203794, Control_c, 0, 64, 77
1, 203809, Control_c, 0, 64, 78
1, 203824, Control_c, 0, 64, 78
1, 203839, Control_c, 0, 64, 79
1, 203870, Note_off_c, 0, 60, 32
1, 203883, Control_c, 0, 64, 79
1, 204095, Note_on_c, 0, 33, 52
1, 204097, Control_c, 0, 64, 79
1, 204112, Control_c, 0, 64, 77
1, 204127, Control_c, 0, 64, 72
1, 204142, Control_c, 0, 64, 64
1, 204157, Control_c, 0, 64, 0
1, 204159, Note_off_c, 0, 64, 41
1, 204177, Note_off_c, 0, 36, 42
1, 204245, Control_c, 0, 64, 47
1, 204252, Note_off_c, 0, 55, 41
1, 204260, Control_c, 0, 64, 64
1, 204275, Control_c, 0, 64, 67
1, 204290, Control_c, 0, 64, 69
1, 204304, Control_c, 0, 64, 71
1, 204319, Control_c, 0, 64, 72
1, 204334, Control_c, 0, 64, 74
1, 204349, Control_c, 0, 64, 76
1, 204364, Control_c, 0, 64, 77
1, 204394, Control_c, 0, 64, 78
1, 204586, Control_c, 0, 64, 76
1, 204602, Control_c, 0, 64, 73
1, 204617, Control_c, 0, 64, 68
1, 204632, Control_c, 0, 64, 54
1, 204636, Note_on_c, 0, 65, 38
1, 204642, Note_on_c, 0, 31, 37
1, 204643, Note_on_c, 0, 55, 29
1, 204646, Control_c, 0, 64, 0
1, 204656, Note_on_c, 0, 59, 16
1, 204675, Note_off_c, 0, 33, 45
1, 204817, Control_c, 0, 64, 32
1, 204832, Control_c, 0, 64, 51
1, 204846, Control_c, 0, 64, 54
1, 204861, Control_c, 0, 64, 55
1, 204876, Control_c, 0, 64, 57
1, 204891, Control_c, 0, 64, 60
1, 204906, Control_c, 0, 64, 62
1, 204920, Control_c, 0, 64, 62
1, 204935, Control_c, 0, 64, 60
1, 204950, Control_c, 0, 64, 49
1, 204965, Control_c, 0, 64, 0
1, 205083, Control_c, 0, 64, 59
1, 205098, Control_c, 0, 64, 64
1, 205113, Control_c, 0, 64, 66
1, 205127, Control_c, 0, 64, 67
1, 205142, Control_c, 0, 64, 69
1, 205157, Control_c, 0, 64, 73
1, 205172, Control_c, 0, 64, 77
1, 205187, Control_c, 0, 64, 80
1, 205202, Control_c, 0, 64, 82
1, 205217, Control_c, 0, 64, 83
1, 205231, Control_c, 0, 64, 85
1, 205246, Control_c, 0, 64, 87
1, 205261, Control_c, 0, 64, 89
1, 205276, Control_c, 0, 64, 90
1, 205280, Note_off_c, 0, 31, 39
1, 205291, Control_c, 0, 64, 90
1, 205320, Control_c, 0, 64, 91
1, 205350, Control_c, 0, 64, 91
1, 205395, Control_c, 0, 64, 92
1, 206177, Note_off_c, 0, 55, 42
1, 206776, Note_on_c, 0, 57, 46
1, 206922, Control_c, 0, 64, 92
1, 207014, Note_off_c, 0, 59, 38
1, 207074, Note_off_c, 0, 57, 25
1, 207391, Note_on_c, 0, 57, 56
1, 207549, Note_off_c, 0, 57, 32
1, 207700, Control_c, 0, 64, 91
1, 207706, Note_on_c, 0, 57, 57
1, 207722, Control_c, 0, 64, 88
1, 207727, Note_on_c, 0, 43, 42
1, 207732, Note_on_c, 0, 60, 40
1, 207737, Control_c, 0, 64, 82
1, 207752, Control_c, 0, 64, 72
1, 207766, Control_c, 0, 64, 54
1, 207781, Control_c, 0, 64, 0
1, 207842, Control_c, 0, 64, 62
1, 207857, Control_c, 0, 64, 68
1, 207871, Control_c, 0, 64, 71
1, 207886, Control_c, 0, 64, 73
1, 207901, Control_c, 0, 64, 75
1, 207916, Control_c, 0, 64, 77
1, 207931, Control_c, 0, 64, 78
1, 207945, Control_c, 0, 64, 79
1, 207959, Note_off_c, 0, 57, 59
1, 207960, Control_c, 0, 64, 80
1, 207968, Note_off_c, 0, 67, 33
1, 207975, Control_c, 0, 64, 80
1, 208005, Control_c, 0, 64, 81
1, 208034, Control_c, 0, 64, 81
1, 208166, Note_on_c, 0, 64, 73
1, 208183, Note_on_c, 0, 55, 55
1, 208184, Note_off_c, 0, 60, 50
1, 208203, Note_off_c, 0, 65, 42
1, 208376, Control_c, 0, 64, 81
1, 208390, Control_c, 0, 64, 80
1, 208401, Note_off_c, 0, 55, 60
1, 208405, Control_c, 0, 64, 77
1, 208420, Control_c, 0, 64, 71
1, 208431, Note_on_c, 0, 69, 70
1, 208435, Control_c, 0, 64, 60
1, 208442, Note_off_c, 0, 64, 60
1, 208448, Note_on_c, 0, 53, 46
1, 208448, Note_on_c, 0, 59, 46
1, 208450, Control_c, 0, 64, 0
1, 208468, Note_on_c, 0, 62, 41
1, 208591, Control_c, 0, 64, 61
1, 208606, Control_c, 0, 64, 71
1, 208621, Control_c, 0, 64, 77
1, 208636, Control_c, 0, 64, 80
1, 208651, Control_c, 0, 64, 81
1, 208664, Note_off_c, 0, 53, 57
1, 208671, Note_off_c, 0, 69, 59
1, 208784, Control_c, 0, 64, 81
1, 208828, Control_c, 0, 64, 82
1, 208861, Note_on_c, 0, 69, 66
1, 208870, Note_on_c, 0, 53, 51
1, 208871, Control_c, 0, 64, 82
1, 208901, Control_c, 0, 64, 83
1, 208904, Note_off_c, 0, 59, 39
1, 208918, Note_off_c, 0, 53, 60
1, 208949, Note_off_c, 0, 69, 56
1, 209108, Control_c, 0, 64, 82
1, 209122, Note_on_c, 0, 69, 57
1, 209123, Control_c, 0, 64, 80
1, 209126, Note_on_c, 0, 60, 44
1, 209128, Note_on_c, 0, 53, 50
1, 209138, Control_c, 0, 64, 76
1, 209152, Control_c, 0, 64, 70
1, 209163, Note_off_c, 0, 62, 40
1, 209167, Control_c, 0, 64, 56
1, 209182, Control_c, 0, 64, 0
1, 209367, Control_c, 0, 64, 53
1, 209382, Control_c, 0, 64, 66
1, 209398, Control_c, 0, 64, 69
1, 209413, Control_c, 0, 64, 71
1, 209428, Control_c, 0, 64, 73
1, 209442, Control_c, 0, 64, 74
1, 209457, Control_c, 0, 64, 76
1, 209472, Control_c, 0, 64, 77
1, 209487, Control_c, 0, 64, 78
1, 209502, Control_c, 0, 64, 78
1, 209576, Control_c, 0, 64, 78
1, 209588, Note_on_c, 0, 52, 63
1, 209588, Note_off_c, 0, 53, 58
1, 209590, Control_c, 0, 64, 76
1, 209602, Note_off_c, 0, 69, 52
1, 209605, Control_c, 0, 64, 70
1, 209610, Note_on_c, 0, 67, 52
1, 209619, Note_off_c, 0, 60, 42
1, 209620, Control_c, 0, 64, 53
1, 209634, Control_c, 0, 64, 0
1, 209724, Control_c, 0, 64, 60
1, 209739, Control_c, 0, 64, 65
1, 209754, Control_c, 0, 64, 66
1, 209768, Control_c, 0, 64, 67
1, 209783, Control_c, 0, 64, 67
1, 209798, Control_c, 0, 64, 68
1, 209846, Note_off_c, 0, 67, 51
1, 209857, Control_c, 0, 64, 67
1, 209872, Control_c, 0, 64, 65
1, 209877, Note_on_c, 0, 57, 60
1, 209887, Control_c, 0, 64, 61
1, 209892, Note_on_c, 0, 65, 40
1, 209901, Control_c, 0, 64, 10
1, 209905, Note_on_c, 0, 59, 34
1, 209909, Note_off_c, 0, 52, 57
1, 209916, Control_c, 0, 64, 0
1, 210042, Control_c, 0, 64, 60
1, 210052, Note_off_c, 0, 65, 60
1, 210057, Control_c, 0, 64, 67
1, 210072, Control_c, 0, 64, 70
1, 210087, Control_c, 0, 64, 73
1, 210102, Control_c, 0, 64, 76
1, 210116, Control_c, 0, 64, 79
1, 210131, Control_c, 0, 64, 81
1, 210146, Control_c, 0, 64, 84
1, 210160, Control_c, 0, 64, 86
1, 210174, Note_off_c, 0, 57, 54
1, 210175, Control_c, 0, 64, 88
1, 210192, Control_c, 0, 64, 90
1, 210207, Control_c, 0, 64, 92
1, 210221, Control_c, 0, 64, 95
1, 210236, Control_c, 0, 64, 97
1, 210251, Control_c, 0, 64, 99
1, 210265, Control_c, 0, 64, 100
1, 210280, Control_c, 0, 64, 101
1, 210295, Control_c, 0, 64, 103
1, 210310, Control_c, 0, 64, 104
1, 210325, Control_c, 0, 64, 105
1, 210339, Control_c, 0, 64, 106
1, 210354, Control_c, 0, 64, 106
1, 210399, Note_on_c, 0, 65, 46
1, 210406, Note_on_c, 0, 57, 54
1, 210439, Note_off_c, 0, 59, 38
1, 210474, Note_off_c, 0, 57, 50
1, 210488, Note_off_c, 0, 65, 57
1, 210675, Note_on_c, 0, 57, 45
1, 210680, Control_c, 0, 64, 105
1, 210681, Note_on_c, 0, 65, 30
1, 210694, Note_on_c, 0, 60, 35
1, 210695, Control_c, 0, 64, 100
1, 210717, Control_c, 0, 64, 89
1, 210732, Control_c, 0, 64, 77
1, 210746, Control_c, 0, 64, 62
1, 210761, Control_c, 0, 64, 0
1, 210821, Control_c, 0, 64, 61
1, 210836, Control_c, 0, 64, 67
1, 210850, Control_c, 0, 64, 70
1, 210865, Control_c, 0, 64, 72
1, 210880, Control_c, 0, 64, 74
1, 210895, Control_c, 0, 64, 76
1, 210910, Control_c, 0, 64, 77
1, 210922, Note_off_c, 0, 57, 49
1, 210925, Control_c, 0, 64, 78
1, 210939, Control_c, 0, 64, 79
1, 210969, Control_c, 0, 64, 80
1, 211014, Control_c, 0, 64, 80
1, 211169, Note_off_c, 0, 65, 43
1, 211171, Note_on_c, 0, 55, 41
1, 211175, Note_on_c, 0, 64, 60
1, 211221, Note_off_c, 0, 60, 37
1, 211481, Control_c, 0, 64, 80
1, 211484, Note_off_c, 0, 55, 43
1, 211495, Control_c, 0, 64, 78
1, 211510, Control_c, 0, 64, 74
1, 211517, Note_off_c, 0, 64, 62
1, 211524, Note_on_c, 0, 69, 60
1, 211525, Control_c, 0, 64, 68
1, 211530, Note_on_c, 0, 53, 36
1, 211540, Control_c, 0, 64, 46
1, 211553, Note_on_c, 0, 59, 29
1, 211555, Control_c, 0, 64, 0
1, 211557, Note_on_c, 0, 62, 30
1, 211688, Control_c, 0, 64, 28
1, 211703, Control_c, 0, 64, 63
1, 211718, Control_c, 0, 64, 68
1, 211725, Note_off_c, 0, 69, 62
1, 211733, Control_c, 0, 64, 70
1, 211748, Control_c, 0, 64, 73
1, 211762, Control_c, 0, 64, 75
1, 211778, Control_c, 0, 64, 77
1, 211792, Control_c, 0, 64, 78
1, 211807, Control_c, 0, 64, 79
1, 211822, Control_c, 0, 64, 80
1, 211837, Control_c, 0, 64, 80
1, 211852, Control_c, 0, 64, 81
1, 211853, Note_off_c, 0, 53, 41
1, 211867, Control_c, 0, 64, 81
1, 211882, Control_c, 0, 64, 82
1, 211926, Control_c, 0, 64, 82
1, 212000, Note_off_c, 0, 59, 32
1, 212059, Control_c, 0, 64, 83
1, 212126, Note_on_c, 0, 53, 33
1, 212132, Note_on_c, 0, 69, 54
1, 212254, Note_off_c, 0, 53, 41
1, 212266, Note_off_c, 0, 62, 51
1, 212329, Note_off_c, 0, 69, 37
1, 212600, Control_c, 0, 64, 82
1, 212615, Control_c, 0, 64, 82
1, 212630, Control_c, 0, 64, 80
1, 212643, Note_on_c, 0, 58, 28
1, 212645, Note_on_c, 0, 53, 23
1, 212645, Note_on_c, 0, 61, 35
1, 212645, Control_c, 0, 64, 77
1, 212646, Note_on_c, 0, 69, 27
1, 212660, Control_c, 0, 64, 72
1, 212675, Control_c, 0, 64, 65
1, 212690, Control_c, 0, 64, 0
1, 212852, Control_c, 0, 64, 59
1, 212867, Control_c, 0, 64, 65
1, 212882, Control_c, 0, 64, 68
1, 212897, Control_c, 0, 64, 70
1, 212912, Control_c, 0, 64, 72
1, 212926, Control_c, 0, 64, 75
1, 212941, Control_c, 0, 64, 77
1, 212964, Control_c, 0, 64, 78
1, 212978, Control_c, 0, 64, 78
1, 212993, Control_c, 0, 64, 79
1, 213008, Control_c, 0, 64, 79
1, 213023, Control_c, 0, 64, 80
1, 213408, Note_off_c, 0, 69, 41
1, 213429, Note_off_c, 0, 53, 38
1, 213438, Note_on_c, 0, 52, 33
1, 213438, Control_c, 0, 64, 79
1, 213440, Note_on_c, 0, 67, 40
1, 213453, Control_c, 0, 64, 76
1, 213468, Control_c, 0, 64, 69
1, 213483, Control_c, 0, 64, 22
1, 213498, Control_c, 0, 64, 0
1, 213601, Control_c, 0, 64, 62
1, 213616, Control_c, 0, 64, 69
1, 213631, Control_c, 0, 64, 74
1, 213646, Control_c, 0, 64, 77
1, 213661, Control_c, 0, 64, 79
1, 213675, Control_c, 0, 64, 80
1, 213690, Control_c, 0, 64, 80
1, 213711, Note_off_c, 0, 43, 40
1, 213712, Control_c, 0, 64, 82
1, 213727, Note_off_c, 0, 52, 56
1, 213727, Control_c, 0, 64, 83
1, 213742, Control_c, 0, 64, 84
1, 213753, Note_off_c, 0, 58, 39
1, 213757, Control_c, 0, 64, 84
1, 213772, Control_c, 0, 64, 85
1, 213796, Note_off_c, 0, 61, 34
1, 213801, Control_c, 0, 64, 85
1, 213846, Control_c, 0, 64, 86
1, 213989, Note_on_c, 0, 58, 55
1, 214053, Note_on_c, 0, 61, 27
1, 214179, Note_off_c, 0, 58, 57
1, 214487, Note_on_c, 0, 58, 64
1, 214764, Note_on_c, 0, 55, 60
1, 214772, Note_off_c, 0, 67, 37
1, 214773, Control_c, 0, 64, 85
1, 214775, Note_on_c, 0, 70, 51
1, 214788, Control_c, 0, 64, 83
1, 214791, Note_off_c, 0, 58, 51
1, 214793, Note_on_c, 0, 64, 44
1, 214803, Control_c, 0, 64, 79
1, 214818, Control_c, 0, 64, 72
1, 214831, Control_c, 0, 64, 48
1, 214846, Control_c, 0, 64, 0
1, 214920, Control_c, 0, 64, 22
1, 214935, Control_c, 0, 64, 62
1, 214949, Control_c, 0, 64, 66
1, 214964, Control_c, 0, 64, 69
1, 214981, Control_c, 0, 64, 70
1, 214996, Control_c, 0, 64, 72
1, 215010, Control_c, 0, 64, 73
1, 215025, Control_c, 0, 64, 75
1, 215040, Control_c, 0, 64, 76
1, 215054, Control_c, 0, 64, 76
1, 215072, Note_on_c, 0, 53, 53
1, 215173, Control_c, 0, 64, 76
1, 215188, Control_c, 0, 64, 74
1, 215210, Control_c, 0, 64, 69
1, 215225, Control_c, 0, 64, 59
1, 215233, Note_on_c, 0, 52, 63
1, 215240, Control_c, 0, 64, 0
1, 215253, Note_off_c, 0, 53, 64
1, 215302, Note_off_c, 0, 61, 35
1, 215319, Note_off_c, 0, 55, 35
1, 215343, Control_c, 0, 64, 61
1, 215358, Control_c, 0, 64, 67
1, 215373, Control_c, 0, 64, 70
1, 215387, Control_c, 0, 64, 73
1, 215402, Control_c, 0, 64, 75
1, 215417, Control_c, 0, 64, 76
1, 215432, Control_c, 0, 64, 77
1, 215447, Control_c, 0, 64, 77
1, 215497, Note_off_c, 0, 64, 50
1, 215504, Note_on_c, 0, 58, 65
1, 215522, Control_c, 0, 64, 77
1, 215528, Note_on_c, 0, 67, 45
1, 215536, Control_c, 0, 64, 74
1, 215547, Note_on_c, 0, 61, 43
1, 215551, Control_c, 0, 64, 68
1, 215552, Note_off_c, 0, 70, 35
1, 215566, Control_c, 0, 64, 44
1, 215580, Control_c, 0, 64, 0
1, 215602, Note_off_c, 0, 52, 45
1, 215640, Control_c, 0, 64, 38
1, 215654, Control_c, 0, 64, 64
1, 215669, Control_c, 0, 64, 68
1, 215684, Control_c, 0, 64, 70
1, 215699, Control_c, 0, 64, 72
1, 215714, Control_c, 0, 64, 73
1, 215728, Control_c, 0, 64, 75
1, 215743, Control_c, 0, 64, 77
1, 215758, Control_c, 0, 64, 78
1, 215774, Control_c, 0, 64, 79
1, 215785, Note_off_c, 0, 58, 60
1, 215789, Control_c, 0, 64, 79
1, 215803, Control_c, 0, 64, 80
1, 215833, Control_c, 0, 64, 80
1, 215863, Control_c, 0, 64, 81
1, 215985, Note_on_c, 0, 58, 71
1, 216252, Note_on_c, 0, 55, 64
1, 216270, Control_c, 0, 64, 80
1, 216275, Note_on_c, 0, 64, 48
1, 216275, Note_on_c, 0, 70, 44
1, 216278, Note_off_c, 0, 58, 58
1, 216285, Control_c, 0, 64, 78
1, 216300, Control_c, 0, 64, 74
1, 216314, Control_c, 0, 64, 66
1, 216329, Note_off_c, 0, 70, 0
1, 216329, Note_on_c, 0, 70, 6
1, 216329, Control_c, 0, 64, 0
1, 216342, Note_off_c, 0, 67, 31
1, 216371, Note_off_c, 0, 61, 28
1, 216433, Control_c, 0, 64, 48
1, 216448, Control_c, 0, 64, 65
1, 216463, Control_c, 0, 64, 69
1, 216477, Control_c, 0, 64, 71
1, 216492, Control_c, 0, 64, 73
1, 216507, Control_c, 0, 64, 75
1, 216522, Control_c, 0, 64, 77
1, 216537, Control_c, 0, 64, 78
1, 216551, Control_c, 0, 64, 79
1, 216612, Control_c, 0, 64, 79
1, 216732, Note_on_c, 0, 48, 73
1, 217137, Control_c, 0, 64, 78
1, 217144, Note_off_c, 0, 55, 41
1, 217148, Note_on_c, 0, 62, 78
1, 217152, Control_c, 0, 64, 75
1, 217167, Control_c, 0, 64, 68
1, 217182, Control_c, 0, 64, 0
1, 217286, Control_c, 0, 64, 61
1, 217300, Control_c, 0, 64, 66
1, 217315, Control_c, 0, 64, 70
1, 217330, Control_c, 0, 64, 72
1, 217344, Control_c, 0, 64, 73
1, 217359, Control_c, 0, 64, 75
1, 217376, Control_c, 0, 64, 76
1, 217390, Control_c, 0, 64, 77
1, 217405, Control_c, 0, 64, 78
1, 217407, Note_off_c, 0, 62, 58
1, 217420, Control_c, 0, 64, 78
1, 217435, Control_c, 0, 64, 79
1, 217456, Control_c, 0, 64, 79
1, 217471, Control_c, 0, 64, 80
1, 217501, Control_c, 0, 64, 80
1, 217590, Control_c, 0, 64, 81
1, 217612, Note_on_c, 0, 62, 86
1, 217748, Note_off_c, 0, 62, 57
1, 217767, Note_off_c, 0, 64, 38
1, 217874, Note_on_c, 0, 62, 79
1, 217886, Note_on_c, 0, 65, 56
1, 217917, Control_c, 0, 64, 79
1, 217931, Control_c, 0, 64, 74
1, 217946, Control_c, 0, 64, 66
1, 217961, Control_c, 0, 64, 0
1, 218020, Control_c, 0, 64, 33
1, 218035, Control_c, 0, 64, 63
1, 218049, Control_c, 0, 64, 67
1, 218064, Control_c, 0, 64, 68
1, 218079, Control_c, 0, 64, 69
1, 218094, Control_c, 0, 64, 70
1, 218109, Control_c, 0, 64, 71
1, 218124, Control_c, 0, 64, 73
1, 218139, Control_c, 0, 64, 75
1, 218145, Note_off_c, 0, 62, 55
1, 218154, Control_c, 0, 64, 76
1, 218169, Control_c, 0, 64, 76
1, 218205, Note_off_c, 0, 70, 37
1, 218221, Control_c, 0, 64, 77
1, 218266, Control_c, 0, 64, 77
1, 218295, Note_on_c, 0, 69, 81
1, 218315, Note_on_c, 0, 60, 60
1, 218325, Control_c, 0, 64, 78
1, 218384, Control_c, 0, 64, 78
1, 218432, Note_off_c, 0, 65, 38
1, 218458, Control_c, 0, 64, 79
1, 218532, Control_c, 0, 64, 78
1, 218547, Control_c, 0, 64, 77
1, 218562, Control_c, 0, 64, 73
1, 218577, Control_c, 0, 64, 65
1, 218580, Note_on_c, 0, 74, 78
1, 218592, Control_c, 0, 64, 0
1, 218593, Note_off_c, 0, 69, 64
1, 218595, Note_off_c, 0, 60, 55
1, 218598, Note_on_c, 0, 64, 58
1, 218598, Note_on_c, 0, 67, 58
1, 218610, Note_on_c, 0, 58, 53
1, 218725, Control_c, 0, 64, 50
1, 218740, Control_c, 0, 64, 66
1, 218754, Control_c, 0, 64, 71
1, 218769, Control_c, 0, 64, 75
1, 218784, Control_c, 0, 64, 77
1, 218798, Control_c, 0, 64, 79
1, 218813, Control_c, 0, 64, 81
1, 218828, Control_c, 0, 64, 83
1, 218836, Note_off_c, 0, 58, 59
1, 218840, Note_off_c, 0, 74, 58
1, 218843, Control_c, 0, 64, 85
1, 218858, Control_c, 0, 64, 86
1, 218872, Control_c, 0, 64, 88
1, 218872, Control_c, 0, 67, 107
1, 218887, Control_c, 0, 64, 89
1, 218887, Control_c, 0, 67, 82
1, 218902, Control_c, 0, 64, 90
1, 218902, Control_c, 0, 67, 54
1, 218917, Control_c, 0, 64, 90
1, 218917, Control_c, 0, 67, 29
1, 218932, Control_c, 0, 64, 91
1, 218932, Control_c, 0, 67, 8
1, 218954, Control_c, 0, 64, 91
1, 218954, Control_c, 0, 67, 0
1, 219000, Control_c, 0, 64, 92
1, 219036, Note_on_c, 0, 74, 79
1, 219063, Note_on_c, 0, 58, 49
1, 219092, Note_off_c, 0, 64, 60
1, 219114, Note_off_c, 0, 58, 61
1, 219170, Note_off_c, 0, 74, 53
1, 219310, Control_c, 0, 64, 91
1, 219313, Note_on_c, 0, 74, 66
1, 219317, Note_on_c, 0, 58, 50
1, 219325, Note_on_c, 0, 65, 61
1, 219325, Control_c, 0, 64, 88
1, 219340, Control_c, 0, 64, 82
1, 219355, Control_c, 0, 64, 74
1, 219369, Control_c, 0, 64, 57
1, 219373, Note_off_c, 0, 67, 43
1, 219384, Control_c, 0, 64, 0
1, 219458, Control_c, 0, 64, 62
1, 219473, Control_c, 0, 64, 68
1, 219488, Control_c, 0, 64, 73
1, 219502, Control_c, 0, 64, 76
1, 219516, Note_off_c, 0, 58, 61
1, 219517, Control_c, 0, 64, 78
1, 219532, Control_c, 0, 64, 79
1, 219546, Control_c, 0, 64, 80
1, 219561, Control_c, 0, 64, 80
1, 219576, Control_c, 0, 64, 81
1, 219591, Control_c, 0, 64, 82
1, 219620, Control_c, 0, 64, 82
1, 219650, Control_c, 0, 64, 83
1, 219661, Note_off_c, 0, 48, 49
1, 219671, Note_on_c, 0, 57, 52
1, 219702, Control_c, 0, 64, 83
1, 219717, Control_c, 0, 64, 84
1, 219728, Note_on_c, 0, 72, 74
1, 219746, Control_c, 0, 64, 84
1, 219760, Note_off_c, 0, 74, 53
1, 219778, Control_c, 0, 64, 85
1, 219792, Note_off_c, 0, 65, 56
1, 219817, Note_on_c, 0, 48, 67
1, 219822, Control_c, 0, 64, 85
1, 220029, Control_c, 0, 64, 85
1, 220044, Control_c, 0, 64, 84
1, 220058, Note_on_c, 0, 62, 82
1, 220059, Control_c, 0, 64, 82
1, 220065, Note_on_c, 0, 70, 65
1, 220073, Control_c, 0, 64, 76
1, 220078, Note_off_c, 0, 57, 56
1, 220079, Note_on_c, 0, 64, 49
1, 220084, Note_off_c, 0, 72, 56
1, 220088, Control_c, 0, 64, 55
1, 220103, Control_c, 0, 64, 0
1, 220207, Control_c, 0, 64, 60
1, 220222, Control_c, 0, 64, 70
1, 220236, Control_c, 0, 64, 77
1, 220251, Control_c, 0, 64, 83
1, 220266, Control_c, 0, 64, 86
1, 220281, Control_c, 0, 64, 88
1, 220294, Note_off_c, 0, 62, 62
1, 220296, Control_c, 0, 64, 89
1, 220297, Note_off_c, 0, 70, 52
1, 220311, Control_c, 0, 64, 91
1, 220325, Control_c, 0, 64, 93
1, 220340, Control_c, 0, 64, 95
1, 220355, Control_c, 0, 64, 96
1, 220369, Control_c, 0, 64, 97
1, 220384, Control_c, 0, 64, 98
1, 220399, Control_c, 0, 64, 98
1, 220414, Control_c, 0, 64, 99
1, 220429, Control_c, 0, 64, 100
1, 220451, Control_c, 0, 64, 100
1, 220466, Control_c, 0, 64, 101
1, 220479, Note_on_c, 0, 70, 72
1, 220481, Note_on_c, 0, 62, 83
1, 220481, Control_c, 0, 64, 102
1, 220507, Note_off_c, 0, 64, 54
1, 220511, Control_c, 0, 64, 102
1, 220525, Control_c, 0, 64, 103
1, 220532, Note_off_c, 0, 70, 60
1, 220558, Note_off_c, 0, 62, 60
1, 220571, Control_c, 0, 64, 103
1, 220586, Control_c, 0, 64, 104
1, 220600, Control_c, 0, 64, 104
1, 220615, Control_c, 0, 64, 105
1, 220630, Control_c, 0, 64, 105
1, 220645, Control_c, 0, 64, 106
1, 220674, Control_c, 0, 64, 106
1, 220689, Control_c, 0, 64, 107
1, 220723, Note_on_c, 0, 62, 75
1, 220727, Note_on_c, 0, 70, 64
1, 220733, Note_on_c, 0, 65, 55
1, 220748, Control_c, 0, 64, 104
1, 220763, Control_c, 0, 64, 92
1, 220778, Control_c, 0, 64, 77
1, 220792, Control_c, 0, 64, 51
1, 220807, Control_c, 0, 64, 0
1, 220853, Control_c, 0, 64, 61
1, 220867, Control_c, 0, 64, 70
1, 220882, Control_c, 0, 64, 77
1, 220897, Control_c, 0, 64, 82
1, 220912, Control_c, 0, 64, 82
1, 220923, Note_off_c, 0, 62, 56
1, 220927, Control_c, 0, 64, 83
1, 220941, Control_c, 0, 64, 84
1, 220956, Control_c, 0, 64, 86
1, 220971, Control_c, 0, 64, 87
1, 220986, Control_c, 0, 64, 88
1, 221000, Control_c, 0, 64, 89
1, 221005, Note_off_c, 0, 70, 35
1, 221015, Control_c, 0, 64, 90
1, 221030, Control_c, 0, 64, 90
1, 221045, Control_c, 0, 64, 91
1, 221060, Control_c, 0, 64, 92
1, 221075, Control_c, 0, 64, 92
1, 221090, Control_c, 0, 64, 93
1, 221099, Note_on_c, 0, 69, 84
1, 221105, Control_c, 0, 64, 94
1, 221111, Note_on_c, 0, 60, 66
1, 221120, Control_c, 0, 64, 95
1, 221134, Control_c, 0, 64, 97
1, 221149, Control_c, 0, 64, 99
1, 221164, Control_c, 0, 64, 101
1, 221179, Control_c, 0, 64, 103
1, 221198, Note_off_c, 0, 65, 54
1, 221200, Control_c, 0, 64, 104
1, 221215, Control_c, 0, 64, 105
1, 221230, Control_c, 0, 64, 106
1, 221245, Control_c, 0, 64, 107
1, 221260, Control_c, 0, 64, 108
1, 221275, Control_c, 0, 64, 108
1, 221334, Control_c, 0, 64, 104
1, 221349, Control_c, 0, 64, 91
1, 221364, Note_off_c, 0, 60, 52
1, 221364, Control_c, 0, 64, 71
1, 221369, Note_off_c, 0, 69, 64
1, 221371, Note_on_c, 0, 74, 86
1, 221379, Note_on_c, 0, 58, 52
1, 221379, Control_c, 0, 64, 0
1, 221387, Note_on_c, 0, 67, 66
1, 221389, Note_on_c, 0, 64, 63
1, 221528, Control_c, 0, 64, 72
1, 221543, Control_c, 0, 64, 90
1, 221558, Control_c, 0, 64, 105
1, 221562, Note_off_c, 0, 74, 62
1, 221570, Control_c, 0, 64, 107
1, 221573, Note_off_c, 0, 58, 62
1, 221585, Control_c, 0, 64, 107
1, 221600, Control_c, 0, 64, 109
1, 221615, Control_c, 0, 64, 113
1, 221629, Control_c, 0, 64, 116
1, 221644, Control_c, 0, 64, 119
1, 221659, Control_c, 0, 64, 122
1, 221674, Control_c, 0, 64, 126
1, 221689, Control_c, 0, 64, 127
1, 221715, Note_on_c, 0, 74, 93
1, 221730, Note_on_c, 0, 58, 56
1, 221766, Note_off_c, 0, 64, 63
1, 221798, Note_off_c, 0, 58, 59
1, 221807, Note_off_c, 0, 74, 62
1, 221826, Note_off_c, 0, 67, 57
1, 221981, Note_on_c, 0, 58, 52
1, 222013, Note_on_c, 0, 74, 94
1, 222015, Note_on_c, 0, 66, 74
1, 222019, Note_on_c, 0, 63, 68
1, 222037, Control_c, 0, 64, 103
1, 222052, Control_c, 0, 64, 79
1, 222067, Control_c, 0, 64, 0
1, 222109, Note_off_c, 0, 66, 66
1, 222111, Control_c, 0, 64, 66
1, 222126, Control_c, 0, 64, 80
1, 222140, Control_c, 0, 64, 94
1, 222143, Note_off_c, 0, 58, 58
1, 222155, Control_c, 0, 64, 99
1, 222172, Note_off_c, 0, 48, 61
1, 222172, Control_c, 0, 64, 100
1, 222181, Note_off_c, 0, 74, 63
1, 222194, Note_off_c, 0, 63, 61
1, 222201, Control_c, 0, 64, 102
1, 222216, Control_c, 0, 64, 104
1, 222231, Control_c, 0, 64, 108
1, 222245, Control_c, 0, 64, 111
1, 222260, Control_c, 0, 64, 114
1, 222275, Control_c, 0, 64, 117
1, 222290, Control_c, 0, 64, 122
1, 222305, Control_c, 0, 64, 127
1, 222360, Note_on_c, 0, 72, 86
1, 222372, Note_on_c, 0, 57, 69
1, 222449, Note_off_c, 0, 72, 59
1, 222601, Control_c, 0, 64, 113
1, 222604, Note_on_c, 0, 78, 91
1, 222610, Note_on_c, 0, 69, 67
1, 222610, Note_on_c, 0, 63, 80
1, 222612, Note_on_c, 0, 51, 76
1, 222614, Note_on_c, 0, 66, 73
1, 222616, Control_c, 0, 64, 86
1, 222626, Note_off_c, 0, 57, 35
1, 222631, Control_c, 0, 64, 65
1, 222645, Control_c, 0, 64, 0
1, 222651, Note_off_c, 0, 69, 65
1, 222675, Control_c, 0, 64, 66
1, 222697, Control_c, 0, 64, 82
1, 222707, Note_off_c, 0, 51, 63
1, 222711, Note_off_c, 0, 63, 64
1, 222712, Control_c, 0, 64, 97
1, 222726, Control_c, 0, 64, 105
1, 222732, Note_off_c, 0, 66, 59
1, 222741, Control_c, 0, 64, 106
1, 222747, Note_off_c, 0, 78, 59
1, 222771, Control_c, 0, 64, 107
1, 222786, Control_c, 0, 64, 110
1, 222801, Control_c, 0, 64, 114
1, 222816, Control_c, 0, 64, 118
1, 222831, Control_c, 0, 64, 123
1, 222840, Note_on_c, 0, 79, 77
1, 222843, Note_on_c, 0, 72, 69
1, 222846, Control_c, 0, 64, 127
1, 222846, Note_on_c, 0, 67, 71
1, 222865, Note_off_c, 0, 79, 66
1, 222872, Note_off_c, 0, 67, 68
1, 222887, Note_off_c, 0, 72, 62
1, 222920, Note_on_c, 0, 63, 76
1, 222930, Note_on_c, 0, 51, 71
1, 222931, Note_on_c, 0, 80, 94
1, 222932, Note_on_c, 0, 68, 84
1, 222935, Note_on_c, 0, 72, 72
1, 222956, Note_off_c, 0, 51, 67
1, 222959, Note_off_c, 0, 63, 60
1, 222986, Note_off_c, 0, 72, 61
1, 223008, Note_off_c, 0, 68, 63
1, 223013, Note_off_c, 0, 80, 64
1, 223114, Control_c, 0, 64, 91
1, 223129, Control_c, 0, 64, 38
1, 223132, Note_on_c, 0, 60, 88
1, 223135, Note_on_c, 0, 48, 85
1, 223135, Note_on_c, 0, 81, 100
1, 223139, Note_on_c, 0, 69, 90
1, 223143, Control_c, 0, 64, 0
1, 223146, Note_on_c, 0, 75, 78
1, 223148, Note_on_c, 0, 78, 82
1, 223173, Control_c, 0, 64, 54
1, 223177, Note_off_c, 0, 60, 64
1, 223182, Note_off_c, 0, 48, 64
1, 223187, Control_c, 0, 64, 90
1, 223191, Note_off_c, 0, 69, 58
1, 223202, Control_c, 0, 64, 127
1, 223217, Note_off_c, 0, 81, 62
1, 223232, Note_off_c, 0, 75, 62
1, 223296, Note_off_c, 0, 78, 62
1, 223340, Note_on_c, 0, 75, 84
1, 223341, Note_on_c, 0, 70, 83
1, 223348, Note_on_c, 0, 58, 77
1, 223348, Note_on_c, 0, 82, 74
1, 223361, Note_on_c, 0, 46, 62
1, 223362, Note_off_c, 0, 70, 71
1, 223362, Note_off_c, 0, 75, 70
1, 223363, Note_off_c, 0, 82, 68
1, 223371, Note_off_c, 0, 58, 71
1, 223383, Note_off_c, 0, 46, 58
1, 223416, Note_on_c, 0, 83, 88
1, 223417, Note_on_c, 0, 45, 85
1, 223418, Note_on_c, 0, 71, 79
1, 223419, Note_on_c, 0, 57, 91
1, 223422, Note_on_c, 0, 75, 79
1, 223449, Note_off_c, 0, 45, 70
1, 223462, Note_off_c, 0, 57, 64
1, 223465, Note_off_c, 0, 75, 50
1, 223484, Note_off_c, 0, 71, 50
1, 223491, Note_off_c, 0, 83, 59
1, 223580, Control_c, 0, 64, 114
1, 223594, Control_c, 0, 64, 100
1, 223609, Control_c, 0, 64, 77
1, 223611, Note_on_c, 0, 66, 101
1, 223611, Note_on_c, 0, 84, 95
1, 223615, Note_on_c, 0, 72, 92
1, 223618, Note_on_c, 0, 54, 90
1, 223624, Control_c, 0, 64, 27
1, 223639, Control_c, 0, 64, 0
1, 223641, Note_off_c, 0, 54, 69
1, 223648, Note_off_c, 0, 66, 68
1, 223654, Control_c, 0, 64, 61
1, 223655, Note_off_c, 0, 72, 65
1, 223668, Note_off_c, 0, 84, 63
1, 223668, Control_c, 0, 64, 80
1, 223683, Control_c, 0, 64, 103
1, 223698, Control_c, 0, 64, 127
1, 223814, Note_on_c, 0, 85, 91
1, 223816, Note_on_c, 0, 73, 86
1, 223837, Note_off_c, 0, 73, 68
1, 223880, Note_off_c, 0, 85, 40
1, 223888, Note_on_c, 0, 66, 97
1, 223893, Note_on_c, 0, 86, 91
1, 223895, Note_on_c, 0, 54, 91
1, 223900, Note_on_c, 0, 74, 76
1, 223916, Note_off_c, 0, 54, 67
1, 223927, Note_off_c, 0, 66, 66
1, 223944, Note_off_c, 0, 74, 61
1, 223955, Note_off_c, 0, 86, 63
1, 224071, Control_c, 0, 64, 100
1, 224085, Control_c, 0, 64, 73
1, 224089, Note_on_c, 0, 87, 98
1, 224092, Note_on_c, 0, 75, 94
1, 224095, Note_on_c, 0, 63, 106
1, 224095, Note_on_c, 0, 81, 75
1, 224096, Note_on_c, 0, 78, 62
1, 224099, Note_on_c, 0, 51, 95
1, 224100, Control_c, 0, 64, 0
1, 224115, Control_c, 0, 64, 56
1, 224124, Note_off_c, 0, 78, 64
1, 224125, Note_off_c, 0, 81, 59
1, 224130, Control_c, 0, 64, 75
1, 224132, Note_off_c, 0, 63, 68
1, 224134, Note_off_c, 0, 51, 61
1, 224144, Control_c, 0, 64, 96
1, 224159, Control_c, 0, 64, 127
1, 224160, Note_off_c, 0, 75, 65
1, 224191, Note_off_c, 0, 87, 61
1, 224298, Note_on_c, 0, 61, 92
1, 224306, Note_on_c, 0, 49, 77
1, 224307, Note_on_c, 0, 76, 84
1, 224307, Note_on_c, 0, 88, 90
1, 224309, Note_on_c, 0, 81, 87
1, 224317, Note_off_c, 0, 61, 71
1, 224324, Note_off_c, 0, 49, 65
1, 224327, Note_off_c, 0, 88, 66
1, 224328, Note_off_c, 0, 76, 67
1, 224333, Note_off_c, 0, 81, 61
1, 224375, Note_on_c, 0, 48, 98
1, 224379, Note_on_c, 0, 60, 84
1, 224387, Note_on_c, 0, 89, 98
1, 224388, Note_on_c, 0, 77, 90
1, 224390, Note_on_c, 0, 81, 89
1, 224398, Note_off_c, 0, 48, 69
1, 224399, Note_off_c, 0, 60, 70
1, 224435, Note_off_c, 0, 81, 60
1, 224442, Note_off_c, 0, 77, 59
1, 224449, Note_off_c, 0, 89, 65
1, 224522, Control_c, 0, 64, 117
1, 224536, Control_c, 0, 64, 80
1, 224550, Note_on_c, 0, 60, 99
1, 224550, Note_on_c, 0, 72, 100
1, 224551, Control_c, 0, 64, 0
1, 224554, Note_on_c, 0, 78, 99
1, 224555, Note_on_c, 0, 90, 99
1, 224569, Note_off_c, 0, 72, 72
1, 224575, Note_off_c, 0, 60, 64
1, 224583, Control_c, 0, 64, 35
1, 224595, Note_off_c, 0, 90, 67
1, 224597, Control_c, 0, 64, 75
1, 224599, Note_off_c, 0, 78, 62
1, 224612, Control_c, 0, 64, 97
1, 224627, Control_c, 0, 64, 127
1, 224769, Note_on_c, 0, 91, 100
1, 224774, Note_on_c, 0, 79, 90
1, 224806, Note_off_c, 0, 79, 62
1, 224811, Note_off_c, 0, 91, 63
1, 224869, Note_on_c, 0, 54, 101
1, 224870, Note_on_c, 0, 92, 104
1, 224872, Note_on_c, 0, 80, 93
1, 224873, Note_on_c, 0, 42, 93
1, 224897, Note_off_c, 0, 54, 64
1, 224897, Note_off_c, 0, 42, 68
1, 224925, Note_off_c, 0, 80, 61
1, 224926, Note_off_c, 0, 92, 67
1, 224998, Poly_aftertouch_c, 0, 41, 0
1, 225078, Control_c, 0, 64, 94
1, 225091, Note_on_c, 0, 81, 101
1, 225093, Control_c, 0, 64, 64
1, 225095, Note_on_c, 0, 87, 99
1, 225096, Note_on_c, 0, 93, 86
1, 225105, Note_on_c, 0, 91, 71
1, 225106, Note_on_c, 0, 54, 103
1, 225108, Note_on_c, 0, 42, 102
1, 225108, Control_c, 0, 64, 0
1, 225113, Note_off_c, 0, 93, 70
1, 225122, Note_off_c, 0, 87, 66
1, 225125, Note_on_c, 0, 53, 71
1, 225126, Note_off_c, 0, 53, 127
1, 225127, Note_off_c, 0, 91, 60
1, 225128, Note_on_c, 0, 55, 65
1, 225132, Note_off_c, 0, 81, 62
1, 225138, Control_c, 0, 64, 73
1, 225141, Note_off_c, 0, 42, 64
1, 225144, Note_off_c, 0, 54, 63
1, 225149, Note_off_c, 0, 55, 64
1, 225153, Control_c, 0, 64, 98
1, 225167, Control_c, 0, 64, 127
1, 225370, Note_on_c, 0, 77, 94
1, 225370, Note_on_c, 0, 53, 93
1, 225373, Note_on_c, 0, 41, 87
1, 225378, Note_on_c, 0, 65, 85
1, 225391, Note_off_c, 0, 53, 70
1, 225401, Note_off_c, 0, 65, 69
1, 225402, Note_off_c, 0, 41, 69
1, 225412, Note_off_c, 0, 77, 64
1, 225463, Control_c, 0, 64, 88
1, 225467, Note_on_c, 0, 75, 97
1, 225469, Note_on_c, 0, 63, 90
1, 225471, Note_on_c, 0, 51, 100
1, 225474, Note_on_c, 0, 39, 86
1, 225478, Control_c, 0, 64, 0
1, 225500, Note_off_c, 0, 39, 68
1, 225501, Note_off_c, 0, 63, 67
1, 225505, Note_off_c, 0, 51, 60
1, 225528, Note_off_c, 0, 75, 63
1, 225537, Control_c, 0, 64, 75
1, 225552, Control_c, 0, 64, 101
1, 225567, Control_c, 0, 64, 127
1, 225642, Control_c, 0, 64, 108
1, 225656, Control_c, 0, 64, 74
1, 225671, Control_c, 0, 64, 0
1, 225693, Note_on_c, 0, 81, 105
1, 225695, Note_on_c, 0, 57, 100
1, 225696, Note_on_c, 0, 45, 93
1, 225696, Note_on_c, 0, 69, 108
1, 225723, Control_c, 0, 64, 65
1, 225726, Note_off_c, 0, 45, 67
1, 225728, Note_off_c, 0, 57, 63
1, 225737, Control_c, 0, 64, 105
1, 225740, Note_off_c, 0, 69, 66
1, 225752, Control_c, 0, 64, 127
1, 225787, Note_off_c, 0, 81, 64
1, 225916, Control_c, 0, 64, 93
1, 225931, Control_c, 0, 64, 0
1, 226160, Note_on_c, 0, 74, 97
1, 226161, Note_on_c, 0, 86, 101
1, 226164, Note_on_c, 0, 84, 96
1, 226170, Note_on_c, 0, 42, 100
1, 226174, Note_on_c, 0, 30, 94
1, 226183, Control_c, 0, 64, 127
1, 226199, Note_off_c, 0, 42, 66
1, 226205, Note_off_c, 0, 30, 64
1, 226257, Note_off_c, 0, 74, 61
1, 226283, Note_off_c, 0, 86, 35
1, 226308, Note_off_c, 0, 84, 56
1, 226484, Note_on_c, 0, 86, 105
1, 226484, Note_on_c, 0, 79, 90
1, 226485, Note_on_c, 0, 74, 94
1, 226488, Note_on_c, 0, 82, 93
1, 226492, Note_on_c, 0, 43, 104
1, 226494, Note_on_c, 0, 31, 90
1, 226531, Control_c, 0, 64, 117
1, 226545, Control_c, 0, 64, 87
1, 226560, Control_c, 0, 64, 26
1, 226575, Control_c, 0, 64, 0
1, 226649, Control_c, 0, 64, 76
1, 226658, Note_off_c, 0, 86, 64
1, 226664, Control_c, 0, 64, 99
1, 226677, Note_off_c, 0, 31, 63
1, 226679, Control_c, 0, 64, 127
1, 226681, Note_off_c, 0, 79, 63
1, 226701, Note_off_c, 0, 82, 63
1, 226702, Note_off_c, 0, 74, 62
1, 226718, Note_off_c, 0, 43, 58
1, 226910, Note_on_c, 0, 82, 93
1, 226913, Note_on_c, 0, 70, 95
1, 226925, Note_on_c, 0, 50, 79
1, 226927, Note_on_c, 0, 38, 72
1, 226944, Note_on_c, 0, 52, 41
1, 226950, Note_off_c, 0, 50, 68
1, 226951, Note_on_c, 0, 74, 19
1, 226953, Note_off_c, 0, 82, 68
1, 226958, Note_off_c, 0, 38, 64
1, 226958, Note_off_c, 0, 70, 63
1, 226975, Note_off_c, 0, 52, 57
1, 226989, Note_off_c, 0, 74, 43
1, 227124, Control_c, 0, 64, 97
1, 227130, Note_on_c, 0, 79, 97
1, 227133, Note_on_c, 0, 67, 94
1, 227135, Note_on_c, 0, 55, 92
1, 227135, Note_on_c, 0, 70, 68
1, 227139, Control_c, 0, 64, 69
1, 227140, Note_on_c, 0, 74, 66
1, 227141, Note_on_c, 0, 43, 83
1, 227153, Control_c, 0, 64, 0
1, 227191, Control_c, 0, 64, 10
1, 227204, Note_off_c, 0, 55, 62
1, 227206, Control_c, 0, 64, 72
1, 227213, Note_off_c, 0, 70, 60
1, 227215, Note_off_c, 0, 43, 61
1, 227221, Control_c, 0, 64, 88
1, 227233, Note_off_c, 0, 67, 61
1, 227235, Control_c, 0, 64, 110
1, 227250, Control_c, 0, 64, 121
1, 227255, Note_off_c, 0, 79, 54
1, 227260, Note_off_c, 0, 74, 66
1, 227265, Control_c, 0, 64, 121
1, 227280, Control_c, 0, 64, 123
1, 227295, Control_c, 0, 64, 126
1, 227309, Control_c, 0, 64, 127
1, 227475, Note_on_c, 0, 81, 96
1, 227479, Note_on_c, 0, 69, 87
1, 227480, Note_on_c, 0, 74, 84
1, 227484, Note_on_c, 0, 53, 90
1, 227486, Note_on_c, 0, 41, 87
1, 227507, Note_off_c, 0, 53, 69
1, 227516, Note_off_c, 0, 41, 70
1, 227525, Note_off_c, 0, 69, 63
1, 227528, Note_off_c, 0, 74, 62
1, 227546, Note_off_c, 0, 81, 63
1, 227666, Control_c, 0, 64, 92
1, 227680, Control_c, 0, 64, 62
1, 227682, Note_on_c, 0, 82, 92
1, 227684, Note_on_c, 0, 70, 94
1, 227687, Note_on_c, 0, 52, 95
1, 227692, Note_on_c, 0, 74, 76
1, 227693, Note_on_c, 0, 40, 88
1, 227694, Note_on_c, 0, 79, 72
1, 227695, Control_c, 0, 64, 0
1, 227725, Control_c, 0, 64, 49
1, 227725, Note_off_c, 0, 52, 66
1, 227728, Note_off_c, 0, 74, 63
1, 227730, Note_off_c, 0, 40, 65
1, 227740, Control_c, 0, 64, 79
1, 227750, Note_off_c, 0, 82, 67
1, 227755, Control_c, 0, 64, 98
1, 227756, Note_off_c, 0, 79, 62
1, 227770, Control_c, 0, 64, 127
1, 227801, Poly_aftertouch_c, 0, 42, 0
1, 227801, Note_off_c, 0, 70, 59
1, 227875, Note_on_c, 0, 50, 91
1, 227887, Note_on_c, 0, 38, 71
1, 227898, Note_off_c, 0, 50, 68
1, 227900, Note_on_c, 0, 42, 41
1, 227910, Note_off_c, 0, 38, 61
1, 227938, Note_off_c, 0, 42, 55
1, 227962, Note_on_c, 0, 67, 92
1, 227965, Note_on_c, 0, 79, 87
1, 227966, Note_on_c, 0, 49, 68
1, 227970, Note_on_c, 0, 37, 68
1, 227984, Note_on_c, 0, 48, 65
1, 227987, Note_off_c, 0, 49, 61
1, 227987, Note_off_c, 0, 79, 64
1, 227996, Note_off_c, 0, 37, 65
1, 228003, Note_off_c, 0, 67, 65
1, 228006, Note_off_c, 0, 48, 62
1, 228104, Note_on_c, 0, 66, 44
1, 228128, Note_off_c, 0, 66, 59
1, 228134, Control_c, 0, 64, 78
1, 228148, Control_c, 0, 64, 0
1, 228166, Note_on_c, 0, 46, 91
1, 228166, Note_on_c, 0, 58, 97
1, 228169, Note_on_c, 0, 64, 89
1, 228170, Note_on_c, 0, 76, 93
1, 228177, Note_on_c, 0, 73, 88
1, 228205, Note_off_c, 0, 46, 65
1, 228205, Note_off_c, 0, 64, 65
1, 228206, Note_off_c, 0, 58, 67
1, 228207, Control_c, 0, 64, 75
1, 228222, Note_off_c, 0, 76, 62
1, 228222, Control_c, 0, 64, 98
1, 228237, Control_c, 0, 64, 127
1, 228244, Note_off_c, 0, 73, 61
1, 228450, Note_on_c, 0, 78, 97
1, 228452, Note_on_c, 0, 66, 95
1, 228456, Note_on_c, 0, 45, 90
1, 228462, Note_on_c, 0, 72, 80
1, 228464, Note_on_c, 0, 57, 67
1, 228483, Note_off_c, 0, 57, 61
1, 228489, Note_off_c, 0, 45, 65
1, 228531, Note_off_c, 0, 66, 64
1, 228546, Note_off_c, 0, 78, 60
1, 228627, Note_off_c, 0, 72, 62
1, 228638, Control_c, 0, 64, 88
1, 228652, Control_c, 0, 64, 0
1, 228654, Note_on_c, 0, 79, 99
1, 228655, Note_on_c, 0, 67, 96
1, 228664, Note_on_c, 0, 46, 89
1, 228666, Note_on_c, 0, 74, 77
1, 228688, Note_on_c, 0, 37, 62
1, 228689, Note_off_c, 0, 37, 127
1, 228692, Note_off_c, 0, 74, 72
1, 228693, Note_on_c, 0, 35, 63
1, 228704, Control_c, 0, 64, 60
1, 228709, Note_off_c, 0, 46, 64
1, 228719, Note_off_c, 0, 35, 58
1, 228719, Control_c, 0, 64, 79
1, 228723, Note_off_c, 0, 79, 65
1, 228733, Control_c, 0, 64, 99
1, 228739, Note_off_c, 0, 67, 61
1, 228748, Control_c, 0, 64, 125
1, 228763, Control_c, 0, 64, 127
1, 228853, Note_on_c, 0, 45, 94
1, 228867, Note_on_c, 0, 33, 73
1, 228882, Note_off_c, 0, 45, 65
1, 228889, Note_off_c, 0, 33, 64
1, 228929, Note_on_c, 0, 43, 97
1, 228930, Note_on_c, 0, 31, 93
1, 228938, Note_on_c, 0, 76, 78
1, 228939, Note_on_c, 0, 64, 80
1, 228939, Note_on_c, 0, 70, 85
1, 228957, Note_off_c, 0, 31, 67
1, 228968, Note_off_c, 0, 43, 63
1, 228969, Note_off_c, 0, 64, 65
1, 228969, Note_off_c, 0, 70, 61
1, 228983, Note_off_c, 0, 76, 64
1, 229133, Control_c, 0, 64, 89
1, 229148, Control_c, 0, 64, 0
1, 229166, Note_on_c, 0, 52, 96
1, 229167, Note_on_c, 0, 73, 94
1, 229171, Note_on_c, 0, 61, 89
1, 229180, Note_on_c, 0, 40, 79
1, 229180, Note_on_c, 0, 38, 78
1, 229182, Note_on_c, 0, 70, 79
1, 229183, Note_on_c, 0, 67, 73
1, 229207, Note_off_c, 0, 38, 65
1, 229207, Control_c, 0, 64, 70
1, 229222, Control_c, 0, 64, 84
1, 229228, Note_off_c, 0, 40, 63
1, 229235, Note_off_c, 0, 52, 65
1, 229237, Control_c, 0, 64, 100
1, 229252, Control_c, 0, 64, 109
1, 229267, Control_c, 0, 64, 110
1, 229281, Control_c, 0, 64, 111
1, 229284, Note_off_c, 0, 61, 50
1, 229296, Control_c, 0, 64, 112
1, 229311, Note_off_c, 0, 67, 50
1, 229311, Note_off_c, 0, 73, 58
1, 229311, Control_c, 0, 64, 114
1, 229326, Control_c, 0, 64, 118
1, 229341, Control_c, 0, 64, 126
1, 229356, Control_c, 0, 64, 127
1, 229490, Note_off_c, 0, 70, 0
1, 229498, Note_on_c, 0, 74, 94
1, 229498, Control_c, 0, 64, 116
1, 229502, Note_on_c, 0, 62, 91
1, 229502, Note_on_c, 0, 50, 89
1, 229502, Note_on_c, 0, 70, 59
1, 229506, Note_on_c, 0, 38, 88
1, 229508, Note_on_c, 0, 67, 83
1, 229512, Control_c, 0, 64, 90
1, 229527, Control_c, 0, 64, 76
1, 229535, Note_off_c, 0, 50, 62
1, 229537, Note_off_c, 0, 38, 67
1, 229542, Control_c, 0, 64, 73
1, 229556, Control_c, 0, 64, 83
1, 229560, Note_off_c, 0, 62, 55
1, 229571, Control_c, 0, 64, 102
1, 229580, Note_off_c, 0, 74, 61
1, 229583, Note_off_c, 0, 70, 63
1, 229586, Control_c, 0, 64, 127
1, 229594, Note_off_c, 0, 67, 58
1, 229690, Control_c, 0, 64, 108
1, 229705, Control_c, 0, 64, 73
1, 229720, Control_c, 0, 64, 0
1, 229728, Note_on_c, 0, 75, 100
1, 229729, Note_on_c, 0, 63, 88
1, 229732, Note_on_c, 0, 49, 99
1, 229735, Note_on_c, 0, 67, 84
1, 229741, Note_on_c, 0, 37, 85
1, 229744, Note_on_c, 0, 69, 74
1, 229764, Control_c, 0, 64, 58
1, 229779, Control_c, 0, 64, 70
1, 229794, Control_c, 0, 64, 65
1, 229805, Note_off_c, 0, 67, 57
1, 229808, Control_c, 0, 64, 0
1, 229813, Note_off_c, 0, 69, 55
1, 229815, Note_off_c, 0, 63, 66
1, 229848, Note_off_c, 0, 75, 62
1, 229909, Note_on_c, 0, 76, 100
1, 229913, Note_on_c, 0, 64, 94
1, 229913, Note_on_c, 0, 67, 89
1, 229913, Note_on_c, 0, 69, 73
1, 229941, Control_c, 0, 64, 66
1, 229955, Control_c, 0, 64, 91
1, 229970, Control_c, 0, 64, 106
1, 229985, Control_c, 0, 64, 108
1, 230015, Note_off_c, 0, 37, 63
1, 230015, Control_c, 0, 64, 108
1, 230033, Note_off_c, 0, 49, 60
1, 230045, Control_c, 0, 64, 109
1, 230094, Note_on_c, 0, 48, 87
1, 230098, Note_on_c, 0, 36, 78
1, 230140, Note_off_c, 0, 48, 64
1, 230143, Note_off_c, 0, 36, 62
1, 230201, Control_c, 0, 64, 109
1, 230231, Control_c, 0, 64, 110
1, 230246, Control_c, 0, 64, 111
1, 230260, Control_c, 0, 64, 113
1, 230264, Note_on_c, 0, 47, 89
1, 230266, Note_on_c, 0, 35, 91
1, 230275, Control_c, 0, 64, 116
1, 230290, Control_c, 0, 64, 120
1, 230296, Note_off_c, 0, 47, 65
1, 230301, Note_off_c, 0, 35, 65
1, 230305, Control_c, 0, 64, 125
1, 230320, Control_c, 0, 64, 127
1, 230331, Note_off_c, 0, 69, 63
1, 230338, Note_off_c, 0, 67, 58
1, 230355, Note_off_c, 0, 64, 54
1, 230414, Note_on_c, 0, 46, 94
1, 230420, Note_on_c, 0, 34, 92
1, 230427, Note_off_c, 0, 76, 64
1, 230481, Note_off_c, 0, 46, 62
1, 230492, Note_off_c, 0, 34, 63
1, 230557, Note_on_c, 0, 45, 100
1, 230561, Note_on_c, 0, 33, 94
1, 230650, Note_off_c, 0, 33, 64
1, 230665, Note_off_c, 0, 45, 58
1, 230676, Control_c, 0, 64, 101
1, 230691, Control_c, 0, 64, 68
1, 230705, Control_c, 0, 64, 0
1, 230715, Note_on_c, 0, 45, 97
1, 230716, Note_on_c, 0, 33, 85
1, 230721, Note_on_c, 0, 93, 99
1, 230730, Note_on_c, 0, 89, 85
1, 230745, Note_off_c, 0, 33, 71
1, 230750, Control_c, 0, 64, 68
1, 230765, Note_off_c, 0, 45, 67
1, 230765, Control_c, 0, 64, 87
1, 230779, Control_c, 0, 64, 116
1, 230794, Control_c, 0, 64, 127
1, 230831, Note_on_c, 0, 88, 73
1, 230833, Note_off_c, 0, 93, 60
1, 230876, Note_off_c, 0, 89, 61
1, 230897, Note_on_c, 0, 86, 78
1, 230919, Note_on_c, 0, 50, 77
1, 230931, Note_on_c, 0, 38, 71
1, 230936, Note_off_c, 0, 88, 62
1, 230959, Note_off_c, 0, 86, 63
1, 230964, Note_off_c, 0, 38, 64
1, 230965, Note_off_c, 0, 50, 57
1, 230980, Note_on_c, 0, 81, 73
1, 231003, Note_off_c, 0, 81, 67
1, 231059, Note_on_c, 0, 52, 98
1, 231064, Note_on_c, 0, 40, 88
1, 231073, Note_on_c, 0, 81, 70
1, 231082, Note_on_c, 0, 77, 67
1, 231094, Note_off_c, 0, 40, 67
1, 231100, Note_off_c, 0, 52, 67
1, 231130, Note_on_c, 0, 76, 76
1, 231131, Note_off_c, 0, 81, 59
1, 231168, Note_off_c, 0, 77, 59
1, 231173, Control_c, 0, 64, 99
1, 231186, Note_on_c, 0, 74, 78
1, 231188, Control_c, 0, 64, 63
1, 231202, Control_c, 0, 64, 0
1, 231204, Note_on_c, 0, 53, 99
1, 231207, Note_on_c, 0, 41, 93
1, 231211, Note_off_c, 0, 76, 64
1, 231240, Note_off_c, 0, 74, 65
1, 231247, Control_c, 0, 64, 68
1, 231255, Note_off_c, 0, 41, 64
1, 231258, Note_on_c, 0, 69, 81
1, 231262, Control_c, 0, 64, 84
1, 231276, Control_c, 0, 64, 110
1, 231282, Note_off_c, 0, 53, 64
1, 231287, Note_off_c, 0, 69, 65
1, 231291, Control_c, 0, 64, 127
1, 231347, Note_on_c, 0, 69, 72
1, 231350, Note_on_c, 0, 65, 79
1, 231365, Control_c, 0, 64, 127
1, 231380, Control_c, 0, 64, 96
1, 231394, Note_on_c, 0, 64, 73
1, 231395, Control_c, 0, 64, 70
1, 231410, Control_c, 0, 64, 0
1, 231417, Note_off_c, 0, 69, 62
1, 231428, Note_off_c, 0, 65, 66
1, 231440, Note_on_c, 0, 62, 65
1, 231452, Note_off_c, 0, 64, 64
1, 231482, Note_off_c, 0, 62, 63
1, 231502, Note_on_c, 0, 57, 67
1, 231531, Note_off_c, 0, 57, 67
1, 231607, Note_on_c, 0, 58, 79
1, 231612, Note_on_c, 0, 55, 71
1, 231632, Control_c, 0, 64, 91
1, 231647, Control_c, 0, 64, 127
1, 231651, Note_off_c, 0, 55, 60
1, 231659, Note_on_c, 0, 61, 55
1, 231666, Note_off_c, 0, 58, 64
1, 231696, Note_off_c, 0, 61, 65
1, 231703, Note_on_c, 0, 45, 60
1, 231714, Note_on_c, 0, 70, 62
1, 231735, Note_off_c, 0, 45, 56
1, 231744, Note_off_c, 0, 70, 64
1, 231766, Note_on_c, 0, 61, 86
1, 231802, Note_on_c, 0, 58, 69
1, 231803, Note_off_c, 0, 61, 64
1, 231825, Note_off_c, 0, 58, 70
1, 231845, Note_on_c, 0, 73, 71
1, 231870, Note_on_c, 0, 56, 50
1, 231871, Note_off_c, 0, 56, 127
1, 231871, Note_off_c, 0, 73, 68
1, 231894, Note_on_c, 0, 55, 59
1, 231901, Note_on_c, 0, 64, 79
1, 231920, Note_off_c, 0, 55, 56
1, 231937, Note_on_c, 0, 45, 72
1, 231941, Note_off_c, 0, 64, 65
1, 231965, Note_off_c, 0, 45, 65
1, 231966, Note_on_c, 0, 76, 91
1, 232005, Note_off_c, 0, 76, 70
1, 232031, Note_on_c, 0, 61, 81
1, 232040, Note_on_c, 0, 67, 81
1, 232058, Note_off_c, 0, 61, 65
1, 232067, Note_off_c, 0, 67, 60
1, 232094, Note_on_c, 0, 79, 76
1, 232125, Note_off_c, 0, 79, 63
1, 232133, Note_on_c, 0, 45, 84
1, 232155, Note_off_c, 0, 45, 67
1, 232161, Note_on_c, 0, 70, 85
1, 232191, Note_off_c, 0, 70, 62
1, 232224, Note_on_c, 0, 64, 70
1, 232238, Poly_aftertouch_c, 0, 47, 127
1, 232242, Note_on_c, 0, 82, 8
1, 232243, Note_off_c, 0, 82, 127
1, 232247, Note_off_c, 0, 64, 65
1, 232265, Poly_aftertouch_c, 0, 47, 0
1, 232271, Note_on_c, 0, 73, 82
1, 232292, Note_off_c, 0, 73, 69
1, 232325, Note_on_c, 0, 85, 76
1, 232337, Note_on_c, 0, 83, 71
1, 232346, Note_off_c, 0, 85, 71
1, 232358, Note_off_c, 0, 83, 68
1, 232411, Control_c, 0, 64, 95
1, 232432, Control_c, 0, 64, 0
1, 232474, Note_on_c, 0, 33, 87
1, 232475, Note_on_c, 0, 45, 86
1, 232492, Note_on_c, 0, 93, 106
1, 232492, Control_c, 0, 64, 80
1, 232498, Note_on_c, 0, 89, 89
1, 232503, Note_off_c, 0, 33, 70
1, 232506, Note_off_c, 0, 45, 64
1, 232507, Control_c, 0, 64, 127
1, 232577, Note_on_c, 0, 88, 89
1, 232587, Note_off_c, 0, 93, 58
1, 232617, Note_off_c, 0, 89, 63
1, 232628, Note_on_c, 0, 86, 79
1, 232641, Note_on_c, 0, 50, 78
1, 232642, Note_on_c, 0, 38, 73
1, 232661, Note_off_c, 0, 88, 63
1, 232665, Note_off_c, 0, 50, 67
1, 232666, Note_off_c, 0, 38, 64
1, 232686, Note_off_c, 0, 86, 63
1, 232695, Note_on_c, 0, 81, 82
1, 232727, Note_off_c, 0, 81, 57
1, 232765, Note_on_c, 0, 52, 97
1, 232768, Note_on_c, 0, 40, 90
1, 232799, Note_off_c, 0, 40, 68
1, 232804, Note_off_c, 0, 52, 65
1, 232819, Note_on_c, 0, 77, 36
1, 232832, Note_on_c, 0, 76, 65
1, 232838, Note_on_c, 0, 81, 12
1, 232856, Note_off_c, 0, 77, 62
1, 232863, Control_c, 0, 64, 116
1, 232878, Control_c, 0, 64, 84
1, 232886, Note_off_c, 0, 81, 33
1, 232893, Control_c, 0, 64, 48
1, 232897, Note_on_c, 0, 74, 69
1, 232900, Note_on_c, 0, 53, 93
1, 232901, Note_off_c, 0, 76, 66
1, 232907, Control_c, 0, 64, 0
1, 232909, Note_on_c, 0, 41, 76
1, 232917, Note_on_c, 0, 40, 70
1, 232922, Control_c, 0, 64, 44
1, 232937, Control_c, 0, 64, 73
1, 232939, Note_off_c, 0, 40, 62
1, 232942, Note_on_c, 0, 52, 31
1, 232943, Note_off_c, 0, 52, 127
1, 232943, Note_off_c, 0, 74, 64
1, 232952, Control_c, 0, 64, 90
1, 232964, Note_off_c, 0, 41, 65
1, 232967, Control_c, 0, 64, 110
1, 232969, Note_on_c, 0, 69, 73
1, 232981, Control_c, 0, 64, 122
1, 232993, Note_off_c, 0, 69, 72
1, 232996, Control_c, 0, 64, 124
1, 232997, Note_off_c, 0, 53, 62
1, 233011, Control_c, 0, 64, 125
1, 233026, Control_c, 0, 64, 127
1, 233048, Note_on_c, 0, 69, 82
1, 233052, Note_on_c, 0, 65, 84
1, 233092, Note_on_c, 0, 64, 78
1, 233100, Control_c, 0, 64, 121
1, 233115, Control_c, 0, 64, 98
1, 233124, Note_off_c, 0, 69, 62
1, 233130, Control_c, 0, 64, 76
1, 233132, Note_off_c, 0, 65, 66
1, 233136, Note_on_c, 0, 62, 79
1, 233145, Control_c, 0, 64, 0
1, 233160, Note_off_c, 0, 64, 64
1, 233198, Note_off_c, 0, 62, 61
1, 233201, Note_on_c, 0, 57, 81
1, 233237, Note_off_c, 0, 57, 64
1, 233309, Note_on_c, 0, 58, 82
1, 233310, Note_on_c, 0, 61, 85
1, 233329, Control_c, 0, 64, 94
1, 233337, Note_off_c, 0, 58, 68
1, 233344, Control_c, 0, 64, 127
1, 233370, Note_off_c, 0, 61, 63
1, 233374, Note_on_c, 0, 64, 39
1, 233393, Note_on_c, 0, 73, 76
1, 233395, Note_on_c, 0, 55, 47
1, 233409, Note_off_c, 0, 64, 64
1, 233429, Note_on_c, 0, 45, 74
1, 233447, Note_off_c, 0, 55, 39
1, 233458, Note_off_c, 0, 73, 62
1, 233463, Note_off_c, 0, 45, 65
1, 233480, Note_on_c, 0, 64, 82
1, 233522, Note_off_c, 0, 64, 64
1, 233531, Note_on_c, 0, 67, 53
1, 233538, Note_on_c, 0, 61, 83
1, 233550, Note_on_c, 0, 76, 83
1, 233562, Note_off_c, 0, 67, 64
1, 233565, Note_off_c, 0, 61, 62
1, 233592, Note_off_c, 0, 76, 67
1, 233592, Note_on_c, 0, 55, 58
1, 233610, Note_on_c, 0, 67, 85
1, 233652, Note_off_c, 0, 67, 63
1, 233669, Note_on_c, 0, 45, 65
1, 233675, Note_on_c, 0, 79, 85
1, 233688, Note_off_c, 0, 45, 67
1, 233696, Note_off_c, 0, 79, 68
1, 233698, Note_off_c, 0, 55, 0
1, 233708, Note_on_c, 0, 47, 44
1, 233723, Note_on_c, 0, 55, 9
1, 233741, Note_on_c, 0, 70, 91
1, 233743, Note_off_c, 0, 47, 55
1, 233759, Note_off_c, 0, 55, 50
1, 233768, Note_on_c, 0, 64, 81
1, 233782, Note_off_c, 0, 70, 63
1, 233790, Note_off_c, 0, 64, 72
1, 233800, Note_on_c, 0, 82, 81
1, 233827, Note_off_c, 0, 82, 63
1, 233864, Note_on_c, 0, 73, 88
1, 233869, Note_on_c, 0, 45, 80
1, 233891, Note_off_c, 0, 45, 71
1, 233902, Note_off_c, 0, 73, 63
1, 233952, Note_on_c, 0, 86, 51
1, 233973, Note_on_c, 0, 76, 89
1, 233973, Note_off_c, 0, 86, 57
1, 233979, Note_on_c, 0, 65, 68
1, 234006, Note_off_c, 0, 65, 68
1, 234013, Note_off_c, 0, 76, 71
1, 234045, Note_on_c, 0, 88, 96
1, 234050, Note_on_c, 0, 79, 76
1, 234064, Note_off_c, 0, 79, 67
1, 234084, Note_off_c, 0, 88, 65
1, 234153, Control_c, 0, 64, 116
1, 234168, Control_c, 0, 64, 78
1, 234183, Control_c, 0, 64, 0
1, 234234, Note_on_c, 0, 45, 93
1, 234235, Note_on_c, 0, 33, 85
1, 234254, Note_on_c, 0, 98, 102
1, 234257, Note_on_c, 0, 89, 97
1, 234257, Control_c, 0, 64, 87
1, 234264, Note_off_c, 0, 33, 71
1, 234272, Control_c, 0, 64, 127
1, 234284, Note_off_c, 0, 45, 64
1, 234305, Note_off_c, 0, 89, 57
1, 234346, Note_on_c, 0, 93, 88
1, 234354, Note_on_c, 0, 89, 7
1, 234359, Note_off_c, 0, 98, 59
1, 234418, Note_off_c, 0, 89, 0
1, 234418, Note_on_c, 0, 89, 42
1, 234435, Note_off_c, 0, 93, 61
1, 234435, Note_on_c, 0, 38, 74
1, 234436, Note_on_c, 0, 50, 77
1, 234464, Note_off_c, 0, 50, 65
1, 234468, Note_off_c, 0, 38, 64
1, 234469, Note_off_c, 0, 89, 65
1, 234492, Note_on_c, 0, 86, 49
1, 234515, Note_off_c, 0, 86, 56
1, 234548, Note_on_c, 0, 93, 76
1, 234549, Note_on_c, 0, 86, 68
1, 234557, Note_on_c, 0, 52, 86
1, 234561, Note_on_c, 0, 40, 82
1, 234584, Note_off_c, 0, 52, 64
1, 234589, Note_off_c, 0, 40, 65
1, 234603, Note_off_c, 0, 86, 62
1, 234617, Note_off_c, 0, 93, 55
1, 234622, Note_on_c, 0, 89, 77
1, 234656, Control_c, 0, 64, 113
1, 234679, Control_c, 0, 64, 92
1, 234683, Note_on_c, 0, 55, 95
1, 234685, Note_on_c, 0, 86, 62
1, 234688, Note_on_c, 0, 43, 84
1, 234694, Control_c, 0, 64, 77
1, 234708, Control_c, 0, 64, 71
1, 234717, Note_off_c, 0, 55, 67
1, 234719, Note_off_c, 0, 43, 67
1, 234723, Control_c, 0, 64, 75
1, 234724, Note_off_c, 0, 89, 64
1, 234725, Note_off_c, 0, 86, 63
1, 234736, Note_on_c, 0, 81, 82
1, 234738, Control_c, 0, 64, 85
1, 234752, Control_c, 0, 64, 96
1, 234767, Control_c, 0, 64, 105
1, 234781, Note_off_c, 0, 81, 60
1, 234782, Control_c, 0, 64, 109
1, 234797, Control_c, 0, 64, 110
1, 234801, Note_on_c, 0, 53, 94
1, 234805, Note_on_c, 0, 41, 86
1, 234808, Note_on_c, 0, 81, 69
1, 234812, Control_c, 0, 64, 111
1, 234816, Note_on_c, 0, 89, 74
1, 234820, Note_off_c, 0, 53, 72
1, 234826, Control_c, 0, 64, 112
1, 234827, Note_off_c, 0, 41, 68
1, 234841, Control_c, 0, 64, 113
1, 234852, Note_on_c, 0, 44, 4
1, 234862, Note_off_c, 0, 81, 57
1, 234871, Control_c, 0, 64, 113
1, 234885, Note_off_c, 0, 89, 63
1, 234886, Control_c, 0, 64, 114
1, 234891, Note_on_c, 0, 86, 76
1, 234909, Note_off_c, 0, 44, 0
1, 234915, Control_c, 0, 64, 114
1, 234922, Note_on_c, 0, 56, 98
1, 234923, Note_on_c, 0, 44, 61
1, 234930, Control_c, 0, 64, 116
1, 234946, Control_c, 0, 64, 117
1, 234950, Note_on_c, 0, 81, 67
1, 234955, Note_off_c, 0, 44, 63
1, 234956, Note_off_c, 0, 56, 66
1, 234961, Control_c, 0, 64, 120
1, 234972, Note_off_c, 0, 86, 61
1, 234975, Control_c, 0, 64, 124
1, 234990, Control_c, 0, 64, 127
1, 234997, Note_off_c, 0, 81, 59
1, 234999, Note_on_c, 0, 77, 76
1, 235020, Note_off_c, 0, 77, 69
1, 235046, Note_on_c, 0, 58, 97
1, 235052, Note_on_c, 0, 46, 93
1, 235063, Note_on_c, 0, 77, 70
1, 235064, Control_c, 0, 64, 105
1, 235070, Note_on_c, 0, 86, 76
1, 235079, Control_c, 0, 64, 86
1, 235090, Note_off_c, 0, 46, 60
1, 235091, Note_off_c, 0, 58, 64
1, 235094, Control_c, 0, 64, 71
1, 235109, Control_c, 0, 64, 62
1, 235124, Control_c, 0, 64, 68
1, 235128, Note_off_c, 0, 77, 58
1, 235129, Note_off_c, 0, 86, 61
1, 235133, Note_on_c, 0, 81, 76
1, 235139, Control_c, 0, 64, 78
1, 235154, Control_c, 0, 64, 89
1, 235163, Note_on_c, 0, 57, 92
1, 235167, Note_on_c, 0, 45, 87
1, 235168, Control_c, 0, 64, 97
1, 235176, Note_on_c, 0, 77, 56
1, 235183, Control_c, 0, 64, 101
1, 235196, Note_off_c, 0, 57, 64
1, 235198, Control_c, 0, 64, 103
1, 235201, Note_off_c, 0, 45, 66
1, 235204, Note_off_c, 0, 81, 61
1, 235213, Control_c, 0, 64, 104
1, 235239, Note_off_c, 0, 77, 62
1, 235242, Note_on_c, 0, 74, 71
1, 235257, Control_c, 0, 64, 104
1, 235262, Note_off_c, 0, 74, 73
1, 235287, Note_on_c, 0, 61, 102
1, 235287, Control_c, 0, 64, 105
1, 235291, Note_on_c, 0, 49, 90
1, 235302, Control_c, 0, 64, 107
1, 235316, Control_c, 0, 64, 110
1, 235321, Note_off_c, 0, 49, 63
1, 235324, Note_off_c, 0, 61, 64
1, 235326, Note_on_c, 0, 81, 72
1, 235331, Note_on_c, 0, 74, 65
1, 235331, Control_c, 0, 64, 114
1, 235346, Control_c, 0, 64, 119
1, 235361, Control_c, 0, 64, 127
1, 235384, Note_off_c, 0, 74, 64
1, 235406, Note_off_c, 0, 81, 59
1, 235414, Note_on_c, 0, 77, 70
1, 235428, Note_on_c, 0, 64, 98
1, 235431, Note_on_c, 0, 52, 101
1, 235472, Control_c, 0, 64, 104
1, 235473, Note_on_c, 0, 74, 35
1, 235479, Note_off_c, 0, 64, 63
1, 235486, Note_on_c, 0, 54, 5
1, 235487, Control_c, 0, 64, 97
1, 235489, Note_off_c, 0, 52, 62
1, 235499, Note_off_c, 0, 77, 61
1, 235502, Note_off_c, 0, 74, 52
1, 235514, Note_on_c, 0, 69, 72
1, 235516, Control_c, 0, 64, 101
1, 235531, Control_c, 0, 64, 114
1, 235532, Note_off_c, 0, 54, 35
1, 235538, Note_off_c, 0, 69, 69
1, 235546, Control_c, 0, 64, 127
1, 235565, Note_on_c, 0, 62, 105
1, 235574, Note_on_c, 0, 50, 93
1, 235575, Control_c, 0, 64, 106
1, 235583, Note_on_c, 0, 52, 78
1, 235589, Note_on_c, 0, 77, 85
1, 235590, Note_on_c, 0, 69, 81
1, 235590, Control_c, 0, 64, 77
1, 235605, Control_c, 0, 64, 0
1, 235608, Note_off_c, 0, 52, 52
1, 235633, Note_off_c, 0, 69, 58
1, 235649, Control_c, 0, 64, 62
1, 235660, Note_off_c, 0, 62, 59
1, 235664, Control_c, 0, 64, 80
1, 235675, Note_on_c, 0, 74, 75
1, 235679, Control_c, 0, 64, 105
1, 235693, Control_c, 0, 64, 125
1, 235703, Note_off_c, 0, 77, 57
1, 235708, Control_c, 0, 64, 127
1, 235722, Note_off_c, 0, 50, 63
1, 235746, Note_on_c, 0, 69, 68
1, 235759, Note_off_c, 0, 74, 62
1, 235784, Note_off_c, 0, 69, 61
1, 235813, Note_on_c, 0, 65, 73
1, 235864, Note_off_c, 0, 65, 65
1, 235931, Control_c, 0, 64, 118
1, 235944, Note_on_c, 0, 74, 87
1, 235946, Control_c, 0, 64, 88
1, 235948, Note_on_c, 0, 65, 78
1, 235949, Note_on_c, 0, 44, 103
1, 235953, Note_on_c, 0, 32, 97
1, 235961, Control_c, 0, 64, 68
1, 235976, Control_c, 0, 64, 65
1, 235982, Note_off_c, 0, 32, 69
1, 235990, Control_c, 0, 64, 74
1, 235991, Note_off_c, 0, 44, 64
1, 236005, Control_c, 0, 64, 88
1, 236020, Control_c, 0, 64, 103
1, 236035, Control_c, 0, 64, 112
1, 236045, Note_off_c, 0, 65, 63
1, 236050, Control_c, 0, 64, 113
1, 236053, Note_on_c, 0, 71, 71
1, 236064, Control_c, 0, 64, 114
1, 236070, Note_off_c, 0, 74, 57
1, 236079, Control_c, 0, 64, 114
1, 236094, Control_c, 0, 64, 115
1, 236109, Control_c, 0, 64, 115
1, 236123, Control_c, 0, 64, 116
1, 236137, Note_on_c, 0, 50, 96
1, 236138, Note_on_c, 0, 38, 90
1, 236138, Control_c, 0, 64, 117
1, 236141, Note_off_c, 0, 71, 58
1, 236151, Note_on_c, 0, 65, 58
1, 236153, Control_c, 0, 64, 119
1, 236176, Control_c, 0, 64, 123
1, 236177, Note_off_c, 0, 38, 66
1, 236182, Note_off_c, 0, 50, 65
1, 236183, Note_off_c, 0, 65, 63
1, 236191, Control_c, 0, 64, 127
1, 236191, Note_on_c, 0, 62, 66
1, 236219, Note_off_c, 0, 62, 62
1, 236276, Note_on_c, 0, 52, 101
1, 236278, Note_on_c, 0, 71, 68
1, 236279, Note_on_c, 0, 62, 75
1, 236281, Note_on_c, 0, 40, 92
1, 236310, Note_off_c, 0, 52, 70
1, 236313, Note_off_c, 0, 40, 66
1, 236328, Note_off_c, 0, 62, 54
1, 236349, Note_off_c, 0, 71, 60
1, 236352, Note_on_c, 0, 65, 64
1, 236383, Control_c, 0, 64, 95
1, 236397, Control_c, 0, 64, 67
1, 236400, Note_on_c, 0, 53, 103
1, 236404, Note_on_c, 0, 41, 104
1, 236407, Note_off_c, 0, 65, 63
1, 236412, Control_c, 0, 64, 0
1, 236414, Note_on_c, 0, 62, 54
1, 236439, Note_off_c, 0, 62, 56
1, 236442, Control_c, 0, 64, 40
1, 236457, Control_c, 0, 64, 69
1, 236471, Control_c, 0, 64, 80
1, 236472, Note_on_c, 0, 59, 59
1, 236486, Control_c, 0, 64, 93
1, 236493, Note_off_c, 0, 59, 60
1, 236501, Control_c, 0, 64, 100
1, 236514, Note_off_c, 0, 53, 45
1, 236516, Control_c, 0, 64, 102
1, 236531, Control_c, 0, 64, 103
1, 236546, Control_c, 0, 64, 104
1, 236549, Note_on_c, 0, 65, 75
1, 236555, Note_off_c, 0, 41, 61
1, 236558, Note_on_c, 0, 59, 77
1, 236561, Control_c, 0, 64, 105
1, 236576, Control_c, 0, 64, 106
1, 236591, Note_off_c, 0, 59, 59
1, 236591, Control_c, 0, 64, 107
1, 236598, Note_on_c, 0, 46, 37
1, 236606, Control_c, 0, 64, 109
1, 236620, Control_c, 0, 64, 113
1, 236632, Note_off_c, 0, 46, 50
1, 236635, Note_on_c, 0, 62, 75
1, 236635, Control_c, 0, 64, 119
1, 236645, Note_off_c, 0, 65, 57
1, 236650, Control_c, 0, 64, 127
1, 236694, Note_on_c, 0, 59, 64
1, 236713, Note_off_c, 0, 62, 61
1, 236749, Note_off_c, 0, 59, 58
1, 236768, Note_on_c, 0, 53, 70
1, 236900, Note_off_c, 0, 53, 58
1, 236951, Note_on_c, 0, 44, 113
1, 236953, Note_on_c, 0, 65, 88
1, 236960, Note_on_c, 0, 59, 83
1, 236963, Note_on_c, 0, 32, 94
1, 236969, Control_c, 0, 64, 111
1, 236984, Control_c, 0, 64, 84
1, 236999, Control_c, 0, 64, 60
1, 237013, Control_c, 0, 64, 0
1, 237043, Control_c, 0, 64, 57
1, 237057, Note_off_c, 0, 59, 60
1, 237058, Control_c, 0, 64, 72
1, 237072, Note_on_c, 0, 62, 73
1, 237072, Control_c, 0, 64, 82
1, 237087, Control_c, 0, 64, 91
1, 237097, Note_off_c, 0, 65, 56
1, 237102, Control_c, 0, 64, 94
1, 237117, Control_c, 0, 64, 96
1, 237132, Control_c, 0, 64, 97
1, 237146, Control_c, 0, 64, 99
1, 237155, Note_on_c, 0, 59, 75
1, 237161, Control_c, 0, 64, 102
1, 237176, Control_c, 0, 64, 104
1, 237191, Control_c, 0, 64, 107
1, 237196, Note_off_c, 0, 62, 59
1, 237206, Control_c, 0, 64, 110
1, 237220, Control_c, 0, 64, 113
1, 237226, Note_on_c, 0, 52, 81
1, 237235, Control_c, 0, 64, 117
1, 237250, Control_c, 0, 64, 122
1, 237254, Note_off_c, 0, 59, 60
1, 237264, Control_c, 0, 64, 127
1, 237276, Note_off_c, 0, 32, 57
1, 237311, Note_on_c, 0, 65, 88
1, 237315, Note_on_c, 0, 59, 79
1, 237330, Note_off_c, 0, 52, 65
1, 237358, Note_off_c, 0, 44, 62
1, 237398, Note_off_c, 0, 59, 58
1, 237402, Note_on_c, 0, 62, 79
1, 237439, Note_off_c, 0, 65, 59
1, 237488, Note_on_c, 0, 59, 72
1, 237505, Note_off_c, 0, 62, 62
1, 237543, Note_off_c, 0, 59, 62
1, 237571, Note_on_c, 0, 52, 74
1, 237706, Note_on_c, 0, 48, 102
1, 237710, Note_on_c, 0, 64, 82
1, 237711, Note_on_c, 0, 36, 94
1, 237718, Control_c, 0, 64, 100
1, 237720, Note_on_c, 0, 56, 82
1, 237733, Control_c, 0, 64, 75
1, 237748, Control_c, 0, 64, 44
1, 237763, Control_c, 0, 64, 52
1, 237777, Control_c, 0, 64, 70
1, 237792, Control_c, 0, 64, 90
1, 237806, Note_off_c, 0, 56, 58
1, 237807, Control_c, 0, 64, 117
1, 237820, Note_on_c, 0, 59, 78
1, 237822, Control_c, 0, 64, 127
1, 237832, Note_off_c, 0, 48, 57
1, 237837, Note_off_c, 0, 36, 60
1, 237854, Note_off_c, 0, 52, 27
1, 237866, Note_off_c, 0, 64, 61
1, 237916, Note_on_c, 0, 47, 106
1, 237921, Note_on_c, 0, 35, 96
1, 237940, Note_on_c, 0, 56, 83
1, 237956, Control_c, 0, 64, 92
1, 237970, Control_c, 0, 64, 51
1, 237985, Control_c, 0, 64, 0
1, 238027, Note_on_c, 0, 52, 79
1, 238044, Control_c, 0, 64, 66
1, 238048, Note_off_c, 0, 56, 63
1, 238054, Note_off_c, 0, 52, 70
1, 238059, Control_c, 0, 64, 86
1, 238074, Control_c, 0, 64, 111
1, 238079, Note_off_c, 0, 59, 64
1, 238088, Control_c, 0, 64, 127
1, 238102, Note_off_c, 0, 47, 49
1, 238198, Note_off_c, 0, 35, 55
1, 238238, Control_c, 0, 64, 87
1, 238253, Control_c, 0, 64, 0
1, 238259, Note_on_c, 0, 45, 108
1, 238262, Note_on_c, 0, 33, 90
1, 238309, Note_off_c, 0, 33, 65
1, 238311, Note_on_c, 0, 93, 91
1, 238320, Note_on_c, 0, 89, 78
1, 238326, Control_c, 0, 64, 69
1, 238341, Control_c, 0, 64, 96
1, 238344, Note_off_c, 0, 45, 65
1, 238356, Control_c, 0, 64, 127
1, 238421, Note_on_c, 0, 88, 82
1, 238430, Note_off_c, 0, 93, 61
1, 238463, Note_off_c, 0, 89, 64
1, 238490, Note_on_c, 0, 84, 79
1, 238495, Note_on_c, 0, 52, 95
1, 238503, Note_on_c, 0, 40, 75
1, 238516, Note_off_c, 0, 88, 62
1, 238525, Note_off_c, 0, 40, 62
1, 238533, Note_off_c, 0, 52, 65
1, 238558, Note_off_c, 0, 84, 62
1, 238564, Note_on_c, 0, 81, 67
1, 238591, Note_off_c, 0, 81, 64
1, 238594, Note_on_c, 0, 79, 24
1, 238629, Note_on_c, 0, 59, 100
1, 238633, Note_off_c, 0, 79, 32
1, 238633, Note_on_c, 0, 47, 90
1, 238662, Note_off_c, 0, 47, 67
1, 238668, Note_off_c, 0, 59, 66
1, 238673, Note_on_c, 0, 81, 47
1, 238698, Note_off_c, 0, 81, 54
1, 238700, Note_on_c, 0, 77, 30
1, 238704, Note_on_c, 0, 76, 65
1, 238719, Control_c, 0, 64, 99
1, 238734, Control_c, 0, 64, 67
1, 238734, Note_off_c, 0, 77, 39
1, 238749, Control_c, 0, 64, 0
1, 238749, Note_off_c, 0, 76, 62
1, 238759, Note_on_c, 0, 72, 64
1, 238761, Note_on_c, 0, 60, 107
1, 238764, Note_on_c, 0, 48, 96
1, 238779, Control_c, 0, 64, 27
1, 238780, Note_off_c, 0, 72, 63
1, 238793, Control_c, 0, 64, 76
1, 238808, Control_c, 0, 64, 103
1, 238814, Note_on_c, 0, 69, 72
1, 238823, Control_c, 0, 64, 127
1, 238841, Note_off_c, 0, 69, 70
1, 238863, Note_off_c, 0, 60, 51
1, 238863, Note_off_c, 0, 48, 63
1, 238907, Note_on_c, 0, 69, 75
1, 238913, Note_on_c, 0, 65, 74
1, 238957, Control_c, 0, 64, 124
1, 238957, Note_on_c, 0, 64, 75
1, 238972, Control_c, 0, 64, 87
1, 238987, Note_off_c, 0, 69, 65
1, 238987, Control_c, 0, 64, 52
1, 238990, Note_off_c, 0, 65, 65
1, 239002, Note_on_c, 0, 60, 69
1, 239002, Control_c, 0, 64, 0
1, 239011, Note_off_c, 0, 64, 65
1, 239047, Note_off_c, 0, 60, 50
1, 239061, Note_on_c, 0, 57, 78
1, 239097, Note_off_c, 0, 57, 64
1, 239172, Note_on_c, 0, 53, 60
1, 239186, Note_on_c, 0, 58, 67
1, 239202, Control_c, 0, 64, 65
1, 239211, Note_on_c, 0, 57, 60
1, 239216, Control_c, 0, 64, 127
1, 239220, Note_on_c, 0, 50, 52
1, 239221, Note_on_c, 0, 45, 59
1, 239227, Note_off_c, 0, 58, 49
1, 239231, Note_on_c, 0, 59, 24
1, 239235, Note_on_c, 0, 60, 37
1, 239236, Note_off_c, 0, 57, 58
1, 239256, Note_on_c, 0, 68, 79
1, 239260, Note_off_c, 0, 50, 59
1, 239264, Note_off_c, 0, 60, 55
1, 239267, Note_off_c, 0, 59, 57
1, 239267, Note_off_c, 0, 53, 60
1, 239307, Note_off_c, 0, 68, 63
1, 239312, Note_on_c, 0, 56, 78
1, 239326, Note_off_c, 0, 45, 59
1, 239336, Note_on_c, 0, 59, 79
1, 239360, Note_off_c, 0, 56, 63
1, 239379, Note_off_c, 0, 59, 59
1, 239393, Note_on_c, 0, 62, 57
1, 239399, Note_on_c, 0, 53, 69
1, 239400, Note_on_c, 0, 71, 79
1, 239414, Note_off_c, 0, 62, 61
1, 239451, Note_off_c, 0, 71, 60
1, 239455, Note_on_c, 0, 45, 69
1, 239468, Note_on_c, 0, 62, 90
1, 239494, Note_off_c, 0, 45, 58
1, 239524, Note_off_c, 0, 62, 62
1, 239537, Note_on_c, 0, 65, 56
1, 239539, Note_on_c, 0, 74, 87
1, 239542, Note_on_c, 0, 59, 78
1, 239559, Note_off_c, 0, 65, 62
1, 239584, Note_off_c, 0, 74, 66
1, 239595, Note_off_c, 0, 59, 61
1, 239601, Note_on_c, 0, 65, 81
1, 239648, Note_off_c, 0, 65, 65
1, 239656, Note_on_c, 0, 45, 77
1, 239669, Note_on_c, 0, 77, 84
1, 239670, Note_off_c, 0, 53, 52
1, 239689, Note_off_c, 0, 77, 67
1, 239692, Note_off_c, 0, 45, 60
1, 239727, Note_on_c, 0, 68, 93
1, 239750, Note_on_c, 0, 62, 74
1, 239774, Note_off_c, 0, 62, 66
1, 239777, Note_off_c, 0, 68, 65
1, 239809, Note_on_c, 0, 80, 55
1, 239828, Note_off_c, 0, 80, 63
1, 239839, Note_on_c, 0, 71, 87
1, 239852, Poly_aftertouch_c, 0, 60, 0
1, 239873, Note_off_c, 0, 71, 65
1, 239888, Note_on_c, 0, 83, 88
1, 239889, Note_on_c, 0, 74, 44
1, 239918, Note_off_c, 0, 74, 62
1, 239920, Note_off_c, 0, 83, 62
1, 239923, Note_on_c, 0, 79, 43
1, 239950, Note_off_c, 0, 79, 36
1, 239965, Control_c, 0, 64, 90
1, 239980, Control_c, 0, 64, 0
1, 240040, Note_on_c, 0, 45, 99
1, 240041, Note_on_c, 0, 33, 87
1, 240054, Control_c, 0, 64, 75
1, 240054, Note_on_c, 0, 93, 97
1, 240060, Note_on_c, 0, 89, 88
1, 240068, Note_off_c, 0, 33, 70
1, 240069, Control_c, 0, 64, 127
1, 240080, Note_off_c, 0, 45, 68
1, 240139, Note_on_c, 0, 88, 85
1, 240144, Note_off_c, 0, 93, 60
1, 240183, Note_off_c, 0, 89, 64
1, 240192, Note_on_c, 0, 84, 73
1, 240217, Note_off_c, 0, 88, 62
1, 240219, Note_on_c, 0, 52, 83
1, 240221, Note_on_c, 0, 40, 78
1, 240241, Note_off_c, 0, 52, 71
1, 240242, Note_off_c, 0, 40, 64
1, 240254, Note_on_c, 0, 81, 85
1, 240255, Note_off_c, 0, 84, 60
1, 240292, Note_off_c, 0, 81, 55
1, 240342, Note_on_c, 0, 59, 97
1, 240349, Note_on_c, 0, 47, 89
1, 240364, Note_on_c, 0, 81, 42
1, 240367, Note_on_c, 0, 77, 59
1, 240373, Note_off_c, 0, 47, 70
1, 240378, Note_off_c, 0, 59, 67
1, 240390, Note_off_c, 0, 81, 54
1, 240394, Note_on_c, 0, 76, 70
1, 240410, Note_off_c, 0, 77, 54
1, 240424, Control_c, 0, 64, 103
1, 240439, Control_c, 0, 64, 76
1, 240439, Note_off_c, 0, 76, 61
1, 240454, Control_c, 0, 64, 0
1, 240455, Note_on_c, 0, 72, 55
1, 240474, Note_on_c, 0, 60, 95
1, 240477, Note_off_c, 0, 72, 61
1, 240478, Note_on_c, 0, 48, 94
1, 240483, Control_c, 0, 64, 53
1, 240498, Control_c, 0, 64, 75
1, 240500, Note_on_c, 0, 69, 78
1, 240513, Control_c, 0, 64, 94
1, 240528, Control_c, 0, 64, 127
1, 240534, Note_off_c, 0, 69, 62
1, 240552, Note_off_c, 0, 60, 57
1, 240558, Note_off_c, 0, 48, 63
1, 240604, Note_on_c, 0, 69, 70
1, 240615, Note_on_c, 0, 65, 70
1, 240642, Note_on_c, 0, 64, 84
1, 240669, Control_c, 0, 64, 107
1, 240684, Control_c, 0, 64, 77
1, 240690, Note_off_c, 0, 65, 65
1, 240692, Note_off_c, 0, 69, 63
1, 240692, Note_on_c, 0, 60, 81
1, 240699, Control_c, 0, 64, 0
1, 240720, Note_off_c, 0, 64, 65
1, 240737, Note_off_c, 0, 60, 61
1, 240760, Note_on_c, 0, 57, 90
1, 240806, Note_off_c, 0, 57, 65
1, 240877, Note_on_c, 0, 56, 73
1, 240878, Note_on_c, 0, 59, 89
1, 240907, Control_c, 0, 64, 80
1, 240913, Note_off_c, 0, 56, 64
1, 240921, Control_c, 0, 64, 127
1, 240923, Note_off_c, 0, 59, 64
1, 240944, Note_on_c, 0, 53, 68
1, 240955, Note_on_c, 0, 62, 42
1, 240958, Note_on_c, 0, 71, 79
1, 240981, Note_off_c, 0, 62, 53
1, 240991, Note_off_c, 0, 53, 62
1, 241001, Note_on_c, 0, 45, 69
1, 241004, Note_off_c, 0, 71, 60
1, 241029, Note_on_c, 0, 62, 80
1, 241033, Note_off_c, 0, 45, 61
1, 241069, Note_on_c, 0, 59, 61
1, 241074, Note_off_c, 0, 62, 62
1, 241092, Note_on_c, 0, 65, 63
1, 241098, Note_on_c, 0, 74, 82
1, 241109, Note_on_c, 0, 53, 64
1, 241110, Note_off_c, 0, 65, 65
1, 241124, Note_off_c, 0, 59, 60
1, 241140, Note_off_c, 0, 74, 64
1, 241162, Note_on_c, 0, 65, 83
1, 241187, Note_on_c, 0, 45, 68
1, 241202, Note_off_c, 0, 65, 67
1, 241214, Note_off_c, 0, 45, 66
1, 241238, Note_on_c, 0, 77, 56
1, 241247, Note_on_c, 0, 78, 58
1, 241259, Note_off_c, 0, 77, 39
1, 241266, Note_off_c, 0, 78, 60
1, 241281, Note_on_c, 0, 62, 79
1, 241286, Note_on_c, 0, 68, 84
1, 241303, Note_off_c, 0, 62, 69
1, 241330, Note_off_c, 0, 68, 63
1, 241345, Note_off_c, 0, 53, 58
1, 241366, Note_on_c, 0, 81, 69
1, 241383, Note_on_c, 0, 45, 74
1, 241393, Note_off_c, 0, 81, 66
1, 241414, Note_off_c, 0, 45, 67
1, 241420, Note_on_c, 0, 71, 87
1, 241455, Note_off_c, 0, 71, 63
1, 241477, Note_on_c, 0, 83, 76
1, 241485, Note_on_c, 0, 64, 47
1, 241503, Note_on_c, 0, 65, 34
1, 241506, Note_off_c, 0, 83, 58
1, 241511, Note_off_c, 0, 64, 55
1, 241534, Note_on_c, 0, 74, 78
1, 241537, Note_off_c, 0, 65, 53
1, 241552, Note_off_c, 0, 74, 73
1, 241564, Note_on_c, 0, 72, 36
1, 241565, Note_off_c, 0, 72, 127
1, 241581, Note_on_c, 0, 77, 69
1, 241584, Note_on_c, 0, 86, 88
1, 241595, Poly_aftertouch_c, 0, 72, 0
1, 241596, Note_off_c, 0, 77, 63
1, 241611, Note_off_c, 0, 86, 64
1, 241655, Control_c, 0, 64, 112
1, 241670, Control_c, 0, 64, 75
1, 241685, Control_c, 0, 64, 0
1, 241727, Note_on_c, 0, 33, 83
1, 241730, Note_on_c, 0, 45, 89
1, 241744, Control_c, 0, 64, 72
1, 241756, Note_on_c, 0, 93, 95
1, 241757, Note_on_c, 0, 100, 107
1, 241758, Note_off_c, 0, 33, 68
1, 241759, Control_c, 0, 64, 127
1, 241771, Note_off_c, 0, 45, 62
1, 241849, Note_off_c, 0, 93, 56
1, 241849, Note_on_c, 0, 96, 83
1, 241885, Note_off_c, 0, 100, 59
1, 241894, Note_on_c, 0, 52, 78
1, 241898, Note_on_c, 0, 93, 62
1, 241907, Note_on_c, 0, 40, 47
1, 241918, Note_off_c, 0, 52, 71
1, 241938, Note_off_c, 0, 40, 55
1, 241938, Note_off_c, 0, 96, 64
1, 241954, Note_off_c, 0, 93, 61
1, 241965, Note_on_c, 0, 88, 72
1, 241994, Note_off_c, 0, 88, 62
1, 242021, Note_on_c, 0, 56, 82
1, 242027, Note_on_c, 0, 44, 76
1, 242035, Note_on_c, 0, 88, 69
1, 242042, Note_on_c, 0, 96, 76
1, 242051, Note_off_c, 0, 56, 61
1, 242060, Note_off_c, 0, 44, 65
1, 242082, Note_off_c, 0, 88, 63
1, 242104, Note_off_c, 0, 96, 60
1, 242111, Note_on_c, 0, 93, 77
1, 242145, Control_c, 0, 64, 119
1, 242151, Note_on_c, 0, 59, 93
1, 242153, Note_on_c, 0, 47, 85
1, 242167, Control_c, 0, 64, 93
1, 242174, Note_on_c, 0, 88, 63
1, 242182, Control_c, 0, 64, 77
1, 242194, Note_off_c, 0, 59, 61
1, 242197, Control_c, 0, 64, 70
1, 242203, Note_off_c, 0, 47, 64
1, 242204, Note_off_c, 0, 93, 61
1, 242212, Control_c, 0, 64, 74
1, 242221, Note_off_c, 0, 88, 62
1, 242227, Note_on_c, 0, 84, 76
1, 242227, Control_c, 0, 64, 83
1, 242241, Control_c, 0, 64, 95
1, 242249, Note_off_c, 0, 84, 69
1, 242256, Control_c, 0, 64, 105
1, 242271, Control_c, 0, 64, 111
1, 242281, Note_on_c, 0, 57, 90
1, 242285, Note_on_c, 0, 45, 83
1, 242285, Control_c, 0, 64, 113
1, 242292, Note_on_c, 0, 93, 80
1, 242293, Note_on_c, 0, 84, 73
1, 242300, Control_c, 0, 64, 113
1, 242311, Note_off_c, 0, 45, 65
1, 242315, Control_c, 0, 64, 114
1, 242318, Note_off_c, 0, 57, 63
1, 242330, Control_c, 0, 64, 114
1, 242338, Note_off_c, 0, 84, 48
1, 242345, Control_c, 0, 64, 115
1, 242354, Note_off_c, 0, 93, 60
1, 242356, Note_on_c, 0, 88, 76
1, 242359, Control_c, 0, 64, 115
1, 242374, Control_c, 0, 64, 116
1, 242389, Control_c, 0, 64, 116
1, 242401, Note_on_c, 0, 59, 95
1, 242404, Control_c, 0, 64, 118
1, 242406, Note_on_c, 0, 47, 87
1, 242419, Control_c, 0, 64, 119
1, 242427, Note_off_c, 0, 88, 62
1, 242431, Note_off_c, 0, 47, 69
1, 242433, Note_on_c, 0, 84, 56
1, 242433, Control_c, 0, 64, 122
1, 242439, Note_off_c, 0, 59, 63
1, 242448, Control_c, 0, 64, 127
1, 242454, Note_off_c, 0, 84, 65
1, 242463, Note_on_c, 0, 81, 75
1, 242487, Note_off_c, 0, 81, 64
1, 242523, Control_c, 0, 64, 114
1, 242523, Note_on_c, 0, 62, 99
1, 242526, Note_on_c, 0, 50, 96
1, 242537, Control_c, 0, 64, 95
1, 242538, Note_on_c, 0, 88, 80
1, 242540, Note_on_c, 0, 81, 82
1, 242552, Control_c, 0, 64, 78
1, 242558, Note_off_c, 0, 62, 65
1, 242564, Note_off_c, 0, 50, 64
1, 242567, Control_c, 0, 64, 62
1, 242582, Control_c, 0, 64, 62
1, 242590, Note_off_c, 0, 81, 60
1, 242597, Control_c, 0, 64, 70
1, 242606, Note_off_c, 0, 88, 58
1, 242609, Note_on_c, 0, 84, 76
1, 242612, Control_c, 0, 64, 80
1, 242626, Control_c, 0, 64, 91
1, 242641, Note_on_c, 0, 60, 95
1, 242641, Control_c, 0, 64, 98
1, 242642, Note_on_c, 0, 48, 86
1, 242656, Control_c, 0, 64, 100
1, 242665, Note_off_c, 0, 48, 71
1, 242666, Note_off_c, 0, 60, 64
1, 242671, Control_c, 0, 64, 101
1, 242685, Note_off_c, 0, 84, 63
1, 242685, Control_c, 0, 64, 102
1, 242686, Note_on_c, 0, 76, 73
1, 242700, Control_c, 0, 64, 103
1, 242715, Control_c, 0, 64, 103
1, 242726, Note_off_c, 0, 76, 66
1, 242730, Control_c, 0, 64, 104
1, 242745, Control_c, 0, 64, 104
1, 242755, Note_on_c, 0, 63, 99
1, 242756, Note_on_c, 0, 51, 85
1, 242759, Control_c, 0, 64, 106
1, 242766, Note_on_c, 0, 76, 71
1, 242774, Control_c, 0, 64, 108
1, 242778, Note_on_c, 0, 84, 72
1, 242789, Control_c, 0, 64, 111
1, 242795, Note_off_c, 0, 63, 65
1, 242800, Note_off_c, 0, 51, 61
1, 242804, Control_c, 0, 64, 115
1, 242819, Control_c, 0, 64, 120
1, 242827, Note_off_c, 0, 76, 62
1, 242833, Control_c, 0, 64, 125
1, 242848, Control_c, 0, 64, 127
1, 242850, Note_on_c, 0, 81, 74
1, 242852, Note_off_c, 0, 84, 56
1, 242882, Note_on_c, 0, 65, 101
1, 242883, Note_on_c, 0, 53, 95
1, 242927, Note_off_c, 0, 65, 66
1, 242931, Note_off_c, 0, 53, 66
1, 242931, Note_on_c, 0, 76, 23
1, 242934, Note_off_c, 0, 81, 61
1, 242963, Note_on_c, 0, 72, 70
1, 242968, Note_off_c, 0, 76, 38
1, 242987, Note_off_c, 0, 72, 70
1, 243005, Control_c, 0, 64, 93
1, 243006, Note_on_c, 0, 64, 96
1, 243016, Note_on_c, 0, 52, 100
1, 243020, Control_c, 0, 64, 68
1, 243035, Control_c, 0, 64, 0
1, 243035, Note_on_c, 0, 81, 78
1, 243042, Note_on_c, 0, 72, 75
1, 243064, Control_c, 0, 64, 57
1, 243068, Note_off_c, 0, 64, 65
1, 243079, Control_c, 0, 64, 73
1, 243088, Note_off_c, 0, 72, 63
1, 243092, Note_on_c, 0, 76, 67
1, 243094, Control_c, 0, 64, 87
1, 243104, Note_off_c, 0, 81, 57
1, 243108, Control_c, 0, 64, 105
1, 243123, Control_c, 0, 64, 116
1, 243124, Note_off_c, 0, 52, 66
1, 243138, Control_c, 0, 64, 118
1, 243153, Control_c, 0, 64, 127
1, 243155, Note_on_c, 0, 72, 69
1, 243168, Control_c, 0, 64, 127
1, 243169, Note_off_c, 0, 76, 65
1, 243208, Note_off_c, 0, 72, 63
1, 243255, Note_on_c, 0, 69, 53
1, 243313, Note_off_c, 0, 69, 48
1, 243423, Note_on_c, 0, 76, 93
1, 243424, Note_on_c, 0, 43, 109
1, 243429, Note_on_c, 0, 31, 96
1, 243429, Note_on_c, 0, 69, 94
1, 243435, Control_c, 0, 64, 105
1, 243450, Control_c, 0, 64, 79
1, 243464, Control_c, 0, 64, 0
1, 243508, Control_c, 0, 64, 41
1, 243523, Control_c, 0, 64, 71
1, 243538, Control_c, 0, 64, 81
1, 243540, Note_off_c, 0, 69, 63
1, 243550, Note_on_c, 0, 72, 74
1, 243553, Control_c, 0, 64, 91
1, 243568, Control_c, 0, 64, 96
1, 243582, Control_c, 0, 64, 98
1, 243587, Note_off_c, 0, 76, 59
1, 243597, Control_c, 0, 64, 101
1, 243612, Control_c, 0, 64, 104
1, 243626, Control_c, 0, 64, 109
1, 243641, Control_c, 0, 64, 113
1, 243643, Note_on_c, 0, 69, 64
1, 243664, Control_c, 0, 64, 117
1, 243668, Note_off_c, 0, 72, 59
1, 243679, Control_c, 0, 64, 121
1, 243685, Note_off_c, 0, 69, 61
1, 243694, Control_c, 0, 64, 127
1, 243708, Note_on_c, 0, 64, 72
1, 243709, Control_c, 0, 64, 127
1, 243739, Note_off_c, 0, 64, 66
1, 243792, Note_on_c, 0, 72, 80
1, 243793, Note_on_c, 0, 64, 78
1, 243849, Note_off_c, 0, 64, 57
1, 243867, Note_on_c, 0, 69, 74
1, 243900, Note_off_c, 0, 72, 61
1, 243952, Note_off_c, 0, 69, 65
1, 243953, Note_on_c, 0, 64, 64
1, 243978, Note_off_c, 0, 64, 65
1, 243981, Note_on_c, 0, 60, 73
1, 244006, Note_off_c, 0, 60, 67
1, 244053, Note_on_c, 0, 69, 88
1, 244055, Note_on_c, 0, 60, 77
1, 244061, Note_off_c, 0, 43, 59
1, 244111, Note_off_c, 0, 60, 52
1, 244119, Note_on_c, 0, 64, 78
1, 244136, Note_off_c, 0, 69, 61
1, 244186, Note_off_c, 0, 31, 60
1, 244191, Note_on_c, 0, 60, 72
1, 244203, Note_off_c, 0, 64, 63
1, 244238, Note_off_c, 0, 60, 62
1, 244239, Note_on_c, 0, 57, 73
1, 244266, Note_off_c, 0, 57, 65
1, 244272, Note_on_c, 0, 42, 96
1, 244278, Note_on_c, 0, 30, 86
1, 244302, Control_c, 0, 64, 126
1, 244310, Note_on_c, 0, 64, 82
1, 244317, Control_c, 0, 64, 92
1, 244319, Note_on_c, 0, 57, 80
1, 244331, Control_c, 0, 64, 70
1, 244346, Control_c, 0, 64, 0
1, 244368, Note_off_c, 0, 57, 62
1, 244376, Control_c, 0, 64, 50
1, 244382, Note_on_c, 0, 60, 67
1, 244386, Poly_aftertouch_c, 0, 41, 0
1, 244391, Control_c, 0, 64, 73
1, 244394, Note_off_c, 0, 64, 58
1, 244412, Control_c, 0, 64, 86
1, 244427, Control_c, 0, 64, 97
1, 244442, Control_c, 0, 64, 100
1, 244457, Control_c, 0, 64, 102
1, 244458, Note_on_c, 0, 57, 62
1, 244472, Control_c, 0, 64, 104
1, 244477, Note_off_c, 0, 60, 60
1, 244483, Note_on_c, 0, 52, 71
1, 244486, Note_off_c, 0, 57, 66
1, 244487, Control_c, 0, 64, 108
1, 244502, Control_c, 0, 64, 113
1, 244512, Note_off_c, 0, 52, 69
1, 244517, Control_c, 0, 64, 121
1, 244532, Control_c, 0, 64, 127
1, 244588, Note_on_c, 0, 69, 94
1, 244591, Note_on_c, 0, 60, 78
1, 244647, Note_off_c, 0, 60, 53
1, 244659, Note_on_c, 0, 64, 81
1, 244675, Note_off_c, 0, 42, 63
1, 244698, Note_off_c, 0, 69, 58
1, 244711, Note_off_c, 0, 30, 61
1, 244736, Note_on_c, 0, 60, 80
1, 244737, Note_on_c, 0, 41, 101
1, 244738, Note_on_c, 0, 29, 88
1, 244745, Note_off_c, 0, 64, 61
1, 244769, Control_c, 0, 64, 88
1, 244784, Control_c, 0, 64, 61
1, 244788, Note_off_c, 0, 60, 56
1, 244799, Control_c, 0, 64, 0
1, 244807, Note_on_c, 0, 57, 71
1, 244828, Control_c, 0, 64, 61
1, 244836, Note_off_c, 0, 57, 65
1, 244843, Control_c, 0, 64, 74
1, 244858, Control_c, 0, 64, 88
1, 244873, Control_c, 0, 64, 105
1, 244886, Note_on_c, 0, 64, 81
1, 244887, Control_c, 0, 64, 111
1, 244902, Control_c, 0, 64, 115
1, 244904, Note_on_c, 0, 57, 64
1, 244917, Control_c, 0, 64, 125
1, 244932, Control_c, 0, 64, 127
1, 244946, Note_off_c, 0, 57, 59
1, 244967, Note_on_c, 0, 60, 78
1, 245003, Note_off_c, 0, 64, 61
1, 245027, Note_on_c, 0, 57, 67
1, 245030, Note_off_c, 0, 41, 53
1, 245068, Note_off_c, 0, 60, 55
1, 245080, Note_on_c, 0, 52, 81
1, 245090, Note_off_c, 0, 57, 62
1, 245121, Note_off_c, 0, 52, 65
1, 245179, Note_off_c, 0, 29, 61
1, 245206, Control_c, 0, 64, 93
1, 245221, Control_c, 0, 64, 62
1, 245225, Note_on_c, 0, 40, 102
1, 245228, Note_on_c, 0, 28, 92
1, 245233, Note_on_c, 0, 64, 98
1, 245236, Control_c, 0, 64, 0
1, 245241, Note_on_c, 0, 60, 90
1, 245254, Note_off_c, 0, 28, 68
1, 245266, Control_c, 0, 64, 67
1, 245271, Note_on_c, 0, 38, 31
1, 245272, Note_off_c, 0, 38, 127
1, 245276, Note_off_c, 0, 40, 66
1, 245280, Control_c, 0, 64, 84
1, 245295, Control_c, 0, 64, 112
1, 245310, Control_c, 0, 64, 127
1, 245313, Poly_aftertouch_c, 0, 38, 0
1, 245340, Note_on_c, 0, 65, 81
1, 245343, Note_on_c, 0, 59, 82
1, 245345, Note_off_c, 0, 64, 65
1, 245346, Note_off_c, 0, 60, 60
1, 245348, Poly_aftertouch_c, 0, 30, 0
1, 245387, Note_off_c, 0, 59, 56
1, 245421, Note_on_c, 0, 64, 73
1, 245426, Note_off_c, 0, 65, 63
1, 245429, Note_on_c, 0, 60, 76
1, 245474, Control_c, 0, 64, 96
1, 245486, Note_off_c, 0, 60, 63
1, 245489, Note_on_c, 0, 57, 76
1, 245489, Control_c, 0, 64, 67
1, 245493, Note_off_c, 0, 64, 64
1, 245501, Note_on_c, 0, 65, 61
1, 245504, Control_c, 0, 64, 0
1, 245549, Note_on_c, 0, 64, 64
1, 245551, Note_off_c, 0, 57, 40
1, 245557, Note_on_c, 0, 60, 78
1, 245562, Note_off_c, 0, 65, 62
1, 245635, Note_off_c, 0, 60, 62
1, 245635, Note_on_c, 0, 65, 77
1, 245638, Note_on_c, 0, 59, 75
1, 245641, Note_off_c, 0, 64, 65
1, 245699, Note_on_c, 0, 64, 68
1, 245700, Note_on_c, 0, 52, 94
1, 245706, Note_on_c, 0, 40, 83
1, 245709, Note_off_c, 0, 59, 60
1, 245713, Note_on_c, 0, 60, 79
1, 245715, Note_off_c, 0, 65, 63
1, 245726, Control_c, 0, 64, 56
1, 245733, Note_off_c, 0, 52, 67
1, 245738, Note_off_c, 0, 40, 68
1, 245741, Control_c, 0, 64, 84
1, 245756, Control_c, 0, 64, 93
1, 245771, Control_c, 0, 64, 97
1, 245781, Note_on_c, 0, 59, 80
1, 245784, Note_off_c, 0, 60, 64
1, 245787, Note_on_c, 0, 65, 74
1, 245793, Note_off_c, 0, 64, 63
1, 245800, Control_c, 0, 64, 97
1, 245815, Control_c, 0, 64, 99
1, 245830, Control_c, 0, 64, 102
1, 245845, Control_c, 0, 64, 104
1, 245849, Note_off_c, 0, 59, 55
1, 245859, Note_on_c, 0, 64, 68
1, 245859, Control_c, 0, 64, 106
1, 245871, Note_on_c, 0, 60, 80
1, 245871, Note_off_c, 0, 65, 63
1, 245874, Control_c, 0, 64, 109
1, 245889, Control_c, 0, 64, 113
1, 245911, Control_c, 0, 64, 118
1, 245926, Control_c, 0, 64, 122
1, 245941, Control_c, 0, 64, 124
1, 245956, Control_c, 0, 64, 122
1, 245962, Note_on_c, 0, 57, 81
1, 245962, Note_off_c, 0, 60, 60
1, 245963, Note_off_c, 0, 64, 63
1, 245966, Note_on_c, 0, 65, 79
1, 245971, Control_c, 0, 64, 106
1, 245985, Control_c, 0, 64, 85
1, 245995, Note_on_c, 0, 40, 90
1, 245997, Note_on_c, 0, 52, 90
1, 246000, Control_c, 0, 64, 55
1, 246015, Control_c, 0, 64, 0
1, 246019, Note_off_c, 0, 52, 73
1, 246020, Note_off_c, 0, 57, 45
1, 246025, Note_on_c, 0, 64, 72
1, 246026, Note_off_c, 0, 40, 66
1, 246036, Note_on_c, 0, 60, 75
1, 246036, Note_off_c, 0, 65, 64
1, 246106, Note_off_c, 0, 60, 63
1, 246111, Note_on_c, 0, 65, 74
1, 246115, Note_on_c, 0, 59, 75
1, 246118, Note_off_c, 0, 64, 65
1, 246176, Note_on_c, 0, 64, 66
1, 246180, Note_on_c, 0, 48, 98
1, 246184, Note_on_c, 0, 60, 78
1, 246185, Note_off_c, 0, 59, 62
1, 246186, Note_on_c, 0, 36, 91
1, 246196, Note_off_c, 0, 65, 62
1, 246208, Control_c, 0, 64, 87
1, 246212, Note_off_c, 0, 48, 68
1, 246216, Note_off_c, 0, 36, 67
1, 246223, Control_c, 0, 64, 119
1, 246238, Control_c, 0, 64, 127
1, 246261, Note_off_c, 0, 60, 62
1, 246263, Note_on_c, 0, 59, 73
1, 246269, Note_on_c, 0, 65, 72
1, 246278, Note_off_c, 0, 64, 63
1, 246326, Note_off_c, 0, 59, 59
1, 246353, Note_on_c, 0, 64, 68
1, 246359, Note_off_c, 0, 65, 66
1, 246361, Note_on_c, 0, 60, 75
1, 246372, Note_on_c, 0, 47, 94
1, 246386, Note_on_c, 0, 35, 65
1, 246395, Note_off_c, 0, 47, 72
1, 246410, Note_off_c, 0, 35, 60
1, 246414, Control_c, 0, 64, 109
1, 246419, Note_off_c, 0, 64, 64
1, 246426, Note_on_c, 0, 57, 77
1, 246426, Note_off_c, 0, 60, 62
1, 246428, Note_on_c, 0, 65, 74
1, 246429, Control_c, 0, 64, 78
1, 246441, Note_on_c, 0, 45, 90
1, 246444, Control_c, 0, 64, 0
1, 246449, Note_on_c, 0, 33, 69
1, 246451, Poly_aftertouch_c, 0, 39, 0
1, 246456, Note_on_c, 0, 35, 67
1, 246468, Note_off_c, 0, 57, 51
1, 246471, Note_off_c, 0, 45, 68
1, 246478, Note_off_c, 0, 33, 66
1, 246484, Note_on_c, 0, 64, 55
1, 246487, Note_on_c, 0, 60, 70
1, 246487, Note_off_c, 0, 35, 60
1, 246511, Note_off_c, 0, 65, 64
1, 246562, Note_off_c, 0, 64, 64
1, 246562, Note_on_c, 0, 65, 72
1, 246568, Note_off_c, 0, 60, 62
1, 246569, Note_on_c, 0, 59, 80
1, 246608, Note_on_c, 0, 52, 105
1, 246613, Note_on_c, 0, 40, 95
1, 246625, Note_on_c, 0, 41, 74
1, 246627, Note_on_c, 0, 64, 72
1, 246631, Note_off_c, 0, 52, 67
1, 246634, Note_on_c, 0, 60, 76
1, 246634, Note_off_c, 0, 59, 62
1, 246635, Note_off_c, 0, 40, 68
1, 246645, Note_off_c, 0, 65, 65
1, 246656, Note_off_c, 0, 41, 62
1, 246658, Control_c, 0, 64, 83
1, 246673, Control_c, 0, 64, 127
1, 246719, Note_off_c, 0, 60, 64
1, 246720, Note_on_c, 0, 59, 80
1, 246724, Note_on_c, 0, 65, 73
1, 246726, Note_off_c, 0, 64, 63
1, 246751, Poly_aftertouch_c, 0, 63, 0
1, 246785, Note_on_c, 0, 64, 73
1, 246788, Note_off_c, 0, 59, 61
1, 246793, Note_off_c, 0, 65, 65
1, 246800, Note_on_c, 0, 60, 74
1, 246864, Note_off_c, 0, 60, 62
1, 246866, Control_c, 0, 64, 122
1, 246866, Note_on_c, 0, 57, 81
1, 246868, Note_off_c, 0, 64, 62
1, 246869, Note_on_c, 0, 65, 78
1, 246881, Control_c, 0, 64, 101
1, 246896, Control_c, 0, 64, 89
1, 246910, Control_c, 0, 64, 79
1, 246926, Control_c, 0, 64, 68
1, 246930, Note_on_c, 0, 64, 71
1, 246931, Note_off_c, 0, 57, 56
1, 246938, Note_on_c, 0, 60, 73
1, 246939, Note_off_c, 0, 65, 63
1, 246941, Control_c, 0, 64, 0
1, 247009, Note_on_c, 0, 65, 84
1, 247012, Note_off_c, 0, 64, 65
1, 247021, Note_off_c, 0, 60, 60
1, 247026, Note_on_c, 0, 59, 74
1, 247093, Note_on_c, 0, 60, 75
1, 247093, Note_on_c, 0, 63, 86
1, 247095, Note_off_c, 0, 59, 56
1, 247096, Note_off_c, 0, 65, 67
1, 247098, Note_on_c, 0, 40, 107
1, 247101, Note_on_c, 0, 28, 102
1, 247125, Note_off_c, 0, 28, 69
1, 247125, Note_on_c, 0, 30, 56
1, 247126, Note_off_c, 0, 30, 127
1, 247133, Note_off_c, 0, 40, 67
1, 247134, Control_c, 0, 64, 64
1, 247149, Control_c, 0, 64, 127
1, 247177, Note_on_c, 0, 59, 78
1, 247181, Note_on_c, 0, 66, 73
1, 247181, Note_off_c, 0, 60, 62
1, 247182, Note_off_c, 0, 63, 65
1, 247204, Note_on_c, 0, 28, 6
1, 247217, Poly_aftertouch_c, 0, 29, 0
1, 247220, Note_off_c, 0, 59, 55
1, 247227, Note_off_c, 0, 28, 53
1, 247259, Note_off_c, 0, 66, 65
1, 247264, Note_on_c, 0, 63, 70
1, 247265, Note_on_c, 0, 60, 73
1, 247319, Note_off_c, 0, 63, 63
1, 247323, Note_on_c, 0, 66, 66
1, 247330, Note_off_c, 0, 60, 61
1, 247331, Note_on_c, 0, 57, 71
1, 247409, Note_on_c, 0, 60, 69
1, 247409, Note_on_c, 0, 63, 77
1, 247409, Note_off_c, 0, 57, 60
1, 247413, Note_off_c, 0, 66, 66
1, 247484, Note_off_c, 0, 63, 63
1, 247485, Note_on_c, 0, 66, 73
1, 247498, Note_on_c, 0, 59, 74
1, 247505, Note_off_c, 0, 60, 61
1, 247571, Control_c, 0, 64, 124
1, 247575, Note_on_c, 0, 63, 85
1, 247577, Note_off_c, 0, 66, 64
1, 247578, Note_on_c, 0, 60, 76
1, 247582, Note_on_c, 0, 52, 94
1, 247586, Control_c, 0, 64, 102
1, 247587, Note_off_c, 0, 59, 58
1, 247590, Note_on_c, 0, 40, 88
1, 247601, Control_c, 0, 64, 90
1, 247616, Control_c, 0, 64, 83
1, 247644, Note_off_c, 0, 52, 59
1, 247647, Note_on_c, 0, 66, 70
1, 247655, Note_off_c, 0, 63, 65
1, 247656, Note_on_c, 0, 59, 72
1, 247660, Control_c, 0, 64, 85
1, 247663, Note_off_c, 0, 60, 60
1, 247671, Note_off_c, 0, 40, 63
1, 247674, Control_c, 0, 64, 88
1, 247689, Control_c, 0, 64, 90
1, 247704, Control_c, 0, 64, 92
1, 247719, Control_c, 0, 64, 92
1, 247733, Note_on_c, 0, 63, 81
1, 247733, Note_off_c, 0, 59, 63
1, 247733, Note_off_c, 0, 66, 65
1, 247735, Note_on_c, 0, 60, 72
1, 247735, Control_c, 0, 64, 93
1, 247794, Control_c, 0, 64, 93
1, 247816, Note_off_c, 0, 63, 64
1, 247823, Note_on_c, 0, 66, 76
1, 247826, Note_on_c, 0, 57, 75
1, 247830, Note_off_c, 0, 60, 57
1, 247861, Note_on_c, 0, 40, 74
1, 247861, Note_on_c, 0, 50, 72
1, 247866, Note_on_c, 0, 52, 67
1, 247868, Control_c, 0, 64, 89
1, 247873, Note_on_c, 0, 38, 60
1, 247883, Control_c, 0, 64, 77
1, 247886, Note_off_c, 0, 50, 64
1, 247888, Note_off_c, 0, 40, 66
1, 247889, Note_on_c, 0, 63, 80
1, 247889, Note_off_c, 0, 57, 58
1, 247895, Note_on_c, 0, 60, 62
1, 247895, Note_off_c, 0, 52, 57
1, 247895, Note_off_c, 0, 66, 66
1, 247897, Control_c, 0, 64, 42
1, 247900, Note_off_c, 0, 38, 55
1, 247912, Control_c, 0, 64, 0
1, 247972, Note_on_c, 0, 66, 73
1, 247972, Note_off_c, 0, 63, 63
1, 247986, Note_off_c, 0, 60, 63
1, 247987, Note_on_c, 0, 59, 71
1, 248031, Note_on_c, 0, 48, 95
1, 248037, Note_on_c, 0, 36, 90
1, 248049, Note_on_c, 0, 63, 85
1, 248053, Note_on_c, 0, 60, 70
1, 248057, Note_off_c, 0, 59, 62
1, 248058, Note_off_c, 0, 66, 64
1, 248061, Control_c, 0, 64, 76
1, 248075, Note_off_c, 0, 48, 63
1, 248076, Control_c, 0, 64, 94
1, 248091, Control_c, 0, 64, 105
1, 248097, Note_off_c, 0, 36, 61
1, 248105, Control_c, 0, 64, 105
1, 248120, Control_c, 0, 64, 106
1, 248131, Note_on_c, 0, 66, 67
1, 248135, Note_off_c, 0, 63, 65
1, 248135, Control_c, 0, 64, 108
1, 248141, Note_off_c, 0, 60, 61
1, 248142, Note_on_c, 0, 59, 74
1, 248157, Control_c, 0, 64, 111
1, 248172, Control_c, 0, 64, 115
1, 248186, Control_c, 0, 64, 118
1, 248201, Control_c, 0, 64, 121
1, 248216, Control_c, 0, 64, 125
1, 248221, Note_on_c, 0, 63, 82
1, 248222, Note_on_c, 0, 47, 92
1, 248222, Note_off_c, 0, 59, 59
1, 248222, Note_off_c, 0, 66, 63
1, 248225, Note_on_c, 0, 60, 73
1, 248231, Control_c, 0, 64, 126
1, 248237, Note_on_c, 0, 35, 63
1, 248246, Control_c, 0, 64, 125
1, 248246, Note_off_c, 0, 47, 69
1, 248261, Control_c, 0, 64, 110
1, 248264, Note_off_c, 0, 35, 62
1, 248276, Control_c, 0, 64, 90
1, 248291, Control_c, 0, 64, 68
1, 248291, Note_on_c, 0, 66, 78
1, 248293, Note_on_c, 0, 45, 94
1, 248295, Note_on_c, 0, 57, 82
1, 248295, Note_off_c, 0, 60, 40
1, 248297, Note_off_c, 0, 63, 63
1, 248298, Note_on_c, 0, 33, 89
1, 248305, Control_c, 0, 64, 0
1, 248325, Note_off_c, 0, 57, 63
1, 248326, Note_off_c, 0, 33, 69
1, 248334, Note_off_c, 0, 45, 65
1, 248362, Note_on_c, 0, 63, 78
1, 248364, Note_on_c, 0, 60, 76
1, 248366, Note_off_c, 0, 66, 67
1, 248434, Note_on_c, 0, 66, 77
1, 248441, Note_off_c, 0, 63, 64
1, 248447, Note_on_c, 0, 59, 83
1, 248456, Note_off_c, 0, 60, 62
1, 248462, Note_on_c, 0, 52, 96
1, 248463, Note_on_c, 0, 40, 99
1, 248480, Note_off_c, 0, 52, 75
1, 248488, Note_off_c, 0, 40, 70
1, 248498, Control_c, 0, 64, 81
1, 248508, Note_on_c, 0, 63, 84
1, 248512, Control_c, 0, 64, 127
1, 248514, Note_off_c, 0, 66, 66
1, 248515, Note_on_c, 0, 60, 67
1, 248515, Note_off_c, 0, 59, 56
1, 248587, Note_on_c, 0, 59, 77
1, 248589, Note_off_c, 0, 60, 62
1, 248589, Note_on_c, 0, 66, 70
1, 248593, Note_off_c, 0, 63, 65
1, 248654, Note_on_c, 0, 63, 77
1, 248656, Note_on_c, 0, 60, 70
1, 248660, Note_off_c, 0, 59, 63
1, 248660, Note_off_c, 0, 66, 66
1, 248729, Note_on_c, 0, 66, 80
1, 248732, Note_on_c, 0, 57, 84
1, 248735, Control_c, 0, 64, 126
1, 248743, Note_off_c, 0, 63, 63
1, 248744, Note_off_c, 0, 60, 62
1, 248750, Control_c, 0, 64, 121
1, 248765, Control_c, 0, 64, 116
1, 248780, Control_c, 0, 64, 110
1, 248794, Control_c, 0, 64, 99
1, 248806, Note_on_c, 0, 60, 78
1, 248809, Control_c, 0, 64, 85
1, 248819, Note_off_c, 0, 57, 61
1, 248820, Note_off_c, 0, 66, 61
1, 248824, Control_c, 0, 64, 67
1, 248830, Note_on_c, 0, 63, 48
1, 248830, Note_on_c, 0, 64, 65
1, 248839, Control_c, 0, 64, 0
1, 248872, Note_off_c, 0, 60, 58
1, 248874, Note_off_c, 0, 63, 63
1, 248875, Note_off_c, 0, 64, 62
1, 248898, Note_on_c, 0, 66, 51
1, 248920, Note_on_c, 0, 59, 80
1, 248923, Note_on_c, 0, 40, 107
1, 248925, Note_on_c, 0, 28, 99
1, 248949, Note_off_c, 0, 28, 70
1, 248949, Note_on_c, 0, 30, 54
1, 248950, Note_off_c, 0, 30, 127
1, 248958, Note_off_c, 0, 40, 63
1, 248961, Note_off_c, 0, 66, 67
1, 248965, Control_c, 0, 64, 63
1, 248974, Note_on_c, 0, 29, 8
1, 248975, Note_off_c, 0, 29, 127
1, 248977, Note_off_c, 0, 59, 63
1, 248980, Control_c, 0, 64, 102
1, 248982, Note_on_c, 0, 64, 79
1, 248983, Note_on_c, 0, 60, 63
1, 248995, Control_c, 0, 64, 127
1, 249024, Poly_aftertouch_c, 0, 29, 0
1, 249042, Poly_aftertouch_c, 0, 32, 0
1, 249071, Note_on_c, 0, 69, 76
1, 249071, Note_off_c, 0, 64, 65
1, 249075, Note_on_c, 0, 59, 77
1, 249076, Note_off_c, 0, 60, 60
1, 249104, Note_off_c, 0, 59, 55
1, 249152, Note_on_c, 0, 64, 76
1, 249152, Note_off_c, 0, 69, 64
1, 249155, Note_on_c, 0, 60, 72
1, 249218, Note_off_c, 0, 64, 65
1, 249222, Note_on_c, 0, 69, 76
1, 249222, Note_off_c, 0, 60, 55
1, 249237, Note_on_c, 0, 57, 76
1, 249296, Note_on_c, 0, 60, 71
1, 249296, Note_on_c, 0, 64, 78
1, 249298, Note_off_c, 0, 57, 63
1, 249300, Note_off_c, 0, 69, 64
1, 249372, Note_on_c, 0, 69, 83
1, 249376, Note_on_c, 0, 59, 79
1, 249382, Note_off_c, 0, 64, 63
1, 249391, Note_off_c, 0, 60, 61
1, 249443, Note_on_c, 0, 52, 108
1, 249450, Note_on_c, 0, 40, 92
1, 249453, Note_on_c, 0, 64, 78
1, 249459, Note_on_c, 0, 60, 72
1, 249468, Note_off_c, 0, 59, 62
1, 249477, Note_off_c, 0, 69, 61
1, 249482, Note_off_c, 0, 52, 71
1, 249490, Note_off_c, 0, 40, 64
1, 249539, Note_off_c, 0, 60, 59
1, 249540, Note_on_c, 0, 69, 72
1, 249543, Note_off_c, 0, 64, 64
1, 249545, Note_on_c, 0, 59, 74
1, 249635, Note_off_c, 0, 59, 62
1, 249638, Note_on_c, 0, 64, 72
1, 249641, Note_off_c, 0, 69, 65
1, 249651, Note_on_c, 0, 60, 75
1, 249748, Note_off_c, 0, 60, 59
1, 249748, Note_off_c, 0, 64, 62
1, 249749, Note_on_c, 0, 69, 76
1, 249751, Note_on_c, 0, 57, 74
1, 249786, Note_on_c, 0, 52, 99
1, 249793, Note_on_c, 0, 40, 92
1, 249820, Note_off_c, 0, 52, 70
1, 249824, Note_off_c, 0, 40, 67
1, 249829, Note_on_c, 0, 64, 70
1, 249829, Note_off_c, 0, 57, 60
1, 249837, Note_off_c, 0, 69, 63
1, 249838, Note_on_c, 0, 60, 68
1, 249922, Note_on_c, 0, 69, 77
1, 249923, Note_off_c, 0, 64, 63
1, 249925, Note_off_c, 0, 60, 61
1, 249926, Note_on_c, 0, 59, 77
1, 249936, Control_c, 0, 64, 103
1, 249949, Note_on_c, 0, 52, 104
1, 249951, Control_c, 0, 64, 78
1, 249952, Note_on_c, 0, 40, 90
1, 249966, Control_c, 0, 64, 49
1, 249981, Control_c, 0, 64, 0
1, 250001, Note_on_c, 0, 64, 64
1, 250001, Note_off_c, 0, 59, 60
1, 250004, Note_off_c, 0, 69, 62
1, 250011, Control_c, 0, 64, 64
1, 250018, Note_on_c, 0, 60, 59
1, 250026, Control_c, 0, 64, 72
1, 250040, Control_c, 0, 64, 83
1, 250041, Note_off_c, 0, 52, 56
1, 250055, Control_c, 0, 64, 90
1, 250070, Control_c, 0, 64, 92
1, 250074, Note_off_c, 0, 40, 61
1, 250077, Note_off_c, 0, 60, 59
1, 250079, Note_on_c, 0, 59, 74
1, 250079, Note_off_c, 0, 64, 64
1, 250085, Note_on_c, 0, 69, 70
1, 250085, Control_c, 0, 64, 92
1, 250100, Control_c, 0, 64, 93
1, 250115, Control_c, 0, 64, 94
1, 250130, Control_c, 0, 64, 94
1, 250151, Note_off_c, 0, 59, 56
1, 250160, Control_c, 0, 64, 95
1, 250167, Note_off_c, 0, 69, 65
1, 250169, Note_on_c, 0, 50, 81
1, 250169, Note_on_c, 0, 64, 74
1, 250174, Note_on_c, 0, 60, 76
1, 250184, Note_on_c, 0, 38, 63
1, 250189, Control_c, 0, 64, 94
1, 250195, Note_off_c, 0, 50, 65
1, 250204, Control_c, 0, 64, 88
1, 250210, Note_off_c, 0, 38, 59
1, 250219, Control_c, 0, 64, 74
1, 250229, Note_on_c, 0, 69, 74
1, 250230, Note_off_c, 0, 64, 62
1, 250232, Note_off_c, 0, 60, 55
1, 250234, Control_c, 0, 64, 0
1, 250239, Note_on_c, 0, 57, 72
1, 250243, Note_on_c, 0, 48, 94
1, 250246, Note_on_c, 0, 36, 90
1, 250265, Note_off_c, 0, 57, 68
1, 250275, Note_off_c, 0, 36, 68
1, 250282, Note_off_c, 0, 48, 66
1, 250291, Note_on_c, 0, 60, 60
1, 250294, Note_on_c, 0, 64, 70
1, 250319, Note_off_c, 0, 69, 62
1, 250376, Note_on_c, 0, 69, 73
1, 250381, Note_on_c, 0, 59, 84
1, 250384, Note_off_c, 0, 64, 64
1, 250388, Note_off_c, 0, 60, 62
1, 250407, Note_on_c, 0, 57, 94
1, 250408, Note_on_c, 0, 45, 97
1, 250419, Control_c, 0, 64, 59
1, 250432, Note_off_c, 0, 57, 68
1, 250434, Control_c, 0, 64, 94
1, 250435, Note_off_c, 0, 45, 68
1, 250449, Control_c, 0, 64, 105
1, 250465, Note_on_c, 0, 64, 73
1, 250469, Note_off_c, 0, 59, 60
1, 250473, Note_on_c, 0, 60, 68
1, 250484, Note_off_c, 0, 69, 61
1, 250534, Note_on_c, 0, 69, 63
1, 250535, Note_on_c, 0, 59, 77
1, 250538, Control_c, 0, 64, 105
1, 250538, Note_off_c, 0, 60, 62
1, 250540, Note_off_c, 0, 64, 65
1, 250612, Note_off_c, 0, 59, 62
1, 250622, Note_on_c, 0, 60, 72
1, 250622, Note_on_c, 0, 64, 71
1, 250622, Note_off_c, 0, 69, 63
1, 250690, Note_on_c, 0, 69, 76
1, 250690, Note_off_c, 0, 64, 61
1, 250698, Note_on_c, 0, 53, 92
1, 250699, Note_on_c, 0, 57, 79
1, 250699, Note_off_c, 0, 60, 58
1, 250700, Control_c, 0, 64, 105
1, 250702, Note_on_c, 0, 41, 92
1, 250715, Control_c, 0, 64, 99
1, 250730, Control_c, 0, 64, 84
1, 250736, Note_off_c, 0, 41, 68
1, 250737, Note_off_c, 0, 53, 63
1, 250745, Control_c, 0, 64, 63
1, 250746, Note_off_c, 0, 57, 58
1, 250760, Control_c, 0, 64, 0
1, 250766, Note_on_c, 0, 64, 68
1, 250771, Note_off_c, 0, 69, 61
1, 250776, Note_on_c, 0, 60, 60
1, 250841, Note_on_c, 0, 59, 79
1, 250841, Note_on_c, 0, 69, 73
1, 250841, Note_off_c, 0, 64, 65
1, 250842, Note_off_c, 0, 60, 62
1, 250857, Note_on_c, 0, 52, 104
1, 250862, Note_on_c, 0, 40, 93
1, 250893, Control_c, 0, 64, 66
1, 250908, Control_c, 0, 64, 88
1, 250911, Note_off_c, 0, 52, 62
1, 250919, Note_on_c, 0, 64, 73
1, 250922, Note_off_c, 0, 59, 61
1, 250923, Control_c, 0, 64, 97
1, 250926, Note_off_c, 0, 69, 63
1, 250929, Note_on_c, 0, 60, 68
1, 250938, Control_c, 0, 64, 97
1, 250945, Note_off_c, 0, 40, 63
1, 250989, Note_on_c, 0, 59, 69
1, 250991, Note_off_c, 0, 60, 61
1, 250993, Note_off_c, 0, 64, 64
1, 250996, Note_on_c, 0, 69, 70
1, 250997, Control_c, 0, 64, 98
1, 251069, Note_off_c, 0, 59, 60
1, 251072, Note_off_c, 0, 69, 65
1, 251075, Note_on_c, 0, 64, 71
1, 251078, Note_on_c, 0, 60, 69
1, 251134, Note_on_c, 0, 48, 94
1, 251140, Note_off_c, 0, 64, 62
1, 251148, Note_on_c, 0, 69, 75
1, 251149, Note_on_c, 0, 36, 86
1, 251151, Note_on_c, 0, 57, 79
1, 251155, Note_off_c, 0, 60, 62
1, 251168, Control_c, 0, 64, 97
1, 251179, Note_off_c, 0, 48, 64
1, 251183, Control_c, 0, 64, 89
1, 251184, Note_off_c, 0, 36, 64
1, 251197, Control_c, 0, 64, 69
1, 251209, Note_off_c, 0, 57, 56
1, 251212, Control_c, 0, 64, 0
1, 251231, Note_off_c, 0, 69, 64
1, 251236, Note_on_c, 0, 64, 73
1, 251241, Note_on_c, 0, 60, 67
1, 251297, Note_on_c, 0, 45, 101
1, 251301, Note_on_c, 0, 33, 94
1, 251306, Note_on_c, 0, 69, 79
1, 251306, Note_off_c, 0, 64, 65
1, 251307, Note_on_c, 0, 59, 79
1, 251315, Note_off_c, 0, 60, 62
1, 251346, Control_c, 0, 64, 78
1, 251349, Note_off_c, 0, 45, 61
1, 251353, Note_off_c, 0, 33, 63
1, 251361, Control_c, 0, 64, 90
1, 251376, Control_c, 0, 64, 95
1, 251391, Note_on_c, 0, 64, 76
1, 251392, Note_off_c, 0, 59, 60
1, 251393, Note_off_c, 0, 69, 64
1, 251395, Note_on_c, 0, 60, 70
1, 251435, Control_c, 0, 64, 95
1, 251459, Note_on_c, 0, 59, 77
1, 251462, Note_on_c, 0, 69, 76
1, 251463, Note_off_c, 0, 64, 63
1, 251464, Note_off_c, 0, 60, 63
1, 251543, Note_off_c, 0, 59, 61
1, 251554, Note_off_c, 0, 69, 65
1, 251555, Note_on_c, 0, 64, 71
1, 251560, Note_on_c, 0, 60, 70
1, 251596, Note_on_c, 0, 47, 100
1, 251597, Control_c, 0, 64, 96
1, 251602, Note_on_c, 0, 35, 98
1, 251617, Note_on_c, 0, 69, 78
1, 251623, Note_on_c, 0, 57, 79
1, 251626, Note_off_c, 0, 64, 63
1, 251632, Note_off_c, 0, 35, 67
1, 251635, Note_off_c, 0, 47, 64
1, 251638, Note_off_c, 0, 60, 62
1, 251721, Note_on_c, 0, 64, 70
1, 251721, Note_off_c, 0, 57, 61
1, 251728, Note_on_c, 0, 60, 72
1, 251729, Note_off_c, 0, 69, 58
1, 251785, Note_on_c, 0, 48, 109
1, 251791, Note_on_c, 0, 36, 98
1, 251806, Control_c, 0, 64, 95
1, 251807, Note_on_c, 0, 69, 85
1, 251808, Note_on_c, 0, 59, 81
1, 251817, Note_off_c, 0, 60, 56
1, 251817, Note_off_c, 0, 64, 63
1, 251820, Control_c, 0, 64, 94
1, 251835, Control_c, 0, 64, 87
1, 251850, Control_c, 0, 64, 73
1, 251865, Control_c, 0, 64, 0
1, 251903, Note_on_c, 0, 64, 73
1, 251907, Note_off_c, 0, 59, 59
1, 251913, Note_on_c, 0, 60, 72
1, 251916, Note_off_c, 0, 69, 61
1, 251976, Note_off_c, 0, 60, 59
1, 251981, Note_on_c, 0, 69, 67
1, 251981, Note_off_c, 0, 64, 65
1, 251982, Note_on_c, 0, 59, 70
1, 252046, Note_off_c, 0, 59, 61
1, 252056, Note_on_c, 0, 60, 73
1, 252060, Note_on_c, 0, 64, 73
1, 252060, Note_off_c, 0, 69, 66
1, 252130, Note_on_c, 0, 69, 80
1, 252134, Note_off_c, 0, 64, 63
1, 252136, Note_on_c, 0, 57, 78
1, 252147, Note_off_c, 0, 60, 62
1, 252185, Note_off_c, 0, 57, 61
1, 252207, Note_on_c, 0, 60, 65
1, 252212, Note_on_c, 0, 64, 79
1, 252214, Note_off_c, 0, 69, 66
1, 252288, Note_on_c, 0, 59, 86
1, 252288, Note_on_c, 0, 69, 81
1, 252288, Note_off_c, 0, 64, 65
1, 252294, Note_off_c, 0, 60, 63
1, 252302, Control_c, 0, 64, 18
1, 252317, Control_c, 0, 64, 70
1, 252332, Control_c, 0, 64, 62
1, 252334, Note_off_c, 0, 59, 63
1, 252346, Control_c, 0, 64, 0
1, 252370, Note_on_c, 0, 60, 76
1, 252370, Note_off_c, 0, 69, 64
1, 252372, Note_on_c, 0, 64, 78
1, 252447, Note_off_c, 0, 64, 64
1, 252448, Note_on_c, 0, 69, 84
1, 252454, Note_on_c, 0, 57, 81
1, 252461, Note_off_c, 0, 60, 62
1, 252479, Control_c, 0, 64, 78
1, 252494, Control_c, 0, 64, 106
1, 252502, Note_off_c, 0, 57, 57
1, 252509, Control_c, 0, 64, 127
1, 252523, Note_off_c, 0, 48, 58
1, 252527, Note_on_c, 0, 60, 74
1, 252527, Note_off_c, 0, 69, 65
1, 252528, Note_on_c, 0, 64, 83
1, 252599, Note_on_c, 0, 69, 87
1, 252607, Note_off_c, 0, 64, 62
1, 252617, Note_off_c, 0, 60, 62
1, 252622, Note_on_c, 0, 59, 62
1, 252627, Note_on_c, 0, 39, 83
1, 252645, Note_off_c, 0, 36, 58
1, 252646, Note_on_c, 0, 40, 86
1, 252649, Note_off_c, 0, 59, 64
1, 252679, Note_on_c, 0, 41, 99
1, 252695, Control_c, 0, 64, 123
1, 252696, Note_on_c, 0, 62, 93
1, 252696, Note_on_c, 0, 65, 92
1, 252701, Note_off_c, 0, 69, 38
1, 252710, Control_c, 0, 64, 97
1, 252725, Control_c, 0, 64, 81
1, 252728, Note_off_c, 0, 39, 63
1, 252735, Note_off_c, 0, 40, 63
1, 252740, Control_c, 0, 64, 77
1, 252769, Control_c, 0, 64, 81
1, 252784, Control_c, 0, 64, 88
1, 252786, Note_off_c, 0, 62, 59
1, 252797, Note_off_c, 0, 65, 62
1, 252799, Control_c, 0, 64, 94
1, 252804, Note_off_c, 0, 41, 64
1, 252814, Control_c, 0, 64, 96
1, 252816, Note_on_c, 0, 69, 78
1, 252822, Note_on_c, 0, 40, 65
1, 252834, Note_on_c, 0, 60, 71
1, 252877, Note_off_c, 0, 60, 55
1, 252898, Note_off_c, 0, 69, 57
1, 252911, Note_off_c, 0, 40, 62
1, 252912, Note_on_c, 0, 41, 79
1, 252914, Note_on_c, 0, 65, 68
1, 252928, Note_on_c, 0, 62, 57
1, 252983, Note_off_c, 0, 65, 62
1, 252994, Note_off_c, 0, 62, 61
1, 252995, Note_on_c, 0, 59, 68
1, 252995, Note_off_c, 0, 41, 63
1, 252999, Note_on_c, 0, 69, 73
1, 253001, Note_on_c, 0, 40, 80
1, 253064, Note_off_c, 0, 59, 57
1, 253066, Note_off_c, 0, 69, 63
1, 253075, Note_on_c, 0, 65, 75
1, 253080, Note_off_c, 0, 40, 62
1, 253082, Note_on_c, 0, 62, 62
1, 253087, Note_on_c, 0, 41, 85
1, 253141, Note_off_c, 0, 65, 62
1, 253151, Note_on_c, 0, 60, 75
1, 253151, Note_on_c, 0, 69, 72
1, 253151, Note_off_c, 0, 62, 60
1, 253168, Note_off_c, 0, 41, 55
1, 253176, Note_on_c, 0, 40, 84
1, 253221, Note_off_c, 0, 60, 56
1, 253225, Note_off_c, 0, 69, 64
1, 253229, Note_on_c, 0, 65, 78
1, 253234, Note_on_c, 0, 62, 68
1, 253258, Note_off_c, 0, 40, 63
1, 253265, Note_on_c, 0, 41, 91
1, 253293, Note_off_c, 0, 65, 63
1, 253300, Note_on_c, 0, 69, 79
1, 253303, Note_on_c, 0, 59, 77
1, 253307, Note_off_c, 0, 62, 62
1, 253353, Note_off_c, 0, 41, 39
1, 253355, Note_on_c, 0, 40, 85
1, 253379, Note_off_c, 0, 59, 53
1, 253385, Note_off_c, 0, 69, 65
1, 253387, Note_on_c, 0, 65, 83
1, 253398, Note_on_c, 0, 62, 71
1, 253400, Control_c, 0, 64, 95
1, 253436, Note_off_c, 0, 40, 61
1, 253451, Note_on_c, 0, 41, 88
1, 253466, Note_off_c, 0, 65, 63
1, 253471, Note_on_c, 0, 69, 83
1, 253475, Note_off_c, 0, 62, 61
1, 253477, Note_on_c, 0, 60, 78
1, 253531, Note_off_c, 0, 41, 41
1, 253537, Note_on_c, 0, 40, 85
1, 253558, Note_off_c, 0, 69, 65
1, 253560, Note_off_c, 0, 60, 59
1, 253561, Note_on_c, 0, 62, 76
1, 253561, Note_on_c, 0, 65, 81
1, 253620, Note_off_c, 0, 40, 63
1, 253631, Note_on_c, 0, 41, 89
1, 253632, Note_off_c, 0, 65, 63
1, 253641, Note_on_c, 0, 59, 78
1, 253642, Note_on_c, 0, 69, 75
1, 253644, Note_off_c, 0, 62, 62
1, 253689, Note_off_c, 0, 41, 65
1, 253715, Note_off_c, 0, 69, 66
1, 253717, Note_on_c, 0, 62, 73
1, 253718, Note_on_c, 0, 65, 81
1, 253722, Note_on_c, 0, 40, 89
1, 253723, Note_off_c, 0, 59, 61
1, 253799, Note_off_c, 0, 65, 64
1, 253801, Note_on_c, 0, 69, 83
1, 253802, Note_on_c, 0, 60, 79
1, 253810, Note_off_c, 0, 62, 62
1, 253811, Note_on_c, 0, 41, 87
1, 253817, Note_off_c, 0, 40, 64
1, 253884, Note_off_c, 0, 60, 56
1, 253886, Note_on_c, 0, 62, 75
1, 253887, Note_on_c, 0, 65, 83
1, 253890, Note_off_c, 0, 69, 65
1, 253899, Note_off_c, 0, 41, 43
1, 253901, Note_on_c, 0, 40, 87
1, 253968, Note_on_c, 0, 69, 80
1, 253969, Note_on_c, 0, 59, 81
1, 253969, Note_off_c, 0, 65, 65
1, 253972, Note_off_c, 0, 62, 62
1, 253984, Note_off_c, 0, 40, 63
1, 253990, Note_on_c, 0, 41, 87
1, 254053, Note_on_c, 0, 62, 80
1, 254054, Note_on_c, 0, 65, 81
1, 254059, Note_off_c, 0, 59, 61
1, 254062, Note_off_c, 0, 69, 62
1, 254071, Note_on_c, 0, 40, 87
1, 254077, Note_off_c, 0, 41, 63
1, 254134, Note_on_c, 0, 69, 80
1, 254145, Note_on_c, 0, 60, 86
1, 254147, Note_off_c, 0, 65, 65
1, 254153, Note_off_c, 0, 62, 62
1, 254163, Note_on_c, 0, 41, 89
1, 254167, Note_off_c, 0, 40, 63
1, 254229, Note_off_c, 0, 60, 53
1, 254236, Note_on_c, 0, 62, 81
1, 254238, Note_on_c, 0, 65, 82
1, 254243, Note_off_c, 0, 69, 64
1, 254255, Note_on_c, 0, 40, 89
1, 254264, Note_off_c, 0, 41, 62
1, 254317, Note_on_c, 0, 69, 84
1, 254323, Note_on_c, 0, 59, 81
1, 254329, Note_off_c, 0, 65, 64
1, 254342, Note_off_c, 0, 40, 62
1, 254343, Note_on_c, 0, 41, 83
1, 254351, Note_off_c, 0, 62, 60
1, 254408, Note_on_c, 0, 62, 70
1, 254410, Note_on_c, 0, 65, 79
1, 254411, Note_off_c, 0, 69, 62
1, 254414, Note_off_c, 0, 59, 59
1, 254436, Note_off_c, 0, 41, 60
1, 254437, Note_on_c, 0, 40, 88
1, 254446, Control_c, 0, 64, 96
1, 254461, Control_c, 0, 64, 96
1, 254475, Control_c, 0, 64, 98
1, 254490, Control_c, 0, 64, 100
1, 254496, Note_on_c, 0, 69, 85
1, 254500, Note_off_c, 0, 65, 62
1, 254503, Note_on_c, 0, 60, 82
1, 254505, Control_c, 0, 64, 103
1, 254518, Note_on_c, 0, 41, 87
1, 254519, Control_c, 0, 64, 107
1, 254521, Note_off_c, 0, 40, 62
1, 254524, Note_off_c, 0, 62, 55
1, 254534, Control_c, 0, 64, 114
1, 254548, Control_c, 0, 64, 127
1, 254583, Note_on_c, 0, 65, 78
1, 254588, Note_off_c, 0, 60, 62
1, 254588, Note_off_c, 0, 69, 65
1, 254592, Note_on_c, 0, 62, 63
1, 254602, Note_off_c, 0, 41, 58
1, 254613, Note_on_c, 0, 40, 84
1, 254655, Note_on_c, 0, 69, 77
1, 254659, Note_off_c, 0, 65, 65
1, 254660, Note_on_c, 0, 59, 82
1, 254673, Note_off_c, 0, 62, 63
1, 254676, Note_on_c, 0, 41, 85
1, 254686, Note_off_c, 0, 40, 63
1, 254694, Note_off_c, 0, 69, 61
1, 254701, Note_off_c, 0, 59, 63
1, 254883, Note_off_c, 0, 41, 62
1, 254892, Note_on_c, 0, 40, 87
1, 254896, Control_c, 0, 64, 125
1, 254905, Note_on_c, 0, 52, 113
1, 254911, Control_c, 0, 64, 86
1, 254927, Control_c, 0, 64, 32
1, 254942, Control_c, 0, 64, 0
1, 254971, Control_c, 0, 64, 70
1, 254985, Note_on_c, 0, 41, 80
1, 254986, Control_c, 0, 64, 85
1, 254990, Note_off_c, 0, 40, 64
1, 255001, Control_c, 0, 64, 103
1, 255016, Control_c, 0, 64, 114
1, 255033, Note_off_c, 0, 52, 56
1, 255037, Note_on_c, 0, 53, 68
1, 255059, Note_off_c, 0, 41, 65
1, 255060, Note_on_c, 0, 40, 71
1, 255060, Control_c, 0, 64, 115
1, 255075, Control_c, 0, 64, 116
1, 255090, Control_c, 0, 64, 118
1, 255105, Control_c, 0, 64, 121
1, 255106, Note_off_c, 0, 53, 64
1, 255120, Control_c, 0, 64, 125
1, 255121, Note_off_c, 0, 40, 63
1, 255134, Note_on_c, 0, 52, 67
1, 255135, Control_c, 0, 64, 127
1, 255138, Note_on_c, 0, 41, 69
1, 255184, Note_on_c, 0, 53, 42
1, 255189, Note_off_c, 0, 41, 64
1, 255190, Note_on_c, 0, 40, 71
1, 255192, Note_off_c, 0, 52, 36
1, 255212, Note_off_c, 0, 53, 61
1, 255242, Note_on_c, 0, 52, 49
1, 255242, Note_off_c, 0, 40, 61
1, 255257, Note_on_c, 0, 41, 72
1, 255299, Note_on_c, 0, 53, 63
1, 255302, Note_off_c, 0, 52, 62
1, 255370, Note_on_c, 0, 52, 71
1, 255385, Note_off_c, 0, 53, 65
1, 255406, Note_on_c, 0, 40, 81
1, 255406, Note_off_c, 0, 52, 65
1, 255407, Note_off_c, 0, 41, 64
1, 255439, Note_on_c, 0, 50, 105
1, 255445, Control_c, 0, 64, 98
1, 255456, Note_on_c, 0, 38, 84
1, 255460, Control_c, 0, 64, 73
1, 255466, Note_off_c, 0, 40, 65
1, 255475, Control_c, 0, 64, 0
1, 255504, Control_c, 0, 64, 64
1, 255519, Control_c, 0, 64, 78
1, 255534, Control_c, 0, 64, 94
1, 255549, Control_c, 0, 64, 112
1, 255555, Note_off_c, 0, 38, 62
1, 255560, Note_on_c, 0, 40, 79
1, 255564, Control_c, 0, 64, 120
1, 255579, Control_c, 0, 64, 121
1, 255590, Note_off_c, 0, 50, 59
1, 255594, Control_c, 0, 64, 123
1, 255602, Note_on_c, 0, 52, 69
1, 255608, Control_c, 0, 64, 127
1, 255627, Note_off_c, 0, 40, 64
1, 255628, Note_on_c, 0, 38, 78
1, 255656, Note_off_c, 0, 52, 62
1, 255685, Note_on_c, 0, 50, 64
1, 255697, Note_off_c, 0, 38, 61
1, 255707, Note_on_c, 0, 40, 81
1, 255716, Note_off_c, 0, 50, 61
1, 255743, Note_on_c, 0, 52, 67
1, 255772, Note_off_c, 0, 40, 63
1, 255773, Note_on_c, 0, 38, 78
1, 255773, Note_off_c, 0, 52, 66
1, 255798, Note_on_c, 0, 50, 65
1, 255823, Note_off_c, 0, 50, 69
1, 255832, Note_on_c, 0, 40, 79
1, 255832, Note_off_c, 0, 38, 62
1, 255843, Note_on_c, 0, 52, 70
1, 255898, Note_on_c, 0, 38, 77
1, 255903, Note_off_c, 0, 40, 63
1, 255909, Note_on_c, 0, 50, 74
1, 255916, Note_off_c, 0, 52, 66
1, 255947, Note_off_c, 0, 50, 66
1, 255964, Note_on_c, 0, 36, 88
1, 255976, Note_off_c, 0, 38, 61
1, 255982, Note_on_c, 0, 48, 99
1, 256002, Control_c, 0, 64, 90
1, 256017, Control_c, 0, 64, 66
1, 256032, Control_c, 0, 64, 0
1, 256061, Control_c, 0, 64, 68
1, 256063, Note_off_c, 0, 36, 64
1, 256065, Note_on_c, 0, 38, 83
1, 256076, Control_c, 0, 64, 85
1, 256091, Control_c, 0, 64, 103
1, 256106, Control_c, 0, 64, 116
1, 256120, Control_c, 0, 64, 119
1, 256135, Control_c, 0, 64, 119
1, 256149, Note_off_c, 0, 38, 59
1, 256150, Control_c, 0, 64, 120
1, 256152, Note_on_c, 0, 36, 78
1, 256152, Note_off_c, 0, 48, 60
1, 256165, Control_c, 0, 64, 121
1, 256172, Note_on_c, 0, 50, 64
1, 256180, Control_c, 0, 64, 123
1, 256194, Control_c, 0, 64, 126
1, 256209, Control_c, 0, 64, 127
1, 256217, Note_off_c, 0, 50, 62
1, 256224, Note_on_c, 0, 38, 72
1, 256226, Note_off_c, 0, 36, 63
1, 256263, Note_on_c, 0, 48, 52
1, 256278, Note_off_c, 0, 48, 71
1, 256300, Note_off_c, 0, 38, 59
1, 256300, Note_on_c, 0, 36, 73
1, 256305, Note_on_c, 0, 50, 62
1, 256337, Note_off_c, 0, 50, 63
1, 256347, Note_on_c, 0, 48, 53
1, 256364, Note_off_c, 0, 36, 62
1, 256370, Note_on_c, 0, 38, 78
1, 256409, Note_off_c, 0, 48, 63
1, 256422, Note_on_c, 0, 50, 65
1, 256449, Note_on_c, 0, 36, 82
1, 256455, Note_off_c, 0, 38, 63
1, 256496, Note_off_c, 0, 50, 62
1, 256497, Note_on_c, 0, 48, 78
1, 256524, Note_off_c, 0, 36, 63
1, 256537, Note_off_c, 0, 48, 64
1, 256545, Note_on_c, 0, 35, 82
1, 256586, Note_on_c, 0, 47, 100
1, 256588, Control_c, 0, 64, 91
1, 256603, Control_c, 0, 64, 66
1, 256617, Control_c, 0, 64, 0
1, 256647, Control_c, 0, 64, 66
1, 256654, Note_off_c, 0, 35, 65
1, 256662, Control_c, 0, 64, 79
1, 256665, Note_on_c, 0, 36, 82
1, 256677, Control_c, 0, 64, 95
1, 256692, Control_c, 0, 64, 108
1, 256707, Control_c, 0, 64, 112
1, 256722, Control_c, 0, 64, 112
1, 256725, Note_off_c, 0, 47, 46
1, 256729, Note_off_c, 0, 36, 59
1, 256744, Note_on_c, 0, 48, 69
1, 256751, Control_c, 0, 64, 113
1, 256752, Note_on_c, 0, 35, 76
1, 256767, Control_c, 0, 64, 114
1, 256782, Control_c, 0, 64, 115
1, 256797, Control_c, 0, 64, 116
1, 256803, Note_off_c, 0, 48, 64
1, 256811, Control_c, 0, 64, 118
1, 256826, Control_c, 0, 64, 119
1, 256828, Note_off_c, 0, 35, 61
1, 256834, Note_on_c, 0, 36, 81
1, 256837, Note_on_c, 0, 47, 65
1, 256841, Control_c, 0, 64, 121
1, 256856, Control_c, 0, 64, 124
1, 256864, Note_off_c, 0, 47, 62
1, 256870, Control_c, 0, 64, 127
1, 256891, Note_off_c, 0, 36, 59
1, 256892, Note_on_c, 0, 48, 66
1, 256894, Note_on_c, 0, 35, 73
1, 256931, Note_off_c, 0, 48, 64
1, 256958, Note_on_c, 0, 47, 64
1, 256962, Note_off_c, 0, 35, 61
1, 256977, Note_on_c, 0, 36, 66
1, 256989, Note_off_c, 0, 47, 64
1, 256998, Note_on_c, 0, 48, 69
1, 257012, Note_off_c, 0, 36, 57
1, 257060, Note_on_c, 0, 47, 90
1, 257073, Note_off_c, 0, 48, 61
1, 257103, Note_off_c, 0, 47, 64
1, 257189, Control_c, 0, 64, 108
1, 257204, Control_c, 0, 64, 80
1, 257205, Note_on_c, 0, 45, 95
1, 257207, Note_on_c, 0, 33, 84
1, 257218, Control_c, 0, 64, 36
1, 257233, Control_c, 0, 64, 39
1, 257236, Note_off_c, 0, 33, 69
1, 257248, Control_c, 0, 64, 69
1, 257251, Note_off_c, 0, 45, 66
1, 257263, Control_c, 0, 64, 82
1, 257278, Control_c, 0, 64, 99
1, 257293, Control_c, 0, 64, 108
1, 257304, Note_on_c, 0, 60, 88
1, 257306, Note_on_c, 0, 65, 82
1, 257308, Control_c, 0, 64, 107
1, 257323, Control_c, 0, 64, 95
1, 257334, Note_off_c, 0, 65, 65
1, 257338, Control_c, 0, 64, 75
1, 257341, Note_off_c, 0, 60, 59
1, 257353, Control_c, 0, 64, 0
1, 257411, Note_on_c, 0, 65, 86
1, 257412, Note_on_c, 0, 60, 82
1, 257421, Note_on_c, 0, 53, 76
1, 257427, Note_on_c, 0, 45, 66
1, 257436, Note_off_c, 0, 60, 66
1, 257443, Note_on_c, 0, 57, 35
1, 257459, Note_off_c, 0, 53, 54
1, 257487, Note_off_c, 0, 45, 45
1, 257496, Note_off_c, 0, 57, 0
1, 257496, Note_on_c, 0, 57, 61
1, 257501, Note_on_c, 0, 63, 82
1, 257512, Note_off_c, 0, 65, 62
1, 257530, Note_off_c, 0, 57, 64
1, 257545, Note_off_c, 0, 63, 61
1, 257566, Note_on_c, 0, 48, 59
1, 257585, Note_on_c, 0, 63, 72
1, 257591, Note_off_c, 0, 48, 60
1, 257597, Note_on_c, 0, 57, 68
1, 257654, Note_off_c, 0, 57, 39
1, 257654, Note_off_c, 0, 63, 0
1, 257666, Note_on_c, 0, 64, 69
1, 257669, Note_on_c, 0, 60, 69
1, 257692, Poly_aftertouch_c, 0, 63, 127
1, 257694, Note_off_c, 0, 60, 67
1, 257725, Note_off_c, 0, 64, 64
1, 257741, Note_on_c, 0, 41, 91
1, 257746, Poly_aftertouch_c, 0, 63, 0
1, 257746, Note_on_c, 0, 29, 79
1, 257768, Note_off_c, 0, 41, 70
1, 257768, Control_c, 0, 64, 94
1, 257778, Note_off_c, 0, 29, 63
1, 257783, Control_c, 0, 64, 127
1, 257818, Note_on_c, 0, 63, 84
1, 257833, Note_on_c, 0, 71, 59
1, 257850, Note_off_c, 0, 63, 57
1, 257853, Note_off_c, 0, 71, 63
1, 257914, Note_on_c, 0, 63, 85
1, 257919, Note_on_c, 0, 71, 83
1, 257945, Note_on_c, 0, 55, 73
1, 257953, Note_on_c, 0, 47, 67
1, 257961, Note_off_c, 0, 63, 65
1, 257969, Note_off_c, 0, 71, 58
1, 257983, Note_off_c, 0, 55, 56
1, 257996, Note_on_c, 0, 59, 47
1, 258015, Note_on_c, 0, 68, 79
1, 258017, Note_off_c, 0, 47, 43
1, 258038, Note_off_c, 0, 68, 69
1, 258047, Note_off_c, 0, 59, 62
1, 258059, Note_on_c, 0, 53, 75
1, 258074, Poly_aftertouch_c, 0, 63, 0
1, 258085, Note_off_c, 0, 53, 67
1, 258086, Control_c, 0, 64, 112
1, 258093, Note_on_c, 0, 59, 64
1, 258098, Note_on_c, 0, 68, 92
1, 258101, Control_c, 0, 64, 83
1, 258117, Control_c, 0, 64, 0
1, 258160, Note_off_c, 0, 59, 61
1, 258163, Note_on_c, 0, 69, 80
1, 258184, Note_off_c, 0, 68, 64
1, 258200, Note_off_c, 0, 69, 69
1, 258232, Note_on_c, 0, 63, 7
1, 258233, Note_off_c, 0, 63, 127
1, 258234, Note_on_c, 0, 40, 85
1, 258234, Note_on_c, 0, 52, 91
1, 258250, Control_c, 0, 64, 66
1, 258257, Note_off_c, 0, 40, 66
1, 258265, Control_c, 0, 64, 98
1, 258268, Note_off_c, 0, 52, 66
1, 258280, Control_c, 0, 64, 127
1, 258323, Note_on_c, 0, 77, 86
1, 258327, Note_on_c, 0, 74, 75
1, 258342, Note_off_c, 0, 77, 71
1, 258351, Note_off_c, 0, 74, 66
1, 258412, Note_on_c, 0, 77, 92
1, 258421, Note_on_c, 0, 64, 68
1, 258426, Note_on_c, 0, 52, 67
1, 258444, Note_off_c, 0, 52, 63
1, 258453, Note_off_c, 0, 64, 62
1, 258504, Note_on_c, 0, 75, 82
1, 258511, Note_off_c, 0, 77, 60
1, 258512, Note_on_c, 0, 68, 50
1, 258529, Note_off_c, 0, 75, 66
1, 258538, Note_off_c, 0, 68, 58
1, 258588, Note_on_c, 0, 62, 68
1, 258590, Note_on_c, 0, 59, 56
1, 258613, Note_on_c, 0, 74, 54
1, 258617, Note_on_c, 0, 76, 52
1, 258637, Note_off_c, 0, 74, 64
1, 258638, Note_off_c, 0, 62, 57
1, 258645, Note_off_c, 0, 59, 55
1, 258646, Note_off_c, 0, 76, 57
1, 258698, Note_on_c, 0, 74, 69
1, 258700, Note_on_c, 0, 76, 59
1, 258715, Note_off_c, 0, 74, 70
1, 258720, Note_off_c, 0, 76, 66
1, 258752, Note_on_c, 0, 52, 73
1, 258752, Note_on_c, 0, 64, 76
1, 258771, Note_on_c, 0, 76, 78
1, 258777, Note_on_c, 0, 74, 69
1, 258795, Note_off_c, 0, 64, 60
1, 258798, Note_off_c, 0, 74, 72
1, 258813, Note_off_c, 0, 76, 67
1, 258850, Note_on_c, 0, 77, 84
1, 258860, Note_off_c, 0, 52, 48
1, 258897, Note_off_c, 0, 77, 60
1, 258918, Note_on_c, 0, 62, 61
1, 258928, Note_on_c, 0, 59, 63
1, 258935, Note_on_c, 0, 77, 75
1, 258945, Note_on_c, 0, 75, 74
1, 258968, Note_off_c, 0, 62, 60
1, 258968, Note_off_c, 0, 75, 71
1, 258977, Note_off_c, 0, 59, 46
1, 259025, Note_on_c, 0, 74, 55
1, 259040, Note_on_c, 0, 75, 38
1, 259043, Note_off_c, 0, 77, 54
1, 259045, Note_off_c, 0, 74, 66
1, 259076, Note_off_c, 0, 75, 0
1, 259079, Note_on_c, 0, 52, 73
1, 259079, Note_on_c, 0, 64, 67
1, 259087, Note_on_c, 0, 75, 60
1, 259100, Note_off_c, 0, 64, 66
1, 259111, Note_on_c, 0, 74, 59
1, 259127, Note_off_c, 0, 52, 65
1, 259129, Note_off_c, 0, 74, 65
1, 259170, Note_on_c, 0, 76, 86
1, 259188, Note_on_c, 0, 68, 71
1, 259189, Note_off_c, 0, 75, 59
1, 259191, Control_c, 0, 64, 101
1, 259205, Control_c, 0, 64, 71
1, 259213, Note_off_c, 0, 68, 67
1, 259220, Control_c, 0, 64, 0
1, 259250, Control_c, 0, 64, 27
1, 259254, Note_off_c, 0, 76, 61
1, 259260, Note_on_c, 0, 45, 79
1, 259262, Note_on_c, 0, 57, 79
1, 259264, Control_c, 0, 64, 87
1, 259279, Control_c, 0, 64, 127
1, 259287, Note_off_c, 0, 45, 65
1, 259291, Note_off_c, 0, 57, 63
1, 259357, Note_on_c, 0, 74, 52
1, 259359, Note_on_c, 0, 76, 57
1, 259386, Note_off_c, 0, 74, 63
1, 259389, Note_off_c, 0, 76, 64
1, 259442, Note_on_c, 0, 76, 70
1, 259445, Note_on_c, 0, 72, 72
1, 259452, Note_on_c, 0, 57, 51
1, 259458, Note_on_c, 0, 64, 45
1, 259460, Note_off_c, 0, 76, 69
1, 259460, Note_on_c, 0, 62, 46
1, 259469, Note_off_c, 0, 72, 70
1, 259482, Note_off_c, 0, 64, 58
1, 259495, Note_off_c, 0, 62, 50
1, 259509, Note_on_c, 0, 77, 88
1, 259515, Note_off_c, 0, 57, 51
1, 259521, Note_on_c, 0, 72, 75
1, 259543, Note_off_c, 0, 72, 71
1, 259553, Note_off_c, 0, 77, 62
1, 259584, Note_on_c, 0, 77, 75
1, 259585, Note_on_c, 0, 50, 64
1, 259598, Note_on_c, 0, 72, 77
1, 259619, Note_off_c, 0, 72, 67
1, 259621, Note_off_c, 0, 50, 63
1, 259627, Note_off_c, 0, 77, 64
1, 259683, Note_on_c, 0, 72, 89
1, 259684, Note_on_c, 0, 78, 91
1, 259716, Note_off_c, 0, 72, 63
1, 259717, Control_c, 0, 64, 103
1, 259731, Note_off_c, 0, 78, 62
1, 259732, Control_c, 0, 64, 71
1, 259744, Note_on_c, 0, 43, 82
1, 259747, Control_c, 0, 64, 0
1, 259749, Note_on_c, 0, 55, 80
1, 259767, Note_on_c, 0, 78, 82
1, 259770, Note_on_c, 0, 72, 88
1, 259774, Note_off_c, 0, 43, 67
1, 259776, Control_c, 0, 64, 62
1, 259785, Note_off_c, 0, 55, 61
1, 259791, Control_c, 0, 64, 75
1, 259806, Note_off_c, 0, 72, 66
1, 259806, Control_c, 0, 64, 94
1, 259809, Note_on_c, 0, 71, 25
1, 259821, Control_c, 0, 64, 117
1, 259836, Control_c, 0, 64, 127
1, 259845, Note_off_c, 0, 71, 0
1, 259858, Note_on_c, 0, 71, 63
1, 259859, Note_on_c, 0, 79, 79
1, 259877, Note_off_c, 0, 78, 58
1, 259897, Note_off_c, 0, 71, 62
1, 259904, Note_off_c, 0, 79, 63
1, 259951, Note_on_c, 0, 79, 76
1, 259952, Note_on_c, 0, 71, 81
1, 259955, Note_on_c, 0, 62, 63
1, 259973, Note_on_c, 0, 55, 35
1, 259984, Note_off_c, 0, 62, 57
1, 259991, Note_off_c, 0, 71, 60
1, 259996, Note_off_c, 0, 55, 60
1, 259996, Note_off_c, 0, 79, 62
1, 260032, Note_on_c, 0, 74, 80
1, 260077, Note_off_c, 0, 74, 63
1, 260101, Note_on_c, 0, 48, 72
1, 260107, Note_on_c, 0, 74, 56
1, 260138, Note_off_c, 0, 48, 66
1, 260187, Note_on_c, 0, 76, 78
1, 260198, Note_on_c, 0, 70, 72
1, 260198, Note_off_c, 0, 74, 61
1, 260216, Note_off_c, 0, 70, 68
1, 260232, Note_off_c, 0, 76, 65
1, 260243, Control_c, 0, 64, 114
1, 260258, Control_c, 0, 64, 80
1, 260259, Note_on_c, 0, 76, 63
1, 260267, Note_on_c, 0, 70, 88
1, 260272, Note_on_c, 0, 41, 89
1, 260273, Control_c, 0, 64, 0
1, 260274, Note_on_c, 0, 53, 86
1, 260298, Note_off_c, 0, 53, 71
1, 260299, Note_off_c, 0, 41, 71
1, 260300, Note_off_c, 0, 70, 60
1, 260317, Control_c, 0, 64, 67
1, 260332, Control_c, 0, 64, 81
1, 260345, Note_on_c, 0, 77, 88
1, 260347, Control_c, 0, 64, 99
1, 260360, Note_off_c, 0, 76, 45
1, 260361, Control_c, 0, 64, 116
1, 260367, Note_on_c, 0, 69, 67
1, 260376, Control_c, 0, 64, 122
1, 260384, Note_off_c, 0, 69, 67
1, 260391, Control_c, 0, 64, 123
1, 260405, Note_off_c, 0, 77, 61
1, 260406, Control_c, 0, 64, 124
1, 260435, Control_c, 0, 64, 123
1, 260439, Note_on_c, 0, 77, 71
1, 260441, Note_on_c, 0, 69, 91
1, 260450, Control_c, 0, 64, 115
1, 260460, Note_on_c, 0, 60, 58
1, 260465, Note_on_c, 0, 53, 60
1, 260465, Control_c, 0, 64, 97
1, 260467, Note_off_c, 0, 69, 69
1, 260480, Control_c, 0, 64, 75
1, 260483, Note_off_c, 0, 60, 60
1, 260494, Control_c, 0, 64, 54
1, 260511, Control_c, 0, 64, 58
1, 260523, Note_off_c, 0, 53, 52
1, 260526, Control_c, 0, 64, 71
1, 260530, Note_on_c, 0, 72, 67
1, 260535, Note_off_c, 0, 77, 61
1, 260541, Control_c, 0, 64, 88
1, 260556, Control_c, 0, 64, 110
1, 260558, Note_off_c, 0, 72, 61
1, 260560, Note_on_c, 0, 69, 37
1, 260571, Control_c, 0, 64, 127
1, 260585, Control_c, 0, 64, 121
1, 260600, Control_c, 0, 64, 97
1, 260604, Note_off_c, 0, 69, 0
1, 260614, Note_on_c, 0, 72, 82
1, 260615, Control_c, 0, 64, 72
1, 260619, Note_on_c, 0, 69, 46
1, 260625, Note_on_c, 0, 59, 54
1, 260629, Control_c, 0, 64, 0
1, 260639, Note_off_c, 0, 69, 58
1, 260647, Note_off_c, 0, 59, 58
1, 260659, Control_c, 0, 64, 61
1, 260663, Note_on_c, 0, 74, 53
1, 260674, Control_c, 0, 64, 80
1, 260685, Note_on_c, 0, 57, 5
1, 260689, Control_c, 0, 64, 108
1, 260703, Control_c, 0, 64, 127
1, 260719, Note_off_c, 0, 72, 63
1, 260724, Note_off_c, 0, 57, 36
1, 260733, Note_on_c, 0, 76, 78
1, 260733, Control_c, 0, 64, 97
1, 260748, Note_on_c, 0, 52, 79
1, 260748, Control_c, 0, 64, 71
1, 260756, Note_on_c, 0, 60, 72
1, 260763, Control_c, 0, 64, 0
1, 260781, Note_off_c, 0, 60, 66
1, 260786, Note_off_c, 0, 52, 65
1, 260793, Control_c, 0, 64, 67
1, 260799, Note_off_c, 0, 74, 51
1, 260807, Control_c, 0, 64, 88
1, 260809, Note_on_c, 0, 72, 77
1, 260816, Note_off_c, 0, 76, 62
1, 260822, Control_c, 0, 64, 127
1, 260867, Control_c, 0, 64, 115
1, 260889, Control_c, 0, 64, 84
1, 260904, Control_c, 0, 64, 55
1, 260917, Note_on_c, 0, 63, 74
1, 260918, Control_c, 0, 64, 0
1, 260927, Note_on_c, 0, 51, 61
1, 260933, Note_off_c, 0, 72, 61
1, 260933, Control_c, 0, 64, 70
1, 260948, Control_c, 0, 64, 95
1, 260956, Note_off_c, 0, 63, 57
1, 260959, Note_off_c, 0, 51, 63
1, 260963, Control_c, 0, 64, 127
1, 260981, Note_on_c, 0, 71, 71
1, 261003, Note_off_c, 0, 71, 68
1, 261022, Control_c, 0, 64, 103
1, 261037, Control_c, 0, 64, 75
1, 261045, Note_on_c, 0, 71, 75
1, 261052, Control_c, 0, 64, 0
1, 261064, Note_on_c, 0, 62, 70
1, 261064, Note_on_c, 0, 52, 73
1, 261064, Note_on_c, 0, 56, 73
1, 261085, Note_off_c, 0, 56, 68
1, 261085, Note_off_c, 0, 62, 64
1, 261100, Note_off_c, 0, 52, 66
1, 261115, Note_on_c, 0, 64, 71
1, 261143, Note_off_c, 0, 64, 68
1, 261150, Note_off_c, 0, 71, 62
1, 261171, Control_c, 0, 64, 72
1, 261185, Control_c, 0, 64, 103
1, 261200, Control_c, 0, 64, 127
1, 261204, Note_on_c, 0, 57, 96
1, 261207, Note_on_c, 0, 45, 89
1, 261228, Note_off_c, 0, 57, 67
1, 261231, Note_off_c, 0, 45, 70
1, 261287, Note_on_c, 0, 74, 48
1, 261287, Note_on_c, 0, 77, 50
1, 261306, Note_on_c, 0, 72, 33
1, 261309, Note_off_c, 0, 74, 61
1, 261311, Note_off_c, 0, 77, 55
1, 261338, Note_off_c, 0, 72, 48
1, 261367, Note_on_c, 0, 77, 84
1, 261380, Note_on_c, 0, 65, 86
1, 261383, Note_on_c, 0, 57, 77
1, 261407, Note_off_c, 0, 65, 60
1, 261450, Note_on_c, 0, 69, 79
1, 261454, Note_off_c, 0, 57, 34
1, 261470, Note_on_c, 0, 75, 47
1, 261472, Note_off_c, 0, 77, 57
1, 261483, Note_off_c, 0, 69, 57
1, 261493, Note_off_c, 0, 75, 56
1, 261496, Note_on_c, 0, 60, 75
1, 261521, Note_off_c, 0, 60, 68
1, 261538, Note_on_c, 0, 75, 77
1, 261550, Note_on_c, 0, 69, 50
1, 261556, Control_c, 0, 64, 109
1, 261571, Control_c, 0, 64, 75
1, 261575, Note_off_c, 0, 69, 58
1, 261585, Control_c, 0, 64, 0
1, 261597, Note_on_c, 0, 72, 66
1, 261599, Note_on_c, 0, 76, 78
1, 261621, Note_off_c, 0, 75, 55
1, 261621, Note_off_c, 0, 72, 69
1, 261654, Note_off_c, 0, 76, 64
1, 261666, Control_c, 0, 64, 66
1, 261669, Note_on_c, 0, 41, 84
1, 261669, Note_on_c, 0, 53, 84
1, 261681, Control_c, 0, 64, 82
1, 261692, Note_off_c, 0, 53, 71
1, 261695, Note_off_c, 0, 41, 68
1, 261696, Control_c, 0, 64, 100
1, 261711, Control_c, 0, 64, 117
1, 261726, Control_c, 0, 64, 121
1, 261740, Control_c, 0, 64, 123
1, 261755, Control_c, 0, 64, 127
1, 261756, Note_on_c, 0, 84, 68
1, 261762, Note_on_c, 0, 76, 60
1, 261762, Poly_aftertouch_c, 0, 55, 0
1, 261772, Note_off_c, 0, 84, 67
1, 261780, Note_off_c, 0, 76, 66
1, 261821, Note_on_c, 0, 83, 40
1, 261839, Note_on_c, 0, 75, 83
1, 261863, Note_on_c, 0, 59, 61
1, 261871, Note_on_c, 0, 69, 53
1, 261871, Note_off_c, 0, 75, 63
1, 261872, Note_on_c, 0, 67, 55
1, 261879, Note_on_c, 0, 71, 31
1, 261894, Note_off_c, 0, 83, 61
1, 261899, Note_off_c, 0, 69, 59
1, 261899, Note_off_c, 0, 71, 0
1, 261913, Note_off_c, 0, 67, 61
1, 261918, Note_on_c, 0, 71, 44
1, 261925, Note_on_c, 0, 80, 85
1, 261962, Note_off_c, 0, 59, 60
1, 261964, Note_on_c, 0, 65, 70
1, 261967, Note_off_c, 0, 80, 59
1, 261969, Note_off_c, 0, 71, 60
1, 261980, Note_off_c, 0, 65, 67
1, 262003, Note_on_c, 0, 80, 74
1, 262013, Note_on_c, 0, 71, 44
1, 262042, Note_on_c, 0, 81, 70
1, 262043, Note_off_c, 0, 71, 62
1, 262066, Control_c, 0, 64, 120
1, 262078, Note_off_c, 0, 80, 67
1, 262081, Control_c, 0, 64, 84
1, 262096, Control_c, 0, 64, 0
1, 262110, Note_off_c, 0, 81, 63
1, 262134, Note_on_c, 0, 52, 81
1, 262137, Note_on_c, 0, 64, 89
1, 262142, Control_c, 0, 64, 63
1, 262156, Control_c, 0, 64, 74
1, 262163, Note_off_c, 0, 52, 68
1, 262171, Control_c, 0, 64, 89
1, 262182, Note_off_c, 0, 64, 64
1, 262186, Control_c, 0, 64, 107
1, 262200, Control_c, 0, 64, 123
1, 262215, Control_c, 0, 64, 126
1, 262217, Note_on_c, 0, 89, 98
1, 262223, Note_on_c, 0, 86, 87
1, 262230, Control_c, 0, 64, 127
1, 262247, Note_off_c, 0, 89, 62
1, 262250, Note_off_c, 0, 86, 58
1, 262310, Note_on_c, 0, 89, 95
1, 262315, Note_on_c, 0, 64, 62
1, 262321, Note_on_c, 0, 76, 65
1, 262358, Note_off_c, 0, 76, 59
1, 262405, Note_off_c, 0, 64, 53
1, 262405, Note_on_c, 0, 80, 82
1, 262412, Note_on_c, 0, 87, 81
1, 262423, Note_off_c, 0, 89, 65
1, 262438, Note_off_c, 0, 80, 57
1, 262453, Note_off_c, 0, 87, 56
1, 262498, Note_on_c, 0, 87, 63
1, 262504, Note_on_c, 0, 71, 63
1, 262504, Note_on_c, 0, 74, 69
1, 262524, Note_on_c, 0, 88, 56
1, 262526, Note_off_c, 0, 87, 67
1, 262540, Note_off_c, 0, 74, 57
1, 262546, Note_off_c, 0, 88, 59
1, 262547, Note_off_c, 0, 71, 54
1, 262584, Note_on_c, 0, 86, 71
1, 262594, Note_on_c, 0, 88, 81
1, 262628, Note_off_c, 0, 86, 64
1, 262641, Note_off_c, 0, 88, 63
1, 262667, Note_on_c, 0, 64, 77
1, 262668, Note_on_c, 0, 76, 79
1, 262674, Poly_aftertouch_c, 0, 88, 0
1, 262679, Note_on_c, 0, 88, 59
1, 262682, Note_on_c, 0, 86, 68
1, 262686, Note_on_c, 0, 89, 83
1, 262711, Note_off_c, 0, 86, 65
1, 262713, Note_off_c, 0, 88, 63
1, 262721, Note_off_c, 0, 76, 61
1, 262728, Note_off_c, 0, 89, 65
1, 262760, Note_on_c, 0, 89, 81
1, 262769, Note_off_c, 0, 64, 54
1, 262823, Note_off_c, 0, 89, 62
1, 262851, Note_on_c, 0, 74, 69
1, 262855, Note_on_c, 0, 71, 65
1, 262855, Note_on_c, 0, 87, 91
1, 262856, Note_on_c, 0, 89, 41
1, 262857, Note_on_c, 0, 86, 71
1, 262882, Note_off_c, 0, 89, 49
1, 262891, Note_off_c, 0, 86, 63
1, 262900, Note_off_c, 0, 87, 63
1, 262909, Note_off_c, 0, 74, 60
1, 262936, Note_on_c, 0, 87, 77
1, 262945, Note_on_c, 0, 86, 79
1, 262982, Note_off_c, 0, 71, 53
1, 262986, Note_off_c, 0, 86, 61
1, 263020, Note_on_c, 0, 64, 76
1, 263022, Note_on_c, 0, 76, 66
1, 263034, Note_on_c, 0, 88, 96
1, 263035, Note_off_c, 0, 87, 0
1, 263038, Note_off_c, 0, 76, 69
1, 263043, Note_on_c, 0, 87, 10
1, 263044, Note_on_c, 0, 80, 81
1, 263050, Note_on_c, 0, 86, 49
1, 263065, Note_off_c, 0, 64, 63
1, 263076, Note_off_c, 0, 86, 52
1, 263091, Note_off_c, 0, 80, 44
1, 263150, Control_c, 0, 64, 103
1, 263165, Control_c, 0, 64, 70
1, 263174, Note_off_c, 0, 87, 25
1, 263180, Control_c, 0, 64, 0
1, 263195, Note_off_c, 0, 88, 54
1, 263207, Note_on_c, 0, 69, 97
1, 263208, Note_on_c, 0, 57, 86
1, 263209, Control_c, 0, 64, 66
1, 263224, Control_c, 0, 64, 81
1, 263237, Note_off_c, 0, 57, 64
1, 263238, Control_c, 0, 64, 103
1, 263244, Note_off_c, 0, 69, 67
1, 263253, Control_c, 0, 64, 127
1, 263297, Note_on_c, 0, 88, 75
1, 263301, Note_on_c, 0, 86, 61
1, 263327, Note_off_c, 0, 86, 67
1, 263331, Note_off_c, 0, 88, 58
1, 263401, Note_on_c, 0, 88, 60
1, 263406, Note_on_c, 0, 69, 73
1, 263407, Note_on_c, 0, 84, 59
1, 263419, Note_on_c, 0, 86, 40
1, 263420, Note_off_c, 0, 88, 62
1, 263424, Note_off_c, 0, 84, 65
1, 263446, Note_off_c, 0, 86, 52
1, 263478, Note_on_c, 0, 89, 71
1, 263484, Note_on_c, 0, 84, 79
1, 263495, Note_on_c, 0, 88, 62
1, 263505, Note_off_c, 0, 84, 71
1, 263512, Note_off_c, 0, 88, 54
1, 263520, Note_off_c, 0, 89, 64
1, 263523, Note_off_c, 0, 69, 38
1, 263553, Note_on_c, 0, 62, 60
1, 263560, Note_on_c, 0, 89, 66
1, 263565, Note_on_c, 0, 84, 84
1, 263585, Note_off_c, 0, 62, 63
1, 263585, Note_off_c, 0, 84, 68
1, 263593, Note_off_c, 0, 89, 65
1, 263654, Note_on_c, 0, 84, 81
1, 263658, Note_on_c, 0, 90, 76
1, 263678, Note_off_c, 0, 84, 66
1, 263681, Note_off_c, 0, 90, 68
1, 263699, Control_c, 0, 64, 114
1, 263714, Control_c, 0, 64, 87
1, 263729, Note_on_c, 0, 84, 88
1, 263729, Control_c, 0, 64, 63
1, 263732, Note_on_c, 0, 55, 90
1, 263732, Note_on_c, 0, 90, 88
1, 263734, Note_on_c, 0, 67, 92
1, 263744, Control_c, 0, 64, 40
1, 263759, Control_c, 0, 64, 68
1, 263761, Note_off_c, 0, 55, 64
1, 263765, Note_off_c, 0, 67, 63
1, 263773, Control_c, 0, 64, 82
1, 263784, Note_off_c, 0, 84, 64
1, 263788, Control_c, 0, 64, 102
1, 263803, Control_c, 0, 64, 127
1, 263825, Note_on_c, 0, 91, 71
1, 263844, Note_off_c, 0, 90, 64
1, 263849, Note_on_c, 0, 83, 44
1, 263851, Note_off_c, 0, 91, 62
1, 263857, Note_on_c, 0, 81, 28
1, 263882, Note_off_c, 0, 83, 36
1, 263899, Note_off_c, 0, 81, 32
1, 263908, Note_on_c, 0, 91, 75
1, 263914, Note_on_c, 0, 83, 74
1, 263923, Note_on_c, 0, 74, 56
1, 263937, Note_on_c, 0, 67, 47
1, 263945, Note_off_c, 0, 74, 58
1, 263952, Note_off_c, 0, 83, 56
1, 263967, Note_off_c, 0, 91, 54
1, 263994, Note_on_c, 0, 86, 89
1, 264012, Note_off_c, 0, 67, 33
1, 264041, Note_off_c, 0, 86, 65
1, 264067, Note_on_c, 0, 60, 58
1, 264073, Note_on_c, 0, 86, 74
1, 264098, Note_off_c, 0, 60, 65
1, 264131, Note_off_c, 0, 86, 64
1, 264163, Note_on_c, 0, 88, 84
1, 264178, Note_on_c, 0, 82, 73
1, 264193, Note_off_c, 0, 82, 69
1, 264195, Control_c, 0, 64, 98
1, 264210, Control_c, 0, 64, 71
1, 264222, Note_on_c, 0, 53, 85
1, 264224, Note_on_c, 0, 65, 85
1, 264225, Control_c, 0, 64, 0
1, 264243, Note_on_c, 0, 82, 96
1, 264248, Note_off_c, 0, 65, 67
1, 264250, Note_off_c, 0, 53, 66
1, 264254, Control_c, 0, 64, 67
1, 264269, Control_c, 0, 64, 80
1, 264283, Note_off_c, 0, 82, 63
1, 264284, Control_c, 0, 64, 96
1, 264299, Control_c, 0, 64, 110
1, 264314, Control_c, 0, 64, 114
1, 264327, Note_on_c, 0, 89, 89
1, 264328, Control_c, 0, 64, 115
1, 264343, Control_c, 0, 64, 117
1, 264355, Note_off_c, 0, 88, 63
1, 264358, Control_c, 0, 64, 121
1, 264373, Control_c, 0, 64, 127
1, 264391, Note_off_c, 0, 89, 60
1, 264416, Note_on_c, 0, 89, 68
1, 264420, Note_on_c, 0, 72, 62
1, 264427, Note_on_c, 0, 65, 58
1, 264430, Note_on_c, 0, 81, 93
1, 264458, Note_off_c, 0, 72, 58
1, 264461, Note_off_c, 0, 65, 62
1, 264468, Note_off_c, 0, 81, 61
1, 264507, Note_off_c, 0, 89, 0
1, 264524, Note_on_c, 0, 84, 80
1, 264547, Note_on_c, 0, 81, 47
1, 264557, Note_on_c, 0, 65, 67
1, 264562, Note_off_c, 0, 84, 56
1, 264569, Note_off_c, 0, 81, 55
1, 264581, Poly_aftertouch_c, 0, 89, 0
1, 264584, Note_off_c, 0, 65, 69
1, 264605, Note_on_c, 0, 84, 64
1, 264633, Note_on_c, 0, 81, 64
1, 264671, Note_off_c, 0, 81, 53
1, 264677, Control_c, 0, 64, 98
1, 264680, Note_on_c, 0, 86, 75
1, 264692, Control_c, 0, 64, 69
1, 264704, Note_on_c, 0, 52, 81
1, 264704, Note_on_c, 0, 64, 78
1, 264707, Control_c, 0, 64, 0
1, 264727, Note_off_c, 0, 52, 69
1, 264728, Note_off_c, 0, 84, 61
1, 264729, Note_off_c, 0, 64, 69
1, 264737, Control_c, 0, 64, 65
1, 264745, Note_on_c, 0, 88, 75
1, 264751, Control_c, 0, 64, 79
1, 264766, Control_c, 0, 64, 95
1, 264769, Note_off_c, 0, 86, 63
1, 264781, Control_c, 0, 64, 117
1, 264796, Control_c, 0, 64, 126
1, 264811, Control_c, 0, 64, 127
1, 264817, Note_on_c, 0, 84, 81
1, 264838, Note_off_c, 0, 88, 59
1, 264872, Note_off_c, 0, 84, 63
1, 264887, Note_on_c, 0, 75, 80
1, 264900, Note_on_c, 0, 63, 57
1, 264907, Note_on_c, 0, 84, 75
1, 264920, Note_off_c, 0, 75, 59
1, 264930, Note_off_c, 0, 63, 66
1, 264955, Note_off_c, 0, 84, 65
1, 264992, Note_on_c, 0, 83, 81
1, 265045, Note_off_c, 0, 83, 0
1, 265050, Note_on_c, 0, 64, 76
1, 265055, Note_on_c, 0, 68, 79
1, 265056, Note_on_c, 0, 74, 55
1, 265062, Control_c, 0, 64, 108
1, 265074, Note_off_c, 0, 74, 63
1, 265076, Control_c, 0, 64, 90
1, 265079, Note_off_c, 0, 68, 70
1, 265082, Poly_aftertouch_c, 0, 83, 127
1, 265091, Control_c, 0, 64, 84
1, 265098, Note_off_c, 0, 64, 64
1, 265106, Control_c, 0, 64, 86
1, 265121, Control_c, 0, 64, 97
1, 265136, Control_c, 0, 64, 127
1, 265148, Note_on_c, 0, 76, 81
1, 265174, Poly_aftertouch_c, 0, 83, 0
1, 265193, Note_off_c, 0, 76, 63
1, 265240, Control_c, 0, 64, 93
1, 265255, Control_c, 0, 64, 41
1, 265266, Note_on_c, 0, 57, 86
1, 265267, Note_on_c, 0, 45, 87
1, 265270, Control_c, 0, 64, 0
1, 265285, Note_off_c, 0, 57, 72
1, 265290, Note_off_c, 0, 45, 68
1, 265300, Control_c, 0, 64, 45
1, 265315, Control_c, 0, 64, 69
1, 265329, Control_c, 0, 64, 83
1, 265344, Control_c, 0, 64, 99
1, 265359, Control_c, 0, 64, 111
1, 265360, Note_on_c, 0, 84, 72
1, 265362, Note_on_c, 0, 81, 76
1, 265381, Control_c, 0, 64, 114
1, 265395, Note_off_c, 0, 81, 62
1, 265396, Control_c, 0, 64, 117
1, 265401, Note_off_c, 0, 84, 62
1, 265411, Control_c, 0, 64, 123
1, 265425, Control_c, 0, 64, 127
1, 265454, Note_on_c, 0, 84, 79
1, 265462, Note_on_c, 0, 80, 77
1, 265469, Note_on_c, 0, 69, 73
1, 265476, Note_on_c, 0, 57, 63
1, 265484, Note_off_c, 0, 69, 69
1, 265489, Note_off_c, 0, 80, 61
1, 265532, Note_on_c, 0, 79, 86
1, 265566, Note_off_c, 0, 84, 65
1, 265571, Note_off_c, 0, 79, 60
1, 265574, Note_off_c, 0, 57, 50
1, 265613, Note_on_c, 0, 60, 70
1, 265618, Note_on_c, 0, 84, 84
1, 265627, Note_on_c, 0, 78, 89
1, 265638, Note_off_c, 0, 60, 65
1, 265651, Note_off_c, 0, 78, 60
1, 265674, Note_off_c, 0, 84, 56
1, 265699, Note_on_c, 0, 77, 88
1, 265742, Note_off_c, 0, 77, 64
1, 265771, Poly_aftertouch_c, 0, 84, 0
1, 265781, Control_c, 0, 64, 95
1, 265789, Note_on_c, 0, 83, 90
1, 265791, Note_on_c, 0, 77, 86
1, 265792, Note_on_c, 0, 56, 91
1, 265796, Note_on_c, 0, 44, 84
1, 265796, Control_c, 0, 64, 69
1, 265811, Control_c, 0, 64, 0
1, 265821, Note_off_c, 0, 77, 64
1, 265823, Note_off_c, 0, 44, 68
1, 265824, Note_off_c, 0, 56, 63
1, 265840, Control_c, 0, 64, 66
1, 265845, Note_off_c, 0, 83, 59
1, 265855, Control_c, 0, 64, 82
1, 265870, Control_c, 0, 64, 101
1, 265877, Note_on_c, 0, 76, 88
1, 265885, Control_c, 0, 64, 119
1, 265888, Note_on_c, 0, 83, 58
1, 265899, Control_c, 0, 64, 121
1, 265914, Control_c, 0, 64, 122
1, 265915, Note_off_c, 0, 76, 69
1, 265915, Note_off_c, 0, 83, 63
1, 265929, Control_c, 0, 64, 123
1, 265944, Control_c, 0, 64, 126
1, 265958, Control_c, 0, 64, 127
1, 265974, Note_on_c, 0, 83, 82
1, 265982, Note_on_c, 0, 75, 65
1, 265984, Note_on_c, 0, 68, 69
1, 265986, Note_on_c, 0, 56, 64
1, 266001, Note_off_c, 0, 68, 65
1, 266003, Note_off_c, 0, 75, 65
1, 266049, Note_on_c, 0, 76, 83
1, 266057, Note_off_c, 0, 83, 0
1, 266063, Note_off_c, 0, 56, 61
1, 266069, Note_on_c, 0, 83, 38
1, 266094, Note_on_c, 0, 59, 53
1, 266096, Note_off_c, 0, 83, 57
1, 266106, Note_off_c, 0, 76, 64
1, 266125, Note_off_c, 0, 59, 57
1, 266155, Note_on_c, 0, 77, 83
1, 266157, Note_on_c, 0, 83, 81
1, 266203, Note_off_c, 0, 77, 58
1, 266222, Note_on_c, 0, 76, 80
1, 266226, Note_off_c, 0, 83, 59
1, 266234, Control_c, 0, 64, 110
1, 266248, Control_c, 0, 64, 75
1, 266263, Control_c, 0, 64, 0
1, 266265, Note_off_c, 0, 76, 65
1, 266270, Note_on_c, 0, 43, 84
1, 266288, Note_on_c, 0, 55, 90
1, 266308, Control_c, 0, 64, 81
1, 266310, Note_off_c, 0, 43, 64
1, 266314, Note_on_c, 0, 87, 89
1, 266322, Control_c, 0, 64, 127
1, 266334, Note_off_c, 0, 55, 65
1, 266360, Note_off_c, 0, 87, 64
1, 266452, Note_on_c, 0, 82, 62
1, 266453, Note_on_c, 0, 79, 67
1, 266470, Note_off_c, 0, 79, 65
1, 266481, Note_off_c, 0, 82, 53
1, 266522, Note_on_c, 0, 78, 92
1, 266546, Poly_aftertouch_c, 0, 80, 0
1, 266551, Note_on_c, 0, 55, 67
1, 266552, Note_on_c, 0, 67, 70
1, 266570, Note_on_c, 0, 82, 46
1, 266590, Note_off_c, 0, 78, 63
1, 266596, Note_off_c, 0, 82, 56
1, 266599, Note_on_c, 0, 77, 73
1, 266599, Note_off_c, 0, 67, 59
1, 266647, Note_off_c, 0, 77, 59
1, 266655, Note_off_c, 0, 55, 61
1, 266658, Note_on_c, 0, 58, 70
1, 266671, Note_on_c, 0, 82, 67
1, 266680, Note_on_c, 0, 76, 54
1, 266685, Note_off_c, 0, 58, 69
1, 266733, Note_on_c, 0, 75, 80
1, 266741, Note_off_c, 0, 82, 64
1, 266742, Note_off_c, 0, 76, 68
1, 266775, Note_off_c, 0, 75, 61
1, 266782, Control_c, 0, 64, 112
1, 266797, Control_c, 0, 64, 80
1, 266812, Poly_aftertouch_c, 0, 75, 0
1, 266812, Control_c, 0, 64, 19
1, 266814, Note_on_c, 0, 81, 85
1, 266817, Note_on_c, 0, 75, 70
1, 266824, Note_on_c, 0, 54, 90
1, 266827, Control_c, 0, 64, 0
1, 266831, Note_on_c, 0, 42, 74
1, 266841, Control_c, 0, 64, 66
1, 266850, Note_off_c, 0, 54, 64
1, 266854, Note_off_c, 0, 42, 64
1, 266856, Control_c, 0, 64, 83
1, 266872, Note_off_c, 0, 75, 63
1, 266879, Control_c, 0, 64, 105
1, 266884, Note_off_c, 0, 81, 56
1, 266894, Control_c, 0, 64, 127
1, 266908, Note_on_c, 0, 74, 85
1, 266955, Note_off_c, 0, 74, 65
1, 266990, Note_on_c, 0, 81, 74
1, 267001, Note_on_c, 0, 73, 73
1, 267008, Note_on_c, 0, 66, 76
1, 267028, Note_off_c, 0, 73, 63
1, 267035, Note_off_c, 0, 66, 69
1, 267070, Note_off_c, 0, 81, 0
1, 267074, Note_on_c, 0, 74, 83
1, 267116, Poly_aftertouch_c, 0, 56, 0
1, 267118, Poly_aftertouch_c, 0, 81, 0
1, 267121, Note_on_c, 0, 57, 62
1, 267132, Note_off_c, 0, 74, 66
1, 267143, Note_off_c, 0, 57, 63
1, 267164, Note_on_c, 0, 81, 61
1, 267180, Note_on_c, 0, 80, 53
1, 267183, Note_on_c, 0, 75, 65
1, 267200, Note_off_c, 0, 75, 63
1, 267203, Note_off_c, 0, 80, 37
1, 267236, Note_on_c, 0, 74, 84
1, 267238, Note_off_c, 0, 81, 61
1, 267279, Control_c, 0, 64, 124
1, 267291, Note_off_c, 0, 74, 65
1, 267294, Control_c, 0, 64, 83
1, 267306, Note_on_c, 0, 41, 81
1, 267309, Control_c, 0, 64, 34
1, 267317, Note_on_c, 0, 53, 96
1, 267324, Control_c, 0, 64, 0
1, 267339, Control_c, 0, 64, 53
1, 267342, Note_on_c, 0, 85, 85
1, 267348, Note_off_c, 0, 41, 66
1, 267354, Control_c, 0, 64, 75
1, 267357, Note_on_c, 0, 82, 73
1, 267366, Note_off_c, 0, 53, 68
1, 267368, Control_c, 0, 64, 95
1, 267377, Note_off_c, 0, 85, 63
1, 267380, Note_off_c, 0, 82, 67
1, 267383, Control_c, 0, 64, 115
1, 267398, Control_c, 0, 64, 127
1, 267413, Control_c, 0, 64, 127
1, 267504, Note_on_c, 0, 77, 63
1, 267512, Note_on_c, 0, 79, 57
1, 267523, Note_off_c, 0, 77, 61
1, 267523, Note_on_c, 0, 76, 39
1, 267532, Note_off_c, 0, 79, 61
1, 267550, Note_off_c, 0, 76, 50
1, 267594, Note_on_c, 0, 80, 53
1, 267601, Note_on_c, 0, 76, 71
1, 267606, Note_on_c, 0, 53, 62
1, 267610, Note_on_c, 0, 65, 68
1, 267625, Note_off_c, 0, 76, 69
1, 267637, Note_off_c, 0, 80, 54
1, 267682, Note_off_c, 0, 65, 59
1, 267687, Note_on_c, 0, 75, 93
1, 267733, Note_off_c, 0, 75, 65
1, 267737, Note_on_c, 0, 61, 41
1, 267738, Note_off_c, 0, 53, 64
1, 267748, Note_on_c, 0, 56, 67
1, 267764, Note_off_c, 0, 61, 48
1, 267772, Note_off_c, 0, 56, 67
1, 267777, Note_on_c, 0, 74, 79
1, 267800, Note_off_c, 0, 74, 67
1, 267812, Note_on_c, 0, 80, 34
1, 267843, Note_off_c, 0, 80, 0
1, 267843, Note_on_c, 0, 80, 45
1, 267860, Note_on_c, 0, 73, 80
1, 267866, Control_c, 0, 64, 100
1, 267881, Control_c, 0, 64, 73
1, 267896, Control_c, 0, 64, 0
1, 267910, Control_c, 0, 64, 45
1, 267925, Control_c, 0, 64, 71
1, 267926, Note_on_c, 0, 52, 90
1, 267929, Note_on_c, 0, 40, 82
1, 267940, Control_c, 0, 64, 91
1, 267948, Note_off_c, 0, 73, 52
1, 267950, Note_off_c, 0, 52, 72
1, 267955, Control_c, 0, 64, 121
1, 267957, Note_off_c, 0, 80, 63
1, 267960, Note_off_c, 0, 40, 64
1, 267970, Control_c, 0, 64, 127
1, 268027, Note_on_c, 0, 79, 80
1, 268116, Note_on_c, 0, 64, 65
1, 268119, Note_on_c, 0, 52, 70
1, 268133, Note_on_c, 0, 62, 50
1, 268141, Note_off_c, 0, 79, 36
1, 268142, Note_off_c, 0, 64, 58
1, 268149, Note_off_c, 0, 52, 65
1, 268158, Note_off_c, 0, 62, 56
1, 268159, Note_on_c, 0, 72, 71
1, 268170, Note_on_c, 0, 67, 71
1, 268205, Note_off_c, 0, 67, 62
1, 268212, Note_off_c, 0, 72, 52
1, 268242, Note_on_c, 0, 79, 68
1, 268263, Note_on_c, 0, 50, 71
1, 268266, Note_off_c, 0, 79, 68
1, 268268, Note_on_c, 0, 81, 14
1, 268299, Note_on_c, 0, 64, 76
1, 268304, Note_off_c, 0, 50, 60
1, 268312, Note_off_c, 0, 81, 30
1, 268316, Note_on_c, 0, 65, 59
1, 268318, Note_off_c, 0, 64, 66
1, 268337, Note_off_c, 0, 65, 65
1, 268379, Note_on_c, 0, 81, 82
1, 268397, Note_on_c, 0, 48, 58
1, 268400, Note_off_c, 0, 81, 69
1, 268412, Note_on_c, 0, 79, 59
1, 268418, Note_on_c, 0, 65, 83
1, 268421, Control_c, 0, 64, 88
1, 268428, Note_off_c, 0, 48, 65
1, 268430, Note_off_c, 0, 79, 58
1, 268432, Note_on_c, 0, 67, 65
1, 268436, Control_c, 0, 64, 57
1, 268450, Control_c, 0, 64, 0
1, 268462, Note_off_c, 0, 65, 65
1, 268480, Control_c, 0, 64, 56
1, 268483, Note_off_c, 0, 67, 37
1, 268489, Note_on_c, 0, 81, 97
1, 268496, Control_c, 0, 64, 73
1, 268511, Control_c, 0, 64, 90
1, 268525, Control_c, 0, 64, 106
1, 268534, Note_off_c, 0, 81, 63
1, 268536, Note_on_c, 0, 38, 74
1, 268540, Note_on_c, 0, 50, 77
1, 268540, Control_c, 0, 64, 110
1, 268561, Note_off_c, 0, 38, 63
1, 268564, Note_off_c, 0, 50, 66
1, 268585, Control_c, 0, 64, 110
1, 268600, Control_c, 0, 64, 112
1, 268614, Control_c, 0, 64, 115
1, 268629, Control_c, 0, 64, 118
1, 268644, Control_c, 0, 64, 122
1, 268648, Note_on_c, 0, 69, 62
1, 268651, Note_on_c, 0, 71, 62
1, 268659, Control_c, 0, 64, 127
1, 268680, Note_off_c, 0, 69, 69
1, 268682, Note_off_c, 0, 71, 63
1, 268698, Note_on_c, 0, 50, 64
1, 268700, Note_on_c, 0, 57, 70
1, 268718, Note_off_c, 0, 57, 64
1, 268726, Note_on_c, 0, 59, 23
1, 268732, Note_off_c, 0, 50, 62
1, 268761, Note_off_c, 0, 59, 44
1, 268803, Note_on_c, 0, 77, 90
1, 268813, Note_on_c, 0, 65, 78
1, 268865, Note_on_c, 0, 50, 81
1, 268869, Note_on_c, 0, 38, 82
1, 268871, Note_off_c, 0, 65, 47
1, 268877, Note_off_c, 0, 77, 58
1, 268888, Note_off_c, 0, 50, 69
1, 268903, Note_off_c, 0, 38, 62
1, 268951, Note_on_c, 0, 77, 92
1, 268957, Note_on_c, 0, 65, 84
1, 269033, Note_on_c, 0, 71, 69
1, 269039, Note_off_c, 0, 65, 61
1, 269044, Note_off_c, 0, 77, 55
1, 269050, Note_on_c, 0, 69, 66
1, 269059, Note_on_c, 0, 48, 54
1, 269064, Note_on_c, 0, 57, 34
1, 269084, Note_off_c, 0, 48, 58
1, 269085, Note_off_c, 0, 69, 62
1, 269094, Note_off_c, 0, 57, 53
1, 269112, Note_on_c, 0, 77, 90
1, 269134, Note_on_c, 0, 65, 77
1, 269134, Note_off_c, 0, 71, 62
1, 269172, Note_off_c, 0, 77, 59
1, 269199, Control_c, 0, 64, 114
1, 269201, Note_off_c, 0, 65, 53
1, 269214, Control_c, 0, 64, 82
1, 269221, Note_on_c, 0, 52, 84
1, 269226, Note_on_c, 0, 71, 64
1, 269227, Note_on_c, 0, 40, 81
1, 269229, Note_on_c, 0, 68, 74
1, 269229, Control_c, 0, 64, 21
1, 269242, Note_off_c, 0, 52, 73
1, 269243, Control_c, 0, 64, 0
1, 269258, Note_off_c, 0, 40, 64
1, 269258, Control_c, 0, 64, 59
1, 269273, Note_on_c, 0, 76, 74
1, 269273, Control_c, 0, 64, 78
1, 269285, Note_off_c, 0, 71, 61
1, 269288, Control_c, 0, 64, 90
1, 269304, Note_on_c, 0, 64, 76
1, 269304, Control_c, 0, 64, 90
1, 269309, Note_off_c, 0, 68, 63
1, 269319, Control_c, 0, 64, 80
1, 269334, Control_c, 0, 64, 61
1, 269338, Note_off_c, 0, 76, 65
1, 269348, Note_off_c, 0, 64, 56
1, 269348, Control_c, 0, 64, 0
1, 269391, Note_on_c, 0, 45, 92
1, 269392, Note_on_c, 0, 33, 94
1, 269413, Note_off_c, 0, 45, 71
1, 269416, Note_off_c, 0, 33, 67
1, 269422, Control_c, 0, 64, 68
1, 269437, Control_c, 0, 64, 80
1, 269452, Control_c, 0, 64, 90
1, 269467, Control_c, 0, 64, 93
1, 269479, Note_on_c, 0, 72, 75
1, 269482, Control_c, 0, 64, 92
1, 269488, Note_on_c, 0, 69, 71
1, 269514, Note_off_c, 0, 69, 69
1, 269520, Note_off_c, 0, 72, 63
1, 269540, Control_c, 0, 64, 93
1, 269583, Note_on_c, 0, 72, 81
1, 269585, Control_c, 0, 64, 93
1, 269586, Note_on_c, 0, 57, 71
1, 269587, Note_on_c, 0, 68, 80
1, 269595, Note_on_c, 0, 45, 51
1, 269608, Note_off_c, 0, 68, 71
1, 269615, Note_off_c, 0, 45, 63
1, 269616, Note_off_c, 0, 57, 63
1, 269633, Note_off_c, 0, 72, 63
1, 269660, Note_on_c, 0, 67, 87
1, 269666, Note_on_c, 0, 72, 58
1, 269694, Note_off_c, 0, 67, 61
1, 269697, Note_off_c, 0, 72, 65
1, 269738, Note_on_c, 0, 48, 75
1, 269750, Note_on_c, 0, 72, 92
1, 269753, Note_on_c, 0, 66, 86
1, 269760, Note_off_c, 0, 48, 68
1, 269794, Note_off_c, 0, 66, 61
1, 269807, Control_c, 0, 64, 92
1, 269822, Control_c, 0, 64, 81
1, 269822, Note_on_c, 0, 65, 82
1, 269837, Control_c, 0, 64, 0
1, 269838, Note_off_c, 0, 72, 62
1, 269860, Note_off_c, 0, 65, 67
1, 269912, Note_on_c, 0, 44, 88
1, 269914, Note_on_c, 0, 71, 86
1, 269917, Note_on_c, 0, 32, 74
1, 269920, Note_on_c, 0, 65, 81
1, 269941, Note_off_c, 0, 44, 66
1, 269945, Note_off_c, 0, 65, 68
1, 269947, Note_off_c, 0, 32, 64
1, 269947, Control_c, 0, 64, 71
1, 269962, Control_c, 0, 64, 84
1, 269970, Note_off_c, 0, 71, 60
1, 269977, Control_c, 0, 64, 96
1, 269992, Control_c, 0, 64, 100
1, 270005, Note_on_c, 0, 64, 83
1, 270021, Note_on_c, 0, 71, 51
1, 270046, Note_off_c, 0, 64, 64
1, 270054, Note_off_c, 0, 71, 63
1, 270093, Note_on_c, 0, 56, 62
1, 270101, Note_on_c, 0, 44, 57
1, 270105, Note_on_c, 0, 71, 69
1, 270116, Note_off_c, 0, 56, 63
1, 270129, Note_on_c, 0, 63, 42
1, 270156, Note_off_c, 0, 63, 53
1, 270162, Note_off_c, 0, 44, 59
1, 270165, Note_off_c, 0, 71, 55
1, 270185, Note_on_c, 0, 64, 77
1, 270207, Note_on_c, 0, 47, 52
1, 270238, Note_off_c, 0, 47, 55
1, 270244, Note_off_c, 0, 64, 63
1, 270245, Control_c, 0, 64, 100
1, 270260, Control_c, 0, 64, 101
1, 270272, Note_on_c, 0, 65, 69
1, 270275, Control_c, 0, 64, 103
1, 270277, Note_on_c, 0, 71, 66
1, 270290, Control_c, 0, 64, 106
1, 270305, Control_c, 0, 64, 109
1, 270310, Note_off_c, 0, 65, 60
1, 270334, Control_c, 0, 64, 95
1, 270344, Note_on_c, 0, 64, 72
1, 270346, Note_off_c, 0, 71, 60
1, 270349, Control_c, 0, 64, 71
1, 270364, Control_c, 0, 64, 0
1, 270373, Note_off_c, 0, 64, 65
1, 270374, Note_on_c, 0, 31, 78
1, 270392, Note_on_c, 0, 43, 88
1, 270408, Note_off_c, 0, 31, 66
1, 270423, Control_c, 0, 64, 66
1, 270438, Control_c, 0, 64, 85
1, 270441, Note_off_c, 0, 43, 61
1, 270453, Control_c, 0, 64, 109
1, 270455, Note_on_c, 0, 75, 32
1, 270456, Note_off_c, 0, 75, 127
1, 270468, Control_c, 0, 64, 127
1, 270488, Poly_aftertouch_c, 0, 75, 0
1, 270497, Control_c, 0, 64, 98
1, 270512, Control_c, 0, 64, 68
1, 270527, Control_c, 0, 64, 0
1, 270543, Note_on_c, 0, 68, 80
1, 270594, Note_off_c, 0, 68, 62
1, 270638, Note_on_c, 0, 55, 64
1, 270639, Note_on_c, 0, 43, 61
1, 270659, Note_on_c, 0, 65, 87
1, 270680, Note_off_c, 0, 55, 54
1, 270695, Note_off_c, 0, 65, 67
1, 270712, Control_c, 0, 64, 60
1, 270727, Control_c, 0, 64, 50
1, 270741, Note_off_c, 0, 43, 57
1, 270742, Control_c, 0, 64, 0
1, 270750, Note_on_c, 0, 64, 76
1, 270767, Note_on_c, 0, 70, 62
1, 270773, Note_on_c, 0, 46, 65
1, 270801, Control_c, 0, 64, 50
1, 270811, Note_off_c, 0, 46, 64
1, 270816, Control_c, 0, 64, 67
1, 270823, Note_on_c, 0, 63, 76
1, 270830, Control_c, 0, 64, 74
1, 270835, Note_off_c, 0, 70, 56
1, 270838, Note_off_c, 0, 64, 38
1, 270845, Control_c, 0, 64, 76
1, 270860, Control_c, 0, 64, 72
1, 270868, Note_off_c, 0, 63, 67
1, 270875, Control_c, 0, 64, 40
1, 270891, Control_c, 0, 64, 0
1, 270922, Note_on_c, 0, 69, 74
1, 270925, Note_on_c, 0, 63, 76
1, 270931, Note_on_c, 0, 30, 73
1, 270931, Note_on_c, 0, 42, 74
1, 270950, Control_c, 0, 64, 66
1, 270957, Note_off_c, 0, 30, 61
1, 270960, Note_off_c, 0, 42, 66
1, 270964, Control_c, 0, 64, 77
1, 270979, Control_c, 0, 64, 90
1, 270984, Note_off_c, 0, 69, 58
1, 270993, Control_c, 0, 64, 100
1, 271008, Note_on_c, 0, 62, 76
1, 271008, Control_c, 0, 64, 101
1, 271009, Note_off_c, 0, 63, 61
1, 271023, Control_c, 0, 64, 101
1, 271050, Note_off_c, 0, 62, 59
1, 271103, Note_on_c, 0, 69, 76
1, 271109, Note_on_c, 0, 54, 75
1, 271114, Note_on_c, 0, 42, 57
1, 271115, Note_on_c, 0, 61, 69
1, 271132, Note_off_c, 0, 61, 64
1, 271142, Control_c, 0, 64, 102
1, 271145, Note_off_c, 0, 54, 64
1, 271157, Note_off_c, 0, 69, 63
1, 271193, Note_on_c, 0, 62, 70
1, 271221, Note_off_c, 0, 42, 57
1, 271231, Note_on_c, 0, 45, 51
1, 271259, Note_off_c, 0, 45, 56
1, 271260, Control_c, 0, 64, 102
1, 271272, Note_off_c, 0, 62, 57
1, 271275, Control_c, 0, 64, 103
1, 271276, Note_on_c, 0, 69, 73
1, 271285, Note_on_c, 0, 63, 65
1, 271290, Control_c, 0, 64, 104
1, 271305, Control_c, 0, 64, 107
1, 271318, Note_off_c, 0, 63, 65
1, 271319, Control_c, 0, 64, 112
1, 271334, Control_c, 0, 64, 117
1, 271349, Control_c, 0, 64, 118
1, 271354, Note_on_c, 0, 62, 81
1, 271368, Note_off_c, 0, 69, 65
1, 271371, Control_c, 0, 64, 115
1, 271386, Control_c, 0, 64, 97
1, 271401, Control_c, 0, 64, 76
1, 271414, Note_off_c, 0, 62, 61
1, 271416, Control_c, 0, 64, 0
1, 271424, Note_on_c, 0, 29, 83
1, 271442, Note_on_c, 0, 41, 92
1, 271460, Control_c, 0, 64, 32
1, 271468, Note_off_c, 0, 29, 63
1, 271475, Control_c, 0, 64, 67
1, 271490, Control_c, 0, 64, 77
1, 271501, Note_on_c, 0, 72, 51
1, 271503, Note_off_c, 0, 41, 65
1, 271505, Control_c, 0, 64, 88
1, 271513, Note_on_c, 0, 69, 50
1, 271519, Control_c, 0, 64, 95
1, 271521, Note_off_c, 0, 72, 60
1, 271534, Control_c, 0, 64, 95
1, 271536, Note_off_c, 0, 69, 60
1, 271549, Control_c, 0, 64, 96
1, 271578, Control_c, 0, 64, 97
1, 271593, Control_c, 0, 64, 98
1, 271608, Control_c, 0, 64, 99
1, 271623, Control_c, 0, 64, 101
1, 271638, Control_c, 0, 64, 103
1, 271645, Note_on_c, 0, 69, 21
1, 271652, Control_c, 0, 64, 105
1, 271664, Note_on_c, 0, 65, 20
1, 271667, Control_c, 0, 64, 107
1, 271682, Note_off_c, 0, 69, 44
1, 271682, Control_c, 0, 64, 108
1, 271698, Control_c, 0, 64, 109
1, 271710, Note_off_c, 0, 65, 39
1, 271713, Control_c, 0, 64, 111
1, 271720, Note_on_c, 0, 64, 87
1, 271721, Note_on_c, 0, 53, 65
1, 271728, Control_c, 0, 64, 113
1, 271729, Note_on_c, 0, 68, 62
1, 271735, Note_on_c, 0, 41, 62
1, 271741, Control_c, 0, 64, 116
1, 271756, Note_off_c, 0, 64, 63
1, 271756, Control_c, 0, 64, 123
1, 271769, Note_off_c, 0, 53, 49
1, 271769, Note_off_c, 0, 68, 62
1, 271771, Control_c, 0, 64, 127
1, 271802, Note_on_c, 0, 68, 61
1, 271825, Note_on_c, 0, 62, 75
1, 271833, Note_off_c, 0, 68, 67
1, 271840, Note_on_c, 0, 63, 21
1, 271841, Note_off_c, 0, 63, 127
1, 271851, Note_off_c, 0, 41, 65
1, 271854, Note_off_c, 0, 62, 66
1, 271859, Note_on_c, 0, 44, 64
1, 271883, Note_off_c, 0, 44, 67
1, 271896, Poly_aftertouch_c, 0, 49, 127
1, 271925, Poly_aftertouch_c, 0, 49, 0
1, 271926, Note_on_c, 0, 61, 69
1, 271947, Note_on_c, 0, 68, 35
1, 271949, Control_c, 0, 64, 112
1, 271964, Control_c, 0, 64, 84
1, 271979, Control_c, 0, 64, 49
1, 271993, Control_c, 0, 64, 0
1, 271998, Poly_aftertouch_c, 0, 62, 0
1, 272023, Control_c, 0, 64, 16
1, 272038, Control_c, 0, 64, 66
1, 272053, Control_c, 0, 64, 81
1, 272062, Note_on_c, 0, 40, 83
1, 272065, Note_on_c, 0, 28, 82
1, 272067, Control_c, 0, 64, 97
1, 272082, Control_c, 0, 64, 108
1, 272090, Note_off_c, 0, 40, 66
1, 272091, Note_off_c, 0, 61, 59
1, 272096, Note_off_c, 0, 28, 62
1, 272097, Control_c, 0, 64, 111
1, 272128, Note_off_c, 0, 68, 60
1, 272135, Control_c, 0, 64, 111
1, 272149, Control_c, 0, 64, 112
1, 272164, Control_c, 0, 64, 113
1, 272179, Control_c, 0, 64, 114
1, 272193, Control_c, 0, 64, 116
1, 272197, Note_on_c, 0, 67, 75
1, 272208, Control_c, 0, 64, 118
1, 272223, Control_c, 0, 64, 120
1, 272238, Control_c, 0, 64, 121
1, 272252, Note_off_c, 0, 67, 60
1, 272253, Control_c, 0, 64, 121
1, 272281, Note_on_c, 0, 52, 67
1, 272282, Note_on_c, 0, 40, 64
1, 272282, Control_c, 0, 64, 122
1, 272297, Control_c, 0, 64, 122
1, 272301, Note_off_c, 0, 52, 65
1, 272302, Note_off_c, 0, 40, 65
1, 272312, Control_c, 0, 64, 123
1, 272327, Control_c, 0, 64, 124
1, 272341, Control_c, 0, 64, 126
1, 272346, Note_on_c, 0, 67, 72
1, 272356, Control_c, 0, 64, 127
1, 272385, Note_on_c, 0, 60, 14
1, 272387, Note_off_c, 0, 67, 57
1, 272403, Note_on_c, 0, 55, 76
1, 272427, Note_off_c, 0, 60, 39
1, 272449, Note_on_c, 0, 38, 67
1, 272459, Note_off_c, 0, 55, 62
1, 272479, Note_on_c, 0, 68, 86
1, 272491, Note_on_c, 0, 61, 40
1, 272500, Note_off_c, 0, 68, 72
1, 272503, Note_off_c, 0, 38, 62
1, 272541, Note_on_c, 0, 53, 63
1, 272549, Note_on_c, 0, 52, 67
1, 272568, Note_off_c, 0, 52, 64
1, 272576, Note_on_c, 0, 60, 3
1, 272579, Note_off_c, 0, 53, 67
1, 272579, Control_c, 0, 64, 105
1, 272594, Control_c, 0, 64, 82
1, 272596, Note_on_c, 0, 36, 57
1, 272596, Note_off_c, 0, 61, 0
1, 272609, Note_off_c, 0, 60, 34
1, 272609, Control_c, 0, 64, 52
1, 272615, Note_on_c, 0, 69, 89
1, 272624, Note_off_c, 0, 36, 56
1, 272624, Control_c, 0, 64, 0
1, 272633, Poly_aftertouch_c, 0, 61, 127
1, 272654, Control_c, 0, 64, 62
1, 272663, Poly_aftertouch_c, 0, 61, 0
1, 272665, Note_off_c, 0, 69, 65
1, 272668, Control_c, 0, 64, 70
1, 272683, Control_c, 0, 64, 78
1, 272698, Control_c, 0, 64, 86
1, 272713, Note_on_c, 0, 38, 86
1, 272713, Control_c, 0, 64, 90
1, 272716, Note_on_c, 0, 26, 77
1, 272728, Control_c, 0, 64, 91
1, 272741, Note_off_c, 0, 38, 65
1, 272743, Control_c, 0, 64, 92
1, 272746, Note_off_c, 0, 26, 64
1, 272757, Control_c, 0, 64, 93
1, 272772, Control_c, 0, 64, 95
1, 272776, Note_on_c, 0, 59, 64
1, 272784, Note_on_c, 0, 57, 50
1, 272787, Control_c, 0, 64, 97
1, 272802, Control_c, 0, 64, 99
1, 272807, Note_off_c, 0, 59, 63
1, 272808, Note_off_c, 0, 57, 61
1, 272816, Control_c, 0, 64, 100
1, 272831, Control_c, 0, 64, 101
1, 272846, Control_c, 0, 64, 101
1, 272874, Note_on_c, 0, 38, 68
1, 272881, Note_on_c, 0, 45, 63
1, 272883, Control_c, 0, 64, 102
1, 272889, Note_on_c, 0, 47, 54
1, 272898, Control_c, 0, 64, 102
1, 272904, Note_off_c, 0, 45, 62
1, 272913, Control_c, 0, 64, 103
1, 272917, Note_off_c, 0, 47, 57
1, 272925, Note_off_c, 0, 38, 62
1, 272928, Control_c, 0, 64, 103
1, 272942, Control_c, 0, 64, 104
1, 272957, Control_c, 0, 64, 106
1, 272965, Note_on_c, 0, 65, 86
1, 272970, Note_on_c, 0, 53, 78
1, 272972, Control_c, 0, 64, 107
1, 272987, Control_c, 0, 64, 108
1, 273002, Control_c, 0, 64, 109
1, 273016, Control_c, 0, 64, 110
1, 273031, Control_c, 0, 64, 111
1, 273041, Note_off_c, 0, 53, 56
1, 273041, Note_off_c, 0, 65, 61
1, 273046, Control_c, 0, 64, 112
1, 273058, Note_on_c, 0, 26, 80
1, 273061, Control_c, 0, 64, 112
1, 273062, Note_on_c, 0, 38, 73
1, 273076, Control_c, 0, 64, 113
1, 273084, Note_off_c, 0, 26, 66
1, 273085, Note_off_c, 0, 38, 61
1, 273090, Control_c, 0, 64, 113
1, 273105, Control_c, 0, 64, 114
1, 273120, Control_c, 0, 64, 115
1, 273134, Control_c, 0, 64, 115
1, 273136, Note_on_c, 0, 65, 84
1, 273148, Note_on_c, 0, 53, 73
1, 273149, Control_c, 0, 64, 116
1, 273164, Control_c, 0, 64, 116
1, 273179, Control_c, 0, 64, 117
1, 273208, Control_c, 0, 64, 117
1, 273218, Note_off_c, 0, 65, 58
1, 273221, Note_off_c, 0, 53, 51
1, 273252, Note_on_c, 0, 59, 63
1, 273254, Control_c, 0, 64, 118
1, 273255, Note_on_c, 0, 57, 63
1, 273259, Note_on_c, 0, 38, 67
1, 273269, Control_c, 0, 64, 118
1, 273288, Note_off_c, 0, 38, 62
1, 273307, Note_off_c, 0, 57, 59
1, 273314, Control_c, 0, 64, 119
1, 273321, Note_on_c, 0, 65, 73
1, 273329, Control_c, 0, 64, 119
1, 273344, Control_c, 0, 64, 121
1, 273350, Note_off_c, 0, 59, 55
1, 273351, Note_on_c, 0, 53, 61
1, 273358, Control_c, 0, 64, 123
1, 273373, Control_c, 0, 64, 125
1, 273388, Control_c, 0, 64, 125
1, 273403, Control_c, 0, 64, 121
1, 273411, Note_off_c, 0, 65, 57
1, 273418, Control_c, 0, 64, 103
1, 273431, Note_off_c, 0, 53, 37
1, 273433, Control_c, 0, 64, 84
1, 273447, Control_c, 0, 64, 59
1, 273452, Note_on_c, 0, 40, 77
1, 273455, Note_on_c, 0, 28, 76
1, 273458, Note_on_c, 0, 59, 53
1, 273462, Control_c, 0, 64, 0
1, 273464, Note_on_c, 0, 56, 69
1, 273492, Control_c, 0, 64, 64
1, 273503, Note_off_c, 0, 28, 61
1, 273507, Control_c, 0, 64, 76
1, 273511, Note_off_c, 0, 40, 59
1, 273521, Control_c, 0, 64, 91
1, 273536, Control_c, 0, 64, 107
1, 273551, Control_c, 0, 64, 114
1, 273553, Note_off_c, 0, 56, 64
1, 273555, Note_off_c, 0, 59, 59
1, 273556, Note_on_c, 0, 64, 73
1, 273566, Control_c, 0, 64, 115
1, 273581, Control_c, 0, 64, 117
1, 273581, Note_on_c, 0, 52, 63
1, 273618, Control_c, 0, 64, 116
1, 273633, Control_c, 0, 64, 110
1, 273644, Note_off_c, 0, 64, 61
1, 273647, Control_c, 0, 64, 91
1, 273650, Note_off_c, 0, 52, 62
1, 273662, Control_c, 0, 64, 68
1, 273677, Control_c, 0, 64, 0
1, 273688, Note_on_c, 0, 29, 72
1, 273694, Note_on_c, 0, 41, 78
1, 273702, Note_on_c, 0, 59, 53
1, 273718, Note_on_c, 0, 57, 61
1, 273721, Control_c, 0, 64, 62
1, 273722, Note_off_c, 0, 29, 63
1, 273736, Note_off_c, 0, 41, 66
1, 273736, Control_c, 0, 64, 74
1, 273751, Control_c, 0, 64, 87
1, 273765, Control_c, 0, 64, 99
1, 273780, Control_c, 0, 64, 102
1, 273781, Note_off_c, 0, 57, 61
1, 273795, Note_off_c, 0, 59, 61
1, 273795, Control_c, 0, 64, 104
1, 273810, Control_c, 0, 64, 105
1, 273822, Note_on_c, 0, 63, 61
1, 273825, Control_c, 0, 64, 106
1, 273831, Note_on_c, 0, 51, 40
1, 273840, Control_c, 0, 64, 107
1, 273855, Control_c, 0, 64, 108
1, 273860, Note_off_c, 0, 63, 63
1, 273861, Note_off_c, 0, 51, 51
1, 273870, Control_c, 0, 64, 109
1, 273885, Control_c, 0, 64, 109
1, 273900, Control_c, 0, 64, 110
1, 273914, Control_c, 0, 64, 111
1, 274003, Control_c, 0, 64, 111
1, 274019, Note_on_c, 0, 41, 20
1, 274052, Note_off_c, 0, 41, 59
1, 274055, Poly_aftertouch_c, 0, 53, 127
1, 274062, Control_c, 0, 64, 112
1, 274075, Poly_aftertouch_c, 0, 53, 0
1, 274077, Control_c, 0, 64, 113
1, 274093, Control_c, 0, 64, 114
1, 274108, Control_c, 0, 64, 117
1, 274115, Note_on_c, 0, 75, 51
1, 274123, Note_on_c, 0, 63, 51
1, 274123, Control_c, 0, 64, 121
1, 274137, Control_c, 0, 64, 125
1, 274141, Note_off_c, 0, 75, 57
1, 274146, Note_off_c, 0, 63, 59
1, 274152, Control_c, 0, 64, 127
1, 274181, Control_c, 0, 64, 116
1, 274187, Note_on_c, 0, 54, 75
1, 274188, Note_on_c, 0, 42, 70
1, 274193, Note_on_c, 0, 72, 73
1, 274196, Control_c, 0, 64, 97
1, 274211, Note_on_c, 0, 68, 70
1, 274211, Control_c, 0, 64, 79
1, 274226, Control_c, 0, 64, 63
1, 274241, Control_c, 0, 64, 57
1, 274255, Control_c, 0, 64, 71
1, 274270, Control_c, 0, 64, 84
1, 274280, Note_on_c, 0, 75, 77
1, 274283, Note_on_c, 0, 63, 74
1, 274284, Note_off_c, 0, 68, 61
1, 274285, Control_c, 0, 64, 106
1, 274293, Note_off_c, 0, 72, 62
1, 274300, Control_c, 0, 64, 127
1, 274304, Note_off_c, 0, 42, 59
1, 274311, Note_off_c, 0, 54, 61
1, 274344, Note_on_c, 0, 55, 66
1, 274344, Control_c, 0, 64, 112
1, 274364, Note_on_c, 0, 43, 82
1, 274367, Control_c, 0, 64, 89
1, 274369, Note_on_c, 0, 71, 76
1, 274376, Note_on_c, 0, 67, 75
1, 274377, Note_off_c, 0, 55, 67
1, 274380, Note_off_c, 0, 75, 63
1, 274380, Note_off_c, 0, 63, 56
1, 274382, Control_c, 0, 64, 68
1, 274396, Control_c, 0, 64, 0
1, 274421, Note_off_c, 0, 43, 62
1, 274426, Control_c, 0, 64, 60
1, 274441, Control_c, 0, 64, 73
1, 274445, Note_on_c, 0, 75, 71
1, 274456, Control_c, 0, 64, 83
1, 274466, Note_on_c, 0, 63, 64
1, 274466, Note_off_c, 0, 71, 59
1, 274470, Control_c, 0, 64, 90
1, 274480, Note_off_c, 0, 67, 57
1, 274485, Control_c, 0, 64, 91
1, 274515, Control_c, 0, 64, 92
1, 274527, Note_on_c, 0, 31, 67
1, 274527, Note_on_c, 0, 43, 65
1, 274530, Control_c, 0, 64, 93
1, 274540, Note_on_c, 0, 71, 63
1, 274544, Control_c, 0, 64, 96
1, 274548, Note_off_c, 0, 63, 59
1, 274549, Note_off_c, 0, 75, 60
1, 274551, Note_off_c, 0, 43, 59
1, 274552, Note_off_c, 0, 31, 61
1, 274557, Note_on_c, 0, 67, 55
1, 274559, Control_c, 0, 64, 100
1, 274574, Control_c, 0, 64, 105
1, 274588, Control_c, 0, 64, 109
1, 274598, Note_on_c, 0, 75, 62
1, 274603, Control_c, 0, 64, 112
1, 274616, Note_on_c, 0, 63, 63
1, 274618, Control_c, 0, 64, 113
1, 274621, Note_off_c, 0, 67, 61
1, 274627, Note_off_c, 0, 71, 59
1, 274633, Control_c, 0, 64, 114
1, 274648, Control_c, 0, 64, 116
1, 274663, Control_c, 0, 64, 117
1, 274672, Note_off_c, 0, 63, 64
1, 274672, Note_off_c, 0, 75, 65
1, 274678, Control_c, 0, 64, 118
1, 274678, Note_on_c, 0, 43, 69
1, 274693, Note_on_c, 0, 55, 46
1, 274693, Control_c, 0, 64, 120
1, 274693, Note_on_c, 0, 71, 56
1, 274707, Control_c, 0, 64, 124
1, 274710, Note_off_c, 0, 43, 61
1, 274715, Note_on_c, 0, 67, 56
1, 274717, Note_off_c, 0, 55, 59
1, 274722, Control_c, 0, 64, 127
1, 274742, Note_on_c, 0, 74, 68
1, 274751, Note_off_c, 0, 67, 60
1, 274752, Note_off_c, 0, 71, 61
1, 274764, Note_off_c, 0, 74, 69
1, 274779, Note_on_c, 0, 62, 71
1, 274798, Note_off_c, 0, 62, 65
1, 274870, Control_c, 0, 64, 93
1, 274886, Control_c, 0, 64, 70
1, 274893, Note_on_c, 0, 31, 81
1, 274895, Note_on_c, 0, 43, 75
1, 274901, Control_c, 0, 64, 0
1, 274906, Note_on_c, 0, 61, 73
1, 274914, Note_on_c, 0, 59, 66
1, 274918, Note_off_c, 0, 31, 65
1, 274924, Note_off_c, 0, 43, 66
1, 274931, Control_c, 0, 64, 64
1, 274945, Note_off_c, 0, 59, 63
1, 274946, Control_c, 0, 64, 77
1, 274960, Control_c, 0, 64, 92
1, 274967, Note_off_c, 0, 61, 62
1, 274975, Control_c, 0, 64, 105
1, 274988, Note_on_c, 0, 53, 55
1, 274990, Control_c, 0, 64, 109
1, 274995, Note_on_c, 0, 65, 61
1, 275004, Control_c, 0, 64, 110
1, 275011, Note_off_c, 0, 53, 60
1, 275019, Control_c, 0, 64, 110
1, 275020, Note_off_c, 0, 65, 67
1, 275049, Control_c, 0, 64, 111
1, 275064, Control_c, 0, 64, 111
1, 275078, Control_c, 0, 64, 112
1, 275093, Control_c, 0, 64, 112
1, 275116, Control_c, 0, 64, 113
1, 275121, Note_on_c, 0, 55, 59
1, 275131, Control_c, 0, 64, 114
1, 275132, Note_on_c, 0, 73, 72
1, 275143, Note_off_c, 0, 55, 58
1, 275145, Note_on_c, 0, 43, 19
1, 275145, Control_c, 0, 64, 114
1, 275158, Note_on_c, 0, 71, 38
1, 275160, Control_c, 0, 64, 116
1, 275175, Control_c, 0, 64, 117
1, 275181, Note_off_c, 0, 43, 50
1, 275187, Note_off_c, 0, 71, 46
1, 275190, Control_c, 0, 64, 120
1, 275193, Note_off_c, 0, 73, 63
1, 275205, Control_c, 0, 64, 127
1, 275209, Note_on_c, 0, 65, 78
1, 275209, Note_on_c, 0, 77, 79
1, 275280, Note_on_c, 0, 56, 94
1, 275286, Note_on_c, 0, 44, 83
1, 275289, Note_on_c, 0, 74, 81
1, 275295, Note_on_c, 0, 70, 81
1, 275298, Note_off_c, 0, 77, 61
1, 275301, Note_off_c, 0, 65, 59
1, 275359, Note_off_c, 0, 44, 62
1, 275359, Note_off_c, 0, 56, 61
1, 275366, Note_on_c, 0, 77, 78
1, 275379, Note_on_c, 0, 65, 77
1, 275387, Note_off_c, 0, 74, 62
1, 275391, Note_off_c, 0, 70, 55
1, 275412, Control_c, 0, 64, 120
1, 275427, Control_c, 0, 64, 89
1, 275432, Note_on_c, 0, 57, 91
1, 275437, Note_on_c, 0, 45, 91
1, 275442, Control_c, 0, 64, 51
1, 275447, Note_on_c, 0, 73, 81
1, 275451, Note_on_c, 0, 69, 83
1, 275457, Control_c, 0, 64, 0
1, 275465, Note_off_c, 0, 65, 60
1, 275465, Note_off_c, 0, 57, 63
1, 275478, Note_off_c, 0, 77, 59
1, 275492, Note_off_c, 0, 45, 66
1, 275500, Control_c, 0, 64, 65
1, 275515, Control_c, 0, 64, 78
1, 275528, Note_on_c, 0, 77, 67
1, 275530, Control_c, 0, 64, 92
1, 275541, Note_on_c, 0, 65, 73
1, 275545, Control_c, 0, 64, 100
1, 275546, Note_off_c, 0, 73, 62
1, 275558, Note_off_c, 0, 69, 63
1, 275560, Control_c, 0, 64, 102
1, 275575, Control_c, 0, 64, 103
1, 275590, Control_c, 0, 64, 106
1, 275597, Note_off_c, 0, 65, 61
1, 275604, Control_c, 0, 64, 108
1, 275605, Note_on_c, 0, 45, 78
1, 275607, Note_on_c, 0, 33, 80
1, 275614, Note_on_c, 0, 73, 76
1, 275619, Control_c, 0, 64, 112
1, 275623, Note_on_c, 0, 69, 69
1, 275629, Note_off_c, 0, 45, 71
1, 275634, Control_c, 0, 64, 116
1, 275640, Note_off_c, 0, 33, 65
1, 275640, Note_off_c, 0, 77, 57
1, 275649, Control_c, 0, 64, 118
1, 275664, Control_c, 0, 64, 121
1, 275679, Control_c, 0, 64, 126
1, 275688, Note_on_c, 0, 77, 69
1, 275694, Control_c, 0, 64, 127
1, 275700, Note_off_c, 0, 73, 63
1, 275701, Note_on_c, 0, 65, 81
1, 275721, Note_off_c, 0, 69, 63
1, 275769, Note_off_c, 0, 77, 59
1, 275771, Note_on_c, 0, 73, 78
1, 275773, Note_off_c, 0, 65, 63
1, 275782, Note_on_c, 0, 57, 76
1, 275783, Note_on_c, 0, 45, 83
1, 275784, Note_on_c, 0, 69, 55
1, 275804, Note_off_c, 0, 57, 69
1, 275818, Note_off_c, 0, 45, 61
1, 275853, Note_off_c, 0, 73, 60
1, 275854, Note_on_c, 0, 76, 67
1, 275866, Note_on_c, 0, 64, 83
1, 275870, Note_off_c, 0, 69, 42
1, 275879, Note_off_c, 0, 76, 69
1, 275903, Note_off_c, 0, 64, 63
1, 276013, Control_c, 0, 64, 113
1, 276025, Note_on_c, 0, 45, 94
1, 276028, Control_c, 0, 64, 78
1, 276029, Note_on_c, 0, 33, 90
1, 276034, Poly_aftertouch_c, 0, 37, 0
1, 276042, Control_c, 0, 64, 0
1, 276056, Note_on_c, 0, 61, 70
1, 276067, Note_off_c, 0, 33, 63
1, 276070, Note_on_c, 0, 62, 64
1, 276082, Note_off_c, 0, 45, 66
1, 276087, Control_c, 0, 64, 84
1, 276102, Control_c, 0, 64, 127
1, 276108, Note_off_c, 0, 62, 60
1, 276120, Note_off_c, 0, 61, 61
1, 276135, Poly_aftertouch_c, 0, 34, 0
1, 276142, Poly_aftertouch_c, 0, 63, 0
1, 276154, Note_on_c, 0, 67, 75
1, 276159, Note_on_c, 0, 55, 55
1, 276184, Note_off_c, 0, 67, 63
1, 276185, Note_off_c, 0, 55, 57
1, 276297, Note_on_c, 0, 57, 83
1, 276303, Note_on_c, 0, 45, 72
1, 276311, Note_on_c, 0, 73, 70
1, 276320, Note_off_c, 0, 57, 70
1, 276334, Note_off_c, 0, 45, 65
1, 276350, Note_on_c, 0, 74, 33
1, 276374, Note_off_c, 0, 73, 50
1, 276380, Note_off_c, 0, 74, 47
1, 276387, Note_on_c, 0, 79, 76
1, 276398, Note_on_c, 0, 67, 67
1, 276475, Note_on_c, 0, 76, 78
1, 276481, Note_off_c, 0, 67, 58
1, 276481, Note_off_c, 0, 79, 59
1, 276493, Note_on_c, 0, 72, 68
1, 276501, Note_on_c, 0, 46, 89
1, 276501, Note_on_c, 0, 58, 83
1, 276518, Control_c, 0, 64, 94
1, 276532, Control_c, 0, 64, 69
1, 276547, Control_c, 0, 64, 28
1, 276562, Note_off_c, 0, 76, 66
1, 276562, Control_c, 0, 64, 66
1, 276565, Note_off_c, 0, 72, 59
1, 276569, Note_on_c, 0, 79, 76
1, 276571, Note_on_c, 0, 67, 80
1, 276576, Control_c, 0, 64, 83
1, 276582, Note_off_c, 0, 58, 59
1, 276591, Control_c, 0, 64, 114
1, 276592, Note_off_c, 0, 46, 60
1, 276614, Control_c, 0, 64, 127
1, 276638, Note_off_c, 0, 67, 54
1, 276657, Note_off_c, 0, 79, 59
1, 276658, Control_c, 0, 64, 117
1, 276660, Note_on_c, 0, 76, 78
1, 276673, Note_on_c, 0, 59, 87
1, 276673, Control_c, 0, 64, 90
1, 276675, Note_on_c, 0, 47, 84
1, 276679, Note_on_c, 0, 72, 56
1, 276688, Control_c, 0, 64, 73
1, 276700, Note_off_c, 0, 72, 57
1, 276703, Control_c, 0, 64, 68
1, 276712, Note_off_c, 0, 76, 64
1, 276718, Control_c, 0, 64, 78
1, 276719, Note_off_c, 0, 59, 65
1, 276721, Note_off_c, 0, 47, 63
1, 276732, Control_c, 0, 64, 97
1, 276747, Control_c, 0, 64, 127
1, 276791, Control_c, 0, 64, 103
1, 276803, Note_on_c, 0, 78, 68
1, 276806, Control_c, 0, 64, 75
1, 276809, Note_on_c, 0, 60, 87
1, 276815, Note_on_c, 0, 48, 87
1, 276821, Control_c, 0, 64, 0
1, 276842, Note_off_c, 0, 48, 69
1, 276848, Note_off_c, 0, 60, 59
1, 276851, Control_c, 0, 64, 70
1, 276866, Control_c, 0, 64, 91
1, 276880, Control_c, 0, 64, 127
1, 276888, Note_on_c, 0, 82, 79
1, 276895, Note_on_c, 0, 70, 60
1, 276895, Note_off_c, 0, 78, 62
1, 276925, Control_c, 0, 64, 118
1, 276940, Control_c, 0, 64, 85
1, 276955, Control_c, 0, 64, 41
1, 276959, Note_off_c, 0, 70, 35
1, 276961, Note_on_c, 0, 61, 91
1, 276965, Note_on_c, 0, 49, 79
1, 276970, Note_on_c, 0, 75, 63
1, 276970, Control_c, 0, 64, 0
1, 276977, Note_on_c, 0, 78, 56
1, 276982, Note_off_c, 0, 82, 60
1, 276984, Control_c, 0, 64, 48
1, 276989, Note_on_c, 0, 79, 55
1, 276999, Control_c, 0, 64, 77
1, 277014, Control_c, 0, 64, 103
1, 277020, Note_off_c, 0, 61, 61
1, 277027, Note_on_c, 0, 82, 71
1, 277029, Control_c, 0, 64, 127
1, 277031, Note_on_c, 0, 70, 81
1, 277032, Note_off_c, 0, 49, 60
1, 277033, Note_off_c, 0, 78, 61
1, 277038, Note_off_c, 0, 75, 61
1, 277049, Note_off_c, 0, 79, 57
1, 277058, Control_c, 0, 64, 122
1, 277073, Control_c, 0, 64, 87
1, 277080, Note_off_c, 0, 70, 62
1, 277088, Control_c, 0, 64, 59
1, 277098, Note_on_c, 0, 62, 88
1, 277103, Control_c, 0, 64, 0
1, 277104, Note_on_c, 0, 50, 78
1, 277107, Note_on_c, 0, 78, 83
1, 277114, Note_off_c, 0, 82, 65
1, 277117, Control_c, 0, 64, 56
1, 277128, Note_on_c, 0, 74, 65
1, 277132, Control_c, 0, 64, 80
1, 277135, Note_off_c, 0, 50, 65
1, 277143, Note_off_c, 0, 62, 63
1, 277147, Control_c, 0, 64, 107
1, 277155, Note_off_c, 0, 74, 67
1, 277162, Control_c, 0, 64, 127
1, 277183, Note_off_c, 0, 78, 63
1, 277185, Note_on_c, 0, 83, 74
1, 277187, Note_on_c, 0, 71, 75
1, 277206, Control_c, 0, 64, 91
1, 277217, Note_off_c, 0, 83, 55
1, 277221, Control_c, 0, 64, 65
1, 277225, Note_off_c, 0, 71, 62
1, 277236, Control_c, 0, 64, 0
1, 277256, Note_on_c, 0, 63, 94
1, 277260, Note_on_c, 0, 51, 79
1, 277261, Note_on_c, 0, 60, 61
1, 277265, Control_c, 0, 64, 60
1, 277269, Note_on_c, 0, 81, 86
1, 277281, Note_on_c, 0, 77, 80
1, 277281, Control_c, 0, 64, 87
1, 277296, Control_c, 0, 64, 127
1, 277328, Note_on_c, 0, 80, 18
1, 277341, Note_off_c, 0, 63, 65
1, 277345, Note_off_c, 0, 77, 60
1, 277346, Note_on_c, 0, 84, 83
1, 277350, Note_off_c, 0, 51, 61
1, 277367, Note_on_c, 0, 72, 81
1, 277375, Note_off_c, 0, 81, 56
1, 277378, Control_c, 0, 64, 94
1, 277380, Note_off_c, 0, 80, 40
1, 277393, Control_c, 0, 64, 60
1, 277406, Note_off_c, 0, 72, 65
1, 277407, Control_c, 0, 64, 0
1, 277413, Note_off_c, 0, 60, 0
1, 277427, Note_on_c, 0, 60, 42
1, 277429, Note_on_c, 0, 64, 94
1, 277429, Note_on_c, 0, 52, 83
1, 277444, Note_on_c, 0, 81, 74
1, 277447, Note_off_c, 0, 84, 62
1, 277452, Control_c, 0, 64, 80
1, 277453, Note_on_c, 0, 57, 30
1, 277456, Note_on_c, 0, 76, 72
1, 277467, Control_c, 0, 64, 127
1, 277471, Note_on_c, 0, 77, 64
1, 277475, Note_on_c, 0, 80, 56
1, 277490, Note_off_c, 0, 77, 39
1, 277494, Note_off_c, 0, 80, 65
1, 277495, Note_off_c, 0, 64, 56
1, 277503, Note_off_c, 0, 52, 63
1, 277522, Note_on_c, 0, 84, 78
1, 277526, Note_off_c, 0, 81, 58
1, 277528, Note_on_c, 0, 72, 82
1, 277531, Note_off_c, 0, 76, 62
1, 277534, Note_off_c, 0, 57, 33
1, 277540, Control_c, 0, 64, 117
1, 277555, Control_c, 0, 64, 80
1, 277569, Note_off_c, 0, 60, 35
1, 277570, Control_c, 0, 64, 0
1, 277575, Note_off_c, 0, 72, 65
1, 277588, Note_off_c, 0, 84, 59
1, 277599, Note_on_c, 0, 65, 97
1, 277602, Note_on_c, 0, 53, 80
1, 277603, Note_on_c, 0, 60, 62
1, 277609, Note_on_c, 0, 57, 59
1, 277614, Control_c, 0, 64, 43
1, 277620, Note_on_c, 0, 75, 83
1, 277620, Note_on_c, 0, 81, 83
1, 277629, Control_c, 0, 64, 83
1, 277638, Note_off_c, 0, 53, 64
1, 277644, Control_c, 0, 64, 127
1, 277650, Note_off_c, 0, 65, 64
1, 277653, Note_on_c, 0, 80, 13
1, 277676, Note_on_c, 0, 72, 61
1, 277683, Note_on_c, 0, 84, 84
1, 277683, Note_off_c, 0, 75, 64
1, 277687, Note_off_c, 0, 80, 29
1, 277701, Note_off_c, 0, 57, 62
1, 277709, Note_off_c, 0, 81, 60
1, 277727, Note_off_c, 0, 72, 65
1, 277749, Note_off_c, 0, 84, 65
1, 277763, Note_off_c, 0, 60, 50
1, 277763, Control_c, 0, 64, 90
1, 277778, Control_c, 0, 64, 52
1, 277780, Note_on_c, 0, 66, 104
1, 277790, Note_on_c, 0, 54, 85
1, 277790, Note_on_c, 0, 60, 52
1, 277793, Control_c, 0, 64, 0
1, 277795, Note_on_c, 0, 83, 76
1, 277800, Note_on_c, 0, 84, 79
1, 277805, Note_on_c, 0, 57, 62
1, 277807, Control_c, 0, 64, 16
1, 277822, Control_c, 0, 64, 74
1, 277837, Control_c, 0, 64, 110
1, 277852, Control_c, 0, 64, 127
1, 277861, Note_off_c, 0, 83, 61
1, 277870, Note_off_c, 0, 84, 59
1, 277889, Note_off_c, 0, 54, 56
1, 277896, Note_on_c, 0, 82, 19
1, 277909, Note_off_c, 0, 66, 62
1, 277915, Note_on_c, 0, 87, 65
1, 277924, Note_off_c, 0, 57, 36
1, 277942, Note_off_c, 0, 60, 50
1, 277952, Note_on_c, 0, 88, 37
1, 277955, Control_c, 0, 64, 96
1, 277956, Note_off_c, 0, 87, 47
1, 277960, Note_on_c, 0, 65, 102
1, 277967, Note_on_c, 0, 57, 69
1, 277969, Note_on_c, 0, 53, 92
1, 277970, Control_c, 0, 64, 65
1, 277980, Note_off_c, 0, 88, 37
1, 277985, Control_c, 0, 64, 0
1, 277995, Note_off_c, 0, 65, 68
1, 277998, Note_on_c, 0, 84, 79
1, 278006, Note_on_c, 0, 81, 76
1, 278029, Control_c, 0, 64, 57
1, 278031, Poly_aftertouch_c, 0, 60, 0
1, 278031, Note_off_c, 0, 53, 66
1, 278031, Note_off_c, 0, 57, 64
1, 278034, Note_on_c, 0, 56, 16
1, 278044, Control_c, 0, 64, 80
1, 278049, Note_off_c, 0, 82, 22
1, 278059, Control_c, 0, 64, 109
1, 278074, Control_c, 0, 64, 127
1, 278076, Note_on_c, 0, 87, 89
1, 278078, Note_off_c, 0, 56, 27
1, 278081, Note_on_c, 0, 75, 83
1, 278088, Note_off_c, 0, 84, 65
1, 278097, Note_off_c, 0, 81, 61
1, 278114, Note_off_c, 0, 75, 68
1, 278150, Note_off_c, 0, 87, 67
1, 278275, Control_c, 0, 64, 100
1, 278290, Control_c, 0, 64, 65
1, 278302, Note_on_c, 0, 40, 109
1, 278304, Control_c, 0, 64, 0
1, 278307, Note_on_c, 0, 28, 101
1, 278320, Note_on_c, 0, 89, 95
1, 278320, Note_on_c, 0, 96, 102
1, 278334, Control_c, 0, 64, 66
1, 278335, Note_on_c, 0, 93, 83
1, 278349, Control_c, 0, 64, 106
1, 278350, Note_off_c, 0, 28, 61
1, 278363, Note_off_c, 0, 40, 64
1, 278363, Control_c, 0, 64, 127
1, 278419, Note_on_c, 0, 88, 88
1, 278423, Note_off_c, 0, 93, 61
1, 278427, Note_off_c, 0, 96, 54
1, 278430, Note_off_c, 0, 89, 65
1, 278466, Note_off_c, 0, 88, 64
1, 278518, Note_on_c, 0, 86, 86
1, 278519, Note_on_c, 0, 45, 76
1, 278521, Note_on_c, 0, 93, 88
1, 278532, Note_on_c, 0, 89, 74
1, 278532, Note_on_c, 0, 33, 57
1, 278553, Note_on_c, 0, 31, 28
1, 278565, Note_off_c, 0, 33, 63
1, 278565, Note_off_c, 0, 89, 61
1, 278565, Note_off_c, 0, 45, 53
1, 278570, Note_off_c, 0, 86, 65
1, 278589, Note_off_c, 0, 93, 61
1, 278600, Note_on_c, 0, 84, 91
1, 278600, Note_off_c, 0, 31, 43
1, 278637, Note_off_c, 0, 84, 66
1, 278674, Note_on_c, 0, 47, 91
1, 278680, Note_on_c, 0, 83, 87
1, 278680, Note_on_c, 0, 89, 88
1, 278681, Note_on_c, 0, 35, 74
1, 278686, Note_on_c, 0, 86, 70
1, 278714, Note_off_c, 0, 35, 63
1, 278716, Note_off_c, 0, 47, 62
1, 278748, Note_off_c, 0, 86, 63
1, 278750, Note_off_c, 0, 89, 64
1, 278762, Note_on_c, 0, 81, 92
1, 278771, Note_off_c, 0, 83, 59
1, 278799, Note_off_c, 0, 81, 65
1, 278839, Note_on_c, 0, 38, 87
1, 278839, Note_on_c, 0, 50, 88
1, 278844, Note_on_c, 0, 86, 88
1, 278853, Note_on_c, 0, 79, 88
1, 278855, Note_on_c, 0, 83, 75
1, 278879, Note_off_c, 0, 38, 66
1, 278885, Note_off_c, 0, 50, 61
1, 278911, Note_off_c, 0, 79, 61
1, 278921, Note_off_c, 0, 83, 58
1, 278937, Note_off_c, 0, 86, 62
1, 278939, Note_on_c, 0, 77, 92
1, 278984, Note_off_c, 0, 77, 58
1, 278996, Note_on_c, 0, 53, 98
1, 279003, Note_on_c, 0, 41, 88
1, 279031, Note_on_c, 0, 76, 74
1, 279035, Note_on_c, 0, 79, 64
1, 279035, Note_off_c, 0, 41, 68
1, 279040, Note_off_c, 0, 53, 65
1, 279047, Note_on_c, 0, 83, 51
1, 279068, Note_off_c, 0, 79, 61
1, 279071, Note_off_c, 0, 83, 55
1, 279085, Note_off_c, 0, 76, 57
1, 279107, Note_on_c, 0, 74, 82
1, 279150, Note_on_c, 0, 41, 65
1, 279159, Note_on_c, 0, 40, 65
1, 279170, Note_off_c, 0, 74, 61
1, 279175, Note_on_c, 0, 72, 76
1, 279180, Note_off_c, 0, 40, 63
1, 279182, Note_off_c, 0, 41, 64
1, 279185, Note_on_c, 0, 76, 74
1, 279200, Note_off_c, 0, 72, 61
1, 279238, Note_on_c, 0, 71, 92
1, 279249, Note_off_c, 0, 76, 64
1, 279274, Note_on_c, 0, 72, 12
1, 279275, Control_c, 0, 64, 117
1, 279277, Note_off_c, 0, 71, 64
1, 279290, Control_c, 0, 64, 78
1, 279304, Control_c, 0, 64, 0
1, 279312, Note_off_c, 0, 72, 47
1, 279378, Control_c, 0, 64, 24
1, 279385, Note_on_c, 0, 40, 99
1, 279389, Note_on_c, 0, 28, 96
1, 279393, Control_c, 0, 64, 92
1, 279402, Note_on_c, 0, 89, 101
1, 279403, Note_on_c, 0, 96, 93
1, 279408, Control_c, 0, 64, 127
1, 279411, Note_on_c, 0, 95, 81
1, 279416, Note_off_c, 0, 28, 68
1, 279421, Note_on_c, 0, 93, 64
1, 279426, Note_off_c, 0, 95, 62
1, 279427, Note_on_c, 0, 30, 23
1, 279433, Note_off_c, 0, 40, 61
1, 279454, Note_off_c, 0, 93, 48
1, 279462, Note_off_c, 0, 89, 66
1, 279465, Note_off_c, 0, 96, 64
1, 279472, Note_off_c, 0, 30, 49
1, 279500, Note_on_c, 0, 88, 83
1, 279569, Note_off_c, 0, 88, 40
1, 279586, Note_on_c, 0, 86, 72
1, 279593, Note_on_c, 0, 89, 67
1, 279595, Note_on_c, 0, 45, 60
1, 279596, Note_on_c, 0, 33, 79
1, 279608, Note_on_c, 0, 93, 62
1, 279620, Note_on_c, 0, 43, 46
1, 279630, Note_off_c, 0, 45, 55
1, 279636, Note_off_c, 0, 89, 62
1, 279647, Note_off_c, 0, 33, 64
1, 279650, Note_off_c, 0, 93, 60
1, 279656, Note_off_c, 0, 43, 49
1, 279656, Note_off_c, 0, 86, 60
1, 279682, Note_on_c, 0, 84, 79
1, 279733, Note_off_c, 0, 84, 43
1, 279747, Note_on_c, 0, 35, 83
1, 279747, Note_on_c, 0, 47, 92
1, 279751, Note_on_c, 0, 83, 76
1, 279759, Note_on_c, 0, 89, 75
1, 279760, Note_on_c, 0, 86, 73
1, 279781, Note_off_c, 0, 35, 66
1, 279792, Note_off_c, 0, 47, 63
1, 279811, Note_off_c, 0, 86, 63
1, 279818, Note_off_c, 0, 89, 63
1, 279836, Note_on_c, 0, 81, 88
1, 279838, Note_off_c, 0, 83, 56
1, 279876, Note_off_c, 0, 81, 61
1, 279909, Note_on_c, 0, 38, 90
1, 279911, Note_on_c, 0, 50, 91
1, 279919, Note_on_c, 0, 79, 82
1, 279921, Note_on_c, 0, 86, 83
1, 279924, Note_on_c, 0, 83, 77
1, 279942, Note_off_c, 0, 50, 64
1, 279944, Note_off_c, 0, 38, 64
1, 279973, Note_off_c, 0, 79, 61
1, 279974, Note_off_c, 0, 83, 37
1, 279994, Note_off_c, 0, 86, 62
1, 280007, Note_on_c, 0, 77, 87
1, 280050, Note_off_c, 0, 77, 57
1, 280072, Note_on_c, 0, 53, 93
1, 280074, Note_on_c, 0, 41, 98
1, 280090, Note_on_c, 0, 83, 73
1, 280094, Note_on_c, 0, 76, 73
1, 280098, Note_on_c, 0, 80, 73
1, 280108, Note_off_c, 0, 41, 66
1, 280111, Note_off_c, 0, 53, 63
1, 280133, Note_off_c, 0, 76, 63
1, 280155, Note_off_c, 0, 80, 63
1, 280161, Note_off_c, 0, 83, 58
1, 280174, Note_on_c, 0, 74, 84
1, 280216, Note_off_c, 0, 74, 64
1, 280228, Note_on_c, 0, 52, 94
1, 280237, Note_on_c, 0, 40, 80
1, 280259, Note_on_c, 0, 72, 74
1, 280266, Note_off_c, 0, 40, 65
1, 280279, Note_off_c, 0, 52, 62
1, 280294, Note_on_c, 0, 76, 20
1, 280300, Note_off_c, 0, 72, 54
1, 280320, Control_c, 0, 64, 88
1, 280332, Note_off_c, 0, 76, 30
1, 280335, Control_c, 0, 64, 0
1, 280354, Note_on_c, 0, 71, 72
1, 280372, Note_on_c, 0, 39, 86
1, 280385, Note_off_c, 0, 71, 62
1, 280408, Note_on_c, 0, 51, 91
1, 280416, Control_c, 0, 64, 64
1, 280424, Note_on_c, 0, 38, 23
1, 280431, Control_c, 0, 64, 113
1, 280433, Note_off_c, 0, 39, 64
1, 280446, Control_c, 0, 64, 127
1, 280449, Note_off_c, 0, 51, 65
1, 280456, Note_on_c, 0, 71, 88
1, 280470, Note_off_c, 0, 38, 53
1, 280487, Note_on_c, 0, 80, 35
1, 280517, Note_off_c, 0, 80, 50
1, 280520, Note_off_c, 0, 71, 59
1, 280550, Note_on_c, 0, 83, 79
1, 280604, Note_off_c, 0, 83, 64
1, 280634, Note_on_c, 0, 57, 70
1, 280636, Note_on_c, 0, 66, 93
1, 280660, Note_on_c, 0, 83, 96
1, 280672, Note_on_c, 0, 59, 41
1, 280672, Note_off_c, 0, 66, 67
1, 280693, Note_off_c, 0, 57, 61
1, 280699, Note_off_c, 0, 59, 53
1, 280712, Note_off_c, 0, 83, 59
1, 280738, Note_on_c, 0, 95, 68
1, 280739, Note_on_c, 0, 93, 69
1, 280752, Note_on_c, 0, 91, 55
1, 280762, Note_off_c, 0, 95, 67
1, 280765, Note_off_c, 0, 93, 66
1, 280771, Note_off_c, 0, 91, 54
1, 280794, Note_on_c, 0, 83, 65
1, 280809, Note_off_c, 0, 83, 65
1, 280877, Control_c, 0, 64, 92
1, 280879, Note_on_c, 0, 83, 56
1, 280892, Control_c, 0, 64, 70
1, 280904, Note_on_c, 0, 80, 30
1, 280905, Note_on_c, 0, 39, 87
1, 280906, Control_c, 0, 64, 58
1, 280914, Note_off_c, 0, 83, 48
1, 280920, Note_on_c, 0, 78, 41
1, 280921, Control_c, 0, 64, 68
1, 280926, Note_on_c, 0, 51, 86
1, 280936, Control_c, 0, 64, 83
1, 280938, Note_off_c, 0, 80, 54
1, 280944, Note_off_c, 0, 39, 62
1, 280945, Note_off_c, 0, 78, 47
1, 280950, Control_c, 0, 64, 120
1, 280961, Note_off_c, 0, 51, 62
1, 280965, Control_c, 0, 64, 127
1, 280970, Note_on_c, 0, 72, 89
1, 281023, Note_off_c, 0, 72, 64
1, 281051, Note_on_c, 0, 78, 44
1, 281051, Note_on_c, 0, 84, 78
1, 281075, Note_off_c, 0, 78, 54
1, 281109, Note_off_c, 0, 84, 66
1, 281134, Note_on_c, 0, 56, 61
1, 281140, Note_on_c, 0, 66, 98
1, 281153, Note_on_c, 0, 84, 91
1, 281170, Note_off_c, 0, 56, 67
1, 281178, Note_off_c, 0, 66, 64
1, 281210, Note_off_c, 0, 84, 66
1, 281216, Note_on_c, 0, 90, 81
1, 281262, Note_off_c, 0, 90, 58
1, 281280, Note_on_c, 0, 84, 65
1, 281295, Note_off_c, 0, 84, 68
1, 281368, Note_on_c, 0, 84, 50
1, 281370, Note_on_c, 0, 78, 63
1, 281373, Control_c, 0, 64, 98
1, 281388, Control_c, 0, 64, 71
1, 281389, Note_off_c, 0, 78, 59
1, 281395, Note_off_c, 0, 84, 52
1, 281403, Control_c, 0, 64, 0
1, 281409, Note_on_c, 0, 40, 73
1, 281418, Control_c, 0, 64, 40
1, 281420, Note_on_c, 0, 38, 65
1, 281429, Note_on_c, 0, 52, 87
1, 281433, Control_c, 0, 64, 73
1, 281446, Note_off_c, 0, 40, 66
1, 281447, Note_off_c, 0, 38, 57
1, 281447, Control_c, 0, 64, 95
1, 281457, Note_on_c, 0, 72, 92
1, 281462, Control_c, 0, 64, 127
1, 281467, Note_off_c, 0, 52, 67
1, 281508, Note_off_c, 0, 72, 63
1, 281531, Note_on_c, 0, 76, 32
1, 281537, Note_on_c, 0, 84, 86
1, 281563, Note_off_c, 0, 76, 39
1, 281587, Note_off_c, 0, 84, 65
1, 281634, Note_on_c, 0, 60, 74
1, 281637, Note_on_c, 0, 69, 83
1, 281639, Note_on_c, 0, 84, 95
1, 281647, Note_on_c, 0, 64, 56
1, 281656, Note_off_c, 0, 69, 74
1, 281666, Note_off_c, 0, 64, 62
1, 281674, Note_off_c, 0, 60, 65
1, 281689, Note_off_c, 0, 84, 66
1, 281692, Note_on_c, 0, 95, 74
1, 281721, Note_off_c, 0, 95, 66
1, 281768, Note_on_c, 0, 84, 46
1, 281769, Note_off_c, 0, 84, 127
1, 281855, Control_c, 0, 64, 105
1, 281865, Note_on_c, 0, 40, 88
1, 281866, Note_on_c, 0, 80, 42
1, 281870, Control_c, 0, 64, 79
1, 281885, Control_c, 0, 64, 43
1, 281900, Control_c, 0, 64, 21
1, 281903, Note_off_c, 0, 80, 56
1, 281907, Note_on_c, 0, 52, 92
1, 281911, Note_off_c, 0, 40, 65
1, 281914, Control_c, 0, 64, 67
1, 281929, Control_c, 0, 64, 80
1, 281931, Note_off_c, 0, 52, 71
1, 281934, Note_on_c, 0, 71, 90
1, 281944, Control_c, 0, 64, 100
1, 281959, Control_c, 0, 64, 127
1, 281995, Note_off_c, 0, 71, 60
1, 282023, Note_on_c, 0, 83, 85
1, 282026, Note_on_c, 0, 80, 68
1, 282071, Note_off_c, 0, 80, 61
1, 282080, Note_off_c, 0, 83, 60
1, 282109, Note_on_c, 0, 64, 75
1, 282112, Note_on_c, 0, 68, 98
1, 282135, Note_on_c, 0, 81, 93
1, 282147, Note_off_c, 0, 68, 63
1, 282148, Note_on_c, 0, 83, 65
1, 282154, Note_off_c, 0, 64, 66
1, 282182, Note_off_c, 0, 81, 62
1, 282182, Note_off_c, 0, 83, 44
1, 282209, Note_on_c, 0, 95, 77
1, 282225, Note_on_c, 0, 93, 69
1, 282241, Note_off_c, 0, 93, 61
1, 282241, Note_off_c, 0, 95, 64
1, 282270, Note_on_c, 0, 83, 72
1, 282292, Note_off_c, 0, 83, 68
1, 282350, Note_on_c, 0, 76, 62
1, 282351, Note_off_c, 0, 76, 127
1, 282365, Note_on_c, 0, 79, 45
1, 282389, Note_off_c, 0, 79, 54
1, 282390, Poly_aftertouch_c, 0, 37, 127
1, 282431, Poly_aftertouch_c, 0, 37, 0
1, 282478, Control_c, 0, 64, 82
1, 282486, Note_on_c, 0, 33, 89
1, 282490, Note_on_c, 0, 45, 92
1, 282493, Control_c, 0, 64, 0
1, 282537, Control_c, 0, 64, 63
1, 282541, Note_on_c, 0, 100, 110
1, 282545, Note_on_c, 0, 93, 91
1, 282552, Control_c, 0, 64, 82
1, 282555, Note_on_c, 0, 96, 78
1, 282567, Control_c, 0, 64, 127
1, 282578, Note_off_c, 0, 33, 62
1, 282619, Note_off_c, 0, 45, 62
1, 282622, Note_off_c, 0, 93, 62
1, 282639, Note_off_c, 0, 96, 62
1, 282650, Note_off_c, 0, 100, 60
1, 282657, Note_on_c, 0, 91, 86
1, 282697, Note_off_c, 0, 91, 62
1, 282733, Note_on_c, 0, 36, 72
1, 282733, Note_on_c, 0, 48, 82
1, 282750, Note_on_c, 0, 89, 85
1, 282751, Note_on_c, 0, 96, 81
1, 282762, Note_on_c, 0, 93, 64
1, 282778, Note_off_c, 0, 36, 60
1, 282792, Note_off_c, 0, 93, 64
1, 282800, Note_off_c, 0, 48, 61
1, 282804, Note_off_c, 0, 89, 64
1, 282807, Note_off_c, 0, 96, 64
1, 282828, Note_on_c, 0, 88, 84
1, 282851, Note_off_c, 0, 88, 65
1, 282898, Note_on_c, 0, 50, 87
1, 282901, Note_on_c, 0, 38, 78
1, 282912, Note_on_c, 0, 86, 79
1, 282913, Note_on_c, 0, 93, 73
1, 282924, Note_on_c, 0, 89, 56
1, 282929, Note_off_c, 0, 38, 62
1, 282937, Note_on_c, 0, 91, 44
1, 282941, Note_off_c, 0, 50, 59
1, 282959, Note_off_c, 0, 91, 37
1, 282968, Note_off_c, 0, 93, 61
1, 282976, Note_off_c, 0, 89, 47
1, 282979, Note_off_c, 0, 86, 54
1, 282994, Note_on_c, 0, 84, 81
1, 283023, Note_off_c, 0, 84, 65
1, 283056, Note_on_c, 0, 41, 89
1, 283057, Note_on_c, 0, 53, 91
1, 283066, Note_on_c, 0, 89, 91
1, 283073, Note_on_c, 0, 83, 82
1, 283076, Note_on_c, 0, 86, 80
1, 283083, Note_off_c, 0, 41, 68
1, 283084, Note_off_c, 0, 53, 66
1, 283143, Note_off_c, 0, 83, 58
1, 283143, Note_off_c, 0, 89, 62
1, 283144, Note_off_c, 0, 86, 61
1, 283164, Note_on_c, 0, 81, 86
1, 283195, Note_off_c, 0, 81, 60
1, 283220, Note_on_c, 0, 65, 102
1, 283224, Note_on_c, 0, 53, 97
1, 283240, Note_on_c, 0, 79, 85
1, 283242, Note_on_c, 0, 86, 83
1, 283245, Note_on_c, 0, 83, 77
1, 283256, Note_off_c, 0, 65, 68
1, 283260, Note_off_c, 0, 53, 63
1, 283264, Note_on_c, 0, 56, 29
1, 283301, Note_off_c, 0, 56, 41
1, 283304, Note_off_c, 0, 79, 63
1, 283308, Note_off_c, 0, 83, 60
1, 283316, Note_off_c, 0, 86, 62
1, 283340, Note_on_c, 0, 77, 80
1, 283378, Note_on_c, 0, 52, 86
1, 283406, Note_off_c, 0, 77, 59
1, 283409, Note_off_c, 0, 52, 66
1, 283412, Note_on_c, 0, 80, 74
1, 283480, Note_on_c, 0, 74, 78
1, 283500, Note_off_c, 0, 74, 73
1, 283509, Poly_aftertouch_c, 0, 76, 0
1, 283520, Note_off_c, 0, 80, 68
1, 283561, Control_c, 0, 64, 106
1, 283576, Control_c, 0, 64, 71
1, 283591, Control_c, 0, 64, 0
1, 283617, Note_on_c, 0, 45, 106
1, 283617, Note_on_c, 0, 33, 89
1, 283635, Control_c, 0, 64, 32
1, 283647, Note_on_c, 0, 98, 109
1, 283650, Control_c, 0, 64, 104
1, 283652, Note_on_c, 0, 91, 96
1, 283655, Note_off_c, 0, 33, 67
1, 283660, Note_on_c, 0, 93, 88
1, 283665, Control_c, 0, 64, 127
1, 283673, Note_on_c, 0, 95, 59
1, 283673, Note_off_c, 0, 45, 65
1, 283692, Note_off_c, 0, 95, 61
1, 283708, Note_off_c, 0, 93, 53
1, 283714, Note_off_c, 0, 91, 49
1, 283721, Poly_aftertouch_c, 0, 34, 0
1, 283742, Note_off_c, 0, 98, 58
1, 283763, Note_on_c, 0, 89, 82
1, 283805, Note_off_c, 0, 89, 65
1, 283840, Note_on_c, 0, 48, 82
1, 283841, Note_on_c, 0, 36, 74
1, 283862, Note_on_c, 0, 95, 76
1, 283868, Note_on_c, 0, 88, 71
1, 283869, Note_off_c, 0, 36, 64
1, 283871, Note_on_c, 0, 91, 66
1, 283895, Note_off_c, 0, 48, 62
1, 283913, Note_off_c, 0, 91, 53
1, 283933, Note_off_c, 0, 95, 64
1, 283984, Note_off_c, 0, 88, 63
1, 283986, Note_on_c, 0, 38, 75
1, 283987, Note_on_c, 0, 50, 84
1, 284017, Note_off_c, 0, 38, 64
1, 284017, Note_off_c, 0, 50, 62
1, 284028, Note_on_c, 0, 93, 69
1, 284036, Note_on_c, 0, 86, 61
1, 284046, Note_on_c, 0, 89, 42
1, 284073, Note_off_c, 0, 89, 55
1, 284097, Note_off_c, 0, 93, 61
1, 284112, Note_off_c, 0, 86, 48
1, 284124, Note_on_c, 0, 84, 71
1, 284148, Note_off_c, 0, 84, 70
1, 284157, Note_on_c, 0, 53, 97
1, 284160, Note_on_c, 0, 41, 92
1, 284184, Note_off_c, 0, 41, 71
1, 284190, Note_off_c, 0, 53, 65
1, 284193, Note_on_c, 0, 89, 60
1, 284201, Note_on_c, 0, 83, 61
1, 284209, Note_on_c, 0, 86, 49
1, 284222, Note_on_c, 0, 88, 43
1, 284234, Note_on_c, 0, 84, 48
1, 284255, Note_off_c, 0, 88, 33
1, 284260, Note_off_c, 0, 84, 35
1, 284261, Note_off_c, 0, 83, 50
1, 284266, Note_off_c, 0, 89, 64
1, 284288, Note_on_c, 0, 81, 83
1, 284294, Note_off_c, 0, 86, 36
1, 284315, Note_off_c, 0, 81, 60
1, 284333, Note_on_c, 0, 65, 97
1, 284338, Note_on_c, 0, 53, 87
1, 284370, Note_on_c, 0, 55, 40
1, 284371, Note_off_c, 0, 55, 127
1, 284372, Note_off_c, 0, 65, 67
1, 284375, Note_off_c, 0, 53, 61
1, 284382, Note_on_c, 0, 86, 56
1, 284384, Note_on_c, 0, 84, 60
1, 284387, Note_on_c, 0, 83, 42
1, 284394, Note_on_c, 0, 79, 55
1, 284396, Note_on_c, 0, 81, 57
1, 284418, Note_off_c, 0, 79, 62
1, 284418, Note_off_c, 0, 81, 58
1, 284437, Note_off_c, 0, 83, 41
1, 284443, Note_off_c, 0, 86, 64
1, 284449, Note_off_c, 0, 84, 64
1, 284476, Note_on_c, 0, 77, 36
1, 284494, Note_on_c, 0, 64, 74
1, 284498, Note_on_c, 0, 52, 86
1, 284498, Note_on_c, 0, 76, 33
1, 284518, Note_off_c, 0, 64, 68
1, 284529, Note_on_c, 0, 83, 69
1, 284534, Note_on_c, 0, 80, 74
1, 284541, Note_off_c, 0, 52, 65
1, 284548, Note_off_c, 0, 77, 37
1, 284580, Note_off_c, 0, 76, 47
1, 284597, Note_off_c, 0, 83, 58
1, 284604, Note_off_c, 0, 80, 58
1, 284613, Note_on_c, 0, 74, 86
1, 284650, Control_c, 0, 64, 92
1, 284665, Control_c, 0, 64, 54
1, 284666, Note_off_c, 0, 74, 65
1, 284679, Control_c, 0, 64, 0
1, 284696, Note_on_c, 0, 39, 82
1, 284717, Note_on_c, 0, 51, 87
1, 284723, Control_c, 0, 64, 85
1, 284732, Note_on_c, 0, 49, 54
1, 284738, Note_off_c, 0, 39, 64
1, 284738, Control_c, 0, 64, 127
1, 284747, Note_on_c, 0, 71, 94
1, 284751, Note_off_c, 0, 51, 63
1, 284761, Note_off_c, 0, 49, 54
1, 284804, Note_off_c, 0, 71, 59
1, 284833, Note_on_c, 0, 83, 77
1, 284869, Note_on_c, 0, 81, 36
1, 284890, Note_on_c, 0, 51, 62
1, 284898, Note_off_c, 0, 83, 64
1, 284901, Note_off_c, 0, 81, 43
1, 284933, Note_on_c, 0, 57, 67
1, 284948, Note_off_c, 0, 51, 65
1, 284951, Note_on_c, 0, 59, 64
1, 284956, Note_on_c, 0, 83, 89
1, 284962, Note_on_c, 0, 66, 90
1, 284988, Note_off_c, 0, 59, 63
1, 284992, Note_off_c, 0, 66, 67
1, 285006, Note_off_c, 0, 83, 61
1, 285007, Note_off_c, 0, 57, 62
1, 285025, Note_on_c, 0, 93, 71
1, 285026, Note_on_c, 0, 95, 66
1, 285051, Note_off_c, 0, 93, 66
1, 285051, Note_off_c, 0, 95, 66
1, 285090, Note_on_c, 0, 83, 52
1, 285100, Note_on_c, 0, 81, 49
1, 285114, Note_off_c, 0, 83, 38
1, 285123, Note_off_c, 0, 81, 38
1, 285196, Note_on_c, 0, 78, 54
1, 285227, Note_off_c, 0, 78, 51
1, 285235, Note_on_c, 0, 39, 89
1, 285235, Control_c, 0, 64, 97
1, 285250, Control_c, 0, 64, 68
1, 285257, Note_on_c, 0, 51, 88
1, 285260, Note_on_c, 0, 72, 88
1, 285266, Control_c, 0, 64, 31
1, 285270, Note_off_c, 0, 39, 67
1, 285281, Control_c, 0, 64, 64
1, 285286, Note_off_c, 0, 51, 67
1, 285295, Control_c, 0, 64, 79
1, 285310, Control_c, 0, 64, 108
1, 285325, Note_off_c, 0, 72, 61
1, 285325, Control_c, 0, 64, 127
1, 285339, Note_on_c, 0, 84, 87
1, 285397, Note_off_c, 0, 84, 66
1, 285446, Note_on_c, 0, 84, 96
1, 285448, Note_on_c, 0, 66, 90
1, 285448, Note_on_c, 0, 57, 81
1, 285475, Note_off_c, 0, 66, 68
1, 285483, Note_off_c, 0, 57, 63
1, 285491, Note_off_c, 0, 84, 60
1, 285514, Note_on_c, 0, 90, 64
1, 285533, Note_off_c, 0, 90, 65
1, 285682, Note_on_c, 0, 82, 32
1, 285701, Note_on_c, 0, 40, 101
1, 285717, Control_c, 0, 64, 92
1, 285732, Control_c, 0, 64, 65
1, 285736, Note_on_c, 0, 52, 91
1, 285746, Control_c, 0, 64, 18
1, 285755, Note_off_c, 0, 40, 66
1, 285761, Note_on_c, 0, 73, 85
1, 285761, Control_c, 0, 64, 65
1, 285776, Control_c, 0, 64, 80
1, 285784, Note_off_c, 0, 52, 67
1, 285791, Control_c, 0, 64, 106
1, 285806, Note_off_c, 0, 82, 39
1, 285806, Control_c, 0, 64, 127
1, 285841, Note_off_c, 0, 73, 62
1, 285846, Note_on_c, 0, 85, 83
1, 285853, Note_on_c, 0, 82, 59
1, 285887, Note_off_c, 0, 82, 65
1, 285901, Note_off_c, 0, 85, 66
1, 285943, Note_on_c, 0, 67, 93
1, 285945, Note_on_c, 0, 61, 71
1, 285945, Note_on_c, 0, 58, 82
1, 285957, Note_on_c, 0, 85, 98
1, 285965, Note_off_c, 0, 67, 67
1, 285975, Note_off_c, 0, 61, 61
1, 285975, Note_off_c, 0, 58, 68
1, 285981, Note_on_c, 0, 90, 73
1, 286005, Note_off_c, 0, 85, 66
1, 286014, Note_off_c, 0, 90, 61
1, 286042, Note_on_c, 0, 91, 53
1, 286043, Note_on_c, 0, 94, 24
1, 286068, Note_off_c, 0, 94, 52
1, 286070, Note_off_c, 0, 91, 56
1, 286083, Note_on_c, 0, 87, 65
1, 286100, Note_off_c, 0, 87, 61
1, 286158, Note_on_c, 0, 41, 85
1, 286177, Control_c, 0, 64, 116
1, 286184, Note_on_c, 0, 87, 40
1, 286192, Control_c, 0, 64, 84
1, 286198, Note_on_c, 0, 53, 90
1, 286207, Control_c, 0, 64, 53
1, 286217, Note_off_c, 0, 41, 65
1, 286217, Note_off_c, 0, 87, 50
1, 286222, Control_c, 0, 64, 27
1, 286236, Control_c, 0, 64, 67
1, 286237, Note_off_c, 0, 53, 66
1, 286246, Note_on_c, 0, 76, 93
1, 286251, Control_c, 0, 64, 85
1, 286266, Control_c, 0, 64, 112
1, 286272, Note_on_c, 0, 85, 38
1, 286281, Control_c, 0, 64, 127
1, 286303, Note_off_c, 0, 76, 66
1, 286333, Note_on_c, 0, 88, 78
1, 286360, Note_on_c, 0, 86, 49
1, 286369, Note_off_c, 0, 85, 61
1, 286384, Note_off_c, 0, 88, 64
1, 286385, Note_off_c, 0, 86, 36
1, 286422, Note_on_c, 0, 62, 84
1, 286422, Note_on_c, 0, 68, 89
1, 286432, Note_on_c, 0, 86, 94
1, 286455, Note_on_c, 0, 88, 43
1, 286470, Note_off_c, 0, 68, 63
1, 286473, Note_off_c, 0, 62, 62
1, 286479, Note_off_c, 0, 86, 67
1, 286482, Note_off_c, 0, 88, 35
1, 286569, Note_on_c, 0, 87, 41
1, 286570, Note_off_c, 0, 87, 127
1, 286646, Note_on_c, 0, 81, 42
1, 286651, Note_on_c, 0, 53, 80
1, 286668, Note_on_c, 0, 57, 62
1, 286674, Note_off_c, 0, 81, 47
1, 286707, Note_on_c, 0, 75, 64
1, 286709, Note_on_c, 0, 59, 75
1, 286717, Control_c, 0, 64, 99
1, 286721, Note_on_c, 0, 76, 60
1, 286732, Control_c, 0, 64, 70
1, 286735, Note_off_c, 0, 75, 68
1, 286738, Note_off_c, 0, 76, 64
1, 286747, Control_c, 0, 64, 0
1, 286761, Note_off_c, 0, 53, 60
1, 286775, Note_on_c, 0, 87, 83
1, 286777, Control_c, 0, 64, 57
1, 286792, Control_c, 0, 64, 73
1, 286795, Note_on_c, 0, 63, 82
1, 286807, Control_c, 0, 64, 90
1, 286822, Control_c, 0, 64, 116
1, 286822, Note_off_c, 0, 87, 64
1, 286837, Control_c, 0, 64, 127
1, 286874, Note_on_c, 0, 87, 91
1, 286946, Note_on_c, 0, 69, 98
1, 286947, Note_on_c, 0, 99, 111
1, 286978, Note_on_c, 0, 97, 74
1, 286979, Note_off_c, 0, 99, 72
1, 286989, Note_off_c, 0, 87, 64
1, 286999, Note_off_c, 0, 97, 69
1, 287020, Note_off_c, 0, 69, 67
1, 287132, Note_off_c, 0, 63, 60
1, 287209, Note_off_c, 0, 59, 37
1, 287210, Note_off_c, 0, 57, 34
1, 288594, Control_c, 0, 67, 8
1, 288609, Control_c, 0, 67, 12
1, 288624, Control_c, 0, 67, 17
1, 288638, Control_c, 0, 67, 22
1, 288653, Control_c, 0, 67, 27
1, 288668, Control_c, 0, 67, 32
1, 288683, Control_c, 0, 67, 39
1, 288697, Control_c, 0, 67, 47
1, 288712, Control_c, 0, 67, 57
1, 288727, Control_c, 0, 67, 67
1, 288742, Control_c, 0, 67, 76
1, 288757, Control_c, 0, 67, 84
1, 288771, Control_c, 0, 67, 92
1, 288786, Control_c, 0, 67, 97
1, 288801, Control_c, 0, 67, 103
1, 288816, Control_c, 0, 67, 109
1, 288831, Control_c, 0, 67, 116
1, 288846, Control_c, 0, 67, 123
1, 288861, Control_c, 0, 67, 127
1, 289494, Note_on_c, 0, 69, 32
1, 289515, Note_on_c, 0, 57, 21
1, 289557, Note_off_c, 0, 69, 41
1, 289604, Note_off_c, 0, 57, 46
1, 289830, Note_on_c, 0, 69, 41
1, 289835, Note_on_c, 0, 57, 28
1, 289940, Note_off_c, 0, 69, 51
1, 289952, Note_off_c, 0, 57, 34
1, 290337, Note_on_c, 0, 57, 31
1, 290349, Note_on_c, 0, 69, 26
1, 290405, Note_off_c, 0, 69, 44
1, 290429, Note_off_c, 0, 57, 37
1, 290616, Note_on_c, 0, 57, 35
1, 290635, Note_on_c, 0, 69, 37
1, 290720, Note_off_c, 0, 69, 47
1, 290783, Note_off_c, 0, 57, 37
1, 291181, Note_on_c, 0, 57, 31
1, 291183, Note_on_c, 0, 69, 32
1, 291248, Note_off_c, 0, 57, 54
1, 291248, Note_off_c, 0, 69, 53
1, 291482, Note_on_c, 0, 57, 31
1, 291507, Note_on_c, 0, 69, 32
1, 291596, Note_off_c, 0, 69, 51
1, 291616, Note_off_c, 0, 57, 34
1, 292439, Note_on_c, 0, 69, 48
1, 292463, Note_on_c, 0, 57, 37
1, 292689, Note_off_c, 0, 57, 38
1, 292996, Note_on_c, 0, 72, 63
1, 293021, Note_on_c, 0, 64, 36
1, 293026, Note_on_c, 0, 52, 36
1, 293027, Note_on_c, 0, 57, 19
1, 293034, Note_off_c, 0, 69, 55
1, 293035, Control_c, 0, 64, 112
1, 293050, Control_c, 0, 64, 101
1, 293064, Control_c, 0, 64, 91
1, 293087, Control_c, 0, 64, 80
1, 293102, Control_c, 0, 64, 65
1, 293117, Control_c, 0, 64, 0
1, 293266, Control_c, 0, 64, 52
1, 293281, Control_c, 0, 64, 67
1, 293296, Control_c, 0, 64, 74
1, 293310, Control_c, 0, 64, 80
1, 293325, Control_c, 0, 64, 83
1, 293340, Control_c, 0, 64, 85
1, 293354, Control_c, 0, 64, 87
1, 293369, Control_c, 0, 64, 88
1, 293384, Control_c, 0, 64, 91
1, 293399, Control_c, 0, 64, 92
1, 293414, Control_c, 0, 64, 93
1, 293428, Control_c, 0, 64, 94
1, 293443, Control_c, 0, 64, 94
1, 293458, Control_c, 0, 64, 95
1, 293462, Note_off_c, 0, 57, 38
1, 293473, Control_c, 0, 64, 96
1, 293487, Control_c, 0, 64, 97
1, 293502, Note_off_c, 0, 64, 40
1, 293502, Control_c, 0, 64, 99
1, 293517, Note_off_c, 0, 72, 50
1, 293517, Control_c, 0, 64, 100
1, 293532, Control_c, 0, 64, 102
1, 293547, Control_c, 0, 64, 104
1, 293562, Control_c, 0, 64, 107
1, 293577, Control_c, 0, 64, 110
1, 293591, Control_c, 0, 64, 111
1, 293606, Control_c, 0, 64, 112
1, 293621, Control_c, 0, 64, 113
1, 293636, Control_c, 0, 64, 113
1, 293666, Control_c, 0, 64, 114
1, 293710, Control_c, 0, 64, 113
1, 293721, Note_on_c, 0, 69, 53
1, 293723, Note_off_c, 0, 52, 29
1, 293725, Control_c, 0, 64, 113
1, 293734, Note_on_c, 0, 65, 40
1, 293740, Control_c, 0, 64, 109
1, 293743, Note_on_c, 0, 57, 29
1, 293746, Note_on_c, 0, 50, 29
1, 293754, Control_c, 0, 64, 100
1, 293769, Control_c, 0, 64, 84
1, 293784, Control_c, 0, 64, 68
1, 293799, Control_c, 0, 64, 0
1, 293851, Control_c, 0, 64, 29
1, 293866, Control_c, 0, 64, 68
1, 293881, Control_c, 0, 64, 77
1, 293883, Note_off_c, 0, 65, 50
1, 293895, Control_c, 0, 64, 85
1, 293910, Control_c, 0, 64, 88
1, 293925, Control_c, 0, 64, 88
1, 293940, Control_c, 0, 64, 89
1, 293945, Note_off_c, 0, 57, 37
1, 293955, Control_c, 0, 64, 91
1, 293969, Control_c, 0, 64, 92
1, 293984, Control_c, 0, 64, 93
1, 293999, Control_c, 0, 64, 94
1, 294007, Note_off_c, 0, 50, 34
1, 294047, Note_on_c, 0, 72, 64
1, 294054, Note_on_c, 0, 57, 27
1, 294057, Note_off_c, 0, 69, 63
1, 294059, Control_c, 0, 64, 93
1, 294065, Note_on_c, 0, 52, 34
1, 294073, Note_on_c, 0, 64, 41
1, 294074, Control_c, 0, 64, 90
1, 294089, Control_c, 0, 64, 84
1, 294104, Control_c, 0, 64, 75
1, 294118, Control_c, 0, 64, 61
1, 294133, Control_c, 0, 64, 0
1, 294221, Control_c, 0, 64, 61
1, 294236, Control_c, 0, 64, 69
1, 294251, Control_c, 0, 64, 77
1, 294265, Control_c, 0, 64, 83
1, 294280, Control_c, 0, 64, 85
1, 294295, Control_c, 0, 64, 86
1, 294310, Control_c, 0, 64, 88
1, 294322, Note_off_c, 0, 52, 42
1, 294325, Control_c, 0, 64, 90
1, 294340, Control_c, 0, 64, 92
1, 294342, Note_off_c, 0, 64, 39
1, 294355, Control_c, 0, 64, 93
1, 294369, Control_c, 0, 64, 94
1, 294388, Note_off_c, 0, 57, 38
1, 294399, Control_c, 0, 64, 94
1, 294429, Control_c, 0, 64, 95
1, 294599, Control_c, 0, 64, 94
1, 294604, Note_off_c, 0, 72, 60
1, 294614, Control_c, 0, 64, 93
1, 294625, Note_on_c, 0, 74, 64
1, 294628, Control_c, 0, 64, 88
1, 294638, Note_on_c, 0, 62, 47
1, 294640, Note_on_c, 0, 53, 30
1, 294643, Control_c, 0, 64, 80
1, 294644, Note_on_c, 0, 57, 35
1, 294658, Control_c, 0, 64, 69
1, 294673, Control_c, 0, 64, 0
1, 294762, Control_c, 0, 64, 59
1, 294776, Control_c, 0, 64, 68
1, 294791, Control_c, 0, 64, 75
1, 294805, Note_off_c, 0, 62, 40
1, 294806, Control_c, 0, 64, 82
1, 294821, Control_c, 0, 64, 85
1, 294826, Note_off_c, 0, 57, 34
1, 294835, Control_c, 0, 64, 85
1, 294850, Control_c, 0, 64, 86
1, 294942, Note_on_c, 0, 72, 66
1, 294955, Control_c, 0, 64, 85
1, 294956, Note_off_c, 0, 74, 60
1, 294966, Note_on_c, 0, 57, 37
1, 294969, Note_on_c, 0, 64, 43
1, 294970, Control_c, 0, 64, 81
1, 294979, Note_on_c, 0, 52, 30
1, 294984, Note_off_c, 0, 53, 29
1, 294985, Control_c, 0, 64, 75
1, 295000, Control_c, 0, 64, 64
1, 295014, Control_c, 0, 64, 0
1, 295133, Control_c, 0, 64, 31
1, 295147, Control_c, 0, 64, 63
1, 295162, Control_c, 0, 64, 70
1, 295177, Control_c, 0, 64, 75
1, 295192, Control_c, 0, 64, 80
1, 295207, Control_c, 0, 64, 82
1, 295222, Control_c, 0, 64, 84
1, 295237, Control_c, 0, 64, 85
1, 295251, Control_c, 0, 64, 86
1, 295266, Control_c, 0, 64, 88
1, 295281, Control_c, 0, 64, 89
1, 295296, Control_c, 0, 64, 89
1, 295304, Note_off_c, 0, 57, 33
1, 295366, Note_on_c, 0, 71, 69
1, 295400, Note_off_c, 0, 72, 52
1, 295432, Note_off_c, 0, 64, 39
1, 295451, Control_c, 0, 64, 89
1, 295466, Control_c, 0, 64, 86
1, 295478, Note_off_c, 0, 52, 39
1, 295481, Control_c, 0, 64, 81
1, 295496, Control_c, 0, 64, 71
1, 295499, Note_on_c, 0, 69, 65
1, 295511, Control_c, 0, 64, 50
1, 295515, Note_on_c, 0, 50, 29
1, 295517, Note_on_c, 0, 57, 26
1, 295519, Note_off_c, 0, 71, 55
1, 295523, Note_on_c, 0, 65, 49
1, 295525, Control_c, 0, 64, 0
1, 295675, Control_c, 0, 64, 64
1, 295690, Control_c, 0, 64, 70
1, 295704, Control_c, 0, 64, 76
1, 295719, Control_c, 0, 64, 80
1, 295731, Note_off_c, 0, 57, 37
1, 295734, Control_c, 0, 64, 82
1, 295749, Control_c, 0, 64, 83
1, 295763, Control_c, 0, 64, 84
1, 295778, Control_c, 0, 64, 85
1, 295793, Control_c, 0, 64, 86
1, 295808, Control_c, 0, 64, 86
1, 295875, Note_off_c, 0, 50, 35
1, 295918, Note_on_c, 0, 72, 68
1, 295923, Note_on_c, 0, 64, 51
1, 295926, Control_c, 0, 64, 84
1, 295928, Note_on_c, 0, 52, 33
1, 295940, Note_on_c, 0, 57, 34
1, 295941, Control_c, 0, 64, 80
1, 295943, Note_off_c, 0, 69, 60
1, 295955, Control_c, 0, 64, 72
1, 295969, Note_off_c, 0, 65, 24
1, 295970, Control_c, 0, 64, 61
1, 295985, Control_c, 0, 64, 0
1, 296155, Control_c, 0, 64, 60
1, 296170, Control_c, 0, 64, 67
1, 296185, Control_c, 0, 64, 72
1, 296200, Control_c, 0, 64, 76
1, 296215, Control_c, 0, 64, 79
1, 296230, Control_c, 0, 64, 81
1, 296244, Control_c, 0, 64, 82
1, 296259, Control_c, 0, 64, 84
1, 296274, Control_c, 0, 64, 86
1, 296289, Control_c, 0, 64, 88
1, 296304, Control_c, 0, 64, 88
1, 296319, Control_c, 0, 64, 89
1, 296334, Control_c, 0, 64, 89
1, 296339, Note_off_c, 0, 52, 40
1, 296348, Control_c, 0, 64, 90
1, 296378, Control_c, 0, 64, 90
1, 296390, Note_off_c, 0, 72, 59
1, 296393, Control_c, 0, 64, 91
1, 296395, Note_off_c, 0, 57, 36
1, 296408, Control_c, 0, 64, 92
1, 296422, Control_c, 0, 64, 92
1, 296452, Control_c, 0, 64, 93
1, 296467, Control_c, 0, 64, 93
1, 296482, Control_c, 0, 64, 94
1, 296513, Note_off_c, 0, 64, 42
1, 296526, Control_c, 0, 64, 94
1, 296733, Control_c, 0, 64, 94
1, 296778, Control_c, 0, 64, 93
1, 296808, Control_c, 0, 64, 93
1, 296830, Control_c, 0, 64, 92
1, 296845, Control_c, 0, 64, 90
1, 296859, Control_c, 0, 64, 86
1, 296867, Note_on_c, 0, 74, 63
1, 296874, Control_c, 0, 64, 78
1, 296875, Note_on_c, 0, 53, 32
1, 296889, Control_c, 0, 64, 68
1, 296900, Note_on_c, 0, 57, 20
1, 296900, Note_on_c, 0, 62, 25
1, 296903, Control_c, 0, 64, 0
1, 297022, Control_c, 0, 64, 64
1, 297037, Control_c, 0, 64, 70
1, 297052, Control_c, 0, 64, 76
1, 297067, Control_c, 0, 64, 79
1, 297082, Control_c, 0, 64, 81
1, 297097, Control_c, 0, 64, 81
1, 297111, Control_c, 0, 64, 82
1, 297126, Control_c, 0, 64, 83
1, 297133, Note_off_c, 0, 62, 36
1, 297141, Control_c, 0, 64, 84
1, 297156, Control_c, 0, 64, 85
1, 297171, Control_c, 0, 64, 85
1, 297349, Control_c, 0, 64, 85
1, 297364, Control_c, 0, 64, 83
1, 297379, Control_c, 0, 64, 79
1, 297381, Note_on_c, 0, 76, 64
1, 297390, Note_on_c, 0, 60, 37
1, 297391, Note_on_c, 0, 64, 43
1, 297393, Control_c, 0, 64, 71
1, 297401, Note_on_c, 0, 69, 42
1, 297408, Control_c, 0, 64, 61
1, 297409, Note_on_c, 0, 52, 31
1, 297410, Note_off_c, 0, 53, 34
1, 297414, Note_off_c, 0, 74, 40
1, 297423, Control_c, 0, 64, 0
1, 297430, Note_off_c, 0, 57, 29
1, 297608, Control_c, 0, 64, 62
1, 297623, Control_c, 0, 64, 66
1, 297638, Control_c, 0, 64, 69
1, 297652, Control_c, 0, 64, 71
1, 297667, Control_c, 0, 64, 73
1, 297682, Control_c, 0, 64, 77
1, 297697, Control_c, 0, 64, 79
1, 297712, Control_c, 0, 64, 80
1, 297726, Control_c, 0, 64, 80
1, 297741, Control_c, 0, 64, 81
1, 297767, Note_off_c, 0, 52, 42
1, 297780, Note_off_c, 0, 64, 37
1, 297807, Note_off_c, 0, 60, 32
1, 297824, Note_off_c, 0, 69, 55
1, 297830, Control_c, 0, 64, 81
1, 297970, Note_off_c, 0, 76, 60
1, 298068, Control_c, 0, 64, 81
1, 298142, Control_c, 0, 64, 80
1, 298172, Control_c, 0, 64, 80
1, 298187, Control_c, 0, 64, 79
1, 298216, Control_c, 0, 64, 79
1, 298246, Control_c, 0, 64, 78
1, 298261, Control_c, 0, 64, 78
1, 298275, Control_c, 0, 64, 77
1, 298290, Control_c, 0, 64, 76
1, 298305, Control_c, 0, 64, 75
1, 298328, Control_c, 0, 64, 74
1, 298343, Control_c, 0, 64, 73
1, 298357, Control_c, 0, 64, 71
1, 298372, Control_c, 0, 64, 68
1, 298387, Control_c, 0, 64, 64
1, 298402, Control_c, 0, 64, 52
1, 298417, Control_c, 0, 64, 22
1, 298431, Control_c, 0, 64, 0
1, 298446, Control_c, 0, 64, 18
1, 298475, Control_c, 0, 64, 16
1, 298490, Control_c, 0, 64, 10
1, 298609, Control_c, 0, 64, 13
1, 298653, Control_c, 0, 64, 16
1, 298668, Control_c, 0, 64, 18
1, 298713, Control_c, 0, 64, 19
1, 298728, Control_c, 0, 64, 21
1, 298742, Control_c, 0, 64, 24
1, 298757, Control_c, 0, 64, 25
1, 298772, Control_c, 0, 64, 26
1, 298787, Control_c, 0, 67, 124
1, 298801, Control_c, 0, 67, 116
1, 298816, Control_c, 0, 67, 108
1, 298831, Control_c, 0, 67, 99
1, 298847, Control_c, 0, 67, 90
1, 298862, Control_c, 0, 67, 80
1, 298877, Control_c, 0, 64, 27
1, 298877, Control_c, 0, 67, 70
1, 298891, Control_c, 0, 67, 55
1, 298906, Control_c, 0, 64, 28
1, 298906, Control_c, 0, 67, 42
1, 298921, Control_c, 0, 67, 30
1, 298936, Control_c, 0, 67, 20
1, 298951, Control_c, 0, 67, 12
1, 298965, Control_c, 0, 67, 0
1, 299106, Control_c, 0, 64, 27
1, 299151, Control_c, 0, 64, 26
1, 299166, Control_c, 0, 64, 25
1, 299195, Control_c, 0, 64, 24
1, 299225, Control_c, 0, 64, 22
1, 299240, Control_c, 0, 64, 21
1, 299254, Control_c, 0, 64, 19
1, 299269, Control_c, 0, 64, 18
1, 299284, Control_c, 0, 64, 16
1, 299298, Control_c, 0, 64, 13
1, 299328, Control_c, 0, 64, 10
1, 299343, Control_c, 0, 64, 0
1, 299692, Poly_aftertouch_c, 0, 52, 127
1, 300403, Control_c, 0, 66, 127
1, 301004, Control_c, 0, 67, 11
1, 301018, Control_c, 0, 67, 20
1, 301033, Control_c, 0, 67, 34
1, 301048, Control_c, 0, 67, 56
1, 301062, Control_c, 0, 67, 82
1, 301077, Control_c, 0, 67, 108
1, 301092, Control_c, 0, 67, 126
1, 301107, Control_c, 0, 67, 127
1, 301545, Control_c, 0, 64, 30
1, 301560, Control_c, 0, 64, 48
1, 301574, Control_c, 0, 64, 56
1, 301589, Control_c, 0, 64, 58
1, 301604, Control_c, 0, 64, 60
1, 301619, Control_c, 0, 64, 62
1, 301634, Control_c, 0, 64, 63
1, 301649, Control_c, 0, 64, 65
1, 301664, Control_c, 0, 64, 67
1, 301679, Control_c, 0, 64, 69
1, 301693, Control_c, 0, 64, 71
1, 301708, Control_c, 0, 64, 73
1, 301723, Control_c, 0, 64, 75
1, 301738, Control_c, 0, 64, 76
1, 301753, Control_c, 0, 64, 78
1, 301767, Control_c, 0, 64, 79
1, 301782, Control_c, 0, 64, 81
1, 301797, Control_c, 0, 64, 83
1, 301812, Control_c, 0, 64, 84
1, 301826, Control_c, 0, 64, 85
1, 301841, Control_c, 0, 64, 85
1, 301856, Control_c, 0, 64, 86
1, 301871, Control_c, 0, 64, 86
1, 301885, Control_c, 0, 64, 87
1, 301900, Control_c, 0, 64, 88
1, 301915, Control_c, 0, 64, 89
1, 301930, Control_c, 0, 64, 89
1, 301945, Control_c, 0, 64, 90
1, 301974, Control_c, 0, 64, 91
1, 301989, Poly_aftertouch_c, 0, 52, 0
1, 301989, Control_c, 0, 64, 91
1, 302004, Control_c, 0, 64, 92
1, 302018, Control_c, 0, 64, 92
1, 302050, Control_c, 0, 64, 93
1, 302087, Control_c, 0, 64, 93
1, 302102, Control_c, 0, 64, 94
1, 302131, Control_c, 0, 64, 94
1, 302146, Control_c, 0, 64, 95
1, 302176, Control_c, 0, 64, 95
1, 302191, Control_c, 0, 64, 96
1, 302205, Control_c, 0, 64, 96
1, 302220, Control_c, 0, 64, 97
1, 302249, Control_c, 0, 64, 97
1, 302279, Control_c, 0, 64, 98
1, 302294, Control_c, 0, 64, 98
1, 302309, Control_c, 0, 64, 99
1, 302323, Control_c, 0, 64, 99
1, 302353, Control_c, 0, 64, 100
1, 302368, Control_c, 0, 64, 100
1, 302397, Control_c, 0, 64, 101
1, 302472, Control_c, 0, 64, 101
1, 302577, Note_on_c, 0, 68, 56
1, 302601, Note_on_c, 0, 64, 41
1, 302605, Note_on_c, 0, 52, 16
1, 302606, Note_on_c, 0, 59, 34
1, 302612, Note_on_c, 0, 62, 36
1, 302665, Control_c, 0, 64, 102
1, 302835, Control_c, 0, 64, 102
1, 302865, Control_c, 0, 64, 103
1, 302895, Control_c, 0, 64, 103
1, 302925, Control_c, 0, 64, 104
1, 302940, Control_c, 0, 64, 105
1, 302954, Control_c, 0, 64, 105
1, 302969, Control_c, 0, 64, 106
1, 302984, Control_c, 0, 64, 106
1, 302999, Control_c, 0, 64, 107
1, 303014, Control_c, 0, 64, 108
1, 303029, Control_c, 0, 64, 108
1, 303043, Note_off_c, 0, 62, 36
1, 303044, Control_c, 0, 64, 109
1, 303059, Control_c, 0, 64, 110
1, 303073, Control_c, 0, 64, 110
1, 303088, Control_c, 0, 64, 111
1, 303103, Control_c, 0, 64, 111
1, 303118, Control_c, 0, 64, 112
1, 303133, Control_c, 0, 64, 112
1, 303135, Note_off_c, 0, 59, 40
1, 303147, Control_c, 0, 64, 113
1, 303152, Note_off_c, 0, 64, 41
1, 303162, Control_c, 0, 64, 113
1, 303177, Control_c, 0, 64, 114
1, 303207, Control_c, 0, 64, 114
1, 303236, Control_c, 0, 64, 115
1, 303251, Control_c, 0, 64, 115
1, 303279, Note_off_c, 0, 52, 34
1, 303280, Control_c, 0, 64, 116
1, 303339, Control_c, 0, 64, 116
1, 303357, Note_on_c, 0, 56, 42
1, 303369, Control_c, 0, 64, 117
1, 303416, Note_off_c, 0, 56, 61
1, 303428, Control_c, 0, 64, 117
1, 303458, Control_c, 0, 64, 118
1, 303500, Note_on_c, 0, 56, 31
1, 303502, Note_off_c, 0, 68, 26
1, 303503, Control_c, 0, 64, 118
1, 303569, Control_c, 0, 64, 119
1, 303643, Note_off_c, 0, 56, 50
1, 303658, Note_on_c, 0, 62, 41
1, 303834, Note_on_c, 0, 64, 39
1, 304132, Note_on_c, 0, 28, 36
1, 304147, Note_on_c, 0, 40, 26
1, 304172, Note_on_c, 0, 71, 66
1, 305445, Note_off_c, 0, 28, 36
1, 305783, Note_off_c, 0, 62, 36
1, 305789, Note_off_c, 0, 71, 28
1, 306832, Control_c, 0, 64, 118
1, 306877, Control_c, 0, 64, 118
1, 306892, Control_c, 0, 64, 117
1, 306907, Control_c, 0, 64, 116
1, 306921, Control_c, 0, 64, 114
1, 306936, Control_c, 0, 64, 110
1, 306951, Control_c, 0, 64, 105
1, 306953, Note_on_c, 0, 69, 36
1, 306960, Note_on_c, 0, 33, 31
1, 306966, Control_c, 0, 64, 98
1, 306970, Note_on_c, 0, 45, 20
1, 306973, Note_on_c, 0, 60, 28
1, 306981, Control_c, 0, 64, 90
1, 306991, Note_on_c, 0, 57, 6
1, 306995, Control_c, 0, 64, 83
1, 307010, Control_c, 0, 64, 75
1, 307025, Control_c, 0, 64, 64
1, 307039, Control_c, 0, 64, 0
1, 307051, Note_off_c, 0, 40, 19
1, 308452, Note_off_c, 0, 45, 42
1, 308465, Note_off_c, 0, 64, 52
1, 308471, Note_off_c, 0, 69, 41
1, 308476, Note_off_c, 0, 60, 41
1, 308485, Note_off_c, 0, 33, 43
1, 308493, Note_off_c, 0, 57, 38
1, 308536, Control_c, 0, 66, 0
1, 314349, Control_c, 0, 67, 123
1, 314364, Control_c, 0, 67, 107
1, 314378, Control_c, 0, 64, 19
1, 314378, Control_c, 0, 67, 77
1, 314393, Control_c, 0, 64, 32
1, 314393, Control_c, 0, 67, 39
1, 314408, Control_c, 0, 64, 34
1, 314408, Control_c, 0, 67, 0
1, 314422, Control_c, 0, 64, 37
1, 314437, Control_c, 0, 64, 44
1, 314452, Control_c, 0, 64, 50
1, 314467, Control_c, 0, 64, 52
1, 314497, Control_c, 0, 64, 52
1, 314541, Control_c, 0, 64, 51
1, 314645, Control_c, 0, 64, 51
1, 314748, Control_c, 0, 64, 50
1, 314763, Control_c, 0, 64, 50
1, 314778, Control_c, 0, 64, 49
1, 314831, Control_c, 0, 64, 50
1, 314935, Control_c, 0, 64, 50
1, 314950, Control_c, 0, 64, 51
1, 314994, Control_c, 0, 64, 50
1, 315009, Control_c, 0, 64, 50
1, 315098, Control_c, 0, 64, 49
1, 315185, Control_c, 0, 64, 50
1, 315467, Control_c, 0, 64, 49
1, 315526, Control_c, 0, 64, 50
1, 315608, Control_c, 0, 64, 50
1, 315668, Control_c, 0, 64, 50
1, 315728, Control_c, 0, 64, 49
1, 315757, Control_c, 0, 64, 49
1, 315772, Control_c, 0, 64, 47
1, 315787, Control_c, 0, 64, 47
1, 315801, Control_c, 0, 64, 46
1, 315831, Control_c, 0, 64, 46
1, 315846, Control_c, 0, 64, 45
1, 315861, Control_c, 0, 64, 45
1, 315875, Control_c, 0, 64, 44
1, 315950, Control_c, 0, 64, 45
1, 315965, Control_c, 0, 64, 46
1, 315980, Control_c, 0, 64, 46
1, 316009, Control_c, 0, 64, 47
1, 316024, Control_c, 0, 64, 47
1, 316054, Control_c, 0, 64, 48
1, 316083, Control_c, 0, 64, 48
1, 316128, Control_c, 0, 64, 48
1, 316142, Control_c, 0, 64, 47
1, 316261, Control_c, 0, 64, 48
1, 316328, Control_c, 0, 64, 48
1, 316401, Control_c, 0, 64, 49
1, 316566, Control_c, 0, 64, 48
1, 316655, Control_c, 0, 64, 48
1, 316670, Control_c, 0, 64, 47
1, 316773, Control_c, 0, 64, 47
1, 316817, Control_c, 0, 64, 47
1, 316847, Control_c, 0, 64, 47
1, 316862, Control_c, 0, 64, 46
1, 316921, Control_c, 0, 64, 46
1, 316935, Control_c, 0, 64, 45
1, 316950, Control_c, 0, 64, 44
1, 316965, Control_c, 0, 64, 43
1, 316980, Control_c, 0, 64, 42
1, 316995, Control_c, 0, 64, 39
1, 317009, Control_c, 0, 64, 31
1, 317024, Control_c, 0, 64, 16
1, 317047, Control_c, 0, 64, 0
1, 317047, End_track
0, 0, End_of_file
